0, 0, Header, 1, 8, 480
1, 0, Start_track
1, 0, Title_t, "Seq-1"
1, 0, SMPTE_offset, 96, 0, 0, 0, 0
1, 0, Time_signature, 4, 2, 24, 8
1, 0, Tempo, 500000
1, 608640, Tempo, 444444
1, 608640, End_track
2, 0, Start_track
2, 0, Title_t, "Ludwig Van Beethoven"
2, 267, Control_c, 0, 0, 81
2, 267, Control_c, 0, 32, 3
2, 267, Program_c, 0, 0
2, 268, Control_c, 0, 11, 86
2, 270, Control_c, 0, 7, 127
2, 2266, Note_on_c, 0, 69, 52
2, 2283, Note_on_c, 0, 60, 39
2, 2285, Note_on_c, 0, 57, 37
2, 2287, Note_on_c, 0, 65, 40
2, 2289, Note_on_c, 0, 41, 29
2, 2295, Note_on_c, 0, 48, 30
2, 2297, Note_on_c, 0, 53, 34
2, 2380, Note_off_c, 0, 48, 47
2, 2386, Note_off_c, 0, 53, 48
2, 2389, Note_off_c, 0, 60, 49
2, 2391, Note_off_c, 0, 65, 50
2, 2393, Note_off_c, 0, 57, 49
2, 2398, Note_off_c, 0, 69, 53
2, 2408, Note_off_c, 0, 41, 47
2, 2654, Note_on_c, 0, 72, 63
2, 2658, Control_c, 0, 64, 127
2, 2661, Note_on_c, 0, 69, 52
2, 2662, Note_on_c, 0, 41, 40
2, 2664, Note_on_c, 0, 65, 51
2, 2665, Note_on_c, 0, 60, 52
2, 2667, Note_on_c, 0, 53, 45
2, 2669, Note_on_c, 0, 48, 43
2, 2790, Note_off_c, 0, 48, 50
2, 2807, Note_off_c, 0, 60, 53
2, 2808, Note_off_c, 0, 41, 50
2, 2810, Note_off_c, 0, 65, 52
2, 2823, Note_off_c, 0, 53, 51
2, 2825, Note_off_c, 0, 69, 53
2, 2865, Note_off_c, 0, 72, 55
2, 3143, Control_c, 0, 64, 0
2, 3482, Note_on_c, 0, 72, 43
2, 3570, Note_on_c, 0, 71, 43
2, 3628, Note_off_c, 0, 72, 50
2, 3657, Note_on_c, 0, 74, 49
2, 3723, Note_off_c, 0, 71, 50
2, 3752, Note_off_c, 0, 74, 52
2, 3758, Note_on_c, 0, 72, 55
2, 3835, Note_off_c, 0, 72, 53
2, 4552, Note_on_c, 0, 69, 52
2, 4558, Note_on_c, 0, 53, 34
2, 4566, Note_on_c, 0, 65, 39
2, 4568, Note_on_c, 0, 41, 29
2, 4578, Note_on_c, 0, 48, 30
2, 4586, Note_on_c, 0, 60, 40
2, 4658, Note_off_c, 0, 48, 47
2, 4680, Note_off_c, 0, 53, 48
2, 4683, Note_off_c, 0, 41, 47
2, 4685, Note_off_c, 0, 60, 50
2, 4687, Note_off_c, 0, 65, 49
2, 4705, Note_off_c, 0, 69, 53
2, 4947, Note_on_c, 0, 70, 63
2, 4952, Control_c, 0, 64, 127
2, 4971, Note_on_c, 0, 67, 51
2, 4973, Note_on_c, 0, 40, 40
2, 4981, Note_on_c, 0, 52, 46
2, 4982, Note_on_c, 0, 48, 42
2, 4995, Note_on_c, 0, 60, 52
2, 5112, Note_off_c, 0, 67, 52
2, 5121, Note_off_c, 0, 48, 50
2, 5131, Note_off_c, 0, 60, 53
2, 5137, Note_off_c, 0, 52, 51
2, 5142, Note_off_c, 0, 70, 55
2, 5152, Note_off_c, 0, 40, 50
2, 5523, Control_c, 0, 64, 0
2, 5792, Note_on_c, 0, 70, 43
2, 5880, Note_on_c, 0, 69, 45
2, 5948, Note_off_c, 0, 70, 50
2, 5967, Note_on_c, 0, 72, 49
2, 6031, Note_off_c, 0, 69, 51
2, 6063, Note_off_c, 0, 72, 52
2, 6073, Note_on_c, 0, 70, 55
2, 6155, Note_off_c, 0, 70, 53
2, 6853, Note_on_c, 0, 70, 50
2, 7097, Note_on_c, 0, 69, 43
2, 7109, Note_on_c, 0, 60, 33
2, 7124, Note_on_c, 0, 53, 27
2, 7128, Note_on_c, 0, 57, 30
2, 7153, Note_off_c, 0, 70, 52
2, 7210, Control_c, 0, 64, 127
2, 7398, Note_on_c, 0, 72, 47
2, 7407, Note_off_c, 0, 69, 50
2, 7457, Note_on_c, 0, 77, 48
2, 7488, Note_off_c, 0, 72, 51
2, 7526, Note_off_c, 0, 60, 48
2, 7632, Note_off_c, 0, 57, 47
2, 7721, Note_off_c, 0, 53, 46
2, 7726, Note_on_c, 0, 60, 35
2, 7740, Note_on_c, 0, 58, 31
2, 7742, Note_on_c, 0, 55, 30
2, 7770, Control_c, 0, 64, 0
2, 8004, Note_on_c, 0, 76, 58
2, 8030, Note_off_c, 0, 77, 52
2, 8062, Control_c, 0, 64, 127
2, 8173, Note_off_c, 0, 60, 48
2, 8256, Note_off_c, 0, 58, 47
2, 8276, Note_on_c, 0, 60, 37
2, 8280, Note_on_c, 0, 57, 35
2, 8282, Note_on_c, 0, 77, 63
2, 8287, Note_on_c, 0, 65, 40
2, 8292, Note_off_c, 0, 55, 47
2, 8299, Note_off_c, 0, 76, 54
2, 8324, Control_c, 0, 64, 0
2, 8551, Note_on_c, 0, 81, 68
2, 8573, Note_off_c, 0, 77, 55
2, 8617, Control_c, 0, 64, 127
2, 8643, Note_off_c, 0, 65, 50
2, 8738, Note_off_c, 0, 60, 49
2, 8818, Note_on_c, 0, 65, 43
2, 8820, Note_on_c, 0, 58, 39
2, 8827, Note_on_c, 0, 67, 45
2, 8829, Note_on_c, 0, 62, 41
2, 8861, Note_off_c, 0, 57, 48
2, 8866, Control_c, 0, 64, 0
2, 9101, Note_on_c, 0, 79, 77
2, 9129, Note_off_c, 0, 81, 57
2, 9161, Control_c, 0, 64, 127
2, 9197, Note_off_c, 0, 65, 50
2, 9285, Note_off_c, 0, 62, 50
2, 9295, Note_off_c, 0, 67, 51
2, 9366, Note_on_c, 0, 65, 43
2, 9370, Note_on_c, 0, 69, 45
2, 9382, Note_off_c, 0, 58, 49
2, 9384, Note_on_c, 0, 60, 40
2, 9413, Control_c, 0, 64, 0
2, 9670, Note_on_c, 0, 81, 56
2, 9684, Note_off_c, 0, 79, 59
2, 9708, Control_c, 0, 64, 127
2, 9734, Note_off_c, 0, 65, 50
2, 9785, Note_off_c, 0, 69, 51
2, 9949, Note_on_c, 0, 69, 37
2, 9953, Note_on_c, 0, 65, 35
2, 9955, Note_on_c, 0, 63, 33
2, 9962, Note_on_c, 0, 72, 39
2, 9997, Control_c, 0, 64, 0
2, 10022, Note_off_c, 0, 60, 50
2, 10290, Note_on_c, 0, 82, 65
2, 10298, Control_c, 0, 64, 127
2, 10318, Note_off_c, 0, 81, 54
2, 10388, Note_off_c, 0, 69, 49
2, 10452, Note_on_c, 0, 84, 51
2, 10478, Note_off_c, 0, 82, 56
2, 10497, Note_off_c, 0, 65, 48
2, 10555, Note_off_c, 0, 84, 52
2, 10557, Note_off_c, 0, 72, 49
2, 10666, Note_on_c, 0, 70, 33
2, 10675, Note_on_c, 0, 84, 43
2, 10677, Note_on_c, 0, 62, 26
2, 10688, Note_on_c, 0, 65, 29
2, 10701, Note_off_c, 0, 63, 48
2, 10719, Control_c, 0, 64, 0
2, 11155, Control_c, 0, 64, 127
2, 11186, Note_on_c, 0, 82, 39
2, 11254, Note_off_c, 0, 84, 50
2, 11267, Note_off_c, 0, 62, 46
2, 11273, Note_off_c, 0, 65, 47
2, 11367, Note_off_c, 0, 70, 48
2, 11610, Note_off_c, 0, 82, 49
2, 12060, Control_c, 0, 64, 0
2, 12559, Control_c, 0, 64, 127
2, 12612, Note_on_c, 0, 62, 35
2, 12623, Note_on_c, 0, 65, 37
2, 12625, Note_on_c, 0, 82, 37
2, 12627, Note_on_c, 0, 70, 39
2, 12739, Note_on_c, 0, 84, 42
2, 12748, Note_off_c, 0, 82, 49
2, 12816, Note_on_c, 0, 82, 43
2, 12823, Note_off_c, 0, 84, 50
2, 12883, Note_on_c, 0, 84, 42
2, 12905, Note_off_c, 0, 82, 50
2, 12967, Note_on_c, 0, 82, 55
2, 12974, Note_off_c, 0, 84, 50
2, 13044, Note_off_c, 0, 82, 53
2, 13045, Note_on_c, 0, 81, 54
2, 13120, Note_off_c, 0, 81, 53
2, 13125, Note_on_c, 0, 82, 63
2, 13214, Note_on_c, 0, 86, 69
2, 13216, Note_off_c, 0, 82, 55
2, 13220, Note_off_c, 0, 65, 49
2, 13387, Note_off_c, 0, 70, 49
2, 13478, Note_on_c, 0, 72, 45
2, 13480, Note_on_c, 0, 67, 42
2, 13487, Note_on_c, 0, 64, 40
2, 13502, Note_off_c, 0, 62, 48
2, 13507, Control_c, 0, 64, 0
2, 13726, Note_on_c, 0, 84, 69
2, 13764, Note_off_c, 0, 86, 57
2, 13802, Control_c, 0, 64, 127
2, 13900, Note_on_c, 0, 82, 67
2, 13902, Note_off_c, 0, 84, 57
2, 13994, Note_off_c, 0, 82, 57
2, 14013, Note_on_c, 0, 81, 69
2, 14066, Note_off_c, 0, 72, 51
2, 14099, Note_off_c, 0, 67, 50
2, 14104, Note_on_c, 0, 82, 69
2, 14126, Note_off_c, 0, 81, 57
2, 14166, Note_off_c, 0, 82, 57
2, 14174, Note_on_c, 0, 84, 68
2, 14184, Control_c, 0, 64, 0
2, 14251, Note_on_c, 0, 65, 40
2, 14253, Note_on_c, 0, 72, 45
2, 14255, Note_on_c, 0, 82, 67
2, 14257, Note_on_c, 0, 69, 43
2, 14265, Note_off_c, 0, 64, 50
2, 14289, Note_off_c, 0, 84, 57
2, 14572, Note_on_c, 0, 81, 59
2, 14592, Note_off_c, 0, 82, 57
2, 14654, Control_c, 0, 64, 127
2, 14748, Note_off_c, 0, 72, 51
2, 14755, Note_off_c, 0, 69, 50
2, 14875, Note_off_c, 0, 65, 50
2, 14901, Note_on_c, 0, 67, 42
2, 14905, Note_on_c, 0, 58, 38
2, 14914, Note_on_c, 0, 62, 40
2, 14930, Control_c, 0, 64, 0
2, 15088, Note_off_c, 0, 81, 54
2, 15107, Note_on_c, 0, 79, 51
2, 15182, Note_on_c, 0, 82, 49
2, 15201, Note_off_c, 0, 79, 52
2, 15233, Control_c, 0, 64, 127
2, 15305, Note_off_c, 0, 58, 49
2, 15323, Note_off_c, 0, 67, 50
2, 15401, Note_off_c, 0, 62, 50
2, 15434, Note_on_c, 0, 79, 45
2, 15453, Note_off_c, 0, 82, 52
2, 15491, Note_off_c, 0, 79, 51
2, 15509, Note_on_c, 0, 79, 60
2, 15511, Note_on_c, 0, 69, 41
2, 15513, Note_on_c, 0, 60, 37
2, 15527, Note_on_c, 0, 65, 38
2, 15544, Control_c, 0, 64, 0
2, 15818, Note_on_c, 0, 77, 57
2, 15821, Note_off_c, 0, 79, 55
2, 15838, Control_c, 0, 64, 127
2, 15850, Note_off_c, 0, 60, 49
2, 15894, Note_off_c, 0, 65, 49
2, 15916, Note_off_c, 0, 69, 50
2, 16127, Note_on_c, 0, 60, 33
2, 16130, Note_on_c, 0, 70, 38
2, 16134, Note_on_c, 0, 67, 37
2, 16170, Control_c, 0, 64, 0
2, 16358, Note_on_c, 0, 76, 49
2, 16367, Note_off_c, 0, 77, 54
2, 16435, Note_on_c, 0, 79, 47
2, 16446, Note_off_c, 0, 76, 52
2, 16507, Control_c, 0, 64, 127
2, 16562, Note_off_c, 0, 60, 48
2, 16588, Note_off_c, 0, 70, 49
2, 16622, Note_off_c, 0, 67, 49
2, 16725, Note_on_c, 0, 76, 44
2, 16737, Note_off_c, 0, 79, 51
2, 16804, Note_off_c, 0, 76, 51
2, 16818, Note_on_c, 0, 77, 42
2, 16820, Note_on_c, 0, 65, 33
2, 16828, Note_on_c, 0, 69, 35
2, 16855, Control_c, 0, 64, 0
2, 17240, Control_c, 0, 64, 127
2, 17409, Note_off_c, 0, 69, 48
2, 17457, Note_off_c, 0, 65, 48
2, 17563, Note_off_c, 0, 77, 50
2, 17657, Control_c, 0, 64, 0
2, 17877, Note_on_c, 0, 69, 52
2, 17893, Note_on_c, 0, 41, 29
2, 17896, Note_on_c, 0, 65, 40
2, 17898, Note_on_c, 0, 57, 37
2, 17901, Note_on_c, 0, 48, 32
2, 17903, Note_on_c, 0, 60, 39
2, 17905, Note_on_c, 0, 53, 33
2, 17982, Note_off_c, 0, 60, 49
2, 17991, Note_off_c, 0, 48, 48
2, 17993, Note_off_c, 0, 65, 50
2, 17995, Note_off_c, 0, 69, 53
2, 18010, Note_off_c, 0, 57, 49
2, 18012, Note_off_c, 0, 41, 47
2, 18018, Note_off_c, 0, 53, 48
2, 18193, Note_on_c, 0, 72, 64
2, 18199, Control_c, 0, 64, 127
2, 18220, Note_on_c, 0, 69, 52
2, 18222, Note_on_c, 0, 60, 48
2, 18224, Note_on_c, 0, 65, 50
2, 18226, Note_on_c, 0, 41, 41
2, 18234, Note_on_c, 0, 48, 44
2, 18238, Note_on_c, 0, 53, 45
2, 18327, Note_off_c, 0, 53, 51
2, 18342, Note_off_c, 0, 60, 52
2, 18350, Note_off_c, 0, 65, 52
2, 18352, Note_off_c, 0, 69, 53
2, 18354, Note_off_c, 0, 48, 51
2, 18362, Note_off_c, 0, 41, 50
2, 18376, Note_off_c, 0, 72, 56
2, 18621, Control_c, 0, 64, 0
2, 19040, Note_on_c, 0, 72, 46
2, 19143, Note_on_c, 0, 71, 46
2, 19213, Note_off_c, 0, 72, 51
2, 19230, Note_on_c, 0, 74, 52
2, 19295, Note_off_c, 0, 71, 51
2, 19309, Note_off_c, 0, 74, 53
2, 19316, Note_on_c, 0, 72, 58
2, 19408, Note_off_c, 0, 72, 54
2, 20128, Note_on_c, 0, 69, 69
2, 20142, Note_on_c, 0, 48, 48
2, 20144, Note_on_c, 0, 41, 47
2, 20146, Note_on_c, 0, 57, 57
2, 20148, Note_on_c, 0, 63, 56
2, 20151, Note_on_c, 0, 51, 51
2, 20154, Note_on_c, 0, 60, 56
2, 20226, Note_off_c, 0, 41, 51
2, 20229, Note_off_c, 0, 51, 52
2, 20242, Note_off_c, 0, 60, 54
2, 20244, Note_off_c, 0, 63, 54
2, 20250, Note_off_c, 0, 48, 52
2, 20258, Note_off_c, 0, 57, 54
2, 20260, Note_off_c, 0, 69, 57
2, 20449, Note_on_c, 0, 72, 93
2, 20471, Note_on_c, 0, 51, 75
2, 20473, Note_on_c, 0, 48, 72
2, 20475, Note_on_c, 0, 69, 81
2, 20477, Note_on_c, 0, 41, 71
2, 20479, Control_c, 0, 64, 127
2, 20481, Note_on_c, 0, 60, 81
2, 20484, Note_on_c, 0, 63, 80
2, 20582, Note_off_c, 0, 48, 58
2, 20586, Note_off_c, 0, 41, 58
2, 20594, Note_off_c, 0, 60, 60
2, 20599, Note_off_c, 0, 72, 63
2, 20601, Note_off_c, 0, 69, 60
2, 20604, Note_off_c, 0, 63, 60
2, 20646, Note_off_c, 0, 51, 59
2, 20898, Control_c, 0, 64, 0
2, 21272, Note_on_c, 0, 72, 57
2, 21360, Note_on_c, 0, 71, 57
2, 21418, Note_off_c, 0, 72, 54
2, 21450, Note_on_c, 0, 74, 63
2, 21498, Note_off_c, 0, 71, 54
2, 21533, Note_on_c, 0, 72, 69
2, 21540, Note_off_c, 0, 74, 55
2, 21631, Note_off_c, 0, 72, 57
2, 22276, Control_c, 0, 64, 127
2, 22319, Note_on_c, 0, 57, 66
2, 22321, Note_on_c, 0, 72, 78
2, 22326, Note_on_c, 0, 63, 72
2, 22328, Note_on_c, 0, 53, 72
2, 22409, Note_off_c, 0, 57, 56
2, 22412, Note_on_c, 0, 59, 66
2, 22416, Note_on_c, 0, 71, 80
2, 22443, Note_off_c, 0, 72, 59
2, 22496, Note_on_c, 0, 60, 66
2, 22499, Note_on_c, 0, 69, 82
2, 22515, Note_off_c, 0, 59, 56
2, 22523, Note_off_c, 0, 71, 60
2, 22564, Note_off_c, 0, 63, 58
2, 22578, Note_off_c, 0, 53, 58
2, 22580, Note_on_c, 0, 56, 66
2, 22582, Note_on_c, 0, 52, 72
2, 22584, Note_on_c, 0, 64, 78
2, 22586, Note_on_c, 0, 76, 84
2, 22595, Note_off_c, 0, 60, 56
2, 22619, Note_off_c, 0, 69, 60
2, 22638, Control_c, 0, 64, 0
2, 22654, Note_off_c, 0, 52, 58
2, 22656, Note_off_c, 0, 64, 59
2, 22658, Note_off_c, 0, 56, 56
2, 22664, Note_off_c, 0, 76, 61
2, 22832, Note_on_c, 0, 72, 72
2, 22834, Note_on_c, 0, 57, 54
2, 22839, Note_on_c, 0, 53, 60
2, 22842, Control_c, 0, 64, 127
2, 22844, Note_on_c, 0, 63, 66
2, 22923, Note_on_c, 0, 71, 72
2, 22925, Note_off_c, 0, 57, 53
2, 22930, Note_on_c, 0, 59, 54
2, 22946, Note_off_c, 0, 72, 58
2, 23009, Note_on_c, 0, 69, 78
2, 23011, Note_on_c, 0, 60, 60
2, 23019, Note_off_c, 0, 71, 58
2, 23021, Note_off_c, 0, 59, 53
2, 23091, Note_on_c, 0, 56, 66
2, 23098, Note_off_c, 0, 60, 55
2, 23101, Note_on_c, 0, 64, 78
2, 23103, Note_off_c, 0, 63, 56
2, 23105, Note_on_c, 0, 76, 84
2, 23107, Note_off_c, 0, 53, 55
2, 23108, Note_on_c, 0, 52, 72
2, 23135, Control_c, 0, 64, 0
2, 23137, Note_off_c, 0, 69, 59
2, 23180, Note_off_c, 0, 64, 59
2, 23182, Note_off_c, 0, 52, 58
2, 23184, Note_off_c, 0, 56, 56
2, 23188, Note_off_c, 0, 76, 61
2, 23364, Control_c, 0, 64, 127
2, 23370, Note_on_c, 0, 53, 60
2, 23372, Note_on_c, 0, 72, 72
2, 23374, Note_on_c, 0, 57, 54
2, 23376, Note_on_c, 0, 63, 66
2, 23458, Note_on_c, 0, 59, 54
2, 23460, Note_on_c, 0, 71, 72
2, 23463, Note_off_c, 0, 57, 53
2, 23494, Note_off_c, 0, 72, 58
2, 23532, Note_on_c, 0, 69, 78
2, 23542, Note_on_c, 0, 60, 60
2, 23549, Note_off_c, 0, 59, 53
2, 23556, Note_off_c, 0, 71, 58
2, 23627, Note_on_c, 0, 76, 84
2, 23629, Note_off_c, 0, 60, 55
2, 23631, Note_off_c, 0, 63, 56
2, 23633, Note_off_c, 0, 53, 55
2, 23634, Note_on_c, 0, 64, 78
2, 23636, Note_on_c, 0, 56, 66
2, 23638, Note_on_c, 0, 52, 72
2, 23655, Note_off_c, 0, 69, 59
2, 23712, Note_off_c, 0, 64, 59
2, 23715, Note_off_c, 0, 76, 61
2, 23717, Note_off_c, 0, 56, 56
2, 23723, Note_off_c, 0, 52, 58
2, 23899, Control_c, 0, 64, 0
2, 24428, Control_c, 0, 64, 127
2, 24456, Note_on_c, 0, 67, 51
2, 24461, Note_on_c, 0, 55, 40
2, 24463, Note_on_c, 0, 43, 33
2, 24601, Note_on_c, 0, 47, 33
2, 24615, Note_off_c, 0, 43, 48
2, 24694, Note_off_c, 0, 55, 50
2, 24730, Note_off_c, 0, 67, 52
2, 24740, Note_on_c, 0, 52, 41
2, 24742, Note_on_c, 0, 64, 48
2, 24744, Note_on_c, 0, 48, 33
2, 24746, Control_c, 0, 64, 0
2, 24784, Note_off_c, 0, 47, 48
2, 24821, Note_off_c, 0, 52, 50
2, 24877, Note_on_c, 0, 52, 40
2, 24896, Control_c, 0, 64, 127
2, 24899, Note_off_c, 0, 48, 48
2, 25030, Note_on_c, 0, 43, 35
2, 25158, Note_off_c, 0, 64, 52
2, 25167, Note_on_c, 0, 47, 35
2, 25193, Note_off_c, 0, 43, 48
2, 25236, Note_off_c, 0, 52, 50
2, 25303, Note_on_c, 0, 67, 56
2, 25306, Note_on_c, 0, 48, 36
2, 25308, Note_on_c, 0, 55, 50
2, 25310, Note_on_c, 0, 60, 44
2, 25312, Note_on_c, 0, 64, 36
2, 25312, Control_c, 0, 64, 0
2, 25355, Note_off_c, 0, 47, 48
2, 25457, Note_on_c, 0, 52, 37
2, 25462, Control_c, 0, 64, 127
2, 25507, Note_off_c, 0, 48, 49
2, 25592, Note_on_c, 0, 43, 37
2, 25622, Note_off_c, 0, 52, 49
2, 25650, Note_off_c, 0, 60, 51
2, 25666, Note_off_c, 0, 64, 49
2, 25690, Note_off_c, 0, 55, 52
2, 25748, Note_on_c, 0, 47, 38
2, 25790, Note_off_c, 0, 43, 49
2, 25805, Note_off_c, 0, 67, 54
2, 25887, Note_on_c, 0, 72, 64
2, 25889, Note_on_c, 0, 48, 39
2, 25892, Note_on_c, 0, 60, 60
2, 25894, Note_on_c, 0, 64, 52
2, 25896, Note_on_c, 0, 67, 44
2, 25898, Control_c, 0, 64, 0
2, 25952, Note_off_c, 0, 47, 49
2, 26024, Note_off_c, 0, 48, 49
2, 26026, Note_on_c, 0, 52, 40
2, 26050, Control_c, 0, 64, 127
2, 26174, Note_on_c, 0, 43, 40
2, 26228, Note_off_c, 0, 52, 50
2, 26314, Note_on_c, 0, 47, 41
2, 26377, Note_off_c, 0, 43, 50
2, 26396, Note_off_c, 0, 60, 55
2, 26428, Note_off_c, 0, 67, 51
2, 26442, Note_off_c, 0, 64, 53
2, 26465, Note_on_c, 0, 48, 42
2, 26492, Note_off_c, 0, 47, 50
2, 26539, Note_off_c, 0, 72, 56
2, 26604, Note_on_c, 0, 52, 42
2, 26665, Note_off_c, 0, 48, 50
2, 26778, Note_off_c, 0, 52, 50
2, 26798, Note_on_c, 0, 76, 79
2, 26801, Control_c, 0, 64, 127
2, 26803, Note_on_c, 0, 43, 43
2, 26805, Note_on_c, 0, 64, 67
2, 26938, Note_on_c, 0, 47, 44
2, 26976, Note_off_c, 0, 64, 57
2, 26978, Note_off_c, 0, 43, 50
2, 27071, Note_on_c, 0, 79, 84
2, 27079, Note_on_c, 0, 48, 45
2, 27081, Note_on_c, 0, 67, 73
2, 27088, Note_off_c, 0, 76, 60
2, 27123, Note_off_c, 0, 47, 51
2, 27135, Control_c, 0, 64, 0
2, 27214, Note_on_c, 0, 52, 45
2, 27229, Note_off_c, 0, 48, 51
2, 27254, Control_c, 0, 64, 127
2, 27257, Note_off_c, 0, 67, 58
2, 27344, Note_on_c, 0, 84, 91
2, 27353, Note_on_c, 0, 43, 44
2, 27355, Note_on_c, 0, 72, 78
2, 27360, Control_c, 0, 64, 0
2, 27363, Note_off_c, 0, 79, 61
2, 27366, Note_off_c, 0, 52, 51
2, 27471, Control_c, 0, 64, 127
2, 27487, Note_on_c, 0, 47, 43
2, 27536, Note_off_c, 0, 43, 51
2, 27644, Note_on_c, 0, 48, 42
2, 27675, Note_off_c, 0, 47, 50
2, 27778, Note_on_c, 0, 52, 41
2, 27810, Note_off_c, 0, 48, 50
2, 27816, Note_off_c, 0, 72, 59
2, 27931, Note_off_c, 0, 84, 62
2, 27933, Note_off_c, 0, 52, 50
2, 27935, Note_on_c, 0, 88, 65
2, 27939, Note_on_c, 0, 43, 34
2, 27941, Note_on_c, 0, 76, 49
2, 27949, Control_c, 0, 64, 0
2, 28059, Control_c, 0, 64, 127
2, 28062, Note_off_c, 0, 76, 52
2, 28071, Note_on_c, 0, 86, 55
2, 28073, Note_on_c, 0, 74, 44
2, 28076, Note_off_c, 0, 43, 48
2, 28090, Note_off_c, 0, 88, 56
2, 28128, Note_on_c, 0, 47, 33
2, 28148, Note_off_c, 0, 74, 51
2, 28169, Note_off_c, 0, 86, 53
2, 28303, Note_off_c, 0, 47, 48
2, 28318, Note_on_c, 0, 84, 52
2, 28327, Note_on_c, 0, 72, 42
2, 28333, Note_on_c, 0, 50, 32
2, 28335, Control_c, 0, 64, 0
2, 28447, Control_c, 0, 64, 127
2, 28465, Note_on_c, 0, 53, 31
2, 28517, Note_off_c, 0, 50, 48
2, 28623, Note_on_c, 0, 43, 30
2, 28632, Note_off_c, 0, 53, 47
2, 28758, Note_on_c, 0, 49, 29
2, 28803, Note_off_c, 0, 72, 50
2, 28811, Note_off_c, 0, 43, 47
2, 28890, Note_on_c, 0, 83, 41
2, 28896, Note_on_c, 0, 50, 27
2, 28898, Note_on_c, 0, 71, 31
2, 28914, Control_c, 0, 64, 0
2, 28916, Note_off_c, 0, 84, 53
2, 28937, Note_off_c, 0, 49, 47
2, 29024, Control_c, 0, 64, 127
2, 29031, Note_on_c, 0, 53, 27
2, 29052, Note_off_c, 0, 50, 46
2, 29100, Note_off_c, 0, 71, 47
2, 29169, Note_on_c, 0, 43, 33
2, 29180, Note_off_c, 0, 83, 50
2, 29189, Note_off_c, 0, 53, 46
2, 29305, Note_on_c, 0, 49, 34
2, 29310, Note_off_c, 0, 43, 48
2, 29445, Note_on_c, 0, 50, 34
2, 29450, Note_on_c, 0, 71, 51
2, 29456, Note_on_c, 0, 59, 48
2, 29458, Note_on_c, 0, 65, 31
2, 29460, Note_on_c, 0, 62, 40
2, 29462, Control_c, 0, 64, 0
2, 29476, Note_off_c, 0, 49, 48
2, 29581, Note_on_c, 0, 53, 35
2, 29611, Control_c, 0, 64, 127
2, 29620, Note_off_c, 0, 50, 48
2, 29719, Note_on_c, 0, 43, 36
2, 29750, Note_off_c, 0, 53, 48
2, 29787, Note_off_c, 0, 62, 50
2, 29832, Note_off_c, 0, 65, 47
2, 29835, Note_off_c, 0, 59, 52
2, 29854, Note_on_c, 0, 49, 36
2, 29856, Note_off_c, 0, 43, 49
2, 29874, Note_off_c, 0, 71, 52
2, 29991, Note_on_c, 0, 74, 58
2, 29993, Note_on_c, 0, 50, 37
2, 29995, Note_on_c, 0, 62, 50
2, 29997, Note_on_c, 0, 65, 46
2, 29999, Note_off_c, 0, 49, 49
2, 29999, Note_on_c, 0, 71, 38
2, 30002, Control_c, 0, 64, 0
2, 30144, Note_on_c, 0, 53, 38
2, 30154, Control_c, 0, 64, 127
2, 30170, Note_off_c, 0, 50, 49
2, 30284, Note_on_c, 0, 43, 38
2, 30321, Note_off_c, 0, 65, 51
2, 30335, Note_off_c, 0, 53, 49
2, 30363, Note_off_c, 0, 62, 52
2, 30369, Note_off_c, 0, 71, 49
2, 30385, Note_off_c, 0, 74, 54
2, 30438, Note_on_c, 0, 49, 39
2, 30475, Note_off_c, 0, 43, 49
2, 30573, Note_on_c, 0, 77, 73
2, 30576, Note_on_c, 0, 50, 39
2, 30579, Note_on_c, 0, 65, 66
2, 30581, Note_on_c, 0, 71, 56
2, 30583, Note_on_c, 0, 74, 53
2, 30585, Control_c, 0, 64, 0
2, 30598, Note_off_c, 0, 49, 49
2, 30711, Note_on_c, 0, 53, 40
2, 30737, Control_c, 0, 64, 127
2, 30765, Note_off_c, 0, 50, 49
2, 30866, Note_on_c, 0, 43, 41
2, 30873, Note_off_c, 0, 53, 50
2, 31002, Note_on_c, 0, 49, 41
2, 31020, Note_off_c, 0, 74, 53
2, 31042, Note_off_c, 0, 71, 54
2, 31059, Note_off_c, 0, 43, 50
2, 31158, Note_on_c, 0, 50, 42
2, 31164, Note_off_c, 0, 49, 50
2, 31165, Note_off_c, 0, 65, 56
2, 31238, Note_off_c, 0, 77, 58
2, 31293, Note_on_c, 0, 53, 43
2, 31334, Note_off_c, 0, 50, 50
2, 31423, Note_on_c, 0, 83, 77
2, 31428, Note_on_c, 0, 71, 68
2, 31434, Note_on_c, 0, 43, 43
2, 31436, Control_c, 0, 64, 0
2, 31439, Note_off_c, 0, 53, 50
2, 31567, Note_on_c, 0, 49, 44
2, 31589, Control_c, 0, 64, 127
2, 31618, Note_off_c, 0, 43, 50
2, 31653, Note_off_c, 0, 71, 57
2, 31699, Note_on_c, 0, 86, 82
2, 31706, Note_on_c, 0, 74, 73
2, 31710, Note_on_c, 0, 50, 45
2, 31715, Note_off_c, 0, 49, 51
2, 31723, Note_off_c, 0, 83, 59
2, 31734, Control_c, 0, 64, 0
2, 31831, Control_c, 0, 64, 127
2, 31841, Note_on_c, 0, 53, 45
2, 31870, Note_off_c, 0, 50, 51
2, 31922, Note_off_c, 0, 74, 58
2, 31973, Note_on_c, 0, 89, 91
2, 31980, Note_on_c, 0, 77, 82
2, 31982, Note_on_c, 0, 43, 45
2, 31999, Note_off_c, 0, 86, 60
2, 32007, Control_c, 0, 64, 0
2, 32013, Note_off_c, 0, 53, 51
2, 32106, Control_c, 0, 64, 127
2, 32114, Note_on_c, 0, 49, 44
2, 32131, Note_off_c, 0, 43, 51
2, 32254, Note_on_c, 0, 50, 43
2, 32267, Note_off_c, 0, 49, 51
2, 32390, Note_on_c, 0, 53, 42
2, 32436, Note_off_c, 0, 50, 50
2, 32477, Note_off_c, 0, 77, 60
2, 32522, Note_on_c, 0, 88, 72
2, 32529, Note_on_c, 0, 43, 41
2, 32531, Note_on_c, 0, 76, 64
2, 32550, Note_off_c, 0, 89, 62
2, 32553, Control_c, 0, 64, 0
2, 32584, Note_off_c, 0, 53, 50
2, 32654, Note_off_c, 0, 76, 56
2, 32658, Control_c, 0, 64, 127
2, 32721, Note_off_c, 0, 43, 50
2, 32724, Note_off_c, 0, 88, 58
2, 32726, Note_on_c, 0, 50, 40
2, 32913, Note_on_c, 0, 86, 63
2, 32918, Note_on_c, 0, 74, 51
2, 32923, Note_on_c, 0, 52, 39
2, 32947, Control_c, 0, 64, 0
2, 32952, Note_off_c, 0, 50, 50
2, 33045, Control_c, 0, 64, 127
2, 33074, Note_on_c, 0, 55, 39
2, 33101, Note_off_c, 0, 52, 49
2, 33206, Note_off_c, 0, 55, 49
2, 33213, Note_on_c, 0, 48, 38
2, 33362, Note_off_c, 0, 48, 49
2, 33367, Note_on_c, 0, 51, 37
2, 33451, Note_off_c, 0, 74, 52
2, 33499, Note_on_c, 0, 84, 57
2, 33506, Note_on_c, 0, 72, 45
2, 33508, Note_on_c, 0, 52, 36
2, 33523, Note_off_c, 0, 86, 55
2, 33547, Control_c, 0, 64, 0
2, 33549, Note_off_c, 0, 51, 49
2, 33631, Note_off_c, 0, 72, 51
2, 33641, Note_on_c, 0, 55, 35
2, 33645, Control_c, 0, 64, 127
2, 33674, Note_off_c, 0, 52, 49
2, 33736, Note_off_c, 0, 84, 54
2, 33777, Note_on_c, 0, 52, 34
2, 33794, Note_off_c, 0, 55, 48
2, 33914, Note_on_c, 0, 50, 33
2, 33929, Note_off_c, 0, 52, 48
2, 34017, Note_off_c, 0, 50, 48
2, 34053, Note_on_c, 0, 76, 92
2, 34055, Note_on_c, 0, 64, 79
2, 34057, Note_on_c, 0, 48, 51
2, 34059, Note_on_c, 0, 72, 72
2, 34061, Note_on_c, 0, 67, 81
2, 34130, Control_c, 0, 64, 0
2, 34193, Note_on_c, 0, 60, 57
2, 34207, Note_off_c, 0, 48, 52
2, 34229, Control_c, 0, 64, 127
2, 34279, Note_off_c, 0, 64, 60
2, 34351, Note_on_c, 0, 64, 57
2, 34363, Note_off_c, 0, 60, 54
2, 34446, Note_off_c, 0, 67, 60
2, 34449, Note_off_c, 0, 72, 58
2, 34481, Note_on_c, 0, 62, 59
2, 34492, Note_off_c, 0, 76, 62
2, 34601, Note_off_c, 0, 64, 54
2, 34622, Note_off_c, 0, 62, 54
2, 34637, Note_on_c, 0, 60, 61
2, 34641, Note_on_c, 0, 79, 92
2, 34648, Note_on_c, 0, 67, 88
2, 34650, Note_on_c, 0, 76, 72
2, 34652, Note_on_c, 0, 72, 80
2, 34771, Note_on_c, 0, 64, 63
2, 34793, Note_off_c, 0, 60, 55
2, 34905, Note_on_c, 0, 60, 65
2, 34934, Note_off_c, 0, 64, 55
2, 35047, Note_off_c, 0, 72, 60
2, 35049, Note_on_c, 0, 59, 67
2, 35069, Note_off_c, 0, 60, 56
2, 35129, Note_off_c, 0, 76, 58
2, 35154, Note_off_c, 0, 67, 62
2, 35177, Note_on_c, 0, 84, 97
2, 35179, Note_off_c, 0, 79, 62
2, 35184, Note_on_c, 0, 72, 87
2, 35186, Note_on_c, 0, 57, 69
2, 35196, Note_off_c, 0, 59, 57
2, 35198, Control_c, 0, 64, 0
2, 35311, Control_c, 0, 64, 127
2, 35321, Note_on_c, 0, 60, 69
2, 35342, Note_off_c, 0, 57, 57
2, 35474, Note_on_c, 0, 57, 67
2, 35496, Note_off_c, 0, 60, 57
2, 35611, Note_on_c, 0, 55, 65
2, 35630, Note_off_c, 0, 57, 57
2, 35765, Note_on_c, 0, 54, 62
2, 35780, Note_off_c, 0, 55, 56
2, 35811, Note_off_c, 0, 72, 61
2, 35890, Note_off_c, 0, 84, 64
2, 35899, Note_on_c, 0, 57, 60
2, 35923, Note_off_c, 0, 54, 55
2, 36033, Note_on_c, 0, 85, 96
2, 36040, Note_on_c, 0, 54, 57
2, 36044, Note_on_c, 0, 73, 86
2, 36057, Control_c, 0, 64, 0
2, 36062, Note_off_c, 0, 57, 55
2, 36170, Control_c, 0, 64, 127
2, 36177, Note_on_c, 0, 52, 57
2, 36197, Note_off_c, 0, 54, 54
2, 36312, Note_on_c, 0, 50, 57
2, 36333, Note_off_c, 0, 52, 54
2, 36453, Note_on_c, 0, 52, 56
2, 36470, Note_off_c, 0, 50, 54
2, 36565, Note_off_c, 0, 73, 61
2, 36597, Note_on_c, 0, 86, 89
2, 36605, Note_on_c, 0, 74, 79
2, 36607, Note_on_c, 0, 54, 54
2, 36621, Control_c, 0, 64, 0
2, 36626, Note_off_c, 0, 52, 54
2, 36643, Note_off_c, 0, 85, 63
2, 36733, Control_c, 0, 64, 127
2, 36741, Note_on_c, 0, 55, 52
2, 36758, Note_off_c, 0, 54, 53
2, 36878, Note_off_c, 0, 55, 53
2, 36880, Note_on_c, 0, 57, 51
2, 37014, Note_off_c, 0, 57, 52
2, 37015, Note_on_c, 0, 50, 49
2, 37118, Note_off_c, 0, 74, 60
2, 37152, Note_off_c, 0, 50, 52
2, 37154, Note_on_c, 0, 84, 92
2, 37156, Note_on_c, 0, 52, 47
2, 37159, Note_on_c, 0, 72, 82
2, 37169, Control_c, 0, 64, 0
2, 37196, Note_off_c, 0, 86, 62
2, 37272, Note_off_c, 0, 72, 60
2, 37285, Control_c, 0, 64, 127
2, 37289, Note_off_c, 0, 52, 51
2, 37291, Note_on_c, 0, 54, 45
2, 37358, Note_off_c, 0, 84, 62
2, 37391, Note_off_c, 0, 54, 51
2, 37416, Note_on_c, 0, 84, 74
2, 37425, Note_on_c, 0, 72, 64
2, 37428, Note_on_c, 0, 55, 58
2, 37528, Note_on_c, 0, 59, 54
2, 37640, Note_off_c, 0, 59, 53
2, 37641, Note_on_c, 0, 62, 53
2, 37663, Note_off_c, 0, 72, 56
2, 37718, Note_on_c, 0, 83, 70
2, 37727, Note_off_c, 0, 62, 53
2, 37730, Note_on_c, 0, 59, 52
2, 37731, Note_on_c, 0, 71, 60
2, 37739, Note_off_c, 0, 84, 59
2, 37802, Control_c, 0, 64, 0
2, 37837, Note_off_c, 0, 59, 53
2, 37839, Note_on_c, 0, 62, 51
2, 37875, Note_off_c, 0, 71, 55
2, 37935, Note_off_c, 0, 62, 52
2, 37937, Note_on_c, 0, 59, 50
2, 38001, Note_off_c, 0, 83, 57
2, 38047, Note_off_c, 0, 59, 52
2, 38049, Note_off_c, 0, 55, 54
2, 38051, Note_on_c, 0, 57, 47
2, 38134, Note_on_c, 0, 60, 42
2, 38238, Note_off_c, 0, 60, 50
2, 38240, Note_on_c, 0, 62, 41
2, 38330, Note_off_c, 0, 62, 50
2, 38331, Note_on_c, 0, 78, 51
2, 38333, Note_on_c, 0, 60, 40
2, 38335, Note_on_c, 0, 72, 41
2, 38423, Note_off_c, 0, 60, 50
2, 38425, Note_on_c, 0, 62, 39
2, 38449, Note_off_c, 0, 78, 52
2, 38534, Note_off_c, 0, 62, 49
2, 38538, Note_on_c, 0, 60, 38
2, 38557, Note_off_c, 0, 72, 50
2, 38628, Note_off_c, 0, 60, 49
2, 38632, Note_off_c, 0, 57, 51
2, 38634, Note_on_c, 0, 72, 48
2, 38636, Note_on_c, 0, 79, 62
2, 38638, Note_on_c, 0, 55, 37
2, 38730, Note_on_c, 0, 59, 33
2, 38818, Note_off_c, 0, 59, 48
2, 38821, Note_on_c, 0, 62, 34
2, 38932, Note_off_c, 0, 62, 48
2, 38933, Note_on_c, 0, 71, 45
2, 38935, Note_on_c, 0, 59, 35
2, 38957, Note_off_c, 0, 72, 52
2, 39024, Note_off_c, 0, 59, 48
2, 39027, Note_on_c, 0, 62, 37
2, 39135, Note_off_c, 0, 62, 49
2, 39138, Note_on_c, 0, 59, 38
2, 39154, Note_off_c, 0, 71, 51
2, 39248, Note_off_c, 0, 79, 55
2, 39250, Note_off_c, 0, 59, 49
2, 39252, Note_off_c, 0, 55, 49
2, 39255, Note_on_c, 0, 54, 43
2, 39335, Note_on_c, 0, 57, 41
2, 39425, Note_off_c, 0, 57, 50
2, 39427, Note_on_c, 0, 62, 42
2, 39531, Note_off_c, 0, 62, 50
2, 39533, Note_on_c, 0, 57, 43
2, 39535, Note_on_c, 0, 84, 69
2, 39626, Note_off_c, 0, 57, 50
2, 39627, Note_on_c, 0, 62, 45
2, 39656, Note_off_c, 0, 84, 57
2, 39716, Note_off_c, 0, 62, 51
2, 39719, Note_on_c, 0, 57, 45
2, 39834, Note_off_c, 0, 57, 51
2, 39837, Note_off_c, 0, 54, 50
2, 39838, Note_on_c, 0, 84, 57
2, 39840, Note_on_c, 0, 55, 53
2, 39918, Note_on_c, 0, 59, 42
2, 39971, Note_on_c, 0, 83, 57
2, 39995, Note_off_c, 0, 84, 54
2, 40021, Note_off_c, 0, 59, 50
2, 40026, Note_on_c, 0, 62, 39
2, 40135, Note_off_c, 0, 62, 49
2, 40136, Note_on_c, 0, 81, 50
2, 40138, Note_on_c, 0, 59, 36
2, 40154, Note_off_c, 0, 83, 54
2, 40227, Note_off_c, 0, 59, 49
2, 40229, Note_on_c, 0, 62, 33
2, 40285, Note_on_c, 0, 79, 45
2, 40306, Note_off_c, 0, 81, 52
2, 40338, Note_off_c, 0, 62, 48
2, 40342, Note_on_c, 0, 59, 33
2, 40399, Note_off_c, 0, 79, 51
2, 40433, Note_off_c, 0, 59, 48
2, 40435, Note_off_c, 0, 55, 53
2, 40437, Note_on_c, 0, 57, 41
2, 40537, Note_on_c, 0, 60, 42
2, 40624, Note_off_c, 0, 60, 50
2, 40627, Note_on_c, 0, 62, 45
2, 40720, Note_off_c, 0, 62, 51
2, 40722, Note_on_c, 0, 72, 47
2, 40724, Note_on_c, 0, 78, 57
2, 40725, Note_on_c, 0, 60, 43
2, 40831, Note_off_c, 0, 78, 54
2, 40832, Note_off_c, 0, 60, 50
2, 40834, Note_on_c, 0, 62, 45
2, 40921, Note_off_c, 0, 62, 51
2, 40925, Note_on_c, 0, 60, 44
2, 40945, Note_off_c, 0, 72, 51
2, 41016, Note_off_c, 0, 60, 51
2, 41019, Note_off_c, 0, 57, 50
2, 41021, Note_on_c, 0, 55, 39
2, 41023, Note_on_c, 0, 72, 44
2, 41024, Note_on_c, 0, 79, 57
2, 41122, Note_on_c, 0, 59, 40
2, 41175, Note_on_c, 0, 71, 53
2, 41195, Note_off_c, 0, 72, 51
2, 41229, Note_off_c, 0, 59, 50
2, 41230, Note_on_c, 0, 62, 39
2, 41318, Note_off_c, 0, 62, 49
2, 41320, Note_on_c, 0, 59, 37
2, 41322, Note_on_c, 0, 69, 48
2, 41335, Note_off_c, 0, 71, 53
2, 41430, Note_off_c, 0, 59, 49
2, 41432, Note_on_c, 0, 62, 35
2, 41487, Note_on_c, 0, 67, 45
2, 41511, Note_off_c, 0, 69, 52
2, 41522, Note_off_c, 0, 62, 48
2, 41525, Note_on_c, 0, 59, 33
2, 41599, Note_off_c, 0, 67, 51
2, 41636, Note_off_c, 0, 59, 48
2, 41638, Note_off_c, 0, 55, 49
2, 41640, Note_on_c, 0, 54, 37
2, 41642, Note_off_c, 0, 79, 54
2, 41723, Note_on_c, 0, 57, 39
2, 41827, Note_off_c, 0, 57, 49
2, 41832, Note_on_c, 0, 62, 45
2, 41921, Note_off_c, 0, 62, 51
2, 41923, Note_on_c, 0, 84, 69
2, 41925, Note_on_c, 0, 57, 45
2, 42013, Note_off_c, 0, 57, 51
2, 42016, Note_on_c, 0, 62, 45
2, 42022, Note_off_c, 0, 84, 57
2, 42129, Note_off_c, 0, 62, 51
2, 42130, Note_on_c, 0, 57, 44
2, 42219, Note_off_c, 0, 57, 51
2, 42222, Note_off_c, 0, 54, 49
2, 42223, Note_on_c, 0, 84, 57
2, 42225, Note_on_c, 0, 55, 46
2, 42324, Note_on_c, 0, 59, 41
2, 42360, Note_on_c, 0, 83, 57
2, 42380, Note_off_c, 0, 84, 54
2, 42411, Note_off_c, 0, 59, 50
2, 42413, Note_on_c, 0, 62, 39
2, 42520, Note_off_c, 0, 62, 49
2, 42522, Note_on_c, 0, 81, 50
2, 42523, Note_on_c, 0, 59, 38
2, 42546, Note_off_c, 0, 83, 54
2, 42611, Note_off_c, 0, 59, 49
2, 42616, Note_on_c, 0, 62, 36
2, 42669, Note_on_c, 0, 79, 45
2, 42692, Note_off_c, 0, 81, 52
2, 42724, Note_off_c, 0, 62, 49
2, 42730, Note_on_c, 0, 59, 33
2, 42786, Note_off_c, 0, 79, 51
2, 42838, Note_off_c, 0, 59, 48
2, 42839, Note_off_c, 0, 55, 51
2, 42842, Note_on_c, 0, 54, 37
2, 42926, Note_on_c, 0, 57, 37
2, 43016, Note_off_c, 0, 57, 49
2, 43019, Note_on_c, 0, 62, 41
2, 43120, Note_off_c, 0, 62, 50
2, 43121, Note_on_c, 0, 57, 45
2, 43125, Note_on_c, 0, 84, 69
2, 43208, Note_off_c, 0, 84, 57
2, 43215, Note_off_c, 0, 57, 51
2, 43218, Note_on_c, 0, 62, 45
2, 43311, Note_off_c, 0, 62, 51
2, 43313, Note_on_c, 0, 57, 45
2, 43422, Note_off_c, 0, 57, 51
2, 43423, Note_off_c, 0, 54, 49
2, 43425, Note_on_c, 0, 84, 57
2, 43428, Note_on_c, 0, 55, 47
2, 43505, Note_on_c, 0, 59, 41
2, 43563, Note_on_c, 0, 83, 57
2, 43584, Note_off_c, 0, 84, 54
2, 43611, Note_off_c, 0, 59, 50
2, 43618, Note_on_c, 0, 62, 38
2, 43705, Note_off_c, 0, 62, 49
2, 43707, Note_on_c, 0, 59, 36
2, 43709, Note_on_c, 0, 81, 50
2, 43729, Note_off_c, 0, 83, 54
2, 43817, Note_off_c, 0, 59, 49
2, 43819, Note_on_c, 0, 62, 33
2, 43874, Note_on_c, 0, 79, 45
2, 43895, Note_off_c, 0, 81, 52
2, 43932, Note_off_c, 0, 62, 48
2, 43934, Note_on_c, 0, 59, 33
2, 43986, Note_off_c, 0, 79, 51
2, 44021, Note_off_c, 0, 59, 48
2, 44027, Note_off_c, 0, 55, 51
2, 44028, Note_on_c, 0, 54, 42
2, 44110, Note_on_c, 0, 57, 43
2, 44219, Note_off_c, 0, 57, 50
2, 44220, Note_on_c, 0, 62, 49
2, 44307, Note_off_c, 0, 62, 52
2, 44309, Note_on_c, 0, 84, 69
2, 44311, Note_on_c, 0, 57, 54
2, 44392, Note_off_c, 0, 84, 57
2, 44399, Note_off_c, 0, 57, 53
2, 44400, Note_on_c, 0, 62, 54
2, 44511, Note_off_c, 0, 62, 53
2, 44514, Note_on_c, 0, 57, 57
2, 44604, Control_c, 0, 64, 127
2, 44609, Note_off_c, 0, 57, 54
2, 44611, Note_off_c, 0, 54, 50
2, 44613, Note_on_c, 0, 84, 57
2, 44615, Note_on_c, 0, 55, 69
2, 44668, Note_on_c, 0, 59, 69
2, 44707, Note_on_c, 0, 62, 69
2, 44765, Note_on_c, 0, 83, 57
2, 44783, Note_off_c, 0, 84, 54
2, 44899, Note_on_c, 0, 81, 53
2, 44907, Control_c, 0, 64, 0
2, 44922, Note_off_c, 0, 83, 54
2, 45026, Note_off_c, 0, 59, 57
2, 45029, Note_off_c, 0, 55, 57
2, 45055, Note_off_c, 0, 62, 57
2, 45057, Note_on_c, 0, 79, 49
2, 45074, Note_off_c, 0, 81, 53
2, 45193, Note_on_c, 0, 78, 45
2, 45216, Note_off_c, 0, 79, 52
2, 45331, Note_on_c, 0, 79, 50
2, 45351, Note_off_c, 0, 78, 51
2, 45483, Note_on_c, 0, 81, 55
2, 45510, Note_off_c, 0, 79, 52
2, 45639, Note_on_c, 0, 79, 56
2, 45661, Note_off_c, 0, 81, 53
2, 45794, Note_on_c, 0, 78, 45
2, 45817, Note_off_c, 0, 79, 54
2, 45931, Note_on_c, 0, 79, 45
2, 45955, Note_off_c, 0, 78, 51
2, 46083, Note_on_c, 0, 81, 47
2, 46110, Note_off_c, 0, 79, 51
2, 46239, Note_on_c, 0, 79, 49
2, 46261, Note_off_c, 0, 81, 51
2, 46375, Note_on_c, 0, 78, 52
2, 46398, Note_off_c, 0, 79, 52
2, 46531, Note_on_c, 0, 79, 54
2, 46550, Note_off_c, 0, 78, 53
2, 46666, Note_on_c, 0, 80, 57
2, 46691, Note_off_c, 0, 79, 53
2, 46805, Note_on_c, 0, 81, 57
2, 46824, Note_off_c, 0, 80, 54
2, 46893, Note_off_c, 0, 81, 54
2, 46933, Note_on_c, 0, 81, 76
2, 46944, Note_on_c, 0, 65, 52
2, 46946, Note_on_c, 0, 67, 45
2, 46954, Control_c, 0, 64, 127
2, 47230, Note_on_c, 0, 77, 56
2, 47237, Note_on_c, 0, 62, 32
2, 47249, Note_off_c, 0, 81, 59
2, 47262, Note_off_c, 0, 65, 53
2, 47321, Control_c, 0, 64, 0
2, 47386, Note_off_c, 0, 67, 51
2, 47441, Note_off_c, 0, 77, 54
2, 47449, Note_off_c, 0, 62, 48
2, 47520, Note_on_c, 0, 67, 39
2, 47522, Note_on_c, 0, 74, 63
2, 47524, Note_on_c, 0, 59, 39
2, 47597, Note_off_c, 0, 59, 49
2, 47628, Note_off_c, 0, 74, 55
2, 47683, Note_off_c, 0, 67, 49
2, 47729, Note_on_c, 0, 76, 57
2, 47794, Note_on_c, 0, 77, 57
2, 47796, Note_on_c, 0, 60, 33
2, 47798, Note_off_c, 0, 76, 54
2, 47798, Note_on_c, 0, 67, 33
2, 47864, Note_on_c, 0, 76, 57
2, 47870, Note_off_c, 0, 77, 54
2, 47873, Note_off_c, 0, 60, 48
2, 47928, Note_on_c, 0, 74, 61
2, 47939, Note_off_c, 0, 76, 54
2, 47968, Note_off_c, 0, 67, 48
2, 47998, Note_on_c, 0, 76, 65
2, 48005, Note_off_c, 0, 74, 55
2, 48058, Note_on_c, 0, 81, 76
2, 48059, Note_off_c, 0, 76, 56
2, 48067, Note_on_c, 0, 67, 47
2, 48070, Note_on_c, 0, 65, 53
2, 48077, Control_c, 0, 64, 127
2, 48353, Note_on_c, 0, 77, 56
2, 48362, Note_on_c, 0, 62, 44
2, 48370, Note_off_c, 0, 81, 59
2, 48379, Note_off_c, 0, 65, 53
2, 48466, Control_c, 0, 64, 0
2, 48506, Note_off_c, 0, 67, 51
2, 48565, Note_off_c, 0, 77, 54
2, 48574, Note_off_c, 0, 62, 51
2, 48643, Note_on_c, 0, 74, 63
2, 48645, Note_on_c, 0, 59, 54
2, 48648, Note_on_c, 0, 67, 54
2, 48722, Note_off_c, 0, 59, 53
2, 48781, Note_off_c, 0, 74, 55
2, 48839, Note_off_c, 0, 67, 53
2, 48840, Note_on_c, 0, 76, 57
2, 48906, Note_off_c, 0, 76, 54
2, 48917, Note_on_c, 0, 60, 49
2, 48919, Note_on_c, 0, 77, 57
2, 48921, Note_on_c, 0, 67, 51
2, 48986, Note_off_c, 0, 77, 54
2, 48988, Note_on_c, 0, 76, 57
2, 49015, Note_off_c, 0, 60, 52
2, 49055, Note_off_c, 0, 76, 54
2, 49058, Note_on_c, 0, 74, 57
2, 49121, Note_off_c, 0, 74, 54
2, 49123, Note_on_c, 0, 76, 56
2, 49186, Note_on_c, 0, 77, 56
2, 49190, Note_off_c, 0, 76, 54
2, 49192, Note_off_c, 0, 67, 52
2, 49198, Note_on_c, 0, 69, 44
2, 49200, Note_on_c, 0, 53, 47
2, 49202, Note_on_c, 0, 74, 46
2, 49211, Note_on_c, 0, 65, 42
2, 49320, Note_off_c, 0, 65, 50
2, 49330, Note_off_c, 0, 53, 51
2, 49332, Note_off_c, 0, 69, 51
2, 49336, Note_off_c, 0, 74, 51
2, 49358, Note_off_c, 0, 77, 54
2, 49798, Note_on_c, 0, 74, 51
2, 49807, Note_on_c, 0, 62, 40
2, 49816, Note_on_c, 0, 71, 41
2, 49818, Note_on_c, 0, 55, 36
2, 49820, Note_on_c, 0, 67, 38
2, 49824, Note_on_c, 0, 59, 37
2, 49927, Note_off_c, 0, 55, 49
2, 49958, Note_off_c, 0, 59, 49
2, 49975, Note_off_c, 0, 67, 49
2, 49978, Note_off_c, 0, 62, 50
2, 49984, Note_off_c, 0, 71, 50
2, 49991, Note_off_c, 0, 74, 52
2, 50537, Note_on_c, 0, 76, 42
2, 50558, Note_on_c, 0, 60, 30
2, 50560, Note_on_c, 0, 72, 32
2, 50565, Note_on_c, 0, 64, 28
2, 50568, Note_on_c, 0, 55, 27
2, 50571, Control_c, 0, 64, 127
2, 50573, Note_on_c, 0, 67, 29
2, 50575, Note_on_c, 0, 48, 24
2, 50577, Note_on_c, 0, 52, 25
2, 50937, Note_off_c, 0, 67, 47
2, 50944, Note_off_c, 0, 64, 47
2, 50946, Note_off_c, 0, 48, 46
2, 50955, Note_off_c, 0, 52, 46
2, 50959, Note_off_c, 0, 60, 47
2, 50995, Note_off_c, 0, 72, 48
2, 51015, Note_off_c, 0, 76, 50
2, 51017, Note_off_c, 0, 55, 46
2, 51608, Control_c, 0, 64, 0
2, 51742, Note_on_c, 0, 67, 70
2, 51744, Note_on_c, 0, 63, 62
2, 51810, Note_on_c, 0, 79, 72
2, 51882, Note_off_c, 0, 67, 57
2, 51884, Note_on_c, 0, 75, 72
2, 51895, Note_off_c, 0, 79, 58
2, 51953, Note_on_c, 0, 67, 84
2, 51970, Note_off_c, 0, 75, 58
2, 52017, Note_on_c, 0, 68, 90
2, 52019, Note_on_c, 0, 65, 82
2, 52025, Control_c, 0, 64, 127
2, 52034, Note_off_c, 0, 67, 61
2, 52038, Note_off_c, 0, 63, 55
2, 52084, Note_on_c, 0, 80, 96
2, 52157, Note_on_c, 0, 77, 96
2, 52168, Note_off_c, 0, 80, 63
2, 52222, Note_on_c, 0, 67, 96
2, 52233, Note_off_c, 0, 65, 60
2, 52243, Note_off_c, 0, 77, 63
2, 52290, Note_on_c, 0, 62, 64
2, 52293, Note_on_c, 0, 65, 72
2, 52295, Note_off_c, 0, 68, 62
2, 52317, Note_off_c, 0, 67, 63
2, 52341, Control_c, 0, 64, 0
2, 52358, Note_on_c, 0, 77, 94
2, 52446, Note_on_c, 0, 74, 93
2, 52466, Note_off_c, 0, 77, 63
2, 52516, Note_off_c, 0, 65, 58
2, 52518, Note_off_c, 0, 62, 56
2, 52520, Note_on_c, 0, 67, 92
2, 52529, Note_off_c, 0, 74, 63
2, 52582, Note_on_c, 0, 62, 75
2, 52585, Note_on_c, 0, 59, 67
2, 52606, Note_off_c, 0, 67, 62
2, 52641, Note_off_c, 0, 59, 57
2, 52643, Note_off_c, 0, 62, 59
2, 52668, Note_on_c, 0, 74, 90
2, 52737, Note_on_c, 0, 71, 89
2, 52752, Note_off_c, 0, 74, 62
2, 52824, Note_on_c, 0, 67, 88
2, 52842, Note_off_c, 0, 71, 62
2, 52890, Note_on_c, 0, 63, 87
2, 52892, Note_on_c, 0, 60, 79
2, 52910, Note_off_c, 0, 67, 62
2, 52945, Note_off_c, 0, 63, 61
2, 52953, Note_off_c, 0, 60, 60
2, 52978, Note_on_c, 0, 75, 86
2, 53046, Note_on_c, 0, 72, 85
2, 53064, Note_off_c, 0, 75, 61
2, 53116, Note_on_c, 0, 67, 84
2, 53129, Note_off_c, 0, 72, 61
2, 53181, Note_off_c, 0, 67, 61
2, 53193, Note_on_c, 0, 65, 82
2, 53197, Note_on_c, 0, 68, 90
2, 53207, Control_c, 0, 64, 127
2, 53267, Note_on_c, 0, 80, 96
2, 53339, Note_on_c, 0, 77, 96
2, 53352, Note_off_c, 0, 80, 63
2, 53397, Note_off_c, 0, 65, 60
2, 53405, Note_on_c, 0, 67, 96
2, 53421, Note_off_c, 0, 77, 63
2, 53466, Note_on_c, 0, 62, 64
2, 53472, Note_off_c, 0, 67, 63
2, 53474, Note_on_c, 0, 65, 72
2, 53476, Note_off_c, 0, 68, 62
2, 53525, Control_c, 0, 64, 0
2, 53560, Note_on_c, 0, 77, 94
2, 53630, Note_on_c, 0, 74, 93
2, 53651, Note_off_c, 0, 77, 63
2, 53687, Note_off_c, 0, 62, 56
2, 53700, Note_off_c, 0, 65, 58
2, 53702, Note_on_c, 0, 67, 92
2, 53718, Note_off_c, 0, 74, 63
2, 53781, Note_on_c, 0, 62, 75
2, 53783, Note_on_c, 0, 59, 67
2, 53801, Note_off_c, 0, 67, 62
2, 53848, Note_off_c, 0, 59, 57
2, 53850, Note_off_c, 0, 62, 59
2, 53865, Note_on_c, 0, 74, 90
2, 53941, Note_on_c, 0, 71, 89
2, 53959, Note_off_c, 0, 74, 62
2, 54022, Note_on_c, 0, 67, 88
2, 54045, Note_off_c, 0, 71, 62
2, 54090, Note_on_c, 0, 63, 87
2, 54092, Note_on_c, 0, 60, 79
2, 54109, Note_off_c, 0, 67, 62
2, 54154, Note_off_c, 0, 63, 61
2, 54157, Note_off_c, 0, 60, 60
2, 54178, Note_on_c, 0, 75, 86
2, 54249, Note_on_c, 0, 72, 85
2, 54266, Note_off_c, 0, 75, 61
2, 54331, Note_on_c, 0, 67, 84
2, 54348, Note_off_c, 0, 72, 61
2, 54382, Note_off_c, 0, 67, 61
2, 54383, Note_on_c, 0, 77, 84
2, 54397, Note_on_c, 0, 53, 68
2, 54400, Note_on_c, 0, 62, 71
2, 54402, Note_on_c, 0, 74, 73
2, 54409, Note_on_c, 0, 56, 70
2, 54412, Note_on_c, 0, 68, 72
2, 54525, Note_off_c, 0, 56, 57
2, 54541, Note_off_c, 0, 68, 58
2, 54549, Note_off_c, 0, 53, 57
2, 54551, Note_off_c, 0, 74, 58
2, 54559, Note_off_c, 0, 62, 58
2, 54588, Note_off_c, 0, 77, 61
2, 54990, Note_on_c, 0, 74, 81
2, 54997, Note_on_c, 0, 71, 70
2, 55000, Note_on_c, 0, 62, 68
2, 55002, Note_on_c, 0, 59, 67
2, 55003, Note_on_c, 0, 65, 68
2, 55006, Note_on_c, 0, 55, 65
2, 55133, Note_off_c, 0, 62, 57
2, 55141, Note_off_c, 0, 71, 57
2, 55143, Note_off_c, 0, 55, 56
2, 55145, Note_off_c, 0, 65, 57
2, 55148, Note_off_c, 0, 59, 57
2, 55175, Note_off_c, 0, 74, 60
2, 55595, Note_on_c, 0, 72, 75
2, 55612, Note_on_c, 0, 68, 64
2, 55617, Note_on_c, 0, 60, 59
2, 55619, Note_on_c, 0, 56, 62
2, 55624, Note_on_c, 0, 63, 62
2, 55741, Note_off_c, 0, 63, 55
2, 55755, Note_off_c, 0, 60, 54
2, 55765, Note_off_c, 0, 68, 56
2, 55770, Note_off_c, 0, 56, 55
2, 55830, Note_off_c, 0, 72, 59
2, 56970, Note_on_c, 0, 72, 37
2, 56986, Note_on_c, 0, 69, 28
2, 56989, Note_on_c, 0, 63, 26
2, 56992, Control_c, 0, 64, 127
2, 56994, Note_on_c, 0, 54, 25
2, 56998, Note_on_c, 0, 57, 23
2, 57003, Note_on_c, 0, 60, 25
2, 57327, Note_off_c, 0, 57, 45
2, 57343, Note_off_c, 0, 60, 46
2, 57363, Note_off_c, 0, 69, 47
2, 57381, Note_off_c, 0, 54, 46
2, 57382, Note_off_c, 0, 63, 46
2, 57402, Note_off_c, 0, 72, 49
2, 57896, Control_c, 0, 64, 0
2, 58423, Note_on_c, 0, 55, 26
2, 58426, Note_on_c, 0, 53, 37
2, 58482, Note_off_c, 0, 55, 46
2, 58491, Note_off_c, 0, 53, 49
2, 58551, Note_on_c, 0, 71, 48
2, 58571, Note_on_c, 0, 62, 38
2, 58697, Note_off_c, 0, 71, 52
2, 58700, Note_on_c, 0, 55, 28
2, 58704, Note_off_c, 0, 62, 49
2, 58705, Note_on_c, 0, 47, 39
2, 58769, Note_off_c, 0, 47, 49
2, 58771, Note_off_c, 0, 55, 47
2, 58833, Note_on_c, 0, 74, 51
2, 58836, Note_on_c, 0, 65, 40
2, 58977, Note_off_c, 0, 65, 50
2, 58980, Note_on_c, 0, 55, 30
2, 58981, Note_on_c, 0, 48, 42
2, 58991, Note_off_c, 0, 74, 52
2, 59044, Note_off_c, 0, 48, 50
2, 59054, Note_off_c, 0, 55, 47
2, 59122, Note_on_c, 0, 72, 54
2, 59124, Note_on_c, 0, 64, 42
2, 59257, Note_off_c, 0, 64, 50
2, 59267, Note_on_c, 0, 43, 46
2, 59269, Note_on_c, 0, 55, 34
2, 59270, Note_off_c, 0, 72, 53
2, 59323, Note_off_c, 0, 55, 48
2, 59342, Note_off_c, 0, 43, 51
2, 59396, Note_on_c, 0, 76, 58
2, 59400, Note_on_c, 0, 72, 46
2, 59547, Note_off_c, 0, 72, 51
2, 59557, Note_on_c, 0, 55, 36
2, 59560, Note_off_c, 0, 76, 54
2, 59562, Note_on_c, 0, 50, 48
2, 59620, Note_off_c, 0, 50, 52
2, 59621, Note_off_c, 0, 55, 49
2, 59682, Note_on_c, 0, 77, 61
2, 59692, Note_on_c, 0, 71, 50
2, 59826, Note_off_c, 0, 71, 52
2, 59828, Note_off_c, 0, 77, 55
2, 59833, Note_on_c, 0, 43, 52
2, 59835, Note_on_c, 0, 55, 40
2, 59897, Note_off_c, 0, 43, 53
2, 59907, Note_off_c, 0, 55, 50
2, 59956, Note_on_c, 0, 83, 65
2, 59964, Note_on_c, 0, 77, 53
2, 60104, Note_off_c, 0, 77, 53
2, 60106, Note_on_c, 0, 48, 55
2, 60108, Note_on_c, 0, 55, 43
2, 60110, Note_off_c, 0, 83, 56
2, 60170, Note_off_c, 0, 48, 53
2, 60172, Note_off_c, 0, 55, 50
2, 60231, Note_on_c, 0, 84, 69
2, 60238, Note_on_c, 0, 76, 56
2, 60390, Note_off_c, 0, 76, 54
2, 60396, Note_on_c, 0, 55, 47
2, 60399, Note_on_c, 0, 43, 59
2, 60404, Note_off_c, 0, 84, 57
2, 60456, Note_off_c, 0, 55, 51
2, 60459, Note_off_c, 0, 43, 54
2, 60528, Note_on_c, 0, 88, 71
2, 60538, Note_on_c, 0, 84, 58
2, 60672, Note_on_c, 0, 55, 49
2, 60675, Note_off_c, 0, 88, 58
2, 60677, Note_on_c, 0, 50, 62
2, 60679, Note_off_c, 0, 84, 54
2, 60732, Note_off_c, 0, 55, 52
2, 60737, Note_off_c, 0, 50, 55
2, 60813, Note_on_c, 0, 83, 62
2, 60815, Note_on_c, 0, 89, 76
2, 60945, Note_off_c, 0, 83, 55
2, 60946, Note_on_c, 0, 55, 53
2, 60948, Note_on_c, 0, 53, 66
2, 60956, Note_off_c, 0, 89, 59
2, 61006, Note_off_c, 0, 55, 53
2, 61012, Note_off_c, 0, 53, 56
2, 61078, Note_on_c, 0, 83, 80
2, 61085, Note_on_c, 0, 74, 65
2, 61218, Note_off_c, 0, 74, 56
2, 61220, Note_on_c, 0, 55, 56
2, 61222, Note_on_c, 0, 52, 69
2, 61237, Note_off_c, 0, 83, 60
2, 61286, Note_off_c, 0, 55, 54
2, 61293, Note_off_c, 0, 52, 57
2, 61362, Note_on_c, 0, 84, 82
2, 61378, Note_on_c, 0, 76, 69
2, 61510, Note_off_c, 0, 76, 57
2, 61512, Note_off_c, 0, 84, 60
2, 61514, Note_on_c, 0, 55, 60
2, 61516, Note_on_c, 0, 48, 74
2, 61574, Note_off_c, 0, 48, 59
2, 61575, Note_off_c, 0, 55, 55
2, 61636, Note_on_c, 0, 88, 86
2, 61652, Note_on_c, 0, 79, 73
2, 61786, Note_on_c, 0, 55, 63
2, 61789, Note_off_c, 0, 79, 58
2, 61791, Note_off_c, 0, 88, 61
2, 61793, Note_on_c, 0, 50, 77
2, 61849, Note_off_c, 0, 50, 59
2, 61853, Note_off_c, 0, 55, 55
2, 61912, Note_on_c, 0, 89, 90
2, 61923, Note_on_c, 0, 77, 78
2, 62052, Note_off_c, 0, 77, 59
2, 62060, Note_on_c, 0, 55, 68
2, 62062, Note_on_c, 0, 53, 82
2, 62065, Note_off_c, 0, 89, 62
2, 62129, Note_off_c, 0, 53, 60
2, 62131, Note_off_c, 0, 55, 57
2, 62192, Note_on_c, 0, 74, 81
2, 62194, Note_on_c, 0, 83, 94
2, 62324, Note_off_c, 0, 74, 60
2, 62333, Note_on_c, 0, 55, 71
2, 62336, Note_on_c, 0, 52, 85
2, 62340, Note_off_c, 0, 83, 63
2, 62400, Note_off_c, 0, 55, 58
2, 62402, Note_off_c, 0, 52, 61
2, 62463, Note_on_c, 0, 84, 97
2, 62472, Note_on_c, 0, 76, 83
2, 62605, Note_off_c, 0, 76, 60
2, 62607, Note_on_c, 0, 48, 89
2, 62609, Note_on_c, 0, 55, 74
2, 62615, Note_off_c, 0, 84, 64
2, 62664, Note_off_c, 0, 48, 62
2, 62667, Note_off_c, 0, 55, 59
2, 62722, Note_on_c, 0, 88, 104
2, 62729, Note_on_c, 0, 79, 89
2, 62859, Note_off_c, 0, 79, 62
2, 62871, Note_off_c, 0, 88, 66
2, 62878, Note_on_c, 0, 41, 76
2, 62880, Control_c, 0, 64, 127
2, 62897, Note_on_c, 0, 50, 95
2, 62899, Note_on_c, 0, 45, 80
2, 63119, Note_on_c, 0, 86, 80
2, 63125, Note_off_c, 0, 41, 59
2, 63146, Note_off_c, 0, 50, 63
2, 63148, Note_off_c, 0, 45, 60
2, 63189, Control_c, 0, 64, 0
2, 63207, Note_on_c, 0, 85, 79
2, 63240, Note_off_c, 0, 86, 60
2, 63293, Note_on_c, 0, 88, 78
2, 63329, Note_off_c, 0, 85, 60
2, 63380, Note_on_c, 0, 86, 77
2, 63382, Note_on_c, 0, 53, 69
2, 63389, Control_c, 0, 64, 127
2, 63391, Note_on_c, 0, 57, 66
2, 63396, Note_on_c, 0, 62, 69
2, 63399, Note_off_c, 0, 88, 59
2, 63432, Note_off_c, 0, 86, 59
2, 63645, Note_off_c, 0, 53, 57
2, 63653, Note_on_c, 0, 81, 74
2, 63659, Note_off_c, 0, 57, 56
2, 63669, Note_off_c, 0, 62, 57
2, 63704, Control_c, 0, 64, 0
2, 63735, Note_on_c, 0, 80, 73
2, 63773, Note_off_c, 0, 81, 59
2, 63821, Note_on_c, 0, 83, 72
2, 63857, Note_off_c, 0, 80, 58
2, 63905, Note_on_c, 0, 81, 71
2, 63929, Note_off_c, 0, 83, 58
2, 63989, Note_off_c, 0, 81, 58
2, 64179, Note_on_c, 0, 77, 68
2, 64264, Note_on_c, 0, 76, 67
2, 64301, Note_off_c, 0, 77, 57
2, 64354, Note_on_c, 0, 79, 66
2, 64388, Note_off_c, 0, 76, 57
2, 64457, Note_on_c, 0, 77, 65
2, 64476, Note_off_c, 0, 79, 56
2, 64537, Note_off_c, 0, 77, 56
2, 64731, Note_on_c, 0, 74, 62
2, 64816, Note_on_c, 0, 73, 61
2, 64834, Note_off_c, 0, 74, 55
2, 64901, Note_on_c, 0, 76, 61
2, 64923, Note_off_c, 0, 73, 55
2, 65004, Note_on_c, 0, 74, 60
2, 65009, Note_off_c, 0, 76, 55
2, 65082, Note_off_c, 0, 74, 55
2, 65268, Control_c, 0, 64, 127
2, 65270, Note_on_c, 0, 74, 93
2, 65278, Note_on_c, 0, 62, 81
2, 65808, Note_off_c, 0, 62, 60
2, 65817, Note_on_c, 0, 76, 69
2, 65828, Note_on_c, 0, 64, 57
2, 65841, Note_off_c, 0, 74, 63
2, 65844, Control_c, 0, 64, 0
2, 65940, Note_off_c, 0, 64, 54
2, 65950, Control_c, 0, 64, 0
2, 65957, Note_on_c, 0, 77, 69
2, 65966, Note_on_c, 0, 65, 69
2, 65976, Note_off_c, 0, 76, 57
2, 66023, Note_off_c, 0, 65, 57
2, 66058, Note_off_c, 0, 77, 57
2, 66091, Note_on_c, 0, 79, 89
2, 66101, Note_on_c, 0, 67, 77
2, 66125, Control_c, 0, 64, 0
2, 66228, Control_c, 0, 64, 0
2, 66605, Note_off_c, 0, 67, 59
2, 66643, Note_on_c, 0, 62, 75
2, 66648, Note_on_c, 0, 65, 85
2, 66650, Note_on_c, 0, 55, 70
2, 66652, Note_on_c, 0, 59, 73
2, 66658, Control_c, 0, 64, 0
2, 66735, Note_on_c, 0, 81, 89
2, 66744, Note_off_c, 0, 79, 62
2, 66771, Control_c, 0, 64, 127
2, 66819, Note_on_c, 0, 79, 85
2, 66843, Note_off_c, 0, 81, 62
2, 66922, Note_on_c, 0, 77, 81
2, 66938, Note_off_c, 0, 79, 61
2, 67010, Note_on_c, 0, 76, 77
2, 67030, Note_off_c, 0, 77, 60
2, 67091, Note_off_c, 0, 62, 59
2, 67094, Note_on_c, 0, 74, 73
2, 67100, Note_off_c, 0, 65, 61
2, 67115, Note_off_c, 0, 76, 59
2, 67117, Note_off_c, 0, 55, 57
2, 67136, Note_off_c, 0, 59, 58
2, 67161, Note_off_c, 0, 74, 58
2, 67198, Note_on_c, 0, 72, 69
2, 67200, Note_on_c, 0, 60, 32
2, 67248, Control_c, 0, 64, 0
2, 67284, Note_off_c, 0, 60, 48
2, 67285, Note_on_c, 0, 64, 32
2, 67363, Note_on_c, 0, 67, 33
2, 67373, Note_off_c, 0, 64, 48
2, 67461, Note_off_c, 0, 67, 48
2, 67471, Note_off_c, 0, 72, 57
2, 67479, Note_on_c, 0, 60, 33
2, 67552, Note_on_c, 0, 64, 35
2, 67565, Note_off_c, 0, 60, 48
2, 67644, Note_on_c, 0, 67, 36
2, 67647, Note_off_c, 0, 64, 48
2, 67742, Note_on_c, 0, 60, 36
2, 67744, Note_off_c, 0, 67, 49
2, 67748, Note_on_c, 0, 79, 60
2, 67827, Note_off_c, 0, 60, 49
2, 67831, Note_on_c, 0, 64, 36
2, 67884, Note_off_c, 0, 79, 55
2, 67912, Note_on_c, 0, 67, 37
2, 67915, Note_off_c, 0, 64, 49
2, 68018, Note_off_c, 0, 67, 49
2, 68020, Note_on_c, 0, 79, 56
2, 68022, Note_on_c, 0, 60, 38
2, 68105, Note_off_c, 0, 60, 49
2, 68107, Note_on_c, 0, 64, 38
2, 68157, Note_off_c, 0, 79, 54
2, 68186, Note_off_c, 0, 64, 49
2, 68193, Note_on_c, 0, 67, 39
2, 68289, Note_on_c, 0, 60, 41
2, 68292, Note_on_c, 0, 76, 51
2, 68300, Note_off_c, 0, 67, 49
2, 68378, Note_off_c, 0, 60, 50
2, 68385, Note_on_c, 0, 64, 42
2, 68432, Note_off_c, 0, 76, 52
2, 68464, Note_off_c, 0, 64, 50
2, 68467, Note_on_c, 0, 67, 41
2, 68567, Note_off_c, 0, 67, 50
2, 68576, Note_on_c, 0, 60, 43
2, 68647, Note_on_c, 0, 64, 43
2, 68657, Note_off_c, 0, 60, 50
2, 68732, Note_off_c, 0, 64, 50
2, 68740, Note_on_c, 0, 67, 44
2, 68834, Note_on_c, 0, 84, 63
2, 68839, Note_off_c, 0, 67, 51
2, 68841, Note_on_c, 0, 60, 44
2, 68843, Note_on_c, 0, 72, 51
2, 68928, Note_off_c, 0, 60, 51
2, 68935, Note_on_c, 0, 64, 43
2, 68940, Note_off_c, 0, 72, 52
2, 68971, Note_off_c, 0, 84, 55
2, 69009, Note_on_c, 0, 67, 41
2, 69014, Note_off_c, 0, 64, 50
2, 69107, Note_on_c, 0, 84, 57
2, 69112, Note_off_c, 0, 67, 50
2, 69115, Note_on_c, 0, 72, 45
2, 69119, Note_on_c, 0, 60, 39
2, 69200, Note_off_c, 0, 60, 49
2, 69208, Note_on_c, 0, 64, 37
2, 69215, Note_off_c, 0, 72, 51
2, 69244, Note_off_c, 0, 84, 54
2, 69283, Note_on_c, 0, 67, 34
2, 69290, Note_off_c, 0, 64, 49
2, 69380, Note_off_c, 0, 67, 48
2, 69388, Note_on_c, 0, 81, 51
2, 69393, Note_on_c, 0, 69, 39
2, 69395, Note_on_c, 0, 53, 33
2, 69397, Note_on_c, 0, 57, 32
2, 69473, Note_off_c, 0, 57, 48
2, 69475, Note_off_c, 0, 53, 48
2, 69477, Note_on_c, 0, 60, 33
2, 69555, Note_on_c, 0, 62, 32
2, 69562, Note_off_c, 0, 60, 48
2, 69631, Note_off_c, 0, 69, 49
2, 69662, Note_off_c, 0, 62, 48
2, 69664, Note_off_c, 0, 81, 52
2, 69671, Note_on_c, 0, 57, 38
2, 69674, Note_on_c, 0, 53, 39
2, 69743, Note_on_c, 0, 60, 45
2, 69748, Note_off_c, 0, 53, 49
2, 69759, Note_off_c, 0, 57, 49
2, 69823, Note_off_c, 0, 60, 51
2, 69839, Note_on_c, 0, 62, 51
2, 69938, Note_on_c, 0, 54, 57
2, 69940, Note_on_c, 0, 42, 81
2, 69943, Note_off_c, 0, 62, 52
2, 69945, Note_on_c, 0, 57, 56
2, 70017, Note_off_c, 0, 54, 54
2, 70022, Note_on_c, 0, 60, 57
2, 70031, Note_off_c, 0, 57, 54
2, 70074, Note_off_c, 0, 42, 60
2, 70103, Note_on_c, 0, 62, 55
2, 70111, Note_off_c, 0, 60, 54
2, 70201, Note_off_c, 0, 62, 53
2, 70211, Note_on_c, 0, 42, 95
2, 70216, Note_on_c, 0, 54, 55
2, 70219, Note_on_c, 0, 57, 55
2, 70298, Note_off_c, 0, 54, 53
2, 70300, Note_on_c, 0, 60, 53
2, 70306, Note_off_c, 0, 57, 53
2, 70348, Note_off_c, 0, 42, 63
2, 70385, Note_off_c, 0, 60, 53
2, 70391, Note_on_c, 0, 62, 53
2, 70485, Note_on_c, 0, 42, 81
2, 70490, Note_on_c, 0, 55, 58
2, 70492, Note_off_c, 0, 62, 53
2, 70554, Note_off_c, 0, 42, 60
2, 70557, Note_on_c, 0, 43, 81
2, 70571, Note_on_c, 0, 60, 57
2, 70576, Note_off_c, 0, 55, 54
2, 70621, Note_off_c, 0, 43, 60
2, 70625, Note_on_c, 0, 45, 80
2, 70656, Note_off_c, 0, 60, 54
2, 70660, Note_on_c, 0, 64, 85
2, 70694, Note_off_c, 0, 45, 60
2, 70696, Note_on_c, 0, 43, 79
2, 70760, Note_off_c, 0, 43, 60
2, 70763, Note_off_c, 0, 64, 61
2, 70765, Note_on_c, 0, 45, 78
2, 70767, Note_on_c, 0, 55, 54
2, 70828, Note_off_c, 0, 45, 59
2, 70831, Note_on_c, 0, 43, 78
2, 70838, Note_on_c, 0, 60, 53
2, 70852, Note_off_c, 0, 55, 53
2, 70895, Note_off_c, 0, 43, 59
2, 70898, Note_on_c, 0, 45, 77
2, 70929, Note_off_c, 0, 60, 53
2, 70934, Note_on_c, 0, 64, 83
2, 70967, Note_off_c, 0, 45, 59
2, 70969, Note_on_c, 0, 43, 76
2, 71035, Note_on_c, 0, 55, 51
2, 71037, Note_off_c, 0, 43, 59
2, 71039, Note_off_c, 0, 64, 60
2, 71040, Note_on_c, 0, 45, 75
2, 71102, Note_off_c, 0, 45, 59
2, 71104, Note_on_c, 0, 43, 75
2, 71109, Note_off_c, 0, 55, 52
2, 71116, Note_on_c, 0, 59, 50
2, 71171, Note_off_c, 0, 43, 59
2, 71174, Note_on_c, 0, 45, 74
2, 71198, Note_off_c, 0, 59, 52
2, 71200, Note_on_c, 0, 62, 79
2, 71241, Note_off_c, 0, 45, 59
2, 71243, Note_on_c, 0, 43, 73
2, 71304, Note_off_c, 0, 62, 60
2, 71311, Note_off_c, 0, 43, 58
2, 71313, Note_on_c, 0, 45, 72
2, 71315, Note_on_c, 0, 55, 48
2, 71375, Note_off_c, 0, 45, 58
2, 71380, Note_on_c, 0, 43, 72
2, 71390, Note_on_c, 0, 59, 47
2, 71399, Note_off_c, 0, 55, 52
2, 71445, Note_off_c, 0, 43, 58
2, 71460, Note_on_c, 0, 42, 74
2, 71471, Note_off_c, 0, 59, 51
2, 71496, Note_on_c, 0, 62, 77
2, 71531, Note_off_c, 0, 42, 59
2, 71546, Note_on_c, 0, 43, 77
2, 71592, Note_off_c, 0, 62, 59
2, 71615, Note_off_c, 0, 43, 59
2, 71629, Note_on_c, 0, 48, 39
2, 71631, Note_on_c, 0, 36, 69
2, 71692, Note_on_c, 0, 52, 40
2, 71693, Note_off_c, 0, 48, 49
2, 71753, Note_off_c, 0, 52, 50
2, 71771, Note_on_c, 0, 55, 39
2, 71828, Note_on_c, 0, 60, 38
2, 71833, Note_off_c, 0, 55, 49
2, 71890, Note_off_c, 0, 60, 49
2, 71908, Note_on_c, 0, 48, 37
2, 71975, Note_on_c, 0, 52, 37
2, 71982, Note_off_c, 0, 48, 49
2, 72032, Note_on_c, 0, 55, 36
2, 72047, Note_off_c, 0, 52, 49
2, 72099, Note_off_c, 0, 55, 49
2, 72107, Note_on_c, 0, 60, 35
2, 72169, Note_off_c, 0, 60, 48
2, 72176, Note_off_c, 0, 36, 57
2, 72178, Note_on_c, 0, 67, 62
2, 72180, Note_on_c, 0, 48, 34
2, 72249, Note_on_c, 0, 52, 34
2, 72250, Note_on_c, 0, 79, 61
2, 72252, Note_off_c, 0, 48, 48
2, 72265, Note_off_c, 0, 67, 55
2, 72296, Note_off_c, 0, 79, 55
2, 72313, Note_on_c, 0, 55, 34
2, 72318, Note_off_c, 0, 52, 48
2, 72383, Note_on_c, 0, 60, 33
2, 72385, Note_off_c, 0, 55, 48
2, 72450, Note_off_c, 0, 60, 48
2, 72452, Note_on_c, 0, 67, 57
2, 72454, Note_on_c, 0, 48, 32
2, 72512, Note_off_c, 0, 48, 48
2, 72523, Note_on_c, 0, 52, 32
2, 72525, Note_on_c, 0, 79, 55
2, 72540, Note_off_c, 0, 67, 54
2, 72570, Note_off_c, 0, 79, 53
2, 72584, Note_on_c, 0, 55, 33
2, 72592, Note_off_c, 0, 52, 48
2, 72650, Note_off_c, 0, 55, 48
2, 72659, Note_on_c, 0, 60, 34
2, 72722, Note_on_c, 0, 48, 33
2, 72725, Note_on_c, 0, 64, 50
2, 72728, Note_off_c, 0, 60, 48
2, 72788, Note_off_c, 0, 48, 48
2, 72798, Note_on_c, 0, 52, 33
2, 72799, Note_on_c, 0, 76, 51
2, 72816, Note_off_c, 0, 64, 52
2, 72843, Note_off_c, 0, 76, 52
2, 72854, Note_off_c, 0, 52, 48
2, 72863, Note_on_c, 0, 55, 32
2, 72926, Note_off_c, 0, 55, 48
2, 72932, Note_on_c, 0, 60, 33
2, 72995, Note_on_c, 0, 48, 34
2, 73002, Note_off_c, 0, 60, 48
2, 73062, Note_off_c, 0, 48, 48
2, 73070, Note_on_c, 0, 52, 33
2, 73136, Note_on_c, 0, 55, 33
2, 73139, Note_off_c, 0, 52, 48
2, 73210, Note_off_c, 0, 55, 48
2, 73212, Note_on_c, 0, 60, 32
2, 73274, Note_off_c, 0, 60, 48
2, 73275, Note_on_c, 0, 72, 63
2, 73277, Note_on_c, 0, 52, 33
2, 73343, Note_on_c, 0, 84, 63
2, 73352, Note_off_c, 0, 52, 48
2, 73355, Note_on_c, 0, 55, 34
2, 73357, Note_off_c, 0, 72, 55
2, 73396, Note_off_c, 0, 84, 55
2, 73443, Note_off_c, 0, 55, 48
2, 73446, Note_on_c, 0, 60, 37
2, 73547, Note_on_c, 0, 72, 58
2, 73552, Note_off_c, 0, 60, 49
2, 73554, Note_on_c, 0, 52, 38
2, 73616, Note_on_c, 0, 84, 57
2, 73632, Note_off_c, 0, 72, 54
2, 73638, Note_off_c, 0, 52, 49
2, 73640, Note_on_c, 0, 55, 41
2, 73667, Note_off_c, 0, 84, 54
2, 73720, Note_on_c, 0, 60, 42
2, 73727, Note_off_c, 0, 55, 50
2, 73816, Note_off_c, 0, 60, 50
2, 73822, Note_on_c, 0, 53, 45
2, 73824, Note_on_c, 0, 69, 51
2, 73890, Note_on_c, 0, 81, 51
2, 73892, Note_off_c, 0, 53, 51
2, 73898, Note_on_c, 0, 57, 45
2, 73907, Note_off_c, 0, 69, 52
2, 73938, Note_off_c, 0, 81, 52
2, 73955, Note_on_c, 0, 60, 47
2, 73957, Note_off_c, 0, 57, 51
2, 74019, Note_off_c, 0, 60, 51
2, 74022, Note_on_c, 0, 62, 49
2, 74097, Note_off_c, 0, 62, 52
2, 74103, Note_on_c, 0, 53, 51
2, 74158, Note_on_c, 0, 57, 52
2, 74166, Note_off_c, 0, 53, 52
2, 74230, Note_off_c, 0, 57, 53
2, 74235, Note_on_c, 0, 60, 53
2, 74298, Note_off_c, 0, 60, 53
2, 74307, Note_on_c, 0, 62, 55
2, 74368, Note_off_c, 0, 62, 53
2, 74370, Note_on_c, 0, 54, 56
2, 74372, Note_on_c, 0, 42, 81
2, 74433, Note_off_c, 0, 54, 54
2, 74442, Note_on_c, 0, 57, 57
2, 74509, Note_off_c, 0, 57, 54
2, 74511, Note_off_c, 0, 42, 60
2, 74513, Note_on_c, 0, 60, 57
2, 74576, Note_on_c, 0, 62, 58
2, 74581, Note_off_c, 0, 60, 54
2, 74640, Note_off_c, 0, 62, 54
2, 74643, Note_on_c, 0, 54, 60
2, 74645, Note_on_c, 0, 42, 98
2, 74704, Note_off_c, 0, 54, 55
2, 74714, Note_on_c, 0, 57, 62
2, 74783, Note_off_c, 0, 57, 55
2, 74785, Note_off_c, 0, 42, 64
2, 74788, Note_on_c, 0, 60, 65
2, 74849, Note_on_c, 0, 62, 66
2, 74862, Note_off_c, 0, 60, 56
2, 74917, Note_on_c, 0, 55, 68
2, 74919, Note_on_c, 0, 42, 93
2, 74924, Note_off_c, 0, 62, 56
2, 74986, Note_off_c, 0, 42, 63
2, 74988, Note_on_c, 0, 43, 93
2, 74994, Note_off_c, 0, 55, 57
2, 75003, Note_on_c, 0, 60, 69
2, 75056, Note_off_c, 0, 43, 63
2, 75058, Note_on_c, 0, 45, 92
2, 75094, Note_off_c, 0, 60, 57
2, 75096, Note_on_c, 0, 64, 88
2, 75123, Note_off_c, 0, 45, 62
2, 75125, Note_on_c, 0, 43, 90
2, 75193, Note_off_c, 0, 43, 62
2, 75196, Note_on_c, 0, 55, 66
2, 75197, Note_on_c, 0, 45, 89
2, 75202, Note_off_c, 0, 64, 62
2, 75260, Note_off_c, 0, 45, 62
2, 75262, Note_on_c, 0, 43, 87
2, 75278, Note_off_c, 0, 55, 56
2, 75279, Note_on_c, 0, 60, 66
2, 75330, Note_off_c, 0, 43, 61
2, 75332, Note_on_c, 0, 45, 85
2, 75359, Note_off_c, 0, 60, 56
2, 75366, Note_on_c, 0, 64, 85
2, 75397, Note_off_c, 0, 45, 61
2, 75399, Note_on_c, 0, 43, 84
2, 75466, Note_off_c, 0, 43, 61
2, 75469, Note_on_c, 0, 55, 64
2, 75472, Note_off_c, 0, 64, 61
2, 75473, Note_on_c, 0, 45, 82
2, 75534, Note_off_c, 0, 45, 60
2, 75536, Note_on_c, 0, 43, 81
2, 75551, Note_off_c, 0, 55, 56
2, 75560, Note_on_c, 0, 59, 63
2, 75601, Note_off_c, 0, 43, 60
2, 75603, Note_on_c, 0, 45, 79
2, 75635, Note_off_c, 0, 59, 55
2, 75637, Note_on_c, 0, 62, 81
2, 75672, Note_off_c, 0, 45, 60
2, 75674, Note_on_c, 0, 43, 77
2, 75738, Note_off_c, 0, 62, 60
2, 75739, Note_off_c, 0, 43, 59
2, 75746, Note_on_c, 0, 45, 76
2, 75747, Note_on_c, 0, 55, 60
2, 75810, Note_off_c, 0, 45, 59
2, 75812, Note_on_c, 0, 43, 73
2, 75821, Note_off_c, 0, 55, 55
2, 75829, Note_on_c, 0, 59, 60
2, 75875, Note_off_c, 0, 43, 58
2, 75894, Note_on_c, 0, 42, 76
2, 75917, Note_off_c, 0, 59, 55
2, 75935, Note_on_c, 0, 62, 78
2, 75962, Note_off_c, 0, 42, 59
2, 75978, Note_on_c, 0, 43, 78
2, 76028, Note_off_c, 0, 62, 59
2, 76042, Note_off_c, 0, 43, 59
2, 76078, Note_on_c, 0, 36, 69
2, 76080, Note_on_c, 0, 48, 56
2, 76143, Note_on_c, 0, 52, 56
2, 76145, Note_off_c, 0, 48, 54
2, 76206, Note_on_c, 0, 55, 57
2, 76218, Note_off_c, 0, 52, 54
2, 76267, Note_off_c, 0, 55, 54
2, 76275, Note_on_c, 0, 60, 56
2, 76344, Note_off_c, 0, 60, 54
2, 76354, Note_on_c, 0, 48, 58
2, 76419, Note_off_c, 0, 48, 54
2, 76421, Note_on_c, 0, 52, 58
2, 76481, Note_on_c, 0, 55, 60
2, 76488, Note_off_c, 0, 52, 54
2, 76543, Note_off_c, 0, 55, 55
2, 76556, Note_on_c, 0, 60, 60
2, 76623, Note_off_c, 0, 36, 57
2, 76625, Note_on_c, 0, 78, 71
2, 76628, Note_off_c, 0, 60, 55
2, 76630, Note_on_c, 0, 48, 61
2, 76709, Note_on_c, 0, 51, 62
2, 76712, Note_off_c, 0, 48, 55
2, 76760, Note_off_c, 0, 78, 58
2, 76796, Note_off_c, 0, 51, 55
2, 76801, Note_on_c, 0, 55, 63
2, 76892, Note_off_c, 0, 55, 55
2, 76894, Note_on_c, 0, 78, 94
2, 76896, Note_on_c, 0, 48, 64
2, 76985, Note_off_c, 0, 48, 56
2, 76988, Note_on_c, 0, 51, 66
2, 77031, Note_off_c, 0, 78, 63
2, 77063, Note_on_c, 0, 55, 67
2, 77073, Note_off_c, 0, 51, 56
2, 77163, Note_off_c, 0, 55, 57
2, 77167, Note_on_c, 0, 78, 93
2, 77175, Note_on_c, 0, 43, 69
2, 77239, Note_off_c, 0, 78, 63
2, 77242, Note_off_c, 0, 43, 57
2, 77244, Note_on_c, 0, 48, 68
2, 77246, Note_on_c, 0, 79, 93
2, 77309, Note_off_c, 0, 48, 57
2, 77311, Note_off_c, 0, 79, 63
2, 77314, Note_on_c, 0, 81, 92
2, 77314, Note_on_c, 0, 50, 68
2, 77369, Note_on_c, 0, 55, 68
2, 77375, Note_off_c, 0, 81, 62
2, 77377, Note_on_c, 0, 79, 90
2, 77379, Note_off_c, 0, 50, 57
2, 77438, Note_off_c, 0, 55, 57
2, 77441, Note_on_c, 0, 43, 67
2, 77444, Note_off_c, 0, 79, 62
2, 77446, Note_on_c, 0, 81, 88
2, 77504, Note_off_c, 0, 43, 57
2, 77513, Note_off_c, 0, 81, 62
2, 77516, Note_on_c, 0, 48, 66
2, 77518, Note_on_c, 0, 79, 86
2, 77579, Note_off_c, 0, 48, 56
2, 77580, Note_on_c, 0, 50, 64
2, 77583, Note_off_c, 0, 79, 61
2, 77585, Note_on_c, 0, 81, 84
2, 77644, Note_off_c, 0, 50, 56
2, 77646, Note_off_c, 0, 81, 61
2, 77650, Note_on_c, 0, 79, 82
2, 77652, Note_on_c, 0, 55, 64
2, 77717, Note_off_c, 0, 55, 56
2, 77719, Note_off_c, 0, 79, 60
2, 77721, Note_on_c, 0, 81, 81
2, 77724, Note_on_c, 0, 43, 62
2, 77784, Note_on_c, 0, 47, 61
2, 77789, Note_off_c, 0, 81, 60
2, 77791, Note_on_c, 0, 79, 79
2, 77794, Note_off_c, 0, 43, 55
2, 77852, Note_off_c, 0, 47, 55
2, 77853, Note_off_c, 0, 79, 60
2, 77856, Note_on_c, 0, 50, 61
2, 77859, Note_on_c, 0, 81, 77
2, 77924, Note_off_c, 0, 81, 59
2, 77926, Note_on_c, 0, 79, 75
2, 77928, Note_off_c, 0, 50, 55
2, 77930, Note_on_c, 0, 55, 60
2, 77992, Note_on_c, 0, 43, 58
2, 77993, Note_off_c, 0, 79, 59
2, 77995, Note_on_c, 0, 81, 73
2, 77997, Note_off_c, 0, 55, 55
2, 78054, Note_off_c, 0, 43, 54
2, 78060, Note_off_c, 0, 81, 58
2, 78065, Note_on_c, 0, 47, 58
2, 78067, Note_on_c, 0, 79, 71
2, 78128, Note_off_c, 0, 79, 58
2, 78134, Note_off_c, 0, 47, 54
2, 78145, Note_on_c, 0, 78, 69
2, 78149, Note_on_c, 0, 50, 57
2, 78211, Note_off_c, 0, 78, 57
2, 78222, Note_off_c, 0, 50, 54
2, 78224, Note_on_c, 0, 55, 56
2, 78229, Note_on_c, 0, 79, 69
2, 78292, Note_off_c, 0, 55, 54
2, 78298, Note_off_c, 0, 79, 57
2, 78330, Note_on_c, 0, 84, 92
2, 78332, Note_on_c, 0, 48, 80
2, 78341, Note_on_c, 0, 72, 83
2, 78358, Control_c, 0, 64, 127
2, 78583, Note_off_c, 0, 72, 60
2, 78600, Note_off_c, 0, 48, 60
2, 78610, Note_off_c, 0, 84, 62
2, 78690, Control_c, 0, 64, 0
2, 78876, Control_c, 0, 64, 127
2, 78884, Note_on_c, 0, 79, 88
2, 78888, Note_on_c, 0, 43, 75
2, 78890, Note_on_c, 0, 67, 81
2, 78895, Note_on_c, 0, 55, 76
2, 79135, Note_off_c, 0, 67, 60
2, 79150, Note_off_c, 0, 55, 59
2, 79179, Note_off_c, 0, 79, 62
2, 79185, Note_off_c, 0, 43, 59
2, 79265, Control_c, 0, 64, 0
2, 79520, Note_on_c, 0, 72, 93
2, 79522, Note_on_c, 0, 36, 81
2, 79524, Note_on_c, 0, 48, 80
2, 79526, Control_c, 0, 64, 127
2, 79537, Note_on_c, 0, 60, 84
2, 80103, Note_off_c, 0, 48, 60
2, 80117, Note_off_c, 0, 60, 61
2, 80160, Note_off_c, 0, 36, 60
2, 80162, Note_off_c, 0, 72, 63
2, 80398, Control_c, 0, 64, 0
2, 80586, Note_on_c, 0, 69, 50
2, 80597, Note_on_c, 0, 57, 35
2, 80599, Note_on_c, 0, 65, 38
2, 80601, Note_on_c, 0, 41, 27
2, 80603, Note_on_c, 0, 53, 32
2, 80603, Note_on_c, 0, 60, 37
2, 80609, Note_on_c, 0, 48, 28
2, 80713, Note_off_c, 0, 60, 49
2, 80720, Note_off_c, 0, 48, 47
2, 80721, Note_off_c, 0, 57, 48
2, 80731, Note_off_c, 0, 65, 49
2, 80734, Note_off_c, 0, 53, 48
2, 80738, Note_off_c, 0, 41, 46
2, 80746, Note_off_c, 0, 69, 52
2, 80937, Control_c, 0, 64, 127
2, 80969, Note_on_c, 0, 72, 61
2, 80983, Note_on_c, 0, 69, 50
2, 80990, Note_on_c, 0, 65, 49
2, 80995, Note_on_c, 0, 60, 50
2, 80997, Note_on_c, 0, 41, 38
2, 80999, Note_on_c, 0, 53, 43
2, 81001, Note_on_c, 0, 48, 41
2, 81128, Note_off_c, 0, 41, 49
2, 81130, Note_off_c, 0, 53, 50
2, 81131, Note_off_c, 0, 65, 52
2, 81151, Note_off_c, 0, 48, 50
2, 81161, Note_off_c, 0, 69, 52
2, 81165, Note_off_c, 0, 60, 52
2, 81167, Note_off_c, 0, 72, 55
2, 81359, Control_c, 0, 64, 0
2, 81804, Note_on_c, 0, 72, 41
2, 81895, Note_on_c, 0, 71, 41
2, 81961, Note_off_c, 0, 72, 50
2, 81979, Note_on_c, 0, 74, 47
2, 82047, Note_off_c, 0, 71, 50
2, 82061, Note_off_c, 0, 74, 51
2, 82083, Note_on_c, 0, 72, 53
2, 82186, Note_off_c, 0, 72, 53
2, 82891, Note_on_c, 0, 69, 50
2, 82903, Note_on_c, 0, 53, 32
2, 82906, Note_on_c, 0, 65, 37
2, 82908, Note_on_c, 0, 41, 27
2, 82909, Note_on_c, 0, 48, 28
2, 82917, Note_on_c, 0, 60, 38
2, 83011, Note_off_c, 0, 60, 49
2, 83018, Note_off_c, 0, 48, 47
2, 83025, Note_off_c, 0, 65, 49
2, 83035, Note_off_c, 0, 41, 46
2, 83044, Note_off_c, 0, 53, 48
2, 83056, Note_off_c, 0, 69, 52
2, 83283, Control_c, 0, 64, 127
2, 83292, Note_on_c, 0, 70, 61
2, 83316, Note_on_c, 0, 40, 38
2, 83318, Note_on_c, 0, 67, 49
2, 83320, Note_on_c, 0, 52, 44
2, 83322, Note_on_c, 0, 60, 50
2, 83337, Note_on_c, 0, 48, 40
2, 83451, Note_off_c, 0, 67, 52
2, 83460, Note_off_c, 0, 60, 52
2, 83462, Note_off_c, 0, 48, 50
2, 83464, Note_off_c, 0, 40, 49
2, 83482, Note_off_c, 0, 52, 51
2, 83498, Note_off_c, 0, 70, 55
2, 83872, Control_c, 0, 64, 0
2, 84139, Note_on_c, 0, 70, 41
2, 84223, Note_on_c, 0, 69, 41
2, 84275, Note_off_c, 0, 70, 50
2, 84309, Note_on_c, 0, 72, 47
2, 84362, Note_off_c, 0, 69, 50
2, 84411, Note_off_c, 0, 72, 51
2, 84415, Note_on_c, 0, 70, 53
2, 84518, Note_off_c, 0, 70, 53
2, 85163, Note_on_c, 0, 70, 45
2, 85423, Note_on_c, 0, 69, 45
2, 85439, Note_on_c, 0, 53, 27
2, 85441, Note_on_c, 0, 60, 33
2, 85444, Note_on_c, 0, 57, 30
2, 85464, Note_off_c, 0, 70, 51
2, 85581, Control_c, 0, 64, 127
2, 85735, Note_on_c, 0, 72, 50
2, 85757, Note_off_c, 0, 69, 51
2, 85802, Note_on_c, 0, 77, 52
2, 85821, Note_off_c, 0, 60, 48
2, 85822, Note_off_c, 0, 72, 52
2, 85859, Note_off_c, 0, 57, 47
2, 86056, Note_off_c, 0, 53, 46
2, 86077, Note_on_c, 0, 60, 35
2, 86081, Note_on_c, 0, 55, 30
2, 86083, Note_on_c, 0, 58, 31
2, 86093, Control_c, 0, 64, 0
2, 86349, Note_on_c, 0, 76, 66
2, 86376, Note_off_c, 0, 77, 53
2, 86385, Control_c, 0, 64, 127
2, 86546, Note_off_c, 0, 58, 47
2, 86553, Note_off_c, 0, 60, 48
2, 86625, Note_on_c, 0, 77, 73
2, 86629, Note_on_c, 0, 65, 40
2, 86632, Note_on_c, 0, 57, 35
2, 86640, Control_c, 0, 64, 0
2, 86642, Note_on_c, 0, 60, 37
2, 86649, Note_off_c, 0, 76, 56
2, 86657, Note_off_c, 0, 55, 47
2, 86897, Note_on_c, 0, 81, 81
2, 86921, Note_off_c, 0, 77, 58
2, 86933, Control_c, 0, 64, 127
2, 87009, Note_off_c, 0, 65, 50
2, 87115, Note_off_c, 0, 60, 49
2, 87163, Note_on_c, 0, 67, 45
2, 87170, Note_on_c, 0, 58, 39
2, 87176, Note_on_c, 0, 62, 41
2, 87181, Note_on_c, 0, 65, 43
2, 87189, Control_c, 0, 64, 0
2, 87242, Note_off_c, 0, 57, 48
2, 87449, Note_on_c, 0, 79, 81
2, 87477, Note_off_c, 0, 81, 60
2, 87485, Control_c, 0, 64, 127
2, 87590, Note_off_c, 0, 65, 50
2, 87602, Note_off_c, 0, 67, 51
2, 87635, Note_off_c, 0, 62, 50
2, 87715, Note_on_c, 0, 69, 45
2, 87720, Note_on_c, 0, 65, 43
2, 87727, Note_on_c, 0, 60, 40
2, 87737, Control_c, 0, 64, 0
2, 87766, Note_off_c, 0, 58, 49
2, 88015, Note_on_c, 0, 81, 73
2, 88032, Control_c, 0, 64, 127
2, 88034, Note_off_c, 0, 79, 60
2, 88156, Note_off_c, 0, 69, 51
2, 88184, Note_off_c, 0, 65, 50
2, 88310, Note_on_c, 0, 63, 33
2, 88312, Note_on_c, 0, 72, 39
2, 88320, Control_c, 0, 64, 0
2, 88322, Note_on_c, 0, 65, 35
2, 88324, Note_on_c, 0, 69, 37
2, 88351, Note_off_c, 0, 60, 50
2, 88622, Control_c, 0, 64, 127
2, 88636, Note_on_c, 0, 82, 65
2, 88671, Note_off_c, 0, 81, 58
2, 88805, Note_on_c, 0, 84, 57
2, 88828, Note_off_c, 0, 82, 56
2, 88830, Note_off_c, 0, 72, 49
2, 88857, Note_off_c, 0, 65, 48
2, 88971, Note_off_c, 0, 84, 54
2, 88977, Note_off_c, 0, 69, 49
2, 89019, Note_on_c, 0, 70, 33
2, 89021, Note_on_c, 0, 84, 49
2, 89026, Note_on_c, 0, 62, 26
2, 89034, Note_on_c, 0, 65, 29
2, 89047, Control_c, 0, 64, 0
2, 89095, Note_off_c, 0, 63, 48
2, 89488, Control_c, 0, 64, 127
2, 89541, Note_on_c, 0, 82, 39
2, 89550, Note_off_c, 0, 65, 47
2, 89609, Note_off_c, 0, 84, 52
2, 89667, Note_off_c, 0, 62, 46
2, 89748, Note_off_c, 0, 70, 48
2, 90045, Note_off_c, 0, 82, 49
2, 90349, Control_c, 0, 64, 0
2, 90985, Control_c, 0, 64, 127
2, 91048, Note_on_c, 0, 62, 35
2, 91051, Note_on_c, 0, 82, 53
2, 91067, Note_on_c, 0, 70, 39
2, 91069, Note_on_c, 0, 65, 37
2, 91169, Note_off_c, 0, 82, 53
2, 91177, Note_on_c, 0, 84, 52
2, 91250, Note_on_c, 0, 82, 54
2, 91255, Note_off_c, 0, 84, 53
2, 91318, Note_on_c, 0, 84, 56
2, 91324, Note_off_c, 0, 82, 53
2, 91403, Note_on_c, 0, 82, 60
2, 91406, Note_off_c, 0, 84, 54
2, 91475, Note_off_c, 0, 82, 55
2, 91483, Note_on_c, 0, 81, 62
2, 91555, Note_off_c, 0, 81, 55
2, 91559, Note_on_c, 0, 82, 66
2, 91639, Note_on_c, 0, 86, 69
2, 91651, Note_off_c, 0, 82, 56
2, 91665, Note_off_c, 0, 70, 49
2, 91680, Note_off_c, 0, 65, 49
2, 91902, Note_on_c, 0, 72, 45
2, 91910, Note_on_c, 0, 64, 40
2, 91915, Note_on_c, 0, 67, 42
2, 91918, Control_c, 0, 64, 0
2, 91919, Note_off_c, 0, 62, 48
2, 92183, Note_on_c, 0, 84, 69
2, 92191, Note_off_c, 0, 86, 57
2, 92210, Control_c, 0, 64, 127
2, 92356, Note_on_c, 0, 82, 67
2, 92358, Note_off_c, 0, 84, 57
2, 92457, Note_off_c, 0, 82, 57
2, 92469, Note_on_c, 0, 81, 73
2, 92526, Note_off_c, 0, 72, 51
2, 92548, Note_on_c, 0, 82, 69
2, 92570, Note_off_c, 0, 67, 50
2, 92578, Note_off_c, 0, 81, 58
2, 92611, Note_off_c, 0, 82, 57
2, 92618, Note_on_c, 0, 84, 68
2, 92711, Note_off_c, 0, 84, 57
2, 92713, Note_on_c, 0, 82, 75
2, 92716, Note_on_c, 0, 72, 45
2, 92717, Note_on_c, 0, 65, 40
2, 92719, Note_on_c, 0, 69, 43
2, 92735, Control_c, 0, 64, 0
2, 92756, Note_off_c, 0, 64, 50
2, 92979, Note_on_c, 0, 81, 59
2, 93003, Note_off_c, 0, 82, 59
2, 93032, Control_c, 0, 64, 127
2, 93137, Note_off_c, 0, 65, 50
2, 93195, Note_off_c, 0, 69, 50
2, 93241, Note_off_c, 0, 72, 51
2, 93282, Note_on_c, 0, 67, 42
2, 93292, Note_on_c, 0, 58, 38
2, 93296, Control_c, 0, 64, 0
2, 93298, Note_on_c, 0, 62, 40
2, 93471, Note_off_c, 0, 81, 54
2, 93488, Note_on_c, 0, 79, 51
2, 93563, Note_on_c, 0, 82, 49
2, 93583, Note_off_c, 0, 79, 52
2, 93602, Control_c, 0, 64, 127
2, 93724, Note_off_c, 0, 62, 50
2, 93805, Note_off_c, 0, 58, 49
2, 93819, Note_on_c, 0, 79, 59
2, 93837, Note_off_c, 0, 82, 52
2, 93839, Note_off_c, 0, 67, 50
2, 93871, Note_off_c, 0, 79, 54
2, 93896, Note_on_c, 0, 60, 37
2, 93898, Note_on_c, 0, 69, 41
2, 93900, Note_on_c, 0, 79, 62
2, 93913, Control_c, 0, 64, 0
2, 93916, Note_on_c, 0, 65, 38
2, 94201, Note_on_c, 0, 77, 57
2, 94207, Control_c, 0, 64, 127
2, 94214, Note_off_c, 0, 79, 55
2, 94262, Note_off_c, 0, 65, 49
2, 94376, Note_off_c, 0, 60, 49
2, 94378, Note_off_c, 0, 69, 50
2, 94508, Note_on_c, 0, 60, 33
2, 94510, Note_on_c, 0, 70, 38
2, 94522, Note_on_c, 0, 67, 37
2, 94527, Control_c, 0, 64, 0
2, 94726, Note_on_c, 0, 76, 49
2, 94736, Note_off_c, 0, 77, 54
2, 94806, Note_on_c, 0, 79, 47
2, 94817, Note_off_c, 0, 76, 52
2, 94852, Control_c, 0, 64, 127
2, 94957, Note_off_c, 0, 60, 48
2, 95022, Note_off_c, 0, 70, 49
2, 95037, Note_off_c, 0, 67, 49
2, 95096, Note_on_c, 0, 76, 44
2, 95109, Note_off_c, 0, 79, 51
2, 95175, Note_off_c, 0, 76, 51
2, 95185, Note_on_c, 0, 65, 33
2, 95187, Note_on_c, 0, 77, 42
2, 95197, Note_on_c, 0, 69, 35
2, 95218, Control_c, 0, 64, 0
2, 95607, Control_c, 0, 64, 127
2, 95741, Note_off_c, 0, 69, 48
2, 95780, Note_off_c, 0, 65, 48
2, 95937, Note_off_c, 0, 77, 50
2, 96157, Control_c, 0, 64, 0
2, 96250, Note_on_c, 0, 69, 46
2, 96267, Note_on_c, 0, 57, 31
2, 96269, Note_on_c, 0, 65, 34
2, 96271, Note_on_c, 0, 41, 23
2, 96271, Note_on_c, 0, 60, 33
2, 96271, Note_on_c, 0, 53, 27
2, 96273, Note_on_c, 0, 48, 26
2, 96382, Note_off_c, 0, 48, 46
2, 96384, Note_off_c, 0, 60, 48
2, 96401, Note_off_c, 0, 53, 46
2, 96403, Note_off_c, 0, 57, 47
2, 96405, Note_off_c, 0, 65, 48
2, 96410, Note_off_c, 0, 41, 45
2, 96430, Note_off_c, 0, 69, 51
2, 96608, Note_on_c, 0, 72, 58
2, 96612, Control_c, 0, 64, 127
2, 96623, Note_on_c, 0, 69, 46
2, 96628, Note_on_c, 0, 60, 42
2, 96630, Note_on_c, 0, 65, 44
2, 96632, Note_on_c, 0, 41, 35
2, 96639, Note_on_c, 0, 53, 39
2, 96654, Note_on_c, 0, 48, 38
2, 96776, Note_off_c, 0, 48, 49
2, 96779, Note_off_c, 0, 60, 50
2, 96795, Note_off_c, 0, 41, 48
2, 96808, Note_off_c, 0, 65, 51
2, 96811, Note_off_c, 0, 53, 49
2, 96813, Note_off_c, 0, 69, 51
2, 96827, Note_off_c, 0, 72, 54
2, 97066, Control_c, 0, 64, 0
2, 97444, Note_on_c, 0, 72, 36
2, 97549, Note_on_c, 0, 71, 40
2, 97625, Note_off_c, 0, 72, 49
2, 97635, Note_on_c, 0, 74, 46
2, 97709, Note_off_c, 0, 71, 50
2, 97722, Note_on_c, 0, 72, 52
2, 97796, Note_off_c, 0, 74, 51
2, 97822, Note_off_c, 0, 72, 53
2, 98526, Note_on_c, 0, 69, 63
2, 98542, Note_on_c, 0, 57, 51
2, 98544, Note_on_c, 0, 51, 45
2, 98548, Note_on_c, 0, 41, 41
2, 98551, Note_on_c, 0, 63, 50
2, 98555, Note_on_c, 0, 48, 42
2, 98561, Note_on_c, 0, 60, 50
2, 98660, Note_off_c, 0, 60, 52
2, 98663, Note_off_c, 0, 48, 50
2, 98669, Note_off_c, 0, 57, 52
2, 98675, Note_off_c, 0, 51, 51
2, 98684, Note_off_c, 0, 63, 52
2, 98688, Note_off_c, 0, 41, 50
2, 98699, Note_off_c, 0, 69, 55
2, 98887, Note_on_c, 0, 72, 87
2, 98899, Note_on_c, 0, 51, 69
2, 98902, Control_c, 0, 64, 127
2, 98905, Note_on_c, 0, 41, 65
2, 98907, Note_on_c, 0, 69, 75
2, 98908, Note_on_c, 0, 60, 75
2, 98911, Note_on_c, 0, 48, 66
2, 98916, Note_on_c, 0, 63, 74
2, 99054, Note_off_c, 0, 41, 56
2, 99055, Note_off_c, 0, 72, 61
2, 99062, Note_off_c, 0, 51, 57
2, 99069, Note_off_c, 0, 63, 59
2, 99083, Note_off_c, 0, 48, 56
2, 99096, Note_off_c, 0, 69, 59
2, 99110, Note_off_c, 0, 60, 59
2, 99444, Control_c, 0, 64, 0
2, 99708, Note_on_c, 0, 72, 57
2, 99794, Note_on_c, 0, 71, 57
2, 99854, Note_off_c, 0, 72, 54
2, 99879, Note_on_c, 0, 74, 63
2, 99936, Note_off_c, 0, 71, 54
2, 99967, Note_on_c, 0, 72, 69
2, 100025, Note_off_c, 0, 74, 55
2, 100058, Note_off_c, 0, 72, 57
2, 100730, Control_c, 0, 64, 127
2, 100750, Note_on_c, 0, 72, 78
2, 100756, Note_on_c, 0, 57, 66
2, 100759, Note_on_c, 0, 53, 72
2, 100760, Note_on_c, 0, 63, 72
2, 100845, Note_on_c, 0, 59, 66
2, 100848, Note_on_c, 0, 71, 80
2, 100855, Note_off_c, 0, 57, 56
2, 100884, Note_off_c, 0, 72, 59
2, 100920, Note_on_c, 0, 60, 66
2, 100927, Note_on_c, 0, 69, 82
2, 100937, Note_off_c, 0, 59, 56
2, 100951, Note_off_c, 0, 71, 60
2, 100991, Note_off_c, 0, 63, 58
2, 101008, Note_on_c, 0, 76, 84
2, 101016, Note_off_c, 0, 60, 56
2, 101018, Note_on_c, 0, 64, 78
2, 101020, Note_on_c, 0, 56, 66
2, 101023, Note_off_c, 0, 53, 58
2, 101025, Note_on_c, 0, 52, 72
2, 101036, Note_off_c, 0, 69, 60
2, 101087, Note_off_c, 0, 64, 59
2, 101097, Note_off_c, 0, 52, 58
2, 101104, Note_off_c, 0, 56, 56
2, 101111, Note_off_c, 0, 76, 61
2, 101138, Control_c, 0, 64, 0
2, 101263, Note_on_c, 0, 63, 66
2, 101273, Note_on_c, 0, 72, 72
2, 101275, Note_on_c, 0, 57, 54
2, 101277, Note_on_c, 0, 53, 60
2, 101282, Control_c, 0, 64, 127
2, 101352, Note_on_c, 0, 71, 72
2, 101359, Note_on_c, 0, 59, 54
2, 101361, Note_off_c, 0, 57, 53
2, 101402, Note_off_c, 0, 72, 58
2, 101438, Note_off_c, 0, 59, 53
2, 101446, Note_on_c, 0, 69, 78
2, 101448, Note_on_c, 0, 60, 60
2, 101451, Note_off_c, 0, 71, 58
2, 101510, Note_off_c, 0, 63, 56
2, 101513, Note_off_c, 0, 53, 55
2, 101529, Note_on_c, 0, 56, 66
2, 101531, Note_on_c, 0, 64, 78
2, 101537, Note_off_c, 0, 60, 55
2, 101539, Note_on_c, 0, 76, 84
2, 101541, Note_on_c, 0, 52, 72
2, 101556, Note_off_c, 0, 69, 59
2, 101613, Note_off_c, 0, 64, 59
2, 101618, Note_off_c, 0, 56, 56
2, 101623, Note_off_c, 0, 52, 58
2, 101625, Note_off_c, 0, 76, 61
2, 101693, Control_c, 0, 64, 0
2, 101796, Note_on_c, 0, 53, 60
2, 101801, Note_on_c, 0, 57, 54
2, 101803, Note_on_c, 0, 72, 72
2, 101807, Note_on_c, 0, 63, 66
2, 101817, Control_c, 0, 64, 127
2, 101887, Note_on_c, 0, 71, 72
2, 101891, Note_on_c, 0, 59, 54
2, 101897, Note_off_c, 0, 57, 53
2, 101918, Note_off_c, 0, 72, 58
2, 101979, Note_off_c, 0, 59, 53
2, 101980, Note_on_c, 0, 60, 60
2, 101983, Note_on_c, 0, 69, 78
2, 102002, Note_off_c, 0, 71, 58
2, 102033, Note_off_c, 0, 63, 56
2, 102057, Note_on_c, 0, 64, 78
2, 102060, Note_on_c, 0, 76, 84
2, 102062, Note_on_c, 0, 56, 66
2, 102064, Note_on_c, 0, 52, 72
2, 102066, Note_off_c, 0, 60, 55
2, 102077, Note_off_c, 0, 53, 55
2, 102103, Note_off_c, 0, 69, 59
2, 102163, Note_off_c, 0, 56, 56
2, 102165, Note_off_c, 0, 64, 59
2, 102169, Note_off_c, 0, 52, 58
2, 102180, Note_off_c, 0, 76, 61
2, 102325, Control_c, 0, 64, 0
2, 102888, Note_on_c, 0, 67, 51
2, 102892, Control_c, 0, 64, 127
2, 102898, Note_on_c, 0, 43, 33
2, 102900, Note_on_c, 0, 55, 40
2, 103031, Note_on_c, 0, 47, 33
2, 103054, Note_off_c, 0, 43, 48
2, 103161, Note_off_c, 0, 67, 52
2, 103163, Note_on_c, 0, 64, 51
2, 103171, Note_off_c, 0, 55, 50
2, 103173, Note_on_c, 0, 52, 41
2, 103175, Note_on_c, 0, 48, 33
2, 103185, Note_off_c, 0, 47, 48
2, 103188, Control_c, 0, 64, 0
2, 103264, Note_off_c, 0, 52, 50
2, 103315, Note_on_c, 0, 52, 40
2, 103322, Note_off_c, 0, 48, 48
2, 103341, Control_c, 0, 64, 127
2, 103464, Note_on_c, 0, 43, 35
2, 103576, Note_off_c, 0, 64, 52
2, 103601, Note_on_c, 0, 47, 35
2, 103622, Note_off_c, 0, 43, 48
2, 103662, Note_off_c, 0, 52, 50
2, 103735, Note_on_c, 0, 67, 56
2, 103740, Note_off_c, 0, 47, 48
2, 103742, Note_on_c, 0, 48, 36
2, 103744, Note_on_c, 0, 55, 50
2, 103744, Note_on_c, 0, 64, 36
2, 103746, Note_on_c, 0, 60, 44
2, 103748, Control_c, 0, 64, 0
2, 103888, Note_on_c, 0, 52, 37
2, 103898, Control_c, 0, 64, 127
2, 103910, Note_off_c, 0, 48, 49
2, 104027, Note_on_c, 0, 43, 37
2, 104047, Note_off_c, 0, 52, 49
2, 104131, Note_off_c, 0, 60, 51
2, 104170, Note_off_c, 0, 64, 49
2, 104178, Note_on_c, 0, 47, 38
2, 104205, Note_off_c, 0, 43, 49
2, 104224, Note_off_c, 0, 67, 54
2, 104230, Note_off_c, 0, 55, 52
2, 104311, Note_on_c, 0, 72, 61
2, 104318, Note_on_c, 0, 60, 57
2, 104320, Note_on_c, 0, 64, 50
2, 104322, Note_on_c, 0, 67, 41
2, 104324, Note_on_c, 0, 48, 39
2, 104325, Control_c, 0, 64, 0
2, 104327, Note_off_c, 0, 47, 49
2, 104455, Note_on_c, 0, 52, 40
2, 104472, Note_off_c, 0, 48, 49
2, 104477, Control_c, 0, 64, 127
2, 104611, Note_on_c, 0, 43, 40
2, 104636, Note_off_c, 0, 52, 50
2, 104745, Note_on_c, 0, 47, 41
2, 104769, Note_off_c, 0, 43, 50
2, 104901, Note_on_c, 0, 48, 42
2, 104921, Note_off_c, 0, 47, 50
2, 104942, Note_off_c, 0, 64, 52
2, 104944, Note_off_c, 0, 67, 50
2, 104963, Note_off_c, 0, 72, 55
2, 104968, Note_off_c, 0, 60, 54
2, 105040, Note_on_c, 0, 52, 42
2, 105059, Note_off_c, 0, 48, 50
2, 105168, Note_on_c, 0, 76, 69
2, 105175, Note_on_c, 0, 64, 59
2, 105176, Note_on_c, 0, 43, 43
2, 105178, Control_c, 0, 64, 0
2, 105194, Note_off_c, 0, 52, 50
2, 105311, Note_on_c, 0, 47, 44
2, 105329, Control_c, 0, 64, 127
2, 105335, Note_off_c, 0, 43, 50
2, 105398, Note_off_c, 0, 64, 54
2, 105441, Note_on_c, 0, 79, 72
2, 105451, Note_on_c, 0, 67, 62
2, 105452, Note_on_c, 0, 48, 45
2, 105460, Note_off_c, 0, 76, 57
2, 105470, Note_off_c, 0, 47, 51
2, 105585, Note_on_c, 0, 52, 45
2, 105609, Note_off_c, 0, 48, 51
2, 105674, Note_off_c, 0, 67, 55
2, 105717, Note_on_c, 0, 84, 83
2, 105723, Note_on_c, 0, 72, 72
2, 105728, Note_on_c, 0, 43, 44
2, 105731, Note_off_c, 0, 79, 58
2, 105746, Note_off_c, 0, 52, 51
2, 105751, Control_c, 0, 64, 0
2, 105859, Note_on_c, 0, 47, 43
2, 105864, Control_c, 0, 64, 127
2, 105880, Note_off_c, 0, 43, 51
2, 106015, Note_on_c, 0, 48, 42
2, 106034, Note_off_c, 0, 47, 50
2, 106151, Note_on_c, 0, 52, 41
2, 106166, Note_off_c, 0, 48, 50
2, 106179, Note_off_c, 0, 72, 58
2, 106286, Note_on_c, 0, 88, 75
2, 106288, Note_on_c, 0, 43, 40
2, 106290, Note_on_c, 0, 76, 59
2, 106303, Note_off_c, 0, 84, 60
2, 106309, Note_off_c, 0, 52, 50
2, 106396, Note_off_c, 0, 76, 54
2, 106422, Note_on_c, 0, 86, 65
2, 106427, Note_on_c, 0, 74, 54
2, 106445, Note_off_c, 0, 43, 50
2, 106447, Note_off_c, 0, 88, 59
2, 106472, Note_off_c, 0, 74, 53
2, 106496, Note_on_c, 0, 47, 39
2, 106523, Note_off_c, 0, 86, 56
2, 106652, Note_off_c, 0, 47, 49
2, 106674, Note_on_c, 0, 84, 56
2, 106679, Note_on_c, 0, 72, 46
2, 106681, Note_on_c, 0, 50, 32
2, 106744, Control_c, 0, 64, 0
2, 106819, Note_on_c, 0, 53, 31
2, 106838, Note_off_c, 0, 50, 48
2, 106847, Control_c, 0, 64, 127
2, 106972, Note_on_c, 0, 43, 30
2, 106991, Note_off_c, 0, 53, 47
2, 107111, Note_on_c, 0, 49, 29
2, 107130, Note_off_c, 0, 43, 47
2, 107218, Note_off_c, 0, 72, 51
2, 107244, Note_on_c, 0, 83, 45
2, 107247, Note_on_c, 0, 50, 27
2, 107250, Note_on_c, 0, 71, 35
2, 107265, Control_c, 0, 64, 0
2, 107267, Note_off_c, 0, 84, 54
2, 107270, Note_off_c, 0, 49, 47
2, 107371, Control_c, 0, 64, 127
2, 107387, Note_on_c, 0, 53, 27
2, 107404, Note_off_c, 0, 50, 46
2, 107451, Note_off_c, 0, 71, 48
2, 107519, Note_on_c, 0, 43, 33
2, 107532, Note_off_c, 0, 83, 51
2, 107543, Note_off_c, 0, 53, 46
2, 107658, Note_on_c, 0, 49, 34
2, 107677, Note_off_c, 0, 43, 48
2, 107793, Note_on_c, 0, 71, 54
2, 107800, Note_on_c, 0, 59, 49
2, 107802, Note_on_c, 0, 65, 34
2, 107804, Note_on_c, 0, 62, 42
2, 107804, Note_on_c, 0, 50, 34
2, 107804, Control_c, 0, 64, 0
2, 107819, Note_off_c, 0, 49, 48
2, 107934, Note_on_c, 0, 53, 35
2, 107953, Note_off_c, 0, 50, 48
2, 107955, Control_c, 0, 64, 127
2, 108069, Note_on_c, 0, 43, 36
2, 108088, Note_off_c, 0, 53, 48
2, 108155, Note_off_c, 0, 62, 50
2, 108165, Note_off_c, 0, 71, 53
2, 108194, Note_off_c, 0, 65, 48
2, 108208, Note_on_c, 0, 49, 36
2, 108225, Note_off_c, 0, 43, 49
2, 108332, Note_off_c, 0, 59, 52
2, 108340, Note_on_c, 0, 74, 59
2, 108344, Note_on_c, 0, 62, 52
2, 108346, Note_on_c, 0, 71, 39
2, 108348, Note_on_c, 0, 65, 47
2, 108348, Note_on_c, 0, 50, 37
2, 108354, Control_c, 0, 64, 0
2, 108356, Note_off_c, 0, 49, 49
2, 108499, Note_on_c, 0, 53, 38
2, 108506, Control_c, 0, 64, 127
2, 108517, Note_off_c, 0, 50, 49
2, 108633, Note_on_c, 0, 43, 38
2, 108657, Note_off_c, 0, 53, 49
2, 108707, Note_off_c, 0, 71, 49
2, 108769, Note_off_c, 0, 65, 51
2, 108791, Note_on_c, 0, 49, 39
2, 108808, Note_off_c, 0, 43, 49
2, 108865, Note_off_c, 0, 74, 54
2, 108925, Note_on_c, 0, 77, 71
2, 108933, Note_on_c, 0, 50, 39
2, 108935, Note_on_c, 0, 65, 64
2, 108937, Note_off_c, 0, 49, 49
2, 108937, Note_on_c, 0, 71, 59
2, 108937, Note_on_c, 0, 74, 51
2, 108938, Note_off_c, 0, 62, 53
2, 108941, Control_c, 0, 64, 0
2, 109065, Note_on_c, 0, 53, 40
2, 109084, Note_off_c, 0, 50, 49
2, 109091, Control_c, 0, 64, 127
2, 109216, Note_on_c, 0, 43, 41
2, 109240, Note_off_c, 0, 53, 50
2, 109355, Note_on_c, 0, 49, 41
2, 109375, Note_off_c, 0, 43, 50
2, 109509, Note_on_c, 0, 50, 42
2, 109525, Note_off_c, 0, 49, 50
2, 109564, Note_off_c, 0, 65, 56
2, 109583, Note_off_c, 0, 74, 52
2, 109585, Note_off_c, 0, 71, 54
2, 109611, Note_off_c, 0, 77, 58
2, 109645, Note_on_c, 0, 53, 43
2, 109667, Note_off_c, 0, 50, 50
2, 109775, Note_on_c, 0, 83, 70
2, 109782, Note_on_c, 0, 71, 62
2, 109787, Note_on_c, 0, 43, 43
2, 109791, Control_c, 0, 64, 0
2, 109798, Note_off_c, 0, 53, 50
2, 109921, Note_on_c, 0, 49, 44
2, 109941, Note_off_c, 0, 43, 50
2, 109942, Control_c, 0, 64, 127
2, 110019, Note_off_c, 0, 71, 55
2, 110051, Note_on_c, 0, 86, 73
2, 110060, Note_on_c, 0, 50, 45
2, 110062, Note_on_c, 0, 74, 65
2, 110077, Note_off_c, 0, 49, 51
2, 110079, Note_off_c, 0, 83, 57
2, 110197, Note_on_c, 0, 53, 45
2, 110214, Note_off_c, 0, 50, 51
2, 110291, Note_off_c, 0, 74, 56
2, 110324, Note_on_c, 0, 89, 87
2, 110331, Note_on_c, 0, 77, 79
2, 110334, Control_c, 0, 64, 0
2, 110336, Note_on_c, 0, 43, 45
2, 110351, Note_off_c, 0, 86, 58
2, 110353, Note_off_c, 0, 53, 51
2, 110451, Control_c, 0, 64, 127
2, 110468, Note_on_c, 0, 49, 44
2, 110490, Note_off_c, 0, 43, 51
2, 110605, Note_on_c, 0, 50, 43
2, 110622, Note_off_c, 0, 49, 51
2, 110742, Note_on_c, 0, 53, 42
2, 110761, Note_off_c, 0, 50, 50
2, 110840, Note_off_c, 0, 77, 60
2, 110874, Note_on_c, 0, 88, 72
2, 110883, Note_on_c, 0, 76, 64
2, 110885, Note_on_c, 0, 43, 41
2, 110898, Control_c, 0, 64, 0
2, 110900, Note_off_c, 0, 53, 50
2, 110902, Note_off_c, 0, 89, 61
2, 111001, Control_c, 0, 64, 127
2, 111021, Note_off_c, 0, 76, 56
2, 111035, Note_off_c, 0, 43, 50
2, 111075, Note_off_c, 0, 88, 58
2, 111095, Note_on_c, 0, 50, 40
2, 111253, Note_off_c, 0, 50, 50
2, 111263, Note_on_c, 0, 86, 63
2, 111271, Note_on_c, 0, 74, 63
2, 111277, Note_on_c, 0, 52, 33
2, 111289, Control_c, 0, 64, 0
2, 111391, Control_c, 0, 64, 127
2, 111426, Note_on_c, 0, 55, 33
2, 111452, Note_off_c, 0, 52, 48
2, 111567, Note_on_c, 0, 48, 32
2, 111587, Note_off_c, 0, 55, 48
2, 111718, Note_on_c, 0, 51, 31
2, 111745, Note_off_c, 0, 48, 48
2, 111851, Note_on_c, 0, 84, 57
2, 111860, Note_on_c, 0, 52, 30
2, 111861, Note_on_c, 0, 72, 57
2, 111873, Note_off_c, 0, 86, 55
2, 111874, Control_c, 0, 64, 0
2, 111879, Note_off_c, 0, 51, 47
2, 111883, Note_off_c, 0, 74, 55
2, 111980, Control_c, 0, 64, 127
2, 111992, Note_on_c, 0, 55, 29
2, 112014, Note_off_c, 0, 52, 47
2, 112049, Note_off_c, 0, 84, 54
2, 112063, Note_off_c, 0, 72, 54
2, 112129, Note_on_c, 0, 52, 28
2, 112153, Note_off_c, 0, 55, 47
2, 112265, Note_on_c, 0, 50, 27
2, 112292, Note_off_c, 0, 52, 47
2, 112371, Note_off_c, 0, 50, 46
2, 112398, Note_on_c, 0, 76, 92
2, 112403, Note_on_c, 0, 72, 72
2, 112405, Note_on_c, 0, 67, 81
2, 112407, Note_on_c, 0, 64, 79
2, 112409, Note_on_c, 0, 48, 51
2, 112424, Control_c, 0, 64, 0
2, 112527, Control_c, 0, 64, 127
2, 112541, Note_on_c, 0, 60, 57
2, 112561, Note_off_c, 0, 48, 52
2, 112601, Note_off_c, 0, 64, 60
2, 112702, Note_on_c, 0, 64, 57
2, 112717, Note_off_c, 0, 60, 54
2, 112775, Note_off_c, 0, 72, 58
2, 112788, Note_off_c, 0, 76, 62
2, 112832, Note_on_c, 0, 62, 59
2, 112854, Note_off_c, 0, 67, 60
2, 112954, Note_off_c, 0, 64, 54
2, 112976, Note_off_c, 0, 62, 54
2, 112985, Note_on_c, 0, 79, 92
2, 112990, Note_on_c, 0, 60, 61
2, 112992, Note_on_c, 0, 67, 86
2, 112994, Note_on_c, 0, 76, 72
2, 112994, Note_on_c, 0, 72, 80
2, 113122, Note_on_c, 0, 64, 63
2, 113144, Note_off_c, 0, 60, 55
2, 113260, Note_on_c, 0, 60, 65
2, 113283, Note_off_c, 0, 64, 55
2, 113398, Note_on_c, 0, 59, 67
2, 113408, Note_off_c, 0, 72, 60
2, 113417, Note_off_c, 0, 76, 58
2, 113420, Note_off_c, 0, 60, 56
2, 113427, Note_off_c, 0, 79, 62
2, 113441, Note_off_c, 0, 67, 61
2, 113528, Note_on_c, 0, 84, 93
2, 113537, Note_on_c, 0, 72, 83
2, 113539, Note_on_c, 0, 57, 69
2, 113547, Note_off_c, 0, 59, 57
2, 113549, Control_c, 0, 64, 0
2, 113664, Control_c, 0, 64, 127
2, 113672, Note_on_c, 0, 60, 69
2, 113691, Note_off_c, 0, 57, 57
2, 113826, Note_on_c, 0, 57, 67
2, 113847, Note_off_c, 0, 60, 57
2, 113962, Note_on_c, 0, 55, 65
2, 113984, Note_off_c, 0, 57, 57
2, 114121, Note_on_c, 0, 54, 62
2, 114137, Note_off_c, 0, 55, 56
2, 114240, Note_off_c, 0, 72, 60
2, 114255, Note_on_c, 0, 57, 60
2, 114270, Note_off_c, 0, 84, 63
2, 114279, Note_off_c, 0, 54, 55
2, 114387, Note_on_c, 0, 85, 92
2, 114394, Note_on_c, 0, 73, 82
2, 114396, Note_on_c, 0, 54, 57
2, 114411, Control_c, 0, 64, 0
2, 114416, Note_off_c, 0, 57, 55
2, 114521, Control_c, 0, 64, 127
2, 114529, Note_on_c, 0, 52, 57
2, 114553, Note_off_c, 0, 54, 54
2, 114668, Note_on_c, 0, 50, 57
2, 114690, Note_off_c, 0, 52, 54
2, 114802, Note_on_c, 0, 52, 56
2, 114824, Note_off_c, 0, 50, 54
2, 114951, Note_on_c, 0, 86, 85
2, 114956, Note_on_c, 0, 74, 75
2, 114960, Note_on_c, 0, 54, 54
2, 114966, Note_off_c, 0, 73, 60
2, 114972, Control_c, 0, 64, 0
2, 114978, Note_off_c, 0, 52, 54
2, 114984, Note_off_c, 0, 85, 62
2, 115085, Control_c, 0, 64, 127
2, 115095, Note_on_c, 0, 55, 52
2, 115112, Note_off_c, 0, 54, 53
2, 115230, Note_off_c, 0, 55, 53
2, 115232, Note_on_c, 0, 57, 51
2, 115369, Note_off_c, 0, 57, 52
2, 115370, Note_on_c, 0, 50, 49
2, 115500, Note_on_c, 0, 84, 92
2, 115503, Note_off_c, 0, 50, 52
2, 115507, Note_on_c, 0, 72, 82
2, 115509, Note_on_c, 0, 52, 47
2, 115527, Control_c, 0, 64, 0
2, 115530, Note_off_c, 0, 74, 59
2, 115554, Note_off_c, 0, 86, 61
2, 115639, Control_c, 0, 64, 127
2, 115642, Note_off_c, 0, 52, 51
2, 115644, Note_on_c, 0, 54, 45
2, 115678, Note_off_c, 0, 84, 62
2, 115679, Note_off_c, 0, 72, 60
2, 115745, Note_off_c, 0, 54, 51
2, 115772, Note_on_c, 0, 84, 74
2, 115776, Note_on_c, 0, 72, 64
2, 115781, Note_on_c, 0, 55, 58
2, 115882, Note_on_c, 0, 59, 54
2, 115990, Note_off_c, 0, 59, 53
2, 115992, Note_on_c, 0, 62, 53
2, 116056, Note_off_c, 0, 72, 56
2, 116072, Note_on_c, 0, 83, 70
2, 116081, Note_off_c, 0, 62, 53
2, 116084, Note_on_c, 0, 59, 52
2, 116086, Note_on_c, 0, 71, 60
2, 116117, Note_off_c, 0, 84, 59
2, 116191, Note_off_c, 0, 59, 53
2, 116194, Note_on_c, 0, 62, 51
2, 116225, Control_c, 0, 64, 0
2, 116284, Note_off_c, 0, 83, 57
2, 116287, Note_off_c, 0, 62, 52
2, 116289, Note_on_c, 0, 59, 50
2, 116301, Note_off_c, 0, 71, 55
2, 116399, Note_off_c, 0, 59, 52
2, 116401, Note_off_c, 0, 55, 54
2, 116403, Note_on_c, 0, 57, 44
2, 116486, Note_on_c, 0, 60, 39
2, 116590, Note_off_c, 0, 60, 49
2, 116592, Note_on_c, 0, 62, 38
2, 116680, Note_off_c, 0, 62, 49
2, 116681, Note_on_c, 0, 78, 51
2, 116684, Note_on_c, 0, 72, 41
2, 116686, Note_on_c, 0, 60, 37
2, 116775, Note_off_c, 0, 60, 49
2, 116778, Note_on_c, 0, 62, 36
2, 116801, Note_off_c, 0, 78, 52
2, 116891, Note_off_c, 0, 62, 49
2, 116892, Note_on_c, 0, 60, 35
2, 116909, Note_off_c, 0, 72, 50
2, 116979, Note_off_c, 0, 60, 48
2, 116984, Note_off_c, 0, 57, 51
2, 116985, Note_on_c, 0, 72, 48
2, 116988, Note_on_c, 0, 79, 62
2, 116988, Note_on_c, 0, 55, 37
2, 117086, Note_on_c, 0, 59, 33
2, 117173, Note_off_c, 0, 59, 48
2, 117178, Note_on_c, 0, 62, 34
2, 117282, Note_off_c, 0, 62, 48
2, 117283, Note_on_c, 0, 71, 45
2, 117285, Note_on_c, 0, 59, 35
2, 117346, Note_off_c, 0, 72, 52
2, 117374, Note_off_c, 0, 59, 48
2, 117377, Note_on_c, 0, 62, 37
2, 117489, Note_off_c, 0, 62, 49
2, 117490, Note_on_c, 0, 59, 38
2, 117509, Note_off_c, 0, 71, 51
2, 117600, Note_off_c, 0, 79, 55
2, 117604, Note_off_c, 0, 59, 49
2, 117607, Note_off_c, 0, 55, 49
2, 117608, Note_on_c, 0, 54, 43
2, 117689, Note_on_c, 0, 57, 41
2, 117778, Note_off_c, 0, 57, 50
2, 117780, Note_on_c, 0, 62, 42
2, 117881, Note_off_c, 0, 62, 50
2, 117887, Note_on_c, 0, 84, 69
2, 117889, Note_on_c, 0, 57, 43
2, 117978, Note_off_c, 0, 57, 50
2, 117981, Note_on_c, 0, 62, 45
2, 118008, Note_off_c, 0, 84, 57
2, 118073, Note_off_c, 0, 62, 51
2, 118076, Note_on_c, 0, 57, 45
2, 118184, Note_off_c, 0, 57, 51
2, 118185, Note_off_c, 0, 54, 50
2, 118188, Note_on_c, 0, 84, 57
2, 118189, Note_on_c, 0, 55, 53
2, 118271, Note_on_c, 0, 59, 42
2, 118325, Note_on_c, 0, 83, 57
2, 118347, Note_off_c, 0, 84, 54
2, 118378, Note_off_c, 0, 59, 50
2, 118380, Note_on_c, 0, 62, 39
2, 118484, Note_off_c, 0, 62, 49
2, 118489, Note_on_c, 0, 81, 50
2, 118491, Note_on_c, 0, 59, 36
2, 118510, Note_off_c, 0, 83, 54
2, 118577, Note_off_c, 0, 59, 49
2, 118579, Note_on_c, 0, 62, 33
2, 118637, Note_on_c, 0, 79, 45
2, 118663, Note_off_c, 0, 81, 52
2, 118694, Note_off_c, 0, 62, 48
2, 118697, Note_on_c, 0, 59, 33
2, 118749, Note_off_c, 0, 79, 51
2, 118784, Note_off_c, 0, 59, 48
2, 118789, Note_off_c, 0, 55, 53
2, 118791, Note_on_c, 0, 57, 41
2, 118891, Note_on_c, 0, 60, 42
2, 118978, Note_off_c, 0, 60, 50
2, 118979, Note_on_c, 0, 62, 45
2, 119071, Note_off_c, 0, 62, 51
2, 119074, Note_on_c, 0, 78, 57
2, 119076, Note_on_c, 0, 72, 47
2, 119076, Note_on_c, 0, 60, 45
2, 119182, Note_off_c, 0, 60, 51
2, 119184, Note_off_c, 0, 78, 54
2, 119185, Note_on_c, 0, 62, 45
2, 119276, Note_off_c, 0, 62, 51
2, 119278, Note_on_c, 0, 60, 44
2, 119298, Note_off_c, 0, 72, 51
2, 119369, Note_off_c, 0, 60, 51
2, 119372, Note_off_c, 0, 57, 50
2, 119376, Note_on_c, 0, 72, 57
2, 119378, Note_on_c, 0, 79, 47
2, 119380, Note_on_c, 0, 55, 42
2, 119470, Note_on_c, 0, 59, 40
2, 119525, Note_on_c, 0, 71, 53
2, 119546, Note_off_c, 0, 72, 54
2, 119580, Note_off_c, 0, 59, 50
2, 119581, Note_on_c, 0, 62, 39
2, 119673, Note_off_c, 0, 62, 49
2, 119676, Note_on_c, 0, 69, 48
2, 119677, Note_on_c, 0, 59, 37
2, 119693, Note_off_c, 0, 71, 53
2, 119777, Note_off_c, 0, 59, 49
2, 119781, Note_on_c, 0, 62, 35
2, 119839, Note_on_c, 0, 67, 45
2, 119869, Note_off_c, 0, 69, 52
2, 119879, Note_off_c, 0, 62, 48
2, 119881, Note_on_c, 0, 59, 33
2, 119955, Note_off_c, 0, 67, 51
2, 119991, Note_off_c, 0, 59, 48
2, 119992, Note_off_c, 0, 79, 51
2, 119994, Note_off_c, 0, 55, 50
2, 119995, Note_on_c, 0, 54, 37
2, 120070, Note_on_c, 0, 57, 39
2, 120179, Note_off_c, 0, 57, 49
2, 120182, Note_on_c, 0, 62, 45
2, 120273, Note_off_c, 0, 62, 51
2, 120276, Note_on_c, 0, 84, 69
2, 120277, Note_on_c, 0, 57, 45
2, 120362, Note_off_c, 0, 57, 51
2, 120365, Note_on_c, 0, 62, 45
2, 120370, Note_off_c, 0, 84, 57
2, 120478, Note_off_c, 0, 62, 51
2, 120482, Note_on_c, 0, 57, 44
2, 120569, Note_off_c, 0, 57, 51
2, 120572, Note_off_c, 0, 54, 49
2, 120573, Note_on_c, 0, 55, 46
2, 120576, Note_on_c, 0, 84, 57
2, 120674, Note_on_c, 0, 59, 41
2, 120708, Note_on_c, 0, 83, 57
2, 120730, Note_off_c, 0, 84, 54
2, 120763, Note_off_c, 0, 59, 50
2, 120766, Note_on_c, 0, 62, 39
2, 120874, Note_off_c, 0, 62, 49
2, 120875, Note_on_c, 0, 81, 50
2, 120877, Note_on_c, 0, 59, 38
2, 120893, Note_off_c, 0, 83, 54
2, 120963, Note_off_c, 0, 59, 49
2, 120967, Note_on_c, 0, 62, 36
2, 121020, Note_on_c, 0, 79, 45
2, 121048, Note_off_c, 0, 81, 52
2, 121078, Note_off_c, 0, 62, 49
2, 121080, Note_on_c, 0, 59, 33
2, 121137, Note_off_c, 0, 79, 51
2, 121191, Note_off_c, 0, 59, 48
2, 121192, Note_off_c, 0, 55, 51
2, 121195, Note_on_c, 0, 54, 37
2, 121276, Note_on_c, 0, 57, 37
2, 121365, Note_off_c, 0, 57, 49
2, 121368, Note_on_c, 0, 62, 41
2, 121477, Note_off_c, 0, 62, 50
2, 121478, Note_on_c, 0, 84, 69
2, 121480, Note_on_c, 0, 57, 45
2, 121562, Note_off_c, 0, 84, 57
2, 121563, Note_off_c, 0, 57, 51
2, 121567, Note_on_c, 0, 62, 45
2, 121661, Note_off_c, 0, 62, 51
2, 121663, Note_on_c, 0, 57, 45
2, 121777, Note_off_c, 0, 57, 51
2, 121779, Note_off_c, 0, 54, 49
2, 121781, Note_on_c, 0, 84, 57
2, 121781, Note_on_c, 0, 55, 47
2, 121857, Note_on_c, 0, 59, 41
2, 121912, Note_on_c, 0, 83, 57
2, 121936, Note_off_c, 0, 84, 54
2, 121966, Note_off_c, 0, 59, 50
2, 121968, Note_on_c, 0, 62, 38
2, 122057, Note_off_c, 0, 62, 49
2, 122064, Note_on_c, 0, 81, 50
2, 122066, Note_on_c, 0, 59, 36
2, 122080, Note_off_c, 0, 83, 54
2, 122167, Note_off_c, 0, 59, 49
2, 122169, Note_on_c, 0, 62, 33
2, 122222, Note_on_c, 0, 79, 45
2, 122249, Note_off_c, 0, 81, 52
2, 122284, Note_off_c, 0, 62, 48
2, 122286, Note_on_c, 0, 59, 33
2, 122341, Note_off_c, 0, 79, 51
2, 122374, Note_off_c, 0, 59, 48
2, 122377, Note_off_c, 0, 55, 51
2, 122379, Note_on_c, 0, 54, 42
2, 122459, Note_on_c, 0, 57, 43
2, 122566, Note_off_c, 0, 57, 50
2, 122568, Note_on_c, 0, 62, 49
2, 122662, Note_off_c, 0, 62, 52
2, 122665, Note_on_c, 0, 57, 54
2, 122665, Note_on_c, 0, 84, 69
2, 122745, Note_off_c, 0, 84, 57
2, 122750, Note_off_c, 0, 57, 53
2, 122755, Note_on_c, 0, 62, 54
2, 122865, Note_off_c, 0, 62, 53
2, 122867, Note_on_c, 0, 57, 57
2, 122965, Note_off_c, 0, 57, 54
2, 122966, Note_off_c, 0, 54, 50
2, 122969, Note_on_c, 0, 55, 69
2, 122969, Note_on_c, 0, 84, 57
2, 122973, Control_c, 0, 64, 127
2, 123018, Note_on_c, 0, 59, 69
2, 123049, Note_on_c, 0, 62, 69
2, 123097, Note_on_c, 0, 83, 57
2, 123121, Note_off_c, 0, 84, 54
2, 123237, Note_on_c, 0, 81, 53
2, 123257, Note_off_c, 0, 83, 54
2, 123288, Control_c, 0, 64, 0
2, 123360, Note_off_c, 0, 59, 57
2, 123363, Note_off_c, 0, 55, 57
2, 123392, Note_off_c, 0, 62, 57
2, 123394, Note_on_c, 0, 79, 49
2, 123408, Note_off_c, 0, 81, 53
2, 123530, Note_on_c, 0, 78, 45
2, 123549, Note_off_c, 0, 79, 52
2, 123665, Note_on_c, 0, 79, 52
2, 123686, Note_off_c, 0, 78, 51
2, 123821, Note_on_c, 0, 81, 55
2, 123846, Note_off_c, 0, 79, 53
2, 123977, Note_on_c, 0, 79, 56
2, 123996, Note_off_c, 0, 81, 53
2, 124130, Note_on_c, 0, 78, 45
2, 124152, Note_off_c, 0, 79, 54
2, 124267, Note_on_c, 0, 79, 45
2, 124290, Note_off_c, 0, 78, 51
2, 124421, Note_on_c, 0, 81, 47
2, 124445, Note_off_c, 0, 79, 51
2, 124572, Note_on_c, 0, 79, 49
2, 124596, Note_off_c, 0, 81, 51
2, 124713, Note_on_c, 0, 78, 52
2, 124730, Note_off_c, 0, 79, 52
2, 124865, Note_on_c, 0, 79, 54
2, 124889, Note_off_c, 0, 78, 53
2, 125004, Note_on_c, 0, 80, 57
2, 125026, Note_off_c, 0, 79, 53
2, 125141, Note_on_c, 0, 81, 57
2, 125160, Note_off_c, 0, 80, 54
2, 125236, Note_off_c, 0, 81, 54
2, 125269, Note_on_c, 0, 81, 76
2, 125276, Note_on_c, 0, 67, 45
2, 125280, Note_on_c, 0, 65, 52
2, 125293, Control_c, 0, 64, 127
2, 125565, Note_on_c, 0, 77, 56
2, 125572, Note_on_c, 0, 62, 32
2, 125586, Note_off_c, 0, 81, 59
2, 125598, Note_off_c, 0, 65, 53
2, 125630, Control_c, 0, 64, 0
2, 125764, Note_off_c, 0, 67, 51
2, 125776, Note_off_c, 0, 77, 54
2, 125784, Note_off_c, 0, 62, 48
2, 125845, Note_on_c, 0, 74, 63
2, 125852, Note_on_c, 0, 59, 39
2, 125854, Note_on_c, 0, 67, 39
2, 125957, Note_off_c, 0, 74, 55
2, 125983, Note_off_c, 0, 59, 49
2, 126044, Note_off_c, 0, 67, 49
2, 126050, Note_on_c, 0, 76, 57
2, 126124, Note_off_c, 0, 76, 54
2, 126129, Note_on_c, 0, 60, 33
2, 126131, Note_on_c, 0, 77, 57
2, 126133, Note_on_c, 0, 67, 33
2, 126196, Note_on_c, 0, 76, 57
2, 126204, Note_off_c, 0, 77, 54
2, 126257, Note_off_c, 0, 60, 48
2, 126265, Note_on_c, 0, 74, 61
2, 126276, Note_off_c, 0, 76, 54
2, 126323, Note_off_c, 0, 67, 48
2, 126336, Note_on_c, 0, 76, 65
2, 126340, Note_off_c, 0, 74, 55
2, 126392, Note_on_c, 0, 81, 76
2, 126396, Note_off_c, 0, 76, 56
2, 126403, Note_on_c, 0, 65, 64
2, 126405, Note_on_c, 0, 67, 57
2, 126419, Control_c, 0, 64, 127
2, 126691, Note_on_c, 0, 77, 56
2, 126697, Note_on_c, 0, 62, 44
2, 126703, Note_off_c, 0, 81, 59
2, 126716, Note_off_c, 0, 65, 56
2, 126758, Control_c, 0, 64, 0
2, 126866, Note_off_c, 0, 67, 54
2, 126901, Note_off_c, 0, 77, 54
2, 126911, Note_off_c, 0, 62, 51
2, 126971, Note_on_c, 0, 74, 63
2, 126981, Note_on_c, 0, 59, 54
2, 126983, Note_on_c, 0, 67, 54
2, 127106, Note_off_c, 0, 59, 53
2, 127108, Note_off_c, 0, 74, 55
2, 127175, Note_on_c, 0, 76, 57
2, 127177, Note_off_c, 0, 67, 53
2, 127249, Note_off_c, 0, 76, 54
2, 127255, Note_on_c, 0, 60, 51
2, 127257, Note_on_c, 0, 77, 57
2, 127259, Note_on_c, 0, 67, 51
2, 127324, Note_on_c, 0, 76, 57
2, 127329, Note_off_c, 0, 77, 54
2, 127388, Note_on_c, 0, 74, 57
2, 127399, Note_off_c, 0, 76, 54
2, 127401, Note_off_c, 0, 60, 52
2, 127461, Note_on_c, 0, 76, 56
2, 127468, Note_off_c, 0, 74, 54
2, 127485, Note_off_c, 0, 67, 52
2, 127520, Note_on_c, 0, 77, 56
2, 127530, Note_on_c, 0, 74, 46
2, 127532, Note_on_c, 0, 53, 47
2, 127534, Note_on_c, 0, 69, 44
2, 127538, Note_off_c, 0, 76, 54
2, 127540, Note_on_c, 0, 65, 42
2, 127655, Note_off_c, 0, 65, 50
2, 127665, Note_off_c, 0, 69, 51
2, 127668, Note_off_c, 0, 53, 51
2, 127669, Note_off_c, 0, 74, 51
2, 127688, Note_off_c, 0, 77, 54
2, 128126, Note_on_c, 0, 74, 51
2, 128147, Note_on_c, 0, 55, 36
2, 128149, Note_on_c, 0, 67, 38
2, 128152, Note_on_c, 0, 71, 41
2, 128154, Note_on_c, 0, 62, 40
2, 128159, Note_on_c, 0, 59, 37
2, 128289, Note_off_c, 0, 59, 49
2, 128317, Note_off_c, 0, 55, 49
2, 128322, Note_off_c, 0, 62, 50
2, 128324, Note_off_c, 0, 71, 50
2, 128326, Note_off_c, 0, 67, 49
2, 128360, Note_off_c, 0, 74, 52
2, 128864, Note_on_c, 0, 76, 45
2, 128881, Control_c, 0, 64, 127
2, 128893, Note_on_c, 0, 72, 35
2, 128898, Note_on_c, 0, 60, 33
2, 128900, Note_on_c, 0, 64, 31
2, 128909, Note_on_c, 0, 67, 32
2, 128912, Note_on_c, 0, 48, 27
2, 128915, Note_on_c, 0, 55, 30
2, 128920, Note_on_c, 0, 52, 28
2, 129333, Note_off_c, 0, 76, 51
2, 129336, Note_off_c, 0, 52, 47
2, 129356, Note_off_c, 0, 64, 47
2, 129366, Note_off_c, 0, 55, 47
2, 129373, Note_off_c, 0, 72, 48
2, 129383, Note_off_c, 0, 67, 48
2, 129387, Note_off_c, 0, 48, 46
2, 129393, Note_off_c, 0, 60, 48
2, 129859, Control_c, 0, 64, 0
2, 130072, Note_on_c, 0, 67, 64
2, 130081, Note_on_c, 0, 63, 56
2, 130151, Note_on_c, 0, 79, 66
2, 130218, Note_on_c, 0, 75, 66
2, 130233, Note_off_c, 0, 79, 56
2, 130236, Note_off_c, 0, 67, 56
2, 130288, Note_on_c, 0, 67, 78
2, 130307, Note_off_c, 0, 75, 56
2, 130348, Note_on_c, 0, 68, 78
2, 130357, Note_on_c, 0, 65, 70
2, 130364, Control_c, 0, 64, 127
2, 130372, Note_off_c, 0, 67, 59
2, 130376, Note_off_c, 0, 63, 54
2, 130422, Note_on_c, 0, 80, 90
2, 130492, Note_on_c, 0, 77, 90
2, 130509, Note_off_c, 0, 80, 62
2, 130559, Note_on_c, 0, 67, 90
2, 130567, Note_off_c, 0, 65, 57
2, 130579, Note_off_c, 0, 77, 62
2, 130624, Note_off_c, 0, 68, 59
2, 130632, Note_on_c, 0, 65, 66
2, 130634, Note_on_c, 0, 62, 58
2, 130657, Note_off_c, 0, 67, 62
2, 130676, Control_c, 0, 64, 0
2, 130698, Note_on_c, 0, 77, 88
2, 130782, Note_on_c, 0, 74, 87
2, 130801, Note_off_c, 0, 77, 62
2, 130852, Note_off_c, 0, 65, 56
2, 130854, Note_off_c, 0, 62, 54
2, 130856, Note_on_c, 0, 67, 86
2, 130868, Note_off_c, 0, 74, 61
2, 130921, Note_on_c, 0, 59, 66
2, 130923, Note_on_c, 0, 62, 74
2, 130941, Note_off_c, 0, 67, 61
2, 130976, Note_off_c, 0, 62, 59
2, 130979, Note_off_c, 0, 59, 56
2, 131008, Note_on_c, 0, 74, 84
2, 131075, Note_on_c, 0, 71, 83
2, 131092, Note_off_c, 0, 74, 61
2, 131159, Note_on_c, 0, 67, 82
2, 131181, Note_off_c, 0, 71, 60
2, 131232, Note_on_c, 0, 63, 86
2, 131233, Note_on_c, 0, 60, 78
2, 131249, Note_off_c, 0, 67, 60
2, 131286, Note_off_c, 0, 63, 61
2, 131287, Note_off_c, 0, 60, 59
2, 131312, Note_on_c, 0, 75, 80
2, 131383, Note_on_c, 0, 72, 79
2, 131400, Note_off_c, 0, 75, 60
2, 131452, Note_on_c, 0, 67, 78
2, 131468, Note_off_c, 0, 72, 60
2, 131521, Note_off_c, 0, 67, 59
2, 131526, Note_on_c, 0, 68, 84
2, 131539, Note_on_c, 0, 65, 76
2, 131548, Control_c, 0, 64, 127
2, 131608, Note_on_c, 0, 80, 90
2, 131675, Note_on_c, 0, 77, 90
2, 131692, Note_off_c, 0, 80, 62
2, 131739, Note_off_c, 0, 65, 59
2, 131742, Note_on_c, 0, 67, 90
2, 131762, Note_off_c, 0, 77, 62
2, 131804, Note_off_c, 0, 68, 61
2, 131806, Note_off_c, 0, 67, 62
2, 131808, Note_on_c, 0, 65, 66
2, 131811, Note_on_c, 0, 62, 58
2, 131860, Control_c, 0, 64, 0
2, 131896, Note_on_c, 0, 77, 88
2, 131965, Note_on_c, 0, 74, 87
2, 131989, Note_off_c, 0, 77, 62
2, 132035, Note_off_c, 0, 62, 54
2, 132037, Note_off_c, 0, 65, 56
2, 132039, Note_on_c, 0, 67, 86
2, 132053, Note_off_c, 0, 74, 61
2, 132121, Note_on_c, 0, 62, 74
2, 132124, Note_on_c, 0, 59, 66
2, 132140, Note_off_c, 0, 67, 61
2, 132187, Note_off_c, 0, 59, 56
2, 132188, Note_off_c, 0, 62, 59
2, 132206, Note_on_c, 0, 74, 84
2, 132275, Note_on_c, 0, 71, 83
2, 132299, Note_off_c, 0, 74, 61
2, 132361, Note_on_c, 0, 67, 82
2, 132380, Note_off_c, 0, 71, 60
2, 132431, Note_on_c, 0, 63, 86
2, 132433, Note_on_c, 0, 60, 78
2, 132445, Note_off_c, 0, 67, 60
2, 132493, Note_off_c, 0, 63, 61
2, 132495, Note_off_c, 0, 60, 59
2, 132512, Note_on_c, 0, 75, 80
2, 132583, Note_on_c, 0, 72, 79
2, 132604, Note_off_c, 0, 75, 60
2, 132671, Note_on_c, 0, 67, 78
2, 132688, Note_off_c, 0, 72, 60
2, 132719, Note_off_c, 0, 67, 59
2, 132721, Note_on_c, 0, 77, 78
2, 132737, Note_on_c, 0, 53, 62
2, 132740, Note_on_c, 0, 74, 67
2, 132742, Note_on_c, 0, 62, 65
2, 132744, Note_on_c, 0, 56, 64
2, 132748, Note_on_c, 0, 68, 66
2, 132872, Note_off_c, 0, 68, 56
2, 132874, Note_off_c, 0, 62, 56
2, 132886, Note_off_c, 0, 53, 55
2, 132888, Note_off_c, 0, 74, 57
2, 132894, Note_off_c, 0, 56, 56
2, 132920, Note_off_c, 0, 77, 59
2, 133319, Note_on_c, 0, 74, 78
2, 133332, Note_on_c, 0, 71, 67
2, 133335, Note_on_c, 0, 59, 64
2, 133339, Note_on_c, 0, 62, 63
2, 133341, Note_on_c, 0, 65, 65
2, 133345, Note_on_c, 0, 55, 62
2, 133468, Note_off_c, 0, 62, 55
2, 133476, Note_off_c, 0, 71, 57
2, 133482, Note_off_c, 0, 55, 55
2, 133483, Note_off_c, 0, 65, 56
2, 133485, Note_off_c, 0, 59, 56
2, 133504, Note_off_c, 0, 74, 59
2, 133943, Note_on_c, 0, 72, 72
2, 133952, Note_on_c, 0, 56, 59
2, 133953, Note_on_c, 0, 68, 61
2, 133956, Note_on_c, 0, 60, 56
2, 133959, Note_on_c, 0, 63, 59
2, 134105, Note_off_c, 0, 60, 54
2, 134106, Note_off_c, 0, 68, 55
2, 134109, Note_off_c, 0, 56, 54
2, 134118, Note_off_c, 0, 63, 54
2, 134128, Note_off_c, 0, 72, 58
2, 135327, Control_c, 0, 64, 127
2, 135329, Note_on_c, 0, 72, 42
2, 135331, Note_on_c, 0, 57, 30
2, 135333, Note_on_c, 0, 60, 36
2, 135336, Note_on_c, 0, 54, 25
2, 135337, Note_on_c, 0, 63, 30
2, 135339, Note_on_c, 0, 69, 22
2, 135839, Note_off_c, 0, 60, 49
2, 135878, Note_off_c, 0, 57, 47
2, 135885, Note_off_c, 0, 69, 45
2, 135893, Note_off_c, 0, 54, 46
2, 135899, Note_off_c, 0, 63, 47
2, 135940, Note_off_c, 0, 72, 50
2, 136419, Control_c, 0, 64, 0
2, 136759, Note_on_c, 0, 55, 26
2, 136764, Note_on_c, 0, 53, 37
2, 136817, Note_off_c, 0, 55, 46
2, 136831, Note_off_c, 0, 53, 49
2, 136884, Note_on_c, 0, 71, 48
2, 136908, Note_on_c, 0, 62, 38
2, 137033, Note_off_c, 0, 71, 52
2, 137038, Note_off_c, 0, 62, 49
2, 137040, Note_on_c, 0, 47, 39
2, 137042, Note_on_c, 0, 55, 28
2, 137105, Note_off_c, 0, 47, 49
2, 137107, Note_off_c, 0, 55, 47
2, 137168, Note_on_c, 0, 74, 51
2, 137175, Note_on_c, 0, 65, 40
2, 137309, Note_off_c, 0, 65, 50
2, 137312, Note_on_c, 0, 48, 42
2, 137314, Note_on_c, 0, 55, 30
2, 137324, Note_off_c, 0, 74, 52
2, 137379, Note_off_c, 0, 48, 50
2, 137398, Note_off_c, 0, 55, 47
2, 137460, Note_on_c, 0, 64, 42
2, 137462, Note_on_c, 0, 72, 54
2, 137596, Note_off_c, 0, 64, 50
2, 137604, Note_on_c, 0, 43, 46
2, 137606, Note_on_c, 0, 55, 34
2, 137608, Note_off_c, 0, 72, 53
2, 137664, Note_off_c, 0, 55, 48
2, 137666, Note_off_c, 0, 43, 51
2, 137731, Note_on_c, 0, 76, 58
2, 137736, Note_on_c, 0, 72, 46
2, 137880, Note_off_c, 0, 72, 51
2, 137893, Note_on_c, 0, 55, 36
2, 137895, Note_on_c, 0, 50, 48
2, 137897, Note_off_c, 0, 76, 54
2, 137957, Note_off_c, 0, 55, 49
2, 137959, Note_off_c, 0, 50, 52
2, 138020, Note_on_c, 0, 77, 61
2, 138029, Note_on_c, 0, 71, 50
2, 138164, Note_off_c, 0, 71, 52
2, 138166, Note_off_c, 0, 77, 55
2, 138168, Note_on_c, 0, 55, 40
2, 138170, Note_on_c, 0, 43, 52
2, 138235, Note_off_c, 0, 43, 53
2, 138238, Note_off_c, 0, 55, 50
2, 138294, Note_on_c, 0, 83, 65
2, 138300, Note_on_c, 0, 77, 53
2, 138437, Note_off_c, 0, 77, 53
2, 138439, Note_on_c, 0, 55, 43
2, 138442, Note_on_c, 0, 48, 55
2, 138445, Note_off_c, 0, 83, 56
2, 138503, Note_off_c, 0, 55, 50
2, 138505, Note_off_c, 0, 48, 53
2, 138570, Note_on_c, 0, 84, 69
2, 138574, Note_on_c, 0, 76, 56
2, 138727, Note_off_c, 0, 76, 54
2, 138735, Note_on_c, 0, 43, 59
2, 138737, Note_on_c, 0, 55, 47
2, 138739, Note_off_c, 0, 84, 57
2, 138794, Note_off_c, 0, 43, 54
2, 138797, Note_off_c, 0, 55, 51
2, 138868, Note_on_c, 0, 88, 71
2, 138870, Note_on_c, 0, 84, 58
2, 139008, Note_on_c, 0, 50, 62
2, 139010, Note_on_c, 0, 55, 49
2, 139012, Note_off_c, 0, 88, 58
2, 139013, Note_off_c, 0, 84, 54
2, 139066, Note_off_c, 0, 55, 52
2, 139068, Note_off_c, 0, 50, 55
2, 139145, Note_on_c, 0, 83, 62
2, 139150, Note_on_c, 0, 89, 76
2, 139279, Note_off_c, 0, 83, 55
2, 139282, Note_on_c, 0, 53, 66
2, 139284, Note_on_c, 0, 55, 53
2, 139290, Note_off_c, 0, 89, 59
2, 139344, Note_off_c, 0, 55, 53
2, 139356, Note_off_c, 0, 53, 56
2, 139416, Note_on_c, 0, 83, 80
2, 139422, Note_on_c, 0, 74, 65
2, 139553, Note_off_c, 0, 74, 56
2, 139555, Note_on_c, 0, 52, 69
2, 139557, Note_on_c, 0, 55, 56
2, 139571, Note_off_c, 0, 83, 60
2, 139627, Note_off_c, 0, 55, 54
2, 139636, Note_off_c, 0, 52, 57
2, 139697, Note_on_c, 0, 84, 82
2, 139716, Note_on_c, 0, 76, 69
2, 139843, Note_off_c, 0, 84, 60
2, 139852, Note_off_c, 0, 76, 57
2, 139853, Note_on_c, 0, 48, 74
2, 139855, Note_on_c, 0, 55, 60
2, 139908, Note_off_c, 0, 48, 59
2, 139917, Note_off_c, 0, 55, 55
2, 139973, Note_on_c, 0, 88, 87
2, 139990, Note_on_c, 0, 79, 73
2, 140123, Note_off_c, 0, 79, 58
2, 140124, Note_off_c, 0, 88, 61
2, 140126, Note_on_c, 0, 50, 77
2, 140126, Note_on_c, 0, 55, 63
2, 140185, Note_off_c, 0, 55, 55
2, 140188, Note_off_c, 0, 50, 59
2, 140247, Note_on_c, 0, 89, 90
2, 140259, Note_on_c, 0, 77, 78
2, 140391, Note_off_c, 0, 77, 59
2, 140395, Note_on_c, 0, 53, 82
2, 140397, Note_on_c, 0, 55, 68
2, 140399, Note_off_c, 0, 89, 62
2, 140457, Note_off_c, 0, 53, 60
2, 140460, Note_off_c, 0, 55, 57
2, 140527, Note_on_c, 0, 74, 81
2, 140529, Note_on_c, 0, 83, 94
2, 140662, Note_off_c, 0, 74, 60
2, 140669, Note_on_c, 0, 55, 71
2, 140671, Note_on_c, 0, 52, 85
2, 140674, Note_off_c, 0, 83, 63
2, 140731, Note_off_c, 0, 52, 61
2, 140734, Note_off_c, 0, 55, 58
2, 140799, Note_on_c, 0, 84, 97
2, 140811, Note_on_c, 0, 76, 83
2, 140940, Note_off_c, 0, 76, 60
2, 140945, Note_on_c, 0, 48, 89
2, 140947, Note_on_c, 0, 55, 74
2, 140949, Note_off_c, 0, 84, 64
2, 140999, Note_off_c, 0, 55, 59
2, 141003, Note_off_c, 0, 48, 62
2, 141058, Note_on_c, 0, 88, 104
2, 141067, Note_on_c, 0, 79, 89
2, 141180, Control_c, 0, 64, 127
2, 141196, Note_off_c, 0, 79, 62
2, 141197, Note_on_c, 0, 45, 78
2, 141203, Note_on_c, 0, 41, 80
2, 141207, Note_on_c, 0, 50, 95
2, 141209, Note_off_c, 0, 88, 66
2, 141441, Note_off_c, 0, 45, 59
2, 141459, Note_off_c, 0, 50, 63
2, 141461, Note_off_c, 0, 41, 60
2, 141463, Note_on_c, 0, 86, 80
2, 141491, Control_c, 0, 64, 0
2, 141542, Note_on_c, 0, 85, 79
2, 141578, Note_off_c, 0, 86, 60
2, 141627, Note_on_c, 0, 88, 79
2, 141656, Note_off_c, 0, 85, 60
2, 141703, Control_c, 0, 64, 127
2, 141711, Note_on_c, 0, 57, 66
2, 141714, Note_on_c, 0, 86, 78
2, 141720, Note_off_c, 0, 88, 60
2, 141722, Note_on_c, 0, 53, 69
2, 141724, Note_on_c, 0, 62, 69
2, 141808, Note_off_c, 0, 86, 59
2, 141982, Note_off_c, 0, 57, 56
2, 141983, Note_off_c, 0, 53, 57
2, 141988, Note_off_c, 0, 62, 57
2, 141991, Note_on_c, 0, 81, 77
2, 142015, Control_c, 0, 64, 0
2, 142075, Note_on_c, 0, 80, 76
2, 142113, Note_off_c, 0, 81, 59
2, 142157, Note_on_c, 0, 83, 76
2, 142197, Note_off_c, 0, 80, 59
2, 142245, Note_on_c, 0, 81, 75
2, 142253, Note_off_c, 0, 83, 59
2, 142343, Note_off_c, 0, 81, 59
2, 142518, Note_on_c, 0, 77, 74
2, 142605, Note_on_c, 0, 76, 73
2, 142653, Note_off_c, 0, 77, 59
2, 142691, Note_on_c, 0, 79, 73
2, 142732, Note_off_c, 0, 76, 58
2, 142792, Note_on_c, 0, 77, 72
2, 142800, Note_off_c, 0, 79, 58
2, 142874, Note_off_c, 0, 77, 58
2, 143066, Note_on_c, 0, 74, 71
2, 143154, Note_on_c, 0, 73, 70
2, 143195, Note_off_c, 0, 74, 58
2, 143239, Note_on_c, 0, 76, 70
2, 143274, Note_off_c, 0, 73, 57
2, 143339, Note_on_c, 0, 74, 69
2, 143350, Note_off_c, 0, 76, 57
2, 143445, Note_off_c, 0, 74, 57
2, 143607, Note_on_c, 0, 74, 89
2, 143613, Note_on_c, 0, 62, 86
2, 143646, Control_c, 0, 64, 127
2, 144122, Note_off_c, 0, 62, 61
2, 144162, Note_on_c, 0, 76, 69
2, 144167, Note_on_c, 0, 64, 57
2, 144178, Note_off_c, 0, 74, 62
2, 144180, Control_c, 0, 64, 0
2, 144292, Control_c, 0, 64, 127
2, 144303, Note_on_c, 0, 65, 69
2, 144305, Note_on_c, 0, 77, 69
2, 144306, Note_off_c, 0, 64, 54
2, 144321, Note_off_c, 0, 76, 57
2, 144400, Note_off_c, 0, 65, 57
2, 144405, Note_off_c, 0, 77, 57
2, 144437, Note_on_c, 0, 67, 77
2, 144439, Note_on_c, 0, 79, 89
2, 144459, Control_c, 0, 64, 0
2, 144566, Control_c, 0, 64, 127
2, 144963, Note_off_c, 0, 67, 59
2, 144984, Note_on_c, 0, 62, 75
2, 144986, Note_on_c, 0, 59, 73
2, 144988, Note_on_c, 0, 65, 85
2, 144991, Note_on_c, 0, 55, 70
2, 145017, Control_c, 0, 64, 0
2, 145070, Note_on_c, 0, 81, 89
2, 145089, Note_off_c, 0, 79, 62
2, 145131, Control_c, 0, 64, 127
2, 145159, Note_on_c, 0, 79, 85
2, 145179, Note_off_c, 0, 81, 62
2, 145262, Note_on_c, 0, 77, 81
2, 145276, Note_off_c, 0, 79, 61
2, 145346, Note_on_c, 0, 76, 77
2, 145370, Note_off_c, 0, 77, 60
2, 145433, Note_off_c, 0, 62, 59
2, 145435, Note_on_c, 0, 74, 73
2, 145440, Note_off_c, 0, 55, 57
2, 145449, Note_off_c, 0, 65, 61
2, 145450, Note_off_c, 0, 59, 58
2, 145456, Note_off_c, 0, 76, 59
2, 145502, Note_off_c, 0, 74, 58
2, 145538, Note_on_c, 0, 60, 32
2, 145540, Note_on_c, 0, 72, 69
2, 145579, Control_c, 0, 64, 0
2, 145619, Note_off_c, 0, 60, 48
2, 145624, Note_on_c, 0, 64, 32
2, 145703, Note_on_c, 0, 67, 33
2, 145710, Note_off_c, 0, 64, 48
2, 145797, Note_off_c, 0, 67, 48
2, 145805, Note_off_c, 0, 72, 57
2, 145814, Note_on_c, 0, 60, 33
2, 145893, Note_on_c, 0, 64, 35
2, 145902, Note_off_c, 0, 60, 48
2, 145983, Note_on_c, 0, 67, 36
2, 145987, Note_off_c, 0, 64, 48
2, 146081, Note_on_c, 0, 60, 36
2, 146086, Note_off_c, 0, 67, 49
2, 146087, Note_on_c, 0, 79, 60
2, 146167, Note_off_c, 0, 60, 49
2, 146168, Note_on_c, 0, 64, 36
2, 146219, Note_off_c, 0, 79, 55
2, 146253, Note_on_c, 0, 67, 37
2, 146256, Note_off_c, 0, 64, 49
2, 146354, Note_off_c, 0, 67, 49
2, 146357, Note_on_c, 0, 79, 56
2, 146359, Note_on_c, 0, 60, 38
2, 146442, Note_off_c, 0, 60, 49
2, 146445, Note_on_c, 0, 64, 38
2, 146494, Note_off_c, 0, 79, 54
2, 146526, Note_off_c, 0, 64, 49
2, 146534, Note_on_c, 0, 67, 39
2, 146627, Note_on_c, 0, 60, 41
2, 146632, Note_on_c, 0, 76, 51
2, 146639, Note_off_c, 0, 67, 49
2, 146716, Note_off_c, 0, 60, 50
2, 146721, Note_on_c, 0, 64, 42
2, 146767, Note_off_c, 0, 76, 52
2, 146802, Note_off_c, 0, 64, 50
2, 146806, Note_on_c, 0, 67, 41
2, 146909, Note_off_c, 0, 67, 50
2, 146911, Note_on_c, 0, 60, 43
2, 146985, Note_on_c, 0, 64, 43
2, 146997, Note_off_c, 0, 60, 50
2, 147069, Note_off_c, 0, 64, 50
2, 147074, Note_on_c, 0, 67, 44
2, 147174, Note_off_c, 0, 67, 51
2, 147180, Note_on_c, 0, 60, 44
2, 147182, Note_on_c, 0, 84, 63
2, 147183, Note_on_c, 0, 72, 51
2, 147263, Note_off_c, 0, 72, 52
2, 147267, Note_off_c, 0, 60, 51
2, 147270, Note_on_c, 0, 64, 43
2, 147316, Note_off_c, 0, 84, 55
2, 147347, Note_on_c, 0, 67, 41
2, 147350, Note_off_c, 0, 64, 50
2, 147446, Note_off_c, 0, 67, 50
2, 147454, Note_on_c, 0, 84, 57
2, 147455, Note_on_c, 0, 72, 45
2, 147457, Note_on_c, 0, 60, 39
2, 147532, Note_off_c, 0, 60, 49
2, 147534, Note_off_c, 0, 72, 51
2, 147544, Note_on_c, 0, 64, 37
2, 147588, Note_off_c, 0, 84, 54
2, 147623, Note_on_c, 0, 67, 34
2, 147626, Note_off_c, 0, 64, 49
2, 147719, Note_off_c, 0, 67, 48
2, 147730, Note_on_c, 0, 53, 33
2, 147732, Note_on_c, 0, 81, 51
2, 147733, Note_on_c, 0, 57, 32
2, 147734, Note_on_c, 0, 69, 39
2, 147809, Note_off_c, 0, 53, 48
2, 147810, Note_off_c, 0, 57, 48
2, 147813, Note_on_c, 0, 60, 32
2, 147894, Note_on_c, 0, 62, 32
2, 147897, Note_off_c, 0, 60, 48
2, 147966, Note_off_c, 0, 69, 49
2, 147998, Note_off_c, 0, 62, 48
2, 148000, Note_off_c, 0, 81, 52
2, 148010, Note_on_c, 0, 57, 38
2, 148012, Note_on_c, 0, 53, 39
2, 148082, Note_on_c, 0, 60, 45
2, 148086, Note_off_c, 0, 53, 49
2, 148097, Note_off_c, 0, 57, 49
2, 148162, Note_off_c, 0, 60, 51
2, 148175, Note_on_c, 0, 62, 51
2, 148274, Note_on_c, 0, 42, 81
2, 148276, Note_on_c, 0, 54, 57
2, 148282, Note_off_c, 0, 62, 52
2, 148284, Note_on_c, 0, 57, 57
2, 148356, Note_off_c, 0, 54, 54
2, 148360, Note_on_c, 0, 60, 57
2, 148372, Note_off_c, 0, 57, 54
2, 148412, Note_off_c, 0, 42, 60
2, 148439, Note_on_c, 0, 62, 55
2, 148446, Note_off_c, 0, 60, 54
2, 148537, Note_off_c, 0, 62, 53
2, 148547, Note_on_c, 0, 42, 91
2, 148550, Note_on_c, 0, 54, 55
2, 148553, Note_on_c, 0, 57, 55
2, 148635, Note_off_c, 0, 54, 53
2, 148636, Note_on_c, 0, 60, 53
2, 148638, Note_off_c, 0, 57, 53
2, 148685, Note_off_c, 0, 42, 62
2, 148718, Note_off_c, 0, 60, 53
2, 148730, Note_on_c, 0, 62, 53
2, 148821, Note_on_c, 0, 42, 81
2, 148823, Note_on_c, 0, 55, 52
2, 148828, Note_off_c, 0, 62, 53
2, 148893, Note_off_c, 0, 42, 60
2, 148895, Note_on_c, 0, 43, 81
2, 148906, Note_on_c, 0, 60, 51
2, 148912, Note_off_c, 0, 55, 53
2, 148958, Note_off_c, 0, 43, 60
2, 148962, Note_on_c, 0, 45, 80
2, 148991, Note_off_c, 0, 60, 52
2, 149001, Note_on_c, 0, 64, 74
2, 149026, Note_off_c, 0, 45, 60
2, 149030, Note_on_c, 0, 43, 79
2, 149094, Note_off_c, 0, 43, 60
2, 149097, Note_on_c, 0, 45, 78
2, 149099, Note_on_c, 0, 55, 48
2, 149102, Note_off_c, 0, 64, 59
2, 149166, Note_off_c, 0, 45, 59
2, 149168, Note_on_c, 0, 43, 78
2, 149176, Note_on_c, 0, 60, 47
2, 149187, Note_off_c, 0, 55, 52
2, 149230, Note_off_c, 0, 43, 59
2, 149236, Note_on_c, 0, 45, 77
2, 149265, Note_off_c, 0, 60, 51
2, 149270, Note_on_c, 0, 64, 72
2, 149300, Note_off_c, 0, 45, 59
2, 149303, Note_on_c, 0, 43, 76
2, 149368, Note_on_c, 0, 55, 45
2, 149370, Note_off_c, 0, 43, 59
2, 149372, Note_on_c, 0, 45, 75
2, 149374, Note_off_c, 0, 64, 58
2, 149440, Note_off_c, 0, 45, 59
2, 149442, Note_on_c, 0, 43, 75
2, 149447, Note_off_c, 0, 55, 51
2, 149450, Note_on_c, 0, 59, 44
2, 149510, Note_off_c, 0, 43, 59
2, 149512, Note_on_c, 0, 45, 74
2, 149531, Note_off_c, 0, 59, 51
2, 149536, Note_on_c, 0, 62, 68
2, 149573, Note_off_c, 0, 45, 59
2, 149578, Note_on_c, 0, 43, 73
2, 149642, Note_off_c, 0, 62, 57
2, 149643, Note_off_c, 0, 43, 58
2, 149646, Note_on_c, 0, 45, 72
2, 149651, Note_on_c, 0, 55, 42
2, 149714, Note_off_c, 0, 45, 58
2, 149716, Note_on_c, 0, 43, 72
2, 149726, Note_on_c, 0, 59, 41
2, 149733, Note_off_c, 0, 55, 50
2, 149782, Note_off_c, 0, 43, 58
2, 149810, Note_off_c, 0, 59, 50
2, 149813, Note_on_c, 0, 42, 74
2, 149849, Note_on_c, 0, 62, 66
2, 149883, Note_off_c, 0, 42, 59
2, 149913, Note_on_c, 0, 43, 77
2, 149948, Note_off_c, 0, 62, 56
2, 149979, Note_off_c, 0, 43, 59
2, 150010, Note_on_c, 0, 36, 76
2, 150012, Note_on_c, 0, 48, 39
2, 150070, Note_on_c, 0, 52, 40
2, 150077, Note_off_c, 0, 48, 49
2, 150133, Note_off_c, 0, 52, 50
2, 150151, Note_on_c, 0, 55, 38
2, 150209, Note_on_c, 0, 60, 38
2, 150214, Note_off_c, 0, 55, 49
2, 150273, Note_off_c, 0, 60, 49
2, 150291, Note_on_c, 0, 48, 37
2, 150352, Note_on_c, 0, 52, 37
2, 150363, Note_off_c, 0, 48, 49
2, 150416, Note_on_c, 0, 55, 36
2, 150430, Note_off_c, 0, 52, 49
2, 150485, Note_off_c, 0, 55, 49
2, 150488, Note_on_c, 0, 60, 35
2, 150552, Note_off_c, 0, 60, 48
2, 150560, Note_off_c, 0, 36, 59
2, 150562, Note_on_c, 0, 67, 62
2, 150564, Note_on_c, 0, 48, 34
2, 150629, Note_on_c, 0, 52, 34
2, 150631, Note_on_c, 0, 79, 61
2, 150633, Note_off_c, 0, 48, 48
2, 150643, Note_off_c, 0, 67, 55
2, 150676, Note_off_c, 0, 79, 55
2, 150697, Note_on_c, 0, 55, 34
2, 150698, Note_off_c, 0, 52, 48
2, 150766, Note_off_c, 0, 55, 48
2, 150768, Note_on_c, 0, 60, 33
2, 150832, Note_off_c, 0, 60, 48
2, 150836, Note_on_c, 0, 67, 57
2, 150838, Note_on_c, 0, 48, 33
2, 150893, Note_off_c, 0, 48, 48
2, 150900, Note_on_c, 0, 79, 55
2, 150905, Note_on_c, 0, 52, 33
2, 150920, Note_off_c, 0, 67, 54
2, 150950, Note_off_c, 0, 79, 53
2, 150963, Note_on_c, 0, 55, 34
2, 150972, Note_off_c, 0, 52, 48
2, 151032, Note_off_c, 0, 55, 48
2, 151040, Note_on_c, 0, 60, 34
2, 151101, Note_on_c, 0, 48, 33
2, 151111, Note_on_c, 0, 64, 51
2, 151114, Note_off_c, 0, 60, 48
2, 151168, Note_off_c, 0, 48, 48
2, 151174, Note_on_c, 0, 52, 33
2, 151175, Note_on_c, 0, 76, 51
2, 151199, Note_off_c, 0, 64, 52
2, 151226, Note_off_c, 0, 76, 52
2, 151237, Note_off_c, 0, 52, 48
2, 151244, Note_on_c, 0, 55, 33
2, 151306, Note_off_c, 0, 55, 48
2, 151316, Note_on_c, 0, 60, 33
2, 151377, Note_on_c, 0, 48, 34
2, 151388, Note_off_c, 0, 60, 48
2, 151439, Note_off_c, 0, 48, 48
2, 151449, Note_on_c, 0, 52, 33
2, 151520, Note_on_c, 0, 55, 33
2, 151521, Note_off_c, 0, 52, 48
2, 151589, Note_off_c, 0, 55, 48
2, 151591, Note_on_c, 0, 60, 32
2, 151653, Note_off_c, 0, 60, 48
2, 151654, Note_on_c, 0, 52, 33
2, 151656, Note_on_c, 0, 72, 63
2, 151724, Note_on_c, 0, 84, 63
2, 151733, Note_off_c, 0, 52, 48
2, 151738, Note_off_c, 0, 72, 55
2, 151740, Note_on_c, 0, 55, 34
2, 151774, Note_off_c, 0, 84, 55
2, 151825, Note_off_c, 0, 55, 48
2, 151826, Note_on_c, 0, 60, 37
2, 151927, Note_on_c, 0, 72, 58
2, 151932, Note_off_c, 0, 60, 49
2, 151934, Note_on_c, 0, 52, 38
2, 151997, Note_on_c, 0, 84, 57
2, 152014, Note_off_c, 0, 72, 54
2, 152019, Note_on_c, 0, 55, 41
2, 152021, Note_off_c, 0, 52, 49
2, 152048, Note_off_c, 0, 84, 54
2, 152100, Note_on_c, 0, 60, 42
2, 152110, Note_off_c, 0, 55, 50
2, 152195, Note_off_c, 0, 60, 50
2, 152206, Note_on_c, 0, 53, 45
2, 152208, Note_on_c, 0, 69, 51
2, 152271, Note_on_c, 0, 81, 51
2, 152278, Note_off_c, 0, 53, 51
2, 152280, Note_on_c, 0, 57, 45
2, 152288, Note_off_c, 0, 69, 52
2, 152321, Note_off_c, 0, 81, 52
2, 152338, Note_on_c, 0, 60, 47
2, 152340, Note_off_c, 0, 57, 51
2, 152401, Note_off_c, 0, 60, 51
2, 152402, Note_on_c, 0, 62, 49
2, 152474, Note_off_c, 0, 62, 52
2, 152482, Note_on_c, 0, 53, 51
2, 152537, Note_on_c, 0, 57, 52
2, 152549, Note_off_c, 0, 53, 52
2, 152611, Note_off_c, 0, 57, 53
2, 152619, Note_on_c, 0, 60, 53
2, 152677, Note_off_c, 0, 60, 53
2, 152686, Note_on_c, 0, 62, 55
2, 152749, Note_off_c, 0, 62, 53
2, 152750, Note_on_c, 0, 54, 56
2, 152752, Note_on_c, 0, 42, 81
2, 152815, Note_off_c, 0, 54, 54
2, 152825, Note_on_c, 0, 57, 57
2, 152888, Note_off_c, 0, 57, 54
2, 152889, Note_off_c, 0, 42, 60
2, 152895, Note_on_c, 0, 60, 57
2, 152957, Note_on_c, 0, 62, 58
2, 152959, Note_off_c, 0, 60, 54
2, 153020, Note_on_c, 0, 54, 60
2, 153021, Note_off_c, 0, 62, 54
2, 153026, Note_on_c, 0, 42, 89
2, 153082, Note_off_c, 0, 54, 55
2, 153094, Note_on_c, 0, 57, 62
2, 153161, Note_off_c, 0, 57, 55
2, 153163, Note_off_c, 0, 42, 62
2, 153168, Note_on_c, 0, 60, 65
2, 153233, Note_on_c, 0, 62, 66
2, 153240, Note_off_c, 0, 60, 56
2, 153300, Note_on_c, 0, 42, 93
2, 153302, Note_on_c, 0, 55, 68
2, 153305, Note_off_c, 0, 62, 56
2, 153367, Note_off_c, 0, 42, 63
2, 153370, Note_on_c, 0, 43, 93
2, 153379, Note_off_c, 0, 55, 57
2, 153384, Note_on_c, 0, 60, 69
2, 153435, Note_off_c, 0, 43, 63
2, 153437, Note_on_c, 0, 45, 92
2, 153478, Note_off_c, 0, 60, 57
2, 153480, Note_on_c, 0, 64, 83
2, 153504, Note_off_c, 0, 45, 62
2, 153506, Note_on_c, 0, 43, 90
2, 153574, Note_off_c, 0, 43, 62
2, 153576, Note_on_c, 0, 45, 89
2, 153578, Note_on_c, 0, 55, 66
2, 153583, Note_off_c, 0, 64, 60
2, 153640, Note_off_c, 0, 45, 62
2, 153644, Note_on_c, 0, 43, 87
2, 153655, Note_off_c, 0, 55, 56
2, 153658, Note_on_c, 0, 60, 66
2, 153711, Note_off_c, 0, 43, 61
2, 153713, Note_on_c, 0, 45, 85
2, 153742, Note_off_c, 0, 60, 56
2, 153745, Note_on_c, 0, 64, 80
2, 153778, Note_off_c, 0, 45, 61
2, 153780, Note_on_c, 0, 43, 84
2, 153847, Note_off_c, 0, 43, 61
2, 153850, Note_on_c, 0, 55, 64
2, 153852, Note_on_c, 0, 45, 82
2, 153855, Note_off_c, 0, 64, 60
2, 153915, Note_off_c, 0, 45, 60
2, 153917, Note_on_c, 0, 43, 81
2, 153931, Note_off_c, 0, 55, 56
2, 153939, Note_on_c, 0, 59, 63
2, 153984, Note_off_c, 0, 43, 60
2, 153987, Note_on_c, 0, 45, 79
2, 154018, Note_off_c, 0, 59, 55
2, 154020, Note_on_c, 0, 62, 76
2, 154054, Note_off_c, 0, 45, 60
2, 154056, Note_on_c, 0, 43, 77
2, 154116, Note_off_c, 0, 62, 59
2, 154120, Note_off_c, 0, 43, 59
2, 154123, Note_on_c, 0, 45, 76
2, 154125, Note_on_c, 0, 55, 60
2, 154193, Note_off_c, 0, 45, 59
2, 154195, Note_on_c, 0, 43, 74
2, 154205, Note_off_c, 0, 55, 55
2, 154207, Note_on_c, 0, 59, 60
2, 154258, Note_off_c, 0, 43, 59
2, 154293, Note_on_c, 0, 42, 76
2, 154298, Note_off_c, 0, 59, 55
2, 154330, Note_on_c, 0, 62, 73
2, 154358, Note_off_c, 0, 42, 59
2, 154388, Note_on_c, 0, 43, 77
2, 154426, Note_off_c, 0, 62, 58
2, 154452, Note_off_c, 0, 43, 59
2, 154486, Note_on_c, 0, 36, 77
2, 154493, Note_on_c, 0, 48, 56
2, 154556, Note_on_c, 0, 52, 56
2, 154558, Note_off_c, 0, 48, 54
2, 154619, Note_on_c, 0, 55, 57
2, 154628, Note_off_c, 0, 52, 54
2, 154677, Note_off_c, 0, 55, 54
2, 154689, Note_on_c, 0, 60, 56
2, 154754, Note_off_c, 0, 60, 54
2, 154768, Note_on_c, 0, 48, 58
2, 154830, Note_off_c, 0, 48, 54
2, 154832, Note_on_c, 0, 52, 58
2, 154894, Note_on_c, 0, 55, 60
2, 154901, Note_off_c, 0, 52, 54
2, 154955, Note_off_c, 0, 55, 55
2, 154971, Note_on_c, 0, 60, 60
2, 155033, Note_off_c, 0, 36, 59
2, 155035, Note_off_c, 0, 60, 55
2, 155038, Note_on_c, 0, 78, 71
2, 155040, Note_on_c, 0, 48, 61
2, 155117, Note_on_c, 0, 51, 62
2, 155126, Note_off_c, 0, 48, 55
2, 155171, Note_off_c, 0, 78, 58
2, 155210, Note_off_c, 0, 51, 55
2, 155213, Note_on_c, 0, 55, 63
2, 155308, Note_off_c, 0, 55, 55
2, 155310, Note_on_c, 0, 78, 92
2, 155312, Note_on_c, 0, 48, 64
2, 155399, Note_off_c, 0, 48, 56
2, 155402, Note_on_c, 0, 51, 66
2, 155445, Note_off_c, 0, 78, 62
2, 155475, Note_on_c, 0, 55, 67
2, 155482, Note_off_c, 0, 51, 56
2, 155573, Note_off_c, 0, 55, 57
2, 155583, Note_on_c, 0, 78, 93
2, 155590, Note_on_c, 0, 43, 69
2, 155650, Note_off_c, 0, 78, 63
2, 155654, Note_off_c, 0, 43, 57
2, 155656, Note_on_c, 0, 79, 93
2, 155658, Note_on_c, 0, 48, 68
2, 155717, Note_off_c, 0, 79, 63
2, 155720, Note_on_c, 0, 81, 92
2, 155726, Note_off_c, 0, 48, 57
2, 155728, Note_on_c, 0, 50, 68
2, 155786, Note_on_c, 0, 55, 68
2, 155788, Note_off_c, 0, 81, 62
2, 155792, Note_on_c, 0, 79, 90
2, 155793, Note_off_c, 0, 50, 57
2, 155854, Note_off_c, 0, 55, 57
2, 155858, Note_off_c, 0, 79, 62
2, 155860, Note_on_c, 0, 43, 67
2, 155862, Note_on_c, 0, 81, 88
2, 155920, Note_off_c, 0, 43, 57
2, 155924, Note_off_c, 0, 81, 62
2, 155926, Note_on_c, 0, 79, 86
2, 155930, Note_on_c, 0, 48, 66
2, 155990, Note_off_c, 0, 48, 56
2, 155993, Note_on_c, 0, 50, 64
2, 155995, Note_off_c, 0, 79, 61
2, 155996, Note_on_c, 0, 81, 84
2, 156058, Note_off_c, 0, 50, 56
2, 156061, Note_off_c, 0, 81, 61
2, 156065, Note_on_c, 0, 79, 82
2, 156068, Note_on_c, 0, 55, 64
2, 156130, Note_off_c, 0, 55, 56
2, 156132, Note_off_c, 0, 79, 60
2, 156134, Note_on_c, 0, 43, 62
2, 156137, Note_on_c, 0, 81, 81
2, 156194, Note_on_c, 0, 47, 61
2, 156200, Note_off_c, 0, 81, 60
2, 156202, Note_on_c, 0, 79, 79
2, 156204, Note_off_c, 0, 43, 55
2, 156265, Note_off_c, 0, 47, 55
2, 156268, Note_off_c, 0, 79, 60
2, 156271, Note_on_c, 0, 81, 77
2, 156272, Note_on_c, 0, 50, 61
2, 156338, Note_off_c, 0, 81, 59
2, 156340, Note_off_c, 0, 50, 55
2, 156343, Note_on_c, 0, 55, 60
2, 156344, Note_on_c, 0, 79, 75
2, 156404, Note_off_c, 0, 79, 59
2, 156406, Note_on_c, 0, 43, 58
2, 156408, Note_on_c, 0, 81, 73
2, 156411, Note_off_c, 0, 55, 55
2, 156466, Note_off_c, 0, 43, 54
2, 156473, Note_off_c, 0, 81, 58
2, 156475, Note_on_c, 0, 79, 71
2, 156482, Note_on_c, 0, 47, 58
2, 156542, Note_off_c, 0, 79, 58
2, 156544, Note_off_c, 0, 47, 54
2, 156573, Note_on_c, 0, 78, 73
2, 156575, Note_on_c, 0, 50, 57
2, 156640, Note_off_c, 0, 78, 58
2, 156647, Note_off_c, 0, 50, 54
2, 156668, Note_on_c, 0, 55, 56
2, 156673, Note_on_c, 0, 79, 76
2, 156734, Note_off_c, 0, 55, 54
2, 156739, Note_off_c, 0, 79, 59
2, 156772, Note_on_c, 0, 84, 92
2, 156775, Control_c, 0, 64, 127
2, 156777, Note_on_c, 0, 48, 80
2, 156784, Note_on_c, 0, 72, 83
2, 157043, Note_off_c, 0, 48, 60
2, 157050, Note_off_c, 0, 84, 62
2, 157070, Note_off_c, 0, 72, 60
2, 157164, Control_c, 0, 64, 0
2, 157324, Note_on_c, 0, 79, 85
2, 157334, Note_on_c, 0, 67, 78
2, 157336, Note_on_c, 0, 43, 72
2, 157338, Note_on_c, 0, 55, 73
2, 157348, Control_c, 0, 64, 127
2, 157579, Note_off_c, 0, 67, 59
2, 157596, Note_off_c, 0, 55, 58
2, 157624, Note_off_c, 0, 79, 61
2, 157626, Note_off_c, 0, 43, 58
2, 157738, Control_c, 0, 64, 0
2, 157953, Control_c, 0, 64, 127
2, 157961, Note_on_c, 0, 36, 81
2, 157963, Note_on_c, 0, 72, 93
2, 157964, Note_on_c, 0, 48, 80
2, 157979, Note_on_c, 0, 60, 84
2, 158548, Note_off_c, 0, 48, 60
2, 158563, Note_off_c, 0, 60, 61
2, 158603, Note_off_c, 0, 36, 60
2, 158606, Note_off_c, 0, 72, 63
2, 158894, Control_c, 0, 64, 0
2, 159437, Note_on_c, 0, 81, 57
2, 159445, Note_on_c, 0, 69, 51
2, 159448, Note_on_c, 0, 45, 45
2, 159450, Note_on_c, 0, 57, 39
2, 159754, Note_off_c, 0, 45, 51
2, 159756, Note_off_c, 0, 57, 49
2, 159758, Note_off_c, 0, 81, 54
2, 159758, Note_off_c, 0, 69, 52
2, 160070, Note_on_c, 0, 76, 45
2, 160074, Note_on_c, 0, 64, 39
2, 160079, Note_on_c, 0, 40, 33
2, 160081, Note_on_c, 0, 52, 27
2, 160488, Note_off_c, 0, 40, 48
2, 160490, Note_off_c, 0, 52, 46
2, 160491, Note_off_c, 0, 76, 51
2, 160491, Note_off_c, 0, 64, 49
2, 160893, Note_on_c, 0, 69, 39
2, 160900, Control_c, 0, 64, 127
2, 160902, Note_on_c, 0, 57, 21
2, 160904, Note_on_c, 0, 33, 20
2, 160906, Note_on_c, 0, 45, 22
2, 161380, Note_off_c, 0, 45, 45
2, 161382, Note_off_c, 0, 57, 45
2, 161384, Note_off_c, 0, 33, 45
2, 161391, Note_off_c, 0, 69, 49
2, 162002, Control_c, 0, 64, 0
2, 162818, Note_on_c, 0, 62, 57
2, 162902, Note_on_c, 0, 74, 36
2, 162987, Note_on_c, 0, 76, 39
2, 163005, Note_off_c, 0, 74, 49
2, 163096, Note_off_c, 0, 62, 54
2, 163098, Note_on_c, 0, 77, 43
2, 163111, Note_off_c, 0, 76, 49
2, 163187, Note_on_c, 0, 76, 46
2, 163216, Note_off_c, 0, 77, 50
2, 163281, Note_on_c, 0, 74, 50
2, 163306, Note_off_c, 0, 76, 51
2, 163345, Note_off_c, 0, 74, 52
2, 163384, Note_on_c, 0, 57, 51
2, 163477, Note_on_c, 0, 81, 57
2, 163573, Note_on_c, 0, 83, 57
2, 163588, Note_off_c, 0, 81, 54
2, 163681, Note_off_c, 0, 57, 52
2, 163683, Note_on_c, 0, 85, 57
2, 163696, Note_off_c, 0, 83, 54
2, 163778, Note_on_c, 0, 83, 51
2, 163798, Note_off_c, 0, 85, 54
2, 163873, Note_on_c, 0, 81, 45
2, 163892, Note_off_c, 0, 83, 52
2, 163948, Note_off_c, 0, 81, 51
2, 163998, Note_on_c, 0, 50, 39
2, 164160, Note_on_c, 0, 86, 45
2, 164330, Note_off_c, 0, 50, 49
2, 164331, Note_on_c, 0, 85, 51
2, 164384, Note_off_c, 0, 86, 51
2, 164482, Note_on_c, 0, 86, 57
2, 164512, Note_off_c, 0, 85, 52
2, 164636, Note_on_c, 0, 88, 55
2, 164676, Note_off_c, 0, 86, 54
2, 164817, Note_on_c, 0, 86, 53
2, 164853, Note_off_c, 0, 88, 53
2, 164974, Note_on_c, 0, 89, 51
2, 165018, Note_off_c, 0, 86, 53
2, 165159, Note_on_c, 0, 86, 45
2, 165227, Note_off_c, 0, 89, 52
2, 165287, Note_off_c, 0, 86, 51
2, 165325, Note_on_c, 0, 57, 57
2, 165414, Note_on_c, 0, 85, 54
2, 165517, Note_on_c, 0, 86, 60
2, 165538, Note_off_c, 0, 85, 53
2, 165607, Note_off_c, 0, 57, 54
2, 165608, Note_on_c, 0, 88, 60
2, 165621, Note_off_c, 0, 86, 55
2, 165692, Note_on_c, 0, 86, 60
2, 165709, Note_off_c, 0, 88, 55
2, 165796, Note_on_c, 0, 85, 59
2, 165817, Note_off_c, 0, 86, 55
2, 165867, Note_off_c, 0, 85, 54
2, 165889, Note_on_c, 0, 52, 51
2, 165973, Note_on_c, 0, 85, 55
2, 166081, Note_on_c, 0, 86, 54
2, 166095, Note_off_c, 0, 85, 53
2, 166170, Note_off_c, 0, 52, 52
2, 166172, Note_on_c, 0, 88, 76
2, 166188, Note_off_c, 0, 86, 53
2, 166261, Note_on_c, 0, 86, 54
2, 166276, Note_off_c, 0, 88, 59
2, 166369, Note_on_c, 0, 85, 52
2, 166386, Note_off_c, 0, 86, 53
2, 166436, Note_off_c, 0, 85, 53
2, 166508, Note_on_c, 0, 45, 39
2, 166642, Note_on_c, 0, 85, 64
2, 166730, Note_off_c, 0, 85, 56
2, 166731, Note_on_c, 0, 86, 60
2, 166803, Note_on_c, 0, 85, 64
2, 166816, Note_off_c, 0, 86, 55
2, 166873, Note_on_c, 0, 83, 68
2, 166890, Note_off_c, 0, 85, 56
2, 166967, Note_on_c, 0, 85, 72
2, 166988, Note_off_c, 0, 83, 57
2, 167027, Note_off_c, 0, 45, 49
2, 167029, Note_on_c, 0, 88, 69
2, 167043, Note_off_c, 0, 85, 58
2, 167266, Note_on_c, 0, 86, 69
2, 167285, Note_off_c, 0, 88, 57
2, 167453, Note_on_c, 0, 85, 63
2, 167473, Note_off_c, 0, 86, 57
2, 167657, Note_on_c, 0, 82, 57
2, 167674, Note_off_c, 0, 85, 55
2, 167841, Note_on_c, 0, 81, 51
2, 167865, Note_off_c, 0, 82, 54
2, 168032, Note_on_c, 0, 79, 45
2, 168042, Note_off_c, 0, 81, 52
2, 168176, Note_off_c, 0, 79, 51
2, 168215, Control_c, 0, 64, 127
2, 168231, Note_on_c, 0, 86, 87
2, 168237, Note_on_c, 0, 77, 75
2, 168239, Note_on_c, 0, 74, 80
2, 168241, Note_on_c, 0, 81, 67
2, 168317, Note_on_c, 0, 38, 69
2, 168403, Note_on_c, 0, 40, 69
2, 168421, Note_off_c, 0, 38, 57
2, 168474, Note_off_c, 0, 74, 60
2, 168475, Note_off_c, 0, 77, 59
2, 168477, Note_off_c, 0, 81, 57
2, 168519, Note_on_c, 0, 41, 73
2, 168520, Note_off_c, 0, 86, 61
2, 168528, Note_off_c, 0, 40, 57
2, 168599, Note_on_c, 0, 40, 77
2, 168605, Control_c, 0, 64, 0
2, 168618, Note_off_c, 0, 41, 58
2, 168687, Note_on_c, 0, 38, 81
2, 168701, Note_off_c, 0, 40, 59
2, 168759, Note_off_c, 0, 38, 60
2, 168789, Note_on_c, 0, 81, 78
2, 168795, Note_on_c, 0, 73, 66
2, 168797, Note_on_c, 0, 69, 73
2, 168799, Note_on_c, 0, 76, 58
2, 168809, Control_c, 0, 64, 127
2, 168881, Note_on_c, 0, 45, 69
2, 168970, Note_on_c, 0, 47, 69
2, 168984, Note_off_c, 0, 45, 57
2, 169039, Note_off_c, 0, 69, 58
2, 169066, Note_off_c, 0, 76, 54
2, 169073, Note_off_c, 0, 73, 56
2, 169080, Note_on_c, 0, 49, 69
2, 169099, Note_off_c, 0, 47, 57
2, 169102, Note_off_c, 0, 81, 59
2, 169167, Note_on_c, 0, 47, 69
2, 169184, Note_off_c, 0, 49, 57
2, 169213, Control_c, 0, 64, 0
2, 169258, Note_on_c, 0, 45, 69
2, 169276, Note_off_c, 0, 47, 57
2, 169332, Note_off_c, 0, 45, 57
2, 169384, Note_on_c, 0, 74, 72
2, 169397, Control_c, 0, 64, 127
2, 169399, Note_on_c, 0, 65, 60
2, 169401, Note_on_c, 0, 62, 63
2, 169401, Note_on_c, 0, 69, 52
2, 169473, Note_on_c, 0, 50, 73
2, 169570, Note_on_c, 0, 52, 77
2, 169588, Note_off_c, 0, 50, 58
2, 169641, Note_off_c, 0, 65, 55
2, 169663, Note_off_c, 0, 69, 53
2, 169670, Note_off_c, 0, 62, 55
2, 169685, Note_on_c, 0, 53, 81
2, 169699, Note_off_c, 0, 74, 58
2, 169704, Note_off_c, 0, 52, 59
2, 169774, Note_on_c, 0, 52, 81
2, 169790, Note_off_c, 0, 53, 60
2, 169816, Control_c, 0, 64, 0
2, 169869, Note_on_c, 0, 50, 79
2, 169882, Note_off_c, 0, 52, 60
2, 169946, Note_off_c, 0, 50, 60
2, 169986, Note_on_c, 0, 57, 77
2, 170153, Note_on_c, 0, 53, 73
2, 170168, Note_off_c, 0, 57, 59
2, 170336, Note_on_c, 0, 52, 69
2, 170360, Note_off_c, 0, 53, 58
2, 170501, Note_on_c, 0, 50, 69
2, 170525, Note_off_c, 0, 52, 57
2, 170628, Note_off_c, 0, 50, 57
2, 170672, Note_on_c, 0, 81, 87
2, 170681, Note_on_c, 0, 69, 81
2, 170683, Note_on_c, 0, 76, 67
2, 170685, Note_on_c, 0, 73, 75
2, 170687, Control_c, 0, 64, 127
2, 170770, Note_on_c, 0, 45, 73
2, 170856, Note_on_c, 0, 47, 77
2, 170869, Note_off_c, 0, 45, 58
2, 170909, Note_off_c, 0, 73, 59
2, 170933, Note_off_c, 0, 76, 57
2, 170940, Note_off_c, 0, 69, 60
2, 170947, Note_on_c, 0, 49, 81
2, 170949, Note_off_c, 0, 81, 61
2, 170961, Note_off_c, 0, 47, 59
2, 171048, Note_on_c, 0, 47, 81
2, 171064, Note_off_c, 0, 49, 60
2, 171079, Control_c, 0, 64, 0
2, 171137, Note_on_c, 0, 45, 75
2, 171154, Note_off_c, 0, 47, 60
2, 171204, Note_off_c, 0, 45, 59
2, 171223, Note_on_c, 0, 76, 81
2, 171234, Note_on_c, 0, 71, 61
2, 171238, Control_c, 0, 64, 127
2, 171240, Note_on_c, 0, 68, 69
2, 171242, Note_on_c, 0, 64, 76
2, 171329, Note_on_c, 0, 52, 69
2, 171419, Note_on_c, 0, 54, 69
2, 171432, Note_off_c, 0, 52, 57
2, 171461, Note_off_c, 0, 71, 55
2, 171480, Note_off_c, 0, 68, 57
2, 171499, Note_off_c, 0, 76, 60
2, 171501, Note_off_c, 0, 64, 59
2, 171513, Note_on_c, 0, 56, 69
2, 171525, Note_off_c, 0, 54, 57
2, 171617, Note_on_c, 0, 54, 69
2, 171636, Note_off_c, 0, 56, 57
2, 171642, Control_c, 0, 64, 0
2, 171711, Note_on_c, 0, 52, 69
2, 171723, Note_off_c, 0, 54, 57
2, 171782, Note_off_c, 0, 52, 57
2, 171823, Note_on_c, 0, 69, 81
2, 171830, Note_on_c, 0, 64, 61
2, 171835, Note_on_c, 0, 61, 74
2, 171843, Control_c, 0, 64, 127
2, 172003, Note_on_c, 0, 56, 73
2, 172098, Note_off_c, 0, 61, 59
2, 172114, Note_off_c, 0, 64, 55
2, 172171, Note_on_c, 0, 57, 77
2, 172172, Note_off_c, 0, 69, 60
2, 172183, Note_off_c, 0, 56, 58
2, 172225, Control_c, 0, 64, 0
2, 172349, Note_on_c, 0, 58, 81
2, 172369, Note_off_c, 0, 57, 59
2, 172508, Note_on_c, 0, 57, 81
2, 172526, Note_off_c, 0, 58, 60
2, 172675, Note_on_c, 0, 55, 77
2, 172688, Note_off_c, 0, 57, 60
2, 172858, Note_on_c, 0, 53, 73
2, 172877, Note_off_c, 0, 55, 59
2, 173029, Note_on_c, 0, 52, 69
2, 173043, Note_off_c, 0, 53, 58
2, 173170, Note_off_c, 0, 52, 57
2, 173209, Note_on_c, 0, 38, 89
2, 173260, Note_off_c, 0, 38, 62
2, 173296, Note_on_c, 0, 65, 45
2, 173385, Note_off_c, 0, 65, 51
2, 173388, Note_on_c, 0, 77, 45
2, 173489, Note_off_c, 0, 77, 51
2, 173491, Note_on_c, 0, 57, 33
2, 173493, Note_on_c, 0, 53, 30
2, 173496, Note_on_c, 0, 50, 28
2, 173577, Note_on_c, 0, 68, 48
2, 173608, Note_off_c, 0, 53, 47
2, 173612, Note_off_c, 0, 50, 47
2, 173622, Note_off_c, 0, 57, 48
2, 173667, Note_off_c, 0, 68, 52
2, 173669, Note_on_c, 0, 80, 49
2, 173758, Note_off_c, 0, 80, 52
2, 173774, Note_on_c, 0, 53, 35
2, 173776, Note_on_c, 0, 57, 39
2, 173780, Note_on_c, 0, 50, 34
2, 173866, Note_on_c, 0, 69, 52
2, 173892, Note_off_c, 0, 53, 48
2, 173901, Note_off_c, 0, 50, 48
2, 173915, Note_off_c, 0, 57, 49
2, 173978, Note_off_c, 0, 69, 53
2, 173981, Note_on_c, 0, 81, 54
2, 174053, Note_off_c, 0, 81, 53
2, 174067, Note_on_c, 0, 53, 44
2, 174071, Note_on_c, 0, 50, 43
2, 174074, Note_on_c, 0, 57, 48
2, 174185, Note_on_c, 0, 62, 57
2, 174204, Note_off_c, 0, 50, 50
2, 174228, Note_off_c, 0, 53, 51
2, 174234, Note_off_c, 0, 57, 52
2, 174305, Note_off_c, 0, 62, 54
2, 174307, Note_on_c, 0, 74, 57
2, 174396, Note_off_c, 0, 74, 54
2, 174398, Note_on_c, 0, 40, 65
2, 174443, Note_off_c, 0, 40, 56
2, 174500, Note_on_c, 0, 62, 45
2, 174588, Note_off_c, 0, 62, 51
2, 174589, Note_on_c, 0, 74, 45
2, 174672, Note_on_c, 0, 52, 29
2, 174674, Note_off_c, 0, 74, 51
2, 174677, Note_on_c, 0, 57, 33
2, 174679, Note_on_c, 0, 55, 31
2, 174780, Note_on_c, 0, 61, 48
2, 174809, Note_off_c, 0, 57, 48
2, 174811, Note_off_c, 0, 55, 47
2, 174817, Note_off_c, 0, 52, 47
2, 174871, Note_off_c, 0, 61, 52
2, 174873, Note_on_c, 0, 73, 49
2, 174943, Note_off_c, 0, 73, 52
2, 174958, Note_on_c, 0, 55, 34
2, 174960, Note_on_c, 0, 52, 31
2, 174962, Note_on_c, 0, 57, 36
2, 175070, Note_on_c, 0, 61, 52
2, 175084, Note_off_c, 0, 52, 47
2, 175086, Note_off_c, 0, 57, 49
2, 175099, Note_off_c, 0, 55, 48
2, 175163, Note_off_c, 0, 61, 53
2, 175165, Note_on_c, 0, 73, 54
2, 175259, Note_off_c, 0, 73, 53
2, 175272, Note_on_c, 0, 52, 41
2, 175281, Note_on_c, 0, 55, 44
2, 175283, Note_on_c, 0, 57, 46
2, 175392, Note_on_c, 0, 64, 57
2, 175434, Note_off_c, 0, 52, 50
2, 175457, Note_off_c, 0, 57, 51
2, 175468, Note_off_c, 0, 55, 51
2, 175485, Note_off_c, 0, 64, 54
2, 175490, Note_on_c, 0, 76, 57
2, 175598, Note_off_c, 0, 76, 54
2, 175600, Note_on_c, 0, 41, 65
2, 175649, Note_off_c, 0, 41, 56
2, 175687, Note_on_c, 0, 64, 45
2, 175792, Note_off_c, 0, 64, 51
2, 175793, Note_on_c, 0, 76, 45
2, 175874, Note_on_c, 0, 57, 33
2, 175876, Note_on_c, 0, 53, 30
2, 175878, Note_off_c, 0, 76, 51
2, 175967, Note_on_c, 0, 62, 48
2, 176001, Note_off_c, 0, 53, 47
2, 176013, Note_off_c, 0, 57, 48
2, 176073, Note_off_c, 0, 62, 52
2, 176075, Note_on_c, 0, 74, 49
2, 176146, Note_off_c, 0, 74, 52
2, 176160, Note_on_c, 0, 57, 36
2, 176162, Note_on_c, 0, 53, 33
2, 176255, Note_on_c, 0, 62, 52
2, 176280, Note_off_c, 0, 57, 49
2, 176318, Note_off_c, 0, 53, 48
2, 176366, Note_off_c, 0, 62, 53
2, 176368, Note_on_c, 0, 74, 54
2, 176463, Note_off_c, 0, 74, 53
2, 176471, Note_on_c, 0, 57, 46
2, 176479, Note_on_c, 0, 53, 44
2, 176575, Note_on_c, 0, 65, 57
2, 176624, Note_off_c, 0, 53, 51
2, 176626, Note_off_c, 0, 57, 51
2, 176692, Note_off_c, 0, 65, 54
2, 176694, Note_on_c, 0, 77, 57
2, 176784, Note_off_c, 0, 77, 54
2, 176786, Note_on_c, 0, 37, 65
2, 176831, Note_off_c, 0, 37, 56
2, 176889, Note_on_c, 0, 65, 45
2, 176974, Note_off_c, 0, 65, 51
2, 176976, Note_on_c, 0, 77, 45
2, 177063, Note_off_c, 0, 77, 51
2, 177064, Note_on_c, 0, 57, 33
2, 177066, Note_on_c, 0, 49, 31
2, 177167, Note_on_c, 0, 64, 48
2, 177174, Note_off_c, 0, 49, 47
2, 177210, Note_off_c, 0, 57, 48
2, 177255, Note_off_c, 0, 64, 52
2, 177258, Note_on_c, 0, 76, 49
2, 177331, Note_off_c, 0, 76, 52
2, 177346, Note_on_c, 0, 49, 32
2, 177349, Note_on_c, 0, 57, 34
2, 177460, Note_on_c, 0, 64, 52
2, 177482, Note_off_c, 0, 57, 48
2, 177503, Note_off_c, 0, 49, 48
2, 177573, Note_off_c, 0, 64, 53
2, 177575, Note_on_c, 0, 76, 54
2, 177642, Note_off_c, 0, 76, 53
2, 177666, Note_on_c, 0, 49, 35
2, 177668, Note_on_c, 0, 57, 37
2, 177778, Note_on_c, 0, 67, 57
2, 177800, Note_off_c, 0, 49, 48
2, 177812, Note_off_c, 0, 57, 49
2, 177876, Note_off_c, 0, 67, 54
2, 177878, Note_on_c, 0, 79, 57
2, 177988, Note_off_c, 0, 79, 54
2, 177993, Note_on_c, 0, 50, 40
2, 178074, Note_on_c, 0, 67, 57
2, 178129, Note_off_c, 0, 50, 50
2, 178178, Note_off_c, 0, 67, 54
2, 178180, Note_on_c, 0, 79, 58
2, 178265, Note_off_c, 0, 79, 54
2, 178266, Note_on_c, 0, 62, 42
2, 178354, Note_on_c, 0, 65, 59
2, 178403, Note_off_c, 0, 62, 50
2, 178456, Note_off_c, 0, 65, 54
2, 178458, Note_on_c, 0, 77, 59
2, 178543, Note_off_c, 0, 77, 54
2, 178545, Note_on_c, 0, 48, 45
2, 178648, Note_on_c, 0, 67, 60
2, 178684, Note_off_c, 0, 48, 51
2, 178739, Note_off_c, 0, 67, 55
2, 178741, Note_on_c, 0, 79, 61
2, 178848, Note_off_c, 0, 79, 55
2, 178850, Note_on_c, 0, 60, 48
2, 178955, Note_on_c, 0, 66, 62
2, 178991, Note_off_c, 0, 60, 52
2, 179045, Note_off_c, 0, 66, 55
2, 179046, Note_on_c, 0, 78, 63
2, 179151, Note_off_c, 0, 78, 55
2, 179153, Note_on_c, 0, 46, 50
2, 179248, Note_on_c, 0, 69, 64
2, 179299, Note_off_c, 0, 46, 52
2, 179335, Note_off_c, 0, 69, 56
2, 179337, Note_on_c, 0, 81, 64
2, 179447, Note_off_c, 0, 81, 56
2, 179450, Note_on_c, 0, 58, 53
2, 179540, Note_on_c, 0, 67, 65
2, 179596, Note_off_c, 0, 58, 53
2, 179635, Note_off_c, 0, 67, 56
2, 179637, Note_on_c, 0, 79, 66
2, 179750, Note_off_c, 0, 79, 56
2, 179752, Note_on_c, 0, 42, 56
2, 179843, Note_on_c, 0, 70, 67
2, 179903, Note_off_c, 0, 42, 54
2, 179956, Note_off_c, 0, 70, 57
2, 179959, Note_on_c, 0, 82, 67
2, 180074, Note_off_c, 0, 82, 57
2, 180076, Note_on_c, 0, 54, 57
2, 180167, Note_on_c, 0, 69, 69
2, 180228, Note_off_c, 0, 54, 54
2, 180289, Note_off_c, 0, 69, 57
2, 180291, Note_on_c, 0, 81, 69
2, 180379, Note_off_c, 0, 81, 57
2, 180384, Note_on_c, 0, 43, 89
2, 180443, Note_off_c, 0, 43, 62
2, 180484, Note_on_c, 0, 72, 45
2, 180571, Note_off_c, 0, 72, 51
2, 180573, Note_on_c, 0, 84, 48
2, 180654, Note_on_c, 0, 55, 29
2, 180656, Note_off_c, 0, 84, 52
2, 180658, Note_on_c, 0, 58, 31
2, 180660, Note_on_c, 0, 62, 32
2, 180764, Note_on_c, 0, 70, 55
2, 180767, Note_off_c, 0, 62, 48
2, 180768, Note_off_c, 0, 55, 47
2, 180798, Note_off_c, 0, 58, 47
2, 180854, Note_off_c, 0, 70, 53
2, 180855, Note_on_c, 0, 82, 55
2, 180927, Note_off_c, 0, 82, 53
2, 180950, Note_on_c, 0, 58, 33
2, 180952, Note_on_c, 0, 55, 30
2, 180953, Note_on_c, 0, 62, 35
2, 181053, Note_on_c, 0, 74, 55
2, 181064, Note_off_c, 0, 62, 48
2, 181077, Note_off_c, 0, 55, 47
2, 181086, Note_off_c, 0, 58, 48
2, 181165, Note_off_c, 0, 74, 53
2, 181168, Note_on_c, 0, 86, 55
2, 181242, Note_off_c, 0, 86, 53
2, 181256, Note_on_c, 0, 58, 44
2, 181262, Note_on_c, 0, 62, 46
2, 181266, Note_on_c, 0, 55, 41
2, 181372, Note_on_c, 0, 67, 57
2, 181389, Note_off_c, 0, 58, 51
2, 181391, Note_off_c, 0, 62, 51
2, 181399, Note_off_c, 0, 55, 50
2, 181471, Note_off_c, 0, 67, 54
2, 181475, Note_on_c, 0, 79, 57
2, 181586, Note_off_c, 0, 79, 54
2, 181587, Note_on_c, 0, 45, 65
2, 181648, Note_off_c, 0, 45, 56
2, 181667, Note_on_c, 0, 67, 45
2, 181775, Note_off_c, 0, 67, 51
2, 181778, Note_on_c, 0, 79, 45
2, 181856, Note_on_c, 0, 60, 30
2, 181861, Note_off_c, 0, 79, 51
2, 181865, Note_on_c, 0, 57, 27
2, 181867, Note_on_c, 0, 62, 32
2, 181948, Note_on_c, 0, 64, 48
2, 181981, Note_off_c, 0, 60, 47
2, 181993, Note_off_c, 0, 62, 48
2, 182001, Note_off_c, 0, 57, 46
2, 182056, Note_off_c, 0, 64, 52
2, 182061, Note_on_c, 0, 76, 49
2, 182130, Note_off_c, 0, 76, 52
2, 182148, Note_on_c, 0, 57, 33
2, 182150, Note_on_c, 0, 62, 39
2, 182153, Note_on_c, 0, 60, 35
2, 182255, Note_on_c, 0, 66, 52
2, 182278, Note_off_c, 0, 60, 48
2, 182299, Note_off_c, 0, 57, 48
2, 182309, Note_off_c, 0, 62, 49
2, 182355, Note_off_c, 0, 66, 53
2, 182357, Note_on_c, 0, 78, 54
2, 182445, Note_off_c, 0, 78, 53
2, 182466, Note_on_c, 0, 57, 42
2, 182468, Note_on_c, 0, 60, 44
2, 182471, Note_on_c, 0, 62, 47
2, 182554, Note_on_c, 0, 69, 57
2, 182612, Note_off_c, 0, 57, 50
2, 182641, Note_off_c, 0, 60, 51
2, 182643, Note_off_c, 0, 62, 51
2, 182674, Note_off_c, 0, 69, 54
2, 182676, Note_on_c, 0, 81, 57
2, 182788, Note_off_c, 0, 81, 54
2, 182790, Note_on_c, 0, 46, 65
2, 182850, Note_off_c, 0, 46, 56
2, 182872, Note_on_c, 0, 69, 45
2, 182959, Note_off_c, 0, 69, 51
2, 182961, Note_on_c, 0, 81, 48
2, 183067, Note_off_c, 0, 81, 52
2, 183069, Note_on_c, 0, 62, 32
2, 183071, Note_on_c, 0, 58, 29
2, 183151, Note_on_c, 0, 66, 55
2, 183183, Note_off_c, 0, 62, 48
2, 183185, Note_off_c, 0, 58, 47
2, 183240, Note_off_c, 0, 66, 53
2, 183243, Note_on_c, 0, 78, 55
2, 183315, Note_off_c, 0, 78, 53
2, 183351, Note_on_c, 0, 58, 36
2, 183353, Note_on_c, 0, 62, 39
2, 183440, Note_on_c, 0, 67, 55
2, 183469, Note_off_c, 0, 58, 49
2, 183512, Note_off_c, 0, 62, 49
2, 183557, Note_off_c, 0, 67, 53
2, 183559, Note_on_c, 0, 79, 55
2, 183630, Note_off_c, 0, 79, 53
2, 183650, Note_on_c, 0, 58, 45
2, 183651, Note_on_c, 0, 62, 48
2, 183764, Note_on_c, 0, 70, 57
2, 183776, Note_off_c, 0, 62, 52
2, 183824, Note_off_c, 0, 58, 51
2, 183877, Note_off_c, 0, 70, 54
2, 183879, Note_on_c, 0, 82, 57
2, 183970, Note_off_c, 0, 82, 54
2, 183973, Note_on_c, 0, 54, 65
2, 184034, Note_off_c, 0, 54, 56
2, 184057, Note_on_c, 0, 70, 45
2, 184160, Note_off_c, 0, 70, 51
2, 184162, Note_on_c, 0, 82, 45
2, 184250, Note_off_c, 0, 82, 51
2, 184251, Note_on_c, 0, 60, 30
2, 184253, Note_on_c, 0, 62, 33
2, 184338, Note_on_c, 0, 68, 48
2, 184379, Note_off_c, 0, 60, 47
2, 184389, Note_off_c, 0, 62, 48
2, 184443, Note_off_c, 0, 68, 52
2, 184445, Note_on_c, 0, 80, 49
2, 184519, Note_off_c, 0, 80, 52
2, 184537, Note_on_c, 0, 62, 39
2, 184539, Note_on_c, 0, 60, 36
2, 184642, Note_on_c, 0, 69, 52
2, 184672, Note_off_c, 0, 62, 49
2, 184686, Note_off_c, 0, 60, 49
2, 184736, Note_off_c, 0, 69, 53
2, 184738, Note_on_c, 0, 81, 54
2, 184834, Note_off_c, 0, 81, 53
2, 184852, Note_on_c, 0, 62, 48
2, 184854, Note_on_c, 0, 60, 45
2, 184967, Note_on_c, 0, 72, 57
2, 185010, Note_off_c, 0, 62, 52
2, 185012, Note_off_c, 0, 60, 51
2, 185062, Note_off_c, 0, 72, 54
2, 185065, Note_on_c, 0, 84, 57
2, 185176, Note_off_c, 0, 84, 54
2, 185177, Note_on_c, 0, 55, 65
2, 185228, Note_off_c, 0, 55, 56
2, 185259, Note_on_c, 0, 72, 58
2, 185346, Note_off_c, 0, 72, 54
2, 185348, Note_on_c, 0, 84, 60
2, 185452, Note_off_c, 0, 84, 55
2, 185454, Note_on_c, 0, 67, 69
2, 185535, Note_on_c, 0, 70, 63
2, 185592, Note_off_c, 0, 67, 57
2, 185623, Note_off_c, 0, 70, 55
2, 185625, Note_on_c, 0, 82, 64
2, 185733, Note_off_c, 0, 82, 56
2, 185735, Note_on_c, 0, 53, 78
2, 185822, Note_on_c, 0, 72, 67
2, 185875, Note_off_c, 0, 53, 59
2, 185928, Note_off_c, 0, 72, 57
2, 185931, Note_on_c, 0, 84, 69
2, 186020, Note_off_c, 0, 84, 57
2, 186022, Note_on_c, 0, 65, 78
2, 186112, Note_on_c, 0, 71, 72
2, 186163, Note_off_c, 0, 65, 59
2, 186220, Note_off_c, 0, 71, 58
2, 186223, Note_on_c, 0, 83, 73
2, 186314, Note_off_c, 0, 83, 58
2, 186317, Note_on_c, 0, 51, 78
2, 186425, Note_on_c, 0, 74, 76
2, 186466, Note_off_c, 0, 51, 59
2, 186518, Note_off_c, 0, 74, 59
2, 186521, Note_on_c, 0, 86, 78
2, 186614, Note_off_c, 0, 86, 59
2, 186618, Note_on_c, 0, 63, 78
2, 186733, Note_on_c, 0, 72, 81
2, 186788, Note_off_c, 0, 63, 59
2, 186825, Note_off_c, 0, 72, 60
2, 186831, Note_on_c, 0, 84, 82
2, 186946, Note_off_c, 0, 84, 60
2, 186948, Note_on_c, 0, 47, 78
2, 187044, Note_on_c, 0, 75, 85
2, 187099, Note_off_c, 0, 47, 59
2, 187162, Note_off_c, 0, 75, 61
2, 187165, Note_on_c, 0, 87, 87
2, 187253, Note_off_c, 0, 87, 61
2, 187255, Note_on_c, 0, 59, 78
2, 187356, Note_on_c, 0, 74, 90
2, 187409, Note_off_c, 0, 59, 59
2, 187457, Note_off_c, 0, 74, 62
2, 187460, Note_on_c, 0, 86, 91
2, 187544, Note_off_c, 0, 86, 62
2, 187545, Note_on_c, 0, 48, 81
2, 187651, Note_on_c, 0, 77, 93
2, 187684, Note_off_c, 0, 48, 60
2, 187734, Note_off_c, 0, 77, 63
2, 187741, Note_on_c, 0, 89, 93
2, 187824, Note_off_c, 0, 89, 63
2, 187825, Note_on_c, 0, 60, 81
2, 187931, Note_on_c, 0, 75, 91
2, 187966, Note_off_c, 0, 60, 60
2, 188021, Note_off_c, 0, 75, 62
2, 188023, Note_on_c, 0, 87, 89
2, 188106, Note_off_c, 0, 87, 62
2, 188110, Note_on_c, 0, 46, 74
2, 188217, Note_on_c, 0, 77, 87
2, 188273, Note_off_c, 0, 46, 59
2, 188324, Note_off_c, 0, 77, 61
2, 188326, Note_on_c, 0, 89, 85
2, 188415, Note_off_c, 0, 89, 61
2, 188417, Note_on_c, 0, 58, 69
2, 188527, Note_on_c, 0, 76, 83
2, 188580, Note_off_c, 0, 58, 57
2, 188615, Note_off_c, 0, 76, 60
2, 188621, Note_on_c, 0, 88, 81
2, 188727, Note_off_c, 0, 88, 60
2, 188730, Note_on_c, 0, 45, 81
2, 188822, Note_on_c, 0, 77, 93
2, 188878, Note_off_c, 0, 45, 60
2, 188933, Note_off_c, 0, 77, 63
2, 188935, Note_on_c, 0, 89, 93
2, 189027, Note_off_c, 0, 89, 63
2, 189029, Note_on_c, 0, 57, 79
2, 189125, Note_on_c, 0, 72, 91
2, 189183, Note_off_c, 0, 57, 60
2, 189236, Note_off_c, 0, 72, 62
2, 189239, Note_on_c, 0, 84, 89
2, 189333, Note_off_c, 0, 84, 62
2, 189335, Note_on_c, 0, 41, 73
2, 189448, Note_on_c, 0, 77, 87
2, 189490, Note_off_c, 0, 41, 58
2, 189544, Note_off_c, 0, 77, 61
2, 189550, Note_on_c, 0, 89, 85
2, 189663, Note_off_c, 0, 89, 61
2, 189664, Note_on_c, 0, 53, 69
2, 189761, Note_on_c, 0, 75, 83
2, 189821, Note_off_c, 0, 53, 57
2, 189881, Note_off_c, 0, 75, 60
2, 189883, Note_on_c, 0, 87, 81
2, 189987, Note_off_c, 0, 87, 60
2, 189989, Note_on_c, 0, 46, 89
2, 190046, Note_off_c, 0, 46, 62
2, 190075, Note_on_c, 0, 75, 45
2, 190162, Note_off_c, 0, 75, 51
2, 190164, Note_on_c, 0, 87, 45
2, 190266, Note_off_c, 0, 87, 51
2, 190267, Note_on_c, 0, 58, 28
2, 190269, Note_on_c, 0, 65, 33
2, 190272, Note_on_c, 0, 62, 30
2, 190352, Note_on_c, 0, 74, 48
2, 190384, Note_off_c, 0, 58, 47
2, 190395, Note_off_c, 0, 62, 47
2, 190400, Note_off_c, 0, 65, 48
2, 190445, Note_off_c, 0, 74, 52
2, 190447, Note_on_c, 0, 86, 49
2, 190514, Note_off_c, 0, 86, 52
2, 190550, Note_on_c, 0, 65, 36
2, 190552, Note_on_c, 0, 62, 33
2, 190555, Note_on_c, 0, 58, 31
2, 190642, Note_on_c, 0, 77, 52
2, 190665, Note_off_c, 0, 65, 49
2, 190676, Note_off_c, 0, 58, 47
2, 190691, Note_off_c, 0, 62, 48
2, 190759, Note_off_c, 0, 77, 53
2, 190762, Note_on_c, 0, 89, 54
2, 190831, Note_off_c, 0, 89, 53
2, 190846, Note_on_c, 0, 65, 46
2, 190848, Note_on_c, 0, 58, 41
2, 190852, Note_on_c, 0, 62, 43
2, 190963, Note_on_c, 0, 70, 57
2, 190985, Note_off_c, 0, 62, 50
2, 191004, Note_off_c, 0, 58, 50
2, 191023, Note_off_c, 0, 65, 51
2, 191083, Note_off_c, 0, 70, 54
2, 191085, Note_on_c, 0, 82, 57
2, 191173, Note_off_c, 0, 82, 54
2, 191175, Note_on_c, 0, 48, 65
2, 191232, Note_off_c, 0, 48, 56
2, 191256, Note_on_c, 0, 70, 45
2, 191363, Note_off_c, 0, 70, 51
2, 191365, Note_on_c, 0, 82, 45
2, 191448, Note_off_c, 0, 82, 51
2, 191451, Note_on_c, 0, 65, 33
2, 191453, Note_on_c, 0, 60, 27
2, 191455, Note_on_c, 0, 63, 30
2, 191540, Note_on_c, 0, 68, 48
2, 191583, Note_off_c, 0, 65, 48
2, 191585, Note_off_c, 0, 63, 47
2, 191595, Note_off_c, 0, 60, 46
2, 191647, Note_off_c, 0, 68, 52
2, 191649, Note_on_c, 0, 80, 49
2, 191716, Note_off_c, 0, 80, 52
2, 191736, Note_on_c, 0, 65, 37
2, 191740, Note_on_c, 0, 63, 33
2, 191742, Note_on_c, 0, 60, 32
2, 191845, Note_on_c, 0, 69, 52
2, 191859, Note_off_c, 0, 65, 49
2, 191884, Note_off_c, 0, 63, 48
2, 191894, Note_off_c, 0, 60, 48
2, 191942, Note_off_c, 0, 69, 53
2, 191944, Note_on_c, 0, 81, 54
2, 192036, Note_off_c, 0, 81, 53
2, 192053, Note_on_c, 0, 63, 41
2, 192055, Note_on_c, 0, 65, 44
2, 192057, Note_on_c, 0, 60, 38
2, 192167, Note_on_c, 0, 72, 57
2, 192178, Note_off_c, 0, 65, 51
2, 192215, Note_off_c, 0, 63, 50
2, 192224, Note_off_c, 0, 60, 49
2, 192264, Note_off_c, 0, 72, 54
2, 192266, Note_on_c, 0, 84, 57
2, 192377, Note_off_c, 0, 84, 54
2, 192382, Note_on_c, 0, 50, 59
2, 192435, Note_off_c, 0, 50, 54
2, 192463, Note_on_c, 0, 72, 57
2, 192552, Note_off_c, 0, 72, 54
2, 192555, Note_on_c, 0, 84, 58
2, 192654, Note_off_c, 0, 84, 54
2, 192658, Note_on_c, 0, 62, 46
2, 192660, Note_on_c, 0, 65, 48
2, 192743, Note_on_c, 0, 69, 57
2, 192765, Note_off_c, 0, 65, 52
2, 192799, Note_off_c, 0, 62, 51
2, 192835, Note_off_c, 0, 69, 54
2, 192837, Note_on_c, 0, 81, 58
2, 192926, Note_off_c, 0, 81, 54
2, 192940, Note_on_c, 0, 65, 51
2, 192947, Note_on_c, 0, 62, 49
2, 193033, Note_on_c, 0, 70, 61
2, 193058, Note_off_c, 0, 65, 52
2, 193060, Note_off_c, 0, 62, 52
2, 193150, Note_off_c, 0, 70, 55
2, 193152, Note_on_c, 0, 82, 63
2, 193224, Note_off_c, 0, 82, 55
2, 193246, Note_on_c, 0, 65, 55
2, 193248, Note_on_c, 0, 62, 50
2, 193336, Note_on_c, 0, 74, 66
2, 193389, Note_off_c, 0, 65, 53
2, 193413, Note_off_c, 0, 62, 52
2, 193451, Note_off_c, 0, 74, 56
2, 193454, Note_on_c, 0, 86, 68
2, 193543, Note_off_c, 0, 86, 57
2, 193548, Note_on_c, 0, 57, 67
2, 193617, Note_off_c, 0, 57, 57
2, 193646, Note_on_c, 0, 74, 72
2, 193733, Note_off_c, 0, 74, 58
2, 193735, Note_on_c, 0, 86, 72
2, 193829, Note_on_c, 0, 65, 62
2, 193842, Note_off_c, 0, 86, 58
2, 193843, Note_on_c, 0, 60, 56
2, 193845, Note_on_c, 0, 63, 59
2, 193944, Note_on_c, 0, 71, 76
2, 193980, Note_off_c, 0, 60, 54
2, 193985, Note_off_c, 0, 65, 55
2, 193991, Note_off_c, 0, 63, 54
2, 194034, Note_off_c, 0, 71, 59
2, 194036, Note_on_c, 0, 83, 79
2, 194128, Note_off_c, 0, 83, 60
2, 194133, Note_on_c, 0, 65, 66
2, 194143, Note_on_c, 0, 63, 63
2, 194145, Note_on_c, 0, 60, 61
2, 194236, Note_on_c, 0, 72, 82
2, 194278, Note_off_c, 0, 60, 55
2, 194300, Note_off_c, 0, 65, 56
2, 194311, Note_off_c, 0, 63, 55
2, 194349, Note_off_c, 0, 72, 60
2, 194351, Note_on_c, 0, 84, 83
2, 194441, Note_off_c, 0, 84, 60
2, 194450, Note_on_c, 0, 65, 71
2, 194464, Note_on_c, 0, 60, 64
2, 194466, Note_on_c, 0, 63, 67
2, 194575, Note_on_c, 0, 75, 88
2, 194585, Note_off_c, 0, 65, 58
2, 194589, Note_off_c, 0, 63, 57
2, 194654, Note_off_c, 0, 60, 56
2, 194673, Note_off_c, 0, 75, 62
2, 194675, Note_on_c, 0, 87, 89
2, 194787, Note_off_c, 0, 87, 62
2, 194788, Note_on_c, 0, 70, 57
2, 194872, Note_on_c, 0, 86, 45
2, 194975, Note_on_c, 0, 87, 51
2, 194987, Note_off_c, 0, 86, 51
2, 195059, Note_off_c, 0, 70, 54
2, 195062, Note_on_c, 0, 89, 51
2, 195074, Note_off_c, 0, 87, 52
2, 195147, Note_on_c, 0, 87, 51
2, 195165, Note_off_c, 0, 89, 52
2, 195253, Note_on_c, 0, 86, 45
2, 195271, Note_off_c, 0, 87, 52
2, 195324, Note_off_c, 0, 86, 51
2, 195338, Note_on_c, 0, 65, 51
2, 195428, Note_on_c, 0, 86, 51
2, 195534, Note_on_c, 0, 87, 57
2, 195548, Note_off_c, 0, 86, 52
2, 195626, Note_off_c, 0, 65, 52
2, 195628, Note_on_c, 0, 89, 57
2, 195640, Note_off_c, 0, 87, 54
2, 195717, Note_on_c, 0, 87, 51
2, 195734, Note_off_c, 0, 89, 54
2, 195825, Note_on_c, 0, 86, 45
2, 195843, Note_off_c, 0, 87, 52
2, 195894, Note_off_c, 0, 86, 51
2, 195920, Note_on_c, 0, 58, 39
2, 196014, Note_on_c, 0, 86, 51
2, 196125, Note_on_c, 0, 87, 57
2, 196135, Note_off_c, 0, 86, 52
2, 196213, Note_off_c, 0, 58, 49
2, 196216, Note_on_c, 0, 89, 57
2, 196235, Note_off_c, 0, 87, 54
2, 196309, Note_on_c, 0, 87, 61
2, 196328, Note_off_c, 0, 89, 54
2, 196423, Note_on_c, 0, 86, 65
2, 196442, Note_off_c, 0, 87, 55
2, 196494, Note_off_c, 0, 86, 56
2, 196516, Note_on_c, 0, 88, 69
2, 196681, Note_on_c, 0, 89, 69
2, 196703, Note_off_c, 0, 88, 57
2, 196869, Note_on_c, 0, 86, 57
2, 196890, Note_off_c, 0, 89, 57
2, 197037, Note_on_c, 0, 82, 45
2, 197052, Note_off_c, 0, 86, 54
2, 197160, Note_off_c, 0, 82, 51
2, 197216, Note_on_c, 0, 65, 57
2, 197303, Note_on_c, 0, 81, 47
2, 197392, Note_on_c, 0, 82, 49
2, 197407, Note_off_c, 0, 81, 51
2, 197493, Note_off_c, 0, 65, 54
2, 197495, Note_on_c, 0, 84, 51
2, 197507, Note_off_c, 0, 82, 52
2, 197578, Note_on_c, 0, 82, 51
2, 197594, Note_off_c, 0, 84, 52
2, 197669, Note_on_c, 0, 81, 45
2, 197685, Note_off_c, 0, 82, 52
2, 197735, Note_off_c, 0, 81, 51
2, 197772, Note_on_c, 0, 60, 51
2, 197856, Note_on_c, 0, 81, 45
2, 197951, Note_on_c, 0, 82, 48
2, 197964, Note_off_c, 0, 81, 51
2, 198057, Note_off_c, 0, 60, 52
2, 198059, Note_on_c, 0, 84, 51
2, 198074, Note_off_c, 0, 82, 52
2, 198146, Note_on_c, 0, 82, 51
2, 198161, Note_off_c, 0, 84, 52
2, 198238, Note_on_c, 0, 81, 45
2, 198252, Note_off_c, 0, 82, 52
2, 198311, Note_off_c, 0, 81, 51
2, 198352, Note_on_c, 0, 53, 39
2, 198445, Note_on_c, 0, 81, 47
2, 198536, Note_on_c, 0, 82, 49
2, 198555, Note_off_c, 0, 81, 51
2, 198649, Note_off_c, 0, 53, 49
2, 198651, Note_on_c, 0, 84, 52
2, 198666, Note_off_c, 0, 82, 52
2, 198746, Note_on_c, 0, 82, 54
2, 198757, Note_off_c, 0, 84, 53
2, 198834, Note_on_c, 0, 81, 57
2, 198853, Note_off_c, 0, 82, 53
2, 198913, Note_off_c, 0, 81, 54
2, 198953, Note_on_c, 0, 87, 57
2, 199116, Note_on_c, 0, 84, 57
2, 199135, Note_off_c, 0, 87, 54
2, 199285, Note_on_c, 0, 81, 51
2, 199298, Note_off_c, 0, 84, 54
2, 199470, Note_on_c, 0, 75, 45
2, 199485, Note_off_c, 0, 81, 52
2, 199595, Note_off_c, 0, 75, 51
2, 199628, Note_on_c, 0, 82, 57
2, 199635, Note_on_c, 0, 77, 37
2, 199638, Note_on_c, 0, 73, 45
2, 199641, Note_on_c, 0, 70, 51
2, 199649, Control_c, 0, 64, 127
2, 199715, Note_on_c, 0, 46, 57
2, 199818, Note_on_c, 0, 48, 57
2, 199838, Note_off_c, 0, 46, 54
2, 199849, Note_off_c, 0, 77, 49
2, 199858, Note_off_c, 0, 73, 51
2, 199867, Note_off_c, 0, 70, 52
2, 199912, Note_on_c, 0, 49, 58
2, 199925, Note_off_c, 0, 48, 54
2, 199928, Note_off_c, 0, 82, 54
2, 199993, Note_on_c, 0, 48, 59
2, 200008, Note_off_c, 0, 49, 54
2, 200040, Control_c, 0, 64, 0
2, 200101, Note_on_c, 0, 46, 60
2, 200108, Note_off_c, 0, 48, 54
2, 200167, Note_off_c, 0, 46, 55
2, 200185, Note_on_c, 0, 77, 65
2, 200193, Note_on_c, 0, 65, 60
2, 200195, Note_on_c, 0, 70, 53
2, 200198, Control_c, 0, 64, 127
2, 200199, Note_on_c, 0, 73, 45
2, 200276, Note_on_c, 0, 46, 63
2, 200383, Note_on_c, 0, 48, 64
2, 200398, Note_off_c, 0, 46, 55
2, 200426, Note_off_c, 0, 70, 53
2, 200429, Note_off_c, 0, 65, 55
2, 200438, Note_off_c, 0, 73, 51
2, 200474, Note_on_c, 0, 49, 65
2, 200488, Note_off_c, 0, 77, 56
2, 200492, Note_off_c, 0, 48, 56
2, 200562, Note_on_c, 0, 48, 66
2, 200575, Note_off_c, 0, 49, 56
2, 200600, Control_c, 0, 64, 0
2, 200670, Note_on_c, 0, 46, 67
2, 200687, Note_off_c, 0, 48, 56
2, 200740, Note_off_c, 0, 46, 57
2, 200778, Note_on_c, 0, 73, 66
2, 200790, Note_on_c, 0, 70, 46
2, 200792, Note_on_c, 0, 61, 62
2, 200795, Control_c, 0, 64, 127
2, 200797, Note_on_c, 0, 65, 54
2, 200870, Note_on_c, 0, 46, 69
2, 200979, Note_on_c, 0, 48, 69
2, 200999, Note_off_c, 0, 46, 57
2, 201026, Note_off_c, 0, 70, 51
2, 201047, Note_off_c, 0, 61, 55
2, 201049, Note_off_c, 0, 65, 53
2, 201076, Note_on_c, 0, 49, 68
2, 201094, Note_off_c, 0, 48, 57
2, 201105, Note_off_c, 0, 73, 56
2, 201170, Note_on_c, 0, 48, 66
2, 201186, Note_off_c, 0, 49, 57
2, 201209, Control_c, 0, 64, 0
2, 201283, Note_on_c, 0, 46, 64
2, 201300, Note_off_c, 0, 48, 56
2, 201358, Note_off_c, 0, 46, 56
2, 201376, Note_on_c, 0, 53, 63
2, 201563, Note_on_c, 0, 49, 60
2, 201582, Note_off_c, 0, 53, 55
2, 201729, Note_on_c, 0, 48, 57
2, 201743, Note_off_c, 0, 49, 55
2, 201895, Note_on_c, 0, 46, 57
2, 201914, Note_off_c, 0, 48, 54
2, 202043, Note_off_c, 0, 46, 54
2, 202073, Note_on_c, 0, 75, 86
2, 202078, Note_on_c, 0, 65, 74
2, 202082, Note_on_c, 0, 63, 80
2, 202085, Note_on_c, 0, 69, 66
2, 202099, Control_c, 0, 64, 127
2, 202166, Note_on_c, 0, 41, 69
2, 202247, Note_on_c, 0, 43, 69
2, 202266, Note_off_c, 0, 41, 57
2, 202295, Note_off_c, 0, 65, 59
2, 202311, Note_off_c, 0, 63, 60
2, 202333, Note_off_c, 0, 69, 56
2, 202353, Note_on_c, 0, 45, 81
2, 202365, Note_off_c, 0, 43, 57
2, 202402, Note_off_c, 0, 75, 61
2, 202437, Note_on_c, 0, 43, 69
2, 202450, Note_off_c, 0, 45, 60
2, 202488, Control_c, 0, 64, 0
2, 202525, Note_on_c, 0, 41, 69
2, 202542, Note_off_c, 0, 43, 57
2, 202596, Note_off_c, 0, 41, 57
2, 202628, Note_on_c, 0, 72, 84
2, 202638, Note_on_c, 0, 69, 64
2, 202640, Note_on_c, 0, 65, 72
2, 202642, Note_on_c, 0, 63, 80
2, 202643, Control_c, 0, 64, 127
2, 202717, Note_on_c, 0, 45, 73
2, 202806, Note_on_c, 0, 46, 77
2, 202828, Note_off_c, 0, 45, 58
2, 202890, Note_off_c, 0, 65, 58
2, 202894, Note_off_c, 0, 69, 56
2, 202917, Note_off_c, 0, 63, 60
2, 202919, Note_on_c, 0, 48, 81
2, 202940, Note_off_c, 0, 46, 59
2, 202952, Note_off_c, 0, 72, 61
2, 203007, Control_c, 0, 64, 0
2, 203009, Note_on_c, 0, 46, 81
2, 203019, Note_off_c, 0, 48, 60
2, 203094, Note_on_c, 0, 45, 75
2, 203108, Note_off_c, 0, 46, 60
2, 203171, Note_off_c, 0, 45, 59
2, 203211, Control_c, 0, 64, 127
2, 203220, Note_on_c, 0, 69, 69
2, 203233, Note_on_c, 0, 60, 62
2, 203235, Note_on_c, 0, 65, 49
2, 203237, Note_on_c, 0, 63, 57
2, 203315, Note_on_c, 0, 48, 69
2, 203410, Note_on_c, 0, 49, 69
2, 203425, Note_off_c, 0, 48, 57
2, 203468, Note_off_c, 0, 60, 55
2, 203479, Note_off_c, 0, 63, 54
2, 203485, Note_off_c, 0, 65, 52
2, 203527, Note_on_c, 0, 51, 81
2, 203543, Note_off_c, 0, 49, 57
2, 203544, Note_off_c, 0, 69, 57
2, 203615, Note_on_c, 0, 49, 81
2, 203626, Control_c, 0, 64, 0
2, 203629, Note_off_c, 0, 51, 60
2, 203708, Note_on_c, 0, 48, 79
2, 203730, Note_off_c, 0, 49, 60
2, 203782, Note_off_c, 0, 48, 60
2, 203823, Note_on_c, 0, 53, 77
2, 203986, Note_on_c, 0, 51, 73
2, 204006, Note_off_c, 0, 53, 59
2, 204171, Note_on_c, 0, 49, 69
2, 204196, Note_off_c, 0, 51, 58
2, 204340, Note_on_c, 0, 48, 69
2, 204362, Note_off_c, 0, 49, 57
2, 204466, Note_off_c, 0, 48, 57
2, 204502, Note_on_c, 0, 58, 69
2, 204603, Note_on_c, 0, 70, 45
2, 204689, Note_on_c, 0, 72, 56
2, 204701, Note_off_c, 0, 70, 51
2, 204775, Note_off_c, 0, 58, 57
2, 204777, Note_on_c, 0, 73, 57
2, 204791, Note_off_c, 0, 72, 54
2, 204884, Note_on_c, 0, 72, 55
2, 204895, Note_off_c, 0, 73, 54
2, 204967, Note_on_c, 0, 70, 45
2, 204985, Note_off_c, 0, 72, 53
2, 205037, Note_off_c, 0, 70, 51
2, 205057, Note_on_c, 0, 53, 57
2, 205162, Note_on_c, 0, 70, 51
2, 205253, Note_on_c, 0, 72, 57
2, 205268, Note_off_c, 0, 70, 52
2, 205340, Note_off_c, 0, 53, 54
2, 205342, Note_on_c, 0, 73, 57
2, 205357, Note_off_c, 0, 72, 54
2, 205447, Note_on_c, 0, 72, 54
2, 205466, Note_off_c, 0, 73, 54
2, 205540, Note_on_c, 0, 70, 45
2, 205558, Note_off_c, 0, 72, 53
2, 205608, Note_off_c, 0, 70, 51
2, 205649, Note_on_c, 0, 46, 39
2, 205755, Note_on_c, 0, 70, 47
2, 205848, Note_on_c, 0, 72, 49
2, 205867, Note_off_c, 0, 70, 51
2, 205946, Note_off_c, 0, 46, 49
2, 205948, Note_on_c, 0, 73, 51
2, 205959, Note_off_c, 0, 72, 52
2, 206060, Note_on_c, 0, 72, 53
2, 206077, Note_off_c, 0, 73, 52
2, 206149, Note_on_c, 0, 70, 55
2, 206168, Note_off_c, 0, 72, 53
2, 206226, Note_off_c, 0, 70, 53
2, 206247, Note_on_c, 0, 82, 57
2, 206429, Note_on_c, 0, 77, 57
2, 206442, Note_off_c, 0, 82, 54
2, 206595, Note_on_c, 0, 85, 51
2, 206615, Note_off_c, 0, 77, 54
2, 206782, Note_on_c, 0, 77, 45
2, 206801, Note_off_c, 0, 85, 52
2, 206905, Note_off_c, 0, 77, 51
2, 206948, Note_on_c, 0, 48, 57
2, 207030, Note_on_c, 0, 76, 48
2, 207133, Note_on_c, 0, 77, 52
2, 207151, Note_off_c, 0, 76, 52
2, 207223, Note_off_c, 0, 48, 54
2, 207225, Note_on_c, 0, 79, 56
2, 207243, Note_off_c, 0, 77, 53
2, 207310, Note_on_c, 0, 77, 56
2, 207322, Note_off_c, 0, 79, 54
2, 207413, Note_on_c, 0, 76, 45
2, 207431, Note_off_c, 0, 77, 54
2, 207482, Note_off_c, 0, 76, 51
2, 207502, Note_on_c, 0, 43, 51
2, 207590, Note_on_c, 0, 76, 45
2, 207694, Note_on_c, 0, 77, 57
2, 207713, Note_off_c, 0, 76, 51
2, 207785, Note_off_c, 0, 43, 52
2, 207787, Note_on_c, 0, 79, 57
2, 207803, Note_off_c, 0, 77, 54
2, 207874, Note_on_c, 0, 77, 57
2, 207889, Note_off_c, 0, 79, 54
2, 207984, Note_on_c, 0, 76, 53
2, 208000, Note_off_c, 0, 77, 54
2, 208051, Note_off_c, 0, 76, 53
2, 208094, Note_on_c, 0, 36, 39
2, 208184, Note_on_c, 0, 76, 45
2, 208294, Note_on_c, 0, 77, 45
2, 208313, Note_off_c, 0, 76, 51
2, 208387, Note_off_c, 0, 36, 49
2, 208392, Note_on_c, 0, 79, 49
2, 208406, Note_off_c, 0, 77, 51
2, 208484, Note_on_c, 0, 77, 53
2, 208498, Note_off_c, 0, 79, 52
2, 208591, Note_on_c, 0, 76, 57
2, 208611, Note_off_c, 0, 77, 53
2, 208668, Note_off_c, 0, 76, 54
2, 208689, Note_on_c, 0, 82, 57
2, 208855, Note_on_c, 0, 79, 57
2, 208874, Note_off_c, 0, 82, 54
2, 209042, Note_on_c, 0, 76, 51
2, 209060, Note_off_c, 0, 79, 54
2, 209204, Note_on_c, 0, 70, 45
2, 209222, Note_off_c, 0, 76, 52
2, 209350, Note_off_c, 0, 70, 51
2, 209388, Note_on_c, 0, 53, 45
2, 209472, Note_on_c, 0, 68, 45
2, 209558, Note_on_c, 0, 70, 47
2, 209575, Note_off_c, 0, 68, 51
2, 209661, Note_off_c, 0, 53, 51
2, 209664, Note_on_c, 0, 72, 49
2, 209679, Note_off_c, 0, 70, 51
2, 209750, Note_on_c, 0, 70, 51
2, 209765, Note_off_c, 0, 72, 52
2, 209836, Note_on_c, 0, 68, 54
2, 209854, Note_off_c, 0, 70, 52
2, 209907, Note_off_c, 0, 68, 53
2, 209940, Note_on_c, 0, 48, 51
2, 210027, Note_on_c, 0, 68, 58
2, 210118, Note_on_c, 0, 70, 60
2, 210137, Note_off_c, 0, 68, 54
2, 210227, Note_off_c, 0, 48, 52
2, 210230, Note_on_c, 0, 72, 63
2, 210243, Note_off_c, 0, 70, 55
2, 210319, Note_on_c, 0, 70, 65
2, 210329, Note_off_c, 0, 72, 55
2, 210406, Note_on_c, 0, 68, 67
2, 210427, Note_off_c, 0, 70, 56
2, 210480, Note_off_c, 0, 68, 57
2, 210521, Note_on_c, 0, 41, 51
2, 210614, Note_on_c, 0, 68, 72
2, 210709, Note_on_c, 0, 70, 74
2, 210725, Note_off_c, 0, 68, 58
2, 210821, Note_off_c, 0, 41, 52
2, 210823, Note_on_c, 0, 72, 76
2, 210835, Note_off_c, 0, 70, 59
2, 210912, Note_on_c, 0, 70, 78
2, 210928, Note_off_c, 0, 72, 59
2, 211007, Note_on_c, 0, 68, 81
2, 211027, Note_off_c, 0, 70, 59
2, 211079, Note_off_c, 0, 68, 60
2, 211126, Note_on_c, 0, 77, 81
2, 211284, Note_on_c, 0, 68, 73
2, 211309, Note_off_c, 0, 77, 60
2, 211455, Note_on_c, 0, 80, 65
2, 211471, Note_off_c, 0, 68, 58
2, 211641, Note_on_c, 0, 68, 57
2, 211664, Note_off_c, 0, 80, 56
2, 211764, Note_off_c, 0, 68, 54
2, 211803, Note_on_c, 0, 49, 69
2, 211907, Note_on_c, 0, 77, 69
2, 211996, Note_on_c, 0, 79, 69
2, 212010, Note_off_c, 0, 77, 57
2, 212078, Note_off_c, 0, 49, 57
2, 212080, Note_on_c, 0, 80, 69
2, 212092, Note_off_c, 0, 79, 57
2, 212183, Note_on_c, 0, 79, 69
2, 212196, Note_off_c, 0, 80, 57
2, 212270, Note_on_c, 0, 77, 69
2, 212282, Note_off_c, 0, 79, 57
2, 212339, Note_off_c, 0, 77, 57
2, 212356, Note_on_c, 0, 44, 69
2, 212462, Note_on_c, 0, 77, 73
2, 212555, Note_on_c, 0, 79, 77
2, 212568, Note_off_c, 0, 77, 58
2, 212640, Note_off_c, 0, 44, 57
2, 212645, Note_on_c, 0, 80, 81
2, 212658, Note_off_c, 0, 79, 59
2, 212748, Note_on_c, 0, 79, 81
2, 212765, Note_off_c, 0, 80, 60
2, 212841, Note_on_c, 0, 77, 75
2, 212860, Note_off_c, 0, 79, 60
2, 212910, Note_off_c, 0, 77, 59
2, 212949, Note_on_c, 0, 37, 59
2, 213059, Note_on_c, 0, 77, 69
2, 213151, Note_on_c, 0, 79, 69
2, 213168, Note_off_c, 0, 77, 57
2, 213245, Note_off_c, 0, 37, 54
2, 213247, Note_on_c, 0, 80, 72
2, 213266, Note_off_c, 0, 79, 57
2, 213357, Note_on_c, 0, 79, 75
2, 213369, Note_off_c, 0, 80, 58
2, 213449, Note_on_c, 0, 77, 78
2, 213469, Note_off_c, 0, 79, 59
2, 213529, Note_off_c, 0, 77, 59
2, 213548, Note_on_c, 0, 36, 57
2, 213550, Note_on_c, 0, 80, 81
2, 213557, Control_c, 0, 64, 127
2, 213730, Note_on_c, 0, 77, 81
2, 213743, Note_off_c, 0, 80, 60
2, 213896, Note_off_c, 0, 36, 54
2, 213898, Note_on_c, 0, 89, 75
2, 213915, Note_off_c, 0, 77, 60
2, 214082, Note_on_c, 0, 77, 69
2, 214106, Note_off_c, 0, 89, 59
2, 214204, Note_off_c, 0, 77, 57
2, 214243, Note_on_c, 0, 35, 81
2, 214252, Control_c, 0, 64, 0
2, 214346, Note_on_c, 0, 77, 81
2, 214431, Note_on_c, 0, 79, 81
2, 214448, Note_off_c, 0, 77, 60
2, 214519, Note_off_c, 0, 35, 60
2, 214525, Note_on_c, 0, 80, 84
2, 214539, Note_off_c, 0, 79, 60
2, 214629, Note_on_c, 0, 79, 87
2, 214646, Note_off_c, 0, 80, 61
2, 214720, Note_on_c, 0, 77, 90
2, 214732, Note_off_c, 0, 79, 61
2, 214789, Note_off_c, 0, 77, 62
2, 214809, Note_on_c, 0, 86, 87
2, 214817, Control_c, 0, 64, 127
2, 214994, Note_on_c, 0, 77, 93
2, 215006, Note_off_c, 0, 86, 61
2, 215172, Note_on_c, 0, 86, 83
2, 215191, Note_off_c, 0, 77, 63
2, 215380, Note_on_c, 0, 77, 85
2, 215403, Note_off_c, 0, 86, 60
2, 215472, Control_c, 0, 64, 0
2, 215504, Note_off_c, 0, 77, 61
2, 215567, Note_on_c, 0, 34, 81
2, 215653, Note_on_c, 0, 77, 81
2, 215738, Note_on_c, 0, 79, 81
2, 215756, Note_off_c, 0, 77, 60
2, 215847, Note_on_c, 0, 80, 84
2, 215860, Note_off_c, 0, 79, 60
2, 215937, Note_on_c, 0, 79, 87
2, 215954, Note_off_c, 0, 80, 61
2, 216022, Note_on_c, 0, 77, 90
2, 216040, Note_off_c, 0, 79, 61
2, 216098, Note_off_c, 0, 77, 62
2, 216126, Control_c, 0, 64, 127
2, 216134, Note_off_c, 0, 34, 60
2, 216137, Note_on_c, 0, 86, 87
2, 216313, Note_on_c, 0, 77, 93
2, 216333, Note_off_c, 0, 86, 61
2, 216498, Note_on_c, 0, 86, 81
2, 216520, Note_off_c, 0, 77, 63
2, 216683, Note_on_c, 0, 77, 81
2, 216702, Note_off_c, 0, 86, 60
2, 216787, Control_c, 0, 64, 0
2, 216832, Note_off_c, 0, 77, 60
2, 216879, Note_on_c, 0, 33, 93
2, 216984, Note_on_c, 0, 77, 84
2, 217072, Note_on_c, 0, 79, 87
2, 217086, Note_off_c, 0, 77, 61
2, 217177, Note_on_c, 0, 81, 90
2, 217188, Note_off_c, 0, 79, 61
2, 217281, Note_on_c, 0, 79, 93
2, 217290, Note_off_c, 0, 81, 62
2, 217367, Note_on_c, 0, 77, 93
2, 217386, Note_off_c, 0, 79, 63
2, 217441, Note_off_c, 0, 77, 63
2, 217459, Control_c, 0, 64, 127
2, 217477, Note_off_c, 0, 33, 63
2, 217479, Note_on_c, 0, 86, 87
2, 217636, Note_on_c, 0, 77, 84
2, 217674, Note_off_c, 0, 86, 61
2, 217820, Note_on_c, 0, 86, 87
2, 217861, Note_off_c, 0, 77, 61
2, 217986, Note_on_c, 0, 77, 84
2, 218022, Note_off_c, 0, 86, 61
2, 218151, Note_on_c, 0, 86, 81
2, 218171, Note_off_c, 0, 77, 61
2, 218175, Control_c, 0, 64, 0
2, 218177, Control_c, 0, 64, 127
2, 218342, Note_on_c, 0, 77, 78
2, 218363, Note_off_c, 0, 86, 60
2, 218510, Note_on_c, 0, 86, 75
2, 218531, Note_off_c, 0, 77, 59
2, 218687, Note_on_c, 0, 77, 72
2, 218712, Note_off_c, 0, 86, 59
2, 218883, Note_on_c, 0, 86, 69
2, 218905, Note_off_c, 0, 77, 58
2, 219061, Note_on_c, 0, 77, 66
2, 219089, Note_off_c, 0, 86, 57
2, 219242, Note_on_c, 0, 86, 63
2, 219268, Note_off_c, 0, 77, 56
2, 219428, Note_on_c, 0, 77, 60
2, 219451, Note_off_c, 0, 86, 55
2, 219457, Control_c, 0, 64, 0
2, 219567, Note_off_c, 0, 77, 55
2, 219630, Note_on_c, 0, 33, 43
2, 219639, Note_on_c, 0, 45, 45
2, 219657, Control_c, 0, 64, 127
2, 219792, Note_on_c, 0, 76, 57
2, 219977, Note_on_c, 0, 86, 57
2, 219999, Note_off_c, 0, 76, 54
2, 220158, Note_on_c, 0, 76, 54
2, 220177, Note_off_c, 0, 86, 54
2, 220367, Note_on_c, 0, 86, 51
2, 220370, Note_off_c, 0, 45, 51
2, 220383, Note_off_c, 0, 76, 53
2, 220426, Note_off_c, 0, 33, 50
2, 220571, Note_on_c, 0, 76, 48
2, 220600, Note_off_c, 0, 86, 52
2, 220782, Note_on_c, 0, 86, 45
2, 220803, Note_off_c, 0, 76, 52
2, 221021, Note_on_c, 0, 76, 42
2, 221041, Note_off_c, 0, 86, 51
2, 221170, Note_off_c, 0, 76, 50
2, 221244, Control_c, 0, 64, 0
2, 221250, Note_on_c, 0, 33, 36
2, 221262, Note_on_c, 0, 45, 33
2, 221487, Control_c, 0, 64, 127
2, 221514, Note_on_c, 0, 76, 36
2, 221781, Note_on_c, 0, 85, 33
2, 221802, Note_off_c, 0, 76, 49
2, 222054, Note_on_c, 0, 76, 30
2, 222073, Note_off_c, 0, 85, 48
2, 222348, Note_off_c, 0, 33, 49
2, 222351, Note_on_c, 0, 85, 27
2, 222373, Note_off_c, 0, 76, 47
2, 222488, Note_off_c, 0, 45, 48
2, 222652, Note_on_c, 0, 76, 24
2, 222680, Note_off_c, 0, 85, 46
2, 222965, Note_on_c, 0, 85, 21
2, 222989, Note_off_c, 0, 76, 46
2, 223282, Note_on_c, 0, 76, 21
2, 223310, Note_off_c, 0, 85, 45
2, 223534, Note_off_c, 0, 76, 45
2, 224878, Control_c, 0, 64, 0
2, 226794, Note_on_c, 0, 66, 37
2, 226814, Note_on_c, 0, 57, 48
2, 226816, Note_on_c, 0, 62, 26
2, 226818, Note_on_c, 0, 50, 50
2, 226937, Note_off_c, 0, 57, 52
2, 226945, Note_off_c, 0, 62, 46
2, 226955, Note_off_c, 0, 66, 49
2, 226961, Note_off_c, 0, 50, 52
2, 227165, Note_on_c, 0, 69, 50
2, 227167, Control_c, 0, 64, 127
2, 227170, Note_on_c, 0, 50, 38
2, 227172, Note_on_c, 0, 57, 35
2, 227174, Note_on_c, 0, 62, 35
2, 227177, Note_on_c, 0, 66, 38
2, 227355, Note_off_c, 0, 62, 48
2, 227357, Note_off_c, 0, 57, 48
2, 227359, Note_off_c, 0, 50, 49
2, 227360, Note_off_c, 0, 69, 52
2, 227361, Note_off_c, 0, 66, 49
2, 227525, Control_c, 0, 64, 0
2, 228022, Note_on_c, 0, 81, 38
2, 228126, Note_on_c, 0, 80, 38
2, 228171, Note_off_c, 0, 81, 49
2, 228227, Note_on_c, 0, 83, 44
2, 228284, Note_off_c, 0, 80, 49
2, 228322, Note_off_c, 0, 83, 51
2, 228329, Note_on_c, 0, 81, 50
2, 228440, Note_off_c, 0, 81, 52
2, 229269, Note_on_c, 0, 66, 38
2, 229277, Note_on_c, 0, 50, 23
2, 229279, Note_on_c, 0, 62, 28
2, 229288, Note_on_c, 0, 57, 25
2, 229418, Note_off_c, 0, 57, 46
2, 229425, Note_off_c, 0, 66, 49
2, 229431, Note_off_c, 0, 62, 47
2, 229433, Note_off_c, 0, 50, 45
2, 229622, Control_c, 0, 64, 127
2, 229629, Note_on_c, 0, 67, 50
2, 229646, Note_on_c, 0, 64, 40
2, 229648, Note_on_c, 0, 49, 35
2, 229653, Note_on_c, 0, 57, 38
2, 229775, Note_off_c, 0, 57, 49
2, 229795, Note_off_c, 0, 64, 50
2, 229807, Note_off_c, 0, 49, 48
2, 229811, Note_off_c, 0, 67, 52
2, 230133, Control_c, 0, 64, 0
2, 230563, Note_on_c, 0, 81, 38
2, 230673, Note_on_c, 0, 80, 38
2, 230719, Note_off_c, 0, 81, 49
2, 230781, Note_on_c, 0, 83, 44
2, 230822, Note_off_c, 0, 80, 49
2, 230886, Note_off_c, 0, 83, 51
2, 230894, Note_on_c, 0, 81, 50
2, 230972, Note_off_c, 0, 81, 52
2, 231741, Note_on_c, 0, 67, 45
2, 232026, Note_on_c, 0, 50, 28
2, 232028, Note_on_c, 0, 57, 33
2, 232033, Note_on_c, 0, 66, 45
2, 232035, Note_on_c, 0, 54, 30
2, 232051, Note_off_c, 0, 67, 51
2, 232163, Control_c, 0, 64, 127
2, 232358, Note_on_c, 0, 69, 50
2, 232370, Note_off_c, 0, 66, 51
2, 232398, Note_off_c, 0, 57, 48
2, 232427, Note_on_c, 0, 74, 52
2, 232448, Note_off_c, 0, 69, 52
2, 232461, Note_off_c, 0, 54, 47
2, 232626, Note_off_c, 0, 50, 47
2, 232716, Note_on_c, 0, 61, 33
2, 232718, Note_on_c, 0, 57, 30
2, 232720, Note_on_c, 0, 52, 26
2, 232721, Note_on_c, 0, 55, 28
2, 232746, Control_c, 0, 64, 0
2, 233010, Note_on_c, 0, 73, 66
2, 233032, Note_off_c, 0, 74, 53
2, 233053, Control_c, 0, 64, 127
2, 233080, Note_off_c, 0, 57, 47
2, 233237, Note_off_c, 0, 55, 47
2, 233306, Note_on_c, 0, 62, 41
2, 233308, Note_on_c, 0, 74, 73
2, 233310, Note_on_c, 0, 54, 36
2, 233313, Note_on_c, 0, 57, 38
2, 233323, Control_c, 0, 64, 0
2, 233324, Note_off_c, 0, 73, 56
2, 233331, Note_off_c, 0, 61, 48
2, 233347, Note_off_c, 0, 52, 46
2, 233594, Note_on_c, 0, 78, 81
2, 233606, Note_off_c, 0, 74, 58
2, 233629, Control_c, 0, 64, 127
2, 233711, Note_off_c, 0, 62, 50
2, 233788, Note_off_c, 0, 57, 49
2, 233865, Note_on_c, 0, 55, 40
2, 233867, Note_on_c, 0, 62, 45
2, 233876, Note_on_c, 0, 59, 42
2, 233884, Control_c, 0, 64, 0
2, 233918, Note_off_c, 0, 54, 49
2, 234171, Note_on_c, 0, 76, 76
2, 234189, Note_off_c, 0, 78, 60
2, 234191, Control_c, 0, 64, 127
2, 234273, Note_off_c, 0, 62, 51
2, 234365, Note_off_c, 0, 59, 50
2, 234470, Note_on_c, 0, 57, 38
2, 234474, Note_on_c, 0, 66, 45
2, 234476, Note_on_c, 0, 60, 40
2, 234484, Control_c, 0, 64, 0
2, 234486, Note_on_c, 0, 62, 42
2, 234488, Note_off_c, 0, 55, 50
2, 234774, Note_on_c, 0, 78, 66
2, 234789, Control_c, 0, 64, 127
2, 234798, Note_off_c, 0, 76, 59
2, 234856, Note_off_c, 0, 62, 50
2, 234897, Note_off_c, 0, 60, 50
2, 235013, Note_off_c, 0, 66, 51
2, 235094, Note_on_c, 0, 69, 39
2, 235103, Note_on_c, 0, 62, 34
2, 235105, Note_on_c, 0, 60, 32
2, 235110, Note_on_c, 0, 66, 36
2, 235116, Control_c, 0, 64, 0
2, 235120, Note_off_c, 0, 57, 49
2, 235444, Control_c, 0, 64, 127
2, 235451, Note_on_c, 0, 79, 56
2, 235477, Note_off_c, 0, 78, 56
2, 235573, Note_off_c, 0, 62, 48
2, 235636, Note_on_c, 0, 81, 46
2, 235659, Note_off_c, 0, 79, 54
2, 235753, Note_off_c, 0, 66, 49
2, 235777, Note_off_c, 0, 81, 51
2, 235845, Note_on_c, 0, 81, 44
2, 235848, Note_on_c, 0, 62, 31
2, 235849, Note_on_c, 0, 67, 33
2, 235851, Note_on_c, 0, 59, 29
2, 235868, Control_c, 0, 64, 0
2, 235886, Note_off_c, 0, 60, 48
2, 235888, Note_off_c, 0, 69, 49
2, 236308, Control_c, 0, 64, 127
2, 236342, Note_on_c, 0, 79, 33
2, 236372, Note_off_c, 0, 81, 51
2, 236513, Note_off_c, 0, 59, 47
2, 236557, Note_off_c, 0, 62, 47
2, 236634, Note_off_c, 0, 67, 48
2, 236707, Note_off_c, 0, 79, 48
2, 237065, Control_c, 0, 64, 0
2, 237712, Control_c, 0, 64, 127
2, 237757, Note_on_c, 0, 79, 52
2, 237760, Note_on_c, 0, 59, 40
2, 237766, Note_on_c, 0, 67, 44
2, 237781, Note_on_c, 0, 62, 42
2, 237851, Note_off_c, 0, 79, 53
2, 237863, Note_on_c, 0, 81, 56
2, 237951, Note_on_c, 0, 79, 54
2, 237961, Note_off_c, 0, 81, 54
2, 238028, Note_on_c, 0, 81, 56
2, 238030, Note_off_c, 0, 79, 53
2, 238095, Note_off_c, 0, 81, 54
2, 238097, Note_on_c, 0, 79, 61
2, 238185, Note_off_c, 0, 79, 55
2, 238187, Note_on_c, 0, 78, 63
2, 238250, Note_off_c, 0, 78, 55
2, 238251, Note_on_c, 0, 79, 65
2, 238318, Note_off_c, 0, 79, 56
2, 238323, Note_on_c, 0, 83, 69
2, 238415, Note_off_c, 0, 62, 50
2, 238452, Note_off_c, 0, 67, 51
2, 238602, Note_on_c, 0, 69, 44
2, 238616, Note_on_c, 0, 64, 43
2, 238618, Note_on_c, 0, 61, 40
2, 238621, Control_c, 0, 64, 0
2, 238652, Note_off_c, 0, 59, 50
2, 238796, Control_c, 0, 64, 127
2, 238912, Note_on_c, 0, 81, 69
2, 238918, Note_off_c, 0, 83, 57
2, 239084, Note_on_c, 0, 79, 67
2, 239105, Note_off_c, 0, 81, 57
2, 239175, Note_on_c, 0, 78, 67
2, 239180, Note_off_c, 0, 79, 57
2, 239268, Note_off_c, 0, 69, 51
2, 239271, Note_on_c, 0, 79, 67
2, 239287, Note_off_c, 0, 78, 57
2, 239292, Note_off_c, 0, 64, 50
2, 239324, Note_on_c, 0, 81, 66
2, 239346, Note_off_c, 0, 79, 57
2, 239418, Note_off_c, 0, 81, 56
2, 239435, Note_on_c, 0, 79, 65
2, 239444, Note_off_c, 0, 61, 50
2, 239446, Note_on_c, 0, 69, 45
2, 239451, Note_on_c, 0, 66, 43
2, 239453, Note_on_c, 0, 62, 40
2, 239489, Control_c, 0, 64, 0
2, 239655, Note_on_c, 0, 78, 59
2, 239667, Control_c, 0, 64, 127
2, 239721, Note_off_c, 0, 79, 56
2, 239938, Note_off_c, 0, 66, 50
2, 240027, Note_off_c, 0, 62, 50
2, 240044, Note_off_c, 0, 69, 51
2, 240107, Note_on_c, 0, 55, 39
2, 240109, Note_on_c, 0, 64, 43
2, 240113, Note_on_c, 0, 59, 42
2, 240119, Control_c, 0, 64, 0
2, 240296, Control_c, 0, 64, 127
2, 240299, Note_off_c, 0, 78, 54
2, 240339, Note_on_c, 0, 76, 51
2, 240406, Note_on_c, 0, 79, 49
2, 240423, Note_off_c, 0, 76, 52
2, 240599, Note_off_c, 0, 64, 50
2, 240610, Note_off_c, 0, 59, 50
2, 240646, Note_on_c, 0, 76, 63
2, 240654, Note_off_c, 0, 55, 49
2, 240664, Note_off_c, 0, 79, 52
2, 240686, Note_off_c, 0, 76, 55
2, 240714, Note_on_c, 0, 57, 38
2, 240716, Note_on_c, 0, 76, 61
2, 240724, Note_on_c, 0, 62, 40
2, 240731, Control_c, 0, 64, 0
2, 240733, Note_on_c, 0, 66, 42
2, 240906, Control_c, 0, 64, 127
2, 241042, Note_off_c, 0, 76, 55
2, 241044, Note_on_c, 0, 74, 57
2, 241139, Note_off_c, 0, 57, 49
2, 241215, Note_off_c, 0, 66, 50
2, 241299, Note_off_c, 0, 62, 50
2, 241360, Note_on_c, 0, 67, 42
2, 241371, Note_on_c, 0, 57, 38
2, 241374, Note_on_c, 0, 64, 39
2, 241379, Control_c, 0, 64, 0
2, 241556, Control_c, 0, 64, 127
2, 241642, Note_off_c, 0, 74, 54
2, 241644, Note_on_c, 0, 73, 50
2, 241727, Note_off_c, 0, 73, 52
2, 241729, Note_on_c, 0, 76, 49
2, 241924, Note_off_c, 0, 57, 49
2, 241970, Note_off_c, 0, 67, 50
2, 241978, Note_off_c, 0, 64, 49
2, 241998, Note_off_c, 0, 76, 52
2, 242002, Note_on_c, 0, 73, 45
2, 242068, Note_off_c, 0, 73, 51
2, 242079, Note_on_c, 0, 66, 40
2, 242081, Note_on_c, 0, 62, 39
2, 242086, Note_on_c, 0, 74, 45
2, 242091, Control_c, 0, 64, 0
2, 242268, Control_c, 0, 64, 127
2, 242621, Note_off_c, 0, 62, 49
2, 242655, Note_off_c, 0, 66, 50
2, 242846, Note_off_c, 0, 74, 51
2, 243366, Control_c, 0, 64, 0
2, 244590, Note_on_c, 0, 69, 40
2, 244599, Note_on_c, 0, 66, 29
2, 244605, Note_on_c, 0, 62, 34
2, 244611, Note_on_c, 0, 50, 36
2, 244729, Note_off_c, 0, 66, 47
2, 244730, Note_off_c, 0, 62, 48
2, 244735, Note_off_c, 0, 50, 49
2, 244737, Note_off_c, 0, 69, 50
2, 244942, Control_c, 0, 64, 127
2, 244948, Note_on_c, 0, 70, 38
2, 244965, Note_on_c, 0, 67, 29
2, 244971, Note_on_c, 0, 55, 36
2, 244973, Note_on_c, 0, 62, 33
2, 245112, Note_off_c, 0, 70, 49
2, 245117, Note_off_c, 0, 67, 47
2, 245119, Note_off_c, 0, 62, 48
2, 245124, Note_off_c, 0, 55, 49
2, 245268, Control_c, 0, 64, 0
2, 245882, Note_on_c, 0, 82, 33
2, 245985, Note_on_c, 0, 81, 33
2, 245997, Note_off_c, 0, 82, 48
2, 246070, Note_on_c, 0, 84, 39
2, 246086, Note_off_c, 0, 81, 48
2, 246172, Note_on_c, 0, 82, 45
2, 246190, Note_off_c, 0, 84, 49
2, 246267, Note_off_c, 0, 82, 51
2, 247091, Note_on_c, 0, 70, 42
2, 247097, Note_on_c, 0, 55, 33
2, 247101, Note_on_c, 0, 62, 28
2, 247107, Note_on_c, 0, 67, 32
2, 247243, Note_off_c, 0, 62, 47
2, 247245, Note_off_c, 0, 67, 48
2, 247248, Note_off_c, 0, 70, 50
2, 247253, Note_off_c, 0, 55, 48
2, 247500, Control_c, 0, 64, 127
2, 247526, Note_on_c, 0, 70, 38
2, 247538, Note_on_c, 0, 48, 33
2, 247541, Note_on_c, 0, 64, 28
2, 247546, Note_on_c, 0, 60, 28
2, 247666, Note_off_c, 0, 64, 47
2, 247683, Note_off_c, 0, 48, 48
2, 247701, Note_off_c, 0, 70, 49
2, 247706, Note_off_c, 0, 60, 47
2, 248131, Control_c, 0, 64, 0
2, 248643, Note_on_c, 0, 82, 33
2, 248762, Note_on_c, 0, 81, 33
2, 248778, Note_off_c, 0, 82, 48
2, 248894, Note_on_c, 0, 84, 39
2, 248913, Note_off_c, 0, 81, 48
2, 249004, Note_off_c, 0, 84, 49
2, 249006, Note_on_c, 0, 82, 45
2, 249076, Note_off_c, 0, 82, 51
2, 250106, Note_on_c, 0, 82, 41
2, 250214, Note_on_c, 0, 81, 40
2, 250234, Note_off_c, 0, 82, 50
2, 250337, Note_on_c, 0, 84, 39
2, 250359, Note_off_c, 0, 81, 50
2, 250444, Note_on_c, 0, 82, 37
2, 250461, Note_off_c, 0, 84, 49
2, 250542, Note_off_c, 0, 82, 49
2, 250815, Note_on_c, 0, 82, 33
2, 250957, Note_on_c, 0, 81, 32
2, 250977, Note_off_c, 0, 82, 48
2, 251079, Note_on_c, 0, 84, 31
2, 251103, Note_off_c, 0, 81, 48
2, 251215, Note_off_c, 0, 84, 47
2, 251241, Note_on_c, 0, 82, 29
2, 251328, Note_off_c, 0, 82, 47
2, 251717, Note_on_c, 0, 82, 25
2, 251730, Control_c, 0, 64, 127
2, 251877, Note_on_c, 0, 81, 24
2, 251902, Note_off_c, 0, 82, 46
2, 252038, Note_on_c, 0, 84, 23
2, 252063, Note_off_c, 0, 81, 46
2, 252165, Note_off_c, 0, 84, 45
2, 252214, Note_on_c, 0, 82, 21
2, 252615, Control_c, 0, 64, 0
2, 253210, Note_off_c, 0, 82, 45
2, 253624, Note_on_c, 0, 70, 45
2, 253902, Note_on_c, 0, 57, 30
2, 253907, Note_on_c, 0, 60, 32
2, 253909, Note_on_c, 0, 53, 28
2, 253911, Note_on_c, 0, 69, 45
2, 253931, Note_off_c, 0, 70, 51
2, 254005, Control_c, 0, 64, 127
2, 254205, Note_off_c, 0, 69, 51
2, 254217, Note_on_c, 0, 72, 48
2, 254288, Note_on_c, 0, 77, 49
2, 254307, Note_off_c, 0, 72, 52
2, 254353, Note_off_c, 0, 60, 48
2, 254557, Note_off_c, 0, 57, 47
2, 254584, Note_on_c, 0, 58, 31
2, 254593, Note_on_c, 0, 60, 35
2, 254596, Note_off_c, 0, 53, 47
2, 254597, Note_on_c, 0, 55, 30
2, 254666, Control_c, 0, 64, 0
2, 254894, Note_on_c, 0, 76, 59
2, 254913, Note_off_c, 0, 77, 52
2, 254996, Control_c, 0, 64, 127
2, 255063, Note_off_c, 0, 58, 47
2, 255073, Note_off_c, 0, 60, 48
2, 255188, Note_on_c, 0, 65, 39
2, 255190, Note_on_c, 0, 57, 35
2, 255194, Control_c, 0, 64, 0
2, 255196, Note_on_c, 0, 77, 64
2, 255198, Note_on_c, 0, 60, 37
2, 255205, Note_off_c, 0, 76, 54
2, 255209, Note_off_c, 0, 55, 47
2, 255477, Note_on_c, 0, 81, 69
2, 255504, Note_off_c, 0, 77, 56
2, 255524, Control_c, 0, 64, 127
2, 255638, Note_off_c, 0, 60, 49
2, 255663, Note_off_c, 0, 65, 49
2, 255770, Note_on_c, 0, 67, 45
2, 255776, Note_on_c, 0, 65, 41
2, 255781, Note_on_c, 0, 58, 37
2, 255783, Control_c, 0, 64, 0
2, 255788, Note_on_c, 0, 62, 40
2, 255824, Note_off_c, 0, 57, 48
2, 256081, Note_on_c, 0, 79, 69
2, 256106, Note_off_c, 0, 81, 57
2, 256112, Control_c, 0, 64, 127
2, 256177, Note_off_c, 0, 65, 50
2, 256287, Note_off_c, 0, 62, 50
2, 256292, Note_off_c, 0, 67, 51
2, 256382, Note_on_c, 0, 60, 40
2, 256383, Note_on_c, 0, 65, 41
2, 256385, Note_on_c, 0, 69, 44
2, 256389, Control_c, 0, 64, 0
2, 256410, Note_off_c, 0, 58, 49
2, 256684, Note_on_c, 0, 81, 61
2, 256700, Note_off_c, 0, 79, 57
2, 256717, Control_c, 0, 64, 127
2, 256807, Note_off_c, 0, 69, 51
2, 256820, Note_off_c, 0, 65, 50
2, 257001, Note_on_c, 0, 63, 32
2, 257003, Note_on_c, 0, 72, 38
2, 257011, Note_on_c, 0, 65, 34
2, 257014, Note_on_c, 0, 69, 35
2, 257017, Note_off_c, 0, 60, 50
2, 257022, Control_c, 0, 64, 0
2, 257372, Note_on_c, 0, 82, 53
2, 257374, Control_c, 0, 64, 127
2, 257390, Note_off_c, 0, 81, 55
2, 257534, Note_off_c, 0, 65, 48
2, 257574, Note_off_c, 0, 82, 53
2, 257576, Note_on_c, 0, 84, 51
2, 257678, Note_off_c, 0, 69, 48
2, 257690, Note_off_c, 0, 72, 49
2, 257723, Note_off_c, 0, 84, 52
2, 257793, Note_on_c, 0, 62, 27
2, 257795, Note_on_c, 0, 84, 49
2, 257797, Note_on_c, 0, 70, 32
2, 257805, Note_on_c, 0, 65, 29
2, 257816, Control_c, 0, 64, 0
2, 257826, Note_off_c, 0, 63, 48
2, 258273, Control_c, 0, 64, 127
2, 258286, Note_on_c, 0, 82, 45
2, 258311, Note_off_c, 0, 84, 52
2, 258509, Note_off_c, 0, 70, 48
2, 258521, Note_off_c, 0, 62, 46
2, 258534, Note_off_c, 0, 65, 47
2, 258649, Note_off_c, 0, 82, 51
2, 258922, Control_c, 0, 64, 0
2, 259686, Note_on_c, 0, 82, 57
2, 259690, Note_on_c, 0, 70, 44
2, 259705, Control_c, 0, 64, 0
2, 259707, Note_on_c, 0, 62, 40
2, 259711, Note_on_c, 0, 65, 41
2, 259792, Note_on_c, 0, 84, 57
2, 259800, Note_off_c, 0, 82, 54
2, 259892, Note_on_c, 0, 82, 59
2, 259904, Note_off_c, 0, 84, 54
2, 259956, Note_on_c, 0, 84, 61
2, 259973, Note_off_c, 0, 82, 54
2, 260028, Note_on_c, 0, 82, 66
2, 260044, Note_off_c, 0, 84, 55
2, 260055, Control_c, 0, 64, 127
2, 260125, Note_on_c, 0, 81, 68
2, 260132, Note_off_c, 0, 82, 56
2, 260202, Note_on_c, 0, 82, 70
2, 260207, Note_off_c, 0, 81, 57
2, 260274, Note_on_c, 0, 86, 69
2, 260286, Note_off_c, 0, 82, 57
2, 260397, Note_off_c, 0, 65, 50
2, 260510, Note_off_c, 0, 70, 51
2, 260550, Note_on_c, 0, 72, 44
2, 260561, Control_c, 0, 64, 0
2, 260566, Note_off_c, 0, 62, 50
2, 260569, Note_on_c, 0, 64, 39
2, 260573, Note_on_c, 0, 67, 40
2, 260869, Note_off_c, 0, 86, 57
2, 260874, Note_on_c, 0, 84, 69
2, 260876, Control_c, 0, 64, 127
2, 261022, Note_off_c, 0, 84, 57
2, 261042, Note_on_c, 0, 82, 67
2, 261138, Note_off_c, 0, 82, 57
2, 261149, Note_on_c, 0, 81, 64
2, 261206, Note_off_c, 0, 81, 56
2, 261216, Note_on_c, 0, 82, 64
2, 261221, Note_off_c, 0, 72, 51
2, 261227, Note_off_c, 0, 67, 50
2, 261278, Note_on_c, 0, 84, 63
2, 261281, Note_off_c, 0, 82, 56
2, 261360, Note_off_c, 0, 84, 55
2, 261363, Note_on_c, 0, 82, 62
2, 261384, Note_on_c, 0, 72, 40
2, 261389, Note_on_c, 0, 65, 36
2, 261392, Control_c, 0, 64, 0
2, 261397, Note_on_c, 0, 69, 38
2, 261426, Note_off_c, 0, 64, 49
2, 261705, Note_off_c, 0, 82, 55
2, 261708, Note_on_c, 0, 81, 59
2, 261714, Control_c, 0, 64, 127
2, 261827, Note_off_c, 0, 65, 49
2, 261887, Note_off_c, 0, 69, 49
2, 261922, Note_off_c, 0, 72, 50
2, 261995, Note_on_c, 0, 67, 38
2, 262000, Note_on_c, 0, 58, 33
2, 262008, Note_on_c, 0, 62, 35
2, 262019, Control_c, 0, 64, 0
2, 262222, Note_off_c, 0, 81, 54
2, 262224, Note_on_c, 0, 79, 51
2, 262292, Note_off_c, 0, 79, 52
2, 262294, Note_on_c, 0, 82, 49
2, 262337, Control_c, 0, 64, 127
2, 262440, Note_off_c, 0, 58, 48
2, 262462, Note_off_c, 0, 67, 49
2, 262513, Note_off_c, 0, 82, 52
2, 262515, Note_off_c, 0, 62, 48
2, 262517, Note_on_c, 0, 79, 54
2, 262584, Note_off_c, 0, 79, 53
2, 262601, Note_on_c, 0, 60, 30
2, 262603, Note_on_c, 0, 69, 34
2, 262605, Note_on_c, 0, 65, 31
2, 262613, Note_on_c, 0, 79, 57
2, 262616, Control_c, 0, 64, 0
2, 262927, Note_on_c, 0, 77, 57
2, 262932, Control_c, 0, 64, 127
2, 262958, Note_off_c, 0, 79, 54
2, 263017, Note_off_c, 0, 65, 47
2, 263063, Note_off_c, 0, 60, 47
2, 263167, Note_off_c, 0, 69, 48
2, 263237, Note_on_c, 0, 70, 32
2, 263251, Note_on_c, 0, 60, 28
2, 263254, Note_on_c, 0, 67, 29
2, 263273, Control_c, 0, 64, 0
2, 263508, Note_on_c, 0, 76, 50
2, 263538, Note_off_c, 0, 77, 54
2, 263565, Note_off_c, 0, 60, 47
2, 263588, Control_c, 0, 64, 127
2, 263592, Note_off_c, 0, 67, 47
2, 263597, Note_on_c, 0, 79, 49
2, 263623, Note_off_c, 0, 76, 52
2, 263633, Note_off_c, 0, 70, 48
2, 263849, Note_on_c, 0, 76, 46
2, 263880, Note_off_c, 0, 79, 52
2, 263920, Note_off_c, 0, 76, 51
2, 263936, Note_on_c, 0, 41, 45
2, 263938, Note_on_c, 0, 77, 45
2, 263950, Control_c, 0, 64, 0
2, 264076, Note_on_c, 0, 45, 45
2, 264092, Note_off_c, 0, 41, 51
2, 264223, Note_on_c, 0, 36, 45
2, 264240, Note_off_c, 0, 45, 51
2, 264270, Control_c, 0, 64, 127
2, 264366, Note_on_c, 0, 40, 46
2, 264382, Note_off_c, 0, 36, 51
2, 264521, Note_off_c, 0, 77, 51
2, 264523, Note_on_c, 0, 41, 46
2, 264535, Note_off_c, 0, 40, 51
2, 264655, Note_on_c, 0, 45, 47
2, 264676, Note_off_c, 0, 41, 51
2, 264790, Note_on_c, 0, 53, 42
2, 264792, Note_on_c, 0, 65, 54
2, 264796, Note_on_c, 0, 36, 47
2, 264808, Note_off_c, 0, 45, 51
2, 264815, Control_c, 0, 64, 127
2, 264931, Note_on_c, 0, 40, 48
2, 264941, Note_off_c, 0, 36, 51
2, 264993, Note_off_c, 0, 65, 53
2, 265006, Note_off_c, 0, 53, 50
2, 265048, Note_off_c, 0, 40, 52
2, 265053, Note_on_c, 0, 69, 56
2, 265063, Note_on_c, 0, 57, 50
2, 265065, Note_on_c, 0, 60, 44
2, 265067, Note_on_c, 0, 65, 36
2, 265069, Note_on_c, 0, 41, 48
2, 265097, Control_c, 0, 64, 0
2, 265204, Note_on_c, 0, 45, 49
2, 265223, Note_off_c, 0, 41, 52
2, 265242, Control_c, 0, 64, 127
2, 265343, Note_on_c, 0, 36, 49
2, 265354, Note_off_c, 0, 45, 52
2, 265409, Note_off_c, 0, 65, 49
2, 265427, Note_off_c, 0, 60, 51
2, 265469, Note_off_c, 0, 57, 52
2, 265478, Note_off_c, 0, 69, 54
2, 265494, Note_on_c, 0, 40, 50
2, 265517, Note_off_c, 0, 36, 52
2, 265616, Note_on_c, 0, 72, 63
2, 265625, Note_on_c, 0, 60, 59
2, 265627, Note_on_c, 0, 65, 51
2, 265629, Note_on_c, 0, 69, 43
2, 265637, Note_off_c, 0, 40, 52
2, 265639, Note_on_c, 0, 41, 50
2, 265648, Control_c, 0, 64, 0
2, 265769, Note_on_c, 0, 45, 51
2, 265781, Note_off_c, 0, 41, 52
2, 265798, Control_c, 0, 64, 127
2, 265903, Note_on_c, 0, 36, 51
2, 265920, Note_off_c, 0, 45, 52
2, 265960, Note_off_c, 0, 69, 50
2, 265977, Note_off_c, 0, 65, 52
2, 266044, Note_on_c, 0, 40, 52
2, 266059, Note_off_c, 0, 36, 52
2, 266071, Note_off_c, 0, 72, 55
2, 266166, Note_off_c, 0, 60, 54
2, 266184, Note_on_c, 0, 77, 71
2, 266189, Note_on_c, 0, 41, 52
2, 266194, Note_on_c, 0, 65, 63
2, 266196, Note_on_c, 0, 69, 59
2, 266198, Note_on_c, 0, 72, 51
2, 266201, Note_off_c, 0, 40, 53
2, 266213, Control_c, 0, 64, 0
2, 266333, Note_on_c, 0, 45, 53
2, 266356, Note_off_c, 0, 41, 53
2, 266362, Control_c, 0, 64, 127
2, 266472, Note_on_c, 0, 36, 53
2, 266489, Note_off_c, 0, 45, 53
2, 266608, Note_on_c, 0, 40, 54
2, 266623, Note_off_c, 0, 36, 53
2, 266667, Note_off_c, 0, 69, 54
2, 266705, Note_off_c, 0, 65, 55
2, 266734, Note_off_c, 0, 77, 58
2, 266760, Note_on_c, 0, 41, 54
2, 266765, Note_off_c, 0, 72, 52
2, 266779, Note_off_c, 0, 40, 53
2, 266902, Note_on_c, 0, 45, 55
2, 266917, Note_off_c, 0, 41, 53
2, 267022, Note_on_c, 0, 81, 81
2, 267038, Note_on_c, 0, 69, 74
2, 267040, Note_on_c, 0, 72, 69
2, 267041, Note_on_c, 0, 77, 61
2, 267043, Note_on_c, 0, 36, 55
2, 267053, Note_off_c, 0, 45, 53
2, 267064, Control_c, 0, 64, 0
2, 267166, Note_off_c, 0, 77, 55
2, 267175, Note_on_c, 0, 40, 56
2, 267195, Note_off_c, 0, 72, 57
2, 267196, Note_off_c, 0, 36, 53
2, 267207, Note_off_c, 0, 81, 60
2, 267211, Control_c, 0, 64, 127
2, 267235, Note_off_c, 0, 69, 59
2, 267302, Note_on_c, 0, 84, 85
2, 267312, Note_on_c, 0, 72, 79
2, 267314, Note_on_c, 0, 77, 73
2, 267316, Note_on_c, 0, 81, 65
2, 267317, Note_off_c, 0, 40, 54
2, 267319, Note_on_c, 0, 41, 56
2, 267336, Control_c, 0, 64, 0
2, 267448, Note_on_c, 0, 45, 57
2, 267462, Note_off_c, 0, 41, 54
2, 267475, Control_c, 0, 64, 127
2, 267477, Note_off_c, 0, 84, 61
2, 267494, Note_off_c, 0, 81, 56
2, 267495, Note_off_c, 0, 77, 58
2, 267524, Note_off_c, 0, 72, 60
2, 267587, Note_off_c, 0, 45, 54
2, 267593, Note_on_c, 0, 89, 87
2, 267604, Note_on_c, 0, 77, 80
2, 267606, Note_on_c, 0, 81, 75
2, 267608, Note_on_c, 0, 84, 67
2, 267608, Note_on_c, 0, 36, 57
2, 267628, Control_c, 0, 64, 0
2, 267737, Note_on_c, 0, 40, 57
2, 267756, Note_off_c, 0, 36, 54
2, 267792, Control_c, 0, 64, 127
2, 267880, Note_on_c, 0, 41, 56
2, 267894, Note_off_c, 0, 40, 54
2, 267935, Note_off_c, 0, 84, 57
2, 267959, Note_off_c, 0, 77, 60
2, 267977, Note_off_c, 0, 89, 61
2, 267988, Note_off_c, 0, 81, 59
2, 268013, Note_on_c, 0, 45, 55
2, 268030, Note_off_c, 0, 41, 54
2, 268142, Note_on_c, 0, 89, 75
2, 268152, Note_on_c, 0, 77, 70
2, 268154, Note_on_c, 0, 81, 63
2, 268156, Note_on_c, 0, 84, 55
2, 268158, Note_off_c, 0, 45, 53
2, 268159, Note_on_c, 0, 36, 54
2, 268174, Control_c, 0, 64, 0
2, 268293, Note_off_c, 0, 84, 53
2, 268306, Note_off_c, 0, 36, 53
2, 268311, Note_off_c, 0, 89, 59
2, 268319, Note_off_c, 0, 81, 55
2, 268321, Note_off_c, 0, 77, 57
2, 268325, Control_c, 0, 64, 127
2, 268338, Note_on_c, 0, 40, 53
2, 268478, Note_off_c, 0, 40, 53
2, 268519, Note_on_c, 0, 89, 74
2, 268525, Note_on_c, 0, 43, 52
2, 268528, Note_on_c, 0, 77, 69
2, 268530, Note_on_c, 0, 82, 62
2, 268532, Note_on_c, 0, 84, 54
2, 268547, Control_c, 0, 64, 0
2, 268677, Note_on_c, 0, 46, 51
2, 268694, Note_off_c, 0, 43, 53
2, 268699, Control_c, 0, 64, 127
2, 268814, Note_on_c, 0, 36, 50
2, 268831, Note_off_c, 0, 46, 52
2, 268970, Note_on_c, 0, 42, 49
2, 268989, Note_off_c, 0, 36, 52
2, 269104, Note_on_c, 0, 76, 56
2, 269106, Note_on_c, 0, 88, 69
2, 269109, Note_on_c, 0, 43, 48
2, 269123, Note_off_c, 0, 42, 52
2, 269136, Control_c, 0, 64, 0
2, 269139, Note_off_c, 0, 77, 57
2, 269153, Note_off_c, 0, 89, 59
2, 269243, Note_on_c, 0, 46, 47
2, 269263, Note_off_c, 0, 43, 52
2, 269289, Control_c, 0, 64, 127
2, 269366, Note_off_c, 0, 88, 57
2, 269367, Note_off_c, 0, 76, 54
2, 269385, Note_on_c, 0, 36, 46
2, 269388, Note_off_c, 0, 84, 53
2, 269391, Note_off_c, 0, 82, 55
2, 269401, Note_off_c, 0, 46, 51
2, 269516, Note_on_c, 0, 42, 45
2, 269536, Note_off_c, 0, 36, 51
2, 269652, Note_on_c, 0, 64, 63
2, 269659, Note_on_c, 0, 43, 45
2, 269662, Note_on_c, 0, 52, 58
2, 269664, Note_on_c, 0, 55, 51
2, 269665, Note_on_c, 0, 58, 43
2, 269675, Note_off_c, 0, 42, 51
2, 269683, Control_c, 0, 64, 0
2, 269792, Note_on_c, 0, 46, 45
2, 269810, Note_off_c, 0, 43, 51
2, 269840, Control_c, 0, 64, 127
2, 269947, Note_on_c, 0, 36, 46
2, 269967, Note_off_c, 0, 46, 51
2, 270084, Note_on_c, 0, 42, 47
2, 270094, Note_off_c, 0, 58, 50
2, 270105, Note_off_c, 0, 36, 51
2, 270107, Note_off_c, 0, 64, 55
2, 270118, Note_off_c, 0, 55, 52
2, 270124, Note_off_c, 0, 52, 54
2, 270224, Note_off_c, 0, 42, 51
2, 270226, Note_on_c, 0, 67, 66
2, 270235, Note_on_c, 0, 55, 60
2, 270237, Note_on_c, 0, 58, 54
2, 270238, Note_on_c, 0, 64, 46
2, 270240, Note_on_c, 0, 43, 47
2, 270265, Control_c, 0, 64, 0
2, 270374, Note_on_c, 0, 46, 48
2, 270395, Note_off_c, 0, 43, 51
2, 270429, Control_c, 0, 64, 127
2, 270513, Note_on_c, 0, 36, 49
2, 270532, Note_off_c, 0, 46, 52
2, 270623, Note_off_c, 0, 64, 51
2, 270648, Note_off_c, 0, 58, 53
2, 270649, Note_on_c, 0, 42, 49
2, 270669, Note_off_c, 0, 36, 52
2, 270702, Note_off_c, 0, 67, 56
2, 270726, Note_off_c, 0, 55, 55
2, 270796, Note_on_c, 0, 43, 50
2, 270798, Note_on_c, 0, 70, 72
2, 270806, Note_off_c, 0, 42, 52
2, 270808, Note_on_c, 0, 58, 65
2, 270810, Note_on_c, 0, 64, 60
2, 270810, Note_on_c, 0, 67, 52
2, 270817, Control_c, 0, 64, 0
2, 270923, Note_on_c, 0, 46, 51
2, 270942, Note_off_c, 0, 43, 52
2, 270992, Control_c, 0, 64, 127
2, 271060, Note_on_c, 0, 36, 52
2, 271079, Note_off_c, 0, 46, 52
2, 271213, Note_on_c, 0, 42, 52
2, 271231, Note_off_c, 0, 36, 53
2, 271254, Note_off_c, 0, 64, 55
2, 271293, Note_off_c, 0, 58, 56
2, 271312, Note_off_c, 0, 67, 53
2, 271342, Note_off_c, 0, 70, 58
2, 271353, Note_on_c, 0, 43, 53
2, 271372, Note_off_c, 0, 42, 53
2, 271489, Note_on_c, 0, 46, 54
2, 271509, Note_off_c, 0, 43, 53
2, 271619, Note_on_c, 0, 76, 81
2, 271626, Note_on_c, 0, 36, 54
2, 271628, Note_on_c, 0, 64, 69
2, 271640, Note_off_c, 0, 46, 53
2, 271653, Control_c, 0, 64, 0
2, 271763, Note_on_c, 0, 42, 55
2, 271785, Note_off_c, 0, 36, 53
2, 271802, Control_c, 0, 64, 127
2, 271876, Note_off_c, 0, 76, 60
2, 271888, Note_off_c, 0, 64, 57
2, 271895, Note_on_c, 0, 79, 84
2, 271902, Note_on_c, 0, 67, 72
2, 271904, Note_on_c, 0, 43, 56
2, 271914, Note_off_c, 0, 42, 53
2, 272054, Note_on_c, 0, 46, 57
2, 272072, Note_off_c, 0, 43, 54
2, 272170, Note_off_c, 0, 67, 58
2, 272178, Note_off_c, 0, 79, 61
2, 272185, Note_on_c, 0, 82, 87
2, 272195, Note_on_c, 0, 70, 75
2, 272197, Note_on_c, 0, 36, 57
2, 272210, Note_off_c, 0, 46, 54
2, 272219, Control_c, 0, 64, 0
2, 272332, Note_on_c, 0, 42, 57
2, 272343, Note_off_c, 0, 36, 54
2, 272384, Control_c, 0, 64, 127
2, 272483, Note_on_c, 0, 43, 57
2, 272503, Note_off_c, 0, 42, 54
2, 272619, Note_on_c, 0, 46, 56
2, 272637, Note_off_c, 0, 43, 54
2, 272682, Note_off_c, 0, 70, 59
2, 272742, Note_off_c, 0, 82, 61
2, 272752, Note_on_c, 0, 81, 84
2, 272758, Note_on_c, 0, 69, 72
2, 272761, Note_on_c, 0, 36, 55
2, 272771, Note_off_c, 0, 46, 54
2, 272785, Control_c, 0, 64, 0
2, 272910, Note_off_c, 0, 36, 53
2, 272950, Note_off_c, 0, 69, 58
2, 272953, Note_off_c, 0, 81, 61
2, 272963, Note_on_c, 0, 42, 54
2, 272967, Control_c, 0, 64, 127
2, 273119, Note_off_c, 0, 42, 53
2, 273124, Note_on_c, 0, 79, 81
2, 273133, Note_on_c, 0, 45, 53
2, 273134, Note_on_c, 0, 67, 69
2, 273158, Control_c, 0, 64, 0
2, 273267, Note_on_c, 0, 48, 52
2, 273285, Note_off_c, 0, 45, 53
2, 273325, Control_c, 0, 64, 127
2, 273424, Note_on_c, 0, 41, 51
2, 273443, Note_off_c, 0, 48, 53
2, 273560, Note_on_c, 0, 44, 50
2, 273582, Note_off_c, 0, 41, 52
2, 273629, Note_off_c, 0, 67, 57
2, 273680, Note_off_c, 0, 79, 60
2, 273682, Note_on_c, 0, 77, 75
2, 273699, Note_on_c, 0, 65, 63
2, 273702, Note_on_c, 0, 45, 49
2, 273714, Note_off_c, 0, 44, 52
2, 273726, Control_c, 0, 64, 0
2, 273833, Note_on_c, 0, 48, 48
2, 273853, Note_off_c, 0, 45, 52
2, 273893, Note_off_c, 0, 65, 55
2, 273901, Control_c, 0, 64, 127
2, 273910, Note_off_c, 0, 77, 59
2, 273970, Note_on_c, 0, 41, 47
2, 273985, Note_off_c, 0, 48, 52
2, 274107, Note_on_c, 0, 44, 46
2, 274124, Note_off_c, 0, 41, 51
2, 274210, Note_off_c, 0, 44, 51
2, 274242, Note_on_c, 0, 65, 45
2, 274246, Note_on_c, 0, 48, 45
2, 274261, Control_c, 0, 64, 0
2, 274398, Note_on_c, 0, 68, 45
2, 274444, Note_off_c, 0, 65, 51
2, 274537, Note_on_c, 0, 60, 47
2, 274579, Note_off_c, 0, 68, 51
2, 274690, Note_on_c, 0, 64, 49
2, 274730, Note_off_c, 0, 60, 51
2, 274828, Note_on_c, 0, 65, 52
2, 274830, Note_on_c, 0, 53, 63
2, 274869, Note_off_c, 0, 64, 52
2, 274964, Note_on_c, 0, 68, 54
2, 275005, Note_off_c, 0, 65, 53
2, 275104, Note_on_c, 0, 60, 57
2, 275137, Note_off_c, 0, 68, 53
2, 275237, Note_on_c, 0, 64, 57
2, 275277, Note_off_c, 0, 60, 54
2, 275324, Note_off_c, 0, 64, 54
2, 275377, Note_on_c, 0, 56, 75
2, 275379, Note_on_c, 0, 65, 57
2, 275511, Note_on_c, 0, 68, 56
2, 275565, Note_off_c, 0, 65, 54
2, 275667, Note_on_c, 0, 60, 54
2, 275716, Note_off_c, 0, 68, 54
2, 275804, Note_on_c, 0, 64, 52
2, 275859, Note_off_c, 0, 60, 53
2, 275960, Note_on_c, 0, 65, 51
2, 276010, Note_off_c, 0, 64, 53
2, 276058, Note_off_c, 0, 48, 51
2, 276094, Note_off_c, 0, 53, 55
2, 276096, Note_on_c, 0, 68, 49
2, 276113, Note_off_c, 0, 56, 59
2, 276147, Note_off_c, 0, 65, 52
2, 276233, Note_on_c, 0, 56, 48
2, 276235, Note_on_c, 0, 53, 45
2, 276237, Note_on_c, 0, 60, 47
2, 276268, Note_off_c, 0, 68, 52
2, 276356, Note_off_c, 0, 56, 52
2, 276358, Note_off_c, 0, 53, 51
2, 276368, Note_on_c, 0, 64, 45
2, 276424, Note_off_c, 0, 60, 51
2, 276448, Note_off_c, 0, 64, 51
2, 276507, Note_on_c, 0, 65, 45
2, 276509, Note_on_c, 0, 56, 48
2, 276511, Note_on_c, 0, 53, 45
2, 276612, Note_off_c, 0, 56, 52
2, 276629, Note_off_c, 0, 53, 51
2, 276641, Note_on_c, 0, 68, 46
2, 276696, Note_off_c, 0, 65, 51
2, 276780, Note_on_c, 0, 60, 48
2, 276782, Note_on_c, 0, 53, 48
2, 276784, Note_on_c, 0, 56, 51
2, 276817, Note_off_c, 0, 68, 51
2, 276910, Note_off_c, 0, 53, 52
2, 276912, Note_off_c, 0, 56, 52
2, 276936, Note_on_c, 0, 64, 49
2, 276993, Note_off_c, 0, 60, 52
2, 277074, Note_on_c, 0, 53, 51
2, 277075, Note_on_c, 0, 56, 54
2, 277077, Note_on_c, 0, 65, 51
2, 277112, Note_off_c, 0, 64, 52
2, 277186, Note_off_c, 0, 56, 53
2, 277208, Note_on_c, 0, 67, 52
2, 277210, Note_off_c, 0, 53, 52
2, 277262, Note_off_c, 0, 65, 52
2, 277347, Note_on_c, 0, 56, 57
2, 277349, Note_on_c, 0, 68, 54
2, 277351, Note_on_c, 0, 53, 54
2, 277383, Note_off_c, 0, 67, 53
2, 277469, Note_off_c, 0, 53, 53
2, 277481, Note_on_c, 0, 65, 55
2, 277507, Note_off_c, 0, 56, 54
2, 277535, Note_off_c, 0, 68, 53
2, 277587, Note_off_c, 0, 65, 53
2, 277606, Note_on_c, 0, 51, 52
2, 277621, Note_on_c, 0, 67, 57
2, 277623, Note_on_c, 0, 55, 54
2, 277630, Note_on_c, 0, 58, 57
2, 277632, Control_c, 0, 64, 127
2, 277774, Note_on_c, 0, 70, 57
2, 277847, Note_off_c, 0, 67, 54
2, 277913, Note_on_c, 0, 63, 56
2, 277976, Note_off_c, 0, 70, 54
2, 278019, Control_c, 0, 64, 0
2, 278048, Note_on_c, 0, 66, 54
2, 278122, Note_off_c, 0, 63, 54
2, 278161, Note_off_c, 0, 55, 53
2, 278186, Note_off_c, 0, 51, 53
2, 278201, Note_on_c, 0, 67, 52
2, 278208, Note_off_c, 0, 58, 54
2, 278266, Note_off_c, 0, 66, 53
2, 278338, Note_on_c, 0, 70, 51
2, 278402, Note_off_c, 0, 67, 53
2, 278477, Note_on_c, 0, 63, 49
2, 278537, Note_off_c, 0, 70, 52
2, 278614, Note_on_c, 0, 66, 47
2, 278674, Note_off_c, 0, 63, 52
2, 278749, Note_on_c, 0, 51, 45
2, 278750, Note_on_c, 0, 67, 45
2, 278806, Note_off_c, 0, 66, 51
2, 278890, Note_on_c, 0, 70, 45
2, 278954, Note_off_c, 0, 67, 51
2, 279041, Note_on_c, 0, 63, 46
2, 279093, Note_off_c, 0, 70, 51
2, 279175, Note_on_c, 0, 66, 48
2, 279237, Note_off_c, 0, 63, 51
2, 279331, Note_on_c, 0, 55, 63
2, 279333, Note_on_c, 0, 67, 50
2, 279401, Note_off_c, 0, 66, 52
2, 279469, Note_on_c, 0, 70, 51
2, 279523, Note_off_c, 0, 67, 52
2, 279605, Note_on_c, 0, 63, 53
2, 279663, Note_off_c, 0, 70, 52
2, 279745, Note_on_c, 0, 66, 55
2, 279815, Note_off_c, 0, 63, 53
2, 279825, Note_off_c, 0, 66, 53
2, 279879, Note_on_c, 0, 58, 79
2, 279881, Note_on_c, 0, 67, 57
2, 280018, Note_on_c, 0, 70, 57
2, 280042, Note_off_c, 0, 67, 54
2, 280154, Note_on_c, 0, 63, 55
2, 280181, Note_off_c, 0, 70, 54
2, 280311, Note_on_c, 0, 66, 53
2, 280339, Note_off_c, 0, 63, 53
2, 280445, Note_on_c, 0, 67, 51
2, 280472, Note_off_c, 0, 66, 53
2, 280584, Note_on_c, 0, 70, 49
2, 280608, Note_off_c, 0, 58, 60
2, 280615, Note_off_c, 0, 67, 52
2, 280622, Note_off_c, 0, 55, 55
2, 280625, Note_off_c, 0, 51, 51
2, 280719, Note_on_c, 0, 63, 47
2, 280720, Note_on_c, 0, 58, 45
2, 280723, Note_on_c, 0, 61, 48
2, 280730, Note_off_c, 0, 70, 52
2, 280822, Note_off_c, 0, 61, 52
2, 280850, Note_off_c, 0, 58, 51
2, 280858, Note_on_c, 0, 66, 45
2, 280884, Note_off_c, 0, 63, 51
2, 280992, Note_on_c, 0, 67, 45
2, 280995, Note_on_c, 0, 61, 48
2, 280996, Note_on_c, 0, 58, 45
2, 281019, Note_off_c, 0, 66, 51
2, 281117, Note_off_c, 0, 61, 52
2, 281145, Note_off_c, 0, 58, 51
2, 281150, Note_on_c, 0, 70, 45
2, 281178, Note_off_c, 0, 67, 51
2, 281285, Note_on_c, 0, 61, 52
2, 281287, Note_on_c, 0, 63, 46
2, 281289, Note_on_c, 0, 58, 49
2, 281311, Note_off_c, 0, 70, 51
2, 281402, Note_off_c, 0, 61, 53
2, 281418, Note_off_c, 0, 58, 52
2, 281424, Note_on_c, 0, 66, 47
2, 281450, Note_off_c, 0, 63, 51
2, 281575, Note_on_c, 0, 67, 48
2, 281577, Note_on_c, 0, 61, 57
2, 281579, Note_on_c, 0, 58, 54
2, 281604, Note_off_c, 0, 66, 51
2, 281683, Note_off_c, 0, 58, 53
2, 281713, Note_off_c, 0, 61, 54
2, 281716, Note_on_c, 0, 70, 48
2, 281742, Note_off_c, 0, 67, 52
2, 281849, Note_on_c, 0, 63, 49
2, 281851, Note_on_c, 0, 61, 60
2, 281853, Note_on_c, 0, 58, 57
2, 281878, Note_off_c, 0, 70, 52
2, 281991, Note_on_c, 0, 67, 50
2, 281997, Note_off_c, 0, 58, 54
2, 282016, Note_off_c, 0, 63, 52
2, 282026, Note_off_c, 0, 61, 55
2, 282089, Note_off_c, 0, 67, 52
2, 282124, Note_on_c, 0, 60, 48
2, 282126, Note_on_c, 0, 68, 51
2, 282129, Note_on_c, 0, 56, 45
2, 282142, Control_c, 0, 64, 127
2, 282264, Note_on_c, 0, 72, 51
2, 282321, Note_off_c, 0, 68, 52
2, 282415, Note_on_c, 0, 63, 52
2, 282464, Note_off_c, 0, 72, 52
2, 282528, Control_c, 0, 64, 0
2, 282554, Note_on_c, 0, 67, 53
2, 282581, Note_off_c, 0, 63, 53
2, 282698, Note_on_c, 0, 63, 60
2, 282700, Note_on_c, 0, 69, 54
2, 282727, Note_off_c, 0, 60, 52
2, 282734, Note_off_c, 0, 56, 51
2, 282777, Note_off_c, 0, 67, 53
2, 282854, Note_on_c, 0, 72, 54
2, 282944, Note_off_c, 0, 69, 53
2, 283013, Note_on_c, 0, 65, 55
2, 283082, Note_off_c, 0, 72, 53
2, 283167, Note_on_c, 0, 69, 56
2, 283222, Note_off_c, 0, 65, 53
2, 283322, Note_on_c, 0, 70, 57
2, 283324, Note_on_c, 0, 62, 76
2, 283353, Note_off_c, 0, 63, 55
2, 283373, Note_off_c, 0, 69, 54
2, 283495, Note_on_c, 0, 77, 57
2, 283579, Note_off_c, 0, 70, 54
2, 283643, Note_on_c, 0, 65, 56
2, 283706, Note_off_c, 0, 77, 54
2, 283807, Note_on_c, 0, 69, 54
2, 283850, Note_off_c, 0, 65, 54
2, 283941, Note_on_c, 0, 61, 55
2, 283944, Note_on_c, 0, 71, 52
2, 283967, Note_off_c, 0, 62, 59
2, 284001, Note_off_c, 0, 69, 53
2, 284078, Note_on_c, 0, 65, 51
2, 284139, Note_off_c, 0, 71, 53
2, 284215, Note_on_c, 0, 77, 49
2, 284285, Note_off_c, 0, 65, 52
2, 284352, Note_on_c, 0, 71, 47
2, 284380, Note_off_c, 0, 61, 53
2, 284429, Note_off_c, 0, 77, 52
2, 284454, Note_off_c, 0, 71, 51
2, 284489, Note_on_c, 0, 72, 45
2, 284491, Note_on_c, 0, 48, 41
2, 284593, Note_on_c, 0, 52, 42
2, 284680, Note_off_c, 0, 52, 50
2, 284684, Note_on_c, 0, 55, 44
2, 284786, Note_off_c, 0, 55, 51
2, 284791, Note_on_c, 0, 52, 46
2, 284885, Note_off_c, 0, 52, 51
2, 284887, Note_on_c, 0, 55, 47
2, 284996, Note_off_c, 0, 55, 51
2, 284997, Note_on_c, 0, 52, 49
2, 285108, Note_off_c, 0, 52, 52
2, 285110, Note_off_c, 0, 72, 51
2, 285112, Note_off_c, 0, 48, 50
2, 285112, Note_on_c, 0, 47, 51
2, 285193, Note_on_c, 0, 50, 53
2, 285282, Note_off_c, 0, 50, 53
2, 285287, Note_on_c, 0, 55, 53
2, 285391, Note_off_c, 0, 55, 53
2, 285393, Note_on_c, 0, 89, 69
2, 285396, Note_on_c, 0, 50, 53
2, 285483, Note_off_c, 0, 50, 53
2, 285485, Note_on_c, 0, 55, 51
2, 285540, Note_off_c, 0, 89, 57
2, 285578, Note_off_c, 0, 55, 52
2, 285580, Note_on_c, 0, 50, 49
2, 285689, Note_off_c, 0, 50, 52
2, 285691, Note_off_c, 0, 47, 52
2, 285692, Note_on_c, 0, 48, 47
2, 285694, Note_on_c, 0, 89, 67
2, 285774, Note_on_c, 0, 52, 45
2, 285883, Note_off_c, 0, 52, 51
2, 285885, Note_on_c, 0, 55, 43
2, 285974, Note_off_c, 0, 55, 50
2, 285976, Note_on_c, 0, 88, 57
2, 285978, Note_on_c, 0, 52, 41
2, 286005, Note_off_c, 0, 89, 57
2, 286084, Note_off_c, 0, 52, 50
2, 286087, Note_on_c, 0, 55, 41
2, 286199, Note_off_c, 0, 55, 50
2, 286202, Note_on_c, 0, 52, 44
2, 286217, Note_off_c, 0, 88, 54
2, 286293, Note_off_c, 0, 52, 51
2, 286295, Note_off_c, 0, 48, 51
2, 286297, Note_on_c, 0, 50, 47
2, 286393, Note_on_c, 0, 53, 50
2, 286485, Note_off_c, 0, 53, 52
2, 286489, Note_on_c, 0, 55, 53
2, 286575, Note_off_c, 0, 55, 53
2, 286577, Note_on_c, 0, 83, 63
2, 286579, Note_on_c, 0, 77, 75
2, 286581, Note_on_c, 0, 53, 53
2, 286684, Note_off_c, 0, 53, 53
2, 286687, Note_on_c, 0, 55, 53
2, 286783, Note_off_c, 0, 55, 53
2, 286785, Note_on_c, 0, 53, 51
2, 286802, Note_off_c, 0, 77, 59
2, 286857, Note_off_c, 0, 83, 55
2, 286859, Note_off_c, 0, 50, 51
2, 286862, Note_off_c, 0, 53, 52
2, 286876, Note_on_c, 0, 77, 73
2, 286878, Note_on_c, 0, 84, 61
2, 286880, Note_on_c, 0, 48, 49
2, 286977, Note_on_c, 0, 52, 47
2, 287068, Note_off_c, 0, 52, 51
2, 287071, Note_on_c, 0, 55, 45
2, 287179, Note_off_c, 0, 55, 51
2, 287181, Note_on_c, 0, 76, 63
2, 287183, Note_on_c, 0, 52, 43
2, 287227, Note_off_c, 0, 77, 58
2, 287287, Note_off_c, 0, 52, 50
2, 287288, Note_on_c, 0, 55, 41
2, 287382, Note_off_c, 0, 55, 50
2, 287385, Note_on_c, 0, 52, 41
2, 287423, Note_off_c, 0, 76, 55
2, 287494, Note_off_c, 0, 84, 55
2, 287497, Note_off_c, 0, 52, 50
2, 287498, Note_off_c, 0, 48, 52
2, 287500, Note_on_c, 0, 47, 41
2, 287579, Note_on_c, 0, 50, 45
2, 287671, Note_off_c, 0, 50, 51
2, 287673, Note_on_c, 0, 55, 49
2, 287781, Note_off_c, 0, 55, 52
2, 287783, Note_on_c, 0, 89, 81
2, 287784, Note_on_c, 0, 50, 53
2, 287868, Note_off_c, 0, 50, 53
2, 287873, Note_on_c, 0, 55, 53
2, 287926, Note_off_c, 0, 89, 60
2, 287965, Note_off_c, 0, 55, 53
2, 287969, Note_on_c, 0, 50, 52
2, 288080, Note_off_c, 0, 50, 53
2, 288081, Note_off_c, 0, 47, 50
2, 288083, Note_on_c, 0, 89, 69
2, 288086, Note_on_c, 0, 48, 50
2, 288167, Note_on_c, 0, 52, 48
2, 288215, Note_on_c, 0, 88, 66
2, 288242, Note_off_c, 0, 89, 57
2, 288270, Note_off_c, 0, 52, 52
2, 288273, Note_on_c, 0, 55, 46
2, 288382, Note_off_c, 0, 55, 51
2, 288383, Note_on_c, 0, 86, 57
2, 288385, Note_on_c, 0, 52, 41
2, 288406, Note_off_c, 0, 88, 56
2, 288470, Note_off_c, 0, 52, 50
2, 288472, Note_on_c, 0, 55, 41
2, 288530, Note_on_c, 0, 84, 57
2, 288555, Note_off_c, 0, 86, 54
2, 288587, Note_off_c, 0, 55, 50
2, 288590, Note_on_c, 0, 52, 44
2, 288645, Note_off_c, 0, 84, 54
2, 288680, Note_off_c, 0, 52, 51
2, 288682, Note_off_c, 0, 48, 52
2, 288684, Note_on_c, 0, 50, 47
2, 288781, Note_on_c, 0, 53, 50
2, 288873, Note_off_c, 0, 53, 52
2, 288876, Note_on_c, 0, 55, 53
2, 288965, Note_off_c, 0, 55, 53
2, 288967, Note_on_c, 0, 77, 87
2, 288969, Note_on_c, 0, 83, 75
2, 288969, Note_on_c, 0, 53, 53
2, 289077, Note_off_c, 0, 53, 53
2, 289079, Note_on_c, 0, 55, 53
2, 289173, Note_off_c, 0, 55, 53
2, 289175, Note_on_c, 0, 53, 52
2, 289204, Note_off_c, 0, 77, 61
2, 289245, Note_off_c, 0, 83, 59
2, 289249, Note_off_c, 0, 53, 53
2, 289250, Note_off_c, 0, 50, 51
2, 289264, Note_on_c, 0, 77, 75
2, 289266, Note_on_c, 0, 84, 63
2, 289268, Note_on_c, 0, 48, 50
2, 289367, Note_on_c, 0, 52, 48
2, 289422, Note_on_c, 0, 76, 75
2, 289451, Note_off_c, 0, 77, 59
2, 289472, Note_off_c, 0, 52, 52
2, 289474, Note_on_c, 0, 55, 47
2, 289566, Note_off_c, 0, 55, 51
2, 289568, Note_on_c, 0, 74, 68
2, 289570, Note_on_c, 0, 52, 45
2, 289592, Note_off_c, 0, 76, 59
2, 289675, Note_off_c, 0, 52, 51
2, 289677, Note_on_c, 0, 55, 43
2, 289731, Note_on_c, 0, 72, 63
2, 289760, Note_off_c, 0, 74, 57
2, 289768, Note_off_c, 0, 55, 50
2, 289770, Note_on_c, 0, 52, 41
2, 289850, Note_off_c, 0, 72, 55
2, 289882, Note_off_c, 0, 48, 52
2, 289884, Note_off_c, 0, 84, 55
2, 289886, Note_off_c, 0, 52, 50
2, 289888, Note_on_c, 0, 50, 41
2, 289971, Note_on_c, 0, 53, 47
2, 290076, Note_off_c, 0, 53, 51
2, 290078, Note_on_c, 0, 55, 53
2, 290166, Note_off_c, 0, 55, 53
2, 290168, Note_on_c, 0, 83, 69
2, 290170, Note_on_c, 0, 77, 81
2, 290172, Note_on_c, 0, 53, 53
2, 290259, Note_off_c, 0, 53, 53
2, 290261, Note_on_c, 0, 55, 53
2, 290371, Note_off_c, 0, 55, 53
2, 290375, Note_on_c, 0, 53, 52
2, 290383, Note_off_c, 0, 77, 60
2, 290449, Note_off_c, 0, 83, 57
2, 290452, Note_off_c, 0, 53, 53
2, 290453, Note_off_c, 0, 50, 50
2, 290466, Note_on_c, 0, 84, 63
2, 290468, Note_on_c, 0, 77, 75
2, 290471, Note_on_c, 0, 48, 50
2, 290571, Note_on_c, 0, 52, 48
2, 290605, Note_on_c, 0, 76, 75
2, 290637, Note_off_c, 0, 77, 59
2, 290658, Note_off_c, 0, 52, 52
2, 290660, Note_on_c, 0, 55, 47
2, 290769, Note_off_c, 0, 55, 51
2, 290771, Note_on_c, 0, 74, 63
2, 290773, Note_on_c, 0, 52, 45
2, 290797, Note_off_c, 0, 76, 59
2, 290862, Note_off_c, 0, 52, 51
2, 290864, Note_on_c, 0, 55, 43
2, 290914, Note_on_c, 0, 72, 63
2, 290945, Note_off_c, 0, 74, 55
2, 290970, Note_off_c, 0, 55, 50
2, 290975, Note_on_c, 0, 52, 41
2, 291052, Note_off_c, 0, 72, 55
2, 291085, Note_off_c, 0, 48, 52
2, 291087, Note_off_c, 0, 84, 55
2, 291090, Note_off_c, 0, 52, 50
2, 291091, Note_on_c, 0, 50, 41
2, 291174, Note_on_c, 0, 53, 43
2, 291261, Note_off_c, 0, 53, 50
2, 291262, Note_on_c, 0, 55, 45
2, 291369, Note_off_c, 0, 55, 51
2, 291371, Note_on_c, 0, 77, 75
2, 291373, Note_on_c, 0, 83, 63
2, 291375, Note_on_c, 0, 53, 47
2, 291464, Note_off_c, 0, 53, 51
2, 291466, Note_on_c, 0, 55, 49
2, 291559, Note_off_c, 0, 55, 52
2, 291560, Note_on_c, 0, 53, 51
2, 291620, Note_off_c, 0, 77, 59
2, 291654, Note_off_c, 0, 53, 52
2, 291657, Note_off_c, 0, 83, 55
2, 291658, Note_off_c, 0, 50, 50
2, 291674, Note_on_c, 0, 77, 75
2, 291676, Note_on_c, 0, 84, 63
2, 291679, Note_on_c, 0, 48, 52
2, 291692, Control_c, 0, 64, 127
2, 291724, Note_on_c, 0, 52, 54
2, 291785, Note_on_c, 0, 55, 57
2, 291813, Note_on_c, 0, 76, 75
2, 291841, Note_off_c, 0, 77, 59
2, 291952, Note_on_c, 0, 74, 69
2, 291976, Note_off_c, 0, 76, 59
2, 292078, Control_c, 0, 64, 0
2, 292088, Note_on_c, 0, 72, 63
2, 292117, Note_off_c, 0, 74, 57
2, 292223, Note_off_c, 0, 52, 53
2, 292225, Note_off_c, 0, 84, 55
2, 292228, Note_off_c, 0, 48, 53
2, 292231, Note_on_c, 0, 71, 57
2, 292251, Note_off_c, 0, 72, 55
2, 292335, Note_off_c, 0, 55, 54
2, 292381, Note_on_c, 0, 72, 57
2, 292408, Note_off_c, 0, 71, 54
2, 292528, Note_on_c, 0, 74, 60
2, 292557, Note_off_c, 0, 72, 54
2, 292688, Note_on_c, 0, 72, 63
2, 292708, Note_off_c, 0, 74, 55
2, 292839, Note_on_c, 0, 71, 66
2, 292868, Note_off_c, 0, 72, 55
2, 292993, Note_on_c, 0, 72, 69
2, 293024, Note_off_c, 0, 71, 56
2, 293164, Note_on_c, 0, 74, 69
2, 293192, Note_off_c, 0, 72, 57
2, 293319, Note_on_c, 0, 72, 69
2, 293349, Note_off_c, 0, 74, 57
2, 293476, Note_on_c, 0, 71, 65
2, 293504, Note_off_c, 0, 72, 57
2, 293608, Note_on_c, 0, 72, 61
2, 293641, Note_off_c, 0, 71, 56
2, 293764, Note_on_c, 0, 73, 57
2, 293792, Note_off_c, 0, 72, 55
2, 293919, Note_on_c, 0, 74, 57
2, 293944, Note_off_c, 0, 73, 54
2, 293996, Note_off_c, 0, 74, 54
2, 294045, Note_on_c, 0, 74, 72
2, 294049, Control_c, 0, 64, 127
2, 294057, Note_on_c, 0, 58, 54
2, 294060, Note_on_c, 0, 60, 39
2, 294339, Note_on_c, 0, 70, 65
2, 294348, Note_on_c, 0, 55, 47
2, 294364, Note_off_c, 0, 74, 58
2, 294369, Note_off_c, 0, 58, 53
2, 294413, Note_off_c, 0, 60, 49
2, 294435, Control_c, 0, 64, 0
2, 294579, Note_off_c, 0, 70, 56
2, 294587, Note_off_c, 0, 55, 51
2, 294649, Note_on_c, 0, 67, 63
2, 294657, Note_on_c, 0, 52, 45
2, 294659, Note_on_c, 0, 60, 33
2, 294730, Note_off_c, 0, 67, 55
2, 294789, Note_off_c, 0, 52, 51
2, 294838, Note_off_c, 0, 60, 48
2, 294903, Note_on_c, 0, 69, 57
2, 294978, Note_off_c, 0, 69, 54
2, 294980, Note_on_c, 0, 70, 57
2, 294982, Note_on_c, 0, 60, 27
2, 294984, Note_on_c, 0, 53, 39
2, 295051, Note_on_c, 0, 69, 57
2, 295059, Note_off_c, 0, 70, 54
2, 295082, Note_off_c, 0, 53, 49
2, 295120, Note_on_c, 0, 67, 63
2, 295126, Note_off_c, 0, 69, 54
2, 295157, Note_off_c, 0, 60, 46
2, 295189, Note_on_c, 0, 69, 69
2, 295197, Note_off_c, 0, 67, 55
2, 295251, Note_on_c, 0, 74, 72
2, 295257, Note_on_c, 0, 58, 54
2, 295259, Note_on_c, 0, 60, 39
2, 295263, Note_off_c, 0, 69, 57
2, 295265, Control_c, 0, 64, 127
2, 295521, Note_on_c, 0, 70, 65
2, 295531, Note_on_c, 0, 55, 47
2, 295551, Note_off_c, 0, 74, 58
2, 295556, Note_off_c, 0, 58, 53
2, 295627, Note_off_c, 0, 60, 49
2, 295647, Control_c, 0, 64, 0
2, 295765, Note_off_c, 0, 70, 56
2, 295771, Note_off_c, 0, 55, 51
2, 295848, Note_on_c, 0, 67, 66
2, 295856, Note_on_c, 0, 52, 50
2, 295858, Note_on_c, 0, 60, 38
2, 295923, Note_off_c, 0, 67, 56
2, 295965, Note_off_c, 0, 52, 52
2, 296072, Note_off_c, 0, 60, 49
2, 296100, Note_on_c, 0, 69, 62
2, 296163, Note_on_c, 0, 53, 48
2, 296165, Note_on_c, 0, 70, 63
2, 296167, Note_on_c, 0, 60, 36
2, 296175, Note_off_c, 0, 69, 55
2, 296232, Note_on_c, 0, 69, 62
2, 296240, Note_off_c, 0, 70, 55
2, 296258, Note_off_c, 0, 53, 52
2, 296300, Note_on_c, 0, 67, 61
2, 296308, Note_off_c, 0, 69, 55
2, 296371, Note_on_c, 0, 69, 60
2, 296380, Note_off_c, 0, 67, 55
2, 296432, Note_on_c, 0, 70, 58
2, 296437, Note_off_c, 0, 60, 49
2, 296440, Note_on_c, 0, 46, 36
2, 296442, Note_on_c, 0, 67, 53
2, 296444, Note_off_c, 0, 69, 55
2, 296448, Note_on_c, 0, 58, 40
2, 296450, Note_on_c, 0, 62, 52
2, 296532, Note_off_c, 0, 58, 50
2, 296541, Note_off_c, 0, 46, 49
2, 296546, Note_off_c, 0, 62, 53
2, 296549, Note_off_c, 0, 67, 53
2, 296565, Note_off_c, 0, 70, 54
2, 297051, Note_on_c, 0, 67, 58
2, 297053, Note_on_c, 0, 48, 33
2, 297060, Note_on_c, 0, 55, 36
2, 297062, Note_on_c, 0, 64, 45
2, 297064, Note_on_c, 0, 52, 35
2, 297065, Note_on_c, 0, 60, 44
2, 297159, Note_off_c, 0, 60, 51
2, 297161, Note_off_c, 0, 52, 48
2, 297165, Note_off_c, 0, 48, 48
2, 297176, Note_off_c, 0, 55, 49
2, 297182, Note_off_c, 0, 64, 51
2, 297187, Note_off_c, 0, 67, 54
2, 297713, Control_c, 0, 64, 127
2, 297770, Note_on_c, 0, 69, 50
2, 297794, Note_on_c, 0, 41, 28
2, 297796, Note_on_c, 0, 53, 33
2, 297799, Note_on_c, 0, 65, 38
2, 297800, Note_on_c, 0, 60, 37
2, 297804, Note_on_c, 0, 48, 30
2, 298207, Note_off_c, 0, 41, 47
2, 298215, Note_off_c, 0, 48, 47
2, 298217, Note_off_c, 0, 53, 48
2, 298220, Note_off_c, 0, 69, 52
2, 298242, Note_off_c, 0, 65, 49
2, 298243, Note_off_c, 0, 60, 49
2, 298694, Control_c, 0, 64, 0
2, 298935, Note_on_c, 0, 72, 57
2, 298941, Note_on_c, 0, 68, 54
2, 299006, Note_on_c, 0, 84, 57
2, 299076, Note_on_c, 0, 80, 57
2, 299093, Note_off_c, 0, 72, 54
2, 299100, Note_off_c, 0, 84, 54
2, 299144, Note_on_c, 0, 72, 57
2, 299156, Note_off_c, 0, 80, 54
2, 299216, Note_on_c, 0, 73, 93
2, 299217, Note_on_c, 0, 70, 87
2, 299223, Control_c, 0, 64, 127
2, 299231, Note_off_c, 0, 72, 54
2, 299234, Note_off_c, 0, 68, 53
2, 299283, Note_on_c, 0, 85, 93
2, 299348, Note_on_c, 0, 82, 93
2, 299368, Note_off_c, 0, 85, 63
2, 299436, Note_on_c, 0, 72, 93
2, 299456, Note_off_c, 0, 82, 63
2, 299459, Note_off_c, 0, 70, 61
2, 299487, Note_off_c, 0, 72, 63
2, 299505, Note_on_c, 0, 67, 67
2, 299507, Note_on_c, 0, 70, 69
2, 299511, Note_off_c, 0, 73, 63
2, 299571, Note_on_c, 0, 82, 91
2, 299611, Control_c, 0, 64, 0
2, 299643, Note_on_c, 0, 79, 90
2, 299663, Note_off_c, 0, 82, 62
2, 299708, Note_off_c, 0, 70, 57
2, 299712, Note_off_c, 0, 67, 57
2, 299714, Note_on_c, 0, 72, 89
2, 299730, Note_off_c, 0, 79, 62
2, 299779, Note_on_c, 0, 64, 66
2, 299781, Note_on_c, 0, 67, 69
2, 299803, Note_off_c, 0, 72, 62
2, 299843, Note_off_c, 0, 67, 57
2, 299846, Note_off_c, 0, 64, 56
2, 299848, Note_on_c, 0, 79, 87
2, 299935, Note_on_c, 0, 76, 86
2, 299952, Note_off_c, 0, 79, 61
2, 300019, Note_on_c, 0, 72, 85
2, 300040, Note_off_c, 0, 76, 61
2, 300088, Note_on_c, 0, 65, 81
2, 300089, Note_on_c, 0, 68, 81
2, 300107, Note_off_c, 0, 72, 61
2, 300152, Note_off_c, 0, 65, 60
2, 300153, Note_off_c, 0, 68, 60
2, 300171, Note_on_c, 0, 80, 83
2, 300242, Note_on_c, 0, 77, 82
2, 300266, Note_off_c, 0, 80, 60
2, 300327, Note_on_c, 0, 72, 81
2, 300345, Note_off_c, 0, 77, 60
2, 300388, Note_on_c, 0, 73, 93
2, 300398, Note_on_c, 0, 70, 90
2, 300400, Note_off_c, 0, 72, 60
2, 300404, Control_c, 0, 64, 127
2, 300463, Note_on_c, 0, 85, 93
2, 300548, Note_on_c, 0, 82, 93
2, 300567, Note_off_c, 0, 85, 63
2, 300613, Note_off_c, 0, 70, 62
2, 300619, Note_on_c, 0, 72, 93
2, 300638, Note_off_c, 0, 82, 63
2, 300685, Note_off_c, 0, 72, 63
2, 300689, Note_on_c, 0, 67, 66
2, 300691, Note_on_c, 0, 70, 69
2, 300699, Note_off_c, 0, 73, 63
2, 300756, Note_on_c, 0, 82, 91
2, 300789, Control_c, 0, 64, 0
2, 300824, Note_on_c, 0, 79, 90
2, 300843, Note_off_c, 0, 82, 62
2, 300895, Note_on_c, 0, 72, 89
2, 300899, Note_off_c, 0, 67, 56
2, 300914, Note_off_c, 0, 79, 62
2, 300960, Note_on_c, 0, 64, 66
2, 300962, Note_on_c, 0, 67, 69
2, 300974, Note_off_c, 0, 70, 57
2, 300983, Note_off_c, 0, 72, 62
2, 301019, Note_off_c, 0, 67, 57
2, 301022, Note_off_c, 0, 64, 56
2, 301046, Note_on_c, 0, 79, 87
2, 301118, Note_on_c, 0, 76, 86
2, 301139, Note_off_c, 0, 79, 61
2, 301202, Note_on_c, 0, 72, 85
2, 301220, Note_off_c, 0, 76, 61
2, 301287, Note_on_c, 0, 68, 81
2, 301288, Note_on_c, 0, 65, 78
2, 301308, Note_off_c, 0, 72, 61
2, 301346, Note_off_c, 0, 65, 59
2, 301349, Note_off_c, 0, 68, 60
2, 301356, Note_on_c, 0, 80, 83
2, 301441, Note_on_c, 0, 77, 82
2, 301467, Note_off_c, 0, 80, 60
2, 301527, Note_on_c, 0, 72, 81
2, 301548, Note_off_c, 0, 77, 60
2, 301591, Note_off_c, 0, 72, 60
2, 301611, Note_on_c, 0, 82, 87
2, 301628, Note_on_c, 0, 79, 74
2, 301632, Note_on_c, 0, 58, 65
2, 301634, Note_on_c, 0, 67, 68
2, 301636, Note_on_c, 0, 73, 74
2, 301638, Note_on_c, 0, 61, 68
2, 301779, Note_off_c, 0, 73, 59
2, 301802, Note_off_c, 0, 61, 57
2, 301805, Note_off_c, 0, 79, 59
2, 301807, Note_off_c, 0, 67, 57
2, 301811, Note_off_c, 0, 58, 56
2, 301827, Note_off_c, 0, 82, 61
2, 302258, Note_on_c, 0, 79, 71
2, 302274, Note_on_c, 0, 76, 65
2, 302280, Note_on_c, 0, 70, 65
2, 302282, Note_on_c, 0, 60, 59
2, 302285, Note_on_c, 0, 64, 60
2, 302287, Note_on_c, 0, 67, 60
2, 302421, Note_off_c, 0, 64, 55
2, 302437, Note_off_c, 0, 67, 55
2, 302450, Note_off_c, 0, 60, 54
2, 302452, Note_off_c, 0, 70, 56
2, 302456, Note_off_c, 0, 76, 56
2, 302483, Note_off_c, 0, 79, 58
2, 302947, Note_on_c, 0, 77, 72
2, 302955, Note_on_c, 0, 73, 63
2, 302966, Note_on_c, 0, 68, 60
2, 302970, Note_on_c, 0, 61, 58
2, 302972, Note_on_c, 0, 65, 61
2, 303114, Note_off_c, 0, 68, 55
2, 303129, Note_off_c, 0, 73, 55
2, 303131, Note_off_c, 0, 65, 55
2, 303156, Note_off_c, 0, 61, 54
2, 303194, Note_off_c, 0, 77, 58
2, 304322, Control_c, 0, 64, 127
2, 304351, Note_on_c, 0, 65, 41
2, 304367, Note_on_c, 0, 35, 25
2, 304370, Note_on_c, 0, 56, 30
2, 304374, Note_on_c, 0, 47, 30
2, 304377, Note_on_c, 0, 62, 31
2, 304876, Note_off_c, 0, 47, 47
2, 304901, Note_off_c, 0, 62, 47
2, 304906, Note_off_c, 0, 56, 47
2, 304911, Note_off_c, 0, 35, 46
2, 304919, Note_off_c, 0, 65, 50
2, 305367, Control_c, 0, 64, 0
2, 305807, Note_on_c, 0, 48, 27
2, 305810, Note_on_c, 0, 46, 39
2, 305864, Note_off_c, 0, 48, 46
2, 305873, Note_off_c, 0, 46, 49
2, 305936, Note_on_c, 0, 64, 52
2, 305946, Note_on_c, 0, 55, 40
2, 306083, Note_off_c, 0, 55, 50
2, 306085, Note_on_c, 0, 40, 40
2, 306087, Note_on_c, 0, 48, 28
2, 306089, Note_off_c, 0, 64, 53
2, 306138, Note_off_c, 0, 40, 50
2, 306146, Note_off_c, 0, 48, 47
2, 306212, Note_on_c, 0, 67, 54
2, 306222, Note_on_c, 0, 58, 42
2, 306374, Note_off_c, 0, 58, 50
2, 306378, Note_off_c, 0, 67, 53
2, 306380, Note_on_c, 0, 41, 42
2, 306382, Note_on_c, 0, 48, 30
2, 306431, Note_off_c, 0, 41, 50
2, 306433, Note_off_c, 0, 48, 47
2, 306503, Note_on_c, 0, 65, 57
2, 306510, Note_on_c, 0, 57, 45
2, 306650, Note_off_c, 0, 57, 51
2, 306652, Note_on_c, 0, 36, 43
2, 306654, Note_off_c, 0, 65, 54
2, 306654, Note_on_c, 0, 48, 31
2, 306707, Note_off_c, 0, 48, 47
2, 306711, Note_off_c, 0, 36, 50
2, 306777, Note_on_c, 0, 69, 59
2, 306782, Note_on_c, 0, 65, 47
2, 306923, Note_off_c, 0, 65, 51
2, 306926, Note_on_c, 0, 43, 45
2, 306928, Note_off_c, 0, 69, 54
2, 306928, Note_on_c, 0, 48, 33
2, 306985, Note_off_c, 0, 43, 51
2, 306988, Note_off_c, 0, 48, 48
2, 307050, Note_on_c, 0, 70, 61
2, 307058, Note_on_c, 0, 64, 49
2, 307211, Note_off_c, 0, 64, 52
2, 307213, Note_on_c, 0, 36, 47
2, 307215, Note_on_c, 0, 48, 35
2, 307217, Note_off_c, 0, 70, 55
2, 307274, Note_off_c, 0, 48, 48
2, 307282, Note_off_c, 0, 36, 51
2, 307343, Note_on_c, 0, 76, 64
2, 307350, Note_on_c, 0, 70, 52
2, 307485, Note_off_c, 0, 70, 53
2, 307486, Note_off_c, 0, 76, 56
2, 307488, Note_on_c, 0, 41, 48
2, 307490, Note_on_c, 0, 48, 36
2, 307545, Note_off_c, 0, 48, 49
2, 307552, Note_off_c, 0, 41, 52
2, 307619, Note_on_c, 0, 77, 66
2, 307622, Note_on_c, 0, 69, 54
2, 307761, Note_off_c, 0, 69, 53
2, 307764, Note_off_c, 0, 77, 56
2, 307765, Note_on_c, 0, 36, 50
2, 307765, Note_on_c, 0, 48, 38
2, 307818, Note_off_c, 0, 48, 49
2, 307820, Note_off_c, 0, 36, 52
2, 307893, Note_on_c, 0, 81, 69
2, 307898, Note_on_c, 0, 77, 63
2, 308037, Note_off_c, 0, 77, 55
2, 308039, Note_off_c, 0, 81, 57
2, 308041, Note_on_c, 0, 48, 39
2, 308041, Note_on_c, 0, 43, 51
2, 308099, Note_off_c, 0, 43, 52
2, 308101, Note_off_c, 0, 48, 49
2, 308180, Note_on_c, 0, 82, 71
2, 308190, Note_on_c, 0, 76, 65
2, 308325, Note_off_c, 0, 76, 56
2, 308326, Note_off_c, 0, 82, 58
2, 308328, Note_on_c, 0, 48, 41
2, 308330, Note_on_c, 0, 46, 53
2, 308387, Note_off_c, 0, 48, 50
2, 308389, Note_off_c, 0, 46, 53
2, 308455, Note_on_c, 0, 84, 73
2, 308462, Note_on_c, 0, 79, 61
2, 308468, Note_on_c, 0, 76, 59
2, 308601, Note_off_c, 0, 76, 54
2, 308602, Note_off_c, 0, 79, 55
2, 308605, Note_off_c, 0, 84, 58
2, 308607, Note_on_c, 0, 45, 55
2, 308608, Note_on_c, 0, 48, 43
2, 308660, Note_off_c, 0, 48, 50
2, 308662, Note_off_c, 0, 45, 53
2, 308727, Note_on_c, 0, 84, 70
2, 308737, Note_on_c, 0, 81, 64
2, 308742, Note_on_c, 0, 77, 62
2, 308875, Note_off_c, 0, 77, 55
2, 308876, Note_off_c, 0, 81, 56
2, 308878, Note_on_c, 0, 41, 56
2, 308880, Note_on_c, 0, 48, 44
2, 308881, Note_off_c, 0, 84, 57
2, 308937, Note_off_c, 0, 41, 54
2, 308941, Note_off_c, 0, 48, 51
2, 309020, Note_on_c, 0, 89, 78
2, 309032, Note_on_c, 0, 84, 66
2, 309034, Note_on_c, 0, 81, 64
2, 309167, Note_off_c, 0, 84, 56
2, 309169, Note_off_c, 0, 81, 56
2, 309171, Note_off_c, 0, 89, 59
2, 309173, Note_on_c, 0, 48, 46
2, 309173, Note_on_c, 0, 43, 58
2, 309225, Note_off_c, 0, 48, 51
2, 309229, Note_off_c, 0, 43, 54
2, 309294, Note_on_c, 0, 88, 81
2, 309301, Note_on_c, 0, 84, 69
2, 309305, Note_on_c, 0, 79, 67
2, 309440, Note_off_c, 0, 79, 57
2, 309442, Note_off_c, 0, 84, 57
2, 309445, Note_off_c, 0, 88, 60
2, 309445, Note_on_c, 0, 48, 47
2, 309447, Note_on_c, 0, 46, 59
2, 309503, Note_off_c, 0, 48, 51
2, 309505, Note_off_c, 0, 46, 54
2, 309566, Note_on_c, 0, 84, 83
2, 309576, Note_on_c, 0, 79, 71
2, 309579, Note_on_c, 0, 76, 69
2, 309714, Note_off_c, 0, 76, 57
2, 309715, Note_off_c, 0, 79, 58
2, 309718, Note_on_c, 0, 45, 61
2, 309720, Note_on_c, 0, 48, 49
2, 309722, Note_off_c, 0, 84, 60
2, 309782, Note_off_c, 0, 48, 52
2, 309785, Note_off_c, 0, 45, 55
2, 309841, Note_on_c, 0, 84, 85
2, 309854, Note_on_c, 0, 81, 73
2, 309856, Note_on_c, 0, 77, 71
2, 309985, Note_off_c, 0, 81, 58
2, 309990, Note_off_c, 0, 77, 58
2, 309992, Note_off_c, 0, 84, 61
2, 309994, Note_on_c, 0, 41, 63
2, 309996, Note_on_c, 0, 48, 51
2, 310056, Note_off_c, 0, 41, 55
2, 310057, Note_off_c, 0, 48, 52
2, 310118, Note_on_c, 0, 89, 87
2, 310128, Note_on_c, 0, 81, 73
2, 310130, Note_on_c, 0, 84, 75
2, 310258, Note_off_c, 0, 84, 59
2, 310266, Control_c, 0, 64, 127
2, 310267, Note_off_c, 0, 81, 58
2, 310270, Note_off_c, 0, 89, 61
2, 310272, Note_on_c, 0, 46, 81
2, 310280, Note_on_c, 0, 55, 87
2, 310282, Note_on_c, 0, 50, 85
2, 310537, Note_off_c, 0, 46, 60
2, 310539, Note_on_c, 0, 86, 80
2, 310548, Note_off_c, 0, 55, 61
2, 310553, Note_off_c, 0, 50, 61
2, 310638, Note_on_c, 0, 85, 79
2, 310649, Control_c, 0, 64, 0
2, 310657, Note_off_c, 0, 86, 60
2, 310724, Note_on_c, 0, 88, 79
2, 310741, Note_off_c, 0, 85, 60
2, 310794, Control_c, 0, 64, 127
2, 310796, Note_on_c, 0, 58, 69
2, 310810, Note_on_c, 0, 86, 78
2, 310812, Note_on_c, 0, 67, 75
2, 310814, Note_on_c, 0, 62, 72
2, 310815, Note_off_c, 0, 88, 60
2, 310898, Note_off_c, 0, 86, 59
2, 311084, Note_off_c, 0, 62, 58
2, 311086, Note_on_c, 0, 82, 77
2, 311103, Note_off_c, 0, 58, 57
2, 311112, Note_off_c, 0, 67, 59
2, 311177, Control_c, 0, 64, 0
2, 311185, Note_on_c, 0, 81, 76
2, 311201, Note_off_c, 0, 82, 59
2, 311273, Note_on_c, 0, 84, 76
2, 311282, Note_off_c, 0, 81, 59
2, 311350, Note_off_c, 0, 84, 59
2, 311357, Note_on_c, 0, 82, 75
2, 311433, Note_off_c, 0, 82, 59
2, 311630, Note_on_c, 0, 79, 74
2, 311736, Note_on_c, 0, 78, 73
2, 311756, Note_off_c, 0, 79, 59
2, 311821, Note_on_c, 0, 81, 73
2, 311838, Note_off_c, 0, 78, 58
2, 311890, Note_off_c, 0, 81, 58
2, 311924, Note_on_c, 0, 79, 72
2, 312012, Note_off_c, 0, 79, 58
2, 312197, Note_on_c, 0, 74, 71
2, 312281, Note_on_c, 0, 73, 70
2, 312298, Note_off_c, 0, 74, 58
2, 312386, Note_on_c, 0, 76, 70
2, 312401, Note_off_c, 0, 73, 57
2, 312470, Note_off_c, 0, 76, 57
2, 312471, Note_on_c, 0, 74, 69
2, 312561, Note_off_c, 0, 74, 57
2, 312746, Note_on_c, 0, 55, 72
2, 312748, Note_on_c, 0, 67, 93
2, 312754, Control_c, 0, 64, 127
2, 313314, Note_on_c, 0, 69, 77
2, 313316, Note_on_c, 0, 57, 78
2, 313328, Control_c, 0, 64, 0
2, 313330, Note_off_c, 0, 67, 63
2, 313332, Note_off_c, 0, 55, 58
2, 313433, Control_c, 0, 64, 127
2, 313450, Note_on_c, 0, 58, 79
2, 313452, Note_on_c, 0, 70, 79
2, 313470, Note_off_c, 0, 57, 59
2, 313472, Note_off_c, 0, 69, 59
2, 313549, Note_off_c, 0, 58, 60
2, 313551, Note_off_c, 0, 70, 60
2, 313577, Note_on_c, 0, 72, 81
2, 313586, Note_on_c, 0, 60, 81
2, 313601, Control_c, 0, 64, 0
2, 313705, Control_c, 0, 64, 127
2, 314150, Note_off_c, 0, 60, 60
2, 314152, Note_on_c, 0, 55, 63
2, 314154, Note_on_c, 0, 48, 60
2, 314156, Note_on_c, 0, 58, 74
2, 314160, Note_on_c, 0, 52, 61
2, 314177, Control_c, 0, 64, 0
2, 314237, Note_on_c, 0, 74, 79
2, 314245, Note_off_c, 0, 72, 60
2, 314280, Control_c, 0, 64, 127
2, 314338, Note_on_c, 0, 72, 77
2, 314365, Note_off_c, 0, 74, 60
2, 314425, Note_on_c, 0, 70, 75
2, 314444, Note_off_c, 0, 72, 59
2, 314530, Note_on_c, 0, 69, 73
2, 314545, Note_off_c, 0, 48, 55
2, 314551, Note_off_c, 0, 70, 59
2, 314556, Note_off_c, 0, 58, 59
2, 314575, Note_off_c, 0, 55, 55
2, 314612, Note_on_c, 0, 67, 71
2, 314636, Note_off_c, 0, 69, 58
2, 314652, Note_off_c, 0, 52, 55
2, 314681, Note_off_c, 0, 67, 58
2, 314718, Note_on_c, 0, 65, 69
2, 314724, Note_on_c, 0, 57, 57
2, 314726, Note_on_c, 0, 53, 53
2, 314741, Control_c, 0, 64, 0
2, 314845, Control_c, 0, 64, 127
2, 314915, Note_off_c, 0, 65, 57
2, 314971, Note_off_c, 0, 57, 54
2, 314976, Note_on_c, 0, 62, 79
2, 314981, Note_off_c, 0, 53, 53
2, 314990, Note_on_c, 0, 65, 72
2, 315007, Note_on_c, 0, 67, 81
2, 315017, Control_c, 0, 64, 0
2, 315032, Note_on_c, 0, 79, 93
2, 315053, Note_on_c, 0, 77, 84
2, 315120, Control_c, 0, 64, 127
2, 315538, Note_on_c, 0, 81, 81
2, 315540, Note_on_c, 0, 69, 76
2, 315574, Note_off_c, 0, 79, 63
2, 315577, Note_off_c, 0, 67, 60
2, 315625, Note_off_c, 0, 65, 58
2, 315667, Note_off_c, 0, 62, 60
2, 315696, Note_on_c, 0, 83, 81
2, 315698, Note_on_c, 0, 71, 74
2, 315713, Note_off_c, 0, 81, 60
2, 315717, Note_off_c, 0, 69, 59
2, 315793, Note_off_c, 0, 71, 59
2, 315796, Note_off_c, 0, 83, 60
2, 315804, Note_off_c, 0, 77, 61
2, 315821, Note_on_c, 0, 84, 82
2, 315828, Note_on_c, 0, 65, 69
2, 315830, Note_on_c, 0, 69, 71
2, 315835, Note_on_c, 0, 72, 77
2, 315839, Note_on_c, 0, 60, 67
2, 315881, Control_c, 0, 64, 0
2, 315982, Control_c, 0, 64, 127
2, 316207, Note_off_c, 0, 60, 57
2, 316246, Note_off_c, 0, 72, 59
2, 316289, Note_off_c, 0, 65, 57
2, 316321, Note_off_c, 0, 69, 58
2, 316373, Note_on_c, 0, 67, 62
2, 316381, Note_on_c, 0, 70, 68
2, 316383, Note_on_c, 0, 60, 59
2, 316421, Control_c, 0, 64, 0
2, 316447, Note_on_c, 0, 86, 88
2, 316453, Note_off_c, 0, 84, 60
2, 316519, Control_c, 0, 64, 127
2, 316534, Note_on_c, 0, 84, 89
2, 316553, Note_off_c, 0, 86, 62
2, 316603, Note_on_c, 0, 83, 89
2, 316625, Note_off_c, 0, 84, 62
2, 316668, Note_on_c, 0, 84, 90
2, 316692, Note_off_c, 0, 83, 62
2, 316757, Note_on_c, 0, 86, 91
2, 316781, Note_off_c, 0, 84, 62
2, 316800, Note_off_c, 0, 70, 57
2, 316825, Note_off_c, 0, 60, 54
2, 316855, Note_off_c, 0, 67, 55
2, 316860, Note_on_c, 0, 88, 92
2, 316879, Note_off_c, 0, 86, 62
2, 316924, Note_off_c, 0, 88, 62
2, 316944, Note_on_c, 0, 89, 96
2, 316948, Note_on_c, 0, 53, 45
2, 317021, Control_c, 0, 64, 0
2, 317030, Note_off_c, 0, 53, 51
2, 317032, Note_on_c, 0, 57, 45
2, 317134, Note_off_c, 0, 57, 51
2, 317136, Note_on_c, 0, 60, 45
2, 317218, Note_off_c, 0, 60, 51
2, 317219, Note_off_c, 0, 89, 63
2, 317221, Note_on_c, 0, 53, 46
2, 317321, Note_off_c, 0, 53, 51
2, 317323, Note_on_c, 0, 57, 47
2, 317408, Note_off_c, 0, 57, 51
2, 317410, Note_on_c, 0, 60, 48
2, 317501, Note_on_c, 0, 84, 69
2, 317508, Note_off_c, 0, 60, 52
2, 317511, Note_on_c, 0, 72, 57
2, 317512, Note_on_c, 0, 53, 49
2, 317593, Note_off_c, 0, 53, 52
2, 317595, Note_on_c, 0, 57, 49
2, 317605, Note_off_c, 0, 84, 57
2, 317616, Note_off_c, 0, 72, 54
2, 317677, Note_off_c, 0, 57, 52
2, 317683, Note_on_c, 0, 60, 50
2, 317779, Note_on_c, 0, 84, 67
2, 317782, Note_off_c, 0, 60, 52
2, 317786, Note_on_c, 0, 53, 51
2, 317787, Note_on_c, 0, 72, 55
2, 317869, Note_off_c, 0, 53, 52
2, 317871, Note_on_c, 0, 57, 52
2, 317878, Note_off_c, 0, 84, 57
2, 317893, Note_off_c, 0, 72, 53
2, 317973, Note_off_c, 0, 57, 53
2, 317975, Note_on_c, 0, 60, 53
2, 318053, Note_on_c, 0, 81, 57
2, 318058, Note_off_c, 0, 60, 53
2, 318060, Note_on_c, 0, 53, 53
2, 318062, Note_on_c, 0, 69, 45
2, 318162, Note_off_c, 0, 53, 53
2, 318164, Note_off_c, 0, 81, 54
2, 318165, Note_off_c, 0, 69, 51
2, 318166, Note_on_c, 0, 57, 54
2, 318248, Note_off_c, 0, 57, 53
2, 318249, Note_on_c, 0, 60, 55
2, 318332, Note_off_c, 0, 60, 53
2, 318334, Note_on_c, 0, 53, 56
2, 318434, Note_off_c, 0, 53, 54
2, 318435, Note_on_c, 0, 57, 57
2, 318517, Note_off_c, 0, 57, 54
2, 318520, Note_on_c, 0, 60, 57
2, 318616, Note_on_c, 0, 89, 69
2, 318621, Note_off_c, 0, 60, 54
2, 318625, Note_on_c, 0, 57, 57
2, 318627, Note_on_c, 0, 77, 57
2, 318708, Note_off_c, 0, 57, 54
2, 318710, Note_on_c, 0, 60, 55
2, 318725, Note_off_c, 0, 89, 57
2, 318727, Note_off_c, 0, 77, 54
2, 318813, Note_off_c, 0, 60, 53
2, 318815, Note_on_c, 0, 65, 53
2, 318887, Note_on_c, 0, 89, 67
2, 318895, Note_off_c, 0, 65, 53
2, 318900, Note_on_c, 0, 57, 50
2, 318902, Note_on_c, 0, 77, 55
2, 318997, Note_off_c, 0, 89, 57
2, 319001, Note_off_c, 0, 57, 52
2, 319003, Note_off_c, 0, 77, 53
2, 319005, Note_on_c, 0, 60, 48
2, 319086, Note_off_c, 0, 60, 52
2, 319088, Note_on_c, 0, 65, 45
2, 319164, Note_on_c, 0, 86, 57
2, 319174, Note_off_c, 0, 65, 51
2, 319176, Note_on_c, 0, 74, 45
2, 319178, Note_on_c, 0, 58, 45
2, 319178, Note_on_c, 0, 62, 45
2, 319273, Note_off_c, 0, 58, 51
2, 319275, Note_off_c, 0, 62, 51
2, 319277, Note_on_c, 0, 65, 47
2, 319281, Note_off_c, 0, 86, 54
2, 319288, Note_off_c, 0, 74, 51
2, 319361, Note_off_c, 0, 65, 51
2, 319363, Note_on_c, 0, 67, 49
2, 319462, Note_off_c, 0, 67, 52
2, 319463, Note_on_c, 0, 62, 51
2, 319465, Note_on_c, 0, 58, 51
2, 319548, Note_off_c, 0, 58, 52
2, 319549, Note_off_c, 0, 62, 52
2, 319552, Note_on_c, 0, 65, 53
2, 319654, Note_off_c, 0, 65, 53
2, 319656, Note_on_c, 0, 67, 55
2, 319736, Note_off_c, 0, 67, 53
2, 319737, Note_on_c, 0, 59, 57
2, 319740, Note_on_c, 0, 62, 57
2, 319741, Note_on_c, 0, 47, 75
2, 319822, Note_off_c, 0, 59, 54
2, 319824, Note_off_c, 0, 62, 54
2, 319826, Note_on_c, 0, 65, 57
2, 319874, Note_off_c, 0, 47, 59
2, 319924, Note_off_c, 0, 65, 54
2, 319926, Note_on_c, 0, 67, 56
2, 320012, Note_off_c, 0, 67, 54
2, 320013, Note_on_c, 0, 47, 82
2, 320016, Note_on_c, 0, 62, 55
2, 320017, Note_on_c, 0, 59, 55
2, 320111, Note_off_c, 0, 59, 53
2, 320114, Note_off_c, 0, 62, 53
2, 320115, Note_on_c, 0, 65, 54
2, 320145, Note_off_c, 0, 47, 60
2, 320200, Note_off_c, 0, 65, 53
2, 320202, Note_on_c, 0, 67, 53
2, 320299, Note_off_c, 0, 67, 53
2, 320301, Note_on_c, 0, 47, 84
2, 320306, Note_on_c, 0, 60, 62
2, 320371, Note_off_c, 0, 47, 61
2, 320373, Note_on_c, 0, 48, 78
2, 320386, Note_off_c, 0, 60, 55
2, 320388, Note_on_c, 0, 65, 70
2, 320435, Note_off_c, 0, 48, 59
2, 320438, Note_on_c, 0, 50, 77
2, 320474, Note_off_c, 0, 65, 57
2, 320476, Note_on_c, 0, 69, 69
2, 320507, Note_off_c, 0, 50, 59
2, 320509, Note_on_c, 0, 48, 77
2, 320572, Note_off_c, 0, 48, 59
2, 320577, Note_off_c, 0, 69, 57
2, 320579, Note_on_c, 0, 50, 76
2, 320581, Note_on_c, 0, 60, 68
2, 320642, Note_off_c, 0, 50, 59
2, 320644, Note_on_c, 0, 48, 76
2, 320659, Note_off_c, 0, 60, 57
2, 320660, Note_on_c, 0, 65, 67
2, 320709, Note_off_c, 0, 48, 59
2, 320712, Note_on_c, 0, 50, 75
2, 320762, Note_off_c, 0, 65, 57
2, 320764, Note_on_c, 0, 69, 66
2, 320782, Note_off_c, 0, 50, 59
2, 320783, Note_on_c, 0, 48, 75
2, 320850, Note_off_c, 0, 48, 59
2, 320853, Note_off_c, 0, 69, 56
2, 320855, Note_on_c, 0, 50, 74
2, 320855, Note_on_c, 0, 60, 65
2, 320917, Note_off_c, 0, 50, 59
2, 320918, Note_on_c, 0, 48, 73
2, 320949, Note_off_c, 0, 60, 56
2, 320954, Note_on_c, 0, 65, 63
2, 320985, Note_off_c, 0, 48, 58
2, 320987, Note_on_c, 0, 50, 73
2, 321035, Note_off_c, 0, 65, 55
2, 321037, Note_on_c, 0, 69, 62
2, 321054, Note_off_c, 0, 50, 58
2, 321056, Note_on_c, 0, 48, 72
2, 321141, Note_off_c, 0, 48, 58
2, 321143, Note_off_c, 0, 69, 55
2, 321145, Note_on_c, 0, 50, 72
2, 321147, Note_on_c, 0, 60, 61
2, 321209, Note_off_c, 0, 50, 58
2, 321211, Note_on_c, 0, 48, 72
2, 321225, Note_off_c, 0, 60, 55
2, 321228, Note_on_c, 0, 65, 60
2, 321276, Note_off_c, 0, 48, 58
2, 321312, Note_off_c, 0, 65, 55
2, 321314, Note_on_c, 0, 47, 75
2, 321351, Note_on_c, 0, 69, 59
2, 321386, Note_off_c, 0, 47, 59
2, 321425, Note_on_c, 0, 48, 78
2, 321458, Note_off_c, 0, 69, 54
2, 321491, Note_off_c, 0, 48, 59
2, 321537, Note_on_c, 0, 53, 38
2, 321540, Note_on_c, 0, 41, 87
2, 321604, Note_off_c, 0, 53, 49
2, 321607, Note_on_c, 0, 57, 37
2, 321672, Note_off_c, 0, 57, 49
2, 321674, Note_on_c, 0, 60, 36
2, 321739, Note_off_c, 0, 60, 49
2, 321741, Note_on_c, 0, 65, 35
2, 321810, Note_off_c, 0, 65, 48
2, 321812, Note_on_c, 0, 53, 34
2, 321878, Note_off_c, 0, 53, 48
2, 321880, Note_on_c, 0, 57, 34
2, 321945, Note_off_c, 0, 57, 48
2, 321947, Note_on_c, 0, 60, 34
2, 322012, Note_off_c, 0, 60, 48
2, 322014, Note_on_c, 0, 65, 34
2, 322084, Note_off_c, 0, 65, 48
2, 322087, Note_off_c, 0, 41, 61
2, 322088, Note_on_c, 0, 72, 58
2, 322088, Note_on_c, 0, 53, 33
2, 322171, Note_off_c, 0, 53, 48
2, 322173, Note_on_c, 0, 57, 33
2, 322175, Note_on_c, 0, 84, 58
2, 322194, Note_off_c, 0, 72, 54
2, 322207, Note_off_c, 0, 84, 54
2, 322235, Note_off_c, 0, 57, 48
2, 322237, Note_on_c, 0, 60, 33
2, 322305, Note_off_c, 0, 60, 48
2, 322307, Note_on_c, 0, 65, 33
2, 322374, Note_off_c, 0, 65, 48
2, 322377, Note_on_c, 0, 53, 34
2, 322379, Note_on_c, 0, 72, 51
2, 322444, Note_off_c, 0, 53, 48
2, 322447, Note_on_c, 0, 57, 35
2, 322449, Note_on_c, 0, 84, 49
2, 322466, Note_off_c, 0, 72, 52
2, 322482, Note_off_c, 0, 84, 52
2, 322509, Note_off_c, 0, 57, 48
2, 322511, Note_on_c, 0, 60, 36
2, 322578, Note_off_c, 0, 60, 49
2, 322580, Note_on_c, 0, 65, 37
2, 322648, Note_off_c, 0, 65, 49
2, 322651, Note_on_c, 0, 53, 38
2, 322653, Note_on_c, 0, 69, 42
2, 322715, Note_off_c, 0, 53, 49
2, 322720, Note_on_c, 0, 57, 39
2, 322722, Note_on_c, 0, 81, 39
2, 322740, Note_off_c, 0, 69, 50
2, 322756, Note_off_c, 0, 81, 49
2, 322784, Note_off_c, 0, 57, 49
2, 322787, Note_on_c, 0, 60, 40
2, 322851, Note_off_c, 0, 60, 50
2, 322854, Note_on_c, 0, 65, 41
2, 322922, Note_off_c, 0, 65, 50
2, 322924, Note_on_c, 0, 53, 42
2, 322989, Note_off_c, 0, 53, 50
2, 322994, Note_on_c, 0, 57, 43
2, 323076, Note_off_c, 0, 57, 50
2, 323078, Note_on_c, 0, 60, 44
2, 323145, Note_off_c, 0, 60, 51
2, 323147, Note_on_c, 0, 65, 44
2, 323215, Note_off_c, 0, 65, 51
2, 323217, Note_on_c, 0, 57, 44
2, 323219, Note_on_c, 0, 77, 58
2, 323283, Note_on_c, 0, 89, 58
2, 323298, Note_off_c, 0, 57, 51
2, 323303, Note_on_c, 0, 60, 44
2, 323310, Note_off_c, 0, 77, 54
2, 323324, Note_off_c, 0, 89, 54
2, 323401, Note_off_c, 0, 60, 51
2, 323403, Note_on_c, 0, 65, 44
2, 323488, Note_off_c, 0, 65, 51
2, 323490, Note_on_c, 0, 57, 44
2, 323492, Note_on_c, 0, 77, 51
2, 323554, Note_on_c, 0, 89, 49
2, 323572, Note_off_c, 0, 57, 51
2, 323575, Note_on_c, 0, 60, 45
2, 323579, Note_off_c, 0, 77, 52
2, 323592, Note_off_c, 0, 89, 52
2, 323675, Note_off_c, 0, 60, 51
2, 323677, Note_on_c, 0, 65, 45
2, 323763, Note_off_c, 0, 65, 51
2, 323764, Note_on_c, 0, 58, 45
2, 323766, Note_on_c, 0, 74, 42
2, 323831, Note_off_c, 0, 58, 51
2, 323833, Note_on_c, 0, 62, 46
2, 323835, Note_on_c, 0, 86, 39
2, 323851, Note_off_c, 0, 74, 50
2, 323886, Note_off_c, 0, 86, 49
2, 323900, Note_off_c, 0, 62, 51
2, 323902, Note_on_c, 0, 65, 48
2, 323965, Note_off_c, 0, 65, 52
2, 323968, Note_on_c, 0, 67, 49
2, 324049, Note_off_c, 0, 67, 52
2, 324051, Note_on_c, 0, 58, 51
2, 324123, Note_off_c, 0, 58, 52
2, 324126, Note_on_c, 0, 62, 52
2, 324189, Note_off_c, 0, 62, 53
2, 324191, Note_on_c, 0, 65, 54
2, 324259, Note_off_c, 0, 65, 53
2, 324260, Note_on_c, 0, 67, 55
2, 324323, Note_off_c, 0, 67, 53
2, 324328, Note_on_c, 0, 59, 57
2, 324331, Note_on_c, 0, 47, 81
2, 324397, Note_off_c, 0, 59, 54
2, 324400, Note_on_c, 0, 62, 57
2, 324462, Note_off_c, 0, 47, 60
2, 324464, Note_off_c, 0, 62, 54
2, 324467, Note_on_c, 0, 65, 57
2, 324532, Note_off_c, 0, 65, 54
2, 324534, Note_on_c, 0, 67, 59
2, 324601, Note_off_c, 0, 67, 54
2, 324603, Note_on_c, 0, 59, 61
2, 324605, Note_on_c, 0, 47, 88
2, 324671, Note_off_c, 0, 59, 55
2, 324674, Note_on_c, 0, 62, 63
2, 324738, Note_off_c, 0, 62, 55
2, 324740, Note_off_c, 0, 47, 62
2, 324742, Note_on_c, 0, 65, 65
2, 324805, Note_off_c, 0, 65, 56
2, 324808, Note_on_c, 0, 67, 67
2, 324875, Note_off_c, 0, 67, 57
2, 324877, Note_on_c, 0, 47, 74
2, 324879, Note_on_c, 0, 60, 79
2, 324961, Note_off_c, 0, 47, 59
2, 324963, Note_on_c, 0, 48, 93
2, 324980, Note_off_c, 0, 60, 60
2, 324982, Note_on_c, 0, 65, 79
2, 325028, Note_off_c, 0, 48, 63
2, 325031, Note_on_c, 0, 50, 92
2, 325063, Note_off_c, 0, 65, 60
2, 325065, Note_on_c, 0, 69, 78
2, 325098, Note_off_c, 0, 50, 62
2, 325100, Note_on_c, 0, 48, 90
2, 325163, Note_off_c, 0, 48, 62
2, 325168, Note_off_c, 0, 69, 59
2, 325170, Note_on_c, 0, 50, 89
2, 325172, Note_on_c, 0, 60, 77
2, 325233, Note_off_c, 0, 50, 62
2, 325235, Note_on_c, 0, 48, 87
2, 325255, Note_off_c, 0, 60, 59
2, 325256, Note_on_c, 0, 65, 76
2, 325302, Note_off_c, 0, 48, 61
2, 325307, Note_on_c, 0, 50, 85
2, 325355, Note_off_c, 0, 65, 59
2, 325357, Note_on_c, 0, 69, 75
2, 325374, Note_off_c, 0, 50, 61
2, 325376, Note_on_c, 0, 48, 84
2, 325441, Note_off_c, 0, 48, 61
2, 325444, Note_off_c, 0, 69, 59
2, 325446, Note_on_c, 0, 50, 82
2, 325446, Note_on_c, 0, 60, 74
2, 325507, Note_off_c, 0, 50, 60
2, 325508, Note_on_c, 0, 48, 81
2, 325542, Note_off_c, 0, 60, 59
2, 325545, Note_on_c, 0, 64, 73
2, 325580, Note_off_c, 0, 48, 60
2, 325582, Note_on_c, 0, 50, 79
2, 325629, Note_off_c, 0, 64, 58
2, 325630, Note_on_c, 0, 67, 72
2, 325647, Note_off_c, 0, 50, 60
2, 325649, Note_on_c, 0, 48, 77
2, 325714, Note_off_c, 0, 48, 59
2, 325717, Note_off_c, 0, 67, 58
2, 325719, Note_on_c, 0, 50, 76
2, 325719, Note_on_c, 0, 60, 71
2, 325785, Note_off_c, 0, 50, 59
2, 325787, Note_on_c, 0, 48, 74
2, 325816, Note_off_c, 0, 60, 58
2, 325818, Note_on_c, 0, 64, 70
2, 325869, Note_off_c, 0, 48, 59
2, 325900, Note_on_c, 0, 47, 76
2, 325903, Note_off_c, 0, 64, 57
2, 325936, Note_on_c, 0, 67, 69
2, 325966, Note_off_c, 0, 47, 59
2, 326000, Note_on_c, 0, 48, 78
2, 326037, Note_off_c, 0, 67, 57
2, 326064, Note_off_c, 0, 48, 59
2, 326099, Note_on_c, 0, 53, 57
2, 326101, Note_on_c, 0, 41, 85
2, 326162, Note_off_c, 0, 53, 54
2, 326164, Note_on_c, 0, 57, 57
2, 326231, Note_off_c, 0, 57, 54
2, 326234, Note_on_c, 0, 60, 57
2, 326301, Note_off_c, 0, 60, 54
2, 326304, Note_on_c, 0, 65, 57
2, 326371, Note_off_c, 0, 65, 54
2, 326372, Note_on_c, 0, 53, 58
2, 326437, Note_off_c, 0, 53, 54
2, 326440, Note_on_c, 0, 57, 58
2, 326505, Note_off_c, 0, 57, 54
2, 326507, Note_on_c, 0, 60, 58
2, 326574, Note_off_c, 0, 60, 54
2, 326577, Note_on_c, 0, 65, 59
2, 326643, Note_off_c, 0, 65, 54
2, 326645, Note_off_c, 0, 41, 61
2, 326647, Note_on_c, 0, 53, 59
2, 326650, Note_on_c, 0, 83, 69
2, 326747, Note_off_c, 0, 53, 54
2, 326749, Note_on_c, 0, 56, 60
2, 326784, Note_off_c, 0, 83, 57
2, 326831, Note_off_c, 0, 56, 55
2, 326836, Note_on_c, 0, 60, 60
2, 326934, Note_off_c, 0, 60, 55
2, 326936, Note_on_c, 0, 83, 87
2, 326938, Note_on_c, 0, 53, 61
2, 327018, Note_off_c, 0, 53, 55
2, 327021, Note_on_c, 0, 56, 61
2, 327071, Note_off_c, 0, 83, 61
2, 327110, Note_off_c, 0, 56, 55
2, 327112, Note_on_c, 0, 60, 62
2, 327208, Note_off_c, 0, 60, 55
2, 327210, Note_on_c, 0, 48, 86
2, 327212, Note_on_c, 0, 83, 88
2, 327275, Note_off_c, 0, 48, 61
2, 327277, Note_off_c, 0, 83, 62
2, 327280, Note_on_c, 0, 53, 63
2, 327282, Note_on_c, 0, 84, 93
2, 327344, Note_off_c, 0, 53, 55
2, 327346, Note_off_c, 0, 84, 63
2, 327348, Note_on_c, 0, 86, 92
2, 327351, Note_on_c, 0, 55, 63
2, 327414, Note_off_c, 0, 55, 55
2, 327416, Note_off_c, 0, 86, 62
2, 327419, Note_on_c, 0, 60, 63
2, 327421, Note_on_c, 0, 84, 90
2, 327485, Note_off_c, 0, 60, 55
2, 327486, Note_off_c, 0, 84, 62
2, 327488, Note_on_c, 0, 86, 89
2, 327490, Note_on_c, 0, 48, 64
2, 327551, Note_off_c, 0, 86, 62
2, 327554, Note_off_c, 0, 48, 56
2, 327556, Note_on_c, 0, 84, 87
2, 327558, Note_on_c, 0, 53, 64
2, 327618, Note_off_c, 0, 53, 56
2, 327620, Note_off_c, 0, 84, 61
2, 327622, Note_on_c, 0, 86, 85
2, 327624, Note_on_c, 0, 55, 65
2, 327688, Note_off_c, 0, 86, 61
2, 327692, Note_off_c, 0, 55, 56
2, 327695, Note_on_c, 0, 60, 65
2, 327696, Note_on_c, 0, 84, 84
2, 327775, Note_off_c, 0, 60, 56
2, 327776, Note_off_c, 0, 84, 61
2, 327778, Note_on_c, 0, 86, 82
2, 327780, Note_on_c, 0, 48, 65
2, 327844, Note_off_c, 0, 48, 56
2, 327847, Note_off_c, 0, 86, 60
2, 327848, Note_on_c, 0, 84, 81
2, 327848, Note_on_c, 0, 52, 66
2, 327914, Note_off_c, 0, 52, 56
2, 327916, Note_off_c, 0, 84, 60
2, 327919, Note_on_c, 0, 55, 66
2, 327919, Note_on_c, 0, 86, 85
2, 327981, Note_off_c, 0, 55, 56
2, 327983, Note_off_c, 0, 86, 61
2, 327985, Note_on_c, 0, 60, 67
2, 327987, Note_on_c, 0, 84, 83
2, 328048, Note_off_c, 0, 84, 60
2, 328049, Note_off_c, 0, 60, 57
2, 328053, Note_on_c, 0, 48, 67
2, 328055, Note_on_c, 0, 86, 82
2, 328117, Note_off_c, 0, 48, 57
2, 328119, Note_off_c, 0, 86, 60
2, 328121, Note_on_c, 0, 52, 67
2, 328123, Note_on_c, 0, 84, 80
2, 328186, Note_off_c, 0, 52, 57
2, 328188, Note_off_c, 0, 84, 60
2, 328218, Note_on_c, 0, 55, 68
2, 328220, Note_on_c, 0, 83, 82
2, 328285, Note_off_c, 0, 55, 57
2, 328287, Note_off_c, 0, 83, 60
2, 328317, Note_on_c, 0, 60, 68
2, 328319, Note_on_c, 0, 84, 84
2, 328384, Note_off_c, 0, 60, 57
2, 328386, Note_off_c, 0, 84, 61
2, 328417, Note_on_c, 0, 41, 69
2, 328419, Note_on_c, 0, 77, 69
2, 328420, Note_on_c, 0, 89, 81
2, 328482, Note_off_c, 0, 41, 57
2, 328484, Note_on_c, 0, 45, 69
2, 328549, Note_off_c, 0, 45, 57
2, 328551, Note_on_c, 0, 48, 67
2, 328621, Note_off_c, 0, 48, 57
2, 328623, Note_on_c, 0, 53, 65
2, 328688, Note_off_c, 0, 53, 56
2, 328691, Note_on_c, 0, 41, 62
2, 328775, Note_off_c, 0, 41, 55
2, 328776, Note_on_c, 0, 45, 60
2, 328839, Note_off_c, 0, 45, 55
2, 328842, Note_on_c, 0, 48, 57
2, 328914, Note_off_c, 0, 48, 54
2, 328916, Note_on_c, 0, 53, 57
2, 328978, Note_off_c, 0, 89, 60
2, 328981, Note_off_c, 0, 53, 54
2, 328983, Note_off_c, 0, 77, 57
2, 328985, Note_on_c, 0, 41, 57
2, 328987, Note_on_c, 0, 71, 69
2, 329065, Note_off_c, 0, 41, 54
2, 329067, Note_on_c, 0, 44, 59
2, 329113, Note_off_c, 0, 71, 57
2, 329166, Note_off_c, 0, 44, 54
2, 329168, Note_on_c, 0, 48, 61
2, 329256, Note_off_c, 0, 48, 55
2, 329257, Note_on_c, 0, 41, 63
2, 329259, Note_on_c, 0, 71, 92
2, 329339, Note_off_c, 0, 41, 55
2, 329341, Note_on_c, 0, 44, 65
2, 329389, Note_off_c, 0, 71, 62
2, 329439, Note_off_c, 0, 44, 56
2, 329442, Note_on_c, 0, 48, 67
2, 329529, Note_off_c, 0, 48, 57
2, 329530, Note_on_c, 0, 36, 69
2, 329532, Note_on_c, 0, 71, 87
2, 329595, Note_off_c, 0, 71, 61
2, 329597, Note_off_c, 0, 36, 57
2, 329600, Note_on_c, 0, 41, 69
2, 329602, Note_on_c, 0, 72, 93
2, 329679, Note_off_c, 0, 41, 57
2, 329681, Note_off_c, 0, 72, 63
2, 329684, Note_on_c, 0, 43, 69
2, 329686, Note_on_c, 0, 74, 93
2, 329749, Note_off_c, 0, 43, 57
2, 329751, Note_off_c, 0, 74, 63
2, 329753, Note_on_c, 0, 48, 70
2, 329755, Note_on_c, 0, 72, 93
2, 329818, Note_off_c, 0, 72, 63
2, 329820, Note_off_c, 0, 48, 57
2, 329823, Note_on_c, 0, 36, 71
2, 329825, Note_on_c, 0, 74, 94
2, 329889, Note_off_c, 0, 36, 58
2, 329890, Note_off_c, 0, 74, 63
2, 329893, Note_on_c, 0, 41, 72
2, 329893, Note_on_c, 0, 72, 94
2, 329954, Note_off_c, 0, 72, 63
2, 329957, Note_off_c, 0, 41, 58
2, 329959, Note_on_c, 0, 43, 72
2, 329961, Note_on_c, 0, 74, 94
2, 330022, Note_off_c, 0, 43, 58
2, 330024, Note_off_c, 0, 74, 63
2, 330027, Note_on_c, 0, 48, 73
2, 330029, Note_on_c, 0, 72, 95
2, 330094, Note_off_c, 0, 48, 58
2, 330096, Note_off_c, 0, 72, 63
2, 330098, Note_on_c, 0, 36, 74
2, 330100, Note_on_c, 0, 74, 95
2, 330161, Note_off_c, 0, 36, 59
2, 330163, Note_off_c, 0, 74, 63
2, 330166, Note_on_c, 0, 72, 96
2, 330168, Note_on_c, 0, 41, 75
2, 330233, Note_off_c, 0, 41, 59
2, 330234, Note_off_c, 0, 72, 63
2, 330236, Note_on_c, 0, 74, 96
2, 330236, Note_on_c, 0, 43, 75
2, 330296, Note_off_c, 0, 74, 63
2, 330300, Note_off_c, 0, 43, 59
2, 330301, Note_on_c, 0, 48, 76
2, 330303, Note_on_c, 0, 72, 96
2, 330368, Note_off_c, 0, 48, 59
2, 330370, Note_off_c, 0, 72, 63
2, 330372, Note_on_c, 0, 36, 77
2, 330374, Note_on_c, 0, 74, 97
2, 330435, Note_off_c, 0, 74, 64
2, 330437, Note_off_c, 0, 36, 59
2, 330440, Note_on_c, 0, 41, 78
2, 330442, Note_on_c, 0, 72, 97
2, 330505, Note_off_c, 0, 41, 59
2, 330507, Note_off_c, 0, 72, 64
2, 330537, Note_on_c, 0, 71, 98
2, 330539, Note_on_c, 0, 43, 79
2, 330604, Note_off_c, 0, 43, 60
2, 330606, Note_off_c, 0, 71, 64
2, 330634, Note_on_c, 0, 48, 79
2, 330636, Note_on_c, 0, 72, 98
2, 330719, Note_off_c, 0, 72, 64
2, 330720, Note_off_c, 0, 48, 60
2, 330745, Note_on_c, 0, 41, 74
2, 330747, Note_on_c, 0, 77, 91
2, 330749, Note_on_c, 0, 65, 87
2, 330755, Control_c, 0, 64, 127
2, 331036, Control_c, 0, 64, 0
2, 331045, Note_off_c, 0, 41, 59
2, 331057, Note_off_c, 0, 65, 61
2, 331064, Note_off_c, 0, 77, 62
2, 331386, Note_on_c, 0, 72, 95
2, 331397, Note_on_c, 0, 48, 79
2, 331400, Note_on_c, 0, 36, 75
2, 331402, Note_on_c, 0, 60, 90
2, 331409, Control_c, 0, 64, 127
2, 331767, Note_off_c, 0, 60, 62
2, 331779, Note_off_c, 0, 48, 60
2, 331781, Note_off_c, 0, 36, 59
2, 331805, Note_off_c, 0, 72, 63
2, 331829, Control_c, 0, 64, 0
2, 332188, Note_on_c, 0, 29, 81
2, 332192, Note_on_c, 0, 65, 92
2, 332194, Note_on_c, 0, 41, 81
2, 332212, Control_c, 0, 64, 127
2, 332214, Note_on_c, 0, 53, 88
2, 333027, Note_off_c, 0, 53, 62
2, 333049, Note_off_c, 0, 41, 60
2, 333084, Note_off_c, 0, 65, 62
2, 333119, Note_off_c, 0, 29, 60
2, 333255, Control_c, 0, 64, 0
2, 335473, Control_c, 0, 67, 127
2, 335995, Control_c, 0, 64, 127
2, 335999, Note_on_c, 0, 36, 28
2, 336005, Note_on_c, 0, 48, 29
2, 336326, Note_on_c, 0, 53, 30
2, 336332, Note_on_c, 0, 41, 25
2, 336383, Note_off_c, 0, 48, 47
2, 336388, Note_off_c, 0, 36, 47
2, 336670, Note_on_c, 0, 56, 34
2, 336672, Note_on_c, 0, 44, 32
2, 336679, Control_c, 0, 64, 0
2, 336732, Note_off_c, 0, 41, 46
2, 336734, Note_off_c, 0, 53, 47
2, 336819, Control_c, 0, 64, 127
2, 337010, Note_on_c, 0, 52, 41
2, 337022, Note_on_c, 0, 40, 40
2, 337063, Note_off_c, 0, 44, 48
2, 337068, Note_off_c, 0, 56, 48
2, 337356, Note_on_c, 0, 53, 42
2, 337362, Note_on_c, 0, 41, 39
2, 337370, Control_c, 0, 64, 0
2, 337401, Note_off_c, 0, 52, 50
2, 337415, Note_off_c, 0, 40, 50
2, 337502, Control_c, 0, 64, 127
2, 337706, Note_on_c, 0, 56, 39
2, 337708, Note_on_c, 0, 44, 34
2, 337749, Note_off_c, 0, 53, 50
2, 337773, Note_off_c, 0, 41, 49
2, 338042, Note_on_c, 0, 60, 36
2, 338044, Note_on_c, 0, 48, 32
2, 338054, Control_c, 0, 64, 0
2, 338094, Note_off_c, 0, 44, 48
2, 338096, Note_off_c, 0, 56, 49
2, 338201, Control_c, 0, 64, 127
2, 338385, Note_on_c, 0, 61, 55
2, 338388, Note_on_c, 0, 49, 37
2, 338431, Note_off_c, 0, 60, 49
2, 338440, Note_off_c, 0, 48, 48
2, 338731, Note_on_c, 0, 58, 48
2, 338733, Note_on_c, 0, 46, 33
2, 338740, Control_c, 0, 64, 0
2, 338782, Note_off_c, 0, 61, 53
2, 338788, Note_off_c, 0, 49, 49
2, 338887, Control_c, 0, 64, 127
2, 339075, Note_on_c, 0, 64, 48
2, 339077, Note_on_c, 0, 52, 34
2, 339129, Note_off_c, 0, 58, 52
2, 339133, Note_off_c, 0, 46, 48
2, 339410, Note_on_c, 0, 65, 47
2, 339412, Note_on_c, 0, 53, 30
2, 339415, Control_c, 0, 64, 0
2, 339463, Note_off_c, 0, 64, 52
2, 339482, Note_off_c, 0, 52, 48
2, 339578, Control_c, 0, 64, 127
2, 339758, Note_on_c, 0, 60, 46
2, 339760, Note_on_c, 0, 48, 31
2, 339808, Note_off_c, 0, 65, 51
2, 339810, Note_off_c, 0, 53, 47
2, 340102, Note_on_c, 0, 55, 34
2, 340104, Note_on_c, 0, 67, 46
2, 340110, Control_c, 0, 64, 0
2, 340153, Note_off_c, 0, 60, 51
2, 340167, Note_off_c, 0, 48, 47
2, 340292, Control_c, 0, 64, 127
2, 340437, Note_on_c, 0, 56, 38
2, 340439, Note_on_c, 0, 68, 70
2, 340495, Note_off_c, 0, 55, 48
2, 340499, Note_off_c, 0, 67, 51
2, 340780, Note_on_c, 0, 65, 54
2, 340790, Note_on_c, 0, 53, 40
2, 340800, Control_c, 0, 64, 0
2, 340835, Note_off_c, 0, 56, 49
2, 340934, Control_c, 0, 64, 127
2, 341042, Note_off_c, 0, 65, 53
2, 341095, Note_off_c, 0, 53, 50
2, 341126, Note_on_c, 0, 70, 78
2, 341130, Note_on_c, 0, 58, 36
2, 341132, Note_on_c, 0, 55, 40
2, 341134, Note_on_c, 0, 63, 54
2, 341136, Control_c, 0, 64, 0
2, 341179, Note_off_c, 0, 68, 57
2, 341286, Control_c, 0, 64, 127
2, 341382, Note_off_c, 0, 55, 50
2, 341462, Note_on_c, 0, 72, 80
2, 341468, Note_on_c, 0, 68, 60
2, 341470, Note_on_c, 0, 56, 53
2, 341471, Note_off_c, 0, 58, 49
2, 341472, Note_on_c, 0, 60, 49
2, 341474, Note_off_c, 0, 70, 59
2, 341475, Control_c, 0, 64, 0
2, 341610, Control_c, 0, 64, 127
2, 341671, Note_off_c, 0, 63, 53
2, 341810, Note_on_c, 0, 65, 45
2, 341817, Note_on_c, 0, 53, 43
2, 342077, Note_off_c, 0, 68, 55
2, 342079, Note_off_c, 0, 60, 52
2, 342080, Note_off_c, 0, 53, 50
2, 342083, Note_off_c, 0, 56, 53
2, 342147, Note_on_c, 0, 75, 85
2, 342153, Note_on_c, 0, 70, 47
2, 342165, Note_on_c, 0, 49, 44
2, 342167, Note_off_c, 0, 72, 60
2, 342170, Control_c, 0, 64, 0
2, 342331, Control_c, 0, 64, 127
2, 342341, Note_on_c, 0, 73, 83
2, 342357, Note_off_c, 0, 75, 61
2, 342378, Note_off_c, 0, 65, 51
2, 342409, Note_off_c, 0, 49, 51
2, 342449, Note_off_c, 0, 70, 51
2, 342513, Note_on_c, 0, 72, 80
2, 342515, Note_off_c, 0, 73, 60
2, 342518, Note_on_c, 0, 63, 66
2, 342520, Note_on_c, 0, 68, 60
2, 342522, Note_on_c, 0, 51, 45
2, 342523, Control_c, 0, 64, 0
2, 342675, Control_c, 0, 64, 127
2, 342861, Note_off_c, 0, 51, 51
2, 342878, Note_on_c, 0, 39, 35
2, 342892, Control_c, 0, 64, 0
2, 343041, Control_c, 0, 64, 127
2, 343051, Note_off_c, 0, 39, 48
2, 343134, Note_off_c, 0, 63, 56
2, 343221, Note_off_c, 0, 68, 55
2, 343247, Note_on_c, 0, 39, 38
2, 343252, Note_on_c, 0, 61, 42
2, 343254, Note_on_c, 0, 67, 52
2, 343256, Note_on_c, 0, 70, 71
2, 343258, Control_c, 0, 64, 0
2, 343293, Note_off_c, 0, 72, 60
2, 343397, Control_c, 0, 64, 127
2, 343496, Note_off_c, 0, 67, 53
2, 343531, Note_off_c, 0, 70, 58
2, 343535, Note_off_c, 0, 61, 50
2, 343618, Note_on_c, 0, 60, 34
2, 343620, Note_on_c, 0, 68, 71
2, 343621, Note_off_c, 0, 39, 49
2, 343623, Note_on_c, 0, 44, 32
2, 343627, Control_c, 0, 64, 0
2, 343774, Control_c, 0, 64, 127
2, 343965, Note_off_c, 0, 60, 48
2, 344022, Note_off_c, 0, 44, 48
2, 344044, Note_off_c, 0, 68, 58
2, 344046, Note_on_c, 0, 32, 33
2, 344051, Control_c, 0, 64, 0
2, 344211, Control_c, 0, 64, 127
2, 344480, Note_on_c, 0, 48, 28
2, 344487, Note_off_c, 0, 32, 48
2, 344490, Note_on_c, 0, 36, 28
2, 344853, Note_on_c, 0, 53, 32
2, 344856, Note_on_c, 0, 41, 29
2, 344857, Control_c, 0, 64, 0
2, 344894, Note_off_c, 0, 48, 47
2, 344922, Note_off_c, 0, 36, 47
2, 344997, Control_c, 0, 64, 127
2, 345190, Note_on_c, 0, 56, 35
2, 345197, Note_on_c, 0, 44, 35
2, 345248, Note_off_c, 0, 53, 48
2, 345258, Note_off_c, 0, 41, 47
2, 345532, Note_on_c, 0, 52, 42
2, 345534, Note_on_c, 0, 40, 42
2, 345542, Control_c, 0, 64, 0
2, 345585, Note_off_c, 0, 56, 48
2, 345586, Note_off_c, 0, 44, 48
2, 345683, Control_c, 0, 64, 127
2, 345872, Note_on_c, 0, 53, 43
2, 345880, Note_on_c, 0, 41, 44
2, 345930, Note_off_c, 0, 40, 50
2, 345937, Note_off_c, 0, 52, 50
2, 346225, Note_on_c, 0, 44, 39
2, 346227, Note_on_c, 0, 56, 41
2, 346229, Control_c, 0, 64, 0
2, 346268, Note_off_c, 0, 53, 50
2, 346285, Note_off_c, 0, 41, 51
2, 346369, Control_c, 0, 64, 127
2, 346561, Note_on_c, 0, 60, 43
2, 346567, Note_on_c, 0, 48, 43
2, 346614, Note_off_c, 0, 56, 50
2, 346620, Note_off_c, 0, 44, 49
2, 346909, Note_on_c, 0, 61, 50
2, 346912, Note_on_c, 0, 49, 36
2, 346923, Control_c, 0, 64, 0
2, 346952, Note_off_c, 0, 48, 50
2, 346958, Note_off_c, 0, 60, 50
2, 347065, Control_c, 0, 64, 127
2, 347247, Note_on_c, 0, 58, 46
2, 347254, Note_on_c, 0, 46, 36
2, 347300, Note_off_c, 0, 49, 49
2, 347302, Note_off_c, 0, 61, 52
2, 347591, Note_on_c, 0, 64, 45
2, 347598, Note_on_c, 0, 52, 34
2, 347600, Control_c, 0, 64, 0
2, 347646, Note_off_c, 0, 58, 51
2, 347648, Note_off_c, 0, 46, 49
2, 347740, Control_c, 0, 64, 127
2, 347933, Note_on_c, 0, 53, 34
2, 347935, Note_on_c, 0, 65, 46
2, 347978, Note_off_c, 0, 64, 51
2, 347996, Note_off_c, 0, 52, 48
2, 348277, Note_on_c, 0, 60, 43
2, 348284, Note_on_c, 0, 48, 33
2, 348294, Control_c, 0, 64, 0
2, 348311, Note_off_c, 0, 65, 51
2, 348325, Note_off_c, 0, 53, 48
2, 348435, Control_c, 0, 64, 127
2, 348612, Note_on_c, 0, 67, 43
2, 348622, Note_on_c, 0, 55, 32
2, 348680, Note_off_c, 0, 60, 50
2, 348682, Note_off_c, 0, 48, 48
2, 348958, Note_on_c, 0, 68, 63
2, 348965, Note_on_c, 0, 56, 38
2, 348970, Control_c, 0, 64, 0
2, 349007, Note_off_c, 0, 67, 50
2, 349015, Note_off_c, 0, 55, 48
2, 349112, Control_c, 0, 64, 127
2, 349299, Note_on_c, 0, 65, 42
2, 349303, Note_on_c, 0, 53, 40
2, 349323, Note_off_c, 0, 56, 49
2, 349651, Note_on_c, 0, 70, 72
2, 349657, Note_on_c, 0, 58, 60
2, 349659, Note_on_c, 0, 63, 52
2, 349661, Note_on_c, 0, 55, 40
2, 349664, Note_off_c, 0, 68, 55
2, 349671, Note_off_c, 0, 53, 50
2, 349674, Note_off_c, 0, 65, 50
2, 349676, Control_c, 0, 64, 0
2, 349817, Control_c, 0, 64, 127
2, 349924, Note_off_c, 0, 58, 55
2, 349947, Note_off_c, 0, 55, 50
2, 349987, Note_on_c, 0, 72, 79
2, 349993, Note_on_c, 0, 56, 40
2, 349995, Note_on_c, 0, 60, 65
2, 349997, Note_on_c, 0, 68, 59
2, 350000, Control_c, 0, 64, 0
2, 350014, Note_off_c, 0, 70, 58
2, 350140, Control_c, 0, 64, 127
2, 350334, Note_on_c, 0, 53, 36
2, 350335, Note_on_c, 0, 65, 43
2, 350338, Note_off_c, 0, 63, 53
2, 350468, Note_off_c, 0, 60, 56
2, 350581, Note_off_c, 0, 68, 54
2, 350613, Note_off_c, 0, 56, 50
2, 350677, Note_on_c, 0, 70, 59
2, 350679, Note_on_c, 0, 49, 45
2, 350681, Note_on_c, 0, 75, 79
2, 350685, Control_c, 0, 64, 0
2, 350693, Note_off_c, 0, 72, 60
2, 350708, Note_off_c, 0, 53, 49
2, 350826, Control_c, 0, 64, 127
2, 350833, Note_on_c, 0, 73, 79
2, 350858, Note_off_c, 0, 75, 60
2, 350921, Note_off_c, 0, 49, 51
2, 350981, Note_off_c, 0, 70, 54
2, 350995, Note_off_c, 0, 65, 50
2, 350998, Note_off_c, 0, 73, 60
2, 351017, Note_on_c, 0, 72, 75
2, 351023, Note_on_c, 0, 51, 40
2, 351025, Note_on_c, 0, 68, 50
2, 351027, Note_on_c, 0, 63, 45
2, 351029, Control_c, 0, 64, 0
2, 351168, Control_c, 0, 64, 127
2, 351377, Note_on_c, 0, 39, 36
2, 351379, Note_off_c, 0, 51, 50
2, 351406, Control_c, 0, 64, 0
2, 351545, Control_c, 0, 64, 127
2, 351600, Note_off_c, 0, 39, 49
2, 351720, Note_off_c, 0, 63, 51
2, 351731, Note_off_c, 0, 68, 52
2, 351754, Note_on_c, 0, 70, 70
2, 351759, Note_on_c, 0, 67, 55
2, 351760, Note_on_c, 0, 61, 47
2, 351763, Note_on_c, 0, 39, 33
2, 351766, Control_c, 0, 64, 0
2, 351783, Note_off_c, 0, 72, 59
2, 351923, Control_c, 0, 64, 127
2, 352016, Note_off_c, 0, 67, 53
2, 352044, Note_off_c, 0, 70, 57
2, 352053, Note_off_c, 0, 61, 51
2, 352153, Note_on_c, 0, 60, 50
2, 352155, Note_on_c, 0, 44, 36
2, 352157, Note_off_c, 0, 39, 48
2, 352157, Note_on_c, 0, 68, 67
2, 352174, Control_c, 0, 64, 0
2, 352325, Control_c, 0, 64, 127
2, 352596, Note_off_c, 0, 60, 52
2, 352602, Note_off_c, 0, 44, 49
2, 352606, Note_on_c, 0, 32, 33
2, 352652, Note_off_c, 0, 68, 57
2, 352880, Control_c, 0, 67, 0
2, 353088, Note_off_c, 0, 32, 48
2, 353090, Note_on_c, 0, 72, 45
2, 353131, Control_c, 0, 64, 0
2, 353276, Note_off_c, 0, 72, 51
2, 353441, Note_on_c, 0, 72, 47
2, 353448, Control_c, 0, 64, 127
2, 353784, Note_on_c, 0, 73, 48
2, 353832, Note_off_c, 0, 72, 51
2, 353940, Control_c, 0, 64, 0
2, 353971, Note_on_c, 0, 72, 49
2, 353997, Note_off_c, 0, 73, 52
2, 354073, Note_off_c, 0, 72, 52
2, 354129, Note_on_c, 0, 60, 53
2, 354134, Note_on_c, 0, 56, 36
2, 354136, Note_on_c, 0, 65, 45
2, 354138, Note_on_c, 0, 73, 65
2, 354214, Note_off_c, 0, 56, 49
2, 354227, Note_off_c, 0, 60, 53
2, 354240, Note_off_c, 0, 65, 51
2, 354250, Note_off_c, 0, 73, 56
2, 354497, Note_on_c, 0, 73, 55
2, 354499, Note_on_c, 0, 61, 33
2, 354501, Note_on_c, 0, 65, 25
2, 354501, Note_on_c, 0, 58, 26
2, 354638, Note_off_c, 0, 73, 53
2, 354768, Control_c, 0, 64, 127
2, 354840, Note_on_c, 0, 67, 56
2, 354879, Note_off_c, 0, 65, 46
2, 354955, Note_off_c, 0, 58, 46
2, 354977, Note_off_c, 0, 61, 48
2, 355028, Note_on_c, 0, 65, 57
2, 355034, Control_c, 0, 64, 0
2, 355061, Note_off_c, 0, 67, 54
2, 355134, Note_off_c, 0, 65, 54
2, 355189, Note_on_c, 0, 73, 66
2, 355191, Note_on_c, 0, 58, 35
2, 355193, Note_on_c, 0, 61, 54
2, 355193, Note_on_c, 0, 67, 46
2, 355273, Note_off_c, 0, 58, 48
2, 355286, Note_off_c, 0, 67, 51
2, 355301, Note_off_c, 0, 61, 53
2, 355310, Note_off_c, 0, 73, 56
2, 355562, Note_on_c, 0, 67, 50
2, 355564, Note_on_c, 0, 58, 27
2, 355566, Note_on_c, 0, 61, 36
2, 355566, Note_on_c, 0, 73, 50
2, 355663, Note_off_c, 0, 67, 52
2, 355802, Control_c, 0, 64, 127
2, 355903, Note_on_c, 0, 75, 60
2, 355950, Note_off_c, 0, 73, 52
2, 356000, Note_off_c, 0, 58, 46
2, 356088, Note_on_c, 0, 73, 60
2, 356098, Control_c, 0, 64, 0
2, 356114, Note_off_c, 0, 75, 55
2, 356133, Note_off_c, 0, 61, 49
2, 356205, Note_off_c, 0, 73, 55
2, 356251, Note_on_c, 0, 75, 77
2, 356253, Note_on_c, 0, 67, 57
2, 356256, Note_on_c, 0, 61, 52
2, 356257, Note_on_c, 0, 58, 39
2, 356340, Note_off_c, 0, 67, 54
2, 356349, Note_off_c, 0, 61, 53
2, 356357, Note_off_c, 0, 58, 49
2, 356361, Note_off_c, 0, 75, 59
2, 356616, Note_on_c, 0, 60, 30
2, 356618, Note_on_c, 0, 63, 40
2, 356620, Note_on_c, 0, 67, 35
2, 356620, Note_on_c, 0, 75, 55
2, 356726, Note_off_c, 0, 75, 53
2, 356842, Control_c, 0, 64, 127
2, 356954, Note_on_c, 0, 69, 65
2, 356969, Note_off_c, 0, 67, 48
2, 357126, Note_off_c, 0, 63, 50
2, 357134, Note_on_c, 0, 67, 65
2, 357146, Control_c, 0, 64, 0
2, 357155, Note_off_c, 0, 60, 47
2, 357165, Note_off_c, 0, 69, 56
2, 357271, Note_off_c, 0, 67, 56
2, 357302, Note_on_c, 0, 69, 63
2, 357304, Note_on_c, 0, 60, 45
2, 357306, Note_on_c, 0, 75, 76
2, 357308, Note_on_c, 0, 63, 57
2, 357383, Note_off_c, 0, 75, 59
2, 357391, Note_off_c, 0, 60, 51
2, 357399, Note_off_c, 0, 69, 55
2, 357409, Note_off_c, 0, 63, 54
2, 357689, Note_on_c, 0, 69, 66
2, 357691, Note_on_c, 0, 60, 37
2, 357693, Note_on_c, 0, 63, 25
2, 357693, Note_on_c, 0, 75, 55
2, 357793, Note_off_c, 0, 69, 56
2, 357955, Control_c, 0, 64, 127
2, 358047, Note_on_c, 0, 77, 68
2, 358065, Note_off_c, 0, 75, 53
2, 358147, Note_off_c, 0, 60, 49
2, 358225, Note_on_c, 0, 75, 70
2, 358233, Control_c, 0, 64, 0
2, 358245, Note_off_c, 0, 63, 46
2, 358253, Note_off_c, 0, 77, 57
2, 358343, Note_off_c, 0, 75, 57
2, 358404, Note_on_c, 0, 60, 47
2, 358408, Note_on_c, 0, 63, 64
2, 358410, Note_on_c, 0, 69, 56
2, 358412, Note_on_c, 0, 77, 76
2, 358497, Note_off_c, 0, 63, 56
2, 358500, Note_off_c, 0, 69, 54
2, 358504, Note_off_c, 0, 60, 51
2, 358509, Note_off_c, 0, 77, 59
2, 358813, Note_on_c, 0, 61, 43
2, 358815, Note_on_c, 0, 77, 49
2, 358817, Note_on_c, 0, 69, 61
2, 358817, Note_on_c, 0, 65, 31
2, 358830, Control_c, 0, 64, 127
2, 359167, Note_on_c, 0, 70, 73
2, 359202, Note_off_c, 0, 69, 55
2, 359353, Control_c, 0, 64, 0
2, 359371, Note_on_c, 0, 69, 73
2, 359392, Note_off_c, 0, 61, 50
2, 359394, Note_off_c, 0, 77, 52
2, 359399, Note_off_c, 0, 70, 58
2, 359411, Note_off_c, 0, 65, 47
2, 359531, Note_off_c, 0, 69, 58
2, 359541, Note_on_c, 0, 77, 76
2, 359546, Note_on_c, 0, 61, 50
2, 359547, Note_on_c, 0, 65, 65
2, 359549, Note_on_c, 0, 70, 56
2, 359615, Note_off_c, 0, 77, 59
2, 359625, Note_off_c, 0, 61, 52
2, 359632, Note_off_c, 0, 70, 54
2, 359641, Note_off_c, 0, 65, 56
2, 359918, Note_on_c, 0, 77, 60
2, 359945, Control_c, 0, 64, 127
2, 359947, Note_on_c, 0, 71, 47
2, 359966, Note_on_c, 0, 61, 33
2, 359971, Note_on_c, 0, 65, 20
2, 360029, Note_off_c, 0, 77, 55
2, 360041, Note_on_c, 0, 79, 50
2, 360102, Note_on_c, 0, 77, 52
2, 360120, Note_off_c, 0, 79, 52
2, 360170, Note_on_c, 0, 79, 54
2, 360176, Note_off_c, 0, 77, 53
2, 360241, Note_off_c, 0, 79, 53
2, 360244, Note_on_c, 0, 77, 56
2, 360302, Note_off_c, 0, 77, 54
2, 360311, Note_on_c, 0, 79, 58
2, 360368, Note_off_c, 0, 79, 54
2, 360376, Note_on_c, 0, 77, 61
2, 360436, Note_on_c, 0, 79, 63
2, 360443, Note_off_c, 0, 77, 55
2, 360484, Note_off_c, 0, 61, 48
2, 360501, Note_on_c, 0, 77, 65
2, 360513, Note_off_c, 0, 79, 55
2, 360587, Note_on_c, 0, 76, 68
2, 360589, Note_off_c, 0, 65, 45
2, 360596, Note_off_c, 0, 71, 51
2, 360599, Control_c, 0, 64, 0
2, 360604, Note_off_c, 0, 77, 56
2, 360698, Note_on_c, 0, 77, 71
2, 360724, Note_off_c, 0, 76, 57
2, 360814, Note_off_c, 0, 77, 58
2, 360818, Note_on_c, 0, 79, 70
2, 360819, Note_on_c, 0, 61, 50
2, 360821, Note_on_c, 0, 65, 60
2, 360821, Note_on_c, 0, 71, 56
2, 360833, Control_c, 0, 64, 127
2, 360915, Note_off_c, 0, 65, 55
2, 360940, Note_off_c, 0, 61, 52
2, 360946, Note_off_c, 0, 71, 54
2, 361032, Note_off_c, 0, 79, 57
2, 361161, Control_c, 0, 64, 0
2, 361501, Note_on_c, 0, 72, 80
2, 361514, Note_on_c, 0, 67, 70
2, 361516, Note_on_c, 0, 60, 64
2, 361519, Note_on_c, 0, 64, 60
2, 361676, Control_c, 0, 64, 127
2, 363007, Note_off_c, 0, 67, 57
2, 363030, Note_off_c, 0, 64, 55
2, 363125, Note_off_c, 0, 60, 56
2, 363311, Control_c, 0, 67, 127
2, 363464, Note_off_c, 0, 72, 60
2, 363646, Note_on_c, 0, 72, 41
2, 363708, Control_c, 0, 64, 0
2, 364028, Control_c, 0, 64, 127
2, 364093, Note_on_c, 0, 77, 41
2, 364120, Note_off_c, 0, 72, 50
2, 364511, Note_on_c, 0, 80, 42
2, 364531, Note_off_c, 0, 77, 50
2, 364912, Note_on_c, 0, 76, 44
2, 364936, Note_off_c, 0, 80, 50
2, 365288, Note_on_c, 0, 77, 46
2, 365311, Control_c, 0, 64, 0
2, 365313, Note_off_c, 0, 76, 51
2, 365415, Control_c, 0, 64, 127
2, 365661, Note_on_c, 0, 80, 48
2, 365682, Note_off_c, 0, 77, 51
2, 366021, Note_on_c, 0, 84, 49
2, 366040, Note_off_c, 0, 80, 52
2, 366398, Note_on_c, 0, 85, 51
2, 366416, Control_c, 0, 64, 0
2, 366425, Note_off_c, 0, 84, 52
2, 366604, Control_c, 0, 64, 127
2, 366755, Note_on_c, 0, 82, 53
2, 366778, Note_off_c, 0, 85, 52
2, 367098, Note_on_c, 0, 88, 55
2, 367121, Note_off_c, 0, 82, 53
2, 367459, Note_on_c, 0, 89, 57
2, 367484, Note_off_c, 0, 88, 53
2, 367802, Note_on_c, 0, 84, 57
2, 367821, Note_off_c, 0, 89, 54
2, 368142, Note_on_c, 0, 72, 23
2, 368146, Note_on_c, 0, 80, 54
2, 368149, Control_c, 0, 64, 0
2, 368170, Note_off_c, 0, 84, 54
2, 368333, Control_c, 0, 64, 127
2, 368499, Note_on_c, 0, 82, 51
2, 368501, Note_on_c, 0, 73, 23
2, 368523, Note_off_c, 0, 72, 45
2, 368528, Note_off_c, 0, 80, 53
2, 368879, Note_on_c, 0, 70, 27
2, 368880, Note_on_c, 0, 85, 47
2, 368883, Control_c, 0, 64, 0
2, 368905, Note_off_c, 0, 73, 45
2, 368907, Note_off_c, 0, 82, 52
2, 369046, Control_c, 0, 64, 127
2, 369280, Note_on_c, 0, 79, 44
2, 369281, Note_on_c, 0, 76, 32
2, 369304, Note_off_c, 0, 70, 46
2, 369312, Note_off_c, 0, 85, 51
2, 369624, Note_off_c, 0, 79, 51
2, 369684, Note_on_c, 0, 77, 37
2, 369687, Note_on_c, 0, 80, 40
2, 369691, Control_c, 0, 64, 0
2, 369718, Note_off_c, 0, 76, 48
2, 369859, Control_c, 0, 64, 127
2, 370061, Note_on_c, 0, 72, 52
2, 370088, Note_off_c, 0, 77, 49
2, 370121, Control_c, 0, 67, 0
2, 370345, Note_off_c, 0, 80, 50
2, 370347, Note_off_c, 0, 72, 53
2, 370438, Note_on_c, 0, 68, 39
2, 370440, Note_on_c, 0, 60, 57
2, 370442, Note_on_c, 0, 80, 51
2, 370698, Note_off_c, 0, 80, 52
2, 370766, Note_off_c, 0, 68, 49
2, 370781, Note_on_c, 0, 80, 70
2, 370788, Note_on_c, 0, 70, 60
2, 370790, Note_on_c, 0, 73, 58
2, 370792, Note_on_c, 0, 61, 40
2, 370793, Note_on_c, 0, 76, 50
2, 370794, Control_c, 0, 64, 0
2, 370826, Note_off_c, 0, 60, 54
2, 370939, Control_c, 0, 64, 127
2, 371137, Note_on_c, 0, 58, 45
2, 371164, Note_off_c, 0, 61, 50
2, 371480, Note_on_c, 0, 64, 48
2, 371482, Note_on_c, 0, 79, 53
2, 371505, Note_off_c, 0, 58, 51
2, 371513, Note_off_c, 0, 76, 52
2, 371524, Note_off_c, 0, 80, 57
2, 371546, Note_off_c, 0, 70, 55
2, 371712, Note_off_c, 0, 73, 54
2, 371741, Note_off_c, 0, 79, 53
2, 371828, Note_on_c, 0, 80, 76
2, 371832, Note_off_c, 0, 64, 52
2, 371834, Note_on_c, 0, 76, 56
2, 371836, Note_on_c, 0, 70, 50
2, 371837, Note_on_c, 0, 73, 60
2, 371838, Note_on_c, 0, 61, 48
2, 371842, Control_c, 0, 64, 0
2, 372028, Control_c, 0, 64, 127
2, 372187, Note_on_c, 0, 58, 54
2, 372216, Note_off_c, 0, 61, 52
2, 372528, Note_on_c, 0, 64, 57
2, 372530, Note_on_c, 0, 79, 65
2, 372551, Note_off_c, 0, 58, 53
2, 372566, Note_off_c, 0, 80, 59
2, 372641, Note_off_c, 0, 73, 55
2, 372687, Note_off_c, 0, 70, 52
2, 372691, Note_off_c, 0, 76, 54
2, 372787, Note_off_c, 0, 64, 54
2, 372792, Note_off_c, 0, 79, 56
2, 372873, Note_on_c, 0, 68, 57
2, 372875, Note_on_c, 0, 60, 51
2, 372876, Note_on_c, 0, 77, 69
2, 372879, Control_c, 0, 64, 0
2, 373056, Control_c, 0, 64, 127
2, 373239, Note_on_c, 0, 70, 55
2, 373241, Note_on_c, 0, 79, 67
2, 373243, Note_off_c, 0, 68, 54
2, 373266, Note_off_c, 0, 77, 57
2, 373462, Note_off_c, 0, 60, 52
2, 373624, Note_on_c, 0, 67, 53
2, 373627, Note_on_c, 0, 60, 47
2, 373628, Note_off_c, 0, 79, 57
2, 373628, Note_on_c, 0, 76, 65
2, 373641, Note_off_c, 0, 70, 53
2, 373905, Note_off_c, 0, 67, 53
2, 373908, Note_off_c, 0, 60, 51
2, 373939, Note_off_c, 0, 76, 56
2, 374033, Note_on_c, 0, 53, 56
2, 374035, Note_on_c, 0, 68, 50
2, 374037, Note_on_c, 0, 77, 68
2, 374037, Control_c, 0, 64, 0
2, 374248, Control_c, 0, 64, 127
2, 374470, Note_off_c, 0, 68, 52
2, 374507, Note_off_c, 0, 53, 54
2, 374511, Note_on_c, 0, 72, 60
2, 374536, Note_off_c, 0, 77, 57
2, 374943, Note_on_c, 0, 68, 57
2, 374945, Note_on_c, 0, 48, 45
2, 374966, Note_off_c, 0, 72, 55
2, 375276, Note_off_c, 0, 68, 54
2, 375387, Note_on_c, 0, 68, 75
2, 375393, Note_on_c, 0, 58, 48
2, 375395, Note_on_c, 0, 61, 60
2, 375396, Note_on_c, 0, 64, 53
2, 375396, Note_on_c, 0, 49, 45
2, 375402, Control_c, 0, 64, 0
2, 375413, Note_off_c, 0, 48, 51
2, 375593, Control_c, 0, 64, 127
2, 375748, Note_on_c, 0, 46, 44
2, 375778, Note_off_c, 0, 49, 51
2, 376089, Note_on_c, 0, 52, 43
2, 376091, Note_on_c, 0, 67, 59
2, 376118, Note_off_c, 0, 46, 51
2, 376137, Note_off_c, 0, 61, 55
2, 376140, Note_off_c, 0, 58, 52
2, 376148, Note_off_c, 0, 68, 59
2, 376175, Note_off_c, 0, 64, 53
2, 376351, Note_off_c, 0, 67, 54
2, 376432, Note_on_c, 0, 68, 76
2, 376440, Note_on_c, 0, 58, 41
2, 376442, Note_on_c, 0, 61, 60
2, 376443, Note_on_c, 0, 49, 41
2, 376444, Note_on_c, 0, 64, 53
2, 376445, Control_c, 0, 64, 0
2, 376454, Note_off_c, 0, 52, 50
2, 376634, Control_c, 0, 64, 127
2, 376807, Note_on_c, 0, 46, 40
2, 376828, Note_off_c, 0, 49, 50
2, 377152, Note_on_c, 0, 52, 39
2, 377154, Note_on_c, 0, 67, 53
2, 377171, Note_off_c, 0, 46, 50
2, 377203, Note_off_c, 0, 64, 53
2, 377204, Note_off_c, 0, 68, 59
2, 377275, Note_off_c, 0, 61, 55
2, 377376, Note_off_c, 0, 58, 50
2, 377411, Note_off_c, 0, 52, 49
2, 377413, Note_off_c, 0, 67, 53
2, 377502, Note_on_c, 0, 65, 45
2, 377507, Note_on_c, 0, 56, 33
2, 377509, Note_on_c, 0, 48, 31
2, 377511, Control_c, 0, 64, 0
2, 377690, Control_c, 0, 64, 127
2, 377869, Note_on_c, 0, 67, 51
2, 377875, Note_on_c, 0, 58, 39
2, 377880, Note_off_c, 0, 56, 48
2, 377908, Note_off_c, 0, 65, 51
2, 378035, Note_off_c, 0, 48, 47
2, 378288, Note_on_c, 0, 64, 48
2, 378292, Note_on_c, 0, 48, 29
2, 378295, Note_on_c, 0, 55, 36
2, 378296, Note_off_c, 0, 58, 49
2, 378298, Control_c, 0, 64, 0
2, 378333, Note_off_c, 0, 67, 52
2, 378506, Control_c, 0, 64, 127
2, 378741, Note_off_c, 0, 55, 49
2, 378761, Note_off_c, 0, 48, 47
2, 378764, Note_on_c, 0, 65, 45
2, 378770, Note_off_c, 0, 64, 52
2, 378771, Note_on_c, 0, 56, 33
2, 378773, Note_on_c, 0, 53, 23
2, 378773, Note_on_c, 0, 41, 27
2, 378779, Control_c, 0, 64, 0
2, 379004, Control_c, 0, 64, 127
2, 379100, Note_off_c, 0, 56, 48
2, 379134, Note_off_c, 0, 65, 51
2, 379201, Note_off_c, 0, 53, 45
2, 379254, Note_off_c, 0, 41, 46
2, 379756, Note_on_c, 0, 60, 45
2, 379864, Control_c, 0, 64, 0
2, 380043, Note_off_c, 0, 60, 51
2, 380090, Control_c, 0, 64, 127
2, 380227, Note_on_c, 0, 64, 52
2, 380233, Note_on_c, 0, 58, 46
2, 380235, Note_on_c, 0, 60, 40
2, 380237, Note_on_c, 0, 48, 36
2, 380953, Note_on_c, 0, 65, 55
2, 380956, Note_off_c, 0, 58, 51
2, 380958, Note_on_c, 0, 56, 42
2, 380989, Note_off_c, 0, 64, 53
2, 381189, Note_off_c, 0, 60, 50
2, 381248, Note_off_c, 0, 65, 53
2, 381274, Note_off_c, 0, 56, 50
2, 381342, Note_on_c, 0, 67, 56
2, 381349, Note_on_c, 0, 55, 35
2, 381351, Note_on_c, 0, 58, 46
2, 381353, Note_on_c, 0, 60, 42
2, 381353, Note_on_c, 0, 64, 44
2, 381360, Control_c, 0, 64, 0
2, 381558, Control_c, 0, 64, 127
2, 381572, Note_off_c, 0, 60, 50
2, 381594, Note_off_c, 0, 67, 54
2, 381620, Note_off_c, 0, 64, 51
2, 382064, Note_off_c, 0, 55, 48
2, 382211, Note_off_c, 0, 58, 51
2, 382276, Note_on_c, 0, 68, 59
2, 382283, Control_c, 0, 64, 0
2, 382285, Note_on_c, 0, 60, 47
2, 382287, Note_on_c, 0, 65, 39
2, 382288, Note_on_c, 0, 56, 40
2, 382288, Note_on_c, 0, 53, 50
2, 382499, Control_c, 0, 64, 127
2, 382516, Note_off_c, 0, 65, 49
2, 382555, Note_off_c, 0, 48, 49
2, 382571, Note_off_c, 0, 60, 51
2, 382621, Note_off_c, 0, 68, 54
2, 382668, Note_off_c, 0, 56, 50
2, 382722, Note_off_c, 0, 53, 52
2, 382842, Note_on_c, 0, 72, 90
2, 382861, Note_on_c, 0, 48, 40
2, 382866, Note_on_c, 0, 67, 50
2, 382868, Note_on_c, 0, 64, 59
2, 382870, Note_on_c, 0, 60, 60
2, 382870, Control_c, 0, 64, 0
2, 382872, Note_on_c, 0, 52, 46
2, 382872, Note_on_c, 0, 55, 51
2, 383104, Control_c, 0, 64, 127
2, 383679, Note_off_c, 0, 67, 52
2, 383723, Note_off_c, 0, 64, 54
2, 383909, Note_on_c, 0, 70, 51
2, 383920, Control_c, 0, 64, 0
2, 383931, Note_off_c, 0, 72, 62
2, 384039, Note_off_c, 0, 48, 50
2, 384073, Note_off_c, 0, 55, 52
2, 384089, Note_on_c, 0, 68, 51
2, 384102, Control_c, 0, 64, 127
2, 384114, Note_off_c, 0, 70, 52
2, 384193, Note_off_c, 0, 52, 51
2, 384228, Note_off_c, 0, 60, 55
2, 384281, Note_on_c, 0, 67, 55
2, 384299, Note_off_c, 0, 68, 52
2, 384420, Note_off_c, 0, 67, 53
2, 384472, Note_on_c, 0, 60, 33
2, 384474, Note_on_c, 0, 70, 54
2, 384475, Note_on_c, 0, 53, 30
2, 384478, Note_on_c, 0, 56, 36
2, 384483, Control_c, 0, 64, 0
2, 384671, Note_on_c, 0, 68, 59
2, 384684, Control_c, 0, 64, 127
2, 384697, Note_off_c, 0, 70, 53
2, 384850, Note_off_c, 0, 53, 47
2, 384883, Note_off_c, 0, 56, 49
2, 384884, Note_on_c, 0, 67, 64
2, 384904, Note_off_c, 0, 68, 54
2, 384912, Note_off_c, 0, 60, 48
2, 385096, Note_on_c, 0, 65, 69
2, 385119, Note_off_c, 0, 67, 56
2, 385256, Note_off_c, 0, 65, 57
2, 385319, Control_c, 0, 64, 0
2, 385463, Note_on_c, 0, 72, 65
2, 385561, Note_off_c, 0, 72, 56
2, 385563, Note_on_c, 0, 73, 67
2, 385635, Note_off_c, 0, 73, 57
2, 385637, Note_on_c, 0, 72, 70
2, 385726, Note_off_c, 0, 72, 57
2, 385730, Note_on_c, 0, 71, 73
2, 385825, Note_off_c, 0, 71, 58
2, 385828, Note_on_c, 0, 72, 75
2, 385876, Note_off_c, 0, 72, 59
2, 385988, Note_on_c, 0, 79, 74
2, 385990, Note_on_c, 0, 67, 28
2, 385992, Note_on_c, 0, 60, 34
2, 385995, Note_on_c, 0, 76, 62
2, 386003, Note_on_c, 0, 70, 34
2, 386022, Note_on_c, 0, 72, 45
2, 386158, Control_c, 0, 64, 127
2, 386783, Note_off_c, 0, 76, 55
2, 386799, Note_off_c, 0, 67, 47
2, 386803, Note_on_c, 0, 68, 41
2, 386808, Note_on_c, 0, 80, 67
2, 386811, Note_on_c, 0, 77, 55
2, 386814, Note_off_c, 0, 70, 48
2, 386815, Note_on_c, 0, 65, 35
2, 386817, Note_off_c, 0, 79, 59
2, 386847, Control_c, 0, 64, 0
2, 386951, Control_c, 0, 64, 127
2, 387100, Note_off_c, 0, 60, 48
2, 387259, Note_on_c, 0, 82, 63
2, 387261, Note_on_c, 0, 67, 45
2, 387264, Note_off_c, 0, 77, 53
2, 387267, Note_on_c, 0, 79, 51
2, 387269, Note_on_c, 0, 64, 39
2, 387281, Note_off_c, 0, 65, 48
2, 387290, Note_off_c, 0, 80, 57
2, 387305, Control_c, 0, 64, 0
2, 387313, Note_off_c, 0, 68, 50
2, 387327, Note_off_c, 0, 72, 51
2, 387419, Control_c, 0, 64, 127
2, 387634, Note_off_c, 0, 64, 49
2, 387644, Note_off_c, 0, 67, 51
2, 387651, Note_off_c, 0, 79, 52
2, 387696, Note_off_c, 0, 82, 55
2, 387989, Control_c, 0, 64, 0
2, 388373, Note_on_c, 0, 88, 53
2, 388380, Note_on_c, 0, 79, 42
2, 388382, Note_on_c, 0, 60, 36
2, 388384, Note_on_c, 0, 48, 33
2, 388387, Note_on_c, 0, 76, 41
2, 388531, Note_off_c, 0, 79, 50
2, 388534, Note_off_c, 0, 60, 49
2, 388543, Note_off_c, 0, 48, 48
2, 388549, Note_off_c, 0, 76, 50
2, 388585, Note_off_c, 0, 88, 53
2, 388906, Note_on_c, 0, 89, 41
2, 388912, Control_c, 0, 64, 127
2, 388921, Note_on_c, 0, 53, 24
2, 388924, Note_on_c, 0, 41, 21
2, 388934, Note_on_c, 0, 80, 31
2, 388936, Note_on_c, 0, 77, 29
2, 389115, Note_off_c, 0, 41, 45
2, 389131, Note_off_c, 0, 80, 47
2, 389136, Note_off_c, 0, 53, 46
2, 389145, Note_off_c, 0, 77, 47
2, 389169, Note_off_c, 0, 89, 50
2, 389446, Control_c, 0, 64, 0
2, 391407, Note_on_c, 0, 72, 45
2, 391582, Note_off_c, 0, 72, 51
2, 391743, Note_on_c, 0, 72, 47
2, 391750, Control_c, 0, 64, 127
2, 392085, Note_on_c, 0, 73, 48
2, 392134, Note_off_c, 0, 72, 51
2, 392220, Control_c, 0, 64, 0
2, 392273, Note_on_c, 0, 72, 49
2, 392299, Note_off_c, 0, 73, 52
2, 392373, Note_off_c, 0, 72, 52
2, 392426, Note_on_c, 0, 65, 44
2, 392431, Note_on_c, 0, 73, 64
2, 392433, Note_on_c, 0, 60, 52
2, 392435, Note_on_c, 0, 56, 32
2, 392542, Note_off_c, 0, 56, 48
2, 392543, Note_off_c, 0, 65, 51
2, 392546, Note_off_c, 0, 60, 53
2, 392549, Note_off_c, 0, 73, 56
2, 392798, Note_on_c, 0, 73, 54
2, 392800, Note_on_c, 0, 61, 30
2, 392802, Note_on_c, 0, 65, 44
2, 392802, Note_on_c, 0, 58, 25
2, 392935, Note_off_c, 0, 73, 53
2, 393041, Control_c, 0, 64, 127
2, 393143, Note_on_c, 0, 67, 56
2, 393182, Note_off_c, 0, 65, 51
2, 393328, Note_on_c, 0, 65, 57
2, 393336, Control_c, 0, 64, 0
2, 393338, Note_off_c, 0, 58, 46
2, 393361, Note_off_c, 0, 67, 54
2, 393368, Note_off_c, 0, 61, 47
2, 393436, Note_off_c, 0, 65, 54
2, 393492, Note_on_c, 0, 58, 36
2, 393493, Note_on_c, 0, 67, 43
2, 393495, Note_on_c, 0, 73, 63
2, 393497, Note_on_c, 0, 61, 51
2, 393597, Note_off_c, 0, 67, 50
2, 393606, Note_off_c, 0, 58, 49
2, 393613, Note_off_c, 0, 73, 55
2, 393623, Note_off_c, 0, 61, 52
2, 393864, Note_on_c, 0, 67, 48
2, 393866, Note_on_c, 0, 61, 40
2, 393867, Note_on_c, 0, 73, 49
2, 393868, Note_on_c, 0, 58, 32
2, 393984, Note_off_c, 0, 67, 52
2, 394202, Control_c, 0, 64, 127
2, 394204, Note_on_c, 0, 75, 60
2, 394251, Note_off_c, 0, 73, 52
2, 394390, Note_on_c, 0, 73, 60
2, 394394, Note_off_c, 0, 58, 48
2, 394395, Note_off_c, 0, 61, 50
2, 394401, Control_c, 0, 64, 0
2, 394415, Note_off_c, 0, 75, 55
2, 394506, Note_off_c, 0, 73, 55
2, 394552, Note_on_c, 0, 75, 72
2, 394554, Note_on_c, 0, 61, 60
2, 394556, Note_on_c, 0, 67, 52
2, 394556, Note_on_c, 0, 58, 40
2, 394661, Note_off_c, 0, 75, 58
2, 394663, Note_off_c, 0, 67, 53
2, 394667, Note_off_c, 0, 61, 55
2, 394679, Note_off_c, 0, 58, 50
2, 394915, Note_on_c, 0, 75, 56
2, 394917, Note_on_c, 0, 63, 40
2, 394920, Note_on_c, 0, 60, 35
2, 394920, Note_on_c, 0, 67, 54
2, 395025, Note_off_c, 0, 75, 54
2, 395213, Control_c, 0, 64, 127
2, 395255, Note_on_c, 0, 69, 65
2, 395292, Note_off_c, 0, 67, 53
2, 395420, Note_off_c, 0, 63, 50
2, 395424, Note_off_c, 0, 60, 48
2, 395436, Note_on_c, 0, 67, 65
2, 395447, Control_c, 0, 64, 0
2, 395468, Note_off_c, 0, 69, 56
2, 395573, Note_off_c, 0, 67, 56
2, 395604, Note_on_c, 0, 69, 53
2, 395606, Note_on_c, 0, 60, 44
2, 395609, Note_on_c, 0, 75, 73
2, 395611, Note_on_c, 0, 63, 61
2, 395719, Note_off_c, 0, 60, 51
2, 395721, Note_off_c, 0, 63, 55
2, 395724, Note_off_c, 0, 75, 58
2, 395733, Note_off_c, 0, 69, 53
2, 395986, Note_on_c, 0, 69, 53
2, 395988, Note_on_c, 0, 60, 40
2, 395990, Note_on_c, 0, 63, 46
2, 395990, Note_on_c, 0, 75, 58
2, 396093, Note_off_c, 0, 69, 53
2, 396307, Control_c, 0, 64, 127
2, 396348, Note_on_c, 0, 77, 68
2, 396397, Note_off_c, 0, 75, 54
2, 396527, Note_on_c, 0, 75, 70
2, 396532, Note_off_c, 0, 63, 51
2, 396539, Control_c, 0, 64, 0
2, 396542, Note_off_c, 0, 60, 50
2, 396551, Note_off_c, 0, 77, 57
2, 396645, Note_off_c, 0, 75, 57
2, 396708, Note_on_c, 0, 69, 52
2, 396710, Note_on_c, 0, 60, 44
2, 396712, Note_on_c, 0, 63, 59
2, 396713, Note_on_c, 0, 77, 72
2, 396823, Note_off_c, 0, 63, 54
2, 396824, Note_off_c, 0, 60, 51
2, 396828, Note_off_c, 0, 69, 53
2, 396836, Note_off_c, 0, 77, 58
2, 397115, Note_on_c, 0, 61, 36
2, 397117, Note_on_c, 0, 65, 40
2, 397119, Note_on_c, 0, 69, 61
2, 397119, Note_on_c, 0, 77, 49
2, 397132, Control_c, 0, 64, 127
2, 397468, Note_on_c, 0, 70, 73
2, 397504, Note_off_c, 0, 69, 55
2, 397655, Control_c, 0, 64, 0
2, 397673, Note_on_c, 0, 69, 75
2, 397681, Note_off_c, 0, 77, 52
2, 397700, Note_off_c, 0, 70, 58
2, 397702, Note_off_c, 0, 65, 50
2, 397715, Note_off_c, 0, 61, 49
2, 397833, Note_off_c, 0, 69, 59
2, 397845, Note_on_c, 0, 61, 44
2, 397847, Note_on_c, 0, 65, 61
2, 397849, Note_on_c, 0, 77, 73
2, 397851, Note_on_c, 0, 70, 53
2, 397940, Note_off_c, 0, 77, 58
2, 397943, Note_off_c, 0, 61, 51
2, 397946, Note_off_c, 0, 70, 53
2, 397948, Note_off_c, 0, 65, 55
2, 398214, Note_on_c, 0, 77, 52
2, 398256, Note_on_c, 0, 61, 35
2, 398258, Note_on_c, 0, 65, 45
2, 398260, Note_on_c, 0, 71, 37
2, 398286, Control_c, 0, 64, 127
2, 398329, Note_off_c, 0, 77, 53
2, 398339, Note_on_c, 0, 79, 45
2, 398404, Note_on_c, 0, 77, 47
2, 398426, Note_off_c, 0, 79, 51
2, 398472, Note_on_c, 0, 79, 49
2, 398487, Note_off_c, 0, 77, 51
2, 398543, Note_on_c, 0, 77, 51
2, 398560, Note_off_c, 0, 79, 52
2, 398612, Note_on_c, 0, 79, 53
2, 398618, Note_off_c, 0, 77, 52
2, 398678, Note_on_c, 0, 77, 56
2, 398680, Note_off_c, 0, 79, 53
2, 398737, Note_on_c, 0, 79, 58
2, 398758, Note_off_c, 0, 77, 54
2, 398803, Note_on_c, 0, 77, 60
2, 398824, Note_off_c, 0, 79, 54
2, 398888, Note_on_c, 0, 76, 68
2, 398900, Control_c, 0, 64, 0
2, 398906, Note_off_c, 0, 77, 55
2, 398953, Note_off_c, 0, 65, 51
2, 398968, Note_off_c, 0, 71, 49
2, 398992, Note_off_c, 0, 61, 48
2, 399002, Note_on_c, 0, 77, 71
2, 399024, Note_off_c, 0, 76, 57
2, 399114, Note_on_c, 0, 79, 69
2, 399116, Note_off_c, 0, 77, 58
2, 399121, Note_on_c, 0, 71, 55
2, 399123, Note_on_c, 0, 65, 63
2, 399125, Note_on_c, 0, 61, 47
2, 399140, Control_c, 0, 64, 127
2, 399248, Note_off_c, 0, 65, 55
2, 399252, Note_off_c, 0, 79, 57
2, 399261, Note_off_c, 0, 61, 51
2, 399270, Note_off_c, 0, 71, 53
2, 399455, Control_c, 0, 64, 0
2, 399700, Note_on_c, 0, 72, 82
2, 399706, Note_on_c, 0, 60, 60
2, 399712, Note_on_c, 0, 67, 70
2, 399714, Note_on_c, 0, 64, 75
2, 399866, Control_c, 0, 64, 127
2, 401058, Note_off_c, 0, 64, 59
2, 401187, Note_off_c, 0, 67, 57
2, 401386, Note_off_c, 0, 60, 55
2, 401452, Note_off_c, 0, 72, 60
2, 401607, Control_c, 0, 67, 127
2, 401821, Note_on_c, 0, 72, 41
2, 401909, Control_c, 0, 64, 0
2, 402058, Control_c, 0, 64, 127
2, 402198, Note_on_c, 0, 77, 41
2, 402220, Note_off_c, 0, 72, 50
2, 402572, Note_on_c, 0, 80, 42
2, 402597, Note_off_c, 0, 77, 50
2, 402965, Note_on_c, 0, 76, 44
2, 402989, Note_off_c, 0, 80, 50
2, 403338, Note_on_c, 0, 77, 46
2, 403345, Control_c, 0, 64, 0
2, 403362, Note_off_c, 0, 76, 51
2, 403523, Control_c, 0, 64, 127
2, 403713, Note_on_c, 0, 80, 48
2, 403733, Note_off_c, 0, 77, 51
2, 404072, Note_on_c, 0, 84, 49
2, 404092, Note_off_c, 0, 80, 52
2, 404449, Note_on_c, 0, 85, 51
2, 404451, Control_c, 0, 64, 0
2, 404480, Note_off_c, 0, 84, 52
2, 404631, Control_c, 0, 64, 127
2, 404807, Note_on_c, 0, 82, 53
2, 404829, Note_off_c, 0, 85, 52
2, 405150, Note_on_c, 0, 88, 55
2, 405170, Note_off_c, 0, 82, 53
2, 405509, Note_on_c, 0, 89, 57
2, 405514, Control_c, 0, 64, 0
2, 405535, Note_off_c, 0, 88, 53
2, 405684, Control_c, 0, 64, 127
2, 405854, Note_on_c, 0, 84, 57
2, 405876, Note_off_c, 0, 89, 54
2, 406193, Note_on_c, 0, 72, 23
2, 406195, Note_on_c, 0, 80, 54
2, 406198, Control_c, 0, 64, 0
2, 406224, Note_off_c, 0, 84, 54
2, 406378, Control_c, 0, 64, 127
2, 406554, Note_on_c, 0, 73, 23
2, 406556, Note_on_c, 0, 82, 51
2, 406578, Note_off_c, 0, 72, 45
2, 406581, Note_off_c, 0, 80, 53
2, 406930, Note_on_c, 0, 70, 27
2, 406932, Note_on_c, 0, 85, 47
2, 406940, Control_c, 0, 64, 0
2, 406957, Note_off_c, 0, 73, 45
2, 406961, Note_off_c, 0, 82, 52
2, 407148, Control_c, 0, 64, 127
2, 407329, Note_on_c, 0, 79, 44
2, 407331, Note_on_c, 0, 76, 32
2, 407359, Note_off_c, 0, 70, 46
2, 407362, Note_off_c, 0, 85, 51
2, 407673, Note_off_c, 0, 79, 51
2, 407735, Note_on_c, 0, 77, 37
2, 407737, Note_on_c, 0, 80, 40
2, 407755, Control_c, 0, 64, 0
2, 407768, Note_off_c, 0, 76, 48
2, 407952, Control_c, 0, 64, 127
2, 408111, Note_on_c, 0, 72, 52
2, 408138, Note_off_c, 0, 77, 49
2, 408163, Control_c, 0, 67, 0
2, 408300, Note_off_c, 0, 80, 50
2, 408396, Note_off_c, 0, 72, 53
2, 408488, Note_on_c, 0, 68, 39
2, 408490, Note_on_c, 0, 60, 57
2, 408492, Note_on_c, 0, 80, 51
2, 408752, Note_off_c, 0, 80, 52
2, 408814, Note_off_c, 0, 68, 49
2, 408838, Note_on_c, 0, 80, 67
2, 408845, Note_on_c, 0, 73, 52
2, 408847, Note_on_c, 0, 70, 30
2, 408848, Note_on_c, 0, 76, 45
2, 408848, Note_on_c, 0, 61, 45
2, 408850, Control_c, 0, 64, 0
2, 408878, Note_off_c, 0, 60, 54
2, 409043, Control_c, 0, 64, 127
2, 409205, Note_on_c, 0, 58, 45
2, 409234, Note_off_c, 0, 61, 51
2, 409545, Note_on_c, 0, 64, 48
2, 409547, Note_on_c, 0, 79, 55
2, 409555, Note_off_c, 0, 70, 47
2, 409570, Note_off_c, 0, 58, 51
2, 409594, Note_off_c, 0, 80, 57
2, 409660, Note_off_c, 0, 76, 51
2, 409764, Note_off_c, 0, 73, 53
2, 409806, Note_off_c, 0, 79, 53
2, 409898, Note_on_c, 0, 80, 78
2, 409901, Note_off_c, 0, 64, 52
2, 409904, Note_on_c, 0, 76, 58
2, 409906, Note_on_c, 0, 73, 64
2, 409908, Note_on_c, 0, 70, 50
2, 409908, Note_on_c, 0, 61, 51
2, 409910, Control_c, 0, 64, 0
2, 410097, Control_c, 0, 64, 127
2, 410262, Note_on_c, 0, 58, 54
2, 410295, Note_off_c, 0, 61, 52
2, 410607, Note_on_c, 0, 64, 57
2, 410609, Note_on_c, 0, 79, 67
2, 410630, Note_off_c, 0, 58, 53
2, 410644, Note_off_c, 0, 80, 59
2, 410763, Note_off_c, 0, 70, 52
2, 410866, Note_off_c, 0, 73, 56
2, 410868, Note_off_c, 0, 64, 54
2, 410872, Note_off_c, 0, 79, 57
2, 410925, Note_off_c, 0, 76, 54
2, 410949, Note_on_c, 0, 77, 67
2, 410954, Note_on_c, 0, 68, 55
2, 410956, Note_on_c, 0, 60, 49
2, 410964, Control_c, 0, 64, 0
2, 411148, Control_c, 0, 64, 127
2, 411292, Note_off_c, 0, 68, 53
2, 411321, Note_on_c, 0, 79, 65
2, 411328, Note_on_c, 0, 70, 53
2, 411351, Note_off_c, 0, 77, 57
2, 411510, Note_off_c, 0, 60, 52
2, 411717, Note_on_c, 0, 76, 63
2, 411719, Note_off_c, 0, 70, 53
2, 411721, Note_off_c, 0, 79, 56
2, 411723, Note_on_c, 0, 60, 45
2, 411725, Note_on_c, 0, 67, 51
2, 411735, Control_c, 0, 64, 0
2, 411941, Control_c, 0, 64, 127
2, 411984, Note_off_c, 0, 67, 52
2, 412034, Note_off_c, 0, 76, 55
2, 412135, Note_on_c, 0, 77, 60
2, 412139, Note_off_c, 0, 60, 51
2, 412141, Note_on_c, 0, 68, 48
2, 412142, Note_on_c, 0, 53, 42
2, 412154, Control_c, 0, 64, 0
2, 412367, Control_c, 0, 64, 127
2, 412540, Note_off_c, 0, 68, 52
2, 412607, Note_off_c, 0, 53, 50
2, 412612, Note_on_c, 0, 72, 52
2, 412636, Note_off_c, 0, 77, 55
2, 413042, Note_on_c, 0, 48, 45
2, 413045, Note_on_c, 0, 68, 57
2, 413064, Note_off_c, 0, 72, 53
2, 413342, Note_off_c, 0, 68, 54
2, 413445, Note_on_c, 0, 68, 76
2, 413451, Note_on_c, 0, 49, 45
2, 413453, Note_on_c, 0, 61, 64
2, 413455, Note_on_c, 0, 64, 56
2, 413455, Note_on_c, 0, 58, 39
2, 413458, Control_c, 0, 64, 0
2, 413474, Note_off_c, 0, 48, 51
2, 413654, Control_c, 0, 64, 127
2, 413818, Note_on_c, 0, 46, 44
2, 413848, Note_off_c, 0, 49, 51
2, 414163, Note_on_c, 0, 52, 43
2, 414164, Note_on_c, 0, 67, 59
2, 414191, Note_off_c, 0, 46, 51
2, 414215, Note_off_c, 0, 68, 59
2, 414229, Note_off_c, 0, 61, 56
2, 414261, Note_off_c, 0, 64, 54
2, 414270, Note_off_c, 0, 58, 49
2, 414421, Note_off_c, 0, 67, 54
2, 414510, Note_on_c, 0, 68, 78
2, 414515, Note_on_c, 0, 49, 41
2, 414517, Note_on_c, 0, 58, 46
2, 414519, Note_on_c, 0, 61, 64
2, 414519, Note_on_c, 0, 64, 55
2, 414521, Control_c, 0, 64, 0
2, 414530, Note_off_c, 0, 52, 50
2, 414710, Control_c, 0, 64, 127
2, 414890, Note_on_c, 0, 46, 40
2, 414916, Note_off_c, 0, 49, 50
2, 415231, Note_on_c, 0, 67, 53
2, 415236, Note_on_c, 0, 52, 39
2, 415253, Note_off_c, 0, 46, 50
2, 415291, Note_off_c, 0, 68, 59
2, 415377, Note_off_c, 0, 61, 56
2, 415404, Note_off_c, 0, 58, 51
2, 415492, Note_off_c, 0, 67, 53
2, 415495, Note_off_c, 0, 52, 49
2, 415538, Note_off_c, 0, 64, 53
2, 415592, Note_on_c, 0, 65, 43
2, 415598, Note_on_c, 0, 48, 29
2, 415600, Note_on_c, 0, 56, 31
2, 415602, Control_c, 0, 64, 0
2, 415783, Control_c, 0, 64, 127
2, 415963, Note_on_c, 0, 67, 49
2, 415969, Note_on_c, 0, 58, 37
2, 415988, Note_off_c, 0, 65, 50
2, 416007, Note_off_c, 0, 56, 47
2, 416202, Note_off_c, 0, 48, 47
2, 416381, Note_on_c, 0, 64, 46
2, 416387, Note_on_c, 0, 55, 34
2, 416389, Note_on_c, 0, 48, 27
2, 416391, Control_c, 0, 64, 0
2, 416394, Note_off_c, 0, 67, 52
2, 416396, Note_off_c, 0, 58, 49
2, 416603, Control_c, 0, 64, 127
2, 416742, Note_off_c, 0, 48, 46
2, 416799, Note_off_c, 0, 55, 48
2, 416858, Note_on_c, 0, 65, 43
2, 416864, Note_on_c, 0, 41, 25
2, 416866, Note_on_c, 0, 53, 21
2, 416868, Note_on_c, 0, 56, 31
2, 416879, Control_c, 0, 64, 0
2, 416898, Note_off_c, 0, 64, 51
2, 417105, Control_c, 0, 64, 127
2, 417324, Note_off_c, 0, 65, 50
2, 417330, Note_off_c, 0, 56, 47
2, 417351, Note_off_c, 0, 41, 46
2, 417356, Note_off_c, 0, 53, 45
2, 417849, Note_on_c, 0, 60, 45
2, 418060, Control_c, 0, 64, 0
2, 418166, Note_off_c, 0, 60, 51
2, 418285, Control_c, 0, 64, 127
2, 418341, Note_on_c, 0, 60, 40
2, 418343, Note_on_c, 0, 58, 36
2, 418345, Note_on_c, 0, 48, 36
2, 418345, Note_on_c, 0, 64, 52
2, 418881, Note_off_c, 0, 58, 49
2, 419060, Note_on_c, 0, 56, 42
2, 419062, Note_on_c, 0, 65, 55
2, 419104, Note_off_c, 0, 64, 53
2, 419200, Note_off_c, 0, 60, 50
2, 419352, Note_off_c, 0, 65, 53
2, 419439, Note_off_c, 0, 56, 50
2, 419445, Note_on_c, 0, 58, 46
2, 419447, Note_on_c, 0, 60, 42
2, 419449, Note_on_c, 0, 64, 44
2, 419449, Note_on_c, 0, 55, 35
2, 419451, Note_on_c, 0, 67, 56
2, 419451, Control_c, 0, 64, 0
2, 419643, Control_c, 0, 64, 127
2, 419724, Note_off_c, 0, 48, 49
2, 419857, Note_off_c, 0, 60, 50
2, 419860, Note_off_c, 0, 64, 51
2, 419884, Note_off_c, 0, 67, 54
2, 420143, Note_off_c, 0, 55, 48
2, 420217, Note_off_c, 0, 58, 51
2, 420357, Note_on_c, 0, 53, 50
2, 420360, Note_on_c, 0, 56, 40
2, 420361, Note_on_c, 0, 65, 47
2, 420361, Note_on_c, 0, 60, 45
2, 420361, Note_on_c, 0, 68, 59
2, 420365, Control_c, 0, 64, 0
2, 420573, Control_c, 0, 64, 127
2, 420659, Note_off_c, 0, 60, 51
2, 420663, Note_off_c, 0, 65, 51
2, 420698, Note_off_c, 0, 68, 54
2, 420786, Note_off_c, 0, 56, 50
2, 420788, Note_off_c, 0, 53, 52
2, 420897, Note_on_c, 0, 72, 92
2, 420909, Control_c, 0, 64, 0
2, 420913, Note_on_c, 0, 64, 58
2, 420915, Note_on_c, 0, 48, 52
2, 420918, Note_on_c, 0, 55, 64
2, 420919, Note_on_c, 0, 67, 60
2, 420921, Note_on_c, 0, 60, 60
2, 420921, Note_on_c, 0, 52, 50
2, 421124, Control_c, 0, 64, 127
2, 421664, Note_off_c, 0, 52, 52
2, 421820, Note_off_c, 0, 48, 53
2, 421849, Note_off_c, 0, 55, 56
2, 421861, Control_c, 0, 64, 0
2, 421868, Note_on_c, 0, 70, 51
2, 421877, Note_off_c, 0, 64, 54
2, 421880, Note_off_c, 0, 60, 55
2, 421882, Note_off_c, 0, 72, 62
2, 421889, Note_off_c, 0, 67, 55
2, 422043, Control_c, 0, 64, 127
2, 422048, Note_on_c, 0, 68, 51
2, 422069, Note_off_c, 0, 70, 52
2, 422230, Note_on_c, 0, 67, 55
2, 422249, Note_off_c, 0, 68, 52
2, 422365, Note_off_c, 0, 67, 53
2, 422415, Note_on_c, 0, 70, 54
2, 422417, Note_on_c, 0, 53, 30
2, 422424, Note_on_c, 0, 56, 36
2, 422431, Note_on_c, 0, 60, 33
2, 422442, Control_c, 0, 64, 0
2, 422602, Note_on_c, 0, 68, 59
2, 422624, Note_off_c, 0, 70, 53
2, 422626, Control_c, 0, 64, 127
2, 422792, Note_on_c, 0, 67, 64
2, 422801, Note_off_c, 0, 56, 49
2, 422803, Note_off_c, 0, 60, 48
2, 422811, Note_off_c, 0, 53, 47
2, 422813, Note_off_c, 0, 68, 54
2, 422981, Note_on_c, 0, 65, 69
2, 423005, Note_off_c, 0, 67, 56
2, 423119, Note_off_c, 0, 65, 57
2, 423167, Control_c, 0, 64, 0
2, 423326, Note_on_c, 0, 72, 69
2, 423425, Note_off_c, 0, 72, 57
2, 423427, Note_on_c, 0, 73, 69
2, 423464, Control_c, 0, 64, 127
2, 423504, Note_off_c, 0, 73, 57
2, 423506, Note_on_c, 0, 72, 69
2, 423600, Note_off_c, 0, 72, 57
2, 423602, Note_on_c, 0, 71, 69
2, 423711, Note_off_c, 0, 71, 57
2, 423713, Note_on_c, 0, 72, 68
2, 423757, Note_off_c, 0, 72, 57
2, 423879, Note_on_c, 0, 79, 74
2, 423891, Note_on_c, 0, 76, 62
2, 423895, Note_on_c, 0, 67, 28
2, 423897, Note_on_c, 0, 70, 34
2, 423899, Note_on_c, 0, 60, 34
2, 423899, Note_on_c, 0, 72, 68
2, 423903, Control_c, 0, 64, 0
2, 424115, Control_c, 0, 64, 127
2, 424724, Note_off_c, 0, 67, 47
2, 424740, Note_off_c, 0, 70, 48
2, 424750, Note_on_c, 0, 80, 67
2, 424752, Note_on_c, 0, 68, 41
2, 424759, Note_on_c, 0, 77, 55
2, 424762, Note_on_c, 0, 65, 35
2, 424765, Control_c, 0, 64, 0
2, 424775, Note_off_c, 0, 76, 55
2, 424819, Note_off_c, 0, 79, 59
2, 424973, Control_c, 0, 64, 127
2, 425211, Note_off_c, 0, 77, 53
2, 425213, Note_off_c, 0, 68, 50
2, 425227, Note_on_c, 0, 82, 63
2, 425232, Note_on_c, 0, 67, 45
2, 425238, Note_on_c, 0, 79, 51
2, 425240, Note_on_c, 0, 64, 39
2, 425246, Control_c, 0, 64, 0
2, 425262, Note_off_c, 0, 65, 48
2, 425263, Note_off_c, 0, 80, 57
2, 425280, Note_off_c, 0, 60, 48
2, 425426, Note_off_c, 0, 72, 57
2, 425461, Control_c, 0, 64, 127
2, 425619, Note_off_c, 0, 67, 51
2, 425626, Note_off_c, 0, 79, 52
2, 425628, Note_off_c, 0, 64, 49
2, 425645, Note_off_c, 0, 82, 55
2, 425867, Control_c, 0, 64, 0
2, 426320, Note_on_c, 0, 88, 50
2, 426328, Note_on_c, 0, 79, 39
2, 426331, Note_on_c, 0, 60, 33
2, 426333, Note_on_c, 0, 48, 30
2, 426336, Note_on_c, 0, 76, 38
2, 426475, Note_off_c, 0, 60, 48
2, 426480, Note_off_c, 0, 48, 47
2, 426488, Note_off_c, 0, 79, 49
2, 426514, Note_off_c, 0, 76, 49
2, 426551, Note_off_c, 0, 88, 52
2, 426892, Control_c, 0, 64, 127
2, 426917, Note_on_c, 0, 89, 38
2, 426929, Note_on_c, 0, 53, 21
2, 426931, Note_on_c, 0, 41, 18
2, 426942, Note_on_c, 0, 80, 28
2, 426944, Note_on_c, 0, 77, 26
2, 427116, Note_off_c, 0, 80, 47
2, 427125, Note_off_c, 0, 77, 46
2, 427147, Note_off_c, 0, 53, 45
2, 427149, Note_off_c, 0, 41, 44
2, 427185, Note_off_c, 0, 89, 49
2, 427599, Control_c, 0, 64, 0
2, 428963, Control_c, 0, 67, 127
2, 429542, Control_c, 0, 64, 127
2, 429926, Note_on_c, 0, 65, 38
2, 429934, Note_on_c, 0, 53, 25
2, 429936, Note_on_c, 0, 56, 30
2, 429937, Note_on_c, 0, 49, 27
2, 429938, Note_on_c, 0, 37, 22
2, 430048, Note_off_c, 0, 37, 45
2, 430054, Note_off_c, 0, 56, 47
2, 430060, Note_off_c, 0, 53, 46
2, 430073, Note_off_c, 0, 49, 46
2, 430087, Note_off_c, 0, 65, 49
2, 430306, Note_on_c, 0, 65, 33
2, 430312, Note_on_c, 0, 49, 27
2, 430315, Note_on_c, 0, 53, 20
2, 430316, Note_on_c, 0, 56, 25
2, 430316, Note_on_c, 0, 37, 22
2, 430442, Note_off_c, 0, 37, 45
2, 430453, Note_off_c, 0, 56, 46
2, 430460, Note_off_c, 0, 49, 46
2, 430474, Note_off_c, 0, 53, 45
2, 430486, Note_off_c, 0, 65, 48
2, 431093, Note_on_c, 0, 65, 37
2, 431099, Note_on_c, 0, 53, 24
2, 431101, Note_on_c, 0, 49, 20
2, 431103, Note_on_c, 0, 56, 30
2, 431103, Note_on_c, 0, 37, 16
2, 431182, Note_off_c, 0, 49, 45
2, 431183, Note_off_c, 0, 65, 49
2, 431186, Note_off_c, 0, 37, 44
2, 431190, Note_off_c, 0, 56, 47
2, 431192, Note_off_c, 0, 53, 46
2, 431481, Note_on_c, 0, 65, 39
2, 431488, Note_on_c, 0, 49, 22
2, 431490, Note_on_c, 0, 53, 27
2, 431492, Note_on_c, 0, 56, 30
2, 431492, Note_on_c, 0, 37, 17
2, 431654, Note_off_c, 0, 53, 46
2, 431678, Note_off_c, 0, 37, 44
2, 431679, Note_off_c, 0, 56, 47
2, 431682, Note_off_c, 0, 65, 49
2, 431692, Note_off_c, 0, 49, 45
2, 432345, Note_on_c, 0, 65, 43
2, 432352, Note_on_c, 0, 49, 27
2, 432354, Note_on_c, 0, 53, 29
2, 432356, Note_on_c, 0, 56, 35
2, 432356, Note_on_c, 0, 37, 22
2, 432511, Note_off_c, 0, 37, 45
2, 432512, Note_off_c, 0, 65, 50
2, 432516, Note_off_c, 0, 56, 48
2, 432525, Note_off_c, 0, 53, 47
2, 432533, Note_off_c, 0, 49, 46
2, 432835, Control_c, 0, 67, 0
2, 432982, Note_on_c, 0, 58, 45
2, 432984, Note_on_c, 0, 37, 36
2, 432986, Note_on_c, 0, 54, 43
2, 432986, Note_on_c, 0, 49, 38
2, 432986, Note_on_c, 0, 65, 56
2, 432989, Control_c, 0, 64, 0
2, 433185, Control_c, 0, 64, 127
2, 434404, Note_on_c, 0, 63, 45
2, 434456, Note_off_c, 0, 65, 54
2, 435173, Control_c, 0, 64, 0
2, 435174, Note_off_c, 0, 63, 51
2, 435211, Note_on_c, 0, 65, 44
2, 435318, Note_on_c, 0, 63, 47
2, 435327, Note_off_c, 0, 54, 50
2, 435339, Note_off_c, 0, 58, 51
2, 435342, Note_off_c, 0, 65, 51
2, 435435, Note_on_c, 0, 62, 51
2, 435450, Note_off_c, 0, 63, 51
2, 435556, Note_on_c, 0, 63, 56
2, 435585, Note_off_c, 0, 62, 52
2, 435720, Note_on_c, 0, 65, 57
2, 435724, Note_off_c, 0, 63, 54
2, 435833, Note_off_c, 0, 49, 49
2, 435930, Note_off_c, 0, 65, 54
2, 435967, Note_on_c, 0, 66, 44
2, 435973, Note_on_c, 0, 63, 33
2, 435974, Note_on_c, 0, 56, 42
2, 435977, Note_on_c, 0, 36, 24
2, 435977, Note_on_c, 0, 48, 26
2, 435978, Note_off_c, 0, 37, 49
2, 436060, Control_c, 0, 64, 127
2, 436178, Note_off_c, 0, 48, 46
2, 436182, Note_off_c, 0, 36, 46
2, 436190, Note_off_c, 0, 66, 51
2, 436205, Note_off_c, 0, 56, 50
2, 436247, Note_off_c, 0, 63, 48
2, 436569, Control_c, 0, 67, 127
2, 436772, Note_on_c, 0, 66, 45
2, 436778, Note_on_c, 0, 63, 33
2, 436780, Note_on_c, 0, 36, 23
2, 436782, Note_on_c, 0, 48, 26
2, 436782, Note_on_c, 0, 56, 42
2, 436909, Note_off_c, 0, 63, 48
2, 436916, Note_off_c, 0, 36, 45
2, 436918, Note_off_c, 0, 66, 51
2, 436920, Note_off_c, 0, 48, 46
2, 436932, Note_off_c, 0, 56, 50
2, 437185, Note_on_c, 0, 66, 47
2, 437190, Note_on_c, 0, 63, 35
2, 437192, Note_on_c, 0, 56, 45
2, 437194, Note_on_c, 0, 48, 30
2, 437194, Note_on_c, 0, 36, 26
2, 437353, Note_off_c, 0, 56, 51
2, 437358, Note_off_c, 0, 48, 47
2, 437367, Note_off_c, 0, 36, 46
2, 437385, Note_off_c, 0, 63, 48
2, 437391, Note_off_c, 0, 66, 51
2, 438067, Note_on_c, 0, 66, 53
2, 438072, Note_on_c, 0, 63, 42
2, 438074, Note_on_c, 0, 48, 35
2, 438076, Note_on_c, 0, 56, 51
2, 438076, Note_on_c, 0, 36, 33
2, 438205, Note_off_c, 0, 48, 48
2, 438207, Note_off_c, 0, 66, 53
2, 438222, Note_off_c, 0, 36, 48
2, 438238, Note_off_c, 0, 56, 52
2, 438258, Note_off_c, 0, 63, 50
2, 438460, Control_c, 0, 67, 0
2, 438687, Note_on_c, 0, 66, 66
2, 438698, Note_on_c, 0, 63, 54
2, 438701, Note_on_c, 0, 56, 62
2, 438708, Note_on_c, 0, 37, 45
2, 438713, Note_on_c, 0, 49, 48
2, 438720, Control_c, 0, 64, 0
2, 438926, Control_c, 0, 64, 127
2, 440180, Note_off_c, 0, 63, 53
2, 440201, Note_on_c, 0, 65, 35
2, 440209, Note_on_c, 0, 61, 34
2, 440219, Note_off_c, 0, 66, 56
2, 440225, Control_c, 0, 64, 0
2, 440402, Control_c, 0, 64, 127
2, 440434, Note_off_c, 0, 49, 52
2, 440530, Note_off_c, 0, 37, 51
2, 440786, Note_off_c, 0, 56, 55
2, 440796, Note_off_c, 0, 61, 48
2, 440828, Note_off_c, 0, 65, 48
2, 441364, Note_on_c, 0, 65, 41
2, 441568, Note_on_c, 0, 67, 44
2, 441597, Note_off_c, 0, 65, 50
2, 441608, Control_c, 0, 64, 0
2, 441680, Control_c, 0, 67, 127
2, 441704, Note_off_c, 0, 67, 51
2, 441755, Note_on_c, 0, 68, 38
2, 441761, Note_on_c, 0, 65, 28
2, 441763, Note_on_c, 0, 49, 29
2, 441765, Note_on_c, 0, 56, 26
2, 441802, Control_c, 0, 64, 127
2, 441970, Note_off_c, 0, 68, 49
2, 442008, Note_off_c, 0, 49, 47
2, 442041, Note_off_c, 0, 56, 46
2, 442061, Note_off_c, 0, 65, 47
2, 442539, Note_on_c, 0, 68, 49
2, 442543, Note_on_c, 0, 56, 27
2, 442545, Note_on_c, 0, 65, 37
2, 442547, Note_on_c, 0, 49, 32
2, 442655, Note_off_c, 0, 68, 52
2, 442666, Note_off_c, 0, 49, 48
2, 442675, Note_off_c, 0, 65, 49
2, 442681, Note_off_c, 0, 56, 46
2, 442954, Note_on_c, 0, 68, 55
2, 442959, Note_on_c, 0, 63, 44
2, 442961, Note_on_c, 0, 48, 36
2, 442963, Note_on_c, 0, 56, 32
2, 442985, Control_c, 0, 64, 0
2, 443156, Note_off_c, 0, 63, 51
2, 443183, Note_off_c, 0, 56, 48
2, 443185, Note_off_c, 0, 68, 53
2, 443187, Control_c, 0, 64, 127
2, 443194, Note_off_c, 0, 48, 49
2, 443875, Note_on_c, 0, 68, 78
2, 443881, Note_on_c, 0, 56, 50
2, 443883, Note_on_c, 0, 63, 65
2, 443885, Note_on_c, 0, 48, 54
2, 444007, Note_off_c, 0, 56, 52
2, 444031, Note_off_c, 0, 48, 53
2, 444038, Note_off_c, 0, 68, 59
2, 444050, Note_off_c, 0, 63, 56
2, 444326, Control_c, 0, 67, 0
2, 444391, Note_on_c, 0, 73, 83
2, 444413, Note_on_c, 0, 68, 76
2, 444417, Note_on_c, 0, 51, 45
2, 444420, Note_on_c, 0, 46, 42
2, 444422, Note_on_c, 0, 63, 64
2, 444427, Note_on_c, 0, 56, 57
2, 444429, Note_on_c, 0, 61, 69
2, 444446, Control_c, 0, 64, 0
2, 444638, Control_c, 0, 64, 127
2, 446124, Note_on_c, 0, 67, 56
2, 446127, Note_on_c, 0, 55, 36
2, 446175, Control_c, 0, 64, 0
2, 446184, Note_off_c, 0, 56, 54
2, 446196, Note_off_c, 0, 68, 59
2, 446299, Control_c, 0, 64, 127
2, 446440, Note_off_c, 0, 63, 56
2, 446517, Note_off_c, 0, 51, 51
2, 446689, Note_off_c, 0, 61, 57
2, 446982, Note_off_c, 0, 46, 50
2, 447051, Note_off_c, 0, 55, 49
2, 447072, Note_off_c, 0, 67, 54
2, 447160, Note_on_c, 0, 72, 54
2, 447163, Note_on_c, 0, 60, 39
2, 447164, Note_on_c, 0, 56, 31
2, 447166, Note_on_c, 0, 68, 43
2, 447168, Note_on_c, 0, 51, 29
2, 447170, Note_on_c, 0, 48, 26
2, 447172, Note_on_c, 0, 63, 41
2, 447185, Control_c, 0, 64, 0
2, 447209, Note_off_c, 0, 73, 60
2, 447310, Control_c, 0, 64, 127
2, 447364, Note_off_c, 0, 56, 47
2, 447366, Note_off_c, 0, 72, 53
2, 447369, Note_off_c, 0, 68, 50
2, 447374, Note_off_c, 0, 60, 49
2, 447395, Note_off_c, 0, 63, 50
2, 447397, Note_off_c, 0, 51, 47
2, 447403, Note_off_c, 0, 48, 46
2, 447590, Note_on_c, 0, 72, 59
2, 447602, Note_on_c, 0, 65, 46
2, 447604, Note_on_c, 0, 49, 32
2, 447613, Note_on_c, 0, 58, 36
2, 447615, Note_on_c, 0, 53, 33
2, 447619, Control_c, 0, 64, 0
2, 447746, Control_c, 0, 64, 127
2, 447998, Note_on_c, 0, 70, 55
2, 448022, Note_off_c, 0, 72, 54
2, 448162, Note_off_c, 0, 49, 48
2, 448240, Note_off_c, 0, 65, 51
2, 448290, Note_off_c, 0, 70, 53
2, 448298, Note_off_c, 0, 53, 48
2, 448401, Note_off_c, 0, 58, 49
2, 448413, Note_on_c, 0, 68, 50
2, 448420, Note_on_c, 0, 50, 28
2, 448422, Note_on_c, 0, 65, 39
2, 448424, Note_on_c, 0, 53, 31
2, 448424, Note_on_c, 0, 59, 33
2, 448426, Control_c, 0, 64, 0
2, 448556, Control_c, 0, 64, 127
2, 448682, Note_off_c, 0, 53, 47
2, 448711, Note_off_c, 0, 65, 49
2, 448736, Note_off_c, 0, 68, 52
2, 448750, Note_off_c, 0, 59, 48
2, 448763, Note_off_c, 0, 50, 47
2, 448893, Note_on_c, 0, 68, 49
2, 448899, Note_on_c, 0, 51, 28
2, 448901, Note_on_c, 0, 63, 40
2, 448903, Note_on_c, 0, 60, 31
2, 448910, Control_c, 0, 64, 0
2, 449046, Control_c, 0, 64, 127
2, 449485, Note_off_c, 0, 51, 47
2, 449584, Note_off_c, 0, 60, 47
2, 449741, Note_off_c, 0, 63, 50
2, 449793, Note_on_c, 0, 67, 43
2, 449799, Note_on_c, 0, 61, 33
2, 449801, Note_on_c, 0, 51, 21
2, 449803, Note_on_c, 0, 58, 24
2, 449807, Control_c, 0, 64, 0
2, 449838, Note_off_c, 0, 68, 52
2, 450022, Control_c, 0, 64, 110
2, 450052, Note_off_c, 0, 61, 48
2, 450153, Note_off_c, 0, 67, 50
2, 450189, Note_off_c, 0, 51, 45
2, 450256, Note_off_c, 0, 58, 46
2, 450356, Note_on_c, 0, 70, 42
2, 450364, Note_on_c, 0, 55, 36
2, 450366, Note_on_c, 0, 61, 22
2, 450368, Note_on_c, 0, 44, 30
2, 450370, Control_c, 0, 64, 0
2, 450590, Control_c, 0, 64, 127
2, 451381, Note_off_c, 0, 55, 49
2, 451389, Note_on_c, 0, 51, 28
2, 451701, Note_off_c, 0, 61, 45
2, 451906, Note_on_c, 0, 68, 38
2, 451908, Note_on_c, 0, 60, 30
2, 451910, Note_on_c, 0, 56, 25
2, 451931, Note_off_c, 0, 70, 50
2, 451933, Control_c, 0, 64, 0
2, 452090, Control_c, 0, 64, 127
2, 452104, Note_off_c, 0, 44, 47
2, 452176, Note_off_c, 0, 51, 47
2, 452228, Note_off_c, 0, 60, 47
2, 452284, Note_off_c, 0, 56, 46
2, 452396, Note_off_c, 0, 68, 49
2, 452625, Control_c, 0, 64, 0
2, 452903, Note_on_c, 0, 65, 45
2, 452910, Note_on_c, 0, 56, 35
2, 452912, Note_on_c, 0, 53, 31
2, 452919, Control_c, 0, 64, 127
2, 453074, Note_off_c, 0, 56, 48
2, 453075, Note_off_c, 0, 53, 47
2, 453096, Note_off_c, 0, 65, 51
2, 453273, Note_on_c, 0, 65, 48
2, 453277, Note_on_c, 0, 53, 34
2, 453279, Note_on_c, 0, 56, 38
2, 453637, Note_off_c, 0, 56, 49
2, 453638, Note_off_c, 0, 53, 48
2, 453657, Control_c, 0, 64, 0
2, 453659, Note_off_c, 0, 65, 52
2, 453666, Note_on_c, 0, 49, 62
2, 453668, Note_on_c, 0, 37, 38
2, 453813, Note_off_c, 0, 49, 55
2, 453815, Note_off_c, 0, 37, 49
2, 453913, Control_c, 0, 64, 127
2, 454075, Note_on_c, 0, 65, 51
2, 454081, Note_on_c, 0, 53, 34
2, 454083, Note_on_c, 0, 56, 41
2, 454243, Note_off_c, 0, 65, 52
2, 454282, Note_off_c, 0, 53, 48
2, 454296, Note_off_c, 0, 56, 50
2, 454472, Note_on_c, 0, 65, 52
2, 454477, Note_on_c, 0, 53, 35
2, 454478, Note_on_c, 0, 56, 41
2, 454871, Note_on_c, 0, 49, 57
2, 454878, Control_c, 0, 64, 0
2, 454880, Note_on_c, 0, 37, 33
2, 454933, Note_off_c, 0, 56, 50
2, 454935, Note_off_c, 0, 53, 48
2, 454950, Note_off_c, 0, 65, 53
2, 455019, Note_off_c, 0, 49, 54
2, 455031, Note_off_c, 0, 37, 48
2, 455127, Control_c, 0, 64, 127
2, 455296, Note_on_c, 0, 65, 55
2, 455302, Note_on_c, 0, 53, 38
2, 455304, Note_on_c, 0, 56, 45
2, 455518, Note_off_c, 0, 65, 53
2, 455572, Note_off_c, 0, 56, 51
2, 455575, Note_off_c, 0, 53, 49
2, 455714, Note_on_c, 0, 65, 57
2, 455720, Note_on_c, 0, 54, 40
2, 455721, Note_on_c, 0, 58, 46
2, 455725, Control_c, 0, 64, 0
2, 455915, Control_c, 0, 64, 127
2, 456124, Note_on_c, 0, 49, 62
2, 456547, Note_on_c, 0, 51, 45
2, 456571, Note_off_c, 0, 49, 55
2, 456720, Note_on_c, 0, 53, 51
2, 456740, Note_off_c, 0, 54, 50
2, 456754, Note_off_c, 0, 51, 51
2, 456908, Note_on_c, 0, 54, 56
2, 456913, Note_on_c, 0, 63, 47
2, 456927, Note_off_c, 0, 53, 52
2, 456937, Control_c, 0, 64, 0
2, 456972, Note_off_c, 0, 65, 54
2, 457062, Control_c, 0, 64, 127
2, 457119, Note_on_c, 0, 53, 57
2, 457136, Note_off_c, 0, 54, 54
2, 457217, Note_off_c, 0, 58, 51
2, 457246, Note_off_c, 0, 53, 54
2, 457309, Note_on_c, 0, 51, 56
2, 457319, Note_off_c, 0, 63, 51
2, 457325, Control_c, 0, 64, 0
2, 457396, Note_off_c, 0, 51, 54
2, 457505, Note_on_c, 0, 49, 53
2, 457609, Note_off_c, 0, 49, 53
2, 457681, Note_on_c, 0, 48, 51
2, 457692, Note_on_c, 0, 63, 44
2, 457772, Note_off_c, 0, 48, 52
2, 457870, Note_on_c, 0, 46, 48
2, 457872, Note_on_c, 0, 65, 46
2, 457913, Note_off_c, 0, 63, 51
2, 457980, Note_off_c, 0, 46, 52
2, 458023, Note_off_c, 0, 65, 51
2, 458074, Note_on_c, 0, 66, 45
2, 458081, Note_on_c, 0, 60, 40
2, 458083, Note_on_c, 0, 57, 30
2, 458085, Note_on_c, 0, 63, 33
2, 458087, Note_on_c, 0, 45, 44
2, 458259, Note_off_c, 0, 45, 51
2, 458405, Note_off_c, 0, 66, 51
2, 458438, Note_off_c, 0, 57, 47
2, 458458, Note_on_c, 0, 45, 57
2, 458462, Note_off_c, 0, 63, 48
2, 458477, Note_off_c, 0, 60, 50
2, 458657, Note_off_c, 0, 45, 54
2, 458866, Note_on_c, 0, 66, 48
2, 458873, Note_on_c, 0, 60, 30
2, 458875, Note_on_c, 0, 63, 37
2, 458877, Note_on_c, 0, 57, 33
2, 458910, Control_c, 0, 64, 127
2, 459044, Note_off_c, 0, 63, 49
2, 459046, Note_off_c, 0, 66, 52
2, 459060, Note_off_c, 0, 60, 47
2, 459077, Note_off_c, 0, 57, 48
2, 459285, Note_on_c, 0, 66, 50
2, 459290, Note_on_c, 0, 60, 40
2, 459292, Note_on_c, 0, 57, 30
2, 459294, Note_on_c, 0, 63, 37
2, 459677, Note_on_c, 0, 45, 62
2, 459694, Control_c, 0, 64, 0
2, 459701, Note_off_c, 0, 60, 50
2, 459737, Note_off_c, 0, 66, 52
2, 459784, Note_off_c, 0, 63, 49
2, 459787, Note_off_c, 0, 57, 47
2, 459903, Note_off_c, 0, 45, 55
2, 460034, Control_c, 0, 64, 127
2, 460145, Note_on_c, 0, 66, 52
2, 460152, Note_on_c, 0, 60, 42
2, 460154, Note_on_c, 0, 57, 36
2, 460156, Note_on_c, 0, 63, 39
2, 460340, Note_off_c, 0, 60, 50
2, 460346, Note_off_c, 0, 57, 49
2, 460351, Note_off_c, 0, 66, 53
2, 460359, Note_off_c, 0, 63, 49
2, 460561, Note_on_c, 0, 66, 47
2, 460565, Note_on_c, 0, 60, 40
2, 460567, Note_on_c, 0, 63, 35
2, 460569, Note_on_c, 0, 57, 31
2, 460572, Control_c, 0, 64, 0
2, 460750, Control_c, 0, 64, 127
2, 460990, Note_on_c, 0, 45, 62
2, 461396, Note_on_c, 0, 46, 52
2, 461424, Note_off_c, 0, 45, 55
2, 461595, Note_on_c, 0, 48, 55
2, 461632, Note_off_c, 0, 46, 53
2, 461685, Note_off_c, 0, 57, 47
2, 461719, Note_off_c, 0, 63, 48
2, 461738, Note_off_c, 0, 60, 50
2, 461794, Note_on_c, 0, 49, 57
2, 461796, Note_on_c, 0, 58, 50
2, 461798, Note_on_c, 0, 61, 46
2, 461800, Note_on_c, 0, 65, 58
2, 461818, Control_c, 0, 64, 0
2, 461831, Note_off_c, 0, 48, 53
2, 461837, Note_off_c, 0, 66, 51
2, 461943, Control_c, 0, 64, 127
2, 461988, Note_on_c, 0, 48, 56
2, 462009, Note_off_c, 0, 49, 54
2, 462065, Note_off_c, 0, 65, 54
2, 462069, Note_off_c, 0, 61, 51
2, 462072, Note_off_c, 0, 58, 52
2, 462126, Note_off_c, 0, 48, 54
2, 462159, Control_c, 0, 64, 0
2, 462178, Note_on_c, 0, 46, 56
2, 462280, Note_off_c, 0, 46, 54
2, 462359, Note_on_c, 0, 44, 54
2, 462450, Note_off_c, 0, 44, 53
2, 462550, Note_on_c, 0, 67, 45
2, 462555, Note_on_c, 0, 43, 51
2, 462664, Note_off_c, 0, 43, 52
2, 462750, Note_on_c, 0, 68, 45
2, 462753, Note_on_c, 0, 41, 47
2, 462786, Note_off_c, 0, 67, 51
2, 462845, Note_off_c, 0, 41, 51
2, 462888, Note_off_c, 0, 68, 51
2, 462938, Note_on_c, 0, 61, 36
2, 462940, Note_on_c, 0, 70, 52
2, 462942, Note_on_c, 0, 67, 41
2, 462945, Note_on_c, 0, 40, 44
2, 463140, Note_off_c, 0, 40, 51
2, 463318, Note_on_c, 0, 40, 63
2, 463427, Note_off_c, 0, 61, 49
2, 463447, Note_off_c, 0, 67, 50
2, 463502, Note_off_c, 0, 70, 53
2, 463521, Note_off_c, 0, 40, 55
2, 463739, Note_on_c, 0, 61, 38
2, 463741, Note_on_c, 0, 67, 44
2, 463743, Note_on_c, 0, 70, 56
2, 463769, Control_c, 0, 64, 127
2, 463917, Note_off_c, 0, 61, 49
2, 463946, Note_off_c, 0, 70, 54
2, 463949, Note_off_c, 0, 67, 51
2, 464135, Note_on_c, 0, 61, 42
2, 464137, Note_on_c, 0, 70, 57
2, 464139, Note_on_c, 0, 67, 47
2, 464553, Note_on_c, 0, 40, 55
2, 464577, Note_off_c, 0, 67, 51
2, 464582, Control_c, 0, 64, 0
2, 464597, Note_off_c, 0, 61, 50
2, 464633, Note_off_c, 0, 70, 54
2, 464793, Note_off_c, 0, 40, 53
2, 464929, Control_c, 0, 64, 127
2, 465000, Note_on_c, 0, 61, 43
2, 465002, Note_on_c, 0, 67, 50
2, 465003, Note_on_c, 0, 70, 61
2, 465232, Note_off_c, 0, 67, 52
2, 465259, Note_off_c, 0, 70, 55
2, 465268, Note_off_c, 0, 61, 50
2, 465431, Note_on_c, 0, 60, 43
2, 465433, Note_on_c, 0, 70, 62
2, 465435, Note_on_c, 0, 67, 51
2, 465444, Control_c, 0, 64, 0
2, 465621, Control_c, 0, 64, 127
2, 465856, Note_on_c, 0, 40, 63
2, 466288, Note_on_c, 0, 41, 50
2, 466316, Note_off_c, 0, 40, 55
2, 466477, Note_on_c, 0, 43, 54
2, 466509, Note_off_c, 0, 41, 52
2, 466645, Note_off_c, 0, 67, 52
2, 466666, Note_on_c, 0, 44, 56
2, 466668, Note_on_c, 0, 65, 51
2, 466670, Note_on_c, 0, 68, 63
2, 466675, Control_c, 0, 64, 0
2, 466699, Note_off_c, 0, 70, 55
2, 466705, Note_off_c, 0, 43, 53
2, 466816, Control_c, 0, 64, 127
2, 466870, Note_on_c, 0, 43, 56
2, 466910, Note_off_c, 0, 44, 54
2, 467002, Note_off_c, 0, 43, 54
2, 467005, Note_off_c, 0, 60, 50
2, 467065, Note_off_c, 0, 68, 55
2, 467068, Note_on_c, 0, 41, 55
2, 467071, Note_off_c, 0, 65, 52
2, 467073, Control_c, 0, 64, 0
2, 467155, Note_off_c, 0, 41, 53
2, 467246, Note_on_c, 0, 39, 53
2, 467348, Note_off_c, 0, 39, 53
2, 467431, Note_on_c, 0, 37, 52
2, 467435, Note_on_c, 0, 56, 41
2, 467437, Note_on_c, 0, 68, 53
2, 467545, Note_off_c, 0, 37, 53
2, 467608, Note_off_c, 0, 56, 50
2, 467621, Note_on_c, 0, 36, 51
2, 467727, Note_off_c, 0, 36, 52
2, 467751, Note_off_c, 0, 68, 53
2, 467831, Note_on_c, 0, 56, 30
2, 467833, Note_on_c, 0, 58, 37
2, 467835, Note_on_c, 0, 65, 49
2, 467839, Note_on_c, 0, 37, 49
2, 467943, Note_off_c, 0, 37, 52
2, 468155, Note_off_c, 0, 58, 49
2, 468168, Note_off_c, 0, 56, 47
2, 468221, Note_on_c, 0, 37, 45
2, 468232, Note_off_c, 0, 65, 52
2, 468438, Note_off_c, 0, 37, 51
2, 468633, Note_on_c, 0, 56, 22
2, 468635, Note_on_c, 0, 65, 38
2, 468637, Note_on_c, 0, 58, 26
2, 468672, Control_c, 0, 64, 127
2, 468856, Note_off_c, 0, 58, 46
2, 468925, Note_off_c, 0, 56, 45
2, 468946, Note_off_c, 0, 65, 49
2, 469066, Note_on_c, 0, 55, 21
2, 469068, Note_on_c, 0, 58, 27
2, 469070, Note_on_c, 0, 63, 39
2, 469328, Note_off_c, 0, 55, 45
2, 469344, Note_off_c, 0, 58, 46
2, 469371, Note_off_c, 0, 63, 49
2, 469492, Note_on_c, 0, 39, 40
2, 469497, Control_c, 0, 64, 0
2, 469676, Control_c, 0, 64, 127
2, 469910, Note_on_c, 0, 55, 30
2, 469912, Note_on_c, 0, 58, 35
2, 469914, Note_off_c, 0, 39, 50
2, 469914, Note_on_c, 0, 63, 47
2, 470231, Note_off_c, 0, 58, 48
2, 470259, Note_off_c, 0, 55, 47
2, 470277, Note_off_c, 0, 63, 51
2, 470332, Note_on_c, 0, 56, 44
2, 470335, Control_c, 0, 64, 0
2, 470513, Control_c, 0, 64, 127
2, 470766, Note_off_c, 0, 56, 51
2, 470768, Note_on_c, 0, 32, 43
2, 470778, Control_c, 0, 64, 0
2, 470956, Note_on_c, 0, 36, 44
2, 471074, Note_off_c, 0, 32, 50
2, 471185, Note_on_c, 0, 39, 46
2, 471243, Note_off_c, 0, 36, 51
2, 471399, Note_off_c, 0, 39, 51
2, 471412, Note_on_c, 0, 44, 47
2, 471580, Note_off_c, 0, 44, 51
2, 471738, Note_on_c, 0, 32, 38
2, 472268, Note_off_c, 0, 32, 49
2, 472528, Control_c, 0, 67, 127
2, 472779, Note_on_c, 0, 59, 38
2, 472784, Note_on_c, 0, 56, 30
2, 472785, Note_on_c, 0, 53, 25
2, 472787, Control_c, 0, 64, 127
2, 472897, Note_off_c, 0, 59, 49
2, 472899, Note_off_c, 0, 53, 46
2, 472909, Note_off_c, 0, 56, 47
2, 473170, Note_on_c, 0, 59, 40
2, 473175, Note_on_c, 0, 56, 30
2, 473177, Note_on_c, 0, 53, 23
2, 473384, Note_off_c, 0, 56, 47
2, 473410, Note_off_c, 0, 53, 45
2, 473427, Note_off_c, 0, 59, 50
2, 473977, Note_on_c, 0, 59, 45
2, 473982, Note_on_c, 0, 53, 30
2, 473984, Note_on_c, 0, 56, 35
2, 474110, Note_off_c, 0, 56, 48
2, 474117, Note_off_c, 0, 53, 47
2, 474128, Note_off_c, 0, 59, 51
2, 474402, Note_on_c, 0, 59, 51
2, 474409, Note_on_c, 0, 53, 43
2, 474411, Note_on_c, 0, 51, 33
2, 474413, Note_on_c, 0, 56, 40
2, 474423, Control_c, 0, 64, 0
2, 474651, Control_c, 0, 64, 127
2, 474653, Note_off_c, 0, 51, 48
2, 474655, Note_off_c, 0, 56, 50
2, 474668, Note_off_c, 0, 53, 50
2, 474704, Note_off_c, 0, 59, 52
2, 475280, Note_on_c, 0, 59, 68
2, 475287, Note_on_c, 0, 51, 46
2, 475288, Note_on_c, 0, 56, 57
2, 475291, Note_on_c, 0, 53, 54
2, 475429, Note_off_c, 0, 59, 57
2, 475445, Note_off_c, 0, 51, 51
2, 475461, Note_off_c, 0, 56, 54
2, 475475, Note_off_c, 0, 53, 53
2, 475624, Control_c, 0, 67, 0
2, 475719, Note_on_c, 0, 59, 72
2, 475726, Note_on_c, 0, 50, 49
2, 475728, Note_on_c, 0, 53, 53
2, 475730, Note_on_c, 0, 56, 59
2, 475734, Control_c, 0, 64, 0
2, 475925, Control_c, 0, 64, 127
2, 476738, Note_on_c, 0, 89, 81
2, 477118, Note_on_c, 0, 58, 45
2, 477120, Control_c, 0, 64, 0
2, 477171, Note_off_c, 0, 59, 58
2, 477300, Control_c, 0, 64, 127
2, 477305, Note_on_c, 0, 87, 55
2, 477331, Note_off_c, 0, 89, 60
2, 477465, Note_off_c, 0, 53, 53
2, 477492, Note_off_c, 0, 50, 52
2, 477499, Note_off_c, 0, 56, 54
2, 477501, Note_on_c, 0, 86, 53
2, 477519, Note_off_c, 0, 87, 53
2, 477540, Note_off_c, 0, 58, 51
2, 477701, Note_on_c, 0, 83, 51
2, 477728, Note_off_c, 0, 86, 53
2, 477888, Note_on_c, 0, 82, 49
2, 477917, Note_off_c, 0, 83, 52
2, 478076, Note_on_c, 0, 80, 47
2, 478101, Note_off_c, 0, 82, 52
2, 478159, Control_c, 0, 64, 0
2, 478214, Note_off_c, 0, 80, 51
2, 478260, Note_on_c, 0, 58, 38
2, 478265, Control_c, 0, 67, 127
2, 478267, Note_on_c, 0, 78, 45
2, 478269, Note_on_c, 0, 51, 24
2, 478269, Note_on_c, 0, 54, 28
2, 478369, Note_off_c, 0, 78, 51
2, 478463, Control_c, 0, 64, 127
2, 478499, Note_off_c, 0, 58, 49
2, 478519, Note_off_c, 0, 54, 47
2, 478527, Note_off_c, 0, 51, 46
2, 479103, Note_on_c, 0, 58, 44
2, 479107, Note_on_c, 0, 51, 30
2, 479109, Note_on_c, 0, 54, 35
2, 479215, Note_off_c, 0, 58, 51
2, 479220, Note_off_c, 0, 54, 48
2, 479224, Note_off_c, 0, 51, 47
2, 479545, Note_on_c, 0, 57, 49
2, 479552, Note_on_c, 0, 51, 40
2, 479554, Note_on_c, 0, 49, 34
2, 479556, Note_on_c, 0, 54, 39
2, 479558, Control_c, 0, 64, 0
2, 479736, Control_c, 0, 64, 127
2, 479818, Note_off_c, 0, 57, 52
2, 479820, Note_off_c, 0, 51, 50
2, 479823, Note_off_c, 0, 54, 49
2, 479849, Note_off_c, 0, 49, 48
2, 480458, Note_on_c, 0, 57, 67
2, 480464, Note_on_c, 0, 49, 48
2, 480466, Note_on_c, 0, 54, 56
2, 480468, Note_on_c, 0, 51, 53
2, 480593, Note_off_c, 0, 57, 57
2, 480619, Note_off_c, 0, 54, 54
2, 480621, Note_off_c, 0, 51, 53
2, 480623, Note_off_c, 0, 49, 52
2, 480905, Control_c, 0, 67, 0
2, 480955, Note_on_c, 0, 57, 77
2, 480962, Note_on_c, 0, 51, 68
2, 480964, Note_on_c, 0, 54, 65
2, 480966, Note_on_c, 0, 48, 61
2, 480968, Control_c, 0, 64, 0
2, 481144, Control_c, 0, 64, 127
2, 482002, Note_on_c, 0, 87, 81
2, 482380, Note_on_c, 0, 56, 38
2, 482389, Control_c, 0, 64, 0
2, 482450, Note_off_c, 0, 57, 59
2, 482568, Control_c, 0, 64, 127
2, 482570, Note_on_c, 0, 85, 55
2, 482589, Note_off_c, 0, 87, 60
2, 482726, Note_off_c, 0, 51, 57
2, 482733, Note_off_c, 0, 54, 56
2, 482771, Note_off_c, 0, 56, 49
2, 482774, Note_off_c, 0, 48, 55
2, 482779, Note_on_c, 0, 84, 53
2, 482796, Note_off_c, 0, 85, 53
2, 482964, Note_on_c, 0, 82, 51
2, 482993, Note_off_c, 0, 84, 53
2, 483149, Note_on_c, 0, 80, 49
2, 483173, Note_off_c, 0, 82, 52
2, 483338, Note_on_c, 0, 78, 47
2, 483367, Note_off_c, 0, 80, 52
2, 483494, Note_off_c, 0, 78, 51
2, 483527, Note_on_c, 0, 77, 51
2, 483529, Note_on_c, 0, 65, 39
2, 483531, Note_on_c, 0, 49, 33
2, 483542, Control_c, 0, 64, 0
2, 483654, Note_off_c, 0, 49, 48
2, 483919, Note_on_c, 0, 61, 59
2, 484002, Note_off_c, 0, 77, 52
2, 484051, Note_off_c, 0, 61, 54
2, 484062, Note_off_c, 0, 65, 49
2, 484345, Note_on_c, 0, 65, 40
2, 484347, Note_on_c, 0, 77, 53
2, 484349, Note_on_c, 0, 68, 47
2, 484393, Control_c, 0, 64, 127
2, 484593, Note_off_c, 0, 77, 53
2, 484619, Note_off_c, 0, 65, 50
2, 484632, Note_off_c, 0, 68, 51
2, 484754, Note_on_c, 0, 77, 55
2, 484756, Note_on_c, 0, 65, 43
2, 484759, Note_on_c, 0, 49, 31
2, 484772, Control_c, 0, 64, 0
2, 484884, Note_off_c, 0, 49, 47
2, 485168, Note_on_c, 0, 61, 57
2, 485292, Note_off_c, 0, 61, 54
2, 485368, Note_off_c, 0, 77, 53
2, 485372, Note_off_c, 0, 65, 50
2, 485611, Note_on_c, 0, 65, 46
2, 485613, Note_on_c, 0, 68, 54
2, 485615, Note_on_c, 0, 77, 60
2, 485617, Control_c, 0, 64, 127
2, 485856, Note_off_c, 0, 68, 53
2, 485865, Note_off_c, 0, 77, 55
2, 485889, Note_off_c, 0, 65, 51
2, 486033, Note_on_c, 0, 77, 62
2, 486038, Note_on_c, 0, 70, 42
2, 486040, Note_on_c, 0, 66, 50
2, 486046, Control_c, 0, 64, 0
2, 486259, Control_c, 0, 64, 127
2, 486468, Note_on_c, 0, 61, 69
2, 486894, Note_on_c, 0, 63, 45
2, 486924, Note_off_c, 0, 61, 57
2, 487079, Note_on_c, 0, 65, 51
2, 487084, Note_off_c, 0, 66, 52
2, 487115, Note_off_c, 0, 63, 51
2, 487201, Note_off_c, 0, 77, 55
2, 487286, Note_on_c, 0, 75, 33
2, 487290, Note_on_c, 0, 66, 57
2, 487294, Control_c, 0, 64, 0
2, 487321, Note_off_c, 0, 65, 52
2, 487357, Note_off_c, 0, 70, 50
2, 487475, Note_on_c, 0, 65, 57
2, 487502, Note_off_c, 0, 66, 54
2, 487507, Control_c, 0, 64, 127
2, 487557, Note_off_c, 0, 75, 48
2, 487609, Note_off_c, 0, 65, 54
2, 487662, Note_on_c, 0, 63, 55
2, 487688, Control_c, 0, 64, 0
2, 487769, Note_off_c, 0, 63, 53
2, 487852, Note_on_c, 0, 61, 53
2, 487953, Note_off_c, 0, 61, 53
2, 488040, Note_on_c, 0, 75, 45
2, 488042, Note_on_c, 0, 72, 33
2, 488043, Note_on_c, 0, 60, 50
2, 488140, Note_off_c, 0, 60, 52
2, 488248, Note_on_c, 0, 73, 36
2, 488250, Note_on_c, 0, 77, 48
2, 488252, Note_on_c, 0, 58, 48
2, 488276, Note_off_c, 0, 72, 48
2, 488279, Note_off_c, 0, 75, 51
2, 488329, Note_off_c, 0, 58, 52
2, 488382, Note_off_c, 0, 73, 49
2, 488385, Note_off_c, 0, 77, 52
2, 488434, Note_on_c, 0, 72, 38
2, 488436, Note_on_c, 0, 75, 40
2, 488438, Note_on_c, 0, 78, 51
2, 488438, Note_on_c, 0, 57, 45
2, 488443, Control_c, 0, 64, 127
2, 488622, Note_off_c, 0, 57, 51
2, 488829, Note_on_c, 0, 69, 69
2, 488838, Note_off_c, 0, 78, 52
2, 488850, Note_off_c, 0, 75, 50
2, 488913, Note_off_c, 0, 72, 49
2, 488963, Control_c, 0, 64, 0
2, 488990, Note_off_c, 0, 69, 57
2, 489243, Control_c, 0, 64, 127
2, 489253, Note_on_c, 0, 72, 35
2, 489255, Note_on_c, 0, 75, 40
2, 489257, Note_on_c, 0, 78, 48
2, 489455, Note_off_c, 0, 78, 52
2, 489465, Note_off_c, 0, 72, 48
2, 489467, Note_off_c, 0, 75, 50
2, 489665, Note_on_c, 0, 72, 41
2, 489667, Note_on_c, 0, 78, 56
2, 489668, Note_on_c, 0, 75, 46
2, 490092, Note_on_c, 0, 69, 70
2, 490095, Note_off_c, 0, 75, 51
2, 490100, Note_off_c, 0, 78, 54
2, 490103, Control_c, 0, 64, 0
2, 490153, Note_off_c, 0, 72, 50
2, 490249, Note_off_c, 0, 69, 57
2, 490365, Control_c, 0, 64, 127
2, 490568, Note_on_c, 0, 72, 52
2, 490570, Note_on_c, 0, 75, 60
2, 490572, Note_on_c, 0, 78, 73
2, 490748, Note_off_c, 0, 78, 58
2, 490756, Note_off_c, 0, 75, 55
2, 490781, Note_off_c, 0, 72, 53
2, 491013, Note_on_c, 0, 78, 85
2, 491014, Note_on_c, 0, 72, 68
2, 491016, Note_on_c, 0, 75, 59
2, 491018, Control_c, 0, 64, 0
2, 491196, Control_c, 0, 64, 127
2, 491642, Note_on_c, 0, 70, 76
2, 492647, Note_off_c, 0, 75, 54
2, 492673, Note_off_c, 0, 72, 57
2, 492695, Note_on_c, 0, 73, 40
2, 492697, Note_on_c, 0, 77, 51
2, 492709, Control_c, 0, 64, 0
2, 492726, Note_off_c, 0, 78, 61
2, 492782, Note_off_c, 0, 70, 59
2, 492886, Control_c, 0, 64, 127
2, 493067, Note_off_c, 0, 73, 50
2, 493110, Note_off_c, 0, 77, 52
2, 493995, Control_c, 0, 67, 127
2, 494194, Note_on_c, 0, 70, 41
2, 494200, Note_on_c, 0, 52, 35
2, 494202, Note_on_c, 0, 61, 30
2, 494204, Note_on_c, 0, 43, 26
2, 494206, Control_c, 0, 64, 0
2, 494383, Control_c, 0, 64, 127
2, 494576, Note_off_c, 0, 52, 48
2, 494578, Note_off_c, 0, 43, 46
2, 494597, Note_off_c, 0, 70, 50
2, 494602, Note_off_c, 0, 61, 47
2, 494967, Note_on_c, 0, 70, 45
2, 494973, Note_on_c, 0, 61, 32
2, 494975, Note_on_c, 0, 52, 38
2, 494977, Note_on_c, 0, 43, 26
2, 495158, Note_off_c, 0, 70, 51
2, 495164, Note_off_c, 0, 52, 49
2, 495170, Note_off_c, 0, 43, 46
2, 495177, Note_off_c, 0, 61, 48
2, 495378, Note_on_c, 0, 70, 47
2, 495382, Note_on_c, 0, 52, 40
2, 495384, Note_on_c, 0, 61, 32
2, 495386, Note_on_c, 0, 43, 29
2, 495762, Note_off_c, 0, 70, 51
2, 495770, Note_off_c, 0, 52, 50
2, 495773, Note_off_c, 0, 43, 47
2, 495794, Note_off_c, 0, 61, 48
2, 496251, Note_on_c, 0, 70, 51
2, 496255, Note_on_c, 0, 52, 44
2, 496257, Note_on_c, 0, 61, 40
2, 496259, Note_on_c, 0, 43, 35
2, 496473, Note_off_c, 0, 61, 50
2, 496499, Note_off_c, 0, 70, 52
2, 496500, Note_off_c, 0, 52, 51
2, 496507, Note_off_c, 0, 43, 48
2, 496908, Note_on_c, 0, 70, 53
2, 496915, Note_on_c, 0, 44, 38
2, 496917, Note_on_c, 0, 52, 46
2, 496919, Note_on_c, 0, 61, 40
2, 496924, Control_c, 0, 64, 0
2, 497103, Control_c, 0, 64, 127
2, 498644, Note_on_c, 0, 68, 48
2, 498648, Note_on_c, 0, 53, 24
2, 498679, Note_off_c, 0, 70, 53
2, 498686, Note_off_c, 0, 52, 51
2, 498737, Control_c, 0, 64, 0
2, 498847, Control_c, 0, 64, 127
2, 499050, Note_off_c, 0, 44, 49
2, 499214, Note_off_c, 0, 61, 50
2, 499227, Note_off_c, 0, 53, 46
2, 499310, Note_off_c, 0, 68, 52
2, 500352, Control_c, 0, 64, 0
2, 500369, Note_on_c, 0, 68, 34
2, 500373, Note_on_c, 0, 54, 28
2, 500375, Note_on_c, 0, 44, 17
2, 500377, Note_on_c, 0, 60, 24
2, 500530, Control_c, 0, 64, 127
2, 500698, Note_off_c, 0, 68, 48
2, 500750, Note_off_c, 0, 60, 46
2, 500759, Note_off_c, 0, 44, 44
2, 500790, Note_off_c, 0, 54, 47
2, 501141, Note_on_c, 0, 68, 38
2, 501147, Note_on_c, 0, 54, 30
2, 501148, Note_on_c, 0, 44, 21
2, 501151, Note_on_c, 0, 60, 28
2, 501310, Note_off_c, 0, 68, 49
2, 501316, Note_off_c, 0, 44, 45
2, 501319, Note_off_c, 0, 60, 47
2, 501324, Note_off_c, 0, 54, 47
2, 501549, Note_on_c, 0, 68, 41
2, 501556, Note_on_c, 0, 54, 35
2, 501558, Note_on_c, 0, 44, 24
2, 501560, Note_on_c, 0, 60, 31
2, 502039, Note_off_c, 0, 68, 50
2, 502058, Note_off_c, 0, 44, 46
2, 502068, Note_off_c, 0, 54, 48
2, 502089, Note_off_c, 0, 60, 47
2, 502598, Note_on_c, 0, 68, 46
2, 502605, Note_on_c, 0, 54, 39
2, 502607, Note_on_c, 0, 44, 29
2, 502609, Note_on_c, 0, 60, 36
2, 502612, Control_c, 0, 64, 0
2, 502790, Control_c, 0, 64, 127
2, 503198, Note_off_c, 0, 60, 49
2, 503200, Note_on_c, 0, 61, 34
2, 503202, Note_off_c, 0, 54, 49
2, 503202, Note_off_c, 0, 44, 47
2, 503205, Note_on_c, 0, 49, 20
2, 503206, Note_on_c, 0, 53, 26
2, 503212, Control_c, 0, 64, 0
2, 503214, Note_off_c, 0, 68, 51
2, 503390, Control_c, 0, 64, 127
2, 503845, Note_off_c, 0, 49, 45
2, 503886, Note_off_c, 0, 53, 46
2, 503941, Note_off_c, 0, 61, 48
2, 504871, Control_c, 0, 64, 0
2, 506216, Control_c, 0, 67, 127
2, 506387, Note_on_c, 0, 59, 34
2, 506393, Note_on_c, 0, 53, 23
2, 506395, Note_on_c, 0, 56, 24
2, 506415, Control_c, 0, 64, 127
2, 506500, Note_off_c, 0, 53, 45
2, 506502, Note_off_c, 0, 56, 46
2, 506520, Note_off_c, 0, 59, 48
2, 506762, Note_on_c, 0, 59, 33
2, 506767, Note_on_c, 0, 53, 19
2, 506768, Note_on_c, 0, 56, 23
2, 507019, Note_off_c, 0, 53, 45
2, 507025, Note_off_c, 0, 59, 48
2, 507034, Note_off_c, 0, 56, 45
2, 507554, Note_on_c, 0, 59, 46
2, 507561, Note_on_c, 0, 53, 27
2, 507562, Note_on_c, 0, 56, 32
2, 507681, Note_off_c, 0, 59, 51
2, 507702, Note_off_c, 0, 53, 46
2, 507708, Note_off_c, 0, 56, 48
2, 507981, Note_on_c, 0, 59, 58
2, 507986, Note_on_c, 0, 51, 38
2, 507987, Note_on_c, 0, 53, 50
2, 507989, Note_on_c, 0, 56, 45
2, 507992, Control_c, 0, 64, 0
2, 508169, Control_c, 0, 64, 127
2, 508296, Note_off_c, 0, 59, 54
2, 508301, Note_off_c, 0, 51, 49
2, 508316, Note_off_c, 0, 56, 51
2, 508333, Note_off_c, 0, 53, 52
2, 508835, Note_on_c, 0, 59, 71
2, 508842, Note_on_c, 0, 53, 65
2, 508844, Note_on_c, 0, 51, 51
2, 508846, Note_on_c, 0, 56, 58
2, 508995, Note_off_c, 0, 53, 56
2, 509009, Note_off_c, 0, 56, 54
2, 509021, Note_off_c, 0, 51, 52
2, 509023, Note_off_c, 0, 59, 58
2, 509175, Control_c, 0, 67, 0
2, 509305, Note_on_c, 0, 59, 76
2, 509310, Note_on_c, 0, 53, 70
2, 509312, Note_on_c, 0, 56, 65
2, 509314, Note_on_c, 0, 50, 60
2, 509316, Control_c, 0, 64, 0
2, 509492, Control_c, 0, 64, 127
2, 510284, Note_on_c, 0, 77, 57
2, 510349, Note_off_c, 0, 77, 54
2, 510352, Note_on_c, 0, 89, 81
2, 510729, Note_on_c, 0, 58, 38
2, 510762, Control_c, 0, 64, 0
2, 510790, Note_off_c, 0, 59, 59
2, 510865, Control_c, 0, 64, 127
2, 510915, Note_on_c, 0, 87, 55
2, 510952, Note_off_c, 0, 89, 60
2, 511107, Note_off_c, 0, 56, 56
2, 511109, Note_on_c, 0, 86, 53
2, 511114, Note_off_c, 0, 50, 55
2, 511117, Note_off_c, 0, 53, 57
2, 511134, Note_off_c, 0, 87, 53
2, 511143, Note_off_c, 0, 58, 49
2, 511309, Note_on_c, 0, 83, 51
2, 511346, Note_off_c, 0, 86, 53
2, 511499, Note_on_c, 0, 82, 49
2, 511532, Note_off_c, 0, 83, 52
2, 511688, Note_on_c, 0, 80, 47
2, 511720, Note_off_c, 0, 82, 52
2, 511836, Note_off_c, 0, 80, 51
2, 511842, Control_c, 0, 67, 127
2, 511870, Note_on_c, 0, 58, 38
2, 511876, Note_on_c, 0, 51, 25
2, 511878, Note_on_c, 0, 54, 28
2, 511880, Note_on_c, 0, 78, 45
2, 511882, Control_c, 0, 64, 0
2, 512057, Control_c, 0, 64, 127
2, 512197, Note_off_c, 0, 54, 47
2, 512199, Note_off_c, 0, 58, 49
2, 512213, Note_off_c, 0, 51, 46
2, 512289, Note_off_c, 0, 78, 51
2, 512704, Note_on_c, 0, 58, 39
2, 512710, Note_on_c, 0, 51, 22
2, 512712, Note_on_c, 0, 54, 27
2, 512878, Note_off_c, 0, 54, 46
2, 512880, Note_off_c, 0, 51, 45
2, 512892, Note_off_c, 0, 58, 49
2, 513156, Note_on_c, 0, 57, 42
2, 513164, Note_on_c, 0, 51, 38
2, 513166, Note_on_c, 0, 54, 33
2, 513168, Note_on_c, 0, 49, 28
2, 513168, Control_c, 0, 64, 0
2, 513341, Control_c, 0, 64, 127
2, 513471, Note_off_c, 0, 51, 49
2, 513511, Note_off_c, 0, 57, 50
2, 513551, Note_off_c, 0, 49, 47
2, 513559, Note_off_c, 0, 54, 48
2, 514078, Note_on_c, 0, 57, 66
2, 514085, Note_on_c, 0, 51, 59
2, 514087, Note_on_c, 0, 54, 54
2, 514089, Note_on_c, 0, 49, 50
2, 514261, Note_off_c, 0, 57, 56
2, 514265, Note_off_c, 0, 51, 54
2, 514289, Note_off_c, 0, 54, 53
2, 514300, Note_off_c, 0, 49, 52
2, 514481, Control_c, 0, 67, 0
2, 514558, Note_on_c, 0, 57, 72
2, 514565, Note_on_c, 0, 51, 65
2, 514567, Note_on_c, 0, 48, 57
2, 514569, Note_on_c, 0, 54, 61
2, 514569, Control_c, 0, 64, 0
2, 514745, Control_c, 0, 64, 127
2, 515540, Note_on_c, 0, 75, 57
2, 515612, Note_off_c, 0, 75, 54
2, 515614, Note_on_c, 0, 87, 81
2, 515984, Note_on_c, 0, 56, 45
2, 516015, Control_c, 0, 64, 0
2, 516043, Note_off_c, 0, 57, 58
2, 516111, Control_c, 0, 64, 127
2, 516195, Note_on_c, 0, 85, 55
2, 516224, Note_off_c, 0, 87, 60
2, 516347, Note_off_c, 0, 54, 55
2, 516379, Note_off_c, 0, 51, 56
2, 516387, Note_on_c, 0, 84, 53
2, 516389, Note_off_c, 0, 48, 54
2, 516411, Note_off_c, 0, 85, 53
2, 516435, Note_off_c, 0, 56, 51
2, 516572, Note_on_c, 0, 82, 51
2, 516599, Note_off_c, 0, 84, 53
2, 516758, Note_on_c, 0, 80, 49
2, 516795, Note_off_c, 0, 82, 52
2, 516947, Note_on_c, 0, 78, 47
2, 516979, Note_off_c, 0, 80, 52
2, 517059, Control_c, 0, 64, 0
2, 517077, Note_off_c, 0, 78, 51
2, 517152, Note_on_c, 0, 65, 40
2, 517154, Note_on_c, 0, 77, 50
2, 517156, Note_on_c, 0, 49, 46
2, 517306, Note_off_c, 0, 49, 51
2, 517547, Note_on_c, 0, 61, 53
2, 517553, Note_off_c, 0, 65, 50
2, 517645, Note_off_c, 0, 77, 52
2, 517766, Note_off_c, 0, 61, 53
2, 517971, Note_on_c, 0, 68, 40
2, 517972, Note_on_c, 0, 65, 34
2, 517975, Note_on_c, 0, 77, 52
2, 517999, Control_c, 0, 64, 127
2, 518165, Note_off_c, 0, 68, 50
2, 518166, Note_off_c, 0, 65, 48
2, 518218, Note_off_c, 0, 77, 53
2, 518367, Note_on_c, 0, 68, 42
2, 518369, Note_on_c, 0, 65, 36
2, 518371, Note_on_c, 0, 77, 54
2, 518777, Note_off_c, 0, 65, 49
2, 518794, Note_on_c, 0, 61, 49
2, 518813, Note_off_c, 0, 77, 53
2, 518815, Note_off_c, 0, 68, 50
2, 518829, Control_c, 0, 64, 0
2, 519030, Note_off_c, 0, 61, 52
2, 519233, Note_on_c, 0, 65, 40
2, 519235, Note_on_c, 0, 68, 47
2, 519237, Note_on_c, 0, 77, 59
2, 519278, Control_c, 0, 64, 127
2, 519429, Note_off_c, 0, 77, 54
2, 519439, Note_off_c, 0, 65, 50
2, 519499, Note_off_c, 0, 68, 51
2, 519664, Note_on_c, 0, 66, 46
2, 519666, Note_on_c, 0, 70, 52
2, 519667, Note_on_c, 0, 77, 62
2, 520089, Note_on_c, 0, 61, 66
2, 520093, Control_c, 0, 64, 0
2, 520315, Control_c, 0, 64, 127
2, 520521, Note_on_c, 0, 63, 55
2, 520547, Note_off_c, 0, 61, 56
2, 520689, Note_off_c, 0, 66, 51
2, 520707, Note_on_c, 0, 65, 56
2, 520736, Note_off_c, 0, 63, 53
2, 520758, Note_off_c, 0, 77, 55
2, 520894, Note_on_c, 0, 75, 50
2, 520898, Note_on_c, 0, 66, 57
2, 520905, Control_c, 0, 64, 0
2, 520923, Note_off_c, 0, 65, 54
2, 521074, Control_c, 0, 64, 127
2, 521085, Note_off_c, 0, 70, 53
2, 521088, Note_on_c, 0, 65, 57
2, 521110, Note_off_c, 0, 66, 54
2, 521239, Note_off_c, 0, 65, 54
2, 521270, Note_off_c, 0, 75, 52
2, 521274, Note_on_c, 0, 63, 55
2, 521287, Control_c, 0, 64, 0
2, 521378, Note_off_c, 0, 63, 53
2, 521479, Note_on_c, 0, 61, 53
2, 521565, Note_off_c, 0, 61, 53
2, 521667, Note_on_c, 0, 75, 52
2, 521669, Note_on_c, 0, 72, 40
2, 521672, Note_on_c, 0, 60, 50
2, 521751, Note_off_c, 0, 60, 52
2, 521854, Note_on_c, 0, 77, 53
2, 521858, Note_on_c, 0, 73, 41
2, 521860, Note_on_c, 0, 58, 48
2, 521883, Note_off_c, 0, 72, 50
2, 521889, Note_off_c, 0, 75, 53
2, 521961, Note_off_c, 0, 58, 52
2, 521995, Note_off_c, 0, 73, 50
2, 521996, Note_off_c, 0, 77, 53
2, 522046, Note_on_c, 0, 57, 45
2, 522052, Note_on_c, 0, 72, 30
2, 522054, Note_on_c, 0, 75, 34
2, 522056, Note_on_c, 0, 78, 43
2, 522058, Control_c, 0, 64, 127
2, 522234, Note_off_c, 0, 57, 51
2, 522439, Note_on_c, 0, 69, 63
2, 522472, Control_c, 0, 64, 0
2, 522573, Note_off_c, 0, 72, 47
2, 522607, Note_off_c, 0, 75, 48
2, 522616, Note_off_c, 0, 78, 50
2, 522646, Note_off_c, 0, 69, 55
2, 522758, Control_c, 0, 64, 127
2, 522871, Note_on_c, 0, 72, 37
2, 522873, Note_on_c, 0, 78, 53
2, 522875, Note_on_c, 0, 75, 43
2, 523113, Note_off_c, 0, 75, 50
2, 523114, Note_off_c, 0, 72, 49
2, 523124, Note_off_c, 0, 78, 53
2, 523300, Note_on_c, 0, 72, 41
2, 523302, Note_on_c, 0, 78, 58
2, 523304, Note_on_c, 0, 75, 47
2, 523747, Control_c, 0, 64, 0
2, 523754, Note_on_c, 0, 69, 55
2, 523910, Note_off_c, 0, 72, 50
2, 523923, Note_off_c, 0, 75, 51
2, 523939, Note_off_c, 0, 78, 54
2, 524005, Note_off_c, 0, 69, 53
2, 524099, Control_c, 0, 64, 127
2, 524262, Note_on_c, 0, 72, 46
2, 524264, Note_on_c, 0, 75, 58
2, 524266, Note_on_c, 0, 78, 71
2, 524564, Note_off_c, 0, 72, 51
2, 524566, Note_off_c, 0, 75, 54
2, 524600, Note_off_c, 0, 78, 58
2, 524777, Note_on_c, 0, 78, 86
2, 524779, Note_on_c, 0, 75, 74
2, 524785, Note_on_c, 0, 72, 60
2, 524790, Control_c, 0, 64, 0
2, 524968, Control_c, 0, 64, 127
2, 525429, Note_on_c, 0, 70, 60
2, 526437, Note_off_c, 0, 72, 55
2, 526467, Note_on_c, 0, 77, 51
2, 526477, Note_on_c, 0, 73, 39
2, 526480, Control_c, 0, 64, 0
2, 526496, Note_off_c, 0, 78, 61
2, 526501, Note_off_c, 0, 75, 59
2, 526658, Control_c, 0, 64, 127
2, 526868, Note_off_c, 0, 73, 49
2, 526884, Note_off_c, 0, 77, 52
2, 526988, Note_off_c, 0, 70, 55
2, 527508, Control_c, 0, 64, 0
2, 527710, Control_c, 0, 67, 127
2, 528025, Note_on_c, 0, 70, 37
2, 528034, Note_on_c, 0, 43, 20
2, 528036, Note_on_c, 0, 61, 28
2, 528038, Note_on_c, 0, 52, 23
2, 528052, Control_c, 0, 64, 127
2, 528400, Note_off_c, 0, 52, 45
2, 528401, Note_off_c, 0, 61, 47
2, 528403, Note_off_c, 0, 43, 45
2, 528419, Note_off_c, 0, 70, 49
2, 528795, Note_on_c, 0, 70, 41
2, 528804, Note_on_c, 0, 61, 32
2, 528806, Note_on_c, 0, 43, 20
2, 528808, Note_on_c, 0, 52, 23
2, 528984, Note_off_c, 0, 70, 50
2, 528998, Note_off_c, 0, 52, 45
2, 529003, Note_off_c, 0, 43, 45
2, 529018, Note_off_c, 0, 61, 48
2, 529208, Note_on_c, 0, 70, 43
2, 529215, Note_on_c, 0, 61, 34
2, 529217, Note_on_c, 0, 52, 26
2, 529219, Note_on_c, 0, 43, 23
2, 529721, Note_off_c, 0, 70, 50
2, 529728, Note_off_c, 0, 43, 45
2, 529735, Note_off_c, 0, 52, 46
2, 529738, Note_off_c, 0, 61, 48
2, 530096, Note_on_c, 0, 70, 47
2, 530105, Note_on_c, 0, 61, 38
2, 530107, Note_on_c, 0, 52, 32
2, 530109, Note_on_c, 0, 43, 29
2, 530380, Note_off_c, 0, 70, 51
2, 530388, Note_off_c, 0, 43, 47
2, 530391, Note_off_c, 0, 61, 49
2, 530395, Note_off_c, 0, 52, 48
2, 530712, Note_on_c, 0, 70, 61
2, 530722, Note_on_c, 0, 61, 46
2, 530726, Note_on_c, 0, 44, 35
2, 530728, Note_on_c, 0, 52, 41
2, 530734, Control_c, 0, 64, 0
2, 530911, Control_c, 0, 64, 127
2, 532447, Note_on_c, 0, 69, 54
2, 532454, Note_on_c, 0, 53, 36
2, 532464, Control_c, 0, 64, 0
2, 532473, Note_off_c, 0, 70, 55
2, 532485, Note_off_c, 0, 52, 50
2, 532642, Control_c, 0, 64, 127
2, 533728, Note_off_c, 0, 69, 53
2, 533735, Note_off_c, 0, 44, 48
2, 533738, Note_off_c, 0, 53, 49
2, 533767, Note_off_c, 0, 61, 51
2, 534159, Note_on_c, 0, 68, 36
2, 534164, Note_on_c, 0, 44, 20
2, 534166, Note_on_c, 0, 54, 28
2, 534168, Note_on_c, 0, 60, 25
2, 534170, Control_c, 0, 64, 0
2, 534345, Control_c, 0, 64, 127
2, 534557, Note_off_c, 0, 54, 47
2, 534569, Note_off_c, 0, 60, 46
2, 534571, Note_off_c, 0, 44, 45
2, 534597, Note_off_c, 0, 68, 49
2, 534927, Note_on_c, 0, 68, 37
2, 534934, Note_on_c, 0, 44, 20
2, 534936, Note_on_c, 0, 54, 30
2, 534938, Note_on_c, 0, 60, 25
2, 535077, Note_off_c, 0, 44, 45
2, 535095, Note_off_c, 0, 60, 46
2, 535104, Note_off_c, 0, 54, 47
2, 535113, Note_off_c, 0, 68, 49
2, 535359, Note_on_c, 0, 68, 40
2, 535366, Note_on_c, 0, 54, 36
2, 535368, Note_on_c, 0, 60, 32
2, 535369, Note_on_c, 0, 44, 21
2, 535930, Note_off_c, 0, 54, 49
2, 535933, Note_off_c, 0, 60, 48
2, 535956, Note_off_c, 0, 68, 50
2, 536046, Note_off_c, 0, 44, 45
2, 536362, Note_on_c, 0, 68, 45
2, 536366, Note_on_c, 0, 54, 40
2, 536368, Note_on_c, 0, 60, 37
2, 536371, Note_on_c, 0, 44, 26
2, 536783, Note_off_c, 0, 54, 50
2, 536826, Note_off_c, 0, 60, 49
2, 536834, Note_off_c, 0, 44, 46
2, 536899, Note_off_c, 0, 68, 51
2, 537047, Note_on_c, 0, 61, 38
2, 537052, Note_on_c, 0, 49, 20
2, 537054, Note_on_c, 0, 53, 25
2, 537079, Control_c, 0, 64, 0
2, 537256, Control_c, 0, 64, 127
2, 537675, Note_off_c, 0, 49, 45
2, 537696, Note_off_c, 0, 53, 46
2, 537733, Note_off_c, 0, 61, 49
2, 538264, Control_c, 0, 64, 0
2, 540565, Note_on_c, 0, 61, 29
2, 540571, Note_on_c, 0, 49, 11
2, 540594, Control_c, 0, 64, 127
2, 540908, Note_off_c, 0, 61, 47
2, 540925, Note_off_c, 0, 49, 43
2, 541339, Note_on_c, 0, 61, 37
2, 541345, Note_on_c, 0, 49, 19
2, 541523, Note_off_c, 0, 61, 49
2, 541547, Note_off_c, 0, 49, 45
2, 541749, Note_on_c, 0, 61, 41
2, 541754, Note_on_c, 0, 49, 23
2, 542107, Note_off_c, 0, 61, 50
2, 542205, Note_off_c, 0, 49, 45
2, 542649, Note_on_c, 0, 61, 35
2, 542654, Note_on_c, 0, 49, 17
2, 542917, Note_off_c, 0, 61, 48
2, 542965, Note_off_c, 0, 49, 44
2, 543342, Note_on_c, 0, 60, 29
2, 543347, Note_on_c, 0, 48, 11
2, 543350, Control_c, 0, 64, 0
2, 543529, Control_c, 0, 64, 127
2, 546100, Note_off_c, 0, 48, 43
2, 546219, Note_off_c, 0, 60, 47
2, 546844, Note_on_c, 0, 64, 48
2, 546846, Note_on_c, 0, 58, 26
2, 546848, Note_on_c, 0, 55, 34
2, 546850, Note_on_c, 0, 36, 19
2, 546852, Note_on_c, 0, 48, 28
2, 546855, Control_c, 0, 64, 0
2, 547059, Control_c, 0, 64, 127
2, 547144, Note_off_c, 0, 55, 48
2, 547188, Note_off_c, 0, 48, 47
2, 547192, Note_off_c, 0, 36, 45
2, 547220, Note_off_c, 0, 64, 52
2, 547222, Note_off_c, 0, 58, 46
2, 547630, Note_on_c, 0, 64, 42
2, 547635, Note_on_c, 0, 48, 34
2, 547637, Note_on_c, 0, 55, 28
2, 547640, Note_on_c, 0, 36, 18
2, 547642, Note_on_c, 0, 58, 20
2, 547774, Note_off_c, 0, 48, 48
2, 547783, Note_off_c, 0, 36, 44
2, 547787, Note_off_c, 0, 64, 50
2, 547801, Note_off_c, 0, 58, 45
2, 547813, Note_off_c, 0, 55, 47
2, 548039, Note_on_c, 0, 64, 44
2, 548044, Note_on_c, 0, 55, 30
2, 548048, Note_on_c, 0, 36, 20
2, 548049, Note_on_c, 0, 48, 36
2, 548051, Note_on_c, 0, 58, 22
2, 548567, Note_off_c, 0, 36, 45
2, 548588, Note_off_c, 0, 64, 51
2, 548615, Note_off_c, 0, 48, 49
2, 548623, Note_off_c, 0, 58, 45
2, 548668, Note_off_c, 0, 55, 47
2, 549188, Note_on_c, 0, 64, 40
2, 549190, Note_on_c, 0, 48, 30
2, 549193, Note_on_c, 0, 58, 18
2, 549196, Note_on_c, 0, 36, 19
2, 549197, Note_on_c, 0, 55, 26
2, 549508, Note_off_c, 0, 55, 46
2, 549514, Note_off_c, 0, 48, 47
2, 549520, Note_off_c, 0, 36, 45
2, 549526, Note_off_c, 0, 58, 44
2, 549567, Note_off_c, 0, 64, 50
2, 549658, Note_on_c, 0, 65, 56
2, 549661, Note_on_c, 0, 41, 42
2, 549663, Note_on_c, 0, 53, 36
2, 549676, Control_c, 0, 67, 0
2, 549725, Control_c, 0, 64, 0
2, 549982, Control_c, 0, 64, 127
2, 550016, Note_on_c, 0, 56, 36
2, 550018, Note_on_c, 0, 44, 30
2, 550094, Note_off_c, 0, 65, 54
2, 550100, Note_off_c, 0, 53, 49
2, 550104, Note_off_c, 0, 41, 50
2, 550375, Note_on_c, 0, 52, 38
2, 550376, Note_on_c, 0, 40, 32
2, 550453, Note_off_c, 0, 56, 49
2, 550467, Note_off_c, 0, 44, 47
2, 550736, Note_on_c, 0, 53, 40
2, 550738, Note_on_c, 0, 41, 34
2, 550740, Control_c, 0, 64, 0
2, 550813, Note_off_c, 0, 52, 49
2, 550817, Note_off_c, 0, 40, 48
2, 550892, Control_c, 0, 64, 127
2, 551095, Note_on_c, 0, 56, 42
2, 551097, Note_on_c, 0, 44, 36
2, 551174, Note_off_c, 0, 53, 50
2, 551177, Note_off_c, 0, 41, 48
2, 551456, Note_on_c, 0, 60, 45
2, 551458, Note_on_c, 0, 48, 39
2, 551463, Control_c, 0, 64, 0
2, 551530, Note_off_c, 0, 56, 50
2, 551544, Note_off_c, 0, 44, 49
2, 551618, Control_c, 0, 64, 127
2, 551814, Note_on_c, 0, 61, 45
2, 551816, Note_on_c, 0, 49, 33
2, 551890, Note_off_c, 0, 60, 51
2, 551899, Note_off_c, 0, 48, 49
2, 552174, Note_on_c, 0, 46, 33
2, 552176, Note_on_c, 0, 58, 45
2, 552184, Control_c, 0, 64, 0
2, 552255, Note_off_c, 0, 61, 51
2, 552257, Note_off_c, 0, 49, 48
2, 552332, Control_c, 0, 64, 127
2, 552536, Note_on_c, 0, 52, 36
2, 552538, Note_on_c, 0, 64, 47
2, 552613, Note_off_c, 0, 58, 51
2, 552614, Note_off_c, 0, 46, 48
2, 552895, Note_on_c, 0, 53, 39
2, 552897, Note_on_c, 0, 65, 50
2, 552903, Control_c, 0, 64, 0
2, 552973, Note_off_c, 0, 64, 51
2, 552985, Note_off_c, 0, 52, 49
2, 553068, Control_c, 0, 64, 127
2, 553254, Note_on_c, 0, 60, 53
2, 553256, Note_on_c, 0, 48, 42
2, 553333, Note_off_c, 0, 65, 52
2, 553334, Note_off_c, 0, 53, 49
2, 553614, Note_on_c, 0, 55, 45
2, 553615, Note_on_c, 0, 67, 55
2, 553625, Control_c, 0, 64, 0
2, 553693, Note_off_c, 0, 48, 50
2, 553694, Note_off_c, 0, 60, 53
2, 553786, Control_c, 0, 64, 127
2, 553976, Note_on_c, 0, 56, 48
2, 553978, Note_on_c, 0, 68, 64
2, 554052, Note_off_c, 0, 67, 53
2, 554054, Note_off_c, 0, 55, 51
2, 554331, Note_on_c, 0, 65, 55
2, 554334, Note_on_c, 0, 53, 51
2, 554358, Note_off_c, 0, 56, 52
2, 554378, Control_c, 0, 64, 0
2, 554477, Control_c, 0, 64, 127
2, 554693, Note_on_c, 0, 58, 49
2, 554702, Note_on_c, 0, 63, 52
2, 554707, Note_on_c, 0, 55, 49
2, 554709, Note_on_c, 0, 70, 76
2, 554711, Control_c, 0, 64, 127
2, 554717, Note_off_c, 0, 68, 56
2, 554724, Note_off_c, 0, 65, 53
2, 554726, Note_off_c, 0, 53, 52
2, 555033, Note_off_c, 0, 58, 52
2, 555053, Note_off_c, 0, 55, 52
2, 555055, Note_on_c, 0, 72, 70
2, 555057, Note_on_c, 0, 60, 49
2, 555059, Note_on_c, 0, 68, 52
2, 555065, Note_on_c, 0, 56, 49
2, 555072, Control_c, 0, 64, 0
2, 555090, Note_off_c, 0, 70, 59
2, 555175, Control_c, 0, 64, 127
2, 555308, Note_off_c, 0, 63, 53
2, 555409, Note_on_c, 0, 65, 58
2, 555422, Note_on_c, 0, 53, 52
2, 555429, Control_c, 0, 64, 0
2, 555528, Control_c, 0, 64, 127
2, 555662, Note_off_c, 0, 56, 52
2, 555689, Note_off_c, 0, 60, 52
2, 555705, Note_off_c, 0, 68, 53
2, 555749, Note_off_c, 0, 53, 53
2, 555775, Note_on_c, 0, 49, 48
2, 555777, Note_on_c, 0, 70, 55
2, 555779, Note_on_c, 0, 75, 75
2, 555794, Control_c, 0, 64, 0
2, 555797, Note_off_c, 0, 72, 57
2, 555895, Control_c, 0, 64, 127
2, 555945, Note_on_c, 0, 73, 75
2, 555957, Note_off_c, 0, 65, 54
2, 555971, Note_off_c, 0, 75, 59
2, 556127, Note_off_c, 0, 70, 53
2, 556134, Note_on_c, 0, 51, 45
2, 556135, Note_on_c, 0, 63, 60
2, 556138, Note_on_c, 0, 68, 52
2, 556138, Note_on_c, 0, 72, 72
2, 556140, Control_c, 0, 64, 0
2, 556152, Note_off_c, 0, 49, 52
2, 556156, Note_off_c, 0, 73, 59
2, 556241, Control_c, 0, 64, 127
2, 556401, Note_off_c, 0, 51, 51
2, 556493, Note_on_c, 0, 39, 43
2, 556699, Note_off_c, 0, 39, 50
2, 556726, Note_off_c, 0, 63, 55
2, 556775, Note_off_c, 0, 68, 53
2, 556841, Note_on_c, 0, 70, 63
2, 556853, Note_on_c, 0, 67, 46
2, 556855, Note_on_c, 0, 39, 38
2, 556857, Note_on_c, 0, 61, 46
2, 556862, Note_off_c, 0, 72, 58
2, 556869, Control_c, 0, 64, 0
2, 556970, Control_c, 0, 64, 127
2, 557073, Note_off_c, 0, 61, 51
2, 557093, Note_off_c, 0, 67, 51
2, 557130, Note_off_c, 0, 70, 55
2, 557211, Note_off_c, 0, 39, 49
2, 557212, Note_on_c, 0, 68, 53
2, 557215, Note_on_c, 0, 60, 45
2, 557216, Note_on_c, 0, 44, 33
2, 557334, Control_c, 0, 64, 0
2, 557540, Note_off_c, 0, 60, 51
2, 557570, Note_off_c, 0, 68, 53
2, 557573, Note_off_c, 0, 44, 48
2, 557575, Note_on_c, 0, 32, 33
2, 557910, Note_off_c, 0, 32, 48
2, 557933, Note_on_c, 0, 36, 35
2, 558098, Note_on_c, 0, 48, 37
2, 558293, Note_on_c, 0, 41, 38
2, 558338, Note_off_c, 0, 36, 48
2, 558461, Note_on_c, 0, 53, 41
2, 558516, Note_off_c, 0, 48, 49
2, 558648, Note_on_c, 0, 44, 43
2, 558705, Note_off_c, 0, 41, 49
2, 558821, Note_on_c, 0, 56, 45
2, 558872, Note_off_c, 0, 53, 50
2, 559008, Note_on_c, 0, 40, 47
2, 559063, Note_off_c, 0, 44, 50
2, 559183, Note_on_c, 0, 52, 49
2, 559238, Note_off_c, 0, 56, 51
2, 559368, Note_on_c, 0, 41, 51
2, 559422, Note_off_c, 0, 40, 51
2, 559542, Note_on_c, 0, 53, 54
2, 559586, Note_off_c, 0, 52, 52
2, 559730, Note_on_c, 0, 44, 56
2, 559779, Note_off_c, 0, 41, 52
2, 559903, Note_on_c, 0, 56, 57
2, 559946, Note_off_c, 0, 53, 53
2, 560088, Note_on_c, 0, 48, 60
2, 560142, Note_off_c, 0, 44, 54
2, 560262, Note_on_c, 0, 60, 64
2, 560312, Note_off_c, 0, 56, 54
2, 560448, Note_on_c, 0, 49, 66
2, 560502, Note_off_c, 0, 48, 55
2, 560618, Note_on_c, 0, 61, 67
2, 560671, Note_off_c, 0, 60, 56
2, 560805, Note_on_c, 0, 46, 70
2, 560863, Note_off_c, 0, 49, 56
2, 560978, Note_on_c, 0, 58, 73
2, 561031, Note_off_c, 0, 61, 57
2, 561168, Note_on_c, 0, 52, 77
2, 561230, Note_off_c, 0, 46, 57
2, 561338, Note_on_c, 0, 64, 66
2, 561386, Note_off_c, 0, 58, 58
2, 561527, Note_on_c, 0, 53, 79
2, 561583, Note_off_c, 0, 52, 59
2, 561702, Note_on_c, 0, 65, 67
2, 561756, Note_off_c, 0, 64, 56
2, 561888, Note_on_c, 0, 48, 80
2, 561936, Note_off_c, 0, 53, 60
2, 562058, Note_on_c, 0, 60, 84
2, 562116, Note_off_c, 0, 65, 57
2, 562245, Note_on_c, 0, 55, 74
2, 562272, Note_off_c, 0, 48, 60
2, 562418, Note_on_c, 0, 67, 88
2, 562445, Note_off_c, 0, 60, 61
2, 562608, Note_on_c, 0, 56, 74
2, 562639, Note_off_c, 0, 55, 59
2, 562778, Note_on_c, 0, 68, 85
2, 562802, Note_off_c, 0, 67, 62
2, 562969, Note_on_c, 0, 53, 73
2, 562993, Note_off_c, 0, 56, 59
2, 563138, Note_on_c, 0, 65, 67
2, 563161, Note_off_c, 0, 68, 61
2, 563329, Note_on_c, 0, 58, 79
2, 563331, Note_on_c, 0, 55, 69
2, 563347, Note_off_c, 0, 53, 58
2, 563498, Note_on_c, 0, 70, 71
2, 563528, Note_off_c, 0, 65, 57
2, 563625, Control_c, 0, 64, 127
2, 563641, Note_off_c, 0, 58, 60
2, 563666, Note_off_c, 0, 55, 57
2, 563685, Note_on_c, 0, 72, 69
2, 563690, Note_on_c, 0, 56, 46
2, 563692, Note_on_c, 0, 60, 46
2, 563857, Note_on_c, 0, 68, 56
2, 563886, Note_off_c, 0, 70, 58
2, 564002, Note_off_c, 0, 60, 51
2, 564019, Note_off_c, 0, 56, 51
2, 564045, Note_on_c, 0, 53, 45
2, 564062, Control_c, 0, 64, 0
2, 564149, Note_off_c, 0, 72, 57
2, 564187, Control_c, 0, 64, 127
2, 564218, Note_on_c, 0, 72, 65
2, 564405, Note_off_c, 0, 68, 54
2, 564409, Note_on_c, 0, 75, 63
2, 564411, Note_on_c, 0, 49, 43
2, 564413, Note_on_c, 0, 70, 51
2, 564425, Control_c, 0, 64, 0
2, 564433, Note_off_c, 0, 53, 51
2, 564439, Note_off_c, 0, 72, 56
2, 564548, Control_c, 0, 64, 127
2, 564576, Note_on_c, 0, 65, 50
2, 564579, Note_on_c, 0, 73, 62
2, 564607, Note_off_c, 0, 75, 55
2, 564680, Note_off_c, 0, 49, 50
2, 564715, Note_off_c, 0, 73, 55
2, 564717, Note_off_c, 0, 65, 52
2, 564763, Note_on_c, 0, 72, 60
2, 564769, Note_on_c, 0, 51, 41
2, 564786, Control_c, 0, 64, 0
2, 564908, Control_c, 0, 64, 127
2, 564938, Note_on_c, 0, 63, 39
2, 565123, Note_off_c, 0, 70, 52
2, 565125, Note_off_c, 0, 51, 50
2, 565129, Note_on_c, 0, 39, 39
2, 565131, Note_on_c, 0, 68, 45
2, 565146, Control_c, 0, 64, 0
2, 565267, Control_c, 0, 64, 127
2, 565297, Note_on_c, 0, 73, 56
2, 565309, Note_off_c, 0, 39, 49
2, 565317, Note_off_c, 0, 72, 55
2, 565470, Note_off_c, 0, 68, 51
2, 565472, Note_off_c, 0, 63, 49
2, 565485, Note_on_c, 0, 70, 54
2, 565489, Note_on_c, 0, 39, 37
2, 565491, Note_on_c, 0, 67, 48
2, 565492, Note_off_c, 0, 73, 54
2, 565493, Note_on_c, 0, 61, 40
2, 565501, Control_c, 0, 64, 0
2, 565626, Control_c, 0, 64, 127
2, 565658, Note_on_c, 0, 72, 53
2, 565676, Note_off_c, 0, 70, 53
2, 565784, Note_off_c, 0, 61, 50
2, 565849, Note_off_c, 0, 67, 52
2, 565851, Note_off_c, 0, 39, 49
2, 565853, Note_on_c, 0, 68, 50
2, 565855, Note_on_c, 0, 60, 40
2, 565855, Note_on_c, 0, 44, 35
2, 565866, Control_c, 0, 64, 0
2, 565869, Note_off_c, 0, 72, 53
2, 565989, Control_c, 0, 64, 127
2, 566016, Note_off_c, 0, 44, 48
2, 566084, Note_off_c, 0, 60, 50
2, 566120, Note_off_c, 0, 68, 52
2, 566204, Note_on_c, 0, 32, 33
2, 566221, Control_c, 0, 64, 0
2, 566378, Note_off_c, 0, 32, 48
2, 566564, Note_on_c, 0, 72, 40
2, 566738, Note_off_c, 0, 72, 50
2, 566924, Note_on_c, 0, 72, 48
2, 566928, Note_on_c, 0, 56, 27
2, 566941, Control_c, 0, 64, 127
2, 567090, Note_off_c, 0, 56, 46
2, 567097, Note_on_c, 0, 60, 27
2, 567276, Note_off_c, 0, 60, 46
2, 567289, Note_on_c, 0, 56, 28
2, 567291, Note_on_c, 0, 71, 50
2, 567346, Note_off_c, 0, 72, 52
2, 567446, Note_off_c, 0, 56, 47
2, 567456, Note_on_c, 0, 72, 51
2, 567459, Control_c, 0, 64, 0
2, 567464, Note_on_c, 0, 60, 29
2, 567522, Note_off_c, 0, 71, 52
2, 567595, Note_off_c, 0, 72, 52
2, 567632, Note_off_c, 0, 60, 47
2, 567643, Note_on_c, 0, 73, 52
2, 567648, Note_on_c, 0, 56, 29
2, 567650, Note_on_c, 0, 65, 40
2, 567729, Note_off_c, 0, 65, 50
2, 567730, Note_off_c, 0, 73, 53
2, 567805, Note_off_c, 0, 56, 47
2, 567818, Note_on_c, 0, 60, 30
2, 567997, Note_off_c, 0, 60, 47
2, 568003, Note_on_c, 0, 73, 52
2, 568008, Note_on_c, 0, 65, 54
2, 568010, Note_on_c, 0, 58, 31
2, 568105, Note_off_c, 0, 73, 53
2, 568169, Note_off_c, 0, 58, 47
2, 568177, Note_on_c, 0, 61, 31
2, 568213, Control_c, 0, 64, 127
2, 568356, Note_off_c, 0, 61, 47
2, 568365, Note_on_c, 0, 64, 56
2, 568367, Note_on_c, 0, 58, 32
2, 568415, Note_off_c, 0, 65, 53
2, 568529, Note_off_c, 0, 58, 48
2, 568532, Control_c, 0, 64, 0
2, 568538, Note_on_c, 0, 65, 57
2, 568540, Note_on_c, 0, 61, 33
2, 568602, Note_off_c, 0, 64, 54
2, 568676, Note_off_c, 0, 65, 54
2, 568711, Note_off_c, 0, 61, 48
2, 568723, Note_on_c, 0, 73, 58
2, 568728, Note_on_c, 0, 67, 58
2, 568730, Note_on_c, 0, 58, 34
2, 568800, Note_off_c, 0, 73, 54
2, 568802, Note_off_c, 0, 67, 54
2, 568885, Note_off_c, 0, 58, 48
2, 568901, Note_on_c, 0, 61, 34
2, 569072, Note_off_c, 0, 61, 48
2, 569084, Note_on_c, 0, 73, 60
2, 569088, Note_on_c, 0, 67, 58
2, 569090, Note_on_c, 0, 58, 35
2, 569184, Note_off_c, 0, 67, 54
2, 569245, Note_off_c, 0, 58, 48
2, 569256, Note_on_c, 0, 61, 36
2, 569299, Control_c, 0, 64, 127
2, 569436, Note_off_c, 0, 61, 49
2, 569443, Note_on_c, 0, 72, 62
2, 569448, Note_on_c, 0, 58, 36
2, 569503, Note_off_c, 0, 73, 55
2, 569609, Note_off_c, 0, 58, 49
2, 569612, Control_c, 0, 64, 0
2, 569618, Note_on_c, 0, 61, 37
2, 569620, Note_on_c, 0, 73, 63
2, 569666, Note_off_c, 0, 72, 55
2, 569753, Note_off_c, 0, 73, 55
2, 569792, Note_off_c, 0, 61, 49
2, 569804, Note_on_c, 0, 75, 75
2, 569808, Note_on_c, 0, 58, 38
2, 569810, Note_on_c, 0, 67, 51
2, 569876, Note_off_c, 0, 75, 59
2, 569885, Note_off_c, 0, 67, 52
2, 569968, Note_off_c, 0, 58, 49
2, 569978, Note_on_c, 0, 61, 39
2, 570156, Note_off_c, 0, 61, 49
2, 570164, Note_on_c, 0, 75, 59
2, 570166, Note_on_c, 0, 67, 65
2, 570168, Note_on_c, 0, 60, 39
2, 570272, Note_off_c, 0, 75, 54
2, 570326, Note_off_c, 0, 60, 49
2, 570337, Note_on_c, 0, 63, 40
2, 570379, Control_c, 0, 64, 127
2, 570513, Note_off_c, 0, 63, 50
2, 570523, Note_on_c, 0, 65, 67
2, 570528, Note_on_c, 0, 60, 41
2, 570536, Note_off_c, 0, 67, 56
2, 570689, Note_off_c, 0, 60, 50
2, 570692, Control_c, 0, 64, 0
2, 570696, Note_on_c, 0, 67, 68
2, 570698, Note_on_c, 0, 63, 41
2, 570728, Note_off_c, 0, 65, 57
2, 570834, Note_off_c, 0, 67, 57
2, 570863, Note_off_c, 0, 63, 50
2, 570883, Note_on_c, 0, 75, 69
2, 570888, Note_on_c, 0, 60, 42
2, 570889, Note_on_c, 0, 69, 69
2, 570955, Note_off_c, 0, 75, 57
2, 570957, Note_off_c, 0, 69, 57
2, 571039, Note_off_c, 0, 60, 50
2, 571059, Note_on_c, 0, 63, 43
2, 571233, Note_off_c, 0, 63, 50
2, 571240, Note_on_c, 0, 75, 71
2, 571242, Note_on_c, 0, 60, 43
2, 571245, Note_on_c, 0, 69, 71
2, 571328, Note_off_c, 0, 69, 58
2, 571404, Note_off_c, 0, 60, 50
2, 571416, Note_on_c, 0, 63, 44
2, 571448, Control_c, 0, 64, 127
2, 571588, Note_off_c, 0, 63, 51
2, 571605, Note_on_c, 0, 60, 45
2, 571607, Note_on_c, 0, 74, 73
2, 571627, Note_off_c, 0, 75, 58
2, 571764, Note_off_c, 0, 60, 51
2, 571776, Note_on_c, 0, 63, 46
2, 571779, Control_c, 0, 64, 0
2, 571781, Note_on_c, 0, 75, 74
2, 571807, Note_off_c, 0, 74, 58
2, 571910, Note_off_c, 0, 75, 59
2, 571951, Note_off_c, 0, 63, 51
2, 571963, Note_on_c, 0, 69, 63
2, 571965, Note_on_c, 0, 77, 79
2, 571968, Note_on_c, 0, 60, 46
2, 572045, Note_off_c, 0, 77, 60
2, 572047, Note_off_c, 0, 69, 55
2, 572126, Note_off_c, 0, 60, 51
2, 572132, Note_on_c, 0, 63, 47
2, 572311, Note_off_c, 0, 63, 51
2, 572321, Note_on_c, 0, 69, 77
2, 572323, Note_on_c, 0, 77, 71
2, 572325, Note_on_c, 0, 61, 48
2, 572414, Note_off_c, 0, 77, 58
2, 572488, Note_off_c, 0, 61, 52
2, 572496, Note_on_c, 0, 65, 48
2, 572516, Control_c, 0, 64, 127
2, 572671, Note_off_c, 0, 65, 52
2, 572681, Note_on_c, 0, 67, 74
2, 572683, Note_on_c, 0, 61, 49
2, 572700, Note_off_c, 0, 69, 59
2, 572842, Note_off_c, 0, 61, 52
2, 572856, Control_c, 0, 64, 0
2, 572858, Note_on_c, 0, 69, 76
2, 572859, Note_on_c, 0, 65, 50
2, 572902, Note_off_c, 0, 67, 59
2, 572990, Note_off_c, 0, 69, 59
2, 573032, Note_off_c, 0, 65, 52
2, 573045, Note_on_c, 0, 70, 69
2, 573047, Note_on_c, 0, 77, 74
2, 573049, Note_on_c, 0, 61, 51
2, 573117, Note_off_c, 0, 77, 59
2, 573119, Note_off_c, 0, 70, 57
2, 573206, Note_off_c, 0, 61, 52
2, 573213, Note_on_c, 0, 65, 51
2, 573393, Note_on_c, 0, 77, 63
2, 573405, Note_off_c, 0, 65, 52
2, 573423, Note_on_c, 0, 71, 58
2, 573434, Note_on_c, 0, 62, 51
2, 573438, Control_c, 0, 64, 127
2, 573489, Note_off_c, 0, 77, 55
2, 573513, Note_on_c, 0, 79, 63
2, 573618, Note_on_c, 0, 77, 63
2, 573635, Note_off_c, 0, 79, 55
2, 573675, Note_off_c, 0, 62, 52
2, 573685, Note_off_c, 0, 77, 55
2, 573687, Note_on_c, 0, 79, 62
2, 573689, Note_on_c, 0, 65, 47
2, 573755, Note_off_c, 0, 79, 55
2, 573758, Note_on_c, 0, 77, 61
2, 573820, Note_off_c, 0, 77, 55
2, 573823, Note_on_c, 0, 79, 61
2, 573880, Note_off_c, 0, 65, 51
2, 573890, Note_off_c, 0, 79, 55
2, 573892, Note_on_c, 0, 62, 42
2, 573894, Note_on_c, 0, 77, 60
2, 573959, Note_off_c, 0, 77, 55
2, 573961, Note_on_c, 0, 79, 59
2, 574027, Note_off_c, 0, 79, 54
2, 574031, Note_on_c, 0, 77, 59
2, 574104, Note_off_c, 0, 62, 50
2, 574111, Note_off_c, 0, 77, 54
2, 574113, Note_off_c, 0, 71, 54
2, 574116, Note_on_c, 0, 76, 58
2, 574117, Note_on_c, 0, 65, 37
2, 574232, Note_off_c, 0, 76, 54
2, 574233, Note_on_c, 0, 77, 57
2, 574343, Note_off_c, 0, 65, 49
2, 574351, Note_off_c, 0, 77, 54
2, 574356, Note_on_c, 0, 79, 80
2, 574357, Note_on_c, 0, 62, 32
2, 574359, Note_on_c, 0, 71, 51
2, 574372, Control_c, 0, 64, 0
2, 574471, Control_c, 0, 64, 127
2, 574646, Note_off_c, 0, 79, 60
2, 574647, Note_off_c, 0, 62, 48
2, 574649, Note_off_c, 0, 71, 52
2, 574652, Note_on_c, 0, 65, 41
2, 574754, Control_c, 0, 64, 0
2, 574943, Note_on_c, 0, 72, 75
2, 574952, Note_off_c, 0, 65, 50
2, 574968, Note_on_c, 0, 60, 59
2, 574970, Note_on_c, 0, 67, 63
2, 574975, Note_on_c, 0, 64, 64
2, 575102, Control_c, 0, 64, 127
2, 576675, Note_off_c, 0, 72, 59
2, 576714, Note_off_c, 0, 67, 55
2, 576717, Note_off_c, 0, 60, 54
2, 576879, Note_off_c, 0, 64, 56
2, 576938, Control_c, 0, 67, 127
2, 577196, Note_on_c, 0, 72, 33
2, 577396, Control_c, 0, 64, 0
2, 577592, Note_on_c, 0, 77, 33
2, 577612, Note_off_c, 0, 72, 48
2, 577986, Note_on_c, 0, 80, 35
2, 578008, Note_off_c, 0, 77, 48
2, 578348, Note_on_c, 0, 76, 38
2, 578350, Note_on_c, 0, 72, 33
2, 578377, Note_off_c, 0, 80, 48
2, 578706, Note_on_c, 0, 68, 33
2, 578726, Note_off_c, 0, 72, 48
2, 578894, Note_on_c, 0, 77, 42
2, 578920, Note_off_c, 0, 76, 49
2, 579066, Note_on_c, 0, 65, 35
2, 579085, Note_off_c, 0, 68, 48
2, 579258, Note_on_c, 0, 80, 45
2, 579282, Note_off_c, 0, 77, 50
2, 579426, Note_on_c, 0, 68, 37
2, 579448, Note_off_c, 0, 65, 48
2, 579616, Note_on_c, 0, 84, 47
2, 579640, Note_off_c, 0, 80, 51
2, 579787, Note_on_c, 0, 70, 39
2, 579816, Note_off_c, 0, 68, 49
2, 579975, Note_on_c, 0, 85, 50
2, 580001, Note_off_c, 0, 84, 51
2, 580146, Note_on_c, 0, 65, 41
2, 580177, Note_off_c, 0, 70, 49
2, 580333, Note_on_c, 0, 82, 53
2, 580363, Note_off_c, 0, 85, 52
2, 580506, Note_on_c, 0, 70, 43
2, 580532, Note_off_c, 0, 65, 50
2, 580697, Note_on_c, 0, 88, 55
2, 580715, Note_off_c, 0, 82, 53
2, 580864, Note_on_c, 0, 68, 45
2, 580894, Note_off_c, 0, 70, 50
2, 581053, Note_on_c, 0, 89, 57
2, 581070, Note_off_c, 0, 88, 53
2, 581223, Note_on_c, 0, 65, 45
2, 581248, Note_off_c, 0, 68, 51
2, 581411, Note_on_c, 0, 84, 57
2, 581431, Note_off_c, 0, 89, 54
2, 581586, Note_on_c, 0, 72, 44
2, 581616, Note_off_c, 0, 65, 51
2, 581771, Note_on_c, 0, 80, 56
2, 581797, Note_off_c, 0, 84, 54
2, 581947, Note_on_c, 0, 73, 42
2, 581979, Note_off_c, 0, 72, 51
2, 582145, Note_on_c, 0, 82, 54
2, 582169, Note_off_c, 0, 80, 54
2, 582332, Note_on_c, 0, 70, 40
2, 582353, Note_off_c, 0, 73, 50
2, 582541, Note_on_c, 0, 85, 52
2, 582573, Note_off_c, 0, 82, 53
2, 582736, Note_on_c, 0, 76, 38
2, 582767, Note_off_c, 0, 70, 50
2, 582958, Note_on_c, 0, 79, 50
2, 582990, Note_off_c, 0, 85, 53
2, 583174, Note_on_c, 0, 77, 36
2, 583206, Note_off_c, 0, 76, 49
2, 583371, Note_off_c, 0, 79, 52
2, 583410, Note_on_c, 0, 80, 48
2, 583660, Note_on_c, 0, 72, 34
2, 583685, Note_off_c, 0, 77, 49
2, 583752, Note_off_c, 0, 80, 52
2, 583848, Note_on_c, 0, 80, 46
2, 583935, Note_off_c, 0, 72, 48
2, 583978, Control_c, 0, 67, 0
2, 584039, Note_on_c, 0, 60, 33
2, 584122, Note_off_c, 0, 80, 51
2, 584228, Note_on_c, 0, 80, 45
2, 584360, Note_off_c, 0, 80, 51
2, 584441, Note_on_c, 0, 61, 45
2, 584443, Note_on_c, 0, 80, 65
2, 584447, Note_off_c, 0, 60, 48
2, 584478, Control_c, 0, 64, 127
2, 584668, Note_on_c, 0, 73, 57
2, 584671, Note_on_c, 0, 70, 52
2, 584900, Note_off_c, 0, 70, 53
2, 584904, Note_on_c, 0, 58, 44
2, 584927, Note_off_c, 0, 61, 51
2, 584935, Note_off_c, 0, 73, 54
2, 585077, Note_on_c, 0, 73, 51
2, 585079, Note_on_c, 0, 70, 46
2, 585134, Control_c, 0, 64, 0
2, 585265, Note_on_c, 0, 79, 48
2, 585266, Note_on_c, 0, 64, 41
2, 585279, Note_off_c, 0, 73, 52
2, 585289, Note_off_c, 0, 58, 51
2, 585293, Note_off_c, 0, 80, 56
2, 585296, Note_off_c, 0, 70, 51
2, 585338, Control_c, 0, 64, 127
2, 585438, Note_on_c, 0, 73, 45
2, 585439, Note_on_c, 0, 70, 40
2, 585535, Note_off_c, 0, 64, 50
2, 585558, Note_off_c, 0, 73, 51
2, 585572, Note_off_c, 0, 70, 50
2, 585629, Note_off_c, 0, 79, 52
2, 585632, Note_on_c, 0, 80, 64
2, 585634, Note_on_c, 0, 61, 38
2, 585637, Control_c, 0, 64, 0
2, 585840, Control_c, 0, 64, 127
2, 585848, Note_on_c, 0, 73, 57
2, 585852, Note_on_c, 0, 70, 52
2, 586059, Note_on_c, 0, 58, 35
2, 586069, Note_off_c, 0, 70, 53
2, 586071, Note_off_c, 0, 73, 54
2, 586085, Note_off_c, 0, 61, 49
2, 586246, Note_on_c, 0, 73, 51
2, 586248, Note_on_c, 0, 70, 46
2, 586416, Note_on_c, 0, 79, 48
2, 586418, Note_on_c, 0, 64, 33
2, 586421, Control_c, 0, 64, 0
2, 586438, Note_off_c, 0, 58, 48
2, 586440, Note_off_c, 0, 73, 52
2, 586443, Note_off_c, 0, 80, 56
2, 586444, Note_off_c, 0, 70, 51
2, 586605, Note_on_c, 0, 73, 45
2, 586607, Note_on_c, 0, 70, 40
2, 586609, Control_c, 0, 64, 127
2, 586692, Note_off_c, 0, 64, 48
2, 586718, Note_off_c, 0, 73, 51
2, 586720, Note_off_c, 0, 70, 50
2, 586777, Note_off_c, 0, 79, 52
2, 586780, Note_on_c, 0, 77, 52
2, 586783, Note_on_c, 0, 60, 33
2, 586978, Note_on_c, 0, 68, 47
2, 587027, Note_off_c, 0, 60, 48
2, 587206, Note_on_c, 0, 60, 37
2, 587208, Note_on_c, 0, 79, 56
2, 587210, Control_c, 0, 64, 0
2, 587279, Note_off_c, 0, 77, 53
2, 587417, Note_off_c, 0, 68, 51
2, 587420, Note_on_c, 0, 70, 51
2, 587427, Control_c, 0, 64, 127
2, 587499, Note_off_c, 0, 60, 49
2, 587660, Note_on_c, 0, 60, 41
2, 587661, Note_on_c, 0, 76, 53
2, 587716, Note_off_c, 0, 79, 54
2, 587887, Note_off_c, 0, 70, 52
2, 587889, Note_on_c, 0, 67, 55
2, 588012, Note_off_c, 0, 76, 53
2, 588036, Note_off_c, 0, 60, 50
2, 588111, Note_off_c, 0, 67, 53
2, 588113, Note_on_c, 0, 68, 57
2, 588117, Note_on_c, 0, 77, 57
2, 588119, Note_on_c, 0, 53, 45
2, 588130, Control_c, 0, 64, 0
2, 588310, Note_on_c, 0, 75, 57
2, 588324, Control_c, 0, 64, 127
2, 588333, Note_off_c, 0, 77, 54
2, 588493, Note_off_c, 0, 53, 51
2, 588495, Note_off_c, 0, 68, 54
2, 588497, Note_on_c, 0, 73, 54
2, 588514, Note_off_c, 0, 75, 54
2, 588704, Control_c, 0, 64, 0
2, 588706, Note_on_c, 0, 72, 51
2, 588734, Note_off_c, 0, 73, 53
2, 588866, Control_c, 0, 64, 127
2, 588924, Note_on_c, 0, 70, 48
2, 588927, Note_on_c, 0, 48, 33
2, 588950, Note_off_c, 0, 72, 52
2, 589169, Note_on_c, 0, 68, 45
2, 589200, Note_off_c, 0, 70, 52
2, 589331, Note_off_c, 0, 68, 51
2, 589398, Note_on_c, 0, 49, 33
2, 589400, Note_on_c, 0, 68, 60
2, 589407, Control_c, 0, 64, 0
2, 589421, Note_off_c, 0, 48, 48
2, 589650, Control_c, 0, 64, 127
2, 589652, Note_on_c, 0, 61, 45
2, 589654, Note_on_c, 0, 58, 40
2, 589853, Note_off_c, 0, 61, 51
2, 589855, Note_off_c, 0, 58, 50
2, 589862, Note_on_c, 0, 46, 35
2, 589888, Note_off_c, 0, 49, 48
2, 590050, Note_on_c, 0, 61, 39
2, 590052, Note_on_c, 0, 58, 34
2, 590071, Control_c, 0, 64, 0
2, 590207, Note_off_c, 0, 61, 49
2, 590209, Note_off_c, 0, 58, 48
2, 590223, Note_on_c, 0, 67, 36
2, 590225, Note_on_c, 0, 52, 37
2, 590242, Note_off_c, 0, 46, 48
2, 590249, Note_off_c, 0, 68, 55
2, 590270, Control_c, 0, 64, 127
2, 590410, Note_on_c, 0, 58, 30
2, 590412, Note_on_c, 0, 61, 33
2, 590497, Note_off_c, 0, 52, 49
2, 590499, Note_off_c, 0, 67, 49
2, 590528, Note_off_c, 0, 61, 48
2, 590543, Note_off_c, 0, 58, 47
2, 590585, Note_on_c, 0, 68, 69
2, 590591, Note_on_c, 0, 49, 40
2, 590622, Control_c, 0, 64, 0
2, 590816, Note_on_c, 0, 61, 45
2, 590822, Note_on_c, 0, 58, 40
2, 590846, Control_c, 0, 64, 127
2, 591006, Note_off_c, 0, 61, 51
2, 591012, Note_off_c, 0, 58, 50
2, 591043, Note_on_c, 0, 46, 42
2, 591069, Note_off_c, 0, 49, 50
2, 591211, Note_on_c, 0, 61, 39
2, 591213, Note_on_c, 0, 58, 34
2, 591230, Control_c, 0, 64, 0
2, 591367, Note_off_c, 0, 58, 48
2, 591381, Note_off_c, 0, 61, 49
2, 591405, Note_on_c, 0, 52, 45
2, 591408, Note_on_c, 0, 67, 36
2, 591424, Note_off_c, 0, 68, 57
2, 591427, Note_off_c, 0, 46, 50
2, 591430, Control_c, 0, 64, 127
2, 591574, Note_on_c, 0, 61, 33
2, 591576, Note_on_c, 0, 58, 28
2, 591659, Note_off_c, 0, 52, 51
2, 591662, Note_off_c, 0, 67, 49
2, 591690, Note_off_c, 0, 58, 47
2, 591691, Note_off_c, 0, 61, 48
2, 591766, Note_on_c, 0, 65, 33
2, 591768, Note_on_c, 0, 48, 45
2, 591792, Control_c, 0, 64, 0
2, 591938, Note_on_c, 0, 56, 35
2, 591998, Control_c, 0, 64, 127
2, 592000, Note_off_c, 0, 48, 51
2, 592154, Note_on_c, 0, 67, 37
2, 592156, Note_on_c, 0, 48, 45
2, 592186, Note_off_c, 0, 65, 48
2, 592307, Note_off_c, 0, 56, 48
2, 592360, Note_on_c, 0, 58, 39
2, 592432, Note_off_c, 0, 48, 51
2, 592597, Note_on_c, 0, 64, 41
2, 592599, Note_on_c, 0, 48, 45
2, 592605, Control_c, 0, 64, 0
2, 592626, Note_off_c, 0, 67, 49
2, 592795, Note_off_c, 0, 58, 49
2, 592843, Control_c, 0, 64, 127
2, 592862, Note_on_c, 0, 55, 43
2, 592987, Note_off_c, 0, 64, 50
2, 593035, Note_off_c, 0, 48, 51
2, 593070, Note_off_c, 0, 55, 50
2, 593107, Note_on_c, 0, 65, 51
2, 593119, Note_on_c, 0, 56, 39
2, 593126, Note_on_c, 0, 41, 41
2, 593141, Note_on_c, 0, 53, 45
2, 593148, Control_c, 0, 64, 0
2, 593409, Control_c, 0, 64, 127
2, 593630, Note_off_c, 0, 53, 51
2, 593710, Note_off_c, 0, 41, 50
2, 593712, Note_off_c, 0, 56, 49
2, 593766, Note_off_c, 0, 65, 52
2, 594119, Control_c, 0, 64, 0
2, 594287, Note_on_c, 0, 60, 33
2, 594692, Note_off_c, 0, 60, 48
2, 594694, Note_on_c, 0, 48, 57
2, 594696, Note_on_c, 0, 64, 69
2, 594726, Control_c, 0, 64, 127
2, 594906, Note_on_c, 0, 60, 45
2, 595108, Note_on_c, 0, 58, 34
2, 595151, Note_off_c, 0, 60, 51
2, 595328, Note_on_c, 0, 60, 39
2, 595553, Note_off_c, 0, 48, 54
2, 595554, Note_off_c, 0, 58, 48
2, 595559, Note_on_c, 0, 65, 48
2, 595561, Note_on_c, 0, 56, 37
2, 595564, Control_c, 0, 64, 0
2, 595604, Note_off_c, 0, 64, 57
2, 595605, Note_off_c, 0, 60, 49
2, 595768, Note_on_c, 0, 60, 33
2, 595773, Control_c, 0, 64, 127
2, 595908, Note_off_c, 0, 60, 48
2, 595981, Note_off_c, 0, 65, 52
2, 595986, Note_off_c, 0, 56, 49
2, 595989, Note_on_c, 0, 67, 75
2, 596006, Note_on_c, 0, 48, 63
2, 596008, Note_on_c, 0, 64, 39
2, 596010, Control_c, 0, 64, 0
2, 596241, Control_c, 0, 64, 127
2, 596243, Note_on_c, 0, 60, 45
2, 596504, Note_on_c, 0, 58, 45
2, 596524, Note_on_c, 0, 55, 39
2, 596581, Note_off_c, 0, 60, 51
2, 596796, Note_on_c, 0, 60, 39
2, 596992, Note_off_c, 0, 58, 51
2, 597007, Note_off_c, 0, 55, 49
2, 597085, Note_on_c, 0, 68, 60
2, 597092, Note_on_c, 0, 56, 48
2, 597100, Note_on_c, 0, 53, 42
2, 597102, Note_on_c, 0, 65, 42
2, 597104, Control_c, 0, 64, 0
2, 597114, Note_off_c, 0, 67, 59
2, 597128, Note_off_c, 0, 64, 49
2, 597201, Note_off_c, 0, 60, 49
2, 597316, Note_off_c, 0, 48, 55
2, 597341, Control_c, 0, 64, 127
2, 597444, Note_on_c, 0, 60, 33
2, 597704, Note_off_c, 0, 53, 50
2, 597707, Note_off_c, 0, 56, 52
2, 597738, Note_off_c, 0, 60, 48
2, 597812, Note_off_c, 0, 68, 55
2, 597820, Note_on_c, 0, 72, 90
2, 597824, Note_off_c, 0, 65, 50
2, 597842, Note_on_c, 0, 67, 60
2, 597844, Note_on_c, 0, 60, 54
2, 597847, Control_c, 0, 64, 0
2, 597849, Note_on_c, 0, 48, 48
2, 597852, Note_on_c, 0, 55, 52
2, 597855, Note_on_c, 0, 52, 50
2, 597860, Note_on_c, 0, 64, 60
2, 598067, Control_c, 0, 64, 127
2, 598773, Note_off_c, 0, 64, 55
2, 598788, Note_off_c, 0, 72, 62
2, 598797, Control_c, 0, 64, 0
2, 598799, Note_on_c, 0, 70, 56
2, 598811, Note_off_c, 0, 67, 55
2, 598990, Control_c, 0, 64, 100
2, 598993, Note_on_c, 0, 68, 50
2, 599014, Note_off_c, 0, 70, 54
2, 599144, Note_off_c, 0, 55, 53
2, 599170, Note_off_c, 0, 52, 52
2, 599188, Note_on_c, 0, 67, 54
2, 599190, Note_off_c, 0, 60, 53
2, 599210, Note_off_c, 0, 48, 52
2, 599219, Note_off_c, 0, 68, 52
2, 599345, Control_c, 0, 64, 0
2, 599353, Note_off_c, 0, 67, 53
2, 599408, Note_on_c, 0, 70, 54
2, 599411, Note_on_c, 0, 60, 45
2, 599413, Note_on_c, 0, 53, 41
2, 599417, Note_on_c, 0, 56, 43
2, 599615, Note_on_c, 0, 68, 59
2, 599632, Control_c, 0, 64, 96
2, 599653, Note_off_c, 0, 70, 53
2, 599835, Note_off_c, 0, 53, 50
2, 599838, Note_on_c, 0, 67, 64
2, 599839, Note_off_c, 0, 56, 50
2, 599865, Note_off_c, 0, 68, 54
2, 599876, Note_off_c, 0, 60, 51
2, 600054, Note_on_c, 0, 65, 69
2, 600083, Note_off_c, 0, 67, 56
2, 600234, Control_c, 0, 64, 0
2, 600239, Note_off_c, 0, 65, 57
2, 600354, Note_on_c, 0, 72, 69
2, 600423, Note_off_c, 0, 72, 57
2, 600425, Note_on_c, 0, 73, 69
2, 600491, Note_off_c, 0, 73, 57
2, 600495, Note_on_c, 0, 72, 69
2, 600545, Note_off_c, 0, 72, 57
2, 600547, Note_on_c, 0, 73, 69
2, 600612, Note_off_c, 0, 73, 57
2, 600615, Note_on_c, 0, 72, 69
2, 600684, Note_off_c, 0, 72, 57
2, 600687, Note_on_c, 0, 71, 69
2, 600792, Note_off_c, 0, 71, 57
2, 600793, Note_on_c, 0, 72, 63
2, 600872, Note_on_c, 0, 79, 60
2, 600879, Note_off_c, 0, 72, 55
2, 600884, Note_on_c, 0, 60, 46
2, 600886, Note_on_c, 0, 76, 54
2, 601002, Control_c, 0, 64, 127
2, 601081, Note_on_c, 0, 72, 44
2, 601285, Note_on_c, 0, 70, 38
2, 601294, Note_on_c, 0, 67, 36
2, 601357, Note_off_c, 0, 72, 51
2, 601499, Note_on_c, 0, 72, 37
2, 601614, Note_off_c, 0, 76, 53
2, 601671, Note_off_c, 0, 67, 49
2, 601705, Note_off_c, 0, 70, 49
2, 601727, Note_on_c, 0, 80, 54
2, 601729, Note_on_c, 0, 68, 47
2, 601731, Note_on_c, 0, 77, 55
2, 601736, Note_on_c, 0, 65, 45
2, 601739, Control_c, 0, 64, 0
2, 601740, Note_off_c, 0, 79, 55
2, 601825, Note_off_c, 0, 72, 49
2, 601938, Control_c, 0, 64, 127
2, 601969, Note_on_c, 0, 72, 56
2, 602186, Note_off_c, 0, 65, 51
2, 602194, Note_off_c, 0, 68, 51
2, 602199, Note_off_c, 0, 77, 53
2, 602223, Note_on_c, 0, 82, 69
2, 602233, Note_on_c, 0, 64, 60
2, 602235, Note_on_c, 0, 79, 64
2, 602237, Note_on_c, 0, 67, 63
2, 602244, Control_c, 0, 64, 0
2, 602252, Note_off_c, 0, 80, 53
2, 602322, Note_off_c, 0, 72, 54
2, 602446, Control_c, 0, 64, 127
2, 602495, Note_off_c, 0, 60, 51
2, 602501, Note_on_c, 0, 72, 70
2, 602620, Note_off_c, 0, 64, 55
2, 602622, Note_off_c, 0, 79, 56
2, 602637, Note_off_c, 0, 82, 57
2, 602657, Note_off_c, 0, 67, 55
2, 602807, Note_on_c, 0, 71, 71
2, 602838, Note_off_c, 0, 72, 57
2, 602855, Control_c, 0, 64, 0
2, 603118, Note_on_c, 0, 72, 78
2, 603143, Note_off_c, 0, 71, 58
2, 603395, Note_off_c, 0, 72, 59
2, 603462, Note_on_c, 0, 88, 83
2, 603473, Note_on_c, 0, 48, 68
2, 603495, Note_on_c, 0, 60, 70
2, 603497, Note_on_c, 0, 76, 75
2, 603499, Note_on_c, 0, 79, 76
2, 603623, Note_off_c, 0, 48, 57
2, 603631, Note_off_c, 0, 88, 60
2, 603636, Note_off_c, 0, 76, 59
2, 603656, Note_off_c, 0, 60, 57
2, 603658, Note_off_c, 0, 79, 59
2, 604256, Control_c, 0, 64, 127
2, 604273, Note_on_c, 0, 41, 73
2, 604277, Note_on_c, 0, 53, 60
2, 604279, Note_on_c, 0, 80, 69
2, 604281, Note_on_c, 0, 89, 89
2, 604283, Note_on_c, 0, 77, 77
2, 604418, Note_off_c, 0, 77, 59
2, 604433, Note_off_c, 0, 80, 57
2, 604441, Note_off_c, 0, 41, 58
2, 604474, Note_off_c, 0, 53, 55
2, 604496, Note_off_c, 0, 89, 62
2, 604692, Control_c, 0, 64, 0
2, 608327, Note_on_c, 0, 48, 57
2, 608501, Note_off_c, 0, 48, 54
2, 608503, Note_on_c, 0, 53, 57
2, 608599, Note_off_c, 0, 53, 54
2, 608703, Note_on_c, 0, 53, 63
2, 608796, Note_off_c, 0, 53, 55
2, 608894, Note_on_c, 0, 53, 69
2, 608998, Note_off_c, 0, 53, 57
2, 609093, Note_on_c, 0, 48, 57
2, 609190, Note_off_c, 0, 48, 54
2, 609269, Note_on_c, 0, 57, 57
2, 609369, Note_off_c, 0, 57, 54
2, 609466, Note_on_c, 0, 57, 63
2, 609565, Note_off_c, 0, 57, 55
2, 609665, Note_on_c, 0, 57, 69
2, 609761, Note_off_c, 0, 57, 57
2, 609861, Note_on_c, 0, 53, 57
2, 609959, Note_off_c, 0, 53, 54
2, 610055, Note_on_c, 0, 60, 57
2, 610137, Note_off_c, 0, 60, 54
2, 610235, Note_on_c, 0, 60, 63
2, 610336, Note_off_c, 0, 60, 55
2, 610432, Note_on_c, 0, 60, 69
2, 610530, Note_on_c, 0, 62, 69
2, 610550, Note_off_c, 0, 60, 57
2, 610631, Note_on_c, 0, 60, 57
2, 610641, Note_off_c, 0, 62, 57
2, 610729, Note_on_c, 0, 58, 57
2, 610751, Note_off_c, 0, 60, 54
2, 610787, Note_off_c, 0, 58, 54
2, 610826, Note_on_c, 0, 57, 57
2, 610907, Note_off_c, 0, 57, 54
2, 611006, Note_on_c, 0, 57, 63
2, 611102, Note_off_c, 0, 57, 55
2, 611201, Note_on_c, 0, 57, 69
2, 611300, Note_on_c, 0, 58, 69
2, 611320, Note_off_c, 0, 57, 57
2, 611400, Note_on_c, 0, 60, 57
2, 611404, Note_on_c, 0, 57, 69
2, 611413, Note_off_c, 0, 58, 57
2, 611498, Note_on_c, 0, 55, 57
2, 611521, Note_off_c, 0, 57, 57
2, 611556, Note_off_c, 0, 55, 54
2, 611596, Note_off_c, 0, 60, 54
2, 611599, Note_on_c, 0, 57, 45
2, 611600, Note_on_c, 0, 65, 57
2, 611677, Note_off_c, 0, 57, 51
2, 611678, Note_off_c, 0, 65, 54
2, 611774, Note_on_c, 0, 65, 65
2, 611775, Note_on_c, 0, 60, 45
2, 611870, Note_off_c, 0, 65, 56
2, 611872, Note_on_c, 0, 58, 51
2, 611891, Note_off_c, 0, 60, 51
2, 611951, Note_off_c, 0, 58, 52
2, 611972, Note_on_c, 0, 57, 57
2, 611973, Note_on_c, 0, 65, 69
2, 612072, Note_off_c, 0, 57, 54
2, 612073, Note_off_c, 0, 65, 57
2, 612165, Note_on_c, 0, 60, 57
2, 612167, Note_on_c, 0, 55, 45
2, 612264, Note_off_c, 0, 55, 51
2, 612268, Note_off_c, 0, 60, 54
2, 612367, Note_on_c, 0, 53, 45
2, 612369, Note_on_c, 0, 69, 57
2, 612468, Note_off_c, 0, 53, 51
2, 612470, Note_off_c, 0, 69, 54
2, 612540, Note_on_c, 0, 52, 51
2, 612542, Note_on_c, 0, 69, 63
2, 612643, Note_off_c, 0, 52, 52
2, 612645, Note_off_c, 0, 69, 55
2, 612744, Note_on_c, 0, 53, 57
2, 612746, Note_on_c, 0, 69, 69
2, 612835, Note_off_c, 0, 69, 57
2, 612839, Note_off_c, 0, 53, 54
2, 612938, Note_on_c, 0, 50, 45
2, 612940, Note_on_c, 0, 65, 57
2, 613037, Note_off_c, 0, 50, 51
2, 613039, Note_off_c, 0, 65, 54
2, 613132, Note_on_c, 0, 72, 57
2, 613134, Note_on_c, 0, 52, 45
2, 613230, Note_off_c, 0, 52, 51
2, 613232, Note_off_c, 0, 72, 54
2, 613313, Note_on_c, 0, 48, 51
2, 613315, Note_on_c, 0, 72, 63
2, 613408, Note_off_c, 0, 72, 55
2, 613413, Note_off_c, 0, 48, 52
2, 613506, Note_on_c, 0, 72, 69
2, 613508, Note_on_c, 0, 50, 57
2, 613606, Note_off_c, 0, 50, 54
2, 613608, Note_on_c, 0, 74, 69
2, 613619, Note_off_c, 0, 72, 57
2, 613708, Note_on_c, 0, 52, 51
2, 613710, Note_on_c, 0, 72, 69
2, 613727, Note_off_c, 0, 74, 57
2, 613801, Note_off_c, 0, 52, 52
2, 613805, Note_on_c, 0, 70, 63
2, 613821, Note_off_c, 0, 72, 57
2, 613883, Note_off_c, 0, 70, 55
2, 613902, Note_on_c, 0, 53, 45
2, 613904, Note_on_c, 0, 69, 57
2, 614003, Note_off_c, 0, 53, 51
2, 614005, Note_off_c, 0, 69, 54
2, 614096, Note_on_c, 0, 69, 57
2, 614099, Note_on_c, 0, 55, 45
2, 614178, Note_off_c, 0, 55, 51
2, 614180, Note_off_c, 0, 69, 54
2, 614277, Note_on_c, 0, 57, 57
2, 614280, Note_on_c, 0, 67, 69
2, 614374, Note_off_c, 0, 67, 57
2, 614379, Note_off_c, 0, 57, 54
2, 614381, Note_on_c, 0, 69, 69
2, 614472, Note_off_c, 0, 69, 57
2, 614474, Note_on_c, 0, 67, 69
2, 614476, Note_on_c, 0, 59, 50
2, 614572, Note_off_c, 0, 59, 52
2, 614574, Note_on_c, 0, 65, 63
2, 614668, Note_off_c, 0, 67, 57
2, 614675, Note_off_c, 0, 65, 55
2, 614677, Note_on_c, 0, 64, 48
2, 614679, Note_on_c, 0, 72, 57
2, 614679, Note_on_c, 0, 60, 42
2, 614768, Note_off_c, 0, 64, 52
2, 614770, Note_off_c, 0, 72, 54
2, 614772, Note_off_c, 0, 60, 50
2, 614868, Note_on_c, 0, 65, 48
2, 614869, Note_on_c, 0, 72, 57
2, 614871, Note_on_c, 0, 62, 42
2, 614947, Note_off_c, 0, 62, 50
2, 614950, Note_off_c, 0, 65, 52
2, 614951, Note_off_c, 0, 72, 54
2, 615044, Note_on_c, 0, 72, 69
2, 615046, Note_on_c, 0, 67, 60
2, 615049, Note_on_c, 0, 64, 54
2, 615143, Note_off_c, 0, 64, 53
2, 615145, Note_off_c, 0, 67, 55
2, 615147, Note_off_c, 0, 72, 57
2, 615242, Note_on_c, 0, 65, 48
2, 615244, Note_on_c, 0, 67, 57
2, 615247, Note_on_c, 0, 62, 42
2, 615339, Note_off_c, 0, 67, 54
2, 615344, Note_off_c, 0, 65, 52
2, 615346, Note_off_c, 0, 62, 50
2, 615438, Note_on_c, 0, 76, 57
2, 615440, Note_on_c, 0, 64, 48
2, 615444, Note_on_c, 0, 60, 39
2, 615539, Note_off_c, 0, 60, 49
2, 615541, Note_off_c, 0, 76, 54
2, 615543, Note_off_c, 0, 64, 52
2, 615638, Note_on_c, 0, 59, 48
2, 615640, Note_on_c, 0, 62, 54
2, 615641, Note_on_c, 0, 76, 63
2, 615734, Note_off_c, 0, 62, 53
2, 615737, Note_off_c, 0, 76, 55
2, 615740, Note_off_c, 0, 59, 52
2, 615815, Note_on_c, 0, 60, 54
2, 615816, Note_on_c, 0, 64, 60
2, 615818, Note_on_c, 0, 76, 69
2, 615913, Note_off_c, 0, 76, 57
2, 615916, Note_off_c, 0, 60, 53
2, 615917, Note_off_c, 0, 64, 55
2, 616015, Note_on_c, 0, 57, 42
2, 616016, Note_on_c, 0, 60, 48
2, 616018, Note_on_c, 0, 72, 57
2, 616110, Note_off_c, 0, 57, 50
2, 616111, Note_off_c, 0, 60, 52
2, 616113, Note_off_c, 0, 72, 54
2, 616204, Note_on_c, 0, 79, 57
2, 616208, Note_on_c, 0, 62, 48
2, 616210, Note_on_c, 0, 59, 42
2, 616308, Note_off_c, 0, 62, 52
2, 616310, Note_off_c, 0, 59, 50
2, 616312, Note_off_c, 0, 79, 54
2, 616404, Note_on_c, 0, 55, 48
2, 616407, Note_on_c, 0, 59, 54
2, 616409, Note_on_c, 0, 79, 63
2, 616504, Note_off_c, 0, 59, 53
2, 616506, Note_off_c, 0, 79, 55
2, 616507, Note_off_c, 0, 55, 52
2, 616584, Note_on_c, 0, 57, 54
2, 616586, Note_on_c, 0, 79, 69
2, 616588, Note_on_c, 0, 60, 60
2, 616682, Note_off_c, 0, 57, 53
2, 616684, Note_off_c, 0, 60, 55
2, 616686, Note_on_c, 0, 81, 69
2, 616693, Note_off_c, 0, 79, 57
2, 616780, Note_on_c, 0, 79, 69
2, 616782, Note_on_c, 0, 62, 53
2, 616787, Note_on_c, 0, 59, 47
2, 616797, Note_off_c, 0, 81, 57
2, 616879, Note_off_c, 0, 59, 51
2, 616881, Note_off_c, 0, 62, 53
2, 616883, Note_on_c, 0, 77, 63
2, 616897, Note_off_c, 0, 79, 57
2, 616959, Note_off_c, 0, 77, 55
2, 616979, Note_on_c, 0, 60, 42
2, 616981, Note_on_c, 0, 76, 63
2, 616983, Note_on_c, 0, 64, 48
2, 617078, Note_off_c, 0, 60, 50
2, 617080, Note_off_c, 0, 76, 55
2, 617082, Note_off_c, 0, 64, 52
2, 617168, Note_on_c, 0, 76, 63
2, 617173, Note_on_c, 0, 65, 54
2, 617175, Note_on_c, 0, 62, 48
2, 617274, Note_off_c, 0, 65, 53
2, 617276, Note_off_c, 0, 62, 52
2, 617278, Note_off_c, 0, 76, 55
2, 617370, Note_on_c, 0, 76, 69
2, 617372, Note_on_c, 0, 64, 54
2, 617374, Note_on_c, 0, 67, 60
2, 617452, Note_off_c, 0, 64, 53
2, 617454, Note_off_c, 0, 67, 55
2, 617456, Note_on_c, 0, 74, 69
2, 617479, Note_off_c, 0, 76, 57
2, 617547, Note_on_c, 0, 76, 65
2, 617549, Note_on_c, 0, 60, 49
2, 617551, Note_on_c, 0, 64, 55
2, 617562, Note_off_c, 0, 74, 57
2, 617650, Note_off_c, 0, 60, 52
2, 617652, Note_off_c, 0, 64, 53
2, 617654, Note_on_c, 0, 72, 61
2, 617658, Note_off_c, 0, 76, 56
2, 617720, Note_off_c, 0, 72, 55
2, 617742, Note_on_c, 0, 64, 48
2, 617746, Note_on_c, 0, 81, 57
2, 617748, Note_on_c, 0, 61, 42
2, 617840, Note_off_c, 0, 81, 54
2, 617842, Note_off_c, 0, 61, 50
2, 617844, Note_off_c, 0, 64, 52
2, 617941, Note_on_c, 0, 57, 48
2, 617943, Note_on_c, 0, 61, 54
2, 617945, Note_on_c, 0, 81, 63
2, 618038, Note_off_c, 0, 57, 52
2, 618041, Note_off_c, 0, 61, 53
2, 618043, Note_off_c, 0, 81, 55
2, 618139, Note_on_c, 0, 62, 60
2, 618140, Note_on_c, 0, 59, 54
2, 618142, Note_on_c, 0, 81, 69
2, 618216, Note_off_c, 0, 62, 55
2, 618217, Note_off_c, 0, 59, 53
2, 618219, Note_on_c, 0, 82, 69
2, 618251, Note_off_c, 0, 81, 57
2, 618320, Note_on_c, 0, 61, 47
2, 618322, Note_on_c, 0, 81, 69
2, 618324, Note_on_c, 0, 64, 53
2, 618328, Note_off_c, 0, 82, 57
2, 618413, Note_off_c, 0, 64, 53
2, 618418, Note_off_c, 0, 61, 51
2, 618420, Note_on_c, 0, 79, 63
2, 618426, Note_off_c, 0, 81, 57
2, 618491, Note_off_c, 0, 79, 55
2, 618513, Note_on_c, 0, 77, 57
2, 618515, Note_on_c, 0, 65, 48
2, 618517, Note_on_c, 0, 62, 42
2, 618609, Note_off_c, 0, 62, 50
2, 618610, Note_off_c, 0, 77, 54
2, 618612, Note_off_c, 0, 65, 52
2, 618707, Note_on_c, 0, 77, 63
2, 618709, Note_on_c, 0, 67, 54
2, 618711, Note_on_c, 0, 64, 48
2, 618806, Note_off_c, 0, 67, 53
2, 618808, Note_off_c, 0, 77, 55
2, 618809, Note_off_c, 0, 64, 52
2, 618902, Note_on_c, 0, 77, 69
2, 618906, Note_on_c, 0, 65, 54
2, 618908, Note_on_c, 0, 69, 60
2, 619008, Note_off_c, 0, 65, 53
2, 619010, Note_off_c, 0, 69, 55
2, 619011, Note_on_c, 0, 76, 69
2, 619024, Note_off_c, 0, 77, 57
2, 619081, Note_on_c, 0, 77, 73
2, 619087, Note_on_c, 0, 65, 48
2, 619090, Note_on_c, 0, 62, 42
2, 619098, Note_off_c, 0, 76, 57
2, 619181, Note_off_c, 0, 62, 50
2, 619183, Note_off_c, 0, 65, 52
2, 619185, Note_on_c, 0, 74, 77
2, 619196, Note_off_c, 0, 77, 58
2, 619260, Note_off_c, 0, 74, 59
2, 619280, Note_on_c, 0, 89, 99
2, 619285, Note_on_c, 0, 59, 66
2, 619286, Note_on_c, 0, 62, 66
2, 619288, Note_on_c, 0, 67, 71
2, 619381, Note_off_c, 0, 89, 64
2, 619387, Note_off_c, 0, 67, 58
2, 619390, Note_off_c, 0, 62, 56
2, 619417, Note_off_c, 0, 59, 56
2, 619477, Note_on_c, 0, 89, 57
2, 619479, Note_on_c, 0, 67, 48
2, 619481, Note_on_c, 0, 59, 42
2, 619490, Note_on_c, 0, 62, 43
2, 619576, Note_off_c, 0, 89, 54
2, 619582, Note_off_c, 0, 67, 52
2, 619597, Note_off_c, 0, 59, 50
2, 619608, Note_off_c, 0, 62, 50
2, 619672, Note_on_c, 0, 64, 49
2, 619674, Note_on_c, 0, 88, 63
2, 619681, Note_on_c, 0, 60, 48
2, 619695, Note_on_c, 0, 67, 55
2, 619774, Note_on_c, 0, 87, 63
2, 619783, Note_off_c, 0, 64, 52
2, 619791, Note_off_c, 0, 67, 53
2, 619794, Note_off_c, 0, 88, 55
2, 619805, Note_off_c, 0, 60, 52
2, 619854, Note_on_c, 0, 88, 63
2, 619871, Note_off_c, 0, 87, 55
2, 619949, Note_on_c, 0, 84, 63
2, 619968, Note_off_c, 0, 88, 55
2, 620029, Note_off_c, 0, 84, 55
2, 620048, Note_on_c, 0, 89, 97
2, 620050, Note_on_c, 0, 59, 65
2, 620058, Note_on_c, 0, 67, 72
2, 620059, Note_on_c, 0, 62, 67
2, 620139, Note_off_c, 0, 59, 56
2, 620147, Note_off_c, 0, 89, 64
2, 620157, Note_off_c, 0, 62, 57
2, 620170, Note_off_c, 0, 67, 58
2, 620245, Note_on_c, 0, 89, 57
2, 620252, Note_on_c, 0, 62, 43
2, 620258, Note_on_c, 0, 67, 47
2, 620259, Note_on_c, 0, 59, 42
2, 620343, Note_off_c, 0, 89, 54
2, 620370, Note_off_c, 0, 67, 51
2, 620393, Note_off_c, 0, 62, 50
2, 620403, Note_off_c, 0, 59, 50
2, 620444, Note_on_c, 0, 88, 63
2, 620458, Note_on_c, 0, 64, 49
2, 620460, Note_on_c, 0, 67, 54
2, 620462, Note_on_c, 0, 60, 48
2, 620542, Note_on_c, 0, 87, 62
2, 620572, Note_off_c, 0, 88, 55
2, 620575, Note_off_c, 0, 64, 52
2, 620602, Note_off_c, 0, 67, 53
2, 620618, Note_off_c, 0, 60, 52
2, 620646, Note_on_c, 0, 88, 61
2, 620657, Note_off_c, 0, 87, 55
2, 620720, Note_on_c, 0, 84, 60
2, 620737, Note_off_c, 0, 88, 55
2, 620796, Note_off_c, 0, 84, 55
2, 620818, Note_on_c, 0, 86, 56
2, 620820, Note_on_c, 0, 62, 48
2, 620826, Note_on_c, 0, 57, 41
2, 620828, Note_on_c, 0, 53, 41
2, 620914, Note_on_c, 0, 84, 55
2, 620922, Note_off_c, 0, 57, 50
2, 620930, Note_off_c, 0, 86, 54
2, 620945, Note_off_c, 0, 53, 50
2, 620947, Note_off_c, 0, 62, 52
2, 621017, Note_on_c, 0, 83, 54
2, 621036, Note_off_c, 0, 84, 53
2, 621113, Note_on_c, 0, 81, 53
2, 621132, Note_off_c, 0, 83, 53
2, 621207, Note_on_c, 0, 62, 53
2, 621211, Note_on_c, 0, 79, 52
2, 621216, Note_on_c, 0, 59, 47
2, 621229, Note_off_c, 0, 81, 53
2, 621232, Note_on_c, 0, 55, 46
2, 621308, Note_on_c, 0, 77, 51
2, 621334, Note_off_c, 0, 79, 53
2, 621337, Note_off_c, 0, 62, 53
2, 621338, Note_off_c, 0, 59, 51
2, 621348, Note_off_c, 0, 55, 51
2, 621413, Note_on_c, 0, 76, 50
2, 621437, Note_off_c, 0, 77, 52
2, 621488, Note_on_c, 0, 74, 48
2, 621509, Note_off_c, 0, 76, 52
2, 621562, Note_off_c, 0, 74, 52
2, 621589, Note_on_c, 0, 72, 48
2, 621591, Note_on_c, 0, 60, 60
2, 621593, Note_on_c, 0, 48, 51
2, 621603, Note_on_c, 0, 55, 53
2, 621605, Note_on_c, 0, 52, 52
2, 621684, Note_on_c, 0, 71, 50
2, 621706, Note_off_c, 0, 72, 52
2, 621783, Note_on_c, 0, 72, 52
2, 621811, Note_off_c, 0, 71, 52
2, 621842, Note_off_c, 0, 55, 53
2, 621845, Note_off_c, 0, 48, 52
2, 621847, Note_off_c, 0, 60, 55
2, 621869, Note_off_c, 0, 52, 53
2, 621881, Note_on_c, 0, 74, 54
2, 621896, Note_off_c, 0, 72, 53
2, 621985, Note_on_c, 0, 76, 56
2, 622004, Note_off_c, 0, 74, 53
2, 622081, Note_on_c, 0, 77, 58
2, 622099, Note_off_c, 0, 76, 54
2, 622179, Note_on_c, 0, 79, 60
2, 622201, Note_off_c, 0, 77, 54
2, 622275, Note_on_c, 0, 76, 65
2, 622304, Note_off_c, 0, 79, 55
2, 622338, Note_off_c, 0, 76, 56
2, 622350, Note_on_c, 0, 53, 66
2, 622356, Note_on_c, 0, 47, 64
2, 622358, Note_on_c, 0, 55, 72
2, 622360, Note_on_c, 0, 77, 89
2, 622363, Note_on_c, 0, 50, 65
2, 622438, Note_off_c, 0, 53, 56
2, 622455, Note_on_c, 0, 74, 65
2, 622473, Note_off_c, 0, 77, 62
2, 622475, Note_off_c, 0, 47, 56
2, 622488, Note_off_c, 0, 55, 58
2, 622490, Note_off_c, 0, 50, 56
2, 622549, Note_on_c, 0, 77, 65
2, 622555, Note_off_c, 0, 74, 56
2, 622556, Note_on_c, 0, 47, 57
2, 622558, Note_on_c, 0, 55, 65
2, 622562, Note_on_c, 0, 53, 60
2, 622565, Note_on_c, 0, 50, 58
2, 622652, Note_on_c, 0, 74, 63
2, 622661, Note_off_c, 0, 55, 56
2, 622676, Note_off_c, 0, 77, 56
2, 622677, Note_off_c, 0, 47, 54
2, 622692, Note_off_c, 0, 53, 55
2, 622700, Note_off_c, 0, 50, 54
2, 622748, Note_on_c, 0, 76, 61
2, 622750, Note_on_c, 0, 52, 47
2, 622753, Note_off_c, 0, 74, 55
2, 622757, Note_on_c, 0, 55, 54
2, 622766, Note_on_c, 0, 48, 46
2, 622844, Note_on_c, 0, 75, 58
2, 622863, Note_off_c, 0, 48, 51
2, 622865, Note_off_c, 0, 76, 55
2, 622915, Note_off_c, 0, 52, 51
2, 622920, Note_off_c, 0, 55, 53
2, 622945, Note_on_c, 0, 76, 56
2, 622966, Note_off_c, 0, 75, 54
2, 623045, Note_on_c, 0, 72, 53
2, 623067, Note_off_c, 0, 76, 54
2, 623103, Note_off_c, 0, 72, 53
2, 623122, Note_on_c, 0, 77, 89
2, 623129, Note_on_c, 0, 55, 71
2, 623133, Note_on_c, 0, 53, 65
2, 623135, Note_on_c, 0, 47, 64
2, 623138, Note_on_c, 0, 50, 65
2, 623219, Note_on_c, 0, 74, 65
2, 623230, Note_off_c, 0, 47, 56
2, 623239, Note_off_c, 0, 50, 56
2, 623242, Note_off_c, 0, 77, 62
2, 623244, Note_off_c, 0, 53, 56
2, 623267, Note_off_c, 0, 55, 58
2, 623318, Note_off_c, 0, 74, 56
2, 623321, Note_on_c, 0, 77, 65
2, 623330, Note_on_c, 0, 47, 57
2, 623331, Note_on_c, 0, 55, 66
2, 623335, Note_on_c, 0, 53, 59
2, 623343, Note_on_c, 0, 50, 59
2, 623412, Note_off_c, 0, 55, 56
2, 623421, Note_on_c, 0, 74, 63
2, 623429, Note_off_c, 0, 47, 54
2, 623439, Note_off_c, 0, 77, 56
2, 623448, Note_off_c, 0, 53, 54
2, 623462, Note_off_c, 0, 50, 54
2, 623515, Note_on_c, 0, 76, 61
2, 623520, Note_on_c, 0, 55, 53
2, 623522, Note_on_c, 0, 52, 47
2, 623529, Note_off_c, 0, 74, 55
2, 623534, Note_on_c, 0, 48, 47
2, 623614, Note_on_c, 0, 75, 58
2, 623633, Note_off_c, 0, 48, 51
2, 623635, Note_off_c, 0, 55, 53
2, 623645, Note_off_c, 0, 76, 55
2, 623655, Note_off_c, 0, 52, 51
2, 623717, Note_on_c, 0, 76, 56
2, 623738, Note_off_c, 0, 75, 54
2, 623813, Note_on_c, 0, 72, 53
2, 623829, Note_off_c, 0, 76, 54
2, 623870, Note_off_c, 0, 72, 53
2, 623909, Note_on_c, 0, 41, 69
2, 623911, Note_on_c, 0, 81, 84
2, 623993, Note_on_c, 0, 80, 84
2, 624017, Note_off_c, 0, 81, 61
2, 624052, Note_off_c, 0, 41, 57
2, 624089, Note_on_c, 0, 53, 67
2, 624091, Note_on_c, 0, 81, 83
2, 624110, Note_off_c, 0, 80, 61
2, 624185, Note_on_c, 0, 80, 81
2, 624204, Note_off_c, 0, 81, 60
2, 624240, Note_off_c, 0, 53, 57
2, 624284, Note_on_c, 0, 53, 62
2, 624288, Note_off_c, 0, 80, 60
2, 624290, Note_on_c, 0, 81, 79
2, 624383, Note_on_c, 0, 79, 77
2, 624404, Note_off_c, 0, 81, 60
2, 624405, Note_off_c, 0, 53, 55
2, 624477, Note_on_c, 0, 53, 58
2, 624482, Note_on_c, 0, 77, 75
2, 624487, Note_off_c, 0, 79, 59
2, 624579, Note_on_c, 0, 76, 73
2, 624604, Note_off_c, 0, 77, 59
2, 624640, Note_off_c, 0, 76, 58
2, 624652, Note_off_c, 0, 53, 54
2, 624681, Note_on_c, 0, 74, 69
2, 624684, Note_on_c, 0, 43, 55
2, 624758, Note_on_c, 0, 72, 67
2, 624778, Note_off_c, 0, 74, 57
2, 624804, Note_off_c, 0, 43, 53
2, 624854, Note_on_c, 0, 55, 50
2, 624855, Note_on_c, 0, 71, 65
2, 624886, Note_off_c, 0, 72, 57
2, 624955, Note_on_c, 0, 69, 63
2, 624977, Note_off_c, 0, 71, 56
2, 624988, Note_off_c, 0, 55, 52
2, 625047, Note_on_c, 0, 55, 46
2, 625054, Note_on_c, 0, 67, 61
2, 625056, Note_off_c, 0, 69, 55
2, 625154, Note_on_c, 0, 65, 59
2, 625176, Note_off_c, 0, 67, 55
2, 625186, Note_off_c, 0, 55, 51
2, 625251, Note_on_c, 0, 64, 57
2, 625252, Note_on_c, 0, 55, 45
2, 625255, Note_off_c, 0, 65, 54
2, 625352, Note_on_c, 0, 62, 57
2, 625373, Note_off_c, 0, 64, 54
2, 625388, Note_off_c, 0, 55, 51
2, 625438, Note_off_c, 0, 62, 54
2, 625450, Note_on_c, 0, 60, 36
2, 625452, Note_on_c, 0, 48, 33
2, 625454, Note_on_c, 0, 36, 36
2, 625552, Note_off_c, 0, 60, 49
2, 625553, Note_off_c, 0, 48, 48
2, 625618, Note_on_c, 0, 52, 33
2, 625620, Note_on_c, 0, 55, 40
2, 625627, Note_on_c, 0, 48, 33
2, 625726, Note_off_c, 0, 48, 48
2, 625728, Note_off_c, 0, 55, 50
2, 625730, Note_off_c, 0, 52, 48
2, 625817, Note_on_c, 0, 55, 44
2, 625826, Note_on_c, 0, 52, 38
2, 625829, Note_on_c, 0, 48, 38
2, 625917, Note_off_c, 0, 52, 49
2, 625920, Note_off_c, 0, 55, 51
2, 625926, Note_off_c, 0, 48, 49
2, 626019, Note_on_c, 0, 52, 42
2, 626021, Note_on_c, 0, 43, 39
2, 626023, Note_on_c, 0, 60, 48
2, 626049, Note_off_c, 0, 36, 49
2, 626104, Note_off_c, 0, 52, 50
2, 626124, Note_off_c, 0, 60, 52
2, 626126, Note_off_c, 0, 43, 49
2, 626216, Note_on_c, 0, 48, 37
2, 626220, Note_on_c, 0, 36, 36
2, 626222, Note_on_c, 0, 55, 41
2, 626224, Note_on_c, 0, 52, 38
2, 626308, Note_off_c, 0, 52, 49
2, 626316, Note_off_c, 0, 48, 49
2, 626324, Note_off_c, 0, 55, 50
2, 626400, Note_on_c, 0, 48, 38
2, 626402, Note_on_c, 0, 52, 38
2, 626404, Note_on_c, 0, 55, 41
2, 626495, Note_off_c, 0, 52, 49
2, 626500, Note_off_c, 0, 55, 50
2, 626505, Note_off_c, 0, 48, 49
2, 626590, Note_on_c, 0, 55, 47
2, 626592, Note_on_c, 0, 52, 43
2, 626594, Note_on_c, 0, 48, 44
2, 626680, Note_off_c, 0, 48, 51
2, 626682, Note_off_c, 0, 52, 50
2, 626688, Note_off_c, 0, 55, 51
2, 626782, Note_on_c, 0, 52, 46
2, 626784, Note_on_c, 0, 60, 52
2, 626791, Note_on_c, 0, 43, 41
2, 626835, Note_off_c, 0, 36, 49
2, 626875, Note_off_c, 0, 52, 51
2, 626882, Note_off_c, 0, 60, 53
2, 626892, Note_off_c, 0, 43, 50
2, 626986, Note_on_c, 0, 36, 45
2, 626989, Note_on_c, 0, 53, 42
2, 626991, Note_on_c, 0, 55, 48
2, 626993, Note_on_c, 0, 50, 40
2, 627086, Note_off_c, 0, 53, 50
2, 627089, Note_off_c, 0, 50, 50
2, 627091, Note_off_c, 0, 55, 52
2, 627179, Note_on_c, 0, 53, 44
2, 627188, Note_on_c, 0, 62, 53
2, 627190, Note_on_c, 0, 48, 42
2, 627254, Note_off_c, 0, 48, 50
2, 627263, Note_off_c, 0, 53, 51
2, 627276, Note_off_c, 0, 62, 53
2, 627360, Note_on_c, 0, 53, 50
2, 627362, Note_on_c, 0, 47, 49
2, 627364, Note_on_c, 0, 62, 59
2, 627452, Note_off_c, 0, 62, 54
2, 627455, Note_off_c, 0, 53, 52
2, 627461, Note_off_c, 0, 47, 52
2, 627555, Note_on_c, 0, 53, 57
2, 627557, Note_on_c, 0, 45, 54
2, 627559, Note_on_c, 0, 62, 64
2, 627647, Note_off_c, 0, 45, 53
2, 627657, Note_off_c, 0, 62, 56
2, 627660, Note_off_c, 0, 53, 54
2, 627748, Note_on_c, 0, 53, 57
2, 627751, Note_on_c, 0, 62, 68
2, 627760, Note_on_c, 0, 43, 54
2, 627850, Note_off_c, 0, 53, 54
2, 627853, Note_off_c, 0, 62, 57
2, 627911, Note_off_c, 0, 43, 53
2, 627945, Note_on_c, 0, 53, 57
2, 627949, Note_on_c, 0, 62, 68
2, 627958, Note_on_c, 0, 45, 54
2, 628029, Note_off_c, 0, 53, 54
2, 628044, Note_off_c, 0, 62, 57
2, 628121, Note_on_c, 0, 53, 52
2, 628126, Note_off_c, 0, 45, 53
2, 628128, Note_on_c, 0, 62, 65
2, 628130, Note_on_c, 0, 47, 51
2, 628222, Note_off_c, 0, 53, 53
2, 628226, Note_on_c, 0, 64, 62
2, 628265, Note_off_c, 0, 62, 56
2, 628267, Note_off_c, 0, 36, 51
2, 628297, Note_off_c, 0, 47, 52
2, 628325, Note_on_c, 0, 62, 60
2, 628327, Note_on_c, 0, 53, 48
2, 628329, Note_on_c, 0, 43, 46
2, 628353, Note_off_c, 0, 64, 55
2, 628427, Note_on_c, 0, 64, 59
2, 628451, Note_off_c, 0, 62, 55
2, 628510, Note_off_c, 0, 53, 52
2, 628519, Note_on_c, 0, 48, 38
2, 628520, Note_on_c, 0, 52, 42
2, 628521, Note_off_c, 0, 43, 51
2, 628524, Note_on_c, 0, 60, 55
2, 628530, Note_on_c, 0, 36, 45
2, 628560, Note_off_c, 0, 64, 54
2, 628621, Note_off_c, 0, 48, 49
2, 628622, Note_off_c, 0, 52, 50
2, 628634, Note_off_c, 0, 60, 53
2, 628706, Note_on_c, 0, 55, 44
2, 628720, Note_on_c, 0, 48, 35
2, 628723, Note_on_c, 0, 52, 38
2, 628783, Note_off_c, 0, 48, 48
2, 628785, Note_off_c, 0, 55, 51
2, 628787, Note_off_c, 0, 52, 49
2, 628898, Note_on_c, 0, 55, 50
2, 628900, Note_on_c, 0, 48, 46
2, 628905, Note_on_c, 0, 52, 48
2, 628989, Note_off_c, 0, 48, 51
2, 628996, Note_off_c, 0, 55, 52
2, 629003, Note_off_c, 0, 52, 52
2, 629085, Note_off_c, 0, 36, 51
2, 629098, Note_on_c, 0, 60, 62
2, 629100, Note_on_c, 0, 52, 55
2, 629102, Note_on_c, 0, 60, 62
2, 629102, Note_on_c, 0, 43, 53
2, 629188, Note_off_c, 0, 52, 53
2, 629192, Note_off_c, 0, 43, 53
2, 629195, Note_off_c, 0, 60, 55
2, 629197, Note_off_c, 0, 60, 55
2, 629290, Note_on_c, 0, 55, 56
2, 629292, Note_on_c, 0, 48, 52
2, 629294, Note_on_c, 0, 52, 55
2, 629295, Note_on_c, 0, 36, 57
2, 629383, Note_off_c, 0, 48, 53
2, 629385, Note_off_c, 0, 55, 54
2, 629395, Note_off_c, 0, 52, 53
2, 629487, Note_on_c, 0, 48, 53
2, 629491, Note_on_c, 0, 55, 56
2, 629493, Note_on_c, 0, 52, 54
2, 629587, Note_off_c, 0, 52, 53
2, 629595, Note_off_c, 0, 55, 54
2, 629597, Note_off_c, 0, 48, 53
2, 629666, Note_on_c, 0, 55, 50
2, 629671, Note_on_c, 0, 48, 46
2, 629672, Note_on_c, 0, 52, 49
2, 629760, Note_off_c, 0, 48, 51
2, 629767, Note_off_c, 0, 55, 52
2, 629768, Note_off_c, 0, 52, 52
2, 629847, Note_off_c, 0, 36, 54
2, 629860, Note_on_c, 0, 43, 41
2, 629862, Note_on_c, 0, 52, 43
2, 629865, Note_on_c, 0, 60, 69
2, 629951, Note_off_c, 0, 43, 50
2, 629961, Note_off_c, 0, 60, 57
2, 629971, Note_off_c, 0, 52, 50
2, 630062, Note_on_c, 0, 50, 40
2, 630064, Note_on_c, 0, 55, 44
2, 630066, Note_on_c, 0, 36, 45
2, 630068, Note_on_c, 0, 53, 43
2, 630158, Note_off_c, 0, 50, 50
2, 630168, Note_off_c, 0, 55, 51
2, 630170, Note_off_c, 0, 53, 50
2, 630255, Note_on_c, 0, 48, 43
2, 630257, Note_on_c, 0, 62, 56
2, 630259, Note_on_c, 0, 53, 44
2, 630352, Note_off_c, 0, 62, 54
2, 630357, Note_off_c, 0, 53, 51
2, 630362, Note_off_c, 0, 48, 50
2, 630431, Note_on_c, 0, 62, 57
2, 630434, Note_on_c, 0, 47, 47
2, 630436, Note_on_c, 0, 53, 49
2, 630533, Note_off_c, 0, 53, 52
2, 630535, Note_off_c, 0, 47, 51
2, 630537, Note_off_c, 0, 62, 54
2, 630631, Note_on_c, 0, 45, 51
2, 630633, Note_on_c, 0, 62, 59
2, 630635, Note_on_c, 0, 53, 52
2, 630719, Note_off_c, 0, 45, 52
2, 630734, Note_off_c, 0, 62, 54
2, 630743, Note_off_c, 0, 53, 53
2, 630825, Note_on_c, 0, 62, 62
2, 630827, Note_on_c, 0, 53, 63
2, 630829, Note_on_c, 0, 43, 55
2, 630928, Note_off_c, 0, 62, 55
2, 630937, Note_off_c, 0, 53, 55
2, 631019, Note_off_c, 0, 43, 53
2, 631021, Note_on_c, 0, 53, 65
2, 631024, Note_on_c, 0, 45, 55
2, 631031, Note_on_c, 0, 62, 65
2, 631127, Note_off_c, 0, 53, 56
2, 631134, Note_off_c, 0, 62, 56
2, 631187, Note_off_c, 0, 45, 53
2, 631192, Note_off_c, 0, 36, 51
2, 631223, Note_on_c, 0, 62, 68
2, 631225, Note_on_c, 0, 47, 54
2, 631231, Note_on_c, 0, 53, 68
2, 631304, Note_on_c, 0, 64, 68
2, 631313, Note_off_c, 0, 53, 57
2, 631335, Note_off_c, 0, 62, 57
2, 631397, Note_on_c, 0, 43, 54
2, 631403, Note_on_c, 0, 62, 67
2, 631405, Note_on_c, 0, 53, 68
2, 631408, Note_off_c, 0, 47, 53
2, 631428, Note_off_c, 0, 64, 57
2, 631505, Note_on_c, 0, 64, 70
2, 631507, Note_off_c, 0, 62, 57
2, 631525, Note_off_c, 0, 53, 57
2, 631580, Note_off_c, 0, 64, 57
2, 631595, Note_off_c, 0, 43, 53
2, 631597, Note_on_c, 0, 60, 75
2, 631599, Note_on_c, 0, 48, 48
2, 631601, Note_on_c, 0, 36, 53
2, 631604, Note_on_c, 0, 52, 52
2, 631662, Note_off_c, 0, 60, 59
2, 631792, Note_on_c, 0, 43, 48
2, 631795, Note_on_c, 0, 55, 58
2, 631843, Note_off_c, 0, 55, 54
2, 631875, Note_off_c, 0, 36, 53
2, 631881, Note_off_c, 0, 48, 52
2, 631894, Note_off_c, 0, 52, 53
2, 631985, Note_on_c, 0, 60, 71
2, 631993, Note_on_c, 0, 36, 47
2, 631995, Note_on_c, 0, 48, 44
2, 631998, Note_on_c, 0, 52, 46
2, 632051, Note_off_c, 0, 60, 58
2, 632070, Note_off_c, 0, 43, 52
2, 632188, Note_on_c, 0, 43, 41
2, 632190, Note_on_c, 0, 55, 52
2, 632237, Note_off_c, 0, 55, 53
2, 632267, Note_off_c, 0, 52, 51
2, 632274, Note_off_c, 0, 48, 51
2, 632293, Note_off_c, 0, 36, 51
2, 632404, Note_on_c, 0, 52, 51
2, 632409, Note_on_c, 0, 60, 63
2, 632411, Note_on_c, 0, 48, 50
2, 632413, Note_on_c, 0, 36, 45
2, 632486, Note_off_c, 0, 43, 50
2, 632819, Note_off_c, 0, 60, 55
2, 632821, Note_off_c, 0, 52, 52
2, 632824, Note_off_c, 0, 48, 52
2, 632825, Note_off_c, 0, 36, 51
2, 633018, Note_on_c, 0, 48, 57
2, 633212, Note_off_c, 0, 48, 54
2, 633214, Note_on_c, 0, 53, 57
2, 633309, Note_off_c, 0, 53, 54
2, 633410, Note_on_c, 0, 53, 63
2, 633506, Note_off_c, 0, 53, 55
2, 633586, Note_on_c, 0, 53, 69
2, 633688, Note_off_c, 0, 53, 57
2, 633785, Note_on_c, 0, 48, 57
2, 633880, Note_off_c, 0, 48, 54
2, 633981, Note_on_c, 0, 57, 57
2, 634078, Note_off_c, 0, 57, 54
2, 634177, Note_on_c, 0, 57, 63
2, 634276, Note_off_c, 0, 57, 55
2, 634376, Note_on_c, 0, 57, 69
2, 634453, Note_off_c, 0, 57, 57
2, 634552, Note_on_c, 0, 53, 57
2, 634652, Note_off_c, 0, 53, 54
2, 634748, Note_on_c, 0, 60, 57
2, 634844, Note_off_c, 0, 60, 54
2, 634947, Note_on_c, 0, 60, 63
2, 635043, Note_off_c, 0, 60, 55
2, 635142, Note_on_c, 0, 60, 69
2, 635219, Note_on_c, 0, 62, 69
2, 635241, Note_off_c, 0, 60, 57
2, 635322, Note_on_c, 0, 60, 57
2, 635341, Note_off_c, 0, 62, 57
2, 635418, Note_on_c, 0, 58, 57
2, 635444, Note_off_c, 0, 60, 54
2, 635495, Note_off_c, 0, 58, 54
2, 635516, Note_on_c, 0, 57, 57
2, 635617, Note_off_c, 0, 57, 54
2, 635716, Note_on_c, 0, 57, 63
2, 635811, Note_off_c, 0, 57, 55
2, 635910, Note_on_c, 0, 57, 69
2, 636012, Note_on_c, 0, 58, 69
2, 636035, Note_off_c, 0, 57, 57
2, 636090, Note_on_c, 0, 57, 69
2, 636092, Note_on_c, 0, 60, 57
2, 636108, Note_off_c, 0, 58, 57
2, 636185, Note_on_c, 0, 55, 57
2, 636217, Note_off_c, 0, 57, 57
2, 636266, Note_off_c, 0, 55, 54
2, 636291, Note_off_c, 0, 60, 54
2, 636293, Note_on_c, 0, 57, 45
2, 636295, Note_on_c, 0, 65, 57
2, 636383, Note_off_c, 0, 65, 54
2, 636387, Note_off_c, 0, 57, 51
2, 636482, Note_on_c, 0, 60, 45
2, 636483, Note_on_c, 0, 65, 65
2, 636579, Note_off_c, 0, 65, 56
2, 636584, Note_on_c, 0, 58, 51
2, 636608, Note_off_c, 0, 60, 51
2, 636641, Note_off_c, 0, 58, 52
2, 636683, Note_on_c, 0, 57, 57
2, 636684, Note_on_c, 0, 65, 69
2, 636776, Note_off_c, 0, 65, 57
2, 636779, Note_off_c, 0, 57, 54
2, 636857, Note_on_c, 0, 55, 45
2, 636859, Note_on_c, 0, 60, 57
2, 636954, Note_off_c, 0, 55, 51
2, 636956, Note_off_c, 0, 60, 54
2, 637053, Note_on_c, 0, 69, 57
2, 637058, Note_on_c, 0, 53, 45
2, 637152, Note_off_c, 0, 53, 51
2, 637155, Note_off_c, 0, 69, 54
2, 637252, Note_on_c, 0, 52, 51
2, 637254, Note_on_c, 0, 69, 63
2, 637348, Note_off_c, 0, 69, 55
2, 637353, Note_off_c, 0, 52, 52
2, 637448, Note_on_c, 0, 53, 57
2, 637450, Note_on_c, 0, 69, 69
2, 637547, Note_off_c, 0, 53, 54
2, 637549, Note_off_c, 0, 69, 57
2, 637650, Note_on_c, 0, 50, 45
2, 637652, Note_on_c, 0, 65, 57
2, 637724, Note_off_c, 0, 50, 51
2, 637726, Note_off_c, 0, 65, 54
2, 637823, Note_on_c, 0, 52, 45
2, 637825, Note_on_c, 0, 72, 57
2, 637923, Note_off_c, 0, 52, 51
2, 637925, Note_off_c, 0, 72, 54
2, 638019, Note_on_c, 0, 72, 63
2, 638024, Note_on_c, 0, 48, 51
2, 638118, Note_off_c, 0, 48, 52
2, 638120, Note_off_c, 0, 72, 55
2, 638218, Note_on_c, 0, 72, 69
2, 638220, Note_on_c, 0, 50, 57
2, 638314, Note_off_c, 0, 50, 54
2, 638316, Note_on_c, 0, 74, 69
2, 638343, Note_off_c, 0, 72, 57
2, 638413, Note_on_c, 0, 72, 69
2, 638415, Note_on_c, 0, 52, 51
2, 638432, Note_off_c, 0, 74, 57
2, 638494, Note_off_c, 0, 52, 52
2, 638496, Note_on_c, 0, 70, 63
2, 638516, Note_off_c, 0, 72, 57
2, 638571, Note_off_c, 0, 70, 55
2, 638593, Note_on_c, 0, 53, 45
2, 638595, Note_on_c, 0, 69, 57
2, 638689, Note_off_c, 0, 53, 51
2, 638691, Note_off_c, 0, 69, 54
2, 638788, Note_on_c, 0, 55, 45
2, 638790, Note_on_c, 0, 69, 57
2, 638882, Note_off_c, 0, 69, 54
2, 638888, Note_off_c, 0, 55, 51
2, 638984, Note_on_c, 0, 67, 69
2, 638986, Note_on_c, 0, 57, 57
2, 639084, Note_off_c, 0, 57, 54
2, 639087, Note_off_c, 0, 67, 57
2, 639089, Note_on_c, 0, 69, 69
2, 639184, Note_off_c, 0, 69, 57
2, 639186, Note_on_c, 0, 67, 69
2, 639188, Note_on_c, 0, 59, 50
2, 639284, Note_off_c, 0, 59, 52
2, 639286, Note_on_c, 0, 65, 63
2, 639360, Note_off_c, 0, 65, 55
2, 639363, Note_off_c, 0, 67, 57
2, 639365, Note_on_c, 0, 64, 48
2, 639367, Note_on_c, 0, 60, 42
2, 639367, Note_on_c, 0, 72, 57
2, 639460, Note_off_c, 0, 64, 52
2, 639462, Note_off_c, 0, 60, 50
2, 639464, Note_off_c, 0, 72, 54
2, 639553, Note_on_c, 0, 72, 57
2, 639559, Note_on_c, 0, 65, 48
2, 639561, Note_on_c, 0, 62, 42
2, 639655, Note_off_c, 0, 65, 52
2, 639657, Note_off_c, 0, 62, 50
2, 639660, Note_off_c, 0, 72, 54
2, 639754, Note_on_c, 0, 64, 54
2, 639757, Note_on_c, 0, 72, 69
2, 639759, Note_on_c, 0, 67, 60
2, 639848, Note_off_c, 0, 72, 57
2, 639854, Note_off_c, 0, 67, 55
2, 639856, Note_off_c, 0, 64, 53
2, 639954, Note_on_c, 0, 62, 42
2, 639955, Note_on_c, 0, 67, 57
2, 639957, Note_on_c, 0, 65, 48
2, 640050, Note_off_c, 0, 62, 50
2, 640053, Note_off_c, 0, 67, 54
2, 640055, Note_off_c, 0, 65, 52
2, 640127, Note_on_c, 0, 76, 57
2, 640130, Note_on_c, 0, 60, 42
2, 640132, Note_on_c, 0, 64, 48
2, 640224, Note_off_c, 0, 64, 52
2, 640227, Note_off_c, 0, 76, 54
2, 640228, Note_off_c, 0, 60, 50
2, 640326, Note_on_c, 0, 59, 48
2, 640329, Note_on_c, 0, 62, 54
2, 640331, Note_on_c, 0, 76, 63
2, 640422, Note_off_c, 0, 76, 55
2, 640425, Note_off_c, 0, 62, 53
2, 640429, Note_off_c, 0, 59, 52
2, 640520, Note_on_c, 0, 64, 60
2, 640522, Note_on_c, 0, 76, 69
2, 640525, Note_on_c, 0, 60, 54
2, 640624, Note_off_c, 0, 60, 53
2, 640626, Note_off_c, 0, 76, 57
2, 640628, Note_off_c, 0, 64, 55
2, 640722, Note_on_c, 0, 72, 57
2, 640724, Note_on_c, 0, 57, 42
2, 640726, Note_on_c, 0, 60, 48
2, 640817, Note_off_c, 0, 72, 54
2, 640820, Note_off_c, 0, 57, 50
2, 640822, Note_off_c, 0, 60, 52
2, 640918, Note_on_c, 0, 79, 57
2, 640920, Note_on_c, 0, 62, 48
2, 640922, Note_on_c, 0, 59, 42
2, 640998, Note_off_c, 0, 59, 50
2, 641000, Note_off_c, 0, 79, 54
2, 641002, Note_off_c, 0, 62, 52
2, 641093, Note_on_c, 0, 79, 63
2, 641096, Note_on_c, 0, 55, 51
2, 641098, Note_on_c, 0, 59, 54
2, 641194, Note_off_c, 0, 59, 53
2, 641196, Note_off_c, 0, 79, 55
2, 641198, Note_off_c, 0, 55, 52
2, 641292, Note_on_c, 0, 57, 54
2, 641295, Note_on_c, 0, 79, 69
2, 641297, Note_on_c, 0, 60, 60
2, 641392, Note_off_c, 0, 60, 55
2, 641394, Note_off_c, 0, 57, 53
2, 641396, Note_on_c, 0, 81, 69
2, 641408, Note_off_c, 0, 79, 57
2, 641489, Note_on_c, 0, 79, 69
2, 641491, Note_on_c, 0, 62, 53
2, 641493, Note_on_c, 0, 59, 47
2, 641519, Note_off_c, 0, 81, 57
2, 641585, Note_off_c, 0, 62, 53
2, 641587, Note_off_c, 0, 59, 51
2, 641590, Note_on_c, 0, 77, 63
2, 641609, Note_off_c, 0, 79, 57
2, 641645, Note_off_c, 0, 77, 55
2, 641691, Note_on_c, 0, 60, 42
2, 641693, Note_on_c, 0, 76, 63
2, 641695, Note_on_c, 0, 64, 48
2, 641765, Note_off_c, 0, 76, 55
2, 641767, Note_off_c, 0, 64, 52
2, 641769, Note_off_c, 0, 60, 50
2, 641864, Note_on_c, 0, 76, 63
2, 641866, Note_on_c, 0, 65, 54
2, 641868, Note_on_c, 0, 62, 48
2, 641960, Note_off_c, 0, 76, 55
2, 641962, Note_off_c, 0, 65, 53
2, 641964, Note_off_c, 0, 62, 52
2, 642059, Note_on_c, 0, 76, 69
2, 642062, Note_on_c, 0, 67, 60
2, 642065, Note_on_c, 0, 64, 54
2, 642159, Note_off_c, 0, 67, 55
2, 642161, Note_off_c, 0, 64, 53
2, 642163, Note_on_c, 0, 74, 69
2, 642175, Note_off_c, 0, 76, 57
2, 642258, Note_on_c, 0, 76, 65
2, 642260, Note_on_c, 0, 64, 55
2, 642262, Note_on_c, 0, 60, 49
2, 642279, Note_off_c, 0, 74, 57
2, 642357, Note_off_c, 0, 64, 53
2, 642360, Note_off_c, 0, 60, 52
2, 642362, Note_on_c, 0, 72, 61
2, 642382, Note_off_c, 0, 76, 56
2, 642415, Note_off_c, 0, 72, 55
2, 642454, Note_on_c, 0, 81, 57
2, 642456, Note_on_c, 0, 64, 48
2, 642458, Note_on_c, 0, 61, 42
2, 642554, Note_off_c, 0, 61, 50
2, 642556, Note_off_c, 0, 81, 54
2, 642558, Note_off_c, 0, 64, 52
2, 642631, Note_on_c, 0, 81, 63
2, 642633, Note_on_c, 0, 57, 48
2, 642635, Note_on_c, 0, 61, 54
2, 642730, Note_off_c, 0, 61, 53
2, 642732, Note_off_c, 0, 81, 55
2, 642734, Note_off_c, 0, 57, 52
2, 642830, Note_on_c, 0, 81, 69
2, 642832, Note_on_c, 0, 62, 60
2, 642834, Note_on_c, 0, 59, 54
2, 642926, Note_off_c, 0, 62, 55
2, 642928, Note_off_c, 0, 59, 53
2, 642931, Note_on_c, 0, 82, 69
2, 642951, Note_off_c, 0, 81, 57
2, 643024, Note_on_c, 0, 81, 69
2, 643030, Note_on_c, 0, 64, 53
2, 643032, Note_on_c, 0, 61, 47
2, 643051, Note_off_c, 0, 82, 57
2, 643125, Note_off_c, 0, 64, 53
2, 643128, Note_off_c, 0, 61, 51
2, 643129, Note_on_c, 0, 79, 63
2, 643147, Note_off_c, 0, 81, 57
2, 643180, Note_off_c, 0, 79, 55
2, 643222, Note_on_c, 0, 65, 48
2, 643223, Note_on_c, 0, 62, 42
2, 643225, Note_on_c, 0, 77, 57
2, 643320, Note_off_c, 0, 77, 54
2, 643325, Note_off_c, 0, 65, 52
2, 643326, Note_off_c, 0, 62, 50
2, 643401, Note_on_c, 0, 64, 42
2, 643403, Note_on_c, 0, 77, 63
2, 643405, Note_on_c, 0, 67, 57
2, 643495, Note_off_c, 0, 67, 54
2, 643499, Note_off_c, 0, 64, 50
2, 643501, Note_off_c, 0, 77, 55
2, 643597, Note_on_c, 0, 77, 69
2, 643600, Note_on_c, 0, 65, 51
2, 643603, Note_on_c, 0, 69, 60
2, 643693, Note_off_c, 0, 69, 55
2, 643696, Note_off_c, 0, 65, 52
2, 643699, Note_on_c, 0, 76, 69
2, 643719, Note_off_c, 0, 77, 57
2, 643796, Note_on_c, 0, 65, 48
2, 643797, Note_on_c, 0, 77, 73
2, 643800, Note_on_c, 0, 62, 42
2, 643816, Note_off_c, 0, 76, 57
2, 643895, Note_off_c, 0, 62, 50
2, 643897, Note_off_c, 0, 65, 52
2, 643898, Note_on_c, 0, 74, 77
2, 643913, Note_off_c, 0, 77, 58
2, 643972, Note_off_c, 0, 74, 59
2, 643990, Note_on_c, 0, 62, 66
2, 643992, Note_on_c, 0, 89, 105
2, 643997, Note_on_c, 0, 59, 63
2, 643999, Note_on_c, 0, 67, 69
2, 644091, Note_off_c, 0, 62, 56
2, 644093, Note_off_c, 0, 89, 66
2, 644095, Note_off_c, 0, 67, 57
2, 644100, Note_off_c, 0, 59, 55
2, 644184, Note_on_c, 0, 67, 44
2, 644190, Note_on_c, 0, 89, 57
2, 644192, Note_on_c, 0, 62, 42
2, 644194, Note_on_c, 0, 59, 40
2, 644268, Note_off_c, 0, 89, 54
2, 644287, Note_off_c, 0, 62, 50
2, 644289, Note_off_c, 0, 67, 51
2, 644302, Note_off_c, 0, 59, 50
2, 644359, Note_on_c, 0, 67, 51
2, 644364, Note_on_c, 0, 60, 46
2, 644367, Note_on_c, 0, 88, 63
2, 644373, Note_on_c, 0, 64, 48
2, 644467, Note_on_c, 0, 87, 63
2, 644491, Note_off_c, 0, 88, 55
2, 644493, Note_off_c, 0, 67, 52
2, 644498, Note_off_c, 0, 64, 52
2, 644508, Note_off_c, 0, 60, 51
2, 644569, Note_on_c, 0, 88, 63
2, 644590, Note_off_c, 0, 87, 55
2, 644663, Note_on_c, 0, 84, 63
2, 644682, Note_off_c, 0, 88, 55
2, 644743, Note_off_c, 0, 84, 55
2, 644763, Note_on_c, 0, 89, 105
2, 644765, Note_on_c, 0, 67, 68
2, 644767, Note_on_c, 0, 59, 63
2, 644767, Note_on_c, 0, 62, 66
2, 644854, Note_off_c, 0, 67, 57
2, 644856, Note_off_c, 0, 89, 66
2, 644860, Note_off_c, 0, 62, 56
2, 644863, Note_off_c, 0, 59, 55
2, 644952, Note_on_c, 0, 67, 45
2, 644956, Note_on_c, 0, 62, 42
2, 644961, Note_on_c, 0, 89, 57
2, 644963, Note_on_c, 0, 59, 40
2, 645038, Note_off_c, 0, 89, 54
2, 645060, Note_off_c, 0, 62, 50
2, 645062, Note_off_c, 0, 59, 50
2, 645066, Note_off_c, 0, 67, 51
2, 645129, Note_on_c, 0, 67, 51
2, 645132, Note_on_c, 0, 60, 45
2, 645134, Note_on_c, 0, 88, 63
2, 645136, Note_on_c, 0, 64, 48
2, 645230, Note_on_c, 0, 87, 62
2, 645252, Note_off_c, 0, 88, 55
2, 645255, Note_off_c, 0, 60, 51
2, 645265, Note_off_c, 0, 64, 52
2, 645275, Note_off_c, 0, 67, 52
2, 645336, Note_on_c, 0, 88, 61
2, 645361, Note_off_c, 0, 87, 55
2, 645432, Note_on_c, 0, 84, 60
2, 645451, Note_off_c, 0, 88, 55
2, 645506, Note_off_c, 0, 84, 55
2, 645526, Note_on_c, 0, 86, 53
2, 645535, Note_on_c, 0, 62, 44
2, 645537, Note_on_c, 0, 57, 42
2, 645539, Note_on_c, 0, 53, 41
2, 645628, Note_on_c, 0, 84, 52
2, 645652, Note_off_c, 0, 53, 50
2, 645657, Note_off_c, 0, 57, 50
2, 645659, Note_off_c, 0, 86, 53
2, 645662, Note_off_c, 0, 62, 51
2, 645727, Note_on_c, 0, 83, 51
2, 645756, Note_off_c, 0, 84, 53
2, 645802, Note_on_c, 0, 81, 50
2, 645830, Note_off_c, 0, 83, 52
2, 645902, Note_on_c, 0, 59, 48
2, 645904, Note_on_c, 0, 79, 49
2, 645906, Note_on_c, 0, 62, 50
2, 645908, Note_on_c, 0, 55, 47
2, 645928, Note_off_c, 0, 81, 52
2, 646003, Note_on_c, 0, 77, 48
2, 646005, Note_off_c, 0, 59, 52
2, 646019, Note_off_c, 0, 62, 52
2, 646020, Note_off_c, 0, 79, 52
2, 646025, Note_off_c, 0, 55, 51
2, 646106, Note_on_c, 0, 76, 47
2, 646125, Note_off_c, 0, 77, 52
2, 646197, Note_on_c, 0, 74, 45
2, 646226, Note_off_c, 0, 76, 51
2, 646277, Note_off_c, 0, 74, 51
2, 646296, Note_on_c, 0, 60, 56
2, 646298, Note_on_c, 0, 48, 51
2, 646300, Note_on_c, 0, 72, 45
2, 646302, Note_on_c, 0, 52, 52
2, 646302, Note_on_c, 0, 55, 55
2, 646398, Note_on_c, 0, 71, 47
2, 646415, Note_off_c, 0, 72, 51
2, 646493, Note_on_c, 0, 72, 49
2, 646519, Note_off_c, 0, 71, 51
2, 646591, Note_on_c, 0, 74, 51
2, 646613, Note_off_c, 0, 72, 52
2, 646664, Note_off_c, 0, 55, 53
2, 646667, Note_off_c, 0, 60, 54
2, 646672, Note_off_c, 0, 52, 53
2, 646674, Note_off_c, 0, 48, 52
2, 646676, Note_on_c, 0, 76, 53
2, 646700, Note_off_c, 0, 74, 52
2, 646770, Note_on_c, 0, 77, 55
2, 646802, Note_off_c, 0, 76, 53
2, 646867, Note_on_c, 0, 79, 57
2, 646893, Note_off_c, 0, 77, 53
2, 646968, Note_on_c, 0, 76, 57
2, 646997, Note_off_c, 0, 79, 54
2, 647047, Note_off_c, 0, 76, 54
2, 647061, Note_on_c, 0, 50, 64
2, 647066, Note_on_c, 0, 77, 87
2, 647067, Note_on_c, 0, 53, 66
2, 647069, Note_on_c, 0, 47, 62
2, 647071, Note_on_c, 0, 55, 69
2, 647163, Note_on_c, 0, 74, 63
2, 647166, Note_off_c, 0, 47, 55
2, 647176, Note_off_c, 0, 50, 56
2, 647178, Note_off_c, 0, 53, 56
2, 647188, Note_off_c, 0, 77, 61
2, 647205, Note_off_c, 0, 55, 57
2, 647258, Note_on_c, 0, 53, 61
2, 647260, Note_on_c, 0, 47, 56
2, 647263, Note_on_c, 0, 77, 63
2, 647272, Note_off_c, 0, 74, 55
2, 647273, Note_on_c, 0, 50, 58
2, 647275, Note_on_c, 0, 55, 62
2, 647359, Note_off_c, 0, 47, 54
2, 647364, Note_off_c, 0, 53, 55
2, 647366, Note_on_c, 0, 74, 61
2, 647368, Note_off_c, 0, 55, 55
2, 647376, Note_off_c, 0, 50, 54
2, 647383, Note_off_c, 0, 77, 55
2, 647437, Note_on_c, 0, 55, 50
2, 647441, Note_on_c, 0, 76, 59
2, 647443, Note_on_c, 0, 48, 45
2, 647444, Note_on_c, 0, 52, 48
2, 647448, Note_off_c, 0, 74, 55
2, 647539, Note_on_c, 0, 75, 56
2, 647561, Note_off_c, 0, 55, 52
2, 647563, Note_off_c, 0, 48, 51
2, 647565, Note_off_c, 0, 76, 54
2, 647584, Note_off_c, 0, 52, 52
2, 647640, Note_on_c, 0, 76, 54
2, 647666, Note_off_c, 0, 75, 54
2, 647737, Note_on_c, 0, 72, 51
2, 647759, Note_off_c, 0, 76, 53
2, 647817, Note_off_c, 0, 72, 52
2, 647832, Note_on_c, 0, 53, 67
2, 647834, Note_on_c, 0, 77, 87
2, 647836, Note_on_c, 0, 55, 69
2, 647839, Note_on_c, 0, 50, 65
2, 647840, Note_on_c, 0, 47, 63
2, 647933, Note_on_c, 0, 74, 63
2, 647936, Note_off_c, 0, 55, 57
2, 647944, Note_off_c, 0, 53, 57
2, 647952, Note_off_c, 0, 50, 56
2, 647961, Note_off_c, 0, 77, 61
2, 647965, Note_off_c, 0, 47, 55
2, 648024, Note_on_c, 0, 55, 62
2, 648030, Note_on_c, 0, 77, 63
2, 648035, Note_on_c, 0, 47, 56
2, 648038, Note_on_c, 0, 53, 61
2, 648041, Note_off_c, 0, 74, 55
2, 648043, Note_on_c, 0, 50, 58
2, 648121, Note_off_c, 0, 55, 55
2, 648129, Note_off_c, 0, 47, 54
2, 648131, Note_on_c, 0, 74, 61
2, 648141, Note_off_c, 0, 53, 55
2, 648148, Note_off_c, 0, 77, 55
2, 648150, Note_off_c, 0, 50, 54
2, 648218, Note_off_c, 0, 74, 55
2, 648225, Note_on_c, 0, 55, 51
2, 648227, Note_on_c, 0, 52, 49
2, 648232, Note_on_c, 0, 76, 59
2, 648234, Note_on_c, 0, 48, 44
2, 648309, Note_on_c, 0, 75, 56
2, 648324, Note_off_c, 0, 76, 54
2, 648337, Note_off_c, 0, 55, 52
2, 648343, Note_off_c, 0, 48, 51
2, 648345, Note_off_c, 0, 52, 52
2, 648411, Note_on_c, 0, 76, 54
2, 648433, Note_off_c, 0, 75, 54
2, 648504, Note_on_c, 0, 72, 51
2, 648532, Note_off_c, 0, 76, 53
2, 648582, Note_off_c, 0, 72, 52
2, 648604, Note_on_c, 0, 81, 81
2, 648606, Note_on_c, 0, 41, 69
2, 648702, Note_on_c, 0, 80, 81
2, 648722, Note_off_c, 0, 41, 57
2, 648728, Note_off_c, 0, 81, 60
2, 648803, Note_on_c, 0, 81, 80
2, 648805, Note_on_c, 0, 53, 67
2, 648827, Note_off_c, 0, 80, 60
2, 648899, Note_off_c, 0, 53, 57
2, 648901, Note_on_c, 0, 80, 78
2, 648919, Note_off_c, 0, 81, 60
2, 648987, Note_off_c, 0, 80, 59
2, 648996, Note_on_c, 0, 81, 76
2, 648998, Note_on_c, 0, 53, 63
2, 649075, Note_on_c, 0, 79, 74
2, 649101, Note_off_c, 0, 81, 59
2, 649105, Note_off_c, 0, 53, 55
2, 649173, Note_on_c, 0, 77, 72
2, 649175, Note_on_c, 0, 53, 59
2, 649177, Note_off_c, 0, 79, 59
2, 649274, Note_on_c, 0, 76, 70
2, 649283, Note_off_c, 0, 53, 54
2, 649295, Note_off_c, 0, 77, 58
2, 649371, Note_on_c, 0, 74, 69
2, 649373, Note_on_c, 0, 43, 55
2, 649382, Note_off_c, 0, 76, 57
2, 649473, Note_on_c, 0, 72, 67
2, 649485, Note_off_c, 0, 43, 53
2, 649489, Note_off_c, 0, 74, 57
2, 649566, Note_on_c, 0, 71, 65
2, 649569, Note_on_c, 0, 55, 51
2, 649586, Note_off_c, 0, 72, 57
2, 649667, Note_on_c, 0, 69, 63
2, 649678, Note_off_c, 0, 55, 52
2, 649688, Note_off_c, 0, 71, 56
2, 649765, Note_off_c, 0, 69, 55
2, 649767, Note_on_c, 0, 67, 61
2, 649769, Note_on_c, 0, 55, 47
2, 649861, Note_on_c, 0, 65, 59
2, 649863, Note_off_c, 0, 55, 51
2, 649881, Note_off_c, 0, 67, 55
2, 649938, Note_on_c, 0, 55, 45
2, 649940, Note_on_c, 0, 64, 57
2, 649944, Note_off_c, 0, 65, 54
2, 650045, Note_on_c, 0, 62, 57
2, 650069, Note_off_c, 0, 64, 54
2, 650135, Note_off_c, 0, 55, 51
2, 650144, Note_off_c, 0, 62, 54
2, 650146, Note_on_c, 0, 60, 37
2, 650148, Note_on_c, 0, 48, 32
2, 650150, Note_on_c, 0, 36, 36
2, 650235, Note_off_c, 0, 60, 49
2, 650236, Note_off_c, 0, 48, 48
2, 650337, Note_on_c, 0, 52, 35
2, 650338, Note_on_c, 0, 48, 32
2, 650340, Note_on_c, 0, 55, 37
2, 650416, Note_off_c, 0, 48, 48
2, 650418, Note_off_c, 0, 55, 49
2, 650424, Note_off_c, 0, 52, 48
2, 650531, Note_on_c, 0, 55, 41
2, 650536, Note_on_c, 0, 52, 39
2, 650537, Note_on_c, 0, 48, 37
2, 650611, Note_off_c, 0, 55, 50
2, 650612, Note_off_c, 0, 48, 49
2, 650615, Note_off_c, 0, 52, 49
2, 650710, Note_on_c, 0, 60, 45
2, 650712, Note_on_c, 0, 52, 43
2, 650713, Note_on_c, 0, 43, 41
2, 650723, Note_off_c, 0, 36, 49
2, 650781, Note_off_c, 0, 52, 50
2, 650794, Note_off_c, 0, 60, 51
2, 650797, Note_off_c, 0, 43, 50
2, 650906, Note_on_c, 0, 52, 35
2, 650908, Note_on_c, 0, 48, 32
2, 650910, Note_on_c, 0, 36, 36
2, 650911, Note_on_c, 0, 55, 37
2, 650983, Note_off_c, 0, 48, 48
2, 650984, Note_off_c, 0, 55, 49
2, 650994, Note_off_c, 0, 52, 48
2, 651105, Note_on_c, 0, 55, 37
2, 651107, Note_on_c, 0, 52, 35
2, 651109, Note_on_c, 0, 48, 32
2, 651182, Note_off_c, 0, 48, 48
2, 651184, Note_off_c, 0, 52, 48
2, 651189, Note_off_c, 0, 55, 49
2, 651304, Note_on_c, 0, 55, 43
2, 651306, Note_on_c, 0, 52, 41
2, 651308, Note_on_c, 0, 48, 38
2, 651381, Note_off_c, 0, 55, 50
2, 651383, Note_off_c, 0, 48, 49
2, 651385, Note_off_c, 0, 52, 50
2, 651496, Note_on_c, 0, 60, 49
2, 651498, Note_on_c, 0, 52, 47
2, 651503, Note_on_c, 0, 43, 43
2, 651563, Note_off_c, 0, 60, 52
2, 651565, Note_off_c, 0, 52, 51
2, 651567, Note_off_c, 0, 36, 49
2, 651569, Note_off_c, 0, 43, 50
2, 651676, Note_on_c, 0, 55, 45
2, 651678, Note_on_c, 0, 53, 43
2, 651680, Note_on_c, 0, 50, 41
2, 651682, Note_on_c, 0, 36, 45
2, 651756, Note_off_c, 0, 53, 50
2, 651760, Note_off_c, 0, 50, 50
2, 651761, Note_off_c, 0, 55, 51
2, 651871, Note_on_c, 0, 53, 43
2, 651873, Note_on_c, 0, 48, 41
2, 651875, Note_on_c, 0, 62, 54
2, 651953, Note_off_c, 0, 53, 50
2, 651954, Note_off_c, 0, 48, 50
2, 651957, Note_off_c, 0, 62, 53
2, 652067, Note_on_c, 0, 62, 59
2, 652074, Note_on_c, 0, 53, 49
2, 652076, Note_on_c, 0, 47, 47
2, 652148, Note_off_c, 0, 53, 52
2, 652153, Note_off_c, 0, 62, 54
2, 652158, Note_off_c, 0, 47, 51
2, 652267, Note_on_c, 0, 62, 64
2, 652269, Note_on_c, 0, 53, 55
2, 652271, Note_on_c, 0, 45, 53
2, 652326, Note_off_c, 0, 62, 56
2, 652327, Note_off_c, 0, 53, 53
2, 652334, Note_off_c, 0, 45, 53
2, 652444, Note_on_c, 0, 43, 53
2, 652446, Note_on_c, 0, 62, 69
2, 652448, Note_on_c, 0, 53, 55
2, 652537, Note_off_c, 0, 62, 57
2, 652549, Note_off_c, 0, 53, 53
2, 652626, Note_off_c, 0, 43, 53
2, 652642, Note_on_c, 0, 45, 53
2, 652644, Note_on_c, 0, 53, 55
2, 652646, Note_on_c, 0, 62, 69
2, 652734, Note_off_c, 0, 53, 53
2, 652736, Note_off_c, 0, 62, 57
2, 652817, Note_off_c, 0, 36, 51
2, 652820, Note_off_c, 0, 45, 53
2, 652837, Note_on_c, 0, 47, 49
2, 652839, Note_on_c, 0, 53, 51
2, 652841, Note_on_c, 0, 62, 65
2, 652935, Note_off_c, 0, 53, 52
2, 652937, Note_on_c, 0, 64, 63
2, 652940, Note_off_c, 0, 62, 56
2, 653017, Note_off_c, 0, 47, 52
2, 653019, Note_off_c, 0, 64, 55
2, 653036, Note_on_c, 0, 62, 61
2, 653038, Note_on_c, 0, 53, 47
2, 653040, Note_on_c, 0, 43, 45
2, 653133, Note_on_c, 0, 64, 59
2, 653147, Note_off_c, 0, 62, 55
2, 653176, Note_off_c, 0, 53, 51
2, 653193, Note_off_c, 0, 64, 54
2, 653213, Note_off_c, 0, 43, 51
2, 653216, Note_on_c, 0, 60, 56
2, 653218, Note_on_c, 0, 52, 41
2, 653220, Note_on_c, 0, 36, 45
2, 653222, Note_on_c, 0, 48, 36
2, 653293, Note_off_c, 0, 52, 50
2, 653297, Note_off_c, 0, 60, 54
2, 653307, Note_off_c, 0, 48, 49
2, 653404, Note_on_c, 0, 55, 44
2, 653412, Note_on_c, 0, 52, 40
2, 653415, Note_on_c, 0, 48, 37
2, 653476, Note_off_c, 0, 55, 51
2, 653489, Note_off_c, 0, 52, 50
2, 653494, Note_off_c, 0, 48, 49
2, 653607, Note_on_c, 0, 55, 51
2, 653613, Note_on_c, 0, 52, 47
2, 653615, Note_on_c, 0, 48, 43
2, 653684, Note_off_c, 0, 55, 52
2, 653686, Note_off_c, 0, 48, 50
2, 653693, Note_off_c, 0, 52, 51
2, 653802, Note_on_c, 0, 43, 48
2, 653804, Note_on_c, 0, 60, 63
2, 653806, Note_on_c, 0, 52, 52
2, 653866, Note_off_c, 0, 36, 51
2, 653873, Note_off_c, 0, 52, 53
2, 653884, Note_off_c, 0, 60, 55
2, 653889, Note_off_c, 0, 43, 52
2, 653978, Note_on_c, 0, 48, 49
2, 653983, Note_on_c, 0, 36, 57
2, 653984, Note_on_c, 0, 55, 56
2, 653986, Note_on_c, 0, 52, 52
2, 654050, Note_off_c, 0, 55, 54
2, 654054, Note_off_c, 0, 48, 52
2, 654066, Note_off_c, 0, 52, 53
2, 654179, Note_on_c, 0, 52, 52
2, 654182, Note_on_c, 0, 48, 48
2, 654183, Note_on_c, 0, 55, 57
2, 654253, Note_off_c, 0, 48, 52
2, 654257, Note_off_c, 0, 55, 54
2, 654260, Note_off_c, 0, 52, 53
2, 654378, Note_on_c, 0, 55, 51
2, 654380, Note_on_c, 0, 48, 43
2, 654381, Note_on_c, 0, 52, 46
2, 654448, Note_off_c, 0, 55, 52
2, 654457, Note_off_c, 0, 48, 50
2, 654461, Note_off_c, 0, 52, 51
2, 654563, Note_off_c, 0, 36, 54
2, 654572, Note_on_c, 0, 43, 40
2, 654574, Note_on_c, 0, 60, 68
2, 654576, Note_on_c, 0, 52, 42
2, 654644, Note_off_c, 0, 43, 50
2, 654646, Note_off_c, 0, 52, 50
2, 654659, Note_off_c, 0, 60, 57
2, 654766, Note_on_c, 0, 53, 43
2, 654768, Note_on_c, 0, 50, 40
2, 654772, Note_on_c, 0, 55, 44
2, 654774, Note_on_c, 0, 36, 45
2, 654824, Note_off_c, 0, 55, 51
2, 654831, Note_off_c, 0, 50, 50
2, 654833, Note_off_c, 0, 53, 50
2, 654947, Note_on_c, 0, 62, 56
2, 654949, Note_on_c, 0, 53, 44
2, 654951, Note_on_c, 0, 48, 43
2, 655018, Note_off_c, 0, 53, 51
2, 655024, Note_off_c, 0, 48, 50
2, 655026, Note_off_c, 0, 62, 54
2, 655139, Note_on_c, 0, 53, 49
2, 655141, Note_on_c, 0, 62, 56
2, 655143, Note_on_c, 0, 47, 46
2, 655218, Note_off_c, 0, 62, 54
2, 655220, Note_off_c, 0, 53, 52
2, 655226, Note_off_c, 0, 47, 51
2, 655335, Note_on_c, 0, 45, 50
2, 655345, Note_on_c, 0, 62, 59
2, 655347, Note_on_c, 0, 53, 53
2, 655411, Note_off_c, 0, 45, 52
2, 655419, Note_off_c, 0, 62, 54
2, 655429, Note_off_c, 0, 53, 53
2, 655532, Note_on_c, 0, 62, 63
2, 655534, Note_on_c, 0, 53, 63
2, 655539, Note_on_c, 0, 43, 54
2, 655603, Note_off_c, 0, 62, 55
2, 655605, Note_off_c, 0, 53, 55
2, 655700, Note_off_c, 0, 43, 53
2, 655712, Note_on_c, 0, 53, 66
2, 655714, Note_on_c, 0, 62, 66
2, 655716, Note_on_c, 0, 45, 54
2, 655791, Note_off_c, 0, 62, 56
2, 655808, Note_off_c, 0, 53, 56
2, 655890, Note_off_c, 0, 45, 53
2, 655912, Note_on_c, 0, 62, 69
2, 655914, Note_on_c, 0, 53, 69
2, 655916, Note_on_c, 0, 47, 54
2, 655990, Note_off_c, 0, 62, 57
2, 656009, Note_off_c, 0, 53, 57
2, 656014, Note_on_c, 0, 64, 69
2, 656047, Note_off_c, 0, 36, 51
2, 656101, Note_off_c, 0, 64, 57
2, 656108, Note_on_c, 0, 53, 68
2, 656111, Note_off_c, 0, 47, 53
2, 656113, Note_on_c, 0, 62, 67
2, 656120, Note_on_c, 0, 43, 54
2, 656203, Note_off_c, 0, 53, 57
2, 656208, Note_on_c, 0, 64, 66
2, 656218, Note_off_c, 0, 62, 57
2, 656268, Note_off_c, 0, 64, 56
2, 656301, Note_on_c, 0, 60, 66
2, 656304, Note_on_c, 0, 48, 52
2, 656310, Note_off_c, 0, 43, 53
2, 656312, Note_on_c, 0, 36, 57
2, 656314, Note_on_c, 0, 52, 55
2, 656396, Note_off_c, 0, 60, 56
2, 656506, Note_on_c, 0, 43, 52
2, 656508, Note_on_c, 0, 55, 54
2, 656597, Note_off_c, 0, 48, 53
2, 656599, Note_off_c, 0, 36, 54
2, 656601, Note_off_c, 0, 55, 53
2, 656607, Note_off_c, 0, 52, 53
2, 656699, Note_on_c, 0, 52, 48
2, 656701, Note_on_c, 0, 60, 61
2, 656705, Note_on_c, 0, 36, 51
2, 656707, Note_on_c, 0, 48, 47
2, 656789, Note_off_c, 0, 60, 55
2, 656800, Note_off_c, 0, 43, 53
2, 656898, Note_on_c, 0, 43, 45
2, 656900, Note_on_c, 0, 55, 48
2, 656982, Note_off_c, 0, 52, 52
2, 656983, Note_off_c, 0, 48, 51
2, 656993, Note_off_c, 0, 36, 52
2, 656996, Note_off_c, 0, 55, 52
2, 657092, Note_on_c, 0, 60, 62
2, 657094, Note_on_c, 0, 48, 51
2, 657096, Note_on_c, 0, 36, 45
2, 657100, Note_on_c, 0, 52, 51
2, 657184, Note_off_c, 0, 43, 51
2, 657512, Note_off_c, 0, 36, 51
2, 657514, Note_off_c, 0, 48, 52
2, 657515, Note_off_c, 0, 52, 52
2, 657549, Note_off_c, 0, 60, 55
2, 657726, Note_on_c, 0, 51, 76
2, 657732, Note_on_c, 0, 39, 80
2, 657925, Note_on_c, 0, 56, 92
2, 657926, Note_on_c, 0, 44, 88
2, 657932, Note_off_c, 0, 39, 60
2, 657935, Note_off_c, 0, 51, 59
2, 657997, Note_off_c, 0, 56, 62
2, 657998, Note_off_c, 0, 44, 62
2, 658100, Note_on_c, 0, 44, 65
2, 658106, Note_on_c, 0, 56, 68
2, 658192, Note_off_c, 0, 56, 57
2, 658200, Note_off_c, 0, 44, 56
2, 658231, Note_on_c, 0, 46, 65
2, 658244, Note_on_c, 0, 58, 69
2, 658289, Note_off_c, 0, 46, 56
2, 658294, Note_on_c, 0, 56, 70
2, 658298, Note_off_c, 0, 58, 57
2, 658301, Note_on_c, 0, 44, 64
2, 658397, Note_on_c, 0, 55, 73
2, 658399, Note_on_c, 0, 43, 69
2, 658410, Note_off_c, 0, 56, 57
2, 658431, Note_off_c, 0, 44, 56
2, 658496, Note_on_c, 0, 44, 74
2, 658500, Note_on_c, 0, 56, 76
2, 658527, Note_off_c, 0, 55, 58
2, 658529, Note_off_c, 0, 43, 57
2, 658596, Note_on_c, 0, 58, 81
2, 658603, Note_on_c, 0, 46, 76
2, 658621, Note_off_c, 0, 44, 59
2, 658628, Note_off_c, 0, 56, 59
2, 658686, Note_off_c, 0, 58, 60
2, 658693, Note_on_c, 0, 48, 76
2, 658695, Note_on_c, 0, 60, 93
2, 658705, Note_off_c, 0, 46, 59
2, 658769, Note_off_c, 0, 60, 63
2, 658781, Note_off_c, 0, 48, 59
2, 658873, Note_on_c, 0, 48, 52
2, 658876, Note_on_c, 0, 60, 68
2, 658964, Note_off_c, 0, 60, 57
2, 658971, Note_off_c, 0, 48, 53
2, 659002, Note_on_c, 0, 49, 52
2, 659004, Note_on_c, 0, 61, 69
2, 659064, Note_off_c, 0, 49, 53
2, 659067, Note_on_c, 0, 60, 70
2, 659070, Note_on_c, 0, 48, 53
2, 659072, Note_off_c, 0, 61, 57
2, 659168, Note_on_c, 0, 47, 59
2, 659170, Note_on_c, 0, 59, 73
2, 659184, Note_off_c, 0, 48, 53
2, 659197, Note_off_c, 0, 60, 57
2, 659258, Note_on_c, 0, 60, 77
2, 659268, Note_on_c, 0, 48, 65
2, 659287, Note_off_c, 0, 59, 58
2, 659293, Note_off_c, 0, 47, 54
2, 659365, Note_on_c, 0, 61, 80
2, 659370, Note_on_c, 0, 49, 65
2, 659384, Note_off_c, 0, 60, 59
2, 659402, Note_off_c, 0, 48, 56
2, 659417, Note_off_c, 0, 61, 60
2, 659429, Note_off_c, 0, 49, 56
2, 659459, Note_on_c, 0, 51, 81
2, 659461, Note_on_c, 0, 63, 92
2, 659549, Note_off_c, 0, 51, 60
2, 659551, Note_off_c, 0, 63, 62
2, 659633, Note_on_c, 0, 51, 57
2, 659640, Note_on_c, 0, 63, 68
2, 659724, Note_off_c, 0, 51, 54
2, 659737, Note_off_c, 0, 63, 57
2, 659774, Note_on_c, 0, 53, 57
2, 659776, Note_on_c, 0, 65, 68
2, 659829, Note_on_c, 0, 63, 68
2, 659835, Note_off_c, 0, 53, 54
2, 659837, Note_off_c, 0, 65, 57
2, 659839, Note_on_c, 0, 51, 56
2, 659930, Note_on_c, 0, 50, 63
2, 659940, Note_on_c, 0, 62, 73
2, 659958, Note_off_c, 0, 63, 57
2, 659967, Note_off_c, 0, 51, 54
2, 660031, Note_on_c, 0, 63, 77
2, 660036, Note_on_c, 0, 51, 69
2, 660066, Note_off_c, 0, 50, 55
2, 660068, Note_off_c, 0, 62, 58
2, 660130, Note_on_c, 0, 53, 69
2, 660135, Note_on_c, 0, 65, 81
2, 660143, Note_off_c, 0, 63, 59
2, 660168, Note_off_c, 0, 51, 57
2, 660204, Note_off_c, 0, 65, 60
2, 660206, Note_off_c, 0, 53, 57
2, 660223, Note_on_c, 0, 55, 80
2, 660229, Note_on_c, 0, 67, 92
2, 660315, Note_off_c, 0, 67, 62
2, 660316, Note_off_c, 0, 55, 60
2, 660403, Note_on_c, 0, 67, 68
2, 660408, Note_on_c, 0, 55, 57
2, 660506, Note_off_c, 0, 67, 57
2, 660516, Note_off_c, 0, 55, 54
2, 660598, Note_on_c, 0, 67, 68
2, 660602, Note_on_c, 0, 55, 57
2, 660706, Note_on_c, 0, 63, 76
2, 660708, Note_on_c, 0, 51, 65
2, 660720, Note_off_c, 0, 67, 57
2, 660740, Note_off_c, 0, 55, 54
2, 660804, Note_on_c, 0, 65, 80
2, 660809, Note_on_c, 0, 53, 72
2, 660831, Note_off_c, 0, 63, 59
2, 660839, Note_off_c, 0, 51, 56
2, 660895, Note_on_c, 0, 67, 83
2, 660905, Note_on_c, 0, 55, 72
2, 660930, Note_off_c, 0, 53, 58
2, 660932, Note_off_c, 0, 65, 60
2, 660965, Note_off_c, 0, 67, 60
2, 660974, Note_off_c, 0, 55, 58
2, 660994, Note_on_c, 0, 56, 83
2, 661003, Note_on_c, 0, 68, 84
2, 661085, Note_off_c, 0, 56, 60
2, 661092, Note_off_c, 0, 68, 61
2, 661095, Note_on_c, 0, 60, 35
2, 661190, Note_on_c, 0, 68, 47
2, 661195, Note_on_c, 0, 56, 35
2, 661197, Note_off_c, 0, 60, 48
2, 661265, Note_off_c, 0, 68, 51
2, 661273, Note_off_c, 0, 56, 48
2, 661279, Note_on_c, 0, 60, 36
2, 661370, Note_off_c, 0, 60, 49
2, 661371, Note_on_c, 0, 68, 47
2, 661375, Note_on_c, 0, 56, 40
2, 661469, Note_off_c, 0, 56, 50
2, 661471, Note_off_c, 0, 68, 51
2, 661473, Note_on_c, 0, 60, 39
2, 661564, Note_off_c, 0, 60, 49
2, 661570, Note_on_c, 0, 63, 54
2, 661572, Note_on_c, 0, 56, 42
2, 661667, Note_off_c, 0, 63, 53
2, 661673, Note_on_c, 0, 60, 45
2, 661678, Note_off_c, 0, 56, 50
2, 661764, Note_on_c, 0, 56, 48
2, 661766, Note_on_c, 0, 72, 60
2, 661767, Note_off_c, 0, 60, 51
2, 661860, Note_off_c, 0, 72, 55
2, 661868, Note_off_c, 0, 56, 52
2, 661869, Note_on_c, 0, 60, 47
2, 661963, Note_on_c, 0, 72, 60
2, 661965, Note_off_c, 0, 60, 51
2, 661968, Note_on_c, 0, 56, 46
2, 662034, Note_off_c, 0, 56, 51
2, 662037, Note_off_c, 0, 72, 55
2, 662042, Note_on_c, 0, 60, 44
2, 662133, Note_on_c, 0, 56, 43
2, 662138, Note_on_c, 0, 72, 54
2, 662150, Note_off_c, 0, 60, 51
2, 662230, Note_off_c, 0, 72, 53
2, 662244, Note_off_c, 0, 56, 50
2, 662248, Note_on_c, 0, 60, 41
2, 662332, Note_on_c, 0, 68, 47
2, 662337, Note_off_c, 0, 60, 50
2, 662342, Note_on_c, 0, 56, 35
2, 662439, Note_off_c, 0, 68, 51
2, 662441, Note_on_c, 0, 60, 35
2, 662445, Note_off_c, 0, 56, 48
2, 662529, Note_off_c, 0, 60, 48
2, 662530, Note_on_c, 0, 75, 47
2, 662539, Note_on_c, 0, 56, 36
2, 662628, Note_off_c, 0, 75, 51
2, 662640, Note_on_c, 0, 58, 39
2, 662648, Note_off_c, 0, 56, 49
2, 662729, Note_on_c, 0, 56, 41
2, 662736, Note_on_c, 0, 75, 56
2, 662744, Note_off_c, 0, 58, 49
2, 662819, Note_off_c, 0, 56, 50
2, 662832, Note_off_c, 0, 75, 54
2, 662834, Note_on_c, 0, 58, 44
2, 662904, Note_on_c, 0, 56, 47
2, 662906, Note_off_c, 0, 58, 51
2, 662909, Note_on_c, 0, 75, 60
2, 662995, Note_off_c, 0, 56, 51
2, 663006, Note_on_c, 0, 77, 59
2, 663014, Note_on_c, 0, 58, 47
2, 663039, Note_off_c, 0, 75, 55
2, 663106, Note_on_c, 0, 75, 55
2, 663108, Note_off_c, 0, 58, 51
2, 663110, Note_on_c, 0, 56, 43
2, 663130, Note_off_c, 0, 77, 54
2, 663201, Note_off_c, 0, 56, 50
2, 663207, Note_on_c, 0, 74, 51
2, 663211, Note_on_c, 0, 58, 40
2, 663228, Note_off_c, 0, 75, 53
2, 663290, Note_off_c, 0, 74, 52
2, 663302, Note_on_c, 0, 55, 39
2, 663304, Note_on_c, 0, 51, 31
2, 663307, Note_on_c, 0, 75, 48
2, 663312, Note_off_c, 0, 58, 50
2, 663395, Note_off_c, 0, 75, 52
2, 663400, Note_off_c, 0, 55, 49
2, 663403, Note_on_c, 0, 58, 35
2, 663407, Note_off_c, 0, 51, 47
2, 663496, Note_off_c, 0, 58, 48
2, 663500, Note_on_c, 0, 75, 52
2, 663502, Note_on_c, 0, 51, 38
2, 663504, Note_on_c, 0, 55, 43
2, 663593, Note_off_c, 0, 75, 53
2, 663598, Note_off_c, 0, 55, 50
2, 663599, Note_off_c, 0, 51, 49
2, 663601, Note_on_c, 0, 58, 44
2, 663691, Note_on_c, 0, 75, 60
2, 663698, Note_off_c, 0, 58, 51
2, 663704, Note_on_c, 0, 55, 50
2, 663707, Note_on_c, 0, 51, 42
2, 663794, Note_off_c, 0, 51, 50
2, 663796, Note_on_c, 0, 77, 59
2, 663798, Note_on_c, 0, 58, 47
2, 663809, Note_off_c, 0, 55, 52
2, 663812, Note_off_c, 0, 75, 55
2, 663888, Note_off_c, 0, 58, 51
2, 663897, Note_on_c, 0, 51, 36
2, 663900, Note_on_c, 0, 75, 53
2, 663902, Note_on_c, 0, 55, 44
2, 663922, Note_off_c, 0, 77, 54
2, 663991, Note_on_c, 0, 58, 35
2, 663993, Note_off_c, 0, 55, 51
2, 663996, Note_off_c, 0, 51, 49
2, 663999, Note_on_c, 0, 73, 48
2, 664033, Note_off_c, 0, 75, 53
2, 664052, Note_off_c, 0, 73, 52
2, 664079, Note_off_c, 0, 58, 48
2, 664094, Note_on_c, 0, 72, 42
2, 664096, Note_on_c, 0, 56, 32
2, 664098, Note_on_c, 0, 80, 48
2, 664185, Note_off_c, 0, 72, 50
2, 664198, Note_off_c, 0, 80, 52
2, 664289, Note_on_c, 0, 80, 47
2, 664388, Note_off_c, 0, 80, 51
2, 664483, Note_on_c, 0, 80, 50
2, 664496, Note_off_c, 0, 56, 48
2, 664581, Note_off_c, 0, 80, 52
2, 664682, Note_on_c, 0, 75, 53
2, 664684, Note_on_c, 0, 60, 41
2, 664781, Note_off_c, 0, 75, 53
2, 664876, Note_off_c, 0, 60, 50
2, 664878, Note_on_c, 0, 84, 56
2, 664883, Note_on_c, 0, 68, 44
2, 664971, Note_off_c, 0, 84, 54
2, 664982, Note_off_c, 0, 68, 51
2, 665097, Note_on_c, 0, 84, 57
2, 665104, Note_on_c, 0, 68, 45
2, 665198, Note_off_c, 0, 68, 51
2, 665200, Note_off_c, 0, 84, 54
2, 665291, Note_on_c, 0, 68, 39
2, 665293, Note_on_c, 0, 84, 50
2, 665387, Note_off_c, 0, 68, 49
2, 665399, Note_off_c, 0, 84, 52
2, 665484, Note_on_c, 0, 63, 32
2, 665487, Note_on_c, 0, 80, 44
2, 665575, Note_off_c, 0, 80, 51
2, 665580, Note_off_c, 0, 63, 48
2, 665686, Note_on_c, 0, 87, 47
2, 665688, Note_on_c, 0, 72, 39
2, 665777, Note_off_c, 0, 87, 51
2, 665787, Note_off_c, 0, 72, 49
2, 665882, Note_on_c, 0, 72, 45
2, 665887, Note_on_c, 0, 87, 54
2, 665970, Note_off_c, 0, 72, 51
2, 665987, Note_off_c, 0, 87, 53
2, 666081, Note_on_c, 0, 72, 51
2, 666083, Note_on_c, 0, 87, 60
2, 666174, Note_on_c, 0, 89, 57
2, 666182, Note_on_c, 0, 73, 48
2, 666197, Note_off_c, 0, 87, 55
2, 666213, Note_off_c, 0, 72, 52
2, 666302, Note_on_c, 0, 72, 41
2, 666304, Note_on_c, 0, 87, 51
2, 666323, Note_off_c, 0, 89, 54
2, 666329, Note_off_c, 0, 73, 52
2, 666393, Note_on_c, 0, 85, 44
2, 666398, Note_on_c, 0, 70, 36
2, 666429, Note_off_c, 0, 87, 52
2, 666434, Note_off_c, 0, 72, 50
2, 666456, Note_off_c, 0, 70, 49
2, 666458, Note_off_c, 0, 85, 51
2, 666495, Note_on_c, 0, 84, 44
2, 666499, Note_on_c, 0, 69, 36
2, 666588, Note_off_c, 0, 69, 49
2, 666590, Note_off_c, 0, 84, 51
2, 666688, Note_on_c, 0, 84, 55
2, 666692, Note_on_c, 0, 75, 38
2, 666784, Note_off_c, 0, 75, 49
2, 666793, Note_off_c, 0, 84, 53
2, 666886, Note_on_c, 0, 75, 45
2, 666891, Note_on_c, 0, 84, 61
2, 666986, Note_on_c, 0, 85, 62
2, 666987, Note_on_c, 0, 77, 45
2, 667018, Note_off_c, 0, 75, 51
2, 667019, Note_off_c, 0, 84, 55
2, 667085, Note_on_c, 0, 84, 54
2, 667088, Note_on_c, 0, 75, 38
2, 667098, Note_off_c, 0, 77, 51
2, 667106, Note_off_c, 0, 85, 55
2, 667180, Note_on_c, 0, 82, 49
2, 667186, Note_on_c, 0, 73, 37
2, 667204, Note_off_c, 0, 84, 53
2, 667208, Note_off_c, 0, 75, 49
2, 667250, Note_off_c, 0, 82, 52
2, 667267, Note_off_c, 0, 73, 49
2, 667282, Note_on_c, 0, 72, 57
2, 667284, Note_on_c, 0, 81, 72
2, 667286, Note_on_c, 0, 75, 65
2, 667392, Note_off_c, 0, 72, 54
2, 667393, Note_off_c, 0, 75, 56
2, 667411, Note_off_c, 0, 81, 58
2, 667493, Note_on_c, 0, 81, 73
2, 667496, Note_on_c, 0, 72, 57
2, 667502, Note_on_c, 0, 75, 64
2, 667585, Note_off_c, 0, 81, 58
2, 667590, Note_off_c, 0, 72, 54
2, 667598, Note_off_c, 0, 75, 56
2, 667696, Note_on_c, 0, 72, 65
2, 667698, Note_on_c, 0, 81, 79
2, 667700, Note_on_c, 0, 75, 71
2, 667796, Note_on_c, 0, 77, 74
2, 667800, Note_on_c, 0, 73, 69
2, 667816, Note_off_c, 0, 72, 56
2, 667819, Note_off_c, 0, 75, 58
2, 667890, Note_off_c, 0, 81, 60
2, 667898, Note_on_c, 0, 82, 85
2, 667900, Note_on_c, 0, 72, 69
2, 667902, Note_on_c, 0, 75, 77
2, 667922, Note_off_c, 0, 73, 57
2, 667924, Note_off_c, 0, 77, 59
2, 667993, Note_on_c, 0, 73, 65
2, 667995, Note_on_c, 0, 70, 63
2, 668013, Note_off_c, 0, 75, 59
2, 668023, Note_off_c, 0, 72, 57
2, 668089, Note_off_c, 0, 82, 61
2, 668091, Note_off_c, 0, 70, 55
2, 668093, Note_off_c, 0, 73, 56
2, 668097, Note_on_c, 0, 84, 73
2, 668099, Note_on_c, 0, 69, 58
2, 668101, Note_on_c, 0, 72, 69
2, 668193, Note_off_c, 0, 69, 54
2, 668286, Note_on_c, 0, 69, 57
2, 668385, Note_off_c, 0, 69, 54
2, 668500, Note_off_c, 0, 84, 58
2, 668507, Note_off_c, 0, 72, 57
2, 668508, Note_on_c, 0, 69, 66
2, 668603, Note_on_c, 0, 70, 71
2, 668627, Note_off_c, 0, 69, 56
2, 668704, Note_on_c, 0, 69, 76
2, 668735, Note_off_c, 0, 70, 58
2, 668803, Note_on_c, 0, 65, 81
2, 668827, Note_off_c, 0, 69, 59
2, 668896, Note_on_c, 0, 70, 56
2, 668898, Note_on_c, 0, 85, 69
2, 668900, Note_off_c, 0, 65, 60
2, 668994, Note_off_c, 0, 85, 57
2, 669094, Note_on_c, 0, 85, 68
2, 669182, Note_off_c, 0, 85, 57
2, 669292, Note_off_c, 0, 70, 54
2, 669299, Note_on_c, 0, 85, 77
2, 669395, Note_on_c, 0, 87, 80
2, 669414, Note_off_c, 0, 85, 59
2, 669494, Note_on_c, 0, 85, 81
2, 669525, Note_off_c, 0, 87, 60
2, 669608, Note_on_c, 0, 84, 74
2, 669637, Note_off_c, 0, 85, 60
2, 669703, Note_off_c, 0, 84, 59
2, 669710, Note_on_c, 0, 82, 68
2, 669712, Note_on_c, 0, 73, 56
2, 669807, Note_off_c, 0, 73, 54
2, 669814, Note_off_c, 0, 82, 57
2, 669900, Note_on_c, 0, 82, 69
2, 669904, Note_on_c, 0, 73, 62
2, 669991, Note_off_c, 0, 73, 55
2, 670002, Note_off_c, 0, 82, 57
2, 670093, Note_on_c, 0, 82, 77
2, 670096, Note_on_c, 0, 73, 68
2, 670196, Note_on_c, 0, 84, 80
2, 670201, Note_on_c, 0, 75, 69
2, 670218, Note_off_c, 0, 73, 57
2, 670225, Note_off_c, 0, 82, 59
2, 670298, Note_on_c, 0, 82, 80
2, 670300, Note_on_c, 0, 73, 68
2, 670317, Note_off_c, 0, 84, 60
2, 670336, Note_off_c, 0, 75, 57
2, 670401, Note_on_c, 0, 80, 74
2, 670403, Note_on_c, 0, 72, 68
2, 670420, Note_off_c, 0, 82, 60
2, 670422, Note_off_c, 0, 73, 57
2, 670492, Note_on_c, 0, 70, 57
2, 670494, Note_off_c, 0, 72, 57
2, 670497, Note_on_c, 0, 76, 65
2, 670499, Note_on_c, 0, 79, 72
2, 670501, Note_off_c, 0, 80, 59
2, 670582, Note_off_c, 0, 76, 56
2, 670593, Note_off_c, 0, 70, 54
2, 670595, Note_off_c, 0, 79, 58
2, 670715, Note_on_c, 0, 76, 66
2, 670717, Note_on_c, 0, 79, 71
2, 670719, Note_on_c, 0, 70, 56
2, 670817, Note_off_c, 0, 76, 56
2, 670819, Note_off_c, 0, 70, 54
2, 670823, Note_off_c, 0, 79, 58
2, 670905, Note_on_c, 0, 70, 60
2, 670911, Note_on_c, 0, 79, 76
2, 670913, Note_on_c, 0, 76, 69
2, 671007, Note_on_c, 0, 72, 64
2, 671017, Note_off_c, 0, 70, 55
2, 671103, Note_off_c, 0, 76, 57
2, 671107, Note_on_c, 0, 80, 80
2, 671108, Note_on_c, 0, 77, 73
2, 671115, Note_on_c, 0, 70, 66
2, 671118, Note_off_c, 0, 79, 59
2, 671134, Note_off_c, 0, 72, 56
2, 671201, Note_on_c, 0, 68, 68
2, 671226, Note_off_c, 0, 70, 56
2, 671269, Note_off_c, 0, 68, 57
2, 671300, Note_off_c, 0, 77, 58
2, 671303, Note_on_c, 0, 82, 84
2, 671305, Note_off_c, 0, 80, 60
2, 671311, Note_on_c, 0, 67, 68
2, 671313, Note_on_c, 0, 79, 77
2, 671394, Note_on_c, 0, 68, 67
2, 671437, Note_off_c, 0, 67, 57
2, 671503, Note_on_c, 0, 67, 64
2, 671526, Note_off_c, 0, 68, 57
2, 671598, Note_on_c, 0, 65, 63
2, 671618, Note_off_c, 0, 67, 56
2, 671699, Note_on_c, 0, 64, 60
2, 671713, Note_off_c, 0, 65, 55
2, 671795, Note_on_c, 0, 62, 59
2, 671824, Note_off_c, 0, 64, 55
2, 671915, Note_on_c, 0, 64, 57
2, 671943, Note_off_c, 0, 62, 54
2, 672011, Note_on_c, 0, 60, 57
2, 672042, Note_off_c, 0, 64, 54
2, 672072, Note_off_c, 0, 60, 54
2, 672102, Note_off_c, 0, 82, 61
2, 672116, Note_off_c, 0, 79, 59
2, 672118, Note_on_c, 0, 80, 73
2, 672120, Note_on_c, 0, 65, 93
2, 672208, Note_off_c, 0, 80, 58
2, 672308, Note_on_c, 0, 80, 87
2, 672409, Note_off_c, 0, 80, 61
2, 672515, Note_on_c, 0, 80, 81
2, 672610, Note_on_c, 0, 79, 76
2, 672641, Note_off_c, 0, 80, 60
2, 672704, Note_on_c, 0, 80, 74
2, 672737, Note_off_c, 0, 79, 59
2, 672788, Note_on_c, 0, 77, 71
2, 672833, Note_off_c, 0, 80, 59
2, 672867, Note_off_c, 0, 77, 58
2, 672899, Note_on_c, 0, 83, 68
2, 672900, Note_on_c, 0, 67, 93
2, 672902, Note_on_c, 0, 77, 69
2, 672905, Note_off_c, 0, 65, 63
2, 673002, Note_off_c, 0, 77, 57
2, 673109, Note_on_c, 0, 77, 71
2, 673220, Note_off_c, 0, 77, 58
2, 673317, Note_on_c, 0, 77, 76
2, 673414, Note_on_c, 0, 75, 81
2, 673447, Note_off_c, 0, 77, 59
2, 673513, Note_on_c, 0, 77, 80
2, 673523, Note_off_c, 0, 75, 60
2, 673610, Note_on_c, 0, 74, 74
2, 673640, Note_off_c, 0, 77, 60
2, 673690, Note_off_c, 0, 74, 59
2, 673703, Note_off_c, 0, 83, 57
2, 673704, Note_on_c, 0, 84, 68
2, 673709, Note_on_c, 0, 75, 65
2, 673712, Note_on_c, 0, 60, 93
2, 673713, Note_off_c, 0, 67, 63
2, 673802, Note_off_c, 0, 84, 57
2, 673902, Note_on_c, 0, 84, 67
2, 673988, Note_off_c, 0, 84, 57
2, 674115, Note_on_c, 0, 84, 73
2, 674121, Note_off_c, 0, 75, 56
2, 674224, Note_on_c, 0, 83, 75
2, 674242, Note_off_c, 0, 84, 58
2, 674308, Note_on_c, 0, 84, 76
2, 674334, Note_off_c, 0, 83, 59
2, 674413, Note_on_c, 0, 87, 79
2, 674430, Note_off_c, 0, 84, 59
2, 674514, Note_on_c, 0, 72, 65
2, 674516, Note_on_c, 0, 78, 70
2, 674518, Note_on_c, 0, 62, 94
2, 674521, Note_off_c, 0, 87, 60
2, 674531, Note_off_c, 0, 60, 63
2, 674614, Note_off_c, 0, 72, 56
2, 674718, Note_on_c, 0, 72, 67
2, 674805, Note_off_c, 0, 72, 57
2, 674902, Note_on_c, 0, 72, 75
2, 675000, Note_on_c, 0, 71, 81
2, 675025, Note_off_c, 0, 72, 59
2, 675111, Note_on_c, 0, 72, 80
2, 675136, Note_off_c, 0, 71, 60
2, 675224, Note_on_c, 0, 69, 75
2, 675263, Note_off_c, 0, 72, 60
2, 675286, Note_off_c, 0, 69, 59
2, 675304, Note_off_c, 0, 78, 57
2, 675305, Note_off_c, 0, 62, 63
2, 675327, Note_on_c, 0, 70, 72
2, 675329, Note_on_c, 0, 55, 95
2, 675335, Note_on_c, 0, 79, 65
2, 675417, Note_off_c, 0, 70, 58
2, 675509, Note_on_c, 0, 70, 68
2, 675611, Note_off_c, 0, 70, 57
2, 675713, Note_off_c, 0, 79, 56
2, 675718, Note_on_c, 0, 70, 76
2, 675814, Note_on_c, 0, 69, 80
2, 675854, Note_off_c, 0, 70, 59
2, 675917, Note_on_c, 0, 70, 79
2, 675949, Note_off_c, 0, 69, 60
2, 676014, Note_on_c, 0, 67, 75
2, 676047, Note_off_c, 0, 70, 60
2, 676090, Note_off_c, 0, 67, 59
2, 676102, Note_on_c, 0, 50, 91
2, 676116, Note_on_c, 0, 78, 72
2, 676118, Note_on_c, 0, 72, 66
2, 676123, Note_on_c, 0, 62, 97
2, 676128, Note_off_c, 0, 55, 63
2, 676225, Note_off_c, 0, 78, 58
2, 676303, Note_on_c, 0, 78, 70
2, 676419, Note_off_c, 0, 78, 57
2, 676522, Note_on_c, 0, 78, 75
2, 676627, Note_on_c, 0, 76, 80
2, 676637, Note_off_c, 0, 78, 59
2, 676721, Note_on_c, 0, 78, 79
2, 676745, Note_off_c, 0, 76, 60
2, 676749, Note_off_c, 0, 62, 64
2, 676755, Note_off_c, 0, 50, 62
2, 676820, Note_on_c, 0, 74, 75
2, 676841, Note_off_c, 0, 78, 60
2, 676882, Note_off_c, 0, 74, 59
2, 676903, Note_off_c, 0, 72, 56
2, 676917, Note_on_c, 0, 70, 65
2, 676922, Note_on_c, 0, 43, 83
2, 676927, Note_on_c, 0, 79, 71
2, 676929, Note_on_c, 0, 55, 98
2, 677021, Note_off_c, 0, 79, 58
2, 677124, Note_on_c, 0, 79, 68
2, 677208, Note_off_c, 0, 79, 57
2, 677317, Note_on_c, 0, 79, 73
2, 677329, Note_off_c, 0, 70, 56
2, 677405, Note_on_c, 0, 78, 76
2, 677439, Note_off_c, 0, 79, 58
2, 677532, Note_on_c, 0, 79, 77
2, 677542, Note_off_c, 0, 78, 59
2, 677544, Note_off_c, 0, 55, 64
2, 677575, Note_off_c, 0, 43, 60
2, 677626, Note_on_c, 0, 82, 80
2, 677656, Note_off_c, 0, 79, 59
2, 677676, Note_off_c, 0, 82, 60
2, 677732, Note_on_c, 0, 67, 71
2, 677734, Note_on_c, 0, 73, 66
2, 677736, Note_on_c, 0, 57, 91
2, 677736, Note_on_c, 0, 45, 76
2, 677820, Note_off_c, 0, 67, 58
2, 677918, Note_on_c, 0, 67, 72
2, 678020, Note_off_c, 0, 67, 58
2, 678122, Note_on_c, 0, 67, 77
2, 678221, Note_on_c, 0, 65, 80
2, 678257, Note_off_c, 0, 67, 59
2, 678321, Note_on_c, 0, 67, 81
2, 678335, Note_off_c, 0, 65, 60
2, 678341, Note_off_c, 0, 57, 62
2, 678360, Note_off_c, 0, 45, 59
2, 678418, Note_on_c, 0, 64, 75
2, 678459, Note_off_c, 0, 67, 60
2, 678494, Note_off_c, 0, 64, 59
2, 678517, Note_off_c, 0, 73, 56
2, 678519, Note_on_c, 0, 74, 66
2, 678521, Note_on_c, 0, 65, 69
2, 678523, Note_on_c, 0, 38, 77
2, 678525, Note_on_c, 0, 50, 91
2, 678635, Note_off_c, 0, 65, 57
2, 678732, Note_on_c, 0, 65, 69
2, 678826, Note_off_c, 0, 65, 57
2, 678924, Note_off_c, 0, 74, 56
2, 678931, Note_on_c, 0, 65, 77
2, 679027, Note_on_c, 0, 64, 81
2, 679059, Note_off_c, 0, 65, 59
2, 679126, Note_on_c, 0, 65, 81
2, 679155, Note_off_c, 0, 64, 60
2, 679202, Note_off_c, 0, 50, 62
2, 679213, Note_off_c, 0, 38, 59
2, 679227, Note_on_c, 0, 62, 75
2, 679251, Note_off_c, 0, 65, 60
2, 679306, Note_off_c, 0, 62, 59
2, 679326, Note_on_c, 0, 73, 72
2, 679328, Note_on_c, 0, 57, 98
2, 679330, Note_on_c, 0, 67, 66
2, 679332, Note_on_c, 0, 45, 86
2, 679423, Note_off_c, 0, 73, 58
2, 679519, Note_on_c, 0, 73, 72
2, 679621, Note_off_c, 0, 73, 58
2, 679738, Note_on_c, 0, 73, 75
2, 679836, Note_on_c, 0, 71, 81
2, 679858, Note_off_c, 0, 73, 59
2, 679926, Note_off_c, 0, 45, 61
2, 679937, Note_on_c, 0, 73, 82
2, 679961, Note_off_c, 0, 71, 60
2, 680033, Note_off_c, 0, 57, 64
2, 680035, Note_on_c, 0, 69, 75
2, 680062, Note_off_c, 0, 73, 60
2, 680112, Note_off_c, 0, 69, 59
2, 680129, Note_off_c, 0, 67, 56
2, 680134, Note_on_c, 0, 74, 72
2, 680136, Note_on_c, 0, 65, 66
2, 680138, Note_on_c, 0, 50, 100
2, 680140, Note_on_c, 0, 38, 87
2, 680231, Note_off_c, 0, 74, 58
2, 680328, Note_on_c, 0, 74, 72
2, 680427, Note_off_c, 0, 74, 58
2, 680525, Note_on_c, 0, 74, 73
2, 680561, Note_off_c, 0, 65, 56
2, 680623, Note_on_c, 0, 73, 75
2, 680650, Note_off_c, 0, 74, 58
2, 680722, Note_off_c, 0, 38, 61
2, 680724, Note_on_c, 0, 74, 77
2, 680745, Note_off_c, 0, 73, 59
2, 680788, Note_off_c, 0, 50, 65
2, 680819, Note_on_c, 0, 77, 79
2, 680847, Note_off_c, 0, 74, 59
2, 680896, Note_off_c, 0, 77, 60
2, 680937, Note_on_c, 0, 34, 89
2, 680939, Note_on_c, 0, 68, 78
2, 680944, Note_on_c, 0, 65, 84
2, 680946, Note_on_c, 0, 46, 96
2, 681034, Note_off_c, 0, 65, 61
2, 681134, Note_on_c, 0, 65, 77
2, 681234, Note_off_c, 0, 65, 59
2, 681336, Note_on_c, 0, 65, 69
2, 681360, Note_on_c, 0, 33, 57
2, 681432, Note_on_c, 0, 64, 75
2, 681466, Note_off_c, 0, 65, 57
2, 681493, Note_off_c, 0, 33, 54
2, 681518, Note_off_c, 0, 46, 63
2, 681528, Note_on_c, 0, 65, 81
2, 681557, Note_off_c, 0, 64, 59
2, 681559, Note_off_c, 0, 34, 62
2, 681624, Note_on_c, 0, 62, 69
2, 681650, Note_off_c, 0, 65, 60
2, 681705, Note_off_c, 0, 62, 57
2, 681717, Note_off_c, 0, 68, 59
2, 681727, Note_on_c, 0, 69, 78
2, 681730, Note_on_c, 0, 45, 58
2, 681732, Note_on_c, 0, 61, 84
2, 681828, Note_off_c, 0, 61, 61
2, 681878, Note_off_c, 0, 45, 54
2, 681920, Note_on_c, 0, 52, 57
2, 681926, Note_on_c, 0, 61, 77
2, 682039, Note_off_c, 0, 52, 54
2, 682041, Note_off_c, 0, 61, 59
2, 682139, Note_on_c, 0, 52, 61
2, 682141, Note_on_c, 0, 61, 69
2, 682243, Note_on_c, 0, 59, 75
2, 682245, Note_on_c, 0, 51, 63
2, 682262, Note_off_c, 0, 52, 55
2, 682264, Note_off_c, 0, 61, 57
2, 682340, Note_on_c, 0, 61, 81
2, 682342, Note_on_c, 0, 52, 65
2, 682362, Note_off_c, 0, 51, 55
2, 682367, Note_off_c, 0, 59, 59
2, 682435, Note_on_c, 0, 49, 67
2, 682436, Note_on_c, 0, 57, 69
2, 682456, Note_off_c, 0, 61, 60
2, 682466, Note_off_c, 0, 52, 56
2, 682512, Note_off_c, 0, 49, 57
2, 682513, Note_off_c, 0, 57, 57
2, 682526, Note_off_c, 0, 69, 59
2, 682528, Note_on_c, 0, 62, 84
2, 682533, Note_on_c, 0, 68, 78
2, 682535, Note_on_c, 0, 53, 72
2, 682538, Note_on_c, 0, 45, 66
2, 682627, Note_off_c, 0, 62, 61
2, 682635, Note_off_c, 0, 53, 58
2, 682733, Note_on_c, 0, 62, 72
2, 682739, Note_on_c, 0, 53, 70
2, 682828, Note_off_c, 0, 62, 58
2, 682838, Note_off_c, 0, 53, 57
2, 682932, Note_on_c, 0, 53, 65
2, 682934, Note_on_c, 0, 62, 69
2, 683028, Note_on_c, 0, 61, 75
2, 683030, Note_on_c, 0, 52, 62
2, 683052, Note_off_c, 0, 62, 57
2, 683056, Note_off_c, 0, 53, 56
2, 683146, Note_on_c, 0, 53, 60
2, 683148, Note_on_c, 0, 62, 81
2, 683166, Note_off_c, 0, 52, 55
2, 683176, Note_off_c, 0, 61, 59
2, 683210, Note_off_c, 0, 45, 56
2, 683248, Note_on_c, 0, 50, 57
2, 683250, Note_on_c, 0, 59, 69
2, 683262, Note_off_c, 0, 53, 55
2, 683270, Note_off_c, 0, 62, 60
2, 683341, Note_off_c, 0, 50, 54
2, 683345, Note_off_c, 0, 59, 57
2, 683347, Note_off_c, 0, 68, 59
2, 683349, Note_on_c, 0, 69, 78
2, 683349, Note_on_c, 0, 61, 84
2, 683349, Note_on_c, 0, 52, 60
2, 683351, Note_on_c, 0, 45, 54
2, 683443, Note_off_c, 0, 61, 61
2, 683445, Note_off_c, 0, 52, 55
2, 683535, Note_on_c, 0, 61, 72
2, 683540, Note_on_c, 0, 52, 63
2, 683637, Note_off_c, 0, 52, 55
2, 683640, Note_off_c, 0, 61, 58
2, 683756, Note_on_c, 0, 61, 69
2, 683758, Note_on_c, 0, 52, 63
2, 683856, Note_on_c, 0, 59, 75
2, 683858, Note_on_c, 0, 51, 64
2, 683878, Note_off_c, 0, 61, 57
2, 683883, Note_off_c, 0, 52, 55
2, 683952, Note_on_c, 0, 61, 81
2, 683957, Note_on_c, 0, 52, 66
2, 683981, Note_off_c, 0, 51, 56
2, 683983, Note_off_c, 0, 59, 59
2, 684034, Note_off_c, 0, 45, 53
2, 684071, Note_on_c, 0, 49, 67
2, 684074, Note_on_c, 0, 57, 69
2, 684101, Note_off_c, 0, 61, 60
2, 684107, Note_off_c, 0, 52, 56
2, 684170, Note_off_c, 0, 57, 57
2, 684172, Note_off_c, 0, 49, 57
2, 684174, Note_on_c, 0, 68, 78
2, 684175, Note_off_c, 0, 69, 59
2, 684178, Note_on_c, 0, 53, 72
2, 684178, Note_on_c, 0, 62, 84
2, 684180, Note_on_c, 0, 45, 66
2, 684271, Note_off_c, 0, 62, 61
2, 684273, Note_off_c, 0, 53, 58
2, 684388, Note_on_c, 0, 53, 73
2, 684390, Note_on_c, 0, 62, 72
2, 684484, Note_off_c, 0, 53, 58
2, 684486, Note_off_c, 0, 62, 58
2, 684607, Note_on_c, 0, 62, 69
2, 684608, Note_on_c, 0, 53, 65
2, 684706, Note_on_c, 0, 52, 62
2, 684708, Note_on_c, 0, 61, 75
2, 684725, Note_off_c, 0, 62, 57
2, 684733, Note_off_c, 0, 53, 56
2, 684820, Note_off_c, 0, 45, 56
2, 684823, Note_on_c, 0, 62, 81
2, 684825, Note_on_c, 0, 53, 60
2, 684844, Note_off_c, 0, 52, 55
2, 684846, Note_off_c, 0, 61, 59
2, 684918, Note_on_c, 0, 59, 69
2, 684923, Note_on_c, 0, 50, 57
2, 684946, Note_off_c, 0, 62, 60
2, 684950, Note_off_c, 0, 53, 55
2, 684987, Note_off_c, 0, 68, 59
2, 685029, Note_on_c, 0, 69, 84
2, 685036, Note_off_c, 0, 50, 54
2, 685038, Note_off_c, 0, 59, 57
2, 685040, Note_on_c, 0, 61, 75
2, 685043, Note_on_c, 0, 52, 79
2, 685045, Note_on_c, 0, 45, 78
2, 685252, Note_off_c, 0, 61, 59
2, 685268, Note_off_c, 0, 45, 59
2, 685281, Note_off_c, 0, 52, 60
2, 685309, Note_on_c, 0, 81, 45
2, 685348, Note_off_c, 0, 69, 61
2, 685411, Note_on_c, 0, 80, 45
2, 685447, Note_off_c, 0, 81, 51
2, 685506, Note_on_c, 0, 81, 48
2, 685545, Note_off_c, 0, 80, 51
2, 685605, Note_on_c, 0, 80, 51
2, 685652, Note_off_c, 0, 81, 52
2, 685707, Note_on_c, 0, 81, 54
2, 685738, Note_off_c, 0, 80, 52
2, 685821, Note_on_c, 0, 80, 58
2, 685861, Note_off_c, 0, 81, 53
2, 685881, Note_off_c, 0, 80, 54
2, 685920, Note_on_c, 0, 81, 57
2, 686020, Note_on_c, 0, 80, 57
2, 686058, Note_off_c, 0, 81, 54
2, 686116, Note_on_c, 0, 81, 55
2, 686156, Note_off_c, 0, 80, 54
2, 686215, Note_on_c, 0, 80, 53
2, 686257, Note_off_c, 0, 81, 53
2, 686315, Note_on_c, 0, 81, 51
2, 686358, Note_off_c, 0, 80, 53
2, 686411, Note_on_c, 0, 80, 49
2, 686449, Note_off_c, 0, 81, 52
2, 686510, Note_on_c, 0, 81, 47
2, 686548, Note_off_c, 0, 80, 52
2, 686610, Note_on_c, 0, 80, 45
2, 686653, Note_off_c, 0, 81, 51
2, 686689, Note_off_c, 0, 80, 51
2, 686703, Note_on_c, 0, 50, 49
2, 686713, Note_on_c, 0, 69, 41
2, 686715, Note_on_c, 0, 78, 40
2, 686717, Note_on_c, 0, 81, 48
2, 686719, Note_on_c, 0, 62, 42
2, 686805, Note_off_c, 0, 62, 50
2, 686811, Note_off_c, 0, 69, 50
2, 686814, Note_off_c, 0, 81, 52
2, 686817, Note_off_c, 0, 78, 50
2, 686903, Note_on_c, 0, 81, 54
2, 686907, Note_on_c, 0, 69, 46
2, 686910, Note_on_c, 0, 78, 47
2, 686912, Note_on_c, 0, 62, 42
2, 686999, Note_off_c, 0, 62, 50
2, 687003, Note_off_c, 0, 69, 51
2, 687007, Note_off_c, 0, 81, 53
2, 687015, Note_off_c, 0, 78, 51
2, 687100, Note_on_c, 0, 81, 61
2, 687106, Note_on_c, 0, 69, 53
2, 687109, Note_on_c, 0, 78, 52
2, 687112, Note_on_c, 0, 62, 35
2, 687201, Note_off_c, 0, 81, 55
2, 687205, Note_off_c, 0, 62, 48
2, 687207, Note_off_c, 0, 69, 53
2, 687213, Note_off_c, 0, 78, 53
2, 687301, Note_on_c, 0, 81, 48
2, 687303, Note_on_c, 0, 78, 40
2, 687304, Note_on_c, 0, 57, 30
2, 687305, Note_on_c, 0, 74, 39
2, 687314, Note_off_c, 0, 50, 52
2, 687390, Note_off_c, 0, 81, 52
2, 687402, Note_off_c, 0, 78, 50
2, 687404, Note_off_c, 0, 57, 47
2, 687411, Note_off_c, 0, 74, 49
2, 687494, Note_on_c, 0, 62, 30
2, 687496, Note_on_c, 0, 69, 40
2, 687499, Note_on_c, 0, 81, 48
2, 687501, Note_on_c, 0, 50, 36
2, 687502, Note_on_c, 0, 78, 40
2, 687589, Note_off_c, 0, 62, 47
2, 687592, Note_off_c, 0, 78, 50
2, 687599, Note_off_c, 0, 69, 50
2, 687601, Note_off_c, 0, 81, 52
2, 687688, Note_on_c, 0, 78, 46
2, 687697, Note_on_c, 0, 62, 35
2, 687699, Note_on_c, 0, 81, 54
2, 687701, Note_on_c, 0, 69, 47
2, 687791, Note_off_c, 0, 69, 51
2, 687793, Note_off_c, 0, 78, 51
2, 687799, Note_off_c, 0, 81, 53
2, 687805, Note_off_c, 0, 62, 48
2, 687887, Note_on_c, 0, 81, 60
2, 687889, Note_on_c, 0, 62, 41
2, 687894, Note_on_c, 0, 78, 52
2, 687896, Note_on_c, 0, 69, 52
2, 687978, Note_off_c, 0, 62, 50
2, 687992, Note_off_c, 0, 81, 55
2, 687995, Note_off_c, 0, 78, 53
2, 688000, Note_off_c, 0, 69, 53
2, 688084, Note_on_c, 0, 74, 39
2, 688086, Note_on_c, 0, 57, 30
2, 688088, Note_on_c, 0, 78, 41
2, 688093, Note_on_c, 0, 81, 49
2, 688154, Note_off_c, 0, 50, 49
2, 688158, Note_off_c, 0, 74, 49
2, 688161, Note_off_c, 0, 57, 47
2, 688163, Note_off_c, 0, 78, 50
2, 688172, Note_off_c, 0, 81, 52
2, 688266, Note_on_c, 0, 79, 45
2, 688268, Note_on_c, 0, 50, 36
2, 688270, Note_on_c, 0, 81, 44
2, 688272, Note_on_c, 0, 64, 30
2, 688365, Note_off_c, 0, 64, 47
2, 688369, Note_off_c, 0, 79, 51
2, 688376, Note_off_c, 0, 81, 51
2, 688461, Note_on_c, 0, 79, 48
2, 688465, Note_on_c, 0, 62, 38
2, 688467, Note_on_c, 0, 83, 57
2, 688469, Note_on_c, 0, 81, 48
2, 688559, Note_off_c, 0, 81, 52
2, 688561, Note_off_c, 0, 62, 49
2, 688563, Note_off_c, 0, 79, 52
2, 688565, Note_off_c, 0, 83, 54
2, 688674, Note_on_c, 0, 81, 56
2, 688679, Note_on_c, 0, 61, 45
2, 688681, Note_on_c, 0, 85, 64
2, 688683, Note_on_c, 0, 61, 45
2, 688683, Note_on_c, 0, 79, 57
2, 688769, Note_off_c, 0, 85, 56
2, 688773, Note_off_c, 0, 61, 51
2, 688775, Note_off_c, 0, 61, 51
2, 688777, Note_off_c, 0, 79, 54
2, 688778, Note_off_c, 0, 81, 54
2, 688879, Note_on_c, 0, 86, 72
2, 688881, Note_on_c, 0, 79, 65
2, 688884, Note_on_c, 0, 81, 64
2, 688885, Note_on_c, 0, 59, 54
2, 688970, Note_off_c, 0, 59, 53
2, 688978, Note_off_c, 0, 86, 58
2, 688981, Note_off_c, 0, 81, 56
2, 688986, Note_off_c, 0, 79, 56
2, 689075, Note_on_c, 0, 88, 73
2, 689076, Note_on_c, 0, 79, 64
2, 689079, Note_on_c, 0, 57, 54
2, 689081, Note_on_c, 0, 81, 64
2, 689191, Note_off_c, 0, 57, 53
2, 689193, Note_off_c, 0, 88, 58
2, 689199, Note_off_c, 0, 81, 56
2, 689201, Note_off_c, 0, 79, 56
2, 689283, Note_on_c, 0, 85, 64
2, 689288, Note_on_c, 0, 79, 56
2, 689293, Note_on_c, 0, 61, 45
2, 689295, Note_on_c, 0, 81, 57
2, 689375, Note_off_c, 0, 85, 56
2, 689384, Note_off_c, 0, 81, 54
2, 689386, Note_off_c, 0, 61, 51
2, 689392, Note_off_c, 0, 79, 54
2, 689483, Note_on_c, 0, 59, 38
2, 689485, Note_on_c, 0, 86, 57
2, 689488, Note_on_c, 0, 81, 48
2, 689490, Note_on_c, 0, 79, 49
2, 689502, Note_off_c, 0, 50, 49
2, 689574, Note_off_c, 0, 86, 54
2, 689579, Note_off_c, 0, 81, 52
2, 689583, Note_off_c, 0, 59, 49
2, 689585, Note_off_c, 0, 79, 52
2, 689678, Note_on_c, 0, 88, 49
2, 689681, Note_on_c, 0, 57, 30
2, 689684, Note_on_c, 0, 79, 41
2, 689687, Note_on_c, 0, 81, 40
2, 689785, Note_off_c, 0, 88, 52
2, 689787, Note_off_c, 0, 79, 50
2, 689789, Note_off_c, 0, 57, 47
2, 689791, Note_off_c, 0, 81, 50
2, 689881, Note_on_c, 0, 62, 29
2, 689883, Note_on_c, 0, 69, 41
2, 689885, Note_on_c, 0, 78, 40
2, 689887, Note_on_c, 0, 81, 48
2, 689887, Note_on_c, 0, 50, 37
2, 689972, Note_off_c, 0, 81, 52
2, 689974, Note_off_c, 0, 62, 47
2, 689978, Note_off_c, 0, 69, 50
2, 689985, Note_off_c, 0, 78, 50
2, 690076, Note_on_c, 0, 81, 52
2, 690079, Note_on_c, 0, 78, 44
2, 690080, Note_on_c, 0, 62, 33
2, 690084, Note_on_c, 0, 69, 45
2, 690167, Note_off_c, 0, 62, 48
2, 690176, Note_off_c, 0, 81, 53
2, 690179, Note_off_c, 0, 78, 51
2, 690190, Note_off_c, 0, 69, 51
2, 690270, Note_on_c, 0, 69, 49
2, 690277, Note_on_c, 0, 81, 56
2, 690279, Note_on_c, 0, 78, 49
2, 690281, Note_on_c, 0, 62, 37
2, 690369, Note_off_c, 0, 81, 54
2, 690371, Note_off_c, 0, 78, 52
2, 690374, Note_off_c, 0, 69, 52
2, 690379, Note_off_c, 0, 62, 49
2, 690469, Note_on_c, 0, 74, 51
2, 690471, Note_on_c, 0, 78, 53
2, 690473, Note_on_c, 0, 81, 60
2, 690475, Note_on_c, 0, 57, 41
2, 690555, Note_off_c, 0, 50, 49
2, 690561, Note_off_c, 0, 81, 55
2, 690572, Note_off_c, 0, 57, 50
2, 690575, Note_off_c, 0, 74, 52
2, 690580, Note_off_c, 0, 78, 53
2, 690664, Note_on_c, 0, 69, 53
2, 690668, Note_on_c, 0, 81, 60
2, 690671, Note_on_c, 0, 62, 41
2, 690673, Note_on_c, 0, 78, 52
2, 690675, Note_on_c, 0, 50, 49
2, 690757, Note_off_c, 0, 69, 53
2, 690766, Note_off_c, 0, 62, 50
2, 690774, Note_off_c, 0, 81, 55
2, 690779, Note_off_c, 0, 78, 53
2, 690869, Note_on_c, 0, 81, 56
2, 690871, Note_on_c, 0, 69, 48
2, 690872, Note_on_c, 0, 78, 48
2, 690876, Note_on_c, 0, 62, 37
2, 690969, Note_off_c, 0, 62, 49
2, 690971, Note_off_c, 0, 81, 54
2, 690972, Note_off_c, 0, 78, 52
2, 690973, Note_off_c, 0, 69, 52
2, 691062, Note_on_c, 0, 62, 33
2, 691064, Note_on_c, 0, 81, 52
2, 691066, Note_on_c, 0, 69, 45
2, 691068, Note_on_c, 0, 78, 45
2, 691134, Note_off_c, 0, 62, 48
2, 691139, Note_off_c, 0, 78, 51
2, 691141, Note_off_c, 0, 69, 51
2, 691143, Note_off_c, 0, 81, 53
2, 691235, Note_on_c, 0, 78, 40
2, 691239, Note_on_c, 0, 74, 39
2, 691244, Note_on_c, 0, 81, 48
2, 691246, Note_on_c, 0, 57, 30
2, 691323, Note_off_c, 0, 78, 50
2, 691331, Note_off_c, 0, 50, 52
2, 691332, Note_off_c, 0, 74, 49
2, 691334, Note_off_c, 0, 57, 47
2, 691337, Note_off_c, 0, 81, 52
2, 691434, Note_on_c, 0, 81, 40
2, 691436, Note_on_c, 0, 79, 38
2, 691443, Note_on_c, 0, 64, 29
2, 691445, Note_on_c, 0, 50, 37
2, 691520, Note_off_c, 0, 81, 50
2, 691529, Note_off_c, 0, 79, 49
2, 691531, Note_off_c, 0, 64, 47
2, 691628, Note_on_c, 0, 79, 41
2, 691633, Note_on_c, 0, 83, 51
2, 691640, Note_on_c, 0, 81, 44
2, 691642, Note_on_c, 0, 62, 33
2, 691730, Note_off_c, 0, 81, 51
2, 691733, Note_off_c, 0, 62, 48
2, 691736, Note_off_c, 0, 83, 52
2, 691738, Note_off_c, 0, 79, 50
2, 691832, Note_on_c, 0, 85, 54
2, 691834, Note_on_c, 0, 79, 45
2, 691836, Note_on_c, 0, 61, 36
2, 691840, Note_on_c, 0, 81, 46
2, 691938, Note_off_c, 0, 61, 49
2, 691943, Note_off_c, 0, 85, 53
2, 691945, Note_off_c, 0, 79, 51
2, 691964, Note_off_c, 0, 81, 51
2, 692044, Note_on_c, 0, 59, 39
2, 692047, Note_on_c, 0, 86, 58
2, 692053, Note_on_c, 0, 81, 49
2, 692055, Note_on_c, 0, 79, 47
2, 692138, Note_off_c, 0, 86, 54
2, 692143, Note_off_c, 0, 79, 51
2, 692146, Note_off_c, 0, 59, 49
2, 692154, Note_off_c, 0, 81, 52
2, 692238, Note_on_c, 0, 88, 61
2, 692240, Note_on_c, 0, 81, 53
2, 692246, Note_on_c, 0, 57, 41
2, 692251, Note_on_c, 0, 79, 50
2, 692331, Note_off_c, 0, 88, 55
2, 692337, Note_off_c, 0, 81, 53
2, 692342, Note_off_c, 0, 79, 52
2, 692347, Note_off_c, 0, 57, 50
2, 692458, Note_on_c, 0, 81, 53
2, 692464, Note_on_c, 0, 79, 50
2, 692466, Note_on_c, 0, 85, 60
2, 692470, Note_on_c, 0, 61, 42
2, 692547, Note_off_c, 0, 81, 53
2, 692558, Note_off_c, 0, 79, 52
2, 692572, Note_off_c, 0, 85, 55
2, 692574, Note_off_c, 0, 61, 50
2, 692648, Note_on_c, 0, 86, 56
2, 692655, Note_on_c, 0, 81, 49
2, 692657, Note_on_c, 0, 59, 37
2, 692665, Note_on_c, 0, 79, 47
2, 692757, Note_off_c, 0, 81, 52
2, 692759, Note_off_c, 0, 86, 54
2, 692765, Note_off_c, 0, 59, 49
2, 692773, Note_off_c, 0, 79, 51
2, 692857, Note_on_c, 0, 88, 53
2, 692859, Note_on_c, 0, 79, 42
2, 692861, Note_on_c, 0, 81, 44
2, 692864, Note_on_c, 0, 57, 34
2, 692947, Note_off_c, 0, 50, 49
2, 692955, Note_off_c, 0, 81, 51
2, 692958, Note_off_c, 0, 79, 50
2, 692960, Note_off_c, 0, 57, 48
2, 692964, Note_off_c, 0, 88, 53
2, 693051, Note_on_c, 0, 78, 41
2, 693055, Note_on_c, 0, 74, 32
2, 693058, Note_on_c, 0, 81, 48
2, 693143, Note_off_c, 0, 78, 50
2, 693151, Note_off_c, 0, 81, 52
2, 693161, Note_off_c, 0, 74, 48
2, 693245, Note_on_c, 0, 81, 48
2, 693247, Note_on_c, 0, 78, 41
2, 693256, Note_on_c, 0, 72, 33
2, 693336, Note_off_c, 0, 81, 52
2, 693338, Note_off_c, 0, 78, 50
2, 693350, Note_off_c, 0, 72, 48
2, 693447, Note_on_c, 0, 78, 44
2, 693449, Note_on_c, 0, 83, 52
2, 693457, Note_on_c, 0, 71, 37
2, 693543, Note_off_c, 0, 83, 53
2, 693552, Note_off_c, 0, 78, 51
2, 693557, Note_off_c, 0, 71, 49
2, 693637, Note_on_c, 0, 78, 48
2, 693642, Note_on_c, 0, 69, 40
2, 693648, Note_on_c, 0, 84, 57
2, 693737, Note_off_c, 0, 84, 54
2, 693740, Note_off_c, 0, 69, 50
2, 693742, Note_off_c, 0, 78, 52
2, 693844, Note_on_c, 0, 77, 53
2, 693847, Note_on_c, 0, 67, 45
2, 693849, Note_on_c, 0, 86, 61
2, 693938, Note_off_c, 0, 86, 55
2, 693945, Note_off_c, 0, 67, 51
2, 693949, Note_off_c, 0, 77, 53
2, 694023, Note_on_c, 0, 77, 53
2, 694025, Note_on_c, 0, 83, 61
2, 694027, Note_on_c, 0, 71, 44
2, 694123, Note_off_c, 0, 77, 53
2, 694128, Note_off_c, 0, 83, 55
2, 694137, Note_off_c, 0, 71, 51
2, 694211, Note_on_c, 0, 84, 54
2, 694213, Note_on_c, 0, 77, 47
2, 694215, Note_on_c, 0, 69, 39
2, 694311, Note_off_c, 0, 77, 51
2, 694313, Note_off_c, 0, 84, 53
2, 694319, Note_off_c, 0, 69, 49
2, 694410, Note_on_c, 0, 86, 49
2, 694415, Note_on_c, 0, 77, 40
2, 694420, Note_on_c, 0, 67, 33
2, 694506, Note_off_c, 0, 86, 52
2, 694514, Note_off_c, 0, 67, 48
2, 694525, Note_off_c, 0, 77, 50
2, 694606, Note_on_c, 0, 79, 49
2, 694611, Note_on_c, 0, 72, 33
2, 694614, Note_on_c, 0, 76, 41
2, 694697, Note_off_c, 0, 79, 52
2, 694704, Note_off_c, 0, 76, 50
2, 694717, Note_off_c, 0, 72, 48
2, 694802, Note_on_c, 0, 76, 44
2, 694810, Note_on_c, 0, 70, 35
2, 694812, Note_on_c, 0, 79, 52
2, 694898, Note_off_c, 0, 76, 51
2, 694906, Note_off_c, 0, 70, 48
2, 694918, Note_off_c, 0, 79, 53
2, 695003, Note_on_c, 0, 69, 38
2, 695006, Note_on_c, 0, 81, 55
2, 695011, Note_on_c, 0, 76, 47
2, 695093, Note_off_c, 0, 81, 53
2, 695095, Note_off_c, 0, 69, 49
2, 695098, Note_off_c, 0, 76, 51
2, 695199, Note_on_c, 0, 76, 50
2, 695204, Note_on_c, 0, 67, 42
2, 695208, Note_on_c, 0, 82, 58
2, 695299, Note_off_c, 0, 82, 54
2, 695304, Note_off_c, 0, 76, 52
2, 695310, Note_off_c, 0, 67, 50
2, 695413, Note_on_c, 0, 65, 44
2, 695416, Note_on_c, 0, 75, 53
2, 695420, Note_on_c, 0, 84, 60
2, 695511, Note_off_c, 0, 65, 51
2, 695512, Note_off_c, 0, 75, 53
2, 695519, Note_off_c, 0, 84, 55
2, 695610, Note_on_c, 0, 75, 53
2, 695612, Note_on_c, 0, 69, 45
2, 695618, Note_on_c, 0, 81, 60
2, 695705, Note_off_c, 0, 81, 55
2, 695712, Note_off_c, 0, 69, 51
2, 695715, Note_off_c, 0, 75, 53
2, 695812, Note_on_c, 0, 82, 54
2, 695816, Note_on_c, 0, 67, 38
2, 695817, Note_on_c, 0, 75, 46
2, 695909, Note_off_c, 0, 75, 51
2, 695911, Note_off_c, 0, 67, 49
2, 695914, Note_off_c, 0, 82, 53
2, 696030, Note_on_c, 0, 75, 41
2, 696032, Note_on_c, 0, 84, 49
2, 696036, Note_on_c, 0, 65, 32
2, 696125, Note_off_c, 0, 75, 50
2, 696130, Note_off_c, 0, 84, 52
2, 696143, Note_off_c, 0, 65, 48
2, 696223, Note_on_c, 0, 74, 40
2, 696228, Note_on_c, 0, 77, 48
2, 696231, Note_on_c, 0, 70, 33
2, 696314, Note_off_c, 0, 74, 50
2, 696316, Note_off_c, 0, 77, 52
2, 696321, Note_off_c, 0, 70, 48
2, 696416, Note_on_c, 0, 77, 50
2, 696422, Note_on_c, 0, 72, 34
2, 696424, Note_on_c, 0, 74, 43
2, 696516, Note_off_c, 0, 74, 50
2, 696518, Note_off_c, 0, 77, 52
2, 696520, Note_off_c, 0, 72, 48
2, 696635, Note_on_c, 0, 70, 37
2, 696637, Note_on_c, 0, 79, 53
2, 696639, Note_on_c, 0, 76, 45
2, 696725, Note_off_c, 0, 79, 53
2, 696735, Note_off_c, 0, 70, 49
2, 696737, Note_off_c, 0, 76, 51
2, 696836, Note_on_c, 0, 69, 41
2, 696838, Note_on_c, 0, 77, 47
2, 696840, Note_on_c, 0, 81, 54
2, 696929, Note_off_c, 0, 81, 53
2, 696939, Note_off_c, 0, 69, 50
2, 696948, Note_off_c, 0, 77, 51
2, 697030, Note_on_c, 0, 79, 50
2, 697032, Note_on_c, 0, 82, 57
2, 697034, Note_on_c, 0, 67, 43
2, 697128, Note_off_c, 0, 79, 52
2, 697132, Note_off_c, 0, 67, 50
2, 697134, Note_off_c, 0, 82, 54
2, 697222, Note_on_c, 0, 82, 59
2, 697236, Note_on_c, 0, 65, 45
2, 697238, Note_on_c, 0, 79, 51
2, 697315, Note_off_c, 0, 82, 54
2, 697324, Note_off_c, 0, 79, 52
2, 697344, Note_off_c, 0, 65, 51
2, 697431, Note_on_c, 0, 79, 53
2, 697433, Note_on_c, 0, 82, 62
2, 697435, Note_on_c, 0, 64, 48
2, 697527, Note_off_c, 0, 64, 52
2, 697529, Note_off_c, 0, 82, 55
2, 697536, Note_off_c, 0, 79, 53
2, 697651, Note_on_c, 0, 79, 55
2, 697653, Note_on_c, 0, 82, 64
2, 697655, Note_on_c, 0, 62, 52
2, 697738, Note_off_c, 0, 82, 56
2, 697743, Note_off_c, 0, 79, 53
2, 697749, Note_off_c, 0, 62, 53
2, 697841, Note_on_c, 0, 60, 54
2, 697843, Note_on_c, 0, 82, 67
2, 697845, Note_on_c, 0, 79, 58
2, 697936, Note_off_c, 0, 82, 57
2, 697939, Note_off_c, 0, 60, 53
2, 697946, Note_off_c, 0, 79, 54
2, 698037, Note_on_c, 0, 79, 60
2, 698039, Note_on_c, 0, 82, 68
2, 698042, Note_on_c, 0, 59, 56
2, 698135, Note_off_c, 0, 79, 55
2, 698141, Note_off_c, 0, 82, 57
2, 698148, Note_off_c, 0, 59, 54
2, 698230, Note_on_c, 0, 58, 59
2, 698237, Note_on_c, 0, 79, 62
2, 698239, Note_on_c, 0, 82, 70
2, 698323, Note_off_c, 0, 58, 54
2, 698332, Note_off_c, 0, 82, 57
2, 698339, Note_off_c, 0, 79, 55
2, 698434, Note_on_c, 0, 79, 64
2, 698436, Note_on_c, 0, 57, 63
2, 698437, Note_on_c, 0, 82, 73
2, 698524, Note_off_c, 0, 82, 58
2, 698527, Note_off_c, 0, 57, 55
2, 698537, Note_off_c, 0, 79, 56
2, 698631, Note_on_c, 0, 82, 76
2, 698633, Note_on_c, 0, 55, 65
2, 698635, Note_on_c, 0, 79, 67
2, 698705, Note_off_c, 0, 55, 56
2, 698715, Note_off_c, 0, 79, 57
2, 698718, Note_off_c, 0, 82, 59
2, 698802, Note_on_c, 0, 81, 69
2, 698806, Note_on_c, 0, 82, 78
2, 698810, Note_on_c, 0, 53, 68
2, 698893, Note_off_c, 0, 82, 59
2, 698901, Note_off_c, 0, 53, 57
2, 698909, Note_off_c, 0, 81, 57
2, 699003, Note_on_c, 0, 52, 70
2, 699005, Note_on_c, 0, 79, 71
2, 699009, Note_on_c, 0, 82, 79
2, 699099, Note_off_c, 0, 82, 60
2, 699105, Note_off_c, 0, 52, 57
2, 699110, Note_off_c, 0, 79, 58
2, 699199, Note_on_c, 0, 77, 74
2, 699201, Note_on_c, 0, 50, 72
2, 699203, Note_on_c, 0, 82, 81
2, 699290, Note_off_c, 0, 77, 59
2, 699294, Note_off_c, 0, 50, 58
2, 699307, Note_off_c, 0, 82, 60
2, 699398, Note_on_c, 0, 76, 76
2, 699400, Note_on_c, 0, 48, 75
2, 699402, Note_on_c, 0, 82, 84
2, 699494, Note_on_c, 0, 84, 80
2, 699528, Note_off_c, 0, 82, 61
2, 699530, Note_off_c, 0, 76, 59
2, 699590, Note_on_c, 0, 86, 78
2, 699612, Note_off_c, 0, 84, 60
2, 699672, Note_on_c, 0, 84, 76
2, 699701, Note_off_c, 0, 86, 59
2, 699772, Note_off_c, 0, 48, 59
2, 699776, Note_on_c, 0, 82, 74
2, 699789, Note_off_c, 0, 84, 59
2, 699866, Note_on_c, 0, 81, 71
2, 699900, Note_off_c, 0, 82, 59
2, 699972, Note_on_c, 0, 79, 68
2, 699991, Note_off_c, 0, 81, 58
2, 700071, Note_on_c, 0, 77, 69
2, 700115, Note_off_c, 0, 79, 57
2, 700154, Note_off_c, 0, 77, 57
2, 700168, Note_on_c, 0, 76, 62
2, 700264, Note_on_c, 0, 77, 64
2, 700286, Note_off_c, 0, 76, 55
2, 700363, Note_on_c, 0, 79, 66
2, 700394, Note_off_c, 0, 77, 56
2, 700458, Note_on_c, 0, 77, 67
2, 700480, Note_off_c, 0, 79, 56
2, 700540, Note_on_c, 0, 76, 68
2, 700555, Note_off_c, 0, 77, 57
2, 700636, Note_on_c, 0, 74, 69
2, 700655, Note_off_c, 0, 76, 57
2, 700738, Note_on_c, 0, 36, 99
2, 700741, Note_on_c, 0, 72, 72
2, 700756, Note_off_c, 0, 74, 57
2, 700793, Note_on_c, 0, 38, 99
2, 700824, Note_off_c, 0, 36, 64
2, 700831, Note_on_c, 0, 70, 73
2, 700881, Note_off_c, 0, 72, 58
2, 700883, Note_on_c, 0, 40, 99
2, 700899, Note_off_c, 0, 38, 64
2, 700922, Note_off_c, 0, 70, 58
2, 700934, Note_on_c, 0, 69, 74
2, 700937, Note_off_c, 0, 40, 64
2, 700941, Note_on_c, 0, 41, 99
2, 701034, Note_off_c, 0, 41, 64
2, 701122, Note_off_c, 0, 69, 59
2, 701129, Note_on_c, 0, 41, 98
2, 701131, Note_on_c, 0, 84, 75
2, 701225, Note_off_c, 0, 41, 64
2, 701230, Note_off_c, 0, 84, 59
2, 701234, Note_on_c, 0, 82, 75
2, 701308, Note_on_c, 0, 81, 73
2, 701310, Note_off_c, 0, 82, 59
2, 701315, Note_on_c, 0, 41, 99
2, 701397, Note_off_c, 0, 81, 58
2, 701405, Note_on_c, 0, 79, 72
2, 701418, Note_off_c, 0, 41, 64
2, 701495, Note_off_c, 0, 79, 58
2, 701503, Note_on_c, 0, 77, 72
2, 701510, Note_on_c, 0, 36, 98
2, 701600, Note_off_c, 0, 77, 58
2, 701603, Note_off_c, 0, 36, 64
2, 701606, Note_on_c, 0, 76, 70
2, 701697, Note_off_c, 0, 76, 57
2, 701702, Note_on_c, 0, 77, 69
2, 701709, Note_on_c, 0, 45, 98
2, 701798, Note_off_c, 0, 77, 57
2, 701805, Note_on_c, 0, 76, 69
2, 701809, Note_off_c, 0, 45, 64
2, 701897, Note_on_c, 0, 45, 98
2, 701902, Note_off_c, 0, 76, 57
2, 701906, Note_on_c, 0, 74, 68
2, 701992, Note_off_c, 0, 45, 64
2, 701997, Note_on_c, 0, 72, 66
2, 702007, Note_off_c, 0, 74, 57
2, 702096, Note_on_c, 0, 45, 99
2, 702100, Note_off_c, 0, 72, 56
2, 702102, Note_on_c, 0, 70, 66
2, 702180, Note_off_c, 0, 45, 64
2, 702183, Note_off_c, 0, 70, 56
2, 702184, Note_on_c, 0, 69, 65
2, 702273, Note_on_c, 0, 41, 98
2, 702276, Note_on_c, 0, 67, 63
2, 702283, Note_off_c, 0, 69, 56
2, 702372, Note_off_c, 0, 67, 55
2, 702374, Note_off_c, 0, 41, 64
2, 702376, Note_on_c, 0, 65, 62
2, 702468, Note_off_c, 0, 65, 55
2, 702470, Note_on_c, 0, 48, 98
2, 702474, Note_on_c, 0, 64, 63
2, 702566, Note_on_c, 0, 65, 63
2, 702569, Note_off_c, 0, 64, 55
2, 702578, Note_off_c, 0, 48, 64
2, 702659, Note_off_c, 0, 65, 55
2, 702669, Note_on_c, 0, 67, 65
2, 702673, Note_on_c, 0, 48, 98
2, 702763, Note_off_c, 0, 67, 56
2, 702765, Note_off_c, 0, 48, 64
2, 702773, Note_on_c, 0, 65, 65
2, 702869, Note_off_c, 0, 65, 56
2, 702871, Note_on_c, 0, 64, 66
2, 702873, Note_on_c, 0, 48, 98
2, 702943, Note_off_c, 0, 64, 56
2, 702945, Note_on_c, 0, 60, 67
2, 702947, Note_on_c, 0, 50, 99
2, 702964, Note_off_c, 0, 48, 64
2, 703043, Note_off_c, 0, 60, 57
2, 703045, Note_on_c, 0, 62, 69
2, 703048, Note_on_c, 0, 48, 98
2, 703068, Note_off_c, 0, 50, 64
2, 703137, Note_off_c, 0, 62, 57
2, 703139, Note_on_c, 0, 64, 70
2, 703149, Note_on_c, 0, 46, 99
2, 703179, Note_off_c, 0, 48, 64
2, 703231, Note_off_c, 0, 64, 57
2, 703240, Note_off_c, 0, 46, 64
2, 703242, Note_on_c, 0, 65, 70
2, 703247, Note_on_c, 0, 45, 98
2, 703333, Note_off_c, 0, 65, 57
2, 703336, Note_on_c, 0, 60, 71
2, 703361, Note_off_c, 0, 45, 64
2, 703421, Note_off_c, 0, 60, 58
2, 703432, Note_on_c, 0, 65, 73
2, 703441, Note_on_c, 0, 45, 98
2, 703531, Note_on_c, 0, 60, 74
2, 703537, Note_off_c, 0, 65, 58
2, 703552, Note_off_c, 0, 45, 64
2, 703607, Note_off_c, 0, 60, 59
2, 703634, Note_on_c, 0, 45, 98
2, 703636, Note_on_c, 0, 65, 74
2, 703730, Note_off_c, 0, 65, 59
2, 703732, Note_on_c, 0, 60, 72
2, 703736, Note_on_c, 0, 46, 99
2, 703758, Note_off_c, 0, 45, 64
2, 703804, Note_off_c, 0, 60, 58
2, 703816, Note_on_c, 0, 45, 98
2, 703818, Note_on_c, 0, 67, 69
2, 703841, Note_off_c, 0, 46, 64
2, 703907, Note_on_c, 0, 60, 65
2, 703912, Note_off_c, 0, 67, 57
2, 703917, Note_on_c, 0, 43, 98
2, 703951, Note_off_c, 0, 45, 64
2, 703997, Note_off_c, 0, 60, 56
2, 704008, Note_on_c, 0, 69, 68
2, 704013, Note_off_c, 0, 43, 64
2, 704015, Note_on_c, 0, 41, 99
2, 704111, Note_off_c, 0, 69, 57
2, 704205, Note_off_c, 0, 41, 64
2, 704212, Note_on_c, 0, 60, 87
2, 704214, Note_on_c, 0, 65, 74
2, 704304, Note_on_c, 0, 58, 87
2, 704308, Note_off_c, 0, 65, 59
2, 704310, Note_off_c, 0, 60, 61
2, 704406, Note_off_c, 0, 58, 61
2, 704408, Note_on_c, 0, 57, 85
2, 704410, Note_on_c, 0, 65, 87
2, 704505, Note_off_c, 0, 65, 61
2, 704508, Note_on_c, 0, 55, 82
2, 704509, Note_off_c, 0, 57, 61
2, 704578, Note_on_c, 0, 53, 80
2, 704585, Note_off_c, 0, 55, 60
2, 704586, Note_on_c, 0, 60, 74
2, 704670, Note_off_c, 0, 53, 60
2, 704675, Note_on_c, 0, 52, 78
2, 704680, Note_off_c, 0, 60, 59
2, 704774, Note_on_c, 0, 69, 75
2, 704779, Note_off_c, 0, 52, 59
2, 704781, Note_on_c, 0, 53, 76
2, 704877, Note_off_c, 0, 69, 59
2, 704878, Note_on_c, 0, 52, 74
2, 704887, Note_off_c, 0, 53, 59
2, 704971, Note_on_c, 0, 69, 82
2, 704972, Note_off_c, 0, 52, 59
2, 704974, Note_on_c, 0, 50, 71
2, 705067, Note_off_c, 0, 69, 60
2, 705076, Note_on_c, 0, 48, 69
2, 705078, Note_off_c, 0, 50, 58
2, 705163, Note_off_c, 0, 48, 57
2, 705172, Note_on_c, 0, 46, 67
2, 705176, Note_on_c, 0, 69, 86
2, 705267, Note_off_c, 0, 69, 61
2, 705270, Note_off_c, 0, 46, 57
2, 705274, Note_on_c, 0, 45, 65
2, 705364, Note_on_c, 0, 65, 74
2, 705371, Note_off_c, 0, 45, 56
2, 705373, Note_on_c, 0, 43, 63
2, 705442, Note_off_c, 0, 65, 59
2, 705444, Note_on_c, 0, 41, 62
2, 705454, Note_off_c, 0, 43, 55
2, 705544, Note_on_c, 0, 72, 74
2, 705547, Note_off_c, 0, 41, 55
2, 705552, Note_on_c, 0, 40, 63
2, 705637, Note_off_c, 0, 40, 55
2, 705643, Note_on_c, 0, 41, 65
2, 705650, Note_off_c, 0, 72, 59
2, 705746, Note_off_c, 0, 41, 56
2, 705748, Note_on_c, 0, 43, 67
2, 705749, Note_on_c, 0, 72, 78
2, 705839, Note_on_c, 0, 41, 70
2, 705842, Note_off_c, 0, 43, 57
2, 705850, Note_off_c, 0, 72, 59
2, 705932, Note_off_c, 0, 41, 57
2, 705937, Note_on_c, 0, 72, 84
2, 705950, Note_on_c, 0, 40, 72
2, 706041, Note_off_c, 0, 40, 58
2, 706043, Note_on_c, 0, 74, 86
2, 706045, Note_on_c, 0, 36, 75
2, 706065, Note_off_c, 0, 72, 61
2, 706137, Note_off_c, 0, 36, 59
2, 706140, Note_on_c, 0, 38, 78
2, 706144, Note_on_c, 0, 72, 87
2, 706168, Note_off_c, 0, 74, 61
2, 706217, Note_on_c, 0, 40, 81
2, 706223, Note_off_c, 0, 38, 59
2, 706224, Note_on_c, 0, 70, 80
2, 706256, Note_off_c, 0, 72, 61
2, 706314, Note_on_c, 0, 69, 75
2, 706319, Note_on_c, 0, 41, 89
2, 706324, Note_off_c, 0, 40, 60
2, 706347, Note_off_c, 0, 70, 60
2, 706407, Note_off_c, 0, 69, 59
2, 706416, Note_on_c, 0, 72, 74
2, 706511, Note_off_c, 0, 72, 59
2, 706513, Note_on_c, 0, 67, 76
2, 706515, Note_on_c, 0, 39, 93
2, 706518, Note_off_c, 0, 41, 62
2, 706601, Note_off_c, 0, 67, 59
2, 706615, Note_on_c, 0, 73, 76
2, 706705, Note_on_c, 0, 38, 92
2, 706712, Note_on_c, 0, 66, 78
2, 706715, Note_off_c, 0, 73, 59
2, 706717, Note_off_c, 0, 39, 63
2, 706806, Note_off_c, 0, 66, 59
2, 706808, Note_on_c, 0, 74, 79
2, 706904, Note_on_c, 0, 42, 92
2, 706907, Note_off_c, 0, 74, 60
2, 706909, Note_off_c, 0, 38, 62
2, 706911, Note_on_c, 0, 69, 80
2, 707000, Note_on_c, 0, 72, 83
2, 707010, Note_off_c, 0, 69, 60
2, 707069, Note_off_c, 0, 42, 62
2, 707082, Note_off_c, 0, 72, 60
2, 707084, Note_on_c, 0, 70, 84
2, 707089, Note_on_c, 0, 43, 99
2, 707189, Note_off_c, 0, 43, 64
2, 707274, Note_off_c, 0, 70, 61
2, 707280, Note_on_c, 0, 43, 99
2, 707283, Note_on_c, 0, 86, 75
2, 707373, Note_off_c, 0, 43, 64
2, 707376, Note_off_c, 0, 86, 59
2, 707385, Note_on_c, 0, 84, 74
2, 707475, Note_on_c, 0, 43, 98
2, 707483, Note_off_c, 0, 84, 59
2, 707485, Note_on_c, 0, 82, 73
2, 707566, Note_off_c, 0, 43, 64
2, 707584, Note_on_c, 0, 81, 72
2, 707586, Note_off_c, 0, 82, 58
2, 707670, Note_on_c, 0, 79, 72
2, 707679, Note_on_c, 0, 38, 99
2, 707684, Note_off_c, 0, 81, 58
2, 707763, Note_off_c, 0, 79, 58
2, 707771, Note_on_c, 0, 78, 70
2, 707773, Note_off_c, 0, 38, 64
2, 707849, Note_on_c, 0, 46, 99
2, 707852, Note_off_c, 0, 78, 57
2, 707859, Note_on_c, 0, 79, 70
2, 707951, Note_off_c, 0, 46, 64
2, 707953, Note_off_c, 0, 79, 57
2, 707955, Note_on_c, 0, 77, 68
2, 708044, Note_off_c, 0, 77, 57
2, 708046, Note_on_c, 0, 75, 68
2, 708049, Note_on_c, 0, 46, 99
2, 708144, Note_off_c, 0, 46, 64
2, 708146, Note_off_c, 0, 75, 57
2, 708154, Note_on_c, 0, 74, 67
2, 708245, Note_on_c, 0, 72, 66
2, 708247, Note_on_c, 0, 46, 98
2, 708249, Note_off_c, 0, 74, 57
2, 708334, Note_off_c, 0, 46, 64
2, 708341, Note_off_c, 0, 72, 56
2, 708346, Note_on_c, 0, 70, 65
2, 708439, Note_on_c, 0, 69, 62
2, 708448, Note_off_c, 0, 70, 56
2, 708451, Note_on_c, 0, 43, 98
2, 708539, Note_off_c, 0, 43, 64
2, 708541, Note_off_c, 0, 69, 55
2, 708543, Note_on_c, 0, 67, 63
2, 708632, Note_off_c, 0, 67, 55
2, 708635, Note_on_c, 0, 66, 62
2, 708644, Note_on_c, 0, 50, 99
2, 708715, Note_off_c, 0, 66, 55
2, 708721, Note_off_c, 0, 50, 64
2, 708723, Note_on_c, 0, 67, 63
2, 708812, Note_on_c, 0, 69, 65
2, 708817, Note_on_c, 0, 50, 99
2, 708825, Note_off_c, 0, 67, 55
2, 708908, Note_off_c, 0, 69, 56
2, 708926, Note_off_c, 0, 50, 64
2, 708927, Note_on_c, 0, 67, 66
2, 709019, Note_on_c, 0, 66, 66
2, 709021, Note_on_c, 0, 50, 99
2, 709028, Note_off_c, 0, 67, 56
2, 709120, Note_off_c, 0, 66, 56
2, 709121, Note_on_c, 0, 62, 68
2, 709123, Note_on_c, 0, 51, 98
2, 709148, Note_off_c, 0, 50, 64
2, 709214, Note_off_c, 0, 62, 57
2, 709218, Note_on_c, 0, 50, 98
2, 709220, Note_on_c, 0, 64, 68
2, 709242, Note_off_c, 0, 51, 64
2, 709306, Note_on_c, 0, 48, 98
2, 709311, Note_off_c, 0, 64, 57
2, 709318, Note_on_c, 0, 66, 69
2, 709336, Note_off_c, 0, 50, 64
2, 709404, Note_off_c, 0, 48, 64
2, 709408, Note_on_c, 0, 67, 71
2, 709414, Note_off_c, 0, 66, 57
2, 709417, Note_on_c, 0, 46, 98
2, 709488, Note_off_c, 0, 67, 58
2, 709493, Note_on_c, 0, 62, 72
2, 709497, Note_off_c, 0, 46, 64
2, 709584, Note_off_c, 0, 62, 58
2, 709588, Note_on_c, 0, 67, 72
2, 709590, Note_on_c, 0, 46, 99
2, 709684, Note_off_c, 0, 46, 64
2, 709686, Note_on_c, 0, 62, 75
2, 709688, Note_off_c, 0, 67, 58
2, 709773, Note_off_c, 0, 62, 59
2, 709784, Note_on_c, 0, 67, 75
2, 709789, Note_on_c, 0, 46, 99
2, 709880, Note_on_c, 0, 62, 68
2, 709883, Note_off_c, 0, 67, 59
2, 709892, Note_on_c, 0, 48, 98
2, 709916, Note_off_c, 0, 46, 64
2, 709976, Note_off_c, 0, 62, 57
2, 709983, Note_on_c, 0, 46, 99
2, 709985, Note_on_c, 0, 69, 62
2, 710018, Note_off_c, 0, 48, 64
2, 710073, Note_off_c, 0, 69, 55
2, 710082, Note_on_c, 0, 62, 63
2, 710084, Note_on_c, 0, 45, 93
2, 710098, Note_off_c, 0, 46, 64
2, 710175, Note_on_c, 0, 70, 68
2, 710180, Note_on_c, 0, 43, 86
2, 710183, Note_off_c, 0, 62, 55
2, 710187, Note_off_c, 0, 45, 63
2, 710265, Note_off_c, 0, 70, 57
2, 710353, Note_on_c, 0, 67, 80
2, 710361, Note_off_c, 0, 43, 61
2, 710363, Note_on_c, 0, 62, 75
2, 710443, Note_off_c, 0, 67, 60
2, 710451, Note_off_c, 0, 62, 59
2, 710453, Note_on_c, 0, 60, 75
2, 710550, Note_on_c, 0, 67, 86
2, 710554, Note_off_c, 0, 60, 59
2, 710556, Note_on_c, 0, 58, 74
2, 710653, Note_off_c, 0, 67, 61
2, 710656, Note_on_c, 0, 57, 72
2, 710658, Note_off_c, 0, 58, 59
2, 710746, Note_off_c, 0, 57, 58
2, 710748, Note_on_c, 0, 62, 74
2, 710750, Note_on_c, 0, 55, 73
2, 710839, Note_off_c, 0, 62, 59
2, 710845, Note_off_c, 0, 55, 58
2, 710854, Note_on_c, 0, 54, 71
2, 710941, Note_on_c, 0, 55, 71
2, 710942, Note_on_c, 0, 70, 75
2, 710954, Note_off_c, 0, 54, 58
2, 711034, Note_off_c, 0, 55, 58
2, 711046, Note_off_c, 0, 70, 59
2, 711051, Note_on_c, 0, 53, 71
2, 711125, Note_on_c, 0, 51, 70
2, 711127, Note_on_c, 0, 70, 80
2, 711130, Note_off_c, 0, 53, 58
2, 711211, Note_off_c, 0, 51, 57
2, 711221, Note_off_c, 0, 70, 60
2, 711226, Note_on_c, 0, 50, 68
2, 711323, Note_on_c, 0, 70, 87
2, 711325, Note_on_c, 0, 48, 67
2, 711335, Note_off_c, 0, 50, 57
2, 711418, Note_on_c, 0, 46, 68
2, 711423, Note_off_c, 0, 48, 57
2, 711425, Note_off_c, 0, 70, 61
2, 711511, Note_off_c, 0, 46, 57
2, 711516, Note_on_c, 0, 67, 74
2, 711521, Note_on_c, 0, 45, 67
2, 711619, Note_on_c, 0, 43, 65
2, 711622, Note_off_c, 0, 67, 59
2, 711626, Note_off_c, 0, 45, 57
2, 711714, Note_on_c, 0, 42, 66
2, 711715, Note_on_c, 0, 74, 75
2, 711721, Note_off_c, 0, 43, 56
2, 711804, Note_off_c, 0, 74, 59
2, 711816, Note_off_c, 0, 42, 56
2, 711817, Note_on_c, 0, 43, 65
2, 711908, Note_off_c, 0, 43, 56
2, 711913, Note_on_c, 0, 45, 63
2, 711914, Note_on_c, 0, 74, 78
2, 711985, Note_off_c, 0, 74, 59
2, 711988, Note_off_c, 0, 45, 55
2, 711989, Note_on_c, 0, 43, 63
2, 712080, Note_off_c, 0, 43, 55
2, 712091, Note_on_c, 0, 42, 62
2, 712095, Note_on_c, 0, 74, 84
2, 712179, Note_off_c, 0, 42, 55
2, 712193, Note_on_c, 0, 75, 87
2, 712195, Note_on_c, 0, 38, 62
2, 712224, Note_off_c, 0, 74, 61
2, 712289, Note_off_c, 0, 38, 55
2, 712291, Note_on_c, 0, 40, 68
2, 712293, Note_on_c, 0, 74, 86
2, 712304, Note_off_c, 0, 75, 61
2, 712380, Note_off_c, 0, 40, 57
2, 712384, Note_on_c, 0, 72, 75
2, 712386, Note_on_c, 0, 42, 75
2, 712403, Note_off_c, 0, 74, 61
2, 712473, Note_off_c, 0, 72, 59
2, 712482, Note_off_c, 0, 42, 59
2, 712486, Note_on_c, 0, 70, 75
2, 712488, Note_on_c, 0, 43, 86
2, 712582, Note_on_c, 0, 74, 77
2, 712585, Note_off_c, 0, 70, 59
2, 712673, Note_off_c, 0, 74, 59
2, 712676, Note_on_c, 0, 42, 93
2, 712686, Note_off_c, 0, 43, 61
2, 712688, Note_on_c, 0, 76, 81
2, 712758, Note_on_c, 0, 70, 83
2, 712765, Note_off_c, 0, 76, 60
2, 712851, Note_on_c, 0, 77, 86
2, 712858, Note_on_c, 0, 41, 93
2, 712861, Note_off_c, 0, 70, 60
2, 712863, Note_off_c, 0, 42, 63
2, 712941, Note_off_c, 0, 77, 61
2, 712963, Note_on_c, 0, 69, 87
2, 713052, Note_on_c, 0, 45, 93
2, 713060, Note_off_c, 0, 41, 63
2, 713062, Note_on_c, 0, 75, 74
2, 713065, Note_off_c, 0, 69, 61
2, 713148, Note_on_c, 0, 72, 74
2, 713154, Note_off_c, 0, 75, 59
2, 713244, Note_off_c, 0, 45, 63
2, 713247, Note_on_c, 0, 74, 75
2, 713252, Note_off_c, 0, 72, 59
2, 713254, Note_on_c, 0, 46, 99
2, 713343, Note_off_c, 0, 46, 64
2, 713438, Note_off_c, 0, 74, 59
2, 713446, Note_on_c, 0, 89, 75
2, 713448, Note_on_c, 0, 46, 98
2, 713540, Note_off_c, 0, 46, 64
2, 713549, Note_off_c, 0, 89, 59
2, 713551, Note_on_c, 0, 87, 75
2, 713624, Note_off_c, 0, 87, 59
2, 713626, Note_on_c, 0, 46, 99
2, 713628, Note_on_c, 0, 86, 73
2, 713714, Note_off_c, 0, 46, 64
2, 713719, Note_off_c, 0, 86, 58
2, 713730, Note_on_c, 0, 84, 73
2, 713820, Note_on_c, 0, 82, 71
2, 713830, Note_off_c, 0, 84, 58
2, 713832, Note_on_c, 0, 41, 98
2, 713916, Note_off_c, 0, 82, 58
2, 713921, Note_on_c, 0, 81, 71
2, 713923, Note_off_c, 0, 41, 64
2, 714014, Note_on_c, 0, 82, 69
2, 714019, Note_on_c, 0, 50, 99
2, 714024, Note_off_c, 0, 81, 58
2, 714113, Note_off_c, 0, 82, 57
2, 714120, Note_off_c, 0, 50, 64
2, 714122, Note_on_c, 0, 81, 68
2, 714211, Note_off_c, 0, 81, 57
2, 714216, Note_on_c, 0, 50, 98
2, 714218, Note_on_c, 0, 79, 67
2, 714307, Note_off_c, 0, 50, 64
2, 714309, Note_off_c, 0, 79, 57
2, 714312, Note_on_c, 0, 77, 66
2, 714392, Note_off_c, 0, 77, 56
2, 714399, Note_on_c, 0, 50, 99
2, 714401, Note_on_c, 0, 75, 65
2, 714490, Note_off_c, 0, 75, 56
2, 714494, Note_on_c, 0, 74, 65
2, 714503, Note_off_c, 0, 50, 64
2, 714591, Note_on_c, 0, 46, 98
2, 714593, Note_off_c, 0, 74, 56
2, 714595, Note_on_c, 0, 72, 62
2, 714677, Note_off_c, 0, 46, 64
2, 714689, Note_on_c, 0, 70, 62
2, 714696, Note_off_c, 0, 72, 55
2, 714787, Note_off_c, 0, 70, 55
2, 714789, Note_on_c, 0, 53, 99
2, 714792, Note_on_c, 0, 69, 62
2, 714876, Note_off_c, 0, 53, 64
2, 714881, Note_off_c, 0, 69, 55
2, 714886, Note_on_c, 0, 70, 66
2, 714979, Note_off_c, 0, 70, 56
2, 714984, Note_on_c, 0, 53, 99
2, 714988, Note_on_c, 0, 72, 69
2, 715080, Note_off_c, 0, 72, 57
2, 715083, Note_off_c, 0, 53, 64
2, 715084, Note_on_c, 0, 70, 71
2, 715177, Note_on_c, 0, 69, 75
2, 715183, Note_off_c, 0, 70, 58
2, 715185, Note_on_c, 0, 53, 99
2, 715256, Note_on_c, 0, 65, 74
2, 715261, Note_off_c, 0, 69, 59
2, 715262, Note_on_c, 0, 55, 98
2, 715283, Note_off_c, 0, 53, 64
2, 715356, Note_off_c, 0, 65, 59
2, 715358, Note_on_c, 0, 67, 74
2, 715361, Note_on_c, 0, 53, 99
2, 715389, Note_off_c, 0, 55, 64
2, 715455, Note_on_c, 0, 69, 73
2, 715459, Note_on_c, 0, 51, 98
2, 715461, Note_off_c, 0, 67, 59
2, 715485, Note_off_c, 0, 53, 64
2, 715545, Note_off_c, 0, 69, 58
2, 715554, Note_off_c, 0, 51, 64
2, 715560, Note_on_c, 0, 50, 88
2, 715562, Note_on_c, 0, 70, 72
2, 715651, Note_off_c, 0, 70, 58
2, 715654, Note_on_c, 0, 65, 70
2, 715726, Note_off_c, 0, 65, 57
2, 715730, Note_off_c, 0, 50, 62
2, 715751, Note_on_c, 0, 50, 98
2, 715753, Note_on_c, 0, 70, 68
2, 715855, Note_off_c, 0, 70, 57
2, 715858, Note_on_c, 0, 65, 67
2, 715903, Note_off_c, 0, 50, 64
2, 715913, Note_off_c, 0, 65, 57
2, 715944, Note_on_c, 0, 70, 67
2, 715946, Note_on_c, 0, 50, 99
2, 716018, Note_off_c, 0, 70, 57
2, 716029, Note_on_c, 0, 65, 66
2, 716034, Note_on_c, 0, 51, 98
2, 716047, Note_off_c, 0, 50, 64
2, 716127, Note_on_c, 0, 50, 98
2, 716129, Note_off_c, 0, 65, 56
2, 716131, Note_on_c, 0, 72, 65
2, 716167, Note_off_c, 0, 51, 64
2, 716228, Note_on_c, 0, 48, 99
2, 716230, Note_on_c, 0, 65, 62
2, 716232, Note_off_c, 0, 72, 56
2, 716241, Note_off_c, 0, 50, 64
2, 716324, Note_on_c, 0, 73, 50
2, 716326, Note_on_c, 0, 46, 99
2, 716328, Note_off_c, 0, 65, 55
2, 716333, Note_off_c, 0, 48, 64
2, 716512, Note_off_c, 0, 73, 52
2, 716515, Note_off_c, 0, 46, 64
2, 716524, Note_on_c, 0, 70, 56
2, 716526, Note_on_c, 0, 58, 44
2, 716531, Control_c, 0, 64, 127
2, 716618, Note_on_c, 0, 82, 56
2, 716621, Note_off_c, 0, 58, 51
2, 716623, Note_on_c, 0, 61, 44
2, 716626, Note_off_c, 0, 70, 54
2, 716711, Note_off_c, 0, 82, 54
2, 716717, Note_on_c, 0, 70, 57
2, 716719, Note_off_c, 0, 61, 51
2, 716725, Note_on_c, 0, 58, 45
2, 716788, Note_off_c, 0, 70, 54
2, 716798, Note_off_c, 0, 58, 51
2, 716800, Note_on_c, 0, 61, 45
2, 716801, Note_on_c, 0, 82, 58
2, 716889, Note_off_c, 0, 61, 51
2, 716899, Note_on_c, 0, 65, 57
2, 716901, Note_on_c, 0, 58, 45
2, 716904, Note_off_c, 0, 82, 54
2, 716909, Control_c, 0, 64, 0
2, 716990, Note_off_c, 0, 65, 54
2, 716992, Note_off_c, 0, 58, 51
2, 716995, Note_on_c, 0, 61, 46
2, 717001, Note_on_c, 0, 77, 58
2, 717091, Note_off_c, 0, 61, 51
2, 717096, Note_on_c, 0, 58, 47
2, 717101, Note_off_c, 0, 77, 54
2, 717103, Note_on_c, 0, 73, 59
2, 717106, Control_c, 0, 64, 127
2, 717185, Note_off_c, 0, 58, 51
2, 717188, Note_on_c, 0, 85, 59
2, 717194, Note_off_c, 0, 73, 54
2, 717197, Note_on_c, 0, 61, 47
2, 717295, Note_off_c, 0, 85, 54
2, 717297, Note_on_c, 0, 58, 49
2, 717299, Note_on_c, 0, 73, 61
2, 717301, Note_off_c, 0, 61, 51
2, 717380, Note_off_c, 0, 58, 52
2, 717396, Note_off_c, 0, 73, 55
2, 717398, Note_on_c, 0, 85, 61
2, 717400, Note_on_c, 0, 61, 48
2, 717487, Control_c, 0, 64, 0
2, 717489, Note_on_c, 0, 58, 50
2, 717492, Note_on_c, 0, 73, 61
2, 717493, Note_off_c, 0, 85, 55
2, 717497, Note_off_c, 0, 61, 52
2, 717580, Note_off_c, 0, 58, 52
2, 717583, Note_on_c, 0, 85, 61
2, 717592, Note_on_c, 0, 61, 50
2, 717595, Note_off_c, 0, 73, 55
2, 717662, Note_off_c, 0, 85, 55
2, 717669, Note_off_c, 0, 61, 52
2, 717672, Note_on_c, 0, 58, 50
2, 717674, Note_on_c, 0, 70, 62
2, 717758, Note_on_c, 0, 82, 64
2, 717765, Note_off_c, 0, 70, 55
2, 717768, Note_on_c, 0, 61, 51
2, 717774, Note_off_c, 0, 58, 52
2, 717863, Note_off_c, 0, 82, 56
2, 717864, Note_on_c, 0, 53, 52
2, 717866, Note_off_c, 0, 61, 52
2, 717868, Note_on_c, 0, 77, 63
2, 717876, Control_c, 0, 64, 127
2, 717959, Note_on_c, 0, 89, 64
2, 717965, Note_off_c, 0, 77, 55
2, 717967, Note_off_c, 0, 53, 53
2, 717969, Note_on_c, 0, 60, 53
2, 718055, Note_off_c, 0, 89, 56
2, 718060, Note_off_c, 0, 60, 53
2, 718063, Note_on_c, 0, 57, 53
2, 718065, Note_on_c, 0, 77, 65
2, 718152, Note_on_c, 0, 89, 65
2, 718157, Note_off_c, 0, 77, 56
2, 718159, Note_off_c, 0, 57, 53
2, 718161, Note_on_c, 0, 60, 54
2, 718249, Note_off_c, 0, 89, 56
2, 718251, Control_c, 0, 64, 0
2, 718254, Note_on_c, 0, 77, 66
2, 718260, Note_off_c, 0, 60, 53
2, 718262, Note_on_c, 0, 57, 55
2, 718345, Note_off_c, 0, 77, 56
2, 718348, Note_off_c, 0, 57, 53
2, 718358, Note_on_c, 0, 60, 55
2, 718360, Note_on_c, 0, 89, 66
2, 718436, Note_off_c, 0, 60, 53
2, 718438, Note_on_c, 0, 57, 56
2, 718440, Note_on_c, 0, 75, 68
2, 718442, Note_off_c, 0, 89, 56
2, 718526, Note_off_c, 0, 75, 57
2, 718528, Note_off_c, 0, 57, 54
2, 718531, Note_on_c, 0, 60, 55
2, 718532, Note_on_c, 0, 87, 67
2, 718627, Note_off_c, 0, 87, 57
2, 718630, Note_off_c, 0, 60, 53
2, 718632, Note_on_c, 0, 73, 69
2, 718632, Note_on_c, 0, 58, 57
2, 718637, Control_c, 0, 64, 127
2, 718730, Note_on_c, 0, 85, 69
2, 718733, Note_off_c, 0, 58, 54
2, 718735, Note_off_c, 0, 73, 57
2, 718736, Note_on_c, 0, 61, 57
2, 718819, Note_off_c, 0, 85, 57
2, 718822, Note_off_c, 0, 61, 54
2, 718828, Note_on_c, 0, 73, 70
2, 718831, Note_on_c, 0, 58, 58
2, 718925, Note_off_c, 0, 58, 54
2, 718927, Note_on_c, 0, 61, 59
2, 718931, Note_off_c, 0, 73, 57
2, 718933, Note_on_c, 0, 85, 70
2, 719013, Control_c, 0, 64, 0
2, 719020, Note_off_c, 0, 85, 57
2, 719024, Note_off_c, 0, 61, 54
2, 719026, Note_on_c, 0, 73, 70
2, 719032, Note_on_c, 0, 58, 59
2, 719119, Note_off_c, 0, 73, 57
2, 719124, Note_on_c, 0, 61, 60
2, 719126, Note_on_c, 0, 85, 72
2, 719134, Note_off_c, 0, 58, 54
2, 719214, Note_off_c, 0, 85, 58
2, 719217, Note_on_c, 0, 70, 71
2, 719227, Note_off_c, 0, 61, 55
2, 719229, Note_on_c, 0, 58, 59
2, 719292, Note_off_c, 0, 70, 58
2, 719299, Note_off_c, 0, 58, 54
2, 719304, Note_on_c, 0, 61, 61
2, 719308, Note_on_c, 0, 82, 72
2, 719399, Note_off_c, 0, 82, 58
2, 719402, Note_on_c, 0, 77, 74
2, 719403, Note_on_c, 0, 53, 61
2, 719406, Note_off_c, 0, 61, 55
2, 719410, Control_c, 0, 64, 127
2, 719492, Note_off_c, 0, 53, 55
2, 719499, Note_on_c, 0, 89, 73
2, 719501, Note_on_c, 0, 60, 61
2, 719503, Note_off_c, 0, 77, 59
2, 719594, Note_off_c, 0, 89, 58
2, 719596, Note_off_c, 0, 60, 55
2, 719603, Note_on_c, 0, 77, 74
2, 719605, Note_on_c, 0, 57, 62
2, 719694, Note_off_c, 0, 57, 55
2, 719697, Note_on_c, 0, 89, 74
2, 719698, Note_off_c, 0, 77, 59
2, 719704, Note_on_c, 0, 60, 63
2, 719786, Control_c, 0, 64, 0
2, 719794, Note_off_c, 0, 89, 59
2, 719796, Note_on_c, 0, 57, 63
2, 719798, Note_on_c, 0, 77, 76
2, 719802, Note_off_c, 0, 60, 55
2, 719889, Note_off_c, 0, 57, 55
2, 719899, Note_on_c, 0, 89, 77
2, 719902, Note_off_c, 0, 77, 59
2, 719904, Note_on_c, 0, 60, 65
2, 719987, Note_on_c, 0, 75, 76
2, 719990, Note_off_c, 0, 60, 56
2, 719995, Note_off_c, 0, 89, 59
2, 719997, Note_on_c, 0, 57, 65
2, 720059, Note_off_c, 0, 75, 59
2, 720068, Note_off_c, 0, 57, 56
2, 720070, Note_on_c, 0, 87, 78
2, 720072, Note_on_c, 0, 60, 66
2, 720161, Note_off_c, 0, 87, 59
2, 720165, Note_off_c, 0, 60, 56
2, 720173, Note_on_c, 0, 58, 65
2, 720175, Note_on_c, 0, 73, 78
2, 720180, Control_c, 0, 64, 127
2, 720261, Note_off_c, 0, 73, 59
2, 720263, Note_off_c, 0, 58, 56
2, 720265, Note_on_c, 0, 61, 66
2, 720267, Note_on_c, 0, 85, 78
2, 720362, Note_on_c, 0, 58, 68
2, 720367, Note_off_c, 0, 61, 56
2, 720369, Note_on_c, 0, 73, 79
2, 720372, Note_off_c, 0, 85, 59
2, 720458, Note_off_c, 0, 58, 57
2, 720462, Note_off_c, 0, 73, 60
2, 720464, Note_on_c, 0, 61, 68
2, 720466, Note_on_c, 0, 85, 80
2, 720552, Note_off_c, 0, 61, 57
2, 720559, Control_c, 0, 64, 0
2, 720561, Note_off_c, 0, 85, 60
2, 720563, Note_on_c, 0, 73, 81
2, 720565, Note_on_c, 0, 58, 68
2, 720652, Note_off_c, 0, 73, 60
2, 720655, Note_off_c, 0, 58, 57
2, 720657, Note_on_c, 0, 85, 80
2, 720666, Note_on_c, 0, 61, 68
2, 720760, Note_off_c, 0, 85, 60
2, 720762, Note_on_c, 0, 72, 82
2, 720764, Note_on_c, 0, 60, 69
2, 720768, Note_off_c, 0, 61, 57
2, 720854, Note_off_c, 0, 72, 60
2, 720858, Note_off_c, 0, 60, 57
2, 720863, Note_on_c, 0, 84, 82
2, 720865, Note_on_c, 0, 63, 69
2, 720938, Note_off_c, 0, 63, 57
2, 720943, Note_on_c, 0, 61, 71
2, 720945, Note_on_c, 0, 70, 83
2, 720947, Note_off_c, 0, 84, 60
2, 720952, Control_c, 0, 64, 127
2, 721034, Note_off_c, 0, 70, 60
2, 721036, Note_on_c, 0, 65, 71
2, 721042, Note_off_c, 0, 61, 58
2, 721044, Note_on_c, 0, 82, 84
2, 721130, Note_off_c, 0, 65, 58
2, 721132, Note_on_c, 0, 61, 71
2, 721139, Note_off_c, 0, 82, 61
2, 721141, Note_on_c, 0, 70, 84
2, 721221, Note_off_c, 0, 61, 58
2, 721231, Note_off_c, 0, 70, 61
2, 721233, Note_on_c, 0, 82, 85
2, 721237, Note_on_c, 0, 65, 72
2, 721323, Note_off_c, 0, 82, 61
2, 721329, Control_c, 0, 64, 0
2, 721331, Note_off_c, 0, 65, 58
2, 721339, Note_on_c, 0, 70, 84
2, 721341, Note_on_c, 0, 61, 73
2, 721430, Note_off_c, 0, 70, 61
2, 721434, Note_off_c, 0, 61, 58
2, 721437, Note_on_c, 0, 65, 73
2, 721439, Note_on_c, 0, 82, 85
2, 721526, Note_on_c, 0, 60, 75
2, 721527, Note_on_c, 0, 68, 86
2, 721533, Note_off_c, 0, 65, 58
2, 721536, Note_off_c, 0, 82, 61
2, 721618, Note_off_c, 0, 60, 59
2, 721624, Note_on_c, 0, 63, 75
2, 721627, Note_on_c, 0, 80, 86
2, 721628, Note_off_c, 0, 68, 61
2, 721696, Note_off_c, 0, 80, 61
2, 721698, Note_off_c, 0, 63, 59
2, 721704, Note_on_c, 0, 66, 88
2, 721710, Note_on_c, 0, 58, 75
2, 721713, Control_c, 0, 64, 127
2, 721804, Note_off_c, 0, 58, 59
2, 721806, Note_off_c, 0, 66, 62
2, 721808, Note_on_c, 0, 78, 87
2, 721810, Note_on_c, 0, 61, 75
2, 721899, Note_on_c, 0, 58, 76
2, 721908, Note_off_c, 0, 61, 59
2, 721910, Note_off_c, 0, 78, 61
2, 721912, Note_on_c, 0, 66, 88
2, 722003, Note_off_c, 0, 58, 59
2, 722005, Note_on_c, 0, 61, 77
2, 722008, Note_off_c, 0, 66, 62
2, 722010, Note_on_c, 0, 78, 90
2, 722091, Control_c, 0, 64, 0
2, 722099, Note_off_c, 0, 78, 62
2, 722101, Note_on_c, 0, 58, 77
2, 722104, Note_off_c, 0, 61, 59
2, 722107, Note_on_c, 0, 66, 90
2, 722184, Note_off_c, 0, 58, 59
2, 722201, Note_off_c, 0, 66, 62
2, 722203, Note_on_c, 0, 61, 79
2, 722205, Note_on_c, 0, 78, 90
2, 722291, Note_off_c, 0, 61, 60
2, 722294, Note_on_c, 0, 56, 79
2, 722296, Note_on_c, 0, 65, 90
2, 722298, Note_off_c, 0, 78, 62
2, 722380, Note_off_c, 0, 56, 60
2, 722382, Note_off_c, 0, 65, 62
2, 722397, Note_on_c, 0, 60, 79
2, 722398, Note_on_c, 0, 77, 92
2, 722491, Note_on_c, 0, 64, 93
2, 722494, Note_off_c, 0, 60, 60
2, 722497, Note_off_c, 0, 77, 62
2, 722499, Note_on_c, 0, 55, 81
2, 722504, Control_c, 0, 64, 127
2, 722570, Note_off_c, 0, 64, 63
2, 722576, Note_off_c, 0, 55, 60
2, 722578, Note_on_c, 0, 76, 92
2, 722580, Note_on_c, 0, 58, 81
2, 722666, Note_off_c, 0, 58, 60
2, 722671, Note_on_c, 0, 55, 81
2, 722673, Note_on_c, 0, 64, 93
2, 722680, Note_off_c, 0, 76, 62
2, 722764, Note_off_c, 0, 55, 60
2, 722766, Note_on_c, 0, 76, 92
2, 722770, Note_off_c, 0, 64, 63
2, 722772, Note_on_c, 0, 58, 79
2, 722866, Note_off_c, 0, 76, 62
2, 722872, Note_off_c, 0, 58, 60
2, 722873, Note_on_c, 0, 55, 80
2, 722875, Note_on_c, 0, 64, 92
2, 722879, Control_c, 0, 64, 0
2, 722965, Note_off_c, 0, 55, 60
2, 722967, Note_off_c, 0, 64, 62
2, 722970, Note_on_c, 0, 58, 78
2, 722972, Note_on_c, 0, 76, 91
2, 723059, Note_off_c, 0, 58, 59
2, 723065, Note_on_c, 0, 67, 90
2, 723067, Note_on_c, 0, 55, 78
2, 723070, Note_off_c, 0, 76, 62
2, 723156, Note_off_c, 0, 67, 62
2, 723162, Note_off_c, 0, 55, 59
2, 723165, Note_on_c, 0, 79, 89
2, 723167, Note_on_c, 0, 58, 77
2, 723261, Note_off_c, 0, 58, 59
2, 723263, Note_off_c, 0, 79, 62
2, 723265, Note_on_c, 0, 56, 77
2, 723270, Note_on_c, 0, 65, 90
2, 723341, Note_off_c, 0, 56, 59
2, 723343, Note_on_c, 0, 60, 76
2, 723345, Note_on_c, 0, 77, 88
2, 723350, Note_off_c, 0, 65, 62
2, 723441, Note_off_c, 0, 60, 59
2, 723443, Note_on_c, 0, 56, 75
2, 723445, Note_off_c, 0, 77, 62
2, 723445, Note_on_c, 0, 68, 88
2, 723534, Note_off_c, 0, 56, 59
2, 723536, Note_off_c, 0, 68, 62
2, 723538, Note_on_c, 0, 60, 75
2, 723542, Note_on_c, 0, 80, 88
2, 723633, Note_off_c, 0, 60, 59
2, 723638, Note_on_c, 0, 52, 74
2, 723640, Note_off_c, 0, 80, 62
2, 723645, Note_on_c, 0, 67, 87
2, 723729, Note_on_c, 0, 60, 75
2, 723737, Note_off_c, 0, 67, 61
2, 723738, Note_off_c, 0, 52, 59
2, 723740, Note_on_c, 0, 79, 87
2, 723828, Note_off_c, 0, 79, 61
2, 723829, Note_off_c, 0, 60, 59
2, 723831, Note_on_c, 0, 70, 85
2, 723833, Note_on_c, 0, 52, 74
2, 723933, Note_off_c, 0, 70, 61
2, 723935, Note_off_c, 0, 52, 59
2, 723937, Note_on_c, 0, 82, 85
2, 723940, Note_on_c, 0, 60, 73
2, 724031, Note_on_c, 0, 68, 85
2, 724033, Note_off_c, 0, 60, 58
2, 724035, Note_on_c, 0, 53, 73
2, 724039, Note_off_c, 0, 82, 61
2, 724124, Note_off_c, 0, 53, 58
2, 724127, Note_off_c, 0, 68, 61
2, 724129, Note_on_c, 0, 80, 84
2, 724136, Note_on_c, 0, 60, 72
2, 724205, Note_off_c, 0, 60, 58
2, 724207, Note_off_c, 0, 80, 61
2, 724209, Note_on_c, 0, 72, 83
2, 724213, Note_on_c, 0, 53, 71
2, 724295, Note_off_c, 0, 72, 60
2, 724307, Note_off_c, 0, 53, 58
2, 724309, Note_on_c, 0, 60, 70
2, 724311, Note_on_c, 0, 84, 84
2, 724401, Note_on_c, 0, 69, 83
2, 724406, Note_off_c, 0, 84, 61
2, 724410, Note_off_c, 0, 60, 57
2, 724412, Note_on_c, 0, 51, 71
2, 724498, Note_off_c, 0, 69, 60
2, 724501, Note_on_c, 0, 81, 82
2, 724508, Note_on_c, 0, 53, 69
2, 724511, Note_off_c, 0, 51, 58
2, 724599, Note_off_c, 0, 81, 60
2, 724601, Note_on_c, 0, 51, 68
2, 724604, Note_on_c, 0, 72, 81
2, 724610, Note_off_c, 0, 53, 57
2, 724695, Note_off_c, 0, 51, 57
2, 724701, Note_off_c, 0, 72, 60
2, 724703, Note_on_c, 0, 53, 69
2, 724705, Note_on_c, 0, 84, 81
2, 724787, Note_off_c, 0, 53, 57
2, 724798, Note_off_c, 0, 84, 60
2, 724803, Note_on_c, 0, 49, 68
2, 724805, Note_on_c, 0, 70, 80
2, 724894, Note_off_c, 0, 70, 60
2, 724896, Note_on_c, 0, 82, 82
2, 724898, Note_on_c, 0, 53, 70
2, 724902, Note_off_c, 0, 49, 57
2, 724975, Note_off_c, 0, 53, 57
2, 724977, Note_on_c, 0, 73, 83
2, 724979, Note_off_c, 0, 82, 60
2, 724981, Note_on_c, 0, 49, 71
2, 725075, Note_off_c, 0, 49, 58
2, 725077, Note_off_c, 0, 73, 60
2, 725079, Note_on_c, 0, 85, 85
2, 725081, Note_on_c, 0, 53, 73
2, 725171, Note_off_c, 0, 53, 58
2, 725173, Note_on_c, 0, 72, 86
2, 725175, Note_on_c, 0, 45, 74
2, 725178, Note_off_c, 0, 85, 61
2, 725271, Note_off_c, 0, 72, 61
2, 725273, Note_on_c, 0, 53, 76
2, 725275, Note_off_c, 0, 45, 59
2, 725277, Note_on_c, 0, 84, 88
2, 725367, Note_off_c, 0, 84, 62
2, 725372, Note_off_c, 0, 53, 59
2, 725375, Note_on_c, 0, 45, 77
2, 725377, Note_on_c, 0, 75, 89
2, 725466, Note_on_c, 0, 53, 79
2, 725468, Note_off_c, 0, 45, 59
2, 725471, Note_on_c, 0, 87, 91
2, 725474, Note_off_c, 0, 75, 62
2, 725557, Note_off_c, 0, 53, 60
2, 725564, Note_off_c, 0, 87, 62
2, 725569, Note_on_c, 0, 46, 81
2, 725571, Note_on_c, 0, 73, 93
2, 725582, Control_c, 0, 64, 127
2, 725665, Note_off_c, 0, 46, 60
2, 725667, Note_on_c, 0, 53, 81
2, 725670, Note_off_c, 0, 73, 63
2, 725673, Note_on_c, 0, 85, 93
2, 725762, Note_on_c, 0, 46, 81
2, 725768, Note_on_c, 0, 73, 92
2, 725770, Note_off_c, 0, 85, 63
2, 725772, Note_off_c, 0, 53, 60
2, 725841, Note_off_c, 0, 46, 60
2, 725847, Note_off_c, 0, 73, 62
2, 725850, Note_on_c, 0, 85, 91
2, 725852, Note_on_c, 0, 53, 81
2, 725941, Note_on_c, 0, 73, 91
2, 725947, Note_on_c, 0, 46, 83
2, 725949, Note_off_c, 0, 85, 62
2, 725951, Note_off_c, 0, 53, 60
2, 725958, Control_c, 0, 64, 0
2, 726040, Note_off_c, 0, 73, 62
2, 726041, Note_on_c, 0, 53, 84
2, 726046, Note_on_c, 0, 85, 89
2, 726050, Note_off_c, 0, 46, 60
2, 726133, Note_off_c, 0, 53, 61
2, 726135, Note_off_c, 0, 85, 62
2, 726141, Note_on_c, 0, 48, 84
2, 726144, Note_on_c, 0, 72, 89
2, 726233, Note_off_c, 0, 72, 62
2, 726237, Note_on_c, 0, 53, 85
2, 726239, Note_off_c, 0, 48, 61
2, 726241, Note_on_c, 0, 84, 88
2, 726327, Note_off_c, 0, 53, 61
2, 726335, Note_off_c, 0, 84, 62
2, 726338, Note_on_c, 0, 71, 88
2, 726341, Note_on_c, 0, 49, 87
2, 726346, Control_c, 0, 64, 127
2, 726433, Note_on_c, 0, 53, 88
2, 726437, Note_off_c, 0, 49, 61
2, 726440, Note_off_c, 0, 71, 62
2, 726442, Note_on_c, 0, 83, 86
2, 726523, Note_off_c, 0, 53, 62
2, 726531, Note_off_c, 0, 83, 61
2, 726533, Note_on_c, 0, 71, 86
2, 726541, Note_on_c, 0, 49, 88
2, 726603, Note_off_c, 0, 71, 61
2, 726605, Note_off_c, 0, 49, 62
2, 726609, Note_on_c, 0, 53, 89
2, 726611, Note_on_c, 0, 83, 85
2, 726707, Note_off_c, 0, 53, 62
2, 726712, Note_on_c, 0, 49, 90
2, 726714, Note_on_c, 0, 71, 85
2, 726716, Note_off_c, 0, 83, 61
2, 726724, Control_c, 0, 64, 0
2, 726808, Note_off_c, 0, 49, 62
2, 726811, Note_on_c, 0, 53, 91
2, 726813, Note_on_c, 0, 83, 84
2, 726815, Note_off_c, 0, 71, 61
2, 726899, Note_off_c, 0, 83, 61
2, 726901, Note_on_c, 0, 77, 95
2, 726908, Note_off_c, 0, 53, 62
2, 726910, Note_on_c, 0, 37, 104
2, 726998, Note_off_c, 0, 77, 63
2, 727007, Note_off_c, 0, 37, 66
2, 727009, Note_on_c, 0, 49, 81
2, 727011, Note_on_c, 0, 89, 81
2, 727098, Note_off_c, 0, 49, 60
2, 727100, Note_off_c, 0, 89, 60
2, 727102, Note_on_c, 0, 36, 80
2, 727108, Note_on_c, 0, 76, 81
2, 727115, Control_c, 0, 64, 127
2, 727199, Note_off_c, 0, 76, 60
2, 727203, Note_off_c, 0, 36, 60
2, 727211, Note_on_c, 0, 88, 80
2, 727213, Note_on_c, 0, 48, 80
2, 727302, Note_off_c, 0, 48, 60
2, 727304, Note_on_c, 0, 36, 80
2, 727306, Note_off_c, 0, 88, 60
2, 727308, Note_on_c, 0, 76, 81
2, 727398, Note_off_c, 0, 36, 60
2, 727400, Note_on_c, 0, 48, 81
2, 727405, Note_on_c, 0, 88, 81
2, 727407, Note_off_c, 0, 76, 60
2, 727475, Note_off_c, 0, 88, 60
2, 727477, Note_on_c, 0, 76, 83
2, 727479, Note_off_c, 0, 48, 60
2, 727481, Note_on_c, 0, 36, 80
2, 727492, Control_c, 0, 64, 0
2, 727570, Note_off_c, 0, 36, 60
2, 727577, Note_off_c, 0, 76, 60
2, 727579, Note_on_c, 0, 48, 92
2, 727585, Note_on_c, 0, 88, 84
2, 727668, Note_off_c, 0, 48, 62
2, 727672, Note_off_c, 0, 88, 61
2, 727676, Note_on_c, 0, 40, 104
2, 727681, Note_on_c, 0, 70, 96
2, 727763, Note_off_c, 0, 40, 66
2, 727772, Note_off_c, 0, 70, 63
2, 727777, Note_on_c, 0, 82, 86
2, 727779, Note_on_c, 0, 52, 80
2, 727870, Note_off_c, 0, 52, 60
2, 727873, Note_off_c, 0, 82, 61
2, 727875, Note_on_c, 0, 69, 87
2, 727879, Control_c, 0, 64, 127
2, 727881, Note_on_c, 0, 41, 80
2, 727972, Note_off_c, 0, 69, 61
2, 727974, Note_on_c, 0, 53, 80
2, 727976, Note_on_c, 0, 81, 86
2, 727978, Note_off_c, 0, 41, 60
2, 728063, Note_off_c, 0, 81, 61
2, 728067, Note_on_c, 0, 41, 81
2, 728069, Note_on_c, 0, 69, 87
2, 728071, Note_off_c, 0, 53, 60
2, 728162, Note_off_c, 0, 41, 60
2, 728164, Note_off_c, 0, 69, 61
2, 728171, Note_on_c, 0, 81, 88
2, 728173, Note_on_c, 0, 53, 80
2, 728242, Note_off_c, 0, 53, 60
2, 728245, Note_on_c, 0, 69, 90
2, 728247, Note_on_c, 0, 41, 80
2, 728255, Note_off_c, 0, 81, 62
2, 728257, Control_c, 0, 64, 0
2, 728336, Note_off_c, 0, 69, 62
2, 728350, Note_on_c, 0, 81, 91
2, 728352, Note_on_c, 0, 53, 80
2, 728354, Note_off_c, 0, 41, 60
2, 728439, Note_off_c, 0, 53, 60
2, 728441, Note_on_c, 0, 75, 104
2, 728444, Note_off_c, 0, 81, 62
2, 728447, Note_on_c, 0, 33, 104
2, 728545, Note_off_c, 0, 75, 66
2, 728547, Note_on_c, 0, 87, 93
2, 728549, Note_off_c, 0, 33, 66
2, 728551, Note_on_c, 0, 45, 80
2, 728632, Note_off_c, 0, 87, 63
2, 728640, Note_on_c, 0, 34, 80
2, 728643, Note_off_c, 0, 45, 60
2, 728645, Note_on_c, 0, 74, 93
2, 728736, Note_off_c, 0, 34, 60
2, 728744, Note_on_c, 0, 46, 79
2, 728833, Note_off_c, 0, 74, 63
2, 728836, Note_on_c, 0, 34, 76
2, 728842, Note_off_c, 0, 46, 60
2, 728844, Note_on_c, 0, 86, 89
2, 728932, Note_off_c, 0, 34, 59
2, 728938, Note_on_c, 0, 85, 87
2, 728940, Note_on_c, 0, 46, 74
2, 728965, Note_off_c, 0, 86, 62
2, 729030, Note_on_c, 0, 86, 86
2, 729038, Note_on_c, 0, 34, 72
2, 729042, Note_off_c, 0, 46, 59
2, 729062, Note_off_c, 0, 85, 61
2, 729111, Note_off_c, 0, 34, 58
2, 729118, Note_on_c, 0, 84, 85
2, 729120, Note_on_c, 0, 46, 70
2, 729138, Note_off_c, 0, 86, 61
2, 729209, Note_off_c, 0, 46, 57
2, 729211, Note_on_c, 0, 82, 82
2, 729213, Note_on_c, 0, 35, 68
2, 729250, Note_off_c, 0, 84, 61
2, 729304, Note_off_c, 0, 35, 57
2, 729311, Note_on_c, 0, 47, 67
2, 729314, Note_on_c, 0, 81, 81
2, 729344, Note_off_c, 0, 82, 60
2, 729405, Note_on_c, 0, 79, 79
2, 729411, Note_on_c, 0, 36, 65
2, 729414, Note_off_c, 0, 47, 57
2, 729434, Note_off_c, 0, 81, 60
2, 729505, Note_on_c, 0, 77, 78
2, 729507, Note_on_c, 0, 48, 62
2, 729512, Note_off_c, 0, 36, 56
2, 729529, Note_off_c, 0, 79, 60
2, 729600, Note_on_c, 0, 36, 61
2, 729606, Note_off_c, 0, 48, 55
2, 729608, Note_on_c, 0, 76, 76
2, 729640, Note_off_c, 0, 77, 59
2, 729691, Note_off_c, 0, 36, 55
2, 729701, Note_on_c, 0, 74, 75
2, 729706, Note_on_c, 0, 48, 58
2, 729728, Note_off_c, 0, 76, 59
2, 729797, Note_off_c, 0, 48, 54
2, 729802, Note_on_c, 0, 72, 73
2, 729807, Note_on_c, 0, 36, 56
2, 729825, Note_off_c, 0, 74, 59
2, 729885, Note_on_c, 0, 70, 70
2, 729889, Note_off_c, 0, 36, 54
2, 729890, Note_on_c, 0, 48, 55
2, 729916, Note_off_c, 0, 72, 58
2, 729977, Note_off_c, 0, 48, 53
2, 729982, Note_on_c, 0, 69, 68
2, 729984, Note_on_c, 0, 36, 52
2, 730007, Note_off_c, 0, 70, 57
2, 730073, Note_off_c, 0, 36, 53
2, 730076, Note_on_c, 0, 67, 68
2, 730081, Note_on_c, 0, 48, 51
2, 730117, Note_off_c, 0, 69, 57
2, 730174, Note_off_c, 0, 48, 52
2, 730176, Note_off_c, 0, 67, 57
2, 730178, Note_on_c, 0, 41, 53
2, 730180, Note_on_c, 0, 65, 56
2, 730182, Note_on_c, 0, 53, 48
2, 730269, Note_off_c, 0, 53, 52
2, 730280, Note_off_c, 0, 65, 54
2, 730368, Note_on_c, 0, 60, 47
2, 730377, Note_on_c, 0, 53, 32
2, 730379, Note_on_c, 0, 57, 40
2, 730470, Note_off_c, 0, 53, 48
2, 730472, Note_off_c, 0, 60, 51
2, 730481, Note_off_c, 0, 57, 50
2, 730573, Note_on_c, 0, 60, 59
2, 730575, Note_on_c, 0, 53, 43
2, 730577, Note_on_c, 0, 57, 53
2, 730689, Note_off_c, 0, 57, 53
2, 730690, Note_off_c, 0, 60, 54
2, 730692, Note_off_c, 0, 53, 50
2, 730781, Note_off_c, 0, 41, 53
2, 730785, Note_on_c, 0, 65, 46
2, 730787, Note_on_c, 0, 57, 40
2, 730793, Note_on_c, 0, 48, 31
2, 730877, Note_off_c, 0, 65, 51
2, 730889, Note_off_c, 0, 57, 50
2, 730896, Note_off_c, 0, 48, 47
2, 730981, Note_on_c, 0, 57, 40
2, 730985, Note_on_c, 0, 53, 31
2, 730988, Note_on_c, 0, 60, 46
2, 730990, Note_on_c, 0, 41, 49
2, 731083, Note_off_c, 0, 53, 47
2, 731088, Note_off_c, 0, 60, 51
2, 731091, Note_off_c, 0, 57, 50
2, 731180, Note_on_c, 0, 60, 52
2, 731182, Note_on_c, 0, 57, 47
2, 731185, Note_on_c, 0, 53, 38
2, 731286, Note_off_c, 0, 57, 51
2, 731288, Note_off_c, 0, 60, 53
2, 731293, Note_off_c, 0, 53, 49
2, 731375, Note_on_c, 0, 53, 43
2, 731379, Note_on_c, 0, 57, 52
2, 731381, Note_on_c, 0, 60, 58
2, 731478, Note_off_c, 0, 60, 54
2, 731480, Note_off_c, 0, 57, 53
2, 731482, Note_off_c, 0, 53, 50
2, 731569, Note_off_c, 0, 41, 52
2, 731571, Note_on_c, 0, 65, 46
2, 731573, Note_on_c, 0, 57, 40
2, 731578, Note_on_c, 0, 48, 32
2, 731669, Note_off_c, 0, 65, 51
2, 731676, Note_off_c, 0, 48, 48
2, 731678, Note_off_c, 0, 57, 50
2, 731792, Note_on_c, 0, 58, 40
2, 731794, Note_on_c, 0, 60, 47
2, 731801, Note_on_c, 0, 55, 32
2, 731803, Note_on_c, 0, 41, 48
2, 731895, Note_off_c, 0, 58, 50
2, 731899, Note_off_c, 0, 55, 48
2, 731901, Note_off_c, 0, 60, 51
2, 731994, Note_on_c, 0, 67, 53
2, 731996, Note_on_c, 0, 58, 47
2, 731998, Note_on_c, 0, 53, 37
2, 732080, Note_off_c, 0, 53, 49
2, 732092, Note_off_c, 0, 67, 53
2, 732094, Note_off_c, 0, 58, 51
2, 732187, Note_on_c, 0, 67, 59
2, 732189, Note_on_c, 0, 58, 53
2, 732192, Note_on_c, 0, 52, 44
2, 732280, Note_off_c, 0, 58, 53
2, 732288, Note_off_c, 0, 67, 54
2, 732297, Note_off_c, 0, 52, 51
2, 732380, Note_on_c, 0, 58, 40
2, 732382, Note_on_c, 0, 50, 32
2, 732388, Note_on_c, 0, 67, 46
2, 732482, Note_off_c, 0, 67, 51
2, 732485, Note_off_c, 0, 50, 48
2, 732487, Note_off_c, 0, 58, 50
2, 732574, Note_on_c, 0, 67, 59
2, 732585, Note_on_c, 0, 48, 45
2, 732587, Note_on_c, 0, 58, 54
2, 732720, Note_off_c, 0, 67, 54
2, 732724, Note_off_c, 0, 58, 53
2, 732766, Note_off_c, 0, 48, 51
2, 732776, Note_on_c, 0, 50, 48
2, 732778, Note_on_c, 0, 58, 57
2, 732780, Note_on_c, 0, 67, 63
2, 732908, Note_off_c, 0, 67, 55
2, 732917, Note_off_c, 0, 58, 54
2, 732948, Note_off_c, 0, 50, 52
2, 732994, Note_on_c, 0, 67, 68
2, 733001, Note_on_c, 0, 58, 61
2, 733003, Note_on_c, 0, 52, 53
2, 733092, Note_on_c, 0, 69, 69
2, 733124, Note_off_c, 0, 41, 52
2, 733128, Note_off_c, 0, 67, 57
2, 733133, Note_off_c, 0, 58, 55
2, 733193, Note_off_c, 0, 52, 53
2, 733195, Note_on_c, 0, 67, 72
2, 733197, Note_on_c, 0, 48, 56
2, 733199, Note_on_c, 0, 58, 65
2, 733214, Note_off_c, 0, 69, 57
2, 733289, Note_on_c, 0, 69, 71
2, 733308, Note_off_c, 0, 67, 58
2, 733316, Note_off_c, 0, 58, 56
2, 733365, Note_off_c, 0, 69, 58
2, 733387, Note_on_c, 0, 65, 51
2, 733389, Note_on_c, 0, 53, 36
2, 733391, Note_off_c, 0, 48, 54
2, 733393, Note_on_c, 0, 57, 45
2, 733399, Note_on_c, 0, 41, 48
2, 733481, Note_off_c, 0, 57, 51
2, 733483, Note_off_c, 0, 65, 52
2, 733490, Note_off_c, 0, 53, 49
2, 733586, Note_on_c, 0, 57, 44
2, 733588, Note_on_c, 0, 60, 50
2, 733590, Note_on_c, 0, 53, 36
2, 733683, Note_off_c, 0, 57, 51
2, 733689, Note_off_c, 0, 53, 49
2, 733691, Note_off_c, 0, 60, 52
2, 733780, Note_on_c, 0, 60, 62
2, 733781, Note_on_c, 0, 53, 47
2, 733785, Note_on_c, 0, 57, 56
2, 733868, Note_off_c, 0, 53, 51
2, 733872, Note_off_c, 0, 60, 55
2, 733876, Note_off_c, 0, 57, 54
2, 733976, Note_on_c, 0, 57, 44
2, 733978, Note_on_c, 0, 65, 51
2, 733982, Note_on_c, 0, 48, 48
2, 734079, Note_off_c, 0, 41, 52
2, 734090, Note_off_c, 0, 65, 52
2, 734093, Note_off_c, 0, 57, 51
2, 734107, Note_off_c, 0, 48, 52
2, 734200, Note_on_c, 0, 57, 45
2, 734202, Note_on_c, 0, 60, 54
2, 734203, Note_on_c, 0, 53, 35
2, 734206, Note_on_c, 0, 41, 49
2, 734291, Note_off_c, 0, 60, 53
2, 734296, Note_off_c, 0, 53, 48
2, 734302, Note_off_c, 0, 57, 51
2, 734393, Note_on_c, 0, 60, 59
2, 734395, Note_on_c, 0, 57, 50
2, 734397, Note_on_c, 0, 53, 41
2, 734486, Note_off_c, 0, 57, 52
2, 734493, Note_off_c, 0, 60, 54
2, 734498, Note_off_c, 0, 53, 50
2, 734588, Note_on_c, 0, 60, 65
2, 734597, Note_on_c, 0, 53, 48
2, 734599, Note_on_c, 0, 57, 57
2, 734685, Note_off_c, 0, 60, 56
2, 734696, Note_off_c, 0, 53, 52
2, 734698, Note_off_c, 0, 57, 54
2, 734784, Note_on_c, 0, 65, 53
2, 734787, Note_on_c, 0, 48, 36
2, 734789, Note_on_c, 0, 57, 45
2, 734825, Note_off_c, 0, 41, 52
2, 734877, Note_off_c, 0, 65, 53
2, 734879, Note_off_c, 0, 48, 49
2, 734891, Note_off_c, 0, 57, 51
2, 734983, Note_on_c, 0, 58, 45
2, 734985, Note_on_c, 0, 41, 48
2, 734990, Note_on_c, 0, 55, 35
2, 734992, Note_on_c, 0, 60, 51
2, 735085, Note_off_c, 0, 55, 48
2, 735091, Note_off_c, 0, 58, 51
2, 735093, Note_off_c, 0, 60, 52
2, 735204, Note_on_c, 0, 58, 51
2, 735206, Note_on_c, 0, 67, 57
2, 735208, Note_on_c, 0, 53, 42
2, 735297, Note_off_c, 0, 58, 52
2, 735299, Note_off_c, 0, 67, 54
2, 735305, Note_off_c, 0, 53, 50
2, 735397, Note_on_c, 0, 67, 63
2, 735399, Note_on_c, 0, 58, 56
2, 735401, Note_on_c, 0, 52, 47
2, 735494, Note_off_c, 0, 52, 51
2, 735499, Note_off_c, 0, 67, 55
2, 735500, Note_off_c, 0, 58, 54
2, 735598, Note_on_c, 0, 50, 36
2, 735602, Note_on_c, 0, 67, 50
2, 735603, Note_on_c, 0, 58, 44
2, 735686, Note_off_c, 0, 50, 49
2, 735704, Note_off_c, 0, 67, 52
2, 735705, Note_off_c, 0, 58, 51
2, 735792, Note_on_c, 0, 48, 44
2, 735797, Note_on_c, 0, 67, 59
2, 735801, Note_on_c, 0, 58, 53
2, 735908, Note_off_c, 0, 58, 53
2, 735915, Note_off_c, 0, 67, 54
2, 735962, Note_off_c, 0, 48, 51
2, 735988, Note_on_c, 0, 58, 57
2, 735991, Note_on_c, 0, 50, 48
2, 735993, Note_on_c, 0, 67, 64
2, 736109, Note_off_c, 0, 58, 54
2, 736115, Note_off_c, 0, 67, 56
2, 736176, Note_off_c, 0, 50, 52
2, 736183, Note_on_c, 0, 58, 61
2, 736190, Note_on_c, 0, 67, 67
2, 736192, Note_on_c, 0, 52, 53
2, 736305, Note_on_c, 0, 69, 69
2, 736329, Note_off_c, 0, 67, 57
2, 736331, Note_off_c, 0, 58, 55
2, 736368, Note_off_c, 0, 41, 52
2, 736404, Note_off_c, 0, 52, 53
2, 736405, Note_on_c, 0, 48, 56
2, 736408, Note_on_c, 0, 67, 72
2, 736411, Note_on_c, 0, 58, 66
2, 736416, Note_off_c, 0, 69, 57
2, 736509, Note_on_c, 0, 69, 72
2, 736526, Note_off_c, 0, 67, 58
2, 736528, Note_off_c, 0, 58, 56
2, 736586, Note_off_c, 0, 69, 58
2, 736595, Note_off_c, 0, 48, 54
2, 736598, Note_on_c, 0, 53, 55
2, 736603, Note_on_c, 0, 65, 47
2, 736608, Note_on_c, 0, 57, 41
2, 736707, Note_off_c, 0, 65, 51
2, 736790, Note_off_c, 0, 57, 50
2, 736800, Note_on_c, 0, 72, 40
2, 736801, Note_on_c, 0, 84, 33
2, 736803, Note_on_c, 0, 81, 33
2, 736807, Note_on_c, 0, 65, 38
2, 736895, Note_off_c, 0, 84, 48
2, 736898, Note_off_c, 0, 81, 48
2, 736906, Note_off_c, 0, 72, 50
2, 736907, Note_off_c, 0, 65, 49
2, 736992, Note_on_c, 0, 65, 43
2, 736998, Note_on_c, 0, 81, 39
2, 736999, Note_on_c, 0, 84, 39
2, 737001, Note_on_c, 0, 72, 46
2, 737069, Note_off_c, 0, 65, 50
2, 737070, Note_off_c, 0, 84, 49
2, 737079, Note_off_c, 0, 81, 49
2, 737082, Note_off_c, 0, 72, 51
2, 737188, Note_on_c, 0, 77, 52
2, 737194, Note_on_c, 0, 84, 45
2, 737196, Note_on_c, 0, 81, 46
2, 737198, Note_on_c, 0, 60, 48
2, 737201, Note_off_c, 0, 53, 53
2, 737263, Note_off_c, 0, 77, 53
2, 737267, Note_off_c, 0, 84, 51
2, 737280, Note_off_c, 0, 81, 51
2, 737281, Note_off_c, 0, 60, 52
2, 737407, Note_on_c, 0, 84, 33
2, 737409, Note_on_c, 0, 72, 41
2, 737411, Note_on_c, 0, 81, 34
2, 737415, Note_on_c, 0, 65, 39
2, 737417, Note_on_c, 0, 53, 58
2, 737483, Note_off_c, 0, 72, 50
2, 737491, Note_off_c, 0, 81, 48
2, 737493, Note_off_c, 0, 84, 48
2, 737495, Note_off_c, 0, 65, 49
2, 737603, Note_on_c, 0, 84, 32
2, 737605, Note_on_c, 0, 72, 41
2, 737608, Note_on_c, 0, 65, 39
2, 737613, Note_on_c, 0, 81, 34
2, 737675, Note_off_c, 0, 72, 50
2, 737680, Note_off_c, 0, 81, 48
2, 737682, Note_off_c, 0, 84, 48
2, 737691, Note_off_c, 0, 65, 49
2, 737798, Note_on_c, 0, 84, 38
2, 737805, Note_on_c, 0, 81, 40
2, 737809, Note_on_c, 0, 72, 47
2, 737812, Note_on_c, 0, 65, 36
2, 737873, Note_off_c, 0, 84, 49
2, 737881, Note_off_c, 0, 81, 50
2, 737889, Note_off_c, 0, 72, 51
2, 737894, Note_off_c, 0, 65, 49
2, 737998, Note_on_c, 0, 84, 45
2, 738000, Note_on_c, 0, 81, 46
2, 738004, Note_on_c, 0, 77, 52
2, 738006, Note_off_c, 0, 53, 54
2, 738009, Note_on_c, 0, 60, 35
2, 738072, Note_off_c, 0, 84, 51
2, 738075, Note_off_c, 0, 81, 51
2, 738080, Note_off_c, 0, 77, 53
2, 738083, Note_off_c, 0, 60, 48
2, 738199, Note_on_c, 0, 82, 34
2, 738200, Note_on_c, 0, 72, 41
2, 738202, Note_on_c, 0, 84, 33
2, 738205, Note_on_c, 0, 67, 38
2, 738207, Note_on_c, 0, 53, 58
2, 738270, Note_off_c, 0, 72, 50
2, 738275, Note_off_c, 0, 84, 48
2, 738285, Note_off_c, 0, 82, 48
2, 738287, Note_off_c, 0, 67, 49
2, 738396, Note_on_c, 0, 74, 40
2, 738398, Note_on_c, 0, 82, 33
2, 738399, Note_on_c, 0, 65, 39
2, 738399, Note_on_c, 0, 84, 33
2, 738484, Note_off_c, 0, 84, 48
2, 738485, Note_off_c, 0, 65, 49
2, 738489, Note_off_c, 0, 82, 48
2, 738499, Note_off_c, 0, 74, 50
2, 738610, Note_on_c, 0, 64, 36
2, 738612, Note_on_c, 0, 82, 40
2, 738614, Note_on_c, 0, 84, 39
2, 738618, Note_on_c, 0, 76, 47
2, 738676, Note_off_c, 0, 64, 49
2, 738689, Note_off_c, 0, 84, 49
2, 738693, Note_off_c, 0, 76, 51
2, 738698, Note_off_c, 0, 82, 50
2, 738803, Note_on_c, 0, 84, 45
2, 738808, Note_on_c, 0, 62, 33
2, 738810, Note_on_c, 0, 82, 45
2, 738813, Note_on_c, 0, 77, 52
2, 738870, Note_off_c, 0, 84, 51
2, 738887, Note_off_c, 0, 82, 51
2, 738890, Note_off_c, 0, 77, 53
2, 738891, Note_off_c, 0, 62, 48
2, 739026, Note_on_c, 0, 84, 44
2, 739028, Note_on_c, 0, 82, 45
2, 739030, Note_on_c, 0, 79, 52
2, 739032, Note_on_c, 0, 60, 32
2, 739093, Note_off_c, 0, 84, 51
2, 739098, Note_off_c, 0, 82, 51
2, 739103, Note_off_c, 0, 60, 48
2, 739106, Note_off_c, 0, 79, 53
2, 739217, Note_on_c, 0, 84, 41
2, 739219, Note_on_c, 0, 64, 32
2, 739228, Note_on_c, 0, 76, 48
2, 739230, Note_on_c, 0, 82, 41
2, 739297, Note_off_c, 0, 84, 50
2, 739299, Note_off_c, 0, 64, 48
2, 739305, Note_off_c, 0, 76, 52
2, 739309, Note_off_c, 0, 82, 50
2, 739411, Note_off_c, 0, 53, 54
2, 739419, Note_on_c, 0, 82, 38
2, 739421, Note_on_c, 0, 77, 44
2, 739423, Note_on_c, 0, 84, 37
2, 739423, Note_on_c, 0, 62, 33
2, 739505, Note_off_c, 0, 84, 49
2, 739506, Note_off_c, 0, 62, 48
2, 739513, Note_off_c, 0, 77, 51
2, 739516, Note_off_c, 0, 82, 49
2, 739634, Note_on_c, 0, 84, 33
2, 739636, Note_on_c, 0, 79, 40
2, 739638, Note_on_c, 0, 60, 32
2, 739641, Note_on_c, 0, 82, 33
2, 739708, Note_off_c, 0, 79, 50
2, 739711, Note_off_c, 0, 60, 48
2, 739714, Note_off_c, 0, 84, 48
2, 739720, Note_off_c, 0, 82, 48
2, 739830, Note_on_c, 0, 84, 32
2, 739833, Note_on_c, 0, 65, 31
2, 739835, Note_on_c, 0, 53, 47
2, 739837, Note_on_c, 0, 72, 40
2, 739839, Note_on_c, 0, 81, 34
2, 739891, Note_off_c, 0, 84, 48
2, 739898, Note_off_c, 0, 72, 50
2, 739899, Note_off_c, 0, 65, 47
2, 739904, Note_off_c, 0, 81, 48
2, 740011, Note_on_c, 0, 84, 38
2, 740013, Note_on_c, 0, 72, 46
2, 740015, Note_on_c, 0, 81, 40
2, 740019, Note_on_c, 0, 65, 36
2, 740088, Note_off_c, 0, 81, 50
2, 740090, Note_off_c, 0, 72, 51
2, 740091, Note_off_c, 0, 65, 49
2, 740094, Note_off_c, 0, 84, 49
2, 740205, Note_on_c, 0, 84, 44
2, 740210, Note_on_c, 0, 81, 45
2, 740212, Note_on_c, 0, 65, 42
2, 740214, Note_on_c, 0, 72, 53
2, 740282, Note_off_c, 0, 65, 50
2, 740286, Note_off_c, 0, 84, 51
2, 740290, Note_off_c, 0, 72, 53
2, 740292, Note_off_c, 0, 81, 51
2, 740404, Note_on_c, 0, 60, 30
2, 740406, Note_on_c, 0, 84, 32
2, 740408, Note_on_c, 0, 81, 34
2, 740410, Note_on_c, 0, 77, 40
2, 740443, Note_off_c, 0, 53, 51
2, 740478, Note_off_c, 0, 60, 47
2, 740483, Note_off_c, 0, 77, 50
2, 740484, Note_off_c, 0, 81, 48
2, 740488, Note_off_c, 0, 84, 48
2, 740599, Note_on_c, 0, 65, 30
2, 740601, Note_on_c, 0, 81, 33
2, 740604, Note_on_c, 0, 53, 47
2, 740605, Note_on_c, 0, 84, 32
2, 740607, Note_on_c, 0, 72, 41
2, 740681, Note_off_c, 0, 81, 48
2, 740683, Note_off_c, 0, 65, 47
2, 740685, Note_off_c, 0, 72, 50
2, 740687, Note_off_c, 0, 84, 48
2, 740796, Note_on_c, 0, 81, 40
2, 740800, Note_on_c, 0, 72, 47
2, 740802, Note_on_c, 0, 65, 36
2, 740804, Note_on_c, 0, 84, 38
2, 740871, Note_off_c, 0, 84, 49
2, 740877, Note_off_c, 0, 72, 51
2, 740881, Note_off_c, 0, 81, 50
2, 740883, Note_off_c, 0, 65, 49
2, 740997, Note_on_c, 0, 84, 45
2, 741003, Note_on_c, 0, 81, 46
2, 741006, Note_on_c, 0, 65, 42
2, 741008, Note_on_c, 0, 72, 53
2, 741072, Note_off_c, 0, 84, 51
2, 741075, Note_off_c, 0, 65, 50
2, 741086, Note_off_c, 0, 72, 53
2, 741089, Note_off_c, 0, 81, 51
2, 741191, Note_on_c, 0, 81, 33
2, 741193, Note_on_c, 0, 84, 33
2, 741199, Note_on_c, 0, 77, 40
2, 741200, Note_on_c, 0, 60, 31
2, 741215, Note_off_c, 0, 53, 51
2, 741267, Note_off_c, 0, 60, 47
2, 741271, Note_off_c, 0, 84, 48
2, 741273, Note_off_c, 0, 81, 48
2, 741280, Note_off_c, 0, 77, 50
2, 741391, Note_on_c, 0, 84, 29
2, 741392, Note_on_c, 0, 82, 30
2, 741394, Note_on_c, 0, 72, 40
2, 741399, Note_on_c, 0, 53, 47
2, 741401, Note_on_c, 0, 67, 30
2, 741456, Note_off_c, 0, 84, 47
2, 741467, Note_off_c, 0, 82, 47
2, 741469, Note_off_c, 0, 67, 47
2, 741478, Note_off_c, 0, 72, 50
2, 741585, Note_on_c, 0, 84, 37
2, 741587, Note_on_c, 0, 65, 33
2, 741592, Note_on_c, 0, 74, 44
2, 741593, Note_on_c, 0, 82, 38
2, 741660, Note_off_c, 0, 84, 49
2, 741669, Note_off_c, 0, 65, 48
2, 741671, Note_off_c, 0, 74, 51
2, 741673, Note_off_c, 0, 82, 49
2, 741782, Note_on_c, 0, 76, 48
2, 741786, Note_on_c, 0, 64, 36
2, 741790, Note_on_c, 0, 82, 42
2, 741792, Note_on_c, 0, 84, 41
2, 741861, Note_off_c, 0, 64, 49
2, 741863, Note_off_c, 0, 82, 50
2, 741865, Note_off_c, 0, 84, 50
2, 741868, Note_off_c, 0, 76, 52
2, 741981, Note_on_c, 0, 77, 52
2, 741983, Note_on_c, 0, 82, 45
2, 741985, Note_on_c, 0, 84, 45
2, 741987, Note_on_c, 0, 62, 39
2, 742060, Note_off_c, 0, 77, 53
2, 742062, Note_off_c, 0, 82, 51
2, 742069, Note_off_c, 0, 62, 49
2, 742074, Note_off_c, 0, 84, 51
2, 742195, Note_on_c, 0, 82, 46
2, 742196, Note_on_c, 0, 84, 45
2, 742198, Note_on_c, 0, 79, 53
2, 742203, Note_on_c, 0, 60, 38
2, 742270, Note_off_c, 0, 82, 51
2, 742275, Note_off_c, 0, 84, 51
2, 742277, Note_off_c, 0, 79, 53
2, 742280, Note_off_c, 0, 60, 49
2, 742397, Note_on_c, 0, 84, 41
2, 742399, Note_on_c, 0, 64, 37
2, 742401, Note_on_c, 0, 82, 41
2, 742403, Note_on_c, 0, 76, 48
2, 742470, Note_off_c, 0, 76, 52
2, 742474, Note_off_c, 0, 82, 50
2, 742478, Note_off_c, 0, 84, 50
2, 742480, Note_off_c, 0, 64, 49
2, 742592, Note_on_c, 0, 77, 44
2, 742598, Note_on_c, 0, 82, 37
2, 742600, Note_on_c, 0, 84, 37
2, 742602, Note_on_c, 0, 62, 34
2, 742669, Note_off_c, 0, 84, 49
2, 742671, Note_off_c, 0, 77, 51
2, 742673, Note_off_c, 0, 82, 49
2, 742675, Note_off_c, 0, 62, 48
2, 742791, Note_on_c, 0, 79, 40
2, 742793, Note_on_c, 0, 82, 33
2, 742795, Note_on_c, 0, 84, 33
2, 742797, Note_on_c, 0, 60, 30
2, 742857, Note_off_c, 0, 84, 48
2, 742865, Note_off_c, 0, 82, 48
2, 742870, Note_off_c, 0, 60, 47
2, 742873, Note_off_c, 0, 79, 50
2, 742937, Note_off_c, 0, 53, 51
2, 742987, Note_on_c, 0, 84, 48
2, 742990, Note_on_c, 0, 81, 41
2, 742995, Note_on_c, 0, 65, 36
2, 742997, Note_on_c, 0, 77, 45
2, 743099, Note_off_c, 0, 81, 50
2, 743101, Note_off_c, 0, 84, 52
2, 743134, Note_off_c, 0, 65, 49
2, 743136, Note_off_c, 0, 77, 51
2, 743184, Note_on_c, 0, 84, 50
2, 743188, Note_on_c, 0, 76, 37
2, 743191, Note_on_c, 0, 81, 41
2, 743294, Note_off_c, 0, 76, 49
2, 743307, Note_off_c, 0, 84, 52
2, 743328, Note_off_c, 0, 81, 50
2, 743373, Note_on_c, 0, 81, 43
2, 743379, Note_on_c, 0, 84, 52
2, 743382, Note_on_c, 0, 74, 38
2, 743478, Note_off_c, 0, 74, 49
2, 743516, Note_off_c, 0, 81, 50
2, 743518, Note_off_c, 0, 84, 53
2, 743579, Note_on_c, 0, 84, 54
2, 743584, Note_on_c, 0, 72, 40
2, 743586, Note_on_c, 0, 81, 46
2, 743683, Note_off_c, 0, 72, 50
2, 743702, Note_off_c, 0, 84, 53
2, 743757, Note_off_c, 0, 81, 51
2, 743771, Note_on_c, 0, 79, 46
2, 743773, Note_on_c, 0, 84, 54
2, 743780, Note_on_c, 0, 70, 41
2, 743782, Note_on_c, 0, 76, 44
2, 743870, Note_off_c, 0, 70, 50
2, 743914, Note_off_c, 0, 84, 53
2, 743916, Note_off_c, 0, 79, 51
2, 743922, Note_off_c, 0, 76, 51
2, 743967, Note_on_c, 0, 84, 56
2, 743972, Note_on_c, 0, 79, 49
2, 743974, Note_on_c, 0, 69, 41
2, 743976, Note_on_c, 0, 76, 47
2, 744075, Note_off_c, 0, 69, 50
2, 744104, Note_off_c, 0, 76, 51
2, 744128, Note_off_c, 0, 79, 52
2, 744152, Note_off_c, 0, 84, 54
2, 744188, Note_on_c, 0, 79, 51
2, 744190, Note_on_c, 0, 67, 43
2, 744192, Note_on_c, 0, 86, 58
2, 744194, Note_on_c, 0, 76, 49
2, 744275, Note_off_c, 0, 67, 50
2, 744305, Note_off_c, 0, 79, 52
2, 744342, Note_off_c, 0, 76, 52
2, 744358, Note_off_c, 0, 86, 54
2, 744378, Note_on_c, 0, 88, 60
2, 744380, Note_on_c, 0, 79, 53
2, 744385, Note_on_c, 0, 76, 50
2, 744387, Note_on_c, 0, 72, 39
2, 744481, Note_off_c, 0, 72, 49
2, 744572, Note_off_c, 0, 79, 53
2, 744577, Note_off_c, 0, 88, 55
2, 744580, Note_on_c, 0, 89, 49
2, 744582, Note_on_c, 0, 77, 38
2, 744587, Note_on_c, 0, 65, 32
2, 744591, Note_on_c, 0, 81, 40
2, 744666, Note_off_c, 0, 76, 52
2, 744701, Note_off_c, 0, 65, 48
2, 744739, Note_off_c, 0, 81, 50
2, 744774, Note_off_c, 0, 77, 49
2, 744776, Note_off_c, 0, 89, 52
2, 744795, Note_on_c, 0, 72, 39
2, 744797, Note_on_c, 0, 84, 48
2, 744800, Note_on_c, 0, 81, 40
2, 744802, Note_on_c, 0, 64, 32
2, 744899, Note_off_c, 0, 64, 48
2, 744920, Note_off_c, 0, 81, 50
2, 744922, Note_off_c, 0, 72, 49
2, 744932, Note_off_c, 0, 84, 52
2, 744994, Note_on_c, 0, 62, 36
2, 744997, Note_on_c, 0, 81, 44
2, 744999, Note_on_c, 0, 84, 53
2, 745001, Note_on_c, 0, 72, 43
2, 745090, Note_off_c, 0, 62, 49
2, 745105, Note_off_c, 0, 81, 51
2, 745111, Note_off_c, 0, 84, 53
2, 745145, Note_off_c, 0, 72, 50
2, 745188, Note_on_c, 0, 84, 57
2, 745193, Note_on_c, 0, 60, 41
2, 745196, Note_on_c, 0, 81, 49
2, 745198, Note_on_c, 0, 72, 47
2, 745295, Note_off_c, 0, 60, 50
2, 745342, Note_off_c, 0, 84, 54
2, 745345, Note_off_c, 0, 72, 51
2, 745388, Note_on_c, 0, 84, 61
2, 745391, Note_on_c, 0, 82, 52
2, 745393, Note_on_c, 0, 72, 50
2, 745400, Note_on_c, 0, 58, 44
2, 745459, Note_off_c, 0, 81, 52
2, 745493, Note_off_c, 0, 58, 51
2, 745515, Note_off_c, 0, 84, 55
2, 745524, Note_off_c, 0, 82, 53
2, 745533, Note_off_c, 0, 72, 52
2, 745582, Note_on_c, 0, 72, 55
2, 745585, Note_on_c, 0, 84, 64
2, 745586, Note_on_c, 0, 82, 57
2, 745592, Note_on_c, 0, 57, 49
2, 745683, Note_off_c, 0, 57, 52
2, 745710, Note_off_c, 0, 84, 56
2, 745724, Note_off_c, 0, 82, 54
2, 745768, Note_off_c, 0, 72, 53
2, 745780, Note_on_c, 0, 55, 53
2, 745786, Note_on_c, 0, 82, 60
2, 745788, Note_on_c, 0, 84, 68
2, 745791, Note_on_c, 0, 74, 58
2, 745872, Note_off_c, 0, 55, 53
2, 745923, Note_off_c, 0, 84, 57
2, 745930, Note_off_c, 0, 82, 55
2, 745961, Note_off_c, 0, 74, 54
2, 745988, Note_on_c, 0, 76, 63
2, 745990, Note_on_c, 0, 84, 72
2, 745992, Note_on_c, 0, 82, 64
2, 745992, Note_on_c, 0, 60, 56
2, 746081, Note_off_c, 0, 60, 54
2, 746144, Note_off_c, 0, 84, 58
2, 746157, Note_off_c, 0, 82, 56
2, 746178, Note_on_c, 0, 77, 63
2, 746182, Note_off_c, 0, 76, 55
2, 746184, Note_on_c, 0, 89, 75
2, 746187, Note_on_c, 0, 57, 56
2, 746188, Note_on_c, 0, 53, 53
2, 746276, Note_off_c, 0, 89, 59
2, 746283, Note_off_c, 0, 77, 55
2, 746300, Note_off_c, 0, 57, 54
2, 746301, Note_off_c, 0, 53, 53
2, 746348, Note_on_c, 0, 57, 59
2, 746355, Note_on_c, 0, 88, 76
2, 746358, Note_on_c, 0, 76, 65
2, 746359, Note_on_c, 0, 53, 56
2, 746445, Note_off_c, 0, 88, 59
2, 746448, Note_off_c, 0, 76, 56
2, 746480, Note_off_c, 0, 53, 54
2, 746489, Note_off_c, 0, 57, 54
2, 746551, Note_on_c, 0, 74, 66
2, 746553, Note_on_c, 0, 57, 60
2, 746555, Note_on_c, 0, 86, 79
2, 746559, Note_on_c, 0, 53, 57
2, 746653, Note_off_c, 0, 86, 60
2, 746655, Note_off_c, 0, 74, 56
2, 746686, Note_off_c, 0, 57, 55
2, 746689, Note_off_c, 0, 53, 54
2, 746744, Note_on_c, 0, 72, 69
2, 746749, Note_on_c, 0, 57, 62
2, 746751, Note_on_c, 0, 84, 80
2, 746753, Note_on_c, 0, 53, 60
2, 746838, Note_off_c, 0, 84, 60
2, 746842, Note_off_c, 0, 72, 57
2, 746889, Note_off_c, 0, 53, 55
2, 746946, Note_on_c, 0, 53, 62
2, 746948, Note_on_c, 0, 55, 65
2, 746950, Note_on_c, 0, 82, 83
2, 746950, Note_on_c, 0, 70, 71
2, 746978, Note_off_c, 0, 57, 55
2, 747049, Note_off_c, 0, 70, 58
2, 747051, Note_off_c, 0, 82, 60
2, 747077, Note_off_c, 0, 55, 56
2, 747089, Note_off_c, 0, 53, 55
2, 747141, Note_on_c, 0, 81, 86
2, 747144, Note_on_c, 0, 55, 67
2, 747147, Note_on_c, 0, 53, 65
2, 747149, Note_on_c, 0, 69, 74
2, 747251, Note_off_c, 0, 81, 61
2, 747255, Note_off_c, 0, 69, 59
2, 747276, Note_off_c, 0, 55, 57
2, 747339, Note_on_c, 0, 52, 66
2, 747341, Note_on_c, 0, 79, 87
2, 747343, Note_on_c, 0, 67, 75
2, 747345, Note_on_c, 0, 55, 70
2, 747408, Note_off_c, 0, 53, 56
2, 747437, Note_off_c, 0, 67, 59
2, 747439, Note_off_c, 0, 79, 61
2, 747466, Note_off_c, 0, 52, 56
2, 747476, Note_off_c, 0, 55, 57
2, 747536, Note_on_c, 0, 72, 78
2, 747538, Note_on_c, 0, 55, 72
2, 747540, Note_on_c, 0, 84, 89
2, 747545, Note_on_c, 0, 52, 69
2, 747635, Note_off_c, 0, 72, 59
2, 747643, Note_off_c, 0, 84, 62
2, 747728, Note_off_c, 0, 52, 57
2, 747735, Note_on_c, 0, 77, 93
2, 747737, Note_off_c, 0, 55, 58
2, 747739, Note_on_c, 0, 65, 80
2, 747741, Note_on_c, 0, 53, 75
2, 747824, Note_off_c, 0, 77, 63
2, 747833, Note_off_c, 0, 53, 59
2, 747836, Note_off_c, 0, 65, 60
2, 747925, Note_on_c, 0, 64, 83
2, 747933, Note_on_c, 0, 36, 77
2, 747936, Note_on_c, 0, 76, 95
2, 748024, Note_off_c, 0, 64, 60
2, 748029, Note_off_c, 0, 36, 59
2, 748031, Note_off_c, 0, 76, 63
2, 748124, Note_on_c, 0, 62, 85
2, 748132, Note_on_c, 0, 74, 96
2, 748133, Note_on_c, 0, 36, 78
2, 748221, Note_off_c, 0, 62, 61
2, 748225, Note_off_c, 0, 74, 63
2, 748228, Note_off_c, 0, 36, 59
2, 748342, Note_on_c, 0, 72, 99
2, 748344, Note_on_c, 0, 60, 86
2, 748349, Note_on_c, 0, 36, 81
2, 748433, Note_off_c, 0, 72, 64
2, 748443, Note_off_c, 0, 36, 60
2, 748446, Note_off_c, 0, 60, 61
2, 748544, Note_on_c, 0, 58, 90
2, 748546, Note_on_c, 0, 70, 99
2, 748552, Note_on_c, 0, 36, 84
2, 748637, Note_off_c, 0, 70, 64
2, 748642, Note_off_c, 0, 58, 62
2, 748645, Note_off_c, 0, 36, 61
2, 748759, Note_on_c, 0, 69, 100
2, 748762, Note_on_c, 0, 36, 85
2, 748764, Note_on_c, 0, 57, 92
2, 748846, Note_off_c, 0, 69, 65
2, 748855, Note_off_c, 0, 57, 62
2, 748865, Note_off_c, 0, 36, 61
2, 748971, Note_on_c, 0, 55, 94
2, 748974, Note_on_c, 0, 38, 88
2, 748976, Note_on_c, 0, 67, 96
2, 749067, Note_off_c, 0, 38, 62
2, 749069, Note_off_c, 0, 55, 63
2, 749079, Note_off_c, 0, 67, 63
2, 749192, Note_on_c, 0, 72, 98
2, 749194, Note_on_c, 0, 40, 85
2, 749196, Note_on_c, 0, 60, 92
2, 749292, Note_off_c, 0, 72, 64
2, 749294, Note_off_c, 0, 40, 61
2, 749302, Note_off_c, 0, 60, 62
2, 749391, Note_on_c, 0, 65, 96
2, 749396, Note_on_c, 0, 41, 89
2, 749407, Note_on_c, 0, 53, 86
2, 749415, Note_on_c, 0, 29, 90
2, 749446, Control_c, 0, 64, 127
2, 749853, Note_off_c, 0, 29, 62
2, 749859, Note_off_c, 0, 53, 61
2, 749914, Note_off_c, 0, 65, 63
2, 749933, Note_off_c, 0, 41, 62
2, 750195, Control_c, 0, 64, 0
2, 750208, Control_c, 0, 121, 0
2, 750208, End_track
3, 0, Start_track
3, 0, Title_t, "Sonata No. 6, in F"
3, 0, Channel_prefix, 1
3, 0, End_track
4, 0, Start_track
4, 0, Title_t, "Op. 10, No. 2"
4, 0, Channel_prefix, 2
4, 0, End_track
5, 0, Start_track
5, 0, Title_t, "Sequence by Richard Carlson"
5, 0, Channel_prefix, 3
5, 0, End_track
6, 0, Start_track
6, 0, Title_t, "http://geocities.com/lionheart2251"
6, 0, Channel_prefix, 4
6, 0, End_track
7, 0, Start_track
7, 0, Title_t, "lionheart2251@yahoo.com"
7, 0, Channel_prefix, 5
7, 0, End_track
8, 0, Start_track
8, 0, Title_t, "Copyright  2003"
8, 0, Channel_prefix, 6
8, 0, End_track
0, 0, End_of_file
