0, 0, Header, 1, 6, 384
1, 0, Start_track
1, 0, Title_t, "--------"
1, 0, Sequencer_specific, 3, 0, 0, 65
1, 0, Time_signature, 4, 2, 24, 8
1, 0, Key_signature, 0, "major"
1, 0, Tempo, 300000
1, 92160, Tempo, 400000
1, 94464, Tempo, 300000
1, 182784, Tempo, 400000
1, 185088, Tempo, 300000
1, 308736, Tempo, 400000
1, 311040, Tempo, 300000
1, 311040, End_track
2, 0, Start_track
2, 0, Title_t, "3rd Mvmt Sonata No.8 in Cm"
2, 0, Control_c, 0, 0, 0
2, 0, Control_c, 0, 7, 110
2, 0, Control_c, 0, 10, 80
2, 0, Control_c, 0, 32, 0
2, 1, Program_c, 0, 0
2, 960, Note_on_c, 0, 67, 79
2, 1052, Note_on_c, 0, 67, 0
2, 1152, Note_on_c, 0, 72, 79
2, 1244, Note_on_c, 0, 72, 0
2, 1344, Note_on_c, 0, 74, 79
2, 1436, Note_on_c, 0, 74, 0
2, 1536, Note_on_c, 0, 75, 92
2, 2108, Note_on_c, 0, 75, 0
2, 2108, Note_on_c, 0, 77, 92
2, 2112, Note_on_c, 0, 60, 87
2, 2296, Note_on_c, 0, 77, 0
2, 2300, Note_on_c, 0, 60, 0
2, 2304, Note_on_c, 0, 74, 94
2, 2876, Note_on_c, 0, 74, 0
2, 2880, Note_on_c, 0, 75, 98
2, 2880, Note_on_c, 0, 59, 87
2, 3068, Note_on_c, 0, 59, 0
2, 3068, Note_on_c, 0, 75, 0
2, 3072, Note_on_c, 0, 72, 69
2, 3648, Note_on_c, 0, 60, 94
2, 3748, Note_on_c, 0, 74, 74
2, 3836, Note_on_c, 0, 60, 0
2, 3836, Note_on_c, 0, 72, 0
2, 3840, Note_on_c, 0, 74, 0
2, 3840, Note_on_c, 0, 63, 80
2, 3840, Note_on_c, 0, 72, 74
2, 4028, Note_on_c, 0, 72, 0
2, 4028, Note_on_c, 0, 63, 0
2, 4032, Note_on_c, 0, 71, 69
2, 4032, Note_on_c, 0, 67, 48
2, 4220, Note_on_c, 0, 67, 0
2, 4220, Note_on_c, 0, 71, 0
2, 4224, Note_on_c, 0, 63, 73
2, 4224, Note_on_c, 0, 72, 77
2, 4412, Note_on_c, 0, 72, 0
2, 4412, Note_on_c, 0, 63, 0
2, 4416, Note_on_c, 0, 74, 79
2, 4416, Note_on_c, 0, 62, 74
2, 4512, Note_on_c, 0, 77, 78
2, 4604, Note_on_c, 0, 77, 0
2, 4604, Note_on_c, 0, 62, 0
2, 4604, Note_on_c, 0, 74, 0
2, 4608, Note_on_c, 0, 75, 88
2, 4608, Note_on_c, 0, 60, 73
2, 4796, Note_on_c, 0, 60, 0
2, 4796, Note_on_c, 0, 75, 0
2, 4800, Note_on_c, 0, 74, 86
2, 4800, Note_on_c, 0, 67, 82
2, 4988, Note_on_c, 0, 67, 0
2, 4988, Note_on_c, 0, 74, 0
2, 4992, Note_on_c, 0, 75, 84
2, 4992, Note_on_c, 0, 60, 83
2, 4992, Note_on_c, 0, 63, 78
2, 5180, Note_on_c, 0, 63, 0
2, 5180, Note_on_c, 0, 60, 0
2, 5180, Note_on_c, 0, 75, 0
2, 5184, Note_on_c, 0, 77, 86
2, 5184, Note_on_c, 0, 67, 81
2, 5372, Note_on_c, 0, 67, 0
2, 5372, Note_on_c, 0, 77, 0
2, 5376, Note_on_c, 0, 59, 72
2, 5376, Note_on_c, 0, 62, 83
2, 5376, Note_on_c, 0, 79, 96
2, 5468, Note_on_c, 0, 79, 0
2, 5564, Note_on_c, 0, 62, 0
2, 5564, Note_on_c, 0, 59, 0
2, 5568, Note_on_c, 0, 67, 82
2, 5756, Note_on_c, 0, 67, 0
2, 5760, Note_on_c, 0, 60, 87
2, 5760, Note_on_c, 0, 56, 88
2, 5760, Note_on_c, 0, 79, 74
2, 5852, Note_on_c, 0, 79, 0
2, 5948, Note_on_c, 0, 56, 0
2, 5948, Note_on_c, 0, 60, 0
2, 5952, Note_on_c, 0, 67, 57
2, 6140, Note_on_c, 0, 67, 0
2, 6144, Note_on_c, 0, 79, 93
2, 6336, Note_on_c, 0, 59, 76
2, 6524, Note_on_c, 0, 59, 0
2, 6528, Note_on_c, 0, 62, 86
2, 6716, Note_on_c, 0, 62, 0
2, 6720, Note_on_c, 0, 67, 83
2, 6908, Note_on_c, 0, 67, 0
2, 7104, Note_on_c, 0, 59, 75
2, 7292, Note_on_c, 0, 59, 0
2, 7292, Note_on_c, 0, 79, 0
2, 7296, Note_on_c, 0, 62, 85
2, 7296, Note_on_c, 0, 77, 83
2, 7484, Note_on_c, 0, 77, 0
2, 7484, Note_on_c, 0, 62, 0
2, 7488, Note_on_c, 0, 67, 73
2, 7488, Note_on_c, 0, 79, 95
2, 7580, Note_on_c, 0, 77, 77
2, 7624, Note_on_c, 0, 77, 0
2, 7628, Note_on_c, 0, 79, 90
2, 7672, Note_on_c, 0, 79, 0
2, 7676, Note_on_c, 0, 79, 0
2, 7676, Note_on_c, 0, 67, 0
2, 7680, Note_on_c, 0, 80, 103
2, 8064, Note_on_c, 0, 59, 76
2, 8252, Note_on_c, 0, 59, 0
2, 8256, Note_on_c, 0, 62, 82
2, 8444, Note_on_c, 0, 62, 0
2, 8444, Note_on_c, 0, 80, 0
2, 8448, Note_on_c, 0, 74, 92
2, 8828, Note_on_c, 0, 74, 0
2, 8832, Note_on_c, 0, 59, 65
2, 8832, Note_on_c, 0, 75, 86
2, 9020, Note_on_c, 0, 75, 0
2, 9020, Note_on_c, 0, 59, 0
2, 9024, Note_on_c, 0, 62, 88
2, 9024, Note_on_c, 0, 77, 101
2, 9120, Note_on_c, 0, 75, 84
2, 9164, Note_on_c, 0, 75, 0
2, 9168, Note_on_c, 0, 77, 97
2, 9212, Note_on_c, 0, 77, 0
2, 9212, Note_on_c, 0, 77, 0
2, 9212, Note_on_c, 0, 62, 0
2, 9216, Note_on_c, 0, 79, 90
2, 9600, Note_on_c, 0, 60, 81
2, 9788, Note_on_c, 0, 60, 0
2, 9792, Note_on_c, 0, 63, 78
2, 9980, Note_on_c, 0, 63, 0
2, 9980, Note_on_c, 0, 79, 0
2, 9984, Note_on_c, 0, 72, 77
2, 10176, Note_on_c, 0, 60, 85
2, 10364, Note_on_c, 0, 60, 0
2, 10364, Note_on_c, 0, 72, 0
2, 10368, Note_on_c, 0, 63, 71
2, 10368, Note_on_c, 0, 72, 74
2, 10556, Note_on_c, 0, 72, 0
2, 10556, Note_on_c, 0, 63, 0
2, 10560, Note_on_c, 0, 66, 80
2, 10560, Note_on_c, 0, 74, 88
2, 10748, Note_on_c, 0, 74, 0
2, 10748, Note_on_c, 0, 66, 0
2, 10752, Note_on_c, 0, 75, 86
2, 10844, Note_on_c, 0, 75, 0
2, 10944, Note_on_c, 0, 60, 86
2, 11132, Note_on_c, 0, 60, 0
2, 11136, Note_on_c, 0, 63, 73
2, 11136, Note_on_c, 0, 75, 80
2, 11324, Note_on_c, 0, 75, 0
2, 11324, Note_on_c, 0, 63, 0
2, 11328, Note_on_c, 0, 67, 59
2, 11328, Note_on_c, 0, 77, 96
2, 11516, Note_on_c, 0, 77, 0
2, 11516, Note_on_c, 0, 67, 0
2, 11520, Note_on_c, 0, 74, 89
2, 11612, Note_on_c, 0, 74, 0
2, 11712, Note_on_c, 0, 59, 77
2, 11900, Note_on_c, 0, 59, 0
2, 11904, Note_on_c, 0, 62, 96
2, 11904, Note_on_c, 0, 74, 78
2, 12092, Note_on_c, 0, 74, 0
2, 12092, Note_on_c, 0, 62, 0
2, 12096, Note_on_c, 0, 67, 97
2, 12096, Note_on_c, 0, 75, 86
2, 12284, Note_on_c, 0, 75, 0
2, 12284, Note_on_c, 0, 67, 0
2, 12288, Note_on_c, 0, 72, 85
2, 12668, Note_on_c, 0, 72, 0
2, 13056, Note_on_c, 0, 60, 96
2, 13436, Note_on_c, 0, 60, 0
2, 13440, Note_on_c, 0, 77, 93
2, 13628, Note_on_c, 0, 77, 0
2, 13632, Note_on_c, 0, 79, 94
2, 13820, Note_on_c, 0, 79, 0
2, 13824, Note_on_c, 0, 80, 98
2, 13824, Note_on_c, 0, 68, 88
2, 14588, Note_on_c, 0, 68, 0
2, 14588, Note_on_c, 0, 80, 0
2, 14592, Note_on_c, 0, 74, 92
2, 14684, Note_on_c, 0, 74, 0
2, 14976, Note_on_c, 0, 75, 80
2, 15164, Note_on_c, 0, 75, 0
2, 15168, Note_on_c, 0, 77, 99
2, 15356, Note_on_c, 0, 77, 0
2, 15360, Note_on_c, 0, 67, 103
2, 15360, Note_on_c, 0, 79, 100
2, 16124, Note_on_c, 0, 79, 0
2, 16124, Note_on_c, 0, 67, 0
2, 16128, Note_on_c, 0, 72, 90
2, 16220, Note_on_c, 0, 72, 0
2, 16512, Note_on_c, 0, 72, 95
2, 16700, Note_on_c, 0, 72, 0
2, 16704, Note_on_c, 0, 74, 94
2, 16892, Note_on_c, 0, 74, 0
2, 16896, Note_on_c, 0, 75, 90
2, 16988, Note_on_c, 0, 75, 0
2, 17280, Note_on_c, 0, 60, 92
2, 17280, Note_on_c, 0, 75, 91
2, 17468, Note_on_c, 0, 75, 0
2, 17468, Note_on_c, 0, 60, 0
2, 17472, Note_on_c, 0, 77, 94
2, 17660, Note_on_c, 0, 77, 0
2, 17664, Note_on_c, 0, 74, 91
2, 17756, Note_on_c, 0, 74, 0
2, 18048, Note_on_c, 0, 59, 92
2, 18048, Note_on_c, 0, 74, 79
2, 18236, Note_on_c, 0, 74, 0
2, 18236, Note_on_c, 0, 59, 0
2, 18240, Note_on_c, 0, 75, 86
2, 18428, Note_on_c, 0, 75, 0
2, 18432, Note_on_c, 0, 72, 95
2, 18524, Note_on_c, 0, 72, 0
2, 18624, Note_on_c, 0, 60, 83
2, 18812, Note_on_c, 0, 60, 0
2, 18816, Note_on_c, 0, 59, 87
2, 18816, Note_on_c, 0, 82, 92
2, 19004, Note_on_c, 0, 59, 0
2, 19008, Note_on_c, 0, 60, 76
2, 19196, Note_on_c, 0, 60, 0
2, 19392, Note_on_c, 0, 60, 83
2, 19580, Note_on_c, 0, 60, 0
2, 19580, Note_on_c, 0, 82, 0
2, 19584, Note_on_c, 0, 82, 93
2, 19776, Note_on_c, 0, 60, 89
2, 19964, Note_on_c, 0, 60, 0
2, 20156, Note_on_c, 0, 82, 0
2, 20160, Note_on_c, 0, 60, 57
2, 20160, Note_on_c, 0, 80, 98
2, 20348, Note_on_c, 0, 80, 0
2, 20348, Note_on_c, 0, 60, 0
2, 20352, Note_on_c, 0, 79, 91
2, 20540, Note_on_c, 0, 79, 0
2, 20544, Note_on_c, 0, 60, 85
2, 20544, Note_on_c, 0, 77, 95
2, 20732, Note_on_c, 0, 77, 0
2, 20732, Note_on_c, 0, 60, 0
2, 20736, Note_on_c, 0, 75, 86
2, 20924, Note_on_c, 0, 75, 0
2, 20928, Note_on_c, 0, 65, 82
2, 20928, Note_on_c, 0, 74, 94
2, 21116, Note_on_c, 0, 74, 0
2, 21116, Note_on_c, 0, 65, 0
2, 21120, Note_on_c, 0, 59, 82
2, 21120, Note_on_c, 0, 72, 87
2, 21308, Note_on_c, 0, 72, 0
2, 21308, Note_on_c, 0, 59, 0
2, 21312, Note_on_c, 0, 65, 81
2, 21312, Note_on_c, 0, 71, 87
2, 21500, Note_on_c, 0, 71, 0
2, 21500, Note_on_c, 0, 65, 0
2, 21504, Note_on_c, 0, 72, 88
2, 21596, Note_on_c, 0, 72, 0
2, 21696, Note_on_c, 0, 63, 86
2, 21884, Note_on_c, 0, 63, 0
2, 21888, Note_on_c, 0, 60, 83
2, 21888, Note_on_c, 0, 84, 105
2, 21888, Note_on_c, 0, 72, 95
2, 22076, Note_on_c, 0, 60, 0
2, 22080, Note_on_c, 0, 63, 73
2, 22268, Note_on_c, 0, 63, 0
2, 22464, Note_on_c, 0, 64, 82
2, 22652, Note_on_c, 0, 64, 0
2, 22652, Note_on_c, 0, 72, 0
2, 22652, Note_on_c, 0, 84, 0
2, 22656, Note_on_c, 0, 60, 88
2, 22656, Note_on_c, 0, 82, 100
2, 22844, Note_on_c, 0, 60, 0
2, 22848, Note_on_c, 0, 64, 89
2, 23036, Note_on_c, 0, 64, 0
2, 23228, Note_on_c, 0, 82, 0
2, 23232, Note_on_c, 0, 65, 79
2, 23232, Note_on_c, 0, 80, 89
2, 23420, Note_on_c, 0, 80, 0
2, 23420, Note_on_c, 0, 65, 0
2, 23424, Note_on_c, 0, 60, 91
2, 23424, Note_on_c, 0, 79, 92
2, 23612, Note_on_c, 0, 79, 0
2, 23612, Note_on_c, 0, 60, 0
2, 23616, Note_on_c, 0, 65, 83
2, 23616, Note_on_c, 0, 77, 96
2, 23804, Note_on_c, 0, 77, 0
2, 23804, Note_on_c, 0, 65, 0
2, 23808, Note_on_c, 0, 75, 92
2, 23996, Note_on_c, 0, 75, 0
2, 24000, Note_on_c, 0, 67, 92
2, 24000, Note_on_c, 0, 74, 86
2, 24188, Note_on_c, 0, 74, 0
2, 24188, Note_on_c, 0, 67, 0
2, 24192, Note_on_c, 0, 72, 83
2, 24380, Note_on_c, 0, 72, 0
2, 24384, Note_on_c, 0, 67, 97
2, 24384, Note_on_c, 0, 71, 88
2, 24572, Note_on_c, 0, 71, 0
2, 24572, Note_on_c, 0, 67, 0
2, 24576, Note_on_c, 0, 72, 89
2, 24576, Note_on_c, 0, 60, 99
2, 24956, Note_on_c, 0, 60, 0
2, 24956, Note_on_c, 0, 72, 0
2, 24960, Note_on_c, 0, 59, 87
2, 24960, Note_on_c, 0, 55, 94
2, 24960, Note_on_c, 0, 74, 86
2, 25004, Note_on_c, 0, 74, 0
2, 25008, Note_on_c, 0, 72, 68
2, 25052, Note_on_c, 0, 72, 0
2, 25052, Note_on_c, 0, 55, 0
2, 25052, Note_on_c, 0, 59, 0
2, 25056, Note_on_c, 0, 74, 79
2, 25100, Note_on_c, 0, 74, 0
2, 25104, Note_on_c, 0, 72, 71
2, 25148, Note_on_c, 0, 72, 0
2, 25152, Note_on_c, 0, 74, 73
2, 25196, Note_on_c, 0, 74, 0
2, 25200, Note_on_c, 0, 72, 75
2, 25244, Note_on_c, 0, 72, 0
2, 25248, Note_on_c, 0, 74, 89
2, 25340, Note_on_c, 0, 74, 0
2, 25344, Note_on_c, 0, 60, 89
2, 25344, Note_on_c, 0, 48, 98
2, 25344, Note_on_c, 0, 75, 92
2, 25436, Note_on_c, 0, 75, 0
2, 25436, Note_on_c, 0, 48, 0
2, 25436, Note_on_c, 0, 60, 0
2, 25728, Note_on_c, 0, 71, 104
2, 25728, Note_on_c, 0, 74, 108
2, 25728, Note_on_c, 0, 83, 109
2, 25820, Note_on_c, 0, 83, 0
2, 25820, Note_on_c, 0, 74, 0
2, 25820, Note_on_c, 0, 71, 0
2, 26112, Note_on_c, 0, 72, 92
2, 26112, Note_on_c, 0, 75, 95
2, 26112, Note_on_c, 0, 84, 111
2, 26204, Note_on_c, 0, 84, 0
2, 26204, Note_on_c, 0, 75, 0
2, 26204, Note_on_c, 0, 72, 0
2, 29184, Note_on_c, 0, 65, 75
2, 29372, Note_on_c, 0, 65, 0
2, 29376, Note_on_c, 0, 72, 76
2, 29564, Note_on_c, 0, 72, 0
2, 29568, Note_on_c, 0, 68, 58
2, 29756, Note_on_c, 0, 68, 0
2, 29760, Note_on_c, 0, 77, 41
2, 29948, Note_on_c, 0, 77, 0
2, 29952, Note_on_c, 0, 72, 71
2, 30140, Note_on_c, 0, 72, 0
2, 30144, Note_on_c, 0, 80, 96
2, 30332, Note_on_c, 0, 80, 0
2, 30336, Note_on_c, 0, 77, 85
2, 30524, Note_on_c, 0, 77, 0
2, 30528, Note_on_c, 0, 84, 82
2, 30716, Note_on_c, 0, 84, 0
2, 30720, Note_on_c, 0, 82, 84
2, 30908, Note_on_c, 0, 82, 0
2, 30912, Note_on_c, 0, 79, 98
2, 31100, Note_on_c, 0, 79, 0
2, 31104, Note_on_c, 0, 76, 87
2, 31292, Note_on_c, 0, 76, 0
2, 31296, Note_on_c, 0, 72, 79
2, 31484, Note_on_c, 0, 72, 0
2, 31488, Note_on_c, 0, 70, 86
2, 31488, Note_on_c, 0, 60, 71
2, 31488, Note_on_c, 0, 52, 73
2, 31676, Note_on_c, 0, 70, 0
2, 31680, Note_on_c, 0, 71, 90
2, 31868, Note_on_c, 0, 71, 0
2, 31868, Note_on_c, 0, 52, 0
2, 31868, Note_on_c, 0, 60, 0
2, 31872, Note_on_c, 0, 72, 81
2, 31872, Note_on_c, 0, 60, 84
2, 31872, Note_on_c, 0, 52, 74
2, 32060, Note_on_c, 0, 72, 0
2, 32064, Note_on_c, 0, 67, 58
2, 32252, Note_on_c, 0, 67, 0
2, 32252, Note_on_c, 0, 52, 0
2, 32252, Note_on_c, 0, 60, 0
2, 32256, Note_on_c, 0, 70, 93
2, 32256, Note_on_c, 0, 60, 81
2, 32256, Note_on_c, 0, 53, 78
2, 33020, Note_on_c, 0, 70, 0
2, 33024, Note_on_c, 0, 68, 59
2, 33404, Note_on_c, 0, 68, 0
2, 33404, Note_on_c, 0, 53, 0
2, 33404, Note_on_c, 0, 60, 0
2, 35328, Note_on_c, 0, 63, 88
2, 35516, Note_on_c, 0, 63, 0
2, 35520, Note_on_c, 0, 70, 85
2, 35708, Note_on_c, 0, 70, 0
2, 35712, Note_on_c, 0, 67, 85
2, 35900, Note_on_c, 0, 67, 0
2, 35904, Note_on_c, 0, 75, 84
2, 36092, Note_on_c, 0, 75, 0
2, 36096, Note_on_c, 0, 70, 75
2, 36284, Note_on_c, 0, 70, 0
2, 36288, Note_on_c, 0, 79, 89
2, 36476, Note_on_c, 0, 79, 0
2, 36480, Note_on_c, 0, 75, 75
2, 36668, Note_on_c, 0, 75, 0
2, 36672, Note_on_c, 0, 82, 84
2, 36860, Note_on_c, 0, 82, 0
2, 36864, Note_on_c, 0, 80, 90
2, 37052, Note_on_c, 0, 80, 0
2, 37056, Note_on_c, 0, 79, 88
2, 37244, Note_on_c, 0, 79, 0
2, 37248, Note_on_c, 0, 77, 88
2, 37248, Note_on_c, 0, 58, 79
2, 37248, Note_on_c, 0, 50, 83
2, 37436, Note_on_c, 0, 77, 0
2, 37440, Note_on_c, 0, 75, 88
2, 37628, Note_on_c, 0, 75, 0
2, 37628, Note_on_c, 0, 50, 0
2, 37628, Note_on_c, 0, 58, 0
2, 37632, Note_on_c, 0, 74, 85
2, 37820, Note_on_c, 0, 74, 0
2, 37824, Note_on_c, 0, 72, 76
2, 38012, Note_on_c, 0, 72, 0
2, 38016, Note_on_c, 0, 70, 78
2, 38204, Note_on_c, 0, 70, 0
2, 38208, Note_on_c, 0, 68, 78
2, 38396, Note_on_c, 0, 68, 0
2, 38400, Note_on_c, 0, 67, 89
2, 38492, Note_on_c, 0, 67, 0
2, 38592, Note_on_c, 0, 58, 80
2, 38780, Note_on_c, 0, 58, 0
2, 38784, Note_on_c, 0, 63, 82
2, 38784, Note_on_c, 0, 70, 87
2, 38972, Note_on_c, 0, 63, 0
2, 38976, Note_on_c, 0, 58, 85
2, 39164, Note_on_c, 0, 58, 0
2, 39360, Note_on_c, 0, 58, 85
2, 39548, Note_on_c, 0, 58, 0
2, 39548, Note_on_c, 0, 70, 0
2, 39552, Note_on_c, 0, 62, 89
2, 39552, Note_on_c, 0, 70, 88
2, 39740, Note_on_c, 0, 62, 0
2, 39744, Note_on_c, 0, 58, 86
2, 39932, Note_on_c, 0, 58, 0
2, 40124, Note_on_c, 0, 70, 0
2, 40128, Note_on_c, 0, 58, 78
2, 40128, Note_on_c, 0, 72, 57
2, 40316, Note_on_c, 0, 72, 0
2, 40316, Note_on_c, 0, 58, 0
2, 40320, Note_on_c, 0, 63, 84
2, 40320, Note_on_c, 0, 74, 76
2, 40508, Note_on_c, 0, 74, 0
2, 40508, Note_on_c, 0, 63, 0
2, 40512, Note_on_c, 0, 58, 87
2, 40512, Note_on_c, 0, 75, 79
2, 40700, Note_on_c, 0, 75, 0
2, 40700, Note_on_c, 0, 58, 0
2, 40704, Note_on_c, 0, 77, 58
2, 40892, Note_on_c, 0, 77, 0
2, 40896, Note_on_c, 0, 58, 80
2, 40896, Note_on_c, 0, 79, 76
2, 41084, Note_on_c, 0, 79, 0
2, 41084, Note_on_c, 0, 58, 0
2, 41088, Note_on_c, 0, 62, 74
2, 41088, Note_on_c, 0, 80, 82
2, 41276, Note_on_c, 0, 80, 0
2, 41276, Note_on_c, 0, 62, 0
2, 41280, Note_on_c, 0, 58, 76
2, 41280, Note_on_c, 0, 77, 84
2, 41468, Note_on_c, 0, 77, 0
2, 41468, Note_on_c, 0, 58, 0
2, 41472, Note_on_c, 0, 80, 88
2, 41660, Note_on_c, 0, 80, 0
2, 41664, Note_on_c, 0, 58, 78
2, 41664, Note_on_c, 0, 79, 83
2, 41852, Note_on_c, 0, 79, 0
2, 41852, Note_on_c, 0, 58, 0
2, 41856, Note_on_c, 0, 63, 75
2, 41856, Note_on_c, 0, 77, 80
2, 42044, Note_on_c, 0, 77, 0
2, 42044, Note_on_c, 0, 63, 0
2, 42048, Note_on_c, 0, 58, 77
2, 42048, Note_on_c, 0, 75, 79
2, 42236, Note_on_c, 0, 75, 0
2, 42236, Note_on_c, 0, 58, 0
2, 42240, Note_on_c, 0, 75, 80
2, 42428, Note_on_c, 0, 75, 0
2, 42432, Note_on_c, 0, 58, 90
2, 42432, Note_on_c, 0, 74, 86
2, 42620, Note_on_c, 0, 74, 0
2, 42620, Note_on_c, 0, 58, 0
2, 42624, Note_on_c, 0, 65, 81
2, 42624, Note_on_c, 0, 72, 79
2, 42812, Note_on_c, 0, 72, 0
2, 42812, Note_on_c, 0, 65, 0
2, 42816, Note_on_c, 0, 58, 91
2, 42816, Note_on_c, 0, 74, 85
2, 43004, Note_on_c, 0, 74, 0
2, 43004, Note_on_c, 0, 58, 0
2, 43008, Note_on_c, 0, 77, 88
2, 43196, Note_on_c, 0, 77, 0
2, 43200, Note_on_c, 0, 58, 75
2, 43200, Note_on_c, 0, 75, 87
2, 43388, Note_on_c, 0, 75, 0
2, 43388, Note_on_c, 0, 58, 0
2, 43392, Note_on_c, 0, 63, 76
2, 43392, Note_on_c, 0, 74, 90
2, 43580, Note_on_c, 0, 74, 0
2, 43580, Note_on_c, 0, 63, 0
2, 43584, Note_on_c, 0, 58, 78
2, 43584, Note_on_c, 0, 72, 81
2, 43772, Note_on_c, 0, 72, 0
2, 43772, Note_on_c, 0, 58, 0
2, 43776, Note_on_c, 0, 70, 79
2, 43776, Note_on_c, 0, 68, 83
2, 43964, Note_on_c, 0, 68, 0
2, 43964, Note_on_c, 0, 70, 0
2, 43968, Note_on_c, 0, 58, 80
2, 44156, Note_on_c, 0, 58, 0
2, 44160, Note_on_c, 0, 68, 79
2, 44160, Note_on_c, 0, 70, 71
2, 44348, Note_on_c, 0, 70, 0
2, 44348, Note_on_c, 0, 68, 0
2, 44352, Note_on_c, 0, 58, 79
2, 44540, Note_on_c, 0, 58, 0
2, 44544, Note_on_c, 0, 70, 66
2, 44544, Note_on_c, 0, 68, 74
2, 44732, Note_on_c, 0, 68, 0
2, 44736, Note_on_c, 0, 58, 84
2, 44736, Note_on_c, 0, 67, 83
2, 44924, Note_on_c, 0, 67, 0
2, 44924, Note_on_c, 0, 58, 0
2, 44928, Note_on_c, 0, 65, 79
2, 45116, Note_on_c, 0, 65, 0
2, 45120, Note_on_c, 0, 58, 71
2, 45120, Note_on_c, 0, 63, 80
2, 45308, Note_on_c, 0, 63, 0
2, 45308, Note_on_c, 0, 58, 0
2, 45312, Note_on_c, 0, 63, 86
2, 45500, Note_on_c, 0, 63, 0
2, 45504, Note_on_c, 0, 58, 85
2, 45504, Note_on_c, 0, 62, 79
2, 45692, Note_on_c, 0, 62, 0
2, 45692, Note_on_c, 0, 58, 0
2, 45696, Note_on_c, 0, 60, 81
2, 45884, Note_on_c, 0, 60, 0
2, 45888, Note_on_c, 0, 58, 80
2, 45888, Note_on_c, 0, 62, 88
2, 46076, Note_on_c, 0, 62, 0
2, 46076, Note_on_c, 0, 58, 0
2, 46076, Note_on_c, 0, 70, 0
2, 46080, Note_on_c, 0, 70, 79
2, 46080, Note_on_c, 0, 63, 75
2, 46268, Note_on_c, 0, 63, 0
2, 46268, Note_on_c, 0, 70, 0
2, 46272, Note_on_c, 0, 58, 85
2, 46272, Note_on_c, 0, 72, 77
2, 46460, Note_on_c, 0, 72, 0
2, 46460, Note_on_c, 0, 58, 0
2, 46464, Note_on_c, 0, 74, 98
2, 46652, Note_on_c, 0, 74, 0
2, 46656, Note_on_c, 0, 58, 70
2, 46656, Note_on_c, 0, 75, 88
2, 46844, Note_on_c, 0, 75, 0
2, 46844, Note_on_c, 0, 58, 0
2, 46848, Note_on_c, 0, 77, 96
2, 47036, Note_on_c, 0, 77, 0
2, 47040, Note_on_c, 0, 58, 80
2, 47040, Note_on_c, 0, 78, 87
2, 47228, Note_on_c, 0, 78, 0
2, 47228, Note_on_c, 0, 58, 0
2, 47232, Note_on_c, 0, 80, 91
2, 47420, Note_on_c, 0, 80, 0
2, 47424, Note_on_c, 0, 58, 84
2, 47424, Note_on_c, 0, 77, 93
2, 47612, Note_on_c, 0, 77, 0
2, 47612, Note_on_c, 0, 58, 0
2, 47616, Note_on_c, 0, 78, 76
2, 47808, Note_on_c, 0, 58, 80
2, 47996, Note_on_c, 0, 58, 0
2, 47996, Note_on_c, 0, 78, 0
2, 48000, Note_on_c, 0, 82, 100
2, 48192, Note_on_c, 0, 58, 73
2, 48380, Note_on_c, 0, 58, 0
2, 48576, Note_on_c, 0, 58, 76
2, 48764, Note_on_c, 0, 58, 0
2, 48764, Note_on_c, 0, 82, 0
2, 48768, Note_on_c, 0, 82, 92
2, 48960, Note_on_c, 0, 58, 62
2, 49148, Note_on_c, 0, 58, 0
2, 49344, Note_on_c, 0, 58, 74
2, 49532, Note_on_c, 0, 58, 0
2, 49532, Note_on_c, 0, 82, 0
2, 49536, Note_on_c, 0, 87, 88
2, 49728, Note_on_c, 0, 58, 77
2, 49916, Note_on_c, 0, 58, 0
2, 50112, Note_on_c, 0, 57, 86
2, 50300, Note_on_c, 0, 57, 0
2, 50300, Note_on_c, 0, 87, 0
2, 50304, Note_on_c, 0, 81, 85
2, 50496, Note_on_c, 0, 57, 97
2, 50684, Note_on_c, 0, 57, 0
2, 50684, Note_on_c, 0, 81, 0
2, 50688, Note_on_c, 0, 82, 86
2, 51072, Note_on_c, 0, 62, 88
2, 51072, Note_on_c, 0, 65, 87
2, 51072, Note_on_c, 0, 58, 80
2, 51192, Note_on_c, 0, 58, 0
2, 51192, Note_on_c, 0, 65, 0
2, 51192, Note_on_c, 0, 62, 0
2, 51452, Note_on_c, 0, 82, 0
2, 51456, Note_on_c, 0, 66, 102
2, 51456, Note_on_c, 0, 63, 105
2, 51456, Note_on_c, 0, 58, 104
2, 51580, Note_on_c, 0, 81, 82
2, 51700, Note_on_c, 0, 81, 0
2, 51708, Note_on_c, 0, 82, 91
2, 51828, Note_on_c, 0, 82, 0
2, 51840, Note_on_c, 0, 84, 89
2, 51960, Note_on_c, 0, 84, 0
2, 51968, Note_on_c, 0, 82, 93
2, 52088, Note_on_c, 0, 82, 0
2, 52096, Note_on_c, 0, 81, 78
2, 52216, Note_on_c, 0, 81, 0
2, 52220, Note_on_c, 0, 66, 0
2, 52220, Note_on_c, 0, 63, 0
2, 52220, Note_on_c, 0, 58, 0
2, 52224, Note_on_c, 0, 82, 88
2, 52608, Note_on_c, 0, 58, 97
2, 52608, Note_on_c, 0, 62, 101
2, 52608, Note_on_c, 0, 65, 103
2, 52796, Note_on_c, 0, 65, 0
2, 52796, Note_on_c, 0, 62, 0
2, 52796, Note_on_c, 0, 58, 0
2, 52988, Note_on_c, 0, 82, 0
2, 52992, Note_on_c, 0, 63, 101
2, 52992, Note_on_c, 0, 58, 101
2, 52992, Note_on_c, 0, 66, 88
2, 53120, Note_on_c, 0, 81, 78
2, 53244, Note_on_c, 0, 82, 83
2, 53308, Note_on_c, 0, 81, 0
2, 53376, Note_on_c, 0, 84, 89
2, 53432, Note_on_c, 0, 82, 0
2, 53504, Note_on_c, 0, 82, 75
2, 53564, Note_on_c, 0, 84, 0
2, 53632, Note_on_c, 0, 81, 84
2, 53692, Note_on_c, 0, 82, 0
2, 53756, Note_on_c, 0, 66, 0
2, 53756, Note_on_c, 0, 63, 0
2, 53756, Note_on_c, 0, 58, 0
2, 53760, Note_on_c, 0, 62, 81
2, 53760, Note_on_c, 0, 58, 72
2, 53760, Note_on_c, 0, 65, 78
2, 53820, Note_on_c, 0, 81, 0
2, 53888, Note_on_c, 0, 82, 71
2, 54012, Note_on_c, 0, 82, 0
2, 54016, Note_on_c, 0, 84, 84
2, 54140, Note_on_c, 0, 84, 0
2, 54140, Note_on_c, 0, 62, 0
2, 54140, Note_on_c, 0, 58, 0
2, 54140, Note_on_c, 0, 65, 0
2, 54144, Note_on_c, 0, 86, 85
2, 54268, Note_on_c, 0, 86, 0
2, 54272, Note_on_c, 0, 84, 81
2, 54396, Note_on_c, 0, 84, 0
2, 54400, Note_on_c, 0, 82, 70
2, 54524, Note_on_c, 0, 82, 0
2, 54528, Note_on_c, 0, 68, 80
2, 54528, Note_on_c, 0, 58, 83
2, 54528, Note_on_c, 0, 65, 86
2, 54656, Note_on_c, 0, 86, 77
2, 54780, Note_on_c, 0, 86, 0
2, 54784, Note_on_c, 0, 87, 78
2, 54908, Note_on_c, 0, 87, 0
2, 54908, Note_on_c, 0, 65, 0
2, 54908, Note_on_c, 0, 58, 0
2, 54908, Note_on_c, 0, 68, 0
2, 54912, Note_on_c, 0, 89, 85
2, 55036, Note_on_c, 0, 89, 0
2, 55040, Note_on_c, 0, 87, 83
2, 55164, Note_on_c, 0, 87, 0
2, 55168, Note_on_c, 0, 86, 83
2, 55292, Note_on_c, 0, 86, 0
2, 55296, Note_on_c, 0, 68, 89
2, 55296, Note_on_c, 0, 65, 97
2, 55296, Note_on_c, 0, 62, 97
2, 55296, Note_on_c, 0, 58, 86
2, 55296, Note_on_c, 0, 89, 76
2, 55420, Note_on_c, 0, 89, 0
2, 55424, Note_on_c, 0, 87, 77
2, 55548, Note_on_c, 0, 87, 0
2, 55552, Note_on_c, 0, 86, 79
2, 55676, Note_on_c, 0, 86, 0
2, 55676, Note_on_c, 0, 62, 0
2, 55676, Note_on_c, 0, 68, 0
2, 55676, Note_on_c, 0, 65, 0
2, 55676, Note_on_c, 0, 58, 0
2, 55680, Note_on_c, 0, 84, 83
2, 55804, Note_on_c, 0, 84, 0
2, 55808, Note_on_c, 0, 82, 82
2, 55932, Note_on_c, 0, 82, 0
2, 55936, Note_on_c, 0, 80, 82
2, 56060, Note_on_c, 0, 80, 0
2, 56064, Note_on_c, 0, 79, 78
2, 56188, Note_on_c, 0, 79, 0
2, 56192, Note_on_c, 0, 77, 82
2, 56316, Note_on_c, 0, 77, 0
2, 56320, Note_on_c, 0, 75, 80
2, 56444, Note_on_c, 0, 75, 0
2, 56448, Note_on_c, 0, 74, 85
2, 56540, Note_on_c, 0, 74, 0
2, 56544, Note_on_c, 0, 72, 82
2, 56636, Note_on_c, 0, 72, 0
2, 56640, Note_on_c, 0, 70, 79
2, 56732, Note_on_c, 0, 70, 0
2, 56736, Note_on_c, 0, 68, 83
2, 56828, Note_on_c, 0, 68, 0
2, 56832, Note_on_c, 0, 67, 83
2, 56956, Note_on_c, 0, 67, 0
2, 56960, Note_on_c, 0, 63, 76
2, 57084, Note_on_c, 0, 63, 0
2, 57088, Note_on_c, 0, 65, 76
2, 57212, Note_on_c, 0, 65, 0
2, 57216, Note_on_c, 0, 67, 85
2, 57340, Note_on_c, 0, 67, 0
2, 57344, Note_on_c, 0, 65, 81
2, 57468, Note_on_c, 0, 65, 0
2, 57472, Note_on_c, 0, 63, 88
2, 57596, Note_on_c, 0, 63, 0
2, 57600, Note_on_c, 0, 68, 90
2, 57728, Note_on_c, 0, 58, 79
2, 57852, Note_on_c, 0, 58, 0
2, 57856, Note_on_c, 0, 60, 74
2, 57980, Note_on_c, 0, 60, 0
2, 57984, Note_on_c, 0, 62, 83
2, 58108, Note_on_c, 0, 62, 0
2, 58112, Note_on_c, 0, 60, 81
2, 58236, Note_on_c, 0, 60, 0
2, 58240, Note_on_c, 0, 58, 83
2, 58364, Note_on_c, 0, 58, 0
2, 58364, Note_on_c, 0, 68, 0
2, 58368, Note_on_c, 0, 63, 69
2, 58368, Note_on_c, 0, 67, 92
2, 58492, Note_on_c, 0, 67, 0
2, 58496, Note_on_c, 0, 75, 86
2, 58620, Note_on_c, 0, 75, 0
2, 58624, Note_on_c, 0, 77, 92
2, 58748, Note_on_c, 0, 77, 0
2, 58748, Note_on_c, 0, 63, 0
2, 58752, Note_on_c, 0, 79, 94
2, 58876, Note_on_c, 0, 79, 0
2, 58880, Note_on_c, 0, 77, 95
2, 59004, Note_on_c, 0, 77, 0
2, 59008, Note_on_c, 0, 75, 98
2, 59132, Note_on_c, 0, 75, 0
2, 59136, Note_on_c, 0, 80, 100
2, 59264, Note_on_c, 0, 58, 86
2, 59388, Note_on_c, 0, 58, 0
2, 59392, Note_on_c, 0, 60, 86
2, 59516, Note_on_c, 0, 60, 0
2, 59520, Note_on_c, 0, 62, 92
2, 59644, Note_on_c, 0, 62, 0
2, 59648, Note_on_c, 0, 60, 78
2, 59772, Note_on_c, 0, 60, 0
2, 59776, Note_on_c, 0, 58, 93
2, 59900, Note_on_c, 0, 58, 0
2, 59900, Note_on_c, 0, 80, 0
2, 59904, Note_on_c, 0, 79, 94
2, 59904, Note_on_c, 0, 63, 91
2, 60028, Note_on_c, 0, 79, 0
2, 60032, Note_on_c, 0, 75, 91
2, 60156, Note_on_c, 0, 75, 0
2, 60160, Note_on_c, 0, 77, 94
2, 60284, Note_on_c, 0, 77, 0
2, 60284, Note_on_c, 0, 63, 0
2, 60288, Note_on_c, 0, 79, 86
2, 60412, Note_on_c, 0, 79, 0
2, 60416, Note_on_c, 0, 77, 89
2, 60540, Note_on_c, 0, 77, 0
2, 60544, Note_on_c, 0, 75, 88
2, 60668, Note_on_c, 0, 75, 0
2, 60672, Note_on_c, 0, 82, 92
2, 60672, Note_on_c, 0, 63, 102
2, 60796, Note_on_c, 0, 82, 0
2, 60800, Note_on_c, 0, 79, 87
2, 60924, Note_on_c, 0, 79, 0
2, 60928, Note_on_c, 0, 80, 85
2, 61052, Note_on_c, 0, 80, 0
2, 61052, Note_on_c, 0, 63, 0
2, 61056, Note_on_c, 0, 82, 87
2, 61180, Note_on_c, 0, 82, 0
2, 61184, Note_on_c, 0, 80, 94
2, 61308, Note_on_c, 0, 80, 0
2, 61312, Note_on_c, 0, 79, 99
2, 61436, Note_on_c, 0, 79, 0
2, 61440, Note_on_c, 0, 85, 97
2, 61440, Note_on_c, 0, 58, 87
2, 61440, Note_on_c, 0, 63, 79
2, 61440, Note_on_c, 0, 61, 88
2, 61440, Note_on_c, 0, 55, 86
2, 61564, Note_on_c, 0, 85, 0
2, 61568, Note_on_c, 0, 84, 95
2, 61692, Note_on_c, 0, 84, 0
2, 61696, Note_on_c, 0, 82, 97
2, 61820, Note_on_c, 0, 82, 0
2, 61820, Note_on_c, 0, 61, 0
2, 61820, Note_on_c, 0, 58, 0
2, 61820, Note_on_c, 0, 63, 0
2, 61820, Note_on_c, 0, 55, 0
2, 61824, Note_on_c, 0, 80, 99
2, 61948, Note_on_c, 0, 80, 0
2, 61952, Note_on_c, 0, 79, 90
2, 62076, Note_on_c, 0, 79, 0
2, 62080, Note_on_c, 0, 77, 92
2, 62204, Note_on_c, 0, 77, 0
2, 62208, Note_on_c, 0, 75, 92
2, 62332, Note_on_c, 0, 75, 0
2, 62336, Note_on_c, 0, 74, 95
2, 62460, Note_on_c, 0, 74, 0
2, 62464, Note_on_c, 0, 75, 96
2, 62588, Note_on_c, 0, 75, 0
2, 62592, Note_on_c, 0, 76, 99
2, 62716, Note_on_c, 0, 76, 0
2, 62720, Note_on_c, 0, 77, 94
2, 62844, Note_on_c, 0, 77, 0
2, 62848, Note_on_c, 0, 73, 97
2, 62972, Note_on_c, 0, 73, 0
2, 63360, Note_on_c, 0, 60, 71
2, 63484, Note_on_c, 0, 60, 0
2, 63488, Note_on_c, 0, 63, 89
2, 63612, Note_on_c, 0, 63, 0
2, 63616, Note_on_c, 0, 68, 87
2, 63740, Note_on_c, 0, 68, 0
2, 63744, Note_on_c, 0, 72, 81
2, 63868, Note_on_c, 0, 72, 0
2, 63872, Note_on_c, 0, 75, 87
2, 63996, Note_on_c, 0, 75, 0
2, 64000, Note_on_c, 0, 80, 89
2, 64124, Note_on_c, 0, 80, 0
2, 64128, Note_on_c, 0, 84, 89
2, 64188, Note_on_c, 0, 84, 0
2, 64320, Note_on_c, 0, 84, 94
2, 64380, Note_on_c, 0, 84, 0
2, 64512, Note_on_c, 0, 63, 73
2, 64512, Note_on_c, 0, 67, 77
2, 64512, Note_on_c, 0, 58, 80
2, 64512, Note_on_c, 0, 84, 98
2, 64700, Note_on_c, 0, 84, 0
2, 64704, Note_on_c, 0, 82, 93
2, 64892, Note_on_c, 0, 82, 0
2, 64892, Note_on_c, 0, 58, 0
2, 64892, Note_on_c, 0, 67, 0
2, 64892, Note_on_c, 0, 63, 0
2, 64896, Note_on_c, 0, 80, 91
2, 64956, Note_on_c, 0, 80, 0
2, 65088, Note_on_c, 0, 79, 94
2, 65148, Note_on_c, 0, 79, 0
2, 65280, Note_on_c, 0, 58, 84
2, 65280, Note_on_c, 0, 65, 89
2, 65280, Note_on_c, 0, 68, 72
2, 65280, Note_on_c, 0, 79, 95
2, 65468, Note_on_c, 0, 79, 0
2, 65472, Note_on_c, 0, 77, 92
2, 65660, Note_on_c, 0, 77, 0
2, 65660, Note_on_c, 0, 68, 0
2, 65660, Note_on_c, 0, 65, 0
2, 65660, Note_on_c, 0, 58, 0
2, 65664, Note_on_c, 0, 75, 97
2, 65724, Note_on_c, 0, 75, 0
2, 65856, Note_on_c, 0, 74, 94
2, 65916, Note_on_c, 0, 74, 0
2, 66048, Note_on_c, 0, 67, 92
2, 66048, Note_on_c, 0, 63, 85
2, 66048, Note_on_c, 0, 75, 95
2, 66428, Note_on_c, 0, 75, 0
2, 66428, Note_on_c, 0, 63, 0
2, 66428, Note_on_c, 0, 67, 0
2, 67200, Note_on_c, 0, 58, 65
2, 67580, Note_on_c, 0, 58, 0
2, 67968, Note_on_c, 0, 65, 72
2, 67968, Note_on_c, 0, 62, 63
2, 67968, Note_on_c, 0, 56, 72
2, 67968, Note_on_c, 0, 58, 67
2, 68348, Note_on_c, 0, 58, 0
2, 68348, Note_on_c, 0, 65, 0
2, 68348, Note_on_c, 0, 62, 0
2, 68348, Note_on_c, 0, 56, 0
2, 68352, Note_on_c, 0, 65, 72
2, 68352, Note_on_c, 0, 58, 61
2, 68352, Note_on_c, 0, 62, 66
2, 68352, Note_on_c, 0, 56, 70
2, 68732, Note_on_c, 0, 56, 0
2, 68732, Note_on_c, 0, 65, 0
2, 68732, Note_on_c, 0, 58, 0
2, 68732, Note_on_c, 0, 62, 0
2, 68736, Note_on_c, 0, 58, 60
2, 68736, Note_on_c, 0, 65, 71
2, 68736, Note_on_c, 0, 56, 74
2, 68736, Note_on_c, 0, 62, 59
2, 69116, Note_on_c, 0, 62, 0
2, 69116, Note_on_c, 0, 58, 0
2, 69116, Note_on_c, 0, 65, 0
2, 69116, Note_on_c, 0, 56, 0
2, 69120, Note_on_c, 0, 70, 73
2, 69120, Note_on_c, 0, 58, 59
2, 69120, Note_on_c, 0, 63, 66
2, 69120, Note_on_c, 0, 55, 74
2, 70268, Note_on_c, 0, 55, 0
2, 70268, Note_on_c, 0, 70, 0
2, 70268, Note_on_c, 0, 58, 0
2, 70268, Note_on_c, 0, 63, 0
2, 70272, Note_on_c, 0, 70, 68
2, 70272, Note_on_c, 0, 63, 70
2, 70272, Note_on_c, 0, 55, 77
2, 70652, Note_on_c, 0, 55, 0
2, 70652, Note_on_c, 0, 63, 0
2, 70652, Note_on_c, 0, 70, 0
2, 70656, Note_on_c, 0, 60, 49
2, 70656, Note_on_c, 0, 63, 55
2, 70656, Note_on_c, 0, 68, 65
2, 70908, Note_on_c, 0, 68, 0
2, 70908, Note_on_c, 0, 63, 0
2, 70908, Note_on_c, 0, 60, 0
2, 71424, Note_on_c, 0, 59, 68
2, 71424, Note_on_c, 0, 65, 52
2, 71424, Note_on_c, 0, 63, 47
2, 71424, Note_on_c, 0, 69, 67
2, 71676, Note_on_c, 0, 69, 0
2, 71676, Note_on_c, 0, 59, 0
2, 71676, Note_on_c, 0, 65, 0
2, 71676, Note_on_c, 0, 63, 0
2, 72192, Note_on_c, 0, 58, 63
2, 72192, Note_on_c, 0, 70, 63
2, 72192, Note_on_c, 0, 65, 77
2, 72192, Note_on_c, 0, 62, 60
2, 73340, Note_on_c, 0, 62, 0
2, 73340, Note_on_c, 0, 58, 0
2, 73340, Note_on_c, 0, 70, 0
2, 73340, Note_on_c, 0, 65, 0
2, 73344, Note_on_c, 0, 70, 64
2, 73724, Note_on_c, 0, 70, 0
2, 73728, Note_on_c, 0, 70, 48
2, 73728, Note_on_c, 0, 77, 74
2, 73728, Note_on_c, 0, 56, 69
2, 73728, Note_on_c, 0, 62, 34
2, 74108, Note_on_c, 0, 62, 0
2, 74108, Note_on_c, 0, 70, 0
2, 74108, Note_on_c, 0, 77, 0
2, 74108, Note_on_c, 0, 56, 0
2, 74112, Note_on_c, 0, 70, 46
2, 74112, Note_on_c, 0, 77, 73
2, 74112, Note_on_c, 0, 62, 60
2, 74112, Note_on_c, 0, 56, 71
2, 74492, Note_on_c, 0, 56, 0
2, 74492, Note_on_c, 0, 70, 0
2, 74492, Note_on_c, 0, 77, 0
2, 74492, Note_on_c, 0, 62, 0
2, 74496, Note_on_c, 0, 62, 56
2, 74496, Note_on_c, 0, 70, 41
2, 74496, Note_on_c, 0, 77, 66
2, 74496, Note_on_c, 0, 56, 73
2, 74876, Note_on_c, 0, 56, 0
2, 74876, Note_on_c, 0, 62, 0
2, 74876, Note_on_c, 0, 70, 0
2, 74876, Note_on_c, 0, 77, 0
2, 74880, Note_on_c, 0, 70, 51
2, 74880, Note_on_c, 0, 77, 78
2, 74880, Note_on_c, 0, 56, 72
2, 74880, Note_on_c, 0, 62, 73
2, 75260, Note_on_c, 0, 62, 0
2, 75260, Note_on_c, 0, 70, 0
2, 75260, Note_on_c, 0, 77, 0
2, 75260, Note_on_c, 0, 56, 0
2, 75264, Note_on_c, 0, 63, 80
2, 75264, Note_on_c, 0, 55, 81
2, 75264, Note_on_c, 0, 70, 66
2, 75264, Note_on_c, 0, 82, 102
2, 76028, Note_on_c, 0, 70, 0
2, 76032, Note_on_c, 0, 73, 86
2, 76412, Note_on_c, 0, 82, 0
2, 76416, Note_on_c, 0, 83, 112
2, 76796, Note_on_c, 0, 83, 0
2, 76796, Note_on_c, 0, 73, 0
2, 76796, Note_on_c, 0, 55, 0
2, 76796, Note_on_c, 0, 63, 0
2, 76800, Note_on_c, 0, 84, 114
2, 76800, Note_on_c, 0, 63, 99
2, 76800, Note_on_c, 0, 72, 109
2, 76800, Note_on_c, 0, 56, 104
2, 76924, Note_on_c, 0, 56, 0
2, 76924, Note_on_c, 0, 84, 0
2, 76924, Note_on_c, 0, 63, 0
2, 76924, Note_on_c, 0, 72, 0
2, 77568, Note_on_c, 0, 68, 108
2, 77568, Note_on_c, 0, 74, 118
2, 77568, Note_on_c, 0, 65, 108
2, 77568, Note_on_c, 0, 58, 102
2, 77568, Note_on_c, 0, 46, 106
2, 77948, Note_on_c, 0, 46, 0
2, 77948, Note_on_c, 0, 65, 0
2, 77948, Note_on_c, 0, 68, 0
2, 77948, Note_on_c, 0, 74, 0
2, 77948, Note_on_c, 0, 58, 0
2, 78336, Note_on_c, 0, 67, 91
2, 78336, Note_on_c, 0, 75, 84
2, 78464, Note_on_c, 0, 63, 76
2, 78588, Note_on_c, 0, 63, 0
2, 78592, Note_on_c, 0, 65, 85
2, 78716, Note_on_c, 0, 65, 0
2, 78716, Note_on_c, 0, 75, 0
2, 78716, Note_on_c, 0, 67, 0
2, 78720, Note_on_c, 0, 67, 85
2, 78844, Note_on_c, 0, 67, 0
2, 78848, Note_on_c, 0, 65, 79
2, 78972, Note_on_c, 0, 65, 0
2, 78976, Note_on_c, 0, 63, 71
2, 79100, Note_on_c, 0, 63, 0
2, 79104, Note_on_c, 0, 68, 90
2, 79232, Note_on_c, 0, 70, 69
2, 79356, Note_on_c, 0, 70, 0
2, 79360, Note_on_c, 0, 72, 79
2, 79484, Note_on_c, 0, 72, 0
2, 79488, Note_on_c, 0, 74, 78
2, 79612, Note_on_c, 0, 74, 0
2, 79616, Note_on_c, 0, 72, 82
2, 79740, Note_on_c, 0, 72, 0
2, 79744, Note_on_c, 0, 70, 84
2, 79868, Note_on_c, 0, 70, 0
2, 79868, Note_on_c, 0, 68, 0
2, 79872, Note_on_c, 0, 75, 88
2, 79872, Note_on_c, 0, 67, 89
2, 79996, Note_on_c, 0, 67, 0
2, 80000, Note_on_c, 0, 63, 77
2, 80124, Note_on_c, 0, 63, 0
2, 80128, Note_on_c, 0, 65, 76
2, 80252, Note_on_c, 0, 65, 0
2, 80252, Note_on_c, 0, 75, 0
2, 80256, Note_on_c, 0, 67, 88
2, 80380, Note_on_c, 0, 67, 0
2, 80384, Note_on_c, 0, 65, 81
2, 80508, Note_on_c, 0, 65, 0
2, 80512, Note_on_c, 0, 63, 88
2, 80636, Note_on_c, 0, 63, 0
2, 80640, Note_on_c, 0, 68, 84
2, 80768, Note_on_c, 0, 70, 75
2, 80892, Note_on_c, 0, 70, 0
2, 80896, Note_on_c, 0, 72, 77
2, 81020, Note_on_c, 0, 72, 0
2, 81024, Note_on_c, 0, 74, 81
2, 81148, Note_on_c, 0, 74, 0
2, 81152, Note_on_c, 0, 72, 64
2, 81276, Note_on_c, 0, 72, 0
2, 81280, Note_on_c, 0, 70, 77
2, 81404, Note_on_c, 0, 70, 0
2, 81404, Note_on_c, 0, 68, 0
2, 81408, Note_on_c, 0, 75, 77
2, 81408, Note_on_c, 0, 63, 72
2, 81408, Note_on_c, 0, 67, 78
2, 81532, Note_on_c, 0, 75, 0
2, 81536, Note_on_c, 0, 79, 78
2, 81660, Note_on_c, 0, 79, 0
2, 81664, Note_on_c, 0, 77, 87
2, 81788, Note_on_c, 0, 77, 0
2, 81788, Note_on_c, 0, 67, 0
2, 81788, Note_on_c, 0, 63, 0
2, 81792, Note_on_c, 0, 75, 77
2, 81792, Note_on_c, 0, 60, 79
2, 81916, Note_on_c, 0, 75, 0
2, 81920, Note_on_c, 0, 74, 77
2, 82044, Note_on_c, 0, 74, 0
2, 82048, Note_on_c, 0, 72, 70
2, 82172, Note_on_c, 0, 72, 0
2, 82172, Note_on_c, 0, 60, 0
2, 82176, Note_on_c, 0, 71, 75
2, 82300, Note_on_c, 0, 71, 0
2, 82304, Note_on_c, 0, 72, 75
2, 82428, Note_on_c, 0, 72, 0
2, 82432, Note_on_c, 0, 70, 73
2, 82556, Note_on_c, 0, 70, 0
2, 82560, Note_on_c, 0, 68, 79
2, 82560, Note_on_c, 0, 58, 80
2, 82684, Note_on_c, 0, 68, 0
2, 82688, Note_on_c, 0, 67, 85
2, 82812, Note_on_c, 0, 67, 0
2, 82816, Note_on_c, 0, 65, 85
2, 82940, Note_on_c, 0, 65, 0
2, 82940, Note_on_c, 0, 58, 0
2, 82944, Note_on_c, 0, 63, 86
2, 83324, Note_on_c, 0, 63, 0
2, 83840, Note_on_c, 0, 58, 88
2, 83964, Note_on_c, 0, 58, 0
2, 83968, Note_on_c, 0, 60, 85
2, 84092, Note_on_c, 0, 60, 0
2, 84096, Note_on_c, 0, 62, 89
2, 84220, Note_on_c, 0, 62, 0
2, 84224, Note_on_c, 0, 60, 81
2, 84348, Note_on_c, 0, 60, 0
2, 84352, Note_on_c, 0, 58, 88
2, 84476, Note_on_c, 0, 58, 0
2, 84480, Note_on_c, 0, 63, 93
2, 84860, Note_on_c, 0, 63, 0
2, 85376, Note_on_c, 0, 58, 89
2, 85500, Note_on_c, 0, 58, 0
2, 85504, Note_on_c, 0, 60, 89
2, 85628, Note_on_c, 0, 60, 0
2, 85632, Note_on_c, 0, 62, 97
2, 85756, Note_on_c, 0, 62, 0
2, 85760, Note_on_c, 0, 60, 89
2, 85884, Note_on_c, 0, 60, 0
2, 85888, Note_on_c, 0, 58, 92
2, 86012, Note_on_c, 0, 58, 0
2, 86016, Note_on_c, 0, 63, 98
2, 86396, Note_on_c, 0, 63, 0
2, 86912, Note_on_c, 0, 59, 88
2, 87036, Note_on_c, 0, 59, 0
2, 87040, Note_on_c, 0, 60, 91
2, 87164, Note_on_c, 0, 60, 0
2, 87168, Note_on_c, 0, 62, 100
2, 87292, Note_on_c, 0, 62, 0
2, 87296, Note_on_c, 0, 60, 98
2, 87420, Note_on_c, 0, 60, 0
2, 87424, Note_on_c, 0, 59, 96
2, 87548, Note_on_c, 0, 59, 0
2, 87552, Note_on_c, 0, 65, 97
2, 87676, Note_on_c, 0, 65, 0
2, 87680, Note_on_c, 0, 63, 99
2, 87804, Note_on_c, 0, 63, 0
2, 87808, Note_on_c, 0, 62, 89
2, 87932, Note_on_c, 0, 62, 0
2, 87936, Note_on_c, 0, 68, 100
2, 88060, Note_on_c, 0, 68, 0
2, 88064, Note_on_c, 0, 67, 108
2, 88188, Note_on_c, 0, 67, 0
2, 88192, Note_on_c, 0, 65, 97
2, 88316, Note_on_c, 0, 65, 0
2, 88320, Note_on_c, 0, 74, 108
2, 88444, Note_on_c, 0, 74, 0
2, 88448, Note_on_c, 0, 72, 99
2, 88572, Note_on_c, 0, 72, 0
2, 88576, Note_on_c, 0, 71, 96
2, 88700, Note_on_c, 0, 71, 0
2, 88704, Note_on_c, 0, 77, 111
2, 88828, Note_on_c, 0, 77, 0
2, 88832, Note_on_c, 0, 75, 100
2, 88956, Note_on_c, 0, 75, 0
2, 88960, Note_on_c, 0, 74, 97
2, 89084, Note_on_c, 0, 74, 0
2, 89088, Note_on_c, 0, 89, 127
2, 90048, Note_on_c, 0, 87, 106
2, 90236, Note_on_c, 0, 87, 0
2, 90236, Note_on_c, 0, 89, 0
2, 90240, Note_on_c, 0, 86, 122
2, 90428, Note_on_c, 0, 86, 0
2, 90432, Note_on_c, 0, 84, 122
2, 90620, Note_on_c, 0, 84, 0
2, 90624, Note_on_c, 0, 83, 118
2, 90748, Note_on_c, 0, 83, 0
2, 90752, Note_on_c, 0, 80, 114
2, 90876, Note_on_c, 0, 80, 0
2, 90880, Note_on_c, 0, 79, 107
2, 91004, Note_on_c, 0, 79, 0
2, 91008, Note_on_c, 0, 77, 112
2, 91132, Note_on_c, 0, 77, 0
2, 91136, Note_on_c, 0, 75, 106
2, 91260, Note_on_c, 0, 75, 0
2, 91264, Note_on_c, 0, 74, 115
2, 91388, Note_on_c, 0, 74, 0
2, 91392, Note_on_c, 0, 72, 111
2, 91516, Note_on_c, 0, 72, 0
2, 91520, Note_on_c, 0, 71, 108
2, 91644, Note_on_c, 0, 71, 0
2, 91648, Note_on_c, 0, 68, 110
2, 91772, Note_on_c, 0, 68, 0
2, 91776, Note_on_c, 0, 67, 93
2, 91848, Note_on_c, 0, 67, 0
2, 91852, Note_on_c, 0, 65, 95
2, 91924, Note_on_c, 0, 65, 0
2, 91928, Note_on_c, 0, 63, 93
2, 92000, Note_on_c, 0, 63, 0
2, 92004, Note_on_c, 0, 62, 98
2, 92076, Note_on_c, 0, 62, 0
2, 92080, Note_on_c, 0, 60, 101
2, 92152, Note_on_c, 0, 60, 0
2, 94656, Note_on_c, 0, 67, 79
2, 94748, Note_on_c, 0, 67, 0
2, 94848, Note_on_c, 0, 72, 79
2, 94940, Note_on_c, 0, 72, 0
2, 95040, Note_on_c, 0, 74, 79
2, 95132, Note_on_c, 0, 74, 0
2, 95232, Note_on_c, 0, 75, 92
2, 95804, Note_on_c, 0, 75, 0
2, 95804, Note_on_c, 0, 77, 92
2, 95808, Note_on_c, 0, 60, 87
2, 95992, Note_on_c, 0, 77, 0
2, 95996, Note_on_c, 0, 60, 0
2, 96000, Note_on_c, 0, 74, 94
2, 96572, Note_on_c, 0, 74, 0
2, 96576, Note_on_c, 0, 75, 98
2, 96576, Note_on_c, 0, 59, 87
2, 96764, Note_on_c, 0, 59, 0
2, 96764, Note_on_c, 0, 75, 0
2, 96768, Note_on_c, 0, 72, 69
2, 97344, Note_on_c, 0, 60, 94
2, 97444, Note_on_c, 0, 74, 74
2, 97532, Note_on_c, 0, 60, 0
2, 97532, Note_on_c, 0, 72, 0
2, 97536, Note_on_c, 0, 74, 0
2, 97536, Note_on_c, 0, 63, 80
2, 97536, Note_on_c, 0, 72, 74
2, 97724, Note_on_c, 0, 72, 0
2, 97724, Note_on_c, 0, 63, 0
2, 97728, Note_on_c, 0, 71, 69
2, 97728, Note_on_c, 0, 67, 48
2, 97916, Note_on_c, 0, 67, 0
2, 97916, Note_on_c, 0, 71, 0
2, 97920, Note_on_c, 0, 63, 73
2, 97920, Note_on_c, 0, 72, 77
2, 98108, Note_on_c, 0, 72, 0
2, 98108, Note_on_c, 0, 63, 0
2, 98112, Note_on_c, 0, 74, 79
2, 98112, Note_on_c, 0, 62, 74
2, 98208, Note_on_c, 0, 77, 78
2, 98300, Note_on_c, 0, 77, 0
2, 98300, Note_on_c, 0, 62, 0
2, 98300, Note_on_c, 0, 74, 0
2, 98304, Note_on_c, 0, 75, 88
2, 98304, Note_on_c, 0, 60, 73
2, 98492, Note_on_c, 0, 60, 0
2, 98492, Note_on_c, 0, 75, 0
2, 98496, Note_on_c, 0, 74, 86
2, 98496, Note_on_c, 0, 67, 82
2, 98684, Note_on_c, 0, 67, 0
2, 98684, Note_on_c, 0, 74, 0
2, 98688, Note_on_c, 0, 75, 84
2, 98688, Note_on_c, 0, 60, 83
2, 98688, Note_on_c, 0, 63, 78
2, 98876, Note_on_c, 0, 63, 0
2, 98876, Note_on_c, 0, 60, 0
2, 98876, Note_on_c, 0, 75, 0
2, 98880, Note_on_c, 0, 77, 86
2, 98880, Note_on_c, 0, 67, 81
2, 99068, Note_on_c, 0, 67, 0
2, 99068, Note_on_c, 0, 77, 0
2, 99072, Note_on_c, 0, 59, 72
2, 99072, Note_on_c, 0, 62, 83
2, 99072, Note_on_c, 0, 79, 96
2, 99164, Note_on_c, 0, 79, 0
2, 99260, Note_on_c, 0, 62, 0
2, 99260, Note_on_c, 0, 59, 0
2, 99264, Note_on_c, 0, 67, 82
2, 99452, Note_on_c, 0, 67, 0
2, 99456, Note_on_c, 0, 60, 87
2, 99456, Note_on_c, 0, 56, 88
2, 99456, Note_on_c, 0, 79, 74
2, 99548, Note_on_c, 0, 79, 0
2, 99644, Note_on_c, 0, 56, 0
2, 99644, Note_on_c, 0, 60, 0
2, 99648, Note_on_c, 0, 67, 57
2, 99836, Note_on_c, 0, 67, 0
2, 99840, Note_on_c, 0, 79, 93
2, 100032, Note_on_c, 0, 59, 76
2, 100220, Note_on_c, 0, 59, 0
2, 100224, Note_on_c, 0, 62, 86
2, 100412, Note_on_c, 0, 62, 0
2, 100416, Note_on_c, 0, 67, 83
2, 100604, Note_on_c, 0, 67, 0
2, 100800, Note_on_c, 0, 59, 75
2, 100988, Note_on_c, 0, 59, 0
2, 100988, Note_on_c, 0, 79, 0
2, 100992, Note_on_c, 0, 62, 85
2, 100992, Note_on_c, 0, 77, 83
2, 101180, Note_on_c, 0, 77, 0
2, 101180, Note_on_c, 0, 62, 0
2, 101184, Note_on_c, 0, 67, 73
2, 101184, Note_on_c, 0, 79, 95
2, 101276, Note_on_c, 0, 77, 77
2, 101320, Note_on_c, 0, 77, 0
2, 101324, Note_on_c, 0, 79, 90
2, 101368, Note_on_c, 0, 79, 0
2, 101372, Note_on_c, 0, 79, 0
2, 101372, Note_on_c, 0, 67, 0
2, 101376, Note_on_c, 0, 80, 103
2, 101760, Note_on_c, 0, 59, 76
2, 101948, Note_on_c, 0, 59, 0
2, 101952, Note_on_c, 0, 62, 82
2, 102140, Note_on_c, 0, 62, 0
2, 102140, Note_on_c, 0, 80, 0
2, 102144, Note_on_c, 0, 74, 92
2, 102524, Note_on_c, 0, 74, 0
2, 102528, Note_on_c, 0, 59, 65
2, 102528, Note_on_c, 0, 75, 86
2, 102716, Note_on_c, 0, 75, 0
2, 102716, Note_on_c, 0, 59, 0
2, 102720, Note_on_c, 0, 62, 88
2, 102720, Note_on_c, 0, 77, 101
2, 102816, Note_on_c, 0, 75, 84
2, 102860, Note_on_c, 0, 75, 0
2, 102864, Note_on_c, 0, 77, 97
2, 102908, Note_on_c, 0, 77, 0
2, 102908, Note_on_c, 0, 77, 0
2, 102908, Note_on_c, 0, 62, 0
2, 102912, Note_on_c, 0, 79, 90
2, 103296, Note_on_c, 0, 60, 81
2, 103484, Note_on_c, 0, 60, 0
2, 103488, Note_on_c, 0, 63, 78
2, 103676, Note_on_c, 0, 63, 0
2, 103676, Note_on_c, 0, 79, 0
2, 103680, Note_on_c, 0, 72, 77
2, 103872, Note_on_c, 0, 60, 85
2, 104060, Note_on_c, 0, 60, 0
2, 104060, Note_on_c, 0, 72, 0
2, 104064, Note_on_c, 0, 63, 71
2, 104064, Note_on_c, 0, 72, 74
2, 104252, Note_on_c, 0, 72, 0
2, 104252, Note_on_c, 0, 63, 0
2, 104256, Note_on_c, 0, 66, 80
2, 104256, Note_on_c, 0, 74, 88
2, 104444, Note_on_c, 0, 74, 0
2, 104444, Note_on_c, 0, 66, 0
2, 104448, Note_on_c, 0, 75, 86
2, 104540, Note_on_c, 0, 75, 0
2, 104640, Note_on_c, 0, 60, 86
2, 104828, Note_on_c, 0, 60, 0
2, 104832, Note_on_c, 0, 63, 73
2, 104832, Note_on_c, 0, 75, 80
2, 105020, Note_on_c, 0, 75, 0
2, 105020, Note_on_c, 0, 63, 0
2, 105024, Note_on_c, 0, 67, 59
2, 105024, Note_on_c, 0, 77, 96
2, 105212, Note_on_c, 0, 77, 0
2, 105212, Note_on_c, 0, 67, 0
2, 105216, Note_on_c, 0, 74, 89
2, 105308, Note_on_c, 0, 74, 0
2, 105408, Note_on_c, 0, 59, 77
2, 105596, Note_on_c, 0, 59, 0
2, 105600, Note_on_c, 0, 62, 96
2, 105600, Note_on_c, 0, 74, 78
2, 105788, Note_on_c, 0, 74, 0
2, 105788, Note_on_c, 0, 62, 0
2, 105792, Note_on_c, 0, 67, 97
2, 105792, Note_on_c, 0, 75, 86
2, 105980, Note_on_c, 0, 75, 0
2, 105980, Note_on_c, 0, 67, 0
2, 105984, Note_on_c, 0, 72, 85
2, 106364, Note_on_c, 0, 72, 0
2, 106752, Note_on_c, 0, 60, 96
2, 107132, Note_on_c, 0, 60, 0
2, 107136, Note_on_c, 0, 77, 93
2, 107324, Note_on_c, 0, 77, 0
2, 107328, Note_on_c, 0, 79, 94
2, 107516, Note_on_c, 0, 79, 0
2, 107520, Note_on_c, 0, 80, 98
2, 107520, Note_on_c, 0, 68, 88
2, 108284, Note_on_c, 0, 68, 0
2, 108284, Note_on_c, 0, 80, 0
2, 108288, Note_on_c, 0, 74, 92
2, 108380, Note_on_c, 0, 74, 0
2, 108672, Note_on_c, 0, 75, 80
2, 108860, Note_on_c, 0, 75, 0
2, 108864, Note_on_c, 0, 77, 99
2, 109052, Note_on_c, 0, 77, 0
2, 109056, Note_on_c, 0, 67, 103
2, 109056, Note_on_c, 0, 79, 100
2, 109820, Note_on_c, 0, 79, 0
2, 109820, Note_on_c, 0, 67, 0
2, 109824, Note_on_c, 0, 72, 90
2, 109916, Note_on_c, 0, 72, 0
2, 110208, Note_on_c, 0, 72, 95
2, 110396, Note_on_c, 0, 72, 0
2, 110400, Note_on_c, 0, 74, 94
2, 110588, Note_on_c, 0, 74, 0
2, 110592, Note_on_c, 0, 75, 90
2, 110684, Note_on_c, 0, 75, 0
2, 110976, Note_on_c, 0, 60, 92
2, 110976, Note_on_c, 0, 75, 91
2, 111164, Note_on_c, 0, 75, 0
2, 111164, Note_on_c, 0, 60, 0
2, 111168, Note_on_c, 0, 77, 94
2, 111356, Note_on_c, 0, 77, 0
2, 111360, Note_on_c, 0, 74, 91
2, 111452, Note_on_c, 0, 74, 0
2, 111744, Note_on_c, 0, 59, 92
2, 111744, Note_on_c, 0, 74, 79
2, 111932, Note_on_c, 0, 74, 0
2, 111932, Note_on_c, 0, 59, 0
2, 111936, Note_on_c, 0, 75, 86
2, 112124, Note_on_c, 0, 75, 0
2, 112128, Note_on_c, 0, 72, 95
2, 112220, Note_on_c, 0, 72, 0
2, 112320, Note_on_c, 0, 60, 83
2, 112508, Note_on_c, 0, 60, 0
2, 112512, Note_on_c, 0, 59, 87
2, 112512, Note_on_c, 0, 82, 92
2, 112700, Note_on_c, 0, 59, 0
2, 112704, Note_on_c, 0, 60, 76
2, 112892, Note_on_c, 0, 60, 0
2, 113088, Note_on_c, 0, 60, 83
2, 113276, Note_on_c, 0, 60, 0
2, 113276, Note_on_c, 0, 82, 0
2, 113280, Note_on_c, 0, 82, 93
2, 113472, Note_on_c, 0, 60, 89
2, 113660, Note_on_c, 0, 60, 0
2, 113852, Note_on_c, 0, 82, 0
2, 113856, Note_on_c, 0, 60, 57
2, 113856, Note_on_c, 0, 80, 98
2, 114044, Note_on_c, 0, 80, 0
2, 114044, Note_on_c, 0, 60, 0
2, 114048, Note_on_c, 0, 79, 91
2, 114236, Note_on_c, 0, 79, 0
2, 114240, Note_on_c, 0, 60, 85
2, 114240, Note_on_c, 0, 77, 95
2, 114428, Note_on_c, 0, 77, 0
2, 114428, Note_on_c, 0, 60, 0
2, 114432, Note_on_c, 0, 75, 86
2, 114620, Note_on_c, 0, 75, 0
2, 114624, Note_on_c, 0, 65, 82
2, 114624, Note_on_c, 0, 74, 94
2, 114812, Note_on_c, 0, 74, 0
2, 114812, Note_on_c, 0, 65, 0
2, 114816, Note_on_c, 0, 59, 82
2, 114816, Note_on_c, 0, 72, 87
2, 115004, Note_on_c, 0, 72, 0
2, 115004, Note_on_c, 0, 59, 0
2, 115008, Note_on_c, 0, 65, 81
2, 115008, Note_on_c, 0, 71, 87
2, 115196, Note_on_c, 0, 71, 0
2, 115196, Note_on_c, 0, 65, 0
2, 115200, Note_on_c, 0, 72, 88
2, 115292, Note_on_c, 0, 72, 0
2, 115392, Note_on_c, 0, 63, 86
2, 115580, Note_on_c, 0, 63, 0
2, 115584, Note_on_c, 0, 60, 83
2, 115584, Note_on_c, 0, 84, 105
2, 115584, Note_on_c, 0, 72, 95
2, 115772, Note_on_c, 0, 60, 0
2, 115776, Note_on_c, 0, 63, 73
2, 115964, Note_on_c, 0, 63, 0
2, 116160, Note_on_c, 0, 64, 82
2, 116348, Note_on_c, 0, 64, 0
2, 116348, Note_on_c, 0, 72, 0
2, 116348, Note_on_c, 0, 84, 0
2, 116352, Note_on_c, 0, 60, 88
2, 116352, Note_on_c, 0, 82, 100
2, 116540, Note_on_c, 0, 60, 0
2, 116544, Note_on_c, 0, 64, 89
2, 116732, Note_on_c, 0, 64, 0
2, 116924, Note_on_c, 0, 82, 0
2, 116928, Note_on_c, 0, 65, 79
2, 116928, Note_on_c, 0, 80, 89
2, 117116, Note_on_c, 0, 80, 0
2, 117116, Note_on_c, 0, 65, 0
2, 117120, Note_on_c, 0, 60, 91
2, 117120, Note_on_c, 0, 79, 92
2, 117308, Note_on_c, 0, 79, 0
2, 117308, Note_on_c, 0, 60, 0
2, 117312, Note_on_c, 0, 65, 83
2, 117312, Note_on_c, 0, 77, 96
2, 117500, Note_on_c, 0, 77, 0
2, 117500, Note_on_c, 0, 65, 0
2, 117504, Note_on_c, 0, 75, 92
2, 117692, Note_on_c, 0, 75, 0
2, 117696, Note_on_c, 0, 67, 92
2, 117696, Note_on_c, 0, 74, 86
2, 117884, Note_on_c, 0, 74, 0
2, 117884, Note_on_c, 0, 67, 0
2, 117888, Note_on_c, 0, 72, 83
2, 118076, Note_on_c, 0, 72, 0
2, 118080, Note_on_c, 0, 67, 97
2, 118080, Note_on_c, 0, 71, 88
2, 118268, Note_on_c, 0, 71, 0
2, 118268, Note_on_c, 0, 67, 0
2, 118272, Note_on_c, 0, 72, 89
2, 118272, Note_on_c, 0, 60, 99
2, 118652, Note_on_c, 0, 60, 0
2, 118652, Note_on_c, 0, 72, 0
2, 118656, Note_on_c, 0, 59, 87
2, 118656, Note_on_c, 0, 55, 94
2, 118656, Note_on_c, 0, 74, 86
2, 118700, Note_on_c, 0, 74, 0
2, 118704, Note_on_c, 0, 72, 68
2, 118748, Note_on_c, 0, 72, 0
2, 118748, Note_on_c, 0, 55, 0
2, 118748, Note_on_c, 0, 59, 0
2, 118752, Note_on_c, 0, 74, 79
2, 118796, Note_on_c, 0, 74, 0
2, 118800, Note_on_c, 0, 72, 71
2, 118844, Note_on_c, 0, 72, 0
2, 118848, Note_on_c, 0, 74, 73
2, 118892, Note_on_c, 0, 74, 0
2, 118896, Note_on_c, 0, 72, 75
2, 118940, Note_on_c, 0, 72, 0
2, 118944, Note_on_c, 0, 74, 89
2, 119036, Note_on_c, 0, 74, 0
2, 119040, Note_on_c, 0, 60, 89
2, 119040, Note_on_c, 0, 48, 98
2, 119040, Note_on_c, 0, 75, 92
2, 119132, Note_on_c, 0, 75, 0
2, 119132, Note_on_c, 0, 48, 0
2, 119132, Note_on_c, 0, 60, 0
2, 119424, Note_on_c, 0, 71, 104
2, 119424, Note_on_c, 0, 74, 108
2, 119424, Note_on_c, 0, 83, 109
2, 119516, Note_on_c, 0, 83, 0
2, 119516, Note_on_c, 0, 74, 0
2, 119516, Note_on_c, 0, 71, 0
2, 119808, Note_on_c, 0, 72, 92
2, 119808, Note_on_c, 0, 75, 95
2, 119808, Note_on_c, 0, 84, 111
2, 119900, Note_on_c, 0, 84, 0
2, 119900, Note_on_c, 0, 75, 0
2, 119900, Note_on_c, 0, 72, 0
2, 121344, Note_on_c, 0, 60, 79
2, 121344, Note_on_c, 0, 56, 64
2, 122108, Note_on_c, 0, 56, 0
2, 122108, Note_on_c, 0, 60, 0
2, 122112, Note_on_c, 0, 65, 84
2, 122112, Note_on_c, 0, 49, 63
2, 122876, Note_on_c, 0, 49, 0
2, 122876, Note_on_c, 0, 65, 0
2, 122880, Note_on_c, 0, 58, 76
2, 122880, Note_on_c, 0, 55, 80
2, 123644, Note_on_c, 0, 55, 0
2, 123644, Note_on_c, 0, 58, 0
2, 123648, Note_on_c, 0, 48, 79
2, 123648, Note_on_c, 0, 63, 82
2, 124412, Note_on_c, 0, 63, 0
2, 124412, Note_on_c, 0, 48, 0
2, 125184, Note_on_c, 0, 61, 76
2, 125564, Note_on_c, 0, 61, 0
2, 125568, Note_on_c, 0, 60, 78
2, 125568, Note_on_c, 0, 48, 72
2, 125948, Note_on_c, 0, 48, 0
2, 125948, Note_on_c, 0, 60, 0
2, 127872, Note_on_c, 0, 72, 83
2, 128636, Note_on_c, 0, 72, 0
2, 128640, Note_on_c, 0, 65, 83
2, 129404, Note_on_c, 0, 65, 0
2, 129408, Note_on_c, 0, 70, 83
2, 130172, Note_on_c, 0, 70, 0
2, 130176, Note_on_c, 0, 63, 84
2, 130940, Note_on_c, 0, 63, 0
2, 130944, Note_on_c, 0, 68, 80
2, 131324, Note_on_c, 0, 68, 0
2, 131328, Note_on_c, 0, 43, 60
2, 131328, Note_on_c, 0, 67, 86
2, 131708, Note_on_c, 0, 67, 0
2, 131708, Note_on_c, 0, 43, 0
2, 131712, Note_on_c, 0, 44, 72
2, 131712, Note_on_c, 0, 65, 86
2, 132092, Note_on_c, 0, 65, 0
2, 132092, Note_on_c, 0, 44, 0
2, 132480, Note_on_c, 0, 46, 70
2, 132480, Note_on_c, 0, 62, 85
2, 132860, Note_on_c, 0, 62, 0
2, 132860, Note_on_c, 0, 46, 0
2, 132864, Note_on_c, 0, 39, 65
2, 132864, Note_on_c, 0, 65, 74
2, 133244, Note_on_c, 0, 65, 0
2, 133244, Note_on_c, 0, 39, 0
2, 133248, Note_on_c, 0, 63, 80
2, 133628, Note_on_c, 0, 63, 0
2, 133632, Note_on_c, 0, 72, 87
2, 134016, Note_on_c, 0, 60, 80
2, 134016, Note_on_c, 0, 56, 69
2, 134396, Note_on_c, 0, 72, 0
2, 134400, Note_on_c, 0, 77, 83
2, 134400, Note_on_c, 0, 65, 72
2, 134780, Note_on_c, 0, 56, 0
2, 134780, Note_on_c, 0, 60, 0
2, 135164, Note_on_c, 0, 77, 0
2, 135164, Note_on_c, 0, 65, 0
2, 135168, Note_on_c, 0, 70, 77
2, 135552, Note_on_c, 0, 58, 74
2, 135552, Note_on_c, 0, 55, 76
2, 135932, Note_on_c, 0, 70, 0
2, 135936, Note_on_c, 0, 75, 85
2, 135936, Note_on_c, 0, 63, 82
2, 136316, Note_on_c, 0, 55, 0
2, 136316, Note_on_c, 0, 58, 0
2, 136700, Note_on_c, 0, 75, 0
2, 136704, Note_on_c, 0, 68, 76
2, 137084, Note_on_c, 0, 63, 0
2, 137468, Note_on_c, 0, 68, 0
2, 138624, Note_on_c, 0, 50, 74
2, 138624, Note_on_c, 0, 68, 79
2, 138624, Note_on_c, 0, 60, 80
2, 139004, Note_on_c, 0, 60, 0
2, 139004, Note_on_c, 0, 68, 0
2, 139004, Note_on_c, 0, 50, 0
2, 139008, Note_on_c, 0, 67, 89
2, 139008, Note_on_c, 0, 51, 79
2, 139008, Note_on_c, 0, 58, 66
2, 139388, Note_on_c, 0, 58, 0
2, 139388, Note_on_c, 0, 51, 0
2, 139388, Note_on_c, 0, 67, 0
2, 139392, Note_on_c, 0, 63, 80
2, 139772, Note_on_c, 0, 63, 0
2, 140160, Note_on_c, 0, 84, 94
2, 140160, Note_on_c, 0, 72, 72
2, 140544, Note_on_c, 0, 61, 65
2, 140544, Note_on_c, 0, 65, 69
2, 140924, Note_on_c, 0, 72, 0
2, 140924, Note_on_c, 0, 84, 0
2, 140928, Note_on_c, 0, 77, 72
2, 141308, Note_on_c, 0, 61, 0
2, 141308, Note_on_c, 0, 65, 0
2, 141312, Note_on_c, 0, 58, 70
2, 141312, Note_on_c, 0, 55, 66
2, 141692, Note_on_c, 0, 77, 0
2, 141696, Note_on_c, 0, 70, 76
2, 141696, Note_on_c, 0, 82, 85
2, 142076, Note_on_c, 0, 55, 0
2, 142076, Note_on_c, 0, 58, 0
2, 142080, Note_on_c, 0, 63, 71
2, 142080, Note_on_c, 0, 60, 73
2, 142460, Note_on_c, 0, 70, 0
2, 142460, Note_on_c, 0, 82, 0
2, 142464, Note_on_c, 0, 75, 86
2, 142844, Note_on_c, 0, 63, 0
2, 142844, Note_on_c, 0, 60, 0
2, 142848, Note_on_c, 0, 72, 78
2, 143228, Note_on_c, 0, 75, 0
2, 143232, Note_on_c, 0, 80, 92
2, 143612, Note_on_c, 0, 80, 0
2, 143612, Note_on_c, 0, 72, 0
2, 143616, Note_on_c, 0, 70, 52
2, 143616, Note_on_c, 0, 79, 74
2, 143616, Note_on_c, 0, 55, 75
2, 143996, Note_on_c, 0, 55, 0
2, 143996, Note_on_c, 0, 79, 0
2, 143996, Note_on_c, 0, 70, 0
2, 144000, Note_on_c, 0, 77, 83
2, 144000, Note_on_c, 0, 68, 60
2, 144000, Note_on_c, 0, 56, 77
2, 144380, Note_on_c, 0, 56, 0
2, 144380, Note_on_c, 0, 68, 0
2, 144380, Note_on_c, 0, 77, 0
2, 144384, Note_on_c, 0, 75, 87
2, 144384, Note_on_c, 0, 57, 77
2, 144384, Note_on_c, 0, 67, 81
2, 144764, Note_on_c, 0, 67, 0
2, 144764, Note_on_c, 0, 57, 0
2, 144764, Note_on_c, 0, 75, 0
2, 144768, Note_on_c, 0, 58, 76
2, 144768, Note_on_c, 0, 65, 71
2, 144768, Note_on_c, 0, 74, 86
2, 145148, Note_on_c, 0, 74, 0
2, 145148, Note_on_c, 0, 65, 0
2, 145148, Note_on_c, 0, 58, 0
2, 145152, Note_on_c, 0, 77, 85
2, 145152, Note_on_c, 0, 68, 75
2, 145152, Note_on_c, 0, 51, 59
2, 145532, Note_on_c, 0, 51, 0
2, 145532, Note_on_c, 0, 68, 0
2, 145532, Note_on_c, 0, 77, 0
2, 145536, Note_on_c, 0, 75, 82
2, 145536, Note_on_c, 0, 67, 86
2, 145536, Note_on_c, 0, 63, 73
2, 145916, Note_on_c, 0, 63, 0
2, 145916, Note_on_c, 0, 67, 0
2, 145916, Note_on_c, 0, 75, 0
2, 145920, Note_on_c, 0, 62, 73
2, 146300, Note_on_c, 0, 62, 0
2, 146304, Note_on_c, 0, 63, 71
2, 146684, Note_on_c, 0, 63, 0
2, 146688, Note_on_c, 0, 66, 76
2, 147068, Note_on_c, 0, 66, 0
2, 147072, Note_on_c, 0, 75, 86
2, 147072, Note_on_c, 0, 57, 70
2, 147452, Note_on_c, 0, 57, 0
2, 147452, Note_on_c, 0, 75, 0
2, 147456, Note_on_c, 0, 72, 83
2, 147456, Note_on_c, 0, 58, 76
2, 147580, Note_on_c, 0, 58, 0
2, 147836, Note_on_c, 0, 72, 0
2, 147840, Note_on_c, 0, 73, 84
2, 148220, Note_on_c, 0, 73, 0
2, 148224, Note_on_c, 0, 77, 87
2, 148604, Note_on_c, 0, 77, 0
2, 148608, Note_on_c, 0, 61, 74
2, 148608, Note_on_c, 0, 51, 82
2, 148608, Note_on_c, 0, 67, 85
2, 148988, Note_on_c, 0, 67, 0
2, 148988, Note_on_c, 0, 51, 0
2, 148988, Note_on_c, 0, 61, 0
2, 148992, Note_on_c, 0, 70, 74
2, 148992, Note_on_c, 0, 56, 70
2, 148992, Note_on_c, 0, 60, 61
2, 149372, Note_on_c, 0, 60, 0
2, 149372, Note_on_c, 0, 56, 0
2, 149372, Note_on_c, 0, 70, 0
2, 149376, Note_on_c, 0, 68, 82
2, 149756, Note_on_c, 0, 68, 0
2, 149760, Note_on_c, 0, 72, 88
2, 150140, Note_on_c, 0, 72, 0
2, 150528, Note_on_c, 0, 63, 82
2, 150652, Note_on_c, 0, 63, 0
2, 150912, Note_on_c, 0, 82, 91
2, 151292, Note_on_c, 0, 82, 0
2, 151296, Note_on_c, 0, 87, 93
2, 151488, Note_on_c, 0, 75, 73
2, 151548, Note_on_c, 0, 75, 0
2, 151676, Note_on_c, 0, 87, 0
2, 151680, Note_on_c, 0, 77, 77
2, 151680, Note_on_c, 0, 85, 88
2, 151740, Note_on_c, 0, 77, 0
2, 151872, Note_on_c, 0, 79, 89
2, 151932, Note_on_c, 0, 79, 0
2, 152060, Note_on_c, 0, 85, 0
2, 152064, Note_on_c, 0, 84, 85
2, 152064, Note_on_c, 0, 80, 86
2, 152124, Note_on_c, 0, 80, 0
2, 152256, Note_on_c, 0, 79, 80
2, 152316, Note_on_c, 0, 79, 0
2, 152448, Note_on_c, 0, 77, 75
2, 152508, Note_on_c, 0, 77, 0
2, 152640, Note_on_c, 0, 75, 77
2, 152700, Note_on_c, 0, 75, 0
2, 152828, Note_on_c, 0, 84, 0
2, 152832, Note_on_c, 0, 89, 93
2, 152832, Note_on_c, 0, 73, 84
2, 152892, Note_on_c, 0, 73, 0
2, 153024, Note_on_c, 0, 72, 75
2, 153084, Note_on_c, 0, 72, 0
2, 153216, Note_on_c, 0, 70, 75
2, 153276, Note_on_c, 0, 70, 0
2, 153408, Note_on_c, 0, 68, 70
2, 153468, Note_on_c, 0, 68, 0
2, 153596, Note_on_c, 0, 89, 0
2, 153600, Note_on_c, 0, 82, 77
2, 153600, Note_on_c, 0, 67, 87
2, 153660, Note_on_c, 0, 67, 0
2, 153792, Note_on_c, 0, 65, 79
2, 153852, Note_on_c, 0, 65, 0
2, 153984, Note_on_c, 0, 63, 83
2, 154044, Note_on_c, 0, 63, 0
2, 154176, Note_on_c, 0, 61, 75
2, 154236, Note_on_c, 0, 61, 0
2, 154364, Note_on_c, 0, 82, 0
2, 154368, Note_on_c, 0, 87, 77
2, 154368, Note_on_c, 0, 60, 77
2, 154428, Note_on_c, 0, 60, 0
2, 154560, Note_on_c, 0, 58, 73
2, 154620, Note_on_c, 0, 58, 0
2, 154880, Note_on_c, 0, 87, 0
2, 155136, Note_on_c, 0, 80, 82
2, 155900, Note_on_c, 0, 80, 0
2, 155904, Note_on_c, 0, 85, 87
2, 155904, Note_on_c, 0, 73, 84
2, 156028, Note_on_c, 0, 73, 0
2, 156028, Note_on_c, 0, 85, 0
2, 156288, Note_on_c, 0, 72, 77
2, 156288, Note_on_c, 0, 84, 88
2, 156412, Note_on_c, 0, 84, 0
2, 156412, Note_on_c, 0, 72, 0
2, 156672, Note_on_c, 0, 82, 76
2, 156672, Note_on_c, 0, 70, 71
2, 156796, Note_on_c, 0, 70, 0
2, 156796, Note_on_c, 0, 82, 0
2, 157056, Note_on_c, 0, 80, 90
2, 157056, Note_on_c, 0, 68, 73
2, 157180, Note_on_c, 0, 68, 0
2, 157180, Note_on_c, 0, 80, 0
2, 157440, Note_on_c, 0, 67, 79
2, 157440, Note_on_c, 0, 79, 85
2, 157564, Note_on_c, 0, 79, 0
2, 157564, Note_on_c, 0, 67, 0
2, 157824, Note_on_c, 0, 73, 77
2, 157948, Note_on_c, 0, 73, 0
2, 158208, Note_on_c, 0, 84, 127
2, 158268, Note_on_c, 0, 84, 0
2, 158400, Note_on_c, 0, 82, 120
2, 158460, Note_on_c, 0, 82, 0
2, 158592, Note_on_c, 0, 80, 127
2, 158652, Note_on_c, 0, 80, 0
2, 158784, Note_on_c, 0, 79, 124
2, 158844, Note_on_c, 0, 79, 0
2, 158976, Note_on_c, 0, 77, 111
2, 159036, Note_on_c, 0, 77, 0
2, 159168, Note_on_c, 0, 75, 117
2, 159228, Note_on_c, 0, 75, 0
2, 159360, Note_on_c, 0, 73, 114
2, 159420, Note_on_c, 0, 73, 0
2, 159552, Note_on_c, 0, 72, 109
2, 159612, Note_on_c, 0, 72, 0
2, 159744, Note_on_c, 0, 70, 107
2, 159804, Note_on_c, 0, 70, 0
2, 159936, Note_on_c, 0, 68, 112
2, 159996, Note_on_c, 0, 68, 0
2, 160128, Note_on_c, 0, 67, 115
2, 160188, Note_on_c, 0, 67, 0
2, 160320, Note_on_c, 0, 65, 115
2, 160380, Note_on_c, 0, 65, 0
2, 160512, Note_on_c, 0, 64, 112
2, 160572, Note_on_c, 0, 64, 0
2, 160704, Note_on_c, 0, 61, 108
2, 160764, Note_on_c, 0, 61, 0
2, 160896, Note_on_c, 0, 60, 115
2, 160956, Note_on_c, 0, 60, 0
2, 161088, Note_on_c, 0, 58, 112
2, 161148, Note_on_c, 0, 58, 0
2, 167616, Note_on_c, 0, 59, 73
2, 167708, Note_on_c, 0, 59, 0
2, 167712, Note_on_c, 0, 62, 86
2, 167804, Note_on_c, 0, 62, 0
2, 167808, Note_on_c, 0, 67, 103
2, 167996, Note_on_c, 0, 67, 0
2, 168384, Note_on_c, 0, 60, 94
2, 168476, Note_on_c, 0, 60, 0
2, 168480, Note_on_c, 0, 63, 88
2, 168572, Note_on_c, 0, 63, 0
2, 168576, Note_on_c, 0, 67, 105
2, 168764, Note_on_c, 0, 67, 0
2, 169152, Note_on_c, 0, 62, 97
2, 169244, Note_on_c, 0, 62, 0
2, 169248, Note_on_c, 0, 65, 100
2, 169340, Note_on_c, 0, 65, 0
2, 169344, Note_on_c, 0, 67, 120
2, 169532, Note_on_c, 0, 67, 0
2, 169920, Note_on_c, 0, 60, 90
2, 170012, Note_on_c, 0, 60, 0
2, 170016, Note_on_c, 0, 63, 87
2, 170108, Note_on_c, 0, 63, 0
2, 170112, Note_on_c, 0, 67, 117
2, 170300, Note_on_c, 0, 67, 0
2, 170592, Note_on_c, 0, 67, 107
2, 170684, Note_on_c, 0, 67, 0
2, 170688, Note_on_c, 0, 71, 108
2, 170780, Note_on_c, 0, 71, 0
2, 170784, Note_on_c, 0, 74, 120
2, 170876, Note_on_c, 0, 74, 0
2, 170880, Note_on_c, 0, 79, 127
2, 171068, Note_on_c, 0, 79, 0
2, 171072, Note_on_c, 0, 62, 97
2, 171164, Note_on_c, 0, 62, 0
2, 171168, Note_on_c, 0, 59, 104
2, 171260, Note_on_c, 0, 59, 0
2, 171360, Note_on_c, 0, 67, 111
2, 171452, Note_on_c, 0, 67, 0
2, 171456, Note_on_c, 0, 72, 103
2, 171548, Note_on_c, 0, 72, 0
2, 171552, Note_on_c, 0, 75, 110
2, 171644, Note_on_c, 0, 75, 0
2, 171648, Note_on_c, 0, 79, 127
2, 171836, Note_on_c, 0, 79, 0
2, 171840, Note_on_c, 0, 63, 106
2, 171932, Note_on_c, 0, 63, 0
2, 171936, Note_on_c, 0, 60, 104
2, 172028, Note_on_c, 0, 60, 0
2, 172128, Note_on_c, 0, 67, 114
2, 172220, Note_on_c, 0, 67, 0
2, 172224, Note_on_c, 0, 74, 117
2, 172316, Note_on_c, 0, 74, 0
2, 172320, Note_on_c, 0, 77, 120
2, 172412, Note_on_c, 0, 77, 0
2, 172416, Note_on_c, 0, 79, 127
2, 172604, Note_on_c, 0, 79, 0
2, 172608, Note_on_c, 0, 65, 112
2, 172700, Note_on_c, 0, 65, 0
2, 172704, Note_on_c, 0, 62, 105
2, 172796, Note_on_c, 0, 62, 0
2, 172896, Note_on_c, 0, 67, 102
2, 172988, Note_on_c, 0, 67, 0
2, 172992, Note_on_c, 0, 72, 107
2, 173084, Note_on_c, 0, 72, 0
2, 173088, Note_on_c, 0, 75, 117
2, 173180, Note_on_c, 0, 75, 0
2, 173184, Note_on_c, 0, 79, 127
2, 173372, Note_on_c, 0, 79, 0
2, 173376, Note_on_c, 0, 63, 120
2, 173468, Note_on_c, 0, 63, 0
2, 173472, Note_on_c, 0, 60, 115
2, 173564, Note_on_c, 0, 60, 0
2, 173696, Note_on_c, 0, 67, 102
2, 173820, Note_on_c, 0, 67, 0
2, 173824, Note_on_c, 0, 66, 96
2, 173948, Note_on_c, 0, 66, 0
2, 173952, Note_on_c, 0, 67, 104
2, 174076, Note_on_c, 0, 67, 0
2, 174080, Note_on_c, 0, 71, 101
2, 174204, Note_on_c, 0, 71, 0
2, 174208, Note_on_c, 0, 74, 97
2, 174332, Note_on_c, 0, 74, 0
2, 174336, Note_on_c, 0, 79, 127
2, 174460, Note_on_c, 0, 79, 0
2, 174464, Note_on_c, 0, 74, 90
2, 174588, Note_on_c, 0, 74, 0
2, 174592, Note_on_c, 0, 71, 101
2, 174716, Note_on_c, 0, 71, 0
2, 175232, Note_on_c, 0, 71, 99
2, 175356, Note_on_c, 0, 71, 0
2, 175360, Note_on_c, 0, 70, 98
2, 175484, Note_on_c, 0, 70, 0
2, 175488, Note_on_c, 0, 71, 100
2, 175612, Note_on_c, 0, 71, 0
2, 175616, Note_on_c, 0, 74, 107
2, 175740, Note_on_c, 0, 74, 0
2, 175744, Note_on_c, 0, 79, 101
2, 175868, Note_on_c, 0, 79, 0
2, 175872, Note_on_c, 0, 83, 127
2, 175996, Note_on_c, 0, 83, 0
2, 176000, Note_on_c, 0, 79, 97
2, 176124, Note_on_c, 0, 79, 0
2, 176128, Note_on_c, 0, 74, 104
2, 176252, Note_on_c, 0, 74, 0
2, 176768, Note_on_c, 0, 74, 115
2, 176892, Note_on_c, 0, 74, 0
2, 176896, Note_on_c, 0, 73, 115
2, 177020, Note_on_c, 0, 73, 0
2, 177024, Note_on_c, 0, 74, 112
2, 177148, Note_on_c, 0, 74, 0
2, 177152, Note_on_c, 0, 77, 105
2, 177276, Note_on_c, 0, 77, 0
2, 177280, Note_on_c, 0, 83, 101
2, 177404, Note_on_c, 0, 83, 0
2, 177408, Note_on_c, 0, 86, 127
2, 177532, Note_on_c, 0, 86, 0
2, 177536, Note_on_c, 0, 83, 117
2, 177660, Note_on_c, 0, 83, 0
2, 177664, Note_on_c, 0, 77, 107
2, 177788, Note_on_c, 0, 77, 0
2, 178304, Note_on_c, 0, 77, 120
2, 178428, Note_on_c, 0, 77, 0
2, 178432, Note_on_c, 0, 76, 117
2, 178556, Note_on_c, 0, 76, 0
2, 178560, Note_on_c, 0, 77, 112
2, 178684, Note_on_c, 0, 77, 0
2, 178688, Note_on_c, 0, 83, 115
2, 178812, Note_on_c, 0, 83, 0
2, 178816, Note_on_c, 0, 86, 112
2, 178940, Note_on_c, 0, 86, 0
2, 178944, Note_on_c, 0, 89, 117
2, 179068, Note_on_c, 0, 89, 0
2, 179072, Note_on_c, 0, 86, 111
2, 179196, Note_on_c, 0, 86, 0
2, 179200, Note_on_c, 0, 83, 114
2, 179324, Note_on_c, 0, 83, 0
2, 179328, Note_on_c, 0, 89, 114
2, 179452, Note_on_c, 0, 89, 0
2, 179456, Note_on_c, 0, 86, 112
2, 179580, Note_on_c, 0, 86, 0
2, 179584, Note_on_c, 0, 83, 117
2, 179708, Note_on_c, 0, 83, 0
2, 179712, Note_on_c, 0, 89, 127
2, 180672, Note_on_c, 0, 87, 102
2, 180860, Note_on_c, 0, 87, 0
2, 180860, Note_on_c, 0, 89, 0
2, 180864, Note_on_c, 0, 86, 115
2, 181052, Note_on_c, 0, 86, 0
2, 181056, Note_on_c, 0, 84, 103
2, 181244, Note_on_c, 0, 84, 0
2, 181248, Note_on_c, 0, 83, 122
2, 181372, Note_on_c, 0, 83, 0
2, 181376, Note_on_c, 0, 80, 108
2, 181500, Note_on_c, 0, 80, 0
2, 181504, Note_on_c, 0, 79, 122
2, 181628, Note_on_c, 0, 79, 0
2, 181632, Note_on_c, 0, 77, 109
2, 181756, Note_on_c, 0, 77, 0
2, 181760, Note_on_c, 0, 75, 107
2, 181884, Note_on_c, 0, 75, 0
2, 181888, Note_on_c, 0, 74, 120
2, 182012, Note_on_c, 0, 74, 0
2, 182016, Note_on_c, 0, 72, 99
2, 182140, Note_on_c, 0, 72, 0
2, 182144, Note_on_c, 0, 71, 102
2, 182268, Note_on_c, 0, 71, 0
2, 182272, Note_on_c, 0, 68, 106
2, 182396, Note_on_c, 0, 68, 0
2, 182400, Note_on_c, 0, 67, 108
2, 182472, Note_on_c, 0, 67, 0
2, 182476, Note_on_c, 0, 65, 103
2, 182548, Note_on_c, 0, 65, 0
2, 182552, Note_on_c, 0, 63, 108
2, 182624, Note_on_c, 0, 63, 0
2, 182628, Note_on_c, 0, 62, 101
2, 182700, Note_on_c, 0, 62, 0
2, 182704, Note_on_c, 0, 60, 111
2, 182776, Note_on_c, 0, 60, 0
2, 185280, Note_on_c, 0, 67, 79
2, 185372, Note_on_c, 0, 67, 0
2, 185472, Note_on_c, 0, 72, 79
2, 185564, Note_on_c, 0, 72, 0
2, 185664, Note_on_c, 0, 74, 79
2, 185756, Note_on_c, 0, 74, 0
2, 185856, Note_on_c, 0, 75, 92
2, 186428, Note_on_c, 0, 75, 0
2, 186428, Note_on_c, 0, 77, 92
2, 186432, Note_on_c, 0, 60, 87
2, 186616, Note_on_c, 0, 77, 0
2, 186620, Note_on_c, 0, 60, 0
2, 186624, Note_on_c, 0, 74, 94
2, 187196, Note_on_c, 0, 74, 0
2, 187200, Note_on_c, 0, 75, 98
2, 187200, Note_on_c, 0, 59, 87
2, 187388, Note_on_c, 0, 59, 0
2, 187388, Note_on_c, 0, 75, 0
2, 187392, Note_on_c, 0, 72, 69
2, 187968, Note_on_c, 0, 60, 94
2, 188068, Note_on_c, 0, 74, 74
2, 188156, Note_on_c, 0, 60, 0
2, 188156, Note_on_c, 0, 72, 0
2, 188160, Note_on_c, 0, 74, 0
2, 188160, Note_on_c, 0, 63, 80
2, 188160, Note_on_c, 0, 72, 74
2, 188348, Note_on_c, 0, 72, 0
2, 188348, Note_on_c, 0, 63, 0
2, 188352, Note_on_c, 0, 71, 69
2, 188352, Note_on_c, 0, 67, 48
2, 188540, Note_on_c, 0, 67, 0
2, 188540, Note_on_c, 0, 71, 0
2, 188544, Note_on_c, 0, 63, 73
2, 188544, Note_on_c, 0, 72, 77
2, 188732, Note_on_c, 0, 72, 0
2, 188732, Note_on_c, 0, 63, 0
2, 188736, Note_on_c, 0, 74, 79
2, 188736, Note_on_c, 0, 62, 74
2, 188832, Note_on_c, 0, 77, 78
2, 188924, Note_on_c, 0, 77, 0
2, 188924, Note_on_c, 0, 62, 0
2, 188924, Note_on_c, 0, 74, 0
2, 188928, Note_on_c, 0, 75, 88
2, 188928, Note_on_c, 0, 60, 73
2, 189116, Note_on_c, 0, 60, 0
2, 189116, Note_on_c, 0, 75, 0
2, 189120, Note_on_c, 0, 74, 86
2, 189120, Note_on_c, 0, 67, 82
2, 189308, Note_on_c, 0, 67, 0
2, 189308, Note_on_c, 0, 74, 0
2, 189312, Note_on_c, 0, 75, 84
2, 189312, Note_on_c, 0, 60, 83
2, 189312, Note_on_c, 0, 63, 78
2, 189500, Note_on_c, 0, 63, 0
2, 189500, Note_on_c, 0, 60, 0
2, 189500, Note_on_c, 0, 75, 0
2, 189504, Note_on_c, 0, 77, 86
2, 189504, Note_on_c, 0, 67, 81
2, 189692, Note_on_c, 0, 67, 0
2, 189692, Note_on_c, 0, 77, 0
2, 189696, Note_on_c, 0, 59, 72
2, 189696, Note_on_c, 0, 62, 83
2, 189696, Note_on_c, 0, 79, 96
2, 189788, Note_on_c, 0, 79, 0
2, 189884, Note_on_c, 0, 62, 0
2, 189884, Note_on_c, 0, 59, 0
2, 189888, Note_on_c, 0, 67, 82
2, 190076, Note_on_c, 0, 67, 0
2, 190080, Note_on_c, 0, 60, 87
2, 190080, Note_on_c, 0, 56, 88
2, 190080, Note_on_c, 0, 79, 74
2, 190172, Note_on_c, 0, 79, 0
2, 190268, Note_on_c, 0, 56, 0
2, 190268, Note_on_c, 0, 60, 0
2, 190272, Note_on_c, 0, 67, 57
2, 190460, Note_on_c, 0, 67, 0
2, 190464, Note_on_c, 0, 79, 93
2, 190656, Note_on_c, 0, 59, 76
2, 190844, Note_on_c, 0, 59, 0
2, 190848, Note_on_c, 0, 62, 86
2, 191036, Note_on_c, 0, 62, 0
2, 191040, Note_on_c, 0, 67, 83
2, 191228, Note_on_c, 0, 67, 0
2, 191424, Note_on_c, 0, 59, 75
2, 191612, Note_on_c, 0, 59, 0
2, 191612, Note_on_c, 0, 79, 0
2, 191616, Note_on_c, 0, 62, 85
2, 191616, Note_on_c, 0, 77, 83
2, 191804, Note_on_c, 0, 77, 0
2, 191804, Note_on_c, 0, 62, 0
2, 191808, Note_on_c, 0, 67, 73
2, 191808, Note_on_c, 0, 79, 95
2, 191900, Note_on_c, 0, 77, 77
2, 191944, Note_on_c, 0, 77, 0
2, 191948, Note_on_c, 0, 79, 90
2, 191992, Note_on_c, 0, 79, 0
2, 191996, Note_on_c, 0, 79, 0
2, 191996, Note_on_c, 0, 67, 0
2, 192000, Note_on_c, 0, 80, 103
2, 192384, Note_on_c, 0, 59, 76
2, 192572, Note_on_c, 0, 59, 0
2, 192576, Note_on_c, 0, 62, 82
2, 192764, Note_on_c, 0, 62, 0
2, 192764, Note_on_c, 0, 80, 0
2, 192768, Note_on_c, 0, 74, 92
2, 193148, Note_on_c, 0, 74, 0
2, 193152, Note_on_c, 0, 59, 65
2, 193152, Note_on_c, 0, 75, 86
2, 193340, Note_on_c, 0, 75, 0
2, 193340, Note_on_c, 0, 59, 0
2, 193344, Note_on_c, 0, 62, 88
2, 193344, Note_on_c, 0, 77, 101
2, 193440, Note_on_c, 0, 75, 84
2, 193484, Note_on_c, 0, 75, 0
2, 193488, Note_on_c, 0, 77, 97
2, 193532, Note_on_c, 0, 77, 0
2, 193532, Note_on_c, 0, 77, 0
2, 193532, Note_on_c, 0, 62, 0
2, 193536, Note_on_c, 0, 79, 90
2, 193920, Note_on_c, 0, 60, 81
2, 194108, Note_on_c, 0, 60, 0
2, 194112, Note_on_c, 0, 63, 78
2, 194300, Note_on_c, 0, 63, 0
2, 194300, Note_on_c, 0, 79, 0
2, 194304, Note_on_c, 0, 72, 77
2, 194496, Note_on_c, 0, 60, 85
2, 194684, Note_on_c, 0, 60, 0
2, 194684, Note_on_c, 0, 72, 0
2, 194688, Note_on_c, 0, 63, 71
2, 194688, Note_on_c, 0, 72, 74
2, 194876, Note_on_c, 0, 72, 0
2, 194876, Note_on_c, 0, 63, 0
2, 194880, Note_on_c, 0, 66, 80
2, 194880, Note_on_c, 0, 74, 88
2, 195068, Note_on_c, 0, 74, 0
2, 195068, Note_on_c, 0, 66, 0
2, 195072, Note_on_c, 0, 75, 86
2, 195164, Note_on_c, 0, 75, 0
2, 195264, Note_on_c, 0, 60, 86
2, 195452, Note_on_c, 0, 60, 0
2, 195456, Note_on_c, 0, 63, 73
2, 195456, Note_on_c, 0, 75, 80
2, 195644, Note_on_c, 0, 75, 0
2, 195644, Note_on_c, 0, 63, 0
2, 195648, Note_on_c, 0, 67, 59
2, 195648, Note_on_c, 0, 77, 96
2, 195836, Note_on_c, 0, 77, 0
2, 195836, Note_on_c, 0, 67, 0
2, 195840, Note_on_c, 0, 74, 89
2, 195932, Note_on_c, 0, 74, 0
2, 196032, Note_on_c, 0, 59, 77
2, 196220, Note_on_c, 0, 59, 0
2, 196224, Note_on_c, 0, 62, 96
2, 196224, Note_on_c, 0, 74, 78
2, 196412, Note_on_c, 0, 74, 0
2, 196412, Note_on_c, 0, 62, 0
2, 196416, Note_on_c, 0, 67, 97
2, 196416, Note_on_c, 0, 75, 86
2, 196604, Note_on_c, 0, 75, 0
2, 196604, Note_on_c, 0, 67, 0
2, 196608, Note_on_c, 0, 72, 85
2, 196988, Note_on_c, 0, 72, 0
2, 198336, Note_on_c, 0, 59, 88
2, 198524, Note_on_c, 0, 59, 0
2, 198528, Note_on_c, 0, 62, 94
2, 198716, Note_on_c, 0, 62, 0
2, 198720, Note_on_c, 0, 65, 86
2, 198908, Note_on_c, 0, 65, 0
2, 199104, Note_on_c, 0, 77, 89
2, 199292, Note_on_c, 0, 77, 0
2, 199296, Note_on_c, 0, 74, 95
2, 199484, Note_on_c, 0, 74, 0
2, 199488, Note_on_c, 0, 71, 87
2, 199676, Note_on_c, 0, 71, 0
2, 199872, Note_on_c, 0, 60, 86
2, 200060, Note_on_c, 0, 60, 0
2, 200064, Note_on_c, 0, 63, 86
2, 200252, Note_on_c, 0, 63, 0
2, 200256, Note_on_c, 0, 67, 96
2, 200444, Note_on_c, 0, 67, 0
2, 200640, Note_on_c, 0, 79, 101
2, 200828, Note_on_c, 0, 79, 0
2, 200832, Note_on_c, 0, 58, 87
2, 200832, Note_on_c, 0, 75, 105
2, 201020, Note_on_c, 0, 75, 0
2, 201020, Note_on_c, 0, 58, 0
2, 201024, Note_on_c, 0, 60, 92
2, 201024, Note_on_c, 0, 72, 99
2, 201212, Note_on_c, 0, 72, 0
2, 201212, Note_on_c, 0, 60, 0
2, 201216, Note_on_c, 0, 61, 102
2, 201408, Note_on_c, 0, 64, 90
2, 201596, Note_on_c, 0, 64, 0
2, 201600, Note_on_c, 0, 67, 107
2, 201788, Note_on_c, 0, 67, 0
2, 201792, Note_on_c, 0, 70, 103
2, 201980, Note_on_c, 0, 70, 0
2, 201980, Note_on_c, 0, 61, 0
2, 202176, Note_on_c, 0, 82, 99
2, 202364, Note_on_c, 0, 82, 0
2, 202368, Note_on_c, 0, 79, 105
2, 202556, Note_on_c, 0, 79, 0
2, 202560, Note_on_c, 0, 58, 91
2, 202560, Note_on_c, 0, 76, 104
2, 202748, Note_on_c, 0, 76, 0
2, 202748, Note_on_c, 0, 58, 0
2, 202752, Note_on_c, 0, 60, 109
2, 202944, Note_on_c, 0, 65, 81
2, 203132, Note_on_c, 0, 65, 0
2, 203136, Note_on_c, 0, 68, 92
2, 203324, Note_on_c, 0, 68, 0
2, 203328, Note_on_c, 0, 72, 97
2, 203516, Note_on_c, 0, 72, 0
2, 203516, Note_on_c, 0, 60, 0
2, 203520, Note_on_c, 0, 77, 95
2, 203708, Note_on_c, 0, 77, 0
2, 203712, Note_on_c, 0, 80, 102
2, 203900, Note_on_c, 0, 80, 0
2, 203904, Note_on_c, 0, 84, 104
2, 204092, Note_on_c, 0, 84, 0
2, 204096, Note_on_c, 0, 89, 108
2, 204288, Note_on_c, 0, 60, 74
2, 204668, Note_on_c, 0, 60, 0
2, 204668, Note_on_c, 0, 89, 0
2, 204672, Note_on_c, 0, 87, 71
2, 204672, Note_on_c, 0, 65, 55
2, 205052, Note_on_c, 0, 65, 0
2, 205052, Note_on_c, 0, 87, 0
2, 205056, Note_on_c, 0, 86, 76
2, 205056, Note_on_c, 0, 60, 69
2, 205436, Note_on_c, 0, 60, 0
2, 205436, Note_on_c, 0, 86, 0
2, 205440, Note_on_c, 0, 84, 81
2, 205440, Note_on_c, 0, 66, 43
2, 205820, Note_on_c, 0, 66, 0
2, 205820, Note_on_c, 0, 84, 0
2, 205824, Note_on_c, 0, 83, 66
2, 205824, Note_on_c, 0, 55, 58
2, 206204, Note_on_c, 0, 55, 0
2, 206204, Note_on_c, 0, 83, 0
2, 206208, Note_on_c, 0, 67, 73
2, 206208, Note_on_c, 0, 79, 82
2, 206588, Note_on_c, 0, 67, 0
2, 206592, Note_on_c, 0, 65, 58
2, 206972, Note_on_c, 0, 65, 0
2, 206972, Note_on_c, 0, 79, 0
2, 206976, Note_on_c, 0, 67, 71
2, 206976, Note_on_c, 0, 79, 77
2, 207356, Note_on_c, 0, 67, 0
2, 207360, Note_on_c, 0, 64, 66
2, 207548, Note_on_c, 0, 79, 0
2, 207552, Note_on_c, 0, 81, 66
2, 207740, Note_on_c, 0, 81, 0
2, 207740, Note_on_c, 0, 64, 0
2, 207744, Note_on_c, 0, 67, 43
2, 207744, Note_on_c, 0, 83, 75
2, 207932, Note_on_c, 0, 83, 0
2, 207936, Note_on_c, 0, 84, 81
2, 208124, Note_on_c, 0, 84, 0
2, 208124, Note_on_c, 0, 67, 0
2, 208128, Note_on_c, 0, 59, 64
2, 208128, Note_on_c, 0, 86, 73
2, 208316, Note_on_c, 0, 86, 0
2, 208320, Note_on_c, 0, 88, 71
2, 208508, Note_on_c, 0, 88, 0
2, 208508, Note_on_c, 0, 59, 0
2, 208512, Note_on_c, 0, 67, 71
2, 208512, Note_on_c, 0, 89, 71
2, 208700, Note_on_c, 0, 89, 0
2, 208704, Note_on_c, 0, 86, 71
2, 208892, Note_on_c, 0, 86, 0
2, 208892, Note_on_c, 0, 67, 0
2, 208896, Note_on_c, 0, 60, 64
2, 208896, Note_on_c, 0, 89, 77
2, 209084, Note_on_c, 0, 89, 0
2, 209088, Note_on_c, 0, 88, 73
2, 209276, Note_on_c, 0, 88, 0
2, 209276, Note_on_c, 0, 60, 0
2, 209280, Note_on_c, 0, 67, 56
2, 209280, Note_on_c, 0, 86, 74
2, 209468, Note_on_c, 0, 86, 0
2, 209472, Note_on_c, 0, 84, 78
2, 209600, Note_on_c, 0, 84, 0
2, 209660, Note_on_c, 0, 67, 0
2, 209664, Note_on_c, 0, 65, 63
2, 209664, Note_on_c, 0, 84, 78
2, 209664, Note_on_c, 0, 74, 78
2, 209852, Note_on_c, 0, 84, 0
2, 209856, Note_on_c, 0, 83, 74
2, 210044, Note_on_c, 0, 83, 0
2, 210044, Note_on_c, 0, 65, 0
2, 210048, Note_on_c, 0, 67, 59
2, 210048, Note_on_c, 0, 81, 62
2, 210236, Note_on_c, 0, 81, 0
2, 210240, Note_on_c, 0, 83, 78
2, 210368, Note_on_c, 0, 83, 0
2, 210428, Note_on_c, 0, 67, 0
2, 210428, Note_on_c, 0, 74, 0
2, 210432, Note_on_c, 0, 64, 62
2, 210432, Note_on_c, 0, 86, 56
2, 210432, Note_on_c, 0, 72, 73
2, 210620, Note_on_c, 0, 86, 0
2, 210624, Note_on_c, 0, 84, 64
2, 210812, Note_on_c, 0, 84, 0
2, 210812, Note_on_c, 0, 64, 0
2, 210816, Note_on_c, 0, 67, 61
2, 210816, Note_on_c, 0, 83, 71
2, 211004, Note_on_c, 0, 83, 0
2, 211008, Note_on_c, 0, 81, 64
2, 211196, Note_on_c, 0, 81, 0
2, 211196, Note_on_c, 0, 67, 0
2, 211196, Note_on_c, 0, 72, 0
2, 211200, Note_on_c, 0, 59, 69
2, 211200, Note_on_c, 0, 79, 74
2, 211200, Note_on_c, 0, 77, 57
2, 211324, Note_on_c, 0, 77, 0
2, 211324, Note_on_c, 0, 79, 0
2, 211580, Note_on_c, 0, 59, 0
2, 211584, Note_on_c, 0, 67, 67
2, 211584, Note_on_c, 0, 77, 57
2, 211584, Note_on_c, 0, 79, 67
2, 211708, Note_on_c, 0, 79, 0
2, 211708, Note_on_c, 0, 77, 0
2, 211964, Note_on_c, 0, 67, 0
2, 211968, Note_on_c, 0, 79, 69
2, 211968, Note_on_c, 0, 77, 83
2, 211968, Note_on_c, 0, 60, 64
2, 212156, Note_on_c, 0, 77, 0
2, 212160, Note_on_c, 0, 76, 85
2, 212348, Note_on_c, 0, 76, 0
2, 212348, Note_on_c, 0, 60, 0
2, 212352, Note_on_c, 0, 74, 79
2, 212352, Note_on_c, 0, 67, 69
2, 212540, Note_on_c, 0, 74, 0
2, 212544, Note_on_c, 0, 72, 72
2, 212672, Note_on_c, 0, 72, 0
2, 212732, Note_on_c, 0, 67, 0
2, 212736, Note_on_c, 0, 72, 66
2, 212736, Note_on_c, 0, 65, 65
2, 212924, Note_on_c, 0, 72, 0
2, 212928, Note_on_c, 0, 71, 62
2, 213116, Note_on_c, 0, 71, 0
2, 213116, Note_on_c, 0, 65, 0
2, 213120, Note_on_c, 0, 69, 70
2, 213120, Note_on_c, 0, 67, 77
2, 213308, Note_on_c, 0, 69, 0
2, 213312, Note_on_c, 0, 71, 79
2, 213440, Note_on_c, 0, 71, 0
2, 213500, Note_on_c, 0, 67, 0
2, 213500, Note_on_c, 0, 79, 0
2, 213504, Note_on_c, 0, 72, 61
2, 213504, Note_on_c, 0, 79, 74
2, 213504, Note_on_c, 0, 64, 71
2, 213692, Note_on_c, 0, 79, 0
2, 213692, Note_on_c, 0, 72, 0
2, 213696, Note_on_c, 0, 81, 74
2, 213884, Note_on_c, 0, 81, 0
2, 213884, Note_on_c, 0, 64, 0
2, 213888, Note_on_c, 0, 83, 79
2, 213888, Note_on_c, 0, 67, 71
2, 214076, Note_on_c, 0, 83, 0
2, 214080, Note_on_c, 0, 84, 80
2, 214268, Note_on_c, 0, 84, 0
2, 214268, Note_on_c, 0, 67, 0
2, 214272, Note_on_c, 0, 86, 77
2, 214272, Note_on_c, 0, 59, 59
2, 214460, Note_on_c, 0, 86, 0
2, 214464, Note_on_c, 0, 88, 75
2, 214652, Note_on_c, 0, 88, 0
2, 214652, Note_on_c, 0, 59, 0
2, 214656, Note_on_c, 0, 89, 83
2, 214656, Note_on_c, 0, 67, 70
2, 214844, Note_on_c, 0, 89, 0
2, 214848, Note_on_c, 0, 86, 72
2, 215036, Note_on_c, 0, 86, 0
2, 215036, Note_on_c, 0, 67, 0
2, 215040, Note_on_c, 0, 89, 75
2, 215040, Note_on_c, 0, 60, 64
2, 215228, Note_on_c, 0, 89, 0
2, 215232, Note_on_c, 0, 88, 79
2, 215420, Note_on_c, 0, 88, 0
2, 215420, Note_on_c, 0, 60, 0
2, 215424, Note_on_c, 0, 86, 76
2, 215424, Note_on_c, 0, 67, 75
2, 215612, Note_on_c, 0, 86, 0
2, 215616, Note_on_c, 0, 84, 87
2, 215804, Note_on_c, 0, 84, 0
2, 215804, Note_on_c, 0, 67, 0
2, 215808, Note_on_c, 0, 83, 76
2, 215808, Note_on_c, 0, 72, 67
2, 215808, Note_on_c, 0, 64, 71
2, 215996, Note_on_c, 0, 83, 0
2, 216000, Note_on_c, 0, 84, 75
2, 216188, Note_on_c, 0, 84, 0
2, 216188, Note_on_c, 0, 72, 0
2, 216192, Note_on_c, 0, 88, 78
2, 216192, Note_on_c, 0, 67, 77
2, 216380, Note_on_c, 0, 88, 0
2, 216384, Note_on_c, 0, 84, 79
2, 216572, Note_on_c, 0, 84, 0
2, 216572, Note_on_c, 0, 67, 0
2, 216572, Note_on_c, 0, 64, 0
2, 216576, Note_on_c, 0, 83, 83
2, 216576, Note_on_c, 0, 65, 72
2, 216576, Note_on_c, 0, 72, 74
2, 216764, Note_on_c, 0, 83, 0
2, 216768, Note_on_c, 0, 81, 71
2, 216956, Note_on_c, 0, 81, 0
2, 216956, Note_on_c, 0, 72, 0
2, 216960, Note_on_c, 0, 84, 81
2, 216960, Note_on_c, 0, 69, 75
2, 217148, Note_on_c, 0, 84, 0
2, 217152, Note_on_c, 0, 81, 74
2, 217340, Note_on_c, 0, 81, 0
2, 217340, Note_on_c, 0, 69, 0
2, 217340, Note_on_c, 0, 65, 0
2, 217344, Note_on_c, 0, 79, 80
2, 217344, Note_on_c, 0, 73, 71
2, 217344, Note_on_c, 0, 65, 73
2, 217532, Note_on_c, 0, 79, 0
2, 217536, Note_on_c, 0, 77, 75
2, 217724, Note_on_c, 0, 77, 0
2, 217724, Note_on_c, 0, 73, 0
2, 217728, Note_on_c, 0, 81, 69
2, 217728, Note_on_c, 0, 69, 70
2, 217916, Note_on_c, 0, 81, 0
2, 217920, Note_on_c, 0, 77, 80
2, 218108, Note_on_c, 0, 77, 0
2, 218108, Note_on_c, 0, 69, 0
2, 218108, Note_on_c, 0, 65, 0
2, 218112, Note_on_c, 0, 76, 81
2, 218112, Note_on_c, 0, 65, 76
2, 218112, Note_on_c, 0, 74, 73
2, 218300, Note_on_c, 0, 76, 0
2, 218304, Note_on_c, 0, 74, 77
2, 218492, Note_on_c, 0, 74, 0
2, 218492, Note_on_c, 0, 74, 0
2, 218492, Note_on_c, 0, 65, 0
2, 218496, Note_on_c, 0, 77, 76
2, 218496, Note_on_c, 0, 69, 75
2, 218684, Note_on_c, 0, 77, 0
2, 218688, Note_on_c, 0, 74, 75
2, 218876, Note_on_c, 0, 74, 0
2, 218876, Note_on_c, 0, 69, 0
2, 218880, Note_on_c, 0, 81, 74
2, 218880, Note_on_c, 0, 65, 71
2, 219068, Note_on_c, 0, 81, 0
2, 219072, Note_on_c, 0, 77, 68
2, 219260, Note_on_c, 0, 77, 0
2, 219260, Note_on_c, 0, 65, 0
2, 219264, Note_on_c, 0, 74, 78
2, 219264, Note_on_c, 0, 66, 79
2, 219452, Note_on_c, 0, 74, 0
2, 219456, Note_on_c, 0, 72, 71
2, 219644, Note_on_c, 0, 72, 0
2, 219644, Note_on_c, 0, 66, 0
2, 219648, Note_on_c, 0, 67, 73
2, 219648, Note_on_c, 0, 71, 77
2, 219772, Note_on_c, 0, 71, 0
2, 219776, Note_on_c, 0, 67, 79
2, 219836, Note_on_c, 0, 67, 0
2, 219900, Note_on_c, 0, 67, 0
2, 219904, Note_on_c, 0, 69, 69
2, 220028, Note_on_c, 0, 69, 0
2, 220032, Note_on_c, 0, 71, 62
2, 220156, Note_on_c, 0, 71, 0
2, 220160, Note_on_c, 0, 69, 77
2, 220284, Note_on_c, 0, 69, 0
2, 220288, Note_on_c, 0, 67, 86
2, 220412, Note_on_c, 0, 67, 0
2, 220416, Note_on_c, 0, 72, 85
2, 220544, Note_on_c, 0, 62, 74
2, 220668, Note_on_c, 0, 62, 0
2, 220672, Note_on_c, 0, 64, 78
2, 220796, Note_on_c, 0, 64, 0
2, 220800, Note_on_c, 0, 66, 79
2, 220924, Note_on_c, 0, 66, 0
2, 220928, Note_on_c, 0, 64, 79
2, 221052, Note_on_c, 0, 64, 0
2, 221056, Note_on_c, 0, 62, 88
2, 221180, Note_on_c, 0, 62, 0
2, 221180, Note_on_c, 0, 72, 0
2, 221184, Note_on_c, 0, 67, 91
2, 221184, Note_on_c, 0, 71, 77
2, 221308, Note_on_c, 0, 71, 0
2, 221312, Note_on_c, 0, 67, 81
2, 221372, Note_on_c, 0, 67, 0
2, 221436, Note_on_c, 0, 67, 0
2, 221440, Note_on_c, 0, 69, 74
2, 221564, Note_on_c, 0, 69, 0
2, 221568, Note_on_c, 0, 71, 73
2, 221692, Note_on_c, 0, 71, 0
2, 221696, Note_on_c, 0, 69, 64
2, 221820, Note_on_c, 0, 69, 0
2, 221824, Note_on_c, 0, 67, 79
2, 221948, Note_on_c, 0, 67, 0
2, 221952, Note_on_c, 0, 72, 81
2, 222080, Note_on_c, 0, 62, 78
2, 222204, Note_on_c, 0, 62, 0
2, 222208, Note_on_c, 0, 64, 78
2, 222332, Note_on_c, 0, 64, 0
2, 222336, Note_on_c, 0, 66, 84
2, 222460, Note_on_c, 0, 66, 0
2, 222464, Note_on_c, 0, 64, 72
2, 222588, Note_on_c, 0, 64, 0
2, 222592, Note_on_c, 0, 62, 85
2, 222716, Note_on_c, 0, 62, 0
2, 222716, Note_on_c, 0, 72, 0
2, 222720, Note_on_c, 0, 71, 70
2, 222720, Note_on_c, 0, 67, 81
2, 222844, Note_on_c, 0, 71, 0
2, 222848, Note_on_c, 0, 67, 87
2, 222908, Note_on_c, 0, 67, 0
2, 222972, Note_on_c, 0, 67, 0
2, 222976, Note_on_c, 0, 69, 82
2, 223100, Note_on_c, 0, 69, 0
2, 223104, Note_on_c, 0, 71, 71
2, 223228, Note_on_c, 0, 71, 0
2, 223232, Note_on_c, 0, 69, 69
2, 223356, Note_on_c, 0, 69, 0
2, 223360, Note_on_c, 0, 67, 77
2, 223484, Note_on_c, 0, 67, 0
2, 223488, Note_on_c, 0, 74, 84
2, 223488, Note_on_c, 0, 67, 88
2, 223612, Note_on_c, 0, 74, 0
2, 223616, Note_on_c, 0, 71, 77
2, 223740, Note_on_c, 0, 71, 0
2, 223744, Note_on_c, 0, 72, 71
2, 223868, Note_on_c, 0, 72, 0
2, 223868, Note_on_c, 0, 67, 0
2, 223872, Note_on_c, 0, 74, 90
2, 223996, Note_on_c, 0, 74, 0
2, 224000, Note_on_c, 0, 72, 83
2, 224124, Note_on_c, 0, 72, 0
2, 224128, Note_on_c, 0, 71, 80
2, 224252, Note_on_c, 0, 71, 0
2, 224256, Note_on_c, 0, 77, 88
2, 224256, Note_on_c, 0, 55, 84
2, 224256, Note_on_c, 0, 65, 81
2, 224256, Note_on_c, 0, 59, 85
2, 224256, Note_on_c, 0, 62, 89
2, 224380, Note_on_c, 0, 77, 0
2, 224384, Note_on_c, 0, 76, 76
2, 224508, Note_on_c, 0, 76, 0
2, 224512, Note_on_c, 0, 74, 74
2, 224636, Note_on_c, 0, 74, 0
2, 224636, Note_on_c, 0, 59, 0
2, 224636, Note_on_c, 0, 55, 0
2, 224636, Note_on_c, 0, 65, 0
2, 224636, Note_on_c, 0, 62, 0
2, 224640, Note_on_c, 0, 72, 75
2, 224764, Note_on_c, 0, 72, 0
2, 224768, Note_on_c, 0, 71, 67
2, 224892, Note_on_c, 0, 71, 0
2, 224896, Note_on_c, 0, 69, 57
2, 225020, Note_on_c, 0, 69, 0
2, 225024, Note_on_c, 0, 67, 78
2, 225148, Note_on_c, 0, 67, 0
2, 225152, Note_on_c, 0, 69, 66
2, 225276, Note_on_c, 0, 69, 0
2, 225280, Note_on_c, 0, 67, 73
2, 225404, Note_on_c, 0, 67, 0
2, 225408, Note_on_c, 0, 65, 64
2, 225532, Note_on_c, 0, 65, 0
2, 225536, Note_on_c, 0, 64, 59
2, 225660, Note_on_c, 0, 64, 0
2, 225664, Note_on_c, 0, 62, 61
2, 225788, Note_on_c, 0, 62, 0
2, 225792, Note_on_c, 0, 64, 64
2, 225916, Note_on_c, 0, 64, 0
2, 225920, Note_on_c, 0, 60, 67
2, 226044, Note_on_c, 0, 60, 0
2, 226048, Note_on_c, 0, 62, 63
2, 226172, Note_on_c, 0, 62, 0
2, 226176, Note_on_c, 0, 64, 59
2, 226300, Note_on_c, 0, 64, 0
2, 226304, Note_on_c, 0, 62, 69
2, 226428, Note_on_c, 0, 62, 0
2, 226432, Note_on_c, 0, 60, 78
2, 226556, Note_on_c, 0, 60, 0
2, 226560, Note_on_c, 0, 65, 85
2, 226816, Note_on_c, 0, 57, 68
2, 226940, Note_on_c, 0, 57, 0
2, 226944, Note_on_c, 0, 59, 68
2, 227068, Note_on_c, 0, 59, 0
2, 227072, Note_on_c, 0, 57, 49
2, 227196, Note_on_c, 0, 57, 0
2, 227324, Note_on_c, 0, 65, 0
2, 227328, Note_on_c, 0, 64, 78
2, 227328, Note_on_c, 0, 60, 79
2, 227452, Note_on_c, 0, 64, 0
2, 227456, Note_on_c, 0, 72, 63
2, 227580, Note_on_c, 0, 72, 0
2, 227584, Note_on_c, 0, 74, 71
2, 227708, Note_on_c, 0, 74, 0
2, 227708, Note_on_c, 0, 60, 0
2, 227712, Note_on_c, 0, 76, 79
2, 227836, Note_on_c, 0, 76, 0
2, 227840, Note_on_c, 0, 74, 68
2, 227964, Note_on_c, 0, 74, 0
2, 227968, Note_on_c, 0, 72, 74
2, 228092, Note_on_c, 0, 72, 0
2, 228096, Note_on_c, 0, 77, 87
2, 228352, Note_on_c, 0, 57, 73
2, 228476, Note_on_c, 0, 57, 0
2, 228480, Note_on_c, 0, 59, 68
2, 228604, Note_on_c, 0, 59, 0
2, 228608, Note_on_c, 0, 57, 60
2, 228732, Note_on_c, 0, 57, 0
2, 228860, Note_on_c, 0, 77, 0
2, 228864, Note_on_c, 0, 76, 81
2, 228864, Note_on_c, 0, 60, 82
2, 228988, Note_on_c, 0, 76, 0
2, 228992, Note_on_c, 0, 72, 68
2, 229116, Note_on_c, 0, 72, 0
2, 229120, Note_on_c, 0, 74, 70
2, 229244, Note_on_c, 0, 74, 0
2, 229244, Note_on_c, 0, 60, 0
2, 229248, Note_on_c, 0, 76, 81
2, 229372, Note_on_c, 0, 76, 0
2, 229376, Note_on_c, 0, 74, 63
2, 229500, Note_on_c, 0, 74, 0
2, 229504, Note_on_c, 0, 72, 70
2, 229628, Note_on_c, 0, 72, 0
2, 229632, Note_on_c, 0, 79, 85
2, 229632, Note_on_c, 0, 60, 89
2, 229756, Note_on_c, 0, 79, 0
2, 229760, Note_on_c, 0, 76, 76
2, 229884, Note_on_c, 0, 76, 0
2, 229888, Note_on_c, 0, 77, 77
2, 230012, Note_on_c, 0, 77, 0
2, 230012, Note_on_c, 0, 60, 0
2, 230016, Note_on_c, 0, 79, 80
2, 230140, Note_on_c, 0, 79, 0
2, 230144, Note_on_c, 0, 77, 77
2, 230268, Note_on_c, 0, 77, 0
2, 230272, Note_on_c, 0, 76, 84
2, 230396, Note_on_c, 0, 76, 0
2, 230400, Note_on_c, 0, 82, 80
2, 230400, Note_on_c, 0, 58, 59
2, 230400, Note_on_c, 0, 60, 54
2, 230400, Note_on_c, 0, 55, 85
2, 230400, Note_on_c, 0, 52, 71
2, 230524, Note_on_c, 0, 82, 0
2, 230528, Note_on_c, 0, 81, 58
2, 230652, Note_on_c, 0, 81, 0
2, 230656, Note_on_c, 0, 79, 68
2, 230780, Note_on_c, 0, 79, 0
2, 230780, Note_on_c, 0, 55, 0
2, 230780, Note_on_c, 0, 58, 0
2, 230780, Note_on_c, 0, 60, 0
2, 230780, Note_on_c, 0, 52, 0
2, 230784, Note_on_c, 0, 77, 79
2, 230908, Note_on_c, 0, 77, 0
2, 230912, Note_on_c, 0, 76, 85
2, 231036, Note_on_c, 0, 76, 0
2, 231040, Note_on_c, 0, 74, 81
2, 231164, Note_on_c, 0, 74, 0
2, 231168, Note_on_c, 0, 72, 68
2, 231292, Note_on_c, 0, 72, 0
2, 231296, Note_on_c, 0, 71, 70
2, 231420, Note_on_c, 0, 71, 0
2, 231424, Note_on_c, 0, 72, 65
2, 231548, Note_on_c, 0, 72, 0
2, 231552, Note_on_c, 0, 73, 68
2, 231676, Note_on_c, 0, 73, 0
2, 231680, Note_on_c, 0, 74, 75
2, 231804, Note_on_c, 0, 74, 0
2, 231808, Note_on_c, 0, 70, 62
2, 231932, Note_on_c, 0, 70, 0
2, 232320, Note_on_c, 0, 57, 73
2, 232444, Note_on_c, 0, 57, 0
2, 232448, Note_on_c, 0, 60, 83
2, 232572, Note_on_c, 0, 60, 0
2, 232576, Note_on_c, 0, 65, 79
2, 232700, Note_on_c, 0, 65, 0
2, 232704, Note_on_c, 0, 69, 74
2, 232828, Note_on_c, 0, 69, 0
2, 232832, Note_on_c, 0, 72, 66
2, 232956, Note_on_c, 0, 72, 0
2, 232960, Note_on_c, 0, 77, 81
2, 233084, Note_on_c, 0, 77, 0
2, 233088, Note_on_c, 0, 81, 59
2, 233148, Note_on_c, 0, 81, 0
2, 233280, Note_on_c, 0, 81, 67
2, 233340, Note_on_c, 0, 81, 0
2, 233472, Note_on_c, 0, 81, 73
2, 233472, Note_on_c, 0, 55, 78
2, 233472, Note_on_c, 0, 64, 63
2, 233472, Note_on_c, 0, 60, 74
2, 233660, Note_on_c, 0, 81, 0
2, 233664, Note_on_c, 0, 79, 70
2, 233852, Note_on_c, 0, 79, 0
2, 233852, Note_on_c, 0, 60, 0
2, 233852, Note_on_c, 0, 64, 0
2, 233852, Note_on_c, 0, 55, 0
2, 233856, Note_on_c, 0, 77, 75
2, 233916, Note_on_c, 0, 77, 0
2, 234048, Note_on_c, 0, 76, 75
2, 234108, Note_on_c, 0, 76, 0
2, 234240, Note_on_c, 0, 76, 74
2, 234240, Note_on_c, 0, 65, 76
2, 234240, Note_on_c, 0, 62, 76
2, 234240, Note_on_c, 0, 55, 80
2, 234428, Note_on_c, 0, 76, 0
2, 234432, Note_on_c, 0, 74, 70
2, 234620, Note_on_c, 0, 74, 0
2, 234620, Note_on_c, 0, 55, 0
2, 234620, Note_on_c, 0, 62, 0
2, 234620, Note_on_c, 0, 65, 0
2, 234624, Note_on_c, 0, 72, 68
2, 234684, Note_on_c, 0, 72, 0
2, 234816, Note_on_c, 0, 71, 73
2, 234876, Note_on_c, 0, 71, 0
2, 235008, Note_on_c, 0, 72, 71
2, 235008, Note_on_c, 0, 64, 78
2, 235008, Note_on_c, 0, 60, 84
2, 235388, Note_on_c, 0, 60, 0
2, 235388, Note_on_c, 0, 64, 0
2, 235388, Note_on_c, 0, 72, 0
2, 236160, Note_on_c, 0, 67, 72
2, 236540, Note_on_c, 0, 67, 0
2, 236544, Note_on_c, 0, 65, 59
2, 236544, Note_on_c, 0, 74, 62
2, 236544, Note_on_c, 0, 71, 55
2, 236544, Note_on_c, 0, 67, 53
2, 236924, Note_on_c, 0, 67, 0
2, 236924, Note_on_c, 0, 65, 0
2, 236924, Note_on_c, 0, 74, 0
2, 236924, Note_on_c, 0, 71, 0
2, 236928, Note_on_c, 0, 74, 75
2, 236928, Note_on_c, 0, 71, 69
2, 236928, Note_on_c, 0, 65, 66
2, 236928, Note_on_c, 0, 67, 61
2, 237308, Note_on_c, 0, 67, 0
2, 237308, Note_on_c, 0, 74, 0
2, 237308, Note_on_c, 0, 71, 0
2, 237308, Note_on_c, 0, 65, 0
2, 237312, Note_on_c, 0, 74, 86
2, 237312, Note_on_c, 0, 65, 69
2, 237312, Note_on_c, 0, 71, 75
2, 237312, Note_on_c, 0, 67, 72
2, 237692, Note_on_c, 0, 67, 0
2, 237692, Note_on_c, 0, 74, 0
2, 237692, Note_on_c, 0, 65, 0
2, 237692, Note_on_c, 0, 71, 0
2, 237696, Note_on_c, 0, 71, 77
2, 237696, Note_on_c, 0, 65, 68
2, 237696, Note_on_c, 0, 74, 78
2, 237696, Note_on_c, 0, 67, 71
2, 238076, Note_on_c, 0, 67, 0
2, 238076, Note_on_c, 0, 71, 0
2, 238076, Note_on_c, 0, 65, 0
2, 238076, Note_on_c, 0, 74, 0
2, 238080, Note_on_c, 0, 79, 86
2, 238080, Note_on_c, 0, 64, 78
2, 238080, Note_on_c, 0, 67, 70
2, 238080, Note_on_c, 0, 72, 69
2, 239228, Note_on_c, 0, 72, 0
2, 239228, Note_on_c, 0, 79, 0
2, 239228, Note_on_c, 0, 64, 0
2, 239228, Note_on_c, 0, 67, 0
2, 239232, Note_on_c, 0, 79, 81
2, 239232, Note_on_c, 0, 64, 78
2, 239232, Note_on_c, 0, 72, 65
2, 239612, Note_on_c, 0, 72, 0
2, 239612, Note_on_c, 0, 64, 0
2, 239612, Note_on_c, 0, 79, 0
2, 239616, Note_on_c, 0, 75, 61
2, 239616, Note_on_c, 0, 72, 49
2, 239616, Note_on_c, 0, 78, 59
2, 239616, Note_on_c, 0, 69, 45
2, 240120, Note_on_c, 0, 69, 0
2, 240120, Note_on_c, 0, 75, 0
2, 240120, Note_on_c, 0, 72, 0
2, 240120, Note_on_c, 0, 78, 0
2, 240384, Note_on_c, 0, 72, 58
2, 240384, Note_on_c, 0, 74, 80
2, 240384, Note_on_c, 0, 69, 69
2, 240384, Note_on_c, 0, 78, 68
2, 240888, Note_on_c, 0, 78, 0
2, 240888, Note_on_c, 0, 72, 0
2, 240888, Note_on_c, 0, 74, 0
2, 240888, Note_on_c, 0, 69, 0
2, 241152, Note_on_c, 0, 67, 53
2, 241152, Note_on_c, 0, 71, 52
2, 241152, Note_on_c, 0, 74, 72
2, 241152, Note_on_c, 0, 79, 73
2, 242112, Note_on_c, 0, 79, 0
2, 242112, Note_on_c, 0, 67, 0
2, 242112, Note_on_c, 0, 71, 0
2, 242112, Note_on_c, 0, 74, 0
2, 242688, Note_on_c, 0, 62, 75
2, 242688, Note_on_c, 0, 59, 69
2, 242688, Note_on_c, 0, 55, 65
2, 242688, Note_on_c, 0, 53, 73
2, 243068, Note_on_c, 0, 53, 0
2, 243068, Note_on_c, 0, 62, 0
2, 243068, Note_on_c, 0, 59, 0
2, 243068, Note_on_c, 0, 55, 0
2, 243072, Note_on_c, 0, 62, 79
2, 243072, Note_on_c, 0, 59, 76
2, 243072, Note_on_c, 0, 55, 73
2, 243072, Note_on_c, 0, 53, 72
2, 243452, Note_on_c, 0, 53, 0
2, 243452, Note_on_c, 0, 62, 0
2, 243452, Note_on_c, 0, 59, 0
2, 243452, Note_on_c, 0, 55, 0
2, 243840, Note_on_c, 0, 59, 83
2, 243840, Note_on_c, 0, 53, 83
2, 243840, Note_on_c, 0, 55, 81
2, 243840, Note_on_c, 0, 62, 93
2, 244220, Note_on_c, 0, 62, 0
2, 244220, Note_on_c, 0, 59, 0
2, 244220, Note_on_c, 0, 53, 0
2, 244220, Note_on_c, 0, 55, 0
2, 244224, Note_on_c, 0, 67, 94
2, 244224, Note_on_c, 0, 51, 78
2, 244224, Note_on_c, 0, 55, 82
2, 244608, Note_on_c, 0, 59, 71
2, 244988, Note_on_c, 0, 59, 0
2, 244992, Note_on_c, 0, 60, 77
2, 245372, Note_on_c, 0, 67, 0
2, 245372, Note_on_c, 0, 55, 0
2, 245372, Note_on_c, 0, 51, 0
2, 245756, Note_on_c, 0, 60, 0
2, 245760, Note_on_c, 0, 60, 70
2, 245760, Note_on_c, 0, 65, 73
2, 245760, Note_on_c, 0, 56, 67
2, 246140, Note_on_c, 0, 56, 0
2, 246140, Note_on_c, 0, 65, 0
2, 246140, Note_on_c, 0, 60, 0
2, 246144, Note_on_c, 0, 65, 89
2, 246144, Note_on_c, 0, 60, 80
2, 246144, Note_on_c, 0, 56, 84
2, 246524, Note_on_c, 0, 56, 0
2, 246524, Note_on_c, 0, 60, 0
2, 246524, Note_on_c, 0, 65, 0
2, 246528, Note_on_c, 0, 65, 83
2, 246528, Note_on_c, 0, 62, 80
2, 246528, Note_on_c, 0, 56, 75
2, 246528, Note_on_c, 0, 58, 68
2, 246908, Note_on_c, 0, 58, 0
2, 246908, Note_on_c, 0, 65, 0
2, 246908, Note_on_c, 0, 62, 0
2, 246908, Note_on_c, 0, 56, 0
2, 246912, Note_on_c, 0, 65, 89
2, 246912, Note_on_c, 0, 58, 76
2, 246912, Note_on_c, 0, 56, 87
2, 246912, Note_on_c, 0, 62, 81
2, 247292, Note_on_c, 0, 56, 0
2, 247292, Note_on_c, 0, 65, 0
2, 247292, Note_on_c, 0, 58, 0
2, 247296, Note_on_c, 0, 70, 80
2, 247296, Note_on_c, 0, 58, 53
2, 247296, Note_on_c, 0, 55, 72
2, 247676, Note_on_c, 0, 62, 0
2, 247680, Note_on_c, 0, 62, 75
2, 248060, Note_on_c, 0, 62, 0
2, 248064, Note_on_c, 0, 63, 72
2, 248444, Note_on_c, 0, 55, 0
2, 248444, Note_on_c, 0, 70, 0
2, 248444, Note_on_c, 0, 58, 0
2, 248448, Note_on_c, 0, 55, 79
2, 248448, Note_on_c, 0, 70, 79
2, 248828, Note_on_c, 0, 70, 0
2, 248828, Note_on_c, 0, 55, 0
2, 248832, Note_on_c, 0, 69, 81
2, 248832, Note_on_c, 0, 60, 74
2, 249212, Note_on_c, 0, 60, 0
2, 249212, Note_on_c, 0, 69, 0
2, 249212, Note_on_c, 0, 63, 0
2, 249216, Note_on_c, 0, 63, 64
2, 249216, Note_on_c, 0, 69, 77
2, 249216, Note_on_c, 0, 66, 63
2, 249216, Note_on_c, 0, 60, 77
2, 249596, Note_on_c, 0, 60, 0
2, 249596, Note_on_c, 0, 63, 0
2, 249596, Note_on_c, 0, 69, 0
2, 249596, Note_on_c, 0, 66, 0
2, 249600, Note_on_c, 0, 69, 70
2, 249600, Note_on_c, 0, 66, 60
2, 249600, Note_on_c, 0, 63, 69
2, 249600, Note_on_c, 0, 60, 77
2, 249980, Note_on_c, 0, 60, 0
2, 249980, Note_on_c, 0, 69, 0
2, 249980, Note_on_c, 0, 66, 0
2, 249980, Note_on_c, 0, 63, 0
2, 249984, Note_on_c, 0, 63, 63
2, 249984, Note_on_c, 0, 69, 77
2, 249984, Note_on_c, 0, 60, 79
2, 249984, Note_on_c, 0, 66, 72
2, 250364, Note_on_c, 0, 60, 0
2, 250364, Note_on_c, 0, 63, 0
2, 250364, Note_on_c, 0, 69, 0
2, 250368, Note_on_c, 0, 74, 79
2, 250368, Note_on_c, 0, 62, 77
2, 250368, Note_on_c, 0, 59, 81
2, 250748, Note_on_c, 0, 66, 0
2, 250752, Note_on_c, 0, 66, 76
2, 251132, Note_on_c, 0, 66, 0
2, 251132, Note_on_c, 0, 74, 0
2, 251136, Note_on_c, 0, 67, 80
2, 251392, Note_on_c, 0, 67, 0
2, 251516, Note_on_c, 0, 62, 0
2, 251516, Note_on_c, 0, 59, 0
2, 251520, Note_on_c, 0, 69, 75
2, 251520, Note_on_c, 0, 60, 78
2, 251520, Note_on_c, 0, 63, 49
2, 251520, Note_on_c, 0, 66, 65
2, 251900, Note_on_c, 0, 63, 0
2, 251900, Note_on_c, 0, 69, 0
2, 251900, Note_on_c, 0, 60, 0
2, 251904, Note_on_c, 0, 74, 84
2, 251904, Note_on_c, 0, 62, 62
2, 251904, Note_on_c, 0, 59, 73
2, 252284, Note_on_c, 0, 66, 0
2, 252288, Note_on_c, 0, 66, 72
2, 252668, Note_on_c, 0, 66, 0
2, 252672, Note_on_c, 0, 67, 81
2, 252928, Note_on_c, 0, 67, 0
2, 253052, Note_on_c, 0, 74, 0
2, 253052, Note_on_c, 0, 62, 0
2, 253052, Note_on_c, 0, 59, 0
2, 253056, Note_on_c, 0, 68, 51
2, 253056, Note_on_c, 0, 74, 79
2, 253056, Note_on_c, 0, 65, 70
2, 253056, Note_on_c, 0, 71, 73
2, 253436, Note_on_c, 0, 65, 0
2, 253436, Note_on_c, 0, 68, 0
2, 253436, Note_on_c, 0, 74, 0
2, 253440, Note_on_c, 0, 79, 78
2, 253440, Note_on_c, 0, 63, 63
2, 253440, Note_on_c, 0, 67, 48
2, 253820, Note_on_c, 0, 71, 0
2, 253824, Note_on_c, 0, 71, 66
2, 254204, Note_on_c, 0, 71, 0
2, 254208, Note_on_c, 0, 72, 74
2, 254464, Note_on_c, 0, 72, 0
2, 254588, Note_on_c, 0, 79, 0
2, 254588, Note_on_c, 0, 63, 0
2, 254588, Note_on_c, 0, 67, 0
2, 254592, Note_on_c, 0, 68, 45
2, 254592, Note_on_c, 0, 74, 69
2, 254592, Note_on_c, 0, 65, 61
2, 254592, Note_on_c, 0, 71, 76
2, 254972, Note_on_c, 0, 65, 0
2, 254972, Note_on_c, 0, 68, 0
2, 254972, Note_on_c, 0, 74, 0
2, 254976, Note_on_c, 0, 79, 78
2, 254976, Note_on_c, 0, 67, 70
2, 254976, Note_on_c, 0, 63, 65
2, 255356, Note_on_c, 0, 71, 0
2, 255360, Note_on_c, 0, 71, 67
2, 255740, Note_on_c, 0, 71, 0
2, 255744, Note_on_c, 0, 72, 77
2, 256000, Note_on_c, 0, 72, 0
2, 256124, Note_on_c, 0, 79, 0
2, 256124, Note_on_c, 0, 67, 0
2, 256124, Note_on_c, 0, 63, 0
2, 256128, Note_on_c, 0, 74, 62
2, 256128, Note_on_c, 0, 68, 42
2, 256128, Note_on_c, 0, 65, 68
2, 256128, Note_on_c, 0, 71, 72
2, 256508, Note_on_c, 0, 65, 0
2, 256508, Note_on_c, 0, 74, 0
2, 256508, Note_on_c, 0, 68, 0
2, 256512, Note_on_c, 0, 80, 88
2, 256892, Note_on_c, 0, 71, 0
2, 256896, Note_on_c, 0, 70, 74
2, 257152, Note_on_c, 0, 70, 0
2, 257280, Note_on_c, 0, 71, 74
2, 257536, Note_on_c, 0, 71, 0
2, 257664, Note_on_c, 0, 74, 85
2, 257920, Note_on_c, 0, 74, 0
2, 258044, Note_on_c, 0, 80, 0
2, 258048, Note_on_c, 0, 79, 82
2, 258432, Note_on_c, 0, 70, 72
2, 258812, Note_on_c, 0, 70, 0
2, 258816, Note_on_c, 0, 71, 74
2, 259196, Note_on_c, 0, 71, 0
2, 259200, Note_on_c, 0, 74, 78
2, 259580, Note_on_c, 0, 74, 0
2, 259580, Note_on_c, 0, 79, 0
2, 259584, Note_on_c, 0, 78, 74
2, 259968, Note_on_c, 0, 70, 64
2, 260348, Note_on_c, 0, 70, 0
2, 260352, Note_on_c, 0, 71, 73
2, 260732, Note_on_c, 0, 71, 0
2, 260736, Note_on_c, 0, 74, 71
2, 261116, Note_on_c, 0, 74, 0
2, 261116, Note_on_c, 0, 78, 0
2, 261120, Note_on_c, 0, 77, 79
2, 261504, Note_on_c, 0, 70, 63
2, 261884, Note_on_c, 0, 70, 0
2, 261888, Note_on_c, 0, 71, 63
2, 262652, Note_on_c, 0, 71, 0
2, 262652, Note_on_c, 0, 77, 0
2, 262656, Note_on_c, 0, 75, 64
2, 262656, Note_on_c, 0, 72, 78
2, 262656, Note_on_c, 0, 67, 60
2, 263228, Note_on_c, 0, 67, 0
2, 263228, Note_on_c, 0, 72, 0
2, 263228, Note_on_c, 0, 75, 0
2, 263232, Note_on_c, 0, 60, 70
2, 263232, Note_on_c, 0, 77, 74
2, 263420, Note_on_c, 0, 77, 0
2, 263420, Note_on_c, 0, 60, 0
2, 263424, Note_on_c, 0, 74, 89
2, 263996, Note_on_c, 0, 74, 0
2, 264000, Note_on_c, 0, 59, 66
2, 264000, Note_on_c, 0, 75, 72
2, 264188, Note_on_c, 0, 75, 0
2, 264188, Note_on_c, 0, 59, 0
2, 264192, Note_on_c, 0, 72, 69
2, 264768, Note_on_c, 0, 60, 94
2, 264868, Note_on_c, 0, 74, 74
2, 264956, Note_on_c, 0, 60, 0
2, 264956, Note_on_c, 0, 72, 0
2, 264960, Note_on_c, 0, 74, 0
2, 264960, Note_on_c, 0, 63, 80
2, 264960, Note_on_c, 0, 72, 74
2, 265148, Note_on_c, 0, 72, 0
2, 265148, Note_on_c, 0, 63, 0
2, 265152, Note_on_c, 0, 71, 69
2, 265152, Note_on_c, 0, 67, 48
2, 265340, Note_on_c, 0, 67, 0
2, 265340, Note_on_c, 0, 71, 0
2, 265344, Note_on_c, 0, 63, 73
2, 265344, Note_on_c, 0, 72, 77
2, 265532, Note_on_c, 0, 72, 0
2, 265532, Note_on_c, 0, 63, 0
2, 265536, Note_on_c, 0, 74, 79
2, 265536, Note_on_c, 0, 62, 74
2, 265632, Note_on_c, 0, 77, 78
2, 265724, Note_on_c, 0, 77, 0
2, 265724, Note_on_c, 0, 62, 0
2, 265724, Note_on_c, 0, 74, 0
2, 265728, Note_on_c, 0, 75, 88
2, 265728, Note_on_c, 0, 60, 73
2, 265916, Note_on_c, 0, 60, 0
2, 265916, Note_on_c, 0, 75, 0
2, 265920, Note_on_c, 0, 74, 86
2, 265920, Note_on_c, 0, 67, 82
2, 266108, Note_on_c, 0, 67, 0
2, 266108, Note_on_c, 0, 74, 0
2, 266112, Note_on_c, 0, 75, 84
2, 266112, Note_on_c, 0, 60, 83
2, 266112, Note_on_c, 0, 63, 78
2, 266300, Note_on_c, 0, 63, 0
2, 266300, Note_on_c, 0, 60, 0
2, 266300, Note_on_c, 0, 75, 0
2, 266304, Note_on_c, 0, 77, 86
2, 266304, Note_on_c, 0, 67, 81
2, 266492, Note_on_c, 0, 67, 0
2, 266492, Note_on_c, 0, 77, 0
2, 266496, Note_on_c, 0, 59, 72
2, 266496, Note_on_c, 0, 62, 83
2, 266496, Note_on_c, 0, 79, 96
2, 266588, Note_on_c, 0, 79, 0
2, 266684, Note_on_c, 0, 62, 0
2, 266684, Note_on_c, 0, 59, 0
2, 266688, Note_on_c, 0, 67, 82
2, 266876, Note_on_c, 0, 67, 0
2, 266880, Note_on_c, 0, 60, 87
2, 266880, Note_on_c, 0, 56, 88
2, 266880, Note_on_c, 0, 79, 74
2, 266972, Note_on_c, 0, 79, 0
2, 267068, Note_on_c, 0, 56, 0
2, 267068, Note_on_c, 0, 60, 0
2, 267072, Note_on_c, 0, 67, 57
2, 267260, Note_on_c, 0, 67, 0
2, 267264, Note_on_c, 0, 79, 93
2, 267456, Note_on_c, 0, 59, 76
2, 267644, Note_on_c, 0, 59, 0
2, 267648, Note_on_c, 0, 62, 86
2, 267836, Note_on_c, 0, 62, 0
2, 267840, Note_on_c, 0, 67, 83
2, 268028, Note_on_c, 0, 67, 0
2, 268224, Note_on_c, 0, 59, 75
2, 268412, Note_on_c, 0, 59, 0
2, 268412, Note_on_c, 0, 79, 0
2, 268416, Note_on_c, 0, 62, 85
2, 268416, Note_on_c, 0, 77, 83
2, 268604, Note_on_c, 0, 77, 0
2, 268604, Note_on_c, 0, 62, 0
2, 268608, Note_on_c, 0, 67, 73
2, 268608, Note_on_c, 0, 79, 95
2, 268700, Note_on_c, 0, 77, 77
2, 268744, Note_on_c, 0, 77, 0
2, 268748, Note_on_c, 0, 79, 90
2, 268792, Note_on_c, 0, 79, 0
2, 268796, Note_on_c, 0, 79, 0
2, 268796, Note_on_c, 0, 67, 0
2, 268800, Note_on_c, 0, 80, 103
2, 269184, Note_on_c, 0, 59, 76
2, 269372, Note_on_c, 0, 59, 0
2, 269376, Note_on_c, 0, 62, 82
2, 269564, Note_on_c, 0, 62, 0
2, 269564, Note_on_c, 0, 80, 0
2, 269568, Note_on_c, 0, 74, 92
2, 269948, Note_on_c, 0, 74, 0
2, 269952, Note_on_c, 0, 59, 65
2, 269952, Note_on_c, 0, 75, 86
2, 270140, Note_on_c, 0, 75, 0
2, 270140, Note_on_c, 0, 59, 0
2, 270144, Note_on_c, 0, 62, 88
2, 270144, Note_on_c, 0, 77, 101
2, 270240, Note_on_c, 0, 75, 84
2, 270284, Note_on_c, 0, 75, 0
2, 270288, Note_on_c, 0, 77, 97
2, 270332, Note_on_c, 0, 77, 0
2, 270332, Note_on_c, 0, 77, 0
2, 270332, Note_on_c, 0, 62, 0
2, 270336, Note_on_c, 0, 79, 90
2, 270720, Note_on_c, 0, 60, 81
2, 270908, Note_on_c, 0, 60, 0
2, 270912, Note_on_c, 0, 63, 78
2, 271100, Note_on_c, 0, 63, 0
2, 271100, Note_on_c, 0, 79, 0
2, 271104, Note_on_c, 0, 72, 77
2, 271296, Note_on_c, 0, 60, 85
2, 271484, Note_on_c, 0, 60, 0
2, 271484, Note_on_c, 0, 72, 0
2, 271488, Note_on_c, 0, 63, 71
2, 271488, Note_on_c, 0, 72, 74
2, 271676, Note_on_c, 0, 72, 0
2, 271676, Note_on_c, 0, 63, 0
2, 271680, Note_on_c, 0, 66, 80
2, 271680, Note_on_c, 0, 74, 88
2, 271868, Note_on_c, 0, 74, 0
2, 271868, Note_on_c, 0, 66, 0
2, 271872, Note_on_c, 0, 75, 86
2, 271964, Note_on_c, 0, 75, 0
2, 272064, Note_on_c, 0, 60, 86
2, 272252, Note_on_c, 0, 60, 0
2, 272256, Note_on_c, 0, 63, 73
2, 272256, Note_on_c, 0, 75, 80
2, 272444, Note_on_c, 0, 75, 0
2, 272444, Note_on_c, 0, 63, 0
2, 272448, Note_on_c, 0, 67, 59
2, 272448, Note_on_c, 0, 77, 96
2, 272636, Note_on_c, 0, 77, 0
2, 272636, Note_on_c, 0, 67, 0
2, 272640, Note_on_c, 0, 74, 89
2, 272732, Note_on_c, 0, 74, 0
2, 272832, Note_on_c, 0, 59, 77
2, 273020, Note_on_c, 0, 59, 0
2, 273024, Note_on_c, 0, 62, 96
2, 273024, Note_on_c, 0, 74, 78
2, 273212, Note_on_c, 0, 74, 0
2, 273212, Note_on_c, 0, 62, 0
2, 273216, Note_on_c, 0, 67, 97
2, 273216, Note_on_c, 0, 75, 86
2, 273404, Note_on_c, 0, 75, 0
2, 273404, Note_on_c, 0, 67, 0
2, 273408, Note_on_c, 0, 60, 79
2, 273408, Note_on_c, 0, 72, 63
2, 273596, Note_on_c, 0, 72, 0
2, 273600, Note_on_c, 0, 71, 79
2, 273788, Note_on_c, 0, 71, 0
2, 273788, Note_on_c, 0, 60, 0
2, 273792, Note_on_c, 0, 72, 72
2, 273980, Note_on_c, 0, 72, 0
2, 273984, Note_on_c, 0, 74, 78
2, 274172, Note_on_c, 0, 74, 0
2, 274176, Note_on_c, 0, 75, 76
2, 274364, Note_on_c, 0, 75, 0
2, 274368, Note_on_c, 0, 76, 86
2, 274556, Note_on_c, 0, 76, 0
2, 274560, Note_on_c, 0, 77, 86
2, 274748, Note_on_c, 0, 77, 0
2, 274752, Note_on_c, 0, 79, 78
2, 274940, Note_on_c, 0, 79, 0
2, 274944, Note_on_c, 0, 41, 81
2, 274944, Note_on_c, 0, 80, 78
2, 275132, Note_on_c, 0, 80, 0
2, 275132, Note_on_c, 0, 41, 0
2, 275712, Note_on_c, 0, 41, 70
2, 275712, Note_on_c, 0, 79, 84
2, 275900, Note_on_c, 0, 79, 0
2, 275900, Note_on_c, 0, 41, 0
2, 276096, Note_on_c, 0, 75, 84
2, 276096, Note_on_c, 0, 47, 72
2, 276284, Note_on_c, 0, 47, 0
2, 276284, Note_on_c, 0, 75, 0
2, 276672, Note_on_c, 0, 78, 92
2, 276672, Note_on_c, 0, 43, 79
2, 276860, Note_on_c, 0, 43, 0
2, 276860, Note_on_c, 0, 78, 0
2, 276864, Note_on_c, 0, 80, 90
2, 276864, Note_on_c, 0, 48, 84
2, 277052, Note_on_c, 0, 48, 0
2, 277052, Note_on_c, 0, 80, 0
2, 277824, Note_on_c, 0, 54, 92
2, 277824, Note_on_c, 0, 72, 91
2, 278012, Note_on_c, 0, 72, 0
2, 278012, Note_on_c, 0, 54, 0
2, 278016, Note_on_c, 0, 43, 85
2, 278016, Note_on_c, 0, 75, 93
2, 278204, Note_on_c, 0, 75, 0
2, 278204, Note_on_c, 0, 43, 0
2, 278400, Note_on_c, 0, 51, 83
2, 278400, Note_on_c, 0, 77, 94
2, 278588, Note_on_c, 0, 77, 0
2, 278588, Note_on_c, 0, 51, 0
2, 279168, Note_on_c, 0, 75, 98
2, 279168, Note_on_c, 0, 43, 91
2, 279356, Note_on_c, 0, 43, 0
2, 279356, Note_on_c, 0, 75, 0
2, 279552, Note_on_c, 0, 72, 84
2, 279744, Note_on_c, 0, 60, 53
2, 279932, Note_on_c, 0, 60, 0
2, 279932, Note_on_c, 0, 72, 0
2, 279936, Note_on_c, 0, 59, 73
2, 280124, Note_on_c, 0, 59, 0
2, 280128, Note_on_c, 0, 60, 63
2, 280316, Note_on_c, 0, 60, 0
2, 280320, Note_on_c, 0, 58, 71
2, 280448, Note_on_c, 0, 84, 94
2, 280508, Note_on_c, 0, 58, 0
2, 280512, Note_on_c, 0, 60, 39
2, 280572, Note_on_c, 0, 84, 0
2, 280576, Note_on_c, 0, 86, 93
2, 280700, Note_on_c, 0, 86, 0
2, 280700, Note_on_c, 0, 60, 0
2, 280704, Note_on_c, 0, 88, 98
2, 280828, Note_on_c, 0, 88, 0
2, 280832, Note_on_c, 0, 86, 104
2, 280896, Note_on_c, 0, 60, 64
2, 280956, Note_on_c, 0, 86, 0
2, 280960, Note_on_c, 0, 84, 101
2, 281084, Note_on_c, 0, 84, 0
2, 281084, Note_on_c, 0, 60, 0
2, 281088, Note_on_c, 0, 89, 127
2, 281212, Note_on_c, 0, 89, 0
2, 281280, Note_on_c, 0, 60, 68
2, 281468, Note_on_c, 0, 60, 0
2, 281664, Note_on_c, 0, 60, 68
2, 281852, Note_on_c, 0, 60, 0
2, 281856, Note_on_c, 0, 58, 72
2, 281984, Note_on_c, 0, 84, 102
2, 282044, Note_on_c, 0, 58, 0
2, 282048, Note_on_c, 0, 60, 58
2, 282108, Note_on_c, 0, 84, 0
2, 282112, Note_on_c, 0, 86, 98
2, 282236, Note_on_c, 0, 86, 0
2, 282236, Note_on_c, 0, 60, 0
2, 282240, Note_on_c, 0, 88, 97
2, 282364, Note_on_c, 0, 88, 0
2, 282368, Note_on_c, 0, 86, 97
2, 282432, Note_on_c, 0, 60, 49
2, 282492, Note_on_c, 0, 86, 0
2, 282496, Note_on_c, 0, 84, 87
2, 282620, Note_on_c, 0, 84, 0
2, 282620, Note_on_c, 0, 60, 0
2, 282624, Note_on_c, 0, 89, 127
2, 282748, Note_on_c, 0, 89, 0
2, 282816, Note_on_c, 0, 60, 81
2, 283004, Note_on_c, 0, 60, 0
2, 283200, Note_on_c, 0, 60, 88
2, 283388, Note_on_c, 0, 60, 0
2, 283392, Note_on_c, 0, 58, 94
2, 283520, Note_on_c, 0, 84, 93
2, 283580, Note_on_c, 0, 58, 0
2, 283584, Note_on_c, 0, 60, 94
2, 283644, Note_on_c, 0, 84, 0
2, 283648, Note_on_c, 0, 86, 102
2, 283772, Note_on_c, 0, 86, 0
2, 283772, Note_on_c, 0, 60, 0
2, 283776, Note_on_c, 0, 88, 104
2, 283900, Note_on_c, 0, 88, 0
2, 283904, Note_on_c, 0, 86, 102
2, 283968, Note_on_c, 0, 60, 91
2, 284028, Note_on_c, 0, 86, 0
2, 284032, Note_on_c, 0, 84, 107
2, 284156, Note_on_c, 0, 84, 0
2, 284156, Note_on_c, 0, 60, 0
2, 284160, Note_on_c, 0, 89, 127
2, 284284, Note_on_c, 0, 89, 0
2, 284544, Note_on_c, 0, 56, 123
2, 284544, Note_on_c, 0, 44, 105
2, 284544, Note_on_c, 0, 78, 121
2, 284544, Note_on_c, 0, 75, 120
2, 284544, Note_on_c, 0, 84, 124
2, 284544, Note_on_c, 0, 48, 114
2, 284544, Note_on_c, 0, 72, 122
2, 284544, Note_on_c, 0, 51, 108
2, 284636, Note_on_c, 0, 51, 0
2, 284636, Note_on_c, 0, 56, 0
2, 284636, Note_on_c, 0, 84, 0
2, 284636, Note_on_c, 0, 44, 0
2, 284636, Note_on_c, 0, 78, 0
2, 284636, Note_on_c, 0, 75, 0
2, 284636, Note_on_c, 0, 48, 0
2, 284636, Note_on_c, 0, 72, 0
2, 285696, Note_on_c, 0, 72, 124
2, 285696, Note_on_c, 0, 75, 118
2, 285696, Note_on_c, 0, 79, 118
2, 285696, Note_on_c, 0, 84, 118
2, 286076, Note_on_c, 0, 84, 0
2, 286076, Note_on_c, 0, 72, 0
2, 286076, Note_on_c, 0, 75, 0
2, 286076, Note_on_c, 0, 79, 0
2, 286592, Note_on_c, 0, 72, 87
2, 286716, Note_on_c, 0, 72, 0
2, 286720, Note_on_c, 0, 74, 90
2, 286844, Note_on_c, 0, 74, 0
2, 286848, Note_on_c, 0, 76, 96
2, 286972, Note_on_c, 0, 76, 0
2, 286976, Note_on_c, 0, 74, 98
2, 287100, Note_on_c, 0, 74, 0
2, 287104, Note_on_c, 0, 72, 96
2, 287228, Note_on_c, 0, 72, 0
2, 287232, Note_on_c, 0, 77, 127
2, 287356, Note_on_c, 0, 77, 0
2, 288128, Note_on_c, 0, 72, 101
2, 288252, Note_on_c, 0, 72, 0
2, 288256, Note_on_c, 0, 74, 103
2, 288380, Note_on_c, 0, 74, 0
2, 288384, Note_on_c, 0, 76, 114
2, 288508, Note_on_c, 0, 76, 0
2, 288512, Note_on_c, 0, 74, 108
2, 288636, Note_on_c, 0, 74, 0
2, 288640, Note_on_c, 0, 72, 101
2, 288764, Note_on_c, 0, 72, 0
2, 288768, Note_on_c, 0, 77, 127
2, 288892, Note_on_c, 0, 77, 0
2, 289664, Note_on_c, 0, 60, 102
2, 289788, Note_on_c, 0, 60, 0
2, 289792, Note_on_c, 0, 62, 91
2, 289916, Note_on_c, 0, 62, 0
2, 289920, Note_on_c, 0, 64, 98
2, 290044, Note_on_c, 0, 64, 0
2, 290048, Note_on_c, 0, 62, 91
2, 290172, Note_on_c, 0, 62, 0
2, 290176, Note_on_c, 0, 60, 99
2, 290300, Note_on_c, 0, 60, 0
2, 290304, Note_on_c, 0, 65, 97
2, 290428, Note_on_c, 0, 65, 0
2, 290432, Note_on_c, 0, 60, 85
2, 290556, Note_on_c, 0, 60, 0
2, 290560, Note_on_c, 0, 62, 84
2, 290684, Note_on_c, 0, 62, 0
2, 290688, Note_on_c, 0, 63, 87
2, 290812, Note_on_c, 0, 63, 0
2, 290816, Note_on_c, 0, 62, 83
2, 290940, Note_on_c, 0, 62, 0
2, 290944, Note_on_c, 0, 60, 100
2, 291068, Note_on_c, 0, 60, 0
2, 291072, Note_on_c, 0, 66, 106
2, 291196, Note_on_c, 0, 66, 0
2, 291200, Note_on_c, 0, 60, 77
2, 291324, Note_on_c, 0, 60, 0
2, 291328, Note_on_c, 0, 62, 64
2, 291452, Note_on_c, 0, 62, 0
2, 291456, Note_on_c, 0, 63, 106
2, 291580, Note_on_c, 0, 63, 0
2, 291584, Note_on_c, 0, 62, 67
2, 291708, Note_on_c, 0, 62, 0
2, 291712, Note_on_c, 0, 60, 83
2, 291836, Note_on_c, 0, 60, 0
2, 291840, Note_on_c, 0, 67, 97
2, 291924, Note_on_c, 0, 67, 0
2, 291968, Note_on_c, 0, 60, 85
2, 292092, Note_on_c, 0, 60, 0
2, 292096, Note_on_c, 0, 62, 85
2, 292220, Note_on_c, 0, 62, 0
2, 292224, Note_on_c, 0, 63, 79
2, 292348, Note_on_c, 0, 63, 0
2, 292352, Note_on_c, 0, 62, 78
2, 292476, Note_on_c, 0, 62, 0
2, 292480, Note_on_c, 0, 60, 84
2, 292604, Note_on_c, 0, 60, 0
2, 292608, Note_on_c, 0, 69, 92
2, 292692, Note_on_c, 0, 69, 0
2, 292736, Note_on_c, 0, 60, 86
2, 292860, Note_on_c, 0, 60, 0
2, 292864, Note_on_c, 0, 62, 83
2, 292988, Note_on_c, 0, 62, 0
2, 292992, Note_on_c, 0, 63, 84
2, 293116, Note_on_c, 0, 63, 0
2, 293120, Note_on_c, 0, 62, 84
2, 293244, Note_on_c, 0, 62, 0
2, 293248, Note_on_c, 0, 60, 84
2, 293372, Note_on_c, 0, 60, 0
2, 293376, Note_on_c, 0, 71, 87
2, 293460, Note_on_c, 0, 71, 0
2, 293504, Note_on_c, 0, 59, 78
2, 293628, Note_on_c, 0, 59, 0
2, 293632, Note_on_c, 0, 60, 81
2, 293756, Note_on_c, 0, 60, 0
2, 293760, Note_on_c, 0, 62, 87
2, 293884, Note_on_c, 0, 62, 0
2, 293888, Note_on_c, 0, 60, 87
2, 294012, Note_on_c, 0, 60, 0
2, 294016, Note_on_c, 0, 59, 85
2, 294140, Note_on_c, 0, 59, 0
2, 294144, Note_on_c, 0, 72, 90
2, 294228, Note_on_c, 0, 72, 0
2, 294272, Note_on_c, 0, 60, 78
2, 294396, Note_on_c, 0, 60, 0
2, 294400, Note_on_c, 0, 62, 84
2, 294524, Note_on_c, 0, 62, 0
2, 294528, Note_on_c, 0, 63, 92
2, 294652, Note_on_c, 0, 63, 0
2, 294656, Note_on_c, 0, 62, 90
2, 294780, Note_on_c, 0, 62, 0
2, 294784, Note_on_c, 0, 60, 101
2, 294908, Note_on_c, 0, 60, 0
2, 294912, Note_on_c, 0, 74, 96
2, 294996, Note_on_c, 0, 74, 0
2, 295040, Note_on_c, 0, 62, 98
2, 295164, Note_on_c, 0, 62, 0
2, 295168, Note_on_c, 0, 63, 100
2, 295292, Note_on_c, 0, 63, 0
2, 295296, Note_on_c, 0, 65, 104
2, 295420, Note_on_c, 0, 65, 0
2, 295424, Note_on_c, 0, 63, 107
2, 295548, Note_on_c, 0, 63, 0
2, 295552, Note_on_c, 0, 62, 111
2, 295676, Note_on_c, 0, 62, 0
2, 295680, Note_on_c, 0, 71, 118
2, 295764, Note_on_c, 0, 71, 0
2, 295808, Note_on_c, 0, 59, 107
2, 295932, Note_on_c, 0, 59, 0
2, 295936, Note_on_c, 0, 60, 120
2, 296060, Note_on_c, 0, 60, 0
2, 296064, Note_on_c, 0, 62, 118
2, 296188, Note_on_c, 0, 62, 0
2, 296192, Note_on_c, 0, 60, 124
2, 296316, Note_on_c, 0, 60, 0
2, 296320, Note_on_c, 0, 59, 115
2, 296444, Note_on_c, 0, 59, 0
2, 296448, Note_on_c, 0, 60, 122
2, 296448, Note_on_c, 0, 72, 112
2, 296448, Note_on_c, 0, 36, 111
2, 296448, Note_on_c, 0, 48, 114
2, 296636, Note_on_c, 0, 48, 0
2, 296636, Note_on_c, 0, 60, 0
2, 296636, Note_on_c, 0, 72, 0
2, 296636, Note_on_c, 0, 36, 0
2, 297216, Note_on_c, 0, 79, 117
2, 297596, Note_on_c, 0, 79, 0
2, 297600, Note_on_c, 0, 77, 100
2, 297692, Note_on_c, 0, 77, 0
2, 297696, Note_on_c, 0, 75, 92
2, 297788, Note_on_c, 0, 75, 0
2, 297792, Note_on_c, 0, 74, 103
2, 297884, Note_on_c, 0, 74, 0
2, 297888, Note_on_c, 0, 72, 98
2, 297980, Note_on_c, 0, 72, 0
2, 297984, Note_on_c, 0, 74, 127
2, 297984, Note_on_c, 0, 62, 108
2, 297984, Note_on_c, 0, 60, 112
2, 297984, Note_on_c, 0, 53, 107
2, 297984, Note_on_c, 0, 56, 99
2, 298172, Note_on_c, 0, 56, 0
2, 298172, Note_on_c, 0, 60, 0
2, 298172, Note_on_c, 0, 74, 0
2, 298172, Note_on_c, 0, 62, 0
2, 298172, Note_on_c, 0, 53, 0
2, 298368, Note_on_c, 0, 62, 124
2, 298368, Note_on_c, 0, 59, 118
2, 298368, Note_on_c, 0, 55, 115
2, 298752, Note_on_c, 0, 77, 127
2, 299132, Note_on_c, 0, 77, 0
2, 299136, Note_on_c, 0, 75, 103
2, 299228, Note_on_c, 0, 75, 0
2, 299232, Note_on_c, 0, 74, 105
2, 299324, Note_on_c, 0, 74, 0
2, 299328, Note_on_c, 0, 72, 97
2, 299420, Note_on_c, 0, 72, 0
2, 299424, Note_on_c, 0, 71, 105
2, 299516, Note_on_c, 0, 71, 0
2, 299516, Note_on_c, 0, 62, 0
2, 299516, Note_on_c, 0, 59, 0
2, 299516, Note_on_c, 0, 55, 0
2, 299520, Note_on_c, 0, 51, 108
2, 299520, Note_on_c, 0, 72, 127
2, 299520, Note_on_c, 0, 60, 114
2, 299520, Note_on_c, 0, 55, 114
2, 299708, Note_on_c, 0, 55, 0
2, 299708, Note_on_c, 0, 51, 0
2, 299708, Note_on_c, 0, 72, 0
2, 299708, Note_on_c, 0, 60, 0
2, 300288, Note_on_c, 0, 79, 127
2, 300668, Note_on_c, 0, 79, 0
2, 300672, Note_on_c, 0, 77, 97
2, 300764, Note_on_c, 0, 77, 0
2, 300768, Note_on_c, 0, 75, 106
2, 300860, Note_on_c, 0, 75, 0
2, 300864, Note_on_c, 0, 74, 107
2, 300956, Note_on_c, 0, 74, 0
2, 300960, Note_on_c, 0, 72, 100
2, 301052, Note_on_c, 0, 72, 0
2, 301056, Note_on_c, 0, 53, 105
2, 301056, Note_on_c, 0, 62, 109
2, 301056, Note_on_c, 0, 60, 108
2, 301056, Note_on_c, 0, 74, 127
2, 301056, Note_on_c, 0, 56, 96
2, 301244, Note_on_c, 0, 56, 0
2, 301244, Note_on_c, 0, 60, 0
2, 301244, Note_on_c, 0, 53, 0
2, 301244, Note_on_c, 0, 62, 0
2, 301244, Note_on_c, 0, 74, 0
2, 301440, Note_on_c, 0, 62, 124
2, 301440, Note_on_c, 0, 55, 120
2, 301440, Note_on_c, 0, 59, 107
2, 301824, Note_on_c, 0, 77, 124
2, 302204, Note_on_c, 0, 77, 0
2, 302208, Note_on_c, 0, 75, 102
2, 302300, Note_on_c, 0, 75, 0
2, 302304, Note_on_c, 0, 74, 102
2, 302396, Note_on_c, 0, 74, 0
2, 302400, Note_on_c, 0, 72, 99
2, 302492, Note_on_c, 0, 72, 0
2, 302496, Note_on_c, 0, 71, 104
2, 302588, Note_on_c, 0, 71, 0
2, 302588, Note_on_c, 0, 62, 0
2, 302588, Note_on_c, 0, 55, 0
2, 302588, Note_on_c, 0, 59, 0
2, 302592, Note_on_c, 0, 51, 100
2, 302592, Note_on_c, 0, 55, 104
2, 302592, Note_on_c, 0, 60, 105
2, 302592, Note_on_c, 0, 72, 127
2, 302780, Note_on_c, 0, 72, 0
2, 302780, Note_on_c, 0, 51, 0
2, 302780, Note_on_c, 0, 55, 0
2, 302780, Note_on_c, 0, 60, 0
2, 302976, Note_on_c, 0, 51, 118
2, 302976, Note_on_c, 0, 55, 117
2, 302976, Note_on_c, 0, 60, 125
2, 303360, Note_on_c, 0, 79, 127
2, 303740, Note_on_c, 0, 79, 0
2, 303744, Note_on_c, 0, 77, 112
2, 303836, Note_on_c, 0, 77, 0
2, 303840, Note_on_c, 0, 75, 104
2, 303932, Note_on_c, 0, 75, 0
2, 303936, Note_on_c, 0, 74, 102
2, 304028, Note_on_c, 0, 74, 0
2, 304032, Note_on_c, 0, 72, 107
2, 304124, Note_on_c, 0, 72, 0
2, 304124, Note_on_c, 0, 51, 0
2, 304124, Note_on_c, 0, 55, 0
2, 304124, Note_on_c, 0, 60, 0
2, 304128, Note_on_c, 0, 61, 100
2, 304128, Note_on_c, 0, 56, 101
2, 304128, Note_on_c, 0, 53, 101
2, 304128, Note_on_c, 0, 73, 127
2, 304316, Note_on_c, 0, 73, 0
2, 304316, Note_on_c, 0, 61, 0
2, 304316, Note_on_c, 0, 56, 0
2, 304316, Note_on_c, 0, 53, 0
2, 304896, Note_on_c, 0, 89, 127
2, 305664, Note_on_c, 0, 63, 120
2, 305664, Note_on_c, 0, 61, 123
2, 305664, Note_on_c, 0, 58, 117
2, 305664, Note_on_c, 0, 55, 111
2, 306428, Note_on_c, 0, 89, 0
2, 306624, Note_on_c, 0, 87, 114
2, 306752, Note_on_c, 0, 87, 0
2, 306816, Note_on_c, 0, 85, 112
2, 306944, Note_on_c, 0, 85, 0
2, 307008, Note_on_c, 0, 84, 120
2, 307136, Note_on_c, 0, 84, 0
2, 307200, Note_on_c, 0, 82, 110
2, 307284, Note_on_c, 0, 82, 0
2, 307328, Note_on_c, 0, 80, 108
2, 307412, Note_on_c, 0, 80, 0
2, 307456, Note_on_c, 0, 79, 112
2, 307540, Note_on_c, 0, 79, 0
2, 307584, Note_on_c, 0, 77, 114
2, 307668, Note_on_c, 0, 77, 0
2, 307712, Note_on_c, 0, 75, 111
2, 307796, Note_on_c, 0, 75, 0
2, 307840, Note_on_c, 0, 73, 118
2, 307924, Note_on_c, 0, 73, 0
2, 307964, Note_on_c, 0, 55, 0
2, 307964, Note_on_c, 0, 63, 0
2, 307964, Note_on_c, 0, 61, 0
2, 307964, Note_on_c, 0, 58, 0
2, 307968, Note_on_c, 0, 72, 104
2, 308008, Note_on_c, 0, 72, 0
2, 308032, Note_on_c, 0, 70, 104
2, 308072, Note_on_c, 0, 70, 0
2, 308096, Note_on_c, 0, 68, 107
2, 308136, Note_on_c, 0, 68, 0
2, 308160, Note_on_c, 0, 67, 117
2, 308200, Note_on_c, 0, 67, 0
2, 308224, Note_on_c, 0, 65, 114
2, 308264, Note_on_c, 0, 65, 0
2, 308288, Note_on_c, 0, 63, 118
2, 308328, Note_on_c, 0, 63, 0
2, 308352, Note_on_c, 0, 61, 110
2, 308384, Note_on_c, 0, 61, 0
2, 308404, Note_on_c, 0, 60, 117
2, 308436, Note_on_c, 0, 60, 0
2, 308456, Note_on_c, 0, 58, 104
2, 308492, Note_on_c, 0, 58, 0
2, 311616, Note_on_c, 0, 58, 80
2, 311804, Note_on_c, 0, 58, 0
2, 311808, Note_on_c, 0, 60, 73
2, 312380, Note_on_c, 0, 60, 0
2, 312384, Note_on_c, 0, 61, 86
2, 312572, Note_on_c, 0, 61, 0
2, 312576, Note_on_c, 0, 58, 84
2, 313148, Note_on_c, 0, 58, 0
2, 313152, Note_on_c, 0, 60, 88
2, 313340, Note_on_c, 0, 60, 0
2, 314496, Note_on_c, 0, 68, 64
2, 314684, Note_on_c, 0, 68, 0
2, 314688, Note_on_c, 0, 70, 74
2, 314876, Note_on_c, 0, 70, 0
2, 314880, Note_on_c, 0, 72, 77
2, 314880, Note_on_c, 0, 63, 75
2, 315452, Note_on_c, 0, 72, 0
2, 315456, Note_on_c, 0, 73, 70
2, 315644, Note_on_c, 0, 73, 0
2, 315644, Note_on_c, 0, 63, 0
2, 315648, Note_on_c, 0, 70, 68
2, 315648, Note_on_c, 0, 61, 70
2, 316220, Note_on_c, 0, 70, 0
2, 316224, Note_on_c, 0, 72, 74
2, 316412, Note_on_c, 0, 72, 0
2, 316412, Note_on_c, 0, 61, 0
2, 316416, Note_on_c, 0, 68, 75
2, 316416, Note_on_c, 0, 60, 77
2, 316796, Note_on_c, 0, 60, 0
2, 316796, Note_on_c, 0, 68, 0
2, 317568, Note_on_c, 0, 72, 61
2, 317948, Note_on_c, 0, 72, 0
2, 317952, Note_on_c, 0, 78, 62
2, 317952, Note_on_c, 0, 75, 63
2, 317952, Note_on_c, 0, 68, 53
2, 318076, Note_on_c, 0, 68, 0
2, 318076, Note_on_c, 0, 75, 0
2, 318076, Note_on_c, 0, 78, 0
2, 319104, Note_on_c, 0, 72, 56
2, 319484, Note_on_c, 0, 72, 0
2, 319488, Note_on_c, 0, 67, 63
2, 319488, Note_on_c, 0, 75, 55
2, 319488, Note_on_c, 0, 79, 77
2, 319612, Note_on_c, 0, 79, 0
2, 319612, Note_on_c, 0, 75, 0
2, 319612, Note_on_c, 0, 67, 0
2, 320640, Note_on_c, 0, 87, 94
2, 320768, Note_on_c, 0, 87, 0
2, 320768, Note_on_c, 0, 86, 94
2, 320896, Note_on_c, 0, 86, 0
2, 320896, Note_on_c, 0, 84, 100
2, 321024, Note_on_c, 0, 84, 0
2, 321024, Note_on_c, 0, 89, 122
2, 321152, Note_on_c, 0, 89, 0
2, 321152, Note_on_c, 0, 87, 115
2, 321280, Note_on_c, 0, 87, 0
2, 321280, Note_on_c, 0, 86, 125
2, 321408, Note_on_c, 0, 86, 0
2, 321408, Note_on_c, 0, 84, 124
2, 321536, Note_on_c, 0, 84, 0
2, 321536, Note_on_c, 0, 83, 122
2, 321664, Note_on_c, 0, 83, 0
2, 321664, Note_on_c, 0, 80, 118
2, 321792, Note_on_c, 0, 80, 0
2, 321792, Note_on_c, 0, 79, 120
2, 321920, Note_on_c, 0, 79, 0
2, 321920, Note_on_c, 0, 77, 105
2, 322048, Note_on_c, 0, 77, 0
2, 322048, Note_on_c, 0, 75, 108
2, 322176, Note_on_c, 0, 75, 0
2, 322176, Note_on_c, 0, 74, 115
2, 322304, Note_on_c, 0, 74, 0
2, 322304, Note_on_c, 0, 72, 107
2, 322432, Note_on_c, 0, 72, 0
2, 322432, Note_on_c, 0, 71, 112
2, 322560, Note_on_c, 0, 71, 0
2, 322560, End_track
3, 0, Start_track
3, 0, Title_t, "Opus 13 ""Pathetique"""
3, 0, Control_c, 0, 0, 0
3, 0, Control_c, 0, 7, 110
3, 0, Control_c, 0, 10, 48
3, 0, Control_c, 0, 32, 0
3, 1, Program_c, 0, 0
3, 1536, Note_on_c, 0, 48, 75
3, 1724, Note_on_c, 0, 48, 0
3, 1728, Note_on_c, 0, 51, 69
3, 1916, Note_on_c, 0, 51, 0
3, 1920, Note_on_c, 0, 55, 74
3, 2108, Note_on_c, 0, 55, 0
3, 2304, Note_on_c, 0, 48, 70
3, 2492, Note_on_c, 0, 48, 0
3, 2496, Note_on_c, 0, 53, 74
3, 2684, Note_on_c, 0, 53, 0
3, 2688, Note_on_c, 0, 55, 75
3, 2876, Note_on_c, 0, 55, 0
3, 3072, Note_on_c, 0, 48, 75
3, 3260, Note_on_c, 0, 48, 0
3, 3264, Note_on_c, 0, 51, 68
3, 3452, Note_on_c, 0, 51, 0
3, 3456, Note_on_c, 0, 55, 76
3, 3644, Note_on_c, 0, 55, 0
3, 6144, Note_on_c, 0, 55, 88
3, 6332, Note_on_c, 0, 55, 0
3, 6912, Note_on_c, 0, 55, 80
3, 7100, Note_on_c, 0, 55, 0
3, 7680, Note_on_c, 0, 53, 79
3, 7868, Note_on_c, 0, 53, 0
3, 7872, Note_on_c, 0, 56, 70
3, 8060, Note_on_c, 0, 56, 0
3, 8448, Note_on_c, 0, 53, 85
3, 8636, Note_on_c, 0, 53, 0
3, 8640, Note_on_c, 0, 56, 72
3, 8828, Note_on_c, 0, 56, 0
3, 9216, Note_on_c, 0, 51, 74
3, 9404, Note_on_c, 0, 51, 0
3, 9408, Note_on_c, 0, 55, 80
3, 9596, Note_on_c, 0, 55, 0
3, 9984, Note_on_c, 0, 56, 75
3, 10172, Note_on_c, 0, 56, 0
3, 10752, Note_on_c, 0, 55, 78
3, 10940, Note_on_c, 0, 55, 0
3, 11520, Note_on_c, 0, 55, 86
3, 11708, Note_on_c, 0, 55, 0
3, 12476, Note_on_c, 0, 48, 89
3, 12664, Note_on_c, 0, 48, 0
3, 12668, Note_on_c, 0, 51, 82
3, 12856, Note_on_c, 0, 51, 0
3, 12860, Note_on_c, 0, 55, 82
3, 13048, Note_on_c, 0, 55, 0
3, 14016, Note_on_c, 0, 41, 80
3, 14204, Note_on_c, 0, 41, 0
3, 14208, Note_on_c, 0, 47, 78
3, 14396, Note_on_c, 0, 47, 0
3, 14400, Note_on_c, 0, 50, 74
3, 14588, Note_on_c, 0, 50, 0
3, 14592, Note_on_c, 0, 53, 78
3, 14780, Note_on_c, 0, 53, 0
3, 14784, Note_on_c, 0, 56, 82
3, 14972, Note_on_c, 0, 56, 0
3, 14976, Note_on_c, 0, 55, 72
3, 15164, Note_on_c, 0, 55, 0
3, 15168, Note_on_c, 0, 53, 69
3, 15356, Note_on_c, 0, 53, 0
3, 15552, Note_on_c, 0, 39, 75
3, 15740, Note_on_c, 0, 39, 0
3, 15744, Note_on_c, 0, 43, 72
3, 15932, Note_on_c, 0, 43, 0
3, 15936, Note_on_c, 0, 48, 77
3, 16124, Note_on_c, 0, 48, 0
3, 16128, Note_on_c, 0, 51, 82
3, 16316, Note_on_c, 0, 51, 0
3, 16320, Note_on_c, 0, 55, 86
3, 16508, Note_on_c, 0, 55, 0
3, 16512, Note_on_c, 0, 56, 85
3, 16700, Note_on_c, 0, 56, 0
3, 16704, Note_on_c, 0, 54, 90
3, 16892, Note_on_c, 0, 54, 0
3, 16896, Note_on_c, 0, 43, 87
3, 17084, Note_on_c, 0, 43, 0
3, 17088, Note_on_c, 0, 55, 86
3, 17276, Note_on_c, 0, 55, 0
3, 17472, Note_on_c, 0, 55, 89
3, 17660, Note_on_c, 0, 55, 0
3, 17664, Note_on_c, 0, 43, 87
3, 17852, Note_on_c, 0, 43, 0
3, 17856, Note_on_c, 0, 55, 83
3, 18044, Note_on_c, 0, 55, 0
3, 18240, Note_on_c, 0, 55, 89
3, 18428, Note_on_c, 0, 55, 0
3, 18432, Note_on_c, 0, 48, 87
3, 18620, Note_on_c, 0, 48, 0
3, 19200, Note_on_c, 0, 52, 80
3, 19388, Note_on_c, 0, 52, 0
3, 19584, Note_on_c, 0, 55, 87
3, 19772, Note_on_c, 0, 55, 0
3, 19968, Note_on_c, 0, 53, 61
3, 20156, Note_on_c, 0, 53, 0
3, 20352, Note_on_c, 0, 56, 81
3, 20540, Note_on_c, 0, 56, 0
3, 20736, Note_on_c, 0, 55, 83
3, 20924, Note_on_c, 0, 55, 0
3, 21504, Note_on_c, 0, 56, 74
3, 21692, Note_on_c, 0, 56, 0
3, 22272, Note_on_c, 0, 55, 80
3, 22460, Note_on_c, 0, 55, 0
3, 23040, Note_on_c, 0, 53, 76
3, 23228, Note_on_c, 0, 53, 0
3, 23808, Note_on_c, 0, 55, 79
3, 23996, Note_on_c, 0, 55, 0
3, 24192, Note_on_c, 0, 55, 93
3, 24380, Note_on_c, 0, 55, 0
3, 25728, Note_on_c, 0, 55, 100
3, 25728, Note_on_c, 0, 43, 96
3, 25820, Note_on_c, 0, 43, 0
3, 25820, Note_on_c, 0, 55, 0
3, 26112, Note_on_c, 0, 48, 106
3, 26112, Note_on_c, 0, 36, 106
3, 26204, Note_on_c, 0, 36, 0
3, 26204, Note_on_c, 0, 48, 0
3, 27648, Note_on_c, 0, 34, 83
3, 27648, Note_on_c, 0, 46, 83
3, 27648, Note_on_c, 0, 55, 96
3, 27648, Note_on_c, 0, 60, 99
3, 27648, Note_on_c, 0, 64, 92
3, 29180, Note_on_c, 0, 64, 0
3, 29180, Note_on_c, 0, 55, 0
3, 29180, Note_on_c, 0, 34, 0
3, 29180, Note_on_c, 0, 46, 0
3, 29180, Note_on_c, 0, 60, 0
3, 29184, Note_on_c, 0, 32, 83
3, 29184, Note_on_c, 0, 44, 75
3, 29564, Note_on_c, 0, 44, 0
3, 29564, Note_on_c, 0, 32, 0
3, 31104, Note_on_c, 0, 60, 72
3, 31104, Note_on_c, 0, 52, 65
3, 31484, Note_on_c, 0, 52, 0
3, 31484, Note_on_c, 0, 60, 0
3, 33792, Note_on_c, 0, 44, 89
3, 33792, Note_on_c, 0, 58, 99
3, 33792, Note_on_c, 0, 32, 89
3, 33792, Note_on_c, 0, 62, 107
3, 33792, Note_on_c, 0, 53, 103
3, 35324, Note_on_c, 0, 53, 0
3, 35324, Note_on_c, 0, 32, 0
3, 35324, Note_on_c, 0, 44, 0
3, 35324, Note_on_c, 0, 58, 0
3, 35324, Note_on_c, 0, 62, 0
3, 35328, Note_on_c, 0, 43, 72
3, 35328, Note_on_c, 0, 31, 72
3, 35708, Note_on_c, 0, 31, 0
3, 35708, Note_on_c, 0, 43, 0
3, 37632, Note_on_c, 0, 50, 78
3, 37632, Note_on_c, 0, 58, 74
3, 38012, Note_on_c, 0, 58, 0
3, 38012, Note_on_c, 0, 50, 0
3, 38016, Note_on_c, 0, 58, 83
3, 38016, Note_on_c, 0, 50, 67
3, 38396, Note_on_c, 0, 50, 0
3, 38396, Note_on_c, 0, 58, 0
3, 38400, Note_on_c, 0, 51, 74
3, 38588, Note_on_c, 0, 51, 0
3, 39168, Note_on_c, 0, 56, 81
3, 39356, Note_on_c, 0, 56, 0
3, 39936, Note_on_c, 0, 55, 76
3, 40124, Note_on_c, 0, 55, 0
3, 40704, Note_on_c, 0, 50, 80
3, 40892, Note_on_c, 0, 50, 0
3, 41472, Note_on_c, 0, 51, 80
3, 41660, Note_on_c, 0, 51, 0
3, 42240, Note_on_c, 0, 56, 88
3, 42428, Note_on_c, 0, 56, 0
3, 43008, Note_on_c, 0, 55, 82
3, 43196, Note_on_c, 0, 55, 0
3, 43776, Note_on_c, 0, 50, 74
3, 43964, Note_on_c, 0, 50, 0
3, 44160, Note_on_c, 0, 50, 79
3, 44348, Note_on_c, 0, 50, 0
3, 44544, Note_on_c, 0, 51, 78
3, 44732, Note_on_c, 0, 51, 0
3, 44928, Note_on_c, 0, 51, 71
3, 45116, Note_on_c, 0, 51, 0
3, 45312, Note_on_c, 0, 56, 85
3, 45500, Note_on_c, 0, 56, 0
3, 45696, Note_on_c, 0, 56, 73
3, 45884, Note_on_c, 0, 56, 0
3, 46080, Note_on_c, 0, 54, 70
3, 46268, Note_on_c, 0, 54, 0
3, 46464, Note_on_c, 0, 54, 71
3, 46652, Note_on_c, 0, 54, 0
3, 46848, Note_on_c, 0, 50, 79
3, 47036, Note_on_c, 0, 50, 0
3, 47232, Note_on_c, 0, 50, 83
3, 47420, Note_on_c, 0, 50, 0
3, 47616, Note_on_c, 0, 51, 79
3, 47804, Note_on_c, 0, 51, 0
3, 48000, Note_on_c, 0, 54, 79
3, 48188, Note_on_c, 0, 54, 0
3, 48384, Note_on_c, 0, 46, 71
3, 48572, Note_on_c, 0, 46, 0
3, 48768, Note_on_c, 0, 50, 80
3, 48956, Note_on_c, 0, 50, 0
3, 49152, Note_on_c, 0, 47, 78
3, 49340, Note_on_c, 0, 47, 0
3, 49536, Note_on_c, 0, 51, 85
3, 49724, Note_on_c, 0, 51, 0
3, 49920, Note_on_c, 0, 47, 70
3, 50108, Note_on_c, 0, 47, 0
3, 50304, Note_on_c, 0, 51, 85
3, 50492, Note_on_c, 0, 51, 0
3, 50688, Note_on_c, 0, 46, 58
3, 51452, Note_on_c, 0, 46, 0
3, 62976, Note_on_c, 0, 44, 74
3, 63100, Note_on_c, 0, 44, 0
3, 63104, Note_on_c, 0, 48, 75
3, 63228, Note_on_c, 0, 48, 0
3, 63232, Note_on_c, 0, 51, 80
3, 63356, Note_on_c, 0, 51, 0
3, 63360, Note_on_c, 0, 56, 88
3, 63740, Note_on_c, 0, 56, 0
3, 67584, Note_on_c, 0, 65, 62
3, 67584, Note_on_c, 0, 62, 49
3, 67584, Note_on_c, 0, 56, 65
3, 67584, Note_on_c, 0, 58, 39
3, 67964, Note_on_c, 0, 58, 0
3, 67964, Note_on_c, 0, 65, 0
3, 67964, Note_on_c, 0, 62, 0
3, 67964, Note_on_c, 0, 56, 0
3, 82176, Note_on_c, 0, 56, 83
3, 82556, Note_on_c, 0, 56, 0
3, 83072, Note_on_c, 0, 39, 81
3, 83196, Note_on_c, 0, 39, 0
3, 83200, Note_on_c, 0, 41, 84
3, 83324, Note_on_c, 0, 41, 0
3, 83328, Note_on_c, 0, 43, 69
3, 83452, Note_on_c, 0, 43, 0
3, 83456, Note_on_c, 0, 41, 83
3, 83580, Note_on_c, 0, 41, 0
3, 83584, Note_on_c, 0, 39, 87
3, 83708, Note_on_c, 0, 39, 0
3, 83712, Note_on_c, 0, 44, 105
3, 84476, Note_on_c, 0, 44, 0
3, 84480, Note_on_c, 0, 43, 87
3, 84604, Note_on_c, 0, 43, 0
3, 84608, Note_on_c, 0, 39, 81
3, 84732, Note_on_c, 0, 39, 0
3, 84736, Note_on_c, 0, 41, 91
3, 84860, Note_on_c, 0, 41, 0
3, 84864, Note_on_c, 0, 43, 85
3, 84988, Note_on_c, 0, 43, 0
3, 84992, Note_on_c, 0, 41, 85
3, 85116, Note_on_c, 0, 41, 0
3, 85120, Note_on_c, 0, 39, 87
3, 85244, Note_on_c, 0, 39, 0
3, 85248, Note_on_c, 0, 44, 95
3, 86012, Note_on_c, 0, 44, 0
3, 86016, Note_on_c, 0, 43, 85
3, 86140, Note_on_c, 0, 43, 0
3, 86144, Note_on_c, 0, 39, 84
3, 86268, Note_on_c, 0, 39, 0
3, 86272, Note_on_c, 0, 41, 81
3, 86396, Note_on_c, 0, 41, 0
3, 86400, Note_on_c, 0, 43, 80
3, 86524, Note_on_c, 0, 43, 0
3, 86528, Note_on_c, 0, 41, 84
3, 86652, Note_on_c, 0, 41, 0
3, 86656, Note_on_c, 0, 39, 90
3, 86780, Note_on_c, 0, 39, 0
3, 86784, Note_on_c, 0, 44, 102
3, 89084, Note_on_c, 0, 44, 0
3, 89088, Note_on_c, 0, 31, 95
3, 89088, Note_on_c, 0, 43, 124
3, 92156, Note_on_c, 0, 43, 0
3, 92156, Note_on_c, 0, 31, 0
3, 92160, Note_on_c, 0, 59, 126
3, 92160, Note_on_c, 0, 53, 107
3, 92160, Note_on_c, 0, 43, 102
3, 92160, Note_on_c, 0, 50, 113
3, 94460, Note_on_c, 0, 50, 0
3, 94460, Note_on_c, 0, 59, 0
3, 94460, Note_on_c, 0, 53, 0
3, 94460, Note_on_c, 0, 43, 0
3, 95232, Note_on_c, 0, 48, 75
3, 95420, Note_on_c, 0, 48, 0
3, 95424, Note_on_c, 0, 51, 69
3, 95612, Note_on_c, 0, 51, 0
3, 95616, Note_on_c, 0, 55, 74
3, 95804, Note_on_c, 0, 55, 0
3, 96000, Note_on_c, 0, 48, 70
3, 96188, Note_on_c, 0, 48, 0
3, 96192, Note_on_c, 0, 53, 74
3, 96380, Note_on_c, 0, 53, 0
3, 96384, Note_on_c, 0, 55, 75
3, 96572, Note_on_c, 0, 55, 0
3, 96768, Note_on_c, 0, 48, 75
3, 96956, Note_on_c, 0, 48, 0
3, 96960, Note_on_c, 0, 51, 68
3, 97148, Note_on_c, 0, 51, 0
3, 97152, Note_on_c, 0, 55, 76
3, 97340, Note_on_c, 0, 55, 0
3, 99840, Note_on_c, 0, 55, 88
3, 100028, Note_on_c, 0, 55, 0
3, 100608, Note_on_c, 0, 55, 80
3, 100796, Note_on_c, 0, 55, 0
3, 101376, Note_on_c, 0, 53, 79
3, 101564, Note_on_c, 0, 53, 0
3, 101568, Note_on_c, 0, 56, 70
3, 101756, Note_on_c, 0, 56, 0
3, 102144, Note_on_c, 0, 53, 85
3, 102332, Note_on_c, 0, 53, 0
3, 102336, Note_on_c, 0, 56, 72
3, 102524, Note_on_c, 0, 56, 0
3, 102912, Note_on_c, 0, 51, 74
3, 103100, Note_on_c, 0, 51, 0
3, 103104, Note_on_c, 0, 55, 80
3, 103292, Note_on_c, 0, 55, 0
3, 103680, Note_on_c, 0, 56, 75
3, 103868, Note_on_c, 0, 56, 0
3, 104448, Note_on_c, 0, 55, 78
3, 104636, Note_on_c, 0, 55, 0
3, 105216, Note_on_c, 0, 55, 86
3, 105404, Note_on_c, 0, 55, 0
3, 106172, Note_on_c, 0, 48, 89
3, 106360, Note_on_c, 0, 48, 0
3, 106364, Note_on_c, 0, 51, 82
3, 106552, Note_on_c, 0, 51, 0
3, 106556, Note_on_c, 0, 55, 82
3, 106744, Note_on_c, 0, 55, 0
3, 107712, Note_on_c, 0, 41, 80
3, 107900, Note_on_c, 0, 41, 0
3, 107904, Note_on_c, 0, 47, 78
3, 108092, Note_on_c, 0, 47, 0
3, 108096, Note_on_c, 0, 50, 74
3, 108284, Note_on_c, 0, 50, 0
3, 108288, Note_on_c, 0, 53, 78
3, 108476, Note_on_c, 0, 53, 0
3, 108480, Note_on_c, 0, 56, 82
3, 108668, Note_on_c, 0, 56, 0
3, 108672, Note_on_c, 0, 55, 72
3, 108860, Note_on_c, 0, 55, 0
3, 108864, Note_on_c, 0, 53, 69
3, 109052, Note_on_c, 0, 53, 0
3, 109248, Note_on_c, 0, 39, 75
3, 109436, Note_on_c, 0, 39, 0
3, 109440, Note_on_c, 0, 43, 72
3, 109628, Note_on_c, 0, 43, 0
3, 109632, Note_on_c, 0, 48, 77
3, 109820, Note_on_c, 0, 48, 0
3, 109824, Note_on_c, 0, 51, 82
3, 110012, Note_on_c, 0, 51, 0
3, 110016, Note_on_c, 0, 55, 86
3, 110204, Note_on_c, 0, 55, 0
3, 110208, Note_on_c, 0, 56, 85
3, 110396, Note_on_c, 0, 56, 0
3, 110400, Note_on_c, 0, 54, 90
3, 110588, Note_on_c, 0, 54, 0
3, 110592, Note_on_c, 0, 43, 87
3, 110780, Note_on_c, 0, 43, 0
3, 110784, Note_on_c, 0, 55, 86
3, 110972, Note_on_c, 0, 55, 0
3, 111168, Note_on_c, 0, 55, 89
3, 111356, Note_on_c, 0, 55, 0
3, 111360, Note_on_c, 0, 43, 87
3, 111548, Note_on_c, 0, 43, 0
3, 111552, Note_on_c, 0, 55, 83
3, 111740, Note_on_c, 0, 55, 0
3, 111936, Note_on_c, 0, 55, 89
3, 112124, Note_on_c, 0, 55, 0
3, 112128, Note_on_c, 0, 48, 87
3, 112316, Note_on_c, 0, 48, 0
3, 112896, Note_on_c, 0, 52, 80
3, 113084, Note_on_c, 0, 52, 0
3, 113280, Note_on_c, 0, 55, 87
3, 113468, Note_on_c, 0, 55, 0
3, 113664, Note_on_c, 0, 53, 61
3, 113852, Note_on_c, 0, 53, 0
3, 114048, Note_on_c, 0, 56, 81
3, 114236, Note_on_c, 0, 56, 0
3, 114432, Note_on_c, 0, 55, 83
3, 114620, Note_on_c, 0, 55, 0
3, 115200, Note_on_c, 0, 56, 74
3, 115388, Note_on_c, 0, 56, 0
3, 115968, Note_on_c, 0, 55, 80
3, 116156, Note_on_c, 0, 55, 0
3, 116736, Note_on_c, 0, 53, 76
3, 116924, Note_on_c, 0, 53, 0
3, 117504, Note_on_c, 0, 55, 79
3, 117692, Note_on_c, 0, 55, 0
3, 117888, Note_on_c, 0, 55, 93
3, 118076, Note_on_c, 0, 55, 0
3, 119424, Note_on_c, 0, 55, 100
3, 119424, Note_on_c, 0, 43, 96
3, 119516, Note_on_c, 0, 43, 0
3, 119516, Note_on_c, 0, 55, 0
3, 119808, Note_on_c, 0, 48, 106
3, 119808, Note_on_c, 0, 36, 106
3, 119900, Note_on_c, 0, 36, 0
3, 119900, Note_on_c, 0, 48, 0
3, 120768, Note_on_c, 0, 44, 43
3, 120956, Note_on_c, 0, 44, 0
3, 120960, Note_on_c, 0, 48, 66
3, 121148, Note_on_c, 0, 48, 0
3, 121152, Note_on_c, 0, 51, 65
3, 121340, Note_on_c, 0, 51, 0
3, 124416, Note_on_c, 0, 56, 71
3, 124416, Note_on_c, 0, 53, 73
3, 124796, Note_on_c, 0, 53, 0
3, 124800, Note_on_c, 0, 46, 70
3, 125180, Note_on_c, 0, 56, 0
3, 125564, Note_on_c, 0, 46, 0
3, 125952, Note_on_c, 0, 58, 71
3, 125952, Note_on_c, 0, 49, 62
3, 126332, Note_on_c, 0, 49, 0
3, 126332, Note_on_c, 0, 58, 0
3, 126336, Note_on_c, 0, 56, 58
3, 126336, Note_on_c, 0, 50, 54
3, 126716, Note_on_c, 0, 50, 0
3, 126716, Note_on_c, 0, 56, 0
3, 126720, Note_on_c, 0, 51, 74
3, 126720, Note_on_c, 0, 55, 63
3, 127100, Note_on_c, 0, 55, 0
3, 127100, Note_on_c, 0, 51, 0
3, 127104, Note_on_c, 0, 39, 65
3, 127484, Note_on_c, 0, 39, 0
3, 127488, Note_on_c, 0, 44, 79
3, 128252, Note_on_c, 0, 44, 0
3, 128256, Note_on_c, 0, 49, 77
3, 129020, Note_on_c, 0, 49, 0
3, 129024, Note_on_c, 0, 43, 76
3, 129788, Note_on_c, 0, 43, 0
3, 129792, Note_on_c, 0, 48, 84
3, 130556, Note_on_c, 0, 48, 0
3, 130560, Note_on_c, 0, 41, 68
3, 131324, Note_on_c, 0, 41, 0
3, 132096, Note_on_c, 0, 63, 80
3, 132096, Note_on_c, 0, 45, 69
3, 132476, Note_on_c, 0, 45, 0
3, 132476, Note_on_c, 0, 63, 0
3, 134784, Note_on_c, 0, 53, 73
3, 134784, Note_on_c, 0, 49, 71
3, 135548, Note_on_c, 0, 49, 0
3, 135548, Note_on_c, 0, 53, 0
3, 136320, Note_on_c, 0, 51, 73
3, 136320, Note_on_c, 0, 48, 81
3, 137084, Note_on_c, 0, 48, 0
3, 137084, Note_on_c, 0, 51, 0
3, 137088, Note_on_c, 0, 56, 63
3, 137088, Note_on_c, 0, 53, 77
3, 137088, Note_on_c, 0, 60, 70
3, 137468, Note_on_c, 0, 60, 0
3, 137468, Note_on_c, 0, 53, 0
3, 137468, Note_on_c, 0, 56, 0
3, 137472, Note_on_c, 0, 73, 79
3, 137472, Note_on_c, 0, 65, 73
3, 137472, Note_on_c, 0, 46, 63
3, 137852, Note_on_c, 0, 46, 0
3, 137852, Note_on_c, 0, 65, 0
3, 137852, Note_on_c, 0, 73, 0
3, 137856, Note_on_c, 0, 63, 73
3, 137856, Note_on_c, 0, 72, 77
3, 137856, Note_on_c, 0, 48, 72
3, 138236, Note_on_c, 0, 48, 0
3, 138236, Note_on_c, 0, 72, 0
3, 138236, Note_on_c, 0, 63, 0
3, 138240, Note_on_c, 0, 70, 75
3, 138240, Note_on_c, 0, 49, 78
3, 138240, Note_on_c, 0, 61, 73
3, 138620, Note_on_c, 0, 61, 0
3, 138620, Note_on_c, 0, 49, 0
3, 138620, Note_on_c, 0, 70, 0
3, 139776, Note_on_c, 0, 60, 58
3, 139776, Note_on_c, 0, 56, 55
3, 140540, Note_on_c, 0, 56, 0
3, 140540, Note_on_c, 0, 60, 0
3, 142848, Note_on_c, 0, 53, 76
3, 143612, Note_on_c, 0, 53, 0
3, 150144, Note_on_c, 0, 62, 70
3, 150144, Note_on_c, 0, 56, 75
3, 150144, Note_on_c, 0, 46, 72
3, 150524, Note_on_c, 0, 46, 0
3, 150524, Note_on_c, 0, 56, 0
3, 150524, Note_on_c, 0, 62, 0
3, 150528, Note_on_c, 0, 55, 72
3, 150528, Note_on_c, 0, 51, 78
3, 150908, Note_on_c, 0, 51, 0
3, 150908, Note_on_c, 0, 55, 0
3, 154752, Note_on_c, 0, 56, 74
3, 154812, Note_on_c, 0, 56, 0
3, 154944, Note_on_c, 0, 55, 71
3, 155004, Note_on_c, 0, 55, 0
3, 155136, Note_on_c, 0, 53, 78
3, 155196, Note_on_c, 0, 53, 0
3, 155328, Note_on_c, 0, 51, 85
3, 155388, Note_on_c, 0, 51, 0
3, 155520, Note_on_c, 0, 49, 84
3, 155580, Note_on_c, 0, 49, 0
3, 155712, Note_on_c, 0, 48, 90
3, 155772, Note_on_c, 0, 48, 0
3, 155904, Note_on_c, 0, 46, 90
3, 155964, Note_on_c, 0, 46, 0
3, 156096, Note_on_c, 0, 45, 97
3, 156156, Note_on_c, 0, 45, 0
3, 156288, Note_on_c, 0, 46, 93
3, 156348, Note_on_c, 0, 46, 0
3, 156480, Note_on_c, 0, 48, 96
3, 156540, Note_on_c, 0, 48, 0
3, 156672, Note_on_c, 0, 49, 98
3, 156732, Note_on_c, 0, 49, 0
3, 156864, Note_on_c, 0, 48, 98
3, 156924, Note_on_c, 0, 48, 0
3, 157056, Note_on_c, 0, 49, 103
3, 157116, Note_on_c, 0, 49, 0
3, 157248, Note_on_c, 0, 50, 100
3, 157308, Note_on_c, 0, 50, 0
3, 157440, Note_on_c, 0, 51, 103
3, 157500, Note_on_c, 0, 51, 0
3, 157632, Note_on_c, 0, 53, 102
3, 157692, Note_on_c, 0, 53, 0
3, 157824, Note_on_c, 0, 54, 113
3, 157884, Note_on_c, 0, 54, 0
3, 158016, Note_on_c, 0, 55, 127
3, 158076, Note_on_c, 0, 55, 0
3, 158208, Note_on_c, 0, 44, 91
3, 158972, Note_on_c, 0, 44, 0
3, 158976, Note_on_c, 0, 49, 98
3, 159740, Note_on_c, 0, 49, 0
3, 159744, Note_on_c, 0, 43, 93
3, 160508, Note_on_c, 0, 43, 0
3, 160512, Note_on_c, 0, 48, 102
3, 161276, Note_on_c, 0, 48, 0
3, 161280, Note_on_c, 0, 56, 100
3, 161280, Note_on_c, 0, 41, 97
3, 161340, Note_on_c, 0, 56, 0
3, 161472, Note_on_c, 0, 55, 97
3, 161532, Note_on_c, 0, 55, 0
3, 161664, Note_on_c, 0, 53, 96
3, 161724, Note_on_c, 0, 53, 0
3, 161856, Note_on_c, 0, 52, 99
3, 161916, Note_on_c, 0, 52, 0
3, 162044, Note_on_c, 0, 41, 0
3, 162048, Note_on_c, 0, 53, 82
3, 162048, Note_on_c, 0, 29, 84
3, 162048, Note_on_c, 0, 41, 90
3, 162236, Note_on_c, 0, 53, 0
3, 162240, Note_on_c, 0, 55, 92
3, 162428, Note_on_c, 0, 55, 0
3, 162432, Note_on_c, 0, 56, 95
3, 162620, Note_on_c, 0, 56, 0
3, 162624, Note_on_c, 0, 55, 83
3, 162812, Note_on_c, 0, 55, 0
3, 162816, Note_on_c, 0, 53, 84
3, 163004, Note_on_c, 0, 53, 0
3, 163008, Note_on_c, 0, 51, 88
3, 163196, Note_on_c, 0, 51, 0
3, 163200, Note_on_c, 0, 50, 87
3, 163388, Note_on_c, 0, 50, 0
3, 163392, Note_on_c, 0, 48, 78
3, 163580, Note_on_c, 0, 48, 0
3, 163580, Note_on_c, 0, 41, 0
3, 163580, Note_on_c, 0, 29, 0
3, 163584, Note_on_c, 0, 47, 76
3, 163584, Note_on_c, 0, 30, 75
3, 163584, Note_on_c, 0, 42, 77
3, 163772, Note_on_c, 0, 47, 0
3, 163776, Note_on_c, 0, 48, 80
3, 163964, Note_on_c, 0, 48, 0
3, 163968, Note_on_c, 0, 50, 66
3, 164156, Note_on_c, 0, 50, 0
3, 164160, Note_on_c, 0, 48, 62
3, 164348, Note_on_c, 0, 48, 0
3, 164348, Note_on_c, 0, 42, 0
3, 164348, Note_on_c, 0, 30, 0
3, 164352, Note_on_c, 0, 31, 69
3, 164448, Note_on_c, 0, 43, 68
3, 164540, Note_on_c, 0, 43, 0
3, 164544, Note_on_c, 0, 47, 73
3, 164636, Note_on_c, 0, 47, 0
3, 164640, Note_on_c, 0, 50, 79
3, 164732, Note_on_c, 0, 50, 0
3, 164732, Note_on_c, 0, 31, 0
3, 164736, Note_on_c, 0, 55, 87
3, 164928, Note_on_c, 0, 38, 69
3, 164992, Note_on_c, 0, 55, 0
3, 165020, Note_on_c, 0, 38, 0
3, 165024, Note_on_c, 0, 35, 82
3, 165116, Note_on_c, 0, 35, 0
3, 165120, Note_on_c, 0, 31, 80
3, 165216, Note_on_c, 0, 43, 80
3, 165308, Note_on_c, 0, 43, 0
3, 165308, Note_on_c, 0, 31, 0
3, 165312, Note_on_c, 0, 48, 68
3, 165404, Note_on_c, 0, 48, 0
3, 165408, Note_on_c, 0, 51, 81
3, 165500, Note_on_c, 0, 51, 0
3, 165504, Note_on_c, 0, 55, 99
3, 165692, Note_on_c, 0, 55, 0
3, 165696, Note_on_c, 0, 39, 78
3, 165788, Note_on_c, 0, 39, 0
3, 165792, Note_on_c, 0, 36, 80
3, 165884, Note_on_c, 0, 36, 0
3, 165888, Note_on_c, 0, 31, 78
3, 165984, Note_on_c, 0, 43, 76
3, 166076, Note_on_c, 0, 43, 0
3, 166076, Note_on_c, 0, 31, 0
3, 166080, Note_on_c, 0, 50, 84
3, 166172, Note_on_c, 0, 50, 0
3, 166176, Note_on_c, 0, 53, 84
3, 166268, Note_on_c, 0, 53, 0
3, 166272, Note_on_c, 0, 55, 94
3, 166460, Note_on_c, 0, 55, 0
3, 166464, Note_on_c, 0, 41, 79
3, 166556, Note_on_c, 0, 41, 0
3, 166560, Note_on_c, 0, 38, 80
3, 166652, Note_on_c, 0, 38, 0
3, 166656, Note_on_c, 0, 31, 83
3, 166844, Note_on_c, 0, 31, 0
3, 166848, Note_on_c, 0, 43, 80
3, 166940, Note_on_c, 0, 43, 0
3, 166944, Note_on_c, 0, 48, 82
3, 167036, Note_on_c, 0, 48, 0
3, 167040, Note_on_c, 0, 51, 74
3, 167132, Note_on_c, 0, 51, 0
3, 167136, Note_on_c, 0, 55, 80
3, 167232, Note_on_c, 0, 39, 79
3, 167324, Note_on_c, 0, 39, 0
3, 167324, Note_on_c, 0, 55, 0
3, 167328, Note_on_c, 0, 36, 77
3, 167420, Note_on_c, 0, 36, 0
3, 167424, Note_on_c, 0, 31, 87
3, 167520, Note_on_c, 0, 55, 63
3, 167612, Note_on_c, 0, 55, 0
3, 167612, Note_on_c, 0, 31, 0
3, 168000, Note_on_c, 0, 50, 80
3, 168092, Note_on_c, 0, 50, 0
3, 168096, Note_on_c, 0, 47, 90
3, 168188, Note_on_c, 0, 47, 0
3, 168192, Note_on_c, 0, 43, 81
3, 168288, Note_on_c, 0, 55, 78
3, 168380, Note_on_c, 0, 55, 0
3, 168380, Note_on_c, 0, 43, 0
3, 168768, Note_on_c, 0, 51, 83
3, 168860, Note_on_c, 0, 51, 0
3, 168864, Note_on_c, 0, 48, 93
3, 168956, Note_on_c, 0, 48, 0
3, 168960, Note_on_c, 0, 43, 98
3, 169056, Note_on_c, 0, 55, 91
3, 169148, Note_on_c, 0, 55, 0
3, 169148, Note_on_c, 0, 43, 0
3, 169536, Note_on_c, 0, 53, 98
3, 169628, Note_on_c, 0, 53, 0
3, 169632, Note_on_c, 0, 50, 88
3, 169724, Note_on_c, 0, 50, 0
3, 169728, Note_on_c, 0, 43, 96
3, 169824, Note_on_c, 0, 55, 79
3, 169916, Note_on_c, 0, 55, 0
3, 169916, Note_on_c, 0, 43, 0
3, 170304, Note_on_c, 0, 51, 81
3, 170396, Note_on_c, 0, 51, 0
3, 170400, Note_on_c, 0, 48, 89
3, 170492, Note_on_c, 0, 48, 0
3, 170496, Note_on_c, 0, 43, 107
3, 170684, Note_on_c, 0, 43, 0
3, 171264, Note_on_c, 0, 55, 115
3, 171452, Note_on_c, 0, 55, 0
3, 172032, Note_on_c, 0, 55, 124
3, 172220, Note_on_c, 0, 55, 0
3, 172800, Note_on_c, 0, 55, 113
3, 172988, Note_on_c, 0, 55, 0
3, 173568, Note_on_c, 0, 55, 113
3, 173756, Note_on_c, 0, 55, 0
3, 174720, Note_on_c, 0, 67, 127
3, 174720, Note_on_c, 0, 55, 110
3, 174844, Note_on_c, 0, 55, 0
3, 174844, Note_on_c, 0, 67, 0
3, 174848, Note_on_c, 0, 50, 103
3, 174972, Note_on_c, 0, 50, 0
3, 174976, Note_on_c, 0, 47, 96
3, 175100, Note_on_c, 0, 47, 0
3, 175104, Note_on_c, 0, 43, 119
3, 175228, Note_on_c, 0, 43, 0
3, 176256, Note_on_c, 0, 71, 110
3, 176256, Note_on_c, 0, 55, 103
3, 176380, Note_on_c, 0, 55, 0
3, 176380, Note_on_c, 0, 71, 0
3, 176384, Note_on_c, 0, 50, 103
3, 176508, Note_on_c, 0, 50, 0
3, 176512, Note_on_c, 0, 47, 98
3, 176636, Note_on_c, 0, 47, 0
3, 176640, Note_on_c, 0, 43, 109
3, 176764, Note_on_c, 0, 43, 0
3, 177792, Note_on_c, 0, 74, 110
3, 177792, Note_on_c, 0, 43, 107
3, 177916, Note_on_c, 0, 43, 0
3, 177916, Note_on_c, 0, 74, 0
3, 177920, Note_on_c, 0, 38, 96
3, 178044, Note_on_c, 0, 38, 0
3, 178048, Note_on_c, 0, 35, 93
3, 178172, Note_on_c, 0, 35, 0
3, 178176, Note_on_c, 0, 31, 98
3, 178300, Note_on_c, 0, 31, 0
3, 179712, Note_on_c, 0, 31, 122
3, 179712, Note_on_c, 0, 43, 127
3, 182780, Note_on_c, 0, 43, 0
3, 182780, Note_on_c, 0, 31, 0
3, 182784, Note_on_c, 0, 50, 109
3, 182784, Note_on_c, 0, 53, 103
3, 182784, Note_on_c, 0, 43, 100
3, 182784, Note_on_c, 0, 59, 127
3, 185084, Note_on_c, 0, 59, 0
3, 185084, Note_on_c, 0, 50, 0
3, 185084, Note_on_c, 0, 53, 0
3, 185084, Note_on_c, 0, 43, 0
3, 185856, Note_on_c, 0, 48, 75
3, 186044, Note_on_c, 0, 48, 0
3, 186048, Note_on_c, 0, 51, 69
3, 186236, Note_on_c, 0, 51, 0
3, 186240, Note_on_c, 0, 55, 74
3, 186428, Note_on_c, 0, 55, 0
3, 186624, Note_on_c, 0, 48, 70
3, 186812, Note_on_c, 0, 48, 0
3, 186816, Note_on_c, 0, 53, 74
3, 187004, Note_on_c, 0, 53, 0
3, 187008, Note_on_c, 0, 55, 75
3, 187196, Note_on_c, 0, 55, 0
3, 187392, Note_on_c, 0, 48, 75
3, 187580, Note_on_c, 0, 48, 0
3, 187584, Note_on_c, 0, 51, 68
3, 187772, Note_on_c, 0, 51, 0
3, 187776, Note_on_c, 0, 55, 76
3, 187964, Note_on_c, 0, 55, 0
3, 190464, Note_on_c, 0, 55, 88
3, 190652, Note_on_c, 0, 55, 0
3, 191232, Note_on_c, 0, 55, 80
3, 191420, Note_on_c, 0, 55, 0
3, 192000, Note_on_c, 0, 53, 79
3, 192188, Note_on_c, 0, 53, 0
3, 192192, Note_on_c, 0, 56, 70
3, 192380, Note_on_c, 0, 56, 0
3, 192768, Note_on_c, 0, 53, 85
3, 192956, Note_on_c, 0, 53, 0
3, 192960, Note_on_c, 0, 56, 72
3, 193148, Note_on_c, 0, 56, 0
3, 193536, Note_on_c, 0, 51, 74
3, 193724, Note_on_c, 0, 51, 0
3, 193728, Note_on_c, 0, 55, 80
3, 193916, Note_on_c, 0, 55, 0
3, 194304, Note_on_c, 0, 56, 75
3, 194492, Note_on_c, 0, 56, 0
3, 195072, Note_on_c, 0, 55, 78
3, 195260, Note_on_c, 0, 55, 0
3, 195840, Note_on_c, 0, 55, 86
3, 196028, Note_on_c, 0, 55, 0
3, 196800, Note_on_c, 0, 36, 74
3, 196988, Note_on_c, 0, 36, 0
3, 196992, Note_on_c, 0, 39, 66
3, 197180, Note_on_c, 0, 39, 0
3, 197184, Note_on_c, 0, 43, 72
3, 197372, Note_on_c, 0, 43, 0
3, 197376, Note_on_c, 0, 48, 82
3, 197564, Note_on_c, 0, 48, 0
3, 197568, Note_on_c, 0, 51, 79
3, 197756, Note_on_c, 0, 51, 0
3, 197760, Note_on_c, 0, 53, 75
3, 197948, Note_on_c, 0, 53, 0
3, 197952, Note_on_c, 0, 55, 87
3, 198140, Note_on_c, 0, 55, 0
3, 198144, Note_on_c, 0, 56, 85
3, 198908, Note_on_c, 0, 56, 0
3, 198912, Note_on_c, 0, 50, 84
3, 199036, Note_on_c, 0, 50, 0
3, 199296, Note_on_c, 0, 51, 77
3, 199484, Note_on_c, 0, 51, 0
3, 199488, Note_on_c, 0, 53, 73
3, 199676, Note_on_c, 0, 53, 0
3, 199680, Note_on_c, 0, 55, 96
3, 200444, Note_on_c, 0, 55, 0
3, 200448, Note_on_c, 0, 48, 94
3, 200572, Note_on_c, 0, 48, 0
3, 201984, Note_on_c, 0, 55, 104
3, 202108, Note_on_c, 0, 55, 0
3, 202368, Note_on_c, 0, 56, 89
3, 202556, Note_on_c, 0, 56, 0
3, 203520, Note_on_c, 0, 53, 100
3, 203708, Note_on_c, 0, 53, 0
3, 204288, Note_on_c, 0, 56, 74
3, 205052, Note_on_c, 0, 56, 0
3, 205056, Note_on_c, 0, 56, 74
3, 205820, Note_on_c, 0, 56, 0
3, 225792, Note_on_c, 0, 48, 72
3, 226172, Note_on_c, 0, 48, 0
3, 226688, Note_on_c, 0, 55, 57
3, 226812, Note_on_c, 0, 55, 0
3, 227200, Note_on_c, 0, 55, 60
3, 227324, Note_on_c, 0, 55, 0
3, 228224, Note_on_c, 0, 55, 60
3, 228348, Note_on_c, 0, 55, 0
3, 228736, Note_on_c, 0, 55, 66
3, 228860, Note_on_c, 0, 55, 0
3, 231936, Note_on_c, 0, 41, 57
3, 232060, Note_on_c, 0, 41, 0
3, 232064, Note_on_c, 0, 45, 55
3, 232188, Note_on_c, 0, 45, 0
3, 232192, Note_on_c, 0, 48, 68
3, 232316, Note_on_c, 0, 48, 0
3, 232320, Note_on_c, 0, 53, 70
3, 232700, Note_on_c, 0, 53, 0
3, 242304, Note_on_c, 0, 55, 71
3, 242684, Note_on_c, 0, 55, 0
3, 243456, Note_on_c, 0, 62, 85
3, 243456, Note_on_c, 0, 59, 78
3, 243456, Note_on_c, 0, 53, 76
3, 243456, Note_on_c, 0, 55, 77
3, 243836, Note_on_c, 0, 55, 0
3, 243836, Note_on_c, 0, 62, 0
3, 243836, Note_on_c, 0, 59, 0
3, 243836, Note_on_c, 0, 53, 0
3, 245376, Note_on_c, 0, 67, 80
3, 245376, Note_on_c, 0, 51, 62
3, 245756, Note_on_c, 0, 51, 0
3, 245756, Note_on_c, 0, 67, 0
3, 262272, Note_on_c, 0, 43, 64
3, 262652, Note_on_c, 0, 43, 0
3, 262656, Note_on_c, 0, 48, 73
3, 262844, Note_on_c, 0, 48, 0
3, 262848, Note_on_c, 0, 51, 54
3, 263036, Note_on_c, 0, 51, 0
3, 263040, Note_on_c, 0, 55, 67
3, 263228, Note_on_c, 0, 55, 0
3, 263424, Note_on_c, 0, 48, 69
3, 263612, Note_on_c, 0, 48, 0
3, 263616, Note_on_c, 0, 53, 65
3, 263804, Note_on_c, 0, 53, 0
3, 263808, Note_on_c, 0, 55, 75
3, 263996, Note_on_c, 0, 55, 0
3, 264192, Note_on_c, 0, 48, 75
3, 264380, Note_on_c, 0, 48, 0
3, 264384, Note_on_c, 0, 51, 68
3, 264572, Note_on_c, 0, 51, 0
3, 264576, Note_on_c, 0, 55, 76
3, 264764, Note_on_c, 0, 55, 0
3, 267264, Note_on_c, 0, 55, 88
3, 267452, Note_on_c, 0, 55, 0
3, 268032, Note_on_c, 0, 55, 80
3, 268220, Note_on_c, 0, 55, 0
3, 268800, Note_on_c, 0, 53, 79
3, 268988, Note_on_c, 0, 53, 0
3, 268992, Note_on_c, 0, 56, 70
3, 269180, Note_on_c, 0, 56, 0
3, 269568, Note_on_c, 0, 53, 85
3, 269756, Note_on_c, 0, 53, 0
3, 269760, Note_on_c, 0, 56, 72
3, 269948, Note_on_c, 0, 56, 0
3, 270336, Note_on_c, 0, 51, 74
3, 270524, Note_on_c, 0, 51, 0
3, 270528, Note_on_c, 0, 55, 80
3, 270716, Note_on_c, 0, 55, 0
3, 271104, Note_on_c, 0, 56, 75
3, 271292, Note_on_c, 0, 56, 0
3, 271872, Note_on_c, 0, 55, 78
3, 272060, Note_on_c, 0, 55, 0
3, 272640, Note_on_c, 0, 55, 86
3, 272828, Note_on_c, 0, 55, 0
3, 275136, Note_on_c, 0, 44, 64
3, 275136, Note_on_c, 0, 79, 37
3, 275324, Note_on_c, 0, 79, 0
3, 275324, Note_on_c, 0, 44, 0
3, 275328, Note_on_c, 0, 47, 68
3, 275328, Note_on_c, 0, 82, 81
3, 275516, Note_on_c, 0, 82, 0
3, 275516, Note_on_c, 0, 47, 0
3, 275520, Note_on_c, 0, 80, 79
3, 275520, Note_on_c, 0, 50, 66
3, 275708, Note_on_c, 0, 50, 0
3, 275708, Note_on_c, 0, 80, 0
3, 275904, Note_on_c, 0, 44, 56
3, 275904, Note_on_c, 0, 77, 74
3, 276092, Note_on_c, 0, 77, 0
3, 276092, Note_on_c, 0, 44, 0
3, 276288, Note_on_c, 0, 74, 88
3, 276288, Note_on_c, 0, 50, 72
3, 276476, Note_on_c, 0, 50, 0
3, 276476, Note_on_c, 0, 74, 0
3, 276480, Note_on_c, 0, 39, 67
3, 276480, Note_on_c, 0, 79, 80
3, 276668, Note_on_c, 0, 79, 0
3, 276668, Note_on_c, 0, 39, 0
3, 277056, Note_on_c, 0, 79, 85
3, 277056, Note_on_c, 0, 51, 81
3, 277244, Note_on_c, 0, 51, 0
3, 277244, Note_on_c, 0, 79, 0
3, 277248, Note_on_c, 0, 44, 74
3, 277248, Note_on_c, 0, 77, 88
3, 277436, Note_on_c, 0, 77, 0
3, 277436, Note_on_c, 0, 44, 0
3, 277440, Note_on_c, 0, 75, 89
3, 277440, Note_on_c, 0, 48, 84
3, 277628, Note_on_c, 0, 48, 0
3, 277628, Note_on_c, 0, 75, 0
3, 277632, Note_on_c, 0, 74, 92
3, 277632, Note_on_c, 0, 51, 85
3, 277820, Note_on_c, 0, 51, 0
3, 277820, Note_on_c, 0, 74, 0
3, 278208, Note_on_c, 0, 74, 89
3, 278208, Note_on_c, 0, 48, 89
3, 278396, Note_on_c, 0, 48, 0
3, 278396, Note_on_c, 0, 74, 0
3, 278592, Note_on_c, 0, 75, 93
3, 278592, Note_on_c, 0, 55, 82
3, 278780, Note_on_c, 0, 55, 0
3, 278780, Note_on_c, 0, 75, 0
3, 278784, Note_on_c, 0, 74, 92
3, 278784, Note_on_c, 0, 43, 80
3, 278972, Note_on_c, 0, 43, 0
3, 278972, Note_on_c, 0, 74, 0
3, 278976, Note_on_c, 0, 73, 92
3, 278976, Note_on_c, 0, 55, 80
3, 279164, Note_on_c, 0, 55, 0
3, 279164, Note_on_c, 0, 73, 0
3, 279360, Note_on_c, 0, 74, 95
3, 279360, Note_on_c, 0, 55, 88
3, 279548, Note_on_c, 0, 55, 0
3, 279548, Note_on_c, 0, 74, 0
3, 279552, Note_on_c, 0, 72, 72
3, 279552, Note_on_c, 0, 48, 70
3, 279740, Note_on_c, 0, 48, 0
3, 279740, Note_on_c, 0, 72, 0
3, 280704, Note_on_c, 0, 55, 72
3, 280892, Note_on_c, 0, 55, 0
3, 281088, Note_on_c, 0, 56, 91
3, 281276, Note_on_c, 0, 56, 0
3, 281472, Note_on_c, 0, 53, 66
3, 281660, Note_on_c, 0, 53, 0
3, 282240, Note_on_c, 0, 55, 73
3, 282428, Note_on_c, 0, 55, 0
3, 282624, Note_on_c, 0, 56, 103
3, 282812, Note_on_c, 0, 56, 0
3, 283008, Note_on_c, 0, 53, 76
3, 283196, Note_on_c, 0, 53, 0
3, 283776, Note_on_c, 0, 55, 89
3, 283964, Note_on_c, 0, 55, 0
3, 284160, Note_on_c, 0, 56, 97
3, 284540, Note_on_c, 0, 56, 0
3, 284928, Note_on_c, 0, 55, 120
3, 284928, Note_on_c, 0, 72, 124
3, 284928, Note_on_c, 0, 79, 119
3, 284928, Note_on_c, 0, 84, 117
3, 284928, Note_on_c, 0, 43, 106
3, 284928, Note_on_c, 0, 75, 118
3, 284928, Note_on_c, 0, 51, 105
3, 284928, Note_on_c, 0, 48, 112
3, 285020, Note_on_c, 0, 48, 0
3, 285020, Note_on_c, 0, 55, 0
3, 285020, Note_on_c, 0, 43, 0
3, 285020, Note_on_c, 0, 72, 0
3, 285020, Note_on_c, 0, 79, 0
3, 285020, Note_on_c, 0, 84, 0
3, 285020, Note_on_c, 0, 75, 0
3, 285020, Note_on_c, 0, 51, 0
3, 285312, Note_on_c, 0, 83, 110
3, 285312, Note_on_c, 0, 71, 120
3, 285312, Note_on_c, 0, 55, 113
3, 285312, Note_on_c, 0, 74, 122
3, 285312, Note_on_c, 0, 79, 117
3, 285312, Note_on_c, 0, 50, 110
3, 285312, Note_on_c, 0, 47, 102
3, 285312, Note_on_c, 0, 43, 99
3, 285404, Note_on_c, 0, 43, 0
3, 285404, Note_on_c, 0, 83, 0
3, 285404, Note_on_c, 0, 79, 0
3, 285404, Note_on_c, 0, 71, 0
3, 285404, Note_on_c, 0, 55, 0
3, 285404, Note_on_c, 0, 74, 0
3, 285404, Note_on_c, 0, 50, 0
3, 285404, Note_on_c, 0, 47, 0
3, 285696, Note_on_c, 0, 36, 97
3, 285756, Note_on_c, 0, 36, 0
3, 285888, Note_on_c, 0, 48, 79
3, 286016, Note_on_c, 0, 48, 0
3, 286080, Note_on_c, 0, 47, 87
3, 286208, Note_on_c, 0, 47, 0
3, 286272, Note_on_c, 0, 48, 97
3, 286400, Note_on_c, 0, 48, 0
3, 286464, Note_on_c, 0, 46, 106
3, 286592, Note_on_c, 0, 46, 0
3, 286656, Note_on_c, 0, 48, 77
3, 286784, Note_on_c, 0, 48, 0
3, 286848, Note_on_c, 0, 43, 97
3, 286976, Note_on_c, 0, 43, 0
3, 287040, Note_on_c, 0, 48, 92
3, 287168, Note_on_c, 0, 48, 0
3, 287232, Note_on_c, 0, 44, 99
3, 287360, Note_on_c, 0, 44, 0
3, 287424, Note_on_c, 0, 48, 95
3, 287552, Note_on_c, 0, 48, 0
3, 287616, Note_on_c, 0, 41, 94
3, 287744, Note_on_c, 0, 41, 0
3, 287808, Note_on_c, 0, 48, 94
3, 287936, Note_on_c, 0, 48, 0
3, 288000, Note_on_c, 0, 46, 99
3, 288128, Note_on_c, 0, 46, 0
3, 288192, Note_on_c, 0, 48, 92
3, 288320, Note_on_c, 0, 48, 0
3, 288384, Note_on_c, 0, 43, 98
3, 288512, Note_on_c, 0, 43, 0
3, 288576, Note_on_c, 0, 48, 94
3, 288704, Note_on_c, 0, 48, 0
3, 288768, Note_on_c, 0, 44, 98
3, 288896, Note_on_c, 0, 44, 0
3, 288960, Note_on_c, 0, 48, 97
3, 289088, Note_on_c, 0, 48, 0
3, 289152, Note_on_c, 0, 41, 94
3, 289280, Note_on_c, 0, 41, 0
3, 289344, Note_on_c, 0, 48, 98
3, 289472, Note_on_c, 0, 48, 0
3, 289536, Note_on_c, 0, 46, 100
3, 289664, Note_on_c, 0, 46, 0
3, 289728, Note_on_c, 0, 48, 85
3, 289856, Note_on_c, 0, 48, 0
3, 289920, Note_on_c, 0, 43, 94
3, 290048, Note_on_c, 0, 43, 0
3, 290112, Note_on_c, 0, 48, 93
3, 290240, Note_on_c, 0, 48, 0
3, 290304, Note_on_c, 0, 44, 97
3, 290560, Note_on_c, 0, 44, 0
3, 290688, Note_on_c, 0, 56, 84
3, 290688, Note_on_c, 0, 44, 89
3, 290816, Note_on_c, 0, 44, 0
3, 290816, Note_on_c, 0, 56, 0
3, 291456, Note_on_c, 0, 56, 90
3, 291456, Note_on_c, 0, 44, 83
3, 291456, Note_on_c, 0, 51, 90
3, 291456, Note_on_c, 0, 48, 99
3, 291584, Note_on_c, 0, 48, 0
3, 291584, Note_on_c, 0, 56, 0
3, 291584, Note_on_c, 0, 44, 0
3, 291584, Note_on_c, 0, 51, 0
3, 292224, Note_on_c, 0, 55, 104
3, 292224, Note_on_c, 0, 51, 92
3, 292224, Note_on_c, 0, 43, 88
3, 292224, Note_on_c, 0, 48, 94
3, 292412, Note_on_c, 0, 48, 0
3, 292412, Note_on_c, 0, 55, 0
3, 292412, Note_on_c, 0, 51, 0
3, 292412, Note_on_c, 0, 43, 0
3, 292992, Note_on_c, 0, 48, 98
3, 292992, Note_on_c, 0, 51, 94
3, 292992, Note_on_c, 0, 54, 93
3, 292992, Note_on_c, 0, 42, 83
3, 293180, Note_on_c, 0, 42, 0
3, 293180, Note_on_c, 0, 48, 0
3, 293180, Note_on_c, 0, 51, 0
3, 293180, Note_on_c, 0, 54, 0
3, 293760, Note_on_c, 0, 50, 104
3, 293760, Note_on_c, 0, 41, 96
3, 293760, Note_on_c, 0, 53, 96
3, 293760, Note_on_c, 0, 47, 95
3, 293948, Note_on_c, 0, 47, 0
3, 293948, Note_on_c, 0, 50, 0
3, 293948, Note_on_c, 0, 41, 0
3, 293948, Note_on_c, 0, 53, 0
3, 294528, Note_on_c, 0, 51, 103
3, 294528, Note_on_c, 0, 48, 102
3, 294528, Note_on_c, 0, 43, 92
3, 294528, Note_on_c, 0, 39, 90
3, 294716, Note_on_c, 0, 39, 0
3, 294716, Note_on_c, 0, 51, 0
3, 294716, Note_on_c, 0, 48, 0
3, 294716, Note_on_c, 0, 43, 0
3, 295296, Note_on_c, 0, 50, 113
3, 295296, Note_on_c, 0, 44, 95
3, 295296, Note_on_c, 0, 53, 113
3, 295296, Note_on_c, 0, 41, 99
3, 295484, Note_on_c, 0, 41, 0
3, 295484, Note_on_c, 0, 50, 0
3, 295484, Note_on_c, 0, 44, 0
3, 295484, Note_on_c, 0, 53, 0
3, 296064, Note_on_c, 0, 50, 119
3, 296064, Note_on_c, 0, 55, 124
3, 296064, Note_on_c, 0, 47, 107
3, 296064, Note_on_c, 0, 43, 109
3, 296252, Note_on_c, 0, 43, 0
3, 296252, Note_on_c, 0, 50, 0
3, 296252, Note_on_c, 0, 55, 0
3, 296252, Note_on_c, 0, 47, 0
3, 296832, Note_on_c, 0, 51, 118
3, 296832, Note_on_c, 0, 60, 115
3, 296832, Note_on_c, 0, 55, 120
3, 297600, Note_on_c, 0, 55, 0
3, 297600, Note_on_c, 0, 60, 0
3, 297600, Note_on_c, 0, 51, 0
3, 299904, Note_on_c, 0, 60, 113
3, 299904, Note_on_c, 0, 51, 115
3, 299904, Note_on_c, 0, 55, 104
3, 301052, Note_on_c, 0, 55, 0
3, 301052, Note_on_c, 0, 51, 0
3, 301052, Note_on_c, 0, 60, 0
3, 304512, Note_on_c, 0, 61, 116
3, 304512, Note_on_c, 0, 53, 120
3, 304512, Note_on_c, 0, 56, 118
3, 305024, Note_on_c, 0, 56, 0
3, 305024, Note_on_c, 0, 53, 0
3, 305024, Note_on_c, 0, 61, 0
3, 305280, Note_on_c, 0, 56, 120
3, 305280, Note_on_c, 0, 61, 116
3, 305280, Note_on_c, 0, 53, 120
3, 305408, Note_on_c, 0, 53, 0
3, 305408, Note_on_c, 0, 61, 0
3, 305408, Note_on_c, 0, 56, 0
3, 308512, Note_on_c, 0, 56, 101
3, 308548, Note_on_c, 0, 56, 0
3, 308568, Note_on_c, 0, 55, 102
3, 308604, Note_on_c, 0, 55, 0
3, 308624, Note_on_c, 0, 53, 93
3, 308660, Note_on_c, 0, 53, 0
3, 308680, Note_on_c, 0, 51, 99
3, 308716, Note_on_c, 0, 51, 0
3, 308736, Note_on_c, 0, 49, 127
3, 308736, Note_on_c, 0, 43, 112
3, 308736, Note_on_c, 0, 31, 106
3, 308736, Note_on_c, 0, 39, 103
3, 310276, Note_on_c, 0, 39, 0
3, 310276, Note_on_c, 0, 49, 0
3, 310276, Note_on_c, 0, 43, 0
3, 310276, Note_on_c, 0, 31, 0
3, 311424, Note_on_c, 0, 56, 74
3, 311612, Note_on_c, 0, 56, 0
3, 311808, Note_on_c, 0, 44, 66
3, 311808, Note_on_c, 0, 51, 79
3, 312572, Note_on_c, 0, 51, 0
3, 312576, Note_on_c, 0, 49, 74
3, 313340, Note_on_c, 0, 49, 0
3, 313344, Note_on_c, 0, 56, 85
3, 313344, Note_on_c, 0, 48, 74
3, 313724, Note_on_c, 0, 48, 0
3, 313724, Note_on_c, 0, 56, 0
3, 313724, Note_on_c, 0, 44, 0
3, 314880, Note_on_c, 0, 56, 71
3, 316796, Note_on_c, 0, 56, 0
3, 321024, Note_on_c, 0, 55, 126
3, 321024, Note_on_c, 0, 50, 122
3, 321024, Note_on_c, 0, 43, 112
3, 321024, Note_on_c, 0, 47, 120
3, 321404, Note_on_c, 0, 47, 0
3, 321404, Note_on_c, 0, 55, 0
3, 321404, Note_on_c, 0, 50, 0
3, 321404, Note_on_c, 0, 43, 0
3, 322560, Note_on_c, 0, 39, 100
3, 322560, Note_on_c, 0, 43, 104
3, 322560, Note_on_c, 0, 48, 109
3, 322560, Note_on_c, 0, 36, 99
3, 322560, Note_on_c, 0, 72, 127
3, 322940, Note_on_c, 0, 72, 0
3, 322940, Note_on_c, 0, 48, 0
3, 322940, Note_on_c, 0, 39, 0
3, 322940, Note_on_c, 0, 43, 0
3, 322940, Note_on_c, 0, 36, 0
3, 322940, End_track
4, 0, Start_track
4, 0, Title_t, "Ludwig van Beethoven"
4, 0, End_track
5, 0, Start_track
5, 0, Title_t, "Performed by:  Wesley Venable"
5, 0, End_track
6, 0, Start_track
6, 0, Title_t, "Instrument:  Yamaha Clavinova CLP - 123"
6, 0, End_track
0, 0, End_of_file
