0, 0, Header, 0, 1, 384
1, 0, Start_track
1, 0, Title_t, "Sonata Op. 22--Gregory De Turck "
1, 0, Text_t, "2006 International Piano-e-Competition audition"
1, 0, Text_t, "New York, New York, January 26-31, 2006"
1, 0, Text_t, "http://www.piano-e-competition.com/"
1, 0, Instrument_name_t, "Yamaha Disklavier Pro Mark IV concert grand piano"
1, 0, Sequencer_specific, 39, 67, 113, 0, 1, 0, 1, 0, 83, 111, 110, 97, 116, 97, 32, 79, 112, 46, 32, 50, 50, 32, 32, 32, 71, 114, 101, 103, 111, 114, 121, 32, 68, 101, 32, 84, 117, 114, 99, 107
1, 0, Sequencer_specific, 6, 67, 113, 0, 0, 0, 69
1, 0, System_exclusive, 21, 67, 113, 126, 21, 0, 2, 2, 0, 10, 10, 12, 4, 3, 13, 9, 2, 5, 6, 11, 2, 247
1, 0, Sequencer_specific, 5, 67, 123, 12, 2, 1
1, 0, Tempo, 512820
1, 0, Time_signature, 4, 2, 24, 8
1, 0, System_exclusive, 5, 126, 127, 9, 1, 247
1, 1, System_exclusive, 8, 67, 16, 76, 0, 0, 126, 0, 247
1, 2, System_exclusive, 8, 67, 16, 76, 8, 9, 7, 1, 247
1, 3, Control_c, 0, 0, 0
1, 4, Control_c, 0, 32, 0
1, 5, Program_c, 0, 0
1, 6, Control_c, 0, 7, 100
1, 155, Control_c, 0, 67, 15
1, 304, Control_c, 0, 67, 31
1, 453, Control_c, 0, 67, 46
1, 602, Control_c, 0, 67, 63
1, 751, Control_c, 0, 67, 77
1, 900, Control_c, 0, 67, 94
1, 1049, Control_c, 0, 67, 108
1, 1198, Control_c, 0, 67, 127
1, 1504, Note_on_c, 0, 58, 56
1, 1514, Note_on_c, 0, 62, 51
1, 1549, Note_off_c, 0, 58, 61
1, 1576, Note_on_c, 0, 57, 54
1, 1624, Note_on_c, 0, 58, 63
1, 1626, Note_off_c, 0, 62, 62
1, 1635, Note_off_c, 0, 57, 54
1, 1684, Note_off_c, 0, 58, 62
1, 1698, Note_on_c, 0, 53, 63
1, 1733, Note_off_c, 0, 53, 60
1, 1770, Note_on_c, 0, 65, 71
1, 1775, Note_on_c, 0, 62, 57
1, 1787, Note_on_c, 0, 34, 48
1, 1788, Note_on_c, 0, 46, 43
1, 1796, Note_off_c, 0, 65, 68
1, 1805, Note_off_c, 0, 62, 64
1, 1817, Note_off_c, 0, 34, 54
1, 1818, Note_off_c, 0, 46, 52
1, 2113, Note_on_c, 0, 58, 54
1, 2114, Note_on_c, 0, 62, 54
1, 2120, Note_on_c, 0, 34, 40
1, 2122, Note_on_c, 0, 46, 39
1, 2144, Note_off_c, 0, 58, 59
1, 2144, Note_off_c, 0, 62, 61
1, 2159, Note_off_c, 0, 34, 51
1, 2163, Note_off_c, 0, 46, 48
1, 2747, Note_on_c, 0, 58, 63
1, 2753, Note_on_c, 0, 62, 57
1, 2789, Note_off_c, 0, 58, 63
1, 2816, Note_on_c, 0, 57, 51
1, 2866, Note_on_c, 0, 58, 66
1, 2872, Note_off_c, 0, 62, 62
1, 2893, Control_c, 0, 64, 38
1, 2897, Note_off_c, 0, 57, 57
1, 2908, Control_c, 0, 64, 44
1, 2923, Control_c, 0, 64, 49
1, 2929, Note_off_c, 0, 58, 61
1, 2938, Note_on_c, 0, 53, 70
1, 2938, Control_c, 0, 64, 51
1, 2953, Control_c, 0, 64, 51
1, 2967, Control_c, 0, 64, 46
1, 2982, Control_c, 0, 64, 0
1, 2983, Note_off_c, 0, 53, 60
1, 3010, Note_on_c, 0, 65, 72
1, 3013, Note_on_c, 0, 62, 64
1, 3016, Note_on_c, 0, 34, 59
1, 3023, Note_on_c, 0, 46, 47
1, 3036, Note_off_c, 0, 65, 69
1, 3040, Note_off_c, 0, 62, 65
1, 3046, Note_off_c, 0, 34, 63
1, 3050, Note_off_c, 0, 46, 53
1, 3364, Note_on_c, 0, 62, 62
1, 3369, Note_on_c, 0, 58, 57
1, 3375, Note_on_c, 0, 34, 51
1, 3376, Note_on_c, 0, 46, 49
1, 3391, Note_off_c, 0, 58, 64
1, 3396, Note_off_c, 0, 62, 65
1, 3403, Note_off_c, 0, 46, 59
1, 3409, Note_off_c, 0, 34, 61
1, 3951, Note_on_c, 0, 58, 56
1, 3960, Note_on_c, 0, 62, 54
1, 3991, Note_off_c, 0, 58, 64
1, 4020, Note_on_c, 0, 57, 47
1, 4027, Control_c, 0, 64, 37
1, 4042, Control_c, 0, 64, 42
1, 4057, Control_c, 0, 64, 47
1, 4068, Note_off_c, 0, 62, 61
1, 4069, Note_off_c, 0, 57, 60
1, 4070, Note_on_c, 0, 58, 60
1, 4071, Control_c, 0, 64, 53
1, 4086, Control_c, 0, 64, 58
1, 4101, Control_c, 0, 64, 59
1, 4110, Note_off_c, 0, 58, 63
1, 4115, Control_c, 0, 64, 60
1, 4133, Note_on_c, 0, 53, 65
1, 4145, Control_c, 0, 64, 60
1, 4160, Control_c, 0, 64, 57
1, 4164, Note_off_c, 0, 53, 66
1, 4175, Control_c, 0, 64, 51
1, 4190, Control_c, 0, 64, 0
1, 4200, Note_on_c, 0, 65, 74
1, 4211, Note_on_c, 0, 62, 62
1, 4242, Note_off_c, 0, 62, 65
1, 4250, Note_off_c, 0, 65, 64
1, 4256, Note_on_c, 0, 61, 62
1, 4318, Note_on_c, 0, 62, 72
1, 4335, Note_off_c, 0, 61, 62
1, 4351, Note_off_c, 0, 62, 59
1, 4354, Control_c, 0, 64, 32
1, 4369, Control_c, 0, 64, 43
1, 4391, Note_on_c, 0, 58, 78
1, 4391, Control_c, 0, 64, 52
1, 4406, Control_c, 0, 64, 56
1, 4420, Control_c, 0, 64, 58
1, 4424, Note_off_c, 0, 58, 65
1, 4435, Control_c, 0, 64, 57
1, 4450, Control_c, 0, 64, 54
1, 4450, Control_c, 0, 67, 122
1, 4458, Note_on_c, 0, 70, 75
1, 4465, Control_c, 0, 64, 51
1, 4465, Control_c, 0, 67, 99
1, 4467, Note_on_c, 0, 65, 73
1, 4480, Control_c, 0, 64, 46
1, 4480, Control_c, 0, 67, 70
1, 4494, Control_c, 0, 64, 38
1, 4494, Control_c, 0, 67, 33
1, 4509, Control_c, 0, 64, 32
1, 4509, Control_c, 0, 67, 0
1, 4515, Note_off_c, 0, 70, 62
1, 4517, Note_on_c, 0, 64, 53
1, 4524, Control_c, 0, 64, 0
1, 4526, Note_off_c, 0, 65, 65
1, 4608, Note_on_c, 0, 65, 71
1, 4609, Note_off_c, 0, 64, 64
1, 4628, Control_c, 0, 64, 33
1, 4640, Note_off_c, 0, 65, 67
1, 4643, Control_c, 0, 64, 39
1, 4643, Note_on_c, 0, 62, 73
1, 4658, Control_c, 0, 64, 46
1, 4673, Control_c, 0, 64, 51
1, 4692, Note_off_c, 0, 62, 62
1, 4702, Control_c, 0, 64, 48
1, 4717, Note_on_c, 0, 74, 86
1, 4717, Control_c, 0, 64, 39
1, 4732, Control_c, 0, 64, 0
1, 4734, Note_on_c, 0, 70, 67
1, 4762, Note_off_c, 0, 70, 63
1, 4781, Note_on_c, 0, 69, 71
1, 4808, Note_off_c, 0, 74, 60
1, 4849, Note_on_c, 0, 70, 74
1, 4852, Note_off_c, 0, 69, 64
1, 4904, Note_off_c, 0, 70, 64
1, 4910, Note_on_c, 0, 65, 85
1, 4953, Note_off_c, 0, 65, 65
1, 4989, Note_on_c, 0, 77, 94
1, 5000, Note_on_c, 0, 74, 81
1, 5048, Note_off_c, 0, 74, 64
1, 5055, Note_on_c, 0, 73, 80
1, 5060, Note_off_c, 0, 77, 63
1, 5102, Control_c, 0, 64, 33
1, 5110, Note_on_c, 0, 74, 80
1, 5117, Control_c, 0, 64, 44
1, 5139, Control_c, 0, 64, 54
1, 5150, Note_off_c, 0, 73, 63
1, 5150, Note_off_c, 0, 74, 65
1, 5154, Control_c, 0, 64, 60
1, 5168, Control_c, 0, 64, 63
1, 5183, Control_c, 0, 64, 64
1, 5187, Note_on_c, 0, 70, 88
1, 5198, Control_c, 0, 64, 66
1, 5213, Control_c, 0, 64, 68
1, 5228, Control_c, 0, 64, 70
1, 5242, Control_c, 0, 64, 71
1, 5245, Note_off_c, 0, 70, 63
1, 5257, Control_c, 0, 64, 69
1, 5272, Control_c, 0, 64, 63
1, 5273, Note_on_c, 0, 82, 97
1, 5285, Note_on_c, 0, 46, 76
1, 5287, Control_c, 0, 64, 50
1, 5302, Control_c, 0, 64, 37
1, 5317, Control_c, 0, 64, 0
1, 5332, Control_c, 0, 64, 32
1, 5344, Note_on_c, 0, 50, 71
1, 5347, Control_c, 0, 64, 47
1, 5361, Control_c, 0, 64, 59
1, 5370, Note_off_c, 0, 46, 59
1, 5376, Control_c, 0, 64, 64
1, 5391, Control_c, 0, 64, 67
1, 5406, Control_c, 0, 64, 67
1, 5418, Note_on_c, 0, 53, 62
1, 5435, Control_c, 0, 64, 68
1, 5439, Note_off_c, 0, 50, 61
1, 5450, Control_c, 0, 64, 70
1, 5465, Control_c, 0, 64, 72
1, 5480, Control_c, 0, 64, 74
1, 5489, Note_on_c, 0, 58, 68
1, 5494, Control_c, 0, 64, 75
1, 5505, Note_off_c, 0, 53, 59
1, 5524, Control_c, 0, 64, 73
1, 5539, Control_c, 0, 64, 69
1, 5553, Control_c, 0, 64, 62
1, 5553, Control_c, 0, 67, 17
1, 5560, Note_off_c, 0, 58, 46
1, 5568, Control_c, 0, 64, 56
1, 5568, Control_c, 0, 67, 19
1, 5573, Note_on_c, 0, 46, 67
1, 5583, Control_c, 0, 64, 50
1, 5583, Control_c, 0, 67, 21
1, 5598, Control_c, 0, 64, 47
1, 5613, Control_c, 0, 64, 44
1, 5613, Control_c, 0, 67, 23
1, 5627, Note_off_c, 0, 46, 54
1, 5628, Control_c, 0, 64, 41
1, 5641, Note_on_c, 0, 50, 57
1, 5642, Control_c, 0, 64, 39
1, 5657, Control_c, 0, 64, 36
1, 5657, Control_c, 0, 67, 26
1, 5672, Control_c, 0, 64, 32
1, 5686, Control_c, 0, 64, 0
1, 5686, Control_c, 0, 67, 28
1, 5697, Note_off_c, 0, 50, 61
1, 5710, Note_on_c, 0, 53, 56
1, 5716, Control_c, 0, 67, 30
1, 5761, Control_c, 0, 67, 32
1, 5773, Note_off_c, 0, 53, 59
1, 5776, Control_c, 0, 67, 32
1, 5785, Note_on_c, 0, 58, 57
1, 5791, Control_c, 0, 67, 33
1, 5806, Control_c, 0, 67, 33
1, 5821, Control_c, 0, 67, 35
1, 5828, Note_off_c, 0, 58, 58
1, 5835, Control_c, 0, 67, 37
1, 5850, Control_c, 0, 67, 39
1, 5865, Control_c, 0, 67, 41
1, 5865, Note_on_c, 0, 46, 55
1, 5886, Control_c, 0, 67, 43
1, 5901, Control_c, 0, 67, 44
1, 5911, Note_off_c, 0, 46, 63
1, 5917, Control_c, 0, 67, 48
1, 5928, Note_on_c, 0, 50, 54
1, 5932, Control_c, 0, 67, 53
1, 5947, Control_c, 0, 67, 58
1, 5962, Control_c, 0, 67, 62
1, 5977, Control_c, 0, 64, 38
1, 5977, Control_c, 0, 67, 65
1, 5985, Note_off_c, 0, 50, 60
1, 5991, Control_c, 0, 64, 43
1, 5991, Control_c, 0, 67, 68
1, 6003, Note_on_c, 0, 53, 50
1, 6006, Control_c, 0, 64, 48
1, 6006, Control_c, 0, 67, 71
1, 6021, Control_c, 0, 64, 52
1, 6021, Control_c, 0, 67, 73
1, 6036, Control_c, 0, 64, 56
1, 6036, Control_c, 0, 67, 76
1, 6051, Control_c, 0, 64, 57
1, 6051, Control_c, 0, 67, 78
1, 6056, Note_off_c, 0, 53, 59
1, 6065, Control_c, 0, 64, 58
1, 6065, Control_c, 0, 67, 80
1, 6074, Note_on_c, 0, 58, 57
1, 6080, Control_c, 0, 64, 59
1, 6080, Control_c, 0, 67, 82
1, 6095, Control_c, 0, 67, 83
1, 6110, Control_c, 0, 64, 58
1, 6110, Control_c, 0, 67, 84
1, 6121, Note_off_c, 0, 58, 56
1, 6125, Control_c, 0, 64, 57
1, 6125, Control_c, 0, 67, 85
1, 6140, Control_c, 0, 64, 55
1, 6140, Control_c, 0, 67, 86
1, 6142, Note_off_c, 0, 82, 57
1, 6151, Note_on_c, 0, 81, 70
1, 6154, Control_c, 0, 64, 52
1, 6154, Control_c, 0, 67, 86
1, 6169, Note_on_c, 0, 46, 48
1, 6169, Control_c, 0, 64, 48
1, 6184, Control_c, 0, 64, 45
1, 6199, Control_c, 0, 64, 45
1, 6208, Note_off_c, 0, 46, 60
1, 6220, Note_on_c, 0, 50, 50
1, 6222, Note_on_c, 0, 82, 81
1, 6226, Note_off_c, 0, 81, 63
1, 6229, Control_c, 0, 64, 46
1, 6244, Control_c, 0, 64, 46
1, 6258, Control_c, 0, 64, 48
1, 6273, Control_c, 0, 64, 50
1, 6280, Note_off_c, 0, 82, 66
1, 6288, Control_c, 0, 64, 54
1, 6290, Note_on_c, 0, 84, 79
1, 6295, Note_off_c, 0, 50, 60
1, 6297, Note_on_c, 0, 53, 53
1, 6303, Control_c, 0, 64, 56
1, 6303, Control_c, 0, 67, 86
1, 6317, Control_c, 0, 64, 56
1, 6332, Control_c, 0, 64, 55
1, 6333, Note_off_c, 0, 53, 64
1, 6343, Note_on_c, 0, 82, 86
1, 6347, Control_c, 0, 64, 53
1, 6354, Note_on_c, 0, 58, 60
1, 6362, Control_c, 0, 64, 48
1, 6364, Note_off_c, 0, 84, 65
1, 6377, Control_c, 0, 64, 42
1, 6391, Control_c, 0, 64, 39
1, 6396, Note_off_c, 0, 58, 59
1, 6406, Control_c, 0, 64, 37
1, 6411, Note_on_c, 0, 81, 82
1, 6421, Control_c, 0, 64, 36
1, 6432, Note_off_c, 0, 82, 65
1, 6432, Note_on_c, 0, 46, 62
1, 6436, Control_c, 0, 64, 36
1, 6480, Control_c, 0, 64, 36
1, 6495, Control_c, 0, 64, 37
1, 6509, Control_c, 0, 64, 39
1, 6511, Note_off_c, 0, 46, 54
1, 6513, Note_on_c, 0, 51, 50
1, 6524, Control_c, 0, 64, 40
1, 6539, Control_c, 0, 64, 42
1, 6554, Control_c, 0, 64, 45
1, 6558, Note_off_c, 0, 51, 59
1, 6560, Note_on_c, 0, 55, 54
1, 6569, Control_c, 0, 64, 49
1, 6572, Note_on_c, 0, 79, 84
1, 6573, Note_off_c, 0, 81, 64
1, 6584, Control_c, 0, 64, 53
1, 6599, Control_c, 0, 64, 55
1, 6613, Control_c, 0, 64, 55
1, 6647, Note_off_c, 0, 55, 61
1, 6667, Note_on_c, 0, 58, 49
1, 6680, Control_c, 0, 64, 55
1, 6695, Control_c, 0, 64, 53
1, 6700, Note_off_c, 0, 58, 58
1, 6710, Control_c, 0, 64, 50
1, 6726, Control_c, 0, 64, 43
1, 6736, Note_on_c, 0, 77, 77
1, 6740, Control_c, 0, 64, 37
1, 6745, Note_off_c, 0, 79, 64
1, 6749, Note_on_c, 0, 46, 55
1, 6755, Control_c, 0, 64, 0
1, 6785, Control_c, 0, 67, 85
1, 6813, Note_on_c, 0, 51, 52
1, 6813, Note_off_c, 0, 46, 54
1, 6814, Control_c, 0, 67, 85
1, 6865, Note_on_c, 0, 55, 53
1, 6874, Control_c, 0, 64, 38
1, 6888, Control_c, 0, 64, 44
1, 6890, Note_off_c, 0, 51, 50
1, 6891, Note_on_c, 0, 75, 79
1, 6903, Control_c, 0, 64, 50
1, 6918, Control_c, 0, 64, 54
1, 6924, Note_off_c, 0, 77, 63
1, 6932, Control_c, 0, 64, 57
1, 6943, Note_off_c, 0, 55, 61
1, 6947, Control_c, 0, 64, 58
1, 6958, Note_on_c, 0, 58, 51
1, 6962, Control_c, 0, 64, 58
1, 6977, Control_c, 0, 64, 58
1, 6992, Control_c, 0, 64, 56
1, 6998, Note_off_c, 0, 58, 50
1, 7007, Control_c, 0, 64, 53
1, 7022, Control_c, 0, 64, 47
1, 7028, Note_on_c, 0, 46, 63
1, 7037, Control_c, 0, 64, 40
1, 7041, Note_on_c, 0, 74, 76
1, 7052, Control_c, 0, 64, 35
1, 7066, Control_c, 0, 64, 33
1, 7073, Note_off_c, 0, 75, 59
1, 7096, Control_c, 0, 64, 36
1, 7109, Note_on_c, 0, 51, 50
1, 7111, Control_c, 0, 64, 41
1, 7111, Note_off_c, 0, 46, 59
1, 7125, Control_c, 0, 64, 48
1, 7140, Control_c, 0, 64, 53
1, 7155, Control_c, 0, 64, 56
1, 7159, Note_on_c, 0, 53, 57
1, 7186, Note_off_c, 0, 74, 62
1, 7189, Note_on_c, 0, 72, 77
1, 7192, Note_off_c, 0, 51, 55
1, 7232, Note_off_c, 0, 53, 63
1, 7244, Control_c, 0, 64, 57
1, 7252, Note_on_c, 0, 57, 53
1, 7273, Control_c, 0, 64, 56
1, 7303, Control_c, 0, 64, 55
1, 7318, Control_c, 0, 64, 54
1, 7327, Note_off_c, 0, 57, 51
1, 7332, Note_on_c, 0, 46, 60
1, 7332, Control_c, 0, 64, 51
1, 7347, Note_on_c, 0, 79, 79
1, 7347, Control_c, 0, 64, 49
1, 7362, Control_c, 0, 64, 46
1, 7362, Control_c, 0, 67, 85
1, 7386, Control_c, 0, 64, 44
1, 7393, Note_off_c, 0, 72, 60
1, 7400, Control_c, 0, 64, 42
1, 7400, Control_c, 0, 67, 86
1, 7415, Control_c, 0, 64, 40
1, 7424, Note_off_c, 0, 46, 56
1, 7428, Note_on_c, 0, 51, 49
1, 7430, Control_c, 0, 64, 39
1, 7430, Control_c, 0, 67, 86
1, 7445, Control_c, 0, 64, 38
1, 7445, Control_c, 0, 67, 87
1, 7460, Control_c, 0, 64, 37
1, 7460, Control_c, 0, 67, 88
1, 7474, Control_c, 0, 64, 34
1, 7480, Note_off_c, 0, 51, 55
1, 7481, Note_on_c, 0, 53, 50
1, 7489, Control_c, 0, 64, 0
1, 7489, Control_c, 0, 67, 89
1, 7505, Control_c, 0, 67, 91
1, 7506, Note_on_c, 0, 77, 79
1, 7520, Control_c, 0, 67, 93
1, 7532, Note_off_c, 0, 79, 63
1, 7535, Control_c, 0, 67, 96
1, 7538, Note_off_c, 0, 53, 61
1, 7549, Control_c, 0, 67, 100
1, 7559, Note_on_c, 0, 57, 54
1, 7564, Control_c, 0, 67, 104
1, 7579, Control_c, 0, 67, 107
1, 7594, Control_c, 0, 67, 110
1, 7609, Control_c, 0, 67, 113
1, 7624, Control_c, 0, 67, 115
1, 7637, Note_off_c, 0, 57, 54
1, 7648, Note_on_c, 0, 46, 58
1, 7653, Control_c, 0, 67, 117
1, 7663, Note_off_c, 0, 77, 61
1, 7663, Note_on_c, 0, 75, 70
1, 7682, Control_c, 0, 67, 119
1, 7697, Control_c, 0, 67, 121
1, 7716, Note_off_c, 0, 46, 62
1, 7727, Control_c, 0, 67, 124
1, 7737, Note_on_c, 0, 50, 48
1, 7792, Note_off_c, 0, 50, 61
1, 7810, Note_on_c, 0, 53, 50
1, 7847, Note_off_c, 0, 53, 55
1, 7886, Note_on_c, 0, 58, 49
1, 7938, Note_off_c, 0, 58, 46
1, 7959, Note_on_c, 0, 46, 47
1, 7976, Note_on_c, 0, 74, 54
1, 7985, Note_off_c, 0, 75, 54
1, 8000, Note_off_c, 0, 46, 60
1, 8020, Note_on_c, 0, 50, 46
1, 8079, Note_off_c, 0, 50, 59
1, 8104, Note_on_c, 0, 53, 45
1, 8156, Note_off_c, 0, 53, 61
1, 8187, Note_on_c, 0, 58, 50
1, 8224, Note_off_c, 0, 58, 52
1, 8275, Note_on_c, 0, 46, 46
1, 8297, Control_c, 0, 64, 41
1, 8302, Note_off_c, 0, 46, 59
1, 8313, Control_c, 0, 64, 49
1, 8317, Note_off_c, 0, 74, 63
1, 8319, Note_on_c, 0, 50, 50
1, 8327, Control_c, 0, 64, 54
1, 8342, Control_c, 0, 64, 57
1, 8357, Control_c, 0, 64, 58
1, 8366, Note_off_c, 0, 50, 61
1, 8372, Control_c, 0, 64, 58
1, 8387, Control_c, 0, 64, 59
1, 8397, Note_on_c, 0, 53, 47
1, 8402, Control_c, 0, 64, 59
1, 8417, Control_c, 0, 64, 60
1, 8434, Note_off_c, 0, 53, 53
1, 8480, Note_on_c, 0, 56, 45
1, 8505, Control_c, 0, 64, 59
1, 8514, Note_off_c, 0, 56, 50
1, 8520, Control_c, 0, 64, 59
1, 8535, Control_c, 0, 64, 57
1, 8550, Control_c, 0, 64, 53
1, 8551, Note_on_c, 0, 46, 55
1, 8559, Note_on_c, 0, 69, 60
1, 8565, Control_c, 0, 64, 48
1, 8579, Control_c, 0, 64, 42
1, 8593, Note_off_c, 0, 46, 60
1, 8594, Control_c, 0, 64, 38
1, 8609, Control_c, 0, 64, 35
1, 8610, Note_off_c, 0, 69, 60
1, 8615, Note_on_c, 0, 70, 68
1, 8617, Note_on_c, 0, 50, 44
1, 8624, Control_c, 0, 64, 0
1, 8659, Note_off_c, 0, 50, 55
1, 8665, Note_off_c, 0, 70, 64
1, 8688, Note_on_c, 0, 53, 40
1, 8692, Note_on_c, 0, 72, 64
1, 8722, Note_off_c, 0, 53, 53
1, 8743, Note_on_c, 0, 70, 69
1, 8743, Note_off_c, 0, 72, 61
1, 8754, Note_on_c, 0, 56, 53
1, 8785, Note_off_c, 0, 56, 59
1, 8818, Note_on_c, 0, 68, 65
1, 8821, Note_off_c, 0, 70, 60
1, 8825, Note_on_c, 0, 46, 51
1, 8880, Note_off_c, 0, 46, 58
1, 8911, Note_on_c, 0, 51, 56
1, 8912, Control_c, 0, 64, 34
1, 8927, Control_c, 0, 64, 38
1, 8942, Control_c, 0, 64, 41
1, 8957, Control_c, 0, 64, 42
1, 8959, Note_off_c, 0, 51, 62
1, 8972, Control_c, 0, 64, 43
1, 8978, Note_off_c, 0, 68, 65
1, 8985, Note_on_c, 0, 67, 69
1, 8986, Control_c, 0, 64, 44
1, 9001, Control_c, 0, 64, 45
1, 9002, Note_on_c, 0, 55, 44
1, 9016, Control_c, 0, 64, 47
1, 9029, Note_off_c, 0, 55, 55
1, 9031, Control_c, 0, 64, 49
1, 9045, Note_on_c, 0, 51, 59
1, 9046, Control_c, 0, 64, 51
1, 9046, Control_c, 0, 67, 122
1, 9061, Control_c, 0, 64, 53
1, 9076, Control_c, 0, 64, 54
1, 9091, Control_c, 0, 64, 54
1, 9106, Control_c, 0, 64, 55
1, 9124, Note_off_c, 0, 51, 62
1, 9129, Note_on_c, 0, 46, 69
1, 9141, Note_on_c, 0, 65, 78
1, 9150, Control_c, 0, 64, 54
1, 9165, Note_off_c, 0, 67, 52
1, 9165, Control_c, 0, 64, 53
1, 9180, Control_c, 0, 64, 51
1, 9180, Control_c, 0, 67, 120
1, 9195, Control_c, 0, 64, 49
1, 9199, Note_off_c, 0, 46, 57
1, 9210, Control_c, 0, 64, 48
1, 9213, Note_on_c, 0, 51, 62
1, 9225, Control_c, 0, 64, 47
1, 9240, Control_c, 0, 64, 47
1, 9254, Control_c, 0, 64, 46
1, 9269, Note_off_c, 0, 51, 63
1, 9269, Control_c, 0, 64, 45
1, 9292, Note_on_c, 0, 63, 79
1, 9309, Note_on_c, 0, 55, 58
1, 9315, Note_off_c, 0, 65, 60
1, 9343, Control_c, 0, 64, 46
1, 9354, Note_off_c, 0, 55, 62
1, 9358, Control_c, 0, 64, 47
1, 9365, Note_on_c, 0, 51, 60
1, 9388, Control_c, 0, 64, 46
1, 9403, Control_c, 0, 64, 45
1, 9417, Control_c, 0, 64, 44
1, 9431, Note_off_c, 0, 51, 60
1, 9451, Note_on_c, 0, 62, 80
1, 9452, Note_on_c, 0, 46, 61
1, 9461, Control_c, 0, 64, 46
1, 9476, Control_c, 0, 64, 48
1, 9489, Note_off_c, 0, 63, 59
1, 9491, Control_c, 0, 64, 52
1, 9506, Control_c, 0, 64, 55
1, 9513, Note_off_c, 0, 46, 60
1, 9517, Note_on_c, 0, 48, 60
1, 9521, Control_c, 0, 64, 56
1, 9550, Control_c, 0, 64, 56
1, 9565, Note_off_c, 0, 62, 61
1, 9565, Control_c, 0, 64, 54
1, 9580, Control_c, 0, 64, 53
1, 9594, Note_off_c, 0, 48, 64
1, 9595, Control_c, 0, 64, 51
1, 9600, Note_on_c, 0, 60, 81
1, 9609, Note_on_c, 0, 51, 63
1, 9609, Control_c, 0, 64, 49
1, 9632, Control_c, 0, 64, 47
1, 9647, Control_c, 0, 64, 46
1, 9661, Control_c, 0, 64, 45
1, 9676, Control_c, 0, 64, 44
1, 9690, Note_off_c, 0, 51, 62
1, 9691, Control_c, 0, 64, 44
1, 9706, Control_c, 0, 64, 43
1, 9715, Note_on_c, 0, 53, 53
1, 9721, Control_c, 0, 64, 42
1, 9735, Control_c, 0, 64, 41
1, 9750, Control_c, 0, 64, 40
1, 9755, Note_off_c, 0, 53, 59
1, 9765, Control_c, 0, 64, 40
1, 9771, Note_on_c, 0, 46, 65
1, 9779, Note_on_c, 0, 63, 82
1, 9780, Control_c, 0, 64, 39
1, 9794, Note_off_c, 0, 60, 64
1, 9794, Control_c, 0, 64, 39
1, 9835, Note_off_c, 0, 46, 54
1, 9851, Note_on_c, 0, 48, 49
1, 9884, Control_c, 0, 64, 38
1, 9898, Control_c, 0, 64, 38
1, 9910, Note_off_c, 0, 48, 63
1, 9914, Control_c, 0, 64, 36
1, 9915, Note_off_c, 0, 63, 63
1, 9929, Note_on_c, 0, 51, 61
1, 9929, Control_c, 0, 64, 35
1, 9929, Control_c, 0, 67, 122
1, 9939, Note_on_c, 0, 57, 78
1, 9944, Control_c, 0, 64, 33
1, 9958, Control_c, 0, 64, 0
1, 9978, Note_off_c, 0, 51, 61
1, 10015, Note_on_c, 0, 53, 59
1, 10018, Control_c, 0, 67, 124
1, 10069, Note_off_c, 0, 53, 53
1, 10102, Note_off_c, 0, 57, 61
1, 10107, Note_on_c, 0, 58, 68
1, 10113, Note_on_c, 0, 46, 59
1, 10170, Note_off_c, 0, 46, 61
1, 10181, Control_c, 0, 64, 43
1, 10182, Note_off_c, 0, 58, 62
1, 10196, Control_c, 0, 64, 55
1, 10211, Control_c, 0, 64, 61
1, 10225, Control_c, 0, 64, 63
1, 10240, Control_c, 0, 64, 64
1, 10255, Control_c, 0, 64, 64
1, 10299, Control_c, 0, 64, 65
1, 10324, Note_on_c, 0, 62, 62
1, 10329, Control_c, 0, 64, 64
1, 10344, Control_c, 0, 64, 63
1, 10358, Control_c, 0, 64, 57
1, 10373, Control_c, 0, 64, 45
1, 10374, Note_off_c, 0, 62, 60
1, 10384, Note_on_c, 0, 60, 66
1, 10396, Control_c, 0, 64, 0
1, 10440, Note_on_c, 0, 58, 56
1, 10443, Note_off_c, 0, 60, 59
1, 10446, Note_on_c, 0, 46, 62
1, 10480, Note_off_c, 0, 46, 64
1, 10492, Note_off_c, 0, 58, 62
1, 10499, Control_c, 0, 67, 122
1, 10502, Note_on_c, 0, 57, 70
1, 10530, Note_on_c, 0, 45, 49
1, 10545, Note_off_c, 0, 57, 58
1, 10561, Note_off_c, 0, 45, 52
1, 10577, Note_on_c, 0, 58, 65
1, 10592, Note_on_c, 0, 46, 41
1, 10620, Note_off_c, 0, 46, 53
1, 10631, Note_on_c, 0, 43, 59
1, 10642, Note_on_c, 0, 55, 71
1, 10647, Control_c, 0, 67, 119
1, 10653, Note_off_c, 0, 58, 61
1, 10661, Note_off_c, 0, 43, 64
1, 10662, Control_c, 0, 67, 117
1, 10676, Control_c, 0, 67, 114
1, 10685, Note_off_c, 0, 55, 62
1, 10691, Control_c, 0, 67, 110
1, 10707, Control_c, 0, 67, 102
1, 10711, Note_on_c, 0, 41, 77
1, 10713, Note_on_c, 0, 53, 69
1, 10722, Control_c, 0, 67, 88
1, 10735, Note_off_c, 0, 41, 65
1, 10737, Control_c, 0, 67, 70
1, 10741, Note_off_c, 0, 53, 67
1, 10752, Control_c, 0, 67, 49
1, 10767, Control_c, 0, 67, 28
1, 10781, Control_c, 0, 67, 0
1, 10894, Note_on_c, 0, 67, 69
1, 10962, Note_on_c, 0, 65, 72
1, 10967, Note_off_c, 0, 67, 64
1, 11020, Note_on_c, 0, 63, 75
1, 11026, Note_off_c, 0, 65, 65
1, 11028, Note_on_c, 0, 51, 61
1, 11070, Note_off_c, 0, 51, 63
1, 11078, Note_off_c, 0, 63, 62
1, 11093, Note_on_c, 0, 62, 75
1, 11107, Note_on_c, 0, 50, 68
1, 11162, Note_off_c, 0, 62, 58
1, 11177, Note_on_c, 0, 63, 77
1, 11177, Note_off_c, 0, 50, 60
1, 11199, Note_on_c, 0, 51, 48
1, 11223, Note_on_c, 0, 48, 66
1, 11225, Note_off_c, 0, 51, 60
1, 11235, Note_on_c, 0, 60, 75
1, 11243, Note_off_c, 0, 63, 62
1, 11269, Note_off_c, 0, 48, 63
1, 11282, Note_off_c, 0, 60, 64
1, 11305, Note_on_c, 0, 46, 87
1, 11313, Note_on_c, 0, 58, 81
1, 11329, Note_off_c, 0, 46, 70
1, 11342, Note_off_c, 0, 58, 63
1, 11495, Note_on_c, 0, 74, 83
1, 11563, Note_on_c, 0, 72, 73
1, 11578, Note_off_c, 0, 74, 63
1, 11612, Note_on_c, 0, 70, 87
1, 11616, Note_on_c, 0, 58, 74
1, 11629, Note_off_c, 0, 72, 61
1, 11670, Note_off_c, 0, 58, 62
1, 11675, Note_off_c, 0, 70, 64
1, 11681, Note_on_c, 0, 69, 82
1, 11706, Note_on_c, 0, 57, 71
1, 11747, Note_off_c, 0, 69, 58
1, 11761, Note_on_c, 0, 70, 83
1, 11769, Note_off_c, 0, 57, 62
1, 11776, Note_on_c, 0, 58, 63
1, 11797, Note_on_c, 0, 55, 73
1, 11805, Note_off_c, 0, 58, 64
1, 11823, Note_on_c, 0, 67, 83
1, 11846, Note_off_c, 0, 70, 62
1, 11875, Note_off_c, 0, 55, 57
1, 11895, Note_off_c, 0, 67, 65
1, 11898, Note_on_c, 0, 53, 92
1, 11905, Note_on_c, 0, 65, 87
1, 11929, Note_off_c, 0, 53, 68
1, 11947, Note_off_c, 0, 65, 66
1, 12027, Control_c, 0, 67, 17
1, 12071, Control_c, 0, 67, 19
1, 12074, Note_on_c, 0, 79, 88
1, 12142, Note_on_c, 0, 77, 80
1, 12160, Control_c, 0, 67, 21
1, 12161, Note_off_c, 0, 79, 66
1, 12197, Note_on_c, 0, 63, 78
1, 12200, Note_on_c, 0, 75, 84
1, 12230, Note_off_c, 0, 77, 63
1, 12250, Note_off_c, 0, 63, 62
1, 12262, Note_off_c, 0, 75, 65
1, 12264, Note_on_c, 0, 74, 86
1, 12278, Control_c, 0, 67, 23
1, 12295, Note_on_c, 0, 62, 70
1, 12331, Note_off_c, 0, 74, 62
1, 12350, Note_on_c, 0, 75, 84
1, 12362, Note_on_c, 0, 63, 74
1, 12365, Note_off_c, 0, 62, 60
1, 12403, Note_on_c, 0, 60, 72
1, 12411, Note_on_c, 0, 72, 87
1, 12411, Note_off_c, 0, 63, 63
1, 12414, Note_off_c, 0, 75, 65
1, 12445, Note_off_c, 0, 60, 64
1, 12456, Note_off_c, 0, 72, 66
1, 12471, Control_c, 0, 67, 20
1, 12485, Note_on_c, 0, 70, 101
1, 12486, Control_c, 0, 67, 0
1, 12492, Note_on_c, 0, 58, 85
1, 12501, Control_c, 0, 64, 52
1, 12516, Control_c, 0, 64, 66
1, 12529, Note_off_c, 0, 70, 65
1, 12531, Control_c, 0, 64, 71
1, 12537, Note_off_c, 0, 58, 60
1, 12545, Control_c, 0, 64, 76
1, 12560, Control_c, 0, 64, 79
1, 12575, Control_c, 0, 64, 82
1, 12590, Control_c, 0, 64, 83
1, 12628, Control_c, 0, 64, 81
1, 12643, Control_c, 0, 64, 72
1, 12656, Note_on_c, 0, 60, 82
1, 12658, Control_c, 0, 64, 55
1, 12667, Note_on_c, 0, 72, 83
1, 12673, Control_c, 0, 64, 0
1, 12709, Note_off_c, 0, 60, 64
1, 12739, Note_on_c, 0, 74, 82
1, 12742, Note_off_c, 0, 72, 65
1, 12745, Note_on_c, 0, 62, 79
1, 12799, Note_on_c, 0, 75, 82
1, 12808, Note_off_c, 0, 74, 61
1, 12814, Note_off_c, 0, 62, 60
1, 12818, Note_on_c, 0, 63, 70
1, 12851, Note_off_c, 0, 75, 65
1, 12866, Note_on_c, 0, 77, 87
1, 12885, Note_on_c, 0, 65, 77
1, 12914, Note_off_c, 0, 63, 58
1, 12924, Note_off_c, 0, 77, 61
1, 12945, Note_on_c, 0, 79, 78
1, 12945, Note_off_c, 0, 65, 63
1, 12946, Note_on_c, 0, 67, 72
1, 12969, Control_c, 0, 67, 17
1, 12986, Note_off_c, 0, 79, 61
1, 12996, Note_off_c, 0, 67, 66
1, 13005, Note_on_c, 0, 81, 87
1, 13016, Note_on_c, 0, 69, 74
1, 13043, Control_c, 0, 67, 20
1, 13052, Note_on_c, 0, 84, 87
1, 13059, Note_off_c, 0, 69, 59
1, 13063, Note_off_c, 0, 81, 64
1, 13070, Note_on_c, 0, 70, 81
1, 13081, Note_on_c, 0, 82, 94
1, 13112, Note_off_c, 0, 84, 66
1, 13129, Note_on_c, 0, 69, 69
1, 13138, Note_off_c, 0, 70, 64
1, 13148, Note_on_c, 0, 81, 85
1, 13151, Note_off_c, 0, 82, 67
1, 13207, Note_off_c, 0, 69, 62
1, 13216, Note_on_c, 0, 82, 81
1, 13219, Note_on_c, 0, 70, 73
1, 13222, Note_off_c, 0, 81, 64
1, 13236, Control_c, 0, 67, 18
1, 13255, Note_off_c, 0, 82, 67
1, 13264, Note_on_c, 0, 84, 91
1, 13288, Note_on_c, 0, 72, 68
1, 13288, Note_off_c, 0, 70, 61
1, 13318, Note_off_c, 0, 84, 65
1, 13327, Note_on_c, 0, 88, 93
1, 13341, Note_off_c, 0, 72, 65
1, 13357, Note_on_c, 0, 86, 87
1, 13359, Note_on_c, 0, 74, 71
1, 13390, Note_off_c, 0, 88, 67
1, 13408, Note_off_c, 0, 74, 64
1, 13422, Note_on_c, 0, 72, 80
1, 13430, Note_off_c, 0, 86, 65
1, 13431, Note_on_c, 0, 84, 87
1, 13473, Note_off_c, 0, 84, 65
1, 13476, Note_off_c, 0, 72, 65
1, 13497, Note_on_c, 0, 74, 84
1, 13500, Note_on_c, 0, 86, 105
1, 13551, Note_off_c, 0, 74, 66
1, 13554, Note_on_c, 0, 76, 91
1, 13559, Note_on_c, 0, 88, 93
1, 13568, Control_c, 0, 67, 20
1, 13570, Note_off_c, 0, 86, 64
1, 13607, Note_off_c, 0, 88, 68
1, 13608, Note_off_c, 0, 76, 66
1, 13613, Control_c, 0, 67, 23
1, 13628, Control_c, 0, 67, 25
1, 13633, Note_on_c, 0, 77, 102
1, 13634, Note_on_c, 0, 89, 116
1, 13642, Control_c, 0, 67, 28
1, 13657, Control_c, 0, 64, 61
1, 13666, Note_off_c, 0, 89, 73
1, 13667, Note_off_c, 0, 77, 71
1, 13672, Control_c, 0, 64, 78
1, 13687, Control_c, 0, 64, 96
1, 13702, Control_c, 0, 64, 127
1, 13702, Control_c, 0, 67, 25
1, 13717, Control_c, 0, 67, 20
1, 13732, Control_c, 0, 67, 0
1, 13806, Control_c, 0, 64, 110
1, 13820, Control_c, 0, 64, 76
1, 13835, Control_c, 0, 64, 53
1, 13850, Control_c, 0, 64, 0
1, 14045, Note_on_c, 0, 65, 107
1, 14051, Note_on_c, 0, 53, 97
1, 14058, Control_c, 0, 64, 38
1, 14073, Control_c, 0, 64, 69
1, 14085, Note_off_c, 0, 65, 68
1, 14087, Note_off_c, 0, 53, 69
1, 14088, Control_c, 0, 64, 86
1, 14103, Control_c, 0, 64, 127
1, 14118, Control_c, 0, 67, 17
1, 14140, Control_c, 0, 67, 19
1, 14184, Control_c, 0, 67, 21
1, 14288, Control_c, 0, 67, 19
1, 14318, Control_c, 0, 67, 17
1, 14332, Control_c, 0, 67, 0
1, 14391, Control_c, 0, 64, 124
1, 14406, Control_c, 0, 64, 121
1, 14436, Control_c, 0, 64, 119
1, 14465, Control_c, 0, 64, 116
1, 14510, Control_c, 0, 64, 114
1, 14584, Control_c, 0, 64, 111
1, 14599, Control_c, 0, 64, 91
1, 14614, Control_c, 0, 64, 68
1, 14629, Control_c, 0, 64, 0
1, 14807, Control_c, 0, 67, 20
1, 14822, Control_c, 0, 67, 28
1, 14837, Control_c, 0, 67, 41
1, 14845, Note_on_c, 0, 46, 69
1, 14852, Control_c, 0, 67, 58
1, 14874, Control_c, 0, 67, 78
1, 14889, Control_c, 0, 67, 89
1, 14896, Note_off_c, 0, 46, 65
1, 14904, Control_c, 0, 67, 93
1, 14914, Note_on_c, 0, 45, 61
1, 14919, Control_c, 0, 67, 94
1, 14948, Control_c, 0, 67, 92
1, 14963, Control_c, 0, 67, 90
1, 14978, Control_c, 0, 67, 89
1, 14993, Control_c, 0, 67, 88
1, 14996, Note_off_c, 0, 45, 63
1, 15006, Note_on_c, 0, 46, 52
1, 15008, Control_c, 0, 67, 87
1, 15023, Control_c, 0, 67, 86
1, 15035, Note_off_c, 0, 46, 57
1, 15038, Control_c, 0, 67, 86
1, 15049, Note_on_c, 0, 41, 69
1, 15052, Control_c, 0, 67, 85
1, 15082, Control_c, 0, 67, 84
1, 15094, Note_off_c, 0, 41, 63
1, 15097, Control_c, 0, 67, 84
1, 15127, Control_c, 0, 67, 83
1, 15142, Note_on_c, 0, 50, 63
1, 15164, Note_on_c, 0, 48, 38
1, 15179, Note_off_c, 0, 50, 65
1, 15198, Note_off_c, 0, 48, 44
1, 15213, Note_on_c, 0, 49, 66
1, 15215, Control_c, 0, 67, 84
1, 15243, Note_off_c, 0, 49, 65
1, 15270, Note_on_c, 0, 50, 70
1, 15300, Note_off_c, 0, 50, 65
1, 15304, Control_c, 0, 67, 83
1, 15318, Control_c, 0, 67, 82
1, 15333, Note_on_c, 0, 46, 77
1, 15333, Control_c, 0, 67, 80
1, 15348, Control_c, 0, 67, 74
1, 15362, Note_off_c, 0, 46, 67
1, 15363, Control_c, 0, 67, 62
1, 15378, Control_c, 0, 67, 45
1, 15392, Control_c, 0, 67, 20
1, 15399, Note_on_c, 0, 53, 80
1, 15407, Control_c, 0, 67, 0
1, 15459, Note_off_c, 0, 53, 60
1, 15474, Note_on_c, 0, 52, 71
1, 15516, Note_off_c, 0, 52, 61
1, 15549, Note_on_c, 0, 53, 70
1, 15577, Note_off_c, 0, 53, 65
1, 15611, Note_on_c, 0, 50, 73
1, 15646, Note_off_c, 0, 50, 70
1, 15691, Note_on_c, 0, 58, 87
1, 15727, Control_c, 0, 67, 17
1, 15752, Note_off_c, 0, 58, 55
1, 15765, Note_on_c, 0, 57, 79
1, 15827, Note_on_c, 0, 58, 54
1, 15827, Note_off_c, 0, 57, 64
1, 15830, Control_c, 0, 67, 0
1, 15869, Note_off_c, 0, 58, 65
1, 15896, Note_on_c, 0, 53, 77
1, 15927, Note_on_c, 0, 54, 21
1, 15927, Note_off_c, 0, 54, 127
1, 15942, Note_off_c, 0, 53, 63
1, 15965, Note_on_c, 0, 62, 93
1, 16027, Note_off_c, 0, 62, 62
1, 16048, Note_on_c, 0, 61, 85
1, 16083, Note_off_c, 0, 61, 60
1, 16110, Note_on_c, 0, 62, 83
1, 16152, Note_off_c, 0, 62, 63
1, 16170, Note_on_c, 0, 58, 83
1, 16220, Note_off_c, 0, 58, 63
1, 16254, Note_on_c, 0, 65, 98
1, 16387, Control_c, 0, 64, 47
1, 16402, Control_c, 0, 64, 65
1, 16417, Control_c, 0, 64, 71
1, 16432, Control_c, 0, 64, 80
1, 16446, Control_c, 0, 64, 89
1, 16461, Control_c, 0, 64, 101
1, 16476, Control_c, 0, 64, 114
1, 16491, Control_c, 0, 64, 127
1, 16518, Note_off_c, 0, 65, 61
1, 16847, Note_on_c, 0, 63, 74
1, 16876, Control_c, 0, 64, 93
1, 16886, Note_off_c, 0, 63, 61
1, 16890, Control_c, 0, 64, 66
1, 16903, Note_on_c, 0, 62, 72
1, 16905, Control_c, 0, 64, 0
1, 16907, Note_on_c, 0, 77, 82
1, 17181, Note_off_c, 0, 62, 62
1, 17183, Note_on_c, 0, 60, 70
1, 17210, Control_c, 0, 67, 25
1, 17225, Control_c, 0, 67, 28
1, 17240, Control_c, 0, 67, 33
1, 17251, Note_off_c, 0, 60, 61
1, 17255, Control_c, 0, 67, 42
1, 17267, Note_on_c, 0, 58, 59
1, 17269, Control_c, 0, 67, 55
1, 17284, Control_c, 0, 67, 70
1, 17299, Control_c, 0, 67, 80
1, 17314, Control_c, 0, 67, 86
1, 17329, Control_c, 0, 67, 89
1, 17343, Control_c, 0, 67, 90
1, 17358, Control_c, 0, 67, 93
1, 17373, Control_c, 0, 67, 95
1, 17388, Control_c, 0, 67, 95
1, 17528, Note_on_c, 0, 56, 62
1, 17531, Note_off_c, 0, 58, 62
1, 17610, Control_c, 0, 67, 96
1, 17616, Note_on_c, 0, 71, 57
1, 17616, Note_off_c, 0, 56, 62
1, 17619, Note_on_c, 0, 55, 49
1, 17802, Control_c, 0, 67, 95
1, 17832, Control_c, 0, 67, 95
1, 17869, Control_c, 0, 67, 94
1, 17914, Control_c, 0, 67, 94
1, 17944, Control_c, 0, 67, 93
1, 17959, Control_c, 0, 67, 93
1, 17959, Note_on_c, 0, 75, 72
1, 18004, Control_c, 0, 67, 92
1, 18036, Note_off_c, 0, 77, 57
1, 18284, Note_on_c, 0, 72, 49
1, 18287, Note_on_c, 0, 56, 42
1, 18314, Control_c, 0, 67, 93
1, 18317, Note_off_c, 0, 71, 61
1, 18328, Note_off_c, 0, 55, 62
1, 18403, Control_c, 0, 67, 93
1, 18626, Note_on_c, 0, 74, 61
1, 18640, Note_on_c, 0, 54, 34
1, 18644, Note_on_c, 0, 69, 43
1, 18680, Note_off_c, 0, 72, 48
1, 18698, Note_off_c, 0, 56, 50
1, 18718, Note_off_c, 0, 75, 63
1, 18871, Control_c, 0, 67, 94
1, 18957, Note_on_c, 0, 55, 43
1, 18969, Note_on_c, 0, 70, 39
1, 18974, Control_c, 0, 67, 94
1, 18975, Note_off_c, 0, 69, 51
1, 18982, Note_off_c, 0, 54, 47
1, 19048, Control_c, 0, 67, 95
1, 19078, Control_c, 0, 67, 95
1, 19196, Control_c, 0, 67, 96
1, 19270, Control_c, 0, 67, 98
1, 19285, Control_c, 0, 67, 100
1, 19300, Control_c, 0, 67, 105
1, 19302, Note_on_c, 0, 72, 48
1, 19303, Note_on_c, 0, 52, 35
1, 19306, Note_on_c, 0, 67, 30
1, 19315, Control_c, 0, 67, 110
1, 19330, Control_c, 0, 67, 113
1, 19337, Note_off_c, 0, 55, 46
1, 19377, Note_off_c, 0, 70, 45
1, 19459, Note_off_c, 0, 74, 34
1, 19646, Note_on_c, 0, 53, 36
1, 19649, Note_on_c, 0, 69, 36
1, 19658, Note_off_c, 0, 52, 49
1, 19697, Note_off_c, 0, 67, 53
1, 19965, Note_on_c, 0, 71, 63
1, 19978, Note_on_c, 0, 50, 44
1, 19991, Note_on_c, 0, 65, 20
1, 20004, Control_c, 0, 67, 110
1, 20016, Note_off_c, 0, 72, 50
1, 20022, Note_off_c, 0, 53, 36
1, 20027, Note_off_c, 0, 69, 53
1, 20034, Control_c, 0, 67, 107
1, 20048, Control_c, 0, 64, 40
1, 20048, Control_c, 0, 67, 104
1, 20063, Control_c, 0, 64, 57
1, 20063, Control_c, 0, 67, 102
1, 20070, Note_off_c, 0, 50, 65
1, 20078, Control_c, 0, 64, 63
1, 20078, Control_c, 0, 67, 99
1, 20093, Control_c, 0, 64, 65
1, 20093, Control_c, 0, 67, 94
1, 20114, Control_c, 0, 64, 67
1, 20114, Control_c, 0, 67, 91
1, 20129, Control_c, 0, 64, 68
1, 20129, Control_c, 0, 67, 89
1, 20144, Control_c, 0, 64, 70
1, 20144, Control_c, 0, 67, 87
1, 20159, Control_c, 0, 64, 72
1, 20159, Control_c, 0, 67, 87
1, 20174, Control_c, 0, 64, 73
1, 20189, Control_c, 0, 64, 74
1, 20189, Control_c, 0, 67, 87
1, 20203, Control_c, 0, 64, 75
1, 20218, Control_c, 0, 64, 76
1, 20218, Control_c, 0, 67, 88
1, 20233, Control_c, 0, 64, 77
1, 20238, Note_off_c, 0, 71, 65
1, 20243, Note_off_c, 0, 65, 57
1, 20248, Control_c, 0, 64, 78
1, 20263, Control_c, 0, 64, 80
1, 20278, Control_c, 0, 64, 83
1, 20278, Control_c, 0, 67, 87
1, 20293, Note_on_c, 0, 48, 106
1, 20293, Control_c, 0, 64, 86
1, 20293, Control_c, 0, 67, 84
1, 20294, Note_on_c, 0, 72, 91
1, 20296, Note_on_c, 0, 36, 91
1, 20308, Control_c, 0, 64, 87
1, 20308, Control_c, 0, 67, 74
1, 20320, Note_off_c, 0, 36, 66
1, 20323, Note_off_c, 0, 48, 67
1, 20323, Control_c, 0, 64, 84
1, 20323, Control_c, 0, 67, 49
1, 20338, Control_c, 0, 64, 71
1, 20338, Control_c, 0, 67, 0
1, 20352, Control_c, 0, 64, 51
1, 20356, Note_on_c, 0, 67, 76
1, 20367, Control_c, 0, 64, 0
1, 20368, Note_off_c, 0, 72, 61
1, 20404, Note_on_c, 0, 64, 20
1, 20421, Note_off_c, 0, 67, 53
1, 20440, Note_off_c, 0, 64, 46
1, 20451, Note_on_c, 0, 72, 76
1, 20452, Note_on_c, 0, 60, 84
1, 20472, Control_c, 0, 67, 17
1, 20482, Note_off_c, 0, 60, 63
1, 20486, Control_c, 0, 67, 25
1, 20501, Control_c, 0, 67, 30
1, 20502, Note_off_c, 0, 72, 65
1, 20516, Control_c, 0, 67, 34
1, 20525, Note_on_c, 0, 64, 59
1, 20531, Control_c, 0, 67, 37
1, 20545, Control_c, 0, 67, 38
1, 20575, Note_off_c, 0, 64, 59
1, 20602, Note_on_c, 0, 72, 66
1, 20605, Control_c, 0, 67, 37
1, 20609, Note_on_c, 0, 60, 73
1, 20611, Poly_aftertouch_c, 0, 67, 0
1, 20619, Control_c, 0, 67, 36
1, 20633, Note_off_c, 0, 60, 70
1, 20634, Control_c, 0, 67, 36
1, 20639, Note_off_c, 0, 72, 59
1, 20649, Control_c, 0, 67, 35
1, 20693, Note_on_c, 0, 64, 51
1, 20693, Control_c, 0, 67, 34
1, 20719, Note_off_c, 0, 64, 60
1, 20723, Control_c, 0, 67, 33
1, 20737, Control_c, 0, 67, 32
1, 20744, Note_on_c, 0, 74, 74
1, 20746, Note_on_c, 0, 60, 65
1, 20774, Note_off_c, 0, 60, 68
1, 20780, Note_off_c, 0, 74, 54
1, 20782, Control_c, 0, 67, 29
1, 20797, Control_c, 0, 67, 27
1, 20812, Control_c, 0, 67, 24
1, 20820, Note_on_c, 0, 64, 57
1, 20826, Control_c, 0, 67, 20
1, 20841, Control_c, 0, 67, 0
1, 20847, Note_off_c, 0, 64, 64
1, 20877, Note_on_c, 0, 60, 72
1, 20895, Note_on_c, 0, 76, 77
1, 20915, Note_off_c, 0, 60, 61
1, 20943, Note_off_c, 0, 76, 56
1, 20973, Note_on_c, 0, 67, 63
1, 20981, Note_on_c, 0, 70, 44
1, 21002, Note_off_c, 0, 67, 67
1, 21009, Note_off_c, 0, 70, 57
1, 21039, Note_on_c, 0, 72, 66
1, 21046, Note_on_c, 0, 60, 67
1, 21071, Note_off_c, 0, 60, 68
1, 21077, Note_off_c, 0, 72, 56
1, 21113, Note_on_c, 0, 67, 64
1, 21117, Note_on_c, 0, 70, 51
1, 21154, Note_off_c, 0, 67, 63
1, 21159, Note_off_c, 0, 70, 58
1, 21189, Note_on_c, 0, 74, 73
1, 21192, Note_on_c, 0, 60, 71
1, 21217, Note_off_c, 0, 60, 70
1, 21262, Note_off_c, 0, 74, 62
1, 21263, Note_on_c, 0, 67, 73
1, 21312, Note_off_c, 0, 67, 65
1, 21333, Note_on_c, 0, 60, 75
1, 21333, Note_on_c, 0, 76, 80
1, 21354, Note_off_c, 0, 60, 72
1, 21359, Poly_aftertouch_c, 0, 70, 127
1, 21387, Note_on_c, 0, 70, 20
1, 21392, Note_off_c, 0, 76, 62
1, 21407, Note_on_c, 0, 67, 75
1, 21421, Note_off_c, 0, 70, 60
1, 21433, Note_off_c, 0, 67, 66
1, 21462, Note_on_c, 0, 77, 93
1, 21469, Note_on_c, 0, 60, 77
1, 21496, Note_off_c, 0, 60, 66
1, 21519, Note_off_c, 0, 77, 64
1, 21533, Note_on_c, 0, 69, 66
1, 21549, Note_on_c, 0, 65, 72
1, 21563, Note_off_c, 0, 69, 58
1, 21584, Note_off_c, 0, 65, 62
1, 21635, Note_on_c, 0, 77, 73
1, 21640, Note_on_c, 0, 60, 66
1, 21659, Note_off_c, 0, 77, 67
1, 21659, Note_off_c, 0, 60, 66
1, 21688, Note_on_c, 0, 69, 33
1, 21700, Note_on_c, 0, 65, 71
1, 21724, Note_off_c, 0, 69, 53
1, 21745, Note_off_c, 0, 65, 64
1, 21768, Note_on_c, 0, 60, 59
1, 21774, Note_on_c, 0, 77, 76
1, 21800, Note_off_c, 0, 60, 67
1, 21808, Note_off_c, 0, 77, 61
1, 21852, Note_on_c, 0, 65, 71
1, 21857, Note_on_c, 0, 69, 22
1, 21886, Note_off_c, 0, 65, 61
1, 21902, Note_off_c, 0, 69, 42
1, 21915, Note_on_c, 0, 76, 74
1, 21921, Note_on_c, 0, 60, 68
1, 21947, Note_off_c, 0, 60, 69
1, 21957, Note_off_c, 0, 76, 63
1, 21992, Note_on_c, 0, 69, 54
1, 21998, Note_on_c, 0, 65, 62
1, 22018, Note_off_c, 0, 69, 60
1, 22022, Note_off_c, 0, 65, 63
1, 22053, Note_on_c, 0, 60, 71
1, 22057, Note_on_c, 0, 74, 77
1, 22078, Note_off_c, 0, 60, 69
1, 22118, Note_on_c, 0, 65, 73
1, 22125, Note_off_c, 0, 74, 60
1, 22166, Note_off_c, 0, 65, 62
1, 22203, Note_on_c, 0, 72, 71
1, 22211, Note_on_c, 0, 60, 67
1, 22212, Poly_aftertouch_c, 0, 68, 0
1, 22238, Note_off_c, 0, 60, 66
1, 22250, Note_off_c, 0, 72, 46
1, 22280, Note_on_c, 0, 65, 62
1, 22316, Note_off_c, 0, 65, 63
1, 22332, Note_on_c, 0, 71, 66
1, 22348, Note_on_c, 0, 60, 54
1, 22380, Note_off_c, 0, 60, 65
1, 22406, Note_off_c, 0, 71, 54
1, 22415, Note_on_c, 0, 65, 76
1, 22462, Note_off_c, 0, 65, 63
1, 22479, Note_on_c, 0, 60, 73
1, 22493, Note_on_c, 0, 74, 71
1, 22502, Note_off_c, 0, 60, 70
1, 22545, Note_off_c, 0, 74, 59
1, 22558, Note_on_c, 0, 65, 76
1, 22592, Note_off_c, 0, 65, 60
1, 22598, Control_c, 0, 64, 51
1, 22613, Control_c, 0, 64, 69
1, 22614, Note_on_c, 0, 72, 87
1, 22615, Note_on_c, 0, 48, 103
1, 22621, Note_on_c, 0, 36, 87
1, 22628, Control_c, 0, 64, 75
1, 22642, Note_off_c, 0, 48, 69
1, 22642, Control_c, 0, 64, 83
1, 22648, Note_off_c, 0, 36, 67
1, 22657, Control_c, 0, 64, 86
1, 22672, Control_c, 0, 64, 86
1, 22678, Note_off_c, 0, 72, 63
1, 22688, Control_c, 0, 64, 86
1, 22698, Note_on_c, 0, 64, 71
1, 22702, Note_on_c, 0, 67, 50
1, 22703, Control_c, 0, 64, 79
1, 22718, Control_c, 0, 64, 63
1, 22728, Note_off_c, 0, 67, 59
1, 22732, Control_c, 0, 64, 0
1, 22746, Note_off_c, 0, 64, 63
1, 22771, Note_on_c, 0, 60, 69
1, 22776, Note_on_c, 0, 71, 75
1, 22788, Note_off_c, 0, 60, 69
1, 22810, Note_off_c, 0, 71, 54
1, 22847, Note_on_c, 0, 64, 66
1, 22887, Note_off_c, 0, 64, 60
1, 22919, Note_on_c, 0, 72, 69
1, 22920, Note_on_c, 0, 60, 47
1, 22943, Note_off_c, 0, 60, 62
1, 22948, Note_off_c, 0, 72, 62
1, 22991, Note_on_c, 0, 64, 64
1, 23024, Note_off_c, 0, 64, 63
1, 23053, Note_on_c, 0, 74, 74
1, 23059, Note_on_c, 0, 60, 52
1, 23081, Note_off_c, 0, 60, 63
1, 23086, Note_off_c, 0, 74, 61
1, 23134, Note_on_c, 0, 64, 69
1, 23159, Note_off_c, 0, 64, 69
1, 23184, Note_on_c, 0, 60, 63
1, 23200, Note_on_c, 0, 76, 68
1, 23213, Note_off_c, 0, 60, 67
1, 23235, Note_on_c, 0, 74, 22
1, 23235, Note_off_c, 0, 76, 59
1, 23266, Note_on_c, 0, 70, 62
1, 23268, Note_off_c, 0, 74, 31
1, 23271, Note_on_c, 0, 67, 64
1, 23301, Note_off_c, 0, 70, 59
1, 23302, Note_off_c, 0, 67, 65
1, 23333, Note_on_c, 0, 72, 70
1, 23341, Note_on_c, 0, 60, 69
1, 23366, Note_off_c, 0, 60, 70
1, 23393, Note_off_c, 0, 72, 60
1, 23402, Note_on_c, 0, 67, 69
1, 23413, Note_on_c, 0, 70, 63
1, 23450, Note_off_c, 0, 67, 64
1, 23465, Note_off_c, 0, 70, 55
1, 23472, Note_on_c, 0, 74, 84
1, 23477, Note_on_c, 0, 60, 75
1, 23481, Control_c, 0, 64, 34
1, 23497, Control_c, 0, 64, 46
1, 23512, Control_c, 0, 64, 57
1, 23516, Note_off_c, 0, 60, 66
1, 23527, Control_c, 0, 64, 62
1, 23540, Note_on_c, 0, 67, 80
1, 23542, Control_c, 0, 64, 63
1, 23551, Note_off_c, 0, 74, 63
1, 23556, Control_c, 0, 64, 64
1, 23571, Control_c, 0, 64, 65
1, 23586, Control_c, 0, 64, 67
1, 23588, Note_on_c, 0, 70, 33
1, 23601, Control_c, 0, 64, 70
1, 23606, Note_off_c, 0, 67, 60
1, 23614, Note_on_c, 0, 76, 89
1, 23614, Note_on_c, 0, 60, 90
1, 23616, Control_c, 0, 64, 73
1, 23630, Control_c, 0, 64, 77
1, 23645, Control_c, 0, 64, 79
1, 23651, Note_off_c, 0, 60, 62
1, 23654, Note_off_c, 0, 70, 0
1, 23654, Note_on_c, 0, 70, 4
1, 23660, Control_c, 0, 64, 81
1, 23674, Control_c, 0, 64, 82
1, 23679, Note_on_c, 0, 67, 84
1, 23683, Note_off_c, 0, 76, 63
1, 23689, Control_c, 0, 64, 82
1, 23704, Control_c, 0, 64, 80
1, 23709, Note_off_c, 0, 70, 61
1, 23719, Control_c, 0, 64, 69
1, 23734, Note_off_c, 0, 67, 66
1, 23734, Control_c, 0, 64, 46
1, 23748, Note_on_c, 0, 60, 86
1, 23749, Control_c, 0, 64, 0
1, 23751, Note_on_c, 0, 77, 92
1, 23785, Note_off_c, 0, 60, 67
1, 23797, Note_off_c, 0, 77, 63
1, 23812, Note_on_c, 0, 69, 66
1, 23828, Note_on_c, 0, 65, 76
1, 23863, Note_off_c, 0, 69, 63
1, 23866, Note_off_c, 0, 65, 63
1, 23910, Note_on_c, 0, 60, 69
1, 23918, Note_on_c, 0, 77, 69
1, 23936, Note_off_c, 0, 60, 69
1, 23947, Note_off_c, 0, 77, 64
1, 23984, Note_on_c, 0, 69, 38
1, 23994, Note_on_c, 0, 65, 56
1, 24002, Note_on_c, 0, 67, 48
1, 24016, Note_off_c, 0, 69, 50
1, 24021, Note_off_c, 0, 65, 60
1, 24027, Note_off_c, 0, 67, 58
1, 24049, Note_on_c, 0, 60, 61
1, 24054, Note_on_c, 0, 77, 73
1, 24075, Note_off_c, 0, 60, 66
1, 24082, Note_off_c, 0, 77, 62
1, 24123, Note_on_c, 0, 65, 64
1, 24123, Note_on_c, 0, 69, 43
1, 24156, Note_off_c, 0, 69, 52
1, 24172, Note_off_c, 0, 65, 62
1, 24183, Note_on_c, 0, 60, 64
1, 24196, Note_on_c, 0, 76, 74
1, 24209, Note_off_c, 0, 60, 68
1, 24235, Note_off_c, 0, 76, 60
1, 24256, Note_on_c, 0, 69, 69
1, 24283, Note_on_c, 0, 65, 56
1, 24285, Note_off_c, 0, 69, 65
1, 24309, Note_off_c, 0, 65, 56
1, 24330, Note_on_c, 0, 60, 70
1, 24339, Note_on_c, 0, 74, 78
1, 24355, Note_off_c, 0, 60, 69
1, 24394, Note_off_c, 0, 74, 61
1, 24408, Note_on_c, 0, 68, 67
1, 24415, Note_on_c, 0, 65, 58
1, 24442, Note_off_c, 0, 65, 64
1, 24473, Note_off_c, 0, 68, 57
1, 24475, Note_on_c, 0, 72, 74
1, 24476, Note_on_c, 0, 60, 67
1, 24500, Note_off_c, 0, 60, 65
1, 24532, Note_off_c, 0, 72, 52
1, 24548, Note_on_c, 0, 65, 69
1, 24591, Note_off_c, 0, 65, 60
1, 24617, Note_on_c, 0, 60, 57
1, 24618, Note_on_c, 0, 71, 69
1, 24647, Note_off_c, 0, 60, 66
1, 24696, Note_on_c, 0, 65, 73
1, 24697, Note_off_c, 0, 71, 61
1, 24733, Note_off_c, 0, 65, 61
1, 24743, Note_on_c, 0, 68, 35
1, 24753, Note_on_c, 0, 60, 73
1, 24767, Note_on_c, 0, 74, 70
1, 24776, Note_off_c, 0, 60, 70
1, 24809, Note_off_c, 0, 74, 63
1, 24824, Note_off_c, 0, 68, 61
1, 24830, Note_on_c, 0, 65, 80
1, 24857, Note_off_c, 0, 65, 64
1, 24860, Control_c, 0, 64, 35
1, 24874, Control_c, 0, 64, 34
1, 24883, Note_on_c, 0, 72, 89
1, 24887, Note_on_c, 0, 48, 91
1, 24889, Control_c, 0, 64, 0
1, 24913, Note_off_c, 0, 48, 66
1, 24950, Note_off_c, 0, 72, 62
1, 24965, Note_on_c, 0, 64, 76
1, 25012, Note_on_c, 0, 67, 9
1, 25015, Note_off_c, 0, 64, 62
1, 25021, Note_on_c, 0, 72, 77
1, 25028, Note_on_c, 0, 60, 81
1, 25056, Note_off_c, 0, 60, 63
1, 25072, Note_off_c, 0, 72, 65
1, 25097, Note_off_c, 0, 67, 52
1, 25105, Note_on_c, 0, 64, 72
1, 25132, Note_off_c, 0, 64, 66
1, 25168, Note_on_c, 0, 71, 74
1, 25173, Note_on_c, 0, 60, 80
1, 25196, Note_off_c, 0, 60, 68
1, 25217, Note_off_c, 0, 71, 63
1, 25232, Note_on_c, 0, 68, 48
1, 25245, Note_on_c, 0, 65, 70
1, 25258, Note_off_c, 0, 68, 60
1, 25289, Note_off_c, 0, 65, 64
1, 25303, Note_on_c, 0, 60, 84
1, 25313, Note_on_c, 0, 74, 77
1, 25331, Note_off_c, 0, 60, 65
1, 25361, Note_on_c, 0, 68, 46
1, 25367, Note_off_c, 0, 74, 62
1, 25390, Note_on_c, 0, 65, 85
1, 25390, Note_off_c, 0, 68, 60
1, 25426, Note_off_c, 0, 65, 58
1, 25441, Note_on_c, 0, 48, 94
1, 25444, Note_on_c, 0, 72, 94
1, 25458, Note_on_c, 0, 50, 63
1, 25458, Note_off_c, 0, 50, 127
1, 25477, Note_off_c, 0, 48, 67
1, 25519, Note_off_c, 0, 72, 59
1, 25523, Note_on_c, 0, 64, 84
1, 25542, Note_on_c, 0, 67, 44
1, 25580, Note_off_c, 0, 64, 59
1, 25590, Note_on_c, 0, 72, 77
1, 25594, Note_on_c, 0, 60, 82
1, 25594, Note_off_c, 0, 67, 0
1, 25594, Note_on_c, 0, 67, 16
1, 25616, Note_off_c, 0, 60, 68
1, 25627, Note_off_c, 0, 67, 56
1, 25643, Note_off_c, 0, 72, 66
1, 25658, Note_on_c, 0, 64, 83
1, 25703, Note_off_c, 0, 64, 64
1, 25728, Note_on_c, 0, 60, 79
1, 25730, Note_on_c, 0, 71, 78
1, 25756, Note_off_c, 0, 60, 63
1, 25784, Note_off_c, 0, 71, 64
1, 25793, Note_on_c, 0, 65, 86
1, 25806, Poly_aftertouch_c, 0, 68, 127
1, 25828, Poly_aftertouch_c, 0, 68, 0
1, 25860, Note_on_c, 0, 74, 85
1, 25864, Note_on_c, 0, 60, 79
1, 25868, Note_off_c, 0, 65, 61
1, 25876, Note_on_c, 0, 68, 65
1, 25906, Note_off_c, 0, 60, 65
1, 25908, Note_off_c, 0, 68, 65
1, 25926, Note_off_c, 0, 74, 62
1, 25942, Note_on_c, 0, 65, 89
1, 25964, Note_off_c, 0, 65, 71
1, 26007, Note_on_c, 0, 64, 85
1, 26007, Note_on_c, 0, 72, 87
1, 26009, Note_on_c, 0, 48, 82
1, 26013, Note_on_c, 0, 67, 85
1, 26025, Control_c, 0, 64, 39
1, 26040, Control_c, 0, 64, 60
1, 26055, Control_c, 0, 64, 64
1, 26061, Note_off_c, 0, 72, 61
1, 26069, Control_c, 0, 64, 65
1, 26076, Note_off_c, 0, 64, 62
1, 26084, Note_off_c, 0, 67, 64
1, 26112, Note_on_c, 0, 60, 88
1, 26121, Control_c, 0, 64, 64
1, 26136, Control_c, 0, 64, 64
1, 26151, Control_c, 0, 64, 63
1, 26165, Control_c, 0, 64, 62
1, 26167, Note_off_c, 0, 60, 65
1, 26180, Control_c, 0, 64, 61
1, 26186, Note_on_c, 0, 62, 81
1, 26195, Control_c, 0, 64, 61
1, 26210, Control_c, 0, 64, 60
1, 26225, Control_c, 0, 64, 60
1, 26240, Control_c, 0, 64, 59
1, 26249, Note_on_c, 0, 64, 81
1, 26255, Control_c, 0, 64, 58
1, 26257, Note_off_c, 0, 62, 63
1, 26270, Control_c, 0, 64, 57
1, 26284, Control_c, 0, 64, 56
1, 26299, Control_c, 0, 64, 55
1, 26300, Note_off_c, 0, 64, 63
1, 26312, Note_on_c, 0, 65, 88
1, 26314, Control_c, 0, 64, 54
1, 26329, Control_c, 0, 64, 53
1, 26344, Control_c, 0, 64, 50
1, 26358, Control_c, 0, 64, 47
1, 26373, Control_c, 0, 64, 46
1, 26384, Note_on_c, 0, 67, 82
1, 26390, Note_off_c, 0, 65, 64
1, 26403, Control_c, 0, 64, 46
1, 26442, Note_on_c, 0, 69, 82
1, 26447, Control_c, 0, 64, 47
1, 26448, Note_off_c, 0, 67, 60
1, 26462, Control_c, 0, 64, 48
1, 26476, Control_c, 0, 64, 52
1, 26487, Note_off_c, 0, 69, 66
1, 26491, Control_c, 0, 64, 56
1, 26506, Control_c, 0, 64, 56
1, 26512, Note_on_c, 0, 71, 87
1, 26521, Control_c, 0, 64, 49
1, 26536, Control_c, 0, 64, 0
1, 26538, Note_off_c, 0, 48, 64
1, 26550, Control_c, 0, 67, 18
1, 26565, Control_c, 0, 67, 22
1, 26571, Note_off_c, 0, 71, 60
1, 26580, Note_on_c, 0, 72, 83
1, 26580, Control_c, 0, 67, 25
1, 26595, Control_c, 0, 67, 30
1, 26609, Control_c, 0, 67, 35
1, 26624, Control_c, 0, 67, 40
1, 26632, Note_off_c, 0, 72, 67
1, 26639, Control_c, 0, 67, 46
1, 26648, Note_on_c, 0, 71, 77
1, 26654, Control_c, 0, 67, 52
1, 26670, Control_c, 0, 67, 58
1, 26685, Control_c, 0, 67, 67
1, 26699, Control_c, 0, 67, 77
1, 26705, Note_off_c, 0, 71, 61
1, 26714, Note_on_c, 0, 72, 74
1, 26714, Control_c, 0, 67, 89
1, 26729, Control_c, 0, 67, 99
1, 26744, Control_c, 0, 67, 106
1, 26759, Control_c, 0, 67, 109
1, 26766, Note_off_c, 0, 72, 66
1, 26796, Note_on_c, 0, 71, 71
1, 26803, Control_c, 0, 67, 111
1, 26818, Control_c, 0, 67, 113
1, 26833, Control_c, 0, 67, 115
1, 26836, Note_off_c, 0, 71, 55
1, 26866, Note_on_c, 0, 72, 65
1, 26905, Note_off_c, 0, 72, 58
1, 26948, Note_on_c, 0, 71, 63
1, 26976, Note_off_c, 0, 71, 61
1, 27012, Note_on_c, 0, 72, 64
1, 27046, Note_off_c, 0, 72, 62
1, 27065, Note_on_c, 0, 71, 58
1, 27176, Note_on_c, 0, 72, 71
1, 27177, Note_off_c, 0, 71, 61
1, 27188, Note_on_c, 0, 69, 53
1, 27263, Note_on_c, 0, 53, 59
1, 27328, Note_on_c, 0, 55, 49
1, 27329, Note_off_c, 0, 53, 61
1, 27329, Control_c, 0, 67, 117
1, 27359, Control_c, 0, 67, 123
1, 27361, Note_off_c, 0, 55, 63
1, 27374, Control_c, 0, 67, 127
1, 27384, Note_on_c, 0, 57, 58
1, 27430, Note_off_c, 0, 57, 62
1, 27453, Note_on_c, 0, 58, 63
1, 27502, Note_off_c, 0, 58, 62
1, 27539, Note_on_c, 0, 60, 60
1, 27567, Note_off_c, 0, 60, 67
1, 27612, Note_on_c, 0, 62, 48
1, 27647, Note_off_c, 0, 62, 58
1, 27687, Note_on_c, 0, 64, 25
1, 27700, Note_off_c, 0, 69, 43
1, 27720, Note_off_c, 0, 64, 56
1, 27748, Note_off_c, 0, 72, 64
1, 27768, Note_on_c, 0, 65, 63
1, 27769, Note_on_c, 0, 69, 65
1, 27813, Note_off_c, 0, 65, 60
1, 27839, Note_on_c, 0, 64, 39
1, 27895, Note_off_c, 0, 64, 63
1, 27924, Note_on_c, 0, 65, 60
1, 27958, Note_off_c, 0, 65, 61
1, 28010, Note_on_c, 0, 64, 42
1, 28036, Note_off_c, 0, 64, 57
1, 28046, Note_off_c, 0, 69, 53
1, 28070, Note_on_c, 0, 65, 53
1, 28071, Note_on_c, 0, 77, 73
1, 28109, Note_off_c, 0, 65, 56
1, 28136, Note_on_c, 0, 64, 51
1, 28180, Note_off_c, 0, 64, 60
1, 28222, Note_on_c, 0, 65, 57
1, 28269, Note_off_c, 0, 65, 60
1, 28296, Note_on_c, 0, 64, 51
1, 28325, Note_off_c, 0, 64, 57
1, 28368, Note_on_c, 0, 69, 50
1, 28371, Note_on_c, 0, 72, 55
1, 28376, Note_off_c, 0, 77, 56
1, 28383, Note_on_c, 0, 65, 54
1, 28436, Note_off_c, 0, 65, 58
1, 28442, Control_c, 0, 64, 34
1, 28451, Note_on_c, 0, 64, 44
1, 28457, Control_c, 0, 64, 39
1, 28472, Control_c, 0, 64, 45
1, 28486, Control_c, 0, 64, 50
1, 28496, Note_off_c, 0, 64, 48
1, 28501, Control_c, 0, 64, 53
1, 28516, Control_c, 0, 64, 55
1, 28520, Note_off_c, 0, 69, 60
1, 28531, Control_c, 0, 64, 56
1, 28535, Note_on_c, 0, 65, 54
1, 28546, Control_c, 0, 64, 56
1, 28560, Control_c, 0, 64, 57
1, 28575, Control_c, 0, 64, 57
1, 28577, Note_off_c, 0, 65, 50
1, 28590, Control_c, 0, 64, 58
1, 28598, Note_on_c, 0, 64, 53
1, 28604, Control_c, 0, 64, 57
1, 28619, Control_c, 0, 64, 55
1, 28634, Control_c, 0, 64, 52
1, 28642, Note_off_c, 0, 64, 61
1, 28649, Control_c, 0, 64, 47
1, 28657, Note_on_c, 0, 81, 78
1, 28660, Note_off_c, 0, 72, 62
1, 28664, Note_on_c, 0, 77, 61
1, 28664, Control_c, 0, 64, 41
1, 28678, Note_on_c, 0, 65, 53
1, 28678, Control_c, 0, 64, 36
1, 28693, Control_c, 0, 64, 34
1, 28708, Control_c, 0, 64, 33
1, 28726, Note_off_c, 0, 65, 62
1, 28750, Note_on_c, 0, 64, 51
1, 28753, Control_c, 0, 64, 33
1, 28768, Control_c, 0, 64, 34
1, 28782, Control_c, 0, 64, 37
1, 28789, Note_off_c, 0, 64, 55
1, 28797, Control_c, 0, 64, 41
1, 28812, Control_c, 0, 64, 45
1, 28823, Note_on_c, 0, 65, 59
1, 28827, Control_c, 0, 64, 49
1, 28842, Control_c, 0, 64, 51
1, 28857, Control_c, 0, 64, 51
1, 28867, Note_off_c, 0, 65, 57
1, 28871, Control_c, 0, 64, 51
1, 28886, Control_c, 0, 64, 49
1, 28889, Note_on_c, 0, 64, 54
1, 28901, Control_c, 0, 64, 43
1, 28916, Control_c, 0, 64, 32
1, 28931, Control_c, 0, 64, 0
1, 28933, Note_off_c, 0, 64, 56
1, 28949, Note_on_c, 0, 72, 76
1, 28958, Note_on_c, 0, 69, 66
1, 28965, Note_on_c, 0, 65, 59
1, 29018, Note_off_c, 0, 65, 59
1, 29019, Control_c, 0, 64, 36
1, 29034, Control_c, 0, 64, 48
1, 29036, Note_on_c, 0, 64, 56
1, 29049, Control_c, 0, 64, 56
1, 29049, Control_c, 0, 67, 115
1, 29055, Note_off_c, 0, 69, 61
1, 29064, Control_c, 0, 64, 60
1, 29064, Control_c, 0, 67, 104
1, 29068, Note_off_c, 0, 77, 29
1, 29080, Control_c, 0, 64, 62
1, 29080, Control_c, 0, 67, 95
1, 29083, Note_off_c, 0, 64, 59
1, 29101, Control_c, 0, 64, 63
1, 29101, Control_c, 0, 67, 89
1, 29114, Note_off_c, 0, 81, 42
1, 29116, Control_c, 0, 64, 65
1, 29116, Control_c, 0, 67, 84
1, 29120, Note_on_c, 0, 65, 60
1, 29131, Control_c, 0, 64, 66
1, 29131, Control_c, 0, 67, 78
1, 29146, Control_c, 0, 64, 67
1, 29146, Control_c, 0, 67, 71
1, 29159, Note_off_c, 0, 72, 65
1, 29161, Control_c, 0, 64, 69
1, 29161, Control_c, 0, 67, 65
1, 29176, Control_c, 0, 64, 70
1, 29176, Control_c, 0, 67, 60
1, 29180, Note_off_c, 0, 65, 61
1, 29191, Control_c, 0, 67, 59
1, 29200, Note_on_c, 0, 64, 52
1, 29221, Control_c, 0, 64, 69
1, 29235, Control_c, 0, 64, 63
1, 29246, Note_on_c, 0, 84, 96
1, 29247, Note_off_c, 0, 64, 60
1, 29250, Control_c, 0, 64, 52
1, 29265, Control_c, 0, 64, 38
1, 29265, Control_c, 0, 67, 60
1, 29268, Note_on_c, 0, 81, 69
1, 29280, Control_c, 0, 64, 32
1, 29283, Note_on_c, 0, 65, 63
1, 29295, Control_c, 0, 64, 36
1, 29309, Control_c, 0, 64, 48
1, 29309, Control_c, 0, 67, 60
1, 29324, Control_c, 0, 64, 60
1, 29328, Note_off_c, 0, 65, 61
1, 29339, Control_c, 0, 64, 65
1, 29339, Control_c, 0, 67, 61
1, 29347, Note_on_c, 0, 64, 63
1, 29354, Control_c, 0, 64, 68
1, 29368, Control_c, 0, 64, 70
1, 29383, Control_c, 0, 64, 72
1, 29388, Note_off_c, 0, 81, 64
1, 29391, Note_off_c, 0, 84, 64
1, 29397, Note_off_c, 0, 64, 62
1, 29398, Control_c, 0, 64, 73
1, 29427, Control_c, 0, 67, 60
1, 29429, Note_on_c, 0, 65, 66
1, 29457, Control_c, 0, 67, 60
1, 29473, Note_off_c, 0, 65, 63
1, 29490, Note_on_c, 0, 64, 65
1, 29522, Note_off_c, 0, 64, 62
1, 29531, Control_c, 0, 64, 72
1, 29546, Control_c, 0, 64, 69
1, 29560, Note_on_c, 0, 72, 75
1, 29561, Control_c, 0, 64, 65
1, 29561, Control_c, 0, 67, 60
1, 29575, Note_on_c, 0, 69, 62
1, 29575, Control_c, 0, 64, 59
1, 29576, Note_on_c, 0, 65, 73
1, 29590, Control_c, 0, 64, 54
1, 29590, Control_c, 0, 67, 61
1, 29599, Note_off_c, 0, 65, 70
1, 29605, Control_c, 0, 64, 49
1, 29620, Control_c, 0, 64, 44
1, 29635, Control_c, 0, 64, 38
1, 29650, Control_c, 0, 64, 32
1, 29650, Note_on_c, 0, 53, 75
1, 29665, Control_c, 0, 64, 0
1, 29739, Note_on_c, 0, 55, 59
1, 29739, Control_c, 0, 67, 61
1, 29744, Note_off_c, 0, 53, 63
1, 29768, Control_c, 0, 67, 62
1, 29778, Note_off_c, 0, 55, 62
1, 29783, Control_c, 0, 67, 62
1, 29797, Note_on_c, 0, 57, 67
1, 29813, Control_c, 0, 67, 63
1, 29837, Note_off_c, 0, 57, 63
1, 29867, Note_on_c, 0, 58, 70
1, 29880, Control_c, 0, 67, 62
1, 29915, Note_off_c, 0, 58, 61
1, 29939, Note_on_c, 0, 60, 64
1, 29966, Note_off_c, 0, 60, 68
1, 29984, Control_c, 0, 67, 62
1, 30003, Note_on_c, 0, 62, 66
1, 30045, Note_off_c, 0, 69, 57
1, 30051, Note_off_c, 0, 62, 60
1, 30085, Note_on_c, 0, 64, 53
1, 30117, Note_off_c, 0, 64, 65
1, 30157, Note_on_c, 0, 65, 69
1, 30159, Note_on_c, 0, 69, 62
1, 30174, Note_off_c, 0, 72, 62
1, 30203, Note_off_c, 0, 65, 58
1, 30234, Note_on_c, 0, 64, 49
1, 30278, Note_off_c, 0, 64, 60
1, 30280, Control_c, 0, 67, 61
1, 30295, Control_c, 0, 64, 33
1, 30310, Control_c, 0, 64, 35
1, 30319, Note_on_c, 0, 65, 57
1, 30324, Control_c, 0, 64, 38
1, 30339, Control_c, 0, 64, 40
1, 30339, Control_c, 0, 67, 61
1, 30354, Control_c, 0, 64, 41
1, 30355, Note_off_c, 0, 65, 54
1, 30368, Control_c, 0, 64, 41
1, 30383, Control_c, 0, 64, 39
1, 30393, Note_on_c, 0, 64, 53
1, 30398, Control_c, 0, 64, 37
1, 30413, Control_c, 0, 64, 36
1, 30426, Note_off_c, 0, 64, 62
1, 30428, Control_c, 0, 64, 35
1, 30428, Control_c, 0, 67, 60
1, 30443, Control_c, 0, 67, 60
1, 30443, Note_off_c, 0, 69, 55
1, 30452, Note_on_c, 0, 77, 71
1, 30458, Control_c, 0, 64, 35
1, 30473, Control_c, 0, 64, 34
1, 30473, Control_c, 0, 67, 59
1, 30488, Control_c, 0, 64, 33
1, 30488, Note_on_c, 0, 65, 39
1, 30517, Control_c, 0, 64, 34
1, 30532, Control_c, 0, 64, 35
1, 30538, Note_off_c, 0, 65, 48
1, 30544, Note_on_c, 0, 64, 41
1, 30547, Control_c, 0, 64, 36
1, 30562, Control_c, 0, 64, 36
1, 30576, Control_c, 0, 64, 37
1, 30599, Control_c, 0, 64, 39
1, 30613, Note_off_c, 0, 64, 51
1, 30614, Control_c, 0, 64, 41
1, 30629, Control_c, 0, 64, 45
1, 30644, Control_c, 0, 64, 50
1, 30647, Note_on_c, 0, 65, 40
1, 30658, Control_c, 0, 64, 52
1, 30658, Control_c, 0, 67, 60
1, 30674, Control_c, 0, 64, 52
1, 30688, Note_off_c, 0, 65, 49
1, 30689, Control_c, 0, 64, 51
1, 30704, Control_c, 0, 64, 50
1, 30719, Control_c, 0, 64, 48
1, 30734, Control_c, 0, 64, 46
1, 30734, Control_c, 0, 67, 59
1, 30743, Note_on_c, 0, 64, 31
1, 30748, Control_c, 0, 67, 59
1, 30758, Note_on_c, 0, 69, 57
1, 30759, Note_on_c, 0, 72, 68
1, 30763, Control_c, 0, 67, 58
1, 30774, Note_off_c, 0, 64, 48
1, 30778, Control_c, 0, 64, 48
1, 30778, Control_c, 0, 67, 57
1, 30792, Note_on_c, 0, 65, 54
1, 30793, Control_c, 0, 64, 50
1, 30793, Control_c, 0, 67, 54
1, 30799, Note_off_c, 0, 77, 56
1, 30807, Control_c, 0, 64, 53
1, 30807, Control_c, 0, 67, 50
1, 30822, Control_c, 0, 64, 55
1, 30822, Control_c, 0, 67, 48
1, 30837, Control_c, 0, 64, 56
1, 30837, Control_c, 0, 67, 47
1, 30850, Note_off_c, 0, 65, 58
1, 30852, Control_c, 0, 64, 57
1, 30852, Control_c, 0, 67, 45
1, 30864, Note_on_c, 0, 64, 50
1, 30867, Control_c, 0, 64, 57
1, 30867, Control_c, 0, 67, 42
1, 30880, Note_off_c, 0, 69, 61
1, 30881, Control_c, 0, 64, 58
1, 30881, Control_c, 0, 67, 38
1, 30896, Control_c, 0, 64, 59
1, 30896, Control_c, 0, 67, 33
1, 30910, Note_off_c, 0, 64, 61
1, 30911, Control_c, 0, 64, 59
1, 30911, Control_c, 0, 67, 29
1, 30926, Control_c, 0, 64, 60
1, 30926, Control_c, 0, 67, 26
1, 30940, Note_on_c, 0, 65, 53
1, 30941, Control_c, 0, 64, 61
1, 30956, Control_c, 0, 64, 61
1, 30956, Control_c, 0, 67, 24
1, 30970, Control_c, 0, 64, 62
1, 30985, Control_c, 0, 64, 61
1, 30993, Note_off_c, 0, 65, 59
1, 31000, Control_c, 0, 64, 60
1, 31000, Control_c, 0, 67, 22
1, 31012, Note_on_c, 0, 64, 58
1, 31015, Control_c, 0, 64, 58
1, 31030, Control_c, 0, 64, 54
1, 31043, Note_on_c, 0, 81, 75
1, 31045, Control_c, 0, 64, 51
1, 31045, Control_c, 0, 67, 19
1, 31051, Note_on_c, 0, 77, 64
1, 31055, Note_off_c, 0, 72, 63
1, 31060, Control_c, 0, 64, 49
1, 31061, Note_off_c, 0, 64, 60
1, 31074, Control_c, 0, 64, 46
1, 31074, Control_c, 0, 67, 17
1, 31089, Control_c, 0, 64, 44
1, 31092, Note_on_c, 0, 65, 59
1, 31104, Control_c, 0, 64, 43
1, 31134, Control_c, 0, 64, 45
1, 31141, Note_off_c, 0, 65, 59
1, 31148, Control_c, 0, 64, 47
1, 31162, Note_on_c, 0, 64, 59
1, 31163, Control_c, 0, 64, 51
1, 31178, Control_c, 0, 64, 55
1, 31192, Control_c, 0, 64, 57
1, 31203, Note_off_c, 0, 64, 61
1, 31207, Control_c, 0, 64, 58
1, 31222, Control_c, 0, 64, 59
1, 31232, Note_on_c, 0, 65, 62
1, 31252, Control_c, 0, 64, 58
1, 31267, Control_c, 0, 64, 53
1, 31281, Control_c, 0, 64, 45
1, 31283, Note_off_c, 0, 65, 58
1, 31295, Note_on_c, 0, 64, 53
1, 31296, Control_c, 0, 64, 35
1, 31310, Control_c, 0, 64, 0
1, 31310, Control_c, 0, 67, 0
1, 31346, Note_on_c, 0, 72, 73
1, 31351, Note_off_c, 0, 64, 59
1, 31355, Note_on_c, 0, 69, 63
1, 31363, Control_c, 0, 64, 38
1, 31378, Control_c, 0, 64, 50
1, 31379, Note_on_c, 0, 65, 58
1, 31393, Control_c, 0, 64, 59
1, 31407, Control_c, 0, 64, 62
1, 31422, Control_c, 0, 64, 63
1, 31437, Note_off_c, 0, 69, 60
1, 31437, Note_off_c, 0, 65, 62
1, 31437, Control_c, 0, 64, 64
1, 31451, Note_on_c, 0, 64, 56
1, 31452, Control_c, 0, 64, 65
1, 31468, Control_c, 0, 64, 66
1, 31483, Control_c, 0, 64, 69
1, 31497, Control_c, 0, 64, 71
1, 31503, Note_off_c, 0, 64, 59
1, 31512, Control_c, 0, 64, 73
1, 31513, Note_off_c, 0, 72, 64
1, 31515, Note_off_c, 0, 77, 56
1, 31522, Note_on_c, 0, 65, 64
1, 31527, Control_c, 0, 64, 75
1, 31533, Note_off_c, 0, 81, 62
1, 31542, Control_c, 0, 64, 76
1, 31571, Control_c, 0, 64, 75
1, 31586, Control_c, 0, 64, 69
1, 31590, Note_off_c, 0, 65, 63
1, 31599, Note_on_c, 0, 64, 57
1, 31601, Control_c, 0, 64, 61
1, 31616, Control_c, 0, 64, 54
1, 31630, Control_c, 0, 64, 54
1, 31637, Note_on_c, 0, 84, 89
1, 31638, Note_off_c, 0, 64, 66
1, 31645, Control_c, 0, 64, 57
1, 31647, Note_on_c, 0, 81, 78
1, 31660, Control_c, 0, 64, 61
1, 31675, Control_c, 0, 64, 65
1, 31678, Note_on_c, 0, 65, 63
1, 31689, Control_c, 0, 64, 67
1, 31704, Control_c, 0, 64, 69
1, 31713, Note_off_c, 0, 65, 60
1, 31717, Note_off_c, 0, 81, 64
1, 31719, Control_c, 0, 64, 70
1, 31732, Note_off_c, 0, 84, 65
1, 31734, Control_c, 0, 64, 70
1, 31746, Note_on_c, 0, 63, 63
1, 31803, Note_off_c, 0, 63, 58
1, 31819, Note_on_c, 0, 65, 68
1, 31876, Note_off_c, 0, 65, 61
1, 31883, Control_c, 0, 67, 17
1, 31887, Note_on_c, 0, 63, 65
1, 31912, Control_c, 0, 64, 70
1, 31912, Control_c, 0, 67, 22
1, 31927, Control_c, 0, 64, 67
1, 31927, Control_c, 0, 67, 25
1, 31936, Note_off_c, 0, 63, 57
1, 31941, Control_c, 0, 64, 62
1, 31941, Control_c, 0, 67, 28
1, 31949, Note_on_c, 0, 78, 80
1, 31956, Control_c, 0, 64, 55
1, 31956, Control_c, 0, 67, 30
1, 31957, Note_on_c, 0, 72, 54
1, 31958, Note_on_c, 0, 74, 59
1, 31968, Note_on_c, 0, 61, 69
1, 31969, Note_on_c, 0, 69, 52
1, 31971, Control_c, 0, 64, 46
1, 31971, Control_c, 0, 67, 33
1, 31986, Control_c, 0, 64, 39
1, 31986, Control_c, 0, 67, 36
1, 32001, Control_c, 0, 64, 32
1, 32001, Control_c, 0, 67, 40
1, 32015, Control_c, 0, 64, 0
1, 32015, Control_c, 0, 67, 44
1, 32030, Control_c, 0, 67, 46
1, 32032, Note_off_c, 0, 61, 60
1, 32045, Control_c, 0, 67, 48
1, 32057, Note_on_c, 0, 62, 63
1, 32060, Control_c, 0, 67, 50
1, 32075, Control_c, 0, 67, 52
1, 32096, Control_c, 0, 67, 53
1, 32098, Note_off_c, 0, 62, 61
1, 32109, Note_on_c, 0, 61, 54
1, 32111, Control_c, 0, 67, 54
1, 32126, Control_c, 0, 67, 57
1, 32141, Control_c, 0, 67, 60
1, 32148, Note_off_c, 0, 61, 64
1, 32155, Control_c, 0, 67, 66
1, 32170, Control_c, 0, 67, 75
1, 32178, Note_on_c, 0, 62, 69
1, 32185, Control_c, 0, 67, 85
1, 32200, Control_c, 0, 67, 90
1, 32210, Note_off_c, 0, 62, 63
1, 32215, Control_c, 0, 67, 95
1, 32229, Control_c, 0, 67, 99
1, 32261, Note_on_c, 0, 59, 68
1, 32311, Note_off_c, 0, 59, 56
1, 32348, Note_on_c, 0, 60, 53
1, 32349, Control_c, 0, 67, 97
1, 32373, Note_off_c, 0, 60, 55
1, 32407, Note_on_c, 0, 59, 47
1, 32423, Control_c, 0, 64, 36
1, 32423, Control_c, 0, 67, 96
1, 32437, Control_c, 0, 64, 42
1, 32440, Note_off_c, 0, 59, 65
1, 32452, Control_c, 0, 64, 45
1, 32467, Control_c, 0, 64, 45
1, 32475, Note_on_c, 0, 60, 59
1, 32482, Control_c, 0, 64, 45
1, 32497, Control_c, 0, 64, 43
1, 32506, Note_off_c, 0, 60, 66
1, 32512, Control_c, 0, 64, 41
1, 32526, Control_c, 0, 64, 39
1, 32541, Control_c, 0, 64, 38
1, 32547, Note_on_c, 0, 56, 61
1, 32556, Control_c, 0, 64, 38
1, 32584, Note_off_c, 0, 56, 63
1, 32616, Control_c, 0, 64, 38
1, 32631, Control_c, 0, 64, 40
1, 32632, Note_on_c, 0, 57, 45
1, 32645, Control_c, 0, 64, 41
1, 32660, Control_c, 0, 64, 43
1, 32661, Note_off_c, 0, 57, 56
1, 32675, Control_c, 0, 64, 44
1, 32688, Note_on_c, 0, 56, 59
1, 32690, Control_c, 0, 64, 47
1, 32705, Control_c, 0, 64, 50
1, 32705, Control_c, 0, 67, 95
1, 32712, Note_off_c, 0, 56, 62
1, 32719, Control_c, 0, 64, 54
1, 32719, Control_c, 0, 67, 94
1, 32734, Control_c, 0, 64, 57
1, 32734, Control_c, 0, 67, 94
1, 32743, Note_on_c, 0, 57, 68
1, 32749, Control_c, 0, 64, 58
1, 32749, Control_c, 0, 67, 92
1, 32763, Control_c, 0, 67, 91
1, 32771, Note_off_c, 0, 57, 66
1, 32778, Control_c, 0, 64, 58
1, 32778, Control_c, 0, 67, 89
1, 32793, Control_c, 0, 64, 54
1, 32793, Control_c, 0, 67, 89
1, 32808, Control_c, 0, 64, 46
1, 32808, Control_c, 0, 67, 88
1, 32813, Note_on_c, 0, 53, 68
1, 32823, Control_c, 0, 64, 34
1, 32839, Control_c, 0, 64, 0
1, 32873, Note_off_c, 0, 53, 63
1, 32895, Note_on_c, 0, 54, 52
1, 32919, Note_off_c, 0, 54, 58
1, 32920, Control_c, 0, 64, 33
1, 32935, Control_c, 0, 64, 38
1, 32949, Note_on_c, 0, 53, 49
1, 32950, Control_c, 0, 64, 45
1, 32965, Control_c, 0, 64, 54
1, 32979, Control_c, 0, 64, 59
1, 32982, Note_off_c, 0, 53, 63
1, 32993, Note_on_c, 0, 54, 71
1, 32994, Control_c, 0, 64, 61
1, 33009, Control_c, 0, 64, 62
1, 33024, Control_c, 0, 64, 63
1, 33036, Note_off_c, 0, 54, 62
1, 33039, Control_c, 0, 64, 64
1, 33039, Control_c, 0, 67, 87
1, 33053, Control_c, 0, 64, 63
1, 33053, Control_c, 0, 67, 86
1, 33069, Control_c, 0, 64, 58
1, 33069, Control_c, 0, 67, 81
1, 33084, Control_c, 0, 64, 49
1, 33084, Control_c, 0, 67, 75
1, 33098, Note_on_c, 0, 49, 72
1, 33099, Control_c, 0, 64, 37
1, 33099, Control_c, 0, 67, 66
1, 33114, Control_c, 0, 64, 0
1, 33114, Control_c, 0, 67, 59
1, 33129, Control_c, 0, 67, 53
1, 33143, Control_c, 0, 67, 48
1, 33153, Note_off_c, 0, 49, 59
1, 33158, Control_c, 0, 64, 34
1, 33158, Control_c, 0, 67, 42
1, 33173, Control_c, 0, 64, 47
1, 33173, Control_c, 0, 67, 36
1, 33183, Note_on_c, 0, 50, 62
1, 33188, Control_c, 0, 64, 57
1, 33188, Control_c, 0, 67, 32
1, 33202, Note_off_c, 0, 72, 56
1, 33202, Control_c, 0, 64, 61
1, 33202, Control_c, 0, 67, 28
1, 33217, Control_c, 0, 64, 62
1, 33222, Note_off_c, 0, 74, 45
1, 33224, Note_off_c, 0, 50, 63
1, 33232, Control_c, 0, 64, 62
1, 33239, Note_off_c, 0, 69, 43
1, 33247, Control_c, 0, 64, 63
1, 33247, Control_c, 0, 67, 26
1, 33261, Control_c, 0, 64, 65
1, 33273, Note_off_c, 0, 78, 59
1, 33276, Control_c, 0, 64, 67
1, 33276, Control_c, 0, 67, 23
1, 33291, Control_c, 0, 64, 68
1, 33299, Note_on_c, 0, 50, 66
1, 33306, Control_c, 0, 64, 70
1, 33306, Control_c, 0, 67, 21
1, 33321, Control_c, 0, 64, 70
1, 33330, Note_off_c, 0, 50, 65
1, 33336, Control_c, 0, 64, 70
1, 33336, Control_c, 0, 67, 19
1, 33350, Control_c, 0, 64, 67
1, 33365, Control_c, 0, 64, 58
1, 33380, Control_c, 0, 64, 47
1, 33380, Control_c, 0, 67, 17
1, 33385, Note_on_c, 0, 78, 85
1, 33387, Note_on_c, 0, 47, 63
1, 33394, Control_c, 0, 64, 38
1, 33394, Control_c, 0, 67, 0
1, 33409, Control_c, 0, 64, 36
1, 33424, Control_c, 0, 64, 39
1, 33432, Note_off_c, 0, 47, 59
1, 33439, Control_c, 0, 64, 46
1, 33454, Control_c, 0, 64, 57
1, 33468, Control_c, 0, 64, 62
1, 33483, Control_c, 0, 64, 64
1, 33498, Control_c, 0, 64, 65
1, 33513, Control_c, 0, 64, 66
1, 33528, Control_c, 0, 64, 67
1, 33537, Note_on_c, 0, 47, 55
1, 33543, Control_c, 0, 64, 69
1, 33558, Control_c, 0, 64, 71
1, 33563, Note_off_c, 0, 47, 58
1, 33573, Control_c, 0, 64, 73
1, 33594, Control_c, 0, 64, 74
1, 33607, Note_on_c, 0, 48, 57
1, 33609, Control_c, 0, 64, 75
1, 33635, Note_off_c, 0, 48, 63
1, 33653, Control_c, 0, 64, 74
1, 33668, Control_c, 0, 64, 67
1, 33676, Note_on_c, 0, 44, 65
1, 33683, Control_c, 0, 64, 55
1, 33692, Note_on_c, 0, 81, 91
1, 33698, Control_c, 0, 64, 32
1, 33713, Control_c, 0, 64, 0
1, 33724, Note_off_c, 0, 44, 60
1, 33772, Control_c, 0, 64, 44
1, 33784, Note_on_c, 0, 45, 50
1, 33787, Control_c, 0, 64, 56
1, 33801, Control_c, 0, 64, 62
1, 33816, Note_off_c, 0, 45, 65
1, 33816, Control_c, 0, 64, 64
1, 33825, Note_on_c, 0, 44, 69
1, 33831, Control_c, 0, 64, 65
1, 33846, Control_c, 0, 64, 66
1, 33855, Note_off_c, 0, 44, 64
1, 33861, Control_c, 0, 64, 68
1, 33877, Control_c, 0, 64, 70
1, 33891, Control_c, 0, 64, 73
1, 33905, Note_on_c, 0, 45, 59
1, 33906, Control_c, 0, 64, 76
1, 33921, Control_c, 0, 64, 79
1, 33936, Control_c, 0, 64, 80
1, 33938, Note_off_c, 0, 45, 52
1, 33959, Note_on_c, 0, 41, 70
1, 33965, Control_c, 0, 64, 74
1, 33980, Control_c, 0, 64, 62
1, 33984, Note_on_c, 0, 84, 97
1, 33995, Control_c, 0, 64, 36
1, 34009, Control_c, 0, 64, 0
1, 34021, Note_off_c, 0, 41, 60
1, 34046, Note_on_c, 0, 42, 56
1, 34069, Control_c, 0, 64, 43
1, 34080, Note_off_c, 0, 42, 60
1, 34084, Control_c, 0, 64, 58
1, 34098, Control_c, 0, 64, 65
1, 34102, Note_on_c, 0, 41, 62
1, 34113, Control_c, 0, 64, 68
1, 34128, Control_c, 0, 64, 70
1, 34142, Control_c, 0, 64, 72
1, 34147, Note_off_c, 0, 41, 63
1, 34157, Control_c, 0, 64, 76
1, 34158, Note_on_c, 0, 42, 78
1, 34172, Control_c, 0, 64, 80
1, 34181, Note_off_c, 0, 78, 39
1, 34187, Control_c, 0, 64, 84
1, 34197, Note_off_c, 0, 42, 67
1, 34202, Control_c, 0, 64, 87
1, 34217, Control_c, 0, 64, 90
1, 34232, Control_c, 0, 64, 91
1, 34261, Control_c, 0, 64, 86
1, 34276, Note_on_c, 0, 78, 87
1, 34276, Control_c, 0, 64, 72
1, 34279, Note_off_c, 0, 81, 62
1, 34281, Note_on_c, 0, 37, 74
1, 34291, Control_c, 0, 64, 55
1, 34306, Control_c, 0, 64, 0
1, 34327, Note_off_c, 0, 37, 62
1, 34360, Note_on_c, 0, 38, 66
1, 34372, Control_c, 0, 64, 34
1, 34387, Control_c, 0, 64, 46
1, 34401, Note_off_c, 0, 38, 60
1, 34401, Control_c, 0, 64, 54
1, 34416, Control_c, 0, 64, 58
1, 34431, Control_c, 0, 64, 60
1, 34431, Note_on_c, 0, 37, 63
1, 34446, Control_c, 0, 64, 62
1, 34461, Control_c, 0, 64, 65
1, 34475, Note_off_c, 0, 37, 62
1, 34476, Control_c, 0, 64, 67
1, 34490, Control_c, 0, 64, 69
1, 34497, Note_on_c, 0, 38, 71
1, 34505, Control_c, 0, 64, 72
1, 34520, Control_c, 0, 64, 76
1, 34535, Control_c, 0, 64, 78
1, 34537, Note_off_c, 0, 84, 65
1, 34548, Note_off_c, 0, 38, 62
1, 34549, Control_c, 0, 64, 77
1, 34564, Control_c, 0, 64, 70
1, 34574, Note_on_c, 0, 37, 66
1, 34579, Control_c, 0, 64, 57
1, 34590, Note_on_c, 0, 82, 101
1, 34594, Control_c, 0, 64, 0
1, 34617, Note_off_c, 0, 37, 65
1, 34638, Note_on_c, 0, 38, 72
1, 34653, Control_c, 0, 64, 44
1, 34669, Control_c, 0, 64, 59
1, 34684, Control_c, 0, 64, 66
1, 34691, Note_off_c, 0, 38, 66
1, 34699, Control_c, 0, 64, 69
1, 34702, Note_on_c, 0, 37, 71
1, 34713, Control_c, 0, 64, 71
1, 34728, Control_c, 0, 64, 73
1, 34743, Control_c, 0, 64, 77
1, 34753, Note_off_c, 0, 37, 60
1, 34758, Control_c, 0, 64, 81
1, 34771, Note_on_c, 0, 38, 69
1, 34772, Control_c, 0, 64, 85
1, 34787, Control_c, 0, 64, 90
1, 34802, Control_c, 0, 64, 93
1, 34804, Note_off_c, 0, 38, 65
1, 34811, Note_off_c, 0, 78, 60
1, 34817, Control_c, 0, 64, 95
1, 34831, Control_c, 0, 64, 94
1, 34846, Control_c, 0, 64, 83
1, 34853, Note_on_c, 0, 38, 71
1, 34861, Control_c, 0, 64, 64
1, 34876, Control_c, 0, 64, 0
1, 34881, Note_on_c, 0, 79, 89
1, 34938, Note_off_c, 0, 38, 63
1, 34947, Note_on_c, 0, 39, 64
1, 34950, Control_c, 0, 64, 39
1, 34965, Control_c, 0, 64, 58
1, 34980, Control_c, 0, 64, 66
1, 34986, Note_off_c, 0, 39, 65
1, 34995, Control_c, 0, 64, 70
1, 35007, Note_on_c, 0, 38, 69
1, 35010, Control_c, 0, 64, 76
1, 35024, Control_c, 0, 64, 84
1, 35039, Control_c, 0, 64, 101
1, 35054, Control_c, 0, 64, 127
1, 35061, Note_off_c, 0, 38, 64
1, 35076, Note_on_c, 0, 39, 79
1, 35123, Note_off_c, 0, 39, 62
1, 35150, Control_c, 0, 64, 96
1, 35165, Control_c, 0, 64, 64
1, 35179, Note_on_c, 0, 73, 91
1, 35179, Control_c, 0, 64, 0
1, 35188, Note_on_c, 0, 39, 72
1, 35240, Note_on_c, 0, 40, 84
1, 35242, Note_off_c, 0, 39, 62
1, 35254, Control_c, 0, 64, 46
1, 35269, Control_c, 0, 64, 63
1, 35284, Control_c, 0, 64, 68
1, 35298, Control_c, 0, 64, 73
1, 35310, Note_off_c, 0, 40, 63
1, 35311, Note_on_c, 0, 39, 77
1, 35313, Control_c, 0, 64, 80
1, 35328, Control_c, 0, 64, 91
1, 35343, Control_c, 0, 64, 111
1, 35358, Control_c, 0, 64, 127
1, 35369, Note_off_c, 0, 39, 62
1, 35388, Note_on_c, 0, 40, 84
1, 35418, Note_off_c, 0, 73, 59
1, 35422, Note_off_c, 0, 40, 65
1, 35431, Control_c, 0, 64, 106
1, 35446, Control_c, 0, 64, 60
1, 35462, Control_c, 0, 64, 0
1, 35467, Note_on_c, 0, 40, 81
1, 35474, Note_on_c, 0, 72, 94
1, 35501, Note_off_c, 0, 79, 61
1, 35537, Note_off_c, 0, 40, 64
1, 35550, Note_on_c, 0, 41, 66
1, 35551, Control_c, 0, 64, 60
1, 35566, Control_c, 0, 64, 74
1, 35581, Control_c, 0, 64, 82
1, 35595, Control_c, 0, 64, 95
1, 35610, Control_c, 0, 64, 107
1, 35613, Note_on_c, 0, 40, 88
1, 35617, Note_off_c, 0, 41, 61
1, 35625, Control_c, 0, 64, 127
1, 35662, Note_off_c, 0, 40, 64
1, 35674, Note_off_c, 0, 82, 38
1, 35707, Note_on_c, 0, 41, 77
1, 35743, Control_c, 0, 64, 85
1, 35758, Control_c, 0, 64, 52
1, 35762, Note_off_c, 0, 41, 59
1, 35764, Note_on_c, 0, 81, 101
1, 35766, Note_on_c, 0, 40, 84
1, 35768, Note_on_c, 0, 77, 85
1, 35773, Control_c, 0, 64, 0
1, 35817, Note_off_c, 0, 40, 66
1, 35841, Control_c, 0, 64, 38
1, 35846, Note_on_c, 0, 41, 85
1, 35856, Control_c, 0, 64, 66
1, 35870, Control_c, 0, 64, 72
1, 35885, Control_c, 0, 64, 78
1, 35887, Note_off_c, 0, 77, 64
1, 35900, Control_c, 0, 64, 81
1, 35908, Note_on_c, 0, 40, 82
1, 35909, Note_off_c, 0, 41, 61
1, 35914, Control_c, 0, 64, 84
1, 35929, Control_c, 0, 64, 90
1, 35944, Control_c, 0, 64, 99
1, 35955, Note_off_c, 0, 40, 65
1, 35959, Control_c, 0, 64, 112
1, 35969, Note_off_c, 0, 81, 59
1, 35974, Control_c, 0, 64, 127
1, 35978, Note_on_c, 0, 41, 87
1, 36021, Note_off_c, 0, 41, 59
1, 36048, Note_off_c, 0, 72, 61
1, 36062, Note_on_c, 0, 33, 86
1, 36075, Note_on_c, 0, 79, 104
1, 36076, Note_on_c, 0, 74, 93
1, 36077, Control_c, 0, 64, 73
1, 36079, Note_on_c, 0, 70, 88
1, 36092, Control_c, 0, 64, 0
1, 36138, Note_off_c, 0, 33, 63
1, 36139, Note_on_c, 0, 34, 85
1, 36166, Control_c, 0, 64, 45
1, 36181, Control_c, 0, 64, 68
1, 36196, Control_c, 0, 64, 76
1, 36211, Control_c, 0, 64, 87
1, 36211, Note_off_c, 0, 70, 63
1, 36217, Note_on_c, 0, 33, 82
1, 36220, Note_off_c, 0, 34, 61
1, 36226, Control_c, 0, 64, 92
1, 36241, Control_c, 0, 64, 99
1, 36256, Control_c, 0, 64, 111
1, 36268, Note_off_c, 0, 79, 61
1, 36271, Control_c, 0, 64, 127
1, 36285, Note_on_c, 0, 34, 86
1, 36288, Note_off_c, 0, 33, 56
1, 36339, Note_off_c, 0, 74, 59
1, 36344, Note_off_c, 0, 34, 61
1, 36360, Control_c, 0, 64, 103
1, 36375, Control_c, 0, 64, 65
1, 36381, Note_on_c, 0, 70, 97
1, 36382, Note_on_c, 0, 76, 105
1, 36385, Note_on_c, 0, 67, 91
1, 36390, Control_c, 0, 64, 0
1, 36393, Note_on_c, 0, 35, 97
1, 36464, Control_c, 0, 64, 45
1, 36473, Note_off_c, 0, 35, 61
1, 36477, Note_on_c, 0, 36, 83
1, 36479, Control_c, 0, 64, 72
1, 36493, Control_c, 0, 64, 85
1, 36508, Control_c, 0, 64, 111
1, 36523, Control_c, 0, 64, 127
1, 36545, Note_on_c, 0, 35, 83
1, 36555, Note_off_c, 0, 76, 59
1, 36560, Note_off_c, 0, 70, 59
1, 36562, Note_off_c, 0, 67, 64
1, 36597, Note_off_c, 0, 35, 61
1, 36616, Note_off_c, 0, 36, 0
1, 36629, Note_on_c, 0, 36, 72
1, 36693, Note_off_c, 0, 36, 61
1, 36728, Note_on_c, 0, 29, 96
1, 36730, Note_on_c, 0, 77, 103
1, 36731, Note_on_c, 0, 69, 96
1, 36732, Note_on_c, 0, 65, 96
1, 36738, Control_c, 0, 64, 83
1, 36752, Control_c, 0, 64, 0
1, 37034, Control_c, 0, 64, 66
1, 37048, Control_c, 0, 64, 82
1, 37064, Control_c, 0, 64, 105
1, 37079, Control_c, 0, 64, 127
1, 37114, Note_off_c, 0, 77, 58
1, 37127, Note_off_c, 0, 29, 61
1, 37132, Note_off_c, 0, 69, 63
1, 37148, Note_off_c, 0, 65, 64
1, 37565, Note_on_c, 0, 53, 90
1, 37568, Note_on_c, 0, 69, 101
1, 37569, Note_on_c, 0, 57, 92
1, 37573, Note_on_c, 0, 65, 103
1, 37620, Control_c, 0, 64, 75
1, 37634, Control_c, 0, 64, 41
1, 37649, Control_c, 0, 64, 0
1, 37872, Control_c, 0, 64, 56
1, 37887, Control_c, 0, 64, 65
1, 37902, Control_c, 0, 64, 69
1, 37916, Control_c, 0, 64, 72
1, 37931, Control_c, 0, 64, 77
1, 37946, Control_c, 0, 64, 82
1, 37961, Control_c, 0, 64, 87
1, 37976, Control_c, 0, 64, 91
1, 37990, Control_c, 0, 64, 93
1, 38005, Control_c, 0, 64, 95
1, 38020, Control_c, 0, 64, 95
1, 38028, Note_off_c, 0, 65, 60
1, 38035, Control_c, 0, 64, 96
1, 38045, Note_off_c, 0, 53, 60
1, 38177, Control_c, 0, 64, 98
1, 38276, Note_on_c, 0, 65, 76
1, 38277, Note_on_c, 0, 62, 74
1, 38277, Note_on_c, 0, 53, 65
1, 38280, Control_c, 0, 64, 88
1, 38287, Note_on_c, 0, 50, 60
1, 38295, Control_c, 0, 64, 70
1, 38297, Note_off_c, 0, 69, 59
1, 38309, Control_c, 0, 64, 45
1, 38324, Control_c, 0, 64, 0
1, 38349, Note_off_c, 0, 57, 59
1, 38399, Control_c, 0, 64, 33
1, 38414, Control_c, 0, 64, 49
1, 38429, Control_c, 0, 64, 60
1, 38443, Control_c, 0, 64, 65
1, 38458, Control_c, 0, 64, 68
1, 38473, Control_c, 0, 64, 71
1, 38488, Control_c, 0, 64, 75
1, 38497, Note_off_c, 0, 50, 61
1, 38498, Note_off_c, 0, 62, 61
1, 38503, Control_c, 0, 64, 79
1, 38517, Control_c, 0, 64, 85
1, 38532, Control_c, 0, 64, 91
1, 38547, Control_c, 0, 64, 96
1, 38562, Control_c, 0, 64, 98
1, 38606, Control_c, 0, 64, 90
1, 38621, Control_c, 0, 64, 72
1, 38622, Note_on_c, 0, 50, 68
1, 38622, Note_on_c, 0, 62, 81
1, 38628, Note_off_c, 0, 65, 64
1, 38635, Control_c, 0, 64, 38
1, 38637, Note_off_c, 0, 53, 59
1, 38642, Note_on_c, 0, 58, 68
1, 38648, Note_on_c, 0, 46, 59
1, 38650, Control_c, 0, 64, 0
1, 38726, Control_c, 0, 64, 48
1, 38740, Control_c, 0, 64, 66
1, 38755, Control_c, 0, 64, 72
1, 38770, Control_c, 0, 64, 80
1, 38782, Note_off_c, 0, 50, 63
1, 38785, Control_c, 0, 64, 85
1, 38799, Control_c, 0, 64, 88
1, 38814, Control_c, 0, 64, 90
1, 38816, Note_off_c, 0, 58, 52
1, 38824, Note_off_c, 0, 46, 55
1, 38836, Control_c, 0, 64, 93
1, 38851, Control_c, 0, 64, 95
1, 38866, Control_c, 0, 64, 98
1, 38881, Control_c, 0, 64, 101
1, 38895, Control_c, 0, 64, 104
1, 38910, Control_c, 0, 64, 110
1, 38925, Control_c, 0, 64, 124
1, 38939, Control_c, 0, 64, 127
1, 38977, Note_off_c, 0, 62, 0
1, 38988, Note_on_c, 0, 70, 102
1, 38994, Note_on_c, 0, 55, 84
1, 38995, Note_on_c, 0, 58, 94
1, 38998, Note_on_c, 0, 67, 85
1, 38999, Control_c, 0, 64, 96
1, 39010, Note_on_c, 0, 62, 23
1, 39013, Control_c, 0, 64, 67
1, 39028, Control_c, 0, 64, 0
1, 39034, Note_off_c, 0, 62, 56
1, 39177, Control_c, 0, 64, 59
1, 39192, Control_c, 0, 64, 67
1, 39206, Control_c, 0, 64, 70
1, 39221, Control_c, 0, 64, 74
1, 39236, Control_c, 0, 64, 81
1, 39251, Control_c, 0, 64, 86
1, 39265, Control_c, 0, 64, 90
1, 39280, Control_c, 0, 64, 91
1, 39291, Note_off_c, 0, 58, 56
1, 39325, Control_c, 0, 64, 91
1, 39334, Note_off_c, 0, 70, 52
1, 39456, Note_off_c, 0, 67, 59
1, 39474, Control_c, 0, 64, 88
1, 39478, Note_off_c, 0, 55, 61
1, 39488, Note_on_c, 0, 53, 66
1, 39488, Control_c, 0, 64, 79
1, 39493, Note_on_c, 0, 69, 81
1, 39503, Control_c, 0, 64, 66
1, 39505, Note_on_c, 0, 57, 64
1, 39508, Note_on_c, 0, 65, 71
1, 39518, Control_c, 0, 64, 50
1, 39533, Control_c, 0, 64, 0
1, 39631, Note_off_c, 0, 65, 53
1, 39662, Note_on_c, 0, 67, 74
1, 39662, Note_off_c, 0, 53, 63
1, 39667, Note_on_c, 0, 55, 61
1, 39674, Note_on_c, 0, 64, 67
1, 39675, Note_off_c, 0, 69, 58
1, 39675, Note_off_c, 0, 57, 59
1, 39676, Note_on_c, 0, 52, 61
1, 39762, Control_c, 0, 64, 38
1, 39777, Control_c, 0, 64, 54
1, 39792, Control_c, 0, 64, 61
1, 39807, Control_c, 0, 64, 65
1, 39822, Control_c, 0, 64, 67
1, 39836, Control_c, 0, 64, 70
1, 39851, Control_c, 0, 64, 73
1, 39866, Control_c, 0, 64, 77
1, 39870, Note_off_c, 0, 52, 58
1, 39880, Note_off_c, 0, 64, 61
1, 39881, Control_c, 0, 64, 82
1, 39895, Control_c, 0, 64, 86
1, 39910, Control_c, 0, 64, 89
1, 39925, Control_c, 0, 64, 92
1, 39940, Control_c, 0, 64, 92
1, 39985, Control_c, 0, 64, 90
1, 40000, Control_c, 0, 64, 80
1, 40003, Note_on_c, 0, 52, 61
1, 40003, Note_on_c, 0, 64, 71
1, 40006, Note_off_c, 0, 67, 64
1, 40009, Note_off_c, 0, 55, 61
1, 40014, Control_c, 0, 64, 63
1, 40020, Note_on_c, 0, 60, 64
1, 40023, Note_on_c, 0, 48, 55
1, 40029, Control_c, 0, 64, 0
1, 40118, Control_c, 0, 64, 54
1, 40133, Control_c, 0, 64, 67
1, 40147, Control_c, 0, 64, 74
1, 40162, Control_c, 0, 64, 82
1, 40170, Note_off_c, 0, 48, 57
1, 40173, Note_off_c, 0, 60, 54
1, 40177, Control_c, 0, 64, 87
1, 40188, Note_off_c, 0, 52, 59
1, 40192, Control_c, 0, 64, 89
1, 40206, Control_c, 0, 64, 90
1, 40221, Control_c, 0, 64, 93
1, 40236, Control_c, 0, 64, 95
1, 40282, Control_c, 0, 64, 97
1, 40327, Note_off_c, 0, 64, 57
1, 40348, Control_c, 0, 64, 99
1, 40400, Note_on_c, 0, 72, 99
1, 40402, Note_on_c, 0, 57, 88
1, 40403, Note_on_c, 0, 60, 87
1, 40417, Note_on_c, 0, 69, 82
1, 40423, Control_c, 0, 64, 85
1, 40438, Control_c, 0, 64, 63
1, 40453, Control_c, 0, 64, 0
1, 40644, Control_c, 0, 64, 40
1, 40659, Control_c, 0, 64, 57
1, 40674, Control_c, 0, 64, 65
1, 40689, Control_c, 0, 64, 69
1, 40704, Control_c, 0, 64, 74
1, 40718, Control_c, 0, 64, 79
1, 40733, Control_c, 0, 64, 84
1, 40748, Control_c, 0, 64, 87
1, 40763, Control_c, 0, 64, 89
1, 40778, Control_c, 0, 64, 91
1, 40793, Control_c, 0, 64, 93
1, 40807, Control_c, 0, 64, 94
1, 40822, Control_c, 0, 64, 94
1, 40834, Note_off_c, 0, 57, 57
1, 40837, Control_c, 0, 64, 95
1, 40839, Note_off_c, 0, 69, 49
1, 40867, Control_c, 0, 64, 95
1, 41061, Control_c, 0, 64, 95
1, 41075, Note_on_c, 0, 69, 78
1, 41076, Control_c, 0, 64, 90
1, 41077, Note_on_c, 0, 57, 65
1, 41092, Note_on_c, 0, 65, 67
1, 41097, Note_on_c, 0, 53, 58
1, 41098, Control_c, 0, 64, 77
1, 41113, Control_c, 0, 64, 60
1, 41117, Note_off_c, 0, 60, 44
1, 41127, Control_c, 0, 64, 0
1, 41171, Note_off_c, 0, 72, 53
1, 41216, Control_c, 0, 64, 42
1, 41231, Control_c, 0, 64, 58
1, 41246, Control_c, 0, 64, 64
1, 41261, Control_c, 0, 64, 67
1, 41275, Note_off_c, 0, 53, 57
1, 41275, Control_c, 0, 64, 69
1, 41290, Control_c, 0, 64, 71
1, 41305, Control_c, 0, 64, 74
1, 41320, Control_c, 0, 64, 79
1, 41324, Note_off_c, 0, 65, 61
1, 41335, Control_c, 0, 64, 84
1, 41350, Control_c, 0, 64, 87
1, 41365, Control_c, 0, 64, 88
1, 41380, Control_c, 0, 64, 89
1, 41395, Control_c, 0, 64, 88
1, 41409, Control_c, 0, 64, 82
1, 41424, Control_c, 0, 64, 64
1, 41426, Note_off_c, 0, 69, 63
1, 41431, Note_on_c, 0, 65, 78
1, 41435, Note_on_c, 0, 53, 65
1, 41439, Control_c, 0, 64, 0
1, 41441, Note_on_c, 0, 50, 59
1, 41441, Note_off_c, 0, 57, 63
1, 41442, Note_on_c, 0, 62, 67
1, 41527, Control_c, 0, 64, 56
1, 41542, Control_c, 0, 64, 69
1, 41557, Control_c, 0, 64, 77
1, 41572, Control_c, 0, 64, 88
1, 41574, Note_off_c, 0, 62, 55
1, 41587, Control_c, 0, 64, 95
1, 41601, Control_c, 0, 64, 99
1, 41612, Note_off_c, 0, 53, 58
1, 41615, Note_off_c, 0, 50, 55
1, 41616, Control_c, 0, 64, 102
1, 41631, Control_c, 0, 64, 105
1, 41646, Control_c, 0, 64, 107
1, 41660, Control_c, 0, 64, 110
1, 41675, Control_c, 0, 64, 114
1, 41690, Control_c, 0, 64, 120
1, 41705, Control_c, 0, 64, 127
1, 41726, Note_off_c, 0, 65, 60
1, 41789, Note_on_c, 0, 74, 99
1, 41792, Note_on_c, 0, 62, 90
1, 41794, Note_on_c, 0, 58, 86
1, 41799, Note_on_c, 0, 70, 88
1, 41809, Control_c, 0, 64, 96
1, 41831, Control_c, 0, 64, 64
1, 41846, Control_c, 0, 64, 0
1, 41995, Control_c, 0, 64, 46
1, 42010, Control_c, 0, 64, 58
1, 42025, Control_c, 0, 64, 66
1, 42039, Control_c, 0, 64, 69
1, 42053, Note_off_c, 0, 62, 49
1, 42054, Control_c, 0, 64, 73
1, 42069, Control_c, 0, 64, 76
1, 42083, Control_c, 0, 64, 79
1, 42098, Control_c, 0, 64, 80
1, 42113, Control_c, 0, 64, 81
1, 42128, Control_c, 0, 64, 81
1, 42136, Note_off_c, 0, 70, 61
1, 42143, Control_c, 0, 64, 82
1, 42158, Control_c, 0, 64, 82
1, 42173, Control_c, 0, 64, 83
1, 42188, Control_c, 0, 64, 83
1, 42202, Control_c, 0, 64, 84
1, 42211, Note_off_c, 0, 74, 53
1, 42217, Control_c, 0, 64, 84
1, 42241, Poly_aftertouch_c, 0, 70, 127
1, 42262, Note_off_c, 0, 58, 62
1, 42271, Poly_aftertouch_c, 0, 70, 0
1, 42306, Control_c, 0, 64, 84
1, 42310, Note_on_c, 0, 72, 81
1, 42312, Note_on_c, 0, 60, 67
1, 42313, Note_on_c, 0, 57, 71
1, 42317, Note_on_c, 0, 69, 66
1, 42321, Control_c, 0, 64, 82
1, 42336, Control_c, 0, 64, 79
1, 42350, Control_c, 0, 64, 73
1, 42365, Control_c, 0, 64, 65
1, 42380, Control_c, 0, 64, 52
1, 42395, Control_c, 0, 64, 0
1, 42432, Note_off_c, 0, 69, 61
1, 42444, Note_off_c, 0, 60, 59
1, 42470, Note_on_c, 0, 70, 78
1, 42472, Note_off_c, 0, 57, 62
1, 42475, Note_on_c, 0, 55, 60
1, 42476, Note_on_c, 0, 67, 68
1, 42477, Note_on_c, 0, 58, 72
1, 42480, Note_off_c, 0, 72, 58
1, 42594, Control_c, 0, 64, 43
1, 42608, Control_c, 0, 64, 58
1, 42623, Control_c, 0, 64, 65
1, 42638, Control_c, 0, 64, 67
1, 42654, Control_c, 0, 64, 69
1, 42669, Note_off_c, 0, 55, 60
1, 42669, Control_c, 0, 64, 72
1, 42684, Control_c, 0, 64, 76
1, 42698, Control_c, 0, 64, 82
1, 42702, Note_off_c, 0, 67, 59
1, 42713, Control_c, 0, 64, 86
1, 42728, Control_c, 0, 64, 88
1, 42773, Control_c, 0, 64, 83
1, 42787, Control_c, 0, 64, 68
1, 42802, Control_c, 0, 64, 39
1, 42807, Note_on_c, 0, 67, 86
1, 42809, Note_on_c, 0, 55, 67
1, 42814, Note_off_c, 0, 58, 62
1, 42817, Control_c, 0, 64, 0
1, 42818, Note_on_c, 0, 64, 75
1, 42820, Note_on_c, 0, 52, 66
1, 42824, Note_off_c, 0, 70, 58
1, 42891, Control_c, 0, 64, 50
1, 42906, Control_c, 0, 64, 69
1, 42921, Control_c, 0, 64, 81
1, 42924, Note_off_c, 0, 64, 62
1, 42936, Control_c, 0, 64, 94
1, 42936, Note_off_c, 0, 52, 55
1, 42951, Control_c, 0, 64, 100
1, 42960, Note_off_c, 0, 55, 62
1, 42966, Control_c, 0, 64, 105
1, 42980, Control_c, 0, 64, 111
1, 42992, Note_off_c, 0, 67, 65
1, 42995, Control_c, 0, 64, 121
1, 43010, Control_c, 0, 64, 127
1, 43204, Note_on_c, 0, 79, 99
1, 43209, Note_on_c, 0, 67, 92
1, 43209, Note_on_c, 0, 70, 96
1, 43212, Note_on_c, 0, 58, 95
1, 43231, Control_c, 0, 64, 98
1, 43246, Control_c, 0, 64, 68
1, 43261, Control_c, 0, 64, 0
1, 43403, Control_c, 0, 64, 35
1, 43418, Control_c, 0, 64, 62
1, 43432, Control_c, 0, 64, 66
1, 43448, Control_c, 0, 64, 67
1, 43463, Control_c, 0, 64, 69
1, 43478, Control_c, 0, 64, 71
1, 43493, Control_c, 0, 64, 75
1, 43504, Note_off_c, 0, 67, 57
1, 43508, Control_c, 0, 64, 77
1, 43523, Control_c, 0, 64, 78
1, 43537, Control_c, 0, 64, 78
1, 43582, Control_c, 0, 64, 79
1, 43587, Note_off_c, 0, 79, 59
1, 43611, Control_c, 0, 64, 79
1, 43626, Control_c, 0, 64, 80
1, 43641, Control_c, 0, 64, 80
1, 43655, Control_c, 0, 64, 81
1, 43685, Control_c, 0, 64, 79
1, 43692, Note_on_c, 0, 77, 90
1, 43695, Note_on_c, 0, 65, 89
1, 43696, Note_on_c, 0, 57, 83
1, 43696, Note_on_c, 0, 69, 83
1, 43700, Control_c, 0, 64, 69
1, 43702, Note_off_c, 0, 58, 59
1, 43704, Note_off_c, 0, 70, 64
1, 43715, Control_c, 0, 64, 36
1, 43726, Note_off_c, 0, 69, 61
1, 43729, Control_c, 0, 64, 0
1, 43732, Note_off_c, 0, 65, 66
1, 43736, Note_off_c, 0, 57, 63
1, 43745, Note_off_c, 0, 77, 64
1, 43861, Note_on_c, 0, 76, 96
1, 43864, Note_on_c, 0, 64, 80
1, 43865, Note_on_c, 0, 55, 81
1, 43869, Note_on_c, 0, 67, 82
1, 44026, Control_c, 0, 64, 61
1, 44040, Control_c, 0, 64, 68
1, 44055, Control_c, 0, 64, 70
1, 44077, Control_c, 0, 64, 71
1, 44092, Control_c, 0, 64, 74
1, 44107, Control_c, 0, 64, 77
1, 44122, Control_c, 0, 64, 80
1, 44134, Note_off_c, 0, 64, 56
1, 44137, Control_c, 0, 64, 81
1, 44152, Control_c, 0, 64, 82
1, 44221, Note_off_c, 0, 67, 63
1, 44232, Note_off_c, 0, 76, 59
1, 44316, Note_off_c, 0, 55, 57
1, 44322, Note_on_c, 0, 53, 75
1, 44324, Note_on_c, 0, 62, 75
1, 44325, Note_on_c, 0, 74, 90
1, 44331, Control_c, 0, 64, 80
1, 44334, Note_on_c, 0, 65, 80
1, 44346, Control_c, 0, 64, 71
1, 44360, Note_off_c, 0, 62, 60
1, 44360, Control_c, 0, 64, 54
1, 44368, Note_off_c, 0, 65, 63
1, 44373, Note_off_c, 0, 53, 62
1, 44375, Control_c, 0, 64, 0
1, 44383, Note_off_c, 0, 74, 62
1, 44505, Note_on_c, 0, 72, 84
1, 44508, Note_on_c, 0, 60, 74
1, 44511, Note_on_c, 0, 64, 71
1, 44513, Note_on_c, 0, 52, 69
1, 44552, Control_c, 0, 64, 47
1, 44567, Control_c, 0, 64, 59
1, 44582, Control_c, 0, 64, 64
1, 44597, Control_c, 0, 64, 67
1, 44611, Control_c, 0, 64, 70
1, 44618, Note_off_c, 0, 64, 63
1, 44626, Control_c, 0, 64, 73
1, 44641, Control_c, 0, 64, 78
1, 44647, Note_off_c, 0, 52, 61
1, 44656, Control_c, 0, 64, 81
1, 44671, Control_c, 0, 64, 84
1, 44677, Note_off_c, 0, 60, 47
1, 44686, Control_c, 0, 64, 86
1, 44700, Control_c, 0, 64, 88
1, 44715, Control_c, 0, 64, 90
1, 44730, Control_c, 0, 64, 92
1, 44745, Control_c, 0, 64, 94
1, 44760, Control_c, 0, 64, 95
1, 44775, Control_c, 0, 64, 96
1, 44829, Note_on_c, 0, 70, 80
1, 44830, Note_on_c, 0, 50, 57
1, 44840, Note_on_c, 0, 53, 53
1, 44841, Note_on_c, 0, 58, 63
1, 44841, Control_c, 0, 64, 90
1, 44850, Note_off_c, 0, 72, 55
1, 44856, Control_c, 0, 64, 73
1, 44871, Control_c, 0, 64, 52
1, 44885, Control_c, 0, 64, 0
1, 44960, Control_c, 0, 64, 44
1, 44975, Control_c, 0, 64, 58
1, 44990, Control_c, 0, 64, 65
1, 45004, Control_c, 0, 64, 68
1, 45019, Control_c, 0, 64, 71
1, 45034, Control_c, 0, 64, 75
1, 45049, Control_c, 0, 64, 79
1, 45064, Control_c, 0, 64, 83
1, 45079, Control_c, 0, 64, 87
1, 45085, Note_off_c, 0, 70, 62
1, 45085, Note_off_c, 0, 58, 63
1, 45094, Control_c, 0, 64, 89
1, 45109, Control_c, 0, 64, 90
1, 45119, Note_off_c, 0, 50, 63
1, 45130, Note_off_c, 0, 53, 57
1, 45139, Control_c, 0, 67, 18
1, 45151, Note_on_c, 0, 69, 74
1, 45151, Note_on_c, 0, 52, 55
1, 45153, Note_on_c, 0, 49, 51
1, 45154, Control_c, 0, 64, 84
1, 45159, Note_on_c, 0, 57, 61
1, 45168, Control_c, 0, 64, 70
1, 45183, Control_c, 0, 64, 48
1, 45183, Control_c, 0, 67, 20
1, 45198, Control_c, 0, 64, 0
1, 45213, Control_c, 0, 67, 22
1, 45242, Control_c, 0, 67, 25
1, 45272, Control_c, 0, 64, 49
1, 45272, Control_c, 0, 67, 28
1, 45287, Control_c, 0, 64, 62
1, 45301, Control_c, 0, 64, 68
1, 45303, Note_off_c, 0, 52, 62
1, 45315, Note_off_c, 0, 69, 51
1, 45316, Control_c, 0, 64, 73
1, 45316, Control_c, 0, 67, 30
1, 45321, Note_off_c, 0, 49, 63
1, 45331, Control_c, 0, 64, 76
1, 45346, Control_c, 0, 64, 79
1, 45361, Control_c, 0, 64, 82
1, 45375, Control_c, 0, 64, 85
1, 45390, Control_c, 0, 64, 87
1, 45405, Control_c, 0, 64, 88
1, 45449, Control_c, 0, 67, 32
1, 45464, Control_c, 0, 64, 86
1, 45464, Control_c, 0, 67, 33
1, 45479, Control_c, 0, 64, 78
1, 45479, Control_c, 0, 67, 34
1, 45480, Note_on_c, 0, 52, 43
1, 45481, Note_on_c, 0, 45, 56
1, 45481, Note_on_c, 0, 67, 66
1, 45490, Note_on_c, 0, 61, 55
1, 45493, Control_c, 0, 64, 62
1, 45493, Control_c, 0, 67, 37
1, 45508, Control_c, 0, 64, 0
1, 45508, Control_c, 0, 67, 40
1, 45518, Note_off_c, 0, 57, 42
1, 45523, Control_c, 0, 67, 43
1, 45538, Control_c, 0, 67, 46
1, 45553, Control_c, 0, 67, 50
1, 45569, Control_c, 0, 67, 52
1, 45591, Control_c, 0, 67, 55
1, 45606, Control_c, 0, 67, 57
1, 45620, Control_c, 0, 64, 43
1, 45620, Control_c, 0, 67, 59
1, 45635, Control_c, 0, 64, 57
1, 45650, Control_c, 0, 64, 64
1, 45665, Control_c, 0, 64, 67
1, 45680, Control_c, 0, 64, 69
1, 45695, Control_c, 0, 64, 70
1, 45707, Note_off_c, 0, 67, 63
1, 45709, Control_c, 0, 64, 72
1, 45724, Control_c, 0, 64, 75
1, 45724, Control_c, 0, 67, 59
1, 45739, Control_c, 0, 64, 78
1, 45739, Control_c, 0, 67, 60
1, 45753, Control_c, 0, 64, 79
1, 45768, Control_c, 0, 67, 62
1, 45783, Control_c, 0, 67, 64
1, 45798, Control_c, 0, 64, 76
1, 45798, Control_c, 0, 67, 66
1, 45813, Control_c, 0, 64, 67
1, 45813, Control_c, 0, 67, 68
1, 45819, Note_off_c, 0, 52, 50
1, 45819, Note_off_c, 0, 61, 55
1, 45824, Note_on_c, 0, 65, 62
1, 45827, Note_on_c, 0, 62, 47
1, 45827, Control_c, 0, 64, 54
1, 45827, Control_c, 0, 67, 70
1, 45842, Note_on_c, 0, 46, 51
1, 45842, Control_c, 0, 64, 0
1, 45842, Control_c, 0, 67, 71
1, 45844, Note_on_c, 0, 50, 36
1, 45858, Control_c, 0, 67, 73
1, 45873, Control_c, 0, 67, 75
1, 45888, Control_c, 0, 67, 78
1, 45903, Control_c, 0, 67, 81
1, 45918, Control_c, 0, 67, 84
1, 45932, Control_c, 0, 67, 86
1, 45947, Control_c, 0, 67, 87
1, 45970, Note_off_c, 0, 45, 27
1, 45977, Control_c, 0, 67, 87
1, 45991, Control_c, 0, 64, 47
1, 46006, Control_c, 0, 64, 60
1, 46021, Control_c, 0, 64, 64
1, 46036, Control_c, 0, 64, 67
1, 46051, Control_c, 0, 64, 68
1, 46061, Note_off_c, 0, 62, 58
1, 46066, Control_c, 0, 64, 70
1, 46066, Control_c, 0, 67, 87
1, 46081, Control_c, 0, 64, 72
1, 46081, Control_c, 0, 67, 86
1, 46096, Control_c, 0, 64, 74
1, 46096, Control_c, 0, 67, 86
1, 46110, Control_c, 0, 64, 74
1, 46110, Control_c, 0, 67, 85
1, 46125, Control_c, 0, 67, 85
1, 46130, Note_off_c, 0, 46, 63
1, 46140, Control_c, 0, 64, 72
1, 46140, Control_c, 0, 67, 84
1, 46155, Control_c, 0, 64, 65
1, 46169, Control_c, 0, 64, 51
1, 46170, Note_on_c, 0, 47, 58
1, 46175, Note_on_c, 0, 62, 62
1, 46184, Control_c, 0, 64, 0
1, 46185, Note_on_c, 0, 55, 44
1, 46211, Note_on_c, 0, 53, 12
1, 46228, Note_off_c, 0, 65, 54
1, 46229, Control_c, 0, 67, 84
1, 46259, Note_off_c, 0, 50, 54
1, 46273, Control_c, 0, 67, 83
1, 46303, Control_c, 0, 67, 83
1, 46340, Control_c, 0, 64, 45
1, 46355, Control_c, 0, 64, 58
1, 46369, Control_c, 0, 64, 64
1, 46369, Control_c, 0, 67, 82
1, 46384, Control_c, 0, 64, 67
1, 46395, Note_off_c, 0, 53, 40
1, 46399, Control_c, 0, 64, 69
1, 46414, Control_c, 0, 64, 71
1, 46429, Control_c, 0, 64, 72
1, 46431, Note_off_c, 0, 62, 60
1, 46444, Control_c, 0, 64, 74
1, 46458, Control_c, 0, 64, 74
1, 46473, Control_c, 0, 64, 75
1, 46485, Note_off_c, 0, 55, 26
1, 46532, Control_c, 0, 64, 74
1, 46532, Control_c, 0, 67, 83
1, 46533, Note_on_c, 0, 48, 59
1, 46547, Control_c, 0, 64, 71
1, 46547, Control_c, 0, 67, 84
1, 46561, Control_c, 0, 64, 61
1, 46561, Control_c, 0, 67, 84
1, 46575, Note_off_c, 0, 47, 59
1, 46576, Control_c, 0, 64, 35
1, 46576, Control_c, 0, 67, 85
1, 46591, Control_c, 0, 64, 0
1, 46591, Control_c, 0, 67, 85
1, 46606, Control_c, 0, 67, 86
1, 46636, Control_c, 0, 67, 86
1, 46652, Control_c, 0, 67, 87
1, 46667, Control_c, 0, 67, 87
1, 46681, Control_c, 0, 67, 89
1, 46696, Control_c, 0, 67, 92
1, 46711, Control_c, 0, 67, 94
1, 46726, Control_c, 0, 67, 96
1, 46755, Control_c, 0, 67, 98
1, 46785, Control_c, 0, 67, 100
1, 46829, Control_c, 0, 67, 102
1, 46859, Control_c, 0, 67, 105
1, 46869, Note_on_c, 0, 60, 62
1, 46875, Note_on_c, 0, 57, 56
1, 46877, Note_on_c, 0, 53, 43
1, 46897, Note_off_c, 0, 57, 63
1, 46901, Note_off_c, 0, 60, 65
1, 46905, Note_off_c, 0, 53, 51
1, 47037, Control_c, 0, 67, 107
1, 47103, Control_c, 0, 67, 111
1, 47118, Control_c, 0, 67, 115
1, 47133, Control_c, 0, 67, 119
1, 47147, Control_c, 0, 67, 124
1, 47162, Control_c, 0, 67, 127
1, 47225, Note_off_c, 0, 48, 54
1, 47228, Note_on_c, 0, 36, 46
1, 47568, Note_on_c, 0, 60, 51
1, 47570, Note_on_c, 0, 52, 54
1, 47576, Note_on_c, 0, 48, 41
1, 47580, Note_on_c, 0, 55, 39
1, 47594, Note_off_c, 0, 60, 58
1, 47595, Note_off_c, 0, 52, 59
1, 47606, Note_off_c, 0, 48, 51
1, 47606, Note_off_c, 0, 55, 50
1, 47926, Note_on_c, 0, 29, 46
1, 47955, Note_off_c, 0, 36, 50
1, 48257, Note_on_c, 0, 48, 61
1, 48262, Note_on_c, 0, 57, 56
1, 48277, Note_on_c, 0, 53, 37
1, 48279, Note_off_c, 0, 48, 63
1, 48284, Note_off_c, 0, 57, 62
1, 48310, Note_off_c, 0, 53, 45
1, 48355, Control_c, 0, 64, 35
1, 48370, Control_c, 0, 64, 54
1, 48385, Control_c, 0, 64, 64
1, 48400, Control_c, 0, 64, 66
1, 48412, Note_off_c, 0, 29, 56
1, 48415, Control_c, 0, 64, 68
1, 48430, Control_c, 0, 64, 69
1, 48444, Control_c, 0, 64, 71
1, 48459, Control_c, 0, 64, 71
1, 48615, Control_c, 0, 64, 70
1, 48630, Control_c, 0, 64, 65
1, 48645, Control_c, 0, 64, 52
1, 48646, Note_on_c, 0, 57, 76
1, 48655, Note_on_c, 0, 53, 63
1, 48659, Control_c, 0, 64, 0
1, 48751, Note_off_c, 0, 53, 0
1, 48751, Note_on_c, 0, 53, 22
1, 48829, Note_on_c, 0, 69, 79
1, 48838, Note_on_c, 0, 65, 75
1, 48862, Note_off_c, 0, 65, 68
1, 48867, Control_c, 0, 64, 55
1, 48874, Note_off_c, 0, 69, 64
1, 48882, Control_c, 0, 64, 65
1, 48897, Control_c, 0, 64, 68
1, 48911, Control_c, 0, 64, 70
1, 48926, Control_c, 0, 64, 72
1, 48941, Control_c, 0, 64, 74
1, 48956, Control_c, 0, 64, 76
1, 48970, Control_c, 0, 64, 77
1, 48985, Control_c, 0, 64, 78
1, 49000, Control_c, 0, 64, 78
1, 49014, Note_off_c, 0, 57, 57
1, 49022, Note_off_c, 0, 53, 53
1, 49105, Control_c, 0, 64, 77
1, 49120, Control_c, 0, 64, 74
1, 49134, Control_c, 0, 64, 65
1, 49149, Control_c, 0, 64, 46
1, 49151, Note_on_c, 0, 53, 64
1, 49153, Note_on_c, 0, 57, 60
1, 49153, Note_on_c, 0, 69, 64
1, 49154, Note_on_c, 0, 65, 64
1, 49164, Control_c, 0, 64, 0
1, 49177, Note_off_c, 0, 57, 63
1, 49178, Note_off_c, 0, 65, 63
1, 49178, Note_off_c, 0, 69, 66
1, 49181, Note_off_c, 0, 53, 66
1, 49300, Note_on_c, 0, 53, 68
1, 49320, Note_on_c, 0, 50, 58
1, 49336, Note_off_c, 0, 53, 66
1, 49342, Note_off_c, 0, 50, 63
1, 49445, Note_on_c, 0, 62, 65
1, 49445, Note_on_c, 0, 65, 64
1, 49463, Note_off_c, 0, 62, 64
1, 49469, Note_off_c, 0, 65, 66
1, 49610, Note_on_c, 0, 46, 68
1, 49619, Note_on_c, 0, 50, 49
1, 49639, Note_off_c, 0, 46, 65
1, 49646, Note_off_c, 0, 50, 56
1, 49768, Note_on_c, 0, 62, 70
1, 49770, Note_on_c, 0, 58, 59
1, 49790, Note_off_c, 0, 58, 62
1, 49795, Note_off_c, 0, 62, 66
1, 49897, Control_c, 0, 67, 96
1, 49912, Control_c, 0, 67, 64
1, 49927, Control_c, 0, 67, 36
1, 49928, Note_on_c, 0, 58, 71
1, 49935, Note_on_c, 0, 55, 69
1, 49941, Control_c, 0, 67, 0
1, 50068, Control_c, 0, 67, 17
1, 50097, Control_c, 0, 67, 19
1, 50112, Control_c, 0, 67, 21
1, 50120, Note_on_c, 0, 70, 85
1, 50127, Control_c, 0, 64, 54
1, 50127, Control_c, 0, 67, 24
1, 50129, Note_on_c, 0, 67, 68
1, 50141, Control_c, 0, 64, 66
1, 50147, Note_off_c, 0, 67, 67
1, 50156, Control_c, 0, 64, 70
1, 50156, Control_c, 0, 67, 26
1, 50164, Note_off_c, 0, 70, 67
1, 50171, Control_c, 0, 64, 74
1, 50186, Control_c, 0, 64, 77
1, 50201, Control_c, 0, 64, 79
1, 50215, Control_c, 0, 64, 80
1, 50227, Note_off_c, 0, 58, 63
1, 50394, Control_c, 0, 64, 80
1, 50405, Note_off_c, 0, 55, 55
1, 50409, Control_c, 0, 64, 79
1, 50423, Control_c, 0, 64, 73
1, 50423, Control_c, 0, 67, 29
1, 50438, Control_c, 0, 64, 62
1, 50439, Note_on_c, 0, 65, 66
1, 50439, Note_on_c, 0, 69, 61
1, 50446, Note_on_c, 0, 53, 61
1, 50446, Note_on_c, 0, 57, 61
1, 50453, Control_c, 0, 64, 32
1, 50458, Note_off_c, 0, 65, 66
1, 50468, Control_c, 0, 64, 0
1, 50468, Control_c, 0, 67, 31
1, 50469, Note_off_c, 0, 69, 65
1, 50477, Note_off_c, 0, 53, 64
1, 50477, Note_off_c, 0, 57, 66
1, 50482, Control_c, 0, 67, 32
1, 50497, Control_c, 0, 67, 33
1, 50512, Control_c, 0, 67, 35
1, 50527, Control_c, 0, 67, 37
1, 50541, Control_c, 0, 67, 41
1, 50556, Control_c, 0, 67, 47
1, 50571, Control_c, 0, 67, 55
1, 50586, Control_c, 0, 67, 62
1, 50599, Note_on_c, 0, 52, 65
1, 50600, Note_on_c, 0, 55, 58
1, 50601, Control_c, 0, 67, 69
1, 50615, Control_c, 0, 67, 73
1, 50620, Note_off_c, 0, 55, 62
1, 50628, Note_off_c, 0, 52, 64
1, 50631, Control_c, 0, 67, 73
1, 50705, Control_c, 0, 67, 73
1, 50720, Control_c, 0, 67, 72
1, 50750, Control_c, 0, 67, 72
1, 50779, Control_c, 0, 67, 71
1, 50832, Control_c, 0, 67, 71
1, 50877, Control_c, 0, 67, 70
1, 50911, Note_on_c, 0, 52, 67
1, 50916, Note_on_c, 0, 48, 58
1, 50937, Note_off_c, 0, 52, 65
1, 50940, Note_off_c, 0, 48, 61
1, 50951, Control_c, 0, 67, 70
1, 51054, Control_c, 0, 67, 69
1, 51063, Note_on_c, 0, 64, 63
1, 51066, Note_on_c, 0, 60, 59
1, 51069, Control_c, 0, 67, 67
1, 51084, Control_c, 0, 67, 64
1, 51086, Note_off_c, 0, 60, 64
1, 51092, Note_off_c, 0, 64, 66
1, 51099, Control_c, 0, 67, 62
1, 51113, Control_c, 0, 67, 59
1, 51128, Control_c, 0, 67, 53
1, 51143, Control_c, 0, 67, 47
1, 51158, Control_c, 0, 67, 41
1, 51172, Control_c, 0, 67, 36
1, 51187, Control_c, 0, 67, 32
1, 51225, Note_on_c, 0, 60, 67
1, 51228, Note_on_c, 0, 57, 70
1, 51389, Note_on_c, 0, 72, 81
1, 51398, Note_on_c, 0, 69, 74
1, 51410, Control_c, 0, 64, 47
1, 51420, Note_off_c, 0, 69, 69
1, 51425, Control_c, 0, 64, 65
1, 51425, Control_c, 0, 67, 32
1, 51432, Note_off_c, 0, 72, 63
1, 51440, Control_c, 0, 64, 71
1, 51440, Control_c, 0, 67, 33
1, 51455, Control_c, 0, 64, 78
1, 51470, Control_c, 0, 64, 82
1, 51485, Control_c, 0, 64, 83
1, 51545, Note_off_c, 0, 60, 59
1, 51550, Note_off_c, 0, 57, 61
1, 51685, Control_c, 0, 64, 81
1, 51700, Control_c, 0, 64, 71
1, 51708, Note_on_c, 0, 72, 71
1, 51714, Control_c, 0, 64, 57
1, 51715, Note_on_c, 0, 57, 68
1, 51719, Note_on_c, 0, 69, 53
1, 51720, Note_on_c, 0, 60, 50
1, 51729, Control_c, 0, 64, 0
1, 51738, Note_off_c, 0, 72, 64
1, 51740, Note_off_c, 0, 57, 69
1, 51744, Note_off_c, 0, 69, 58
1, 51747, Note_off_c, 0, 60, 57
1, 51774, Control_c, 0, 67, 33
1, 51862, Note_on_c, 0, 57, 67
1, 51870, Note_on_c, 0, 53, 62
1, 51884, Note_off_c, 0, 57, 65
1, 51899, Note_off_c, 0, 53, 64
1, 52005, Note_on_c, 0, 69, 69
1, 52011, Note_on_c, 0, 65, 65
1, 52025, Control_c, 0, 67, 34
1, 52030, Note_off_c, 0, 69, 67
1, 52031, Note_off_c, 0, 65, 65
1, 52054, Control_c, 0, 67, 34
1, 52163, Note_on_c, 0, 53, 64
1, 52167, Note_on_c, 0, 50, 58
1, 52190, Note_off_c, 0, 50, 61
1, 52192, Note_off_c, 0, 53, 65
1, 52305, Note_on_c, 0, 62, 70
1, 52317, Note_on_c, 0, 65, 69
1, 52330, Control_c, 0, 67, 34
1, 52341, Note_off_c, 0, 62, 66
1, 52344, Note_off_c, 0, 65, 67
1, 52344, Control_c, 0, 67, 32
1, 52359, Control_c, 0, 67, 29
1, 52374, Control_c, 0, 67, 20
1, 52389, Control_c, 0, 67, 0
1, 52484, Note_on_c, 0, 58, 78
1, 52484, Note_on_c, 0, 62, 80
1, 52645, Note_on_c, 0, 74, 91
1, 52655, Note_on_c, 0, 70, 82
1, 52671, Control_c, 0, 64, 54
1, 52685, Control_c, 0, 64, 73
1, 52698, Note_off_c, 0, 70, 66
1, 52700, Control_c, 0, 64, 87
1, 52710, Note_off_c, 0, 74, 62
1, 52715, Control_c, 0, 64, 118
1, 52730, Control_c, 0, 64, 127
1, 52785, Note_off_c, 0, 62, 47
1, 52893, Note_off_c, 0, 58, 56
1, 52967, Control_c, 0, 64, 85
1, 52972, Note_on_c, 0, 69, 69
1, 52975, Note_on_c, 0, 72, 70
1, 52978, Note_on_c, 0, 57, 68
1, 52981, Note_on_c, 0, 60, 56
1, 52981, Control_c, 0, 64, 62
1, 52990, Note_off_c, 0, 69, 66
1, 52996, Control_c, 0, 64, 0
1, 53002, Note_off_c, 0, 60, 61
1, 53005, Note_off_c, 0, 72, 63
1, 53014, Note_off_c, 0, 57, 59
1, 53134, Note_on_c, 0, 58, 71
1, 53141, Note_on_c, 0, 55, 62
1, 53161, Note_off_c, 0, 58, 67
1, 53166, Note_off_c, 0, 55, 63
1, 53267, Note_on_c, 0, 67, 65
1, 53270, Note_on_c, 0, 70, 63
1, 53285, Note_off_c, 0, 67, 67
1, 53296, Note_off_c, 0, 70, 66
1, 53422, Note_on_c, 0, 55, 71
1, 53424, Note_on_c, 0, 52, 61
1, 53445, Note_off_c, 0, 55, 69
1, 53448, Note_off_c, 0, 52, 63
1, 53566, Note_on_c, 0, 67, 77
1, 53566, Note_on_c, 0, 64, 71
1, 53590, Note_off_c, 0, 64, 70
1, 53592, Note_off_c, 0, 67, 68
1, 53742, Note_on_c, 0, 67, 92
1, 53746, Note_on_c, 0, 58, 89
1, 53954, Note_on_c, 0, 79, 99
1, 53959, Note_on_c, 0, 70, 89
1, 54005, Control_c, 0, 64, 53
1, 54020, Control_c, 0, 64, 66
1, 54035, Control_c, 0, 64, 69
1, 54050, Control_c, 0, 64, 72
1, 54064, Control_c, 0, 64, 77
1, 54079, Control_c, 0, 64, 83
1, 54094, Control_c, 0, 64, 88
1, 54108, Control_c, 0, 64, 93
1, 54112, Note_off_c, 0, 67, 56
1, 54123, Control_c, 0, 64, 95
1, 54153, Control_c, 0, 64, 97
1, 54168, Control_c, 0, 64, 99
1, 54177, Note_off_c, 0, 79, 61
1, 54183, Control_c, 0, 64, 102
1, 54198, Control_c, 0, 64, 106
1, 54213, Control_c, 0, 64, 109
1, 54257, Control_c, 0, 64, 98
1, 54272, Note_on_c, 0, 77, 89
1, 54272, Control_c, 0, 64, 71
1, 54272, Note_on_c, 0, 69, 80
1, 54274, Note_on_c, 0, 65, 87
1, 54275, Note_on_c, 0, 57, 81
1, 54284, Note_off_c, 0, 70, 64
1, 54287, Control_c, 0, 64, 38
1, 54295, Note_off_c, 0, 58, 58
1, 54297, Note_off_c, 0, 69, 65
1, 54302, Control_c, 0, 64, 0
1, 54308, Note_off_c, 0, 65, 63
1, 54314, Note_off_c, 0, 57, 63
1, 54316, Note_off_c, 0, 77, 64
1, 54436, Note_on_c, 0, 64, 77
1, 54441, Note_on_c, 0, 55, 76
1, 54615, Note_on_c, 0, 76, 90
1, 54620, Note_on_c, 0, 67, 73
1, 54666, Control_c, 0, 64, 57
1, 54681, Control_c, 0, 64, 63
1, 54681, Control_c, 0, 67, 22
1, 54684, Note_off_c, 0, 64, 50
1, 54695, Control_c, 0, 64, 64
1, 54710, Control_c, 0, 64, 65
1, 54725, Control_c, 0, 64, 67
1, 54739, Control_c, 0, 64, 68
1, 54754, Control_c, 0, 64, 70
1, 54769, Control_c, 0, 64, 71
1, 54784, Control_c, 0, 64, 72
1, 54815, Note_off_c, 0, 67, 59
1, 54817, Note_off_c, 0, 76, 60
1, 54843, Control_c, 0, 67, 24
1, 54887, Control_c, 0, 64, 71
1, 54902, Control_c, 0, 64, 70
1, 54905, Note_off_c, 0, 55, 58
1, 54913, Note_on_c, 0, 53, 68
1, 54917, Control_c, 0, 64, 66
1, 54921, Note_on_c, 0, 62, 69
1, 54923, Note_on_c, 0, 74, 76
1, 54926, Note_on_c, 0, 65, 75
1, 54932, Control_c, 0, 64, 56
1, 54946, Control_c, 0, 64, 34
1, 54946, Control_c, 0, 67, 26
1, 54951, Note_off_c, 0, 62, 64
1, 54952, Note_off_c, 0, 65, 69
1, 54952, Note_off_c, 0, 74, 60
1, 54961, Note_off_c, 0, 53, 60
1, 54961, Control_c, 0, 64, 0
1, 54991, Control_c, 0, 67, 28
1, 55020, Control_c, 0, 67, 31
1, 55065, Control_c, 0, 67, 32
1, 55065, Note_on_c, 0, 60, 66
1, 55071, Note_on_c, 0, 52, 64
1, 55086, Note_off_c, 0, 60, 66
1, 55095, Control_c, 0, 67, 32
1, 55102, Note_off_c, 0, 52, 64
1, 55110, Control_c, 0, 67, 33
1, 55125, Control_c, 0, 67, 33
1, 55139, Control_c, 0, 67, 34
1, 55154, Control_c, 0, 67, 34
1, 55202, Note_on_c, 0, 72, 69
1, 55204, Note_on_c, 0, 64, 66
1, 55213, Control_c, 0, 67, 35
1, 55227, Note_off_c, 0, 72, 67
1, 55231, Note_off_c, 0, 64, 67
1, 55287, Control_c, 0, 67, 36
1, 55310, Control_c, 0, 67, 36
1, 55324, Control_c, 0, 67, 38
1, 55339, Control_c, 0, 67, 41
1, 55354, Control_c, 0, 67, 45
1, 55359, Note_on_c, 0, 50, 66
1, 55360, Note_on_c, 0, 53, 56
1, 55369, Control_c, 0, 67, 49
1, 55384, Control_c, 0, 67, 53
1, 55385, Note_off_c, 0, 53, 61
1, 55387, Note_off_c, 0, 50, 65
1, 55399, Control_c, 0, 67, 55
1, 55413, Control_c, 0, 67, 56
1, 55428, Control_c, 0, 67, 57
1, 55444, Control_c, 0, 67, 58
1, 55459, Control_c, 0, 67, 59
1, 55488, Control_c, 0, 67, 59
1, 55512, Note_on_c, 0, 70, 70
1, 55518, Control_c, 0, 67, 60
1, 55521, Note_on_c, 0, 58, 54
1, 55533, Control_c, 0, 64, 41
1, 55542, Note_off_c, 0, 70, 61
1, 55548, Control_c, 0, 64, 53
1, 55556, Note_off_c, 0, 58, 64
1, 55562, Control_c, 0, 64, 61
1, 55562, Control_c, 0, 67, 60
1, 55577, Control_c, 0, 64, 63
1, 55592, Control_c, 0, 64, 64
1, 55592, Control_c, 0, 67, 61
1, 55651, Control_c, 0, 64, 63
1, 55666, Control_c, 0, 64, 60
1, 55677, Note_on_c, 0, 52, 48
1, 55679, Note_on_c, 0, 49, 55
1, 55680, Control_c, 0, 64, 54
1, 55681, Note_on_c, 0, 69, 60
1, 55683, Note_on_c, 0, 55, 48
1, 55695, Control_c, 0, 64, 47
1, 55707, Note_off_c, 0, 69, 58
1, 55710, Control_c, 0, 64, 40
1, 55725, Control_c, 0, 64, 34
1, 55740, Control_c, 0, 64, 0
1, 55766, Note_on_c, 0, 57, 66
1, 55769, Control_c, 0, 64, 34
1, 55784, Control_c, 0, 64, 40
1, 55799, Control_c, 0, 64, 50
1, 55799, Control_c, 0, 67, 60
1, 55804, Note_off_c, 0, 57, 60
1, 55814, Control_c, 0, 64, 58
1, 55828, Control_c, 0, 64, 61
1, 55828, Control_c, 0, 67, 60
1, 55837, Note_on_c, 0, 61, 67
1, 55843, Control_c, 0, 64, 62
1, 55843, Control_c, 0, 67, 59
1, 55858, Control_c, 0, 64, 62
1, 55858, Control_c, 0, 67, 57
1, 55873, Control_c, 0, 64, 63
1, 55873, Control_c, 0, 67, 56
1, 55880, Note_off_c, 0, 61, 60
1, 55888, Control_c, 0, 64, 63
1, 55888, Control_c, 0, 67, 55
1, 55891, Note_on_c, 0, 64, 74
1, 55903, Control_c, 0, 64, 64
1, 55903, Control_c, 0, 67, 54
1, 55915, Note_off_c, 0, 64, 70
1, 55918, Control_c, 0, 67, 52
1, 55933, Control_c, 0, 64, 63
1, 55933, Control_c, 0, 67, 50
1, 55947, Control_c, 0, 64, 62
1, 55947, Control_c, 0, 67, 49
1, 55962, Control_c, 0, 64, 62
1, 55962, Control_c, 0, 67, 47
1, 55977, Control_c, 0, 64, 60
1, 55977, Control_c, 0, 67, 46
1, 55977, Note_on_c, 0, 69, 78
1, 55992, Control_c, 0, 64, 58
1, 55992, Control_c, 0, 67, 43
1, 56007, Control_c, 0, 64, 56
1, 56007, Control_c, 0, 67, 41
1, 56022, Control_c, 0, 64, 55
1, 56022, Control_c, 0, 67, 40
1, 56036, Control_c, 0, 64, 56
1, 56036, Control_c, 0, 67, 39
1, 56048, Note_off_c, 0, 69, 55
1, 56059, Control_c, 0, 64, 56
1, 56061, Note_on_c, 0, 73, 65
1, 56088, Control_c, 0, 67, 40
1, 56102, Note_off_c, 0, 73, 61
1, 56103, Control_c, 0, 67, 40
1, 56107, Note_on_c, 0, 76, 75
1, 56118, Control_c, 0, 67, 41
1, 56133, Control_c, 0, 67, 41
1, 56148, Control_c, 0, 64, 56
1, 56162, Control_c, 0, 67, 42
1, 56167, Note_off_c, 0, 76, 62
1, 56177, Control_c, 0, 64, 55
1, 56177, Control_c, 0, 67, 42
1, 56182, Note_on_c, 0, 80, 75
1, 56192, Control_c, 0, 64, 55
1, 56207, Control_c, 0, 64, 54
1, 56222, Control_c, 0, 64, 53
1, 56238, Control_c, 0, 64, 51
1, 56240, Note_on_c, 0, 81, 60
1, 56253, Control_c, 0, 64, 49
1, 56257, Note_off_c, 0, 80, 64
1, 56267, Control_c, 0, 64, 47
1, 56282, Control_c, 0, 64, 46
1, 56297, Control_c, 0, 64, 46
1, 56297, Control_c, 0, 67, 43
1, 56311, Control_c, 0, 64, 45
1, 56318, Note_on_c, 0, 80, 66
1, 56320, Note_off_c, 0, 81, 62
1, 56326, Control_c, 0, 64, 43
1, 56326, Control_c, 0, 67, 43
1, 56341, Control_c, 0, 64, 40
1, 56341, Control_c, 0, 67, 44
1, 56356, Control_c, 0, 64, 35
1, 56356, Control_c, 0, 67, 44
1, 56361, Note_off_c, 0, 80, 64
1, 56371, Control_c, 0, 64, 32
1, 56374, Note_on_c, 0, 81, 69
1, 56386, Control_c, 0, 64, 0
1, 56386, Control_c, 0, 67, 45
1, 56439, Note_off_c, 0, 81, 64
1, 56444, Note_on_c, 0, 80, 75
1, 56445, Control_c, 0, 67, 44
1, 56460, Control_c, 0, 67, 44
1, 56475, Control_c, 0, 64, 35
1, 56475, Control_c, 0, 67, 42
1, 56481, Note_off_c, 0, 80, 65
1, 56490, Control_c, 0, 64, 50
1, 56490, Control_c, 0, 67, 40
1, 56502, Note_on_c, 0, 81, 77
1, 56504, Control_c, 0, 64, 61
1, 56504, Control_c, 0, 67, 37
1, 56519, Control_c, 0, 64, 65
1, 56519, Control_c, 0, 67, 29
1, 56534, Control_c, 0, 64, 66
1, 56534, Control_c, 0, 67, 19
1, 56549, Control_c, 0, 67, 0
1, 56568, Note_off_c, 0, 81, 63
1, 56579, Note_on_c, 0, 76, 72
1, 56593, Control_c, 0, 64, 67
1, 56608, Control_c, 0, 64, 67
1, 56633, Note_off_c, 0, 55, 60
1, 56636, Note_off_c, 0, 76, 60
1, 56637, Control_c, 0, 64, 68
1, 56647, Note_on_c, 0, 73, 71
1, 56652, Control_c, 0, 67, 17
1, 56697, Control_c, 0, 67, 20
1, 56699, Note_off_c, 0, 73, 65
1, 56713, Note_on_c, 0, 69, 66
1, 56741, Control_c, 0, 67, 22
1, 56742, Note_off_c, 0, 69, 65
1, 56756, Control_c, 0, 64, 66
1, 56771, Control_c, 0, 64, 64
1, 56774, Note_on_c, 0, 50, 62
1, 56779, Note_off_c, 0, 52, 62
1, 56782, Note_on_c, 0, 53, 66
1, 56785, Control_c, 0, 64, 60
1, 56794, Note_off_c, 0, 49, 60
1, 56808, Control_c, 0, 64, 55
1, 56823, Control_c, 0, 64, 51
1, 56837, Control_c, 0, 64, 45
1, 56852, Control_c, 0, 64, 36
1, 56867, Control_c, 0, 64, 0
1, 56870, Note_on_c, 0, 57, 73
1, 56930, Note_off_c, 0, 57, 59
1, 56935, Note_on_c, 0, 62, 77
1, 56941, Control_c, 0, 64, 36
1, 56956, Control_c, 0, 64, 44
1, 56971, Control_c, 0, 64, 51
1, 56985, Control_c, 0, 64, 58
1, 57000, Control_c, 0, 64, 61
1, 57002, Note_on_c, 0, 65, 80
1, 57004, Note_off_c, 0, 62, 62
1, 57015, Control_c, 0, 64, 62
1, 57035, Note_off_c, 0, 65, 62
1, 57076, Control_c, 0, 64, 62
1, 57080, Note_on_c, 0, 69, 87
1, 57090, Control_c, 0, 64, 61
1, 57105, Control_c, 0, 64, 59
1, 57105, Control_c, 0, 67, 20
1, 57120, Control_c, 0, 64, 57
1, 57128, Note_off_c, 0, 69, 62
1, 57134, Control_c, 0, 64, 56
1, 57145, Note_on_c, 0, 74, 79
1, 57149, Control_c, 0, 67, 17
1, 57164, Control_c, 0, 64, 57
1, 57164, Control_c, 0, 67, 0
1, 57179, Control_c, 0, 64, 57
1, 57204, Note_off_c, 0, 74, 62
1, 57211, Note_on_c, 0, 77, 76
1, 57268, Note_off_c, 0, 77, 65
1, 57275, Note_on_c, 0, 80, 79
1, 57330, Note_on_c, 0, 81, 67
1, 57338, Note_off_c, 0, 80, 67
1, 57342, Control_c, 0, 64, 57
1, 57357, Control_c, 0, 64, 56
1, 57372, Control_c, 0, 64, 57
1, 57387, Control_c, 0, 64, 58
1, 57399, Note_on_c, 0, 80, 83
1, 57401, Control_c, 0, 64, 60
1, 57405, Note_off_c, 0, 81, 62
1, 57416, Control_c, 0, 64, 63
1, 57431, Control_c, 0, 64, 65
1, 57446, Control_c, 0, 64, 69
1, 57451, Note_off_c, 0, 80, 65
1, 57460, Control_c, 0, 64, 72
1, 57463, Note_on_c, 0, 81, 73
1, 57475, Control_c, 0, 64, 75
1, 57490, Control_c, 0, 64, 78
1, 57505, Control_c, 0, 64, 80
1, 57519, Control_c, 0, 64, 83
1, 57526, Note_off_c, 0, 81, 64
1, 57529, Note_on_c, 0, 80, 88
1, 57534, Control_c, 0, 64, 85
1, 57556, Control_c, 0, 64, 88
1, 57571, Control_c, 0, 64, 91
1, 57586, Control_c, 0, 64, 92
1, 57596, Note_off_c, 0, 80, 65
1, 57601, Control_c, 0, 64, 93
1, 57603, Note_on_c, 0, 81, 92
1, 57615, Control_c, 0, 64, 94
1, 57630, Control_c, 0, 64, 96
1, 57645, Control_c, 0, 64, 98
1, 57650, Note_off_c, 0, 50, 63
1, 57659, Control_c, 0, 64, 100
1, 57675, Note_on_c, 0, 77, 86
1, 57688, Note_off_c, 0, 81, 62
1, 57689, Control_c, 0, 64, 102
1, 57737, Note_on_c, 0, 74, 83
1, 57756, Note_off_c, 0, 77, 63
1, 57787, Note_off_c, 0, 74, 64
1, 57802, Note_on_c, 0, 69, 80
1, 57841, Note_off_c, 0, 69, 64
1, 57868, Control_c, 0, 64, 98
1, 57880, Note_on_c, 0, 50, 84
1, 57881, Note_on_c, 0, 47, 84
1, 57882, Control_c, 0, 64, 89
1, 57897, Control_c, 0, 64, 75
1, 57912, Control_c, 0, 64, 58
1, 57915, Note_off_c, 0, 53, 64
1, 57927, Control_c, 0, 64, 0
1, 57940, Note_on_c, 0, 56, 82
1, 57991, Note_off_c, 0, 56, 60
1, 58013, Note_on_c, 0, 59, 81
1, 58031, Control_c, 0, 64, 46
1, 58046, Control_c, 0, 64, 65
1, 58061, Control_c, 0, 64, 67
1, 58070, Note_off_c, 0, 59, 64
1, 58076, Control_c, 0, 64, 68
1, 58090, Control_c, 0, 64, 68
1, 58094, Note_on_c, 0, 62, 80
1, 58153, Note_on_c, 0, 65, 80
1, 58164, Control_c, 0, 64, 70
1, 58169, Note_off_c, 0, 62, 63
1, 58179, Control_c, 0, 64, 72
1, 58194, Control_c, 0, 64, 74
1, 58209, Control_c, 0, 64, 76
1, 58222, Note_on_c, 0, 68, 81
1, 58223, Control_c, 0, 64, 77
1, 58238, Control_c, 0, 64, 78
1, 58243, Note_off_c, 0, 65, 64
1, 58253, Control_c, 0, 64, 80
1, 58263, Note_off_c, 0, 68, 65
1, 58267, Control_c, 0, 64, 81
1, 58282, Control_c, 0, 64, 83
1, 58300, Note_on_c, 0, 71, 90
1, 58305, Control_c, 0, 64, 86
1, 58320, Control_c, 0, 64, 88
1, 58335, Control_c, 0, 64, 90
1, 58350, Control_c, 0, 64, 91
1, 58356, Note_off_c, 0, 71, 62
1, 58365, Control_c, 0, 64, 92
1, 58376, Note_on_c, 0, 74, 84
1, 58380, Control_c, 0, 64, 91
1, 58395, Control_c, 0, 64, 89
1, 58409, Control_c, 0, 64, 84
1, 58424, Control_c, 0, 64, 78
1, 58434, Note_on_c, 0, 77, 87
1, 58436, Note_off_c, 0, 74, 65
1, 58439, Control_c, 0, 64, 73
1, 58469, Control_c, 0, 64, 75
1, 58483, Control_c, 0, 64, 79
1, 58498, Control_c, 0, 64, 85
1, 58502, Note_off_c, 0, 77, 67
1, 58508, Note_on_c, 0, 74, 92
1, 58513, Control_c, 0, 64, 90
1, 58528, Control_c, 0, 64, 93
1, 58543, Control_c, 0, 64, 95
1, 58557, Control_c, 0, 64, 95
1, 58561, Note_off_c, 0, 74, 63
1, 58574, Note_on_c, 0, 80, 94
1, 58587, Control_c, 0, 64, 96
1, 58645, Note_on_c, 0, 77, 80
1, 58667, Note_off_c, 0, 47, 62
1, 58667, Note_off_c, 0, 50, 61
1, 58687, Note_off_c, 0, 80, 60
1, 58705, Note_on_c, 0, 74, 84
1, 58716, Note_off_c, 0, 77, 63
1, 58755, Note_off_c, 0, 74, 62
1, 58777, Note_on_c, 0, 71, 84
1, 58815, Note_off_c, 0, 71, 69
1, 58836, Note_on_c, 0, 68, 89
1, 58854, Control_c, 0, 64, 98
1, 58869, Control_c, 0, 64, 101
1, 58884, Control_c, 0, 64, 107
1, 58896, Note_on_c, 0, 65, 93
1, 58899, Control_c, 0, 64, 121
1, 58903, Note_off_c, 0, 68, 62
1, 58913, Control_c, 0, 64, 127
1, 58928, Control_c, 0, 64, 110
1, 58943, Control_c, 0, 64, 71
1, 58947, Note_off_c, 0, 65, 67
1, 58958, Note_on_c, 0, 46, 86
1, 58958, Note_on_c, 0, 55, 94
1, 58958, Control_c, 0, 64, 0
1, 58960, Note_on_c, 0, 52, 93
1, 58961, Note_on_c, 0, 49, 86
1, 59039, Note_on_c, 0, 64, 89
1, 59122, Note_off_c, 0, 64, 63
1, 59123, Note_on_c, 0, 67, 81
1, 59128, Control_c, 0, 64, 44
1, 59143, Control_c, 0, 64, 65
1, 59158, Control_c, 0, 64, 68
1, 59173, Control_c, 0, 64, 70
1, 59184, Note_on_c, 0, 70, 85
1, 59188, Control_c, 0, 64, 72
1, 59197, Note_off_c, 0, 67, 65
1, 59203, Control_c, 0, 64, 74
1, 59217, Control_c, 0, 64, 76
1, 59232, Control_c, 0, 64, 77
1, 59247, Control_c, 0, 64, 78
1, 59252, Note_on_c, 0, 73, 83
1, 59262, Control_c, 0, 64, 80
1, 59277, Control_c, 0, 64, 82
1, 59277, Note_off_c, 0, 70, 64
1, 59292, Control_c, 0, 64, 86
1, 59294, Note_off_c, 0, 73, 67
1, 59306, Control_c, 0, 64, 90
1, 59321, Control_c, 0, 64, 96
1, 59322, Note_on_c, 0, 76, 95
1, 59336, Control_c, 0, 64, 101
1, 59351, Control_c, 0, 64, 103
1, 59380, Control_c, 0, 64, 91
1, 59386, Note_on_c, 0, 79, 94
1, 59386, Note_off_c, 0, 76, 62
1, 59395, Control_c, 0, 64, 76
1, 59410, Control_c, 0, 64, 66
1, 59425, Control_c, 0, 64, 64
1, 59441, Control_c, 0, 64, 67
1, 59455, Control_c, 0, 64, 72
1, 59459, Note_on_c, 0, 82, 93
1, 59468, Note_off_c, 0, 79, 66
1, 59470, Control_c, 0, 64, 77
1, 59485, Control_c, 0, 64, 84
1, 59500, Control_c, 0, 64, 89
1, 59515, Control_c, 0, 64, 90
1, 59525, Note_on_c, 0, 85, 90
1, 59544, Control_c, 0, 64, 91
1, 59559, Control_c, 0, 64, 93
1, 59567, Note_off_c, 0, 82, 65
1, 59574, Control_c, 0, 64, 98
1, 59585, Note_off_c, 0, 55, 58
1, 59587, Note_on_c, 0, 88, 82
1, 59587, Note_off_c, 0, 46, 61
1, 59589, Control_c, 0, 64, 105
1, 59593, Note_off_c, 0, 52, 61
1, 59603, Control_c, 0, 64, 112
1, 59612, Note_off_c, 0, 49, 62
1, 59618, Control_c, 0, 64, 116
1, 59619, Note_off_c, 0, 85, 64
1, 59647, Note_off_c, 0, 88, 66
1, 59647, Control_c, 0, 64, 101
1, 59662, Control_c, 0, 64, 76
1, 59664, Note_on_c, 0, 76, 90
1, 59677, Control_c, 0, 64, 51
1, 59683, Note_on_c, 0, 48, 65
1, 59683, Note_on_c, 0, 55, 68
1, 59692, Control_c, 0, 64, 0
1, 59701, Note_on_c, 0, 46, 48
1, 59701, Note_off_c, 0, 55, 65
1, 59707, Note_off_c, 0, 76, 63
1, 59712, Note_off_c, 0, 48, 67
1, 59727, Note_off_c, 0, 46, 57
1, 59731, Note_on_c, 0, 88, 87
1, 59775, Note_off_c, 0, 88, 67
1, 59805, Note_on_c, 0, 76, 96
1, 59814, Note_on_c, 0, 46, 72
1, 59814, Note_on_c, 0, 55, 65
1, 59818, Note_on_c, 0, 48, 61
1, 59853, Note_off_c, 0, 76, 66
1, 59855, Note_off_c, 0, 55, 60
1, 59857, Note_off_c, 0, 48, 65
1, 59861, Note_off_c, 0, 46, 61
1, 59873, Note_on_c, 0, 88, 92
1, 59918, Note_off_c, 0, 88, 66
1, 59935, Note_on_c, 0, 76, 100
1, 59942, Note_on_c, 0, 55, 78
1, 59948, Note_on_c, 0, 46, 73
1, 59948, Note_on_c, 0, 48, 72
1, 59984, Note_off_c, 0, 46, 61
1, 59984, Note_off_c, 0, 55, 53
1, 59996, Note_off_c, 0, 76, 64
1, 59996, Control_c, 0, 64, 47
1, 60002, Note_on_c, 0, 88, 93
1, 60002, Note_off_c, 0, 48, 60
1, 60010, Control_c, 0, 64, 60
1, 60025, Control_c, 0, 64, 66
1, 60040, Control_c, 0, 64, 70
1, 60055, Note_off_c, 0, 88, 67
1, 60055, Control_c, 0, 64, 71
1, 60066, Note_on_c, 0, 53, 103
1, 60073, Note_on_c, 0, 45, 90
1, 60073, Note_on_c, 0, 77, 105
1, 60091, Note_on_c, 0, 48, 48
1, 60094, Note_off_c, 0, 53, 68
1, 60096, Note_off_c, 0, 45, 70
1, 60100, Control_c, 0, 64, 70
1, 60115, Control_c, 0, 64, 69
1, 60121, Note_off_c, 0, 48, 36
1, 60129, Control_c, 0, 64, 67
1, 60131, Note_off_c, 0, 77, 64
1, 60144, Control_c, 0, 64, 65
1, 60145, Note_on_c, 0, 89, 94
1, 60159, Control_c, 0, 64, 64
1, 60173, Control_c, 0, 64, 64
1, 60188, Control_c, 0, 64, 63
1, 60198, Note_off_c, 0, 89, 67
1, 60203, Control_c, 0, 64, 62
1, 60219, Control_c, 0, 64, 61
1, 60228, Note_on_c, 0, 76, 92
1, 60234, Control_c, 0, 64, 59
1, 60249, Control_c, 0, 64, 58
1, 60264, Control_c, 0, 64, 56
1, 60276, Note_off_c, 0, 76, 65
1, 60278, Control_c, 0, 64, 54
1, 60293, Control_c, 0, 64, 52
1, 60303, Note_on_c, 0, 88, 87
1, 60308, Control_c, 0, 64, 53
1, 60323, Control_c, 0, 64, 56
1, 60338, Control_c, 0, 64, 60
1, 60344, Note_off_c, 0, 88, 68
1, 60352, Control_c, 0, 64, 62
1, 60361, Note_on_c, 0, 77, 89
1, 60367, Control_c, 0, 64, 63
1, 60396, Control_c, 0, 64, 63
1, 60403, Note_off_c, 0, 77, 65
1, 60411, Control_c, 0, 64, 64
1, 60426, Control_c, 0, 64, 64
1, 60437, Note_on_c, 0, 89, 69
1, 60441, Control_c, 0, 64, 65
1, 60454, Note_on_c, 0, 88, 62
1, 60455, Note_off_c, 0, 89, 66
1, 60456, Control_c, 0, 64, 64
1, 60470, Control_c, 0, 64, 63
1, 60471, Note_off_c, 0, 88, 65
1, 60485, Control_c, 0, 64, 62
1, 60500, Note_on_c, 0, 40, 77
1, 60500, Note_on_c, 0, 70, 92
1, 60500, Control_c, 0, 64, 59
1, 60503, Note_on_c, 0, 48, 68
1, 60515, Control_c, 0, 64, 58
1, 60530, Control_c, 0, 64, 56
1, 60535, Note_off_c, 0, 48, 66
1, 60536, Note_off_c, 0, 40, 65
1, 60552, Note_off_c, 0, 70, 66
1, 60552, Control_c, 0, 64, 55
1, 60567, Control_c, 0, 64, 54
1, 60574, Note_on_c, 0, 82, 81
1, 60621, Note_off_c, 0, 82, 66
1, 60626, Control_c, 0, 64, 53
1, 60641, Control_c, 0, 64, 48
1, 60643, Note_on_c, 0, 41, 76
1, 60644, Note_on_c, 0, 48, 68
1, 60645, Note_on_c, 0, 69, 89
1, 60656, Control_c, 0, 64, 43
1, 60670, Control_c, 0, 64, 38
1, 60674, Note_off_c, 0, 48, 66
1, 60675, Note_off_c, 0, 41, 63
1, 60685, Control_c, 0, 64, 35
1, 60690, Note_off_c, 0, 69, 66
1, 60700, Control_c, 0, 64, 34
1, 60702, Note_on_c, 0, 81, 70
1, 60715, Control_c, 0, 64, 35
1, 60730, Note_off_c, 0, 81, 65
1, 60730, Control_c, 0, 64, 42
1, 60745, Control_c, 0, 64, 54
1, 60759, Control_c, 0, 64, 62
1, 60774, Control_c, 0, 64, 65
1, 60775, Note_on_c, 0, 46, 90
1, 60779, Note_on_c, 0, 48, 71
1, 60781, Note_on_c, 0, 76, 92
1, 60789, Control_c, 0, 64, 67
1, 60817, Note_off_c, 0, 48, 65
1, 60829, Note_off_c, 0, 76, 65
1, 60833, Note_off_c, 0, 46, 62
1, 60848, Note_on_c, 0, 88, 81
1, 60893, Control_c, 0, 64, 66
1, 60902, Note_off_c, 0, 88, 65
1, 60908, Control_c, 0, 64, 65
1, 60919, Note_on_c, 0, 77, 87
1, 60923, Control_c, 0, 64, 64
1, 60923, Note_on_c, 0, 45, 74
1, 60935, Note_on_c, 0, 48, 52
1, 60937, Control_c, 0, 64, 64
1, 60952, Control_c, 0, 64, 63
1, 60956, Note_off_c, 0, 77, 66
1, 60959, Note_off_c, 0, 45, 64
1, 60959, Note_off_c, 0, 48, 59
1, 60967, Control_c, 0, 64, 63
1, 60982, Control_c, 0, 64, 61
1, 60986, Note_on_c, 0, 89, 84
1, 60997, Control_c, 0, 64, 57
1, 61003, Note_off_c, 0, 89, 73
1, 61011, Control_c, 0, 64, 51
1, 61027, Control_c, 0, 64, 42
1, 61042, Control_c, 0, 64, 0
1, 61060, Note_on_c, 0, 70, 98
1, 61061, Note_on_c, 0, 40, 81
1, 61061, Note_on_c, 0, 48, 65
1, 61100, Note_off_c, 0, 48, 64
1, 61101, Control_c, 0, 64, 38
1, 61110, Note_off_c, 0, 70, 65
1, 61112, Note_off_c, 0, 40, 63
1, 61116, Control_c, 0, 64, 51
1, 61131, Control_c, 0, 64, 61
1, 61134, Note_on_c, 0, 82, 88
1, 61146, Control_c, 0, 64, 65
1, 61161, Control_c, 0, 64, 67
1, 61175, Control_c, 0, 64, 69
1, 61180, Note_off_c, 0, 82, 67
1, 61190, Control_c, 0, 64, 70
1, 61200, Note_on_c, 0, 69, 90
1, 61205, Note_on_c, 0, 48, 82
1, 61205, Control_c, 0, 64, 71
1, 61209, Note_on_c, 0, 41, 77
1, 61219, Control_c, 0, 64, 72
1, 61234, Control_c, 0, 64, 70
1, 61240, Note_off_c, 0, 41, 64
1, 61241, Note_off_c, 0, 48, 64
1, 61241, Note_off_c, 0, 69, 66
1, 61249, Control_c, 0, 64, 65
1, 61250, Note_on_c, 0, 81, 84
1, 61264, Control_c, 0, 64, 56
1, 61279, Control_c, 0, 64, 44
1, 61296, Note_off_c, 0, 81, 65
1, 61300, Control_c, 0, 64, 0
1, 61343, Note_on_c, 0, 76, 98
1, 61345, Control_c, 0, 64, 34
1, 61346, Note_on_c, 0, 46, 84
1, 61350, Note_on_c, 0, 48, 80
1, 61360, Control_c, 0, 64, 36
1, 61374, Control_c, 0, 64, 38
1, 61389, Note_off_c, 0, 48, 64
1, 61389, Control_c, 0, 64, 45
1, 61394, Note_off_c, 0, 76, 66
1, 61402, Note_off_c, 0, 46, 63
1, 61404, Control_c, 0, 64, 55
1, 61411, Note_on_c, 0, 88, 89
1, 61418, Control_c, 0, 64, 62
1, 61433, Control_c, 0, 64, 66
1, 61448, Control_c, 0, 64, 70
1, 61463, Note_off_c, 0, 88, 65
1, 61463, Control_c, 0, 64, 73
1, 61478, Control_c, 0, 64, 77
1, 61486, Note_on_c, 0, 77, 93
1, 61487, Note_on_c, 0, 45, 83
1, 61489, Note_on_c, 0, 48, 74
1, 61493, Control_c, 0, 64, 79
1, 61507, Control_c, 0, 64, 78
1, 61515, Note_off_c, 0, 48, 69
1, 61521, Note_off_c, 0, 45, 67
1, 61522, Control_c, 0, 64, 74
1, 61534, Note_off_c, 0, 77, 64
1, 61537, Control_c, 0, 64, 65
1, 61552, Control_c, 0, 64, 56
1, 61565, Note_on_c, 0, 89, 77
1, 61566, Control_c, 0, 64, 49
1, 61581, Control_c, 0, 64, 41
1, 61587, Note_off_c, 0, 89, 70
1, 61596, Control_c, 0, 64, 36
1, 61611, Control_c, 0, 64, 34
1, 61623, Note_on_c, 0, 40, 89
1, 61626, Control_c, 0, 64, 0
1, 61626, Note_on_c, 0, 48, 83
1, 61628, Note_on_c, 0, 70, 92
1, 61659, Note_off_c, 0, 48, 65
1, 61667, Note_off_c, 0, 40, 64
1, 61683, Note_off_c, 0, 70, 63
1, 61686, Control_c, 0, 64, 34
1, 61696, Note_on_c, 0, 82, 91
1, 61700, Control_c, 0, 64, 40
1, 61715, Control_c, 0, 64, 44
1, 61730, Control_c, 0, 64, 45
1, 61744, Control_c, 0, 64, 46
1, 61747, Note_off_c, 0, 82, 67
1, 61759, Control_c, 0, 64, 47
1, 61766, Note_on_c, 0, 48, 90
1, 61767, Note_on_c, 0, 41, 88
1, 61769, Note_on_c, 0, 69, 94
1, 61774, Control_c, 0, 64, 48
1, 61789, Control_c, 0, 64, 49
1, 61806, Note_off_c, 0, 41, 64
1, 61808, Note_off_c, 0, 48, 65
1, 61813, Note_off_c, 0, 69, 65
1, 61829, Note_on_c, 0, 81, 85
1, 61849, Control_c, 0, 64, 49
1, 61867, Note_off_c, 0, 81, 66
1, 61907, Note_on_c, 0, 46, 94
1, 61909, Control_c, 0, 64, 49
1, 61911, Note_on_c, 0, 48, 85
1, 61912, Note_on_c, 0, 76, 101
1, 61923, Control_c, 0, 64, 51
1, 61938, Control_c, 0, 64, 53
1, 61945, Note_off_c, 0, 48, 66
1, 61953, Control_c, 0, 64, 55
1, 61959, Note_off_c, 0, 76, 66
1, 61960, Note_off_c, 0, 46, 64
1, 61968, Control_c, 0, 64, 56
1, 61983, Control_c, 0, 64, 58
1, 61990, Note_on_c, 0, 88, 81
1, 61997, Control_c, 0, 64, 61
1, 62012, Control_c, 0, 64, 63
1, 62027, Control_c, 0, 64, 65
1, 62031, Note_off_c, 0, 88, 68
1, 62057, Note_on_c, 0, 77, 96
1, 62061, Note_on_c, 0, 45, 94
1, 62064, Note_on_c, 0, 48, 82
1, 62064, Control_c, 0, 64, 64
1, 62079, Control_c, 0, 64, 63
1, 62089, Note_off_c, 0, 48, 69
1, 62094, Control_c, 0, 64, 62
1, 62105, Note_off_c, 0, 45, 64
1, 62105, Note_off_c, 0, 77, 66
1, 62109, Control_c, 0, 64, 60
1, 62123, Control_c, 0, 64, 59
1, 62138, Control_c, 0, 64, 58
1, 62139, Note_on_c, 0, 89, 71
1, 62153, Control_c, 0, 64, 56
1, 62154, Note_off_c, 0, 89, 68
1, 62167, Control_c, 0, 64, 55
1, 62199, Note_on_c, 0, 40, 102
1, 62209, Note_on_c, 0, 70, 93
1, 62226, Note_on_c, 0, 68, 74
1, 62242, Note_off_c, 0, 40, 69
1, 62242, Note_off_c, 0, 68, 69
1, 62242, Control_c, 0, 64, 56
1, 62256, Control_c, 0, 64, 56
1, 62271, Control_c, 0, 64, 58
1, 62273, Note_on_c, 0, 82, 92
1, 62273, Note_off_c, 0, 70, 63
1, 62286, Control_c, 0, 64, 58
1, 62301, Control_c, 0, 64, 58
1, 62316, Control_c, 0, 64, 57
1, 62330, Control_c, 0, 64, 56
1, 62342, Note_off_c, 0, 82, 67
1, 62345, Control_c, 0, 64, 55
1, 62360, Control_c, 0, 64, 51
1, 62373, Note_on_c, 0, 41, 100
1, 62374, Control_c, 0, 64, 46
1, 62375, Note_on_c, 0, 69, 100
1, 62389, Control_c, 0, 64, 40
1, 62404, Control_c, 0, 64, 33
1, 62419, Control_c, 0, 64, 0
1, 62428, Note_off_c, 0, 69, 65
1, 62445, Note_on_c, 0, 81, 75
1, 62500, Note_off_c, 0, 81, 64
1, 62520, Note_on_c, 0, 67, 89
1, 62569, Note_off_c, 0, 67, 66
1, 62598, Note_on_c, 0, 79, 94
1, 62641, Note_off_c, 0, 79, 62
1, 62663, Note_on_c, 0, 65, 91
1, 62706, Note_off_c, 0, 65, 66
1, 62738, Note_on_c, 0, 77, 89
1, 62777, Note_off_c, 0, 77, 65
1, 62808, Note_on_c, 0, 64, 89
1, 62854, Note_off_c, 0, 64, 66
1, 62884, Note_on_c, 0, 76, 87
1, 62923, Note_off_c, 0, 76, 65
1, 62943, Note_on_c, 0, 62, 89
1, 62945, Note_on_c, 0, 38, 89
1, 62961, Note_off_c, 0, 41, 61
1, 62990, Note_off_c, 0, 62, 62
1, 63015, Note_on_c, 0, 74, 89
1, 63056, Note_off_c, 0, 74, 64
1, 63082, Note_on_c, 0, 60, 89
1, 63126, Note_off_c, 0, 60, 66
1, 63156, Note_on_c, 0, 72, 87
1, 63193, Note_off_c, 0, 72, 67
1, 63218, Note_on_c, 0, 58, 94
1, 63266, Note_off_c, 0, 58, 64
1, 63290, Note_on_c, 0, 70, 72
1, 63332, Note_off_c, 0, 70, 65
1, 63348, Note_on_c, 0, 57, 91
1, 63398, Note_off_c, 0, 57, 65
1, 63415, Note_on_c, 0, 69, 91
1, 63478, Note_off_c, 0, 69, 64
1, 63489, Note_on_c, 0, 34, 94
1, 63495, Note_on_c, 0, 55, 90
1, 63497, Note_off_c, 0, 38, 63
1, 63545, Note_off_c, 0, 55, 64
1, 63572, Note_on_c, 0, 67, 89
1, 63629, Note_off_c, 0, 67, 64
1, 63638, Note_on_c, 0, 53, 90
1, 63688, Note_off_c, 0, 53, 65
1, 63715, Note_on_c, 0, 65, 88
1, 63765, Note_off_c, 0, 65, 63
1, 63781, Note_on_c, 0, 52, 92
1, 63831, Note_off_c, 0, 52, 64
1, 63854, Note_on_c, 0, 64, 84
1, 63858, Control_c, 0, 64, 33
1, 63873, Control_c, 0, 64, 35
1, 63888, Control_c, 0, 64, 36
1, 63897, Note_off_c, 0, 64, 66
1, 63902, Control_c, 0, 64, 37
1, 63915, Note_on_c, 0, 50, 92
1, 63946, Control_c, 0, 64, 38
1, 63961, Control_c, 0, 64, 39
1, 63967, Note_off_c, 0, 50, 66
1, 63976, Control_c, 0, 64, 40
1, 63990, Note_on_c, 0, 62, 88
1, 63991, Control_c, 0, 64, 41
1, 64006, Control_c, 0, 64, 41
1, 64035, Note_off_c, 0, 62, 62
1, 64044, Note_on_c, 0, 36, 91
1, 64050, Control_c, 0, 64, 41
1, 64054, Note_on_c, 0, 48, 90
1, 64058, Note_off_c, 0, 34, 62
1, 64103, Note_off_c, 0, 48, 66
1, 64109, Control_c, 0, 64, 40
1, 64118, Note_on_c, 0, 60, 85
1, 64124, Control_c, 0, 64, 38
1, 64139, Control_c, 0, 64, 38
1, 64154, Control_c, 0, 64, 36
1, 64164, Note_off_c, 0, 60, 67
1, 64169, Control_c, 0, 64, 36
1, 64184, Control_c, 0, 64, 35
1, 64193, Note_on_c, 0, 46, 92
1, 64242, Note_off_c, 0, 46, 62
1, 64243, Control_c, 0, 64, 34
1, 64258, Control_c, 0, 64, 34
1, 64266, Note_on_c, 0, 58, 70
1, 64273, Control_c, 0, 64, 33
1, 64296, Control_c, 0, 64, 32
1, 64311, Note_off_c, 0, 58, 65
1, 64311, Control_c, 0, 64, 0
1, 64338, Note_on_c, 0, 45, 85
1, 64402, Note_on_c, 0, 57, 93
1, 64419, Note_off_c, 0, 45, 61
1, 64458, Control_c, 0, 67, 17
1, 64462, Note_off_c, 0, 57, 66
1, 64494, Note_on_c, 0, 43, 89
1, 64535, Note_on_c, 0, 55, 87
1, 64551, Note_off_c, 0, 43, 63
1, 64581, Note_off_c, 0, 55, 65
1, 64592, Control_c, 0, 67, 19
1, 64628, Note_on_c, 0, 29, 81
1, 64635, Note_on_c, 0, 53, 100
1, 64637, Note_on_c, 0, 41, 94
1, 64641, Note_off_c, 0, 36, 63
1, 64667, Control_c, 0, 64, 49
1, 64679, Note_off_c, 0, 29, 66
1, 64681, Control_c, 0, 64, 66
1, 64681, Control_c, 0, 67, 21
1, 64686, Note_off_c, 0, 41, 61
1, 64696, Control_c, 0, 64, 71
1, 64711, Control_c, 0, 64, 78
1, 64726, Control_c, 0, 64, 89
1, 64732, Note_off_c, 0, 53, 64
1, 64741, Control_c, 0, 64, 96
1, 64756, Control_c, 0, 67, 24
1, 64770, Control_c, 0, 67, 26
1, 64785, Control_c, 0, 67, 30
1, 64800, Control_c, 0, 64, 95
1, 64800, Control_c, 0, 67, 35
1, 64815, Control_c, 0, 64, 86
1, 64815, Control_c, 0, 67, 42
1, 64830, Control_c, 0, 64, 70
1, 64830, Control_c, 0, 67, 53
1, 64844, Control_c, 0, 64, 48
1, 64844, Control_c, 0, 67, 69
1, 64859, Control_c, 0, 64, 0
1, 64859, Control_c, 0, 67, 93
1, 64874, Control_c, 0, 67, 114
1, 64889, Control_c, 0, 67, 127
1, 64890, Note_on_c, 0, 52, 77
1, 64901, Note_on_c, 0, 46, 56
1, 64928, Note_off_c, 0, 52, 63
1, 64961, Note_on_c, 0, 60, 57
1, 64984, Note_off_c, 0, 46, 57
1, 65001, Note_off_c, 0, 60, 63
1, 65033, Note_on_c, 0, 53, 66
1, 65057, Note_on_c, 0, 45, 46
1, 65076, Note_off_c, 0, 53, 61
1, 65111, Note_on_c, 0, 60, 64
1, 65144, Note_off_c, 0, 60, 61
1, 65162, Note_off_c, 0, 45, 53
1, 65176, Note_on_c, 0, 58, 65
1, 65198, Note_on_c, 0, 40, 56
1, 65219, Note_off_c, 0, 58, 63
1, 65248, Note_on_c, 0, 60, 60
1, 65296, Note_off_c, 0, 60, 44
1, 65307, Note_off_c, 0, 40, 62
1, 65319, Note_on_c, 0, 57, 62
1, 65329, Note_on_c, 0, 41, 49
1, 65358, Note_off_c, 0, 57, 61
1, 65387, Note_on_c, 0, 60, 54
1, 65427, Note_off_c, 0, 60, 63
1, 65432, Note_off_c, 0, 41, 59
1, 65457, Note_on_c, 0, 52, 65
1, 65464, Note_on_c, 0, 46, 59
1, 65493, Note_off_c, 0, 52, 60
1, 65533, Note_on_c, 0, 60, 65
1, 65549, Note_off_c, 0, 46, 61
1, 65581, Note_on_c, 0, 45, 57
1, 65582, Note_off_c, 0, 60, 63
1, 65602, Note_on_c, 0, 53, 71
1, 65650, Note_off_c, 0, 53, 60
1, 65676, Note_on_c, 0, 60, 69
1, 65700, Note_off_c, 0, 45, 54
1, 65714, Note_off_c, 0, 60, 56
1, 65722, Note_on_c, 0, 40, 65
1, 65734, Note_on_c, 0, 58, 72
1, 65790, Note_off_c, 0, 58, 60
1, 65808, Control_c, 0, 67, 124
1, 65823, Control_c, 0, 67, 118
1, 65824, Note_on_c, 0, 60, 63
1, 65838, Control_c, 0, 67, 110
1, 65853, Control_c, 0, 67, 103
1, 65862, Note_off_c, 0, 40, 61
1, 65868, Control_c, 0, 67, 98
1, 65877, Note_on_c, 0, 41, 58
1, 65879, Note_off_c, 0, 60, 58
1, 65883, Control_c, 0, 67, 94
1, 65886, Note_on_c, 0, 57, 80
1, 65898, Control_c, 0, 67, 91
1, 65913, Control_c, 0, 67, 86
1, 65924, Note_off_c, 0, 57, 59
1, 65927, Control_c, 0, 67, 80
1, 65942, Control_c, 0, 67, 74
1, 65957, Control_c, 0, 67, 70
1, 65963, Note_on_c, 0, 60, 65
1, 65972, Control_c, 0, 67, 65
1, 65987, Control_c, 0, 67, 60
1, 66000, Note_off_c, 0, 41, 59
1, 66002, Control_c, 0, 67, 57
1, 66017, Note_off_c, 0, 60, 63
1, 66017, Control_c, 0, 67, 55
1, 66019, Note_on_c, 0, 46, 68
1, 66023, Note_on_c, 0, 52, 74
1, 66047, Control_c, 0, 67, 54
1, 66062, Note_off_c, 0, 52, 63
1, 66077, Control_c, 0, 67, 53
1, 66091, Control_c, 0, 67, 52
1, 66092, Note_on_c, 0, 60, 74
1, 66106, Control_c, 0, 67, 52
1, 66150, Control_c, 0, 67, 52
1, 66152, Note_off_c, 0, 46, 62
1, 66154, Note_off_c, 0, 60, 64
1, 66160, Note_on_c, 0, 53, 83
1, 66165, Control_c, 0, 67, 53
1, 66166, Note_on_c, 0, 45, 69
1, 66180, Control_c, 0, 67, 53
1, 66210, Control_c, 0, 67, 53
1, 66220, Note_off_c, 0, 53, 60
1, 66224, Control_c, 0, 67, 53
1, 66238, Note_on_c, 0, 60, 76
1, 66283, Control_c, 0, 67, 54
1, 66290, Note_off_c, 0, 45, 55
1, 66298, Note_on_c, 0, 58, 82
1, 66298, Note_off_c, 0, 60, 64
1, 66301, Note_on_c, 0, 40, 66
1, 66356, Note_off_c, 0, 58, 63
1, 66372, Note_on_c, 0, 60, 74
1, 66431, Control_c, 0, 67, 53
1, 66435, Note_off_c, 0, 60, 60
1, 66437, Note_off_c, 0, 40, 63
1, 66449, Note_on_c, 0, 41, 60
1, 66451, Note_on_c, 0, 57, 81
1, 66461, Control_c, 0, 64, 48
1, 66461, Control_c, 0, 67, 52
1, 66476, Control_c, 0, 64, 57
1, 66491, Control_c, 0, 64, 59
1, 66491, Control_c, 0, 67, 52
1, 66500, Note_off_c, 0, 57, 64
1, 66506, Control_c, 0, 64, 58
1, 66512, Note_on_c, 0, 60, 76
1, 66521, Control_c, 0, 64, 56
1, 66543, Control_c, 0, 64, 53
1, 66543, Control_c, 0, 67, 51
1, 66558, Control_c, 0, 64, 52
1, 66573, Control_c, 0, 64, 51
1, 66573, Control_c, 0, 67, 50
1, 66577, Note_off_c, 0, 60, 64
1, 66583, Note_off_c, 0, 41, 60
1, 66588, Control_c, 0, 64, 50
1, 66603, Control_c, 0, 64, 48
1, 66603, Control_c, 0, 67, 50
1, 66610, Note_on_c, 0, 49, 77
1, 66617, Note_on_c, 0, 43, 68
1, 66618, Control_c, 0, 64, 46
1, 66618, Control_c, 0, 67, 49
1, 66634, Control_c, 0, 67, 48
1, 66648, Control_c, 0, 67, 47
1, 66663, Control_c, 0, 67, 46
1, 66664, Note_off_c, 0, 49, 59
1, 66670, Note_on_c, 0, 61, 72
1, 66678, Control_c, 0, 67, 44
1, 66693, Control_c, 0, 64, 45
1, 66693, Control_c, 0, 67, 40
1, 66708, Control_c, 0, 64, 44
1, 66708, Control_c, 0, 67, 37
1, 66713, Note_off_c, 0, 61, 60
1, 66722, Control_c, 0, 64, 44
1, 66722, Control_c, 0, 67, 36
1, 66737, Control_c, 0, 67, 34
1, 66742, Note_off_c, 0, 43, 55
1, 66747, Note_on_c, 0, 50, 68
1, 66752, Control_c, 0, 67, 33
1, 66755, Note_on_c, 0, 41, 58
1, 66766, Control_c, 0, 67, 33
1, 66783, Note_off_c, 0, 50, 62
1, 66803, Note_on_c, 0, 62, 79
1, 66811, Control_c, 0, 67, 32
1, 66826, Control_c, 0, 64, 43
1, 66840, Control_c, 0, 64, 42
1, 66840, Control_c, 0, 67, 30
1, 66858, Note_off_c, 0, 62, 62
1, 66882, Note_on_c, 0, 52, 83
1, 66884, Note_on_c, 0, 40, 69
1, 66885, Control_c, 0, 64, 43
1, 66885, Control_c, 0, 67, 28
1, 66887, Note_off_c, 0, 41, 53
1, 66900, Control_c, 0, 64, 43
1, 66914, Control_c, 0, 64, 44
1, 66929, Note_off_c, 0, 52, 60
1, 66929, Control_c, 0, 64, 45
1, 66929, Control_c, 0, 67, 25
1, 66944, Control_c, 0, 67, 23
1, 66947, Note_on_c, 0, 64, 78
1, 66959, Control_c, 0, 67, 21
1, 66989, Control_c, 0, 67, 17
1, 66990, Note_off_c, 0, 64, 66
1, 66995, Note_off_c, 0, 40, 64
1, 67004, Control_c, 0, 67, 0
1, 67010, Note_on_c, 0, 38, 84
1, 67014, Note_on_c, 0, 53, 89
1, 67033, Control_c, 0, 64, 44
1, 67065, Note_off_c, 0, 53, 66
1, 67086, Note_on_c, 0, 65, 85
1, 67122, Control_c, 0, 64, 44
1, 67139, Note_off_c, 0, 65, 63
1, 67150, Note_on_c, 0, 54, 92
1, 67154, Note_on_c, 0, 36, 85
1, 67165, Note_off_c, 0, 38, 61
1, 67166, Control_c, 0, 64, 44
1, 67206, Note_off_c, 0, 54, 63
1, 67215, Note_on_c, 0, 66, 87
1, 67255, Control_c, 0, 64, 44
1, 67275, Note_off_c, 0, 66, 64
1, 67290, Note_on_c, 0, 34, 95
1, 67290, Note_on_c, 0, 55, 88
1, 67292, Control_c, 0, 64, 43
1, 67294, Note_off_c, 0, 36, 63
1, 67307, Control_c, 0, 64, 43
1, 67343, Note_off_c, 0, 55, 64
1, 67355, Note_on_c, 0, 67, 73
1, 67381, Control_c, 0, 64, 42
1, 67411, Note_off_c, 0, 67, 66
1, 67427, Note_on_c, 0, 33, 88
1, 67428, Note_on_c, 0, 57, 98
1, 67433, Note_off_c, 0, 34, 63
1, 67471, Control_c, 0, 64, 41
1, 67481, Note_off_c, 0, 57, 66
1, 67486, Control_c, 0, 64, 39
1, 67501, Control_c, 0, 64, 36
1, 67507, Note_on_c, 0, 69, 90
1, 67516, Control_c, 0, 64, 33
1, 67531, Control_c, 0, 64, 32
1, 67545, Control_c, 0, 64, 0
1, 67553, Note_off_c, 0, 69, 65
1, 67567, Note_on_c, 0, 58, 94
1, 67570, Note_on_c, 0, 31, 91
1, 67577, Note_off_c, 0, 33, 61
1, 67638, Note_off_c, 0, 58, 62
1, 67641, Note_on_c, 0, 70, 88
1, 67691, Note_off_c, 0, 70, 64
1, 67702, Note_on_c, 0, 60, 96
1, 67737, Control_c, 0, 64, 53
1, 67752, Control_c, 0, 64, 64
1, 67763, Note_off_c, 0, 60, 65
1, 67767, Control_c, 0, 64, 69
1, 67770, Note_on_c, 0, 72, 94
1, 67782, Control_c, 0, 64, 74
1, 67797, Control_c, 0, 64, 76
1, 67811, Control_c, 0, 64, 77
1, 67826, Control_c, 0, 64, 76
1, 67840, Note_on_c, 0, 62, 96
1, 67840, Note_off_c, 0, 72, 51
1, 67841, Control_c, 0, 64, 73
1, 67856, Control_c, 0, 64, 68
1, 67871, Control_c, 0, 64, 63
1, 67886, Control_c, 0, 64, 58
1, 67895, Note_off_c, 0, 62, 63
1, 67901, Control_c, 0, 64, 55
1, 67912, Note_on_c, 0, 74, 93
1, 67915, Control_c, 0, 64, 53
1, 67930, Control_c, 0, 64, 51
1, 67945, Control_c, 0, 64, 49
1, 67960, Control_c, 0, 64, 48
1, 67966, Note_off_c, 0, 74, 64
1, 67975, Control_c, 0, 64, 47
1, 67986, Note_on_c, 0, 60, 89
1, 67989, Control_c, 0, 64, 45
1, 68004, Control_c, 0, 64, 42
1, 68019, Control_c, 0, 64, 41
1, 68041, Control_c, 0, 64, 40
1, 68041, Note_off_c, 0, 60, 66
1, 68056, Note_on_c, 0, 72, 86
1, 68110, Note_off_c, 0, 72, 64
1, 68131, Note_on_c, 0, 58, 92
1, 68183, Note_on_c, 0, 70, 75
1, 68187, Note_off_c, 0, 58, 63
1, 68235, Note_off_c, 0, 70, 68
1, 68264, Control_c, 0, 64, 40
1, 68265, Note_on_c, 0, 57, 86
1, 68279, Control_c, 0, 64, 39
1, 68293, Control_c, 0, 64, 38
1, 68308, Control_c, 0, 64, 36
1, 68309, Note_off_c, 0, 57, 64
1, 68323, Control_c, 0, 64, 34
1, 68326, Note_on_c, 0, 69, 88
1, 68337, Control_c, 0, 64, 0
1, 68378, Note_off_c, 0, 69, 62
1, 68404, Note_on_c, 0, 55, 89
1, 68449, Note_off_c, 0, 55, 66
1, 68478, Note_on_c, 0, 67, 85
1, 68523, Note_off_c, 0, 67, 67
1, 68547, Note_on_c, 0, 53, 86
1, 68595, Note_off_c, 0, 53, 64
1, 68614, Note_on_c, 0, 65, 89
1, 68664, Note_off_c, 0, 65, 65
1, 68673, Note_on_c, 0, 36, 89
1, 68685, Note_off_c, 0, 31, 66
1, 68685, Note_on_c, 0, 52, 92
1, 68736, Note_off_c, 0, 52, 65
1, 68752, Note_on_c, 0, 64, 82
1, 68808, Note_off_c, 0, 64, 65
1, 68825, Note_on_c, 0, 50, 87
1, 68882, Note_off_c, 0, 50, 65
1, 68896, Note_on_c, 0, 62, 87
1, 68947, Note_off_c, 0, 62, 64
1, 68965, Note_on_c, 0, 48, 89
1, 69020, Note_off_c, 0, 48, 66
1, 69035, Note_on_c, 0, 60, 85
1, 69077, Note_off_c, 0, 60, 64
1, 69087, Control_c, 0, 64, 42
1, 69102, Control_c, 0, 64, 54
1, 69110, Note_on_c, 0, 52, 89
1, 69117, Control_c, 0, 64, 60
1, 69132, Control_c, 0, 64, 62
1, 69140, Note_off_c, 0, 36, 62
1, 69147, Control_c, 0, 64, 64
1, 69161, Control_c, 0, 64, 65
1, 69165, Note_off_c, 0, 52, 60
1, 69171, Note_on_c, 0, 64, 90
1, 69176, Control_c, 0, 64, 66
1, 69191, Control_c, 0, 64, 67
1, 69206, Control_c, 0, 64, 69
1, 69214, Note_off_c, 0, 64, 65
1, 69221, Control_c, 0, 64, 69
1, 69235, Control_c, 0, 64, 67
1, 69250, Control_c, 0, 64, 61
1, 69252, Note_on_c, 0, 29, 78
1, 69263, Note_on_c, 0, 53, 88
1, 69265, Control_c, 0, 64, 45
1, 69266, Note_on_c, 0, 65, 94
1, 69280, Control_c, 0, 64, 0
1, 69309, Note_off_c, 0, 29, 62
1, 69330, Note_on_c, 0, 41, 75
1, 69401, Note_off_c, 0, 41, 55
1, 69413, Note_on_c, 0, 29, 74
1, 69413, Control_c, 0, 64, 45
1, 69427, Control_c, 0, 64, 55
1, 69442, Control_c, 0, 64, 58
1, 69457, Control_c, 0, 64, 61
1, 69460, Note_off_c, 0, 29, 64
1, 69472, Control_c, 0, 64, 63
1, 69472, Control_c, 0, 67, 17
1, 69487, Control_c, 0, 64, 64
1, 69487, Note_on_c, 0, 41, 65
1, 69502, Control_c, 0, 64, 65
1, 69517, Control_c, 0, 64, 66
1, 69539, Control_c, 0, 64, 67
1, 69542, Note_off_c, 0, 41, 60
1, 69554, Control_c, 0, 64, 66
1, 69568, Control_c, 0, 64, 61
1, 69568, Control_c, 0, 67, 21
1, 69569, Note_off_c, 0, 53, 62
1, 69581, Note_on_c, 0, 29, 64
1, 69583, Control_c, 0, 64, 45
1, 69583, Control_c, 0, 67, 24
1, 69595, Note_off_c, 0, 65, 65
1, 69598, Control_c, 0, 64, 0
1, 69598, Control_c, 0, 67, 28
1, 69613, Control_c, 0, 67, 31
1, 69625, Note_off_c, 0, 29, 63
1, 69628, Control_c, 0, 67, 34
1, 69642, Control_c, 0, 67, 38
1, 69652, Note_on_c, 0, 41, 65
1, 69657, Control_c, 0, 67, 42
1, 69672, Control_c, 0, 67, 48
1, 69686, Control_c, 0, 67, 54
1, 69700, Note_off_c, 0, 41, 58
1, 69701, Control_c, 0, 67, 60
1, 69716, Control_c, 0, 67, 64
1, 69731, Control_c, 0, 67, 67
1, 69737, Note_on_c, 0, 29, 57
1, 69746, Control_c, 0, 67, 71
1, 69761, Control_c, 0, 67, 75
1, 69776, Control_c, 0, 67, 78
1, 69776, Note_off_c, 0, 29, 62
1, 69791, Control_c, 0, 67, 81
1, 69806, Control_c, 0, 67, 82
1, 69812, Note_on_c, 0, 41, 62
1, 69821, Control_c, 0, 67, 83
1, 69851, Control_c, 0, 67, 83
1, 69861, Note_off_c, 0, 41, 58
1, 69880, Control_c, 0, 67, 84
1, 69890, Note_on_c, 0, 60, 64
1, 69897, Note_on_c, 0, 57, 62
1, 69901, Note_on_c, 0, 29, 49
1, 69947, Note_off_c, 0, 29, 59
1, 69979, Note_on_c, 0, 41, 53
1, 70017, Note_off_c, 0, 41, 61
1, 70047, Note_on_c, 0, 29, 59
1, 70073, Control_c, 0, 67, 83
1, 70090, Note_off_c, 0, 29, 60
1, 70116, Note_on_c, 0, 41, 47
1, 70117, Control_c, 0, 67, 82
1, 70155, Note_off_c, 0, 41, 53
1, 70162, Control_c, 0, 67, 82
1, 70191, Control_c, 0, 64, 35
1, 70191, Control_c, 0, 67, 81
1, 70193, Note_on_c, 0, 29, 56
1, 70206, Control_c, 0, 64, 39
1, 70221, Control_c, 0, 64, 42
1, 70236, Control_c, 0, 64, 44
1, 70236, Control_c, 0, 67, 81
1, 70240, Note_off_c, 0, 29, 61
1, 70251, Control_c, 0, 64, 47
1, 70259, Note_on_c, 0, 41, 49
1, 70265, Control_c, 0, 64, 49
1, 70288, Control_c, 0, 64, 51
1, 70303, Control_c, 0, 64, 53
1, 70317, Control_c, 0, 64, 53
1, 70321, Note_off_c, 0, 41, 55
1, 70347, Control_c, 0, 64, 54
1, 70360, Note_on_c, 0, 29, 51
1, 70362, Note_on_c, 0, 53, 69
1, 70366, Note_off_c, 0, 60, 63
1, 70375, Note_off_c, 0, 57, 63
1, 70377, Control_c, 0, 64, 54
1, 70391, Control_c, 0, 64, 55
1, 70405, Note_off_c, 0, 29, 59
1, 70406, Control_c, 0, 64, 55
1, 70421, Control_c, 0, 64, 56
1, 70444, Note_on_c, 0, 41, 53
1, 70480, Control_c, 0, 64, 55
1, 70495, Note_off_c, 0, 41, 57
1, 70495, Control_c, 0, 64, 53
1, 70509, Control_c, 0, 64, 50
1, 70518, Note_on_c, 0, 61, 71
1, 70524, Control_c, 0, 64, 48
1, 70527, Note_on_c, 0, 58, 66
1, 70533, Note_on_c, 0, 29, 49
1, 70539, Control_c, 0, 64, 47
1, 70539, Control_c, 0, 67, 81
1, 70554, Note_off_c, 0, 53, 51
1, 70554, Control_c, 0, 64, 46
1, 70569, Control_c, 0, 64, 45
1, 70576, Note_off_c, 0, 29, 61
1, 70584, Control_c, 0, 64, 44
1, 70599, Control_c, 0, 64, 43
1, 70599, Control_c, 0, 67, 82
1, 70609, Note_on_c, 0, 41, 55
1, 70614, Control_c, 0, 64, 43
1, 70629, Control_c, 0, 67, 82
1, 70644, Control_c, 0, 67, 83
1, 70652, Note_off_c, 0, 41, 62
1, 70659, Control_c, 0, 67, 83
1, 70674, Control_c, 0, 67, 84
1, 70688, Control_c, 0, 67, 84
1, 70692, Note_on_c, 0, 29, 46
1, 70718, Control_c, 0, 64, 43
1, 70718, Control_c, 0, 67, 85
1, 70731, Note_off_c, 0, 29, 54
1, 70733, Control_c, 0, 64, 44
1, 70748, Control_c, 0, 64, 44
1, 70760, Note_on_c, 0, 41, 50
1, 70763, Control_c, 0, 67, 86
1, 70777, Control_c, 0, 64, 45
1, 70801, Note_off_c, 0, 41, 60
1, 70807, Control_c, 0, 64, 45
1, 70822, Control_c, 0, 67, 86
1, 70832, Note_on_c, 0, 29, 56
1, 70837, Control_c, 0, 64, 46
1, 70879, Note_off_c, 0, 29, 60
1, 70881, Control_c, 0, 64, 46
1, 70896, Control_c, 0, 64, 48
1, 70896, Control_c, 0, 67, 87
1, 70903, Note_on_c, 0, 41, 55
1, 70911, Control_c, 0, 64, 51
1, 70911, Control_c, 0, 67, 87
1, 70925, Control_c, 0, 64, 55
1, 70925, Control_c, 0, 67, 89
1, 70940, Control_c, 0, 64, 58
1, 70940, Control_c, 0, 67, 92
1, 70955, Note_off_c, 0, 41, 56
1, 70955, Control_c, 0, 64, 59
1, 70955, Control_c, 0, 67, 94
1, 70970, Control_c, 0, 64, 61
1, 70970, Control_c, 0, 67, 95
1, 70985, Control_c, 0, 64, 62
1, 70988, Note_on_c, 0, 56, 71
1, 70991, Note_on_c, 0, 29, 57
1, 70999, Control_c, 0, 64, 63
1, 71014, Control_c, 0, 64, 65
1, 71037, Control_c, 0, 64, 65
1, 71052, Control_c, 0, 64, 66
1, 71057, Note_off_c, 0, 29, 60
1, 71081, Note_off_c, 0, 61, 40
1, 71094, Note_on_c, 0, 41, 47
1, 71103, Note_off_c, 0, 58, 60
1, 71111, Note_off_c, 0, 56, 62
1, 71111, Control_c, 0, 64, 65
1, 71126, Control_c, 0, 64, 65
1, 71138, Note_off_c, 0, 41, 59
1, 71140, Control_c, 0, 64, 63
1, 71155, Control_c, 0, 64, 60
1, 71161, Note_on_c, 0, 55, 67
1, 71170, Note_on_c, 0, 29, 63
1, 71170, Control_c, 0, 64, 56
1, 71170, Control_c, 0, 67, 95
1, 71171, Note_on_c, 0, 58, 45
1, 71174, Note_on_c, 0, 60, 67
1, 71185, Control_c, 0, 64, 52
1, 71200, Control_c, 0, 64, 48
1, 71214, Control_c, 0, 64, 46
1, 71214, Control_c, 0, 67, 94
1, 71218, Note_off_c, 0, 29, 59
1, 71229, Control_c, 0, 64, 45
1, 71251, Note_on_c, 0, 41, 48
1, 71258, Control_c, 0, 64, 45
1, 71273, Control_c, 0, 64, 46
1, 71288, Control_c, 0, 64, 47
1, 71300, Note_off_c, 0, 41, 56
1, 71311, Note_off_c, 0, 55, 62
1, 71320, Note_on_c, 0, 53, 67
1, 71323, Note_on_c, 0, 29, 59
1, 71329, Note_off_c, 0, 60, 59
1, 71332, Control_c, 0, 64, 47
1, 71360, Note_off_c, 0, 29, 63
1, 71361, Note_off_c, 0, 58, 37
1, 71362, Control_c, 0, 64, 46
1, 71392, Control_c, 0, 64, 46
1, 71392, Control_c, 0, 67, 95
1, 71400, Note_on_c, 0, 41, 52
1, 71408, Control_c, 0, 64, 45
1, 71423, Control_c, 0, 64, 45
1, 71423, Control_c, 0, 67, 96
1, 71438, Note_off_c, 0, 41, 61
1, 71452, Control_c, 0, 64, 44
1, 71467, Control_c, 0, 67, 98
1, 71469, Note_off_c, 0, 53, 64
1, 71476, Note_on_c, 0, 55, 58
1, 71478, Note_on_c, 0, 58, 50
1, 71479, Note_on_c, 0, 29, 50
1, 71484, Note_on_c, 0, 60, 57
1, 71511, Control_c, 0, 67, 100
1, 71526, Note_off_c, 0, 29, 60
1, 71541, Control_c, 0, 64, 45
1, 71541, Control_c, 0, 67, 102
1, 71555, Control_c, 0, 64, 45
1, 71562, Note_on_c, 0, 41, 40
1, 71570, Control_c, 0, 64, 46
1, 71570, Control_c, 0, 67, 106
1, 71585, Control_c, 0, 64, 47
1, 71600, Control_c, 0, 64, 48
1, 71600, Control_c, 0, 67, 109
1, 71608, Note_off_c, 0, 41, 57
1, 71615, Control_c, 0, 64, 49
1, 71633, Note_on_c, 0, 29, 59
1, 71639, Note_off_c, 0, 55, 61
1, 71645, Control_c, 0, 67, 111
1, 71652, Note_on_c, 0, 52, 58
1, 71660, Control_c, 0, 64, 49
1, 71669, Note_off_c, 0, 58, 36
1, 71683, Note_off_c, 0, 29, 60
1, 71685, Note_off_c, 0, 60, 61
1, 71704, Control_c, 0, 64, 48
1, 71719, Control_c, 0, 64, 48
1, 71721, Note_on_c, 0, 41, 50
1, 71734, Control_c, 0, 64, 47
1, 71748, Control_c, 0, 64, 46
1, 71763, Control_c, 0, 64, 45
1, 71772, Note_off_c, 0, 41, 59
1, 71785, Control_c, 0, 64, 45
1, 71794, Note_off_c, 0, 52, 61
1, 71800, Control_c, 0, 64, 44
1, 71813, Note_on_c, 0, 60, 55
1, 71815, Control_c, 0, 64, 43
1, 71817, Note_on_c, 0, 57, 51
1, 71822, Note_on_c, 0, 29, 50
1, 71822, Note_on_c, 0, 53, 48
1, 71830, Control_c, 0, 64, 42
1, 71845, Control_c, 0, 64, 41
1, 71859, Control_c, 0, 64, 41
1, 71864, Note_off_c, 0, 29, 61
1, 71874, Control_c, 0, 64, 40
1, 71889, Control_c, 0, 64, 40
1, 71903, Note_on_c, 0, 41, 45
1, 71904, Control_c, 0, 64, 39
1, 71943, Note_off_c, 0, 41, 61
1, 71973, Note_on_c, 0, 29, 58
1, 72019, Note_off_c, 0, 29, 60
1, 72023, Control_c, 0, 64, 40
1, 72037, Control_c, 0, 64, 40
1, 72052, Control_c, 0, 64, 41
1, 72056, Note_on_c, 0, 41, 47
1, 72067, Control_c, 0, 64, 45
1, 72081, Control_c, 0, 64, 50
1, 72096, Control_c, 0, 64, 57
1, 72100, Note_off_c, 0, 41, 59
1, 72111, Control_c, 0, 64, 60
1, 72126, Note_off_c, 0, 53, 63
1, 72126, Control_c, 0, 64, 61
1, 72129, Note_off_c, 0, 57, 63
1, 72130, Note_on_c, 0, 29, 56
1, 72141, Control_c, 0, 64, 62
1, 72150, Note_off_c, 0, 60, 65
1, 72155, Control_c, 0, 64, 62
1, 72170, Control_c, 0, 64, 63
1, 72173, Note_off_c, 0, 29, 61
1, 72185, Control_c, 0, 64, 63
1, 72206, Note_on_c, 0, 41, 54
1, 72252, Note_off_c, 0, 41, 59
1, 72286, Note_on_c, 0, 29, 55
1, 72290, Control_c, 0, 64, 64
1, 72330, Note_off_c, 0, 29, 60
1, 72366, Note_on_c, 0, 41, 53
1, 72378, Control_c, 0, 64, 63
1, 72393, Control_c, 0, 64, 62
1, 72408, Control_c, 0, 64, 59
1, 72410, Note_off_c, 0, 41, 59
1, 72423, Control_c, 0, 64, 53
1, 72432, Note_on_c, 0, 69, 71
1, 72435, Note_on_c, 0, 60, 55
1, 72438, Control_c, 0, 64, 45
1, 72442, Note_on_c, 0, 57, 55
1, 72445, Note_on_c, 0, 29, 53
1, 72453, Control_c, 0, 64, 35
1, 72468, Control_c, 0, 64, 0
1, 72488, Note_off_c, 0, 29, 61
1, 72534, Control_c, 0, 64, 38
1, 72537, Note_on_c, 0, 41, 49
1, 72549, Control_c, 0, 64, 47
1, 72564, Control_c, 0, 64, 54
1, 72574, Note_off_c, 0, 41, 60
1, 72579, Control_c, 0, 64, 58
1, 72593, Control_c, 0, 64, 59
1, 72605, Note_on_c, 0, 29, 56
1, 72608, Control_c, 0, 64, 59
1, 72638, Control_c, 0, 64, 60
1, 72643, Note_off_c, 0, 29, 63
1, 72652, Control_c, 0, 64, 61
1, 72667, Control_c, 0, 64, 62
1, 72673, Note_on_c, 0, 41, 50
1, 72682, Control_c, 0, 64, 62
1, 72697, Control_c, 0, 64, 63
1, 72712, Control_c, 0, 64, 63
1, 72715, Note_off_c, 0, 41, 60
1, 72727, Control_c, 0, 64, 64
1, 72742, Control_c, 0, 64, 64
1, 72754, Note_on_c, 0, 29, 56
1, 72757, Control_c, 0, 64, 65
1, 72757, Control_c, 0, 67, 109
1, 72772, Control_c, 0, 64, 66
1, 72786, Control_c, 0, 64, 67
1, 72786, Control_c, 0, 67, 106
1, 72801, Control_c, 0, 64, 67
1, 72803, Note_off_c, 0, 29, 60
1, 72816, Control_c, 0, 64, 68
1, 72816, Control_c, 0, 67, 104
1, 72830, Control_c, 0, 64, 69
1, 72834, Note_on_c, 0, 41, 55
1, 72845, Control_c, 0, 64, 70
1, 72860, Control_c, 0, 64, 70
1, 72875, Control_c, 0, 64, 71
1, 72890, Control_c, 0, 64, 71
1, 72902, Note_off_c, 0, 41, 48
1, 72916, Note_on_c, 0, 29, 61
1, 72918, Note_off_c, 0, 69, 63
1, 72922, Note_on_c, 0, 65, 78
1, 72929, Note_off_c, 0, 57, 37
1, 72934, Control_c, 0, 64, 72
1, 72936, Note_off_c, 0, 60, 62
1, 72974, Note_off_c, 0, 29, 60
1, 72978, Control_c, 0, 64, 72
1, 73009, Control_c, 0, 64, 73
1, 73031, Note_on_c, 0, 41, 51
1, 73068, Note_off_c, 0, 41, 58
1, 73068, Control_c, 0, 64, 72
1, 73083, Control_c, 0, 64, 70
1, 73092, Note_on_c, 0, 70, 84
1, 73097, Note_on_c, 0, 29, 59
1, 73097, Note_on_c, 0, 61, 66
1, 73098, Control_c, 0, 64, 65
1, 73104, Note_on_c, 0, 58, 69
1, 73113, Control_c, 0, 64, 58
1, 73127, Control_c, 0, 64, 50
1, 73142, Control_c, 0, 64, 42
1, 73143, Note_off_c, 0, 29, 60
1, 73157, Control_c, 0, 64, 36
1, 73172, Control_c, 0, 64, 35
1, 73177, Note_off_c, 0, 65, 50
1, 73180, Note_on_c, 0, 41, 51
1, 73216, Control_c, 0, 64, 36
1, 73222, Note_off_c, 0, 41, 58
1, 73231, Control_c, 0, 64, 39
1, 73246, Control_c, 0, 64, 44
1, 73253, Note_on_c, 0, 29, 57
1, 73261, Control_c, 0, 64, 49
1, 73283, Control_c, 0, 64, 55
1, 73298, Control_c, 0, 64, 58
1, 73302, Note_off_c, 0, 29, 61
1, 73313, Control_c, 0, 64, 60
1, 73327, Control_c, 0, 64, 61
1, 73335, Note_on_c, 0, 41, 53
1, 73342, Control_c, 0, 64, 61
1, 73382, Note_off_c, 0, 41, 58
1, 73387, Control_c, 0, 64, 60
1, 73402, Control_c, 0, 64, 59
1, 73411, Note_on_c, 0, 29, 58
1, 73416, Control_c, 0, 64, 57
1, 73446, Control_c, 0, 64, 58
1, 73459, Note_off_c, 0, 29, 60
1, 73460, Control_c, 0, 64, 59
1, 73475, Control_c, 0, 64, 61
1, 73490, Control_c, 0, 64, 62
1, 73495, Note_on_c, 0, 41, 55
1, 73505, Control_c, 0, 64, 63
1, 73520, Control_c, 0, 64, 64
1, 73535, Control_c, 0, 64, 64
1, 73550, Control_c, 0, 64, 65
1, 73554, Note_off_c, 0, 41, 52
1, 73565, Control_c, 0, 64, 66
1, 73573, Note_on_c, 0, 68, 78
1, 73576, Note_on_c, 0, 29, 56
1, 73578, Note_off_c, 0, 70, 63
1, 73579, Control_c, 0, 64, 66
1, 73594, Control_c, 0, 64, 67
1, 73609, Control_c, 0, 64, 68
1, 73624, Control_c, 0, 64, 69
1, 73624, Note_off_c, 0, 29, 59
1, 73636, Note_off_c, 0, 61, 55
1, 73639, Control_c, 0, 64, 70
1, 73642, Note_off_c, 0, 58, 48
1, 73653, Control_c, 0, 64, 70
1, 73657, Note_off_c, 0, 68, 64
1, 73672, Note_on_c, 0, 41, 51
1, 73713, Control_c, 0, 64, 70
1, 73713, Control_c, 0, 67, 106
1, 73717, Note_off_c, 0, 41, 56
1, 73727, Control_c, 0, 64, 67
1, 73730, Note_on_c, 0, 66, 65
1, 73741, Note_on_c, 0, 29, 55
1, 73742, Control_c, 0, 64, 62
1, 73753, Note_on_c, 0, 58, 54
1, 73755, Note_on_c, 0, 61, 55
1, 73757, Control_c, 0, 64, 56
1, 73772, Control_c, 0, 64, 50
1, 73772, Control_c, 0, 67, 108
1, 73787, Control_c, 0, 64, 46
1, 73793, Note_off_c, 0, 29, 57
1, 73803, Control_c, 0, 64, 47
1, 73818, Control_c, 0, 64, 49
1, 73827, Note_on_c, 0, 41, 49
1, 73832, Control_c, 0, 64, 54
1, 73832, Control_c, 0, 67, 110
1, 73847, Control_c, 0, 64, 58
1, 73862, Control_c, 0, 64, 61
1, 73876, Control_c, 0, 64, 63
1, 73878, Note_off_c, 0, 61, 0
1, 73878, Note_on_c, 0, 61, 4
1, 73884, Note_off_c, 0, 41, 55
1, 73891, Control_c, 0, 64, 64
1, 73900, Note_on_c, 0, 65, 68
1, 73901, Note_on_c, 0, 29, 58
1, 73921, Control_c, 0, 64, 64
1, 73927, Note_off_c, 0, 58, 37
1, 73946, Note_off_c, 0, 29, 59
1, 73947, Note_off_c, 0, 61, 55
1, 73950, Control_c, 0, 67, 113
1, 73965, Control_c, 0, 64, 63
1, 73967, Note_off_c, 0, 66, 53
1, 73980, Control_c, 0, 64, 60
1, 73980, Control_c, 0, 67, 116
1, 73995, Control_c, 0, 64, 53
1, 73995, Control_c, 0, 67, 122
1, 73996, Note_on_c, 0, 41, 50
1, 74010, Control_c, 0, 64, 45
1, 74010, Control_c, 0, 67, 127
1, 74018, Note_off_c, 0, 65, 55
1, 74026, Control_c, 0, 64, 36
1, 74039, Note_off_c, 0, 41, 55
1, 74047, Control_c, 0, 64, 0
1, 74057, Note_on_c, 0, 66, 62
1, 74062, Note_on_c, 0, 58, 42
1, 74063, Note_on_c, 0, 61, 55
1, 74068, Note_on_c, 0, 29, 55
1, 74092, Control_c, 0, 64, 35
1, 74107, Control_c, 0, 64, 43
1, 74116, Note_off_c, 0, 29, 60
1, 74122, Control_c, 0, 64, 51
1, 74137, Control_c, 0, 64, 57
1, 74152, Control_c, 0, 64, 59
1, 74153, Note_on_c, 0, 41, 48
1, 74166, Control_c, 0, 64, 60
1, 74181, Control_c, 0, 64, 61
1, 74195, Note_off_c, 0, 66, 64
1, 74196, Control_c, 0, 64, 62
1, 74202, Note_off_c, 0, 41, 54
1, 74211, Control_c, 0, 64, 62
1, 74212, Note_on_c, 0, 64, 66
1, 74226, Control_c, 0, 64, 63
1, 74229, Note_on_c, 0, 29, 53
1, 74244, Note_off_c, 0, 61, 58
1, 74265, Note_off_c, 0, 58, 57
1, 74270, Control_c, 0, 64, 62
1, 74271, Note_off_c, 0, 29, 61
1, 74284, Control_c, 0, 64, 60
1, 74299, Control_c, 0, 64, 57
1, 74314, Note_on_c, 0, 41, 49
1, 74314, Control_c, 0, 64, 52
1, 74329, Control_c, 0, 64, 46
1, 74344, Control_c, 0, 64, 41
1, 74355, Note_off_c, 0, 41, 60
1, 74358, Control_c, 0, 64, 38
1, 74366, Note_off_c, 0, 64, 57
1, 74371, Note_on_c, 0, 65, 64
1, 74373, Control_c, 0, 64, 36
1, 74384, Note_on_c, 0, 29, 57
1, 74387, Note_on_c, 0, 57, 49
1, 74388, Control_c, 0, 64, 35
1, 74389, Note_on_c, 0, 60, 50
1, 74402, Control_c, 0, 64, 34
1, 74429, Note_off_c, 0, 29, 61
1, 74463, Note_on_c, 0, 41, 49
1, 74492, Control_c, 0, 64, 33
1, 74505, Note_off_c, 0, 41, 58
1, 74537, Note_on_c, 0, 29, 57
1, 74566, Control_c, 0, 64, 34
1, 74576, Note_off_c, 0, 29, 62
1, 74596, Control_c, 0, 64, 34
1, 74611, Control_c, 0, 64, 35
1, 74615, Note_on_c, 0, 41, 48
1, 74626, Control_c, 0, 64, 36
1, 74641, Control_c, 0, 64, 37
1, 74655, Note_off_c, 0, 41, 58
1, 74656, Control_c, 0, 64, 40
1, 74670, Control_c, 0, 64, 44
1, 74685, Control_c, 0, 64, 49
1, 74691, Note_on_c, 0, 29, 53
1, 74700, Control_c, 0, 64, 54
1, 74715, Control_c, 0, 64, 58
1, 74730, Control_c, 0, 64, 59
1, 74733, Note_off_c, 0, 29, 60
1, 74745, Control_c, 0, 64, 60
1, 74760, Control_c, 0, 64, 61
1, 74769, Note_on_c, 0, 41, 49
1, 74781, Control_c, 0, 64, 62
1, 74796, Control_c, 0, 64, 63
1, 74804, Note_off_c, 0, 60, 54
1, 74811, Control_c, 0, 64, 64
1, 74824, Note_off_c, 0, 41, 58
1, 74840, Control_c, 0, 64, 64
1, 74846, Note_off_c, 0, 57, 49
1, 74855, Control_c, 0, 64, 65
1, 74858, Note_on_c, 0, 29, 54
1, 74870, Control_c, 0, 64, 65
1, 74885, Control_c, 0, 64, 66
1, 74909, Note_off_c, 0, 29, 60
1, 74915, Control_c, 0, 64, 67
1, 74945, Note_on_c, 0, 41, 53
1, 74960, Control_c, 0, 64, 66
1, 74975, Control_c, 0, 64, 65
1, 74989, Control_c, 0, 64, 64
1, 75004, Control_c, 0, 64, 60
1, 75004, Note_off_c, 0, 41, 54
1, 75019, Control_c, 0, 64, 55
1, 75021, Note_on_c, 0, 67, 60
1, 75030, Note_on_c, 0, 29, 55
1, 75033, Control_c, 0, 64, 49
1, 75038, Note_on_c, 0, 58, 40
1, 75038, Note_on_c, 0, 61, 50
1, 75048, Control_c, 0, 64, 45
1, 75063, Control_c, 0, 64, 42
1, 75070, Note_off_c, 0, 65, 26
1, 75078, Control_c, 0, 64, 41
1, 75085, Note_off_c, 0, 29, 59
1, 75093, Control_c, 0, 64, 42
1, 75107, Control_c, 0, 64, 45
1, 75122, Control_c, 0, 64, 51
1, 75129, Note_on_c, 0, 41, 45
1, 75137, Control_c, 0, 64, 57
1, 75152, Control_c, 0, 64, 60
1, 75167, Control_c, 0, 64, 62
1, 75172, Note_off_c, 0, 41, 51
1, 75181, Control_c, 0, 64, 63
1, 75189, Note_on_c, 0, 65, 64
1, 75193, Note_on_c, 0, 29, 59
1, 75196, Control_c, 0, 64, 63
1, 75211, Control_c, 0, 64, 64
1, 75213, Note_off_c, 0, 67, 53
1, 75218, Note_off_c, 0, 58, 50
1, 75226, Control_c, 0, 64, 65
1, 75230, Note_off_c, 0, 61, 58
1, 75237, Note_off_c, 0, 29, 60
1, 75255, Control_c, 0, 64, 64
1, 75270, Control_c, 0, 64, 64
1, 75282, Note_on_c, 0, 41, 48
1, 75285, Control_c, 0, 64, 61
1, 75299, Control_c, 0, 64, 56
1, 75314, Control_c, 0, 64, 49
1, 75322, Note_off_c, 0, 65, 52
1, 75329, Note_off_c, 0, 41, 55
1, 75329, Control_c, 0, 64, 42
1, 75341, Note_on_c, 0, 67, 59
1, 75344, Note_on_c, 0, 58, 48
1, 75344, Control_c, 0, 64, 39
1, 75350, Note_on_c, 0, 29, 57
1, 75350, Note_on_c, 0, 61, 55
1, 75359, Control_c, 0, 64, 40
1, 75374, Control_c, 0, 64, 43
1, 75389, Control_c, 0, 64, 49
1, 75397, Note_off_c, 0, 29, 58
1, 75404, Control_c, 0, 64, 56
1, 75419, Control_c, 0, 64, 60
1, 75434, Control_c, 0, 64, 62
1, 75436, Note_on_c, 0, 41, 50
1, 75448, Control_c, 0, 64, 62
1, 75463, Control_c, 0, 64, 63
1, 75478, Control_c, 0, 64, 63
1, 75483, Note_off_c, 0, 67, 59
1, 75486, Note_off_c, 0, 41, 56
1, 75493, Control_c, 0, 64, 64
1, 75502, Note_on_c, 0, 29, 57
1, 75502, Note_on_c, 0, 64, 64
1, 75511, Note_off_c, 0, 61, 56
1, 75529, Note_off_c, 0, 58, 62
1, 75554, Note_off_c, 0, 29, 59
1, 75559, Control_c, 0, 64, 63
1, 75574, Control_c, 0, 64, 60
1, 75589, Control_c, 0, 64, 56
1, 75604, Control_c, 0, 64, 50
1, 75604, Note_on_c, 0, 41, 47
1, 75618, Control_c, 0, 64, 44
1, 75633, Control_c, 0, 64, 39
1, 75639, Note_off_c, 0, 41, 56
1, 75647, Control_c, 0, 64, 36
1, 75662, Control_c, 0, 64, 34
1, 75668, Note_on_c, 0, 29, 54
1, 75676, Note_on_c, 0, 65, 58
1, 75677, Control_c, 0, 64, 33
1, 75680, Note_on_c, 0, 57, 39
1, 75683, Note_on_c, 0, 60, 51
1, 75688, Note_off_c, 0, 64, 49
1, 75692, Control_c, 0, 64, 32
1, 75707, Control_c, 0, 64, 0
1, 75713, Note_off_c, 0, 29, 59
1, 75746, Note_on_c, 0, 41, 47
1, 75800, Note_off_c, 0, 41, 51
1, 75824, Note_on_c, 0, 29, 52
1, 75825, Control_c, 0, 64, 32
1, 75854, Control_c, 0, 64, 32
1, 75869, Control_c, 0, 64, 33
1, 75878, Note_off_c, 0, 29, 57
1, 75884, Control_c, 0, 64, 34
1, 75899, Control_c, 0, 64, 36
1, 75914, Control_c, 0, 64, 37
1, 75919, Note_on_c, 0, 41, 49
1, 75928, Control_c, 0, 64, 37
1, 75943, Control_c, 0, 64, 38
1, 75958, Control_c, 0, 64, 40
1, 75961, Note_off_c, 0, 41, 57
1, 75973, Control_c, 0, 64, 45
1, 75988, Control_c, 0, 64, 51
1, 75996, Note_on_c, 0, 29, 51
1, 76003, Control_c, 0, 64, 56
1, 76018, Control_c, 0, 64, 59
1, 76033, Control_c, 0, 64, 60
1, 76047, Control_c, 0, 64, 60
1, 76049, Note_off_c, 0, 29, 57
1, 76062, Control_c, 0, 64, 61
1, 76077, Control_c, 0, 64, 61
1, 76081, Note_on_c, 0, 41, 44
1, 76092, Control_c, 0, 64, 62
1, 76121, Control_c, 0, 64, 62
1, 76133, Note_off_c, 0, 41, 54
1, 76136, Control_c, 0, 64, 63
1, 76165, Note_on_c, 0, 29, 56
1, 76166, Control_c, 0, 64, 63
1, 76167, Note_off_c, 0, 60, 60
1, 76197, Control_c, 0, 64, 64
1, 76201, Note_off_c, 0, 57, 48
1, 76215, Note_off_c, 0, 29, 60
1, 76255, Note_on_c, 0, 41, 50
1, 76255, Note_off_c, 0, 65, 63
1, 76256, Control_c, 0, 64, 63
1, 76307, Control_c, 0, 64, 62
1, 76313, Note_off_c, 0, 41, 55
1, 76322, Control_c, 0, 64, 61
1, 76337, Control_c, 0, 64, 57
1, 76343, Note_on_c, 0, 29, 50
1, 76347, Note_on_c, 0, 66, 58
1, 76352, Control_c, 0, 64, 52
1, 76358, Note_on_c, 0, 61, 42
1, 76367, Control_c, 0, 64, 46
1, 76368, Note_on_c, 0, 58, 31
1, 76382, Control_c, 0, 64, 42
1, 76396, Control_c, 0, 64, 41
1, 76402, Note_off_c, 0, 29, 56
1, 76426, Control_c, 0, 64, 43
1, 76438, Note_on_c, 0, 41, 43
1, 76441, Control_c, 0, 64, 47
1, 76456, Control_c, 0, 64, 51
1, 76471, Control_c, 0, 64, 56
1, 76485, Control_c, 0, 64, 59
1, 76495, Note_off_c, 0, 41, 53
1, 76500, Control_c, 0, 64, 60
1, 76515, Control_c, 0, 64, 61
1, 76522, Note_on_c, 0, 29, 53
1, 76524, Note_on_c, 0, 65, 60
1, 76529, Note_off_c, 0, 58, 43
1, 76530, Control_c, 0, 64, 61
1, 76544, Note_off_c, 0, 66, 47
1, 76545, Control_c, 0, 64, 62
1, 76558, Note_off_c, 0, 61, 54
1, 76559, Control_c, 0, 64, 63
1, 76569, Note_off_c, 0, 29, 58
1, 76574, Control_c, 0, 64, 63
1, 76589, Control_c, 0, 64, 64
1, 76618, Note_on_c, 0, 41, 45
1, 76633, Control_c, 0, 64, 62
1, 76648, Control_c, 0, 64, 59
1, 76653, Note_off_c, 0, 65, 52
1, 76663, Control_c, 0, 64, 52
1, 76668, Note_off_c, 0, 41, 55
1, 76677, Control_c, 0, 64, 43
1, 76686, Note_on_c, 0, 66, 53
1, 76689, Note_on_c, 0, 61, 39
1, 76692, Control_c, 0, 64, 35
1, 76695, Note_on_c, 0, 29, 51
1, 76698, Note_on_c, 0, 58, 42
1, 76707, Control_c, 0, 64, 0
1, 76759, Note_off_c, 0, 29, 57
1, 76792, Note_on_c, 0, 41, 51
1, 76811, Control_c, 0, 64, 36
1, 76826, Control_c, 0, 64, 45
1, 76841, Control_c, 0, 64, 52
1, 76855, Control_c, 0, 64, 58
1, 76859, Note_off_c, 0, 41, 52
1, 76870, Control_c, 0, 64, 61
1, 76877, Note_off_c, 0, 66, 56
1, 76884, Note_on_c, 0, 29, 53
1, 76885, Control_c, 0, 64, 62
1, 76899, Note_on_c, 0, 64, 56
1, 76900, Control_c, 0, 64, 63
1, 76915, Control_c, 0, 64, 64
1, 76930, Control_c, 0, 64, 65
1, 76941, Note_off_c, 0, 58, 54
1, 76945, Control_c, 0, 64, 65
1, 76958, Note_off_c, 0, 29, 53
1, 76959, Control_c, 0, 64, 66
1, 76974, Control_c, 0, 64, 66
1, 76998, Note_off_c, 0, 61, 40
1, 77005, Control_c, 0, 64, 67
1, 77005, Control_c, 0, 67, 123
1, 77013, Note_on_c, 0, 41, 47
1, 77027, Control_c, 0, 67, 115
1, 77042, Control_c, 0, 64, 67
1, 77042, Control_c, 0, 67, 108
1, 77044, Note_off_c, 0, 64, 61
1, 77057, Control_c, 0, 64, 68
1, 77057, Control_c, 0, 67, 101
1, 77072, Control_c, 0, 64, 68
1, 77072, Control_c, 0, 67, 96
1, 77087, Control_c, 0, 64, 69
1, 77087, Control_c, 0, 67, 90
1, 77089, Note_off_c, 0, 41, 56
1, 77101, Control_c, 0, 64, 70
1, 77101, Control_c, 0, 67, 86
1, 77116, Control_c, 0, 64, 71
1, 77116, Control_c, 0, 67, 81
1, 77131, Control_c, 0, 64, 71
1, 77131, Control_c, 0, 67, 67
1, 77146, Control_c, 0, 64, 70
1, 77146, Control_c, 0, 67, 32
1, 77161, Control_c, 0, 64, 60
1, 77161, Control_c, 0, 67, 0
1, 77168, Note_on_c, 0, 53, 103
1, 77168, Note_on_c, 0, 65, 103
1, 77174, Note_on_c, 0, 41, 107
1, 77175, Note_on_c, 0, 29, 98
1, 77176, Control_c, 0, 64, 0
1, 77265, Control_c, 0, 64, 39
1, 77280, Control_c, 0, 64, 64
1, 77287, Note_off_c, 0, 41, 60
1, 77295, Control_c, 0, 64, 72
1, 77309, Note_off_c, 0, 29, 62
1, 77309, Control_c, 0, 64, 79
1, 77324, Control_c, 0, 64, 84
1, 77326, Note_off_c, 0, 53, 59
1, 77339, Control_c, 0, 64, 88
1, 77354, Control_c, 0, 64, 91
1, 77368, Control_c, 0, 64, 92
1, 77402, Note_off_c, 0, 65, 59
1, 77458, Control_c, 0, 64, 92
1, 77517, Control_c, 0, 64, 91
1, 77550, Note_on_c, 0, 61, 13
1, 77595, Note_off_c, 0, 61, 39
1, 77635, Control_c, 0, 64, 87
1, 77643, Note_on_c, 0, 67, 95
1, 77648, Note_on_c, 0, 55, 92
1, 77650, Control_c, 0, 64, 73
1, 77651, Note_on_c, 0, 31, 88
1, 77651, Note_on_c, 0, 43, 91
1, 77665, Control_c, 0, 64, 38
1, 77675, Note_off_c, 0, 55, 66
1, 77680, Control_c, 0, 64, 0
1, 77681, Note_off_c, 0, 43, 64
1, 77684, Note_off_c, 0, 31, 68
1, 77693, Note_off_c, 0, 67, 66
1, 77825, Note_on_c, 0, 69, 105
1, 77827, Note_on_c, 0, 45, 97
1, 77827, Note_on_c, 0, 33, 93
1, 77828, Note_on_c, 0, 57, 100
1, 78014, Control_c, 0, 64, 55
1, 78029, Control_c, 0, 64, 67
1, 78044, Control_c, 0, 64, 67
1, 78058, Control_c, 0, 64, 68
1, 78063, Note_off_c, 0, 57, 62
1, 78066, Note_off_c, 0, 45, 56
1, 78073, Control_c, 0, 64, 69
1, 78077, Note_off_c, 0, 33, 60
1, 78087, Note_off_c, 0, 69, 65
1, 78088, Control_c, 0, 64, 71
1, 78103, Control_c, 0, 64, 72
1, 78117, Control_c, 0, 64, 73
1, 78147, Control_c, 0, 64, 74
1, 78162, Control_c, 0, 64, 74
1, 78176, Control_c, 0, 64, 76
1, 78191, Control_c, 0, 64, 78
1, 78206, Control_c, 0, 64, 80
1, 78221, Control_c, 0, 64, 81
1, 78236, Control_c, 0, 64, 81
1, 78251, Control_c, 0, 64, 80
1, 78265, Control_c, 0, 64, 66
1, 78280, Note_on_c, 0, 70, 100
1, 78280, Control_c, 0, 64, 0
1, 78285, Note_on_c, 0, 58, 87
1, 78286, Note_on_c, 0, 34, 94
1, 78286, Note_on_c, 0, 46, 91
1, 78306, Note_off_c, 0, 58, 68
1, 78314, Note_off_c, 0, 46, 66
1, 78319, Note_off_c, 0, 34, 64
1, 78333, Note_off_c, 0, 70, 64
1, 78447, Note_on_c, 0, 48, 98
1, 78449, Note_on_c, 0, 36, 96
1, 78450, Note_on_c, 0, 72, 100
1, 78453, Note_on_c, 0, 60, 97
1, 78629, Control_c, 0, 64, 47
1, 78644, Control_c, 0, 64, 68
1, 78659, Control_c, 0, 64, 70
1, 78673, Control_c, 0, 64, 70
1, 78703, Control_c, 0, 64, 71
1, 78718, Control_c, 0, 64, 72
1, 78733, Control_c, 0, 64, 73
1, 78747, Control_c, 0, 64, 74
1, 78760, Note_off_c, 0, 36, 62
1, 78762, Note_off_c, 0, 48, 65
1, 78762, Control_c, 0, 64, 75
1, 78766, Note_off_c, 0, 60, 60
1, 78790, Note_off_c, 0, 72, 59
1, 78792, Control_c, 0, 64, 75
1, 78821, Control_c, 0, 64, 76
1, 78836, Control_c, 0, 64, 76
1, 78851, Control_c, 0, 64, 78
1, 78866, Control_c, 0, 64, 79
1, 78880, Control_c, 0, 64, 80
1, 78895, Control_c, 0, 64, 79
1, 78910, Control_c, 0, 64, 72
1, 78917, Note_on_c, 0, 74, 91
1, 78922, Note_on_c, 0, 62, 78
1, 78923, Note_on_c, 0, 50, 77
1, 78924, Note_on_c, 0, 38, 77
1, 78925, Control_c, 0, 64, 57
1, 78939, Control_c, 0, 64, 0
1, 78946, Note_off_c, 0, 62, 69
1, 78947, Note_off_c, 0, 50, 70
1, 78951, Note_off_c, 0, 38, 66
1, 78952, Note_off_c, 0, 74, 59
1, 79067, Note_on_c, 0, 76, 92
1, 79067, Note_on_c, 0, 64, 80
1, 79073, Note_on_c, 0, 52, 80
1, 79074, Note_on_c, 0, 40, 77
1, 79089, Note_off_c, 0, 64, 71
1, 79097, Note_off_c, 0, 52, 67
1, 79103, Note_off_c, 0, 76, 63
1, 79106, Note_off_c, 0, 40, 65
1, 79204, Note_on_c, 0, 77, 93
1, 79205, Note_on_c, 0, 65, 84
1, 79207, Note_on_c, 0, 53, 92
1, 79208, Note_on_c, 0, 41, 89
1, 79218, Note_on_c, 0, 64, 60
1, 79219, Note_on_c, 0, 76, 71
1, 79228, Note_off_c, 0, 65, 70
1, 79237, Note_off_c, 0, 76, 41
1, 79237, Note_off_c, 0, 64, 41
1, 79240, Note_off_c, 0, 53, 67
1, 79241, Note_off_c, 0, 41, 63
1, 79243, Note_off_c, 0, 77, 66
1, 79347, Note_on_c, 0, 67, 94
1, 79348, Note_on_c, 0, 79, 105
1, 79351, Note_on_c, 0, 55, 101
1, 79356, Note_on_c, 0, 43, 89
1, 79381, Note_off_c, 0, 67, 69
1, 79386, Note_off_c, 0, 79, 65
1, 79389, Note_off_c, 0, 55, 66
1, 79389, Note_off_c, 0, 43, 62
1, 79494, Note_on_c, 0, 81, 99
1, 79495, Note_on_c, 0, 69, 97
1, 79497, Note_on_c, 0, 57, 102
1, 79499, Note_on_c, 0, 45, 97
1, 79529, Note_off_c, 0, 69, 68
1, 79530, Note_off_c, 0, 57, 67
1, 79532, Note_off_c, 0, 45, 67
1, 79538, Note_off_c, 0, 81, 64
1, 79651, Note_on_c, 0, 82, 106
1, 79654, Note_on_c, 0, 58, 103
1, 79655, Note_on_c, 0, 70, 104
1, 79656, Note_on_c, 0, 46, 101
1, 79793, Control_c, 0, 64, 50
1, 79808, Control_c, 0, 64, 69
1, 79822, Control_c, 0, 64, 76
1, 79837, Control_c, 0, 64, 84
1, 79852, Control_c, 0, 64, 85
1, 79862, Note_off_c, 0, 58, 59
1, 79867, Control_c, 0, 64, 85
1, 79897, Note_off_c, 0, 46, 60
1, 79920, Note_off_c, 0, 82, 58
1, 79923, Note_off_c, 0, 70, 56
1, 80022, Control_c, 0, 64, 86
1, 80037, Control_c, 0, 64, 86
1, 80082, Control_c, 0, 64, 83
1, 80097, Control_c, 0, 64, 67
1, 80109, Note_on_c, 0, 57, 101
1, 80110, Note_on_c, 0, 69, 93
1, 80111, Control_c, 0, 64, 0
1, 80114, Note_on_c, 0, 45, 90
1, 80115, Note_on_c, 0, 81, 88
1, 80118, Note_on_c, 0, 83, 89
1, 80134, Note_off_c, 0, 83, 75
1, 80149, Note_off_c, 0, 69, 65
1, 80153, Note_off_c, 0, 45, 65
1, 80153, Note_off_c, 0, 57, 66
1, 80155, Note_off_c, 0, 81, 64
1, 80280, Note_on_c, 0, 79, 101
1, 80281, Note_on_c, 0, 67, 93
1, 80285, Note_on_c, 0, 43, 94
1, 80286, Note_on_c, 0, 55, 100
1, 80409, Control_c, 0, 64, 41
1, 80424, Control_c, 0, 64, 68
1, 80439, Control_c, 0, 64, 76
1, 80453, Control_c, 0, 64, 84
1, 80468, Control_c, 0, 64, 84
1, 80483, Control_c, 0, 64, 85
1, 80498, Control_c, 0, 64, 86
1, 80512, Control_c, 0, 64, 87
1, 80527, Control_c, 0, 64, 87
1, 80532, Note_off_c, 0, 55, 59
1, 80542, Control_c, 0, 64, 88
1, 80549, Note_off_c, 0, 43, 61
1, 80558, Note_off_c, 0, 67, 64
1, 80559, Note_off_c, 0, 79, 63
1, 80571, Control_c, 0, 64, 88
1, 80616, Control_c, 0, 64, 89
1, 80631, Control_c, 0, 64, 89
1, 80645, Control_c, 0, 64, 91
1, 80660, Control_c, 0, 64, 92
1, 80675, Control_c, 0, 64, 94
1, 80690, Control_c, 0, 64, 96
1, 80705, Control_c, 0, 64, 95
1, 80719, Control_c, 0, 64, 83
1, 80734, Note_on_c, 0, 77, 101
1, 80734, Control_c, 0, 64, 56
1, 80740, Note_on_c, 0, 41, 93
1, 80740, Note_on_c, 0, 65, 93
1, 80740, Note_on_c, 0, 53, 92
1, 80749, Control_c, 0, 64, 0
1, 80776, Note_off_c, 0, 53, 67
1, 80777, Note_off_c, 0, 65, 63
1, 80786, Note_off_c, 0, 41, 65
1, 80786, Note_off_c, 0, 77, 64
1, 80904, Note_on_c, 0, 76, 96
1, 80909, Note_on_c, 0, 64, 94
1, 80910, Note_on_c, 0, 52, 101
1, 80912, Note_on_c, 0, 40, 95
1, 81039, Control_c, 0, 64, 38
1, 81054, Control_c, 0, 64, 72
1, 81069, Control_c, 0, 64, 79
1, 81083, Control_c, 0, 64, 85
1, 81113, Control_c, 0, 64, 86
1, 81128, Control_c, 0, 64, 88
1, 81130, Note_off_c, 0, 52, 58
1, 81142, Control_c, 0, 64, 89
1, 81144, Note_off_c, 0, 76, 61
1, 81145, Note_off_c, 0, 64, 63
1, 81146, Note_off_c, 0, 40, 63
1, 81172, Control_c, 0, 64, 89
1, 81353, Note_on_c, 0, 50, 90
1, 81354, Note_on_c, 0, 74, 93
1, 81355, Note_on_c, 0, 38, 90
1, 81357, Note_on_c, 0, 62, 85
1, 81383, Note_off_c, 0, 62, 65
1, 81389, Note_off_c, 0, 50, 62
1, 81394, Control_c, 0, 64, 88
1, 81395, Note_off_c, 0, 38, 61
1, 81398, Note_off_c, 0, 74, 61
1, 81409, Control_c, 0, 64, 87
1, 81424, Control_c, 0, 64, 83
1, 81439, Control_c, 0, 64, 68
1, 81454, Control_c, 0, 64, 0
1, 81506, Note_on_c, 0, 36, 91
1, 81506, Note_on_c, 0, 48, 88
1, 81506, Note_on_c, 0, 72, 95
1, 81508, Note_on_c, 0, 60, 96
1, 81536, Note_off_c, 0, 48, 71
1, 81544, Note_off_c, 0, 60, 68
1, 81547, Note_off_c, 0, 36, 65
1, 81550, Note_off_c, 0, 72, 66
1, 81654, Note_on_c, 0, 58, 92
1, 81655, Note_on_c, 0, 70, 97
1, 81656, Note_on_c, 0, 46, 91
1, 81660, Note_on_c, 0, 34, 90
1, 81691, Note_off_c, 0, 58, 61
1, 81693, Note_off_c, 0, 34, 65
1, 81693, Note_off_c, 0, 46, 65
1, 81693, Note_off_c, 0, 70, 69
1, 81795, Note_on_c, 0, 57, 96
1, 81795, Note_on_c, 0, 69, 95
1, 81801, Note_on_c, 0, 45, 92
1, 81802, Note_on_c, 0, 33, 91
1, 81831, Note_off_c, 0, 57, 66
1, 81833, Note_off_c, 0, 69, 65
1, 81834, Note_off_c, 0, 45, 67
1, 81840, Note_off_c, 0, 33, 61
1, 81940, Note_on_c, 0, 67, 98
1, 81941, Note_on_c, 0, 55, 95
1, 81945, Note_on_c, 0, 43, 98
1, 81948, Note_on_c, 0, 31, 96
1, 81973, Note_off_c, 0, 67, 71
1, 81974, Note_off_c, 0, 55, 65
1, 81978, Note_off_c, 0, 31, 68
1, 81978, Note_off_c, 0, 43, 64
1, 82096, Note_on_c, 0, 53, 103
1, 82097, Note_on_c, 0, 41, 107
1, 82097, Note_on_c, 0, 65, 100
1, 82099, Note_on_c, 0, 29, 94
1, 82114, Control_c, 0, 64, 57
1, 82127, Note_off_c, 0, 29, 67
1, 82129, Note_off_c, 0, 53, 66
1, 82129, Control_c, 0, 64, 72
1, 82131, Note_off_c, 0, 41, 68
1, 82138, Note_off_c, 0, 65, 61
1, 82144, Control_c, 0, 64, 75
1, 82159, Control_c, 0, 64, 75
1, 82173, Control_c, 0, 64, 76
1, 82188, Control_c, 0, 64, 78
1, 82299, Control_c, 0, 64, 75
1, 82314, Control_c, 0, 64, 64
1, 82328, Control_c, 0, 64, 0
1, 82403, Control_c, 0, 67, 28
1, 82417, Control_c, 0, 67, 35
1, 82432, Control_c, 0, 67, 42
1, 82437, Note_on_c, 0, 64, 64
1, 82440, Note_on_c, 0, 58, 59
1, 82442, Note_on_c, 0, 55, 61
1, 82447, Control_c, 0, 67, 54
1, 82454, Note_on_c, 0, 48, 25
1, 82462, Control_c, 0, 67, 70
1, 82465, Note_off_c, 0, 58, 63
1, 82473, Note_off_c, 0, 55, 65
1, 82473, Note_off_c, 0, 64, 63
1, 82477, Control_c, 0, 67, 80
1, 82491, Control_c, 0, 67, 83
1, 82494, Note_off_c, 0, 48, 44
1, 82519, Note_on_c, 0, 63, 51
1, 82550, Control_c, 0, 67, 84
1, 82560, Note_off_c, 0, 63, 63
1, 82565, Control_c, 0, 67, 85
1, 82576, Note_on_c, 0, 64, 61
1, 82580, Control_c, 0, 67, 87
1, 82596, Control_c, 0, 67, 90
1, 82609, Note_off_c, 0, 64, 66
1, 82611, Control_c, 0, 67, 92
1, 82626, Control_c, 0, 67, 93
1, 82640, Control_c, 0, 67, 94
1, 82650, Note_on_c, 0, 60, 61
1, 82655, Control_c, 0, 67, 94
1, 82689, Note_off_c, 0, 60, 64
1, 82700, Control_c, 0, 67, 95
1, 82707, Note_on_c, 0, 53, 58
1, 82707, Note_on_c, 0, 65, 66
1, 82710, Note_on_c, 0, 57, 56
1, 82714, Control_c, 0, 67, 95
1, 82725, Note_off_c, 0, 65, 65
1, 82729, Note_off_c, 0, 53, 61
1, 82729, Control_c, 0, 67, 98
1, 82731, Note_off_c, 0, 57, 60
1, 82744, Control_c, 0, 67, 104
1, 82759, Control_c, 0, 67, 110
1, 82773, Control_c, 0, 67, 116
1, 82788, Control_c, 0, 67, 118
1, 82832, Control_c, 0, 67, 120
1, 83006, Note_on_c, 0, 76, 69
1, 83009, Note_on_c, 0, 67, 56
1, 83010, Note_on_c, 0, 60, 54
1, 83012, Note_on_c, 0, 70, 51
1, 83044, Note_off_c, 0, 67, 57
1, 83044, Note_off_c, 0, 70, 59
1, 83053, Note_off_c, 0, 60, 59
1, 83062, Note_off_c, 0, 76, 61
1, 83082, Note_on_c, 0, 75, 62
1, 83147, Note_off_c, 0, 75, 61
1, 83157, Note_on_c, 0, 76, 68
1, 83188, Note_off_c, 0, 76, 62
1, 83225, Note_on_c, 0, 72, 60
1, 83279, Note_off_c, 0, 72, 60
1, 83286, Note_on_c, 0, 65, 53
1, 83290, Note_on_c, 0, 77, 66
1, 83291, Note_on_c, 0, 69, 51
1, 83300, Control_c, 0, 67, 118
1, 83314, Note_off_c, 0, 77, 67
1, 83316, Note_off_c, 0, 69, 61
1, 83318, Note_off_c, 0, 65, 64
1, 83583, Control_c, 0, 67, 113
1, 83597, Control_c, 0, 67, 101
1, 83612, Control_c, 0, 67, 76
1, 83627, Control_c, 0, 67, 33
1, 83642, Control_c, 0, 67, 0
1, 83922, Note_on_c, 0, 88, 103
1, 83923, Note_on_c, 0, 76, 109
1, 83925, Note_on_c, 0, 84, 105
1, 83926, Note_on_c, 0, 48, 92
1, 83926, Note_on_c, 0, 79, 103
1, 83927, Note_on_c, 0, 82, 96
1, 83929, Note_on_c, 0, 60, 95
1, 83945, Control_c, 0, 64, 55
1, 83959, Note_off_c, 0, 60, 69
1, 83960, Note_off_c, 0, 76, 64
1, 83960, Control_c, 0, 64, 87
1, 83966, Note_off_c, 0, 48, 66
1, 83975, Control_c, 0, 64, 110
1, 83980, Note_off_c, 0, 79, 65
1, 83986, Note_off_c, 0, 88, 66
1, 83989, Control_c, 0, 64, 127
1, 83998, Note_off_c, 0, 82, 66
1, 83999, Note_off_c, 0, 84, 66
1, 84361, Control_c, 0, 64, 114
1, 84376, Control_c, 0, 64, 79
1, 84391, Control_c, 0, 64, 53
1, 84405, Control_c, 0, 64, 0
1, 84764, Note_on_c, 0, 89, 109
1, 84766, Note_on_c, 0, 77, 105
1, 84768, Note_on_c, 0, 81, 101
1, 84768, Note_on_c, 0, 84, 105
1, 84770, Note_on_c, 0, 41, 94
1, 84771, Note_on_c, 0, 53, 103
1, 84799, Control_c, 0, 64, 62
1, 84809, Note_off_c, 0, 41, 67
1, 84811, Note_off_c, 0, 53, 65
1, 84813, Control_c, 0, 64, 127
1, 84829, Note_off_c, 0, 77, 66
1, 84832, Note_off_c, 0, 89, 66
1, 84839, Note_off_c, 0, 81, 66
1, 84840, Note_off_c, 0, 84, 67
1, 85199, Control_c, 0, 67, 17
1, 85214, Control_c, 0, 67, 19
1, 85384, Control_c, 0, 67, 21
1, 85429, Control_c, 0, 67, 23
1, 85443, Control_c, 0, 67, 25
1, 85458, Control_c, 0, 67, 28
1, 85473, Control_c, 0, 64, 76
1, 85473, Control_c, 0, 67, 32
1, 85488, Control_c, 0, 64, 36
1, 85488, Control_c, 0, 67, 36
1, 85503, Control_c, 0, 64, 0
1, 85503, Control_c, 0, 67, 40
1, 85518, Control_c, 0, 67, 45
1, 85533, Control_c, 0, 67, 53
1, 85548, Control_c, 0, 67, 61
1, 85563, Control_c, 0, 67, 67
1, 85577, Control_c, 0, 67, 72
1, 85592, Control_c, 0, 67, 77
1, 85607, Control_c, 0, 67, 81
1, 85622, Control_c, 0, 67, 86
1, 85636, Control_c, 0, 67, 89
1, 85651, Control_c, 0, 67, 92
1, 85666, Control_c, 0, 67, 94
1, 85681, Control_c, 0, 67, 96
1, 85695, Control_c, 0, 67, 99
1, 85710, Control_c, 0, 67, 107
1, 85725, Control_c, 0, 67, 118
1, 85740, Control_c, 0, 67, 127
1, 85780, Note_on_c, 0, 60, 44
1, 85818, Note_off_c, 0, 60, 58
1, 85840, Note_on_c, 0, 59, 58
1, 85908, Note_off_c, 0, 59, 59
1, 85915, Note_on_c, 0, 60, 63
1, 85953, Note_off_c, 0, 60, 65
1, 85971, Note_on_c, 0, 57, 57
1, 86021, Note_off_c, 0, 57, 62
1, 86055, Note_on_c, 0, 65, 63
1, 86073, Note_off_c, 0, 65, 65
1, 86369, Note_on_c, 0, 48, 47
1, 86409, Note_off_c, 0, 48, 62
1, 86442, Note_on_c, 0, 47, 49
1, 86487, Note_off_c, 0, 47, 64
1, 86509, Note_on_c, 0, 48, 53
1, 86558, Note_off_c, 0, 48, 64
1, 86563, Note_on_c, 0, 45, 56
1, 86597, Note_off_c, 0, 45, 64
1, 86639, Note_on_c, 0, 53, 63
1, 86668, Note_off_c, 0, 53, 66
1, 86995, Note_on_c, 0, 60, 44
1, 87019, Note_off_c, 0, 60, 59
1, 87038, Note_on_c, 0, 59, 55
1, 87110, Note_on_c, 0, 60, 63
1, 87128, Note_off_c, 0, 59, 59
1, 87163, Note_off_c, 0, 60, 63
1, 87185, Note_on_c, 0, 57, 51
1, 87227, Note_off_c, 0, 57, 62
1, 87259, Note_on_c, 0, 65, 59
1, 87283, Note_off_c, 0, 65, 66
1, 87575, Note_on_c, 0, 48, 41
1, 87609, Note_off_c, 0, 48, 56
1, 87648, Note_on_c, 0, 47, 47
1, 87697, Note_off_c, 0, 47, 63
1, 87712, Note_on_c, 0, 48, 51
1, 87769, Note_off_c, 0, 48, 64
1, 87785, Note_on_c, 0, 45, 54
1, 87815, Note_off_c, 0, 45, 63
1, 87859, Note_on_c, 0, 53, 62
1, 87892, Note_off_c, 0, 53, 66
1, 88149, Control_c, 0, 67, 118
1, 88164, Control_c, 0, 67, 105
1, 88171, Note_on_c, 0, 48, 77
1, 88174, Note_on_c, 0, 60, 83
1, 88180, Control_c, 0, 67, 84
1, 88195, Control_c, 0, 67, 48
1, 88210, Control_c, 0, 67, 0
1, 88232, Note_off_c, 0, 60, 66
1, 88236, Note_off_c, 0, 48, 59
1, 88239, Note_on_c, 0, 59, 82
1, 88243, Note_on_c, 0, 47, 75
1, 88311, Note_on_c, 0, 60, 88
1, 88317, Note_off_c, 0, 47, 66
1, 88323, Note_off_c, 0, 59, 63
1, 88353, Note_on_c, 0, 48, 50
1, 88358, Note_on_c, 0, 45, 75
1, 88374, Note_off_c, 0, 60, 64
1, 88383, Note_off_c, 0, 48, 36
1, 88383, Note_on_c, 0, 57, 90
1, 88420, Note_off_c, 0, 45, 64
1, 88447, Note_off_c, 0, 57, 66
1, 88470, Note_on_c, 0, 65, 108
1, 88472, Note_on_c, 0, 53, 103
1, 88476, Note_on_c, 0, 41, 102
1, 88647, Control_c, 0, 64, 57
1, 88661, Control_c, 0, 64, 72
1, 88676, Control_c, 0, 64, 79
1, 88691, Control_c, 0, 64, 88
1, 88706, Control_c, 0, 64, 90
1, 88720, Control_c, 0, 64, 93
1, 88735, Control_c, 0, 64, 94
1, 88748, Note_off_c, 0, 65, 66
1, 88821, Note_off_c, 0, 41, 56
1, 88831, Note_off_c, 0, 53, 56
1, 88943, Control_c, 0, 64, 87
1, 88952, Note_on_c, 0, 67, 97
1, 88958, Control_c, 0, 64, 63
1, 88960, Note_on_c, 0, 55, 91
1, 88964, Note_on_c, 0, 43, 88
1, 88973, Control_c, 0, 64, 0
1, 88997, Note_off_c, 0, 43, 65
1, 89000, Note_off_c, 0, 67, 66
1, 89009, Note_off_c, 0, 55, 64
1, 89128, Note_on_c, 0, 57, 98
1, 89129, Note_on_c, 0, 69, 97
1, 89131, Note_on_c, 0, 45, 92
1, 89277, Control_c, 0, 64, 44
1, 89292, Control_c, 0, 64, 66
1, 89307, Control_c, 0, 64, 70
1, 89322, Control_c, 0, 64, 72
1, 89336, Control_c, 0, 64, 73
1, 89351, Control_c, 0, 64, 75
1, 89366, Control_c, 0, 64, 79
1, 89381, Control_c, 0, 64, 82
1, 89387, Note_off_c, 0, 57, 60
1, 89388, Note_off_c, 0, 45, 62
1, 89396, Control_c, 0, 64, 84
1, 89415, Note_off_c, 0, 69, 62
1, 89454, Control_c, 0, 64, 85
1, 89484, Control_c, 0, 64, 85
1, 89499, Control_c, 0, 64, 87
1, 89514, Control_c, 0, 64, 89
1, 89528, Control_c, 0, 64, 94
1, 89543, Control_c, 0, 64, 99
1, 89558, Control_c, 0, 64, 101
1, 89573, Control_c, 0, 64, 98
1, 89581, Note_on_c, 0, 70, 97
1, 89584, Note_on_c, 0, 58, 92
1, 89588, Note_on_c, 0, 46, 88
1, 89588, Control_c, 0, 64, 76
1, 89602, Control_c, 0, 64, 0
1, 89631, Note_off_c, 0, 46, 61
1, 89631, Note_off_c, 0, 70, 65
1, 89633, Note_off_c, 0, 58, 61
1, 89760, Note_on_c, 0, 60, 100
1, 89760, Note_on_c, 0, 72, 103
1, 89763, Note_on_c, 0, 48, 97
1, 89906, Control_c, 0, 64, 43
1, 89921, Control_c, 0, 64, 67
1, 89936, Control_c, 0, 64, 72
1, 89951, Control_c, 0, 64, 77
1, 89966, Control_c, 0, 64, 78
1, 89980, Control_c, 0, 64, 80
1, 89995, Control_c, 0, 64, 82
1, 90010, Control_c, 0, 64, 85
1, 90025, Control_c, 0, 64, 86
1, 90055, Control_c, 0, 64, 86
1, 90058, Note_off_c, 0, 48, 62
1, 90065, Note_off_c, 0, 60, 64
1, 90079, Note_off_c, 0, 72, 63
1, 90099, Control_c, 0, 64, 87
1, 90129, Control_c, 0, 64, 87
1, 90144, Control_c, 0, 64, 88
1, 90158, Control_c, 0, 64, 91
1, 90173, Control_c, 0, 64, 94
1, 90203, Control_c, 0, 64, 77
1, 90204, Note_on_c, 0, 74, 92
1, 90216, Note_on_c, 0, 50, 89
1, 90216, Note_on_c, 0, 62, 91
1, 90218, Control_c, 0, 64, 54
1, 90232, Control_c, 0, 64, 0
1, 90241, Note_off_c, 0, 74, 66
1, 90243, Note_off_c, 0, 62, 64
1, 90246, Note_off_c, 0, 50, 66
1, 90354, Note_on_c, 0, 63, 87
1, 90355, Note_on_c, 0, 75, 90
1, 90360, Note_on_c, 0, 51, 82
1, 90396, Note_off_c, 0, 63, 62
1, 90396, Note_off_c, 0, 75, 62
1, 90401, Note_off_c, 0, 51, 63
1, 90503, Note_on_c, 0, 74, 98
1, 90505, Note_on_c, 0, 62, 89
1, 90506, Note_on_c, 0, 50, 87
1, 90538, Note_off_c, 0, 74, 66
1, 90538, Note_off_c, 0, 62, 60
1, 90548, Note_off_c, 0, 50, 65
1, 90643, Note_on_c, 0, 72, 97
1, 90646, Note_on_c, 0, 60, 96
1, 90648, Note_on_c, 0, 48, 89
1, 90678, Note_off_c, 0, 48, 65
1, 90682, Note_off_c, 0, 60, 65
1, 90684, Note_off_c, 0, 72, 69
1, 90779, Note_on_c, 0, 74, 103
1, 90782, Note_on_c, 0, 62, 97
1, 90785, Note_on_c, 0, 50, 95
1, 90817, Note_off_c, 0, 62, 67
1, 90817, Note_off_c, 0, 74, 66
1, 90820, Note_off_c, 0, 50, 67
1, 90948, Note_on_c, 0, 75, 105
1, 90952, Note_on_c, 0, 63, 102
1, 90955, Note_on_c, 0, 51, 94
1, 91055, Control_c, 0, 64, 41
1, 91070, Control_c, 0, 64, 65
1, 91085, Control_c, 0, 64, 73
1, 91099, Control_c, 0, 64, 83
1, 91114, Control_c, 0, 64, 88
1, 91129, Control_c, 0, 64, 91
1, 91144, Control_c, 0, 64, 92
1, 91196, Note_off_c, 0, 63, 59
1, 91200, Note_off_c, 0, 51, 61
1, 91222, Note_off_c, 0, 75, 61
1, 91270, Control_c, 0, 64, 92
1, 91285, Control_c, 0, 64, 91
1, 91299, Control_c, 0, 64, 91
1, 91314, Control_c, 0, 64, 90
1, 91329, Control_c, 0, 64, 90
1, 91344, Control_c, 0, 64, 89
1, 91374, Control_c, 0, 64, 88
1, 91400, Note_on_c, 0, 74, 92
1, 91407, Note_on_c, 0, 62, 89
1, 91411, Note_on_c, 0, 50, 85
1, 91434, Control_c, 0, 64, 86
1, 91441, Note_off_c, 0, 62, 59
1, 91441, Note_off_c, 0, 74, 65
1, 91448, Note_off_c, 0, 50, 61
1, 91448, Control_c, 0, 64, 73
1, 91463, Control_c, 0, 64, 51
1, 91478, Control_c, 0, 64, 0
1, 91548, Note_on_c, 0, 72, 98
1, 91554, Note_on_c, 0, 60, 95
1, 91557, Note_on_c, 0, 48, 91
1, 91584, Note_off_c, 0, 60, 68
1, 91587, Note_off_c, 0, 48, 66
1, 91591, Note_off_c, 0, 72, 69
1, 91690, Note_on_c, 0, 58, 91
1, 91692, Note_on_c, 0, 70, 93
1, 91696, Note_on_c, 0, 46, 88
1, 91733, Note_off_c, 0, 70, 66
1, 91733, Note_off_c, 0, 58, 63
1, 91736, Note_off_c, 0, 46, 63
1, 91832, Note_on_c, 0, 69, 94
1, 91834, Note_on_c, 0, 57, 92
1, 91839, Note_on_c, 0, 45, 80
1, 91859, Note_off_c, 0, 57, 65
1, 91861, Note_off_c, 0, 45, 68
1, 91867, Note_off_c, 0, 69, 65
1, 91969, Note_on_c, 0, 58, 90
1, 91971, Note_on_c, 0, 70, 96
1, 91972, Note_on_c, 0, 46, 81
1, 92026, Note_off_c, 0, 46, 65
1, 92028, Note_off_c, 0, 58, 60
1, 92030, Note_off_c, 0, 70, 62
1, 92147, Note_on_c, 0, 72, 100
1, 92148, Note_on_c, 0, 60, 87
1, 92154, Note_on_c, 0, 48, 79
1, 92198, Control_c, 0, 64, 41
1, 92213, Control_c, 0, 64, 62
1, 92228, Control_c, 0, 64, 67
1, 92243, Control_c, 0, 64, 70
1, 92258, Control_c, 0, 64, 72
1, 92272, Control_c, 0, 64, 76
1, 92287, Control_c, 0, 64, 80
1, 92294, Note_off_c, 0, 60, 58
1, 92302, Control_c, 0, 64, 85
1, 92317, Control_c, 0, 64, 86
1, 92324, Note_off_c, 0, 48, 59
1, 92332, Control_c, 0, 64, 87
1, 92386, Note_off_c, 0, 72, 57
1, 92479, Control_c, 0, 64, 86
1, 92509, Control_c, 0, 64, 86
1, 92524, Control_c, 0, 64, 85
1, 92539, Control_c, 0, 64, 84
1, 92553, Control_c, 0, 64, 83
1, 92568, Control_c, 0, 64, 83
1, 92583, Control_c, 0, 64, 82
1, 92590, Note_on_c, 0, 70, 87
1, 92598, Control_c, 0, 64, 79
1, 92601, Note_on_c, 0, 58, 76
1, 92605, Note_on_c, 0, 46, 76
1, 92613, Control_c, 0, 64, 75
1, 92627, Control_c, 0, 64, 70
1, 92636, Note_off_c, 0, 58, 62
1, 92638, Note_off_c, 0, 46, 61
1, 92638, Note_off_c, 0, 70, 60
1, 92642, Control_c, 0, 64, 63
1, 92657, Control_c, 0, 64, 44
1, 92672, Control_c, 0, 64, 0
1, 92740, Note_on_c, 0, 69, 95
1, 92744, Note_on_c, 0, 57, 90
1, 92759, Note_on_c, 0, 45, 81
1, 92788, Note_off_c, 0, 69, 65
1, 92794, Note_off_c, 0, 57, 60
1, 92797, Note_off_c, 0, 45, 62
1, 92890, Note_on_c, 0, 67, 99
1, 92893, Note_on_c, 0, 55, 97
1, 92896, Note_on_c, 0, 43, 94
1, 92931, Note_off_c, 0, 43, 64
1, 92932, Note_off_c, 0, 55, 63
1, 92937, Note_off_c, 0, 67, 65
1, 93038, Note_on_c, 0, 66, 98
1, 93040, Note_on_c, 0, 54, 101
1, 93045, Note_on_c, 0, 42, 94
1, 93083, Note_off_c, 0, 54, 65
1, 93087, Note_off_c, 0, 42, 66
1, 93090, Note_off_c, 0, 66, 65
1, 93200, Note_on_c, 0, 64, 101
1, 93203, Note_on_c, 0, 52, 99
1, 93206, Note_on_c, 0, 40, 95
1, 93240, Note_off_c, 0, 64, 67
1, 93244, Note_off_c, 0, 52, 64
1, 93253, Note_off_c, 0, 40, 65
1, 93272, Control_c, 0, 64, 40
1, 93287, Control_c, 0, 64, 51
1, 93301, Control_c, 0, 64, 55
1, 93316, Control_c, 0, 64, 57
1, 93331, Control_c, 0, 64, 59
1, 93346, Control_c, 0, 64, 61
1, 93361, Control_c, 0, 64, 62
1, 93376, Control_c, 0, 64, 63
1, 93394, Note_on_c, 0, 62, 102
1, 93397, Note_on_c, 0, 38, 88
1, 93405, Control_c, 0, 64, 60
1, 93420, Control_c, 0, 64, 54
1, 93435, Control_c, 0, 64, 48
1, 93450, Control_c, 0, 64, 43
1, 93480, Note_on_c, 0, 50, 79
1, 93480, Control_c, 0, 64, 46
1, 93486, Note_off_c, 0, 38, 64
1, 93501, Control_c, 0, 64, 50
1, 93516, Control_c, 0, 64, 51
1, 93561, Control_c, 0, 64, 52
1, 93565, Note_off_c, 0, 50, 61
1, 93575, Control_c, 0, 64, 55
1, 93587, Note_on_c, 0, 38, 66
1, 93590, Control_c, 0, 64, 60
1, 93605, Control_c, 0, 64, 63
1, 93620, Control_c, 0, 64, 64
1, 93629, Note_off_c, 0, 38, 60
1, 93635, Control_c, 0, 67, 22
1, 93638, Note_on_c, 0, 50, 71
1, 93650, Control_c, 0, 67, 25
1, 93695, Control_c, 0, 64, 64
1, 93695, Control_c, 0, 67, 28
1, 93701, Note_off_c, 0, 50, 58
1, 93709, Control_c, 0, 64, 62
1, 93709, Control_c, 0, 67, 33
1, 93724, Control_c, 0, 64, 62
1, 93724, Control_c, 0, 67, 37
1, 93736, Note_on_c, 0, 38, 64
1, 93739, Control_c, 0, 64, 61
1, 93739, Control_c, 0, 67, 40
1, 93753, Control_c, 0, 64, 62
1, 93753, Control_c, 0, 67, 44
1, 93769, Control_c, 0, 64, 62
1, 93769, Control_c, 0, 67, 47
1, 93772, Note_off_c, 0, 38, 62
1, 93784, Control_c, 0, 67, 50
1, 93799, Control_c, 0, 64, 63
1, 93799, Control_c, 0, 67, 53
1, 93799, Note_on_c, 0, 50, 71
1, 93814, Control_c, 0, 64, 63
1, 93814, Control_c, 0, 67, 56
1, 93829, Control_c, 0, 64, 64
1, 93829, Control_c, 0, 67, 57
1, 93843, Control_c, 0, 64, 64
1, 93850, Note_off_c, 0, 50, 55
1, 93854, Note_off_c, 0, 62, 60
1, 93858, Control_c, 0, 64, 65
1, 93858, Control_c, 0, 67, 56
1, 93873, Control_c, 0, 67, 56
1, 93876, Note_on_c, 0, 38, 53
1, 93888, Control_c, 0, 64, 65
1, 93918, Control_c, 0, 64, 66
1, 93932, Control_c, 0, 67, 55
1, 93940, Note_off_c, 0, 38, 56
1, 93955, Note_on_c, 0, 50, 66
1, 93962, Control_c, 0, 64, 66
1, 93962, Control_c, 0, 67, 55
1, 93991, Control_c, 0, 64, 66
1, 94006, Control_c, 0, 64, 65
1, 94013, Note_off_c, 0, 50, 57
1, 94021, Control_c, 0, 64, 63
1, 94021, Control_c, 0, 67, 54
1, 94036, Control_c, 0, 64, 59
1, 94043, Note_on_c, 0, 66, 81
1, 94050, Control_c, 0, 64, 47
1, 94055, Note_on_c, 0, 57, 53
1, 94055, Note_on_c, 0, 60, 60
1, 94064, Note_on_c, 0, 38, 51
1, 94065, Control_c, 0, 64, 0
1, 94065, Control_c, 0, 67, 55
1, 94098, Note_off_c, 0, 38, 60
1, 94127, Note_on_c, 0, 50, 60
1, 94169, Control_c, 0, 67, 55
1, 94169, Note_off_c, 0, 50, 58
1, 94197, Note_on_c, 0, 38, 57
1, 94213, Control_c, 0, 64, 36
1, 94228, Control_c, 0, 64, 45
1, 94228, Control_c, 0, 67, 54
1, 94250, Note_off_c, 0, 38, 61
1, 94251, Control_c, 0, 64, 54
1, 94266, Control_c, 0, 64, 59
1, 94281, Control_c, 0, 64, 61
1, 94285, Note_on_c, 0, 50, 55
1, 94296, Control_c, 0, 64, 62
1, 94311, Control_c, 0, 64, 62
1, 94311, Control_c, 0, 67, 54
1, 94324, Note_off_c, 0, 50, 60
1, 94325, Control_c, 0, 67, 53
1, 94340, Control_c, 0, 64, 63
1, 94340, Control_c, 0, 67, 52
1, 94352, Note_on_c, 0, 38, 62
1, 94355, Control_c, 0, 64, 64
1, 94355, Control_c, 0, 67, 52
1, 94369, Control_c, 0, 64, 64
1, 94384, Control_c, 0, 64, 65
1, 94399, Control_c, 0, 67, 51
1, 94404, Note_off_c, 0, 38, 58
1, 94414, Control_c, 0, 64, 66
1, 94414, Control_c, 0, 67, 51
1, 94418, Note_on_c, 0, 50, 62
1, 94429, Control_c, 0, 64, 66
1, 94444, Control_c, 0, 64, 67
1, 94458, Control_c, 0, 67, 50
1, 94473, Control_c, 0, 64, 67
1, 94488, Note_on_c, 0, 62, 84
1, 94488, Note_off_c, 0, 50, 55
1, 94488, Control_c, 0, 64, 68
1, 94488, Control_c, 0, 67, 50
1, 94502, Note_off_c, 0, 57, 64
1, 94503, Control_c, 0, 64, 69
1, 94509, Note_on_c, 0, 38, 66
1, 94517, Note_off_c, 0, 60, 63
1, 94518, Control_c, 0, 64, 70
1, 94518, Control_c, 0, 67, 49
1, 94523, Note_off_c, 0, 66, 58
1, 94532, Control_c, 0, 64, 70
1, 94547, Control_c, 0, 67, 49
1, 94553, Note_off_c, 0, 38, 62
1, 94562, Control_c, 0, 64, 71
1, 94595, Note_on_c, 0, 50, 63
1, 94607, Control_c, 0, 64, 69
1, 94622, Control_c, 0, 64, 65
1, 94637, Control_c, 0, 64, 57
1, 94639, Note_off_c, 0, 50, 59
1, 94648, Note_on_c, 0, 58, 74
1, 94648, Note_on_c, 0, 67, 87
1, 94652, Control_c, 0, 64, 45
1, 94652, Control_c, 0, 67, 49
1, 94657, Note_on_c, 0, 55, 69
1, 94665, Note_off_c, 0, 62, 60
1, 94667, Note_on_c, 0, 38, 65
1, 94667, Control_c, 0, 64, 0
1, 94667, Control_c, 0, 67, 49
1, 94708, Note_off_c, 0, 38, 63
1, 94739, Note_on_c, 0, 50, 69
1, 94786, Note_off_c, 0, 50, 57
1, 94812, Note_on_c, 0, 38, 61
1, 94815, Control_c, 0, 64, 32
1, 94830, Control_c, 0, 64, 33
1, 94845, Control_c, 0, 64, 33
1, 94856, Note_off_c, 0, 38, 63
1, 94860, Control_c, 0, 64, 34
1, 94890, Note_on_c, 0, 50, 61
1, 94934, Note_off_c, 0, 50, 60
1, 94962, Note_on_c, 0, 38, 59
1, 94963, Control_c, 0, 64, 33
1, 95015, Control_c, 0, 64, 35
1, 95018, Note_off_c, 0, 38, 60
1, 95030, Control_c, 0, 64, 40
1, 95045, Control_c, 0, 64, 48
1, 95052, Note_on_c, 0, 50, 62
1, 95060, Control_c, 0, 64, 56
1, 95074, Control_c, 0, 64, 60
1, 95084, Note_off_c, 0, 67, 60
1, 95089, Control_c, 0, 64, 62
1, 95104, Control_c, 0, 64, 63
1, 95105, Note_off_c, 0, 50, 54
1, 95119, Control_c, 0, 64, 64
1, 95125, Note_on_c, 0, 65, 72
1, 95131, Note_on_c, 0, 38, 59
1, 95134, Control_c, 0, 64, 65
1, 95140, Note_off_c, 0, 55, 52
1, 95148, Control_c, 0, 64, 66
1, 95161, Note_off_c, 0, 58, 61
1, 95163, Control_c, 0, 64, 68
1, 95178, Control_c, 0, 64, 69
1, 95183, Note_off_c, 0, 38, 61
1, 95192, Control_c, 0, 64, 70
1, 95196, Note_off_c, 0, 65, 64
1, 95207, Control_c, 0, 64, 70
1, 95222, Control_c, 0, 67, 49
1, 95226, Note_on_c, 0, 50, 56
1, 95252, Control_c, 0, 64, 70
1, 95252, Control_c, 0, 67, 50
1, 95267, Control_c, 0, 64, 68
1, 95267, Control_c, 0, 67, 50
1, 95276, Note_on_c, 0, 63, 80
1, 95277, Note_off_c, 0, 50, 55
1, 95281, Control_c, 0, 64, 60
1, 95281, Control_c, 0, 67, 51
1, 95292, Note_on_c, 0, 38, 62
1, 95295, Note_on_c, 0, 58, 48
1, 95296, Control_c, 0, 64, 50
1, 95298, Note_on_c, 0, 55, 48
1, 95311, Control_c, 0, 64, 40
1, 95326, Control_c, 0, 64, 34
1, 95326, Control_c, 0, 67, 51
1, 95340, Control_c, 0, 64, 34
1, 95348, Note_off_c, 0, 38, 58
1, 95355, Control_c, 0, 64, 37
1, 95355, Control_c, 0, 67, 52
1, 95371, Control_c, 0, 64, 43
1, 95385, Note_on_c, 0, 50, 57
1, 95386, Control_c, 0, 64, 50
1, 95401, Control_c, 0, 64, 57
1, 95401, Control_c, 0, 67, 52
1, 95416, Control_c, 0, 64, 61
1, 95416, Control_c, 0, 67, 53
1, 95430, Control_c, 0, 64, 63
1, 95430, Control_c, 0, 67, 54
1, 95432, Note_off_c, 0, 50, 58
1, 95435, Note_on_c, 0, 62, 71
1, 95445, Control_c, 0, 64, 63
1, 95445, Control_c, 0, 67, 56
1, 95453, Note_on_c, 0, 38, 63
1, 95460, Note_off_c, 0, 55, 36
1, 95460, Control_c, 0, 64, 64
1, 95460, Control_c, 0, 67, 58
1, 95475, Control_c, 0, 64, 63
1, 95475, Control_c, 0, 67, 63
1, 95479, Note_off_c, 0, 58, 53
1, 95490, Control_c, 0, 64, 62
1, 95490, Control_c, 0, 67, 73
1, 95493, Note_off_c, 0, 38, 63
1, 95504, Control_c, 0, 64, 57
1, 95504, Control_c, 0, 67, 81
1, 95519, Control_c, 0, 64, 46
1, 95519, Control_c, 0, 67, 90
1, 95531, Note_off_c, 0, 62, 59
1, 95532, Note_on_c, 0, 50, 58
1, 95532, Note_off_c, 0, 63, 50
1, 95534, Control_c, 0, 64, 0
1, 95534, Control_c, 0, 67, 95
1, 95549, Control_c, 0, 67, 99
1, 95564, Control_c, 0, 67, 101
1, 95573, Note_off_c, 0, 50, 58
1, 95583, Note_on_c, 0, 58, 59
1, 95584, Note_on_c, 0, 63, 62
1, 95592, Note_on_c, 0, 55, 45
1, 95593, Control_c, 0, 67, 103
1, 95597, Note_on_c, 0, 38, 56
1, 95623, Control_c, 0, 64, 34
1, 95638, Control_c, 0, 64, 40
1, 95650, Note_off_c, 0, 38, 58
1, 95653, Control_c, 0, 64, 45
1, 95668, Control_c, 0, 64, 49
1, 95677, Note_on_c, 0, 50, 60
1, 95683, Control_c, 0, 64, 52
1, 95697, Control_c, 0, 64, 53
1, 95697, Control_c, 0, 67, 101
1, 95728, Note_off_c, 0, 50, 54
1, 95747, Note_off_c, 0, 55, 63
1, 95748, Note_on_c, 0, 61, 71
1, 95749, Note_off_c, 0, 63, 61
1, 95749, Control_c, 0, 64, 53
1, 95759, Note_off_c, 0, 58, 62
1, 95765, Note_on_c, 0, 38, 58
1, 95778, Control_c, 0, 64, 52
1, 95793, Control_c, 0, 64, 51
1, 95808, Control_c, 0, 64, 50
1, 95809, Note_off_c, 0, 38, 61
1, 95823, Control_c, 0, 64, 47
1, 95823, Control_c, 0, 67, 99
1, 95838, Control_c, 0, 64, 45
1, 95850, Note_on_c, 0, 50, 56
1, 95853, Control_c, 0, 64, 43
1, 95868, Control_c, 0, 64, 42
1, 95883, Control_c, 0, 64, 41
1, 95892, Note_off_c, 0, 50, 61
1, 95897, Note_off_c, 0, 61, 60
1, 95897, Control_c, 0, 64, 39
1, 95905, Note_on_c, 0, 62, 69
1, 95910, Note_on_c, 0, 57, 60
1, 95912, Control_c, 0, 64, 37
1, 95924, Note_on_c, 0, 38, 55
1, 95927, Control_c, 0, 64, 34
1, 95930, Note_on_c, 0, 54, 45
1, 95941, Control_c, 0, 64, 0
1, 95968, Note_off_c, 0, 38, 62
1, 95988, Note_off_c, 0, 54, 0
1, 95988, Note_on_c, 0, 54, 20
1, 96003, Note_on_c, 0, 50, 52
1, 96046, Note_off_c, 0, 50, 58
1, 96069, Note_on_c, 0, 38, 56
1, 96109, Note_off_c, 0, 38, 61
1, 96119, Control_c, 0, 64, 33
1, 96134, Control_c, 0, 64, 44
1, 96140, Note_on_c, 0, 50, 58
1, 96148, Control_c, 0, 64, 56
1, 96165, Control_c, 0, 64, 62
1, 96178, Note_off_c, 0, 57, 62
1, 96179, Note_off_c, 0, 54, 59
1, 96180, Control_c, 0, 64, 64
1, 96194, Control_c, 0, 64, 65
1, 96194, Control_c, 0, 67, 97
1, 96196, Note_off_c, 0, 50, 53
1, 96209, Control_c, 0, 64, 65
1, 96217, Note_on_c, 0, 38, 53
1, 96220, Note_off_c, 0, 62, 63
1, 96224, Control_c, 0, 64, 66
1, 96239, Control_c, 0, 64, 66
1, 96253, Control_c, 0, 64, 67
1, 96253, Control_c, 0, 67, 96
1, 96267, Note_off_c, 0, 38, 58
1, 96268, Control_c, 0, 64, 67
1, 96299, Note_on_c, 0, 50, 53
1, 96341, Note_off_c, 0, 50, 61
1, 96342, Control_c, 0, 67, 95
1, 96357, Control_c, 0, 64, 68
1, 96357, Control_c, 0, 67, 94
1, 96366, Note_on_c, 0, 38, 63
1, 96371, Control_c, 0, 64, 68
1, 96371, Control_c, 0, 67, 93
1, 96386, Control_c, 0, 64, 69
1, 96386, Control_c, 0, 67, 92
1, 96401, Control_c, 0, 64, 69
1, 96401, Control_c, 0, 67, 90
1, 96416, Control_c, 0, 64, 70
1, 96416, Control_c, 0, 67, 86
1, 96420, Note_off_c, 0, 38, 60
1, 96431, Control_c, 0, 64, 70
1, 96431, Control_c, 0, 67, 84
1, 96446, Control_c, 0, 67, 83
1, 96446, Note_on_c, 0, 50, 56
1, 96476, Control_c, 0, 67, 84
1, 96498, Control_c, 0, 64, 69
1, 96513, Control_c, 0, 64, 67
1, 96513, Control_c, 0, 67, 84
1, 96514, Note_on_c, 0, 78, 78
1, 96514, Note_off_c, 0, 50, 53
1, 96526, Note_on_c, 0, 72, 54
1, 96527, Control_c, 0, 64, 62
1, 96529, Note_on_c, 0, 69, 51
1, 96542, Control_c, 0, 64, 58
1, 96542, Control_c, 0, 67, 85
1, 96550, Note_on_c, 0, 38, 50
1, 96557, Control_c, 0, 64, 56
1, 96583, Note_off_c, 0, 38, 57
1, 96586, Control_c, 0, 64, 56
1, 96601, Control_c, 0, 64, 57
1, 96615, Note_on_c, 0, 50, 63
1, 96631, Control_c, 0, 64, 57
1, 96646, Control_c, 0, 64, 58
1, 96646, Control_c, 0, 67, 85
1, 96661, Control_c, 0, 64, 59
1, 96664, Note_off_c, 0, 50, 55
1, 96676, Control_c, 0, 64, 60
1, 96683, Note_on_c, 0, 38, 55
1, 96690, Control_c, 0, 64, 61
1, 96705, Control_c, 0, 64, 61
1, 96720, Control_c, 0, 64, 62
1, 96734, Note_off_c, 0, 38, 60
1, 96735, Control_c, 0, 64, 63
1, 96750, Control_c, 0, 64, 64
1, 96762, Note_on_c, 0, 50, 53
1, 96764, Control_c, 0, 64, 65
1, 96779, Control_c, 0, 64, 66
1, 96794, Control_c, 0, 64, 67
1, 96809, Control_c, 0, 64, 67
1, 96814, Note_off_c, 0, 50, 55
1, 96824, Control_c, 0, 64, 68
1, 96839, Control_c, 0, 64, 70
1, 96840, Note_on_c, 0, 38, 58
1, 96853, Control_c, 0, 64, 71
1, 96868, Control_c, 0, 64, 72
1, 96883, Control_c, 0, 64, 73
1, 96883, Control_c, 0, 67, 85
1, 96891, Note_off_c, 0, 38, 59
1, 96898, Control_c, 0, 64, 74
1, 96912, Control_c, 0, 64, 75
1, 96924, Note_on_c, 0, 50, 62
1, 96927, Control_c, 0, 64, 75
1, 96942, Control_c, 0, 64, 76
1, 96957, Control_c, 0, 64, 76
1, 96973, Control_c, 0, 64, 77
1, 96987, Note_off_c, 0, 50, 51
1, 96994, Note_on_c, 0, 74, 84
1, 97002, Control_c, 0, 64, 77
1, 97009, Note_on_c, 0, 38, 64
1, 97017, Control_c, 0, 64, 78
1, 97027, Note_off_c, 0, 72, 64
1, 97032, Control_c, 0, 64, 78
1, 97035, Note_off_c, 0, 69, 43
1, 97047, Control_c, 0, 64, 79
1, 97057, Note_off_c, 0, 38, 57
1, 97062, Control_c, 0, 64, 79
1, 97072, Note_off_c, 0, 78, 62
1, 97076, Control_c, 0, 64, 80
1, 97091, Control_c, 0, 64, 80
1, 97102, Note_on_c, 0, 50, 59
1, 97149, Note_off_c, 0, 50, 59
1, 97150, Control_c, 0, 64, 79
1, 97160, Note_on_c, 0, 79, 88
1, 97165, Control_c, 0, 64, 74
1, 97167, Note_off_c, 0, 74, 55
1, 97168, Note_on_c, 0, 70, 65
1, 97180, Note_on_c, 0, 38, 60
1, 97180, Control_c, 0, 64, 64
1, 97181, Note_on_c, 0, 67, 58
1, 97194, Control_c, 0, 64, 56
1, 97209, Control_c, 0, 64, 53
1, 97224, Note_off_c, 0, 38, 60
1, 97247, Control_c, 0, 64, 54
1, 97257, Note_on_c, 0, 50, 60
1, 97262, Control_c, 0, 64, 56
1, 97276, Control_c, 0, 64, 57
1, 97291, Control_c, 0, 64, 58
1, 97303, Note_off_c, 0, 50, 54
1, 97306, Control_c, 0, 64, 58
1, 97321, Control_c, 0, 64, 59
1, 97327, Note_on_c, 0, 38, 62
1, 97336, Control_c, 0, 64, 60
1, 97350, Control_c, 0, 64, 61
1, 97365, Control_c, 0, 64, 62
1, 97370, Note_off_c, 0, 38, 60
1, 97397, Note_on_c, 0, 50, 55
1, 97409, Control_c, 0, 64, 62
1, 97439, Control_c, 0, 64, 63
1, 97454, Note_off_c, 0, 50, 53
1, 97454, Control_c, 0, 64, 64
1, 97468, Control_c, 0, 64, 64
1, 97482, Note_on_c, 0, 38, 54
1, 97483, Control_c, 0, 64, 65
1, 97513, Control_c, 0, 64, 65
1, 97522, Note_off_c, 0, 38, 62
1, 97528, Control_c, 0, 64, 66
1, 97543, Control_c, 0, 64, 66
1, 97558, Control_c, 0, 64, 67
1, 97558, Note_on_c, 0, 50, 58
1, 97573, Control_c, 0, 64, 68
1, 97588, Control_c, 0, 64, 68
1, 97602, Control_c, 0, 64, 69
1, 97613, Note_off_c, 0, 79, 62
1, 97617, Control_c, 0, 64, 70
1, 97622, Note_off_c, 0, 50, 57
1, 97629, Note_on_c, 0, 38, 55
1, 97632, Control_c, 0, 64, 71
1, 97645, Note_on_c, 0, 77, 70
1, 97647, Control_c, 0, 64, 73
1, 97662, Control_c, 0, 64, 74
1, 97673, Note_off_c, 0, 70, 61
1, 97676, Control_c, 0, 64, 75
1, 97686, Note_off_c, 0, 67, 41
1, 97691, Control_c, 0, 64, 76
1, 97704, Note_off_c, 0, 38, 62
1, 97706, Control_c, 0, 64, 77
1, 97718, Note_off_c, 0, 77, 64
1, 97720, Control_c, 0, 64, 77
1, 97740, Note_on_c, 0, 50, 54
1, 97750, Control_c, 0, 67, 85
1, 97766, Control_c, 0, 67, 86
1, 97781, Control_c, 0, 64, 76
1, 97791, Note_off_c, 0, 50, 46
1, 97793, Note_on_c, 0, 75, 78
1, 97796, Control_c, 0, 64, 70
1, 97796, Control_c, 0, 67, 86
1, 97810, Note_on_c, 0, 38, 61
1, 97811, Control_c, 0, 64, 63
1, 97811, Control_c, 0, 67, 87
1, 97814, Note_on_c, 0, 70, 49
1, 97816, Note_on_c, 0, 67, 44
1, 97825, Control_c, 0, 64, 55
1, 97840, Control_c, 0, 64, 53
1, 97855, Control_c, 0, 64, 54
1, 97862, Note_off_c, 0, 38, 51
1, 97870, Control_c, 0, 64, 57
1, 97884, Control_c, 0, 64, 59
1, 97889, Note_on_c, 0, 50, 56
1, 97899, Control_c, 0, 64, 61
1, 97914, Control_c, 0, 64, 63
1, 97929, Control_c, 0, 64, 65
1, 97938, Note_off_c, 0, 50, 55
1, 97943, Control_c, 0, 64, 66
1, 97955, Note_on_c, 0, 74, 76
1, 97955, Note_off_c, 0, 75, 53
1, 97957, Note_off_c, 0, 67, 37
1, 97958, Control_c, 0, 64, 68
1, 97969, Note_on_c, 0, 38, 57
1, 97973, Control_c, 0, 64, 69
1, 97996, Control_c, 0, 64, 70
1, 97996, Control_c, 0, 67, 88
1, 98007, Note_off_c, 0, 70, 56
1, 98011, Control_c, 0, 64, 70
1, 98011, Control_c, 0, 67, 88
1, 98012, Note_off_c, 0, 38, 65
1, 98025, Control_c, 0, 64, 69
1, 98025, Control_c, 0, 67, 89
1, 98040, Control_c, 0, 64, 66
1, 98040, Control_c, 0, 67, 90
1, 98047, Note_off_c, 0, 74, 61
1, 98052, Note_on_c, 0, 50, 54
1, 98055, Control_c, 0, 64, 60
1, 98055, Control_c, 0, 67, 92
1, 98070, Control_c, 0, 64, 51
1, 98070, Control_c, 0, 67, 93
1, 98085, Control_c, 0, 64, 38
1, 98085, Control_c, 0, 67, 94
1, 98095, Note_off_c, 0, 50, 59
1, 98099, Control_c, 0, 64, 32
1, 98108, Note_on_c, 0, 75, 62
1, 98112, Note_on_c, 0, 70, 54
1, 98114, Control_c, 0, 64, 33
1, 98114, Control_c, 0, 67, 94
1, 98115, Note_on_c, 0, 38, 58
1, 98118, Note_on_c, 0, 67, 48
1, 98129, Control_c, 0, 64, 38
1, 98143, Control_c, 0, 64, 47
1, 98158, Control_c, 0, 64, 55
1, 98173, Control_c, 0, 64, 60
1, 98174, Note_off_c, 0, 38, 57
1, 98188, Control_c, 0, 64, 62
1, 98202, Note_on_c, 0, 50, 54
1, 98203, Control_c, 0, 64, 62
1, 98217, Control_c, 0, 64, 63
1, 98232, Control_c, 0, 64, 63
1, 98247, Control_c, 0, 64, 64
1, 98255, Note_off_c, 0, 50, 55
1, 98257, Note_off_c, 0, 75, 61
1, 98262, Control_c, 0, 64, 65
1, 98265, Note_off_c, 0, 67, 61
1, 98269, Note_on_c, 0, 73, 68
1, 98277, Control_c, 0, 64, 66
1, 98280, Note_off_c, 0, 70, 62
1, 98285, Note_on_c, 0, 38, 62
1, 98306, Control_c, 0, 64, 66
1, 98324, Note_off_c, 0, 38, 62
1, 98336, Control_c, 0, 67, 95
1, 98351, Control_c, 0, 64, 66
1, 98366, Control_c, 0, 64, 64
1, 98376, Note_on_c, 0, 50, 48
1, 98381, Control_c, 0, 64, 60
1, 98395, Control_c, 0, 64, 55
1, 98410, Control_c, 0, 64, 48
1, 98412, Note_off_c, 0, 50, 54
1, 98425, Control_c, 0, 64, 44
1, 98425, Note_on_c, 0, 74, 62
1, 98429, Note_on_c, 0, 69, 53
1, 98438, Note_on_c, 0, 66, 46
1, 98440, Control_c, 0, 64, 41
1, 98442, Note_on_c, 0, 38, 61
1, 98455, Control_c, 0, 64, 41
1, 98456, Note_off_c, 0, 73, 37
1, 98470, Control_c, 0, 64, 40
1, 98484, Control_c, 0, 64, 40
1, 98484, Control_c, 0, 67, 95
1, 98485, Note_off_c, 0, 38, 64
1, 98514, Control_c, 0, 67, 96
1, 98521, Note_on_c, 0, 50, 49
1, 98529, Control_c, 0, 67, 98
1, 98543, Control_c, 0, 67, 101
1, 98558, Control_c, 0, 67, 104
1, 98569, Note_off_c, 0, 50, 56
1, 98574, Control_c, 0, 64, 40
1, 98574, Control_c, 0, 67, 107
1, 98589, Control_c, 0, 64, 41
1, 98589, Control_c, 0, 67, 109
1, 98591, Note_on_c, 0, 38, 59
1, 98604, Control_c, 0, 64, 41
1, 98604, Control_c, 0, 67, 112
1, 98619, Control_c, 0, 64, 42
1, 98619, Control_c, 0, 67, 115
1, 98633, Control_c, 0, 64, 45
1, 98633, Control_c, 0, 67, 118
1, 98634, Note_off_c, 0, 38, 61
1, 98648, Control_c, 0, 64, 48
1, 98648, Control_c, 0, 67, 123
1, 98663, Control_c, 0, 64, 52
1, 98663, Control_c, 0, 67, 126
1, 98671, Note_on_c, 0, 50, 54
1, 98678, Control_c, 0, 64, 56
1, 98693, Control_c, 0, 64, 59
1, 98707, Control_c, 0, 64, 60
1, 98711, Note_off_c, 0, 50, 60
1, 98722, Control_c, 0, 64, 61
1, 98744, Control_c, 0, 64, 62
1, 98748, Note_on_c, 0, 38, 54
1, 98759, Control_c, 0, 64, 62
1, 98774, Control_c, 0, 64, 64
1, 98789, Control_c, 0, 64, 65
1, 98799, Note_off_c, 0, 38, 58
1, 98804, Control_c, 0, 64, 65
1, 98819, Control_c, 0, 64, 66
1, 98832, Note_on_c, 0, 50, 46
1, 98834, Control_c, 0, 64, 66
1, 98848, Control_c, 0, 64, 67
1, 98878, Control_c, 0, 64, 67
1, 98878, Note_off_c, 0, 69, 54
1, 98883, Note_off_c, 0, 50, 59
1, 98893, Control_c, 0, 64, 68
1, 98908, Control_c, 0, 64, 68
1, 98911, Note_on_c, 0, 38, 55
1, 98920, Note_off_c, 0, 66, 54
1, 98922, Control_c, 0, 64, 69
1, 98937, Control_c, 0, 64, 69
1, 98958, Note_off_c, 0, 38, 60
1, 99001, Note_on_c, 0, 50, 48
1, 99026, Control_c, 0, 64, 68
1, 99034, Note_off_c, 0, 74, 48
1, 99041, Control_c, 0, 64, 65
1, 99053, Note_off_c, 0, 50, 46
1, 99055, Control_c, 0, 64, 61
1, 99070, Control_c, 0, 64, 55
1, 99082, Note_on_c, 0, 76, 59
1, 99083, Note_on_c, 0, 38, 50
1, 99085, Control_c, 0, 64, 51
1, 99092, Note_on_c, 0, 70, 45
1, 99100, Control_c, 0, 64, 50
1, 99104, Note_on_c, 0, 67, 33
1, 99114, Control_c, 0, 64, 51
1, 99129, Control_c, 0, 64, 53
1, 99135, Note_off_c, 0, 38, 60
1, 99144, Control_c, 0, 64, 57
1, 99159, Control_c, 0, 64, 60
1, 99171, Note_on_c, 0, 50, 48
1, 99174, Control_c, 0, 64, 62
1, 99188, Control_c, 0, 64, 63
1, 99203, Control_c, 0, 64, 64
1, 99218, Control_c, 0, 64, 65
1, 99227, Note_off_c, 0, 50, 56
1, 99233, Control_c, 0, 64, 66
1, 99245, Note_on_c, 0, 38, 55
1, 99248, Control_c, 0, 64, 67
1, 99254, Note_on_c, 0, 74, 70
1, 99260, Note_off_c, 0, 76, 55
1, 99263, Control_c, 0, 64, 69
1, 99278, Control_c, 0, 64, 70
1, 99292, Control_c, 0, 64, 71
1, 99296, Note_off_c, 0, 38, 62
1, 99297, Note_off_c, 0, 70, 56
1, 99300, Note_off_c, 0, 67, 44
1, 99307, Control_c, 0, 64, 72
1, 99322, Control_c, 0, 64, 71
1, 99337, Control_c, 0, 64, 70
1, 99343, Note_on_c, 0, 50, 48
1, 99352, Control_c, 0, 64, 65
1, 99367, Control_c, 0, 64, 58
1, 99382, Control_c, 0, 64, 53
1, 99392, Note_off_c, 0, 74, 35
1, 99394, Note_off_c, 0, 50, 56
1, 99397, Control_c, 0, 64, 52
1, 99410, Note_on_c, 0, 38, 58
1, 99412, Note_on_c, 0, 67, 46
1, 99412, Note_on_c, 0, 76, 62
1, 99412, Control_c, 0, 64, 53
1, 99414, Note_on_c, 0, 70, 57
1, 99427, Control_c, 0, 64, 57
1, 99442, Control_c, 0, 64, 60
1, 99456, Control_c, 0, 64, 62
1, 99461, Note_off_c, 0, 38, 58
1, 99471, Control_c, 0, 64, 63
1, 99494, Control_c, 0, 64, 64
1, 99507, Note_on_c, 0, 50, 50
1, 99509, Control_c, 0, 64, 65
1, 99524, Control_c, 0, 64, 65
1, 99539, Control_c, 0, 64, 66
1, 99551, Note_off_c, 0, 76, 62
1, 99553, Note_off_c, 0, 50, 58
1, 99553, Control_c, 0, 64, 66
1, 99561, Note_off_c, 0, 67, 59
1, 99568, Control_c, 0, 64, 67
1, 99573, Note_on_c, 0, 73, 67
1, 99579, Note_on_c, 0, 38, 60
1, 99582, Note_off_c, 0, 70, 55
1, 99583, Control_c, 0, 64, 68
1, 99597, Control_c, 0, 64, 68
1, 99619, Note_off_c, 0, 38, 62
1, 99642, Control_c, 0, 64, 68
1, 99657, Control_c, 0, 64, 66
1, 99660, Note_on_c, 0, 50, 51
1, 99671, Control_c, 0, 64, 62
1, 99686, Control_c, 0, 64, 55
1, 99701, Control_c, 0, 64, 48
1, 99711, Note_off_c, 0, 50, 55
1, 99716, Control_c, 0, 64, 43
1, 99731, Control_c, 0, 64, 42
1, 99734, Note_on_c, 0, 74, 61
1, 99736, Note_on_c, 0, 38, 51
1, 99746, Note_on_c, 0, 66, 44
1, 99756, Note_on_c, 0, 69, 55
1, 99766, Note_off_c, 0, 73, 37
1, 99786, Note_off_c, 0, 38, 60
1, 99799, Note_off_c, 0, 66, 0
1, 99799, Note_on_c, 0, 66, 7
1, 99820, Control_c, 0, 64, 43
1, 99825, Note_on_c, 0, 50, 55
1, 99835, Control_c, 0, 64, 43
1, 99850, Control_c, 0, 64, 44
1, 99864, Control_c, 0, 64, 45
1, 99866, Note_off_c, 0, 50, 59
1, 99879, Control_c, 0, 64, 45
1, 99891, Note_on_c, 0, 38, 57
1, 99894, Control_c, 0, 64, 46
1, 99908, Control_c, 0, 64, 46
1, 99923, Control_c, 0, 64, 48
1, 99937, Note_off_c, 0, 38, 60
1, 99938, Control_c, 0, 64, 50
1, 99953, Control_c, 0, 64, 53
1, 99964, Note_on_c, 0, 50, 55
1, 99968, Control_c, 0, 64, 56
1, 99983, Control_c, 0, 64, 58
1, 99997, Control_c, 0, 64, 59
1, 100011, Note_off_c, 0, 50, 58
1, 100012, Control_c, 0, 64, 60
1, 100027, Control_c, 0, 64, 61
1, 100039, Note_on_c, 0, 38, 57
1, 100042, Control_c, 0, 64, 62
1, 100056, Control_c, 0, 64, 63
1, 100071, Control_c, 0, 64, 64
1, 100091, Note_off_c, 0, 38, 57
1, 100101, Control_c, 0, 64, 64
1, 100129, Note_on_c, 0, 50, 52
1, 100161, Control_c, 0, 64, 65
1, 100172, Note_off_c, 0, 50, 57
1, 100176, Control_c, 0, 64, 65
1, 100183, Note_off_c, 0, 69, 56
1, 100191, Control_c, 0, 64, 66
1, 100206, Note_on_c, 0, 38, 55
1, 100218, Note_off_c, 0, 66, 53
1, 100220, Control_c, 0, 64, 66
1, 100243, Control_c, 0, 64, 67
1, 100265, Note_off_c, 0, 38, 59
1, 100302, Note_on_c, 0, 50, 50
1, 100319, Note_off_c, 0, 74, 55
1, 100346, Control_c, 0, 64, 65
1, 100351, Note_off_c, 0, 50, 56
1, 100361, Control_c, 0, 64, 60
1, 100376, Control_c, 0, 64, 54
1, 100387, Note_on_c, 0, 38, 49
1, 100388, Note_on_c, 0, 75, 61
1, 100391, Control_c, 0, 64, 48
1, 100399, Note_on_c, 0, 70, 47
1, 100406, Control_c, 0, 64, 46
1, 100415, Note_on_c, 0, 67, 33
1, 100435, Control_c, 0, 64, 48
1, 100450, Control_c, 0, 64, 52
1, 100455, Note_off_c, 0, 38, 56
1, 100465, Control_c, 0, 64, 58
1, 100480, Control_c, 0, 64, 61
1, 100492, Note_on_c, 0, 50, 46
1, 100494, Control_c, 0, 64, 63
1, 100509, Control_c, 0, 64, 63
1, 100524, Control_c, 0, 64, 64
1, 100539, Control_c, 0, 64, 65
1, 100542, Note_off_c, 0, 50, 54
1, 100554, Control_c, 0, 64, 66
1, 100562, Note_on_c, 0, 74, 66
1, 100564, Note_on_c, 0, 38, 57
1, 100569, Control_c, 0, 64, 68
1, 100573, Note_off_c, 0, 75, 55
1, 100580, Note_off_c, 0, 67, 44
1, 100583, Control_c, 0, 64, 69
1, 100598, Control_c, 0, 64, 71
1, 100601, Note_off_c, 0, 70, 58
1, 100613, Control_c, 0, 64, 71
1, 100620, Note_off_c, 0, 38, 57
1, 100628, Control_c, 0, 64, 72
1, 100643, Control_c, 0, 64, 71
1, 100655, Note_on_c, 0, 50, 56
1, 100658, Control_c, 0, 64, 70
1, 100673, Control_c, 0, 64, 67
1, 100687, Control_c, 0, 64, 59
1, 100702, Control_c, 0, 64, 47
1, 100715, Note_off_c, 0, 74, 30
1, 100717, Control_c, 0, 64, 0
1, 100727, Note_off_c, 0, 50, 55
1, 100736, Note_on_c, 0, 75, 54
1, 100738, Note_on_c, 0, 70, 44
1, 100742, Note_on_c, 0, 38, 61
1, 100746, Note_on_c, 0, 67, 46
1, 100776, Control_c, 0, 64, 36
1, 100791, Control_c, 0, 64, 49
1, 100803, Note_off_c, 0, 38, 56
1, 100805, Control_c, 0, 64, 59
1, 100820, Control_c, 0, 64, 63
1, 100835, Control_c, 0, 64, 64
1, 100835, Control_c, 0, 67, 123
1, 100837, Note_on_c, 0, 50, 57
1, 100850, Control_c, 0, 67, 121
1, 100864, Control_c, 0, 64, 65
1, 100864, Control_c, 0, 67, 117
1, 100879, Control_c, 0, 64, 66
1, 100879, Control_c, 0, 67, 109
1, 100889, Note_off_c, 0, 50, 56
1, 100894, Control_c, 0, 64, 66
1, 100894, Control_c, 0, 67, 96
1, 100909, Note_off_c, 0, 75, 55
1, 100909, Control_c, 0, 64, 67
1, 100909, Control_c, 0, 67, 86
1, 100924, Control_c, 0, 64, 67
1, 100924, Control_c, 0, 67, 77
1, 100929, Note_on_c, 0, 38, 56
1, 100932, Note_off_c, 0, 67, 52
1, 100935, Note_on_c, 0, 73, 61
1, 100938, Control_c, 0, 64, 68
1, 100938, Control_c, 0, 67, 69
1, 100953, Control_c, 0, 64, 68
1, 100953, Control_c, 0, 67, 60
1, 100967, Note_off_c, 0, 70, 48
1, 100969, Control_c, 0, 67, 49
1, 100991, Control_c, 0, 64, 69
1, 100991, Control_c, 0, 67, 39
1, 101006, Control_c, 0, 67, 30
1, 101013, Note_off_c, 0, 38, 54
1, 101021, Control_c, 0, 64, 69
1, 101021, Control_c, 0, 67, 24
1, 101035, Control_c, 0, 67, 22
1, 101039, Note_on_c, 0, 50, 56
1, 101050, Control_c, 0, 64, 70
1, 101065, Control_c, 0, 64, 70
1, 101080, Control_c, 0, 64, 71
1, 101095, Control_c, 0, 64, 72
1, 101106, Note_off_c, 0, 50, 62
1, 101109, Note_off_c, 0, 73, 62
1, 101110, Control_c, 0, 64, 72
1, 101110, Control_c, 0, 67, 19
1, 101124, Control_c, 0, 64, 72
1, 101139, Note_on_c, 0, 74, 94
1, 101139, Control_c, 0, 64, 67
1, 101139, Control_c, 0, 67, 0
1, 101141, Note_on_c, 0, 38, 102
1, 101145, Note_on_c, 0, 66, 88
1, 101146, Note_on_c, 0, 69, 88
1, 101154, Control_c, 0, 64, 51
1, 101168, Control_c, 0, 64, 0
1, 101257, Control_c, 0, 64, 40
1, 101272, Control_c, 0, 64, 67
1, 101287, Control_c, 0, 64, 73
1, 101292, Note_off_c, 0, 69, 50
1, 101300, Note_off_c, 0, 66, 54
1, 101302, Control_c, 0, 64, 75
1, 101332, Control_c, 0, 64, 76
1, 101347, Control_c, 0, 64, 78
1, 101361, Control_c, 0, 64, 79
1, 101364, Note_off_c, 0, 74, 54
1, 101376, Control_c, 0, 64, 80
1, 101543, Note_off_c, 0, 38, 60
1, 101583, Control_c, 0, 64, 79
1, 101598, Control_c, 0, 64, 72
1, 101613, Control_c, 0, 64, 54
1, 101627, Control_c, 0, 64, 0
1, 101632, Note_on_c, 0, 40, 91
1, 101680, Note_off_c, 0, 40, 65
1, 101806, Note_on_c, 0, 50, 99
1, 101807, Note_on_c, 0, 42, 97
1, 101888, Control_c, 0, 64, 65
1, 101903, Control_c, 0, 64, 81
1, 101917, Control_c, 0, 64, 90
1, 101932, Control_c, 0, 64, 94
1, 101947, Control_c, 0, 64, 95
1, 101962, Control_c, 0, 64, 96
1, 102080, Note_off_c, 0, 50, 57
1, 102080, Control_c, 0, 64, 95
1, 102095, Note_off_c, 0, 42, 63
1, 102244, Control_c, 0, 64, 95
1, 102258, Control_c, 0, 64, 82
1, 102273, Control_c, 0, 64, 62
1, 102282, Note_on_c, 0, 52, 94
1, 102288, Note_on_c, 0, 43, 86
1, 102288, Control_c, 0, 64, 0
1, 102315, Note_off_c, 0, 43, 66
1, 102319, Note_off_c, 0, 52, 63
1, 102459, Note_on_c, 0, 45, 78
1, 102463, Note_on_c, 0, 48, 91
1, 102463, Note_on_c, 0, 54, 103
1, 102518, Control_c, 0, 64, 60
1, 102533, Control_c, 0, 64, 76
1, 102538, Note_off_c, 0, 54, 65
1, 102542, Note_off_c, 0, 45, 64
1, 102545, Note_off_c, 0, 48, 64
1, 102548, Control_c, 0, 64, 83
1, 102563, Control_c, 0, 64, 86
1, 102578, Control_c, 0, 64, 87
1, 102593, Control_c, 0, 64, 88
1, 102622, Control_c, 0, 64, 88
1, 102697, Control_c, 0, 64, 88
1, 102727, Control_c, 0, 64, 87
1, 102741, Control_c, 0, 64, 87
1, 102785, Note_on_c, 0, 75, 90
1, 102830, Control_c, 0, 64, 84
1, 102832, Note_off_c, 0, 75, 64
1, 102845, Control_c, 0, 64, 73
1, 102860, Control_c, 0, 64, 49
1, 102875, Control_c, 0, 64, 0
1, 102912, Note_on_c, 0, 50, 79
1, 102923, Note_on_c, 0, 55, 83
1, 102926, Note_on_c, 0, 74, 93
1, 102955, Note_off_c, 0, 50, 65
1, 102966, Note_off_c, 0, 74, 64
1, 102971, Note_off_c, 0, 55, 61
1, 103073, Note_on_c, 0, 72, 88
1, 103078, Note_on_c, 0, 57, 70
1, 103102, Note_off_c, 0, 57, 69
1, 103110, Note_off_c, 0, 72, 65
1, 103114, Note_on_c, 0, 55, 26
1, 103152, Note_off_c, 0, 55, 33
1, 103211, Note_on_c, 0, 70, 90
1, 103218, Note_on_c, 0, 58, 73
1, 103221, Note_on_c, 0, 55, 82
1, 103253, Note_off_c, 0, 58, 65
1, 103260, Note_off_c, 0, 70, 67
1, 103266, Note_off_c, 0, 55, 61
1, 103359, Note_on_c, 0, 69, 98
1, 103362, Note_on_c, 0, 60, 92
1, 103375, Note_on_c, 0, 57, 86
1, 103396, Note_off_c, 0, 69, 68
1, 103400, Note_off_c, 0, 60, 65
1, 103410, Note_off_c, 0, 57, 63
1, 103501, Note_on_c, 0, 67, 98
1, 103508, Note_on_c, 0, 58, 95
1, 103510, Note_on_c, 0, 62, 89
1, 103543, Note_off_c, 0, 62, 66
1, 103545, Note_off_c, 0, 67, 67
1, 103559, Note_off_c, 0, 58, 63
1, 103668, Control_c, 0, 64, 54
1, 103674, Note_on_c, 0, 60, 99
1, 103674, Note_on_c, 0, 66, 107
1, 103678, Note_on_c, 0, 63, 94
1, 103682, Control_c, 0, 64, 69
1, 103697, Control_c, 0, 64, 72
1, 103712, Control_c, 0, 64, 74
1, 103715, Note_off_c, 0, 63, 66
1, 103716, Note_off_c, 0, 60, 69
1, 103716, Note_off_c, 0, 66, 67
1, 103801, Control_c, 0, 64, 74
1, 103816, Control_c, 0, 64, 75
1, 103830, Control_c, 0, 64, 77
1, 103845, Control_c, 0, 64, 79
1, 103860, Control_c, 0, 64, 81
1, 103875, Control_c, 0, 64, 81
1, 103934, Control_c, 0, 64, 79
1, 103949, Control_c, 0, 64, 70
1, 103964, Control_c, 0, 64, 55
1, 103973, Note_on_c, 0, 81, 68
1, 103985, Control_c, 0, 64, 0
1, 104009, Note_off_c, 0, 81, 63
1, 104039, Note_on_c, 0, 80, 76
1, 104074, Control_c, 0, 64, 39
1, 104088, Control_c, 0, 64, 51
1, 104102, Note_on_c, 0, 81, 70
1, 104103, Control_c, 0, 64, 60
1, 104109, Note_off_c, 0, 80, 59
1, 104118, Control_c, 0, 64, 64
1, 104133, Control_c, 0, 64, 66
1, 104148, Control_c, 0, 64, 67
1, 104149, Note_off_c, 0, 81, 64
1, 104152, Note_on_c, 0, 78, 75
1, 104164, Control_c, 0, 64, 68
1, 104178, Control_c, 0, 64, 68
1, 104186, Note_off_c, 0, 78, 65
1, 104208, Control_c, 0, 64, 66
1, 104223, Control_c, 0, 64, 59
1, 104229, Note_on_c, 0, 84, 87
1, 104238, Control_c, 0, 64, 38
1, 104253, Control_c, 0, 64, 0
1, 104288, Note_off_c, 0, 84, 66
1, 104292, Note_on_c, 0, 83, 80
1, 104326, Control_c, 0, 64, 33
1, 104341, Control_c, 0, 64, 50
1, 104356, Control_c, 0, 64, 60
1, 104362, Note_on_c, 0, 84, 83
1, 104368, Note_off_c, 0, 83, 65
1, 104371, Control_c, 0, 64, 65
1, 104385, Control_c, 0, 64, 67
1, 104400, Control_c, 0, 64, 67
1, 104414, Note_on_c, 0, 81, 80
1, 104417, Note_off_c, 0, 84, 67
1, 104445, Control_c, 0, 64, 66
1, 104459, Control_c, 0, 64, 62
1, 104471, Note_off_c, 0, 81, 64
1, 104474, Control_c, 0, 64, 56
1, 104486, Note_on_c, 0, 87, 90
1, 104489, Control_c, 0, 64, 53
1, 104489, Control_c, 0, 67, 17
1, 104503, Control_c, 0, 64, 53
1, 104533, Control_c, 0, 64, 52
1, 104533, Control_c, 0, 67, 20
1, 104548, Control_c, 0, 64, 49
1, 104549, Note_on_c, 0, 86, 87
1, 104563, Control_c, 0, 64, 46
1, 104565, Note_off_c, 0, 87, 61
1, 104578, Control_c, 0, 64, 42
1, 104593, Control_c, 0, 64, 38
1, 104593, Control_c, 0, 67, 22
1, 104608, Control_c, 0, 64, 33
1, 104615, Note_off_c, 0, 86, 64
1, 104616, Note_on_c, 0, 84, 82
1, 104623, Control_c, 0, 64, 0
1, 104678, Note_off_c, 0, 84, 66
1, 104679, Note_on_c, 0, 82, 81
1, 104696, Control_c, 0, 67, 20
1, 104748, Note_off_c, 0, 82, 65
1, 104756, Note_on_c, 0, 81, 72
1, 104807, Note_off_c, 0, 81, 62
1, 104818, Note_on_c, 0, 82, 70
1, 104864, Note_off_c, 0, 82, 66
1, 104882, Note_on_c, 0, 84, 71
1, 104897, Control_c, 0, 64, 33
1, 104897, Control_c, 0, 67, 18
1, 104912, Control_c, 0, 64, 35
1, 104927, Control_c, 0, 64, 37
1, 104942, Control_c, 0, 64, 38
1, 104948, Note_on_c, 0, 82, 79
1, 104957, Control_c, 0, 64, 40
1, 104970, Note_off_c, 0, 84, 64
1, 104972, Control_c, 0, 64, 42
1, 104987, Control_c, 0, 64, 44
1, 105002, Control_c, 0, 64, 45
1, 105012, Note_on_c, 0, 81, 80
1, 105044, Note_off_c, 0, 82, 64
1, 105046, Control_c, 0, 67, 0
1, 105061, Control_c, 0, 64, 45
1, 105073, Note_on_c, 0, 79, 82
1, 105075, Note_off_c, 0, 81, 64
1, 105076, Control_c, 0, 64, 46
1, 105135, Note_off_c, 0, 79, 62
1, 105144, Note_on_c, 0, 78, 85
1, 105198, Note_on_c, 0, 79, 79
1, 105207, Note_off_c, 0, 78, 64
1, 105278, Note_on_c, 0, 81, 82
1, 105279, Note_off_c, 0, 79, 67
1, 105327, Control_c, 0, 64, 46
1, 105354, Note_on_c, 0, 79, 81
1, 105357, Control_c, 0, 64, 47
1, 105372, Control_c, 0, 64, 48
1, 105380, Note_off_c, 0, 81, 64
1, 105387, Control_c, 0, 64, 49
1, 105401, Control_c, 0, 64, 50
1, 105403, Note_on_c, 0, 78, 87
1, 105416, Control_c, 0, 64, 51
1, 105425, Note_off_c, 0, 79, 67
1, 105431, Control_c, 0, 64, 52
1, 105445, Control_c, 0, 64, 53
1, 105460, Control_c, 0, 64, 54
1, 105483, Control_c, 0, 64, 54
1, 105488, Note_on_c, 0, 75, 92
1, 105494, Note_off_c, 0, 78, 64
1, 105555, Note_off_c, 0, 75, 62
1, 105557, Control_c, 0, 64, 54
1, 105562, Note_on_c, 0, 74, 86
1, 105587, Control_c, 0, 64, 53
1, 105602, Control_c, 0, 64, 52
1, 105611, Note_off_c, 0, 74, 67
1, 105616, Control_c, 0, 64, 52
1, 105630, Note_on_c, 0, 72, 80
1, 105631, Control_c, 0, 64, 51
1, 105646, Control_c, 0, 64, 51
1, 105660, Control_c, 0, 64, 50
1, 105675, Control_c, 0, 64, 50
1, 105679, Note_on_c, 0, 71, 80
1, 105684, Note_off_c, 0, 72, 64
1, 105690, Control_c, 0, 64, 50
1, 105720, Control_c, 0, 64, 51
1, 105734, Control_c, 0, 64, 53
1, 105746, Note_on_c, 0, 72, 98
1, 105749, Control_c, 0, 64, 54
1, 105759, Note_off_c, 0, 71, 66
1, 105765, Control_c, 0, 64, 55
1, 105780, Control_c, 0, 64, 56
1, 105795, Control_c, 0, 64, 55
1, 105810, Control_c, 0, 64, 52
1, 105811, Note_off_c, 0, 72, 67
1, 105815, Note_on_c, 0, 71, 99
1, 105816, Note_on_c, 0, 43, 98
1, 105824, Control_c, 0, 64, 34
1, 105839, Control_c, 0, 64, 0
1, 105958, Control_c, 0, 64, 40
1, 105973, Control_c, 0, 64, 64
1, 105988, Control_c, 0, 64, 68
1, 106003, Control_c, 0, 64, 71
1, 106032, Control_c, 0, 64, 71
1, 106062, Control_c, 0, 64, 72
1, 106122, Note_off_c, 0, 71, 47
1, 106195, Control_c, 0, 64, 72
1, 106209, Note_off_c, 0, 43, 59
1, 106209, Control_c, 0, 64, 73
1, 106247, Control_c, 0, 64, 73
1, 106276, Control_c, 0, 64, 73
1, 106291, Control_c, 0, 64, 66
1, 106306, Control_c, 0, 64, 51
1, 106312, Note_on_c, 0, 45, 95
1, 106321, Control_c, 0, 64, 0
1, 106367, Note_off_c, 0, 45, 65
1, 106480, Note_on_c, 0, 55, 99
1, 106482, Note_on_c, 0, 47, 92
1, 106574, Control_c, 0, 64, 36
1, 106588, Control_c, 0, 64, 63
1, 106603, Control_c, 0, 64, 69
1, 106618, Control_c, 0, 64, 72
1, 106633, Control_c, 0, 64, 73
1, 106647, Control_c, 0, 64, 74
1, 106662, Control_c, 0, 64, 75
1, 106677, Control_c, 0, 64, 75
1, 106821, Note_off_c, 0, 47, 64
1, 106828, Note_off_c, 0, 55, 60
1, 106870, Control_c, 0, 64, 76
1, 106914, Control_c, 0, 64, 74
1, 106929, Control_c, 0, 64, 60
1, 106944, Control_c, 0, 64, 0
1, 106954, Note_on_c, 0, 57, 98
1, 106959, Note_on_c, 0, 48, 91
1, 106997, Note_off_c, 0, 48, 64
1, 106998, Note_off_c, 0, 57, 66
1, 107133, Note_on_c, 0, 59, 97
1, 107135, Note_on_c, 0, 53, 90
1, 107138, Note_on_c, 0, 50, 91
1, 107218, Control_c, 0, 64, 65
1, 107232, Control_c, 0, 64, 75
1, 107247, Control_c, 0, 64, 79
1, 107262, Control_c, 0, 64, 80
1, 107277, Control_c, 0, 64, 80
1, 107292, Control_c, 0, 64, 81
1, 107305, Note_off_c, 0, 53, 62
1, 107321, Control_c, 0, 64, 82
1, 107322, Note_off_c, 0, 50, 62
1, 107333, Note_off_c, 0, 59, 59
1, 107367, Control_c, 0, 64, 81
1, 107411, Control_c, 0, 64, 81
1, 107426, Control_c, 0, 64, 80
1, 107441, Control_c, 0, 64, 79
1, 107442, Note_on_c, 0, 80, 94
1, 107455, Control_c, 0, 64, 79
1, 107493, Note_off_c, 0, 80, 66
1, 107544, Control_c, 0, 64, 77
1, 107559, Control_c, 0, 64, 68
1, 107574, Control_c, 0, 64, 49
1, 107581, Note_on_c, 0, 55, 70
1, 107586, Note_on_c, 0, 60, 78
1, 107586, Note_on_c, 0, 79, 95
1, 107589, Control_c, 0, 64, 0
1, 107595, Note_on_c, 0, 51, 49
1, 107603, Note_on_c, 0, 54, 51
1, 107615, Note_off_c, 0, 55, 63
1, 107617, Note_off_c, 0, 54, 41
1, 107622, Note_off_c, 0, 60, 66
1, 107625, Note_off_c, 0, 51, 55
1, 107628, Note_off_c, 0, 79, 65
1, 107736, Note_on_c, 0, 62, 82
1, 107738, Note_on_c, 0, 59, 72
1, 107739, Note_on_c, 0, 77, 88
1, 107764, Note_off_c, 0, 62, 64
1, 107765, Note_off_c, 0, 59, 66
1, 107779, Note_off_c, 0, 77, 65
1, 107878, Note_on_c, 0, 75, 89
1, 107882, Note_on_c, 0, 63, 85
1, 107884, Note_on_c, 0, 60, 80
1, 107923, Note_off_c, 0, 60, 65
1, 107923, Note_off_c, 0, 63, 64
1, 107924, Note_off_c, 0, 75, 63
1, 108018, Note_on_c, 0, 65, 97
1, 108018, Note_on_c, 0, 74, 99
1, 108030, Note_on_c, 0, 62, 85
1, 108054, Note_off_c, 0, 65, 68
1, 108058, Note_off_c, 0, 74, 64
1, 108066, Note_off_c, 0, 62, 65
1, 108159, Note_on_c, 0, 72, 95
1, 108164, Note_on_c, 0, 63, 90
1, 108164, Note_on_c, 0, 67, 88
1, 108203, Note_off_c, 0, 67, 65
1, 108208, Note_off_c, 0, 72, 66
1, 108227, Note_off_c, 0, 63, 59
1, 108323, Control_c, 0, 64, 33
1, 108327, Note_on_c, 0, 65, 96
1, 108330, Note_on_c, 0, 71, 98
1, 108332, Note_on_c, 0, 68, 90
1, 108338, Control_c, 0, 64, 63
1, 108352, Control_c, 0, 64, 72
1, 108367, Control_c, 0, 64, 77
1, 108370, Note_off_c, 0, 68, 68
1, 108376, Note_off_c, 0, 65, 67
1, 108382, Control_c, 0, 64, 80
1, 108393, Note_off_c, 0, 71, 67
1, 108397, Control_c, 0, 64, 80
1, 108567, Control_c, 0, 64, 80
1, 108582, Control_c, 0, 64, 79
1, 108596, Control_c, 0, 64, 76
1, 108611, Control_c, 0, 64, 68
1, 108626, Control_c, 0, 64, 55
1, 108641, Control_c, 0, 64, 42
1, 108642, Note_on_c, 0, 74, 65
1, 108656, Control_c, 0, 64, 0
1, 108689, Note_off_c, 0, 74, 61
1, 108709, Note_on_c, 0, 73, 65
1, 108770, Note_off_c, 0, 73, 59
1, 108781, Note_on_c, 0, 74, 71
1, 108814, Note_off_c, 0, 74, 61
1, 108826, Note_on_c, 0, 71, 73
1, 108879, Note_off_c, 0, 71, 65
1, 108891, Note_on_c, 0, 77, 86
1, 108950, Note_on_c, 0, 76, 83
1, 108951, Note_off_c, 0, 77, 65
1, 109021, Note_on_c, 0, 77, 86
1, 109037, Note_off_c, 0, 76, 63
1, 109079, Note_off_c, 0, 77, 65
1, 109084, Note_on_c, 0, 74, 81
1, 109136, Note_off_c, 0, 74, 64
1, 109145, Note_on_c, 0, 80, 92
1, 109205, Control_c, 0, 64, 32
1, 109205, Control_c, 0, 67, 18
1, 109224, Note_on_c, 0, 79, 85
1, 109227, Control_c, 0, 64, 32
1, 109227, Control_c, 0, 67, 21
1, 109230, Note_off_c, 0, 80, 62
1, 109242, Control_c, 0, 67, 23
1, 109257, Control_c, 0, 64, 33
1, 109272, Control_c, 0, 67, 25
1, 109283, Note_off_c, 0, 79, 66
1, 109285, Note_on_c, 0, 77, 83
1, 109287, Control_c, 0, 67, 27
1, 109316, Control_c, 0, 67, 30
1, 109331, Control_c, 0, 64, 32
1, 109346, Control_c, 0, 64, 0
1, 109352, Note_off_c, 0, 77, 61
1, 109355, Note_on_c, 0, 75, 74
1, 109390, Control_c, 0, 67, 32
1, 109405, Control_c, 0, 67, 33
1, 109419, Note_off_c, 0, 75, 63
1, 109420, Control_c, 0, 67, 35
1, 109422, Note_on_c, 0, 74, 66
1, 109434, Control_c, 0, 67, 36
1, 109449, Control_c, 0, 67, 37
1, 109476, Note_off_c, 0, 74, 62
1, 109479, Control_c, 0, 67, 37
1, 109484, Note_on_c, 0, 75, 70
1, 109535, Note_off_c, 0, 75, 64
1, 109553, Note_on_c, 0, 77, 73
1, 109553, Control_c, 0, 64, 32
1, 109553, Control_c, 0, 67, 37
1, 109568, Control_c, 0, 64, 34
1, 109568, Control_c, 0, 67, 36
1, 109583, Control_c, 0, 64, 36
1, 109598, Control_c, 0, 64, 39
1, 109613, Control_c, 0, 64, 44
1, 109613, Control_c, 0, 67, 36
1, 109619, Note_on_c, 0, 75, 72
1, 109627, Control_c, 0, 64, 48
1, 109627, Control_c, 0, 67, 35
1, 109638, Note_off_c, 0, 77, 61
1, 109642, Control_c, 0, 64, 50
1, 109642, Control_c, 0, 67, 34
1, 109657, Control_c, 0, 64, 51
1, 109657, Control_c, 0, 67, 34
1, 109672, Control_c, 0, 67, 33
1, 109684, Note_on_c, 0, 74, 82
1, 109687, Control_c, 0, 67, 32
1, 109713, Note_off_c, 0, 75, 63
1, 109716, Control_c, 0, 67, 29
1, 109731, Control_c, 0, 67, 26
1, 109738, Note_off_c, 0, 74, 64
1, 109745, Note_on_c, 0, 72, 77
1, 109747, Control_c, 0, 67, 20
1, 109762, Control_c, 0, 64, 50
1, 109762, Control_c, 0, 67, 0
1, 109792, Note_off_c, 0, 72, 67
1, 109812, Note_on_c, 0, 71, 82
1, 109850, Control_c, 0, 64, 50
1, 109872, Note_on_c, 0, 72, 83
1, 109878, Note_off_c, 0, 71, 64
1, 109939, Control_c, 0, 64, 49
1, 109941, Note_on_c, 0, 74, 85
1, 109949, Note_off_c, 0, 72, 64
1, 110021, Note_on_c, 0, 72, 81
1, 110045, Note_off_c, 0, 74, 65
1, 110051, Control_c, 0, 64, 49
1, 110080, Note_on_c, 0, 71, 83
1, 110107, Note_off_c, 0, 72, 65
1, 110154, Note_on_c, 0, 68, 94
1, 110167, Note_off_c, 0, 71, 63
1, 110184, Control_c, 0, 64, 49
1, 110214, Control_c, 0, 64, 49
1, 110230, Note_on_c, 0, 67, 87
1, 110234, Note_off_c, 0, 68, 62
1, 110244, Control_c, 0, 64, 48
1, 110258, Control_c, 0, 64, 48
1, 110278, Note_off_c, 0, 67, 68
1, 110288, Control_c, 0, 64, 47
1, 110292, Note_on_c, 0, 65, 87
1, 110318, Control_c, 0, 64, 47
1, 110332, Control_c, 0, 64, 46
1, 110362, Control_c, 0, 64, 46
1, 110365, Note_on_c, 0, 64, 95
1, 110369, Note_off_c, 0, 65, 66
1, 110406, Control_c, 0, 64, 46
1, 110421, Control_c, 0, 64, 47
1, 110429, Note_on_c, 0, 65, 97
1, 110441, Note_off_c, 0, 64, 66
1, 110465, Control_c, 0, 64, 44
1, 110480, Control_c, 0, 64, 33
1, 110491, Note_on_c, 0, 64, 98
1, 110492, Note_on_c, 0, 36, 93
1, 110495, Control_c, 0, 64, 0
1, 110513, Note_off_c, 0, 65, 65
1, 110674, Control_c, 0, 64, 60
1, 110689, Control_c, 0, 64, 67
1, 110704, Control_c, 0, 64, 68
1, 110726, Control_c, 0, 64, 69
1, 110741, Control_c, 0, 64, 69
1, 110844, Control_c, 0, 64, 70
1, 110859, Control_c, 0, 64, 70
1, 110869, Note_off_c, 0, 64, 57
1, 110874, Control_c, 0, 64, 71
1, 110884, Note_off_c, 0, 36, 60
1, 110888, Control_c, 0, 64, 72
1, 110903, Control_c, 0, 64, 73
1, 110918, Control_c, 0, 64, 74
1, 110948, Control_c, 0, 64, 69
1, 110963, Control_c, 0, 64, 54
1, 110975, Note_on_c, 0, 38, 95
1, 110978, Control_c, 0, 64, 0
1, 111023, Note_off_c, 0, 38, 68
1, 111140, Note_on_c, 0, 40, 99
1, 111140, Note_on_c, 0, 48, 100
1, 111288, Control_c, 0, 64, 58
1, 111303, Control_c, 0, 64, 72
1, 111318, Control_c, 0, 64, 75
1, 111333, Control_c, 0, 64, 76
1, 111349, Control_c, 0, 64, 76
1, 111363, Control_c, 0, 64, 77
1, 111378, Control_c, 0, 64, 77
1, 111393, Control_c, 0, 64, 78
1, 111428, Note_off_c, 0, 48, 57
1, 111441, Note_off_c, 0, 40, 63
1, 111577, Control_c, 0, 64, 77
1, 111592, Control_c, 0, 64, 68
1, 111607, Control_c, 0, 64, 44
1, 111619, Note_on_c, 0, 50, 96
1, 111621, Note_on_c, 0, 41, 95
1, 111622, Control_c, 0, 64, 0
1, 111655, Note_off_c, 0, 50, 66
1, 111657, Note_off_c, 0, 41, 63
1, 111797, Note_on_c, 0, 52, 101
1, 111801, Note_on_c, 0, 43, 94
1, 111803, Note_on_c, 0, 46, 92
1, 111859, Control_c, 0, 64, 34
1, 111874, Control_c, 0, 64, 65
1, 111888, Control_c, 0, 64, 72
1, 111903, Control_c, 0, 64, 75
1, 111933, Control_c, 0, 64, 75
1, 111947, Control_c, 0, 64, 76
1, 111955, Note_off_c, 0, 43, 57
1, 111990, Note_off_c, 0, 46, 63
1, 111991, Note_off_c, 0, 52, 63
1, 112051, Control_c, 0, 64, 75
1, 112099, Note_on_c, 0, 73, 90
1, 112145, Note_off_c, 0, 73, 63
1, 112186, Control_c, 0, 64, 74
1, 112200, Control_c, 0, 64, 66
1, 112224, Control_c, 0, 64, 34
1, 112235, Note_on_c, 0, 48, 82
1, 112239, Control_c, 0, 64, 0
1, 112248, Note_on_c, 0, 53, 74
1, 112250, Note_on_c, 0, 72, 92
1, 112280, Note_off_c, 0, 53, 63
1, 112281, Note_off_c, 0, 48, 63
1, 112295, Note_off_c, 0, 72, 68
1, 112397, Note_on_c, 0, 55, 77
1, 112398, Note_on_c, 0, 70, 86
1, 112400, Note_on_c, 0, 52, 72
1, 112422, Note_off_c, 0, 55, 68
1, 112430, Note_off_c, 0, 52, 66
1, 112441, Note_off_c, 0, 70, 68
1, 112539, Note_on_c, 0, 68, 98
1, 112540, Note_on_c, 0, 56, 86
1, 112543, Note_on_c, 0, 53, 81
1, 112580, Note_off_c, 0, 68, 65
1, 112581, Note_off_c, 0, 53, 63
1, 112587, Note_off_c, 0, 56, 61
1, 112678, Note_on_c, 0, 67, 99
1, 112679, Note_on_c, 0, 58, 100
1, 112689, Note_on_c, 0, 55, 86
1, 112716, Note_off_c, 0, 67, 66
1, 112722, Note_off_c, 0, 58, 66
1, 112729, Note_off_c, 0, 55, 61
1, 112817, Note_on_c, 0, 65, 99
1, 112823, Note_on_c, 0, 56, 99
1, 112823, Note_on_c, 0, 60, 94
1, 112853, Note_off_c, 0, 60, 69
1, 112865, Note_off_c, 0, 65, 67
1, 112871, Note_off_c, 0, 56, 65
1, 112993, Note_on_c, 0, 61, 104
1, 112994, Note_on_c, 0, 58, 104
1, 112995, Note_on_c, 0, 64, 97
1, 113002, Control_c, 0, 64, 53
1, 113017, Control_c, 0, 64, 72
1, 113032, Control_c, 0, 64, 75
1, 113038, Note_off_c, 0, 61, 65
1, 113040, Note_off_c, 0, 58, 68
1, 113043, Note_off_c, 0, 64, 69
1, 113047, Control_c, 0, 64, 77
1, 113254, Control_c, 0, 64, 74
1, 113268, Control_c, 0, 64, 66
1, 113283, Control_c, 0, 64, 48
1, 113298, Control_c, 0, 64, 0
1, 113302, Note_on_c, 0, 79, 88
1, 113363, Note_off_c, 0, 79, 66
1, 113375, Note_on_c, 0, 78, 82
1, 113435, Note_on_c, 0, 79, 89
1, 113441, Note_off_c, 0, 78, 64
1, 113461, Control_c, 0, 67, 18
1, 113476, Control_c, 0, 67, 20
1, 113491, Note_off_c, 0, 79, 65
1, 113491, Control_c, 0, 67, 23
1, 113500, Note_on_c, 0, 76, 83
1, 113521, Control_c, 0, 67, 27
1, 113550, Control_c, 0, 67, 30
1, 113555, Note_off_c, 0, 76, 63
1, 113565, Control_c, 0, 67, 33
1, 113568, Note_on_c, 0, 82, 88
1, 113580, Control_c, 0, 67, 36
1, 113594, Control_c, 0, 67, 39
1, 113609, Control_c, 0, 67, 42
1, 113624, Control_c, 0, 67, 49
1, 113625, Note_off_c, 0, 82, 66
1, 113628, Note_on_c, 0, 81, 77
1, 113639, Control_c, 0, 67, 58
1, 113654, Control_c, 0, 67, 68
1, 113668, Control_c, 0, 67, 79
1, 113683, Control_c, 0, 67, 89
1, 113698, Control_c, 0, 67, 95
1, 113702, Note_on_c, 0, 82, 84
1, 113716, Note_off_c, 0, 81, 62
1, 113720, Control_c, 0, 67, 99
1, 113735, Control_c, 0, 67, 101
1, 113765, Note_off_c, 0, 82, 66
1, 113769, Note_on_c, 0, 79, 66
1, 113818, Note_off_c, 0, 79, 65
1, 113836, Note_on_c, 0, 85, 80
1, 113869, Control_c, 0, 64, 32
1, 113884, Control_c, 0, 64, 32
1, 113899, Control_c, 0, 64, 33
1, 113900, Note_off_c, 0, 85, 63
1, 113904, Note_on_c, 0, 84, 83
1, 113929, Control_c, 0, 64, 33
1, 113956, Note_off_c, 0, 84, 63
1, 113958, Control_c, 0, 64, 34
1, 113971, Note_on_c, 0, 85, 65
1, 114033, Note_on_c, 0, 84, 81
1, 114036, Note_off_c, 0, 85, 63
1, 114100, Note_off_c, 0, 84, 64
1, 114121, Control_c, 0, 64, 35
1, 114130, Note_on_c, 0, 85, 77
1, 114136, Control_c, 0, 64, 38
1, 114150, Control_c, 0, 64, 44
1, 114155, Note_on_c, 0, 46, 46
1, 114165, Control_c, 0, 64, 52
1, 114180, Control_c, 0, 64, 57
1, 114195, Control_c, 0, 64, 60
1, 114210, Control_c, 0, 64, 61
1, 114224, Control_c, 0, 64, 61
1, 114231, Note_on_c, 0, 82, 70
1, 114239, Control_c, 0, 64, 63
1, 114240, Note_off_c, 0, 85, 59
1, 114254, Control_c, 0, 64, 64
1, 114269, Control_c, 0, 64, 66
1, 114284, Control_c, 0, 64, 68
1, 114292, Note_on_c, 0, 79, 61
1, 114299, Control_c, 0, 64, 70
1, 114307, Note_off_c, 0, 82, 65
1, 114314, Control_c, 0, 64, 72
1, 114328, Control_c, 0, 64, 74
1, 114343, Control_c, 0, 64, 77
1, 114358, Control_c, 0, 64, 78
1, 114358, Note_off_c, 0, 79, 66
1, 114368, Note_on_c, 0, 76, 66
1, 114388, Control_c, 0, 64, 75
1, 114403, Control_c, 0, 64, 66
1, 114417, Control_c, 0, 64, 58
1, 114422, Note_off_c, 0, 76, 55
1, 114432, Control_c, 0, 64, 54
1, 114436, Note_on_c, 0, 82, 65
1, 114443, Note_on_c, 0, 49, 43
1, 114447, Control_c, 0, 64, 55
1, 114469, Control_c, 0, 64, 58
1, 114484, Control_c, 0, 64, 62
1, 114498, Control_c, 0, 64, 65
1, 114509, Note_on_c, 0, 79, 67
1, 114513, Control_c, 0, 64, 66
1, 114525, Note_off_c, 0, 82, 64
1, 114528, Control_c, 0, 64, 68
1, 114544, Control_c, 0, 64, 70
1, 114546, Note_off_c, 0, 79, 64
1, 114559, Control_c, 0, 64, 73
1, 114573, Control_c, 0, 64, 75
1, 114575, Note_on_c, 0, 76, 70
1, 114588, Control_c, 0, 64, 77
1, 114603, Control_c, 0, 64, 78
1, 114610, Note_off_c, 0, 76, 62
1, 114618, Control_c, 0, 64, 79
1, 114633, Control_c, 0, 64, 80
1, 114653, Note_on_c, 0, 73, 65
1, 114692, Control_c, 0, 64, 79
1, 114705, Note_off_c, 0, 73, 65
1, 114707, Control_c, 0, 64, 70
1, 114722, Control_c, 0, 64, 58
1, 114734, Note_on_c, 0, 79, 73
1, 114737, Control_c, 0, 64, 35
1, 114739, Note_on_c, 0, 52, 56
1, 114752, Control_c, 0, 64, 0
1, 114796, Control_c, 0, 64, 34
1, 114811, Control_c, 0, 64, 46
1, 114811, Note_off_c, 0, 79, 59
1, 114819, Note_on_c, 0, 76, 63
1, 114826, Control_c, 0, 64, 55
1, 114840, Control_c, 0, 64, 60
1, 114855, Control_c, 0, 64, 63
1, 114861, Note_on_c, 0, 73, 56
1, 114870, Control_c, 0, 64, 64
1, 114885, Control_c, 0, 64, 64
1, 114900, Control_c, 0, 64, 66
1, 114904, Note_off_c, 0, 76, 56
1, 114914, Control_c, 0, 64, 69
1, 114929, Control_c, 0, 64, 71
1, 114929, Control_c, 0, 67, 99
1, 114944, Control_c, 0, 64, 74
1, 114945, Note_on_c, 0, 70, 62
1, 114955, Note_off_c, 0, 73, 56
1, 114959, Control_c, 0, 64, 75
1, 114986, Note_off_c, 0, 70, 64
1, 114988, Control_c, 0, 64, 71
1, 115003, Control_c, 0, 64, 59
1, 115018, Control_c, 0, 64, 35
1, 115021, Note_on_c, 0, 55, 66
1, 115026, Note_on_c, 0, 76, 65
1, 115032, Control_c, 0, 64, 0
1, 115042, Note_off_c, 0, 52, 58
1, 115089, Note_off_c, 0, 49, 62
1, 115092, Note_off_c, 0, 76, 60
1, 115092, Control_c, 0, 64, 44
1, 115094, Note_on_c, 0, 73, 55
1, 115100, Note_off_c, 0, 46, 63
1, 115107, Control_c, 0, 64, 55
1, 115121, Control_c, 0, 64, 61
1, 115136, Control_c, 0, 64, 63
1, 115151, Control_c, 0, 64, 64
1, 115177, Note_off_c, 0, 73, 60
1, 115178, Note_on_c, 0, 70, 54
1, 115181, Control_c, 0, 64, 65
1, 115196, Control_c, 0, 64, 66
1, 115219, Note_off_c, 0, 70, 63
1, 115219, Control_c, 0, 64, 67
1, 115234, Control_c, 0, 64, 68
1, 115238, Note_on_c, 0, 67, 57
1, 115248, Control_c, 0, 64, 69
1, 115263, Control_c, 0, 64, 70
1, 115278, Control_c, 0, 64, 71
1, 115286, Note_off_c, 0, 67, 62
1, 115292, Control_c, 0, 64, 72
1, 115322, Control_c, 0, 64, 69
1, 115337, Note_on_c, 0, 44, 69
1, 115337, Control_c, 0, 64, 60
1, 115353, Control_c, 0, 64, 0
1, 115362, Note_off_c, 0, 55, 56
1, 115628, Note_on_c, 0, 77, 66
1, 115637, Note_on_c, 0, 48, 52
1, 115664, Control_c, 0, 67, 97
1, 115679, Control_c, 0, 67, 96
1, 115681, Note_off_c, 0, 77, 63
1, 115694, Control_c, 0, 67, 95
1, 115697, Note_on_c, 0, 76, 68
1, 115709, Control_c, 0, 64, 34
1, 115709, Control_c, 0, 67, 94
1, 115723, Control_c, 0, 64, 50
1, 115723, Control_c, 0, 67, 94
1, 115738, Control_c, 0, 64, 59
1, 115738, Control_c, 0, 67, 93
1, 115753, Control_c, 0, 64, 62
1, 115753, Control_c, 0, 67, 92
1, 115768, Control_c, 0, 67, 90
1, 115768, Note_off_c, 0, 76, 62
1, 115772, Note_on_c, 0, 77, 75
1, 115783, Control_c, 0, 67, 88
1, 115797, Control_c, 0, 64, 60
1, 115797, Control_c, 0, 67, 83
1, 115812, Control_c, 0, 64, 55
1, 115812, Control_c, 0, 67, 77
1, 115827, Control_c, 0, 64, 49
1, 115827, Control_c, 0, 67, 70
1, 115828, Note_off_c, 0, 77, 64
1, 115841, Note_on_c, 0, 72, 78
1, 115842, Control_c, 0, 64, 46
1, 115842, Control_c, 0, 67, 65
1, 115856, Control_c, 0, 64, 47
1, 115856, Control_c, 0, 67, 57
1, 115871, Control_c, 0, 64, 50
1, 115871, Control_c, 0, 67, 50
1, 115886, Note_off_c, 0, 72, 64
1, 115886, Control_c, 0, 64, 55
1, 115886, Control_c, 0, 67, 44
1, 115897, Note_on_c, 0, 53, 60
1, 115901, Control_c, 0, 64, 57
1, 115901, Control_c, 0, 67, 37
1, 115914, Note_on_c, 0, 80, 84
1, 115915, Control_c, 0, 64, 58
1, 115915, Control_c, 0, 67, 32
1, 115930, Control_c, 0, 64, 59
1, 115930, Control_c, 0, 67, 28
1, 115945, Control_c, 0, 64, 60
1, 115945, Control_c, 0, 67, 25
1, 115956, Note_off_c, 0, 80, 63
1, 115967, Control_c, 0, 64, 62
1, 115980, Note_on_c, 0, 79, 75
1, 115982, Control_c, 0, 64, 64
1, 115982, Control_c, 0, 67, 23
1, 115996, Control_c, 0, 64, 66
1, 116011, Control_c, 0, 64, 68
1, 116011, Control_c, 0, 67, 21
1, 116026, Control_c, 0, 64, 69
1, 116041, Control_c, 0, 64, 71
1, 116048, Note_off_c, 0, 79, 66
1, 116049, Note_on_c, 0, 80, 85
1, 116056, Control_c, 0, 64, 72
1, 116056, Control_c, 0, 67, 18
1, 116070, Control_c, 0, 67, 0
1, 116085, Control_c, 0, 64, 69
1, 116100, Control_c, 0, 64, 59
1, 116110, Note_on_c, 0, 77, 74
1, 116110, Note_off_c, 0, 80, 65
1, 116114, Control_c, 0, 64, 46
1, 116129, Control_c, 0, 64, 34
1, 116145, Control_c, 0, 64, 35
1, 116160, Control_c, 0, 64, 44
1, 116167, Note_off_c, 0, 77, 64
1, 116175, Control_c, 0, 64, 56
1, 116183, Note_on_c, 0, 56, 75
1, 116185, Note_on_c, 0, 84, 90
1, 116190, Control_c, 0, 64, 63
1, 116205, Control_c, 0, 64, 65
1, 116219, Control_c, 0, 64, 66
1, 116234, Control_c, 0, 64, 68
1, 116244, Note_off_c, 0, 84, 64
1, 116249, Control_c, 0, 64, 69
1, 116250, Note_on_c, 0, 83, 71
1, 116264, Control_c, 0, 64, 72
1, 116279, Control_c, 0, 64, 75
1, 116291, Note_on_c, 0, 84, 6
1, 116293, Control_c, 0, 64, 79
1, 116308, Control_c, 0, 64, 82
1, 116316, Note_off_c, 0, 83, 57
1, 116323, Note_off_c, 0, 44, 50
1, 116323, Control_c, 0, 64, 86
1, 116338, Control_c, 0, 64, 89
1, 116352, Control_c, 0, 64, 94
1, 116356, Note_off_c, 0, 48, 36
1, 116367, Control_c, 0, 64, 98
1, 116382, Control_c, 0, 64, 104
1, 116397, Note_on_c, 0, 80, 82
1, 116397, Control_c, 0, 64, 107
1, 116413, Note_off_c, 0, 84, 57
1, 116431, Note_off_c, 0, 56, 57
1, 116442, Control_c, 0, 64, 91
1, 116457, Note_off_c, 0, 80, 66
1, 116457, Control_c, 0, 64, 71
1, 116463, Note_on_c, 0, 89, 91
1, 116466, Note_on_c, 0, 44, 69
1, 116472, Control_c, 0, 64, 53
1, 116477, Note_off_c, 0, 53, 56
1, 116486, Control_c, 0, 64, 34
1, 116486, Control_c, 0, 67, 17
1, 116501, Control_c, 0, 64, 36
1, 116516, Control_c, 0, 64, 49
1, 116531, Control_c, 0, 64, 60
1, 116534, Note_on_c, 0, 84, 66
1, 116545, Control_c, 0, 64, 65
1, 116560, Control_c, 0, 64, 68
1, 116571, Note_on_c, 0, 86, 32
1, 116575, Control_c, 0, 64, 70
1, 116580, Note_off_c, 0, 89, 57
1, 116590, Control_c, 0, 64, 74
1, 116590, Control_c, 0, 67, 19
1, 116603, Note_off_c, 0, 86, 52
1, 116604, Control_c, 0, 64, 78
1, 116607, Note_on_c, 0, 80, 75
1, 116619, Control_c, 0, 64, 83
1, 116634, Control_c, 0, 64, 88
1, 116643, Note_off_c, 0, 84, 65
1, 116649, Control_c, 0, 64, 94
1, 116664, Control_c, 0, 64, 98
1, 116671, Note_off_c, 0, 80, 64
1, 116688, Note_on_c, 0, 77, 80
1, 116693, Control_c, 0, 64, 100
1, 116716, Control_c, 0, 64, 96
1, 116731, Control_c, 0, 64, 81
1, 116743, Note_on_c, 0, 48, 65
1, 116745, Control_c, 0, 64, 65
1, 116752, Note_off_c, 0, 77, 62
1, 116760, Control_c, 0, 64, 50
1, 116760, Control_c, 0, 67, 17
1, 116761, Note_on_c, 0, 84, 90
1, 116775, Control_c, 0, 64, 43
1, 116790, Control_c, 0, 64, 46
1, 116805, Control_c, 0, 64, 56
1, 116805, Control_c, 0, 67, 0
1, 116819, Control_c, 0, 64, 63
1, 116834, Control_c, 0, 64, 66
1, 116834, Control_c, 0, 67, 17
1, 116841, Note_on_c, 0, 80, 70
1, 116849, Control_c, 0, 64, 67
1, 116856, Note_off_c, 0, 84, 60
1, 116863, Control_c, 0, 64, 69
1, 116878, Control_c, 0, 64, 72
1, 116883, Note_on_c, 0, 78, 72
1, 116893, Control_c, 0, 64, 78
1, 116903, Note_off_c, 0, 80, 64
1, 116908, Control_c, 0, 64, 85
1, 116916, Note_off_c, 0, 78, 66
1, 116923, Control_c, 0, 64, 93
1, 116939, Control_c, 0, 64, 99
1, 116954, Control_c, 0, 64, 101
1, 116961, Note_on_c, 0, 72, 79
1, 116983, Control_c, 0, 64, 90
1, 116998, Control_c, 0, 64, 70
1, 117013, Control_c, 0, 64, 55
1, 117028, Control_c, 0, 64, 47
1, 117029, Note_on_c, 0, 53, 65
1, 117029, Note_off_c, 0, 72, 62
1, 117029, Note_on_c, 0, 80, 85
1, 117042, Control_c, 0, 64, 49
1, 117057, Control_c, 0, 64, 56
1, 117072, Control_c, 0, 64, 63
1, 117087, Control_c, 0, 64, 67
1, 117102, Control_c, 0, 64, 68
1, 117104, Note_on_c, 0, 77, 71
1, 117116, Control_c, 0, 64, 70
1, 117117, Note_on_c, 0, 78, 10
1, 117131, Control_c, 0, 64, 71
1, 117146, Control_c, 0, 64, 74
1, 117158, Note_off_c, 0, 80, 54
1, 117161, Control_c, 0, 64, 76
1, 117169, Note_on_c, 0, 72, 55
1, 117169, Note_off_c, 0, 78, 40
1, 117175, Control_c, 0, 64, 78
1, 117190, Control_c, 0, 64, 82
1, 117197, Note_off_c, 0, 77, 65
1, 117205, Control_c, 0, 64, 86
1, 117220, Control_c, 0, 64, 91
1, 117233, Note_off_c, 0, 72, 61
1, 117235, Control_c, 0, 64, 97
1, 117245, Note_on_c, 0, 68, 71
1, 117250, Control_c, 0, 64, 99
1, 117268, Note_off_c, 0, 68, 70
1, 117280, Control_c, 0, 64, 90
1, 117294, Control_c, 0, 64, 69
1, 117309, Control_c, 0, 64, 48
1, 117309, Control_c, 0, 67, 19
1, 117312, Note_on_c, 0, 56, 58
1, 117312, Note_on_c, 0, 77, 81
1, 117324, Control_c, 0, 64, 0
1, 117368, Control_c, 0, 64, 44
1, 117383, Control_c, 0, 64, 60
1, 117390, Note_off_c, 0, 77, 60
1, 117398, Control_c, 0, 64, 65
1, 117400, Note_on_c, 0, 72, 57
1, 117413, Control_c, 0, 64, 68
1, 117417, Note_off_c, 0, 56, 60
1, 117427, Control_c, 0, 64, 69
1, 117442, Control_c, 0, 64, 69
1, 117447, Note_on_c, 0, 68, 68
1, 117464, Control_c, 0, 64, 70
1, 117472, Note_off_c, 0, 44, 52
1, 117479, Control_c, 0, 64, 72
1, 117482, Note_off_c, 0, 72, 59
1, 117483, Note_off_c, 0, 48, 36
1, 117494, Control_c, 0, 64, 75
1, 117506, Note_off_c, 0, 68, 63
1, 117509, Control_c, 0, 64, 76
1, 117524, Control_c, 0, 64, 78
1, 117525, Note_on_c, 0, 65, 63
1, 117539, Control_c, 0, 64, 79
1, 117554, Control_c, 0, 64, 80
1, 117564, Note_off_c, 0, 65, 64
1, 117568, Control_c, 0, 64, 81
1, 117598, Control_c, 0, 64, 79
1, 117604, Note_on_c, 0, 43, 73
1, 117610, Note_off_c, 0, 53, 55
1, 117613, Control_c, 0, 64, 69
1, 117628, Control_c, 0, 64, 50
1, 117642, Control_c, 0, 64, 0
1, 117642, Control_c, 0, 67, 21
1, 117701, Control_c, 0, 67, 23
1, 117806, Control_c, 0, 67, 25
1, 117836, Control_c, 0, 67, 27
1, 117851, Control_c, 0, 67, 29
1, 117880, Control_c, 0, 67, 32
1, 117890, Note_on_c, 0, 77, 74
1, 117895, Control_c, 0, 67, 33
1, 117907, Note_on_c, 0, 50, 57
1, 117909, Control_c, 0, 67, 33
1, 117941, Note_off_c, 0, 77, 64
1, 117954, Control_c, 0, 67, 34
1, 117964, Note_on_c, 0, 76, 66
1, 117969, Control_c, 0, 67, 34
1, 117983, Control_c, 0, 67, 35
1, 117998, Control_c, 0, 67, 35
1, 118013, Control_c, 0, 67, 36
1, 118028, Control_c, 0, 67, 36
1, 118034, Note_off_c, 0, 76, 62
1, 118039, Note_on_c, 0, 77, 67
1, 118079, Note_off_c, 0, 77, 64
1, 118090, Note_on_c, 0, 74, 70
1, 118129, Note_off_c, 0, 74, 66
1, 118157, Note_on_c, 0, 53, 50
1, 118172, Note_on_c, 0, 83, 65
1, 118191, Control_c, 0, 67, 36
1, 118213, Control_c, 0, 64, 39
1, 118213, Control_c, 0, 67, 35
1, 118224, Note_off_c, 0, 83, 61
1, 118227, Control_c, 0, 64, 47
1, 118239, Note_on_c, 0, 82, 68
1, 118242, Control_c, 0, 64, 52
1, 118257, Control_c, 0, 64, 55
1, 118272, Control_c, 0, 64, 57
1, 118287, Control_c, 0, 64, 60
1, 118302, Control_c, 0, 64, 61
1, 118302, Control_c, 0, 67, 36
1, 118316, Control_c, 0, 64, 61
1, 118318, Note_on_c, 0, 83, 69
1, 118331, Control_c, 0, 64, 59
1, 118335, Note_off_c, 0, 82, 56
1, 118346, Control_c, 0, 64, 54
1, 118361, Control_c, 0, 64, 48
1, 118365, Note_off_c, 0, 83, 64
1, 118375, Note_on_c, 0, 77, 71
1, 118376, Control_c, 0, 64, 45
1, 118390, Control_c, 0, 64, 48
1, 118405, Control_c, 0, 64, 53
1, 118412, Note_off_c, 0, 77, 66
1, 118420, Control_c, 0, 64, 58
1, 118435, Control_c, 0, 64, 61
1, 118435, Control_c, 0, 67, 36
1, 118444, Note_on_c, 0, 55, 60
1, 118447, Note_on_c, 0, 86, 79
1, 118450, Control_c, 0, 64, 63
1, 118450, Control_c, 0, 67, 37
1, 118464, Control_c, 0, 64, 63
1, 118464, Control_c, 0, 67, 37
1, 118493, Note_off_c, 0, 86, 65
1, 118494, Control_c, 0, 64, 64
1, 118503, Note_on_c, 0, 85, 75
1, 118507, Note_off_c, 0, 53, 57
1, 118509, Control_c, 0, 64, 65
1, 118515, Note_off_c, 0, 50, 60
1, 118523, Control_c, 0, 64, 66
1, 118539, Control_c, 0, 64, 67
1, 118554, Control_c, 0, 64, 68
1, 118568, Note_off_c, 0, 43, 54
1, 118569, Control_c, 0, 64, 70
1, 118582, Note_on_c, 0, 86, 76
1, 118584, Control_c, 0, 64, 72
1, 118588, Note_off_c, 0, 85, 60
1, 118599, Control_c, 0, 64, 74
1, 118599, Control_c, 0, 67, 38
1, 118613, Control_c, 0, 64, 76
1, 118626, Note_off_c, 0, 86, 64
1, 118628, Control_c, 0, 64, 77
1, 118639, Note_on_c, 0, 83, 72
1, 118658, Control_c, 0, 64, 77
1, 118673, Control_c, 0, 64, 69
1, 118687, Control_c, 0, 64, 56
1, 118691, Note_off_c, 0, 83, 64
1, 118702, Control_c, 0, 64, 32
1, 118717, Note_on_c, 0, 43, 55
1, 118717, Control_c, 0, 64, 0
1, 118717, Control_c, 0, 67, 38
1, 118720, Note_on_c, 0, 89, 81
1, 118731, Note_off_c, 0, 55, 55
1, 118731, Control_c, 0, 67, 39
1, 118746, Control_c, 0, 64, 35
1, 118746, Control_c, 0, 67, 41
1, 118761, Control_c, 0, 64, 49
1, 118761, Control_c, 0, 67, 42
1, 118776, Control_c, 0, 64, 60
1, 118776, Control_c, 0, 67, 44
1, 118791, Control_c, 0, 64, 63
1, 118791, Control_c, 0, 67, 44
1, 118800, Note_on_c, 0, 86, 62
1, 118806, Control_c, 0, 64, 65
1, 118806, Control_c, 0, 67, 45
1, 118821, Control_c, 0, 64, 66
1, 118821, Control_c, 0, 67, 45
1, 118830, Note_off_c, 0, 89, 49
1, 118836, Control_c, 0, 64, 68
1, 118850, Control_c, 0, 64, 70
1, 118854, Note_on_c, 0, 83, 68
1, 118865, Control_c, 0, 64, 73
1, 118880, Note_off_c, 0, 86, 61
1, 118880, Control_c, 0, 64, 76
1, 118895, Control_c, 0, 64, 80
1, 118898, Note_off_c, 0, 83, 64
1, 118910, Control_c, 0, 64, 82
1, 118924, Control_c, 0, 64, 83
1, 118930, Note_on_c, 0, 77, 67
1, 118961, Control_c, 0, 64, 83
1, 118976, Note_off_c, 0, 77, 62
1, 118976, Control_c, 0, 64, 76
1, 118991, Control_c, 0, 64, 66
1, 119003, Note_on_c, 0, 86, 76
1, 119006, Control_c, 0, 64, 57
1, 119020, Note_on_c, 0, 47, 45
1, 119020, Control_c, 0, 64, 54
1, 119035, Control_c, 0, 64, 57
1, 119050, Control_c, 0, 64, 62
1, 119065, Control_c, 0, 64, 65
1, 119073, Note_on_c, 0, 83, 59
1, 119080, Control_c, 0, 64, 67
1, 119095, Control_c, 0, 64, 68
1, 119104, Note_off_c, 0, 86, 58
1, 119110, Control_c, 0, 64, 70
1, 119125, Control_c, 0, 64, 72
1, 119129, Note_on_c, 0, 77, 51
1, 119139, Control_c, 0, 64, 75
1, 119154, Control_c, 0, 64, 77
1, 119163, Note_off_c, 0, 83, 64
1, 119169, Control_c, 0, 64, 81
1, 119184, Control_c, 0, 64, 83
1, 119187, Note_off_c, 0, 77, 63
1, 119199, Control_c, 0, 64, 84
1, 119228, Control_c, 0, 64, 83
1, 119228, Control_c, 0, 67, 46
1, 119229, Note_on_c, 0, 74, 55
1, 119243, Control_c, 0, 64, 75
1, 119243, Control_c, 0, 67, 46
1, 119256, Note_off_c, 0, 74, 62
1, 119257, Control_c, 0, 64, 64
1, 119257, Control_c, 0, 67, 49
1, 119272, Control_c, 0, 64, 52
1, 119272, Control_c, 0, 67, 51
1, 119285, Note_on_c, 0, 83, 73
1, 119287, Control_c, 0, 64, 48
1, 119287, Control_c, 0, 67, 52
1, 119292, Note_on_c, 0, 50, 44
1, 119302, Control_c, 0, 64, 51
1, 119317, Control_c, 0, 64, 58
1, 119317, Control_c, 0, 67, 53
1, 119333, Control_c, 0, 64, 63
1, 119333, Control_c, 0, 67, 53
1, 119348, Control_c, 0, 64, 65
1, 119348, Control_c, 0, 67, 54
1, 119362, Control_c, 0, 64, 66
1, 119362, Control_c, 0, 67, 55
1, 119371, Note_on_c, 0, 77, 59
1, 119377, Control_c, 0, 64, 67
1, 119377, Control_c, 0, 67, 56
1, 119391, Note_off_c, 0, 83, 52
1, 119392, Control_c, 0, 64, 69
1, 119407, Control_c, 0, 64, 71
1, 119422, Control_c, 0, 64, 74
1, 119426, Note_on_c, 0, 74, 62
1, 119436, Control_c, 0, 64, 77
1, 119445, Note_off_c, 0, 77, 59
1, 119451, Control_c, 0, 64, 80
1, 119451, Control_c, 0, 67, 55
1, 119466, Control_c, 0, 64, 82
1, 119480, Control_c, 0, 64, 82
1, 119482, Note_off_c, 0, 74, 62
1, 119506, Note_on_c, 0, 71, 67
1, 119510, Control_c, 0, 64, 77
1, 119525, Control_c, 0, 64, 67
1, 119540, Control_c, 0, 64, 55
1, 119545, Note_off_c, 0, 71, 63
1, 119554, Control_c, 0, 64, 46
1, 119566, Note_off_c, 0, 50, 63
1, 119567, Note_on_c, 0, 55, 53
1, 119572, Note_on_c, 0, 77, 68
1, 119584, Control_c, 0, 64, 52
1, 119599, Control_c, 0, 64, 60
1, 119614, Control_c, 0, 64, 63
1, 119628, Control_c, 0, 64, 65
1, 119643, Note_off_c, 0, 77, 61
1, 119643, Control_c, 0, 64, 65
1, 119646, Note_off_c, 0, 47, 57
1, 119650, Note_on_c, 0, 74, 66
1, 119658, Control_c, 0, 64, 66
1, 119673, Note_off_c, 0, 43, 44
1, 119673, Control_c, 0, 64, 68
1, 119688, Control_c, 0, 64, 69
1, 119710, Control_c, 0, 64, 70
1, 119724, Note_on_c, 0, 71, 60
1, 119725, Control_c, 0, 64, 71
1, 119738, Note_off_c, 0, 74, 56
1, 119740, Control_c, 0, 64, 72
1, 119754, Control_c, 0, 64, 73
1, 119760, Note_off_c, 0, 71, 64
1, 119769, Control_c, 0, 64, 74
1, 119781, Note_on_c, 0, 65, 62
1, 119784, Control_c, 0, 64, 75
1, 119799, Control_c, 0, 64, 76
1, 119799, Control_c, 0, 67, 56
1, 119829, Control_c, 0, 64, 75
1, 119834, Note_off_c, 0, 65, 64
1, 119843, Control_c, 0, 64, 73
1, 119843, Control_c, 0, 67, 56
1, 119858, Control_c, 0, 64, 65
1, 119873, Control_c, 0, 64, 51
1, 119875, Note_on_c, 0, 43, 68
1, 119888, Control_c, 0, 64, 35
1, 119903, Control_c, 0, 64, 0
1, 119910, Note_off_c, 0, 55, 49
1, 119933, Control_c, 0, 67, 57
1, 120141, Control_c, 0, 67, 56
1, 120148, Note_on_c, 0, 75, 63
1, 120156, Control_c, 0, 67, 56
1, 120159, Note_on_c, 0, 48, 52
1, 120185, Control_c, 0, 67, 55
1, 120200, Note_off_c, 0, 75, 64
1, 120223, Note_on_c, 0, 74, 57
1, 120286, Note_on_c, 0, 75, 64
1, 120290, Note_off_c, 0, 74, 59
1, 120330, Note_off_c, 0, 75, 61
1, 120353, Note_on_c, 0, 72, 64
1, 120393, Note_off_c, 0, 72, 61
1, 120411, Note_on_c, 0, 79, 68
1, 120418, Note_on_c, 0, 51, 52
1, 120465, Note_off_c, 0, 79, 66
1, 120489, Note_on_c, 0, 78, 75
1, 120490, Control_c, 0, 64, 36
1, 120504, Control_c, 0, 64, 46
1, 120519, Control_c, 0, 64, 55
1, 120534, Control_c, 0, 64, 61
1, 120549, Control_c, 0, 64, 63
1, 120552, Note_off_c, 0, 78, 63
1, 120564, Note_on_c, 0, 79, 76
1, 120564, Control_c, 0, 64, 65
1, 120579, Control_c, 0, 64, 66
1, 120593, Control_c, 0, 64, 68
1, 120608, Control_c, 0, 64, 70
1, 120623, Control_c, 0, 64, 71
1, 120627, Note_off_c, 0, 79, 64
1, 120630, Note_on_c, 0, 75, 69
1, 120637, Control_c, 0, 64, 70
1, 120652, Control_c, 0, 64, 66
1, 120667, Control_c, 0, 64, 61
1, 120671, Note_off_c, 0, 75, 64
1, 120682, Control_c, 0, 64, 57
1, 120697, Control_c, 0, 64, 56
1, 120703, Note_on_c, 0, 55, 61
1, 120704, Note_on_c, 0, 84, 84
1, 120705, Note_off_c, 0, 51, 56
1, 120711, Control_c, 0, 64, 57
1, 120726, Control_c, 0, 64, 59
1, 120741, Control_c, 0, 64, 62
1, 120756, Control_c, 0, 64, 63
1, 120761, Note_off_c, 0, 48, 63
1, 120763, Note_off_c, 0, 84, 65
1, 120765, Note_on_c, 0, 83, 71
1, 120771, Control_c, 0, 64, 64
1, 120785, Control_c, 0, 64, 64
1, 120800, Control_c, 0, 64, 65
1, 120806, Note_off_c, 0, 43, 62
1, 120815, Control_c, 0, 64, 67
1, 120823, Note_off_c, 0, 83, 56
1, 120830, Control_c, 0, 64, 68
1, 120845, Control_c, 0, 64, 70
1, 120845, Control_c, 0, 67, 55
1, 120849, Note_on_c, 0, 84, 77
1, 120860, Control_c, 0, 64, 71
1, 120875, Control_c, 0, 64, 72
1, 120875, Control_c, 0, 67, 54
1, 120883, Note_off_c, 0, 84, 59
1, 120890, Control_c, 0, 64, 74
1, 120898, Note_on_c, 0, 79, 69
1, 120904, Control_c, 0, 64, 76
1, 120919, Control_c, 0, 64, 78
1, 120935, Control_c, 0, 64, 80
1, 120965, Control_c, 0, 64, 79
1, 120967, Note_off_c, 0, 79, 62
1, 120980, Control_c, 0, 64, 73
1, 120993, Note_on_c, 0, 87, 74
1, 120995, Control_c, 0, 64, 63
1, 120995, Control_c, 0, 67, 55
1, 120998, Note_on_c, 0, 42, 58
1, 121009, Control_c, 0, 64, 53
1, 121024, Control_c, 0, 64, 49
1, 121039, Control_c, 0, 64, 51
1, 121054, Control_c, 0, 64, 57
1, 121060, Note_off_c, 0, 55, 36
1, 121069, Control_c, 0, 64, 62
1, 121069, Control_c, 0, 67, 55
1, 121083, Control_c, 0, 64, 65
1, 121087, Note_on_c, 0, 84, 71
1, 121098, Control_c, 0, 64, 66
1, 121113, Control_c, 0, 64, 69
1, 121121, Note_off_c, 0, 87, 58
1, 121128, Control_c, 0, 64, 71
1, 121143, Control_c, 0, 64, 74
1, 121150, Note_on_c, 0, 81, 49
1, 121158, Control_c, 0, 64, 77
1, 121167, Note_off_c, 0, 84, 63
1, 121173, Control_c, 0, 64, 81
1, 121187, Control_c, 0, 64, 84
1, 121187, Control_c, 0, 67, 55
1, 121209, Note_off_c, 0, 81, 55
1, 121209, Control_c, 0, 64, 87
1, 121209, Control_c, 0, 67, 54
1, 121224, Control_c, 0, 64, 89
1, 121228, Note_on_c, 0, 75, 68
1, 121239, Control_c, 0, 64, 89
1, 121253, Note_off_c, 0, 75, 69
1, 121268, Control_c, 0, 64, 82
1, 121283, Control_c, 0, 64, 69
1, 121289, Note_on_c, 0, 48, 45
1, 121297, Note_on_c, 0, 84, 76
1, 121298, Control_c, 0, 64, 57
1, 121313, Control_c, 0, 64, 48
1, 121328, Control_c, 0, 64, 46
1, 121342, Control_c, 0, 64, 48
1, 121354, Note_on_c, 0, 81, 58
1, 121357, Control_c, 0, 64, 55
1, 121372, Control_c, 0, 64, 61
1, 121379, Note_off_c, 0, 84, 61
1, 121387, Control_c, 0, 64, 63
1, 121402, Control_c, 0, 64, 65
1, 121417, Control_c, 0, 64, 67
1, 121429, Note_on_c, 0, 75, 66
1, 121432, Control_c, 0, 64, 70
1, 121447, Control_c, 0, 64, 75
1, 121452, Note_off_c, 0, 81, 60
1, 121461, Control_c, 0, 64, 80
1, 121461, Control_c, 0, 67, 54
1, 121476, Control_c, 0, 64, 84
1, 121484, Note_off_c, 0, 75, 61
1, 121491, Control_c, 0, 64, 86
1, 121510, Note_on_c, 0, 72, 59
1, 121521, Control_c, 0, 64, 84
1, 121535, Control_c, 0, 64, 75
1, 121541, Note_off_c, 0, 72, 63
1, 121550, Control_c, 0, 64, 63
1, 121565, Control_c, 0, 64, 50
1, 121574, Note_on_c, 0, 81, 66
1, 121575, Note_on_c, 0, 51, 47
1, 121580, Control_c, 0, 64, 46
1, 121595, Control_c, 0, 64, 46
1, 121609, Control_c, 0, 64, 51
1, 121624, Control_c, 0, 64, 58
1, 121639, Control_c, 0, 64, 62
1, 121642, Note_on_c, 0, 75, 55
1, 121647, Note_off_c, 0, 81, 49
1, 121653, Control_c, 0, 64, 63
1, 121653, Control_c, 0, 67, 54
1, 121668, Control_c, 0, 64, 64
1, 121668, Control_c, 0, 67, 55
1, 121683, Control_c, 0, 64, 66
1, 121683, Control_c, 0, 67, 55
1, 121698, Control_c, 0, 64, 69
1, 121703, Note_on_c, 0, 72, 60
1, 121709, Note_off_c, 0, 75, 61
1, 121713, Control_c, 0, 64, 73
1, 121729, Control_c, 0, 64, 77
1, 121744, Control_c, 0, 64, 82
1, 121751, Note_off_c, 0, 72, 52
1, 121758, Control_c, 0, 64, 83
1, 121773, Control_c, 0, 64, 83
1, 121778, Note_on_c, 0, 69, 64
1, 121788, Control_c, 0, 64, 76
1, 121803, Control_c, 0, 64, 65
1, 121818, Control_c, 0, 64, 54
1, 121832, Control_c, 0, 64, 49
1, 121847, Control_c, 0, 64, 50
1, 121851, Note_on_c, 0, 75, 61
1, 121851, Note_off_c, 0, 69, 61
1, 121855, Note_on_c, 0, 54, 44
1, 121862, Control_c, 0, 64, 58
1, 121876, Control_c, 0, 64, 63
1, 121891, Control_c, 0, 64, 65
1, 121906, Control_c, 0, 64, 66
1, 121906, Control_c, 0, 67, 56
1, 121921, Note_off_c, 0, 75, 60
1, 121921, Control_c, 0, 64, 67
1, 121936, Note_on_c, 0, 72, 59
1, 121936, Control_c, 0, 64, 68
1, 121957, Control_c, 0, 64, 70
1, 121957, Control_c, 0, 67, 56
1, 121972, Control_c, 0, 64, 71
1, 121972, Control_c, 0, 67, 57
1, 121989, Note_off_c, 0, 54, 56
1, 122001, Note_off_c, 0, 72, 64
1, 122007, Note_on_c, 0, 69, 64
1, 122031, Control_c, 0, 67, 57
1, 122054, Note_off_c, 0, 42, 52
1, 122061, Note_off_c, 0, 69, 62
1, 122076, Control_c, 0, 67, 58
1, 122078, Note_on_c, 0, 63, 51
1, 122091, Control_c, 0, 67, 59
1, 122106, Control_c, 0, 64, 70
1, 122106, Control_c, 0, 67, 62
1, 122120, Note_off_c, 0, 63, 62
1, 122121, Control_c, 0, 64, 69
1, 122121, Control_c, 0, 67, 65
1, 122135, Control_c, 0, 64, 66
1, 122135, Control_c, 0, 67, 69
1, 122150, Control_c, 0, 64, 61
1, 122150, Control_c, 0, 67, 71
1, 122165, Control_c, 0, 64, 52
1, 122165, Control_c, 0, 67, 73
1, 122166, Note_on_c, 0, 41, 54
1, 122180, Control_c, 0, 64, 44
1, 122180, Control_c, 0, 67, 75
1, 122195, Control_c, 0, 64, 36
1, 122195, Control_c, 0, 67, 76
1, 122209, Control_c, 0, 64, 0
1, 122209, Control_c, 0, 67, 78
1, 122215, Note_off_c, 0, 51, 52
1, 122216, Note_off_c, 0, 48, 42
1, 122224, Control_c, 0, 67, 80
1, 122239, Control_c, 0, 67, 82
1, 122254, Control_c, 0, 67, 84
1, 122269, Control_c, 0, 67, 84
1, 122461, Control_c, 0, 67, 84
1, 122476, Note_on_c, 0, 75, 53
1, 122484, Note_on_c, 0, 48, 42
1, 122517, Note_off_c, 0, 75, 64
1, 122553, Note_on_c, 0, 74, 47
1, 122610, Note_off_c, 0, 74, 61
1, 122619, Note_on_c, 0, 75, 58
1, 122657, Note_off_c, 0, 75, 65
1, 122671, Note_on_c, 0, 72, 62
1, 122717, Note_off_c, 0, 72, 64
1, 122735, Note_on_c, 0, 51, 40
1, 122755, Note_on_c, 0, 81, 52
1, 122790, Note_off_c, 0, 81, 65
1, 122812, Note_on_c, 0, 80, 69
1, 122825, Control_c, 0, 64, 34
1, 122840, Control_c, 0, 64, 39
1, 122855, Control_c, 0, 64, 46
1, 122870, Control_c, 0, 64, 54
1, 122871, Note_off_c, 0, 80, 64
1, 122878, Note_on_c, 0, 81, 68
1, 122885, Control_c, 0, 64, 58
1, 122900, Control_c, 0, 64, 61
1, 122914, Control_c, 0, 64, 62
1, 122929, Control_c, 0, 64, 63
1, 122943, Note_off_c, 0, 81, 64
1, 122944, Control_c, 0, 64, 64
1, 122955, Note_on_c, 0, 75, 63
1, 122959, Control_c, 0, 64, 65
1, 122985, Note_off_c, 0, 75, 67
1, 123004, Note_on_c, 0, 53, 45
1, 123020, Note_on_c, 0, 84, 79
1, 123024, Note_off_c, 0, 48, 54
1, 123030, Note_off_c, 0, 51, 43
1, 123082, Note_off_c, 0, 84, 65
1, 123092, Control_c, 0, 64, 66
1, 123095, Note_on_c, 0, 83, 67
1, 123107, Control_c, 0, 64, 67
1, 123122, Control_c, 0, 64, 68
1, 123132, Note_off_c, 0, 83, 57
1, 123136, Note_off_c, 0, 41, 41
1, 123137, Control_c, 0, 64, 69
1, 123152, Control_c, 0, 64, 71
1, 123167, Control_c, 0, 64, 74
1, 123169, Note_on_c, 0, 84, 70
1, 123181, Control_c, 0, 64, 76
1, 123181, Control_c, 0, 67, 83
1, 123196, Control_c, 0, 64, 77
1, 123200, Note_off_c, 0, 84, 64
1, 123211, Control_c, 0, 64, 79
1, 123220, Note_on_c, 0, 81, 62
1, 123225, Control_c, 0, 64, 79
1, 123255, Control_c, 0, 64, 78
1, 123270, Control_c, 0, 64, 71
1, 123279, Note_off_c, 0, 81, 61
1, 123285, Control_c, 0, 64, 62
1, 123287, Note_on_c, 0, 41, 44
1, 123289, Note_on_c, 0, 87, 71
1, 123290, Note_off_c, 0, 53, 46
1, 123299, Control_c, 0, 64, 53
1, 123314, Control_c, 0, 64, 51
1, 123330, Control_c, 0, 64, 53
1, 123345, Control_c, 0, 64, 58
1, 123360, Control_c, 0, 64, 62
1, 123375, Control_c, 0, 64, 64
1, 123375, Note_on_c, 0, 84, 67
1, 123390, Control_c, 0, 64, 66
1, 123393, Note_off_c, 0, 87, 58
1, 123404, Control_c, 0, 64, 68
1, 123419, Control_c, 0, 64, 70
1, 123429, Note_on_c, 0, 81, 50
1, 123434, Control_c, 0, 64, 73
1, 123456, Control_c, 0, 64, 77
1, 123462, Note_off_c, 0, 84, 63
1, 123471, Control_c, 0, 64, 81
1, 123486, Control_c, 0, 64, 83
1, 123487, Note_off_c, 0, 81, 56
1, 123501, Control_c, 0, 64, 85
1, 123516, Control_c, 0, 64, 86
1, 123517, Note_on_c, 0, 75, 60
1, 123530, Control_c, 0, 64, 87
1, 123545, Note_off_c, 0, 75, 67
1, 123560, Control_c, 0, 64, 83
1, 123575, Control_c, 0, 64, 74
1, 123584, Note_on_c, 0, 84, 69
1, 123589, Note_on_c, 0, 45, 43
1, 123590, Control_c, 0, 64, 64
1, 123604, Control_c, 0, 64, 58
1, 123634, Control_c, 0, 64, 60
1, 123648, Control_c, 0, 64, 64
1, 123653, Note_on_c, 0, 81, 53
1, 123656, Note_off_c, 0, 84, 55
1, 123663, Control_c, 0, 64, 66
1, 123678, Control_c, 0, 64, 68
1, 123693, Control_c, 0, 64, 70
1, 123708, Control_c, 0, 64, 74
1, 123715, Note_on_c, 0, 75, 61
1, 123723, Control_c, 0, 64, 78
1, 123733, Note_off_c, 0, 81, 62
1, 123737, Control_c, 0, 64, 82
1, 123752, Control_c, 0, 64, 85
1, 123760, Note_off_c, 0, 75, 56
1, 123767, Control_c, 0, 64, 86
1, 123782, Control_c, 0, 64, 87
1, 123796, Control_c, 0, 67, 83
1, 123798, Note_on_c, 0, 72, 50
1, 123811, Control_c, 0, 64, 83
1, 123826, Control_c, 0, 64, 75
1, 123829, Note_off_c, 0, 72, 54
1, 123841, Control_c, 0, 64, 65
1, 123853, Note_on_c, 0, 81, 74
1, 123855, Note_on_c, 0, 48, 44
1, 123855, Control_c, 0, 64, 57
1, 123870, Control_c, 0, 64, 56
1, 123885, Control_c, 0, 64, 58
1, 123900, Control_c, 0, 64, 61
1, 123915, Control_c, 0, 64, 63
1, 123927, Note_on_c, 0, 75, 53
1, 123930, Control_c, 0, 64, 64
1, 123945, Control_c, 0, 64, 65
1, 123952, Note_off_c, 0, 81, 52
1, 123960, Control_c, 0, 64, 67
1, 123975, Control_c, 0, 64, 69
1, 123983, Note_on_c, 0, 72, 56
1, 123990, Control_c, 0, 64, 73
1, 123998, Note_off_c, 0, 75, 62
1, 124004, Control_c, 0, 64, 78
1, 124019, Control_c, 0, 64, 83
1, 124025, Note_off_c, 0, 72, 65
1, 124034, Control_c, 0, 64, 84
1, 124048, Control_c, 0, 64, 82
1, 124058, Note_on_c, 0, 69, 63
1, 124063, Control_c, 0, 64, 73
1, 124078, Control_c, 0, 64, 64
1, 124093, Control_c, 0, 64, 59
1, 124108, Control_c, 0, 64, 60
1, 124108, Control_c, 0, 67, 82
1, 124117, Note_off_c, 0, 48, 63
1, 124124, Control_c, 0, 64, 62
1, 124133, Note_on_c, 0, 53, 50
1, 124136, Note_off_c, 0, 69, 61
1, 124139, Note_on_c, 0, 75, 59
1, 124139, Control_c, 0, 64, 65
1, 124153, Control_c, 0, 64, 67
1, 124168, Control_c, 0, 64, 68
1, 124179, Note_off_c, 0, 45, 48
1, 124183, Control_c, 0, 64, 69
1, 124203, Note_off_c, 0, 41, 54
1, 124218, Note_on_c, 0, 72, 58
1, 124220, Control_c, 0, 64, 70
1, 124220, Control_c, 0, 67, 82
1, 124234, Note_off_c, 0, 75, 49
1, 124264, Control_c, 0, 64, 70
1, 124279, Control_c, 0, 67, 81
1, 124284, Note_on_c, 0, 69, 60
1, 124288, Note_off_c, 0, 72, 62
1, 124294, Control_c, 0, 67, 80
1, 124308, Control_c, 0, 67, 79
1, 124323, Control_c, 0, 67, 78
1, 124338, Control_c, 0, 67, 78
1, 124353, Note_off_c, 0, 69, 63
1, 124353, Control_c, 0, 67, 77
1, 124353, Note_on_c, 0, 63, 56
1, 124368, Control_c, 0, 64, 70
1, 124368, Control_c, 0, 67, 76
1, 124383, Control_c, 0, 64, 69
1, 124383, Control_c, 0, 67, 75
1, 124398, Control_c, 0, 64, 68
1, 124398, Control_c, 0, 67, 74
1, 124413, Control_c, 0, 64, 66
1, 124417, Note_off_c, 0, 63, 60
1, 124427, Control_c, 0, 64, 64
1, 124442, Control_c, 0, 64, 61
1, 124452, Note_on_c, 0, 41, 57
1, 124457, Control_c, 0, 64, 57
1, 124472, Control_c, 0, 64, 55
1, 124486, Control_c, 0, 64, 51
1, 124486, Control_c, 0, 67, 75
1, 124501, Control_c, 0, 64, 47
1, 124507, Note_off_c, 0, 53, 49
1, 124516, Control_c, 0, 64, 42
1, 124516, Control_c, 0, 67, 75
1, 124531, Control_c, 0, 64, 39
1, 124531, Control_c, 0, 67, 76
1, 124545, Control_c, 0, 64, 38
1, 124560, Control_c, 0, 64, 37
1, 124560, Control_c, 0, 67, 76
1, 124590, Control_c, 0, 64, 37
1, 124604, Control_c, 0, 64, 36
1, 124649, Control_c, 0, 67, 77
1, 124708, Control_c, 0, 64, 37
1, 124738, Control_c, 0, 64, 38
1, 124753, Control_c, 0, 64, 38
1, 124768, Control_c, 0, 64, 39
1, 124770, Note_on_c, 0, 73, 58
1, 124775, Note_on_c, 0, 46, 40
1, 124782, Control_c, 0, 64, 40
1, 124797, Control_c, 0, 64, 42
1, 124812, Control_c, 0, 64, 45
1, 124826, Note_off_c, 0, 73, 61
1, 124827, Control_c, 0, 64, 48
1, 124842, Control_c, 0, 64, 49
1, 124857, Control_c, 0, 64, 50
1, 124859, Note_on_c, 0, 72, 61
1, 124871, Control_c, 0, 64, 52
1, 124886, Control_c, 0, 64, 54
1, 124901, Control_c, 0, 64, 57
1, 124915, Note_off_c, 0, 72, 64
1, 124916, Control_c, 0, 64, 60
1, 124928, Note_on_c, 0, 73, 60
1, 124931, Control_c, 0, 64, 62
1, 124954, Control_c, 0, 64, 64
1, 124963, Note_off_c, 0, 73, 68
1, 124969, Control_c, 0, 64, 66
1, 124982, Note_on_c, 0, 70, 66
1, 124983, Control_c, 0, 64, 67
1, 124998, Control_c, 0, 64, 68
1, 125013, Control_c, 0, 64, 68
1, 125015, Note_off_c, 0, 70, 63
1, 125027, Control_c, 0, 64, 68
1, 125035, Note_on_c, 0, 77, 70
1, 125038, Note_on_c, 0, 49, 49
1, 125042, Control_c, 0, 64, 65
1, 125057, Control_c, 0, 64, 60
1, 125072, Control_c, 0, 64, 55
1, 125087, Control_c, 0, 64, 51
1, 125092, Note_off_c, 0, 77, 64
1, 125101, Control_c, 0, 64, 50
1, 125111, Note_on_c, 0, 76, 76
1, 125116, Control_c, 0, 64, 51
1, 125116, Control_c, 0, 67, 76
1, 125131, Control_c, 0, 64, 53
1, 125146, Control_c, 0, 64, 57
1, 125161, Control_c, 0, 64, 62
1, 125161, Control_c, 0, 67, 76
1, 125169, Note_off_c, 0, 76, 64
1, 125175, Note_on_c, 0, 77, 68
1, 125176, Control_c, 0, 64, 65
1, 125176, Control_c, 0, 67, 75
1, 125191, Control_c, 0, 64, 68
1, 125191, Control_c, 0, 67, 74
1, 125206, Control_c, 0, 64, 71
1, 125206, Control_c, 0, 67, 73
1, 125220, Control_c, 0, 64, 75
1, 125220, Control_c, 0, 67, 71
1, 125230, Note_on_c, 0, 73, 64
1, 125230, Note_off_c, 0, 77, 66
1, 125235, Control_c, 0, 64, 79
1, 125235, Control_c, 0, 67, 70
1, 125250, Control_c, 0, 67, 65
1, 125265, Control_c, 0, 64, 78
1, 125265, Control_c, 0, 67, 59
1, 125271, Note_off_c, 0, 73, 62
1, 125280, Control_c, 0, 64, 74
1, 125280, Control_c, 0, 67, 52
1, 125295, Note_on_c, 0, 82, 79
1, 125295, Control_c, 0, 64, 68
1, 125295, Control_c, 0, 67, 45
1, 125298, Note_on_c, 0, 53, 59
1, 125303, Note_off_c, 0, 49, 58
1, 125309, Control_c, 0, 64, 64
1, 125309, Control_c, 0, 67, 36
1, 125324, Control_c, 0, 64, 64
1, 125324, Control_c, 0, 67, 25
1, 125339, Control_c, 0, 64, 65
1, 125339, Control_c, 0, 67, 18
1, 125349, Note_off_c, 0, 82, 66
1, 125354, Control_c, 0, 64, 67
1, 125354, Control_c, 0, 67, 0
1, 125368, Control_c, 0, 64, 69
1, 125370, Note_on_c, 0, 81, 77
1, 125383, Control_c, 0, 64, 70
1, 125388, Note_off_c, 0, 46, 38
1, 125398, Control_c, 0, 64, 72
1, 125412, Note_off_c, 0, 41, 57
1, 125413, Control_c, 0, 64, 74
1, 125427, Control_c, 0, 64, 77
1, 125437, Note_on_c, 0, 82, 85
1, 125442, Control_c, 0, 64, 79
1, 125450, Note_off_c, 0, 81, 63
1, 125457, Control_c, 0, 64, 84
1, 125472, Control_c, 0, 64, 89
1, 125487, Control_c, 0, 64, 95
1, 125490, Note_off_c, 0, 82, 66
1, 125494, Note_on_c, 0, 77, 80
1, 125501, Control_c, 0, 64, 101
1, 125516, Control_c, 0, 64, 103
1, 125546, Control_c, 0, 64, 100
1, 125556, Note_off_c, 0, 77, 64
1, 125561, Control_c, 0, 64, 85
1, 125563, Note_on_c, 0, 85, 91
1, 125569, Note_off_c, 0, 53, 48
1, 125575, Control_c, 0, 64, 69
1, 125577, Note_on_c, 0, 40, 59
1, 125590, Control_c, 0, 64, 57
1, 125605, Control_c, 0, 64, 52
1, 125620, Control_c, 0, 64, 54
1, 125635, Control_c, 0, 64, 60
1, 125650, Control_c, 0, 64, 65
1, 125653, Note_on_c, 0, 82, 77
1, 125665, Control_c, 0, 64, 67
1, 125672, Note_off_c, 0, 85, 63
1, 125680, Control_c, 0, 64, 70
1, 125702, Control_c, 0, 64, 73
1, 125718, Control_c, 0, 64, 78
1, 125727, Note_on_c, 0, 79, 61
1, 125733, Control_c, 0, 64, 83
1, 125748, Control_c, 0, 64, 89
1, 125758, Note_off_c, 0, 82, 63
1, 125763, Control_c, 0, 64, 95
1, 125778, Control_c, 0, 64, 102
1, 125790, Note_off_c, 0, 79, 67
1, 125793, Control_c, 0, 64, 110
1, 125807, Control_c, 0, 64, 122
1, 125808, Note_on_c, 0, 73, 71
1, 125822, Control_c, 0, 64, 127
1, 125851, Control_c, 0, 64, 97
1, 125854, Note_on_c, 0, 46, 73
1, 125859, Note_off_c, 0, 73, 65
1, 125866, Control_c, 0, 64, 77
1, 125867, Note_on_c, 0, 82, 88
1, 125881, Control_c, 0, 64, 63
1, 125896, Control_c, 0, 64, 56
1, 125911, Control_c, 0, 64, 57
1, 125925, Control_c, 0, 64, 60
1, 125930, Note_on_c, 0, 79, 66
1, 125940, Control_c, 0, 64, 65
1, 125955, Control_c, 0, 64, 68
1, 125960, Note_off_c, 0, 82, 64
1, 125970, Control_c, 0, 64, 72
1, 125985, Control_c, 0, 64, 76
1, 125998, Note_on_c, 0, 73, 78
1, 125999, Control_c, 0, 64, 83
1, 126014, Control_c, 0, 64, 92
1, 126028, Note_off_c, 0, 79, 66
1, 126029, Control_c, 0, 64, 104
1, 126044, Control_c, 0, 64, 127
1, 126070, Note_on_c, 0, 70, 82
1, 126075, Note_off_c, 0, 73, 63
1, 126114, Note_off_c, 0, 70, 65
1, 126133, Control_c, 0, 64, 85
1, 126136, Note_on_c, 0, 49, 76
1, 126141, Note_on_c, 0, 79, 88
1, 126148, Control_c, 0, 64, 62
1, 126163, Control_c, 0, 64, 47
1, 126177, Control_c, 0, 64, 41
1, 126192, Control_c, 0, 64, 43
1, 126207, Control_c, 0, 64, 53
1, 126222, Control_c, 0, 64, 62
1, 126225, Note_on_c, 0, 73, 81
1, 126237, Control_c, 0, 64, 65
1, 126251, Control_c, 0, 64, 69
1, 126252, Note_off_c, 0, 79, 63
1, 126266, Control_c, 0, 64, 73
1, 126281, Control_c, 0, 64, 81
1, 126288, Note_on_c, 0, 70, 77
1, 126296, Control_c, 0, 64, 93
1, 126311, Note_off_c, 0, 73, 63
1, 126311, Control_c, 0, 64, 120
1, 126325, Control_c, 0, 64, 127
1, 126344, Note_on_c, 0, 67, 73
1, 126351, Note_off_c, 0, 70, 62
1, 126384, Control_c, 0, 64, 86
1, 126399, Control_c, 0, 64, 64
1, 126405, Note_on_c, 0, 52, 79
1, 126414, Control_c, 0, 64, 48
1, 126415, Note_on_c, 0, 73, 93
1, 126417, Note_off_c, 0, 67, 63
1, 126429, Control_c, 0, 64, 46
1, 126450, Note_off_c, 0, 49, 59
1, 126450, Control_c, 0, 64, 53
1, 126465, Control_c, 0, 64, 64
1, 126480, Control_c, 0, 64, 69
1, 126495, Control_c, 0, 64, 74
1, 126498, Note_on_c, 0, 70, 78
1, 126510, Control_c, 0, 64, 78
1, 126526, Control_c, 0, 64, 81
1, 126527, Note_off_c, 0, 73, 64
1, 126541, Control_c, 0, 64, 82
1, 126553, Note_off_c, 0, 46, 61
1, 126555, Control_c, 0, 64, 84
1, 126564, Note_off_c, 0, 40, 63
1, 126568, Note_on_c, 0, 68, 63
1, 126570, Control_c, 0, 64, 84
1, 126579, Note_on_c, 0, 67, 83
1, 126585, Control_c, 0, 64, 86
1, 126591, Note_off_c, 0, 68, 64
1, 126592, Note_off_c, 0, 70, 64
1, 126599, Control_c, 0, 64, 88
1, 126614, Control_c, 0, 64, 89
1, 126629, Control_c, 0, 64, 90
1, 126641, Note_on_c, 0, 61, 82
1, 126644, Control_c, 0, 64, 91
1, 126646, Note_off_c, 0, 67, 65
1, 126659, Control_c, 0, 64, 93
1, 126673, Control_c, 0, 64, 95
1, 126688, Control_c, 0, 64, 95
1, 126693, Note_off_c, 0, 61, 64
1, 126703, Control_c, 0, 64, 96
1, 126718, Control_c, 0, 64, 95
1, 126733, Note_on_c, 0, 39, 89
1, 126733, Control_c, 0, 64, 86
1, 126747, Control_c, 0, 64, 65
1, 126757, Note_off_c, 0, 52, 60
1, 126762, Control_c, 0, 64, 0
1, 127027, Note_on_c, 0, 46, 70
1, 127027, Note_on_c, 0, 73, 86
1, 127097, Note_off_c, 0, 73, 62
1, 127099, Note_on_c, 0, 72, 84
1, 127171, Note_on_c, 0, 73, 81
1, 127173, Note_off_c, 0, 72, 65
1, 127199, Control_c, 0, 64, 39
1, 127214, Control_c, 0, 64, 51
1, 127227, Note_off_c, 0, 73, 68
1, 127229, Control_c, 0, 64, 59
1, 127242, Note_on_c, 0, 70, 82
1, 127244, Control_c, 0, 64, 62
1, 127259, Control_c, 0, 64, 61
1, 127273, Control_c, 0, 64, 60
1, 127288, Control_c, 0, 64, 58
1, 127291, Note_off_c, 0, 70, 64
1, 127297, Note_on_c, 0, 79, 87
1, 127303, Control_c, 0, 64, 54
1, 127316, Note_on_c, 0, 49, 73
1, 127319, Control_c, 0, 64, 42
1, 127334, Control_c, 0, 64, 0
1, 127364, Note_off_c, 0, 79, 65
1, 127372, Note_on_c, 0, 78, 85
1, 127422, Control_c, 0, 64, 44
1, 127437, Note_off_c, 0, 78, 64
1, 127437, Control_c, 0, 64, 58
1, 127439, Note_on_c, 0, 79, 89
1, 127452, Control_c, 0, 64, 63
1, 127467, Control_c, 0, 64, 65
1, 127482, Control_c, 0, 64, 66
1, 127496, Control_c, 0, 64, 67
1, 127501, Note_on_c, 0, 73, 79
1, 127501, Note_off_c, 0, 79, 68
1, 127511, Control_c, 0, 64, 69
1, 127526, Control_c, 0, 64, 70
1, 127541, Control_c, 0, 64, 72
1, 127542, Note_off_c, 0, 73, 68
1, 127556, Control_c, 0, 64, 73
1, 127558, Note_on_c, 0, 51, 78
1, 127570, Note_on_c, 0, 82, 87
1, 127597, Note_off_c, 0, 49, 52
1, 127624, Note_off_c, 0, 82, 68
1, 127627, Note_on_c, 0, 81, 87
1, 127659, Control_c, 0, 64, 73
1, 127674, Control_c, 0, 64, 74
1, 127689, Control_c, 0, 64, 75
1, 127703, Note_on_c, 0, 82, 91
1, 127704, Control_c, 0, 64, 76
1, 127713, Note_off_c, 0, 81, 63
1, 127719, Control_c, 0, 64, 79
1, 127734, Control_c, 0, 64, 83
1, 127740, Note_off_c, 0, 39, 58
1, 127748, Control_c, 0, 64, 88
1, 127756, Note_off_c, 0, 82, 66
1, 127762, Note_on_c, 0, 79, 93
1, 127763, Control_c, 0, 64, 93
1, 127778, Control_c, 0, 64, 97
1, 127793, Control_c, 0, 64, 99
1, 127808, Poly_aftertouch_c, 0, 49, 127
1, 127822, Note_off_c, 0, 51, 61
1, 127822, Control_c, 0, 64, 94
1, 127837, Control_c, 0, 64, 74
1, 127839, Note_off_c, 0, 79, 65
1, 127842, Note_off_c, 0, 46, 53
1, 127847, Poly_aftertouch_c, 0, 49, 0
1, 127847, Note_on_c, 0, 39, 81
1, 127852, Control_c, 0, 64, 56
1, 127857, Note_on_c, 0, 85, 104
1, 127867, Control_c, 0, 64, 0
1, 127911, Control_c, 0, 64, 43
1, 127926, Control_c, 0, 64, 57
1, 127948, Control_c, 0, 64, 65
1, 127963, Control_c, 0, 64, 69
1, 127978, Control_c, 0, 64, 72
1, 127993, Control_c, 0, 64, 75
1, 128002, Note_on_c, 0, 82, 82
1, 128008, Control_c, 0, 64, 78
1, 128023, Control_c, 0, 64, 80
1, 128028, Note_off_c, 0, 85, 62
1, 128038, Control_c, 0, 64, 83
1, 128053, Control_c, 0, 64, 84
1, 128067, Note_on_c, 0, 79, 74
1, 128067, Control_c, 0, 64, 85
1, 128082, Control_c, 0, 64, 87
1, 128097, Note_off_c, 0, 82, 64
1, 128097, Control_c, 0, 64, 91
1, 128112, Control_c, 0, 64, 96
1, 128127, Control_c, 0, 64, 103
1, 128130, Note_off_c, 0, 79, 66
1, 128142, Control_c, 0, 64, 112
1, 128149, Note_on_c, 0, 73, 81
1, 128157, Control_c, 0, 64, 122
1, 128172, Control_c, 0, 64, 127
1, 128187, Control_c, 0, 64, 124
1, 128202, Control_c, 0, 64, 104
1, 128204, Note_on_c, 0, 46, 79
1, 128207, Note_off_c, 0, 73, 61
1, 128210, Note_on_c, 0, 82, 88
1, 128216, Control_c, 0, 64, 85
1, 128231, Control_c, 0, 64, 70
1, 128256, Note_on_c, 0, 80, 51
1, 128261, Control_c, 0, 64, 60
1, 128276, Control_c, 0, 64, 63
1, 128282, Note_off_c, 0, 80, 59
1, 128282, Note_on_c, 0, 79, 68
1, 128291, Control_c, 0, 64, 67
1, 128306, Control_c, 0, 64, 71
1, 128320, Control_c, 0, 64, 75
1, 128330, Note_off_c, 0, 82, 57
1, 128335, Control_c, 0, 64, 79
1, 128350, Note_on_c, 0, 73, 72
1, 128350, Control_c, 0, 64, 84
1, 128364, Control_c, 0, 64, 90
1, 128379, Control_c, 0, 64, 97
1, 128382, Note_off_c, 0, 79, 66
1, 128394, Control_c, 0, 64, 103
1, 128409, Control_c, 0, 64, 107
1, 128419, Note_on_c, 0, 70, 78
1, 128420, Note_off_c, 0, 73, 63
1, 128453, Control_c, 0, 64, 103
1, 128461, Note_off_c, 0, 70, 66
1, 128468, Control_c, 0, 64, 85
1, 128479, Note_on_c, 0, 49, 73
1, 128483, Control_c, 0, 64, 66
1, 128486, Note_on_c, 0, 79, 91
1, 128498, Control_c, 0, 64, 48
1, 128512, Control_c, 0, 64, 33
1, 128527, Control_c, 0, 64, 32
1, 128542, Control_c, 0, 64, 43
1, 128557, Control_c, 0, 64, 56
1, 128571, Note_on_c, 0, 73, 74
1, 128571, Control_c, 0, 64, 63
1, 128586, Control_c, 0, 64, 66
1, 128587, Note_off_c, 0, 79, 61
1, 128601, Control_c, 0, 64, 69
1, 128616, Control_c, 0, 64, 73
1, 128623, Note_on_c, 0, 70, 70
1, 128631, Control_c, 0, 64, 82
1, 128646, Control_c, 0, 64, 93
1, 128653, Note_off_c, 0, 73, 62
1, 128661, Control_c, 0, 64, 103
1, 128674, Note_off_c, 0, 70, 61
1, 128676, Control_c, 0, 64, 107
1, 128685, Note_on_c, 0, 67, 74
1, 128713, Control_c, 0, 64, 98
1, 128727, Control_c, 0, 64, 79
1, 128742, Control_c, 0, 64, 60
1, 128757, Control_c, 0, 64, 45
1, 128760, Note_off_c, 0, 67, 63
1, 128761, Note_on_c, 0, 51, 74
1, 128765, Note_on_c, 0, 73, 88
1, 128768, Note_off_c, 0, 46, 63
1, 128770, Note_off_c, 0, 39, 61
1, 128771, Control_c, 0, 64, 42
1, 128782, Note_off_c, 0, 49, 62
1, 128786, Control_c, 0, 64, 47
1, 128801, Control_c, 0, 64, 57
1, 128816, Control_c, 0, 64, 63
1, 128831, Control_c, 0, 64, 65
1, 128836, Note_on_c, 0, 70, 71
1, 128845, Control_c, 0, 64, 66
1, 128860, Control_c, 0, 64, 68
1, 128866, Note_off_c, 0, 73, 63
1, 128875, Control_c, 0, 64, 70
1, 128890, Control_c, 0, 64, 74
1, 128896, Note_on_c, 0, 67, 64
1, 128905, Control_c, 0, 64, 78
1, 128921, Control_c, 0, 64, 83
1, 128929, Note_off_c, 0, 70, 63
1, 128936, Control_c, 0, 64, 88
1, 128950, Control_c, 0, 64, 93
1, 128959, Note_off_c, 0, 67, 63
1, 128965, Control_c, 0, 64, 98
1, 128980, Control_c, 0, 64, 103
1, 128983, Note_on_c, 0, 61, 76
1, 128994, Control_c, 0, 64, 105
1, 129039, Note_on_c, 0, 39, 83
1, 129039, Note_off_c, 0, 61, 61
1, 129039, Control_c, 0, 64, 89
1, 129051, Note_on_c, 0, 70, 84
1, 129054, Control_c, 0, 64, 70
1, 129058, Note_off_c, 0, 51, 63
1, 129069, Control_c, 0, 64, 52
1, 129084, Control_c, 0, 64, 0
1, 129129, Control_c, 0, 64, 42
1, 129137, Note_on_c, 0, 67, 59
1, 129143, Control_c, 0, 64, 53
1, 129158, Control_c, 0, 64, 58
1, 129173, Control_c, 0, 64, 61
1, 129184, Note_off_c, 0, 70, 56
1, 129188, Control_c, 0, 64, 63
1, 129202, Note_on_c, 0, 61, 72
1, 129202, Control_c, 0, 64, 65
1, 129217, Control_c, 0, 64, 68
1, 129232, Control_c, 0, 64, 72
1, 129233, Note_off_c, 0, 67, 62
1, 129247, Control_c, 0, 64, 77
1, 129261, Control_c, 0, 64, 82
1, 129269, Note_on_c, 0, 58, 75
1, 129275, Note_off_c, 0, 61, 61
1, 129276, Control_c, 0, 64, 86
1, 129291, Control_c, 0, 64, 86
1, 129306, Control_c, 0, 64, 84
1, 129311, Note_off_c, 0, 58, 60
1, 129321, Control_c, 0, 64, 75
1, 129335, Control_c, 0, 64, 62
1, 129346, Note_on_c, 0, 67, 74
1, 129350, Control_c, 0, 64, 50
1, 129365, Control_c, 0, 64, 48
1, 129380, Control_c, 0, 64, 51
1, 129394, Control_c, 0, 64, 59
1, 129409, Control_c, 0, 64, 63
1, 129422, Note_on_c, 0, 61, 63
1, 129424, Control_c, 0, 64, 64
1, 129447, Control_c, 0, 64, 65
1, 129462, Control_c, 0, 64, 66
1, 129474, Note_on_c, 0, 58, 62
1, 129476, Control_c, 0, 64, 67
1, 129491, Control_c, 0, 64, 67
1, 129492, Note_on_c, 0, 41, 76
1, 129506, Control_c, 0, 64, 67
1, 129520, Control_c, 0, 64, 66
1, 129535, Note_off_c, 0, 39, 63
1, 129535, Control_c, 0, 64, 65
1, 129549, Note_on_c, 0, 55, 57
1, 129550, Control_c, 0, 64, 64
1, 129554, Note_off_c, 0, 58, 55
1, 129562, Note_off_c, 0, 61, 49
1, 129624, Control_c, 0, 64, 64
1, 129628, Note_off_c, 0, 55, 60
1, 129639, Control_c, 0, 64, 61
1, 129649, Note_on_c, 0, 43, 81
1, 129654, Control_c, 0, 64, 55
1, 129657, Note_on_c, 0, 63, 71
1, 129661, Note_off_c, 0, 41, 63
1, 129668, Control_c, 0, 64, 45
1, 129683, Control_c, 0, 64, 0
1, 129684, Note_off_c, 0, 67, 45
1, 129749, Note_on_c, 0, 61, 59
1, 129788, Control_c, 0, 64, 40
1, 129803, Control_c, 0, 64, 54
1, 129804, Note_off_c, 0, 63, 56
1, 129817, Note_on_c, 0, 58, 57
1, 129817, Control_c, 0, 64, 61
1, 129832, Control_c, 0, 64, 64
1, 129847, Control_c, 0, 64, 65
1, 129862, Control_c, 0, 64, 65
1, 129871, Note_off_c, 0, 61, 59
1, 129874, Note_on_c, 0, 55, 59
1, 129892, Note_off_c, 0, 58, 58
1, 129936, Control_c, 0, 64, 65
1, 129942, Note_off_c, 0, 55, 58
1, 129960, Note_on_c, 0, 63, 63
1, 129966, Control_c, 0, 64, 64
1, 130011, Control_c, 0, 64, 64
1, 130018, Note_on_c, 0, 61, 62
1, 130068, Note_off_c, 0, 63, 55
1, 130070, Control_c, 0, 64, 63
1, 130087, Note_on_c, 0, 58, 50
1, 130099, Control_c, 0, 64, 62
1, 130102, Note_on_c, 0, 44, 85
1, 130105, Note_off_c, 0, 61, 57
1, 130114, Control_c, 0, 64, 62
1, 130126, Note_on_c, 0, 55, 61
1, 130126, Note_off_c, 0, 58, 63
1, 130129, Control_c, 0, 64, 61
1, 130143, Control_c, 0, 64, 60
1, 130156, Note_off_c, 0, 43, 59
1, 130158, Control_c, 0, 64, 58
1, 130173, Control_c, 0, 64, 58
1, 130255, Note_off_c, 0, 55, 41
1, 130255, Control_c, 0, 64, 57
1, 130261, Note_on_c, 0, 46, 83
1, 130270, Note_on_c, 0, 63, 60
1, 130270, Control_c, 0, 64, 57
1, 130285, Control_c, 0, 64, 56
1, 130294, Note_off_c, 0, 44, 64
1, 130299, Control_c, 0, 64, 56
1, 130363, Note_on_c, 0, 61, 62
1, 130373, Control_c, 0, 64, 56
1, 130403, Control_c, 0, 64, 57
1, 130427, Note_off_c, 0, 63, 37
1, 130432, Control_c, 0, 64, 57
1, 130448, Note_on_c, 0, 58, 55
1, 130468, Note_off_c, 0, 61, 50
1, 130487, Note_off_c, 0, 58, 64
1, 130504, Note_on_c, 0, 55, 56
1, 130562, Note_off_c, 0, 55, 60
1, 130566, Control_c, 0, 64, 58
1, 130585, Note_on_c, 0, 63, 61
1, 130596, Control_c, 0, 64, 58
1, 130611, Control_c, 0, 64, 59
1, 130626, Control_c, 0, 64, 60
1, 130641, Control_c, 0, 64, 60
1, 130645, Note_on_c, 0, 61, 58
1, 130693, Note_off_c, 0, 63, 52
1, 130708, Note_on_c, 0, 58, 49
1, 130714, Control_c, 0, 64, 60
1, 130723, Note_on_c, 0, 48, 85
1, 130726, Note_off_c, 0, 61, 60
1, 130729, Control_c, 0, 64, 59
1, 130739, Note_off_c, 0, 58, 63
1, 130744, Control_c, 0, 64, 59
1, 130748, Note_on_c, 0, 55, 60
1, 130750, Note_off_c, 0, 46, 62
1, 130774, Control_c, 0, 64, 58
1, 130804, Control_c, 0, 64, 57
1, 130819, Control_c, 0, 64, 57
1, 130833, Control_c, 0, 64, 56
1, 130848, Control_c, 0, 64, 56
1, 130852, Note_off_c, 0, 55, 53
1, 130878, Control_c, 0, 64, 55
1, 130879, Note_on_c, 0, 63, 62
1, 130881, Note_on_c, 0, 49, 81
1, 130893, Control_c, 0, 64, 54
1, 130907, Control_c, 0, 64, 53
1, 130914, Note_off_c, 0, 48, 64
1, 130922, Control_c, 0, 64, 52
1, 130944, Control_c, 0, 64, 51
1, 130953, Note_on_c, 0, 61, 58
1, 130959, Control_c, 0, 64, 51
1, 130974, Control_c, 0, 64, 50
1, 130989, Control_c, 0, 64, 50
1, 131002, Note_off_c, 0, 63, 52
1, 131004, Control_c, 0, 64, 49
1, 131019, Control_c, 0, 64, 49
1, 131025, Note_on_c, 0, 58, 52
1, 131033, Control_c, 0, 64, 47
1, 131037, Note_on_c, 0, 48, 84
1, 131042, Note_off_c, 0, 61, 52
1, 131048, Control_c, 0, 64, 46
1, 131059, Note_off_c, 0, 49, 62
1, 131063, Control_c, 0, 64, 46
1, 131065, Note_off_c, 0, 58, 63
1, 131078, Control_c, 0, 64, 45
1, 131080, Note_on_c, 0, 55, 56
1, 131092, Control_c, 0, 64, 45
1, 131107, Control_c, 0, 64, 44
1, 131122, Control_c, 0, 64, 43
1, 131137, Control_c, 0, 64, 43
1, 131166, Control_c, 0, 64, 42
1, 131168, Note_off_c, 0, 55, 52
1, 131181, Control_c, 0, 64, 41
1, 131188, Note_on_c, 0, 63, 54
1, 131196, Note_on_c, 0, 46, 81
1, 131196, Control_c, 0, 64, 40
1, 131211, Control_c, 0, 64, 38
1, 131226, Control_c, 0, 64, 38
1, 131235, Note_off_c, 0, 48, 61
1, 131241, Control_c, 0, 64, 37
1, 131255, Control_c, 0, 64, 36
1, 131263, Note_on_c, 0, 61, 54
1, 131270, Control_c, 0, 64, 35
1, 131281, Note_off_c, 0, 63, 46
1, 131284, Control_c, 0, 64, 34
1, 131299, Control_c, 0, 64, 33
1, 131316, Control_c, 0, 64, 33
1, 131331, Control_c, 0, 64, 32
1, 131338, Note_on_c, 0, 44, 78
1, 131345, Control_c, 0, 64, 0
1, 131346, Note_on_c, 0, 58, 58
1, 131347, Note_off_c, 0, 61, 57
1, 131371, Note_off_c, 0, 46, 63
1, 131385, Note_off_c, 0, 58, 64
1, 131403, Note_on_c, 0, 55, 53
1, 131495, Note_off_c, 0, 55, 48
1, 131515, Note_on_c, 0, 43, 72
1, 131517, Note_on_c, 0, 63, 59
1, 131547, Note_off_c, 0, 44, 64
1, 131588, Note_on_c, 0, 61, 57
1, 131603, Note_off_c, 0, 63, 46
1, 131664, Note_on_c, 0, 58, 57
1, 131691, Note_off_c, 0, 61, 58
1, 131716, Note_off_c, 0, 58, 63
1, 131730, Note_on_c, 0, 55, 58
1, 131791, Note_off_c, 0, 55, 58
1, 131820, Note_on_c, 0, 63, 60
1, 131877, Note_off_c, 0, 63, 54
1, 131887, Note_on_c, 0, 61, 52
1, 131953, Note_on_c, 0, 58, 51
1, 131955, Note_on_c, 0, 44, 75
1, 131962, Note_off_c, 0, 61, 61
1, 131987, Note_off_c, 0, 58, 64
1, 132000, Note_on_c, 0, 55, 54
1, 132004, Note_off_c, 0, 43, 61
1, 132092, Note_off_c, 0, 55, 50
1, 132104, Note_on_c, 0, 46, 74
1, 132120, Note_on_c, 0, 63, 61
1, 132142, Note_off_c, 0, 44, 63
1, 132189, Note_on_c, 0, 61, 55
1, 132213, Note_off_c, 0, 63, 37
1, 132265, Note_on_c, 0, 58, 45
1, 132265, Note_on_c, 0, 44, 75
1, 132266, Note_off_c, 0, 61, 55
1, 132298, Note_off_c, 0, 58, 63
1, 132313, Note_on_c, 0, 55, 59
1, 132347, Note_off_c, 0, 46, 40
1, 132376, Note_off_c, 0, 55, 55
1, 132420, Note_on_c, 0, 63, 59
1, 132422, Note_on_c, 0, 43, 69
1, 132426, Note_off_c, 0, 44, 63
1, 132455, Control_c, 0, 67, 18
1, 132490, Note_off_c, 0, 63, 52
1, 132500, Note_on_c, 0, 61, 50
1, 132530, Control_c, 0, 67, 20
1, 132544, Control_c, 0, 67, 22
1, 132559, Control_c, 0, 67, 24
1, 132574, Note_off_c, 0, 61, 56
1, 132577, Note_on_c, 0, 58, 45
1, 132578, Note_on_c, 0, 41, 65
1, 132592, Note_off_c, 0, 43, 58
1, 132607, Note_off_c, 0, 58, 60
1, 132627, Note_on_c, 0, 55, 54
1, 132633, Control_c, 0, 67, 28
1, 132648, Control_c, 0, 67, 30
1, 132692, Control_c, 0, 67, 33
1, 132700, Note_off_c, 0, 55, 55
1, 132707, Control_c, 0, 67, 36
1, 132722, Control_c, 0, 67, 40
1, 132736, Control_c, 0, 67, 44
1, 132738, Note_on_c, 0, 63, 56
1, 132739, Note_on_c, 0, 39, 63
1, 132751, Control_c, 0, 67, 45
1, 132753, Note_off_c, 0, 41, 59
1, 132766, Control_c, 0, 67, 45
1, 132781, Control_c, 0, 67, 46
1, 132789, Note_off_c, 0, 63, 55
1, 132796, Control_c, 0, 67, 47
1, 132802, Note_on_c, 0, 61, 51
1, 132810, Control_c, 0, 67, 49
1, 132825, Control_c, 0, 67, 51
1, 132840, Control_c, 0, 67, 51
1, 132879, Note_off_c, 0, 61, 61
1, 132886, Note_on_c, 0, 58, 53
1, 132899, Control_c, 0, 67, 52
1, 132930, Control_c, 0, 67, 52
1, 132932, Note_off_c, 0, 58, 63
1, 132945, Control_c, 0, 67, 53
1, 132954, Note_on_c, 0, 55, 46
1, 132960, Control_c, 0, 67, 54
1, 132974, Control_c, 0, 67, 55
1, 132989, Control_c, 0, 67, 56
1, 133004, Control_c, 0, 67, 57
1, 133013, Note_off_c, 0, 55, 51
1, 133019, Control_c, 0, 67, 58
1, 133034, Control_c, 0, 67, 58
1, 133040, Note_on_c, 0, 63, 53
1, 133063, Control_c, 0, 67, 59
1, 133073, Note_off_c, 0, 39, 61
1, 133078, Control_c, 0, 67, 60
1, 133082, Note_off_c, 0, 63, 59
1, 133093, Control_c, 0, 67, 62
1, 133108, Control_c, 0, 67, 65
1, 133116, Note_on_c, 0, 61, 33
1, 133123, Control_c, 0, 67, 66
1, 133138, Control_c, 0, 67, 67
1, 133167, Control_c, 0, 67, 67
1, 133173, Note_on_c, 0, 58, 49
1, 133186, Note_off_c, 0, 61, 57
1, 133190, Control_c, 0, 67, 68
1, 133205, Control_c, 0, 67, 68
1, 133220, Control_c, 0, 67, 70
1, 133227, Note_off_c, 0, 58, 63
1, 133235, Control_c, 0, 67, 70
1, 133247, Note_on_c, 0, 55, 45
1, 133249, Control_c, 0, 67, 71
1, 133264, Control_c, 0, 67, 72
1, 133279, Control_c, 0, 67, 73
1, 133293, Control_c, 0, 67, 74
1, 133306, Note_off_c, 0, 55, 52
1, 133308, Control_c, 0, 67, 74
1, 133323, Control_c, 0, 67, 75
1, 133338, Control_c, 0, 64, 32
1, 133338, Control_c, 0, 67, 76
1, 133343, Note_on_c, 0, 63, 48
1, 133367, Control_c, 0, 64, 33
1, 133367, Control_c, 0, 67, 76
1, 133382, Control_c, 0, 64, 33
1, 133382, Control_c, 0, 67, 77
1, 133385, Note_off_c, 0, 63, 59
1, 133397, Control_c, 0, 64, 34
1, 133397, Control_c, 0, 67, 79
1, 133410, Note_on_c, 0, 61, 34
1, 133412, Control_c, 0, 67, 83
1, 133427, Control_c, 0, 64, 34
1, 133427, Control_c, 0, 67, 85
1, 133442, Control_c, 0, 64, 35
1, 133442, Control_c, 0, 67, 87
1, 133457, Control_c, 0, 64, 35
1, 133457, Control_c, 0, 67, 88
1, 133466, Note_off_c, 0, 61, 53
1, 133472, Control_c, 0, 67, 89
1, 133475, Note_on_c, 0, 58, 42
1, 133486, Control_c, 0, 64, 36
1, 133486, Control_c, 0, 67, 91
1, 133501, Control_c, 0, 64, 36
1, 133501, Control_c, 0, 67, 93
1, 133513, Note_off_c, 0, 58, 62
1, 133516, Control_c, 0, 67, 95
1, 133531, Control_c, 0, 67, 97
1, 133537, Note_on_c, 0, 55, 48
1, 133546, Control_c, 0, 67, 100
1, 133560, Control_c, 0, 67, 102
1, 133575, Control_c, 0, 64, 37
1, 133575, Control_c, 0, 67, 105
1, 133590, Control_c, 0, 67, 107
1, 133592, Note_off_c, 0, 55, 51
1, 133605, Control_c, 0, 64, 38
1, 133620, Control_c, 0, 64, 38
1, 133634, Control_c, 0, 64, 39
1, 133634, Control_c, 0, 67, 110
1, 133636, Note_on_c, 0, 63, 41
1, 133649, Control_c, 0, 64, 40
1, 133664, Control_c, 0, 64, 40
1, 133669, Note_off_c, 0, 63, 55
1, 133679, Control_c, 0, 64, 41
1, 133679, Control_c, 0, 67, 112
1, 133692, Note_on_c, 0, 61, 45
1, 133693, Control_c, 0, 64, 42
1, 133710, Control_c, 0, 64, 43
1, 133725, Control_c, 0, 64, 43
1, 133739, Control_c, 0, 64, 44
1, 133755, Note_on_c, 0, 58, 44
1, 133769, Control_c, 0, 64, 44
1, 133773, Note_off_c, 0, 61, 48
1, 133809, Note_off_c, 0, 58, 58
1, 133830, Note_on_c, 0, 55, 48
1, 133925, Note_on_c, 0, 36, 59
1, 133939, Control_c, 0, 64, 44
1, 133943, Note_off_c, 0, 55, 48
1, 133955, Note_on_c, 0, 64, 48
1, 133984, Control_c, 0, 64, 43
1, 134038, Note_off_c, 0, 64, 58
1, 134050, Note_on_c, 0, 61, 47
1, 134057, Control_c, 0, 67, 110
1, 134123, Note_on_c, 0, 58, 46
1, 134131, Note_off_c, 0, 61, 53
1, 134154, Note_off_c, 0, 58, 59
1, 134175, Note_on_c, 0, 55, 51
1, 134220, Control_c, 0, 64, 43
1, 134235, Note_off_c, 0, 55, 53
1, 134235, Control_c, 0, 67, 108
1, 134262, Note_on_c, 0, 64, 50
1, 134265, Control_c, 0, 64, 42
1, 134309, Control_c, 0, 64, 42
1, 134311, Note_off_c, 0, 64, 58
1, 134323, Note_on_c, 0, 61, 39
1, 134354, Control_c, 0, 64, 41
1, 134380, Note_on_c, 0, 58, 48
1, 134381, Note_off_c, 0, 61, 59
1, 134397, Note_on_c, 0, 38, 65
1, 134398, Control_c, 0, 64, 41
1, 134415, Note_off_c, 0, 58, 54
1, 134428, Control_c, 0, 64, 40
1, 134430, Note_on_c, 0, 55, 46
1, 134443, Control_c, 0, 64, 40
1, 134447, Note_off_c, 0, 36, 57
1, 134457, Control_c, 0, 64, 39
1, 134472, Control_c, 0, 64, 38
1, 134487, Control_c, 0, 64, 37
1, 134502, Control_c, 0, 64, 36
1, 134508, Note_off_c, 0, 55, 52
1, 134518, Control_c, 0, 64, 35
1, 134532, Control_c, 0, 64, 34
1, 134547, Control_c, 0, 64, 33
1, 134552, Note_on_c, 0, 40, 69
1, 134552, Note_on_c, 0, 64, 52
1, 134562, Control_c, 0, 64, 32
1, 134571, Note_off_c, 0, 38, 62
1, 134577, Control_c, 0, 64, 32
1, 134592, Control_c, 0, 64, 0
1, 134612, Note_off_c, 0, 64, 55
1, 134634, Note_on_c, 0, 61, 47
1, 134703, Note_on_c, 0, 58, 49
1, 134730, Note_off_c, 0, 61, 54
1, 134749, Note_off_c, 0, 58, 61
1, 134762, Note_on_c, 0, 55, 49
1, 134824, Note_off_c, 0, 55, 56
1, 134862, Note_on_c, 0, 64, 56
1, 134921, Note_off_c, 0, 64, 55
1, 134930, Note_on_c, 0, 61, 50
1, 134980, Note_on_c, 0, 58, 52
1, 134995, Note_off_c, 0, 61, 61
1, 135009, Note_on_c, 0, 41, 75
1, 135019, Note_off_c, 0, 58, 64
1, 135031, Note_on_c, 0, 55, 50
1, 135043, Note_off_c, 0, 40, 62
1, 135058, Control_c, 0, 67, 106
1, 135115, Note_off_c, 0, 55, 51
1, 135166, Note_on_c, 0, 64, 59
1, 135171, Note_on_c, 0, 43, 74
1, 135185, Note_off_c, 0, 41, 60
1, 135236, Control_c, 0, 67, 104
1, 135249, Note_off_c, 0, 64, 57
1, 135257, Note_on_c, 0, 61, 52
1, 135280, Control_c, 0, 67, 101
1, 135318, Note_on_c, 0, 58, 55
1, 135326, Control_c, 0, 67, 99
1, 135339, Note_off_c, 0, 61, 59
1, 135355, Control_c, 0, 67, 93
1, 135367, Note_off_c, 0, 58, 62
1, 135370, Control_c, 0, 67, 89
1, 135385, Note_on_c, 0, 55, 52
1, 135385, Control_c, 0, 67, 86
1, 135400, Control_c, 0, 67, 82
1, 135415, Control_c, 0, 67, 78
1, 135437, Control_c, 0, 67, 75
1, 135448, Note_off_c, 0, 55, 55
1, 135452, Control_c, 0, 67, 73
1, 135467, Control_c, 0, 67, 73
1, 135486, Note_on_c, 0, 64, 57
1, 135496, Control_c, 0, 67, 72
1, 135550, Note_on_c, 0, 61, 55
1, 135558, Note_off_c, 0, 64, 57
1, 135607, Note_on_c, 0, 58, 51
1, 135620, Note_on_c, 0, 44, 76
1, 135626, Note_off_c, 0, 61, 61
1, 135645, Note_off_c, 0, 58, 65
1, 135657, Note_on_c, 0, 55, 59
1, 135664, Note_off_c, 0, 43, 61
1, 135719, Control_c, 0, 67, 73
1, 135761, Note_off_c, 0, 55, 44
1, 135773, Note_on_c, 0, 46, 76
1, 135778, Control_c, 0, 67, 73
1, 135787, Note_on_c, 0, 64, 59
1, 135818, Note_off_c, 0, 44, 62
1, 135823, Control_c, 0, 67, 74
1, 135837, Control_c, 0, 67, 74
1, 135862, Note_off_c, 0, 64, 58
1, 135867, Control_c, 0, 67, 75
1, 135870, Note_on_c, 0, 61, 54
1, 135896, Control_c, 0, 67, 75
1, 135911, Control_c, 0, 67, 76
1, 135937, Note_on_c, 0, 58, 53
1, 135941, Control_c, 0, 67, 76
1, 135945, Note_on_c, 0, 44, 67
1, 135949, Note_off_c, 0, 61, 54
1, 135956, Control_c, 0, 67, 77
1, 135971, Control_c, 0, 67, 77
1, 135976, Note_off_c, 0, 58, 65
1, 135990, Note_on_c, 0, 55, 52
1, 136001, Control_c, 0, 67, 78
1, 136045, Control_c, 0, 67, 78
1, 136055, Note_off_c, 0, 46, 37
1, 136056, Note_off_c, 0, 55, 55
1, 136093, Note_on_c, 0, 64, 58
1, 136096, Note_off_c, 0, 44, 62
1, 136100, Note_on_c, 0, 43, 67
1, 136171, Note_off_c, 0, 64, 58
1, 136190, Note_on_c, 0, 61, 47
1, 136253, Note_on_c, 0, 58, 49
1, 136259, Note_on_c, 0, 41, 71
1, 136263, Note_off_c, 0, 61, 50
1, 136274, Note_off_c, 0, 43, 59
1, 136296, Note_off_c, 0, 58, 63
1, 136306, Control_c, 0, 67, 78
1, 136307, Note_on_c, 0, 55, 53
1, 136320, Control_c, 0, 67, 77
1, 136335, Control_c, 0, 67, 77
1, 136405, Note_off_c, 0, 55, 46
1, 136423, Note_on_c, 0, 40, 65
1, 136426, Note_on_c, 0, 64, 56
1, 136450, Note_off_c, 0, 41, 57
1, 136477, Note_off_c, 0, 64, 58
1, 136500, Note_on_c, 0, 61, 47
1, 136557, Control_c, 0, 67, 76
1, 136574, Note_on_c, 0, 58, 53
1, 136582, Note_off_c, 0, 61, 60
1, 136621, Note_off_c, 0, 58, 62
1, 136639, Note_on_c, 0, 55, 50
1, 136701, Note_off_c, 0, 55, 54
1, 136736, Note_on_c, 0, 64, 50
1, 136773, Note_off_c, 0, 64, 55
1, 136801, Note_on_c, 0, 61, 47
1, 136858, Note_on_c, 0, 41, 64
1, 136867, Note_on_c, 0, 58, 48
1, 136869, Note_off_c, 0, 61, 56
1, 136899, Note_off_c, 0, 40, 59
1, 136900, Note_off_c, 0, 58, 62
1, 136921, Note_on_c, 0, 55, 50
1, 136989, Note_off_c, 0, 55, 52
1, 137023, Note_on_c, 0, 43, 64
1, 137031, Note_off_c, 0, 41, 61
1, 137035, Note_on_c, 0, 64, 56
1, 137039, Control_c, 0, 67, 77
1, 137089, Note_off_c, 0, 64, 55
1, 137108, Note_on_c, 0, 61, 45
1, 137142, Control_c, 0, 67, 77
1, 137159, Note_off_c, 0, 43, 59
1, 137164, Note_on_c, 0, 41, 63
1, 137180, Note_on_c, 0, 58, 48
1, 137187, Control_c, 0, 67, 78
1, 137201, Note_off_c, 0, 61, 56
1, 137226, Note_off_c, 0, 58, 63
1, 137240, Note_on_c, 0, 55, 52
1, 137275, Control_c, 0, 67, 78
1, 137296, Note_off_c, 0, 55, 56
1, 137301, Note_off_c, 0, 41, 62
1, 137322, Note_on_c, 0, 40, 61
1, 137335, Note_on_c, 0, 64, 53
1, 137350, Control_c, 0, 67, 79
1, 137378, Note_off_c, 0, 64, 62
1, 137380, Control_c, 0, 67, 79
1, 137402, Note_on_c, 0, 61, 47
1, 137439, Control_c, 0, 67, 80
1, 137453, Control_c, 0, 67, 80
1, 137460, Note_off_c, 0, 40, 62
1, 137468, Control_c, 0, 67, 81
1, 137475, Note_on_c, 0, 58, 46
1, 137477, Note_on_c, 0, 38, 55
1, 137481, Note_off_c, 0, 61, 61
1, 137483, Control_c, 0, 67, 81
1, 137498, Control_c, 0, 67, 82
1, 137513, Control_c, 0, 67, 82
1, 137514, Note_off_c, 0, 58, 63
1, 137527, Note_on_c, 0, 55, 52
1, 137527, Control_c, 0, 67, 83
1, 137542, Control_c, 0, 67, 84
1, 137557, Control_c, 0, 67, 84
1, 137572, Control_c, 0, 67, 85
1, 137585, Note_off_c, 0, 55, 55
1, 137587, Control_c, 0, 67, 86
1, 137601, Control_c, 0, 67, 86
1, 137616, Control_c, 0, 67, 88
1, 137631, Control_c, 0, 67, 91
1, 137634, Note_on_c, 0, 64, 50
1, 137636, Note_on_c, 0, 36, 47
1, 137638, Note_off_c, 0, 38, 56
1, 137646, Control_c, 0, 67, 94
1, 137660, Control_c, 0, 67, 98
1, 137671, Note_off_c, 0, 64, 54
1, 137683, Control_c, 0, 67, 101
1, 137698, Control_c, 0, 67, 105
1, 137705, Note_on_c, 0, 61, 47
1, 137714, Control_c, 0, 67, 108
1, 137729, Control_c, 0, 67, 110
1, 137743, Control_c, 0, 67, 113
1, 137773, Control_c, 0, 67, 115
1, 137773, Note_off_c, 0, 61, 60
1, 137785, Note_on_c, 0, 58, 43
1, 137821, Note_off_c, 0, 58, 59
1, 137842, Note_on_c, 0, 55, 49
1, 137891, Note_off_c, 0, 55, 54
1, 137930, Note_on_c, 0, 64, 48
1, 137962, Note_off_c, 0, 64, 58
1, 137965, Control_c, 0, 67, 117
1, 137992, Note_on_c, 0, 61, 42
1, 137995, Control_c, 0, 67, 119
1, 138039, Control_c, 0, 67, 121
1, 138057, Note_off_c, 0, 61, 58
1, 138063, Note_on_c, 0, 58, 43
1, 138083, Note_off_c, 0, 36, 41
1, 138083, Control_c, 0, 67, 124
1, 138092, Note_off_c, 0, 58, 58
1, 138113, Control_c, 0, 67, 126
1, 138117, Note_on_c, 0, 55, 46
1, 138164, Note_off_c, 0, 55, 47
1, 138206, Note_on_c, 0, 64, 43
1, 138243, Note_off_c, 0, 64, 53
1, 138269, Note_on_c, 0, 60, 45
1, 138344, Note_on_c, 0, 58, 42
1, 138356, Note_off_c, 0, 60, 55
1, 138379, Note_off_c, 0, 58, 57
1, 138400, Note_on_c, 0, 55, 47
1, 138466, Note_off_c, 0, 55, 51
1, 138507, Note_on_c, 0, 64, 39
1, 138541, Note_off_c, 0, 64, 56
1, 138571, Note_on_c, 0, 60, 38
1, 138581, Control_c, 0, 64, 37
1, 138596, Control_c, 0, 64, 45
1, 138611, Control_c, 0, 64, 50
1, 138615, Note_off_c, 0, 60, 56
1, 138626, Control_c, 0, 64, 51
1, 138639, Note_on_c, 0, 58, 34
1, 138668, Note_off_c, 0, 58, 58
1, 138694, Note_on_c, 0, 55, 45
1, 138730, Control_c, 0, 64, 51
1, 138745, Control_c, 0, 64, 50
1, 138760, Control_c, 0, 64, 47
1, 138764, Note_off_c, 0, 55, 38
1, 138775, Control_c, 0, 64, 43
1, 138779, Note_on_c, 0, 63, 49
1, 138789, Note_on_c, 0, 29, 43
1, 138789, Control_c, 0, 64, 38
1, 138804, Control_c, 0, 64, 36
1, 138817, Note_off_c, 0, 63, 62
1, 138819, Control_c, 0, 64, 34
1, 138833, Control_c, 0, 64, 34
1, 138843, Note_on_c, 0, 60, 48
1, 138863, Control_c, 0, 64, 33
1, 138878, Control_c, 0, 64, 32
1, 138893, Control_c, 0, 64, 32
1, 138898, Note_off_c, 0, 60, 58
1, 138913, Note_on_c, 0, 57, 43
1, 138952, Control_c, 0, 64, 0
1, 138965, Note_off_c, 0, 57, 62
1, 138989, Note_on_c, 0, 54, 49
1, 139050, Note_off_c, 0, 54, 53
1, 139085, Note_on_c, 0, 63, 47
1, 139120, Note_off_c, 0, 63, 60
1, 139152, Note_on_c, 0, 60, 38
1, 139203, Note_off_c, 0, 60, 50
1, 139207, Note_on_c, 0, 57, 28
1, 139225, Note_on_c, 0, 31, 56
1, 139251, Note_off_c, 0, 57, 51
1, 139267, Note_on_c, 0, 54, 43
1, 139283, Note_off_c, 0, 29, 52
1, 139332, Note_off_c, 0, 54, 53
1, 139389, Note_on_c, 0, 63, 43
1, 139394, Note_on_c, 0, 33, 56
1, 139421, Note_off_c, 0, 63, 56
1, 139427, Note_off_c, 0, 31, 57
1, 139440, Note_on_c, 0, 60, 43
1, 139506, Note_off_c, 0, 60, 54
1, 139509, Note_on_c, 0, 57, 36
1, 139582, Note_off_c, 0, 57, 44
1, 139584, Note_on_c, 0, 54, 49
1, 139649, Note_off_c, 0, 54, 52
1, 139692, Note_on_c, 0, 63, 50
1, 139736, Note_off_c, 0, 63, 60
1, 139750, Note_on_c, 0, 60, 43
1, 139798, Note_on_c, 0, 57, 40
1, 139805, Note_off_c, 0, 60, 50
1, 139839, Note_on_c, 0, 34, 66
1, 139851, Note_off_c, 0, 57, 48
1, 139864, Note_on_c, 0, 54, 47
1, 139906, Note_off_c, 0, 33, 52
1, 139940, Note_off_c, 0, 54, 51
1, 140009, Note_on_c, 0, 63, 55
1, 140011, Note_on_c, 0, 36, 70
1, 140050, Note_off_c, 0, 63, 62
1, 140054, Note_off_c, 0, 34, 60
1, 140087, Note_on_c, 0, 60, 37
1, 140142, Note_on_c, 0, 57, 37
1, 140149, Note_off_c, 0, 60, 41
1, 140213, Control_c, 0, 67, 120
1, 140214, Note_on_c, 0, 54, 49
1, 140227, Note_off_c, 0, 57, 40
1, 140227, Control_c, 0, 67, 115
1, 140242, Control_c, 0, 67, 110
1, 140257, Control_c, 0, 67, 106
1, 140271, Control_c, 0, 67, 101
1, 140282, Note_off_c, 0, 54, 53
1, 140286, Control_c, 0, 67, 97
1, 140301, Control_c, 0, 67, 93
1, 140316, Control_c, 0, 67, 91
1, 140319, Note_on_c, 0, 63, 52
1, 140331, Control_c, 0, 67, 90
1, 140361, Control_c, 0, 67, 90
1, 140364, Note_off_c, 0, 63, 59
1, 140376, Control_c, 0, 67, 89
1, 140376, Note_on_c, 0, 60, 50
1, 140432, Note_on_c, 0, 57, 43
1, 140450, Note_off_c, 0, 60, 55
1, 140472, Note_on_c, 0, 37, 68
1, 140487, Note_on_c, 0, 54, 46
1, 140487, Note_off_c, 0, 57, 53
1, 140528, Note_off_c, 0, 36, 59
1, 140553, Control_c, 0, 67, 90
1, 140584, Note_off_c, 0, 54, 50
1, 140612, Control_c, 0, 67, 90
1, 140633, Note_on_c, 0, 39, 72
1, 140636, Note_on_c, 0, 63, 54
1, 140683, Note_off_c, 0, 37, 63
1, 140687, Note_off_c, 0, 63, 60
1, 140715, Note_on_c, 0, 60, 39
1, 140777, Note_off_c, 0, 60, 47
1, 140783, Note_on_c, 0, 57, 32
1, 140783, Control_c, 0, 67, 91
1, 140799, Note_on_c, 0, 37, 74
1, 140835, Note_off_c, 0, 57, 46
1, 140844, Note_on_c, 0, 54, 50
1, 140847, Note_off_c, 0, 39, 57
1, 140857, Control_c, 0, 67, 91
1, 140909, Note_off_c, 0, 54, 54
1, 140945, Note_off_c, 0, 37, 63
1, 140949, Note_on_c, 0, 36, 71
1, 140960, Note_on_c, 0, 63, 56
1, 141002, Note_off_c, 0, 63, 60
1, 141006, Control_c, 0, 67, 91
1, 141019, Note_on_c, 0, 60, 46
1, 141020, Control_c, 0, 67, 91
1, 141081, Note_off_c, 0, 60, 52
1, 141097, Note_on_c, 0, 57, 38
1, 141102, Note_on_c, 0, 34, 71
1, 141124, Control_c, 0, 67, 91
1, 141125, Note_off_c, 0, 36, 52
1, 141147, Note_off_c, 0, 57, 48
1, 141151, Note_on_c, 0, 54, 48
1, 141212, Note_off_c, 0, 54, 56
1, 141255, Note_off_c, 0, 34, 61
1, 141259, Note_on_c, 0, 33, 64
1, 141264, Note_on_c, 0, 63, 55
1, 141303, Note_off_c, 0, 63, 61
1, 141332, Note_on_c, 0, 60, 43
1, 141390, Note_off_c, 0, 60, 52
1, 141401, Note_on_c, 0, 57, 40
1, 141478, Note_off_c, 0, 57, 44
1, 141485, Note_on_c, 0, 54, 50
1, 141565, Note_off_c, 0, 54, 54
1, 141578, Note_on_c, 0, 63, 52
1, 141617, Note_off_c, 0, 63, 64
1, 141645, Note_on_c, 0, 60, 41
1, 141691, Note_off_c, 0, 60, 51
1, 141695, Control_c, 0, 67, 91
1, 141713, Note_on_c, 0, 57, 33
1, 141723, Note_on_c, 0, 34, 63
1, 141749, Note_off_c, 0, 57, 53
1, 141762, Note_on_c, 0, 54, 45
1, 141762, Note_off_c, 0, 33, 59
1, 141785, Control_c, 0, 67, 92
1, 141827, Note_off_c, 0, 54, 53
1, 141843, Control_c, 0, 67, 92
1, 141880, Note_on_c, 0, 36, 61
1, 141882, Note_on_c, 0, 63, 53
1, 141888, Note_off_c, 0, 34, 60
1, 141916, Note_off_c, 0, 63, 61
1, 141944, Note_on_c, 0, 60, 39
1, 141947, Control_c, 0, 67, 93
1, 142006, Note_off_c, 0, 60, 45
1, 142007, Note_on_c, 0, 57, 36
1, 142011, Note_off_c, 0, 36, 59
1, 142021, Control_c, 0, 67, 93
1, 142030, Note_on_c, 0, 34, 59
1, 142036, Control_c, 0, 67, 94
1, 142066, Control_c, 0, 67, 94
1, 142073, Note_off_c, 0, 57, 45
1, 142083, Note_on_c, 0, 54, 47
1, 142125, Control_c, 0, 67, 95
1, 142137, Note_off_c, 0, 54, 56
1, 142140, Control_c, 0, 67, 95
1, 142160, Note_off_c, 0, 34, 61
1, 142188, Note_on_c, 0, 33, 56
1, 142191, Note_on_c, 0, 63, 51
1, 142227, Note_off_c, 0, 63, 63
1, 142253, Note_on_c, 0, 60, 41
1, 142295, Control_c, 0, 67, 96
1, 142314, Note_off_c, 0, 60, 43
1, 142318, Note_on_c, 0, 57, 41
1, 142333, Note_off_c, 0, 33, 57
1, 142337, Note_on_c, 0, 31, 55
1, 142379, Note_off_c, 0, 57, 47
1, 142388, Note_on_c, 0, 54, 48
1, 142429, Control_c, 0, 67, 98
1, 142474, Note_off_c, 0, 54, 48
1, 142486, Note_on_c, 0, 29, 56
1, 142487, Note_off_c, 0, 31, 63
1, 142503, Note_on_c, 0, 63, 54
1, 142543, Note_off_c, 0, 63, 63
1, 142555, Note_on_c, 0, 60, 46
1, 142623, Note_off_c, 0, 60, 52
1, 142628, Note_on_c, 0, 57, 45
1, 142667, Control_c, 0, 67, 100
1, 142697, Note_off_c, 0, 57, 50
1, 142702, Note_on_c, 0, 54, 52
1, 142740, Control_c, 0, 67, 102
1, 142774, Note_off_c, 0, 54, 50
1, 142793, Note_on_c, 0, 63, 63
1, 142799, Control_c, 0, 67, 104
1, 142844, Note_off_c, 0, 63, 60
1, 142861, Note_on_c, 0, 60, 51
1, 142918, Note_off_c, 0, 60, 58
1, 142931, Note_on_c, 0, 57, 56
1, 142982, Note_off_c, 0, 57, 60
1, 143005, Note_on_c, 0, 54, 58
1, 143089, Control_c, 0, 67, 106
1, 143090, Note_off_c, 0, 54, 52
1, 143103, Note_on_c, 0, 63, 63
1, 143119, Control_c, 0, 67, 110
1, 143134, Control_c, 0, 67, 112
1, 143148, Control_c, 0, 67, 115
1, 143149, Note_off_c, 0, 63, 62
1, 143157, Note_on_c, 0, 60, 55
1, 143163, Control_c, 0, 67, 117
1, 143193, Control_c, 0, 67, 120
1, 143228, Note_on_c, 0, 57, 42
1, 143237, Note_off_c, 0, 60, 57
1, 143273, Note_off_c, 0, 57, 51
1, 143294, Note_on_c, 0, 53, 59
1, 143365, Note_off_c, 0, 53, 46
1, 143392, Note_on_c, 0, 63, 51
1, 143428, Note_off_c, 0, 63, 64
1, 143454, Note_on_c, 0, 60, 54
1, 143500, Note_on_c, 0, 57, 46
1, 143503, Note_off_c, 0, 60, 55
1, 143580, Note_off_c, 0, 57, 51
1, 143593, Note_on_c, 0, 53, 53
1, 143643, Note_off_c, 0, 53, 51
1, 143684, Note_on_c, 0, 63, 57
1, 143722, Note_off_c, 0, 63, 62
1, 143760, Note_on_c, 0, 60, 39
1, 143792, Note_off_c, 0, 60, 54
1, 143817, Note_on_c, 0, 57, 45
1, 143864, Note_off_c, 0, 57, 50
1, 143899, Note_on_c, 0, 53, 38
1, 143941, Note_off_c, 0, 53, 47
1, 143977, Note_on_c, 0, 63, 51
1, 144015, Note_off_c, 0, 63, 63
1, 144045, Note_on_c, 0, 60, 37
1, 144099, Note_off_c, 0, 60, 57
1, 144099, Note_on_c, 0, 57, 43
1, 144163, Note_off_c, 0, 57, 44
1, 144181, Note_on_c, 0, 53, 48
1, 144236, Note_off_c, 0, 53, 51
1, 144272, Note_on_c, 0, 36, 53
1, 144281, Note_on_c, 0, 63, 56
1, 144302, Note_off_c, 0, 29, 54
1, 144322, Note_off_c, 0, 63, 61
1, 144361, Note_on_c, 0, 60, 42
1, 144409, Note_off_c, 0, 60, 56
1, 144425, Note_off_c, 0, 36, 60
1, 144435, Note_on_c, 0, 57, 42
1, 144443, Note_on_c, 0, 34, 58
1, 144475, Note_off_c, 0, 57, 49
1, 144503, Note_on_c, 0, 53, 46
1, 144552, Note_off_c, 0, 53, 51
1, 144591, Note_off_c, 0, 34, 61
1, 144606, Note_on_c, 0, 33, 57
1, 144608, Note_on_c, 0, 63, 50
1, 144640, Note_off_c, 0, 63, 60
1, 144679, Note_on_c, 0, 60, 40
1, 144726, Note_off_c, 0, 60, 50
1, 144752, Note_on_c, 0, 57, 33
1, 144755, Note_off_c, 0, 33, 58
1, 144760, Note_on_c, 0, 31, 57
1, 144787, Note_off_c, 0, 57, 53
1, 144815, Note_on_c, 0, 53, 45
1, 144864, Note_off_c, 0, 53, 47
1, 144915, Note_on_c, 0, 29, 59
1, 144923, Note_off_c, 0, 31, 62
1, 144930, Note_on_c, 0, 63, 47
1, 144963, Note_off_c, 0, 63, 56
1, 144999, Note_on_c, 0, 60, 27
1, 145076, Note_on_c, 0, 57, 36
1, 145079, Note_off_c, 0, 60, 38
1, 145125, Note_off_c, 0, 57, 44
1, 145152, Note_on_c, 0, 53, 47
1, 145208, Note_off_c, 0, 53, 48
1, 145237, Note_on_c, 0, 63, 51
1, 145275, Note_off_c, 0, 63, 63
1, 145311, Note_on_c, 0, 60, 42
1, 145364, Note_off_c, 0, 60, 50
1, 145384, Note_on_c, 0, 57, 30
1, 145429, Note_off_c, 0, 57, 47
1, 145458, Note_on_c, 0, 53, 44
1, 145509, Note_off_c, 0, 53, 44
1, 145550, Note_on_c, 0, 63, 37
1, 145581, Note_off_c, 0, 63, 56
1, 145618, Note_on_c, 0, 60, 39
1, 145676, Control_c, 0, 67, 122
1, 145677, Note_off_c, 0, 60, 48
1, 145714, Note_on_c, 0, 57, 3
1, 145721, Control_c, 0, 67, 125
1, 145736, Control_c, 0, 67, 127
1, 145750, Note_off_c, 0, 57, 41
1, 145765, Note_on_c, 0, 53, 37
1, 145806, Note_off_c, 0, 53, 47
1, 145850, Note_on_c, 0, 63, 44
1, 145882, Note_off_c, 0, 63, 58
1, 145923, Note_on_c, 0, 60, 38
1, 145976, Note_off_c, 0, 60, 47
1, 145983, Note_on_c, 0, 57, 36
1, 146033, Note_off_c, 0, 57, 45
1, 146065, Note_on_c, 0, 53, 36
1, 146120, Note_off_c, 0, 53, 44
1, 146153, Note_on_c, 0, 63, 48
1, 146185, Note_off_c, 0, 63, 57
1, 146215, Note_on_c, 0, 60, 37
1, 146278, Note_off_c, 0, 60, 50
1, 146288, Note_on_c, 0, 57, 32
1, 146336, Note_off_c, 0, 57, 46
1, 146371, Note_on_c, 0, 53, 39
1, 146427, Note_off_c, 0, 53, 43
1, 146463, Note_on_c, 0, 63, 43
1, 146495, Note_off_c, 0, 63, 57
1, 146519, Note_on_c, 0, 60, 43
1, 146585, Note_off_c, 0, 60, 54
1, 146594, Note_on_c, 0, 57, 33
1, 146636, Note_off_c, 0, 57, 50
1, 146677, Note_on_c, 0, 53, 34
1, 146733, Note_off_c, 0, 53, 42
1, 146758, Note_on_c, 0, 36, 50
1, 146778, Note_on_c, 0, 63, 47
1, 146792, Note_off_c, 0, 29, 56
1, 146820, Note_off_c, 0, 63, 61
1, 146867, Note_on_c, 0, 60, 37
1, 146910, Note_off_c, 0, 36, 60
1, 146913, Note_off_c, 0, 60, 47
1, 146928, Note_on_c, 0, 34, 56
1, 146941, Note_on_c, 0, 57, 27
1, 146980, Note_off_c, 0, 57, 51
1, 147015, Note_on_c, 0, 53, 29
1, 147054, Note_off_c, 0, 53, 45
1, 147068, Note_off_c, 0, 34, 61
1, 147091, Note_on_c, 0, 33, 50
1, 147100, Note_on_c, 0, 63, 42
1, 147130, Note_off_c, 0, 63, 58
1, 147176, Note_on_c, 0, 60, 33
1, 147223, Note_off_c, 0, 33, 58
1, 147234, Note_off_c, 0, 60, 47
1, 147246, Note_on_c, 0, 31, 47
1, 147252, Note_on_c, 0, 57, 32
1, 147296, Note_off_c, 0, 57, 49
1, 147330, Note_on_c, 0, 53, 36
1, 147372, Note_off_c, 0, 53, 47
1, 147413, Note_on_c, 0, 29, 58
1, 147419, Note_off_c, 0, 31, 58
1, 147435, Note_on_c, 0, 63, 50
1, 147474, Note_off_c, 0, 63, 61
1, 147509, Note_on_c, 0, 60, 37
1, 147578, Note_on_c, 0, 57, 38
1, 147602, Note_off_c, 0, 60, 49
1, 147643, Note_off_c, 0, 57, 43
1, 147659, Note_on_c, 0, 53, 43
1, 147705, Note_off_c, 0, 53, 49
1, 147755, Note_on_c, 0, 63, 58
1, 147804, Note_off_c, 0, 63, 58
1, 147846, Note_on_c, 0, 60, 41
1, 147892, Note_off_c, 0, 60, 47
1, 147908, Note_on_c, 0, 57, 32
1, 147944, Note_off_c, 0, 57, 53
1, 147968, Note_on_c, 0, 53, 40
1, 148016, Note_off_c, 0, 53, 46
1, 148048, Note_on_c, 0, 36, 60
1, 148058, Note_on_c, 0, 63, 56
1, 148093, Note_off_c, 0, 29, 53
1, 148102, Note_off_c, 0, 63, 61
1, 148143, Note_on_c, 0, 60, 39
1, 148207, Note_on_c, 0, 57, 30
1, 148207, Note_off_c, 0, 36, 62
1, 148207, Note_off_c, 0, 60, 51
1, 148212, Control_c, 0, 67, 125
1, 148212, Note_on_c, 0, 34, 68
1, 148242, Control_c, 0, 67, 122
1, 148246, Note_off_c, 0, 57, 51
1, 148257, Control_c, 0, 67, 119
1, 148275, Note_on_c, 0, 53, 46
1, 148287, Control_c, 0, 67, 117
1, 148315, Note_off_c, 0, 53, 51
1, 148316, Control_c, 0, 67, 115
1, 148345, Control_c, 0, 67, 113
1, 148370, Note_on_c, 0, 63, 55
1, 148372, Note_on_c, 0, 33, 67
1, 148372, Note_off_c, 0, 34, 61
1, 148375, Control_c, 0, 67, 111
1, 148390, Control_c, 0, 67, 109
1, 148405, Control_c, 0, 67, 106
1, 148412, Note_off_c, 0, 63, 61
1, 148419, Control_c, 0, 67, 103
1, 148434, Control_c, 0, 67, 100
1, 148449, Control_c, 0, 67, 98
1, 148464, Control_c, 0, 67, 96
1, 148479, Control_c, 0, 67, 93
1, 148493, Control_c, 0, 67, 90
1, 148508, Note_off_c, 0, 60, 50
1, 148508, Control_c, 0, 67, 88
1, 148520, Note_on_c, 0, 57, 37
1, 148523, Note_on_c, 0, 31, 70
1, 148523, Control_c, 0, 67, 86
1, 148526, Note_off_c, 0, 33, 59
1, 148537, Control_c, 0, 67, 84
1, 148552, Control_c, 0, 67, 81
1, 148553, Note_off_c, 0, 57, 54
1, 148567, Note_on_c, 0, 53, 54
1, 148567, Control_c, 0, 67, 78
1, 148582, Control_c, 0, 67, 73
1, 148597, Control_c, 0, 67, 68
1, 148612, Control_c, 0, 67, 63
1, 148627, Control_c, 0, 67, 57
1, 148642, Control_c, 0, 67, 50
1, 148657, Control_c, 0, 67, 43
1, 148659, Note_off_c, 0, 53, 41
1, 148671, Control_c, 0, 67, 35
1, 148681, Note_on_c, 0, 63, 62
1, 148686, Control_c, 0, 67, 26
1, 148688, Note_on_c, 0, 29, 66
1, 148701, Control_c, 0, 67, 20
1, 148716, Note_off_c, 0, 31, 63
1, 148716, Control_c, 0, 67, 18
1, 148730, Control_c, 0, 67, 0
1, 148738, Note_off_c, 0, 63, 58
1, 148764, Note_on_c, 0, 60, 49
1, 148835, Note_on_c, 0, 57, 48
1, 148880, Note_off_c, 0, 60, 39
1, 148898, Note_off_c, 0, 57, 58
1, 148912, Note_on_c, 0, 53, 60
1, 148967, Note_off_c, 0, 53, 59
1, 149003, Note_on_c, 0, 63, 62
1, 149045, Note_off_c, 0, 63, 63
1, 149077, Note_on_c, 0, 60, 53
1, 149144, Note_on_c, 0, 57, 53
1, 149148, Note_off_c, 0, 60, 55
1, 149190, Note_off_c, 0, 57, 57
1, 149203, Note_on_c, 0, 53, 59
1, 149270, Note_off_c, 0, 53, 50
1, 149292, Note_on_c, 0, 36, 75
1, 149296, Note_on_c, 0, 63, 68
1, 149363, Note_off_c, 0, 63, 60
1, 149364, Note_off_c, 0, 29, 57
1, 149373, Note_on_c, 0, 60, 57
1, 149433, Note_on_c, 0, 57, 49
1, 149455, Note_on_c, 0, 34, 82
1, 149459, Note_off_c, 0, 60, 56
1, 149482, Note_off_c, 0, 36, 59
1, 149490, Note_off_c, 0, 57, 60
1, 149491, Note_on_c, 0, 53, 63
1, 149562, Note_off_c, 0, 53, 55
1, 149597, Note_on_c, 0, 63, 70
1, 149616, Note_on_c, 0, 33, 82
1, 149624, Note_off_c, 0, 34, 62
1, 149669, Note_off_c, 0, 63, 60
1, 149676, Note_on_c, 0, 60, 61
1, 149744, Note_on_c, 0, 57, 55
1, 149786, Note_on_c, 0, 31, 86
1, 149804, Note_off_c, 0, 60, 49
1, 149813, Note_off_c, 0, 33, 62
1, 149817, Note_off_c, 0, 57, 61
1, 149825, Note_on_c, 0, 53, 63
1, 149972, Note_off_c, 0, 53, 47
1, 149991, Note_on_c, 0, 29, 79
1, 149996, Note_on_c, 0, 63, 63
1, 150017, Note_off_c, 0, 31, 65
1, 150053, Note_off_c, 0, 63, 59
1, 150069, Note_on_c, 0, 60, 51
1, 150132, Note_on_c, 0, 57, 57
1, 150163, Note_off_c, 0, 60, 55
1, 150209, Note_off_c, 0, 57, 62
1, 150211, Note_on_c, 0, 53, 58
1, 150271, Note_off_c, 0, 53, 56
1, 150303, Note_on_c, 0, 63, 61
1, 150347, Note_off_c, 0, 63, 62
1, 150376, Note_on_c, 0, 60, 52
1, 150426, Note_on_c, 0, 57, 40
1, 150433, Note_off_c, 0, 60, 52
1, 150455, Note_on_c, 0, 31, 73
1, 150492, Note_on_c, 0, 53, 57
1, 150494, Note_off_c, 0, 57, 41
1, 150502, Note_off_c, 0, 29, 60
1, 150562, Note_off_c, 0, 53, 50
1, 150612, Note_on_c, 0, 33, 75
1, 150616, Note_on_c, 0, 63, 64
1, 150620, Note_off_c, 0, 31, 64
1, 150679, Note_off_c, 0, 63, 57
1, 150689, Note_on_c, 0, 60, 47
1, 150738, Note_on_c, 0, 57, 36
1, 150741, Note_off_c, 0, 60, 48
1, 150757, Note_on_c, 0, 34, 78
1, 150779, Note_off_c, 0, 57, 48
1, 150784, Note_off_c, 0, 33, 63
1, 150788, Note_on_c, 0, 53, 58
1, 150874, Note_off_c, 0, 53, 48
1, 150907, Note_on_c, 0, 36, 81
1, 150912, Note_on_c, 0, 63, 68
1, 150943, Note_off_c, 0, 34, 62
1, 150982, Note_off_c, 0, 63, 57
1, 150990, Note_on_c, 0, 60, 48
1, 151023, Note_on_c, 0, 57, 49
1, 151063, Note_off_c, 0, 60, 56
1, 151075, Note_on_c, 0, 38, 85
1, 151082, Note_off_c, 0, 36, 63
1, 151087, Note_on_c, 0, 53, 66
1, 151096, Note_off_c, 0, 57, 59
1, 151210, Note_off_c, 0, 53, 47
1, 151229, Note_on_c, 0, 63, 68
1, 151230, Note_on_c, 0, 39, 88
1, 151259, Note_off_c, 0, 38, 62
1, 151304, Note_on_c, 0, 60, 52
1, 151312, Note_off_c, 0, 63, 49
1, 151364, Note_on_c, 0, 57, 53
1, 151384, Note_on_c, 0, 40, 88
1, 151403, Note_off_c, 0, 60, 54
1, 151425, Note_off_c, 0, 39, 64
1, 151429, Note_on_c, 0, 53, 65
1, 151437, Note_off_c, 0, 57, 59
1, 151515, Note_off_c, 0, 53, 56
1, 151539, Note_on_c, 0, 41, 84
1, 151545, Note_on_c, 0, 63, 73
1, 151549, Note_off_c, 0, 40, 65
1, 151623, Note_off_c, 0, 63, 59
1, 151631, Note_on_c, 0, 60, 54
1, 151658, Note_on_c, 0, 57, 54
1, 151684, Note_on_c, 0, 43, 86
1, 151700, Note_off_c, 0, 60, 56
1, 151703, Note_off_c, 0, 41, 62
1, 151727, Note_on_c, 0, 53, 66
1, 151736, Note_off_c, 0, 57, 58
1, 151799, Note_off_c, 0, 53, 59
1, 151839, Note_on_c, 0, 63, 73
1, 151843, Note_on_c, 0, 45, 86
1, 151845, Note_off_c, 0, 43, 64
1, 151930, Note_on_c, 0, 60, 61
1, 151940, Note_off_c, 0, 63, 51
1, 151968, Note_on_c, 0, 57, 54
1, 152005, Note_on_c, 0, 46, 93
1, 152014, Note_off_c, 0, 60, 61
1, 152029, Note_off_c, 0, 45, 65
1, 152033, Note_on_c, 0, 53, 67
1, 152045, Note_off_c, 0, 57, 61
1, 152106, Note_off_c, 0, 53, 59
1, 152135, Note_on_c, 0, 63, 68
1, 152174, Note_on_c, 0, 48, 91
1, 152197, Note_off_c, 0, 46, 61
1, 152225, Note_on_c, 0, 60, 66
1, 152240, Note_off_c, 0, 63, 49
1, 152282, Control_c, 0, 64, 33
1, 152297, Control_c, 0, 64, 39
1, 152311, Control_c, 0, 64, 44
1, 152323, Note_on_c, 0, 57, 57
1, 152326, Control_c, 0, 64, 47
1, 152341, Control_c, 0, 64, 49
1, 152356, Control_c, 0, 64, 49
1, 152357, Note_off_c, 0, 60, 52
1, 152368, Note_on_c, 0, 50, 87
1, 152380, Note_off_c, 0, 48, 66
1, 152422, Note_off_c, 0, 57, 63
1, 152431, Note_on_c, 0, 53, 68
1, 152460, Control_c, 0, 64, 49
1, 152490, Control_c, 0, 64, 49
1, 152519, Control_c, 0, 64, 50
1, 152534, Control_c, 0, 64, 50
1, 152549, Control_c, 0, 64, 51
1, 152582, Note_off_c, 0, 53, 59
1, 152591, Note_on_c, 0, 51, 85
1, 152608, Control_c, 0, 64, 50
1, 152623, Control_c, 0, 64, 49
1, 152630, Note_on_c, 0, 41, 60
1, 152638, Control_c, 0, 64, 47
1, 152642, Note_off_c, 0, 50, 63
1, 152660, Control_c, 0, 64, 44
1, 152675, Control_c, 0, 64, 41
1, 152690, Control_c, 0, 64, 38
1, 152705, Control_c, 0, 64, 36
1, 152719, Control_c, 0, 64, 34
1, 152734, Control_c, 0, 64, 33
1, 152749, Control_c, 0, 64, 0
1, 152788, Note_on_c, 0, 52, 70
1, 152954, Note_off_c, 0, 52, 63
1, 152957, Note_on_c, 0, 53, 72
1, 153110, Note_on_c, 0, 55, 77
1, 153121, Note_off_c, 0, 53, 59
1, 153270, Note_on_c, 0, 57, 71
1, 153292, Note_off_c, 0, 55, 60
1, 153372, Control_c, 0, 64, 40
1, 153387, Control_c, 0, 64, 51
1, 153407, Note_off_c, 0, 57, 62
1, 153409, Control_c, 0, 64, 55
1, 153424, Control_c, 0, 64, 52
1, 153434, Note_on_c, 0, 58, 70
1, 153439, Control_c, 0, 64, 39
1, 153454, Control_c, 0, 64, 0
1, 153557, Control_c, 0, 67, 17
1, 153587, Control_c, 0, 67, 21
1, 153599, Note_off_c, 0, 58, 62
1, 153602, Control_c, 0, 64, 40
1, 153605, Note_on_c, 0, 60, 66
1, 153617, Control_c, 0, 64, 50
1, 153617, Control_c, 0, 67, 23
1, 153632, Control_c, 0, 64, 55
1, 153647, Control_c, 0, 64, 57
1, 153661, Control_c, 0, 64, 57
1, 153676, Control_c, 0, 64, 58
1, 153676, Control_c, 0, 67, 27
1, 153691, Control_c, 0, 64, 59
1, 153691, Control_c, 0, 67, 29
1, 153706, Control_c, 0, 64, 60
1, 153721, Control_c, 0, 64, 61
1, 153766, Note_on_c, 0, 62, 68
1, 153766, Control_c, 0, 64, 61
1, 153767, Note_off_c, 0, 60, 60
1, 153781, Control_c, 0, 67, 31
1, 153796, Control_c, 0, 67, 32
1, 153810, Control_c, 0, 64, 62
1, 153810, Control_c, 0, 67, 33
1, 153849, Note_off_c, 0, 41, 52
1, 153855, Control_c, 0, 67, 33
1, 153884, Control_c, 0, 67, 34
1, 153899, Control_c, 0, 67, 35
1, 153914, Control_c, 0, 64, 61
1, 153929, Control_c, 0, 64, 58
1, 153944, Note_on_c, 0, 48, 54
1, 153944, Control_c, 0, 64, 54
1, 153944, Control_c, 0, 67, 35
1, 153946, Note_on_c, 0, 63, 70
1, 153948, Note_on_c, 0, 41, 31
1, 153952, Note_off_c, 0, 62, 59
1, 153958, Control_c, 0, 64, 48
1, 153958, Control_c, 0, 67, 36
1, 153973, Control_c, 0, 64, 41
1, 153973, Control_c, 0, 67, 37
1, 153988, Control_c, 0, 64, 36
1, 153988, Control_c, 0, 67, 38
1, 154003, Control_c, 0, 64, 33
1, 154003, Control_c, 0, 67, 39
1, 154018, Control_c, 0, 64, 0
1, 154018, Control_c, 0, 67, 40
1, 154032, Control_c, 0, 67, 41
1, 154047, Control_c, 0, 67, 43
1, 154062, Control_c, 0, 67, 44
1, 154067, Note_off_c, 0, 51, 59
1, 154076, Control_c, 0, 67, 46
1, 154091, Control_c, 0, 67, 47
1, 154106, Control_c, 0, 67, 48
1, 154121, Control_c, 0, 67, 48
1, 154126, Note_off_c, 0, 63, 61
1, 154135, Note_on_c, 0, 64, 62
1, 154158, Control_c, 0, 67, 49
1, 154173, Control_c, 0, 67, 49
1, 154188, Control_c, 0, 67, 50
1, 154203, Control_c, 0, 67, 52
1, 154218, Control_c, 0, 67, 53
1, 154232, Control_c, 0, 67, 54
1, 154247, Control_c, 0, 67, 56
1, 154262, Control_c, 0, 67, 57
1, 154277, Control_c, 0, 67, 59
1, 154291, Control_c, 0, 67, 60
1, 154306, Control_c, 0, 67, 62
1, 154320, Note_on_c, 0, 65, 64
1, 154321, Control_c, 0, 67, 63
1, 154336, Control_c, 0, 67, 64
1, 154337, Note_off_c, 0, 64, 49
1, 154350, Control_c, 0, 67, 66
1, 154365, Control_c, 0, 67, 68
1, 154380, Control_c, 0, 67, 70
1, 154395, Control_c, 0, 67, 72
1, 154410, Control_c, 0, 67, 74
1, 154425, Control_c, 0, 67, 75
1, 154439, Control_c, 0, 67, 76
1, 154454, Control_c, 0, 67, 77
1, 154470, Control_c, 0, 67, 78
1, 154485, Control_c, 0, 64, 33
1, 154485, Control_c, 0, 67, 79
1, 154499, Control_c, 0, 64, 37
1, 154499, Control_c, 0, 67, 80
1, 154512, Note_on_c, 0, 67, 54
1, 154514, Control_c, 0, 64, 44
1, 154514, Control_c, 0, 67, 81
1, 154529, Control_c, 0, 64, 55
1, 154529, Control_c, 0, 67, 82
1, 154544, Control_c, 0, 64, 60
1, 154544, Control_c, 0, 67, 84
1, 154547, Note_off_c, 0, 65, 60
1, 154559, Control_c, 0, 64, 62
1, 154559, Control_c, 0, 67, 86
1, 154574, Control_c, 0, 64, 63
1, 154574, Control_c, 0, 67, 88
1, 154589, Control_c, 0, 64, 64
1, 154589, Control_c, 0, 67, 89
1, 154594, Note_off_c, 0, 41, 40
1, 154603, Control_c, 0, 64, 65
1, 154603, Control_c, 0, 67, 91
1, 154618, Control_c, 0, 64, 66
1, 154618, Control_c, 0, 67, 92
1, 154633, Control_c, 0, 64, 67
1, 154633, Control_c, 0, 67, 93
1, 154648, Control_c, 0, 67, 94
1, 154663, Control_c, 0, 67, 94
1, 154678, Control_c, 0, 67, 96
1, 154700, Note_off_c, 0, 67, 64
1, 154707, Control_c, 0, 64, 66
1, 154707, Control_c, 0, 67, 99
1, 154712, Note_on_c, 0, 46, 45
1, 154717, Note_on_c, 0, 41, 34
1, 154717, Note_on_c, 0, 69, 56
1, 154722, Control_c, 0, 64, 63
1, 154737, Control_c, 0, 64, 59
1, 154737, Control_c, 0, 67, 102
1, 154752, Control_c, 0, 64, 55
1, 154767, Control_c, 0, 64, 51
1, 154767, Control_c, 0, 67, 104
1, 154781, Control_c, 0, 64, 47
1, 154796, Control_c, 0, 64, 45
1, 154811, Control_c, 0, 64, 42
1, 154825, Control_c, 0, 64, 40
1, 154840, Control_c, 0, 64, 38
1, 154855, Control_c, 0, 64, 37
1, 154855, Control_c, 0, 67, 106
1, 154859, Note_off_c, 0, 48, 44
1, 154870, Control_c, 0, 64, 35
1, 154885, Control_c, 0, 64, 34
1, 154907, Control_c, 0, 64, 33
1, 154922, Control_c, 0, 64, 32
1, 154937, Control_c, 0, 64, 0
1, 154963, Note_on_c, 0, 70, 59
1, 155005, Note_off_c, 0, 69, 37
1, 155040, Control_c, 0, 67, 109
1, 155070, Control_c, 0, 67, 112
1, 155100, Control_c, 0, 67, 114
1, 155159, Control_c, 0, 67, 117
1, 155188, Control_c, 0, 67, 119
1, 155214, Note_on_c, 0, 72, 51
1, 155230, Note_off_c, 0, 70, 53
1, 155293, Control_c, 0, 67, 121
1, 155352, Control_c, 0, 67, 123
1, 155533, Note_on_c, 0, 74, 60
1, 155562, Note_off_c, 0, 72, 46
1, 155700, Control_c, 0, 64, 46
1, 155715, Control_c, 0, 64, 57
1, 155715, Control_c, 0, 67, 126
1, 155729, Control_c, 0, 64, 63
1, 155744, Control_c, 0, 64, 64
1, 155759, Control_c, 0, 64, 65
1, 155774, Control_c, 0, 64, 67
1, 155789, Control_c, 0, 64, 68
1, 155803, Control_c, 0, 64, 70
1, 155818, Control_c, 0, 64, 74
1, 155833, Control_c, 0, 64, 77
1, 155848, Control_c, 0, 64, 79
1, 155862, Control_c, 0, 64, 81
1, 155877, Control_c, 0, 64, 82
1, 155892, Control_c, 0, 64, 83
1, 155896, Note_off_c, 0, 41, 36
1, 155907, Control_c, 0, 64, 85
1, 155921, Control_c, 0, 64, 87
1, 155936, Control_c, 0, 64, 88
1, 155951, Control_c, 0, 64, 89
1, 155959, Note_off_c, 0, 74, 34
1, 155966, Control_c, 0, 64, 90
1, 156130, Control_c, 0, 64, 89
1, 156145, Control_c, 0, 64, 88
1, 156155, Note_on_c, 0, 75, 51
1, 156159, Control_c, 0, 64, 85
1, 156168, Note_on_c, 0, 45, 39
1, 156171, Note_on_c, 0, 72, 38
1, 156174, Note_on_c, 0, 53, 21
1, 156174, Control_c, 0, 64, 81
1, 156181, Note_on_c, 0, 63, 30
1, 156183, Note_on_c, 0, 41, 34
1, 156189, Control_c, 0, 64, 74
1, 156204, Control_c, 0, 64, 67
1, 156219, Control_c, 0, 64, 59
1, 156226, Note_off_c, 0, 46, 39
1, 156234, Control_c, 0, 64, 55
1, 156249, Control_c, 0, 64, 51
1, 156264, Control_c, 0, 64, 47
1, 156278, Control_c, 0, 64, 42
1, 156293, Control_c, 0, 64, 35
1, 156308, Control_c, 0, 64, 0
1, 156804, Control_c, 0, 64, 36
1, 156819, Control_c, 0, 64, 48
1, 156834, Control_c, 0, 64, 55
1, 156849, Control_c, 0, 64, 59
1, 156864, Control_c, 0, 64, 61
1, 156880, Control_c, 0, 64, 63
1, 156894, Control_c, 0, 64, 64
1, 156909, Control_c, 0, 64, 65
1, 156924, Control_c, 0, 64, 66
1, 156939, Control_c, 0, 64, 68
1, 156954, Control_c, 0, 64, 70
1, 156965, Note_off_c, 0, 53, 19
1, 156969, Control_c, 0, 64, 72
1, 156983, Control_c, 0, 64, 74
1, 156998, Control_c, 0, 64, 76
1, 157012, Control_c, 0, 64, 78
1, 157016, Note_off_c, 0, 63, 32
1, 157027, Control_c, 0, 64, 79
1, 157042, Control_c, 0, 64, 81
1, 157057, Control_c, 0, 64, 82
1, 157072, Control_c, 0, 64, 83
1, 157087, Control_c, 0, 64, 84
1, 157101, Control_c, 0, 64, 85
1, 157116, Control_c, 0, 64, 86
1, 157131, Control_c, 0, 64, 86
1, 157154, Control_c, 0, 64, 87
1, 157169, Control_c, 0, 64, 87
1, 157183, Control_c, 0, 64, 88
1, 157213, Control_c, 0, 64, 88
1, 157227, Control_c, 0, 64, 89
1, 157242, Control_c, 0, 64, 89
1, 157272, Control_c, 0, 64, 90
1, 157287, Control_c, 0, 64, 90
1, 157301, Control_c, 0, 64, 91
1, 157316, Control_c, 0, 64, 91
1, 157346, Control_c, 0, 64, 92
1, 157391, Control_c, 0, 64, 92
1, 157480, Control_c, 0, 64, 93
1, 157936, Note_off_c, 0, 72, 32
1, 157952, Note_off_c, 0, 45, 29
1, 157980, Note_off_c, 0, 41, 21
1, 158021, Note_off_c, 0, 75, 38
1, 158273, Control_c, 0, 64, 92
1, 158376, Control_c, 0, 64, 92
1, 158450, Control_c, 0, 64, 91
1, 158511, Control_c, 0, 64, 91
1, 158541, Control_c, 0, 64, 90
1, 158570, Control_c, 0, 64, 90
1, 158600, Control_c, 0, 64, 89
1, 158614, Control_c, 0, 64, 89
1, 158652, Control_c, 0, 64, 88
1, 158667, Control_c, 0, 64, 88
1, 158696, Control_c, 0, 64, 87
1, 158726, Control_c, 0, 64, 87
1, 158741, Control_c, 0, 64, 86
1, 158756, Control_c, 0, 64, 86
1, 158800, Control_c, 0, 64, 85
1, 158860, Control_c, 0, 64, 85
1, 158889, Control_c, 0, 64, 84
1, 158919, Control_c, 0, 64, 84
1, 158934, Control_c, 0, 64, 83
1, 158948, Control_c, 0, 64, 83
1, 158963, Control_c, 0, 64, 82
1, 158978, Control_c, 0, 64, 82
1, 159007, Control_c, 0, 64, 81
1, 159037, Control_c, 0, 64, 81
1, 159052, Control_c, 0, 64, 80
1, 159066, Control_c, 0, 64, 80
1, 159081, Control_c, 0, 64, 79
1, 159096, Control_c, 0, 64, 79
1, 159126, Control_c, 0, 64, 78
1, 159155, Control_c, 0, 64, 78
1, 159170, Control_c, 0, 64, 77
1, 159200, Control_c, 0, 64, 77
1, 159215, Control_c, 0, 64, 76
1, 159245, Control_c, 0, 64, 76
1, 159275, Control_c, 0, 64, 75
1, 159304, Control_c, 0, 64, 75
1, 159334, Control_c, 0, 64, 74
1, 159349, Control_c, 0, 64, 74
1, 159364, Control_c, 0, 64, 73
1, 159379, Control_c, 0, 64, 71
1, 159400, Control_c, 0, 64, 66
1, 159415, Control_c, 0, 64, 59
1, 159429, Control_c, 0, 64, 47
1, 159444, Control_c, 0, 64, 0
1, 159657, Note_on_c, 0, 58, 58
1, 159664, Note_on_c, 0, 62, 46
1, 159708, Note_off_c, 0, 58, 59
1, 159740, Note_on_c, 0, 57, 48
1, 159800, Note_off_c, 0, 57, 49
1, 159808, Note_on_c, 0, 58, 52
1, 159808, Note_off_c, 0, 62, 52
1, 159832, Note_off_c, 0, 58, 61
1, 159856, Note_on_c, 0, 53, 65
1, 159889, Note_off_c, 0, 53, 61
1, 159939, Note_on_c, 0, 34, 46
1, 159942, Note_on_c, 0, 62, 46
1, 159945, Note_on_c, 0, 65, 52
1, 159968, Note_off_c, 0, 62, 53
1, 159969, Note_off_c, 0, 65, 59
1, 159969, Note_off_c, 0, 34, 52
1, 160291, Note_on_c, 0, 62, 54
1, 160291, Note_on_c, 0, 34, 50
1, 160295, Note_on_c, 0, 58, 49
1, 160314, Note_off_c, 0, 62, 62
1, 160316, Note_on_c, 0, 46, 10
1, 160318, Note_off_c, 0, 58, 58
1, 160322, Note_off_c, 0, 34, 60
1, 160363, Note_off_c, 0, 46, 36
1, 160968, Note_on_c, 0, 58, 53
1, 160973, Note_on_c, 0, 62, 51
1, 161015, Note_off_c, 0, 58, 62
1, 161037, Note_on_c, 0, 57, 51
1, 161111, Note_on_c, 0, 58, 59
1, 161114, Note_off_c, 0, 57, 54
1, 161126, Note_off_c, 0, 62, 53
1, 161144, Note_off_c, 0, 58, 65
1, 161162, Note_on_c, 0, 53, 66
1, 161193, Note_off_c, 0, 53, 65
1, 161237, Note_on_c, 0, 34, 52
1, 161239, Note_on_c, 0, 46, 49
1, 161239, Note_on_c, 0, 65, 62
1, 161244, Note_on_c, 0, 62, 53
1, 161259, Note_off_c, 0, 65, 64
1, 161265, Note_off_c, 0, 46, 57
1, 161266, Note_off_c, 0, 62, 59
1, 161269, Note_off_c, 0, 34, 62
1, 161600, Note_on_c, 0, 62, 54
1, 161607, Note_on_c, 0, 58, 49
1, 161611, Note_on_c, 0, 46, 44
1, 161617, Note_on_c, 0, 34, 40
1, 161631, Note_off_c, 0, 58, 60
1, 161632, Note_off_c, 0, 62, 64
1, 161646, Note_off_c, 0, 46, 56
1, 161656, Note_off_c, 0, 34, 51
1, 162203, Note_on_c, 0, 58, 63
1, 162216, Note_on_c, 0, 62, 51
1, 162245, Note_off_c, 0, 58, 64
1, 162253, Control_c, 0, 64, 33
1, 162268, Control_c, 0, 64, 34
1, 162270, Note_on_c, 0, 57, 51
1, 162297, Control_c, 0, 64, 36
1, 162312, Control_c, 0, 64, 42
1, 162327, Control_c, 0, 64, 48
1, 162330, Note_on_c, 0, 58, 66
1, 162335, Note_off_c, 0, 57, 62
1, 162337, Note_off_c, 0, 62, 62
1, 162342, Control_c, 0, 64, 52
1, 162357, Control_c, 0, 64, 55
1, 162366, Note_off_c, 0, 58, 63
1, 162372, Control_c, 0, 64, 55
1, 162393, Note_on_c, 0, 53, 71
1, 162394, Control_c, 0, 64, 54
1, 162409, Control_c, 0, 64, 52
1, 162420, Note_off_c, 0, 53, 65
1, 162423, Control_c, 0, 64, 44
1, 162438, Control_c, 0, 64, 0
1, 162464, Note_on_c, 0, 62, 73
1, 162465, Note_on_c, 0, 65, 69
1, 162505, Note_off_c, 0, 65, 61
1, 162513, Note_off_c, 0, 62, 64
1, 162532, Note_on_c, 0, 61, 61
1, 162591, Note_on_c, 0, 62, 63
1, 162592, Note_off_c, 0, 61, 63
1, 162615, Note_off_c, 0, 62, 63
1, 162632, Control_c, 0, 64, 39
1, 162646, Note_on_c, 0, 58, 75
1, 162646, Control_c, 0, 64, 46
1, 162661, Control_c, 0, 64, 52
1, 162676, Note_off_c, 0, 58, 67
1, 162676, Control_c, 0, 64, 55
1, 162691, Control_c, 0, 64, 54
1, 162706, Control_c, 0, 64, 52
1, 162707, Note_on_c, 0, 70, 79
1, 162720, Control_c, 0, 64, 49
1, 162720, Control_c, 0, 67, 94
1, 162724, Note_on_c, 0, 65, 72
1, 162735, Control_c, 0, 64, 43
1, 162735, Control_c, 0, 67, 41
1, 162739, Note_on_c, 0, 66, 28
1, 162750, Control_c, 0, 64, 36
1, 162750, Control_c, 0, 67, 0
1, 162761, Note_on_c, 0, 64, 42
1, 162765, Control_c, 0, 64, 0
1, 162767, Note_off_c, 0, 70, 58
1, 162767, Note_off_c, 0, 66, 46
1, 162774, Note_off_c, 0, 65, 65
1, 162849, Note_off_c, 0, 64, 63
1, 162854, Note_on_c, 0, 65, 73
1, 162869, Control_c, 0, 64, 32
1, 162884, Control_c, 0, 64, 36
1, 162899, Note_on_c, 0, 62, 77
1, 162899, Control_c, 0, 64, 42
1, 162900, Note_off_c, 0, 65, 64
1, 162913, Control_c, 0, 64, 48
1, 162928, Control_c, 0, 64, 52
1, 162943, Control_c, 0, 64, 50
1, 162944, Note_off_c, 0, 62, 63
1, 162957, Control_c, 0, 64, 45
1, 162967, Note_on_c, 0, 74, 89
1, 162972, Control_c, 0, 64, 36
1, 162984, Note_on_c, 0, 70, 73
1, 162987, Control_c, 0, 64, 0
1, 163027, Note_off_c, 0, 70, 64
1, 163030, Note_on_c, 0, 69, 67
1, 163057, Note_off_c, 0, 74, 61
1, 163105, Note_on_c, 0, 70, 83
1, 163115, Note_off_c, 0, 69, 62
1, 163158, Control_c, 0, 64, 36
1, 163162, Note_off_c, 0, 70, 64
1, 163172, Control_c, 0, 64, 39
1, 163178, Note_on_c, 0, 65, 88
1, 163187, Control_c, 0, 64, 40
1, 163202, Control_c, 0, 64, 33
1, 163215, Note_off_c, 0, 65, 68
1, 163217, Control_c, 0, 64, 0
1, 163244, Note_on_c, 0, 77, 100
1, 163251, Note_on_c, 0, 74, 90
1, 163307, Control_c, 0, 64, 32
1, 163312, Note_off_c, 0, 74, 65
1, 163319, Note_on_c, 0, 73, 86
1, 163322, Control_c, 0, 64, 54
1, 163323, Note_off_c, 0, 77, 62
1, 163336, Control_c, 0, 64, 62
1, 163351, Control_c, 0, 64, 65
1, 163366, Control_c, 0, 64, 65
1, 163381, Control_c, 0, 64, 66
1, 163383, Note_on_c, 0, 74, 76
1, 163395, Control_c, 0, 64, 66
1, 163403, Note_off_c, 0, 74, 71
1, 163404, Note_off_c, 0, 73, 63
1, 163410, Control_c, 0, 64, 68
1, 163425, Control_c, 0, 64, 70
1, 163440, Control_c, 0, 64, 72
1, 163445, Note_on_c, 0, 70, 88
1, 163455, Control_c, 0, 64, 75
1, 163469, Control_c, 0, 64, 78
1, 163484, Control_c, 0, 64, 81
1, 163499, Control_c, 0, 64, 81
1, 163504, Note_off_c, 0, 70, 65
1, 163514, Control_c, 0, 64, 77
1, 163522, Note_on_c, 0, 46, 85
1, 163524, Note_on_c, 0, 82, 105
1, 163529, Control_c, 0, 64, 65
1, 163543, Control_c, 0, 64, 44
1, 163558, Control_c, 0, 64, 0
1, 163586, Note_on_c, 0, 50, 71
1, 163603, Control_c, 0, 64, 43
1, 163618, Control_c, 0, 64, 61
1, 163618, Note_off_c, 0, 46, 61
1, 163633, Control_c, 0, 64, 68
1, 163647, Control_c, 0, 64, 72
1, 163661, Note_on_c, 0, 53, 66
1, 163662, Control_c, 0, 64, 76
1, 163677, Control_c, 0, 64, 78
1, 163678, Note_off_c, 0, 50, 60
1, 163692, Control_c, 0, 64, 79
1, 163706, Control_c, 0, 64, 80
1, 163746, Note_on_c, 0, 58, 67
1, 163757, Note_off_c, 0, 53, 61
1, 163781, Control_c, 0, 64, 78
1, 163788, Note_off_c, 0, 58, 56
1, 163795, Control_c, 0, 64, 74
1, 163810, Control_c, 0, 64, 67
1, 163820, Note_on_c, 0, 46, 67
1, 163825, Control_c, 0, 64, 59
1, 163825, Control_c, 0, 67, 19
1, 163840, Control_c, 0, 64, 53
1, 163854, Control_c, 0, 64, 50
1, 163854, Control_c, 0, 67, 21
1, 163869, Control_c, 0, 64, 50
1, 163872, Note_off_c, 0, 46, 62
1, 163892, Control_c, 0, 64, 48
1, 163892, Control_c, 0, 67, 25
1, 163898, Note_on_c, 0, 50, 60
1, 163907, Control_c, 0, 64, 46
1, 163907, Control_c, 0, 67, 27
1, 163922, Control_c, 0, 64, 43
1, 163937, Control_c, 0, 64, 40
1, 163937, Control_c, 0, 67, 29
1, 163952, Control_c, 0, 64, 39
1, 163960, Note_off_c, 0, 50, 61
1, 163964, Note_on_c, 0, 53, 59
1, 163966, Control_c, 0, 67, 32
1, 163981, Control_c, 0, 64, 38
1, 163981, Control_c, 0, 67, 33
1, 163996, Control_c, 0, 64, 36
1, 164011, Control_c, 0, 64, 34
1, 164026, Control_c, 0, 64, 32
1, 164034, Note_off_c, 0, 53, 63
1, 164041, Control_c, 0, 64, 0
1, 164043, Note_on_c, 0, 58, 58
1, 164056, Control_c, 0, 67, 34
1, 164071, Control_c, 0, 67, 34
1, 164086, Control_c, 0, 67, 35
1, 164086, Note_off_c, 0, 58, 58
1, 164101, Control_c, 0, 67, 35
1, 164115, Control_c, 0, 67, 36
1, 164125, Note_on_c, 0, 46, 61
1, 164130, Control_c, 0, 67, 36
1, 164171, Note_off_c, 0, 46, 63
1, 164175, Control_c, 0, 67, 37
1, 164190, Control_c, 0, 64, 32
1, 164190, Control_c, 0, 67, 37
1, 164193, Note_on_c, 0, 50, 46
1, 164205, Control_c, 0, 64, 39
1, 164219, Control_c, 0, 64, 47
1, 164219, Control_c, 0, 67, 38
1, 164234, Control_c, 0, 64, 55
1, 164234, Control_c, 0, 67, 38
1, 164240, Note_off_c, 0, 50, 61
1, 164249, Control_c, 0, 64, 59
1, 164249, Control_c, 0, 67, 40
1, 164263, Note_on_c, 0, 53, 44
1, 164264, Control_c, 0, 64, 60
1, 164264, Control_c, 0, 67, 40
1, 164293, Control_c, 0, 67, 40
1, 164308, Control_c, 0, 64, 61
1, 164316, Note_off_c, 0, 53, 60
1, 164323, Control_c, 0, 64, 61
1, 164323, Control_c, 0, 67, 39
1, 164333, Note_on_c, 0, 58, 53
1, 164367, Control_c, 0, 64, 61
1, 164382, Control_c, 0, 64, 60
1, 164393, Note_off_c, 0, 82, 61
1, 164396, Note_off_c, 0, 58, 50
1, 164397, Control_c, 0, 64, 60
1, 164407, Note_on_c, 0, 81, 72
1, 164411, Control_c, 0, 64, 59
1, 164424, Note_on_c, 0, 46, 48
1, 164426, Control_c, 0, 64, 58
1, 164441, Control_c, 0, 64, 58
1, 164456, Control_c, 0, 64, 57
1, 164456, Control_c, 0, 67, 39
1, 164467, Note_off_c, 0, 46, 61
1, 164471, Control_c, 0, 64, 56
1, 164474, Note_off_c, 0, 81, 64
1, 164476, Note_on_c, 0, 82, 83
1, 164479, Note_on_c, 0, 50, 49
1, 164515, Control_c, 0, 64, 57
1, 164515, Control_c, 0, 67, 39
1, 164530, Note_off_c, 0, 50, 62
1, 164535, Note_off_c, 0, 82, 65
1, 164542, Note_on_c, 0, 84, 82
1, 164544, Note_on_c, 0, 53, 45
1, 164545, Control_c, 0, 64, 57
1, 164560, Control_c, 0, 64, 58
1, 164575, Control_c, 0, 64, 59
1, 164592, Note_off_c, 0, 53, 61
1, 164604, Note_on_c, 0, 82, 96
1, 164604, Control_c, 0, 64, 58
1, 164604, Control_c, 0, 67, 39
1, 164611, Note_on_c, 0, 58, 59
1, 164619, Control_c, 0, 64, 56
1, 164633, Note_off_c, 0, 84, 66
1, 164641, Control_c, 0, 64, 50
1, 164641, Control_c, 0, 67, 38
1, 164656, Control_c, 0, 64, 41
1, 164659, Note_off_c, 0, 58, 57
1, 164671, Control_c, 0, 64, 34
1, 164676, Note_on_c, 0, 46, 69
1, 164685, Control_c, 0, 64, 0
1, 164686, Note_on_c, 0, 81, 86
1, 164715, Control_c, 0, 64, 33
1, 164727, Note_off_c, 0, 82, 62
1, 164730, Control_c, 0, 64, 38
1, 164744, Control_c, 0, 64, 46
1, 164759, Control_c, 0, 64, 55
1, 164759, Control_c, 0, 67, 39
1, 164767, Note_off_c, 0, 46, 58
1, 164769, Note_on_c, 0, 51, 56
1, 164774, Control_c, 0, 64, 60
1, 164774, Control_c, 0, 67, 39
1, 164789, Control_c, 0, 64, 62
1, 164789, Control_c, 0, 67, 41
1, 164804, Control_c, 0, 67, 41
1, 164817, Note_on_c, 0, 55, 51
1, 164818, Note_off_c, 0, 51, 56
1, 164819, Control_c, 0, 67, 43
1, 164834, Control_c, 0, 67, 46
1, 164842, Note_on_c, 0, 79, 89
1, 164845, Note_off_c, 0, 81, 65
1, 164849, Control_c, 0, 67, 48
1, 164864, Control_c, 0, 64, 62
1, 164864, Control_c, 0, 67, 49
1, 164909, Note_off_c, 0, 55, 58
1, 164909, Control_c, 0, 64, 63
1, 164910, Note_on_c, 0, 58, 54
1, 164953, Control_c, 0, 67, 49
1, 164960, Note_off_c, 0, 58, 58
1, 164968, Control_c, 0, 64, 62
1, 164983, Control_c, 0, 64, 61
1, 164987, Note_on_c, 0, 77, 80
1, 164998, Control_c, 0, 64, 56
1, 165003, Note_off_c, 0, 79, 58
1, 165004, Note_on_c, 0, 46, 58
1, 165013, Control_c, 0, 64, 48
1, 165028, Control_c, 0, 64, 38
1, 165042, Control_c, 0, 64, 0
1, 165054, Note_off_c, 0, 46, 62
1, 165078, Note_on_c, 0, 51, 50
1, 165087, Control_c, 0, 67, 49
1, 165102, Control_c, 0, 64, 34
1, 165102, Control_c, 0, 67, 50
1, 165116, Control_c, 0, 64, 40
1, 165116, Control_c, 0, 67, 51
1, 165123, Note_on_c, 0, 55, 48
1, 165131, Control_c, 0, 64, 46
1, 165131, Control_c, 0, 67, 52
1, 165141, Note_on_c, 0, 75, 77
1, 165146, Control_c, 0, 64, 52
1, 165146, Control_c, 0, 67, 53
1, 165160, Control_c, 0, 64, 56
1, 165160, Control_c, 0, 67, 53
1, 165162, Note_off_c, 0, 51, 55
1, 165167, Note_off_c, 0, 77, 62
1, 165175, Control_c, 0, 64, 59
1, 165175, Control_c, 0, 67, 54
1, 165190, Control_c, 0, 64, 61
1, 165203, Note_off_c, 0, 55, 57
1, 165205, Control_c, 0, 64, 62
1, 165210, Note_on_c, 0, 58, 51
1, 165220, Control_c, 0, 64, 63
1, 165234, Control_c, 0, 64, 63
1, 165252, Note_off_c, 0, 58, 57
1, 165264, Control_c, 0, 64, 63
1, 165279, Control_c, 0, 64, 59
1, 165284, Note_on_c, 0, 46, 60
1, 165294, Control_c, 0, 64, 52
1, 165297, Note_on_c, 0, 74, 74
1, 165308, Control_c, 0, 64, 38
1, 165308, Control_c, 0, 67, 53
1, 165317, Note_off_c, 0, 75, 57
1, 165323, Control_c, 0, 64, 0
1, 165323, Control_c, 0, 67, 53
1, 165338, Control_c, 0, 67, 52
1, 165353, Control_c, 0, 67, 52
1, 165356, Note_off_c, 0, 46, 58
1, 165361, Note_on_c, 0, 51, 49
1, 165367, Control_c, 0, 64, 35
1, 165390, Control_c, 0, 64, 46
1, 165390, Control_c, 0, 67, 51
1, 165405, Control_c, 0, 64, 56
1, 165405, Control_c, 0, 67, 51
1, 165420, Control_c, 0, 64, 60
1, 165434, Control_c, 0, 64, 61
1, 165435, Note_on_c, 0, 53, 53
1, 165446, Note_on_c, 0, 72, 81
1, 165446, Note_off_c, 0, 74, 63
1, 165467, Note_off_c, 0, 51, 52
1, 165479, Control_c, 0, 64, 61
1, 165493, Control_c, 0, 67, 50
1, 165496, Note_off_c, 0, 53, 61
1, 165517, Note_on_c, 0, 57, 56
1, 165567, Control_c, 0, 64, 61
1, 165582, Control_c, 0, 64, 60
1, 165597, Control_c, 0, 64, 59
1, 165603, Note_on_c, 0, 46, 69
1, 165604, Note_on_c, 0, 79, 81
1, 165606, Note_off_c, 0, 57, 38
1, 165612, Control_c, 0, 64, 56
1, 165627, Control_c, 0, 64, 53
1, 165639, Note_off_c, 0, 72, 62
1, 165642, Control_c, 0, 64, 50
1, 165657, Control_c, 0, 64, 48
1, 165672, Control_c, 0, 64, 47
1, 165679, Note_off_c, 0, 46, 57
1, 165687, Control_c, 0, 64, 47
1, 165687, Control_c, 0, 67, 51
1, 165695, Note_on_c, 0, 51, 46
1, 165702, Control_c, 0, 64, 46
1, 165702, Control_c, 0, 67, 51
1, 165717, Control_c, 0, 64, 44
1, 165717, Control_c, 0, 67, 52
1, 165732, Control_c, 0, 64, 40
1, 165732, Control_c, 0, 67, 53
1, 165743, Note_on_c, 0, 53, 48
1, 165746, Control_c, 0, 64, 36
1, 165746, Control_c, 0, 67, 54
1, 165747, Note_off_c, 0, 51, 56
1, 165758, Note_on_c, 0, 77, 78
1, 165761, Control_c, 0, 64, 32
1, 165761, Control_c, 0, 67, 55
1, 165776, Control_c, 0, 64, 0
1, 165776, Control_c, 0, 67, 57
1, 165789, Note_off_c, 0, 79, 64
1, 165791, Control_c, 0, 67, 61
1, 165797, Note_off_c, 0, 53, 61
1, 165806, Control_c, 0, 67, 65
1, 165819, Note_on_c, 0, 57, 54
1, 165821, Control_c, 0, 67, 70
1, 165835, Control_c, 0, 67, 76
1, 165850, Control_c, 0, 67, 81
1, 165865, Control_c, 0, 67, 85
1, 165880, Control_c, 0, 67, 89
1, 165891, Note_off_c, 0, 57, 40
1, 165895, Control_c, 0, 67, 94
1, 165907, Note_on_c, 0, 46, 59
1, 165909, Control_c, 0, 67, 99
1, 165931, Note_on_c, 0, 75, 62
1, 165939, Control_c, 0, 67, 101
1, 165947, Note_off_c, 0, 77, 57
1, 165969, Note_off_c, 0, 46, 60
1, 165986, Note_on_c, 0, 50, 49
1, 166050, Note_off_c, 0, 50, 60
1, 166063, Note_on_c, 0, 53, 51
1, 166136, Note_off_c, 0, 53, 60
1, 166164, Note_on_c, 0, 58, 44
1, 166211, Note_off_c, 0, 58, 45
1, 166232, Note_on_c, 0, 46, 52
1, 166240, Note_on_c, 0, 74, 59
1, 166271, Note_off_c, 0, 46, 63
1, 166277, Note_off_c, 0, 75, 58
1, 166293, Note_on_c, 0, 50, 44
1, 166347, Note_off_c, 0, 50, 60
1, 166369, Note_on_c, 0, 53, 47
1, 166429, Note_off_c, 0, 53, 61
1, 166450, Note_on_c, 0, 58, 48
1, 166490, Note_off_c, 0, 58, 59
1, 166536, Note_on_c, 0, 46, 45
1, 166568, Note_off_c, 0, 46, 62
1, 166569, Control_c, 0, 67, 99
1, 166584, Control_c, 0, 64, 33
1, 166597, Note_on_c, 0, 50, 45
1, 166599, Control_c, 0, 64, 47
1, 166611, Note_off_c, 0, 74, 64
1, 166613, Control_c, 0, 64, 58
1, 166628, Control_c, 0, 64, 62
1, 166640, Note_off_c, 0, 50, 61
1, 166643, Control_c, 0, 64, 62
1, 166655, Note_on_c, 0, 53, 52
1, 166658, Control_c, 0, 64, 63
1, 166688, Control_c, 0, 64, 63
1, 166703, Control_c, 0, 64, 64
1, 166703, Control_c, 0, 67, 97
1, 166714, Note_off_c, 0, 53, 58
1, 166732, Control_c, 0, 67, 96
1, 166742, Note_on_c, 0, 56, 50
1, 166762, Control_c, 0, 67, 95
1, 166777, Control_c, 0, 64, 63
1, 166783, Note_off_c, 0, 56, 55
1, 166792, Control_c, 0, 64, 63
1, 166806, Control_c, 0, 64, 60
1, 166810, Note_on_c, 0, 46, 58
1, 166820, Note_on_c, 0, 69, 65
1, 166821, Control_c, 0, 64, 57
1, 166836, Control_c, 0, 64, 53
1, 166851, Control_c, 0, 64, 48
1, 166852, Note_off_c, 0, 46, 63
1, 166866, Control_c, 0, 64, 45
1, 166870, Note_off_c, 0, 69, 61
1, 166876, Note_on_c, 0, 70, 70
1, 166885, Note_on_c, 0, 50, 47
1, 166888, Control_c, 0, 64, 43
1, 166903, Control_c, 0, 64, 42
1, 166918, Control_c, 0, 64, 41
1, 166932, Control_c, 0, 64, 40
1, 166936, Note_off_c, 0, 70, 64
1, 166940, Note_off_c, 0, 50, 60
1, 166944, Note_on_c, 0, 53, 49
1, 166947, Control_c, 0, 64, 38
1, 166961, Note_on_c, 0, 72, 69
1, 166962, Control_c, 0, 64, 37
1, 167006, Control_c, 0, 64, 36
1, 167013, Note_on_c, 0, 70, 69
1, 167021, Note_off_c, 0, 53, 61
1, 167022, Note_off_c, 0, 72, 58
1, 167028, Note_on_c, 0, 56, 51
1, 167036, Control_c, 0, 64, 35
1, 167051, Control_c, 0, 64, 34
1, 167070, Note_off_c, 0, 56, 57
1, 167085, Note_on_c, 0, 46, 59
1, 167096, Note_on_c, 0, 68, 70
1, 167107, Note_off_c, 0, 70, 59
1, 167139, Control_c, 0, 64, 35
1, 167140, Note_off_c, 0, 46, 61
1, 167154, Control_c, 0, 64, 39
1, 167169, Control_c, 0, 64, 45
1, 167172, Note_on_c, 0, 51, 64
1, 167184, Control_c, 0, 64, 51
1, 167199, Control_c, 0, 64, 54
1, 167213, Control_c, 0, 64, 55
1, 167228, Control_c, 0, 64, 56
1, 167228, Control_c, 0, 67, 95
1, 167229, Note_off_c, 0, 51, 62
1, 167243, Control_c, 0, 67, 94
1, 167258, Note_on_c, 0, 67, 73
1, 167259, Control_c, 0, 64, 56
1, 167259, Control_c, 0, 67, 94
1, 167260, Note_on_c, 0, 55, 41
1, 167262, Note_off_c, 0, 68, 65
1, 167274, Control_c, 0, 64, 57
1, 167274, Control_c, 0, 67, 92
1, 167287, Note_off_c, 0, 55, 51
1, 167289, Control_c, 0, 64, 58
1, 167289, Control_c, 0, 67, 90
1, 167304, Control_c, 0, 64, 59
1, 167304, Control_c, 0, 67, 89
1, 167310, Note_on_c, 0, 51, 51
1, 167318, Control_c, 0, 64, 60
1, 167318, Control_c, 0, 67, 86
1, 167333, Control_c, 0, 64, 60
1, 167333, Control_c, 0, 67, 81
1, 167347, Control_c, 0, 64, 61
1, 167347, Control_c, 0, 67, 77
1, 167362, Control_c, 0, 64, 61
1, 167362, Control_c, 0, 67, 70
1, 167377, Control_c, 0, 64, 62
1, 167377, Control_c, 0, 67, 63
1, 167387, Note_off_c, 0, 51, 64
1, 167388, Note_on_c, 0, 46, 68
1, 167392, Control_c, 0, 67, 58
1, 167403, Note_on_c, 0, 65, 79
1, 167407, Control_c, 0, 64, 61
1, 167407, Control_c, 0, 67, 54
1, 167422, Control_c, 0, 64, 61
1, 167422, Control_c, 0, 67, 51
1, 167423, Note_off_c, 0, 67, 54
1, 167436, Control_c, 0, 64, 59
1, 167436, Control_c, 0, 67, 48
1, 167448, Note_off_c, 0, 46, 58
1, 167451, Control_c, 0, 64, 56
1, 167451, Control_c, 0, 67, 45
1, 167463, Note_on_c, 0, 51, 63
1, 167466, Control_c, 0, 64, 53
1, 167466, Control_c, 0, 67, 41
1, 167481, Control_c, 0, 64, 52
1, 167481, Control_c, 0, 67, 38
1, 167496, Control_c, 0, 67, 34
1, 167511, Control_c, 0, 67, 28
1, 167524, Note_off_c, 0, 51, 62
1, 167526, Control_c, 0, 64, 52
1, 167526, Control_c, 0, 67, 21
1, 167541, Control_c, 0, 67, 17
1, 167547, Note_on_c, 0, 63, 84
1, 167555, Control_c, 0, 64, 53
1, 167555, Control_c, 0, 67, 0
1, 167560, Note_on_c, 0, 55, 59
1, 167570, Control_c, 0, 64, 55
1, 167576, Note_off_c, 0, 65, 64
1, 167585, Control_c, 0, 64, 56
1, 167600, Note_off_c, 0, 55, 63
1, 167600, Control_c, 0, 64, 58
1, 167612, Note_on_c, 0, 51, 58
1, 167615, Control_c, 0, 64, 59
1, 167636, Control_c, 0, 64, 60
1, 167651, Control_c, 0, 64, 60
1, 167666, Control_c, 0, 64, 61
1, 167689, Note_off_c, 0, 51, 62
1, 167704, Note_on_c, 0, 46, 66
1, 167710, Note_on_c, 0, 62, 80
1, 167710, Control_c, 0, 64, 61
1, 167725, Control_c, 0, 64, 60
1, 167751, Note_off_c, 0, 63, 59
1, 167758, Note_off_c, 0, 46, 63
1, 167771, Note_on_c, 0, 48, 60
1, 167827, Note_off_c, 0, 62, 62
1, 167837, Note_off_c, 0, 48, 63
1, 167844, Control_c, 0, 64, 59
1, 167857, Note_on_c, 0, 51, 67
1, 167859, Control_c, 0, 64, 58
1, 167865, Note_on_c, 0, 60, 80
1, 167874, Control_c, 0, 64, 56
1, 167888, Control_c, 0, 64, 53
1, 167903, Control_c, 0, 64, 51
1, 167918, Control_c, 0, 64, 50
1, 167933, Control_c, 0, 64, 49
1, 167934, Note_off_c, 0, 51, 63
1, 167948, Control_c, 0, 64, 48
1, 167949, Note_on_c, 0, 53, 60
1, 167962, Control_c, 0, 64, 47
1, 167977, Control_c, 0, 64, 45
1, 167989, Note_off_c, 0, 53, 58
1, 167992, Control_c, 0, 64, 43
1, 167997, Note_on_c, 0, 46, 70
1, 168007, Control_c, 0, 64, 41
1, 168022, Control_c, 0, 64, 40
1, 168024, Note_on_c, 0, 63, 76
1, 168035, Note_off_c, 0, 60, 63
1, 168036, Control_c, 0, 64, 39
1, 168052, Control_c, 0, 64, 38
1, 168052, Control_c, 0, 67, 18
1, 168067, Note_off_c, 0, 46, 62
1, 168067, Control_c, 0, 64, 36
1, 168082, Control_c, 0, 64, 34
1, 168082, Control_c, 0, 67, 21
1, 168085, Note_on_c, 0, 48, 50
1, 168097, Control_c, 0, 64, 32
1, 168097, Control_c, 0, 67, 23
1, 168111, Control_c, 0, 64, 0
1, 168111, Control_c, 0, 67, 26
1, 168126, Control_c, 0, 67, 30
1, 168140, Note_off_c, 0, 48, 63
1, 168141, Control_c, 0, 67, 32
1, 168156, Note_off_c, 0, 63, 62
1, 168156, Control_c, 0, 67, 33
1, 168163, Note_on_c, 0, 51, 57
1, 168184, Note_on_c, 0, 57, 72
1, 168185, Control_c, 0, 67, 34
1, 168200, Control_c, 0, 67, 38
1, 168215, Control_c, 0, 67, 42
1, 168217, Note_off_c, 0, 51, 61
1, 168230, Control_c, 0, 67, 43
1, 168245, Control_c, 0, 67, 44
1, 168253, Note_on_c, 0, 53, 55
1, 168274, Control_c, 0, 67, 44
1, 168304, Control_c, 0, 67, 45
1, 168308, Note_off_c, 0, 53, 53
1, 168363, Note_off_c, 0, 57, 60
1, 168366, Note_on_c, 0, 46, 49
1, 168366, Note_on_c, 0, 58, 62
1, 168385, Control_c, 0, 67, 44
1, 168415, Control_c, 0, 64, 49
1, 168415, Control_c, 0, 67, 44
1, 168430, Control_c, 0, 64, 60
1, 168445, Control_c, 0, 64, 64
1, 168445, Control_c, 0, 67, 43
1, 168450, Note_off_c, 0, 46, 63
1, 168452, Note_off_c, 0, 58, 62
1, 168459, Control_c, 0, 64, 65
1, 168474, Control_c, 0, 67, 43
1, 168504, Control_c, 0, 67, 42
1, 168574, Note_on_c, 0, 62, 69
1, 168593, Control_c, 0, 64, 64
1, 168608, Control_c, 0, 64, 60
1, 168623, Control_c, 0, 64, 50
1, 168634, Note_off_c, 0, 62, 61
1, 168635, Note_on_c, 0, 60, 65
1, 168638, Control_c, 0, 64, 0
1, 168688, Note_off_c, 0, 60, 62
1, 168691, Note_on_c, 0, 58, 68
1, 168697, Control_c, 0, 67, 43
1, 168701, Note_on_c, 0, 46, 56
1, 168711, Control_c, 0, 67, 43
1, 168736, Note_off_c, 0, 46, 65
1, 168743, Note_off_c, 0, 58, 62
1, 168754, Note_on_c, 0, 57, 71
1, 168779, Note_on_c, 0, 45, 54
1, 168792, Note_off_c, 0, 57, 62
1, 168800, Control_c, 0, 67, 43
1, 168808, Note_off_c, 0, 45, 56
1, 168831, Note_on_c, 0, 58, 67
1, 168837, Note_on_c, 0, 46, 53
1, 168868, Note_off_c, 0, 46, 61
1, 168883, Note_on_c, 0, 43, 61
1, 168889, Note_on_c, 0, 55, 70
1, 168902, Note_off_c, 0, 58, 62
1, 168905, Control_c, 0, 67, 42
1, 168918, Note_off_c, 0, 43, 66
1, 168934, Control_c, 0, 67, 42
1, 168936, Note_off_c, 0, 55, 62
1, 168949, Control_c, 0, 67, 41
1, 168956, Note_on_c, 0, 53, 70
1, 168967, Note_on_c, 0, 41, 77
1, 168986, Note_off_c, 0, 53, 65
1, 168990, Note_off_c, 0, 41, 66
1, 169008, Control_c, 0, 67, 42
1, 169135, Control_c, 0, 67, 42
1, 169153, Note_on_c, 0, 67, 69
1, 169215, Note_off_c, 0, 67, 64
1, 169216, Note_on_c, 0, 65, 76
1, 169224, Control_c, 0, 67, 41
1, 169239, Control_c, 0, 67, 39
1, 169254, Control_c, 0, 67, 35
1, 169268, Control_c, 0, 67, 31
1, 169276, Note_on_c, 0, 63, 73
1, 169278, Note_on_c, 0, 51, 71
1, 169283, Control_c, 0, 67, 25
1, 169287, Note_off_c, 0, 65, 63
1, 169298, Control_c, 0, 67, 21
1, 169328, Control_c, 0, 67, 19
1, 169331, Note_off_c, 0, 63, 63
1, 169332, Note_on_c, 0, 62, 78
1, 169332, Note_off_c, 0, 51, 64
1, 169366, Note_on_c, 0, 50, 69
1, 169372, Control_c, 0, 67, 0
1, 169392, Note_off_c, 0, 62, 60
1, 169416, Note_on_c, 0, 63, 79
1, 169419, Poly_aftertouch_c, 0, 46, 0
1, 169429, Note_off_c, 0, 50, 61
1, 169437, Note_on_c, 0, 51, 63
1, 169473, Note_on_c, 0, 60, 82
1, 169477, Note_off_c, 0, 51, 61
1, 169481, Note_on_c, 0, 48, 74
1, 169485, Note_off_c, 0, 63, 62
1, 169517, Note_off_c, 0, 48, 63
1, 169527, Note_off_c, 0, 60, 62
1, 169544, Note_on_c, 0, 58, 91
1, 169549, Note_on_c, 0, 46, 88
1, 169579, Note_off_c, 0, 46, 65
1, 169588, Note_off_c, 0, 58, 64
1, 169669, Control_c, 0, 67, 17
1, 169733, Note_on_c, 0, 74, 83
1, 169801, Note_on_c, 0, 72, 78
1, 169813, Note_off_c, 0, 74, 63
1, 169847, Control_c, 0, 67, 0
1, 169857, Note_on_c, 0, 58, 71
1, 169857, Note_on_c, 0, 70, 85
1, 169883, Note_off_c, 0, 72, 64
1, 169883, Control_c, 0, 67, 17
1, 169914, Note_off_c, 0, 58, 63
1, 169922, Note_on_c, 0, 69, 80
1, 169928, Note_off_c, 0, 70, 64
1, 169943, Note_on_c, 0, 57, 74
1, 169986, Note_off_c, 0, 69, 56
1, 169999, Note_on_c, 0, 70, 85
1, 170016, Note_on_c, 0, 58, 74
1, 170024, Note_off_c, 0, 57, 53
1, 170031, Control_c, 0, 67, 0
1, 170043, Note_on_c, 0, 55, 73
1, 170050, Note_off_c, 0, 58, 58
1, 170064, Note_on_c, 0, 67, 84
1, 170089, Note_off_c, 0, 70, 63
1, 170120, Note_off_c, 0, 55, 52
1, 170130, Note_on_c, 0, 65, 91
1, 170130, Note_off_c, 0, 67, 66
1, 170131, Note_on_c, 0, 53, 93
1, 170161, Note_off_c, 0, 53, 69
1, 170164, Control_c, 0, 64, 45
1, 170179, Control_c, 0, 64, 46
1, 170180, Note_off_c, 0, 65, 66
1, 170194, Control_c, 0, 64, 45
1, 170209, Control_c, 0, 64, 45
1, 170223, Control_c, 0, 64, 44
1, 170238, Control_c, 0, 64, 41
1, 170253, Control_c, 0, 64, 34
1, 170268, Control_c, 0, 64, 0
1, 170298, Control_c, 0, 67, 17
1, 170299, Note_on_c, 0, 79, 92
1, 170343, Control_c, 0, 67, 19
1, 170365, Note_on_c, 0, 77, 83
1, 170383, Note_off_c, 0, 79, 65
1, 170426, Note_on_c, 0, 75, 89
1, 170431, Note_on_c, 0, 63, 78
1, 170460, Note_off_c, 0, 77, 63
1, 170477, Control_c, 0, 67, 21
1, 170492, Note_off_c, 0, 75, 66
1, 170492, Note_off_c, 0, 63, 65
1, 170496, Note_on_c, 0, 74, 86
1, 170524, Note_on_c, 0, 62, 72
1, 170559, Note_off_c, 0, 74, 62
1, 170577, Note_on_c, 0, 75, 85
1, 170577, Poly_aftertouch_c, 0, 58, 0
1, 170599, Note_on_c, 0, 63, 67
1, 170608, Note_off_c, 0, 62, 59
1, 170610, Control_c, 0, 67, 23
1, 170646, Note_on_c, 0, 72, 82
1, 170647, Note_on_c, 0, 60, 73
1, 170647, Note_off_c, 0, 75, 65
1, 170650, Note_off_c, 0, 63, 58
1, 170674, Note_on_c, 0, 71, 46
1, 170674, Note_off_c, 0, 71, 127
1, 170692, Note_off_c, 0, 60, 60
1, 170693, Note_off_c, 0, 72, 67
1, 170706, Control_c, 0, 67, 20
1, 170719, Note_on_c, 0, 70, 101
1, 170721, Control_c, 0, 67, 17
1, 170727, Note_on_c, 0, 58, 86
1, 170736, Control_c, 0, 64, 44
1, 170736, Control_c, 0, 67, 0
1, 170751, Control_c, 0, 64, 63
1, 170766, Control_c, 0, 64, 67
1, 170768, Note_off_c, 0, 70, 65
1, 170772, Note_off_c, 0, 58, 61
1, 170780, Control_c, 0, 64, 70
1, 170795, Control_c, 0, 64, 73
1, 170810, Control_c, 0, 64, 77
1, 170825, Control_c, 0, 64, 81
1, 170839, Control_c, 0, 64, 82
1, 170869, Control_c, 0, 64, 81
1, 170882, Note_on_c, 0, 60, 81
1, 170884, Control_c, 0, 64, 74
1, 170890, Note_on_c, 0, 72, 86
1, 170898, Control_c, 0, 64, 62
1, 170913, Control_c, 0, 64, 0
1, 170931, Note_off_c, 0, 60, 66
1, 170960, Note_on_c, 0, 62, 81
1, 170967, Note_off_c, 0, 72, 63
1, 170972, Note_on_c, 0, 74, 75
1, 171022, Note_on_c, 0, 75, 83
1, 171034, Note_off_c, 0, 62, 63
1, 171035, Note_on_c, 0, 63, 76
1, 171044, Note_off_c, 0, 74, 60
1, 171074, Note_off_c, 0, 75, 65
1, 171097, Note_on_c, 0, 77, 87
1, 171106, Note_on_c, 0, 65, 77
1, 171133, Note_off_c, 0, 63, 60
1, 171145, Note_off_c, 0, 77, 58
1, 171153, Note_on_c, 0, 67, 70
1, 171160, Note_off_c, 0, 65, 63
1, 171165, Control_c, 0, 67, 17
1, 171168, Note_on_c, 0, 79, 82
1, 171204, Note_off_c, 0, 79, 57
1, 171205, Note_off_c, 0, 67, 66
1, 171224, Control_c, 0, 67, 19
1, 171227, Note_on_c, 0, 81, 81
1, 171232, Note_on_c, 0, 69, 76
1, 171266, Note_on_c, 0, 84, 90
1, 171275, Note_off_c, 0, 81, 62
1, 171279, Note_off_c, 0, 69, 61
1, 171282, Note_on_c, 0, 70, 86
1, 171293, Note_on_c, 0, 82, 91
1, 171314, Control_c, 0, 67, 21
1, 171326, Note_off_c, 0, 84, 66
1, 171348, Note_on_c, 0, 69, 65
1, 171353, Note_on_c, 0, 81, 82
1, 171359, Note_off_c, 0, 82, 67
1, 171359, Note_off_c, 0, 70, 63
1, 171431, Note_on_c, 0, 82, 87
1, 171436, Note_off_c, 0, 81, 65
1, 171438, Note_off_c, 0, 69, 64
1, 171443, Note_on_c, 0, 70, 74
1, 171463, Note_off_c, 0, 82, 64
1, 171478, Note_on_c, 0, 84, 87
1, 171508, Note_on_c, 0, 72, 71
1, 171516, Note_off_c, 0, 70, 61
1, 171525, Note_off_c, 0, 84, 65
1, 171535, Note_on_c, 0, 88, 92
1, 171562, Note_off_c, 0, 72, 66
1, 171567, Note_on_c, 0, 86, 102
1, 171568, Note_on_c, 0, 74, 74
1, 171589, Note_off_c, 0, 88, 66
1, 171616, Note_off_c, 0, 74, 61
1, 171627, Note_off_c, 0, 86, 66
1, 171629, Note_on_c, 0, 72, 82
1, 171636, Note_on_c, 0, 84, 88
1, 171687, Note_off_c, 0, 84, 66
1, 171689, Note_off_c, 0, 72, 62
1, 171704, Note_on_c, 0, 74, 82
1, 171705, Note_on_c, 0, 86, 94
1, 171750, Note_on_c, 0, 88, 96
1, 171764, Note_off_c, 0, 74, 66
1, 171765, Note_off_c, 0, 86, 65
1, 171767, Note_on_c, 0, 76, 95
1, 171767, Control_c, 0, 67, 23
1, 171800, Note_off_c, 0, 88, 68
1, 171815, Note_off_c, 0, 76, 67
1, 171826, Control_c, 0, 64, 38
1, 171829, Note_on_c, 0, 89, 117
1, 171836, Note_on_c, 0, 77, 106
1, 171841, Control_c, 0, 64, 64
1, 171841, Control_c, 0, 67, 25
1, 171855, Control_c, 0, 64, 72
1, 171863, Note_off_c, 0, 89, 71
1, 171867, Note_off_c, 0, 77, 71
1, 171870, Control_c, 0, 64, 86
1, 171885, Control_c, 0, 64, 127
1, 171929, Control_c, 0, 67, 18
1, 171944, Control_c, 0, 67, 0
1, 172049, Control_c, 0, 64, 82
1, 172063, Control_c, 0, 64, 61
1, 172078, Control_c, 0, 64, 0
1, 172244, Note_on_c, 0, 65, 110
1, 172247, Note_on_c, 0, 53, 103
1, 172264, Control_c, 0, 64, 40
1, 172278, Control_c, 0, 64, 67
1, 172281, Note_off_c, 0, 53, 68
1, 172285, Note_off_c, 0, 65, 70
1, 172293, Control_c, 0, 64, 79
1, 172308, Control_c, 0, 64, 102
1, 172323, Control_c, 0, 64, 127
1, 172382, Control_c, 0, 67, 17
1, 172426, Control_c, 0, 67, 0
1, 172678, Control_c, 0, 64, 101
1, 172693, Control_c, 0, 64, 65
1, 172708, Control_c, 0, 64, 0
1, 172796, Control_c, 0, 67, 17
1, 172944, Note_on_c, 0, 46, 86
1, 172945, Note_on_c, 0, 50, 80
1, 173001, Note_on_c, 0, 45, 82
1, 173001, Note_off_c, 0, 46, 61
1, 173013, Note_off_c, 0, 50, 60
1, 173078, Note_off_c, 0, 45, 64
1, 173080, Note_on_c, 0, 46, 89
1, 173138, Note_off_c, 0, 46, 62
1, 173141, Note_on_c, 0, 41, 84
1, 173146, Control_c, 0, 67, 0
1, 173204, Note_off_c, 0, 41, 62
1, 173216, Note_on_c, 0, 50, 99
1, 173216, Note_on_c, 0, 53, 98
1, 173234, Note_off_c, 0, 53, 74
1, 173254, Note_off_c, 0, 50, 67
1, 173514, Note_on_c, 0, 50, 90
1, 173518, Note_on_c, 0, 65, 81
1, 173519, Note_on_c, 0, 46, 91
1, 173519, Note_on_c, 0, 62, 82
1, 173546, Note_off_c, 0, 50, 68
1, 173556, Note_off_c, 0, 46, 64
1, 173573, Note_off_c, 0, 62, 63
1, 173580, Note_off_c, 0, 65, 62
1, 173593, Note_on_c, 0, 61, 81
1, 173671, Control_c, 0, 64, 35
1, 173674, Note_off_c, 0, 61, 63
1, 173678, Note_on_c, 0, 62, 60
1, 173686, Control_c, 0, 64, 44
1, 173699, Note_off_c, 0, 62, 61
1, 173701, Control_c, 0, 64, 53
1, 173716, Control_c, 0, 64, 60
1, 173728, Note_on_c, 0, 58, 78
1, 173730, Control_c, 0, 64, 64
1, 173745, Control_c, 0, 64, 66
1, 173760, Control_c, 0, 64, 67
1, 173762, Note_off_c, 0, 58, 65
1, 173775, Control_c, 0, 64, 68
1, 173814, Note_on_c, 0, 74, 99
1, 173815, Note_on_c, 0, 65, 96
1, 173819, Control_c, 0, 64, 64
1, 173823, Note_on_c, 0, 64, 80
1, 173834, Control_c, 0, 64, 46
1, 173837, Note_off_c, 0, 64, 71
1, 173845, Note_off_c, 0, 65, 64
1, 173848, Control_c, 0, 64, 0
1, 173849, Note_off_c, 0, 74, 66
1, 174117, Note_on_c, 0, 70, 102
1, 174119, Note_on_c, 0, 62, 88
1, 174125, Note_on_c, 0, 46, 79
1, 174125, Note_on_c, 0, 50, 69
1, 174149, Note_off_c, 0, 62, 64
1, 174168, Note_off_c, 0, 50, 63
1, 174173, Note_off_c, 0, 46, 63
1, 174176, Note_off_c, 0, 70, 63
1, 174185, Note_on_c, 0, 45, 77
1, 174263, Note_on_c, 0, 46, 88
1, 174263, Note_off_c, 0, 45, 64
1, 174325, Note_on_c, 0, 41, 84
1, 174325, Note_off_c, 0, 46, 64
1, 174401, Note_off_c, 0, 41, 62
1, 174405, Control_c, 0, 64, 44
1, 174409, Note_on_c, 0, 53, 102
1, 174411, Note_on_c, 0, 50, 98
1, 174420, Control_c, 0, 64, 51
1, 174435, Control_c, 0, 64, 53
1, 174448, Note_off_c, 0, 50, 68
1, 174448, Note_off_c, 0, 53, 65
1, 174450, Control_c, 0, 64, 53
1, 174465, Control_c, 0, 64, 54
1, 174480, Control_c, 0, 64, 55
1, 174495, Control_c, 0, 64, 55
1, 174510, Control_c, 0, 64, 54
1, 174525, Control_c, 0, 64, 52
1, 174540, Control_c, 0, 64, 52
1, 174554, Control_c, 0, 64, 51
1, 174569, Control_c, 0, 64, 49
1, 174584, Control_c, 0, 64, 46
1, 174599, Control_c, 0, 64, 44
1, 174643, Control_c, 0, 64, 44
1, 174658, Control_c, 0, 64, 44
1, 174672, Control_c, 0, 64, 41
1, 174687, Control_c, 0, 64, 0
1, 174716, Note_on_c, 0, 50, 99
1, 174721, Note_on_c, 0, 65, 85
1, 174722, Note_on_c, 0, 46, 90
1, 174722, Note_on_c, 0, 62, 85
1, 174751, Note_off_c, 0, 50, 66
1, 174757, Note_off_c, 0, 46, 66
1, 174782, Note_off_c, 0, 62, 62
1, 174785, Note_off_c, 0, 65, 62
1, 174799, Note_on_c, 0, 61, 78
1, 174855, Note_on_c, 0, 62, 80
1, 174860, Note_off_c, 0, 61, 64
1, 174865, Control_c, 0, 64, 44
1, 174880, Control_c, 0, 64, 54
1, 174884, Note_off_c, 0, 62, 59
1, 174894, Control_c, 0, 64, 58
1, 174909, Control_c, 0, 64, 58
1, 174918, Note_on_c, 0, 58, 92
1, 174924, Control_c, 0, 64, 51
1, 174939, Control_c, 0, 64, 0
1, 174957, Note_off_c, 0, 58, 66
1, 175007, Note_on_c, 0, 65, 104
1, 175007, Note_on_c, 0, 74, 100
1, 175037, Note_off_c, 0, 65, 72
1, 175043, Control_c, 0, 64, 60
1, 175043, Note_off_c, 0, 74, 64
1, 175058, Control_c, 0, 64, 69
1, 175072, Control_c, 0, 64, 74
1, 175087, Control_c, 0, 64, 77
1, 175102, Control_c, 0, 64, 78
1, 175139, Control_c, 0, 64, 74
1, 175154, Control_c, 0, 64, 66
1, 175169, Control_c, 0, 64, 51
1, 175184, Control_c, 0, 64, 0
1, 175314, Note_on_c, 0, 50, 95
1, 175314, Note_on_c, 0, 62, 90
1, 175316, Note_on_c, 0, 70, 98
1, 175348, Note_off_c, 0, 62, 66
1, 175348, Control_c, 0, 64, 52
1, 175362, Control_c, 0, 64, 65
1, 175376, Note_off_c, 0, 70, 62
1, 175388, Note_off_c, 0, 50, 59
1, 175397, Note_on_c, 0, 49, 89
1, 175421, Control_c, 0, 64, 65
1, 175436, Control_c, 0, 64, 66
1, 175451, Control_c, 0, 64, 67
1, 175455, Note_off_c, 0, 49, 62
1, 175466, Control_c, 0, 64, 68
1, 175476, Note_on_c, 0, 50, 74
1, 175481, Control_c, 0, 64, 69
1, 175495, Control_c, 0, 64, 68
1, 175510, Control_c, 0, 64, 64
1, 175513, Note_off_c, 0, 50, 66
1, 175523, Note_on_c, 0, 46, 85
1, 175525, Control_c, 0, 64, 46
1, 175540, Control_c, 0, 64, 0
1, 175564, Note_off_c, 0, 46, 65
1, 175603, Note_on_c, 0, 53, 87
1, 175665, Note_off_c, 0, 53, 62
1, 175669, Note_on_c, 0, 52, 83
1, 175673, Control_c, 0, 64, 36
1, 175687, Control_c, 0, 64, 40
1, 175702, Control_c, 0, 64, 42
1, 175717, Note_off_c, 0, 52, 61
1, 175717, Control_c, 0, 64, 50
1, 175732, Control_c, 0, 64, 60
1, 175747, Note_on_c, 0, 53, 81
1, 175747, Control_c, 0, 64, 65
1, 175762, Control_c, 0, 64, 66
1, 175777, Control_c, 0, 64, 66
1, 175780, Note_off_c, 0, 53, 66
1, 175789, Note_on_c, 0, 50, 68
1, 175792, Control_c, 0, 64, 62
1, 175807, Control_c, 0, 64, 48
1, 175817, Note_off_c, 0, 50, 67
1, 175821, Control_c, 0, 64, 0
1, 175875, Note_on_c, 0, 58, 91
1, 175941, Note_on_c, 0, 57, 77
1, 175944, Note_off_c, 0, 58, 57
1, 175947, Control_c, 0, 64, 38
1, 175962, Control_c, 0, 64, 47
1, 175976, Control_c, 0, 64, 54
1, 175991, Control_c, 0, 64, 57
1, 176006, Note_on_c, 0, 58, 59
1, 176006, Control_c, 0, 64, 58
1, 176011, Note_off_c, 0, 57, 65
1, 176021, Control_c, 0, 64, 59
1, 176036, Control_c, 0, 64, 59
1, 176044, Note_off_c, 0, 58, 65
1, 176066, Control_c, 0, 64, 59
1, 176069, Note_on_c, 0, 53, 80
1, 176081, Control_c, 0, 64, 57
1, 176096, Control_c, 0, 64, 52
1, 176111, Control_c, 0, 64, 41
1, 176113, Note_off_c, 0, 53, 62
1, 176126, Control_c, 0, 64, 0
1, 176139, Note_on_c, 0, 62, 90
1, 176198, Note_off_c, 0, 62, 64
1, 176210, Note_on_c, 0, 61, 88
1, 176257, Note_off_c, 0, 61, 61
1, 176279, Note_on_c, 0, 62, 84
1, 176325, Note_off_c, 0, 62, 61
1, 176332, Note_on_c, 0, 58, 88
1, 176379, Note_off_c, 0, 58, 64
1, 176412, Note_on_c, 0, 65, 92
1, 176473, Note_off_c, 0, 65, 63
1, 176482, Note_on_c, 0, 64, 88
1, 176536, Note_off_c, 0, 64, 61
1, 176564, Note_on_c, 0, 65, 94
1, 176614, Note_off_c, 0, 65, 66
1, 176622, Note_on_c, 0, 62, 89
1, 176724, Note_on_c, 0, 68, 100
1, 176731, Note_off_c, 0, 62, 62
1, 176874, Control_c, 0, 64, 33
1, 176889, Control_c, 0, 64, 53
1, 176904, Control_c, 0, 64, 66
1, 176919, Control_c, 0, 64, 74
1, 176934, Control_c, 0, 64, 81
1, 176948, Control_c, 0, 64, 84
1, 176963, Control_c, 0, 64, 84
1, 177200, Control_c, 0, 64, 84
1, 177316, Note_off_c, 0, 68, 62
1, 177331, Note_on_c, 0, 67, 80
1, 177348, Control_c, 0, 64, 83
1, 177371, Control_c, 0, 64, 77
1, 177386, Control_c, 0, 64, 65
1, 177386, Note_on_c, 0, 80, 97
1, 177398, Note_on_c, 0, 65, 79
1, 177399, Note_off_c, 0, 67, 66
1, 177400, Control_c, 0, 64, 39
1, 177415, Control_c, 0, 64, 0
1, 177474, Control_c, 0, 67, 17
1, 177533, Control_c, 0, 67, 20
1, 177563, Control_c, 0, 67, 24
1, 177578, Control_c, 0, 67, 27
1, 177592, Control_c, 0, 67, 30
1, 177607, Control_c, 0, 67, 33
1, 177622, Control_c, 0, 67, 36
1, 177638, Control_c, 0, 67, 41
1, 177653, Control_c, 0, 67, 52
1, 177657, Note_on_c, 0, 63, 70
1, 177668, Control_c, 0, 67, 63
1, 177682, Note_off_c, 0, 65, 58
1, 177683, Control_c, 0, 67, 72
1, 177697, Control_c, 0, 67, 77
1, 177712, Control_c, 0, 67, 80
1, 177714, Note_off_c, 0, 63, 62
1, 177725, Note_on_c, 0, 62, 68
1, 177727, Control_c, 0, 67, 82
1, 177742, Control_c, 0, 67, 83
1, 177756, Control_c, 0, 67, 83
1, 177771, Control_c, 0, 67, 84
1, 178045, Note_on_c, 0, 60, 59
1, 178066, Note_off_c, 0, 62, 55
1, 178165, Note_on_c, 0, 74, 44
1, 178170, Note_on_c, 0, 59, 50
1, 178182, Note_off_c, 0, 60, 55
1, 178268, Control_c, 0, 67, 83
1, 178297, Control_c, 0, 67, 83
1, 178327, Control_c, 0, 67, 82
1, 178341, Control_c, 0, 64, 41
1, 178356, Control_c, 0, 64, 48
1, 178356, Control_c, 0, 67, 82
1, 178371, Control_c, 0, 64, 52
1, 178371, Control_c, 0, 67, 81
1, 178386, Control_c, 0, 64, 54
1, 178401, Control_c, 0, 64, 55
1, 178415, Control_c, 0, 64, 56
1, 178430, Control_c, 0, 67, 81
1, 178506, Control_c, 0, 67, 80
1, 178520, Control_c, 0, 64, 55
1, 178550, Control_c, 0, 64, 55
1, 178564, Control_c, 0, 67, 80
1, 178567, Note_on_c, 0, 79, 77
1, 178624, Control_c, 0, 67, 79
1, 178638, Control_c, 0, 64, 55
1, 178644, Note_off_c, 0, 80, 62
1, 178653, Control_c, 0, 64, 56
1, 178668, Control_c, 0, 64, 57
1, 178683, Control_c, 0, 64, 58
1, 178698, Control_c, 0, 64, 58
1, 178698, Control_c, 0, 67, 79
1, 178713, Control_c, 0, 64, 59
1, 178728, Control_c, 0, 64, 59
1, 178772, Control_c, 0, 64, 60
1, 178772, Control_c, 0, 67, 78
1, 178802, Control_c, 0, 64, 60
1, 178884, Control_c, 0, 64, 59
1, 178899, Control_c, 0, 64, 57
1, 178901, Note_on_c, 0, 60, 48
1, 178905, Note_on_c, 0, 75, 49
1, 178914, Control_c, 0, 64, 51
1, 178916, Note_off_c, 0, 59, 58
1, 178928, Control_c, 0, 64, 43
1, 178943, Control_c, 0, 64, 38
1, 178958, Note_off_c, 0, 74, 56
1, 178972, Control_c, 0, 64, 40
1, 178987, Control_c, 0, 64, 45
1, 179002, Control_c, 0, 64, 50
1, 179017, Control_c, 0, 64, 56
1, 179032, Control_c, 0, 64, 58
1, 179047, Control_c, 0, 64, 58
1, 179062, Control_c, 0, 64, 59
1, 179092, Control_c, 0, 64, 59
1, 179210, Control_c, 0, 64, 58
1, 179225, Note_on_c, 0, 77, 73
1, 179225, Control_c, 0, 64, 56
1, 179226, Note_off_c, 0, 79, 62
1, 179232, Note_on_c, 0, 57, 51
1, 179239, Note_on_c, 0, 72, 55
1, 179241, Control_c, 0, 64, 52
1, 179255, Control_c, 0, 64, 45
1, 179270, Control_c, 0, 64, 38
1, 179285, Control_c, 0, 64, 32
1, 179287, Note_off_c, 0, 60, 55
1, 179300, Control_c, 0, 64, 0
1, 179327, Note_off_c, 0, 75, 53
1, 179448, Control_c, 0, 67, 79
1, 179462, Control_c, 0, 67, 79
1, 179477, Control_c, 0, 67, 80
1, 179507, Control_c, 0, 67, 80
1, 179522, Control_c, 0, 67, 81
1, 179556, Note_on_c, 0, 74, 54
1, 179572, Note_on_c, 0, 58, 42
1, 179580, Control_c, 0, 67, 81
1, 179589, Note_off_c, 0, 57, 58
1, 179601, Note_off_c, 0, 72, 63
1, 179648, Control_c, 0, 67, 81
1, 179663, Control_c, 0, 64, 34
1, 179663, Control_c, 0, 67, 80
1, 179677, Control_c, 0, 64, 39
1, 179677, Control_c, 0, 67, 80
1, 179692, Control_c, 0, 64, 42
1, 179707, Control_c, 0, 64, 45
1, 179721, Control_c, 0, 64, 46
1, 179736, Control_c, 0, 64, 46
1, 179751, Control_c, 0, 67, 79
1, 179766, Control_c, 0, 64, 47
1, 179781, Control_c, 0, 64, 47
1, 179840, Control_c, 0, 64, 47
1, 179855, Control_c, 0, 64, 46
1, 179855, Control_c, 0, 67, 79
1, 179870, Control_c, 0, 64, 45
1, 179884, Control_c, 0, 64, 43
1, 179884, Control_c, 0, 67, 78
1, 179885, Note_on_c, 0, 75, 74
1, 179893, Note_on_c, 0, 71, 54
1, 179899, Control_c, 0, 64, 40
1, 179905, Note_on_c, 0, 55, 47
1, 179914, Control_c, 0, 64, 36
1, 179929, Control_c, 0, 64, 33
1, 179944, Control_c, 0, 64, 0
1, 179944, Control_c, 0, 67, 78
1, 179949, Note_off_c, 0, 58, 59
1, 179973, Note_off_c, 0, 77, 52
1, 179992, Note_off_c, 0, 74, 51
1, 180003, Control_c, 0, 67, 77
1, 180123, Control_c, 0, 67, 78
1, 180167, Control_c, 0, 67, 78
1, 180197, Control_c, 0, 67, 79
1, 180211, Control_c, 0, 67, 79
1, 180232, Note_on_c, 0, 56, 44
1, 180232, Note_on_c, 0, 72, 47
1, 180241, Control_c, 0, 67, 80
1, 180245, Note_off_c, 0, 71, 53
1, 180248, Note_off_c, 0, 55, 59
1, 180285, Control_c, 0, 64, 37
1, 180285, Control_c, 0, 67, 80
1, 180300, Control_c, 0, 64, 44
1, 180300, Control_c, 0, 67, 81
1, 180315, Control_c, 0, 64, 47
1, 180329, Control_c, 0, 64, 49
1, 180455, Control_c, 0, 64, 48
1, 180485, Control_c, 0, 64, 48
1, 180499, Control_c, 0, 64, 46
1, 180514, Control_c, 0, 64, 43
1, 180529, Control_c, 0, 64, 39
1, 180543, Control_c, 0, 64, 33
1, 180544, Note_on_c, 0, 74, 69
1, 180555, Note_on_c, 0, 54, 48
1, 180555, Note_on_c, 0, 69, 50
1, 180558, Control_c, 0, 64, 0
1, 180611, Note_off_c, 0, 72, 47
1, 180623, Note_off_c, 0, 56, 50
1, 180630, Note_off_c, 0, 75, 65
1, 180810, Control_c, 0, 67, 81
1, 180841, Control_c, 0, 67, 82
1, 180856, Control_c, 0, 67, 82
1, 180871, Control_c, 0, 67, 83
1, 180887, Note_on_c, 0, 70, 50
1, 180900, Note_on_c, 0, 55, 34
1, 180901, Control_c, 0, 67, 83
1, 180901, Note_off_c, 0, 54, 58
1, 180906, Note_off_c, 0, 69, 57
1, 180915, Control_c, 0, 67, 84
1, 180930, Control_c, 0, 67, 84
1, 180945, Control_c, 0, 67, 85
1, 180959, Control_c, 0, 67, 85
1, 180974, Control_c, 0, 67, 88
1, 180989, Control_c, 0, 67, 92
1, 181004, Control_c, 0, 67, 94
1, 181019, Control_c, 0, 67, 95
1, 181159, Control_c, 0, 67, 95
1, 181189, Control_c, 0, 67, 96
1, 181209, Note_on_c, 0, 72, 61
1, 181218, Note_on_c, 0, 67, 39
1, 181219, Note_on_c, 0, 52, 41
1, 181219, Control_c, 0, 67, 99
1, 181231, Note_off_c, 0, 74, 59
1, 181233, Control_c, 0, 67, 102
1, 181263, Control_c, 0, 67, 104
1, 181268, Note_off_c, 0, 55, 52
1, 181319, Note_off_c, 0, 70, 35
1, 181322, Control_c, 0, 67, 107
1, 181352, Control_c, 0, 67, 111
1, 181485, Control_c, 0, 67, 113
1, 181545, Control_c, 0, 67, 115
1, 181555, Note_on_c, 0, 68, 48
1, 181559, Note_on_c, 0, 53, 35
1, 181584, Note_off_c, 0, 67, 55
1, 181584, Note_off_c, 0, 52, 42
1, 181589, Control_c, 0, 67, 117
1, 181619, Control_c, 0, 67, 120
1, 181724, Control_c, 0, 67, 122
1, 181887, Note_on_c, 0, 70, 52
1, 181901, Note_off_c, 0, 72, 53
1, 181902, Note_on_c, 0, 50, 39
1, 181903, Note_on_c, 0, 65, 35
1, 181965, Note_off_c, 0, 53, 43
1, 182031, Note_off_c, 0, 68, 30
1, 182236, Note_on_c, 0, 51, 41
1, 182239, Note_on_c, 0, 67, 40
1, 182278, Note_off_c, 0, 50, 42
1, 182286, Note_off_c, 0, 65, 56
1, 182557, Note_on_c, 0, 69, 59
1, 182569, Note_on_c, 0, 48, 42
1, 182570, Note_on_c, 0, 63, 44
1, 182604, Note_off_c, 0, 70, 45
1, 182646, Note_off_c, 0, 51, 44
1, 182669, Note_off_c, 0, 67, 53
1, 182791, Control_c, 0, 67, 120
1, 182850, Control_c, 0, 64, 34
1, 182865, Control_c, 0, 64, 41
1, 182880, Control_c, 0, 64, 46
1, 182890, Note_on_c, 0, 70, 81
1, 182895, Control_c, 0, 64, 40
1, 182895, Control_c, 0, 67, 118
1, 182901, Note_on_c, 0, 62, 67
1, 182903, Note_on_c, 0, 50, 67
1, 182910, Control_c, 0, 64, 0
1, 182925, Control_c, 0, 67, 116
1, 182928, Note_off_c, 0, 69, 60
1, 182939, Control_c, 0, 67, 113
1, 182943, Note_off_c, 0, 63, 62
1, 182950, Note_off_c, 0, 48, 59
1, 182954, Control_c, 0, 67, 108
1, 182969, Control_c, 0, 67, 101
1, 182984, Control_c, 0, 64, 32
1, 182984, Control_c, 0, 67, 88
1, 182998, Control_c, 0, 64, 57
1, 182998, Control_c, 0, 67, 69
1, 183013, Control_c, 0, 64, 67
1, 183013, Control_c, 0, 67, 44
1, 183028, Control_c, 0, 64, 72
1, 183028, Control_c, 0, 67, 0
1, 183043, Control_c, 0, 64, 78
1, 183057, Control_c, 0, 64, 82
1, 183072, Control_c, 0, 64, 86
1, 183087, Control_c, 0, 64, 92
1, 183102, Control_c, 0, 64, 100
1, 183103, Note_off_c, 0, 70, 63
1, 183117, Control_c, 0, 64, 111
1, 183127, Note_off_c, 0, 62, 63
1, 183131, Control_c, 0, 64, 127
1, 183206, Control_c, 0, 64, 87
1, 183206, Note_on_c, 0, 62, 94
1, 183214, Note_on_c, 0, 58, 83
1, 183215, Note_on_c, 0, 52, 83
1, 183220, Control_c, 0, 64, 59
1, 183235, Note_off_c, 0, 50, 64
1, 183236, Control_c, 0, 64, 0
1, 183296, Control_c, 0, 64, 54
1, 183310, Control_c, 0, 64, 67
1, 183321, Note_off_c, 0, 52, 64
1, 183325, Control_c, 0, 64, 73
1, 183340, Control_c, 0, 64, 81
1, 183362, Control_c, 0, 64, 88
1, 183365, Note_off_c, 0, 58, 59
1, 183377, Control_c, 0, 64, 101
1, 183392, Control_c, 0, 64, 127
1, 183480, Control_c, 0, 64, 110
1, 183495, Control_c, 0, 64, 62
1, 183496, Note_off_c, 0, 62, 62
1, 183510, Control_c, 0, 64, 0
1, 183522, Note_on_c, 0, 41, 99
1, 183524, Note_on_c, 0, 57, 89
1, 183524, Note_on_c, 0, 60, 91
1, 183555, Control_c, 0, 64, 37
1, 183558, Note_off_c, 0, 41, 66
1, 183569, Control_c, 0, 64, 63
1, 183584, Control_c, 0, 64, 76
1, 183599, Control_c, 0, 64, 107
1, 183614, Control_c, 0, 64, 127
1, 183646, Note_off_c, 0, 57, 59
1, 183667, Note_off_c, 0, 60, 63
1, 183688, Control_c, 0, 64, 77
1, 183703, Control_c, 0, 64, 40
1, 183708, Note_on_c, 0, 53, 80
1, 183711, Note_on_c, 0, 65, 81
1, 183718, Control_c, 0, 64, 0
1, 183733, Control_c, 0, 67, 22
1, 183737, Note_off_c, 0, 53, 65
1, 183748, Control_c, 0, 67, 26
1, 183762, Control_c, 0, 67, 29
1, 183769, Note_off_c, 0, 65, 62
1, 183777, Control_c, 0, 67, 32
1, 183783, Note_on_c, 0, 57, 54
1, 183789, Note_on_c, 0, 60, 53
1, 183792, Control_c, 0, 67, 36
1, 183807, Control_c, 0, 67, 40
1, 183819, Note_off_c, 0, 57, 65
1, 183822, Control_c, 0, 67, 41
1, 183827, Note_off_c, 0, 60, 56
1, 183856, Note_on_c, 0, 65, 68
1, 183858, Note_on_c, 0, 53, 76
1, 183883, Note_off_c, 0, 53, 68
1, 183892, Note_off_c, 0, 65, 64
1, 183924, Note_on_c, 0, 57, 60
1, 183961, Note_off_c, 0, 57, 63
1, 183969, Control_c, 0, 67, 41
1, 183984, Control_c, 0, 67, 40
1, 183988, Note_on_c, 0, 53, 57
1, 183999, Note_on_c, 0, 67, 68
1, 183999, Control_c, 0, 67, 39
1, 184013, Note_off_c, 0, 53, 62
1, 184014, Control_c, 0, 67, 38
1, 184033, Note_off_c, 0, 67, 63
1, 184059, Control_c, 0, 67, 39
1, 184076, Note_on_c, 0, 57, 56
1, 184089, Control_c, 0, 67, 39
1, 184099, Note_off_c, 0, 57, 59
1, 184111, Control_c, 0, 67, 39
1, 184126, Control_c, 0, 67, 38
1, 184141, Control_c, 0, 67, 37
1, 184143, Note_on_c, 0, 69, 70
1, 184146, Note_on_c, 0, 53, 65
1, 184156, Control_c, 0, 67, 36
1, 184171, Control_c, 0, 67, 36
1, 184174, Note_off_c, 0, 53, 65
1, 184191, Note_off_c, 0, 69, 54
1, 184215, Note_on_c, 0, 63, 56
1, 184216, Control_c, 0, 67, 36
1, 184225, Note_on_c, 0, 60, 55
1, 184246, Control_c, 0, 67, 37
1, 184247, Note_off_c, 0, 60, 61
1, 184248, Note_off_c, 0, 63, 62
1, 184284, Note_on_c, 0, 65, 72
1, 184290, Control_c, 0, 67, 36
1, 184299, Note_on_c, 0, 53, 54
1, 184319, Control_c, 0, 67, 36
1, 184323, Note_off_c, 0, 53, 60
1, 184341, Note_off_c, 0, 65, 61
1, 184359, Note_on_c, 0, 63, 63
1, 184363, Note_on_c, 0, 60, 47
1, 184378, Control_c, 0, 67, 36
1, 184401, Note_off_c, 0, 60, 64
1, 184408, Control_c, 0, 67, 35
1, 184423, Control_c, 0, 67, 34
1, 184428, Note_off_c, 0, 63, 60
1, 184431, Note_on_c, 0, 67, 79
1, 184440, Note_on_c, 0, 53, 66
1, 184452, Control_c, 0, 67, 34
1, 184469, Note_off_c, 0, 53, 65
1, 184482, Control_c, 0, 67, 34
1, 184498, Note_on_c, 0, 60, 73
1, 184500, Note_off_c, 0, 67, 63
1, 184526, Control_c, 0, 67, 34
1, 184530, Note_on_c, 0, 63, 38
1, 184541, Control_c, 0, 67, 32
1, 184554, Note_off_c, 0, 60, 63
1, 184556, Control_c, 0, 67, 29
1, 184563, Note_off_c, 0, 63, 45
1, 184565, Note_on_c, 0, 69, 87
1, 184571, Control_c, 0, 64, 39
1, 184571, Control_c, 0, 67, 20
1, 184580, Note_on_c, 0, 53, 78
1, 184585, Control_c, 0, 64, 33
1, 184585, Control_c, 0, 67, 0
1, 184600, Control_c, 0, 64, 34
1, 184615, Control_c, 0, 64, 35
1, 184617, Note_off_c, 0, 53, 65
1, 184630, Note_off_c, 0, 69, 62
1, 184635, Note_on_c, 0, 63, 70
1, 184642, Note_on_c, 0, 60, 76
1, 184645, Control_c, 0, 64, 33
1, 184660, Control_c, 0, 64, 0
1, 184677, Note_off_c, 0, 60, 64
1, 184679, Note_off_c, 0, 63, 64
1, 184711, Note_on_c, 0, 70, 91
1, 184730, Note_on_c, 0, 53, 82
1, 184756, Note_off_c, 0, 53, 65
1, 184775, Note_on_c, 0, 61, 74
1, 184775, Note_off_c, 0, 70, 63
1, 184780, Note_on_c, 0, 58, 74
1, 184815, Note_off_c, 0, 61, 60
1, 184824, Note_off_c, 0, 58, 63
1, 184872, Note_on_c, 0, 70, 83
1, 184880, Note_on_c, 0, 53, 71
1, 184908, Note_off_c, 0, 53, 68
1, 184919, Note_off_c, 0, 70, 67
1, 184950, Note_on_c, 0, 58, 55
1, 184958, Note_on_c, 0, 61, 36
1, 184986, Note_off_c, 0, 58, 65
1, 184991, Note_off_c, 0, 61, 53
1, 185017, Note_on_c, 0, 70, 83
1, 185021, Note_on_c, 0, 53, 72
1, 185049, Note_off_c, 0, 53, 67
1, 185056, Note_off_c, 0, 70, 57
1, 185092, Note_on_c, 0, 61, 50
1, 185097, Note_on_c, 0, 58, 60
1, 185128, Note_off_c, 0, 61, 60
1, 185134, Note_off_c, 0, 58, 60
1, 185152, Note_on_c, 0, 53, 67
1, 185152, Note_on_c, 0, 68, 81
1, 185171, Control_c, 0, 67, 17
1, 185182, Note_off_c, 0, 53, 66
1, 185201, Note_off_c, 0, 68, 67
1, 185235, Note_on_c, 0, 58, 69
1, 185245, Control_c, 0, 67, 19
1, 185277, Note_off_c, 0, 58, 60
1, 185289, Control_c, 0, 67, 21
1, 185301, Note_on_c, 0, 53, 72
1, 185301, Note_on_c, 0, 67, 71
1, 185326, Note_off_c, 0, 53, 67
1, 185330, Note_off_c, 0, 67, 65
1, 185382, Note_on_c, 0, 58, 67
1, 185423, Note_off_c, 0, 58, 63
1, 185439, Note_on_c, 0, 53, 54
1, 185445, Note_on_c, 0, 65, 71
1, 185473, Note_off_c, 0, 53, 65
1, 185495, Note_off_c, 0, 65, 64
1, 185512, Control_c, 0, 67, 23
1, 185534, Note_on_c, 0, 58, 61
1, 185579, Note_off_c, 0, 58, 63
1, 185584, Note_on_c, 0, 53, 67
1, 185593, Note_on_c, 0, 64, 54
1, 185594, Note_on_c, 0, 65, 62
1, 185618, Note_off_c, 0, 53, 66
1, 185647, Note_off_c, 0, 65, 59
1, 185651, Note_off_c, 0, 64, 63
1, 185653, Control_c, 0, 67, 25
1, 185672, Note_on_c, 0, 58, 73
1, 185682, Control_c, 0, 67, 27
1, 185712, Note_off_c, 0, 58, 63
1, 185721, Note_on_c, 0, 53, 69
1, 185733, Note_on_c, 0, 61, 59
1, 185734, Note_on_c, 0, 67, 74
1, 185745, Note_off_c, 0, 53, 67
1, 185769, Note_off_c, 0, 61, 63
1, 185800, Note_on_c, 0, 58, 84
1, 185802, Control_c, 0, 67, 29
1, 185810, Note_off_c, 0, 67, 62
1, 185844, Note_off_c, 0, 58, 62
1, 185846, Control_c, 0, 67, 27
1, 185876, Control_c, 0, 67, 24
1, 185876, Note_on_c, 0, 53, 92
1, 185882, Note_on_c, 0, 41, 90
1, 185882, Note_on_c, 0, 65, 105
1, 185885, Note_on_c, 0, 57, 98
1, 185888, Note_on_c, 0, 60, 82
1, 185890, Control_c, 0, 64, 47
1, 185904, Note_off_c, 0, 57, 70
1, 185905, Note_off_c, 0, 41, 68
1, 185905, Control_c, 0, 64, 62
1, 185905, Control_c, 0, 67, 22
1, 185906, Note_off_c, 0, 53, 68
1, 185907, Note_off_c, 0, 60, 74
1, 185918, Note_on_c, 0, 59, 41
1, 185918, Note_off_c, 0, 59, 127
1, 185920, Control_c, 0, 64, 65
1, 185926, Note_off_c, 0, 65, 68
1, 185949, Control_c, 0, 64, 67
1, 185964, Control_c, 0, 64, 71
1, 185964, Control_c, 0, 67, 24
1, 185979, Control_c, 0, 64, 75
1, 185994, Control_c, 0, 64, 76
1, 186009, Control_c, 0, 67, 28
1, 186038, Control_c, 0, 64, 75
1, 186038, Control_c, 0, 67, 31
1, 186053, Control_c, 0, 64, 69
1, 186053, Control_c, 0, 67, 35
1, 186068, Control_c, 0, 64, 56
1, 186068, Control_c, 0, 67, 38
1, 186078, Note_on_c, 0, 77, 85
1, 186082, Control_c, 0, 64, 0
1, 186082, Control_c, 0, 67, 39
1, 186097, Control_c, 0, 67, 40
1, 186101, Note_on_c, 0, 65, 62
1, 186121, Note_off_c, 0, 65, 65
1, 186129, Note_off_c, 0, 77, 58
1, 186155, Note_on_c, 0, 69, 69
1, 186171, Note_on_c, 0, 72, 37
1, 186186, Note_off_c, 0, 69, 62
1, 186186, Control_c, 0, 67, 39
1, 186200, Note_off_c, 0, 72, 48
1, 186201, Control_c, 0, 67, 38
1, 186216, Control_c, 0, 67, 38
1, 186221, Note_on_c, 0, 65, 68
1, 186223, Note_on_c, 0, 77, 73
1, 186252, Note_off_c, 0, 65, 66
1, 186256, Note_off_c, 0, 77, 59
1, 186299, Note_on_c, 0, 69, 55
1, 186305, Control_c, 0, 67, 37
1, 186333, Note_off_c, 0, 69, 61
1, 186353, Poly_aftertouch_c, 0, 72, 127
1, 186365, Note_on_c, 0, 79, 78
1, 186386, Control_c, 0, 67, 37
1, 186394, Poly_aftertouch_c, 0, 72, 0
1, 186402, Note_on_c, 0, 65, 14
1, 186403, Note_off_c, 0, 79, 66
1, 186416, Control_c, 0, 67, 37
1, 186432, Control_c, 0, 67, 38
1, 186443, Note_on_c, 0, 69, 69
1, 186446, Note_off_c, 0, 65, 42
1, 186447, Control_c, 0, 67, 39
1, 186461, Control_c, 0, 67, 39
1, 186468, Note_off_c, 0, 69, 67
1, 186476, Control_c, 0, 67, 40
1, 186491, Control_c, 0, 67, 40
1, 186496, Note_on_c, 0, 81, 80
1, 186505, Control_c, 0, 67, 41
1, 186519, Note_on_c, 0, 65, 64
1, 186538, Note_off_c, 0, 65, 66
1, 186556, Note_off_c, 0, 81, 62
1, 186580, Control_c, 0, 67, 40
1, 186583, Note_on_c, 0, 75, 53
1, 186591, Note_on_c, 0, 72, 59
1, 186594, Control_c, 0, 67, 40
1, 186616, Note_off_c, 0, 72, 62
1, 186624, Control_c, 0, 67, 39
1, 186631, Note_off_c, 0, 75, 63
1, 186639, Control_c, 0, 67, 38
1, 186641, Note_on_c, 0, 77, 70
1, 186648, Note_on_c, 0, 65, 71
1, 186654, Control_c, 0, 67, 37
1, 186669, Control_c, 0, 67, 35
1, 186675, Note_off_c, 0, 65, 67
1, 186684, Control_c, 0, 67, 33
1, 186699, Control_c, 0, 67, 30
1, 186706, Note_off_c, 0, 77, 63
1, 186713, Control_c, 0, 67, 25
1, 186714, Note_on_c, 0, 72, 65
1, 186727, Note_on_c, 0, 75, 61
1, 186728, Control_c, 0, 67, 0
1, 186755, Note_off_c, 0, 72, 63
1, 186776, Note_off_c, 0, 75, 50
1, 186787, Note_on_c, 0, 79, 81
1, 186795, Note_on_c, 0, 65, 72
1, 186823, Note_off_c, 0, 65, 67
1, 186849, Note_on_c, 0, 72, 78
1, 186855, Note_off_c, 0, 79, 66
1, 186905, Note_off_c, 0, 72, 62
1, 186919, Note_on_c, 0, 81, 85
1, 186920, Control_c, 0, 64, 47
1, 186935, Control_c, 0, 64, 62
1, 186944, Note_on_c, 0, 65, 89
1, 186950, Control_c, 0, 64, 67
1, 186962, Note_on_c, 0, 75, 36
1, 186965, Control_c, 0, 64, 70
1, 186971, Note_off_c, 0, 81, 64
1, 186976, Note_off_c, 0, 65, 63
1, 186979, Control_c, 0, 64, 72
1, 186985, Note_on_c, 0, 72, 79
1, 186994, Control_c, 0, 64, 73
1, 187009, Control_c, 0, 64, 73
1, 187012, Note_off_c, 0, 75, 66
1, 187031, Note_off_c, 0, 72, 67
1, 187039, Control_c, 0, 64, 72
1, 187054, Control_c, 0, 64, 66
1, 187062, Note_on_c, 0, 82, 92
1, 187068, Control_c, 0, 64, 49
1, 187078, Note_on_c, 0, 65, 89
1, 187083, Control_c, 0, 64, 0
1, 187126, Note_off_c, 0, 65, 62
1, 187132, Note_off_c, 0, 82, 66
1, 187144, Note_on_c, 0, 73, 68
1, 187148, Note_on_c, 0, 70, 75
1, 187193, Note_off_c, 0, 70, 61
1, 187195, Note_off_c, 0, 73, 64
1, 187221, Note_on_c, 0, 82, 87
1, 187238, Note_on_c, 0, 65, 81
1, 187261, Note_off_c, 0, 65, 69
1, 187265, Note_off_c, 0, 82, 64
1, 187297, Note_on_c, 0, 73, 54
1, 187307, Note_on_c, 0, 70, 63
1, 187334, Note_off_c, 0, 73, 56
1, 187337, Note_off_c, 0, 70, 64
1, 187367, Note_on_c, 0, 82, 82
1, 187372, Note_on_c, 0, 65, 70
1, 187400, Note_off_c, 0, 65, 68
1, 187406, Note_off_c, 0, 82, 66
1, 187449, Note_on_c, 0, 70, 67
1, 187480, Note_off_c, 0, 70, 63
1, 187504, Note_on_c, 0, 80, 81
1, 187518, Note_on_c, 0, 65, 68
1, 187545, Note_off_c, 0, 65, 66
1, 187549, Note_off_c, 0, 80, 59
1, 187590, Note_on_c, 0, 70, 67
1, 187624, Note_off_c, 0, 70, 59
1, 187647, Note_on_c, 0, 65, 60
1, 187658, Note_on_c, 0, 79, 69
1, 187677, Note_off_c, 0, 65, 66
1, 187681, Note_off_c, 0, 79, 60
1, 187735, Note_on_c, 0, 70, 64
1, 187767, Note_off_c, 0, 70, 63
1, 187791, Note_on_c, 0, 77, 67
1, 187797, Note_on_c, 0, 65, 67
1, 187817, Note_off_c, 0, 65, 65
1, 187854, Note_off_c, 0, 77, 61
1, 187856, Note_on_c, 0, 73, 42
1, 187888, Note_on_c, 0, 70, 52
1, 187923, Note_off_c, 0, 70, 59
1, 187930, Note_on_c, 0, 76, 74
1, 187937, Note_on_c, 0, 65, 64
1, 187955, Note_off_c, 0, 73, 30
1, 187969, Note_off_c, 0, 65, 65
1, 187998, Note_off_c, 0, 76, 61
1, 188009, Note_on_c, 0, 70, 74
1, 188049, Note_off_c, 0, 70, 60
1, 188077, Note_on_c, 0, 79, 81
1, 188079, Note_on_c, 0, 65, 77
1, 188082, Note_on_c, 0, 73, 62
1, 188103, Note_off_c, 0, 65, 69
1, 188118, Note_off_c, 0, 79, 67
1, 188132, Note_off_c, 0, 73, 64
1, 188136, Control_c, 0, 64, 32
1, 188145, Note_on_c, 0, 70, 77
1, 188151, Control_c, 0, 64, 0
1, 188166, Note_off_c, 0, 70, 69
1, 188204, Note_on_c, 0, 77, 87
1, 188204, Note_on_c, 0, 53, 90
1, 188228, Note_off_c, 0, 53, 67
1, 188262, Note_on_c, 0, 72, 39
1, 188267, Note_off_c, 0, 77, 61
1, 188285, Note_on_c, 0, 69, 68
1, 188311, Note_off_c, 0, 72, 60
1, 188317, Note_off_c, 0, 69, 60
1, 188350, Note_on_c, 0, 65, 72
1, 188350, Note_on_c, 0, 77, 77
1, 188376, Note_off_c, 0, 65, 69
1, 188383, Note_off_c, 0, 77, 59
1, 188423, Note_on_c, 0, 72, 52
1, 188424, Note_on_c, 0, 69, 72
1, 188445, Note_off_c, 0, 72, 60
1, 188446, Note_off_c, 0, 69, 69
1, 188477, Note_on_c, 0, 76, 76
1, 188485, Note_on_c, 0, 65, 74
1, 188511, Note_off_c, 0, 65, 68
1, 188535, Note_off_c, 0, 76, 63
1, 188540, Note_on_c, 0, 70, 83
1, 188600, Note_off_c, 0, 70, 61
1, 188616, Note_on_c, 0, 79, 88
1, 188622, Note_on_c, 0, 73, 64
1, 188625, Note_on_c, 0, 65, 81
1, 188660, Note_off_c, 0, 65, 64
1, 188662, Note_off_c, 0, 79, 64
1, 188688, Note_on_c, 0, 70, 91
1, 188699, Note_off_c, 0, 73, 61
1, 188727, Note_off_c, 0, 70, 62
1, 188745, Note_on_c, 0, 53, 94
1, 188750, Note_on_c, 0, 77, 95
1, 188780, Note_off_c, 0, 53, 64
1, 188818, Note_on_c, 0, 72, 40
1, 188818, Note_off_c, 0, 77, 58
1, 188830, Note_on_c, 0, 69, 78
1, 188858, Note_off_c, 0, 72, 66
1, 188874, Note_off_c, 0, 69, 61
1, 188890, Note_on_c, 0, 65, 88
1, 188901, Note_on_c, 0, 77, 81
1, 188925, Note_off_c, 0, 65, 62
1, 188952, Note_on_c, 0, 72, 73
1, 188954, Note_off_c, 0, 77, 60
1, 188958, Note_on_c, 0, 69, 73
1, 188991, Note_off_c, 0, 72, 59
1, 188994, Note_off_c, 0, 69, 60
1, 189028, Note_on_c, 0, 65, 84
1, 189030, Note_on_c, 0, 76, 80
1, 189059, Note_off_c, 0, 65, 61
1, 189090, Note_on_c, 0, 70, 86
1, 189092, Note_off_c, 0, 76, 61
1, 189153, Note_on_c, 0, 79, 86
1, 189155, Note_off_c, 0, 70, 64
1, 189156, Note_on_c, 0, 65, 79
1, 189167, Note_on_c, 0, 73, 67
1, 189201, Note_off_c, 0, 65, 65
1, 189218, Note_off_c, 0, 79, 64
1, 189221, Note_off_c, 0, 73, 66
1, 189236, Note_on_c, 0, 70, 68
1, 189236, Note_off_c, 0, 70, 127
1, 189263, Note_on_c, 0, 71, 52
1, 189287, Note_off_c, 0, 71, 38
1, 189299, Note_on_c, 0, 53, 83
1, 189310, Note_on_c, 0, 77, 87
1, 189321, Note_on_c, 0, 69, 81
1, 189325, Note_on_c, 0, 72, 81
1, 189329, Control_c, 0, 64, 33
1, 189352, Control_c, 0, 64, 55
1, 189367, Control_c, 0, 64, 61
1, 189382, Control_c, 0, 64, 63
1, 189382, Note_off_c, 0, 77, 64
1, 189387, Note_off_c, 0, 72, 61
1, 189391, Note_off_c, 0, 69, 60
1, 189397, Control_c, 0, 64, 63
1, 189426, Note_on_c, 0, 65, 84
1, 189471, Control_c, 0, 64, 63
1, 189486, Control_c, 0, 64, 62
1, 189495, Note_on_c, 0, 67, 81
1, 189500, Control_c, 0, 64, 61
1, 189504, Note_off_c, 0, 65, 63
1, 189515, Control_c, 0, 64, 61
1, 189530, Control_c, 0, 64, 60
1, 189545, Control_c, 0, 64, 59
1, 189560, Control_c, 0, 64, 58
1, 189561, Note_on_c, 0, 69, 76
1, 189572, Note_off_c, 0, 67, 65
1, 189574, Control_c, 0, 64, 58
1, 189589, Control_c, 0, 64, 57
1, 189604, Control_c, 0, 64, 56
1, 189618, Note_on_c, 0, 70, 84
1, 189619, Control_c, 0, 64, 54
1, 189635, Control_c, 0, 64, 53
1, 189648, Note_off_c, 0, 69, 62
1, 189649, Control_c, 0, 64, 51
1, 189664, Control_c, 0, 64, 48
1, 189665, Note_off_c, 0, 70, 67
1, 189679, Control_c, 0, 64, 43
1, 189680, Note_on_c, 0, 72, 89
1, 189694, Control_c, 0, 64, 37
1, 189709, Control_c, 0, 64, 0
1, 189733, Note_off_c, 0, 72, 63
1, 189756, Note_on_c, 0, 74, 86
1, 189768, Control_c, 0, 67, 17
1, 189797, Control_c, 0, 67, 20
1, 189819, Note_on_c, 0, 76, 89
1, 189827, Control_c, 0, 67, 22
1, 189835, Note_off_c, 0, 74, 61
1, 189856, Note_off_c, 0, 53, 60
1, 189856, Control_c, 0, 67, 25
1, 189881, Note_on_c, 0, 77, 81
1, 189885, Note_off_c, 0, 76, 64
1, 189886, Control_c, 0, 67, 29
1, 189901, Control_c, 0, 67, 31
1, 189915, Control_c, 0, 67, 33
1, 189930, Control_c, 0, 67, 36
1, 189934, Note_off_c, 0, 77, 65
1, 189945, Control_c, 0, 67, 40
1, 189946, Note_on_c, 0, 76, 76
1, 189960, Control_c, 0, 67, 47
1, 189975, Control_c, 0, 67, 58
1, 189990, Control_c, 0, 67, 68
1, 190004, Note_off_c, 0, 76, 63
1, 190005, Control_c, 0, 67, 76
1, 190011, Note_on_c, 0, 77, 79
1, 190020, Control_c, 0, 67, 82
1, 190034, Control_c, 0, 67, 87
1, 190049, Control_c, 0, 67, 90
1, 190064, Control_c, 0, 67, 92
1, 190071, Note_off_c, 0, 77, 63
1, 190097, Note_on_c, 0, 76, 74
1, 190140, Note_off_c, 0, 76, 63
1, 190163, Note_on_c, 0, 77, 70
1, 190190, Control_c, 0, 67, 92
1, 190206, Note_off_c, 0, 77, 63
1, 190219, Control_c, 0, 67, 93
1, 190234, Control_c, 0, 67, 94
1, 190238, Note_on_c, 0, 76, 63
1, 190249, Control_c, 0, 67, 95
1, 190264, Control_c, 0, 67, 97
1, 190278, Note_off_c, 0, 76, 64
1, 190294, Control_c, 0, 67, 100
1, 190300, Note_on_c, 0, 77, 69
1, 190344, Note_off_c, 0, 77, 63
1, 190376, Note_on_c, 0, 76, 64
1, 190452, Note_off_c, 0, 76, 60
1, 190467, Note_on_c, 0, 77, 76
1, 190480, Note_on_c, 0, 74, 50
1, 190548, Note_on_c, 0, 58, 62
1, 190635, Note_off_c, 0, 58, 60
1, 190678, Note_on_c, 0, 62, 59
1, 190694, Control_c, 0, 67, 104
1, 190709, Control_c, 0, 67, 110
1, 190724, Control_c, 0, 67, 116
1, 190737, Note_off_c, 0, 62, 62
1, 190739, Control_c, 0, 67, 122
1, 190753, Control_c, 0, 67, 125
1, 190756, Note_on_c, 0, 63, 61
1, 190804, Note_off_c, 0, 63, 64
1, 190833, Note_on_c, 0, 65, 60
1, 190869, Note_off_c, 0, 65, 67
1, 190898, Note_on_c, 0, 67, 60
1, 190923, Note_off_c, 0, 74, 55
1, 190930, Note_off_c, 0, 67, 65
1, 190973, Note_on_c, 0, 69, 49
1, 191004, Note_off_c, 0, 77, 65
1, 191012, Note_off_c, 0, 69, 46
1, 191029, Note_on_c, 0, 74, 70
1, 191051, Note_on_c, 0, 70, 74
1, 191103, Note_off_c, 0, 70, 61
1, 191124, Note_on_c, 0, 69, 58
1, 191176, Note_off_c, 0, 69, 57
1, 191194, Note_on_c, 0, 70, 70
1, 191204, Control_c, 0, 67, 123
1, 191248, Note_off_c, 0, 70, 61
1, 191268, Note_on_c, 0, 69, 55
1, 191315, Note_off_c, 0, 69, 45
1, 191322, Note_off_c, 0, 74, 55
1, 191325, Note_on_c, 0, 82, 69
1, 191348, Note_on_c, 0, 70, 58
1, 191378, Note_off_c, 0, 70, 56
1, 191409, Note_on_c, 0, 69, 63
1, 191449, Note_off_c, 0, 69, 52
1, 191480, Note_on_c, 0, 70, 60
1, 191529, Note_off_c, 0, 70, 59
1, 191553, Note_on_c, 0, 69, 50
1, 191598, Note_off_c, 0, 69, 51
1, 191626, Note_on_c, 0, 77, 64
1, 191642, Note_off_c, 0, 82, 61
1, 191643, Note_on_c, 0, 74, 42
1, 191655, Note_on_c, 0, 70, 47
1, 191683, Note_off_c, 0, 70, 58
1, 191703, Note_on_c, 0, 69, 51
1, 191770, Note_off_c, 0, 69, 47
1, 191777, Note_on_c, 0, 70, 62
1, 191832, Note_off_c, 0, 70, 52
1, 191865, Control_c, 0, 64, 32
1, 191872, Note_on_c, 0, 69, 49
1, 191880, Control_c, 0, 64, 33
1, 191895, Control_c, 0, 64, 34
1, 191901, Note_off_c, 0, 74, 38
1, 191907, Note_on_c, 0, 86, 78
1, 191909, Control_c, 0, 64, 34
1, 191911, Note_off_c, 0, 69, 47
1, 191924, Note_off_c, 0, 77, 61
1, 191924, Control_c, 0, 64, 35
1, 191927, Note_on_c, 0, 82, 64
1, 191942, Note_on_c, 0, 70, 58
1, 191992, Note_off_c, 0, 70, 48
1, 192003, Note_on_c, 0, 69, 68
1, 192029, Control_c, 0, 64, 35
1, 192044, Control_c, 0, 64, 36
1, 192058, Control_c, 0, 64, 38
1, 192073, Control_c, 0, 64, 41
1, 192076, Note_off_c, 0, 69, 58
1, 192087, Note_on_c, 0, 70, 61
1, 192088, Control_c, 0, 64, 44
1, 192103, Control_c, 0, 64, 46
1, 192118, Control_c, 0, 64, 47
1, 192140, Note_off_c, 0, 70, 61
1, 192148, Control_c, 0, 64, 44
1, 192158, Note_on_c, 0, 69, 49
1, 192163, Control_c, 0, 64, 0
1, 192199, Note_on_c, 0, 77, 70
1, 192199, Note_off_c, 0, 82, 51
1, 192201, Note_off_c, 0, 86, 49
1, 192211, Note_off_c, 0, 69, 47
1, 192221, Note_on_c, 0, 74, 57
1, 192244, Note_on_c, 0, 70, 53
1, 192266, Control_c, 0, 64, 40
1, 192281, Control_c, 0, 64, 50
1, 192296, Control_c, 0, 64, 55
1, 192300, Note_off_c, 0, 70, 41
1, 192310, Note_on_c, 0, 69, 57
1, 192311, Control_c, 0, 64, 58
1, 192311, Control_c, 0, 67, 121
1, 192325, Control_c, 0, 64, 60
1, 192348, Control_c, 0, 64, 61
1, 192362, Control_c, 0, 64, 63
1, 192366, Note_off_c, 0, 69, 55
1, 192377, Control_c, 0, 64, 64
1, 192382, Note_off_c, 0, 74, 62
1, 192386, Note_on_c, 0, 70, 52
1, 192392, Control_c, 0, 64, 65
1, 192405, Note_off_c, 0, 77, 61
1, 192407, Control_c, 0, 64, 65
1, 192422, Control_c, 0, 64, 66
1, 192440, Note_off_c, 0, 70, 53
1, 192461, Note_on_c, 0, 69, 49
1, 192466, Control_c, 0, 64, 64
1, 192481, Control_c, 0, 64, 60
1, 192496, Control_c, 0, 64, 53
1, 192511, Note_on_c, 0, 89, 89
1, 192511, Control_c, 0, 64, 45
1, 192522, Note_off_c, 0, 69, 50
1, 192525, Control_c, 0, 64, 41
1, 192526, Note_on_c, 0, 86, 73
1, 192540, Control_c, 0, 64, 43
1, 192544, Note_on_c, 0, 70, 55
1, 192555, Control_c, 0, 64, 51
1, 192569, Control_c, 0, 64, 59
1, 192581, Note_off_c, 0, 70, 56
1, 192584, Control_c, 0, 64, 63
1, 192599, Note_on_c, 0, 69, 49
1, 192599, Control_c, 0, 64, 64
1, 192614, Control_c, 0, 64, 65
1, 192615, Note_off_c, 0, 86, 64
1, 192626, Note_off_c, 0, 89, 66
1, 192629, Control_c, 0, 64, 66
1, 192643, Control_c, 0, 64, 66
1, 192659, Note_off_c, 0, 69, 58
1, 192673, Control_c, 0, 64, 66
1, 192676, Note_on_c, 0, 70, 66
1, 192717, Note_off_c, 0, 70, 64
1, 192735, Note_on_c, 0, 69, 51
1, 192768, Note_off_c, 0, 69, 58
1, 192792, Control_c, 0, 64, 65
1, 192807, Control_c, 0, 64, 65
1, 192816, Note_on_c, 0, 70, 69
1, 192823, Note_on_c, 0, 77, 69
1, 192837, Control_c, 0, 64, 64
1, 192840, Note_on_c, 0, 74, 61
1, 192840, Note_off_c, 0, 70, 68
1, 192852, Control_c, 0, 64, 64
1, 192866, Control_c, 0, 64, 63
1, 192881, Control_c, 0, 64, 63
1, 192890, Note_on_c, 0, 58, 77
1, 192896, Control_c, 0, 64, 62
1, 192911, Control_c, 0, 64, 61
1, 192926, Control_c, 0, 64, 60
1, 192941, Control_c, 0, 64, 59
1, 192956, Control_c, 0, 64, 59
1, 192971, Control_c, 0, 64, 58
1, 192977, Note_off_c, 0, 58, 61
1, 192992, Note_on_c, 0, 60, 39
1, 193020, Note_off_c, 0, 60, 50
1, 193037, Note_on_c, 0, 62, 70
1, 193059, Control_c, 0, 64, 57
1, 193074, Control_c, 0, 64, 55
1, 193096, Control_c, 0, 64, 50
1, 193103, Note_off_c, 0, 62, 62
1, 193111, Control_c, 0, 64, 44
1, 193118, Note_on_c, 0, 63, 71
1, 193126, Control_c, 0, 64, 40
1, 193141, Control_c, 0, 64, 39
1, 193155, Control_c, 0, 64, 40
1, 193158, Note_off_c, 0, 63, 65
1, 193170, Control_c, 0, 64, 41
1, 193185, Control_c, 0, 64, 43
1, 193188, Note_on_c, 0, 65, 64
1, 193200, Control_c, 0, 64, 47
1, 193215, Control_c, 0, 64, 51
1, 193218, Note_off_c, 0, 65, 66
1, 193230, Control_c, 0, 64, 55
1, 193245, Control_c, 0, 64, 57
1, 193253, Note_on_c, 0, 67, 60
1, 193260, Control_c, 0, 64, 58
1, 193273, Note_off_c, 0, 74, 52
1, 193274, Control_c, 0, 64, 59
1, 193286, Note_off_c, 0, 67, 63
1, 193289, Control_c, 0, 64, 59
1, 193304, Control_c, 0, 64, 60
1, 193319, Control_c, 0, 67, 124
1, 193332, Note_on_c, 0, 69, 47
1, 193334, Control_c, 0, 67, 126
1, 193363, Control_c, 0, 64, 58
1, 193376, Note_off_c, 0, 77, 64
1, 193378, Control_c, 0, 64, 53
1, 193379, Note_off_c, 0, 69, 44
1, 193392, Control_c, 0, 64, 46
1, 193400, Note_on_c, 0, 74, 65
1, 193407, Control_c, 0, 64, 38
1, 193419, Note_on_c, 0, 70, 69
1, 193422, Control_c, 0, 64, 34
1, 193437, Control_c, 0, 64, 32
1, 193452, Control_c, 0, 64, 33
1, 193465, Note_off_c, 0, 70, 58
1, 193466, Control_c, 0, 64, 34
1, 193479, Note_on_c, 0, 69, 64
1, 193481, Control_c, 0, 64, 38
1, 193496, Control_c, 0, 64, 42
1, 193511, Control_c, 0, 64, 48
1, 193526, Control_c, 0, 64, 53
1, 193540, Control_c, 0, 64, 56
1, 193543, Note_off_c, 0, 69, 58
1, 193555, Control_c, 0, 64, 57
1, 193560, Note_on_c, 0, 70, 61
1, 193600, Control_c, 0, 64, 56
1, 193607, Note_off_c, 0, 70, 58
1, 193615, Control_c, 0, 64, 54
1, 193630, Control_c, 0, 64, 50
1, 193632, Note_on_c, 0, 69, 53
1, 193645, Control_c, 0, 64, 47
1, 193660, Control_c, 0, 64, 46
1, 193675, Control_c, 0, 64, 45
1, 193677, Note_off_c, 0, 74, 61
1, 193689, Note_on_c, 0, 82, 66
1, 193690, Note_off_c, 0, 69, 54
1, 193720, Note_on_c, 0, 70, 49
1, 193734, Control_c, 0, 64, 45
1, 193749, Control_c, 0, 64, 46
1, 193756, Note_off_c, 0, 70, 53
1, 193764, Control_c, 0, 64, 47
1, 193778, Control_c, 0, 64, 48
1, 193793, Control_c, 0, 64, 50
1, 193798, Note_on_c, 0, 69, 28
1, 193808, Control_c, 0, 64, 50
1, 193845, Control_c, 0, 64, 50
1, 193851, Note_off_c, 0, 69, 49
1, 193858, Note_on_c, 0, 70, 54
1, 193860, Control_c, 0, 64, 49
1, 193875, Control_c, 0, 64, 49
1, 193890, Control_c, 0, 64, 48
1, 193904, Control_c, 0, 64, 47
1, 193906, Note_off_c, 0, 70, 60
1, 193919, Control_c, 0, 64, 47
1, 193948, Note_on_c, 0, 69, 40
1, 193949, Control_c, 0, 64, 47
1, 193963, Control_c, 0, 64, 49
1, 193972, Note_on_c, 0, 77, 70
1, 193978, Control_c, 0, 64, 52
1, 193981, Note_on_c, 0, 74, 57
1, 193981, Note_off_c, 0, 69, 54
1, 193990, Note_off_c, 0, 82, 54
1, 193993, Control_c, 0, 64, 55
1, 194008, Control_c, 0, 64, 57
1, 194011, Note_on_c, 0, 70, 54
1, 194023, Control_c, 0, 64, 58
1, 194038, Control_c, 0, 64, 58
1, 194052, Note_off_c, 0, 70, 48
1, 194053, Control_c, 0, 64, 59
1, 194064, Note_on_c, 0, 69, 69
1, 194068, Control_c, 0, 64, 59
1, 194127, Note_off_c, 0, 69, 58
1, 194127, Control_c, 0, 64, 60
1, 194148, Note_on_c, 0, 70, 62
1, 194156, Control_c, 0, 64, 60
1, 194171, Control_c, 0, 64, 61
1, 194186, Control_c, 0, 64, 61
1, 194196, Note_off_c, 0, 70, 63
1, 194211, Note_on_c, 0, 69, 45
1, 194215, Control_c, 0, 64, 61
1, 194217, Note_off_c, 0, 74, 35
1, 194230, Control_c, 0, 64, 60
1, 194245, Control_c, 0, 64, 56
1, 194260, Control_c, 0, 64, 51
1, 194269, Note_on_c, 0, 86, 75
1, 194273, Note_off_c, 0, 77, 59
1, 194275, Control_c, 0, 64, 47
1, 194276, Note_on_c, 0, 82, 67
1, 194277, Note_off_c, 0, 69, 51
1, 194285, Note_on_c, 0, 70, 58
1, 194289, Control_c, 0, 64, 45
1, 194304, Control_c, 0, 64, 44
1, 194319, Control_c, 0, 64, 43
1, 194333, Control_c, 0, 64, 43
1, 194336, Note_off_c, 0, 70, 62
1, 194339, Note_on_c, 0, 69, 56
1, 194348, Control_c, 0, 64, 43
1, 194363, Control_c, 0, 64, 44
1, 194378, Control_c, 0, 64, 47
1, 194393, Control_c, 0, 64, 51
1, 194408, Control_c, 0, 64, 54
1, 194411, Note_off_c, 0, 69, 61
1, 194414, Note_on_c, 0, 70, 65
1, 194424, Control_c, 0, 64, 55
1, 194438, Control_c, 0, 64, 54
1, 194453, Control_c, 0, 64, 50
1, 194468, Control_c, 0, 64, 44
1, 194478, Note_off_c, 0, 70, 63
1, 194482, Note_on_c, 0, 69, 55
1, 194483, Control_c, 0, 64, 36
1, 194498, Control_c, 0, 64, 0
1, 194548, Note_on_c, 0, 77, 79
1, 194555, Note_off_c, 0, 69, 61
1, 194568, Note_on_c, 0, 74, 60
1, 194571, Note_on_c, 0, 70, 58
1, 194571, Control_c, 0, 64, 38
1, 194571, Control_c, 0, 67, 123
1, 194595, Control_c, 0, 64, 48
1, 194595, Control_c, 0, 67, 112
1, 194610, Control_c, 0, 64, 55
1, 194610, Control_c, 0, 67, 97
1, 194625, Control_c, 0, 64, 58
1, 194625, Control_c, 0, 67, 81
1, 194628, Note_off_c, 0, 70, 62
1, 194634, Note_on_c, 0, 69, 60
1, 194640, Control_c, 0, 64, 59
1, 194640, Control_c, 0, 67, 61
1, 194654, Control_c, 0, 64, 61
1, 194654, Control_c, 0, 67, 35
1, 194669, Control_c, 0, 64, 62
1, 194669, Control_c, 0, 67, 17
1, 194679, Note_off_c, 0, 82, 38
1, 194684, Control_c, 0, 64, 63
1, 194684, Control_c, 0, 67, 0
1, 194699, Control_c, 0, 64, 65
1, 194713, Control_c, 0, 64, 67
1, 194715, Note_off_c, 0, 69, 62
1, 194720, Note_on_c, 0, 70, 67
1, 194721, Note_off_c, 0, 77, 63
1, 194723, Note_off_c, 0, 86, 37
1, 194728, Control_c, 0, 64, 69
1, 194743, Control_c, 0, 64, 71
1, 194758, Control_c, 0, 64, 72
1, 194762, Note_off_c, 0, 74, 59
1, 194772, Control_c, 0, 64, 71
1, 194772, Control_c, 0, 67, 18
1, 194780, Note_on_c, 0, 69, 62
1, 194782, Note_off_c, 0, 70, 63
1, 194787, Control_c, 0, 64, 67
1, 194802, Control_c, 0, 64, 61
1, 194802, Control_c, 0, 67, 20
1, 194817, Control_c, 0, 64, 56
1, 194832, Control_c, 0, 64, 55
1, 194832, Control_c, 0, 67, 22
1, 194845, Note_on_c, 0, 89, 84
1, 194845, Note_off_c, 0, 69, 50
1, 194846, Control_c, 0, 64, 55
1, 194861, Control_c, 0, 64, 58
1, 194861, Control_c, 0, 67, 24
1, 194863, Note_on_c, 0, 86, 71
1, 194870, Note_on_c, 0, 70, 73
1, 194876, Control_c, 0, 64, 61
1, 194891, Control_c, 0, 64, 63
1, 194906, Control_c, 0, 64, 64
1, 194906, Control_c, 0, 67, 26
1, 194920, Control_c, 0, 64, 65
1, 194926, Note_off_c, 0, 70, 57
1, 194935, Note_on_c, 0, 68, 71
1, 194935, Control_c, 0, 64, 66
1, 194950, Control_c, 0, 64, 67
1, 194950, Control_c, 0, 67, 28
1, 194961, Note_off_c, 0, 86, 64
1, 194965, Control_c, 0, 64, 67
1, 194977, Note_off_c, 0, 89, 66
1, 194980, Control_c, 0, 64, 68
1, 194986, Note_off_c, 0, 68, 64
1, 194995, Control_c, 0, 64, 68
1, 195009, Note_on_c, 0, 70, 58
1, 195010, Control_c, 0, 64, 69
1, 195024, Control_c, 0, 64, 69
1, 195039, Control_c, 0, 64, 70
1, 195039, Control_c, 0, 67, 31
1, 195054, Control_c, 0, 64, 71
1, 195054, Control_c, 0, 67, 33
1, 195058, Note_off_c, 0, 70, 52
1, 195069, Control_c, 0, 64, 71
1, 195069, Control_c, 0, 67, 36
1, 195080, Note_on_c, 0, 68, 65
1, 195084, Control_c, 0, 67, 37
1, 195099, Control_c, 0, 64, 71
1, 195099, Control_c, 0, 67, 39
1, 195113, Control_c, 0, 64, 69
1, 195113, Control_c, 0, 67, 43
1, 195123, Note_off_c, 0, 68, 52
1, 195128, Control_c, 0, 64, 64
1, 195128, Control_c, 0, 67, 47
1, 195143, Control_c, 0, 64, 54
1, 195143, Control_c, 0, 67, 51
1, 195155, Note_on_c, 0, 66, 61
1, 195157, Control_c, 0, 64, 43
1, 195157, Control_c, 0, 67, 58
1, 195165, Note_on_c, 0, 83, 68
1, 195167, Note_on_c, 0, 79, 49
1, 195172, Control_c, 0, 64, 0
1, 195172, Control_c, 0, 67, 65
1, 195179, Note_on_c, 0, 74, 53
1, 195182, Note_on_c, 0, 77, 49
1, 195187, Control_c, 0, 67, 72
1, 195202, Control_c, 0, 67, 76
1, 195218, Control_c, 0, 67, 78
1, 195233, Control_c, 0, 64, 37
1, 195233, Control_c, 0, 67, 81
1, 195248, Control_c, 0, 64, 48
1, 195248, Control_c, 0, 67, 82
1, 195261, Note_off_c, 0, 66, 64
1, 195262, Control_c, 0, 64, 55
1, 195262, Control_c, 0, 67, 83
1, 195277, Control_c, 0, 64, 59
1, 195279, Note_on_c, 0, 67, 56
1, 195292, Control_c, 0, 64, 60
1, 195307, Control_c, 0, 64, 62
1, 195322, Note_off_c, 0, 67, 59
1, 195322, Control_c, 0, 64, 63
1, 195343, Control_c, 0, 64, 64
1, 195357, Note_on_c, 0, 66, 57
1, 195358, Control_c, 0, 64, 64
1, 195373, Control_c, 0, 64, 64
1, 195387, Control_c, 0, 64, 63
1, 195390, Note_off_c, 0, 66, 65
1, 195402, Control_c, 0, 64, 59
1, 195402, Control_c, 0, 67, 82
1, 195417, Control_c, 0, 64, 50
1, 195417, Control_c, 0, 67, 81
1, 195430, Note_on_c, 0, 67, 59
1, 195432, Control_c, 0, 64, 38
1, 195432, Control_c, 0, 67, 81
1, 195447, Control_c, 0, 64, 0
1, 195447, Control_c, 0, 67, 80
1, 195450, Note_off_c, 0, 67, 65
1, 195462, Control_c, 0, 67, 80
1, 195476, Control_c, 0, 67, 79
1, 195492, Note_on_c, 0, 64, 62
1, 195506, Control_c, 0, 64, 40
1, 195506, Control_c, 0, 67, 79
1, 195521, Control_c, 0, 64, 48
1, 195534, Note_off_c, 0, 64, 62
1, 195535, Control_c, 0, 64, 54
1, 195535, Control_c, 0, 67, 78
1, 195550, Control_c, 0, 64, 58
1, 195550, Control_c, 0, 67, 78
1, 195565, Control_c, 0, 64, 59
1, 195565, Control_c, 0, 67, 77
1, 195574, Note_on_c, 0, 65, 57
1, 195580, Control_c, 0, 64, 60
1, 195594, Control_c, 0, 64, 62
1, 195594, Control_c, 0, 67, 77
1, 195597, Note_off_c, 0, 65, 60
1, 195609, Control_c, 0, 64, 63
1, 195624, Control_c, 0, 64, 64
1, 195639, Note_on_c, 0, 64, 42
1, 195653, Control_c, 0, 64, 63
1, 195667, Note_off_c, 0, 64, 56
1, 195668, Control_c, 0, 64, 60
1, 195680, Note_on_c, 0, 65, 71
1, 195683, Control_c, 0, 64, 51
1, 195698, Control_c, 0, 64, 36
1, 195707, Note_off_c, 0, 65, 67
1, 195713, Control_c, 0, 64, 0
1, 195753, Note_on_c, 0, 61, 68
1, 195773, Control_c, 0, 64, 33
1, 195787, Control_c, 0, 64, 44
1, 195802, Control_c, 0, 64, 53
1, 195811, Note_off_c, 0, 61, 59
1, 195817, Control_c, 0, 64, 58
1, 195829, Note_on_c, 0, 62, 67
1, 195832, Control_c, 0, 64, 60
1, 195847, Control_c, 0, 64, 62
1, 195861, Control_c, 0, 64, 63
1, 195876, Control_c, 0, 64, 64
1, 195878, Note_off_c, 0, 62, 55
1, 195891, Control_c, 0, 64, 65
1, 195901, Note_on_c, 0, 61, 64
1, 195905, Control_c, 0, 64, 66
1, 195920, Control_c, 0, 64, 67
1, 195920, Control_c, 0, 67, 76
1, 195931, Note_off_c, 0, 61, 66
1, 195935, Control_c, 0, 64, 66
1, 195935, Control_c, 0, 67, 76
1, 195950, Control_c, 0, 64, 62
1, 195950, Control_c, 0, 67, 75
1, 195965, Control_c, 0, 64, 52
1, 195965, Control_c, 0, 67, 75
1, 195971, Note_on_c, 0, 62, 63
1, 195979, Control_c, 0, 64, 0
1, 195979, Control_c, 0, 67, 74
1, 195990, Note_off_c, 0, 62, 64
1, 195994, Control_c, 0, 67, 74
1, 196025, Control_c, 0, 67, 73
1, 196038, Note_on_c, 0, 58, 65
1, 196070, Control_c, 0, 64, 35
1, 196092, Control_c, 0, 64, 48
1, 196102, Note_off_c, 0, 58, 62
1, 196107, Control_c, 0, 64, 57
1, 196117, Note_on_c, 0, 59, 61
1, 196121, Control_c, 0, 64, 61
1, 196136, Control_c, 0, 64, 63
1, 196151, Control_c, 0, 64, 64
1, 196153, Note_off_c, 0, 59, 60
1, 196166, Control_c, 0, 64, 66
1, 196181, Control_c, 0, 64, 68
1, 196181, Control_c, 0, 67, 73
1, 196185, Note_on_c, 0, 58, 62
1, 196196, Control_c, 0, 64, 70
1, 196196, Control_c, 0, 67, 72
1, 196211, Control_c, 0, 64, 72
1, 196211, Control_c, 0, 67, 71
1, 196214, Note_off_c, 0, 58, 64
1, 196225, Control_c, 0, 64, 71
1, 196225, Control_c, 0, 67, 68
1, 196240, Control_c, 0, 64, 64
1, 196240, Control_c, 0, 67, 61
1, 196248, Note_on_c, 0, 59, 68
1, 196255, Control_c, 0, 64, 50
1, 196255, Control_c, 0, 67, 49
1, 196270, Control_c, 0, 64, 0
1, 196270, Control_c, 0, 67, 37
1, 196273, Note_off_c, 0, 59, 68
1, 196284, Control_c, 0, 67, 21
1, 196299, Control_c, 0, 67, 18
1, 196312, Note_on_c, 0, 54, 70
1, 196336, Note_off_c, 0, 74, 44
1, 196343, Control_c, 0, 64, 46
1, 196345, Note_off_c, 0, 77, 64
1, 196358, Note_off_c, 0, 79, 65
1, 196358, Control_c, 0, 64, 57
1, 196367, Note_off_c, 0, 54, 59
1, 196373, Control_c, 0, 64, 61
1, 196384, Note_off_c, 0, 83, 65
1, 196388, Control_c, 0, 64, 63
1, 196391, Note_on_c, 0, 55, 70
1, 196403, Control_c, 0, 64, 65
1, 196417, Control_c, 0, 64, 66
1, 196432, Control_c, 0, 64, 68
1, 196439, Note_off_c, 0, 55, 58
1, 196447, Control_c, 0, 64, 71
1, 196462, Control_c, 0, 64, 73
1, 196466, Note_on_c, 0, 54, 55
1, 196477, Control_c, 0, 64, 76
1, 196489, Note_off_c, 0, 54, 64
1, 196491, Control_c, 0, 64, 79
1, 196506, Control_c, 0, 64, 80
1, 196506, Control_c, 0, 67, 0
1, 196521, Note_on_c, 0, 55, 59
1, 196536, Control_c, 0, 64, 78
1, 196540, Note_off_c, 0, 55, 64
1, 196551, Control_c, 0, 64, 68
1, 196566, Control_c, 0, 64, 51
1, 196580, Note_on_c, 0, 83, 78
1, 196580, Control_c, 0, 64, 0
1, 196586, Note_on_c, 0, 52, 60
1, 196629, Note_off_c, 0, 52, 58
1, 196655, Control_c, 0, 64, 44
1, 196670, Control_c, 0, 64, 57
1, 196684, Note_on_c, 0, 53, 43
1, 196684, Control_c, 0, 64, 62
1, 196699, Control_c, 0, 64, 65
1, 196714, Control_c, 0, 64, 66
1, 196715, Note_off_c, 0, 53, 47
1, 196728, Control_c, 0, 64, 68
1, 196732, Note_on_c, 0, 52, 54
1, 196743, Control_c, 0, 64, 71
1, 196756, Note_off_c, 0, 52, 58
1, 196758, Control_c, 0, 64, 74
1, 196773, Control_c, 0, 64, 77
1, 196788, Control_c, 0, 64, 80
1, 196789, Note_on_c, 0, 53, 73
1, 196803, Control_c, 0, 64, 81
1, 196825, Note_off_c, 0, 53, 60
1, 196841, Control_c, 0, 64, 77
1, 196856, Control_c, 0, 64, 64
1, 196871, Control_c, 0, 64, 37
1, 196882, Note_on_c, 0, 49, 69
1, 196886, Control_c, 0, 64, 0
1, 196887, Note_on_c, 0, 86, 93
1, 196932, Note_off_c, 0, 49, 60
1, 196945, Control_c, 0, 64, 42
1, 196959, Control_c, 0, 64, 56
1, 196968, Note_on_c, 0, 50, 66
1, 196974, Control_c, 0, 64, 62
1, 196989, Control_c, 0, 64, 65
1, 197004, Control_c, 0, 64, 67
1, 197005, Note_off_c, 0, 50, 62
1, 197019, Control_c, 0, 64, 69
1, 197030, Note_on_c, 0, 49, 67
1, 197034, Control_c, 0, 64, 73
1, 197048, Control_c, 0, 64, 78
1, 197061, Note_off_c, 0, 49, 64
1, 197063, Control_c, 0, 64, 83
1, 197078, Control_c, 0, 64, 88
1, 197086, Note_on_c, 0, 50, 78
1, 197093, Control_c, 0, 64, 93
1, 197108, Control_c, 0, 64, 98
1, 197120, Note_off_c, 0, 50, 62
1, 197123, Control_c, 0, 64, 100
1, 197138, Control_c, 0, 64, 96
1, 197153, Control_c, 0, 64, 79
1, 197167, Control_c, 0, 64, 58
1, 197172, Note_on_c, 0, 46, 72
1, 197182, Control_c, 0, 64, 0
1, 197184, Note_on_c, 0, 89, 100
1, 197239, Note_off_c, 0, 46, 63
1, 197256, Control_c, 0, 64, 49
1, 197258, Note_on_c, 0, 47, 71
1, 197271, Control_c, 0, 64, 62
1, 197286, Control_c, 0, 64, 66
1, 197293, Note_off_c, 0, 83, 64
1, 197301, Control_c, 0, 64, 69
1, 197312, Note_off_c, 0, 47, 62
1, 197315, Control_c, 0, 64, 72
1, 197325, Note_on_c, 0, 46, 71
1, 197325, Note_off_c, 0, 86, 62
1, 197330, Control_c, 0, 64, 76
1, 197345, Control_c, 0, 64, 81
1, 197356, Note_off_c, 0, 46, 64
1, 197359, Control_c, 0, 64, 86
1, 197374, Control_c, 0, 64, 89
1, 197389, Control_c, 0, 64, 94
1, 197397, Note_on_c, 0, 47, 68
1, 197404, Control_c, 0, 64, 97
1, 197424, Note_off_c, 0, 47, 68
1, 197448, Control_c, 0, 64, 95
1, 197463, Control_c, 0, 64, 80
1, 197478, Control_c, 0, 64, 60
1, 197482, Note_on_c, 0, 42, 65
1, 197493, Control_c, 0, 64, 0
1, 197510, Note_on_c, 0, 83, 80
1, 197552, Note_off_c, 0, 42, 60
1, 197588, Note_on_c, 0, 43, 63
1, 197589, Control_c, 0, 64, 41
1, 197605, Control_c, 0, 64, 55
1, 197620, Control_c, 0, 64, 61
1, 197628, Note_off_c, 0, 43, 61
1, 197635, Control_c, 0, 64, 64
1, 197650, Control_c, 0, 64, 66
1, 197658, Note_on_c, 0, 42, 60
1, 197664, Control_c, 0, 64, 68
1, 197679, Control_c, 0, 64, 72
1, 197694, Control_c, 0, 64, 77
1, 197697, Note_off_c, 0, 42, 66
1, 197709, Control_c, 0, 64, 82
1, 197724, Control_c, 0, 64, 88
1, 197731, Note_on_c, 0, 43, 64
1, 197738, Control_c, 0, 64, 94
1, 197753, Control_c, 0, 64, 99
1, 197773, Note_off_c, 0, 43, 59
1, 197779, Note_off_c, 0, 89, 66
1, 197791, Note_on_c, 0, 42, 68
1, 197797, Control_c, 0, 64, 82
1, 197812, Control_c, 0, 64, 62
1, 197818, Note_on_c, 0, 87, 97
1, 197827, Control_c, 0, 64, 0
1, 197834, Note_off_c, 0, 42, 61
1, 197864, Note_on_c, 0, 43, 73
1, 197886, Control_c, 0, 64, 49
1, 197901, Control_c, 0, 64, 61
1, 197910, Note_off_c, 0, 43, 63
1, 197916, Control_c, 0, 64, 66
1, 197927, Note_on_c, 0, 42, 72
1, 197931, Control_c, 0, 64, 71
1, 197946, Control_c, 0, 64, 75
1, 197961, Control_c, 0, 64, 79
1, 197961, Note_off_c, 0, 42, 64
1, 197976, Control_c, 0, 64, 84
1, 197990, Control_c, 0, 64, 90
1, 197993, Note_on_c, 0, 43, 71
1, 198003, Note_off_c, 0, 83, 60
1, 198005, Control_c, 0, 64, 96
1, 198020, Control_c, 0, 64, 103
1, 198024, Note_off_c, 0, 43, 64
1, 198035, Control_c, 0, 64, 112
1, 198050, Control_c, 0, 64, 117
1, 198079, Control_c, 0, 64, 93
1, 198083, Note_on_c, 0, 43, 79
1, 198094, Control_c, 0, 64, 67
1, 198099, Note_on_c, 0, 84, 79
1, 198108, Control_c, 0, 64, 0
1, 198162, Note_off_c, 0, 43, 62
1, 198163, Note_on_c, 0, 44, 75
1, 198182, Control_c, 0, 64, 42
1, 198197, Control_c, 0, 64, 60
1, 198205, Note_off_c, 0, 44, 64
1, 198212, Control_c, 0, 64, 66
1, 198218, Note_on_c, 0, 43, 45
1, 198227, Control_c, 0, 64, 71
1, 198242, Control_c, 0, 64, 76
1, 198256, Control_c, 0, 64, 83
1, 198271, Control_c, 0, 64, 92
1, 198278, Note_off_c, 0, 43, 58
1, 198283, Note_on_c, 0, 44, 77
1, 198286, Control_c, 0, 64, 104
1, 198300, Control_c, 0, 64, 127
1, 198324, Note_off_c, 0, 44, 63
1, 198368, Control_c, 0, 64, 107
1, 198383, Control_c, 0, 64, 72
1, 198397, Control_c, 0, 64, 0
1, 198402, Note_on_c, 0, 44, 79
1, 198403, Note_on_c, 0, 78, 100
1, 198461, Note_off_c, 0, 44, 61
1, 198470, Note_on_c, 0, 45, 81
1, 198487, Control_c, 0, 64, 50
1, 198502, Control_c, 0, 64, 61
1, 198517, Control_c, 0, 64, 65
1, 198531, Control_c, 0, 64, 70
1, 198533, Note_off_c, 0, 45, 63
1, 198541, Note_on_c, 0, 44, 79
1, 198546, Control_c, 0, 64, 75
1, 198561, Control_c, 0, 64, 81
1, 198576, Control_c, 0, 64, 91
1, 198578, Note_off_c, 0, 44, 64
1, 198591, Control_c, 0, 64, 106
1, 198601, Note_on_c, 0, 45, 75
1, 198605, Control_c, 0, 64, 127
1, 198615, Note_off_c, 0, 78, 58
1, 198637, Note_off_c, 0, 45, 60
1, 198665, Control_c, 0, 64, 83
1, 198672, Note_on_c, 0, 45, 64
1, 198672, Note_off_c, 0, 84, 65
1, 198679, Control_c, 0, 64, 52
1, 198689, Note_on_c, 0, 77, 97
1, 198694, Control_c, 0, 64, 0
1, 198713, Note_on_c, 0, 44, 22
1, 198713, Note_off_c, 0, 44, 127
1, 198761, Note_on_c, 0, 46, 82
1, 198763, Note_off_c, 0, 45, 63
1, 198783, Control_c, 0, 64, 38
1, 198798, Control_c, 0, 64, 60
1, 198813, Control_c, 0, 64, 65
1, 198827, Note_on_c, 0, 45, 72
1, 198828, Control_c, 0, 64, 68
1, 198833, Note_off_c, 0, 46, 62
1, 198843, Control_c, 0, 64, 70
1, 198858, Control_c, 0, 64, 74
1, 198873, Control_c, 0, 64, 81
1, 198887, Control_c, 0, 64, 89
1, 198902, Control_c, 0, 64, 99
1, 198904, Note_off_c, 0, 87, 62
1, 198909, Note_off_c, 0, 45, 50
1, 198916, Note_on_c, 0, 46, 85
1, 198917, Control_c, 0, 64, 113
1, 198931, Control_c, 0, 64, 127
1, 198961, Control_c, 0, 64, 104
1, 198976, Control_c, 0, 64, 72
1, 198979, Note_off_c, 0, 46, 59
1, 198986, Note_on_c, 0, 45, 75
1, 198991, Control_c, 0, 64, 0
1, 198992, Note_on_c, 0, 86, 108
1, 198998, Note_on_c, 0, 82, 100
1, 199062, Note_off_c, 0, 45, 64
1, 199064, Control_c, 0, 64, 42
1, 199067, Note_on_c, 0, 46, 80
1, 199086, Control_c, 0, 64, 61
1, 199091, Note_off_c, 0, 77, 63
1, 199101, Control_c, 0, 64, 67
1, 199116, Control_c, 0, 64, 72
1, 199123, Note_off_c, 0, 46, 60
1, 199130, Control_c, 0, 64, 80
1, 199141, Note_on_c, 0, 45, 68
1, 199145, Control_c, 0, 64, 87
1, 199160, Control_c, 0, 64, 94
1, 199162, Note_off_c, 0, 45, 66
1, 199175, Control_c, 0, 64, 102
1, 199190, Control_c, 0, 64, 114
1, 199191, Note_off_c, 0, 86, 58
1, 199198, Note_on_c, 0, 46, 88
1, 199206, Control_c, 0, 64, 127
1, 199237, Poly_aftertouch_c, 0, 44, 0
1, 199251, Note_off_c, 0, 46, 63
1, 199263, Note_off_c, 0, 82, 64
1, 199288, Note_on_c, 0, 38, 84
1, 199290, Note_on_c, 0, 79, 103
1, 199293, Note_on_c, 0, 75, 104
1, 199293, Note_on_c, 0, 84, 110
1, 199295, Control_c, 0, 64, 87
1, 199309, Control_c, 0, 64, 55
1, 199324, Control_c, 0, 64, 0
1, 199358, Note_on_c, 0, 39, 75
1, 199366, Note_off_c, 0, 38, 64
1, 199383, Control_c, 0, 64, 40
1, 199389, Note_off_c, 0, 84, 61
1, 199398, Control_c, 0, 64, 61
1, 199404, Note_off_c, 0, 79, 66
1, 199409, Note_off_c, 0, 75, 60
1, 199413, Control_c, 0, 64, 66
1, 199427, Control_c, 0, 64, 71
1, 199442, Control_c, 0, 64, 77
1, 199447, Note_off_c, 0, 39, 63
1, 199457, Control_c, 0, 64, 83
1, 199458, Note_on_c, 0, 38, 84
1, 199472, Control_c, 0, 64, 86
1, 199487, Control_c, 0, 64, 88
1, 199502, Control_c, 0, 64, 90
1, 199517, Control_c, 0, 64, 95
1, 199518, Note_off_c, 0, 38, 64
1, 199528, Note_on_c, 0, 39, 82
1, 199532, Control_c, 0, 64, 101
1, 199546, Control_c, 0, 64, 107
1, 199576, Control_c, 0, 64, 102
1, 199591, Control_c, 0, 64, 80
1, 199597, Note_off_c, 0, 39, 61
1, 199604, Note_on_c, 0, 81, 105
1, 199606, Control_c, 0, 64, 56
1, 199609, Note_on_c, 0, 72, 98
1, 199611, Note_on_c, 0, 75, 96
1, 199620, Note_on_c, 0, 40, 90
1, 199621, Control_c, 0, 64, 0
1, 199702, Note_on_c, 0, 41, 80
1, 199708, Note_off_c, 0, 40, 64
1, 199709, Control_c, 0, 64, 54
1, 199724, Control_c, 0, 64, 69
1, 199739, Control_c, 0, 64, 73
1, 199753, Control_c, 0, 64, 78
1, 199757, Note_off_c, 0, 81, 62
1, 199764, Note_off_c, 0, 72, 60
1, 199768, Control_c, 0, 64, 79
1, 199781, Note_off_c, 0, 41, 59
1, 199783, Control_c, 0, 64, 79
1, 199788, Note_on_c, 0, 40, 83
1, 199802, Note_off_c, 0, 75, 63
1, 199813, Control_c, 0, 64, 80
1, 199836, Control_c, 0, 64, 81
1, 199842, Note_off_c, 0, 40, 65
1, 199851, Control_c, 0, 64, 82
1, 199865, Control_c, 0, 64, 85
1, 199880, Note_on_c, 0, 41, 84
1, 199880, Control_c, 0, 64, 89
1, 199895, Control_c, 0, 64, 95
1, 199910, Control_c, 0, 64, 102
1, 199925, Control_c, 0, 64, 110
1, 199940, Control_c, 0, 64, 113
1, 199955, Note_off_c, 0, 41, 60
1, 199969, Control_c, 0, 64, 107
1, 199973, Note_on_c, 0, 34, 98
1, 199973, Note_on_c, 0, 82, 108
1, 199976, Note_on_c, 0, 74, 102
1, 199977, Note_on_c, 0, 70, 99
1, 199984, Control_c, 0, 64, 81
1, 200000, Control_c, 0, 64, 51
1, 200014, Control_c, 0, 64, 0
1, 200296, Control_c, 0, 64, 40
1, 200310, Control_c, 0, 64, 66
1, 200325, Control_c, 0, 64, 75
1, 200340, Control_c, 0, 64, 85
1, 200352, Note_off_c, 0, 34, 63
1, 200355, Control_c, 0, 64, 89
1, 200363, Note_off_c, 0, 82, 62
1, 200370, Control_c, 0, 64, 94
1, 200384, Control_c, 0, 64, 96
1, 200387, Note_off_c, 0, 74, 62
1, 200403, Note_off_c, 0, 70, 61
1, 200414, Control_c, 0, 64, 99
1, 200429, Control_c, 0, 64, 101
1, 200488, Control_c, 0, 64, 103
1, 200673, Control_c, 0, 64, 106
1, 200748, Control_c, 0, 64, 108
1, 200778, Control_c, 0, 64, 110
1, 200822, Control_c, 0, 64, 112
1, 200843, Note_on_c, 0, 74, 104
1, 200851, Note_on_c, 0, 62, 101
1, 200855, Note_on_c, 0, 58, 92
1, 200859, Note_on_c, 0, 70, 91
1, 200897, Control_c, 0, 64, 109
1, 200912, Control_c, 0, 64, 96
1, 200927, Control_c, 0, 64, 72
1, 200941, Control_c, 0, 64, 48
1, 200956, Control_c, 0, 64, 0
1, 201089, Control_c, 0, 64, 48
1, 201104, Control_c, 0, 64, 59
1, 201119, Control_c, 0, 64, 65
1, 201133, Control_c, 0, 64, 68
1, 201148, Control_c, 0, 64, 71
1, 201163, Control_c, 0, 64, 75
1, 201178, Control_c, 0, 64, 80
1, 201193, Control_c, 0, 64, 86
1, 201207, Control_c, 0, 64, 91
1, 201222, Control_c, 0, 64, 94
1, 201237, Control_c, 0, 64, 96
1, 201252, Control_c, 0, 64, 98
1, 201266, Control_c, 0, 64, 100
1, 201296, Control_c, 0, 64, 103
1, 201348, Control_c, 0, 64, 105
1, 201365, Note_off_c, 0, 70, 62
1, 201406, Note_off_c, 0, 58, 54
1, 201466, Control_c, 0, 64, 108
1, 201541, Control_c, 0, 64, 102
1, 201554, Note_on_c, 0, 70, 89
1, 201556, Control_c, 0, 64, 82
1, 201557, Note_on_c, 0, 58, 74
1, 201563, Note_on_c, 0, 55, 70
1, 201563, Note_on_c, 0, 67, 79
1, 201571, Control_c, 0, 64, 62
1, 201578, Note_off_c, 0, 74, 60
1, 201582, Note_off_c, 0, 62, 59
1, 201585, Control_c, 0, 64, 0
1, 201675, Control_c, 0, 64, 48
1, 201690, Control_c, 0, 64, 61
1, 201705, Control_c, 0, 64, 66
1, 201720, Control_c, 0, 64, 69
1, 201734, Control_c, 0, 64, 70
1, 201746, Note_off_c, 0, 67, 54
1, 201749, Control_c, 0, 64, 73
1, 201764, Control_c, 0, 64, 78
1, 201770, Note_off_c, 0, 55, 59
1, 201779, Control_c, 0, 64, 83
1, 201794, Control_c, 0, 64, 89
1, 201809, Control_c, 0, 64, 94
1, 201823, Control_c, 0, 64, 98
1, 201868, Control_c, 0, 64, 94
1, 201882, Control_c, 0, 64, 77
1, 201890, Note_on_c, 0, 67, 75
1, 201897, Control_c, 0, 64, 56
1, 201898, Note_on_c, 0, 55, 59
1, 201898, Note_off_c, 0, 58, 60
1, 201912, Note_on_c, 0, 51, 69
1, 201912, Control_c, 0, 64, 0
1, 201917, Note_on_c, 0, 63, 65
1, 201918, Note_off_c, 0, 70, 60
1, 201986, Control_c, 0, 64, 54
1, 202001, Control_c, 0, 64, 66
1, 202016, Control_c, 0, 64, 72
1, 202030, Control_c, 0, 64, 78
1, 202045, Control_c, 0, 64, 83
1, 202060, Control_c, 0, 64, 86
1, 202063, Note_off_c, 0, 55, 63
1, 202081, Control_c, 0, 64, 87
1, 202091, Note_off_c, 0, 63, 46
1, 202096, Control_c, 0, 64, 89
1, 202103, Note_off_c, 0, 51, 61
1, 202111, Control_c, 0, 64, 90
1, 202126, Control_c, 0, 64, 92
1, 202141, Control_c, 0, 64, 93
1, 202155, Control_c, 0, 64, 95
1, 202170, Control_c, 0, 64, 98
1, 202185, Control_c, 0, 64, 102
1, 202200, Control_c, 0, 64, 107
1, 202215, Control_c, 0, 64, 111
1, 202228, Note_off_c, 0, 67, 37
1, 202229, Control_c, 0, 64, 113
1, 202262, Note_on_c, 0, 75, 96
1, 202269, Note_on_c, 0, 60, 84
1, 202272, Note_on_c, 0, 63, 91
1, 202273, Note_on_c, 0, 72, 83
1, 202274, Control_c, 0, 64, 97
1, 202289, Control_c, 0, 64, 74
1, 202304, Control_c, 0, 64, 39
1, 202319, Control_c, 0, 64, 0
1, 202453, Control_c, 0, 64, 54
1, 202468, Control_c, 0, 64, 66
1, 202483, Control_c, 0, 64, 69
1, 202498, Control_c, 0, 64, 71
1, 202512, Control_c, 0, 64, 73
1, 202527, Control_c, 0, 64, 73
1, 202542, Control_c, 0, 64, 75
1, 202557, Control_c, 0, 64, 75
1, 202571, Control_c, 0, 64, 76
1, 202586, Control_c, 0, 64, 77
1, 202601, Control_c, 0, 64, 77
1, 202616, Note_off_c, 0, 75, 56
1, 202631, Control_c, 0, 64, 78
1, 202633, Note_off_c, 0, 63, 51
1, 202660, Control_c, 0, 64, 78
1, 202675, Control_c, 0, 64, 79
1, 202690, Control_c, 0, 64, 79
1, 202749, Control_c, 0, 64, 77
1, 202764, Note_on_c, 0, 58, 74
1, 202764, Control_c, 0, 64, 71
1, 202766, Note_off_c, 0, 60, 63
1, 202766, Note_on_c, 0, 74, 80
1, 202769, Note_off_c, 0, 72, 57
1, 202775, Note_on_c, 0, 62, 67
1, 202775, Note_on_c, 0, 70, 71
1, 202778, Control_c, 0, 64, 62
1, 202793, Control_c, 0, 64, 49
1, 202808, Control_c, 0, 64, 0
1, 202906, Note_off_c, 0, 70, 59
1, 202934, Note_on_c, 0, 72, 75
1, 202941, Note_on_c, 0, 60, 65
1, 202941, Note_off_c, 0, 58, 60
1, 202945, Note_off_c, 0, 62, 60
1, 202945, Note_on_c, 0, 69, 67
1, 202947, Note_on_c, 0, 57, 68
1, 202960, Note_off_c, 0, 74, 56
1, 203052, Control_c, 0, 64, 50
1, 203067, Control_c, 0, 64, 58
1, 203082, Control_c, 0, 64, 61
1, 203097, Control_c, 0, 64, 63
1, 203112, Control_c, 0, 64, 65
1, 203127, Control_c, 0, 64, 67
1, 203141, Control_c, 0, 64, 70
1, 203144, Note_off_c, 0, 57, 58
1, 203156, Note_off_c, 0, 69, 58
1, 203156, Control_c, 0, 64, 73
1, 203171, Control_c, 0, 64, 77
1, 203186, Control_c, 0, 64, 81
1, 203201, Control_c, 0, 64, 83
1, 203216, Control_c, 0, 64, 83
1, 203246, Control_c, 0, 64, 82
1, 203261, Control_c, 0, 64, 74
1, 203276, Control_c, 0, 64, 60
1, 203280, Note_on_c, 0, 69, 74
1, 203285, Note_off_c, 0, 72, 63
1, 203291, Control_c, 0, 64, 0
1, 203292, Note_on_c, 0, 57, 59
1, 203300, Note_on_c, 0, 65, 66
1, 203303, Note_on_c, 0, 53, 52
1, 203307, Note_off_c, 0, 60, 63
1, 203394, Control_c, 0, 64, 44
1, 203409, Control_c, 0, 64, 62
1, 203424, Control_c, 0, 64, 67
1, 203426, Note_off_c, 0, 65, 61
1, 203437, Note_off_c, 0, 53, 56
1, 203439, Control_c, 0, 64, 70
1, 203453, Control_c, 0, 64, 72
1, 203463, Note_off_c, 0, 57, 60
1, 203468, Control_c, 0, 64, 75
1, 203483, Control_c, 0, 64, 77
1, 203498, Control_c, 0, 64, 79
1, 203512, Control_c, 0, 64, 81
1, 203527, Control_c, 0, 64, 83
1, 203542, Control_c, 0, 64, 84
1, 203557, Control_c, 0, 64, 85
1, 203560, Note_off_c, 0, 69, 59
1, 203580, Control_c, 0, 64, 87
1, 203595, Control_c, 0, 64, 90
1, 203609, Control_c, 0, 64, 92
1, 203624, Control_c, 0, 64, 94
1, 203639, Control_c, 0, 64, 95
1, 203668, Control_c, 0, 64, 94
1, 203669, Note_on_c, 0, 77, 101
1, 203678, Note_on_c, 0, 62, 85
1, 203680, Note_on_c, 0, 65, 89
1, 203683, Control_c, 0, 64, 81
1, 203684, Note_on_c, 0, 74, 89
1, 203698, Control_c, 0, 64, 63
1, 203713, Control_c, 0, 64, 0
1, 203860, Control_c, 0, 64, 52
1, 203875, Control_c, 0, 64, 63
1, 203890, Control_c, 0, 64, 65
1, 203905, Control_c, 0, 64, 68
1, 203919, Control_c, 0, 64, 71
1, 203934, Control_c, 0, 64, 75
1, 203949, Control_c, 0, 64, 81
1, 203964, Control_c, 0, 64, 86
1, 203979, Control_c, 0, 64, 91
1, 203995, Control_c, 0, 64, 94
1, 204010, Control_c, 0, 64, 96
1, 204039, Control_c, 0, 64, 98
1, 204083, Control_c, 0, 64, 101
1, 204113, Note_off_c, 0, 62, 44
1, 204157, Note_off_c, 0, 74, 38
1, 204262, Control_c, 0, 64, 103
1, 204337, Note_on_c, 0, 74, 83
1, 204343, Note_on_c, 0, 62, 70
1, 204343, Control_c, 0, 64, 100
1, 204354, Note_on_c, 0, 70, 65
1, 204358, Control_c, 0, 64, 84
1, 204367, Note_on_c, 0, 58, 57
1, 204373, Control_c, 0, 64, 65
1, 204388, Control_c, 0, 64, 0
1, 204401, Note_off_c, 0, 65, 51
1, 204477, Control_c, 0, 64, 37
1, 204483, Note_off_c, 0, 77, 60
1, 204492, Control_c, 0, 64, 53
1, 204507, Control_c, 0, 64, 62
1, 204522, Control_c, 0, 64, 65
1, 204537, Control_c, 0, 64, 66
1, 204551, Control_c, 0, 64, 68
1, 204562, Note_off_c, 0, 58, 58
1, 204566, Control_c, 0, 64, 71
1, 204577, Note_off_c, 0, 70, 60
1, 204581, Control_c, 0, 64, 76
1, 204595, Control_c, 0, 64, 82
1, 204610, Control_c, 0, 64, 85
1, 204625, Control_c, 0, 64, 87
1, 204655, Control_c, 0, 64, 86
1, 204669, Control_c, 0, 64, 75
1, 204680, Note_on_c, 0, 70, 85
1, 204684, Control_c, 0, 64, 58
1, 204689, Note_on_c, 0, 58, 63
1, 204689, Note_off_c, 0, 74, 61
1, 204699, Control_c, 0, 64, 0
1, 204704, Note_on_c, 0, 55, 54
1, 204708, Note_off_c, 0, 62, 59
1, 204709, Note_on_c, 0, 67, 55
1, 204788, Control_c, 0, 64, 45
1, 204804, Control_c, 0, 64, 65
1, 204819, Control_c, 0, 64, 70
1, 204834, Control_c, 0, 64, 74
1, 204848, Control_c, 0, 64, 77
1, 204863, Control_c, 0, 64, 80
1, 204878, Control_c, 0, 64, 82
1, 204892, Control_c, 0, 64, 85
1, 204899, Note_off_c, 0, 55, 57
1, 204906, Note_off_c, 0, 58, 60
1, 204907, Control_c, 0, 64, 88
1, 204922, Control_c, 0, 64, 91
1, 204937, Control_c, 0, 64, 94
1, 204952, Control_c, 0, 64, 97
1, 204961, Note_off_c, 0, 67, 36
1, 204967, Control_c, 0, 64, 101
1, 204972, Note_off_c, 0, 70, 61
1, 204981, Control_c, 0, 64, 105
1, 204996, Control_c, 0, 64, 114
1, 205011, Control_c, 0, 64, 127
1, 205051, Note_on_c, 0, 79, 106
1, 205055, Note_on_c, 0, 67, 94
1, 205058, Note_on_c, 0, 63, 94
1, 205071, Note_on_c, 0, 75, 89
1, 205079, Control_c, 0, 64, 95
1, 205094, Control_c, 0, 64, 69
1, 205108, Control_c, 0, 64, 0
1, 205241, Control_c, 0, 64, 55
1, 205256, Control_c, 0, 64, 66
1, 205271, Control_c, 0, 64, 69
1, 205286, Control_c, 0, 64, 72
1, 205300, Control_c, 0, 64, 76
1, 205315, Control_c, 0, 64, 79
1, 205330, Control_c, 0, 64, 82
1, 205345, Control_c, 0, 64, 86
1, 205349, Note_off_c, 0, 67, 49
1, 205360, Control_c, 0, 64, 89
1, 205374, Control_c, 0, 64, 92
1, 205389, Control_c, 0, 64, 94
1, 205404, Control_c, 0, 64, 95
1, 205449, Control_c, 0, 64, 95
1, 205510, Note_off_c, 0, 79, 60
1, 205539, Note_off_c, 0, 75, 56
1, 205579, Note_off_c, 0, 63, 61
1, 205597, Note_on_c, 0, 77, 89
1, 205598, Control_c, 0, 64, 94
1, 205602, Note_on_c, 0, 74, 84
1, 205604, Note_on_c, 0, 62, 76
1, 205604, Note_on_c, 0, 65, 76
1, 205613, Control_c, 0, 64, 86
1, 205628, Control_c, 0, 64, 71
1, 205642, Control_c, 0, 64, 55
1, 205657, Control_c, 0, 64, 0
1, 205723, Note_off_c, 0, 74, 57
1, 205726, Note_off_c, 0, 65, 55
1, 205744, Note_off_c, 0, 77, 62
1, 205752, Note_on_c, 0, 75, 82
1, 205754, Note_off_c, 0, 62, 62
1, 205757, Note_on_c, 0, 60, 70
1, 205757, Note_on_c, 0, 63, 75
1, 205762, Note_on_c, 0, 72, 74
1, 205841, Control_c, 0, 64, 49
1, 205856, Control_c, 0, 64, 58
1, 205871, Control_c, 0, 64, 62
1, 205886, Control_c, 0, 64, 64
1, 205901, Control_c, 0, 64, 66
1, 205916, Control_c, 0, 64, 69
1, 205930, Control_c, 0, 64, 73
1, 205945, Control_c, 0, 64, 79
1, 205960, Control_c, 0, 64, 88
1, 205975, Control_c, 0, 64, 98
1, 205978, Note_off_c, 0, 60, 59
1, 205990, Control_c, 0, 64, 110
1, 205992, Note_off_c, 0, 72, 54
1, 206004, Control_c, 0, 64, 127
1, 206063, Control_c, 0, 64, 96
1, 206078, Control_c, 0, 64, 70
1, 206093, Control_c, 0, 64, 0
1, 206095, Note_on_c, 0, 72, 90
1, 206096, Note_off_c, 0, 75, 64
1, 206097, Note_on_c, 0, 60, 74
1, 206099, Note_on_c, 0, 57, 78
1, 206102, Note_on_c, 0, 69, 83
1, 206106, Note_off_c, 0, 63, 61
1, 206167, Control_c, 0, 64, 59
1, 206182, Control_c, 0, 64, 72
1, 206193, Note_off_c, 0, 57, 59
1, 206197, Control_c, 0, 64, 88
1, 206210, Note_off_c, 0, 69, 52
1, 206212, Note_off_c, 0, 60, 64
1, 206212, Control_c, 0, 64, 110
1, 206227, Control_c, 0, 64, 127
1, 206285, Note_off_c, 0, 72, 64
1, 206551, Note_on_c, 0, 84, 102
1, 206555, Note_on_c, 0, 72, 97
1, 206555, Note_on_c, 0, 75, 100
1, 206558, Note_on_c, 0, 63, 95
1, 206590, Control_c, 0, 64, 99
1, 206605, Control_c, 0, 64, 66
1, 206620, Control_c, 0, 64, 0
1, 206768, Control_c, 0, 64, 38
1, 206783, Control_c, 0, 64, 57
1, 206797, Control_c, 0, 64, 65
1, 206812, Control_c, 0, 64, 69
1, 206827, Control_c, 0, 64, 73
1, 206842, Control_c, 0, 64, 79
1, 206857, Control_c, 0, 64, 85
1, 206871, Control_c, 0, 64, 89
1, 206886, Control_c, 0, 64, 91
1, 206901, Control_c, 0, 64, 91
1, 206916, Control_c, 0, 64, 92
1, 206931, Control_c, 0, 64, 92
1, 206945, Control_c, 0, 64, 93
1, 206960, Control_c, 0, 64, 93
1, 206990, Control_c, 0, 64, 94
1, 207006, Note_off_c, 0, 84, 60
1, 207020, Note_off_c, 0, 72, 58
1, 207035, Control_c, 0, 64, 91
1, 207049, Control_c, 0, 64, 79
1, 207056, Note_on_c, 0, 82, 95
1, 207063, Note_on_c, 0, 74, 83
1, 207063, Note_off_c, 0, 75, 63
1, 207064, Note_on_c, 0, 70, 79
1, 207064, Control_c, 0, 64, 64
1, 207065, Note_off_c, 0, 63, 61
1, 207070, Note_on_c, 0, 62, 71
1, 207079, Control_c, 0, 64, 42
1, 207092, Note_off_c, 0, 74, 64
1, 207094, Control_c, 0, 64, 0
1, 207099, Note_off_c, 0, 62, 66
1, 207109, Note_off_c, 0, 70, 67
1, 207121, Note_off_c, 0, 82, 68
1, 207234, Note_on_c, 0, 60, 87
1, 207237, Note_on_c, 0, 69, 90
1, 207237, Note_on_c, 0, 81, 105
1, 207243, Note_on_c, 0, 72, 91
1, 207399, Control_c, 0, 64, 46
1, 207414, Control_c, 0, 64, 62
1, 207428, Control_c, 0, 64, 66
1, 207443, Control_c, 0, 64, 68
1, 207458, Control_c, 0, 64, 69
1, 207473, Control_c, 0, 64, 72
1, 207488, Control_c, 0, 64, 76
1, 207503, Control_c, 0, 64, 79
1, 207517, Control_c, 0, 64, 81
1, 207532, Control_c, 0, 64, 82
1, 207538, Note_off_c, 0, 69, 58
1, 207547, Control_c, 0, 64, 82
1, 207562, Control_c, 0, 64, 83
1, 207570, Note_off_c, 0, 60, 63
1, 207574, Note_off_c, 0, 72, 64
1, 207577, Control_c, 0, 64, 83
1, 207584, Note_off_c, 0, 81, 59
1, 207607, Control_c, 0, 64, 84
1, 207621, Control_c, 0, 64, 84
1, 207651, Control_c, 0, 64, 85
1, 207666, Control_c, 0, 64, 86
1, 207681, Control_c, 0, 64, 86
1, 207695, Control_c, 0, 64, 82
1, 207698, Note_on_c, 0, 79, 94
1, 207700, Note_on_c, 0, 70, 92
1, 207702, Note_on_c, 0, 67, 84
1, 207703, Note_on_c, 0, 58, 85
1, 207710, Control_c, 0, 64, 68
1, 207725, Control_c, 0, 64, 45
1, 207729, Note_off_c, 0, 70, 60
1, 207735, Note_off_c, 0, 67, 61
1, 207737, Note_off_c, 0, 79, 64
1, 207740, Control_c, 0, 64, 0
1, 207750, Note_off_c, 0, 58, 59
1, 207874, Note_on_c, 0, 77, 98
1, 207879, Note_on_c, 0, 65, 88
1, 207881, Note_on_c, 0, 57, 80
1, 207887, Note_on_c, 0, 69, 79
1, 207962, Control_c, 0, 64, 52
1, 207976, Control_c, 0, 64, 65
1, 207992, Control_c, 0, 64, 68
1, 208007, Control_c, 0, 64, 70
1, 208022, Control_c, 0, 64, 72
1, 208023, Note_off_c, 0, 69, 62
1, 208036, Control_c, 0, 64, 75
1, 208051, Control_c, 0, 64, 78
1, 208069, Note_off_c, 0, 57, 62
1, 208074, Control_c, 0, 64, 80
1, 208089, Control_c, 0, 64, 83
1, 208104, Control_c, 0, 64, 86
1, 208119, Control_c, 0, 64, 88
1, 208133, Control_c, 0, 64, 90
1, 208148, Control_c, 0, 64, 93
1, 208163, Control_c, 0, 64, 95
1, 208178, Control_c, 0, 64, 95
1, 208187, Note_off_c, 0, 65, 51
1, 208192, Control_c, 0, 64, 96
1, 208218, Note_on_c, 0, 58, 66
1, 208218, Note_on_c, 0, 75, 78
1, 208222, Control_c, 0, 64, 94
1, 208224, Note_off_c, 0, 77, 54
1, 208230, Note_on_c, 0, 55, 62
1, 208230, Note_on_c, 0, 63, 73
1, 208237, Control_c, 0, 64, 84
1, 208251, Control_c, 0, 64, 69
1, 208251, Control_c, 0, 67, 18
1, 208266, Control_c, 0, 64, 47
1, 208266, Control_c, 0, 67, 20
1, 208281, Control_c, 0, 64, 0
1, 208281, Control_c, 0, 67, 22
1, 208340, Control_c, 0, 67, 24
1, 208370, Control_c, 0, 64, 45
1, 208370, Control_c, 0, 67, 27
1, 208385, Control_c, 0, 64, 59
1, 208400, Control_c, 0, 64, 64
1, 208415, Control_c, 0, 64, 67
1, 208430, Control_c, 0, 64, 70
1, 208444, Control_c, 0, 64, 73
1, 208444, Control_c, 0, 67, 29
1, 208459, Control_c, 0, 64, 77
1, 208474, Control_c, 0, 64, 80
1, 208489, Control_c, 0, 64, 81
1, 208495, Note_off_c, 0, 63, 62
1, 208498, Note_off_c, 0, 75, 63
1, 208504, Control_c, 0, 67, 31
1, 208518, Control_c, 0, 64, 80
1, 208518, Control_c, 0, 67, 33
1, 208525, Note_off_c, 0, 55, 61
1, 208533, Control_c, 0, 64, 75
1, 208533, Control_c, 0, 67, 36
1, 208543, Note_on_c, 0, 74, 76
1, 208544, Note_on_c, 0, 57, 63
1, 208545, Note_off_c, 0, 58, 58
1, 208546, Note_on_c, 0, 54, 63
1, 208548, Control_c, 0, 64, 63
1, 208548, Control_c, 0, 67, 39
1, 208553, Note_on_c, 0, 62, 64
1, 208562, Control_c, 0, 64, 35
1, 208562, Control_c, 0, 67, 41
1, 208577, Control_c, 0, 64, 0
1, 208577, Control_c, 0, 67, 43
1, 208607, Control_c, 0, 67, 44
1, 208622, Control_c, 0, 67, 44
1, 208636, Control_c, 0, 67, 47
1, 208651, Control_c, 0, 67, 50
1, 208666, Control_c, 0, 64, 53
1, 208666, Control_c, 0, 67, 51
1, 208681, Control_c, 0, 64, 64
1, 208696, Control_c, 0, 64, 68
1, 208711, Control_c, 0, 64, 71
1, 208724, Note_off_c, 0, 74, 60
1, 208725, Control_c, 0, 64, 73
1, 208740, Control_c, 0, 64, 76
1, 208749, Note_off_c, 0, 57, 62
1, 208755, Control_c, 0, 64, 78
1, 208757, Note_off_c, 0, 54, 63
1, 208769, Control_c, 0, 64, 80
1, 208786, Control_c, 0, 64, 81
1, 208801, Control_c, 0, 64, 82
1, 208823, Control_c, 0, 64, 82
1, 208823, Control_c, 0, 67, 50
1, 208853, Control_c, 0, 64, 82
1, 208853, Control_c, 0, 67, 51
1, 208867, Control_c, 0, 64, 79
1, 208867, Control_c, 0, 67, 51
1, 208878, Note_on_c, 0, 72, 75
1, 208882, Control_c, 0, 64, 69
1, 208882, Control_c, 0, 67, 52
1, 208885, Note_on_c, 0, 66, 60
1, 208890, Note_on_c, 0, 57, 58
1, 208893, Note_on_c, 0, 50, 57
1, 208893, Note_off_c, 0, 62, 55
1, 208897, Control_c, 0, 64, 54
1, 208897, Control_c, 0, 67, 53
1, 208912, Control_c, 0, 64, 0
1, 208912, Control_c, 0, 67, 57
1, 208927, Control_c, 0, 67, 61
1, 208942, Control_c, 0, 67, 64
1, 208956, Control_c, 0, 67, 67
1, 208971, Control_c, 0, 67, 69
1, 208986, Control_c, 0, 67, 72
1, 209000, Control_c, 0, 67, 74
1, 209015, Control_c, 0, 67, 75
1, 209030, Control_c, 0, 64, 33
1, 209030, Control_c, 0, 67, 75
1, 209045, Control_c, 0, 64, 48
1, 209045, Control_c, 0, 67, 76
1, 209060, Control_c, 0, 64, 55
1, 209074, Control_c, 0, 64, 59
1, 209089, Control_c, 0, 64, 62
1, 209104, Control_c, 0, 64, 64
1, 209119, Control_c, 0, 64, 65
1, 209133, Control_c, 0, 64, 66
1, 209163, Control_c, 0, 64, 65
1, 209163, Control_c, 0, 67, 75
1, 209178, Control_c, 0, 64, 61
1, 209193, Control_c, 0, 64, 52
1, 209201, Note_off_c, 0, 57, 59
1, 209208, Control_c, 0, 64, 0
1, 209210, Note_on_c, 0, 55, 57
1, 209210, Note_on_c, 0, 70, 66
1, 209223, Note_on_c, 0, 51, 59
1, 209226, Note_on_c, 0, 67, 52
1, 209226, Note_off_c, 0, 66, 54
1, 209237, Note_off_c, 0, 72, 39
1, 209254, Note_off_c, 0, 50, 53
1, 209282, Control_c, 0, 67, 76
1, 209371, Control_c, 0, 64, 42
1, 209385, Control_c, 0, 64, 56
1, 209400, Control_c, 0, 64, 61
1, 209415, Control_c, 0, 64, 64
1, 209430, Control_c, 0, 64, 66
1, 209442, Note_off_c, 0, 67, 59
1, 209445, Control_c, 0, 64, 67
1, 209459, Control_c, 0, 64, 69
1, 209474, Control_c, 0, 64, 70
1, 209474, Control_c, 0, 67, 75
1, 209485, Note_off_c, 0, 51, 64
1, 209489, Control_c, 0, 64, 71
1, 209489, Control_c, 0, 67, 75
1, 209518, Control_c, 0, 64, 70
1, 209533, Control_c, 0, 64, 67
1, 209548, Control_c, 0, 64, 61
1, 209563, Note_on_c, 0, 52, 54
1, 209565, Note_on_c, 0, 67, 61
1, 209571, Control_c, 0, 64, 48
1, 209575, Note_on_c, 0, 58, 38
1, 209576, Note_on_c, 0, 60, 50
1, 209586, Control_c, 0, 64, 0
1, 209640, Note_off_c, 0, 55, 53
1, 209691, Note_off_c, 0, 70, 30
1, 209735, Control_c, 0, 64, 53
1, 209750, Control_c, 0, 64, 63
1, 209750, Control_c, 0, 67, 75
1, 209764, Control_c, 0, 64, 66
1, 209775, Note_off_c, 0, 58, 41
1, 209779, Control_c, 0, 64, 68
1, 209794, Control_c, 0, 64, 70
1, 209809, Control_c, 0, 64, 72
1, 209823, Control_c, 0, 64, 74
1, 209838, Control_c, 0, 64, 76
1, 209843, Note_off_c, 0, 67, 63
1, 209853, Control_c, 0, 64, 77
1, 209868, Control_c, 0, 64, 78
1, 209927, Control_c, 0, 64, 76
1, 209927, Control_c, 0, 67, 76
1, 209936, Note_on_c, 0, 53, 55
1, 209942, Control_c, 0, 64, 72
1, 209957, Control_c, 0, 64, 64
1, 209957, Control_c, 0, 67, 76
1, 209959, Note_off_c, 0, 60, 56
1, 209971, Control_c, 0, 64, 49
1, 209971, Control_c, 0, 67, 77
1, 209986, Control_c, 0, 64, 0
1, 209986, Control_c, 0, 67, 79
1, 210001, Control_c, 0, 67, 82
1, 210015, Control_c, 0, 67, 84
1, 210030, Note_off_c, 0, 52, 49
1, 210030, Control_c, 0, 67, 86
1, 210045, Control_c, 0, 67, 89
1, 210060, Control_c, 0, 67, 94
1, 210075, Control_c, 0, 67, 97
1, 210090, Control_c, 0, 67, 100
1, 210208, Control_c, 0, 67, 102
1, 210270, Note_on_c, 0, 65, 50
1, 210273, Note_on_c, 0, 62, 53
1, 210275, Note_on_c, 0, 58, 53
1, 210295, Note_off_c, 0, 65, 59
1, 210297, Note_off_c, 0, 58, 60
1, 210299, Note_off_c, 0, 62, 61
1, 210439, Control_c, 0, 67, 104
1, 210469, Control_c, 0, 67, 107
1, 210483, Control_c, 0, 67, 111
1, 210498, Control_c, 0, 67, 116
1, 210513, Control_c, 0, 67, 119
1, 210543, Control_c, 0, 67, 122
1, 210639, Note_on_c, 0, 41, 24
1, 210654, Note_off_c, 0, 53, 56
1, 210661, Control_c, 0, 67, 124
1, 210779, Control_c, 0, 67, 127
1, 210972, Note_on_c, 0, 65, 52
1, 210974, Note_on_c, 0, 57, 45
1, 210978, Note_on_c, 0, 60, 45
1, 211001, Note_off_c, 0, 57, 54
1, 211002, Note_off_c, 0, 65, 60
1, 211003, Note_off_c, 0, 60, 59
1, 211324, Note_on_c, 0, 34, 40
1, 211408, Note_off_c, 0, 41, 42
1, 211670, Note_on_c, 0, 62, 59
1, 211673, Note_on_c, 0, 53, 49
1, 211679, Note_on_c, 0, 58, 48
1, 211700, Note_off_c, 0, 53, 54
1, 211704, Note_off_c, 0, 58, 55
1, 211704, Note_off_c, 0, 62, 64
1, 211765, Control_c, 0, 64, 47
1, 211780, Control_c, 0, 64, 60
1, 211795, Control_c, 0, 64, 65
1, 211817, Control_c, 0, 64, 68
1, 211832, Control_c, 0, 64, 70
1, 211843, Note_off_c, 0, 34, 58
1, 211847, Control_c, 0, 64, 72
1, 211862, Control_c, 0, 64, 73
1, 211876, Control_c, 0, 64, 74
1, 211891, Control_c, 0, 64, 74
1, 211906, Control_c, 0, 64, 75
1, 211935, Control_c, 0, 64, 75
1, 211950, Control_c, 0, 64, 76
1, 212025, Control_c, 0, 64, 75
1, 212040, Control_c, 0, 64, 73
1, 212055, Control_c, 0, 64, 65
1, 212070, Control_c, 0, 64, 48
1, 212079, Note_on_c, 0, 62, 67
1, 212084, Control_c, 0, 64, 0
1, 212092, Note_on_c, 0, 58, 51
1, 212263, Note_on_c, 0, 74, 75
1, 212274, Note_on_c, 0, 70, 64
1, 212292, Control_c, 0, 64, 50
1, 212293, Note_off_c, 0, 70, 66
1, 212307, Control_c, 0, 64, 63
1, 212316, Note_off_c, 0, 74, 62
1, 212322, Control_c, 0, 64, 67
1, 212336, Control_c, 0, 64, 70
1, 212351, Control_c, 0, 64, 71
1, 212366, Control_c, 0, 64, 73
1, 212381, Control_c, 0, 64, 75
1, 212396, Control_c, 0, 64, 76
1, 212425, Control_c, 0, 64, 76
1, 212447, Note_off_c, 0, 62, 54
1, 212454, Note_off_c, 0, 58, 55
1, 212499, Control_c, 0, 64, 76
1, 212514, Control_c, 0, 64, 75
1, 212528, Control_c, 0, 64, 74
1, 212543, Control_c, 0, 64, 72
1, 212567, Control_c, 0, 64, 67
1, 212582, Control_c, 0, 64, 58
1, 212593, Note_on_c, 0, 74, 66
1, 212597, Note_on_c, 0, 70, 64
1, 212597, Control_c, 0, 64, 41
1, 212601, Note_on_c, 0, 58, 60
1, 212608, Note_on_c, 0, 62, 47
1, 212612, Control_c, 0, 64, 0
1, 212615, Note_off_c, 0, 70, 67
1, 212624, Note_off_c, 0, 74, 63
1, 212632, Note_off_c, 0, 62, 54
1, 212633, Note_off_c, 0, 58, 65
1, 212746, Note_on_c, 0, 58, 64
1, 212763, Note_on_c, 0, 55, 47
1, 212773, Note_off_c, 0, 58, 64
1, 212790, Note_off_c, 0, 55, 51
1, 212892, Note_on_c, 0, 70, 60
1, 212895, Note_on_c, 0, 67, 55
1, 212913, Note_off_c, 0, 70, 64
1, 212916, Note_off_c, 0, 67, 60
1, 213051, Note_on_c, 0, 51, 57
1, 213056, Note_on_c, 0, 55, 36
1, 213075, Note_off_c, 0, 51, 62
1, 213087, Note_off_c, 0, 55, 33
1, 213199, Note_on_c, 0, 67, 64
1, 213205, Note_on_c, 0, 63, 50
1, 213226, Note_off_c, 0, 67, 67
1, 213230, Note_off_c, 0, 63, 58
1, 213345, Control_c, 0, 67, 109
1, 213360, Control_c, 0, 67, 83
1, 213367, Note_on_c, 0, 63, 75
1, 213375, Control_c, 0, 67, 63
1, 213378, Note_on_c, 0, 60, 66
1, 213390, Control_c, 0, 67, 50
1, 213405, Control_c, 0, 67, 47
1, 213493, Control_c, 0, 67, 49
1, 213508, Control_c, 0, 67, 52
1, 213523, Control_c, 0, 67, 55
1, 213538, Control_c, 0, 67, 56
1, 213541, Note_on_c, 0, 75, 78
1, 213553, Note_on_c, 0, 72, 66
1, 213553, Control_c, 0, 64, 42
1, 213553, Control_c, 0, 67, 59
1, 213567, Control_c, 0, 64, 63
1, 213567, Control_c, 0, 67, 63
1, 213569, Note_off_c, 0, 72, 67
1, 213582, Control_c, 0, 64, 68
1, 213582, Control_c, 0, 67, 72
1, 213586, Note_off_c, 0, 75, 65
1, 213598, Control_c, 0, 64, 70
1, 213598, Control_c, 0, 67, 85
1, 213613, Control_c, 0, 64, 72
1, 213613, Control_c, 0, 67, 93
1, 213628, Control_c, 0, 64, 73
1, 213628, Control_c, 0, 67, 95
1, 213643, Control_c, 0, 64, 73
1, 213643, Control_c, 0, 67, 95
1, 213657, Control_c, 0, 67, 96
1, 213687, Control_c, 0, 67, 102
1, 213702, Control_c, 0, 64, 74
1, 213702, Control_c, 0, 67, 105
1, 213709, Note_off_c, 0, 63, 60
1, 213776, Control_c, 0, 64, 73
1, 213805, Note_off_c, 0, 60, 57
1, 213805, Control_c, 0, 64, 72
1, 213820, Control_c, 0, 64, 68
1, 213835, Control_c, 0, 64, 59
1, 213850, Control_c, 0, 64, 38
1, 213851, Note_on_c, 0, 74, 66
1, 213852, Note_on_c, 0, 58, 57
1, 213854, Note_on_c, 0, 62, 62
1, 213864, Note_on_c, 0, 70, 42
1, 213864, Control_c, 0, 64, 0
1, 213878, Note_off_c, 0, 74, 69
1, 213887, Note_off_c, 0, 58, 64
1, 213887, Note_off_c, 0, 62, 62
1, 213894, Note_off_c, 0, 70, 57
1, 214007, Note_on_c, 0, 60, 67
1, 214012, Note_on_c, 0, 57, 64
1, 214026, Note_off_c, 0, 60, 67
1, 214041, Note_off_c, 0, 57, 66
1, 214159, Note_on_c, 0, 69, 63
1, 214159, Note_on_c, 0, 72, 63
1, 214178, Note_off_c, 0, 69, 64
1, 214180, Note_off_c, 0, 72, 66
1, 214320, Note_on_c, 0, 53, 58
1, 214320, Note_on_c, 0, 57, 62
1, 214340, Note_off_c, 0, 57, 63
1, 214343, Note_off_c, 0, 53, 61
1, 214345, Control_c, 0, 67, 102
1, 214435, Control_c, 0, 67, 100
1, 214465, Control_c, 0, 67, 97
1, 214468, Note_on_c, 0, 69, 73
1, 214472, Note_on_c, 0, 65, 65
1, 214479, Control_c, 0, 67, 93
1, 214490, Note_off_c, 0, 69, 68
1, 214491, Note_off_c, 0, 65, 66
1, 214494, Control_c, 0, 67, 88
1, 214509, Control_c, 0, 67, 72
1, 214524, Control_c, 0, 67, 49
1, 214538, Control_c, 0, 67, 18
1, 214553, Control_c, 0, 67, 0
1, 214633, Note_on_c, 0, 65, 89
1, 214638, Note_on_c, 0, 62, 78
1, 214824, Note_on_c, 0, 77, 82
1, 214828, Control_c, 0, 64, 47
1, 214843, Control_c, 0, 64, 64
1, 214844, Note_on_c, 0, 74, 56
1, 214853, Note_on_c, 0, 79, 39
1, 214853, Note_off_c, 0, 79, 127
1, 214858, Control_c, 0, 64, 71
1, 214865, Note_off_c, 0, 74, 61
1, 214866, Note_off_c, 0, 77, 65
1, 214873, Control_c, 0, 64, 77
1, 214887, Control_c, 0, 64, 82
1, 214902, Control_c, 0, 64, 86
1, 214917, Control_c, 0, 64, 89
1, 214931, Control_c, 0, 64, 91
1, 214946, Control_c, 0, 64, 94
1, 214955, Note_off_c, 0, 65, 56
1, 214961, Control_c, 0, 64, 97
1, 214976, Note_off_c, 0, 62, 58
1, 214991, Control_c, 0, 64, 99
1, 215035, Control_c, 0, 64, 101
1, 215110, Control_c, 0, 64, 93
1, 215125, Control_c, 0, 64, 75
1, 215137, Note_on_c, 0, 77, 69
1, 215139, Control_c, 0, 64, 54
1, 215149, Note_on_c, 0, 62, 55
1, 215153, Note_on_c, 0, 65, 47
1, 215154, Control_c, 0, 64, 0
1, 215163, Note_off_c, 0, 77, 66
1, 215165, Note_on_c, 0, 74, 21
1, 215165, Note_off_c, 0, 74, 127
1, 215170, Note_off_c, 0, 62, 62
1, 215174, Note_off_c, 0, 65, 61
1, 215288, Note_on_c, 0, 62, 64
1, 215299, Note_on_c, 0, 58, 67
1, 215313, Note_off_c, 0, 62, 65
1, 215326, Note_off_c, 0, 58, 64
1, 215430, Note_on_c, 0, 74, 71
1, 215436, Note_on_c, 0, 70, 69
1, 215455, Note_off_c, 0, 70, 67
1, 215458, Note_off_c, 0, 74, 67
1, 215594, Note_on_c, 0, 55, 70
1, 215597, Note_on_c, 0, 58, 66
1, 215620, Note_off_c, 0, 55, 68
1, 215625, Note_off_c, 0, 58, 64
1, 215733, Note_on_c, 0, 70, 82
1, 215734, Note_on_c, 0, 67, 71
1, 215757, Note_off_c, 0, 67, 70
1, 215776, Note_off_c, 0, 70, 61
1, 215892, Note_on_c, 0, 67, 90
1, 215897, Note_on_c, 0, 63, 91
1, 216076, Note_on_c, 0, 79, 100
1, 216082, Control_c, 0, 64, 45
1, 216090, Note_on_c, 0, 75, 79
1, 216096, Control_c, 0, 64, 65
1, 216111, Control_c, 0, 64, 72
1, 216126, Control_c, 0, 64, 81
1, 216141, Control_c, 0, 64, 88
1, 216156, Control_c, 0, 64, 95
1, 216170, Control_c, 0, 64, 104
1, 216185, Control_c, 0, 64, 118
1, 216200, Control_c, 0, 64, 127
1, 216248, Note_off_c, 0, 79, 62
1, 216255, Note_off_c, 0, 75, 62
1, 216271, Note_off_c, 0, 67, 58
1, 216313, Note_off_c, 0, 63, 57
1, 216393, Note_on_c, 0, 77, 82
1, 216396, Note_on_c, 0, 74, 84
1, 216398, Control_c, 0, 64, 89
1, 216409, Note_on_c, 0, 62, 79
1, 216413, Control_c, 0, 64, 64
1, 216414, Note_on_c, 0, 65, 71
1, 216418, Note_off_c, 0, 74, 65
1, 216428, Control_c, 0, 64, 0
1, 216434, Note_off_c, 0, 77, 62
1, 216440, Note_off_c, 0, 65, 68
1, 216448, Note_off_c, 0, 62, 63
1, 216549, Note_on_c, 0, 63, 81
1, 216552, Note_on_c, 0, 60, 76
1, 216573, Note_off_c, 0, 63, 66
1, 216573, Note_off_c, 0, 60, 71
1, 216689, Note_on_c, 0, 75, 81
1, 216690, Note_on_c, 0, 72, 75
1, 216705, Note_off_c, 0, 72, 68
1, 216718, Note_off_c, 0, 75, 63
1, 216729, Note_on_c, 0, 71, 21
1, 216729, Note_off_c, 0, 71, 127
1, 216836, Note_on_c, 0, 57, 83
1, 216837, Note_on_c, 0, 60, 89
1, 216859, Note_off_c, 0, 57, 70
1, 216866, Note_off_c, 0, 60, 69
1, 216985, Note_on_c, 0, 72, 99
1, 216990, Note_on_c, 0, 69, 85
1, 217012, Note_off_c, 0, 69, 66
1, 217026, Note_off_c, 0, 72, 70
1, 217170, Note_on_c, 0, 72, 100
1, 217175, Note_on_c, 0, 63, 95
1, 217385, Note_on_c, 0, 84, 103
1, 217414, Control_c, 0, 64, 34
1, 217420, Note_on_c, 0, 76, 69
1, 217429, Note_on_c, 0, 75, 39
1, 217429, Control_c, 0, 64, 56
1, 217444, Control_c, 0, 64, 69
1, 217451, Note_off_c, 0, 76, 0
1, 217451, Note_on_c, 0, 76, 37
1, 217458, Control_c, 0, 64, 76
1, 217473, Control_c, 0, 64, 86
1, 217488, Control_c, 0, 64, 99
1, 217496, Note_off_c, 0, 76, 55
1, 217499, Note_off_c, 0, 75, 53
1, 217503, Control_c, 0, 64, 120
1, 217518, Control_c, 0, 64, 127
1, 217537, Poly_aftertouch_c, 0, 82, 0
1, 217682, Control_c, 0, 64, 110
1, 217687, Note_off_c, 0, 72, 61
1, 217695, Note_on_c, 0, 82, 96
1, 217697, Note_on_c, 0, 62, 78
1, 217697, Control_c, 0, 64, 74
1, 217697, Note_off_c, 0, 84, 58
1, 217698, Note_on_c, 0, 74, 83
1, 217703, Note_on_c, 0, 70, 85
1, 217709, Note_off_c, 0, 63, 62
1, 217711, Control_c, 0, 64, 41
1, 217726, Control_c, 0, 64, 0
1, 217727, Note_off_c, 0, 74, 67
1, 217740, Note_off_c, 0, 70, 69
1, 217743, Note_off_c, 0, 62, 62
1, 217746, Note_off_c, 0, 82, 68
1, 217873, Note_on_c, 0, 60, 81
1, 217886, Note_on_c, 0, 69, 69
1, 217894, Note_on_c, 0, 71, 63
1, 217920, Note_off_c, 0, 71, 54
1, 218001, Control_c, 0, 67, 22
1, 218016, Control_c, 0, 67, 26
1, 218028, Note_on_c, 0, 81, 91
1, 218030, Control_c, 0, 64, 55
1, 218039, Note_on_c, 0, 72, 80
1, 218045, Control_c, 0, 64, 68
1, 218060, Control_c, 0, 64, 74
1, 218060, Control_c, 0, 67, 28
1, 218074, Control_c, 0, 64, 79
1, 218089, Control_c, 0, 64, 82
1, 218089, Control_c, 0, 67, 30
1, 218104, Control_c, 0, 64, 83
1, 218110, Note_off_c, 0, 69, 62
1, 218119, Control_c, 0, 64, 84
1, 218122, Note_off_c, 0, 60, 64
1, 218122, Note_off_c, 0, 81, 64
1, 218132, Note_off_c, 0, 72, 58
1, 218281, Control_c, 0, 64, 84
1, 218281, Control_c, 0, 67, 32
1, 218296, Control_c, 0, 64, 82
1, 218296, Control_c, 0, 67, 33
1, 218311, Control_c, 0, 64, 75
1, 218311, Control_c, 0, 67, 35
1, 218326, Control_c, 0, 64, 62
1, 218326, Control_c, 0, 67, 36
1, 218328, Note_on_c, 0, 79, 80
1, 218335, Note_on_c, 0, 58, 65
1, 218335, Note_on_c, 0, 70, 69
1, 218339, Note_on_c, 0, 67, 61
1, 218341, Control_c, 0, 64, 43
1, 218341, Control_c, 0, 67, 38
1, 218353, Note_off_c, 0, 70, 66
1, 218356, Control_c, 0, 64, 0
1, 218356, Control_c, 0, 67, 39
1, 218358, Note_off_c, 0, 79, 61
1, 218359, Note_off_c, 0, 67, 67
1, 218368, Note_off_c, 0, 58, 63
1, 218371, Control_c, 0, 67, 41
1, 218386, Control_c, 0, 67, 42
1, 218401, Control_c, 0, 67, 43
1, 218416, Control_c, 0, 67, 45
1, 218431, Control_c, 0, 67, 47
1, 218445, Control_c, 0, 67, 49
1, 218460, Control_c, 0, 67, 50
1, 218475, Control_c, 0, 67, 51
1, 218485, Note_on_c, 0, 57, 76
1, 218487, Note_on_c, 0, 65, 68
1, 218505, Note_off_c, 0, 65, 67
1, 218507, Note_off_c, 0, 57, 71
1, 218520, Control_c, 0, 67, 52
1, 218557, Control_c, 0, 67, 53
1, 218572, Control_c, 0, 67, 53
1, 218616, Control_c, 0, 67, 54
1, 218631, Control_c, 0, 67, 54
1, 218638, Note_on_c, 0, 77, 74
1, 218640, Note_on_c, 0, 69, 69
1, 218646, Control_c, 0, 67, 55
1, 218657, Note_off_c, 0, 69, 67
1, 218659, Note_off_c, 0, 77, 70
1, 218660, Control_c, 0, 67, 56
1, 218675, Control_c, 0, 67, 57
1, 218690, Control_c, 0, 67, 58
1, 218705, Control_c, 0, 67, 60
1, 218720, Control_c, 0, 67, 62
1, 218735, Control_c, 0, 67, 64
1, 218749, Control_c, 0, 67, 66
1, 218764, Control_c, 0, 67, 68
1, 218779, Control_c, 0, 67, 71
1, 218786, Note_on_c, 0, 58, 65
1, 218791, Note_on_c, 0, 55, 62
1, 218794, Control_c, 0, 67, 75
1, 218809, Control_c, 0, 67, 78
1, 218811, Note_off_c, 0, 55, 63
1, 218813, Note_off_c, 0, 58, 64
1, 218824, Control_c, 0, 67, 80
1, 218839, Control_c, 0, 67, 84
1, 218853, Control_c, 0, 67, 89
1, 218868, Control_c, 0, 67, 94
1, 218883, Control_c, 0, 67, 99
1, 218898, Control_c, 0, 67, 101
1, 218927, Control_c, 0, 64, 45
1, 218930, Note_on_c, 0, 75, 71
1, 218940, Note_on_c, 0, 63, 57
1, 218942, Control_c, 0, 64, 55
1, 218957, Control_c, 0, 64, 61
1, 218969, Note_off_c, 0, 75, 59
1, 218971, Control_c, 0, 64, 63
1, 218979, Note_off_c, 0, 63, 57
1, 218986, Control_c, 0, 64, 64
1, 219001, Control_c, 0, 64, 65
1, 219016, Control_c, 0, 64, 67
1, 219030, Control_c, 0, 64, 68
1, 219045, Control_c, 0, 64, 70
1, 219060, Control_c, 0, 64, 71
1, 219075, Control_c, 0, 64, 72
1, 219090, Control_c, 0, 64, 73
1, 219104, Control_c, 0, 64, 72
1, 219113, Note_on_c, 0, 54, 54
1, 219119, Control_c, 0, 64, 69
1, 219128, Note_on_c, 0, 57, 41
1, 219131, Note_on_c, 0, 74, 63
1, 219134, Control_c, 0, 64, 61
1, 219139, Note_on_c, 0, 60, 39
1, 219149, Control_c, 0, 64, 49
1, 219164, Control_c, 0, 64, 36
1, 219170, Note_off_c, 0, 74, 50
1, 219180, Control_c, 0, 64, 0
1, 219209, Control_c, 0, 64, 33
1, 219220, Note_on_c, 0, 62, 60
1, 219224, Control_c, 0, 64, 44
1, 219239, Control_c, 0, 64, 55
1, 219250, Note_off_c, 0, 62, 60
1, 219254, Control_c, 0, 64, 60
1, 219269, Control_c, 0, 64, 62
1, 219283, Control_c, 0, 64, 63
1, 219289, Note_on_c, 0, 66, 65
1, 219306, Control_c, 0, 64, 64
1, 219320, Control_c, 0, 64, 64
1, 219330, Note_off_c, 0, 66, 64
1, 219335, Control_c, 0, 64, 65
1, 219349, Note_on_c, 0, 69, 65
1, 219368, Note_off_c, 0, 69, 65
1, 219380, Control_c, 0, 64, 64
1, 219395, Control_c, 0, 64, 62
1, 219409, Control_c, 0, 64, 58
1, 219424, Control_c, 0, 64, 54
1, 219426, Note_on_c, 0, 74, 77
1, 219439, Control_c, 0, 64, 51
1, 219453, Control_c, 0, 64, 50
1, 219477, Note_off_c, 0, 74, 56
1, 219483, Control_c, 0, 64, 51
1, 219501, Note_on_c, 0, 78, 63
1, 219513, Control_c, 0, 64, 51
1, 219527, Control_c, 0, 64, 52
1, 219541, Note_off_c, 0, 78, 60
1, 219542, Control_c, 0, 64, 53
1, 219556, Note_on_c, 0, 81, 69
1, 219557, Control_c, 0, 64, 54
1, 219572, Control_c, 0, 64, 55
1, 219611, Note_off_c, 0, 81, 62
1, 219627, Note_on_c, 0, 85, 77
1, 219632, Control_c, 0, 64, 55
1, 219646, Control_c, 0, 64, 56
1, 219682, Note_on_c, 0, 86, 62
1, 219701, Note_off_c, 0, 85, 61
1, 219750, Note_off_c, 0, 86, 63
1, 219751, Note_on_c, 0, 85, 69
1, 219780, Control_c, 0, 64, 55
1, 219794, Control_c, 0, 64, 54
1, 219803, Note_off_c, 0, 85, 62
1, 219809, Control_c, 0, 64, 53
1, 219812, Note_on_c, 0, 86, 72
1, 219824, Control_c, 0, 64, 51
1, 219839, Control_c, 0, 64, 50
1, 219853, Control_c, 0, 64, 50
1, 219868, Control_c, 0, 64, 51
1, 219876, Note_off_c, 0, 86, 65
1, 219882, Note_on_c, 0, 85, 70
1, 219883, Control_c, 0, 64, 53
1, 219898, Control_c, 0, 64, 56
1, 219912, Control_c, 0, 64, 59
1, 219914, Note_off_c, 0, 85, 61
1, 219927, Control_c, 0, 64, 63
1, 219942, Control_c, 0, 64, 65
1, 219945, Note_on_c, 0, 86, 69
1, 219957, Control_c, 0, 64, 67
1, 219973, Control_c, 0, 64, 68
1, 219988, Control_c, 0, 64, 69
1, 219997, Note_off_c, 0, 86, 64
1, 220003, Control_c, 0, 64, 70
1, 220010, Note_on_c, 0, 81, 71
1, 220017, Control_c, 0, 64, 70
1, 220032, Control_c, 0, 64, 71
1, 220070, Control_c, 0, 64, 71
1, 220084, Control_c, 0, 64, 72
1, 220085, Note_off_c, 0, 81, 61
1, 220091, Note_on_c, 0, 78, 67
1, 220097, Note_off_c, 0, 60, 57
1, 220099, Control_c, 0, 64, 72
1, 220114, Control_c, 0, 64, 73
1, 220126, Note_off_c, 0, 78, 64
1, 220129, Control_c, 0, 64, 74
1, 220144, Note_on_c, 0, 74, 65
1, 220144, Control_c, 0, 64, 75
1, 220158, Control_c, 0, 64, 76
1, 220171, Note_off_c, 0, 74, 66
1, 220203, Control_c, 0, 64, 75
1, 220218, Control_c, 0, 64, 70
1, 220221, Note_on_c, 0, 58, 77
1, 220222, Note_on_c, 0, 55, 66
1, 220224, Note_off_c, 0, 57, 64
1, 220230, Note_off_c, 0, 54, 59
1, 220232, Control_c, 0, 64, 57
1, 220232, Control_c, 0, 67, 99
1, 220247, Control_c, 0, 64, 35
1, 220262, Control_c, 0, 64, 0
1, 220262, Control_c, 0, 67, 95
1, 220276, Control_c, 0, 67, 93
1, 220291, Control_c, 0, 67, 92
1, 220301, Note_on_c, 0, 62, 71
1, 220306, Control_c, 0, 67, 90
1, 220321, Control_c, 0, 67, 88
1, 220336, Control_c, 0, 64, 40
1, 220336, Control_c, 0, 67, 84
1, 220350, Control_c, 0, 64, 52
1, 220350, Control_c, 0, 67, 79
1, 220351, Note_off_c, 0, 62, 57
1, 220364, Note_on_c, 0, 67, 72
1, 220365, Control_c, 0, 64, 59
1, 220365, Control_c, 0, 67, 76
1, 220380, Control_c, 0, 64, 62
1, 220380, Control_c, 0, 67, 74
1, 220395, Control_c, 0, 64, 63
1, 220395, Control_c, 0, 67, 72
1, 220410, Control_c, 0, 64, 64
1, 220410, Control_c, 0, 67, 70
1, 220425, Control_c, 0, 64, 65
1, 220425, Control_c, 0, 67, 65
1, 220429, Note_on_c, 0, 70, 82
1, 220435, Note_off_c, 0, 67, 64
1, 220440, Control_c, 0, 64, 66
1, 220440, Control_c, 0, 67, 60
1, 220455, Control_c, 0, 64, 67
1, 220455, Control_c, 0, 67, 52
1, 220469, Control_c, 0, 64, 68
1, 220469, Control_c, 0, 67, 41
1, 220470, Note_off_c, 0, 70, 65
1, 220484, Control_c, 0, 64, 69
1, 220484, Control_c, 0, 67, 30
1, 220499, Control_c, 0, 64, 68
1, 220499, Control_c, 0, 67, 22
1, 220510, Note_on_c, 0, 74, 84
1, 220514, Control_c, 0, 64, 67
1, 220514, Control_c, 0, 67, 20
1, 220529, Control_c, 0, 64, 64
1, 220543, Control_c, 0, 64, 60
1, 220558, Control_c, 0, 64, 57
1, 220562, Note_off_c, 0, 74, 61
1, 220573, Note_on_c, 0, 79, 81
1, 220573, Control_c, 0, 64, 56
1, 220602, Control_c, 0, 64, 57
1, 220639, Note_on_c, 0, 82, 86
1, 220640, Note_off_c, 0, 79, 66
1, 220662, Control_c, 0, 64, 57
1, 220676, Control_c, 0, 64, 58
1, 220717, Note_on_c, 0, 85, 77
1, 220722, Note_off_c, 0, 82, 64
1, 220766, Control_c, 0, 64, 57
1, 220768, Note_on_c, 0, 86, 71
1, 220803, Control_c, 0, 64, 57
1, 220803, Control_c, 0, 67, 22
1, 220813, Note_off_c, 0, 85, 54
1, 220818, Control_c, 0, 64, 56
1, 220833, Control_c, 0, 64, 55
1, 220842, Note_off_c, 0, 86, 59
1, 220848, Control_c, 0, 64, 54
1, 220851, Note_on_c, 0, 85, 63
1, 220863, Control_c, 0, 64, 52
1, 220863, Control_c, 0, 67, 24
1, 220878, Control_c, 0, 64, 48
1, 220893, Control_c, 0, 64, 45
1, 220896, Note_off_c, 0, 85, 63
1, 220903, Note_on_c, 0, 86, 73
1, 220907, Control_c, 0, 64, 45
1, 220907, Control_c, 0, 67, 26
1, 220922, Control_c, 0, 64, 47
1, 220937, Control_c, 0, 64, 52
1, 220952, Control_c, 0, 64, 60
1, 220967, Control_c, 0, 64, 65
1, 220970, Note_off_c, 0, 86, 64
1, 220970, Note_on_c, 0, 85, 81
1, 220981, Control_c, 0, 64, 69
1, 220996, Control_c, 0, 64, 74
1, 221011, Control_c, 0, 64, 81
1, 221025, Control_c, 0, 64, 89
1, 221029, Note_off_c, 0, 85, 64
1, 221038, Note_on_c, 0, 86, 94
1, 221040, Control_c, 0, 64, 95
1, 221055, Control_c, 0, 64, 100
1, 221070, Control_c, 0, 64, 102
1, 221078, Note_off_c, 0, 55, 62
1, 221099, Control_c, 0, 64, 104
1, 221105, Note_on_c, 0, 82, 89
1, 221113, Note_off_c, 0, 86, 64
1, 221162, Note_on_c, 0, 79, 84
1, 221173, Control_c, 0, 67, 24
1, 221181, Note_off_c, 0, 82, 63
1, 221203, Control_c, 0, 67, 22
1, 221217, Note_off_c, 0, 79, 65
1, 221224, Note_on_c, 0, 74, 88
1, 221262, Note_off_c, 0, 74, 65
1, 221292, Note_off_c, 0, 58, 64
1, 221307, Control_c, 0, 64, 99
1, 221313, Note_on_c, 0, 52, 87
1, 221313, Note_on_c, 0, 55, 88
1, 221322, Control_c, 0, 64, 89
1, 221337, Control_c, 0, 64, 69
1, 221352, Control_c, 0, 64, 45
1, 221366, Control_c, 0, 64, 0
1, 221376, Note_on_c, 0, 61, 81
1, 221381, Control_c, 0, 67, 24
1, 221432, Note_off_c, 0, 61, 63
1, 221448, Note_on_c, 0, 64, 76
1, 221455, Control_c, 0, 64, 39
1, 221470, Control_c, 0, 64, 51
1, 221485, Control_c, 0, 64, 55
1, 221499, Control_c, 0, 64, 57
1, 221499, Control_c, 0, 67, 21
1, 221514, Control_c, 0, 64, 58
1, 221527, Note_off_c, 0, 64, 63
1, 221529, Control_c, 0, 67, 18
1, 221537, Note_on_c, 0, 67, 79
1, 221552, Control_c, 0, 64, 59
1, 221552, Control_c, 0, 67, 0
1, 221566, Control_c, 0, 64, 61
1, 221582, Control_c, 0, 64, 63
1, 221597, Control_c, 0, 64, 65
1, 221600, Note_on_c, 0, 70, 87
1, 221611, Control_c, 0, 64, 67
1, 221614, Note_off_c, 0, 67, 64
1, 221626, Control_c, 0, 64, 69
1, 221641, Control_c, 0, 64, 70
1, 221656, Control_c, 0, 64, 72
1, 221671, Note_on_c, 0, 73, 83
1, 221671, Control_c, 0, 64, 73
1, 221686, Control_c, 0, 64, 75
1, 221698, Note_off_c, 0, 70, 64
1, 221701, Control_c, 0, 64, 76
1, 221714, Note_off_c, 0, 73, 66
1, 221715, Control_c, 0, 64, 78
1, 221730, Control_c, 0, 64, 81
1, 221737, Note_on_c, 0, 76, 88
1, 221745, Control_c, 0, 64, 84
1, 221760, Control_c, 0, 64, 86
1, 221775, Control_c, 0, 64, 87
1, 221790, Note_off_c, 0, 76, 65
1, 221804, Control_c, 0, 64, 86
1, 221805, Note_on_c, 0, 79, 89
1, 221819, Control_c, 0, 64, 78
1, 221834, Control_c, 0, 64, 61
1, 221848, Control_c, 0, 64, 0
1, 221866, Note_on_c, 0, 82, 91
1, 221866, Note_off_c, 0, 79, 66
1, 221922, Control_c, 0, 64, 53
1, 221937, Control_c, 0, 64, 69
1, 221939, Note_off_c, 0, 82, 67
1, 221941, Note_on_c, 0, 79, 96
1, 221952, Control_c, 0, 64, 82
1, 221967, Control_c, 0, 64, 101
1, 221982, Control_c, 0, 64, 127
1, 221994, Note_off_c, 0, 79, 65
1, 222003, Note_on_c, 0, 85, 94
1, 222061, Note_on_c, 0, 82, 88
1, 222091, Note_off_c, 0, 55, 61
1, 222105, Note_off_c, 0, 52, 60
1, 222107, Note_off_c, 0, 85, 60
1, 222123, Note_on_c, 0, 79, 86
1, 222143, Note_off_c, 0, 82, 65
1, 222169, Note_off_c, 0, 79, 62
1, 222194, Note_on_c, 0, 76, 86
1, 222234, Note_off_c, 0, 76, 62
1, 222255, Note_on_c, 0, 73, 91
1, 222327, Note_on_c, 0, 70, 94
1, 222343, Note_off_c, 0, 73, 64
1, 222378, Note_off_c, 0, 70, 65
1, 222390, Control_c, 0, 64, 86
1, 222395, Note_on_c, 0, 54, 101
1, 222398, Note_on_c, 0, 51, 94
1, 222405, Control_c, 0, 64, 57
1, 222419, Control_c, 0, 64, 0
1, 222482, Note_on_c, 0, 57, 92
1, 222553, Note_on_c, 0, 60, 86
1, 222555, Note_off_c, 0, 57, 60
1, 222619, Note_on_c, 0, 63, 79
1, 222625, Note_off_c, 0, 60, 65
1, 222642, Control_c, 0, 64, 35
1, 222657, Control_c, 0, 64, 51
1, 222671, Control_c, 0, 64, 60
1, 222685, Note_on_c, 0, 66, 86
1, 222686, Control_c, 0, 64, 65
1, 222701, Control_c, 0, 64, 67
1, 222712, Note_off_c, 0, 63, 64
1, 222716, Control_c, 0, 64, 68
1, 222724, Note_off_c, 0, 66, 66
1, 222759, Note_on_c, 0, 69, 88
1, 222760, Control_c, 0, 64, 68
1, 222775, Control_c, 0, 64, 64
1, 222790, Control_c, 0, 64, 56
1, 222804, Control_c, 0, 64, 39
1, 222819, Control_c, 0, 64, 0
1, 222827, Note_off_c, 0, 69, 61
1, 222831, Note_on_c, 0, 72, 85
1, 222901, Note_on_c, 0, 75, 89
1, 222910, Note_off_c, 0, 72, 63
1, 222923, Control_c, 0, 64, 47
1, 222938, Control_c, 0, 64, 63
1, 222953, Control_c, 0, 64, 67
1, 222967, Control_c, 0, 64, 70
1, 222971, Note_on_c, 0, 78, 87
1, 222980, Note_off_c, 0, 75, 65
1, 222982, Control_c, 0, 64, 72
1, 222997, Control_c, 0, 64, 74
1, 223012, Control_c, 0, 64, 79
1, 223027, Control_c, 0, 64, 83
1, 223030, Note_on_c, 0, 81, 87
1, 223048, Note_off_c, 0, 51, 61
1, 223048, Note_off_c, 0, 54, 63
1, 223050, Control_c, 0, 64, 88
1, 223064, Note_off_c, 0, 78, 65
1, 223065, Control_c, 0, 64, 91
1, 223079, Control_c, 0, 64, 92
1, 223094, Control_c, 0, 64, 87
1, 223098, Note_off_c, 0, 81, 64
1, 223109, Control_c, 0, 64, 72
1, 223118, Note_on_c, 0, 69, 82
1, 223124, Control_c, 0, 64, 43
1, 223137, Note_on_c, 0, 60, 64
1, 223139, Control_c, 0, 64, 0
1, 223140, Note_on_c, 0, 53, 63
1, 223146, Note_on_c, 0, 51, 61
1, 223156, Note_off_c, 0, 60, 66
1, 223159, Note_off_c, 0, 69, 66
1, 223166, Note_off_c, 0, 51, 65
1, 223168, Note_off_c, 0, 53, 65
1, 223190, Note_on_c, 0, 81, 87
1, 223235, Note_off_c, 0, 81, 63
1, 223258, Note_on_c, 0, 69, 93
1, 223260, Note_on_c, 0, 60, 74
1, 223263, Note_on_c, 0, 53, 68
1, 223269, Note_on_c, 0, 51, 65
1, 223297, Note_off_c, 0, 60, 66
1, 223298, Note_off_c, 0, 51, 65
1, 223304, Note_off_c, 0, 69, 64
1, 223308, Note_off_c, 0, 53, 63
1, 223326, Note_on_c, 0, 81, 89
1, 223376, Note_off_c, 0, 81, 65
1, 223392, Note_on_c, 0, 69, 98
1, 223393, Note_on_c, 0, 60, 88
1, 223394, Note_on_c, 0, 51, 75
1, 223415, Note_off_c, 0, 60, 66
1, 223442, Note_off_c, 0, 51, 65
1, 223448, Note_off_c, 0, 69, 64
1, 223467, Note_on_c, 0, 81, 91
1, 223510, Control_c, 0, 64, 63
1, 223519, Note_off_c, 0, 81, 64
1, 223525, Control_c, 0, 64, 72
1, 223532, Note_on_c, 0, 53, 62
1, 223532, Note_on_c, 0, 58, 99
1, 223533, Note_on_c, 0, 70, 104
1, 223535, Note_on_c, 0, 50, 72
1, 223540, Control_c, 0, 64, 80
1, 223555, Control_c, 0, 64, 85
1, 223567, Note_off_c, 0, 58, 68
1, 223569, Control_c, 0, 64, 86
1, 223575, Note_off_c, 0, 50, 65
1, 223579, Note_off_c, 0, 53, 63
1, 223584, Control_c, 0, 64, 85
1, 223594, Note_on_c, 0, 82, 80
1, 223594, Note_off_c, 0, 70, 65
1, 223599, Control_c, 0, 64, 84
1, 223613, Control_c, 0, 64, 80
1, 223620, Note_off_c, 0, 82, 67
1, 223626, Poly_aftertouch_c, 0, 51, 0
1, 223628, Control_c, 0, 64, 74
1, 223643, Control_c, 0, 64, 67
1, 223658, Control_c, 0, 64, 61
1, 223673, Control_c, 0, 64, 59
1, 223680, Note_on_c, 0, 69, 90
1, 223687, Control_c, 0, 64, 59
1, 223702, Control_c, 0, 64, 57
1, 223717, Control_c, 0, 64, 54
1, 223731, Note_off_c, 0, 69, 63
1, 223732, Control_c, 0, 64, 51
1, 223738, Note_on_c, 0, 81, 81
1, 223747, Control_c, 0, 64, 50
1, 223762, Control_c, 0, 64, 51
1, 223776, Control_c, 0, 64, 53
1, 223799, Control_c, 0, 64, 55
1, 223801, Note_off_c, 0, 81, 65
1, 223814, Control_c, 0, 64, 56
1, 223823, Note_on_c, 0, 70, 90
1, 223828, Control_c, 0, 64, 58
1, 223843, Control_c, 0, 64, 60
1, 223858, Control_c, 0, 64, 61
1, 223869, Note_off_c, 0, 70, 65
1, 223886, Note_on_c, 0, 82, 85
1, 223888, Control_c, 0, 64, 60
1, 223902, Control_c, 0, 64, 58
1, 223908, Note_off_c, 0, 82, 69
1, 223917, Control_c, 0, 64, 55
1, 223932, Control_c, 0, 64, 51
1, 223946, Control_c, 0, 64, 45
1, 223963, Control_c, 0, 64, 0
1, 223971, Note_on_c, 0, 63, 87
1, 223975, Note_on_c, 0, 45, 66
1, 223976, Note_on_c, 0, 53, 63
1, 224002, Note_off_c, 0, 45, 66
1, 224006, Note_off_c, 0, 53, 65
1, 224011, Note_off_c, 0, 63, 66
1, 224040, Note_on_c, 0, 75, 67
1, 224089, Note_off_c, 0, 75, 65
1, 224099, Note_on_c, 0, 53, 75
1, 224106, Note_on_c, 0, 46, 79
1, 224111, Control_c, 0, 64, 34
1, 224112, Note_on_c, 0, 62, 87
1, 224125, Control_c, 0, 64, 0
1, 224129, Note_off_c, 0, 53, 65
1, 224133, Note_off_c, 0, 46, 68
1, 224152, Note_off_c, 0, 62, 63
1, 224163, Note_on_c, 0, 74, 80
1, 224191, Note_off_c, 0, 74, 62
1, 224214, Control_c, 0, 64, 42
1, 224229, Control_c, 0, 64, 56
1, 224236, Note_on_c, 0, 51, 87
1, 224238, Note_on_c, 0, 53, 82
1, 224243, Note_on_c, 0, 69, 89
1, 224243, Control_c, 0, 64, 63
1, 224258, Control_c, 0, 64, 65
1, 224271, Note_off_c, 0, 53, 65
1, 224273, Control_c, 0, 64, 63
1, 224288, Control_c, 0, 64, 59
1, 224291, Note_off_c, 0, 51, 63
1, 224291, Note_off_c, 0, 69, 64
1, 224303, Control_c, 0, 64, 56
1, 224315, Note_on_c, 0, 81, 80
1, 224318, Control_c, 0, 64, 57
1, 224333, Control_c, 0, 64, 60
1, 224348, Control_c, 0, 64, 62
1, 224363, Control_c, 0, 64, 64
1, 224373, Note_off_c, 0, 81, 65
1, 224377, Control_c, 0, 64, 64
1, 224380, Note_on_c, 0, 50, 81
1, 224386, Note_on_c, 0, 70, 94
1, 224392, Control_c, 0, 64, 62
1, 224396, Note_on_c, 0, 53, 46
1, 224407, Control_c, 0, 64, 53
1, 224408, Note_off_c, 0, 50, 65
1, 224422, Control_c, 0, 64, 39
1, 224425, Note_off_c, 0, 53, 54
1, 224425, Note_off_c, 0, 70, 68
1, 224436, Control_c, 0, 64, 0
1, 224452, Note_on_c, 0, 82, 68
1, 224477, Note_off_c, 0, 82, 68
1, 224517, Note_on_c, 0, 53, 76
1, 224518, Note_on_c, 0, 45, 85
1, 224523, Note_on_c, 0, 63, 93
1, 224556, Note_off_c, 0, 53, 64
1, 224561, Note_off_c, 0, 45, 67
1, 224583, Note_off_c, 0, 63, 63
1, 224591, Control_c, 0, 64, 35
1, 224601, Note_on_c, 0, 75, 83
1, 224606, Control_c, 0, 64, 41
1, 224621, Control_c, 0, 64, 47
1, 224636, Control_c, 0, 64, 51
1, 224650, Note_off_c, 0, 75, 67
1, 224650, Control_c, 0, 64, 53
1, 224661, Note_on_c, 0, 53, 81
1, 224665, Note_on_c, 0, 46, 83
1, 224665, Control_c, 0, 64, 52
1, 224673, Note_on_c, 0, 62, 89
1, 224680, Control_c, 0, 64, 50
1, 224693, Note_off_c, 0, 46, 65
1, 224695, Control_c, 0, 64, 49
1, 224698, Note_off_c, 0, 53, 65
1, 224710, Control_c, 0, 64, 48
1, 224717, Note_off_c, 0, 62, 62
1, 224724, Control_c, 0, 64, 46
1, 224725, Note_on_c, 0, 74, 83
1, 224739, Control_c, 0, 64, 44
1, 224754, Control_c, 0, 64, 42
1, 224762, Note_off_c, 0, 74, 59
1, 224770, Control_c, 0, 64, 41
1, 224800, Control_c, 0, 64, 43
1, 224803, Note_on_c, 0, 51, 87
1, 224804, Note_on_c, 0, 53, 86
1, 224806, Note_on_c, 0, 69, 96
1, 224814, Control_c, 0, 64, 44
1, 224829, Control_c, 0, 64, 45
1, 224842, Note_off_c, 0, 53, 62
1, 224844, Control_c, 0, 64, 46
1, 224857, Note_off_c, 0, 51, 62
1, 224857, Note_off_c, 0, 69, 63
1, 224859, Control_c, 0, 64, 47
1, 224872, Note_on_c, 0, 81, 85
1, 224873, Control_c, 0, 64, 47
1, 224903, Control_c, 0, 64, 47
1, 224918, Control_c, 0, 64, 46
1, 224932, Note_off_c, 0, 81, 64
1, 224932, Control_c, 0, 64, 45
1, 224944, Note_on_c, 0, 50, 84
1, 224944, Note_on_c, 0, 53, 81
1, 224945, Note_on_c, 0, 70, 99
1, 224968, Note_off_c, 0, 53, 69
1, 224980, Note_off_c, 0, 50, 66
1, 224992, Note_off_c, 0, 70, 64
1, 225015, Note_on_c, 0, 82, 80
1, 225033, Note_off_c, 0, 82, 73
1, 225066, Control_c, 0, 64, 44
1, 225080, Note_on_c, 0, 53, 83
1, 225081, Control_c, 0, 64, 42
1, 225083, Note_on_c, 0, 45, 87
1, 225084, Note_on_c, 0, 63, 93
1, 225096, Control_c, 0, 64, 41
1, 225111, Control_c, 0, 64, 40
1, 225115, Note_off_c, 0, 45, 63
1, 225115, Note_off_c, 0, 53, 65
1, 225126, Control_c, 0, 64, 41
1, 225135, Note_off_c, 0, 63, 66
1, 225140, Control_c, 0, 64, 41
1, 225158, Note_on_c, 0, 75, 81
1, 225170, Control_c, 0, 64, 41
1, 225184, Control_c, 0, 64, 40
1, 225199, Control_c, 0, 64, 38
1, 225213, Note_off_c, 0, 75, 66
1, 225214, Note_on_c, 0, 46, 92
1, 225214, Note_on_c, 0, 53, 91
1, 225214, Control_c, 0, 64, 37
1, 225229, Control_c, 0, 64, 37
1, 225233, Note_on_c, 0, 62, 92
1, 225244, Control_c, 0, 64, 36
1, 225250, Note_off_c, 0, 53, 64
1, 225256, Note_off_c, 0, 46, 63
1, 225259, Control_c, 0, 64, 36
1, 225281, Note_off_c, 0, 62, 64
1, 225302, Note_on_c, 0, 74, 84
1, 225311, Control_c, 0, 64, 36
1, 225326, Control_c, 0, 64, 37
1, 225337, Note_off_c, 0, 74, 60
1, 225355, Control_c, 0, 64, 38
1, 225370, Note_on_c, 0, 51, 91
1, 225370, Control_c, 0, 64, 38
1, 225372, Note_on_c, 0, 53, 80
1, 225374, Note_on_c, 0, 69, 92
1, 225385, Control_c, 0, 64, 39
1, 225400, Control_c, 0, 64, 40
1, 225412, Note_off_c, 0, 53, 62
1, 225415, Control_c, 0, 64, 41
1, 225428, Note_off_c, 0, 51, 64
1, 225430, Control_c, 0, 64, 41
1, 225433, Note_off_c, 0, 69, 62
1, 225445, Control_c, 0, 64, 43
1, 225445, Note_on_c, 0, 81, 92
1, 225459, Control_c, 0, 64, 45
1, 225474, Control_c, 0, 64, 47
1, 225489, Control_c, 0, 64, 48
1, 225504, Control_c, 0, 64, 48
1, 225510, Note_off_c, 0, 81, 63
1, 225513, Note_on_c, 0, 53, 92
1, 225514, Note_on_c, 0, 50, 90
1, 225517, Note_on_c, 0, 70, 96
1, 225519, Control_c, 0, 64, 49
1, 225533, Control_c, 0, 64, 49
1, 225540, Note_off_c, 0, 53, 64
1, 225548, Control_c, 0, 64, 50
1, 225561, Note_off_c, 0, 50, 65
1, 225564, Control_c, 0, 64, 51
1, 225567, Note_off_c, 0, 70, 66
1, 225592, Note_on_c, 0, 82, 78
1, 225609, Control_c, 0, 64, 50
1, 225613, Note_off_c, 0, 82, 71
1, 225623, Control_c, 0, 64, 50
1, 225656, Note_on_c, 0, 63, 99
1, 225660, Note_on_c, 0, 43, 85
1, 225660, Note_on_c, 0, 45, 83
1, 225668, Control_c, 0, 64, 50
1, 225683, Control_c, 0, 64, 49
1, 225697, Control_c, 0, 64, 48
1, 225698, Note_off_c, 0, 43, 66
1, 225700, Note_off_c, 0, 45, 65
1, 225712, Control_c, 0, 64, 44
1, 225716, Note_off_c, 0, 63, 63
1, 225725, Note_on_c, 0, 75, 86
1, 225727, Control_c, 0, 64, 38
1, 225742, Control_c, 0, 64, 33
1, 225756, Control_c, 0, 64, 0
1, 225771, Control_c, 0, 64, 32
1, 225780, Note_off_c, 0, 75, 67
1, 225786, Control_c, 0, 64, 34
1, 225790, Note_on_c, 0, 46, 105
1, 225801, Control_c, 0, 64, 36
1, 225808, Note_on_c, 0, 62, 95
1, 225815, Control_c, 0, 64, 39
1, 225830, Control_c, 0, 64, 44
1, 225845, Control_c, 0, 64, 48
1, 225860, Control_c, 0, 64, 50
1, 225862, Note_off_c, 0, 62, 65
1, 225865, Note_on_c, 0, 74, 88
1, 225875, Control_c, 0, 64, 49
1, 225889, Control_c, 0, 64, 49
1, 225906, Note_off_c, 0, 74, 63
1, 225919, Control_c, 0, 64, 49
1, 225934, Control_c, 0, 64, 51
1, 225949, Control_c, 0, 64, 54
1, 225963, Note_on_c, 0, 69, 86
1, 225963, Note_on_c, 0, 71, 86
1, 225963, Control_c, 0, 64, 55
1, 225978, Control_c, 0, 64, 55
1, 225993, Control_c, 0, 64, 56
1, 226008, Control_c, 0, 64, 58
1, 226017, Note_off_c, 0, 71, 65
1, 226018, Note_off_c, 0, 69, 63
1, 226023, Control_c, 0, 64, 60
1, 226032, Note_on_c, 0, 81, 89
1, 226045, Control_c, 0, 64, 62
1, 226060, Control_c, 0, 64, 64
1, 226075, Control_c, 0, 64, 65
1, 226090, Control_c, 0, 64, 64
1, 226104, Control_c, 0, 64, 59
1, 226119, Control_c, 0, 64, 46
1, 226134, Control_c, 0, 64, 0
1, 226137, Note_on_c, 0, 70, 105
1, 226148, Note_off_c, 0, 81, 59
1, 226208, Control_c, 0, 64, 48
1, 226219, Note_off_c, 0, 70, 61
1, 226223, Control_c, 0, 64, 62
1, 226225, Note_on_c, 0, 82, 97
1, 226238, Control_c, 0, 64, 67
1, 226252, Control_c, 0, 64, 69
1, 226277, Note_off_c, 0, 82, 69
1, 226311, Note_on_c, 0, 69, 89
1, 226341, Control_c, 0, 64, 68
1, 226356, Control_c, 0, 64, 68
1, 226363, Note_off_c, 0, 69, 64
1, 226372, Control_c, 0, 64, 67
1, 226375, Note_on_c, 0, 81, 90
1, 226387, Control_c, 0, 64, 65
1, 226401, Control_c, 0, 64, 62
1, 226416, Control_c, 0, 64, 58
1, 226420, Note_off_c, 0, 46, 66
1, 226425, Note_off_c, 0, 81, 65
1, 226431, Control_c, 0, 64, 52
1, 226446, Control_c, 0, 64, 43
1, 226449, Note_on_c, 0, 67, 92
1, 226453, Note_on_c, 0, 43, 92
1, 226461, Control_c, 0, 64, 0
1, 226500, Note_off_c, 0, 67, 65
1, 226518, Note_on_c, 0, 79, 94
1, 226567, Note_off_c, 0, 79, 67
1, 226586, Note_on_c, 0, 65, 94
1, 226636, Note_off_c, 0, 65, 66
1, 226664, Note_on_c, 0, 77, 91
1, 226697, Note_off_c, 0, 77, 69
1, 226720, Note_on_c, 0, 63, 97
1, 226775, Note_off_c, 0, 63, 63
1, 226795, Note_on_c, 0, 75, 82
1, 226846, Note_off_c, 0, 75, 67
1, 226869, Note_on_c, 0, 62, 92
1, 226926, Note_off_c, 0, 62, 62
1, 226930, Note_on_c, 0, 74, 91
1, 226986, Note_off_c, 0, 74, 66
1, 227003, Note_on_c, 0, 39, 96
1, 227013, Note_off_c, 0, 43, 63
1, 227014, Note_on_c, 0, 60, 92
1, 227057, Note_off_c, 0, 60, 67
1, 227086, Note_on_c, 0, 72, 84
1, 227130, Note_off_c, 0, 72, 69
1, 227144, Note_on_c, 0, 58, 94
1, 227204, Note_off_c, 0, 58, 58
1, 227219, Note_on_c, 0, 70, 69
1, 227266, Note_off_c, 0, 70, 67
1, 227292, Note_on_c, 0, 57, 91
1, 227345, Note_off_c, 0, 57, 65
1, 227355, Note_on_c, 0, 69, 82
1, 227387, Control_c, 0, 64, 32
1, 227402, Control_c, 0, 64, 35
1, 227403, Note_off_c, 0, 69, 65
1, 227417, Control_c, 0, 64, 37
1, 227430, Note_on_c, 0, 55, 90
1, 227432, Control_c, 0, 64, 39
1, 227447, Control_c, 0, 64, 42
1, 227461, Control_c, 0, 64, 43
1, 227476, Note_off_c, 0, 55, 64
1, 227501, Note_on_c, 0, 67, 87
1, 227553, Note_off_c, 0, 67, 67
1, 227564, Note_off_c, 0, 39, 64
1, 227567, Note_on_c, 0, 41, 88
1, 227578, Note_on_c, 0, 53, 87
1, 227588, Control_c, 0, 64, 43
1, 227624, Note_off_c, 0, 53, 63
1, 227633, Control_c, 0, 64, 43
1, 227647, Control_c, 0, 64, 42
1, 227648, Note_on_c, 0, 65, 88
1, 227662, Control_c, 0, 64, 42
1, 227677, Control_c, 0, 64, 41
1, 227690, Note_off_c, 0, 65, 66
1, 227711, Note_on_c, 0, 51, 93
1, 227751, Control_c, 0, 64, 42
1, 227766, Control_c, 0, 64, 42
1, 227769, Note_off_c, 0, 51, 60
1, 227781, Note_on_c, 0, 63, 73
1, 227810, Control_c, 0, 64, 41
1, 227821, Note_off_c, 0, 63, 66
1, 227825, Control_c, 0, 64, 41
1, 227840, Control_c, 0, 64, 40
1, 227847, Note_on_c, 0, 50, 86
1, 227903, Note_off_c, 0, 50, 64
1, 227910, Note_on_c, 0, 62, 89
1, 227928, Control_c, 0, 64, 39
1, 227960, Note_off_c, 0, 62, 64
1, 227992, Note_on_c, 0, 48, 85
1, 228004, Control_c, 0, 64, 40
1, 228043, Note_off_c, 0, 48, 58
1, 228044, Note_on_c, 0, 60, 86
1, 228048, Control_c, 0, 64, 37
1, 228063, Control_c, 0, 64, 0
1, 228076, Note_off_c, 0, 60, 67
1, 228130, Note_on_c, 0, 34, 86
1, 228134, Note_on_c, 0, 58, 98
1, 228136, Note_off_c, 0, 41, 64
1, 228137, Note_on_c, 0, 46, 93
1, 228165, Note_off_c, 0, 46, 62
1, 228166, Control_c, 0, 64, 46
1, 228178, Note_off_c, 0, 34, 61
1, 228181, Control_c, 0, 64, 62
1, 228196, Control_c, 0, 64, 67
1, 228211, Control_c, 0, 64, 71
1, 228226, Control_c, 0, 64, 75
1, 228241, Control_c, 0, 64, 77
1, 228247, Note_off_c, 0, 58, 59
1, 228270, Control_c, 0, 67, 17
1, 228306, Control_c, 0, 64, 76
1, 228306, Control_c, 0, 67, 22
1, 228321, Control_c, 0, 64, 71
1, 228321, Control_c, 0, 67, 26
1, 228336, Control_c, 0, 64, 59
1, 228336, Control_c, 0, 67, 31
1, 228351, Control_c, 0, 64, 0
1, 228351, Control_c, 0, 67, 38
1, 228366, Control_c, 0, 67, 47
1, 228381, Control_c, 0, 67, 60
1, 228396, Control_c, 0, 67, 74
1, 228398, Note_on_c, 0, 57, 71
1, 228410, Control_c, 0, 67, 89
1, 228425, Note_on_c, 0, 51, 53
1, 228425, Control_c, 0, 67, 99
1, 228440, Control_c, 0, 67, 106
1, 228442, Note_off_c, 0, 57, 63
1, 228455, Control_c, 0, 67, 110
1, 228485, Note_on_c, 0, 53, 44
1, 228485, Control_c, 0, 67, 114
1, 228499, Control_c, 0, 67, 118
1, 228513, Note_off_c, 0, 51, 57
1, 228514, Control_c, 0, 67, 122
1, 228524, Note_off_c, 0, 53, 53
1, 228529, Control_c, 0, 67, 127
1, 228536, Note_on_c, 0, 58, 66
1, 228547, Note_on_c, 0, 50, 54
1, 228579, Note_off_c, 0, 58, 63
1, 228607, Note_on_c, 0, 53, 71
1, 228649, Note_off_c, 0, 53, 62
1, 228660, Note_off_c, 0, 50, 54
1, 228673, Note_on_c, 0, 63, 77
1, 228676, Note_on_c, 0, 45, 53
1, 228715, Note_off_c, 0, 63, 67
1, 228759, Note_on_c, 0, 53, 61
1, 228794, Note_off_c, 0, 45, 63
1, 228797, Note_off_c, 0, 53, 62
1, 228819, Note_on_c, 0, 46, 50
1, 228819, Note_on_c, 0, 62, 69
1, 228861, Note_off_c, 0, 62, 61
1, 228900, Note_on_c, 0, 53, 58
1, 228949, Note_off_c, 0, 46, 58
1, 228953, Note_off_c, 0, 53, 61
1, 228955, Note_on_c, 0, 57, 66
1, 228964, Note_on_c, 0, 51, 50
1, 228990, Note_off_c, 0, 57, 61
1, 229042, Note_on_c, 0, 53, 62
1, 229084, Note_off_c, 0, 51, 60
1, 229093, Note_off_c, 0, 53, 57
1, 229105, Note_on_c, 0, 50, 60
1, 229113, Note_on_c, 0, 58, 61
1, 229148, Note_off_c, 0, 58, 63
1, 229182, Note_on_c, 0, 53, 66
1, 229224, Note_off_c, 0, 53, 62
1, 229233, Note_off_c, 0, 50, 54
1, 229248, Note_on_c, 0, 45, 61
1, 229249, Note_on_c, 0, 63, 74
1, 229278, Note_off_c, 0, 63, 66
1, 229327, Note_on_c, 0, 53, 68
1, 229367, Note_off_c, 0, 53, 60
1, 229373, Note_off_c, 0, 45, 60
1, 229391, Note_on_c, 0, 46, 63
1, 229403, Note_on_c, 0, 62, 69
1, 229463, Note_off_c, 0, 62, 41
1, 229469, Note_on_c, 0, 53, 70
1, 229523, Note_off_c, 0, 46, 58
1, 229528, Note_off_c, 0, 53, 58
1, 229538, Note_on_c, 0, 51, 56
1, 229551, Note_on_c, 0, 57, 53
1, 229577, Note_off_c, 0, 57, 56
1, 229612, Note_on_c, 0, 53, 66
1, 229654, Note_off_c, 0, 51, 60
1, 229669, Note_off_c, 0, 53, 59
1, 229680, Note_on_c, 0, 50, 53
1, 229687, Note_on_c, 0, 58, 58
1, 229725, Note_off_c, 0, 58, 63
1, 229761, Note_on_c, 0, 53, 53
1, 229806, Note_off_c, 0, 53, 60
1, 229808, Note_off_c, 0, 50, 37
1, 229829, Note_on_c, 0, 45, 46
1, 229830, Note_on_c, 0, 63, 66
1, 229868, Note_off_c, 0, 63, 57
1, 229894, Note_on_c, 0, 53, 60
1, 229931, Note_off_c, 0, 45, 59
1, 229964, Note_off_c, 0, 53, 51
1, 229971, Note_on_c, 0, 46, 48
1, 229987, Note_on_c, 0, 62, 62
1, 229996, Control_c, 0, 64, 51
1, 230011, Control_c, 0, 64, 59
1, 230026, Control_c, 0, 64, 61
1, 230041, Control_c, 0, 64, 63
1, 230056, Control_c, 0, 64, 63
1, 230092, Note_off_c, 0, 62, 61
1, 230130, Control_c, 0, 64, 63
1, 230134, Note_off_c, 0, 46, 62
1, 230145, Control_c, 0, 64, 62
1, 230149, Note_on_c, 0, 54, 61
1, 230160, Control_c, 0, 64, 61
1, 230163, Note_on_c, 0, 48, 53
1, 230175, Control_c, 0, 64, 60
1, 230189, Control_c, 0, 64, 59
1, 230204, Control_c, 0, 64, 58
1, 230214, Note_off_c, 0, 54, 61
1, 230219, Control_c, 0, 64, 56
1, 230220, Note_on_c, 0, 66, 68
1, 230234, Control_c, 0, 64, 56
1, 230249, Control_c, 0, 64, 55
1, 230272, Note_off_c, 0, 66, 63
1, 230278, Control_c, 0, 64, 54
1, 230292, Note_on_c, 0, 55, 72
1, 230293, Control_c, 0, 64, 54
1, 230300, Note_on_c, 0, 46, 67
1, 230301, Note_off_c, 0, 48, 54
1, 230307, Control_c, 0, 64, 53
1, 230333, Note_off_c, 0, 55, 56
1, 230350, Note_on_c, 0, 67, 79
1, 230398, Note_off_c, 0, 67, 66
1, 230427, Control_c, 0, 64, 53
1, 230432, Note_on_c, 0, 57, 81
1, 230435, Note_on_c, 0, 45, 75
1, 230442, Control_c, 0, 64, 54
1, 230450, Note_off_c, 0, 46, 55
1, 230479, Note_off_c, 0, 57, 63
1, 230486, Control_c, 0, 64, 54
1, 230491, Note_on_c, 0, 69, 82
1, 230501, Control_c, 0, 64, 55
1, 230537, Control_c, 0, 67, 119
1, 230551, Note_off_c, 0, 69, 63
1, 230552, Control_c, 0, 67, 110
1, 230566, Note_off_c, 0, 45, 63
1, 230567, Control_c, 0, 67, 101
1, 230569, Note_on_c, 0, 58, 87
1, 230572, Note_on_c, 0, 43, 80
1, 230582, Control_c, 0, 64, 54
1, 230582, Control_c, 0, 67, 92
1, 230597, Control_c, 0, 67, 81
1, 230611, Control_c, 0, 64, 54
1, 230611, Control_c, 0, 67, 68
1, 230626, Control_c, 0, 67, 47
1, 230631, Note_on_c, 0, 70, 85
1, 230640, Note_off_c, 0, 58, 62
1, 230641, Control_c, 0, 64, 53
1, 230641, Control_c, 0, 67, 24
1, 230656, Control_c, 0, 64, 53
1, 230656, Control_c, 0, 67, 0
1, 230671, Control_c, 0, 64, 52
1, 230685, Control_c, 0, 64, 50
1, 230691, Note_off_c, 0, 70, 64
1, 230700, Control_c, 0, 64, 49
1, 230706, Note_on_c, 0, 41, 91
1, 230706, Note_on_c, 0, 59, 89
1, 230715, Control_c, 0, 64, 49
1, 230729, Note_off_c, 0, 43, 62
1, 230730, Control_c, 0, 64, 48
1, 230745, Control_c, 0, 64, 48
1, 230760, Control_c, 0, 64, 47
1, 230760, Note_off_c, 0, 59, 65
1, 230768, Note_on_c, 0, 71, 94
1, 230774, Control_c, 0, 64, 47
1, 230824, Note_off_c, 0, 71, 65
1, 230841, Note_on_c, 0, 60, 96
1, 230853, Note_on_c, 0, 39, 90
1, 230863, Note_off_c, 0, 41, 62
1, 230878, Control_c, 0, 64, 47
1, 230893, Note_off_c, 0, 60, 67
1, 230908, Control_c, 0, 64, 48
1, 230913, Note_on_c, 0, 72, 90
1, 230937, Control_c, 0, 64, 48
1, 230959, Note_off_c, 0, 72, 66
1, 230979, Note_on_c, 0, 62, 95
1, 230992, Note_on_c, 0, 38, 93
1, 230997, Control_c, 0, 64, 49
1, 231028, Note_off_c, 0, 39, 64
1, 231034, Note_off_c, 0, 62, 66
1, 231062, Note_on_c, 0, 74, 93
1, 231100, Control_c, 0, 64, 49
1, 231102, Note_off_c, 0, 74, 63
1, 231117, Note_on_c, 0, 63, 94
1, 231125, Note_on_c, 0, 36, 95
1, 231141, Note_off_c, 0, 38, 60
1, 231175, Control_c, 0, 64, 50
1, 231185, Note_off_c, 0, 63, 65
1, 231192, Note_on_c, 0, 75, 91
1, 231220, Control_c, 0, 64, 50
1, 231249, Note_off_c, 0, 75, 64
1, 231249, Control_c, 0, 64, 50
1, 231258, Note_on_c, 0, 65, 100
1, 231326, Note_off_c, 0, 65, 63
1, 231332, Note_on_c, 0, 77, 97
1, 231346, Control_c, 0, 64, 49
1, 231375, Control_c, 0, 64, 50
1, 231385, Note_off_c, 0, 77, 66
1, 231398, Note_on_c, 0, 67, 96
1, 231434, Control_c, 0, 64, 50
1, 231449, Control_c, 0, 64, 51
1, 231457, Note_off_c, 0, 67, 66
1, 231473, Note_on_c, 0, 81, 88
1, 231475, Note_on_c, 0, 79, 85
1, 231478, Control_c, 0, 64, 51
1, 231507, Note_off_c, 0, 81, 66
1, 231525, Note_off_c, 0, 79, 67
1, 231538, Control_c, 0, 64, 52
1, 231547, Note_on_c, 0, 65, 93
1, 231553, Control_c, 0, 64, 52
1, 231591, Note_off_c, 0, 65, 67
1, 231624, Note_on_c, 0, 77, 86
1, 231642, Control_c, 0, 64, 52
1, 231656, Note_off_c, 0, 77, 67
1, 231678, Note_on_c, 0, 63, 95
1, 231701, Control_c, 0, 64, 52
1, 231731, Control_c, 0, 64, 53
1, 231743, Note_on_c, 0, 75, 74
1, 231755, Note_off_c, 0, 63, 61
1, 231775, Control_c, 0, 64, 53
1, 231792, Note_off_c, 0, 75, 67
1, 231815, Note_on_c, 0, 62, 86
1, 231820, Control_c, 0, 64, 53
1, 231834, Control_c, 0, 64, 52
1, 231849, Control_c, 0, 64, 51
1, 231864, Control_c, 0, 64, 48
1, 231871, Note_off_c, 0, 62, 62
1, 231873, Note_on_c, 0, 74, 89
1, 231878, Control_c, 0, 64, 46
1, 231893, Control_c, 0, 64, 45
1, 231923, Control_c, 0, 64, 45
1, 231927, Note_off_c, 0, 74, 66
1, 231938, Control_c, 0, 64, 46
1, 231954, Control_c, 0, 64, 47
1, 231967, Note_on_c, 0, 60, 87
1, 231969, Control_c, 0, 64, 49
1, 231983, Control_c, 0, 64, 52
1, 231998, Control_c, 0, 64, 53
1, 232013, Note_off_c, 0, 60, 65
1, 232013, Control_c, 0, 64, 54
1, 232035, Control_c, 0, 64, 54
1, 232037, Note_on_c, 0, 72, 85
1, 232050, Control_c, 0, 64, 55
1, 232065, Control_c, 0, 64, 56
1, 232079, Note_off_c, 0, 72, 69
1, 232080, Control_c, 0, 64, 57
1, 232095, Control_c, 0, 64, 58
1, 232107, Note_on_c, 0, 58, 92
1, 232109, Control_c, 0, 64, 59
1, 232124, Control_c, 0, 64, 60
1, 232139, Control_c, 0, 64, 60
1, 232154, Control_c, 0, 64, 61
1, 232163, Note_on_c, 0, 70, 87
1, 232172, Note_off_c, 0, 58, 61
1, 232198, Control_c, 0, 64, 60
1, 232213, Control_c, 0, 64, 59
1, 232218, Note_off_c, 0, 36, 63
1, 232219, Note_off_c, 0, 70, 64
1, 232228, Control_c, 0, 64, 57
1, 232239, Note_on_c, 0, 41, 94
1, 232241, Note_on_c, 0, 29, 90
1, 232243, Control_c, 0, 64, 55
1, 232247, Note_on_c, 0, 57, 94
1, 232257, Control_c, 0, 64, 54
1, 232272, Control_c, 0, 64, 53
1, 232287, Control_c, 0, 64, 54
1, 232301, Note_off_c, 0, 57, 64
1, 232308, Note_on_c, 0, 69, 89
1, 232331, Control_c, 0, 64, 53
1, 232366, Note_off_c, 0, 69, 64
1, 232382, Note_on_c, 0, 55, 89
1, 232405, Control_c, 0, 64, 54
1, 232435, Note_off_c, 0, 55, 64
1, 232453, Note_on_c, 0, 67, 94
1, 232465, Control_c, 0, 64, 54
1, 232480, Control_c, 0, 64, 55
1, 232494, Control_c, 0, 64, 54
1, 232503, Note_off_c, 0, 67, 65
1, 232509, Control_c, 0, 64, 49
1, 232524, Control_c, 0, 64, 35
1, 232535, Note_on_c, 0, 53, 88
1, 232539, Control_c, 0, 64, 0
1, 232587, Note_off_c, 0, 53, 63
1, 232596, Note_on_c, 0, 65, 86
1, 232613, Control_c, 0, 64, 44
1, 232628, Control_c, 0, 64, 55
1, 232632, Note_off_c, 0, 65, 64
1, 232643, Control_c, 0, 64, 61
1, 232657, Control_c, 0, 64, 63
1, 232672, Control_c, 0, 64, 65
1, 232677, Note_on_c, 0, 57, 83
1, 232687, Control_c, 0, 64, 66
1, 232690, Note_off_c, 0, 29, 62
1, 232700, Note_on_c, 0, 59, 55
1, 232700, Note_off_c, 0, 59, 127
1, 232701, Control_c, 0, 64, 67
1, 232709, Note_off_c, 0, 41, 63
1, 232716, Control_c, 0, 64, 69
1, 232724, Note_on_c, 0, 69, 87
1, 232731, Note_off_c, 0, 57, 65
1, 232731, Control_c, 0, 64, 72
1, 232747, Control_c, 0, 64, 77
1, 232762, Control_c, 0, 64, 82
1, 232778, Note_off_c, 0, 69, 63
1, 232785, Control_c, 0, 64, 85
1, 232800, Control_c, 0, 64, 84
1, 232814, Control_c, 0, 64, 73
1, 232828, Note_on_c, 0, 70, 93
1, 232829, Control_c, 0, 64, 56
1, 232831, Note_on_c, 0, 34, 84
1, 232834, Note_on_c, 0, 58, 73
1, 232844, Control_c, 0, 64, 0
1, 232878, Note_off_c, 0, 34, 65
1, 232899, Note_on_c, 0, 46, 80
1, 232953, Note_off_c, 0, 46, 60
1, 232978, Note_on_c, 0, 34, 71
1, 233007, Control_c, 0, 64, 40
1, 233022, Control_c, 0, 64, 47
1, 233036, Note_off_c, 0, 34, 62
1, 233037, Control_c, 0, 64, 55
1, 233052, Note_on_c, 0, 46, 67
1, 233052, Control_c, 0, 64, 62
1, 233067, Control_c, 0, 64, 65
1, 233081, Control_c, 0, 64, 68
1, 233096, Control_c, 0, 64, 70
1, 233108, Note_off_c, 0, 46, 62
1, 233111, Control_c, 0, 64, 74
1, 233123, Note_off_c, 0, 58, 64
1, 233139, Note_off_c, 0, 70, 64
1, 233140, Control_c, 0, 64, 67
1, 233140, Control_c, 0, 67, 21
1, 233142, Note_on_c, 0, 34, 68
1, 233155, Control_c, 0, 64, 48
1, 233155, Control_c, 0, 67, 27
1, 233170, Control_c, 0, 64, 0
1, 233170, Control_c, 0, 67, 31
1, 233185, Control_c, 0, 67, 36
1, 233189, Note_off_c, 0, 34, 64
1, 233199, Control_c, 0, 67, 42
1, 233214, Control_c, 0, 67, 48
1, 233219, Note_on_c, 0, 46, 60
1, 233229, Control_c, 0, 67, 54
1, 233244, Control_c, 0, 67, 60
1, 233258, Control_c, 0, 67, 64
1, 233268, Note_off_c, 0, 46, 62
1, 233273, Control_c, 0, 67, 66
1, 233288, Control_c, 0, 67, 67
1, 233303, Control_c, 0, 67, 68
1, 233312, Note_on_c, 0, 34, 44
1, 233317, Control_c, 0, 67, 69
1, 233332, Control_c, 0, 67, 74
1, 233345, Note_off_c, 0, 34, 55
1, 233347, Control_c, 0, 67, 83
1, 233362, Control_c, 0, 67, 93
1, 233366, Note_on_c, 0, 46, 55
1, 233377, Control_c, 0, 67, 102
1, 233392, Control_c, 0, 67, 109
1, 233407, Control_c, 0, 67, 113
1, 233424, Note_off_c, 0, 46, 60
1, 233446, Note_on_c, 0, 62, 63
1, 233447, Note_on_c, 0, 65, 65
1, 233457, Note_on_c, 0, 34, 45
1, 233504, Note_off_c, 0, 34, 59
1, 233544, Note_on_c, 0, 46, 51
1, 233586, Note_off_c, 0, 46, 62
1, 233628, Note_on_c, 0, 34, 52
1, 233669, Note_off_c, 0, 34, 62
1, 233695, Note_on_c, 0, 46, 55
1, 233747, Note_off_c, 0, 46, 60
1, 233785, Control_c, 0, 64, 35
1, 233791, Note_on_c, 0, 34, 52
1, 233800, Control_c, 0, 64, 41
1, 233800, Control_c, 0, 67, 111
1, 233815, Control_c, 0, 64, 47
1, 233830, Note_off_c, 0, 34, 62
1, 233830, Control_c, 0, 64, 51
1, 233845, Control_c, 0, 64, 54
1, 233854, Note_on_c, 0, 46, 60
1, 233860, Control_c, 0, 64, 56
1, 233867, Note_off_c, 0, 65, 62
1, 233889, Control_c, 0, 64, 56
1, 233904, Control_c, 0, 64, 57
1, 233904, Note_on_c, 0, 58, 72
1, 233906, Note_off_c, 0, 46, 57
1, 233919, Control_c, 0, 64, 57
1, 233928, Note_off_c, 0, 62, 62
1, 233934, Control_c, 0, 64, 58
1, 233940, Note_on_c, 0, 34, 57
1, 233948, Control_c, 0, 64, 58
1, 233963, Control_c, 0, 64, 59
1, 233982, Note_off_c, 0, 34, 63
1, 234019, Note_on_c, 0, 46, 59
1, 234022, Control_c, 0, 64, 58
1, 234037, Control_c, 0, 64, 57
1, 234052, Control_c, 0, 64, 55
1, 234062, Note_off_c, 0, 46, 61
1, 234067, Control_c, 0, 64, 53
1, 234074, Note_on_c, 0, 63, 70
1, 234076, Note_on_c, 0, 66, 70
1, 234081, Control_c, 0, 64, 52
1, 234096, Control_c, 0, 64, 52
1, 234100, Note_on_c, 0, 34, 55
1, 234111, Control_c, 0, 64, 51
1, 234122, Note_off_c, 0, 58, 58
1, 234126, Control_c, 0, 64, 50
1, 234141, Note_off_c, 0, 34, 63
1, 234141, Control_c, 0, 64, 50
1, 234155, Control_c, 0, 64, 49
1, 234165, Note_on_c, 0, 46, 57
1, 234170, Control_c, 0, 64, 49
1, 234185, Control_c, 0, 64, 48
1, 234200, Control_c, 0, 64, 48
1, 234215, Control_c, 0, 64, 47
1, 234218, Note_off_c, 0, 46, 56
1, 234229, Control_c, 0, 64, 46
1, 234250, Note_on_c, 0, 34, 58
1, 234298, Note_off_c, 0, 34, 63
1, 234326, Control_c, 0, 64, 45
1, 234330, Note_on_c, 0, 46, 54
1, 234370, Note_off_c, 0, 46, 61
1, 234405, Note_on_c, 0, 34, 57
1, 234431, Control_c, 0, 64, 46
1, 234446, Control_c, 0, 64, 47
1, 234447, Note_off_c, 0, 34, 63
1, 234460, Control_c, 0, 64, 49
1, 234466, Note_on_c, 0, 46, 57
1, 234475, Control_c, 0, 64, 51
1, 234490, Control_c, 0, 64, 53
1, 234504, Control_c, 0, 64, 56
1, 234519, Control_c, 0, 64, 57
1, 234524, Note_off_c, 0, 46, 54
1, 234534, Control_c, 0, 64, 59
1, 234544, Note_on_c, 0, 61, 77
1, 234549, Control_c, 0, 64, 60
1, 234554, Note_on_c, 0, 34, 60
1, 234564, Control_c, 0, 64, 61
1, 234578, Control_c, 0, 64, 62
1, 234590, Note_off_c, 0, 66, 58
1, 234593, Control_c, 0, 64, 63
1, 234601, Note_off_c, 0, 34, 63
1, 234608, Control_c, 0, 64, 63
1, 234642, Note_on_c, 0, 46, 56
1, 234644, Note_off_c, 0, 63, 55
1, 234653, Control_c, 0, 64, 62
1, 234668, Control_c, 0, 64, 59
1, 234675, Note_off_c, 0, 61, 53
1, 234682, Control_c, 0, 64, 56
1, 234696, Note_off_c, 0, 46, 51
1, 234697, Control_c, 0, 64, 51
1, 234699, Note_on_c, 0, 59, 77
1, 234708, Note_on_c, 0, 66, 69
1, 234712, Control_c, 0, 64, 48
1, 234717, Note_on_c, 0, 34, 61
1, 234719, Note_on_c, 0, 63, 42
1, 234727, Control_c, 0, 64, 47
1, 234742, Control_c, 0, 64, 47
1, 234757, Control_c, 0, 64, 48
1, 234766, Note_off_c, 0, 34, 60
1, 234771, Control_c, 0, 64, 49
1, 234786, Control_c, 0, 64, 50
1, 234801, Control_c, 0, 64, 51
1, 234810, Note_on_c, 0, 46, 52
1, 234816, Control_c, 0, 64, 53
1, 234831, Control_c, 0, 64, 55
1, 234846, Control_c, 0, 64, 57
1, 234859, Note_on_c, 0, 58, 75
1, 234860, Control_c, 0, 64, 59
1, 234861, Note_off_c, 0, 66, 51
1, 234861, Note_off_c, 0, 46, 56
1, 234862, Note_off_c, 0, 59, 62
1, 234872, Note_on_c, 0, 34, 59
1, 234875, Control_c, 0, 64, 59
1, 234892, Note_off_c, 0, 63, 27
1, 234921, Note_off_c, 0, 34, 61
1, 234934, Control_c, 0, 64, 57
1, 234949, Control_c, 0, 64, 53
1, 234959, Note_on_c, 0, 46, 59
1, 234964, Control_c, 0, 64, 45
1, 234964, Control_c, 0, 67, 113
1, 234978, Control_c, 0, 64, 39
1, 234993, Control_c, 0, 64, 36
1, 235006, Note_off_c, 0, 46, 58
1, 235008, Control_c, 0, 67, 115
1, 235027, Note_off_c, 0, 58, 58
1, 235028, Note_on_c, 0, 59, 53
1, 235029, Control_c, 0, 64, 38
1, 235031, Note_on_c, 0, 66, 60
1, 235034, Note_on_c, 0, 63, 52
1, 235044, Control_c, 0, 64, 41
1, 235049, Note_on_c, 0, 34, 53
1, 235059, Control_c, 0, 64, 46
1, 235074, Control_c, 0, 64, 50
1, 235074, Control_c, 0, 67, 117
1, 235089, Control_c, 0, 64, 53
1, 235097, Note_off_c, 0, 34, 58
1, 235103, Control_c, 0, 64, 54
1, 235124, Note_on_c, 0, 46, 55
1, 235154, Note_off_c, 0, 66, 57
1, 235173, Note_off_c, 0, 46, 58
1, 235179, Control_c, 0, 64, 53
1, 235189, Note_on_c, 0, 57, 65
1, 235194, Control_c, 0, 64, 53
1, 235197, Note_off_c, 0, 59, 60
1, 235203, Note_on_c, 0, 34, 59
1, 235208, Control_c, 0, 64, 52
1, 235220, Note_off_c, 0, 63, 35
1, 235223, Control_c, 0, 64, 51
1, 235238, Control_c, 0, 64, 50
1, 235251, Note_off_c, 0, 34, 59
1, 235253, Control_c, 0, 64, 49
1, 235267, Control_c, 0, 64, 47
1, 235282, Control_c, 0, 64, 45
1, 235284, Note_on_c, 0, 46, 50
1, 235297, Control_c, 0, 64, 43
1, 235312, Control_c, 0, 64, 41
1, 235325, Note_off_c, 0, 46, 61
1, 235326, Control_c, 0, 64, 39
1, 235331, Note_off_c, 0, 57, 57
1, 235341, Control_c, 0, 64, 37
1, 235350, Note_on_c, 0, 65, 62
1, 235353, Note_on_c, 0, 62, 55
1, 235356, Control_c, 0, 64, 35
1, 235366, Note_on_c, 0, 34, 53
1, 235366, Note_on_c, 0, 58, 41
1, 235371, Control_c, 0, 64, 34
1, 235386, Control_c, 0, 64, 0
1, 235404, Note_off_c, 0, 34, 61
1, 235428, Note_on_c, 0, 46, 53
1, 235475, Control_c, 0, 67, 119
1, 235476, Note_off_c, 0, 46, 59
1, 235515, Note_on_c, 0, 34, 50
1, 235534, Control_c, 0, 67, 121
1, 235553, Note_off_c, 0, 34, 61
1, 235564, Control_c, 0, 64, 32
1, 235579, Control_c, 0, 64, 36
1, 235583, Note_on_c, 0, 46, 56
1, 235593, Control_c, 0, 64, 43
1, 235608, Control_c, 0, 64, 51
1, 235623, Control_c, 0, 64, 57
1, 235626, Note_off_c, 0, 46, 61
1, 235638, Control_c, 0, 64, 60
1, 235652, Control_c, 0, 64, 61
1, 235663, Note_on_c, 0, 34, 49
1, 235667, Control_c, 0, 64, 62
1, 235682, Control_c, 0, 64, 63
1, 235697, Control_c, 0, 64, 63
1, 235701, Note_off_c, 0, 34, 61
1, 235702, Note_off_c, 0, 62, 61
1, 235708, Note_off_c, 0, 58, 63
1, 235712, Control_c, 0, 64, 64
1, 235723, Note_off_c, 0, 65, 65
1, 235726, Control_c, 0, 64, 64
1, 235732, Note_on_c, 0, 46, 53
1, 235783, Note_off_c, 0, 46, 62
1, 235817, Note_on_c, 0, 34, 52
1, 235824, Control_c, 0, 64, 65
1, 235862, Note_off_c, 0, 34, 59
1, 235893, Note_on_c, 0, 46, 46
1, 235941, Note_off_c, 0, 46, 59
1, 235942, Control_c, 0, 64, 64
1, 235958, Control_c, 0, 64, 61
1, 235973, Control_c, 0, 64, 56
1, 235979, Note_on_c, 0, 34, 50
1, 235986, Note_on_c, 0, 74, 64
1, 235988, Control_c, 0, 64, 48
1, 236000, Note_on_c, 0, 65, 46
1, 236003, Control_c, 0, 64, 41
1, 236003, Note_on_c, 0, 62, 44
1, 236018, Control_c, 0, 64, 34
1, 236027, Note_off_c, 0, 34, 59
1, 236032, Control_c, 0, 64, 0
1, 236043, Note_off_c, 0, 65, 0
1, 236043, Note_on_c, 0, 65, 16
1, 236062, Control_c, 0, 64, 34
1, 236063, Note_on_c, 0, 46, 45
1, 236076, Control_c, 0, 64, 38
1, 236091, Control_c, 0, 64, 45
1, 236106, Control_c, 0, 64, 52
1, 236108, Note_off_c, 0, 46, 53
1, 236121, Control_c, 0, 64, 58
1, 236136, Control_c, 0, 64, 60
1, 236137, Note_on_c, 0, 34, 51
1, 236150, Control_c, 0, 64, 61
1, 236165, Control_c, 0, 64, 61
1, 236180, Control_c, 0, 64, 62
1, 236181, Note_off_c, 0, 34, 59
1, 236195, Control_c, 0, 64, 63
1, 236210, Control_c, 0, 64, 63
1, 236217, Note_on_c, 0, 46, 48
1, 236224, Control_c, 0, 64, 64
1, 236239, Control_c, 0, 64, 64
1, 236253, Note_off_c, 0, 46, 55
1, 236254, Control_c, 0, 64, 65
1, 236268, Control_c, 0, 64, 65
1, 236286, Note_on_c, 0, 34, 53
1, 236298, Control_c, 0, 64, 66
1, 236313, Control_c, 0, 67, 119
1, 236333, Note_off_c, 0, 34, 60
1, 236343, Control_c, 0, 64, 66
1, 236359, Note_on_c, 0, 46, 48
1, 236415, Note_off_c, 0, 46, 56
1, 236432, Control_c, 0, 64, 67
1, 236441, Note_on_c, 0, 34, 57
1, 236453, Note_off_c, 0, 74, 61
1, 236467, Note_on_c, 0, 70, 73
1, 236476, Control_c, 0, 64, 67
1, 236490, Note_off_c, 0, 62, 48
1, 236496, Note_off_c, 0, 34, 60
1, 236510, Note_off_c, 0, 65, 58
1, 236528, Control_c, 0, 64, 68
1, 236543, Note_on_c, 0, 46, 49
1, 236590, Note_off_c, 0, 46, 60
1, 236617, Control_c, 0, 64, 67
1, 236628, Note_on_c, 0, 34, 52
1, 236632, Control_c, 0, 64, 65
1, 236642, Note_on_c, 0, 75, 71
1, 236647, Control_c, 0, 64, 61
1, 236648, Note_on_c, 0, 66, 57
1, 236652, Note_on_c, 0, 63, 58
1, 236662, Control_c, 0, 64, 56
1, 236668, Note_off_c, 0, 70, 49
1, 236675, Note_off_c, 0, 34, 60
1, 236676, Control_c, 0, 64, 51
1, 236691, Control_c, 0, 64, 48
1, 236705, Note_on_c, 0, 46, 50
1, 236706, Control_c, 0, 64, 46
1, 236721, Control_c, 0, 64, 46
1, 236755, Note_off_c, 0, 46, 59
1, 236787, Note_on_c, 0, 34, 56
1, 236826, Control_c, 0, 64, 46
1, 236835, Note_off_c, 0, 34, 59
1, 236855, Control_c, 0, 64, 47
1, 236865, Note_on_c, 0, 46, 50
1, 236911, Note_off_c, 0, 46, 58
1, 236914, Control_c, 0, 64, 47
1, 236940, Note_on_c, 0, 34, 56
1, 236944, Control_c, 0, 64, 48
1, 236986, Note_off_c, 0, 34, 60
1, 236988, Control_c, 0, 64, 48
1, 237003, Control_c, 0, 64, 49
1, 237018, Control_c, 0, 64, 51
1, 237019, Note_on_c, 0, 46, 52
1, 237032, Control_c, 0, 64, 55
1, 237047, Control_c, 0, 64, 58
1, 237062, Control_c, 0, 64, 61
1, 237074, Note_off_c, 0, 46, 55
1, 237077, Control_c, 0, 64, 62
1, 237091, Control_c, 0, 64, 63
1, 237098, Note_on_c, 0, 34, 55
1, 237106, Control_c, 0, 64, 64
1, 237121, Control_c, 0, 64, 65
1, 237133, Note_off_c, 0, 75, 64
1, 237134, Note_on_c, 0, 73, 72
1, 237136, Control_c, 0, 64, 66
1, 237151, Note_off_c, 0, 34, 59
1, 237151, Control_c, 0, 64, 67
1, 237166, Control_c, 0, 64, 68
1, 237180, Control_c, 0, 64, 68
1, 237184, Note_on_c, 0, 46, 56
1, 237195, Control_c, 0, 64, 69
1, 237195, Control_c, 0, 67, 121
1, 237210, Control_c, 0, 64, 69
1, 237211, Note_off_c, 0, 63, 41
1, 237218, Note_off_c, 0, 66, 57
1, 237228, Note_off_c, 0, 73, 63
1, 237245, Note_off_c, 0, 46, 57
1, 237255, Control_c, 0, 64, 69
1, 237277, Control_c, 0, 64, 68
1, 237286, Note_on_c, 0, 34, 57
1, 237292, Control_c, 0, 64, 65
1, 237298, Note_on_c, 0, 71, 71
1, 237306, Control_c, 0, 64, 61
1, 237306, Control_c, 0, 67, 124
1, 237321, Control_c, 0, 64, 56
1, 237321, Control_c, 0, 67, 127
1, 237324, Note_on_c, 0, 66, 40
1, 237329, Note_on_c, 0, 63, 49
1, 237336, Control_c, 0, 64, 52
1, 237338, Note_off_c, 0, 34, 58
1, 237351, Control_c, 0, 64, 51
1, 237366, Control_c, 0, 64, 51
1, 237371, Note_on_c, 0, 46, 55
1, 237381, Control_c, 0, 64, 54
1, 237396, Control_c, 0, 64, 57
1, 237411, Control_c, 0, 64, 60
1, 237420, Note_off_c, 0, 46, 53
1, 237425, Control_c, 0, 64, 62
1, 237440, Control_c, 0, 64, 63
1, 237447, Note_on_c, 0, 34, 56
1, 237452, Note_off_c, 0, 71, 59
1, 237455, Control_c, 0, 64, 64
1, 237458, Note_on_c, 0, 70, 81
1, 237470, Control_c, 0, 64, 64
1, 237477, Note_off_c, 0, 63, 49
1, 237493, Note_off_c, 0, 34, 61
1, 237514, Control_c, 0, 64, 64
1, 237516, Note_off_c, 0, 66, 58
1, 237526, Note_on_c, 0, 46, 54
1, 237529, Control_c, 0, 64, 61
1, 237545, Control_c, 0, 64, 57
1, 237560, Control_c, 0, 64, 51
1, 237573, Note_off_c, 0, 46, 60
1, 237575, Control_c, 0, 64, 45
1, 237590, Control_c, 0, 64, 39
1, 237604, Control_c, 0, 64, 35
1, 237614, Note_off_c, 0, 70, 62
1, 237619, Note_on_c, 0, 34, 55
1, 237619, Control_c, 0, 64, 34
1, 237620, Note_on_c, 0, 66, 60
1, 237621, Note_on_c, 0, 71, 68
1, 237625, Note_on_c, 0, 63, 51
1, 237648, Control_c, 0, 64, 36
1, 237662, Note_off_c, 0, 34, 61
1, 237663, Control_c, 0, 64, 38
1, 237678, Control_c, 0, 64, 40
1, 237689, Note_on_c, 0, 46, 51
1, 237693, Control_c, 0, 64, 43
1, 237708, Control_c, 0, 64, 46
1, 237723, Control_c, 0, 64, 48
1, 237738, Control_c, 0, 64, 51
1, 237746, Note_off_c, 0, 71, 61
1, 237752, Note_off_c, 0, 46, 52
1, 237753, Control_c, 0, 64, 54
1, 237768, Control_c, 0, 64, 56
1, 237775, Note_on_c, 0, 34, 55
1, 237783, Control_c, 0, 64, 56
1, 237791, Note_on_c, 0, 69, 67
1, 237803, Note_off_c, 0, 66, 63
1, 237812, Control_c, 0, 64, 56
1, 237823, Note_off_c, 0, 34, 60
1, 237827, Control_c, 0, 64, 55
1, 237841, Control_c, 0, 64, 53
1, 237842, Note_off_c, 0, 63, 43
1, 237856, Control_c, 0, 64, 51
1, 237871, Note_on_c, 0, 46, 50
1, 237871, Control_c, 0, 64, 49
1, 237886, Control_c, 0, 64, 47
1, 237901, Control_c, 0, 64, 46
1, 237910, Note_off_c, 0, 46, 61
1, 237915, Control_c, 0, 64, 46
1, 237930, Control_c, 0, 64, 45
1, 237932, Note_on_c, 0, 70, 67
1, 237938, Note_off_c, 0, 69, 49
1, 237945, Control_c, 0, 64, 45
1, 237947, Note_on_c, 0, 34, 57
1, 237952, Note_on_c, 0, 65, 49
1, 237959, Note_on_c, 0, 62, 44
1, 237960, Control_c, 0, 64, 44
1, 237975, Control_c, 0, 64, 44
1, 237990, Control_c, 0, 64, 43
1, 237991, Note_off_c, 0, 34, 61
1, 238004, Control_c, 0, 64, 43
1, 238027, Control_c, 0, 64, 42
1, 238035, Note_on_c, 0, 46, 45
1, 238042, Control_c, 0, 64, 42
1, 238082, Note_off_c, 0, 46, 54
1, 238104, Note_on_c, 0, 34, 55
1, 238149, Note_off_c, 0, 34, 59
1, 238191, Note_on_c, 0, 46, 50
1, 238233, Note_off_c, 0, 46, 57
1, 238235, Control_c, 0, 64, 42
1, 238249, Control_c, 0, 64, 43
1, 238257, Note_on_c, 0, 34, 53
1, 238264, Control_c, 0, 64, 44
1, 238279, Control_c, 0, 64, 47
1, 238294, Control_c, 0, 64, 51
1, 238305, Note_off_c, 0, 34, 59
1, 238309, Control_c, 0, 64, 55
1, 238323, Control_c, 0, 64, 58
1, 238337, Note_on_c, 0, 46, 52
1, 238338, Control_c, 0, 64, 60
1, 238354, Control_c, 0, 64, 61
1, 238369, Control_c, 0, 64, 61
1, 238376, Note_off_c, 0, 65, 63
1, 238384, Control_c, 0, 64, 62
1, 238389, Note_off_c, 0, 46, 57
1, 238399, Control_c, 0, 64, 63
1, 238410, Note_off_c, 0, 62, 59
1, 238414, Control_c, 0, 64, 63
1, 238414, Note_on_c, 0, 34, 61
1, 238443, Control_c, 0, 64, 64
1, 238458, Control_c, 0, 64, 64
1, 238466, Note_off_c, 0, 34, 60
1, 238499, Note_on_c, 0, 46, 49
1, 238511, Note_off_c, 0, 70, 58
1, 238517, Control_c, 0, 64, 64
1, 238532, Control_c, 0, 64, 62
1, 238546, Control_c, 0, 64, 58
1, 238551, Note_off_c, 0, 46, 53
1, 238561, Control_c, 0, 64, 53
1, 238576, Control_c, 0, 64, 47
1, 238579, Note_on_c, 0, 34, 57
1, 238585, Note_on_c, 0, 72, 55
1, 238588, Note_on_c, 0, 66, 45
1, 238591, Control_c, 0, 64, 43
1, 238596, Note_on_c, 0, 63, 40
1, 238606, Control_c, 0, 64, 41
1, 238634, Note_off_c, 0, 34, 60
1, 238635, Control_c, 0, 64, 44
1, 238650, Control_c, 0, 64, 49
1, 238665, Control_c, 0, 64, 55
1, 238671, Note_on_c, 0, 46, 48
1, 238680, Control_c, 0, 64, 59
1, 238695, Control_c, 0, 64, 60
1, 238710, Control_c, 0, 64, 61
1, 238725, Control_c, 0, 64, 61
1, 238728, Note_off_c, 0, 46, 58
1, 238730, Note_off_c, 0, 72, 59
1, 238739, Control_c, 0, 64, 62
1, 238747, Note_on_c, 0, 34, 56
1, 238751, Note_on_c, 0, 70, 70
1, 238754, Control_c, 0, 64, 63
1, 238775, Control_c, 0, 64, 63
1, 238786, Note_off_c, 0, 63, 47
1, 238790, Note_off_c, 0, 66, 59
1, 238796, Note_off_c, 0, 34, 60
1, 238820, Control_c, 0, 64, 63
1, 238835, Control_c, 0, 64, 60
1, 238847, Note_on_c, 0, 46, 46
1, 238850, Control_c, 0, 64, 53
1, 238865, Control_c, 0, 64, 45
1, 238879, Control_c, 0, 64, 37
1, 238887, Note_off_c, 0, 46, 53
1, 238894, Control_c, 0, 64, 33
1, 238909, Control_c, 0, 64, 33
1, 238910, Note_on_c, 0, 72, 59
1, 238911, Note_on_c, 0, 63, 53
1, 238912, Note_on_c, 0, 34, 57
1, 238914, Note_on_c, 0, 66, 60
1, 238924, Control_c, 0, 64, 37
1, 238939, Control_c, 0, 64, 45
1, 238942, Note_off_c, 0, 70, 36
1, 238953, Control_c, 0, 64, 54
1, 238968, Control_c, 0, 64, 58
1, 238969, Note_off_c, 0, 34, 60
1, 238983, Control_c, 0, 64, 60
1, 238997, Control_c, 0, 64, 61
1, 238998, Note_on_c, 0, 46, 51
1, 239027, Control_c, 0, 64, 61
1, 239042, Control_c, 0, 64, 62
1, 239057, Control_c, 0, 64, 62
1, 239064, Note_off_c, 0, 72, 57
1, 239066, Note_off_c, 0, 46, 50
1, 239071, Control_c, 0, 64, 63
1, 239081, Note_on_c, 0, 34, 59
1, 239081, Note_on_c, 0, 69, 63
1, 239098, Note_off_c, 0, 66, 62
1, 239101, Control_c, 0, 64, 63
1, 239128, Note_off_c, 0, 34, 61
1, 239131, Control_c, 0, 64, 63
1, 239147, Control_c, 0, 64, 61
1, 239158, Note_off_c, 0, 63, 36
1, 239161, Control_c, 0, 64, 58
1, 239176, Control_c, 0, 64, 53
1, 239187, Note_on_c, 0, 46, 44
1, 239191, Control_c, 0, 64, 47
1, 239206, Control_c, 0, 64, 43
1, 239217, Note_off_c, 0, 46, 57
1, 239220, Control_c, 0, 64, 40
1, 239235, Control_c, 0, 64, 37
1, 239239, Note_on_c, 0, 70, 62
1, 239245, Note_on_c, 0, 34, 59
1, 239250, Control_c, 0, 64, 36
1, 239258, Note_on_c, 0, 65, 47
1, 239265, Note_off_c, 0, 69, 39
1, 239265, Control_c, 0, 64, 35
1, 239274, Note_on_c, 0, 62, 39
1, 239280, Control_c, 0, 64, 34
1, 239288, Note_off_c, 0, 34, 61
1, 239294, Control_c, 0, 64, 33
1, 239309, Control_c, 0, 64, 32
1, 239312, Note_on_c, 0, 46, 54
1, 239324, Control_c, 0, 64, 32
1, 239339, Control_c, 0, 64, 0
1, 239377, Note_off_c, 0, 46, 50
1, 239394, Note_on_c, 0, 34, 57
1, 239443, Note_off_c, 0, 34, 59
1, 239482, Note_on_c, 0, 46, 50
1, 239527, Note_off_c, 0, 46, 62
1, 239539, Control_c, 0, 64, 32
1, 239554, Control_c, 0, 64, 34
1, 239568, Note_on_c, 0, 34, 46
1, 239569, Control_c, 0, 64, 36
1, 239583, Control_c, 0, 64, 41
1, 239598, Control_c, 0, 64, 46
1, 239609, Note_off_c, 0, 34, 57
1, 239613, Control_c, 0, 64, 52
1, 239628, Control_c, 0, 64, 56
1, 239638, Note_on_c, 0, 46, 47
1, 239643, Control_c, 0, 64, 58
1, 239658, Control_c, 0, 64, 59
1, 239672, Control_c, 0, 64, 60
1, 239687, Control_c, 0, 64, 61
1, 239693, Note_off_c, 0, 46, 55
1, 239702, Control_c, 0, 64, 62
1, 239717, Control_c, 0, 64, 63
1, 239720, Note_off_c, 0, 65, 54
1, 239726, Note_on_c, 0, 34, 45
1, 239732, Control_c, 0, 64, 63
1, 239747, Control_c, 0, 64, 64
1, 239762, Note_off_c, 0, 62, 50
1, 239776, Control_c, 0, 64, 64
1, 239782, Note_off_c, 0, 34, 58
1, 239806, Control_c, 0, 64, 65
1, 239813, Note_on_c, 0, 46, 48
1, 239863, Note_off_c, 0, 46, 59
1, 239865, Control_c, 0, 64, 64
1, 239880, Control_c, 0, 64, 63
1, 239894, Control_c, 0, 64, 60
1, 239900, Note_on_c, 0, 34, 55
1, 239909, Control_c, 0, 64, 55
1, 239917, Note_on_c, 0, 71, 58
1, 239924, Control_c, 0, 64, 48
1, 239928, Note_on_c, 0, 63, 43
1, 239929, Note_on_c, 0, 66, 41
1, 239929, Note_off_c, 0, 70, 34
1, 239940, Control_c, 0, 64, 42
1, 239955, Control_c, 0, 64, 40
1, 239962, Note_off_c, 0, 34, 58
1, 239984, Control_c, 0, 64, 41
1, 239999, Control_c, 0, 64, 43
1, 240012, Note_on_c, 0, 46, 33
1, 240014, Control_c, 0, 64, 48
1, 240029, Control_c, 0, 64, 53
1, 240043, Control_c, 0, 64, 58
1, 240058, Control_c, 0, 64, 59
1, 240067, Note_off_c, 0, 71, 59
1, 240068, Note_off_c, 0, 46, 55
1, 240073, Control_c, 0, 64, 60
1, 240080, Note_on_c, 0, 34, 52
1, 240088, Control_c, 0, 64, 61
1, 240090, Note_on_c, 0, 70, 63
1, 240103, Control_c, 0, 64, 62
1, 240117, Control_c, 0, 64, 62
1, 240129, Note_off_c, 0, 66, 47
1, 240131, Note_off_c, 0, 63, 42
1, 240134, Note_off_c, 0, 34, 56
1, 240147, Control_c, 0, 64, 63
1, 240177, Control_c, 0, 64, 62
1, 240188, Note_on_c, 0, 46, 45
1, 240191, Control_c, 0, 64, 60
1, 240206, Control_c, 0, 64, 55
1, 240221, Control_c, 0, 64, 46
1, 240236, Control_c, 0, 64, 0
1, 240254, Note_off_c, 0, 70, 35
1, 240254, Note_on_c, 0, 71, 60
1, 240254, Note_off_c, 0, 46, 55
1, 240269, Note_on_c, 0, 63, 38
1, 240271, Note_on_c, 0, 66, 37
1, 240279, Note_on_c, 0, 34, 50
1, 240342, Note_off_c, 0, 34, 54
1, 240361, Control_c, 0, 64, 35
1, 240376, Control_c, 0, 64, 46
1, 240388, Note_on_c, 0, 46, 46
1, 240391, Control_c, 0, 64, 54
1, 240406, Control_c, 0, 64, 58
1, 240421, Control_c, 0, 64, 60
1, 240436, Control_c, 0, 64, 61
1, 240447, Note_off_c, 0, 46, 54
1, 240447, Note_off_c, 0, 71, 59
1, 240450, Control_c, 0, 64, 62
1, 240465, Control_c, 0, 64, 63
1, 240468, Note_on_c, 0, 69, 57
1, 240478, Note_on_c, 0, 34, 47
1, 240480, Control_c, 0, 64, 63
1, 240495, Control_c, 0, 64, 64
1, 240498, Note_off_c, 0, 63, 49
1, 240510, Control_c, 0, 64, 65
1, 240519, Note_off_c, 0, 66, 53
1, 240540, Control_c, 0, 64, 65
1, 240569, Control_c, 0, 64, 66
1, 240569, Control_c, 0, 67, 115
1, 240584, Control_c, 0, 64, 66
1, 240584, Control_c, 0, 67, 106
1, 240587, Note_on_c, 0, 46, 56
1, 240599, Control_c, 0, 64, 67
1, 240599, Control_c, 0, 67, 97
1, 240610, Note_off_c, 0, 34, 46
1, 240614, Control_c, 0, 64, 68
1, 240614, Control_c, 0, 67, 87
1, 240629, Control_c, 0, 64, 69
1, 240629, Control_c, 0, 67, 78
1, 240632, Note_off_c, 0, 69, 52
1, 240640, Note_off_c, 0, 46, 60
1, 240643, Control_c, 0, 64, 70
1, 240643, Control_c, 0, 67, 66
1, 240658, Control_c, 0, 64, 71
1, 240658, Control_c, 0, 67, 52
1, 240673, Control_c, 0, 67, 26
1, 240688, Control_c, 0, 64, 69
1, 240688, Control_c, 0, 67, 0
1, 240703, Control_c, 0, 64, 56
1, 240717, Control_c, 0, 64, 0
1, 240721, Note_on_c, 0, 34, 98
1, 240721, Note_on_c, 0, 70, 104
1, 240723, Note_on_c, 0, 46, 103
1, 240726, Note_on_c, 0, 58, 100
1, 240743, Note_on_c, 0, 66, 37
1, 240752, Note_off_c, 0, 46, 68
1, 240755, Note_off_c, 0, 34, 64
1, 240772, Note_off_c, 0, 66, 45
1, 240778, Control_c, 0, 64, 40
1, 240792, Control_c, 0, 64, 66
1, 240807, Control_c, 0, 64, 78
1, 240822, Control_c, 0, 64, 93
1, 240837, Control_c, 0, 64, 98
1, 240862, Note_off_c, 0, 58, 55
1, 240911, Control_c, 0, 64, 96
1, 240926, Control_c, 0, 64, 96
1, 240970, Control_c, 0, 64, 95
1, 240984, Note_off_c, 0, 70, 54
1, 241053, Control_c, 0, 64, 95
1, 241067, Control_c, 0, 64, 94
1, 241171, Control_c, 0, 64, 94
1, 241186, Control_c, 0, 64, 84
1, 241200, Control_c, 0, 64, 62
1, 241205, Note_on_c, 0, 72, 98
1, 241209, Note_on_c, 0, 36, 87
1, 241209, Note_on_c, 0, 48, 96
1, 241209, Note_on_c, 0, 60, 92
1, 241215, Control_c, 0, 64, 0
1, 241235, Note_off_c, 0, 60, 66
1, 241239, Note_off_c, 0, 48, 69
1, 241242, Note_off_c, 0, 36, 64
1, 241253, Note_off_c, 0, 72, 67
1, 241380, Note_on_c, 0, 74, 96
1, 241381, Note_on_c, 0, 38, 94
1, 241382, Note_on_c, 0, 50, 101
1, 241386, Note_on_c, 0, 62, 94
1, 241512, Control_c, 0, 64, 60
1, 241527, Control_c, 0, 64, 69
1, 241542, Control_c, 0, 64, 72
1, 241557, Control_c, 0, 64, 73
1, 241571, Control_c, 0, 64, 75
1, 241586, Control_c, 0, 64, 77
1, 241594, Note_off_c, 0, 38, 60
1, 241597, Note_off_c, 0, 50, 57
1, 241599, Note_off_c, 0, 62, 60
1, 241601, Control_c, 0, 64, 79
1, 241616, Control_c, 0, 64, 79
1, 241624, Note_off_c, 0, 74, 64
1, 241631, Control_c, 0, 64, 80
1, 241690, Control_c, 0, 64, 80
1, 241705, Control_c, 0, 64, 81
1, 241720, Control_c, 0, 64, 82
1, 241735, Control_c, 0, 64, 84
1, 241750, Control_c, 0, 64, 85
1, 241771, Control_c, 0, 64, 86
1, 241786, Control_c, 0, 64, 86
1, 241805, Poly_aftertouch_c, 0, 70, 0
1, 241816, Control_c, 0, 64, 85
1, 241831, Control_c, 0, 64, 68
1, 241838, Note_on_c, 0, 75, 100
1, 241840, Note_on_c, 0, 51, 95
1, 241841, Note_on_c, 0, 39, 95
1, 241842, Note_on_c, 0, 63, 87
1, 241846, Control_c, 0, 64, 0
1, 241869, Note_off_c, 0, 63, 63
1, 241880, Note_off_c, 0, 51, 63
1, 241881, Note_off_c, 0, 39, 68
1, 241895, Note_off_c, 0, 75, 63
1, 242001, Note_on_c, 0, 77, 98
1, 242004, Note_on_c, 0, 41, 97
1, 242004, Note_on_c, 0, 53, 101
1, 242004, Note_on_c, 0, 65, 94
1, 242171, Control_c, 0, 64, 59
1, 242186, Control_c, 0, 64, 70
1, 242201, Control_c, 0, 64, 72
1, 242215, Control_c, 0, 64, 73
1, 242230, Control_c, 0, 64, 73
1, 242244, Note_off_c, 0, 65, 63
1, 242245, Control_c, 0, 64, 74
1, 242257, Note_off_c, 0, 53, 63
1, 242260, Note_off_c, 0, 41, 62
1, 242260, Control_c, 0, 64, 75
1, 242269, Note_off_c, 0, 77, 67
1, 242275, Control_c, 0, 64, 76
1, 242290, Control_c, 0, 64, 76
1, 242454, Control_c, 0, 64, 71
1, 242455, Note_on_c, 0, 79, 92
1, 242457, Note_on_c, 0, 67, 83
1, 242461, Note_on_c, 0, 55, 79
1, 242465, Note_on_c, 0, 43, 75
1, 242469, Control_c, 0, 64, 59
1, 242481, Note_off_c, 0, 67, 67
1, 242483, Note_off_c, 0, 55, 69
1, 242483, Control_c, 0, 64, 0
1, 242492, Note_off_c, 0, 43, 68
1, 242499, Note_off_c, 0, 79, 65
1, 242605, Note_on_c, 0, 81, 94
1, 242609, Note_on_c, 0, 57, 82
1, 242609, Note_on_c, 0, 69, 84
1, 242616, Note_on_c, 0, 45, 67
1, 242629, Note_off_c, 0, 57, 72
1, 242629, Note_off_c, 0, 69, 69
1, 242636, Note_off_c, 0, 45, 64
1, 242641, Note_off_c, 0, 81, 66
1, 242648, Note_on_c, 0, 47, 21
1, 242648, Note_off_c, 0, 47, 127
1, 242737, Note_on_c, 0, 82, 105
1, 242741, Note_on_c, 0, 70, 89
1, 242743, Note_on_c, 0, 58, 93
1, 242744, Note_on_c, 0, 46, 89
1, 242762, Note_off_c, 0, 70, 67
1, 242766, Note_off_c, 0, 46, 70
1, 242767, Note_off_c, 0, 58, 63
1, 242782, Note_off_c, 0, 82, 63
1, 242879, Note_on_c, 0, 84, 107
1, 242881, Note_on_c, 0, 72, 93
1, 242885, Note_on_c, 0, 60, 92
1, 242886, Note_on_c, 0, 48, 93
1, 242904, Note_off_c, 0, 72, 64
1, 242914, Note_off_c, 0, 48, 64
1, 242917, Note_off_c, 0, 60, 67
1, 242919, Note_off_c, 0, 84, 67
1, 242935, Note_on_c, 0, 74, 15
1, 242935, Note_off_c, 0, 74, 127
1, 243019, Note_on_c, 0, 86, 104
1, 243020, Note_on_c, 0, 62, 102
1, 243021, Note_on_c, 0, 50, 96
1, 243024, Note_on_c, 0, 74, 99
1, 243050, Note_off_c, 0, 74, 68
1, 243053, Note_off_c, 0, 62, 67
1, 243053, Note_off_c, 0, 50, 68
1, 243062, Note_off_c, 0, 86, 65
1, 243184, Note_on_c, 0, 87, 106
1, 243185, Note_on_c, 0, 63, 106
1, 243187, Note_on_c, 0, 51, 101
1, 243187, Note_on_c, 0, 75, 102
1, 243299, Control_c, 0, 64, 53
1, 243314, Control_c, 0, 64, 73
1, 243329, Control_c, 0, 64, 88
1, 243343, Control_c, 0, 64, 105
1, 243347, Note_off_c, 0, 63, 60
1, 243358, Control_c, 0, 64, 109
1, 243380, Note_off_c, 0, 51, 59
1, 243404, Note_off_c, 0, 75, 59
1, 243427, Note_off_c, 0, 87, 61
1, 243491, Control_c, 0, 64, 107
1, 243610, Control_c, 0, 64, 96
1, 243625, Control_c, 0, 64, 70
1, 243640, Control_c, 0, 64, 0
1, 243644, Note_on_c, 0, 86, 98
1, 243649, Note_on_c, 0, 62, 96
1, 243649, Note_on_c, 0, 74, 91
1, 243649, Note_on_c, 0, 50, 91
1, 243691, Note_off_c, 0, 62, 62
1, 243691, Note_off_c, 0, 74, 64
1, 243702, Note_off_c, 0, 50, 59
1, 243710, Note_off_c, 0, 86, 57
1, 243816, Note_on_c, 0, 84, 104
1, 243818, Note_on_c, 0, 72, 98
1, 243819, Note_on_c, 0, 60, 99
1, 243820, Note_on_c, 0, 48, 99
1, 243891, Control_c, 0, 64, 36
1, 243905, Control_c, 0, 64, 68
1, 243920, Control_c, 0, 64, 82
1, 243937, Control_c, 0, 64, 95
1, 243956, Note_off_c, 0, 60, 52
1, 243966, Control_c, 0, 64, 97
1, 243986, Note_off_c, 0, 48, 61
1, 243996, Control_c, 0, 64, 99
1, 244031, Note_off_c, 0, 72, 55
1, 244038, Note_off_c, 0, 84, 60
1, 244224, Control_c, 0, 64, 104
1, 244239, Control_c, 0, 64, 111
1, 244254, Control_c, 0, 64, 114
1, 244269, Control_c, 0, 64, 96
1, 244278, Note_on_c, 0, 82, 100
1, 244281, Note_on_c, 0, 46, 94
1, 244281, Note_on_c, 0, 58, 97
1, 244282, Note_on_c, 0, 70, 96
1, 244284, Control_c, 0, 64, 67
1, 244299, Control_c, 0, 64, 0
1, 244320, Note_off_c, 0, 70, 67
1, 244323, Note_off_c, 0, 58, 64
1, 244326, Note_off_c, 0, 46, 60
1, 244334, Note_off_c, 0, 82, 64
1, 244447, Note_on_c, 0, 57, 102
1, 244447, Note_on_c, 0, 81, 98
1, 244448, Note_on_c, 0, 45, 97
1, 244452, Note_on_c, 0, 69, 100
1, 244565, Control_c, 0, 64, 67
1, 244580, Control_c, 0, 64, 82
1, 244595, Control_c, 0, 64, 94
1, 244609, Control_c, 0, 64, 97
1, 244615, Note_off_c, 0, 57, 60
1, 244636, Note_off_c, 0, 45, 63
1, 244639, Control_c, 0, 64, 99
1, 244645, Note_off_c, 0, 69, 61
1, 244650, Note_off_c, 0, 81, 60
1, 244900, Control_c, 0, 64, 97
1, 244903, Note_on_c, 0, 79, 91
1, 244904, Note_on_c, 0, 55, 84
1, 244905, Note_on_c, 0, 67, 85
1, 244907, Note_on_c, 0, 43, 80
1, 244915, Control_c, 0, 64, 79
1, 244930, Control_c, 0, 64, 44
1, 244931, Note_off_c, 0, 67, 66
1, 244933, Note_off_c, 0, 55, 63
1, 244944, Note_off_c, 0, 43, 59
1, 244945, Control_c, 0, 64, 0
1, 244946, Note_off_c, 0, 79, 62
1, 245052, Note_on_c, 0, 53, 89
1, 245056, Note_on_c, 0, 41, 85
1, 245056, Note_on_c, 0, 65, 89
1, 245057, Note_on_c, 0, 77, 90
1, 245074, Note_off_c, 0, 53, 69
1, 245084, Note_off_c, 0, 65, 65
1, 245086, Note_off_c, 0, 41, 65
1, 245092, Note_off_c, 0, 77, 66
1, 245190, Note_on_c, 0, 63, 97
1, 245190, Note_on_c, 0, 75, 94
1, 245190, Note_on_c, 0, 51, 95
1, 245193, Note_on_c, 0, 39, 91
1, 245228, Note_off_c, 0, 63, 64
1, 245229, Note_off_c, 0, 75, 67
1, 245231, Note_off_c, 0, 51, 65
1, 245235, Note_off_c, 0, 39, 62
1, 245324, Note_on_c, 0, 50, 101
1, 245327, Note_on_c, 0, 74, 97
1, 245328, Note_on_c, 0, 62, 100
1, 245329, Note_on_c, 0, 38, 92
1, 245361, Note_off_c, 0, 50, 66
1, 245362, Note_off_c, 0, 62, 66
1, 245364, Note_off_c, 0, 38, 62
1, 245365, Note_off_c, 0, 74, 63
1, 245464, Note_on_c, 0, 48, 101
1, 245466, Note_on_c, 0, 72, 92
1, 245469, Note_on_c, 0, 36, 93
1, 245469, Note_on_c, 0, 60, 95
1, 245494, Note_off_c, 0, 60, 70
1, 245494, Note_off_c, 0, 36, 68
1, 245496, Note_off_c, 0, 48, 69
1, 245511, Note_off_c, 0, 72, 65
1, 245633, Note_on_c, 0, 58, 97
1, 245634, Control_c, 0, 64, 50
1, 245635, Note_on_c, 0, 70, 100
1, 245636, Note_on_c, 0, 46, 108
1, 245639, Note_on_c, 0, 34, 97
1, 245649, Control_c, 0, 64, 69
1, 245663, Note_off_c, 0, 34, 69
1, 245663, Note_off_c, 0, 46, 69
1, 245664, Control_c, 0, 64, 74
1, 245667, Note_off_c, 0, 58, 63
1, 245679, Control_c, 0, 64, 76
1, 245679, Note_off_c, 0, 70, 61
1, 245709, Control_c, 0, 64, 76
1, 245724, Control_c, 0, 64, 77
1, 245783, Control_c, 0, 64, 76
1, 245797, Control_c, 0, 64, 74
1, 245812, Control_c, 0, 64, 64
1, 245827, Control_c, 0, 64, 36
1, 245842, Control_c, 0, 64, 0
1, 245881, Poly_aftertouch_c, 0, 70, 0
1, 245915, Control_c, 0, 67, 23
1, 245930, Control_c, 0, 67, 35
1, 245945, Control_c, 0, 67, 39
1, 245955, Note_on_c, 0, 69, 63
1, 245956, Note_on_c, 0, 60, 62
1, 245957, Note_on_c, 0, 63, 54
1, 245958, Note_on_c, 0, 53, 51
1, 245960, Control_c, 0, 67, 44
1, 245975, Control_c, 0, 67, 50
1, 245980, Note_off_c, 0, 63, 60
1, 245983, Note_off_c, 0, 53, 58
1, 245983, Note_off_c, 0, 60, 66
1, 245987, Note_off_c, 0, 69, 61
1, 245989, Control_c, 0, 67, 57
1, 246004, Control_c, 0, 67, 60
1, 246019, Note_on_c, 0, 68, 64
1, 246034, Control_c, 0, 67, 59
1, 246049, Control_c, 0, 67, 59
1, 246073, Note_off_c, 0, 68, 58
1, 246078, Control_c, 0, 67, 60
1, 246093, Control_c, 0, 67, 61
1, 246099, Note_on_c, 0, 69, 59
1, 246108, Control_c, 0, 67, 62
1, 246123, Control_c, 0, 67, 65
1, 246134, Note_off_c, 0, 69, 65
1, 246138, Control_c, 0, 67, 69
1, 246149, Note_on_c, 0, 65, 63
1, 246153, Control_c, 0, 67, 76
1, 246168, Control_c, 0, 67, 84
1, 246182, Control_c, 0, 67, 90
1, 246197, Control_c, 0, 67, 96
1, 246207, Note_off_c, 0, 65, 61
1, 246212, Control_c, 0, 67, 99
1, 246219, Note_on_c, 0, 58, 70
1, 246219, Note_on_c, 0, 70, 67
1, 246227, Control_c, 0, 67, 101
1, 246228, Note_on_c, 0, 62, 58
1, 246241, Note_off_c, 0, 70, 67
1, 246242, Control_c, 0, 67, 103
1, 246245, Note_off_c, 0, 58, 66
1, 246256, Note_off_c, 0, 62, 61
1, 246383, Control_c, 0, 67, 105
1, 246398, Control_c, 0, 67, 107
1, 246412, Control_c, 0, 67, 112
1, 246427, Control_c, 0, 67, 118
1, 246442, Control_c, 0, 67, 124
1, 246457, Control_c, 0, 67, 127
1, 246529, Note_on_c, 0, 81, 61
1, 246532, Note_on_c, 0, 75, 55
1, 246535, Note_on_c, 0, 65, 51
1, 246536, Note_on_c, 0, 72, 57
1, 246555, Note_off_c, 0, 75, 60
1, 246558, Note_off_c, 0, 72, 65
1, 246567, Note_off_c, 0, 81, 59
1, 246567, Note_off_c, 0, 65, 57
1, 246602, Note_on_c, 0, 80, 59
1, 246651, Note_off_c, 0, 80, 59
1, 246663, Note_on_c, 0, 81, 64
1, 246696, Note_off_c, 0, 81, 62
1, 246739, Note_on_c, 0, 77, 57
1, 246792, Note_off_c, 0, 77, 59
1, 246802, Note_on_c, 0, 82, 65
1, 246812, Note_on_c, 0, 70, 59
1, 246815, Note_on_c, 0, 74, 50
1, 246830, Note_off_c, 0, 82, 69
1, 246839, Note_off_c, 0, 74, 62
1, 246841, Note_off_c, 0, 70, 66
1, 247147, Control_c, 0, 67, 122
1, 247161, Control_c, 0, 67, 103
1, 247176, Control_c, 0, 67, 59
1, 247191, Control_c, 0, 67, 0
1, 247491, Note_on_c, 0, 81, 104
1, 247491, Note_on_c, 0, 69, 100
1, 247491, Note_on_c, 0, 77, 99
1, 247492, Note_on_c, 0, 41, 94
1, 247494, Note_on_c, 0, 75, 99
1, 247494, Note_on_c, 0, 72, 104
1, 247496, Note_on_c, 0, 53, 105
1, 247517, Control_c, 0, 64, 67
1, 247532, Control_c, 0, 64, 127
1, 247543, Note_off_c, 0, 53, 68
1, 247548, Note_off_c, 0, 69, 67
1, 247551, Note_off_c, 0, 41, 63
1, 247569, Note_off_c, 0, 81, 64
1, 247572, Note_off_c, 0, 72, 66
1, 247584, Note_off_c, 0, 75, 66
1, 247586, Note_off_c, 0, 77, 65
1, 247970, Control_c, 0, 64, 97
1, 247984, Control_c, 0, 64, 65
1, 247999, Control_c, 0, 64, 0
1, 248457, Note_on_c, 0, 82, 106
1, 248460, Note_on_c, 0, 70, 102
1, 248461, Note_on_c, 0, 74, 103
1, 248462, Note_on_c, 0, 77, 98
1, 248463, Note_on_c, 0, 46, 101
1, 248465, Note_on_c, 0, 34, 95
1, 248488, Control_c, 0, 64, 61
1, 248511, Control_c, 0, 64, 127
1, 248514, Note_on_c, 0, 76, 31
1, 248514, Note_off_c, 0, 76, 127
1, 248530, Note_off_c, 0, 70, 66
1, 248532, Note_off_c, 0, 46, 65
1, 248545, Note_off_c, 0, 34, 63
1, 248549, Note_off_c, 0, 74, 66
1, 248556, Note_off_c, 0, 82, 64
1, 248558, Note_off_c, 0, 77, 66
1, 249193, Control_c, 0, 64, 88
1, 249208, Control_c, 0, 64, 64
1, 249223, Control_c, 0, 64, 0
1, 249223, End_track
0, 0, End_of_file
