0, 0, Header, 0, 1, 384
1, 0, Start_track
1, 0, Tempo, 512820
1, 0, Title_t, ""
1, 0, Note_on_c, 0, 37, 58
1, 35, Note_off_c, 0, 37, 64
1, 61, Note_on_c, 0, 44, 70
1, 106, Note_off_c, 0, 44, 64
1, 142, Note_on_c, 0, 49, 71
1, 159, Note_on_c, 0, 44, 51
1, 194, Note_off_c, 0, 49, 64
1, 198, Note_off_c, 0, 44, 64
1, 208, Note_on_c, 0, 52, 57
1, 251, Note_off_c, 0, 52, 64
1, 251, Note_on_c, 0, 56, 60
1, 269, Note_on_c, 0, 37, 64
1, 290, Note_off_c, 0, 56, 64
1, 306, Note_off_c, 0, 37, 64
1, 312, Note_on_c, 0, 49, 75
1, 378, Note_on_c, 0, 52, 75
1, 378, Note_off_c, 0, 49, 64
1, 387, Note_on_c, 0, 44, 51
1, 432, Note_off_c, 0, 44, 64
1, 450, Note_on_c, 0, 56, 59
1, 475, Note_off_c, 0, 52, 64
1, 512, Note_on_c, 0, 61, 62
1, 529, Note_on_c, 0, 37, 52
1, 548, Note_off_c, 0, 56, 64
1, 548, Note_off_c, 0, 61, 64
1, 568, Note_off_c, 0, 37, 64
1, 585, Note_on_c, 0, 52, 68
1, 598, Control_c, 0, 64, 127
1, 623, Note_off_c, 0, 52, 64
1, 634, Control_c, 0, 64, 0
1, 640, Note_on_c, 0, 44, 47
1, 640, Note_on_c, 0, 56, 60
1, 685, Note_off_c, 0, 44, 64
1, 694, Note_off_c, 0, 56, 64
1, 697, Note_on_c, 0, 61, 62
1, 768, Note_on_c, 0, 64, 75
1, 782, Note_on_c, 0, 37, 47
1, 799, Note_off_c, 0, 64, 64
1, 805, Note_off_c, 0, 61, 64
1, 824, Note_off_c, 0, 37, 64
1, 832, Note_on_c, 0, 56, 69
1, 890, Note_on_c, 0, 61, 42
1, 890, Note_on_c, 0, 44, 46
1, 905, Note_off_c, 0, 56, 64
1, 944, Note_off_c, 0, 44, 64
1, 944, Note_on_c, 0, 64, 57
1, 986, Note_off_c, 0, 61, 64
1, 1017, Note_on_c, 0, 68, 64
1, 1035, Note_off_c, 0, 64, 64
1, 1058, Note_on_c, 0, 37, 35
1, 1064, Note_off_c, 0, 68, 64
1, 1076, Note_on_c, 0, 61, 55
1, 1103, Note_off_c, 0, 37, 64
1, 1152, Note_on_c, 0, 64, 73
1, 1156, Note_off_c, 0, 61, 64
1, 1166, Note_on_c, 0, 44, 34
1, 1211, Note_on_c, 0, 68, 58
1, 1219, Note_off_c, 0, 44, 64
1, 1234, Note_off_c, 0, 64, 64
1, 1270, Note_on_c, 0, 73, 70
1, 1289, Note_on_c, 0, 37, 46
1, 1303, Note_off_c, 0, 68, 64
1, 1317, Note_off_c, 0, 73, 64
1, 1328, Note_off_c, 0, 37, 64
1, 1350, Note_on_c, 0, 64, 70
1, 1395, Note_off_c, 0, 64, 64
1, 1395, Note_on_c, 0, 68, 65
1, 1411, Note_on_c, 0, 44, 47
1, 1462, Note_on_c, 0, 73, 69
1, 1467, Note_off_c, 0, 44, 64
1, 1485, Note_off_c, 0, 68, 64
1, 1529, Note_on_c, 0, 76, 71
1, 1535, Note_on_c, 0, 37, 56
1, 1565, Note_off_c, 0, 73, 64
1, 1581, Note_off_c, 0, 76, 64
1, 1581, Note_off_c, 0, 37, 64
1, 1599, Note_on_c, 0, 68, 55
1, 1616, Control_c, 0, 64, 127
1, 1651, Note_on_c, 0, 73, 46
1, 1651, Note_off_c, 0, 68, 64
1, 1659, Note_on_c, 0, 44, 60
1, 1696, Note_off_c, 0, 44, 64
1, 1696, Note_on_c, 0, 76, 63
1, 1701, Control_c, 0, 64, 0
1, 1741, Note_off_c, 0, 73, 64
1, 1744, Note_off_c, 0, 76, 64
1, 1785, Note_on_c, 0, 76, 100
1, 1785, Note_on_c, 0, 73, 89
1, 1785, Note_on_c, 0, 68, 101
1, 1788, Note_on_c, 0, 80, 103
1, 1793, Note_on_c, 0, 49, 95
1, 1799, Note_on_c, 0, 37, 79
1, 1869, Note_off_c, 0, 49, 64
1, 1872, Note_off_c, 0, 68, 64
1, 1872, Note_off_c, 0, 80, 64
1, 1880, Control_c, 0, 64, 127
1, 1886, Note_off_c, 0, 76, 64
1, 1886, Note_off_c, 0, 37, 64
1, 1891, Note_off_c, 0, 73, 64
1, 1922, Note_on_c, 0, 80, 81
1, 1925, Note_on_c, 0, 68, 74
1, 1928, Note_on_c, 0, 76, 92
1, 1932, Note_on_c, 0, 73, 79
1, 1953, Note_on_c, 0, 44, 66
1, 1960, Note_off_c, 0, 76, 64
1, 1971, Note_off_c, 0, 73, 64
1, 1977, Note_off_c, 0, 80, 64
1, 1991, Note_off_c, 0, 44, 64
1, 2003, Note_off_c, 0, 68, 64
1, 2061, Control_c, 0, 64, 0
1, 2119, Note_on_c, 0, 36, 97
1, 2189, Note_off_c, 0, 36, 64
1, 2189, Note_on_c, 0, 44, 91
1, 2267, Note_on_c, 0, 48, 72
1, 2329, Note_off_c, 0, 44, 64
1, 2336, Note_on_c, 0, 51, 76
1, 2353, Note_off_c, 0, 48, 64
1, 2404, Note_on_c, 0, 56, 75
1, 2411, Note_on_c, 0, 36, 71
1, 2446, Note_off_c, 0, 51, 64
1, 2453, Note_off_c, 0, 36, 64
1, 2462, Note_off_c, 0, 56, 64
1, 2478, Note_on_c, 0, 48, 63
1, 2532, Note_on_c, 0, 44, 57
1, 2538, Note_on_c, 0, 51, 65
1, 2546, Note_off_c, 0, 48, 64
1, 2588, Note_off_c, 0, 44, 64
1, 2598, Note_on_c, 0, 56, 59
1, 2629, Note_off_c, 0, 51, 64
1, 2662, Note_on_c, 0, 60, 71
1, 2682, Note_on_c, 0, 36, 59
1, 2716, Note_off_c, 0, 56, 64
1, 2722, Note_off_c, 0, 60, 64
1, 2725, Note_off_c, 0, 36, 64
1, 2740, Note_on_c, 0, 51, 74
1, 2783, Note_off_c, 0, 51, 64
1, 2800, Note_on_c, 0, 56, 53
1, 2800, Note_on_c, 0, 44, 51
1, 2857, Note_off_c, 0, 44, 64
1, 2857, Note_on_c, 0, 60, 72
1, 2880, Note_off_c, 0, 56, 64
1, 2927, Note_on_c, 0, 63, 76
1, 2946, Note_on_c, 0, 36, 50
1, 2963, Note_off_c, 0, 60, 64
1, 2988, Note_off_c, 0, 36, 64
1, 2992, Note_on_c, 0, 56, 75
1, 3017, Note_off_c, 0, 63, 64
1, 3063, Note_on_c, 0, 44, 55
1, 3063, Note_on_c, 0, 60, 66
1, 3086, Note_off_c, 0, 56, 64
1, 3111, Note_off_c, 0, 44, 64
1, 3137, Note_on_c, 0, 63, 78
1, 3150, Control_c, 0, 64, 127
1, 3159, Note_off_c, 0, 60, 64
1, 3175, Control_c, 0, 64, 0
1, 3205, Note_on_c, 0, 36, 56
1, 3205, Note_on_c, 0, 68, 72
1, 3222, Note_off_c, 0, 63, 64
1, 3245, Note_off_c, 0, 36, 64
1, 3254, Note_off_c, 0, 68, 64
1, 3278, Note_on_c, 0, 60, 69
1, 3332, Note_on_c, 0, 63, 83
1, 3337, Note_on_c, 0, 44, 54
1, 3337, Note_off_c, 0, 60, 64
1, 3382, Note_off_c, 0, 44, 64
1, 3406, Note_on_c, 0, 68, 50
1, 3426, Note_off_c, 0, 63, 64
1, 3465, Note_on_c, 0, 36, 44
1, 3471, Note_on_c, 0, 72, 48
1, 3482, Note_off_c, 0, 68, 64
1, 3510, Note_off_c, 0, 36, 64
1, 3515, Note_off_c, 0, 72, 64
1, 3520, Note_on_c, 0, 63, 82
1, 3585, Note_on_c, 0, 68, 64
1, 3585, Note_on_c, 0, 44, 56
1, 3601, Note_off_c, 0, 63, 64
1, 3632, Note_off_c, 0, 44, 64
1, 3638, Note_on_c, 0, 72, 69
1, 3679, Note_off_c, 0, 68, 64
1, 3710, Note_on_c, 0, 75, 77
1, 3716, Note_on_c, 0, 36, 55
1, 3727, Note_off_c, 0, 72, 64
1, 3760, Note_on_c, 0, 68, 55
1, 3766, Note_off_c, 0, 75, 64
1, 3766, Note_off_c, 0, 36, 64
1, 3825, Note_on_c, 0, 72, 75
1, 3844, Note_on_c, 0, 44, 59
1, 3857, Note_off_c, 0, 68, 64
1, 3883, Note_off_c, 0, 44, 64
1, 3883, Note_on_c, 0, 75, 69
1, 3911, Note_off_c, 0, 72, 64
1, 3914, Note_off_c, 0, 75, 64
1, 3947, Note_on_c, 0, 75, 87
1, 3947, Note_on_c, 0, 80, 107
1, 3947, Note_on_c, 0, 72, 100
1, 3947, Note_on_c, 0, 68, 102
1, 3960, Note_on_c, 0, 48, 89
1, 3967, Note_on_c, 0, 36, 87
1, 4013, Note_off_c, 0, 36, 64
1, 4038, Control_c, 0, 64, 127
1, 4038, Note_off_c, 0, 80, 64
1, 4045, Note_off_c, 0, 68, 64
1, 4052, Note_off_c, 0, 48, 64
1, 4055, Note_off_c, 0, 75, 64
1, 4066, Note_off_c, 0, 72, 64
1, 4094, Note_on_c, 0, 75, 87
1, 4094, Note_on_c, 0, 80, 59
1, 4103, Note_on_c, 0, 68, 76
1, 4103, Note_on_c, 0, 72, 65
1, 4109, Note_on_c, 0, 44, 79
1, 4141, Note_off_c, 0, 44, 64
1, 4148, Note_off_c, 0, 75, 64
1, 4153, Note_off_c, 0, 80, 64
1, 4162, Note_off_c, 0, 72, 64
1, 4178, Note_off_c, 0, 68, 64
1, 4229, Control_c, 0, 64, 0
1, 4251, Note_on_c, 0, 35, 99
1, 4304, Note_off_c, 0, 35, 64
1, 4304, Note_on_c, 0, 49, 91
1, 4378, Note_on_c, 0, 44, 68
1, 4389, Note_on_c, 0, 53, 90
1, 4406, Note_off_c, 0, 49, 64
1, 4421, Note_off_c, 0, 44, 64
1, 4445, Note_on_c, 0, 56, 75
1, 4471, Note_off_c, 0, 53, 64
1, 4513, Note_on_c, 0, 35, 81
1, 4521, Note_on_c, 0, 61, 76
1, 4548, Note_off_c, 0, 35, 64
1, 4548, Note_off_c, 0, 56, 64
1, 4562, Note_off_c, 0, 61, 64
1, 4585, Note_on_c, 0, 53, 102
1, 4635, Note_on_c, 0, 44, 64
1, 4644, Note_on_c, 0, 56, 67
1, 4662, Note_off_c, 0, 53, 64
1, 4688, Note_off_c, 0, 44, 64
1, 4701, Note_on_c, 0, 61, 72
1, 4708, Control_c, 0, 64, 127
1, 4729, Note_off_c, 0, 56, 64
1, 4744, Control_c, 0, 64, 0
1, 4777, Note_on_c, 0, 65, 69
1, 4777, Note_on_c, 0, 35, 74
1, 4813, Note_off_c, 0, 61, 64
1, 4813, Note_off_c, 0, 35, 64
1, 4825, Note_off_c, 0, 65, 64
1, 4838, Note_on_c, 0, 56, 81
1, 4841, Control_c, 0, 64, 127
1, 4889, Control_c, 0, 64, 0
1, 4900, Note_on_c, 0, 44, 62
1, 4900, Note_on_c, 0, 61, 67
1, 4928, Note_off_c, 0, 56, 64
1, 4958, Note_on_c, 0, 65, 73
1, 4961, Note_off_c, 0, 44, 64
1, 5008, Control_c, 0, 64, 127
1, 5013, Note_off_c, 0, 61, 64
1, 5038, Note_on_c, 0, 68, 81
1, 5053, Note_on_c, 0, 35, 68
1, 5069, Control_c, 0, 64, 0
1, 5073, Note_off_c, 0, 65, 64
1, 5086, Note_off_c, 0, 35, 64
1, 5098, Note_on_c, 0, 61, 69
1, 5119, Note_off_c, 0, 68, 64
1, 5164, Note_on_c, 0, 44, 62
1, 5164, Control_c, 0, 64, 127
1, 5175, Note_on_c, 0, 65, 71
1, 5195, Note_off_c, 0, 61, 64
1, 5212, Control_c, 0, 64, 0
1, 5220, Note_off_c, 0, 44, 64
1, 5231, Note_on_c, 0, 68, 72
1, 5279, Note_off_c, 0, 65, 64
1, 5303, Note_on_c, 0, 73, 81
1, 5317, Note_on_c, 0, 35, 63
1, 5339, Note_off_c, 0, 68, 64
1, 5351, Control_c, 0, 64, 127
1, 5351, Note_off_c, 0, 35, 64
1, 5368, Note_on_c, 0, 65, 73
1, 5384, Note_off_c, 0, 73, 64
1, 5392, Control_c, 0, 64, 0
1, 5423, Note_on_c, 0, 68, 62
1, 5427, Note_on_c, 0, 44, 60
1, 5457, Note_off_c, 0, 65, 64
1, 5493, Note_on_c, 0, 73, 76
1, 5493, Note_off_c, 0, 44, 64
1, 5512, Control_c, 0, 64, 127
1, 5534, Note_off_c, 0, 68, 64
1, 5534, Control_c, 0, 64, 0
1, 5562, Note_on_c, 0, 77, 79
1, 5570, Note_on_c, 0, 35, 69
1, 5590, Note_off_c, 0, 73, 64
1, 5598, Note_off_c, 0, 77, 64
1, 5605, Note_off_c, 0, 35, 64
1, 5618, Note_on_c, 0, 68, 81
1, 5668, Control_c, 0, 64, 127
1, 5682, Note_on_c, 0, 73, 69
1, 5697, Note_on_c, 0, 44, 58
1, 5713, Note_off_c, 0, 68, 64
1, 5732, Note_on_c, 0, 77, 78
1, 5740, Control_c, 0, 64, 0
1, 5746, Note_off_c, 0, 44, 64
1, 5793, Note_off_c, 0, 73, 64
1, 5804, Note_on_c, 0, 80, 90
1, 5813, Note_on_c, 0, 35, 79
1, 5835, Note_off_c, 0, 77, 64
1, 5857, Note_on_c, 0, 73, 65
1, 5867, Note_off_c, 0, 35, 64
1, 5871, Note_off_c, 0, 80, 64
1, 5871, Control_c, 0, 64, 127
1, 5908, Control_c, 0, 64, 0
1, 5936, Note_on_c, 0, 77, 68
1, 5936, Note_on_c, 0, 44, 72
1, 5972, Note_off_c, 0, 73, 64
1, 5981, Note_off_c, 0, 44, 64
1, 5981, Note_on_c, 0, 80, 81
1, 6003, Control_c, 0, 64, 127
1, 6013, Note_off_c, 0, 80, 64
1, 6027, Control_c, 0, 64, 0
1, 6034, Note_off_c, 0, 77, 64
1, 6067, Note_on_c, 0, 47, 97
1, 6067, Note_on_c, 0, 80, 76
1, 6067, Note_on_c, 0, 85, 108
1, 6070, Note_on_c, 0, 73, 106
1, 6070, Note_on_c, 0, 77, 105
1, 6076, Note_on_c, 0, 35, 98
1, 6120, Note_off_c, 0, 35, 64
1, 6172, Note_off_c, 0, 85, 64
1, 6178, Note_off_c, 0, 77, 64
1, 6181, Note_off_c, 0, 73, 64
1, 6189, Note_off_c, 0, 80, 64
1, 6189, Control_c, 0, 64, 127
1, 6189, Note_off_c, 0, 47, 64
1, 6225, Note_on_c, 0, 77, 87
1, 6228, Note_on_c, 0, 73, 66
1, 6231, Note_on_c, 0, 80, 88
1, 6231, Note_on_c, 0, 85, 78
1, 6242, Note_on_c, 0, 44, 79
1, 6275, Note_off_c, 0, 44, 64
1, 6282, Note_off_c, 0, 85, 64
1, 6282, Note_off_c, 0, 77, 64
1, 6282, Note_off_c, 0, 80, 64
1, 6310, Note_off_c, 0, 73, 64
1, 6362, Control_c, 0, 64, 0
1, 6401, Note_on_c, 0, 33, 92
1, 6471, Note_on_c, 0, 49, 82
1, 6490, Note_off_c, 0, 33, 64
1, 6537, Note_on_c, 0, 45, 63
1, 6544, Note_on_c, 0, 54, 88
1, 6554, Note_off_c, 0, 49, 64
1, 6607, Note_on_c, 0, 57, 51
1, 6623, Note_off_c, 0, 45, 64
1, 6632, Note_off_c, 0, 54, 64
1, 6663, Note_on_c, 0, 61, 81
1, 6663, Note_on_c, 0, 33, 68
1, 6674, Control_c, 0, 64, 127
1, 6674, Note_off_c, 0, 57, 64
1, 6691, Note_off_c, 0, 61, 64
1, 6729, Note_on_c, 0, 61, 77
1, 6733, Note_off_c, 0, 33, 64
1, 6733, Control_c, 0, 64, 0
1, 6803, Note_on_c, 0, 45, 51
1, 6816, Note_on_c, 0, 66, 65
1, 6828, Note_off_c, 0, 61, 64
1, 6842, Control_c, 0, 64, 127
1, 6886, Note_on_c, 0, 69, 44
1, 6889, Note_off_c, 0, 45, 64
1, 6889, Control_c, 0, 64, 0
1, 6928, Note_on_c, 0, 73, 78
1, 6931, Note_off_c, 0, 66, 64
1, 6934, Note_off_c, 0, 69, 64
1, 6934, Note_on_c, 0, 33, 67
1, 6958, Note_off_c, 0, 73, 64
1, 6981, Note_off_c, 0, 33, 64
1, 6986, Control_c, 0, 64, 127
1, 6998, Note_on_c, 0, 73, 73
1, 7075, Note_on_c, 0, 78, 66
1, 7091, Note_on_c, 0, 45, 51
1, 7101, Note_off_c, 0, 73, 64
1, 7140, Note_off_c, 0, 78, 64
1, 7140, Note_off_c, 0, 45, 64
1, 7158, Note_on_c, 0, 81, 53
1, 7178, Control_c, 0, 64, 0
1, 7195, Note_off_c, 0, 81, 64
1, 7215, Note_on_c, 0, 33, 92
1, 7215, Note_on_c, 0, 85, 103
1, 7220, Note_on_c, 0, 78, 92
1, 7228, Note_on_c, 0, 73, 105
1, 7312, Note_off_c, 0, 33, 64
1, 7312, Note_off_c, 0, 78, 64
1, 7315, Note_off_c, 0, 85, 64
1, 7332, Control_c, 0, 64, 127
1, 7332, Note_off_c, 0, 73, 64
1, 7365, Note_on_c, 0, 85, 92
1, 7368, Note_on_c, 0, 78, 66
1, 7368, Note_on_c, 0, 73, 90
1, 7373, Note_on_c, 0, 45, 54
1, 7413, Note_off_c, 0, 85, 64
1, 7423, Note_off_c, 0, 78, 64
1, 7426, Note_off_c, 0, 73, 64
1, 7442, Note_off_c, 0, 45, 64
1, 7465, Control_c, 0, 64, 0
1, 7524, Note_on_c, 0, 33, 94
1, 7583, Note_on_c, 0, 49, 88
1, 7618, Note_off_c, 0, 33, 64
1, 7629, Control_c, 0, 64, 127
1, 7652, Note_on_c, 0, 52, 92
1, 7669, Control_c, 0, 64, 0
1, 7669, Note_on_c, 0, 45, 54
1, 7672, Note_off_c, 0, 49, 64
1, 7724, Note_on_c, 0, 55, 83
1, 7735, Note_off_c, 0, 45, 64
1, 7752, Note_off_c, 0, 52, 64
1, 7782, Note_on_c, 0, 61, 81
1, 7794, Note_on_c, 0, 33, 67
1, 7805, Note_off_c, 0, 55, 64
1, 7811, Note_off_c, 0, 61, 64
1, 7811, Control_c, 0, 64, 127
1, 7849, Note_on_c, 0, 61, 73
1, 7860, Note_off_c, 0, 33, 64
1, 7873, Control_c, 0, 64, 0
1, 7917, Note_on_c, 0, 64, 87
1, 7924, Note_on_c, 0, 45, 54
1, 7939, Note_off_c, 0, 61, 64
1, 7986, Note_on_c, 0, 67, 79
1, 7992, Control_c, 0, 64, 127
1, 8006, Note_off_c, 0, 64, 64
1, 8014, Note_off_c, 0, 45, 64
1, 8041, Control_c, 0, 64, 0
1, 8048, Note_on_c, 0, 33, 78
1, 8055, Note_on_c, 0, 73, 86
1, 8073, Note_off_c, 0, 67, 64
1, 8080, Note_off_c, 0, 73, 64
1, 8108, Note_off_c, 0, 33, 64
1, 8123, Note_on_c, 0, 73, 59
1, 8173, Control_c, 0, 64, 127
1, 8192, Note_on_c, 0, 76, 74
1, 8198, Note_on_c, 0, 45, 54
1, 8209, Control_c, 0, 64, 0
1, 8220, Note_off_c, 0, 73, 64
1, 8242, Note_off_c, 0, 45, 64
1, 8250, Note_on_c, 0, 79, 78
1, 8261, Note_off_c, 0, 76, 64
1, 8281, Note_off_c, 0, 79, 64
1, 8335, Note_on_c, 0, 79, 75
1, 8335, Note_on_c, 0, 73, 110
1, 8338, Note_on_c, 0, 85, 107
1, 8338, Note_on_c, 0, 33, 103
1, 8343, Note_on_c, 0, 45, 97
1, 8385, Note_off_c, 0, 33, 64
1, 8404, Note_off_c, 0, 45, 64
1, 8438, Note_off_c, 0, 79, 64
1, 8438, Note_off_c, 0, 73, 64
1, 8446, Note_off_c, 0, 85, 64
1, 8509, Note_on_c, 0, 85, 85
1, 8509, Control_c, 0, 64, 127
1, 8509, Note_on_c, 0, 73, 91
1, 8509, Note_on_c, 0, 79, 89
1, 8516, Note_on_c, 0, 45, 87
1, 8521, Note_on_c, 0, 33, 88
1, 8544, Note_off_c, 0, 45, 64
1, 8544, Control_c, 0, 64, 0
1, 8549, Note_off_c, 0, 33, 64
1, 8608, Note_off_c, 0, 73, 64
1, 8626, Note_off_c, 0, 85, 64
1, 8626, Note_off_c, 0, 79, 64
1, 8702, Note_on_c, 0, 72, 111
1, 8702, Note_on_c, 0, 84, 112
1, 8702, Note_on_c, 0, 80, 93
1, 8710, Note_on_c, 0, 44, 108
1, 8713, Note_on_c, 0, 32, 91
1, 8736, Note_off_c, 0, 32, 64
1, 8747, Control_c, 0, 64, 127
1, 8764, Note_off_c, 0, 44, 64
1, 8782, Note_off_c, 0, 72, 64
1, 8788, Note_off_c, 0, 84, 64
1, 8794, Note_off_c, 0, 80, 64
1, 8959, Note_on_c, 0, 56, 77
1, 8969, Note_on_c, 0, 60, 61
1, 8969, Note_on_c, 0, 68, 74
1, 9034, Note_off_c, 0, 60, 64
1, 9044, Note_on_c, 0, 80, 71
1, 9044, Note_off_c, 0, 68, 64
1, 9128, Note_off_c, 0, 80, 64
1, 9128, Note_on_c, 0, 68, 69
1, 9133, Note_on_c, 0, 60, 71
1, 9143, Control_c, 0, 64, 0
1, 9192, Note_off_c, 0, 68, 64
1, 9192, Note_on_c, 0, 80, 52
1, 9265, Note_on_c, 0, 61, 69
1, 9265, Note_on_c, 0, 70, 62
1, 9274, Note_off_c, 0, 60, 64
1, 9287, Note_off_c, 0, 80, 64
1, 9323, Control_c, 0, 64, 127
1, 9340, Note_on_c, 0, 80, 62
1, 9359, Note_off_c, 0, 70, 64
1, 9424, Note_on_c, 0, 72, 68
1, 9424, Note_on_c, 0, 63, 72
1, 9427, Note_off_c, 0, 80, 64
1, 9431, Control_c, 0, 64, 0
1, 9473, Note_off_c, 0, 61, 64
1, 9493, Note_on_c, 0, 80, 55
1, 9518, Note_off_c, 0, 72, 64
1, 9563, Note_on_c, 0, 64, 72
1, 9566, Note_off_c, 0, 63, 64
1, 9574, Control_c, 0, 64, 127
1, 9574, Note_on_c, 0, 73, 67
1, 9580, Note_off_c, 0, 80, 64
1, 9641, Note_on_c, 0, 80, 61
1, 9677, Note_off_c, 0, 73, 64
1, 9719, Note_on_c, 0, 66, 63
1, 9719, Control_c, 0, 64, 0
1, 9727, Note_on_c, 0, 75, 66
1, 9733, Note_off_c, 0, 80, 64
1, 9739, Note_off_c, 0, 64, 64
1, 9785, Note_on_c, 0, 80, 70
1, 9813, Note_off_c, 0, 75, 64
1, 9863, Control_c, 0, 64, 127
1, 9867, Note_on_c, 0, 72, 78
1, 9872, Note_on_c, 0, 63, 69
1, 9883, Note_off_c, 0, 80, 64
1, 9891, Note_off_c, 0, 66, 64
1, 9937, Note_on_c, 0, 80, 67
1, 9955, Note_off_c, 0, 72, 64
1, 10017, Note_on_c, 0, 66, 66
1, 10020, Note_on_c, 0, 75, 68
1, 10033, Note_off_c, 0, 63, 64
1, 10039, Note_off_c, 0, 80, 64
1, 10054, Control_c, 0, 64, 0
1, 10095, Note_on_c, 0, 80, 62
1, 10133, Note_off_c, 0, 75, 64
1, 10159, Note_on_c, 0, 73, 77
1, 10171, Note_on_c, 0, 64, 61
1, 10182, Note_off_c, 0, 66, 64
1, 10182, Note_off_c, 0, 80, 64
1, 10198, Control_c, 0, 64, 127
1, 10232, Note_off_c, 0, 73, 64
1, 10237, Note_on_c, 0, 80, 72
1, 10273, Note_off_c, 0, 56, 64
1, 10284, Note_off_c, 0, 64, 64
1, 10315, Note_on_c, 0, 78, 80
1, 10318, Note_on_c, 0, 69, 47
1, 10326, Note_off_c, 0, 80, 64
1, 10390, Note_on_c, 0, 80, 61
1, 10432, Note_off_c, 0, 78, 64
1, 10455, Note_on_c, 0, 68, 59
1, 10455, Note_on_c, 0, 76, 71
1, 10463, Note_off_c, 0, 80, 64
1, 10468, Note_off_c, 0, 69, 64
1, 10530, Note_on_c, 0, 80, 60
1, 10549, Note_off_c, 0, 76, 64
1, 10602, Note_on_c, 0, 75, 72
1, 10602, Note_off_c, 0, 68, 64
1, 10610, Note_off_c, 0, 80, 64
1, 10610, Note_on_c, 0, 66, 56
1, 10672, Note_on_c, 0, 80, 66
1, 10705, Note_off_c, 0, 75, 64
1, 10713, Note_off_c, 0, 66, 64
1, 10746, Note_on_c, 0, 73, 66
1, 10753, Note_off_c, 0, 80, 64
1, 10753, Note_on_c, 0, 64, 73
1, 10811, Note_on_c, 0, 80, 65
1, 10827, Note_off_c, 0, 73, 64
1, 10855, Note_off_c, 0, 64, 64
1, 10888, Note_off_c, 0, 80, 64
1, 10898, Note_on_c, 0, 72, 74
1, 10898, Note_on_c, 0, 63, 70
1, 10945, Note_off_c, 0, 63, 64
1, 10953, Note_on_c, 0, 80, 62
1, 10953, Note_off_c, 0, 72, 64
1, 11034, Note_on_c, 0, 61, 70
1, 11040, Note_on_c, 0, 69, 75
1, 11047, Note_off_c, 0, 80, 64
1, 11067, Note_off_c, 0, 61, 64
1, 11100, Note_off_c, 0, 69, 64
1, 11114, Note_on_c, 0, 79, 84
1, 11164, Note_off_c, 0, 79, 64
1, 11182, Note_on_c, 0, 68, 76
1, 11185, Note_on_c, 0, 56, 79
1, 11195, Note_on_c, 0, 60, 59
1, 11235, Note_off_c, 0, 60, 64
1, 11259, Note_off_c, 0, 68, 64
1, 11259, Note_on_c, 0, 80, 78
1, 11265, Control_c, 0, 64, 0
1, 11334, Note_on_c, 0, 68, 68
1, 11343, Note_off_c, 0, 80, 64
1, 11348, Note_on_c, 0, 60, 77
1, 11402, Note_off_c, 0, 68, 64
1, 11402, Note_on_c, 0, 80, 67
1, 11424, Note_off_c, 0, 60, 64
1, 11444, Control_c, 0, 64, 127
1, 11477, Note_on_c, 0, 68, 64
1, 11482, Note_on_c, 0, 60, 61
1, 11482, Note_off_c, 0, 80, 64
1, 11530, Note_off_c, 0, 68, 64
1, 11544, Note_on_c, 0, 80, 56
1, 11594, Note_off_c, 0, 60, 64
1, 11629, Note_on_c, 0, 70, 58
1, 11636, Note_off_c, 0, 80, 64
1, 11636, Note_on_c, 0, 61, 53
1, 11692, Note_off_c, 0, 70, 64
1, 11703, Note_on_c, 0, 80, 47
1, 11786, Note_on_c, 0, 72, 56
1, 11791, Note_on_c, 0, 63, 62
1, 11794, Note_off_c, 0, 80, 64
1, 11816, Control_c, 0, 64, 0
1, 11816, Note_off_c, 0, 61, 64
1, 11852, Note_on_c, 0, 80, 50
1, 11892, Note_off_c, 0, 72, 64
1, 11909, Note_off_c, 0, 63, 64
1, 11928, Note_on_c, 0, 73, 60
1, 11931, Note_on_c, 0, 64, 67
1, 11939, Note_off_c, 0, 80, 64
1, 11959, Control_c, 0, 64, 127
1, 11989, Note_on_c, 0, 80, 65
1, 12022, Note_off_c, 0, 73, 64
1, 12068, Note_on_c, 0, 66, 63
1, 12068, Note_on_c, 0, 75, 69
1, 12072, Note_off_c, 0, 80, 64
1, 12089, Note_off_c, 0, 64, 64
1, 12132, Note_on_c, 0, 80, 61
1, 12159, Note_off_c, 0, 75, 64
1, 12176, Note_off_c, 0, 66, 64
1, 12203, Note_on_c, 0, 63, 74
1, 12203, Note_on_c, 0, 72, 76
1, 12220, Note_off_c, 0, 80, 64
1, 12276, Note_on_c, 0, 80, 68
1, 12282, Note_off_c, 0, 72, 64
1, 12327, Note_off_c, 0, 63, 64
1, 12340, Note_on_c, 0, 66, 73
1, 12351, Note_on_c, 0, 75, 76
1, 12365, Note_off_c, 0, 80, 64
1, 12424, Note_on_c, 0, 80, 71
1, 12427, Control_c, 0, 64, 0
1, 12463, Note_off_c, 0, 75, 64
1, 12482, Note_on_c, 0, 73, 75
1, 12491, Note_on_c, 0, 64, 71
1, 12510, Note_off_c, 0, 80, 64
1, 12513, Note_off_c, 0, 66, 64
1, 12555, Note_on_c, 0, 80, 84
1, 12571, Control_c, 0, 64, 127
1, 12575, Note_off_c, 0, 73, 64
1, 12602, Note_off_c, 0, 56, 64
1, 12621, Note_off_c, 0, 64, 64
1, 12633, Note_on_c, 0, 78, 83
1, 12638, Note_on_c, 0, 69, 52
1, 12653, Note_off_c, 0, 80, 64
1, 12707, Note_on_c, 0, 80, 71
1, 12756, Note_off_c, 0, 78, 64
1, 12763, Note_on_c, 0, 76, 75
1, 12763, Note_on_c, 0, 68, 68
1, 12777, Note_off_c, 0, 80, 64
1, 12791, Note_off_c, 0, 69, 64
1, 12842, Note_on_c, 0, 80, 67
1, 12873, Note_off_c, 0, 76, 64
1, 12887, Note_off_c, 0, 68, 64
1, 12906, Note_on_c, 0, 66, 66
1, 12909, Note_on_c, 0, 75, 79
1, 12919, Note_off_c, 0, 80, 64
1, 12983, Note_on_c, 0, 80, 69
1, 12997, Note_off_c, 0, 66, 64
1, 13006, Note_off_c, 0, 75, 64
1, 13050, Note_on_c, 0, 64, 76
1, 13050, Note_on_c, 0, 73, 73
1, 13064, Note_off_c, 0, 80, 64
1, 13112, Note_on_c, 0, 80, 69
1, 13112, Note_off_c, 0, 73, 64
1, 13156, Note_off_c, 0, 64, 64
1, 13190, Note_on_c, 0, 63, 77
1, 13190, Note_on_c, 0, 72, 77
1, 13201, Note_off_c, 0, 80, 64
1, 13246, Note_off_c, 0, 63, 64
1, 13246, Note_off_c, 0, 72, 64
1, 13246, Note_on_c, 0, 80, 76
1, 13323, Note_on_c, 0, 61, 67
1, 13329, Note_off_c, 0, 80, 64
1, 13329, Note_on_c, 0, 69, 78
1, 13357, Note_off_c, 0, 61, 64
1, 13390, Note_off_c, 0, 69, 64
1, 13396, Note_on_c, 0, 79, 84
1, 13410, Control_c, 0, 64, 0
1, 13452, Note_off_c, 0, 79, 64
1, 13463, Note_on_c, 0, 60, 75
1, 13463, Note_on_c, 0, 56, 75
1, 13471, Note_on_c, 0, 68, 80
1, 13497, Note_off_c, 0, 60, 64
1, 13502, Note_off_c, 0, 56, 64
1, 13544, Note_on_c, 0, 80, 76
1, 13544, Note_off_c, 0, 68, 64
1, 13594, Note_off_c, 0, 80, 64
1, 13607, Note_on_c, 0, 61, 78
1, 13607, Note_on_c, 0, 69, 56
1, 13611, Note_on_c, 0, 56, 71
1, 13638, Note_off_c, 0, 61, 64
1, 13644, Note_off_c, 0, 56, 64
1, 13655, Note_off_c, 0, 69, 64
1, 13677, Note_on_c, 0, 79, 78
1, 13717, Note_off_c, 0, 79, 64
1, 13735, Note_on_c, 0, 68, 79
1, 13742, Note_on_c, 0, 60, 73
1, 13750, Note_on_c, 0, 56, 55
1, 13775, Note_off_c, 0, 60, 64
1, 13788, Note_off_c, 0, 56, 64
1, 13806, Note_on_c, 0, 80, 76
1, 13825, Note_off_c, 0, 68, 64
1, 13861, Note_off_c, 0, 80, 64
1, 13869, Note_on_c, 0, 61, 86
1, 13873, Note_on_c, 0, 56, 55
1, 13877, Note_on_c, 0, 69, 62
1, 13905, Note_off_c, 0, 61, 64
1, 13909, Note_off_c, 0, 56, 64
1, 13920, Note_off_c, 0, 69, 64
1, 13931, Note_on_c, 0, 79, 84
1, 13989, Note_off_c, 0, 79, 64
1, 13997, Note_on_c, 0, 68, 84
1, 13997, Note_on_c, 0, 60, 88
1, 14008, Note_on_c, 0, 56, 62
1, 14032, Note_off_c, 0, 60, 64
1, 14043, Note_off_c, 0, 56, 64
1, 14065, Note_on_c, 0, 80, 84
1, 14082, Note_off_c, 0, 68, 64
1, 14128, Note_on_c, 0, 69, 72
1, 14135, Note_on_c, 0, 56, 72
1, 14135, Note_on_c, 0, 61, 90
1, 14140, Note_off_c, 0, 80, 64
1, 14178, Note_off_c, 0, 61, 64
1, 14181, Note_off_c, 0, 56, 64
1, 14192, Note_on_c, 0, 79, 89
1, 14209, Note_off_c, 0, 69, 64
1, 14259, Note_off_c, 0, 79, 64
1, 14265, Note_on_c, 0, 68, 92
1, 14271, Note_on_c, 0, 60, 90
1, 14284, Note_on_c, 0, 56, 73
1, 14309, Note_off_c, 0, 60, 64
1, 14315, Note_off_c, 0, 56, 64
1, 14335, Note_on_c, 0, 80, 88
1, 14359, Note_off_c, 0, 68, 64
1, 14419, Note_off_c, 0, 80, 64
1, 14424, Note_on_c, 0, 61, 81
1, 14427, Note_on_c, 0, 69, 66
1, 14430, Note_on_c, 0, 56, 61
1, 14465, Note_off_c, 0, 56, 64
1, 14469, Note_off_c, 0, 61, 64
1, 14479, Note_on_c, 0, 79, 88
1, 14505, Note_off_c, 0, 69, 64
1, 14532, Note_off_c, 0, 79, 64
1, 14566, Note_on_c, 0, 68, 100
1, 14566, Note_on_c, 0, 80, 103
1, 14566, Note_on_c, 0, 60, 94
1, 14569, Note_on_c, 0, 56, 83
1, 14585, Control_c, 0, 64, 127
1, 14597, Note_off_c, 0, 60, 64
1, 14597, Note_off_c, 0, 56, 64
1, 14611, Note_off_c, 0, 68, 64
1, 14621, Note_off_c, 0, 80, 64
1, 14703, Control_c, 0, 64, 0
1, 14894, Note_on_c, 0, 56, 100
1, 14900, Note_on_c, 0, 44, 86
1, 14906, Note_on_c, 0, 32, 84
1, 16167, Control_c, 0, 64, 127
1, 16218, Note_off_c, 0, 44, 64
1, 16224, Note_off_c, 0, 56, 64
1, 16241, Note_off_c, 0, 32, 64
1, 16454, Control_c, 0, 64, 0
1, 16494, Note_on_c, 0, 37, 76
1, 16527, Note_off_c, 0, 37, 64
1, 16558, Note_on_c, 0, 44, 75
1, 16600, Note_off_c, 0, 44, 64
1, 16635, Note_on_c, 0, 49, 66
1, 16644, Note_on_c, 0, 44, 21
1, 16691, Note_off_c, 0, 49, 64
1, 16694, Note_off_c, 0, 44, 64
1, 16711, Note_on_c, 0, 52, 60
1, 16752, Note_off_c, 0, 52, 64
1, 16755, Note_on_c, 0, 37, 52
1, 16764, Note_on_c, 0, 56, 57
1, 16797, Note_off_c, 0, 37, 64
1, 16806, Note_off_c, 0, 56, 64
1, 16833, Note_on_c, 0, 49, 70
1, 16884, Note_on_c, 0, 52, 81
1, 16884, Note_on_c, 0, 44, 60
1, 16929, Note_off_c, 0, 49, 64
1, 16929, Note_off_c, 0, 44, 64
1, 16957, Note_on_c, 0, 56, 66
1, 16972, Note_off_c, 0, 52, 64
1, 17018, Note_on_c, 0, 37, 60
1, 17023, Note_on_c, 0, 61, 75
1, 17048, Note_off_c, 0, 56, 64
1, 17060, Note_off_c, 0, 37, 64
1, 17065, Note_off_c, 0, 61, 64
1, 17095, Note_on_c, 0, 52, 81
1, 17120, Note_on_c, 0, 44, 63
1, 17156, Note_on_c, 0, 56, 71
1, 17156, Note_off_c, 0, 52, 64
1, 17170, Note_off_c, 0, 44, 64
1, 17220, Note_on_c, 0, 61, 79
1, 17246, Note_off_c, 0, 56, 64
1, 17273, Note_on_c, 0, 37, 62
1, 17287, Note_on_c, 0, 64, 83
1, 17315, Note_off_c, 0, 37, 64
1, 17315, Note_off_c, 0, 64, 64
1, 17327, Note_off_c, 0, 61, 64
1, 17338, Note_on_c, 0, 56, 79
1, 17382, Note_on_c, 0, 44, 58
1, 17393, Note_on_c, 0, 61, 63
1, 17424, Note_off_c, 0, 56, 64
1, 17432, Note_off_c, 0, 44, 64
1, 17461, Note_on_c, 0, 64, 78
1, 17510, Note_off_c, 0, 61, 64
1, 17530, Note_on_c, 0, 68, 76
1, 17536, Note_on_c, 0, 37, 65
1, 17563, Note_off_c, 0, 64, 64
1, 17578, Note_off_c, 0, 37, 64
1, 17578, Note_on_c, 0, 61, 65
1, 17611, Note_off_c, 0, 68, 64
1, 17656, Note_on_c, 0, 44, 59
1, 17656, Note_on_c, 0, 64, 75
1, 17681, Note_off_c, 0, 61, 64
1, 17714, Note_off_c, 0, 44, 64
1, 17722, Note_on_c, 0, 68, 67
1, 17744, Note_off_c, 0, 64, 64
1, 17775, Note_on_c, 0, 73, 72
1, 17797, Note_on_c, 0, 37, 55
1, 17797, Note_off_c, 0, 68, 64
1, 17823, Note_off_c, 0, 73, 64
1, 17834, Note_off_c, 0, 37, 64
1, 17844, Note_on_c, 0, 64, 73
1, 17897, Note_on_c, 0, 68, 73
1, 17912, Note_off_c, 0, 64, 64
1, 17918, Note_on_c, 0, 44, 61
1, 17965, Note_off_c, 0, 44, 64
1, 17973, Note_on_c, 0, 73, 76
1, 17989, Note_off_c, 0, 68, 64
1, 18025, Note_on_c, 0, 76, 78
1, 18042, Note_on_c, 0, 37, 59
1, 18049, Note_off_c, 0, 76, 64
1, 18067, Note_off_c, 0, 73, 64
1, 18085, Note_off_c, 0, 37, 64
1, 18090, Note_on_c, 0, 76, 70
1, 18152, Note_on_c, 0, 80, 86
1, 18174, Note_on_c, 0, 44, 60
1, 18184, Note_off_c, 0, 76, 64
1, 18215, Note_off_c, 0, 44, 64
1, 18229, Note_on_c, 0, 85, 83
1, 18243, Note_off_c, 0, 80, 64
1, 18268, Note_off_c, 0, 85, 64
1, 18290, Note_on_c, 0, 85, 30
1, 18290, Note_on_c, 0, 76, 108
1, 18290, Note_on_c, 0, 88, 109
1, 18298, Note_on_c, 0, 49, 97
1, 18305, Note_on_c, 0, 37, 87
1, 18330, Note_off_c, 0, 85, 64
1, 18335, Control_c, 0, 64, 127
1, 18360, Note_off_c, 0, 37, 64
1, 18365, Note_off_c, 0, 49, 64
1, 18372, Note_off_c, 0, 76, 64
1, 18372, Note_off_c, 0, 88, 64
1, 18452, Note_on_c, 0, 76, 89
1, 18452, Note_on_c, 0, 88, 75
1, 18464, Note_on_c, 0, 44, 75
1, 18482, Note_off_c, 0, 88, 64
1, 18494, Note_off_c, 0, 44, 64
1, 18494, Note_off_c, 0, 76, 64
1, 18647, Control_c, 0, 64, 0
1, 18670, Note_on_c, 0, 34, 95
1, 18751, Note_off_c, 0, 34, 64
1, 18751, Note_on_c, 0, 52, 96
1, 18814, Control_c, 0, 64, 127
1, 18825, Note_on_c, 0, 55, 88
1, 18825, Note_on_c, 0, 49, 70
1, 18842, Note_off_c, 0, 52, 64
1, 18881, Note_off_c, 0, 49, 64
1, 18898, Note_on_c, 0, 61, 77
1, 18923, Note_off_c, 0, 55, 64
1, 18961, Note_on_c, 0, 64, 83
1, 18967, Note_on_c, 0, 46, 57
1, 19007, Control_c, 0, 64, 0
1, 19010, Note_off_c, 0, 61, 64
1, 19020, Note_off_c, 0, 46, 64
1, 19034, Note_on_c, 0, 55, 89
1, 19043, Note_off_c, 0, 64, 64
1, 19088, Note_on_c, 0, 49, 66
1, 19102, Note_on_c, 0, 61, 86
1, 19123, Note_off_c, 0, 55, 64
1, 19156, Note_off_c, 0, 49, 64
1, 19162, Note_on_c, 0, 64, 81
1, 19198, Control_c, 0, 64, 127
1, 19204, Note_off_c, 0, 61, 64
1, 19227, Note_on_c, 0, 46, 66
1, 19234, Note_on_c, 0, 67, 84
1, 19268, Note_off_c, 0, 64, 64
1, 19268, Note_off_c, 0, 67, 64
1, 19291, Note_off_c, 0, 46, 64
1, 19305, Note_on_c, 0, 61, 88
1, 19357, Note_on_c, 0, 49, 62
1, 19361, Note_on_c, 0, 64, 75
1, 19383, Note_off_c, 0, 61, 64
1, 19404, Note_off_c, 0, 49, 64
1, 19425, Control_c, 0, 64, 0
1, 19439, Note_on_c, 0, 67, 82
1, 19471, Note_off_c, 0, 64, 64
1, 19494, Note_on_c, 0, 46, 69
1, 19507, Note_on_c, 0, 73, 84
1, 19538, Note_off_c, 0, 67, 64
1, 19538, Note_off_c, 0, 46, 64
1, 19583, Note_on_c, 0, 64, 89
1, 19594, Control_c, 0, 64, 127
1, 19616, Note_off_c, 0, 73, 64
1, 19620, Note_on_c, 0, 49, 64
1, 19644, Note_on_c, 0, 67, 89
1, 19658, Note_off_c, 0, 64, 64
1, 19666, Note_off_c, 0, 49, 64
1, 19708, Note_on_c, 0, 73, 75
1, 19714, Control_c, 0, 64, 0
1, 19742, Note_off_c, 0, 67, 64
1, 19775, Note_on_c, 0, 46, 63
1, 19780, Note_on_c, 0, 76, 85
1, 19826, Note_off_c, 0, 73, 64
1, 19826, Note_off_c, 0, 46, 64
1, 19842, Note_on_c, 0, 67, 92
1, 19858, Control_c, 0, 64, 127
1, 19881, Note_off_c, 0, 76, 64
1, 19906, Note_on_c, 0, 49, 58
1, 19906, Note_on_c, 0, 73, 70
1, 19934, Note_off_c, 0, 67, 64
1, 19959, Note_off_c, 0, 49, 64
1, 19965, Note_on_c, 0, 76, 70
1, 20018, Note_off_c, 0, 73, 64
1, 20028, Note_on_c, 0, 79, 92
1, 20046, Note_on_c, 0, 46, 69
1, 20051, Note_off_c, 0, 76, 64
1, 20056, Note_off_c, 0, 79, 64
1, 20090, Note_on_c, 0, 73, 69
1, 20106, Note_off_c, 0, 46, 64
1, 20149, Note_on_c, 0, 76, 68
1, 20171, Note_on_c, 0, 49, 62
1, 20190, Note_off_c, 0, 73, 64
1, 20218, Note_off_c, 0, 49, 64
1, 20218, Note_on_c, 0, 79, 87
1, 20254, Control_c, 0, 64, 0
1, 20262, Note_off_c, 0, 76, 64
1, 20285, Note_on_c, 0, 85, 92
1, 20297, Note_on_c, 0, 46, 72
1, 20313, Note_off_c, 0, 79, 64
1, 20354, Note_on_c, 0, 76, 63
1, 20374, Note_off_c, 0, 85, 64
1, 20388, Note_off_c, 0, 46, 64
1, 20397, Control_c, 0, 64, 127
1, 20410, Note_on_c, 0, 79, 87
1, 20416, Note_on_c, 0, 49, 73
1, 20443, Note_off_c, 0, 76, 64
1, 20460, Note_off_c, 0, 49, 64
1, 20480, Note_on_c, 0, 85, 84
1, 20505, Control_c, 0, 64, 0
1, 20505, Note_off_c, 0, 79, 64
1, 20558, Note_on_c, 0, 76, 110
1, 20558, Note_on_c, 0, 88, 108
1, 20561, Note_on_c, 0, 46, 95
1, 20569, Note_on_c, 0, 34, 84
1, 20594, Note_off_c, 0, 34, 64
1, 20625, Note_off_c, 0, 46, 64
1, 20625, Note_off_c, 0, 85, 64
1, 20625, Control_c, 0, 64, 127
1, 20641, Note_off_c, 0, 88, 64
1, 20652, Note_off_c, 0, 76, 64
1, 20719, Note_on_c, 0, 49, 83
1, 20719, Note_on_c, 0, 76, 81
1, 20719, Note_on_c, 0, 88, 92
1, 20745, Note_off_c, 0, 88, 64
1, 20755, Note_off_c, 0, 49, 64
1, 20765, Note_off_c, 0, 76, 64
1, 20864, Control_c, 0, 64, 0
1, 20917, Note_on_c, 0, 31, 109
1, 21001, Note_off_c, 0, 31, 64
1, 21010, Note_on_c, 0, 51, 85
1, 21020, Control_c, 0, 64, 127
1, 21095, Note_on_c, 0, 58, 65
1, 21160, Note_on_c, 0, 61, 76
1, 21173, Note_off_c, 0, 51, 64
1, 21191, Note_off_c, 0, 58, 64
1, 21243, Note_on_c, 0, 63, 79
1, 21243, Note_on_c, 0, 43, 84
1, 21285, Note_off_c, 0, 61, 64
1, 21291, Note_off_c, 0, 63, 64
1, 21291, Note_off_c, 0, 43, 64
1, 21310, Note_on_c, 0, 58, 72
1, 21374, Note_on_c, 0, 51, 68
1, 21382, Note_on_c, 0, 61, 72
1, 21396, Note_off_c, 0, 58, 64
1, 21439, Note_off_c, 0, 51, 64
1, 21452, Note_on_c, 0, 63, 84
1, 21469, Note_off_c, 0, 61, 64
1, 21513, Note_on_c, 0, 70, 76
1, 21524, Note_on_c, 0, 43, 73
1, 21535, Note_off_c, 0, 63, 64
1, 21558, Note_off_c, 0, 43, 64
1, 21577, Note_on_c, 0, 61, 81
1, 21628, Note_off_c, 0, 70, 64
1, 21645, Note_on_c, 0, 63, 86
1, 21645, Note_on_c, 0, 51, 66
1, 21672, Note_off_c, 0, 61, 64
1, 21717, Note_off_c, 0, 51, 64
1, 21726, Note_on_c, 0, 70, 70
1, 21730, Note_off_c, 0, 63, 64
1, 21792, Note_on_c, 0, 73, 78
1, 21806, Note_on_c, 0, 43, 66
1, 21836, Note_off_c, 0, 70, 64
1, 21845, Note_off_c, 0, 43, 64
1, 21861, Note_on_c, 0, 63, 85
1, 21910, Note_off_c, 0, 73, 64
1, 21934, Note_on_c, 0, 51, 62
1, 21934, Note_on_c, 0, 70, 69
1, 21945, Note_off_c, 0, 63, 64
1, 21992, Note_off_c, 0, 51, 64
1, 22013, Note_on_c, 0, 73, 74
1, 22040, Note_off_c, 0, 70, 64
1, 22051, Control_c, 0, 64, 0
1, 22082, Note_on_c, 0, 75, 82
1, 22087, Note_on_c, 0, 43, 60
1, 22123, Note_off_c, 0, 73, 64
1, 22130, Note_off_c, 0, 43, 64
1, 22144, Note_on_c, 0, 70, 75
1, 22166, Note_off_c, 0, 75, 64
1, 22182, Control_c, 0, 64, 127
1, 22212, Note_on_c, 0, 51, 54
1, 22218, Note_on_c, 0, 73, 69
1, 22246, Note_off_c, 0, 70, 64
1, 22276, Note_on_c, 0, 75, 84
1, 22283, Note_off_c, 0, 51, 64
1, 22311, Note_off_c, 0, 73, 64
1, 22349, Note_on_c, 0, 82, 80
1, 22368, Note_on_c, 0, 43, 42
1, 22368, Note_off_c, 0, 75, 64
1, 22403, Note_on_c, 0, 73, 74
1, 22413, Note_off_c, 0, 43, 64
1, 22474, Note_off_c, 0, 82, 64
1, 22480, Note_on_c, 0, 75, 78
1, 22485, Note_on_c, 0, 51, 46
1, 22499, Note_off_c, 0, 73, 64
1, 22545, Note_off_c, 0, 51, 64
1, 22548, Note_on_c, 0, 82, 61
1, 22583, Note_off_c, 0, 75, 64
1, 22602, Control_c, 0, 64, 0
1, 22617, Note_on_c, 0, 85, 90
1, 22642, Note_off_c, 0, 82, 64
1, 22642, Note_on_c, 0, 43, 50
1, 22690, Note_on_c, 0, 82, 64
1, 22725, Note_off_c, 0, 43, 64
1, 22745, Note_off_c, 0, 85, 64
1, 22745, Control_c, 0, 64, 127
1, 22783, Note_on_c, 0, 75, 69
1, 22792, Note_on_c, 0, 51, 44
1, 22822, Note_off_c, 0, 82, 64
1, 22840, Note_on_c, 0, 73, 67
1, 22850, Note_off_c, 0, 51, 64
1, 22867, Note_off_c, 0, 75, 64
1, 22915, Note_off_c, 0, 73, 64
1, 22928, Note_on_c, 0, 82, 77
1, 22946, Note_on_c, 0, 43, 40
1, 22999, Note_off_c, 0, 43, 64
1, 23018, Note_on_c, 0, 75, 61
1, 23023, Note_off_c, 0, 82, 64
1, 23107, Note_on_c, 0, 73, 50
1, 23107, Note_on_c, 0, 51, 33
1, 23132, Note_off_c, 0, 75, 64
1, 23154, Control_c, 0, 64, 0
1, 23165, Note_off_c, 0, 51, 64
1, 23165, Note_on_c, 0, 70, 62
1, 23182, Note_off_c, 0, 73, 64
1, 23258, Note_off_c, 0, 70, 64
1, 23275, Note_on_c, 0, 71, 76
1, 23279, Note_on_c, 0, 44, 43
1, 23397, Note_on_c, 0, 51, 40
1, 23428, Control_c, 0, 64, 127
1, 23435, Note_off_c, 0, 71, 64
1, 23446, Note_off_c, 0, 44, 64
1, 23450, Note_off_c, 0, 51, 64
1, 23503, Note_on_c, 0, 47, 15
1, 23566, Note_off_c, 0, 47, 64
1, 23598, Note_on_c, 0, 51, 25
1, 23662, Note_off_c, 0, 51, 64
1, 23736, Note_on_c, 0, 75, 79
1, 23753, Control_c, 0, 64, 0
1, 23753, Note_on_c, 0, 44, 35
1, 23856, Note_on_c, 0, 51, 23
1, 23892, Note_off_c, 0, 44, 64
1, 23909, Note_on_c, 0, 47, 37
1, 23914, Note_off_c, 0, 51, 64
1, 23920, Control_c, 0, 64, 127
1, 23957, Note_off_c, 0, 47, 64
1, 23983, Note_on_c, 0, 51, 34
1, 24060, Note_off_c, 0, 51, 64
1, 24071, Note_on_c, 0, 44, 46
1, 24132, Note_off_c, 0, 44, 64
1, 24177, Note_on_c, 0, 51, 8
1, 24218, Note_off_c, 0, 51, 64
1, 24232, Note_on_c, 0, 47, 30
1, 24290, Note_off_c, 0, 47, 64
1, 24313, Note_on_c, 0, 51, 23
1, 24421, Note_off_c, 0, 51, 64
1, 24439, Note_on_c, 0, 71, 60
1, 24467, Note_on_c, 0, 44, 33
1, 24495, Control_c, 0, 64, 0
1, 24522, Note_off_c, 0, 75, 64
1, 24569, Note_on_c, 0, 51, 25
1, 24626, Note_off_c, 0, 51, 64
1, 24626, Control_c, 0, 64, 127
1, 24647, Note_on_c, 0, 68, 52
1, 24650, Note_on_c, 0, 47, 26
1, 24681, Note_off_c, 0, 71, 64
1, 24697, Note_off_c, 0, 68, 64
1, 24720, Note_off_c, 0, 47, 64
1, 24725, Note_on_c, 0, 67, 59
1, 24758, Note_on_c, 0, 51, 23
1, 24792, Note_off_c, 0, 67, 64
1, 24792, Note_on_c, 0, 68, 62
1, 24821, Note_off_c, 0, 51, 64
1, 24864, Note_on_c, 0, 70, 51
1, 24864, Note_off_c, 0, 68, 64
1, 24867, Note_off_c, 0, 44, 64
1, 24867, Control_c, 0, 64, 0
1, 24884, Note_on_c, 0, 46, 22
1, 24931, Note_on_c, 0, 68, 59
1, 24982, Note_off_c, 0, 70, 64
1, 24996, Note_on_c, 0, 51, 36
1, 25057, Note_off_c, 0, 51, 64
1, 25098, Note_on_c, 0, 49, 38
1, 25130, Control_c, 0, 64, 127
1, 25163, Note_off_c, 0, 46, 64
1, 25163, Note_off_c, 0, 49, 64
1, 25196, Note_on_c, 0, 51, 34
1, 25250, Note_off_c, 0, 51, 64
1, 25280, Note_on_c, 0, 67, 50
1, 25307, Note_on_c, 0, 46, 21
1, 25335, Control_c, 0, 64, 0
1, 25358, Note_off_c, 0, 68, 64
1, 25391, Note_on_c, 0, 51, 37
1, 25428, Note_off_c, 0, 46, 64
1, 25439, Note_off_c, 0, 51, 64
1, 25453, Note_on_c, 0, 49, 41
1, 25478, Control_c, 0, 64, 127
1, 25511, Note_off_c, 0, 49, 64
1, 25544, Note_off_c, 0, 67, 64
1, 25558, Note_on_c, 0, 51, 27
1, 25617, Note_on_c, 0, 46, 42
1, 25622, Note_off_c, 0, 51, 64
1, 25679, Note_off_c, 0, 46, 64
1, 25695, Note_on_c, 0, 51, 39
1, 25747, Note_on_c, 0, 67, 77
1, 25756, Note_off_c, 0, 51, 64
1, 25781, Note_on_c, 0, 49, 40
1, 25840, Note_off_c, 0, 49, 64
1, 25870, Note_on_c, 0, 51, 35
1, 25885, Control_c, 0, 64, 0
1, 25913, Note_on_c, 0, 75, 67
1, 25920, Note_off_c, 0, 51, 64
1, 25937, Note_on_c, 0, 46, 34
1, 25937, Note_off_c, 0, 67, 64
1, 26002, Note_on_c, 0, 51, 37
1, 26054, Control_c, 0, 64, 127
1, 26076, Note_off_c, 0, 51, 64
1, 26094, Note_on_c, 0, 49, 38
1, 26149, Note_off_c, 0, 49, 64
1, 26157, Note_on_c, 0, 67, 63
1, 26166, Note_off_c, 0, 46, 64
1, 26197, Note_on_c, 0, 51, 34
1, 26204, Note_off_c, 0, 67, 64
1, 26233, Note_on_c, 0, 70, 57
1, 26233, Control_c, 0, 64, 0
1, 26246, Note_off_c, 0, 75, 64
1, 26250, Note_off_c, 0, 51, 64
1, 26264, Note_on_c, 0, 47, 26
1, 26321, Note_off_c, 0, 47, 64
1, 26349, Note_on_c, 0, 51, 29
1, 26399, Note_off_c, 0, 51, 64
1, 26402, Control_c, 0, 64, 127
1, 26406, Note_on_c, 0, 47, 22
1, 26470, Note_off_c, 0, 47, 64
1, 26491, Note_on_c, 0, 51, 34
1, 26548, Note_off_c, 0, 51, 64
1, 26558, Note_on_c, 0, 68, 54
1, 26587, Note_on_c, 0, 47, 18
1, 26631, Note_off_c, 0, 70, 64
1, 26644, Note_off_c, 0, 47, 64
1, 26656, Note_on_c, 0, 51, 33
1, 26701, Control_c, 0, 64, 0
1, 26714, Note_off_c, 0, 51, 64
1, 26714, Note_on_c, 0, 47, 34
1, 26787, Note_off_c, 0, 47, 64
1, 26800, Note_on_c, 0, 51, 36
1, 26809, Control_c, 0, 64, 127
1, 26867, Note_off_c, 0, 51, 64
1, 26873, Note_on_c, 0, 47, 40
1, 26910, Note_off_c, 0, 68, 64
1, 26929, Note_off_c, 0, 47, 64
1, 26948, Note_on_c, 0, 51, 42
1, 27002, Note_on_c, 0, 68, 72
1, 27007, Note_off_c, 0, 51, 64
1, 27023, Note_on_c, 0, 47, 49
1, 27073, Note_off_c, 0, 47, 64
1, 27105, Note_on_c, 0, 51, 49
1, 27157, Note_off_c, 0, 51, 64
1, 27163, Note_off_c, 0, 68, 64
1, 27166, Note_on_c, 0, 75, 73
1, 27166, Control_c, 0, 64, 0
1, 27185, Note_on_c, 0, 47, 55
1, 27236, Note_off_c, 0, 47, 64
1, 27266, Note_on_c, 0, 51, 44
1, 27311, Note_off_c, 0, 51, 64
1, 27311, Control_c, 0, 64, 127
1, 27314, Note_on_c, 0, 47, 45
1, 27392, Note_on_c, 0, 51, 46
1, 27392, Note_on_c, 0, 68, 53
1, 27395, Note_off_c, 0, 47, 64
1, 27419, Note_off_c, 0, 75, 64
1, 27444, Note_off_c, 0, 51, 64
1, 27444, Control_c, 0, 64, 0
1, 27473, Note_on_c, 0, 71, 81
1, 27473, Note_on_c, 0, 43, 62
1, 27494, Note_off_c, 0, 68, 64
1, 27539, Note_off_c, 0, 43, 64
1, 27567, Note_on_c, 0, 51, 48
1, 27623, Control_c, 0, 64, 127
1, 27636, Note_off_c, 0, 51, 64
1, 27651, Note_on_c, 0, 43, 33
1, 27707, Note_off_c, 0, 43, 64
1, 27736, Note_on_c, 0, 51, 38
1, 27795, Note_off_c, 0, 51, 64
1, 27803, Note_on_c, 0, 70, 48
1, 27824, Note_on_c, 0, 43, 35
1, 27840, Control_c, 0, 64, 0
1, 27859, Note_off_c, 0, 71, 64
1, 27877, Note_off_c, 0, 43, 64
1, 27899, Note_on_c, 0, 51, 41
1, 27957, Note_off_c, 0, 51, 64
1, 27974, Note_on_c, 0, 43, 21
1, 27984, Control_c, 0, 64, 127
1, 28037, Note_off_c, 0, 43, 64
1, 28048, Note_on_c, 0, 51, 31
1, 28119, Note_on_c, 0, 43, 32
1, 28129, Note_off_c, 0, 51, 64
1, 28185, Note_off_c, 0, 70, 64
1, 28189, Note_off_c, 0, 43, 64
1, 28216, Note_on_c, 0, 51, 38
1, 28258, Note_on_c, 0, 70, 27
1, 28272, Note_off_c, 0, 51, 64
1, 28292, Note_on_c, 0, 43, 30
1, 28363, Note_off_c, 0, 43, 64
1, 28389, Note_on_c, 0, 51, 35
1, 28452, Control_c, 0, 64, 0
1, 28452, Note_off_c, 0, 51, 64
1, 28470, Note_on_c, 0, 75, 61
1, 28470, Note_on_c, 0, 43, 37
1, 28498, Note_off_c, 0, 70, 64
1, 28534, Note_off_c, 0, 43, 64
1, 28553, Note_on_c, 0, 51, 43
1, 28583, Control_c, 0, 64, 127
1, 28617, Note_off_c, 0, 51, 64
1, 28622, Note_on_c, 0, 43, 30
1, 28712, Note_off_c, 0, 43, 64
1, 28723, Note_on_c, 0, 51, 34
1, 28729, Note_on_c, 0, 70, 46
1, 28739, Control_c, 0, 64, 0
1, 28746, Note_off_c, 0, 75, 64
1, 28778, Note_off_c, 0, 51, 64
1, 28782, Note_off_c, 0, 70, 64
1, 28823, Note_on_c, 0, 44, 40
1, 28823, Note_on_c, 0, 71, 66
1, 28906, Control_c, 0, 64, 127
1, 28915, Note_off_c, 0, 71, 64
1, 28948, Note_on_c, 0, 51, 38
1, 28948, Note_off_c, 0, 44, 64
1, 29004, Note_off_c, 0, 51, 64
1, 29037, Note_on_c, 0, 87, 72
1, 29040, Note_on_c, 0, 75, 64
1, 29060, Note_on_c, 0, 47, 28
1, 29119, Note_off_c, 0, 47, 64
1, 29141, Note_on_c, 0, 51, 47
1, 29194, Note_off_c, 0, 51, 64
1, 29216, Note_off_c, 0, 75, 64
1, 29216, Note_on_c, 0, 44, 44
1, 29225, Note_off_c, 0, 87, 64
1, 29281, Note_off_c, 0, 44, 64
1, 29299, Note_on_c, 0, 51, 37
1, 29325, Control_c, 0, 64, 0
1, 29352, Note_off_c, 0, 51, 64
1, 29352, Note_on_c, 0, 87, 65
1, 29358, Note_on_c, 0, 75, 58
1, 29369, Note_on_c, 0, 47, 54
1, 29417, Note_off_c, 0, 47, 64
1, 29456, Note_on_c, 0, 51, 50
1, 29481, Control_c, 0, 64, 127
1, 29501, Note_off_c, 0, 51, 64
1, 29512, Note_on_c, 0, 44, 73
1, 29539, Note_off_c, 0, 75, 64
1, 29542, Note_off_c, 0, 87, 64
1, 29553, Control_c, 0, 64, 0
1, 29598, Note_off_c, 0, 44, 64
1, 29598, Note_on_c, 0, 51, 52
1, 29648, Note_off_c, 0, 51, 64
1, 29653, Note_on_c, 0, 87, 82
1, 29653, Note_on_c, 0, 75, 78
1, 29668, Note_on_c, 0, 47, 59
1, 29692, Note_off_c, 0, 75, 64
1, 29692, Note_off_c, 0, 87, 64
1, 29718, Note_off_c, 0, 47, 64
1, 29748, Note_on_c, 0, 51, 55
1, 29806, Note_off_c, 0, 51, 64
1, 29815, Note_on_c, 0, 83, 107
1, 29815, Note_on_c, 0, 44, 63
1, 29818, Note_on_c, 0, 71, 85
1, 29838, Note_off_c, 0, 83, 64
1, 29849, Note_off_c, 0, 71, 64
1, 29887, Note_on_c, 0, 51, 50
1, 29901, Note_off_c, 0, 44, 64
1, 29959, Note_off_c, 0, 51, 64
1, 29959, Note_on_c, 0, 68, 83
1, 29959, Note_on_c, 0, 80, 89
1, 29969, Note_on_c, 0, 47, 63
1, 30002, Note_off_c, 0, 68, 64
1, 30023, Note_off_c, 0, 80, 64
1, 30023, Note_off_c, 0, 47, 64
1, 30043, Note_on_c, 0, 51, 56
1, 30118, Note_on_c, 0, 68, 81
1, 30122, Note_on_c, 0, 80, 88
1, 30122, Note_off_c, 0, 51, 64
1, 30130, Note_on_c, 0, 46, 50
1, 30197, Note_on_c, 0, 51, 45
1, 30214, Note_off_c, 0, 80, 64
1, 30219, Note_off_c, 0, 68, 64
1, 30228, Note_off_c, 0, 46, 64
1, 30289, Note_on_c, 0, 67, 69
1, 30289, Note_on_c, 0, 79, 78
1, 30294, Note_on_c, 0, 49, 54
1, 30299, Note_off_c, 0, 51, 64
1, 30363, Note_off_c, 0, 49, 64
1, 30370, Note_on_c, 0, 51, 45
1, 30439, Note_off_c, 0, 51, 64
1, 30439, Note_on_c, 0, 46, 56
1, 30459, Note_off_c, 0, 67, 64
1, 30473, Note_off_c, 0, 79, 64
1, 30476, Control_c, 0, 64, 127
1, 30494, Note_off_c, 0, 46, 64
1, 30519, Note_on_c, 0, 51, 50
1, 30559, Control_c, 0, 64, 0
1, 30587, Note_on_c, 0, 79, 83
1, 30591, Note_off_c, 0, 51, 64
1, 30591, Note_on_c, 0, 67, 66
1, 30601, Note_on_c, 0, 49, 59
1, 30648, Note_off_c, 0, 49, 64
1, 30682, Note_on_c, 0, 51, 48
1, 30728, Control_c, 0, 64, 127
1, 30731, Note_off_c, 0, 51, 64
1, 30743, Note_on_c, 0, 46, 53
1, 30743, Note_off_c, 0, 67, 64
1, 30763, Note_off_c, 0, 79, 64
1, 30787, Control_c, 0, 64, 0
1, 30792, Note_off_c, 0, 46, 64
1, 30813, Note_on_c, 0, 51, 60
1, 30884, Note_off_c, 0, 51, 64
1, 30891, Note_on_c, 0, 67, 91
1, 30891, Note_on_c, 0, 79, 100
1, 30898, Note_on_c, 0, 49, 66
1, 30919, Note_off_c, 0, 67, 64
1, 30927, Note_off_c, 0, 79, 64
1, 30960, Note_off_c, 0, 49, 64
1, 30974, Note_on_c, 0, 51, 56
1, 31033, Note_off_c, 0, 51, 64
1, 31061, Note_on_c, 0, 46, 54
1, 31064, Note_on_c, 0, 87, 97
1, 31064, Note_on_c, 0, 75, 95
1, 31097, Note_off_c, 0, 75, 64
1, 31097, Note_off_c, 0, 87, 64
1, 31135, Note_off_c, 0, 46, 64
1, 31135, Note_on_c, 0, 51, 66
1, 31210, Note_off_c, 0, 51, 64
1, 31217, Note_on_c, 0, 49, 68
1, 31230, Note_on_c, 0, 79, 97
1, 31230, Note_on_c, 0, 67, 93
1, 31260, Note_off_c, 0, 67, 64
1, 31267, Note_off_c, 0, 79, 64
1, 31303, Note_on_c, 0, 51, 57
1, 31310, Note_off_c, 0, 49, 64
1, 31378, Note_on_c, 0, 82, 95
1, 31378, Note_on_c, 0, 70, 90
1, 31384, Note_on_c, 0, 47, 66
1, 31387, Note_off_c, 0, 51, 64
1, 31439, Note_off_c, 0, 47, 64
1, 31439, Note_off_c, 0, 70, 64
1, 31447, Control_c, 0, 64, 127
1, 31450, Note_off_c, 0, 82, 64
1, 31465, Note_on_c, 0, 51, 56
1, 31506, Control_c, 0, 64, 0
1, 31544, Note_on_c, 0, 80, 79
1, 31544, Note_on_c, 0, 68, 72
1, 31547, Note_on_c, 0, 47, 60
1, 31554, Note_off_c, 0, 51, 64
1, 31598, Note_off_c, 0, 47, 64
1, 31618, Note_on_c, 0, 51, 58
1, 31687, Note_off_c, 0, 51, 64
1, 31687, Control_c, 0, 64, 127
1, 31698, Note_on_c, 0, 47, 59
1, 31726, Note_off_c, 0, 68, 64
1, 31738, Note_off_c, 0, 80, 64
1, 31743, Note_off_c, 0, 47, 64
1, 31767, Note_on_c, 0, 51, 56
1, 31806, Control_c, 0, 64, 0
1, 31838, Note_on_c, 0, 68, 68
1, 31838, Note_on_c, 0, 80, 76
1, 31845, Note_off_c, 0, 51, 64
1, 31857, Note_on_c, 0, 47, 72
1, 31895, Note_off_c, 0, 47, 64
1, 31929, Note_on_c, 0, 51, 56
1, 31987, Control_c, 0, 64, 127
1, 32004, Note_on_c, 0, 47, 78
1, 32016, Note_off_c, 0, 51, 64
1, 32024, Note_off_c, 0, 68, 64
1, 32029, Note_off_c, 0, 80, 64
1, 32043, Note_off_c, 0, 47, 64
1, 32043, Control_c, 0, 64, 0
1, 32069, Note_on_c, 0, 51, 65
1, 32127, Note_on_c, 0, 68, 88
1, 32133, Note_on_c, 0, 80, 92
1, 32152, Note_on_c, 0, 47, 81
1, 32157, Note_off_c, 0, 51, 64
1, 32188, Note_off_c, 0, 68, 64
1, 32199, Note_off_c, 0, 47, 64
1, 32199, Control_c, 0, 64, 127
1, 32217, Note_off_c, 0, 80, 64
1, 32222, Note_on_c, 0, 51, 61
1, 32222, Control_c, 0, 64, 0
1, 32291, Note_on_c, 0, 87, 97
1, 32291, Note_on_c, 0, 75, 91
1, 32300, Note_on_c, 0, 47, 81
1, 32309, Note_off_c, 0, 51, 64
1, 32316, Note_off_c, 0, 87, 64
1, 32328, Note_off_c, 0, 75, 64
1, 32363, Note_on_c, 0, 51, 69
1, 32363, Note_off_c, 0, 47, 64
1, 32440, Note_on_c, 0, 47, 71
1, 32445, Note_on_c, 0, 80, 93
1, 32445, Note_on_c, 0, 68, 88
1, 32451, Note_off_c, 0, 51, 64
1, 32483, Note_off_c, 0, 68, 64
1, 32504, Note_on_c, 0, 51, 75
1, 32531, Note_off_c, 0, 80, 64
1, 32536, Note_off_c, 0, 47, 64
1, 32584, Note_off_c, 0, 51, 64
1, 32597, Note_on_c, 0, 83, 122
1, 32600, Note_on_c, 0, 71, 103
1, 32603, Note_on_c, 0, 43, 84
1, 32634, Note_off_c, 0, 71, 64
1, 32671, Note_off_c, 0, 43, 64
1, 32671, Control_c, 0, 64, 127
1, 32679, Note_on_c, 0, 51, 62
1, 32684, Note_off_c, 0, 83, 64
1, 32752, Control_c, 0, 64, 0
1, 32757, Note_on_c, 0, 82, 91
1, 32757, Note_on_c, 0, 70, 84
1, 32760, Note_off_c, 0, 51, 64
1, 32773, Note_on_c, 0, 43, 81
1, 32820, Note_off_c, 0, 43, 64
1, 32840, Note_on_c, 0, 51, 51
1, 32897, Control_c, 0, 64, 127
1, 32921, Note_off_c, 0, 51, 64
1, 32927, Note_off_c, 0, 70, 64
1, 32927, Note_on_c, 0, 43, 81
1, 32938, Note_off_c, 0, 82, 64
1, 32990, Note_off_c, 0, 43, 64
1, 32990, Note_on_c, 0, 51, 55
1, 33065, Control_c, 0, 64, 0
1, 33069, Note_off_c, 0, 51, 64
1, 33069, Note_on_c, 0, 70, 61
1, 33069, Note_on_c, 0, 82, 73
1, 33080, Note_on_c, 0, 43, 73
1, 33149, Note_on_c, 0, 51, 51
1, 33158, Note_off_c, 0, 43, 64
1, 33210, Control_c, 0, 64, 127
1, 33228, Note_on_c, 0, 43, 68
1, 33232, Note_off_c, 0, 51, 64
1, 33284, Note_off_c, 0, 82, 64
1, 33284, Note_off_c, 0, 70, 64
1, 33295, Note_on_c, 0, 51, 58
1, 33308, Note_off_c, 0, 43, 64
1, 33367, Note_on_c, 0, 70, 79
1, 33370, Note_off_c, 0, 51, 64
1, 33370, Note_on_c, 0, 82, 83
1, 33381, Note_on_c, 0, 43, 78
1, 33423, Note_off_c, 0, 70, 64
1, 33450, Note_off_c, 0, 82, 64
1, 33454, Note_on_c, 0, 51, 67
1, 33464, Note_off_c, 0, 43, 64
1, 33495, Control_c, 0, 64, 0
1, 33520, Note_on_c, 0, 75, 95
1, 33520, Note_on_c, 0, 87, 99
1, 33534, Note_off_c, 0, 51, 64
1, 33534, Note_on_c, 0, 43, 75
1, 33557, Note_off_c, 0, 87, 64
1, 33576, Note_off_c, 0, 75, 64
1, 33581, Control_c, 0, 64, 127
1, 33589, Note_on_c, 0, 51, 73
1, 33615, Note_off_c, 0, 43, 64
1, 33640, Control_c, 0, 64, 0
1, 33662, Note_off_c, 0, 51, 64
1, 33670, Note_on_c, 0, 43, 76
1, 33670, Note_on_c, 0, 70, 93
1, 33674, Note_on_c, 0, 82, 90
1, 33718, Note_off_c, 0, 70, 64
1, 33729, Note_on_c, 0, 51, 62
1, 33757, Note_off_c, 0, 43, 64
1, 33765, Note_off_c, 0, 82, 64
1, 33809, Note_off_c, 0, 51, 64
1, 33832, Note_on_c, 0, 84, 115
1, 33832, Note_on_c, 0, 72, 106
1, 33838, Note_on_c, 0, 42, 101
1, 33871, Control_c, 0, 64, 127
1, 33918, Note_on_c, 0, 51, 74
1, 33955, Note_off_c, 0, 42, 64
1, 33976, Note_on_c, 0, 44, 76
1, 34001, Note_off_c, 0, 51, 64
1, 34035, Control_c, 0, 64, 0
1, 34057, Note_on_c, 0, 51, 77
1, 34069, Note_off_c, 0, 44, 64
1, 34133, Note_off_c, 0, 51, 64
1, 34133, Note_on_c, 0, 42, 90
1, 34180, Control_c, 0, 64, 127
1, 34216, Note_on_c, 0, 51, 69
1, 34231, Note_off_c, 0, 42, 64
1, 34289, Note_off_c, 0, 72, 64
1, 34292, Note_on_c, 0, 44, 84
1, 34292, Note_off_c, 0, 51, 64
1, 34297, Note_off_c, 0, 84, 64
1, 34369, Note_on_c, 0, 51, 76
1, 34378, Note_off_c, 0, 44, 64
1, 34395, Control_c, 0, 64, 0
1, 34442, Note_on_c, 0, 85, 104
1, 34442, Note_on_c, 0, 73, 97
1, 34447, Note_off_c, 0, 51, 64
1, 34464, Note_on_c, 0, 40, 104
1, 34529, Note_off_c, 0, 40, 64
1, 34537, Note_on_c, 0, 49, 83
1, 34564, Control_c, 0, 64, 127
1, 34604, Note_on_c, 0, 44, 83
1, 34617, Note_off_c, 0, 49, 64
1, 34684, Note_on_c, 0, 49, 62
1, 34684, Note_off_c, 0, 44, 64
1, 34752, Note_off_c, 0, 49, 64
1, 34757, Note_off_c, 0, 85, 64
1, 34757, Note_on_c, 0, 40, 101
1, 34809, Note_off_c, 0, 73, 64
1, 34834, Note_off_c, 0, 40, 64
1, 34838, Note_on_c, 0, 49, 78
1, 34910, Note_on_c, 0, 44, 84
1, 34910, Note_off_c, 0, 49, 64
1, 34999, Note_on_c, 0, 49, 63
1, 35010, Note_off_c, 0, 44, 64
1, 35030, Control_c, 0, 64, 0
1, 35064, Note_on_c, 0, 70, 94
1, 35068, Note_on_c, 0, 82, 91
1, 35078, Note_off_c, 0, 49, 64
1, 35089, Note_on_c, 0, 40, 99
1, 35128, Note_on_c, 0, 83, 105
1, 35146, Note_off_c, 0, 82, 64
1, 35171, Note_on_c, 0, 49, 66
1, 35197, Note_on_c, 0, 82, 61
1, 35230, Note_off_c, 0, 40, 64
1, 35245, Control_c, 0, 64, 127
1, 35258, Note_on_c, 0, 42, 66
1, 35262, Note_off_c, 0, 83, 64
1, 35262, Note_off_c, 0, 49, 64
1, 35277, Note_on_c, 0, 80, 78
1, 35302, Note_off_c, 0, 82, 64
1, 35348, Note_on_c, 0, 82, 84
1, 35358, Note_on_c, 0, 49, 73
1, 35372, Note_off_c, 0, 42, 64
1, 35434, Note_off_c, 0, 70, 64
1, 35437, Control_c, 0, 64, 0
1, 35453, Note_on_c, 0, 71, 103
1, 35453, Note_on_c, 0, 83, 119
1, 35453, Note_off_c, 0, 49, 64
1, 35462, Note_on_c, 0, 39, 87
1, 35503, Note_off_c, 0, 80, 64
1, 35515, Note_off_c, 0, 82, 64
1, 35545, Note_on_c, 0, 47, 76
1, 35595, Note_off_c, 0, 39, 64
1, 35620, Note_on_c, 0, 42, 65
1, 35632, Note_off_c, 0, 47, 64
1, 35677, Control_c, 0, 64, 127
1, 35687, Note_on_c, 0, 47, 73
1, 35709, Note_off_c, 0, 42, 64
1, 35762, Control_c, 0, 64, 0
1, 35776, Note_off_c, 0, 47, 64
1, 35779, Note_on_c, 0, 39, 84
1, 35858, Note_on_c, 0, 47, 45
1, 35863, Note_off_c, 0, 39, 64
1, 35918, Control_c, 0, 64, 127
1, 35929, Note_on_c, 0, 42, 65
1, 35936, Note_off_c, 0, 47, 64
1, 35977, Control_c, 0, 64, 0
1, 36004, Note_on_c, 0, 47, 57
1, 36008, Note_off_c, 0, 42, 64
1, 36072, Control_c, 0, 64, 127
1, 36078, Note_off_c, 0, 83, 64
1, 36078, Note_on_c, 0, 39, 77
1, 36086, Note_off_c, 0, 47, 64
1, 36097, Note_off_c, 0, 71, 64
1, 36136, Note_on_c, 0, 47, 72
1, 36175, Note_off_c, 0, 39, 64
1, 36219, Note_off_c, 0, 47, 64
1, 36228, Note_on_c, 0, 42, 81
1, 36308, Note_on_c, 0, 47, 74
1, 36325, Control_c, 0, 64, 0
1, 36331, Note_off_c, 0, 42, 64
1, 36379, Note_on_c, 0, 80, 106
1, 36384, Note_on_c, 0, 68, 94
1, 36390, Note_on_c, 0, 38, 95
1, 36390, Note_off_c, 0, 47, 64
1, 36470, Note_on_c, 0, 47, 50
1, 36498, Note_off_c, 0, 38, 64
1, 36539, Note_on_c, 0, 40, 87
1, 36539, Note_off_c, 0, 47, 64
1, 36576, Control_c, 0, 64, 127
1, 36607, Note_off_c, 0, 40, 64
1, 36623, Note_on_c, 0, 47, 60
1, 36684, Note_off_c, 0, 47, 64
1, 36706, Note_on_c, 0, 38, 83
1, 36796, Note_off_c, 0, 38, 64
1, 36796, Note_on_c, 0, 47, 64
1, 36847, Note_off_c, 0, 47, 64
1, 36852, Note_off_c, 0, 68, 64
1, 36871, Note_on_c, 0, 40, 82
1, 36921, Note_off_c, 0, 80, 64
1, 36941, Note_off_c, 0, 40, 64
1, 36949, Note_on_c, 0, 47, 71
1, 36971, Control_c, 0, 64, 0
1, 37013, Note_off_c, 0, 47, 64
1, 37024, Note_on_c, 0, 81, 108
1, 37030, Note_on_c, 0, 69, 94
1, 37033, Note_on_c, 0, 37, 89
1, 37114, Note_on_c, 0, 45, 74
1, 37150, Note_off_c, 0, 37, 64
1, 37197, Note_on_c, 0, 40, 86
1, 37206, Note_off_c, 0, 45, 64
1, 37236, Control_c, 0, 64, 127
1, 37269, Note_on_c, 0, 45, 55
1, 37283, Note_off_c, 0, 40, 64
1, 37340, Note_off_c, 0, 45, 64
1, 37351, Note_on_c, 0, 37, 83
1, 37432, Note_on_c, 0, 45, 52
1, 37440, Note_off_c, 0, 37, 64
1, 37462, Note_off_c, 0, 81, 64
1, 37489, Note_off_c, 0, 45, 64
1, 37507, Note_off_c, 0, 69, 64
1, 37514, Note_on_c, 0, 40, 87
1, 37568, Note_on_c, 0, 45, 56
1, 37590, Note_off_c, 0, 40, 64
1, 37618, Control_c, 0, 64, 0
1, 37637, Note_off_c, 0, 45, 64
1, 37660, Note_on_c, 0, 79, 108
1, 37663, Note_on_c, 0, 67, 101
1, 37668, Note_on_c, 0, 37, 95
1, 37690, Note_off_c, 0, 67, 64
1, 37699, Note_on_c, 0, 69, 27
1, 37751, Control_c, 0, 64, 127
1, 37754, Note_off_c, 0, 69, 64
1, 37757, Note_on_c, 0, 80, 83
1, 37760, Note_on_c, 0, 46, 61
1, 37807, Note_off_c, 0, 37, 64
1, 37830, Note_on_c, 0, 39, 69
1, 37835, Note_off_c, 0, 80, 64
1, 37858, Note_off_c, 0, 46, 64
1, 37877, Note_on_c, 0, 77, 82
1, 37890, Note_off_c, 0, 79, 64
1, 37932, Note_on_c, 0, 46, 55
1, 37932, Note_on_c, 0, 79, 96
1, 37986, Note_off_c, 0, 77, 64
1, 38001, Note_off_c, 0, 39, 64
1, 38022, Note_off_c, 0, 46, 64
1, 38036, Note_on_c, 0, 78, 9
1, 38041, Note_on_c, 0, 68, 92
1, 38046, Note_on_c, 0, 80, 101
1, 38050, Note_on_c, 0, 35, 103
1, 38075, Control_c, 0, 64, 0
1, 38078, Note_off_c, 0, 79, 64
1, 38100, Note_off_c, 0, 78, 64
1, 38130, Note_on_c, 0, 44, 84
1, 38219, Note_off_c, 0, 44, 64
1, 38219, Note_on_c, 0, 39, 73
1, 38248, Note_off_c, 0, 35, 64
1, 38266, Control_c, 0, 64, 127
1, 38295, Note_on_c, 0, 44, 67
1, 38320, Note_off_c, 0, 39, 64
1, 38378, Note_off_c, 0, 44, 64
1, 38381, Note_on_c, 0, 35, 97
1, 38465, Note_on_c, 0, 44, 69
1, 38470, Note_off_c, 0, 35, 64
1, 38532, Note_on_c, 0, 39, 76
1, 38549, Note_off_c, 0, 44, 64
1, 38613, Note_on_c, 0, 44, 73
1, 38621, Note_off_c, 0, 39, 64
1, 38702, Note_on_c, 0, 35, 99
1, 38705, Note_off_c, 0, 44, 64
1, 38766, Note_off_c, 0, 68, 64
1, 38774, Note_on_c, 0, 44, 70
1, 38782, Note_off_c, 0, 35, 64
1, 38801, Note_off_c, 0, 80, 64
1, 38849, Note_off_c, 0, 44, 64
1, 38853, Note_on_c, 0, 39, 71
1, 38921, Note_on_c, 0, 44, 78
1, 38944, Note_off_c, 0, 39, 64
1, 38963, Note_off_c, 0, 44, 64
1, 39105, Control_c, 0, 64, 0
1, 39124, Note_on_c, 0, 81, 103
1, 39124, Note_on_c, 0, 69, 97
1, 39124, Note_on_c, 0, 73, 89
1, 39127, Note_on_c, 0, 76, 95
1, 39127, Note_on_c, 0, 49, 100
1, 39133, Note_on_c, 0, 45, 71
1, 39138, Note_on_c, 0, 37, 81
1, 39138, Note_on_c, 0, 40, 80
1, 39453, Control_c, 0, 64, 127
1, 39534, Note_off_c, 0, 69, 64
1, 39534, Note_off_c, 0, 49, 64
1, 39549, Note_off_c, 0, 37, 64
1, 39549, Note_off_c, 0, 45, 64
1, 39560, Note_off_c, 0, 40, 64
1, 39584, Note_off_c, 0, 76, 64
1, 39587, Note_off_c, 0, 73, 64
1, 39861, Control_c, 0, 64, 0
1, 39888, Note_on_c, 0, 76, 60
1, 39911, Note_off_c, 0, 81, 64
1, 39950, Note_on_c, 0, 78, 66
1, 39985, Note_off_c, 0, 76, 64
1, 40025, Note_on_c, 0, 80, 75
1, 40042, Note_off_c, 0, 78, 64
1, 40100, Note_off_c, 0, 80, 64
1, 40100, Note_on_c, 0, 81, 84
1, 40182, Note_off_c, 0, 81, 64
1, 40182, Note_on_c, 0, 83, 99
1, 40255, Note_off_c, 0, 83, 64
1, 40255, Note_on_c, 0, 85, 76
1, 40325, Note_on_c, 0, 83, 99
1, 40367, Note_off_c, 0, 85, 64
1, 40389, Note_on_c, 0, 69, 35
1, 40393, Note_on_c, 0, 61, 35
1, 40396, Note_on_c, 0, 64, 36
1, 40403, Note_on_c, 0, 81, 81
1, 40421, Note_off_c, 0, 83, 64
1, 40456, Note_off_c, 0, 81, 64
1, 40479, Note_on_c, 0, 76, 63
1, 40534, Note_off_c, 0, 69, 64
1, 40553, Note_off_c, 0, 76, 64
1, 40556, Note_off_c, 0, 64, 64
1, 40559, Note_on_c, 0, 78, 67
1, 40570, Note_off_c, 0, 61, 64
1, 40629, Note_on_c, 0, 80, 66
1, 40635, Note_off_c, 0, 78, 64
1, 40705, Note_off_c, 0, 80, 64
1, 40705, Note_on_c, 0, 81, 69
1, 40783, Note_off_c, 0, 81, 64
1, 40791, Note_on_c, 0, 83, 73
1, 40865, Note_off_c, 0, 83, 64
1, 40872, Note_on_c, 0, 85, 48
1, 40950, Note_on_c, 0, 83, 69
1, 40969, Note_off_c, 0, 85, 64
1, 41013, Note_on_c, 0, 81, 60
1, 41013, Note_on_c, 0, 69, 36
1, 41013, Note_off_c, 0, 83, 64
1, 41030, Note_on_c, 0, 61, 32
1, 41035, Note_on_c, 0, 64, 32
1, 41047, Note_off_c, 0, 81, 64
1, 41086, Note_on_c, 0, 76, 51
1, 41150, Note_off_c, 0, 69, 64
1, 41153, Note_off_c, 0, 76, 64
1, 41153, Note_on_c, 0, 78, 62
1, 41180, Note_off_c, 0, 61, 64
1, 41183, Note_off_c, 0, 64, 64
1, 41225, Note_on_c, 0, 80, 62
1, 41230, Note_off_c, 0, 78, 64
1, 41301, Note_off_c, 0, 80, 64
1, 41301, Note_on_c, 0, 81, 71
1, 41382, Note_on_c, 0, 83, 85
1, 41386, Note_off_c, 0, 81, 64
1, 41454, Note_on_c, 0, 85, 59
1, 41463, Note_off_c, 0, 83, 64
1, 41534, Note_on_c, 0, 83, 91
1, 41562, Note_off_c, 0, 85, 64
1, 41606, Note_off_c, 0, 83, 64
1, 41606, Note_on_c, 0, 69, 34
1, 41610, Note_on_c, 0, 81, 69
1, 41623, Note_on_c, 0, 61, 26
1, 41626, Note_on_c, 0, 64, 35
1, 41648, Note_off_c, 0, 81, 64
1, 41687, Note_on_c, 0, 76, 54
1, 41724, Note_off_c, 0, 64, 64
1, 41727, Note_off_c, 0, 69, 64
1, 41727, Control_c, 0, 64, 127
1, 41741, Note_off_c, 0, 61, 64
1, 41755, Note_off_c, 0, 76, 64
1, 41755, Note_on_c, 0, 78, 69
1, 41800, Control_c, 0, 64, 0
1, 41827, Note_on_c, 0, 80, 74
1, 41858, Note_off_c, 0, 78, 64
1, 41872, Note_off_c, 0, 80, 64
1, 41900, Note_on_c, 0, 81, 79
1, 41903, Note_on_c, 0, 69, 50
1, 41916, Note_on_c, 0, 61, 39
1, 41921, Note_on_c, 0, 64, 49
1, 41957, Note_off_c, 0, 81, 64
1, 41971, Note_on_c, 0, 83, 102
1, 42030, Note_off_c, 0, 69, 64
1, 42030, Note_off_c, 0, 61, 64
1, 42041, Control_c, 0, 64, 127
1, 42041, Note_off_c, 0, 64, 64
1, 42050, Note_on_c, 0, 85, 81
1, 42069, Note_off_c, 0, 83, 64
1, 42125, Control_c, 0, 64, 0
1, 42125, Note_off_c, 0, 85, 64
1, 42125, Note_on_c, 0, 86, 83
1, 42178, Note_off_c, 0, 86, 64
1, 42192, Note_on_c, 0, 69, 48
1, 42206, Note_on_c, 0, 88, 86
1, 42206, Note_on_c, 0, 64, 47
1, 42206, Note_on_c, 0, 61, 36
1, 42256, Note_off_c, 0, 88, 64
1, 42279, Note_on_c, 0, 87, 70
1, 42315, Note_off_c, 0, 61, 64
1, 42329, Control_c, 0, 64, 127
1, 42343, Note_off_c, 0, 69, 64
1, 42343, Note_off_c, 0, 64, 64
1, 42348, Note_on_c, 0, 88, 82
1, 42348, Note_off_c, 0, 87, 64
1, 42415, Note_on_c, 0, 87, 64
1, 42425, Control_c, 0, 64, 0
1, 42425, Note_off_c, 0, 88, 64
1, 42498, Note_on_c, 0, 88, 72
1, 42498, Note_off_c, 0, 87, 64
1, 42504, Note_on_c, 0, 69, 46
1, 42517, Note_on_c, 0, 61, 39
1, 42523, Note_on_c, 0, 64, 37
1, 42587, Note_on_c, 0, 85, 69
1, 42607, Note_off_c, 0, 88, 64
1, 42623, Note_off_c, 0, 69, 64
1, 42629, Control_c, 0, 64, 127
1, 42635, Note_off_c, 0, 64, 64
1, 42652, Note_off_c, 0, 61, 64
1, 42660, Note_on_c, 0, 83, 99
1, 42685, Note_off_c, 0, 85, 64
1, 42740, Note_on_c, 0, 81, 76
1, 42746, Note_off_c, 0, 83, 64
1, 42772, Control_c, 0, 64, 0
1, 42816, Note_off_c, 0, 81, 64
1, 42819, Note_on_c, 0, 80, 82
1, 42835, Note_on_c, 0, 63, 39
1, 42891, Note_off_c, 0, 63, 64
1, 42902, Note_on_c, 0, 71, 56
1, 42947, Note_off_c, 0, 71, 64
1, 42985, Note_on_c, 0, 68, 42
1, 42988, Control_c, 0, 64, 127
1, 43031, Note_off_c, 0, 68, 64
1, 43069, Note_on_c, 0, 71, 61
1, 43112, Note_off_c, 0, 71, 64
1, 43142, Note_on_c, 0, 63, 62
1, 43181, Note_off_c, 0, 63, 64
1, 43226, Note_on_c, 0, 71, 62
1, 43251, Control_c, 0, 64, 0
1, 43267, Note_off_c, 0, 71, 64
1, 43284, Note_on_c, 0, 68, 62
1, 43337, Note_off_c, 0, 68, 64
1, 43348, Note_off_c, 0, 80, 64
1, 43348, Control_c, 0, 64, 127
1, 43359, Note_on_c, 0, 71, 52
1, 43396, Note_off_c, 0, 71, 64
1, 43407, Control_c, 0, 64, 0
1, 43431, Note_on_c, 0, 82, 84
1, 43431, Note_on_c, 0, 63, 66
1, 43478, Note_off_c, 0, 63, 64
1, 43478, Note_on_c, 0, 83, 99
1, 43501, Note_off_c, 0, 82, 64
1, 43501, Note_on_c, 0, 73, 61
1, 43513, Note_off_c, 0, 83, 64
1, 43551, Note_on_c, 0, 82, 63
1, 43562, Note_off_c, 0, 73, 64
1, 43562, Control_c, 0, 64, 127
1, 43591, Note_off_c, 0, 82, 64
1, 43598, Note_on_c, 0, 67, 44
1, 43607, Note_on_c, 0, 83, 89
1, 43644, Note_off_c, 0, 67, 64
1, 43644, Note_off_c, 0, 83, 64
1, 43651, Note_on_c, 0, 82, 45
1, 43655, Note_on_c, 0, 73, 57
1, 43726, Note_on_c, 0, 83, 88
1, 43732, Control_c, 0, 64, 0
1, 43744, Note_off_c, 0, 82, 64
1, 43749, Note_off_c, 0, 73, 64
1, 43768, Note_on_c, 0, 63, 62
1, 43786, Note_on_c, 0, 82, 73
1, 43811, Note_off_c, 0, 83, 64
1, 43814, Note_off_c, 0, 63, 64
1, 43827, Control_c, 0, 64, 127
1, 43864, Note_on_c, 0, 73, 41
1, 43872, Note_on_c, 0, 80, 75
1, 43880, Note_off_c, 0, 82, 64
1, 43939, Note_on_c, 0, 82, 65
1, 43949, Note_off_c, 0, 73, 64
1, 43958, Control_c, 0, 64, 0
1, 43958, Note_off_c, 0, 80, 64
1, 44019, Note_off_c, 0, 82, 64
1, 44025, Note_on_c, 0, 80, 90
1, 44025, Note_on_c, 0, 71, 100
1, 44025, Note_on_c, 0, 64, 83
1, 44029, Note_on_c, 0, 68, 62
1, 44048, Note_off_c, 0, 71, 64
1, 44053, Note_off_c, 0, 64, 64
1, 44063, Note_off_c, 0, 68, 64
1, 44098, Note_off_c, 0, 80, 64
1, 44103, Control_c, 0, 64, 127
1, 44421, Note_on_c, 0, 45, 79
1, 44421, Note_on_c, 0, 37, 81
1, 44424, Note_on_c, 0, 57, 101
1, 44424, Note_on_c, 0, 64, 96
1, 44424, Note_on_c, 0, 69, 96
1, 44424, Note_on_c, 0, 49, 91
1, 44428, Note_on_c, 0, 61, 92
1, 44431, Note_on_c, 0, 40, 89
1, 44523, Control_c, 0, 64, 0
1, 44635, Note_off_c, 0, 45, 64
1, 44635, Note_off_c, 0, 37, 64
1, 44644, Note_off_c, 0, 49, 64
1, 44648, Note_off_c, 0, 40, 64
1, 44658, Note_off_c, 0, 57, 64
1, 44669, Note_off_c, 0, 64, 64
1, 44685, Note_off_c, 0, 61, 64
1, 44690, Control_c, 0, 64, 127
1, 44992, Note_on_c, 0, 64, 61
1, 44992, Note_off_c, 0, 69, 64
1, 45025, Control_c, 0, 64, 0
1, 45036, Note_off_c, 0, 64, 64
1, 45052, Note_on_c, 0, 66, 49
1, 45112, Note_on_c, 0, 68, 60
1, 45147, Note_off_c, 0, 66, 64
1, 45185, Note_off_c, 0, 68, 64
1, 45185, Note_on_c, 0, 69, 63
1, 45264, Note_off_c, 0, 69, 64
1, 45268, Note_on_c, 0, 71, 67
1, 45331, Note_on_c, 0, 73, 56
1, 45335, Note_off_c, 0, 71, 64
1, 45404, Note_on_c, 0, 71, 64
1, 45434, Note_off_c, 0, 73, 64
1, 45474, Note_off_c, 0, 71, 64
1, 45474, Note_on_c, 0, 69, 61
1, 45515, Note_off_c, 0, 69, 64
1, 45546, Note_on_c, 0, 64, 69
1, 45622, Note_off_c, 0, 64, 64
1, 45633, Note_on_c, 0, 66, 55
1, 45694, Note_on_c, 0, 68, 57
1, 45702, Note_off_c, 0, 66, 64
1, 45764, Note_off_c, 0, 68, 64
1, 45764, Note_on_c, 0, 57, 65
1, 45764, Note_on_c, 0, 49, 63
1, 45768, Note_on_c, 0, 69, 64
1, 45775, Note_on_c, 0, 52, 74
1, 45813, Note_off_c, 0, 52, 64
1, 45820, Note_off_c, 0, 57, 64
1, 45833, Note_off_c, 0, 49, 64
1, 45844, Note_on_c, 0, 71, 75
1, 45844, Note_off_c, 0, 69, 64
1, 45922, Note_off_c, 0, 71, 64
1, 45922, Note_on_c, 0, 73, 55
1, 46005, Note_on_c, 0, 71, 76
1, 46031, Note_off_c, 0, 73, 64
1, 46066, Note_off_c, 0, 71, 64
1, 46075, Note_on_c, 0, 69, 57
1, 46115, Note_off_c, 0, 69, 64
1, 46147, Note_on_c, 0, 64, 66
1, 46220, Note_off_c, 0, 64, 64
1, 46232, Note_on_c, 0, 66, 52
1, 46301, Note_on_c, 0, 68, 49
1, 46309, Note_off_c, 0, 66, 64
1, 46362, Note_on_c, 0, 57, 57
1, 46371, Note_on_c, 0, 49, 53
1, 46371, Note_on_c, 0, 69, 58
1, 46374, Note_on_c, 0, 52, 60
1, 46374, Note_off_c, 0, 68, 64
1, 46404, Note_off_c, 0, 57, 64
1, 46404, Note_off_c, 0, 52, 64
1, 46417, Note_off_c, 0, 49, 64
1, 46463, Note_off_c, 0, 69, 64
1, 46466, Note_on_c, 0, 71, 43
1, 46535, Note_on_c, 0, 73, 48
1, 46539, Note_off_c, 0, 71, 64
1, 46607, Note_on_c, 0, 71, 48
1, 46646, Note_off_c, 0, 73, 64
1, 46688, Note_on_c, 0, 69, 56
1, 46693, Note_off_c, 0, 71, 64
1, 46729, Note_off_c, 0, 69, 64
1, 46766, Note_on_c, 0, 64, 57
1, 46830, Note_off_c, 0, 64, 64
1, 46830, Note_on_c, 0, 57, 61
1, 46830, Note_on_c, 0, 52, 70
1, 46836, Note_on_c, 0, 49, 56
1, 46842, Note_on_c, 0, 66, 59
1, 46871, Note_off_c, 0, 57, 64
1, 46871, Note_off_c, 0, 52, 64
1, 46881, Note_off_c, 0, 49, 64
1, 46914, Note_on_c, 0, 68, 54
1, 46936, Note_off_c, 0, 66, 64
1, 46978, Note_on_c, 0, 69, 69
1, 46978, Note_off_c, 0, 68, 64
1, 47071, Note_off_c, 0, 69, 64
1, 47071, Note_on_c, 0, 71, 64
1, 47115, Note_on_c, 0, 57, 68
1, 47118, Note_on_c, 0, 49, 72
1, 47118, Note_on_c, 0, 52, 66
1, 47135, Note_off_c, 0, 71, 64
1, 47135, Note_on_c, 0, 73, 61
1, 47158, Note_off_c, 0, 52, 64
1, 47168, Note_off_c, 0, 57, 64
1, 47168, Note_off_c, 0, 49, 64
1, 47201, Note_on_c, 0, 71, 58
1, 47245, Note_off_c, 0, 73, 64
1, 47271, Note_on_c, 0, 69, 63
1, 47296, Note_off_c, 0, 71, 64
1, 47320, Note_off_c, 0, 69, 64
1, 47343, Note_on_c, 0, 64, 70
1, 47418, Note_on_c, 0, 66, 69
1, 47418, Note_on_c, 0, 57, 71
1, 47424, Note_off_c, 0, 64, 64
1, 47424, Note_on_c, 0, 49, 71
1, 47424, Note_on_c, 0, 52, 81
1, 47460, Note_off_c, 0, 52, 64
1, 47463, Note_off_c, 0, 57, 64
1, 47466, Note_off_c, 0, 49, 64
1, 47490, Note_on_c, 0, 68, 69
1, 47515, Note_off_c, 0, 66, 64
1, 47561, Note_off_c, 0, 68, 64
1, 47561, Note_on_c, 0, 69, 71
1, 47643, Note_on_c, 0, 71, 79
1, 47646, Note_off_c, 0, 69, 64
1, 47704, Note_on_c, 0, 73, 74
1, 47704, Note_on_c, 0, 57, 65
1, 47704, Note_off_c, 0, 71, 64
1, 47704, Note_on_c, 0, 49, 68
1, 47708, Note_on_c, 0, 52, 63
1, 47741, Note_off_c, 0, 49, 64
1, 47741, Note_off_c, 0, 52, 64
1, 47746, Note_off_c, 0, 57, 64
1, 47771, Note_on_c, 0, 71, 80
1, 47833, Note_off_c, 0, 73, 64
1, 47842, Note_on_c, 0, 69, 72
1, 47852, Note_on_c, 0, 57, 91
1, 47852, Note_on_c, 0, 49, 87
1, 47856, Note_on_c, 0, 52, 99
1, 47861, Note_off_c, 0, 71, 64
1, 47902, Note_off_c, 0, 69, 64
1, 47913, Note_on_c, 0, 64, 83
1, 47931, Note_off_c, 0, 57, 64
1, 47942, Note_off_c, 0, 49, 64
1, 47948, Note_off_c, 0, 52, 64
1, 47997, Note_on_c, 0, 66, 72
1, 48001, Note_off_c, 0, 64, 64
1, 48072, Note_on_c, 0, 68, 71
1, 48098, Note_off_c, 0, 66, 64
1, 48140, Note_off_c, 0, 68, 64
1, 48140, Note_on_c, 0, 69, 68
1, 48206, Note_off_c, 0, 69, 64
1, 48217, Note_on_c, 0, 71, 89
1, 48290, Note_on_c, 0, 73, 81
1, 48313, Note_off_c, 0, 71, 64
1, 48352, Note_off_c, 0, 73, 64
1, 48368, Note_on_c, 0, 74, 91
1, 48434, Note_on_c, 0, 76, 94
1, 48459, Note_off_c, 0, 74, 64
1, 48502, Note_on_c, 0, 78, 88
1, 48526, Control_c, 0, 64, 127
1, 48543, Note_off_c, 0, 76, 64
1, 48574, Note_on_c, 0, 80, 85
1, 48618, Note_off_c, 0, 78, 64
1, 48638, Note_off_c, 0, 80, 64
1, 48644, Note_on_c, 0, 81, 89
1, 48657, Control_c, 0, 64, 0
1, 48711, Note_on_c, 0, 83, 111
1, 48727, Note_off_c, 0, 81, 64
1, 48783, Note_on_c, 0, 85, 90
1, 48800, Control_c, 0, 64, 127
1, 48811, Note_off_c, 0, 83, 64
1, 48849, Note_on_c, 0, 86, 87
1, 48855, Note_off_c, 0, 85, 64
1, 48923, Note_on_c, 0, 87, 88
1, 48937, Note_off_c, 0, 86, 64
1, 48984, Note_off_c, 0, 87, 64
1, 49028, Control_c, 0, 64, 0
1, 49034, Note_on_c, 0, 88, 108
1, 49039, Note_on_c, 0, 76, 101
1, 49047, Note_on_c, 0, 49, 66
1, 49112, Note_on_c, 0, 57, 56
1, 49148, Control_c, 0, 64, 127
1, 49179, Note_off_c, 0, 57, 64
1, 49196, Note_off_c, 0, 49, 64
1, 49203, Note_on_c, 0, 52, 63
1, 49262, Note_off_c, 0, 52, 64
1, 49281, Note_off_c, 0, 88, 64
1, 49281, Note_on_c, 0, 57, 58
1, 49335, Note_off_c, 0, 57, 64
1, 49359, Note_on_c, 0, 49, 70
1, 49427, Note_on_c, 0, 57, 42
1, 49485, Note_off_c, 0, 57, 64
1, 49485, Note_off_c, 0, 49, 64
1, 49502, Note_on_c, 0, 52, 76
1, 49568, Note_on_c, 0, 57, 58
1, 49585, Note_off_c, 0, 52, 64
1, 49635, Note_off_c, 0, 57, 64
1, 49635, Note_on_c, 0, 80, 105
1, 49639, Note_on_c, 0, 68, 98
1, 49652, Note_on_c, 0, 50, 92
1, 49675, Control_c, 0, 64, 0
1, 49686, Note_off_c, 0, 76, 64
1, 49735, Note_on_c, 0, 59, 65
1, 49800, Note_on_c, 0, 53, 94
1, 49803, Note_off_c, 0, 50, 64
1, 49806, Note_off_c, 0, 59, 64
1, 49831, Control_c, 0, 64, 127
1, 49873, Note_on_c, 0, 59, 60
1, 49888, Note_off_c, 0, 53, 64
1, 49944, Note_off_c, 0, 59, 64
1, 49944, Note_on_c, 0, 50, 87
1, 49994, Note_off_c, 0, 68, 64
1, 50019, Note_on_c, 0, 59, 55
1, 50034, Note_off_c, 0, 50, 64
1, 50098, Note_on_c, 0, 53, 100
1, 50098, Note_off_c, 0, 59, 64
1, 50167, Note_on_c, 0, 59, 78
1, 50179, Note_off_c, 0, 53, 64
1, 50203, Control_c, 0, 64, 0
1, 50218, Note_off_c, 0, 80, 64
1, 50232, Note_on_c, 0, 71, 111
1, 50232, Note_on_c, 0, 83, 124
1, 50239, Note_off_c, 0, 59, 64
1, 50254, Note_on_c, 0, 51, 92
1, 50312, Note_on_c, 0, 59, 63
1, 50371, Control_c, 0, 64, 127
1, 50385, Note_on_c, 0, 56, 73
1, 50401, Note_off_c, 0, 59, 64
1, 50415, Note_off_c, 0, 83, 64
1, 50424, Note_off_c, 0, 51, 64
1, 50458, Note_on_c, 0, 59, 78
1, 50483, Note_off_c, 0, 71, 64
1, 50483, Note_off_c, 0, 56, 64
1, 50536, Note_off_c, 0, 59, 64
1, 50551, Note_on_c, 0, 51, 75
1, 50636, Note_on_c, 0, 59, 61
1, 50669, Note_off_c, 0, 59, 64
1, 50716, Note_on_c, 0, 56, 40
1, 50749, Note_on_c, 0, 59, 56
1, 50780, Note_off_c, 0, 59, 64
1, 50794, Note_off_c, 0, 56, 64
1, 50814, Note_off_c, 0, 51, 64
1, 50863, Control_c, 0, 64, 0
1, 50863, Note_on_c, 0, 67, 97
1, 50863, Note_on_c, 0, 55, 106
1, 50868, Note_on_c, 0, 61, 89
1, 50878, Note_on_c, 0, 39, 95
1, 50950, Note_on_c, 0, 51, 87
1, 50966, Note_off_c, 0, 39, 64
1, 51006, Control_c, 0, 64, 127
1, 51043, Note_on_c, 0, 50, 78
1, 51050, Note_off_c, 0, 51, 64
1, 51101, Note_off_c, 0, 50, 64
1, 51106, Note_on_c, 0, 51, 72
1, 51179, Note_off_c, 0, 51, 64
1, 51179, Note_on_c, 0, 50, 73
1, 51254, Note_on_c, 0, 51, 72
1, 51271, Note_off_c, 0, 50, 64
1, 51281, Note_off_c, 0, 55, 64
1, 51318, Note_on_c, 0, 50, 88
1, 51335, Note_off_c, 0, 67, 64
1, 51338, Note_off_c, 0, 51, 64
1, 51351, Note_off_c, 0, 61, 64
1, 51409, Note_off_c, 0, 50, 64
1, 51412, Note_on_c, 0, 51, 79
1, 51488, Note_off_c, 0, 51, 64
1, 51497, Control_c, 0, 64, 0
1, 51510, Note_on_c, 0, 44, 99
1, 51510, Note_on_c, 0, 68, 86
1, 51510, Note_on_c, 0, 56, 84
1, 51510, Note_on_c, 0, 59, 74
1, 51572, Note_off_c, 0, 56, 64
1, 51580, Note_off_c, 0, 59, 64
1, 51597, Note_off_c, 0, 44, 64
1, 51605, Control_c, 0, 64, 127
1, 51617, Note_off_c, 0, 68, 64
1, 51705, Note_on_c, 0, 71, 75
1, 51705, Note_on_c, 0, 56, 74
1, 51708, Note_on_c, 0, 63, 71
1, 51725, Control_c, 0, 64, 0
1, 51747, Note_off_c, 0, 56, 64
1, 51750, Note_off_c, 0, 71, 64
1, 51758, Note_off_c, 0, 63, 64
1, 51852, Note_on_c, 0, 71, 69
1, 51859, Note_on_c, 0, 56, 64
1, 51859, Note_on_c, 0, 63, 54
1, 51897, Note_off_c, 0, 56, 64
1, 51897, Note_off_c, 0, 71, 64
1, 51905, Note_off_c, 0, 63, 64
1, 52009, Note_on_c, 0, 63, 50
1, 52009, Note_on_c, 0, 56, 40
1, 52012, Note_on_c, 0, 71, 68
1, 52051, Note_off_c, 0, 63, 64
1, 52051, Note_off_c, 0, 71, 64
1, 52059, Note_off_c, 0, 56, 64
1, 52157, Note_on_c, 0, 71, 56
1, 52160, Note_on_c, 0, 63, 51
1, 52167, Note_on_c, 0, 56, 40
1, 52199, Note_off_c, 0, 71, 64
1, 52199, Note_off_c, 0, 63, 64
1, 52210, Note_off_c, 0, 56, 64
1, 52312, Note_on_c, 0, 56, 50
1, 52316, Note_on_c, 0, 71, 55
1, 52320, Note_on_c, 0, 63, 47
1, 52354, Note_off_c, 0, 56, 64
1, 52359, Note_off_c, 0, 71, 64
1, 52359, Note_off_c, 0, 63, 64
1, 52452, Note_on_c, 0, 63, 38
1, 52452, Note_on_c, 0, 58, 35
1, 52455, Note_on_c, 0, 70, 44
1, 52494, Note_off_c, 0, 63, 64
1, 52502, Note_off_c, 0, 58, 64
1, 52502, Note_off_c, 0, 70, 64
1, 52602, Note_on_c, 0, 68, 51
1, 52608, Note_on_c, 0, 59, 49
1, 52611, Note_on_c, 0, 63, 52
1, 52642, Note_off_c, 0, 68, 64
1, 52646, Note_off_c, 0, 59, 64
1, 52657, Note_off_c, 0, 63, 64
1, 52750, Note_on_c, 0, 61, 58
1, 52753, Note_on_c, 0, 51, 63
1, 52753, Note_on_c, 0, 67, 64
1, 52756, Note_on_c, 0, 63, 47
1, 52788, Note_off_c, 0, 51, 64
1, 52788, Note_off_c, 0, 61, 64
1, 52788, Note_off_c, 0, 67, 64
1, 52794, Note_off_c, 0, 63, 64
1, 52887, Note_on_c, 0, 75, 69
1, 52909, Note_on_c, 0, 63, 28
1, 52909, Note_on_c, 0, 61, 44
1, 52909, Note_on_c, 0, 67, 41
1, 52923, Note_off_c, 0, 75, 64
1, 52956, Note_off_c, 0, 61, 64
1, 52956, Note_off_c, 0, 67, 64
1, 52961, Note_off_c, 0, 63, 64
1, 53032, Note_on_c, 0, 67, 48
1, 53032, Note_on_c, 0, 63, 42
1, 53036, Note_on_c, 0, 75, 74
1, 53036, Note_on_c, 0, 61, 39
1, 53073, Note_off_c, 0, 75, 64
1, 53084, Note_off_c, 0, 61, 64
1, 53084, Note_off_c, 0, 67, 64
1, 53093, Note_off_c, 0, 63, 64
1, 53178, Note_on_c, 0, 67, 63
1, 53182, Note_on_c, 0, 75, 73
1, 53182, Note_on_c, 0, 63, 53
1, 53185, Note_on_c, 0, 61, 45
1, 53220, Note_off_c, 0, 67, 64
1, 53220, Note_off_c, 0, 75, 64
1, 53224, Note_off_c, 0, 63, 64
1, 53229, Note_off_c, 0, 61, 64
1, 53327, Note_on_c, 0, 67, 73
1, 53327, Note_on_c, 0, 75, 76
1, 53330, Note_on_c, 0, 61, 47
1, 53330, Note_on_c, 0, 63, 54
1, 53373, Note_off_c, 0, 67, 64
1, 53373, Note_off_c, 0, 75, 64
1, 53373, Note_off_c, 0, 61, 64
1, 53373, Note_off_c, 0, 63, 64
1, 53471, Note_on_c, 0, 75, 78
1, 53474, Note_on_c, 0, 67, 78
1, 53479, Note_on_c, 0, 63, 66
1, 53485, Note_on_c, 0, 61, 62
1, 53511, Note_off_c, 0, 67, 64
1, 53518, Note_off_c, 0, 75, 64
1, 53522, Note_off_c, 0, 61, 64
1, 53522, Note_off_c, 0, 63, 64
1, 53616, Note_on_c, 0, 75, 75
1, 53621, Note_on_c, 0, 59, 70
1, 53621, Note_on_c, 0, 68, 72
1, 53625, Note_on_c, 0, 63, 58
1, 53655, Note_off_c, 0, 75, 64
1, 53660, Note_off_c, 0, 59, 64
1, 53664, Note_off_c, 0, 63, 64
1, 53688, Note_off_c, 0, 68, 64
1, 53753, Note_on_c, 0, 63, 58
1, 53753, Note_on_c, 0, 70, 67
1, 53753, Note_on_c, 0, 58, 57
1, 53761, Note_on_c, 0, 75, 78
1, 53786, Note_off_c, 0, 63, 64
1, 53789, Note_off_c, 0, 58, 64
1, 53797, Note_off_c, 0, 75, 64
1, 53802, Note_off_c, 0, 70, 64
1, 53899, Note_on_c, 0, 75, 73
1, 53899, Note_on_c, 0, 56, 64
1, 53899, Note_on_c, 0, 71, 69
1, 53905, Note_on_c, 0, 44, 79
1, 53931, Note_off_c, 0, 75, 64
1, 53934, Note_off_c, 0, 44, 64
1, 53934, Note_off_c, 0, 71, 64
1, 53940, Note_off_c, 0, 56, 64
1, 54036, Note_on_c, 0, 71, 60
1, 54039, Note_on_c, 0, 63, 70
1, 54042, Note_on_c, 0, 56, 60
1, 54079, Note_off_c, 0, 63, 64
1, 54085, Note_off_c, 0, 71, 64
1, 54085, Note_off_c, 0, 56, 64
1, 54179, Note_on_c, 0, 71, 62
1, 54188, Note_on_c, 0, 56, 52
1, 54188, Note_on_c, 0, 63, 51
1, 54226, Note_off_c, 0, 71, 64
1, 54229, Note_off_c, 0, 63, 64
1, 54229, Note_off_c, 0, 56, 64
1, 54332, Note_on_c, 0, 71, 57
1, 54335, Note_on_c, 0, 63, 42
1, 54335, Note_on_c, 0, 56, 41
1, 54377, Note_off_c, 0, 71, 64
1, 54377, Note_off_c, 0, 63, 64
1, 54383, Note_off_c, 0, 56, 64
1, 54472, Note_on_c, 0, 63, 50
1, 54472, Note_on_c, 0, 71, 62
1, 54472, Note_on_c, 0, 56, 58
1, 54514, Note_off_c, 0, 56, 64
1, 54518, Note_off_c, 0, 71, 64
1, 54521, Note_off_c, 0, 63, 64
1, 54614, Note_on_c, 0, 71, 57
1, 54617, Note_on_c, 0, 63, 45
1, 54621, Note_on_c, 0, 56, 51
1, 54656, Note_off_c, 0, 71, 64
1, 54656, Note_off_c, 0, 63, 64
1, 54663, Note_off_c, 0, 56, 64
1, 54747, Note_on_c, 0, 70, 50
1, 54752, Note_on_c, 0, 63, 46
1, 54752, Note_on_c, 0, 58, 43
1, 54797, Note_off_c, 0, 63, 64
1, 54802, Note_off_c, 0, 70, 64
1, 54802, Note_off_c, 0, 58, 64
1, 54892, Note_on_c, 0, 68, 52
1, 54897, Note_on_c, 0, 63, 40
1, 54897, Note_on_c, 0, 59, 55
1, 54934, Note_off_c, 0, 59, 64
1, 54934, Note_off_c, 0, 68, 64
1, 54947, Note_off_c, 0, 63, 64
1, 55039, Note_on_c, 0, 61, 29
1, 55039, Note_on_c, 0, 63, 41
1, 55039, Note_on_c, 0, 51, 58
1, 55043, Note_on_c, 0, 67, 64
1, 55076, Note_off_c, 0, 67, 64
1, 55079, Note_off_c, 0, 63, 64
1, 55079, Note_off_c, 0, 51, 64
1, 55095, Note_off_c, 0, 61, 64
1, 55117, Control_c, 0, 64, 127
1, 55153, Control_c, 0, 64, 0
1, 55179, Note_on_c, 0, 75, 56
1, 55187, Note_on_c, 0, 67, 30
1, 55187, Note_on_c, 0, 63, 36
1, 55190, Note_on_c, 0, 61, 41
1, 55218, Note_off_c, 0, 75, 64
1, 55235, Note_off_c, 0, 63, 64
1, 55241, Note_off_c, 0, 61, 64
1, 55241, Note_off_c, 0, 67, 64
1, 55318, Note_on_c, 0, 63, 50
1, 55318, Note_on_c, 0, 67, 52
1, 55318, Note_on_c, 0, 61, 38
1, 55326, Note_on_c, 0, 75, 63
1, 55363, Note_off_c, 0, 61, 64
1, 55363, Note_off_c, 0, 75, 64
1, 55369, Note_off_c, 0, 63, 64
1, 55369, Note_off_c, 0, 67, 64
1, 55458, Note_on_c, 0, 67, 70
1, 55461, Note_on_c, 0, 75, 67
1, 55461, Note_on_c, 0, 63, 56
1, 55468, Note_on_c, 0, 61, 44
1, 55504, Note_off_c, 0, 67, 64
1, 55508, Note_off_c, 0, 75, 64
1, 55508, Note_off_c, 0, 61, 64
1, 55511, Note_off_c, 0, 63, 64
1, 55600, Note_on_c, 0, 75, 76
1, 55605, Note_on_c, 0, 67, 79
1, 55605, Note_on_c, 0, 63, 62
1, 55605, Note_on_c, 0, 61, 55
1, 55649, Note_off_c, 0, 61, 64
1, 55649, Note_off_c, 0, 67, 64
1, 55664, Note_off_c, 0, 63, 64
1, 55684, Note_off_c, 0, 75, 64
1, 55733, Note_on_c, 0, 75, 75
1, 55738, Note_on_c, 0, 67, 76
1, 55741, Note_on_c, 0, 63, 64
1, 55747, Note_on_c, 0, 61, 63
1, 55794, Note_off_c, 0, 67, 64
1, 55797, Note_off_c, 0, 61, 64
1, 55812, Note_off_c, 0, 75, 64
1, 55825, Note_off_c, 0, 63, 64
1, 55865, Note_on_c, 0, 68, 75
1, 55870, Note_on_c, 0, 75, 76
1, 55875, Note_on_c, 0, 63, 75
1, 55880, Note_on_c, 0, 59, 65
1, 55922, Note_off_c, 0, 59, 64
1, 55945, Note_off_c, 0, 63, 64
1, 55950, Note_off_c, 0, 68, 64
1, 55957, Note_off_c, 0, 75, 64
1, 56004, Note_on_c, 0, 75, 78
1, 56007, Note_on_c, 0, 63, 68
1, 56007, Note_on_c, 0, 70, 70
1, 56014, Note_on_c, 0, 58, 60
1, 56039, Note_off_c, 0, 63, 64
1, 56048, Note_off_c, 0, 58, 64
1, 56062, Note_off_c, 0, 70, 64
1, 56082, Note_off_c, 0, 75, 64
1, 56148, Note_on_c, 0, 75, 66
1, 56148, Note_on_c, 0, 44, 84
1, 56152, Note_on_c, 0, 71, 84
1, 56177, Note_off_c, 0, 44, 64
1, 56187, Note_off_c, 0, 71, 64
1, 56220, Note_off_c, 0, 75, 64
1, 56243, Control_c, 0, 64, 127
1, 56298, Note_on_c, 0, 75, 62
1, 56302, Note_on_c, 0, 71, 91
1, 56307, Note_on_c, 0, 56, 58
1, 56315, Control_c, 0, 64, 0
1, 56315, Note_on_c, 0, 59, 54
1, 56344, Note_off_c, 0, 71, 64
1, 56351, Note_off_c, 0, 59, 64
1, 56351, Note_off_c, 0, 56, 64
1, 56379, Note_off_c, 0, 75, 64
1, 56446, Note_on_c, 0, 75, 61
1, 56446, Note_on_c, 0, 71, 91
1, 56457, Note_on_c, 0, 59, 52
1, 56465, Note_on_c, 0, 56, 60
1, 56513, Note_off_c, 0, 59, 64
1, 56513, Note_off_c, 0, 71, 64
1, 56583, Note_off_c, 0, 56, 64
1, 56592, Note_on_c, 0, 71, 61
1, 56592, Note_on_c, 0, 63, 66
1, 56599, Note_on_c, 0, 68, 53
1, 56599, Note_on_c, 0, 59, 56
1, 56620, Note_off_c, 0, 75, 64
1, 56628, Note_off_c, 0, 63, 64
1, 56639, Note_off_c, 0, 59, 64
1, 56683, Note_off_c, 0, 68, 64
1, 56688, Note_off_c, 0, 71, 64
1, 56741, Note_on_c, 0, 49, 78
1, 56773, Note_off_c, 0, 49, 64
1, 56819, Control_c, 0, 64, 127
1, 56890, Control_c, 0, 64, 0
1, 56890, Note_on_c, 0, 73, 54
1, 56890, Note_on_c, 0, 76, 66
1, 56893, Note_on_c, 0, 56, 51
1, 56898, Note_on_c, 0, 61, 62
1, 56931, Note_off_c, 0, 76, 64
1, 56931, Note_off_c, 0, 56, 64
1, 56936, Note_off_c, 0, 73, 64
1, 56939, Note_off_c, 0, 61, 64
1, 57042, Note_on_c, 0, 76, 69
1, 57042, Note_on_c, 0, 73, 58
1, 57050, Note_on_c, 0, 61, 54
1, 57054, Note_on_c, 0, 56, 51
1, 57092, Note_off_c, 0, 73, 64
1, 57095, Note_off_c, 0, 61, 64
1, 57177, Note_on_c, 0, 73, 43
1, 57177, Note_on_c, 0, 68, 44
1, 57180, Note_on_c, 0, 61, 54
1, 57180, Note_on_c, 0, 64, 49
1, 57188, Note_off_c, 0, 56, 64
1, 57198, Note_off_c, 0, 76, 64
1, 57223, Note_off_c, 0, 64, 64
1, 57226, Note_off_c, 0, 61, 64
1, 57266, Note_off_c, 0, 73, 64
1, 57271, Note_off_c, 0, 68, 64
1, 57310, Control_c, 0, 64, 127
1, 57318, Note_on_c, 0, 51, 77
1, 57346, Control_c, 0, 64, 0
1, 57369, Note_off_c, 0, 51, 64
1, 57455, Note_on_c, 0, 75, 64
1, 57463, Note_on_c, 0, 71, 69
1, 57468, Note_on_c, 0, 59, 58
1, 57472, Note_on_c, 0, 56, 57
1, 57502, Note_off_c, 0, 71, 64
1, 57507, Note_off_c, 0, 59, 64
1, 57518, Note_off_c, 0, 75, 64
1, 57518, Note_off_c, 0, 56, 64
1, 57606, Note_on_c, 0, 75, 56
1, 57614, Note_on_c, 0, 71, 64
1, 57625, Note_on_c, 0, 56, 50
1, 57639, Note_on_c, 0, 59, 29
1, 57652, Note_off_c, 0, 71, 64
1, 57688, Note_off_c, 0, 59, 64
1, 57711, Note_off_c, 0, 56, 64
1, 57756, Note_on_c, 0, 63, 62
1, 57756, Note_on_c, 0, 68, 42
1, 57762, Note_on_c, 0, 71, 22
1, 57762, Note_on_c, 0, 59, 29
1, 57770, Note_off_c, 0, 75, 64
1, 57801, Control_c, 0, 64, 127
1, 57804, Note_off_c, 0, 63, 64
1, 57811, Note_off_c, 0, 59, 64
1, 57820, Note_off_c, 0, 71, 64
1, 57828, Note_off_c, 0, 68, 64
1, 57861, Control_c, 0, 64, 0
1, 57904, Note_on_c, 0, 51, 64
1, 57970, Note_off_c, 0, 51, 64
1, 58032, Note_on_c, 0, 75, 52
1, 58035, Note_on_c, 0, 70, 52
1, 58035, Note_on_c, 0, 55, 44
1, 58042, Note_on_c, 0, 58, 48
1, 58078, Note_off_c, 0, 75, 64
1, 58078, Note_off_c, 0, 70, 64
1, 58078, Note_off_c, 0, 55, 64
1, 58087, Note_off_c, 0, 58, 64
1, 58174, Note_on_c, 0, 55, 27
1, 58190, Note_on_c, 0, 75, 55
1, 58190, Note_on_c, 0, 70, 50
1, 58220, Note_on_c, 0, 58, 24
1, 58234, Note_off_c, 0, 55, 64
1, 58248, Note_off_c, 0, 70, 64
1, 58280, Note_off_c, 0, 58, 64
1, 58316, Control_c, 0, 64, 127
1, 58326, Note_on_c, 0, 58, 49
1, 58338, Note_off_c, 0, 75, 64
1, 58338, Note_on_c, 0, 70, 39
1, 58338, Note_on_c, 0, 67, 52
1, 58344, Note_on_c, 0, 63, 18
1, 58365, Note_off_c, 0, 58, 64
1, 58390, Note_off_c, 0, 67, 64
1, 58390, Note_off_c, 0, 63, 64
1, 58396, Note_off_c, 0, 70, 64
1, 58472, Control_c, 0, 64, 0
1, 58513, Note_on_c, 0, 68, 48
1, 58513, Note_on_c, 0, 71, 71
1, 58516, Note_on_c, 0, 32, 59
1, 58550, Note_off_c, 0, 32, 64
1, 58553, Note_off_c, 0, 68, 64
1, 58553, Note_off_c, 0, 71, 64
1, 58603, Control_c, 0, 64, 127
1, 58697, Note_on_c, 0, 44, 59
1, 58701, Note_on_c, 0, 51, 51
1, 58701, Note_on_c, 0, 83, 56
1, 58701, Note_on_c, 0, 71, 55
1, 58711, Control_c, 0, 64, 0
1, 58742, Note_off_c, 0, 44, 64
1, 58742, Note_off_c, 0, 51, 64
1, 58745, Note_off_c, 0, 83, 64
1, 58750, Note_off_c, 0, 71, 64
1, 58833, Note_on_c, 0, 83, 80
1, 58833, Note_on_c, 0, 71, 54
1, 58839, Note_on_c, 0, 75, 58
1, 58839, Note_on_c, 0, 51, 48
1, 58843, Note_on_c, 0, 44, 42
1, 58879, Note_off_c, 0, 83, 64
1, 58879, Note_off_c, 0, 71, 64
1, 58879, Note_off_c, 0, 75, 64
1, 58889, Note_off_c, 0, 51, 64
1, 58889, Note_off_c, 0, 44, 64
1, 58971, Note_on_c, 0, 83, 100
1, 58975, Note_on_c, 0, 71, 74
1, 58982, Note_on_c, 0, 75, 57
1, 58987, Note_on_c, 0, 51, 53
1, 58992, Note_on_c, 0, 44, 46
1, 59026, Note_off_c, 0, 71, 64
1, 59026, Note_off_c, 0, 75, 64
1, 59031, Note_off_c, 0, 51, 64
1, 59037, Note_off_c, 0, 44, 64
1, 59045, Note_off_c, 0, 83, 64
1, 59102, Note_on_c, 0, 83, 106
1, 59109, Note_on_c, 0, 71, 86
1, 59112, Note_on_c, 0, 75, 69
1, 59112, Note_on_c, 0, 51, 58
1, 59116, Note_on_c, 0, 44, 61
1, 59159, Note_off_c, 0, 71, 64
1, 59159, Note_off_c, 0, 44, 64
1, 59168, Note_off_c, 0, 51, 64
1, 59168, Note_off_c, 0, 75, 64
1, 59187, Note_off_c, 0, 83, 64
1, 59238, Note_on_c, 0, 83, 103
1, 59243, Note_on_c, 0, 51, 70
1, 59246, Note_on_c, 0, 75, 67
1, 59251, Note_on_c, 0, 44, 71
1, 59251, Note_on_c, 0, 71, 63
1, 59279, Note_off_c, 0, 83, 64
1, 59293, Note_off_c, 0, 71, 64
1, 59301, Note_off_c, 0, 44, 64
1, 59310, Note_off_c, 0, 51, 64
1, 59327, Note_off_c, 0, 75, 64
1, 59369, Note_on_c, 0, 70, 88
1, 59372, Note_on_c, 0, 82, 81
1, 59377, Note_on_c, 0, 73, 74
1, 59377, Note_on_c, 0, 51, 71
1, 59388, Note_on_c, 0, 46, 72
1, 59422, Note_off_c, 0, 82, 64
1, 59438, Note_off_c, 0, 70, 64
1, 59438, Note_off_c, 0, 51, 64
1, 59446, Note_off_c, 0, 46, 64
1, 59457, Note_off_c, 0, 73, 64
1, 59503, Note_on_c, 0, 80, 95
1, 59503, Note_on_c, 0, 68, 81
1, 59503, Note_on_c, 0, 71, 89
1, 59513, Note_on_c, 0, 51, 75
1, 59521, Note_on_c, 0, 47, 84
1, 59561, Note_off_c, 0, 47, 64
1, 59572, Note_off_c, 0, 51, 64
1, 59588, Note_off_c, 0, 68, 64
1, 59588, Note_off_c, 0, 71, 64
1, 59591, Note_off_c, 0, 80, 64
1, 59650, Note_on_c, 0, 49, 90
1, 59653, Note_on_c, 0, 70, 88
1, 59653, Note_on_c, 0, 67, 101
1, 59653, Note_on_c, 0, 39, 85
1, 59653, Note_on_c, 0, 79, 106
1, 59678, Note_off_c, 0, 67, 64
1, 59678, Note_off_c, 0, 49, 64
1, 59678, Note_off_c, 0, 39, 64
1, 59684, Note_off_c, 0, 70, 64
1, 59719, Control_c, 0, 64, 127
1, 59737, Note_off_c, 0, 79, 64
1, 59811, Note_on_c, 0, 88, 106
1, 59815, Control_c, 0, 64, 0
1, 59815, Note_on_c, 0, 79, 84
1, 59815, Note_on_c, 0, 61, 83
1, 59818, Note_on_c, 0, 76, 89
1, 59822, Note_on_c, 0, 51, 73
1, 59845, Note_off_c, 0, 76, 64
1, 59851, Note_off_c, 0, 61, 64
1, 59856, Note_off_c, 0, 51, 64
1, 59862, Note_off_c, 0, 88, 64
1, 59882, Note_off_c, 0, 79, 64
1, 59950, Note_on_c, 0, 76, 98
1, 59950, Note_on_c, 0, 88, 106
1, 59950, Note_on_c, 0, 79, 91
1, 59954, Note_on_c, 0, 61, 91
1, 59960, Note_on_c, 0, 51, 77
1, 59996, Note_off_c, 0, 51, 64
1, 59999, Note_off_c, 0, 61, 64
1, 60015, Note_off_c, 0, 88, 64
1, 60024, Note_off_c, 0, 79, 64
1, 60037, Note_off_c, 0, 76, 64
1, 60082, Note_on_c, 0, 88, 84
1, 60082, Note_on_c, 0, 79, 89
1, 60082, Note_on_c, 0, 76, 96
1, 60082, Note_on_c, 0, 61, 90
1, 60093, Note_on_c, 0, 51, 82
1, 60132, Note_off_c, 0, 51, 64
1, 60152, Note_off_c, 0, 76, 64
1, 60163, Note_off_c, 0, 61, 64
1, 60173, Note_off_c, 0, 79, 64
1, 60179, Note_off_c, 0, 88, 64
1, 60219, Note_on_c, 0, 61, 84
1, 60219, Note_on_c, 0, 88, 104
1, 60223, Note_on_c, 0, 76, 89
1, 60226, Note_on_c, 0, 79, 97
1, 60232, Note_on_c, 0, 51, 88
1, 60266, Note_off_c, 0, 51, 64
1, 60286, Note_off_c, 0, 88, 64
1, 60296, Note_off_c, 0, 76, 64
1, 60304, Note_off_c, 0, 61, 64
1, 60310, Note_off_c, 0, 79, 64
1, 60355, Note_on_c, 0, 61, 89
1, 60360, Note_on_c, 0, 76, 85
1, 60360, Note_on_c, 0, 88, 105
1, 60360, Note_on_c, 0, 79, 100
1, 60372, Note_on_c, 0, 51, 88
1, 60400, Note_off_c, 0, 51, 64
1, 60417, Note_off_c, 0, 88, 64
1, 60425, Note_off_c, 0, 61, 64
1, 60432, Note_off_c, 0, 76, 64
1, 60471, Note_off_c, 0, 79, 64
1, 60497, Note_on_c, 0, 75, 103
1, 60497, Note_on_c, 0, 87, 100
1, 60502, Note_on_c, 0, 59, 95
1, 60502, Note_on_c, 0, 51, 94
1, 60505, Note_on_c, 0, 79, 97
1, 60535, Note_off_c, 0, 51, 64
1, 60550, Note_off_c, 0, 59, 64
1, 60580, Note_off_c, 0, 87, 64
1, 60583, Note_off_c, 0, 75, 64
1, 60608, Note_off_c, 0, 79, 64
1, 60628, Note_on_c, 0, 58, 88
1, 60628, Note_on_c, 0, 85, 101
1, 60633, Note_on_c, 0, 73, 103
1, 60639, Note_on_c, 0, 51, 92
1, 60639, Note_on_c, 0, 79, 89
1, 60658, Note_off_c, 0, 58, 64
1, 60672, Note_off_c, 0, 51, 64
1, 60712, Note_off_c, 0, 85, 64
1, 60717, Note_off_c, 0, 79, 64
1, 60717, Note_off_c, 0, 73, 64
1, 60750, Control_c, 0, 64, 127
1, 60773, Note_on_c, 0, 71, 110
1, 60773, Note_on_c, 0, 83, 115
1, 60776, Note_on_c, 0, 44, 101
1, 60776, Note_on_c, 0, 80, 88
1, 60779, Note_on_c, 0, 32, 92
1, 60801, Note_off_c, 0, 32, 64
1, 60811, Note_off_c, 0, 44, 64
1, 60840, Note_off_c, 0, 71, 64
1, 60847, Note_off_c, 0, 83, 64
1, 60862, Note_off_c, 0, 80, 64
1, 60906, Control_c, 0, 64, 0
1, 60925, Note_on_c, 0, 71, 89
1, 60925, Note_on_c, 0, 83, 100
1, 60925, Note_on_c, 0, 44, 83
1, 60928, Note_on_c, 0, 51, 78
1, 60928, Note_on_c, 0, 75, 75
1, 60967, Note_off_c, 0, 51, 64
1, 60973, Note_off_c, 0, 75, 64
1, 60973, Note_off_c, 0, 44, 64
1, 60988, Note_off_c, 0, 71, 64
1, 61004, Note_off_c, 0, 83, 64
1, 61054, Note_on_c, 0, 51, 65
1, 61054, Note_on_c, 0, 75, 65
1, 61057, Note_on_c, 0, 83, 100
1, 61057, Note_on_c, 0, 71, 75
1, 61057, Note_on_c, 0, 44, 69
1, 61101, Note_off_c, 0, 75, 64
1, 61101, Note_off_c, 0, 51, 64
1, 61127, Note_off_c, 0, 44, 64
1, 61140, Note_off_c, 0, 83, 64
1, 61140, Note_off_c, 0, 71, 64
1, 61194, Note_on_c, 0, 71, 71
1, 61194, Note_on_c, 0, 83, 94
1, 61199, Note_on_c, 0, 75, 61
1, 61199, Note_on_c, 0, 51, 59
1, 61207, Note_on_c, 0, 44, 64
1, 61251, Note_off_c, 0, 51, 64
1, 61251, Note_off_c, 0, 44, 64
1, 61255, Note_off_c, 0, 75, 64
1, 61274, Note_off_c, 0, 83, 64
1, 61274, Note_off_c, 0, 71, 64
1, 61330, Note_on_c, 0, 83, 97
1, 61330, Note_on_c, 0, 51, 55
1, 61333, Note_on_c, 0, 71, 75
1, 61333, Note_on_c, 0, 75, 58
1, 61333, Note_on_c, 0, 44, 67
1, 61383, Note_off_c, 0, 44, 64
1, 61393, Note_off_c, 0, 51, 64
1, 61401, Note_off_c, 0, 83, 64
1, 61414, Note_off_c, 0, 71, 64
1, 61421, Note_off_c, 0, 75, 64
1, 61477, Note_on_c, 0, 83, 101
1, 61477, Note_on_c, 0, 71, 88
1, 61477, Note_on_c, 0, 75, 81
1, 61483, Note_on_c, 0, 51, 68
1, 61483, Note_on_c, 0, 44, 78
1, 61508, Note_off_c, 0, 83, 64
1, 61538, Note_off_c, 0, 71, 64
1, 61538, Note_off_c, 0, 44, 64
1, 61541, Note_off_c, 0, 51, 64
1, 61550, Note_off_c, 0, 75, 64
1, 61608, Note_on_c, 0, 70, 96
1, 61613, Note_on_c, 0, 82, 92
1, 61613, Note_on_c, 0, 73, 86
1, 61620, Note_on_c, 0, 51, 70
1, 61620, Note_on_c, 0, 46, 78
1, 61670, Note_off_c, 0, 51, 64
1, 61678, Note_off_c, 0, 70, 64
1, 61681, Note_off_c, 0, 46, 64
1, 61684, Note_off_c, 0, 82, 64
1, 61701, Note_off_c, 0, 73, 64
1, 61742, Note_on_c, 0, 68, 97
1, 61742, Note_on_c, 0, 80, 95
1, 61751, Note_on_c, 0, 51, 79
1, 61754, Note_on_c, 0, 47, 87
1, 61754, Note_on_c, 0, 71, 93
1, 61804, Note_off_c, 0, 51, 64
1, 61817, Note_off_c, 0, 47, 64
1, 61832, Note_off_c, 0, 80, 64
1, 61837, Note_off_c, 0, 68, 64
1, 61850, Note_off_c, 0, 71, 64
1, 61887, Note_on_c, 0, 67, 103
1, 61887, Note_on_c, 0, 39, 95
1, 61887, Note_on_c, 0, 79, 111
1, 61887, Note_on_c, 0, 49, 92
1, 61890, Note_on_c, 0, 70, 81
1, 61910, Note_off_c, 0, 39, 64
1, 61917, Note_off_c, 0, 49, 64
1, 61923, Note_off_c, 0, 67, 64
1, 61923, Note_off_c, 0, 70, 64
1, 61935, Control_c, 0, 64, 127
1, 61946, Note_off_c, 0, 79, 64
1, 62040, Note_on_c, 0, 61, 96
1, 62040, Note_on_c, 0, 51, 81
1, 62040, Note_on_c, 0, 79, 79
1, 62040, Note_on_c, 0, 88, 110
1, 62045, Note_on_c, 0, 76, 95
1, 62074, Note_off_c, 0, 61, 64
1, 62074, Note_off_c, 0, 51, 64
1, 62084, Note_off_c, 0, 79, 64
1, 62110, Note_off_c, 0, 76, 64
1, 62115, Control_c, 0, 64, 0
1, 62138, Note_off_c, 0, 88, 64
1, 62173, Note_on_c, 0, 79, 93
1, 62176, Note_on_c, 0, 61, 96
1, 62176, Note_on_c, 0, 76, 97
1, 62176, Note_on_c, 0, 88, 100
1, 62179, Note_on_c, 0, 51, 88
1, 62215, Note_off_c, 0, 51, 64
1, 62244, Note_off_c, 0, 76, 64
1, 62251, Note_off_c, 0, 88, 64
1, 62258, Note_off_c, 0, 79, 64
1, 62258, Note_off_c, 0, 61, 64
1, 62313, Note_on_c, 0, 88, 97
1, 62313, Note_on_c, 0, 51, 92
1, 62313, Note_on_c, 0, 79, 97
1, 62316, Note_on_c, 0, 76, 89
1, 62316, Note_on_c, 0, 61, 92
1, 62350, Note_off_c, 0, 51, 64
1, 62385, Note_off_c, 0, 88, 64
1, 62385, Note_off_c, 0, 76, 64
1, 62388, Note_off_c, 0, 61, 64
1, 62403, Note_off_c, 0, 79, 64
1, 62453, Note_on_c, 0, 61, 90
1, 62456, Note_on_c, 0, 79, 94
1, 62456, Note_on_c, 0, 76, 95
1, 62456, Note_on_c, 0, 88, 103
1, 62461, Note_on_c, 0, 51, 91
1, 62520, Note_off_c, 0, 88, 64
1, 62520, Note_off_c, 0, 61, 64
1, 62520, Note_off_c, 0, 51, 64
1, 62527, Note_off_c, 0, 76, 64
1, 62549, Note_off_c, 0, 79, 64
1, 62598, Note_on_c, 0, 88, 103
1, 62598, Note_on_c, 0, 79, 94
1, 62598, Note_on_c, 0, 76, 91
1, 62604, Note_on_c, 0, 61, 82
1, 62604, Note_on_c, 0, 51, 81
1, 62659, Note_off_c, 0, 88, 64
1, 62659, Note_off_c, 0, 51, 64
1, 62672, Note_off_c, 0, 76, 64
1, 62676, Note_off_c, 0, 61, 64
1, 62703, Note_off_c, 0, 79, 64
1, 62728, Note_on_c, 0, 59, 93
1, 62728, Note_on_c, 0, 51, 80
1, 62736, Note_on_c, 0, 87, 95
1, 62736, Note_on_c, 0, 75, 97
1, 62743, Note_on_c, 0, 79, 100
1, 62770, Note_off_c, 0, 59, 64
1, 62775, Note_off_c, 0, 51, 64
1, 62795, Note_off_c, 0, 87, 64
1, 62806, Note_off_c, 0, 75, 64
1, 62806, Note_off_c, 0, 79, 64
1, 62865, Note_on_c, 0, 58, 83
1, 62871, Note_on_c, 0, 85, 94
1, 62871, Note_on_c, 0, 73, 92
1, 62876, Note_on_c, 0, 79, 86
1, 62876, Note_on_c, 0, 51, 86
1, 62901, Note_off_c, 0, 58, 64
1, 62906, Note_off_c, 0, 51, 64
1, 62946, Note_off_c, 0, 85, 64
1, 62959, Note_off_c, 0, 73, 64
1, 62967, Note_off_c, 0, 79, 64
1, 63013, Note_on_c, 0, 44, 97
1, 63013, Note_on_c, 0, 56, 87
1, 63017, Note_on_c, 0, 71, 102
1, 63017, Note_on_c, 0, 83, 113
1, 63023, Note_on_c, 0, 80, 83
1, 63037, Note_off_c, 0, 44, 64
1, 63040, Note_off_c, 0, 71, 64
1, 63043, Note_off_c, 0, 56, 64
1, 63051, Control_c, 0, 64, 127
1, 63057, Note_off_c, 0, 80, 64
1, 63073, Note_off_c, 0, 83, 64
1, 63176, Note_on_c, 0, 80, 84
1, 63176, Note_on_c, 0, 63, 78
1, 63180, Note_on_c, 0, 83, 101
1, 63190, Note_on_c, 0, 59, 60
1, 63210, Note_off_c, 0, 83, 64
1, 63213, Note_off_c, 0, 63, 64
1, 63218, Note_off_c, 0, 80, 64
1, 63224, Note_off_c, 0, 59, 64
1, 63254, Control_c, 0, 64, 0
1, 63328, Note_on_c, 0, 80, 65
1, 63328, Note_on_c, 0, 83, 92
1, 63331, Note_on_c, 0, 59, 46
1, 63336, Note_on_c, 0, 63, 58
1, 63383, Note_off_c, 0, 59, 64
1, 63414, Note_off_c, 0, 83, 64
1, 63470, Note_on_c, 0, 59, 59
1, 63470, Note_on_c, 0, 83, 88
1, 63475, Note_on_c, 0, 87, 51
1, 63486, Note_on_c, 0, 56, 60
1, 63494, Note_off_c, 0, 80, 64
1, 63497, Note_off_c, 0, 63, 64
1, 63533, Note_off_c, 0, 59, 64
1, 63533, Note_off_c, 0, 56, 64
1, 63573, Note_off_c, 0, 83, 64
1, 63628, Note_on_c, 0, 49, 75
1, 63647, Note_off_c, 0, 87, 64
1, 63651, Control_c, 0, 64, 127
1, 63658, Note_off_c, 0, 49, 64
1, 63764, Note_on_c, 0, 85, 73
1, 63768, Note_on_c, 0, 80, 60
1, 63773, Note_on_c, 0, 61, 65
1, 63778, Note_on_c, 0, 64, 58
1, 63793, Control_c, 0, 64, 0
1, 63807, Note_off_c, 0, 80, 64
1, 63820, Note_off_c, 0, 61, 64
1, 63820, Note_off_c, 0, 64, 64
1, 63837, Note_off_c, 0, 85, 64
1, 63904, Note_on_c, 0, 80, 64
1, 63904, Note_on_c, 0, 85, 59
1, 63912, Note_on_c, 0, 61, 52
1, 63918, Note_on_c, 0, 64, 56
1, 63981, Note_off_c, 0, 61, 64
1, 64004, Note_off_c, 0, 85, 64
1, 64034, Note_off_c, 0, 64, 64
1, 64052, Note_on_c, 0, 88, 53
1, 64052, Note_on_c, 0, 85, 57
1, 64055, Note_on_c, 0, 61, 54
1, 64055, Note_on_c, 0, 56, 44
1, 64065, Note_off_c, 0, 80, 64
1, 64099, Note_off_c, 0, 56, 64
1, 64107, Note_off_c, 0, 61, 64
1, 64118, Note_off_c, 0, 88, 64
1, 64165, Note_off_c, 0, 85, 64
1, 64177, Control_c, 0, 64, 127
1, 64205, Note_on_c, 0, 51, 81
1, 64236, Note_off_c, 0, 51, 64
1, 64297, Control_c, 0, 64, 0
1, 64327, Note_on_c, 0, 80, 58
1, 64327, Note_on_c, 0, 59, 33
1, 64327, Note_on_c, 0, 63, 73
1, 64327, Note_on_c, 0, 83, 92
1, 64367, Note_off_c, 0, 63, 64
1, 64372, Note_off_c, 0, 59, 64
1, 64375, Note_off_c, 0, 80, 64
1, 64391, Note_off_c, 0, 83, 64
1, 64475, Note_on_c, 0, 80, 69
1, 64475, Note_on_c, 0, 83, 89
1, 64481, Note_on_c, 0, 59, 49
1, 64481, Note_on_c, 0, 63, 72
1, 64564, Note_off_c, 0, 83, 64
1, 64569, Note_off_c, 0, 59, 64
1, 64594, Note_off_c, 0, 80, 64
1, 64598, Note_off_c, 0, 63, 64
1, 64623, Note_on_c, 0, 83, 88
1, 64623, Note_on_c, 0, 59, 58
1, 64628, Note_on_c, 0, 56, 60
1, 64633, Note_on_c, 0, 87, 52
1, 64673, Note_off_c, 0, 56, 64
1, 64712, Note_off_c, 0, 59, 64
1, 64718, Note_off_c, 0, 83, 64
1, 64728, Control_c, 0, 64, 127
1, 64778, Note_on_c, 0, 49, 83
1, 64795, Note_off_c, 0, 87, 64
1, 64812, Note_off_c, 0, 49, 64
1, 64859, Control_c, 0, 64, 0
1, 64915, Note_on_c, 0, 82, 63
1, 64915, Note_on_c, 0, 79, 71
1, 64915, Note_on_c, 0, 63, 70
1, 64929, Note_on_c, 0, 58, 49
1, 64962, Note_off_c, 0, 63, 64
1, 64962, Note_off_c, 0, 79, 64
1, 64979, Note_off_c, 0, 58, 64
1, 64999, Note_off_c, 0, 82, 64
1, 65051, Note_on_c, 0, 82, 61
1, 65063, Note_on_c, 0, 79, 65
1, 65068, Note_on_c, 0, 58, 45
1, 65068, Note_on_c, 0, 63, 56
1, 65135, Note_off_c, 0, 58, 64
1, 65143, Note_off_c, 0, 82, 64
1, 65182, Note_off_c, 0, 63, 64
1, 65208, Control_c, 0, 64, 127
1, 65211, Note_on_c, 0, 82, 40
1, 65211, Note_on_c, 0, 58, 37
1, 65222, Note_off_c, 0, 79, 64
1, 65225, Note_on_c, 0, 87, 36
1, 65229, Note_on_c, 0, 55, 52
1, 65268, Note_off_c, 0, 58, 64
1, 65268, Note_off_c, 0, 55, 64
1, 65332, Note_off_c, 0, 82, 64
1, 65344, Note_off_c, 0, 87, 64
1, 65374, Note_on_c, 0, 47, 74
1, 65403, Note_off_c, 0, 47, 64
1, 65495, Control_c, 0, 64, 0
1, 65528, Note_on_c, 0, 75, 50
1, 65533, Note_on_c, 0, 83, 91
1, 65541, Note_on_c, 0, 68, 62
1, 65548, Note_on_c, 0, 63, 60
1, 65591, Note_off_c, 0, 68, 64
1, 65591, Note_off_c, 0, 63, 64
1, 65617, Note_off_c, 0, 83, 64
1, 65622, Note_off_c, 0, 75, 64
1, 65651, Control_c, 0, 64, 127
1, 65679, Note_on_c, 0, 83, 92
1, 65679, Note_on_c, 0, 75, 65
1, 65695, Note_on_c, 0, 68, 57
1, 65709, Note_on_c, 0, 63, 47
1, 65746, Note_off_c, 0, 63, 64
1, 65753, Note_off_c, 0, 68, 64
1, 65761, Note_off_c, 0, 75, 64
1, 65793, Note_off_c, 0, 83, 64
1, 65823, Note_on_c, 0, 63, 44
1, 65831, Note_on_c, 0, 87, 58
1, 65842, Note_on_c, 0, 80, 56
1, 65851, Note_on_c, 0, 59, 40
1, 65865, Note_off_c, 0, 63, 64
1, 65882, Note_off_c, 0, 87, 64
1, 65885, Note_off_c, 0, 80, 64
1, 65892, Note_off_c, 0, 59, 64
1, 65902, Control_c, 0, 64, 0
1, 65982, Note_on_c, 0, 49, 65
1, 66016, Note_off_c, 0, 49, 64
1, 66059, Control_c, 0, 64, 127
1, 66133, Note_on_c, 0, 81, 57
1, 66133, Note_on_c, 0, 69, 41
1, 66133, Note_on_c, 0, 64, 44
1, 66136, Note_on_c, 0, 73, 53
1, 66176, Note_off_c, 0, 64, 64
1, 66180, Note_off_c, 0, 73, 64
1, 66180, Note_off_c, 0, 69, 64
1, 66183, Note_off_c, 0, 81, 64
1, 66283, Note_on_c, 0, 81, 44
1, 66288, Note_on_c, 0, 73, 52
1, 66293, Note_on_c, 0, 69, 29
1, 66341, Note_off_c, 0, 73, 64
1, 66346, Note_off_c, 0, 69, 64
1, 66383, Note_off_c, 0, 81, 64
1, 66424, Note_on_c, 0, 85, 46
1, 66427, Note_on_c, 0, 76, 26
1, 66434, Note_on_c, 0, 61, 54
1, 66434, Note_on_c, 0, 64, 64
1, 66453, Control_c, 0, 64, 0
1, 66467, Note_off_c, 0, 64, 64
1, 66473, Note_off_c, 0, 61, 64
1, 66489, Note_off_c, 0, 76, 64
1, 66541, Note_off_c, 0, 85, 64
1, 66573, Note_on_c, 0, 51, 62
1, 66608, Note_off_c, 0, 51, 64
1, 66634, Control_c, 0, 64, 127
1, 66717, Note_on_c, 0, 80, 64
1, 66720, Note_on_c, 0, 71, 64
1, 66728, Note_on_c, 0, 68, 42
1, 66732, Note_on_c, 0, 63, 16
1, 66767, Note_off_c, 0, 71, 64
1, 66773, Note_off_c, 0, 68, 64
1, 66782, Note_off_c, 0, 63, 64
1, 66789, Note_off_c, 0, 80, 64
1, 66868, Note_on_c, 0, 80, 54
1, 66872, Note_on_c, 0, 71, 63
1, 66872, Note_on_c, 0, 63, 48
1, 66879, Note_on_c, 0, 68, 22
1, 66916, Note_off_c, 0, 63, 64
1, 66924, Note_off_c, 0, 71, 64
1, 66931, Note_off_c, 0, 68, 64
1, 66982, Note_off_c, 0, 80, 64
1, 67016, Note_on_c, 0, 83, 76
1, 67021, Note_on_c, 0, 75, 46
1, 67021, Note_on_c, 0, 63, 35
1, 67065, Note_off_c, 0, 63, 64
1, 67088, Control_c, 0, 64, 0
1, 67144, Note_off_c, 0, 83, 64
1, 67165, Note_on_c, 0, 51, 66
1, 67169, Note_off_c, 0, 75, 64
1, 67202, Note_off_c, 0, 51, 64
1, 67233, Control_c, 0, 64, 127
1, 67325, Note_on_c, 0, 79, 68
1, 67336, Note_on_c, 0, 70, 50
1, 67342, Note_on_c, 0, 67, 36
1, 67342, Note_on_c, 0, 61, 31
1, 67380, Note_off_c, 0, 79, 64
1, 67389, Note_off_c, 0, 70, 64
1, 67397, Note_off_c, 0, 67, 64
1, 67403, Note_off_c, 0, 61, 64
1, 67509, Note_on_c, 0, 79, 53
1, 67520, Control_c, 0, 64, 0
1, 67523, Note_on_c, 0, 70, 44
1, 67534, Note_on_c, 0, 67, 26
1, 67539, Note_on_c, 0, 61, 22
1, 67597, Note_off_c, 0, 61, 64
1, 67615, Note_off_c, 0, 70, 64
1, 67657, Note_off_c, 0, 67, 64
1, 67664, Control_c, 0, 64, 127
1, 67698, Note_on_c, 0, 58, 33
1, 67698, Note_on_c, 0, 61, 4
1, 67698, Note_on_c, 0, 73, 27
1, 67701, Note_on_c, 0, 82, 43
1, 67712, Note_off_c, 0, 79, 64
1, 67753, Note_off_c, 0, 58, 64
1, 67764, Note_off_c, 0, 61, 64
1, 67860, Note_off_c, 0, 73, 64
1, 67891, Control_c, 0, 64, 0
1, 67907, Note_on_c, 0, 44, 46
1, 67912, Note_on_c, 0, 80, 48
1, 67915, Note_on_c, 0, 71, 37
1, 67954, Note_off_c, 0, 82, 64
1, 67999, Note_on_c, 0, 56, 44
1, 68055, Note_off_c, 0, 56, 64
1, 68072, Control_c, 0, 64, 127
1, 68091, Note_on_c, 0, 51, 43
1, 68099, Note_off_c, 0, 44, 64
1, 68141, Note_off_c, 0, 51, 64
1, 68177, Note_on_c, 0, 56, 38
1, 68230, Note_off_c, 0, 56, 64
1, 68255, Note_on_c, 0, 44, 47
1, 68303, Note_off_c, 0, 44, 64
1, 68342, Note_off_c, 0, 71, 64
1, 68342, Note_on_c, 0, 56, 39
1, 68375, Note_off_c, 0, 80, 64
1, 68394, Note_off_c, 0, 56, 64
1, 68427, Note_on_c, 0, 51, 32
1, 68475, Note_off_c, 0, 51, 64
1, 68505, Note_on_c, 0, 56, 26
1, 68564, Note_off_c, 0, 56, 64
1, 68564, Note_on_c, 0, 44, 48
1, 68620, Note_off_c, 0, 44, 64
1, 68653, Note_on_c, 0, 56, 24
1, 68735, Note_off_c, 0, 56, 64
1, 68768, Note_on_c, 0, 51, 20
1, 68824, Note_off_c, 0, 51, 64
1, 68835, Note_on_c, 0, 56, 36
1, 68868, Note_on_c, 0, 71, 84
1, 68890, Note_off_c, 0, 56, 64
1, 68912, Note_on_c, 0, 44, 44
1, 68957, Note_off_c, 0, 44, 64
1, 68994, Note_on_c, 0, 56, 41
1, 69054, Note_off_c, 0, 56, 64
1, 69111, Note_on_c, 0, 51, 22
1, 69157, Note_off_c, 0, 71, 64
1, 69169, Note_off_c, 0, 51, 64
1, 69169, Note_on_c, 0, 56, 49
1, 69169, Note_on_c, 0, 68, 68
1, 69267, Note_on_c, 0, 67, 75
1, 69267, Note_on_c, 0, 44, 50
1, 69270, Note_off_c, 0, 56, 64
1, 69277, Note_off_c, 0, 68, 64
1, 69294, Control_c, 0, 64, 0
1, 69361, Note_on_c, 0, 58, 37
1, 69439, Note_off_c, 0, 58, 64
1, 69450, Note_off_c, 0, 44, 64
1, 69455, Note_on_c, 0, 51, 40
1, 69473, Control_c, 0, 64, 127
1, 69508, Note_off_c, 0, 67, 64
1, 69508, Note_off_c, 0, 51, 64
1, 69525, Note_on_c, 0, 58, 24
1, 69598, Note_on_c, 0, 75, 72
1, 69604, Note_off_c, 0, 58, 64
1, 69604, Note_on_c, 0, 61, 52
1, 69614, Note_on_c, 0, 44, 43
1, 69618, Note_on_c, 0, 67, 12
1, 69662, Note_off_c, 0, 44, 64
1, 69690, Note_off_c, 0, 67, 64
1, 69693, Note_on_c, 0, 58, 22
1, 69712, Note_off_c, 0, 61, 64
1, 69734, Note_off_c, 0, 75, 64
1, 69762, Note_off_c, 0, 58, 64
1, 69787, Note_on_c, 0, 51, 31
1, 69845, Note_off_c, 0, 51, 64
1, 69856, Note_on_c, 0, 58, 26
1, 69930, Note_off_c, 0, 58, 64
1, 69930, Note_on_c, 0, 75, 60
1, 69943, Note_on_c, 0, 61, 41
1, 69943, Note_on_c, 0, 44, 48
1, 69948, Note_on_c, 0, 67, 42
1, 69954, Control_c, 0, 64, 0
1, 70037, Note_off_c, 0, 44, 64
1, 70051, Note_on_c, 0, 58, 28
1, 70074, Control_c, 0, 64, 127
1, 70094, Note_off_c, 0, 67, 64
1, 70108, Note_off_c, 0, 58, 64
1, 70108, Note_off_c, 0, 75, 64
1, 70112, Note_off_c, 0, 61, 64
1, 70132, Note_on_c, 0, 51, 29
1, 70188, Note_on_c, 0, 58, 23
1, 70188, Note_off_c, 0, 51, 64
1, 70253, Control_c, 0, 64, 0
1, 70261, Note_on_c, 0, 75, 53
1, 70274, Note_off_c, 0, 58, 64
1, 70274, Note_on_c, 0, 61, 32
1, 70281, Note_on_c, 0, 67, 37
1, 70286, Note_on_c, 0, 44, 47
1, 70341, Note_off_c, 0, 44, 64
1, 70363, Note_on_c, 0, 58, 24
1, 70373, Control_c, 0, 64, 127
1, 70384, Note_off_c, 0, 75, 64
1, 70423, Note_off_c, 0, 58, 64
1, 70428, Note_off_c, 0, 67, 64
1, 70436, Note_off_c, 0, 61, 64
1, 70461, Note_on_c, 0, 51, 28
1, 70512, Note_on_c, 0, 58, 31
1, 70515, Note_off_c, 0, 51, 64
1, 70561, Note_off_c, 0, 58, 64
1, 70576, Control_c, 0, 64, 0
1, 70600, Note_on_c, 0, 59, 58
1, 70609, Note_on_c, 0, 44, 54
1, 70657, Note_on_c, 0, 68, 12
1, 70665, Note_off_c, 0, 59, 64
1, 70696, Control_c, 0, 64, 127
1, 70712, Note_on_c, 0, 56, 38
1, 70712, Note_off_c, 0, 44, 64
1, 70749, Note_on_c, 0, 75, 70
1, 70781, Note_off_c, 0, 56, 64
1, 70838, Note_on_c, 0, 51, 16
1, 70898, Note_on_c, 0, 56, 45
1, 70898, Note_off_c, 0, 51, 64
1, 70962, Note_off_c, 0, 56, 64
1, 70988, Note_on_c, 0, 44, 47
1, 71036, Note_off_c, 0, 44, 64
1, 71083, Note_on_c, 0, 56, 28
1, 71141, Note_off_c, 0, 56, 64
1, 71157, Note_on_c, 0, 51, 41
1, 71203, Note_off_c, 0, 51, 64
1, 71230, Note_on_c, 0, 56, 35
1, 71288, Note_off_c, 0, 56, 64
1, 71300, Note_off_c, 0, 68, 64
1, 71317, Note_on_c, 0, 44, 46
1, 71336, Note_off_c, 0, 75, 64
1, 71369, Note_off_c, 0, 44, 64
1, 71400, Note_on_c, 0, 56, 38
1, 71455, Note_off_c, 0, 56, 64
1, 71501, Note_on_c, 0, 51, 29
1, 71558, Note_off_c, 0, 51, 64
1, 71579, Note_on_c, 0, 56, 44
1, 71662, Note_off_c, 0, 56, 64
1, 71717, Note_on_c, 0, 83, 103
1, 71728, Note_on_c, 0, 44, 40
1, 71777, Note_off_c, 0, 44, 64
1, 71812, Note_on_c, 0, 56, 40
1, 71865, Note_off_c, 0, 56, 64
1, 71909, Note_on_c, 0, 51, 35
1, 71960, Note_off_c, 0, 51, 64
1, 71996, Note_on_c, 0, 56, 42
1, 72029, Note_off_c, 0, 83, 64
1, 72033, Note_on_c, 0, 80, 69
1, 72068, Note_off_c, 0, 56, 64
1, 72094, Note_off_c, 0, 80, 64
1, 72102, Note_on_c, 0, 44, 48
1, 72121, Note_on_c, 0, 79, 84
1, 72171, Control_c, 0, 64, 0
1, 72213, Note_on_c, 0, 58, 32
1, 72288, Note_off_c, 0, 58, 64
1, 72297, Note_on_c, 0, 51, 41
1, 72314, Control_c, 0, 64, 127
1, 72319, Note_off_c, 0, 44, 64
1, 72358, Note_off_c, 0, 51, 64
1, 72362, Note_off_c, 0, 79, 64
1, 72378, Note_on_c, 0, 58, 23
1, 72458, Note_off_c, 0, 58, 64
1, 72462, Note_on_c, 0, 87, 69
1, 72475, Note_on_c, 0, 73, 36
1, 72475, Note_on_c, 0, 44, 52
1, 72483, Note_on_c, 0, 79, 54
1, 72523, Note_off_c, 0, 44, 64
1, 72528, Note_off_c, 0, 79, 64
1, 72554, Note_off_c, 0, 73, 64
1, 72562, Note_on_c, 0, 58, 27
1, 72589, Note_off_c, 0, 87, 64
1, 72623, Note_off_c, 0, 58, 64
1, 72659, Note_on_c, 0, 51, 28
1, 72713, Note_off_c, 0, 51, 64
1, 72723, Note_on_c, 0, 58, 30
1, 72784, Note_off_c, 0, 58, 64
1, 72796, Note_on_c, 0, 87, 76
1, 72801, Note_on_c, 0, 73, 61
1, 72813, Note_on_c, 0, 79, 67
1, 72813, Note_on_c, 0, 44, 55
1, 72855, Note_off_c, 0, 44, 64
1, 72860, Note_off_c, 0, 79, 64
1, 72871, Note_off_c, 0, 73, 64
1, 72899, Note_on_c, 0, 58, 38
1, 72940, Note_off_c, 0, 87, 64
1, 72951, Note_off_c, 0, 58, 64
1, 72976, Note_on_c, 0, 51, 42
1, 73030, Note_off_c, 0, 51, 64
1, 73041, Note_on_c, 0, 58, 28
1, 73099, Note_off_c, 0, 58, 64
1, 73105, Note_on_c, 0, 87, 81
1, 73110, Note_on_c, 0, 73, 65
1, 73114, Note_on_c, 0, 44, 67
1, 73114, Note_on_c, 0, 79, 77
1, 73166, Note_off_c, 0, 44, 64
1, 73197, Note_on_c, 0, 58, 35
1, 73238, Note_off_c, 0, 87, 64
1, 73247, Note_off_c, 0, 58, 64
1, 73256, Note_off_c, 0, 73, 64
1, 73275, Note_on_c, 0, 51, 50
1, 73330, Note_off_c, 0, 51, 64
1, 73330, Note_off_c, 0, 79, 64
1, 73341, Note_on_c, 0, 58, 48
1, 73384, Note_off_c, 0, 58, 64
1, 73394, Control_c, 0, 64, 0
1, 73420, Note_on_c, 0, 44, 68
1, 73431, Note_on_c, 0, 71, 83
1, 73469, Note_off_c, 0, 71, 64
1, 73506, Note_on_c, 0, 80, 70
1, 73525, Control_c, 0, 64, 127
1, 73531, Note_on_c, 0, 56, 54
1, 73581, Note_on_c, 0, 87, 70
1, 73609, Note_off_c, 0, 44, 64
1, 73614, Note_off_c, 0, 56, 64
1, 73654, Note_on_c, 0, 51, 30
1, 73707, Note_off_c, 0, 51, 64
1, 73729, Note_on_c, 0, 56, 44
1, 73781, Note_off_c, 0, 56, 64
1, 73816, Note_on_c, 0, 44, 54
1, 73834, Note_off_c, 0, 80, 64
1, 73863, Note_off_c, 0, 44, 64
1, 73905, Note_on_c, 0, 56, 39
1, 73952, Note_off_c, 0, 56, 64
1, 73958, Note_off_c, 0, 87, 64
1, 73965, Note_on_c, 0, 51, 48
1, 74019, Note_off_c, 0, 51, 64
1, 74022, Note_on_c, 0, 56, 38
1, 74039, Control_c, 0, 64, 0
1, 74058, Note_on_c, 0, 73, 69
1, 74077, Note_off_c, 0, 56, 64
1, 74085, Note_on_c, 0, 44, 59
1, 74117, Note_off_c, 0, 73, 64
1, 74128, Note_on_c, 0, 79, 84
1, 74172, Control_c, 0, 64, 127
1, 74175, Note_on_c, 0, 87, 82
1, 74181, Note_on_c, 0, 58, 41
1, 74194, Note_off_c, 0, 44, 64
1, 74247, Note_off_c, 0, 58, 64
1, 74247, Note_off_c, 0, 79, 64
1, 74309, Note_on_c, 0, 51, 13
1, 74361, Note_off_c, 0, 51, 64
1, 74361, Note_on_c, 0, 58, 33
1, 74415, Note_off_c, 0, 58, 64
1, 74428, Note_on_c, 0, 44, 67
1, 74487, Note_off_c, 0, 44, 64
1, 74492, Note_off_c, 0, 87, 64
1, 74523, Note_on_c, 0, 58, 28
1, 74578, Note_off_c, 0, 58, 64
1, 74584, Note_on_c, 0, 51, 48
1, 74631, Note_on_c, 0, 58, 42
1, 74631, Note_off_c, 0, 51, 64
1, 74676, Control_c, 0, 64, 0
1, 74682, Note_off_c, 0, 58, 64
1, 74712, Note_on_c, 0, 71, 71
1, 74717, Note_on_c, 0, 44, 65
1, 74752, Note_off_c, 0, 71, 64
1, 74765, Note_off_c, 0, 44, 64
1, 74790, Note_on_c, 0, 80, 65
1, 74802, Note_on_c, 0, 56, 58
1, 74807, Control_c, 0, 64, 127
1, 74866, Note_on_c, 0, 87, 71
1, 74882, Note_off_c, 0, 56, 64
1, 74904, Note_on_c, 0, 51, 34
1, 74952, Note_off_c, 0, 51, 64
1, 74969, Note_on_c, 0, 56, 44
1, 75014, Note_off_c, 0, 56, 64
1, 75038, Note_on_c, 0, 44, 65
1, 75082, Note_off_c, 0, 80, 64
1, 75096, Note_off_c, 0, 44, 64
1, 75124, Note_on_c, 0, 56, 39
1, 75164, Note_off_c, 0, 87, 64
1, 75177, Note_off_c, 0, 56, 64
1, 75205, Note_on_c, 0, 51, 46
1, 75255, Note_off_c, 0, 51, 64
1, 75275, Note_on_c, 0, 56, 47
1, 75319, Note_off_c, 0, 56, 64
1, 75347, Control_c, 0, 64, 0
1, 75351, Note_on_c, 0, 73, 57
1, 75362, Note_on_c, 0, 44, 63
1, 75423, Note_on_c, 0, 79, 63
1, 75429, Note_off_c, 0, 44, 64
1, 75443, Note_on_c, 0, 58, 33
1, 75451, Note_off_c, 0, 73, 64
1, 75454, Control_c, 0, 64, 127
1, 75478, Note_on_c, 0, 87, 64
1, 75504, Note_off_c, 0, 58, 64
1, 75528, Note_off_c, 0, 79, 64
1, 75539, Note_on_c, 0, 51, 32
1, 75595, Note_off_c, 0, 51, 64
1, 75606, Note_on_c, 0, 58, 31
1, 75624, Note_off_c, 0, 87, 64
1, 75665, Note_off_c, 0, 58, 64
1, 75685, Note_on_c, 0, 44, 60
1, 75735, Note_off_c, 0, 44, 64
1, 75777, Note_on_c, 0, 58, 41
1, 75832, Note_off_c, 0, 58, 64
1, 75858, Note_on_c, 0, 51, 39
1, 75907, Note_on_c, 0, 58, 36
1, 75911, Note_off_c, 0, 51, 64
1, 75960, Note_off_c, 0, 58, 64
1, 75993, Note_on_c, 0, 59, 50
1, 75993, Control_c, 0, 64, 0
1, 76004, Note_on_c, 0, 44, 57
1, 76060, Note_off_c, 0, 44, 64
1, 76069, Note_on_c, 0, 68, 40
1, 76086, Note_on_c, 0, 56, 49
1, 76125, Control_c, 0, 64, 127
1, 76138, Note_off_c, 0, 68, 64
1, 76144, Note_on_c, 0, 63, 49
1, 76149, Note_off_c, 0, 56, 64
1, 76158, Note_off_c, 0, 59, 64
1, 76169, Note_on_c, 0, 51, 27
1, 76194, Note_off_c, 0, 63, 64
1, 76209, Note_on_c, 0, 68, 43
1, 76222, Note_off_c, 0, 51, 64
1, 76239, Note_on_c, 0, 56, 33
1, 76266, Note_off_c, 0, 68, 64
1, 76284, Note_on_c, 0, 59, 52
1, 76289, Note_off_c, 0, 56, 64
1, 76308, Note_on_c, 0, 44, 54
1, 76353, Note_off_c, 0, 44, 64
1, 76362, Note_on_c, 0, 68, 35
1, 76362, Note_off_c, 0, 59, 64
1, 76386, Note_on_c, 0, 56, 29
1, 76420, Note_off_c, 0, 68, 64
1, 76434, Note_on_c, 0, 63, 52
1, 76439, Note_off_c, 0, 56, 64
1, 76473, Note_on_c, 0, 51, 23
1, 76473, Note_off_c, 0, 63, 64
1, 76493, Note_on_c, 0, 68, 35
1, 76525, Note_on_c, 0, 56, 41
1, 76532, Note_off_c, 0, 51, 64
1, 76578, Note_off_c, 0, 68, 64
1, 76578, Note_off_c, 0, 56, 64
1, 76578, Note_on_c, 0, 59, 54
1, 76593, Note_on_c, 0, 44, 53
1, 76637, Note_off_c, 0, 44, 64
1, 76640, Note_on_c, 0, 68, 41
1, 76670, Note_off_c, 0, 59, 64
1, 76670, Note_on_c, 0, 56, 44
1, 76721, Note_on_c, 0, 63, 61
1, 76721, Note_off_c, 0, 56, 64
1, 76724, Note_off_c, 0, 68, 64
1, 76763, Note_on_c, 0, 51, 27
1, 76766, Note_off_c, 0, 63, 64
1, 76780, Note_on_c, 0, 68, 52
1, 76802, Note_on_c, 0, 56, 48
1, 76816, Note_off_c, 0, 51, 64
1, 76858, Note_off_c, 0, 56, 64
1, 76865, Note_on_c, 0, 59, 66
1, 76874, Note_off_c, 0, 68, 64
1, 76879, Note_on_c, 0, 44, 60
1, 76919, Note_off_c, 0, 44, 64
1, 76925, Note_on_c, 0, 68, 53
1, 76925, Note_on_c, 0, 56, 55
1, 77005, Note_off_c, 0, 56, 64
1, 77005, Note_on_c, 0, 63, 70
1, 77008, Note_off_c, 0, 59, 64
1, 77008, Note_on_c, 0, 51, 62
1, 77024, Note_off_c, 0, 68, 64
1, 77052, Note_on_c, 0, 56, 75
1, 77069, Note_on_c, 0, 68, 83
1, 77072, Note_off_c, 0, 63, 64
1, 77072, Note_off_c, 0, 51, 64
1, 77125, Note_off_c, 0, 56, 64
1, 77130, Note_on_c, 0, 60, 88
1, 77130, Note_on_c, 0, 44, 84
1, 77144, Control_c, 0, 64, 0
1, 77180, Note_off_c, 0, 68, 64
1, 77200, Note_on_c, 0, 54, 83
1, 77200, Note_on_c, 0, 66, 66
1, 77231, Note_off_c, 0, 44, 64
1, 77264, Note_on_c, 0, 63, 86
1, 77270, Note_on_c, 0, 51, 74
1, 77276, Control_c, 0, 64, 127
1, 77283, Note_off_c, 0, 54, 64
1, 77295, Note_off_c, 0, 66, 64
1, 77303, Note_off_c, 0, 60, 64
1, 77337, Note_on_c, 0, 66, 80
1, 77337, Note_on_c, 0, 54, 74
1, 77364, Note_off_c, 0, 63, 64
1, 77372, Note_off_c, 0, 51, 64
1, 77401, Note_on_c, 0, 60, 91
1, 77408, Note_off_c, 0, 54, 64
1, 77408, Note_on_c, 0, 44, 82
1, 77428, Note_off_c, 0, 66, 64
1, 77457, Note_on_c, 0, 54, 85
1, 77467, Note_on_c, 0, 66, 81
1, 77482, Note_off_c, 0, 60, 64
1, 77492, Note_off_c, 0, 44, 64
1, 77535, Note_off_c, 0, 54, 64
1, 77535, Note_on_c, 0, 63, 92
1, 77542, Note_on_c, 0, 51, 78
1, 77553, Note_off_c, 0, 66, 64
1, 77601, Note_on_c, 0, 54, 83
1, 77606, Note_on_c, 0, 66, 75
1, 77613, Note_off_c, 0, 63, 64
1, 77626, Note_off_c, 0, 51, 64
1, 77677, Note_off_c, 0, 54, 64
1, 77677, Note_on_c, 0, 60, 92
1, 77688, Note_on_c, 0, 44, 90
1, 77691, Note_off_c, 0, 66, 64
1, 77741, Note_on_c, 0, 54, 76
1, 77746, Note_off_c, 0, 60, 64
1, 77746, Note_on_c, 0, 66, 77
1, 77777, Note_off_c, 0, 44, 64
1, 77815, Note_on_c, 0, 63, 92
1, 77824, Note_off_c, 0, 66, 64
1, 77824, Note_on_c, 0, 51, 81
1, 77833, Note_off_c, 0, 54, 64
1, 77883, Note_on_c, 0, 66, 75
1, 77894, Note_on_c, 0, 54, 86
1, 77899, Note_off_c, 0, 63, 64
1, 77926, Note_off_c, 0, 51, 64
1, 77957, Note_on_c, 0, 60, 91
1, 77969, Note_off_c, 0, 66, 64
1, 77980, Note_on_c, 0, 44, 91
1, 77980, Note_off_c, 0, 54, 64
1, 78021, Note_on_c, 0, 66, 73
1, 78038, Note_on_c, 0, 54, 83
1, 78044, Note_off_c, 0, 60, 64
1, 78100, Note_off_c, 0, 44, 64
1, 78113, Note_on_c, 0, 63, 81
1, 78117, Note_off_c, 0, 66, 64
1, 78120, Note_on_c, 0, 51, 68
1, 78128, Note_off_c, 0, 54, 64
1, 78158, Note_on_c, 0, 66, 77
1, 78178, Note_on_c, 0, 54, 90
1, 78195, Note_off_c, 0, 66, 64
1, 78203, Note_off_c, 0, 63, 64
1, 78212, Note_off_c, 0, 51, 64
1, 78219, Note_off_c, 0, 54, 64
1, 78378, Note_on_c, 0, 52, 104
1, 78378, Note_on_c, 0, 56, 86
1, 78378, Note_on_c, 0, 61, 95
1, 78384, Note_on_c, 0, 64, 75
1, 78384, Note_on_c, 0, 37, 113
1, 78406, Note_off_c, 0, 52, 64
1, 78409, Note_off_c, 0, 61, 64
1, 78412, Note_off_c, 0, 56, 64
1, 78415, Note_off_c, 0, 64, 64
1, 78437, Note_off_c, 0, 37, 64
1, 78523, Note_on_c, 0, 44, 84
1, 78559, Control_c, 0, 64, 0
1, 78582, Note_on_c, 0, 49, 77
1, 78616, Note_off_c, 0, 44, 64
1, 78646, Note_on_c, 0, 52, 83
1, 78679, Note_off_c, 0, 49, 64
1, 78687, Note_on_c, 0, 37, 79
1, 78696, Note_on_c, 0, 56, 81
1, 78721, Note_off_c, 0, 37, 64
1, 78726, Note_off_c, 0, 52, 64
1, 78754, Note_on_c, 0, 49, 72
1, 78780, Note_off_c, 0, 56, 64
1, 78807, Note_on_c, 0, 44, 78
1, 78816, Note_on_c, 0, 52, 80
1, 78835, Note_off_c, 0, 49, 64
1, 78847, Note_off_c, 0, 44, 64
1, 78879, Note_on_c, 0, 56, 69
1, 78911, Note_off_c, 0, 52, 64
1, 78943, Note_on_c, 0, 61, 82
1, 78950, Note_on_c, 0, 37, 79
1, 78980, Note_off_c, 0, 56, 64
1, 78980, Note_off_c, 0, 37, 64
1, 79005, Note_on_c, 0, 52, 89
1, 79017, Note_off_c, 0, 61, 64
1, 79064, Note_on_c, 0, 56, 64
1, 79064, Note_on_c, 0, 44, 72
1, 79092, Note_off_c, 0, 52, 64
1, 79109, Note_off_c, 0, 44, 64
1, 79139, Note_on_c, 0, 61, 75
1, 79178, Note_off_c, 0, 56, 64
1, 79195, Note_on_c, 0, 64, 88
1, 79201, Note_on_c, 0, 37, 86
1, 79233, Note_off_c, 0, 64, 64
1, 79247, Note_off_c, 0, 61, 64
1, 79247, Note_off_c, 0, 37, 64
1, 79261, Note_on_c, 0, 56, 84
1, 79320, Note_on_c, 0, 44, 84
1, 79320, Note_on_c, 0, 61, 70
1, 79361, Note_off_c, 0, 56, 64
1, 79373, Note_off_c, 0, 44, 64
1, 79381, Note_on_c, 0, 64, 81
1, 79437, Note_off_c, 0, 61, 64
1, 79448, Note_on_c, 0, 68, 84
1, 79462, Note_on_c, 0, 37, 84
1, 79481, Note_off_c, 0, 64, 64
1, 79498, Note_off_c, 0, 37, 64
1, 79498, Note_on_c, 0, 61, 69
1, 79529, Note_off_c, 0, 68, 64
1, 79565, Note_on_c, 0, 64, 73
1, 79582, Note_on_c, 0, 44, 78
1, 79606, Note_off_c, 0, 61, 64
1, 79635, Note_on_c, 0, 68, 81
1, 79635, Note_off_c, 0, 44, 64
1, 79676, Note_off_c, 0, 64, 64
1, 79701, Note_on_c, 0, 73, 83
1, 79718, Note_on_c, 0, 37, 84
1, 79733, Note_off_c, 0, 68, 64
1, 79752, Note_off_c, 0, 37, 64
1, 79765, Note_on_c, 0, 64, 71
1, 79791, Note_off_c, 0, 73, 64
1, 79815, Note_on_c, 0, 68, 60
1, 79836, Note_on_c, 0, 44, 79
1, 79852, Note_off_c, 0, 64, 64
1, 79886, Note_off_c, 0, 44, 64
1, 79886, Note_on_c, 0, 73, 69
1, 79900, Note_off_c, 0, 68, 64
1, 79953, Note_on_c, 0, 76, 75
1, 79958, Note_on_c, 0, 37, 85
1, 79978, Note_off_c, 0, 73, 64
1, 79988, Note_off_c, 0, 76, 64
1, 80006, Note_on_c, 0, 68, 84
1, 80047, Note_off_c, 0, 37, 64
1, 80064, Note_on_c, 0, 73, 63
1, 80084, Note_on_c, 0, 44, 80
1, 80095, Note_off_c, 0, 68, 64
1, 80122, Note_off_c, 0, 44, 64
1, 80134, Note_on_c, 0, 76, 44
1, 80152, Note_off_c, 0, 73, 64
1, 80187, Note_on_c, 0, 73, 100
1, 80187, Note_on_c, 0, 49, 109
1, 80187, Note_on_c, 0, 80, 106
1, 80187, Note_on_c, 0, 37, 97
1, 80198, Note_on_c, 0, 68, 110
1, 80261, Control_c, 0, 64, 127
1, 80273, Note_off_c, 0, 49, 64
1, 80276, Note_off_c, 0, 37, 64
1, 80284, Note_off_c, 0, 80, 64
1, 80297, Note_off_c, 0, 76, 64
1, 80304, Note_off_c, 0, 68, 64
1, 80304, Note_off_c, 0, 73, 64
1, 80325, Note_on_c, 0, 80, 86
1, 80329, Note_on_c, 0, 76, 91
1, 80329, Note_on_c, 0, 68, 88
1, 80332, Note_on_c, 0, 73, 76
1, 80340, Note_on_c, 0, 44, 84
1, 80348, Note_off_c, 0, 80, 64
1, 80356, Note_off_c, 0, 76, 64
1, 80365, Note_off_c, 0, 73, 64
1, 80403, Note_off_c, 0, 44, 64
1, 80412, Note_off_c, 0, 68, 64
1, 80440, Control_c, 0, 64, 0
1, 80481, Note_on_c, 0, 36, 108
1, 80545, Note_on_c, 0, 44, 99
1, 80549, Note_off_c, 0, 36, 64
1, 80616, Note_on_c, 0, 48, 72
1, 80680, Note_on_c, 0, 51, 79
1, 80699, Note_off_c, 0, 44, 64
1, 80705, Note_off_c, 0, 48, 64
1, 80754, Note_on_c, 0, 56, 76
1, 80754, Note_on_c, 0, 36, 83
1, 80794, Note_off_c, 0, 51, 64
1, 80799, Note_off_c, 0, 36, 64
1, 80818, Note_on_c, 0, 48, 78
1, 80835, Note_off_c, 0, 56, 64
1, 80866, Note_on_c, 0, 44, 75
1, 80875, Note_on_c, 0, 51, 70
1, 80903, Note_off_c, 0, 48, 64
1, 80935, Note_off_c, 0, 44, 64
1, 80944, Note_on_c, 0, 56, 72
1, 80994, Note_off_c, 0, 51, 64
1, 81011, Note_on_c, 0, 36, 84
1, 81038, Note_on_c, 0, 60, 65
1, 81052, Note_off_c, 0, 36, 64
1, 81063, Note_off_c, 0, 56, 64
1, 81075, Note_off_c, 0, 60, 64
1, 81075, Note_on_c, 0, 51, 88
1, 81130, Note_on_c, 0, 44, 73
1, 81141, Note_on_c, 0, 56, 62
1, 81153, Note_off_c, 0, 51, 64
1, 81197, Note_on_c, 0, 60, 82
1, 81220, Note_off_c, 0, 44, 64
1, 81251, Note_off_c, 0, 56, 64
1, 81265, Note_on_c, 0, 36, 83
1, 81273, Note_on_c, 0, 63, 88
1, 81303, Note_off_c, 0, 60, 64
1, 81315, Note_on_c, 0, 56, 69
1, 81348, Note_off_c, 0, 36, 64
1, 81348, Note_off_c, 0, 63, 64
1, 81387, Note_on_c, 0, 60, 60
1, 81398, Note_on_c, 0, 44, 67
1, 81426, Note_off_c, 0, 56, 64
1, 81463, Note_on_c, 0, 63, 90
1, 81470, Note_off_c, 0, 44, 64
1, 81499, Note_off_c, 0, 60, 64
1, 81521, Note_on_c, 0, 68, 84
1, 81543, Note_on_c, 0, 36, 84
1, 81554, Note_off_c, 0, 63, 64
1, 81588, Note_off_c, 0, 68, 64
1, 81591, Note_on_c, 0, 60, 75
1, 81624, Note_off_c, 0, 36, 64
1, 81644, Note_on_c, 0, 63, 81
1, 81668, Note_on_c, 0, 44, 69
1, 81668, Note_off_c, 0, 60, 64
1, 81712, Note_on_c, 0, 68, 70
1, 81733, Note_off_c, 0, 44, 64
1, 81751, Note_off_c, 0, 63, 64
1, 81785, Note_on_c, 0, 72, 77
1, 81785, Note_on_c, 0, 36, 82
1, 81819, Note_off_c, 0, 68, 64
1, 81824, Note_off_c, 0, 72, 64
1, 81841, Note_on_c, 0, 63, 89
1, 81857, Note_off_c, 0, 36, 64
1, 81891, Note_on_c, 0, 68, 54
1, 81911, Note_on_c, 0, 44, 70
1, 81924, Note_off_c, 0, 63, 64
1, 81960, Note_on_c, 0, 72, 68
1, 81986, Note_off_c, 0, 44, 64
1, 82008, Note_off_c, 0, 68, 64
1, 82022, Note_on_c, 0, 75, 87
1, 82022, Note_on_c, 0, 36, 77
1, 82053, Note_off_c, 0, 72, 64
1, 82073, Note_on_c, 0, 68, 59
1, 82080, Note_off_c, 0, 36, 64
1, 82091, Note_off_c, 0, 75, 64
1, 82148, Note_on_c, 0, 72, 59
1, 82158, Note_on_c, 0, 44, 69
1, 82194, Note_off_c, 0, 68, 64
1, 82194, Note_off_c, 0, 44, 64
1, 82205, Note_on_c, 0, 75, 60
1, 82214, Control_c, 0, 64, 127
1, 82231, Note_off_c, 0, 72, 64
1, 82237, Note_off_c, 0, 75, 64
1, 82264, Note_on_c, 0, 80, 110
1, 82264, Note_on_c, 0, 68, 95
1, 82268, Note_on_c, 0, 48, 102
1, 82268, Note_on_c, 0, 75, 101
1, 82268, Note_on_c, 0, 72, 101
1, 82278, Note_on_c, 0, 36, 84
1, 82354, Note_off_c, 0, 80, 64
1, 82364, Note_off_c, 0, 36, 64
1, 82364, Note_off_c, 0, 48, 64
1, 82367, Note_off_c, 0, 68, 64
1, 82375, Note_off_c, 0, 75, 64
1, 82375, Note_off_c, 0, 72, 64
1, 82398, Note_on_c, 0, 80, 88
1, 82404, Note_on_c, 0, 68, 86
1, 82412, Note_on_c, 0, 44, 84
1, 82412, Note_on_c, 0, 75, 79
1, 82418, Note_on_c, 0, 72, 53
1, 82421, Note_off_c, 0, 80, 64
1, 82460, Note_off_c, 0, 44, 64
1, 82460, Note_off_c, 0, 72, 64
1, 82474, Note_off_c, 0, 75, 64
1, 82487, Note_off_c, 0, 68, 64
1, 82549, Control_c, 0, 64, 0
1, 82571, Note_on_c, 0, 35, 108
1, 82632, Note_on_c, 0, 49, 96
1, 82641, Note_off_c, 0, 35, 64
1, 82691, Note_on_c, 0, 44, 79
1, 82707, Note_on_c, 0, 53, 95
1, 82722, Note_off_c, 0, 49, 64
1, 82765, Note_on_c, 0, 56, 75
1, 82777, Note_off_c, 0, 44, 64
1, 82800, Note_off_c, 0, 53, 64
1, 82813, Control_c, 0, 64, 127
1, 82841, Note_on_c, 0, 35, 85
1, 82850, Note_on_c, 0, 61, 80
1, 82882, Note_off_c, 0, 56, 64
1, 82886, Note_off_c, 0, 35, 64
1, 82917, Note_on_c, 0, 53, 105
1, 82922, Note_off_c, 0, 61, 64
1, 82960, Note_on_c, 0, 44, 70
1, 82974, Note_on_c, 0, 56, 73
1, 82989, Note_off_c, 0, 53, 64
1, 83039, Note_on_c, 0, 61, 74
1, 83058, Note_off_c, 0, 44, 64
1, 83066, Note_off_c, 0, 56, 64
1, 83089, Control_c, 0, 64, 0
1, 83111, Note_on_c, 0, 65, 84
1, 83111, Note_on_c, 0, 35, 89
1, 83158, Note_off_c, 0, 61, 64
1, 83165, Note_off_c, 0, 65, 64
1, 83186, Note_on_c, 0, 56, 83
1, 83195, Note_off_c, 0, 35, 64
1, 83212, Note_on_c, 0, 58, 33
1, 83234, Note_on_c, 0, 44, 69
1, 83245, Control_c, 0, 64, 127
1, 83251, Note_on_c, 0, 61, 73
1, 83258, Note_off_c, 0, 56, 64
1, 83279, Note_off_c, 0, 58, 64
1, 83315, Note_on_c, 0, 65, 70
1, 83334, Note_off_c, 0, 44, 64
1, 83368, Note_off_c, 0, 61, 64
1, 83376, Control_c, 0, 64, 0
1, 83390, Note_on_c, 0, 68, 82
1, 83390, Note_on_c, 0, 35, 86
1, 83420, Note_off_c, 0, 65, 64
1, 83437, Note_on_c, 0, 61, 74
1, 83456, Note_off_c, 0, 35, 64
1, 83470, Note_off_c, 0, 68, 64
1, 83496, Control_c, 0, 64, 127
1, 83509, Note_on_c, 0, 44, 73
1, 83509, Note_on_c, 0, 65, 58
1, 83551, Note_off_c, 0, 61, 64
1, 83577, Note_on_c, 0, 68, 79
1, 83602, Note_off_c, 0, 44, 64
1, 83623, Note_off_c, 0, 65, 64
1, 83640, Control_c, 0, 64, 0
1, 83644, Note_on_c, 0, 73, 83
1, 83660, Note_on_c, 0, 35, 89
1, 83683, Note_off_c, 0, 68, 64
1, 83705, Note_on_c, 0, 65, 64
1, 83716, Note_off_c, 0, 73, 64
1, 83719, Note_off_c, 0, 35, 64
1, 83763, Note_on_c, 0, 68, 62
1, 83772, Control_c, 0, 64, 127
1, 83775, Note_on_c, 0, 44, 68
1, 83808, Note_off_c, 0, 65, 64
1, 83828, Note_on_c, 0, 73, 70
1, 83852, Note_off_c, 0, 44, 64
1, 83852, Control_c, 0, 64, 0
1, 83869, Note_off_c, 0, 68, 64
1, 83905, Note_on_c, 0, 77, 76
1, 83905, Note_on_c, 0, 35, 85
1, 83936, Note_off_c, 0, 73, 64
1, 83936, Note_off_c, 0, 77, 64
1, 83966, Note_on_c, 0, 68, 87
1, 83983, Note_off_c, 0, 35, 64
1, 84000, Control_c, 0, 64, 127
1, 84017, Note_on_c, 0, 73, 69
1, 84027, Note_on_c, 0, 44, 72
1, 84047, Note_off_c, 0, 68, 64
1, 84089, Note_on_c, 0, 77, 76
1, 84120, Note_off_c, 0, 44, 64
1, 84131, Control_c, 0, 64, 0
1, 84137, Note_off_c, 0, 73, 64
1, 84144, Note_on_c, 0, 35, 89
1, 84153, Note_on_c, 0, 80, 86
1, 84175, Note_off_c, 0, 77, 64
1, 84186, Note_off_c, 0, 80, 64
1, 84192, Note_on_c, 0, 73, 73
1, 84228, Note_off_c, 0, 35, 64
1, 84271, Note_on_c, 0, 44, 77
1, 84278, Note_on_c, 0, 77, 64
1, 84300, Control_c, 0, 64, 127
1, 84325, Note_on_c, 0, 80, 81
1, 84325, Note_off_c, 0, 44, 64
1, 84335, Note_off_c, 0, 73, 64
1, 84335, Control_c, 0, 64, 0
1, 84356, Note_off_c, 0, 80, 64
1, 84376, Note_off_c, 0, 77, 64
1, 84398, Note_on_c, 0, 47, 103
1, 84403, Note_on_c, 0, 35, 103
1, 84403, Note_on_c, 0, 80, 86
1, 84403, Note_on_c, 0, 85, 108
1, 84403, Note_on_c, 0, 73, 95
1, 84412, Note_on_c, 0, 77, 99
1, 84491, Control_c, 0, 64, 127
1, 84507, Note_off_c, 0, 85, 64
1, 84510, Note_off_c, 0, 73, 64
1, 84521, Note_off_c, 0, 80, 64
1, 84524, Note_off_c, 0, 35, 64
1, 84524, Note_off_c, 0, 77, 64
1, 84555, Note_on_c, 0, 85, 80
1, 84563, Note_on_c, 0, 80, 83
1, 84563, Note_on_c, 0, 73, 78
1, 84569, Note_on_c, 0, 77, 91
1, 84576, Note_on_c, 0, 44, 83
1, 84585, Note_off_c, 0, 85, 64
1, 84593, Note_off_c, 0, 47, 64
1, 84601, Note_off_c, 0, 77, 64
1, 84607, Note_off_c, 0, 80, 64
1, 84649, Note_off_c, 0, 73, 64
1, 84660, Note_off_c, 0, 44, 64
1, 84743, Control_c, 0, 64, 0
1, 84761, Note_on_c, 0, 33, 107
1, 84838, Note_on_c, 0, 49, 73
1, 84846, Note_off_c, 0, 33, 64
1, 84863, Note_on_c, 0, 51, 25
1, 84886, Note_off_c, 0, 49, 64
1, 84894, Note_on_c, 0, 54, 88
1, 84913, Note_on_c, 0, 45, 66
1, 84917, Note_off_c, 0, 51, 64
1, 84934, Control_c, 0, 64, 127
1, 84944, Note_on_c, 0, 57, 60
1, 84998, Note_off_c, 0, 54, 64
1, 85009, Note_off_c, 0, 45, 64
1, 85027, Note_on_c, 0, 61, 66
1, 85033, Note_off_c, 0, 57, 64
1, 85033, Note_on_c, 0, 33, 87
1, 85061, Note_off_c, 0, 61, 64
1, 85101, Note_on_c, 0, 61, 75
1, 85130, Note_off_c, 0, 33, 64
1, 85154, Note_off_c, 0, 61, 64
1, 85165, Note_on_c, 0, 45, 67
1, 85168, Note_on_c, 0, 66, 67
1, 85253, Note_on_c, 0, 69, 49
1, 85264, Note_off_c, 0, 45, 64
1, 85289, Note_on_c, 0, 73, 82
1, 85296, Note_on_c, 0, 33, 84
1, 85301, Note_off_c, 0, 69, 64
1, 85304, Note_off_c, 0, 66, 64
1, 85314, Note_off_c, 0, 73, 64
1, 85354, Note_on_c, 0, 73, 68
1, 85392, Note_off_c, 0, 33, 64
1, 85421, Note_on_c, 0, 78, 74
1, 85454, Note_on_c, 0, 45, 58
1, 85468, Note_on_c, 0, 81, 74
1, 85479, Note_off_c, 0, 73, 64
1, 85518, Note_off_c, 0, 78, 64
1, 85532, Note_off_c, 0, 45, 64
1, 85532, Control_c, 0, 64, 0
1, 85544, Note_off_c, 0, 81, 64
1, 85557, Note_on_c, 0, 78, 97
1, 85557, Note_on_c, 0, 73, 105
1, 85560, Note_on_c, 0, 85, 104
1, 85560, Note_on_c, 0, 33, 100
1, 85663, Note_off_c, 0, 85, 64
1, 85668, Note_off_c, 0, 73, 64
1, 85679, Note_off_c, 0, 78, 64
1, 85679, Note_off_c, 0, 33, 64
1, 85690, Control_c, 0, 64, 127
1, 85704, Note_on_c, 0, 85, 91
1, 85704, Note_on_c, 0, 73, 98
1, 85716, Note_on_c, 0, 78, 90
1, 85725, Note_on_c, 0, 45, 72
1, 85733, Note_off_c, 0, 85, 64
1, 85743, Note_off_c, 0, 78, 64
1, 85780, Note_off_c, 0, 73, 64
1, 85814, Note_off_c, 0, 45, 64
1, 85821, Control_c, 0, 64, 0
1, 85863, Note_on_c, 0, 33, 107
1, 85924, Note_on_c, 0, 49, 92
1, 85975, Note_off_c, 0, 33, 64
1, 85987, Note_on_c, 0, 52, 94
1, 86006, Note_off_c, 0, 49, 64
1, 86012, Control_c, 0, 64, 127
1, 86022, Note_on_c, 0, 45, 60
1, 86059, Note_on_c, 0, 55, 83
1, 86089, Note_off_c, 0, 52, 64
1, 86119, Note_off_c, 0, 45, 64
1, 86128, Note_on_c, 0, 61, 79
1, 86133, Note_off_c, 0, 55, 64
1, 86150, Note_on_c, 0, 33, 87
1, 86156, Note_off_c, 0, 61, 64
1, 86190, Note_on_c, 0, 61, 89
1, 86242, Control_c, 0, 64, 0
1, 86259, Note_on_c, 0, 64, 88
1, 86262, Note_off_c, 0, 33, 64
1, 86287, Note_off_c, 0, 61, 64
1, 86309, Note_on_c, 0, 45, 55
1, 86324, Control_c, 0, 64, 127
1, 86329, Note_on_c, 0, 67, 79
1, 86363, Note_off_c, 0, 64, 64
1, 86402, Note_on_c, 0, 73, 81
1, 86410, Note_off_c, 0, 45, 64
1, 86427, Note_off_c, 0, 67, 64
1, 86431, Note_off_c, 0, 73, 64
1, 86431, Note_on_c, 0, 33, 86
1, 86471, Note_on_c, 0, 73, 76
1, 86543, Note_off_c, 0, 33, 64
1, 86543, Note_on_c, 0, 76, 76
1, 86574, Note_off_c, 0, 73, 64
1, 86590, Note_on_c, 0, 45, 56
1, 86599, Note_on_c, 0, 79, 87
1, 86613, Control_c, 0, 64, 0
1, 86627, Note_off_c, 0, 79, 64
1, 86632, Note_off_c, 0, 76, 64
1, 86632, Note_off_c, 0, 45, 64
1, 86694, Note_on_c, 0, 79, 78
1, 86694, Note_on_c, 0, 73, 110
1, 86697, Note_on_c, 0, 85, 107
1, 86697, Note_on_c, 0, 45, 72
1, 86704, Note_on_c, 0, 33, 101
1, 86757, Control_c, 0, 64, 127
1, 86769, Note_off_c, 0, 33, 64
1, 86777, Note_off_c, 0, 45, 64
1, 86783, Control_c, 0, 64, 0
1, 86799, Note_off_c, 0, 73, 64
1, 86805, Note_off_c, 0, 79, 64
1, 86805, Note_off_c, 0, 85, 64
1, 86863, Note_on_c, 0, 79, 89
1, 86866, Note_on_c, 0, 85, 85
1, 86866, Note_on_c, 0, 73, 87
1, 86878, Note_on_c, 0, 45, 89
1, 86878, Note_on_c, 0, 33, 94
1, 86911, Note_off_c, 0, 33, 64
1, 86916, Note_off_c, 0, 45, 64
1, 86923, Control_c, 0, 64, 127
1, 86948, Control_c, 0, 64, 0
1, 86978, Note_off_c, 0, 73, 64
1, 86997, Note_off_c, 0, 79, 64
1, 86997, Note_off_c, 0, 85, 64
1, 87055, Note_on_c, 0, 80, 92
1, 87055, Note_on_c, 0, 72, 111
1, 87055, Note_on_c, 0, 84, 108
1, 87059, Note_on_c, 0, 44, 114
1, 87062, Note_on_c, 0, 32, 100
1, 87084, Note_off_c, 0, 32, 64
1, 87094, Note_on_c, 0, 82, 25
1, 87115, Note_off_c, 0, 84, 64
1, 87119, Note_off_c, 0, 44, 64
1, 87128, Control_c, 0, 64, 127
1, 87134, Note_off_c, 0, 72, 64
1, 87148, Note_off_c, 0, 80, 64
1, 87148, Note_off_c, 0, 82, 64
1, 87303, Note_on_c, 0, 60, 85
1, 87309, Note_on_c, 0, 56, 69
1, 87312, Note_on_c, 0, 68, 81
1, 87371, Note_off_c, 0, 60, 64
1, 87387, Note_on_c, 0, 80, 71
1, 87395, Note_off_c, 0, 68, 64
1, 87459, Note_on_c, 0, 68, 67
1, 87482, Note_off_c, 0, 80, 64
1, 87490, Note_on_c, 0, 60, 66
1, 87532, Note_on_c, 0, 80, 66
1, 87537, Note_off_c, 0, 68, 64
1, 87596, Control_c, 0, 64, 0
1, 87596, Note_on_c, 0, 61, 75
1, 87602, Note_off_c, 0, 60, 64
1, 87607, Note_on_c, 0, 70, 68
1, 87627, Note_off_c, 0, 80, 64
1, 87677, Note_on_c, 0, 80, 60
1, 87694, Note_off_c, 0, 70, 64
1, 87738, Control_c, 0, 64, 127
1, 87753, Note_on_c, 0, 72, 65
1, 87769, Note_on_c, 0, 63, 66
1, 87777, Note_off_c, 0, 80, 64
1, 87830, Note_on_c, 0, 80, 60
1, 87836, Note_off_c, 0, 72, 64
1, 87889, Note_off_c, 0, 61, 64
1, 87900, Note_on_c, 0, 73, 65
1, 87908, Note_on_c, 0, 64, 80
1, 87919, Note_off_c, 0, 63, 64
1, 87919, Note_off_c, 0, 80, 64
1, 87967, Note_on_c, 0, 80, 66
1, 88008, Note_off_c, 0, 73, 64
1, 88039, Control_c, 0, 64, 0
1, 88039, Note_on_c, 0, 75, 72
1, 88051, Note_off_c, 0, 80, 64
1, 88059, Note_on_c, 0, 66, 77
1, 88092, Note_off_c, 0, 64, 64
1, 88110, Note_on_c, 0, 80, 65
1, 88145, Note_off_c, 0, 75, 64
1, 88181, Note_on_c, 0, 72, 85
1, 88181, Control_c, 0, 64, 127
1, 88195, Note_on_c, 0, 63, 81
1, 88209, Note_off_c, 0, 80, 64
1, 88226, Note_off_c, 0, 66, 64
1, 88259, Note_on_c, 0, 80, 67
1, 88264, Note_off_c, 0, 72, 64
1, 88324, Note_on_c, 0, 75, 76
1, 88340, Note_on_c, 0, 66, 81
1, 88345, Note_off_c, 0, 80, 64
1, 88388, Note_off_c, 0, 63, 64
1, 88404, Note_on_c, 0, 80, 68
1, 88410, Control_c, 0, 64, 0
1, 88452, Note_off_c, 0, 75, 64
1, 88466, Note_on_c, 0, 73, 81
1, 88482, Note_on_c, 0, 64, 80
1, 88499, Note_off_c, 0, 80, 64
1, 88529, Note_off_c, 0, 66, 64
1, 88541, Note_on_c, 0, 80, 81
1, 88541, Control_c, 0, 64, 127
1, 88549, Note_off_c, 0, 73, 64
1, 88586, Note_off_c, 0, 56, 64
1, 88602, Note_on_c, 0, 78, 79
1, 88618, Note_off_c, 0, 64, 64
1, 88624, Note_on_c, 0, 69, 69
1, 88643, Note_off_c, 0, 80, 64
1, 88688, Note_on_c, 0, 80, 82
1, 88745, Note_off_c, 0, 78, 64
1, 88745, Note_on_c, 0, 76, 81
1, 88757, Note_off_c, 0, 80, 64
1, 88764, Note_on_c, 0, 68, 78
1, 88799, Note_off_c, 0, 69, 64
1, 88827, Note_on_c, 0, 80, 65
1, 88853, Note_off_c, 0, 76, 64
1, 88886, Note_on_c, 0, 75, 83
1, 88897, Note_off_c, 0, 68, 64
1, 88897, Note_on_c, 0, 66, 70
1, 88900, Note_off_c, 0, 80, 64
1, 88962, Note_on_c, 0, 80, 70
1, 88981, Note_off_c, 0, 75, 64
1, 89003, Note_off_c, 0, 66, 64
1, 89037, Note_on_c, 0, 73, 78
1, 89044, Note_off_c, 0, 80, 64
1, 89044, Note_on_c, 0, 64, 86
1, 89100, Note_on_c, 0, 80, 64
1, 89112, Note_off_c, 0, 73, 64
1, 89179, Note_off_c, 0, 80, 64
1, 89179, Note_on_c, 0, 72, 76
1, 89196, Note_off_c, 0, 64, 64
1, 89196, Note_on_c, 0, 63, 79
1, 89232, Note_on_c, 0, 80, 63
1, 89256, Note_off_c, 0, 72, 64
1, 89290, Note_off_c, 0, 63, 64
1, 89326, Note_on_c, 0, 69, 75
1, 89326, Note_on_c, 0, 61, 78
1, 89337, Note_off_c, 0, 80, 64
1, 89368, Note_off_c, 0, 61, 64
1, 89404, Note_off_c, 0, 69, 64
1, 89404, Note_on_c, 0, 79, 81
1, 89465, Note_off_c, 0, 79, 64
1, 89465, Note_on_c, 0, 56, 87
1, 89469, Note_on_c, 0, 60, 80
1, 89473, Note_on_c, 0, 68, 77
1, 89504, Note_off_c, 0, 60, 64
1, 89538, Note_off_c, 0, 68, 64
1, 89547, Note_on_c, 0, 80, 74
1, 89596, Control_c, 0, 64, 0
1, 89624, Note_on_c, 0, 68, 59
1, 89629, Note_on_c, 0, 60, 77
1, 89638, Note_off_c, 0, 80, 64
1, 89691, Note_off_c, 0, 68, 64
1, 89691, Note_on_c, 0, 80, 64
1, 89717, Note_off_c, 0, 60, 64
1, 89752, Control_c, 0, 64, 127
1, 89774, Note_off_c, 0, 80, 64
1, 89774, Note_on_c, 0, 68, 55
1, 89780, Note_on_c, 0, 60, 50
1, 89824, Note_off_c, 0, 68, 64
1, 89845, Note_on_c, 0, 80, 42
1, 89903, Note_off_c, 0, 60, 64
1, 89919, Note_on_c, 0, 70, 58
1, 89925, Note_on_c, 0, 61, 60
1, 89944, Note_off_c, 0, 80, 64
1, 89987, Note_off_c, 0, 70, 64
1, 89994, Note_on_c, 0, 80, 60
1, 90076, Note_on_c, 0, 72, 64
1, 90082, Note_on_c, 0, 63, 70
1, 90090, Note_off_c, 0, 80, 64
1, 90118, Note_off_c, 0, 61, 64
1, 90142, Note_on_c, 0, 80, 61
1, 90150, Note_off_c, 0, 72, 64
1, 90221, Note_on_c, 0, 73, 69
1, 90221, Note_on_c, 0, 64, 72
1, 90224, Note_off_c, 0, 63, 64
1, 90228, Note_off_c, 0, 80, 64
1, 90293, Note_on_c, 0, 80, 55
1, 90324, Note_off_c, 0, 73, 64
1, 90363, Note_on_c, 0, 75, 72
1, 90371, Note_on_c, 0, 66, 71
1, 90374, Note_off_c, 0, 80, 64
1, 90393, Note_off_c, 0, 64, 64
1, 90424, Control_c, 0, 64, 0
1, 90433, Note_on_c, 0, 80, 61
1, 90451, Note_off_c, 0, 75, 64
1, 90502, Note_on_c, 0, 72, 84
1, 90502, Note_on_c, 0, 63, 81
1, 90519, Control_c, 0, 64, 127
1, 90529, Note_off_c, 0, 80, 64
1, 90529, Note_off_c, 0, 66, 64
1, 90575, Note_on_c, 0, 80, 73
1, 90580, Note_off_c, 0, 72, 64
1, 90638, Note_on_c, 0, 66, 78
1, 90644, Note_on_c, 0, 75, 73
1, 90653, Note_off_c, 0, 80, 64
1, 90671, Note_off_c, 0, 63, 64
1, 90725, Note_on_c, 0, 80, 60
1, 90760, Control_c, 0, 64, 0
1, 90760, Note_off_c, 0, 75, 64
1, 90774, Note_on_c, 0, 73, 84
1, 90780, Note_on_c, 0, 64, 80
1, 90794, Note_off_c, 0, 66, 64
1, 90800, Note_off_c, 0, 80, 64
1, 90848, Note_on_c, 0, 80, 77
1, 90863, Note_off_c, 0, 73, 64
1, 90878, Control_c, 0, 64, 127
1, 90882, Note_off_c, 0, 56, 64
1, 90914, Note_on_c, 0, 78, 81
1, 90926, Note_on_c, 0, 69, 77
1, 90931, Note_off_c, 0, 64, 64
1, 90950, Note_off_c, 0, 80, 64
1, 91000, Note_on_c, 0, 80, 71
1, 91050, Note_on_c, 0, 76, 81
1, 91054, Note_off_c, 0, 78, 64
1, 91065, Note_on_c, 0, 68, 76
1, 91079, Note_off_c, 0, 80, 64
1, 91093, Note_off_c, 0, 69, 64
1, 91132, Note_on_c, 0, 80, 74
1, 91156, Note_off_c, 0, 76, 64
1, 91196, Note_on_c, 0, 75, 81
1, 91199, Note_off_c, 0, 68, 64
1, 91199, Note_on_c, 0, 66, 76
1, 91220, Note_off_c, 0, 80, 64
1, 91271, Note_on_c, 0, 80, 79
1, 91295, Note_off_c, 0, 75, 64
1, 91307, Note_off_c, 0, 66, 64
1, 91338, Note_on_c, 0, 73, 79
1, 91341, Note_on_c, 0, 64, 91
1, 91346, Note_off_c, 0, 80, 64
1, 91412, Note_on_c, 0, 80, 61
1, 91419, Note_off_c, 0, 73, 64
1, 91479, Note_on_c, 0, 72, 83
1, 91485, Note_off_c, 0, 64, 64
1, 91485, Note_on_c, 0, 63, 86
1, 91538, Note_off_c, 0, 72, 64
1, 91569, Note_off_c, 0, 63, 64
1, 91607, Note_on_c, 0, 61, 85
1, 91618, Note_on_c, 0, 69, 83
1, 91628, Note_off_c, 0, 80, 64
1, 91639, Note_off_c, 0, 61, 64
1, 91683, Note_off_c, 0, 69, 64
1, 91692, Note_on_c, 0, 79, 85
1, 91741, Note_off_c, 0, 79, 64
1, 91741, Control_c, 0, 64, 0
1, 91750, Note_on_c, 0, 60, 81
1, 91755, Note_on_c, 0, 56, 78
1, 91755, Note_on_c, 0, 68, 85
1, 91781, Note_off_c, 0, 60, 64
1, 91786, Note_off_c, 0, 56, 64
1, 91828, Note_on_c, 0, 80, 78
1, 91833, Note_off_c, 0, 68, 64
1, 91883, Note_off_c, 0, 80, 64
1, 91892, Note_on_c, 0, 61, 75
1, 91892, Note_on_c, 0, 69, 65
1, 91901, Note_on_c, 0, 56, 68
1, 91925, Note_off_c, 0, 61, 64
1, 91934, Note_off_c, 0, 56, 64
1, 91954, Note_off_c, 0, 69, 64
1, 91958, Note_on_c, 0, 79, 85
1, 92012, Note_off_c, 0, 79, 64
1, 92028, Note_on_c, 0, 60, 85
1, 92031, Note_on_c, 0, 68, 82
1, 92037, Note_on_c, 0, 56, 63
1, 92061, Note_off_c, 0, 60, 64
1, 92070, Note_off_c, 0, 56, 64
1, 92101, Note_on_c, 0, 80, 78
1, 92118, Note_off_c, 0, 68, 64
1, 92159, Note_on_c, 0, 61, 95
1, 92168, Note_on_c, 0, 56, 66
1, 92171, Note_on_c, 0, 69, 74
1, 92198, Note_off_c, 0, 80, 64
1, 92204, Note_off_c, 0, 56, 64
1, 92217, Note_off_c, 0, 61, 64
1, 92234, Note_on_c, 0, 79, 82
1, 92249, Note_off_c, 0, 69, 64
1, 92281, Note_off_c, 0, 79, 64
1, 92299, Note_on_c, 0, 60, 94
1, 92307, Note_on_c, 0, 68, 81
1, 92307, Note_on_c, 0, 56, 86
1, 92337, Note_on_c, 0, 70, 19
1, 92340, Note_off_c, 0, 56, 64
1, 92348, Note_off_c, 0, 60, 64
1, 92366, Note_on_c, 0, 80, 84
1, 92391, Note_off_c, 0, 68, 64
1, 92394, Note_off_c, 0, 70, 64
1, 92427, Note_on_c, 0, 61, 90
1, 92432, Note_on_c, 0, 69, 76
1, 92432, Note_on_c, 0, 56, 72
1, 92451, Note_off_c, 0, 80, 64
1, 92469, Note_off_c, 0, 56, 64
1, 92476, Note_off_c, 0, 61, 64
1, 92493, Note_on_c, 0, 79, 86
1, 92501, Note_off_c, 0, 69, 64
1, 92558, Note_on_c, 0, 60, 91
1, 92563, Note_on_c, 0, 56, 73
1, 92574, Note_off_c, 0, 79, 64
1, 92574, Note_on_c, 0, 68, 89
1, 92603, Note_off_c, 0, 56, 64
1, 92614, Note_off_c, 0, 60, 64
1, 92652, Note_on_c, 0, 80, 77
1, 92688, Note_off_c, 0, 68, 64
1, 92714, Note_on_c, 0, 56, 73
1, 92714, Note_on_c, 0, 61, 86
1, 92719, Note_on_c, 0, 69, 59
1, 92755, Note_off_c, 0, 61, 64
1, 92759, Note_off_c, 0, 80, 64
1, 92759, Note_off_c, 0, 56, 64
1, 92766, Note_on_c, 0, 79, 69
1, 92791, Note_off_c, 0, 69, 64
1, 92800, Note_off_c, 0, 79, 64
1, 92851, Note_on_c, 0, 80, 105
1, 92854, Note_on_c, 0, 60, 100
1, 92854, Note_on_c, 0, 68, 105
1, 92854, Note_on_c, 0, 56, 86
1, 92892, Control_c, 0, 64, 127
1, 92892, Note_off_c, 0, 60, 64
1, 92905, Note_off_c, 0, 80, 64
1, 92905, Note_off_c, 0, 56, 64
1, 92914, Note_off_c, 0, 68, 64
1, 93084, Control_c, 0, 64, 0
1, 93231, Note_on_c, 0, 44, 96
1, 93234, Note_on_c, 0, 56, 100
1, 93234, Note_on_c, 0, 32, 92
1, 94163, Control_c, 0, 64, 127
1, 94193, Note_off_c, 0, 56, 64
1, 94201, Note_off_c, 0, 44, 64
1, 94248, Note_off_c, 0, 32, 64
1, 94761, Note_on_c, 0, 37, 83
1, 94761, Control_c, 0, 64, 0
1, 94792, Note_off_c, 0, 37, 64
1, 94820, Note_on_c, 0, 44, 73
1, 94889, Note_on_c, 0, 49, 66
1, 94961, Note_on_c, 0, 52, 67
1, 94961, Note_off_c, 0, 44, 64
1, 94976, Note_off_c, 0, 49, 64
1, 95003, Note_on_c, 0, 56, 65
1, 95007, Note_off_c, 0, 52, 64
1, 95031, Note_on_c, 0, 37, 61
1, 95053, Note_off_c, 0, 56, 64
1, 95067, Note_on_c, 0, 49, 65
1, 95067, Note_off_c, 0, 37, 64
1, 95131, Note_on_c, 0, 52, 82
1, 95143, Note_on_c, 0, 44, 58
1, 95143, Note_off_c, 0, 49, 64
1, 95199, Note_off_c, 0, 44, 64
1, 95204, Note_on_c, 0, 56, 62
1, 95223, Note_off_c, 0, 52, 64
1, 95269, Note_on_c, 0, 61, 69
1, 95285, Note_on_c, 0, 37, 59
1, 95299, Note_off_c, 0, 56, 64
1, 95309, Note_off_c, 0, 61, 64
1, 95323, Note_off_c, 0, 37, 64
1, 95343, Note_on_c, 0, 52, 85
1, 95383, Note_off_c, 0, 52, 64
1, 95397, Note_on_c, 0, 44, 59
1, 95400, Note_on_c, 0, 56, 71
1, 95452, Note_off_c, 0, 44, 64
1, 95471, Note_on_c, 0, 61, 69
1, 95505, Note_off_c, 0, 56, 64
1, 95524, Note_on_c, 0, 64, 73
1, 95533, Note_on_c, 0, 37, 65
1, 95553, Note_off_c, 0, 64, 64
1, 95572, Note_off_c, 0, 61, 64
1, 95572, Note_off_c, 0, 37, 64
1, 95591, Note_on_c, 0, 56, 75
1, 95645, Note_on_c, 0, 44, 66
1, 95652, Note_on_c, 0, 61, 64
1, 95672, Note_off_c, 0, 56, 64
1, 95708, Note_off_c, 0, 44, 64
1, 95727, Note_on_c, 0, 64, 36
1, 95761, Note_off_c, 0, 61, 64
1, 95772, Note_on_c, 0, 68, 73
1, 95780, Note_on_c, 0, 37, 66
1, 95803, Note_off_c, 0, 64, 64
1, 95812, Note_on_c, 0, 61, 66
1, 95820, Note_off_c, 0, 68, 64
1, 95825, Note_off_c, 0, 37, 64
1, 95883, Note_on_c, 0, 64, 64
1, 95914, Note_on_c, 0, 44, 61
1, 95914, Note_off_c, 0, 61, 64
1, 95954, Note_on_c, 0, 68, 69
1, 95965, Note_off_c, 0, 44, 64
1, 95981, Note_off_c, 0, 64, 64
1, 96020, Note_on_c, 0, 73, 69
1, 96031, Note_on_c, 0, 37, 58
1, 96031, Note_off_c, 0, 68, 64
1, 96056, Note_off_c, 0, 73, 64
1, 96074, Note_on_c, 0, 64, 77
1, 96079, Note_off_c, 0, 37, 64
1, 96131, Note_on_c, 0, 68, 67
1, 96149, Note_on_c, 0, 44, 59
1, 96160, Note_off_c, 0, 64, 64
1, 96199, Note_on_c, 0, 73, 76
1, 96199, Note_off_c, 0, 44, 64
1, 96227, Note_off_c, 0, 68, 64
1, 96249, Note_on_c, 0, 76, 69
1, 96266, Note_on_c, 0, 37, 72
1, 96279, Note_off_c, 0, 73, 64
1, 96279, Note_off_c, 0, 76, 64
1, 96313, Note_on_c, 0, 76, 90
1, 96362, Note_off_c, 0, 37, 64
1, 96374, Note_on_c, 0, 80, 87
1, 96389, Note_on_c, 0, 44, 73
1, 96402, Note_off_c, 0, 76, 64
1, 96432, Note_off_c, 0, 44, 64
1, 96444, Note_on_c, 0, 85, 81
1, 96464, Note_off_c, 0, 80, 64
1, 96505, Note_on_c, 0, 76, 110
1, 96508, Note_on_c, 0, 88, 108
1, 96508, Note_on_c, 0, 49, 107
1, 96516, Note_on_c, 0, 37, 99
1, 96524, Control_c, 0, 64, 127
1, 96561, Note_off_c, 0, 85, 64
1, 96596, Note_off_c, 0, 37, 64
1, 96606, Note_off_c, 0, 88, 64
1, 96616, Note_off_c, 0, 76, 64
1, 96622, Note_off_c, 0, 49, 64
1, 96673, Note_on_c, 0, 88, 84
1, 96681, Note_on_c, 0, 76, 72
1, 96681, Note_on_c, 0, 44, 84
1, 96700, Note_off_c, 0, 88, 64
1, 96728, Note_off_c, 0, 76, 64
1, 96769, Note_off_c, 0, 44, 64
1, 96859, Control_c, 0, 64, 0
1, 96889, Note_on_c, 0, 34, 98
1, 96975, Note_off_c, 0, 34, 64
1, 96982, Note_on_c, 0, 52, 95
1, 97015, Control_c, 0, 64, 127
1, 97045, Note_on_c, 0, 55, 85
1, 97056, Note_on_c, 0, 49, 68
1, 97073, Note_off_c, 0, 52, 64
1, 97113, Note_on_c, 0, 61, 74
1, 97126, Note_off_c, 0, 49, 64
1, 97134, Note_off_c, 0, 55, 64
1, 97185, Note_on_c, 0, 64, 64
1, 97195, Note_on_c, 0, 46, 64
1, 97227, Note_off_c, 0, 61, 64
1, 97235, Note_off_c, 0, 64, 64
1, 97249, Note_on_c, 0, 55, 92
1, 97258, Note_off_c, 0, 46, 64
1, 97304, Note_on_c, 0, 61, 62
1, 97318, Note_on_c, 0, 49, 69
1, 97333, Note_off_c, 0, 55, 64
1, 97351, Control_c, 0, 64, 0
1, 97379, Note_on_c, 0, 64, 79
1, 97407, Note_off_c, 0, 49, 64
1, 97429, Note_off_c, 0, 61, 64
1, 97452, Note_on_c, 0, 46, 70
1, 97452, Note_off_c, 0, 64, 64
1, 97457, Note_on_c, 0, 67, 43
1, 97483, Control_c, 0, 64, 127
1, 97505, Note_on_c, 0, 61, 81
1, 97510, Note_off_c, 0, 67, 64
1, 97522, Note_off_c, 0, 46, 64
1, 97574, Note_on_c, 0, 49, 66
1, 97574, Note_on_c, 0, 64, 79
1, 97586, Note_off_c, 0, 61, 64
1, 97644, Note_on_c, 0, 67, 68
1, 97650, Control_c, 0, 64, 0
1, 97664, Note_off_c, 0, 49, 64
1, 97675, Note_off_c, 0, 64, 64
1, 97714, Note_on_c, 0, 46, 66
1, 97714, Note_on_c, 0, 73, 84
1, 97744, Note_off_c, 0, 67, 64
1, 97780, Note_off_c, 0, 46, 64
1, 97794, Note_on_c, 0, 64, 78
1, 97819, Note_off_c, 0, 73, 64
1, 97819, Control_c, 0, 64, 127
1, 97833, Note_on_c, 0, 49, 70
1, 97848, Note_on_c, 0, 67, 81
1, 97862, Note_off_c, 0, 64, 64
1, 97917, Note_on_c, 0, 73, 72
1, 97923, Note_off_c, 0, 49, 64
1, 97937, Control_c, 0, 64, 0
1, 97945, Note_off_c, 0, 67, 64
1, 97975, Note_on_c, 0, 76, 87
1, 97978, Note_on_c, 0, 46, 68
1, 98018, Note_off_c, 0, 73, 64
1, 98048, Note_on_c, 0, 67, 91
1, 98060, Note_off_c, 0, 46, 64
1, 98079, Note_off_c, 0, 76, 64
1, 98099, Note_on_c, 0, 73, 69
1, 98102, Note_on_c, 0, 49, 68
1, 98118, Control_c, 0, 64, 127
1, 98134, Note_off_c, 0, 67, 64
1, 98160, Note_on_c, 0, 76, 64
1, 98165, Control_c, 0, 64, 0
1, 98180, Note_off_c, 0, 49, 64
1, 98219, Note_off_c, 0, 73, 64
1, 98229, Note_on_c, 0, 79, 93
1, 98241, Note_on_c, 0, 46, 68
1, 98249, Note_off_c, 0, 76, 64
1, 98255, Note_off_c, 0, 79, 64
1, 98291, Note_on_c, 0, 73, 64
1, 98297, Control_c, 0, 64, 127
1, 98338, Note_off_c, 0, 46, 64
1, 98352, Note_on_c, 0, 76, 58
1, 98360, Note_on_c, 0, 49, 65
1, 98393, Note_off_c, 0, 73, 64
1, 98413, Note_on_c, 0, 79, 85
1, 98418, Control_c, 0, 64, 0
1, 98418, Note_off_c, 0, 49, 64
1, 98443, Note_off_c, 0, 76, 64
1, 98477, Note_on_c, 0, 85, 86
1, 98494, Note_on_c, 0, 46, 76
1, 98494, Note_off_c, 0, 79, 64
1, 98541, Note_on_c, 0, 76, 74
1, 98577, Note_off_c, 0, 85, 64
1, 98585, Note_off_c, 0, 46, 64
1, 98585, Control_c, 0, 64, 127
1, 98608, Note_on_c, 0, 79, 91
1, 98616, Note_on_c, 0, 49, 77
1, 98650, Note_off_c, 0, 76, 64
1, 98655, Note_off_c, 0, 49, 64
1, 98664, Note_on_c, 0, 85, 75
1, 98681, Control_c, 0, 64, 0
1, 98698, Note_off_c, 0, 79, 64
1, 98747, Note_on_c, 0, 88, 104
1, 98747, Note_on_c, 0, 76, 111
1, 98751, Note_on_c, 0, 46, 98
1, 98762, Note_on_c, 0, 34, 88
1, 98787, Note_off_c, 0, 34, 64
1, 98808, Note_off_c, 0, 85, 64
1, 98825, Control_c, 0, 64, 127
1, 98828, Note_off_c, 0, 46, 64
1, 98848, Note_off_c, 0, 76, 64
1, 98848, Note_off_c, 0, 88, 64
1, 98898, Note_on_c, 0, 88, 79
1, 98907, Note_on_c, 0, 49, 86
1, 98911, Note_on_c, 0, 76, 69
1, 98931, Note_off_c, 0, 88, 64
1, 98956, Note_off_c, 0, 49, 64
1, 98956, Note_off_c, 0, 76, 64
1, 99053, Control_c, 0, 64, 0
1, 99099, Note_on_c, 0, 31, 113
1, 99173, Note_off_c, 0, 31, 64
1, 99191, Note_on_c, 0, 51, 82
1, 99219, Control_c, 0, 64, 127
1, 99276, Note_on_c, 0, 58, 64
1, 99279, Note_off_c, 0, 51, 64
1, 99299, Note_on_c, 0, 51, 29
1, 99355, Note_on_c, 0, 61, 74
1, 99361, Note_off_c, 0, 51, 64
1, 99383, Note_off_c, 0, 58, 64
1, 99436, Note_on_c, 0, 63, 78
1, 99441, Note_on_c, 0, 43, 79
1, 99481, Note_off_c, 0, 61, 64
1, 99484, Note_off_c, 0, 43, 64
1, 99494, Note_off_c, 0, 63, 64
1, 99502, Note_on_c, 0, 58, 70
1, 99566, Note_on_c, 0, 51, 73
1, 99572, Note_on_c, 0, 61, 66
1, 99597, Note_off_c, 0, 58, 64
1, 99638, Note_on_c, 0, 63, 87
1, 99655, Note_off_c, 0, 51, 64
1, 99662, Note_off_c, 0, 61, 64
1, 99708, Note_on_c, 0, 70, 75
1, 99723, Note_off_c, 0, 63, 64
1, 99723, Note_on_c, 0, 43, 70
1, 99767, Note_off_c, 0, 43, 64
1, 99770, Note_on_c, 0, 61, 69
1, 99839, Note_on_c, 0, 63, 83
1, 99845, Note_on_c, 0, 51, 64
1, 99853, Note_off_c, 0, 70, 64
1, 99865, Note_off_c, 0, 61, 64
1, 99920, Note_on_c, 0, 70, 50
1, 99925, Note_off_c, 0, 51, 64
1, 99940, Note_off_c, 0, 63, 64
1, 99981, Note_on_c, 0, 73, 77
1, 99981, Note_on_c, 0, 43, 69
1, 100034, Note_off_c, 0, 70, 64
1, 100034, Note_off_c, 0, 43, 64
1, 100054, Note_on_c, 0, 63, 86
1, 100109, Note_off_c, 0, 73, 64
1, 100109, Note_on_c, 0, 51, 66
1, 100115, Note_on_c, 0, 70, 55
1, 100130, Note_off_c, 0, 63, 64
1, 100187, Note_on_c, 0, 73, 54
1, 100198, Note_off_c, 0, 51, 64
1, 100233, Note_off_c, 0, 70, 64
1, 100257, Note_on_c, 0, 75, 82
1, 100263, Control_c, 0, 64, 0
1, 100263, Note_on_c, 0, 43, 56
1, 100304, Note_off_c, 0, 73, 64
1, 100325, Note_on_c, 0, 70, 75
1, 100343, Note_off_c, 0, 75, 64
1, 100361, Note_off_c, 0, 43, 64
1, 100385, Note_on_c, 0, 73, 62
1, 100389, Note_on_c, 0, 51, 61
1, 100408, Note_off_c, 0, 70, 64
1, 100419, Control_c, 0, 64, 127
1, 100450, Note_on_c, 0, 75, 83
1, 100480, Note_off_c, 0, 73, 64
1, 100494, Note_off_c, 0, 51, 64
1, 100527, Note_on_c, 0, 82, 75
1, 100536, Note_on_c, 0, 43, 49
1, 100559, Note_off_c, 0, 75, 64
1, 100586, Note_off_c, 0, 43, 64
1, 100586, Note_on_c, 0, 73, 75
1, 100641, Note_off_c, 0, 82, 64
1, 100664, Note_on_c, 0, 51, 56
1, 100664, Note_on_c, 0, 75, 71
1, 100680, Note_off_c, 0, 73, 64
1, 100734, Note_on_c, 0, 82, 69
1, 100742, Note_off_c, 0, 75, 64
1, 100775, Note_off_c, 0, 51, 64
1, 100775, Control_c, 0, 64, 0
1, 100800, Note_on_c, 0, 43, 53
1, 100804, Note_on_c, 0, 85, 88
1, 100834, Note_off_c, 0, 82, 64
1, 100878, Note_on_c, 0, 82, 75
1, 100896, Note_off_c, 0, 43, 64
1, 100923, Note_off_c, 0, 85, 64
1, 100923, Control_c, 0, 64, 127
1, 100957, Note_on_c, 0, 75, 67
1, 100960, Note_on_c, 0, 51, 46
1, 100992, Note_off_c, 0, 82, 64
1, 101017, Note_on_c, 0, 73, 68
1, 101031, Note_off_c, 0, 51, 64
1, 101049, Note_off_c, 0, 75, 64
1, 101090, Control_c, 0, 64, 0
1, 101109, Note_off_c, 0, 73, 64
1, 101113, Note_on_c, 0, 82, 63
1, 101116, Note_on_c, 0, 43, 37
1, 101197, Note_on_c, 0, 75, 49
1, 101216, Note_off_c, 0, 82, 64
1, 101246, Control_c, 0, 64, 127
1, 101279, Note_off_c, 0, 43, 64
1, 101283, Note_on_c, 0, 73, 48
1, 101286, Note_on_c, 0, 51, 33
1, 101307, Note_off_c, 0, 75, 64
1, 101360, Note_on_c, 0, 70, 48
1, 101368, Note_off_c, 0, 73, 64
1, 101368, Note_off_c, 0, 51, 64
1, 101461, Control_c, 0, 64, 0
1, 101474, Note_off_c, 0, 70, 64
1, 101481, Note_on_c, 0, 71, 59
1, 101481, Note_on_c, 0, 44, 35
1, 101603, Note_on_c, 0, 51, 41
1, 101661, Note_off_c, 0, 51, 64
1, 101664, Note_off_c, 0, 44, 64
1, 101664, Control_c, 0, 64, 127
1, 101695, Note_on_c, 0, 47, 27
1, 101706, Note_off_c, 0, 71, 64
1, 101781, Note_off_c, 0, 47, 64
1, 101804, Note_on_c, 0, 51, 29
1, 101904, Note_off_c, 0, 51, 64
1, 101948, Note_on_c, 0, 75, 67
1, 101960, Note_on_c, 0, 44, 32
1, 102126, Note_off_c, 0, 44, 64
1, 102144, Note_on_c, 0, 47, 26
1, 102208, Note_off_c, 0, 47, 64
1, 102224, Note_on_c, 0, 51, 22
1, 102288, Note_off_c, 0, 51, 64
1, 102302, Note_on_c, 0, 44, 44
1, 102363, Note_off_c, 0, 44, 64
1, 102385, Note_on_c, 0, 51, 23
1, 102442, Note_off_c, 0, 51, 64
1, 102458, Note_on_c, 0, 47, 34
1, 102520, Note_off_c, 0, 47, 64
1, 102534, Note_on_c, 0, 51, 21
1, 102592, Note_on_c, 0, 71, 76
1, 102601, Note_off_c, 0, 51, 64
1, 102626, Note_on_c, 0, 44, 36
1, 102670, Note_off_c, 0, 75, 64
1, 102734, Note_on_c, 0, 51, 27
1, 102779, Note_on_c, 0, 68, 55
1, 102792, Note_off_c, 0, 51, 64
1, 102825, Note_on_c, 0, 47, 25
1, 102825, Note_off_c, 0, 68, 64
1, 102859, Note_off_c, 0, 71, 64
1, 102868, Note_on_c, 0, 67, 55
1, 102885, Note_off_c, 0, 47, 64
1, 102914, Note_on_c, 0, 68, 61
1, 102914, Note_on_c, 0, 51, 26
1, 102918, Note_off_c, 0, 67, 64
1, 102968, Note_off_c, 0, 68, 64
1, 102976, Note_on_c, 0, 70, 55
1, 102984, Control_c, 0, 64, 0
1, 103004, Note_off_c, 0, 51, 64
1, 103018, Note_off_c, 0, 44, 64
1, 103018, Note_on_c, 0, 68, 68
1, 103034, Note_on_c, 0, 46, 31
1, 103074, Note_off_c, 0, 70, 64
1, 103141, Note_on_c, 0, 51, 41
1, 103193, Note_off_c, 0, 51, 64
1, 103208, Note_on_c, 0, 49, 39
1, 103235, Control_c, 0, 64, 127
1, 103250, Note_off_c, 0, 46, 64
1, 103275, Note_off_c, 0, 49, 64
1, 103303, Note_on_c, 0, 51, 26
1, 103355, Note_on_c, 0, 67, 59
1, 103360, Note_off_c, 0, 51, 64
1, 103388, Note_on_c, 0, 46, 22
1, 103416, Control_c, 0, 64, 0
1, 103455, Note_on_c, 0, 51, 26
1, 103472, Note_off_c, 0, 68, 64
1, 103525, Note_off_c, 0, 51, 64
1, 103536, Note_on_c, 0, 49, 40
1, 103547, Note_off_c, 0, 46, 64
1, 103583, Control_c, 0, 64, 127
1, 103608, Note_off_c, 0, 49, 64
1, 103608, Note_on_c, 0, 51, 25
1, 103686, Note_off_c, 0, 51, 64
1, 103704, Note_on_c, 0, 46, 31
1, 103778, Note_off_c, 0, 46, 64
1, 103784, Note_off_c, 0, 67, 64
1, 103793, Note_on_c, 0, 51, 37
1, 103870, Note_on_c, 0, 67, 58
1, 103874, Note_off_c, 0, 51, 64
1, 103898, Note_on_c, 0, 49, 38
1, 103957, Note_off_c, 0, 49, 64
1, 103991, Note_on_c, 0, 51, 34
1, 104046, Note_off_c, 0, 51, 64
1, 104051, Control_c, 0, 64, 0
1, 104063, Note_on_c, 0, 75, 59
1, 104066, Note_on_c, 0, 46, 38
1, 104090, Note_off_c, 0, 67, 64
1, 104155, Note_on_c, 0, 51, 41
1, 104213, Note_off_c, 0, 51, 64
1, 104224, Control_c, 0, 64, 127
1, 104244, Note_on_c, 0, 49, 38
1, 104307, Note_off_c, 0, 49, 64
1, 104321, Note_off_c, 0, 46, 64
1, 104332, Note_on_c, 0, 67, 56
1, 104336, Note_on_c, 0, 51, 32
1, 104388, Note_off_c, 0, 67, 64
1, 104388, Note_off_c, 0, 51, 64
1, 104402, Note_on_c, 0, 47, 49
1, 104414, Note_on_c, 0, 70, 54
1, 104444, Note_off_c, 0, 47, 64
1, 104455, Note_off_c, 0, 75, 64
1, 104491, Note_on_c, 0, 51, 42
1, 104558, Note_off_c, 0, 51, 64
1, 104581, Note_on_c, 0, 47, 38
1, 104589, Control_c, 0, 64, 0
1, 104631, Note_off_c, 0, 47, 64
1, 104644, Note_on_c, 0, 51, 42
1, 104720, Note_on_c, 0, 47, 24
1, 104720, Control_c, 0, 64, 127
1, 104723, Note_off_c, 0, 51, 64
1, 104745, Note_on_c, 0, 68, 47
1, 104778, Note_off_c, 0, 47, 64
1, 104800, Note_on_c, 0, 51, 35
1, 104846, Note_off_c, 0, 70, 64
1, 104867, Note_off_c, 0, 51, 64
1, 104882, Note_on_c, 0, 47, 29
1, 104938, Note_off_c, 0, 47, 64
1, 104952, Note_on_c, 0, 51, 39
1, 104998, Control_c, 0, 64, 0
1, 105030, Note_on_c, 0, 47, 39
1, 105035, Note_off_c, 0, 51, 64
1, 105102, Note_off_c, 0, 47, 64
1, 105108, Note_on_c, 0, 51, 44
1, 105116, Control_c, 0, 64, 127
1, 105157, Note_off_c, 0, 68, 64
1, 105196, Note_on_c, 0, 68, 83
1, 105202, Note_on_c, 0, 47, 46
1, 105207, Note_off_c, 0, 51, 64
1, 105261, Note_off_c, 0, 47, 64
1, 105299, Note_on_c, 0, 51, 42
1, 105366, Note_on_c, 0, 75, 75
1, 105377, Note_off_c, 0, 51, 64
1, 105383, Note_on_c, 0, 47, 62
1, 105383, Note_off_c, 0, 68, 64
1, 105441, Control_c, 0, 64, 0
1, 105445, Note_off_c, 0, 47, 64
1, 105473, Note_on_c, 0, 51, 52
1, 105547, Note_on_c, 0, 47, 39
1, 105555, Note_off_c, 0, 51, 64
1, 105572, Control_c, 0, 64, 127
1, 105614, Note_on_c, 0, 51, 58
1, 105622, Note_on_c, 0, 68, 68
1, 105622, Note_off_c, 0, 47, 64
1, 105690, Note_off_c, 0, 75, 64
1, 105690, Control_c, 0, 64, 0
1, 105707, Note_on_c, 0, 43, 56
1, 105711, Note_on_c, 0, 71, 87
1, 105717, Note_off_c, 0, 51, 64
1, 105729, Note_off_c, 0, 68, 64
1, 105776, Note_off_c, 0, 43, 64
1, 105782, Note_on_c, 0, 51, 42
1, 105881, Note_on_c, 0, 43, 45
1, 105884, Control_c, 0, 64, 127
1, 105892, Note_off_c, 0, 51, 64
1, 105938, Note_off_c, 0, 43, 64
1, 105957, Note_on_c, 0, 51, 51
1, 106033, Note_off_c, 0, 51, 64
1, 106054, Note_on_c, 0, 43, 38
1, 106063, Note_on_c, 0, 70, 53
1, 106107, Note_off_c, 0, 43, 64
1, 106140, Note_off_c, 0, 71, 64
1, 106140, Note_on_c, 0, 51, 39
1, 106208, Note_off_c, 0, 51, 64
1, 106219, Control_c, 0, 64, 0
1, 106227, Note_on_c, 0, 43, 38
1, 106280, Note_off_c, 0, 43, 64
1, 106300, Note_on_c, 0, 51, 45
1, 106352, Control_c, 0, 64, 127
1, 106377, Note_off_c, 0, 51, 64
1, 106377, Note_on_c, 0, 43, 34
1, 106436, Note_off_c, 0, 43, 64
1, 106452, Note_on_c, 0, 51, 38
1, 106464, Note_off_c, 0, 70, 64
1, 106533, Note_on_c, 0, 70, 44
1, 106542, Note_off_c, 0, 51, 64
1, 106551, Note_on_c, 0, 43, 34
1, 106608, Note_off_c, 0, 43, 64
1, 106650, Note_on_c, 0, 51, 28
1, 106734, Note_off_c, 0, 51, 64
1, 106750, Note_on_c, 0, 75, 50
1, 106759, Note_on_c, 0, 43, 41
1, 106781, Note_off_c, 0, 70, 64
1, 106829, Note_off_c, 0, 43, 64
1, 106863, Note_on_c, 0, 51, 44
1, 106920, Note_off_c, 0, 51, 64
1, 106949, Note_on_c, 0, 43, 38
1, 107010, Note_off_c, 0, 43, 64
1, 107018, Note_on_c, 0, 70, 40
1, 107023, Control_c, 0, 64, 0
1, 107035, Note_off_c, 0, 75, 64
1, 107051, Note_on_c, 0, 51, 28
1, 107074, Note_off_c, 0, 70, 64
1, 107107, Note_off_c, 0, 51, 64
1, 107116, Note_on_c, 0, 71, 61
1, 107129, Note_on_c, 0, 44, 46
1, 107189, Control_c, 0, 64, 127
1, 107205, Note_off_c, 0, 71, 64
1, 107249, Note_on_c, 0, 51, 34
1, 107303, Note_off_c, 0, 51, 64
1, 107306, Note_off_c, 0, 44, 64
1, 107341, Note_on_c, 0, 87, 62
1, 107341, Note_on_c, 0, 75, 56
1, 107442, Note_on_c, 0, 51, 37
1, 107491, Note_off_c, 0, 51, 64
1, 107498, Note_on_c, 0, 44, 60
1, 107534, Note_off_c, 0, 75, 64
1, 107540, Note_off_c, 0, 87, 64
1, 107551, Note_off_c, 0, 44, 64
1, 107586, Note_on_c, 0, 51, 33
1, 107643, Note_off_c, 0, 51, 64
1, 107643, Control_c, 0, 64, 0
1, 107665, Note_on_c, 0, 47, 50
1, 107665, Note_on_c, 0, 87, 67
1, 107669, Note_on_c, 0, 75, 64
1, 107720, Note_off_c, 0, 47, 64
1, 107751, Note_on_c, 0, 51, 52
1, 107803, Note_off_c, 0, 51, 64
1, 107824, Control_c, 0, 64, 127
1, 107824, Note_on_c, 0, 44, 64
1, 107849, Control_c, 0, 64, 0
1, 107863, Note_off_c, 0, 87, 64
1, 107871, Note_off_c, 0, 75, 64
1, 107882, Note_off_c, 0, 44, 64
1, 107905, Note_on_c, 0, 51, 48
1, 107959, Note_off_c, 0, 51, 64
1, 107983, Note_on_c, 0, 75, 70
1, 107987, Note_on_c, 0, 87, 69
1, 107994, Note_on_c, 0, 47, 44
1, 108005, Control_c, 0, 64, 127
1, 108019, Note_off_c, 0, 87, 64
1, 108019, Note_off_c, 0, 75, 64
1, 108043, Note_off_c, 0, 47, 64
1, 108085, Note_on_c, 0, 51, 53
1, 108141, Note_off_c, 0, 51, 64
1, 108150, Note_on_c, 0, 83, 101
1, 108155, Note_on_c, 0, 71, 81
1, 108158, Note_on_c, 0, 44, 58
1, 108177, Note_off_c, 0, 83, 64
1, 108188, Note_off_c, 0, 71, 64
1, 108230, Note_off_c, 0, 44, 64
1, 108246, Control_c, 0, 64, 0
1, 108246, Note_on_c, 0, 51, 47
1, 108302, Note_off_c, 0, 51, 64
1, 108308, Note_on_c, 0, 68, 69
1, 108308, Note_on_c, 0, 80, 83
1, 108320, Note_on_c, 0, 47, 52
1, 108350, Note_off_c, 0, 68, 64
1, 108350, Note_off_c, 0, 80, 64
1, 108367, Note_off_c, 0, 47, 64
1, 108377, Control_c, 0, 64, 127
1, 108398, Note_on_c, 0, 51, 53
1, 108425, Control_c, 0, 64, 0
1, 108472, Note_on_c, 0, 80, 83
1, 108472, Note_on_c, 0, 68, 75
1, 108481, Note_on_c, 0, 46, 52
1, 108481, Note_off_c, 0, 51, 64
1, 108547, Note_off_c, 0, 46, 64
1, 108558, Note_off_c, 0, 68, 64
1, 108561, Note_off_c, 0, 80, 64
1, 108561, Note_on_c, 0, 51, 44
1, 108604, Control_c, 0, 64, 127
1, 108645, Note_on_c, 0, 49, 53
1, 108650, Note_off_c, 0, 51, 64
1, 108654, Note_on_c, 0, 79, 76
1, 108657, Note_on_c, 0, 67, 60
1, 108693, Note_off_c, 0, 49, 64
1, 108724, Control_c, 0, 64, 0
1, 108724, Note_on_c, 0, 51, 44
1, 108798, Note_off_c, 0, 51, 64
1, 108801, Note_on_c, 0, 46, 47
1, 108835, Note_off_c, 0, 67, 64
1, 108849, Note_off_c, 0, 79, 64
1, 108859, Note_off_c, 0, 46, 64
1, 108868, Control_c, 0, 64, 127
1, 108879, Note_on_c, 0, 51, 44
1, 108962, Note_off_c, 0, 51, 64
1, 108962, Control_c, 0, 64, 0
1, 108969, Note_on_c, 0, 67, 55
1, 108969, Note_on_c, 0, 79, 72
1, 108969, Note_on_c, 0, 49, 55
1, 109030, Note_off_c, 0, 49, 64
1, 109043, Note_on_c, 0, 51, 40
1, 109116, Note_off_c, 0, 51, 64
1, 109116, Note_on_c, 0, 46, 51
1, 109116, Control_c, 0, 64, 127
1, 109160, Note_off_c, 0, 67, 64
1, 109168, Note_off_c, 0, 46, 64
1, 109174, Note_off_c, 0, 79, 64
1, 109191, Note_on_c, 0, 51, 51
1, 109203, Control_c, 0, 64, 0
1, 109283, Note_off_c, 0, 51, 64
1, 109283, Note_on_c, 0, 67, 66
1, 109286, Note_on_c, 0, 79, 91
1, 109286, Note_on_c, 0, 49, 59
1, 109316, Note_off_c, 0, 79, 64
1, 109316, Control_c, 0, 64, 127
1, 109322, Note_off_c, 0, 67, 64
1, 109342, Note_off_c, 0, 49, 64
1, 109363, Note_on_c, 0, 51, 47
1, 109395, Control_c, 0, 64, 0
1, 109441, Note_off_c, 0, 51, 64
1, 109450, Note_on_c, 0, 87, 92
1, 109450, Note_on_c, 0, 75, 88
1, 109461, Note_on_c, 0, 46, 46
1, 109492, Note_off_c, 0, 75, 64
1, 109503, Control_c, 0, 64, 127
1, 109503, Note_off_c, 0, 87, 64
1, 109519, Note_off_c, 0, 46, 64
1, 109531, Note_on_c, 0, 51, 54
1, 109587, Control_c, 0, 64, 0
1, 109612, Note_off_c, 0, 51, 64
1, 109612, Note_on_c, 0, 79, 101
1, 109612, Note_on_c, 0, 67, 91
1, 109612, Note_on_c, 0, 49, 65
1, 109642, Note_off_c, 0, 79, 64
1, 109642, Note_off_c, 0, 67, 64
1, 109682, Note_off_c, 0, 49, 64
1, 109682, Control_c, 0, 64, 127
1, 109693, Note_on_c, 0, 51, 51
1, 109707, Control_c, 0, 64, 0
1, 109773, Note_off_c, 0, 51, 64
1, 109779, Note_on_c, 0, 82, 90
1, 109779, Note_on_c, 0, 47, 60
1, 109779, Note_on_c, 0, 70, 84
1, 109820, Note_off_c, 0, 47, 64
1, 109845, Note_on_c, 0, 51, 52
1, 109852, Note_off_c, 0, 82, 64
1, 109862, Note_off_c, 0, 70, 64
1, 109862, Control_c, 0, 64, 127
1, 109932, Note_off_c, 0, 51, 64
1, 109944, Note_on_c, 0, 47, 61
1, 109947, Control_c, 0, 64, 0
1, 109951, Note_on_c, 0, 80, 79
1, 109951, Note_on_c, 0, 68, 69
1, 109987, Note_off_c, 0, 47, 64
1, 110016, Note_on_c, 0, 51, 49
1, 110094, Note_off_c, 0, 51, 64
1, 110100, Note_on_c, 0, 47, 65
1, 110114, Control_c, 0, 64, 127
1, 110138, Note_off_c, 0, 47, 64
1, 110138, Note_off_c, 0, 68, 64
1, 110146, Note_off_c, 0, 80, 64
1, 110166, Note_on_c, 0, 51, 57
1, 110199, Control_c, 0, 64, 0
1, 110244, Note_on_c, 0, 80, 68
1, 110249, Note_off_c, 0, 51, 64
1, 110249, Note_on_c, 0, 68, 64
1, 110253, Note_on_c, 0, 47, 56
1, 110292, Note_off_c, 0, 47, 64
1, 110316, Note_on_c, 0, 51, 60
1, 110366, Control_c, 0, 64, 127
1, 110394, Note_on_c, 0, 47, 59
1, 110405, Note_off_c, 0, 68, 64
1, 110405, Note_off_c, 0, 51, 64
1, 110416, Note_off_c, 0, 80, 64
1, 110440, Note_off_c, 0, 47, 64
1, 110462, Note_on_c, 0, 51, 64
1, 110462, Control_c, 0, 64, 0
1, 110543, Note_off_c, 0, 51, 64
1, 110543, Note_on_c, 0, 80, 84
1, 110543, Note_on_c, 0, 68, 79
1, 110548, Note_on_c, 0, 47, 69
1, 110570, Note_off_c, 0, 68, 64
1, 110593, Note_off_c, 0, 80, 64
1, 110596, Note_off_c, 0, 47, 64
1, 110618, Control_c, 0, 64, 127
1, 110618, Note_on_c, 0, 51, 65
1, 110678, Control_c, 0, 64, 0
1, 110696, Note_on_c, 0, 87, 94
1, 110699, Note_on_c, 0, 75, 88
1, 110704, Note_on_c, 0, 47, 75
1, 110704, Note_off_c, 0, 51, 64
1, 110720, Note_off_c, 0, 87, 64
1, 110729, Note_off_c, 0, 75, 64
1, 110767, Note_off_c, 0, 47, 64
1, 110777, Note_on_c, 0, 51, 63
1, 110821, Control_c, 0, 64, 127
1, 110846, Note_on_c, 0, 68, 92
1, 110846, Note_on_c, 0, 80, 94
1, 110859, Note_on_c, 0, 47, 67
1, 110874, Note_off_c, 0, 51, 64
1, 110880, Note_off_c, 0, 68, 64
1, 110918, Control_c, 0, 64, 0
1, 110929, Note_off_c, 0, 80, 64
1, 110932, Note_on_c, 0, 51, 68
1, 110954, Note_off_c, 0, 47, 64
1, 111016, Note_on_c, 0, 83, 122
1, 111016, Note_on_c, 0, 71, 106
1, 111024, Note_on_c, 0, 43, 71
1, 111038, Note_off_c, 0, 51, 64
1, 111052, Note_off_c, 0, 71, 64
1, 111079, Note_off_c, 0, 83, 64
1, 111083, Note_off_c, 0, 43, 64
1, 111094, Note_on_c, 0, 51, 64
1, 111094, Control_c, 0, 64, 127
1, 111183, Note_off_c, 0, 51, 64
1, 111200, Note_on_c, 0, 82, 88
1, 111200, Note_on_c, 0, 43, 67
1, 111200, Note_on_c, 0, 70, 77
1, 111253, Control_c, 0, 64, 0
1, 111264, Note_off_c, 0, 43, 64
1, 111278, Note_on_c, 0, 51, 60
1, 111369, Note_on_c, 0, 43, 68
1, 111372, Note_off_c, 0, 51, 64
1, 111397, Control_c, 0, 64, 127
1, 111409, Note_off_c, 0, 43, 64
1, 111409, Note_off_c, 0, 70, 64
1, 111414, Note_off_c, 0, 82, 64
1, 111431, Note_on_c, 0, 51, 61
1, 111512, Note_on_c, 0, 82, 77
1, 111512, Note_on_c, 0, 70, 73
1, 111522, Note_on_c, 0, 43, 66
1, 111537, Note_off_c, 0, 51, 64
1, 111540, Control_c, 0, 64, 0
1, 111582, Note_off_c, 0, 43, 64
1, 111592, Note_on_c, 0, 51, 62
1, 111674, Note_on_c, 0, 43, 64
1, 111685, Control_c, 0, 64, 127
1, 111693, Note_off_c, 0, 51, 64
1, 111712, Note_off_c, 0, 70, 64
1, 111712, Note_off_c, 0, 82, 64
1, 111742, Note_off_c, 0, 43, 64
1, 111745, Note_on_c, 0, 51, 66
1, 111757, Control_c, 0, 64, 0
1, 111806, Note_on_c, 0, 70, 88
1, 111809, Note_on_c, 0, 82, 87
1, 111816, Note_on_c, 0, 43, 62
1, 111840, Note_off_c, 0, 51, 64
1, 111851, Note_off_c, 0, 70, 64
1, 111865, Control_c, 0, 64, 127
1, 111893, Note_off_c, 0, 82, 64
1, 111893, Note_on_c, 0, 51, 66
1, 111899, Note_off_c, 0, 43, 64
1, 111960, Control_c, 0, 64, 0
1, 111963, Note_on_c, 0, 43, 64
1, 111966, Note_on_c, 0, 75, 90
1, 111966, Note_on_c, 0, 87, 95
1, 111996, Note_off_c, 0, 87, 64
1, 112004, Note_off_c, 0, 51, 64
1, 112021, Note_off_c, 0, 75, 64
1, 112047, Note_off_c, 0, 43, 64
1, 112047, Note_on_c, 0, 51, 80
1, 112068, Control_c, 0, 64, 127
1, 112116, Note_on_c, 0, 70, 87
1, 112116, Note_on_c, 0, 43, 61
1, 112116, Note_on_c, 0, 82, 89
1, 112142, Note_off_c, 0, 51, 64
1, 112171, Note_off_c, 0, 70, 64
1, 112191, Note_off_c, 0, 82, 64
1, 112195, Note_off_c, 0, 43, 64
1, 112195, Note_on_c, 0, 51, 72
1, 112224, Control_c, 0, 64, 0
1, 112277, Note_off_c, 0, 51, 64
1, 112281, Note_on_c, 0, 84, 111
1, 112281, Note_on_c, 0, 72, 103
1, 112281, Note_on_c, 0, 42, 90
1, 112372, Note_on_c, 0, 51, 70
1, 112401, Note_off_c, 0, 42, 64
1, 112422, Note_on_c, 0, 44, 76
1, 112428, Control_c, 0, 64, 127
1, 112440, Note_off_c, 0, 51, 64
1, 112506, Note_off_c, 0, 44, 64
1, 112511, Note_on_c, 0, 51, 69
1, 112546, Control_c, 0, 64, 0
1, 112587, Note_off_c, 0, 51, 64
1, 112587, Note_on_c, 0, 42, 88
1, 112670, Note_on_c, 0, 51, 70
1, 112678, Note_off_c, 0, 42, 64
1, 112692, Control_c, 0, 64, 127
1, 112743, Note_on_c, 0, 44, 83
1, 112751, Note_off_c, 0, 51, 64
1, 112759, Note_off_c, 0, 72, 64
1, 112759, Note_off_c, 0, 84, 64
1, 112818, Note_on_c, 0, 51, 74
1, 112830, Note_off_c, 0, 44, 64
1, 112859, Control_c, 0, 64, 0
1, 112902, Note_off_c, 0, 51, 64
1, 112902, Note_on_c, 0, 85, 106
1, 112902, Note_on_c, 0, 73, 100
1, 112916, Note_on_c, 0, 40, 109
1, 112990, Note_off_c, 0, 40, 64
1, 112990, Note_on_c, 0, 49, 78
1, 113027, Control_c, 0, 64, 127
1, 113068, Note_on_c, 0, 44, 81
1, 113077, Note_off_c, 0, 49, 64
1, 113138, Note_on_c, 0, 49, 60
1, 113146, Note_off_c, 0, 85, 64
1, 113158, Note_off_c, 0, 44, 64
1, 113206, Note_off_c, 0, 73, 64
1, 113216, Note_on_c, 0, 40, 101
1, 113222, Note_off_c, 0, 49, 64
1, 113291, Note_off_c, 0, 40, 64
1, 113291, Note_on_c, 0, 49, 67
1, 113367, Note_on_c, 0, 44, 86
1, 113367, Note_off_c, 0, 49, 64
1, 113458, Note_off_c, 0, 44, 64
1, 113458, Note_on_c, 0, 49, 68
1, 113493, Control_c, 0, 64, 0
1, 113531, Note_on_c, 0, 70, 90
1, 113531, Note_on_c, 0, 82, 89
1, 113539, Note_off_c, 0, 49, 64
1, 113546, Note_on_c, 0, 40, 105
1, 113581, Note_on_c, 0, 83, 87
1, 113601, Note_off_c, 0, 82, 64
1, 113623, Note_on_c, 0, 49, 62
1, 113642, Note_off_c, 0, 40, 64
1, 113648, Note_on_c, 0, 82, 73
1, 113662, Control_c, 0, 64, 127
1, 113713, Note_off_c, 0, 83, 64
1, 113721, Note_on_c, 0, 42, 66
1, 113721, Note_on_c, 0, 80, 80
1, 113724, Note_off_c, 0, 49, 64
1, 113749, Note_off_c, 0, 82, 64
1, 113802, Note_on_c, 0, 82, 79
1, 113824, Note_off_c, 0, 42, 64
1, 113824, Note_on_c, 0, 49, 78
1, 113894, Note_off_c, 0, 70, 64
1, 113910, Note_off_c, 0, 49, 64
1, 113915, Control_c, 0, 64, 0
1, 113915, Note_on_c, 0, 83, 119
1, 113918, Note_on_c, 0, 71, 105
1, 113921, Note_on_c, 0, 39, 87
1, 113955, Note_off_c, 0, 80, 64
1, 113974, Note_off_c, 0, 82, 64
1, 114005, Note_on_c, 0, 47, 80
1, 114043, Note_off_c, 0, 39, 64
1, 114075, Note_on_c, 0, 42, 73
1, 114089, Note_off_c, 0, 47, 64
1, 114117, Control_c, 0, 64, 127
1, 114150, Note_on_c, 0, 47, 63
1, 114172, Note_off_c, 0, 42, 64
1, 114230, Note_off_c, 0, 47, 64
1, 114230, Control_c, 0, 64, 0
1, 114238, Note_on_c, 0, 39, 83
1, 114314, Note_on_c, 0, 47, 53
1, 114328, Note_off_c, 0, 39, 64
1, 114358, Control_c, 0, 64, 127
1, 114384, Note_on_c, 0, 42, 81
1, 114400, Note_off_c, 0, 47, 64
1, 114467, Note_on_c, 0, 47, 67
1, 114482, Note_off_c, 0, 42, 64
1, 114489, Control_c, 0, 64, 0
1, 114548, Note_off_c, 0, 47, 64
1, 114548, Note_on_c, 0, 39, 84
1, 114609, Control_c, 0, 64, 127
1, 114612, Note_off_c, 0, 83, 64
1, 114617, Note_off_c, 0, 71, 64
1, 114617, Note_on_c, 0, 47, 57
1, 114634, Note_off_c, 0, 39, 64
1, 114695, Note_off_c, 0, 47, 64
1, 114699, Note_on_c, 0, 42, 76
1, 114777, Note_on_c, 0, 47, 69
1, 114794, Note_off_c, 0, 42, 64
1, 114849, Control_c, 0, 64, 0
1, 114862, Note_on_c, 0, 80, 103
1, 114862, Note_on_c, 0, 68, 97
1, 114868, Note_off_c, 0, 47, 64
1, 114872, Note_on_c, 0, 38, 100
1, 114957, Note_on_c, 0, 47, 66
1, 114989, Note_off_c, 0, 38, 64
1, 115024, Note_on_c, 0, 40, 88
1, 115028, Control_c, 0, 64, 127
1, 115036, Note_off_c, 0, 47, 64
1, 115105, Note_off_c, 0, 40, 64
1, 115105, Note_on_c, 0, 47, 59
1, 115147, Control_c, 0, 64, 0
1, 115189, Note_on_c, 0, 38, 87
1, 115195, Note_off_c, 0, 47, 64
1, 115275, Note_off_c, 0, 38, 64
1, 115275, Note_on_c, 0, 47, 53
1, 115292, Control_c, 0, 64, 127
1, 115362, Note_off_c, 0, 47, 64
1, 115362, Note_on_c, 0, 40, 57
1, 115381, Note_on_c, 0, 41, 42
1, 115387, Note_off_c, 0, 68, 64
1, 115393, Note_off_c, 0, 80, 64
1, 115411, Note_off_c, 0, 40, 64
1, 115425, Note_on_c, 0, 47, 67
1, 115429, Note_off_c, 0, 41, 64
1, 115471, Control_c, 0, 64, 0
1, 115498, Note_on_c, 0, 81, 106
1, 115498, Note_on_c, 0, 69, 97
1, 115509, Note_off_c, 0, 47, 64
1, 115509, Note_on_c, 0, 37, 88
1, 115585, Note_on_c, 0, 45, 79
1, 115612, Note_off_c, 0, 37, 64
1, 115651, Control_c, 0, 64, 127
1, 115659, Note_on_c, 0, 40, 90
1, 115677, Note_off_c, 0, 45, 64
1, 115729, Note_on_c, 0, 45, 66
1, 115740, Note_off_c, 0, 40, 64
1, 115812, Note_on_c, 0, 37, 83
1, 115815, Note_off_c, 0, 45, 64
1, 115880, Note_on_c, 0, 45, 57
1, 115886, Note_off_c, 0, 37, 64
1, 115964, Note_off_c, 0, 45, 64
1, 115969, Note_on_c, 0, 40, 91
1, 115980, Note_off_c, 0, 81, 64
1, 116024, Note_off_c, 0, 69, 64
1, 116024, Note_on_c, 0, 45, 60
1, 116052, Note_off_c, 0, 40, 64
1, 116102, Note_off_c, 0, 45, 64
1, 116106, Control_c, 0, 64, 0
1, 116145, Note_on_c, 0, 67, 104
1, 116145, Note_on_c, 0, 79, 108
1, 116150, Note_on_c, 0, 37, 89
1, 116180, Note_off_c, 0, 67, 64
1, 116230, Note_on_c, 0, 46, 72
1, 116239, Control_c, 0, 64, 127
1, 116245, Note_on_c, 0, 80, 90
1, 116273, Note_off_c, 0, 37, 64
1, 116314, Note_on_c, 0, 39, 69
1, 116323, Note_off_c, 0, 80, 64
1, 116331, Note_off_c, 0, 46, 64
1, 116359, Note_on_c, 0, 77, 83
1, 116381, Note_off_c, 0, 79, 64
1, 116423, Note_on_c, 0, 46, 64
1, 116423, Note_on_c, 0, 79, 99
1, 116482, Note_off_c, 0, 39, 64
1, 116492, Note_off_c, 0, 77, 64
1, 116510, Note_off_c, 0, 46, 64
1, 116518, Note_on_c, 0, 78, 11
1, 116532, Note_on_c, 0, 68, 95
1, 116532, Note_on_c, 0, 35, 108
1, 116532, Note_on_c, 0, 80, 100
1, 116574, Note_off_c, 0, 79, 64
1, 116574, Control_c, 0, 64, 0
1, 116593, Note_off_c, 0, 78, 64
1, 116620, Note_on_c, 0, 44, 84
1, 116651, Note_off_c, 0, 35, 64
1, 116699, Note_on_c, 0, 39, 70
1, 116699, Note_off_c, 0, 44, 64
1, 116754, Control_c, 0, 64, 127
1, 116774, Note_on_c, 0, 44, 69
1, 116804, Note_off_c, 0, 39, 64
1, 116855, Note_on_c, 0, 35, 100
1, 116861, Note_off_c, 0, 44, 64
1, 116933, Note_off_c, 0, 35, 64
1, 116938, Note_on_c, 0, 44, 73
1, 117005, Note_on_c, 0, 39, 76
1, 117021, Note_off_c, 0, 44, 64
1, 117088, Note_on_c, 0, 44, 72
1, 117106, Note_off_c, 0, 39, 64
1, 117173, Note_on_c, 0, 35, 101
1, 117191, Note_off_c, 0, 44, 64
1, 117239, Note_on_c, 0, 44, 81
1, 117242, Note_off_c, 0, 35, 64
1, 117270, Note_off_c, 0, 68, 64
1, 117301, Note_off_c, 0, 80, 64
1, 117325, Note_off_c, 0, 44, 64
1, 117334, Note_on_c, 0, 39, 72
1, 117391, Note_on_c, 0, 44, 70
1, 117391, Note_off_c, 0, 39, 64
1, 117439, Note_off_c, 0, 44, 64
1, 117568, Note_on_c, 0, 81, 101
1, 117568, Note_on_c, 0, 69, 96
1, 117568, Note_on_c, 0, 73, 88
1, 117568, Note_on_c, 0, 76, 95
1, 117568, Note_on_c, 0, 49, 98
1, 117571, Note_on_c, 0, 40, 90
1, 117571, Note_on_c, 0, 45, 73
1, 117571, Control_c, 0, 64, 0
1, 117574, Note_on_c, 0, 37, 84
1, 117833, Control_c, 0, 64, 127
1, 117868, Note_off_c, 0, 49, 64
1, 117875, Note_off_c, 0, 40, 64
1, 117875, Note_off_c, 0, 37, 64
1, 117883, Note_off_c, 0, 45, 64
1, 117891, Note_off_c, 0, 69, 64
1, 117950, Note_off_c, 0, 73, 64
1, 117966, Note_off_c, 0, 76, 64
1, 118306, Note_on_c, 0, 76, 62
1, 118312, Control_c, 0, 64, 0
1, 118340, Note_off_c, 0, 81, 64
1, 118373, Note_on_c, 0, 78, 72
1, 118376, Note_off_c, 0, 76, 64
1, 118437, Note_on_c, 0, 80, 79
1, 118464, Note_off_c, 0, 78, 64
1, 118503, Note_off_c, 0, 80, 64
1, 118512, Note_on_c, 0, 81, 83
1, 118588, Note_on_c, 0, 83, 100
1, 118588, Note_off_c, 0, 81, 64
1, 118668, Note_on_c, 0, 85, 69
1, 118682, Note_off_c, 0, 83, 64
1, 118730, Note_on_c, 0, 83, 91
1, 118769, Note_off_c, 0, 85, 64
1, 118813, Note_on_c, 0, 81, 75
1, 118832, Note_on_c, 0, 69, 30
1, 118832, Note_off_c, 0, 83, 64
1, 118843, Note_on_c, 0, 64, 41
1, 118843, Note_on_c, 0, 61, 34
1, 118864, Note_off_c, 0, 81, 64
1, 118893, Note_on_c, 0, 76, 54
1, 118938, Note_off_c, 0, 69, 64
1, 118947, Control_c, 0, 64, 127
1, 118955, Note_off_c, 0, 64, 64
1, 118961, Note_off_c, 0, 76, 64
1, 118971, Control_c, 0, 64, 0
1, 118971, Note_on_c, 0, 78, 61
1, 118998, Note_off_c, 0, 61, 64
1, 119045, Note_on_c, 0, 80, 62
1, 119052, Note_off_c, 0, 78, 64
1, 119117, Note_off_c, 0, 80, 64
1, 119123, Note_on_c, 0, 81, 69
1, 119203, Note_off_c, 0, 81, 64
1, 119203, Note_on_c, 0, 83, 85
1, 119297, Note_off_c, 0, 83, 64
1, 119297, Note_on_c, 0, 85, 47
1, 119375, Note_on_c, 0, 83, 72
1, 119390, Note_off_c, 0, 85, 64
1, 119421, Note_off_c, 0, 83, 64
1, 119445, Note_on_c, 0, 81, 59
1, 119470, Note_on_c, 0, 69, 33
1, 119478, Note_on_c, 0, 61, 37
1, 119481, Note_on_c, 0, 64, 26
1, 119481, Note_off_c, 0, 81, 64
1, 119517, Note_on_c, 0, 76, 45
1, 119565, Note_off_c, 0, 64, 64
1, 119584, Note_off_c, 0, 69, 64
1, 119595, Control_c, 0, 64, 127
1, 119595, Note_on_c, 0, 78, 50
1, 119601, Note_off_c, 0, 76, 64
1, 119610, Note_off_c, 0, 61, 64
1, 119618, Control_c, 0, 64, 0
1, 119662, Note_on_c, 0, 80, 55
1, 119667, Note_off_c, 0, 78, 64
1, 119737, Note_off_c, 0, 80, 64
1, 119743, Note_on_c, 0, 81, 66
1, 119824, Note_on_c, 0, 83, 82
1, 119828, Note_off_c, 0, 81, 64
1, 119900, Note_off_c, 0, 83, 64
1, 119900, Note_on_c, 0, 85, 52
1, 119986, Note_on_c, 0, 83, 80
1, 119991, Note_off_c, 0, 85, 64
1, 120031, Note_off_c, 0, 83, 64
1, 120055, Note_on_c, 0, 81, 62
1, 120064, Note_on_c, 0, 69, 29
1, 120073, Note_on_c, 0, 61, 33
1, 120081, Note_on_c, 0, 64, 28
1, 120091, Note_off_c, 0, 81, 64
1, 120130, Note_on_c, 0, 76, 54
1, 120158, Control_c, 0, 64, 127
1, 120194, Note_off_c, 0, 69, 64
1, 120194, Note_off_c, 0, 64, 64
1, 120203, Note_on_c, 0, 78, 61
1, 120203, Note_off_c, 0, 61, 64
1, 120203, Note_off_c, 0, 76, 64
1, 120272, Note_off_c, 0, 78, 64
1, 120276, Note_on_c, 0, 80, 64
1, 120326, Control_c, 0, 64, 0
1, 120353, Note_on_c, 0, 81, 71
1, 120357, Note_off_c, 0, 80, 64
1, 120361, Note_on_c, 0, 69, 44
1, 120373, Note_on_c, 0, 61, 36
1, 120373, Note_on_c, 0, 64, 38
1, 120428, Note_on_c, 0, 83, 97
1, 120428, Note_off_c, 0, 81, 64
1, 120478, Note_off_c, 0, 64, 64
1, 120487, Note_off_c, 0, 69, 64
1, 120498, Note_off_c, 0, 83, 64
1, 120506, Note_on_c, 0, 85, 73
1, 120512, Note_off_c, 0, 61, 64
1, 120517, Control_c, 0, 64, 127
1, 120590, Note_off_c, 0, 85, 64
1, 120595, Note_on_c, 0, 86, 78
1, 120613, Control_c, 0, 64, 0
1, 120657, Note_off_c, 0, 86, 64
1, 120665, Note_on_c, 0, 69, 46
1, 120668, Note_on_c, 0, 88, 84
1, 120671, Note_on_c, 0, 61, 43
1, 120677, Note_on_c, 0, 64, 46
1, 120716, Note_off_c, 0, 88, 64
1, 120754, Note_on_c, 0, 87, 64
1, 120802, Note_off_c, 0, 87, 64
1, 120805, Control_c, 0, 64, 127
1, 120810, Note_off_c, 0, 69, 64
1, 120815, Note_on_c, 0, 88, 83
1, 120836, Note_off_c, 0, 64, 64
1, 120841, Note_off_c, 0, 61, 64
1, 120882, Note_off_c, 0, 88, 64
1, 120894, Note_on_c, 0, 87, 70
1, 120913, Control_c, 0, 64, 0
1, 120941, Note_off_c, 0, 87, 64
1, 120980, Note_on_c, 0, 69, 47
1, 120980, Note_on_c, 0, 88, 86
1, 120994, Note_on_c, 0, 61, 39
1, 120994, Note_on_c, 0, 64, 30
1, 121049, Note_off_c, 0, 69, 64
1, 121052, Note_off_c, 0, 64, 64
1, 121059, Note_on_c, 0, 85, 79
1, 121092, Control_c, 0, 64, 127
1, 121095, Note_off_c, 0, 61, 64
1, 121095, Note_off_c, 0, 88, 64
1, 121137, Note_on_c, 0, 83, 105
1, 121167, Note_off_c, 0, 85, 64
1, 121214, Note_on_c, 0, 81, 81
1, 121214, Note_off_c, 0, 83, 64
1, 121248, Control_c, 0, 64, 0
1, 121268, Note_off_c, 0, 81, 64
1, 121300, Note_on_c, 0, 80, 83
1, 121300, Note_on_c, 0, 63, 57
1, 121353, Note_off_c, 0, 63, 64
1, 121396, Note_on_c, 0, 71, 50
1, 121443, Note_off_c, 0, 71, 64
1, 121453, Control_c, 0, 64, 127
1, 121463, Note_on_c, 0, 68, 49
1, 121510, Note_off_c, 0, 68, 64
1, 121573, Note_on_c, 0, 71, 51
1, 121615, Note_off_c, 0, 71, 64
1, 121626, Note_on_c, 0, 63, 61
1, 121663, Note_off_c, 0, 63, 64
1, 121693, Note_on_c, 0, 71, 51
1, 121704, Control_c, 0, 64, 0
1, 121746, Note_off_c, 0, 71, 64
1, 121768, Note_on_c, 0, 68, 55
1, 121819, Note_on_c, 0, 71, 67
1, 121819, Note_off_c, 0, 68, 64
1, 121835, Control_c, 0, 64, 127
1, 121864, Note_off_c, 0, 80, 64
1, 121864, Note_off_c, 0, 71, 64
1, 121908, Control_c, 0, 64, 0
1, 121914, Note_on_c, 0, 63, 68
1, 121922, Note_on_c, 0, 82, 76
1, 121967, Note_off_c, 0, 63, 64
1, 121970, Note_on_c, 0, 83, 101
1, 121974, Note_off_c, 0, 82, 64
1, 122002, Note_on_c, 0, 73, 52
1, 122005, Note_off_c, 0, 83, 64
1, 122033, Note_on_c, 0, 82, 64
1, 122039, Control_c, 0, 64, 127
1, 122045, Note_off_c, 0, 73, 64
1, 122077, Note_on_c, 0, 67, 46
1, 122091, Note_off_c, 0, 82, 64
1, 122106, Note_on_c, 0, 83, 79
1, 122122, Note_off_c, 0, 67, 64
1, 122140, Note_off_c, 0, 83, 64
1, 122143, Note_on_c, 0, 82, 56
1, 122153, Note_on_c, 0, 73, 65
1, 122194, Note_off_c, 0, 73, 64
1, 122194, Note_off_c, 0, 82, 64
1, 122201, Note_on_c, 0, 83, 83
1, 122228, Note_on_c, 0, 63, 62
1, 122256, Note_off_c, 0, 83, 64
1, 122256, Note_on_c, 0, 82, 43
1, 122267, Control_c, 0, 64, 0
1, 122284, Note_on_c, 0, 73, 41
1, 122311, Note_off_c, 0, 82, 64
1, 122318, Note_on_c, 0, 83, 79
1, 122351, Control_c, 0, 64, 127
1, 122373, Note_on_c, 0, 82, 58
1, 122373, Note_off_c, 0, 73, 64
1, 122373, Note_on_c, 0, 67, 50
1, 122381, Note_off_c, 0, 63, 64
1, 122404, Note_off_c, 0, 83, 64
1, 122421, Note_off_c, 0, 67, 64
1, 122432, Note_on_c, 0, 80, 81
1, 122432, Note_on_c, 0, 73, 56
1, 122435, Note_off_c, 0, 82, 64
1, 122467, Note_off_c, 0, 73, 64
1, 122470, Control_c, 0, 64, 0
1, 122495, Note_on_c, 0, 82, 71
1, 122499, Note_off_c, 0, 80, 64
1, 122552, Note_off_c, 0, 82, 64
1, 122555, Note_on_c, 0, 71, 97
1, 122559, Note_on_c, 0, 68, 69
1, 122559, Note_on_c, 0, 80, 87
1, 122566, Note_on_c, 0, 64, 75
1, 122580, Note_off_c, 0, 71, 64
1, 122588, Note_off_c, 0, 68, 64
1, 122588, Note_off_c, 0, 80, 64
1, 122594, Note_off_c, 0, 64, 64
1, 122613, Control_c, 0, 64, 127
1, 122906, Note_on_c, 0, 57, 100
1, 122906, Note_on_c, 0, 69, 92
1, 122910, Note_on_c, 0, 49, 89
1, 122913, Note_on_c, 0, 61, 92
1, 122913, Note_on_c, 0, 64, 94
1, 122917, Note_on_c, 0, 45, 71
1, 122917, Note_on_c, 0, 37, 70
1, 122924, Note_on_c, 0, 40, 80
1, 123045, Control_c, 0, 64, 0
1, 123155, Note_off_c, 0, 57, 64
1, 123161, Note_off_c, 0, 49, 64
1, 123161, Note_off_c, 0, 45, 64
1, 123164, Note_off_c, 0, 40, 64
1, 123167, Note_off_c, 0, 64, 64
1, 123172, Note_off_c, 0, 37, 64
1, 123183, Note_off_c, 0, 61, 64
1, 123190, Control_c, 0, 64, 127
1, 123390, Note_off_c, 0, 69, 64
1, 123399, Note_on_c, 0, 64, 73
1, 123463, Note_off_c, 0, 64, 64
1, 123463, Note_on_c, 0, 66, 54
1, 123477, Control_c, 0, 64, 0
1, 123529, Note_on_c, 0, 68, 62
1, 123555, Note_off_c, 0, 66, 64
1, 123598, Note_off_c, 0, 68, 64
1, 123604, Note_on_c, 0, 69, 65
1, 123674, Note_off_c, 0, 69, 64
1, 123674, Note_on_c, 0, 71, 78
1, 123740, Note_off_c, 0, 71, 64
1, 123760, Note_on_c, 0, 73, 58
1, 123839, Note_on_c, 0, 71, 56
1, 123853, Note_off_c, 0, 73, 64
1, 123903, Note_on_c, 0, 69, 58
1, 123906, Note_off_c, 0, 71, 64
1, 123947, Note_off_c, 0, 69, 64
1, 123983, Note_on_c, 0, 64, 63
1, 124048, Note_off_c, 0, 64, 64
1, 124062, Note_on_c, 0, 66, 48
1, 124139, Note_on_c, 0, 68, 53
1, 124158, Note_off_c, 0, 66, 64
1, 124200, Note_on_c, 0, 57, 38
1, 124200, Note_off_c, 0, 68, 64
1, 124203, Note_on_c, 0, 69, 64
1, 124203, Note_on_c, 0, 49, 35
1, 124211, Note_on_c, 0, 52, 50
1, 124276, Note_off_c, 0, 69, 64
1, 124279, Note_off_c, 0, 52, 64
1, 124287, Note_on_c, 0, 71, 75
1, 124296, Note_off_c, 0, 57, 64
1, 124312, Note_off_c, 0, 49, 64
1, 124365, Note_off_c, 0, 71, 64
1, 124365, Note_on_c, 0, 73, 52
1, 124451, Note_on_c, 0, 71, 64
1, 124476, Note_off_c, 0, 73, 64
1, 124498, Note_off_c, 0, 71, 64
1, 124515, Note_on_c, 0, 69, 50
1, 124554, Note_off_c, 0, 69, 64
1, 124582, Note_on_c, 0, 64, 63
1, 124657, Note_off_c, 0, 64, 64
1, 124660, Note_on_c, 0, 66, 51
1, 124725, Note_off_c, 0, 66, 64
1, 124725, Note_on_c, 0, 68, 48
1, 124796, Note_off_c, 0, 68, 64
1, 124796, Note_on_c, 0, 69, 54
1, 124814, Note_on_c, 0, 57, 34
1, 124819, Note_on_c, 0, 49, 38
1, 124822, Note_on_c, 0, 52, 46
1, 124870, Note_off_c, 0, 69, 64
1, 124870, Note_off_c, 0, 52, 64
1, 124880, Note_on_c, 0, 71, 68
1, 124891, Note_off_c, 0, 57, 64
1, 124908, Note_off_c, 0, 49, 64
1, 124955, Note_on_c, 0, 73, 53
1, 124958, Note_off_c, 0, 71, 64
1, 125045, Note_on_c, 0, 71, 70
1, 125064, Note_off_c, 0, 73, 64
1, 125111, Note_off_c, 0, 71, 64
1, 125111, Note_on_c, 0, 69, 56
1, 125158, Note_off_c, 0, 69, 64
1, 125197, Note_on_c, 0, 64, 59
1, 125245, Note_on_c, 0, 57, 58
1, 125245, Note_on_c, 0, 49, 61
1, 125254, Note_on_c, 0, 52, 65
1, 125261, Note_off_c, 0, 64, 64
1, 125265, Note_on_c, 0, 66, 53
1, 125292, Note_off_c, 0, 57, 64
1, 125292, Note_off_c, 0, 52, 64
1, 125310, Note_off_c, 0, 49, 64
1, 125326, Note_off_c, 0, 66, 64
1, 125326, Note_on_c, 0, 68, 64
1, 125398, Note_off_c, 0, 68, 64
1, 125398, Note_on_c, 0, 69, 65
1, 125474, Note_on_c, 0, 71, 74
1, 125474, Note_off_c, 0, 69, 64
1, 125545, Note_off_c, 0, 71, 64
1, 125549, Note_on_c, 0, 73, 58
1, 125549, Note_on_c, 0, 57, 66
1, 125552, Note_on_c, 0, 52, 79
1, 125557, Note_on_c, 0, 49, 66
1, 125590, Note_off_c, 0, 52, 64
1, 125599, Note_off_c, 0, 49, 64
1, 125608, Note_off_c, 0, 57, 64
1, 125619, Note_on_c, 0, 71, 66
1, 125643, Note_off_c, 0, 73, 64
1, 125689, Note_off_c, 0, 71, 64
1, 125693, Note_on_c, 0, 69, 59
1, 125741, Note_off_c, 0, 69, 64
1, 125764, Note_on_c, 0, 64, 70
1, 125842, Note_on_c, 0, 57, 64
1, 125842, Note_on_c, 0, 66, 64
1, 125845, Note_on_c, 0, 49, 62
1, 125850, Note_on_c, 0, 52, 70
1, 125860, Note_off_c, 0, 64, 64
1, 125883, Note_off_c, 0, 49, 64
1, 125888, Note_off_c, 0, 57, 64
1, 125897, Note_off_c, 0, 52, 64
1, 125908, Note_on_c, 0, 68, 66
1, 125939, Note_off_c, 0, 66, 64
1, 125980, Note_on_c, 0, 69, 74
1, 125983, Note_off_c, 0, 68, 64
1, 126064, Note_on_c, 0, 71, 83
1, 126070, Note_off_c, 0, 69, 64
1, 126125, Note_on_c, 0, 57, 71
1, 126125, Note_on_c, 0, 52, 84
1, 126125, Note_on_c, 0, 49, 72
1, 126129, Note_off_c, 0, 71, 64
1, 126136, Note_on_c, 0, 73, 67
1, 126161, Note_off_c, 0, 52, 64
1, 126165, Note_off_c, 0, 49, 64
1, 126168, Note_off_c, 0, 57, 64
1, 126206, Note_on_c, 0, 71, 74
1, 126251, Note_off_c, 0, 73, 64
1, 126268, Note_on_c, 0, 57, 82
1, 126273, Note_on_c, 0, 69, 73
1, 126273, Note_on_c, 0, 49, 81
1, 126273, Note_on_c, 0, 52, 85
1, 126304, Note_off_c, 0, 71, 64
1, 126321, Note_off_c, 0, 52, 64
1, 126331, Note_off_c, 0, 69, 64
1, 126348, Note_on_c, 0, 64, 78
1, 126359, Note_off_c, 0, 57, 64
1, 126367, Note_off_c, 0, 49, 64
1, 126431, Note_on_c, 0, 66, 65
1, 126452, Note_off_c, 0, 64, 64
1, 126502, Note_on_c, 0, 68, 67
1, 126537, Note_off_c, 0, 66, 64
1, 126563, Note_off_c, 0, 68, 64
1, 126572, Note_on_c, 0, 69, 70
1, 126650, Note_off_c, 0, 69, 64
1, 126657, Note_on_c, 0, 71, 87
1, 126724, Note_on_c, 0, 73, 77
1, 126747, Note_off_c, 0, 71, 64
1, 126772, Control_c, 0, 64, 127
1, 126783, Note_off_c, 0, 73, 64
1, 126796, Note_on_c, 0, 74, 85
1, 126796, Control_c, 0, 64, 0
1, 126866, Note_on_c, 0, 76, 92
1, 126895, Note_off_c, 0, 74, 64
1, 126936, Note_on_c, 0, 78, 88
1, 126962, Note_off_c, 0, 76, 64
1, 126962, Control_c, 0, 64, 127
1, 127009, Note_on_c, 0, 80, 84
1, 127047, Note_off_c, 0, 78, 64
1, 127070, Note_off_c, 0, 80, 64
1, 127081, Note_on_c, 0, 81, 93
1, 127097, Control_c, 0, 64, 0
1, 127151, Note_on_c, 0, 83, 115
1, 127173, Note_off_c, 0, 81, 64
1, 127221, Note_on_c, 0, 85, 91
1, 127240, Control_c, 0, 64, 127
1, 127254, Note_off_c, 0, 83, 64
1, 127292, Note_on_c, 0, 86, 88
1, 127296, Note_off_c, 0, 85, 64
1, 127363, Note_on_c, 0, 87, 86
1, 127381, Note_off_c, 0, 86, 64
1, 127466, Note_off_c, 0, 87, 64
1, 127474, Note_on_c, 0, 88, 108
1, 127474, Note_on_c, 0, 76, 104
1, 127479, Note_on_c, 0, 49, 55
1, 127568, Note_on_c, 0, 57, 46
1, 127627, Note_off_c, 0, 57, 64
1, 127641, Note_on_c, 0, 52, 64
1, 127705, Note_off_c, 0, 49, 64
1, 127711, Note_on_c, 0, 57, 48
1, 127719, Control_c, 0, 64, 0
1, 127724, Note_off_c, 0, 52, 64
1, 127795, Note_on_c, 0, 49, 71
1, 127806, Note_off_c, 0, 57, 64
1, 127839, Control_c, 0, 64, 127
1, 127853, Note_off_c, 0, 88, 64
1, 127867, Note_on_c, 0, 57, 51
1, 127948, Note_on_c, 0, 52, 81
1, 127955, Note_off_c, 0, 57, 64
1, 128009, Note_off_c, 0, 52, 64
1, 128015, Note_on_c, 0, 57, 58
1, 128023, Note_off_c, 0, 49, 64
1, 128097, Note_off_c, 0, 57, 64
1, 128103, Note_on_c, 0, 80, 102
1, 128106, Note_on_c, 0, 68, 97
1, 128123, Note_on_c, 0, 50, 92
1, 128165, Note_off_c, 0, 76, 64
1, 128204, Note_on_c, 0, 59, 62
1, 128210, Control_c, 0, 64, 0
1, 128278, Note_on_c, 0, 53, 88
1, 128288, Note_off_c, 0, 59, 64
1, 128326, Note_off_c, 0, 50, 64
1, 128331, Control_c, 0, 64, 127
1, 128356, Note_on_c, 0, 59, 61
1, 128376, Note_off_c, 0, 53, 64
1, 128412, Note_off_c, 0, 59, 64
1, 128440, Note_on_c, 0, 50, 83
1, 128466, Note_off_c, 0, 68, 64
1, 128479, Note_off_c, 0, 50, 64
1, 128507, Note_on_c, 0, 59, 57
1, 128566, Note_off_c, 0, 59, 64
1, 128586, Note_on_c, 0, 53, 95
1, 128666, Note_on_c, 0, 59, 73
1, 128672, Note_off_c, 0, 53, 64
1, 128689, Control_c, 0, 64, 0
1, 128697, Note_off_c, 0, 80, 64
1, 128720, Note_on_c, 0, 71, 109
1, 128720, Note_on_c, 0, 83, 123
1, 128742, Note_off_c, 0, 59, 64
1, 128745, Note_on_c, 0, 51, 86
1, 128816, Note_on_c, 0, 59, 59
1, 128858, Control_c, 0, 64, 127
1, 128866, Note_off_c, 0, 51, 64
1, 128866, Note_on_c, 0, 56, 67
1, 128883, Note_off_c, 0, 59, 64
1, 128939, Note_off_c, 0, 83, 64
1, 128955, Note_on_c, 0, 59, 66
1, 128969, Note_off_c, 0, 56, 64
1, 129009, Note_off_c, 0, 71, 64
1, 129045, Note_off_c, 0, 59, 64
1, 129050, Note_on_c, 0, 51, 77
1, 129123, Note_on_c, 0, 59, 57
1, 129137, Note_off_c, 0, 51, 64
1, 129199, Note_on_c, 0, 56, 62
1, 129202, Note_off_c, 0, 59, 64
1, 129257, Note_on_c, 0, 59, 73
1, 129287, Note_off_c, 0, 56, 64
1, 129287, Note_off_c, 0, 59, 64
1, 129349, Control_c, 0, 64, 0
1, 129371, Note_on_c, 0, 67, 97
1, 129371, Note_on_c, 0, 61, 87
1, 129376, Note_on_c, 0, 55, 101
1, 129376, Note_on_c, 0, 39, 97
1, 129437, Note_off_c, 0, 39, 64
1, 129443, Note_on_c, 0, 51, 87
1, 129493, Control_c, 0, 64, 127
1, 129518, Note_on_c, 0, 50, 72
1, 129529, Note_off_c, 0, 51, 64
1, 129597, Note_on_c, 0, 51, 67
1, 129597, Note_off_c, 0, 50, 64
1, 129674, Note_on_c, 0, 50, 66
1, 129682, Note_off_c, 0, 51, 64
1, 129750, Note_on_c, 0, 51, 59
1, 129753, Note_off_c, 0, 50, 64
1, 129802, Note_off_c, 0, 55, 64
1, 129822, Note_on_c, 0, 50, 61
1, 129827, Note_off_c, 0, 51, 64
1, 129845, Note_off_c, 0, 67, 64
1, 129848, Note_off_c, 0, 61, 64
1, 129898, Note_on_c, 0, 51, 70
1, 129901, Note_off_c, 0, 50, 64
1, 129961, Control_c, 0, 64, 0
1, 129976, Note_off_c, 0, 51, 64
1, 129981, Note_on_c, 0, 56, 86
1, 129984, Note_on_c, 0, 68, 81
1, 129992, Note_on_c, 0, 59, 75
1, 130000, Note_on_c, 0, 44, 83
1, 130039, Note_off_c, 0, 44, 64
1, 130043, Note_off_c, 0, 56, 64
1, 130043, Note_off_c, 0, 59, 64
1, 130087, Note_off_c, 0, 68, 64
1, 130093, Control_c, 0, 64, 127
1, 130175, Note_on_c, 0, 71, 83
1, 130175, Note_on_c, 0, 63, 68
1, 130184, Note_on_c, 0, 56, 61
1, 130212, Control_c, 0, 64, 0
1, 130215, Note_off_c, 0, 63, 64
1, 130224, Note_off_c, 0, 56, 64
1, 130232, Note_off_c, 0, 71, 64
1, 130323, Note_on_c, 0, 56, 59
1, 130323, Note_on_c, 0, 71, 72
1, 130332, Note_on_c, 0, 63, 55
1, 130363, Note_off_c, 0, 56, 64
1, 130363, Note_off_c, 0, 71, 64
1, 130368, Note_off_c, 0, 63, 64
1, 130474, Note_on_c, 0, 63, 49
1, 130474, Note_on_c, 0, 56, 41
1, 130482, Note_on_c, 0, 71, 57
1, 130515, Note_off_c, 0, 63, 64
1, 130519, Note_off_c, 0, 56, 64
1, 130524, Note_off_c, 0, 71, 64
1, 130619, Note_on_c, 0, 71, 44
1, 130619, Note_on_c, 0, 56, 37
1, 130625, Note_on_c, 0, 63, 33
1, 130664, Note_off_c, 0, 71, 64
1, 130669, Note_off_c, 0, 56, 64
1, 130669, Note_off_c, 0, 63, 64
1, 130775, Note_on_c, 0, 56, 41
1, 130775, Note_on_c, 0, 71, 43
1, 130780, Note_on_c, 0, 63, 38
1, 130822, Note_off_c, 0, 56, 64
1, 130822, Note_off_c, 0, 63, 64
1, 130822, Note_off_c, 0, 71, 64
1, 130919, Note_on_c, 0, 70, 38
1, 130919, Note_on_c, 0, 58, 30
1, 130928, Note_on_c, 0, 63, 35
1, 130967, Note_off_c, 0, 70, 64
1, 130973, Note_off_c, 0, 63, 64
1, 130973, Note_off_c, 0, 58, 64
1, 131054, Note_on_c, 0, 63, 37
1, 131054, Note_on_c, 0, 68, 47
1, 131061, Note_on_c, 0, 59, 40
1, 131100, Note_off_c, 0, 68, 64
1, 131100, Note_off_c, 0, 63, 64
1, 131103, Note_off_c, 0, 59, 64
1, 131206, Note_on_c, 0, 63, 50
1, 131206, Note_on_c, 0, 67, 56
1, 131206, Note_on_c, 0, 51, 55
1, 131206, Note_on_c, 0, 61, 52
1, 131243, Note_off_c, 0, 63, 64
1, 131243, Note_off_c, 0, 67, 64
1, 131246, Note_off_c, 0, 51, 64
1, 131249, Note_off_c, 0, 61, 64
1, 131357, Note_on_c, 0, 75, 53
1, 131366, Note_on_c, 0, 67, 48
1, 131366, Note_on_c, 0, 63, 20
1, 131369, Note_on_c, 0, 61, 39
1, 131394, Note_off_c, 0, 75, 64
1, 131413, Note_off_c, 0, 67, 64
1, 131416, Note_off_c, 0, 63, 64
1, 131421, Note_off_c, 0, 61, 64
1, 131496, Note_on_c, 0, 63, 46
1, 131507, Note_on_c, 0, 61, 34
1, 131507, Note_on_c, 0, 75, 62
1, 131511, Note_on_c, 0, 67, 46
1, 131546, Note_off_c, 0, 75, 64
1, 131550, Note_off_c, 0, 63, 64
1, 131555, Note_off_c, 0, 61, 64
1, 131558, Note_off_c, 0, 67, 64
1, 131650, Note_on_c, 0, 67, 60
1, 131655, Note_on_c, 0, 75, 65
1, 131655, Note_on_c, 0, 63, 46
1, 131658, Note_on_c, 0, 61, 38
1, 131691, Note_off_c, 0, 75, 64
1, 131691, Note_off_c, 0, 67, 64
1, 131699, Note_off_c, 0, 63, 64
1, 131702, Note_off_c, 0, 61, 64
1, 131798, Note_on_c, 0, 63, 43
1, 131798, Note_on_c, 0, 67, 74
1, 131802, Note_on_c, 0, 75, 70
1, 131802, Note_on_c, 0, 61, 37
1, 131841, Note_off_c, 0, 67, 64
1, 131841, Note_off_c, 0, 75, 64
1, 131844, Note_off_c, 0, 61, 64
1, 131844, Note_off_c, 0, 63, 64
1, 131942, Note_on_c, 0, 61, 41
1, 131942, Note_on_c, 0, 63, 49
1, 131945, Note_on_c, 0, 75, 67
1, 131948, Note_on_c, 0, 67, 69
1, 131981, Note_off_c, 0, 75, 64
1, 131987, Note_off_c, 0, 67, 64
1, 131993, Note_off_c, 0, 63, 64
1, 131993, Note_off_c, 0, 61, 64
1, 132092, Note_on_c, 0, 75, 65
1, 132092, Note_on_c, 0, 63, 44
1, 132092, Note_on_c, 0, 68, 70
1, 132092, Note_on_c, 0, 59, 57
1, 132128, Note_off_c, 0, 75, 64
1, 132135, Note_off_c, 0, 63, 64
1, 132135, Note_off_c, 0, 59, 64
1, 132139, Note_off_c, 0, 68, 64
1, 132231, Note_on_c, 0, 70, 66
1, 132231, Note_on_c, 0, 63, 44
1, 132238, Note_on_c, 0, 58, 49
1, 132241, Note_on_c, 0, 75, 68
1, 132273, Note_off_c, 0, 63, 64
1, 132277, Note_off_c, 0, 58, 64
1, 132277, Note_off_c, 0, 75, 64
1, 132282, Note_off_c, 0, 70, 64
1, 132379, Note_on_c, 0, 44, 82
1, 132379, Note_on_c, 0, 75, 67
1, 132387, Note_on_c, 0, 71, 69
1, 132410, Note_off_c, 0, 44, 64
1, 132415, Note_off_c, 0, 75, 64
1, 132421, Note_off_c, 0, 71, 64
1, 132518, Note_on_c, 0, 71, 49
1, 132518, Note_on_c, 0, 63, 68
1, 132525, Note_on_c, 0, 56, 67
1, 132560, Note_off_c, 0, 63, 64
1, 132560, Note_off_c, 0, 71, 64
1, 132564, Note_off_c, 0, 56, 64
1, 132663, Note_on_c, 0, 71, 53
1, 132678, Note_on_c, 0, 63, 46
1, 132681, Note_on_c, 0, 56, 50
1, 132708, Note_off_c, 0, 71, 64
1, 132720, Note_off_c, 0, 63, 64
1, 132720, Note_off_c, 0, 56, 64
1, 132809, Note_on_c, 0, 71, 61
1, 132809, Note_on_c, 0, 56, 33
1, 132812, Note_on_c, 0, 63, 37
1, 132850, Note_off_c, 0, 71, 64
1, 132855, Note_off_c, 0, 63, 64
1, 132858, Note_off_c, 0, 56, 64
1, 132962, Note_on_c, 0, 63, 44
1, 132965, Note_on_c, 0, 71, 51
1, 132970, Note_on_c, 0, 56, 45
1, 133004, Note_off_c, 0, 63, 64
1, 133011, Note_off_c, 0, 71, 64
1, 133011, Note_off_c, 0, 56, 64
1, 133109, Note_on_c, 0, 71, 62
1, 133121, Note_on_c, 0, 63, 39
1, 133121, Note_on_c, 0, 56, 34
1, 133151, Note_off_c, 0, 71, 64
1, 133163, Note_off_c, 0, 63, 64
1, 133171, Note_off_c, 0, 56, 64
1, 133252, Note_on_c, 0, 70, 50
1, 133252, Note_on_c, 0, 58, 35
1, 133252, Note_on_c, 0, 63, 36
1, 133298, Note_off_c, 0, 63, 64
1, 133304, Note_off_c, 0, 58, 64
1, 133307, Note_off_c, 0, 70, 64
1, 133399, Note_on_c, 0, 68, 48
1, 133399, Note_on_c, 0, 63, 37
1, 133408, Note_on_c, 0, 59, 39
1, 133443, Note_off_c, 0, 68, 64
1, 133452, Note_off_c, 0, 59, 64
1, 133465, Note_off_c, 0, 63, 64
1, 133541, Note_on_c, 0, 51, 56
1, 133547, Note_on_c, 0, 61, 46
1, 133547, Note_on_c, 0, 63, 6
1, 133547, Note_on_c, 0, 67, 63
1, 133583, Note_off_c, 0, 51, 64
1, 133583, Note_off_c, 0, 67, 64
1, 133594, Note_off_c, 0, 61, 64
1, 133605, Control_c, 0, 64, 127
1, 133628, Note_off_c, 0, 63, 64
1, 133664, Control_c, 0, 64, 0
1, 133695, Note_on_c, 0, 75, 70
1, 133699, Note_on_c, 0, 61, 49
1, 133706, Note_on_c, 0, 63, 43
1, 133709, Note_on_c, 0, 67, 43
1, 133733, Note_off_c, 0, 75, 64
1, 133745, Note_off_c, 0, 61, 64
1, 133748, Note_off_c, 0, 63, 64
1, 133756, Note_off_c, 0, 67, 64
1, 133840, Note_on_c, 0, 67, 45
1, 133840, Note_on_c, 0, 75, 70
1, 133848, Note_on_c, 0, 63, 49
1, 133851, Note_on_c, 0, 61, 47
1, 133890, Note_off_c, 0, 75, 64
1, 133890, Note_off_c, 0, 61, 64
1, 133893, Note_off_c, 0, 63, 64
1, 133900, Note_off_c, 0, 67, 64
1, 133979, Note_on_c, 0, 67, 57
1, 133987, Note_on_c, 0, 75, 65
1, 133987, Note_on_c, 0, 63, 58
1, 133995, Note_on_c, 0, 61, 41
1, 134032, Note_off_c, 0, 67, 64
1, 134035, Note_off_c, 0, 75, 64
1, 134035, Note_off_c, 0, 63, 64
1, 134039, Note_off_c, 0, 61, 64
1, 134131, Note_on_c, 0, 67, 69
1, 134137, Note_on_c, 0, 75, 68
1, 134142, Note_on_c, 0, 63, 57
1, 134145, Note_on_c, 0, 61, 47
1, 134171, Note_off_c, 0, 67, 64
1, 134174, Note_off_c, 0, 75, 64
1, 134185, Note_off_c, 0, 61, 64
1, 134194, Note_off_c, 0, 63, 64
1, 134276, Note_on_c, 0, 63, 48
1, 134280, Note_on_c, 0, 67, 59
1, 134283, Note_on_c, 0, 75, 59
1, 134283, Note_on_c, 0, 61, 38
1, 134323, Note_off_c, 0, 67, 64
1, 134323, Note_off_c, 0, 75, 64
1, 134329, Note_off_c, 0, 63, 64
1, 134333, Note_off_c, 0, 61, 64
1, 134418, Note_on_c, 0, 68, 58
1, 134421, Note_on_c, 0, 75, 42
1, 134424, Note_on_c, 0, 59, 41
1, 134427, Note_on_c, 0, 63, 43
1, 134463, Note_off_c, 0, 68, 64
1, 134463, Note_off_c, 0, 75, 64
1, 134468, Note_off_c, 0, 59, 64
1, 134472, Note_off_c, 0, 63, 64
1, 134563, Note_on_c, 0, 75, 48
1, 134567, Note_on_c, 0, 70, 47
1, 134574, Note_on_c, 0, 63, 35
1, 134574, Note_on_c, 0, 58, 42
1, 134611, Note_off_c, 0, 70, 64
1, 134616, Note_off_c, 0, 75, 64
1, 134616, Note_off_c, 0, 63, 64
1, 134621, Note_off_c, 0, 58, 64
1, 134733, Note_on_c, 0, 75, 56
1, 134738, Note_on_c, 0, 71, 51
1, 134738, Note_on_c, 0, 44, 55
1, 134741, Control_c, 0, 64, 127
1, 134775, Note_off_c, 0, 75, 64
1, 134778, Note_off_c, 0, 44, 64
1, 134783, Note_off_c, 0, 71, 64
1, 134893, Note_on_c, 0, 75, 54
1, 134901, Note_on_c, 0, 56, 47
1, 134901, Note_on_c, 0, 71, 52
1, 134911, Note_on_c, 0, 59, 45
1, 134934, Control_c, 0, 64, 0
1, 134937, Note_off_c, 0, 75, 64
1, 134947, Note_off_c, 0, 71, 64
1, 134950, Note_off_c, 0, 56, 64
1, 134950, Note_off_c, 0, 59, 64
1, 135039, Note_on_c, 0, 71, 57
1, 135045, Note_on_c, 0, 75, 53
1, 135057, Note_on_c, 0, 59, 39
1, 135057, Note_on_c, 0, 56, 52
1, 135095, Note_off_c, 0, 71, 64
1, 135106, Note_off_c, 0, 59, 64
1, 135184, Note_on_c, 0, 63, 58
1, 135184, Note_on_c, 0, 68, 50
1, 135187, Note_on_c, 0, 71, 42
1, 135191, Note_on_c, 0, 59, 38
1, 135207, Note_off_c, 0, 75, 64
1, 135215, Note_off_c, 0, 56, 64
1, 135221, Note_off_c, 0, 63, 64
1, 135229, Note_off_c, 0, 59, 64
1, 135252, Note_off_c, 0, 71, 64
1, 135262, Note_off_c, 0, 68, 64
1, 135338, Note_on_c, 0, 49, 72
1, 135369, Note_off_c, 0, 49, 64
1, 135415, Control_c, 0, 64, 127
1, 135482, Note_on_c, 0, 76, 57
1, 135485, Note_on_c, 0, 73, 57
1, 135494, Note_on_c, 0, 61, 50
1, 135500, Note_on_c, 0, 56, 34
1, 135521, Note_off_c, 0, 76, 64
1, 135521, Control_c, 0, 64, 0
1, 135530, Note_off_c, 0, 73, 64
1, 135536, Note_off_c, 0, 61, 64
1, 135550, Note_off_c, 0, 56, 64
1, 135638, Note_on_c, 0, 56, 29
1, 135644, Note_on_c, 0, 76, 61
1, 135644, Note_on_c, 0, 73, 51
1, 135655, Note_on_c, 0, 61, 54
1, 135697, Note_off_c, 0, 73, 64
1, 135697, Note_off_c, 0, 61, 64
1, 135772, Note_on_c, 0, 73, 43
1, 135772, Note_on_c, 0, 68, 41
1, 135778, Note_on_c, 0, 64, 35
1, 135778, Note_on_c, 0, 61, 52
1, 135781, Note_off_c, 0, 56, 64
1, 135809, Note_off_c, 0, 76, 64
1, 135822, Note_off_c, 0, 64, 64
1, 135822, Note_off_c, 0, 61, 64
1, 135886, Note_off_c, 0, 73, 64
1, 135890, Note_off_c, 0, 68, 64
1, 135928, Note_on_c, 0, 51, 72
1, 135967, Note_off_c, 0, 51, 64
1, 135976, Control_c, 0, 64, 127
1, 136037, Control_c, 0, 64, 0
1, 136065, Note_on_c, 0, 75, 54
1, 136065, Note_on_c, 0, 71, 69
1, 136074, Note_on_c, 0, 59, 45
1, 136079, Note_on_c, 0, 56, 51
1, 136109, Note_off_c, 0, 71, 64
1, 136113, Note_off_c, 0, 75, 64
1, 136113, Note_off_c, 0, 59, 64
1, 136121, Note_off_c, 0, 56, 64
1, 136223, Note_on_c, 0, 75, 54
1, 136223, Note_on_c, 0, 71, 66
1, 136226, Note_on_c, 0, 56, 39
1, 136229, Note_on_c, 0, 59, 28
1, 136263, Note_off_c, 0, 71, 64
1, 136274, Note_off_c, 0, 59, 64
1, 136301, Note_off_c, 0, 56, 64
1, 136376, Note_on_c, 0, 63, 47
1, 136379, Note_on_c, 0, 68, 32
1, 136382, Note_on_c, 0, 71, 35
1, 136385, Note_off_c, 0, 75, 64
1, 136385, Note_on_c, 0, 59, 24
1, 136408, Control_c, 0, 64, 127
1, 136427, Note_off_c, 0, 63, 64
1, 136427, Note_off_c, 0, 59, 64
1, 136439, Note_off_c, 0, 71, 64
1, 136446, Note_off_c, 0, 68, 64
1, 136516, Control_c, 0, 64, 0
1, 136525, Note_on_c, 0, 51, 55
1, 136569, Note_off_c, 0, 51, 64
1, 136661, Note_on_c, 0, 70, 56
1, 136661, Note_on_c, 0, 75, 56
1, 136670, Note_on_c, 0, 58, 44
1, 136677, Note_on_c, 0, 55, 53
1, 136706, Note_off_c, 0, 70, 64
1, 136706, Note_off_c, 0, 75, 64
1, 136719, Note_off_c, 0, 58, 64
1, 136719, Note_off_c, 0, 55, 64
1, 136815, Note_on_c, 0, 70, 50
1, 136822, Note_on_c, 0, 75, 60
1, 136822, Note_on_c, 0, 55, 37
1, 136829, Note_on_c, 0, 58, 33
1, 136868, Note_off_c, 0, 70, 64
1, 136868, Note_off_c, 0, 55, 64
1, 136881, Note_off_c, 0, 58, 64
1, 136897, Note_off_c, 0, 75, 64
1, 136956, Note_on_c, 0, 58, 33
1, 136956, Control_c, 0, 64, 127
1, 136956, Note_on_c, 0, 70, 40
1, 136961, Note_on_c, 0, 63, 40
1, 136961, Note_on_c, 0, 67, 43
1, 137003, Note_off_c, 0, 58, 64
1, 137003, Note_off_c, 0, 63, 64
1, 137007, Note_off_c, 0, 70, 64
1, 137012, Note_off_c, 0, 67, 64
1, 137127, Control_c, 0, 64, 0
1, 137146, Note_on_c, 0, 68, 41
1, 137146, Note_on_c, 0, 71, 62
1, 137152, Note_on_c, 0, 44, 30
1, 137155, Note_on_c, 0, 32, 31
1, 137188, Note_off_c, 0, 71, 64
1, 137195, Note_off_c, 0, 68, 64
1, 137204, Note_off_c, 0, 44, 64
1, 137209, Note_off_c, 0, 32, 64
1, 137248, Control_c, 0, 64, 127
1, 137344, Note_on_c, 0, 83, 85
1, 137344, Note_on_c, 0, 71, 62
1, 137348, Note_on_c, 0, 44, 55
1, 137355, Note_on_c, 0, 75, 42
1, 137355, Note_on_c, 0, 51, 43
1, 137383, Note_off_c, 0, 83, 64
1, 137396, Note_off_c, 0, 44, 64
1, 137400, Note_off_c, 0, 51, 64
1, 137405, Note_off_c, 0, 71, 64
1, 137405, Note_off_c, 0, 75, 64
1, 137427, Control_c, 0, 64, 0
1, 137496, Note_on_c, 0, 75, 50
1, 137496, Note_on_c, 0, 83, 94
1, 137496, Note_on_c, 0, 71, 63
1, 137516, Note_on_c, 0, 44, 48
1, 137516, Note_on_c, 0, 51, 47
1, 137538, Note_off_c, 0, 83, 64
1, 137547, Note_off_c, 0, 71, 64
1, 137560, Note_off_c, 0, 44, 64
1, 137560, Note_off_c, 0, 51, 64
1, 137566, Note_off_c, 0, 75, 64
1, 137638, Note_on_c, 0, 75, 51
1, 137638, Note_on_c, 0, 71, 70
1, 137642, Note_on_c, 0, 83, 94
1, 137655, Note_on_c, 0, 51, 40
1, 137659, Note_on_c, 0, 44, 44
1, 137684, Note_off_c, 0, 83, 64
1, 137691, Note_off_c, 0, 71, 64
1, 137701, Note_off_c, 0, 51, 64
1, 137701, Note_off_c, 0, 44, 64
1, 137716, Note_off_c, 0, 75, 64
1, 137784, Note_on_c, 0, 75, 55
1, 137790, Note_on_c, 0, 83, 97
1, 137790, Note_on_c, 0, 71, 77
1, 137790, Note_on_c, 0, 44, 54
1, 137794, Note_on_c, 0, 51, 47
1, 137829, Note_off_c, 0, 83, 64
1, 137843, Note_off_c, 0, 44, 64
1, 137843, Note_off_c, 0, 51, 64
1, 137846, Note_off_c, 0, 71, 64
1, 137873, Note_off_c, 0, 75, 64
1, 137932, Note_on_c, 0, 75, 67
1, 137932, Note_on_c, 0, 51, 55
1, 137935, Note_on_c, 0, 83, 103
1, 137935, Note_on_c, 0, 44, 66
1, 137935, Note_on_c, 0, 71, 79
1, 137962, Note_off_c, 0, 83, 64
1, 137974, Note_off_c, 0, 71, 64
1, 137985, Note_off_c, 0, 44, 64
1, 137990, Note_off_c, 0, 51, 64
1, 138020, Note_off_c, 0, 75, 64
1, 138070, Note_on_c, 0, 82, 84
1, 138070, Note_on_c, 0, 70, 79
1, 138070, Note_on_c, 0, 73, 79
1, 138079, Note_on_c, 0, 46, 69
1, 138084, Note_on_c, 0, 51, 60
1, 138129, Note_off_c, 0, 51, 64
1, 138132, Note_off_c, 0, 82, 64
1, 138140, Note_off_c, 0, 70, 64
1, 138145, Note_off_c, 0, 46, 64
1, 138168, Note_off_c, 0, 73, 64
1, 138210, Note_on_c, 0, 80, 90
1, 138210, Note_on_c, 0, 68, 84
1, 138210, Note_on_c, 0, 71, 88
1, 138218, Note_on_c, 0, 51, 70
1, 138221, Note_on_c, 0, 47, 82
1, 138258, Note_off_c, 0, 47, 64
1, 138258, Note_off_c, 0, 51, 64
1, 138293, Note_off_c, 0, 80, 64
1, 138293, Note_off_c, 0, 68, 64
1, 138313, Note_off_c, 0, 71, 64
1, 138361, Note_on_c, 0, 70, 85
1, 138361, Note_on_c, 0, 67, 95
1, 138365, Note_on_c, 0, 79, 103
1, 138369, Note_on_c, 0, 39, 72
1, 138374, Note_on_c, 0, 49, 50
1, 138389, Note_off_c, 0, 67, 64
1, 138394, Note_off_c, 0, 70, 64
1, 138397, Note_off_c, 0, 39, 64
1, 138410, Control_c, 0, 64, 127
1, 138416, Note_off_c, 0, 49, 64
1, 138416, Note_off_c, 0, 79, 64
1, 138550, Note_on_c, 0, 79, 81
1, 138553, Note_on_c, 0, 88, 75
1, 138553, Note_on_c, 0, 61, 68
1, 138561, Note_on_c, 0, 51, 58
1, 138564, Note_on_c, 0, 76, 47
1, 138591, Control_c, 0, 64, 0
1, 138591, Note_off_c, 0, 88, 64
1, 138595, Note_off_c, 0, 61, 64
1, 138603, Note_off_c, 0, 51, 64
1, 138606, Note_off_c, 0, 76, 64
1, 138637, Note_off_c, 0, 79, 64
1, 138687, Note_on_c, 0, 79, 85
1, 138691, Note_on_c, 0, 88, 91
1, 138695, Note_on_c, 0, 76, 72
1, 138705, Note_on_c, 0, 51, 57
1, 138705, Note_on_c, 0, 61, 65
1, 138742, Note_off_c, 0, 76, 64
1, 138742, Note_off_c, 0, 61, 64
1, 138742, Note_off_c, 0, 51, 64
1, 138762, Note_off_c, 0, 79, 64
1, 138781, Note_off_c, 0, 88, 64
1, 138828, Note_on_c, 0, 79, 81
1, 138828, Note_on_c, 0, 88, 90
1, 138828, Note_on_c, 0, 61, 72
1, 138833, Note_on_c, 0, 51, 71
1, 138833, Note_on_c, 0, 76, 91
1, 138878, Note_off_c, 0, 51, 64
1, 138893, Note_off_c, 0, 88, 64
1, 138893, Note_off_c, 0, 61, 64
1, 138901, Note_off_c, 0, 76, 64
1, 138921, Note_off_c, 0, 79, 64
1, 138974, Note_on_c, 0, 61, 84
1, 138974, Note_on_c, 0, 79, 90
1, 138977, Note_on_c, 0, 88, 97
1, 138977, Note_on_c, 0, 76, 91
1, 138982, Note_on_c, 0, 51, 86
1, 139021, Note_off_c, 0, 51, 64
1, 139037, Note_off_c, 0, 88, 64
1, 139060, Note_off_c, 0, 61, 64
1, 139060, Note_off_c, 0, 76, 64
1, 139070, Note_off_c, 0, 79, 64
1, 139116, Note_on_c, 0, 79, 94
1, 139116, Note_on_c, 0, 88, 90
1, 139116, Note_on_c, 0, 76, 90
1, 139119, Note_on_c, 0, 61, 81
1, 139132, Note_on_c, 0, 51, 86
1, 139177, Note_off_c, 0, 88, 64
1, 139180, Note_off_c, 0, 76, 64
1, 139184, Note_off_c, 0, 51, 64
1, 139193, Note_off_c, 0, 61, 64
1, 139219, Note_off_c, 0, 79, 64
1, 139254, Note_on_c, 0, 87, 94
1, 139257, Note_on_c, 0, 75, 95
1, 139261, Note_on_c, 0, 79, 101
1, 139268, Note_on_c, 0, 59, 88
1, 139268, Note_on_c, 0, 51, 83
1, 139307, Note_off_c, 0, 51, 64
1, 139307, Note_off_c, 0, 59, 64
1, 139339, Note_off_c, 0, 75, 64
1, 139343, Note_off_c, 0, 87, 64
1, 139357, Note_off_c, 0, 79, 64
1, 139393, Note_on_c, 0, 73, 92
1, 139396, Note_on_c, 0, 79, 101
1, 139396, Note_on_c, 0, 58, 81
1, 139396, Note_on_c, 0, 85, 90
1, 139413, Note_on_c, 0, 51, 88
1, 139424, Note_off_c, 0, 58, 64
1, 139438, Note_off_c, 0, 51, 64
1, 139485, Note_off_c, 0, 79, 64
1, 139485, Note_off_c, 0, 85, 64
1, 139485, Note_off_c, 0, 73, 64
1, 139542, Note_on_c, 0, 71, 106
1, 139542, Note_on_c, 0, 83, 112
1, 139549, Note_on_c, 0, 80, 79
1, 139552, Note_on_c, 0, 44, 91
1, 139552, Note_on_c, 0, 32, 78
1, 139561, Control_c, 0, 64, 127
1, 139577, Note_off_c, 0, 44, 64
1, 139581, Note_off_c, 0, 32, 64
1, 139592, Note_off_c, 0, 80, 64
1, 139605, Note_off_c, 0, 83, 64
1, 139617, Note_off_c, 0, 71, 64
1, 139692, Note_on_c, 0, 71, 73
1, 139692, Note_on_c, 0, 83, 91
1, 139692, Control_c, 0, 64, 0
1, 139695, Note_on_c, 0, 75, 69
1, 139695, Note_on_c, 0, 51, 71
1, 139701, Note_on_c, 0, 44, 79
1, 139734, Note_off_c, 0, 51, 64
1, 139737, Note_off_c, 0, 44, 64
1, 139742, Note_off_c, 0, 75, 64
1, 139759, Note_off_c, 0, 71, 64
1, 139764, Note_off_c, 0, 83, 64
1, 139826, Note_on_c, 0, 83, 96
1, 139829, Note_on_c, 0, 71, 76
1, 139834, Note_on_c, 0, 44, 66
1, 139834, Note_on_c, 0, 51, 65
1, 139840, Note_on_c, 0, 75, 57
1, 139886, Note_off_c, 0, 75, 64
1, 139886, Note_off_c, 0, 44, 64
1, 139892, Note_off_c, 0, 51, 64
1, 139896, Note_off_c, 0, 83, 64
1, 139906, Note_off_c, 0, 71, 64
1, 139973, Note_on_c, 0, 71, 64
1, 139973, Note_on_c, 0, 51, 69
1, 139973, Note_on_c, 0, 83, 88
1, 139973, Note_on_c, 0, 44, 75
1, 139978, Note_on_c, 0, 75, 65
1, 140038, Note_off_c, 0, 83, 64
1, 140038, Note_off_c, 0, 44, 64
1, 140046, Note_off_c, 0, 71, 64
1, 140049, Note_off_c, 0, 51, 64
1, 140052, Note_off_c, 0, 75, 64
1, 140110, Note_on_c, 0, 83, 100
1, 140110, Note_on_c, 0, 71, 81
1, 140110, Note_on_c, 0, 75, 65
1, 140110, Note_on_c, 0, 51, 65
1, 140118, Note_on_c, 0, 44, 71
1, 140180, Note_off_c, 0, 83, 64
1, 140190, Note_off_c, 0, 71, 64
1, 140190, Note_off_c, 0, 44, 64
1, 140194, Note_off_c, 0, 51, 64
1, 140208, Note_off_c, 0, 75, 64
1, 140251, Note_on_c, 0, 83, 100
1, 140251, Note_on_c, 0, 75, 84
1, 140251, Note_on_c, 0, 71, 89
1, 140251, Note_on_c, 0, 51, 73
1, 140255, Note_on_c, 0, 44, 81
1, 140294, Note_off_c, 0, 83, 64
1, 140310, Note_off_c, 0, 71, 64
1, 140327, Note_off_c, 0, 44, 64
1, 140327, Note_off_c, 0, 51, 64
1, 140341, Note_off_c, 0, 75, 64
1, 140388, Note_on_c, 0, 70, 88
1, 140392, Note_on_c, 0, 82, 88
1, 140392, Note_on_c, 0, 73, 85
1, 140395, Note_on_c, 0, 51, 78
1, 140402, Note_on_c, 0, 46, 76
1, 140453, Note_off_c, 0, 46, 64
1, 140471, Note_off_c, 0, 51, 64
1, 140474, Note_off_c, 0, 70, 64
1, 140478, Note_off_c, 0, 82, 64
1, 140491, Note_off_c, 0, 73, 64
1, 140528, Note_on_c, 0, 80, 95
1, 140528, Note_on_c, 0, 68, 94
1, 140528, Note_on_c, 0, 51, 78
1, 140531, Note_on_c, 0, 71, 97
1, 140534, Note_on_c, 0, 47, 91
1, 140608, Note_off_c, 0, 51, 64
1, 140616, Note_off_c, 0, 68, 64
1, 140619, Note_off_c, 0, 47, 64
1, 140622, Note_off_c, 0, 80, 64
1, 140622, Note_off_c, 0, 71, 64
1, 140675, Note_on_c, 0, 70, 90
1, 140675, Note_on_c, 0, 67, 103
1, 140675, Note_on_c, 0, 49, 92
1, 140678, Note_on_c, 0, 79, 106
1, 140678, Note_on_c, 0, 39, 92
1, 140703, Note_off_c, 0, 39, 64
1, 140703, Note_off_c, 0, 67, 64
1, 140712, Note_off_c, 0, 49, 64
1, 140726, Note_off_c, 0, 70, 64
1, 140734, Control_c, 0, 64, 127
1, 140740, Note_off_c, 0, 79, 64
1, 140845, Note_on_c, 0, 88, 97
1, 140845, Note_on_c, 0, 61, 79
1, 140853, Note_on_c, 0, 76, 75
1, 140853, Note_on_c, 0, 79, 83
1, 140857, Note_on_c, 0, 51, 68
1, 140884, Note_off_c, 0, 61, 64
1, 140892, Control_c, 0, 64, 0
1, 140896, Note_off_c, 0, 51, 64
1, 140901, Note_off_c, 0, 76, 64
1, 140901, Note_off_c, 0, 79, 64
1, 140918, Note_off_c, 0, 88, 64
1, 140988, Note_on_c, 0, 76, 89
1, 140988, Note_on_c, 0, 51, 74
1, 140991, Note_on_c, 0, 61, 84
1, 140991, Note_on_c, 0, 79, 86
1, 140991, Note_on_c, 0, 88, 81
1, 141037, Note_off_c, 0, 51, 64
1, 141043, Note_off_c, 0, 61, 64
1, 141066, Note_off_c, 0, 76, 64
1, 141066, Note_off_c, 0, 79, 64
1, 141066, Note_off_c, 0, 88, 64
1, 141127, Note_on_c, 0, 61, 89
1, 141127, Note_on_c, 0, 79, 88
1, 141130, Note_on_c, 0, 76, 87
1, 141130, Note_on_c, 0, 88, 91
1, 141130, Note_on_c, 0, 51, 91
1, 141191, Note_off_c, 0, 51, 64
1, 141196, Note_off_c, 0, 88, 64
1, 141196, Note_off_c, 0, 61, 64
1, 141211, Note_off_c, 0, 76, 64
1, 141218, Note_off_c, 0, 79, 64
1, 141269, Note_on_c, 0, 61, 81
1, 141272, Note_on_c, 0, 79, 94
1, 141272, Note_on_c, 0, 88, 98
1, 141272, Note_on_c, 0, 76, 87
1, 141277, Note_on_c, 0, 51, 87
1, 141338, Note_off_c, 0, 61, 64
1, 141338, Note_off_c, 0, 51, 64
1, 141347, Note_off_c, 0, 76, 64
1, 141369, Note_off_c, 0, 88, 64
1, 141375, Note_off_c, 0, 79, 64
1, 141414, Note_on_c, 0, 61, 81
1, 141417, Note_on_c, 0, 88, 96
1, 141417, Note_on_c, 0, 76, 95
1, 141417, Note_on_c, 0, 79, 101
1, 141430, Note_on_c, 0, 51, 84
1, 141472, Note_off_c, 0, 51, 64
1, 141488, Note_off_c, 0, 61, 64
1, 141488, Note_off_c, 0, 88, 64
1, 141499, Note_off_c, 0, 76, 64
1, 141514, Note_off_c, 0, 79, 64
1, 141558, Note_on_c, 0, 59, 93
1, 141558, Note_on_c, 0, 79, 96
1, 141558, Note_on_c, 0, 51, 91
1, 141558, Note_on_c, 0, 87, 92
1, 141558, Note_on_c, 0, 75, 96
1, 141598, Note_off_c, 0, 59, 64
1, 141609, Note_off_c, 0, 51, 64
1, 141623, Note_off_c, 0, 87, 64
1, 141633, Note_off_c, 0, 75, 64
1, 141655, Note_off_c, 0, 79, 64
1, 141694, Note_on_c, 0, 85, 93
1, 141694, Note_on_c, 0, 73, 90
1, 141694, Note_on_c, 0, 79, 97
1, 141703, Note_on_c, 0, 58, 75
1, 141709, Note_on_c, 0, 51, 84
1, 141734, Note_off_c, 0, 58, 64
1, 141740, Note_off_c, 0, 51, 64
1, 141784, Note_off_c, 0, 79, 64
1, 141793, Note_off_c, 0, 85, 64
1, 141800, Note_off_c, 0, 73, 64
1, 141851, Note_on_c, 0, 83, 113
1, 141851, Note_on_c, 0, 71, 101
1, 141857, Note_on_c, 0, 80, 81
1, 141857, Note_on_c, 0, 44, 81
1, 141878, Note_off_c, 0, 71, 64
1, 141889, Note_off_c, 0, 80, 64
1, 141889, Note_off_c, 0, 44, 64
1, 141898, Control_c, 0, 64, 127
1, 141934, Note_off_c, 0, 83, 64
1, 142009, Note_on_c, 0, 80, 85
1, 142009, Note_on_c, 0, 83, 94
1, 142024, Note_on_c, 0, 63, 47
1, 142024, Note_on_c, 0, 59, 48
1, 142053, Note_off_c, 0, 83, 64
1, 142053, Note_off_c, 0, 80, 64
1, 142066, Control_c, 0, 64, 0
1, 142066, Note_off_c, 0, 59, 64
1, 142069, Note_off_c, 0, 63, 64
1, 142152, Note_on_c, 0, 59, 36
1, 142160, Note_on_c, 0, 80, 73
1, 142166, Note_on_c, 0, 83, 94
1, 142176, Note_on_c, 0, 63, 51
1, 142221, Note_off_c, 0, 59, 64
1, 142230, Note_off_c, 0, 83, 64
1, 142305, Note_on_c, 0, 83, 81
1, 142314, Note_on_c, 0, 59, 35
1, 142317, Note_on_c, 0, 87, 54
1, 142321, Note_off_c, 0, 63, 64
1, 142321, Note_on_c, 0, 56, 55
1, 142343, Note_off_c, 0, 80, 64
1, 142358, Note_off_c, 0, 59, 64
1, 142378, Note_off_c, 0, 56, 64
1, 142444, Note_off_c, 0, 83, 64
1, 142450, Note_off_c, 0, 87, 64
1, 142461, Note_on_c, 0, 49, 72
1, 142492, Note_off_c, 0, 49, 64
1, 142497, Control_c, 0, 64, 127
1, 142606, Note_on_c, 0, 85, 72
1, 142606, Note_on_c, 0, 80, 63
1, 142617, Note_on_c, 0, 61, 55
1, 142625, Note_on_c, 0, 64, 54
1, 142628, Control_c, 0, 64, 0
1, 142658, Note_off_c, 0, 80, 64
1, 142658, Note_off_c, 0, 61, 64
1, 142658, Note_off_c, 0, 85, 64
1, 142665, Note_off_c, 0, 64, 64
1, 142756, Note_on_c, 0, 80, 69
1, 142756, Note_on_c, 0, 85, 70
1, 142762, Note_on_c, 0, 64, 47
1, 142767, Note_on_c, 0, 61, 49
1, 142823, Note_off_c, 0, 61, 64
1, 142853, Note_off_c, 0, 85, 64
1, 142898, Note_on_c, 0, 61, 46
1, 142904, Note_on_c, 0, 85, 64
1, 142904, Note_off_c, 0, 64, 64
1, 142912, Note_on_c, 0, 88, 45
1, 142912, Note_off_c, 0, 80, 64
1, 142915, Note_on_c, 0, 56, 52
1, 142949, Note_off_c, 0, 61, 64
1, 142953, Note_off_c, 0, 56, 64
1, 142974, Note_off_c, 0, 88, 64
1, 143005, Note_off_c, 0, 85, 64
1, 143024, Control_c, 0, 64, 127
1, 143051, Note_on_c, 0, 51, 82
1, 143083, Note_off_c, 0, 51, 64
1, 143187, Note_on_c, 0, 80, 51
1, 143194, Note_on_c, 0, 83, 88
1, 143202, Note_on_c, 0, 59, 56
1, 143202, Note_on_c, 0, 63, 70
1, 143239, Note_off_c, 0, 80, 64
1, 143239, Control_c, 0, 64, 0
1, 143242, Note_off_c, 0, 59, 64
1, 143245, Note_off_c, 0, 63, 64
1, 143249, Note_off_c, 0, 83, 64
1, 143327, Note_on_c, 0, 59, 47
1, 143327, Note_on_c, 0, 83, 95
1, 143333, Note_on_c, 0, 80, 62
1, 143336, Note_on_c, 0, 63, 62
1, 143386, Note_off_c, 0, 59, 64
1, 143420, Note_off_c, 0, 83, 64
1, 143481, Note_off_c, 0, 63, 64
1, 143481, Note_on_c, 0, 83, 83
1, 143484, Note_off_c, 0, 80, 64
1, 143484, Note_on_c, 0, 59, 52
1, 143491, Note_on_c, 0, 87, 51
1, 143491, Note_on_c, 0, 56, 48
1, 143503, Control_c, 0, 64, 127
1, 143522, Note_off_c, 0, 59, 64
1, 143541, Note_off_c, 0, 56, 64
1, 143575, Note_off_c, 0, 83, 64
1, 143631, Note_on_c, 0, 49, 83
1, 143631, Note_off_c, 0, 87, 64
1, 143668, Note_off_c, 0, 49, 64
1, 143684, Control_c, 0, 64, 0
1, 143776, Note_on_c, 0, 82, 64
1, 143776, Note_on_c, 0, 58, 50
1, 143776, Note_on_c, 0, 63, 70
1, 143781, Note_on_c, 0, 79, 73
1, 143829, Note_off_c, 0, 58, 64
1, 143832, Note_off_c, 0, 63, 64
1, 143840, Note_off_c, 0, 79, 64
1, 143874, Note_off_c, 0, 82, 64
1, 143874, Control_c, 0, 64, 127
1, 143924, Note_on_c, 0, 82, 57
1, 143938, Note_on_c, 0, 63, 57
1, 143938, Note_on_c, 0, 79, 56
1, 143946, Note_on_c, 0, 58, 31
1, 143996, Note_off_c, 0, 58, 64
1, 144001, Note_off_c, 0, 82, 64
1, 144021, Note_off_c, 0, 63, 64
1, 144076, Note_on_c, 0, 58, 28
1, 144091, Note_on_c, 0, 87, 44
1, 144091, Note_on_c, 0, 82, 37
1, 144105, Note_off_c, 0, 79, 64
1, 144115, Note_on_c, 0, 55, 21
1, 144133, Note_off_c, 0, 58, 64
1, 144147, Note_off_c, 0, 82, 64
1, 144151, Control_c, 0, 64, 0
1, 144155, Note_off_c, 0, 87, 64
1, 144161, Note_off_c, 0, 55, 64
1, 144244, Note_on_c, 0, 47, 65
1, 144278, Note_off_c, 0, 47, 64
1, 144332, Control_c, 0, 64, 127
1, 144405, Note_on_c, 0, 83, 85
1, 144414, Note_on_c, 0, 75, 61
1, 144417, Note_on_c, 0, 68, 37
1, 144420, Note_on_c, 0, 63, 33
1, 144443, Note_off_c, 0, 83, 64
1, 144456, Note_off_c, 0, 75, 64
1, 144467, Note_off_c, 0, 68, 64
1, 144470, Note_off_c, 0, 63, 64
1, 144559, Note_on_c, 0, 75, 53
1, 144562, Note_on_c, 0, 63, 39
1, 144562, Note_on_c, 0, 83, 91
1, 144567, Note_on_c, 0, 68, 34
1, 144608, Note_off_c, 0, 63, 64
1, 144617, Note_off_c, 0, 75, 64
1, 144617, Note_off_c, 0, 83, 64
1, 144662, Note_off_c, 0, 68, 64
1, 144707, Note_on_c, 0, 87, 49
1, 144712, Note_on_c, 0, 80, 51
1, 144720, Note_on_c, 0, 63, 45
1, 144725, Note_on_c, 0, 59, 25
1, 144757, Note_off_c, 0, 63, 64
1, 144767, Note_off_c, 0, 80, 64
1, 144776, Note_off_c, 0, 59, 64
1, 144787, Note_off_c, 0, 87, 64
1, 144787, Control_c, 0, 64, 0
1, 144854, Note_on_c, 0, 49, 73
1, 144885, Note_off_c, 0, 49, 64
1, 144941, Control_c, 0, 64, 127
1, 145010, Note_on_c, 0, 81, 53
1, 145016, Note_on_c, 0, 73, 50
1, 145024, Note_on_c, 0, 69, 41
1, 145029, Note_on_c, 0, 64, 48
1, 145055, Note_off_c, 0, 81, 64
1, 145062, Note_off_c, 0, 73, 64
1, 145068, Note_off_c, 0, 64, 64
1, 145072, Note_off_c, 0, 69, 64
1, 145149, Note_on_c, 0, 81, 50
1, 145160, Note_on_c, 0, 73, 57
1, 145160, Note_on_c, 0, 64, 36
1, 145165, Note_on_c, 0, 69, 35
1, 145169, Control_c, 0, 64, 0
1, 145205, Note_off_c, 0, 64, 64
1, 145244, Note_off_c, 0, 73, 64
1, 145272, Note_off_c, 0, 69, 64
1, 145296, Note_off_c, 0, 81, 64
1, 145302, Control_c, 0, 64, 127
1, 145314, Note_on_c, 0, 85, 50
1, 145314, Note_on_c, 0, 64, 37
1, 145317, Note_on_c, 0, 61, 52
1, 145324, Note_on_c, 0, 76, 30
1, 145353, Note_off_c, 0, 64, 64
1, 145356, Note_off_c, 0, 61, 64
1, 145374, Note_off_c, 0, 76, 64
1, 145391, Note_off_c, 0, 85, 64
1, 145391, Control_c, 0, 64, 0
1, 145464, Note_on_c, 0, 51, 68
1, 145500, Note_off_c, 0, 51, 64
1, 145540, Control_c, 0, 64, 127
1, 145603, Note_on_c, 0, 80, 60
1, 145608, Note_on_c, 0, 71, 63
1, 145615, Note_on_c, 0, 68, 43
1, 145620, Note_on_c, 0, 63, 39
1, 145653, Note_off_c, 0, 71, 64
1, 145659, Note_off_c, 0, 68, 64
1, 145664, Note_off_c, 0, 63, 64
1, 145667, Note_off_c, 0, 80, 64
1, 145757, Control_c, 0, 64, 0
1, 145762, Note_on_c, 0, 71, 52
1, 145762, Note_on_c, 0, 80, 58
1, 145762, Note_on_c, 0, 68, 47
1, 145770, Note_on_c, 0, 63, 25
1, 145818, Note_off_c, 0, 63, 64
1, 145884, Note_off_c, 0, 68, 64
1, 145900, Note_off_c, 0, 71, 64
1, 145913, Control_c, 0, 64, 127
1, 145926, Note_off_c, 0, 80, 64
1, 145937, Note_on_c, 0, 75, 43
1, 145937, Note_on_c, 0, 59, 13
1, 145937, Note_on_c, 0, 63, 33
1, 145943, Note_on_c, 0, 83, 67
1, 145980, Note_off_c, 0, 59, 64
1, 145998, Note_off_c, 0, 75, 64
1, 146005, Note_off_c, 0, 63, 64
1, 146013, Note_off_c, 0, 83, 64
1, 146093, Note_on_c, 0, 51, 52
1, 146135, Note_off_c, 0, 51, 64
1, 146200, Control_c, 0, 64, 0
1, 146252, Note_on_c, 0, 70, 41
1, 146256, Note_on_c, 0, 79, 63
1, 146260, Note_on_c, 0, 67, 48
1, 146260, Note_on_c, 0, 61, 38
1, 146311, Note_off_c, 0, 70, 64
1, 146311, Note_off_c, 0, 67, 64
1, 146321, Note_off_c, 0, 61, 64
1, 146324, Note_off_c, 0, 79, 64
1, 146380, Control_c, 0, 64, 127
1, 146433, Note_on_c, 0, 70, 35
1, 146433, Note_on_c, 0, 67, 37
1, 146436, Note_on_c, 0, 79, 49
1, 146436, Note_on_c, 0, 61, 35
1, 146484, Note_off_c, 0, 70, 64
1, 146489, Note_off_c, 0, 67, 64
1, 146494, Note_off_c, 0, 61, 64
1, 146611, Note_on_c, 0, 82, 44
1, 146611, Note_off_c, 0, 79, 64
1, 146629, Note_on_c, 0, 73, 26
1, 146629, Note_on_c, 0, 58, 28
1, 146632, Note_on_c, 0, 61, 19
1, 146681, Note_off_c, 0, 58, 64
1, 146684, Note_off_c, 0, 61, 64
1, 146709, Note_off_c, 0, 73, 64
1, 146823, Control_c, 0, 64, 0
1, 146846, Note_on_c, 0, 80, 50
1, 146857, Note_on_c, 0, 44, 38
1, 146868, Note_off_c, 0, 82, 64
1, 146868, Note_on_c, 0, 71, 36
1, 146944, Note_on_c, 0, 56, 34
1, 147002, Note_off_c, 0, 56, 64
1, 147040, Note_off_c, 0, 44, 64
1, 147040, Note_on_c, 0, 51, 31
1, 147076, Control_c, 0, 64, 127
1, 147094, Note_off_c, 0, 51, 64
1, 147121, Note_on_c, 0, 56, 30
1, 147172, Note_off_c, 0, 56, 64
1, 147189, Note_off_c, 0, 71, 64
1, 147197, Note_on_c, 0, 44, 45
1, 147246, Note_off_c, 0, 80, 64
1, 147246, Note_off_c, 0, 44, 64
1, 147280, Note_on_c, 0, 56, 29
1, 147334, Note_off_c, 0, 56, 64
1, 147369, Note_on_c, 0, 51, 32
1, 147417, Note_off_c, 0, 51, 64
1, 147431, Note_on_c, 0, 56, 38
1, 147487, Note_off_c, 0, 56, 64
1, 147515, Note_on_c, 0, 44, 47
1, 147561, Note_off_c, 0, 44, 64
1, 147595, Note_on_c, 0, 56, 36
1, 147650, Note_off_c, 0, 56, 64
1, 147700, Note_on_c, 0, 51, 20
1, 147757, Note_off_c, 0, 51, 64
1, 147765, Note_on_c, 0, 56, 42
1, 147817, Note_off_c, 0, 56, 64
1, 147823, Note_on_c, 0, 71, 77
1, 147842, Note_on_c, 0, 44, 52
1, 147896, Note_off_c, 0, 44, 64
1, 147940, Note_on_c, 0, 56, 42
1, 147994, Note_off_c, 0, 56, 64
1, 148051, Note_on_c, 0, 51, 24
1, 148108, Note_off_c, 0, 51, 64
1, 148111, Note_on_c, 0, 56, 50
1, 148111, Note_on_c, 0, 68, 59
1, 148111, Note_off_c, 0, 71, 64
1, 148161, Note_off_c, 0, 68, 64
1, 148202, Note_on_c, 0, 67, 69
1, 148205, Note_off_c, 0, 56, 64
1, 148214, Note_on_c, 0, 44, 44
1, 148214, Control_c, 0, 64, 0
1, 148302, Note_on_c, 0, 58, 33
1, 148375, Note_off_c, 0, 58, 64
1, 148386, Note_on_c, 0, 51, 44
1, 148394, Note_off_c, 0, 44, 64
1, 148394, Control_c, 0, 64, 127
1, 148439, Note_off_c, 0, 67, 64
1, 148444, Note_off_c, 0, 51, 64
1, 148467, Note_on_c, 0, 58, 22
1, 148540, Note_on_c, 0, 75, 68
1, 148540, Note_on_c, 0, 61, 43
1, 148545, Note_off_c, 0, 58, 64
1, 148556, Note_on_c, 0, 67, 29
1, 148562, Note_on_c, 0, 44, 48
1, 148586, Control_c, 0, 64, 0
1, 148636, Note_off_c, 0, 44, 64
1, 148639, Note_on_c, 0, 58, 27
1, 148701, Note_off_c, 0, 75, 64
1, 148706, Note_off_c, 0, 67, 64
1, 148709, Note_off_c, 0, 58, 64
1, 148717, Control_c, 0, 64, 127
1, 148726, Note_on_c, 0, 51, 33
1, 148726, Note_off_c, 0, 61, 64
1, 148792, Note_off_c, 0, 51, 64
1, 148792, Note_on_c, 0, 58, 23
1, 148876, Note_off_c, 0, 58, 64
1, 148876, Note_on_c, 0, 75, 63
1, 148887, Note_on_c, 0, 61, 49
1, 148896, Note_on_c, 0, 67, 41
1, 148899, Note_on_c, 0, 44, 46
1, 148952, Note_off_c, 0, 44, 64
1, 148974, Note_off_c, 0, 67, 64
1, 148993, Note_off_c, 0, 61, 64
1, 148996, Note_on_c, 0, 58, 31
1, 149015, Note_off_c, 0, 75, 64
1, 149052, Note_off_c, 0, 58, 64
1, 149074, Note_on_c, 0, 51, 35
1, 149129, Note_off_c, 0, 51, 64
1, 149143, Note_on_c, 0, 58, 21
1, 149208, Control_c, 0, 64, 0
1, 149221, Note_off_c, 0, 58, 64
1, 149221, Note_on_c, 0, 75, 56
1, 149221, Note_on_c, 0, 61, 50
1, 149236, Note_on_c, 0, 44, 44
1, 149242, Note_on_c, 0, 67, 45
1, 149294, Note_off_c, 0, 44, 64
1, 149313, Note_on_c, 0, 58, 26
1, 149342, Note_off_c, 0, 75, 64
1, 149342, Control_c, 0, 64, 127
1, 149363, Note_off_c, 0, 61, 64
1, 149367, Note_off_c, 0, 58, 64
1, 149394, Note_off_c, 0, 67, 64
1, 149406, Note_on_c, 0, 51, 24
1, 149464, Note_off_c, 0, 51, 64
1, 149464, Note_on_c, 0, 58, 20
1, 149483, Note_on_c, 0, 59, 52
1, 149517, Note_off_c, 0, 59, 64
1, 149521, Note_off_c, 0, 58, 64
1, 149521, Note_on_c, 0, 68, 24
1, 149575, Note_on_c, 0, 44, 39
1, 149628, Control_c, 0, 64, 0
1, 149645, Note_on_c, 0, 75, 64
1, 149664, Note_on_c, 0, 56, 37
1, 149746, Note_off_c, 0, 56, 64
1, 149781, Note_on_c, 0, 51, 40
1, 149796, Control_c, 0, 64, 127
1, 149824, Note_off_c, 0, 44, 64
1, 149849, Note_off_c, 0, 51, 64
1, 149877, Note_on_c, 0, 56, 36
1, 149932, Note_off_c, 0, 56, 64
1, 149952, Note_on_c, 0, 44, 46
1, 150018, Note_off_c, 0, 44, 64
1, 150038, Note_on_c, 0, 56, 28
1, 150038, Note_off_c, 0, 75, 64
1, 150046, Note_off_c, 0, 68, 64
1, 150096, Note_off_c, 0, 56, 64
1, 150122, Note_on_c, 0, 51, 38
1, 150174, Note_off_c, 0, 51, 64
1, 150206, Note_on_c, 0, 56, 27
1, 150264, Note_off_c, 0, 56, 64
1, 150278, Note_on_c, 0, 44, 48
1, 150325, Note_off_c, 0, 44, 64
1, 150358, Note_on_c, 0, 56, 26
1, 150423, Note_off_c, 0, 56, 64
1, 150465, Note_on_c, 0, 51, 25
1, 150525, Note_off_c, 0, 51, 64
1, 150534, Note_on_c, 0, 56, 41
1, 150587, Note_off_c, 0, 56, 64
1, 150593, Note_on_c, 0, 83, 101
1, 150612, Note_on_c, 0, 44, 52
1, 150657, Note_off_c, 0, 44, 64
1, 150696, Note_on_c, 0, 56, 38
1, 150751, Note_off_c, 0, 56, 64
1, 150785, Note_on_c, 0, 51, 38
1, 150840, Note_off_c, 0, 51, 64
1, 150874, Note_off_c, 0, 83, 64
1, 150877, Note_on_c, 0, 56, 47
1, 150899, Note_on_c, 0, 80, 72
1, 150946, Note_off_c, 0, 80, 64
1, 150968, Note_off_c, 0, 56, 64
1, 150991, Note_on_c, 0, 44, 50
1, 150991, Note_on_c, 0, 79, 77
1, 151030, Control_c, 0, 64, 0
1, 151086, Note_on_c, 0, 58, 41
1, 151164, Note_off_c, 0, 58, 64
1, 151181, Note_off_c, 0, 44, 64
1, 151181, Note_on_c, 0, 51, 40
1, 151197, Control_c, 0, 64, 127
1, 151222, Note_off_c, 0, 79, 64
1, 151241, Note_off_c, 0, 51, 64
1, 151249, Note_on_c, 0, 58, 26
1, 151320, Note_off_c, 0, 58, 64
1, 151333, Note_on_c, 0, 87, 59
1, 151339, Note_on_c, 0, 73, 38
1, 151348, Note_on_c, 0, 44, 43
1, 151369, Note_on_c, 0, 79, 30
1, 151395, Note_off_c, 0, 44, 64
1, 151431, Note_off_c, 0, 79, 64
1, 151434, Note_on_c, 0, 58, 32
1, 151481, Note_off_c, 0, 87, 64
1, 151481, Note_off_c, 0, 73, 64
1, 151492, Note_off_c, 0, 58, 64
1, 151512, Note_on_c, 0, 51, 35
1, 151568, Note_off_c, 0, 51, 64
1, 151592, Note_on_c, 0, 58, 25
1, 151649, Note_off_c, 0, 58, 64
1, 151659, Note_on_c, 0, 87, 72
1, 151668, Note_on_c, 0, 73, 47
1, 151673, Note_on_c, 0, 79, 61
1, 151679, Note_on_c, 0, 44, 48
1, 151724, Note_off_c, 0, 44, 64
1, 151741, Note_off_c, 0, 79, 64
1, 151749, Note_on_c, 0, 58, 36
1, 151795, Note_off_c, 0, 73, 64
1, 151804, Note_off_c, 0, 58, 64
1, 151826, Note_off_c, 0, 87, 64
1, 151832, Note_on_c, 0, 51, 40
1, 151890, Note_off_c, 0, 51, 64
1, 151899, Note_on_c, 0, 58, 34
1, 151955, Note_off_c, 0, 58, 64
1, 151975, Note_on_c, 0, 87, 79
1, 151982, Note_on_c, 0, 44, 53
1, 151985, Note_on_c, 0, 73, 51
1, 151985, Note_on_c, 0, 79, 67
1, 152027, Note_off_c, 0, 44, 64
1, 152057, Note_on_c, 0, 58, 31
1, 152074, Note_off_c, 0, 73, 64
1, 152099, Note_off_c, 0, 87, 64
1, 152108, Note_off_c, 0, 58, 64
1, 152121, Note_on_c, 0, 51, 50
1, 152153, Note_off_c, 0, 79, 64
1, 152175, Note_off_c, 0, 51, 64
1, 152180, Note_on_c, 0, 58, 29
1, 152230, Note_off_c, 0, 58, 64
1, 152264, Control_c, 0, 64, 0
1, 152270, Note_on_c, 0, 44, 62
1, 152297, Note_on_c, 0, 71, 74
1, 152334, Note_off_c, 0, 71, 64
1, 152367, Note_on_c, 0, 80, 52
1, 152367, Note_on_c, 0, 56, 50
1, 152390, Note_off_c, 0, 44, 64
1, 152397, Control_c, 0, 64, 127
1, 152440, Note_on_c, 0, 87, 76
1, 152451, Note_off_c, 0, 56, 64
1, 152475, Note_on_c, 0, 51, 36
1, 152523, Note_off_c, 0, 51, 64
1, 152557, Note_on_c, 0, 56, 45
1, 152607, Note_off_c, 0, 56, 64
1, 152629, Note_on_c, 0, 44, 55
1, 152677, Note_off_c, 0, 44, 64
1, 152685, Note_off_c, 0, 80, 64
1, 152709, Note_on_c, 0, 56, 29
1, 152762, Note_off_c, 0, 56, 64
1, 152780, Note_off_c, 0, 87, 64
1, 152783, Note_on_c, 0, 51, 36
1, 152833, Note_on_c, 0, 56, 39
1, 152843, Note_off_c, 0, 51, 64
1, 152888, Note_off_c, 0, 56, 64
1, 152918, Note_on_c, 0, 73, 65
1, 152922, Note_on_c, 0, 44, 57
1, 152922, Control_c, 0, 64, 0
1, 152983, Note_off_c, 0, 73, 64
1, 152994, Note_on_c, 0, 79, 70
1, 153008, Note_on_c, 0, 58, 39
1, 153043, Note_off_c, 0, 44, 64
1, 153043, Control_c, 0, 64, 127
1, 153047, Note_on_c, 0, 87, 69
1, 153066, Note_off_c, 0, 58, 64
1, 153097, Note_on_c, 0, 51, 27
1, 153142, Note_off_c, 0, 79, 64
1, 153155, Note_off_c, 0, 51, 64
1, 153164, Note_on_c, 0, 58, 26
1, 153227, Note_off_c, 0, 58, 64
1, 153227, Note_on_c, 0, 44, 55
1, 153247, Note_off_c, 0, 87, 64
1, 153283, Note_off_c, 0, 44, 64
1, 153314, Note_on_c, 0, 58, 22
1, 153372, Note_off_c, 0, 58, 64
1, 153397, Note_on_c, 0, 51, 35
1, 153437, Note_on_c, 0, 58, 36
1, 153450, Note_off_c, 0, 51, 64
1, 153496, Note_off_c, 0, 58, 64
1, 153535, Control_c, 0, 64, 0
1, 153540, Note_on_c, 0, 44, 55
1, 153557, Note_on_c, 0, 71, 52
1, 153598, Note_off_c, 0, 71, 64
1, 153604, Note_off_c, 0, 44, 64
1, 153604, Note_on_c, 0, 80, 48
1, 153629, Note_on_c, 0, 56, 47
1, 153654, Control_c, 0, 64, 127
1, 153693, Note_off_c, 0, 56, 64
1, 153693, Note_on_c, 0, 87, 55
1, 153730, Note_on_c, 0, 51, 34
1, 153782, Note_off_c, 0, 51, 64
1, 153819, Note_on_c, 0, 56, 32
1, 153874, Note_off_c, 0, 56, 64
1, 153888, Note_on_c, 0, 44, 39
1, 153938, Note_off_c, 0, 44, 64
1, 153957, Note_on_c, 0, 56, 29
1, 154002, Note_off_c, 0, 87, 64
1, 154016, Note_off_c, 0, 56, 64
1, 154025, Note_off_c, 0, 80, 64
1, 154072, Note_on_c, 0, 51, 18
1, 154133, Note_off_c, 0, 51, 64
1, 154133, Note_on_c, 0, 56, 31
1, 154189, Note_off_c, 0, 56, 64
1, 154219, Control_c, 0, 64, 0
1, 154219, Note_on_c, 0, 44, 44
1, 154241, Note_on_c, 0, 73, 36
1, 154295, Note_off_c, 0, 73, 64
1, 154306, Note_on_c, 0, 58, 29
1, 154334, Note_on_c, 0, 79, 41
1, 154337, Control_c, 0, 64, 127
1, 154362, Note_off_c, 0, 44, 64
1, 154365, Note_off_c, 0, 58, 64
1, 154384, Note_on_c, 0, 87, 46
1, 154390, Note_off_c, 0, 79, 64
1, 154393, Note_on_c, 0, 51, 23
1, 154450, Note_on_c, 0, 58, 13
1, 154456, Note_off_c, 0, 51, 64
1, 154495, Note_off_c, 0, 87, 64
1, 154528, Note_on_c, 0, 44, 51
1, 154532, Note_off_c, 0, 58, 64
1, 154584, Note_off_c, 0, 44, 64
1, 154598, Note_on_c, 0, 58, 23
1, 154662, Note_off_c, 0, 58, 64
1, 154693, Note_on_c, 0, 51, 32
1, 154737, Note_on_c, 0, 58, 28
1, 154751, Note_off_c, 0, 51, 64
1, 154789, Note_off_c, 0, 58, 64
1, 154805, Control_c, 0, 64, 0
1, 154816, Note_on_c, 0, 59, 36
1, 154833, Note_on_c, 0, 44, 46
1, 154883, Note_on_c, 0, 68, 37
1, 154911, Note_off_c, 0, 44, 64
1, 154921, Note_on_c, 0, 56, 37
1, 154943, Note_off_c, 0, 68, 64
1, 154961, Control_c, 0, 64, 127
1, 154971, Note_off_c, 0, 59, 64
1, 154971, Note_off_c, 0, 56, 64
1, 154975, Note_on_c, 0, 63, 34
1, 154996, Note_on_c, 0, 51, 29
1, 155024, Note_off_c, 0, 63, 64
1, 155030, Note_on_c, 0, 68, 25
1, 155052, Note_off_c, 0, 51, 64
1, 155072, Note_on_c, 0, 56, 32
1, 155092, Note_off_c, 0, 68, 64
1, 155124, Note_on_c, 0, 59, 40
1, 155124, Note_off_c, 0, 56, 64
1, 155134, Note_on_c, 0, 44, 46
1, 155173, Note_off_c, 0, 59, 64
1, 155184, Note_off_c, 0, 44, 64
1, 155197, Note_on_c, 0, 56, 33
1, 155197, Note_on_c, 0, 68, 24
1, 155248, Note_off_c, 0, 68, 64
1, 155261, Note_off_c, 0, 56, 64
1, 155269, Note_on_c, 0, 63, 38
1, 155298, Note_on_c, 0, 51, 29
1, 155314, Note_off_c, 0, 63, 64
1, 155314, Note_on_c, 0, 68, 34
1, 155351, Note_off_c, 0, 51, 64
1, 155356, Note_on_c, 0, 56, 38
1, 155383, Note_off_c, 0, 68, 64
1, 155403, Note_off_c, 0, 56, 64
1, 155409, Note_on_c, 0, 59, 41
1, 155432, Note_on_c, 0, 44, 42
1, 155468, Note_on_c, 0, 68, 33
1, 155478, Note_off_c, 0, 59, 64
1, 155478, Note_off_c, 0, 44, 64
1, 155496, Note_on_c, 0, 56, 37
1, 155528, Note_off_c, 0, 68, 64
1, 155549, Note_off_c, 0, 56, 64
1, 155549, Note_on_c, 0, 63, 41
1, 155576, Note_on_c, 0, 51, 31
1, 155593, Note_off_c, 0, 63, 64
1, 155607, Note_on_c, 0, 68, 36
1, 155626, Note_off_c, 0, 51, 64
1, 155638, Note_on_c, 0, 56, 37
1, 155685, Note_off_c, 0, 56, 64
1, 155688, Note_off_c, 0, 68, 64
1, 155691, Note_on_c, 0, 44, 58
1, 155699, Note_on_c, 0, 59, 54
1, 155730, Note_off_c, 0, 44, 64
1, 155751, Note_on_c, 0, 56, 47
1, 155758, Note_on_c, 0, 68, 42
1, 155773, Note_off_c, 0, 59, 64
1, 155819, Note_off_c, 0, 56, 64
1, 155840, Note_on_c, 0, 63, 62
1, 155840, Note_on_c, 0, 51, 50
1, 155849, Note_off_c, 0, 68, 64
1, 155875, Note_on_c, 0, 56, 59
1, 155886, Note_off_c, 0, 51, 64
1, 155891, Note_off_c, 0, 63, 64
1, 155896, Note_on_c, 0, 68, 69
1, 155921, Note_off_c, 0, 56, 64
1, 155944, Control_c, 0, 64, 0
1, 155963, Note_on_c, 0, 44, 66
1, 155968, Note_off_c, 0, 68, 64
1, 155972, Note_on_c, 0, 60, 58
1, 156013, Note_off_c, 0, 44, 64
1, 156033, Note_on_c, 0, 66, 53
1, 156033, Note_on_c, 0, 54, 65
1, 156097, Note_off_c, 0, 60, 64
1, 156097, Note_off_c, 0, 54, 64
1, 156097, Control_c, 0, 64, 127
1, 156102, Note_on_c, 0, 63, 65
1, 156102, Note_on_c, 0, 51, 55
1, 156127, Note_off_c, 0, 66, 64
1, 156166, Note_off_c, 0, 51, 64
1, 156166, Note_on_c, 0, 54, 59
1, 156172, Note_off_c, 0, 63, 64
1, 156180, Note_on_c, 0, 66, 67
1, 156214, Note_off_c, 0, 54, 64
1, 156220, Note_off_c, 0, 66, 64
1, 156230, Note_on_c, 0, 44, 68
1, 156236, Note_on_c, 0, 60, 72
1, 156278, Note_off_c, 0, 44, 64
1, 156289, Note_on_c, 0, 54, 67
1, 156312, Note_on_c, 0, 66, 65
1, 156326, Note_off_c, 0, 60, 64
1, 156359, Note_off_c, 0, 66, 64
1, 156364, Note_off_c, 0, 54, 64
1, 156372, Note_on_c, 0, 51, 67
1, 156379, Note_on_c, 0, 63, 78
1, 156425, Note_off_c, 0, 63, 64
1, 156434, Note_on_c, 0, 54, 64
1, 156445, Note_off_c, 0, 51, 64
1, 156445, Note_on_c, 0, 66, 69
1, 156490, Note_off_c, 0, 54, 64
1, 156490, Note_off_c, 0, 66, 64
1, 156512, Note_on_c, 0, 44, 79
1, 156512, Note_on_c, 0, 60, 87
1, 156574, Note_on_c, 0, 54, 69
1, 156581, Note_on_c, 0, 66, 74
1, 156592, Note_off_c, 0, 60, 64
1, 156601, Note_off_c, 0, 44, 64
1, 156646, Note_on_c, 0, 63, 85
1, 156646, Note_off_c, 0, 54, 64
1, 156659, Note_off_c, 0, 66, 64
1, 156659, Note_on_c, 0, 51, 72
1, 156716, Note_on_c, 0, 66, 71
1, 156724, Note_on_c, 0, 54, 77
1, 156735, Note_off_c, 0, 63, 64
1, 156758, Note_off_c, 0, 51, 64
1, 156799, Note_off_c, 0, 54, 64
1, 156799, Note_on_c, 0, 60, 86
1, 156808, Note_off_c, 0, 66, 64
1, 156811, Note_on_c, 0, 44, 86
1, 156858, Note_on_c, 0, 66, 65
1, 156865, Note_on_c, 0, 54, 71
1, 156889, Note_off_c, 0, 60, 64
1, 156914, Note_off_c, 0, 44, 64
1, 156944, Note_on_c, 0, 63, 76
1, 156950, Note_off_c, 0, 54, 64
1, 156950, Note_on_c, 0, 51, 53
1, 156958, Note_off_c, 0, 66, 64
1, 157005, Note_on_c, 0, 66, 73
1, 157005, Note_on_c, 0, 44, 41
1, 157008, Note_on_c, 0, 54, 83
1, 157013, Note_off_c, 0, 63, 64
1, 157039, Note_off_c, 0, 54, 64
1, 157039, Note_off_c, 0, 51, 64
1, 157042, Note_off_c, 0, 66, 64
1, 157053, Note_off_c, 0, 44, 64
1, 157206, Note_on_c, 0, 53, 116
1, 157206, Note_on_c, 0, 61, 79
1, 157211, Note_on_c, 0, 56, 72
1, 157211, Note_on_c, 0, 37, 106
1, 157211, Note_on_c, 0, 65, 60
1, 157226, Note_off_c, 0, 53, 64
1, 157236, Note_off_c, 0, 61, 64
1, 157245, Note_off_c, 0, 56, 64
1, 157248, Note_off_c, 0, 65, 64
1, 157278, Note_off_c, 0, 37, 64
1, 157340, Note_on_c, 0, 49, 84
1, 157368, Note_on_c, 0, 44, 92
1, 157384, Note_on_c, 0, 53, 80
1, 157395, Control_c, 0, 64, 0
1, 157417, Note_off_c, 0, 44, 64
1, 157425, Note_off_c, 0, 49, 64
1, 157448, Note_on_c, 0, 56, 73
1, 157489, Note_off_c, 0, 53, 64
1, 157515, Note_on_c, 0, 37, 80
1, 157515, Note_on_c, 0, 61, 84
1, 157554, Note_off_c, 0, 37, 64
1, 157554, Note_off_c, 0, 56, 64
1, 157590, Note_on_c, 0, 53, 93
1, 157601, Note_off_c, 0, 61, 64
1, 157641, Note_on_c, 0, 44, 75
1, 157651, Note_on_c, 0, 56, 70
1, 157666, Note_off_c, 0, 53, 64
1, 157693, Note_off_c, 0, 44, 64
1, 157707, Note_on_c, 0, 61, 59
1, 157740, Note_off_c, 0, 56, 64
1, 157772, Note_on_c, 0, 65, 71
1, 157782, Note_on_c, 0, 37, 78
1, 157819, Note_off_c, 0, 61, 64
1, 157819, Note_off_c, 0, 65, 64
1, 157829, Note_off_c, 0, 37, 64
1, 157841, Note_on_c, 0, 56, 86
1, 157900, Note_on_c, 0, 44, 70
1, 157900, Note_on_c, 0, 61, 66
1, 157938, Note_off_c, 0, 56, 64
1, 157953, Note_off_c, 0, 44, 64
1, 157958, Note_on_c, 0, 65, 64
1, 158021, Note_off_c, 0, 61, 64
1, 158038, Note_on_c, 0, 37, 75
1, 158038, Note_on_c, 0, 68, 75
1, 158077, Note_off_c, 0, 65, 64
1, 158077, Note_off_c, 0, 37, 64
1, 158103, Note_on_c, 0, 61, 69
1, 158139, Note_off_c, 0, 68, 64
1, 158161, Note_on_c, 0, 44, 70
1, 158172, Note_on_c, 0, 65, 59
1, 158201, Note_off_c, 0, 61, 64
1, 158209, Note_off_c, 0, 44, 64
1, 158237, Note_on_c, 0, 68, 69
1, 158278, Note_off_c, 0, 65, 64
1, 158292, Note_on_c, 0, 37, 75
1, 158298, Note_on_c, 0, 73, 78
1, 158326, Note_off_c, 0, 68, 64
1, 158336, Note_off_c, 0, 37, 64
1, 158354, Note_on_c, 0, 65, 50
1, 158382, Note_off_c, 0, 73, 64
1, 158409, Note_on_c, 0, 68, 68
1, 158409, Note_on_c, 0, 44, 70
1, 158435, Note_off_c, 0, 65, 64
1, 158467, Note_off_c, 0, 44, 64
1, 158489, Note_on_c, 0, 73, 76
1, 158518, Note_off_c, 0, 68, 64
1, 158542, Note_on_c, 0, 37, 76
1, 158552, Note_on_c, 0, 77, 74
1, 158562, Note_off_c, 0, 73, 64
1, 158581, Note_off_c, 0, 77, 64
1, 158601, Note_on_c, 0, 68, 75
1, 158616, Note_off_c, 0, 37, 64
1, 158668, Note_on_c, 0, 44, 75
1, 158687, Note_on_c, 0, 73, 50
1, 158696, Note_off_c, 0, 68, 64
1, 158724, Note_on_c, 0, 77, 60
1, 158724, Note_off_c, 0, 73, 64
1, 158732, Note_off_c, 0, 44, 64
1, 158788, Note_on_c, 0, 37, 85
1, 158788, Note_on_c, 0, 80, 80
1, 158811, Note_off_c, 0, 77, 64
1, 158836, Note_on_c, 0, 73, 78
1, 158860, Note_off_c, 0, 80, 64
1, 158872, Note_off_c, 0, 37, 64
1, 158903, Note_on_c, 0, 77, 65
1, 158927, Note_on_c, 0, 44, 79
1, 158927, Note_off_c, 0, 73, 64
1, 158963, Note_on_c, 0, 80, 85
1, 158988, Note_off_c, 0, 80, 64
1, 158988, Note_off_c, 0, 44, 64
1, 159006, Note_off_c, 0, 77, 64
1, 159031, Note_on_c, 0, 80, 83
1, 159031, Note_on_c, 0, 49, 106
1, 159034, Note_on_c, 0, 85, 107
1, 159034, Note_on_c, 0, 73, 106
1, 159038, Note_on_c, 0, 37, 95
1, 159041, Note_on_c, 0, 77, 106
1, 159095, Control_c, 0, 64, 127
1, 159123, Note_off_c, 0, 85, 64
1, 159133, Note_off_c, 0, 49, 64
1, 159137, Note_off_c, 0, 73, 64
1, 159137, Note_off_c, 0, 80, 64
1, 159145, Note_off_c, 0, 77, 64
1, 159153, Note_off_c, 0, 37, 64
1, 159178, Note_on_c, 0, 44, 86
1, 159178, Note_on_c, 0, 73, 81
1, 159178, Note_on_c, 0, 80, 83
1, 159186, Note_on_c, 0, 85, 43
1, 159197, Note_on_c, 0, 77, 71
1, 159211, Note_off_c, 0, 80, 64
1, 159223, Note_off_c, 0, 77, 64
1, 159228, Note_off_c, 0, 85, 64
1, 159254, Note_off_c, 0, 73, 64
1, 159261, Note_off_c, 0, 44, 64
1, 159300, Control_c, 0, 64, 0
1, 159329, Note_on_c, 0, 35, 109
1, 159393, Note_off_c, 0, 35, 64
1, 159396, Note_on_c, 0, 49, 91
1, 159462, Note_on_c, 0, 44, 76
1, 159471, Note_on_c, 0, 53, 99
1, 159482, Note_off_c, 0, 49, 64
1, 159524, Note_on_c, 0, 56, 76
1, 159537, Note_off_c, 0, 44, 64
1, 159543, Note_off_c, 0, 53, 64
1, 159601, Note_on_c, 0, 61, 79
1, 159601, Note_on_c, 0, 35, 92
1, 159632, Note_off_c, 0, 56, 64
1, 159652, Note_off_c, 0, 35, 64
1, 159663, Note_on_c, 0, 53, 105
1, 159668, Note_off_c, 0, 61, 64
1, 159729, Note_on_c, 0, 44, 70
1, 159729, Note_on_c, 0, 56, 72
1, 159746, Note_off_c, 0, 53, 64
1, 159786, Note_on_c, 0, 61, 71
1, 159807, Note_off_c, 0, 44, 64
1, 159819, Note_off_c, 0, 56, 64
1, 159863, Note_on_c, 0, 65, 72
1, 159863, Note_on_c, 0, 35, 91
1, 159896, Note_off_c, 0, 61, 64
1, 159905, Note_off_c, 0, 65, 64
1, 159924, Note_off_c, 0, 35, 64
1, 159930, Note_on_c, 0, 56, 81
1, 159991, Note_on_c, 0, 61, 68
1, 159991, Note_on_c, 0, 44, 69
1, 160022, Note_off_c, 0, 56, 64
1, 160038, Note_on_c, 0, 65, 74
1, 160067, Note_off_c, 0, 44, 64
1, 160091, Note_off_c, 0, 61, 64
1, 160117, Note_on_c, 0, 68, 77
1, 160134, Note_on_c, 0, 35, 82
1, 160145, Note_off_c, 0, 65, 64
1, 160169, Note_on_c, 0, 61, 69
1, 160180, Note_off_c, 0, 35, 64
1, 160195, Note_off_c, 0, 68, 64
1, 160245, Note_on_c, 0, 65, 63
1, 160259, Note_on_c, 0, 44, 64
1, 160268, Note_off_c, 0, 61, 64
1, 160306, Note_on_c, 0, 68, 73
1, 160328, Note_off_c, 0, 44, 64
1, 160328, Note_off_c, 0, 65, 64
1, 160379, Note_on_c, 0, 73, 74
1, 160396, Note_on_c, 0, 35, 84
1, 160412, Note_off_c, 0, 68, 64
1, 160437, Note_off_c, 0, 35, 64
1, 160451, Note_off_c, 0, 73, 64
1, 160451, Note_on_c, 0, 65, 64
1, 160509, Note_on_c, 0, 68, 69
1, 160523, Note_on_c, 0, 44, 68
1, 160541, Note_off_c, 0, 65, 64
1, 160584, Note_on_c, 0, 73, 62
1, 160584, Note_off_c, 0, 44, 64
1, 160610, Note_off_c, 0, 68, 64
1, 160649, Note_on_c, 0, 77, 71
1, 160657, Note_on_c, 0, 35, 79
1, 160671, Note_off_c, 0, 73, 64
1, 160679, Note_off_c, 0, 77, 64
1, 160702, Note_off_c, 0, 35, 64
1, 160708, Note_on_c, 0, 68, 87
1, 160766, Note_on_c, 0, 73, 66
1, 160788, Note_on_c, 0, 44, 64
1, 160804, Note_off_c, 0, 68, 64
1, 160832, Note_on_c, 0, 77, 58
1, 160832, Note_off_c, 0, 44, 64
1, 160872, Note_off_c, 0, 73, 64
1, 160897, Note_on_c, 0, 80, 78
1, 160905, Note_on_c, 0, 35, 77
1, 160921, Note_off_c, 0, 77, 64
1, 160933, Note_off_c, 0, 80, 64
1, 160938, Note_on_c, 0, 73, 66
1, 160980, Note_off_c, 0, 35, 64
1, 161014, Note_on_c, 0, 77, 63
1, 161023, Note_on_c, 0, 44, 73
1, 161059, Note_on_c, 0, 80, 76
1, 161064, Note_off_c, 0, 44, 64
1, 161064, Note_off_c, 0, 73, 64
1, 161091, Note_off_c, 0, 80, 64
1, 161100, Note_off_c, 0, 77, 64
1, 161137, Note_on_c, 0, 47, 103
1, 161137, Note_on_c, 0, 77, 110
1, 161137, Note_on_c, 0, 80, 85
1, 161137, Note_on_c, 0, 73, 101
1, 161140, Note_on_c, 0, 85, 108
1, 161145, Note_on_c, 0, 35, 105
1, 161181, Control_c, 0, 64, 127
1, 161236, Note_off_c, 0, 35, 64
1, 161243, Note_off_c, 0, 85, 64
1, 161246, Note_off_c, 0, 73, 64
1, 161256, Note_off_c, 0, 80, 64
1, 161264, Note_off_c, 0, 77, 64
1, 161292, Note_on_c, 0, 85, 81
1, 161298, Note_on_c, 0, 73, 77
1, 161298, Note_on_c, 0, 80, 75
1, 161309, Note_on_c, 0, 77, 78
1, 161314, Note_on_c, 0, 44, 81
1, 161317, Note_off_c, 0, 85, 64
1, 161328, Note_off_c, 0, 47, 64
1, 161348, Note_off_c, 0, 80, 64
1, 161348, Note_off_c, 0, 77, 64
1, 161360, Note_off_c, 0, 44, 64
1, 161384, Note_off_c, 0, 73, 64
1, 161470, Control_c, 0, 64, 0
1, 161487, Note_on_c, 0, 33, 101
1, 161565, Note_on_c, 0, 49, 76
1, 161599, Note_off_c, 0, 33, 64
1, 161615, Note_on_c, 0, 45, 69
1, 161627, Note_on_c, 0, 54, 82
1, 161649, Note_off_c, 0, 49, 64
1, 161672, Control_c, 0, 64, 127
1, 161680, Note_on_c, 0, 57, 65
1, 161694, Note_off_c, 0, 45, 64
1, 161727, Note_off_c, 0, 54, 64
1, 161755, Note_on_c, 0, 33, 85
1, 161755, Note_on_c, 0, 61, 77
1, 161772, Note_off_c, 0, 57, 64
1, 161786, Note_off_c, 0, 61, 64
1, 161825, Note_on_c, 0, 61, 78
1, 161863, Note_off_c, 0, 33, 64
1, 161889, Note_on_c, 0, 45, 61
1, 161900, Note_on_c, 0, 66, 67
1, 161910, Note_off_c, 0, 61, 64
1, 161970, Note_off_c, 0, 45, 64
1, 161974, Note_on_c, 0, 69, 55
1, 162017, Note_on_c, 0, 33, 77
1, 162017, Note_on_c, 0, 73, 79
1, 162030, Note_off_c, 0, 66, 64
1, 162044, Note_off_c, 0, 73, 64
1, 162055, Note_off_c, 0, 69, 64
1, 162087, Note_on_c, 0, 73, 67
1, 162112, Note_off_c, 0, 33, 64
1, 162151, Note_on_c, 0, 78, 70
1, 162179, Note_on_c, 0, 45, 63
1, 162203, Note_off_c, 0, 73, 64
1, 162209, Note_on_c, 0, 81, 76
1, 162234, Note_off_c, 0, 78, 64
1, 162234, Note_off_c, 0, 45, 64
1, 162251, Note_off_c, 0, 81, 64
1, 162287, Note_on_c, 0, 78, 88
1, 162290, Note_on_c, 0, 33, 107
1, 162290, Note_on_c, 0, 73, 105
1, 162295, Note_on_c, 0, 85, 103
1, 162381, Note_off_c, 0, 85, 64
1, 162399, Note_off_c, 0, 33, 64
1, 162404, Note_off_c, 0, 73, 64
1, 162404, Note_off_c, 0, 78, 64
1, 162442, Note_on_c, 0, 85, 75
1, 162445, Note_on_c, 0, 78, 90
1, 162448, Note_on_c, 0, 73, 84
1, 162451, Note_on_c, 0, 45, 81
1, 162471, Note_off_c, 0, 85, 64
1, 162479, Note_off_c, 0, 78, 64
1, 162526, Note_off_c, 0, 73, 64
1, 162534, Note_off_c, 0, 45, 64
1, 162630, Note_on_c, 0, 29, 115
1, 162704, Control_c, 0, 64, 0
1, 162730, Note_on_c, 0, 49, 82
1, 162802, Note_off_c, 0, 29, 64
1, 162802, Note_on_c, 0, 56, 75
1, 162813, Note_on_c, 0, 41, 81
1, 162816, Note_off_c, 0, 49, 64
1, 162858, Note_on_c, 0, 59, 81
1, 162892, Control_c, 0, 64, 127
1, 162911, Note_off_c, 0, 41, 64
1, 162914, Note_off_c, 0, 56, 64
1, 162941, Note_on_c, 0, 61, 76
1, 162941, Note_on_c, 0, 29, 100
1, 162972, Note_off_c, 0, 61, 64
1, 162972, Note_off_c, 0, 59, 64
1, 163016, Note_on_c, 0, 61, 73
1, 163059, Note_off_c, 0, 29, 64
1, 163073, Note_on_c, 0, 41, 79
1, 163103, Note_on_c, 0, 68, 77
1, 163125, Note_off_c, 0, 61, 64
1, 163134, Control_c, 0, 64, 0
1, 163181, Note_off_c, 0, 41, 64
1, 163181, Note_on_c, 0, 71, 84
1, 163220, Note_on_c, 0, 29, 93
1, 163236, Note_off_c, 0, 68, 64
1, 163236, Note_on_c, 0, 73, 83
1, 163265, Note_off_c, 0, 73, 64
1, 163265, Control_c, 0, 64, 127
1, 163273, Note_off_c, 0, 71, 64
1, 163307, Note_on_c, 0, 73, 75
1, 163353, Note_off_c, 0, 29, 64
1, 163387, Note_on_c, 0, 80, 84
1, 163387, Note_on_c, 0, 41, 78
1, 163420, Note_off_c, 0, 73, 64
1, 163449, Note_on_c, 0, 83, 103
1, 163460, Note_off_c, 0, 41, 64
1, 163471, Control_c, 0, 64, 0
1, 163485, Note_off_c, 0, 83, 64
1, 163493, Note_off_c, 0, 80, 64
1, 163527, Note_on_c, 0, 41, 85
1, 163530, Note_on_c, 0, 73, 104
1, 163530, Note_on_c, 0, 80, 99
1, 163530, Note_on_c, 0, 85, 100
1, 163534, Note_on_c, 0, 29, 102
1, 163534, Note_on_c, 0, 83, 106
1, 163596, Note_off_c, 0, 29, 64
1, 163607, Note_off_c, 0, 41, 64
1, 163621, Note_off_c, 0, 73, 64
1, 163626, Control_c, 0, 64, 127
1, 163661, Note_off_c, 0, 85, 64
1, 163666, Note_off_c, 0, 80, 64
1, 163666, Note_off_c, 0, 83, 64
1, 163674, Control_c, 0, 64, 0
1, 163739, Note_on_c, 0, 80, 66
1, 163743, Note_on_c, 0, 73, 90
1, 163743, Note_on_c, 0, 83, 108
1, 163749, Note_on_c, 0, 85, 85
1, 163755, Note_on_c, 0, 29, 97
1, 163755, Note_on_c, 0, 41, 94
1, 163782, Note_off_c, 0, 29, 64
1, 163782, Note_off_c, 0, 41, 64
1, 163830, Control_c, 0, 64, 127
1, 163830, Note_off_c, 0, 73, 64
1, 163867, Note_off_c, 0, 85, 64
1, 163894, Note_off_c, 0, 83, 64
1, 163897, Note_off_c, 0, 80, 64
1, 163938, Control_c, 0, 64, 0
1, 164022, Note_on_c, 0, 85, 103
1, 164022, Note_on_c, 0, 73, 90
1, 164026, Note_on_c, 0, 81, 95
1, 164026, Note_on_c, 0, 78, 86
1, 164041, Note_on_c, 0, 42, 90
1, 164041, Note_on_c, 0, 30, 86
1, 164070, Note_off_c, 0, 30, 64
1, 164076, Note_off_c, 0, 42, 64
1, 164129, Control_c, 0, 64, 127
1, 164133, Note_off_c, 0, 73, 64
1, 164161, Note_off_c, 0, 85, 64
1, 164167, Note_off_c, 0, 81, 64
1, 164167, Note_off_c, 0, 78, 64
1, 164246, Note_on_c, 0, 61, 39
1, 164315, Note_off_c, 0, 61, 64
1, 164356, Note_on_c, 0, 57, 34
1, 164415, Note_off_c, 0, 57, 64
1, 164448, Note_on_c, 0, 61, 39
1, 164526, Note_off_c, 0, 61, 64
1, 164549, Note_on_c, 0, 73, 88
1, 164582, Note_on_c, 0, 54, 38
1, 164596, Control_c, 0, 64, 0
1, 164671, Note_on_c, 0, 61, 36
1, 164738, Note_off_c, 0, 61, 64
1, 164755, Note_on_c, 0, 57, 32
1, 164782, Note_off_c, 0, 54, 64
1, 164824, Note_off_c, 0, 57, 64
1, 164824, Control_c, 0, 64, 127
1, 164841, Note_on_c, 0, 61, 23
1, 164914, Note_off_c, 0, 61, 64
1, 164925, Note_on_c, 0, 54, 38
1, 164984, Note_off_c, 0, 54, 64
1, 165000, Note_on_c, 0, 61, 26
1, 165094, Note_off_c, 0, 61, 64
1, 165118, Note_on_c, 0, 57, 23
1, 165179, Note_on_c, 0, 61, 31
1, 165179, Note_off_c, 0, 57, 64
1, 165250, Note_on_c, 0, 69, 67
1, 165250, Note_off_c, 0, 61, 64
1, 165312, Note_on_c, 0, 54, 33
1, 165328, Control_c, 0, 64, 0
1, 165331, Note_off_c, 0, 73, 64
1, 165388, Note_off_c, 0, 54, 64
1, 165393, Note_on_c, 0, 61, 23
1, 165454, Note_off_c, 0, 61, 64
1, 165459, Note_on_c, 0, 66, 54
1, 165459, Control_c, 0, 64, 127
1, 165473, Note_on_c, 0, 57, 28
1, 165524, Note_off_c, 0, 69, 64
1, 165544, Note_on_c, 0, 65, 62
1, 165547, Note_off_c, 0, 66, 64
1, 165547, Note_off_c, 0, 57, 64
1, 165576, Note_on_c, 0, 61, 18
1, 165605, Note_on_c, 0, 66, 55
1, 165605, Note_off_c, 0, 65, 64
1, 165657, Note_off_c, 0, 61, 64
1, 165657, Note_on_c, 0, 68, 62
1, 165679, Note_off_c, 0, 66, 64
1, 165688, Control_c, 0, 64, 0
1, 165699, Note_on_c, 0, 56, 31
1, 165728, Note_on_c, 0, 66, 72
1, 165780, Note_off_c, 0, 68, 64
1, 165799, Note_on_c, 0, 61, 27
1, 165881, Note_off_c, 0, 61, 64
1, 165903, Control_c, 0, 64, 127
1, 165922, Note_off_c, 0, 56, 64
1, 165941, Note_on_c, 0, 59, 12
1, 165995, Note_on_c, 0, 61, 22
1, 166012, Note_off_c, 0, 59, 64
1, 166064, Note_off_c, 0, 61, 64
1, 166100, Note_on_c, 0, 65, 51
1, 166109, Note_on_c, 0, 56, 21
1, 166167, Control_c, 0, 64, 0
1, 166181, Note_on_c, 0, 61, 29
1, 166225, Note_off_c, 0, 56, 64
1, 166225, Note_off_c, 0, 66, 64
1, 166242, Note_off_c, 0, 61, 64
1, 166271, Note_on_c, 0, 59, 31
1, 166335, Note_off_c, 0, 59, 64
1, 166335, Control_c, 0, 64, 127
1, 166342, Note_on_c, 0, 61, 29
1, 166404, Note_off_c, 0, 61, 64
1, 166434, Note_on_c, 0, 56, 37
1, 166490, Note_off_c, 0, 56, 64
1, 166498, Note_off_c, 0, 65, 64
1, 166512, Note_on_c, 0, 61, 38
1, 166572, Note_off_c, 0, 61, 64
1, 166572, Note_on_c, 0, 65, 57
1, 166621, Note_on_c, 0, 59, 21
1, 166677, Note_off_c, 0, 59, 64
1, 166699, Note_on_c, 0, 61, 29
1, 166752, Note_on_c, 0, 73, 62
1, 166752, Note_off_c, 0, 61, 64
1, 166766, Control_c, 0, 64, 0
1, 166769, Note_on_c, 0, 56, 40
1, 166786, Note_off_c, 0, 65, 64
1, 166850, Note_on_c, 0, 61, 28
1, 166914, Note_off_c, 0, 56, 64
1, 166922, Control_c, 0, 64, 127
1, 166944, Note_off_c, 0, 61, 64
1, 166961, Note_on_c, 0, 59, 30
1, 167026, Note_off_c, 0, 59, 64
1, 167026, Note_on_c, 0, 65, 62
1, 167062, Note_on_c, 0, 61, 33
1, 167078, Note_off_c, 0, 65, 64
1, 167123, Note_off_c, 0, 61, 64
1, 167132, Note_on_c, 0, 68, 55
1, 167190, Note_off_c, 0, 73, 64
1, 167253, Note_on_c, 0, 61, 32
1, 167310, Note_off_c, 0, 61, 64
1, 167310, Note_on_c, 0, 57, 26
1, 167329, Control_c, 0, 64, 0
1, 167381, Note_off_c, 0, 57, 64
1, 167391, Note_on_c, 0, 61, 37
1, 167474, Note_on_c, 0, 57, 21
1, 167477, Note_off_c, 0, 61, 64
1, 167485, Control_c, 0, 64, 127
1, 167515, Note_on_c, 0, 66, 43
1, 167532, Note_off_c, 0, 57, 64
1, 167547, Note_on_c, 0, 61, 39
1, 167621, Note_off_c, 0, 61, 64
1, 167632, Note_off_c, 0, 68, 64
1, 167653, Note_on_c, 0, 57, 17
1, 167664, Control_c, 0, 64, 0
1, 167710, Note_off_c, 0, 57, 64
1, 167721, Note_on_c, 0, 61, 40
1, 167795, Note_off_c, 0, 61, 64
1, 167795, Control_c, 0, 64, 127
1, 167814, Note_on_c, 0, 57, 18
1, 167873, Note_off_c, 0, 57, 64
1, 167892, Note_on_c, 0, 61, 40
1, 167895, Note_off_c, 0, 66, 64
1, 167958, Note_on_c, 0, 66, 49
1, 167972, Note_off_c, 0, 61, 64
1, 168000, Note_on_c, 0, 57, 26
1, 168053, Note_off_c, 0, 57, 64
1, 168086, Note_on_c, 0, 61, 35
1, 168140, Note_on_c, 0, 73, 67
1, 168143, Note_off_c, 0, 61, 64
1, 168157, Note_on_c, 0, 57, 25
1, 168181, Control_c, 0, 64, 0
1, 168193, Note_off_c, 0, 66, 64
1, 168220, Note_off_c, 0, 57, 64
1, 168235, Note_on_c, 0, 61, 38
1, 168299, Control_c, 0, 64, 127
1, 168310, Note_off_c, 0, 61, 64
1, 168310, Note_on_c, 0, 57, 29
1, 168374, Note_off_c, 0, 57, 64
1, 168379, Note_on_c, 0, 66, 51
1, 168385, Note_on_c, 0, 61, 43
1, 168468, Control_c, 0, 64, 0
1, 168471, Note_on_c, 0, 69, 59
1, 168471, Note_off_c, 0, 61, 64
1, 168493, Note_off_c, 0, 73, 64
1, 168501, Note_off_c, 0, 66, 64
1, 168501, Note_on_c, 0, 53, 54
1, 168552, Note_off_c, 0, 53, 64
1, 168563, Note_on_c, 0, 61, 41
1, 168636, Control_c, 0, 64, 127
1, 168655, Note_on_c, 0, 53, 52
1, 168660, Note_off_c, 0, 61, 64
1, 168713, Note_off_c, 0, 53, 64
1, 168736, Note_on_c, 0, 61, 35
1, 168833, Note_off_c, 0, 61, 64
1, 168833, Note_on_c, 0, 68, 55
1, 168866, Note_on_c, 0, 53, 29
1, 168911, Note_off_c, 0, 53, 64
1, 168911, Note_on_c, 0, 61, 34
1, 168917, Note_off_c, 0, 69, 64
1, 168947, Control_c, 0, 64, 0
1, 168989, Note_on_c, 0, 53, 50
1, 168998, Note_off_c, 0, 61, 64
1, 169056, Note_off_c, 0, 53, 64
1, 169067, Control_c, 0, 64, 127
1, 169073, Note_on_c, 0, 61, 32
1, 169156, Note_off_c, 0, 61, 64
1, 169176, Note_on_c, 0, 53, 44
1, 169204, Note_off_c, 0, 68, 64
1, 169221, Note_off_c, 0, 53, 64
1, 169245, Note_on_c, 0, 61, 32
1, 169302, Note_on_c, 0, 68, 55
1, 169327, Note_off_c, 0, 61, 64
1, 169362, Note_on_c, 0, 53, 43
1, 169410, Note_off_c, 0, 53, 64
1, 169437, Note_on_c, 0, 61, 37
1, 169505, Note_on_c, 0, 73, 52
1, 169522, Control_c, 0, 64, 0
1, 169527, Note_off_c, 0, 61, 64
1, 169541, Note_off_c, 0, 68, 64
1, 169563, Note_on_c, 0, 53, 42
1, 169610, Note_off_c, 0, 53, 64
1, 169614, Note_on_c, 0, 61, 29
1, 169666, Control_c, 0, 64, 127
1, 169691, Note_off_c, 0, 61, 64
1, 169691, Note_on_c, 0, 53, 40
1, 169756, Note_off_c, 0, 53, 64
1, 169777, Note_on_c, 0, 61, 23
1, 169791, Note_off_c, 0, 73, 64
1, 169791, Note_on_c, 0, 68, 40
1, 169834, Note_off_c, 0, 61, 64
1, 169859, Note_off_c, 0, 68, 64
1, 169883, Control_c, 0, 64, 0
1, 169909, Note_on_c, 0, 69, 33
1, 169914, Note_on_c, 0, 54, 44
1, 170022, Note_on_c, 0, 73, 35
1, 170025, Note_off_c, 0, 69, 64
1, 170086, Control_c, 0, 64, 127
1, 170090, Note_on_c, 0, 69, 28
1, 170090, Note_off_c, 0, 73, 64
1, 170100, Note_off_c, 0, 54, 64
1, 170170, Note_on_c, 0, 73, 38
1, 170195, Note_off_c, 0, 69, 64
1, 170246, Note_off_c, 0, 73, 64
1, 170256, Note_on_c, 0, 66, 39
1, 170271, Note_on_c, 0, 61, 66
1, 170334, Note_off_c, 0, 66, 64
1, 170360, Note_on_c, 0, 73, 28
1, 170423, Note_off_c, 0, 73, 64
1, 170446, Control_c, 0, 64, 0
1, 170451, Note_on_c, 0, 69, 32
1, 170508, Note_off_c, 0, 69, 64
1, 170521, Note_on_c, 0, 73, 38
1, 170593, Note_off_c, 0, 73, 64
1, 170608, Note_on_c, 0, 66, 28
1, 170625, Control_c, 0, 64, 127
1, 170667, Note_off_c, 0, 66, 64
1, 170675, Note_on_c, 0, 73, 33
1, 170778, Note_off_c, 0, 73, 64
1, 170786, Note_on_c, 0, 69, 23
1, 170836, Note_on_c, 0, 73, 42
1, 170847, Note_off_c, 0, 69, 64
1, 170931, Note_off_c, 0, 73, 64
1, 170942, Note_on_c, 0, 66, 32
1, 170956, Note_on_c, 0, 57, 55
1, 170989, Note_off_c, 0, 61, 64
1, 171012, Note_off_c, 0, 66, 64
1, 171020, Note_on_c, 0, 73, 28
1, 171128, Note_off_c, 0, 73, 64
1, 171146, Note_on_c, 0, 69, 28
1, 171243, Note_off_c, 0, 69, 64
1, 171252, Note_on_c, 0, 73, 36
1, 171255, Note_on_c, 0, 54, 78
1, 171265, Note_off_c, 0, 57, 64
1, 171304, Note_off_c, 0, 54, 64
1, 171321, Note_off_c, 0, 73, 64
1, 171351, Note_on_c, 0, 68, 40
1, 171380, Note_on_c, 0, 54, 60
1, 171447, Note_on_c, 0, 73, 47
1, 171476, Control_c, 0, 64, 0
1, 171483, Note_off_c, 0, 68, 64
1, 171535, Note_off_c, 0, 73, 64
1, 171553, Note_on_c, 0, 71, 49
1, 171617, Note_on_c, 0, 73, 36
1, 171636, Note_off_c, 0, 71, 64
1, 171667, Control_c, 0, 64, 127
1, 171699, Note_off_c, 0, 73, 64
1, 171710, Note_on_c, 0, 68, 43
1, 171722, Note_on_c, 0, 53, 87
1, 171722, Note_off_c, 0, 54, 64
1, 171739, Control_c, 0, 64, 0
1, 171792, Note_on_c, 0, 73, 34
1, 171833, Note_off_c, 0, 68, 64
1, 171886, Note_on_c, 0, 71, 58
1, 171886, Note_off_c, 0, 73, 64
1, 171951, Note_on_c, 0, 73, 44
1, 171975, Note_off_c, 0, 71, 64
1, 172037, Note_off_c, 0, 53, 64
1, 172048, Note_on_c, 0, 68, 39
1, 172059, Note_off_c, 0, 73, 64
1, 172064, Control_c, 0, 64, 127
1, 172115, Note_on_c, 0, 73, 45
1, 172159, Note_off_c, 0, 68, 64
1, 172199, Note_on_c, 0, 53, 89
1, 172218, Note_on_c, 0, 71, 61
1, 172218, Note_off_c, 0, 73, 64
1, 172293, Note_on_c, 0, 73, 38
1, 172324, Note_off_c, 0, 71, 64
1, 172327, Control_c, 0, 64, 0
1, 172399, Note_on_c, 0, 68, 53
1, 172399, Note_off_c, 0, 73, 64
1, 172399, Note_on_c, 0, 61, 76
1, 172418, Note_off_c, 0, 53, 64
1, 172485, Note_on_c, 0, 73, 31
1, 172539, Note_off_c, 0, 68, 64
1, 172588, Note_off_c, 0, 73, 64
1, 172588, Note_on_c, 0, 71, 55
1, 172666, Note_on_c, 0, 73, 36
1, 172666, Note_off_c, 0, 71, 64
1, 172686, Note_on_c, 0, 53, 75
1, 172686, Control_c, 0, 64, 127
1, 172758, Control_c, 0, 64, 0
1, 172773, Note_off_c, 0, 53, 64
1, 172780, Note_off_c, 0, 73, 64
1, 172789, Note_on_c, 0, 66, 41
1, 172789, Note_on_c, 0, 56, 60
1, 172842, Note_off_c, 0, 61, 64
1, 172875, Note_on_c, 0, 73, 26
1, 172908, Note_off_c, 0, 66, 64
1, 172981, Note_off_c, 0, 73, 64
1, 172981, Note_on_c, 0, 69, 31
1, 173043, Note_on_c, 0, 73, 38
1, 173056, Note_off_c, 0, 69, 64
1, 173118, Control_c, 0, 64, 127
1, 173151, Note_off_c, 0, 73, 64
1, 173156, Note_on_c, 0, 66, 35
1, 173193, Note_on_c, 0, 54, 50
1, 173210, Note_off_c, 0, 56, 64
1, 173232, Note_off_c, 0, 66, 64
1, 173235, Note_on_c, 0, 73, 23
1, 173310, Control_c, 0, 64, 0
1, 173349, Note_off_c, 0, 73, 64
1, 173349, Note_on_c, 0, 69, 30
1, 173410, Note_on_c, 0, 73, 40
1, 173427, Note_off_c, 0, 69, 64
1, 173489, Control_c, 0, 64, 127
1, 173505, Note_on_c, 0, 66, 39
1, 173513, Note_off_c, 0, 73, 64
1, 173560, Note_off_c, 0, 54, 64
1, 173572, Note_off_c, 0, 66, 64
1, 173572, Note_on_c, 0, 73, 40
1, 173652, Note_on_c, 0, 54, 74
1, 173670, Note_on_c, 0, 69, 36
1, 173678, Note_off_c, 0, 73, 64
1, 173736, Note_on_c, 0, 73, 44
1, 173750, Note_off_c, 0, 69, 64
1, 173831, Note_on_c, 0, 61, 77
1, 173839, Note_off_c, 0, 73, 64
1, 173839, Note_on_c, 0, 66, 43
1, 173861, Note_off_c, 0, 54, 64
1, 173861, Control_c, 0, 64, 0
1, 173915, Note_on_c, 0, 73, 31
1, 173953, Note_off_c, 0, 66, 64
1, 174017, Note_off_c, 0, 73, 64
1, 174017, Note_on_c, 0, 69, 35
1, 174029, Control_c, 0, 64, 127
1, 174076, Note_off_c, 0, 61, 64
1, 174080, Note_on_c, 0, 54, 80
1, 174085, Note_off_c, 0, 69, 64
1, 174085, Note_on_c, 0, 73, 39
1, 174126, Note_off_c, 0, 54, 64
1, 174146, Note_off_c, 0, 73, 64
1, 174163, Note_on_c, 0, 66, 41
1, 174185, Note_on_c, 0, 54, 81
1, 174234, Control_c, 0, 64, 0
1, 174285, Note_on_c, 0, 74, 47
1, 174302, Note_off_c, 0, 66, 64
1, 174319, Note_off_c, 0, 54, 64
1, 174341, Note_off_c, 0, 74, 64
1, 174360, Note_on_c, 0, 69, 47
1, 174369, Note_on_c, 0, 54, 88
1, 174388, Control_c, 0, 64, 127
1, 174468, Note_on_c, 0, 74, 46
1, 174478, Note_off_c, 0, 69, 64
1, 174564, Note_off_c, 0, 74, 64
1, 174577, Note_on_c, 0, 66, 51
1, 174581, Note_off_c, 0, 54, 64
1, 174581, Note_on_c, 0, 62, 92
1, 174616, Control_c, 0, 64, 0
1, 174706, Note_on_c, 0, 74, 58
1, 174742, Note_off_c, 0, 66, 64
1, 174784, Control_c, 0, 64, 127
1, 174806, Note_off_c, 0, 74, 64
1, 174811, Note_on_c, 0, 69, 38
1, 174839, Note_on_c, 0, 54, 79
1, 174844, Note_off_c, 0, 62, 64
1, 174870, Note_on_c, 0, 74, 57
1, 174875, Note_off_c, 0, 69, 64
1, 174875, Note_off_c, 0, 54, 64
1, 174915, Note_off_c, 0, 74, 64
1, 174942, Note_on_c, 0, 54, 81
1, 174948, Note_on_c, 0, 69, 49
1, 175039, Note_off_c, 0, 54, 64
1, 175042, Note_on_c, 0, 74, 63
1, 175053, Note_off_c, 0, 69, 64
1, 175120, Note_off_c, 0, 74, 64
1, 175126, Note_on_c, 0, 72, 63
1, 175126, Note_on_c, 0, 54, 84
1, 175210, Note_on_c, 0, 74, 62
1, 175240, Note_off_c, 0, 72, 64
1, 175299, Control_c, 0, 64, 0
1, 175349, Note_on_c, 0, 69, 49
1, 175355, Note_off_c, 0, 74, 64
1, 175358, Note_on_c, 0, 62, 75
1, 175382, Note_off_c, 0, 54, 64
1, 175460, Note_on_c, 0, 74, 38
1, 175552, Control_c, 0, 64, 127
1, 175558, Note_on_c, 0, 72, 49
1, 175558, Note_off_c, 0, 74, 64
1, 175599, Note_off_c, 0, 69, 64
1, 175599, Note_off_c, 0, 62, 64
1, 175652, Note_on_c, 0, 74, 31
1, 175655, Note_off_c, 0, 72, 64
1, 175680, Note_on_c, 0, 54, 58
1, 175756, Note_off_c, 0, 74, 64
1, 175762, Note_on_c, 0, 67, 47
1, 175791, Control_c, 0, 64, 0
1, 175800, Note_off_c, 0, 54, 64
1, 175804, Note_on_c, 0, 55, 54
1, 175903, Note_on_c, 0, 74, 37
1, 175959, Note_off_c, 0, 74, 64
1, 175990, Note_off_c, 0, 67, 64
1, 175995, Note_on_c, 0, 71, 46
1, 176006, Control_c, 0, 64, 127
1, 176057, Note_off_c, 0, 71, 64
1, 176060, Note_off_c, 0, 55, 64
1, 176107, Note_on_c, 0, 74, 40
1, 176160, Note_off_c, 0, 74, 64
1, 176219, Note_on_c, 0, 67, 31
1, 176248, Note_on_c, 0, 50, 71
1, 176340, Note_off_c, 0, 67, 64
1, 176343, Note_on_c, 0, 74, 38
1, 176393, Note_off_c, 0, 74, 64
1, 176436, Note_on_c, 0, 71, 44
1, 176439, Control_c, 0, 64, 0
1, 176492, Note_off_c, 0, 71, 64
1, 176527, Note_on_c, 0, 74, 42
1, 176574, Note_off_c, 0, 74, 64
1, 176605, Control_c, 0, 64, 127
1, 176616, Note_on_c, 0, 67, 14
1, 176680, Note_on_c, 0, 74, 32
1, 176703, Note_off_c, 0, 67, 64
1, 176741, Note_off_c, 0, 74, 64
1, 176776, Note_on_c, 0, 71, 36
1, 176831, Note_off_c, 0, 71, 64
1, 176840, Note_on_c, 0, 74, 33
1, 176904, Note_off_c, 0, 74, 64
1, 176931, Note_on_c, 0, 67, 41
1, 176931, Note_on_c, 0, 47, 80
1, 176999, Note_off_c, 0, 50, 64
1, 177013, Control_c, 0, 64, 0
1, 177023, Note_off_c, 0, 67, 64
1, 177038, Note_on_c, 0, 74, 36
1, 177096, Note_off_c, 0, 74, 64
1, 177132, Note_on_c, 0, 71, 45
1, 177145, Control_c, 0, 64, 127
1, 177190, Note_off_c, 0, 71, 64
1, 177202, Note_off_c, 0, 47, 64
1, 177202, Note_on_c, 0, 43, 76
1, 177216, Note_on_c, 0, 74, 35
1, 177237, Note_off_c, 0, 43, 64
1, 177265, Note_off_c, 0, 74, 64
1, 177283, Note_on_c, 0, 69, 41
1, 177296, Note_on_c, 0, 43, 63
1, 177369, Note_off_c, 0, 69, 64
1, 177382, Note_on_c, 0, 74, 26
1, 177421, Control_c, 0, 64, 0
1, 177453, Note_off_c, 0, 74, 64
1, 177489, Note_on_c, 0, 72, 36
1, 177550, Note_off_c, 0, 72, 64
1, 177567, Note_on_c, 0, 74, 33
1, 177613, Control_c, 0, 64, 127
1, 177633, Note_off_c, 0, 74, 64
1, 177653, Note_on_c, 0, 69, 33
1, 177672, Note_on_c, 0, 42, 56
1, 177703, Note_off_c, 0, 43, 64
1, 177733, Note_off_c, 0, 69, 64
1, 177742, Note_on_c, 0, 74, 30
1, 177781, Control_c, 0, 64, 0
1, 177817, Note_off_c, 0, 74, 64
1, 177842, Note_on_c, 0, 72, 34
1, 177907, Note_off_c, 0, 72, 64
1, 177907, Note_on_c, 0, 74, 38
1, 178001, Note_off_c, 0, 74, 64
1, 178001, Note_on_c, 0, 69, 39
1, 178095, Note_off_c, 0, 69, 64
1, 178095, Note_on_c, 0, 74, 36
1, 178104, Control_c, 0, 64, 127
1, 178138, Note_off_c, 0, 42, 64
1, 178207, Note_on_c, 0, 72, 52
1, 178212, Note_off_c, 0, 74, 64
1, 178215, Note_on_c, 0, 42, 64
1, 178302, Note_on_c, 0, 74, 36
1, 178313, Note_off_c, 0, 72, 64
1, 178408, Note_on_c, 0, 69, 43
1, 178408, Note_on_c, 0, 50, 85
1, 178417, Note_off_c, 0, 74, 64
1, 178450, Note_off_c, 0, 42, 64
1, 178450, Control_c, 0, 64, 0
1, 178494, Note_on_c, 0, 74, 38
1, 178595, Control_c, 0, 64, 127
1, 178603, Note_on_c, 0, 72, 51
1, 178603, Note_off_c, 0, 74, 64
1, 178623, Note_off_c, 0, 69, 64
1, 178647, Note_off_c, 0, 50, 64
1, 178672, Note_on_c, 0, 42, 70
1, 178672, Note_on_c, 0, 74, 48
1, 178672, Note_off_c, 0, 72, 64
1, 178764, Note_on_c, 0, 67, 47
1, 178764, Note_off_c, 0, 74, 64
1, 178772, Note_on_c, 0, 45, 80
1, 178817, Note_off_c, 0, 42, 64
1, 178823, Control_c, 0, 64, 0
1, 178848, Note_on_c, 0, 74, 36
1, 178918, Note_off_c, 0, 67, 64
1, 178951, Note_off_c, 0, 74, 64
1, 178956, Note_on_c, 0, 71, 50
1, 179023, Note_on_c, 0, 74, 43
1, 179023, Note_off_c, 0, 71, 64
1, 179074, Control_c, 0, 64, 127
1, 179134, Note_off_c, 0, 74, 64
1, 179146, Note_on_c, 0, 67, 44
1, 179179, Note_on_c, 0, 43, 74
1, 179208, Note_off_c, 0, 45, 64
1, 179238, Note_off_c, 0, 67, 64
1, 179243, Note_on_c, 0, 74, 31
1, 179315, Control_c, 0, 64, 0
1, 179341, Note_off_c, 0, 74, 64
1, 179355, Note_on_c, 0, 71, 47
1, 179414, Note_off_c, 0, 71, 64
1, 179422, Note_on_c, 0, 74, 37
1, 179494, Control_c, 0, 64, 127
1, 179522, Note_off_c, 0, 74, 64
1, 179527, Note_on_c, 0, 67, 42
1, 179595, Note_off_c, 0, 43, 64
1, 179598, Note_on_c, 0, 74, 37
1, 179631, Note_off_c, 0, 67, 64
1, 179698, Note_on_c, 0, 43, 78
1, 179703, Note_on_c, 0, 71, 59
1, 179706, Note_off_c, 0, 74, 64
1, 179786, Note_on_c, 0, 74, 34
1, 179798, Note_off_c, 0, 71, 64
1, 179917, Note_off_c, 0, 74, 64
1, 179923, Note_on_c, 0, 67, 45
1, 179965, Note_on_c, 0, 50, 85
1, 179996, Note_off_c, 0, 43, 64
1, 180009, Control_c, 0, 64, 0
1, 180037, Note_on_c, 0, 74, 34
1, 180119, Note_off_c, 0, 67, 64
1, 180157, Note_off_c, 0, 74, 64
1, 180176, Note_on_c, 0, 71, 46
1, 180188, Control_c, 0, 64, 127
1, 180279, Note_on_c, 0, 42, 78
1, 180286, Note_off_c, 0, 71, 64
1, 180286, Note_on_c, 0, 74, 42
1, 180313, Note_off_c, 0, 50, 64
1, 180336, Note_off_c, 0, 42, 64
1, 180350, Note_off_c, 0, 74, 64
1, 180372, Note_on_c, 0, 68, 51
1, 180392, Note_on_c, 0, 42, 78
1, 180502, Note_on_c, 0, 74, 36
1, 180548, Control_c, 0, 64, 0
1, 180555, Note_off_c, 0, 68, 64
1, 180594, Note_off_c, 0, 74, 64
1, 180605, Note_on_c, 0, 71, 52
1, 180669, Note_on_c, 0, 74, 49
1, 180681, Note_off_c, 0, 71, 64
1, 180717, Control_c, 0, 64, 127
1, 180745, Note_on_c, 0, 68, 46
1, 180772, Note_on_c, 0, 41, 76
1, 180793, Note_off_c, 0, 74, 64
1, 180828, Note_off_c, 0, 42, 64
1, 180831, Note_on_c, 0, 73, 38
1, 180896, Note_off_c, 0, 68, 64
1, 180915, Note_off_c, 0, 73, 64
1, 180923, Note_on_c, 0, 71, 55
1, 180999, Note_on_c, 0, 73, 35
1, 181004, Control_c, 0, 64, 0
1, 181037, Note_off_c, 0, 71, 64
1, 181084, Note_on_c, 0, 68, 54
1, 181110, Note_off_c, 0, 73, 64
1, 181160, Control_c, 0, 64, 127
1, 181187, Note_on_c, 0, 73, 31
1, 181246, Note_off_c, 0, 41, 64
1, 181260, Note_off_c, 0, 68, 64
1, 181300, Note_off_c, 0, 73, 64
1, 181300, Note_on_c, 0, 71, 61
1, 181313, Note_on_c, 0, 41, 83
1, 181399, Note_on_c, 0, 73, 36
1, 181427, Note_off_c, 0, 71, 64
1, 181503, Note_on_c, 0, 68, 61
1, 181508, Note_on_c, 0, 49, 87
1, 181518, Note_off_c, 0, 73, 64
1, 181534, Note_off_c, 0, 41, 64
1, 181567, Control_c, 0, 64, 0
1, 181594, Note_on_c, 0, 73, 35
1, 181633, Note_off_c, 0, 68, 64
1, 181683, Note_on_c, 0, 71, 75
1, 181687, Control_c, 0, 64, 127
1, 181701, Note_off_c, 0, 73, 64
1, 181757, Note_on_c, 0, 73, 55
1, 181770, Note_off_c, 0, 49, 64
1, 181775, Note_on_c, 0, 41, 90
1, 181787, Note_off_c, 0, 71, 64
1, 181839, Note_on_c, 0, 66, 65
1, 181857, Note_off_c, 0, 73, 64
1, 181860, Note_on_c, 0, 42, 86
1, 181874, Note_off_c, 0, 41, 64
1, 181881, Control_c, 0, 64, 0
1, 181938, Note_on_c, 0, 73, 44
1, 181985, Note_off_c, 0, 66, 64
1, 182009, Note_off_c, 0, 42, 64
1, 182035, Note_on_c, 0, 69, 51
1, 182044, Note_off_c, 0, 73, 64
1, 182044, Control_c, 0, 64, 127
1, 182051, Note_on_c, 0, 42, 85
1, 182124, Note_on_c, 0, 73, 50
1, 182146, Note_off_c, 0, 69, 64
1, 182213, Note_on_c, 0, 66, 64
1, 182227, Note_off_c, 0, 73, 64
1, 182227, Note_on_c, 0, 45, 88
1, 182247, Note_off_c, 0, 42, 64
1, 182303, Note_on_c, 0, 73, 49
1, 182347, Note_off_c, 0, 66, 64
1, 182389, Note_on_c, 0, 42, 86
1, 182392, Note_on_c, 0, 69, 67
1, 182414, Note_off_c, 0, 73, 64
1, 182433, Note_off_c, 0, 45, 64
1, 182467, Note_on_c, 0, 73, 66
1, 182498, Note_off_c, 0, 69, 64
1, 182551, Note_off_c, 0, 42, 64
1, 182559, Note_on_c, 0, 66, 68
1, 182559, Note_on_c, 0, 38, 99
1, 182562, Control_c, 0, 64, 0
1, 182584, Note_off_c, 0, 73, 64
1, 182665, Note_on_c, 0, 78, 77
1, 182689, Note_off_c, 0, 66, 64
1, 182698, Note_off_c, 0, 38, 64
1, 182729, Control_c, 0, 64, 127
1, 182743, Note_on_c, 0, 38, 91
1, 182748, Note_on_c, 0, 69, 63
1, 182775, Note_off_c, 0, 78, 64
1, 182835, Note_on_c, 0, 78, 54
1, 182867, Note_off_c, 0, 69, 64
1, 182876, Note_off_c, 0, 38, 64
1, 182907, Note_on_c, 0, 66, 75
1, 182912, Note_on_c, 0, 42, 90
1, 182931, Note_off_c, 0, 78, 64
1, 182995, Note_on_c, 0, 78, 57
1, 182995, Note_off_c, 0, 66, 64
1, 183037, Note_off_c, 0, 42, 64
1, 183096, Note_on_c, 0, 38, 98
1, 183096, Note_on_c, 0, 69, 70
1, 183116, Note_off_c, 0, 78, 64
1, 183193, Note_on_c, 0, 78, 52
1, 183216, Note_off_c, 0, 69, 64
1, 183216, Note_off_c, 0, 38, 64
1, 183310, Note_on_c, 0, 66, 63
1, 183310, Note_off_c, 0, 78, 64
1, 183325, Note_on_c, 0, 36, 108
1, 183364, Control_c, 0, 64, 0
1, 183483, Note_on_c, 0, 78, 68
1, 183509, Note_off_c, 0, 66, 64
1, 183565, Control_c, 0, 64, 127
1, 183586, Note_on_c, 0, 68, 67
1, 183606, Note_on_c, 0, 75, 55
1, 183625, Note_off_c, 0, 78, 64
1, 183682, Note_off_c, 0, 68, 64
1, 183687, Note_on_c, 0, 78, 58
1, 183718, Note_off_c, 0, 75, 64
1, 183781, Note_on_c, 0, 66, 65
1, 183785, Note_off_c, 0, 78, 64
1, 183848, Note_off_c, 0, 66, 64
1, 183853, Note_on_c, 0, 78, 57
1, 183951, Note_on_c, 0, 68, 60
1, 183951, Note_on_c, 0, 75, 64
1, 183955, Note_off_c, 0, 78, 64
1, 184012, Note_off_c, 0, 36, 64
1, 184029, Note_off_c, 0, 68, 64
1, 184037, Note_on_c, 0, 78, 60
1, 184063, Note_off_c, 0, 75, 64
1, 184112, Note_on_c, 0, 66, 72
1, 184129, Note_off_c, 0, 78, 64
1, 184182, Note_on_c, 0, 78, 67
1, 184194, Note_off_c, 0, 66, 64
1, 184275, Note_on_c, 0, 36, 88
1, 184280, Note_on_c, 0, 68, 68
1, 184288, Note_on_c, 0, 75, 61
1, 184294, Note_off_c, 0, 78, 64
1, 184353, Note_off_c, 0, 68, 64
1, 184364, Note_on_c, 0, 78, 56
1, 184409, Note_off_c, 0, 75, 64
1, 184434, Note_on_c, 0, 39, 86
1, 184442, Note_on_c, 0, 66, 76
1, 184447, Note_off_c, 0, 78, 64
1, 184447, Note_off_c, 0, 36, 64
1, 184512, Note_on_c, 0, 78, 61
1, 184522, Note_off_c, 0, 66, 64
1, 184576, Note_off_c, 0, 39, 64
1, 184604, Note_on_c, 0, 36, 93
1, 184607, Note_on_c, 0, 68, 72
1, 184614, Note_off_c, 0, 78, 64
1, 184614, Note_on_c, 0, 75, 59
1, 184668, Note_on_c, 0, 78, 67
1, 184682, Note_off_c, 0, 36, 64
1, 184700, Note_off_c, 0, 68, 64
1, 184731, Note_off_c, 0, 75, 64
1, 184756, Note_off_c, 0, 78, 64
1, 184767, Control_c, 0, 64, 0
1, 184793, Note_on_c, 0, 64, 92
1, 184799, Note_on_c, 0, 37, 100
1, 184820, Note_on_c, 0, 73, 16
1, 184870, Note_off_c, 0, 73, 64
1, 184901, Note_on_c, 0, 76, 65
1, 184931, Note_off_c, 0, 37, 64
1, 184931, Note_off_c, 0, 64, 64
1, 184946, Control_c, 0, 64, 127
1, 184982, Note_on_c, 0, 73, 76
1, 184991, Note_on_c, 0, 37, 74
1, 184999, Note_off_c, 0, 76, 64
1, 185072, Note_on_c, 0, 76, 45
1, 185086, Note_off_c, 0, 37, 64
1, 185104, Note_off_c, 0, 73, 64
1, 185152, Note_on_c, 0, 40, 99
1, 185158, Note_off_c, 0, 76, 64
1, 185158, Note_on_c, 0, 64, 80
1, 185214, Note_off_c, 0, 64, 64
1, 185227, Note_on_c, 0, 76, 52
1, 185239, Note_off_c, 0, 40, 64
1, 185299, Note_on_c, 0, 37, 89
1, 185303, Note_on_c, 0, 73, 75
1, 185322, Note_off_c, 0, 76, 64
1, 185369, Note_off_c, 0, 37, 64
1, 185380, Note_on_c, 0, 76, 61
1, 185413, Note_off_c, 0, 73, 64
1, 185439, Control_c, 0, 64, 0
1, 185462, Note_on_c, 0, 33, 98
1, 185467, Note_on_c, 0, 64, 89
1, 185472, Note_off_c, 0, 76, 64
1, 185545, Note_on_c, 0, 76, 55
1, 185554, Note_off_c, 0, 64, 64
1, 185559, Note_off_c, 0, 33, 64
1, 185606, Control_c, 0, 64, 127
1, 185622, Note_on_c, 0, 73, 70
1, 185626, Note_off_c, 0, 76, 64
1, 185626, Note_on_c, 0, 33, 83
1, 185703, Note_on_c, 0, 76, 50
1, 185729, Note_off_c, 0, 33, 64
1, 185735, Note_off_c, 0, 73, 64
1, 185782, Note_on_c, 0, 37, 90
1, 185782, Note_on_c, 0, 64, 83
1, 185785, Note_off_c, 0, 76, 64
1, 185838, Note_off_c, 0, 64, 64
1, 185849, Note_on_c, 0, 76, 53
1, 185885, Note_off_c, 0, 37, 64
1, 185937, Note_on_c, 0, 73, 70
1, 185937, Note_off_c, 0, 76, 64
1, 185940, Note_on_c, 0, 33, 95
1, 186005, Note_on_c, 0, 76, 62
1, 186018, Note_off_c, 0, 33, 64
1, 186027, Note_off_c, 0, 73, 64
1, 186074, Control_c, 0, 64, 0
1, 186105, Note_on_c, 0, 30, 100
1, 186108, Note_on_c, 0, 63, 87
1, 186152, Note_off_c, 0, 76, 64
1, 186194, Note_off_c, 0, 63, 64
1, 186194, Note_on_c, 0, 75, 73
1, 186222, Note_off_c, 0, 30, 64
1, 186241, Control_c, 0, 64, 127
1, 186280, Note_on_c, 0, 30, 78
1, 186280, Note_on_c, 0, 73, 70
1, 186291, Note_off_c, 0, 75, 64
1, 186350, Note_on_c, 0, 75, 66
1, 186383, Note_off_c, 0, 73, 64
1, 186386, Note_off_c, 0, 30, 64
1, 186436, Note_on_c, 0, 63, 82
1, 186450, Note_off_c, 0, 75, 64
1, 186450, Note_on_c, 0, 33, 88
1, 186515, Note_on_c, 0, 75, 59
1, 186519, Note_off_c, 0, 63, 64
1, 186550, Note_off_c, 0, 33, 64
1, 186592, Note_on_c, 0, 30, 88
1, 186592, Note_on_c, 0, 73, 73
1, 186609, Note_off_c, 0, 75, 64
1, 186664, Note_on_c, 0, 75, 68
1, 186681, Note_off_c, 0, 30, 64
1, 186686, Note_off_c, 0, 73, 64
1, 186745, Control_c, 0, 64, 0
1, 186745, Note_on_c, 0, 63, 85
1, 186753, Note_off_c, 0, 75, 64
1, 186756, Note_on_c, 0, 31, 108
1, 186827, Note_off_c, 0, 63, 64
1, 186827, Note_on_c, 0, 75, 62
1, 186848, Note_off_c, 0, 31, 64
1, 186888, Control_c, 0, 64, 127
1, 186913, Note_on_c, 0, 31, 88
1, 186913, Note_on_c, 0, 73, 72
1, 186927, Note_off_c, 0, 75, 64
1, 186983, Note_on_c, 0, 75, 71
1, 187013, Note_off_c, 0, 73, 64
1, 187071, Note_off_c, 0, 31, 64
1, 187079, Note_on_c, 0, 63, 85
1, 187079, Note_on_c, 0, 34, 88
1, 187091, Note_off_c, 0, 75, 64
1, 187149, Note_on_c, 0, 75, 65
1, 187178, Note_off_c, 0, 63, 64
1, 187197, Note_off_c, 0, 34, 64
1, 187264, Note_on_c, 0, 31, 98
1, 187271, Note_on_c, 0, 73, 68
1, 187278, Note_off_c, 0, 75, 64
1, 187341, Note_off_c, 0, 31, 64
1, 187347, Note_on_c, 0, 75, 65
1, 187420, Note_off_c, 0, 73, 64
1, 187428, Note_off_c, 0, 75, 64
1, 187487, Control_c, 0, 64, 0
1, 187498, Note_on_c, 0, 75, 73
1, 187498, Note_on_c, 0, 72, 85
1, 187502, Note_on_c, 0, 32, 88
1, 187506, Note_on_c, 0, 63, 85
1, 187646, Note_on_c, 0, 44, 60
1, 187679, Note_off_c, 0, 32, 64
1, 187715, Control_c, 0, 64, 127
1, 187737, Note_off_c, 0, 44, 64
1, 187746, Note_on_c, 0, 32, 41
1, 187773, Note_off_c, 0, 63, 64
1, 187795, Note_off_c, 0, 75, 64
1, 187846, Note_off_c, 0, 32, 64
1, 187851, Note_off_c, 0, 72, 64
1, 187851, Note_on_c, 0, 44, 67
1, 187951, Note_off_c, 0, 44, 64
1, 187966, Note_on_c, 0, 32, 51
1, 187991, Note_on_c, 0, 68, 96
1, 188068, Note_off_c, 0, 32, 64
1, 188072, Note_on_c, 0, 44, 53
1, 188163, Note_on_c, 0, 32, 30
1, 188163, Note_off_c, 0, 44, 64
1, 188252, Note_off_c, 0, 32, 64
1, 188266, Note_on_c, 0, 44, 49
1, 188338, Note_off_c, 0, 44, 64
1, 188348, Note_on_c, 0, 32, 43
1, 188439, Note_off_c, 0, 32, 64
1, 188445, Note_on_c, 0, 44, 58
1, 188522, Note_on_c, 0, 32, 37
1, 188531, Note_off_c, 0, 44, 64
1, 188614, Note_on_c, 0, 44, 48
1, 188620, Note_off_c, 0, 32, 64
1, 188706, Note_on_c, 0, 32, 39
1, 188706, Note_on_c, 0, 69, 76
1, 188710, Note_off_c, 0, 44, 64
1, 188721, Control_c, 0, 64, 0
1, 188756, Note_off_c, 0, 68, 64
1, 188816, Note_off_c, 0, 32, 64
1, 188816, Note_on_c, 0, 44, 54
1, 188877, Control_c, 0, 64, 127
1, 188899, Note_on_c, 0, 32, 37
1, 188899, Note_on_c, 0, 68, 84
1, 188907, Note_off_c, 0, 44, 64
1, 188962, Note_off_c, 0, 69, 64
1, 188994, Note_off_c, 0, 32, 64
1, 189000, Note_on_c, 0, 44, 52
1, 189093, Note_on_c, 0, 32, 43
1, 189093, Note_off_c, 0, 44, 64
1, 189100, Note_on_c, 0, 66, 78
1, 189111, Note_on_c, 0, 57, 55
1, 189111, Note_on_c, 0, 61, 68
1, 189144, Note_off_c, 0, 68, 64
1, 189181, Note_off_c, 0, 32, 64
1, 189186, Note_on_c, 0, 44, 47
1, 189225, Control_c, 0, 64, 0
1, 189263, Note_on_c, 0, 32, 40
1, 189284, Note_off_c, 0, 44, 64
1, 189358, Note_off_c, 0, 32, 64
1, 189361, Note_on_c, 0, 44, 44
1, 189369, Control_c, 0, 64, 127
1, 189444, Note_on_c, 0, 32, 35
1, 189456, Note_off_c, 0, 44, 64
1, 189456, Note_on_c, 0, 68, 63
1, 189467, Note_off_c, 0, 66, 64
1, 189537, Note_off_c, 0, 32, 64
1, 189537, Note_on_c, 0, 44, 41
1, 189589, Note_off_c, 0, 57, 64
1, 189596, Note_off_c, 0, 61, 64
1, 189623, Note_on_c, 0, 32, 35
1, 189628, Note_off_c, 0, 44, 64
1, 189632, Note_on_c, 0, 66, 69
1, 189651, Note_off_c, 0, 68, 64
1, 189710, Note_off_c, 0, 32, 64
1, 189718, Note_off_c, 0, 66, 64
1, 189718, Note_on_c, 0, 44, 44
1, 189795, Note_on_c, 0, 56, 68
1, 189798, Note_on_c, 0, 64, 84
1, 189801, Note_off_c, 0, 44, 64
1, 189805, Note_on_c, 0, 32, 41
1, 189808, Note_on_c, 0, 59, 52
1, 189882, Note_off_c, 0, 32, 64
1, 189893, Note_on_c, 0, 44, 47
1, 189898, Control_c, 0, 64, 0
1, 189963, Note_on_c, 0, 32, 43
1, 189980, Note_off_c, 0, 44, 64
1, 190039, Control_c, 0, 64, 127
1, 190050, Note_on_c, 0, 44, 46
1, 190055, Note_off_c, 0, 32, 64
1, 190107, Note_on_c, 0, 66, 66
1, 190111, Note_off_c, 0, 64, 64
1, 190127, Note_on_c, 0, 32, 40
1, 190136, Note_off_c, 0, 44, 64
1, 190216, Note_off_c, 0, 32, 64
1, 190219, Note_on_c, 0, 44, 44
1, 190255, Note_off_c, 0, 59, 64
1, 190255, Note_off_c, 0, 66, 64
1, 190297, Note_off_c, 0, 44, 64
1, 190297, Note_on_c, 0, 32, 34
1, 190302, Note_on_c, 0, 64, 83
1, 190328, Note_off_c, 0, 56, 64
1, 190342, Note_off_c, 0, 64, 64
1, 190373, Note_off_c, 0, 32, 64
1, 190387, Note_on_c, 0, 44, 43
1, 190454, Note_off_c, 0, 44, 64
1, 190468, Note_on_c, 0, 32, 44
1, 190475, Note_on_c, 0, 63, 82
1, 190479, Note_on_c, 0, 54, 66
1, 190483, Note_on_c, 0, 57, 57
1, 190520, Control_c, 0, 64, 0
1, 190565, Note_off_c, 0, 32, 64
1, 190573, Note_on_c, 0, 44, 57
1, 190637, Note_on_c, 0, 32, 38
1, 190642, Note_off_c, 0, 44, 64
1, 190676, Control_c, 0, 64, 127
1, 190735, Note_off_c, 0, 32, 64
1, 190745, Note_on_c, 0, 44, 52
1, 190809, Note_off_c, 0, 44, 64
1, 190812, Note_on_c, 0, 64, 73
1, 190815, Note_on_c, 0, 32, 31
1, 190829, Note_off_c, 0, 63, 64
1, 190893, Note_off_c, 0, 32, 64
1, 190919, Note_on_c, 0, 44, 48
1, 190971, Note_off_c, 0, 44, 64
1, 190982, Note_on_c, 0, 63, 81
1, 190988, Note_on_c, 0, 32, 37
1, 190993, Note_off_c, 0, 64, 64
1, 191036, Note_off_c, 0, 57, 64
1, 191039, Note_off_c, 0, 54, 64
1, 191039, Note_off_c, 0, 63, 64
1, 191044, Note_off_c, 0, 32, 64
1, 191088, Note_on_c, 0, 44, 46
1, 191139, Note_off_c, 0, 44, 64
1, 191149, Note_on_c, 0, 61, 79
1, 191152, Note_on_c, 0, 52, 70
1, 191152, Note_on_c, 0, 56, 49
1, 191160, Note_on_c, 0, 32, 44
1, 191191, Control_c, 0, 64, 0
1, 191222, Note_off_c, 0, 32, 64
1, 191258, Note_on_c, 0, 44, 53
1, 191322, Note_off_c, 0, 44, 64
1, 191334, Note_on_c, 0, 32, 45
1, 191334, Control_c, 0, 64, 127
1, 191392, Note_off_c, 0, 32, 64
1, 191425, Note_on_c, 0, 44, 42
1, 191448, Note_off_c, 0, 61, 64
1, 191454, Note_on_c, 0, 63, 71
1, 191486, Note_off_c, 0, 44, 64
1, 191509, Note_on_c, 0, 32, 41
1, 191556, Note_off_c, 0, 52, 64
1, 191562, Note_off_c, 0, 32, 64
1, 191582, Note_off_c, 0, 63, 64
1, 191604, Note_on_c, 0, 44, 44
1, 191628, Note_on_c, 0, 61, 72
1, 191642, Note_off_c, 0, 56, 64
1, 191657, Note_off_c, 0, 44, 64
1, 191685, Note_on_c, 0, 32, 40
1, 191731, Note_off_c, 0, 61, 64
1, 191731, Note_off_c, 0, 32, 64
1, 191787, Note_on_c, 0, 44, 36
1, 191798, Note_on_c, 0, 60, 72
1, 191805, Note_on_c, 0, 54, 58
1, 191805, Note_on_c, 0, 51, 61
1, 191838, Note_off_c, 0, 44, 64
1, 191851, Control_c, 0, 64, 0
1, 191851, Note_on_c, 0, 32, 40
1, 191907, Note_off_c, 0, 32, 64
1, 191935, Note_on_c, 0, 44, 36
1, 192011, Control_c, 0, 64, 127
1, 192014, Note_off_c, 0, 44, 64
1, 192014, Note_on_c, 0, 32, 37
1, 192071, Note_off_c, 0, 32, 64
1, 192092, Note_on_c, 0, 44, 30
1, 192161, Note_off_c, 0, 44, 64
1, 192191, Note_on_c, 0, 32, 26
1, 192242, Note_off_c, 0, 32, 64
1, 192278, Note_on_c, 0, 44, 32
1, 192278, Note_off_c, 0, 51, 64
1, 192297, Note_off_c, 0, 60, 64
1, 192331, Note_off_c, 0, 44, 64
1, 192365, Note_on_c, 0, 32, 34
1, 192415, Note_off_c, 0, 32, 64
1, 192461, Note_on_c, 0, 44, 42
1, 192492, Note_on_c, 0, 61, 53
1, 192507, Note_on_c, 0, 49, 37
1, 192507, Note_on_c, 0, 52, 47
1, 192510, Note_off_c, 0, 44, 64
1, 192542, Note_off_c, 0, 54, 64
1, 192542, Note_on_c, 0, 32, 36
1, 192599, Note_off_c, 0, 32, 64
1, 192629, Control_c, 0, 64, 0
1, 192635, Note_on_c, 0, 44, 47
1, 192691, Note_off_c, 0, 44, 64
1, 192713, Note_on_c, 0, 32, 24
1, 192780, Note_off_c, 0, 32, 64
1, 192785, Control_c, 0, 64, 127
1, 192816, Note_on_c, 0, 44, 32
1, 192872, Note_off_c, 0, 44, 64
1, 192890, Note_on_c, 0, 32, 23
1, 192925, Note_off_c, 0, 49, 64
1, 192944, Note_off_c, 0, 52, 64
1, 192955, Note_off_c, 0, 32, 64
1, 192966, Note_off_c, 0, 61, 64
1, 192986, Note_on_c, 0, 48, 42
1, 193005, Note_on_c, 0, 44, 37
1, 193038, Note_off_c, 0, 48, 64
1, 193057, Note_off_c, 0, 44, 64
1, 193085, Note_on_c, 0, 32, 29
1, 193099, Note_on_c, 0, 56, 40
1, 193147, Note_off_c, 0, 32, 64
1, 193195, Note_on_c, 0, 44, 35
1, 193261, Note_on_c, 0, 63, 52
1, 193261, Note_off_c, 0, 44, 64
1, 193276, Control_c, 0, 64, 0
1, 193291, Note_on_c, 0, 32, 17
1, 193362, Note_off_c, 0, 32, 64
1, 193395, Note_on_c, 0, 44, 35
1, 193408, Control_c, 0, 64, 127
1, 193423, Note_off_c, 0, 56, 64
1, 193450, Note_off_c, 0, 44, 64
1, 193468, Note_off_c, 0, 63, 64
1, 193468, Note_on_c, 0, 32, 23
1, 193528, Note_off_c, 0, 32, 64
1, 193565, Note_on_c, 0, 44, 28
1, 193624, Note_off_c, 0, 44, 64
1, 193663, Note_on_c, 0, 32, 25
1, 193695, Note_on_c, 0, 80, 62
1, 193721, Note_off_c, 0, 32, 64
1, 193762, Note_on_c, 0, 44, 34
1, 193819, Note_off_c, 0, 44, 64
1, 193852, Note_on_c, 0, 32, 29
1, 193905, Note_off_c, 0, 32, 64
1, 193952, Note_on_c, 0, 44, 32
1, 194003, Note_off_c, 0, 44, 64
1, 194030, Note_on_c, 0, 32, 33
1, 194079, Note_off_c, 0, 32, 64
1, 194110, Note_off_c, 0, 80, 64
1, 194110, Note_on_c, 0, 44, 36
1, 194164, Note_off_c, 0, 44, 64
1, 194203, Note_on_c, 0, 32, 34
1, 194217, Note_on_c, 0, 80, 75
1, 194223, Control_c, 0, 64, 0
1, 194251, Note_off_c, 0, 32, 64
1, 194261, Note_off_c, 0, 80, 64
1, 194286, Note_on_c, 0, 44, 48
1, 194342, Note_off_c, 0, 44, 64
1, 194370, Note_on_c, 0, 32, 39
1, 194384, Note_on_c, 0, 81, 53
1, 194422, Note_off_c, 0, 32, 64
1, 194422, Note_off_c, 0, 81, 64
1, 194461, Note_on_c, 0, 44, 48
1, 194510, Note_off_c, 0, 44, 64
1, 194540, Note_on_c, 0, 32, 37
1, 194540, Note_on_c, 0, 80, 61
1, 194587, Note_off_c, 0, 80, 64
1, 194587, Note_off_c, 0, 32, 64
1, 194629, Note_on_c, 0, 44, 44
1, 194679, Note_off_c, 0, 44, 64
1, 194698, Note_on_c, 0, 32, 35
1, 194704, Note_on_c, 0, 78, 63
1, 194738, Note_off_c, 0, 78, 64
1, 194751, Note_off_c, 0, 32, 64
1, 194785, Note_on_c, 0, 44, 34
1, 194838, Note_off_c, 0, 44, 64
1, 194855, Note_on_c, 0, 78, 69
1, 194855, Note_on_c, 0, 32, 30
1, 194863, Note_on_c, 0, 69, 38
1, 194869, Note_on_c, 0, 73, 33
1, 194904, Note_off_c, 0, 32, 64
1, 194916, Note_off_c, 0, 69, 64
1, 194916, Note_off_c, 0, 73, 64
1, 194919, Note_off_c, 0, 78, 64
1, 194935, Note_on_c, 0, 44, 33
1, 194986, Note_off_c, 0, 44, 64
1, 195019, Note_on_c, 0, 32, 32
1, 195031, Note_on_c, 0, 80, 64
1, 195038, Note_on_c, 0, 71, 64
1, 195038, Note_on_c, 0, 75, 35
1, 195067, Note_off_c, 0, 32, 64
1, 195074, Note_off_c, 0, 80, 64
1, 195078, Note_off_c, 0, 71, 64
1, 195083, Note_off_c, 0, 75, 64
1, 195113, Note_on_c, 0, 44, 40
1, 195159, Note_off_c, 0, 44, 64
1, 195181, Note_on_c, 0, 32, 39
1, 195192, Note_on_c, 0, 78, 70
1, 195200, Note_on_c, 0, 69, 52
1, 195200, Note_on_c, 0, 73, 39
1, 195227, Note_off_c, 0, 78, 64
1, 195231, Note_off_c, 0, 32, 64
1, 195245, Note_off_c, 0, 69, 64
1, 195251, Note_off_c, 0, 73, 64
1, 195272, Note_on_c, 0, 44, 40
1, 195322, Note_off_c, 0, 44, 64
1, 195350, Note_on_c, 0, 32, 45
1, 195358, Note_on_c, 0, 76, 53
1, 195361, Note_on_c, 0, 68, 56
1, 195367, Note_on_c, 0, 71, 39
1, 195398, Note_off_c, 0, 32, 64
1, 195398, Note_off_c, 0, 76, 64
1, 195411, Note_off_c, 0, 68, 64
1, 195418, Note_off_c, 0, 71, 64
1, 195445, Note_on_c, 0, 44, 43
1, 195492, Note_off_c, 0, 44, 64
1, 195512, Note_on_c, 0, 76, 54
1, 195512, Note_on_c, 0, 32, 48
1, 195518, Note_on_c, 0, 71, 49
1, 195526, Note_on_c, 0, 68, 52
1, 195559, Note_off_c, 0, 76, 64
1, 195559, Note_off_c, 0, 32, 64
1, 195568, Note_off_c, 0, 71, 64
1, 195568, Note_off_c, 0, 68, 64
1, 195602, Note_on_c, 0, 44, 42
1, 195654, Note_off_c, 0, 44, 64
1, 195676, Note_on_c, 0, 78, 65
1, 195676, Note_on_c, 0, 32, 49
1, 195682, Note_on_c, 0, 73, 43
1, 195682, Note_on_c, 0, 69, 45
1, 195718, Note_off_c, 0, 78, 64
1, 195723, Note_off_c, 0, 32, 64
1, 195723, Note_off_c, 0, 73, 64
1, 195727, Note_off_c, 0, 69, 64
1, 195762, Note_on_c, 0, 44, 42
1, 195812, Note_off_c, 0, 44, 64
1, 195826, Note_on_c, 0, 32, 44
1, 195830, Note_on_c, 0, 71, 68
1, 195830, Note_on_c, 0, 68, 59
1, 195830, Note_on_c, 0, 76, 42
1, 195866, Note_off_c, 0, 71, 64
1, 195872, Note_off_c, 0, 76, 64
1, 195880, Note_off_c, 0, 68, 64
1, 195883, Note_off_c, 0, 32, 64
1, 195916, Note_on_c, 0, 44, 43
1, 195967, Note_off_c, 0, 44, 64
1, 195988, Note_on_c, 0, 32, 53
1, 195988, Note_on_c, 0, 66, 60
1, 195988, Note_on_c, 0, 69, 58
1, 195988, Note_on_c, 0, 75, 65
1, 196033, Note_off_c, 0, 66, 64
1, 196033, Note_off_c, 0, 75, 64
1, 196039, Note_off_c, 0, 69, 64
1, 196050, Note_off_c, 0, 32, 64
1, 196081, Note_on_c, 0, 44, 52
1, 196128, Note_off_c, 0, 44, 64
1, 196139, Note_on_c, 0, 66, 62
1, 196139, Note_on_c, 0, 69, 53
1, 196142, Note_on_c, 0, 75, 75
1, 196151, Note_on_c, 0, 32, 50
1, 196181, Note_off_c, 0, 66, 64
1, 196189, Note_off_c, 0, 69, 64
1, 196206, Note_off_c, 0, 32, 64
1, 196209, Note_off_c, 0, 75, 64
1, 196244, Note_on_c, 0, 44, 53
1, 196286, Note_off_c, 0, 44, 64
1, 196294, Note_on_c, 0, 76, 68
1, 196300, Note_on_c, 0, 68, 60
1, 196300, Note_on_c, 0, 71, 56
1, 196309, Note_on_c, 0, 32, 54
1, 196337, Note_off_c, 0, 76, 64
1, 196347, Note_off_c, 0, 71, 64
1, 196354, Note_off_c, 0, 32, 64
1, 196362, Note_off_c, 0, 68, 64
1, 196387, Note_on_c, 0, 44, 47
1, 196435, Note_off_c, 0, 44, 64
1, 196453, Note_on_c, 0, 75, 68
1, 196453, Note_on_c, 0, 32, 53
1, 196459, Note_on_c, 0, 66, 57
1, 196464, Note_on_c, 0, 69, 34
1, 196504, Note_off_c, 0, 75, 64
1, 196509, Note_off_c, 0, 32, 64
1, 196512, Note_off_c, 0, 69, 64
1, 196523, Note_off_c, 0, 66, 64
1, 196535, Note_on_c, 0, 44, 53
1, 196587, Note_off_c, 0, 44, 64
1, 196602, Note_on_c, 0, 73, 75
1, 196605, Note_on_c, 0, 32, 55
1, 196609, Note_on_c, 0, 68, 54
1, 196616, Note_on_c, 0, 64, 69
1, 196649, Note_off_c, 0, 68, 64
1, 196655, Note_off_c, 0, 64, 64
1, 196666, Note_off_c, 0, 32, 64
1, 196693, Note_on_c, 0, 44, 58
1, 196698, Note_off_c, 0, 73, 64
1, 196746, Note_off_c, 0, 44, 64
1, 196755, Note_on_c, 0, 73, 69
1, 196760, Note_on_c, 0, 32, 53
1, 196765, Note_on_c, 0, 64, 71
1, 196768, Note_on_c, 0, 68, 44
1, 196796, Note_off_c, 0, 64, 64
1, 196810, Note_off_c, 0, 68, 64
1, 196838, Note_off_c, 0, 32, 64
1, 196838, Note_off_c, 0, 73, 64
1, 196860, Note_on_c, 0, 44, 59
1, 196900, Note_on_c, 0, 75, 83
1, 196903, Note_off_c, 0, 44, 64
1, 196907, Note_on_c, 0, 66, 63
1, 196911, Note_on_c, 0, 69, 54
1, 196918, Note_on_c, 0, 32, 48
1, 196953, Note_off_c, 0, 66, 64
1, 196953, Note_off_c, 0, 69, 64
1, 196963, Note_off_c, 0, 75, 64
1, 196991, Note_off_c, 0, 32, 64
1, 197013, Note_on_c, 0, 44, 54
1, 197059, Note_on_c, 0, 73, 80
1, 197064, Note_off_c, 0, 44, 64
1, 197069, Note_on_c, 0, 68, 62
1, 197069, Note_on_c, 0, 64, 73
1, 197075, Note_on_c, 0, 32, 44
1, 197106, Note_off_c, 0, 64, 64
1, 197111, Note_off_c, 0, 68, 64
1, 197120, Note_off_c, 0, 73, 64
1, 197145, Note_off_c, 0, 32, 64
1, 197166, Note_on_c, 0, 44, 48
1, 197236, Note_off_c, 0, 44, 64
1, 197244, Note_on_c, 0, 72, 90
1, 197244, Note_on_c, 0, 32, 46
1, 197251, Note_on_c, 0, 63, 70
1, 197256, Note_on_c, 0, 66, 48
1, 197322, Note_off_c, 0, 32, 64
1, 197342, Note_on_c, 0, 44, 52
1, 197406, Note_off_c, 0, 44, 64
1, 197406, Note_on_c, 0, 32, 37
1, 197470, Control_c, 0, 64, 127
1, 197492, Note_off_c, 0, 32, 64
1, 197510, Note_on_c, 0, 44, 37
1, 197565, Note_on_c, 0, 32, 32
1, 197571, Note_off_c, 0, 44, 64
1, 197648, Note_off_c, 0, 32, 64
1, 197665, Note_on_c, 0, 44, 42
1, 197733, Note_off_c, 0, 44, 64
1, 197744, Note_on_c, 0, 32, 43
1, 197774, Note_off_c, 0, 66, 64
1, 197785, Note_off_c, 0, 63, 64
1, 197797, Note_off_c, 0, 32, 64
1, 197827, Note_off_c, 0, 72, 64
1, 197838, Note_on_c, 0, 44, 52
1, 197894, Note_off_c, 0, 44, 64
1, 197905, Note_on_c, 0, 73, 77
1, 197910, Note_on_c, 0, 61, 62
1, 197914, Note_on_c, 0, 32, 46
1, 197921, Note_on_c, 0, 64, 57
1, 197977, Note_off_c, 0, 32, 64
1, 198010, Note_on_c, 0, 44, 57
1, 198058, Control_c, 0, 64, 0
1, 198078, Note_on_c, 0, 32, 44
1, 198083, Note_off_c, 0, 44, 64
1, 198170, Note_off_c, 0, 32, 64
1, 198176, Note_on_c, 0, 44, 47
1, 198189, Control_c, 0, 64, 127
1, 198251, Note_on_c, 0, 32, 30
1, 198254, Note_off_c, 0, 44, 64
1, 198343, Note_off_c, 0, 32, 64
1, 198353, Note_on_c, 0, 44, 52
1, 198384, Note_off_c, 0, 64, 64
1, 198410, Note_off_c, 0, 61, 64
1, 198426, Note_off_c, 0, 73, 64
1, 198462, Note_on_c, 0, 32, 39
1, 198462, Note_on_c, 0, 60, 66
1, 198476, Note_off_c, 0, 44, 64
1, 198488, Control_c, 0, 64, 0
1, 198579, Note_on_c, 0, 66, 59
1, 198593, Note_off_c, 0, 32, 64
1, 198599, Note_on_c, 0, 44, 42
1, 198599, Control_c, 0, 64, 127
1, 198621, Note_off_c, 0, 60, 64
1, 198713, Note_off_c, 0, 44, 64
1, 198737, Note_on_c, 0, 75, 76
1, 198744, Note_on_c, 0, 32, 26
1, 198808, Note_off_c, 0, 32, 64
1, 198849, Note_on_c, 0, 44, 41
1, 198925, Note_off_c, 0, 44, 64
1, 198936, Note_on_c, 0, 32, 31
1, 199005, Note_off_c, 0, 32, 64
1, 199036, Note_on_c, 0, 44, 40
1, 199094, Note_off_c, 0, 44, 64
1, 199128, Note_on_c, 0, 32, 35
1, 199175, Note_off_c, 0, 32, 64
1, 199212, Note_on_c, 0, 44, 44
1, 199261, Note_off_c, 0, 44, 64
1, 199295, Note_on_c, 0, 32, 33
1, 199342, Note_off_c, 0, 32, 64
1, 199376, Note_on_c, 0, 44, 42
1, 199429, Note_off_c, 0, 44, 64
1, 199457, Note_on_c, 0, 32, 34
1, 199513, Note_off_c, 0, 32, 64
1, 199520, Note_off_c, 0, 75, 64
1, 199549, Note_off_c, 0, 66, 64
1, 199549, Note_on_c, 0, 44, 44
1, 199612, Note_off_c, 0, 44, 64
1, 199640, Note_on_c, 0, 32, 33
1, 199699, Note_off_c, 0, 32, 64
1, 199741, Note_on_c, 0, 44, 37
1, 199793, Note_off_c, 0, 44, 64
1, 199828, Note_on_c, 0, 32, 28
1, 199828, Note_on_c, 0, 73, 49
1, 199841, Note_on_c, 0, 61, 38
1, 199844, Note_on_c, 0, 64, 36
1, 199880, Control_c, 0, 64, 0
1, 199907, Note_off_c, 0, 32, 64
1, 199925, Note_on_c, 0, 44, 40
1, 200013, Note_off_c, 0, 44, 64
1, 200013, Note_off_c, 0, 64, 64
1, 200024, Note_on_c, 0, 32, 36
1, 200024, Control_c, 0, 64, 127
1, 200044, Note_off_c, 0, 61, 64
1, 200053, Note_off_c, 0, 73, 64
1, 200070, Note_off_c, 0, 32, 64
1, 200106, Note_on_c, 0, 44, 31
1, 200164, Note_off_c, 0, 44, 64
1, 200186, Note_on_c, 0, 63, 55
1, 200186, Note_on_c, 0, 66, 31
1, 200186, Note_on_c, 0, 72, 62
1, 200194, Note_on_c, 0, 32, 41
1, 200228, Control_c, 0, 64, 0
1, 200268, Note_off_c, 0, 32, 64
1, 200290, Note_on_c, 0, 44, 48
1, 200346, Control_c, 0, 64, 127
1, 200368, Note_off_c, 0, 44, 64
1, 200382, Note_on_c, 0, 32, 47
1, 200385, Note_off_c, 0, 66, 64
1, 200395, Note_off_c, 0, 72, 64
1, 200403, Note_off_c, 0, 63, 64
1, 200438, Note_off_c, 0, 32, 64
1, 200476, Note_on_c, 0, 44, 51
1, 200518, Note_on_c, 0, 72, 72
1, 200523, Note_on_c, 0, 66, 51
1, 200526, Note_on_c, 0, 63, 68
1, 200538, Note_off_c, 0, 44, 64
1, 200551, Note_on_c, 0, 32, 48
1, 200627, Note_off_c, 0, 32, 64
1, 200655, Note_on_c, 0, 44, 57
1, 200707, Note_off_c, 0, 44, 64
1, 200722, Note_off_c, 0, 66, 64
1, 200729, Note_on_c, 0, 32, 44
1, 200735, Note_off_c, 0, 63, 64
1, 200747, Note_off_c, 0, 72, 64
1, 200782, Note_off_c, 0, 32, 64
1, 200821, Note_on_c, 0, 44, 53
1, 200857, Note_on_c, 0, 73, 75
1, 200864, Note_on_c, 0, 61, 59
1, 200872, Note_off_c, 0, 44, 64
1, 200872, Note_on_c, 0, 64, 57
1, 200897, Note_on_c, 0, 32, 48
1, 200910, Control_c, 0, 64, 0
1, 200953, Note_off_c, 0, 32, 64
1, 200989, Note_on_c, 0, 44, 54
1, 201042, Note_off_c, 0, 44, 64
1, 201042, Control_c, 0, 64, 127
1, 201059, Note_on_c, 0, 32, 49
1, 201073, Note_off_c, 0, 64, 64
1, 201088, Note_off_c, 0, 61, 64
1, 201094, Note_off_c, 0, 73, 64
1, 201115, Note_off_c, 0, 32, 64
1, 201147, Note_on_c, 0, 44, 51
1, 201201, Note_on_c, 0, 73, 79
1, 201205, Note_on_c, 0, 61, 69
1, 201209, Note_off_c, 0, 44, 64
1, 201209, Note_on_c, 0, 64, 60
1, 201229, Note_on_c, 0, 32, 47
1, 201312, Note_off_c, 0, 32, 64
1, 201326, Note_on_c, 0, 44, 52
1, 201378, Note_off_c, 0, 64, 64
1, 201396, Note_off_c, 0, 44, 64
1, 201399, Note_off_c, 0, 61, 64
1, 201417, Note_off_c, 0, 73, 64
1, 201417, Note_on_c, 0, 32, 46
1, 201488, Note_on_c, 0, 60, 76
1, 201521, Control_c, 0, 64, 0
1, 201596, Note_on_c, 0, 66, 62
1, 201621, Note_on_c, 0, 44, 44
1, 201641, Control_c, 0, 64, 127
1, 201644, Note_off_c, 0, 32, 64
1, 201654, Note_off_c, 0, 60, 64
1, 201768, Note_on_c, 0, 75, 72
1, 201786, Note_off_c, 0, 44, 64
1, 201825, Note_on_c, 0, 32, 34
1, 201908, Note_off_c, 0, 32, 64
1, 201927, Note_on_c, 0, 44, 42
1, 202000, Note_off_c, 0, 44, 64
1, 202034, Note_on_c, 0, 32, 29
1, 202105, Note_off_c, 0, 32, 64
1, 202134, Note_on_c, 0, 44, 41
1, 202203, Note_off_c, 0, 44, 64
1, 202228, Note_on_c, 0, 32, 39
1, 202301, Note_off_c, 0, 32, 64
1, 202328, Note_on_c, 0, 44, 43
1, 202396, Note_off_c, 0, 44, 64
1, 202418, Note_on_c, 0, 32, 43
1, 202481, Note_off_c, 0, 32, 64
1, 202488, Note_off_c, 0, 75, 64
1, 202519, Note_on_c, 0, 44, 43
1, 202544, Note_off_c, 0, 66, 64
1, 202587, Note_off_c, 0, 44, 64
1, 202630, Note_on_c, 0, 32, 28
1, 202694, Note_off_c, 0, 32, 64
1, 202741, Note_on_c, 0, 44, 34
1, 202796, Note_off_c, 0, 44, 64
1, 202827, Note_on_c, 0, 64, 41
1, 202827, Note_on_c, 0, 61, 37
1, 202846, Note_on_c, 0, 32, 24
1, 202900, Control_c, 0, 64, 0
1, 202919, Note_off_c, 0, 32, 64
1, 202952, Note_on_c, 0, 44, 35
1, 202983, Control_c, 0, 64, 127
1, 203023, Note_off_c, 0, 44, 64
1, 203055, Note_on_c, 0, 73, 41
1, 203066, Note_on_c, 0, 32, 17
1, 203092, Note_off_c, 0, 61, 64
1, 203092, Note_off_c, 0, 64, 64
1, 203126, Note_off_c, 0, 32, 64
1, 203172, Note_off_c, 0, 73, 64
1, 203176, Note_on_c, 0, 44, 35
1, 203237, Note_off_c, 0, 44, 64
1, 203245, Note_on_c, 0, 63, 36
1, 203245, Note_on_c, 0, 66, 34
1, 203271, Note_on_c, 0, 32, 26
1, 203282, Control_c, 0, 64, 0
1, 203384, Note_off_c, 0, 32, 64
1, 203388, Note_on_c, 0, 44, 45
1, 203427, Control_c, 0, 64, 127
1, 203452, Note_off_c, 0, 44, 64
1, 203477, Note_on_c, 0, 72, 42
1, 203487, Note_off_c, 0, 63, 64
1, 203491, Note_on_c, 0, 32, 18
1, 203505, Note_off_c, 0, 66, 64
1, 203548, Note_off_c, 0, 32, 64
1, 203585, Note_on_c, 0, 44, 42
1, 203624, Note_off_c, 0, 72, 64
1, 203643, Note_off_c, 0, 44, 64
1, 203671, Note_on_c, 0, 63, 47
1, 203671, Note_on_c, 0, 66, 39
1, 203675, Note_on_c, 0, 32, 37
1, 203730, Note_off_c, 0, 32, 64
1, 203766, Note_on_c, 0, 44, 42
1, 203813, Note_off_c, 0, 63, 64
1, 203828, Note_off_c, 0, 44, 64
1, 203855, Note_on_c, 0, 32, 38
1, 203863, Note_on_c, 0, 72, 59
1, 203878, Note_off_c, 0, 66, 64
1, 203911, Note_off_c, 0, 32, 64
1, 203934, Note_off_c, 0, 72, 64
1, 203950, Note_on_c, 0, 44, 45
1, 204005, Note_off_c, 0, 44, 64
1, 204026, Control_c, 0, 64, 0
1, 204030, Note_on_c, 0, 32, 45
1, 204030, Note_on_c, 0, 61, 59
1, 204034, Note_on_c, 0, 64, 70
1, 204120, Note_off_c, 0, 32, 64
1, 204134, Note_on_c, 0, 44, 47
1, 204170, Control_c, 0, 64, 127
1, 204207, Note_off_c, 0, 44, 64
1, 204229, Note_on_c, 0, 32, 38
1, 204229, Note_on_c, 0, 73, 59
1, 204260, Note_off_c, 0, 61, 64
1, 204282, Note_off_c, 0, 64, 64
1, 204285, Note_off_c, 0, 32, 64
1, 204326, Note_on_c, 0, 44, 56
1, 204343, Note_off_c, 0, 73, 64
1, 204377, Note_off_c, 0, 44, 64
1, 204402, Note_on_c, 0, 32, 48
1, 204407, Note_on_c, 0, 61, 61
1, 204407, Note_on_c, 0, 64, 76
1, 204485, Note_off_c, 0, 32, 64
1, 204496, Note_on_c, 0, 44, 52
1, 204566, Note_off_c, 0, 44, 64
1, 204574, Note_off_c, 0, 64, 64
1, 204593, Note_on_c, 0, 32, 42
1, 204593, Note_on_c, 0, 73, 67
1, 204622, Note_off_c, 0, 61, 64
1, 204661, Note_off_c, 0, 32, 64
1, 204682, Note_on_c, 0, 44, 58
1, 204713, Note_off_c, 0, 73, 64
1, 204746, Control_c, 0, 64, 0
1, 204753, Note_off_c, 0, 44, 64
1, 204774, Note_on_c, 0, 60, 66
1, 204774, Note_on_c, 0, 32, 53
1, 204778, Note_on_c, 0, 66, 61
1, 204864, Control_c, 0, 64, 127
1, 204877, Note_off_c, 0, 60, 64
1, 204883, Note_off_c, 0, 32, 64
1, 204891, Note_on_c, 0, 44, 52
1, 204928, Note_off_c, 0, 66, 64
1, 204966, Note_off_c, 0, 44, 64
1, 204981, Note_on_c, 0, 75, 78
1, 204989, Note_on_c, 0, 32, 34
1, 205019, Note_off_c, 0, 75, 64
1, 205061, Note_off_c, 0, 32, 64
1, 205086, Note_on_c, 0, 44, 48
1, 205150, Note_off_c, 0, 44, 64
1, 205165, Note_on_c, 0, 60, 65
1, 205168, Note_on_c, 0, 66, 57
1, 205168, Note_on_c, 0, 32, 43
1, 205218, Note_off_c, 0, 60, 64
1, 205253, Note_off_c, 0, 32, 64
1, 205267, Note_off_c, 0, 66, 64
1, 205274, Note_on_c, 0, 44, 48
1, 205332, Note_off_c, 0, 44, 64
1, 205368, Note_on_c, 0, 75, 72
1, 205373, Note_on_c, 0, 32, 39
1, 205399, Note_off_c, 0, 75, 64
1, 205440, Note_off_c, 0, 32, 64
1, 205468, Note_on_c, 0, 44, 38
1, 205549, Note_off_c, 0, 44, 64
1, 205569, Note_on_c, 0, 64, 66
1, 205569, Note_on_c, 0, 61, 52
1, 205573, Control_c, 0, 64, 0
1, 205597, Note_on_c, 0, 33, 42
1, 205713, Note_off_c, 0, 33, 64
1, 205713, Note_on_c, 0, 45, 40
1, 205728, Control_c, 0, 64, 127
1, 205760, Note_off_c, 0, 61, 64
1, 205769, Note_off_c, 0, 45, 64
1, 205791, Note_on_c, 0, 73, 56
1, 205814, Note_on_c, 0, 33, 34
1, 205819, Note_off_c, 0, 64, 64
1, 205883, Note_off_c, 0, 33, 64
1, 205902, Note_off_c, 0, 73, 64
1, 205925, Note_on_c, 0, 45, 31
1, 205992, Note_off_c, 0, 45, 64
1, 206011, Note_on_c, 0, 61, 34
1, 206023, Note_on_c, 0, 64, 59
1, 206028, Note_on_c, 0, 33, 33
1, 206108, Note_off_c, 0, 61, 64
1, 206114, Note_off_c, 0, 64, 64
1, 206126, Note_off_c, 0, 33, 64
1, 206161, Note_on_c, 0, 45, 13
1, 206214, Note_off_c, 0, 45, 64
1, 206262, Note_on_c, 0, 33, 39
1, 206262, Note_on_c, 0, 73, 51
1, 206315, Note_off_c, 0, 73, 64
1, 206335, Note_off_c, 0, 33, 64
1, 206404, Note_on_c, 0, 45, 28
1, 206462, Note_off_c, 0, 45, 64
1, 206697, Note_on_c, 0, 57, 30
1, 206697, Control_c, 0, 64, 0
1, 206697, Note_on_c, 0, 63, 43
1, 206702, Note_on_c, 0, 69, 51
1, 206702, Note_on_c, 0, 61, 42
1, 206702, Note_on_c, 0, 30, 53
1, 206702, Note_on_c, 0, 42, 41
1, 206858, Note_off_c, 0, 30, 64
1, 206863, Note_off_c, 0, 42, 64
1, 206891, Control_c, 0, 64, 127
1, 207892, Note_off_c, 0, 57, 64
1, 207944, Note_off_c, 0, 63, 64
1, 207978, Note_off_c, 0, 69, 64
1, 208000, Note_off_c, 0, 61, 64
1, 208939, Note_on_c, 0, 68, 28
1, 208951, Note_on_c, 0, 63, 27
1, 208954, Note_on_c, 0, 60, 19
1, 208954, Note_on_c, 0, 56, 17
1, 208954, Note_on_c, 0, 44, 20
1, 208954, Note_on_c, 0, 32, 14
1, 209071, Control_c, 0, 64, 0
1, 209755, Control_c, 0, 64, 127
1, 209869, Note_off_c, 0, 44, 64
1, 209933, Note_off_c, 0, 56, 64
1, 210031, Note_off_c, 0, 32, 64
1, 210046, Note_off_c, 0, 60, 64
1, 210092, Note_off_c, 0, 68, 64
1, 210120, Note_off_c, 0, 63, 64
1, 210828, Note_on_c, 0, 37, 86
1, 210834, Control_c, 0, 64, 0
1, 210859, Note_off_c, 0, 37, 64
1, 210883, Note_on_c, 0, 44, 80
1, 210926, Note_off_c, 0, 44, 64
1, 210953, Note_on_c, 0, 44, 28
1, 210953, Note_on_c, 0, 49, 65
1, 211004, Note_off_c, 0, 44, 64
1, 211026, Note_off_c, 0, 49, 64
1, 211029, Note_on_c, 0, 52, 63
1, 211071, Note_off_c, 0, 52, 64
1, 211075, Note_on_c, 0, 56, 58
1, 211092, Note_on_c, 0, 37, 58
1, 211124, Note_off_c, 0, 37, 64
1, 211124, Note_off_c, 0, 56, 64
1, 211134, Note_on_c, 0, 49, 65
1, 211193, Note_on_c, 0, 52, 84
1, 211201, Note_on_c, 0, 44, 57
1, 211212, Note_off_c, 0, 49, 64
1, 211241, Note_off_c, 0, 44, 64
1, 211272, Note_on_c, 0, 56, 64
1, 211288, Note_off_c, 0, 52, 64
1, 211337, Note_on_c, 0, 61, 67
1, 211348, Note_on_c, 0, 37, 55
1, 211371, Note_off_c, 0, 61, 64
1, 211371, Note_off_c, 0, 56, 64
1, 211387, Note_off_c, 0, 37, 64
1, 211408, Note_on_c, 0, 52, 85
1, 211444, Note_off_c, 0, 52, 64
1, 211452, Note_on_c, 0, 44, 58
1, 211465, Note_on_c, 0, 56, 54
1, 211500, Note_off_c, 0, 44, 64
1, 211530, Note_on_c, 0, 61, 62
1, 211541, Note_off_c, 0, 56, 64
1, 211588, Note_on_c, 0, 64, 74
1, 211599, Note_on_c, 0, 37, 57
1, 211621, Note_off_c, 0, 64, 64
1, 211633, Note_off_c, 0, 61, 64
1, 211641, Note_off_c, 0, 37, 64
1, 211641, Note_on_c, 0, 56, 69
1, 211711, Note_on_c, 0, 44, 52
1, 211731, Note_off_c, 0, 56, 64
1, 211745, Note_on_c, 0, 61, 57
1, 211762, Note_off_c, 0, 44, 64
1, 211769, Note_on_c, 0, 64, 78
1, 211783, Note_off_c, 0, 61, 64
1, 211839, Note_on_c, 0, 68, 63
1, 211850, Note_off_c, 0, 64, 64
1, 211859, Note_on_c, 0, 37, 56
1, 211879, Note_off_c, 0, 68, 64
1, 211894, Note_on_c, 0, 61, 68
1, 211898, Note_off_c, 0, 37, 64
1, 211970, Note_on_c, 0, 64, 69
1, 211976, Note_on_c, 0, 44, 55
1, 211982, Note_off_c, 0, 61, 64
1, 212025, Note_off_c, 0, 44, 64
1, 212025, Note_on_c, 0, 68, 65
1, 212034, Note_off_c, 0, 64, 64
1, 212087, Note_on_c, 0, 73, 67
1, 212099, Note_on_c, 0, 37, 63
1, 212115, Note_off_c, 0, 68, 64
1, 212124, Note_off_c, 0, 73, 64
1, 212140, Note_off_c, 0, 37, 64
1, 212152, Note_on_c, 0, 64, 69
1, 212195, Note_on_c, 0, 68, 55
1, 212213, Note_off_c, 0, 64, 64
1, 212229, Note_on_c, 0, 44, 56
1, 212269, Note_on_c, 0, 73, 63
1, 212274, Note_off_c, 0, 44, 64
1, 212291, Note_off_c, 0, 68, 64
1, 212327, Note_on_c, 0, 76, 71
1, 212338, Note_on_c, 0, 37, 66
1, 212351, Note_off_c, 0, 73, 64
1, 212357, Note_off_c, 0, 76, 64
1, 212386, Note_off_c, 0, 37, 64
1, 212393, Note_on_c, 0, 68, 68
1, 212450, Note_on_c, 0, 73, 54
1, 212472, Note_off_c, 0, 68, 64
1, 212472, Note_on_c, 0, 44, 68
1, 212489, Note_on_c, 0, 76, 66
1, 212510, Note_off_c, 0, 44, 64
1, 212522, Note_off_c, 0, 76, 64
1, 212539, Note_off_c, 0, 73, 64
1, 212557, Note_on_c, 0, 76, 101
1, 212557, Note_on_c, 0, 80, 97
1, 212560, Note_on_c, 0, 68, 96
1, 212563, Note_on_c, 0, 73, 72
1, 212566, Note_on_c, 0, 49, 106
1, 212566, Note_on_c, 0, 70, 48
1, 212571, Note_on_c, 0, 37, 97
1, 212613, Note_off_c, 0, 70, 64
1, 212625, Note_off_c, 0, 80, 64
1, 212631, Control_c, 0, 64, 127
1, 212641, Note_off_c, 0, 76, 64
1, 212644, Note_off_c, 0, 49, 64
1, 212661, Note_off_c, 0, 68, 64
1, 212661, Note_off_c, 0, 37, 64
1, 212667, Note_off_c, 0, 73, 64
1, 212683, Note_on_c, 0, 80, 79
1, 212683, Note_on_c, 0, 76, 85
1, 212686, Note_on_c, 0, 73, 52
1, 212695, Note_on_c, 0, 68, 80
1, 212702, Note_on_c, 0, 44, 83
1, 212706, Note_off_c, 0, 80, 64
1, 212714, Note_off_c, 0, 76, 64
1, 212719, Note_off_c, 0, 73, 64
1, 212737, Note_off_c, 0, 44, 64
1, 212762, Note_off_c, 0, 68, 64
1, 212798, Control_c, 0, 64, 0
1, 212859, Note_on_c, 0, 36, 102
1, 212925, Note_off_c, 0, 36, 64
1, 212984, Note_on_c, 0, 48, 67
1, 212989, Note_on_c, 0, 44, 59
1, 213040, Note_off_c, 0, 44, 64
1, 213046, Note_on_c, 0, 51, 77
1, 213070, Note_off_c, 0, 48, 64
1, 213120, Note_on_c, 0, 56, 67
1, 213128, Note_on_c, 0, 36, 79
1, 213157, Note_off_c, 0, 51, 64
1, 213157, Note_off_c, 0, 56, 64
1, 213168, Note_off_c, 0, 36, 64
1, 213181, Note_on_c, 0, 48, 74
1, 213240, Note_on_c, 0, 51, 69
1, 213246, Note_on_c, 0, 44, 71
1, 213271, Note_off_c, 0, 48, 64
1, 213305, Note_on_c, 0, 56, 72
1, 213318, Note_off_c, 0, 44, 64
1, 213349, Note_off_c, 0, 51, 64
1, 213362, Note_on_c, 0, 60, 84
1, 213374, Note_off_c, 0, 56, 64
1, 213388, Note_on_c, 0, 36, 72
1, 213416, Note_off_c, 0, 60, 64
1, 213424, Note_off_c, 0, 36, 64
1, 213443, Note_on_c, 0, 51, 79
1, 213497, Note_on_c, 0, 56, 79
1, 213507, Note_on_c, 0, 44, 65
1, 213519, Note_off_c, 0, 51, 64
1, 213555, Note_on_c, 0, 60, 72
1, 213566, Note_off_c, 0, 44, 64
1, 213610, Note_off_c, 0, 56, 64
1, 213625, Note_on_c, 0, 63, 84
1, 213630, Note_on_c, 0, 36, 76
1, 213647, Note_off_c, 0, 60, 64
1, 213655, Note_on_c, 0, 56, 78
1, 213691, Note_off_c, 0, 63, 64
1, 213703, Note_off_c, 0, 36, 64
1, 213737, Note_on_c, 0, 60, 77
1, 213764, Note_on_c, 0, 44, 71
1, 213770, Note_off_c, 0, 56, 64
1, 213803, Note_on_c, 0, 63, 84
1, 213836, Note_off_c, 0, 44, 64
1, 213844, Note_off_c, 0, 60, 64
1, 213879, Note_on_c, 0, 68, 78
1, 213900, Note_on_c, 0, 36, 86
1, 213906, Note_off_c, 0, 63, 64
1, 213950, Note_on_c, 0, 60, 79
1, 213967, Note_off_c, 0, 68, 64
1, 213973, Note_off_c, 0, 36, 64
1, 214003, Note_on_c, 0, 63, 86
1, 214031, Note_on_c, 0, 44, 73
1, 214035, Note_off_c, 0, 60, 64
1, 214071, Note_off_c, 0, 44, 64
1, 214074, Note_on_c, 0, 68, 72
1, 214087, Note_off_c, 0, 63, 64
1, 214132, Note_on_c, 0, 72, 76
1, 214140, Note_on_c, 0, 36, 76
1, 214157, Note_off_c, 0, 68, 64
1, 214165, Note_off_c, 0, 72, 64
1, 214191, Note_on_c, 0, 63, 92
1, 214202, Note_off_c, 0, 36, 64
1, 214243, Note_on_c, 0, 68, 62
1, 214251, Note_on_c, 0, 44, 70
1, 214279, Note_off_c, 0, 63, 64
1, 214296, Note_on_c, 0, 72, 72
1, 214307, Note_off_c, 0, 44, 64
1, 214351, Note_off_c, 0, 68, 64
1, 214372, Note_on_c, 0, 75, 79
1, 214385, Note_on_c, 0, 36, 73
1, 214390, Note_on_c, 0, 48, 74
1, 214394, Note_off_c, 0, 72, 64
1, 214415, Note_on_c, 0, 68, 61
1, 214415, Note_off_c, 0, 75, 64
1, 214463, Note_off_c, 0, 48, 64
1, 214494, Note_off_c, 0, 36, 64
1, 214502, Note_on_c, 0, 72, 65
1, 214502, Note_off_c, 0, 68, 64
1, 214502, Note_on_c, 0, 44, 76
1, 214535, Note_on_c, 0, 75, 76
1, 214569, Note_off_c, 0, 75, 64
1, 214581, Note_off_c, 0, 44, 64
1, 214595, Note_off_c, 0, 72, 64
1, 214619, Note_on_c, 0, 75, 92
1, 214619, Note_on_c, 0, 48, 101
1, 214619, Note_on_c, 0, 80, 107
1, 214622, Note_on_c, 0, 36, 98
1, 214622, Note_on_c, 0, 72, 98
1, 214622, Note_on_c, 0, 68, 105
1, 214692, Note_off_c, 0, 72, 64
1, 214702, Note_off_c, 0, 36, 64
1, 214706, Note_off_c, 0, 48, 64
1, 214706, Note_off_c, 0, 68, 64
1, 214709, Note_off_c, 0, 80, 64
1, 214720, Note_off_c, 0, 75, 64
1, 214753, Control_c, 0, 64, 127
1, 214753, Note_on_c, 0, 80, 82
1, 214753, Note_on_c, 0, 72, 69
1, 214753, Note_on_c, 0, 68, 67
1, 214753, Note_on_c, 0, 75, 83
1, 214759, Note_on_c, 0, 44, 84
1, 214780, Note_off_c, 0, 80, 64
1, 214797, Note_off_c, 0, 75, 64
1, 214820, Note_off_c, 0, 44, 64
1, 214840, Note_off_c, 0, 68, 64
1, 214840, Note_off_c, 0, 72, 64
1, 214884, Control_c, 0, 64, 0
1, 214914, Note_on_c, 0, 35, 108
1, 214981, Note_on_c, 0, 49, 94
1, 214981, Note_off_c, 0, 35, 64
1, 215042, Note_on_c, 0, 44, 72
1, 215051, Note_on_c, 0, 53, 94
1, 215067, Note_off_c, 0, 49, 64
1, 215107, Note_on_c, 0, 56, 73
1, 215118, Note_off_c, 0, 44, 64
1, 215141, Note_off_c, 0, 53, 64
1, 215179, Note_on_c, 0, 35, 92
1, 215191, Note_on_c, 0, 61, 78
1, 215218, Note_off_c, 0, 56, 64
1, 215230, Note_off_c, 0, 61, 64
1, 215246, Note_on_c, 0, 53, 102
1, 215262, Note_off_c, 0, 35, 64
1, 215299, Note_on_c, 0, 44, 70
1, 215304, Note_on_c, 0, 56, 70
1, 215316, Note_off_c, 0, 53, 64
1, 215365, Note_on_c, 0, 61, 77
1, 215399, Note_off_c, 0, 44, 64
1, 215399, Note_off_c, 0, 56, 64
1, 215446, Note_on_c, 0, 65, 77
1, 215450, Note_on_c, 0, 35, 86
1, 215478, Note_off_c, 0, 61, 64
1, 215488, Note_off_c, 0, 65, 64
1, 215508, Note_on_c, 0, 56, 86
1, 215517, Note_off_c, 0, 35, 64
1, 215572, Note_on_c, 0, 44, 67
1, 215572, Note_on_c, 0, 61, 76
1, 215599, Note_off_c, 0, 56, 64
1, 215623, Note_on_c, 0, 65, 65
1, 215661, Note_off_c, 0, 44, 64
1, 215686, Note_off_c, 0, 61, 64
1, 215705, Note_on_c, 0, 68, 82
1, 215723, Note_on_c, 0, 35, 85
1, 215736, Note_off_c, 0, 65, 64
1, 215759, Note_on_c, 0, 61, 74
1, 215778, Note_off_c, 0, 68, 64
1, 215795, Note_off_c, 0, 35, 64
1, 215833, Note_on_c, 0, 65, 59
1, 215843, Note_on_c, 0, 44, 65
1, 215856, Note_off_c, 0, 61, 64
1, 215892, Note_on_c, 0, 68, 75
1, 215926, Note_off_c, 0, 44, 64
1, 215932, Note_off_c, 0, 65, 64
1, 215964, Note_on_c, 0, 73, 81
1, 215978, Note_on_c, 0, 35, 86
1, 215993, Note_off_c, 0, 68, 64
1, 216028, Note_off_c, 0, 35, 64
1, 216035, Note_off_c, 0, 73, 64
1, 216049, Note_on_c, 0, 65, 76
1, 216091, Note_on_c, 0, 44, 75
1, 216091, Note_on_c, 0, 68, 75
1, 216126, Note_off_c, 0, 65, 64
1, 216155, Note_on_c, 0, 73, 69
1, 216177, Note_off_c, 0, 44, 64
1, 216194, Note_off_c, 0, 68, 64
1, 216227, Note_on_c, 0, 35, 82
1, 216233, Note_on_c, 0, 77, 49
1, 216246, Note_off_c, 0, 73, 64
1, 216271, Note_off_c, 0, 77, 64
1, 216280, Note_on_c, 0, 68, 81
1, 216296, Note_off_c, 0, 35, 64
1, 216340, Note_on_c, 0, 73, 72
1, 216354, Note_on_c, 0, 44, 63
1, 216361, Note_off_c, 0, 68, 64
1, 216399, Note_on_c, 0, 77, 74
1, 216408, Note_off_c, 0, 44, 64
1, 216449, Note_off_c, 0, 73, 64
1, 216463, Note_on_c, 0, 80, 83
1, 216463, Note_on_c, 0, 35, 91
1, 216486, Note_off_c, 0, 77, 64
1, 216499, Note_on_c, 0, 73, 68
1, 216527, Note_off_c, 0, 80, 64
1, 216555, Note_off_c, 0, 35, 64
1, 216574, Note_on_c, 0, 77, 66
1, 216592, Note_on_c, 0, 44, 72
1, 216619, Note_off_c, 0, 73, 64
1, 216636, Note_on_c, 0, 80, 77
1, 216644, Note_off_c, 0, 44, 64
1, 216670, Note_off_c, 0, 80, 64
1, 216683, Note_off_c, 0, 77, 64
1, 216714, Note_on_c, 0, 77, 103
1, 216714, Note_on_c, 0, 35, 103
1, 216714, Note_on_c, 0, 47, 103
1, 216717, Note_on_c, 0, 80, 90
1, 216717, Note_on_c, 0, 73, 103
1, 216720, Note_on_c, 0, 85, 106
1, 216811, Note_off_c, 0, 35, 64
1, 216817, Note_off_c, 0, 85, 64
1, 216825, Note_off_c, 0, 77, 64
1, 216825, Note_off_c, 0, 73, 64
1, 216829, Note_off_c, 0, 80, 64
1, 216850, Control_c, 0, 64, 127
1, 216864, Note_on_c, 0, 85, 73
1, 216864, Note_on_c, 0, 73, 73
1, 216868, Note_on_c, 0, 44, 83
1, 216868, Note_on_c, 0, 77, 78
1, 216872, Note_on_c, 0, 80, 81
1, 216892, Note_off_c, 0, 85, 64
1, 216895, Note_off_c, 0, 77, 64
1, 216903, Note_off_c, 0, 80, 64
1, 216906, Note_off_c, 0, 47, 64
1, 216942, Note_off_c, 0, 73, 64
1, 216948, Note_off_c, 0, 44, 64
1, 217006, Control_c, 0, 64, 0
1, 217043, Note_on_c, 0, 33, 110
1, 217115, Note_on_c, 0, 49, 82
1, 217154, Note_off_c, 0, 33, 64
1, 217173, Note_on_c, 0, 54, 84
1, 217173, Note_on_c, 0, 45, 59
1, 217185, Control_c, 0, 64, 127
1, 217202, Note_off_c, 0, 49, 64
1, 217227, Note_on_c, 0, 57, 66
1, 217272, Note_off_c, 0, 45, 64
1, 217277, Note_off_c, 0, 54, 64
1, 217290, Note_on_c, 0, 61, 80
1, 217296, Note_on_c, 0, 33, 89
1, 217316, Note_off_c, 0, 57, 64
1, 217322, Note_off_c, 0, 61, 64
1, 217363, Note_on_c, 0, 61, 79
1, 217396, Note_off_c, 0, 33, 64
1, 217430, Note_on_c, 0, 45, 67
1, 217444, Note_on_c, 0, 66, 67
1, 217464, Note_off_c, 0, 61, 64
1, 217474, Control_c, 0, 64, 0
1, 217514, Note_on_c, 0, 69, 59
1, 217550, Note_off_c, 0, 45, 64
1, 217569, Note_on_c, 0, 33, 87
1, 217569, Note_on_c, 0, 73, 80
1, 217578, Note_off_c, 0, 66, 64
1, 217598, Note_off_c, 0, 73, 64
1, 217612, Note_off_c, 0, 69, 64
1, 217617, Control_c, 0, 64, 127
1, 217637, Note_on_c, 0, 73, 78
1, 217673, Note_off_c, 0, 33, 64
1, 217711, Note_on_c, 0, 78, 69
1, 217723, Note_on_c, 0, 45, 52
1, 217758, Note_off_c, 0, 73, 64
1, 217787, Note_on_c, 0, 81, 66
1, 217801, Note_off_c, 0, 78, 64
1, 217809, Control_c, 0, 64, 0
1, 217817, Note_off_c, 0, 45, 64
1, 217817, Note_off_c, 0, 81, 64
1, 217850, Note_on_c, 0, 33, 103
1, 217850, Note_on_c, 0, 78, 93
1, 217850, Note_on_c, 0, 73, 109
1, 217854, Note_on_c, 0, 85, 106
1, 217951, Note_off_c, 0, 85, 64
1, 217962, Note_off_c, 0, 73, 64
1, 217962, Note_off_c, 0, 78, 64
1, 217962, Control_c, 0, 64, 127
1, 217967, Note_off_c, 0, 33, 64
1, 217996, Note_on_c, 0, 85, 84
1, 217999, Note_on_c, 0, 73, 92
1, 217999, Note_on_c, 0, 78, 93
1, 218017, Note_on_c, 0, 45, 66
1, 218024, Note_off_c, 0, 85, 64
1, 218035, Note_off_c, 0, 78, 64
1, 218076, Note_off_c, 0, 73, 64
1, 218107, Note_off_c, 0, 45, 64
1, 218121, Control_c, 0, 64, 0
1, 218154, Note_on_c, 0, 33, 106
1, 218224, Note_on_c, 0, 49, 93
1, 218276, Note_off_c, 0, 33, 64
1, 218290, Note_on_c, 0, 52, 94
1, 218296, Note_off_c, 0, 49, 64
1, 218305, Note_on_c, 0, 45, 64
1, 218313, Control_c, 0, 64, 127
1, 218357, Note_on_c, 0, 55, 80
1, 218357, Control_c, 0, 64, 0
1, 218372, Note_off_c, 0, 52, 64
1, 218399, Note_off_c, 0, 45, 64
1, 218416, Note_on_c, 0, 61, 84
1, 218424, Note_on_c, 0, 33, 83
1, 218441, Note_off_c, 0, 55, 64
1, 218441, Note_off_c, 0, 61, 64
1, 218480, Note_on_c, 0, 61, 84
1, 218492, Control_c, 0, 64, 127
1, 218522, Note_off_c, 0, 33, 64
1, 218539, Control_c, 0, 64, 0
1, 218555, Note_on_c, 0, 64, 90
1, 218569, Note_on_c, 0, 45, 52
1, 218573, Note_off_c, 0, 61, 64
1, 218620, Note_on_c, 0, 67, 76
1, 218641, Note_off_c, 0, 64, 64
1, 218659, Control_c, 0, 64, 127
1, 218670, Note_off_c, 0, 45, 64
1, 218681, Note_on_c, 0, 73, 77
1, 218692, Note_on_c, 0, 33, 81
1, 218695, Control_c, 0, 64, 0
1, 218701, Note_off_c, 0, 67, 64
1, 218708, Note_off_c, 0, 73, 64
1, 218745, Note_on_c, 0, 73, 81
1, 218789, Note_off_c, 0, 33, 64
1, 218817, Note_on_c, 0, 76, 72
1, 218831, Note_on_c, 0, 45, 61
1, 218845, Note_off_c, 0, 73, 64
1, 218862, Note_on_c, 0, 79, 85
1, 218887, Note_off_c, 0, 76, 64
1, 218887, Note_off_c, 0, 79, 64
1, 218892, Note_off_c, 0, 45, 64
1, 218953, Note_on_c, 0, 79, 63
1, 218953, Note_on_c, 0, 73, 107
1, 218959, Note_on_c, 0, 45, 81
1, 218959, Note_on_c, 0, 85, 107
1, 218963, Note_on_c, 0, 33, 103
1, 219037, Note_off_c, 0, 45, 64
1, 219043, Note_off_c, 0, 33, 64
1, 219063, Note_off_c, 0, 85, 64
1, 219063, Note_off_c, 0, 73, 64
1, 219068, Note_off_c, 0, 79, 64
1, 219124, Note_on_c, 0, 79, 98
1, 219124, Note_on_c, 0, 85, 89
1, 219124, Note_on_c, 0, 73, 95
1, 219137, Note_on_c, 0, 45, 85
1, 219140, Note_on_c, 0, 33, 97
1, 219151, Control_c, 0, 64, 127
1, 219172, Note_off_c, 0, 45, 64
1, 219172, Note_off_c, 0, 33, 64
1, 219187, Control_c, 0, 64, 0
1, 219241, Note_off_c, 0, 73, 64
1, 219260, Note_off_c, 0, 85, 64
1, 219266, Note_off_c, 0, 79, 64
1, 219314, Note_on_c, 0, 80, 92
1, 219314, Note_on_c, 0, 72, 111
1, 219314, Note_on_c, 0, 84, 108
1, 219319, Note_on_c, 0, 44, 106
1, 219319, Note_on_c, 0, 32, 85
1, 219344, Note_off_c, 0, 32, 64
1, 219350, Note_off_c, 0, 44, 64
1, 219372, Note_off_c, 0, 80, 64
1, 219377, Note_off_c, 0, 72, 64
1, 219377, Note_off_c, 0, 84, 64
1, 219377, Control_c, 0, 64, 127
1, 219547, Note_on_c, 0, 56, 79
1, 219551, Note_on_c, 0, 68, 79
1, 219551, Note_on_c, 0, 60, 67
1, 219598, Note_off_c, 0, 60, 64
1, 219628, Note_on_c, 0, 80, 71
1, 219628, Note_off_c, 0, 68, 64
1, 219667, Control_c, 0, 64, 0
1, 219701, Note_on_c, 0, 60, 72
1, 219704, Note_on_c, 0, 68, 70
1, 219717, Note_off_c, 0, 80, 64
1, 219776, Note_on_c, 0, 80, 59
1, 219787, Note_off_c, 0, 68, 64
1, 219821, Control_c, 0, 64, 127
1, 219857, Note_off_c, 0, 60, 64
1, 219868, Note_off_c, 0, 80, 64
1, 219868, Note_on_c, 0, 70, 59
1, 219868, Note_on_c, 0, 61, 61
1, 219934, Note_on_c, 0, 80, 49
1, 219951, Note_off_c, 0, 70, 64
1, 220002, Control_c, 0, 64, 0
1, 220023, Note_off_c, 0, 80, 64
1, 220023, Note_on_c, 0, 72, 66
1, 220037, Note_on_c, 0, 63, 62
1, 220076, Note_off_c, 0, 61, 64
1, 220090, Note_on_c, 0, 80, 46
1, 220126, Note_off_c, 0, 72, 64
1, 220169, Control_c, 0, 64, 127
1, 220173, Note_on_c, 0, 73, 62
1, 220176, Note_off_c, 0, 63, 64
1, 220176, Note_off_c, 0, 80, 64
1, 220176, Note_on_c, 0, 64, 64
1, 220244, Note_on_c, 0, 80, 56
1, 220265, Note_off_c, 0, 73, 64
1, 220325, Note_on_c, 0, 75, 69
1, 220325, Control_c, 0, 64, 0
1, 220328, Note_off_c, 0, 80, 64
1, 220328, Note_on_c, 0, 66, 62
1, 220350, Note_off_c, 0, 64, 64
1, 220382, Note_on_c, 0, 80, 63
1, 220411, Note_off_c, 0, 75, 64
1, 220461, Note_on_c, 0, 72, 76
1, 220469, Note_off_c, 0, 80, 64
1, 220469, Control_c, 0, 64, 127
1, 220469, Note_on_c, 0, 63, 65
1, 220488, Note_off_c, 0, 66, 64
1, 220536, Note_on_c, 0, 80, 59
1, 220550, Note_off_c, 0, 72, 64
1, 220609, Note_on_c, 0, 75, 68
1, 220617, Note_off_c, 0, 80, 64
1, 220623, Note_on_c, 0, 66, 70
1, 220628, Note_off_c, 0, 63, 64
1, 220673, Control_c, 0, 64, 0
1, 220689, Note_on_c, 0, 80, 57
1, 220720, Note_off_c, 0, 75, 64
1, 220745, Note_on_c, 0, 73, 72
1, 220761, Note_on_c, 0, 64, 72
1, 220768, Note_off_c, 0, 80, 64
1, 220804, Control_c, 0, 64, 127
1, 220815, Note_off_c, 0, 66, 64
1, 220821, Note_on_c, 0, 80, 75
1, 220825, Note_off_c, 0, 73, 64
1, 220857, Note_off_c, 0, 64, 64
1, 220864, Note_off_c, 0, 56, 64
1, 220895, Note_on_c, 0, 78, 79
1, 220899, Note_on_c, 0, 69, 58
1, 220920, Note_off_c, 0, 80, 64
1, 220973, Note_on_c, 0, 80, 67
1, 221009, Note_off_c, 0, 78, 64
1, 221030, Note_on_c, 0, 76, 73
1, 221035, Note_on_c, 0, 68, 73
1, 221046, Note_off_c, 0, 69, 64
1, 221057, Note_off_c, 0, 80, 64
1, 221102, Note_on_c, 0, 80, 79
1, 221116, Note_off_c, 0, 76, 64
1, 221146, Note_off_c, 0, 68, 64
1, 221174, Note_on_c, 0, 75, 78
1, 221174, Note_off_c, 0, 80, 64
1, 221180, Note_on_c, 0, 66, 59
1, 221249, Note_on_c, 0, 80, 66
1, 221260, Note_off_c, 0, 75, 64
1, 221282, Note_off_c, 0, 66, 64
1, 221321, Note_on_c, 0, 73, 73
1, 221327, Note_off_c, 0, 80, 64
1, 221342, Note_on_c, 0, 64, 72
1, 221391, Note_on_c, 0, 80, 54
1, 221406, Note_off_c, 0, 73, 64
1, 221447, Note_off_c, 0, 64, 64
1, 221463, Note_on_c, 0, 72, 73
1, 221473, Note_off_c, 0, 80, 64
1, 221478, Note_on_c, 0, 63, 76
1, 221522, Note_on_c, 0, 80, 73
1, 221527, Note_off_c, 0, 63, 64
1, 221536, Note_off_c, 0, 72, 64
1, 221609, Note_on_c, 0, 69, 73
1, 221612, Note_off_c, 0, 80, 64
1, 221619, Note_on_c, 0, 61, 76
1, 221653, Note_off_c, 0, 61, 64
1, 221662, Note_off_c, 0, 69, 64
1, 221687, Note_on_c, 0, 79, 79
1, 221739, Note_off_c, 0, 79, 64
1, 221756, Note_on_c, 0, 68, 79
1, 221761, Note_on_c, 0, 56, 88
1, 221765, Note_on_c, 0, 60, 65
1, 221803, Note_off_c, 0, 60, 64
1, 221823, Note_off_c, 0, 68, 64
1, 221823, Control_c, 0, 64, 0
1, 221834, Note_on_c, 0, 80, 76
1, 221917, Note_on_c, 0, 68, 77
1, 221924, Note_off_c, 0, 80, 64
1, 221924, Note_on_c, 0, 60, 79
1, 221966, Note_off_c, 0, 68, 64
1, 221979, Note_on_c, 0, 80, 62
1, 221979, Note_off_c, 0, 60, 64
1, 222015, Control_c, 0, 64, 127
1, 222058, Note_off_c, 0, 80, 64
1, 222066, Note_on_c, 0, 68, 73
1, 222082, Note_on_c, 0, 60, 44
1, 222110, Note_off_c, 0, 68, 64
1, 222141, Note_on_c, 0, 80, 48
1, 222197, Note_off_c, 0, 60, 64
1, 222197, Note_on_c, 0, 70, 58
1, 222208, Note_on_c, 0, 61, 56
1, 222227, Note_off_c, 0, 80, 64
1, 222263, Note_off_c, 0, 70, 64
1, 222286, Note_on_c, 0, 80, 54
1, 222363, Note_on_c, 0, 72, 60
1, 222366, Note_on_c, 0, 63, 71
1, 222377, Note_off_c, 0, 80, 64
1, 222409, Note_off_c, 0, 61, 64
1, 222434, Note_on_c, 0, 80, 61
1, 222447, Control_c, 0, 64, 0
1, 222452, Note_off_c, 0, 72, 64
1, 222484, Note_off_c, 0, 63, 64
1, 222491, Note_on_c, 0, 73, 68
1, 222495, Note_on_c, 0, 64, 68
1, 222525, Note_off_c, 0, 80, 64
1, 222576, Note_on_c, 0, 80, 67
1, 222590, Control_c, 0, 64, 127
1, 222594, Note_off_c, 0, 73, 64
1, 222637, Note_on_c, 0, 75, 74
1, 222637, Note_on_c, 0, 66, 69
1, 222659, Note_off_c, 0, 64, 64
1, 222662, Note_off_c, 0, 80, 64
1, 222714, Note_on_c, 0, 80, 72
1, 222726, Note_off_c, 0, 75, 64
1, 222770, Note_off_c, 0, 66, 64
1, 222775, Note_on_c, 0, 63, 78
1, 222775, Note_on_c, 0, 72, 78
1, 222807, Control_c, 0, 64, 0
1, 222821, Note_off_c, 0, 80, 64
1, 222859, Note_off_c, 0, 72, 64
1, 222865, Note_on_c, 0, 80, 87
1, 222902, Control_c, 0, 64, 127
1, 222923, Note_on_c, 0, 75, 81
1, 222923, Note_on_c, 0, 66, 71
1, 222929, Note_off_c, 0, 63, 64
1, 222943, Note_off_c, 0, 80, 64
1, 222987, Control_c, 0, 64, 0
1, 223001, Note_on_c, 0, 80, 75
1, 223033, Note_off_c, 0, 75, 64
1, 223055, Note_on_c, 0, 73, 79
1, 223069, Note_on_c, 0, 64, 73
1, 223077, Note_off_c, 0, 80, 64
1, 223122, Note_off_c, 0, 66, 64
1, 223125, Note_on_c, 0, 80, 79
1, 223130, Control_c, 0, 64, 127
1, 223138, Note_off_c, 0, 73, 64
1, 223174, Note_off_c, 0, 56, 64
1, 223185, Note_off_c, 0, 64, 64
1, 223197, Note_on_c, 0, 78, 83
1, 223204, Note_on_c, 0, 69, 71
1, 223218, Note_off_c, 0, 80, 64
1, 223274, Note_on_c, 0, 80, 67
1, 223331, Note_on_c, 0, 76, 82
1, 223334, Note_off_c, 0, 78, 64
1, 223345, Note_off_c, 0, 80, 64
1, 223345, Note_on_c, 0, 68, 74
1, 223363, Note_off_c, 0, 69, 64
1, 223408, Note_on_c, 0, 80, 66
1, 223431, Note_off_c, 0, 76, 64
1, 223447, Note_off_c, 0, 68, 64
1, 223469, Note_on_c, 0, 75, 79
1, 223481, Note_off_c, 0, 80, 64
1, 223491, Note_on_c, 0, 66, 70
1, 223544, Note_on_c, 0, 80, 68
1, 223558, Note_off_c, 0, 75, 64
1, 223558, Note_off_c, 0, 66, 64
1, 223611, Note_on_c, 0, 73, 79
1, 223618, Note_off_c, 0, 80, 64
1, 223622, Note_on_c, 0, 64, 84
1, 223679, Note_on_c, 0, 80, 67
1, 223693, Note_off_c, 0, 73, 64
1, 223740, Note_off_c, 0, 64, 64
1, 223759, Note_on_c, 0, 72, 78
1, 223762, Note_off_c, 0, 80, 64
1, 223762, Note_on_c, 0, 63, 83
1, 223815, Note_on_c, 0, 80, 70
1, 223832, Note_off_c, 0, 63, 64
1, 223835, Note_off_c, 0, 72, 64
1, 223892, Note_on_c, 0, 61, 75
1, 223892, Note_on_c, 0, 69, 77
1, 223918, Note_off_c, 0, 80, 64
1, 223924, Note_off_c, 0, 61, 64
1, 223952, Note_off_c, 0, 69, 64
1, 223971, Note_on_c, 0, 79, 80
1, 224029, Note_on_c, 0, 60, 87
1, 224032, Note_on_c, 0, 68, 84
1, 224037, Note_on_c, 0, 56, 77
1, 224041, Control_c, 0, 64, 0
1, 224041, Note_off_c, 0, 79, 64
1, 224068, Note_off_c, 0, 60, 64
1, 224077, Note_off_c, 0, 56, 64
1, 224113, Note_on_c, 0, 80, 81
1, 224113, Note_off_c, 0, 68, 64
1, 224171, Note_off_c, 0, 80, 64
1, 224171, Note_on_c, 0, 69, 63
1, 224174, Note_on_c, 0, 61, 82
1, 224177, Note_on_c, 0, 56, 68
1, 224203, Note_off_c, 0, 61, 64
1, 224208, Note_off_c, 0, 56, 64
1, 224236, Note_on_c, 0, 79, 79
1, 224243, Note_off_c, 0, 69, 64
1, 224296, Note_off_c, 0, 79, 64
1, 224306, Note_on_c, 0, 60, 87
1, 224311, Note_on_c, 0, 68, 83
1, 224317, Note_on_c, 0, 56, 69
1, 224347, Note_off_c, 0, 60, 64
1, 224363, Note_off_c, 0, 56, 64
1, 224386, Note_on_c, 0, 80, 69
1, 224389, Note_off_c, 0, 68, 64
1, 224423, Note_off_c, 0, 80, 64
1, 224437, Note_on_c, 0, 61, 88
1, 224437, Note_on_c, 0, 69, 78
1, 224445, Note_on_c, 0, 56, 69
1, 224478, Note_off_c, 0, 69, 64
1, 224481, Note_off_c, 0, 61, 64
1, 224492, Note_off_c, 0, 56, 64
1, 224515, Note_on_c, 0, 79, 83
1, 224573, Note_on_c, 0, 68, 90
1, 224573, Note_on_c, 0, 60, 87
1, 224581, Note_on_c, 0, 56, 74
1, 224591, Note_off_c, 0, 79, 64
1, 224622, Note_off_c, 0, 56, 64
1, 224628, Note_off_c, 0, 60, 64
1, 224653, Note_on_c, 0, 80, 95
1, 224659, Note_off_c, 0, 68, 64
1, 224709, Note_off_c, 0, 80, 64
1, 224718, Note_on_c, 0, 69, 80
1, 224732, Note_on_c, 0, 56, 78
1, 224732, Note_on_c, 0, 61, 82
1, 224770, Note_off_c, 0, 61, 64
1, 224785, Note_off_c, 0, 56, 64
1, 224792, Note_off_c, 0, 69, 64
1, 224792, Note_on_c, 0, 79, 88
1, 224852, Note_on_c, 0, 68, 96
1, 224856, Note_on_c, 0, 56, 73
1, 224860, Note_on_c, 0, 60, 89
1, 224876, Note_off_c, 0, 79, 64
1, 224904, Note_off_c, 0, 56, 64
1, 224922, Note_off_c, 0, 60, 64
1, 224927, Note_off_c, 0, 68, 64
1, 224943, Note_on_c, 0, 80, 80
1, 224993, Note_on_c, 0, 69, 74
1, 224996, Note_off_c, 0, 80, 64
1, 225013, Note_on_c, 0, 56, 81
1, 225018, Note_on_c, 0, 61, 83
1, 225051, Note_off_c, 0, 61, 64
1, 225060, Note_off_c, 0, 69, 64
1, 225060, Note_off_c, 0, 56, 64
1, 225077, Note_on_c, 0, 79, 80
1, 225130, Note_off_c, 0, 79, 64
1, 225138, Note_on_c, 0, 80, 103
1, 225138, Note_on_c, 0, 68, 90
1, 225144, Note_on_c, 0, 56, 92
1, 225150, Note_on_c, 0, 60, 101
1, 225191, Note_off_c, 0, 80, 64
1, 225216, Note_off_c, 0, 68, 64
1, 225216, Note_off_c, 0, 60, 64
1, 225225, Note_off_c, 0, 56, 64
1, 225225, Control_c, 0, 64, 127
1, 225347, Control_c, 0, 64, 0
1, 225486, Note_on_c, 0, 56, 101
1, 225489, Note_on_c, 0, 44, 98
1, 225492, Note_on_c, 0, 32, 93
1, 226918, Control_c, 0, 64, 127
1, 227147, Note_off_c, 0, 32, 64
1, 227178, Note_off_c, 0, 44, 64
1, 227370, Note_off_c, 0, 56, 64
1, 227720, Control_c, 0, 64, 0
1, 227826, Note_on_c, 0, 49, 39
1, 227952, Note_on_c, 0, 56, 36
1, 227983, Control_c, 0, 64, 127
1, 228011, Note_off_c, 0, 56, 64
1, 228054, Note_on_c, 0, 52, 34
1, 228091, Note_off_c, 0, 49, 64
1, 228121, Note_off_c, 0, 52, 64
1, 228152, Note_on_c, 0, 56, 27
1, 228227, Note_off_c, 0, 56, 64
1, 228280, Note_on_c, 0, 68, 82
1, 228322, Note_on_c, 0, 49, 28
1, 228422, Note_off_c, 0, 49, 64
1, 228422, Note_on_c, 0, 56, 20
1, 228483, Note_off_c, 0, 56, 64
1, 228498, Note_on_c, 0, 52, 32
1, 228548, Note_on_c, 0, 56, 41
1, 228557, Note_off_c, 0, 52, 64
1, 228607, Note_off_c, 0, 56, 64
1, 228648, Note_on_c, 0, 49, 42
1, 228709, Note_off_c, 0, 49, 64
1, 228726, Note_on_c, 0, 56, 44
1, 228779, Note_off_c, 0, 56, 64
1, 228816, Note_on_c, 0, 52, 44
1, 228862, Note_off_c, 0, 52, 64
1, 228899, Note_on_c, 0, 56, 36
1, 228938, Note_on_c, 0, 64, 80
1, 228960, Note_off_c, 0, 56, 64
1, 228982, Note_on_c, 0, 49, 36
1, 229002, Control_c, 0, 64, 0
1, 229027, Note_off_c, 0, 68, 64
1, 229075, Note_on_c, 0, 56, 32
1, 229119, Note_on_c, 0, 61, 74
1, 229138, Note_off_c, 0, 56, 64
1, 229147, Control_c, 0, 64, 127
1, 229191, Note_on_c, 0, 52, 26
1, 229191, Note_on_c, 0, 60, 82
1, 229197, Note_off_c, 0, 61, 64
1, 229202, Note_off_c, 0, 64, 64
1, 229247, Note_off_c, 0, 52, 64
1, 229253, Note_on_c, 0, 61, 73
1, 229259, Note_on_c, 0, 56, 31
1, 229278, Note_off_c, 0, 60, 64
1, 229302, Control_c, 0, 64, 0
1, 229305, Note_on_c, 0, 63, 78
1, 229336, Note_off_c, 0, 56, 64
1, 229336, Note_off_c, 0, 61, 64
1, 229350, Note_off_c, 0, 49, 64
1, 229369, Note_on_c, 0, 61, 74
1, 229391, Note_on_c, 0, 51, 33
1, 229426, Note_off_c, 0, 63, 64
1, 229470, Note_on_c, 0, 56, 35
1, 229539, Note_off_c, 0, 56, 64
1, 229562, Note_on_c, 0, 54, 40
1, 229578, Control_c, 0, 64, 127
1, 229607, Note_off_c, 0, 51, 64
1, 229635, Note_off_c, 0, 54, 64
1, 229643, Note_on_c, 0, 56, 26
1, 229707, Note_off_c, 0, 56, 64
1, 229718, Note_on_c, 0, 60, 64
1, 229760, Note_on_c, 0, 51, 23
1, 229795, Control_c, 0, 64, 0
1, 229829, Note_on_c, 0, 56, 36
1, 229857, Note_off_c, 0, 61, 64
1, 229883, Note_off_c, 0, 56, 64
1, 229897, Note_on_c, 0, 54, 47
1, 229932, Note_off_c, 0, 51, 64
1, 229961, Control_c, 0, 64, 127
1, 229964, Note_off_c, 0, 54, 64
1, 229972, Note_on_c, 0, 56, 27
1, 230041, Note_off_c, 0, 56, 64
1, 230066, Note_on_c, 0, 51, 39
1, 230121, Note_off_c, 0, 60, 64
1, 230130, Note_off_c, 0, 51, 64
1, 230130, Note_on_c, 0, 56, 40
1, 230177, Note_on_c, 0, 60, 76
1, 230206, Note_off_c, 0, 56, 64
1, 230228, Note_on_c, 0, 54, 40
1, 230284, Note_off_c, 0, 54, 64
1, 230308, Note_on_c, 0, 56, 32
1, 230353, Note_on_c, 0, 68, 72
1, 230362, Note_off_c, 0, 56, 64
1, 230369, Control_c, 0, 64, 0
1, 230392, Note_on_c, 0, 51, 41
1, 230401, Note_off_c, 0, 60, 64
1, 230458, Note_on_c, 0, 56, 39
1, 230526, Note_off_c, 0, 56, 64
1, 230537, Control_c, 0, 64, 127
1, 230537, Note_on_c, 0, 54, 51
1, 230585, Note_off_c, 0, 54, 64
1, 230599, Note_on_c, 0, 60, 73
1, 230610, Note_off_c, 0, 51, 64
1, 230629, Note_on_c, 0, 56, 36
1, 230665, Note_off_c, 0, 60, 64
1, 230676, Note_on_c, 0, 63, 80
1, 230684, Note_off_c, 0, 56, 64
1, 230715, Note_on_c, 0, 52, 41
1, 230723, Note_off_c, 0, 68, 64
1, 230755, Note_off_c, 0, 52, 64
1, 230782, Note_on_c, 0, 56, 37
1, 230824, Control_c, 0, 64, 0
1, 230838, Note_off_c, 0, 56, 64
1, 230843, Note_on_c, 0, 52, 41
1, 230908, Note_off_c, 0, 52, 64
1, 230918, Note_on_c, 0, 56, 44
1, 230980, Control_c, 0, 64, 127
1, 230999, Note_on_c, 0, 52, 42
1, 231002, Note_off_c, 0, 56, 64
1, 231010, Note_on_c, 0, 61, 62
1, 231052, Note_off_c, 0, 52, 64
1, 231075, Note_on_c, 0, 56, 41
1, 231122, Note_off_c, 0, 63, 64
1, 231149, Control_c, 0, 64, 0
1, 231149, Note_off_c, 0, 56, 64
1, 231166, Note_on_c, 0, 52, 43
1, 231214, Note_off_c, 0, 52, 64
1, 231236, Note_on_c, 0, 56, 40
1, 231291, Control_c, 0, 64, 127
1, 231301, Note_off_c, 0, 56, 64
1, 231319, Note_on_c, 0, 52, 46
1, 231369, Note_off_c, 0, 52, 64
1, 231373, Note_off_c, 0, 61, 64
1, 231397, Note_on_c, 0, 56, 44
1, 231461, Note_on_c, 0, 61, 78
1, 231467, Note_off_c, 0, 56, 64
1, 231492, Note_on_c, 0, 52, 48
1, 231534, Note_off_c, 0, 52, 64
1, 231565, Note_on_c, 0, 56, 41
1, 231629, Note_off_c, 0, 56, 64
1, 231635, Note_on_c, 0, 68, 76
1, 231663, Control_c, 0, 64, 0
1, 231671, Note_on_c, 0, 52, 54
1, 231674, Note_off_c, 0, 61, 64
1, 231710, Note_off_c, 0, 52, 64
1, 231740, Note_on_c, 0, 56, 55
1, 231793, Note_off_c, 0, 56, 64
1, 231807, Note_on_c, 0, 52, 44
1, 231819, Control_c, 0, 64, 127
1, 231852, Note_off_c, 0, 52, 64
1, 231879, Note_on_c, 0, 61, 76
1, 231882, Note_on_c, 0, 56, 51
1, 231958, Note_off_c, 0, 68, 64
1, 231969, Note_off_c, 0, 56, 64
1, 231972, Note_on_c, 0, 64, 83
1, 231983, Note_off_c, 0, 61, 64
1, 231983, Control_c, 0, 64, 0
1, 231986, Note_on_c, 0, 48, 44
1, 232044, Note_off_c, 0, 48, 64
1, 232061, Note_on_c, 0, 56, 43
1, 232145, Note_on_c, 0, 48, 37
1, 232155, Note_off_c, 0, 56, 64
1, 232155, Control_c, 0, 64, 127
1, 232211, Note_off_c, 0, 48, 64
1, 232216, Note_on_c, 0, 56, 47
1, 232295, Note_off_c, 0, 56, 64
1, 232316, Note_on_c, 0, 63, 61
1, 232322, Note_on_c, 0, 48, 24
1, 232378, Note_off_c, 0, 48, 64
1, 232400, Note_on_c, 0, 56, 45
1, 232400, Control_c, 0, 64, 0
1, 232412, Note_off_c, 0, 64, 64
1, 232471, Note_off_c, 0, 56, 64
1, 232487, Note_on_c, 0, 48, 24
1, 232546, Note_off_c, 0, 48, 64
1, 232550, Control_c, 0, 64, 127
1, 232567, Note_on_c, 0, 56, 41
1, 232640, Note_off_c, 0, 56, 64
1, 232656, Note_on_c, 0, 48, 23
1, 232665, Note_off_c, 0, 63, 64
1, 232716, Note_off_c, 0, 48, 64
1, 232741, Note_on_c, 0, 56, 36
1, 232807, Note_off_c, 0, 56, 64
1, 232824, Note_on_c, 0, 63, 62
1, 232851, Note_on_c, 0, 48, 25
1, 232905, Note_off_c, 0, 48, 64
1, 232930, Note_on_c, 0, 56, 45
1, 233000, Note_off_c, 0, 56, 64
1, 233036, Note_on_c, 0, 68, 45
1, 233049, Note_on_c, 0, 48, 26
1, 233053, Control_c, 0, 64, 0
1, 233061, Note_off_c, 0, 63, 64
1, 233110, Note_off_c, 0, 48, 64
1, 233124, Note_on_c, 0, 56, 42
1, 233161, Control_c, 0, 64, 127
1, 233178, Note_off_c, 0, 56, 64
1, 233198, Note_on_c, 0, 48, 21
1, 233278, Note_off_c, 0, 48, 64
1, 233297, Note_off_c, 0, 68, 64
1, 233297, Note_on_c, 0, 63, 60
1, 233306, Note_on_c, 0, 56, 41
1, 233317, Control_c, 0, 64, 0
1, 233344, Note_off_c, 0, 63, 64
1, 233379, Note_off_c, 0, 56, 64
1, 233412, Note_on_c, 0, 49, 40
1, 233412, Note_on_c, 0, 64, 68
1, 233484, Control_c, 0, 64, 127
1, 233489, Note_off_c, 0, 64, 64
1, 233520, Note_on_c, 0, 56, 36
1, 233582, Note_off_c, 0, 56, 64
1, 233615, Note_off_c, 0, 49, 64
1, 233635, Note_on_c, 0, 80, 81
1, 233643, Note_on_c, 0, 68, 57
1, 233651, Note_on_c, 0, 52, 30
1, 233709, Note_off_c, 0, 52, 64
1, 233730, Note_on_c, 0, 56, 39
1, 233785, Control_c, 0, 64, 0
1, 233790, Note_off_c, 0, 56, 64
1, 233808, Note_on_c, 0, 49, 52
1, 233885, Note_off_c, 0, 68, 64
1, 233885, Note_off_c, 0, 49, 64
1, 233890, Note_off_c, 0, 80, 64
1, 233899, Note_on_c, 0, 56, 40
1, 233929, Control_c, 0, 64, 127
1, 233957, Note_off_c, 0, 56, 64
1, 233982, Note_on_c, 0, 80, 62
1, 233986, Note_on_c, 0, 52, 47
1, 233989, Note_on_c, 0, 68, 58
1, 234030, Note_off_c, 0, 52, 64
1, 234067, Note_on_c, 0, 56, 42
1, 234072, Control_c, 0, 64, 0
1, 234131, Note_off_c, 0, 56, 64
1, 234135, Note_on_c, 0, 49, 51
1, 234188, Note_off_c, 0, 80, 64
1, 234188, Note_off_c, 0, 68, 64
1, 234198, Note_off_c, 0, 49, 64
1, 234205, Control_c, 0, 64, 127
1, 234231, Note_on_c, 0, 56, 33
1, 234295, Note_off_c, 0, 56, 64
1, 234309, Note_on_c, 0, 68, 63
1, 234309, Note_on_c, 0, 80, 74
1, 234337, Note_on_c, 0, 52, 42
1, 234345, Note_off_c, 0, 80, 64
1, 234348, Note_off_c, 0, 68, 64
1, 234384, Note_off_c, 0, 52, 64
1, 234406, Note_on_c, 0, 56, 48
1, 234465, Note_off_c, 0, 56, 64
1, 234476, Note_on_c, 0, 76, 79
1, 234476, Note_on_c, 0, 64, 84
1, 234496, Note_on_c, 0, 49, 41
1, 234506, Note_off_c, 0, 76, 64
1, 234510, Note_off_c, 0, 64, 64
1, 234582, Note_off_c, 0, 49, 64
1, 234582, Note_on_c, 0, 56, 44
1, 234627, Note_off_c, 0, 56, 64
1, 234634, Note_on_c, 0, 61, 80
1, 234634, Note_on_c, 0, 73, 72
1, 234641, Note_on_c, 0, 52, 59
1, 234677, Note_off_c, 0, 61, 64
1, 234687, Note_off_c, 0, 73, 64
1, 234687, Note_off_c, 0, 52, 64
1, 234719, Control_c, 0, 64, 0
1, 234729, Note_on_c, 0, 56, 44
1, 234816, Note_on_c, 0, 73, 78
1, 234816, Note_on_c, 0, 61, 78
1, 234827, Note_off_c, 0, 56, 64
1, 234833, Note_on_c, 0, 51, 48
1, 234904, Note_on_c, 0, 56, 39
1, 234911, Control_c, 0, 64, 127
1, 234922, Note_off_c, 0, 61, 64
1, 234952, Note_off_c, 0, 73, 64
1, 235005, Note_off_c, 0, 56, 64
1, 235005, Control_c, 0, 64, 0
1, 235017, Note_on_c, 0, 60, 63
1, 235017, Note_on_c, 0, 72, 68
1, 235021, Note_on_c, 0, 54, 48
1, 235063, Note_off_c, 0, 51, 64
1, 235092, Note_off_c, 0, 54, 64
1, 235092, Note_on_c, 0, 56, 38
1, 235159, Note_off_c, 0, 56, 64
1, 235178, Note_on_c, 0, 51, 50
1, 235187, Control_c, 0, 64, 127
1, 235214, Note_off_c, 0, 60, 64
1, 235226, Note_off_c, 0, 72, 64
1, 235230, Note_off_c, 0, 51, 64
1, 235242, Note_on_c, 0, 56, 47
1, 235312, Note_off_c, 0, 56, 64
1, 235326, Note_on_c, 0, 60, 76
1, 235333, Note_on_c, 0, 54, 52
1, 235336, Note_on_c, 0, 72, 71
1, 235354, Control_c, 0, 64, 0
1, 235387, Note_off_c, 0, 54, 64
1, 235409, Note_on_c, 0, 56, 44
1, 235461, Note_off_c, 0, 56, 64
1, 235478, Note_on_c, 0, 51, 56
1, 235510, Control_c, 0, 64, 127
1, 235515, Note_off_c, 0, 60, 64
1, 235526, Note_off_c, 0, 72, 64
1, 235534, Note_off_c, 0, 51, 64
1, 235551, Note_on_c, 0, 56, 50
1, 235595, Control_c, 0, 64, 0
1, 235623, Note_off_c, 0, 56, 64
1, 235634, Note_on_c, 0, 60, 73
1, 235634, Note_on_c, 0, 72, 75
1, 235638, Note_on_c, 0, 54, 57
1, 235668, Note_off_c, 0, 60, 64
1, 235673, Note_off_c, 0, 72, 64
1, 235677, Control_c, 0, 64, 127
1, 235687, Note_off_c, 0, 54, 64
1, 235723, Note_on_c, 0, 56, 54
1, 235777, Note_off_c, 0, 56, 64
1, 235804, Note_on_c, 0, 80, 94
1, 235804, Note_on_c, 0, 68, 75
1, 235818, Note_on_c, 0, 51, 51
1, 235829, Note_off_c, 0, 80, 64
1, 235843, Note_off_c, 0, 68, 64
1, 235882, Note_on_c, 0, 56, 60
1, 235896, Note_off_c, 0, 51, 64
1, 235936, Note_off_c, 0, 56, 64
1, 235961, Note_on_c, 0, 60, 91
1, 235961, Note_on_c, 0, 72, 86
1, 235964, Note_on_c, 0, 54, 65
1, 235991, Note_off_c, 0, 60, 64
1, 235991, Note_off_c, 0, 72, 64
1, 236019, Note_off_c, 0, 54, 64
1, 236047, Note_on_c, 0, 56, 53
1, 236098, Note_off_c, 0, 56, 64
1, 236119, Note_on_c, 0, 75, 92
1, 236119, Note_on_c, 0, 63, 92
1, 236131, Note_on_c, 0, 52, 59
1, 236167, Note_off_c, 0, 52, 64
1, 236197, Note_off_c, 0, 63, 64
1, 236197, Note_on_c, 0, 56, 62
1, 236209, Note_off_c, 0, 75, 64
1, 236262, Note_off_c, 0, 56, 64
1, 236287, Note_on_c, 0, 52, 55
1, 236287, Note_on_c, 0, 73, 79
1, 236290, Note_on_c, 0, 61, 79
1, 236301, Control_c, 0, 64, 0
1, 236332, Note_off_c, 0, 52, 64
1, 236362, Note_on_c, 0, 56, 62
1, 236417, Note_off_c, 0, 56, 64
1, 236440, Note_on_c, 0, 52, 69
1, 236470, Control_c, 0, 64, 127
1, 236481, Note_off_c, 0, 52, 64
1, 236490, Note_off_c, 0, 61, 64
1, 236498, Note_off_c, 0, 73, 64
1, 236510, Note_on_c, 0, 56, 60
1, 236577, Note_off_c, 0, 56, 64
1, 236590, Note_on_c, 0, 73, 71
1, 236596, Note_on_c, 0, 52, 77
1, 236596, Note_on_c, 0, 61, 76
1, 236634, Note_off_c, 0, 52, 64
1, 236649, Control_c, 0, 64, 0
1, 236671, Note_on_c, 0, 56, 62
1, 236751, Note_off_c, 0, 56, 64
1, 236751, Note_on_c, 0, 52, 83
1, 236774, Note_off_c, 0, 61, 64
1, 236783, Note_off_c, 0, 73, 64
1, 236790, Note_off_c, 0, 52, 64
1, 236793, Control_c, 0, 64, 127
1, 236821, Note_on_c, 0, 56, 60
1, 236893, Note_on_c, 0, 73, 85
1, 236893, Note_on_c, 0, 61, 84
1, 236905, Note_off_c, 0, 56, 64
1, 236905, Note_on_c, 0, 52, 80
1, 236922, Note_off_c, 0, 61, 64
1, 236950, Note_off_c, 0, 52, 64
1, 236974, Note_off_c, 0, 73, 64
1, 236974, Note_on_c, 0, 56, 52
1, 237042, Note_on_c, 0, 68, 93
1, 237042, Note_on_c, 0, 80, 100
1, 237050, Note_off_c, 0, 56, 64
1, 237067, Note_on_c, 0, 52, 76
1, 237086, Note_off_c, 0, 80, 64
1, 237109, Note_off_c, 0, 68, 64
1, 237109, Note_off_c, 0, 52, 64
1, 237131, Note_on_c, 0, 56, 59
1, 237201, Note_on_c, 0, 61, 97
1, 237201, Note_on_c, 0, 73, 90
1, 237205, Note_off_c, 0, 56, 64
1, 237222, Note_on_c, 0, 52, 70
1, 237247, Note_off_c, 0, 61, 64
1, 237265, Note_off_c, 0, 52, 64
1, 237283, Note_on_c, 0, 56, 57
1, 237293, Note_off_c, 0, 73, 64
1, 237357, Note_on_c, 0, 76, 106
1, 237365, Note_on_c, 0, 64, 94
1, 237370, Note_off_c, 0, 56, 64
1, 237378, Note_on_c, 0, 48, 67
1, 237398, Note_off_c, 0, 64, 64
1, 237429, Note_off_c, 0, 76, 64
1, 237443, Note_on_c, 0, 56, 53
1, 237446, Note_off_c, 0, 48, 64
1, 237532, Note_on_c, 0, 75, 97
1, 237536, Note_on_c, 0, 63, 97
1, 237540, Note_off_c, 0, 56, 64
1, 237549, Note_on_c, 0, 48, 76
1, 237571, Control_c, 0, 64, 0
1, 237623, Note_on_c, 0, 56, 62
1, 237629, Note_off_c, 0, 48, 64
1, 237690, Note_on_c, 0, 48, 59
1, 237713, Note_off_c, 0, 56, 64
1, 237740, Control_c, 0, 64, 127
1, 237760, Note_on_c, 0, 56, 67
1, 237763, Note_off_c, 0, 63, 64
1, 237769, Note_off_c, 0, 75, 64
1, 237772, Note_off_c, 0, 48, 64
1, 237849, Note_off_c, 0, 56, 64
1, 237849, Note_on_c, 0, 48, 51
1, 237860, Note_on_c, 0, 75, 81
1, 237866, Note_on_c, 0, 63, 84
1, 237916, Note_on_c, 0, 56, 42
1, 237930, Note_off_c, 0, 48, 64
1, 237999, Note_off_c, 0, 56, 64
1, 238006, Note_on_c, 0, 48, 51
1, 238067, Note_off_c, 0, 75, 64
1, 238072, Note_on_c, 0, 56, 51
1, 238072, Note_off_c, 0, 63, 64
1, 238094, Note_off_c, 0, 48, 64
1, 238145, Note_on_c, 0, 48, 61
1, 238155, Note_off_c, 0, 56, 64
1, 238167, Note_on_c, 0, 63, 90
1, 238170, Note_on_c, 0, 75, 92
1, 238231, Note_off_c, 0, 63, 64
1, 238231, Note_on_c, 0, 56, 49
1, 238240, Note_off_c, 0, 48, 64
1, 238259, Note_off_c, 0, 75, 64
1, 238318, Note_off_c, 0, 56, 64
1, 238331, Note_on_c, 0, 80, 98
1, 238331, Note_on_c, 0, 68, 91
1, 238337, Note_on_c, 0, 48, 50
1, 238362, Note_off_c, 0, 80, 64
1, 238382, Note_off_c, 0, 68, 64
1, 238392, Note_on_c, 0, 56, 55
1, 238424, Note_off_c, 0, 48, 64
1, 238474, Note_off_c, 0, 56, 64
1, 238498, Note_on_c, 0, 48, 47
1, 238501, Note_on_c, 0, 63, 97
1, 238501, Note_on_c, 0, 75, 92
1, 238568, Note_off_c, 0, 63, 64
1, 238568, Note_on_c, 0, 56, 56
1, 238580, Note_off_c, 0, 75, 64
1, 238591, Note_off_c, 0, 48, 64
1, 238657, Note_off_c, 0, 56, 64
1, 238699, Control_c, 0, 64, 0
1, 238708, Note_on_c, 0, 77, 107
1, 238711, Note_on_c, 0, 65, 103
1, 238726, Note_on_c, 0, 47, 100
1, 238811, Note_on_c, 0, 56, 67
1, 238877, Note_on_c, 0, 49, 72
1, 238883, Note_off_c, 0, 47, 64
1, 238889, Control_c, 0, 64, 127
1, 238894, Note_off_c, 0, 56, 64
1, 238958, Note_on_c, 0, 56, 61
1, 238966, Note_off_c, 0, 49, 64
1, 239044, Note_on_c, 0, 47, 83
1, 239052, Note_off_c, 0, 56, 64
1, 239125, Note_on_c, 0, 56, 52
1, 239139, Note_off_c, 0, 47, 64
1, 239198, Note_off_c, 0, 77, 64
1, 239203, Note_off_c, 0, 56, 64
1, 239203, Note_on_c, 0, 49, 76
1, 239209, Note_off_c, 0, 65, 64
1, 239284, Note_on_c, 0, 56, 70
1, 239312, Note_off_c, 0, 49, 64
1, 239321, Control_c, 0, 64, 0
1, 239359, Note_off_c, 0, 56, 64
1, 239368, Note_on_c, 0, 78, 101
1, 239374, Note_on_c, 0, 66, 95
1, 239381, Note_on_c, 0, 45, 93
1, 239453, Note_on_c, 0, 54, 88
1, 239481, Note_off_c, 0, 45, 64
1, 239513, Control_c, 0, 64, 127
1, 239523, Note_on_c, 0, 49, 73
1, 239537, Note_off_c, 0, 54, 64
1, 239596, Note_on_c, 0, 54, 76
1, 239610, Note_off_c, 0, 49, 64
1, 239671, Note_off_c, 0, 54, 64
1, 239682, Note_on_c, 0, 45, 79
1, 239687, Note_off_c, 0, 78, 64
1, 239758, Note_on_c, 0, 54, 72
1, 239775, Note_off_c, 0, 45, 64
1, 239813, Note_off_c, 0, 66, 64
1, 239830, Note_off_c, 0, 54, 64
1, 239853, Note_on_c, 0, 49, 74
1, 239924, Note_on_c, 0, 54, 75
1, 239938, Note_off_c, 0, 49, 64
1, 240009, Note_off_c, 0, 54, 64
1, 240017, Control_c, 0, 64, 0
1, 240041, Note_on_c, 0, 63, 101
1, 240044, Note_on_c, 0, 75, 90
1, 240044, Note_on_c, 0, 45, 84
1, 240115, Note_on_c, 0, 76, 78
1, 240122, Note_on_c, 0, 54, 84
1, 240145, Note_off_c, 0, 75, 64
1, 240161, Control_c, 0, 64, 127
1, 240161, Note_off_c, 0, 45, 64
1, 240181, Note_on_c, 0, 75, 54
1, 240217, Note_off_c, 0, 54, 64
1, 240232, Note_on_c, 0, 47, 67
1, 240235, Note_off_c, 0, 76, 64
1, 240239, Note_on_c, 0, 73, 75
1, 240256, Note_off_c, 0, 75, 64
1, 240321, Note_on_c, 0, 75, 73
1, 240331, Note_on_c, 0, 54, 81
1, 240349, Note_off_c, 0, 47, 64
1, 240404, Note_off_c, 0, 63, 64
1, 240427, Control_c, 0, 64, 0
1, 240437, Note_on_c, 0, 76, 101
1, 240437, Note_off_c, 0, 54, 64
1, 240437, Note_on_c, 0, 64, 100
1, 240445, Note_on_c, 0, 44, 95
1, 240477, Note_off_c, 0, 75, 64
1, 240477, Note_off_c, 0, 73, 64
1, 240527, Note_on_c, 0, 52, 89
1, 240573, Note_off_c, 0, 44, 64
1, 240605, Note_on_c, 0, 47, 73
1, 240608, Note_off_c, 0, 52, 64
1, 240616, Control_c, 0, 64, 127
1, 240683, Note_on_c, 0, 52, 77
1, 240705, Note_off_c, 0, 47, 64
1, 240763, Note_off_c, 0, 52, 64
1, 240772, Note_on_c, 0, 44, 95
1, 240857, Note_off_c, 0, 44, 64
1, 240869, Note_on_c, 0, 52, 78
1, 240903, Note_off_c, 0, 52, 64
1, 240933, Note_on_c, 0, 47, 81
1, 241012, Note_off_c, 0, 47, 64
1, 241019, Note_on_c, 0, 52, 89
1, 241056, Note_off_c, 0, 52, 64
1, 241080, Note_on_c, 0, 44, 90
1, 241154, Note_on_c, 0, 52, 83
1, 241168, Note_off_c, 0, 76, 64
1, 241168, Note_off_c, 0, 44, 64
1, 241206, Note_off_c, 0, 52, 64
1, 241223, Note_on_c, 0, 47, 79
1, 241259, Note_off_c, 0, 64, 64
1, 241307, Note_off_c, 0, 47, 64
1, 241312, Note_on_c, 0, 52, 97
1, 241346, Control_c, 0, 64, 0
1, 241379, Note_off_c, 0, 52, 64
1, 241392, Note_on_c, 0, 43, 98
1, 241392, Note_on_c, 0, 73, 103
1, 241395, Note_on_c, 0, 61, 105
1, 241484, Note_on_c, 0, 52, 88
1, 241518, Note_off_c, 0, 43, 64
1, 241537, Note_on_c, 0, 45, 69
1, 241537, Note_off_c, 0, 52, 64
1, 241537, Control_c, 0, 64, 127
1, 241633, Note_off_c, 0, 45, 64
1, 241633, Note_on_c, 0, 52, 86
1, 241691, Note_off_c, 0, 52, 64
1, 241702, Note_on_c, 0, 43, 89
1, 241782, Note_off_c, 0, 43, 64
1, 241793, Note_on_c, 0, 52, 92
1, 241846, Note_off_c, 0, 52, 64
1, 241863, Note_on_c, 0, 45, 76
1, 241947, Note_on_c, 0, 52, 96
1, 241947, Note_off_c, 0, 61, 64
1, 241950, Note_off_c, 0, 45, 64
1, 241961, Note_off_c, 0, 73, 64
1, 241983, Control_c, 0, 64, 0
1, 242022, Note_off_c, 0, 52, 64
1, 242027, Note_on_c, 0, 74, 113
1, 242027, Note_on_c, 0, 62, 106
1, 242034, Note_on_c, 0, 42, 90
1, 242109, Note_on_c, 0, 50, 93
1, 242145, Note_off_c, 0, 42, 64
1, 242175, Control_c, 0, 64, 127
1, 242186, Note_on_c, 0, 45, 81
1, 242206, Note_off_c, 0, 50, 64
1, 242257, Note_on_c, 0, 50, 81
1, 242276, Note_off_c, 0, 45, 64
1, 242340, Note_off_c, 0, 50, 64
1, 242340, Note_on_c, 0, 42, 83
1, 242360, Note_off_c, 0, 74, 64
1, 242424, Note_on_c, 0, 50, 62
1, 242431, Note_off_c, 0, 42, 64
1, 242490, Note_off_c, 0, 62, 64
1, 242501, Note_on_c, 0, 45, 77
1, 242501, Note_off_c, 0, 50, 64
1, 242571, Note_on_c, 0, 50, 76
1, 242615, Note_off_c, 0, 45, 64
1, 242629, Control_c, 0, 64, 0
1, 242649, Note_off_c, 0, 50, 64
1, 242671, Note_on_c, 0, 42, 84
1, 242674, Note_on_c, 0, 60, 94
1, 242677, Note_on_c, 0, 72, 101
1, 242704, Note_off_c, 0, 60, 64
1, 242755, Note_on_c, 0, 51, 83
1, 242761, Control_c, 0, 64, 127
1, 242761, Note_on_c, 0, 73, 79
1, 242789, Note_off_c, 0, 72, 64
1, 242838, Note_off_c, 0, 42, 64
1, 242838, Note_on_c, 0, 44, 76
1, 242855, Note_off_c, 0, 51, 64
1, 242863, Note_off_c, 0, 73, 64
1, 242870, Note_on_c, 0, 72, 18
1, 242881, Note_on_c, 0, 70, 73
1, 242919, Note_off_c, 0, 72, 64
1, 242939, Note_on_c, 0, 51, 70
1, 242947, Note_on_c, 0, 72, 79
1, 243003, Note_off_c, 0, 70, 64
1, 243019, Note_off_c, 0, 51, 64
1, 243031, Note_off_c, 0, 44, 64
1, 243044, Note_on_c, 0, 61, 105
1, 243044, Note_on_c, 0, 73, 102
1, 243056, Note_on_c, 0, 40, 110
1, 243056, Note_off_c, 0, 72, 64
1, 243097, Control_c, 0, 64, 0
1, 243139, Note_on_c, 0, 49, 83
1, 243225, Note_on_c, 0, 44, 79
1, 243232, Note_off_c, 0, 49, 64
1, 243256, Note_off_c, 0, 40, 64
1, 243289, Control_c, 0, 64, 127
1, 243295, Note_on_c, 0, 49, 66
1, 243334, Note_off_c, 0, 44, 64
1, 243384, Note_on_c, 0, 40, 101
1, 243384, Note_off_c, 0, 49, 64
1, 243463, Note_on_c, 0, 49, 63
1, 243484, Note_off_c, 0, 40, 64
1, 243538, Note_on_c, 0, 44, 81
1, 243538, Note_off_c, 0, 49, 64
1, 243615, Note_on_c, 0, 49, 66
1, 243643, Note_off_c, 0, 44, 64
1, 243693, Note_off_c, 0, 49, 64
1, 243703, Note_on_c, 0, 40, 100
1, 243718, Note_off_c, 0, 61, 64
1, 243789, Note_off_c, 0, 40, 64
1, 243796, Note_on_c, 0, 49, 72
1, 243814, Note_off_c, 0, 73, 64
1, 243866, Note_off_c, 0, 49, 64
1, 243866, Note_on_c, 0, 44, 78
1, 243928, Note_off_c, 0, 44, 64
1, 243941, Note_on_c, 0, 49, 67
1, 243991, Note_off_c, 0, 49, 64
1, 244069, Control_c, 0, 64, 0
1, 244131, Note_on_c, 0, 66, 90
1, 244131, Note_on_c, 0, 74, 110
1, 244131, Note_on_c, 0, 62, 110
1, 244131, Note_on_c, 0, 50, 91
1, 244131, Note_on_c, 0, 69, 94
1, 244135, Note_on_c, 0, 45, 70
1, 244135, Note_on_c, 0, 42, 88
1, 244135, Note_on_c, 0, 54, 107
1, 244225, Note_off_c, 0, 45, 64
1, 244234, Note_off_c, 0, 54, 64
1, 244234, Note_off_c, 0, 42, 64
1, 244240, Note_off_c, 0, 50, 64
1, 244271, Control_c, 0, 64, 127
1, 244376, Note_off_c, 0, 62, 64
1, 244463, Note_off_c, 0, 69, 64
1, 244471, Note_off_c, 0, 66, 64
1, 245128, Note_on_c, 0, 69, 50
1, 245175, Note_off_c, 0, 74, 64
1, 245201, Note_off_c, 0, 69, 64
1, 245204, Note_on_c, 0, 71, 73
1, 245280, Note_off_c, 0, 71, 64
1, 245280, Note_on_c, 0, 73, 68
1, 245326, Control_c, 0, 64, 0
1, 245348, Note_off_c, 0, 73, 64
1, 245354, Note_on_c, 0, 74, 81
1, 245418, Note_off_c, 0, 74, 64
1, 245426, Note_on_c, 0, 76, 76
1, 245499, Note_on_c, 0, 78, 75
1, 245512, Note_off_c, 0, 76, 64
1, 245561, Note_on_c, 0, 76, 67
1, 245619, Note_off_c, 0, 78, 64
1, 245635, Note_on_c, 0, 57, 47
1, 245635, Note_on_c, 0, 62, 48
1, 245635, Note_on_c, 0, 54, 49
1, 245644, Note_on_c, 0, 74, 79
1, 245661, Note_off_c, 0, 76, 64
1, 245689, Note_off_c, 0, 74, 64
1, 245711, Note_on_c, 0, 69, 60
1, 245733, Control_c, 0, 64, 127
1, 245733, Note_off_c, 0, 62, 64
1, 245763, Note_off_c, 0, 57, 64
1, 245783, Note_off_c, 0, 54, 64
1, 245794, Note_off_c, 0, 69, 64
1, 245803, Note_on_c, 0, 71, 74
1, 245853, Control_c, 0, 64, 0
1, 245859, Note_off_c, 0, 71, 64
1, 245873, Note_on_c, 0, 73, 62
1, 245948, Note_on_c, 0, 74, 84
1, 245954, Note_off_c, 0, 73, 64
1, 246032, Note_off_c, 0, 74, 64
1, 246032, Note_on_c, 0, 76, 72
1, 246107, Note_off_c, 0, 76, 64
1, 246112, Note_on_c, 0, 78, 70
1, 246181, Note_on_c, 0, 76, 57
1, 246231, Note_off_c, 0, 78, 64
1, 246265, Note_on_c, 0, 74, 78
1, 246287, Note_on_c, 0, 62, 37
1, 246287, Note_on_c, 0, 54, 44
1, 246287, Note_on_c, 0, 57, 26
1, 246290, Note_off_c, 0, 76, 64
1, 246304, Note_off_c, 0, 74, 64
1, 246338, Note_on_c, 0, 69, 48
1, 246357, Control_c, 0, 64, 127
1, 246360, Note_off_c, 0, 57, 64
1, 246360, Note_off_c, 0, 62, 64
1, 246410, Note_off_c, 0, 54, 64
1, 246427, Note_on_c, 0, 71, 70
1, 246437, Note_off_c, 0, 69, 64
1, 246465, Control_c, 0, 64, 0
1, 246496, Note_on_c, 0, 73, 58
1, 246504, Note_off_c, 0, 71, 64
1, 246566, Note_on_c, 0, 74, 78
1, 246566, Note_off_c, 0, 73, 64
1, 246655, Note_on_c, 0, 76, 69
1, 246655, Note_off_c, 0, 74, 64
1, 246731, Note_off_c, 0, 76, 64
1, 246731, Note_on_c, 0, 78, 70
1, 246803, Note_on_c, 0, 76, 57
1, 246844, Note_off_c, 0, 78, 64
1, 246886, Note_on_c, 0, 74, 72
1, 246898, Note_off_c, 0, 76, 64
1, 246898, Note_on_c, 0, 62, 32
1, 246906, Note_on_c, 0, 57, 27
1, 246906, Note_on_c, 0, 54, 27
1, 246922, Note_off_c, 0, 74, 64
1, 246970, Note_on_c, 0, 69, 31
1, 246979, Control_c, 0, 64, 127
1, 246984, Note_off_c, 0, 62, 64
1, 246987, Note_off_c, 0, 57, 64
1, 247004, Note_off_c, 0, 54, 64
1, 247073, Note_on_c, 0, 71, 35
1, 247079, Note_off_c, 0, 69, 64
1, 247118, Note_on_c, 0, 73, 64
1, 247128, Note_off_c, 0, 71, 64
1, 247187, Note_on_c, 0, 74, 81
1, 247192, Note_off_c, 0, 73, 64
1, 247195, Control_c, 0, 64, 0
1, 247204, Note_on_c, 0, 54, 45
1, 247207, Note_on_c, 0, 62, 30
1, 247207, Note_on_c, 0, 57, 33
1, 247267, Note_on_c, 0, 76, 75
1, 247277, Note_off_c, 0, 74, 64
1, 247277, Note_off_c, 0, 54, 64
1, 247277, Control_c, 0, 64, 127
1, 247284, Note_off_c, 0, 62, 64
1, 247299, Note_off_c, 0, 57, 64
1, 247334, Note_on_c, 0, 78, 80
1, 247345, Note_off_c, 0, 76, 64
1, 247405, Note_on_c, 0, 79, 95
1, 247416, Note_off_c, 0, 78, 64
1, 247423, Control_c, 0, 64, 0
1, 247477, Note_on_c, 0, 62, 43
1, 247482, Note_on_c, 0, 57, 36
1, 247482, Note_on_c, 0, 81, 95
1, 247482, Note_on_c, 0, 54, 45
1, 247490, Note_off_c, 0, 79, 64
1, 247563, Note_on_c, 0, 80, 88
1, 247572, Note_off_c, 0, 81, 64
1, 247582, Note_off_c, 0, 62, 64
1, 247618, Note_off_c, 0, 57, 64
1, 247618, Note_off_c, 0, 54, 64
1, 247635, Note_on_c, 0, 83, 110
1, 247639, Control_c, 0, 64, 127
1, 247653, Note_off_c, 0, 80, 64
1, 247713, Note_on_c, 0, 81, 91
1, 247747, Control_c, 0, 64, 0
1, 247760, Note_off_c, 0, 83, 64
1, 247791, Note_on_c, 0, 79, 94
1, 247798, Note_on_c, 0, 62, 39
1, 247798, Note_on_c, 0, 54, 37
1, 247806, Note_on_c, 0, 57, 30
1, 247833, Note_off_c, 0, 81, 64
1, 247866, Note_off_c, 0, 57, 64
1, 247866, Note_on_c, 0, 78, 85
1, 247895, Note_off_c, 0, 79, 64
1, 247911, Note_off_c, 0, 54, 64
1, 247926, Control_c, 0, 64, 127
1, 247950, Note_on_c, 0, 76, 76
1, 247965, Note_off_c, 0, 78, 64
1, 247973, Note_off_c, 0, 62, 64
1, 248028, Note_on_c, 0, 74, 91
1, 248051, Note_off_c, 0, 76, 64
1, 248059, Control_c, 0, 64, 0
1, 248118, Note_on_c, 0, 73, 80
1, 248121, Note_on_c, 0, 56, 37
1, 248139, Note_off_c, 0, 74, 64
1, 248220, Note_on_c, 0, 64, 35
1, 248220, Note_off_c, 0, 56, 64
1, 248265, Note_off_c, 0, 64, 64
1, 248274, Control_c, 0, 64, 127
1, 248274, Note_on_c, 0, 61, 39
1, 248329, Note_off_c, 0, 61, 64
1, 248373, Note_on_c, 0, 64, 41
1, 248416, Note_off_c, 0, 64, 64
1, 248444, Note_on_c, 0, 56, 47
1, 248500, Note_off_c, 0, 56, 64
1, 248524, Note_on_c, 0, 64, 37
1, 248568, Note_off_c, 0, 64, 64
1, 248599, Note_on_c, 0, 61, 40
1, 248647, Note_on_c, 0, 64, 50
1, 248653, Note_off_c, 0, 61, 64
1, 248689, Note_off_c, 0, 64, 64
1, 248705, Control_c, 0, 64, 0
1, 248739, Note_off_c, 0, 73, 64
1, 248753, Note_on_c, 0, 75, 70
1, 248753, Note_on_c, 0, 56, 44
1, 248795, Note_off_c, 0, 75, 64
1, 248814, Note_on_c, 0, 76, 61
1, 248833, Note_off_c, 0, 56, 64
1, 248839, Note_on_c, 0, 66, 40
1, 248856, Note_off_c, 0, 76, 64
1, 248869, Note_on_c, 0, 75, 57
1, 248873, Control_c, 0, 64, 127
1, 248887, Note_off_c, 0, 66, 64
1, 248922, Note_on_c, 0, 60, 27
1, 248922, Note_off_c, 0, 75, 64
1, 248939, Note_on_c, 0, 76, 49
1, 248978, Note_on_c, 0, 75, 62
1, 248978, Note_off_c, 0, 76, 64
1, 248984, Note_off_c, 0, 60, 64
1, 248984, Note_on_c, 0, 66, 34
1, 249029, Note_off_c, 0, 75, 64
1, 249036, Note_off_c, 0, 66, 64
1, 249036, Note_on_c, 0, 76, 55
1, 249045, Note_on_c, 0, 56, 47
1, 249084, Note_off_c, 0, 76, 64
1, 249084, Note_on_c, 0, 75, 56
1, 249101, Note_on_c, 0, 66, 38
1, 249123, Note_off_c, 0, 56, 64
1, 249145, Note_off_c, 0, 75, 64
1, 249151, Note_on_c, 0, 76, 48
1, 249178, Note_off_c, 0, 66, 64
1, 249204, Note_on_c, 0, 75, 70
1, 249218, Note_on_c, 0, 60, 28
1, 249240, Note_off_c, 0, 76, 64
1, 249257, Note_on_c, 0, 66, 47
1, 249265, Note_off_c, 0, 75, 64
1, 249273, Note_on_c, 0, 73, 72
1, 249284, Note_off_c, 0, 60, 64
1, 249316, Note_off_c, 0, 66, 64
1, 249323, Note_off_c, 0, 73, 64
1, 249337, Note_on_c, 0, 75, 76
1, 249352, Control_c, 0, 64, 0
1, 249380, Note_off_c, 0, 75, 64
1, 249413, Note_on_c, 0, 64, 88
1, 249413, Note_on_c, 0, 61, 76
1, 249416, Note_on_c, 0, 73, 94
1, 249416, Note_on_c, 0, 57, 47
1, 249440, Note_off_c, 0, 64, 64
1, 249440, Note_off_c, 0, 73, 64
1, 249446, Note_off_c, 0, 61, 64
1, 249461, Note_off_c, 0, 57, 64
1, 249475, Control_c, 0, 64, 127
1, 249783, Note_on_c, 0, 57, 83
1, 249783, Note_on_c, 0, 50, 108
1, 249783, Note_on_c, 0, 62, 103
1, 249783, Note_on_c, 0, 54, 99
1, 249783, Note_on_c, 0, 42, 92
1, 249786, Note_on_c, 0, 30, 75
1, 249786, Note_on_c, 0, 38, 77
1, 249792, Note_on_c, 0, 33, 68
1, 250023, Control_c, 0, 64, 0
1, 250124, Note_off_c, 0, 38, 64
1, 250129, Note_off_c, 0, 33, 64
1, 250135, Note_off_c, 0, 30, 64
1, 250173, Note_off_c, 0, 50, 64
1, 250177, Note_off_c, 0, 57, 64
1, 250177, Control_c, 0, 64, 127
1, 250201, Note_off_c, 0, 54, 64
1, 250213, Note_off_c, 0, 42, 64
1, 250455, Note_on_c, 0, 57, 63
1, 250461, Note_off_c, 0, 62, 64
1, 250527, Control_c, 0, 64, 0
1, 250532, Note_off_c, 0, 57, 64
1, 250532, Note_on_c, 0, 59, 57
1, 250589, Note_on_c, 0, 61, 69
1, 250599, Note_off_c, 0, 59, 64
1, 250656, Note_off_c, 0, 61, 64
1, 250656, Note_on_c, 0, 62, 73
1, 250731, Note_off_c, 0, 62, 64
1, 250739, Note_on_c, 0, 64, 77
1, 250795, Note_off_c, 0, 64, 64
1, 250803, Note_on_c, 0, 66, 60
1, 250875, Note_on_c, 0, 64, 66
1, 250914, Note_off_c, 0, 66, 64
1, 250956, Note_on_c, 0, 62, 75
1, 250962, Note_off_c, 0, 64, 64
1, 251004, Note_off_c, 0, 62, 64
1, 251029, Note_on_c, 0, 57, 60
1, 251106, Note_on_c, 0, 59, 72
1, 251118, Note_off_c, 0, 57, 64
1, 251184, Note_off_c, 0, 59, 64
1, 251188, Note_on_c, 0, 61, 68
1, 251255, Note_on_c, 0, 62, 80
1, 251255, Note_on_c, 0, 50, 71
1, 251258, Note_off_c, 0, 61, 64
1, 251258, Note_on_c, 0, 42, 55
1, 251262, Note_on_c, 0, 45, 55
1, 251335, Note_off_c, 0, 62, 64
1, 251335, Note_on_c, 0, 64, 80
1, 251340, Note_off_c, 0, 45, 64
1, 251349, Note_off_c, 0, 42, 64
1, 251349, Note_off_c, 0, 50, 64
1, 251413, Note_off_c, 0, 64, 64
1, 251413, Note_on_c, 0, 66, 62
1, 251482, Note_on_c, 0, 64, 65
1, 251535, Note_off_c, 0, 66, 64
1, 251561, Note_on_c, 0, 62, 76
1, 251578, Note_off_c, 0, 64, 64
1, 251594, Note_off_c, 0, 62, 64
1, 251628, Note_on_c, 0, 57, 61
1, 251709, Note_on_c, 0, 59, 67
1, 251712, Note_off_c, 0, 57, 64
1, 251775, Note_on_c, 0, 61, 60
1, 251782, Note_off_c, 0, 59, 64
1, 251853, Note_on_c, 0, 62, 68
1, 251853, Note_off_c, 0, 61, 64
1, 251862, Note_on_c, 0, 50, 72
1, 251862, Note_on_c, 0, 42, 62
1, 251865, Note_on_c, 0, 45, 57
1, 251925, Note_off_c, 0, 45, 64
1, 251925, Note_off_c, 0, 62, 64
1, 251931, Note_off_c, 0, 50, 64
1, 251931, Note_on_c, 0, 64, 70
1, 251950, Note_off_c, 0, 42, 64
1, 252004, Note_off_c, 0, 64, 64
1, 252010, Note_on_c, 0, 66, 48
1, 252085, Note_on_c, 0, 64, 56
1, 252120, Note_off_c, 0, 66, 64
1, 252151, Note_off_c, 0, 64, 64
1, 252165, Note_on_c, 0, 62, 65
1, 252204, Note_off_c, 0, 62, 64
1, 252235, Note_on_c, 0, 57, 52
1, 252299, Note_on_c, 0, 50, 75
1, 252299, Note_on_c, 0, 45, 67
1, 252308, Note_off_c, 0, 57, 64
1, 252308, Note_on_c, 0, 42, 62
1, 252321, Note_on_c, 0, 59, 63
1, 252352, Note_off_c, 0, 45, 64
1, 252361, Note_off_c, 0, 59, 64
1, 252371, Note_off_c, 0, 50, 64
1, 252374, Note_off_c, 0, 42, 64
1, 252374, Note_on_c, 0, 61, 60
1, 252416, Note_off_c, 0, 61, 64
1, 252446, Note_on_c, 0, 62, 63
1, 252491, Note_off_c, 0, 62, 64
1, 252521, Note_on_c, 0, 64, 71
1, 252574, Note_off_c, 0, 64, 64
1, 252597, Note_on_c, 0, 66, 61
1, 252597, Note_on_c, 0, 50, 92
1, 252597, Note_on_c, 0, 45, 78
1, 252603, Note_on_c, 0, 42, 73
1, 252647, Note_off_c, 0, 45, 64
1, 252658, Note_off_c, 0, 42, 64
1, 252674, Note_on_c, 0, 64, 65
1, 252688, Note_off_c, 0, 50, 64
1, 252705, Note_off_c, 0, 66, 64
1, 252742, Note_off_c, 0, 64, 64
1, 252747, Note_on_c, 0, 62, 71
1, 252786, Note_off_c, 0, 62, 64
1, 252806, Note_on_c, 0, 57, 63
1, 252881, Note_on_c, 0, 50, 93
1, 252881, Note_on_c, 0, 45, 82
1, 252889, Note_on_c, 0, 42, 76
1, 252889, Note_on_c, 0, 59, 81
1, 252908, Note_off_c, 0, 57, 64
1, 252953, Note_on_c, 0, 61, 79
1, 252953, Note_off_c, 0, 45, 64
1, 252961, Note_off_c, 0, 42, 64
1, 252961, Note_off_c, 0, 59, 64
1, 252961, Note_off_c, 0, 50, 64
1, 253021, Note_on_c, 0, 62, 87
1, 253026, Note_off_c, 0, 61, 64
1, 253104, Note_on_c, 0, 64, 88
1, 253109, Note_off_c, 0, 62, 64
1, 253163, Note_on_c, 0, 45, 81
1, 253163, Note_on_c, 0, 50, 92
1, 253166, Note_off_c, 0, 64, 64
1, 253171, Note_on_c, 0, 66, 68
1, 253171, Note_on_c, 0, 42, 78
1, 253219, Note_off_c, 0, 50, 64
1, 253223, Note_off_c, 0, 45, 64
1, 253223, Note_on_c, 0, 64, 83
1, 253227, Note_off_c, 0, 42, 64
1, 253282, Note_off_c, 0, 66, 64
1, 253304, Note_on_c, 0, 62, 88
1, 253304, Note_on_c, 0, 50, 104
1, 253304, Note_on_c, 0, 45, 92
1, 253309, Note_off_c, 0, 64, 64
1, 253313, Note_on_c, 0, 42, 83
1, 253371, Note_on_c, 0, 57, 79
1, 253377, Note_off_c, 0, 62, 64
1, 253397, Note_off_c, 0, 45, 64
1, 253413, Note_off_c, 0, 50, 64
1, 253413, Note_off_c, 0, 42, 64
1, 253468, Note_on_c, 0, 59, 84
1, 253477, Note_off_c, 0, 57, 64
1, 253528, Note_on_c, 0, 61, 80
1, 253555, Note_off_c, 0, 59, 64
1, 253599, Note_on_c, 0, 62, 83
1, 253613, Note_off_c, 0, 61, 64
1, 253656, Note_off_c, 0, 62, 64
1, 253673, Note_on_c, 0, 64, 89
1, 253739, Note_on_c, 0, 66, 76
1, 253767, Note_off_c, 0, 64, 64
1, 253806, Note_on_c, 0, 67, 84
1, 253826, Note_off_c, 0, 66, 64
1, 253879, Note_on_c, 0, 69, 89
1, 253914, Note_off_c, 0, 67, 64
1, 253950, Note_on_c, 0, 71, 97
1, 253981, Note_off_c, 0, 69, 64
1, 254018, Note_on_c, 0, 73, 77
1, 254056, Note_off_c, 0, 71, 64
1, 254085, Note_on_c, 0, 74, 89
1, 254085, Note_off_c, 0, 73, 64
1, 254152, Note_on_c, 0, 76, 94
1, 254176, Note_off_c, 0, 74, 64
1, 254218, Note_on_c, 0, 78, 89
1, 254240, Note_off_c, 0, 76, 64
1, 254293, Note_off_c, 0, 78, 64
1, 254293, Note_on_c, 0, 79, 85
1, 254355, Note_off_c, 0, 79, 64
1, 254358, Note_on_c, 0, 80, 91
1, 254410, Control_c, 0, 64, 127
1, 254441, Note_off_c, 0, 80, 64
1, 254477, Note_on_c, 0, 81, 109
1, 254482, Note_on_c, 0, 69, 98
1, 254488, Note_on_c, 0, 42, 66
1, 254552, Note_on_c, 0, 50, 58
1, 254589, Control_c, 0, 64, 0
1, 254636, Note_on_c, 0, 45, 58
1, 254655, Note_off_c, 0, 50, 64
1, 254709, Control_c, 0, 64, 127
1, 254716, Note_on_c, 0, 50, 63
1, 254720, Note_off_c, 0, 42, 64
1, 254747, Note_off_c, 0, 45, 64
1, 254762, Note_off_c, 0, 81, 64
1, 254800, Note_on_c, 0, 42, 50
1, 254806, Note_off_c, 0, 50, 64
1, 254867, Note_on_c, 0, 50, 56
1, 254928, Note_off_c, 0, 50, 64
1, 254943, Note_on_c, 0, 45, 68
1, 254998, Note_off_c, 0, 42, 64
1, 255020, Note_off_c, 0, 45, 64
1, 255028, Note_on_c, 0, 50, 83
1, 255084, Note_on_c, 0, 73, 103
1, 255087, Note_on_c, 0, 61, 106
1, 255090, Note_off_c, 0, 50, 64
1, 255107, Note_on_c, 0, 43, 98
1, 255116, Control_c, 0, 64, 0
1, 255135, Note_off_c, 0, 69, 64
1, 255194, Note_on_c, 0, 52, 81
1, 255246, Note_off_c, 0, 52, 64
1, 255246, Note_on_c, 0, 46, 63
1, 255265, Note_off_c, 0, 43, 64
1, 255297, Control_c, 0, 64, 127
1, 255327, Note_on_c, 0, 52, 70
1, 255363, Note_off_c, 0, 46, 64
1, 255380, Note_off_c, 0, 52, 64
1, 255397, Note_on_c, 0, 43, 72
1, 255442, Note_off_c, 0, 61, 64
1, 255477, Note_on_c, 0, 52, 72
1, 255496, Note_off_c, 0, 43, 64
1, 255536, Note_off_c, 0, 52, 64
1, 255566, Note_on_c, 0, 46, 58
1, 255642, Note_on_c, 0, 52, 88
1, 255664, Note_off_c, 0, 46, 64
1, 255681, Control_c, 0, 64, 0
1, 255694, Note_off_c, 0, 73, 64
1, 255705, Note_off_c, 0, 52, 64
1, 255705, Note_on_c, 0, 76, 108
1, 255705, Note_on_c, 0, 64, 111
1, 255720, Note_on_c, 0, 44, 95
1, 255795, Note_on_c, 0, 52, 76
1, 255857, Note_on_c, 0, 49, 65
1, 255860, Control_c, 0, 64, 127
1, 255876, Note_off_c, 0, 52, 64
1, 255879, Note_off_c, 0, 44, 64
1, 255943, Note_on_c, 0, 52, 74
1, 255946, Note_off_c, 0, 76, 64
1, 255964, Note_off_c, 0, 49, 64
1, 256021, Note_off_c, 0, 64, 64
1, 256027, Note_off_c, 0, 52, 64
1, 256035, Note_on_c, 0, 44, 75
1, 256110, Note_on_c, 0, 52, 70
1, 256149, Note_off_c, 0, 44, 64
1, 256155, Note_off_c, 0, 52, 64
1, 256180, Note_on_c, 0, 49, 60
1, 256251, Note_on_c, 0, 52, 68
1, 256260, Note_off_c, 0, 49, 64
1, 256282, Note_off_c, 0, 52, 64
1, 256375, Control_c, 0, 64, 0
1, 256394, Note_on_c, 0, 60, 101
1, 256397, Note_on_c, 0, 54, 95
1, 256397, Note_on_c, 0, 48, 104
1, 256405, Note_on_c, 0, 32, 96
1, 256469, Note_on_c, 0, 44, 83
1, 256489, Note_off_c, 0, 32, 64
1, 256555, Control_c, 0, 64, 127
1, 256555, Note_on_c, 0, 43, 69
1, 256558, Note_off_c, 0, 44, 64
1, 256628, Note_off_c, 0, 43, 64
1, 256628, Note_on_c, 0, 44, 68
1, 256712, Note_on_c, 0, 43, 65
1, 256728, Note_off_c, 0, 44, 64
1, 256778, Note_off_c, 0, 43, 64
1, 256784, Note_on_c, 0, 44, 67
1, 256798, Note_off_c, 0, 48, 64
1, 256846, Note_off_c, 0, 44, 64
1, 256859, Note_off_c, 0, 54, 64
1, 256867, Note_on_c, 0, 43, 58
1, 256878, Note_off_c, 0, 60, 64
1, 256931, Note_off_c, 0, 43, 64
1, 256949, Note_on_c, 0, 44, 84
1, 256998, Note_off_c, 0, 44, 64
1, 257059, Control_c, 0, 64, 0
1, 257070, Note_on_c, 0, 49, 93
1, 257070, Note_on_c, 0, 61, 93
1, 257073, Note_on_c, 0, 52, 88
1, 257073, Note_on_c, 0, 37, 97
1, 257104, Note_off_c, 0, 52, 64
1, 257104, Note_off_c, 0, 37, 64
1, 257130, Note_off_c, 0, 49, 64
1, 257163, Note_off_c, 0, 61, 64
1, 257166, Control_c, 0, 64, 127
1, 257299, Note_on_c, 0, 49, 71
1, 257304, Note_on_c, 0, 56, 59
1, 257304, Note_on_c, 0, 64, 66
1, 257334, Note_off_c, 0, 49, 64
1, 257346, Note_off_c, 0, 64, 64
1, 257346, Note_off_c, 0, 56, 64
1, 257358, Control_c, 0, 64, 0
1, 257458, Note_on_c, 0, 64, 63
1, 257461, Note_on_c, 0, 56, 55
1, 257464, Note_on_c, 0, 49, 67
1, 257499, Note_off_c, 0, 49, 64
1, 257499, Note_off_c, 0, 64, 64
1, 257503, Note_off_c, 0, 56, 64
1, 257612, Note_on_c, 0, 56, 48
1, 257612, Note_on_c, 0, 64, 61
1, 257616, Note_on_c, 0, 49, 56
1, 257653, Note_off_c, 0, 49, 64
1, 257653, Note_off_c, 0, 64, 64
1, 257658, Note_off_c, 0, 56, 64
1, 257754, Note_on_c, 0, 64, 58
1, 257761, Note_on_c, 0, 56, 46
1, 257768, Note_on_c, 0, 49, 53
1, 257797, Note_off_c, 0, 64, 64
1, 257807, Note_off_c, 0, 49, 64
1, 257810, Note_off_c, 0, 56, 64
1, 257910, Note_on_c, 0, 49, 46
1, 257914, Note_on_c, 0, 56, 37
1, 257920, Note_on_c, 0, 64, 33
1, 257956, Note_off_c, 0, 49, 64
1, 257956, Note_off_c, 0, 56, 64
1, 257967, Note_off_c, 0, 64, 64
1, 258051, Note_on_c, 0, 56, 41
1, 258051, Note_on_c, 0, 63, 59
1, 258057, Note_on_c, 0, 51, 43
1, 258096, Note_off_c, 0, 63, 64
1, 258099, Note_off_c, 0, 56, 64
1, 258104, Note_off_c, 0, 51, 64
1, 258199, Note_on_c, 0, 52, 54
1, 258199, Note_on_c, 0, 61, 53
1, 258199, Note_on_c, 0, 56, 40
1, 258236, Note_off_c, 0, 52, 64
1, 258247, Note_off_c, 0, 61, 64
1, 258255, Note_off_c, 0, 56, 64
1, 258352, Note_on_c, 0, 56, 41
1, 258352, Note_on_c, 0, 44, 64
1, 258355, Note_on_c, 0, 60, 59
1, 258355, Note_on_c, 0, 54, 53
1, 258391, Note_off_c, 0, 44, 64
1, 258391, Note_off_c, 0, 56, 64
1, 258399, Note_off_c, 0, 54, 64
1, 258402, Note_off_c, 0, 60, 64
1, 258497, Note_on_c, 0, 60, 45
1, 258502, Note_on_c, 0, 68, 52
1, 258502, Note_on_c, 0, 54, 57
1, 258506, Note_on_c, 0, 56, 38
1, 258545, Note_off_c, 0, 68, 64
1, 258548, Note_off_c, 0, 60, 64
1, 258552, Note_off_c, 0, 54, 64
1, 258555, Note_off_c, 0, 56, 64
1, 258651, Note_on_c, 0, 68, 67
1, 258656, Note_on_c, 0, 60, 55
1, 258656, Note_on_c, 0, 56, 50
1, 258665, Note_on_c, 0, 54, 50
1, 258694, Note_off_c, 0, 68, 64
1, 258703, Note_off_c, 0, 60, 64
1, 258708, Note_off_c, 0, 54, 64
1, 258711, Note_off_c, 0, 56, 64
1, 258796, Note_on_c, 0, 56, 53
1, 258799, Note_on_c, 0, 60, 64
1, 258799, Note_on_c, 0, 68, 70
1, 258804, Note_on_c, 0, 54, 62
1, 258843, Note_off_c, 0, 56, 64
1, 258843, Note_off_c, 0, 54, 64
1, 258853, Note_off_c, 0, 60, 64
1, 258864, Note_off_c, 0, 68, 64
1, 258951, Note_on_c, 0, 68, 66
1, 258951, Note_on_c, 0, 60, 69
1, 258956, Note_on_c, 0, 56, 60
1, 258963, Note_on_c, 0, 54, 75
1, 258996, Note_off_c, 0, 54, 64
1, 258999, Note_off_c, 0, 56, 64
1, 258999, Note_off_c, 0, 60, 64
1, 259016, Note_off_c, 0, 68, 64
1, 259094, Note_on_c, 0, 68, 59
1, 259094, Note_on_c, 0, 54, 70
1, 259097, Note_on_c, 0, 60, 66
1, 259097, Note_on_c, 0, 56, 51
1, 259141, Note_off_c, 0, 68, 64
1, 259141, Note_off_c, 0, 60, 64
1, 259147, Note_off_c, 0, 54, 64
1, 259147, Note_off_c, 0, 56, 64
1, 259232, Note_on_c, 0, 68, 62
1, 259236, Note_on_c, 0, 61, 79
1, 259236, Note_on_c, 0, 56, 48
1, 259236, Note_on_c, 0, 52, 69
1, 259271, Note_off_c, 0, 68, 64
1, 259275, Note_off_c, 0, 52, 64
1, 259280, Note_off_c, 0, 56, 64
1, 259286, Note_off_c, 0, 61, 64
1, 259388, Note_on_c, 0, 63, 64
1, 259392, Note_on_c, 0, 56, 28
1, 259392, Note_on_c, 0, 68, 45
1, 259396, Note_on_c, 0, 51, 65
1, 259427, Note_off_c, 0, 63, 64
1, 259427, Note_off_c, 0, 51, 64
1, 259438, Note_off_c, 0, 68, 64
1, 259449, Note_off_c, 0, 56, 64
1, 259534, Note_on_c, 0, 68, 55
1, 259539, Note_on_c, 0, 64, 60
1, 259539, Note_on_c, 0, 37, 78
1, 259567, Note_off_c, 0, 37, 64
1, 259570, Note_off_c, 0, 68, 64
1, 259570, Note_off_c, 0, 64, 64
1, 259672, Note_on_c, 0, 56, 67
1, 259672, Note_on_c, 0, 64, 55
1, 259679, Note_on_c, 0, 49, 33
1, 259717, Note_off_c, 0, 56, 64
1, 259728, Note_off_c, 0, 64, 64
1, 259731, Note_off_c, 0, 49, 64
1, 259831, Note_on_c, 0, 64, 57
1, 259831, Note_on_c, 0, 56, 54
1, 259831, Note_on_c, 0, 49, 55
1, 259870, Note_off_c, 0, 64, 64
1, 259874, Note_off_c, 0, 56, 64
1, 259881, Note_off_c, 0, 49, 64
1, 259981, Note_on_c, 0, 56, 41
1, 259985, Note_on_c, 0, 64, 52
1, 259991, Note_on_c, 0, 49, 52
1, 260024, Note_off_c, 0, 64, 64
1, 260027, Note_off_c, 0, 56, 64
1, 260030, Note_off_c, 0, 49, 64
1, 260121, Note_on_c, 0, 64, 44
1, 260121, Note_on_c, 0, 56, 39
1, 260130, Note_on_c, 0, 49, 34
1, 260163, Note_off_c, 0, 64, 64
1, 260177, Note_off_c, 0, 56, 64
1, 260185, Note_off_c, 0, 49, 64
1, 260269, Note_on_c, 0, 49, 46
1, 260272, Note_on_c, 0, 56, 40
1, 260272, Note_on_c, 0, 64, 45
1, 260314, Note_off_c, 0, 49, 64
1, 260317, Note_off_c, 0, 64, 64
1, 260317, Note_off_c, 0, 56, 64
1, 260419, Note_on_c, 0, 51, 48
1, 260419, Note_on_c, 0, 63, 52
1, 260424, Note_on_c, 0, 56, 31
1, 260464, Note_off_c, 0, 63, 64
1, 260464, Note_off_c, 0, 51, 64
1, 260472, Note_off_c, 0, 56, 64
1, 260564, Note_on_c, 0, 52, 62
1, 260564, Note_on_c, 0, 56, 33
1, 260564, Note_on_c, 0, 61, 48
1, 260598, Note_off_c, 0, 52, 64
1, 260612, Note_off_c, 0, 56, 64
1, 260612, Note_off_c, 0, 61, 64
1, 260722, Note_on_c, 0, 54, 53
1, 260722, Note_on_c, 0, 56, 43
1, 260722, Note_on_c, 0, 44, 64
1, 260725, Note_on_c, 0, 60, 52
1, 260761, Note_off_c, 0, 44, 64
1, 260761, Note_off_c, 0, 54, 64
1, 260765, Note_off_c, 0, 56, 64
1, 260768, Note_off_c, 0, 60, 64
1, 260860, Note_on_c, 0, 60, 39
1, 260860, Note_on_c, 0, 68, 55
1, 260868, Note_on_c, 0, 56, 54
1, 260873, Note_on_c, 0, 54, 46
1, 260896, Note_off_c, 0, 68, 64
1, 260910, Note_off_c, 0, 60, 64
1, 260910, Note_off_c, 0, 56, 64
1, 260918, Note_off_c, 0, 54, 64
1, 261005, Note_on_c, 0, 68, 66
1, 261010, Note_on_c, 0, 60, 44
1, 261010, Note_on_c, 0, 56, 44
1, 261013, Note_on_c, 0, 54, 55
1, 261044, Note_off_c, 0, 68, 64
1, 261054, Note_off_c, 0, 56, 64
1, 261058, Note_off_c, 0, 60, 64
1, 261063, Note_off_c, 0, 54, 64
1, 261149, Note_on_c, 0, 60, 65
1, 261149, Note_on_c, 0, 68, 76
1, 261149, Note_on_c, 0, 56, 52
1, 261158, Note_on_c, 0, 54, 62
1, 261196, Note_off_c, 0, 54, 64
1, 261202, Note_off_c, 0, 60, 64
1, 261202, Note_off_c, 0, 56, 64
1, 261207, Note_off_c, 0, 68, 64
1, 261297, Note_on_c, 0, 68, 72
1, 261302, Note_on_c, 0, 60, 67
1, 261302, Note_on_c, 0, 54, 65
1, 261302, Note_on_c, 0, 56, 46
1, 261341, Note_off_c, 0, 54, 64
1, 261349, Note_off_c, 0, 60, 64
1, 261353, Note_off_c, 0, 56, 64
1, 261360, Note_off_c, 0, 68, 64
1, 261438, Note_on_c, 0, 68, 62
1, 261442, Note_on_c, 0, 56, 52
1, 261442, Note_on_c, 0, 60, 65
1, 261445, Note_on_c, 0, 54, 68
1, 261487, Note_off_c, 0, 54, 64
1, 261490, Note_off_c, 0, 60, 64
1, 261494, Note_off_c, 0, 68, 64
1, 261500, Note_off_c, 0, 56, 64
1, 261580, Note_on_c, 0, 61, 67
1, 261586, Note_on_c, 0, 68, 50
1, 261586, Note_on_c, 0, 52, 73
1, 261590, Note_on_c, 0, 56, 33
1, 261629, Note_off_c, 0, 61, 64
1, 261629, Note_off_c, 0, 68, 64
1, 261632, Note_off_c, 0, 52, 64
1, 261645, Note_off_c, 0, 56, 64
1, 261726, Note_on_c, 0, 68, 50
1, 261729, Note_on_c, 0, 56, 23
1, 261729, Note_on_c, 0, 63, 58
1, 261734, Note_on_c, 0, 51, 62
1, 261768, Note_off_c, 0, 51, 64
1, 261771, Note_off_c, 0, 63, 64
1, 261781, Note_off_c, 0, 68, 64
1, 261781, Note_off_c, 0, 56, 64
1, 261874, Note_on_c, 0, 68, 52
1, 261877, Note_on_c, 0, 37, 69
1, 261895, Note_on_c, 0, 64, 52
1, 261910, Note_off_c, 0, 37, 64
1, 261924, Note_off_c, 0, 68, 64
1, 261932, Note_off_c, 0, 64, 64
1, 262019, Note_on_c, 0, 68, 51
1, 262024, Note_on_c, 0, 64, 39
1, 262037, Note_on_c, 0, 49, 60
1, 262037, Note_on_c, 0, 52, 60
1, 262072, Note_off_c, 0, 49, 64
1, 262072, Note_off_c, 0, 52, 64
1, 262076, Note_off_c, 0, 68, 64
1, 262076, Note_off_c, 0, 64, 64
1, 262171, Note_on_c, 0, 68, 40
1, 262174, Note_on_c, 0, 64, 54
1, 262193, Note_on_c, 0, 49, 44
1, 262193, Note_on_c, 0, 52, 37
1, 262219, Note_off_c, 0, 64, 64
1, 262236, Note_off_c, 0, 52, 64
1, 262333, Note_on_c, 0, 61, 32
1, 262333, Note_on_c, 0, 56, 41
1, 262336, Note_on_c, 0, 52, 39
1, 262339, Note_on_c, 0, 64, 25
1, 262349, Note_off_c, 0, 68, 64
1, 262360, Note_off_c, 0, 49, 64
1, 262375, Note_off_c, 0, 52, 64
1, 262383, Note_off_c, 0, 56, 64
1, 262394, Note_off_c, 0, 64, 64
1, 262416, Note_off_c, 0, 61, 64
1, 262484, Note_on_c, 0, 42, 65
1, 262512, Note_off_c, 0, 42, 64
1, 262523, Control_c, 0, 64, 127
1, 262583, Control_c, 0, 64, 0
1, 262628, Note_on_c, 0, 66, 46
1, 262628, Note_on_c, 0, 69, 49
1, 262633, Note_on_c, 0, 54, 65
1, 262640, Note_on_c, 0, 49, 48
1, 262675, Note_off_c, 0, 54, 64
1, 262681, Note_off_c, 0, 66, 64
1, 262681, Note_off_c, 0, 69, 64
1, 262681, Note_off_c, 0, 49, 64
1, 262776, Note_on_c, 0, 49, 39
1, 262776, Note_on_c, 0, 69, 51
1, 262784, Note_on_c, 0, 66, 40
1, 262784, Note_on_c, 0, 54, 64
1, 262829, Note_off_c, 0, 54, 64
1, 262853, Note_off_c, 0, 66, 64
1, 262901, Note_off_c, 0, 49, 64
1, 262913, Note_on_c, 0, 61, 44
1, 262913, Note_on_c, 0, 66, 42
1, 262923, Note_on_c, 0, 57, 36
1, 262923, Note_on_c, 0, 54, 54
1, 262932, Note_off_c, 0, 69, 64
1, 262962, Note_off_c, 0, 54, 64
1, 262979, Note_off_c, 0, 57, 64
1, 263008, Note_off_c, 0, 61, 64
1, 263032, Note_off_c, 0, 66, 64
1, 263071, Note_on_c, 0, 44, 74
1, 263076, Control_c, 0, 64, 127
1, 263110, Note_off_c, 0, 44, 64
1, 263110, Control_c, 0, 64, 0
1, 263211, Note_on_c, 0, 68, 59
1, 263221, Note_on_c, 0, 64, 69
1, 263225, Note_on_c, 0, 49, 58
1, 263225, Note_on_c, 0, 52, 66
1, 263260, Note_off_c, 0, 64, 64
1, 263260, Note_off_c, 0, 52, 64
1, 263272, Note_off_c, 0, 68, 64
1, 263272, Note_off_c, 0, 49, 64
1, 263361, Note_on_c, 0, 68, 53
1, 263364, Note_on_c, 0, 49, 43
1, 263364, Note_on_c, 0, 64, 63
1, 263364, Note_on_c, 0, 52, 51
1, 263400, Note_off_c, 0, 52, 64
1, 263403, Note_off_c, 0, 64, 64
1, 263475, Note_off_c, 0, 49, 64
1, 263519, Note_on_c, 0, 52, 42
1, 263519, Note_on_c, 0, 64, 35
1, 263519, Note_on_c, 0, 56, 46
1, 263519, Note_on_c, 0, 61, 46
1, 263537, Note_off_c, 0, 68, 64
1, 263542, Control_c, 0, 64, 127
1, 263562, Note_off_c, 0, 52, 64
1, 263570, Note_off_c, 0, 64, 64
1, 263570, Note_off_c, 0, 56, 64
1, 263600, Note_off_c, 0, 61, 64
1, 263662, Control_c, 0, 64, 0
1, 263682, Note_on_c, 0, 44, 57
1, 263742, Note_off_c, 0, 44, 64
1, 263806, Note_on_c, 0, 68, 52
1, 263810, Note_on_c, 0, 51, 46
1, 263813, Note_on_c, 0, 63, 56
1, 263813, Note_on_c, 0, 48, 30
1, 263854, Note_off_c, 0, 51, 64
1, 263854, Note_off_c, 0, 63, 64
1, 263859, Note_off_c, 0, 68, 64
1, 263863, Note_off_c, 0, 48, 64
1, 263863, Control_c, 0, 64, 127
1, 263926, Control_c, 0, 64, 0
1, 263955, Note_on_c, 0, 68, 45
1, 263955, Note_on_c, 0, 48, 22
1, 263960, Note_on_c, 0, 63, 42
1, 263998, Note_on_c, 0, 51, 23
1, 264016, Note_off_c, 0, 63, 64
1, 264024, Note_off_c, 0, 48, 64
1, 264051, Note_off_c, 0, 51, 64
1, 264082, Control_c, 0, 64, 127
1, 264104, Note_off_c, 0, 68, 64
1, 264108, Note_on_c, 0, 63, 49
1, 264115, Note_on_c, 0, 60, 42
1, 264118, Note_on_c, 0, 51, 38
1, 264118, Note_on_c, 0, 56, 42
1, 264161, Note_off_c, 0, 51, 64
1, 264161, Note_off_c, 0, 56, 64
1, 264166, Note_off_c, 0, 60, 64
1, 264171, Note_off_c, 0, 63, 64
1, 264225, Control_c, 0, 64, 0
1, 264278, Note_on_c, 0, 64, 63
1, 264281, Note_on_c, 0, 37, 65
1, 264284, Note_on_c, 0, 61, 51
1, 264314, Note_off_c, 0, 64, 64
1, 264317, Note_off_c, 0, 37, 64
1, 264324, Note_off_c, 0, 61, 64
1, 264358, Control_c, 0, 64, 127
1, 264466, Note_on_c, 0, 76, 64
1, 264470, Note_on_c, 0, 56, 57
1, 264470, Note_on_c, 0, 68, 38
1, 264470, Note_on_c, 0, 49, 55
1, 264476, Note_on_c, 0, 64, 19
1, 264503, Note_off_c, 0, 76, 64
1, 264512, Note_off_c, 0, 56, 64
1, 264512, Note_off_c, 0, 49, 64
1, 264519, Note_off_c, 0, 68, 64
1, 264523, Note_off_c, 0, 64, 64
1, 264523, Control_c, 0, 64, 0
1, 264617, Note_on_c, 0, 64, 55
1, 264617, Note_on_c, 0, 76, 68
1, 264617, Note_on_c, 0, 68, 45
1, 264626, Note_on_c, 0, 56, 54
1, 264631, Note_on_c, 0, 49, 43
1, 264656, Note_off_c, 0, 76, 64
1, 264668, Note_off_c, 0, 68, 64
1, 264668, Note_off_c, 0, 56, 64
1, 264673, Note_off_c, 0, 49, 64
1, 264673, Note_off_c, 0, 64, 64
1, 264751, Note_on_c, 0, 64, 71
1, 264754, Note_on_c, 0, 68, 52
1, 264754, Note_on_c, 0, 76, 73
1, 264763, Note_on_c, 0, 49, 38
1, 264763, Note_on_c, 0, 56, 43
1, 264801, Note_off_c, 0, 76, 64
1, 264813, Note_off_c, 0, 49, 64
1, 264813, Note_off_c, 0, 56, 64
1, 264826, Note_off_c, 0, 64, 64
1, 264829, Note_off_c, 0, 68, 64
1, 264888, Note_on_c, 0, 68, 61
1, 264893, Note_on_c, 0, 64, 72
1, 264899, Note_on_c, 0, 76, 74
1, 264899, Note_on_c, 0, 56, 49
1, 264905, Note_on_c, 0, 49, 51
1, 264943, Note_off_c, 0, 76, 64
1, 264959, Note_off_c, 0, 56, 64
1, 264959, Note_off_c, 0, 49, 64
1, 264968, Note_off_c, 0, 64, 64
1, 264976, Note_off_c, 0, 68, 64
1, 265026, Note_on_c, 0, 68, 67
1, 265030, Note_on_c, 0, 64, 79
1, 265030, Note_on_c, 0, 76, 79
1, 265038, Note_on_c, 0, 56, 54
1, 265046, Note_on_c, 0, 49, 55
1, 265060, Note_off_c, 0, 76, 64
1, 265088, Note_off_c, 0, 49, 64
1, 265091, Note_off_c, 0, 64, 64
1, 265091, Note_off_c, 0, 56, 64
1, 265100, Note_off_c, 0, 68, 64
1, 265171, Note_on_c, 0, 75, 85
1, 265175, Note_on_c, 0, 63, 86
1, 265175, Note_on_c, 0, 66, 71
1, 265175, Note_on_c, 0, 56, 56
1, 265180, Note_on_c, 0, 51, 73
1, 265210, Note_off_c, 0, 75, 64
1, 265228, Note_off_c, 0, 56, 64
1, 265228, Note_off_c, 0, 51, 64
1, 265246, Note_off_c, 0, 63, 64
1, 265253, Note_off_c, 0, 66, 64
1, 265311, Note_on_c, 0, 73, 84
1, 265311, Note_on_c, 0, 64, 89
1, 265311, Note_on_c, 0, 61, 83
1, 265316, Note_on_c, 0, 56, 65
1, 265325, Note_on_c, 0, 52, 85
1, 265358, Note_off_c, 0, 52, 64
1, 265361, Note_off_c, 0, 56, 64
1, 265387, Note_off_c, 0, 73, 64
1, 265398, Note_off_c, 0, 61, 64
1, 265401, Note_off_c, 0, 64, 64
1, 265452, Note_on_c, 0, 72, 87
1, 265458, Note_on_c, 0, 60, 92
1, 265458, Note_on_c, 0, 63, 87
1, 265458, Note_on_c, 0, 54, 81
1, 265461, Note_on_c, 0, 44, 79
1, 265484, Note_off_c, 0, 60, 64
1, 265484, Note_off_c, 0, 63, 64
1, 265484, Note_off_c, 0, 54, 64
1, 265487, Note_off_c, 0, 44, 64
1, 265500, Note_off_c, 0, 72, 64
1, 265533, Control_c, 0, 64, 127
1, 265625, Note_on_c, 0, 84, 90
1, 265629, Note_on_c, 0, 72, 59
1, 265629, Note_on_c, 0, 66, 66
1, 265640, Control_c, 0, 64, 0
1, 265640, Note_on_c, 0, 75, 44
1, 265643, Note_on_c, 0, 56, 50
1, 265654, Note_off_c, 0, 84, 64
1, 265665, Note_off_c, 0, 66, 64
1, 265681, Note_off_c, 0, 75, 64
1, 265685, Note_off_c, 0, 56, 64
1, 265689, Note_off_c, 0, 72, 64
1, 265757, Note_on_c, 0, 75, 86
1, 265757, Note_on_c, 0, 72, 76
1, 265760, Note_on_c, 0, 84, 94
1, 265760, Note_on_c, 0, 66, 65
1, 265763, Note_on_c, 0, 56, 52
1, 265802, Note_off_c, 0, 66, 64
1, 265806, Note_off_c, 0, 56, 64
1, 265826, Note_off_c, 0, 84, 64
1, 265832, Note_off_c, 0, 75, 64
1, 265835, Note_off_c, 0, 72, 64
1, 265895, Note_on_c, 0, 75, 72
1, 265895, Note_on_c, 0, 84, 77
1, 265895, Note_on_c, 0, 72, 75
1, 265904, Note_on_c, 0, 66, 73
1, 265910, Note_on_c, 0, 56, 72
1, 265948, Note_off_c, 0, 56, 64
1, 265951, Note_off_c, 0, 66, 64
1, 265972, Note_off_c, 0, 84, 64
1, 265972, Note_off_c, 0, 72, 64
1, 265988, Note_off_c, 0, 75, 64
1, 266041, Note_on_c, 0, 66, 76
1, 266041, Note_on_c, 0, 75, 81
1, 266041, Note_on_c, 0, 84, 93
1, 266041, Note_on_c, 0, 72, 92
1, 266050, Note_on_c, 0, 56, 75
1, 266089, Note_off_c, 0, 56, 64
1, 266114, Note_off_c, 0, 84, 64
1, 266121, Note_off_c, 0, 72, 64
1, 266124, Note_off_c, 0, 66, 64
1, 266141, Note_off_c, 0, 75, 64
1, 266180, Note_on_c, 0, 66, 73
1, 266186, Note_on_c, 0, 75, 90
1, 266186, Note_on_c, 0, 72, 94
1, 266189, Note_on_c, 0, 84, 95
1, 266196, Note_on_c, 0, 56, 81
1, 266231, Note_off_c, 0, 56, 64
1, 266255, Note_off_c, 0, 72, 64
1, 266258, Note_off_c, 0, 84, 64
1, 266261, Note_off_c, 0, 66, 64
1, 266289, Note_off_c, 0, 75, 64
1, 266323, Note_on_c, 0, 85, 100
1, 266323, Note_on_c, 0, 73, 99
1, 266326, Note_on_c, 0, 76, 88
1, 266333, Note_on_c, 0, 64, 92
1, 266333, Note_on_c, 0, 56, 87
1, 266372, Note_off_c, 0, 56, 64
1, 266375, Note_off_c, 0, 64, 64
1, 266392, Note_off_c, 0, 73, 64
1, 266405, Note_off_c, 0, 85, 64
1, 266419, Note_off_c, 0, 76, 64
1, 266465, Note_on_c, 0, 63, 95
1, 266465, Note_on_c, 0, 75, 88
1, 266465, Note_on_c, 0, 87, 97
1, 266468, Note_on_c, 0, 78, 90
1, 266475, Note_on_c, 0, 56, 84
1, 266489, Note_off_c, 0, 63, 64
1, 266504, Note_off_c, 0, 56, 64
1, 266554, Note_off_c, 0, 75, 64
1, 266554, Note_off_c, 0, 78, 64
1, 266570, Note_off_c, 0, 87, 64
1, 266617, Note_on_c, 0, 88, 105
1, 266621, Note_on_c, 0, 76, 91
1, 266621, Note_on_c, 0, 80, 88
1, 266628, Note_on_c, 0, 49, 87
1, 266635, Note_on_c, 0, 37, 73
1, 266635, Note_off_c, 0, 88, 64
1, 266651, Note_off_c, 0, 80, 64
1, 266654, Note_off_c, 0, 49, 64
1, 266660, Note_off_c, 0, 76, 64
1, 266665, Note_off_c, 0, 37, 64
1, 266670, Control_c, 0, 64, 127
1, 266791, Note_on_c, 0, 64, 78
1, 266795, Note_on_c, 0, 68, 58
1, 266795, Note_on_c, 0, 76, 68
1, 266798, Note_on_c, 0, 56, 47
1, 266802, Note_on_c, 0, 49, 67
1, 266826, Note_off_c, 0, 64, 64
1, 266834, Note_off_c, 0, 76, 64
1, 266837, Note_off_c, 0, 68, 64
1, 266837, Note_off_c, 0, 49, 64
1, 266841, Note_off_c, 0, 56, 64
1, 266862, Control_c, 0, 64, 0
1, 266932, Note_on_c, 0, 76, 71
1, 266932, Note_on_c, 0, 49, 55
1, 266932, Note_on_c, 0, 64, 69
1, 266935, Note_on_c, 0, 56, 48
1, 266938, Note_on_c, 0, 68, 44
1, 266968, Note_off_c, 0, 76, 64
1, 266972, Note_off_c, 0, 64, 64
1, 266976, Note_off_c, 0, 49, 64
1, 266982, Note_off_c, 0, 68, 64
1, 266990, Note_off_c, 0, 56, 64
1, 267068, Note_on_c, 0, 76, 74
1, 267071, Note_on_c, 0, 68, 43
1, 267071, Note_on_c, 0, 56, 59
1, 267071, Note_on_c, 0, 64, 63
1, 267079, Note_on_c, 0, 49, 52
1, 267110, Note_off_c, 0, 76, 64
1, 267116, Note_off_c, 0, 64, 64
1, 267116, Note_off_c, 0, 56, 64
1, 267120, Note_off_c, 0, 49, 64
1, 267120, Note_off_c, 0, 68, 64
1, 267214, Note_on_c, 0, 56, 52
1, 267214, Note_on_c, 0, 76, 74
1, 267217, Note_on_c, 0, 68, 50
1, 267217, Note_on_c, 0, 64, 64
1, 267220, Note_on_c, 0, 49, 49
1, 267250, Note_off_c, 0, 76, 64
1, 267258, Note_off_c, 0, 64, 64
1, 267266, Note_off_c, 0, 49, 64
1, 267272, Note_off_c, 0, 56, 64
1, 267272, Note_off_c, 0, 68, 64
1, 267352, Note_on_c, 0, 56, 57
1, 267356, Note_on_c, 0, 76, 79
1, 267356, Note_on_c, 0, 49, 60
1, 267359, Note_on_c, 0, 64, 76
1, 267359, Note_on_c, 0, 68, 55
1, 267384, Note_off_c, 0, 76, 64
1, 267394, Note_off_c, 0, 64, 64
1, 267403, Note_off_c, 0, 56, 64
1, 267403, Note_off_c, 0, 49, 64
1, 267417, Note_off_c, 0, 68, 64
1, 267492, Note_on_c, 0, 66, 71
1, 267492, Note_on_c, 0, 75, 75
1, 267500, Note_on_c, 0, 51, 71
1, 267504, Note_on_c, 0, 63, 61
1, 267504, Note_on_c, 0, 56, 54
1, 267528, Note_off_c, 0, 75, 64
1, 267539, Note_off_c, 0, 63, 64
1, 267548, Note_off_c, 0, 56, 64
1, 267553, Note_off_c, 0, 51, 64
1, 267579, Note_off_c, 0, 66, 64
1, 267626, Note_on_c, 0, 73, 83
1, 267626, Note_on_c, 0, 61, 83
1, 267631, Note_on_c, 0, 56, 53
1, 267631, Note_on_c, 0, 64, 81
1, 267637, Note_on_c, 0, 52, 89
1, 267667, Note_off_c, 0, 52, 64
1, 267673, Note_off_c, 0, 56, 64
1, 267696, Note_off_c, 0, 64, 64
1, 267709, Note_off_c, 0, 73, 64
1, 267709, Note_off_c, 0, 61, 64
1, 267774, Note_on_c, 0, 60, 85
1, 267777, Note_on_c, 0, 63, 81
1, 267777, Note_on_c, 0, 72, 83
1, 267781, Note_on_c, 0, 44, 73
1, 267781, Note_on_c, 0, 54, 81
1, 267802, Note_off_c, 0, 63, 64
1, 267805, Note_off_c, 0, 60, 64
1, 267810, Note_off_c, 0, 54, 64
1, 267810, Note_off_c, 0, 44, 64
1, 267816, Note_off_c, 0, 72, 64
1, 267821, Control_c, 0, 64, 127
1, 267932, Note_on_c, 0, 72, 75
1, 267932, Note_on_c, 0, 75, 81
1, 267932, Note_on_c, 0, 84, 89
1, 267932, Note_on_c, 0, 66, 65
1, 267943, Note_on_c, 0, 56, 57
1, 267961, Note_off_c, 0, 84, 64
1, 267966, Note_off_c, 0, 75, 64
1, 267977, Note_off_c, 0, 72, 64
1, 267977, Note_off_c, 0, 66, 64
1, 267988, Note_off_c, 0, 56, 64
1, 268001, Control_c, 0, 64, 0
1, 268069, Note_on_c, 0, 72, 92
1, 268069, Note_on_c, 0, 75, 79
1, 268072, Note_on_c, 0, 84, 98
1, 268072, Note_on_c, 0, 66, 68
1, 268072, Note_on_c, 0, 56, 60
1, 268114, Note_off_c, 0, 66, 64
1, 268114, Note_off_c, 0, 56, 64
1, 268141, Note_off_c, 0, 84, 64
1, 268147, Note_off_c, 0, 72, 64
1, 268156, Note_off_c, 0, 75, 64
1, 268203, Note_on_c, 0, 84, 82
1, 268203, Note_on_c, 0, 75, 84
1, 268206, Note_on_c, 0, 72, 87
1, 268213, Note_on_c, 0, 66, 70
1, 268219, Note_on_c, 0, 56, 76
1, 268256, Note_off_c, 0, 66, 64
1, 268259, Note_off_c, 0, 56, 64
1, 268273, Note_off_c, 0, 84, 64
1, 268286, Note_off_c, 0, 72, 64
1, 268286, Note_off_c, 0, 75, 64
1, 268348, Note_on_c, 0, 75, 84
1, 268348, Note_on_c, 0, 84, 94
1, 268348, Note_on_c, 0, 72, 92
1, 268352, Note_on_c, 0, 66, 78
1, 268361, Note_on_c, 0, 56, 77
1, 268402, Note_off_c, 0, 56, 64
1, 268419, Note_off_c, 0, 84, 64
1, 268433, Note_off_c, 0, 72, 64
1, 268439, Note_off_c, 0, 66, 64
1, 268445, Note_off_c, 0, 75, 64
1, 268500, Note_on_c, 0, 66, 72
1, 268503, Note_on_c, 0, 72, 94
1, 268503, Note_on_c, 0, 75, 79
1, 268503, Note_on_c, 0, 56, 83
1, 268507, Note_on_c, 0, 84, 94
1, 268546, Note_off_c, 0, 56, 64
1, 268557, Note_off_c, 0, 72, 64
1, 268568, Note_off_c, 0, 84, 64
1, 268593, Note_off_c, 0, 66, 64
1, 268603, Note_off_c, 0, 75, 64
1, 268639, Note_on_c, 0, 85, 97
1, 268639, Note_on_c, 0, 73, 93
1, 268643, Note_on_c, 0, 76, 82
1, 268643, Note_on_c, 0, 56, 87
1, 268643, Note_on_c, 0, 64, 83
1, 268681, Note_off_c, 0, 64, 64
1, 268681, Note_off_c, 0, 76, 64
1, 268684, Note_off_c, 0, 56, 64
1, 268707, Note_off_c, 0, 85, 64
1, 268715, Note_off_c, 0, 73, 64
1, 268777, Note_on_c, 0, 78, 88
1, 268777, Note_on_c, 0, 75, 84
1, 268780, Note_on_c, 0, 87, 86
1, 268784, Note_on_c, 0, 63, 88
1, 268790, Note_on_c, 0, 56, 75
1, 268809, Note_off_c, 0, 63, 64
1, 268820, Note_off_c, 0, 56, 64
1, 268837, Note_off_c, 0, 75, 64
1, 268854, Note_off_c, 0, 87, 64
1, 268862, Note_off_c, 0, 78, 64
1, 268930, Note_on_c, 0, 88, 105
1, 268935, Note_on_c, 0, 61, 92
1, 268935, Note_on_c, 0, 76, 89
1, 268935, Note_on_c, 0, 80, 86
1, 268938, Note_on_c, 0, 49, 88
1, 268966, Note_off_c, 0, 61, 64
1, 268966, Note_off_c, 0, 49, 64
1, 268996, Control_c, 0, 64, 127
1, 269013, Note_off_c, 0, 80, 64
1, 269029, Note_off_c, 0, 76, 64
1, 269039, Note_off_c, 0, 88, 64
1, 269082, Note_on_c, 0, 85, 84
1, 269082, Note_on_c, 0, 80, 69
1, 269088, Note_on_c, 0, 61, 65
1, 269088, Note_on_c, 0, 64, 69
1, 269127, Control_c, 0, 64, 0
1, 269133, Note_off_c, 0, 64, 64
1, 269137, Note_off_c, 0, 61, 64
1, 269167, Note_off_c, 0, 85, 64
1, 269174, Note_off_c, 0, 80, 64
1, 269224, Note_on_c, 0, 85, 73
1, 269224, Note_on_c, 0, 80, 68
1, 269236, Note_on_c, 0, 61, 55
1, 269242, Note_on_c, 0, 64, 62
1, 269284, Note_off_c, 0, 64, 64
1, 269317, Note_off_c, 0, 80, 64
1, 269373, Note_on_c, 0, 80, 56
1, 269373, Note_off_c, 0, 61, 64
1, 269392, Note_on_c, 0, 68, 46
1, 269392, Note_on_c, 0, 76, 44
1, 269405, Note_on_c, 0, 64, 46
1, 269405, Note_off_c, 0, 85, 64
1, 269433, Note_off_c, 0, 68, 64
1, 269442, Note_off_c, 0, 64, 64
1, 269458, Note_off_c, 0, 76, 64
1, 269520, Note_off_c, 0, 80, 64
1, 269529, Note_on_c, 0, 54, 82
1, 269568, Note_off_c, 0, 54, 64
1, 269582, Control_c, 0, 64, 127
1, 269660, Note_on_c, 0, 85, 65
1, 269660, Note_on_c, 0, 81, 63
1, 269663, Note_on_c, 0, 66, 48
1, 269671, Note_on_c, 0, 61, 64
1, 269710, Note_off_c, 0, 66, 64
1, 269713, Note_off_c, 0, 61, 64
1, 269720, Note_off_c, 0, 81, 64
1, 269727, Control_c, 0, 64, 0
1, 269751, Note_off_c, 0, 85, 64
1, 269794, Note_on_c, 0, 85, 86
1, 269797, Note_on_c, 0, 81, 66
1, 269807, Note_on_c, 0, 61, 48
1, 269821, Note_on_c, 0, 66, 52
1, 269869, Note_off_c, 0, 66, 64
1, 269885, Note_off_c, 0, 81, 64
1, 269888, Note_off_c, 0, 61, 64
1, 269941, Note_on_c, 0, 81, 59
1, 269944, Note_on_c, 0, 69, 42
1, 269944, Note_on_c, 0, 78, 58
1, 269947, Note_on_c, 0, 66, 48
1, 269985, Note_off_c, 0, 66, 64
1, 269990, Note_off_c, 0, 69, 64
1, 269993, Note_off_c, 0, 85, 64
1, 270011, Note_off_c, 0, 78, 64
1, 270014, Control_c, 0, 64, 127
1, 270025, Note_off_c, 0, 81, 64
1, 270063, Control_c, 0, 64, 0
1, 270099, Note_on_c, 0, 56, 75
1, 270208, Note_off_c, 0, 56, 64
1, 270252, Note_on_c, 0, 80, 68
1, 270252, Control_c, 0, 64, 127
1, 270256, Note_on_c, 0, 76, 67
1, 270270, Note_on_c, 0, 64, 52
1, 270270, Note_on_c, 0, 61, 49
1, 270297, Note_off_c, 0, 76, 64
1, 270309, Note_off_c, 0, 64, 64
1, 270317, Note_off_c, 0, 61, 64
1, 270326, Note_off_c, 0, 80, 64
1, 270350, Control_c, 0, 64, 0
1, 270395, Note_on_c, 0, 80, 62
1, 270395, Note_on_c, 0, 61, 34
1, 270403, Note_on_c, 0, 76, 72
1, 270406, Note_on_c, 0, 64, 44
1, 270450, Note_off_c, 0, 64, 64
1, 270467, Note_off_c, 0, 76, 64
1, 270509, Note_off_c, 0, 61, 64
1, 270529, Control_c, 0, 64, 127
1, 270546, Note_on_c, 0, 68, 42
1, 270546, Note_on_c, 0, 73, 41
1, 270550, Note_on_c, 0, 64, 48
1, 270550, Note_on_c, 0, 76, 37
1, 270562, Note_off_c, 0, 80, 64
1, 270585, Note_off_c, 0, 64, 64
1, 270590, Note_off_c, 0, 68, 64
1, 270613, Control_c, 0, 64, 0
1, 270642, Note_off_c, 0, 73, 64
1, 270657, Note_off_c, 0, 76, 64
1, 270693, Note_on_c, 0, 54, 79
1, 270726, Note_off_c, 0, 54, 64
1, 270793, Control_c, 0, 64, 127
1, 270829, Note_on_c, 0, 75, 63
1, 270829, Note_on_c, 0, 80, 59
1, 270840, Note_on_c, 0, 60, 29
1, 270840, Note_on_c, 0, 63, 46
1, 270869, Note_off_c, 0, 75, 64
1, 270880, Note_off_c, 0, 80, 64
1, 270880, Note_off_c, 0, 63, 64
1, 270894, Note_off_c, 0, 60, 64
1, 270949, Control_c, 0, 64, 0
1, 270971, Note_on_c, 0, 60, 50
1, 270977, Note_on_c, 0, 80, 58
1, 270977, Note_on_c, 0, 75, 58
1, 270980, Note_on_c, 0, 63, 35
1, 271022, Note_off_c, 0, 63, 64
1, 271022, Note_off_c, 0, 75, 64
1, 271032, Note_off_c, 0, 60, 64
1, 271100, Note_off_c, 0, 80, 64
1, 271111, Note_on_c, 0, 75, 47
1, 271111, Note_on_c, 0, 63, 46
1, 271114, Note_on_c, 0, 68, 38
1, 271117, Control_c, 0, 64, 127
1, 271117, Note_on_c, 0, 72, 34
1, 271149, Note_off_c, 0, 63, 64
1, 271160, Note_off_c, 0, 75, 64
1, 271160, Note_off_c, 0, 68, 64
1, 271164, Note_off_c, 0, 72, 64
1, 271213, Control_c, 0, 64, 0
1, 271281, Note_on_c, 0, 52, 79
1, 271314, Note_off_c, 0, 52, 64
1, 271381, Control_c, 0, 64, 127
1, 271418, Note_on_c, 0, 80, 58
1, 271428, Note_on_c, 0, 73, 44
1, 271468, Note_off_c, 0, 80, 64
1, 271473, Note_off_c, 0, 73, 64
1, 271535, Control_c, 0, 64, 0
1, 271565, Note_on_c, 0, 80, 63
1, 271565, Note_on_c, 0, 73, 48
1, 271569, Note_on_c, 0, 56, 53
1, 271574, Note_on_c, 0, 61, 57
1, 271620, Note_off_c, 0, 56, 64
1, 271626, Note_off_c, 0, 61, 64
1, 271682, Note_off_c, 0, 80, 64
1, 271682, Note_off_c, 0, 73, 64
1, 271704, Control_c, 0, 64, 127
1, 271734, Note_on_c, 0, 76, 42
1, 271737, Note_on_c, 0, 68, 50
1, 271751, Note_on_c, 0, 61, 15
1, 271780, Note_off_c, 0, 76, 64
1, 271791, Note_off_c, 0, 61, 64
1, 271799, Note_off_c, 0, 68, 64
1, 271799, Control_c, 0, 64, 0
1, 271896, Note_on_c, 0, 42, 59
1, 271929, Note_off_c, 0, 42, 64
1, 271968, Control_c, 0, 64, 127
1, 272049, Note_on_c, 0, 78, 64
1, 272056, Note_on_c, 0, 69, 47
1, 272063, Note_on_c, 0, 57, 26
1, 272063, Note_on_c, 0, 54, 63
1, 272088, Note_off_c, 0, 78, 64
1, 272105, Note_off_c, 0, 54, 64
1, 272116, Note_off_c, 0, 57, 64
1, 272120, Note_off_c, 0, 69, 64
1, 272192, Note_on_c, 0, 78, 67
1, 272192, Note_on_c, 0, 54, 47
1, 272197, Note_on_c, 0, 57, 42
1, 272197, Note_on_c, 0, 69, 41
1, 272220, Control_c, 0, 64, 0
1, 272251, Note_off_c, 0, 57, 64
1, 272272, Note_off_c, 0, 54, 64
1, 272295, Note_off_c, 0, 69, 64
1, 272300, Note_off_c, 0, 78, 64
1, 272351, Control_c, 0, 64, 127
1, 272361, Note_on_c, 0, 74, 54
1, 272364, Note_on_c, 0, 57, 41
1, 272364, Note_on_c, 0, 66, 40
1, 272367, Note_on_c, 0, 62, 33
1, 272403, Note_off_c, 0, 74, 64
1, 272407, Note_off_c, 0, 57, 64
1, 272415, Note_off_c, 0, 66, 64
1, 272418, Note_off_c, 0, 62, 64
1, 272436, Control_c, 0, 64, 0
1, 272506, Note_on_c, 0, 44, 79
1, 272542, Note_off_c, 0, 44, 64
1, 272592, Control_c, 0, 64, 127
1, 272657, Note_on_c, 0, 68, 59
1, 272657, Note_on_c, 0, 76, 61
1, 272665, Note_on_c, 0, 56, 62
1, 272668, Note_on_c, 0, 52, 25
1, 272699, Note_off_c, 0, 76, 64
1, 272709, Note_off_c, 0, 68, 64
1, 272716, Note_off_c, 0, 56, 64
1, 272716, Note_off_c, 0, 52, 64
1, 272807, Control_c, 0, 64, 0
1, 272807, Note_on_c, 0, 76, 63
1, 272807, Note_on_c, 0, 68, 43
1, 272819, Note_on_c, 0, 56, 42
1, 272822, Note_on_c, 0, 52, 67
1, 272874, Note_off_c, 0, 56, 64
1, 272894, Note_off_c, 0, 52, 64
1, 272935, Note_off_c, 0, 68, 64
1, 272938, Note_off_c, 0, 76, 64
1, 272961, Note_on_c, 0, 73, 48
1, 272961, Note_on_c, 0, 56, 50
1, 272961, Control_c, 0, 64, 127
1, 272961, Note_on_c, 0, 64, 47
1, 272971, Note_on_c, 0, 61, 35
1, 273000, Note_off_c, 0, 56, 64
1, 273024, Note_off_c, 0, 61, 64
1, 273046, Note_off_c, 0, 64, 64
1, 273058, Control_c, 0, 64, 0
1, 273072, Note_off_c, 0, 73, 64
1, 273119, Note_on_c, 0, 44, 76
1, 273167, Note_off_c, 0, 44, 64
1, 273214, Control_c, 0, 64, 127
1, 273284, Note_on_c, 0, 75, 60
1, 273287, Note_on_c, 0, 54, 45
1, 273290, Note_on_c, 0, 66, 40
1, 273290, Note_on_c, 0, 51, 29
1, 273331, Note_off_c, 0, 54, 64
1, 273331, Note_off_c, 0, 75, 64
1, 273342, Note_off_c, 0, 51, 64
1, 273342, Note_off_c, 0, 66, 64
1, 273442, Control_c, 0, 64, 0
1, 273460, Note_on_c, 0, 75, 46
1, 273464, Note_on_c, 0, 51, 30
1, 273464, Note_on_c, 0, 54, 38
1, 273468, Note_on_c, 0, 66, 36
1, 273512, Note_off_c, 0, 54, 64
1, 273592, Note_off_c, 0, 66, 64
1, 273609, Note_off_c, 0, 51, 64
1, 273609, Control_c, 0, 64, 127
1, 273654, Note_on_c, 0, 54, 36
1, 273654, Note_on_c, 0, 72, 46
1, 273654, Note_on_c, 0, 63, 38
1, 273658, Note_off_c, 0, 75, 64
1, 273658, Note_on_c, 0, 60, 23
1, 273701, Note_off_c, 0, 54, 64
1, 273710, Note_off_c, 0, 60, 64
1, 273794, Note_off_c, 0, 63, 64
1, 273893, Note_on_c, 0, 73, 50
1, 273897, Control_c, 0, 64, 0
1, 273902, Note_on_c, 0, 37, 39
1, 273911, Note_on_c, 0, 64, 37
1, 273939, Note_off_c, 0, 72, 64
1, 273994, Note_on_c, 0, 49, 41
1, 274052, Note_off_c, 0, 49, 64
1, 274072, Note_on_c, 0, 44, 46
1, 274108, Note_off_c, 0, 37, 64
1, 274113, Control_c, 0, 64, 127
1, 274134, Note_off_c, 0, 44, 64
1, 274153, Note_on_c, 0, 49, 24
1, 274222, Note_off_c, 0, 49, 64
1, 274233, Note_on_c, 0, 37, 50
1, 274283, Note_off_c, 0, 37, 64
1, 274301, Note_on_c, 0, 49, 33
1, 274317, Note_off_c, 0, 64, 64
1, 274367, Note_off_c, 0, 49, 64
1, 274393, Note_on_c, 0, 44, 49
1, 274443, Note_off_c, 0, 44, 64
1, 274447, Note_off_c, 0, 73, 64
1, 274464, Note_on_c, 0, 49, 44
1, 274523, Note_off_c, 0, 49, 64
1, 274546, Note_on_c, 0, 37, 59
1, 274595, Note_off_c, 0, 37, 64
1, 274620, Note_on_c, 0, 49, 40
1, 274685, Note_off_c, 0, 49, 64
1, 274718, Note_on_c, 0, 44, 42
1, 274768, Note_off_c, 0, 44, 64
1, 274785, Note_on_c, 0, 49, 37
1, 274832, Control_c, 0, 64, 0
1, 274835, Note_on_c, 0, 64, 79
1, 274852, Note_off_c, 0, 49, 64
1, 274868, Note_on_c, 0, 37, 48
1, 274930, Note_off_c, 0, 37, 64
1, 274950, Note_on_c, 0, 49, 43
1, 274988, Control_c, 0, 64, 127
1, 275005, Note_off_c, 0, 49, 64
1, 275042, Note_on_c, 0, 44, 41
1, 275095, Note_off_c, 0, 44, 64
1, 275114, Note_on_c, 0, 61, 75
1, 275125, Note_on_c, 0, 49, 45
1, 275128, Note_off_c, 0, 64, 64
1, 275206, Note_off_c, 0, 61, 64
1, 275206, Note_off_c, 0, 49, 64
1, 275206, Note_on_c, 0, 60, 87
1, 275223, Note_on_c, 0, 37, 49
1, 275264, Control_c, 0, 64, 0
1, 275317, Note_on_c, 0, 51, 51
1, 275356, Note_off_c, 0, 37, 64
1, 275399, Note_on_c, 0, 44, 47
1, 275402, Note_off_c, 0, 51, 64
1, 275431, Control_c, 0, 64, 127
1, 275454, Note_off_c, 0, 44, 64
1, 275471, Note_on_c, 0, 51, 42
1, 275479, Note_off_c, 0, 60, 64
1, 275546, Note_on_c, 0, 68, 65
1, 275546, Note_off_c, 0, 51, 64
1, 275550, Note_on_c, 0, 54, 61
1, 275554, Note_on_c, 0, 60, 32
1, 275562, Note_on_c, 0, 37, 40
1, 275643, Note_on_c, 0, 51, 31
1, 275646, Control_c, 0, 64, 0
1, 275729, Note_off_c, 0, 37, 64
1, 275729, Note_off_c, 0, 51, 64
1, 275737, Note_on_c, 0, 44, 41
1, 275766, Note_off_c, 0, 60, 64
1, 275766, Control_c, 0, 64, 127
1, 275772, Note_off_c, 0, 54, 64
1, 275782, Note_off_c, 0, 68, 64
1, 275791, Note_off_c, 0, 44, 64
1, 275797, Note_on_c, 0, 51, 44
1, 275896, Note_off_c, 0, 51, 64
1, 275896, Note_on_c, 0, 68, 64
1, 275899, Control_c, 0, 64, 0
1, 275903, Note_on_c, 0, 37, 44
1, 275913, Note_on_c, 0, 54, 53
1, 275924, Note_on_c, 0, 60, 44
1, 275971, Note_on_c, 0, 51, 33
1, 275977, Note_off_c, 0, 37, 64
1, 276067, Control_c, 0, 64, 127
1, 276070, Note_off_c, 0, 51, 64
1, 276077, Note_on_c, 0, 44, 38
1, 276103, Note_off_c, 0, 54, 64
1, 276111, Note_off_c, 0, 68, 64
1, 276111, Note_off_c, 0, 60, 64
1, 276133, Note_off_c, 0, 44, 64
1, 276133, Note_on_c, 0, 51, 45
1, 276220, Note_off_c, 0, 51, 64
1, 276220, Control_c, 0, 64, 0
1, 276223, Note_on_c, 0, 68, 62
1, 276239, Note_on_c, 0, 54, 51
1, 276247, Note_on_c, 0, 37, 46
1, 276250, Note_on_c, 0, 60, 42
1, 276295, Note_off_c, 0, 37, 64
1, 276320, Note_on_c, 0, 51, 34
1, 276354, Control_c, 0, 64, 127
1, 276359, Note_off_c, 0, 54, 64
1, 276362, Note_off_c, 0, 68, 64
1, 276379, Note_off_c, 0, 51, 64
1, 276404, Note_on_c, 0, 44, 44
1, 276425, Note_off_c, 0, 60, 64
1, 276459, Note_off_c, 0, 44, 64
1, 276459, Note_on_c, 0, 51, 40
1, 276507, Note_on_c, 0, 52, 61
1, 276523, Note_off_c, 0, 51, 64
1, 276579, Note_on_c, 0, 37, 51
1, 276579, Control_c, 0, 64, 0
1, 276579, Note_on_c, 0, 61, 49
1, 276654, Note_off_c, 0, 52, 64
1, 276690, Control_c, 0, 64, 127
1, 276699, Note_on_c, 0, 49, 41
1, 276738, Note_on_c, 0, 68, 65
1, 276772, Note_off_c, 0, 49, 64
1, 276824, Note_off_c, 0, 37, 64
1, 276832, Note_on_c, 0, 44, 32
1, 276888, Note_off_c, 0, 44, 64
1, 276911, Note_on_c, 0, 49, 34
1, 276933, Note_off_c, 0, 61, 64
1, 276980, Note_off_c, 0, 49, 64
1, 277002, Note_on_c, 0, 37, 48
1, 277078, Note_off_c, 0, 37, 64
1, 277092, Note_on_c, 0, 49, 35
1, 277153, Note_off_c, 0, 49, 64
1, 277173, Note_on_c, 0, 44, 43
1, 277220, Note_off_c, 0, 44, 64
1, 277250, Note_on_c, 0, 49, 37
1, 277300, Note_off_c, 0, 49, 64
1, 277325, Note_on_c, 0, 37, 46
1, 277339, Note_off_c, 0, 68, 64
1, 277378, Note_off_c, 0, 37, 64
1, 277401, Note_on_c, 0, 49, 41
1, 277457, Note_off_c, 0, 49, 64
1, 277499, Note_on_c, 0, 44, 36
1, 277557, Note_off_c, 0, 44, 64
1, 277587, Note_on_c, 0, 49, 42
1, 277652, Note_off_c, 0, 49, 64
1, 277708, Note_on_c, 0, 76, 58
1, 277711, Note_on_c, 0, 37, 39
1, 277788, Note_off_c, 0, 37, 64
1, 277791, Note_on_c, 0, 49, 43
1, 277839, Control_c, 0, 64, 0
1, 277863, Note_off_c, 0, 49, 64
1, 277896, Note_on_c, 0, 44, 43
1, 277936, Control_c, 0, 64, 127
1, 277949, Note_off_c, 0, 44, 64
1, 277991, Note_on_c, 0, 49, 48
1, 278008, Note_on_c, 0, 73, 39
1, 278014, Note_off_c, 0, 76, 64
1, 278039, Note_off_c, 0, 49, 64
1, 278055, Note_off_c, 0, 73, 64
1, 278084, Note_on_c, 0, 37, 50
1, 278094, Note_on_c, 0, 72, 56
1, 278103, Control_c, 0, 64, 0
1, 278178, Note_on_c, 0, 51, 46
1, 278231, Note_off_c, 0, 37, 64
1, 278245, Note_off_c, 0, 51, 64
1, 278272, Control_c, 0, 64, 127
1, 278278, Note_on_c, 0, 44, 34
1, 278321, Note_off_c, 0, 72, 64
1, 278332, Note_off_c, 0, 44, 64
1, 278360, Note_on_c, 0, 51, 35
1, 278417, Note_off_c, 0, 51, 64
1, 278442, Note_on_c, 0, 80, 58
1, 278452, Note_on_c, 0, 66, 23
1, 278460, Note_on_c, 0, 37, 48
1, 278471, Note_on_c, 0, 72, 15
1, 278510, Note_off_c, 0, 37, 64
1, 278541, Note_on_c, 0, 51, 41
1, 278549, Note_off_c, 0, 72, 64
1, 278568, Note_off_c, 0, 66, 64
1, 278579, Note_off_c, 0, 80, 64
1, 278593, Note_off_c, 0, 51, 64
1, 278613, Note_on_c, 0, 44, 41
1, 278660, Note_off_c, 0, 44, 64
1, 278699, Note_on_c, 0, 51, 27
1, 278757, Note_off_c, 0, 51, 64
1, 278771, Note_on_c, 0, 80, 65
1, 278783, Note_on_c, 0, 66, 34
1, 278783, Note_on_c, 0, 37, 47
1, 278793, Note_on_c, 0, 72, 37
1, 278827, Note_off_c, 0, 37, 64
1, 278842, Note_off_c, 0, 72, 64
1, 278852, Note_on_c, 0, 51, 38
1, 278857, Note_off_c, 0, 66, 64
1, 278908, Note_off_c, 0, 80, 64
1, 278911, Note_off_c, 0, 51, 64
1, 278945, Note_on_c, 0, 44, 33
1, 278999, Note_off_c, 0, 44, 64
1, 278999, Note_on_c, 0, 51, 46
1, 279072, Note_off_c, 0, 51, 64
1, 279100, Note_on_c, 0, 37, 54
1, 279112, Note_on_c, 0, 80, 74
1, 279119, Note_on_c, 0, 66, 46
1, 279128, Note_on_c, 0, 72, 49
1, 279150, Note_off_c, 0, 37, 64
1, 279189, Note_on_c, 0, 51, 38
1, 279237, Note_off_c, 0, 66, 64
1, 279240, Note_off_c, 0, 51, 64
1, 279251, Note_off_c, 0, 80, 64
1, 279267, Note_on_c, 0, 44, 36
1, 279318, Note_off_c, 0, 72, 64
1, 279321, Note_off_c, 0, 44, 64
1, 279321, Note_on_c, 0, 51, 50
1, 279368, Note_off_c, 0, 51, 64
1, 279398, Control_c, 0, 64, 0
1, 279418, Note_on_c, 0, 37, 58
1, 279432, Note_on_c, 0, 64, 74
1, 279468, Note_off_c, 0, 64, 64
1, 279509, Note_on_c, 0, 73, 41
1, 279529, Control_c, 0, 64, 127
1, 279529, Note_on_c, 0, 49, 34
1, 279574, Note_off_c, 0, 37, 64
1, 279582, Note_on_c, 0, 80, 73
1, 279594, Note_off_c, 0, 49, 64
1, 279616, Note_on_c, 0, 44, 36
1, 279668, Note_off_c, 0, 44, 64
1, 279696, Note_on_c, 0, 49, 35
1, 279746, Note_off_c, 0, 49, 64
1, 279775, Note_on_c, 0, 37, 46
1, 279830, Note_off_c, 0, 37, 64
1, 279847, Note_on_c, 0, 49, 35
1, 279895, Note_off_c, 0, 49, 64
1, 279928, Note_on_c, 0, 44, 41
1, 279983, Note_off_c, 0, 44, 64
1, 279992, Note_on_c, 0, 49, 39
1, 280003, Note_off_c, 0, 73, 64
1, 280025, Note_off_c, 0, 80, 64
1, 280050, Note_off_c, 0, 49, 64
1, 280083, Note_on_c, 0, 37, 58
1, 280094, Control_c, 0, 64, 0
1, 280103, Note_on_c, 0, 66, 53
1, 280181, Note_on_c, 0, 72, 55
1, 280186, Note_on_c, 0, 51, 40
1, 280201, Note_off_c, 0, 66, 64
1, 280214, Control_c, 0, 64, 127
1, 280239, Note_off_c, 0, 51, 64
1, 280243, Note_off_c, 0, 37, 64
1, 280250, Note_on_c, 0, 80, 61
1, 280261, Note_on_c, 0, 44, 31
1, 280321, Note_off_c, 0, 44, 64
1, 280345, Note_on_c, 0, 51, 30
1, 280412, Note_off_c, 0, 51, 64
1, 280412, Note_on_c, 0, 37, 48
1, 280491, Note_off_c, 0, 37, 64
1, 280494, Note_on_c, 0, 51, 41
1, 280574, Note_off_c, 0, 80, 64
1, 280574, Note_off_c, 0, 51, 64
1, 280579, Note_on_c, 0, 44, 45
1, 280635, Note_off_c, 0, 44, 64
1, 280635, Note_on_c, 0, 51, 56
1, 280685, Note_off_c, 0, 72, 64
1, 280691, Note_off_c, 0, 51, 64
1, 280705, Control_c, 0, 64, 0
1, 280743, Note_on_c, 0, 37, 53
1, 280747, Note_on_c, 0, 64, 63
1, 280797, Note_off_c, 0, 64, 64
1, 280825, Control_c, 0, 64, 127
1, 280841, Note_on_c, 0, 49, 43
1, 280847, Note_on_c, 0, 73, 41
1, 280861, Note_off_c, 0, 37, 64
1, 280902, Note_off_c, 0, 49, 64
1, 280920, Note_on_c, 0, 80, 70
1, 280931, Note_on_c, 0, 44, 37
1, 280983, Note_off_c, 0, 44, 64
1, 281033, Note_on_c, 0, 49, 28
1, 281087, Note_off_c, 0, 49, 64
1, 281097, Note_on_c, 0, 37, 42
1, 281150, Note_off_c, 0, 37, 64
1, 281150, Note_on_c, 0, 49, 37
1, 281226, Note_off_c, 0, 49, 64
1, 281243, Note_on_c, 0, 44, 42
1, 281296, Note_off_c, 0, 44, 64
1, 281306, Note_on_c, 0, 49, 38
1, 281310, Note_off_c, 0, 80, 64
1, 281382, Note_off_c, 0, 49, 64
1, 281392, Note_off_c, 0, 73, 64
1, 281418, Note_on_c, 0, 37, 46
1, 281435, Control_c, 0, 64, 0
1, 281445, Note_on_c, 0, 66, 33
1, 281521, Note_off_c, 0, 66, 64
1, 281521, Note_on_c, 0, 51, 35
1, 281521, Note_on_c, 0, 72, 47
1, 281568, Control_c, 0, 64, 127
1, 281574, Note_off_c, 0, 51, 64
1, 281588, Note_on_c, 0, 80, 55
1, 281593, Note_on_c, 0, 44, 38
1, 281610, Note_off_c, 0, 37, 64
1, 281652, Note_off_c, 0, 44, 64
1, 281668, Note_on_c, 0, 51, 29
1, 281705, Note_off_c, 0, 72, 64
1, 281736, Note_off_c, 0, 51, 64
1, 281743, Note_on_c, 0, 37, 44
1, 281750, Note_off_c, 0, 80, 64
1, 281819, Note_on_c, 0, 51, 36
1, 281819, Note_off_c, 0, 37, 64
1, 281888, Note_off_c, 0, 51, 64
1, 281913, Note_on_c, 0, 44, 34
1, 281955, Note_on_c, 0, 51, 49
1, 281972, Note_off_c, 0, 44, 64
1, 282001, Note_off_c, 0, 51, 64
1, 282051, Note_on_c, 0, 37, 45
1, 282054, Note_on_c, 0, 52, 63
1, 282059, Control_c, 0, 64, 0
1, 282133, Note_on_c, 0, 49, 46
1, 282140, Note_on_c, 0, 61, 47
1, 282182, Note_off_c, 0, 49, 64
1, 282187, Note_off_c, 0, 37, 64
1, 282201, Note_on_c, 0, 44, 46
1, 282201, Control_c, 0, 64, 127
1, 282206, Note_off_c, 0, 52, 64
1, 282211, Note_off_c, 0, 61, 64
1, 282215, Note_on_c, 0, 56, 49
1, 282254, Note_off_c, 0, 44, 64
1, 282275, Note_off_c, 0, 56, 64
1, 282275, Note_on_c, 0, 49, 37
1, 282278, Note_on_c, 0, 61, 58
1, 282326, Note_off_c, 0, 49, 64
1, 282326, Note_off_c, 0, 61, 64
1, 282354, Note_on_c, 0, 52, 60
1, 282354, Note_on_c, 0, 37, 50
1, 282416, Note_off_c, 0, 37, 64
1, 282426, Note_on_c, 0, 61, 41
1, 282434, Note_off_c, 0, 52, 64
1, 282437, Note_on_c, 0, 49, 41
1, 282484, Note_off_c, 0, 49, 64
1, 282498, Note_off_c, 0, 61, 64
1, 282505, Note_on_c, 0, 56, 57
1, 282505, Note_on_c, 0, 44, 50
1, 282554, Note_off_c, 0, 44, 64
1, 282574, Note_off_c, 0, 56, 64
1, 282574, Note_on_c, 0, 61, 56
1, 282582, Note_on_c, 0, 49, 39
1, 282632, Note_off_c, 0, 49, 64
1, 282664, Note_on_c, 0, 52, 69
1, 282664, Note_off_c, 0, 61, 64
1, 282664, Note_on_c, 0, 37, 60
1, 282732, Note_off_c, 0, 37, 64
1, 282732, Note_on_c, 0, 61, 47
1, 282744, Note_off_c, 0, 52, 64
1, 282753, Note_on_c, 0, 49, 55
1, 282792, Note_off_c, 0, 49, 64
1, 282814, Note_on_c, 0, 56, 64
1, 282817, Note_off_c, 0, 61, 64
1, 282817, Note_on_c, 0, 44, 49
1, 282866, Note_off_c, 0, 44, 64
1, 282875, Note_off_c, 0, 56, 64
1, 282875, Note_on_c, 0, 61, 64
1, 282881, Note_on_c, 0, 49, 60
1, 282942, Note_off_c, 0, 49, 64
1, 282952, Note_on_c, 0, 52, 72
1, 282952, Note_on_c, 0, 37, 58
1, 282959, Note_off_c, 0, 61, 64
1, 282998, Note_off_c, 0, 37, 64
1, 283011, Note_on_c, 0, 49, 62
1, 283011, Note_on_c, 0, 61, 70
1, 283040, Note_off_c, 0, 52, 64
1, 283090, Note_on_c, 0, 56, 66
1, 283090, Note_on_c, 0, 44, 70
1, 283097, Note_off_c, 0, 61, 64
1, 283100, Note_off_c, 0, 49, 64
1, 283147, Note_on_c, 0, 49, 76
1, 283147, Note_off_c, 0, 44, 64
1, 283161, Note_on_c, 0, 61, 66
1, 283187, Note_off_c, 0, 49, 64
1, 283195, Note_off_c, 0, 56, 64
1, 283209, Control_c, 0, 64, 0
1, 283228, Note_on_c, 0, 49, 84
1, 283228, Note_on_c, 0, 53, 101
1, 283232, Note_on_c, 0, 35, 102
1, 283249, Note_off_c, 0, 61, 64
1, 283292, Note_on_c, 0, 47, 69
1, 283301, Note_on_c, 0, 61, 67
1, 283320, Note_off_c, 0, 35, 64
1, 283365, Control_c, 0, 64, 127
1, 283365, Note_on_c, 0, 37, 73
1, 283371, Note_on_c, 0, 56, 73
1, 283382, Note_off_c, 0, 47, 64
1, 283382, Note_off_c, 0, 53, 64
1, 283388, Note_off_c, 0, 61, 64
1, 283413, Note_off_c, 0, 49, 64
1, 283437, Note_on_c, 0, 47, 72
1, 283437, Note_on_c, 0, 61, 72
1, 283463, Note_off_c, 0, 37, 64
1, 283474, Note_off_c, 0, 56, 64
1, 283510, Note_off_c, 0, 47, 64
1, 283513, Note_on_c, 0, 53, 97
1, 283518, Note_on_c, 0, 49, 74
1, 283522, Note_on_c, 0, 35, 93
1, 283540, Note_off_c, 0, 61, 64
1, 283591, Note_on_c, 0, 47, 54
1, 283591, Note_on_c, 0, 61, 68
1, 283604, Note_off_c, 0, 49, 64
1, 283629, Note_off_c, 0, 35, 64
1, 283633, Note_off_c, 0, 53, 64
1, 283665, Note_on_c, 0, 56, 74
1, 283668, Note_on_c, 0, 37, 82
1, 283672, Note_off_c, 0, 47, 64
1, 283680, Note_off_c, 0, 61, 64
1, 283736, Note_on_c, 0, 61, 69
1, 283741, Note_on_c, 0, 47, 75
1, 283766, Note_off_c, 0, 37, 64
1, 283771, Note_off_c, 0, 56, 64
1, 283813, Note_off_c, 0, 47, 64
1, 283813, Note_on_c, 0, 49, 81
1, 283818, Note_on_c, 0, 53, 103
1, 283818, Note_on_c, 0, 35, 103
1, 283841, Note_off_c, 0, 61, 64
1, 283883, Note_on_c, 0, 47, 57
1, 283897, Note_off_c, 0, 49, 64
1, 283900, Note_on_c, 0, 61, 69
1, 283916, Note_off_c, 0, 35, 64
1, 283931, Note_off_c, 0, 53, 64
1, 283951, Note_on_c, 0, 37, 82
1, 283959, Note_off_c, 0, 47, 64
1, 283959, Note_on_c, 0, 56, 78
1, 283975, Note_off_c, 0, 61, 64
1, 284026, Note_on_c, 0, 47, 75
1, 284034, Note_on_c, 0, 61, 71
1, 284056, Note_off_c, 0, 37, 64
1, 284073, Note_off_c, 0, 56, 64
1, 284097, Note_off_c, 0, 47, 64
1, 284111, Note_on_c, 0, 49, 81
1, 284111, Note_on_c, 0, 35, 100
1, 284111, Note_on_c, 0, 53, 103
1, 284136, Note_off_c, 0, 61, 64
1, 284173, Note_on_c, 0, 47, 70
1, 284185, Note_on_c, 0, 61, 76
1, 284190, Note_off_c, 0, 49, 64
1, 284226, Note_off_c, 0, 35, 64
1, 284246, Note_off_c, 0, 47, 64
1, 284257, Note_off_c, 0, 53, 64
1, 284265, Note_on_c, 0, 56, 75
1, 284271, Note_on_c, 0, 37, 76
1, 284282, Note_off_c, 0, 61, 64
1, 284302, Note_on_c, 0, 47, 73
1, 284326, Note_on_c, 0, 61, 84
1, 284346, Note_off_c, 0, 47, 64
1, 284365, Note_off_c, 0, 37, 64
1, 284381, Note_off_c, 0, 56, 64
1, 284410, Note_off_c, 0, 61, 64
1, 284432, Control_c, 0, 64, 0
1, 284435, Note_on_c, 0, 49, 103
1, 284435, Note_on_c, 0, 54, 95
1, 284441, Note_on_c, 0, 61, 70
1, 284441, Note_on_c, 0, 57, 84
1, 284448, Note_on_c, 0, 45, 108
1, 284448, Note_on_c, 0, 33, 108
1, 284496, Note_off_c, 0, 49, 64
1, 284515, Note_off_c, 0, 54, 64
1, 284515, Note_off_c, 0, 45, 64
1, 284515, Note_off_c, 0, 33, 64
1, 284538, Note_off_c, 0, 57, 64
1, 284551, Note_on_c, 0, 49, 68
1, 284586, Note_on_c, 0, 42, 79
1, 284594, Note_on_c, 0, 54, 78
1, 284608, Note_off_c, 0, 61, 64
1, 284624, Control_c, 0, 64, 127
1, 284647, Note_off_c, 0, 49, 64
1, 284651, Note_off_c, 0, 42, 64
1, 284660, Control_c, 0, 64, 0
1, 284675, Note_on_c, 0, 57, 74
1, 284725, Note_off_c, 0, 54, 64
1, 284725, Note_on_c, 0, 33, 88
1, 284733, Note_on_c, 0, 61, 79
1, 284761, Note_off_c, 0, 57, 64
1, 284799, Note_off_c, 0, 33, 64
1, 284799, Note_on_c, 0, 54, 75
1, 284825, Note_off_c, 0, 61, 64
1, 284853, Note_on_c, 0, 42, 75
1, 284863, Note_on_c, 0, 57, 69
1, 284898, Note_off_c, 0, 54, 64
1, 284934, Note_off_c, 0, 42, 64
1, 284937, Note_on_c, 0, 61, 79
1, 284975, Note_off_c, 0, 57, 64
1, 285006, Note_on_c, 0, 33, 89
1, 285006, Note_on_c, 0, 66, 76
1, 285042, Note_off_c, 0, 61, 64
1, 285068, Note_off_c, 0, 33, 64
1, 285079, Note_on_c, 0, 57, 70
1, 285107, Note_off_c, 0, 66, 64
1, 285128, Note_on_c, 0, 42, 71
1, 285136, Note_on_c, 0, 61, 72
1, 285168, Note_off_c, 0, 57, 64
1, 285214, Note_off_c, 0, 42, 64
1, 285217, Note_on_c, 0, 66, 63
1, 285243, Note_off_c, 0, 61, 64
1, 285268, Note_on_c, 0, 69, 73
1, 285276, Note_on_c, 0, 33, 85
1, 285324, Note_off_c, 0, 69, 64
1, 285324, Note_off_c, 0, 66, 64
1, 285340, Note_off_c, 0, 33, 64
1, 285346, Note_on_c, 0, 61, 91
1, 285393, Note_on_c, 0, 42, 66
1, 285413, Note_on_c, 0, 66, 66
1, 285440, Note_off_c, 0, 61, 64
1, 285451, Control_c, 0, 64, 127
1, 285466, Note_off_c, 0, 42, 64
1, 285471, Note_on_c, 0, 69, 67
1, 285533, Note_off_c, 0, 66, 64
1, 285546, Note_on_c, 0, 73, 83
1, 285549, Note_on_c, 0, 33, 80
1, 285574, Note_off_c, 0, 69, 64
1, 285610, Note_off_c, 0, 33, 64
1, 285610, Note_on_c, 0, 66, 67
1, 285624, Note_off_c, 0, 73, 64
1, 285671, Note_on_c, 0, 42, 65
1, 285677, Note_on_c, 0, 69, 67
1, 285703, Note_off_c, 0, 66, 64
1, 285733, Note_off_c, 0, 42, 64
1, 285733, Note_on_c, 0, 73, 79
1, 285775, Note_off_c, 0, 69, 64
1, 285799, Note_on_c, 0, 78, 84
1, 285814, Note_on_c, 0, 33, 87
1, 285830, Note_off_c, 0, 73, 64
1, 285853, Note_off_c, 0, 33, 64
1, 285867, Note_on_c, 0, 69, 78
1, 285883, Note_off_c, 0, 78, 64
1, 285920, Note_on_c, 0, 73, 71
1, 285928, Note_on_c, 0, 42, 72
1, 285967, Note_off_c, 0, 69, 64
1, 285989, Note_on_c, 0, 78, 81
1, 286019, Note_off_c, 0, 42, 64
1, 286039, Note_off_c, 0, 73, 64
1, 286047, Note_on_c, 0, 81, 85
1, 286056, Note_on_c, 0, 33, 96
1, 286082, Note_off_c, 0, 81, 64
1, 286092, Note_off_c, 0, 78, 64
1, 286121, Note_on_c, 0, 73, 76
1, 286137, Note_off_c, 0, 33, 64
1, 286171, Note_on_c, 0, 78, 62
1, 286185, Note_on_c, 0, 42, 75
1, 286217, Note_off_c, 0, 73, 64
1, 286235, Note_on_c, 0, 81, 74
1, 286235, Note_off_c, 0, 42, 64
1, 286254, Control_c, 0, 64, 0
1, 286276, Note_off_c, 0, 78, 64
1, 286288, Note_off_c, 0, 81, 64
1, 286313, Note_on_c, 0, 78, 98
1, 286313, Note_on_c, 0, 73, 109
1, 286313, Note_on_c, 0, 45, 107
1, 286316, Note_on_c, 0, 85, 104
1, 286316, Note_on_c, 0, 33, 106
1, 286320, Note_on_c, 0, 81, 97
1, 286419, Note_off_c, 0, 33, 64
1, 286419, Note_off_c, 0, 85, 64
1, 286419, Control_c, 0, 64, 127
1, 286429, Note_off_c, 0, 81, 64
1, 286438, Note_off_c, 0, 73, 64
1, 286443, Note_off_c, 0, 78, 64
1, 286458, Note_off_c, 0, 45, 64
1, 286458, Note_on_c, 0, 85, 84
1, 286461, Note_on_c, 0, 73, 87
1, 286466, Note_on_c, 0, 42, 86
1, 286471, Note_on_c, 0, 81, 91
1, 286471, Note_on_c, 0, 78, 40
1, 286483, Note_off_c, 0, 85, 64
1, 286497, Note_off_c, 0, 81, 64
1, 286508, Note_off_c, 0, 78, 64
1, 286538, Note_off_c, 0, 42, 64
1, 286544, Note_off_c, 0, 73, 64
1, 286613, Control_c, 0, 64, 0
1, 286630, Note_on_c, 0, 32, 103
1, 286694, Note_on_c, 0, 49, 90
1, 286728, Note_off_c, 0, 32, 64
1, 286761, Note_on_c, 0, 52, 88
1, 286767, Note_on_c, 0, 40, 97
1, 286797, Note_off_c, 0, 49, 64
1, 286822, Note_on_c, 0, 56, 77
1, 286841, Control_c, 0, 64, 127
1, 286855, Note_off_c, 0, 40, 64
1, 286862, Note_off_c, 0, 52, 64
1, 286892, Note_on_c, 0, 61, 81
1, 286898, Note_on_c, 0, 32, 79
1, 286937, Note_off_c, 0, 56, 64
1, 286967, Note_on_c, 0, 52, 94
1, 286978, Note_off_c, 0, 61, 64
1, 286990, Note_off_c, 0, 32, 64
1, 287028, Note_on_c, 0, 40, 80
1, 287028, Note_on_c, 0, 56, 74
1, 287056, Note_off_c, 0, 52, 64
1, 287096, Note_on_c, 0, 61, 73
1, 287114, Note_off_c, 0, 40, 64
1, 287139, Note_off_c, 0, 56, 64
1, 287154, Note_on_c, 0, 64, 86
1, 287165, Note_on_c, 0, 32, 83
1, 287198, Note_off_c, 0, 64, 64
1, 287209, Note_off_c, 0, 61, 64
1, 287234, Note_on_c, 0, 56, 88
1, 287245, Note_off_c, 0, 32, 64
1, 287298, Note_on_c, 0, 40, 87
1, 287309, Note_on_c, 0, 61, 90
1, 287327, Note_off_c, 0, 56, 64
1, 287362, Note_on_c, 0, 64, 80
1, 287380, Note_off_c, 0, 40, 64
1, 287415, Note_off_c, 0, 61, 64
1, 287426, Note_on_c, 0, 68, 84
1, 287433, Note_on_c, 0, 32, 84
1, 287463, Note_off_c, 0, 64, 64
1, 287487, Note_on_c, 0, 61, 75
1, 287524, Note_off_c, 0, 32, 64
1, 287536, Note_off_c, 0, 68, 64
1, 287558, Note_on_c, 0, 40, 88
1, 287561, Note_on_c, 0, 64, 78
1, 287591, Note_off_c, 0, 61, 64
1, 287619, Note_on_c, 0, 68, 64
1, 287633, Note_off_c, 0, 40, 64
1, 287661, Note_off_c, 0, 64, 64
1, 287683, Note_on_c, 0, 32, 87
1, 287686, Note_on_c, 0, 73, 86
1, 287730, Note_off_c, 0, 68, 64
1, 287761, Note_on_c, 0, 64, 92
1, 287791, Note_off_c, 0, 73, 64
1, 287791, Note_off_c, 0, 32, 64
1, 287808, Note_on_c, 0, 68, 68
1, 287816, Note_on_c, 0, 40, 91
1, 287839, Note_off_c, 0, 64, 64
1, 287881, Note_on_c, 0, 73, 67
1, 287900, Note_off_c, 0, 40, 64
1, 287917, Note_off_c, 0, 68, 64
1, 287939, Note_on_c, 0, 32, 83
1, 287939, Note_on_c, 0, 76, 85
1, 287972, Note_off_c, 0, 76, 64
1, 287984, Note_off_c, 0, 73, 64
1, 288004, Note_on_c, 0, 68, 84
1, 288042, Note_off_c, 0, 32, 64
1, 288061, Note_on_c, 0, 40, 91
1, 288068, Note_on_c, 0, 73, 73
1, 288109, Note_off_c, 0, 68, 64
1, 288128, Note_on_c, 0, 76, 64
1, 288148, Note_off_c, 0, 40, 64
1, 288188, Note_off_c, 0, 73, 64
1, 288195, Note_on_c, 0, 32, 88
1, 288195, Note_on_c, 0, 80, 88
1, 288229, Note_off_c, 0, 76, 64
1, 288257, Note_on_c, 0, 73, 71
1, 288284, Note_off_c, 0, 80, 64
1, 288313, Note_off_c, 0, 32, 64
1, 288313, Note_on_c, 0, 40, 88
1, 288330, Note_on_c, 0, 76, 52
1, 288371, Note_off_c, 0, 73, 64
1, 288387, Note_off_c, 0, 40, 64
1, 288393, Note_on_c, 0, 80, 81
1, 288436, Note_off_c, 0, 76, 64
1, 288447, Note_off_c, 0, 80, 64
1, 288483, Note_on_c, 0, 76, 91
1, 288483, Note_on_c, 0, 85, 107
1, 288487, Note_on_c, 0, 80, 96
1, 288490, Note_on_c, 0, 73, 100
1, 288490, Note_on_c, 0, 32, 86
1, 288497, Note_on_c, 0, 44, 100
1, 288599, Note_off_c, 0, 73, 64
1, 288610, Note_off_c, 0, 85, 64
1, 288610, Note_off_c, 0, 44, 64
1, 288621, Note_off_c, 0, 76, 64
1, 288638, Note_off_c, 0, 80, 64
1, 288652, Note_off_c, 0, 32, 64
1, 288660, Note_on_c, 0, 85, 90
1, 288660, Note_on_c, 0, 73, 84
1, 288664, Note_on_c, 0, 76, 85
1, 288680, Note_on_c, 0, 40, 100
1, 288680, Note_on_c, 0, 80, 84
1, 288724, Note_off_c, 0, 85, 64
1, 288728, Note_off_c, 0, 80, 64
1, 288748, Note_off_c, 0, 76, 64
1, 288772, Note_off_c, 0, 73, 64
1, 288811, Note_off_c, 0, 40, 64
1, 288897, Note_on_c, 0, 31, 111
1, 289037, Note_on_c, 0, 49, 81
1, 289093, Note_on_c, 0, 52, 87
1, 289143, Note_on_c, 0, 55, 70
1, 289154, Control_c, 0, 64, 0
1, 289190, Note_on_c, 0, 58, 73
1, 289207, Note_on_c, 0, 61, 98
1, 289276, Note_off_c, 0, 31, 64
1, 289298, Control_c, 0, 64, 127
1, 289333, Note_off_c, 0, 49, 64
1, 289369, Note_off_c, 0, 52, 64
1, 289377, Note_on_c, 0, 31, 98
1, 289399, Note_off_c, 0, 55, 64
1, 289408, Note_on_c, 0, 34, 72
1, 289427, Note_on_c, 0, 37, 75
1, 289432, Note_off_c, 0, 58, 64
1, 289465, Note_on_c, 0, 40, 100
1, 289475, Note_off_c, 0, 61, 64
1, 289486, Note_on_c, 0, 43, 98
1, 289574, Note_off_c, 0, 31, 64
1, 289597, Note_on_c, 0, 61, 75
1, 289617, Note_off_c, 0, 34, 64
1, 289628, Note_off_c, 0, 40, 64
1, 289631, Note_off_c, 0, 37, 64
1, 289649, Note_on_c, 0, 64, 74
1, 289674, Note_off_c, 0, 43, 64
1, 289686, Note_on_c, 0, 67, 70
1, 289722, Note_on_c, 0, 70, 70
1, 289733, Note_on_c, 0, 73, 93
1, 289872, Note_off_c, 0, 61, 64
1, 289876, Note_off_c, 0, 64, 64
1, 289890, Note_on_c, 0, 43, 81
1, 289904, Note_off_c, 0, 67, 64
1, 289911, Note_on_c, 0, 46, 80
1, 289943, Note_off_c, 0, 70, 64
1, 289956, Note_on_c, 0, 49, 78
1, 289976, Note_off_c, 0, 73, 64
1, 289986, Note_on_c, 0, 52, 88
1, 290007, Note_off_c, 0, 43, 64
1, 290031, Note_on_c, 0, 55, 98
1, 290056, Note_off_c, 0, 46, 64
1, 290082, Note_off_c, 0, 49, 64
1, 290103, Note_off_c, 0, 52, 64
1, 290132, Note_off_c, 0, 55, 64
1, 290220, Note_on_c, 0, 73, 86
1, 290274, Note_on_c, 0, 76, 70
1, 290337, Note_on_c, 0, 79, 87
1, 290408, Note_on_c, 0, 82, 66
1, 290454, Note_off_c, 0, 76, 64
1, 290465, Note_on_c, 0, 85, 104
1, 290474, Note_on_c, 0, 64, 96
1, 290474, Note_on_c, 0, 55, 80
1, 290483, Note_on_c, 0, 58, 57
1, 290486, Note_on_c, 0, 61, 69
1, 290493, Note_on_c, 0, 76, 41
1, 290508, Note_off_c, 0, 55, 64
1, 290527, Note_off_c, 0, 64, 64
1, 290527, Note_off_c, 0, 61, 64
1, 290533, Note_off_c, 0, 58, 64
1, 291698, Note_off_c, 0, 85, 64
1, 291708, Note_off_c, 0, 79, 64
1, 291708, Note_off_c, 0, 73, 64
1, 291717, Note_off_c, 0, 76, 64
1, 291723, Note_off_c, 0, 82, 64
1, 292196, Note_on_c, 0, 30, 98
1, 292390, Note_on_c, 0, 45, 63
1, 292438, Control_c, 0, 64, 0
1, 292438, Note_on_c, 0, 48, 62
1, 292488, Note_on_c, 0, 51, 72
1, 292535, Note_on_c, 0, 54, 70
1, 292579, Note_on_c, 0, 57, 81
1, 292582, Note_off_c, 0, 30, 64
1, 292582, Control_c, 0, 64, 127
1, 292686, Note_on_c, 0, 30, 78
1, 292692, Note_off_c, 0, 45, 64
1, 292708, Note_on_c, 0, 33, 76
1, 292711, Note_off_c, 0, 48, 64
1, 292755, Note_on_c, 0, 36, 84
1, 292758, Note_off_c, 0, 51, 64
1, 292772, Note_off_c, 0, 54, 64
1, 292789, Note_off_c, 0, 57, 64
1, 292789, Note_on_c, 0, 39, 76
1, 292808, Note_off_c, 0, 30, 64
1, 292840, Note_on_c, 0, 42, 93
1, 292867, Note_off_c, 0, 33, 64
1, 292922, Note_off_c, 0, 36, 64
1, 292957, Note_off_c, 0, 39, 64
1, 292960, Note_on_c, 0, 57, 73
1, 292978, Note_off_c, 0, 42, 64
1, 293004, Note_on_c, 0, 60, 84
1, 293040, Note_on_c, 0, 63, 82
1, 293063, Note_off_c, 0, 57, 64
1, 293087, Note_on_c, 0, 66, 62
1, 293123, Note_on_c, 0, 69, 82
1, 293174, Note_off_c, 0, 60, 64
1, 293199, Note_on_c, 0, 42, 78
1, 293219, Note_off_c, 0, 63, 64
1, 293227, Note_on_c, 0, 45, 73
1, 293248, Note_off_c, 0, 66, 64
1, 293265, Note_off_c, 0, 69, 64
1, 293279, Note_on_c, 0, 48, 77
1, 293308, Note_off_c, 0, 42, 64
1, 293321, Note_on_c, 0, 51, 79
1, 293352, Note_off_c, 0, 45, 64
1, 293396, Note_on_c, 0, 54, 101
1, 293428, Note_off_c, 0, 48, 64
1, 293486, Note_on_c, 0, 69, 83
1, 293489, Note_off_c, 0, 51, 64
1, 293508, Note_off_c, 0, 54, 64
1, 293570, Note_on_c, 0, 72, 86
1, 293669, Note_on_c, 0, 75, 89
1, 293811, Note_on_c, 0, 81, 98
1, 293817, Note_on_c, 0, 63, 80
1, 293823, Note_on_c, 0, 54, 75
1, 293829, Note_on_c, 0, 60, 66
1, 293837, Note_on_c, 0, 57, 52
1, 295697, Note_off_c, 0, 54, 64
1, 295703, Note_off_c, 0, 63, 64
1, 295731, Note_off_c, 0, 60, 64
1, 295807, Note_off_c, 0, 57, 64
1, 295818, Note_off_c, 0, 81, 64
1, 295882, Note_off_c, 0, 69, 64
1, 295910, Note_off_c, 0, 72, 64
1, 295946, Note_off_c, 0, 75, 64
1, 296474, Note_on_c, 0, 49, 43
1, 296489, Control_c, 0, 64, 0
1, 296628, Note_on_c, 0, 68, 37
1, 296698, Note_off_c, 0, 68, 64
1, 296740, Note_on_c, 0, 64, 37
1, 296795, Note_off_c, 0, 64, 64
1, 296800, Control_c, 0, 64, 127
1, 296817, Note_on_c, 0, 68, 45
1, 296870, Note_off_c, 0, 68, 64
1, 296875, Note_on_c, 0, 56, 59
1, 296890, Note_on_c, 0, 61, 52
1, 296907, Control_c, 0, 64, 0
1, 297001, Note_on_c, 0, 68, 39
1, 297010, Note_off_c, 0, 49, 64
1, 297049, Note_off_c, 0, 68, 64
1, 297059, Note_off_c, 0, 61, 64
1, 297074, Note_on_c, 0, 64, 44
1, 297121, Note_off_c, 0, 64, 64
1, 297124, Note_on_c, 0, 68, 27
1, 297148, Control_c, 0, 64, 127
1, 297216, Note_on_c, 0, 61, 51
1, 297229, Note_off_c, 0, 68, 64
1, 297275, Note_off_c, 0, 61, 64
1, 297288, Note_on_c, 0, 68, 38
1, 297360, Note_off_c, 0, 68, 64
1, 297406, Note_on_c, 0, 64, 30
1, 297444, Note_on_c, 0, 68, 36
1, 297452, Note_off_c, 0, 64, 64
1, 297523, Note_on_c, 0, 52, 76
1, 297526, Note_off_c, 0, 68, 64
1, 297531, Control_c, 0, 64, 0
1, 297534, Note_on_c, 0, 61, 51
1, 297637, Note_on_c, 0, 68, 32
1, 297640, Note_off_c, 0, 61, 64
1, 297667, Note_off_c, 0, 56, 64
1, 297700, Control_c, 0, 64, 127
1, 297720, Note_off_c, 0, 68, 64
1, 297737, Note_on_c, 0, 64, 41
1, 297789, Note_off_c, 0, 64, 64
1, 297793, Note_on_c, 0, 49, 62
1, 297803, Note_off_c, 0, 52, 64
1, 297814, Note_on_c, 0, 68, 32
1, 297832, Note_off_c, 0, 49, 64
1, 297884, Note_on_c, 0, 49, 58
1, 297890, Note_off_c, 0, 68, 64
1, 297890, Note_on_c, 0, 63, 52
1, 297951, Control_c, 0, 64, 0
1, 297991, Note_on_c, 0, 68, 30
1, 298002, Note_off_c, 0, 63, 64
1, 298079, Note_off_c, 0, 68, 64
1, 298091, Note_on_c, 0, 66, 32
1, 298146, Note_on_c, 0, 68, 37
1, 298168, Note_off_c, 0, 66, 64
1, 298179, Control_c, 0, 64, 127
1, 298238, Note_off_c, 0, 68, 64
1, 298242, Note_on_c, 0, 63, 43
1, 298250, Control_c, 0, 64, 0
1, 298261, Note_on_c, 0, 48, 36
1, 298285, Note_off_c, 0, 49, 64
1, 298316, Note_on_c, 0, 68, 30
1, 298321, Note_off_c, 0, 63, 64
1, 298430, Note_on_c, 0, 66, 29
1, 298435, Note_off_c, 0, 68, 64
1, 298494, Note_on_c, 0, 68, 43
1, 298527, Note_off_c, 0, 66, 64
1, 298538, Control_c, 0, 64, 127
1, 298586, Note_off_c, 0, 68, 64
1, 298586, Note_on_c, 0, 63, 40
1, 298591, Note_off_c, 0, 48, 64
1, 298656, Note_off_c, 0, 63, 64
1, 298664, Note_on_c, 0, 68, 30
1, 298728, Note_on_c, 0, 48, 52
1, 298764, Note_on_c, 0, 66, 35
1, 298770, Note_off_c, 0, 68, 64
1, 298828, Note_off_c, 0, 66, 64
1, 298828, Note_on_c, 0, 68, 43
1, 298896, Note_on_c, 0, 56, 69
1, 298904, Note_off_c, 0, 68, 64
1, 298904, Note_off_c, 0, 48, 64
1, 298904, Note_on_c, 0, 63, 45
1, 298934, Control_c, 0, 64, 0
1, 298993, Note_on_c, 0, 68, 33
1, 299030, Note_off_c, 0, 63, 64
1, 299082, Note_off_c, 0, 68, 64
1, 299085, Note_on_c, 0, 66, 32
1, 299090, Control_c, 0, 64, 127
1, 299140, Note_on_c, 0, 48, 47
1, 299140, Note_on_c, 0, 68, 46
1, 299199, Note_off_c, 0, 66, 64
1, 299221, Control_c, 0, 64, 0
1, 299232, Note_on_c, 0, 51, 69
1, 299236, Note_off_c, 0, 68, 64
1, 299236, Note_on_c, 0, 61, 49
1, 299258, Note_off_c, 0, 56, 64
1, 299272, Note_off_c, 0, 48, 64
1, 299322, Note_on_c, 0, 68, 33
1, 299347, Note_off_c, 0, 61, 64
1, 299413, Note_off_c, 0, 68, 64
1, 299433, Note_on_c, 0, 64, 42
1, 299480, Note_on_c, 0, 68, 41
1, 299483, Note_off_c, 0, 64, 64
1, 299508, Control_c, 0, 64, 127
1, 299566, Note_off_c, 0, 68, 64
1, 299576, Note_on_c, 0, 61, 50
1, 299581, Note_on_c, 0, 49, 59
1, 299594, Note_off_c, 0, 51, 64
1, 299617, Control_c, 0, 64, 0
1, 299654, Note_on_c, 0, 68, 29
1, 299659, Note_off_c, 0, 61, 64
1, 299729, Note_off_c, 0, 68, 64
1, 299745, Note_on_c, 0, 64, 53
1, 299790, Note_off_c, 0, 64, 64
1, 299806, Note_on_c, 0, 68, 33
1, 299843, Control_c, 0, 64, 127
1, 299873, Note_off_c, 0, 49, 64
1, 299901, Note_on_c, 0, 61, 48
1, 299913, Note_off_c, 0, 68, 64
1, 299960, Note_off_c, 0, 61, 64
1, 299971, Note_on_c, 0, 68, 41
1, 300060, Note_on_c, 0, 49, 72
1, 300077, Note_off_c, 0, 68, 64
1, 300077, Note_on_c, 0, 64, 47
1, 300126, Note_off_c, 0, 64, 64
1, 300130, Note_on_c, 0, 68, 50
1, 300229, Note_on_c, 0, 61, 52
1, 300235, Note_on_c, 0, 56, 69
1, 300249, Note_off_c, 0, 68, 64
1, 300264, Control_c, 0, 64, 0
1, 300271, Note_off_c, 0, 49, 64
1, 300310, Note_on_c, 0, 68, 40
1, 300346, Note_off_c, 0, 61, 64
1, 300406, Note_on_c, 0, 64, 51
1, 300416, Note_off_c, 0, 68, 64
1, 300431, Control_c, 0, 64, 127
1, 300466, Note_off_c, 0, 64, 64
1, 300466, Note_on_c, 0, 68, 52
1, 300475, Note_on_c, 0, 49, 57
1, 300520, Note_off_c, 0, 56, 64
1, 300539, Control_c, 0, 64, 0
1, 300558, Note_on_c, 0, 52, 79
1, 300558, Note_on_c, 0, 60, 55
1, 300576, Note_off_c, 0, 68, 64
1, 300586, Note_off_c, 0, 49, 64
1, 300636, Note_on_c, 0, 68, 48
1, 300706, Note_off_c, 0, 60, 64
1, 300729, Note_off_c, 0, 68, 64
1, 300739, Note_on_c, 0, 66, 30
1, 300785, Note_on_c, 0, 68, 55
1, 300803, Note_off_c, 0, 66, 64
1, 300815, Control_c, 0, 64, 127
1, 300884, Note_off_c, 0, 68, 64
1, 300884, Note_on_c, 0, 60, 44
1, 300910, Note_on_c, 0, 51, 58
1, 300910, Control_c, 0, 64, 0
1, 300920, Note_off_c, 0, 52, 64
1, 300951, Note_on_c, 0, 68, 41
1, 301001, Note_off_c, 0, 60, 64
1, 301051, Note_off_c, 0, 68, 64
1, 301051, Note_on_c, 0, 66, 36
1, 301115, Note_on_c, 0, 68, 41
1, 301152, Note_off_c, 0, 66, 64
1, 301205, Note_off_c, 0, 68, 64
1, 301205, Note_on_c, 0, 60, 47
1, 301222, Control_c, 0, 64, 127
1, 301275, Note_on_c, 0, 68, 44
1, 301278, Note_off_c, 0, 51, 64
1, 301299, Note_off_c, 0, 60, 64
1, 301364, Note_on_c, 0, 51, 46
1, 301375, Note_off_c, 0, 68, 64
1, 301380, Note_on_c, 0, 66, 35
1, 301438, Control_c, 0, 64, 0
1, 301444, Note_on_c, 0, 68, 41
1, 301494, Note_off_c, 0, 66, 64
1, 301550, Note_off_c, 0, 68, 64
1, 301570, Note_on_c, 0, 60, 44
1, 301576, Note_on_c, 0, 56, 46
1, 301604, Note_off_c, 0, 51, 64
1, 301650, Note_on_c, 0, 68, 29
1, 301723, Note_off_c, 0, 60, 64
1, 301756, Note_off_c, 0, 68, 64
1, 301767, Note_on_c, 0, 66, 22
1, 301785, Control_c, 0, 64, 127
1, 301829, Note_on_c, 0, 68, 34
1, 301874, Note_off_c, 0, 56, 64
1, 301885, Note_on_c, 0, 51, 23
1, 301898, Note_off_c, 0, 66, 64
1, 301909, Note_off_c, 0, 68, 64
1, 301941, Control_c, 0, 64, 0
1, 301951, Note_off_c, 0, 51, 64
1, 301966, Note_on_c, 0, 61, 35
1, 301973, Note_on_c, 0, 68, 49
1, 301985, Note_on_c, 0, 52, 42
1, 301999, Note_on_c, 0, 64, 28
1, 302099, Note_on_c, 0, 56, 37
1, 302104, Note_off_c, 0, 52, 64
1, 302132, Note_off_c, 0, 64, 64
1, 302132, Control_c, 0, 64, 127
1, 302138, Note_off_c, 0, 61, 64
1, 302161, Note_off_c, 0, 56, 64
1, 302194, Note_on_c, 0, 52, 29
1, 302208, Note_off_c, 0, 68, 64
1, 302250, Note_off_c, 0, 52, 64
1, 302294, Note_on_c, 0, 56, 22
1, 302353, Note_off_c, 0, 56, 64
1, 302364, Note_on_c, 0, 80, 77
1, 302370, Note_on_c, 0, 68, 49
1, 302406, Note_on_c, 0, 52, 34
1, 302452, Note_off_c, 0, 52, 64
1, 302466, Note_on_c, 0, 56, 30
1, 302540, Note_off_c, 0, 56, 64
1, 302554, Note_on_c, 0, 52, 22
1, 302576, Control_c, 0, 64, 0
1, 302617, Note_off_c, 0, 52, 64
1, 302622, Note_on_c, 0, 56, 32
1, 302684, Control_c, 0, 64, 127
1, 302690, Note_off_c, 0, 56, 64
1, 302696, Note_on_c, 0, 52, 53
1, 302740, Note_off_c, 0, 52, 64
1, 302768, Note_on_c, 0, 56, 32
1, 302776, Note_off_c, 0, 80, 64
1, 302837, Note_off_c, 0, 56, 64
1, 302859, Note_on_c, 0, 52, 31
1, 302901, Note_on_c, 0, 56, 42
1, 302904, Note_off_c, 0, 52, 64
1, 302990, Note_off_c, 0, 56, 64
1, 303010, Note_on_c, 0, 76, 74
1, 303018, Note_on_c, 0, 64, 66
1, 303035, Note_off_c, 0, 68, 64
1, 303049, Note_on_c, 0, 52, 10
1, 303091, Note_off_c, 0, 52, 64
1, 303105, Note_off_c, 0, 76, 64
1, 303111, Note_off_c, 0, 64, 64
1, 303114, Note_on_c, 0, 56, 37
1, 303168, Note_off_c, 0, 56, 64
1, 303203, Note_on_c, 0, 52, 24
1, 303255, Note_off_c, 0, 52, 64
1, 303288, Note_on_c, 0, 73, 64
1, 303288, Note_on_c, 0, 61, 67
1, 303297, Note_on_c, 0, 56, 39
1, 303322, Note_off_c, 0, 73, 64
1, 303328, Note_off_c, 0, 61, 64
1, 303349, Note_off_c, 0, 56, 64
1, 303377, Note_on_c, 0, 73, 45
1, 303389, Note_on_c, 0, 61, 53
1, 303394, Note_on_c, 0, 54, 44
1, 303441, Control_c, 0, 64, 0
1, 303459, Note_off_c, 0, 54, 64
1, 303476, Note_on_c, 0, 56, 42
1, 303547, Note_off_c, 0, 56, 64
1, 303575, Note_on_c, 0, 54, 41
1, 303595, Control_c, 0, 64, 127
1, 303623, Note_off_c, 0, 54, 64
1, 303656, Note_on_c, 0, 56, 33
1, 303696, Note_off_c, 0, 61, 64
1, 303712, Note_off_c, 0, 56, 64
1, 303729, Note_off_c, 0, 73, 64
1, 303740, Note_on_c, 0, 72, 57
1, 303746, Note_on_c, 0, 60, 52
1, 303765, Note_on_c, 0, 54, 21
1, 303818, Note_off_c, 0, 54, 64
1, 303826, Control_c, 0, 64, 0
1, 303834, Note_on_c, 0, 56, 36
1, 303887, Note_off_c, 0, 56, 64
1, 303890, Note_on_c, 0, 54, 41
1, 303966, Control_c, 0, 64, 127
1, 303977, Note_off_c, 0, 54, 64
1, 303996, Note_on_c, 0, 56, 26
1, 304054, Note_off_c, 0, 56, 64
1, 304082, Note_on_c, 0, 54, 35
1, 304111, Note_off_c, 0, 60, 64
1, 304136, Note_off_c, 0, 54, 64
1, 304152, Note_off_c, 0, 72, 64
1, 304182, Note_on_c, 0, 56, 26
1, 304236, Note_off_c, 0, 56, 64
1, 304239, Note_on_c, 0, 60, 58
1, 304239, Note_on_c, 0, 72, 59
1, 304271, Note_on_c, 0, 54, 42
1, 304280, Note_off_c, 0, 60, 64
1, 304292, Note_off_c, 0, 72, 64
1, 304317, Note_off_c, 0, 54, 64
1, 304363, Note_on_c, 0, 56, 36
1, 304414, Note_off_c, 0, 56, 64
1, 304456, Note_on_c, 0, 54, 37
1, 304475, Note_on_c, 0, 80, 87
1, 304484, Note_on_c, 0, 68, 64
1, 304508, Note_off_c, 0, 54, 64
1, 304537, Note_off_c, 0, 80, 64
1, 304543, Note_on_c, 0, 56, 37
1, 304587, Note_off_c, 0, 68, 64
1, 304614, Note_off_c, 0, 56, 64
1, 304636, Note_on_c, 0, 54, 52
1, 304690, Note_off_c, 0, 54, 64
1, 304740, Note_on_c, 0, 56, 40
1, 304746, Note_on_c, 0, 60, 73
1, 304753, Note_on_c, 0, 72, 63
1, 304781, Note_off_c, 0, 60, 64
1, 304788, Note_off_c, 0, 72, 64
1, 304796, Note_off_c, 0, 56, 64
1, 304863, Note_on_c, 0, 52, 37
1, 304863, Note_on_c, 0, 75, 72
1, 304866, Note_on_c, 0, 63, 76
1, 304866, Control_c, 0, 64, 0
1, 304923, Note_off_c, 0, 52, 64
1, 304949, Note_on_c, 0, 56, 42
1, 305013, Note_off_c, 0, 56, 64
1, 305033, Control_c, 0, 64, 127
1, 305047, Note_on_c, 0, 52, 36
1, 305093, Note_off_c, 0, 52, 64
1, 305100, Note_off_c, 0, 63, 64
1, 305122, Note_off_c, 0, 75, 64
1, 305132, Note_on_c, 0, 56, 29
1, 305189, Note_off_c, 0, 56, 64
1, 305202, Note_on_c, 0, 61, 56
1, 305202, Note_on_c, 0, 73, 58
1, 305222, Note_on_c, 0, 52, 32
1, 305269, Note_off_c, 0, 52, 64
1, 305294, Note_on_c, 0, 56, 32
1, 305358, Note_off_c, 0, 56, 64
1, 305375, Note_on_c, 0, 52, 37
1, 305381, Control_c, 0, 64, 0
1, 305428, Note_off_c, 0, 52, 64
1, 305447, Note_on_c, 0, 56, 31
1, 305512, Note_off_c, 0, 56, 64
1, 305512, Control_c, 0, 64, 127
1, 305533, Note_on_c, 0, 52, 48
1, 305576, Note_off_c, 0, 52, 64
1, 305584, Note_off_c, 0, 61, 64
1, 305595, Note_off_c, 0, 73, 64
1, 305612, Note_on_c, 0, 56, 35
1, 305671, Note_off_c, 0, 56, 64
1, 305692, Note_on_c, 0, 73, 70
1, 305692, Note_on_c, 0, 61, 78
1, 305720, Note_on_c, 0, 52, 47
1, 305724, Note_off_c, 0, 61, 64
1, 305762, Note_off_c, 0, 52, 64
1, 305782, Note_off_c, 0, 73, 64
1, 305793, Note_on_c, 0, 56, 47
1, 305848, Note_off_c, 0, 56, 64
1, 305888, Note_on_c, 0, 80, 93
1, 305894, Note_on_c, 0, 68, 59
1, 305913, Note_on_c, 0, 52, 36
1, 305918, Note_on_c, 0, 70, 22
1, 305924, Note_off_c, 0, 80, 64
1, 305958, Note_off_c, 0, 68, 64
1, 305958, Note_off_c, 0, 52, 64
1, 305968, Note_off_c, 0, 70, 64
1, 305968, Note_on_c, 0, 56, 51
1, 306049, Note_off_c, 0, 56, 64
1, 306049, Note_on_c, 0, 52, 43
1, 306100, Note_off_c, 0, 52, 64
1, 306136, Note_on_c, 0, 56, 43
1, 306139, Note_on_c, 0, 61, 78
1, 306139, Note_on_c, 0, 73, 73
1, 306172, Note_off_c, 0, 61, 64
1, 306172, Note_off_c, 0, 73, 64
1, 306224, Note_off_c, 0, 56, 64
1, 306231, Control_c, 0, 64, 0
1, 306249, Note_on_c, 0, 76, 91
1, 306255, Note_on_c, 0, 48, 45
1, 306263, Note_on_c, 0, 64, 73
1, 306313, Note_off_c, 0, 48, 64
1, 306342, Note_on_c, 0, 56, 51
1, 306400, Control_c, 0, 64, 127
1, 306414, Note_off_c, 0, 56, 64
1, 306434, Note_off_c, 0, 64, 64
1, 306442, Note_on_c, 0, 48, 31
1, 306445, Note_off_c, 0, 76, 64
1, 306492, Note_off_c, 0, 48, 64
1, 306500, Note_on_c, 0, 56, 41
1, 306567, Note_off_c, 0, 56, 64
1, 306576, Note_on_c, 0, 75, 70
1, 306579, Note_on_c, 0, 48, 21
1, 306582, Note_on_c, 0, 63, 64
1, 306639, Note_off_c, 0, 48, 64
1, 306662, Note_on_c, 0, 56, 43
1, 306721, Note_off_c, 0, 56, 64
1, 306738, Note_on_c, 0, 48, 34
1, 306771, Control_c, 0, 64, 0
1, 306804, Note_off_c, 0, 48, 64
1, 306809, Note_on_c, 0, 56, 48
1, 306879, Control_c, 0, 64, 127
1, 306883, Note_off_c, 0, 56, 64
1, 306899, Note_on_c, 0, 48, 29
1, 306955, Note_off_c, 0, 48, 64
1, 306968, Note_off_c, 0, 63, 64
1, 306976, Note_off_c, 0, 75, 64
1, 306976, Note_on_c, 0, 56, 42
1, 307046, Note_off_c, 0, 56, 64
1, 307074, Note_on_c, 0, 75, 69
1, 307080, Note_on_c, 0, 63, 70
1, 307093, Note_on_c, 0, 48, 37
1, 307111, Note_off_c, 0, 63, 64
1, 307122, Note_off_c, 0, 75, 64
1, 307141, Note_off_c, 0, 48, 64
1, 307164, Note_on_c, 0, 56, 49
1, 307228, Note_off_c, 0, 56, 64
1, 307269, Note_on_c, 0, 80, 87
1, 307272, Note_on_c, 0, 68, 67
1, 307288, Note_on_c, 0, 48, 37
1, 307347, Note_off_c, 0, 68, 64
1, 307351, Note_on_c, 0, 56, 47
1, 307361, Note_off_c, 0, 80, 64
1, 307370, Note_off_c, 0, 48, 64
1, 307456, Note_off_c, 0, 56, 64
1, 307462, Note_on_c, 0, 48, 31
1, 307536, Note_off_c, 0, 48, 64
1, 307553, Note_on_c, 0, 75, 59
1, 307556, Note_on_c, 0, 63, 43
1, 307561, Note_on_c, 0, 56, 41
1, 307585, Note_off_c, 0, 75, 64
1, 307598, Note_off_c, 0, 63, 64
1, 307623, Control_c, 0, 64, 0
1, 307646, Note_off_c, 0, 56, 64
1, 307664, Note_on_c, 0, 78, 81
1, 307667, Note_on_c, 0, 66, 57
1, 307673, Note_on_c, 0, 49, 49
1, 307759, Note_off_c, 0, 49, 64
1, 307777, Control_c, 0, 64, 127
1, 307777, Note_on_c, 0, 56, 51
1, 307795, Note_off_c, 0, 66, 64
1, 307801, Note_off_c, 0, 78, 64
1, 307857, Note_off_c, 0, 56, 64
1, 307869, Note_on_c, 0, 64, 72
1, 307873, Note_on_c, 0, 76, 71
1, 307890, Note_on_c, 0, 49, 40
1, 307901, Note_off_c, 0, 64, 64
1, 307908, Note_off_c, 0, 76, 64
1, 307938, Note_off_c, 0, 49, 64
1, 307979, Note_on_c, 0, 56, 42
1, 308041, Note_off_c, 0, 56, 64
1, 308074, Note_on_c, 0, 85, 84
1, 308074, Note_on_c, 0, 73, 74
1, 308085, Note_on_c, 0, 49, 41
1, 308097, Note_off_c, 0, 85, 64
1, 308105, Note_off_c, 0, 73, 64
1, 308141, Note_off_c, 0, 49, 64
1, 308158, Note_on_c, 0, 56, 49
1, 308238, Note_off_c, 0, 56, 64
1, 308261, Note_on_c, 0, 49, 50
1, 308266, Note_on_c, 0, 64, 81
1, 308266, Note_on_c, 0, 76, 69
1, 308294, Note_off_c, 0, 64, 64
1, 308297, Note_off_c, 0, 76, 64
1, 308306, Note_off_c, 0, 49, 64
1, 308331, Note_on_c, 0, 56, 50
1, 308370, Note_off_c, 0, 56, 64
1, 308401, Control_c, 0, 64, 0
1, 308436, Note_on_c, 0, 78, 92
1, 308439, Note_on_c, 0, 47, 57
1, 308439, Note_on_c, 0, 66, 82
1, 308526, Note_off_c, 0, 47, 64
1, 308526, Note_on_c, 0, 49, 66
1, 308545, Control_c, 0, 64, 127
1, 308560, Note_off_c, 0, 66, 64
1, 308570, Note_off_c, 0, 78, 64
1, 308587, Note_off_c, 0, 49, 64
1, 308607, Note_on_c, 0, 47, 43
1, 308620, Note_on_c, 0, 77, 85
1, 308620, Note_on_c, 0, 65, 69
1, 308651, Note_off_c, 0, 65, 64
1, 308681, Note_off_c, 0, 77, 64
1, 308699, Note_off_c, 0, 47, 64
1, 308699, Note_on_c, 0, 49, 63
1, 308745, Note_off_c, 0, 49, 64
1, 308776, Note_on_c, 0, 47, 45
1, 308790, Note_on_c, 0, 85, 97
1, 308790, Note_on_c, 0, 73, 89
1, 308818, Note_off_c, 0, 85, 64
1, 308818, Note_off_c, 0, 73, 64
1, 308858, Note_on_c, 0, 49, 71
1, 308869, Note_off_c, 0, 47, 64
1, 308924, Note_off_c, 0, 49, 64
1, 308932, Note_on_c, 0, 47, 60
1, 308955, Note_on_c, 0, 77, 95
1, 308955, Note_on_c, 0, 65, 87
1, 308980, Note_off_c, 0, 77, 64
1, 308983, Note_off_c, 0, 65, 64
1, 309024, Note_on_c, 0, 49, 69
1, 309046, Note_off_c, 0, 47, 64
1, 309072, Control_c, 0, 64, 0
1, 309114, Note_off_c, 0, 49, 64
1, 309122, Note_on_c, 0, 68, 95
1, 309122, Note_on_c, 0, 80, 101
1, 309128, Note_on_c, 0, 45, 74
1, 309203, Note_off_c, 0, 68, 64
1, 309208, Note_off_c, 0, 45, 64
1, 309216, Control_c, 0, 64, 127
1, 309216, Note_off_c, 0, 80, 64
1, 309222, Note_on_c, 0, 49, 65
1, 309287, Note_on_c, 0, 45, 45
1, 309292, Note_off_c, 0, 49, 64
1, 309292, Note_on_c, 0, 66, 81
1, 309295, Note_on_c, 0, 78, 91
1, 309328, Note_off_c, 0, 66, 64
1, 309364, Note_on_c, 0, 49, 68
1, 309372, Note_off_c, 0, 78, 64
1, 309379, Note_off_c, 0, 45, 64
1, 309447, Note_on_c, 0, 45, 46
1, 309451, Note_off_c, 0, 49, 64
1, 309456, Note_on_c, 0, 73, 95
1, 309459, Note_on_c, 0, 85, 97
1, 309484, Note_off_c, 0, 85, 64
1, 309489, Note_off_c, 0, 73, 64
1, 309532, Note_on_c, 0, 49, 60
1, 309545, Note_off_c, 0, 45, 64
1, 309610, Note_on_c, 0, 45, 48
1, 309621, Note_off_c, 0, 49, 64
1, 309624, Note_on_c, 0, 66, 88
1, 309628, Note_on_c, 0, 78, 95
1, 309667, Note_off_c, 0, 66, 64
1, 309690, Note_off_c, 0, 78, 64
1, 309701, Note_on_c, 0, 49, 62
1, 309737, Note_off_c, 0, 45, 64
1, 309743, Control_c, 0, 64, 0
1, 309793, Note_off_c, 0, 49, 64
1, 309799, Note_on_c, 0, 81, 94
1, 309799, Note_on_c, 0, 69, 92
1, 309799, Note_on_c, 0, 41, 94
1, 309863, Note_off_c, 0, 81, 64
1, 309876, Control_c, 0, 64, 127
1, 309893, Note_off_c, 0, 69, 64
1, 309893, Note_on_c, 0, 49, 69
1, 309918, Note_off_c, 0, 41, 64
1, 309977, Note_off_c, 0, 49, 64
1, 309977, Note_on_c, 0, 41, 73
1, 309982, Note_on_c, 0, 68, 86
1, 309985, Note_on_c, 0, 80, 97
1, 310032, Note_off_c, 0, 68, 64
1, 310044, Note_off_c, 0, 80, 64
1, 310061, Note_on_c, 0, 49, 65
1, 310086, Note_off_c, 0, 41, 64
1, 310159, Note_off_c, 0, 49, 64
1, 310163, Note_on_c, 0, 85, 103
1, 310163, Note_on_c, 0, 73, 97
1, 310175, Note_on_c, 0, 41, 73
1, 310202, Note_off_c, 0, 85, 64
1, 310219, Note_off_c, 0, 73, 64
1, 310258, Note_on_c, 0, 49, 74
1, 310278, Note_off_c, 0, 41, 64
1, 310336, Note_off_c, 0, 49, 64
1, 310348, Note_on_c, 0, 68, 92
1, 310348, Note_on_c, 0, 80, 97
1, 310351, Note_on_c, 0, 41, 71
1, 310422, Note_on_c, 0, 49, 70
1, 310431, Note_off_c, 0, 41, 64
1, 310440, Note_off_c, 0, 68, 64
1, 310456, Note_off_c, 0, 49, 64
1, 310486, Note_off_c, 0, 80, 64
1, 310668, Note_on_c, 0, 42, 101
1, 310668, Note_on_c, 0, 81, 100
1, 310668, Note_on_c, 0, 30, 103
1, 310672, Note_on_c, 0, 37, 92
1, 310763, Control_c, 0, 64, 0
1, 310930, Note_on_c, 0, 78, 86
1, 311002, Control_c, 0, 64, 127
1, 311014, Note_off_c, 0, 81, 64
1, 311061, Note_on_c, 0, 73, 72
1, 311100, Note_off_c, 0, 78, 64
1, 311188, Note_on_c, 0, 69, 72
1, 311212, Note_off_c, 0, 73, 64
1, 311283, Note_off_c, 0, 69, 64
1, 311305, Note_on_c, 0, 66, 75
1, 311409, Note_on_c, 0, 61, 84
1, 311450, Note_off_c, 0, 66, 64
1, 311526, Note_on_c, 0, 69, 85
1, 311545, Note_off_c, 0, 61, 64
1, 311631, Note_on_c, 0, 66, 78
1, 311659, Note_off_c, 0, 69, 64
1, 311738, Note_on_c, 0, 61, 78
1, 311768, Note_off_c, 0, 66, 64
1, 311829, Note_on_c, 0, 57, 85
1, 311843, Note_off_c, 0, 61, 64
1, 311882, Note_off_c, 0, 57, 64
1, 311916, Note_on_c, 0, 54, 89
1, 312008, Note_on_c, 0, 49, 81
1, 312036, Note_off_c, 0, 54, 64
1, 312094, Note_on_c, 0, 57, 78
1, 312111, Note_off_c, 0, 49, 64
1, 312167, Note_on_c, 0, 54, 75
1, 312241, Note_on_c, 0, 49, 70
1, 312270, Note_off_c, 0, 54, 64
1, 312306, Note_on_c, 0, 45, 73
1, 312325, Note_off_c, 0, 49, 64
1, 312379, Note_on_c, 0, 49, 73
1, 312389, Note_off_c, 0, 45, 64
1, 312425, Note_off_c, 0, 57, 64
1, 312457, Note_on_c, 0, 54, 84
1, 312467, Note_off_c, 0, 49, 64
1, 312485, Note_off_c, 0, 54, 64
1, 312532, Note_on_c, 0, 57, 74
1, 312584, Note_off_c, 0, 57, 64
1, 312599, Note_on_c, 0, 61, 85
1, 312668, Note_on_c, 0, 66, 76
1, 312691, Note_off_c, 0, 61, 64
1, 312705, Note_off_c, 0, 66, 64
1, 312740, Note_on_c, 0, 69, 81
1, 312804, Note_on_c, 0, 73, 79
1, 312832, Note_off_c, 0, 69, 64
1, 312868, Note_on_c, 0, 78, 83
1, 312896, Note_off_c, 0, 73, 64
1, 312946, Note_on_c, 0, 81, 94
1, 312966, Note_off_c, 0, 30, 64
1, 312977, Note_off_c, 0, 78, 64
1, 313017, Note_on_c, 0, 78, 82
1, 313017, Note_off_c, 0, 42, 64
1, 313031, Note_off_c, 0, 37, 64
1, 313095, Note_off_c, 0, 81, 64
1, 313108, Note_on_c, 0, 73, 76
1, 313158, Note_off_c, 0, 78, 64
1, 313197, Note_on_c, 0, 69, 70
1, 313270, Note_off_c, 0, 73, 64
1, 313343, Note_on_c, 0, 81, 98
1, 313343, Note_on_c, 0, 38, 97
1, 313343, Note_on_c, 0, 42, 98
1, 313346, Note_on_c, 0, 30, 100
1, 313435, Control_c, 0, 64, 0
1, 313506, Note_on_c, 0, 78, 86
1, 313596, Note_off_c, 0, 69, 64
1, 313613, Note_off_c, 0, 81, 64
1, 313626, Note_on_c, 0, 74, 85
1, 313638, Control_c, 0, 64, 127
1, 313673, Note_off_c, 0, 78, 64
1, 313744, Note_on_c, 0, 69, 73
1, 313765, Note_off_c, 0, 74, 64
1, 313868, Note_on_c, 0, 66, 79
1, 313903, Note_off_c, 0, 69, 64
1, 313982, Note_on_c, 0, 62, 88
1, 314019, Note_off_c, 0, 66, 64
1, 314100, Note_on_c, 0, 69, 83
1, 314130, Note_off_c, 0, 62, 64
1, 314201, Note_on_c, 0, 66, 76
1, 314253, Note_off_c, 0, 69, 64
1, 314314, Note_on_c, 0, 62, 80
1, 314343, Note_off_c, 0, 66, 64
1, 314387, Note_off_c, 0, 62, 64
1, 314401, Note_on_c, 0, 57, 81
1, 314485, Note_off_c, 0, 57, 64
1, 314499, Note_on_c, 0, 54, 88
1, 314581, Note_on_c, 0, 50, 91
1, 314621, Note_off_c, 0, 54, 64
1, 314669, Note_on_c, 0, 57, 75
1, 314688, Note_off_c, 0, 50, 64
1, 314735, Note_on_c, 0, 54, 88
1, 314807, Note_on_c, 0, 50, 66
1, 314843, Note_off_c, 0, 54, 64
1, 314863, Note_on_c, 0, 45, 79
1, 314872, Note_off_c, 0, 50, 64
1, 314944, Note_on_c, 0, 50, 70
1, 314953, Note_off_c, 0, 45, 64
1, 314986, Note_off_c, 0, 57, 64
1, 315022, Note_on_c, 0, 54, 80
1, 315031, Note_off_c, 0, 50, 64
1, 315064, Note_off_c, 0, 54, 64
1, 315094, Note_on_c, 0, 57, 84
1, 315169, Note_on_c, 0, 62, 86
1, 315180, Note_off_c, 0, 57, 64
1, 315247, Note_off_c, 0, 62, 64
1, 315247, Note_on_c, 0, 66, 76
1, 315276, Note_off_c, 0, 66, 64
1, 315281, Note_on_c, 0, 67, 47
1, 315315, Note_on_c, 0, 69, 80
1, 315332, Note_off_c, 0, 67, 64
1, 315395, Note_on_c, 0, 74, 85
1, 315434, Note_off_c, 0, 69, 64
1, 315460, Note_on_c, 0, 78, 84
1, 315496, Note_off_c, 0, 74, 64
1, 315541, Note_on_c, 0, 81, 102
1, 315571, Note_off_c, 0, 78, 64
1, 315615, Note_on_c, 0, 78, 81
1, 315630, Note_off_c, 0, 38, 64
1, 315696, Note_on_c, 0, 74, 82
1, 315704, Note_off_c, 0, 81, 64
1, 315755, Note_off_c, 0, 78, 64
1, 315772, Note_on_c, 0, 69, 85
1, 315796, Note_off_c, 0, 42, 64
1, 315796, Note_off_c, 0, 30, 64
1, 315813, Note_off_c, 0, 74, 64
1, 315833, Note_off_c, 0, 69, 64
1, 315931, Note_on_c, 0, 85, 100
1, 315936, Note_on_c, 0, 43, 106
1, 315936, Note_on_c, 0, 31, 104
1, 315936, Note_on_c, 0, 37, 100
1, 316047, Control_c, 0, 64, 0
1, 316069, Note_on_c, 0, 82, 78
1, 316187, Note_on_c, 0, 79, 89
1, 316229, Note_off_c, 0, 85, 64
1, 316264, Control_c, 0, 64, 127
1, 316273, Note_off_c, 0, 82, 64
1, 316300, Note_on_c, 0, 76, 84
1, 316326, Note_off_c, 0, 79, 64
1, 316382, Note_off_c, 0, 76, 64
1, 316406, Note_on_c, 0, 73, 84
1, 316512, Note_on_c, 0, 70, 81
1, 316566, Note_off_c, 0, 73, 64
1, 316648, Note_on_c, 0, 76, 89
1, 316677, Note_off_c, 0, 70, 64
1, 316758, Note_on_c, 0, 73, 78
1, 316824, Note_off_c, 0, 76, 64
1, 316858, Note_on_c, 0, 70, 73
1, 316911, Note_off_c, 0, 73, 64
1, 316933, Note_on_c, 0, 67, 79
1, 316988, Note_off_c, 0, 70, 64
1, 316995, Note_off_c, 0, 67, 64
1, 316999, Note_on_c, 0, 64, 88
1, 317028, Note_off_c, 0, 64, 64
1, 317067, Note_on_c, 0, 61, 85
1, 317126, Note_on_c, 0, 58, 72
1, 317181, Note_off_c, 0, 61, 64
1, 317209, Note_on_c, 0, 64, 98
1, 317229, Note_off_c, 0, 58, 64
1, 317284, Note_on_c, 0, 61, 80
1, 317323, Note_on_c, 0, 58, 52
1, 317332, Note_off_c, 0, 64, 64
1, 317387, Note_off_c, 0, 61, 64
1, 317401, Note_on_c, 0, 55, 84
1, 317449, Note_off_c, 0, 58, 64
1, 317474, Note_on_c, 0, 52, 103
1, 317484, Note_off_c, 0, 55, 64
1, 317552, Note_on_c, 0, 49, 88
1, 317555, Note_off_c, 0, 52, 64
1, 317629, Note_off_c, 0, 49, 64
1, 317635, Note_on_c, 0, 52, 88
1, 317696, Note_on_c, 0, 55, 91
1, 317711, Note_off_c, 0, 52, 64
1, 317766, Note_on_c, 0, 58, 70
1, 317794, Note_off_c, 0, 55, 64
1, 317816, Note_on_c, 0, 61, 85
1, 317863, Note_off_c, 0, 58, 64
1, 317885, Note_off_c, 0, 61, 64
1, 317885, Note_on_c, 0, 64, 89
1, 317944, Note_on_c, 0, 67, 91
1, 317975, Note_off_c, 0, 64, 64
1, 318013, Note_on_c, 0, 70, 79
1, 318052, Note_off_c, 0, 67, 64
1, 318067, Note_on_c, 0, 73, 78
1, 318101, Note_off_c, 0, 70, 64
1, 318109, Note_off_c, 0, 73, 64
1, 318137, Note_on_c, 0, 76, 89
1, 318204, Note_on_c, 0, 79, 95
1, 318245, Note_off_c, 0, 76, 64
1, 318254, Note_on_c, 0, 82, 80
1, 318261, Note_off_c, 0, 37, 64
1, 318286, Note_off_c, 0, 79, 64
1, 318298, Note_off_c, 0, 31, 64
1, 318320, Note_on_c, 0, 85, 86
1, 318346, Note_off_c, 0, 43, 64
1, 318351, Note_off_c, 0, 82, 64
1, 318403, Note_on_c, 0, 82, 73
1, 318496, Note_on_c, 0, 76, 94
1, 318510, Note_off_c, 0, 85, 64
1, 318546, Note_off_c, 0, 82, 64
1, 318669, Note_on_c, 0, 44, 111
1, 318673, Note_on_c, 0, 32, 96
1, 318676, Note_on_c, 0, 88, 108
1, 318676, Note_on_c, 0, 37, 96
1, 318732, Control_c, 0, 64, 0
1, 318846, Note_on_c, 0, 85, 92
1, 318931, Note_off_c, 0, 88, 64
1, 318959, Control_c, 0, 64, 127
1, 318972, Note_off_c, 0, 76, 64
1, 318975, Note_on_c, 0, 80, 85
1, 319022, Note_off_c, 0, 85, 64
1, 319103, Note_on_c, 0, 76, 87
1, 319128, Note_off_c, 0, 80, 64
1, 319154, Note_off_c, 0, 32, 64
1, 319162, Note_off_c, 0, 37, 64
1, 319171, Note_off_c, 0, 44, 64
1, 319231, Note_on_c, 0, 73, 83
1, 319270, Note_off_c, 0, 76, 64
1, 319359, Note_on_c, 0, 68, 87
1, 319409, Note_off_c, 0, 73, 64
1, 319502, Note_on_c, 0, 76, 91
1, 319519, Note_off_c, 0, 68, 64
1, 319632, Note_on_c, 0, 73, 84
1, 319694, Note_off_c, 0, 76, 64
1, 319747, Note_on_c, 0, 68, 79
1, 319791, Note_off_c, 0, 73, 64
1, 319849, Note_on_c, 0, 64, 98
1, 319860, Note_off_c, 0, 68, 64
1, 319933, Note_off_c, 0, 64, 64
1, 319945, Note_on_c, 0, 73, 79
1, 320042, Note_on_c, 0, 68, 78
1, 320078, Note_off_c, 0, 73, 64
1, 320122, Note_on_c, 0, 64, 85
1, 320147, Note_off_c, 0, 68, 64
1, 320211, Note_off_c, 0, 64, 64
1, 320221, Note_on_c, 0, 61, 96
1, 320295, Note_off_c, 0, 61, 64
1, 320306, Note_on_c, 0, 68, 70
1, 320379, Note_on_c, 0, 64, 76
1, 320415, Note_off_c, 0, 68, 64
1, 320435, Note_off_c, 0, 64, 64
1, 320445, Note_on_c, 0, 61, 76
1, 320530, Note_on_c, 0, 56, 93
1, 320543, Note_off_c, 0, 61, 64
1, 320604, Note_on_c, 0, 64, 81
1, 320621, Note_off_c, 0, 56, 64
1, 320671, Note_on_c, 0, 61, 59
1, 320722, Note_off_c, 0, 61, 64
1, 320728, Note_off_c, 0, 64, 64
1, 320732, Note_on_c, 0, 56, 65
1, 320813, Note_on_c, 0, 52, 105
1, 320827, Note_off_c, 0, 56, 64
1, 320878, Note_off_c, 0, 52, 64
1, 320888, Note_on_c, 0, 61, 69
1, 320953, Note_on_c, 0, 56, 66
1, 321005, Note_off_c, 0, 61, 64
1, 321033, Note_on_c, 0, 52, 85
1, 321033, Note_off_c, 0, 56, 64
1, 321097, Note_off_c, 0, 52, 64
1, 321117, Note_on_c, 0, 49, 95
1, 321182, Note_off_c, 0, 49, 64
1, 321203, Note_on_c, 0, 56, 72
1, 321285, Note_on_c, 0, 52, 84
1, 321321, Note_off_c, 0, 56, 64
1, 321362, Note_on_c, 0, 49, 80
1, 321379, Note_off_c, 0, 52, 64
1, 321460, Note_off_c, 0, 49, 64
1, 321518, Note_on_c, 0, 44, 99
1, 321583, Control_c, 0, 64, 0
1, 321650, Note_on_c, 0, 45, 72
1, 321728, Control_c, 0, 64, 127
1, 321746, Note_on_c, 0, 46, 70
1, 321750, Note_off_c, 0, 44, 64
1, 321760, Note_off_c, 0, 45, 64
1, 321845, Note_on_c, 0, 47, 74
1, 321863, Note_off_c, 0, 46, 64
1, 321934, Note_on_c, 0, 48, 82
1, 321939, Note_off_c, 0, 47, 64
1, 322017, Note_on_c, 0, 49, 79
1, 322036, Note_off_c, 0, 48, 64
1, 322098, Note_on_c, 0, 50, 80
1, 322108, Note_off_c, 0, 49, 64
1, 322161, Note_off_c, 0, 50, 64
1, 322164, Note_on_c, 0, 51, 79
1, 322225, Note_on_c, 0, 52, 96
1, 322237, Note_off_c, 0, 51, 64
1, 322298, Note_on_c, 0, 53, 102
1, 322309, Note_off_c, 0, 52, 64
1, 322356, Note_on_c, 0, 54, 90
1, 322373, Note_off_c, 0, 53, 64
1, 322418, Note_on_c, 0, 55, 87
1, 322424, Note_off_c, 0, 54, 64
1, 322471, Control_c, 0, 64, 0
1, 322487, Note_on_c, 0, 56, 90
1, 322532, Note_off_c, 0, 55, 64
1, 322552, Note_on_c, 0, 57, 85
1, 322591, Control_c, 0, 64, 127
1, 322591, Note_off_c, 0, 56, 64
1, 322624, Note_on_c, 0, 58, 76
1, 322666, Note_off_c, 0, 57, 64
1, 322693, Note_on_c, 0, 59, 81
1, 322707, Note_off_c, 0, 58, 64
1, 322761, Note_on_c, 0, 60, 91
1, 322771, Control_c, 0, 64, 0
1, 322797, Note_off_c, 0, 59, 64
1, 322827, Note_on_c, 0, 61, 90
1, 322861, Note_off_c, 0, 60, 64
1, 322891, Control_c, 0, 64, 127
1, 322891, Note_on_c, 0, 62, 84
1, 322895, Note_off_c, 0, 61, 64
1, 322955, Note_on_c, 0, 63, 90
1, 322968, Note_off_c, 0, 62, 64
1, 323020, Note_off_c, 0, 63, 64
1, 323020, Note_on_c, 0, 64, 93
1, 323078, Note_on_c, 0, 65, 83
1, 323101, Note_off_c, 0, 64, 64
1, 323129, Note_on_c, 0, 66, 75
1, 323151, Note_off_c, 0, 65, 64
1, 323164, Note_off_c, 0, 66, 64
1, 323178, Note_on_c, 0, 67, 81
1, 323242, Note_on_c, 0, 68, 83
1, 323249, Control_c, 0, 64, 0
1, 323270, Note_off_c, 0, 67, 64
1, 323287, Note_on_c, 0, 69, 80
1, 323337, Note_off_c, 0, 68, 64
1, 323352, Note_on_c, 0, 70, 79
1, 323370, Control_c, 0, 64, 127
1, 323393, Note_off_c, 0, 69, 64
1, 323416, Note_on_c, 0, 71, 87
1, 323419, Note_off_c, 0, 70, 64
1, 323473, Note_on_c, 0, 72, 88
1, 323505, Note_off_c, 0, 71, 64
1, 323524, Note_on_c, 0, 73, 81
1, 323557, Note_off_c, 0, 72, 64
1, 323566, Note_off_c, 0, 73, 64
1, 323580, Note_on_c, 0, 74, 85
1, 323627, Note_off_c, 0, 74, 64
1, 323646, Note_on_c, 0, 75, 82
1, 323675, Note_off_c, 0, 75, 64
1, 323697, Note_on_c, 0, 76, 89
1, 323761, Note_on_c, 0, 77, 86
1, 323775, Note_off_c, 0, 76, 64
1, 323805, Note_on_c, 0, 78, 81
1, 323828, Note_off_c, 0, 77, 64
1, 323841, Note_off_c, 0, 78, 64
1, 323869, Note_on_c, 0, 79, 93
1, 323916, Note_off_c, 0, 79, 64
1, 323933, Note_on_c, 0, 80, 84
1, 324001, Note_on_c, 0, 66, 90
1, 324001, Note_on_c, 0, 81, 101
1, 324011, Note_on_c, 0, 60, 83
1, 324011, Note_on_c, 0, 56, 73
1, 324017, Control_c, 0, 64, 0
1, 324028, Note_off_c, 0, 80, 64
1, 324139, Note_on_c, 0, 83, 113
1, 324145, Note_off_c, 0, 81, 64
1, 324220, Control_c, 0, 64, 127
1, 324231, Note_on_c, 0, 81, 87
1, 324242, Note_off_c, 0, 83, 64
1, 324292, Note_off_c, 0, 60, 64
1, 324292, Note_off_c, 0, 56, 64
1, 324332, Note_off_c, 0, 81, 64
1, 324332, Note_on_c, 0, 83, 105
1, 324345, Note_off_c, 0, 66, 64
1, 324418, Note_on_c, 0, 81, 83
1, 324427, Note_off_c, 0, 83, 64
1, 324502, Note_off_c, 0, 81, 64
1, 324513, Note_on_c, 0, 83, 103
1, 324593, Note_off_c, 0, 83, 64
1, 324600, Note_on_c, 0, 81, 88
1, 324692, Note_off_c, 0, 81, 64
1, 324692, Note_on_c, 0, 83, 106
1, 324753, Note_off_c, 0, 83, 64
1, 324760, Note_on_c, 0, 81, 64
1, 324833, Note_off_c, 0, 81, 64
1, 324855, Note_on_c, 0, 83, 99
1, 324909, Note_off_c, 0, 83, 64
1, 324923, Note_on_c, 0, 81, 72
1, 324995, Note_off_c, 0, 81, 64
1, 325011, Note_on_c, 0, 83, 97
1, 325042, Note_off_c, 0, 83, 64
1, 325059, Note_on_c, 0, 81, 62
1, 325114, Note_off_c, 0, 81, 64
1, 325129, Note_on_c, 0, 83, 87
1, 325160, Note_off_c, 0, 83, 64
1, 325182, Note_on_c, 0, 81, 65
1, 325224, Note_off_c, 0, 81, 64
1, 325238, Note_on_c, 0, 83, 96
1, 325276, Note_off_c, 0, 83, 64
1, 325301, Note_on_c, 0, 81, 61
1, 325334, Note_off_c, 0, 81, 64
1, 325345, Note_on_c, 0, 83, 103
1, 325388, Note_off_c, 0, 83, 64
1, 325405, Note_on_c, 0, 81, 50
1, 325443, Note_off_c, 0, 81, 64
1, 325462, Note_on_c, 0, 83, 100
1, 325502, Note_off_c, 0, 83, 64
1, 325520, Note_on_c, 0, 81, 48
1, 325557, Note_off_c, 0, 81, 64
1, 325574, Note_on_c, 0, 83, 98
1, 325607, Note_off_c, 0, 83, 64
1, 325642, Note_on_c, 0, 81, 51
1, 325677, Note_off_c, 0, 81, 64
1, 325699, Note_on_c, 0, 83, 94
1, 325730, Note_off_c, 0, 83, 64
1, 325758, Note_on_c, 0, 81, 50
1, 325813, Note_off_c, 0, 81, 64
1, 325827, Note_on_c, 0, 83, 91
1, 325859, Note_off_c, 0, 83, 64
1, 325887, Note_on_c, 0, 81, 44
1, 325950, Note_on_c, 0, 83, 81
1, 325956, Note_off_c, 0, 81, 64
1, 326014, Note_off_c, 0, 83, 64
1, 326047, Note_on_c, 0, 81, 58
1, 326156, Note_on_c, 0, 66, 3
1, 326159, Note_on_c, 0, 56, 11
1, 326162, Note_on_c, 0, 60, 10
1, 326273, Note_on_c, 0, 80, 54
1, 326315, Note_off_c, 0, 81, 64
1, 326446, Note_on_c, 0, 78, 63
1, 326490, Note_off_c, 0, 80, 64
1, 326580, Note_on_c, 0, 76, 55
1, 326591, Note_off_c, 0, 78, 64
1, 326700, Note_on_c, 0, 75, 52
1, 326731, Note_off_c, 0, 76, 64
1, 326792, Note_on_c, 0, 78, 59
1, 326803, Note_off_c, 0, 75, 64
1, 326889, Note_on_c, 0, 73, 54
1, 326915, Note_off_c, 0, 78, 64
1, 326959, Note_off_c, 0, 73, 64
1, 326978, Note_on_c, 0, 72, 46
1, 327037, Note_off_c, 0, 72, 64
1, 327078, Note_on_c, 0, 75, 53
1, 327128, Note_off_c, 0, 66, 64
1, 327142, Note_off_c, 0, 75, 64
1, 327162, Note_on_c, 0, 69, 48
1, 327252, Note_on_c, 0, 68, 57
1, 327263, Note_off_c, 0, 69, 64
1, 327338, Note_off_c, 0, 60, 64
1, 327351, Note_on_c, 0, 66, 49
1, 327362, Note_off_c, 0, 68, 64
1, 327447, Note_on_c, 0, 69, 44
1, 327474, Note_off_c, 0, 66, 64
1, 327554, Note_off_c, 0, 69, 64
1, 327554, Note_on_c, 0, 64, 56
1, 327646, Note_on_c, 0, 63, 52
1, 327660, Note_off_c, 0, 64, 64
1, 327741, Note_off_c, 0, 63, 64
1, 327741, Note_on_c, 0, 66, 47
1, 327842, Note_on_c, 0, 61, 59
1, 327870, Note_off_c, 0, 66, 64
1, 327873, Note_off_c, 0, 56, 64
1, 327931, Note_off_c, 0, 61, 64
1, 327936, Note_on_c, 0, 60, 45
1, 328011, Note_off_c, 0, 60, 64
1, 328026, Note_on_c, 0, 63, 55
1, 328101, Note_off_c, 0, 63, 64
1, 328121, Note_on_c, 0, 57, 52
1, 328226, Note_on_c, 0, 56, 60
1, 328234, Note_off_c, 0, 57, 64
1, 328338, Note_on_c, 0, 54, 67
1, 328351, Note_off_c, 0, 56, 64
1, 328452, Note_on_c, 0, 57, 54
1, 328472, Note_off_c, 0, 54, 64
1, 328563, Note_off_c, 0, 57, 64
1, 328571, Note_on_c, 0, 52, 76
1, 328700, Note_on_c, 0, 51, 65
1, 328716, Note_off_c, 0, 52, 64
1, 328837, Note_on_c, 0, 54, 75
1, 328865, Note_off_c, 0, 51, 64
1, 328978, Control_c, 0, 64, 0
1, 328990, Note_on_c, 0, 49, 74
1, 329035, Note_off_c, 0, 54, 64
1, 329159, Note_on_c, 0, 48, 67
1, 329171, Control_c, 0, 64, 127
1, 329185, Note_off_c, 0, 49, 64
1, 329207, Control_c, 0, 64, 0
1, 329374, Control_c, 0, 64, 127
1, 329435, Note_on_c, 0, 51, 54
1, 329458, Note_off_c, 0, 48, 64
1, 329553, Control_c, 0, 64, 0
1, 329806, Control_c, 0, 64, 127
1, 329945, Note_on_c, 0, 45, 53
1, 330110, Note_off_c, 0, 51, 64
1, 330285, Control_c, 0, 64, 0
1, 330454, Control_c, 0, 64, 127
1, 330486, Note_on_c, 0, 44, 61
1, 330556, Note_off_c, 0, 45, 64
1, 330884, Control_c, 0, 64, 0
1, 331053, Control_c, 0, 64, 127
1, 331213, Note_on_c, 0, 43, 62
1, 331224, Note_on_c, 0, 31, 53
1, 331400, Note_off_c, 0, 44, 64
1, 331519, Control_c, 0, 64, 0
1, 331772, Control_c, 0, 64, 127
1, 333299, Note_on_c, 0, 44, 43
1, 333299, Note_on_c, 0, 32, 33
1, 333413, Note_off_c, 0, 31, 64
1, 333455, Note_off_c, 0, 43, 64
1, 333628, Control_c, 0, 64, 0
1, 333832, Control_c, 0, 64, 127
1, 334648, Note_off_c, 0, 32, 64
1, 334978, Note_off_c, 0, 44, 64
1, 335051, Note_on_c, 0, 49, 32
1, 335051, Control_c, 0, 64, 0
1, 335056, Note_on_c, 0, 37, 29
1, 335199, Control_c, 0, 64, 127
1, 335207, Note_off_c, 0, 49, 64
1, 335283, Note_on_c, 0, 49, 20
1, 335375, Note_off_c, 0, 37, 64
1, 335394, Note_off_c, 0, 49, 64
1, 335430, Note_on_c, 0, 44, 25
1, 335488, Note_on_c, 0, 49, 18
1, 335491, Note_off_c, 0, 44, 64
1, 335567, Note_off_c, 0, 49, 64
1, 335612, Note_on_c, 0, 37, 21
1, 335681, Note_off_c, 0, 37, 64
1, 335681, Note_on_c, 0, 49, 20
1, 335750, Note_off_c, 0, 49, 64
1, 335793, Note_on_c, 0, 44, 21
1, 335848, Note_on_c, 0, 49, 26
1, 335856, Note_off_c, 0, 44, 64
1, 335915, Note_off_c, 0, 49, 64
1, 335943, Note_on_c, 0, 37, 25
1, 336009, Note_off_c, 0, 37, 64
1, 336013, Note_on_c, 0, 49, 18
1, 336077, Note_off_c, 0, 49, 64
1, 336132, Note_on_c, 0, 44, 12
1, 336174, Note_on_c, 0, 49, 21
1, 336187, Note_off_c, 0, 44, 64
1, 336263, Note_off_c, 0, 49, 64
1, 336263, Note_on_c, 0, 64, 39
1, 336285, Note_on_c, 0, 37, 30
1, 336344, Note_off_c, 0, 37, 64
1, 336349, Note_on_c, 0, 49, 26
1, 336413, Note_off_c, 0, 49, 64
1, 336477, Note_on_c, 0, 44, 18
1, 336541, Note_off_c, 0, 44, 64
1, 336547, Note_on_c, 0, 49, 35
1, 336555, Note_off_c, 0, 64, 64
1, 336558, Note_on_c, 0, 61, 47
1, 336600, Note_off_c, 0, 49, 64
1, 336611, Note_off_c, 0, 61, 64
1, 336640, Note_on_c, 0, 37, 42
1, 336643, Note_on_c, 0, 60, 58
1, 336661, Control_c, 0, 64, 0
1, 336751, Note_on_c, 0, 51, 29
1, 336804, Control_c, 0, 64, 127
1, 336812, Note_off_c, 0, 51, 64
1, 336818, Note_on_c, 0, 44, 46
1, 336835, Note_off_c, 0, 37, 64
1, 336867, Note_off_c, 0, 60, 64
1, 336882, Note_off_c, 0, 44, 64
1, 336903, Note_on_c, 0, 51, 23
1, 336988, Note_off_c, 0, 51, 64
1, 336991, Note_on_c, 0, 68, 52
1, 336996, Note_on_c, 0, 54, 46
1, 337004, Note_on_c, 0, 60, 25
1, 337010, Note_on_c, 0, 37, 37
1, 337057, Control_c, 0, 64, 0
1, 337077, Note_on_c, 0, 51, 31
1, 337118, Note_off_c, 0, 60, 64
1, 337152, Control_c, 0, 64, 127
1, 337157, Note_off_c, 0, 37, 64
1, 337157, Note_off_c, 0, 68, 64
1, 337161, Note_off_c, 0, 51, 64
1, 337166, Note_on_c, 0, 44, 45
1, 337183, Note_off_c, 0, 54, 64
1, 337225, Note_off_c, 0, 44, 64
1, 337243, Note_on_c, 0, 51, 36
1, 337327, Note_off_c, 0, 51, 64
1, 337336, Note_on_c, 0, 68, 58
1, 337352, Note_on_c, 0, 54, 45
1, 337352, Note_on_c, 0, 60, 29
1, 337363, Note_on_c, 0, 37, 42
1, 337416, Note_off_c, 0, 37, 64
1, 337427, Note_off_c, 0, 60, 64
1, 337439, Note_on_c, 0, 51, 30
1, 337463, Note_off_c, 0, 54, 64
1, 337486, Note_off_c, 0, 68, 64
1, 337497, Note_off_c, 0, 51, 64
1, 337525, Note_on_c, 0, 44, 38
1, 337587, Note_off_c, 0, 44, 64
1, 337616, Note_on_c, 0, 51, 29
1, 337672, Note_on_c, 0, 68, 58
1, 337676, Note_off_c, 0, 51, 64
1, 337679, Note_on_c, 0, 60, 41
1, 337683, Note_on_c, 0, 54, 42
1, 337703, Note_on_c, 0, 37, 32
1, 337759, Note_off_c, 0, 68, 64
1, 337759, Note_off_c, 0, 37, 64
1, 337768, Note_on_c, 0, 51, 29
1, 337784, Note_off_c, 0, 54, 64
1, 337809, Note_off_c, 0, 60, 64
1, 337825, Note_off_c, 0, 51, 64
1, 337848, Note_on_c, 0, 44, 39
1, 337901, Note_off_c, 0, 44, 64
1, 337901, Note_on_c, 0, 51, 31
1, 337901, Note_on_c, 0, 52, 63
1, 337938, Note_off_c, 0, 52, 64
1, 337952, Note_off_c, 0, 51, 64
1, 337981, Note_on_c, 0, 61, 15
1, 338002, Note_on_c, 0, 37, 40
1, 338066, Note_on_c, 0, 68, 63
1, 338098, Note_on_c, 0, 49, 32
1, 338207, Control_c, 0, 64, 0
1, 338227, Note_on_c, 0, 44, 48
1, 338238, Note_off_c, 0, 49, 64
1, 338314, Note_on_c, 0, 49, 36
1, 338314, Control_c, 0, 64, 127
1, 338328, Note_off_c, 0, 37, 64
1, 338394, Note_off_c, 0, 44, 64
1, 338394, Note_off_c, 0, 49, 64
1, 338408, Note_on_c, 0, 37, 34
1, 338481, Note_on_c, 0, 49, 36
1, 338559, Note_off_c, 0, 49, 64
1, 338567, Note_off_c, 0, 37, 64
1, 338581, Note_on_c, 0, 44, 47
1, 338634, Note_off_c, 0, 44, 64
1, 338653, Note_on_c, 0, 49, 31
1, 338717, Note_off_c, 0, 49, 64
1, 338734, Note_on_c, 0, 37, 50
1, 338812, Note_off_c, 0, 61, 64
1, 338823, Note_off_c, 0, 37, 64
1, 338823, Note_on_c, 0, 49, 27
1, 338851, Note_off_c, 0, 68, 64
1, 338885, Note_off_c, 0, 49, 64
1, 338913, Note_on_c, 0, 44, 37
1, 338970, Note_off_c, 0, 44, 64
1, 339020, Note_on_c, 0, 49, 28
1, 339087, Note_off_c, 0, 49, 64
1, 339165, Note_on_c, 0, 76, 50
1, 339188, Note_on_c, 0, 37, 29
1, 339274, Note_on_c, 0, 49, 32
1, 339328, Note_off_c, 0, 49, 64
1, 339333, Note_off_c, 0, 37, 64
1, 339356, Note_on_c, 0, 44, 38
1, 339413, Note_off_c, 0, 44, 64
1, 339455, Note_on_c, 0, 49, 32
1, 339469, Note_on_c, 0, 73, 49
1, 339472, Note_off_c, 0, 76, 64
1, 339511, Note_off_c, 0, 49, 64
1, 339511, Note_off_c, 0, 73, 64
1, 339555, Note_on_c, 0, 37, 39
1, 339558, Note_on_c, 0, 72, 67
1, 339622, Control_c, 0, 64, 0
1, 339659, Note_on_c, 0, 51, 46
1, 339718, Note_off_c, 0, 51, 64
1, 339742, Note_on_c, 0, 44, 42
1, 339753, Control_c, 0, 64, 127
1, 339781, Note_off_c, 0, 37, 64
1, 339787, Note_off_c, 0, 72, 64
1, 339804, Note_off_c, 0, 44, 64
1, 339824, Note_on_c, 0, 51, 37
1, 339899, Note_off_c, 0, 51, 64
1, 339906, Note_on_c, 0, 80, 70
1, 339913, Note_on_c, 0, 66, 39
1, 339916, Note_on_c, 0, 72, 28
1, 339937, Note_on_c, 0, 37, 44
1, 339987, Note_off_c, 0, 72, 64
1, 339994, Note_off_c, 0, 37, 64
1, 340021, Note_on_c, 0, 51, 34
1, 340032, Note_off_c, 0, 66, 64
1, 340058, Note_off_c, 0, 80, 64
1, 340077, Note_off_c, 0, 51, 64
1, 340094, Note_on_c, 0, 44, 40
1, 340154, Note_off_c, 0, 44, 64
1, 340174, Note_on_c, 0, 51, 29
1, 340246, Note_off_c, 0, 51, 64
1, 340249, Note_on_c, 0, 80, 74
1, 340257, Note_on_c, 0, 72, 43
1, 340261, Note_on_c, 0, 66, 38
1, 340271, Note_on_c, 0, 37, 45
1, 340324, Note_off_c, 0, 37, 64
1, 340331, Note_off_c, 0, 72, 64
1, 340347, Note_on_c, 0, 51, 32
1, 340367, Note_off_c, 0, 66, 64
1, 340405, Note_off_c, 0, 51, 64
1, 340416, Note_off_c, 0, 80, 64
1, 340430, Note_on_c, 0, 44, 39
1, 340491, Note_off_c, 0, 44, 64
1, 340506, Note_on_c, 0, 51, 40
1, 340569, Note_off_c, 0, 51, 64
1, 340579, Note_on_c, 0, 80, 74
1, 340586, Note_on_c, 0, 72, 45
1, 340590, Note_on_c, 0, 66, 43
1, 340597, Note_on_c, 0, 37, 43
1, 340650, Note_off_c, 0, 37, 64
1, 340667, Note_on_c, 0, 51, 35
1, 340721, Note_off_c, 0, 80, 64
1, 340721, Note_off_c, 0, 51, 64
1, 340745, Note_on_c, 0, 44, 45
1, 340750, Note_off_c, 0, 66, 64
1, 340804, Note_off_c, 0, 44, 64
1, 340804, Note_on_c, 0, 51, 48
1, 340829, Note_off_c, 0, 72, 64
1, 340860, Note_off_c, 0, 51, 64
1, 340915, Note_on_c, 0, 37, 52
1, 340915, Control_c, 0, 64, 0
1, 340938, Note_on_c, 0, 64, 61
1, 340982, Note_off_c, 0, 64, 64
1, 341010, Note_on_c, 0, 49, 39
1, 341015, Note_on_c, 0, 73, 34
1, 341023, Control_c, 0, 64, 127
1, 341072, Note_off_c, 0, 37, 64
1, 341094, Note_off_c, 0, 49, 64
1, 341094, Note_on_c, 0, 80, 73
1, 341122, Note_on_c, 0, 44, 39
1, 341175, Note_off_c, 0, 44, 64
1, 341221, Note_on_c, 0, 49, 35
1, 341272, Note_off_c, 0, 49, 64
1, 341297, Note_on_c, 0, 37, 43
1, 341336, Note_off_c, 0, 73, 64
1, 341372, Note_on_c, 0, 49, 36
1, 341380, Note_off_c, 0, 37, 64
1, 341450, Note_off_c, 0, 49, 64
1, 341470, Note_on_c, 0, 44, 38
1, 341533, Note_off_c, 0, 44, 64
1, 341533, Note_on_c, 0, 49, 38
1, 341575, Note_off_c, 0, 80, 64
1, 341611, Note_off_c, 0, 49, 64
1, 341656, Note_on_c, 0, 37, 39
1, 341671, Note_on_c, 0, 66, 44
1, 341735, Note_on_c, 0, 72, 46
1, 341738, Note_on_c, 0, 51, 41
1, 341743, Control_c, 0, 64, 0
1, 341785, Note_on_c, 0, 80, 64
1, 341798, Note_off_c, 0, 51, 64
1, 341823, Note_on_c, 0, 44, 35
1, 341843, Note_off_c, 0, 37, 64
1, 341882, Note_on_c, 0, 51, 34
1, 341882, Control_c, 0, 64, 127
1, 341888, Note_off_c, 0, 44, 64
1, 341977, Note_off_c, 0, 51, 64
1, 341988, Note_on_c, 0, 37, 41
1, 342058, Note_on_c, 0, 51, 34
1, 342065, Note_off_c, 0, 37, 64
1, 342071, Note_off_c, 0, 80, 64
1, 342146, Note_off_c, 0, 66, 64
1, 342154, Note_off_c, 0, 51, 64
1, 342172, Note_on_c, 0, 44, 37
1, 342191, Note_off_c, 0, 72, 64
1, 342230, Note_off_c, 0, 44, 64
1, 342230, Note_on_c, 0, 51, 37
1, 342285, Note_off_c, 0, 51, 64
1, 342341, Note_on_c, 0, 37, 48
1, 342353, Control_c, 0, 64, 0
1, 342377, Note_on_c, 0, 64, 54
1, 342430, Note_off_c, 0, 64, 64
1, 342434, Note_on_c, 0, 49, 35
1, 342459, Note_on_c, 0, 73, 38
1, 342473, Control_c, 0, 64, 127
1, 342511, Note_off_c, 0, 37, 64
1, 342526, Note_off_c, 0, 49, 64
1, 342537, Note_on_c, 0, 80, 67
1, 342547, Note_on_c, 0, 44, 38
1, 342606, Note_off_c, 0, 44, 64
1, 342648, Note_on_c, 0, 49, 25
1, 342703, Note_off_c, 0, 49, 64
1, 342726, Note_on_c, 0, 37, 40
1, 342784, Note_off_c, 0, 37, 64
1, 342802, Note_on_c, 0, 49, 30
1, 342824, Note_off_c, 0, 73, 64
1, 342862, Note_off_c, 0, 49, 64
1, 342910, Note_on_c, 0, 44, 33
1, 342923, Note_off_c, 0, 80, 64
1, 342969, Note_off_c, 0, 44, 64
1, 342996, Note_on_c, 0, 49, 42
1, 343052, Note_off_c, 0, 49, 64
1, 343107, Note_on_c, 0, 37, 37
1, 343150, Note_on_c, 0, 66, 45
1, 343157, Control_c, 0, 64, 0
1, 343192, Note_on_c, 0, 51, 42
1, 343219, Note_off_c, 0, 37, 64
1, 343228, Note_on_c, 0, 72, 54
1, 343252, Note_off_c, 0, 66, 64
1, 343252, Note_off_c, 0, 51, 64
1, 343264, Control_c, 0, 64, 127
1, 343278, Note_on_c, 0, 44, 33
1, 343291, Note_on_c, 0, 80, 56
1, 343341, Note_off_c, 0, 44, 64
1, 343352, Note_on_c, 0, 51, 37
1, 343352, Note_off_c, 0, 72, 64
1, 343419, Note_off_c, 0, 51, 64
1, 343456, Note_on_c, 0, 37, 41
1, 343480, Note_off_c, 0, 80, 64
1, 343508, Note_off_c, 0, 37, 64
1, 343537, Note_on_c, 0, 51, 41
1, 343592, Note_off_c, 0, 51, 64
1, 343625, Note_on_c, 0, 44, 42
1, 343670, Note_off_c, 0, 44, 64
1, 343700, Note_on_c, 0, 51, 46
1, 343746, Note_off_c, 0, 51, 64
1, 343763, Note_on_c, 0, 64, 54
1, 343802, Note_off_c, 0, 64, 64
1, 343821, Note_on_c, 0, 73, 59
1, 343840, Control_c, 0, 64, 0
1, 343870, Note_off_c, 0, 73, 64
1, 343877, Note_on_c, 0, 49, 110
1, 343880, Note_on_c, 0, 37, 103
1, 343880, Note_on_c, 0, 44, 100
1, 343886, Note_on_c, 0, 80, 106
1, 343902, Note_off_c, 0, 37, 64
1, 343909, Note_off_c, 0, 44, 64
1, 343944, Note_off_c, 0, 49, 64
1, 343948, Control_c, 0, 64, 127
1, 343966, Note_off_c, 0, 80, 64
1, 344083, Note_on_c, 0, 64, 73
1, 344136, Note_off_c, 0, 64, 64
1, 344160, Note_on_c, 0, 68, 72
1, 344160, Note_on_c, 0, 56, 64
1, 344230, Note_on_c, 0, 61, 67
1, 344230, Note_on_c, 0, 73, 55
1, 344230, Note_off_c, 0, 68, 64
1, 344247, Note_off_c, 0, 56, 64
1, 344277, Note_off_c, 0, 61, 64
1, 344288, Note_on_c, 0, 76, 72
1, 344303, Note_on_c, 0, 64, 81
1, 344311, Note_off_c, 0, 73, 64
1, 344319, Note_off_c, 0, 76, 64
1, 344339, Note_off_c, 0, 64, 64
1, 344370, Note_on_c, 0, 68, 79
1, 344391, Note_on_c, 0, 56, 60
1, 344451, Note_on_c, 0, 61, 70
1, 344455, Note_off_c, 0, 68, 64
1, 344455, Note_on_c, 0, 73, 72
1, 344459, Note_off_c, 0, 56, 64
1, 344522, Note_off_c, 0, 61, 64
1, 344522, Note_on_c, 0, 64, 59
1, 344526, Note_on_c, 0, 76, 70
1, 344557, Note_off_c, 0, 73, 64
1, 344557, Note_off_c, 0, 64, 64
1, 344584, Note_on_c, 0, 68, 60
1, 344593, Note_on_c, 0, 80, 92
1, 344620, Note_off_c, 0, 76, 64
1, 344659, Note_on_c, 0, 61, 69
1, 344667, Note_off_c, 0, 68, 64
1, 344667, Note_on_c, 0, 73, 73
1, 344685, Note_off_c, 0, 80, 64
1, 344720, Note_off_c, 0, 61, 64
1, 344734, Note_on_c, 0, 64, 51
1, 344734, Note_on_c, 0, 76, 70
1, 344756, Note_off_c, 0, 73, 64
1, 344774, Note_off_c, 0, 64, 64
1, 344781, Note_on_c, 0, 68, 60
1, 344802, Note_on_c, 0, 80, 72
1, 344810, Note_off_c, 0, 76, 64
1, 344835, Note_off_c, 0, 68, 64
1, 344862, Note_on_c, 0, 85, 90
1, 344862, Note_on_c, 0, 73, 73
1, 344880, Note_off_c, 0, 80, 64
1, 344890, Note_off_c, 0, 73, 64
1, 344943, Note_on_c, 0, 76, 80
1, 344951, Note_on_c, 0, 64, 69
1, 344974, Note_off_c, 0, 85, 64
1, 344993, Note_on_c, 0, 80, 81
1, 345001, Note_off_c, 0, 64, 64
1, 345024, Note_on_c, 0, 68, 56
1, 345040, Note_off_c, 0, 76, 64
1, 345077, Note_on_c, 0, 85, 83
1, 345077, Note_on_c, 0, 73, 58
1, 345085, Note_off_c, 0, 80, 64
1, 345104, Note_off_c, 0, 68, 64
1, 345130, Note_off_c, 0, 73, 64
1, 345157, Note_on_c, 0, 76, 85
1, 345157, Note_on_c, 0, 88, 101
1, 345161, Note_off_c, 0, 85, 64
1, 345227, Note_on_c, 0, 85, 64
1, 345230, Note_off_c, 0, 76, 64
1, 345230, Note_on_c, 0, 73, 70
1, 345292, Note_off_c, 0, 88, 64
1, 345302, Note_on_c, 0, 68, 61
1, 345316, Note_on_c, 0, 80, 78
1, 345333, Note_off_c, 0, 73, 64
1, 345344, Note_off_c, 0, 85, 64
1, 345375, Note_on_c, 0, 64, 54
1, 345375, Note_on_c, 0, 76, 70
1, 345394, Note_off_c, 0, 80, 64
1, 345401, Note_off_c, 0, 68, 64
1, 345411, Note_off_c, 0, 64, 64
1, 345422, Note_off_c, 0, 76, 64
1, 345461, Note_on_c, 0, 85, 88
1, 345469, Note_on_c, 0, 73, 83
1, 345539, Note_on_c, 0, 80, 73
1, 345551, Note_on_c, 0, 68, 67
1, 345559, Note_off_c, 0, 73, 64
1, 345564, Note_off_c, 0, 85, 64
1, 345603, Note_on_c, 0, 64, 52
1, 345610, Note_on_c, 0, 76, 69
1, 345626, Note_off_c, 0, 80, 64
1, 345629, Note_off_c, 0, 68, 64
1, 345668, Note_on_c, 0, 61, 56
1, 345668, Note_on_c, 0, 73, 75
1, 345678, Note_off_c, 0, 64, 64
1, 345703, Note_off_c, 0, 76, 64
1, 345703, Note_off_c, 0, 61, 64
1, 345743, Note_off_c, 0, 73, 64
1, 345743, Note_on_c, 0, 80, 89
1, 345748, Note_on_c, 0, 68, 72
1, 345784, Note_off_c, 0, 68, 64
1, 345810, Note_on_c, 0, 64, 61
1, 345821, Note_on_c, 0, 76, 67
1, 345865, Note_off_c, 0, 80, 64
1, 345871, Note_on_c, 0, 61, 65
1, 345885, Note_on_c, 0, 73, 76
1, 345899, Note_off_c, 0, 64, 64
1, 345915, Note_off_c, 0, 76, 64
1, 345930, Note_on_c, 0, 56, 62
1, 345949, Note_on_c, 0, 68, 76
1, 345965, Note_off_c, 0, 73, 64
1, 345972, Note_off_c, 0, 61, 64
1, 345972, Note_off_c, 0, 56, 64
1, 345988, Note_off_c, 0, 68, 64
1, 346015, Note_on_c, 0, 64, 83
1, 346024, Note_on_c, 0, 76, 88
1, 346077, Note_on_c, 0, 61, 88
1, 346093, Note_on_c, 0, 73, 79
1, 346103, Note_off_c, 0, 64, 64
1, 346135, Note_off_c, 0, 76, 64
1, 346135, Note_on_c, 0, 56, 52
1, 346158, Note_on_c, 0, 68, 73
1, 346188, Note_off_c, 0, 61, 64
1, 346205, Note_off_c, 0, 73, 64
1, 346217, Note_on_c, 0, 52, 57
1, 346230, Note_off_c, 0, 56, 64
1, 346230, Note_on_c, 0, 64, 85
1, 346239, Note_off_c, 0, 68, 64
1, 346253, Note_off_c, 0, 52, 64
1, 346280, Note_off_c, 0, 64, 64
1, 346300, Note_on_c, 0, 73, 91
1, 346300, Note_on_c, 0, 61, 85
1, 346369, Note_on_c, 0, 56, 76
1, 346369, Note_on_c, 0, 68, 75
1, 346384, Note_off_c, 0, 61, 64
1, 346425, Note_off_c, 0, 73, 64
1, 346439, Note_on_c, 0, 52, 67
1, 346450, Note_on_c, 0, 64, 79
1, 346484, Note_off_c, 0, 68, 64
1, 346489, Note_off_c, 0, 56, 64
1, 346492, Note_on_c, 0, 49, 72
1, 346498, Note_on_c, 0, 61, 88
1, 346520, Note_off_c, 0, 52, 64
1, 346531, Note_off_c, 0, 49, 64
1, 346536, Note_off_c, 0, 64, 64
1, 346568, Note_on_c, 0, 56, 70
1, 346576, Note_off_c, 0, 61, 64
1, 346576, Note_on_c, 0, 68, 88
1, 346626, Note_on_c, 0, 52, 75
1, 346642, Note_on_c, 0, 64, 75
1, 346642, Note_off_c, 0, 56, 64
1, 346690, Note_on_c, 0, 49, 67
1, 346693, Note_off_c, 0, 68, 64
1, 346712, Note_on_c, 0, 61, 83
1, 346737, Note_off_c, 0, 52, 64
1, 346737, Note_off_c, 0, 64, 64
1, 346762, Note_on_c, 0, 44, 75
1, 346773, Note_on_c, 0, 56, 85
1, 346791, Note_off_c, 0, 49, 64
1, 346794, Note_off_c, 0, 61, 64
1, 346813, Note_off_c, 0, 44, 64
1, 346813, Note_off_c, 0, 56, 64
1, 346846, Note_on_c, 0, 64, 99
1, 346851, Note_on_c, 0, 52, 95
1, 346905, Note_on_c, 0, 49, 86
1, 346918, Note_on_c, 0, 61, 84
1, 346926, Note_off_c, 0, 52, 64
1, 346943, Note_off_c, 0, 64, 64
1, 346993, Note_on_c, 0, 44, 26
1, 346993, Note_on_c, 0, 56, 79
1, 347021, Note_off_c, 0, 61, 64
1, 347032, Note_off_c, 0, 49, 64
1, 347066, Note_on_c, 0, 40, 35
1, 347066, Note_on_c, 0, 52, 89
1, 347066, Note_off_c, 0, 44, 64
1, 347071, Note_off_c, 0, 56, 64
1, 347113, Note_off_c, 0, 40, 64
1, 347124, Note_on_c, 0, 49, 84
1, 347133, Note_on_c, 0, 61, 93
1, 347152, Note_off_c, 0, 52, 64
1, 347206, Note_on_c, 0, 44, 86
1, 347210, Note_on_c, 0, 56, 78
1, 347214, Note_off_c, 0, 49, 64
1, 347255, Note_off_c, 0, 61, 64
1, 347263, Note_on_c, 0, 40, 92
1, 347280, Note_on_c, 0, 52, 96
1, 347292, Note_off_c, 0, 44, 64
1, 347302, Note_off_c, 0, 56, 64
1, 347336, Note_on_c, 0, 44, 84
1, 347353, Note_on_c, 0, 56, 83
1, 347365, Note_off_c, 0, 40, 64
1, 347370, Note_off_c, 0, 52, 64
1, 347411, Note_off_c, 0, 44, 64
1, 347433, Note_on_c, 0, 49, 108
1, 347437, Note_on_c, 0, 37, 106
1, 347459, Note_off_c, 0, 56, 64
1, 347500, Note_off_c, 0, 49, 64
1, 347500, Note_off_c, 0, 37, 64
1, 347735, Control_c, 0, 64, 0
1, 348038, Note_on_c, 0, 40, 103
1, 348038, Note_on_c, 0, 85, 103
1, 348038, Note_on_c, 0, 73, 103
1, 348038, Note_on_c, 0, 37, 90
1, 348038, Note_on_c, 0, 44, 91
1, 348042, Note_on_c, 0, 49, 102
1, 348042, Note_on_c, 0, 80, 94
1, 348042, Note_on_c, 0, 76, 97
1, 348103, Note_off_c, 0, 37, 64
1, 348113, Note_off_c, 0, 40, 64
1, 348119, Control_c, 0, 64, 127
1, 348127, Note_off_c, 0, 85, 64
1, 348131, Note_off_c, 0, 49, 64
1, 348136, Note_off_c, 0, 44, 64
1, 348139, Note_off_c, 0, 73, 64
1, 348164, Note_off_c, 0, 76, 64
1, 348178, Note_off_c, 0, 80, 64
1, 348503, Control_c, 0, 64, 0
1, 348699, Note_on_c, 0, 64, 107
1, 348699, Note_on_c, 0, 37, 93
1, 348699, Note_on_c, 0, 73, 102
1, 348702, Note_on_c, 0, 61, 111
1, 348702, Note_on_c, 0, 40, 105
1, 348702, Note_on_c, 0, 44, 92
1, 348702, Note_on_c, 0, 49, 102
1, 348702, Note_on_c, 0, 68, 90
1, 348777, Control_c, 0, 64, 127
1, 348785, Note_off_c, 0, 37, 64
1, 348790, Note_off_c, 0, 40, 64
1, 348793, Note_off_c, 0, 61, 64
1, 348798, Note_off_c, 0, 49, 64
1, 348805, Note_off_c, 0, 44, 64
1, 348808, Note_off_c, 0, 73, 64
1, 348824, Note_off_c, 0, 64, 64
1, 348858, Note_off_c, 0, 68, 64
1, 349256, Control_c, 0, 64, 0
1, 350439, Control_c, 0, 64, 0
1, 351937, End_track
0, 0, End_of_file
