0, 0, Header, 1, 7, 384
1, 0, Start_track
1, 0, Title_t, "--------"
1, 0, Sequencer_specific, 3, 0, 0, 65
1, 0, Time_signature, 2, 2, 24, 8
1, 0, Key_signature, 0, "major"
1, 0, Tempo, 1153846
1, 36096, Key_signature, 3, "major"
1, 36096, End_track
2, 0, Start_track
2, 0, Title_t, "Bagatelle (No.4 of ""Seven Bagatelles"", Opus 33"
2, 0, Control_c, 0, 0, 0
2, 0, Control_c, 0, 7, 110
2, 0, Control_c, 0, 10, 79
2, 0, Control_c, 0, 32, 0
2, 1, Program_c, 0, 0
2, 576, Note_on_c, 0, 64, 71
2, 636, Note_on_c, 0, 64, 0
2, 768, Note_on_c, 0, 76, 68
2, 768, Note_on_c, 0, 61, 53
2, 768, Note_on_c, 0, 69, 64
2, 768, Note_on_c, 0, 57, 58
2, 892, Note_on_c, 0, 76, 0
2, 1052, Note_on_c, 0, 61, 0
2, 1052, Note_on_c, 0, 69, 0
2, 1056, Note_on_c, 0, 68, 63
2, 1056, Note_on_c, 0, 59, 58
2, 1148, Note_on_c, 0, 59, 0
2, 1148, Note_on_c, 0, 68, 0
2, 1152, Note_on_c, 0, 76, 69
2, 1152, Note_on_c, 0, 69, 57
2, 1152, Note_on_c, 0, 61, 53
2, 1212, Note_on_c, 0, 61, 0
2, 1212, Note_on_c, 0, 69, 0
2, 1212, Note_on_c, 0, 76, 0
2, 1344, Note_on_c, 0, 76, 75
2, 1344, Note_on_c, 0, 73, 70
2, 1344, Note_on_c, 0, 64, 60
2, 1404, Note_on_c, 0, 64, 0
2, 1404, Note_on_c, 0, 73, 0
2, 1404, Note_on_c, 0, 76, 0
2, 1532, Note_on_c, 0, 57, 0
2, 1536, Note_on_c, 0, 57, 56
2, 1536, Note_on_c, 0, 71, 73
2, 1536, Note_on_c, 0, 62, 52
2, 1536, Note_on_c, 0, 76, 88
2, 1556, Note_on_c, 0, 76, 0
2, 1560, Note_on_c, 0, 78, 74
2, 1580, Note_on_c, 0, 78, 0
2, 1584, Note_on_c, 0, 76, 74
2, 1604, Note_on_c, 0, 76, 0
2, 1608, Note_on_c, 0, 78, 73
2, 1628, Note_on_c, 0, 78, 0
2, 1632, Note_on_c, 0, 75, 75
2, 1676, Note_on_c, 0, 75, 0
2, 1680, Note_on_c, 0, 76, 88
2, 1724, Note_on_c, 0, 76, 0
2, 1728, Note_on_c, 0, 78, 77
2, 1820, Note_on_c, 0, 78, 0
2, 1824, Note_on_c, 0, 80, 101
2, 1916, Note_on_c, 0, 80, 0
2, 1916, Note_on_c, 0, 62, 0
2, 1916, Note_on_c, 0, 71, 0
2, 1920, Note_on_c, 0, 69, 93
2, 1920, Note_on_c, 0, 61, 82
2, 1920, Note_on_c, 0, 81, 97
2, 2108, Note_on_c, 0, 81, 0
2, 2112, Note_on_c, 0, 76, 87
2, 2172, Note_on_c, 0, 76, 0
2, 2300, Note_on_c, 0, 61, 0
2, 2300, Note_on_c, 0, 69, 0
2, 2300, Note_on_c, 0, 57, 0
2, 2304, Note_on_c, 0, 57, 49
2, 2304, Note_on_c, 0, 76, 67
2, 2304, Note_on_c, 0, 68, 54
2, 2304, Note_on_c, 0, 59, 52
2, 2428, Note_on_c, 0, 76, 0
2, 2492, Note_on_c, 0, 59, 0
2, 2492, Note_on_c, 0, 68, 0
2, 2496, Note_on_c, 0, 71, 67
2, 2496, Note_on_c, 0, 62, 53
2, 2556, Note_on_c, 0, 62, 0
2, 2556, Note_on_c, 0, 71, 0
2, 2684, Note_on_c, 0, 57, 0
2, 2688, Note_on_c, 0, 57, 60
2, 2688, Note_on_c, 0, 76, 69
2, 2688, Note_on_c, 0, 68, 67
2, 2688, Note_on_c, 0, 59, 59
2, 2748, Note_on_c, 0, 76, 0
2, 2876, Note_on_c, 0, 59, 0
2, 2876, Note_on_c, 0, 68, 0
2, 2880, Note_on_c, 0, 76, 77
2, 2880, Note_on_c, 0, 71, 58
2, 2880, Note_on_c, 0, 62, 36
2, 2940, Note_on_c, 0, 62, 0
2, 2940, Note_on_c, 0, 71, 0
2, 2940, Note_on_c, 0, 76, 0
2, 3068, Note_on_c, 0, 57, 0
2, 3072, Note_on_c, 0, 69, 74
2, 3072, Note_on_c, 0, 61, 68
2, 3072, Note_on_c, 0, 57, 59
2, 3072, Note_on_c, 0, 76, 85
2, 3132, Note_on_c, 0, 57, 0
2, 3132, Note_on_c, 0, 69, 0
2, 3132, Note_on_c, 0, 61, 0
2, 3164, Note_on_c, 0, 76, 0
2, 3168, Note_on_c, 0, 75, 83
2, 3260, Note_on_c, 0, 75, 0
2, 3264, Note_on_c, 0, 76, 92
2, 3356, Note_on_c, 0, 76, 0
2, 3360, Note_on_c, 0, 78, 90
2, 3452, Note_on_c, 0, 78, 0
2, 3456, Note_on_c, 0, 76, 97
2, 3548, Note_on_c, 0, 76, 0
2, 3552, Note_on_c, 0, 74, 75
2, 3552, Note_on_c, 0, 66, 63
2, 3644, Note_on_c, 0, 66, 0
2, 3644, Note_on_c, 0, 74, 0
2, 3648, Note_on_c, 0, 73, 69
2, 3648, Note_on_c, 0, 64, 71
2, 3740, Note_on_c, 0, 64, 0
2, 3740, Note_on_c, 0, 73, 0
2, 3744, Note_on_c, 0, 62, 58
2, 3744, Note_on_c, 0, 71, 78
2, 3772, Note_on_c, 0, 71, 0
2, 3772, Note_on_c, 0, 62, 0
2, 3840, Note_on_c, 0, 76, 68
2, 3840, Note_on_c, 0, 61, 53
2, 3840, Note_on_c, 0, 69, 64
2, 3840, Note_on_c, 0, 57, 58
2, 3964, Note_on_c, 0, 76, 0
2, 4124, Note_on_c, 0, 61, 0
2, 4124, Note_on_c, 0, 69, 0
2, 4128, Note_on_c, 0, 68, 63
2, 4128, Note_on_c, 0, 59, 58
2, 4220, Note_on_c, 0, 59, 0
2, 4220, Note_on_c, 0, 68, 0
2, 4224, Note_on_c, 0, 76, 69
2, 4224, Note_on_c, 0, 69, 57
2, 4224, Note_on_c, 0, 61, 53
2, 4284, Note_on_c, 0, 61, 0
2, 4284, Note_on_c, 0, 69, 0
2, 4284, Note_on_c, 0, 76, 0
2, 4416, Note_on_c, 0, 76, 75
2, 4416, Note_on_c, 0, 73, 70
2, 4416, Note_on_c, 0, 64, 60
2, 4476, Note_on_c, 0, 64, 0
2, 4476, Note_on_c, 0, 73, 0
2, 4476, Note_on_c, 0, 76, 0
2, 4604, Note_on_c, 0, 57, 0
2, 4608, Note_on_c, 0, 57, 56
2, 4608, Note_on_c, 0, 71, 73
2, 4608, Note_on_c, 0, 62, 52
2, 4608, Note_on_c, 0, 76, 88
2, 4628, Note_on_c, 0, 76, 0
2, 4632, Note_on_c, 0, 78, 74
2, 4652, Note_on_c, 0, 78, 0
2, 4656, Note_on_c, 0, 76, 74
2, 4676, Note_on_c, 0, 76, 0
2, 4680, Note_on_c, 0, 78, 73
2, 4700, Note_on_c, 0, 78, 0
2, 4704, Note_on_c, 0, 75, 75
2, 4748, Note_on_c, 0, 75, 0
2, 4752, Note_on_c, 0, 76, 88
2, 4796, Note_on_c, 0, 76, 0
2, 4800, Note_on_c, 0, 78, 77
2, 4892, Note_on_c, 0, 78, 0
2, 4896, Note_on_c, 0, 80, 101
2, 4988, Note_on_c, 0, 80, 0
2, 4988, Note_on_c, 0, 62, 0
2, 4988, Note_on_c, 0, 71, 0
2, 4992, Note_on_c, 0, 69, 93
2, 4992, Note_on_c, 0, 61, 82
2, 4992, Note_on_c, 0, 81, 97
2, 5180, Note_on_c, 0, 81, 0
2, 5184, Note_on_c, 0, 76, 87
2, 5244, Note_on_c, 0, 76, 0
2, 5372, Note_on_c, 0, 61, 0
2, 5372, Note_on_c, 0, 69, 0
2, 5372, Note_on_c, 0, 57, 0
2, 5376, Note_on_c, 0, 57, 49
2, 5376, Note_on_c, 0, 76, 67
2, 5376, Note_on_c, 0, 68, 54
2, 5376, Note_on_c, 0, 59, 52
2, 5500, Note_on_c, 0, 76, 0
2, 5564, Note_on_c, 0, 59, 0
2, 5564, Note_on_c, 0, 68, 0
2, 5568, Note_on_c, 0, 71, 67
2, 5568, Note_on_c, 0, 62, 53
2, 5628, Note_on_c, 0, 62, 0
2, 5628, Note_on_c, 0, 71, 0
2, 5756, Note_on_c, 0, 57, 0
2, 5760, Note_on_c, 0, 57, 60
2, 5760, Note_on_c, 0, 76, 69
2, 5760, Note_on_c, 0, 68, 67
2, 5760, Note_on_c, 0, 59, 59
2, 5820, Note_on_c, 0, 76, 0
2, 5948, Note_on_c, 0, 59, 0
2, 5948, Note_on_c, 0, 68, 0
2, 5952, Note_on_c, 0, 76, 77
2, 5952, Note_on_c, 0, 71, 58
2, 5952, Note_on_c, 0, 62, 36
2, 6012, Note_on_c, 0, 62, 0
2, 6012, Note_on_c, 0, 71, 0
2, 6012, Note_on_c, 0, 76, 0
2, 6140, Note_on_c, 0, 57, 0
2, 6144, Note_on_c, 0, 69, 63
2, 6144, Note_on_c, 0, 61, 60
2, 6144, Note_on_c, 0, 57, 56
2, 6524, Note_on_c, 0, 57, 0
2, 6524, Note_on_c, 0, 61, 0
2, 6524, Note_on_c, 0, 69, 0
2, 6720, Note_on_c, 0, 64, 71
2, 6780, Note_on_c, 0, 64, 0
2, 6912, Note_on_c, 0, 76, 68
2, 6912, Note_on_c, 0, 61, 53
2, 6912, Note_on_c, 0, 69, 64
2, 6912, Note_on_c, 0, 57, 58
2, 7036, Note_on_c, 0, 76, 0
2, 7196, Note_on_c, 0, 61, 0
2, 7196, Note_on_c, 0, 69, 0
2, 7200, Note_on_c, 0, 68, 63
2, 7200, Note_on_c, 0, 59, 58
2, 7292, Note_on_c, 0, 59, 0
2, 7292, Note_on_c, 0, 68, 0
2, 7296, Note_on_c, 0, 76, 69
2, 7296, Note_on_c, 0, 69, 57
2, 7296, Note_on_c, 0, 61, 53
2, 7356, Note_on_c, 0, 61, 0
2, 7356, Note_on_c, 0, 69, 0
2, 7356, Note_on_c, 0, 76, 0
2, 7488, Note_on_c, 0, 76, 75
2, 7488, Note_on_c, 0, 73, 70
2, 7488, Note_on_c, 0, 64, 60
2, 7548, Note_on_c, 0, 64, 0
2, 7548, Note_on_c, 0, 73, 0
2, 7548, Note_on_c, 0, 76, 0
2, 7676, Note_on_c, 0, 57, 0
2, 7680, Note_on_c, 0, 57, 56
2, 7680, Note_on_c, 0, 71, 73
2, 7680, Note_on_c, 0, 62, 52
2, 7680, Note_on_c, 0, 76, 88
2, 7700, Note_on_c, 0, 76, 0
2, 7704, Note_on_c, 0, 78, 74
2, 7724, Note_on_c, 0, 78, 0
2, 7728, Note_on_c, 0, 76, 74
2, 7748, Note_on_c, 0, 76, 0
2, 7752, Note_on_c, 0, 78, 73
2, 7772, Note_on_c, 0, 78, 0
2, 7776, Note_on_c, 0, 75, 75
2, 7820, Note_on_c, 0, 75, 0
2, 7824, Note_on_c, 0, 76, 88
2, 7868, Note_on_c, 0, 76, 0
2, 7872, Note_on_c, 0, 78, 77
2, 7964, Note_on_c, 0, 78, 0
2, 7968, Note_on_c, 0, 80, 101
2, 8060, Note_on_c, 0, 80, 0
2, 8060, Note_on_c, 0, 62, 0
2, 8060, Note_on_c, 0, 71, 0
2, 8064, Note_on_c, 0, 69, 93
2, 8064, Note_on_c, 0, 61, 82
2, 8064, Note_on_c, 0, 81, 97
2, 8252, Note_on_c, 0, 81, 0
2, 8256, Note_on_c, 0, 76, 87
2, 8316, Note_on_c, 0, 76, 0
2, 8444, Note_on_c, 0, 61, 0
2, 8444, Note_on_c, 0, 69, 0
2, 8444, Note_on_c, 0, 57, 0
2, 8448, Note_on_c, 0, 57, 49
2, 8448, Note_on_c, 0, 76, 67
2, 8448, Note_on_c, 0, 68, 54
2, 8448, Note_on_c, 0, 59, 52
2, 8572, Note_on_c, 0, 76, 0
2, 8636, Note_on_c, 0, 59, 0
2, 8636, Note_on_c, 0, 68, 0
2, 8640, Note_on_c, 0, 71, 67
2, 8640, Note_on_c, 0, 62, 53
2, 8700, Note_on_c, 0, 62, 0
2, 8700, Note_on_c, 0, 71, 0
2, 8828, Note_on_c, 0, 57, 0
2, 8832, Note_on_c, 0, 57, 60
2, 8832, Note_on_c, 0, 76, 69
2, 8832, Note_on_c, 0, 68, 67
2, 8832, Note_on_c, 0, 59, 59
2, 8892, Note_on_c, 0, 76, 0
2, 9020, Note_on_c, 0, 59, 0
2, 9020, Note_on_c, 0, 68, 0
2, 9024, Note_on_c, 0, 76, 77
2, 9024, Note_on_c, 0, 71, 58
2, 9024, Note_on_c, 0, 62, 36
2, 9084, Note_on_c, 0, 62, 0
2, 9084, Note_on_c, 0, 71, 0
2, 9084, Note_on_c, 0, 76, 0
2, 9212, Note_on_c, 0, 57, 0
2, 9216, Note_on_c, 0, 69, 74
2, 9216, Note_on_c, 0, 61, 68
2, 9216, Note_on_c, 0, 57, 59
2, 9216, Note_on_c, 0, 76, 85
2, 9276, Note_on_c, 0, 57, 0
2, 9276, Note_on_c, 0, 69, 0
2, 9276, Note_on_c, 0, 61, 0
2, 9308, Note_on_c, 0, 76, 0
2, 9312, Note_on_c, 0, 75, 83
2, 9404, Note_on_c, 0, 75, 0
2, 9408, Note_on_c, 0, 76, 92
2, 9500, Note_on_c, 0, 76, 0
2, 9504, Note_on_c, 0, 78, 90
2, 9596, Note_on_c, 0, 78, 0
2, 9600, Note_on_c, 0, 76, 97
2, 9692, Note_on_c, 0, 76, 0
2, 9696, Note_on_c, 0, 74, 75
2, 9696, Note_on_c, 0, 66, 63
2, 9788, Note_on_c, 0, 66, 0
2, 9788, Note_on_c, 0, 74, 0
2, 9792, Note_on_c, 0, 73, 69
2, 9792, Note_on_c, 0, 64, 71
2, 9884, Note_on_c, 0, 64, 0
2, 9884, Note_on_c, 0, 73, 0
2, 9888, Note_on_c, 0, 62, 58
2, 9888, Note_on_c, 0, 71, 78
2, 9916, Note_on_c, 0, 71, 0
2, 9916, Note_on_c, 0, 62, 0
2, 9984, Note_on_c, 0, 76, 68
2, 9984, Note_on_c, 0, 61, 53
2, 9984, Note_on_c, 0, 69, 64
2, 9984, Note_on_c, 0, 57, 58
2, 10108, Note_on_c, 0, 76, 0
2, 10268, Note_on_c, 0, 61, 0
2, 10268, Note_on_c, 0, 69, 0
2, 10272, Note_on_c, 0, 68, 63
2, 10272, Note_on_c, 0, 59, 58
2, 10364, Note_on_c, 0, 59, 0
2, 10364, Note_on_c, 0, 68, 0
2, 10368, Note_on_c, 0, 76, 69
2, 10368, Note_on_c, 0, 69, 57
2, 10368, Note_on_c, 0, 61, 53
2, 10428, Note_on_c, 0, 61, 0
2, 10428, Note_on_c, 0, 69, 0
2, 10428, Note_on_c, 0, 76, 0
2, 10560, Note_on_c, 0, 76, 75
2, 10560, Note_on_c, 0, 73, 70
2, 10560, Note_on_c, 0, 64, 60
2, 10620, Note_on_c, 0, 64, 0
2, 10620, Note_on_c, 0, 73, 0
2, 10620, Note_on_c, 0, 76, 0
2, 10748, Note_on_c, 0, 57, 0
2, 10752, Note_on_c, 0, 57, 56
2, 10752, Note_on_c, 0, 71, 73
2, 10752, Note_on_c, 0, 62, 52
2, 10752, Note_on_c, 0, 76, 88
2, 10772, Note_on_c, 0, 76, 0
2, 10776, Note_on_c, 0, 78, 74
2, 10796, Note_on_c, 0, 78, 0
2, 10800, Note_on_c, 0, 76, 74
2, 10820, Note_on_c, 0, 76, 0
2, 10824, Note_on_c, 0, 78, 73
2, 10844, Note_on_c, 0, 78, 0
2, 10848, Note_on_c, 0, 75, 75
2, 10892, Note_on_c, 0, 75, 0
2, 10896, Note_on_c, 0, 76, 88
2, 10940, Note_on_c, 0, 76, 0
2, 10944, Note_on_c, 0, 78, 77
2, 11036, Note_on_c, 0, 78, 0
2, 11040, Note_on_c, 0, 80, 101
2, 11132, Note_on_c, 0, 80, 0
2, 11132, Note_on_c, 0, 62, 0
2, 11132, Note_on_c, 0, 71, 0
2, 11136, Note_on_c, 0, 69, 93
2, 11136, Note_on_c, 0, 61, 82
2, 11136, Note_on_c, 0, 81, 97
2, 11324, Note_on_c, 0, 81, 0
2, 11328, Note_on_c, 0, 76, 87
2, 11388, Note_on_c, 0, 76, 0
2, 11516, Note_on_c, 0, 61, 0
2, 11516, Note_on_c, 0, 69, 0
2, 11516, Note_on_c, 0, 57, 0
2, 11520, Note_on_c, 0, 57, 49
2, 11520, Note_on_c, 0, 76, 67
2, 11520, Note_on_c, 0, 68, 54
2, 11520, Note_on_c, 0, 59, 52
2, 11644, Note_on_c, 0, 76, 0
2, 11708, Note_on_c, 0, 59, 0
2, 11708, Note_on_c, 0, 68, 0
2, 11712, Note_on_c, 0, 71, 67
2, 11712, Note_on_c, 0, 62, 53
2, 11772, Note_on_c, 0, 62, 0
2, 11772, Note_on_c, 0, 71, 0
2, 11900, Note_on_c, 0, 57, 0
2, 11904, Note_on_c, 0, 57, 60
2, 11904, Note_on_c, 0, 76, 69
2, 11904, Note_on_c, 0, 68, 67
2, 11904, Note_on_c, 0, 59, 59
2, 11964, Note_on_c, 0, 76, 0
2, 12092, Note_on_c, 0, 59, 0
2, 12092, Note_on_c, 0, 68, 0
2, 12096, Note_on_c, 0, 76, 77
2, 12096, Note_on_c, 0, 71, 58
2, 12096, Note_on_c, 0, 62, 36
2, 12156, Note_on_c, 0, 62, 0
2, 12156, Note_on_c, 0, 71, 0
2, 12156, Note_on_c, 0, 76, 0
2, 12284, Note_on_c, 0, 57, 0
2, 12288, Note_on_c, 0, 69, 63
2, 12288, Note_on_c, 0, 61, 60
2, 12288, Note_on_c, 0, 57, 56
2, 12668, Note_on_c, 0, 57, 0
2, 12668, Note_on_c, 0, 61, 0
2, 12668, Note_on_c, 0, 69, 0
2, 12864, Note_on_c, 0, 76, 68
2, 12924, Note_on_c, 0, 76, 0
2, 13056, Note_on_c, 0, 59, 67
2, 13056, Note_on_c, 0, 74, 79
2, 13056, Note_on_c, 0, 68, 61
2, 13340, Note_on_c, 0, 74, 0
2, 13340, Note_on_c, 0, 59, 0
2, 13344, Note_on_c, 0, 76, 81
2, 13344, Note_on_c, 0, 61, 70
2, 13372, Note_on_c, 0, 61, 0
2, 13372, Note_on_c, 0, 76, 0
2, 13440, Note_on_c, 0, 74, 74
2, 13440, Note_on_c, 0, 59, 59
2, 13628, Note_on_c, 0, 59, 0
2, 13628, Note_on_c, 0, 74, 0
2, 13628, Note_on_c, 0, 68, 0
2, 13632, Note_on_c, 0, 73, 64
2, 13632, Note_on_c, 0, 69, 50
2, 13632, Note_on_c, 0, 57, 51
2, 13820, Note_on_c, 0, 57, 0
2, 13820, Note_on_c, 0, 69, 0
2, 13820, Note_on_c, 0, 73, 0
2, 13824, Note_on_c, 0, 68, 60
2, 13824, Note_on_c, 0, 71, 67
2, 13824, Note_on_c, 0, 62, 53
2, 14108, Note_on_c, 0, 62, 0
2, 14108, Note_on_c, 0, 71, 0
2, 14112, Note_on_c, 0, 73, 73
2, 14112, Note_on_c, 0, 64, 57
2, 14140, Note_on_c, 0, 64, 0
2, 14140, Note_on_c, 0, 73, 0
2, 14208, Note_on_c, 0, 71, 76
2, 14208, Note_on_c, 0, 62, 72
2, 14396, Note_on_c, 0, 62, 0
2, 14396, Note_on_c, 0, 71, 0
2, 14396, Note_on_c, 0, 68, 0
2, 14400, Note_on_c, 0, 69, 78
2, 14400, Note_on_c, 0, 64, 56
2, 14400, Note_on_c, 0, 61, 65
2, 14588, Note_on_c, 0, 61, 0
2, 14588, Note_on_c, 0, 64, 0
2, 14588, Note_on_c, 0, 69, 0
2, 14592, Note_on_c, 0, 59, 85
2, 14592, Note_on_c, 0, 68, 91
2, 14592, Note_on_c, 0, 76, 89
2, 14684, Note_on_c, 0, 76, 0
2, 14688, Note_on_c, 0, 74, 91
2, 14780, Note_on_c, 0, 74, 0
2, 14780, Note_on_c, 0, 68, 0
2, 14780, Note_on_c, 0, 59, 0
2, 14784, Note_on_c, 0, 69, 83
2, 14784, Note_on_c, 0, 57, 69
2, 14784, Note_on_c, 0, 73, 73
2, 14844, Note_on_c, 0, 73, 0
2, 14844, Note_on_c, 0, 57, 0
2, 14844, Note_on_c, 0, 69, 0
2, 14976, Note_on_c, 0, 68, 89
2, 14976, Note_on_c, 0, 59, 74
2, 14976, Note_on_c, 0, 76, 85
2, 15068, Note_on_c, 0, 76, 0
2, 15072, Note_on_c, 0, 74, 74
2, 15164, Note_on_c, 0, 74, 0
2, 15164, Note_on_c, 0, 59, 0
2, 15164, Note_on_c, 0, 68, 0
2, 15168, Note_on_c, 0, 69, 77
2, 15168, Note_on_c, 0, 57, 64
2, 15168, Note_on_c, 0, 73, 72
2, 15228, Note_on_c, 0, 73, 0
2, 15228, Note_on_c, 0, 57, 0
2, 15228, Note_on_c, 0, 69, 0
2, 15360, Note_on_c, 0, 68, 66
2, 15360, Note_on_c, 0, 71, 73
2, 15360, Note_on_c, 0, 52, 83
2, 15360, Note_on_c, 0, 64, 77
2, 15452, Note_on_c, 0, 64, 0
2, 15452, Note_on_c, 0, 52, 0
2, 15456, Note_on_c, 0, 63, 80
2, 15548, Note_on_c, 0, 63, 0
2, 15552, Note_on_c, 0, 64, 77
2, 15644, Note_on_c, 0, 64, 0
2, 15648, Note_on_c, 0, 66, 84
2, 15740, Note_on_c, 0, 66, 0
2, 15744, Note_on_c, 0, 64, 82
2, 15772, Note_on_c, 0, 71, 0
2, 15772, Note_on_c, 0, 68, 0
2, 15836, Note_on_c, 0, 64, 0
2, 15840, Note_on_c, 0, 64, 82
2, 15840, Note_on_c, 0, 62, 90
2, 15932, Note_on_c, 0, 62, 0
2, 15932, Note_on_c, 0, 64, 0
2, 15936, Note_on_c, 0, 66, 88
2, 15936, Note_on_c, 0, 61, 92
2, 16028, Note_on_c, 0, 61, 0
2, 16028, Note_on_c, 0, 66, 0
2, 16032, Note_on_c, 0, 68, 92
2, 16032, Note_on_c, 0, 59, 98
2, 16060, Note_on_c, 0, 59, 0
2, 16060, Note_on_c, 0, 68, 0
2, 16128, Note_on_c, 0, 76, 68
2, 16128, Note_on_c, 0, 61, 53
2, 16128, Note_on_c, 0, 69, 64
2, 16128, Note_on_c, 0, 57, 58
2, 16252, Note_on_c, 0, 76, 0
2, 16412, Note_on_c, 0, 61, 0
2, 16412, Note_on_c, 0, 69, 0
2, 16416, Note_on_c, 0, 68, 63
2, 16416, Note_on_c, 0, 59, 58
2, 16508, Note_on_c, 0, 59, 0
2, 16508, Note_on_c, 0, 68, 0
2, 16512, Note_on_c, 0, 76, 69
2, 16512, Note_on_c, 0, 69, 57
2, 16512, Note_on_c, 0, 61, 53
2, 16572, Note_on_c, 0, 61, 0
2, 16572, Note_on_c, 0, 69, 0
2, 16572, Note_on_c, 0, 76, 0
2, 16704, Note_on_c, 0, 76, 75
2, 16704, Note_on_c, 0, 73, 70
2, 16704, Note_on_c, 0, 64, 60
2, 16764, Note_on_c, 0, 64, 0
2, 16764, Note_on_c, 0, 73, 0
2, 16764, Note_on_c, 0, 76, 0
2, 16892, Note_on_c, 0, 57, 0
2, 16896, Note_on_c, 0, 57, 56
2, 16896, Note_on_c, 0, 71, 73
2, 16896, Note_on_c, 0, 62, 52
2, 16896, Note_on_c, 0, 76, 88
2, 16916, Note_on_c, 0, 76, 0
2, 16920, Note_on_c, 0, 78, 74
2, 16940, Note_on_c, 0, 78, 0
2, 16944, Note_on_c, 0, 76, 74
2, 16964, Note_on_c, 0, 76, 0
2, 16968, Note_on_c, 0, 78, 73
2, 16988, Note_on_c, 0, 78, 0
2, 16992, Note_on_c, 0, 75, 75
2, 17036, Note_on_c, 0, 75, 0
2, 17040, Note_on_c, 0, 76, 88
2, 17084, Note_on_c, 0, 76, 0
2, 17088, Note_on_c, 0, 78, 77
2, 17180, Note_on_c, 0, 78, 0
2, 17184, Note_on_c, 0, 80, 101
2, 17276, Note_on_c, 0, 80, 0
2, 17276, Note_on_c, 0, 62, 0
2, 17276, Note_on_c, 0, 71, 0
2, 17280, Note_on_c, 0, 69, 93
2, 17280, Note_on_c, 0, 61, 82
2, 17280, Note_on_c, 0, 81, 97
2, 17468, Note_on_c, 0, 81, 0
2, 17472, Note_on_c, 0, 76, 87
2, 17532, Note_on_c, 0, 76, 0
2, 17660, Note_on_c, 0, 61, 0
2, 17660, Note_on_c, 0, 69, 0
2, 17660, Note_on_c, 0, 57, 0
2, 17664, Note_on_c, 0, 57, 49
2, 17664, Note_on_c, 0, 76, 67
2, 17664, Note_on_c, 0, 68, 54
2, 17664, Note_on_c, 0, 59, 52
2, 17788, Note_on_c, 0, 76, 0
2, 17852, Note_on_c, 0, 59, 0
2, 17852, Note_on_c, 0, 68, 0
2, 17856, Note_on_c, 0, 71, 67
2, 17856, Note_on_c, 0, 62, 53
2, 17916, Note_on_c, 0, 62, 0
2, 17916, Note_on_c, 0, 71, 0
2, 18044, Note_on_c, 0, 57, 0
2, 18048, Note_on_c, 0, 57, 60
2, 18048, Note_on_c, 0, 76, 69
2, 18048, Note_on_c, 0, 68, 67
2, 18048, Note_on_c, 0, 59, 59
2, 18108, Note_on_c, 0, 76, 0
2, 18236, Note_on_c, 0, 59, 0
2, 18236, Note_on_c, 0, 68, 0
2, 18240, Note_on_c, 0, 76, 77
2, 18240, Note_on_c, 0, 71, 58
2, 18240, Note_on_c, 0, 62, 36
2, 18300, Note_on_c, 0, 62, 0
2, 18300, Note_on_c, 0, 71, 0
2, 18300, Note_on_c, 0, 76, 0
2, 18428, Note_on_c, 0, 57, 0
2, 18432, Note_on_c, 0, 69, 63
2, 18432, Note_on_c, 0, 61, 60
2, 18432, Note_on_c, 0, 57, 56
2, 18812, Note_on_c, 0, 57, 0
2, 18812, Note_on_c, 0, 61, 0
2, 18812, Note_on_c, 0, 69, 0
2, 19008, Note_on_c, 0, 76, 68
2, 19068, Note_on_c, 0, 76, 0
2, 19200, Note_on_c, 0, 59, 67
2, 19200, Note_on_c, 0, 74, 79
2, 19200, Note_on_c, 0, 68, 61
2, 19484, Note_on_c, 0, 74, 0
2, 19484, Note_on_c, 0, 59, 0
2, 19488, Note_on_c, 0, 76, 81
2, 19488, Note_on_c, 0, 61, 70
2, 19516, Note_on_c, 0, 61, 0
2, 19516, Note_on_c, 0, 76, 0
2, 19584, Note_on_c, 0, 74, 74
2, 19584, Note_on_c, 0, 59, 59
2, 19772, Note_on_c, 0, 59, 0
2, 19772, Note_on_c, 0, 74, 0
2, 19772, Note_on_c, 0, 68, 0
2, 19776, Note_on_c, 0, 73, 64
2, 19776, Note_on_c, 0, 69, 50
2, 19776, Note_on_c, 0, 57, 51
2, 19964, Note_on_c, 0, 57, 0
2, 19964, Note_on_c, 0, 69, 0
2, 19964, Note_on_c, 0, 73, 0
2, 19968, Note_on_c, 0, 68, 60
2, 19968, Note_on_c, 0, 71, 67
2, 19968, Note_on_c, 0, 62, 53
2, 20252, Note_on_c, 0, 62, 0
2, 20252, Note_on_c, 0, 71, 0
2, 20256, Note_on_c, 0, 73, 73
2, 20256, Note_on_c, 0, 64, 57
2, 20284, Note_on_c, 0, 64, 0
2, 20284, Note_on_c, 0, 73, 0
2, 20352, Note_on_c, 0, 71, 76
2, 20352, Note_on_c, 0, 62, 72
2, 20540, Note_on_c, 0, 62, 0
2, 20540, Note_on_c, 0, 71, 0
2, 20540, Note_on_c, 0, 68, 0
2, 20544, Note_on_c, 0, 69, 78
2, 20544, Note_on_c, 0, 64, 56
2, 20544, Note_on_c, 0, 61, 65
2, 20732, Note_on_c, 0, 61, 0
2, 20732, Note_on_c, 0, 64, 0
2, 20732, Note_on_c, 0, 69, 0
2, 20736, Note_on_c, 0, 59, 85
2, 20736, Note_on_c, 0, 68, 91
2, 20736, Note_on_c, 0, 76, 89
2, 20828, Note_on_c, 0, 76, 0
2, 20832, Note_on_c, 0, 74, 91
2, 20924, Note_on_c, 0, 74, 0
2, 20924, Note_on_c, 0, 68, 0
2, 20924, Note_on_c, 0, 59, 0
2, 20928, Note_on_c, 0, 69, 83
2, 20928, Note_on_c, 0, 57, 69
2, 20928, Note_on_c, 0, 73, 73
2, 20988, Note_on_c, 0, 73, 0
2, 20988, Note_on_c, 0, 57, 0
2, 20988, Note_on_c, 0, 69, 0
2, 21120, Note_on_c, 0, 68, 89
2, 21120, Note_on_c, 0, 59, 74
2, 21120, Note_on_c, 0, 76, 85
2, 21212, Note_on_c, 0, 76, 0
2, 21216, Note_on_c, 0, 74, 74
2, 21308, Note_on_c, 0, 74, 0
2, 21308, Note_on_c, 0, 59, 0
2, 21308, Note_on_c, 0, 68, 0
2, 21312, Note_on_c, 0, 69, 77
2, 21312, Note_on_c, 0, 57, 64
2, 21312, Note_on_c, 0, 73, 72
2, 21372, Note_on_c, 0, 73, 0
2, 21372, Note_on_c, 0, 57, 0
2, 21372, Note_on_c, 0, 69, 0
2, 21504, Note_on_c, 0, 68, 66
2, 21504, Note_on_c, 0, 71, 73
2, 21504, Note_on_c, 0, 52, 83
2, 21504, Note_on_c, 0, 64, 77
2, 21596, Note_on_c, 0, 64, 0
2, 21596, Note_on_c, 0, 52, 0
2, 21600, Note_on_c, 0, 63, 80
2, 21692, Note_on_c, 0, 63, 0
2, 21696, Note_on_c, 0, 64, 77
2, 21788, Note_on_c, 0, 64, 0
2, 21792, Note_on_c, 0, 66, 84
2, 21884, Note_on_c, 0, 66, 0
2, 21888, Note_on_c, 0, 64, 82
2, 21916, Note_on_c, 0, 71, 0
2, 21916, Note_on_c, 0, 68, 0
2, 21980, Note_on_c, 0, 64, 0
2, 21984, Note_on_c, 0, 64, 82
2, 21984, Note_on_c, 0, 62, 90
2, 22076, Note_on_c, 0, 62, 0
2, 22076, Note_on_c, 0, 64, 0
2, 22080, Note_on_c, 0, 66, 88
2, 22080, Note_on_c, 0, 61, 92
2, 22172, Note_on_c, 0, 61, 0
2, 22172, Note_on_c, 0, 66, 0
2, 22176, Note_on_c, 0, 68, 92
2, 22176, Note_on_c, 0, 59, 98
2, 22204, Note_on_c, 0, 59, 0
2, 22204, Note_on_c, 0, 68, 0
2, 22272, Note_on_c, 0, 76, 68
2, 22272, Note_on_c, 0, 61, 53
2, 22272, Note_on_c, 0, 69, 64
2, 22272, Note_on_c, 0, 57, 58
2, 22396, Note_on_c, 0, 76, 0
2, 22556, Note_on_c, 0, 61, 0
2, 22556, Note_on_c, 0, 69, 0
2, 22560, Note_on_c, 0, 68, 63
2, 22560, Note_on_c, 0, 59, 58
2, 22652, Note_on_c, 0, 59, 0
2, 22652, Note_on_c, 0, 68, 0
2, 22656, Note_on_c, 0, 76, 69
2, 22656, Note_on_c, 0, 69, 57
2, 22656, Note_on_c, 0, 61, 53
2, 22716, Note_on_c, 0, 61, 0
2, 22716, Note_on_c, 0, 69, 0
2, 22716, Note_on_c, 0, 76, 0
2, 22848, Note_on_c, 0, 76, 75
2, 22848, Note_on_c, 0, 73, 70
2, 22848, Note_on_c, 0, 64, 60
2, 22908, Note_on_c, 0, 64, 0
2, 22908, Note_on_c, 0, 73, 0
2, 22908, Note_on_c, 0, 76, 0
2, 23036, Note_on_c, 0, 57, 0
2, 23040, Note_on_c, 0, 57, 56
2, 23040, Note_on_c, 0, 71, 73
2, 23040, Note_on_c, 0, 62, 52
2, 23040, Note_on_c, 0, 76, 88
2, 23060, Note_on_c, 0, 76, 0
2, 23064, Note_on_c, 0, 78, 74
2, 23084, Note_on_c, 0, 78, 0
2, 23088, Note_on_c, 0, 76, 74
2, 23108, Note_on_c, 0, 76, 0
2, 23112, Note_on_c, 0, 78, 73
2, 23132, Note_on_c, 0, 78, 0
2, 23136, Note_on_c, 0, 75, 75
2, 23180, Note_on_c, 0, 75, 0
2, 23184, Note_on_c, 0, 76, 88
2, 23228, Note_on_c, 0, 76, 0
2, 23232, Note_on_c, 0, 78, 77
2, 23324, Note_on_c, 0, 78, 0
2, 23328, Note_on_c, 0, 80, 101
2, 23420, Note_on_c, 0, 80, 0
2, 23420, Note_on_c, 0, 62, 0
2, 23420, Note_on_c, 0, 71, 0
2, 23424, Note_on_c, 0, 69, 93
2, 23424, Note_on_c, 0, 61, 82
2, 23424, Note_on_c, 0, 81, 97
2, 23612, Note_on_c, 0, 81, 0
2, 23616, Note_on_c, 0, 76, 87
2, 23676, Note_on_c, 0, 76, 0
2, 23804, Note_on_c, 0, 61, 0
2, 23804, Note_on_c, 0, 69, 0
2, 23804, Note_on_c, 0, 57, 0
2, 23808, Note_on_c, 0, 57, 49
2, 23808, Note_on_c, 0, 76, 67
2, 23808, Note_on_c, 0, 68, 54
2, 23808, Note_on_c, 0, 59, 52
2, 23932, Note_on_c, 0, 76, 0
2, 23996, Note_on_c, 0, 59, 0
2, 23996, Note_on_c, 0, 68, 0
2, 24000, Note_on_c, 0, 71, 67
2, 24000, Note_on_c, 0, 62, 53
2, 24060, Note_on_c, 0, 62, 0
2, 24060, Note_on_c, 0, 71, 0
2, 24188, Note_on_c, 0, 57, 0
2, 24192, Note_on_c, 0, 57, 60
2, 24192, Note_on_c, 0, 76, 69
2, 24192, Note_on_c, 0, 68, 67
2, 24192, Note_on_c, 0, 59, 59
2, 24252, Note_on_c, 0, 76, 0
2, 24380, Note_on_c, 0, 59, 0
2, 24380, Note_on_c, 0, 68, 0
2, 24384, Note_on_c, 0, 76, 77
2, 24384, Note_on_c, 0, 71, 58
2, 24384, Note_on_c, 0, 62, 36
2, 24444, Note_on_c, 0, 62, 0
2, 24444, Note_on_c, 0, 71, 0
2, 24444, Note_on_c, 0, 76, 0
2, 24572, Note_on_c, 0, 57, 0
2, 24576, Note_on_c, 0, 69, 63
2, 24576, Note_on_c, 0, 61, 60
2, 24576, Note_on_c, 0, 57, 56
2, 24956, Note_on_c, 0, 57, 0
2, 24956, Note_on_c, 0, 61, 0
2, 24956, Note_on_c, 0, 69, 0
2, 24996, Control_c, 0, 64, 127
2, 25152, Note_on_c, 0, 57, 73
2, 25152, Note_on_c, 0, 60, 55
2, 25180, Note_on_c, 0, 60, 0
2, 25180, Note_on_c, 0, 57, 0
2, 25248, Note_on_c, 0, 57, 74
2, 25248, Note_on_c, 0, 60, 66
2, 25276, Note_on_c, 0, 60, 0
2, 25276, Note_on_c, 0, 57, 0
2, 25316, Control_c, 0, 64, 0
2, 25380, Control_c, 0, 64, 127
2, 25536, Note_on_c, 0, 59, 70
2, 25536, Note_on_c, 0, 56, 68
2, 25564, Note_on_c, 0, 56, 0
2, 25564, Note_on_c, 0, 59, 0
2, 25632, Note_on_c, 0, 56, 73
2, 25632, Note_on_c, 0, 59, 67
2, 25660, Note_on_c, 0, 59, 0
2, 25660, Note_on_c, 0, 56, 0
2, 25700, Control_c, 0, 64, 0
2, 25764, Control_c, 0, 64, 127
2, 26084, Control_c, 0, 64, 0
2, 26148, Control_c, 0, 64, 127
2, 26304, Note_on_c, 0, 57, 77
2, 26304, Note_on_c, 0, 62, 69
2, 26332, Note_on_c, 0, 62, 0
2, 26332, Note_on_c, 0, 57, 0
2, 26400, Note_on_c, 0, 57, 74
2, 26400, Note_on_c, 0, 62, 47
2, 26428, Note_on_c, 0, 62, 0
2, 26428, Note_on_c, 0, 57, 0
2, 26468, Control_c, 0, 64, 0
2, 26532, Control_c, 0, 64, 127
2, 26592, Note_on_c, 0, 57, 75
2, 26684, Note_on_c, 0, 57, 0
2, 26688, Note_on_c, 0, 64, 72
2, 26688, Note_on_c, 0, 61, 76
2, 26716, Note_on_c, 0, 61, 0
2, 26716, Note_on_c, 0, 64, 0
2, 26784, Note_on_c, 0, 64, 73
2, 26784, Note_on_c, 0, 61, 71
2, 26812, Note_on_c, 0, 61, 0
2, 26812, Note_on_c, 0, 64, 0
2, 26852, Control_c, 0, 64, 0
2, 26916, Control_c, 0, 64, 127
2, 26976, Note_on_c, 0, 57, 78
2, 27068, Note_on_c, 0, 57, 0
2, 27072, Note_on_c, 0, 65, 74
2, 27072, Note_on_c, 0, 62, 83
2, 27100, Note_on_c, 0, 62, 0
2, 27100, Note_on_c, 0, 65, 0
2, 27168, Note_on_c, 0, 65, 90
2, 27168, Note_on_c, 0, 62, 95
2, 27196, Note_on_c, 0, 62, 0
2, 27196, Note_on_c, 0, 65, 0
2, 27236, Control_c, 0, 64, 0
2, 27300, Control_c, 0, 64, 127
2, 27360, Note_on_c, 0, 59, 83
2, 27452, Note_on_c, 0, 59, 0
2, 27456, Note_on_c, 0, 62, 84
2, 27456, Note_on_c, 0, 67, 79
2, 27484, Note_on_c, 0, 67, 0
2, 27484, Note_on_c, 0, 62, 0
2, 27552, Note_on_c, 0, 62, 64
2, 27552, Note_on_c, 0, 67, 54
2, 27580, Note_on_c, 0, 67, 0
2, 27580, Note_on_c, 0, 62, 0
2, 27620, Control_c, 0, 64, 0
2, 27684, Control_c, 0, 64, 127
2, 27840, Note_on_c, 0, 60, 69
2, 27840, Note_on_c, 0, 64, 61
2, 27868, Note_on_c, 0, 64, 0
2, 27868, Note_on_c, 0, 60, 0
2, 27936, Note_on_c, 0, 60, 75
2, 27936, Note_on_c, 0, 64, 58
2, 27964, Note_on_c, 0, 64, 0
2, 27964, Note_on_c, 0, 60, 0
2, 28004, Control_c, 0, 64, 0
2, 28068, Control_c, 0, 64, 127
2, 28128, Note_on_c, 0, 64, 77
2, 28220, Note_on_c, 0, 64, 0
2, 28224, Note_on_c, 0, 69, 83
2, 28224, Note_on_c, 0, 72, 59
2, 28252, Note_on_c, 0, 72, 0
2, 28252, Note_on_c, 0, 69, 0
2, 28320, Note_on_c, 0, 69, 83
2, 28320, Note_on_c, 0, 72, 68
2, 28348, Note_on_c, 0, 72, 0
2, 28348, Note_on_c, 0, 69, 0
2, 28388, Control_c, 0, 64, 0
2, 28452, Control_c, 0, 64, 127
2, 28512, Note_on_c, 0, 63, 61
2, 28604, Note_on_c, 0, 63, 0
2, 28608, Note_on_c, 0, 66, 88
2, 28608, Note_on_c, 0, 71, 69
2, 28636, Note_on_c, 0, 71, 0
2, 28636, Note_on_c, 0, 66, 0
2, 28704, Note_on_c, 0, 66, 91
2, 28704, Note_on_c, 0, 71, 80
2, 28732, Note_on_c, 0, 71, 0
2, 28732, Note_on_c, 0, 66, 0
2, 28772, Control_c, 0, 64, 0
2, 28836, Control_c, 0, 64, 127
2, 28896, Note_on_c, 0, 59, 85
2, 28988, Note_on_c, 0, 59, 0
2, 28992, Note_on_c, 0, 66, 90
2, 28992, Note_on_c, 0, 69, 77
2, 29020, Note_on_c, 0, 69, 0
2, 29020, Note_on_c, 0, 66, 0
2, 29088, Note_on_c, 0, 66, 104
2, 29088, Note_on_c, 0, 69, 105
2, 29116, Note_on_c, 0, 69, 0
2, 29116, Note_on_c, 0, 66, 0
2, 29156, Control_c, 0, 64, 0
2, 29220, Control_c, 0, 64, 127
2, 29280, Note_on_c, 0, 59, 82
2, 29372, Note_on_c, 0, 59, 0
2, 29376, Note_on_c, 0, 62, 95
2, 29376, Note_on_c, 0, 68, 84
2, 29404, Note_on_c, 0, 68, 0
2, 29404, Note_on_c, 0, 62, 0
2, 29472, Note_on_c, 0, 68, 89
2, 29472, Note_on_c, 0, 62, 103
2, 29500, Note_on_c, 0, 62, 0
2, 29500, Note_on_c, 0, 68, 0
2, 29540, Control_c, 0, 64, 0
2, 29604, Control_c, 0, 64, 127
2, 29664, Note_on_c, 0, 57, 77
2, 29756, Note_on_c, 0, 57, 0
2, 29760, Note_on_c, 0, 69, 50
2, 29760, Note_on_c, 0, 60, 66
2, 29788, Note_on_c, 0, 60, 0
2, 29788, Note_on_c, 0, 69, 0
2, 29856, Note_on_c, 0, 60, 74
2, 29856, Note_on_c, 0, 69, 57
2, 29884, Note_on_c, 0, 69, 0
2, 29884, Note_on_c, 0, 60, 0
2, 29924, Control_c, 0, 64, 0
2, 29988, Control_c, 0, 64, 127
2, 30048, Note_on_c, 0, 59, 47
2, 30140, Note_on_c, 0, 59, 0
2, 30144, Note_on_c, 0, 69, 53
2, 30144, Note_on_c, 0, 65, 64
2, 30172, Note_on_c, 0, 65, 0
2, 30172, Note_on_c, 0, 69, 0
2, 30240, Note_on_c, 0, 65, 44
2, 30240, Note_on_c, 0, 69, 52
2, 30268, Note_on_c, 0, 69, 0
2, 30268, Note_on_c, 0, 65, 0
2, 30308, Control_c, 0, 64, 0
2, 30372, Control_c, 0, 64, 127
2, 30432, Note_on_c, 0, 59, 68
2, 30524, Note_on_c, 0, 59, 0
2, 30528, Note_on_c, 0, 68, 54
2, 30528, Note_on_c, 0, 62, 66
2, 30556, Note_on_c, 0, 62, 0
2, 30556, Note_on_c, 0, 68, 0
2, 30624, Note_on_c, 0, 68, 51
2, 30624, Note_on_c, 0, 62, 69
2, 30652, Note_on_c, 0, 62, 0
2, 30652, Note_on_c, 0, 68, 0
2, 30692, Control_c, 0, 64, 0
2, 30756, Control_c, 0, 64, 127
2, 30816, Note_on_c, 0, 57, 59
2, 30908, Note_on_c, 0, 57, 0
2, 30912, Note_on_c, 0, 69, 56
2, 30912, Note_on_c, 0, 60, 62
2, 30940, Note_on_c, 0, 60, 0
2, 30940, Note_on_c, 0, 69, 0
2, 31008, Note_on_c, 0, 69, 55
2, 31008, Note_on_c, 0, 60, 77
2, 31036, Note_on_c, 0, 60, 0
2, 31036, Note_on_c, 0, 69, 0
2, 31076, Control_c, 0, 64, 0
2, 31140, Control_c, 0, 64, 127
2, 31200, Note_on_c, 0, 63, 64
2, 31292, Note_on_c, 0, 63, 0
2, 31296, Note_on_c, 0, 75, 60
2, 31296, Note_on_c, 0, 72, 71
2, 31324, Note_on_c, 0, 72, 0
2, 31324, Note_on_c, 0, 75, 0
2, 31392, Note_on_c, 0, 75, 58
2, 31392, Note_on_c, 0, 72, 73
2, 31420, Note_on_c, 0, 72, 0
2, 31420, Note_on_c, 0, 75, 0
2, 31460, Control_c, 0, 64, 0
2, 31524, Control_c, 0, 64, 127
2, 31584, Note_on_c, 0, 63, 68
2, 31676, Note_on_c, 0, 63, 0
2, 31680, Note_on_c, 0, 75, 80
2, 31680, Note_on_c, 0, 71, 75
2, 31708, Note_on_c, 0, 71, 0
2, 31708, Note_on_c, 0, 75, 0
2, 31776, Note_on_c, 0, 75, 92
2, 31776, Note_on_c, 0, 71, 93
2, 31804, Note_on_c, 0, 71, 0
2, 31804, Note_on_c, 0, 75, 0
2, 31844, Control_c, 0, 64, 0
2, 31908, Control_c, 0, 64, 127
2, 31968, Note_on_c, 0, 63, 92
2, 32060, Note_on_c, 0, 63, 0
2, 32064, Note_on_c, 0, 75, 88
2, 32064, Note_on_c, 0, 69, 87
2, 32092, Note_on_c, 0, 69, 0
2, 32092, Note_on_c, 0, 75, 0
2, 32160, Note_on_c, 0, 75, 91
2, 32160, Note_on_c, 0, 69, 90
2, 32188, Note_on_c, 0, 69, 0
2, 32188, Note_on_c, 0, 75, 0
2, 32228, Control_c, 0, 64, 0
2, 32292, Control_c, 0, 64, 127
2, 32352, Note_on_c, 0, 64, 97
2, 32444, Note_on_c, 0, 64, 0
2, 32448, Note_on_c, 0, 68, 84
2, 32448, Note_on_c, 0, 76, 88
2, 32476, Note_on_c, 0, 76, 0
2, 32476, Note_on_c, 0, 68, 0
2, 32544, Note_on_c, 0, 68, 87
2, 32544, Note_on_c, 0, 76, 86
2, 32572, Note_on_c, 0, 76, 0
2, 32572, Note_on_c, 0, 68, 0
2, 32612, Control_c, 0, 64, 0
2, 32676, Control_c, 0, 64, 127
2, 32736, Note_on_c, 0, 60, 70
2, 32828, Note_on_c, 0, 60, 0
2, 32832, Note_on_c, 0, 72, 44
2, 32832, Note_on_c, 0, 69, 59
2, 32860, Note_on_c, 0, 69, 0
2, 32860, Note_on_c, 0, 72, 0
2, 32928, Note_on_c, 0, 69, 71
2, 32928, Note_on_c, 0, 72, 44
2, 32956, Note_on_c, 0, 72, 0
2, 32956, Note_on_c, 0, 69, 0
2, 32996, Control_c, 0, 64, 0
2, 33060, Control_c, 0, 64, 127
2, 33120, Note_on_c, 0, 65, 57
2, 33212, Note_on_c, 0, 65, 0
2, 33216, Note_on_c, 0, 69, 73
2, 33216, Note_on_c, 0, 71, 49
2, 33244, Note_on_c, 0, 71, 0
2, 33244, Note_on_c, 0, 69, 0
2, 33312, Note_on_c, 0, 69, 67
2, 33312, Note_on_c, 0, 71, 51
2, 33340, Note_on_c, 0, 71, 0
2, 33340, Note_on_c, 0, 69, 0
2, 33380, Control_c, 0, 64, 0
2, 33444, Control_c, 0, 64, 127
2, 33504, Note_on_c, 0, 62, 79
2, 33596, Note_on_c, 0, 62, 0
2, 33600, Note_on_c, 0, 68, 69
2, 33600, Note_on_c, 0, 71, 46
2, 33628, Note_on_c, 0, 71, 0
2, 33628, Note_on_c, 0, 68, 0
2, 33696, Note_on_c, 0, 68, 61
2, 33696, Note_on_c, 0, 71, 52
2, 33724, Note_on_c, 0, 71, 0
2, 33724, Note_on_c, 0, 68, 0
2, 33764, Control_c, 0, 64, 0
2, 33828, Control_c, 0, 64, 127
2, 33888, Note_on_c, 0, 60, 72
2, 33980, Note_on_c, 0, 60, 0
2, 33984, Note_on_c, 0, 72, 50
2, 33984, Note_on_c, 0, 69, 56
2, 34012, Note_on_c, 0, 69, 0
2, 34012, Note_on_c, 0, 72, 0
2, 34080, Note_on_c, 0, 69, 74
2, 34080, Note_on_c, 0, 72, 55
2, 34108, Note_on_c, 0, 72, 0
2, 34108, Note_on_c, 0, 69, 0
2, 34148, Control_c, 0, 64, 0
2, 34212, Control_c, 0, 64, 127
2, 34272, Note_on_c, 0, 69, 72
2, 34364, Note_on_c, 0, 69, 0
2, 34368, Note_on_c, 0, 81, 74
2, 34368, Note_on_c, 0, 72, 78
2, 34396, Note_on_c, 0, 72, 0
2, 34396, Note_on_c, 0, 81, 0
2, 34464, Note_on_c, 0, 81, 78
2, 34464, Note_on_c, 0, 72, 87
2, 34492, Note_on_c, 0, 72, 0
2, 34492, Note_on_c, 0, 81, 0
2, 34532, Control_c, 0, 64, 0
2, 34596, Control_c, 0, 64, 127
2, 34656, Note_on_c, 0, 69, 81
2, 34748, Note_on_c, 0, 69, 0
2, 34752, Note_on_c, 0, 81, 80
2, 34752, Note_on_c, 0, 71, 83
2, 34780, Note_on_c, 0, 71, 0
2, 34780, Note_on_c, 0, 81, 0
2, 34848, Note_on_c, 0, 81, 91
2, 34848, Note_on_c, 0, 71, 97
2, 34876, Note_on_c, 0, 71, 0
2, 34876, Note_on_c, 0, 81, 0
2, 34916, Control_c, 0, 64, 0
2, 34980, Control_c, 0, 64, 127
2, 35040, Note_on_c, 0, 68, 79
2, 35132, Note_on_c, 0, 68, 0
2, 35136, Note_on_c, 0, 80, 92
2, 35136, Note_on_c, 0, 71, 85
2, 35164, Note_on_c, 0, 71, 0
2, 35164, Note_on_c, 0, 80, 0
2, 35232, Note_on_c, 0, 80, 94
2, 35232, Note_on_c, 0, 71, 91
2, 35260, Note_on_c, 0, 71, 0
2, 35260, Note_on_c, 0, 80, 0
2, 35300, Control_c, 0, 64, 0
2, 35328, Note_on_c, 0, 81, 72
2, 35328, Note_on_c, 0, 69, 58
2, 35364, Control_c, 0, 64, 127
2, 35708, Note_on_c, 0, 69, 0
2, 35708, Note_on_c, 0, 81, 0
2, 35712, Note_on_c, 0, 69, 67
2, 35740, Note_on_c, 0, 69, 0
2, 35808, Note_on_c, 0, 64, 63
2, 35900, Note_on_c, 0, 64, 0
2, 35904, Note_on_c, 0, 66, 69
2, 35996, Note_on_c, 0, 66, 0
2, 36000, Note_on_c, 0, 68, 78
2, 36028, Note_on_c, 0, 68, 0
2, 36068, Control_c, 0, 64, 0
2, 36096, Note_on_c, 0, 76, 68
2, 36096, Note_on_c, 0, 61, 53
2, 36096, Note_on_c, 0, 69, 64
2, 36096, Note_on_c, 0, 57, 58
2, 36220, Note_on_c, 0, 76, 0
2, 36380, Note_on_c, 0, 61, 0
2, 36380, Note_on_c, 0, 69, 0
2, 36384, Note_on_c, 0, 68, 63
2, 36384, Note_on_c, 0, 59, 58
2, 36476, Note_on_c, 0, 59, 0
2, 36476, Note_on_c, 0, 68, 0
2, 36480, Note_on_c, 0, 76, 69
2, 36480, Note_on_c, 0, 69, 57
2, 36480, Note_on_c, 0, 61, 53
2, 36540, Note_on_c, 0, 61, 0
2, 36540, Note_on_c, 0, 69, 0
2, 36540, Note_on_c, 0, 76, 0
2, 36672, Note_on_c, 0, 76, 75
2, 36672, Note_on_c, 0, 73, 70
2, 36672, Note_on_c, 0, 64, 60
2, 36732, Note_on_c, 0, 64, 0
2, 36732, Note_on_c, 0, 73, 0
2, 36732, Note_on_c, 0, 76, 0
2, 36860, Note_on_c, 0, 57, 0
2, 36864, Note_on_c, 0, 57, 56
2, 36864, Note_on_c, 0, 71, 73
2, 36864, Note_on_c, 0, 62, 52
2, 36864, Note_on_c, 0, 76, 88
2, 36884, Note_on_c, 0, 76, 0
2, 36888, Note_on_c, 0, 78, 74
2, 36908, Note_on_c, 0, 78, 0
2, 36912, Note_on_c, 0, 76, 74
2, 36932, Note_on_c, 0, 76, 0
2, 36936, Note_on_c, 0, 78, 73
2, 36956, Note_on_c, 0, 78, 0
2, 36960, Note_on_c, 0, 75, 75
2, 37004, Note_on_c, 0, 75, 0
2, 37008, Note_on_c, 0, 76, 88
2, 37052, Note_on_c, 0, 76, 0
2, 37056, Note_on_c, 0, 78, 77
2, 37148, Note_on_c, 0, 78, 0
2, 37152, Note_on_c, 0, 80, 101
2, 37244, Note_on_c, 0, 80, 0
2, 37244, Note_on_c, 0, 62, 0
2, 37244, Note_on_c, 0, 71, 0
2, 37248, Note_on_c, 0, 69, 93
2, 37248, Note_on_c, 0, 61, 82
2, 37248, Note_on_c, 0, 81, 97
2, 37436, Note_on_c, 0, 81, 0
2, 37440, Note_on_c, 0, 76, 87
2, 37500, Note_on_c, 0, 76, 0
2, 37628, Note_on_c, 0, 61, 0
2, 37628, Note_on_c, 0, 69, 0
2, 37628, Note_on_c, 0, 57, 0
2, 37632, Note_on_c, 0, 57, 49
2, 37632, Note_on_c, 0, 76, 67
2, 37632, Note_on_c, 0, 68, 54
2, 37632, Note_on_c, 0, 59, 52
2, 37756, Note_on_c, 0, 76, 0
2, 37820, Note_on_c, 0, 59, 0
2, 37820, Note_on_c, 0, 68, 0
2, 37824, Note_on_c, 0, 71, 67
2, 37824, Note_on_c, 0, 62, 53
2, 37884, Note_on_c, 0, 62, 0
2, 37884, Note_on_c, 0, 71, 0
2, 38012, Note_on_c, 0, 57, 0
2, 38016, Note_on_c, 0, 57, 60
2, 38016, Note_on_c, 0, 76, 69
2, 38016, Note_on_c, 0, 68, 67
2, 38016, Note_on_c, 0, 59, 59
2, 38076, Note_on_c, 0, 76, 0
2, 38204, Note_on_c, 0, 59, 0
2, 38204, Note_on_c, 0, 68, 0
2, 38208, Note_on_c, 0, 76, 77
2, 38208, Note_on_c, 0, 71, 58
2, 38208, Note_on_c, 0, 62, 36
2, 38268, Note_on_c, 0, 62, 0
2, 38268, Note_on_c, 0, 71, 0
2, 38268, Note_on_c, 0, 76, 0
2, 38396, Note_on_c, 0, 57, 0
2, 38400, Note_on_c, 0, 69, 74
2, 38400, Note_on_c, 0, 61, 68
2, 38400, Note_on_c, 0, 57, 59
2, 38400, Note_on_c, 0, 76, 85
2, 38460, Note_on_c, 0, 57, 0
2, 38460, Note_on_c, 0, 69, 0
2, 38460, Note_on_c, 0, 61, 0
2, 38492, Note_on_c, 0, 76, 0
2, 38496, Note_on_c, 0, 75, 83
2, 38588, Note_on_c, 0, 75, 0
2, 38592, Note_on_c, 0, 76, 92
2, 38684, Note_on_c, 0, 76, 0
2, 38688, Note_on_c, 0, 78, 90
2, 38780, Note_on_c, 0, 78, 0
2, 38784, Note_on_c, 0, 76, 97
2, 38876, Note_on_c, 0, 76, 0
2, 38880, Note_on_c, 0, 74, 75
2, 38880, Note_on_c, 0, 66, 63
2, 38972, Note_on_c, 0, 66, 0
2, 38972, Note_on_c, 0, 74, 0
2, 38976, Note_on_c, 0, 73, 69
2, 38976, Note_on_c, 0, 64, 71
2, 39068, Note_on_c, 0, 64, 0
2, 39068, Note_on_c, 0, 73, 0
2, 39072, Note_on_c, 0, 62, 58
2, 39072, Note_on_c, 0, 71, 78
2, 39100, Note_on_c, 0, 71, 0
2, 39100, Note_on_c, 0, 62, 0
2, 39168, Note_on_c, 0, 76, 68
2, 39168, Note_on_c, 0, 61, 53
2, 39168, Note_on_c, 0, 69, 64
2, 39168, Note_on_c, 0, 57, 58
2, 39292, Note_on_c, 0, 76, 0
2, 39452, Note_on_c, 0, 61, 0
2, 39452, Note_on_c, 0, 69, 0
2, 39456, Note_on_c, 0, 68, 63
2, 39456, Note_on_c, 0, 59, 58
2, 39548, Note_on_c, 0, 59, 0
2, 39548, Note_on_c, 0, 68, 0
2, 39552, Note_on_c, 0, 76, 69
2, 39552, Note_on_c, 0, 69, 57
2, 39552, Note_on_c, 0, 61, 53
2, 39612, Note_on_c, 0, 61, 0
2, 39612, Note_on_c, 0, 69, 0
2, 39612, Note_on_c, 0, 76, 0
2, 39744, Note_on_c, 0, 76, 75
2, 39744, Note_on_c, 0, 73, 70
2, 39744, Note_on_c, 0, 64, 60
2, 39804, Note_on_c, 0, 64, 0
2, 39804, Note_on_c, 0, 73, 0
2, 39804, Note_on_c, 0, 76, 0
2, 39932, Note_on_c, 0, 57, 0
2, 39936, Note_on_c, 0, 57, 56
2, 39936, Note_on_c, 0, 71, 73
2, 39936, Note_on_c, 0, 62, 52
2, 39936, Note_on_c, 0, 76, 88
2, 39956, Note_on_c, 0, 76, 0
2, 39960, Note_on_c, 0, 78, 74
2, 39980, Note_on_c, 0, 78, 0
2, 39984, Note_on_c, 0, 76, 74
2, 40004, Note_on_c, 0, 76, 0
2, 40008, Note_on_c, 0, 78, 73
2, 40028, Note_on_c, 0, 78, 0
2, 40032, Note_on_c, 0, 75, 75
2, 40076, Note_on_c, 0, 75, 0
2, 40080, Note_on_c, 0, 76, 88
2, 40124, Note_on_c, 0, 76, 0
2, 40128, Note_on_c, 0, 78, 77
2, 40220, Note_on_c, 0, 78, 0
2, 40224, Note_on_c, 0, 80, 101
2, 40316, Note_on_c, 0, 80, 0
2, 40316, Note_on_c, 0, 62, 0
2, 40316, Note_on_c, 0, 71, 0
2, 40320, Note_on_c, 0, 69, 93
2, 40320, Note_on_c, 0, 61, 82
2, 40320, Note_on_c, 0, 81, 97
2, 40508, Note_on_c, 0, 81, 0
2, 40512, Note_on_c, 0, 76, 87
2, 40572, Note_on_c, 0, 76, 0
2, 40700, Note_on_c, 0, 61, 0
2, 40700, Note_on_c, 0, 69, 0
2, 40700, Note_on_c, 0, 57, 0
2, 40704, Note_on_c, 0, 57, 49
2, 40704, Note_on_c, 0, 76, 67
2, 40704, Note_on_c, 0, 68, 54
2, 40704, Note_on_c, 0, 59, 52
2, 40828, Note_on_c, 0, 76, 0
2, 40892, Note_on_c, 0, 59, 0
2, 40892, Note_on_c, 0, 68, 0
2, 40896, Note_on_c, 0, 71, 67
2, 40896, Note_on_c, 0, 62, 53
2, 40956, Note_on_c, 0, 62, 0
2, 40956, Note_on_c, 0, 71, 0
2, 41084, Note_on_c, 0, 57, 0
2, 41088, Note_on_c, 0, 57, 60
2, 41088, Note_on_c, 0, 76, 69
2, 41088, Note_on_c, 0, 68, 67
2, 41088, Note_on_c, 0, 59, 59
2, 41148, Note_on_c, 0, 76, 0
2, 41276, Note_on_c, 0, 59, 0
2, 41276, Note_on_c, 0, 68, 0
2, 41280, Note_on_c, 0, 76, 77
2, 41280, Note_on_c, 0, 71, 58
2, 41280, Note_on_c, 0, 62, 36
2, 41340, Note_on_c, 0, 62, 0
2, 41340, Note_on_c, 0, 71, 0
2, 41340, Note_on_c, 0, 76, 0
2, 41468, Note_on_c, 0, 57, 0
2, 41472, Note_on_c, 0, 61, 58
2, 41472, Note_on_c, 0, 57, 68
2, 41472, Note_on_c, 0, 69, 58
2, 41564, Note_on_c, 0, 69, 0
2, 41568, Note_on_c, 0, 64, 68
2, 41660, Note_on_c, 0, 64, 0
2, 41660, Note_on_c, 0, 57, 0
2, 41660, Note_on_c, 0, 61, 0
2, 41664, Note_on_c, 0, 66, 77
2, 41756, Note_on_c, 0, 66, 0
2, 41760, Note_on_c, 0, 64, 83
2, 41852, Note_on_c, 0, 64, 0
2, 41856, Note_on_c, 0, 63, 79
2, 41948, Note_on_c, 0, 63, 0
2, 41952, Note_on_c, 0, 66, 76
2, 42044, Note_on_c, 0, 66, 0
2, 42048, Note_on_c, 0, 62, 58
2, 42140, Note_on_c, 0, 62, 0
2, 42144, Note_on_c, 0, 68, 61
2, 42236, Note_on_c, 0, 68, 0
2, 42240, Note_on_c, 0, 61, 60
2, 42336, Note_on_c, 0, 69, 67
2, 42428, Note_on_c, 0, 61, 0
2, 42432, Note_on_c, 0, 59, 67
2, 42524, Note_on_c, 0, 69, 0
2, 42528, Note_on_c, 0, 68, 68
2, 42620, Note_on_c, 0, 59, 0
2, 42624, Note_on_c, 0, 61, 70
2, 42716, Note_on_c, 0, 68, 0
2, 42720, Note_on_c, 0, 69, 77
2, 42812, Note_on_c, 0, 61, 0
2, 42816, Note_on_c, 0, 64, 63
2, 42908, Note_on_c, 0, 69, 0
2, 42912, Note_on_c, 0, 73, 77
2, 43004, Note_on_c, 0, 64, 0
2, 43008, Note_on_c, 0, 62, 55
2, 43100, Note_on_c, 0, 73, 0
2, 43104, Note_on_c, 0, 73, 72
2, 43196, Note_on_c, 0, 73, 0
2, 43200, Note_on_c, 0, 71, 74
2, 43292, Note_on_c, 0, 71, 0
2, 43292, Note_on_c, 0, 62, 0
2, 43296, Note_on_c, 0, 62, 66
2, 43388, Note_on_c, 0, 62, 0
2, 43392, Note_on_c, 0, 61, 69
2, 43488, Note_on_c, 0, 71, 77
2, 43580, Note_on_c, 0, 71, 0
2, 43584, Note_on_c, 0, 69, 68
2, 43676, Note_on_c, 0, 69, 0
2, 43676, Note_on_c, 0, 61, 0
2, 43680, Note_on_c, 0, 61, 65
2, 43772, Note_on_c, 0, 61, 0
2, 43776, Note_on_c, 0, 59, 67
2, 43872, Note_on_c, 0, 69, 73
2, 43964, Note_on_c, 0, 69, 0
2, 43968, Note_on_c, 0, 68, 68
2, 44060, Note_on_c, 0, 68, 0
2, 44064, Note_on_c, 0, 66, 72
2, 44156, Note_on_c, 0, 66, 0
2, 44156, Note_on_c, 0, 59, 0
2, 44160, Note_on_c, 0, 59, 76
2, 44256, Note_on_c, 0, 68, 77
2, 44348, Note_on_c, 0, 68, 0
2, 44348, Note_on_c, 0, 59, 0
2, 44352, Note_on_c, 0, 62, 61
2, 44448, Note_on_c, 0, 71, 74
2, 44540, Note_on_c, 0, 71, 0
2, 44540, Note_on_c, 0, 62, 0
2, 44544, Note_on_c, 0, 69, 85
2, 44544, Note_on_c, 0, 61, 69
2, 44604, Note_on_c, 0, 61, 0
2, 44604, Note_on_c, 0, 69, 0
2, 45024, Note_on_c, 0, 66, 68
2, 45116, Note_on_c, 0, 66, 0
2, 45120, Note_on_c, 0, 64, 70
2, 45212, Note_on_c, 0, 64, 0
2, 45216, Note_on_c, 0, 68, 61
2, 45216, Note_on_c, 0, 62, 59
2, 45308, Note_on_c, 0, 62, 0
2, 45308, Note_on_c, 0, 68, 0
2, 45312, Note_on_c, 0, 61, 60
2, 45408, Note_on_c, 0, 69, 67
2, 45500, Note_on_c, 0, 61, 0
2, 45504, Note_on_c, 0, 59, 67
2, 45596, Note_on_c, 0, 69, 0
2, 45600, Note_on_c, 0, 68, 68
2, 45692, Note_on_c, 0, 59, 0
2, 45696, Note_on_c, 0, 61, 70
2, 45788, Note_on_c, 0, 68, 0
2, 45792, Note_on_c, 0, 69, 77
2, 45884, Note_on_c, 0, 61, 0
2, 45888, Note_on_c, 0, 64, 63
2, 45980, Note_on_c, 0, 69, 0
2, 45984, Note_on_c, 0, 73, 77
2, 46076, Note_on_c, 0, 64, 0
2, 46080, Note_on_c, 0, 62, 55
2, 46172, Note_on_c, 0, 73, 0
2, 46176, Note_on_c, 0, 73, 72
2, 46268, Note_on_c, 0, 73, 0
2, 46272, Note_on_c, 0, 71, 74
2, 46364, Note_on_c, 0, 71, 0
2, 46364, Note_on_c, 0, 62, 0
2, 46368, Note_on_c, 0, 62, 66
2, 46460, Note_on_c, 0, 62, 0
2, 46464, Note_on_c, 0, 61, 69
2, 46560, Note_on_c, 0, 71, 77
2, 46652, Note_on_c, 0, 71, 0
2, 46656, Note_on_c, 0, 69, 68
2, 46748, Note_on_c, 0, 69, 0
2, 46748, Note_on_c, 0, 61, 0
2, 46752, Note_on_c, 0, 61, 65
2, 46844, Note_on_c, 0, 61, 0
2, 46848, Note_on_c, 0, 59, 67
2, 46944, Note_on_c, 0, 69, 73
2, 47036, Note_on_c, 0, 69, 0
2, 47040, Note_on_c, 0, 68, 68
2, 47132, Note_on_c, 0, 68, 0
2, 47136, Note_on_c, 0, 66, 72
2, 47228, Note_on_c, 0, 66, 0
2, 47228, Note_on_c, 0, 59, 0
2, 47232, Note_on_c, 0, 59, 76
2, 47328, Note_on_c, 0, 68, 77
2, 47420, Note_on_c, 0, 68, 0
2, 47420, Note_on_c, 0, 59, 0
2, 47424, Note_on_c, 0, 62, 61
2, 47520, Note_on_c, 0, 71, 74
2, 47612, Note_on_c, 0, 71, 0
2, 47612, Note_on_c, 0, 62, 0
2, 47616, Note_on_c, 0, 69, 71
2, 47616, Note_on_c, 0, 61, 57
2, 47644, Note_on_c, 0, 61, 0
2, 47644, Note_on_c, 0, 69, 0
2, 47712, Note_on_c, 0, 64, 72
2, 47804, Note_on_c, 0, 64, 0
2, 47808, Note_on_c, 0, 66, 77
2, 47900, Note_on_c, 0, 66, 0
2, 47904, Note_on_c, 0, 64, 83
2, 47996, Note_on_c, 0, 64, 0
2, 48000, Note_on_c, 0, 69, 88
2, 48092, Note_on_c, 0, 69, 0
2, 48096, Note_on_c, 0, 64, 81
2, 48188, Note_on_c, 0, 64, 0
2, 48192, Note_on_c, 0, 76, 92
2, 48192, Note_on_c, 0, 61, 72
2, 48252, Note_on_c, 0, 76, 0
2, 48284, Note_on_c, 0, 61, 0
2, 48384, Note_on_c, 0, 59, 80
2, 48384, Note_on_c, 0, 74, 88
2, 48384, Note_on_c, 0, 64, 77
2, 48476, Note_on_c, 0, 59, 0
2, 48480, Note_on_c, 0, 58, 82
2, 48572, Note_on_c, 0, 58, 0
2, 48576, Note_on_c, 0, 59, 61
2, 48668, Note_on_c, 0, 59, 0
2, 48668, Note_on_c, 0, 74, 0
2, 48672, Note_on_c, 0, 76, 82
2, 48764, Note_on_c, 0, 76, 0
2, 48768, Note_on_c, 0, 59, 48
2, 48768, Note_on_c, 0, 74, 71
2, 48860, Note_on_c, 0, 59, 0
2, 48956, Note_on_c, 0, 74, 0
2, 48956, Note_on_c, 0, 64, 0
2, 48960, Note_on_c, 0, 57, 72
2, 48960, Note_on_c, 0, 73, 52
2, 48960, Note_on_c, 0, 64, 61
2, 49052, Note_on_c, 0, 57, 0
2, 49148, Note_on_c, 0, 64, 0
2, 49148, Note_on_c, 0, 73, 0
2, 49152, Note_on_c, 0, 62, 82
2, 49152, Note_on_c, 0, 68, 69
2, 49152, Note_on_c, 0, 71, 57
2, 49244, Note_on_c, 0, 62, 0
2, 49248, Note_on_c, 0, 61, 70
2, 49340, Note_on_c, 0, 61, 0
2, 49344, Note_on_c, 0, 62, 60
2, 49436, Note_on_c, 0, 62, 0
2, 49436, Note_on_c, 0, 71, 0
2, 49440, Note_on_c, 0, 73, 67
2, 49468, Note_on_c, 0, 73, 0
2, 49536, Note_on_c, 0, 62, 51
2, 49536, Note_on_c, 0, 71, 73
2, 49628, Note_on_c, 0, 62, 0
2, 49724, Note_on_c, 0, 71, 0
2, 49724, Note_on_c, 0, 68, 0
2, 49728, Note_on_c, 0, 61, 50
2, 49728, Note_on_c, 0, 64, 61
2, 49728, Note_on_c, 0, 69, 63
2, 49820, Note_on_c, 0, 61, 0
2, 49916, Note_on_c, 0, 69, 0
2, 49916, Note_on_c, 0, 64, 0
2, 49920, Note_on_c, 0, 59, 83
2, 49920, Note_on_c, 0, 68, 89
2, 49920, Note_on_c, 0, 76, 91
2, 50012, Note_on_c, 0, 76, 0
2, 50012, Note_on_c, 0, 59, 0
2, 50016, Note_on_c, 0, 74, 71
2, 50108, Note_on_c, 0, 74, 0
2, 50108, Note_on_c, 0, 68, 0
2, 50112, Note_on_c, 0, 57, 71
2, 50112, Note_on_c, 0, 69, 75
2, 50112, Note_on_c, 0, 73, 82
2, 50172, Note_on_c, 0, 73, 0
2, 50172, Note_on_c, 0, 69, 0
2, 50204, Note_on_c, 0, 57, 0
2, 50304, Note_on_c, 0, 59, 85
2, 50304, Note_on_c, 0, 68, 66
2, 50304, Note_on_c, 0, 76, 78
2, 50396, Note_on_c, 0, 76, 0
2, 50396, Note_on_c, 0, 59, 0
2, 50400, Note_on_c, 0, 74, 62
2, 50492, Note_on_c, 0, 74, 0
2, 50492, Note_on_c, 0, 68, 0
2, 50496, Note_on_c, 0, 57, 60
2, 50496, Note_on_c, 0, 73, 63
2, 50496, Note_on_c, 0, 69, 65
2, 50556, Note_on_c, 0, 69, 0
2, 50556, Note_on_c, 0, 73, 0
2, 50588, Note_on_c, 0, 57, 0
2, 50688, Note_on_c, 0, 71, 66
2, 50688, Note_on_c, 0, 68, 73
2, 50688, Note_on_c, 0, 64, 61
2, 50780, Note_on_c, 0, 64, 0
2, 50784, Note_on_c, 0, 63, 75
2, 50876, Note_on_c, 0, 63, 0
2, 50880, Note_on_c, 0, 64, 79
2, 50972, Note_on_c, 0, 64, 0
2, 50976, Note_on_c, 0, 66, 76
2, 51068, Note_on_c, 0, 66, 0
2, 51072, Note_on_c, 0, 64, 77
2, 51164, Note_on_c, 0, 64, 0
2, 51164, Note_on_c, 0, 68, 0
2, 51164, Note_on_c, 0, 71, 0
2, 51168, Note_on_c, 0, 64, 70
2, 51168, Note_on_c, 0, 62, 85
2, 51260, Note_on_c, 0, 62, 0
2, 51260, Note_on_c, 0, 64, 0
2, 51264, Note_on_c, 0, 66, 80
2, 51264, Note_on_c, 0, 61, 84
2, 51356, Note_on_c, 0, 61, 0
2, 51356, Note_on_c, 0, 66, 0
2, 51360, Note_on_c, 0, 68, 86
2, 51360, Note_on_c, 0, 59, 81
2, 51388, Note_on_c, 0, 59, 0
2, 51388, Note_on_c, 0, 68, 0
2, 51456, Note_on_c, 0, 61, 59
2, 51456, Note_on_c, 0, 76, 83
2, 51456, Note_on_c, 0, 69, 78
2, 51548, Note_on_c, 0, 61, 0
2, 51552, Note_on_c, 0, 57, 54
2, 51644, Note_on_c, 0, 57, 0
2, 51648, Note_on_c, 0, 59, 62
2, 51740, Note_on_c, 0, 59, 0
2, 51740, Note_on_c, 0, 69, 0
2, 51744, Note_on_c, 0, 57, 58
2, 51744, Note_on_c, 0, 68, 88
2, 51836, Note_on_c, 0, 68, 0
2, 51836, Note_on_c, 0, 57, 0
2, 51836, Note_on_c, 0, 76, 0
2, 51840, Note_on_c, 0, 61, 52
2, 51840, Note_on_c, 0, 69, 83
2, 51840, Note_on_c, 0, 76, 87
2, 51900, Note_on_c, 0, 76, 0
2, 51900, Note_on_c, 0, 69, 0
2, 51932, Note_on_c, 0, 61, 0
2, 51936, Note_on_c, 0, 57, 48
2, 52028, Note_on_c, 0, 57, 0
2, 52032, Note_on_c, 0, 64, 74
2, 52032, Note_on_c, 0, 73, 82
2, 52032, Note_on_c, 0, 76, 81
2, 52092, Note_on_c, 0, 76, 0
2, 52092, Note_on_c, 0, 73, 0
2, 52124, Note_on_c, 0, 64, 0
2, 52128, Note_on_c, 0, 57, 71
2, 52220, Note_on_c, 0, 57, 0
2, 52224, Note_on_c, 0, 62, 78
2, 52224, Note_on_c, 0, 76, 93
2, 52224, Note_on_c, 0, 71, 63
2, 52244, Note_on_c, 0, 76, 0
2, 52248, Note_on_c, 0, 78, 82
2, 52268, Note_on_c, 0, 78, 0
2, 52272, Note_on_c, 0, 76, 89
2, 52292, Note_on_c, 0, 76, 0
2, 52296, Note_on_c, 0, 78, 82
2, 52316, Note_on_c, 0, 78, 0
2, 52316, Note_on_c, 0, 62, 0
2, 52320, Note_on_c, 0, 57, 62
2, 52320, Note_on_c, 0, 75, 78
2, 52364, Note_on_c, 0, 75, 0
2, 52368, Note_on_c, 0, 76, 83
2, 52412, Note_on_c, 0, 76, 0
2, 52412, Note_on_c, 0, 57, 0
2, 52416, Note_on_c, 0, 62, 85
2, 52416, Note_on_c, 0, 78, 86
2, 52508, Note_on_c, 0, 78, 0
2, 52508, Note_on_c, 0, 62, 0
2, 52512, Note_on_c, 0, 57, 65
2, 52512, Note_on_c, 0, 80, 85
2, 52604, Note_on_c, 0, 80, 0
2, 52604, Note_on_c, 0, 57, 0
2, 52604, Note_on_c, 0, 71, 0
2, 52608, Note_on_c, 0, 61, 82
2, 52608, Note_on_c, 0, 81, 99
2, 52608, Note_on_c, 0, 69, 94
2, 52700, Note_on_c, 0, 61, 0
2, 52704, Note_on_c, 0, 57, 68
2, 52796, Note_on_c, 0, 57, 0
2, 52796, Note_on_c, 0, 69, 0
2, 52796, Note_on_c, 0, 81, 0
2, 52800, Note_on_c, 0, 61, 65
2, 52800, Note_on_c, 0, 76, 83
2, 52892, Note_on_c, 0, 61, 0
2, 52896, Note_on_c, 0, 57, 54
2, 52988, Note_on_c, 0, 57, 0
2, 52988, Note_on_c, 0, 76, 0
2, 52992, Note_on_c, 0, 59, 64
2, 52992, Note_on_c, 0, 76, 71
2, 52992, Note_on_c, 0, 68, 58
2, 53084, Note_on_c, 0, 59, 0
2, 53088, Note_on_c, 0, 57, 48
2, 53180, Note_on_c, 0, 57, 0
2, 53180, Note_on_c, 0, 68, 0
2, 53184, Note_on_c, 0, 62, 70
2, 53184, Note_on_c, 0, 71, 61
2, 53244, Note_on_c, 0, 71, 0
2, 53276, Note_on_c, 0, 62, 0
2, 53280, Note_on_c, 0, 57, 70
2, 53372, Note_on_c, 0, 57, 0
2, 53372, Note_on_c, 0, 76, 0
2, 53376, Note_on_c, 0, 59, 67
2, 53376, Note_on_c, 0, 76, 64
2, 53376, Note_on_c, 0, 68, 62
2, 53436, Note_on_c, 0, 76, 0
2, 53468, Note_on_c, 0, 59, 0
2, 53472, Note_on_c, 0, 57, 54
2, 53564, Note_on_c, 0, 57, 0
2, 53564, Note_on_c, 0, 68, 0
2, 53568, Note_on_c, 0, 62, 78
2, 53568, Note_on_c, 0, 76, 64
2, 53568, Note_on_c, 0, 71, 58
2, 53628, Note_on_c, 0, 71, 0
2, 53628, Note_on_c, 0, 76, 0
2, 53660, Note_on_c, 0, 62, 0
2, 53664, Note_on_c, 0, 57, 61
2, 53756, Note_on_c, 0, 57, 0
2, 53760, Note_on_c, 0, 61, 62
2, 53760, Note_on_c, 0, 57, 75
2, 53760, Note_on_c, 0, 69, 70
2, 53788, Note_on_c, 0, 57, 0
2, 53788, Note_on_c, 0, 61, 0
2, 53820, Note_on_c, 0, 69, 0
2, 53856, Note_on_c, 0, 57, 56
2, 53948, Note_on_c, 0, 57, 0
2, 53952, Note_on_c, 0, 59, 69
2, 54044, Note_on_c, 0, 59, 0
2, 54048, Note_on_c, 0, 57, 66
2, 54140, Note_on_c, 0, 57, 0
2, 54240, Note_on_c, 0, 57, 63
2, 54240, Note_on_c, 0, 73, 78
2, 54240, Note_on_c, 0, 76, 81
2, 54332, Note_on_c, 0, 76, 0
2, 54332, Note_on_c, 0, 73, 0
2, 54332, Note_on_c, 0, 57, 0
2, 54336, Note_on_c, 0, 59, 73
2, 54336, Note_on_c, 0, 74, 89
2, 54336, Note_on_c, 0, 71, 76
2, 54428, Note_on_c, 0, 71, 0
2, 54428, Note_on_c, 0, 74, 0
2, 54428, Note_on_c, 0, 59, 0
2, 54432, Note_on_c, 0, 61, 73
2, 54432, Note_on_c, 0, 73, 92
2, 54432, Note_on_c, 0, 69, 90
2, 54460, Note_on_c, 0, 69, 0
2, 54460, Note_on_c, 0, 73, 0
2, 54460, Note_on_c, 0, 61, 0
2, 54528, Note_on_c, 0, 71, 62
2, 54528, Note_on_c, 0, 68, 51
2, 54528, Note_on_c, 0, 62, 81
2, 54620, Note_on_c, 0, 68, 0
2, 54620, Note_on_c, 0, 71, 0
2, 54624, Note_on_c, 0, 76, 71
2, 54716, Note_on_c, 0, 76, 0
2, 54720, Note_on_c, 0, 71, 58
2, 54720, Note_on_c, 0, 68, 43
2, 54812, Note_on_c, 0, 68, 0
2, 54812, Note_on_c, 0, 71, 0
2, 54812, Note_on_c, 0, 62, 0
2, 54816, Note_on_c, 0, 76, 78
2, 54816, Note_on_c, 0, 64, 70
2, 54844, Note_on_c, 0, 64, 0
2, 54908, Note_on_c, 0, 76, 0
2, 54912, Note_on_c, 0, 68, 45
2, 54912, Note_on_c, 0, 71, 58
2, 54912, Note_on_c, 0, 62, 72
2, 55004, Note_on_c, 0, 71, 0
2, 55004, Note_on_c, 0, 68, 0
2, 55008, Note_on_c, 0, 76, 84
2, 55100, Note_on_c, 0, 76, 0
2, 55100, Note_on_c, 0, 62, 0
2, 55104, Note_on_c, 0, 69, 73
2, 55104, Note_on_c, 0, 61, 59
2, 55164, Note_on_c, 0, 61, 0
2, 55196, Note_on_c, 0, 69, 0
2, 55200, Note_on_c, 0, 76, 85
2, 55292, Note_on_c, 0, 76, 0
2, 55296, Note_on_c, 0, 76, 75
2, 55296, Note_on_c, 0, 68, 55
2, 55388, Note_on_c, 0, 68, 0
2, 55388, Note_on_c, 0, 76, 0
2, 55392, Note_on_c, 0, 80, 77
2, 55484, Note_on_c, 0, 80, 0
2, 55488, Note_on_c, 0, 68, 63
2, 55488, Note_on_c, 0, 76, 83
2, 55580, Note_on_c, 0, 76, 0
2, 55580, Note_on_c, 0, 68, 0
2, 55584, Note_on_c, 0, 80, 79
2, 55676, Note_on_c, 0, 80, 0
2, 55680, Note_on_c, 0, 76, 81
2, 55680, Note_on_c, 0, 68, 53
2, 55680, Note_on_c, 0, 50, 75
2, 55680, Note_on_c, 0, 59, 64
2, 55772, Note_on_c, 0, 68, 0
2, 55772, Note_on_c, 0, 76, 0
2, 55776, Note_on_c, 0, 80, 84
2, 55868, Note_on_c, 0, 80, 0
2, 55868, Note_on_c, 0, 50, 0
2, 55868, Note_on_c, 0, 59, 0
2, 55872, Note_on_c, 0, 76, 81
2, 55872, Note_on_c, 0, 69, 70
2, 55872, Note_on_c, 0, 49, 71
2, 55872, Note_on_c, 0, 57, 67
2, 55932, Note_on_c, 0, 57, 0
2, 55932, Note_on_c, 0, 49, 0
2, 55964, Note_on_c, 0, 69, 0
2, 55964, Note_on_c, 0, 76, 0
2, 55968, Note_on_c, 0, 81, 77
2, 56060, Note_on_c, 0, 81, 0
2, 56064, Note_on_c, 0, 64, 93
2, 56064, Note_on_c, 0, 83, 96
2, 56156, Note_on_c, 0, 83, 0
2, 56156, Note_on_c, 0, 64, 0
2, 56160, Note_on_c, 0, 62, 71
2, 56160, Note_on_c, 0, 76, 64
2, 56252, Note_on_c, 0, 76, 0
2, 56252, Note_on_c, 0, 62, 0
2, 56256, Note_on_c, 0, 61, 71
2, 56256, Note_on_c, 0, 57, 78
2, 56256, Note_on_c, 0, 81, 67
2, 56316, Note_on_c, 0, 57, 0
2, 56316, Note_on_c, 0, 61, 0
2, 56348, Note_on_c, 0, 81, 0
2, 56352, Note_on_c, 0, 76, 87
2, 56380, Note_on_c, 0, 76, 0
2, 56448, Note_on_c, 0, 64, 88
2, 56448, Note_on_c, 0, 83, 99
2, 56540, Note_on_c, 0, 83, 0
2, 56540, Note_on_c, 0, 64, 0
2, 56544, Note_on_c, 0, 62, 56
2, 56544, Note_on_c, 0, 76, 75
2, 56636, Note_on_c, 0, 76, 0
2, 56636, Note_on_c, 0, 62, 0
2, 56640, Note_on_c, 0, 61, 67
2, 56640, Note_on_c, 0, 57, 77
2, 56640, Note_on_c, 0, 81, 75
2, 56700, Note_on_c, 0, 57, 0
2, 56700, Note_on_c, 0, 61, 0
2, 56732, Note_on_c, 0, 81, 0
2, 56736, Note_on_c, 0, 76, 85
2, 56764, Note_on_c, 0, 76, 0
2, 56832, Note_on_c, 0, 52, 77
2, 56832, Note_on_c, 0, 59, 69
2, 56832, Note_on_c, 0, 88, 89
2, 56860, Note_on_c, 0, 88, 0
2, 56892, Note_on_c, 0, 59, 0
2, 56892, Note_on_c, 0, 52, 0
2, 56928, Note_on_c, 0, 76, 79
2, 57020, Note_on_c, 0, 76, 0
2, 57024, Note_on_c, 0, 78, 79
2, 57116, Note_on_c, 0, 78, 0
2, 57120, Note_on_c, 0, 76, 83
2, 57212, Note_on_c, 0, 76, 0
2, 57216, Note_on_c, 0, 75, 84
2, 57308, Note_on_c, 0, 75, 0
2, 57312, Note_on_c, 0, 78, 65
2, 57404, Note_on_c, 0, 78, 0
2, 57408, Note_on_c, 0, 74, 62
2, 57500, Note_on_c, 0, 74, 0
2, 57504, Note_on_c, 0, 80, 66
2, 57596, Note_on_c, 0, 80, 0
2, 57600, Note_on_c, 0, 83, 52
2, 57600, Note_on_c, 0, 73, 80
2, 57692, Note_on_c, 0, 83, 0
2, 57696, Note_on_c, 0, 81, 75
2, 57788, Note_on_c, 0, 73, 0
2, 57792, Note_on_c, 0, 71, 53
2, 57884, Note_on_c, 0, 81, 0
2, 57888, Note_on_c, 0, 80, 79
2, 57980, Note_on_c, 0, 71, 0
2, 57984, Note_on_c, 0, 73, 64
2, 58076, Note_on_c, 0, 80, 0
2, 58080, Note_on_c, 0, 81, 81
2, 58172, Note_on_c, 0, 73, 0
2, 58176, Note_on_c, 0, 76, 71
2, 58268, Note_on_c, 0, 81, 0
2, 58272, Note_on_c, 0, 85, 79
2, 58364, Note_on_c, 0, 76, 0
2, 58368, Note_on_c, 0, 74, 53
2, 58460, Note_on_c, 0, 85, 0
2, 58464, Note_on_c, 0, 85, 82
2, 58556, Note_on_c, 0, 85, 0
2, 58560, Note_on_c, 0, 83, 75
2, 58652, Note_on_c, 0, 83, 0
2, 58652, Note_on_c, 0, 74, 0
2, 58656, Note_on_c, 0, 74, 78
2, 58748, Note_on_c, 0, 74, 0
2, 58752, Note_on_c, 0, 73, 59
2, 58848, Note_on_c, 0, 83, 85
2, 58940, Note_on_c, 0, 83, 0
2, 58944, Note_on_c, 0, 81, 74
2, 59036, Note_on_c, 0, 81, 0
2, 59036, Note_on_c, 0, 73, 0
2, 59040, Note_on_c, 0, 73, 76
2, 59132, Note_on_c, 0, 73, 0
2, 59136, Note_on_c, 0, 71, 65
2, 59232, Note_on_c, 0, 81, 73
2, 59324, Note_on_c, 0, 81, 0
2, 59328, Note_on_c, 0, 80, 80
2, 59420, Note_on_c, 0, 80, 0
2, 59424, Note_on_c, 0, 78, 83
2, 59516, Note_on_c, 0, 78, 0
2, 59516, Note_on_c, 0, 71, 0
2, 59520, Note_on_c, 0, 71, 59
2, 59616, Note_on_c, 0, 80, 82
2, 59708, Note_on_c, 0, 80, 0
2, 59708, Note_on_c, 0, 71, 0
2, 59712, Note_on_c, 0, 74, 73
2, 59808, Note_on_c, 0, 83, 90
2, 59900, Note_on_c, 0, 83, 0
2, 59900, Note_on_c, 0, 74, 0
2, 59904, Note_on_c, 0, 81, 57
2, 59904, Note_on_c, 0, 73, 64
2, 60092, Note_on_c, 0, 73, 0
2, 60092, Note_on_c, 0, 81, 0
2, 60288, Note_on_c, 0, 66, 96
2, 60288, Note_on_c, 0, 74, 105
2, 60288, Note_on_c, 0, 69, 102
2, 60412, Note_on_c, 0, 69, 0
2, 60412, Note_on_c, 0, 74, 0
2, 60412, Note_on_c, 0, 66, 0
2, 60672, Note_on_c, 0, 78, 82
2, 60672, Note_on_c, 0, 62, 77
2, 60860, Note_on_c, 0, 62, 0
2, 60860, Note_on_c, 0, 78, 0
2, 60864, Note_on_c, 0, 74, 84
2, 60864, Note_on_c, 0, 59, 50
2, 60864, Note_on_c, 0, 66, 43
2, 61052, Note_on_c, 0, 66, 0
2, 61052, Note_on_c, 0, 59, 0
2, 61052, Note_on_c, 0, 74, 0
2, 61056, Note_on_c, 0, 68, 70
2, 61056, Note_on_c, 0, 71, 72
2, 61056, Note_on_c, 0, 64, 53
2, 61244, Note_on_c, 0, 64, 0
2, 61244, Note_on_c, 0, 71, 0
2, 61244, Note_on_c, 0, 68, 0
2, 61248, Note_on_c, 0, 76, 82
2, 61248, Note_on_c, 0, 52, 63
2, 61248, Note_on_c, 0, 68, 44
2, 61436, Note_on_c, 0, 68, 0
2, 61436, Note_on_c, 0, 52, 0
2, 61436, Note_on_c, 0, 76, 0
2, 61440, Note_on_c, 0, 57, 68
2, 61440, Note_on_c, 0, 74, 72
2, 61440, Note_on_c, 0, 69, 79
2, 61532, Note_on_c, 0, 74, 0
2, 61536, Note_on_c, 0, 73, 79
2, 61564, Note_on_c, 0, 57, 0
2, 61628, Note_on_c, 0, 73, 0
2, 61628, Note_on_c, 0, 69, 0
2, 61632, Note_on_c, 0, 71, 68
2, 61724, Note_on_c, 0, 71, 0
2, 61728, Note_on_c, 0, 69, 77
2, 61820, Note_on_c, 0, 69, 0
2, 61824, Note_on_c, 0, 57, 104
2, 61824, Note_on_c, 0, 62, 102
2, 61948, Note_on_c, 0, 62, 0
2, 61948, Note_on_c, 0, 57, 0
2, 62208, Note_on_c, 0, 66, 71
2, 62208, Note_on_c, 0, 50, 52
2, 62396, Note_on_c, 0, 50, 0
2, 62396, Note_on_c, 0, 66, 0
2, 62784, Note_on_c, 0, 64, 66
2, 62784, Note_on_c, 0, 40, 48
2, 62784, Note_on_c, 0, 56, 50
2, 62972, Note_on_c, 0, 56, 0
2, 62972, Note_on_c, 0, 40, 0
2, 62972, Note_on_c, 0, 64, 0
2, 62976, Note_on_c, 0, 78, 63
2, 62976, Note_on_c, 0, 81, 61
2, 62976, Note_on_c, 0, 45, 68
2, 63036, Note_on_c, 0, 45, 0
2, 63036, Note_on_c, 0, 81, 0
2, 63036, Note_on_c, 0, 78, 0
2, 63360, Note_on_c, 0, 68, 65
2, 63360, Note_on_c, 0, 64, 48
2, 63360, Note_on_c, 0, 71, 65
2, 63420, Note_on_c, 0, 64, 0
2, 63420, Note_on_c, 0, 68, 0
2, 63548, Note_on_c, 0, 71, 0
2, 63552, Note_on_c, 0, 68, 69
2, 63552, Note_on_c, 0, 64, 75
2, 63552, Note_on_c, 0, 76, 85
2, 63612, Note_on_c, 0, 64, 0
2, 63612, Note_on_c, 0, 68, 0
2, 63740, Note_on_c, 0, 76, 0
2, 63744, Note_on_c, 0, 73, 66
2, 63744, Note_on_c, 0, 69, 54
2, 63744, Note_on_c, 0, 57, 58
2, 63804, Note_on_c, 0, 57, 0
2, 63804, Note_on_c, 0, 69, 0
2, 63804, Note_on_c, 0, 73, 0
2, 64128, Note_on_c, 0, 83, 63
2, 64128, Note_on_c, 0, 80, 51
2, 64316, Note_on_c, 0, 80, 0
2, 64316, Note_on_c, 0, 83, 0
2, 64320, Note_on_c, 0, 88, 68
2, 64508, Note_on_c, 0, 88, 0
2, 64512, Note_on_c, 0, 85, 65
2, 64512, Note_on_c, 0, 81, 50
2, 64572, Note_on_c, 0, 81, 0
2, 64572, Note_on_c, 0, 85, 0
2, 64572, End_track
3, 0, Start_track
3, 0, Title_t, "Andante"
3, 0, Control_c, 0, 0, 0
3, 0, Control_c, 0, 7, 110
3, 0, Control_c, 0, 10, 48
3, 0, Control_c, 0, 32, 0
3, 1, Program_c, 0, 0
3, 13056, Note_on_c, 0, 52, 59
3, 13820, Note_on_c, 0, 52, 0
3, 13824, Note_on_c, 0, 52, 71
3, 14588, Note_on_c, 0, 52, 0
3, 14592, Note_on_c, 0, 52, 58
3, 14972, Note_on_c, 0, 52, 0
3, 14976, Note_on_c, 0, 52, 76
3, 15356, Note_on_c, 0, 52, 0
3, 19200, Note_on_c, 0, 52, 59
3, 19964, Note_on_c, 0, 52, 0
3, 19968, Note_on_c, 0, 52, 71
3, 20732, Note_on_c, 0, 52, 0
3, 20736, Note_on_c, 0, 52, 58
3, 21116, Note_on_c, 0, 52, 0
3, 21120, Note_on_c, 0, 52, 76
3, 21500, Note_on_c, 0, 52, 0
3, 24960, Note_on_c, 0, 45, 69
3, 25056, Note_on_c, 0, 52, 66
3, 25148, Note_on_c, 0, 52, 0
3, 25340, Note_on_c, 0, 45, 0
3, 25344, Note_on_c, 0, 40, 65
3, 25440, Note_on_c, 0, 52, 67
3, 25532, Note_on_c, 0, 52, 0
3, 25724, Note_on_c, 0, 40, 0
3, 25728, Note_on_c, 0, 33, 63
3, 25824, Note_on_c, 0, 52, 66
3, 25916, Note_on_c, 0, 52, 0
3, 25920, Note_on_c, 0, 61, 50
3, 25920, Note_on_c, 0, 55, 78
3, 25920, Note_on_c, 0, 57, 67
3, 25948, Note_on_c, 0, 57, 0
3, 25948, Note_on_c, 0, 55, 0
3, 25948, Note_on_c, 0, 61, 0
3, 26016, Note_on_c, 0, 61, 64
3, 26016, Note_on_c, 0, 55, 83
3, 26016, Note_on_c, 0, 57, 71
3, 26044, Note_on_c, 0, 57, 0
3, 26044, Note_on_c, 0, 55, 0
3, 26044, Note_on_c, 0, 61, 0
3, 26108, Note_on_c, 0, 33, 0
3, 26112, Note_on_c, 0, 38, 51
3, 26208, Note_on_c, 0, 53, 59
3, 26300, Note_on_c, 0, 53, 0
3, 26492, Note_on_c, 0, 38, 0
3, 26496, Note_on_c, 0, 45, 69
3, 26876, Note_on_c, 0, 45, 0
3, 26880, Note_on_c, 0, 50, 73
3, 27260, Note_on_c, 0, 50, 0
3, 27264, Note_on_c, 0, 43, 73
3, 27644, Note_on_c, 0, 43, 0
3, 27648, Note_on_c, 0, 48, 72
3, 27744, Note_on_c, 0, 55, 71
3, 27836, Note_on_c, 0, 55, 0
3, 28028, Note_on_c, 0, 48, 0
3, 28032, Note_on_c, 0, 45, 73
3, 28412, Note_on_c, 0, 45, 0
3, 28416, Note_on_c, 0, 47, 72
3, 28796, Note_on_c, 0, 47, 0
3, 28800, Note_on_c, 0, 51, 79
3, 29180, Note_on_c, 0, 51, 0
3, 29184, Note_on_c, 0, 52, 86
3, 29564, Note_on_c, 0, 52, 0
3, 29568, Note_on_c, 0, 54, 55
3, 29948, Note_on_c, 0, 54, 0
3, 29952, Note_on_c, 0, 50, 68
3, 30332, Note_on_c, 0, 50, 0
3, 30336, Note_on_c, 0, 52, 54
3, 30716, Note_on_c, 0, 52, 0
3, 30720, Note_on_c, 0, 45, 68
3, 31100, Note_on_c, 0, 45, 0
3, 31104, Note_on_c, 0, 41, 78
3, 31104, Note_on_c, 0, 53, 67
3, 31228, Note_on_c, 0, 53, 0
3, 31228, Note_on_c, 0, 41, 0
3, 31488, Note_on_c, 0, 41, 102
3, 31488, Note_on_c, 0, 53, 103
3, 31612, Note_on_c, 0, 53, 0
3, 31612, Note_on_c, 0, 41, 0
3, 31872, Note_on_c, 0, 41, 114
3, 31872, Note_on_c, 0, 53, 112
3, 31996, Note_on_c, 0, 53, 0
3, 31996, Note_on_c, 0, 41, 0
3, 32256, Note_on_c, 0, 52, 122
3, 32256, Note_on_c, 0, 40, 117
3, 32380, Note_on_c, 0, 40, 0
3, 32380, Note_on_c, 0, 52, 0
3, 32640, Note_on_c, 0, 53, 74
3, 33020, Note_on_c, 0, 53, 0
3, 33024, Note_on_c, 0, 50, 74
3, 33404, Note_on_c, 0, 50, 0
3, 33408, Note_on_c, 0, 52, 48
3, 33788, Note_on_c, 0, 52, 0
3, 33792, Note_on_c, 0, 45, 77
3, 33916, Note_on_c, 0, 45, 0
3, 34176, Note_on_c, 0, 41, 75
3, 34556, Note_on_c, 0, 41, 0
3, 34560, Note_on_c, 0, 39, 67
3, 34940, Note_on_c, 0, 39, 0
3, 34944, Note_on_c, 0, 40, 61
3, 35324, Note_on_c, 0, 40, 0
3, 35328, Note_on_c, 0, 45, 53
3, 35328, Note_on_c, 0, 33, 68
3, 36092, Note_on_c, 0, 33, 0
3, 36092, Note_on_c, 0, 45, 0
3, 42240, Note_on_c, 0, 40, 60
3, 42364, Note_on_c, 0, 40, 0
3, 42624, Note_on_c, 0, 40, 55
3, 42684, Note_on_c, 0, 40, 0
3, 42816, Note_on_c, 0, 40, 50
3, 42876, Note_on_c, 0, 40, 0
3, 43008, Note_on_c, 0, 40, 69
3, 43028, Note_on_c, 0, 40, 0
3, 43032, Note_on_c, 0, 42, 66
3, 43052, Note_on_c, 0, 42, 0
3, 43056, Note_on_c, 0, 40, 75
3, 43076, Note_on_c, 0, 40, 0
3, 43080, Note_on_c, 0, 42, 73
3, 43100, Note_on_c, 0, 42, 0
3, 43104, Note_on_c, 0, 39, 79
3, 43148, Note_on_c, 0, 39, 0
3, 43152, Note_on_c, 0, 40, 57
3, 43196, Note_on_c, 0, 40, 0
3, 43200, Note_on_c, 0, 42, 82
3, 43292, Note_on_c, 0, 42, 0
3, 43296, Note_on_c, 0, 44, 88
3, 43388, Note_on_c, 0, 44, 0
3, 43392, Note_on_c, 0, 45, 103
3, 43580, Note_on_c, 0, 45, 0
3, 43584, Note_on_c, 0, 40, 77
3, 43644, Note_on_c, 0, 40, 0
3, 43776, Note_on_c, 0, 40, 77
3, 43900, Note_on_c, 0, 40, 0
3, 44160, Note_on_c, 0, 40, 76
3, 44220, Note_on_c, 0, 40, 0
3, 44352, Note_on_c, 0, 40, 71
3, 44412, Note_on_c, 0, 40, 0
3, 44544, Note_on_c, 0, 40, 75
3, 44636, Note_on_c, 0, 40, 0
3, 44640, Note_on_c, 0, 39, 82
3, 44732, Note_on_c, 0, 39, 0
3, 44736, Note_on_c, 0, 40, 81
3, 44828, Note_on_c, 0, 40, 0
3, 44832, Note_on_c, 0, 42, 91
3, 44924, Note_on_c, 0, 42, 0
3, 44928, Note_on_c, 0, 40, 83
3, 45020, Note_on_c, 0, 40, 0
3, 45024, Note_on_c, 0, 38, 71
3, 45116, Note_on_c, 0, 38, 0
3, 45120, Note_on_c, 0, 37, 72
3, 45212, Note_on_c, 0, 37, 0
3, 45216, Note_on_c, 0, 35, 65
3, 45308, Note_on_c, 0, 35, 0
3, 45312, Note_on_c, 0, 40, 60
3, 45436, Note_on_c, 0, 40, 0
3, 45696, Note_on_c, 0, 40, 55
3, 45756, Note_on_c, 0, 40, 0
3, 45888, Note_on_c, 0, 40, 50
3, 45948, Note_on_c, 0, 40, 0
3, 46080, Note_on_c, 0, 40, 69
3, 46100, Note_on_c, 0, 40, 0
3, 46104, Note_on_c, 0, 42, 66
3, 46124, Note_on_c, 0, 42, 0
3, 46128, Note_on_c, 0, 40, 75
3, 46148, Note_on_c, 0, 40, 0
3, 46152, Note_on_c, 0, 42, 73
3, 46172, Note_on_c, 0, 42, 0
3, 46176, Note_on_c, 0, 39, 79
3, 46220, Note_on_c, 0, 39, 0
3, 46224, Note_on_c, 0, 40, 57
3, 46268, Note_on_c, 0, 40, 0
3, 46272, Note_on_c, 0, 42, 82
3, 46364, Note_on_c, 0, 42, 0
3, 46368, Note_on_c, 0, 44, 88
3, 46460, Note_on_c, 0, 44, 0
3, 46464, Note_on_c, 0, 45, 103
3, 46652, Note_on_c, 0, 45, 0
3, 46656, Note_on_c, 0, 40, 77
3, 46716, Note_on_c, 0, 40, 0
3, 46848, Note_on_c, 0, 40, 77
3, 46972, Note_on_c, 0, 40, 0
3, 47232, Note_on_c, 0, 40, 76
3, 47292, Note_on_c, 0, 40, 0
3, 47424, Note_on_c, 0, 40, 71
3, 47484, Note_on_c, 0, 40, 0
3, 47616, Note_on_c, 0, 33, 72
3, 47676, Note_on_c, 0, 33, 0
3, 48288, Note_on_c, 0, 52, 70
3, 48380, Note_on_c, 0, 52, 0
3, 48672, Note_on_c, 0, 52, 63
3, 48764, Note_on_c, 0, 52, 0
3, 48864, Note_on_c, 0, 52, 57
3, 48956, Note_on_c, 0, 52, 0
3, 49056, Note_on_c, 0, 52, 55
3, 49148, Note_on_c, 0, 52, 0
3, 49440, Note_on_c, 0, 52, 59
3, 49532, Note_on_c, 0, 52, 0
3, 49632, Note_on_c, 0, 52, 55
3, 49724, Note_on_c, 0, 52, 0
3, 49824, Note_on_c, 0, 52, 51
3, 49916, Note_on_c, 0, 52, 0
3, 50016, Note_on_c, 0, 52, 52
3, 50108, Note_on_c, 0, 52, 0
3, 50208, Note_on_c, 0, 52, 67
3, 50236, Note_on_c, 0, 52, 0
3, 50400, Note_on_c, 0, 52, 47
3, 50492, Note_on_c, 0, 52, 0
3, 50592, Note_on_c, 0, 52, 64
3, 50620, Note_on_c, 0, 52, 0
3, 54144, Note_on_c, 0, 56, 69
3, 54236, Note_on_c, 0, 56, 0
3, 55296, Note_on_c, 0, 50, 73
3, 55296, Note_on_c, 0, 59, 69
3, 55580, Note_on_c, 0, 59, 0
3, 55580, Note_on_c, 0, 50, 0
3, 55584, Note_on_c, 0, 61, 79
3, 55584, Note_on_c, 0, 52, 84
3, 55612, Note_on_c, 0, 52, 0
3, 55612, Note_on_c, 0, 61, 0
3, 56064, Note_on_c, 0, 56, 72
3, 56252, Note_on_c, 0, 56, 0
3, 56448, Note_on_c, 0, 56, 67
3, 56636, Note_on_c, 0, 56, 0
3, 57600, Note_on_c, 0, 40, 63
3, 57980, Note_on_c, 0, 40, 0
3, 57984, Note_on_c, 0, 40, 63
3, 58044, Note_on_c, 0, 40, 0
3, 58176, Note_on_c, 0, 40, 68
3, 58236, Note_on_c, 0, 40, 0
3, 58368, Note_on_c, 0, 40, 69
3, 58388, Note_on_c, 0, 40, 0
3, 58392, Note_on_c, 0, 42, 66
3, 58412, Note_on_c, 0, 42, 0
3, 58416, Note_on_c, 0, 40, 75
3, 58436, Note_on_c, 0, 40, 0
3, 58440, Note_on_c, 0, 42, 73
3, 58460, Note_on_c, 0, 42, 0
3, 58464, Note_on_c, 0, 39, 79
3, 58508, Note_on_c, 0, 39, 0
3, 58512, Note_on_c, 0, 40, 57
3, 58556, Note_on_c, 0, 40, 0
3, 58560, Note_on_c, 0, 42, 79
3, 58652, Note_on_c, 0, 42, 0
3, 58656, Note_on_c, 0, 44, 91
3, 58748, Note_on_c, 0, 44, 0
3, 58752, Note_on_c, 0, 45, 107
3, 58940, Note_on_c, 0, 45, 0
3, 58944, Note_on_c, 0, 40, 73
3, 59132, Note_on_c, 0, 40, 0
3, 59136, Note_on_c, 0, 40, 75
3, 59516, Note_on_c, 0, 40, 0
3, 59520, Note_on_c, 0, 40, 79
3, 59580, Note_on_c, 0, 40, 0
3, 59712, Note_on_c, 0, 40, 67
3, 59772, Note_on_c, 0, 40, 0
3, 59904, Note_on_c, 0, 33, 80
3, 59964, Note_on_c, 0, 33, 0
3, 61824, Note_on_c, 0, 54, 101
3, 61948, Note_on_c, 0, 54, 0
3, 62400, Note_on_c, 0, 47, 59
3, 62400, Note_on_c, 0, 62, 75
3, 62400, Note_on_c, 0, 54, 59
3, 62588, Note_on_c, 0, 54, 0
3, 62588, Note_on_c, 0, 62, 0
3, 62588, Note_on_c, 0, 47, 0
3, 62592, Note_on_c, 0, 52, 63
3, 62592, Note_on_c, 0, 59, 81
3, 62592, Note_on_c, 0, 56, 65
3, 62780, Note_on_c, 0, 56, 0
3, 62780, Note_on_c, 0, 59, 0
3, 62780, Note_on_c, 0, 52, 0
3, 64128, Note_on_c, 0, 40, 64
3, 64188, Note_on_c, 0, 40, 0
3, 64512, Note_on_c, 0, 33, 57
3, 64572, Note_on_c, 0, 33, 0
3, 64572, End_track
4, 0, Start_track
4, 0, Title_t, "Ludwig van Beethoven"
4, 0, End_track
5, 0, Start_track
5, 0, Title_t, "Performed and sequenced by:  Wesley Venable"
5, 0, End_track
6, 0, Start_track
6, 0, Title_t, "Instrument:  Yamaha Clavinova CLP - 123"
6, 0, End_track
7, 0, Start_track
7, 0, Title_t, "Wesley_Venable@Prodigy.com"
7, 0, End_track
0, 0, End_of_file
