0, 0, Header, 1, 7, 384
1, 0, Start_track
1, 0, Title_t, "--------"
1, 0, Sequencer_specific, 3, 0, 0, 65
1, 0, Time_signature, 3, 2, 24, 8
1, 0, Key_signature, 0, "major"
1, 0, Tempo, 600000
1, 52608, Tempo, 1200000
1, 52800, Tempo, 600000
1, 52800, End_track
2, 0, Start_track
2, 0, Title_t, "Bagatelle (No.5 of ""Seven Bagatelles"", Opus 33)"
2, 0, Control_c, 0, 0, 0
2, 0, Control_c, 0, 7, 110
2, 0, Control_c, 0, 10, 80
2, 0, Program_c, 0, 0
2, 0, Control_c, 0, 32, 0
2, 1, Program_c, 0, 0
2, 36, Control_c, 0, 64, 127
2, 384, Note_on_c, 0, 60, 90
2, 444, Note_on_c, 0, 60, 0
2, 448, Note_on_c, 0, 64, 94
2, 508, Note_on_c, 0, 64, 0
2, 512, Note_on_c, 0, 67, 105
2, 572, Note_on_c, 0, 67, 0
2, 576, Note_on_c, 0, 72, 90
2, 636, Note_on_c, 0, 72, 0
2, 640, Note_on_c, 0, 76, 100
2, 700, Note_on_c, 0, 76, 0
2, 704, Note_on_c, 0, 79, 97
2, 764, Note_on_c, 0, 79, 0
2, 768, Note_on_c, 0, 84, 107
2, 828, Note_on_c, 0, 84, 0
2, 1124, Control_c, 0, 64, 0
2, 1152, Note_on_c, 0, 81, 107
2, 1212, Note_on_c, 0, 81, 0
2, 1536, Note_on_c, 0, 81, 107
2, 1728, Note_on_c, 0, 89, 124
2, 1980, Note_on_c, 0, 89, 0
2, 1980, Note_on_c, 0, 81, 0
2, 1984, Note_on_c, 0, 79, 75
2, 1984, Note_on_c, 0, 88, 84
2, 2044, Note_on_c, 0, 88, 0
2, 2044, Note_on_c, 0, 79, 0
2, 2048, Note_on_c, 0, 77, 77
2, 2048, Note_on_c, 0, 86, 78
2, 2108, Note_on_c, 0, 86, 0
2, 2108, Note_on_c, 0, 77, 0
2, 2112, Note_on_c, 0, 79, 76
2, 2112, Note_on_c, 0, 88, 74
2, 2172, Note_on_c, 0, 88, 0
2, 2172, Note_on_c, 0, 79, 0
2, 2176, Note_on_c, 0, 77, 79
2, 2176, Note_on_c, 0, 86, 78
2, 2236, Note_on_c, 0, 86, 0
2, 2236, Note_on_c, 0, 77, 0
2, 2240, Note_on_c, 0, 76, 81
2, 2240, Note_on_c, 0, 84, 81
2, 2300, Note_on_c, 0, 84, 0
2, 2300, Note_on_c, 0, 76, 0
2, 2304, Note_on_c, 0, 86, 73
2, 2304, Note_on_c, 0, 77, 79
2, 2304, Note_on_c, 0, 67, 71
2, 2364, Note_on_c, 0, 77, 0
2, 2364, Note_on_c, 0, 86, 0
2, 2368, Note_on_c, 0, 84, 78
2, 2368, Note_on_c, 0, 76, 80
2, 2428, Note_on_c, 0, 76, 0
2, 2428, Note_on_c, 0, 84, 0
2, 2432, Note_on_c, 0, 74, 66
2, 2432, Note_on_c, 0, 83, 72
2, 2492, Note_on_c, 0, 83, 0
2, 2492, Note_on_c, 0, 74, 0
2, 2496, Note_on_c, 0, 84, 77
2, 2496, Note_on_c, 0, 76, 40
2, 2556, Note_on_c, 0, 76, 0
2, 2556, Note_on_c, 0, 84, 0
2, 2560, Note_on_c, 0, 83, 75
2, 2560, Note_on_c, 0, 74, 61
2, 2620, Note_on_c, 0, 74, 0
2, 2620, Note_on_c, 0, 83, 0
2, 2624, Note_on_c, 0, 81, 73
2, 2624, Note_on_c, 0, 72, 40
2, 2684, Note_on_c, 0, 72, 0
2, 2684, Note_on_c, 0, 81, 0
2, 2688, Note_on_c, 0, 83, 79
2, 2688, Note_on_c, 0, 74, 70
2, 2748, Note_on_c, 0, 74, 0
2, 2748, Note_on_c, 0, 83, 0
2, 2752, Note_on_c, 0, 81, 73
2, 2752, Note_on_c, 0, 72, 64
2, 2812, Note_on_c, 0, 72, 0
2, 2812, Note_on_c, 0, 81, 0
2, 2816, Note_on_c, 0, 79, 76
2, 2816, Note_on_c, 0, 71, 57
2, 2876, Note_on_c, 0, 71, 0
2, 2876, Note_on_c, 0, 79, 0
2, 2880, Note_on_c, 0, 81, 71
2, 2880, Note_on_c, 0, 72, 64
2, 2940, Note_on_c, 0, 72, 0
2, 2940, Note_on_c, 0, 81, 0
2, 2944, Note_on_c, 0, 71, 59
2, 2944, Note_on_c, 0, 79, 85
2, 3004, Note_on_c, 0, 79, 0
2, 3004, Note_on_c, 0, 71, 0
2, 3008, Note_on_c, 0, 78, 80
2, 3008, Note_on_c, 0, 69, 50
2, 3068, Note_on_c, 0, 69, 0
2, 3068, Note_on_c, 0, 78, 0
2, 3072, Note_on_c, 0, 79, 78
2, 3072, Note_on_c, 0, 71, 72
2, 3132, Note_on_c, 0, 71, 0
2, 3132, Note_on_c, 0, 79, 0
2, 3132, Note_on_c, 0, 67, 0
2, 3136, Note_on_c, 0, 69, 58
2, 3136, Note_on_c, 0, 83, 75
2, 3196, Note_on_c, 0, 83, 0
2, 3196, Note_on_c, 0, 69, 0
2, 3200, Note_on_c, 0, 81, 67
2, 3200, Note_on_c, 0, 67, 76
2, 3260, Note_on_c, 0, 67, 0
2, 3260, Note_on_c, 0, 81, 0
2, 3264, Note_on_c, 0, 65, 75
2, 3264, Note_on_c, 0, 79, 63
2, 3324, Note_on_c, 0, 79, 0
2, 3324, Note_on_c, 0, 65, 0
2, 3328, Note_on_c, 0, 81, 75
2, 3328, Note_on_c, 0, 64, 67
2, 3388, Note_on_c, 0, 64, 0
2, 3388, Note_on_c, 0, 81, 0
2, 3392, Note_on_c, 0, 83, 64
2, 3392, Note_on_c, 0, 62, 60
2, 3452, Note_on_c, 0, 62, 0
2, 3452, Note_on_c, 0, 83, 0
2, 3456, Note_on_c, 0, 84, 74
2, 3456, Note_on_c, 0, 60, 59
2, 3492, Control_c, 0, 64, 127
2, 3516, Note_on_c, 0, 60, 0
2, 3516, Note_on_c, 0, 84, 0
2, 3648, Note_on_c, 0, 64, 69
2, 3648, Note_on_c, 0, 67, 69
2, 3648, Note_on_c, 0, 72, 57
2, 3648, Note_on_c, 0, 84, 85
2, 3692, Note_on_c, 0, 84, 0
2, 3692, Control_c, 0, 64, 0
2, 3696, Note_on_c, 0, 86, 81
2, 3708, Note_on_c, 0, 64, 0
2, 3708, Note_on_c, 0, 72, 0
2, 3708, Note_on_c, 0, 67, 0
2, 3740, Note_on_c, 0, 86, 0
2, 3744, Note_on_c, 0, 84, 89
2, 3768, Note_on_c, 0, 86, 83
2, 3788, Note_on_c, 0, 86, 0
2, 3788, Note_on_c, 0, 84, 0
2, 3792, Note_on_c, 0, 86, 82
2, 3808, Note_on_c, 0, 86, 84
2, 3816, Note_on_c, 0, 86, 79
2, 3836, Note_on_c, 0, 86, 0
2, 3836, Note_on_c, 0, 86, 0
2, 3836, Note_on_c, 0, 86, 0
2, 3840, Note_on_c, 0, 86, 109
2, 3876, Control_c, 0, 64, 127
2, 3900, Note_on_c, 0, 86, 0
2, 4032, Note_on_c, 0, 65, 67
2, 4032, Note_on_c, 0, 67, 73
2, 4032, Note_on_c, 0, 71, 64
2, 4032, Note_on_c, 0, 86, 87
2, 4076, Note_on_c, 0, 86, 0
2, 4076, Control_c, 0, 64, 0
2, 4080, Note_on_c, 0, 88, 85
2, 4092, Note_on_c, 0, 65, 0
2, 4092, Note_on_c, 0, 71, 0
2, 4092, Note_on_c, 0, 67, 0
2, 4124, Note_on_c, 0, 88, 0
2, 4128, Note_on_c, 0, 86, 88
2, 4152, Note_on_c, 0, 88, 73
2, 4172, Note_on_c, 0, 88, 0
2, 4172, Note_on_c, 0, 86, 0
2, 4176, Note_on_c, 0, 88, 89
2, 4192, Note_on_c, 0, 88, 85
2, 4200, Note_on_c, 0, 88, 79
2, 4220, Note_on_c, 0, 88, 0
2, 4220, Note_on_c, 0, 88, 0
2, 4220, Note_on_c, 0, 88, 0
2, 4224, Note_on_c, 0, 88, 79
2, 4260, Control_c, 0, 64, 127
2, 4412, Note_on_c, 0, 88, 0
2, 4416, Note_on_c, 0, 67, 39
2, 4416, Note_on_c, 0, 64, 41
2, 4416, Note_on_c, 0, 72, 43
2, 4416, Note_on_c, 0, 84, 77
2, 4444, Note_on_c, 0, 84, 0
2, 4460, Control_c, 0, 64, 0
2, 4476, Note_on_c, 0, 67, 0
2, 4476, Note_on_c, 0, 64, 0
2, 4476, Note_on_c, 0, 72, 0
2, 4608, Program_c, 0, 0
2, 4644, Control_c, 0, 64, 127
2, 4992, Note_on_c, 0, 60, 90
2, 5052, Note_on_c, 0, 60, 0
2, 5056, Note_on_c, 0, 64, 94
2, 5116, Note_on_c, 0, 64, 0
2, 5120, Note_on_c, 0, 67, 105
2, 5180, Note_on_c, 0, 67, 0
2, 5184, Note_on_c, 0, 72, 90
2, 5244, Note_on_c, 0, 72, 0
2, 5248, Note_on_c, 0, 76, 100
2, 5308, Note_on_c, 0, 76, 0
2, 5312, Note_on_c, 0, 79, 97
2, 5372, Note_on_c, 0, 79, 0
2, 5376, Note_on_c, 0, 84, 107
2, 5436, Note_on_c, 0, 84, 0
2, 5732, Control_c, 0, 64, 0
2, 5760, Note_on_c, 0, 81, 107
2, 5820, Note_on_c, 0, 81, 0
2, 6144, Note_on_c, 0, 81, 107
2, 6336, Note_on_c, 0, 89, 124
2, 6588, Note_on_c, 0, 89, 0
2, 6588, Note_on_c, 0, 81, 0
2, 6592, Note_on_c, 0, 79, 75
2, 6592, Note_on_c, 0, 88, 84
2, 6652, Note_on_c, 0, 88, 0
2, 6652, Note_on_c, 0, 79, 0
2, 6656, Note_on_c, 0, 77, 77
2, 6656, Note_on_c, 0, 86, 78
2, 6716, Note_on_c, 0, 86, 0
2, 6716, Note_on_c, 0, 77, 0
2, 6720, Note_on_c, 0, 79, 76
2, 6720, Note_on_c, 0, 88, 74
2, 6780, Note_on_c, 0, 88, 0
2, 6780, Note_on_c, 0, 79, 0
2, 6784, Note_on_c, 0, 77, 79
2, 6784, Note_on_c, 0, 86, 78
2, 6844, Note_on_c, 0, 86, 0
2, 6844, Note_on_c, 0, 77, 0
2, 6848, Note_on_c, 0, 76, 81
2, 6848, Note_on_c, 0, 84, 81
2, 6908, Note_on_c, 0, 84, 0
2, 6908, Note_on_c, 0, 76, 0
2, 6912, Note_on_c, 0, 86, 73
2, 6912, Note_on_c, 0, 77, 79
2, 6912, Note_on_c, 0, 67, 71
2, 6972, Note_on_c, 0, 77, 0
2, 6972, Note_on_c, 0, 86, 0
2, 6976, Note_on_c, 0, 84, 78
2, 6976, Note_on_c, 0, 76, 80
2, 7036, Note_on_c, 0, 76, 0
2, 7036, Note_on_c, 0, 84, 0
2, 7040, Note_on_c, 0, 74, 66
2, 7040, Note_on_c, 0, 83, 72
2, 7100, Note_on_c, 0, 83, 0
2, 7100, Note_on_c, 0, 74, 0
2, 7104, Note_on_c, 0, 84, 77
2, 7104, Note_on_c, 0, 76, 40
2, 7164, Note_on_c, 0, 76, 0
2, 7164, Note_on_c, 0, 84, 0
2, 7168, Note_on_c, 0, 83, 75
2, 7168, Note_on_c, 0, 74, 61
2, 7228, Note_on_c, 0, 74, 0
2, 7228, Note_on_c, 0, 83, 0
2, 7232, Note_on_c, 0, 81, 73
2, 7232, Note_on_c, 0, 72, 40
2, 7292, Note_on_c, 0, 72, 0
2, 7292, Note_on_c, 0, 81, 0
2, 7296, Note_on_c, 0, 83, 79
2, 7296, Note_on_c, 0, 74, 70
2, 7356, Note_on_c, 0, 74, 0
2, 7356, Note_on_c, 0, 83, 0
2, 7360, Note_on_c, 0, 81, 73
2, 7360, Note_on_c, 0, 72, 64
2, 7420, Note_on_c, 0, 72, 0
2, 7420, Note_on_c, 0, 81, 0
2, 7424, Note_on_c, 0, 79, 76
2, 7424, Note_on_c, 0, 71, 57
2, 7484, Note_on_c, 0, 71, 0
2, 7484, Note_on_c, 0, 79, 0
2, 7488, Note_on_c, 0, 81, 71
2, 7488, Note_on_c, 0, 72, 64
2, 7548, Note_on_c, 0, 72, 0
2, 7548, Note_on_c, 0, 81, 0
2, 7552, Note_on_c, 0, 71, 59
2, 7552, Note_on_c, 0, 79, 85
2, 7612, Note_on_c, 0, 79, 0
2, 7612, Note_on_c, 0, 71, 0
2, 7616, Note_on_c, 0, 78, 80
2, 7616, Note_on_c, 0, 69, 50
2, 7676, Note_on_c, 0, 69, 0
2, 7676, Note_on_c, 0, 78, 0
2, 7680, Note_on_c, 0, 79, 78
2, 7680, Note_on_c, 0, 71, 72
2, 7740, Note_on_c, 0, 71, 0
2, 7740, Note_on_c, 0, 79, 0
2, 7740, Note_on_c, 0, 67, 0
2, 7744, Note_on_c, 0, 69, 58
2, 7744, Note_on_c, 0, 83, 75
2, 7804, Note_on_c, 0, 83, 0
2, 7804, Note_on_c, 0, 69, 0
2, 7808, Note_on_c, 0, 81, 67
2, 7808, Note_on_c, 0, 67, 76
2, 7868, Note_on_c, 0, 67, 0
2, 7868, Note_on_c, 0, 81, 0
2, 7872, Note_on_c, 0, 65, 75
2, 7872, Note_on_c, 0, 79, 63
2, 7932, Note_on_c, 0, 79, 0
2, 7932, Note_on_c, 0, 65, 0
2, 7936, Note_on_c, 0, 81, 75
2, 7936, Note_on_c, 0, 64, 67
2, 7996, Note_on_c, 0, 64, 0
2, 7996, Note_on_c, 0, 81, 0
2, 8000, Note_on_c, 0, 83, 64
2, 8000, Note_on_c, 0, 62, 60
2, 8060, Note_on_c, 0, 62, 0
2, 8060, Note_on_c, 0, 83, 0
2, 8064, Note_on_c, 0, 84, 74
2, 8064, Note_on_c, 0, 60, 59
2, 8100, Control_c, 0, 64, 127
2, 8124, Note_on_c, 0, 60, 0
2, 8124, Note_on_c, 0, 84, 0
2, 8256, Note_on_c, 0, 64, 69
2, 8256, Note_on_c, 0, 67, 69
2, 8256, Note_on_c, 0, 72, 57
2, 8256, Note_on_c, 0, 84, 85
2, 8300, Note_on_c, 0, 84, 0
2, 8300, Control_c, 0, 64, 0
2, 8304, Note_on_c, 0, 86, 81
2, 8316, Note_on_c, 0, 64, 0
2, 8316, Note_on_c, 0, 72, 0
2, 8316, Note_on_c, 0, 67, 0
2, 8348, Note_on_c, 0, 86, 0
2, 8352, Note_on_c, 0, 84, 89
2, 8376, Note_on_c, 0, 86, 83
2, 8396, Note_on_c, 0, 86, 0
2, 8396, Note_on_c, 0, 84, 0
2, 8400, Note_on_c, 0, 86, 82
2, 8416, Note_on_c, 0, 86, 84
2, 8424, Note_on_c, 0, 86, 79
2, 8444, Note_on_c, 0, 86, 0
2, 8444, Note_on_c, 0, 86, 0
2, 8444, Note_on_c, 0, 86, 0
2, 8448, Note_on_c, 0, 86, 109
2, 8484, Control_c, 0, 64, 127
2, 8508, Note_on_c, 0, 86, 0
2, 8640, Note_on_c, 0, 65, 67
2, 8640, Note_on_c, 0, 67, 73
2, 8640, Note_on_c, 0, 71, 64
2, 8640, Note_on_c, 0, 86, 87
2, 8684, Note_on_c, 0, 86, 0
2, 8684, Control_c, 0, 64, 0
2, 8688, Note_on_c, 0, 88, 85
2, 8700, Note_on_c, 0, 65, 0
2, 8700, Note_on_c, 0, 71, 0
2, 8700, Note_on_c, 0, 67, 0
2, 8732, Note_on_c, 0, 88, 0
2, 8736, Note_on_c, 0, 86, 88
2, 8760, Note_on_c, 0, 88, 73
2, 8780, Note_on_c, 0, 88, 0
2, 8780, Note_on_c, 0, 86, 0
2, 8784, Note_on_c, 0, 88, 89
2, 8800, Note_on_c, 0, 88, 85
2, 8808, Note_on_c, 0, 88, 79
2, 8828, Note_on_c, 0, 88, 0
2, 8828, Note_on_c, 0, 88, 0
2, 8828, Note_on_c, 0, 88, 0
2, 8832, Note_on_c, 0, 88, 79
2, 8868, Control_c, 0, 64, 127
2, 9020, Note_on_c, 0, 88, 0
2, 9024, Note_on_c, 0, 67, 39
2, 9024, Note_on_c, 0, 64, 41
2, 9024, Note_on_c, 0, 72, 43
2, 9068, Control_c, 0, 64, 0
2, 9084, Note_on_c, 0, 72, 0
2, 9084, Note_on_c, 0, 64, 0
2, 9084, Note_on_c, 0, 67, 0
2, 9216, Program_c, 0, 0
2, 9252, Control_c, 0, 64, 127
2, 9600, Note_on_c, 0, 60, 90
2, 9660, Note_on_c, 0, 60, 0
2, 9664, Note_on_c, 0, 64, 94
2, 9724, Note_on_c, 0, 64, 0
2, 9728, Note_on_c, 0, 67, 105
2, 9788, Note_on_c, 0, 67, 0
2, 9792, Note_on_c, 0, 72, 90
2, 9852, Note_on_c, 0, 72, 0
2, 9856, Note_on_c, 0, 76, 100
2, 9916, Note_on_c, 0, 76, 0
2, 9920, Note_on_c, 0, 79, 97
2, 9980, Note_on_c, 0, 79, 0
2, 9984, Note_on_c, 0, 84, 107
2, 10044, Note_on_c, 0, 84, 0
2, 10340, Control_c, 0, 64, 0
2, 10368, Note_on_c, 0, 81, 107
2, 10428, Note_on_c, 0, 81, 0
2, 10752, Note_on_c, 0, 81, 107
2, 10944, Note_on_c, 0, 89, 124
2, 11196, Note_on_c, 0, 89, 0
2, 11196, Note_on_c, 0, 81, 0
2, 11200, Note_on_c, 0, 79, 75
2, 11200, Note_on_c, 0, 88, 84
2, 11260, Note_on_c, 0, 88, 0
2, 11260, Note_on_c, 0, 79, 0
2, 11264, Note_on_c, 0, 77, 77
2, 11264, Note_on_c, 0, 86, 78
2, 11324, Note_on_c, 0, 86, 0
2, 11324, Note_on_c, 0, 77, 0
2, 11328, Note_on_c, 0, 79, 76
2, 11328, Note_on_c, 0, 88, 74
2, 11388, Note_on_c, 0, 88, 0
2, 11388, Note_on_c, 0, 79, 0
2, 11392, Note_on_c, 0, 77, 79
2, 11392, Note_on_c, 0, 86, 78
2, 11452, Note_on_c, 0, 86, 0
2, 11452, Note_on_c, 0, 77, 0
2, 11456, Note_on_c, 0, 76, 81
2, 11456, Note_on_c, 0, 84, 81
2, 11516, Note_on_c, 0, 84, 0
2, 11516, Note_on_c, 0, 76, 0
2, 11520, Note_on_c, 0, 86, 73
2, 11520, Note_on_c, 0, 77, 79
2, 11520, Note_on_c, 0, 67, 71
2, 11580, Note_on_c, 0, 77, 0
2, 11580, Note_on_c, 0, 86, 0
2, 11584, Note_on_c, 0, 84, 78
2, 11584, Note_on_c, 0, 76, 80
2, 11644, Note_on_c, 0, 76, 0
2, 11644, Note_on_c, 0, 84, 0
2, 11648, Note_on_c, 0, 74, 66
2, 11648, Note_on_c, 0, 83, 72
2, 11708, Note_on_c, 0, 83, 0
2, 11708, Note_on_c, 0, 74, 0
2, 11712, Note_on_c, 0, 84, 77
2, 11712, Note_on_c, 0, 76, 40
2, 11772, Note_on_c, 0, 76, 0
2, 11772, Note_on_c, 0, 84, 0
2, 11776, Note_on_c, 0, 83, 75
2, 11776, Note_on_c, 0, 74, 61
2, 11836, Note_on_c, 0, 74, 0
2, 11836, Note_on_c, 0, 83, 0
2, 11840, Note_on_c, 0, 81, 73
2, 11840, Note_on_c, 0, 72, 40
2, 11900, Note_on_c, 0, 72, 0
2, 11900, Note_on_c, 0, 81, 0
2, 11904, Note_on_c, 0, 83, 79
2, 11904, Note_on_c, 0, 74, 70
2, 11964, Note_on_c, 0, 74, 0
2, 11964, Note_on_c, 0, 83, 0
2, 11968, Note_on_c, 0, 81, 73
2, 11968, Note_on_c, 0, 72, 64
2, 12028, Note_on_c, 0, 72, 0
2, 12028, Note_on_c, 0, 81, 0
2, 12032, Note_on_c, 0, 79, 76
2, 12032, Note_on_c, 0, 71, 57
2, 12092, Note_on_c, 0, 71, 0
2, 12092, Note_on_c, 0, 79, 0
2, 12096, Note_on_c, 0, 81, 71
2, 12096, Note_on_c, 0, 72, 64
2, 12156, Note_on_c, 0, 72, 0
2, 12156, Note_on_c, 0, 81, 0
2, 12160, Note_on_c, 0, 71, 59
2, 12160, Note_on_c, 0, 79, 85
2, 12220, Note_on_c, 0, 79, 0
2, 12220, Note_on_c, 0, 71, 0
2, 12224, Note_on_c, 0, 78, 80
2, 12224, Note_on_c, 0, 69, 50
2, 12284, Note_on_c, 0, 69, 0
2, 12284, Note_on_c, 0, 78, 0
2, 12288, Note_on_c, 0, 79, 78
2, 12288, Note_on_c, 0, 71, 72
2, 12348, Note_on_c, 0, 71, 0
2, 12348, Note_on_c, 0, 79, 0
2, 12348, Note_on_c, 0, 67, 0
2, 12352, Note_on_c, 0, 69, 58
2, 12352, Note_on_c, 0, 83, 75
2, 12412, Note_on_c, 0, 83, 0
2, 12412, Note_on_c, 0, 69, 0
2, 12416, Note_on_c, 0, 81, 67
2, 12416, Note_on_c, 0, 67, 76
2, 12476, Note_on_c, 0, 67, 0
2, 12476, Note_on_c, 0, 81, 0
2, 12480, Note_on_c, 0, 65, 75
2, 12480, Note_on_c, 0, 79, 63
2, 12540, Note_on_c, 0, 79, 0
2, 12540, Note_on_c, 0, 65, 0
2, 12544, Note_on_c, 0, 81, 75
2, 12544, Note_on_c, 0, 64, 67
2, 12604, Note_on_c, 0, 64, 0
2, 12604, Note_on_c, 0, 81, 0
2, 12608, Note_on_c, 0, 83, 64
2, 12608, Note_on_c, 0, 62, 60
2, 12668, Note_on_c, 0, 62, 0
2, 12668, Note_on_c, 0, 83, 0
2, 12672, Note_on_c, 0, 84, 74
2, 12672, Note_on_c, 0, 60, 59
2, 12708, Control_c, 0, 64, 127
2, 12732, Note_on_c, 0, 60, 0
2, 12732, Note_on_c, 0, 84, 0
2, 12864, Note_on_c, 0, 64, 69
2, 12864, Note_on_c, 0, 67, 69
2, 12864, Note_on_c, 0, 72, 57
2, 12864, Note_on_c, 0, 84, 85
2, 12908, Note_on_c, 0, 84, 0
2, 12908, Control_c, 0, 64, 0
2, 12912, Note_on_c, 0, 86, 81
2, 12924, Note_on_c, 0, 64, 0
2, 12924, Note_on_c, 0, 72, 0
2, 12924, Note_on_c, 0, 67, 0
2, 12956, Note_on_c, 0, 86, 0
2, 12960, Note_on_c, 0, 84, 89
2, 12984, Note_on_c, 0, 86, 83
2, 13004, Note_on_c, 0, 86, 0
2, 13004, Note_on_c, 0, 84, 0
2, 13008, Note_on_c, 0, 86, 82
2, 13024, Note_on_c, 0, 86, 84
2, 13032, Note_on_c, 0, 86, 79
2, 13052, Note_on_c, 0, 86, 0
2, 13052, Note_on_c, 0, 86, 0
2, 13052, Note_on_c, 0, 86, 0
2, 13056, Note_on_c, 0, 86, 109
2, 13092, Control_c, 0, 64, 127
2, 13116, Note_on_c, 0, 86, 0
2, 13248, Note_on_c, 0, 65, 67
2, 13248, Note_on_c, 0, 67, 73
2, 13248, Note_on_c, 0, 71, 64
2, 13248, Note_on_c, 0, 86, 87
2, 13292, Note_on_c, 0, 86, 0
2, 13292, Control_c, 0, 64, 0
2, 13296, Note_on_c, 0, 88, 85
2, 13308, Note_on_c, 0, 65, 0
2, 13308, Note_on_c, 0, 71, 0
2, 13308, Note_on_c, 0, 67, 0
2, 13340, Note_on_c, 0, 88, 0
2, 13344, Note_on_c, 0, 86, 88
2, 13368, Note_on_c, 0, 88, 73
2, 13388, Note_on_c, 0, 88, 0
2, 13388, Note_on_c, 0, 86, 0
2, 13392, Note_on_c, 0, 88, 89
2, 13408, Note_on_c, 0, 88, 85
2, 13416, Note_on_c, 0, 88, 79
2, 13436, Note_on_c, 0, 88, 0
2, 13436, Note_on_c, 0, 88, 0
2, 13436, Note_on_c, 0, 88, 0
2, 13440, Note_on_c, 0, 88, 79
2, 13476, Control_c, 0, 64, 127
2, 13628, Note_on_c, 0, 88, 0
2, 13632, Note_on_c, 0, 67, 39
2, 13632, Note_on_c, 0, 64, 41
2, 13632, Note_on_c, 0, 72, 43
2, 13632, Note_on_c, 0, 84, 77
2, 13660, Note_on_c, 0, 84, 0
2, 13676, Control_c, 0, 64, 0
2, 13692, Note_on_c, 0, 67, 0
2, 13692, Note_on_c, 0, 64, 0
2, 13692, Note_on_c, 0, 72, 0
2, 13824, Program_c, 0, 0
2, 13860, Control_c, 0, 64, 127
2, 14208, Note_on_c, 0, 60, 90
2, 14268, Note_on_c, 0, 60, 0
2, 14272, Note_on_c, 0, 64, 94
2, 14332, Note_on_c, 0, 64, 0
2, 14336, Note_on_c, 0, 67, 105
2, 14396, Note_on_c, 0, 67, 0
2, 14400, Note_on_c, 0, 72, 90
2, 14460, Note_on_c, 0, 72, 0
2, 14464, Note_on_c, 0, 76, 100
2, 14524, Note_on_c, 0, 76, 0
2, 14528, Note_on_c, 0, 79, 97
2, 14588, Note_on_c, 0, 79, 0
2, 14592, Note_on_c, 0, 84, 107
2, 14652, Note_on_c, 0, 84, 0
2, 14948, Control_c, 0, 64, 0
2, 14976, Note_on_c, 0, 81, 107
2, 15036, Note_on_c, 0, 81, 0
2, 15360, Note_on_c, 0, 81, 107
2, 15552, Note_on_c, 0, 89, 124
2, 15804, Note_on_c, 0, 89, 0
2, 15804, Note_on_c, 0, 81, 0
2, 15808, Note_on_c, 0, 79, 75
2, 15808, Note_on_c, 0, 88, 84
2, 15868, Note_on_c, 0, 88, 0
2, 15868, Note_on_c, 0, 79, 0
2, 15872, Note_on_c, 0, 77, 77
2, 15872, Note_on_c, 0, 86, 78
2, 15932, Note_on_c, 0, 86, 0
2, 15932, Note_on_c, 0, 77, 0
2, 15936, Note_on_c, 0, 79, 76
2, 15936, Note_on_c, 0, 88, 74
2, 15996, Note_on_c, 0, 88, 0
2, 15996, Note_on_c, 0, 79, 0
2, 16000, Note_on_c, 0, 77, 79
2, 16000, Note_on_c, 0, 86, 78
2, 16060, Note_on_c, 0, 86, 0
2, 16060, Note_on_c, 0, 77, 0
2, 16064, Note_on_c, 0, 76, 81
2, 16064, Note_on_c, 0, 84, 81
2, 16124, Note_on_c, 0, 84, 0
2, 16124, Note_on_c, 0, 76, 0
2, 16128, Note_on_c, 0, 86, 73
2, 16128, Note_on_c, 0, 77, 79
2, 16128, Note_on_c, 0, 67, 71
2, 16188, Note_on_c, 0, 77, 0
2, 16188, Note_on_c, 0, 86, 0
2, 16192, Note_on_c, 0, 84, 78
2, 16192, Note_on_c, 0, 76, 80
2, 16252, Note_on_c, 0, 76, 0
2, 16252, Note_on_c, 0, 84, 0
2, 16256, Note_on_c, 0, 74, 66
2, 16256, Note_on_c, 0, 83, 72
2, 16316, Note_on_c, 0, 83, 0
2, 16316, Note_on_c, 0, 74, 0
2, 16320, Note_on_c, 0, 84, 77
2, 16320, Note_on_c, 0, 76, 40
2, 16380, Note_on_c, 0, 76, 0
2, 16380, Note_on_c, 0, 84, 0
2, 16384, Note_on_c, 0, 83, 75
2, 16384, Note_on_c, 0, 74, 61
2, 16444, Note_on_c, 0, 74, 0
2, 16444, Note_on_c, 0, 83, 0
2, 16448, Note_on_c, 0, 81, 73
2, 16448, Note_on_c, 0, 72, 40
2, 16508, Note_on_c, 0, 72, 0
2, 16508, Note_on_c, 0, 81, 0
2, 16512, Note_on_c, 0, 83, 79
2, 16512, Note_on_c, 0, 74, 70
2, 16572, Note_on_c, 0, 74, 0
2, 16572, Note_on_c, 0, 83, 0
2, 16576, Note_on_c, 0, 81, 73
2, 16576, Note_on_c, 0, 72, 64
2, 16636, Note_on_c, 0, 72, 0
2, 16636, Note_on_c, 0, 81, 0
2, 16640, Note_on_c, 0, 79, 76
2, 16640, Note_on_c, 0, 71, 57
2, 16700, Note_on_c, 0, 71, 0
2, 16700, Note_on_c, 0, 79, 0
2, 16704, Note_on_c, 0, 81, 71
2, 16704, Note_on_c, 0, 72, 64
2, 16764, Note_on_c, 0, 72, 0
2, 16764, Note_on_c, 0, 81, 0
2, 16768, Note_on_c, 0, 71, 59
2, 16768, Note_on_c, 0, 79, 85
2, 16828, Note_on_c, 0, 79, 0
2, 16828, Note_on_c, 0, 71, 0
2, 16832, Note_on_c, 0, 78, 80
2, 16832, Note_on_c, 0, 69, 50
2, 16892, Note_on_c, 0, 69, 0
2, 16892, Note_on_c, 0, 78, 0
2, 16896, Note_on_c, 0, 79, 78
2, 16896, Note_on_c, 0, 71, 72
2, 16956, Note_on_c, 0, 71, 0
2, 16956, Note_on_c, 0, 79, 0
2, 16956, Note_on_c, 0, 67, 0
2, 16960, Note_on_c, 0, 69, 58
2, 16960, Note_on_c, 0, 83, 75
2, 17020, Note_on_c, 0, 83, 0
2, 17020, Note_on_c, 0, 69, 0
2, 17024, Note_on_c, 0, 81, 67
2, 17024, Note_on_c, 0, 67, 76
2, 17084, Note_on_c, 0, 67, 0
2, 17084, Note_on_c, 0, 81, 0
2, 17088, Note_on_c, 0, 65, 75
2, 17088, Note_on_c, 0, 79, 63
2, 17148, Note_on_c, 0, 79, 0
2, 17148, Note_on_c, 0, 65, 0
2, 17152, Note_on_c, 0, 81, 75
2, 17152, Note_on_c, 0, 64, 67
2, 17212, Note_on_c, 0, 64, 0
2, 17212, Note_on_c, 0, 81, 0
2, 17216, Note_on_c, 0, 83, 64
2, 17216, Note_on_c, 0, 62, 60
2, 17276, Note_on_c, 0, 62, 0
2, 17276, Note_on_c, 0, 83, 0
2, 17280, Note_on_c, 0, 84, 74
2, 17280, Note_on_c, 0, 60, 59
2, 17316, Control_c, 0, 64, 127
2, 17340, Note_on_c, 0, 60, 0
2, 17340, Note_on_c, 0, 84, 0
2, 17472, Note_on_c, 0, 64, 69
2, 17472, Note_on_c, 0, 67, 69
2, 17472, Note_on_c, 0, 72, 57
2, 17472, Note_on_c, 0, 84, 85
2, 17516, Note_on_c, 0, 84, 0
2, 17516, Control_c, 0, 64, 0
2, 17520, Note_on_c, 0, 86, 81
2, 17532, Note_on_c, 0, 64, 0
2, 17532, Note_on_c, 0, 72, 0
2, 17532, Note_on_c, 0, 67, 0
2, 17564, Note_on_c, 0, 86, 0
2, 17568, Note_on_c, 0, 84, 89
2, 17592, Note_on_c, 0, 86, 83
2, 17612, Note_on_c, 0, 86, 0
2, 17612, Note_on_c, 0, 84, 0
2, 17616, Note_on_c, 0, 86, 82
2, 17632, Note_on_c, 0, 86, 84
2, 17640, Note_on_c, 0, 86, 79
2, 17660, Note_on_c, 0, 86, 0
2, 17660, Note_on_c, 0, 86, 0
2, 17660, Note_on_c, 0, 86, 0
2, 17664, Note_on_c, 0, 86, 109
2, 17700, Control_c, 0, 64, 127
2, 17724, Note_on_c, 0, 86, 0
2, 17856, Note_on_c, 0, 65, 67
2, 17856, Note_on_c, 0, 67, 73
2, 17856, Note_on_c, 0, 71, 64
2, 17856, Note_on_c, 0, 86, 87
2, 17900, Note_on_c, 0, 86, 0
2, 17900, Control_c, 0, 64, 0
2, 17904, Note_on_c, 0, 88, 85
2, 17916, Note_on_c, 0, 65, 0
2, 17916, Note_on_c, 0, 71, 0
2, 17916, Note_on_c, 0, 67, 0
2, 17948, Note_on_c, 0, 88, 0
2, 17952, Note_on_c, 0, 86, 88
2, 17976, Note_on_c, 0, 88, 73
2, 17996, Note_on_c, 0, 88, 0
2, 17996, Note_on_c, 0, 86, 0
2, 18000, Note_on_c, 0, 88, 89
2, 18016, Note_on_c, 0, 88, 85
2, 18024, Note_on_c, 0, 88, 79
2, 18044, Note_on_c, 0, 88, 0
2, 18044, Note_on_c, 0, 88, 0
2, 18044, Note_on_c, 0, 88, 0
2, 18048, Note_on_c, 0, 88, 79
2, 18084, Control_c, 0, 64, 127
2, 18236, Note_on_c, 0, 88, 0
2, 18240, Note_on_c, 0, 67, 39
2, 18240, Note_on_c, 0, 64, 41
2, 18240, Note_on_c, 0, 72, 43
2, 18284, Control_c, 0, 64, 0
2, 18300, Note_on_c, 0, 72, 0
2, 18300, Note_on_c, 0, 64, 0
2, 18300, Note_on_c, 0, 67, 0
2, 18432, Note_on_c, 0, 65, 77
2, 18432, Note_on_c, 0, 71, 81
2, 18492, Note_on_c, 0, 71, 0
2, 18492, Note_on_c, 0, 65, 0
2, 18496, Note_on_c, 0, 64, 51
2, 18496, Note_on_c, 0, 72, 51
2, 18556, Note_on_c, 0, 72, 0
2, 18556, Note_on_c, 0, 64, 0
2, 18560, Note_on_c, 0, 74, 72
2, 18560, Note_on_c, 0, 62, 40
2, 18620, Note_on_c, 0, 62, 0
2, 18620, Note_on_c, 0, 74, 0
2, 18624, Note_on_c, 0, 71, 59
2, 18624, Note_on_c, 0, 65, 60
2, 18624, Note_on_c, 0, 79, 114
2, 18684, Note_on_c, 0, 65, 0
2, 18684, Note_on_c, 0, 71, 0
2, 18688, Note_on_c, 0, 64, 48
2, 18688, Note_on_c, 0, 72, 61
2, 18748, Note_on_c, 0, 72, 0
2, 18748, Note_on_c, 0, 64, 0
2, 18752, Note_on_c, 0, 74, 68
2, 18752, Note_on_c, 0, 62, 41
2, 18812, Note_on_c, 0, 62, 0
2, 18812, Note_on_c, 0, 74, 0
2, 18816, Note_on_c, 0, 71, 68
2, 18816, Note_on_c, 0, 65, 64
2, 18876, Note_on_c, 0, 65, 0
2, 18876, Note_on_c, 0, 71, 0
2, 18880, Note_on_c, 0, 64, 64
2, 18880, Note_on_c, 0, 72, 61
2, 18940, Note_on_c, 0, 72, 0
2, 18940, Note_on_c, 0, 64, 0
2, 18944, Note_on_c, 0, 74, 71
2, 18944, Note_on_c, 0, 62, 55
2, 19004, Note_on_c, 0, 62, 0
2, 19004, Note_on_c, 0, 74, 0
2, 19004, Note_on_c, 0, 79, 0
2, 19008, Note_on_c, 0, 71, 65
2, 19008, Note_on_c, 0, 65, 64
2, 19008, Note_on_c, 0, 79, 84
2, 19068, Note_on_c, 0, 79, 0
2, 19068, Note_on_c, 0, 65, 0
2, 19068, Note_on_c, 0, 71, 0
2, 19072, Note_on_c, 0, 72, 58
2, 19072, Note_on_c, 0, 64, 53
2, 19132, Note_on_c, 0, 64, 0
2, 19132, Note_on_c, 0, 72, 0
2, 19136, Note_on_c, 0, 74, 68
2, 19136, Note_on_c, 0, 62, 52
2, 19196, Note_on_c, 0, 62, 0
2, 19196, Note_on_c, 0, 74, 0
2, 19200, Note_on_c, 0, 64, 66
2, 19200, Note_on_c, 0, 72, 59
2, 19200, Note_on_c, 0, 79, 76
2, 19260, Note_on_c, 0, 79, 0
2, 19260, Note_on_c, 0, 72, 0
2, 19260, Note_on_c, 0, 64, 0
2, 19264, Note_on_c, 0, 74, 62
2, 19264, Note_on_c, 0, 62, 54
2, 19324, Note_on_c, 0, 62, 0
2, 19324, Note_on_c, 0, 74, 0
2, 19328, Note_on_c, 0, 76, 75
2, 19328, Note_on_c, 0, 60, 59
2, 19388, Note_on_c, 0, 60, 0
2, 19388, Note_on_c, 0, 76, 0
2, 19392, Note_on_c, 0, 64, 59
2, 19392, Note_on_c, 0, 72, 57
2, 19392, Note_on_c, 0, 79, 72
2, 19452, Note_on_c, 0, 79, 0
2, 19452, Note_on_c, 0, 72, 0
2, 19452, Note_on_c, 0, 64, 0
2, 19456, Note_on_c, 0, 74, 59
2, 19456, Note_on_c, 0, 62, 58
2, 19516, Note_on_c, 0, 62, 0
2, 19516, Note_on_c, 0, 74, 0
2, 19520, Note_on_c, 0, 76, 71
2, 19520, Note_on_c, 0, 60, 63
2, 19580, Note_on_c, 0, 60, 0
2, 19580, Note_on_c, 0, 76, 0
2, 19584, Note_on_c, 0, 77, 78
2, 19584, Note_on_c, 0, 59, 67
2, 19644, Note_on_c, 0, 59, 0
2, 19644, Note_on_c, 0, 77, 0
2, 19648, Note_on_c, 0, 76, 48
2, 19648, Note_on_c, 0, 60, 57
2, 19708, Note_on_c, 0, 60, 0
2, 19708, Note_on_c, 0, 76, 0
2, 19712, Note_on_c, 0, 74, 72
2, 19712, Note_on_c, 0, 62, 54
2, 19772, Note_on_c, 0, 62, 0
2, 19772, Note_on_c, 0, 74, 0
2, 19776, Note_on_c, 0, 77, 71
2, 19776, Note_on_c, 0, 59, 61
2, 19776, Note_on_c, 0, 79, 109
2, 19836, Note_on_c, 0, 59, 0
2, 19836, Note_on_c, 0, 77, 0
2, 19840, Note_on_c, 0, 76, 74
2, 19840, Note_on_c, 0, 60, 49
2, 19900, Note_on_c, 0, 60, 0
2, 19900, Note_on_c, 0, 76, 0
2, 19904, Note_on_c, 0, 62, 63
2, 19904, Note_on_c, 0, 74, 62
2, 19964, Note_on_c, 0, 74, 0
2, 19964, Note_on_c, 0, 62, 0
2, 19968, Note_on_c, 0, 77, 75
2, 19968, Note_on_c, 0, 59, 53
2, 20028, Note_on_c, 0, 59, 0
2, 20028, Note_on_c, 0, 77, 0
2, 20032, Note_on_c, 0, 76, 70
2, 20032, Note_on_c, 0, 60, 46
2, 20092, Note_on_c, 0, 60, 0
2, 20092, Note_on_c, 0, 76, 0
2, 20096, Note_on_c, 0, 74, 66
2, 20096, Note_on_c, 0, 62, 47
2, 20156, Note_on_c, 0, 62, 0
2, 20156, Note_on_c, 0, 74, 0
2, 20156, Note_on_c, 0, 79, 0
2, 20160, Note_on_c, 0, 77, 75
2, 20160, Note_on_c, 0, 59, 67
2, 20160, Note_on_c, 0, 79, 83
2, 20220, Note_on_c, 0, 79, 0
2, 20220, Note_on_c, 0, 59, 0
2, 20220, Note_on_c, 0, 77, 0
2, 20224, Note_on_c, 0, 76, 70
2, 20224, Note_on_c, 0, 60, 59
2, 20284, Note_on_c, 0, 60, 0
2, 20284, Note_on_c, 0, 76, 0
2, 20288, Note_on_c, 0, 62, 52
2, 20288, Note_on_c, 0, 74, 71
2, 20348, Note_on_c, 0, 74, 0
2, 20348, Note_on_c, 0, 62, 0
2, 20352, Note_on_c, 0, 76, 76
2, 20352, Note_on_c, 0, 60, 58
2, 20352, Note_on_c, 0, 79, 79
2, 20412, Note_on_c, 0, 79, 0
2, 20412, Note_on_c, 0, 60, 0
2, 20412, Note_on_c, 0, 76, 0
2, 20416, Note_on_c, 0, 74, 68
2, 20416, Note_on_c, 0, 62, 49
2, 20476, Note_on_c, 0, 62, 0
2, 20476, Note_on_c, 0, 74, 0
2, 20480, Note_on_c, 0, 64, 53
2, 20480, Note_on_c, 0, 72, 58
2, 20540, Note_on_c, 0, 72, 0
2, 20540, Note_on_c, 0, 64, 0
2, 20544, Note_on_c, 0, 76, 77
2, 20544, Note_on_c, 0, 60, 63
2, 20544, Note_on_c, 0, 79, 80
2, 20604, Note_on_c, 0, 79, 0
2, 20604, Note_on_c, 0, 60, 0
2, 20604, Note_on_c, 0, 76, 0
2, 20608, Note_on_c, 0, 74, 60
2, 20608, Note_on_c, 0, 62, 55
2, 20668, Note_on_c, 0, 62, 0
2, 20668, Note_on_c, 0, 74, 0
2, 20672, Note_on_c, 0, 64, 53
2, 20672, Note_on_c, 0, 72, 68
2, 20732, Note_on_c, 0, 72, 0
2, 20732, Note_on_c, 0, 64, 0
2, 20736, Note_on_c, 0, 71, 82
2, 20736, Note_on_c, 0, 65, 75
2, 20796, Note_on_c, 0, 65, 0
2, 20796, Note_on_c, 0, 71, 0
2, 20800, Note_on_c, 0, 72, 56
2, 20800, Note_on_c, 0, 64, 60
2, 20860, Note_on_c, 0, 64, 0
2, 20860, Note_on_c, 0, 72, 0
2, 20864, Note_on_c, 0, 74, 45
2, 20864, Note_on_c, 0, 62, 45
2, 20924, Note_on_c, 0, 62, 0
2, 20924, Note_on_c, 0, 74, 0
2, 20928, Note_on_c, 0, 65, 71
2, 20928, Note_on_c, 0, 71, 63
2, 20928, Note_on_c, 0, 79, 104
2, 20988, Note_on_c, 0, 71, 0
2, 20988, Note_on_c, 0, 65, 0
2, 20992, Note_on_c, 0, 72, 60
2, 20992, Note_on_c, 0, 64, 65
2, 21052, Note_on_c, 0, 64, 0
2, 21052, Note_on_c, 0, 72, 0
2, 21056, Note_on_c, 0, 74, 45
2, 21056, Note_on_c, 0, 62, 58
2, 21116, Note_on_c, 0, 62, 0
2, 21116, Note_on_c, 0, 74, 0
2, 21120, Note_on_c, 0, 65, 57
2, 21120, Note_on_c, 0, 71, 60
2, 21180, Note_on_c, 0, 71, 0
2, 21180, Note_on_c, 0, 65, 0
2, 21184, Note_on_c, 0, 72, 58
2, 21184, Note_on_c, 0, 64, 55
2, 21244, Note_on_c, 0, 64, 0
2, 21244, Note_on_c, 0, 72, 0
2, 21248, Note_on_c, 0, 74, 65
2, 21248, Note_on_c, 0, 62, 57
2, 21308, Note_on_c, 0, 62, 0
2, 21308, Note_on_c, 0, 74, 0
2, 21308, Note_on_c, 0, 79, 0
2, 21312, Note_on_c, 0, 71, 53
2, 21312, Note_on_c, 0, 65, 58
2, 21312, Note_on_c, 0, 79, 79
2, 21372, Note_on_c, 0, 79, 0
2, 21372, Note_on_c, 0, 65, 0
2, 21372, Note_on_c, 0, 71, 0
2, 21376, Note_on_c, 0, 64, 48
2, 21376, Note_on_c, 0, 72, 59
2, 21436, Note_on_c, 0, 72, 0
2, 21436, Note_on_c, 0, 64, 0
2, 21440, Note_on_c, 0, 62, 55
2, 21440, Note_on_c, 0, 74, 69
2, 21500, Note_on_c, 0, 74, 0
2, 21500, Note_on_c, 0, 62, 0
2, 21504, Note_on_c, 0, 64, 57
2, 21504, Note_on_c, 0, 72, 62
2, 21504, Note_on_c, 0, 79, 82
2, 21564, Note_on_c, 0, 79, 0
2, 21564, Note_on_c, 0, 72, 0
2, 21564, Note_on_c, 0, 64, 0
2, 21568, Note_on_c, 0, 74, 69
2, 21568, Note_on_c, 0, 62, 56
2, 21628, Note_on_c, 0, 62, 0
2, 21628, Note_on_c, 0, 74, 0
2, 21632, Note_on_c, 0, 76, 75
2, 21632, Note_on_c, 0, 60, 54
2, 21692, Note_on_c, 0, 60, 0
2, 21692, Note_on_c, 0, 76, 0
2, 21696, Note_on_c, 0, 64, 59
2, 21696, Note_on_c, 0, 72, 59
2, 21696, Note_on_c, 0, 79, 80
2, 21756, Note_on_c, 0, 79, 0
2, 21756, Note_on_c, 0, 72, 0
2, 21756, Note_on_c, 0, 64, 0
2, 21760, Note_on_c, 0, 74, 61
2, 21760, Note_on_c, 0, 62, 55
2, 21820, Note_on_c, 0, 62, 0
2, 21820, Note_on_c, 0, 74, 0
2, 21824, Note_on_c, 0, 60, 61
2, 21824, Note_on_c, 0, 76, 71
2, 21884, Note_on_c, 0, 76, 0
2, 21884, Note_on_c, 0, 60, 0
2, 21888, Note_on_c, 0, 71, 61
2, 21888, Note_on_c, 0, 62, 49
2, 21948, Note_on_c, 0, 62, 0
2, 21948, Note_on_c, 0, 71, 0
2, 21952, Note_on_c, 0, 72, 59
2, 21952, Note_on_c, 0, 60, 60
2, 22012, Note_on_c, 0, 60, 0
2, 22012, Note_on_c, 0, 72, 0
2, 22016, Note_on_c, 0, 59, 60
2, 22016, Note_on_c, 0, 74, 73
2, 22076, Note_on_c, 0, 74, 0
2, 22076, Note_on_c, 0, 59, 0
2, 22080, Note_on_c, 0, 69, 68
2, 22080, Note_on_c, 0, 60, 66
2, 22080, Note_on_c, 0, 78, 68
2, 22080, Note_on_c, 0, 50, 63
2, 22140, Note_on_c, 0, 50, 0
2, 22140, Note_on_c, 0, 69, 0
2, 22140, Note_on_c, 0, 60, 0
2, 22140, Note_on_c, 0, 78, 0
2, 22144, Note_on_c, 0, 71, 77
2, 22144, Note_on_c, 0, 59, 70
2, 22204, Note_on_c, 0, 59, 0
2, 22204, Note_on_c, 0, 71, 0
2, 22208, Note_on_c, 0, 72, 87
2, 22208, Note_on_c, 0, 57, 78
2, 22268, Note_on_c, 0, 57, 0
2, 22268, Note_on_c, 0, 72, 0
2, 22272, Note_on_c, 0, 71, 83
2, 22272, Note_on_c, 0, 62, 73
2, 22272, Note_on_c, 0, 55, 87
2, 22272, Note_on_c, 0, 79, 85
2, 22332, Note_on_c, 0, 79, 0
2, 22332, Note_on_c, 0, 71, 0
2, 22332, Note_on_c, 0, 62, 0
2, 22332, Note_on_c, 0, 55, 0
2, 22336, Note_on_c, 0, 72, 87
2, 22336, Note_on_c, 0, 60, 82
2, 22396, Note_on_c, 0, 60, 0
2, 22396, Note_on_c, 0, 72, 0
2, 22400, Note_on_c, 0, 59, 78
2, 22400, Note_on_c, 0, 74, 93
2, 22460, Note_on_c, 0, 74, 0
2, 22460, Note_on_c, 0, 59, 0
2, 22464, Note_on_c, 0, 69, 87
2, 22464, Note_on_c, 0, 60, 83
2, 22464, Note_on_c, 0, 78, 92
2, 22464, Note_on_c, 0, 50, 70
2, 22524, Note_on_c, 0, 50, 0
2, 22524, Note_on_c, 0, 69, 0
2, 22524, Note_on_c, 0, 60, 0
2, 22524, Note_on_c, 0, 78, 0
2, 22528, Note_on_c, 0, 71, 78
2, 22528, Note_on_c, 0, 59, 73
2, 22588, Note_on_c, 0, 59, 0
2, 22588, Note_on_c, 0, 71, 0
2, 22592, Note_on_c, 0, 72, 83
2, 22592, Note_on_c, 0, 57, 81
2, 22652, Note_on_c, 0, 57, 0
2, 22652, Note_on_c, 0, 72, 0
2, 22656, Note_on_c, 0, 62, 59
2, 22656, Note_on_c, 0, 71, 66
2, 22656, Note_on_c, 0, 55, 74
2, 22656, Note_on_c, 0, 79, 73
2, 22716, Note_on_c, 0, 79, 0
2, 22716, Note_on_c, 0, 62, 0
2, 22716, Note_on_c, 0, 71, 0
2, 22716, Note_on_c, 0, 55, 0
2, 22720, Note_on_c, 0, 72, 57
2, 22720, Note_on_c, 0, 60, 58
2, 22780, Note_on_c, 0, 60, 0
2, 22780, Note_on_c, 0, 72, 0
2, 22784, Note_on_c, 0, 74, 61
2, 22784, Note_on_c, 0, 59, 46
2, 22844, Note_on_c, 0, 59, 0
2, 22844, Note_on_c, 0, 74, 0
2, 22848, Note_on_c, 0, 60, 48
2, 22848, Note_on_c, 0, 69, 57
2, 22848, Note_on_c, 0, 78, 57
2, 22848, Note_on_c, 0, 50, 50
2, 22908, Note_on_c, 0, 50, 0
2, 22908, Note_on_c, 0, 60, 0
2, 22908, Note_on_c, 0, 69, 0
2, 22908, Note_on_c, 0, 78, 0
2, 22912, Note_on_c, 0, 71, 44
2, 22912, Note_on_c, 0, 59, 44
2, 22972, Note_on_c, 0, 59, 0
2, 22972, Note_on_c, 0, 71, 0
2, 22976, Note_on_c, 0, 72, 60
2, 22976, Note_on_c, 0, 57, 16
2, 23036, Note_on_c, 0, 57, 0
2, 23036, Note_on_c, 0, 72, 0
2, 23040, Note_on_c, 0, 79, 50
2, 23040, Note_on_c, 0, 55, 64
2, 23040, Note_on_c, 0, 71, 63
2, 23040, Note_on_c, 0, 59, 40
2, 23100, Note_on_c, 0, 59, 0
2, 23100, Note_on_c, 0, 79, 0
2, 23100, Note_on_c, 0, 55, 0
2, 23100, Note_on_c, 0, 71, 0
2, 23104, Note_on_c, 0, 81, 74
2, 23164, Note_on_c, 0, 81, 0
2, 23168, Note_on_c, 0, 79, 72
2, 23228, Note_on_c, 0, 79, 0
2, 23232, Note_on_c, 0, 78, 65
2, 23292, Note_on_c, 0, 78, 0
2, 23296, Note_on_c, 0, 79, 71
2, 23356, Note_on_c, 0, 79, 0
2, 23360, Note_on_c, 0, 78, 71
2, 23420, Note_on_c, 0, 78, 0
2, 23424, Note_on_c, 0, 79, 74
2, 23484, Note_on_c, 0, 79, 0
2, 23488, Note_on_c, 0, 81, 71
2, 23548, Note_on_c, 0, 81, 0
2, 23552, Note_on_c, 0, 79, 68
2, 23612, Note_on_c, 0, 79, 0
2, 23616, Note_on_c, 0, 78, 69
2, 23676, Note_on_c, 0, 78, 0
2, 23680, Note_on_c, 0, 79, 69
2, 23740, Note_on_c, 0, 79, 0
2, 23744, Note_on_c, 0, 78, 68
2, 23804, Note_on_c, 0, 78, 0
2, 23808, Note_on_c, 0, 79, 74
2, 23868, Note_on_c, 0, 79, 0
2, 23872, Note_on_c, 0, 81, 68
2, 23932, Note_on_c, 0, 81, 0
2, 23936, Note_on_c, 0, 79, 76
2, 23996, Note_on_c, 0, 79, 0
2, 24000, Note_on_c, 0, 78, 71
2, 24060, Note_on_c, 0, 78, 0
2, 24064, Note_on_c, 0, 79, 76
2, 24124, Note_on_c, 0, 79, 0
2, 24128, Note_on_c, 0, 78, 66
2, 24188, Note_on_c, 0, 78, 0
2, 24192, Note_on_c, 0, 62, 68
2, 24192, Note_on_c, 0, 71, 58
2, 24192, Note_on_c, 0, 55, 64
2, 24192, Note_on_c, 0, 79, 69
2, 24252, Note_on_c, 0, 79, 0
2, 24252, Note_on_c, 0, 62, 0
2, 24252, Note_on_c, 0, 71, 0
2, 24252, Note_on_c, 0, 55, 0
2, 24256, Note_on_c, 0, 72, 67
2, 24256, Note_on_c, 0, 60, 63
2, 24316, Note_on_c, 0, 60, 0
2, 24316, Note_on_c, 0, 72, 0
2, 24320, Note_on_c, 0, 74, 74
2, 24320, Note_on_c, 0, 59, 66
2, 24380, Note_on_c, 0, 59, 0
2, 24380, Note_on_c, 0, 74, 0
2, 24384, Note_on_c, 0, 69, 80
2, 24384, Note_on_c, 0, 60, 74
2, 24384, Note_on_c, 0, 78, 75
2, 24384, Note_on_c, 0, 50, 56
2, 24444, Note_on_c, 0, 50, 0
2, 24444, Note_on_c, 0, 69, 0
2, 24444, Note_on_c, 0, 60, 0
2, 24444, Note_on_c, 0, 78, 0
2, 24448, Note_on_c, 0, 71, 78
2, 24448, Note_on_c, 0, 59, 73
2, 24508, Note_on_c, 0, 59, 0
2, 24508, Note_on_c, 0, 71, 0
2, 24512, Note_on_c, 0, 57, 81
2, 24512, Note_on_c, 0, 72, 79
2, 24572, Note_on_c, 0, 72, 0
2, 24572, Note_on_c, 0, 57, 0
2, 24576, Note_on_c, 0, 62, 85
2, 24576, Note_on_c, 0, 71, 77
2, 24576, Note_on_c, 0, 79, 92
2, 24576, Note_on_c, 0, 55, 77
2, 24636, Note_on_c, 0, 55, 0
2, 24636, Note_on_c, 0, 62, 0
2, 24636, Note_on_c, 0, 71, 0
2, 24636, Note_on_c, 0, 79, 0
2, 24640, Note_on_c, 0, 72, 88
2, 24640, Note_on_c, 0, 60, 88
2, 24700, Note_on_c, 0, 60, 0
2, 24700, Note_on_c, 0, 72, 0
2, 24704, Note_on_c, 0, 74, 97
2, 24704, Note_on_c, 0, 59, 85
2, 24764, Note_on_c, 0, 59, 0
2, 24764, Note_on_c, 0, 74, 0
2, 24768, Note_on_c, 0, 60, 82
2, 24768, Note_on_c, 0, 69, 82
2, 24768, Note_on_c, 0, 78, 94
2, 24768, Note_on_c, 0, 50, 73
2, 24828, Note_on_c, 0, 50, 0
2, 24828, Note_on_c, 0, 60, 0
2, 24828, Note_on_c, 0, 69, 0
2, 24828, Note_on_c, 0, 78, 0
2, 24832, Note_on_c, 0, 71, 64
2, 24832, Note_on_c, 0, 59, 62
2, 24892, Note_on_c, 0, 59, 0
2, 24892, Note_on_c, 0, 71, 0
2, 24896, Note_on_c, 0, 57, 64
2, 24896, Note_on_c, 0, 72, 63
2, 24956, Note_on_c, 0, 72, 0
2, 24956, Note_on_c, 0, 57, 0
2, 24960, Note_on_c, 0, 71, 58
2, 24960, Note_on_c, 0, 62, 58
2, 25020, Note_on_c, 0, 62, 0
2, 25020, Note_on_c, 0, 71, 0
2, 25024, Note_on_c, 0, 72, 58
2, 25024, Note_on_c, 0, 60, 41
2, 25084, Note_on_c, 0, 60, 0
2, 25084, Note_on_c, 0, 72, 0
2, 25088, Note_on_c, 0, 74, 57
2, 25088, Note_on_c, 0, 59, 49
2, 25148, Note_on_c, 0, 59, 0
2, 25148, Note_on_c, 0, 74, 0
2, 25152, Note_on_c, 0, 69, 58
2, 25152, Note_on_c, 0, 60, 55
2, 25212, Note_on_c, 0, 60, 0
2, 25212, Note_on_c, 0, 69, 0
2, 25216, Note_on_c, 0, 71, 47
2, 25216, Note_on_c, 0, 59, 51
2, 25276, Note_on_c, 0, 59, 0
2, 25276, Note_on_c, 0, 71, 0
2, 25280, Note_on_c, 0, 72, 40
2, 25280, Note_on_c, 0, 57, 44
2, 25340, Note_on_c, 0, 57, 0
2, 25340, Note_on_c, 0, 72, 0
2, 25344, Note_on_c, 0, 79, 66
2, 25344, Note_on_c, 0, 71, 58
2, 25344, Note_on_c, 0, 55, 59
2, 25344, Note_on_c, 0, 59, 39
2, 25404, Note_on_c, 0, 59, 0
2, 25404, Note_on_c, 0, 79, 0
2, 25404, Note_on_c, 0, 71, 0
2, 25404, Note_on_c, 0, 55, 0
2, 25408, Note_on_c, 0, 81, 68
2, 25468, Note_on_c, 0, 81, 0
2, 25472, Note_on_c, 0, 79, 62
2, 25532, Note_on_c, 0, 79, 0
2, 25536, Note_on_c, 0, 78, 66
2, 25596, Note_on_c, 0, 78, 0
2, 25600, Note_on_c, 0, 79, 65
2, 25660, Note_on_c, 0, 79, 0
2, 25664, Note_on_c, 0, 78, 69
2, 25724, Note_on_c, 0, 78, 0
2, 25728, Note_on_c, 0, 79, 63
2, 25788, Note_on_c, 0, 79, 0
2, 25792, Note_on_c, 0, 81, 68
2, 25852, Note_on_c, 0, 81, 0
2, 25856, Note_on_c, 0, 79, 69
2, 25916, Note_on_c, 0, 79, 0
2, 25920, Note_on_c, 0, 78, 66
2, 25980, Note_on_c, 0, 78, 0
2, 25984, Note_on_c, 0, 79, 70
2, 26044, Note_on_c, 0, 79, 0
2, 26048, Note_on_c, 0, 78, 58
2, 26108, Note_on_c, 0, 78, 0
2, 26112, Note_on_c, 0, 79, 71
2, 26172, Note_on_c, 0, 79, 0
2, 26176, Note_on_c, 0, 81, 71
2, 26236, Note_on_c, 0, 81, 0
2, 26240, Note_on_c, 0, 79, 67
2, 26300, Note_on_c, 0, 79, 0
2, 26304, Note_on_c, 0, 77, 75
2, 26364, Note_on_c, 0, 77, 0
2, 26368, Note_on_c, 0, 79, 64
2, 26428, Note_on_c, 0, 79, 0
2, 26432, Note_on_c, 0, 77, 27
2, 26492, Note_on_c, 0, 77, 0
2, 26496, Note_on_c, 0, 76, 73
2, 26496, Program_c, 0, 0
2, 26532, Control_c, 0, 64, 127
2, 26684, Note_on_c, 0, 76, 0
2, 26880, Note_on_c, 0, 60, 90
2, 26940, Note_on_c, 0, 60, 0
2, 26944, Note_on_c, 0, 64, 94
2, 27004, Note_on_c, 0, 64, 0
2, 27008, Note_on_c, 0, 67, 105
2, 27068, Note_on_c, 0, 67, 0
2, 27072, Note_on_c, 0, 72, 90
2, 27132, Note_on_c, 0, 72, 0
2, 27136, Note_on_c, 0, 76, 100
2, 27196, Note_on_c, 0, 76, 0
2, 27200, Note_on_c, 0, 79, 97
2, 27260, Note_on_c, 0, 79, 0
2, 27264, Note_on_c, 0, 84, 107
2, 27324, Note_on_c, 0, 84, 0
2, 27620, Control_c, 0, 64, 0
2, 27648, Note_on_c, 0, 81, 107
2, 27708, Note_on_c, 0, 81, 0
2, 28032, Note_on_c, 0, 81, 107
2, 28224, Note_on_c, 0, 89, 124
2, 28476, Note_on_c, 0, 89, 0
2, 28476, Note_on_c, 0, 81, 0
2, 28480, Note_on_c, 0, 79, 75
2, 28480, Note_on_c, 0, 88, 84
2, 28540, Note_on_c, 0, 88, 0
2, 28540, Note_on_c, 0, 79, 0
2, 28544, Note_on_c, 0, 77, 77
2, 28544, Note_on_c, 0, 86, 78
2, 28604, Note_on_c, 0, 86, 0
2, 28604, Note_on_c, 0, 77, 0
2, 28608, Note_on_c, 0, 79, 76
2, 28608, Note_on_c, 0, 88, 74
2, 28668, Note_on_c, 0, 88, 0
2, 28668, Note_on_c, 0, 79, 0
2, 28672, Note_on_c, 0, 77, 79
2, 28672, Note_on_c, 0, 86, 78
2, 28732, Note_on_c, 0, 86, 0
2, 28732, Note_on_c, 0, 77, 0
2, 28736, Note_on_c, 0, 76, 81
2, 28736, Note_on_c, 0, 84, 81
2, 28796, Note_on_c, 0, 84, 0
2, 28796, Note_on_c, 0, 76, 0
2, 28800, Note_on_c, 0, 86, 73
2, 28800, Note_on_c, 0, 77, 79
2, 28800, Note_on_c, 0, 67, 71
2, 28860, Note_on_c, 0, 77, 0
2, 28860, Note_on_c, 0, 86, 0
2, 28864, Note_on_c, 0, 84, 78
2, 28864, Note_on_c, 0, 76, 80
2, 28924, Note_on_c, 0, 76, 0
2, 28924, Note_on_c, 0, 84, 0
2, 28928, Note_on_c, 0, 74, 66
2, 28928, Note_on_c, 0, 83, 72
2, 28988, Note_on_c, 0, 83, 0
2, 28988, Note_on_c, 0, 74, 0
2, 28992, Note_on_c, 0, 84, 77
2, 28992, Note_on_c, 0, 76, 40
2, 29052, Note_on_c, 0, 76, 0
2, 29052, Note_on_c, 0, 84, 0
2, 29056, Note_on_c, 0, 83, 75
2, 29056, Note_on_c, 0, 74, 61
2, 29116, Note_on_c, 0, 74, 0
2, 29116, Note_on_c, 0, 83, 0
2, 29120, Note_on_c, 0, 81, 73
2, 29120, Note_on_c, 0, 72, 40
2, 29180, Note_on_c, 0, 72, 0
2, 29180, Note_on_c, 0, 81, 0
2, 29184, Note_on_c, 0, 83, 79
2, 29184, Note_on_c, 0, 74, 70
2, 29244, Note_on_c, 0, 74, 0
2, 29244, Note_on_c, 0, 83, 0
2, 29248, Note_on_c, 0, 81, 73
2, 29248, Note_on_c, 0, 72, 64
2, 29308, Note_on_c, 0, 72, 0
2, 29308, Note_on_c, 0, 81, 0
2, 29312, Note_on_c, 0, 79, 76
2, 29312, Note_on_c, 0, 71, 57
2, 29372, Note_on_c, 0, 71, 0
2, 29372, Note_on_c, 0, 79, 0
2, 29376, Note_on_c, 0, 81, 71
2, 29376, Note_on_c, 0, 72, 64
2, 29436, Note_on_c, 0, 72, 0
2, 29436, Note_on_c, 0, 81, 0
2, 29440, Note_on_c, 0, 71, 59
2, 29440, Note_on_c, 0, 79, 85
2, 29500, Note_on_c, 0, 79, 0
2, 29500, Note_on_c, 0, 71, 0
2, 29504, Note_on_c, 0, 78, 80
2, 29504, Note_on_c, 0, 69, 50
2, 29564, Note_on_c, 0, 69, 0
2, 29564, Note_on_c, 0, 78, 0
2, 29568, Note_on_c, 0, 79, 78
2, 29568, Note_on_c, 0, 71, 72
2, 29628, Note_on_c, 0, 71, 0
2, 29628, Note_on_c, 0, 79, 0
2, 29628, Note_on_c, 0, 67, 0
2, 29632, Note_on_c, 0, 69, 58
2, 29632, Note_on_c, 0, 83, 75
2, 29692, Note_on_c, 0, 83, 0
2, 29692, Note_on_c, 0, 69, 0
2, 29696, Note_on_c, 0, 81, 67
2, 29696, Note_on_c, 0, 67, 76
2, 29756, Note_on_c, 0, 67, 0
2, 29756, Note_on_c, 0, 81, 0
2, 29760, Note_on_c, 0, 65, 75
2, 29760, Note_on_c, 0, 79, 63
2, 29820, Note_on_c, 0, 79, 0
2, 29820, Note_on_c, 0, 65, 0
2, 29824, Note_on_c, 0, 81, 75
2, 29824, Note_on_c, 0, 64, 67
2, 29884, Note_on_c, 0, 64, 0
2, 29884, Note_on_c, 0, 81, 0
2, 29888, Note_on_c, 0, 83, 64
2, 29888, Note_on_c, 0, 62, 60
2, 29948, Note_on_c, 0, 62, 0
2, 29948, Note_on_c, 0, 83, 0
2, 29952, Note_on_c, 0, 84, 74
2, 29952, Note_on_c, 0, 60, 59
2, 29988, Control_c, 0, 64, 127
2, 30012, Note_on_c, 0, 60, 0
2, 30012, Note_on_c, 0, 84, 0
2, 30144, Note_on_c, 0, 64, 69
2, 30144, Note_on_c, 0, 67, 69
2, 30144, Note_on_c, 0, 72, 57
2, 30144, Note_on_c, 0, 84, 85
2, 30188, Note_on_c, 0, 84, 0
2, 30188, Control_c, 0, 64, 0
2, 30192, Note_on_c, 0, 86, 81
2, 30204, Note_on_c, 0, 64, 0
2, 30204, Note_on_c, 0, 72, 0
2, 30204, Note_on_c, 0, 67, 0
2, 30236, Note_on_c, 0, 86, 0
2, 30240, Note_on_c, 0, 84, 89
2, 30264, Note_on_c, 0, 86, 83
2, 30284, Note_on_c, 0, 86, 0
2, 30284, Note_on_c, 0, 84, 0
2, 30288, Note_on_c, 0, 86, 82
2, 30304, Note_on_c, 0, 86, 84
2, 30312, Note_on_c, 0, 86, 79
2, 30332, Note_on_c, 0, 86, 0
2, 30332, Note_on_c, 0, 86, 0
2, 30332, Note_on_c, 0, 86, 0
2, 30336, Note_on_c, 0, 86, 109
2, 30372, Control_c, 0, 64, 127
2, 30396, Note_on_c, 0, 86, 0
2, 30528, Note_on_c, 0, 65, 67
2, 30528, Note_on_c, 0, 67, 73
2, 30528, Note_on_c, 0, 71, 64
2, 30528, Note_on_c, 0, 86, 87
2, 30572, Note_on_c, 0, 86, 0
2, 30572, Control_c, 0, 64, 0
2, 30576, Note_on_c, 0, 88, 85
2, 30588, Note_on_c, 0, 65, 0
2, 30588, Note_on_c, 0, 71, 0
2, 30588, Note_on_c, 0, 67, 0
2, 30620, Note_on_c, 0, 88, 0
2, 30624, Note_on_c, 0, 86, 88
2, 30648, Note_on_c, 0, 88, 73
2, 30668, Note_on_c, 0, 88, 0
2, 30668, Note_on_c, 0, 86, 0
2, 30672, Note_on_c, 0, 88, 89
2, 30688, Note_on_c, 0, 88, 85
2, 30696, Note_on_c, 0, 88, 79
2, 30716, Note_on_c, 0, 88, 0
2, 30716, Note_on_c, 0, 88, 0
2, 30716, Note_on_c, 0, 88, 0
2, 30720, Note_on_c, 0, 88, 79
2, 30756, Control_c, 0, 64, 127
2, 30908, Note_on_c, 0, 88, 0
2, 30912, Note_on_c, 0, 67, 39
2, 30912, Note_on_c, 0, 64, 41
2, 30912, Note_on_c, 0, 72, 43
2, 30912, Note_on_c, 0, 84, 77
2, 30940, Note_on_c, 0, 84, 0
2, 30956, Control_c, 0, 64, 0
2, 30972, Note_on_c, 0, 67, 0
2, 30972, Note_on_c, 0, 64, 0
2, 30972, Note_on_c, 0, 72, 0
2, 31104, Program_c, 0, 0
2, 31140, Control_c, 0, 64, 127
2, 31488, Note_on_c, 0, 60, 90
2, 31548, Note_on_c, 0, 60, 0
2, 31552, Note_on_c, 0, 64, 94
2, 31612, Note_on_c, 0, 64, 0
2, 31616, Note_on_c, 0, 67, 105
2, 31676, Note_on_c, 0, 67, 0
2, 31680, Note_on_c, 0, 72, 90
2, 31740, Note_on_c, 0, 72, 0
2, 31744, Note_on_c, 0, 76, 100
2, 31804, Note_on_c, 0, 76, 0
2, 31808, Note_on_c, 0, 79, 97
2, 31868, Note_on_c, 0, 79, 0
2, 31872, Note_on_c, 0, 84, 107
2, 31932, Note_on_c, 0, 84, 0
2, 32228, Control_c, 0, 64, 0
2, 32256, Note_on_c, 0, 81, 107
2, 32316, Note_on_c, 0, 81, 0
2, 32640, Note_on_c, 0, 81, 107
2, 32832, Note_on_c, 0, 89, 124
2, 33084, Note_on_c, 0, 89, 0
2, 33084, Note_on_c, 0, 81, 0
2, 33088, Note_on_c, 0, 79, 75
2, 33088, Note_on_c, 0, 88, 84
2, 33148, Note_on_c, 0, 88, 0
2, 33148, Note_on_c, 0, 79, 0
2, 33152, Note_on_c, 0, 77, 77
2, 33152, Note_on_c, 0, 86, 78
2, 33212, Note_on_c, 0, 86, 0
2, 33212, Note_on_c, 0, 77, 0
2, 33216, Note_on_c, 0, 79, 76
2, 33216, Note_on_c, 0, 88, 74
2, 33276, Note_on_c, 0, 88, 0
2, 33276, Note_on_c, 0, 79, 0
2, 33280, Note_on_c, 0, 77, 79
2, 33280, Note_on_c, 0, 86, 78
2, 33340, Note_on_c, 0, 86, 0
2, 33340, Note_on_c, 0, 77, 0
2, 33344, Note_on_c, 0, 76, 81
2, 33344, Note_on_c, 0, 84, 81
2, 33404, Note_on_c, 0, 84, 0
2, 33404, Note_on_c, 0, 76, 0
2, 33408, Note_on_c, 0, 86, 73
2, 33408, Note_on_c, 0, 77, 79
2, 33408, Note_on_c, 0, 67, 71
2, 33468, Note_on_c, 0, 77, 0
2, 33468, Note_on_c, 0, 86, 0
2, 33472, Note_on_c, 0, 84, 78
2, 33472, Note_on_c, 0, 76, 80
2, 33532, Note_on_c, 0, 76, 0
2, 33532, Note_on_c, 0, 84, 0
2, 33536, Note_on_c, 0, 74, 66
2, 33536, Note_on_c, 0, 83, 72
2, 33596, Note_on_c, 0, 83, 0
2, 33596, Note_on_c, 0, 74, 0
2, 33600, Note_on_c, 0, 84, 77
2, 33600, Note_on_c, 0, 76, 40
2, 33660, Note_on_c, 0, 76, 0
2, 33660, Note_on_c, 0, 84, 0
2, 33664, Note_on_c, 0, 83, 75
2, 33664, Note_on_c, 0, 74, 61
2, 33724, Note_on_c, 0, 74, 0
2, 33724, Note_on_c, 0, 83, 0
2, 33728, Note_on_c, 0, 81, 73
2, 33728, Note_on_c, 0, 72, 40
2, 33788, Note_on_c, 0, 72, 0
2, 33788, Note_on_c, 0, 81, 0
2, 33792, Note_on_c, 0, 83, 79
2, 33792, Note_on_c, 0, 74, 70
2, 33852, Note_on_c, 0, 74, 0
2, 33852, Note_on_c, 0, 83, 0
2, 33856, Note_on_c, 0, 81, 73
2, 33856, Note_on_c, 0, 72, 64
2, 33916, Note_on_c, 0, 72, 0
2, 33916, Note_on_c, 0, 81, 0
2, 33920, Note_on_c, 0, 79, 76
2, 33920, Note_on_c, 0, 71, 57
2, 33980, Note_on_c, 0, 71, 0
2, 33980, Note_on_c, 0, 79, 0
2, 33984, Note_on_c, 0, 81, 71
2, 33984, Note_on_c, 0, 72, 64
2, 34044, Note_on_c, 0, 72, 0
2, 34044, Note_on_c, 0, 81, 0
2, 34048, Note_on_c, 0, 71, 59
2, 34048, Note_on_c, 0, 79, 85
2, 34108, Note_on_c, 0, 79, 0
2, 34108, Note_on_c, 0, 71, 0
2, 34112, Note_on_c, 0, 78, 80
2, 34112, Note_on_c, 0, 69, 50
2, 34172, Note_on_c, 0, 69, 0
2, 34172, Note_on_c, 0, 78, 0
2, 34176, Note_on_c, 0, 79, 78
2, 34176, Note_on_c, 0, 71, 72
2, 34236, Note_on_c, 0, 71, 0
2, 34236, Note_on_c, 0, 79, 0
2, 34236, Note_on_c, 0, 67, 0
2, 34240, Note_on_c, 0, 69, 58
2, 34240, Note_on_c, 0, 83, 75
2, 34300, Note_on_c, 0, 83, 0
2, 34300, Note_on_c, 0, 69, 0
2, 34304, Note_on_c, 0, 81, 67
2, 34304, Note_on_c, 0, 67, 76
2, 34364, Note_on_c, 0, 67, 0
2, 34364, Note_on_c, 0, 81, 0
2, 34368, Note_on_c, 0, 65, 75
2, 34368, Note_on_c, 0, 79, 63
2, 34428, Note_on_c, 0, 79, 0
2, 34428, Note_on_c, 0, 65, 0
2, 34432, Note_on_c, 0, 81, 75
2, 34432, Note_on_c, 0, 64, 67
2, 34492, Note_on_c, 0, 64, 0
2, 34492, Note_on_c, 0, 81, 0
2, 34496, Note_on_c, 0, 83, 64
2, 34496, Note_on_c, 0, 62, 60
2, 34556, Note_on_c, 0, 62, 0
2, 34556, Note_on_c, 0, 83, 0
2, 34560, Note_on_c, 0, 84, 74
2, 34560, Note_on_c, 0, 60, 59
2, 34596, Control_c, 0, 64, 127
2, 34620, Note_on_c, 0, 60, 0
2, 34620, Note_on_c, 0, 84, 0
2, 34752, Note_on_c, 0, 64, 69
2, 34752, Note_on_c, 0, 67, 69
2, 34752, Note_on_c, 0, 72, 57
2, 34752, Note_on_c, 0, 84, 85
2, 34796, Note_on_c, 0, 84, 0
2, 34796, Control_c, 0, 64, 0
2, 34800, Note_on_c, 0, 86, 81
2, 34812, Note_on_c, 0, 64, 0
2, 34812, Note_on_c, 0, 72, 0
2, 34812, Note_on_c, 0, 67, 0
2, 34844, Note_on_c, 0, 86, 0
2, 34848, Note_on_c, 0, 84, 89
2, 34872, Note_on_c, 0, 86, 83
2, 34892, Note_on_c, 0, 86, 0
2, 34892, Note_on_c, 0, 84, 0
2, 34896, Note_on_c, 0, 86, 82
2, 34912, Note_on_c, 0, 86, 84
2, 34920, Note_on_c, 0, 86, 79
2, 34940, Note_on_c, 0, 86, 0
2, 34940, Note_on_c, 0, 86, 0
2, 34940, Note_on_c, 0, 86, 0
2, 34944, Note_on_c, 0, 86, 109
2, 34980, Control_c, 0, 64, 127
2, 35004, Note_on_c, 0, 86, 0
2, 35136, Note_on_c, 0, 65, 67
2, 35136, Note_on_c, 0, 67, 73
2, 35136, Note_on_c, 0, 71, 64
2, 35136, Note_on_c, 0, 86, 87
2, 35180, Note_on_c, 0, 86, 0
2, 35180, Control_c, 0, 64, 0
2, 35184, Note_on_c, 0, 88, 85
2, 35196, Note_on_c, 0, 65, 0
2, 35196, Note_on_c, 0, 71, 0
2, 35196, Note_on_c, 0, 67, 0
2, 35228, Note_on_c, 0, 88, 0
2, 35232, Note_on_c, 0, 86, 88
2, 35256, Note_on_c, 0, 88, 73
2, 35276, Note_on_c, 0, 88, 0
2, 35276, Note_on_c, 0, 86, 0
2, 35280, Note_on_c, 0, 88, 89
2, 35296, Note_on_c, 0, 88, 85
2, 35304, Note_on_c, 0, 88, 79
2, 35324, Note_on_c, 0, 88, 0
2, 35324, Note_on_c, 0, 88, 0
2, 35324, Note_on_c, 0, 88, 0
2, 35328, Note_on_c, 0, 88, 79
2, 35364, Control_c, 0, 64, 127
2, 35516, Note_on_c, 0, 88, 0
2, 35520, Note_on_c, 0, 67, 39
2, 35520, Note_on_c, 0, 64, 41
2, 35520, Note_on_c, 0, 72, 43
2, 35564, Control_c, 0, 64, 0
2, 35580, Note_on_c, 0, 72, 0
2, 35580, Note_on_c, 0, 64, 0
2, 35580, Note_on_c, 0, 67, 0
2, 35712, Note_on_c, 0, 65, 77
2, 35712, Note_on_c, 0, 71, 81
2, 35772, Note_on_c, 0, 71, 0
2, 35772, Note_on_c, 0, 65, 0
2, 35776, Note_on_c, 0, 64, 51
2, 35776, Note_on_c, 0, 72, 51
2, 35836, Note_on_c, 0, 72, 0
2, 35836, Note_on_c, 0, 64, 0
2, 35840, Note_on_c, 0, 74, 72
2, 35840, Note_on_c, 0, 62, 40
2, 35900, Note_on_c, 0, 62, 0
2, 35900, Note_on_c, 0, 74, 0
2, 35904, Note_on_c, 0, 71, 59
2, 35904, Note_on_c, 0, 65, 60
2, 35904, Note_on_c, 0, 79, 114
2, 35964, Note_on_c, 0, 65, 0
2, 35964, Note_on_c, 0, 71, 0
2, 35968, Note_on_c, 0, 64, 48
2, 35968, Note_on_c, 0, 72, 61
2, 36028, Note_on_c, 0, 72, 0
2, 36028, Note_on_c, 0, 64, 0
2, 36032, Note_on_c, 0, 74, 68
2, 36032, Note_on_c, 0, 62, 41
2, 36092, Note_on_c, 0, 62, 0
2, 36092, Note_on_c, 0, 74, 0
2, 36096, Note_on_c, 0, 71, 68
2, 36096, Note_on_c, 0, 65, 64
2, 36156, Note_on_c, 0, 65, 0
2, 36156, Note_on_c, 0, 71, 0
2, 36160, Note_on_c, 0, 64, 64
2, 36160, Note_on_c, 0, 72, 61
2, 36220, Note_on_c, 0, 72, 0
2, 36220, Note_on_c, 0, 64, 0
2, 36224, Note_on_c, 0, 74, 71
2, 36224, Note_on_c, 0, 62, 55
2, 36284, Note_on_c, 0, 62, 0
2, 36284, Note_on_c, 0, 74, 0
2, 36284, Note_on_c, 0, 79, 0
2, 36288, Note_on_c, 0, 71, 65
2, 36288, Note_on_c, 0, 65, 64
2, 36288, Note_on_c, 0, 79, 84
2, 36348, Note_on_c, 0, 79, 0
2, 36348, Note_on_c, 0, 65, 0
2, 36348, Note_on_c, 0, 71, 0
2, 36352, Note_on_c, 0, 72, 58
2, 36352, Note_on_c, 0, 64, 53
2, 36412, Note_on_c, 0, 64, 0
2, 36412, Note_on_c, 0, 72, 0
2, 36416, Note_on_c, 0, 74, 68
2, 36416, Note_on_c, 0, 62, 52
2, 36476, Note_on_c, 0, 62, 0
2, 36476, Note_on_c, 0, 74, 0
2, 36480, Note_on_c, 0, 64, 66
2, 36480, Note_on_c, 0, 72, 59
2, 36480, Note_on_c, 0, 79, 76
2, 36540, Note_on_c, 0, 79, 0
2, 36540, Note_on_c, 0, 72, 0
2, 36540, Note_on_c, 0, 64, 0
2, 36544, Note_on_c, 0, 74, 62
2, 36544, Note_on_c, 0, 62, 54
2, 36604, Note_on_c, 0, 62, 0
2, 36604, Note_on_c, 0, 74, 0
2, 36608, Note_on_c, 0, 76, 75
2, 36608, Note_on_c, 0, 60, 59
2, 36668, Note_on_c, 0, 60, 0
2, 36668, Note_on_c, 0, 76, 0
2, 36672, Note_on_c, 0, 64, 59
2, 36672, Note_on_c, 0, 72, 57
2, 36672, Note_on_c, 0, 79, 72
2, 36732, Note_on_c, 0, 79, 0
2, 36732, Note_on_c, 0, 72, 0
2, 36732, Note_on_c, 0, 64, 0
2, 36736, Note_on_c, 0, 74, 59
2, 36736, Note_on_c, 0, 62, 58
2, 36796, Note_on_c, 0, 62, 0
2, 36796, Note_on_c, 0, 74, 0
2, 36800, Note_on_c, 0, 76, 71
2, 36800, Note_on_c, 0, 60, 63
2, 36860, Note_on_c, 0, 60, 0
2, 36860, Note_on_c, 0, 76, 0
2, 36864, Note_on_c, 0, 77, 78
2, 36864, Note_on_c, 0, 59, 67
2, 36924, Note_on_c, 0, 59, 0
2, 36924, Note_on_c, 0, 77, 0
2, 36928, Note_on_c, 0, 76, 48
2, 36928, Note_on_c, 0, 60, 57
2, 36988, Note_on_c, 0, 60, 0
2, 36988, Note_on_c, 0, 76, 0
2, 36992, Note_on_c, 0, 74, 72
2, 36992, Note_on_c, 0, 62, 54
2, 37052, Note_on_c, 0, 62, 0
2, 37052, Note_on_c, 0, 74, 0
2, 37056, Note_on_c, 0, 77, 71
2, 37056, Note_on_c, 0, 59, 61
2, 37056, Note_on_c, 0, 79, 109
2, 37116, Note_on_c, 0, 59, 0
2, 37116, Note_on_c, 0, 77, 0
2, 37120, Note_on_c, 0, 76, 74
2, 37120, Note_on_c, 0, 60, 49
2, 37180, Note_on_c, 0, 60, 0
2, 37180, Note_on_c, 0, 76, 0
2, 37184, Note_on_c, 0, 62, 63
2, 37184, Note_on_c, 0, 74, 62
2, 37244, Note_on_c, 0, 74, 0
2, 37244, Note_on_c, 0, 62, 0
2, 37248, Note_on_c, 0, 77, 75
2, 37248, Note_on_c, 0, 59, 53
2, 37308, Note_on_c, 0, 59, 0
2, 37308, Note_on_c, 0, 77, 0
2, 37312, Note_on_c, 0, 76, 70
2, 37312, Note_on_c, 0, 60, 46
2, 37372, Note_on_c, 0, 60, 0
2, 37372, Note_on_c, 0, 76, 0
2, 37376, Note_on_c, 0, 74, 66
2, 37376, Note_on_c, 0, 62, 47
2, 37436, Note_on_c, 0, 62, 0
2, 37436, Note_on_c, 0, 74, 0
2, 37436, Note_on_c, 0, 79, 0
2, 37440, Note_on_c, 0, 77, 75
2, 37440, Note_on_c, 0, 59, 67
2, 37440, Note_on_c, 0, 79, 83
2, 37500, Note_on_c, 0, 79, 0
2, 37500, Note_on_c, 0, 59, 0
2, 37500, Note_on_c, 0, 77, 0
2, 37504, Note_on_c, 0, 76, 70
2, 37504, Note_on_c, 0, 60, 59
2, 37564, Note_on_c, 0, 60, 0
2, 37564, Note_on_c, 0, 76, 0
2, 37568, Note_on_c, 0, 62, 52
2, 37568, Note_on_c, 0, 74, 71
2, 37628, Note_on_c, 0, 74, 0
2, 37628, Note_on_c, 0, 62, 0
2, 37632, Note_on_c, 0, 76, 76
2, 37632, Note_on_c, 0, 60, 58
2, 37632, Note_on_c, 0, 79, 79
2, 37692, Note_on_c, 0, 79, 0
2, 37692, Note_on_c, 0, 60, 0
2, 37692, Note_on_c, 0, 76, 0
2, 37696, Note_on_c, 0, 74, 68
2, 37696, Note_on_c, 0, 62, 49
2, 37756, Note_on_c, 0, 62, 0
2, 37756, Note_on_c, 0, 74, 0
2, 37760, Note_on_c, 0, 64, 53
2, 37760, Note_on_c, 0, 72, 58
2, 37820, Note_on_c, 0, 72, 0
2, 37820, Note_on_c, 0, 64, 0
2, 37824, Note_on_c, 0, 76, 77
2, 37824, Note_on_c, 0, 60, 63
2, 37824, Note_on_c, 0, 79, 80
2, 37884, Note_on_c, 0, 79, 0
2, 37884, Note_on_c, 0, 60, 0
2, 37884, Note_on_c, 0, 76, 0
2, 37888, Note_on_c, 0, 74, 60
2, 37888, Note_on_c, 0, 62, 55
2, 37948, Note_on_c, 0, 62, 0
2, 37948, Note_on_c, 0, 74, 0
2, 37952, Note_on_c, 0, 64, 53
2, 37952, Note_on_c, 0, 72, 68
2, 38012, Note_on_c, 0, 72, 0
2, 38012, Note_on_c, 0, 64, 0
2, 38016, Note_on_c, 0, 71, 82
2, 38016, Note_on_c, 0, 65, 75
2, 38076, Note_on_c, 0, 65, 0
2, 38076, Note_on_c, 0, 71, 0
2, 38080, Note_on_c, 0, 72, 56
2, 38080, Note_on_c, 0, 64, 60
2, 38140, Note_on_c, 0, 64, 0
2, 38140, Note_on_c, 0, 72, 0
2, 38144, Note_on_c, 0, 74, 45
2, 38144, Note_on_c, 0, 62, 45
2, 38204, Note_on_c, 0, 62, 0
2, 38204, Note_on_c, 0, 74, 0
2, 38208, Note_on_c, 0, 65, 71
2, 38208, Note_on_c, 0, 71, 63
2, 38208, Note_on_c, 0, 79, 104
2, 38268, Note_on_c, 0, 71, 0
2, 38268, Note_on_c, 0, 65, 0
2, 38272, Note_on_c, 0, 72, 60
2, 38272, Note_on_c, 0, 64, 65
2, 38332, Note_on_c, 0, 64, 0
2, 38332, Note_on_c, 0, 72, 0
2, 38336, Note_on_c, 0, 74, 45
2, 38336, Note_on_c, 0, 62, 58
2, 38396, Note_on_c, 0, 62, 0
2, 38396, Note_on_c, 0, 74, 0
2, 38400, Note_on_c, 0, 65, 57
2, 38400, Note_on_c, 0, 71, 60
2, 38460, Note_on_c, 0, 71, 0
2, 38460, Note_on_c, 0, 65, 0
2, 38464, Note_on_c, 0, 72, 58
2, 38464, Note_on_c, 0, 64, 55
2, 38524, Note_on_c, 0, 64, 0
2, 38524, Note_on_c, 0, 72, 0
2, 38528, Note_on_c, 0, 74, 65
2, 38528, Note_on_c, 0, 62, 57
2, 38588, Note_on_c, 0, 62, 0
2, 38588, Note_on_c, 0, 74, 0
2, 38588, Note_on_c, 0, 79, 0
2, 38592, Note_on_c, 0, 71, 53
2, 38592, Note_on_c, 0, 65, 58
2, 38592, Note_on_c, 0, 79, 79
2, 38652, Note_on_c, 0, 79, 0
2, 38652, Note_on_c, 0, 65, 0
2, 38652, Note_on_c, 0, 71, 0
2, 38656, Note_on_c, 0, 64, 48
2, 38656, Note_on_c, 0, 72, 59
2, 38716, Note_on_c, 0, 72, 0
2, 38716, Note_on_c, 0, 64, 0
2, 38720, Note_on_c, 0, 62, 55
2, 38720, Note_on_c, 0, 74, 69
2, 38780, Note_on_c, 0, 74, 0
2, 38780, Note_on_c, 0, 62, 0
2, 38784, Note_on_c, 0, 64, 57
2, 38784, Note_on_c, 0, 72, 62
2, 38784, Note_on_c, 0, 79, 82
2, 38844, Note_on_c, 0, 79, 0
2, 38844, Note_on_c, 0, 72, 0
2, 38844, Note_on_c, 0, 64, 0
2, 38848, Note_on_c, 0, 74, 69
2, 38848, Note_on_c, 0, 62, 56
2, 38908, Note_on_c, 0, 62, 0
2, 38908, Note_on_c, 0, 74, 0
2, 38912, Note_on_c, 0, 76, 75
2, 38912, Note_on_c, 0, 60, 54
2, 38972, Note_on_c, 0, 60, 0
2, 38972, Note_on_c, 0, 76, 0
2, 38976, Note_on_c, 0, 64, 59
2, 38976, Note_on_c, 0, 72, 59
2, 38976, Note_on_c, 0, 79, 80
2, 39036, Note_on_c, 0, 79, 0
2, 39036, Note_on_c, 0, 72, 0
2, 39036, Note_on_c, 0, 64, 0
2, 39040, Note_on_c, 0, 74, 61
2, 39040, Note_on_c, 0, 62, 55
2, 39100, Note_on_c, 0, 62, 0
2, 39100, Note_on_c, 0, 74, 0
2, 39104, Note_on_c, 0, 60, 61
2, 39104, Note_on_c, 0, 76, 71
2, 39164, Note_on_c, 0, 76, 0
2, 39164, Note_on_c, 0, 60, 0
2, 39168, Note_on_c, 0, 71, 61
2, 39168, Note_on_c, 0, 62, 49
2, 39228, Note_on_c, 0, 62, 0
2, 39228, Note_on_c, 0, 71, 0
2, 39232, Note_on_c, 0, 72, 59
2, 39232, Note_on_c, 0, 60, 60
2, 39292, Note_on_c, 0, 60, 0
2, 39292, Note_on_c, 0, 72, 0
2, 39296, Note_on_c, 0, 59, 60
2, 39296, Note_on_c, 0, 74, 73
2, 39356, Note_on_c, 0, 74, 0
2, 39356, Note_on_c, 0, 59, 0
2, 39360, Note_on_c, 0, 69, 68
2, 39360, Note_on_c, 0, 60, 66
2, 39360, Note_on_c, 0, 78, 68
2, 39360, Note_on_c, 0, 50, 63
2, 39420, Note_on_c, 0, 50, 0
2, 39420, Note_on_c, 0, 69, 0
2, 39420, Note_on_c, 0, 60, 0
2, 39420, Note_on_c, 0, 78, 0
2, 39424, Note_on_c, 0, 71, 77
2, 39424, Note_on_c, 0, 59, 70
2, 39484, Note_on_c, 0, 59, 0
2, 39484, Note_on_c, 0, 71, 0
2, 39488, Note_on_c, 0, 72, 87
2, 39488, Note_on_c, 0, 57, 78
2, 39548, Note_on_c, 0, 57, 0
2, 39548, Note_on_c, 0, 72, 0
2, 39552, Note_on_c, 0, 71, 83
2, 39552, Note_on_c, 0, 62, 73
2, 39552, Note_on_c, 0, 55, 87
2, 39552, Note_on_c, 0, 79, 85
2, 39612, Note_on_c, 0, 79, 0
2, 39612, Note_on_c, 0, 71, 0
2, 39612, Note_on_c, 0, 62, 0
2, 39612, Note_on_c, 0, 55, 0
2, 39616, Note_on_c, 0, 72, 87
2, 39616, Note_on_c, 0, 60, 82
2, 39676, Note_on_c, 0, 60, 0
2, 39676, Note_on_c, 0, 72, 0
2, 39680, Note_on_c, 0, 59, 78
2, 39680, Note_on_c, 0, 74, 93
2, 39740, Note_on_c, 0, 74, 0
2, 39740, Note_on_c, 0, 59, 0
2, 39744, Note_on_c, 0, 69, 87
2, 39744, Note_on_c, 0, 60, 83
2, 39744, Note_on_c, 0, 78, 92
2, 39744, Note_on_c, 0, 50, 70
2, 39804, Note_on_c, 0, 50, 0
2, 39804, Note_on_c, 0, 69, 0
2, 39804, Note_on_c, 0, 60, 0
2, 39804, Note_on_c, 0, 78, 0
2, 39808, Note_on_c, 0, 71, 78
2, 39808, Note_on_c, 0, 59, 73
2, 39868, Note_on_c, 0, 59, 0
2, 39868, Note_on_c, 0, 71, 0
2, 39872, Note_on_c, 0, 72, 83
2, 39872, Note_on_c, 0, 57, 81
2, 39932, Note_on_c, 0, 57, 0
2, 39932, Note_on_c, 0, 72, 0
2, 39936, Note_on_c, 0, 62, 59
2, 39936, Note_on_c, 0, 71, 66
2, 39936, Note_on_c, 0, 55, 74
2, 39936, Note_on_c, 0, 79, 73
2, 39996, Note_on_c, 0, 79, 0
2, 39996, Note_on_c, 0, 62, 0
2, 39996, Note_on_c, 0, 71, 0
2, 39996, Note_on_c, 0, 55, 0
2, 40000, Note_on_c, 0, 72, 57
2, 40000, Note_on_c, 0, 60, 58
2, 40060, Note_on_c, 0, 60, 0
2, 40060, Note_on_c, 0, 72, 0
2, 40064, Note_on_c, 0, 74, 61
2, 40064, Note_on_c, 0, 59, 46
2, 40124, Note_on_c, 0, 59, 0
2, 40124, Note_on_c, 0, 74, 0
2, 40128, Note_on_c, 0, 60, 48
2, 40128, Note_on_c, 0, 69, 57
2, 40128, Note_on_c, 0, 78, 57
2, 40128, Note_on_c, 0, 50, 50
2, 40188, Note_on_c, 0, 50, 0
2, 40188, Note_on_c, 0, 60, 0
2, 40188, Note_on_c, 0, 69, 0
2, 40188, Note_on_c, 0, 78, 0
2, 40192, Note_on_c, 0, 71, 44
2, 40192, Note_on_c, 0, 59, 44
2, 40252, Note_on_c, 0, 59, 0
2, 40252, Note_on_c, 0, 71, 0
2, 40256, Note_on_c, 0, 72, 60
2, 40256, Note_on_c, 0, 57, 16
2, 40316, Note_on_c, 0, 57, 0
2, 40316, Note_on_c, 0, 72, 0
2, 40320, Note_on_c, 0, 79, 50
2, 40320, Note_on_c, 0, 55, 64
2, 40320, Note_on_c, 0, 71, 63
2, 40320, Note_on_c, 0, 59, 40
2, 40380, Note_on_c, 0, 59, 0
2, 40380, Note_on_c, 0, 79, 0
2, 40380, Note_on_c, 0, 55, 0
2, 40380, Note_on_c, 0, 71, 0
2, 40384, Note_on_c, 0, 81, 74
2, 40444, Note_on_c, 0, 81, 0
2, 40448, Note_on_c, 0, 79, 72
2, 40508, Note_on_c, 0, 79, 0
2, 40512, Note_on_c, 0, 78, 65
2, 40572, Note_on_c, 0, 78, 0
2, 40576, Note_on_c, 0, 79, 71
2, 40636, Note_on_c, 0, 79, 0
2, 40640, Note_on_c, 0, 78, 71
2, 40700, Note_on_c, 0, 78, 0
2, 40704, Note_on_c, 0, 79, 74
2, 40764, Note_on_c, 0, 79, 0
2, 40768, Note_on_c, 0, 81, 71
2, 40828, Note_on_c, 0, 81, 0
2, 40832, Note_on_c, 0, 79, 68
2, 40892, Note_on_c, 0, 79, 0
2, 40896, Note_on_c, 0, 78, 69
2, 40956, Note_on_c, 0, 78, 0
2, 40960, Note_on_c, 0, 79, 69
2, 41020, Note_on_c, 0, 79, 0
2, 41024, Note_on_c, 0, 78, 68
2, 41084, Note_on_c, 0, 78, 0
2, 41088, Note_on_c, 0, 79, 74
2, 41148, Note_on_c, 0, 79, 0
2, 41152, Note_on_c, 0, 81, 68
2, 41212, Note_on_c, 0, 81, 0
2, 41216, Note_on_c, 0, 79, 76
2, 41276, Note_on_c, 0, 79, 0
2, 41280, Note_on_c, 0, 78, 71
2, 41340, Note_on_c, 0, 78, 0
2, 41344, Note_on_c, 0, 79, 76
2, 41404, Note_on_c, 0, 79, 0
2, 41408, Note_on_c, 0, 78, 66
2, 41468, Note_on_c, 0, 78, 0
2, 41472, Note_on_c, 0, 62, 68
2, 41472, Note_on_c, 0, 71, 58
2, 41472, Note_on_c, 0, 55, 64
2, 41472, Note_on_c, 0, 79, 69
2, 41532, Note_on_c, 0, 79, 0
2, 41532, Note_on_c, 0, 62, 0
2, 41532, Note_on_c, 0, 71, 0
2, 41532, Note_on_c, 0, 55, 0
2, 41536, Note_on_c, 0, 72, 67
2, 41536, Note_on_c, 0, 60, 63
2, 41596, Note_on_c, 0, 60, 0
2, 41596, Note_on_c, 0, 72, 0
2, 41600, Note_on_c, 0, 74, 74
2, 41600, Note_on_c, 0, 59, 66
2, 41660, Note_on_c, 0, 59, 0
2, 41660, Note_on_c, 0, 74, 0
2, 41664, Note_on_c, 0, 69, 80
2, 41664, Note_on_c, 0, 60, 74
2, 41664, Note_on_c, 0, 78, 75
2, 41664, Note_on_c, 0, 50, 56
2, 41724, Note_on_c, 0, 50, 0
2, 41724, Note_on_c, 0, 69, 0
2, 41724, Note_on_c, 0, 60, 0
2, 41724, Note_on_c, 0, 78, 0
2, 41728, Note_on_c, 0, 71, 78
2, 41728, Note_on_c, 0, 59, 73
2, 41788, Note_on_c, 0, 59, 0
2, 41788, Note_on_c, 0, 71, 0
2, 41792, Note_on_c, 0, 57, 81
2, 41792, Note_on_c, 0, 72, 79
2, 41852, Note_on_c, 0, 72, 0
2, 41852, Note_on_c, 0, 57, 0
2, 41856, Note_on_c, 0, 62, 85
2, 41856, Note_on_c, 0, 71, 77
2, 41856, Note_on_c, 0, 79, 92
2, 41856, Note_on_c, 0, 55, 77
2, 41916, Note_on_c, 0, 55, 0
2, 41916, Note_on_c, 0, 62, 0
2, 41916, Note_on_c, 0, 71, 0
2, 41916, Note_on_c, 0, 79, 0
2, 41920, Note_on_c, 0, 72, 88
2, 41920, Note_on_c, 0, 60, 88
2, 41980, Note_on_c, 0, 60, 0
2, 41980, Note_on_c, 0, 72, 0
2, 41984, Note_on_c, 0, 74, 97
2, 41984, Note_on_c, 0, 59, 85
2, 42044, Note_on_c, 0, 59, 0
2, 42044, Note_on_c, 0, 74, 0
2, 42048, Note_on_c, 0, 60, 82
2, 42048, Note_on_c, 0, 69, 82
2, 42048, Note_on_c, 0, 78, 94
2, 42048, Note_on_c, 0, 50, 73
2, 42108, Note_on_c, 0, 50, 0
2, 42108, Note_on_c, 0, 60, 0
2, 42108, Note_on_c, 0, 69, 0
2, 42108, Note_on_c, 0, 78, 0
2, 42112, Note_on_c, 0, 71, 64
2, 42112, Note_on_c, 0, 59, 62
2, 42172, Note_on_c, 0, 59, 0
2, 42172, Note_on_c, 0, 71, 0
2, 42176, Note_on_c, 0, 57, 64
2, 42176, Note_on_c, 0, 72, 63
2, 42236, Note_on_c, 0, 72, 0
2, 42236, Note_on_c, 0, 57, 0
2, 42240, Note_on_c, 0, 71, 58
2, 42240, Note_on_c, 0, 62, 58
2, 42300, Note_on_c, 0, 62, 0
2, 42300, Note_on_c, 0, 71, 0
2, 42304, Note_on_c, 0, 72, 58
2, 42304, Note_on_c, 0, 60, 41
2, 42364, Note_on_c, 0, 60, 0
2, 42364, Note_on_c, 0, 72, 0
2, 42368, Note_on_c, 0, 74, 57
2, 42368, Note_on_c, 0, 59, 49
2, 42428, Note_on_c, 0, 59, 0
2, 42428, Note_on_c, 0, 74, 0
2, 42432, Note_on_c, 0, 69, 58
2, 42432, Note_on_c, 0, 60, 55
2, 42492, Note_on_c, 0, 60, 0
2, 42492, Note_on_c, 0, 69, 0
2, 42496, Note_on_c, 0, 71, 47
2, 42496, Note_on_c, 0, 59, 51
2, 42556, Note_on_c, 0, 59, 0
2, 42556, Note_on_c, 0, 71, 0
2, 42560, Note_on_c, 0, 72, 40
2, 42560, Note_on_c, 0, 57, 44
2, 42620, Note_on_c, 0, 57, 0
2, 42620, Note_on_c, 0, 72, 0
2, 42624, Note_on_c, 0, 79, 66
2, 42624, Note_on_c, 0, 71, 58
2, 42624, Note_on_c, 0, 55, 59
2, 42624, Note_on_c, 0, 59, 39
2, 42684, Note_on_c, 0, 59, 0
2, 42684, Note_on_c, 0, 79, 0
2, 42684, Note_on_c, 0, 71, 0
2, 42684, Note_on_c, 0, 55, 0
2, 42688, Note_on_c, 0, 81, 68
2, 42748, Note_on_c, 0, 81, 0
2, 42752, Note_on_c, 0, 79, 62
2, 42812, Note_on_c, 0, 79, 0
2, 42816, Note_on_c, 0, 78, 66
2, 42876, Note_on_c, 0, 78, 0
2, 42880, Note_on_c, 0, 79, 65
2, 42940, Note_on_c, 0, 79, 0
2, 42944, Note_on_c, 0, 78, 69
2, 43004, Note_on_c, 0, 78, 0
2, 43008, Note_on_c, 0, 79, 63
2, 43068, Note_on_c, 0, 79, 0
2, 43072, Note_on_c, 0, 81, 68
2, 43132, Note_on_c, 0, 81, 0
2, 43136, Note_on_c, 0, 79, 69
2, 43196, Note_on_c, 0, 79, 0
2, 43200, Note_on_c, 0, 78, 66
2, 43260, Note_on_c, 0, 78, 0
2, 43264, Note_on_c, 0, 79, 70
2, 43324, Note_on_c, 0, 79, 0
2, 43328, Note_on_c, 0, 78, 58
2, 43388, Note_on_c, 0, 78, 0
2, 43392, Note_on_c, 0, 79, 71
2, 43452, Note_on_c, 0, 79, 0
2, 43456, Note_on_c, 0, 81, 71
2, 43516, Note_on_c, 0, 81, 0
2, 43520, Note_on_c, 0, 79, 67
2, 43580, Note_on_c, 0, 79, 0
2, 43584, Note_on_c, 0, 77, 75
2, 43644, Note_on_c, 0, 77, 0
2, 43648, Note_on_c, 0, 79, 64
2, 43708, Note_on_c, 0, 79, 0
2, 43712, Note_on_c, 0, 77, 27
2, 43772, Note_on_c, 0, 77, 0
2, 43776, Note_on_c, 0, 76, 73
2, 43776, Program_c, 0, 0
2, 43812, Control_c, 0, 64, 127
2, 43964, Note_on_c, 0, 76, 0
2, 44160, Note_on_c, 0, 60, 90
2, 44220, Note_on_c, 0, 60, 0
2, 44224, Note_on_c, 0, 64, 94
2, 44284, Note_on_c, 0, 64, 0
2, 44288, Note_on_c, 0, 67, 105
2, 44348, Note_on_c, 0, 67, 0
2, 44352, Note_on_c, 0, 72, 90
2, 44412, Note_on_c, 0, 72, 0
2, 44416, Note_on_c, 0, 76, 100
2, 44476, Note_on_c, 0, 76, 0
2, 44480, Note_on_c, 0, 79, 97
2, 44540, Note_on_c, 0, 79, 0
2, 44544, Note_on_c, 0, 84, 107
2, 44604, Note_on_c, 0, 84, 0
2, 44900, Control_c, 0, 64, 0
2, 44928, Note_on_c, 0, 81, 107
2, 44988, Note_on_c, 0, 81, 0
2, 45312, Note_on_c, 0, 81, 107
2, 45504, Note_on_c, 0, 89, 124
2, 45756, Note_on_c, 0, 89, 0
2, 45756, Note_on_c, 0, 81, 0
2, 45760, Note_on_c, 0, 79, 75
2, 45760, Note_on_c, 0, 88, 84
2, 45820, Note_on_c, 0, 88, 0
2, 45820, Note_on_c, 0, 79, 0
2, 45824, Note_on_c, 0, 77, 77
2, 45824, Note_on_c, 0, 86, 78
2, 45884, Note_on_c, 0, 86, 0
2, 45884, Note_on_c, 0, 77, 0
2, 45888, Note_on_c, 0, 79, 76
2, 45888, Note_on_c, 0, 88, 74
2, 45948, Note_on_c, 0, 88, 0
2, 45948, Note_on_c, 0, 79, 0
2, 45952, Note_on_c, 0, 77, 79
2, 45952, Note_on_c, 0, 86, 78
2, 46012, Note_on_c, 0, 86, 0
2, 46012, Note_on_c, 0, 77, 0
2, 46016, Note_on_c, 0, 76, 81
2, 46016, Note_on_c, 0, 84, 81
2, 46076, Note_on_c, 0, 84, 0
2, 46076, Note_on_c, 0, 76, 0
2, 46080, Note_on_c, 0, 86, 73
2, 46080, Note_on_c, 0, 77, 79
2, 46080, Note_on_c, 0, 67, 71
2, 46140, Note_on_c, 0, 77, 0
2, 46140, Note_on_c, 0, 86, 0
2, 46144, Note_on_c, 0, 84, 78
2, 46144, Note_on_c, 0, 76, 80
2, 46204, Note_on_c, 0, 76, 0
2, 46204, Note_on_c, 0, 84, 0
2, 46208, Note_on_c, 0, 74, 66
2, 46208, Note_on_c, 0, 83, 72
2, 46268, Note_on_c, 0, 83, 0
2, 46268, Note_on_c, 0, 74, 0
2, 46272, Note_on_c, 0, 84, 77
2, 46272, Note_on_c, 0, 76, 40
2, 46332, Note_on_c, 0, 76, 0
2, 46332, Note_on_c, 0, 84, 0
2, 46336, Note_on_c, 0, 83, 75
2, 46336, Note_on_c, 0, 74, 61
2, 46396, Note_on_c, 0, 74, 0
2, 46396, Note_on_c, 0, 83, 0
2, 46400, Note_on_c, 0, 81, 73
2, 46400, Note_on_c, 0, 72, 40
2, 46460, Note_on_c, 0, 72, 0
2, 46460, Note_on_c, 0, 81, 0
2, 46464, Note_on_c, 0, 83, 79
2, 46464, Note_on_c, 0, 74, 70
2, 46524, Note_on_c, 0, 74, 0
2, 46524, Note_on_c, 0, 83, 0
2, 46528, Note_on_c, 0, 81, 73
2, 46528, Note_on_c, 0, 72, 64
2, 46588, Note_on_c, 0, 72, 0
2, 46588, Note_on_c, 0, 81, 0
2, 46592, Note_on_c, 0, 79, 76
2, 46592, Note_on_c, 0, 71, 57
2, 46652, Note_on_c, 0, 71, 0
2, 46652, Note_on_c, 0, 79, 0
2, 46656, Note_on_c, 0, 81, 71
2, 46656, Note_on_c, 0, 72, 64
2, 46716, Note_on_c, 0, 72, 0
2, 46716, Note_on_c, 0, 81, 0
2, 46720, Note_on_c, 0, 71, 59
2, 46720, Note_on_c, 0, 79, 85
2, 46780, Note_on_c, 0, 79, 0
2, 46780, Note_on_c, 0, 71, 0
2, 46784, Note_on_c, 0, 78, 80
2, 46784, Note_on_c, 0, 69, 50
2, 46844, Note_on_c, 0, 69, 0
2, 46844, Note_on_c, 0, 78, 0
2, 46848, Note_on_c, 0, 79, 78
2, 46848, Note_on_c, 0, 71, 72
2, 46908, Note_on_c, 0, 71, 0
2, 46908, Note_on_c, 0, 79, 0
2, 46908, Note_on_c, 0, 67, 0
2, 46912, Note_on_c, 0, 69, 58
2, 46912, Note_on_c, 0, 83, 75
2, 46972, Note_on_c, 0, 83, 0
2, 46972, Note_on_c, 0, 69, 0
2, 46976, Note_on_c, 0, 81, 67
2, 46976, Note_on_c, 0, 67, 76
2, 47036, Note_on_c, 0, 67, 0
2, 47036, Note_on_c, 0, 81, 0
2, 47040, Note_on_c, 0, 65, 75
2, 47040, Note_on_c, 0, 79, 63
2, 47100, Note_on_c, 0, 79, 0
2, 47100, Note_on_c, 0, 65, 0
2, 47104, Note_on_c, 0, 81, 75
2, 47104, Note_on_c, 0, 64, 67
2, 47164, Note_on_c, 0, 64, 0
2, 47164, Note_on_c, 0, 81, 0
2, 47168, Note_on_c, 0, 83, 64
2, 47168, Note_on_c, 0, 62, 60
2, 47228, Note_on_c, 0, 62, 0
2, 47228, Note_on_c, 0, 83, 0
2, 47232, Note_on_c, 0, 84, 74
2, 47232, Note_on_c, 0, 60, 59
2, 47268, Control_c, 0, 64, 127
2, 47292, Note_on_c, 0, 60, 0
2, 47292, Note_on_c, 0, 84, 0
2, 47424, Note_on_c, 0, 64, 69
2, 47424, Note_on_c, 0, 67, 69
2, 47424, Note_on_c, 0, 72, 57
2, 47424, Note_on_c, 0, 84, 85
2, 47468, Note_on_c, 0, 84, 0
2, 47468, Control_c, 0, 64, 0
2, 47472, Note_on_c, 0, 86, 81
2, 47484, Note_on_c, 0, 64, 0
2, 47484, Note_on_c, 0, 72, 0
2, 47484, Note_on_c, 0, 67, 0
2, 47516, Note_on_c, 0, 86, 0
2, 47520, Note_on_c, 0, 84, 89
2, 47544, Note_on_c, 0, 86, 83
2, 47564, Note_on_c, 0, 86, 0
2, 47564, Note_on_c, 0, 84, 0
2, 47568, Note_on_c, 0, 86, 82
2, 47584, Note_on_c, 0, 86, 84
2, 47592, Note_on_c, 0, 86, 79
2, 47612, Note_on_c, 0, 86, 0
2, 47612, Note_on_c, 0, 86, 0
2, 47612, Note_on_c, 0, 86, 0
2, 47616, Note_on_c, 0, 86, 109
2, 47652, Control_c, 0, 64, 127
2, 47676, Note_on_c, 0, 86, 0
2, 47808, Note_on_c, 0, 65, 67
2, 47808, Note_on_c, 0, 67, 73
2, 47808, Note_on_c, 0, 71, 64
2, 47808, Note_on_c, 0, 86, 87
2, 47852, Note_on_c, 0, 86, 0
2, 47852, Control_c, 0, 64, 0
2, 47856, Note_on_c, 0, 88, 85
2, 47868, Note_on_c, 0, 65, 0
2, 47868, Note_on_c, 0, 71, 0
2, 47868, Note_on_c, 0, 67, 0
2, 47900, Note_on_c, 0, 88, 0
2, 47904, Note_on_c, 0, 86, 88
2, 47928, Note_on_c, 0, 88, 73
2, 47948, Note_on_c, 0, 88, 0
2, 47948, Note_on_c, 0, 86, 0
2, 47952, Note_on_c, 0, 88, 89
2, 47968, Note_on_c, 0, 88, 85
2, 47976, Note_on_c, 0, 88, 79
2, 47996, Note_on_c, 0, 88, 0
2, 47996, Note_on_c, 0, 88, 0
2, 47996, Note_on_c, 0, 88, 0
2, 48000, Note_on_c, 0, 88, 79
2, 48036, Control_c, 0, 64, 127
2, 48188, Note_on_c, 0, 88, 0
2, 48192, Note_on_c, 0, 67, 39
2, 48192, Note_on_c, 0, 64, 41
2, 48192, Note_on_c, 0, 72, 43
2, 48192, Note_on_c, 0, 84, 77
2, 48220, Note_on_c, 0, 84, 0
2, 48236, Control_c, 0, 64, 0
2, 48252, Note_on_c, 0, 67, 0
2, 48252, Note_on_c, 0, 64, 0
2, 48252, Note_on_c, 0, 72, 0
2, 48384, Program_c, 0, 0
2, 48420, Control_c, 0, 64, 127
2, 48768, Note_on_c, 0, 60, 90
2, 48828, Note_on_c, 0, 60, 0
2, 48832, Note_on_c, 0, 64, 94
2, 48892, Note_on_c, 0, 64, 0
2, 48896, Note_on_c, 0, 67, 105
2, 48956, Note_on_c, 0, 67, 0
2, 48960, Note_on_c, 0, 72, 90
2, 49020, Note_on_c, 0, 72, 0
2, 49024, Note_on_c, 0, 76, 100
2, 49084, Note_on_c, 0, 76, 0
2, 49088, Note_on_c, 0, 79, 97
2, 49148, Note_on_c, 0, 79, 0
2, 49152, Note_on_c, 0, 84, 107
2, 49212, Note_on_c, 0, 84, 0
2, 49508, Control_c, 0, 64, 0
2, 49536, Note_on_c, 0, 81, 107
2, 49596, Note_on_c, 0, 81, 0
2, 49920, Note_on_c, 0, 81, 107
2, 50112, Note_on_c, 0, 89, 124
2, 50364, Note_on_c, 0, 89, 0
2, 50364, Note_on_c, 0, 81, 0
2, 50368, Note_on_c, 0, 79, 75
2, 50368, Note_on_c, 0, 88, 84
2, 50428, Note_on_c, 0, 88, 0
2, 50428, Note_on_c, 0, 79, 0
2, 50432, Note_on_c, 0, 77, 77
2, 50432, Note_on_c, 0, 86, 78
2, 50492, Note_on_c, 0, 86, 0
2, 50492, Note_on_c, 0, 77, 0
2, 50496, Note_on_c, 0, 79, 76
2, 50496, Note_on_c, 0, 88, 74
2, 50556, Note_on_c, 0, 88, 0
2, 50556, Note_on_c, 0, 79, 0
2, 50560, Note_on_c, 0, 77, 79
2, 50560, Note_on_c, 0, 86, 78
2, 50620, Note_on_c, 0, 86, 0
2, 50620, Note_on_c, 0, 77, 0
2, 50624, Note_on_c, 0, 76, 81
2, 50624, Note_on_c, 0, 84, 81
2, 50684, Note_on_c, 0, 84, 0
2, 50684, Note_on_c, 0, 76, 0
2, 50688, Note_on_c, 0, 86, 73
2, 50688, Note_on_c, 0, 77, 79
2, 50688, Note_on_c, 0, 67, 71
2, 50748, Note_on_c, 0, 77, 0
2, 50748, Note_on_c, 0, 86, 0
2, 50752, Note_on_c, 0, 84, 78
2, 50752, Note_on_c, 0, 76, 80
2, 50812, Note_on_c, 0, 76, 0
2, 50812, Note_on_c, 0, 84, 0
2, 50816, Note_on_c, 0, 74, 66
2, 50816, Note_on_c, 0, 83, 72
2, 50876, Note_on_c, 0, 83, 0
2, 50876, Note_on_c, 0, 74, 0
2, 50880, Note_on_c, 0, 84, 77
2, 50880, Note_on_c, 0, 76, 40
2, 50940, Note_on_c, 0, 76, 0
2, 50940, Note_on_c, 0, 84, 0
2, 50944, Note_on_c, 0, 83, 75
2, 50944, Note_on_c, 0, 74, 61
2, 51004, Note_on_c, 0, 74, 0
2, 51004, Note_on_c, 0, 83, 0
2, 51008, Note_on_c, 0, 81, 73
2, 51008, Note_on_c, 0, 72, 40
2, 51068, Note_on_c, 0, 72, 0
2, 51068, Note_on_c, 0, 81, 0
2, 51072, Note_on_c, 0, 83, 79
2, 51072, Note_on_c, 0, 74, 70
2, 51132, Note_on_c, 0, 74, 0
2, 51132, Note_on_c, 0, 83, 0
2, 51136, Note_on_c, 0, 81, 73
2, 51136, Note_on_c, 0, 72, 64
2, 51196, Note_on_c, 0, 72, 0
2, 51196, Note_on_c, 0, 81, 0
2, 51200, Note_on_c, 0, 79, 76
2, 51200, Note_on_c, 0, 71, 57
2, 51260, Note_on_c, 0, 71, 0
2, 51260, Note_on_c, 0, 79, 0
2, 51264, Note_on_c, 0, 81, 71
2, 51264, Note_on_c, 0, 72, 64
2, 51324, Note_on_c, 0, 72, 0
2, 51324, Note_on_c, 0, 81, 0
2, 51328, Note_on_c, 0, 71, 59
2, 51328, Note_on_c, 0, 79, 85
2, 51388, Note_on_c, 0, 79, 0
2, 51388, Note_on_c, 0, 71, 0
2, 51392, Note_on_c, 0, 78, 80
2, 51392, Note_on_c, 0, 69, 50
2, 51452, Note_on_c, 0, 69, 0
2, 51452, Note_on_c, 0, 78, 0
2, 51456, Note_on_c, 0, 79, 78
2, 51456, Note_on_c, 0, 71, 72
2, 51516, Note_on_c, 0, 71, 0
2, 51516, Note_on_c, 0, 79, 0
2, 51516, Note_on_c, 0, 67, 0
2, 51520, Note_on_c, 0, 69, 58
2, 51520, Note_on_c, 0, 83, 75
2, 51580, Note_on_c, 0, 83, 0
2, 51580, Note_on_c, 0, 69, 0
2, 51584, Note_on_c, 0, 81, 67
2, 51584, Note_on_c, 0, 67, 76
2, 51644, Note_on_c, 0, 67, 0
2, 51644, Note_on_c, 0, 81, 0
2, 51648, Note_on_c, 0, 65, 75
2, 51648, Note_on_c, 0, 79, 63
2, 51708, Note_on_c, 0, 79, 0
2, 51708, Note_on_c, 0, 65, 0
2, 51712, Note_on_c, 0, 81, 75
2, 51712, Note_on_c, 0, 64, 67
2, 51772, Note_on_c, 0, 64, 0
2, 51772, Note_on_c, 0, 81, 0
2, 51776, Note_on_c, 0, 83, 64
2, 51776, Note_on_c, 0, 62, 60
2, 51836, Note_on_c, 0, 62, 0
2, 51836, Note_on_c, 0, 83, 0
2, 51840, Note_on_c, 0, 84, 74
2, 51840, Note_on_c, 0, 60, 59
2, 51876, Control_c, 0, 64, 127
2, 51900, Note_on_c, 0, 60, 0
2, 51900, Note_on_c, 0, 84, 0
2, 52032, Note_on_c, 0, 64, 69
2, 52032, Note_on_c, 0, 67, 69
2, 52032, Note_on_c, 0, 72, 57
2, 52032, Note_on_c, 0, 84, 85
2, 52076, Note_on_c, 0, 84, 0
2, 52076, Control_c, 0, 64, 0
2, 52080, Note_on_c, 0, 86, 81
2, 52092, Note_on_c, 0, 64, 0
2, 52092, Note_on_c, 0, 72, 0
2, 52092, Note_on_c, 0, 67, 0
2, 52124, Note_on_c, 0, 86, 0
2, 52128, Note_on_c, 0, 84, 89
2, 52152, Note_on_c, 0, 86, 83
2, 52172, Note_on_c, 0, 86, 0
2, 52172, Note_on_c, 0, 84, 0
2, 52176, Note_on_c, 0, 86, 82
2, 52192, Note_on_c, 0, 86, 84
2, 52200, Note_on_c, 0, 86, 79
2, 52220, Note_on_c, 0, 86, 0
2, 52220, Note_on_c, 0, 86, 0
2, 52220, Note_on_c, 0, 86, 0
2, 52224, Note_on_c, 0, 86, 109
2, 52260, Control_c, 0, 64, 127
2, 52284, Note_on_c, 0, 86, 0
2, 52416, Note_on_c, 0, 65, 67
2, 52416, Note_on_c, 0, 67, 73
2, 52416, Note_on_c, 0, 71, 64
2, 52416, Note_on_c, 0, 86, 87
2, 52460, Note_on_c, 0, 86, 0
2, 52460, Control_c, 0, 64, 0
2, 52464, Note_on_c, 0, 88, 85
2, 52476, Note_on_c, 0, 65, 0
2, 52476, Note_on_c, 0, 71, 0
2, 52476, Note_on_c, 0, 67, 0
2, 52508, Note_on_c, 0, 88, 0
2, 52512, Note_on_c, 0, 86, 88
2, 52536, Note_on_c, 0, 88, 73
2, 52556, Note_on_c, 0, 88, 0
2, 52556, Note_on_c, 0, 86, 0
2, 52560, Note_on_c, 0, 88, 89
2, 52576, Note_on_c, 0, 88, 85
2, 52584, Note_on_c, 0, 88, 79
2, 52604, Note_on_c, 0, 88, 0
2, 52604, Note_on_c, 0, 88, 0
2, 52604, Note_on_c, 0, 88, 0
2, 52608, Note_on_c, 0, 88, 79
2, 52644, Control_c, 0, 64, 127
2, 52796, Note_on_c, 0, 88, 0
2, 52800, Note_on_c, 0, 55, 39
2, 52844, Control_c, 0, 64, 0
2, 52860, Note_on_c, 0, 55, 0
2, 52992, Control_c, 0, 64, 127
2, 53564, Control_c, 0, 64, 0
2, 54144, Note_on_c, 0, 68, 85
2, 54144, Note_on_c, 0, 56, 84
2, 54144, Control_c, 0, 64, 127
2, 54716, Note_on_c, 0, 56, 0
2, 54716, Note_on_c, 0, 68, 0
2, 54716, Control_c, 0, 64, 0
2, 54720, Note_on_c, 0, 67, 68
2, 54720, Note_on_c, 0, 55, 73
2, 54908, Note_on_c, 0, 55, 0
2, 54908, Note_on_c, 0, 67, 0
2, 54912, Note_on_c, 0, 65, 51
2, 54912, Note_on_c, 0, 53, 66
2, 54972, Note_on_c, 0, 53, 0
2, 54972, Note_on_c, 0, 65, 0
2, 55296, Control_c, 0, 64, 127
2, 55868, Control_c, 0, 64, 0
2, 55872, Note_on_c, 0, 61, 65
2, 55872, Note_on_c, 0, 49, 61
2, 56060, Note_on_c, 0, 49, 0
2, 56060, Note_on_c, 0, 61, 0
2, 56064, Note_on_c, 0, 50, 85
2, 56064, Note_on_c, 0, 62, 74
2, 56124, Note_on_c, 0, 62, 0
2, 56124, Note_on_c, 0, 50, 0
2, 56256, Note_on_c, 0, 46, 83
2, 56256, Note_on_c, 0, 58, 82
2, 56316, Note_on_c, 0, 58, 0
2, 56316, Note_on_c, 0, 46, 0
2, 56448, Note_on_c, 0, 58, 87
2, 56448, Note_on_c, 0, 70, 77
2, 56448, Control_c, 0, 64, 127
2, 57020, Note_on_c, 0, 70, 0
2, 57020, Note_on_c, 0, 58, 0
2, 57020, Control_c, 0, 64, 0
2, 57024, Note_on_c, 0, 56, 71
2, 57024, Note_on_c, 0, 68, 49
2, 57212, Note_on_c, 0, 68, 0
2, 57212, Note_on_c, 0, 56, 0
2, 57216, Note_on_c, 0, 55, 80
2, 57216, Note_on_c, 0, 67, 55
2, 57276, Note_on_c, 0, 67, 0
2, 57276, Note_on_c, 0, 55, 0
2, 57408, Note_on_c, 0, 65, 63
2, 57408, Note_on_c, 0, 53, 75
2, 57468, Note_on_c, 0, 53, 0
2, 57468, Note_on_c, 0, 65, 0
2, 57600, Note_on_c, 0, 64, 54
2, 57600, Note_on_c, 0, 52, 63
2, 57600, Control_c, 0, 64, 127
2, 58172, Note_on_c, 0, 52, 0
2, 58172, Note_on_c, 0, 64, 0
2, 58172, Control_c, 0, 64, 0
2, 58176, Note_on_c, 0, 51, 65
2, 58176, Note_on_c, 0, 63, 53
2, 58364, Note_on_c, 0, 63, 0
2, 58364, Note_on_c, 0, 51, 0
2, 58368, Note_on_c, 0, 52, 79
2, 58368, Note_on_c, 0, 64, 69
2, 58428, Note_on_c, 0, 64, 0
2, 58428, Note_on_c, 0, 52, 0
2, 58560, Note_on_c, 0, 48, 83
2, 58560, Note_on_c, 0, 60, 70
2, 58620, Note_on_c, 0, 60, 0
2, 58620, Note_on_c, 0, 48, 0
2, 58752, Note_on_c, 0, 72, 76
2, 58752, Note_on_c, 0, 60, 70
2, 59324, Note_on_c, 0, 60, 0
2, 59324, Note_on_c, 0, 72, 0
2, 59328, Note_on_c, 0, 70, 72
2, 59328, Note_on_c, 0, 58, 63
2, 59516, Note_on_c, 0, 58, 0
2, 59516, Note_on_c, 0, 70, 0
2, 59520, Note_on_c, 0, 68, 73
2, 59520, Note_on_c, 0, 56, 70
2, 59580, Note_on_c, 0, 56, 0
2, 59580, Note_on_c, 0, 68, 0
2, 59712, Note_on_c, 0, 67, 75
2, 59712, Note_on_c, 0, 55, 59
2, 59772, Note_on_c, 0, 55, 0
2, 59772, Note_on_c, 0, 67, 0
2, 59904, Note_on_c, 0, 66, 82
2, 59904, Note_on_c, 0, 54, 75
2, 60028, Note_on_c, 0, 54, 0
2, 60028, Note_on_c, 0, 66, 0
2, 60288, Note_on_c, 0, 66, 92
2, 60288, Note_on_c, 0, 54, 82
2, 60412, Note_on_c, 0, 54, 0
2, 60412, Note_on_c, 0, 66, 0
2, 60672, Note_on_c, 0, 66, 101
2, 60672, Note_on_c, 0, 54, 89
2, 60796, Note_on_c, 0, 54, 0
2, 60796, Note_on_c, 0, 66, 0
2, 61092, Control_c, 0, 64, 127
2, 61628, Control_c, 0, 64, 0
2, 62016, Note_on_c, 0, 77, 92
2, 62016, Note_on_c, 0, 65, 77
2, 62076, Note_on_c, 0, 65, 0
2, 62076, Note_on_c, 0, 77, 0
2, 62208, Note_on_c, 0, 75, 69
2, 62208, Note_on_c, 0, 63, 46
2, 62244, Control_c, 0, 64, 127
2, 62780, Note_on_c, 0, 63, 0
2, 62780, Note_on_c, 0, 75, 0
2, 62780, Control_c, 0, 64, 0
2, 62784, Note_on_c, 0, 71, 60
2, 62784, Note_on_c, 0, 59, 60
2, 62972, Note_on_c, 0, 59, 0
2, 62972, Note_on_c, 0, 71, 0
2, 62976, Note_on_c, 0, 72, 60
2, 62976, Note_on_c, 0, 60, 49
2, 63036, Note_on_c, 0, 60, 0
2, 63036, Note_on_c, 0, 72, 0
2, 63168, Note_on_c, 0, 68, 47
2, 63168, Note_on_c, 0, 56, 41
2, 63228, Note_on_c, 0, 56, 0
2, 63228, Note_on_c, 0, 68, 0
2, 63360, Note_on_c, 0, 67, 77
2, 63360, Note_on_c, 0, 55, 57
2, 63396, Control_c, 0, 64, 127
2, 63932, Note_on_c, 0, 55, 0
2, 63932, Note_on_c, 0, 67, 0
2, 63932, Control_c, 0, 64, 0
2, 63936, Note_on_c, 0, 66, 63
2, 63936, Note_on_c, 0, 54, 59
2, 64124, Note_on_c, 0, 54, 0
2, 64124, Note_on_c, 0, 66, 0
2, 64128, Note_on_c, 0, 67, 79
2, 64128, Note_on_c, 0, 55, 78
2, 64188, Note_on_c, 0, 55, 0
2, 64188, Note_on_c, 0, 67, 0
2, 64320, Note_on_c, 0, 77, 87
2, 64320, Note_on_c, 0, 65, 70
2, 64380, Note_on_c, 0, 65, 0
2, 64380, Note_on_c, 0, 77, 0
2, 64512, Note_on_c, 0, 63, 79
2, 64512, Note_on_c, 0, 75, 88
2, 64548, Control_c, 0, 64, 127
2, 65084, Note_on_c, 0, 75, 0
2, 65084, Note_on_c, 0, 63, 0
2, 65084, Control_c, 0, 64, 0
2, 65088, Note_on_c, 0, 71, 75
2, 65088, Note_on_c, 0, 59, 70
2, 65276, Note_on_c, 0, 59, 0
2, 65276, Note_on_c, 0, 71, 0
2, 65280, Note_on_c, 0, 72, 70
2, 65280, Note_on_c, 0, 60, 59
2, 65340, Note_on_c, 0, 60, 0
2, 65340, Note_on_c, 0, 72, 0
2, 65472, Note_on_c, 0, 68, 63
2, 65472, Note_on_c, 0, 56, 48
2, 65532, Note_on_c, 0, 56, 0
2, 65532, Note_on_c, 0, 68, 0
2, 65700, Control_c, 0, 64, 127
2, 66432, Note_on_c, 0, 31, 66
2, 66432, Note_on_c, 0, 79, 83
2, 66492, Note_on_c, 0, 79, 0
2, 66492, Note_on_c, 0, 31, 0
2, 66496, Note_on_c, 0, 74, 94
2, 66496, Note_on_c, 0, 35, 77
2, 66556, Note_on_c, 0, 35, 0
2, 66556, Note_on_c, 0, 74, 0
2, 66560, Note_on_c, 0, 71, 88
2, 66560, Note_on_c, 0, 38, 78
2, 66620, Note_on_c, 0, 38, 0
2, 66620, Note_on_c, 0, 71, 0
2, 66624, Note_on_c, 0, 67, 93
2, 66624, Note_on_c, 0, 43, 77
2, 66684, Note_on_c, 0, 43, 0
2, 66684, Note_on_c, 0, 67, 0
2, 66752, Note_on_c, 0, 74, 108
2, 66752, Note_on_c, 0, 35, 94
2, 66812, Note_on_c, 0, 35, 0
2, 66812, Note_on_c, 0, 74, 0
2, 66944, Note_on_c, 0, 71, 83
2, 66944, Note_on_c, 0, 38, 67
2, 67004, Note_on_c, 0, 38, 0
2, 67004, Note_on_c, 0, 71, 0
2, 67136, Note_on_c, 0, 74, 97
2, 67136, Note_on_c, 0, 35, 84
2, 67196, Note_on_c, 0, 35, 0
2, 67196, Note_on_c, 0, 74, 0
2, 67328, Note_on_c, 0, 71, 89
2, 67328, Note_on_c, 0, 38, 85
2, 67388, Note_on_c, 0, 38, 0
2, 67388, Note_on_c, 0, 71, 0
2, 67456, Note_on_c, 0, 71, 93
2, 67456, Note_on_c, 0, 38, 87
2, 67516, Note_on_c, 0, 38, 0
2, 67516, Note_on_c, 0, 71, 0
2, 67520, Note_on_c, 0, 74, 104
2, 67520, Note_on_c, 0, 35, 95
2, 67580, Note_on_c, 0, 35, 0
2, 67580, Note_on_c, 0, 74, 0
2, 67712, Note_on_c, 0, 38, 83
2, 67712, Note_on_c, 0, 71, 89
2, 67772, Note_on_c, 0, 71, 0
2, 67772, Note_on_c, 0, 38, 0
2, 67776, Note_on_c, 0, 43, 79
2, 67776, Note_on_c, 0, 67, 97
2, 67836, Note_on_c, 0, 67, 0
2, 67836, Note_on_c, 0, 43, 0
2, 67840, Note_on_c, 0, 71, 95
2, 67840, Note_on_c, 0, 38, 90
2, 67900, Note_on_c, 0, 38, 0
2, 67900, Note_on_c, 0, 71, 0
2, 67904, Note_on_c, 0, 74, 105
2, 67904, Note_on_c, 0, 35, 97
2, 67964, Note_on_c, 0, 35, 0
2, 67964, Note_on_c, 0, 74, 0
2, 67968, Note_on_c, 0, 31, 108
2, 67968, Note_on_c, 0, 67, 127
2, 67968, Note_on_c, 0, 79, 125
2, 67968, Note_on_c, 0, 43, 124
2, 69092, Control_c, 0, 64, 0
2, 69116, Note_on_c, 0, 43, 0
2, 69116, Note_on_c, 0, 31, 0
2, 69116, Note_on_c, 0, 67, 0
2, 69116, Note_on_c, 0, 79, 0
2, 69632, Note_on_c, 0, 65, 62
2, 69632, Note_on_c, 0, 53, 56
2, 69692, Note_on_c, 0, 53, 0
2, 69692, Note_on_c, 0, 65, 0
2, 69696, Note_on_c, 0, 52, 54
2, 69696, Note_on_c, 0, 64, 54
2, 69756, Note_on_c, 0, 64, 0
2, 69756, Note_on_c, 0, 52, 0
2, 69760, Note_on_c, 0, 62, 60
2, 69760, Note_on_c, 0, 50, 47
2, 69820, Note_on_c, 0, 50, 0
2, 69820, Note_on_c, 0, 62, 0
2, 69888, Note_on_c, 0, 59, 54
2, 69888, Note_on_c, 0, 47, 55
2, 69948, Note_on_c, 0, 47, 0
2, 69948, Note_on_c, 0, 59, 0
2, 69952, Note_on_c, 0, 57, 67
2, 69952, Note_on_c, 0, 45, 42
2, 70012, Note_on_c, 0, 45, 0
2, 70012, Note_on_c, 0, 57, 0
2, 70272, Program_c, 0, 0
2, 70308, Control_c, 0, 64, 127
2, 70464, Note_on_c, 0, 60, 68
2, 70524, Note_on_c, 0, 60, 0
2, 70528, Note_on_c, 0, 64, 66
2, 70588, Note_on_c, 0, 64, 0
2, 70592, Note_on_c, 0, 67, 86
2, 70652, Note_on_c, 0, 67, 0
2, 70656, Note_on_c, 0, 60, 90
2, 70656, Note_on_c, 0, 72, 88
2, 70716, Note_on_c, 0, 72, 0
2, 70716, Note_on_c, 0, 60, 0
2, 70720, Note_on_c, 0, 64, 94
2, 70720, Note_on_c, 0, 76, 90
2, 70780, Note_on_c, 0, 76, 0
2, 70780, Note_on_c, 0, 64, 0
2, 70784, Note_on_c, 0, 67, 105
2, 70784, Note_on_c, 0, 79, 100
2, 70844, Note_on_c, 0, 79, 0
2, 70844, Note_on_c, 0, 67, 0
2, 70848, Note_on_c, 0, 72, 90
2, 70908, Note_on_c, 0, 72, 0
2, 70912, Note_on_c, 0, 76, 100
2, 70972, Note_on_c, 0, 76, 0
2, 70976, Note_on_c, 0, 79, 97
2, 71036, Note_on_c, 0, 79, 0
2, 71040, Note_on_c, 0, 84, 107
2, 71100, Note_on_c, 0, 84, 0
2, 71396, Control_c, 0, 64, 0
2, 71424, Note_on_c, 0, 81, 107
2, 71484, Note_on_c, 0, 81, 0
2, 71808, Note_on_c, 0, 81, 107
2, 72000, Note_on_c, 0, 89, 124
2, 72252, Note_on_c, 0, 89, 0
2, 72252, Note_on_c, 0, 81, 0
2, 72256, Note_on_c, 0, 79, 75
2, 72256, Note_on_c, 0, 88, 84
2, 72316, Note_on_c, 0, 88, 0
2, 72316, Note_on_c, 0, 79, 0
2, 72320, Note_on_c, 0, 77, 77
2, 72320, Note_on_c, 0, 86, 78
2, 72380, Note_on_c, 0, 86, 0
2, 72380, Note_on_c, 0, 77, 0
2, 72384, Note_on_c, 0, 79, 76
2, 72384, Note_on_c, 0, 88, 74
2, 72444, Note_on_c, 0, 88, 0
2, 72444, Note_on_c, 0, 79, 0
2, 72448, Note_on_c, 0, 77, 79
2, 72448, Note_on_c, 0, 86, 78
2, 72508, Note_on_c, 0, 86, 0
2, 72508, Note_on_c, 0, 77, 0
2, 72512, Note_on_c, 0, 76, 81
2, 72512, Note_on_c, 0, 84, 81
2, 72572, Note_on_c, 0, 84, 0
2, 72572, Note_on_c, 0, 76, 0
2, 72576, Note_on_c, 0, 86, 73
2, 72576, Note_on_c, 0, 77, 79
2, 72576, Note_on_c, 0, 67, 71
2, 72636, Note_on_c, 0, 77, 0
2, 72636, Note_on_c, 0, 86, 0
2, 72640, Note_on_c, 0, 84, 78
2, 72640, Note_on_c, 0, 76, 80
2, 72700, Note_on_c, 0, 76, 0
2, 72700, Note_on_c, 0, 84, 0
2, 72704, Note_on_c, 0, 74, 66
2, 72704, Note_on_c, 0, 83, 72
2, 72764, Note_on_c, 0, 83, 0
2, 72764, Note_on_c, 0, 74, 0
2, 72768, Note_on_c, 0, 84, 77
2, 72768, Note_on_c, 0, 76, 40
2, 72828, Note_on_c, 0, 76, 0
2, 72828, Note_on_c, 0, 84, 0
2, 72832, Note_on_c, 0, 83, 75
2, 72832, Note_on_c, 0, 74, 61
2, 72892, Note_on_c, 0, 74, 0
2, 72892, Note_on_c, 0, 83, 0
2, 72896, Note_on_c, 0, 81, 73
2, 72896, Note_on_c, 0, 72, 40
2, 72956, Note_on_c, 0, 72, 0
2, 72956, Note_on_c, 0, 81, 0
2, 72960, Note_on_c, 0, 83, 79
2, 72960, Note_on_c, 0, 74, 70
2, 73020, Note_on_c, 0, 74, 0
2, 73020, Note_on_c, 0, 83, 0
2, 73024, Note_on_c, 0, 81, 73
2, 73024, Note_on_c, 0, 72, 64
2, 73084, Note_on_c, 0, 72, 0
2, 73084, Note_on_c, 0, 81, 0
2, 73088, Note_on_c, 0, 79, 76
2, 73088, Note_on_c, 0, 71, 57
2, 73148, Note_on_c, 0, 71, 0
2, 73148, Note_on_c, 0, 79, 0
2, 73152, Note_on_c, 0, 81, 71
2, 73152, Note_on_c, 0, 72, 64
2, 73212, Note_on_c, 0, 72, 0
2, 73212, Note_on_c, 0, 81, 0
2, 73216, Note_on_c, 0, 71, 59
2, 73216, Note_on_c, 0, 79, 85
2, 73276, Note_on_c, 0, 79, 0
2, 73276, Note_on_c, 0, 71, 0
2, 73280, Note_on_c, 0, 78, 80
2, 73280, Note_on_c, 0, 69, 50
2, 73340, Note_on_c, 0, 69, 0
2, 73340, Note_on_c, 0, 78, 0
2, 73344, Note_on_c, 0, 79, 78
2, 73344, Note_on_c, 0, 71, 72
2, 73404, Note_on_c, 0, 71, 0
2, 73404, Note_on_c, 0, 79, 0
2, 73404, Note_on_c, 0, 67, 0
2, 73408, Note_on_c, 0, 69, 58
2, 73408, Note_on_c, 0, 83, 75
2, 73468, Note_on_c, 0, 83, 0
2, 73468, Note_on_c, 0, 69, 0
2, 73472, Note_on_c, 0, 81, 67
2, 73472, Note_on_c, 0, 67, 76
2, 73532, Note_on_c, 0, 67, 0
2, 73532, Note_on_c, 0, 81, 0
2, 73536, Note_on_c, 0, 65, 75
2, 73536, Note_on_c, 0, 79, 63
2, 73596, Note_on_c, 0, 79, 0
2, 73596, Note_on_c, 0, 65, 0
2, 73600, Note_on_c, 0, 81, 75
2, 73600, Note_on_c, 0, 64, 67
2, 73660, Note_on_c, 0, 64, 0
2, 73660, Note_on_c, 0, 81, 0
2, 73664, Note_on_c, 0, 83, 64
2, 73664, Note_on_c, 0, 62, 60
2, 73724, Note_on_c, 0, 62, 0
2, 73724, Note_on_c, 0, 83, 0
2, 73728, Note_on_c, 0, 84, 74
2, 73728, Note_on_c, 0, 60, 59
2, 73764, Control_c, 0, 64, 127
2, 73788, Note_on_c, 0, 60, 0
2, 73788, Note_on_c, 0, 84, 0
2, 73920, Note_on_c, 0, 64, 69
2, 73920, Note_on_c, 0, 67, 69
2, 73920, Note_on_c, 0, 72, 57
2, 73920, Note_on_c, 0, 84, 85
2, 73964, Note_on_c, 0, 84, 0
2, 73964, Control_c, 0, 64, 0
2, 73968, Note_on_c, 0, 86, 81
2, 73980, Note_on_c, 0, 64, 0
2, 73980, Note_on_c, 0, 72, 0
2, 73980, Note_on_c, 0, 67, 0
2, 74012, Note_on_c, 0, 86, 0
2, 74016, Note_on_c, 0, 84, 89
2, 74040, Note_on_c, 0, 86, 83
2, 74060, Note_on_c, 0, 86, 0
2, 74060, Note_on_c, 0, 84, 0
2, 74064, Note_on_c, 0, 86, 82
2, 74080, Note_on_c, 0, 86, 84
2, 74088, Note_on_c, 0, 86, 79
2, 74108, Note_on_c, 0, 86, 0
2, 74108, Note_on_c, 0, 86, 0
2, 74108, Note_on_c, 0, 86, 0
2, 74112, Note_on_c, 0, 86, 109
2, 74148, Control_c, 0, 64, 127
2, 74172, Note_on_c, 0, 86, 0
2, 74304, Note_on_c, 0, 65, 67
2, 74304, Note_on_c, 0, 67, 73
2, 74304, Note_on_c, 0, 71, 64
2, 74304, Note_on_c, 0, 86, 87
2, 74348, Note_on_c, 0, 86, 0
2, 74348, Control_c, 0, 64, 0
2, 74352, Note_on_c, 0, 88, 85
2, 74364, Note_on_c, 0, 65, 0
2, 74364, Note_on_c, 0, 71, 0
2, 74364, Note_on_c, 0, 67, 0
2, 74396, Note_on_c, 0, 88, 0
2, 74400, Note_on_c, 0, 86, 88
2, 74424, Note_on_c, 0, 88, 73
2, 74444, Note_on_c, 0, 88, 0
2, 74444, Note_on_c, 0, 86, 0
2, 74448, Note_on_c, 0, 88, 89
2, 74464, Note_on_c, 0, 88, 85
2, 74472, Note_on_c, 0, 88, 79
2, 74492, Note_on_c, 0, 88, 0
2, 74492, Note_on_c, 0, 88, 0
2, 74492, Note_on_c, 0, 88, 0
2, 74496, Note_on_c, 0, 88, 79
2, 74532, Control_c, 0, 64, 127
2, 74684, Note_on_c, 0, 88, 0
2, 74688, Note_on_c, 0, 67, 39
2, 74688, Note_on_c, 0, 64, 41
2, 74688, Note_on_c, 0, 72, 43
2, 74688, Note_on_c, 0, 84, 77
2, 74716, Note_on_c, 0, 84, 0
2, 74732, Control_c, 0, 64, 0
2, 74748, Note_on_c, 0, 67, 0
2, 74748, Note_on_c, 0, 64, 0
2, 74748, Note_on_c, 0, 72, 0
2, 74880, Program_c, 0, 0
2, 74916, Control_c, 0, 64, 127
2, 75264, Note_on_c, 0, 60, 90
2, 75324, Note_on_c, 0, 60, 0
2, 75328, Note_on_c, 0, 64, 94
2, 75388, Note_on_c, 0, 64, 0
2, 75392, Note_on_c, 0, 67, 105
2, 75452, Note_on_c, 0, 67, 0
2, 75456, Note_on_c, 0, 72, 90
2, 75516, Note_on_c, 0, 72, 0
2, 75520, Note_on_c, 0, 76, 100
2, 75580, Note_on_c, 0, 76, 0
2, 75584, Note_on_c, 0, 79, 97
2, 75644, Note_on_c, 0, 79, 0
2, 75648, Note_on_c, 0, 84, 107
2, 75708, Note_on_c, 0, 84, 0
2, 76004, Control_c, 0, 64, 0
2, 76032, Note_on_c, 0, 81, 107
2, 76092, Note_on_c, 0, 81, 0
2, 76416, Note_on_c, 0, 81, 107
2, 76608, Note_on_c, 0, 89, 124
2, 76860, Note_on_c, 0, 89, 0
2, 76860, Note_on_c, 0, 81, 0
2, 76864, Note_on_c, 0, 79, 75
2, 76864, Note_on_c, 0, 88, 84
2, 76924, Note_on_c, 0, 88, 0
2, 76924, Note_on_c, 0, 79, 0
2, 76928, Note_on_c, 0, 77, 77
2, 76928, Note_on_c, 0, 86, 78
2, 76988, Note_on_c, 0, 86, 0
2, 76988, Note_on_c, 0, 77, 0
2, 76992, Note_on_c, 0, 79, 76
2, 76992, Note_on_c, 0, 88, 74
2, 77052, Note_on_c, 0, 88, 0
2, 77052, Note_on_c, 0, 79, 0
2, 77056, Note_on_c, 0, 77, 79
2, 77056, Note_on_c, 0, 86, 78
2, 77116, Note_on_c, 0, 86, 0
2, 77116, Note_on_c, 0, 77, 0
2, 77120, Note_on_c, 0, 76, 81
2, 77120, Note_on_c, 0, 84, 81
2, 77180, Note_on_c, 0, 84, 0
2, 77180, Note_on_c, 0, 76, 0
2, 77184, Note_on_c, 0, 86, 73
2, 77184, Note_on_c, 0, 77, 79
2, 77184, Note_on_c, 0, 67, 71
2, 77244, Note_on_c, 0, 77, 0
2, 77244, Note_on_c, 0, 86, 0
2, 77248, Note_on_c, 0, 84, 78
2, 77248, Note_on_c, 0, 76, 80
2, 77308, Note_on_c, 0, 76, 0
2, 77308, Note_on_c, 0, 84, 0
2, 77312, Note_on_c, 0, 74, 66
2, 77312, Note_on_c, 0, 83, 72
2, 77372, Note_on_c, 0, 83, 0
2, 77372, Note_on_c, 0, 74, 0
2, 77376, Note_on_c, 0, 84, 77
2, 77376, Note_on_c, 0, 76, 40
2, 77436, Note_on_c, 0, 76, 0
2, 77436, Note_on_c, 0, 84, 0
2, 77440, Note_on_c, 0, 83, 75
2, 77440, Note_on_c, 0, 74, 61
2, 77500, Note_on_c, 0, 74, 0
2, 77500, Note_on_c, 0, 83, 0
2, 77504, Note_on_c, 0, 81, 73
2, 77504, Note_on_c, 0, 72, 40
2, 77564, Note_on_c, 0, 72, 0
2, 77564, Note_on_c, 0, 81, 0
2, 77568, Note_on_c, 0, 83, 79
2, 77568, Note_on_c, 0, 74, 70
2, 77628, Note_on_c, 0, 74, 0
2, 77628, Note_on_c, 0, 83, 0
2, 77632, Note_on_c, 0, 81, 73
2, 77632, Note_on_c, 0, 72, 64
2, 77692, Note_on_c, 0, 72, 0
2, 77692, Note_on_c, 0, 81, 0
2, 77696, Note_on_c, 0, 79, 76
2, 77696, Note_on_c, 0, 71, 57
2, 77756, Note_on_c, 0, 71, 0
2, 77756, Note_on_c, 0, 79, 0
2, 77760, Note_on_c, 0, 81, 71
2, 77760, Note_on_c, 0, 72, 64
2, 77820, Note_on_c, 0, 72, 0
2, 77820, Note_on_c, 0, 81, 0
2, 77824, Note_on_c, 0, 71, 59
2, 77824, Note_on_c, 0, 79, 85
2, 77884, Note_on_c, 0, 79, 0
2, 77884, Note_on_c, 0, 71, 0
2, 77888, Note_on_c, 0, 78, 80
2, 77888, Note_on_c, 0, 69, 50
2, 77948, Note_on_c, 0, 69, 0
2, 77948, Note_on_c, 0, 78, 0
2, 77952, Note_on_c, 0, 79, 78
2, 77952, Note_on_c, 0, 71, 72
2, 78012, Note_on_c, 0, 71, 0
2, 78012, Note_on_c, 0, 79, 0
2, 78012, Note_on_c, 0, 67, 0
2, 78016, Note_on_c, 0, 69, 58
2, 78016, Note_on_c, 0, 83, 75
2, 78076, Note_on_c, 0, 83, 0
2, 78076, Note_on_c, 0, 69, 0
2, 78080, Note_on_c, 0, 81, 67
2, 78080, Note_on_c, 0, 67, 76
2, 78140, Note_on_c, 0, 67, 0
2, 78140, Note_on_c, 0, 81, 0
2, 78144, Note_on_c, 0, 65, 75
2, 78144, Note_on_c, 0, 79, 63
2, 78204, Note_on_c, 0, 79, 0
2, 78204, Note_on_c, 0, 65, 0
2, 78208, Note_on_c, 0, 81, 75
2, 78208, Note_on_c, 0, 64, 67
2, 78268, Note_on_c, 0, 64, 0
2, 78268, Note_on_c, 0, 81, 0
2, 78272, Note_on_c, 0, 83, 64
2, 78272, Note_on_c, 0, 62, 60
2, 78332, Note_on_c, 0, 62, 0
2, 78332, Note_on_c, 0, 83, 0
2, 78336, Note_on_c, 0, 84, 74
2, 78336, Note_on_c, 0, 60, 59
2, 78372, Control_c, 0, 64, 127
2, 78396, Note_on_c, 0, 60, 0
2, 78396, Note_on_c, 0, 84, 0
2, 78528, Note_on_c, 0, 64, 69
2, 78528, Note_on_c, 0, 67, 69
2, 78528, Note_on_c, 0, 72, 57
2, 78528, Note_on_c, 0, 84, 85
2, 78572, Note_on_c, 0, 84, 0
2, 78572, Control_c, 0, 64, 0
2, 78576, Note_on_c, 0, 86, 81
2, 78588, Note_on_c, 0, 64, 0
2, 78588, Note_on_c, 0, 72, 0
2, 78588, Note_on_c, 0, 67, 0
2, 78620, Note_on_c, 0, 86, 0
2, 78624, Note_on_c, 0, 84, 89
2, 78648, Note_on_c, 0, 86, 83
2, 78668, Note_on_c, 0, 86, 0
2, 78668, Note_on_c, 0, 84, 0
2, 78672, Note_on_c, 0, 86, 82
2, 78688, Note_on_c, 0, 86, 84
2, 78696, Note_on_c, 0, 86, 79
2, 78716, Note_on_c, 0, 86, 0
2, 78716, Note_on_c, 0, 86, 0
2, 78716, Note_on_c, 0, 86, 0
2, 78720, Note_on_c, 0, 86, 109
2, 78756, Control_c, 0, 64, 127
2, 78780, Note_on_c, 0, 86, 0
2, 78912, Note_on_c, 0, 65, 67
2, 78912, Note_on_c, 0, 67, 73
2, 78912, Note_on_c, 0, 71, 64
2, 78912, Note_on_c, 0, 86, 87
2, 78956, Note_on_c, 0, 86, 0
2, 78956, Control_c, 0, 64, 0
2, 78960, Note_on_c, 0, 88, 85
2, 78972, Note_on_c, 0, 65, 0
2, 78972, Note_on_c, 0, 71, 0
2, 78972, Note_on_c, 0, 67, 0
2, 79004, Note_on_c, 0, 88, 0
2, 79008, Note_on_c, 0, 86, 88
2, 79032, Note_on_c, 0, 88, 73
2, 79052, Note_on_c, 0, 88, 0
2, 79052, Note_on_c, 0, 86, 0
2, 79056, Note_on_c, 0, 88, 89
2, 79072, Note_on_c, 0, 88, 85
2, 79080, Note_on_c, 0, 88, 79
2, 79100, Note_on_c, 0, 88, 0
2, 79100, Note_on_c, 0, 88, 0
2, 79100, Note_on_c, 0, 88, 0
2, 79104, Note_on_c, 0, 88, 79
2, 79140, Control_c, 0, 64, 127
2, 79292, Note_on_c, 0, 88, 0
2, 79296, Note_on_c, 0, 67, 39
2, 79296, Note_on_c, 0, 64, 41
2, 79296, Note_on_c, 0, 72, 43
2, 79340, Control_c, 0, 64, 0
2, 79356, Note_on_c, 0, 72, 0
2, 79356, Note_on_c, 0, 64, 0
2, 79356, Note_on_c, 0, 67, 0
2, 79488, Note_on_c, 0, 65, 77
2, 79488, Note_on_c, 0, 71, 81
2, 79548, Note_on_c, 0, 71, 0
2, 79548, Note_on_c, 0, 65, 0
2, 79552, Note_on_c, 0, 64, 51
2, 79552, Note_on_c, 0, 72, 51
2, 79612, Note_on_c, 0, 72, 0
2, 79612, Note_on_c, 0, 64, 0
2, 79616, Note_on_c, 0, 74, 72
2, 79616, Note_on_c, 0, 62, 40
2, 79676, Note_on_c, 0, 62, 0
2, 79676, Note_on_c, 0, 74, 0
2, 79680, Note_on_c, 0, 71, 59
2, 79680, Note_on_c, 0, 65, 60
2, 79680, Note_on_c, 0, 79, 114
2, 79740, Note_on_c, 0, 65, 0
2, 79740, Note_on_c, 0, 71, 0
2, 79744, Note_on_c, 0, 64, 48
2, 79744, Note_on_c, 0, 72, 61
2, 79804, Note_on_c, 0, 72, 0
2, 79804, Note_on_c, 0, 64, 0
2, 79808, Note_on_c, 0, 74, 68
2, 79808, Note_on_c, 0, 62, 41
2, 79868, Note_on_c, 0, 62, 0
2, 79868, Note_on_c, 0, 74, 0
2, 79872, Note_on_c, 0, 71, 68
2, 79872, Note_on_c, 0, 65, 64
2, 79932, Note_on_c, 0, 65, 0
2, 79932, Note_on_c, 0, 71, 0
2, 79936, Note_on_c, 0, 64, 64
2, 79936, Note_on_c, 0, 72, 61
2, 79996, Note_on_c, 0, 72, 0
2, 79996, Note_on_c, 0, 64, 0
2, 80000, Note_on_c, 0, 74, 71
2, 80000, Note_on_c, 0, 62, 55
2, 80060, Note_on_c, 0, 62, 0
2, 80060, Note_on_c, 0, 74, 0
2, 80060, Note_on_c, 0, 79, 0
2, 80064, Note_on_c, 0, 71, 65
2, 80064, Note_on_c, 0, 65, 64
2, 80064, Note_on_c, 0, 79, 84
2, 80124, Note_on_c, 0, 79, 0
2, 80124, Note_on_c, 0, 65, 0
2, 80124, Note_on_c, 0, 71, 0
2, 80128, Note_on_c, 0, 72, 58
2, 80128, Note_on_c, 0, 64, 53
2, 80188, Note_on_c, 0, 64, 0
2, 80188, Note_on_c, 0, 72, 0
2, 80192, Note_on_c, 0, 74, 68
2, 80192, Note_on_c, 0, 62, 52
2, 80252, Note_on_c, 0, 62, 0
2, 80252, Note_on_c, 0, 74, 0
2, 80256, Note_on_c, 0, 64, 66
2, 80256, Note_on_c, 0, 72, 59
2, 80256, Note_on_c, 0, 79, 76
2, 80316, Note_on_c, 0, 79, 0
2, 80316, Note_on_c, 0, 72, 0
2, 80316, Note_on_c, 0, 64, 0
2, 80320, Note_on_c, 0, 74, 62
2, 80320, Note_on_c, 0, 62, 54
2, 80380, Note_on_c, 0, 62, 0
2, 80380, Note_on_c, 0, 74, 0
2, 80384, Note_on_c, 0, 76, 75
2, 80384, Note_on_c, 0, 60, 59
2, 80444, Note_on_c, 0, 60, 0
2, 80444, Note_on_c, 0, 76, 0
2, 80448, Note_on_c, 0, 64, 59
2, 80448, Note_on_c, 0, 72, 57
2, 80448, Note_on_c, 0, 79, 72
2, 80508, Note_on_c, 0, 79, 0
2, 80508, Note_on_c, 0, 72, 0
2, 80508, Note_on_c, 0, 64, 0
2, 80512, Note_on_c, 0, 74, 59
2, 80512, Note_on_c, 0, 62, 58
2, 80572, Note_on_c, 0, 62, 0
2, 80572, Note_on_c, 0, 74, 0
2, 80576, Note_on_c, 0, 76, 71
2, 80576, Note_on_c, 0, 60, 63
2, 80636, Note_on_c, 0, 60, 0
2, 80636, Note_on_c, 0, 76, 0
2, 80640, Note_on_c, 0, 77, 78
2, 80640, Note_on_c, 0, 59, 67
2, 80700, Note_on_c, 0, 59, 0
2, 80700, Note_on_c, 0, 77, 0
2, 80704, Note_on_c, 0, 76, 48
2, 80704, Note_on_c, 0, 60, 57
2, 80764, Note_on_c, 0, 60, 0
2, 80764, Note_on_c, 0, 76, 0
2, 80768, Note_on_c, 0, 74, 72
2, 80768, Note_on_c, 0, 62, 54
2, 80828, Note_on_c, 0, 62, 0
2, 80828, Note_on_c, 0, 74, 0
2, 80832, Note_on_c, 0, 77, 71
2, 80832, Note_on_c, 0, 59, 61
2, 80832, Note_on_c, 0, 79, 109
2, 80892, Note_on_c, 0, 59, 0
2, 80892, Note_on_c, 0, 77, 0
2, 80896, Note_on_c, 0, 76, 74
2, 80896, Note_on_c, 0, 60, 49
2, 80956, Note_on_c, 0, 60, 0
2, 80956, Note_on_c, 0, 76, 0
2, 80960, Note_on_c, 0, 62, 63
2, 80960, Note_on_c, 0, 74, 62
2, 81020, Note_on_c, 0, 74, 0
2, 81020, Note_on_c, 0, 62, 0
2, 81024, Note_on_c, 0, 77, 75
2, 81024, Note_on_c, 0, 59, 53
2, 81084, Note_on_c, 0, 59, 0
2, 81084, Note_on_c, 0, 77, 0
2, 81088, Note_on_c, 0, 76, 70
2, 81088, Note_on_c, 0, 60, 46
2, 81148, Note_on_c, 0, 60, 0
2, 81148, Note_on_c, 0, 76, 0
2, 81152, Note_on_c, 0, 74, 66
2, 81152, Note_on_c, 0, 62, 47
2, 81212, Note_on_c, 0, 62, 0
2, 81212, Note_on_c, 0, 74, 0
2, 81212, Note_on_c, 0, 79, 0
2, 81216, Note_on_c, 0, 77, 75
2, 81216, Note_on_c, 0, 59, 67
2, 81216, Note_on_c, 0, 79, 83
2, 81276, Note_on_c, 0, 79, 0
2, 81276, Note_on_c, 0, 59, 0
2, 81276, Note_on_c, 0, 77, 0
2, 81280, Note_on_c, 0, 76, 70
2, 81280, Note_on_c, 0, 60, 59
2, 81340, Note_on_c, 0, 60, 0
2, 81340, Note_on_c, 0, 76, 0
2, 81344, Note_on_c, 0, 62, 52
2, 81344, Note_on_c, 0, 74, 71
2, 81404, Note_on_c, 0, 74, 0
2, 81404, Note_on_c, 0, 62, 0
2, 81408, Note_on_c, 0, 76, 76
2, 81408, Note_on_c, 0, 60, 58
2, 81408, Note_on_c, 0, 79, 79
2, 81468, Note_on_c, 0, 79, 0
2, 81468, Note_on_c, 0, 60, 0
2, 81468, Note_on_c, 0, 76, 0
2, 81472, Note_on_c, 0, 74, 68
2, 81472, Note_on_c, 0, 62, 49
2, 81532, Note_on_c, 0, 62, 0
2, 81532, Note_on_c, 0, 74, 0
2, 81536, Note_on_c, 0, 64, 53
2, 81536, Note_on_c, 0, 72, 58
2, 81596, Note_on_c, 0, 72, 0
2, 81596, Note_on_c, 0, 64, 0
2, 81600, Note_on_c, 0, 76, 77
2, 81600, Note_on_c, 0, 60, 63
2, 81600, Note_on_c, 0, 79, 80
2, 81660, Note_on_c, 0, 79, 0
2, 81660, Note_on_c, 0, 60, 0
2, 81660, Note_on_c, 0, 76, 0
2, 81664, Note_on_c, 0, 74, 60
2, 81664, Note_on_c, 0, 62, 55
2, 81724, Note_on_c, 0, 62, 0
2, 81724, Note_on_c, 0, 74, 0
2, 81728, Note_on_c, 0, 64, 53
2, 81728, Note_on_c, 0, 72, 68
2, 81788, Note_on_c, 0, 72, 0
2, 81788, Note_on_c, 0, 64, 0
2, 81792, Note_on_c, 0, 71, 82
2, 81792, Note_on_c, 0, 65, 75
2, 81852, Note_on_c, 0, 65, 0
2, 81852, Note_on_c, 0, 71, 0
2, 81856, Note_on_c, 0, 72, 56
2, 81856, Note_on_c, 0, 64, 60
2, 81916, Note_on_c, 0, 64, 0
2, 81916, Note_on_c, 0, 72, 0
2, 81920, Note_on_c, 0, 74, 45
2, 81920, Note_on_c, 0, 62, 45
2, 81980, Note_on_c, 0, 62, 0
2, 81980, Note_on_c, 0, 74, 0
2, 81984, Note_on_c, 0, 65, 71
2, 81984, Note_on_c, 0, 71, 63
2, 81984, Note_on_c, 0, 79, 104
2, 82044, Note_on_c, 0, 71, 0
2, 82044, Note_on_c, 0, 65, 0
2, 82048, Note_on_c, 0, 72, 60
2, 82048, Note_on_c, 0, 64, 65
2, 82108, Note_on_c, 0, 64, 0
2, 82108, Note_on_c, 0, 72, 0
2, 82112, Note_on_c, 0, 74, 45
2, 82112, Note_on_c, 0, 62, 58
2, 82172, Note_on_c, 0, 62, 0
2, 82172, Note_on_c, 0, 74, 0
2, 82176, Note_on_c, 0, 65, 57
2, 82176, Note_on_c, 0, 71, 60
2, 82236, Note_on_c, 0, 71, 0
2, 82236, Note_on_c, 0, 65, 0
2, 82240, Note_on_c, 0, 72, 58
2, 82240, Note_on_c, 0, 64, 55
2, 82300, Note_on_c, 0, 64, 0
2, 82300, Note_on_c, 0, 72, 0
2, 82304, Note_on_c, 0, 74, 65
2, 82304, Note_on_c, 0, 62, 57
2, 82364, Note_on_c, 0, 62, 0
2, 82364, Note_on_c, 0, 74, 0
2, 82364, Note_on_c, 0, 79, 0
2, 82368, Note_on_c, 0, 71, 53
2, 82368, Note_on_c, 0, 65, 58
2, 82368, Note_on_c, 0, 79, 79
2, 82428, Note_on_c, 0, 79, 0
2, 82428, Note_on_c, 0, 65, 0
2, 82428, Note_on_c, 0, 71, 0
2, 82432, Note_on_c, 0, 64, 48
2, 82432, Note_on_c, 0, 72, 59
2, 82492, Note_on_c, 0, 72, 0
2, 82492, Note_on_c, 0, 64, 0
2, 82496, Note_on_c, 0, 62, 55
2, 82496, Note_on_c, 0, 74, 69
2, 82556, Note_on_c, 0, 74, 0
2, 82556, Note_on_c, 0, 62, 0
2, 82560, Note_on_c, 0, 64, 57
2, 82560, Note_on_c, 0, 72, 62
2, 82560, Note_on_c, 0, 79, 82
2, 82620, Note_on_c, 0, 79, 0
2, 82620, Note_on_c, 0, 72, 0
2, 82620, Note_on_c, 0, 64, 0
2, 82624, Note_on_c, 0, 74, 69
2, 82624, Note_on_c, 0, 62, 56
2, 82684, Note_on_c, 0, 62, 0
2, 82684, Note_on_c, 0, 74, 0
2, 82688, Note_on_c, 0, 76, 75
2, 82688, Note_on_c, 0, 60, 54
2, 82748, Note_on_c, 0, 60, 0
2, 82748, Note_on_c, 0, 76, 0
2, 82752, Note_on_c, 0, 64, 59
2, 82752, Note_on_c, 0, 72, 59
2, 82752, Note_on_c, 0, 79, 80
2, 82812, Note_on_c, 0, 79, 0
2, 82812, Note_on_c, 0, 72, 0
2, 82812, Note_on_c, 0, 64, 0
2, 82816, Note_on_c, 0, 74, 61
2, 82816, Note_on_c, 0, 62, 55
2, 82876, Note_on_c, 0, 62, 0
2, 82876, Note_on_c, 0, 74, 0
2, 82880, Note_on_c, 0, 60, 61
2, 82880, Note_on_c, 0, 76, 71
2, 82940, Note_on_c, 0, 76, 0
2, 82940, Note_on_c, 0, 60, 0
2, 82944, Note_on_c, 0, 71, 61
2, 82944, Note_on_c, 0, 62, 49
2, 83004, Note_on_c, 0, 62, 0
2, 83004, Note_on_c, 0, 71, 0
2, 83008, Note_on_c, 0, 72, 59
2, 83008, Note_on_c, 0, 60, 60
2, 83068, Note_on_c, 0, 60, 0
2, 83068, Note_on_c, 0, 72, 0
2, 83072, Note_on_c, 0, 59, 60
2, 83072, Note_on_c, 0, 74, 73
2, 83132, Note_on_c, 0, 74, 0
2, 83132, Note_on_c, 0, 59, 0
2, 83136, Note_on_c, 0, 69, 68
2, 83136, Note_on_c, 0, 60, 66
2, 83136, Note_on_c, 0, 78, 68
2, 83136, Note_on_c, 0, 50, 63
2, 83196, Note_on_c, 0, 50, 0
2, 83196, Note_on_c, 0, 69, 0
2, 83196, Note_on_c, 0, 60, 0
2, 83196, Note_on_c, 0, 78, 0
2, 83200, Note_on_c, 0, 71, 77
2, 83200, Note_on_c, 0, 59, 70
2, 83260, Note_on_c, 0, 59, 0
2, 83260, Note_on_c, 0, 71, 0
2, 83264, Note_on_c, 0, 72, 87
2, 83264, Note_on_c, 0, 57, 78
2, 83324, Note_on_c, 0, 57, 0
2, 83324, Note_on_c, 0, 72, 0
2, 83328, Note_on_c, 0, 71, 83
2, 83328, Note_on_c, 0, 62, 73
2, 83328, Note_on_c, 0, 55, 87
2, 83328, Note_on_c, 0, 79, 85
2, 83388, Note_on_c, 0, 79, 0
2, 83388, Note_on_c, 0, 71, 0
2, 83388, Note_on_c, 0, 62, 0
2, 83388, Note_on_c, 0, 55, 0
2, 83392, Note_on_c, 0, 72, 87
2, 83392, Note_on_c, 0, 60, 82
2, 83452, Note_on_c, 0, 60, 0
2, 83452, Note_on_c, 0, 72, 0
2, 83456, Note_on_c, 0, 59, 78
2, 83456, Note_on_c, 0, 74, 93
2, 83516, Note_on_c, 0, 74, 0
2, 83516, Note_on_c, 0, 59, 0
2, 83520, Note_on_c, 0, 69, 87
2, 83520, Note_on_c, 0, 60, 83
2, 83520, Note_on_c, 0, 78, 92
2, 83520, Note_on_c, 0, 50, 70
2, 83580, Note_on_c, 0, 50, 0
2, 83580, Note_on_c, 0, 69, 0
2, 83580, Note_on_c, 0, 60, 0
2, 83580, Note_on_c, 0, 78, 0
2, 83584, Note_on_c, 0, 71, 78
2, 83584, Note_on_c, 0, 59, 73
2, 83644, Note_on_c, 0, 59, 0
2, 83644, Note_on_c, 0, 71, 0
2, 83648, Note_on_c, 0, 72, 83
2, 83648, Note_on_c, 0, 57, 81
2, 83708, Note_on_c, 0, 57, 0
2, 83708, Note_on_c, 0, 72, 0
2, 83712, Note_on_c, 0, 62, 59
2, 83712, Note_on_c, 0, 71, 66
2, 83712, Note_on_c, 0, 55, 74
2, 83712, Note_on_c, 0, 79, 73
2, 83772, Note_on_c, 0, 79, 0
2, 83772, Note_on_c, 0, 62, 0
2, 83772, Note_on_c, 0, 71, 0
2, 83772, Note_on_c, 0, 55, 0
2, 83776, Note_on_c, 0, 72, 57
2, 83776, Note_on_c, 0, 60, 58
2, 83836, Note_on_c, 0, 60, 0
2, 83836, Note_on_c, 0, 72, 0
2, 83840, Note_on_c, 0, 74, 61
2, 83840, Note_on_c, 0, 59, 46
2, 83900, Note_on_c, 0, 59, 0
2, 83900, Note_on_c, 0, 74, 0
2, 83904, Note_on_c, 0, 60, 48
2, 83904, Note_on_c, 0, 69, 57
2, 83904, Note_on_c, 0, 78, 57
2, 83904, Note_on_c, 0, 50, 50
2, 83964, Note_on_c, 0, 50, 0
2, 83964, Note_on_c, 0, 60, 0
2, 83964, Note_on_c, 0, 69, 0
2, 83964, Note_on_c, 0, 78, 0
2, 83968, Note_on_c, 0, 71, 44
2, 83968, Note_on_c, 0, 59, 44
2, 84028, Note_on_c, 0, 59, 0
2, 84028, Note_on_c, 0, 71, 0
2, 84032, Note_on_c, 0, 72, 60
2, 84032, Note_on_c, 0, 57, 16
2, 84092, Note_on_c, 0, 57, 0
2, 84092, Note_on_c, 0, 72, 0
2, 84096, Note_on_c, 0, 79, 50
2, 84096, Note_on_c, 0, 55, 64
2, 84096, Note_on_c, 0, 71, 63
2, 84096, Note_on_c, 0, 59, 40
2, 84156, Note_on_c, 0, 59, 0
2, 84156, Note_on_c, 0, 79, 0
2, 84156, Note_on_c, 0, 55, 0
2, 84156, Note_on_c, 0, 71, 0
2, 84160, Note_on_c, 0, 81, 74
2, 84220, Note_on_c, 0, 81, 0
2, 84224, Note_on_c, 0, 79, 72
2, 84284, Note_on_c, 0, 79, 0
2, 84288, Note_on_c, 0, 78, 65
2, 84348, Note_on_c, 0, 78, 0
2, 84352, Note_on_c, 0, 79, 71
2, 84412, Note_on_c, 0, 79, 0
2, 84416, Note_on_c, 0, 78, 71
2, 84476, Note_on_c, 0, 78, 0
2, 84480, Note_on_c, 0, 79, 74
2, 84540, Note_on_c, 0, 79, 0
2, 84544, Note_on_c, 0, 81, 71
2, 84604, Note_on_c, 0, 81, 0
2, 84608, Note_on_c, 0, 79, 68
2, 84668, Note_on_c, 0, 79, 0
2, 84672, Note_on_c, 0, 78, 69
2, 84732, Note_on_c, 0, 78, 0
2, 84736, Note_on_c, 0, 79, 69
2, 84796, Note_on_c, 0, 79, 0
2, 84800, Note_on_c, 0, 78, 68
2, 84860, Note_on_c, 0, 78, 0
2, 84864, Note_on_c, 0, 79, 74
2, 84924, Note_on_c, 0, 79, 0
2, 84928, Note_on_c, 0, 81, 68
2, 84988, Note_on_c, 0, 81, 0
2, 84992, Note_on_c, 0, 79, 76
2, 85052, Note_on_c, 0, 79, 0
2, 85056, Note_on_c, 0, 78, 71
2, 85116, Note_on_c, 0, 78, 0
2, 85120, Note_on_c, 0, 79, 76
2, 85180, Note_on_c, 0, 79, 0
2, 85184, Note_on_c, 0, 78, 66
2, 85244, Note_on_c, 0, 78, 0
2, 85248, Note_on_c, 0, 62, 68
2, 85248, Note_on_c, 0, 71, 58
2, 85248, Note_on_c, 0, 55, 64
2, 85248, Note_on_c, 0, 79, 69
2, 85308, Note_on_c, 0, 79, 0
2, 85308, Note_on_c, 0, 62, 0
2, 85308, Note_on_c, 0, 71, 0
2, 85308, Note_on_c, 0, 55, 0
2, 85312, Note_on_c, 0, 72, 67
2, 85312, Note_on_c, 0, 60, 63
2, 85372, Note_on_c, 0, 60, 0
2, 85372, Note_on_c, 0, 72, 0
2, 85376, Note_on_c, 0, 74, 74
2, 85376, Note_on_c, 0, 59, 66
2, 85436, Note_on_c, 0, 59, 0
2, 85436, Note_on_c, 0, 74, 0
2, 85440, Note_on_c, 0, 69, 80
2, 85440, Note_on_c, 0, 60, 74
2, 85440, Note_on_c, 0, 78, 75
2, 85440, Note_on_c, 0, 50, 56
2, 85500, Note_on_c, 0, 50, 0
2, 85500, Note_on_c, 0, 69, 0
2, 85500, Note_on_c, 0, 60, 0
2, 85500, Note_on_c, 0, 78, 0
2, 85504, Note_on_c, 0, 71, 78
2, 85504, Note_on_c, 0, 59, 73
2, 85564, Note_on_c, 0, 59, 0
2, 85564, Note_on_c, 0, 71, 0
2, 85568, Note_on_c, 0, 57, 81
2, 85568, Note_on_c, 0, 72, 79
2, 85628, Note_on_c, 0, 72, 0
2, 85628, Note_on_c, 0, 57, 0
2, 85632, Note_on_c, 0, 62, 85
2, 85632, Note_on_c, 0, 71, 77
2, 85632, Note_on_c, 0, 79, 92
2, 85632, Note_on_c, 0, 55, 77
2, 85692, Note_on_c, 0, 55, 0
2, 85692, Note_on_c, 0, 62, 0
2, 85692, Note_on_c, 0, 71, 0
2, 85692, Note_on_c, 0, 79, 0
2, 85696, Note_on_c, 0, 72, 88
2, 85696, Note_on_c, 0, 60, 88
2, 85756, Note_on_c, 0, 60, 0
2, 85756, Note_on_c, 0, 72, 0
2, 85760, Note_on_c, 0, 74, 97
2, 85760, Note_on_c, 0, 59, 85
2, 85820, Note_on_c, 0, 59, 0
2, 85820, Note_on_c, 0, 74, 0
2, 85824, Note_on_c, 0, 60, 82
2, 85824, Note_on_c, 0, 69, 82
2, 85824, Note_on_c, 0, 78, 94
2, 85824, Note_on_c, 0, 50, 73
2, 85884, Note_on_c, 0, 50, 0
2, 85884, Note_on_c, 0, 60, 0
2, 85884, Note_on_c, 0, 69, 0
2, 85884, Note_on_c, 0, 78, 0
2, 85888, Note_on_c, 0, 71, 64
2, 85888, Note_on_c, 0, 59, 62
2, 85948, Note_on_c, 0, 59, 0
2, 85948, Note_on_c, 0, 71, 0
2, 85952, Note_on_c, 0, 57, 64
2, 85952, Note_on_c, 0, 72, 63
2, 86012, Note_on_c, 0, 72, 0
2, 86012, Note_on_c, 0, 57, 0
2, 86016, Note_on_c, 0, 71, 58
2, 86016, Note_on_c, 0, 62, 58
2, 86076, Note_on_c, 0, 62, 0
2, 86076, Note_on_c, 0, 71, 0
2, 86080, Note_on_c, 0, 72, 58
2, 86080, Note_on_c, 0, 60, 41
2, 86140, Note_on_c, 0, 60, 0
2, 86140, Note_on_c, 0, 72, 0
2, 86144, Note_on_c, 0, 74, 57
2, 86144, Note_on_c, 0, 59, 49
2, 86204, Note_on_c, 0, 59, 0
2, 86204, Note_on_c, 0, 74, 0
2, 86208, Note_on_c, 0, 69, 58
2, 86208, Note_on_c, 0, 60, 55
2, 86268, Note_on_c, 0, 60, 0
2, 86268, Note_on_c, 0, 69, 0
2, 86272, Note_on_c, 0, 71, 47
2, 86272, Note_on_c, 0, 59, 51
2, 86332, Note_on_c, 0, 59, 0
2, 86332, Note_on_c, 0, 71, 0
2, 86336, Note_on_c, 0, 72, 40
2, 86336, Note_on_c, 0, 57, 44
2, 86396, Note_on_c, 0, 57, 0
2, 86396, Note_on_c, 0, 72, 0
2, 86400, Note_on_c, 0, 79, 66
2, 86400, Note_on_c, 0, 71, 58
2, 86400, Note_on_c, 0, 55, 59
2, 86400, Note_on_c, 0, 59, 39
2, 86460, Note_on_c, 0, 59, 0
2, 86460, Note_on_c, 0, 79, 0
2, 86460, Note_on_c, 0, 71, 0
2, 86460, Note_on_c, 0, 55, 0
2, 86464, Note_on_c, 0, 81, 68
2, 86524, Note_on_c, 0, 81, 0
2, 86528, Note_on_c, 0, 79, 62
2, 86588, Note_on_c, 0, 79, 0
2, 86592, Note_on_c, 0, 78, 66
2, 86652, Note_on_c, 0, 78, 0
2, 86656, Note_on_c, 0, 79, 65
2, 86716, Note_on_c, 0, 79, 0
2, 86720, Note_on_c, 0, 78, 69
2, 86780, Note_on_c, 0, 78, 0
2, 86784, Note_on_c, 0, 79, 63
2, 86844, Note_on_c, 0, 79, 0
2, 86848, Note_on_c, 0, 81, 68
2, 86908, Note_on_c, 0, 81, 0
2, 86912, Note_on_c, 0, 79, 69
2, 86972, Note_on_c, 0, 79, 0
2, 86976, Note_on_c, 0, 78, 66
2, 87036, Note_on_c, 0, 78, 0
2, 87040, Note_on_c, 0, 79, 70
2, 87100, Note_on_c, 0, 79, 0
2, 87104, Note_on_c, 0, 78, 58
2, 87164, Note_on_c, 0, 78, 0
2, 87168, Note_on_c, 0, 79, 71
2, 87228, Note_on_c, 0, 79, 0
2, 87232, Note_on_c, 0, 81, 71
2, 87292, Note_on_c, 0, 81, 0
2, 87296, Note_on_c, 0, 79, 67
2, 87356, Note_on_c, 0, 79, 0
2, 87360, Note_on_c, 0, 77, 75
2, 87420, Note_on_c, 0, 77, 0
2, 87424, Note_on_c, 0, 79, 64
2, 87484, Note_on_c, 0, 79, 0
2, 87488, Note_on_c, 0, 77, 27
2, 87548, Note_on_c, 0, 77, 0
2, 87552, Note_on_c, 0, 76, 73
2, 87552, Program_c, 0, 0
2, 87588, Control_c, 0, 64, 127
2, 87740, Note_on_c, 0, 76, 0
2, 87936, Note_on_c, 0, 60, 90
2, 87996, Note_on_c, 0, 60, 0
2, 88000, Note_on_c, 0, 64, 94
2, 88060, Note_on_c, 0, 64, 0
2, 88064, Note_on_c, 0, 67, 105
2, 88124, Note_on_c, 0, 67, 0
2, 88128, Note_on_c, 0, 72, 90
2, 88188, Note_on_c, 0, 72, 0
2, 88192, Note_on_c, 0, 76, 100
2, 88252, Note_on_c, 0, 76, 0
2, 88256, Note_on_c, 0, 79, 97
2, 88316, Note_on_c, 0, 79, 0
2, 88320, Note_on_c, 0, 84, 107
2, 88380, Note_on_c, 0, 84, 0
2, 88676, Control_c, 0, 64, 0
2, 88704, Note_on_c, 0, 81, 107
2, 88764, Note_on_c, 0, 81, 0
2, 89088, Note_on_c, 0, 81, 107
2, 89280, Note_on_c, 0, 89, 124
2, 89532, Note_on_c, 0, 89, 0
2, 89532, Note_on_c, 0, 81, 0
2, 89536, Note_on_c, 0, 79, 75
2, 89536, Note_on_c, 0, 88, 84
2, 89596, Note_on_c, 0, 88, 0
2, 89596, Note_on_c, 0, 79, 0
2, 89600, Note_on_c, 0, 77, 77
2, 89600, Note_on_c, 0, 86, 78
2, 89660, Note_on_c, 0, 86, 0
2, 89660, Note_on_c, 0, 77, 0
2, 89664, Note_on_c, 0, 79, 76
2, 89664, Note_on_c, 0, 88, 74
2, 89724, Note_on_c, 0, 88, 0
2, 89724, Note_on_c, 0, 79, 0
2, 89728, Note_on_c, 0, 77, 79
2, 89728, Note_on_c, 0, 86, 78
2, 89788, Note_on_c, 0, 86, 0
2, 89788, Note_on_c, 0, 77, 0
2, 89792, Note_on_c, 0, 76, 81
2, 89792, Note_on_c, 0, 84, 81
2, 89852, Note_on_c, 0, 84, 0
2, 89852, Note_on_c, 0, 76, 0
2, 89856, Note_on_c, 0, 86, 73
2, 89856, Note_on_c, 0, 77, 79
2, 89856, Note_on_c, 0, 67, 71
2, 89916, Note_on_c, 0, 77, 0
2, 89916, Note_on_c, 0, 86, 0
2, 89920, Note_on_c, 0, 84, 78
2, 89920, Note_on_c, 0, 76, 80
2, 89980, Note_on_c, 0, 76, 0
2, 89980, Note_on_c, 0, 84, 0
2, 89984, Note_on_c, 0, 74, 66
2, 89984, Note_on_c, 0, 83, 72
2, 90044, Note_on_c, 0, 83, 0
2, 90044, Note_on_c, 0, 74, 0
2, 90048, Note_on_c, 0, 84, 77
2, 90048, Note_on_c, 0, 76, 40
2, 90108, Note_on_c, 0, 76, 0
2, 90108, Note_on_c, 0, 84, 0
2, 90112, Note_on_c, 0, 83, 75
2, 90112, Note_on_c, 0, 74, 61
2, 90172, Note_on_c, 0, 74, 0
2, 90172, Note_on_c, 0, 83, 0
2, 90176, Note_on_c, 0, 81, 73
2, 90176, Note_on_c, 0, 72, 40
2, 90236, Note_on_c, 0, 72, 0
2, 90236, Note_on_c, 0, 81, 0
2, 90240, Note_on_c, 0, 83, 79
2, 90240, Note_on_c, 0, 74, 70
2, 90300, Note_on_c, 0, 74, 0
2, 90300, Note_on_c, 0, 83, 0
2, 90304, Note_on_c, 0, 81, 73
2, 90304, Note_on_c, 0, 72, 64
2, 90364, Note_on_c, 0, 72, 0
2, 90364, Note_on_c, 0, 81, 0
2, 90368, Note_on_c, 0, 79, 76
2, 90368, Note_on_c, 0, 71, 57
2, 90428, Note_on_c, 0, 71, 0
2, 90428, Note_on_c, 0, 79, 0
2, 90432, Note_on_c, 0, 81, 71
2, 90432, Note_on_c, 0, 72, 64
2, 90492, Note_on_c, 0, 72, 0
2, 90492, Note_on_c, 0, 81, 0
2, 90496, Note_on_c, 0, 71, 59
2, 90496, Note_on_c, 0, 79, 85
2, 90556, Note_on_c, 0, 79, 0
2, 90556, Note_on_c, 0, 71, 0
2, 90560, Note_on_c, 0, 78, 80
2, 90560, Note_on_c, 0, 69, 50
2, 90620, Note_on_c, 0, 69, 0
2, 90620, Note_on_c, 0, 78, 0
2, 90624, Note_on_c, 0, 79, 78
2, 90624, Note_on_c, 0, 71, 72
2, 90684, Note_on_c, 0, 71, 0
2, 90684, Note_on_c, 0, 79, 0
2, 90684, Note_on_c, 0, 67, 0
2, 90688, Note_on_c, 0, 69, 58
2, 90688, Note_on_c, 0, 83, 75
2, 90748, Note_on_c, 0, 83, 0
2, 90748, Note_on_c, 0, 69, 0
2, 90752, Note_on_c, 0, 81, 67
2, 90752, Note_on_c, 0, 67, 76
2, 90812, Note_on_c, 0, 67, 0
2, 90812, Note_on_c, 0, 81, 0
2, 90816, Note_on_c, 0, 65, 75
2, 90816, Note_on_c, 0, 79, 63
2, 90876, Note_on_c, 0, 79, 0
2, 90876, Note_on_c, 0, 65, 0
2, 90880, Note_on_c, 0, 81, 75
2, 90880, Note_on_c, 0, 64, 67
2, 90940, Note_on_c, 0, 64, 0
2, 90940, Note_on_c, 0, 81, 0
2, 90944, Note_on_c, 0, 83, 64
2, 90944, Note_on_c, 0, 62, 60
2, 91004, Note_on_c, 0, 62, 0
2, 91004, Note_on_c, 0, 83, 0
2, 91008, Note_on_c, 0, 84, 74
2, 91008, Note_on_c, 0, 60, 59
2, 91044, Control_c, 0, 64, 127
2, 91068, Note_on_c, 0, 60, 0
2, 91068, Note_on_c, 0, 84, 0
2, 91200, Note_on_c, 0, 64, 69
2, 91200, Note_on_c, 0, 67, 69
2, 91200, Note_on_c, 0, 72, 57
2, 91200, Note_on_c, 0, 84, 85
2, 91244, Note_on_c, 0, 84, 0
2, 91244, Control_c, 0, 64, 0
2, 91248, Note_on_c, 0, 86, 81
2, 91260, Note_on_c, 0, 64, 0
2, 91260, Note_on_c, 0, 72, 0
2, 91260, Note_on_c, 0, 67, 0
2, 91292, Note_on_c, 0, 86, 0
2, 91296, Note_on_c, 0, 84, 89
2, 91320, Note_on_c, 0, 86, 83
2, 91340, Note_on_c, 0, 86, 0
2, 91340, Note_on_c, 0, 84, 0
2, 91344, Note_on_c, 0, 86, 82
2, 91360, Note_on_c, 0, 86, 84
2, 91368, Note_on_c, 0, 86, 79
2, 91388, Note_on_c, 0, 86, 0
2, 91388, Note_on_c, 0, 86, 0
2, 91388, Note_on_c, 0, 86, 0
2, 91392, Note_on_c, 0, 86, 109
2, 91428, Control_c, 0, 64, 127
2, 91452, Note_on_c, 0, 86, 0
2, 91584, Note_on_c, 0, 65, 67
2, 91584, Note_on_c, 0, 67, 73
2, 91584, Note_on_c, 0, 71, 64
2, 91584, Note_on_c, 0, 86, 87
2, 91628, Note_on_c, 0, 86, 0
2, 91628, Control_c, 0, 64, 0
2, 91632, Note_on_c, 0, 88, 85
2, 91644, Note_on_c, 0, 65, 0
2, 91644, Note_on_c, 0, 71, 0
2, 91644, Note_on_c, 0, 67, 0
2, 91676, Note_on_c, 0, 88, 0
2, 91680, Note_on_c, 0, 86, 88
2, 91704, Note_on_c, 0, 88, 73
2, 91724, Note_on_c, 0, 88, 0
2, 91724, Note_on_c, 0, 86, 0
2, 91728, Note_on_c, 0, 88, 89
2, 91744, Note_on_c, 0, 88, 85
2, 91752, Note_on_c, 0, 88, 79
2, 91772, Note_on_c, 0, 88, 0
2, 91772, Note_on_c, 0, 88, 0
2, 91772, Note_on_c, 0, 88, 0
2, 91776, Note_on_c, 0, 88, 79
2, 91812, Control_c, 0, 64, 127
2, 91964, Note_on_c, 0, 88, 0
2, 91968, Note_on_c, 0, 67, 39
2, 91968, Note_on_c, 0, 64, 41
2, 91968, Note_on_c, 0, 72, 43
2, 91968, Note_on_c, 0, 84, 77
2, 91996, Note_on_c, 0, 84, 0
2, 92012, Control_c, 0, 64, 0
2, 92028, Note_on_c, 0, 67, 0
2, 92028, Note_on_c, 0, 64, 0
2, 92028, Note_on_c, 0, 72, 0
2, 92160, Program_c, 0, 0
2, 92196, Control_c, 0, 64, 127
2, 92544, Note_on_c, 0, 60, 90
2, 92604, Note_on_c, 0, 60, 0
2, 92608, Note_on_c, 0, 64, 94
2, 92668, Note_on_c, 0, 64, 0
2, 92672, Note_on_c, 0, 67, 105
2, 92732, Note_on_c, 0, 67, 0
2, 92736, Note_on_c, 0, 72, 90
2, 92796, Note_on_c, 0, 72, 0
2, 92800, Note_on_c, 0, 76, 100
2, 92860, Note_on_c, 0, 76, 0
2, 92864, Note_on_c, 0, 79, 97
2, 92924, Note_on_c, 0, 79, 0
2, 92928, Note_on_c, 0, 84, 107
2, 92988, Note_on_c, 0, 84, 0
2, 93284, Control_c, 0, 64, 0
2, 93312, Note_on_c, 0, 81, 120
2, 93372, Note_on_c, 0, 81, 0
2, 93696, Note_on_c, 0, 81, 111
2, 94268, Note_on_c, 0, 81, 0
2, 94464, Note_on_c, 0, 81, 109
2, 94524, Note_on_c, 0, 81, 0
2, 94848, Note_on_c, 0, 81, 101
2, 95420, Note_on_c, 0, 81, 0
2, 95616, Note_on_c, 0, 81, 64
2, 95676, Note_on_c, 0, 81, 0
2, 96000, Note_on_c, 0, 81, 51
2, 96060, Note_on_c, 0, 81, 0
2, 96384, Note_on_c, 0, 81, 81
2, 96444, Note_on_c, 0, 81, 0
2, 96768, Note_on_c, 0, 81, 69
2, 96828, Note_on_c, 0, 81, 0
2, 97152, Note_on_c, 0, 81, 62
2, 97212, Note_on_c, 0, 81, 0
2, 97536, Note_on_c, 0, 81, 58
2, 97596, Note_on_c, 0, 81, 0
2, 97920, Note_on_c, 0, 81, 77
2, 97920, Note_on_c, 0, 72, 67
2, 97948, Note_on_c, 0, 72, 0
2, 97948, Note_on_c, 0, 81, 0
2, 98112, Note_on_c, 0, 81, 79
2, 98112, Note_on_c, 0, 72, 75
2, 98140, Note_on_c, 0, 72, 0
2, 98140, Note_on_c, 0, 81, 0
2, 98304, Note_on_c, 0, 81, 77
2, 98304, Note_on_c, 0, 72, 76
2, 98332, Note_on_c, 0, 72, 0
2, 98332, Note_on_c, 0, 81, 0
2, 98496, Note_on_c, 0, 81, 91
2, 98496, Note_on_c, 0, 72, 91
2, 98524, Note_on_c, 0, 72, 0
2, 98524, Note_on_c, 0, 81, 0
2, 98688, Note_on_c, 0, 81, 90
2, 98688, Note_on_c, 0, 72, 88
2, 98716, Note_on_c, 0, 72, 0
2, 98716, Note_on_c, 0, 81, 0
2, 98880, Note_on_c, 0, 81, 93
2, 98880, Note_on_c, 0, 72, 93
2, 98908, Note_on_c, 0, 72, 0
2, 98908, Note_on_c, 0, 81, 0
2, 99072, Note_on_c, 0, 73, 106
2, 99072, Note_on_c, 0, 81, 97
2, 99100, Note_on_c, 0, 81, 0
2, 99100, Note_on_c, 0, 73, 0
2, 99264, Note_on_c, 0, 73, 105
2, 99264, Note_on_c, 0, 81, 98
2, 99292, Note_on_c, 0, 81, 0
2, 99292, Note_on_c, 0, 73, 0
2, 99456, Note_on_c, 0, 73, 111
2, 99456, Note_on_c, 0, 81, 105
2, 99484, Note_on_c, 0, 81, 0
2, 99484, Note_on_c, 0, 73, 0
2, 99648, Note_on_c, 0, 73, 115
2, 99648, Note_on_c, 0, 81, 107
2, 99676, Note_on_c, 0, 81, 0
2, 99676, Note_on_c, 0, 73, 0
2, 99840, Note_on_c, 0, 81, 107
2, 99840, Note_on_c, 0, 73, 114
2, 99868, Note_on_c, 0, 73, 0
2, 99868, Note_on_c, 0, 81, 0
2, 100032, Note_on_c, 0, 81, 111
2, 100032, Note_on_c, 0, 73, 114
2, 100060, Note_on_c, 0, 73, 0
2, 100060, Note_on_c, 0, 81, 0
2, 100224, Note_on_c, 0, 74, 122
2, 100224, Note_on_c, 0, 77, 117
2, 100224, Note_on_c, 0, 81, 112
2, 100224, Note_on_c, 0, 69, 122
2, 100284, Note_on_c, 0, 69, 0
2, 100284, Note_on_c, 0, 74, 0
2, 100284, Note_on_c, 0, 77, 0
2, 100284, Note_on_c, 0, 81, 0
2, 100608, Note_on_c, 0, 89, 120
2, 100608, Note_on_c, 0, 81, 112
2, 101052, Note_on_c, 0, 81, 0
2, 101052, Note_on_c, 0, 89, 0
2, 101056, Note_on_c, 0, 79, 104
2, 101056, Note_on_c, 0, 88, 102
2, 101116, Note_on_c, 0, 88, 0
2, 101116, Note_on_c, 0, 79, 0
2, 101120, Note_on_c, 0, 86, 104
2, 101120, Note_on_c, 0, 77, 97
2, 101180, Note_on_c, 0, 77, 0
2, 101180, Note_on_c, 0, 86, 0
2, 101184, Note_on_c, 0, 79, 98
2, 101184, Note_on_c, 0, 88, 100
2, 101244, Note_on_c, 0, 88, 0
2, 101244, Note_on_c, 0, 79, 0
2, 101248, Note_on_c, 0, 86, 109
2, 101248, Note_on_c, 0, 77, 108
2, 101308, Note_on_c, 0, 77, 0
2, 101308, Note_on_c, 0, 86, 0
2, 101312, Note_on_c, 0, 76, 111
2, 101312, Note_on_c, 0, 84, 115
2, 101372, Note_on_c, 0, 84, 0
2, 101372, Note_on_c, 0, 76, 0
2, 101376, Note_on_c, 0, 67, 107
2, 101376, Note_on_c, 0, 74, 102
2, 101376, Note_on_c, 0, 83, 104
2, 101436, Note_on_c, 0, 83, 0
2, 101436, Note_on_c, 0, 74, 0
2, 101440, Note_on_c, 0, 84, 107
2, 101440, Note_on_c, 0, 76, 98
2, 101500, Note_on_c, 0, 76, 0
2, 101500, Note_on_c, 0, 84, 0
2, 101504, Note_on_c, 0, 86, 108
2, 101504, Note_on_c, 0, 77, 94
2, 101564, Note_on_c, 0, 77, 0
2, 101564, Note_on_c, 0, 86, 0
2, 101568, Note_on_c, 0, 84, 108
2, 101568, Note_on_c, 0, 76, 99
2, 101628, Note_on_c, 0, 76, 0
2, 101628, Note_on_c, 0, 84, 0
2, 101632, Note_on_c, 0, 74, 99
2, 101632, Note_on_c, 0, 83, 97
2, 101692, Note_on_c, 0, 83, 0
2, 101692, Note_on_c, 0, 74, 0
2, 101696, Note_on_c, 0, 81, 104
2, 101696, Note_on_c, 0, 72, 97
2, 101756, Note_on_c, 0, 72, 0
2, 101756, Note_on_c, 0, 81, 0
2, 101760, Note_on_c, 0, 71, 90
2, 101760, Note_on_c, 0, 79, 91
2, 101820, Note_on_c, 0, 79, 0
2, 101820, Note_on_c, 0, 71, 0
2, 101820, Note_on_c, 0, 67, 0
2, 101824, Note_on_c, 0, 81, 104
2, 101824, Note_on_c, 0, 72, 99
2, 101884, Note_on_c, 0, 72, 0
2, 101884, Note_on_c, 0, 81, 0
2, 101888, Note_on_c, 0, 71, 97
2, 101888, Note_on_c, 0, 79, 98
2, 101948, Note_on_c, 0, 79, 0
2, 101948, Note_on_c, 0, 71, 0
2, 101952, Note_on_c, 0, 69, 88
2, 101952, Note_on_c, 0, 77, 103
2, 102012, Note_on_c, 0, 77, 0
2, 102012, Note_on_c, 0, 69, 0
2, 102016, Note_on_c, 0, 71, 90
2, 102016, Note_on_c, 0, 79, 103
2, 102076, Note_on_c, 0, 79, 0
2, 102076, Note_on_c, 0, 71, 0
2, 102080, Note_on_c, 0, 69, 93
2, 102080, Note_on_c, 0, 77, 105
2, 102140, Note_on_c, 0, 77, 0
2, 102140, Note_on_c, 0, 69, 0
2, 102144, Note_on_c, 0, 67, 88
2, 102144, Note_on_c, 0, 76, 92
2, 102204, Note_on_c, 0, 76, 0
2, 102204, Note_on_c, 0, 67, 0
2, 102208, Note_on_c, 0, 77, 95
2, 102208, Note_on_c, 0, 69, 70
2, 102268, Note_on_c, 0, 69, 0
2, 102268, Note_on_c, 0, 77, 0
2, 102272, Note_on_c, 0, 76, 89
2, 102272, Note_on_c, 0, 67, 81
2, 102332, Note_on_c, 0, 67, 0
2, 102332, Note_on_c, 0, 76, 0
2, 102336, Note_on_c, 0, 65, 66
2, 102336, Note_on_c, 0, 74, 69
2, 102396, Note_on_c, 0, 74, 0
2, 102396, Note_on_c, 0, 65, 0
2, 102400, Note_on_c, 0, 76, 83
2, 102400, Note_on_c, 0, 67, 74
2, 102460, Note_on_c, 0, 67, 0
2, 102460, Note_on_c, 0, 76, 0
2, 102464, Note_on_c, 0, 74, 86
2, 102464, Note_on_c, 0, 65, 67
2, 102524, Note_on_c, 0, 65, 0
2, 102524, Note_on_c, 0, 74, 0
2, 102528, Note_on_c, 0, 60, 72
2, 102528, Note_on_c, 0, 72, 67
2, 102528, Note_on_c, 0, 64, 59
2, 102588, Note_on_c, 0, 64, 0
2, 102588, Note_on_c, 0, 72, 0
2, 102588, Note_on_c, 0, 60, 0
2, 102592, Note_on_c, 0, 74, 73
2, 102592, Note_on_c, 0, 65, 54
2, 102652, Note_on_c, 0, 65, 0
2, 102652, Note_on_c, 0, 74, 0
2, 102656, Note_on_c, 0, 76, 77
2, 102656, Note_on_c, 0, 67, 76
2, 102716, Note_on_c, 0, 67, 0
2, 102716, Note_on_c, 0, 76, 0
2, 102720, Note_on_c, 0, 83, 99
2, 102720, Note_on_c, 0, 60, 85
2, 102720, Note_on_c, 0, 74, 100
2, 102720, Note_on_c, 0, 68, 95
2, 102780, Note_on_c, 0, 68, 0
2, 102780, Note_on_c, 0, 83, 0
2, 102780, Note_on_c, 0, 60, 0
2, 102780, Note_on_c, 0, 74, 0
2, 102784, Note_on_c, 0, 76, 73
2, 102784, Note_on_c, 0, 67, 69
2, 102844, Note_on_c, 0, 67, 0
2, 102844, Note_on_c, 0, 76, 0
2, 102848, Note_on_c, 0, 65, 68
2, 102848, Note_on_c, 0, 77, 77
2, 102908, Note_on_c, 0, 77, 0
2, 102908, Note_on_c, 0, 65, 0
2, 102912, Note_on_c, 0, 84, 61
2, 102912, Note_on_c, 0, 60, 48
2, 102912, Note_on_c, 0, 76, 82
2, 102912, Note_on_c, 0, 67, 62
2, 102972, Note_on_c, 0, 67, 0
2, 102972, Note_on_c, 0, 84, 0
2, 102972, Note_on_c, 0, 60, 0
2, 102972, Note_on_c, 0, 76, 0
2, 102976, Note_on_c, 0, 77, 76
2, 102976, Note_on_c, 0, 65, 64
2, 103036, Note_on_c, 0, 65, 0
2, 103036, Note_on_c, 0, 77, 0
2, 103040, Note_on_c, 0, 79, 78
2, 103040, Note_on_c, 0, 64, 67
2, 103100, Note_on_c, 0, 64, 0
2, 103100, Note_on_c, 0, 79, 0
2, 103104, Note_on_c, 0, 60, 85
2, 103104, Note_on_c, 0, 83, 97
2, 103104, Note_on_c, 0, 74, 87
2, 103104, Note_on_c, 0, 68, 85
2, 103164, Note_on_c, 0, 68, 0
2, 103164, Note_on_c, 0, 60, 0
2, 103164, Note_on_c, 0, 83, 0
2, 103164, Note_on_c, 0, 74, 0
2, 103168, Note_on_c, 0, 76, 82
2, 103168, Note_on_c, 0, 67, 60
2, 103228, Note_on_c, 0, 67, 0
2, 103228, Note_on_c, 0, 76, 0
2, 103232, Note_on_c, 0, 77, 68
2, 103232, Note_on_c, 0, 65, 59
2, 103292, Note_on_c, 0, 65, 0
2, 103292, Note_on_c, 0, 77, 0
2, 103296, Note_on_c, 0, 84, 61
2, 103296, Note_on_c, 0, 60, 53
2, 103296, Note_on_c, 0, 76, 79
2, 103296, Note_on_c, 0, 67, 79
2, 103356, Note_on_c, 0, 67, 0
2, 103356, Note_on_c, 0, 84, 0
2, 103356, Note_on_c, 0, 60, 0
2, 103356, Note_on_c, 0, 76, 0
2, 103360, Note_on_c, 0, 77, 69
2, 103360, Note_on_c, 0, 65, 64
2, 103420, Note_on_c, 0, 65, 0
2, 103420, Note_on_c, 0, 77, 0
2, 103424, Note_on_c, 0, 64, 56
2, 103424, Note_on_c, 0, 79, 56
2, 103484, Note_on_c, 0, 79, 0
2, 103484, Note_on_c, 0, 64, 0
2, 103488, Note_on_c, 0, 60, 86
2, 103488, Note_on_c, 0, 83, 107
2, 103488, Note_on_c, 0, 68, 85
2, 103488, Note_on_c, 0, 74, 89
2, 103548, Note_on_c, 0, 74, 0
2, 103548, Note_on_c, 0, 60, 0
2, 103548, Note_on_c, 0, 83, 0
2, 103548, Note_on_c, 0, 68, 0
2, 103552, Note_on_c, 0, 76, 77
2, 103552, Note_on_c, 0, 67, 66
2, 103612, Note_on_c, 0, 67, 0
2, 103612, Note_on_c, 0, 76, 0
2, 103616, Note_on_c, 0, 65, 66
2, 103616, Note_on_c, 0, 77, 74
2, 103676, Note_on_c, 0, 77, 0
2, 103676, Note_on_c, 0, 65, 0
2, 103680, Note_on_c, 0, 84, 70
2, 103680, Note_on_c, 0, 76, 72
2, 103680, Note_on_c, 0, 67, 64
2, 103680, Note_on_c, 0, 60, 66
2, 103740, Note_on_c, 0, 60, 0
2, 103740, Note_on_c, 0, 84, 0
2, 103740, Note_on_c, 0, 76, 0
2, 103740, Note_on_c, 0, 67, 0
2, 103744, Note_on_c, 0, 86, 73
2, 103804, Note_on_c, 0, 86, 0
2, 103808, Note_on_c, 0, 84, 75
2, 103868, Note_on_c, 0, 84, 0
2, 103872, Note_on_c, 0, 83, 76
2, 103932, Note_on_c, 0, 83, 0
2, 103936, Note_on_c, 0, 84, 74
2, 103996, Note_on_c, 0, 84, 0
2, 104000, Note_on_c, 0, 83, 78
2, 104060, Note_on_c, 0, 83, 0
2, 104064, Note_on_c, 0, 84, 82
2, 104124, Note_on_c, 0, 84, 0
2, 104128, Note_on_c, 0, 86, 79
2, 104188, Note_on_c, 0, 86, 0
2, 104192, Note_on_c, 0, 84, 68
2, 104252, Note_on_c, 0, 84, 0
2, 104256, Note_on_c, 0, 83, 68
2, 104316, Note_on_c, 0, 83, 0
2, 104320, Note_on_c, 0, 84, 74
2, 104380, Note_on_c, 0, 84, 0
2, 104384, Note_on_c, 0, 83, 77
2, 104444, Note_on_c, 0, 83, 0
2, 104448, Note_on_c, 0, 84, 83
2, 104508, Note_on_c, 0, 84, 0
2, 104512, Note_on_c, 0, 86, 71
2, 104572, Note_on_c, 0, 86, 0
2, 104576, Note_on_c, 0, 84, 77
2, 104636, Note_on_c, 0, 84, 0
2, 104640, Note_on_c, 0, 83, 77
2, 104700, Note_on_c, 0, 83, 0
2, 104704, Note_on_c, 0, 84, 81
2, 104764, Note_on_c, 0, 84, 0
2, 104768, Note_on_c, 0, 83, 79
2, 104828, Note_on_c, 0, 83, 0
2, 104832, Note_on_c, 0, 84, 85
2, 104832, Note_on_c, 0, 48, 74
2, 104892, Note_on_c, 0, 48, 0
2, 104892, Note_on_c, 0, 84, 0
2, 105216, Note_on_c, 0, 72, 52
2, 105216, Note_on_c, 0, 48, 56
2, 105216, Note_on_c, 0, 64, 70
2, 105216, Note_on_c, 0, 55, 64
2, 105276, Note_on_c, 0, 55, 0
2, 105276, Note_on_c, 0, 72, 0
2, 105276, Note_on_c, 0, 48, 0
2, 105276, Note_on_c, 0, 64, 0
2, 105280, Note_on_c, 0, 65, 68
2, 105280, Note_on_c, 0, 53, 60
2, 105340, Note_on_c, 0, 53, 0
2, 105340, Note_on_c, 0, 65, 0
2, 105472, Note_on_c, 0, 64, 67
2, 105472, Note_on_c, 0, 55, 60
2, 105532, Note_on_c, 0, 55, 0
2, 105532, Note_on_c, 0, 64, 0
2, 105600, Note_on_c, 0, 55, 65
2, 105600, Note_on_c, 0, 64, 74
2, 105660, Note_on_c, 0, 64, 0
2, 105660, Note_on_c, 0, 55, 0
2, 105664, Note_on_c, 0, 65, 68
2, 105664, Note_on_c, 0, 53, 57
2, 105724, Note_on_c, 0, 53, 0
2, 105724, Note_on_c, 0, 65, 0
2, 105792, Note_on_c, 0, 48, 89
2, 105792, Note_on_c, 0, 71, 89
2, 105852, Note_on_c, 0, 71, 0
2, 105852, Note_on_c, 0, 48, 0
2, 105984, Note_on_c, 0, 72, 54
2, 106044, Note_on_c, 0, 72, 0
2, 106048, Note_on_c, 0, 74, 48
2, 106108, Note_on_c, 0, 74, 0
2, 106112, Note_on_c, 0, 72, 59
2, 106172, Note_on_c, 0, 72, 0
2, 106176, Note_on_c, 0, 71, 56
2, 106236, Note_on_c, 0, 71, 0
2, 106240, Note_on_c, 0, 72, 64
2, 106300, Note_on_c, 0, 72, 0
2, 106304, Note_on_c, 0, 71, 61
2, 106364, Note_on_c, 0, 71, 0
2, 106368, Note_on_c, 0, 72, 63
2, 106428, Note_on_c, 0, 72, 0
2, 106432, Note_on_c, 0, 74, 70
2, 106492, Note_on_c, 0, 74, 0
2, 106496, Note_on_c, 0, 72, 57
2, 106556, Note_on_c, 0, 72, 0
2, 106560, Note_on_c, 0, 71, 68
2, 106620, Note_on_c, 0, 71, 0
2, 106624, Note_on_c, 0, 72, 59
2, 106684, Note_on_c, 0, 72, 0
2, 106688, Note_on_c, 0, 71, 56
2, 106748, Note_on_c, 0, 71, 0
2, 106752, Note_on_c, 0, 72, 59
2, 106812, Note_on_c, 0, 72, 0
2, 106816, Note_on_c, 0, 74, 69
2, 106876, Note_on_c, 0, 74, 0
2, 106880, Note_on_c, 0, 72, 58
2, 106940, Note_on_c, 0, 72, 0
2, 106944, Note_on_c, 0, 71, 53
2, 107004, Note_on_c, 0, 71, 0
2, 107008, Note_on_c, 0, 72, 67
2, 107068, Note_on_c, 0, 72, 0
2, 107072, Note_on_c, 0, 71, 52
2, 107132, Note_on_c, 0, 71, 0
2, 107328, Note_on_c, 0, 55, 70
2, 107328, Note_on_c, 0, 67, 83
2, 107388, Note_on_c, 0, 67, 0
2, 107388, Note_on_c, 0, 55, 0
2, 107392, Note_on_c, 0, 65, 85
2, 107392, Note_on_c, 0, 53, 76
2, 107452, Note_on_c, 0, 53, 0
2, 107452, Note_on_c, 0, 65, 0
2, 107456, Note_on_c, 0, 64, 80
2, 107456, Note_on_c, 0, 52, 74
2, 107476, Note_on_c, 0, 52, 0
2, 107476, Note_on_c, 0, 64, 0
2, 107520, Note_on_c, 0, 76, 100
2, 107520, Note_on_c, 0, 43, 86
2, 107540, Note_on_c, 0, 43, 0
2, 107540, Note_on_c, 0, 76, 0
2, 107776, Note_on_c, 0, 65, 89
2, 107776, Note_on_c, 0, 53, 78
2, 107836, Note_on_c, 0, 53, 0
2, 107836, Note_on_c, 0, 65, 0
2, 107904, Note_on_c, 0, 79, 104
2, 107904, Note_on_c, 0, 36, 99
2, 107924, Note_on_c, 0, 36, 0
2, 107924, Note_on_c, 0, 79, 0
2, 107968, Note_on_c, 0, 52, 78
2, 107968, Note_on_c, 0, 64, 83
2, 108028, Note_on_c, 0, 64, 0
2, 108028, Note_on_c, 0, 52, 0
2, 108096, Note_on_c, 0, 67, 102
2, 108096, Note_on_c, 0, 55, 87
2, 108156, Note_on_c, 0, 55, 0
2, 108156, Note_on_c, 0, 67, 0
2, 108160, Note_on_c, 0, 65, 102
2, 108160, Note_on_c, 0, 53, 92
2, 108220, Note_on_c, 0, 53, 0
2, 108220, Note_on_c, 0, 65, 0
2, 108672, Note_on_c, 0, 60, 111
2, 108672, Note_on_c, 0, 52, 112
2, 108672, Note_on_c, 0, 55, 124
2, 108672, Note_on_c, 0, 40, 91
2, 108672, Note_on_c, 0, 48, 100
2, 108672, Note_on_c, 0, 43, 97
2, 108672, Note_on_c, 0, 36, 91
2, 108732, Note_on_c, 0, 36, 0
2, 108732, Note_on_c, 0, 48, 0
2, 108732, Note_on_c, 0, 52, 0
2, 108732, Note_on_c, 0, 55, 0
2, 108732, Note_on_c, 0, 60, 0
2, 108732, Note_on_c, 0, 43, 0
2, 108732, Note_on_c, 0, 40, 0
2, 108732, End_track
3, 0, Start_track
3, 0, Title_t, "Allegro ma non troppo"
3, 0, Control_c, 0, 0, 0
3, 0, Control_c, 0, 32, 0
3, 0, Program_c, 0, 0
3, 0, Control_c, 0, 7, 110
3, 0, Control_c, 0, 10, 47
3, 0, Note_on_c, 0, 36, 55
3, 60, Note_on_c, 0, 36, 0
3, 64, Note_on_c, 0, 40, 67
3, 124, Note_on_c, 0, 40, 0
3, 128, Note_on_c, 0, 43, 77
3, 188, Note_on_c, 0, 43, 0
3, 192, Note_on_c, 0, 48, 85
3, 252, Note_on_c, 0, 48, 0
3, 256, Note_on_c, 0, 52, 84
3, 316, Note_on_c, 0, 52, 0
3, 320, Note_on_c, 0, 55, 98
3, 380, Note_on_c, 0, 55, 0
3, 960, Note_on_c, 0, 48, 102
3, 1020, Note_on_c, 0, 48, 0
3, 1344, Note_on_c, 0, 41, 111
3, 1404, Note_on_c, 0, 41, 0
3, 3840, Note_on_c, 0, 55, 91
3, 3900, Note_on_c, 0, 55, 0
3, 4224, Note_on_c, 0, 48, 74
3, 4284, Note_on_c, 0, 48, 0
3, 4608, Note_on_c, 0, 36, 55
3, 4668, Note_on_c, 0, 36, 0
3, 4672, Note_on_c, 0, 40, 67
3, 4732, Note_on_c, 0, 40, 0
3, 4736, Note_on_c, 0, 43, 77
3, 4796, Note_on_c, 0, 43, 0
3, 4800, Note_on_c, 0, 48, 85
3, 4860, Note_on_c, 0, 48, 0
3, 4864, Note_on_c, 0, 52, 84
3, 4924, Note_on_c, 0, 52, 0
3, 4928, Note_on_c, 0, 55, 98
3, 4988, Note_on_c, 0, 55, 0
3, 5568, Note_on_c, 0, 48, 102
3, 5628, Note_on_c, 0, 48, 0
3, 5952, Note_on_c, 0, 41, 111
3, 6012, Note_on_c, 0, 41, 0
3, 8448, Note_on_c, 0, 55, 91
3, 8508, Note_on_c, 0, 55, 0
3, 8832, Note_on_c, 0, 48, 74
3, 8892, Note_on_c, 0, 48, 0
3, 9216, Note_on_c, 0, 36, 55
3, 9276, Note_on_c, 0, 36, 0
3, 9280, Note_on_c, 0, 40, 67
3, 9340, Note_on_c, 0, 40, 0
3, 9344, Note_on_c, 0, 43, 77
3, 9404, Note_on_c, 0, 43, 0
3, 9408, Note_on_c, 0, 48, 85
3, 9468, Note_on_c, 0, 48, 0
3, 9472, Note_on_c, 0, 52, 84
3, 9532, Note_on_c, 0, 52, 0
3, 9536, Note_on_c, 0, 55, 98
3, 9596, Note_on_c, 0, 55, 0
3, 10176, Note_on_c, 0, 48, 102
3, 10236, Note_on_c, 0, 48, 0
3, 10560, Note_on_c, 0, 41, 111
3, 10620, Note_on_c, 0, 41, 0
3, 13056, Note_on_c, 0, 55, 91
3, 13116, Note_on_c, 0, 55, 0
3, 13440, Note_on_c, 0, 48, 74
3, 13500, Note_on_c, 0, 48, 0
3, 13824, Note_on_c, 0, 36, 55
3, 13884, Note_on_c, 0, 36, 0
3, 13888, Note_on_c, 0, 40, 67
3, 13948, Note_on_c, 0, 40, 0
3, 13952, Note_on_c, 0, 43, 77
3, 14012, Note_on_c, 0, 43, 0
3, 14016, Note_on_c, 0, 48, 85
3, 14076, Note_on_c, 0, 48, 0
3, 14080, Note_on_c, 0, 52, 84
3, 14140, Note_on_c, 0, 52, 0
3, 14144, Note_on_c, 0, 55, 98
3, 14204, Note_on_c, 0, 55, 0
3, 14784, Note_on_c, 0, 48, 102
3, 14844, Note_on_c, 0, 48, 0
3, 15168, Note_on_c, 0, 41, 111
3, 15228, Note_on_c, 0, 41, 0
3, 17664, Note_on_c, 0, 55, 91
3, 17724, Note_on_c, 0, 55, 0
3, 18048, Note_on_c, 0, 48, 74
3, 18108, Note_on_c, 0, 48, 0
3, 18432, Note_on_c, 0, 55, 97
3, 19580, Note_on_c, 0, 55, 0
3, 19584, Note_on_c, 0, 55, 86
3, 20732, Note_on_c, 0, 55, 0
3, 20736, Note_on_c, 0, 55, 91
3, 21884, Note_on_c, 0, 55, 0
3, 21888, Note_on_c, 0, 79, 72
3, 21888, Note_on_c, 0, 55, 71
3, 21948, Note_on_c, 0, 55, 0
3, 21948, Note_on_c, 0, 79, 0
3, 24960, Note_on_c, 0, 55, 61
3, 24960, Note_on_c, 0, 79, 77
3, 25020, Note_on_c, 0, 79, 0
3, 25020, Note_on_c, 0, 55, 0
3, 25152, Note_on_c, 0, 78, 58
3, 25152, Note_on_c, 0, 50, 53
3, 25212, Note_on_c, 0, 50, 0
3, 25212, Note_on_c, 0, 78, 0
3, 26496, Note_on_c, 0, 36, 55
3, 26556, Note_on_c, 0, 36, 0
3, 26560, Note_on_c, 0, 40, 67
3, 26620, Note_on_c, 0, 40, 0
3, 26624, Note_on_c, 0, 43, 77
3, 26684, Note_on_c, 0, 43, 0
3, 26688, Note_on_c, 0, 48, 85
3, 26748, Note_on_c, 0, 48, 0
3, 26752, Note_on_c, 0, 52, 84
3, 26812, Note_on_c, 0, 52, 0
3, 26816, Note_on_c, 0, 55, 98
3, 26876, Note_on_c, 0, 55, 0
3, 27456, Note_on_c, 0, 48, 102
3, 27516, Note_on_c, 0, 48, 0
3, 27840, Note_on_c, 0, 41, 111
3, 27900, Note_on_c, 0, 41, 0
3, 30336, Note_on_c, 0, 55, 91
3, 30396, Note_on_c, 0, 55, 0
3, 30720, Note_on_c, 0, 48, 74
3, 30780, Note_on_c, 0, 48, 0
3, 31104, Note_on_c, 0, 36, 55
3, 31164, Note_on_c, 0, 36, 0
3, 31168, Note_on_c, 0, 40, 67
3, 31228, Note_on_c, 0, 40, 0
3, 31232, Note_on_c, 0, 43, 77
3, 31292, Note_on_c, 0, 43, 0
3, 31296, Note_on_c, 0, 48, 85
3, 31356, Note_on_c, 0, 48, 0
3, 31360, Note_on_c, 0, 52, 84
3, 31420, Note_on_c, 0, 52, 0
3, 31424, Note_on_c, 0, 55, 98
3, 31484, Note_on_c, 0, 55, 0
3, 32064, Note_on_c, 0, 48, 102
3, 32124, Note_on_c, 0, 48, 0
3, 32448, Note_on_c, 0, 41, 111
3, 32508, Note_on_c, 0, 41, 0
3, 34944, Note_on_c, 0, 55, 91
3, 35004, Note_on_c, 0, 55, 0
3, 35328, Note_on_c, 0, 48, 74
3, 35388, Note_on_c, 0, 48, 0
3, 35712, Note_on_c, 0, 55, 97
3, 36860, Note_on_c, 0, 55, 0
3, 36864, Note_on_c, 0, 55, 86
3, 38012, Note_on_c, 0, 55, 0
3, 38016, Note_on_c, 0, 55, 91
3, 39164, Note_on_c, 0, 55, 0
3, 39168, Note_on_c, 0, 79, 72
3, 39168, Note_on_c, 0, 55, 71
3, 39228, Note_on_c, 0, 55, 0
3, 39228, Note_on_c, 0, 79, 0
3, 42240, Note_on_c, 0, 55, 61
3, 42240, Note_on_c, 0, 79, 77
3, 42300, Note_on_c, 0, 79, 0
3, 42300, Note_on_c, 0, 55, 0
3, 42432, Note_on_c, 0, 78, 58
3, 42432, Note_on_c, 0, 50, 53
3, 42492, Note_on_c, 0, 50, 0
3, 42492, Note_on_c, 0, 78, 0
3, 43776, Note_on_c, 0, 36, 55
3, 43836, Note_on_c, 0, 36, 0
3, 43840, Note_on_c, 0, 40, 67
3, 43900, Note_on_c, 0, 40, 0
3, 43904, Note_on_c, 0, 43, 77
3, 43964, Note_on_c, 0, 43, 0
3, 43968, Note_on_c, 0, 48, 85
3, 44028, Note_on_c, 0, 48, 0
3, 44032, Note_on_c, 0, 52, 84
3, 44092, Note_on_c, 0, 52, 0
3, 44096, Note_on_c, 0, 55, 98
3, 44156, Note_on_c, 0, 55, 0
3, 44736, Note_on_c, 0, 48, 102
3, 44796, Note_on_c, 0, 48, 0
3, 45120, Note_on_c, 0, 41, 111
3, 45180, Note_on_c, 0, 41, 0
3, 47616, Note_on_c, 0, 55, 91
3, 47676, Note_on_c, 0, 55, 0
3, 48000, Note_on_c, 0, 48, 74
3, 48060, Note_on_c, 0, 48, 0
3, 48384, Note_on_c, 0, 36, 55
3, 48444, Note_on_c, 0, 36, 0
3, 48448, Note_on_c, 0, 40, 67
3, 48508, Note_on_c, 0, 40, 0
3, 48512, Note_on_c, 0, 43, 77
3, 48572, Note_on_c, 0, 43, 0
3, 48576, Note_on_c, 0, 48, 85
3, 48636, Note_on_c, 0, 48, 0
3, 48640, Note_on_c, 0, 52, 84
3, 48700, Note_on_c, 0, 52, 0
3, 48704, Note_on_c, 0, 55, 98
3, 48764, Note_on_c, 0, 55, 0
3, 49344, Note_on_c, 0, 48, 102
3, 49404, Note_on_c, 0, 48, 0
3, 49728, Note_on_c, 0, 41, 111
3, 49788, Note_on_c, 0, 41, 0
3, 52224, Note_on_c, 0, 55, 91
3, 52284, Note_on_c, 0, 55, 0
3, 52608, Note_on_c, 0, 48, 74
3, 52668, Note_on_c, 0, 48, 0
3, 52992, Note_on_c, 0, 36, 68
3, 52992, Note_on_c, 0, 63, 73
3, 52992, Note_on_c, 0, 51, 68
3, 53052, Note_on_c, 0, 36, 0
3, 53056, Note_on_c, 0, 39, 61
3, 53116, Note_on_c, 0, 39, 0
3, 53120, Note_on_c, 0, 43, 60
3, 53180, Note_on_c, 0, 43, 0
3, 53184, Note_on_c, 0, 48, 67
3, 53244, Note_on_c, 0, 48, 0
3, 53248, Note_on_c, 0, 43, 62
3, 53308, Note_on_c, 0, 43, 0
3, 53312, Note_on_c, 0, 39, 60
3, 53372, Note_on_c, 0, 39, 0
3, 53376, Note_on_c, 0, 36, 82
3, 53436, Note_on_c, 0, 36, 0
3, 53564, Note_on_c, 0, 51, 0
3, 53564, Note_on_c, 0, 63, 0
3, 53568, Note_on_c, 0, 50, 52
3, 53568, Note_on_c, 0, 62, 62
3, 53756, Note_on_c, 0, 62, 0
3, 53756, Note_on_c, 0, 50, 0
3, 53760, Note_on_c, 0, 51, 75
3, 53760, Note_on_c, 0, 63, 84
3, 53820, Note_on_c, 0, 63, 0
3, 53820, Note_on_c, 0, 51, 0
3, 53952, Note_on_c, 0, 60, 87
3, 53952, Note_on_c, 0, 48, 88
3, 54012, Note_on_c, 0, 48, 0
3, 54012, Note_on_c, 0, 60, 0
3, 54144, Note_on_c, 0, 29, 64
3, 54204, Note_on_c, 0, 29, 0
3, 54208, Note_on_c, 0, 32, 60
3, 54268, Note_on_c, 0, 32, 0
3, 54272, Note_on_c, 0, 36, 61
3, 54332, Note_on_c, 0, 36, 0
3, 54336, Note_on_c, 0, 41, 63
3, 54396, Note_on_c, 0, 41, 0
3, 54400, Note_on_c, 0, 36, 63
3, 54460, Note_on_c, 0, 36, 0
3, 54464, Note_on_c, 0, 32, 70
3, 54524, Note_on_c, 0, 32, 0
3, 54528, Note_on_c, 0, 29, 56
3, 54588, Note_on_c, 0, 29, 0
3, 55104, Note_on_c, 0, 51, 70
3, 55104, Note_on_c, 0, 63, 49
3, 55164, Note_on_c, 0, 63, 0
3, 55164, Note_on_c, 0, 51, 0
3, 55296, Note_on_c, 0, 62, 68
3, 55296, Note_on_c, 0, 50, 55
3, 55296, Note_on_c, 0, 34, 59
3, 55356, Note_on_c, 0, 34, 0
3, 55360, Note_on_c, 0, 38, 58
3, 55420, Note_on_c, 0, 38, 0
3, 55424, Note_on_c, 0, 41, 71
3, 55484, Note_on_c, 0, 41, 0
3, 55488, Note_on_c, 0, 46, 51
3, 55548, Note_on_c, 0, 46, 0
3, 55552, Note_on_c, 0, 41, 60
3, 55612, Note_on_c, 0, 41, 0
3, 55616, Note_on_c, 0, 38, 58
3, 55676, Note_on_c, 0, 38, 0
3, 55680, Note_on_c, 0, 34, 62
3, 55740, Note_on_c, 0, 34, 0
3, 55868, Note_on_c, 0, 50, 0
3, 55868, Note_on_c, 0, 62, 0
3, 56448, Note_on_c, 0, 32, 66
3, 56508, Note_on_c, 0, 32, 0
3, 56512, Note_on_c, 0, 36, 70
3, 56572, Note_on_c, 0, 36, 0
3, 56576, Note_on_c, 0, 41, 73
3, 56636, Note_on_c, 0, 41, 0
3, 56640, Note_on_c, 0, 44, 61
3, 56700, Note_on_c, 0, 44, 0
3, 56704, Note_on_c, 0, 41, 60
3, 56764, Note_on_c, 0, 41, 0
3, 56768, Note_on_c, 0, 36, 63
3, 56828, Note_on_c, 0, 36, 0
3, 56832, Note_on_c, 0, 32, 65
3, 56892, Note_on_c, 0, 32, 0
3, 57600, Note_on_c, 0, 36, 64
3, 57660, Note_on_c, 0, 36, 0
3, 57664, Note_on_c, 0, 40, 62
3, 57724, Note_on_c, 0, 40, 0
3, 57728, Note_on_c, 0, 43, 63
3, 57788, Note_on_c, 0, 43, 0
3, 57792, Note_on_c, 0, 48, 76
3, 57852, Note_on_c, 0, 48, 0
3, 57856, Note_on_c, 0, 43, 65
3, 57916, Note_on_c, 0, 43, 0
3, 57920, Note_on_c, 0, 40, 59
3, 57980, Note_on_c, 0, 40, 0
3, 57984, Note_on_c, 0, 36, 68
3, 58044, Note_on_c, 0, 36, 0
3, 58752, Note_on_c, 0, 32, 59
3, 58788, Control_c, 0, 64, 127
3, 58812, Note_on_c, 0, 32, 0
3, 58816, Note_on_c, 0, 36, 63
3, 58876, Note_on_c, 0, 36, 0
3, 58880, Note_on_c, 0, 41, 72
3, 58940, Note_on_c, 0, 41, 0
3, 58944, Note_on_c, 0, 44, 55
3, 59004, Note_on_c, 0, 44, 0
3, 59008, Note_on_c, 0, 41, 62
3, 59068, Note_on_c, 0, 41, 0
3, 59072, Note_on_c, 0, 36, 56
3, 59132, Note_on_c, 0, 36, 0
3, 59136, Note_on_c, 0, 32, 63
3, 59196, Note_on_c, 0, 32, 0
3, 59324, Control_c, 0, 64, 0
3, 59904, Control_c, 0, 64, 127
3, 59968, Note_on_c, 0, 44, 64
3, 60028, Note_on_c, 0, 44, 0
3, 60032, Note_on_c, 0, 48, 62
3, 60092, Note_on_c, 0, 48, 0
3, 60096, Note_on_c, 0, 51, 71
3, 60156, Note_on_c, 0, 51, 0
3, 60160, Note_on_c, 0, 48, 76
3, 60220, Note_on_c, 0, 48, 0
3, 60224, Note_on_c, 0, 44, 66
3, 60284, Note_on_c, 0, 44, 0
3, 60352, Note_on_c, 0, 44, 58
3, 60412, Note_on_c, 0, 44, 0
3, 60416, Note_on_c, 0, 48, 94
3, 60476, Note_on_c, 0, 48, 0
3, 60480, Note_on_c, 0, 51, 86
3, 60540, Note_on_c, 0, 51, 0
3, 60544, Note_on_c, 0, 48, 89
3, 60604, Note_on_c, 0, 48, 0
3, 60608, Note_on_c, 0, 44, 82
3, 60644, Control_c, 0, 64, 0
3, 60668, Note_on_c, 0, 44, 0
3, 60672, Control_c, 0, 64, 127
3, 60736, Note_on_c, 0, 44, 77
3, 60796, Note_on_c, 0, 44, 0
3, 60800, Note_on_c, 0, 48, 84
3, 60860, Note_on_c, 0, 48, 0
3, 60864, Note_on_c, 0, 50, 91
3, 60924, Note_on_c, 0, 50, 0
3, 60928, Note_on_c, 0, 48, 100
3, 60988, Note_on_c, 0, 48, 0
3, 60992, Note_on_c, 0, 44, 91
3, 61028, Control_c, 0, 64, 0
3, 61052, Note_on_c, 0, 44, 0
3, 61056, Note_on_c, 0, 31, 66
3, 61056, Note_on_c, 0, 67, 79
3, 61056, Note_on_c, 0, 55, 77
3, 61116, Note_on_c, 0, 31, 0
3, 61120, Note_on_c, 0, 35, 67
3, 61180, Note_on_c, 0, 35, 0
3, 61184, Note_on_c, 0, 38, 56
3, 61244, Note_on_c, 0, 38, 0
3, 61248, Note_on_c, 0, 43, 57
3, 61308, Note_on_c, 0, 43, 0
3, 61312, Note_on_c, 0, 38, 61
3, 61372, Note_on_c, 0, 38, 0
3, 61376, Note_on_c, 0, 35, 64
3, 61436, Note_on_c, 0, 35, 0
3, 61440, Note_on_c, 0, 31, 85
3, 61500, Note_on_c, 0, 31, 0
3, 61628, Note_on_c, 0, 55, 0
3, 61628, Note_on_c, 0, 67, 0
3, 61632, Note_on_c, 0, 66, 63
3, 61632, Note_on_c, 0, 54, 59
3, 61820, Note_on_c, 0, 54, 0
3, 61820, Note_on_c, 0, 66, 0
3, 61824, Note_on_c, 0, 55, 71
3, 61824, Note_on_c, 0, 67, 85
3, 61884, Note_on_c, 0, 67, 0
3, 61884, Note_on_c, 0, 55, 0
3, 62208, Note_on_c, 0, 43, 64
3, 62268, Note_on_c, 0, 43, 0
3, 62272, Note_on_c, 0, 48, 75
3, 62332, Note_on_c, 0, 48, 0
3, 62336, Note_on_c, 0, 51, 63
3, 62396, Note_on_c, 0, 51, 0
3, 62400, Note_on_c, 0, 55, 51
3, 62460, Note_on_c, 0, 55, 0
3, 62464, Note_on_c, 0, 51, 64
3, 62524, Note_on_c, 0, 51, 0
3, 62528, Note_on_c, 0, 48, 79
3, 62588, Note_on_c, 0, 48, 0
3, 62592, Note_on_c, 0, 43, 71
3, 62652, Note_on_c, 0, 43, 0
3, 63360, Note_on_c, 0, 31, 65
3, 63420, Note_on_c, 0, 31, 0
3, 63424, Note_on_c, 0, 35, 63
3, 63484, Note_on_c, 0, 35, 0
3, 63488, Note_on_c, 0, 38, 61
3, 63548, Note_on_c, 0, 38, 0
3, 63552, Note_on_c, 0, 43, 66
3, 63612, Note_on_c, 0, 43, 0
3, 63616, Note_on_c, 0, 38, 56
3, 63676, Note_on_c, 0, 38, 0
3, 63680, Note_on_c, 0, 35, 75
3, 63740, Note_on_c, 0, 35, 0
3, 63744, Note_on_c, 0, 31, 75
3, 63804, Note_on_c, 0, 31, 0
3, 64512, Note_on_c, 0, 43, 70
3, 64572, Note_on_c, 0, 43, 0
3, 64576, Note_on_c, 0, 48, 88
3, 64636, Note_on_c, 0, 48, 0
3, 64640, Note_on_c, 0, 51, 74
3, 64700, Note_on_c, 0, 51, 0
3, 64704, Note_on_c, 0, 55, 79
3, 64764, Note_on_c, 0, 55, 0
3, 64768, Note_on_c, 0, 51, 58
3, 64828, Note_on_c, 0, 51, 0
3, 64832, Note_on_c, 0, 48, 79
3, 64892, Note_on_c, 0, 48, 0
3, 64896, Note_on_c, 0, 43, 64
3, 64956, Note_on_c, 0, 43, 0
3, 65664, Note_on_c, 0, 67, 83
3, 65664, Note_on_c, 0, 55, 77
3, 65664, Note_on_c, 0, 31, 59
3, 65724, Note_on_c, 0, 31, 0
3, 65728, Note_on_c, 0, 35, 72
3, 65788, Note_on_c, 0, 35, 0
3, 65792, Note_on_c, 0, 38, 59
3, 65852, Note_on_c, 0, 38, 0
3, 65856, Note_on_c, 0, 43, 68
3, 65916, Note_on_c, 0, 43, 0
3, 65916, Note_on_c, 0, 55, 0
3, 65916, Note_on_c, 0, 67, 0
3, 65920, Note_on_c, 0, 38, 69
3, 65980, Note_on_c, 0, 38, 0
3, 65984, Note_on_c, 0, 35, 79
3, 66044, Note_on_c, 0, 35, 0
3, 66048, Note_on_c, 0, 31, 78
3, 66108, Note_on_c, 0, 31, 0
3, 66112, Note_on_c, 0, 35, 78
3, 66172, Note_on_c, 0, 35, 0
3, 66176, Note_on_c, 0, 38, 75
3, 66236, Note_on_c, 0, 38, 0
3, 66240, Note_on_c, 0, 43, 85
3, 66300, Note_on_c, 0, 43, 0
3, 66304, Note_on_c, 0, 38, 86
3, 66364, Note_on_c, 0, 38, 0
3, 66368, Note_on_c, 0, 35, 89
3, 66428, Note_on_c, 0, 35, 0
3, 66688, Note_on_c, 0, 71, 95
3, 66688, Note_on_c, 0, 38, 81
3, 66748, Note_on_c, 0, 38, 0
3, 66748, Note_on_c, 0, 71, 0
3, 66816, Note_on_c, 0, 31, 103
3, 66816, Note_on_c, 0, 79, 107
3, 66836, Note_on_c, 0, 79, 0
3, 66836, Note_on_c, 0, 31, 0
3, 66880, Note_on_c, 0, 74, 94
3, 66880, Note_on_c, 0, 35, 73
3, 66940, Note_on_c, 0, 35, 0
3, 66940, Note_on_c, 0, 74, 0
3, 67008, Note_on_c, 0, 43, 59
3, 67008, Note_on_c, 0, 67, 89
3, 67068, Note_on_c, 0, 67, 0
3, 67068, Note_on_c, 0, 43, 0
3, 67072, Note_on_c, 0, 71, 86
3, 67072, Note_on_c, 0, 38, 78
3, 67132, Note_on_c, 0, 38, 0
3, 67132, Note_on_c, 0, 71, 0
3, 67200, Note_on_c, 0, 31, 107
3, 67200, Note_on_c, 0, 79, 109
3, 67220, Note_on_c, 0, 79, 0
3, 67220, Note_on_c, 0, 31, 0
3, 67264, Note_on_c, 0, 74, 96
3, 67264, Note_on_c, 0, 35, 79
3, 67324, Note_on_c, 0, 35, 0
3, 67324, Note_on_c, 0, 74, 0
3, 67392, Note_on_c, 0, 43, 79
3, 67392, Note_on_c, 0, 67, 96
3, 67452, Note_on_c, 0, 67, 0
3, 67452, Note_on_c, 0, 43, 0
3, 67584, Note_on_c, 0, 31, 104
3, 67584, Note_on_c, 0, 79, 112
3, 67604, Note_on_c, 0, 79, 0
3, 67604, Note_on_c, 0, 31, 0
3, 67648, Note_on_c, 0, 74, 96
3, 67648, Note_on_c, 0, 35, 85
3, 67708, Note_on_c, 0, 35, 0
3, 67708, Note_on_c, 0, 74, 0
3, 69120, Note_on_c, 0, 52, 55
3, 69120, Note_on_c, 0, 64, 57
3, 69564, Note_on_c, 0, 64, 0
3, 69564, Note_on_c, 0, 52, 0
3, 69568, Note_on_c, 0, 55, 73
3, 69568, Note_on_c, 0, 67, 80
3, 69628, Note_on_c, 0, 67, 0
3, 69628, Note_on_c, 0, 55, 0
3, 69824, Note_on_c, 0, 48, 56
3, 69824, Note_on_c, 0, 60, 51
3, 69884, Note_on_c, 0, 60, 0
3, 69884, Note_on_c, 0, 48, 0
3, 70016, Note_on_c, 0, 55, 66
3, 70016, Note_on_c, 0, 43, 57
3, 70076, Note_on_c, 0, 43, 0
3, 70076, Note_on_c, 0, 55, 0
3, 70080, Note_on_c, 0, 41, 53
3, 70080, Note_on_c, 0, 53, 57
3, 70140, Note_on_c, 0, 53, 0
3, 70140, Note_on_c, 0, 41, 0
3, 70144, Note_on_c, 0, 52, 64
3, 70144, Note_on_c, 0, 40, 51
3, 70204, Note_on_c, 0, 40, 0
3, 70204, Note_on_c, 0, 52, 0
3, 70208, Note_on_c, 0, 50, 58
3, 70208, Note_on_c, 0, 38, 52
3, 70268, Note_on_c, 0, 38, 0
3, 70268, Note_on_c, 0, 50, 0
3, 70272, Note_on_c, 0, 36, 55
3, 70272, Note_on_c, 0, 48, 62
3, 70332, Note_on_c, 0, 48, 0
3, 70332, Note_on_c, 0, 36, 0
3, 70336, Note_on_c, 0, 40, 67
3, 70336, Note_on_c, 0, 52, 63
3, 70396, Note_on_c, 0, 52, 0
3, 70396, Note_on_c, 0, 40, 0
3, 70400, Note_on_c, 0, 43, 77
3, 70400, Note_on_c, 0, 55, 70
3, 70460, Note_on_c, 0, 55, 0
3, 70460, Note_on_c, 0, 43, 0
3, 70464, Note_on_c, 0, 48, 85
3, 70524, Note_on_c, 0, 48, 0
3, 70528, Note_on_c, 0, 52, 84
3, 70588, Note_on_c, 0, 52, 0
3, 70592, Note_on_c, 0, 55, 98
3, 70652, Note_on_c, 0, 55, 0
3, 71232, Note_on_c, 0, 48, 102
3, 71292, Note_on_c, 0, 48, 0
3, 71616, Note_on_c, 0, 41, 111
3, 71676, Note_on_c, 0, 41, 0
3, 74112, Note_on_c, 0, 55, 91
3, 74172, Note_on_c, 0, 55, 0
3, 74496, Note_on_c, 0, 48, 74
3, 74556, Note_on_c, 0, 48, 0
3, 74880, Note_on_c, 0, 36, 55
3, 74940, Note_on_c, 0, 36, 0
3, 74944, Note_on_c, 0, 40, 67
3, 75004, Note_on_c, 0, 40, 0
3, 75008, Note_on_c, 0, 43, 77
3, 75068, Note_on_c, 0, 43, 0
3, 75072, Note_on_c, 0, 48, 85
3, 75132, Note_on_c, 0, 48, 0
3, 75136, Note_on_c, 0, 52, 84
3, 75196, Note_on_c, 0, 52, 0
3, 75200, Note_on_c, 0, 55, 98
3, 75260, Note_on_c, 0, 55, 0
3, 75840, Note_on_c, 0, 48, 102
3, 75900, Note_on_c, 0, 48, 0
3, 76224, Note_on_c, 0, 41, 111
3, 76284, Note_on_c, 0, 41, 0
3, 78720, Note_on_c, 0, 55, 91
3, 78780, Note_on_c, 0, 55, 0
3, 79104, Note_on_c, 0, 48, 74
3, 79164, Note_on_c, 0, 48, 0
3, 79488, Note_on_c, 0, 55, 97
3, 80636, Note_on_c, 0, 55, 0
3, 80640, Note_on_c, 0, 55, 86
3, 81788, Note_on_c, 0, 55, 0
3, 81792, Note_on_c, 0, 55, 91
3, 82940, Note_on_c, 0, 55, 0
3, 82944, Note_on_c, 0, 79, 72
3, 82944, Note_on_c, 0, 55, 71
3, 83004, Note_on_c, 0, 55, 0
3, 83004, Note_on_c, 0, 79, 0
3, 86016, Note_on_c, 0, 55, 61
3, 86016, Note_on_c, 0, 79, 77
3, 86076, Note_on_c, 0, 79, 0
3, 86076, Note_on_c, 0, 55, 0
3, 86208, Note_on_c, 0, 78, 58
3, 86208, Note_on_c, 0, 50, 53
3, 86268, Note_on_c, 0, 50, 0
3, 86268, Note_on_c, 0, 78, 0
3, 87552, Note_on_c, 0, 36, 55
3, 87612, Note_on_c, 0, 36, 0
3, 87616, Note_on_c, 0, 40, 67
3, 87676, Note_on_c, 0, 40, 0
3, 87680, Note_on_c, 0, 43, 77
3, 87740, Note_on_c, 0, 43, 0
3, 87744, Note_on_c, 0, 48, 85
3, 87804, Note_on_c, 0, 48, 0
3, 87808, Note_on_c, 0, 52, 84
3, 87868, Note_on_c, 0, 52, 0
3, 87872, Note_on_c, 0, 55, 98
3, 87932, Note_on_c, 0, 55, 0
3, 88512, Note_on_c, 0, 48, 102
3, 88572, Note_on_c, 0, 48, 0
3, 88896, Note_on_c, 0, 41, 111
3, 88956, Note_on_c, 0, 41, 0
3, 91392, Note_on_c, 0, 55, 91
3, 91452, Note_on_c, 0, 55, 0
3, 91776, Note_on_c, 0, 48, 74
3, 91836, Note_on_c, 0, 48, 0
3, 92160, Note_on_c, 0, 36, 55
3, 92220, Note_on_c, 0, 36, 0
3, 92224, Note_on_c, 0, 40, 67
3, 92284, Note_on_c, 0, 40, 0
3, 92288, Note_on_c, 0, 43, 77
3, 92348, Note_on_c, 0, 43, 0
3, 92352, Note_on_c, 0, 48, 85
3, 92412, Note_on_c, 0, 48, 0
3, 92416, Note_on_c, 0, 52, 84
3, 92476, Note_on_c, 0, 52, 0
3, 92480, Note_on_c, 0, 55, 98
3, 92540, Note_on_c, 0, 55, 0
3, 93120, Note_on_c, 0, 48, 102
3, 93180, Note_on_c, 0, 48, 0
3, 93504, Note_on_c, 0, 41, 109
3, 93564, Note_on_c, 0, 41, 0
3, 94272, Note_on_c, 0, 41, 105
3, 94332, Note_on_c, 0, 41, 0
3, 94656, Note_on_c, 0, 41, 108
3, 94716, Note_on_c, 0, 41, 0
3, 95424, Note_on_c, 0, 41, 107
3, 95484, Note_on_c, 0, 41, 0
3, 95808, Note_on_c, 0, 41, 79
3, 95868, Note_on_c, 0, 41, 0
3, 96192, Note_on_c, 0, 41, 74
3, 96252, Note_on_c, 0, 41, 0
3, 96576, Note_on_c, 0, 41, 78
3, 96636, Note_on_c, 0, 41, 0
3, 96960, Note_on_c, 0, 41, 59
3, 97020, Note_on_c, 0, 41, 0
3, 97344, Note_on_c, 0, 41, 59
3, 97404, Note_on_c, 0, 41, 0
3, 97728, Note_on_c, 0, 41, 74
3, 97788, Note_on_c, 0, 41, 0
3, 98016, Note_on_c, 0, 41, 61
3, 98044, Note_on_c, 0, 41, 0
3, 98208, Note_on_c, 0, 41, 70
3, 98236, Note_on_c, 0, 41, 0
3, 98400, Note_on_c, 0, 41, 83
3, 98428, Note_on_c, 0, 41, 0
3, 98592, Note_on_c, 0, 41, 90
3, 98620, Note_on_c, 0, 41, 0
3, 98784, Note_on_c, 0, 41, 92
3, 98812, Note_on_c, 0, 41, 0
3, 98976, Note_on_c, 0, 41, 97
3, 99004, Note_on_c, 0, 41, 0
3, 99168, Note_on_c, 0, 41, 96
3, 99196, Note_on_c, 0, 41, 0
3, 99360, Note_on_c, 0, 41, 105
3, 99388, Note_on_c, 0, 41, 0
3, 99552, Note_on_c, 0, 41, 102
3, 99580, Note_on_c, 0, 41, 0
3, 99744, Note_on_c, 0, 41, 98
3, 99772, Note_on_c, 0, 41, 0
3, 99936, Note_on_c, 0, 41, 102
3, 99964, Note_on_c, 0, 41, 0
3, 100128, Note_on_c, 0, 41, 107
3, 100156, Note_on_c, 0, 41, 0
3, 100416, Note_on_c, 0, 29, 122
3, 100416, Note_on_c, 0, 41, 117
3, 100476, Note_on_c, 0, 41, 0
3, 100476, Note_on_c, 0, 29, 0
3, 102336, Note_on_c, 0, 55, 78
3, 102396, Note_on_c, 0, 55, 0
3, 104832, Note_on_c, 0, 52, 74
3, 104892, Note_on_c, 0, 52, 0
3, 104896, Note_on_c, 0, 53, 59
3, 104956, Note_on_c, 0, 53, 0
3, 104960, Note_on_c, 0, 55, 75
3, 105020, Note_on_c, 0, 55, 0
3, 105024, Note_on_c, 0, 48, 87
3, 105024, Note_on_c, 0, 71, 88
3, 105024, Note_on_c, 0, 62, 90
3, 105024, Note_on_c, 0, 56, 86
3, 105084, Note_on_c, 0, 56, 0
3, 105084, Note_on_c, 0, 48, 0
3, 105084, Note_on_c, 0, 71, 0
3, 105084, Note_on_c, 0, 62, 0
3, 105088, Note_on_c, 0, 64, 74
3, 105088, Note_on_c, 0, 55, 69
3, 105148, Note_on_c, 0, 55, 0
3, 105148, Note_on_c, 0, 64, 0
3, 105152, Note_on_c, 0, 65, 67
3, 105152, Note_on_c, 0, 53, 60
3, 105212, Note_on_c, 0, 53, 0
3, 105212, Note_on_c, 0, 65, 0
3, 105344, Note_on_c, 0, 67, 65
3, 105344, Note_on_c, 0, 52, 56
3, 105404, Note_on_c, 0, 52, 0
3, 105404, Note_on_c, 0, 67, 0
3, 105408, Note_on_c, 0, 71, 83
3, 105408, Note_on_c, 0, 48, 87
3, 105408, Note_on_c, 0, 56, 84
3, 105408, Note_on_c, 0, 62, 90
3, 105468, Note_on_c, 0, 62, 0
3, 105468, Note_on_c, 0, 71, 0
3, 105468, Note_on_c, 0, 48, 0
3, 105468, Note_on_c, 0, 56, 0
3, 105536, Note_on_c, 0, 65, 53
3, 105536, Note_on_c, 0, 53, 47
3, 105596, Note_on_c, 0, 53, 0
3, 105596, Note_on_c, 0, 65, 0
3, 105600, Note_on_c, 0, 48, 62
3, 105600, Note_on_c, 0, 72, 54
3, 105660, Note_on_c, 0, 72, 0
3, 105660, Note_on_c, 0, 48, 0
3, 105728, Note_on_c, 0, 67, 67
3, 105728, Note_on_c, 0, 52, 49
3, 105788, Note_on_c, 0, 52, 0
3, 105788, Note_on_c, 0, 67, 0
3, 105792, Note_on_c, 0, 56, 86
3, 105792, Note_on_c, 0, 62, 89
3, 105852, Note_on_c, 0, 62, 0
3, 105852, Note_on_c, 0, 56, 0
3, 105856, Note_on_c, 0, 55, 63
3, 105856, Note_on_c, 0, 64, 74
3, 105916, Note_on_c, 0, 64, 0
3, 105916, Note_on_c, 0, 55, 0
3, 105920, Note_on_c, 0, 53, 66
3, 105920, Note_on_c, 0, 65, 75
3, 105980, Note_on_c, 0, 65, 0
3, 105980, Note_on_c, 0, 53, 0
3, 105984, Note_on_c, 0, 55, 64
3, 105984, Note_on_c, 0, 64, 59
3, 105984, Note_on_c, 0, 48, 68
3, 106044, Note_on_c, 0, 48, 0
3, 106044, Note_on_c, 0, 64, 0
3, 106044, Note_on_c, 0, 55, 0
3, 107136, Note_on_c, 0, 72, 75
3, 107136, Note_on_c, 0, 48, 68
3, 107156, Note_on_c, 0, 48, 0
3, 107156, Note_on_c, 0, 72, 0
3, 107200, Note_on_c, 0, 64, 73
3, 107200, Note_on_c, 0, 52, 60
3, 107260, Note_on_c, 0, 52, 0
3, 107260, Note_on_c, 0, 64, 0
3, 107264, Note_on_c, 0, 65, 77
3, 107264, Note_on_c, 0, 53, 63
3, 107324, Note_on_c, 0, 53, 0
3, 107324, Note_on_c, 0, 65, 0
3, 107584, Note_on_c, 0, 64, 80
3, 107584, Note_on_c, 0, 52, 78
3, 107644, Note_on_c, 0, 52, 0
3, 107644, Note_on_c, 0, 64, 0
3, 107648, Note_on_c, 0, 65, 92
3, 107648, Note_on_c, 0, 53, 71
3, 107708, Note_on_c, 0, 53, 0
3, 107708, Note_on_c, 0, 65, 0
3, 107712, Note_on_c, 0, 55, 75
3, 107712, Note_on_c, 0, 67, 97
3, 107772, Note_on_c, 0, 67, 0
3, 107772, Note_on_c, 0, 55, 0
3, 107840, Note_on_c, 0, 64, 92
3, 107840, Note_on_c, 0, 52, 92
3, 107860, Note_on_c, 0, 52, 0
3, 107860, Note_on_c, 0, 64, 0
3, 108032, Note_on_c, 0, 65, 91
3, 108032, Note_on_c, 0, 53, 82
3, 108092, Note_on_c, 0, 53, 0
3, 108092, Note_on_c, 0, 65, 0
3, 108224, Note_on_c, 0, 64, 99
3, 108224, Note_on_c, 0, 52, 99
3, 108244, Note_on_c, 0, 52, 0
3, 108244, Note_on_c, 0, 64, 0
3, 108288, Note_on_c, 0, 36, 102
3, 108288, Note_on_c, 0, 84, 108
3, 108348, Note_on_c, 0, 84, 0
3, 108348, Note_on_c, 0, 36, 0
3, 108348, End_track
4, 0, Start_track
4, 0, Title_t, "Ludwig van Beethoven"
4, 0, End_track
5, 0, Start_track
5, 0, Title_t, "Performed and sequenced by:  Wesley Venable"
5, 0, End_track
6, 0, Start_track
6, 0, Title_t, "Instrument:  Yamaha Clavinova CLP - 123"
6, 0, End_track
7, 0, Start_track
7, 0, Title_t, "Wesley_Venable@Prodigy.com"
7, 0, End_track
0, 0, End_of_file
