0, 0, Header, 1, 7, 480
1, 0, Start_track
1, 0, Title_t, "Seq-1"
1, 0, SMPTE_offset, 96, 0, 0, 0, 0
1, 0, Time_signature, 4, 2, 24, 8
1, 0, Tempo, 500000
1, 234760, Tempo, 467308
1, 234780, Tempo, 461538
1, 234780, End_track
2, 0, Start_track
2, 0, Title_t, "Beethoven Sonata No. 19"
2, 0, Control_c, 0, 11, 86
2, 480, Control_c, 0, 7, 127
2, 2230, Control_c, 0, 64, 127
2, 2278, Note_on_c, 0, 62, 36
2, 2573, Note_off_c, 0, 62, 49
2, 2695, Note_on_c, 0, 70, 64
2, 3073, Note_on_c, 0, 67, 58
2, 3083, Note_on_c, 0, 62, 38
2, 3087, Note_on_c, 0, 58, 45
2, 3125, Note_off_c, 0, 70, 56
2, 3440, Note_off_c, 0, 62, 49
2, 3441, Note_off_c, 0, 58, 51
2, 3469, Note_on_c, 0, 66, 48
2, 3469, Note_on_c, 0, 57, 34
2, 3479, Note_on_c, 0, 60, 40
2, 3490, Control_c, 0, 64, 0
2, 3520, Note_off_c, 0, 67, 54
2, 3590, Control_c, 0, 64, 90
2, 3837, Note_off_c, 0, 57, 48
2, 3853, Note_off_c, 0, 60, 50
2, 3881, Note_on_c, 0, 67, 42
2, 3881, Note_on_c, 0, 58, 30
2, 3881, Note_on_c, 0, 55, 25
2, 3930, Note_off_c, 0, 66, 52
2, 4186, Note_off_c, 0, 67, 50
2, 4186, Note_off_c, 0, 58, 47
2, 4188, Note_off_c, 0, 55, 46
2, 4320, Note_on_c, 0, 72, 60
2, 4330, Note_on_c, 0, 62, 40
2, 4333, Note_on_c, 0, 57, 45
2, 4333, Note_on_c, 0, 54, 36
2, 4340, Control_c, 0, 64, 0
2, 4520, Control_c, 0, 64, 85
2, 4630, Note_off_c, 0, 54, 49
2, 4760, Note_on_c, 0, 54, 36
2, 4760, Note_on_c, 0, 50, 30
2, 4790, Note_off_c, 0, 57, 51
2, 5093, Note_off_c, 0, 50, 47
2, 5093, Note_off_c, 0, 54, 49
2, 5130, Control_c, 0, 64, 0
2, 5140, Note_on_c, 0, 55, 39
2, 5140, Note_on_c, 0, 52, 31
2, 5310, Control_c, 0, 64, 88
2, 5470, Note_off_c, 0, 52, 47
2, 5473, Note_off_c, 0, 55, 49
2, 5516, Note_on_c, 0, 57, 42
2, 5516, Note_on_c, 0, 54, 36
2, 5657, Note_off_c, 0, 62, 50
2, 5803, Note_off_c, 0, 72, 55
2, 5804, Note_off_c, 0, 54, 49
2, 5806, Note_off_c, 0, 57, 50
2, 5870, Note_on_c, 0, 70, 60
2, 5883, Control_c, 0, 64, 0
2, 5894, Note_on_c, 0, 58, 45
2, 5907, Note_on_c, 0, 55, 50
2, 6063, Control_c, 0, 64, 120
2, 6164, Note_off_c, 0, 58, 51
2, 6263, Note_on_c, 0, 67, 54
2, 6284, Note_off_c, 0, 55, 52
2, 6291, Note_off_c, 0, 70, 55
2, 6296, Note_on_c, 0, 62, 42
2, 6300, Note_on_c, 0, 58, 48
2, 6678, Note_on_c, 0, 66, 50
2, 6700, Control_c, 0, 64, 0
2, 6701, Note_on_c, 0, 57, 36
2, 6710, Note_off_c, 0, 58, 52
2, 6711, Note_on_c, 0, 60, 40
2, 6717, Note_off_c, 0, 62, 50
2, 6718, Note_off_c, 0, 67, 53
2, 6880, Control_c, 0, 64, 120
2, 7040, Note_off_c, 0, 57, 49
2, 7053, Note_off_c, 0, 60, 50
2, 7082, Note_on_c, 0, 67, 56
2, 7095, Note_on_c, 0, 58, 42
2, 7095, Note_on_c, 0, 55, 36
2, 7113, Note_off_c, 0, 66, 52
2, 7404, Note_off_c, 0, 67, 54
2, 7416, Note_off_c, 0, 55, 49
2, 7419, Note_off_c, 0, 58, 50
2, 7537, Note_on_c, 0, 75, 78
2, 7537, Note_on_c, 0, 48, 48
2, 7547, Note_on_c, 0, 67, 55
2, 7550, Control_c, 0, 64, 0
2, 7730, Control_c, 0, 64, 120
2, 7945, Note_off_c, 0, 48, 52
2, 7949, Note_on_c, 0, 51, 36
2, 8326, Note_off_c, 0, 51, 49
2, 8326, Note_on_c, 0, 55, 40
2, 8702, Note_off_c, 0, 55, 50
2, 8702, Note_on_c, 0, 60, 44
2, 8837, Note_off_c, 0, 67, 53
2, 9040, Note_off_c, 0, 60, 51
2, 9040, Note_off_c, 0, 75, 59
2, 9082, Note_on_c, 0, 58, 52
2, 9082, Note_on_c, 0, 74, 48
2, 9083, Control_c, 0, 64, 0
2, 9263, Control_c, 0, 64, 120
2, 9413, Note_off_c, 0, 74, 52
2, 9473, Note_on_c, 0, 78, 48
2, 9886, Note_off_c, 0, 58, 53
2, 9886, Note_on_c, 0, 79, 60
2, 9947, Note_off_c, 0, 78, 52
2, 10193, Note_off_c, 0, 79, 55
2, 10297, Note_on_c, 0, 74, 48
2, 10307, Note_on_c, 0, 62, 36
2, 10307, Note_on_c, 0, 58, 32
2, 10310, Control_c, 0, 64, 0
2, 10490, Control_c, 0, 64, 120
2, 10560, Note_off_c, 0, 62, 49
2, 10622, Note_off_c, 0, 58, 48
2, 10708, Note_on_c, 0, 72, 48
2, 10708, Note_on_c, 0, 62, 42
2, 10708, Note_on_c, 0, 54, 36
2, 10710, Control_c, 0, 64, 0
2, 10774, Note_off_c, 0, 74, 52
2, 10890, Control_c, 0, 64, 120
2, 11001, Note_off_c, 0, 72, 52
2, 11083, Note_on_c, 0, 80, 54
2, 11495, Note_off_c, 0, 62, 50
2, 11495, Note_off_c, 0, 54, 49
2, 11498, Note_on_c, 0, 81, 60
2, 11573, Note_off_c, 0, 80, 53
2, 11845, Note_off_c, 0, 81, 55
2, 11943, Note_on_c, 0, 72, 52
2, 11943, Note_on_c, 0, 62, 47
2, 11943, Note_on_c, 0, 54, 42
2, 11953, Control_c, 0, 64, 0
2, 12133, Control_c, 0, 64, 120
2, 12227, Note_off_c, 0, 62, 51
2, 12308, Note_off_c, 0, 54, 50
2, 12387, Note_on_c, 0, 70, 48
2, 12387, Note_on_c, 0, 62, 42
2, 12387, Note_on_c, 0, 55, 38
2, 12393, Control_c, 0, 64, 0
2, 12424, Note_off_c, 0, 72, 53
2, 12573, Control_c, 0, 64, 120
2, 12763, Note_on_c, 0, 79, 54
2, 12834, Note_off_c, 0, 70, 52
2, 13026, Note_off_c, 0, 55, 49
2, 13029, Note_off_c, 0, 62, 50
2, 13162, Note_on_c, 0, 69, 60
2, 13162, Note_on_c, 0, 60, 48
2, 13162, Note_on_c, 0, 48, 42
2, 13163, Control_c, 0, 64, 0
2, 13227, Note_off_c, 0, 79, 53
2, 13343, Control_c, 0, 64, 120
2, 13570, Note_on_c, 0, 75, 60
2, 13640, Note_off_c, 0, 69, 55
2, 13893, Note_off_c, 0, 48, 50
2, 13910, Note_off_c, 0, 60, 52
2, 13926, Note_off_c, 0, 75, 55
2, 14018, Note_on_c, 0, 67, 51
2, 14018, Note_on_c, 0, 58, 31
2, 14018, Note_on_c, 0, 50, 25
2, 14020, Control_c, 0, 64, 0
2, 14200, Control_c, 0, 64, 120
2, 14683, Note_off_c, 0, 67, 52
2, 14703, Note_on_c, 0, 69, 47
2, 14806, Note_off_c, 0, 69, 51
2, 14806, Note_on_c, 0, 67, 46
2, 14867, Note_off_c, 0, 58, 47
2, 14870, Note_on_c, 0, 66, 50
2, 14873, Note_on_c, 0, 57, 38
2, 14874, Note_off_c, 0, 67, 51
2, 14877, Control_c, 0, 64, 0
2, 15057, Control_c, 0, 64, 120
2, 15080, Note_off_c, 0, 50, 46
2, 15149, Note_off_c, 0, 57, 49
2, 15160, Note_off_c, 0, 66, 52
2, 15252, Note_on_c, 0, 62, 36
2, 15260, Control_c, 0, 64, 0
2, 15565, Note_off_c, 0, 62, 49
2, 15643, Note_on_c, 0, 70, 48
2, 15680, Control_c, 0, 64, 120
2, 16037, Note_on_c, 0, 67, 48
2, 16054, Note_on_c, 0, 58, 42
2, 16054, Note_on_c, 0, 62, 36
2, 16087, Note_off_c, 0, 70, 52
2, 16435, Note_on_c, 0, 66, 49
2, 16437, Control_c, 0, 64, 0
2, 16450, Note_on_c, 0, 57, 33
2, 16450, Note_on_c, 0, 60, 29
2, 16468, Note_off_c, 0, 62, 49
2, 16468, Note_off_c, 0, 58, 50
2, 16480, Note_off_c, 0, 67, 52
2, 16617, Control_c, 0, 64, 120
2, 16846, Note_on_c, 0, 67, 42
2, 16861, Note_on_c, 0, 58, 22
2, 16863, Note_on_c, 0, 55, 30
2, 16878, Note_off_c, 0, 57, 48
2, 16878, Note_off_c, 0, 60, 47
2, 16893, Note_off_c, 0, 66, 52
2, 17150, Note_off_c, 0, 67, 50
2, 17168, Note_off_c, 0, 55, 47
2, 17168, Note_off_c, 0, 58, 45
2, 17284, Note_on_c, 0, 72, 78
2, 17290, Control_c, 0, 64, 0
2, 17299, Note_on_c, 0, 62, 50
2, 17301, Note_on_c, 0, 57, 55
2, 17301, Note_on_c, 0, 54, 46
2, 17470, Control_c, 0, 64, 120
2, 17562, Note_off_c, 0, 54, 51
2, 17728, Note_on_c, 0, 54, 36
2, 17728, Note_on_c, 0, 50, 30
2, 17752, Note_off_c, 0, 57, 53
2, 18107, Note_on_c, 0, 55, 39
2, 18107, Note_on_c, 0, 52, 33
2, 18137, Control_c, 0, 64, 0
2, 18152, Note_off_c, 0, 50, 47
2, 18152, Note_off_c, 0, 54, 49
2, 18317, Control_c, 0, 64, 120
2, 18484, Note_on_c, 0, 57, 42
2, 18484, Note_on_c, 0, 54, 36
2, 18529, Note_off_c, 0, 55, 49
2, 18529, Note_off_c, 0, 52, 48
2, 18755, Note_off_c, 0, 57, 50
2, 18755, Note_off_c, 0, 54, 49
2, 18844, Note_off_c, 0, 72, 59
2, 18846, Note_on_c, 0, 70, 48
2, 18850, Control_c, 0, 64, 0
2, 18859, Note_off_c, 0, 62, 52
2, 18863, Note_on_c, 0, 55, 45
2, 18866, Note_on_c, 0, 58, 40
2, 19030, Control_c, 0, 64, 120
2, 19113, Note_off_c, 0, 58, 50
2, 19237, Note_on_c, 0, 67, 41
2, 19255, Note_on_c, 0, 62, 48
2, 19255, Note_on_c, 0, 58, 40
2, 19257, Note_off_c, 0, 70, 52
2, 19325, Note_off_c, 0, 55, 51
2, 19636, Note_on_c, 0, 66, 50
2, 19647, Control_c, 0, 64, 0
2, 19651, Note_on_c, 0, 57, 41
2, 19651, Note_on_c, 0, 60, 30
2, 19684, Note_off_c, 0, 67, 50
2, 19685, Note_off_c, 0, 58, 50
2, 19685, Note_off_c, 0, 62, 52
2, 19827, Control_c, 0, 64, 120
2, 20046, Note_on_c, 0, 67, 42
2, 20061, Note_on_c, 0, 58, 30
2, 20063, Note_on_c, 0, 55, 34
2, 20096, Note_off_c, 0, 60, 47
2, 20097, Note_off_c, 0, 66, 52
2, 20098, Note_off_c, 0, 57, 50
2, 20370, Note_off_c, 0, 67, 50
2, 20385, Note_off_c, 0, 58, 47
2, 20385, Note_off_c, 0, 55, 48
2, 20501, Note_on_c, 0, 75, 84
2, 20503, Note_on_c, 0, 48, 57
2, 20510, Control_c, 0, 64, 0
2, 20690, Control_c, 0, 64, 120
2, 20930, Note_on_c, 0, 51, 36
2, 21341, Note_off_c, 0, 51, 49
2, 21343, Note_on_c, 0, 55, 40
2, 21413, Note_off_c, 0, 48, 54
2, 21567, Note_off_c, 0, 75, 61
2, 21720, Note_off_c, 0, 55, 50
2, 21737, Note_on_c, 0, 75, 52
2, 21737, Note_on_c, 0, 57, 30
2, 21737, Note_on_c, 0, 48, 24
2, 22114, Note_off_c, 0, 57, 47
2, 22114, Note_off_c, 0, 48, 46
2, 22115, Note_on_c, 0, 58, 48
2, 22115, Note_on_c, 0, 50, 40
2, 22127, Control_c, 0, 64, 0
2, 22303, Note_on_c, 0, 74, 45
2, 22307, Control_c, 0, 64, 120
2, 22347, Note_off_c, 0, 75, 53
2, 22507, Note_on_c, 0, 77, 55
2, 22553, Note_off_c, 0, 74, 51
2, 22697, Note_on_c, 0, 76, 66
2, 22740, Note_off_c, 0, 77, 53
2, 22902, Note_off_c, 0, 50, 50
2, 22903, Note_on_c, 0, 79, 66
2, 22904, Note_off_c, 0, 58, 52
2, 22947, Note_off_c, 0, 76, 56
2, 23090, Note_on_c, 0, 77, 58
2, 23136, Note_off_c, 0, 79, 56
2, 23297, Note_on_c, 0, 75, 50
2, 23298, Note_on_c, 0, 53, 36
2, 23298, Note_on_c, 0, 50, 30
2, 23307, Control_c, 0, 64, 0
2, 23340, Note_off_c, 0, 77, 54
2, 23487, Control_c, 0, 64, 120
2, 23520, Note_on_c, 0, 74, 42
2, 23564, Note_off_c, 0, 75, 52
2, 23672, Note_off_c, 0, 53, 49
2, 23682, Note_off_c, 0, 74, 50
2, 23704, Note_off_c, 0, 50, 47
2, 23726, Note_on_c, 0, 72, 62
2, 23729, Note_on_c, 0, 51, 37
2, 23729, Note_on_c, 0, 55, 34
2, 23740, Control_c, 0, 64, 0
2, 23794, Note_on_c, 0, 74, 62
2, 23840, Note_off_c, 0, 72, 55
2, 23861, Note_on_c, 0, 75, 56
2, 23880, Note_off_c, 0, 74, 55
2, 23920, Control_c, 0, 64, 120
2, 23930, Note_on_c, 0, 74, 50
2, 23987, Note_off_c, 0, 75, 54
2, 24137, Note_off_c, 0, 55, 48
2, 24137, Note_on_c, 0, 72, 62
2, 24137, Note_on_c, 0, 60, 39
2, 24180, Note_off_c, 0, 74, 52
2, 24490, Note_off_c, 0, 72, 55
2, 24547, Note_off_c, 0, 60, 49
2, 24547, Note_off_c, 0, 51, 49
2, 24550, Note_on_c, 0, 71, 62
2, 24551, Note_on_c, 0, 55, 42
2, 24551, Note_on_c, 0, 52, 36
2, 24617, Note_on_c, 0, 72, 58
2, 24620, Control_c, 0, 64, 0
2, 24654, Note_off_c, 0, 71, 55
2, 24701, Note_off_c, 0, 72, 54
2, 24701, Note_on_c, 0, 74, 54
2, 24770, Note_on_c, 0, 72, 50
2, 24800, Note_off_c, 0, 74, 53
2, 24800, Control_c, 0, 64, 120
2, 24977, Note_on_c, 0, 70, 62
2, 24978, Note_off_c, 0, 55, 50
2, 24990, Note_on_c, 0, 60, 40
2, 25060, Note_off_c, 0, 72, 52
2, 25200, Note_off_c, 0, 60, 50
2, 25303, Note_off_c, 0, 70, 55
2, 25369, Note_off_c, 0, 52, 49
2, 25387, Note_on_c, 0, 69, 69
2, 25400, Note_on_c, 0, 60, 30
2, 25414, Note_on_c, 0, 53, 42
2, 25453, Control_c, 0, 64, 0
2, 25457, Note_on_c, 0, 70, 63
2, 25493, Note_off_c, 0, 69, 57
2, 25524, Note_on_c, 0, 72, 66
2, 25542, Note_off_c, 0, 70, 55
2, 25594, Note_on_c, 0, 70, 60
2, 25633, Control_c, 0, 64, 120
2, 25640, Note_off_c, 0, 72, 56
2, 25798, Note_on_c, 0, 69, 48
2, 25849, Note_off_c, 0, 70, 55
2, 26004, Note_on_c, 0, 67, 48
2, 26082, Note_off_c, 0, 69, 52
2, 26213, Note_on_c, 0, 65, 46
2, 26217, Control_c, 0, 64, 0
2, 26223, Note_off_c, 0, 60, 47
2, 26237, Note_off_c, 0, 53, 50
2, 26259, Note_off_c, 0, 67, 52
2, 26397, Control_c, 0, 64, 120
2, 26414, Note_on_c, 0, 64, 44
2, 26446, Note_off_c, 0, 65, 51
2, 26621, Note_on_c, 0, 65, 41
2, 26681, Note_off_c, 0, 64, 51
2, 26827, Note_on_c, 0, 67, 39
2, 26885, Note_off_c, 0, 65, 50
2, 26950, Control_c, 0, 64, 0
2, 27034, Note_on_c, 0, 65, 36
2, 27066, Note_off_c, 0, 67, 49
2, 27130, Control_c, 0, 64, 120
2, 27238, Note_off_c, 0, 65, 49
2, 27238, Note_on_c, 0, 75, 60
2, 27240, Note_on_c, 0, 57, 36
2, 27427, Note_on_c, 0, 65, 36
2, 27456, Note_off_c, 0, 57, 49
2, 27541, Note_off_c, 0, 65, 49
2, 27614, Note_off_c, 0, 75, 55
2, 27617, Note_on_c, 0, 69, 54
2, 27617, Note_on_c, 0, 60, 36
2, 27620, Control_c, 0, 64, 0
2, 27728, Note_off_c, 0, 60, 49
2, 27800, Control_c, 0, 64, 120
2, 27804, Note_on_c, 0, 65, 37
2, 27905, Note_off_c, 0, 69, 53
2, 27944, Note_off_c, 0, 65, 49
2, 27991, Note_on_c, 0, 69, 42
2, 27994, Note_on_c, 0, 63, 38
2, 28103, Note_off_c, 0, 69, 50
2, 28105, Note_off_c, 0, 63, 49
2, 28181, Note_on_c, 0, 65, 39
2, 28302, Note_off_c, 0, 65, 49
2, 28370, Note_on_c, 0, 60, 40
2, 28370, Note_on_c, 0, 69, 36
2, 28380, Control_c, 0, 64, 0
2, 28504, Note_off_c, 0, 69, 49
2, 28558, Note_on_c, 0, 65, 41
2, 28560, Control_c, 0, 64, 120
2, 28590, Note_off_c, 0, 60, 50
2, 28664, Note_off_c, 0, 65, 50
2, 28747, Note_on_c, 0, 62, 42
2, 28747, Note_on_c, 0, 70, 37
2, 28876, Note_off_c, 0, 62, 50
2, 28920, Note_off_c, 0, 70, 49
2, 28937, Note_on_c, 0, 72, 57
2, 28937, Note_on_c, 0, 65, 42
2, 29002, Note_off_c, 0, 72, 54
2, 29004, Note_on_c, 0, 70, 52
2, 29069, Note_off_c, 0, 65, 50
2, 29071, Note_off_c, 0, 70, 53
2, 29071, Note_on_c, 0, 69, 52
2, 29090, Control_c, 0, 64, 0
2, 29124, Note_on_c, 0, 70, 53
2, 29126, Note_on_c, 0, 58, 43
2, 29160, Note_off_c, 0, 69, 53
2, 29270, Control_c, 0, 64, 120
2, 29293, Note_off_c, 0, 70, 53
2, 29314, Note_on_c, 0, 74, 49
2, 29314, Note_on_c, 0, 65, 44
2, 29350, Note_off_c, 0, 58, 50
2, 29430, Note_off_c, 0, 65, 51
2, 29501, Note_on_c, 0, 77, 48
2, 29503, Note_on_c, 0, 62, 45
2, 29547, Note_off_c, 0, 74, 52
2, 29638, Note_off_c, 0, 62, 51
2, 29707, Note_on_c, 0, 65, 46
2, 29791, Note_off_c, 0, 77, 52
2, 29840, Note_off_c, 0, 65, 51
2, 29894, Note_on_c, 0, 77, 52
2, 29897, Note_on_c, 0, 58, 47
2, 29900, Control_c, 0, 64, 0
2, 30080, Control_c, 0, 64, 120
2, 30084, Note_on_c, 0, 65, 48
2, 30144, Note_off_c, 0, 58, 51
2, 30211, Note_off_c, 0, 65, 52
2, 30271, Note_off_c, 0, 77, 53
2, 30274, Note_on_c, 0, 87, 84
2, 30274, Note_on_c, 0, 57, 48
2, 30378, Note_off_c, 0, 57, 52
2, 30461, Note_on_c, 0, 65, 48
2, 30577, Note_off_c, 0, 65, 52
2, 30620, Control_c, 0, 64, 0
2, 30650, Note_on_c, 0, 81, 48
2, 30650, Note_on_c, 0, 60, 47
2, 30733, Note_off_c, 0, 87, 61
2, 30800, Control_c, 0, 64, 120
2, 30838, Note_on_c, 0, 65, 46
2, 30912, Note_off_c, 0, 60, 51
2, 30922, Note_off_c, 0, 81, 52
2, 30950, Note_off_c, 0, 65, 51
2, 31025, Note_on_c, 0, 81, 48
2, 31027, Note_on_c, 0, 63, 45
2, 31140, Note_off_c, 0, 63, 51
2, 31169, Note_off_c, 0, 81, 52
2, 31214, Note_on_c, 0, 65, 44
2, 31335, Note_off_c, 0, 65, 51
2, 31390, Control_c, 0, 64, 0
2, 31404, Note_on_c, 0, 81, 42
2, 31404, Note_on_c, 0, 60, 43
2, 31508, Note_off_c, 0, 81, 50
2, 31570, Control_c, 0, 64, 120
2, 31591, Note_on_c, 0, 65, 42
2, 31682, Note_off_c, 0, 60, 50
2, 31690, Note_off_c, 0, 65, 50
2, 31781, Note_on_c, 0, 62, 42
2, 31781, Note_on_c, 0, 82, 36
2, 31898, Note_off_c, 0, 62, 50
2, 31920, Note_off_c, 0, 82, 49
2, 31970, Note_on_c, 0, 65, 41
2, 31970, Note_on_c, 0, 84, 36
2, 32035, Note_off_c, 0, 84, 49
2, 32038, Note_on_c, 0, 82, 42
2, 32089, Note_off_c, 0, 65, 50
2, 32105, Note_off_c, 0, 82, 50
2, 32105, Note_on_c, 0, 81, 48
2, 32158, Note_on_c, 0, 82, 54
2, 32160, Control_c, 0, 64, 0
2, 32160, Note_on_c, 0, 58, 40
2, 32213, Note_off_c, 0, 81, 52
2, 32340, Control_c, 0, 64, 120
2, 32347, Note_on_c, 0, 86, 72
2, 32347, Note_on_c, 0, 65, 39
2, 32373, Note_off_c, 0, 82, 53
2, 32430, Note_off_c, 0, 58, 50
2, 32447, Note_off_c, 0, 65, 49
2, 32534, Note_on_c, 0, 89, 72
2, 32537, Note_on_c, 0, 62, 38
2, 32587, Note_off_c, 0, 86, 58
2, 32664, Note_off_c, 0, 62, 49
2, 32722, Note_on_c, 0, 65, 37
2, 32825, Note_off_c, 0, 89, 58
2, 32851, Note_off_c, 0, 65, 49
2, 32916, Note_on_c, 0, 65, 72
2, 32926, Note_on_c, 0, 58, 36
2, 33054, Note_off_c, 0, 65, 58
2, 33062, Note_off_c, 0, 58, 49
2, 33130, Control_c, 0, 64, 0
2, 33141, Note_on_c, 0, 65, 36
2, 33260, Note_off_c, 0, 65, 49
2, 33318, Note_on_c, 0, 75, 66
2, 33320, Note_on_c, 0, 57, 36
2, 33323, Control_c, 0, 64, 98
2, 33524, Note_on_c, 0, 65, 36
2, 33616, Note_off_c, 0, 57, 49
2, 33642, Note_off_c, 0, 65, 49
2, 33714, Note_on_c, 0, 69, 59
2, 33714, Note_on_c, 0, 60, 37
2, 33760, Note_off_c, 0, 75, 56
2, 33826, Note_off_c, 0, 60, 49
2, 33901, Note_on_c, 0, 65, 37
2, 33985, Note_off_c, 0, 69, 54
2, 34013, Note_off_c, 0, 65, 49
2, 34088, Note_on_c, 0, 69, 52
2, 34091, Note_on_c, 0, 63, 38
2, 34093, Control_c, 0, 64, 0
2, 34211, Note_off_c, 0, 69, 53
2, 34273, Control_c, 0, 64, 120
2, 34278, Note_on_c, 0, 65, 39
2, 34337, Note_off_c, 0, 63, 49
2, 34414, Note_off_c, 0, 65, 49
2, 34468, Note_on_c, 0, 69, 48
2, 34468, Note_on_c, 0, 60, 39
2, 34570, Note_off_c, 0, 69, 52
2, 34602, Note_off_c, 0, 60, 49
2, 34655, Note_on_c, 0, 65, 40
2, 34762, Note_off_c, 0, 65, 50
2, 34844, Note_on_c, 0, 70, 48
2, 34844, Note_on_c, 0, 62, 40
2, 34853, Control_c, 0, 64, 0
2, 35032, Note_off_c, 0, 70, 52
2, 35033, Control_c, 0, 64, 120
2, 35034, Note_on_c, 0, 72, 52
2, 35034, Note_on_c, 0, 65, 41
2, 35069, Note_off_c, 0, 62, 50
2, 35099, Note_off_c, 0, 72, 53
2, 35101, Note_on_c, 0, 70, 53
2, 35151, Note_off_c, 0, 65, 50
2, 35152, Note_off_c, 0, 70, 53
2, 35152, Note_on_c, 0, 69, 54
2, 35221, Note_on_c, 0, 70, 56
2, 35224, Note_on_c, 0, 58, 42
2, 35267, Note_off_c, 0, 69, 53
2, 35344, Note_off_c, 0, 58, 50
2, 35411, Note_on_c, 0, 72, 60
2, 35411, Note_on_c, 0, 65, 42
2, 35439, Note_off_c, 0, 70, 54
2, 35549, Note_off_c, 0, 65, 50
2, 35598, Note_on_c, 0, 74, 60
2, 35600, Note_on_c, 0, 56, 43
2, 35603, Control_c, 0, 64, 0
2, 35623, Note_off_c, 0, 72, 55
2, 35783, Control_c, 0, 64, 120
2, 35788, Note_on_c, 0, 70, 60
2, 35788, Note_on_c, 0, 65, 43
2, 35810, Note_off_c, 0, 74, 55
2, 35840, Note_off_c, 0, 56, 50
2, 35896, Note_off_c, 0, 65, 50
2, 35975, Note_on_c, 0, 72, 61
2, 35977, Note_on_c, 0, 58, 44
2, 35999, Note_off_c, 0, 70, 55
2, 36085, Note_off_c, 0, 58, 51
2, 36164, Note_on_c, 0, 74, 62
2, 36164, Note_on_c, 0, 65, 45
2, 36197, Note_off_c, 0, 72, 55
2, 36285, Note_off_c, 0, 65, 51
2, 36316, Note_off_c, 0, 74, 55
2, 36352, Note_on_c, 0, 75, 64
2, 36354, Note_on_c, 0, 55, 45
2, 36357, Control_c, 0, 64, 0
2, 36520, Note_off_c, 0, 75, 56
2, 36537, Control_c, 0, 64, 120
2, 36541, Note_on_c, 0, 77, 65
2, 36541, Note_on_c, 0, 63, 46
2, 36543, Note_off_c, 0, 55, 51
2, 36608, Note_off_c, 0, 77, 56
2, 36611, Note_on_c, 0, 75, 65
2, 36656, Note_off_c, 0, 63, 51
2, 36676, Note_off_c, 0, 75, 56
2, 36678, Note_on_c, 0, 74, 66
2, 36731, Note_on_c, 0, 75, 66
2, 36731, Note_on_c, 0, 58, 46
2, 36773, Note_off_c, 0, 74, 56
2, 36868, Note_off_c, 0, 58, 51
2, 36935, Note_on_c, 0, 77, 68
2, 36937, Note_on_c, 0, 63, 47
2, 36969, Note_off_c, 0, 75, 56
2, 37068, Note_off_c, 0, 63, 51
2, 37124, Note_on_c, 0, 79, 69
2, 37124, Note_on_c, 0, 51, 48
2, 37127, Control_c, 0, 64, 0
2, 37148, Note_off_c, 0, 77, 57
2, 37307, Control_c, 0, 64, 120
2, 37312, Note_on_c, 0, 81, 70
2, 37314, Note_on_c, 0, 63, 48
2, 37343, Note_off_c, 0, 79, 57
2, 37348, Note_off_c, 0, 51, 52
2, 37439, Note_off_c, 0, 63, 52
2, 37518, Note_on_c, 0, 82, 72
2, 37520, Note_on_c, 0, 58, 47
2, 37557, Note_off_c, 0, 81, 57
2, 37627, Note_off_c, 0, 58, 51
2, 37708, Note_on_c, 0, 79, 72
2, 37708, Note_on_c, 0, 63, 46
2, 37731, Note_off_c, 0, 82, 58
2, 37823, Note_off_c, 0, 63, 51
2, 37842, Note_off_c, 0, 79, 58
2, 37895, Note_on_c, 0, 76, 70
2, 37895, Note_on_c, 0, 53, 45
2, 37903, Control_c, 0, 64, 0
2, 38083, Control_c, 0, 64, 120
2, 38101, Note_on_c, 0, 77, 67
2, 38101, Note_on_c, 0, 62, 44
2, 38171, Note_off_c, 0, 76, 57
2, 38171, Note_off_c, 0, 53, 51
2, 38215, Note_off_c, 0, 62, 51
2, 38291, Note_on_c, 0, 79, 64
2, 38291, Note_on_c, 0, 58, 43
2, 38333, Note_off_c, 0, 77, 57
2, 38407, Note_off_c, 0, 58, 50
2, 38478, Note_on_c, 0, 77, 62
2, 38478, Note_on_c, 0, 62, 42
2, 38530, Note_off_c, 0, 79, 56
2, 38575, Note_off_c, 0, 62, 50
2, 38638, Note_off_c, 0, 77, 55
2, 38665, Note_on_c, 0, 77, 59
2, 38665, Note_on_c, 0, 53, 41
2, 38667, Control_c, 0, 64, 0
2, 38847, Control_c, 0, 64, 120
2, 38855, Note_on_c, 0, 75, 56
2, 38857, Note_on_c, 0, 63, 40
2, 38891, Note_off_c, 0, 53, 50
2, 38907, Note_off_c, 0, 77, 54
2, 38978, Note_off_c, 0, 63, 50
2, 39044, Note_on_c, 0, 74, 54
2, 39044, Note_on_c, 0, 57, 39
2, 39082, Note_off_c, 0, 75, 54
2, 39165, Note_off_c, 0, 57, 49
2, 39232, Note_on_c, 0, 72, 51
2, 39234, Note_on_c, 0, 63, 38
2, 39250, Note_off_c, 0, 74, 53
2, 39360, Note_off_c, 0, 63, 49
2, 39368, Note_off_c, 0, 72, 52
2, 39419, Note_on_c, 0, 73, 48
2, 39421, Note_on_c, 0, 62, 36
2, 39421, Note_on_c, 0, 58, 36
2, 39423, Control_c, 0, 64, 0
2, 39603, Control_c, 0, 64, 120
2, 39608, Note_on_c, 0, 74, 48
2, 39627, Note_off_c, 0, 73, 52
2, 39815, Note_on_c, 0, 75, 60
2, 39831, Note_off_c, 0, 74, 52
2, 40002, Note_on_c, 0, 74, 72
2, 40027, Note_off_c, 0, 75, 55
2, 40208, Note_off_c, 0, 62, 49
2, 40208, Note_off_c, 0, 58, 49
2, 40211, Note_on_c, 0, 77, 72
2, 40213, Control_c, 0, 64, 0
2, 40254, Note_off_c, 0, 74, 58
2, 40393, Control_c, 0, 64, 120
2, 40396, Note_on_c, 0, 75, 72
2, 40437, Note_off_c, 0, 77, 58
2, 40602, Note_on_c, 0, 74, 36
2, 40629, Note_off_c, 0, 75, 58
2, 40808, Note_on_c, 0, 72, 36
2, 40841, Note_off_c, 0, 74, 49
2, 40962, Note_off_c, 0, 72, 49
2, 41012, Note_on_c, 0, 70, 36
2, 41015, Note_on_c, 0, 62, 36
2, 41017, Control_c, 0, 64, 0
2, 41147, Note_off_c, 0, 70, 49
2, 41197, Control_c, 0, 64, 120
2, 41202, Note_on_c, 0, 72, 39
2, 41204, Note_on_c, 0, 65, 37
2, 41269, Note_off_c, 0, 72, 49
2, 41272, Note_on_c, 0, 70, 40
2, 41322, Note_off_c, 0, 70, 50
2, 41322, Note_on_c, 0, 69, 41
2, 41328, Note_off_c, 0, 65, 49
2, 41335, Note_off_c, 0, 62, 49
2, 41392, Note_on_c, 0, 70, 42
2, 41392, Note_on_c, 0, 58, 38
2, 41440, Note_off_c, 0, 69, 50
2, 41521, Note_off_c, 0, 58, 49
2, 41581, Note_on_c, 0, 72, 45
2, 41581, Note_on_c, 0, 65, 39
2, 41609, Note_off_c, 0, 70, 50
2, 41697, Control_c, 0, 64, 0
2, 41702, Note_off_c, 0, 65, 49
2, 41768, Note_on_c, 0, 74, 48
2, 41771, Note_on_c, 0, 56, 40
2, 41783, Note_off_c, 0, 72, 51
2, 41877, Control_c, 0, 64, 120
2, 41975, Note_on_c, 0, 70, 48
2, 41975, Note_on_c, 0, 65, 41
2, 42026, Note_off_c, 0, 74, 52
2, 42073, Note_off_c, 0, 56, 50
2, 42102, Note_off_c, 0, 65, 50
2, 42162, Note_on_c, 0, 72, 52
2, 42164, Note_on_c, 0, 58, 42
2, 42184, Note_off_c, 0, 70, 52
2, 42272, Note_off_c, 0, 58, 50
2, 42352, Note_on_c, 0, 74, 56
2, 42352, Note_on_c, 0, 65, 43
2, 42392, Note_off_c, 0, 72, 53
2, 42494, Note_off_c, 0, 65, 50
2, 42503, Note_off_c, 0, 74, 54
2, 42556, Note_on_c, 0, 75, 60
2, 42558, Note_on_c, 0, 55, 44
2, 42567, Control_c, 0, 64, 0
2, 42745, Note_on_c, 0, 77, 64
2, 42747, Control_c, 0, 64, 120
2, 42748, Note_on_c, 0, 63, 45
2, 42775, Note_off_c, 0, 75, 55
2, 42842, Note_off_c, 0, 55, 51
2, 42878, Note_off_c, 0, 63, 51
2, 42952, Note_on_c, 0, 79, 68
2, 42952, Note_on_c, 0, 58, 46
2, 43005, Note_off_c, 0, 77, 56
2, 43081, Note_off_c, 0, 58, 51
2, 43139, Note_on_c, 0, 81, 72
2, 43141, Note_on_c, 0, 63, 48
2, 43197, Note_off_c, 0, 79, 57
2, 43277, Note_off_c, 0, 63, 52
2, 43292, Note_off_c, 0, 81, 58
2, 43345, Note_on_c, 0, 84, 72
2, 43345, Note_on_c, 0, 51, 48
2, 43347, Control_c, 0, 64, 0
2, 43527, Control_c, 0, 64, 120
2, 43552, Note_on_c, 0, 82, 72
2, 43552, Note_on_c, 0, 63, 47
2, 43568, Note_off_c, 0, 84, 58
2, 43631, Note_off_c, 0, 51, 52
2, 43675, Note_off_c, 0, 63, 51
2, 43739, Note_on_c, 0, 81, 68
2, 43741, Note_on_c, 0, 58, 46
2, 43762, Note_off_c, 0, 82, 58
2, 43888, Note_off_c, 0, 58, 51
2, 43945, Note_on_c, 0, 79, 64
2, 43948, Note_on_c, 0, 63, 45
2, 43978, Note_off_c, 0, 81, 57
2, 44063, Note_off_c, 0, 63, 51
2, 44080, Note_off_c, 0, 79, 56
2, 44132, Note_on_c, 0, 79, 60
2, 44135, Note_on_c, 0, 50, 44
2, 44140, Control_c, 0, 64, 0
2, 44320, Control_c, 0, 64, 120
2, 44322, Note_on_c, 0, 77, 56
2, 44324, Note_on_c, 0, 62, 42
2, 44345, Note_off_c, 0, 79, 55
2, 44434, Note_off_c, 0, 50, 51
2, 44447, Note_off_c, 0, 62, 50
2, 44512, Note_on_c, 0, 76, 52
2, 44512, Note_on_c, 0, 58, 41
2, 44558, Note_off_c, 0, 77, 54
2, 44637, Note_off_c, 0, 58, 50
2, 44718, Note_on_c, 0, 77, 48
2, 44718, Note_on_c, 0, 62, 40
2, 44750, Note_off_c, 0, 76, 53
2, 44840, Note_off_c, 0, 62, 50
2, 44922, Note_on_c, 0, 81, 60
2, 44924, Note_on_c, 0, 51, 39
2, 44933, Control_c, 0, 64, 0
2, 44954, Note_off_c, 0, 77, 52
2, 45112, Note_on_c, 0, 79, 60
2, 45112, Note_on_c, 0, 60, 38
2, 45113, Control_c, 0, 64, 120
2, 45164, Note_off_c, 0, 81, 55
2, 45214, Note_off_c, 0, 51, 49
2, 45232, Note_off_c, 0, 60, 49
2, 45316, Note_on_c, 0, 77, 54
2, 45318, Note_on_c, 0, 55, 36
2, 45362, Note_off_c, 0, 79, 55
2, 45425, Note_off_c, 0, 55, 49
2, 45505, Note_on_c, 0, 75, 48
2, 45505, Note_on_c, 0, 60, 36
2, 45541, Note_off_c, 0, 77, 53
2, 45631, Note_off_c, 0, 60, 49
2, 45656, Note_off_c, 0, 75, 52
2, 45692, Note_on_c, 0, 75, 48
2, 45692, Note_on_c, 0, 53, 36
2, 45700, Control_c, 0, 64, 0
2, 45880, Control_c, 0, 64, 120
2, 45882, Note_on_c, 0, 74, 56
2, 45882, Note_on_c, 0, 62, 37
2, 45902, Note_off_c, 0, 75, 52
2, 45975, Note_off_c, 0, 53, 49
2, 45987, Note_off_c, 0, 62, 49
2, 46069, Note_on_c, 0, 73, 64
2, 46072, Note_on_c, 0, 58, 38
2, 46091, Note_off_c, 0, 74, 54
2, 46190, Note_off_c, 0, 58, 49
2, 46276, Note_on_c, 0, 74, 72
2, 46278, Note_on_c, 0, 62, 39
2, 46326, Note_off_c, 0, 73, 56
2, 46382, Note_off_c, 0, 62, 49
2, 46465, Note_on_c, 0, 77, 72
2, 46465, Note_on_c, 0, 53, 40
2, 46467, Control_c, 0, 64, 0
2, 46500, Note_off_c, 0, 74, 58
2, 46647, Control_c, 0, 64, 120
2, 46655, Note_on_c, 0, 75, 72
2, 46655, Note_on_c, 0, 63, 41
2, 46692, Note_off_c, 0, 77, 58
2, 46724, Note_off_c, 0, 53, 50
2, 46784, Note_off_c, 0, 63, 50
2, 46859, Note_on_c, 0, 74, 64
2, 46859, Note_on_c, 0, 57, 42
2, 46888, Note_off_c, 0, 75, 58
2, 46986, Note_off_c, 0, 57, 50
2, 47065, Note_on_c, 0, 72, 56
2, 47065, Note_on_c, 0, 63, 43
2, 47094, Note_off_c, 0, 74, 56
2, 47172, Note_off_c, 0, 63, 50
2, 47200, Note_off_c, 0, 72, 54
2, 47252, Note_on_c, 0, 70, 48
2, 47252, Note_on_c, 0, 62, 44
2, 47255, Note_on_c, 0, 58, 44
2, 47260, Control_c, 0, 64, 0
2, 47440, Control_c, 0, 64, 120
2, 47456, Note_off_c, 0, 62, 51
2, 47459, Note_off_c, 0, 58, 51
2, 47459, Note_on_c, 0, 65, 45
2, 47663, Note_on_c, 0, 64, 46
2, 47680, Note_off_c, 0, 65, 51
2, 47869, Note_on_c, 0, 65, 47
2, 47909, Note_off_c, 0, 64, 51
2, 48056, Note_off_c, 0, 70, 52
2, 48059, Note_on_c, 0, 67, 48
2, 48070, Control_c, 0, 64, 0
2, 48110, Note_off_c, 0, 65, 51
2, 48246, Note_on_c, 0, 65, 48
2, 48250, Control_c, 0, 64, 120
2, 48267, Note_off_c, 0, 67, 52
2, 48452, Note_on_c, 0, 72, 60
2, 48452, Note_on_c, 0, 63, 42
2, 48484, Note_off_c, 0, 65, 52
2, 48642, Note_on_c, 0, 74, 66
2, 48642, Note_on_c, 0, 62, 36
2, 48680, Note_off_c, 0, 72, 55
2, 48694, Note_off_c, 0, 63, 50
2, 48776, Note_off_c, 0, 74, 56
2, 48787, Note_off_c, 0, 62, 49
2, 48829, Note_on_c, 0, 75, 72
2, 48829, Note_on_c, 0, 60, 36
2, 48831, Control_c, 0, 64, 0
2, 49010, Control_c, 0, 64, 120
2, 49016, Note_off_c, 0, 60, 49
2, 49016, Note_on_c, 0, 65, 40
2, 49206, Note_off_c, 0, 65, 50
2, 49206, Note_on_c, 0, 69, 48
2, 49208, Note_on_c, 0, 63, 44
2, 49253, Note_off_c, 0, 75, 58
2, 49393, Note_off_c, 0, 63, 51
2, 49396, Note_on_c, 0, 65, 48
2, 49496, Note_off_c, 0, 69, 52
2, 49583, Note_off_c, 0, 65, 52
2, 49583, Note_on_c, 0, 69, 45
2, 49585, Note_on_c, 0, 60, 48
2, 49585, Note_on_c, 0, 53, 40
2, 49590, Control_c, 0, 64, 0
2, 49729, Note_off_c, 0, 69, 51
2, 49770, Control_c, 0, 64, 120
2, 49787, Note_off_c, 0, 60, 52
2, 49789, Note_off_c, 0, 53, 50
2, 49789, Note_on_c, 0, 65, 47
2, 49976, Note_off_c, 0, 65, 51
2, 49976, Note_on_c, 0, 69, 39
2, 49979, Note_on_c, 0, 63, 46
2, 50106, Note_off_c, 0, 69, 49
2, 50183, Note_off_c, 0, 63, 51
2, 50183, Note_on_c, 0, 65, 45
2, 50370, Note_off_c, 0, 65, 51
2, 50372, Note_on_c, 0, 62, 44
2, 50372, Note_on_c, 0, 70, 36
2, 50375, Note_on_c, 0, 58, 36
2, 50380, Control_c, 0, 64, 0
2, 50560, Control_c, 0, 64, 120
2, 50576, Note_off_c, 0, 62, 51
2, 50576, Note_off_c, 0, 58, 49
2, 50579, Note_on_c, 0, 65, 43
2, 50783, Note_on_c, 0, 64, 42
2, 50809, Note_off_c, 0, 65, 50
2, 50972, Note_on_c, 0, 65, 41
2, 51011, Note_off_c, 0, 64, 50
2, 51176, Note_off_c, 0, 70, 49
2, 51179, Note_on_c, 0, 67, 40
2, 51190, Control_c, 0, 64, 0
2, 51194, Note_off_c, 0, 65, 50
2, 51370, Control_c, 0, 64, 120
2, 51383, Note_on_c, 0, 65, 39
2, 51448, Note_off_c, 0, 67, 50
2, 51572, Note_on_c, 0, 72, 48
2, 51572, Note_on_c, 0, 63, 38
2, 51589, Note_off_c, 0, 65, 49
2, 51779, Note_on_c, 0, 74, 48
2, 51779, Note_on_c, 0, 62, 36
2, 51802, Note_off_c, 0, 63, 49
2, 51853, Note_off_c, 0, 72, 52
2, 51930, Note_off_c, 0, 74, 52
2, 51930, Note_off_c, 0, 62, 49
2, 51980, Note_on_c, 0, 75, 60
2, 51983, Note_on_c, 0, 60, 36
2, 51990, Control_c, 0, 64, 0
2, 52170, Control_c, 0, 64, 120
2, 52187, Note_off_c, 0, 60, 49
2, 52189, Note_on_c, 0, 65, 35
2, 52393, Note_off_c, 0, 65, 48
2, 52396, Note_on_c, 0, 69, 58
2, 52396, Note_on_c, 0, 63, 34
2, 52453, Note_off_c, 0, 75, 55
2, 52600, Note_off_c, 0, 63, 48
2, 52600, Note_on_c, 0, 65, 33
2, 52700, Note_off_c, 0, 69, 54
2, 52804, Note_off_c, 0, 65, 48
2, 52806, Note_on_c, 0, 69, 54
2, 52806, Note_on_c, 0, 60, 32
2, 52808, Note_on_c, 0, 53, 24
2, 52810, Control_c, 0, 64, 0
2, 52972, Note_off_c, 0, 69, 53
2, 52990, Control_c, 0, 64, 120
2, 53027, Note_off_c, 0, 53, 46
2, 53027, Note_off_c, 0, 60, 48
2, 53029, Note_on_c, 0, 65, 31
2, 53250, Note_off_c, 0, 65, 47
2, 53250, Note_on_c, 0, 69, 50
2, 53252, Note_on_c, 0, 63, 30
2, 53392, Note_off_c, 0, 69, 52
2, 53473, Note_off_c, 0, 63, 47
2, 53473, Note_on_c, 0, 65, 29
2, 53696, Note_off_c, 0, 65, 47
2, 53776, Note_on_c, 0, 72, 50
2, 53787, Control_c, 0, 64, 0
2, 53789, Note_on_c, 0, 69, 30
2, 53792, Note_on_c, 0, 63, 38
2, 53792, Note_on_c, 0, 58, 28
2, 53967, Control_c, 0, 64, 120
2, 54733, Note_off_c, 0, 69, 47
2, 54753, Note_on_c, 0, 70, 36
2, 54753, Note_on_c, 0, 62, 24
2, 54773, Note_off_c, 0, 72, 52
2, 54773, Control_c, 0, 64, 0
2, 54786, Note_off_c, 0, 63, 49
2, 54953, Control_c, 0, 64, 120
2, 55013, Note_off_c, 0, 58, 47
2, 55063, Note_off_c, 0, 70, 49
2, 55075, Note_off_c, 0, 62, 46
2, 55080, Control_c, 0, 11, 86
2, 55438, Note_on_c, 0, 62, 36
2, 55517, Control_c, 0, 64, 0
2, 55560, Control_c, 0, 7, 127
2, 55683, Control_c, 0, 64, 118
2, 55733, Note_off_c, 0, 62, 49
2, 55855, Note_on_c, 0, 70, 64
2, 56233, Note_on_c, 0, 67, 58
2, 56233, Note_on_c, 0, 58, 45
2, 56243, Note_on_c, 0, 62, 38
2, 56285, Note_off_c, 0, 70, 56
2, 56629, Note_on_c, 0, 66, 48
2, 56629, Note_on_c, 0, 57, 34
2, 56639, Note_on_c, 0, 60, 40
2, 56643, Control_c, 0, 64, 0
2, 56654, Note_off_c, 0, 58, 51
2, 56666, Note_off_c, 0, 62, 49
2, 56680, Note_off_c, 0, 67, 54
2, 56823, Control_c, 0, 64, 120
2, 57041, Note_on_c, 0, 67, 42
2, 57041, Note_on_c, 0, 58, 30
2, 57041, Note_on_c, 0, 55, 25
2, 57064, Note_off_c, 0, 57, 48
2, 57080, Note_off_c, 0, 60, 50
2, 57090, Note_off_c, 0, 66, 52
2, 57346, Note_off_c, 0, 67, 50
2, 57346, Note_off_c, 0, 58, 47
2, 57348, Note_off_c, 0, 55, 46
2, 57480, Note_on_c, 0, 72, 60
2, 57480, Note_on_c, 0, 57, 45
2, 57480, Note_on_c, 0, 54, 36
2, 57490, Note_on_c, 0, 62, 40
2, 57500, Control_c, 0, 64, 0
2, 57680, Control_c, 0, 64, 120
2, 57777, Note_off_c, 0, 54, 49
2, 57907, Note_on_c, 0, 54, 36
2, 57907, Note_on_c, 0, 50, 30
2, 57937, Note_off_c, 0, 57, 51
2, 58286, Note_on_c, 0, 55, 39
2, 58286, Note_on_c, 0, 52, 31
2, 58290, Control_c, 0, 64, 0
2, 58323, Note_off_c, 0, 50, 47
2, 58323, Note_off_c, 0, 54, 49
2, 58470, Control_c, 0, 64, 120
2, 58663, Note_on_c, 0, 57, 42
2, 58663, Note_on_c, 0, 54, 36
2, 58699, Note_off_c, 0, 52, 47
2, 58702, Note_off_c, 0, 55, 49
2, 58817, Note_off_c, 0, 62, 50
2, 58951, Note_off_c, 0, 54, 49
2, 58953, Note_off_c, 0, 57, 50
2, 58963, Note_off_c, 0, 72, 55
2, 59030, Note_on_c, 0, 70, 60
2, 59040, Note_on_c, 0, 55, 50
2, 59040, Note_on_c, 0, 58, 45
2, 59043, Control_c, 0, 64, 0
2, 59223, Control_c, 0, 64, 120
2, 59310, Note_off_c, 0, 58, 51
2, 59417, Note_off_c, 0, 55, 52
2, 59423, Note_on_c, 0, 67, 54
2, 59443, Note_on_c, 0, 62, 42
2, 59446, Note_on_c, 0, 58, 48
2, 59451, Note_off_c, 0, 70, 55
2, 59838, Note_on_c, 0, 66, 50
2, 59848, Note_on_c, 0, 57, 36
2, 59856, Note_off_c, 0, 58, 52
2, 59858, Note_on_c, 0, 60, 40
2, 59860, Control_c, 0, 64, 0
2, 59864, Note_off_c, 0, 62, 50
2, 59878, Note_off_c, 0, 67, 53
2, 60040, Control_c, 0, 64, 120
2, 60239, Note_off_c, 0, 57, 49
2, 60242, Note_on_c, 0, 67, 56
2, 60242, Note_on_c, 0, 58, 42
2, 60242, Note_on_c, 0, 55, 36
2, 60273, Note_off_c, 0, 66, 52
2, 60310, Note_off_c, 0, 60, 50
2, 60563, Note_off_c, 0, 55, 49
2, 60564, Note_off_c, 0, 67, 54
2, 60566, Note_off_c, 0, 58, 50
2, 60697, Note_on_c, 0, 75, 78
2, 60697, Note_on_c, 0, 48, 48
2, 60707, Note_on_c, 0, 67, 63
2, 60710, Control_c, 0, 64, 0
2, 60890, Control_c, 0, 64, 120
2, 61105, Note_off_c, 0, 48, 52
2, 61109, Note_on_c, 0, 51, 36
2, 61486, Note_off_c, 0, 51, 49
2, 61486, Note_on_c, 0, 55, 40
2, 61862, Note_off_c, 0, 55, 50
2, 61862, Note_on_c, 0, 60, 44
2, 61997, Note_off_c, 0, 67, 55
2, 62200, Note_off_c, 0, 60, 51
2, 62200, Note_off_c, 0, 75, 59
2, 62242, Note_on_c, 0, 58, 60
2, 62242, Note_on_c, 0, 74, 48
2, 62243, Control_c, 0, 64, 0
2, 62423, Control_c, 0, 64, 120
2, 62573, Note_off_c, 0, 74, 52
2, 62633, Note_on_c, 0, 78, 48
2, 63046, Note_off_c, 0, 58, 55
2, 63046, Note_on_c, 0, 79, 60
2, 63107, Note_off_c, 0, 78, 52
2, 63353, Note_off_c, 0, 79, 55
2, 63457, Note_on_c, 0, 74, 48
2, 63467, Note_on_c, 0, 62, 36
2, 63467, Note_on_c, 0, 58, 32
2, 63470, Control_c, 0, 64, 0
2, 63640, Note_off_c, 0, 62, 49
2, 63650, Control_c, 0, 64, 120
2, 63782, Note_off_c, 0, 58, 48
2, 63868, Note_on_c, 0, 72, 48
2, 63868, Note_on_c, 0, 62, 42
2, 63868, Note_on_c, 0, 54, 36
2, 63870, Control_c, 0, 64, 0
2, 63934, Note_off_c, 0, 74, 52
2, 64050, Control_c, 0, 64, 120
2, 64161, Note_off_c, 0, 72, 52
2, 64243, Note_on_c, 0, 80, 54
2, 64655, Note_off_c, 0, 62, 50
2, 64655, Note_off_c, 0, 54, 49
2, 64658, Note_on_c, 0, 81, 60
2, 64733, Note_off_c, 0, 80, 53
2, 65005, Note_off_c, 0, 81, 55
2, 65103, Note_on_c, 0, 72, 52
2, 65103, Note_on_c, 0, 54, 42
2, 65113, Control_c, 0, 64, 0
2, 65116, Note_on_c, 0, 62, 47
2, 65293, Control_c, 0, 64, 120
2, 65333, Note_off_c, 0, 62, 51
2, 65468, Note_off_c, 0, 54, 50
2, 65547, Note_on_c, 0, 70, 48
2, 65547, Note_on_c, 0, 62, 42
2, 65547, Note_on_c, 0, 55, 38
2, 65553, Control_c, 0, 64, 0
2, 65584, Note_off_c, 0, 72, 53
2, 65733, Control_c, 0, 64, 120
2, 65923, Note_on_c, 0, 79, 54
2, 65994, Note_off_c, 0, 70, 52
2, 66186, Note_off_c, 0, 55, 49
2, 66189, Note_off_c, 0, 62, 50
2, 66322, Note_on_c, 0, 69, 60
2, 66322, Note_on_c, 0, 60, 48
2, 66322, Note_on_c, 0, 48, 42
2, 66323, Control_c, 0, 64, 0
2, 66387, Note_off_c, 0, 79, 53
2, 66503, Control_c, 0, 64, 120
2, 66730, Note_on_c, 0, 75, 60
2, 66800, Note_off_c, 0, 69, 55
2, 67053, Note_off_c, 0, 48, 50
2, 67070, Note_off_c, 0, 60, 52
2, 67086, Note_off_c, 0, 75, 55
2, 67178, Note_on_c, 0, 67, 51
2, 67178, Note_on_c, 0, 58, 31
2, 67178, Note_on_c, 0, 50, 25
2, 67180, Control_c, 0, 64, 0
2, 67360, Control_c, 0, 64, 120
2, 67732, Note_off_c, 0, 50, 46
2, 67843, Note_off_c, 0, 67, 52
2, 67863, Note_on_c, 0, 69, 47
2, 67966, Note_off_c, 0, 69, 51
2, 67966, Note_on_c, 0, 67, 46
2, 68027, Note_off_c, 0, 58, 47
2, 68030, Note_on_c, 0, 66, 50
2, 68033, Note_on_c, 0, 57, 38
2, 68033, Note_on_c, 0, 50, 31
2, 68034, Note_off_c, 0, 67, 51
2, 68037, Control_c, 0, 64, 0
2, 68217, Control_c, 0, 64, 120
2, 68309, Note_off_c, 0, 57, 49
2, 68318, Note_off_c, 0, 50, 47
2, 68320, Note_off_c, 0, 66, 52
2, 68412, Note_on_c, 0, 62, 36
2, 68420, Control_c, 0, 64, 0
2, 68600, Control_c, 0, 64, 120
2, 68725, Note_off_c, 0, 62, 49
2, 68803, Note_on_c, 0, 70, 48
2, 69197, Note_on_c, 0, 67, 48
2, 69199, Note_on_c, 0, 58, 42
2, 69199, Note_on_c, 0, 62, 36
2, 69247, Note_off_c, 0, 70, 52
2, 69595, Note_on_c, 0, 66, 49
2, 69595, Note_on_c, 0, 57, 33
2, 69595, Note_on_c, 0, 60, 29
2, 69607, Control_c, 0, 64, 0
2, 69613, Note_off_c, 0, 62, 49
2, 69613, Note_off_c, 0, 58, 50
2, 69640, Note_off_c, 0, 67, 52
2, 69787, Control_c, 0, 64, 120
2, 70006, Note_on_c, 0, 67, 42
2, 70006, Note_on_c, 0, 58, 22
2, 70008, Note_on_c, 0, 55, 30
2, 70023, Note_off_c, 0, 57, 48
2, 70023, Note_off_c, 0, 60, 47
2, 70053, Note_off_c, 0, 66, 52
2, 70310, Note_off_c, 0, 67, 50
2, 70313, Note_off_c, 0, 55, 47
2, 70313, Note_off_c, 0, 58, 45
2, 70444, Note_on_c, 0, 72, 67
2, 70446, Note_on_c, 0, 57, 56
2, 70450, Control_c, 0, 64, 0
2, 70457, Note_on_c, 0, 62, 40
2, 70459, Note_on_c, 0, 54, 47
2, 70630, Control_c, 0, 64, 120
2, 70720, Note_off_c, 0, 54, 51
2, 70873, Note_on_c, 0, 54, 36
2, 70873, Note_on_c, 0, 50, 30
2, 70897, Note_off_c, 0, 57, 54
2, 71252, Note_on_c, 0, 55, 39
2, 71252, Note_on_c, 0, 52, 33
2, 71297, Note_off_c, 0, 50, 47
2, 71297, Note_off_c, 0, 54, 49
2, 71297, Control_c, 0, 64, 0
2, 71477, Control_c, 0, 64, 120
2, 71629, Note_on_c, 0, 57, 42
2, 71629, Note_on_c, 0, 54, 36
2, 71674, Note_off_c, 0, 55, 49
2, 71674, Note_off_c, 0, 52, 48
2, 71900, Note_off_c, 0, 57, 50
2, 71900, Note_off_c, 0, 54, 49
2, 72004, Note_off_c, 0, 72, 57
2, 72006, Note_on_c, 0, 70, 48
2, 72017, Note_off_c, 0, 62, 50
2, 72019, Note_on_c, 0, 58, 40
2, 72021, Note_on_c, 0, 55, 45
2, 72023, Control_c, 0, 64, 0
2, 72203, Control_c, 0, 64, 120
2, 72213, Note_off_c, 0, 58, 50
2, 72397, Note_on_c, 0, 67, 41
2, 72400, Note_on_c, 0, 62, 48
2, 72400, Note_on_c, 0, 58, 40
2, 72417, Note_off_c, 0, 70, 52
2, 72483, Note_off_c, 0, 55, 51
2, 72796, Note_on_c, 0, 66, 50
2, 72796, Note_on_c, 0, 57, 41
2, 72796, Note_on_c, 0, 60, 30
2, 72797, Control_c, 0, 64, 0
2, 72830, Note_off_c, 0, 62, 52
2, 72830, Note_off_c, 0, 58, 50
2, 72844, Note_off_c, 0, 67, 50
2, 72977, Control_c, 0, 64, 120
2, 73206, Note_on_c, 0, 67, 42
2, 73206, Note_on_c, 0, 58, 30
2, 73208, Note_on_c, 0, 55, 34
2, 73241, Note_off_c, 0, 60, 47
2, 73243, Note_off_c, 0, 57, 50
2, 73257, Note_off_c, 0, 66, 52
2, 73530, Note_off_c, 0, 67, 50
2, 73530, Note_off_c, 0, 55, 48
2, 73530, Note_off_c, 0, 58, 47
2, 73648, Note_on_c, 0, 75, 73
2, 73663, Note_on_c, 0, 48, 57
2, 73670, Control_c, 0, 64, 0
2, 73850, Control_c, 0, 64, 120
2, 74090, Note_on_c, 0, 51, 36
2, 74501, Note_off_c, 0, 51, 49
2, 74503, Note_on_c, 0, 55, 40
2, 74653, Note_off_c, 0, 48, 54
2, 74714, Note_off_c, 0, 75, 58
2, 74880, Note_off_c, 0, 55, 50
2, 74897, Note_on_c, 0, 75, 52
2, 74897, Note_on_c, 0, 57, 30
2, 74897, Note_on_c, 0, 48, 24
2, 74900, Control_c, 0, 64, 0
2, 75274, Note_off_c, 0, 57, 47
2, 75274, Note_off_c, 0, 48, 46
2, 75275, Note_on_c, 0, 58, 48
2, 75275, Note_on_c, 0, 50, 40
2, 75287, Control_c, 0, 64, 0
2, 75463, Note_on_c, 0, 74, 45
2, 75467, Control_c, 0, 64, 120
2, 75507, Note_off_c, 0, 75, 53
2, 75667, Note_on_c, 0, 77, 55
2, 75713, Note_off_c, 0, 74, 51
2, 75857, Note_on_c, 0, 76, 66
2, 75863, Control_c, 0, 64, 0
2, 75900, Note_off_c, 0, 77, 53
2, 76043, Control_c, 0, 64, 120
2, 76062, Note_off_c, 0, 50, 50
2, 76063, Note_on_c, 0, 79, 66
2, 76064, Note_off_c, 0, 58, 52
2, 76107, Note_off_c, 0, 76, 56
2, 76250, Note_on_c, 0, 77, 58
2, 76296, Note_off_c, 0, 79, 56
2, 76457, Note_on_c, 0, 75, 50
2, 76458, Note_on_c, 0, 53, 36
2, 76458, Note_on_c, 0, 50, 30
2, 76467, Control_c, 0, 64, 0
2, 76500, Note_off_c, 0, 77, 54
2, 76647, Control_c, 0, 64, 120
2, 76680, Note_on_c, 0, 74, 42
2, 76724, Note_off_c, 0, 75, 52
2, 76832, Note_off_c, 0, 53, 49
2, 76842, Note_off_c, 0, 74, 50
2, 76864, Note_off_c, 0, 50, 47
2, 76886, Note_on_c, 0, 72, 64
2, 76889, Note_on_c, 0, 51, 37
2, 76889, Note_on_c, 0, 55, 34
2, 76900, Control_c, 0, 64, 0
2, 76954, Note_on_c, 0, 74, 64
2, 76965, Note_off_c, 0, 72, 56
2, 77021, Note_on_c, 0, 75, 58
2, 77034, Note_off_c, 0, 74, 56
2, 77080, Control_c, 0, 64, 120
2, 77090, Note_on_c, 0, 74, 52
2, 77110, Note_off_c, 0, 75, 54
2, 77297, Note_off_c, 0, 55, 48
2, 77297, Note_on_c, 0, 72, 64
2, 77297, Note_on_c, 0, 60, 39
2, 77340, Note_off_c, 0, 74, 53
2, 77650, Note_off_c, 0, 72, 56
2, 77707, Note_off_c, 0, 60, 49
2, 77707, Note_off_c, 0, 51, 49
2, 77710, Note_on_c, 0, 71, 64
2, 77711, Note_on_c, 0, 55, 42
2, 77711, Note_on_c, 0, 52, 36
2, 77777, Note_on_c, 0, 72, 60
2, 77780, Control_c, 0, 64, 0
2, 77790, Note_off_c, 0, 71, 56
2, 77861, Note_on_c, 0, 74, 56
2, 77889, Note_off_c, 0, 72, 55
2, 77930, Note_on_c, 0, 72, 52
2, 77954, Note_off_c, 0, 74, 54
2, 77960, Control_c, 0, 64, 120
2, 78137, Note_on_c, 0, 70, 64
2, 78137, Note_on_c, 0, 60, 40
2, 78138, Note_off_c, 0, 55, 50
2, 78220, Note_off_c, 0, 72, 53
2, 78463, Note_off_c, 0, 70, 56
2, 78466, Note_off_c, 0, 60, 50
2, 78529, Note_off_c, 0, 52, 49
2, 78547, Note_on_c, 0, 69, 60
2, 78547, Note_on_c, 0, 53, 42
2, 78547, Note_on_c, 0, 60, 30
2, 78563, Control_c, 0, 64, 0
2, 78617, Note_on_c, 0, 70, 63
2, 78634, Note_off_c, 0, 69, 55
2, 78684, Note_on_c, 0, 72, 67
2, 78708, Note_off_c, 0, 70, 55
2, 78743, Control_c, 0, 64, 120
2, 78754, Note_on_c, 0, 70, 55
2, 78773, Note_off_c, 0, 72, 57
2, 78958, Note_on_c, 0, 69, 48
2, 79009, Note_off_c, 0, 70, 53
2, 79164, Note_on_c, 0, 67, 48
2, 79242, Note_off_c, 0, 69, 52
2, 79370, Note_off_c, 0, 53, 50
2, 79370, Note_off_c, 0, 60, 47
2, 79373, Note_on_c, 0, 65, 46
2, 79377, Control_c, 0, 64, 0
2, 79419, Note_off_c, 0, 67, 52
2, 79557, Control_c, 0, 64, 120
2, 79574, Note_on_c, 0, 64, 44
2, 79606, Note_off_c, 0, 65, 51
2, 79781, Note_on_c, 0, 65, 41
2, 79841, Note_off_c, 0, 64, 51
2, 79987, Note_on_c, 0, 67, 39
2, 80045, Note_off_c, 0, 65, 50
2, 80110, Control_c, 0, 64, 0
2, 80194, Note_on_c, 0, 65, 36
2, 80226, Note_off_c, 0, 67, 49
2, 80290, Control_c, 0, 64, 120
2, 80398, Note_off_c, 0, 65, 49
2, 80398, Note_on_c, 0, 75, 60
2, 80400, Note_on_c, 0, 57, 36
2, 80587, Note_on_c, 0, 65, 36
2, 80651, Note_off_c, 0, 57, 49
2, 80701, Note_off_c, 0, 65, 49
2, 80774, Note_off_c, 0, 75, 55
2, 80777, Note_on_c, 0, 69, 54
2, 80777, Note_on_c, 0, 60, 36
2, 80780, Control_c, 0, 64, 0
2, 80888, Note_off_c, 0, 60, 49
2, 80960, Control_c, 0, 64, 120
2, 80964, Note_on_c, 0, 65, 37
2, 81065, Note_off_c, 0, 69, 53
2, 81104, Note_off_c, 0, 65, 49
2, 81151, Note_on_c, 0, 69, 42
2, 81154, Note_on_c, 0, 63, 38
2, 81263, Note_off_c, 0, 69, 50
2, 81341, Note_on_c, 0, 65, 39
2, 81394, Note_off_c, 0, 63, 49
2, 81462, Note_off_c, 0, 65, 49
2, 81530, Note_on_c, 0, 60, 40
2, 81530, Note_on_c, 0, 69, 36
2, 81540, Control_c, 0, 64, 0
2, 81647, Note_off_c, 0, 60, 50
2, 81664, Note_off_c, 0, 69, 49
2, 81718, Note_on_c, 0, 65, 41
2, 81720, Control_c, 0, 64, 120
2, 81824, Note_off_c, 0, 65, 50
2, 81907, Note_on_c, 0, 62, 42
2, 81907, Note_on_c, 0, 70, 37
2, 82036, Note_off_c, 0, 62, 50
2, 82080, Note_off_c, 0, 70, 49
2, 82097, Note_on_c, 0, 72, 57
2, 82097, Note_on_c, 0, 65, 42
2, 82162, Note_off_c, 0, 72, 54
2, 82164, Note_on_c, 0, 70, 52
2, 82229, Note_off_c, 0, 65, 50
2, 82231, Note_off_c, 0, 70, 53
2, 82231, Note_on_c, 0, 69, 52
2, 82250, Control_c, 0, 64, 0
2, 82284, Note_on_c, 0, 70, 53
2, 82286, Note_on_c, 0, 58, 43
2, 82333, Note_off_c, 0, 69, 53
2, 82430, Control_c, 0, 64, 120
2, 82453, Note_off_c, 0, 70, 53
2, 82474, Note_on_c, 0, 74, 49
2, 82474, Note_on_c, 0, 65, 44
2, 82536, Note_off_c, 0, 58, 50
2, 82590, Note_off_c, 0, 65, 51
2, 82661, Note_on_c, 0, 77, 48
2, 82663, Note_on_c, 0, 62, 45
2, 82707, Note_off_c, 0, 74, 52
2, 82798, Note_off_c, 0, 62, 51
2, 82867, Note_on_c, 0, 65, 46
2, 82951, Note_off_c, 0, 77, 52
2, 83000, Note_off_c, 0, 65, 51
2, 83054, Note_on_c, 0, 77, 52
2, 83057, Note_on_c, 0, 58, 47
2, 83060, Control_c, 0, 64, 0
2, 83240, Control_c, 0, 64, 120
2, 83244, Note_on_c, 0, 65, 48
2, 83360, Note_off_c, 0, 58, 51
2, 83371, Note_off_c, 0, 65, 52
2, 83431, Note_off_c, 0, 77, 53
2, 83434, Note_on_c, 0, 87, 72
2, 83434, Note_on_c, 0, 57, 48
2, 83538, Note_off_c, 0, 57, 52
2, 83621, Note_on_c, 0, 65, 48
2, 83737, Note_off_c, 0, 65, 52
2, 83780, Control_c, 0, 64, 0
2, 83810, Note_on_c, 0, 81, 48
2, 83810, Note_on_c, 0, 60, 47
2, 83893, Note_off_c, 0, 87, 58
2, 83960, Control_c, 0, 64, 120
2, 83998, Note_on_c, 0, 65, 46
2, 84071, Note_off_c, 0, 60, 51
2, 84082, Note_off_c, 0, 81, 52
2, 84110, Note_off_c, 0, 65, 51
2, 84185, Note_on_c, 0, 81, 48
2, 84187, Note_on_c, 0, 63, 45
2, 84300, Note_off_c, 0, 63, 51
2, 84329, Note_off_c, 0, 81, 52
2, 84374, Note_on_c, 0, 65, 44
2, 84495, Note_off_c, 0, 65, 51
2, 84550, Control_c, 0, 64, 0
2, 84564, Note_on_c, 0, 60, 43
2, 84564, Note_on_c, 0, 81, 42
2, 84668, Note_off_c, 0, 81, 50
2, 84730, Control_c, 0, 64, 120
2, 84751, Note_on_c, 0, 65, 42
2, 84850, Note_off_c, 0, 65, 50
2, 84862, Note_off_c, 0, 60, 50
2, 84941, Note_on_c, 0, 62, 42
2, 84941, Note_on_c, 0, 82, 36
2, 85058, Note_off_c, 0, 62, 50
2, 85093, Note_off_c, 0, 82, 49
2, 85130, Note_on_c, 0, 65, 41
2, 85130, Note_on_c, 0, 84, 36
2, 85195, Note_off_c, 0, 84, 49
2, 85198, Note_on_c, 0, 82, 42
2, 85249, Note_off_c, 0, 65, 50
2, 85265, Note_off_c, 0, 82, 50
2, 85265, Note_on_c, 0, 81, 48
2, 85318, Note_on_c, 0, 82, 54
2, 85320, Control_c, 0, 64, 0
2, 85320, Note_on_c, 0, 58, 40
2, 85387, Note_off_c, 0, 81, 52
2, 85500, Control_c, 0, 64, 120
2, 85507, Note_on_c, 0, 86, 72
2, 85507, Note_on_c, 0, 65, 39
2, 85533, Note_off_c, 0, 82, 53
2, 85605, Note_off_c, 0, 58, 50
2, 85607, Note_off_c, 0, 65, 49
2, 85694, Note_on_c, 0, 89, 72
2, 85697, Note_on_c, 0, 62, 38
2, 85747, Note_off_c, 0, 86, 58
2, 85824, Note_off_c, 0, 62, 49
2, 85882, Note_on_c, 0, 65, 37
2, 85977, Note_off_c, 0, 65, 49
2, 85985, Note_off_c, 0, 89, 58
2, 86076, Note_on_c, 0, 65, 72
2, 86086, Note_on_c, 0, 58, 36
2, 86221, Note_off_c, 0, 65, 58
2, 86222, Note_off_c, 0, 58, 49
2, 86301, Note_on_c, 0, 65, 36
2, 86433, Note_off_c, 0, 65, 49
2, 86478, Note_on_c, 0, 75, 66
2, 86480, Note_on_c, 0, 57, 36
2, 86490, Control_c, 0, 64, 0
2, 86670, Control_c, 0, 64, 120
2, 86684, Note_on_c, 0, 65, 36
2, 86726, Note_off_c, 0, 57, 49
2, 86816, Note_off_c, 0, 65, 49
2, 86874, Note_on_c, 0, 69, 59
2, 86874, Note_on_c, 0, 60, 37
2, 86920, Note_off_c, 0, 75, 56
2, 87061, Note_on_c, 0, 65, 37
2, 87145, Note_off_c, 0, 69, 54
2, 87147, Note_off_c, 0, 60, 49
2, 87181, Note_off_c, 0, 65, 49
2, 87248, Note_on_c, 0, 69, 52
2, 87251, Note_on_c, 0, 63, 38
2, 87253, Control_c, 0, 64, 0
2, 87371, Note_off_c, 0, 69, 53
2, 87377, Note_off_c, 0, 63, 49
2, 87433, Control_c, 0, 64, 120
2, 87438, Note_on_c, 0, 65, 39
2, 87550, Note_off_c, 0, 65, 49
2, 87628, Note_on_c, 0, 69, 48
2, 87628, Note_on_c, 0, 60, 39
2, 87730, Note_off_c, 0, 69, 52
2, 87815, Note_on_c, 0, 65, 40
2, 87904, Note_off_c, 0, 60, 49
2, 87923, Note_off_c, 0, 65, 50
2, 88004, Note_on_c, 0, 70, 48
2, 88004, Note_on_c, 0, 62, 40
2, 88013, Control_c, 0, 64, 0
2, 88133, Note_off_c, 0, 62, 50
2, 88192, Note_off_c, 0, 70, 52
2, 88193, Control_c, 0, 64, 120
2, 88194, Note_on_c, 0, 72, 52
2, 88194, Note_on_c, 0, 65, 41
2, 88259, Note_off_c, 0, 72, 53
2, 88261, Note_on_c, 0, 70, 53
2, 88310, Note_off_c, 0, 65, 50
2, 88312, Note_off_c, 0, 70, 53
2, 88312, Note_on_c, 0, 69, 54
2, 88381, Note_on_c, 0, 70, 56
2, 88384, Note_on_c, 0, 58, 42
2, 88440, Note_off_c, 0, 69, 53
2, 88571, Note_on_c, 0, 72, 60
2, 88571, Note_on_c, 0, 65, 42
2, 88599, Note_off_c, 0, 70, 54
2, 88658, Note_off_c, 0, 58, 50
2, 88694, Note_off_c, 0, 65, 50
2, 88758, Note_on_c, 0, 74, 60
2, 88760, Note_on_c, 0, 56, 43
2, 88763, Control_c, 0, 64, 0
2, 88783, Note_off_c, 0, 72, 55
2, 88864, Note_off_c, 0, 56, 50
2, 88943, Control_c, 0, 64, 120
2, 88948, Note_on_c, 0, 70, 60
2, 88948, Note_on_c, 0, 65, 43
2, 88970, Note_off_c, 0, 74, 55
2, 89073, Note_off_c, 0, 65, 50
2, 89135, Note_on_c, 0, 72, 61
2, 89137, Note_on_c, 0, 58, 44
2, 89159, Note_off_c, 0, 70, 55
2, 89324, Note_on_c, 0, 74, 62
2, 89324, Note_on_c, 0, 65, 45
2, 89357, Note_off_c, 0, 72, 55
2, 89414, Note_off_c, 0, 58, 51
2, 89449, Note_off_c, 0, 65, 51
2, 89476, Note_off_c, 0, 74, 55
2, 89512, Note_on_c, 0, 75, 64
2, 89514, Note_on_c, 0, 55, 45
2, 89517, Control_c, 0, 64, 0
2, 89653, Note_off_c, 0, 75, 56
2, 89697, Control_c, 0, 64, 120
2, 89701, Note_on_c, 0, 77, 65
2, 89701, Note_on_c, 0, 63, 46
2, 89768, Note_off_c, 0, 77, 56
2, 89771, Note_off_c, 0, 55, 51
2, 89771, Note_on_c, 0, 75, 65
2, 89812, Note_off_c, 0, 63, 51
2, 89836, Note_off_c, 0, 75, 56
2, 89838, Note_on_c, 0, 74, 66
2, 89891, Note_on_c, 0, 75, 66
2, 89891, Note_on_c, 0, 58, 46
2, 89987, Note_off_c, 0, 74, 56
2, 90033, Note_off_c, 0, 58, 51
2, 90095, Note_on_c, 0, 77, 68
2, 90097, Note_on_c, 0, 63, 47
2, 90129, Note_off_c, 0, 75, 56
2, 90231, Note_off_c, 0, 63, 51
2, 90284, Note_on_c, 0, 79, 69
2, 90284, Note_on_c, 0, 51, 48
2, 90287, Control_c, 0, 64, 0
2, 90308, Note_off_c, 0, 77, 57
2, 90467, Control_c, 0, 64, 120
2, 90472, Note_on_c, 0, 81, 70
2, 90474, Note_on_c, 0, 63, 48
2, 90503, Note_off_c, 0, 79, 57
2, 90543, Note_off_c, 0, 51, 52
2, 90614, Note_off_c, 0, 63, 52
2, 90678, Note_on_c, 0, 82, 72
2, 90680, Note_on_c, 0, 58, 47
2, 90717, Note_off_c, 0, 81, 57
2, 90798, Note_off_c, 0, 58, 51
2, 90868, Note_on_c, 0, 79, 72
2, 90868, Note_on_c, 0, 63, 46
2, 90891, Note_off_c, 0, 82, 58
2, 91002, Note_off_c, 0, 79, 58
2, 91003, Note_off_c, 0, 63, 51
2, 91055, Note_on_c, 0, 76, 70
2, 91055, Note_on_c, 0, 53, 45
2, 91063, Control_c, 0, 64, 0
2, 91243, Control_c, 0, 64, 120
2, 91261, Note_on_c, 0, 77, 67
2, 91261, Note_on_c, 0, 62, 44
2, 91331, Note_off_c, 0, 76, 57
2, 91371, Note_off_c, 0, 62, 51
2, 91391, Note_off_c, 0, 53, 51
2, 91451, Note_on_c, 0, 79, 64
2, 91451, Note_on_c, 0, 58, 43
2, 91493, Note_off_c, 0, 77, 57
2, 91578, Note_off_c, 0, 58, 50
2, 91638, Note_on_c, 0, 77, 62
2, 91638, Note_on_c, 0, 62, 42
2, 91690, Note_off_c, 0, 79, 56
2, 91746, Note_off_c, 0, 62, 50
2, 91798, Note_off_c, 0, 77, 55
2, 91825, Note_on_c, 0, 77, 59
2, 91825, Note_on_c, 0, 53, 41
2, 91827, Control_c, 0, 64, 0
2, 92007, Control_c, 0, 64, 120
2, 92015, Note_on_c, 0, 75, 56
2, 92017, Note_on_c, 0, 63, 40
2, 92067, Note_off_c, 0, 77, 54
2, 92120, Note_off_c, 0, 53, 50
2, 92135, Note_off_c, 0, 63, 50
2, 92204, Note_on_c, 0, 74, 54
2, 92204, Note_on_c, 0, 57, 39
2, 92242, Note_off_c, 0, 75, 54
2, 92327, Note_off_c, 0, 57, 49
2, 92392, Note_on_c, 0, 72, 51
2, 92394, Note_on_c, 0, 63, 38
2, 92410, Note_off_c, 0, 74, 53
2, 92512, Note_off_c, 0, 63, 49
2, 92528, Note_off_c, 0, 72, 52
2, 92579, Note_on_c, 0, 73, 48
2, 92581, Note_on_c, 0, 62, 36
2, 92581, Note_on_c, 0, 58, 36
2, 92583, Control_c, 0, 64, 0
2, 92763, Control_c, 0, 64, 120
2, 92768, Note_on_c, 0, 74, 48
2, 92787, Note_off_c, 0, 73, 52
2, 92975, Note_on_c, 0, 75, 60
2, 92991, Note_off_c, 0, 74, 52
2, 93162, Note_on_c, 0, 74, 72
2, 93187, Note_off_c, 0, 75, 55
2, 93368, Note_off_c, 0, 62, 49
2, 93368, Note_off_c, 0, 58, 49
2, 93371, Note_on_c, 0, 77, 72
2, 93373, Control_c, 0, 64, 0
2, 93414, Note_off_c, 0, 74, 58
2, 93553, Control_c, 0, 64, 120
2, 93556, Note_on_c, 0, 75, 72
2, 93597, Note_off_c, 0, 77, 58
2, 93762, Note_on_c, 0, 74, 36
2, 93789, Note_off_c, 0, 75, 58
2, 93968, Note_on_c, 0, 72, 36
2, 94001, Note_off_c, 0, 74, 49
2, 94122, Note_off_c, 0, 72, 49
2, 94172, Note_on_c, 0, 70, 36
2, 94175, Note_on_c, 0, 62, 36
2, 94177, Control_c, 0, 64, 0
2, 94357, Control_c, 0, 64, 120
2, 94362, Note_off_c, 0, 70, 49
2, 94362, Note_on_c, 0, 72, 39
2, 94364, Note_on_c, 0, 65, 37
2, 94426, Note_off_c, 0, 62, 49
2, 94429, Note_off_c, 0, 72, 49
2, 94432, Note_on_c, 0, 70, 40
2, 94476, Note_off_c, 0, 65, 49
2, 94482, Note_off_c, 0, 70, 50
2, 94482, Note_on_c, 0, 69, 41
2, 94549, Note_off_c, 0, 69, 50
2, 94552, Note_on_c, 0, 70, 42
2, 94552, Note_on_c, 0, 58, 38
2, 94659, Note_off_c, 0, 58, 49
2, 94741, Note_on_c, 0, 72, 45
2, 94741, Note_on_c, 0, 65, 39
2, 94769, Note_off_c, 0, 70, 50
2, 94857, Control_c, 0, 64, 0
2, 94869, Note_off_c, 0, 65, 49
2, 94928, Note_on_c, 0, 74, 48
2, 94931, Note_on_c, 0, 56, 40
2, 94943, Note_off_c, 0, 72, 51
2, 95037, Control_c, 0, 64, 120
2, 95135, Note_on_c, 0, 70, 48
2, 95135, Note_on_c, 0, 65, 41
2, 95186, Note_off_c, 0, 74, 52
2, 95208, Note_off_c, 0, 56, 50
2, 95267, Note_off_c, 0, 65, 50
2, 95322, Note_on_c, 0, 72, 52
2, 95324, Note_on_c, 0, 58, 42
2, 95344, Note_off_c, 0, 70, 52
2, 95450, Note_off_c, 0, 58, 50
2, 95512, Note_on_c, 0, 74, 56
2, 95512, Note_on_c, 0, 65, 43
2, 95552, Note_off_c, 0, 72, 53
2, 95659, Note_off_c, 0, 65, 50
2, 95663, Note_off_c, 0, 74, 54
2, 95716, Note_on_c, 0, 75, 60
2, 95718, Note_on_c, 0, 55, 44
2, 95727, Control_c, 0, 64, 0
2, 95905, Note_on_c, 0, 77, 64
2, 95907, Control_c, 0, 64, 120
2, 95908, Note_on_c, 0, 63, 45
2, 95935, Note_off_c, 0, 75, 55
2, 96025, Note_off_c, 0, 55, 51
2, 96046, Note_off_c, 0, 63, 51
2, 96112, Note_on_c, 0, 79, 68
2, 96112, Note_on_c, 0, 58, 46
2, 96165, Note_off_c, 0, 77, 56
2, 96223, Note_off_c, 0, 58, 51
2, 96299, Note_on_c, 0, 81, 72
2, 96301, Note_on_c, 0, 63, 48
2, 96357, Note_off_c, 0, 79, 57
2, 96428, Note_off_c, 0, 63, 52
2, 96452, Note_off_c, 0, 81, 58
2, 96505, Note_on_c, 0, 84, 72
2, 96505, Note_on_c, 0, 51, 48
2, 96507, Control_c, 0, 64, 0
2, 96687, Control_c, 0, 64, 120
2, 96712, Note_on_c, 0, 82, 72
2, 96712, Note_on_c, 0, 63, 47
2, 96728, Note_off_c, 0, 84, 58
2, 96816, Note_off_c, 0, 63, 51
2, 96846, Note_off_c, 0, 51, 52
2, 96899, Note_on_c, 0, 81, 68
2, 96901, Note_on_c, 0, 58, 46
2, 96922, Note_off_c, 0, 82, 58
2, 97037, Note_off_c, 0, 58, 51
2, 97105, Note_on_c, 0, 79, 64
2, 97108, Note_on_c, 0, 63, 45
2, 97138, Note_off_c, 0, 81, 57
2, 97221, Note_off_c, 0, 63, 51
2, 97240, Note_off_c, 0, 79, 56
2, 97292, Note_on_c, 0, 79, 60
2, 97295, Note_on_c, 0, 50, 44
2, 97300, Control_c, 0, 64, 0
2, 97480, Control_c, 0, 64, 120
2, 97482, Note_on_c, 0, 77, 56
2, 97484, Note_on_c, 0, 62, 42
2, 97505, Note_off_c, 0, 79, 55
2, 97601, Note_off_c, 0, 50, 51
2, 97605, Note_off_c, 0, 62, 50
2, 97672, Note_on_c, 0, 76, 52
2, 97672, Note_on_c, 0, 58, 41
2, 97718, Note_off_c, 0, 77, 54
2, 97805, Note_off_c, 0, 58, 50
2, 97878, Note_on_c, 0, 77, 48
2, 97878, Note_on_c, 0, 62, 40
2, 97910, Note_off_c, 0, 76, 53
2, 98008, Note_off_c, 0, 62, 50
2, 98082, Note_on_c, 0, 81, 60
2, 98084, Note_on_c, 0, 51, 39
2, 98093, Control_c, 0, 64, 0
2, 98114, Note_off_c, 0, 77, 52
2, 98272, Note_on_c, 0, 79, 60
2, 98272, Note_on_c, 0, 60, 38
2, 98273, Control_c, 0, 64, 120
2, 98324, Note_off_c, 0, 81, 55
2, 98376, Note_off_c, 0, 51, 49
2, 98409, Note_off_c, 0, 60, 49
2, 98476, Note_on_c, 0, 77, 54
2, 98478, Note_on_c, 0, 55, 36
2, 98522, Note_off_c, 0, 79, 55
2, 98596, Note_off_c, 0, 55, 49
2, 98665, Note_on_c, 0, 75, 48
2, 98665, Note_on_c, 0, 60, 36
2, 98701, Note_off_c, 0, 77, 53
2, 98795, Note_off_c, 0, 60, 49
2, 98816, Note_off_c, 0, 75, 52
2, 98852, Note_on_c, 0, 75, 48
2, 98852, Note_on_c, 0, 53, 36
2, 98860, Control_c, 0, 64, 0
2, 99040, Control_c, 0, 64, 120
2, 99042, Note_on_c, 0, 74, 56
2, 99042, Note_on_c, 0, 62, 37
2, 99062, Note_off_c, 0, 75, 52
2, 99157, Note_off_c, 0, 62, 49
2, 99161, Note_off_c, 0, 53, 49
2, 99229, Note_on_c, 0, 73, 64
2, 99232, Note_on_c, 0, 58, 38
2, 99251, Note_off_c, 0, 74, 54
2, 99355, Note_off_c, 0, 58, 49
2, 99436, Note_on_c, 0, 74, 72
2, 99438, Note_on_c, 0, 62, 39
2, 99486, Note_off_c, 0, 73, 56
2, 99556, Note_off_c, 0, 62, 49
2, 99625, Note_on_c, 0, 77, 72
2, 99625, Note_on_c, 0, 53, 40
2, 99627, Control_c, 0, 64, 0
2, 99660, Note_off_c, 0, 74, 58
2, 99807, Control_c, 0, 64, 120
2, 99815, Note_on_c, 0, 75, 72
2, 99815, Note_on_c, 0, 63, 41
2, 99852, Note_off_c, 0, 77, 58
2, 99934, Note_off_c, 0, 63, 50
2, 99937, Note_off_c, 0, 53, 50
2, 100019, Note_on_c, 0, 74, 64
2, 100019, Note_on_c, 0, 57, 42
2, 100048, Note_off_c, 0, 75, 58
2, 100141, Note_off_c, 0, 57, 50
2, 100225, Note_on_c, 0, 72, 56
2, 100225, Note_on_c, 0, 63, 43
2, 100254, Note_off_c, 0, 74, 56
2, 100340, Note_off_c, 0, 63, 50
2, 100360, Note_off_c, 0, 72, 54
2, 100412, Note_on_c, 0, 70, 48
2, 100412, Note_on_c, 0, 62, 44
2, 100415, Note_on_c, 0, 58, 44
2, 100420, Control_c, 0, 64, 0
2, 100616, Note_off_c, 0, 62, 51
2, 100619, Note_off_c, 0, 58, 51
2, 100619, Note_on_c, 0, 65, 45
2, 100823, Note_on_c, 0, 64, 46
2, 100840, Note_off_c, 0, 65, 51
2, 101029, Note_on_c, 0, 65, 47
2, 101069, Note_off_c, 0, 64, 51
2, 101216, Note_off_c, 0, 70, 52
2, 101219, Note_on_c, 0, 67, 48
2, 101230, Control_c, 0, 64, 0
2, 101270, Note_off_c, 0, 65, 51
2, 101406, Note_on_c, 0, 65, 48
2, 101410, Control_c, 0, 64, 120
2, 101427, Note_off_c, 0, 67, 52
2, 101612, Note_on_c, 0, 72, 60
2, 101612, Note_on_c, 0, 63, 42
2, 101644, Note_off_c, 0, 65, 52
2, 101802, Note_on_c, 0, 74, 66
2, 101802, Note_on_c, 0, 62, 36
2, 101840, Note_off_c, 0, 72, 55
2, 101854, Note_off_c, 0, 63, 50
2, 101936, Note_off_c, 0, 74, 56
2, 101947, Note_off_c, 0, 62, 49
2, 101989, Note_on_c, 0, 75, 72
2, 101989, Note_on_c, 0, 60, 36
2, 101991, Control_c, 0, 64, 0
2, 102170, Control_c, 0, 64, 120
2, 102176, Note_off_c, 0, 60, 49
2, 102176, Note_on_c, 0, 65, 40
2, 102366, Note_off_c, 0, 65, 50
2, 102366, Note_on_c, 0, 69, 48
2, 102368, Note_on_c, 0, 63, 44
2, 102413, Note_off_c, 0, 75, 58
2, 102553, Note_off_c, 0, 63, 51
2, 102556, Note_on_c, 0, 65, 48
2, 102656, Note_off_c, 0, 69, 52
2, 102743, Note_off_c, 0, 65, 52
2, 102743, Note_on_c, 0, 69, 45
2, 102745, Note_on_c, 0, 60, 48
2, 102745, Note_on_c, 0, 53, 40
2, 102750, Control_c, 0, 64, 0
2, 102889, Note_off_c, 0, 69, 51
2, 102930, Control_c, 0, 64, 120
2, 102947, Note_off_c, 0, 60, 52
2, 102949, Note_off_c, 0, 53, 50
2, 102949, Note_on_c, 0, 65, 47
2, 103136, Note_off_c, 0, 65, 51
2, 103136, Note_on_c, 0, 69, 39
2, 103139, Note_on_c, 0, 63, 46
2, 103266, Note_off_c, 0, 69, 49
2, 103343, Note_off_c, 0, 63, 51
2, 103343, Note_on_c, 0, 65, 45
2, 103530, Note_off_c, 0, 65, 51
2, 103532, Note_on_c, 0, 62, 44
2, 103532, Note_on_c, 0, 70, 36
2, 103535, Note_on_c, 0, 58, 36
2, 103540, Control_c, 0, 64, 0
2, 103720, Control_c, 0, 64, 120
2, 103736, Note_off_c, 0, 62, 51
2, 103736, Note_off_c, 0, 58, 49
2, 103739, Note_on_c, 0, 65, 43
2, 103943, Note_on_c, 0, 64, 42
2, 103969, Note_off_c, 0, 65, 50
2, 104132, Note_on_c, 0, 65, 41
2, 104171, Note_off_c, 0, 64, 50
2, 104336, Note_off_c, 0, 70, 49
2, 104339, Note_on_c, 0, 67, 40
2, 104350, Control_c, 0, 64, 0
2, 104354, Note_off_c, 0, 65, 50
2, 104530, Control_c, 0, 64, 120
2, 104543, Note_on_c, 0, 65, 39
2, 104608, Note_off_c, 0, 67, 50
2, 104732, Note_on_c, 0, 72, 48
2, 104732, Note_on_c, 0, 63, 38
2, 104749, Note_off_c, 0, 65, 49
2, 104939, Note_on_c, 0, 74, 48
2, 104939, Note_on_c, 0, 62, 36
2, 104962, Note_off_c, 0, 63, 49
2, 105013, Note_off_c, 0, 72, 52
2, 105090, Note_off_c, 0, 74, 52
2, 105090, Note_off_c, 0, 62, 49
2, 105140, Note_on_c, 0, 75, 60
2, 105143, Note_on_c, 0, 60, 36
2, 105150, Control_c, 0, 64, 0
2, 105330, Control_c, 0, 64, 120
2, 105347, Note_off_c, 0, 60, 49
2, 105349, Note_on_c, 0, 65, 35
2, 105553, Note_off_c, 0, 65, 48
2, 105556, Note_on_c, 0, 69, 58
2, 105556, Note_on_c, 0, 63, 34
2, 105613, Note_off_c, 0, 75, 55
2, 105760, Note_off_c, 0, 63, 48
2, 105760, Note_on_c, 0, 65, 33
2, 105860, Note_off_c, 0, 69, 54
2, 105964, Note_off_c, 0, 65, 48
2, 105966, Note_on_c, 0, 69, 54
2, 105966, Note_on_c, 0, 60, 32
2, 105968, Note_on_c, 0, 53, 24
2, 105970, Control_c, 0, 64, 0
2, 106132, Note_off_c, 0, 69, 53
2, 106150, Control_c, 0, 64, 120
2, 106187, Note_off_c, 0, 53, 46
2, 106187, Note_off_c, 0, 60, 48
2, 106189, Note_on_c, 0, 65, 31
2, 106410, Note_off_c, 0, 65, 47
2, 106410, Note_on_c, 0, 69, 50
2, 106412, Note_on_c, 0, 63, 30
2, 106552, Note_off_c, 0, 69, 52
2, 106633, Note_off_c, 0, 63, 47
2, 106633, Note_on_c, 0, 65, 29
2, 106856, Note_off_c, 0, 65, 47
2, 106961, Note_on_c, 0, 72, 50
2, 106961, Note_on_c, 0, 69, 30
2, 106964, Note_on_c, 0, 63, 38
2, 106964, Note_on_c, 0, 58, 28
2, 106972, Control_c, 0, 64, 0
2, 107152, Control_c, 0, 64, 120
2, 107905, Note_off_c, 0, 69, 47
2, 107938, Note_on_c, 0, 70, 36
2, 107938, Note_on_c, 0, 62, 24
2, 107958, Note_off_c, 0, 72, 52
2, 107958, Note_off_c, 0, 63, 49
2, 107958, Control_c, 0, 64, 0
2, 108138, Control_c, 0, 64, 120
2, 108185, Note_off_c, 0, 58, 47
2, 108248, Note_off_c, 0, 70, 49
2, 108260, Note_off_c, 0, 62, 46
2, 108378, Control_c, 0, 64, 0
2, 108604, Note_on_c, 0, 58, 66
2, 108604, Note_on_c, 0, 46, 54
2, 108654, Note_off_c, 0, 58, 56
2, 108657, Note_off_c, 0, 46, 53
2, 108657, Note_on_c, 0, 60, 66
2, 108659, Note_on_c, 0, 48, 54
2, 108724, Note_off_c, 0, 60, 56
2, 108724, Note_off_c, 0, 48, 53
2, 108726, Note_on_c, 0, 58, 68
2, 108726, Note_on_c, 0, 46, 56
2, 108791, Note_off_c, 0, 58, 57
2, 108793, Note_off_c, 0, 46, 54
2, 108793, Note_on_c, 0, 60, 70
2, 108796, Note_on_c, 0, 48, 58
2, 108844, Note_off_c, 0, 60, 57
2, 108844, Note_off_c, 0, 48, 54
2, 108846, Note_on_c, 0, 58, 73
2, 108846, Note_on_c, 0, 46, 61
2, 108911, Note_off_c, 0, 58, 58
2, 108913, Note_off_c, 0, 46, 55
2, 108913, Note_on_c, 0, 60, 75
2, 108916, Note_on_c, 0, 48, 63
2, 108981, Note_off_c, 0, 60, 59
2, 108981, Note_off_c, 0, 48, 55
2, 108983, Note_on_c, 0, 65, 78
2, 108983, Note_on_c, 0, 53, 66
2, 109046, Control_c, 0, 64, 120
2, 109341, Note_off_c, 0, 65, 59
2, 109341, Note_off_c, 0, 53, 56
2, 109343, Note_on_c, 0, 58, 78
2, 109343, Note_on_c, 0, 46, 66
2, 109528, Note_off_c, 0, 58, 59
2, 109530, Note_off_c, 0, 46, 56
2, 109580, Control_c, 0, 64, 0
2, 109717, Note_on_c, 0, 58, 72
2, 109717, Note_on_c, 0, 46, 60
2, 109790, Control_c, 0, 64, 120
2, 110094, Note_off_c, 0, 58, 58
2, 110094, Note_off_c, 0, 46, 55
2, 110096, Control_c, 0, 64, 0
2, 110097, Note_on_c, 0, 60, 66
2, 110097, Note_on_c, 0, 48, 54
2, 110164, Note_off_c, 0, 60, 56
2, 110164, Note_off_c, 0, 48, 53
2, 110166, Note_on_c, 0, 58, 66
2, 110166, Note_on_c, 0, 46, 54
2, 110214, Note_off_c, 0, 58, 56
2, 110217, Note_off_c, 0, 46, 53
2, 110217, Note_on_c, 0, 60, 68
2, 110217, Note_on_c, 0, 48, 56
2, 110284, Note_off_c, 0, 60, 57
2, 110284, Note_off_c, 0, 48, 54
2, 110284, Note_on_c, 0, 58, 70
2, 110286, Note_on_c, 0, 46, 58
2, 110351, Note_off_c, 0, 58, 57
2, 110353, Note_off_c, 0, 46, 54
2, 110353, Note_on_c, 0, 60, 73
2, 110353, Note_on_c, 0, 48, 61
2, 110404, Note_off_c, 0, 60, 58
2, 110404, Note_off_c, 0, 48, 55
2, 110406, Note_on_c, 0, 58, 75
2, 110406, Note_on_c, 0, 46, 63
2, 110471, Note_off_c, 0, 58, 59
2, 110473, Note_off_c, 0, 46, 55
2, 110473, Note_on_c, 0, 65, 78
2, 110473, Note_on_c, 0, 53, 66
2, 110566, Control_c, 0, 64, 120
2, 110848, Note_off_c, 0, 65, 59
2, 110850, Note_off_c, 0, 53, 56
2, 110850, Note_on_c, 0, 56, 78
2, 110853, Note_on_c, 0, 44, 66
2, 111037, Note_off_c, 0, 56, 59
2, 111037, Note_off_c, 0, 44, 56
2, 111086, Control_c, 0, 64, 0
2, 111225, Note_on_c, 0, 56, 66
2, 111227, Note_on_c, 0, 44, 60
2, 111266, Control_c, 0, 64, 120
2, 111540, Control_c, 0, 64, 0
2, 111585, Note_off_c, 0, 56, 56
2, 111587, Note_off_c, 0, 44, 55
2, 111587, Note_on_c, 0, 58, 66
2, 111589, Note_on_c, 0, 46, 54
2, 111654, Note_off_c, 0, 58, 56
2, 111654, Note_off_c, 0, 46, 53
2, 111657, Note_on_c, 0, 56, 66
2, 111657, Note_on_c, 0, 44, 54
2, 111724, Note_off_c, 0, 56, 56
2, 111724, Note_off_c, 0, 44, 53
2, 111724, Note_on_c, 0, 58, 68
2, 111726, Note_on_c, 0, 46, 56
2, 111774, Note_off_c, 0, 58, 57
2, 111774, Note_off_c, 0, 46, 54
2, 111777, Note_on_c, 0, 56, 70
2, 111777, Note_on_c, 0, 44, 58
2, 111844, Note_off_c, 0, 56, 57
2, 111844, Note_off_c, 0, 44, 54
2, 111844, Note_on_c, 0, 58, 73
2, 111846, Note_on_c, 0, 46, 61
2, 111911, Note_off_c, 0, 58, 58
2, 111911, Note_off_c, 0, 46, 55
2, 111913, Note_on_c, 0, 56, 75
2, 111913, Note_on_c, 0, 44, 63
2, 111964, Note_off_c, 0, 56, 59
2, 111964, Note_off_c, 0, 44, 55
2, 111964, Note_on_c, 0, 55, 78
2, 111966, Note_on_c, 0, 43, 66
2, 112120, Control_c, 0, 64, 120
2, 112341, Note_off_c, 0, 55, 59
2, 112341, Note_off_c, 0, 43, 56
2, 112343, Note_on_c, 0, 58, 60
2, 112343, Note_on_c, 0, 46, 48
2, 112717, Note_off_c, 0, 58, 55
2, 112717, Note_off_c, 0, 46, 52
2, 112717, Note_on_c, 0, 63, 52
2, 112720, Note_on_c, 0, 51, 40
2, 112723, Control_c, 0, 64, 0
2, 112903, Control_c, 0, 64, 120
2, 113094, Note_off_c, 0, 63, 53
2, 113094, Note_off_c, 0, 51, 50
2, 113097, Note_on_c, 0, 67, 44
2, 113097, Note_on_c, 0, 55, 32
2, 113368, Note_off_c, 0, 67, 51
2, 113368, Note_off_c, 0, 55, 48
2, 113514, Note_on_c, 0, 65, 48
2, 113514, Note_on_c, 0, 60, 36
2, 113517, Note_on_c, 0, 56, 36
2, 113517, Note_on_c, 0, 44, 24
2, 113523, Control_c, 0, 64, 0
2, 113703, Control_c, 0, 64, 120
2, 113910, Note_on_c, 0, 68, 60
2, 113910, Note_on_c, 0, 53, 36
2, 113968, Note_off_c, 0, 65, 52
2, 113970, Note_off_c, 0, 56, 49
2, 114217, Note_off_c, 0, 53, 49
2, 114321, Note_off_c, 0, 44, 46
2, 114321, Note_off_c, 0, 60, 49
2, 114323, Note_on_c, 0, 62, 60
2, 114323, Note_on_c, 0, 56, 40
2, 114323, Note_on_c, 0, 53, 35
2, 114325, Note_on_c, 0, 46, 23
2, 114326, Control_c, 0, 64, 0
2, 114371, Note_off_c, 0, 68, 55
2, 114506, Control_c, 0, 64, 120
2, 114733, Note_on_c, 0, 58, 54
2, 114733, Note_on_c, 0, 50, 33
2, 114756, Note_off_c, 0, 62, 55
2, 114796, Note_off_c, 0, 53, 48
2, 115057, Note_off_c, 0, 58, 53
2, 115057, Note_off_c, 0, 50, 48
2, 115175, Note_off_c, 0, 56, 50
2, 115177, Note_off_c, 0, 46, 45
2, 115240, Note_on_c, 0, 63, 42
2, 115246, Note_on_c, 0, 39, 25
2, 115248, Note_on_c, 0, 51, 36
2, 115250, Control_c, 0, 64, 0
2, 115253, Note_on_c, 0, 55, 30
2, 115254, Note_on_c, 0, 58, 22
2, 115430, Control_c, 0, 64, 120
2, 115527, Note_off_c, 0, 63, 50
2, 115684, Note_on_c, 0, 67, 36
2, 115686, Note_on_c, 0, 63, 30
2, 115687, Note_off_c, 0, 51, 49
2, 115688, Note_off_c, 0, 39, 46
2, 115914, Note_off_c, 0, 67, 49
2, 115928, Note_off_c, 0, 63, 47
2, 116039, Note_off_c, 0, 58, 45
2, 116040, Note_off_c, 0, 55, 47
2, 116058, Note_on_c, 0, 67, 36
2, 116061, Note_on_c, 0, 63, 30
2, 116140, Control_c, 0, 64, 0
2, 116231, Note_on_c, 0, 79, 48
2, 116320, Control_c, 0, 64, 106
2, 116370, Note_off_c, 0, 67, 49
2, 116373, Note_off_c, 0, 63, 47
2, 116423, Note_on_c, 0, 77, 48
2, 116440, Note_off_c, 0, 79, 52
2, 116608, Note_on_c, 0, 75, 42
2, 116649, Note_off_c, 0, 77, 52
2, 116797, Note_on_c, 0, 74, 36
2, 116834, Note_off_c, 0, 75, 50
2, 117046, Note_off_c, 0, 74, 49
2, 117086, Control_c, 0, 64, 0
2, 117172, Note_on_c, 0, 68, 36
2, 117174, Note_on_c, 0, 65, 30
2, 117266, Control_c, 0, 64, 106
2, 117373, Note_off_c, 0, 68, 49
2, 117376, Note_off_c, 0, 65, 47
2, 117551, Note_on_c, 0, 68, 36
2, 117551, Note_on_c, 0, 65, 30
2, 117738, Note_on_c, 0, 80, 48
2, 117750, Note_off_c, 0, 68, 49
2, 117752, Note_off_c, 0, 65, 47
2, 117928, Note_on_c, 0, 79, 48
2, 117970, Note_off_c, 0, 80, 52
2, 118117, Note_on_c, 0, 77, 42
2, 118125, Note_off_c, 0, 79, 52
2, 118288, Note_on_c, 0, 75, 36
2, 118319, Note_off_c, 0, 77, 50
2, 118498, Note_off_c, 0, 75, 49
2, 118665, Note_on_c, 0, 70, 40
2, 118665, Note_on_c, 0, 67, 32
2, 118670, Control_c, 0, 64, 0
2, 118843, Note_off_c, 0, 67, 48
2, 118850, Control_c, 0, 64, 106
2, 118852, Note_on_c, 0, 87, 60
2, 118892, Note_off_c, 0, 70, 50
2, 119041, Note_on_c, 0, 86, 60
2, 119041, Note_on_c, 0, 70, 41
2, 119044, Note_on_c, 0, 67, 33
2, 119070, Note_off_c, 0, 87, 55
2, 119229, Note_off_c, 0, 70, 50
2, 119231, Note_on_c, 0, 87, 57
2, 119252, Note_off_c, 0, 67, 48
2, 119265, Note_off_c, 0, 86, 55
2, 119418, Note_on_c, 0, 86, 54
2, 119418, Note_on_c, 0, 70, 42
2, 119421, Note_on_c, 0, 67, 34
2, 119430, Control_c, 0, 64, 0
2, 119440, Note_off_c, 0, 87, 54
2, 119608, Note_on_c, 0, 84, 51
2, 119610, Control_c, 0, 64, 106
2, 119619, Note_off_c, 0, 67, 48
2, 119624, Note_off_c, 0, 86, 53
2, 119645, Note_off_c, 0, 70, 50
2, 119797, Note_on_c, 0, 83, 60
2, 119800, Note_on_c, 0, 72, 34
2, 119800, Note_on_c, 0, 68, 30
2, 119825, Note_off_c, 0, 84, 52
2, 119840, Control_c, 0, 64, 0
2, 119985, Note_on_c, 0, 84, 60
2, 120017, Note_off_c, 0, 83, 55
2, 120020, Control_c, 0, 64, 106
2, 120191, Note_on_c, 0, 82, 60
2, 120238, Note_off_c, 0, 84, 55
2, 120378, Note_on_c, 0, 80, 56
2, 120399, Note_off_c, 0, 82, 55
2, 120443, Note_off_c, 0, 68, 47
2, 120443, Note_off_c, 0, 72, 48
2, 120587, Note_on_c, 0, 79, 52
2, 120587, Note_on_c, 0, 74, 36
2, 120589, Note_on_c, 0, 70, 32
2, 120600, Control_c, 0, 64, 0
2, 120626, Note_off_c, 0, 80, 54
2, 120772, Note_on_c, 0, 77, 48
2, 120780, Control_c, 0, 64, 106
2, 120806, Note_off_c, 0, 79, 53
2, 120978, Note_on_c, 0, 84, 60
2, 120987, Note_off_c, 0, 77, 52
2, 121185, Note_on_c, 0, 82, 60
2, 121247, Note_off_c, 0, 74, 49
2, 121249, Note_off_c, 0, 70, 48
2, 121270, Note_off_c, 0, 84, 55
2, 121338, Note_off_c, 0, 82, 55
2, 121391, Note_on_c, 0, 80, 56
2, 121396, Control_c, 0, 64, 0
2, 121576, Control_c, 0, 64, 106
2, 121801, Note_on_c, 0, 79, 48
2, 121801, Note_on_c, 0, 70, 37
2, 121804, Note_on_c, 0, 63, 30
2, 121810, Control_c, 0, 64, 0
2, 121856, Note_off_c, 0, 80, 54
2, 121977, Note_off_c, 0, 70, 49
2, 121980, Note_off_c, 0, 63, 47
2, 121990, Control_c, 0, 64, 106
2, 122109, Note_off_c, 0, 79, 52
2, 122212, Note_on_c, 0, 67, 37
2, 122212, Note_on_c, 0, 63, 30
2, 122390, Note_off_c, 0, 67, 49
2, 122390, Note_off_c, 0, 63, 47
2, 122418, Note_on_c, 0, 79, 56
2, 122505, Note_on_c, 0, 77, 60
2, 122527, Note_off_c, 0, 79, 54
2, 122608, Note_on_c, 0, 80, 60
2, 122636, Note_off_c, 0, 77, 55
2, 122692, Note_on_c, 0, 79, 60
2, 122725, Note_off_c, 0, 80, 55
2, 122795, Note_on_c, 0, 77, 59
2, 122806, Note_off_c, 0, 79, 55
2, 122898, Note_on_c, 0, 75, 57
2, 122934, Note_off_c, 0, 77, 54
2, 122965, Note_off_c, 0, 75, 54
2, 122992, Note_on_c, 0, 77, 55
2, 123052, Note_on_c, 0, 75, 55
2, 123062, Note_off_c, 0, 77, 53
2, 123258, Note_off_c, 0, 75, 53
2, 123258, Note_on_c, 0, 74, 52
2, 123395, Note_off_c, 0, 74, 53
2, 123445, Note_on_c, 0, 74, 48
2, 123448, Note_on_c, 0, 68, 31
2, 123448, Note_on_c, 0, 65, 31
2, 123450, Control_c, 0, 64, 0
2, 123549, Note_off_c, 0, 68, 47
2, 123549, Note_off_c, 0, 65, 47
2, 123630, Control_c, 0, 64, 106
2, 123856, Note_off_c, 0, 74, 52
2, 123858, Note_on_c, 0, 68, 32
2, 123858, Note_on_c, 0, 65, 32
2, 123959, Note_off_c, 0, 68, 48
2, 123961, Note_off_c, 0, 65, 48
2, 124045, Note_on_c, 0, 80, 56
2, 124149, Note_on_c, 0, 79, 60
2, 124199, Note_off_c, 0, 80, 54
2, 124235, Note_on_c, 0, 82, 60
2, 124259, Note_off_c, 0, 79, 55
2, 124338, Note_on_c, 0, 80, 60
2, 124383, Note_off_c, 0, 82, 55
2, 124425, Note_on_c, 0, 79, 59
2, 124440, Note_off_c, 0, 80, 55
2, 124525, Note_on_c, 0, 77, 57
2, 124549, Note_off_c, 0, 79, 54
2, 124595, Note_off_c, 0, 77, 54
2, 124629, Note_on_c, 0, 79, 55
2, 124696, Note_off_c, 0, 79, 53
2, 124698, Note_on_c, 0, 77, 55
2, 124885, Note_off_c, 0, 77, 53
2, 124885, Note_on_c, 0, 75, 52
2, 125075, Note_off_c, 0, 75, 53
2, 125092, Note_on_c, 0, 75, 48
2, 125102, Note_on_c, 0, 70, 36
2, 125102, Note_on_c, 0, 67, 30
2, 125106, Control_c, 0, 64, 0
2, 125286, Control_c, 0, 64, 106
2, 125327, Note_off_c, 0, 67, 47
2, 125335, Note_off_c, 0, 70, 49
2, 125485, Note_off_c, 0, 75, 52
2, 125502, Note_on_c, 0, 70, 37
2, 125502, Note_on_c, 0, 67, 31
2, 125709, Note_on_c, 0, 87, 56
2, 125715, Note_off_c, 0, 67, 47
2, 125745, Note_off_c, 0, 70, 49
2, 125812, Note_on_c, 0, 86, 60
2, 125866, Note_off_c, 0, 87, 54
2, 125896, Note_on_c, 0, 89, 60
2, 125898, Note_on_c, 0, 70, 37
2, 125898, Note_on_c, 0, 67, 31
2, 125936, Note_off_c, 0, 86, 55
2, 126001, Note_on_c, 0, 87, 60
2, 126028, Note_off_c, 0, 89, 55
2, 126085, Note_on_c, 0, 86, 56
2, 126092, Note_off_c, 0, 87, 55
2, 126100, Note_off_c, 0, 70, 49
2, 126125, Note_off_c, 0, 67, 47
2, 126189, Note_on_c, 0, 84, 52
2, 126222, Note_off_c, 0, 86, 54
2, 126256, Note_off_c, 0, 84, 53
2, 126292, Note_on_c, 0, 83, 60
2, 126294, Note_on_c, 0, 72, 38
2, 126294, Note_on_c, 0, 68, 32
2, 126296, Control_c, 0, 64, 0
2, 126476, Control_c, 0, 64, 106
2, 126481, Note_on_c, 0, 84, 60
2, 126501, Note_off_c, 0, 83, 55
2, 126669, Note_on_c, 0, 82, 60
2, 126758, Note_off_c, 0, 84, 55
2, 126767, Note_off_c, 0, 72, 49
2, 126841, Note_off_c, 0, 68, 48
2, 126875, Note_on_c, 0, 80, 56
2, 126925, Note_off_c, 0, 82, 55
2, 127079, Note_on_c, 0, 79, 52
2, 127079, Note_on_c, 0, 68, 36
2, 127081, Note_on_c, 0, 65, 42
2, 127081, Note_on_c, 0, 58, 30
2, 127086, Control_c, 0, 64, 0
2, 127099, Note_off_c, 0, 80, 54
2, 127266, Control_c, 0, 64, 106
2, 127285, Note_on_c, 0, 77, 48
2, 127316, Note_off_c, 0, 79, 53
2, 127492, Note_on_c, 0, 80, 60
2, 127556, Note_off_c, 0, 68, 49
2, 127561, Note_off_c, 0, 77, 52
2, 127599, Note_off_c, 0, 58, 47
2, 127639, Note_off_c, 0, 65, 50
2, 127698, Note_on_c, 0, 74, 60
2, 127758, Note_off_c, 0, 80, 55
2, 127849, Note_off_c, 0, 74, 55
2, 127905, Note_on_c, 0, 75, 48
2, 127905, Note_on_c, 0, 67, 40
2, 127907, Note_on_c, 0, 63, 34
2, 127910, Control_c, 0, 64, 0
2, 128089, Note_off_c, 0, 67, 50
2, 128090, Control_c, 0, 64, 106
2, 128092, Note_off_c, 0, 63, 48
2, 128092, Note_on_c, 0, 70, 42
2, 128296, Note_on_c, 0, 69, 44
2, 128347, Note_off_c, 0, 70, 50
2, 128502, Note_on_c, 0, 70, 46
2, 128538, Note_off_c, 0, 69, 51
2, 128606, Control_c, 0, 64, 0
2, 128689, Note_off_c, 0, 75, 52
2, 128692, Note_on_c, 0, 72, 48
2, 128731, Note_off_c, 0, 70, 51
2, 128786, Control_c, 0, 64, 106
2, 128879, Note_on_c, 0, 70, 48
2, 128913, Note_off_c, 0, 72, 52
2, 129069, Note_on_c, 0, 77, 54
2, 129069, Note_on_c, 0, 68, 44
2, 129109, Note_off_c, 0, 70, 52
2, 129258, Note_on_c, 0, 79, 57
2, 129258, Note_on_c, 0, 67, 40
2, 129285, Note_off_c, 0, 68, 51
2, 129323, Note_off_c, 0, 77, 53
2, 129409, Note_off_c, 0, 79, 54
2, 129412, Note_off_c, 0, 67, 50
2, 129445, Note_on_c, 0, 80, 60
2, 129445, Note_on_c, 0, 65, 36
2, 129446, Control_c, 0, 64, 0
2, 129626, Control_c, 0, 64, 106
2, 129633, Note_off_c, 0, 65, 49
2, 129633, Note_on_c, 0, 70, 36
2, 129822, Note_off_c, 0, 70, 49
2, 129822, Note_on_c, 0, 74, 48
2, 129825, Note_on_c, 0, 68, 37
2, 129856, Note_off_c, 0, 80, 55
2, 130026, Note_off_c, 0, 68, 49
2, 130029, Note_on_c, 0, 70, 39
2, 130113, Note_off_c, 0, 74, 52
2, 130216, Note_off_c, 0, 70, 49
2, 130216, Note_on_c, 0, 74, 51
2, 130218, Note_on_c, 0, 65, 41
2, 130218, Note_on_c, 0, 58, 35
2, 130220, Control_c, 0, 64, 0
2, 130342, Note_off_c, 0, 74, 52
2, 130400, Control_c, 0, 64, 106
2, 130403, Note_off_c, 0, 65, 50
2, 130405, Note_off_c, 0, 58, 48
2, 130405, Note_on_c, 0, 70, 42
2, 130593, Note_off_c, 0, 70, 50
2, 130593, Note_on_c, 0, 74, 57
2, 130595, Note_on_c, 0, 68, 44
2, 130728, Note_off_c, 0, 74, 54
2, 130799, Note_off_c, 0, 68, 51
2, 130799, Note_on_c, 0, 70, 46
2, 131003, Note_off_c, 0, 70, 51
2, 131005, Note_on_c, 0, 75, 60
2, 131005, Note_on_c, 0, 63, 48
2, 131013, Control_c, 0, 64, 0
2, 131193, Note_off_c, 0, 63, 52
2, 131193, Control_c, 0, 64, 106
2, 131193, Note_on_c, 0, 67, 48
2, 131399, Note_on_c, 0, 66, 47
2, 131412, Note_off_c, 0, 67, 52
2, 131605, Note_on_c, 0, 67, 46
2, 131643, Note_off_c, 0, 66, 51
2, 131793, Note_off_c, 0, 75, 55
2, 131795, Note_on_c, 0, 68, 44
2, 131796, Control_c, 0, 64, 0
2, 131838, Note_off_c, 0, 67, 51
2, 131976, Control_c, 0, 64, 106
2, 131982, Note_on_c, 0, 67, 43
2, 131990, Note_off_c, 0, 68, 51
2, 132189, Note_on_c, 0, 74, 48
2, 132189, Note_on_c, 0, 65, 42
2, 132222, Note_off_c, 0, 67, 50
2, 132376, Note_on_c, 0, 75, 48
2, 132378, Note_on_c, 0, 63, 40
2, 132388, Note_off_c, 0, 65, 50
2, 132456, Note_off_c, 0, 74, 52
2, 132513, Note_off_c, 0, 75, 52
2, 132513, Note_off_c, 0, 63, 50
2, 132563, Note_on_c, 0, 77, 60
2, 132565, Note_on_c, 0, 62, 39
2, 132573, Control_c, 0, 64, 0
2, 132753, Note_off_c, 0, 62, 49
2, 132753, Control_c, 0, 64, 106
2, 132753, Note_on_c, 0, 67, 38
2, 132942, Note_off_c, 0, 67, 49
2, 132942, Note_on_c, 0, 71, 48
2, 132945, Note_on_c, 0, 65, 36
2, 132976, Note_off_c, 0, 77, 55
2, 133129, Note_off_c, 0, 65, 49
2, 133129, Note_on_c, 0, 67, 36
2, 133233, Note_off_c, 0, 71, 52
2, 133317, Note_off_c, 0, 67, 49
2, 133319, Note_on_c, 0, 71, 51
2, 133319, Note_on_c, 0, 62, 36
2, 133321, Note_on_c, 0, 55, 30
2, 133323, Control_c, 0, 64, 0
2, 133462, Note_off_c, 0, 71, 52
2, 133503, Control_c, 0, 64, 106
2, 133523, Note_off_c, 0, 62, 49
2, 133525, Note_off_c, 0, 55, 47
2, 133525, Note_on_c, 0, 67, 37
2, 133713, Note_off_c, 0, 67, 49
2, 133713, Note_on_c, 0, 71, 57
2, 133715, Note_on_c, 0, 65, 38
2, 133855, Note_off_c, 0, 71, 54
2, 133917, Note_off_c, 0, 65, 49
2, 133919, Note_on_c, 0, 67, 39
2, 134106, Note_off_c, 0, 67, 49
2, 134106, Note_on_c, 0, 72, 63
2, 134109, Note_on_c, 0, 60, 40
2, 134116, Control_c, 0, 64, 0
2, 134296, Control_c, 0, 64, 106
2, 134313, Note_on_c, 0, 62, 41
2, 134359, Note_off_c, 0, 60, 50
2, 134519, Note_on_c, 0, 63, 42
2, 134525, Note_off_c, 0, 62, 50
2, 134706, Note_on_c, 0, 62, 43
2, 134719, Note_off_c, 0, 63, 50
2, 134893, Note_off_c, 0, 72, 55
2, 134896, Note_on_c, 0, 60, 44
2, 134903, Control_c, 0, 64, 0
2, 134939, Note_off_c, 0, 62, 50
2, 135083, Control_c, 0, 64, 106
2, 135102, Note_on_c, 0, 58, 45
2, 135129, Note_off_c, 0, 60, 51
2, 135289, Note_on_c, 0, 81, 84
2, 135292, Note_on_c, 0, 57, 46
2, 135299, Note_on_c, 0, 69, 72
2, 135325, Note_off_c, 0, 58, 51
2, 135481, Note_on_c, 0, 82, 84
2, 135481, Note_on_c, 0, 55, 47
2, 135490, Note_off_c, 0, 57, 51
2, 135491, Note_on_c, 0, 70, 72
2, 135507, Note_off_c, 0, 69, 58
2, 135534, Note_off_c, 0, 81, 61
2, 135610, Note_off_c, 0, 70, 58
2, 135614, Note_off_c, 0, 55, 51
2, 135633, Note_off_c, 0, 82, 61
2, 135666, Note_on_c, 0, 84, 84
2, 135669, Note_on_c, 0, 54, 48
2, 135679, Note_on_c, 0, 72, 72
2, 135690, Control_c, 0, 64, 0
2, 135785, Note_off_c, 0, 54, 52
2, 135856, Note_on_c, 0, 62, 48
2, 135870, Control_c, 0, 64, 106
2, 135976, Note_off_c, 0, 62, 52
2, 136021, Note_off_c, 0, 72, 58
2, 136043, Note_off_c, 0, 84, 61
2, 136045, Note_on_c, 0, 78, 78
2, 136048, Note_on_c, 0, 57, 48
2, 136058, Note_on_c, 0, 66, 66
2, 136249, Note_on_c, 0, 62, 47
2, 136305, Note_off_c, 0, 66, 56
2, 136333, Note_off_c, 0, 78, 59
2, 136364, Note_off_c, 0, 62, 51
2, 136424, Note_off_c, 0, 57, 52
2, 136439, Note_on_c, 0, 78, 76
2, 136439, Note_on_c, 0, 60, 46
2, 136446, Control_c, 0, 64, 0
2, 136449, Note_on_c, 0, 66, 64
2, 136549, Note_off_c, 0, 60, 51
2, 136579, Note_off_c, 0, 66, 56
2, 136602, Note_off_c, 0, 78, 59
2, 136626, Note_on_c, 0, 62, 45
2, 136626, Control_c, 0, 64, 106
2, 136752, Note_off_c, 0, 62, 51
2, 136833, Note_on_c, 0, 78, 71
2, 136835, Note_on_c, 0, 57, 44
2, 136843, Note_on_c, 0, 66, 59
2, 136951, Note_off_c, 0, 66, 54
2, 136997, Note_off_c, 0, 78, 58
2, 137020, Note_on_c, 0, 62, 44
2, 137130, Note_off_c, 0, 57, 51
2, 137140, Note_off_c, 0, 62, 51
2, 137226, Note_on_c, 0, 79, 78
2, 137229, Note_on_c, 0, 58, 43
2, 137236, Control_c, 0, 64, 0
2, 137239, Note_on_c, 0, 67, 66
2, 137416, Note_on_c, 0, 62, 42
2, 137416, Control_c, 0, 64, 106
2, 137484, Note_off_c, 0, 58, 50
2, 137569, Note_off_c, 0, 62, 50
2, 137620, Note_on_c, 0, 55, 41
2, 137764, Note_off_c, 0, 55, 50
2, 137826, Note_on_c, 0, 62, 40
2, 137882, Note_off_c, 0, 67, 56
2, 137950, Note_off_c, 0, 62, 50
2, 138013, Note_off_c, 0, 79, 59
2, 138016, Note_on_c, 0, 81, 54
2, 138018, Note_on_c, 0, 54, 40
2, 138026, Control_c, 0, 64, 0
2, 138028, Note_on_c, 0, 69, 42
2, 138203, Note_on_c, 0, 62, 39
2, 138206, Control_c, 0, 64, 106
2, 138327, Note_off_c, 0, 54, 50
2, 138328, Note_off_c, 0, 62, 49
2, 138409, Note_on_c, 0, 57, 38
2, 138535, Note_off_c, 0, 57, 49
2, 138563, Note_off_c, 0, 69, 50
2, 138597, Note_off_c, 0, 81, 53
2, 138599, Note_on_c, 0, 62, 37
2, 138718, Note_off_c, 0, 62, 49
2, 138786, Note_on_c, 0, 84, 48
2, 138789, Note_on_c, 0, 55, 36
2, 138796, Note_on_c, 0, 72, 36
2, 138806, Control_c, 0, 64, 0
2, 138973, Note_on_c, 0, 62, 36
2, 138986, Control_c, 0, 64, 106
2, 139048, Note_off_c, 0, 55, 49
2, 139096, Note_off_c, 0, 62, 49
2, 139099, Note_off_c, 0, 72, 49
2, 139163, Note_off_c, 0, 84, 52
2, 139165, Note_on_c, 0, 82, 48
2, 139168, Note_on_c, 0, 58, 37
2, 139175, Note_on_c, 0, 70, 36
2, 139275, Note_off_c, 0, 58, 49
2, 139353, Note_on_c, 0, 62, 38
2, 139487, Note_off_c, 0, 62, 49
2, 139516, Note_off_c, 0, 70, 49
2, 139557, Note_off_c, 0, 82, 52
2, 139559, Note_on_c, 0, 81, 44
2, 139561, Note_on_c, 0, 51, 39
2, 139566, Control_c, 0, 64, 0
2, 139569, Note_on_c, 0, 69, 32
2, 139746, Note_on_c, 0, 61, 40
2, 139746, Control_c, 0, 64, 106
2, 139847, Note_off_c, 0, 51, 49
2, 139859, Note_off_c, 0, 61, 50
2, 139884, Note_off_c, 0, 69, 48
2, 139933, Note_off_c, 0, 81, 51
2, 139936, Note_on_c, 0, 79, 40
2, 139938, Note_on_c, 0, 55, 42
2, 139948, Note_on_c, 0, 67, 28
2, 140064, Note_off_c, 0, 55, 50
2, 140140, Note_on_c, 0, 61, 43
2, 140225, Note_off_c, 0, 67, 47
2, 140243, Note_off_c, 0, 79, 50
2, 140276, Note_off_c, 0, 61, 50
2, 140346, Note_on_c, 0, 78, 36
2, 140349, Note_on_c, 0, 50, 44
2, 140356, Note_on_c, 0, 66, 24
2, 140356, Control_c, 0, 64, 0
2, 140533, Note_on_c, 0, 62, 45
2, 140536, Control_c, 0, 64, 106
2, 140596, Note_off_c, 0, 50, 51
2, 140661, Note_off_c, 0, 62, 51
2, 140740, Note_on_c, 0, 54, 46
2, 140872, Note_off_c, 0, 54, 51
2, 140946, Note_on_c, 0, 62, 48
2, 141030, Note_off_c, 0, 66, 46
2, 141058, Note_off_c, 0, 62, 52
2, 141133, Note_off_c, 0, 78, 49
2, 141136, Note_on_c, 0, 57, 48
2, 141146, Control_c, 0, 64, 0
2, 141323, Note_on_c, 0, 62, 47
2, 141323, Note_on_c, 0, 74, 39
2, 141326, Control_c, 0, 64, 106
2, 141452, Note_off_c, 0, 62, 51
2, 141468, Note_off_c, 0, 57, 52
2, 141529, Note_on_c, 0, 54, 46
2, 141529, Note_on_c, 0, 73, 42
2, 141575, Note_off_c, 0, 74, 49
2, 141659, Note_off_c, 0, 54, 51
2, 141717, Note_on_c, 0, 74, 45
2, 141719, Note_on_c, 0, 62, 45
2, 141755, Note_off_c, 0, 73, 50
2, 141801, Note_off_c, 0, 74, 51
2, 141824, Note_off_c, 0, 62, 51
2, 141906, Note_on_c, 0, 79, 72
2, 141906, Note_on_c, 0, 70, 48
2, 141906, Note_on_c, 0, 50, 44
2, 141913, Control_c, 0, 64, 0
2, 142093, Control_c, 0, 64, 106
2, 142093, Note_on_c, 0, 62, 43
2, 142196, Note_off_c, 0, 50, 51
2, 142209, Note_off_c, 0, 62, 50
2, 142281, Note_off_c, 0, 79, 58
2, 142283, Note_off_c, 0, 70, 52
2, 142285, Note_on_c, 0, 55, 42
2, 142409, Note_off_c, 0, 55, 50
2, 142470, Note_on_c, 0, 62, 41
2, 142606, Note_off_c, 0, 62, 50
2, 142660, Note_on_c, 0, 58, 40
2, 142663, Control_c, 0, 64, 0
2, 142843, Control_c, 0, 64, 106
2, 142866, Note_on_c, 0, 62, 39
2, 142866, Note_on_c, 0, 74, 36
2, 142967, Note_off_c, 0, 58, 50
2, 142987, Note_off_c, 0, 62, 49
2, 143053, Note_on_c, 0, 73, 36
2, 143056, Note_on_c, 0, 55, 38
2, 143088, Note_off_c, 0, 74, 49
2, 143176, Note_off_c, 0, 55, 49
2, 143243, Note_on_c, 0, 74, 42
2, 143243, Note_on_c, 0, 62, 37
2, 143269, Note_off_c, 0, 73, 49
2, 143344, Note_off_c, 0, 74, 50
2, 143373, Note_off_c, 0, 62, 49
2, 143447, Note_on_c, 0, 69, 48
2, 143449, Note_on_c, 0, 50, 36
2, 143453, Control_c, 0, 64, 0
2, 143633, Control_c, 0, 64, 106
2, 143653, Note_on_c, 0, 62, 36
2, 143706, Note_off_c, 0, 50, 49
2, 143790, Note_off_c, 0, 62, 49
2, 143841, Note_off_c, 0, 69, 52
2, 143843, Note_on_c, 0, 54, 37
2, 143976, Note_off_c, 0, 54, 49
2, 144047, Note_on_c, 0, 62, 38
2, 144164, Note_off_c, 0, 62, 49
2, 144237, Note_on_c, 0, 57, 39
2, 144243, Control_c, 0, 64, 0
2, 144423, Control_c, 0, 64, 106
2, 144441, Note_on_c, 0, 74, 54
2, 144443, Note_on_c, 0, 62, 40
2, 144569, Note_off_c, 0, 62, 50
2, 144596, Note_off_c, 0, 57, 49
2, 144633, Note_on_c, 0, 73, 54
2, 144633, Note_on_c, 0, 54, 42
2, 144658, Note_off_c, 0, 74, 52
2, 144747, Note_off_c, 0, 54, 50
2, 144820, Note_on_c, 0, 74, 54
2, 144822, Note_on_c, 0, 62, 43
2, 144839, Note_off_c, 0, 73, 52
2, 144904, Note_off_c, 0, 74, 52
2, 144950, Note_off_c, 0, 62, 50
2, 145007, Note_on_c, 0, 79, 78
2, 145009, Note_on_c, 0, 70, 54
2, 145009, Note_on_c, 0, 50, 44
2, 145013, Control_c, 0, 64, 0
2, 145193, Control_c, 0, 64, 106
2, 145197, Note_on_c, 0, 62, 45
2, 145300, Note_off_c, 0, 50, 51
2, 145334, Note_off_c, 0, 62, 51
2, 145384, Note_off_c, 0, 79, 58
2, 145384, Note_off_c, 0, 70, 52
2, 145386, Note_on_c, 0, 55, 46
2, 145500, Note_off_c, 0, 55, 51
2, 145573, Note_on_c, 0, 62, 48
2, 145686, Note_off_c, 0, 62, 52
2, 145761, Note_on_c, 0, 58, 48
2, 145786, Control_c, 0, 64, 0
2, 145966, Control_c, 0, 64, 106
2, 145967, Note_on_c, 0, 74, 36
2, 145969, Note_on_c, 0, 62, 47
2, 146073, Note_off_c, 0, 62, 51
2, 146157, Note_off_c, 0, 58, 52
2, 146157, Note_on_c, 0, 73, 36
2, 146159, Note_on_c, 0, 55, 46
2, 146202, Note_off_c, 0, 74, 49
2, 146291, Note_off_c, 0, 55, 51
2, 146363, Note_on_c, 0, 62, 45
2, 146363, Note_on_c, 0, 74, 38
2, 146407, Note_off_c, 0, 73, 49
2, 146464, Note_off_c, 0, 74, 49
2, 146488, Note_off_c, 0, 62, 51
2, 146550, Note_on_c, 0, 69, 64
2, 146550, Note_on_c, 0, 50, 44
2, 146560, Control_c, 0, 64, 0
2, 146740, Control_c, 0, 64, 106
2, 146757, Note_on_c, 0, 62, 43
2, 146869, Note_off_c, 0, 62, 50
2, 146894, Note_off_c, 0, 50, 51
2, 146961, Note_on_c, 0, 54, 42
2, 147094, Note_off_c, 0, 54, 50
2, 147150, Note_on_c, 0, 62, 41
2, 147299, Note_off_c, 0, 62, 50
2, 147357, Note_on_c, 0, 71, 68
2, 147357, Note_on_c, 0, 50, 40
2, 147360, Control_c, 0, 64, 0
2, 147456, Note_off_c, 0, 69, 56
2, 147540, Control_c, 0, 64, 106
2, 147544, Note_on_c, 0, 62, 39
2, 147629, Note_off_c, 0, 50, 50
2, 147651, Note_off_c, 0, 62, 49
2, 147733, Note_on_c, 0, 56, 38
2, 147857, Note_off_c, 0, 56, 49
2, 147921, Note_on_c, 0, 62, 37
2, 148035, Note_off_c, 0, 62, 49
2, 148110, Note_on_c, 0, 72, 71
2, 148110, Note_on_c, 0, 50, 36
2, 148116, Control_c, 0, 64, 0
2, 148210, Note_off_c, 0, 71, 57
2, 148296, Control_c, 0, 64, 106
2, 148297, Note_on_c, 0, 62, 36
2, 148381, Note_off_c, 0, 50, 49
2, 148410, Note_off_c, 0, 62, 49
2, 148487, Note_on_c, 0, 56, 36
2, 148612, Note_off_c, 0, 56, 49
2, 148674, Note_on_c, 0, 62, 37
2, 148795, Note_off_c, 0, 62, 49
2, 148864, Note_on_c, 0, 57, 38
2, 148870, Control_c, 0, 64, 0
2, 149050, Control_c, 0, 64, 106
2, 149051, Note_on_c, 0, 62, 39
2, 149099, Note_off_c, 0, 57, 49
2, 149163, Note_off_c, 0, 62, 49
2, 149241, Note_on_c, 0, 70, 52
2, 149243, Note_on_c, 0, 55, 40
2, 149343, Note_off_c, 0, 72, 58
2, 149361, Note_off_c, 0, 55, 50
2, 149430, Note_on_c, 0, 62, 41
2, 149514, Note_off_c, 0, 70, 53
2, 149544, Note_off_c, 0, 62, 50
2, 149601, Note_on_c, 0, 69, 53
2, 149601, Note_on_c, 0, 50, 42
2, 149610, Control_c, 0, 64, 0
2, 149790, Control_c, 0, 64, 106
2, 149807, Note_on_c, 0, 62, 42
2, 149894, Note_off_c, 0, 50, 50
2, 149934, Note_off_c, 0, 62, 50
2, 149994, Note_off_c, 0, 69, 53
2, 149997, Note_on_c, 0, 81, 55
2, 149997, Note_on_c, 0, 54, 43
2, 150126, Note_off_c, 0, 54, 50
2, 150184, Note_on_c, 0, 62, 44
2, 150320, Note_off_c, 0, 62, 51
2, 150390, Note_on_c, 0, 71, 56
2, 150390, Note_on_c, 0, 50, 45
2, 150400, Control_c, 0, 64, 0
2, 150411, Note_off_c, 0, 81, 53
2, 150577, Note_on_c, 0, 62, 46
2, 150580, Control_c, 0, 64, 106
2, 150677, Note_off_c, 0, 50, 51
2, 150704, Note_off_c, 0, 62, 51
2, 150784, Note_on_c, 0, 83, 57
2, 150786, Note_on_c, 0, 56, 47
2, 150832, Note_off_c, 0, 71, 54
2, 150918, Note_off_c, 0, 56, 51
2, 150988, Note_on_c, 0, 62, 48
2, 151122, Note_off_c, 0, 62, 52
2, 151176, Note_off_c, 0, 83, 54
2, 151177, Note_on_c, 0, 72, 59
2, 151180, Note_on_c, 0, 50, 48
2, 151190, Control_c, 0, 64, 0
2, 151370, Control_c, 0, 64, 106
2, 151384, Note_on_c, 0, 62, 46
2, 151504, Note_off_c, 0, 50, 52
2, 151545, Note_off_c, 0, 62, 51
2, 151607, Note_on_c, 0, 84, 74
2, 151607, Note_on_c, 0, 56, 44
2, 151693, Note_off_c, 0, 72, 54
2, 151738, Note_off_c, 0, 56, 51
2, 151794, Note_on_c, 0, 62, 42
2, 151923, Note_off_c, 0, 62, 50
2, 152001, Note_on_c, 0, 57, 40
2, 152003, Control_c, 0, 64, 0
2, 152183, Control_c, 0, 64, 106
2, 152188, Note_on_c, 0, 62, 38
2, 152292, Note_off_c, 0, 57, 50
2, 152312, Note_off_c, 0, 62, 49
2, 152377, Note_on_c, 0, 70, 48
2, 152380, Note_on_c, 0, 55, 36
2, 152496, Note_off_c, 0, 84, 59
2, 152518, Note_off_c, 0, 55, 49
2, 152565, Note_on_c, 0, 62, 36
2, 152668, Note_off_c, 0, 70, 52
2, 152686, Note_off_c, 0, 62, 49
2, 152754, Note_on_c, 0, 69, 48
2, 152754, Note_on_c, 0, 50, 36
2, 152760, Control_c, 0, 64, 0
2, 152940, Control_c, 0, 64, 106
2, 152944, Note_on_c, 0, 62, 37
2, 152979, Note_off_c, 0, 50, 49
2, 153072, Note_off_c, 0, 62, 49
2, 153131, Note_on_c, 0, 81, 50
2, 153133, Note_on_c, 0, 54, 39
2, 153138, Note_off_c, 0, 69, 52
2, 153256, Note_off_c, 0, 54, 49
2, 153321, Note_on_c, 0, 62, 40
2, 153436, Note_off_c, 0, 62, 50
2, 153510, Note_on_c, 0, 71, 53
2, 153510, Note_on_c, 0, 50, 42
2, 153516, Control_c, 0, 64, 0
2, 153533, Note_off_c, 0, 81, 52
2, 153696, Control_c, 0, 64, 106
2, 153714, Note_on_c, 0, 62, 43
2, 153830, Note_off_c, 0, 62, 50
2, 153859, Note_off_c, 0, 50, 50
2, 153904, Note_on_c, 0, 83, 56
2, 153904, Note_on_c, 0, 56, 45
2, 153917, Note_off_c, 0, 71, 53
2, 154033, Note_off_c, 0, 56, 51
2, 154091, Note_on_c, 0, 62, 46
2, 154212, Note_off_c, 0, 62, 51
2, 154297, Note_on_c, 0, 72, 58
2, 154300, Note_on_c, 0, 50, 48
2, 154348, Note_on_c, 0, 57, 48
2, 154371, Note_off_c, 0, 83, 54
2, 154415, Note_on_c, 0, 62, 48
2, 154420, Control_c, 0, 64, 0
2, 154600, Control_c, 0, 64, 106
2, 154674, Note_on_c, 0, 84, 60
2, 154717, Note_off_c, 0, 72, 54
2, 155085, Note_off_c, 0, 50, 52
2, 155087, Note_off_c, 0, 62, 52
2, 155087, Note_off_c, 0, 57, 52
2, 155087, Note_on_c, 0, 73, 60
2, 155173, Note_off_c, 0, 84, 55
2, 155478, Note_on_c, 0, 85, 54
2, 155554, Note_off_c, 0, 73, 55
2, 155646, Control_c, 0, 64, 0
2, 155705, Note_off_c, 0, 85, 53
2, 155826, Control_c, 0, 64, 106
2, 155874, Note_on_c, 0, 74, 48
2, 156258, Note_on_c, 0, 67, 50
2, 156268, Note_on_c, 0, 62, 48
2, 156270, Note_on_c, 0, 58, 42
2, 156307, Note_off_c, 0, 74, 52
2, 156637, Note_on_c, 0, 66, 38
2, 156647, Note_on_c, 0, 60, 48
2, 156649, Note_on_c, 0, 57, 42
2, 156656, Control_c, 0, 64, 0
2, 156673, Note_off_c, 0, 67, 52
2, 156699, Note_off_c, 0, 62, 52
2, 156701, Note_off_c, 0, 58, 50
2, 156836, Control_c, 0, 64, 106
2, 157031, Note_on_c, 0, 67, 44
2, 157043, Note_on_c, 0, 58, 42
2, 157043, Note_on_c, 0, 55, 36
2, 157065, Note_off_c, 0, 66, 49
2, 157094, Note_off_c, 0, 57, 50
2, 157095, Note_off_c, 0, 60, 52
2, 157254, Note_off_c, 0, 67, 51
2, 157267, Note_off_c, 0, 55, 49
2, 157300, Note_off_c, 0, 58, 50
2, 157422, Note_on_c, 0, 72, 50
2, 157434, Note_on_c, 0, 62, 48
2, 157434, Note_on_c, 0, 57, 36
2, 157434, Note_on_c, 0, 54, 30
2, 157446, Control_c, 0, 64, 0
2, 157626, Control_c, 0, 64, 106
2, 157710, Note_off_c, 0, 54, 47
2, 157845, Note_on_c, 0, 54, 36
2, 157845, Note_on_c, 0, 50, 30
2, 157896, Note_off_c, 0, 57, 49
2, 158221, Note_on_c, 0, 55, 39
2, 158224, Note_on_c, 0, 52, 33
2, 158236, Control_c, 0, 64, 0
2, 158249, Note_off_c, 0, 54, 49
2, 158270, Note_off_c, 0, 50, 47
2, 158416, Control_c, 0, 64, 106
2, 158598, Note_on_c, 0, 57, 42
2, 158601, Note_on_c, 0, 54, 36
2, 158612, Note_off_c, 0, 55, 49
2, 158642, Note_off_c, 0, 52, 48
2, 158844, Note_off_c, 0, 57, 50
2, 158849, Note_off_c, 0, 54, 49
2, 158886, Note_off_c, 0, 72, 52
2, 158896, Note_off_c, 0, 62, 52
2, 158967, Note_on_c, 0, 70, 53
2, 158977, Note_on_c, 0, 58, 45
2, 158980, Note_on_c, 0, 55, 39
2, 158986, Control_c, 0, 64, 0
2, 159166, Control_c, 0, 64, 106
2, 159255, Note_off_c, 0, 58, 51
2, 159342, Note_on_c, 0, 67, 47
2, 159352, Note_on_c, 0, 62, 48
2, 159354, Note_on_c, 0, 58, 42
2, 159362, Note_off_c, 0, 70, 53
2, 159390, Note_off_c, 0, 55, 49
2, 159738, Note_on_c, 0, 66, 41
2, 159750, Note_on_c, 0, 60, 48
2, 159750, Note_on_c, 0, 57, 42
2, 159756, Control_c, 0, 64, 0
2, 159788, Note_off_c, 0, 67, 51
2, 159811, Note_off_c, 0, 62, 52
2, 159822, Note_off_c, 0, 58, 50
2, 159936, Control_c, 0, 64, 106
2, 160134, Note_on_c, 0, 67, 47
2, 160144, Note_on_c, 0, 58, 42
2, 160144, Note_on_c, 0, 55, 36
2, 160195, Note_off_c, 0, 60, 52
2, 160196, Note_off_c, 0, 57, 50
2, 160203, Note_off_c, 0, 66, 50
2, 160422, Note_off_c, 0, 67, 51
2, 160432, Note_off_c, 0, 58, 50
2, 160434, Note_off_c, 0, 55, 49
2, 160535, Note_on_c, 0, 75, 77
2, 160537, Note_on_c, 0, 48, 47
2, 160545, Note_on_c, 0, 67, 62
2, 160546, Control_c, 0, 64, 0
2, 160726, Control_c, 0, 64, 106
2, 160870, Note_off_c, 0, 48, 51
2, 160945, Note_on_c, 0, 51, 36
2, 161247, Note_off_c, 0, 51, 49
2, 161325, Note_on_c, 0, 55, 40
2, 161641, Note_off_c, 0, 55, 50
2, 161718, Note_on_c, 0, 60, 44
2, 161936, Note_off_c, 0, 67, 55
2, 162016, Note_off_c, 0, 75, 59
2, 162020, Note_off_c, 0, 60, 51
2, 162097, Note_on_c, 0, 58, 48
2, 162097, Note_on_c, 0, 74, 42
2, 162103, Control_c, 0, 64, 0
2, 162283, Control_c, 0, 64, 106
2, 162336, Note_off_c, 0, 74, 50
2, 162472, Note_on_c, 0, 78, 42
2, 162865, Note_off_c, 0, 58, 52
2, 162868, Note_on_c, 0, 79, 54
2, 162923, Note_off_c, 0, 78, 50
2, 163103, Note_off_c, 0, 79, 53
2, 163249, Note_on_c, 0, 74, 42
2, 163261, Note_on_c, 0, 62, 24
2, 163271, Note_on_c, 0, 58, 30
2, 163276, Control_c, 0, 64, 0
2, 163456, Control_c, 0, 64, 106
2, 163487, Note_off_c, 0, 62, 46
2, 163556, Note_off_c, 0, 58, 47
2, 163643, Note_on_c, 0, 72, 42
2, 163655, Note_on_c, 0, 62, 24
2, 163665, Note_on_c, 0, 54, 30
2, 163673, Control_c, 0, 64, 0
2, 163700, Note_off_c, 0, 74, 50
2, 163853, Control_c, 0, 64, 106
2, 163896, Note_off_c, 0, 72, 50
2, 164049, Note_on_c, 0, 80, 48
2, 164205, Note_off_c, 0, 54, 47
2, 164262, Note_off_c, 0, 62, 46
2, 164428, Note_on_c, 0, 81, 54
2, 164496, Note_off_c, 0, 80, 52
2, 164690, Note_off_c, 0, 81, 53
2, 164826, Note_on_c, 0, 72, 42
2, 164838, Note_on_c, 0, 62, 28
2, 164848, Note_on_c, 0, 54, 34
2, 164850, Control_c, 0, 64, 0
2, 165030, Control_c, 0, 64, 106
2, 165091, Note_off_c, 0, 54, 48
2, 165100, Note_off_c, 0, 62, 47
2, 165219, Note_on_c, 0, 70, 42
2, 165232, Note_on_c, 0, 62, 30
2, 165242, Note_on_c, 0, 55, 36
2, 165248, Note_off_c, 0, 72, 50
2, 165250, Control_c, 0, 64, 0
2, 165430, Control_c, 0, 64, 106
2, 165599, Note_on_c, 0, 79, 60
2, 165623, Note_off_c, 0, 70, 50
2, 165771, Note_off_c, 0, 55, 49
2, 165907, Note_off_c, 0, 62, 47
2, 165995, Note_on_c, 0, 69, 54
2, 166005, Note_on_c, 0, 60, 33
2, 166007, Note_on_c, 0, 48, 39
2, 166010, Control_c, 0, 64, 0
2, 166044, Note_off_c, 0, 79, 55
2, 166190, Control_c, 0, 64, 106
2, 166415, Note_on_c, 0, 75, 48
2, 166473, Note_off_c, 0, 69, 53
2, 166669, Note_off_c, 0, 75, 52
2, 166669, Note_off_c, 0, 48, 49
2, 166673, Note_off_c, 0, 60, 48
2, 166818, Note_on_c, 0, 67, 50
2, 166828, Note_on_c, 0, 58, 36
2, 166838, Note_on_c, 0, 50, 42
2, 166850, Control_c, 0, 64, 0
2, 167030, Control_c, 0, 64, 106
2, 167386, Note_off_c, 0, 50, 50
2, 167449, Note_off_c, 0, 67, 52
2, 167479, Note_on_c, 0, 69, 48
2, 167481, Note_off_c, 0, 58, 49
2, 167582, Note_on_c, 0, 67, 48
2, 167616, Note_off_c, 0, 69, 52
2, 167646, Note_on_c, 0, 66, 36
2, 167649, Note_on_c, 0, 57, 39
2, 167649, Note_on_c, 0, 50, 30
2, 167669, Note_off_c, 0, 67, 52
2, 167683, Control_c, 0, 64, 0
2, 167863, Control_c, 0, 64, 106
2, 167939, Note_off_c, 0, 50, 47
2, 167939, Note_off_c, 0, 57, 49
2, 167939, Note_off_c, 0, 66, 49
2, 168023, Note_on_c, 0, 62, 40
2, 168150, Control_c, 0, 64, 0
2, 168419, Note_off_c, 0, 62, 50
2, 168419, Note_on_c, 0, 70, 42
2, 168440, Control_c, 0, 64, 120
2, 168606, Note_on_c, 0, 74, 39
2, 168798, Note_on_c, 0, 82, 42
2, 168798, Note_on_c, 0, 67, 43
2, 168830, Note_off_c, 0, 70, 50
2, 168834, Note_off_c, 0, 74, 49
2, 169002, Note_on_c, 0, 74, 45
2, 169035, Note_off_c, 0, 82, 50
2, 169192, Note_on_c, 0, 81, 48
2, 169192, Note_on_c, 0, 72, 42
2, 169194, Note_on_c, 0, 66, 45
2, 169229, Note_off_c, 0, 74, 51
2, 169275, Note_off_c, 0, 67, 50
2, 169398, Note_on_c, 0, 74, 48
2, 169421, Note_off_c, 0, 72, 50
2, 169460, Note_off_c, 0, 81, 52
2, 169585, Note_on_c, 0, 79, 44
2, 169588, Note_on_c, 0, 67, 46
2, 169588, Note_on_c, 0, 70, 38
2, 169618, Note_off_c, 0, 74, 52
2, 169649, Note_off_c, 0, 66, 51
2, 169792, Note_on_c, 0, 74, 40
2, 169815, Note_off_c, 0, 79, 51
2, 169819, Note_off_c, 0, 67, 51
2, 169825, Note_off_c, 0, 70, 49
2, 169840, Control_c, 0, 64, 0
2, 169919, Note_off_c, 0, 74, 50
2, 169996, Note_on_c, 0, 62, 60
2, 169996, Note_on_c, 0, 78, 36
2, 169996, Note_on_c, 0, 72, 38
2, 170060, Control_c, 0, 64, 120
2, 170185, Note_on_c, 0, 74, 36
2, 170206, Note_off_c, 0, 78, 49
2, 170373, Note_on_c, 0, 73, 38
2, 170409, Note_off_c, 0, 74, 49
2, 170562, Note_on_c, 0, 74, 40
2, 170597, Note_off_c, 0, 73, 49
2, 170749, Note_on_c, 0, 76, 42
2, 170782, Note_off_c, 0, 74, 50
2, 170939, Note_on_c, 0, 78, 44
2, 170953, Note_off_c, 0, 76, 50
2, 171145, Note_on_c, 0, 79, 46
2, 171184, Note_off_c, 0, 78, 51
2, 171333, Note_on_c, 0, 81, 48
2, 171375, Note_off_c, 0, 79, 51
2, 171380, Control_c, 0, 64, 0
2, 171445, Note_off_c, 0, 62, 55
2, 171486, Note_off_c, 0, 81, 52
2, 171537, Note_off_c, 0, 72, 49
2, 171539, Note_on_c, 0, 82, 36
2, 171541, Note_on_c, 0, 70, 48
2, 171600, Control_c, 0, 64, 120
2, 171726, Note_on_c, 0, 74, 36
2, 171746, Note_off_c, 0, 82, 49
2, 171916, Note_on_c, 0, 86, 40
2, 171918, Note_on_c, 0, 67, 51
2, 171918, Note_on_c, 0, 82, 34
2, 171953, Note_off_c, 0, 74, 49
2, 171983, Note_off_c, 0, 70, 52
2, 172105, Note_on_c, 0, 74, 44
2, 172117, Note_off_c, 0, 82, 48
2, 172137, Note_off_c, 0, 86, 50
2, 172309, Note_on_c, 0, 84, 48
2, 172312, Note_on_c, 0, 66, 54
2, 172312, Note_on_c, 0, 81, 42
2, 172330, Note_off_c, 0, 67, 52
2, 172361, Note_off_c, 0, 74, 51
2, 172499, Note_on_c, 0, 74, 48
2, 172502, Note_off_c, 0, 84, 52
2, 172539, Note_off_c, 0, 81, 50
2, 172705, Note_on_c, 0, 82, 44
2, 172705, Note_on_c, 0, 79, 38
2, 172708, Note_on_c, 0, 67, 57
2, 172746, Note_off_c, 0, 74, 52
2, 172803, Note_off_c, 0, 66, 53
2, 172893, Note_on_c, 0, 74, 40
2, 172917, Note_off_c, 0, 67, 54
2, 172934, Note_off_c, 0, 79, 49
2, 172934, Note_off_c, 0, 82, 51
2, 173010, Note_off_c, 0, 74, 50
2, 173033, Control_c, 0, 64, 0
2, 173097, Note_on_c, 0, 81, 36
2, 173099, Note_on_c, 0, 65, 60
2, 173099, Note_on_c, 0, 75, 52
2, 173213, Control_c, 0, 64, 120
2, 173286, Note_on_c, 0, 77, 36
2, 173318, Note_off_c, 0, 81, 49
2, 173476, Note_on_c, 0, 76, 37
2, 173521, Note_off_c, 0, 77, 49
2, 173663, Note_on_c, 0, 77, 39
2, 173701, Note_off_c, 0, 76, 49
2, 173869, Note_on_c, 0, 79, 41
2, 173888, Note_off_c, 0, 77, 49
2, 174057, Note_on_c, 0, 81, 42
2, 174104, Note_off_c, 0, 79, 50
2, 174246, Note_on_c, 0, 82, 44
2, 174283, Note_off_c, 0, 81, 50
2, 174405, Note_off_c, 0, 65, 55
2, 174453, Note_on_c, 0, 84, 46
2, 174509, Note_off_c, 0, 82, 51
2, 174553, Control_c, 0, 64, 0
2, 174606, Note_off_c, 0, 84, 51
2, 174640, Note_off_c, 0, 75, 53
2, 174642, Note_on_c, 0, 86, 48
2, 174642, Note_on_c, 0, 74, 36
2, 174642, Note_on_c, 0, 70, 30
2, 174773, Control_c, 0, 64, 120
2, 174827, Note_off_c, 0, 86, 52
2, 174829, Note_on_c, 0, 77, 48
2, 174926, Note_off_c, 0, 70, 47
2, 174956, Note_off_c, 0, 74, 49
2, 175033, Note_on_c, 0, 89, 41
2, 175036, Note_on_c, 0, 86, 36
2, 175036, Note_on_c, 0, 70, 31
2, 175037, Note_off_c, 0, 77, 52
2, 175225, Note_on_c, 0, 77, 43
2, 175260, Note_off_c, 0, 89, 50
2, 175260, Note_off_c, 0, 86, 49
2, 175413, Note_on_c, 0, 87, 45
2, 175415, Note_on_c, 0, 84, 40
2, 175415, Note_on_c, 0, 69, 36
2, 175447, Note_off_c, 0, 77, 50
2, 175496, Note_off_c, 0, 70, 47
2, 175602, Note_on_c, 0, 77, 48
2, 175637, Note_off_c, 0, 84, 50
2, 175637, Note_off_c, 0, 87, 51
2, 175806, Note_on_c, 0, 86, 50
2, 175809, Note_on_c, 0, 82, 45
2, 175809, Note_on_c, 0, 70, 41
2, 175841, Note_off_c, 0, 77, 52
2, 175883, Note_off_c, 0, 69, 49
2, 175996, Note_on_c, 0, 77, 53
2, 176030, Note_off_c, 0, 82, 51
2, 176030, Note_off_c, 0, 86, 52
2, 176058, Note_off_c, 0, 70, 50
2, 176133, Control_c, 0, 64, 0
2, 176184, Note_off_c, 0, 77, 53
2, 176200, Note_on_c, 0, 84, 57
2, 176200, Note_on_c, 0, 81, 51
2, 176202, Note_on_c, 0, 66, 46
2, 176313, Control_c, 0, 64, 120
2, 176389, Note_on_c, 0, 74, 60
2, 176424, Note_off_c, 0, 84, 54
2, 176426, Note_off_c, 0, 81, 52
2, 176579, Note_on_c, 0, 82, 62
2, 176579, Note_on_c, 0, 79, 56
2, 176581, Note_on_c, 0, 67, 51
2, 176614, Note_off_c, 0, 74, 55
2, 176656, Note_off_c, 0, 66, 51
2, 176766, Note_on_c, 0, 74, 66
2, 176801, Note_off_c, 0, 82, 55
2, 176802, Note_off_c, 0, 67, 52
2, 176803, Note_off_c, 0, 79, 54
2, 176940, Control_c, 0, 64, 0
2, 176970, Note_on_c, 0, 81, 69
2, 176973, Note_on_c, 0, 78, 63
2, 176973, Note_on_c, 0, 62, 56
2, 177007, Note_off_c, 0, 74, 56
2, 177120, Control_c, 0, 64, 120
2, 177162, Note_on_c, 0, 72, 71
2, 177197, Note_off_c, 0, 81, 57
2, 177197, Note_off_c, 0, 78, 55
2, 177366, Note_on_c, 0, 79, 75
2, 177369, Note_on_c, 0, 63, 62
2, 177401, Note_off_c, 0, 72, 58
2, 177443, Note_off_c, 0, 62, 54
2, 177570, Note_on_c, 0, 70, 79
2, 177601, Note_off_c, 0, 63, 55
2, 177607, Note_off_c, 0, 79, 59
2, 177707, Note_off_c, 0, 70, 60
2, 177760, Note_on_c, 0, 60, 69
2, 177766, Control_c, 0, 64, 0
2, 177946, Control_c, 0, 64, 120
2, 177947, Note_on_c, 0, 69, 84
2, 178137, Note_on_c, 0, 75, 86
2, 178176, Note_off_c, 0, 69, 61
2, 178343, Note_on_c, 0, 74, 83
2, 178366, Note_off_c, 0, 75, 61
2, 178530, Note_on_c, 0, 72, 80
2, 178565, Note_off_c, 0, 74, 60
2, 178720, Note_on_c, 0, 70, 77
2, 178758, Note_off_c, 0, 72, 60
2, 178856, Note_off_c, 0, 60, 57
2, 178926, Note_on_c, 0, 69, 74
2, 178926, Note_on_c, 0, 61, 66
2, 178930, Control_c, 0, 64, 0
2, 178983, Note_off_c, 0, 70, 59
2, 179110, Control_c, 0, 64, 120
2, 179113, Note_on_c, 0, 67, 72
2, 179147, Note_off_c, 0, 69, 59
2, 179247, Note_off_c, 0, 61, 56
2, 179267, Note_off_c, 0, 67, 58
2, 179320, Note_on_c, 0, 66, 48
2, 179320, Note_on_c, 0, 62, 36
2, 179330, Control_c, 0, 64, 0
2, 179507, Note_on_c, 0, 67, 48
2, 179510, Control_c, 0, 64, 120
2, 179542, Note_off_c, 0, 66, 52
2, 179697, Note_off_c, 0, 62, 49
2, 179697, Note_on_c, 0, 69, 50
2, 179764, Note_off_c, 0, 67, 52
2, 179886, Note_on_c, 0, 68, 52
2, 179913, Note_off_c, 0, 69, 52
2, 180073, Note_on_c, 0, 69, 55
2, 180125, Note_off_c, 0, 68, 53
2, 180263, Note_on_c, 0, 71, 57
2, 180277, Note_off_c, 0, 69, 53
2, 180450, Note_on_c, 0, 72, 60
2, 180504, Note_off_c, 0, 71, 54
2, 180640, Note_on_c, 0, 71, 48
2, 180680, Note_off_c, 0, 72, 55
2, 180774, Note_off_c, 0, 71, 52
2, 180827, Note_on_c, 0, 72, 60
2, 180827, Note_on_c, 0, 54, 36
2, 180833, Control_c, 0, 64, 0
2, 181013, Control_c, 0, 64, 120
2, 181017, Note_on_c, 0, 62, 36
2, 181160, Note_off_c, 0, 62, 49
2, 181195, Note_off_c, 0, 54, 49
2, 181206, Note_on_c, 0, 66, 48
2, 181206, Note_on_c, 0, 57, 37
2, 181270, Note_off_c, 0, 72, 55
2, 181364, Note_off_c, 0, 57, 49
2, 181410, Note_on_c, 0, 62, 38
2, 181494, Note_off_c, 0, 66, 52
2, 181564, Note_off_c, 0, 62, 49
2, 181600, Note_on_c, 0, 66, 48
2, 181600, Note_on_c, 0, 60, 39
2, 181610, Control_c, 0, 64, 0
2, 181753, Note_off_c, 0, 66, 52
2, 181787, Note_on_c, 0, 62, 40
2, 181790, Control_c, 0, 64, 120
2, 181946, Note_off_c, 0, 60, 49
2, 181948, Note_off_c, 0, 62, 50
2, 181993, Note_on_c, 0, 66, 54
2, 181993, Note_on_c, 0, 57, 41
2, 182128, Note_off_c, 0, 66, 53
2, 182167, Note_off_c, 0, 57, 50
2, 182200, Note_on_c, 0, 62, 42
2, 182340, Note_off_c, 0, 62, 50
2, 182387, Note_on_c, 0, 67, 60
2, 182387, Note_on_c, 0, 58, 43
2, 182396, Control_c, 0, 64, 0
2, 182576, Control_c, 0, 64, 120
2, 182591, Note_off_c, 0, 67, 55
2, 182593, Note_on_c, 0, 69, 60
2, 182596, Note_on_c, 0, 62, 44
2, 182661, Note_off_c, 0, 69, 55
2, 182661, Note_on_c, 0, 67, 60
2, 182730, Note_off_c, 0, 67, 55
2, 182730, Note_on_c, 0, 66, 59
2, 182747, Note_off_c, 0, 62, 51
2, 182781, Note_off_c, 0, 66, 54
2, 182783, Note_on_c, 0, 67, 58
2, 182783, Note_on_c, 0, 55, 45
2, 182812, Note_off_c, 0, 58, 50
2, 182936, Note_off_c, 0, 55, 51
2, 182989, Note_on_c, 0, 70, 56
2, 182989, Note_on_c, 0, 62, 46
2, 183003, Note_off_c, 0, 67, 54
2, 183127, Note_off_c, 0, 62, 51
2, 183177, Note_on_c, 0, 74, 53
2, 183179, Note_on_c, 0, 58, 47
2, 183190, Note_off_c, 0, 70, 54
2, 183190, Control_c, 0, 64, 0
2, 183364, Note_on_c, 0, 62, 48
2, 183370, Control_c, 0, 64, 120
2, 183467, Note_off_c, 0, 74, 53
2, 183504, Note_off_c, 0, 62, 52
2, 183552, Note_off_c, 0, 58, 51
2, 183553, Note_on_c, 0, 55, 48
2, 183553, Note_on_c, 0, 74, 48
2, 183705, Note_off_c, 0, 55, 52
2, 183741, Note_on_c, 0, 62, 47
2, 183906, Note_off_c, 0, 62, 51
2, 183928, Note_off_c, 0, 74, 52
2, 183930, Note_on_c, 0, 84, 60
2, 183933, Note_on_c, 0, 54, 46
2, 183940, Control_c, 0, 64, 0
2, 184120, Control_c, 0, 64, 120
2, 184137, Note_on_c, 0, 62, 45
2, 184275, Note_off_c, 0, 62, 51
2, 184324, Note_on_c, 0, 78, 57
2, 184326, Note_on_c, 0, 57, 44
2, 184352, Note_off_c, 0, 54, 51
2, 184376, Note_off_c, 0, 84, 55
2, 184473, Note_off_c, 0, 57, 51
2, 184513, Note_on_c, 0, 62, 42
2, 184614, Note_off_c, 0, 78, 54
2, 184677, Note_off_c, 0, 62, 50
2, 184717, Note_on_c, 0, 78, 51
2, 184720, Note_on_c, 0, 60, 41
2, 184730, Control_c, 0, 64, 0
2, 184852, Note_off_c, 0, 78, 52
2, 184907, Note_on_c, 0, 62, 40
2, 184910, Control_c, 0, 64, 120
2, 185081, Note_off_c, 0, 62, 50
2, 185113, Note_on_c, 0, 78, 48
2, 185113, Note_on_c, 0, 57, 39
2, 185123, Note_off_c, 0, 60, 50
2, 185240, Note_off_c, 0, 78, 52
2, 185269, Note_off_c, 0, 57, 49
2, 185301, Note_on_c, 0, 62, 38
2, 185452, Note_off_c, 0, 62, 49
2, 185507, Note_on_c, 0, 79, 48
2, 185507, Note_on_c, 0, 58, 36
2, 185510, Control_c, 0, 64, 0
2, 185690, Control_c, 0, 64, 120
2, 185711, Note_off_c, 0, 79, 52
2, 185713, Note_on_c, 0, 81, 52
2, 185713, Note_on_c, 0, 62, 36
2, 185764, Note_off_c, 0, 81, 53
2, 185764, Note_on_c, 0, 79, 53
2, 185831, Note_off_c, 0, 79, 53
2, 185833, Note_on_c, 0, 78, 54
2, 185849, Note_off_c, 0, 62, 49
2, 185854, Note_off_c, 0, 58, 49
2, 185901, Note_off_c, 0, 78, 53
2, 185901, Note_on_c, 0, 79, 56
2, 185903, Note_on_c, 0, 55, 37
2, 186067, Note_off_c, 0, 55, 49
2, 186090, Note_on_c, 0, 82, 60
2, 186090, Note_on_c, 0, 62, 38
2, 186136, Note_off_c, 0, 79, 54
2, 186258, Note_off_c, 0, 62, 49
2, 186283, Control_c, 0, 64, 0
2, 186297, Note_on_c, 0, 86, 60
2, 186297, Note_on_c, 0, 58, 39
2, 186336, Note_off_c, 0, 82, 55
2, 186441, Note_off_c, 0, 86, 55
2, 186463, Control_c, 0, 64, 120
2, 186484, Note_on_c, 0, 62, 40
2, 186613, Note_off_c, 0, 58, 49
2, 186629, Note_off_c, 0, 62, 50
2, 186671, Note_on_c, 0, 62, 60
2, 186671, Note_on_c, 0, 55, 42
2, 186790, Note_off_c, 0, 62, 55
2, 186861, Note_off_c, 0, 55, 50
2, 186876, Note_on_c, 0, 62, 43
2, 187026, Note_off_c, 0, 62, 50
2, 187065, Note_on_c, 0, 72, 60
2, 187065, Note_on_c, 0, 54, 44
2, 187073, Control_c, 0, 64, 0
2, 187252, Note_on_c, 0, 62, 45
2, 187253, Control_c, 0, 64, 120
2, 187384, Note_off_c, 0, 54, 51
2, 187411, Note_off_c, 0, 62, 51
2, 187442, Note_on_c, 0, 66, 48
2, 187444, Note_on_c, 0, 57, 46
2, 187525, Note_off_c, 0, 72, 55
2, 187606, Note_off_c, 0, 57, 51
2, 187646, Note_on_c, 0, 62, 48
2, 187732, Note_off_c, 0, 66, 52
2, 187790, Note_off_c, 0, 62, 52
2, 187836, Note_on_c, 0, 60, 48
2, 187836, Note_on_c, 0, 66, 51
2, 187843, Control_c, 0, 64, 0
2, 187997, Note_off_c, 0, 66, 52
2, 188023, Control_c, 0, 64, 120
2, 188042, Note_on_c, 0, 62, 47
2, 188183, Note_off_c, 0, 62, 51
2, 188229, Note_on_c, 0, 66, 57
2, 188229, Note_on_c, 0, 57, 46
2, 188246, Note_off_c, 0, 60, 52
2, 188371, Note_off_c, 0, 66, 54
2, 188403, Note_off_c, 0, 57, 51
2, 188436, Note_on_c, 0, 62, 45
2, 188586, Note_off_c, 0, 62, 51
2, 188623, Note_on_c, 0, 67, 60
2, 188625, Note_on_c, 0, 58, 44
2, 188633, Control_c, 0, 64, 0
2, 188813, Control_c, 0, 64, 120
2, 188829, Note_off_c, 0, 67, 55
2, 188832, Note_on_c, 0, 69, 60
2, 188832, Note_on_c, 0, 62, 42
2, 188899, Note_on_c, 0, 67, 58
2, 188910, Note_off_c, 0, 69, 55
2, 188966, Note_off_c, 0, 67, 54
2, 188966, Note_on_c, 0, 66, 56
2, 188979, Note_off_c, 0, 62, 50
2, 189018, Note_off_c, 0, 58, 51
2, 189019, Note_on_c, 0, 67, 54
2, 189019, Note_on_c, 0, 55, 41
2, 189070, Note_off_c, 0, 66, 54
2, 189174, Note_off_c, 0, 55, 50
2, 189225, Note_on_c, 0, 69, 48
2, 189225, Note_on_c, 0, 62, 40
2, 189256, Note_off_c, 0, 67, 53
2, 189372, Note_off_c, 0, 62, 50
2, 189412, Note_on_c, 0, 71, 48
2, 189415, Note_on_c, 0, 53, 39
2, 189439, Note_off_c, 0, 69, 52
2, 189460, Control_c, 0, 64, 0
2, 189602, Note_on_c, 0, 67, 49
2, 189602, Note_on_c, 0, 62, 38
2, 189634, Note_off_c, 0, 71, 52
2, 189640, Control_c, 0, 64, 120
2, 189723, Note_off_c, 0, 53, 49
2, 189740, Note_off_c, 0, 62, 49
2, 189789, Note_on_c, 0, 69, 50
2, 189792, Note_on_c, 0, 55, 36
2, 189829, Note_off_c, 0, 67, 52
2, 189933, Note_off_c, 0, 55, 49
2, 189979, Note_on_c, 0, 71, 52
2, 189979, Note_on_c, 0, 62, 36
2, 189996, Note_off_c, 0, 69, 52
2, 190113, Note_off_c, 0, 71, 53
2, 190140, Note_off_c, 0, 62, 49
2, 190166, Note_on_c, 0, 72, 53
2, 190166, Note_on_c, 0, 51, 36
2, 190176, Control_c, 0, 64, 0
2, 190353, Note_off_c, 0, 72, 53
2, 190356, Note_on_c, 0, 74, 54
2, 190356, Note_on_c, 0, 60, 36
2, 190356, Control_c, 0, 64, 120
2, 190423, Note_on_c, 0, 72, 55
2, 190430, Note_off_c, 0, 74, 53
2, 190473, Note_off_c, 0, 72, 53
2, 190476, Note_on_c, 0, 71, 55
2, 190517, Note_off_c, 0, 60, 49
2, 190521, Note_off_c, 0, 51, 49
2, 190545, Note_on_c, 0, 72, 56
2, 190545, Note_on_c, 0, 55, 37
2, 190590, Note_off_c, 0, 71, 53
2, 190706, Note_off_c, 0, 55, 49
2, 190732, Note_on_c, 0, 74, 57
2, 190735, Note_on_c, 0, 60, 37
2, 190779, Note_off_c, 0, 72, 54
2, 190870, Note_off_c, 0, 60, 49
2, 190922, Note_on_c, 0, 75, 58
2, 190922, Note_on_c, 0, 48, 38
2, 190926, Control_c, 0, 64, 0
2, 190961, Note_off_c, 0, 74, 54
2, 191106, Control_c, 0, 64, 120
2, 191109, Note_on_c, 0, 77, 60
2, 191112, Note_on_c, 0, 55, 39
2, 191142, Note_off_c, 0, 75, 54
2, 191252, Note_off_c, 0, 55, 49
2, 191255, Note_off_c, 0, 48, 49
2, 191299, Note_on_c, 0, 79, 60
2, 191299, Note_on_c, 0, 51, 39
2, 191328, Note_off_c, 0, 77, 55
2, 191436, Note_off_c, 0, 51, 49
2, 191486, Note_on_c, 0, 75, 60
2, 191488, Note_on_c, 0, 55, 40
2, 191516, Note_off_c, 0, 79, 55
2, 191602, Note_off_c, 0, 75, 55
2, 191629, Note_off_c, 0, 55, 50
2, 191673, Note_on_c, 0, 74, 59
2, 191676, Note_on_c, 0, 46, 41
2, 191680, Control_c, 0, 64, 0
2, 191860, Control_c, 0, 64, 120
2, 191863, Note_on_c, 0, 55, 41
2, 192003, Note_off_c, 0, 46, 50
2, 192023, Note_off_c, 0, 55, 50
2, 192052, Note_on_c, 0, 75, 56
2, 192052, Note_on_c, 0, 50, 42
2, 192086, Note_off_c, 0, 74, 54
2, 192195, Note_off_c, 0, 50, 50
2, 192242, Note_on_c, 0, 74, 55
2, 192242, Note_on_c, 0, 55, 42
2, 192289, Note_off_c, 0, 75, 54
2, 192385, Note_off_c, 0, 55, 50
2, 192429, Note_on_c, 0, 77, 54
2, 192432, Note_on_c, 0, 48, 43
2, 192436, Control_c, 0, 64, 0
2, 192468, Note_off_c, 0, 74, 53
2, 192616, Control_c, 0, 64, 120
2, 192619, Note_on_c, 0, 75, 52
2, 192619, Note_on_c, 0, 57, 44
2, 192643, Note_off_c, 0, 77, 53
2, 192784, Note_off_c, 0, 57, 51
2, 192806, Note_off_c, 0, 48, 50
2, 192823, Note_on_c, 0, 74, 51
2, 192825, Note_on_c, 0, 51, 44
2, 192882, Note_off_c, 0, 75, 53
2, 192982, Note_off_c, 0, 51, 51
2, 193012, Note_on_c, 0, 72, 50
2, 193012, Note_on_c, 0, 57, 45
2, 193051, Note_off_c, 0, 74, 52
2, 193147, Note_off_c, 0, 72, 52
2, 193163, Note_off_c, 0, 57, 51
2, 193200, Note_on_c, 0, 70, 48
2, 193200, Note_on_c, 0, 50, 46
2, 193206, Control_c, 0, 64, 0
2, 193386, Control_c, 0, 64, 120
2, 193387, Note_off_c, 0, 70, 52
2, 193389, Note_on_c, 0, 72, 48
2, 193389, Note_on_c, 0, 58, 46
2, 193440, Note_on_c, 0, 70, 50
2, 193483, Note_off_c, 0, 72, 52
2, 193507, Note_off_c, 0, 70, 52
2, 193509, Note_on_c, 0, 69, 52
2, 193539, Note_off_c, 0, 58, 51
2, 193540, Note_off_c, 0, 50, 51
2, 193579, Note_on_c, 0, 70, 54
2, 193579, Note_on_c, 0, 55, 47
2, 193630, Note_off_c, 0, 69, 53
2, 193692, Note_off_c, 0, 70, 53
2, 193715, Note_off_c, 0, 55, 51
2, 193764, Note_on_c, 0, 70, 60
2, 193766, Note_on_c, 0, 58, 48
2, 193905, Note_off_c, 0, 58, 52
2, 193956, Note_on_c, 0, 74, 60
2, 193956, Note_on_c, 0, 50, 48
2, 193960, Control_c, 0, 64, 0
2, 194001, Note_off_c, 0, 70, 55
2, 194140, Control_c, 0, 64, 120
2, 194143, Note_on_c, 0, 72, 60
2, 194145, Note_on_c, 0, 60, 45
2, 194163, Note_off_c, 0, 74, 55
2, 194298, Note_off_c, 0, 60, 51
2, 194332, Note_on_c, 0, 70, 54
2, 194332, Note_on_c, 0, 54, 42
2, 194341, Note_off_c, 0, 50, 52
2, 194345, Note_off_c, 0, 72, 55
2, 194474, Note_off_c, 0, 54, 50
2, 194520, Note_on_c, 0, 69, 48
2, 194522, Note_on_c, 0, 60, 39
2, 194543, Note_off_c, 0, 70, 53
2, 194656, Note_off_c, 0, 69, 52
2, 194671, Note_off_c, 0, 60, 49
2, 194709, Note_on_c, 0, 67, 48
2, 194709, Note_on_c, 0, 55, 36
2, 194720, Control_c, 0, 64, 0
2, 194896, Note_off_c, 0, 67, 52
2, 194899, Note_on_c, 0, 69, 51
2, 194899, Note_on_c, 0, 62, 36
2, 194900, Control_c, 0, 64, 120
2, 194966, Note_on_c, 0, 67, 52
2, 194990, Note_off_c, 0, 69, 52
2, 195016, Note_off_c, 0, 67, 53
2, 195016, Note_on_c, 0, 66, 53
2, 195086, Note_off_c, 0, 62, 49
2, 195086, Note_on_c, 0, 67, 54
2, 195086, Note_on_c, 0, 58, 37
2, 195136, Note_off_c, 0, 66, 53
2, 195148, Note_off_c, 0, 55, 49
2, 195273, Note_off_c, 0, 58, 49
2, 195276, Note_on_c, 0, 69, 57
2, 195276, Note_on_c, 0, 62, 39
2, 195304, Note_off_c, 0, 67, 53
2, 195463, Note_off_c, 0, 62, 49
2, 195463, Note_on_c, 0, 71, 60
2, 195465, Note_on_c, 0, 53, 41
2, 195473, Control_c, 0, 64, 0
2, 195492, Note_off_c, 0, 69, 54
2, 195652, Note_on_c, 0, 67, 48
2, 195652, Note_on_c, 0, 62, 43
2, 195653, Control_c, 0, 64, 120
2, 195689, Note_off_c, 0, 71, 55
2, 195840, Note_off_c, 0, 62, 50
2, 195840, Note_on_c, 0, 69, 48
2, 195842, Note_on_c, 0, 55, 45
2, 195875, Note_off_c, 0, 67, 52
2, 195883, Note_off_c, 0, 53, 50
2, 196027, Note_off_c, 0, 55, 51
2, 196029, Note_on_c, 0, 71, 51
2, 196029, Note_on_c, 0, 62, 47
2, 196074, Note_off_c, 0, 69, 52
2, 196143, Note_off_c, 0, 71, 52
2, 196216, Note_off_c, 0, 62, 51
2, 196216, Note_on_c, 0, 72, 55
2, 196219, Note_on_c, 0, 51, 48
2, 196223, Control_c, 0, 64, 0
2, 196403, Control_c, 0, 64, 120
2, 196404, Note_off_c, 0, 72, 53
2, 196406, Note_on_c, 0, 74, 58
2, 196406, Note_on_c, 0, 60, 50
2, 196473, Note_on_c, 0, 72, 60
2, 196510, Note_off_c, 0, 74, 54
2, 196540, Note_off_c, 0, 72, 55
2, 196543, Note_on_c, 0, 71, 61
2, 196610, Note_off_c, 0, 60, 52
2, 196612, Note_on_c, 0, 72, 62
2, 196612, Note_on_c, 0, 55, 52
2, 196653, Note_off_c, 0, 51, 52
2, 196670, Note_off_c, 0, 71, 55
2, 196800, Note_off_c, 0, 55, 53
2, 196800, Note_on_c, 0, 74, 66
2, 196802, Note_on_c, 0, 60, 54
2, 196834, Note_off_c, 0, 72, 55
2, 196987, Note_off_c, 0, 60, 53
2, 196989, Note_on_c, 0, 75, 69
2, 196989, Note_on_c, 0, 48, 56
2, 197000, Control_c, 0, 64, 0
2, 197061, Note_off_c, 0, 74, 56
2, 197176, Note_on_c, 0, 76, 73
2, 197179, Note_on_c, 0, 55, 58
2, 197180, Control_c, 0, 64, 120
2, 197225, Note_off_c, 0, 75, 57
2, 197383, Note_off_c, 0, 55, 54
2, 197383, Note_on_c, 0, 77, 76
2, 197383, Note_on_c, 0, 51, 60
2, 197408, Note_off_c, 0, 48, 54
2, 197418, Note_off_c, 0, 76, 58
2, 197587, Note_off_c, 0, 51, 55
2, 197589, Note_on_c, 0, 78, 80
2, 197589, Note_on_c, 0, 55, 60
2, 197657, Note_off_c, 0, 77, 59
2, 197739, Note_off_c, 0, 78, 60
2, 197776, Note_off_c, 0, 55, 55
2, 197776, Note_on_c, 0, 79, 90
2, 197779, Note_on_c, 0, 49, 60
2, 197780, Control_c, 0, 64, 0
2, 197960, Control_c, 0, 64, 120
2, 197980, Note_on_c, 0, 58, 59
2, 198187, Note_off_c, 0, 58, 54
2, 198187, Note_on_c, 0, 52, 57
2, 198261, Note_off_c, 0, 49, 55
2, 198374, Note_off_c, 0, 52, 54
2, 198376, Note_on_c, 0, 58, 56
2, 198580, Note_off_c, 0, 58, 54
2, 198580, Note_on_c, 0, 55, 54
2, 198586, Control_c, 0, 64, 0
2, 198766, Control_c, 0, 64, 120
2, 198770, Note_off_c, 0, 79, 62
2, 198770, Note_on_c, 0, 81, 80
2, 198772, Note_on_c, 0, 58, 53
2, 198840, Note_on_c, 0, 79, 78
2, 198883, Note_off_c, 0, 81, 60
2, 198890, Note_off_c, 0, 79, 59
2, 198890, Note_on_c, 0, 78, 75
2, 198960, Note_off_c, 0, 58, 53
2, 198960, Note_on_c, 0, 79, 72
2, 198960, Note_on_c, 0, 52, 51
2, 199016, Note_off_c, 0, 78, 59
2, 199045, Note_off_c, 0, 55, 53
2, 199147, Note_off_c, 0, 79, 58
2, 199147, Note_off_c, 0, 52, 52
2, 199147, Note_on_c, 0, 81, 72
2, 199149, Note_on_c, 0, 58, 50
2, 199334, Note_off_c, 0, 81, 58
2, 199336, Note_off_c, 0, 58, 52
2, 199336, Note_on_c, 0, 82, 91
2, 199339, Note_on_c, 0, 49, 48
2, 199350, Control_c, 0, 64, 0
2, 199524, Note_on_c, 0, 58, 48
2, 199530, Control_c, 0, 64, 120
2, 199730, Note_off_c, 0, 58, 52
2, 199730, Note_on_c, 0, 52, 47
2, 199779, Note_off_c, 0, 49, 52
2, 199917, Note_off_c, 0, 52, 51
2, 199917, Note_on_c, 0, 58, 46
2, 200043, Note_off_c, 0, 82, 62
2, 200107, Note_off_c, 0, 58, 51
2, 200107, Note_on_c, 0, 61, 75
2, 200109, Note_on_c, 0, 55, 44
2, 200116, Control_c, 0, 64, 0
2, 200296, Note_on_c, 0, 58, 43
2, 200296, Control_c, 0, 64, 120
2, 200484, Note_off_c, 0, 58, 50
2, 200484, Note_on_c, 0, 49, 42
2, 200582, Note_off_c, 0, 55, 51
2, 200671, Note_off_c, 0, 49, 50
2, 200673, Note_on_c, 0, 58, 40
2, 200803, Note_off_c, 0, 61, 59
2, 200860, Note_off_c, 0, 58, 50
2, 200863, Note_on_c, 0, 62, 80
2, 200863, Note_on_c, 0, 50, 39
2, 200873, Control_c, 0, 64, 0
2, 201009, Note_off_c, 0, 62, 60
2, 201083, Control_c, 0, 64, 120
2, 201095, Note_on_c, 0, 62, 32
2, 201227, Note_off_c, 0, 62, 48
2, 201275, Note_off_c, 0, 50, 49
2, 201282, Note_on_c, 0, 74, 48
2, 201285, Note_on_c, 0, 55, 36
2, 201472, Note_on_c, 0, 62, 36
2, 201659, Note_off_c, 0, 62, 49
2, 201659, Note_on_c, 0, 58, 36
2, 201670, Control_c, 0, 64, 0
2, 201712, Note_off_c, 0, 55, 49
2, 201849, Note_off_c, 0, 58, 49
2, 201849, Note_on_c, 0, 62, 37
2, 201850, Control_c, 0, 64, 120
2, 202036, Note_off_c, 0, 74, 52
2, 202038, Note_off_c, 0, 62, 49
2, 202038, Note_on_c, 0, 73, 52
2, 202038, Note_on_c, 0, 55, 38
2, 202225, Note_on_c, 0, 74, 56
2, 202228, Note_on_c, 0, 62, 39
2, 202286, Note_off_c, 0, 73, 53
2, 202432, Note_off_c, 0, 62, 49
2, 202432, Note_on_c, 0, 75, 60
2, 202434, Note_on_c, 0, 50, 40
2, 202443, Control_c, 0, 64, 0
2, 202487, Note_off_c, 0, 55, 49
2, 202495, Note_off_c, 0, 74, 54
2, 202619, Note_off_c, 0, 50, 50
2, 202621, Note_on_c, 0, 74, 60
2, 202621, Note_on_c, 0, 62, 41
2, 202623, Control_c, 0, 64, 120
2, 202660, Note_off_c, 0, 75, 55
2, 202809, Note_off_c, 0, 62, 50
2, 202809, Note_on_c, 0, 72, 56
2, 202811, Note_on_c, 0, 57, 42
2, 202860, Note_off_c, 0, 74, 55
2, 203015, Note_on_c, 0, 70, 52
2, 203015, Note_on_c, 0, 62, 43
2, 203054, Note_off_c, 0, 72, 54
2, 203202, Note_off_c, 0, 62, 50
2, 203202, Note_on_c, 0, 69, 48
2, 203205, Note_on_c, 0, 60, 44
2, 203213, Control_c, 0, 64, 0
2, 203236, Note_off_c, 0, 70, 53
2, 203346, Note_off_c, 0, 57, 50
2, 203393, Control_c, 0, 64, 120
2, 203409, Note_off_c, 0, 60, 51
2, 203409, Note_on_c, 0, 70, 48
2, 203411, Note_on_c, 0, 62, 45
2, 203446, Note_off_c, 0, 69, 52
2, 203596, Note_off_c, 0, 62, 51
2, 203598, Note_on_c, 0, 72, 51
2, 203598, Note_on_c, 0, 57, 46
2, 203627, Note_off_c, 0, 70, 52
2, 203805, Note_on_c, 0, 66, 54
2, 203805, Note_on_c, 0, 62, 47
2, 203827, Note_off_c, 0, 72, 52
2, 203915, Note_off_c, 0, 66, 53
2, 203977, Note_off_c, 0, 62, 51
2, 204009, Note_on_c, 0, 67, 57
2, 204009, Note_on_c, 0, 50, 48
2, 204016, Control_c, 0, 64, 0
2, 204030, Note_off_c, 0, 57, 51
2, 204166, Note_off_c, 0, 50, 52
2, 204196, Note_on_c, 0, 62, 48
2, 204196, Control_c, 0, 64, 120
2, 204335, Note_off_c, 0, 62, 52
2, 204340, Note_off_c, 0, 67, 54
2, 204385, Note_on_c, 0, 79, 74
2, 204388, Note_on_c, 0, 55, 48
2, 204573, Note_on_c, 0, 62, 47
2, 204719, Note_off_c, 0, 62, 51
2, 204725, Note_off_c, 0, 55, 52
2, 204762, Note_on_c, 0, 58, 46
2, 204766, Control_c, 0, 64, 0
2, 204913, Note_off_c, 0, 58, 51
2, 204946, Control_c, 0, 64, 120
2, 204952, Note_on_c, 0, 62, 45
2, 205113, Note_off_c, 0, 79, 59
2, 205120, Note_off_c, 0, 62, 51
2, 205158, Note_on_c, 0, 73, 48
2, 205158, Note_on_c, 0, 55, 44
2, 205345, Note_on_c, 0, 74, 48
2, 205348, Note_on_c, 0, 62, 44
2, 205404, Note_off_c, 0, 73, 52
2, 205507, Note_off_c, 0, 62, 51
2, 205507, Note_off_c, 0, 55, 51
2, 205535, Note_on_c, 0, 75, 60
2, 205535, Note_on_c, 0, 50, 43
2, 205536, Control_c, 0, 64, 0
2, 205581, Note_off_c, 0, 74, 52
2, 205681, Note_off_c, 0, 50, 50
2, 205716, Control_c, 0, 64, 120
2, 205722, Note_on_c, 0, 74, 60
2, 205725, Note_on_c, 0, 62, 42
2, 205777, Note_off_c, 0, 75, 55
2, 205893, Note_off_c, 0, 62, 50
2, 205929, Note_on_c, 0, 72, 56
2, 205929, Note_on_c, 0, 57, 41
2, 205989, Note_off_c, 0, 74, 55
2, 206116, Note_on_c, 0, 70, 52
2, 206118, Note_on_c, 0, 62, 40
2, 206180, Note_off_c, 0, 72, 54
2, 206250, Note_off_c, 0, 57, 50
2, 206289, Note_off_c, 0, 62, 50
2, 206322, Note_on_c, 0, 69, 48
2, 206325, Note_on_c, 0, 60, 40
2, 206326, Control_c, 0, 64, 0
2, 206388, Note_off_c, 0, 70, 53
2, 206477, Note_off_c, 0, 60, 50
2, 206506, Control_c, 0, 64, 120
2, 206512, Note_on_c, 0, 70, 44
2, 206512, Note_on_c, 0, 62, 39
2, 206575, Note_off_c, 0, 69, 52
2, 206665, Note_off_c, 0, 62, 49
2, 206716, Note_on_c, 0, 72, 40
2, 206718, Note_on_c, 0, 57, 38
2, 206771, Note_off_c, 0, 70, 51
2, 206867, Note_off_c, 0, 57, 49
2, 206922, Note_on_c, 0, 66, 56
2, 206925, Note_on_c, 0, 62, 37
2, 206963, Note_off_c, 0, 72, 50
2, 207061, Note_off_c, 0, 66, 54
2, 207065, Note_off_c, 0, 62, 49
2, 207112, Note_on_c, 0, 67, 44
2, 207112, Note_on_c, 0, 55, 36
2, 207123, Control_c, 0, 64, 0
2, 207303, Control_c, 0, 64, 120
2, 207348, Note_off_c, 0, 55, 49
2, 207486, Note_off_c, 0, 67, 51
2, 207486, Note_on_c, 0, 62, 30
2, 207489, Note_on_c, 0, 58, 24
2, 207491, Note_on_c, 0, 55, 21
2, 207621, Note_off_c, 0, 58, 46
2, 207634, Note_off_c, 0, 62, 47
2, 207657, Note_off_c, 0, 55, 45
2, 207780, Control_c, 0, 64, 0
2, 207880, Note_on_c, 0, 62, 30
2, 207882, Note_on_c, 0, 58, 24
2, 207882, Note_on_c, 0, 55, 21
2, 207953, Control_c, 0, 64, 127
2, 208019, Note_off_c, 0, 58, 46
2, 208023, Note_off_c, 0, 62, 47
2, 208072, Note_off_c, 0, 55, 45
2, 208257, Note_on_c, 0, 62, 31
2, 208259, Note_on_c, 0, 58, 25
2, 208259, Note_on_c, 0, 55, 22
2, 208261, Note_on_c, 0, 38, 39
2, 208399, Note_off_c, 0, 58, 46
2, 208407, Note_off_c, 0, 55, 45
2, 208433, Note_off_c, 0, 62, 47
2, 208581, Note_off_c, 0, 38, 49
2, 208655, Note_on_c, 0, 62, 31
2, 208657, Note_on_c, 0, 48, 60
2, 208657, Note_on_c, 0, 60, 25
2, 208657, Note_on_c, 0, 57, 22
2, 208660, Control_c, 0, 64, 0
2, 208798, Note_off_c, 0, 62, 47
2, 208805, Note_off_c, 0, 57, 45
2, 208839, Note_off_c, 0, 60, 46
2, 208850, Control_c, 0, 64, 118
2, 209046, Note_on_c, 0, 62, 32
2, 209046, Note_on_c, 0, 60, 26
2, 209049, Note_on_c, 0, 42, 45
2, 209049, Note_on_c, 0, 57, 23
2, 209056, Control_c, 0, 64, 0
2, 209100, Note_off_c, 0, 48, 55
2, 209168, Note_off_c, 0, 57, 45
2, 209198, Note_off_c, 0, 62, 48
2, 209211, Note_off_c, 0, 60, 46
2, 209250, Control_c, 0, 64, 127
2, 209353, Note_off_c, 0, 42, 51
2, 209440, Note_on_c, 0, 62, 32
2, 209442, Note_on_c, 0, 42, 38
2, 209442, Note_on_c, 0, 60, 26
2, 209442, Note_on_c, 0, 57, 23
2, 209581, Note_off_c, 0, 62, 48
2, 209596, Note_off_c, 0, 60, 46
2, 209614, Note_off_c, 0, 42, 49
2, 209643, Note_off_c, 0, 57, 45
2, 209853, Note_on_c, 0, 62, 33
2, 209853, Note_on_c, 0, 57, 24
2, 209853, Note_on_c, 0, 60, 27
2, 209855, Note_on_c, 0, 42, 41
2, 209997, Note_off_c, 0, 57, 46
2, 210008, Note_off_c, 0, 42, 50
2, 210010, Note_off_c, 0, 62, 48
2, 210031, Note_off_c, 0, 60, 46
2, 210265, Note_on_c, 0, 67, 47
2, 210268, Note_on_c, 0, 43, 55
2, 210270, Control_c, 0, 64, 0
2, 210440, Control_c, 0, 64, 127
2, 210673, Note_off_c, 0, 67, 51
2, 210676, Note_on_c, 0, 62, 28
2, 210676, Note_on_c, 0, 55, 19
2, 210676, Note_on_c, 0, 58, 22
2, 210791, Note_off_c, 0, 62, 47
2, 210810, Note_off_c, 0, 55, 45
2, 210822, Note_off_c, 0, 58, 45
2, 211038, Note_off_c, 0, 43, 53
2, 211050, Note_on_c, 0, 62, 28
2, 211053, Note_on_c, 0, 55, 19
2, 211053, Note_on_c, 0, 58, 22
2, 211113, Control_c, 0, 64, 0
2, 211201, Note_off_c, 0, 55, 45
2, 211213, Note_off_c, 0, 62, 47
2, 211214, Note_off_c, 0, 58, 45
2, 211429, Note_on_c, 0, 62, 29
2, 211429, Note_on_c, 0, 55, 20
2, 211429, Note_on_c, 0, 58, 23
2, 211432, Note_on_c, 0, 38, 36
2, 211446, Control_c, 0, 64, 127
2, 211568, Note_off_c, 0, 58, 45
2, 211574, Note_off_c, 0, 55, 45
2, 211588, Note_off_c, 0, 62, 47
2, 211706, Note_off_c, 0, 38, 49
2, 211806, Note_on_c, 0, 62, 29
2, 211806, Note_on_c, 0, 57, 20
2, 211806, Note_on_c, 0, 60, 23
2, 211809, Note_on_c, 0, 48, 54
2, 211820, Control_c, 0, 64, 0
2, 211938, Note_off_c, 0, 57, 45
2, 211959, Note_off_c, 0, 60, 45
2, 211979, Note_off_c, 0, 62, 47
2, 212003, Control_c, 0, 64, 127
2, 212183, Note_on_c, 0, 62, 30
2, 212183, Note_on_c, 0, 60, 24
2, 212183, Note_on_c, 0, 57, 21
2, 212185, Note_on_c, 0, 42, 42
2, 212193, Control_c, 0, 64, 0
2, 212246, Note_off_c, 0, 48, 53
2, 212310, Note_off_c, 0, 60, 46
2, 212312, Note_off_c, 0, 62, 47
2, 212347, Note_off_c, 0, 57, 45
2, 212363, Control_c, 0, 64, 127
2, 212407, Note_off_c, 0, 42, 50
2, 212577, Note_on_c, 0, 62, 30
2, 212577, Note_on_c, 0, 60, 24
2, 212579, Note_on_c, 0, 42, 38
2, 212579, Note_on_c, 0, 57, 21
2, 212687, Note_off_c, 0, 42, 49
2, 212731, Note_off_c, 0, 57, 45
2, 212734, Note_off_c, 0, 62, 47
2, 212735, Note_off_c, 0, 60, 46
2, 212987, Note_on_c, 0, 62, 31
2, 212989, Note_on_c, 0, 60, 25
2, 212989, Note_on_c, 0, 57, 22
2, 212992, Note_on_c, 0, 42, 44
2, 213131, Note_off_c, 0, 42, 51
2, 213151, Note_off_c, 0, 60, 46
2, 213155, Note_off_c, 0, 57, 45
2, 213172, Note_off_c, 0, 62, 47
2, 213484, Note_on_c, 0, 67, 51
2, 213486, Note_on_c, 0, 43, 60
2, 213493, Control_c, 0, 64, 0
2, 213679, Control_c, 0, 64, 127
2, 213983, Note_off_c, 0, 67, 52
2, 213984, Note_on_c, 0, 62, 32
2, 213984, Note_on_c, 0, 58, 26
2, 213984, Note_on_c, 0, 55, 23
2, 214114, Note_off_c, 0, 58, 46
2, 214136, Note_off_c, 0, 55, 45
2, 214158, Note_off_c, 0, 62, 48
2, 214345, Note_off_c, 0, 43, 55
2, 214378, Note_on_c, 0, 62, 32
2, 214378, Note_on_c, 0, 58, 26
2, 214378, Note_on_c, 0, 55, 23
2, 214379, Control_c, 0, 64, 0
2, 214506, Note_off_c, 0, 62, 48
2, 214526, Note_off_c, 0, 58, 46
2, 214550, Note_off_c, 0, 55, 45
2, 214740, Control_c, 0, 64, 127
2, 214754, Note_on_c, 0, 62, 33
2, 214754, Note_on_c, 0, 58, 27
2, 214754, Note_on_c, 0, 55, 24
2, 214756, Note_on_c, 0, 38, 48
2, 214898, Note_off_c, 0, 58, 46
2, 214899, Note_off_c, 0, 55, 46
2, 214900, Note_off_c, 0, 62, 48
2, 215041, Note_off_c, 0, 38, 52
2, 215113, Control_c, 0, 64, 0
2, 215118, Note_on_c, 0, 62, 33
2, 215118, Note_on_c, 0, 57, 24
2, 215118, Note_on_c, 0, 60, 27
2, 215121, Note_on_c, 0, 48, 66
2, 215246, Note_off_c, 0, 60, 46
2, 215274, Note_off_c, 0, 57, 46
2, 215289, Note_off_c, 0, 62, 48
2, 215290, Control_c, 0, 64, 127
2, 215508, Note_on_c, 0, 62, 34
2, 215508, Note_on_c, 0, 60, 28
2, 215508, Note_on_c, 0, 57, 25
2, 215509, Note_on_c, 0, 42, 45
2, 215513, Control_c, 0, 64, 0
2, 215553, Note_off_c, 0, 48, 56
2, 215661, Note_off_c, 0, 62, 48
2, 215668, Note_off_c, 0, 57, 46
2, 215673, Note_off_c, 0, 60, 47
2, 215700, Control_c, 0, 64, 127
2, 215741, Note_off_c, 0, 42, 51
2, 215902, Note_on_c, 0, 62, 34
2, 215902, Note_on_c, 0, 60, 28
2, 215902, Note_on_c, 0, 57, 25
2, 215905, Note_on_c, 0, 42, 32
2, 216048, Note_off_c, 0, 42, 48
2, 216050, Note_off_c, 0, 57, 46
2, 216062, Note_off_c, 0, 60, 47
2, 216084, Note_off_c, 0, 62, 48
2, 216331, Note_on_c, 0, 62, 35
2, 216331, Note_on_c, 0, 60, 29
2, 216331, Note_on_c, 0, 57, 26
2, 216333, Note_on_c, 0, 42, 29
2, 216443, Note_off_c, 0, 42, 47
2, 216486, Note_off_c, 0, 57, 46
2, 216496, Note_off_c, 0, 60, 47
2, 216507, Note_off_c, 0, 62, 48
2, 216531, Control_c, 0, 67, 127
2, 216757, Note_on_c, 0, 62, 36
2, 216760, Note_on_c, 0, 43, 36
2, 216760, Note_on_c, 0, 58, 30
2, 216766, Control_c, 0, 64, 0
2, 216966, Control_c, 0, 64, 127
2, 217137, Note_on_c, 0, 55, 36
2, 217181, Note_off_c, 0, 58, 47
2, 217196, Note_off_c, 0, 62, 49
2, 217513, Note_on_c, 0, 65, 36
2, 217513, Note_on_c, 0, 59, 30
2, 217543, Note_off_c, 0, 55, 49
2, 217909, Note_on_c, 0, 55, 36
2, 217943, Note_off_c, 0, 65, 49
2, 217960, Note_off_c, 0, 59, 47
2, 218062, Note_off_c, 0, 43, 49
2, 218286, Note_on_c, 0, 63, 35
2, 218286, Note_on_c, 0, 60, 29
2, 218289, Note_on_c, 0, 31, 36
2, 218300, Control_c, 0, 64, 0
2, 218344, Note_off_c, 0, 55, 49
2, 218500, Control_c, 0, 64, 127
2, 218680, Note_on_c, 0, 55, 35
2, 218729, Note_off_c, 0, 63, 48
2, 218749, Note_off_c, 0, 60, 47
2, 219057, Note_on_c, 0, 60, 34
2, 219057, Note_on_c, 0, 51, 28
2, 219079, Note_off_c, 0, 55, 48
2, 219433, Note_on_c, 0, 54, 34
2, 219468, Note_off_c, 0, 60, 48
2, 219487, Note_off_c, 0, 31, 49
2, 219496, Note_off_c, 0, 51, 47
2, 219660, Note_off_c, 0, 54, 48
2, 219827, Note_on_c, 0, 59, 33
2, 219827, Note_on_c, 0, 50, 27
2, 219829, Note_on_c, 0, 43, 32
2, 219833, Control_c, 0, 64, 0
2, 220023, Control_c, 0, 64, 127
2, 220206, Note_on_c, 0, 55, 33
2, 220234, Note_off_c, 0, 59, 48
2, 220236, Note_off_c, 0, 50, 46
2, 220597, Note_off_c, 0, 55, 48
2, 220597, Note_on_c, 0, 62, 32
2, 220600, Note_on_c, 0, 53, 26
2, 220977, Note_on_c, 0, 55, 32
2, 221019, Note_off_c, 0, 62, 48
2, 221048, Note_off_c, 0, 43, 48
2, 221050, Note_off_c, 0, 53, 46
2, 221353, Note_on_c, 0, 60, 32
2, 221356, Note_on_c, 0, 31, 28
2, 221356, Note_on_c, 0, 51, 26
2, 221366, Control_c, 0, 64, 0
2, 221371, Note_off_c, 0, 55, 48
2, 221566, Control_c, 0, 64, 127
2, 221747, Note_on_c, 0, 55, 31
2, 221808, Note_off_c, 0, 60, 48
2, 221816, Note_off_c, 0, 51, 46
2, 222124, Note_on_c, 0, 54, 31
2, 222124, Note_on_c, 0, 48, 25
2, 222150, Note_off_c, 0, 55, 47
2, 222503, Note_on_c, 0, 51, 30
2, 222505, Note_off_c, 0, 48, 46
2, 222537, Note_off_c, 0, 54, 47
2, 222583, Note_off_c, 0, 31, 47
2, 222717, Note_off_c, 0, 51, 47
2, 222894, Note_on_c, 0, 55, 30
2, 222894, Note_on_c, 0, 47, 24
2, 222897, Note_on_c, 0, 43, 24
2, 222897, Note_on_c, 0, 31, 24
2, 222911, Control_c, 0, 64, 0
2, 223111, Control_c, 0, 64, 127
2, 223273, Note_on_c, 0, 50, 29
2, 223299, Note_off_c, 0, 47, 46
2, 223304, Note_off_c, 0, 55, 47
2, 223667, Note_on_c, 0, 54, 29
2, 223667, Note_on_c, 0, 48, 23
2, 223744, Note_off_c, 0, 50, 47
2, 224044, Note_on_c, 0, 51, 28
2, 224062, Note_off_c, 0, 54, 47
2, 224088, Note_off_c, 0, 48, 45
2, 224112, Note_off_c, 0, 31, 46
2, 224115, Note_off_c, 0, 43, 46
2, 224406, Note_off_c, 0, 51, 47
2, 224421, Note_on_c, 0, 55, 28
2, 224421, Note_on_c, 0, 47, 22
2, 224421, Note_on_c, 0, 43, 20
2, 224423, Note_on_c, 0, 31, 20
2, 224833, Note_on_c, 0, 50, 28
2, 224917, Note_off_c, 0, 55, 47
2, 224919, Note_off_c, 0, 47, 45
2, 225277, Note_on_c, 0, 54, 27
2, 225277, Note_on_c, 0, 48, 21
2, 225290, Note_off_c, 0, 50, 47
2, 225738, Note_off_c, 0, 43, 45
2, 225741, Note_on_c, 0, 51, 27
2, 225746, Note_off_c, 0, 54, 46
2, 225799, Note_off_c, 0, 48, 45
2, 225959, Note_off_c, 0, 31, 45
2, 226017, Note_off_c, 0, 51, 46
2, 226237, Note_on_c, 0, 55, 26
2, 226237, Note_on_c, 0, 47, 20
2, 226237, Note_on_c, 0, 43, 16
2, 226240, Note_on_c, 0, 31, 13
2, 226255, Control_c, 0, 64, 0
2, 226455, Control_c, 0, 64, 127
2, 226734, Note_on_c, 0, 50, 26
2, 226758, Note_off_c, 0, 47, 45
2, 226789, Note_off_c, 0, 55, 46
2, 226980, Note_off_c, 0, 31, 43
2, 227023, Note_off_c, 0, 43, 44
2, 227248, Note_on_c, 0, 55, 25
2, 227248, Note_on_c, 0, 47, 19
2, 227250, Note_on_c, 0, 43, 14
2, 227250, Note_on_c, 0, 31, 11
2, 227269, Note_off_c, 0, 50, 46
2, 227747, Note_on_c, 0, 50, 25
2, 227759, Note_off_c, 0, 55, 46
2, 227774, Note_off_c, 0, 47, 45
2, 227920, Note_off_c, 0, 31, 43
2, 227970, Note_off_c, 0, 43, 44
2, 228256, Note_off_c, 0, 50, 46
2, 228565, Note_on_c, 0, 55, 24
2, 228568, Note_on_c, 0, 47, 18
2, 228568, Note_on_c, 0, 43, 12
2, 228568, Note_on_c, 0, 31, 9
2, 228580, Control_c, 0, 64, 0
2, 228780, Control_c, 0, 64, 127
2, 229116, Note_off_c, 0, 31, 42
2, 229228, Note_off_c, 0, 43, 43
2, 229388, Note_off_c, 0, 55, 46
2, 229388, Note_off_c, 0, 47, 44
2, 230040, Control_c, 0, 64, 0
2, 230896, Control_c, 0, 67, 0
2, 236225, Note_on_c, 0, 62, 48
2, 236325, Note_off_c, 0, 62, 52
2, 236429, Note_on_c, 0, 62, 48
2, 236532, Note_off_c, 0, 62, 52
2, 236652, Note_on_c, 0, 67, 54
2, 236652, Note_on_c, 0, 62, 42
2, 236652, Note_on_c, 0, 59, 36
2, 236755, Note_off_c, 0, 67, 53
2, 236755, Note_off_c, 0, 59, 49
2, 236755, Note_off_c, 0, 62, 50
2, 236856, Note_on_c, 0, 69, 61
2, 236858, Note_on_c, 0, 60, 42
2, 236858, Note_on_c, 0, 57, 36
2, 236959, Note_off_c, 0, 69, 55
2, 236961, Note_off_c, 0, 57, 49
2, 236961, Note_off_c, 0, 60, 50
2, 237052, Note_on_c, 0, 71, 68
2, 237058, Control_c, 0, 64, 116
2, 237062, Note_on_c, 0, 59, 54
2, 237065, Note_on_c, 0, 55, 48
2, 237285, Note_on_c, 0, 67, 68
2, 237313, Note_off_c, 0, 71, 57
2, 237351, Control_c, 0, 64, 0
2, 237439, Note_off_c, 0, 67, 57
2, 237492, Note_off_c, 0, 55, 52
2, 237492, Note_off_c, 0, 59, 53
2, 237492, Note_on_c, 0, 64, 48
2, 237612, Note_off_c, 0, 64, 52
2, 237713, Note_on_c, 0, 64, 48
2, 237816, Note_off_c, 0, 64, 52
2, 237919, Note_on_c, 0, 69, 56
2, 237919, Note_on_c, 0, 64, 42
2, 237921, Note_on_c, 0, 60, 36
2, 238039, Note_off_c, 0, 69, 54
2, 238041, Note_off_c, 0, 60, 49
2, 238041, Note_off_c, 0, 64, 50
2, 238142, Note_on_c, 0, 71, 65
2, 238142, Note_on_c, 0, 62, 42
2, 238145, Note_on_c, 0, 59, 36
2, 238262, Note_off_c, 0, 71, 56
2, 238262, Note_off_c, 0, 62, 50
2, 238265, Note_off_c, 0, 59, 49
2, 238365, Note_on_c, 0, 72, 65
2, 238365, Note_on_c, 0, 60, 54
2, 238368, Note_on_c, 0, 57, 48
2, 238372, Control_c, 0, 64, 120
2, 238589, Note_on_c, 0, 69, 48
2, 238656, Note_off_c, 0, 72, 56
2, 238678, Control_c, 0, 64, 0
2, 238774, Note_off_c, 0, 69, 52
2, 238812, Note_off_c, 0, 57, 52
2, 238812, Note_off_c, 0, 60, 53
2, 238814, Note_on_c, 0, 76, 60
2, 238913, Note_off_c, 0, 76, 55
2, 239016, Note_on_c, 0, 74, 60
2, 239119, Note_off_c, 0, 74, 55
2, 239239, Note_on_c, 0, 72, 56
2, 239239, Note_on_c, 0, 57, 36
2, 239241, Note_on_c, 0, 54, 42
2, 239342, Note_off_c, 0, 72, 54
2, 239342, Note_off_c, 0, 57, 49
2, 239345, Note_off_c, 0, 54, 50
2, 239445, Note_on_c, 0, 71, 52
2, 239445, Note_on_c, 0, 59, 36
2, 239448, Note_on_c, 0, 55, 42
2, 239549, Note_off_c, 0, 71, 53
2, 239549, Note_off_c, 0, 55, 50
2, 239549, Note_off_c, 0, 59, 49
2, 239669, Note_on_c, 0, 69, 48
2, 239669, Note_on_c, 0, 57, 45
2, 239669, Note_on_c, 0, 60, 39
2, 239769, Note_off_c, 0, 69, 52
2, 239772, Note_off_c, 0, 60, 49
2, 239772, Note_off_c, 0, 57, 51
2, 239873, Note_on_c, 0, 67, 48
2, 239875, Note_on_c, 0, 59, 48
2, 239875, Note_on_c, 0, 62, 42
2, 239976, Note_off_c, 0, 67, 52
2, 239976, Note_off_c, 0, 62, 50
2, 239978, Note_off_c, 0, 59, 52
2, 240096, Note_on_c, 0, 69, 60
2, 240096, Note_on_c, 0, 64, 45
2, 240098, Note_on_c, 0, 60, 51
2, 240199, Note_off_c, 0, 69, 55
2, 240199, Note_off_c, 0, 64, 51
2, 240201, Note_off_c, 0, 60, 52
2, 240249, Note_on_c, 0, 67, 72
2, 240302, Note_off_c, 0, 67, 58
2, 240302, Note_on_c, 0, 69, 72
2, 240369, Note_off_c, 0, 69, 58
2, 240372, Note_on_c, 0, 70, 72
2, 240372, Note_on_c, 0, 64, 48
2, 240374, Note_on_c, 0, 61, 54
2, 240386, Control_c, 0, 64, 117
2, 240576, Note_on_c, 0, 69, 72
2, 240630, Note_off_c, 0, 70, 58
2, 240686, Control_c, 0, 64, 0
2, 240746, Note_off_c, 0, 69, 58
2, 240799, Note_on_c, 0, 67, 64
2, 240902, Note_off_c, 0, 67, 56
2, 241022, Note_off_c, 0, 61, 53
2, 241022, Note_off_c, 0, 64, 52
2, 241022, Note_on_c, 0, 66, 56
2, 241025, Note_on_c, 0, 62, 48
2, 241136, Note_off_c, 0, 62, 52
2, 241244, Note_on_c, 0, 62, 48
2, 241283, Note_off_c, 0, 66, 54
2, 241363, Note_off_c, 0, 62, 52
2, 241464, Note_on_c, 0, 62, 48
2, 241568, Note_off_c, 0, 62, 52
2, 241688, Note_on_c, 0, 62, 54
2, 241791, Note_off_c, 0, 62, 53
2, 241894, Note_on_c, 0, 67, 60
2, 241894, Note_on_c, 0, 59, 46
2, 241894, Note_on_c, 0, 62, 40
2, 241997, Note_off_c, 0, 67, 55
2, 241997, Note_off_c, 0, 62, 50
2, 241997, Note_off_c, 0, 59, 51
2, 242117, Note_on_c, 0, 69, 66
2, 242117, Note_on_c, 0, 57, 44
2, 242117, Note_on_c, 0, 60, 38
2, 242218, Note_off_c, 0, 69, 56
2, 242220, Note_off_c, 0, 60, 49
2, 242220, Note_off_c, 0, 57, 51
2, 242321, Note_on_c, 0, 71, 72
2, 242324, Note_on_c, 0, 55, 42
2, 242324, Note_on_c, 0, 59, 36
2, 242326, Control_c, 0, 64, 118
2, 242544, Note_on_c, 0, 67, 72
2, 242592, Control_c, 0, 64, 0
2, 242603, Note_off_c, 0, 71, 58
2, 242679, Note_off_c, 0, 67, 58
2, 242768, Note_off_c, 0, 59, 49
2, 242768, Note_off_c, 0, 55, 50
2, 242770, Note_on_c, 0, 64, 48
2, 242871, Note_off_c, 0, 64, 52
2, 242991, Note_on_c, 0, 64, 48
2, 243094, Note_off_c, 0, 64, 52
2, 243195, Note_on_c, 0, 69, 60
2, 243197, Note_on_c, 0, 60, 48
2, 243197, Note_on_c, 0, 64, 42
2, 243315, Note_off_c, 0, 69, 55
2, 243317, Note_off_c, 0, 64, 50
2, 243317, Note_off_c, 0, 60, 52
2, 243418, Note_on_c, 0, 71, 72
2, 243420, Note_on_c, 0, 59, 51
2, 243420, Note_on_c, 0, 62, 45
2, 243521, Note_off_c, 0, 71, 58
2, 243524, Note_off_c, 0, 62, 51
2, 243524, Note_off_c, 0, 59, 52
2, 243624, Note_on_c, 0, 72, 72
2, 243624, Note_on_c, 0, 60, 48
2, 243627, Note_on_c, 0, 57, 54
2, 243632, Control_c, 0, 64, 120
2, 243848, Note_on_c, 0, 69, 48
2, 243910, Note_off_c, 0, 72, 58
2, 243923, Control_c, 0, 64, 0
2, 244005, Note_off_c, 0, 69, 52
2, 244054, Note_off_c, 0, 57, 53
2, 244054, Note_off_c, 0, 60, 52
2, 244056, Note_on_c, 0, 76, 72
2, 244155, Note_off_c, 0, 76, 58
2, 244275, Note_on_c, 0, 74, 72
2, 244378, Note_off_c, 0, 74, 58
2, 244481, Note_on_c, 0, 72, 64
2, 244481, Note_on_c, 0, 57, 36
2, 244484, Note_on_c, 0, 54, 42
2, 244584, Note_off_c, 0, 72, 56
2, 244584, Note_off_c, 0, 57, 49
2, 244587, Note_off_c, 0, 54, 50
2, 244688, Note_on_c, 0, 71, 56
2, 244688, Note_on_c, 0, 59, 36
2, 244690, Note_on_c, 0, 55, 42
2, 244808, Note_off_c, 0, 71, 54
2, 244808, Note_off_c, 0, 55, 50
2, 244808, Note_off_c, 0, 59, 49
2, 244911, Note_on_c, 0, 69, 48
2, 244911, Note_on_c, 0, 57, 46
2, 244911, Note_on_c, 0, 60, 40
2, 245012, Note_off_c, 0, 69, 52
2, 245014, Note_off_c, 0, 60, 50
2, 245014, Note_off_c, 0, 57, 51
2, 245132, Note_on_c, 0, 67, 48
2, 245134, Note_on_c, 0, 59, 50
2, 245134, Note_on_c, 0, 62, 44
2, 245235, Note_off_c, 0, 67, 52
2, 245237, Note_off_c, 0, 62, 51
2, 245237, Note_off_c, 0, 59, 52
2, 245355, Note_on_c, 0, 69, 60
2, 245357, Note_on_c, 0, 60, 54
2, 245357, Note_on_c, 0, 64, 48
2, 245475, Note_off_c, 0, 69, 55
2, 245477, Note_off_c, 0, 64, 52
2, 245477, Note_off_c, 0, 60, 53
2, 245578, Note_on_c, 0, 62, 72
2, 245578, Note_on_c, 0, 59, 36
2, 245580, Note_on_c, 0, 50, 30
2, 245585, Control_c, 0, 64, 115
2, 245818, Note_on_c, 0, 67, 72
2, 245898, Control_c, 0, 64, 0
2, 245931, Note_off_c, 0, 62, 58
2, 245941, Note_off_c, 0, 50, 47
2, 245942, Note_off_c, 0, 59, 49
2, 245988, Note_off_c, 0, 67, 58
2, 246041, Note_on_c, 0, 66, 60
2, 246041, Note_on_c, 0, 60, 50
2, 246044, Note_on_c, 0, 57, 36
2, 246044, Note_on_c, 0, 50, 30
2, 246137, Note_off_c, 0, 66, 55
2, 246279, Note_off_c, 0, 60, 52
2, 246281, Note_off_c, 0, 57, 49
2, 246281, Note_off_c, 0, 50, 47
2, 246284, Note_on_c, 0, 67, 56
2, 246290, Note_on_c, 0, 59, 40
2, 246290, Note_on_c, 0, 55, 34
2, 246292, Note_on_c, 0, 43, 37
2, 246318, Control_c, 0, 64, 127
2, 246626, Note_off_c, 0, 43, 49
2, 246637, Note_off_c, 0, 59, 50
2, 246680, Note_off_c, 0, 55, 48
2, 246744, Note_off_c, 0, 67, 54
2, 246747, Note_on_c, 0, 62, 48
2, 246968, Note_off_c, 0, 62, 52
2, 246968, Note_on_c, 0, 67, 54
2, 247188, Note_off_c, 0, 67, 53
2, 247191, Note_on_c, 0, 71, 60
2, 247312, Control_c, 0, 64, 0
2, 247395, Note_off_c, 0, 71, 55
2, 247395, Note_on_c, 0, 74, 66
2, 247547, Note_off_c, 0, 74, 56
2, 247618, Note_on_c, 0, 74, 72
2, 247699, Control_c, 0, 64, 118
2, 247824, Note_off_c, 0, 74, 58
2, 247824, Note_on_c, 0, 72, 48
2, 247824, Note_on_c, 0, 69, 42
2, 247827, Note_on_c, 0, 54, 42
2, 247827, Note_on_c, 0, 62, 36
2, 247921, Note_off_c, 0, 62, 49
2, 247922, Note_off_c, 0, 54, 50
2, 247926, Note_off_c, 0, 69, 50
2, 247941, Note_off_c, 0, 72, 52
2, 248045, Note_on_c, 0, 72, 60
2, 248048, Note_on_c, 0, 69, 54
2, 248048, Note_on_c, 0, 62, 36
2, 248050, Note_on_c, 0, 54, 42
2, 248184, Note_off_c, 0, 62, 49
2, 248187, Note_off_c, 0, 54, 50
2, 248252, Note_off_c, 0, 72, 55
2, 248252, Note_off_c, 0, 69, 53
2, 248254, Note_on_c, 0, 74, 60
2, 248260, Control_c, 0, 64, 0
2, 248438, Control_c, 0, 64, 117
2, 248475, Note_off_c, 0, 74, 55
2, 248475, Note_on_c, 0, 71, 48
2, 248477, Note_on_c, 0, 67, 42
2, 248477, Note_on_c, 0, 62, 39
2, 248480, Note_on_c, 0, 55, 45
2, 248575, Note_off_c, 0, 62, 49
2, 248579, Note_off_c, 0, 71, 52
2, 248586, Note_off_c, 0, 55, 51
2, 248599, Note_off_c, 0, 67, 50
2, 248681, Note_on_c, 0, 71, 48
2, 248681, Note_on_c, 0, 67, 42
2, 248684, Note_on_c, 0, 55, 47
2, 248684, Note_on_c, 0, 62, 41
2, 248820, Note_off_c, 0, 55, 51
2, 248820, Note_off_c, 0, 62, 50
2, 248902, Note_off_c, 0, 71, 52
2, 248904, Note_off_c, 0, 67, 50
2, 248904, Note_on_c, 0, 74, 60
2, 248908, Control_c, 0, 64, 0
2, 249086, Control_c, 0, 64, 117
2, 249108, Note_off_c, 0, 74, 55
2, 249111, Note_on_c, 0, 72, 48
2, 249111, Note_on_c, 0, 62, 44
2, 249111, Note_on_c, 0, 69, 42
2, 249113, Note_on_c, 0, 54, 50
2, 249204, Note_off_c, 0, 54, 52
2, 249209, Note_off_c, 0, 69, 50
2, 249214, Note_off_c, 0, 72, 52
2, 249214, Note_off_c, 0, 62, 51
2, 249315, Note_on_c, 0, 72, 48
2, 249315, Note_on_c, 0, 69, 42
2, 249317, Note_on_c, 0, 54, 52
2, 249317, Note_on_c, 0, 62, 46
2, 249471, Note_off_c, 0, 54, 53
2, 249471, Note_off_c, 0, 62, 51
2, 249538, Note_off_c, 0, 72, 52
2, 249538, Note_off_c, 0, 69, 50
2, 249540, Note_on_c, 0, 74, 60
2, 249544, Control_c, 0, 64, 0
2, 249722, Control_c, 0, 64, 117
2, 249742, Note_off_c, 0, 74, 55
2, 249744, Note_on_c, 0, 71, 48
2, 249744, Note_on_c, 0, 67, 42
2, 249747, Note_on_c, 0, 55, 54
2, 249747, Note_on_c, 0, 62, 48
2, 249851, Note_off_c, 0, 62, 52
2, 249863, Note_off_c, 0, 67, 50
2, 249864, Note_off_c, 0, 71, 52
2, 249868, Note_off_c, 0, 55, 53
2, 249965, Note_on_c, 0, 71, 48
2, 249968, Note_on_c, 0, 55, 54
2, 249968, Note_on_c, 0, 62, 48
2, 249968, Note_on_c, 0, 67, 42
2, 250104, Note_off_c, 0, 55, 53
2, 250104, Note_off_c, 0, 62, 52
2, 250172, Note_off_c, 0, 67, 50
2, 250172, Note_off_c, 0, 71, 52
2, 250174, Note_on_c, 0, 74, 72
2, 250180, Control_c, 0, 64, 0
2, 250358, Control_c, 0, 64, 117
2, 250395, Note_off_c, 0, 74, 58
2, 250395, Note_on_c, 0, 72, 72
2, 250397, Note_on_c, 0, 69, 66
2, 250397, Note_on_c, 0, 54, 48
2, 250397, Note_on_c, 0, 62, 42
2, 250551, Note_off_c, 0, 54, 52
2, 250551, Note_off_c, 0, 62, 50
2, 250635, Note_off_c, 0, 72, 58
2, 250635, Note_off_c, 0, 69, 56
2, 250637, Note_on_c, 0, 71, 65
2, 250637, Note_on_c, 0, 67, 59
2, 250637, Note_on_c, 0, 62, 38
2, 250640, Note_on_c, 0, 55, 44
2, 250791, Note_off_c, 0, 62, 49
2, 250791, Note_off_c, 0, 55, 51
2, 250892, Note_off_c, 0, 71, 56
2, 250892, Note_off_c, 0, 67, 54
2, 250894, Note_on_c, 0, 74, 58
2, 250898, Control_c, 0, 64, 0
2, 251076, Control_c, 0, 64, 117
2, 251165, Note_off_c, 0, 74, 54
2, 251168, Note_on_c, 0, 72, 51
2, 251168, Note_on_c, 0, 69, 45
2, 251168, Note_on_c, 0, 62, 31
2, 251170, Note_on_c, 0, 54, 37
2, 251302, Note_off_c, 0, 62, 47
2, 251304, Note_off_c, 0, 54, 49
2, 251458, Note_off_c, 0, 72, 52
2, 251458, Note_off_c, 0, 69, 51
2, 251458, Note_on_c, 0, 71, 44
2, 251460, Note_on_c, 0, 67, 38
2, 251460, Note_on_c, 0, 55, 34
2, 251460, Note_on_c, 0, 62, 28
2, 251612, Note_off_c, 0, 55, 48
2, 251612, Note_off_c, 0, 62, 47
2, 251751, Control_c, 0, 64, 0
2, 251765, Note_off_c, 0, 71, 51
2, 251765, Note_off_c, 0, 67, 49
2, 251938, Note_on_c, 0, 74, 50
2, 251955, Control_c, 0, 64, 117
2, 251976, Note_on_c, 0, 69, 38
2, 251977, Note_on_c, 0, 72, 30
2, 251978, Note_on_c, 0, 62, 40
2, 251982, Note_on_c, 0, 54, 34
2, 253301, Note_off_c, 0, 69, 49
2, 253310, Note_off_c, 0, 54, 48
2, 253344, Note_off_c, 0, 72, 47
2, 253360, Note_off_c, 0, 62, 50
2, 253512, Note_off_c, 0, 74, 52
2, 253546, Control_c, 0, 64, 0
2, 253619, Note_on_c, 0, 74, 36
2, 253739, Note_off_c, 0, 74, 49
2, 253842, Note_on_c, 0, 74, 43
2, 253945, Note_off_c, 0, 74, 50
2, 254048, Note_on_c, 0, 79, 51
2, 254048, Note_on_c, 0, 71, 38
2, 254048, Note_on_c, 0, 74, 32
2, 254152, Note_off_c, 0, 79, 52
2, 254152, Note_off_c, 0, 74, 48
2, 254152, Note_off_c, 0, 71, 49
2, 254272, Note_on_c, 0, 81, 58
2, 254272, Note_on_c, 0, 69, 46
2, 254272, Note_on_c, 0, 72, 40
2, 254372, Note_off_c, 0, 81, 54
2, 254375, Note_off_c, 0, 72, 50
2, 254375, Note_off_c, 0, 69, 51
2, 254466, Control_c, 0, 64, 114
2, 254476, Note_on_c, 0, 83, 66
2, 254478, Note_on_c, 0, 67, 54
2, 254478, Note_on_c, 0, 71, 48
2, 254699, Note_on_c, 0, 79, 66
2, 254730, Note_off_c, 0, 83, 56
2, 254759, Control_c, 0, 64, 0
2, 254845, Note_off_c, 0, 79, 56
2, 254922, Note_off_c, 0, 71, 52
2, 254922, Note_off_c, 0, 67, 53
2, 254924, Note_on_c, 0, 76, 57
2, 255042, Note_off_c, 0, 76, 54
2, 255145, Note_on_c, 0, 76, 48
2, 255248, Note_off_c, 0, 76, 52
2, 255349, Note_on_c, 0, 81, 48
2, 255352, Note_on_c, 0, 72, 50
2, 255352, Note_on_c, 0, 76, 44
2, 255469, Note_off_c, 0, 81, 52
2, 255472, Note_off_c, 0, 76, 51
2, 255472, Note_off_c, 0, 72, 52
2, 255572, Note_on_c, 0, 83, 56
2, 255575, Note_on_c, 0, 71, 46
2, 255575, Note_on_c, 0, 74, 40
2, 255676, Note_off_c, 0, 83, 54
2, 255678, Note_off_c, 0, 74, 50
2, 255678, Note_off_c, 0, 71, 51
2, 255779, Note_on_c, 0, 84, 64
2, 255779, Note_on_c, 0, 72, 36
2, 255781, Note_on_c, 0, 69, 42
2, 255786, Control_c, 0, 64, 117
2, 256002, Note_on_c, 0, 81, 72
2, 256039, Control_c, 0, 64, 0
2, 256063, Note_off_c, 0, 84, 56
2, 256125, Note_off_c, 0, 81, 58
2, 256208, Note_off_c, 0, 69, 50
2, 256208, Note_off_c, 0, 72, 49
2, 256208, Note_on_c, 0, 88, 72
2, 256309, Note_off_c, 0, 88, 58
2, 256429, Note_on_c, 0, 86, 72
2, 256532, Note_off_c, 0, 86, 58
2, 256636, Note_on_c, 0, 84, 64
2, 256636, Note_on_c, 0, 69, 38
2, 256638, Note_on_c, 0, 66, 44
2, 256739, Note_off_c, 0, 84, 56
2, 256739, Note_off_c, 0, 69, 49
2, 256741, Note_off_c, 0, 66, 51
2, 256859, Note_on_c, 0, 83, 56
2, 256859, Note_on_c, 0, 71, 40
2, 256861, Note_on_c, 0, 67, 46
2, 256962, Note_off_c, 0, 83, 54
2, 256962, Note_off_c, 0, 67, 51
2, 256962, Note_off_c, 0, 71, 50
2, 257012, Note_on_c, 0, 83, 48
2, 257065, Note_off_c, 0, 83, 52
2, 257065, Note_on_c, 0, 81, 48
2, 257065, Note_on_c, 0, 72, 42
2, 257068, Note_on_c, 0, 69, 48
2, 257185, Note_off_c, 0, 72, 50
2, 257185, Note_off_c, 0, 69, 52
2, 257199, Note_off_c, 0, 81, 52
2, 257288, Note_on_c, 0, 79, 48
2, 257288, Note_on_c, 0, 74, 44
2, 257291, Note_on_c, 0, 71, 50
2, 257406, Note_off_c, 0, 74, 51
2, 257408, Note_off_c, 0, 71, 52
2, 257452, Note_off_c, 0, 79, 52
2, 257528, Note_on_c, 0, 81, 54
2, 257528, Note_on_c, 0, 76, 46
2, 257531, Note_on_c, 0, 72, 52
2, 257629, Note_off_c, 0, 76, 51
2, 257632, Note_off_c, 0, 72, 53
2, 257662, Note_off_c, 0, 81, 53
2, 257746, Control_c, 0, 64, 120
2, 257752, Note_on_c, 0, 74, 65
2, 257762, Note_on_c, 0, 71, 40
2, 257764, Note_on_c, 0, 62, 48
2, 257989, Note_on_c, 0, 79, 60
2, 258139, Note_off_c, 0, 71, 50
2, 258147, Note_off_c, 0, 62, 52
2, 258162, Note_off_c, 0, 79, 55
2, 258196, Note_off_c, 0, 74, 56
2, 258212, Note_on_c, 0, 78, 60
2, 258212, Note_on_c, 0, 72, 40
2, 258215, Note_on_c, 0, 62, 36
2, 258215, Note_on_c, 0, 69, 38
2, 258233, Control_c, 0, 64, 0
2, 258332, Note_off_c, 0, 78, 55
2, 258436, Note_off_c, 0, 69, 49
2, 258436, Note_off_c, 0, 62, 49
2, 258436, Note_off_c, 0, 72, 50
2, 258438, Note_on_c, 0, 79, 63
2, 258448, Note_on_c, 0, 71, 33
2, 258450, Note_on_c, 0, 67, 51
2, 258450, Note_on_c, 0, 55, 45
2, 258479, Control_c, 0, 64, 120
2, 258816, Note_off_c, 0, 67, 52
2, 258836, Note_off_c, 0, 55, 51
2, 258836, Control_c, 0, 64, 0
2, 258843, Note_off_c, 0, 71, 48
2, 258899, Note_off_c, 0, 79, 55
2, 258901, Note_on_c, 0, 74, 72
2, 258904, Note_on_c, 0, 62, 60
2, 259069, Note_off_c, 0, 74, 58
2, 259069, Note_off_c, 0, 62, 55
2, 259072, Note_on_c, 0, 75, 72
2, 259072, Note_on_c, 0, 63, 60
2, 259122, Note_off_c, 0, 75, 58
2, 259122, Note_off_c, 0, 63, 55
2, 259122, Note_on_c, 0, 74, 72
2, 259124, Note_on_c, 0, 62, 60
2, 259343, Note_off_c, 0, 74, 58
2, 259345, Note_off_c, 0, 62, 55
2, 259345, Note_on_c, 0, 73, 76
2, 259348, Note_on_c, 0, 61, 66
2, 259583, Note_off_c, 0, 73, 59
2, 259585, Note_off_c, 0, 61, 56
2, 259585, Note_on_c, 0, 74, 80
2, 259588, Note_on_c, 0, 62, 72
2, 259840, Note_off_c, 0, 74, 60
2, 259842, Note_off_c, 0, 62, 58
2, 259842, Note_on_c, 0, 75, 86
2, 259844, Note_on_c, 0, 63, 80
2, 259854, Control_c, 0, 64, 117
2, 260339, Note_off_c, 0, 75, 61
2, 260339, Note_off_c, 0, 63, 60
2, 260339, Note_on_c, 0, 74, 84
2, 260340, Control_c, 0, 64, 0
2, 260341, Note_on_c, 0, 62, 72
2, 260560, Note_off_c, 0, 74, 61
2, 260562, Note_off_c, 0, 62, 58
2, 260562, Note_on_c, 0, 72, 72
2, 260564, Note_on_c, 0, 60, 64
2, 260766, Note_off_c, 0, 72, 58
2, 260766, Note_off_c, 0, 60, 56
2, 260768, Note_on_c, 0, 70, 60
2, 260768, Note_on_c, 0, 58, 56
2, 261006, Note_off_c, 0, 70, 55
2, 261006, Note_off_c, 0, 58, 54
2, 261008, Note_on_c, 0, 69, 60
2, 261008, Note_on_c, 0, 57, 48
2, 261246, Note_off_c, 0, 69, 55
2, 261246, Note_off_c, 0, 57, 52
2, 261248, Note_on_c, 0, 74, 86
2, 261248, Note_on_c, 0, 62, 74
2, 261252, Control_c, 0, 64, 127
2, 261710, Control_c, 0, 64, 0
2, 261726, Note_off_c, 0, 74, 61
2, 261726, Note_off_c, 0, 62, 59
2, 261728, Note_on_c, 0, 72, 72
2, 261728, Note_on_c, 0, 60, 60
2, 261932, Note_off_c, 0, 72, 58
2, 261932, Note_off_c, 0, 60, 55
2, 261935, Note_on_c, 0, 70, 66
2, 261935, Note_on_c, 0, 58, 56
2, 262156, Note_off_c, 0, 70, 56
2, 262156, Note_off_c, 0, 58, 54
2, 262156, Note_on_c, 0, 69, 60
2, 262158, Note_on_c, 0, 57, 52
2, 262360, Note_off_c, 0, 69, 55
2, 262362, Note_off_c, 0, 57, 53
2, 262362, Note_on_c, 0, 67, 54
2, 262362, Note_on_c, 0, 55, 48
2, 262583, Note_off_c, 0, 67, 53
2, 262583, Note_off_c, 0, 55, 52
2, 262585, Note_on_c, 0, 63, 48
2, 262585, Note_on_c, 0, 57, 44
2, 262588, Note_on_c, 0, 48, 38
2, 262599, Control_c, 0, 64, 127
2, 262806, Note_off_c, 0, 63, 52
2, 262806, Note_on_c, 0, 72, 60
2, 263029, Note_off_c, 0, 72, 55
2, 263029, Note_on_c, 0, 70, 60
2, 263093, Note_off_c, 0, 48, 49
2, 263116, Note_off_c, 0, 57, 51
2, 263269, Note_off_c, 0, 70, 55
2, 263272, Note_on_c, 0, 69, 56
2, 263272, Note_on_c, 0, 60, 36
2, 263274, Note_on_c, 0, 50, 30
2, 263292, Control_c, 0, 64, 0
2, 263474, Control_c, 0, 64, 127
2, 263492, Note_off_c, 0, 69, 54
2, 263492, Note_on_c, 0, 67, 52
2, 263713, Note_off_c, 0, 67, 53
2, 263716, Note_on_c, 0, 66, 48
2, 263812, Note_off_c, 0, 50, 47
2, 263915, Note_off_c, 0, 60, 49
2, 263953, Note_off_c, 0, 66, 52
2, 263958, Note_on_c, 0, 67, 48
2, 263958, Note_on_c, 0, 55, 36
2, 263960, Control_c, 0, 64, 0
2, 264076, Note_on_c, 0, 62, 36
2, 264120, Note_off_c, 0, 55, 49
2, 264140, Control_c, 0, 64, 110
2, 264176, Note_off_c, 0, 62, 49
2, 264179, Note_on_c, 0, 58, 37
2, 264296, Note_off_c, 0, 58, 49
2, 264299, Note_on_c, 0, 62, 37
2, 264400, Note_off_c, 0, 67, 52
2, 264400, Note_off_c, 0, 62, 49
2, 264402, Note_on_c, 0, 86, 38
2, 264402, Note_on_c, 0, 58, 30
2, 264520, Note_on_c, 0, 62, 31
2, 264562, Note_off_c, 0, 86, 49
2, 264567, Note_off_c, 0, 58, 47
2, 264590, Control_c, 0, 64, 0
2, 264606, Note_off_c, 0, 62, 47
2, 264623, Note_on_c, 0, 86, 40
2, 264623, Note_on_c, 0, 54, 33
2, 264743, Note_off_c, 0, 54, 48
2, 264743, Note_on_c, 0, 62, 34
2, 264770, Control_c, 0, 64, 110
2, 264846, Note_off_c, 0, 62, 48
2, 264846, Note_on_c, 0, 85, 44
2, 264848, Note_on_c, 0, 57, 35
2, 264903, Note_off_c, 0, 86, 50
2, 264949, Note_on_c, 0, 62, 36
2, 264996, Note_off_c, 0, 57, 48
2, 265016, Note_off_c, 0, 85, 51
2, 265069, Note_off_c, 0, 62, 49
2, 265069, Note_on_c, 0, 86, 49
2, 265069, Note_on_c, 0, 57, 38
2, 265152, Note_off_c, 0, 86, 52
2, 265172, Note_off_c, 0, 57, 49
2, 265172, Note_on_c, 0, 62, 39
2, 265230, Control_c, 0, 64, 0
2, 265273, Note_off_c, 0, 62, 49
2, 265276, Note_on_c, 0, 86, 54
2, 265276, Note_on_c, 0, 55, 40
2, 265376, Note_on_c, 0, 62, 41
2, 265410, Control_c, 0, 64, 110
2, 265423, Note_off_c, 0, 55, 50
2, 265496, Note_off_c, 0, 62, 50
2, 265499, Note_on_c, 0, 85, 58
2, 265499, Note_on_c, 0, 58, 43
2, 265553, Note_off_c, 0, 86, 53
2, 265600, Note_off_c, 0, 58, 50
2, 265600, Note_on_c, 0, 62, 44
2, 265650, Note_off_c, 0, 85, 54
2, 265703, Note_off_c, 0, 62, 51
2, 265703, Note_on_c, 0, 86, 63
2, 265705, Note_on_c, 0, 58, 46
2, 265789, Note_off_c, 0, 86, 55
2, 265806, Note_on_c, 0, 62, 46
2, 265853, Note_off_c, 0, 58, 51
2, 265857, Control_c, 0, 64, 0
2, 265926, Note_off_c, 0, 62, 51
2, 265926, Note_on_c, 0, 86, 69
2, 265926, Note_on_c, 0, 54, 49
2, 266027, Note_off_c, 0, 54, 52
2, 266029, Note_on_c, 0, 62, 50
2, 266036, Control_c, 0, 64, 110
2, 266132, Note_off_c, 0, 62, 52
2, 266132, Note_on_c, 0, 85, 74
2, 266135, Note_on_c, 0, 57, 52
2, 266187, Note_off_c, 0, 86, 57
2, 266236, Note_on_c, 0, 62, 52
2, 266280, Note_off_c, 0, 57, 53
2, 266286, Note_off_c, 0, 85, 59
2, 266336, Note_off_c, 0, 62, 53
2, 266336, Note_on_c, 0, 86, 79
2, 266339, Note_on_c, 0, 57, 54
2, 266425, Note_off_c, 0, 86, 60
2, 266456, Note_off_c, 0, 57, 53
2, 266459, Note_on_c, 0, 62, 55
2, 266497, Control_c, 0, 64, 0
2, 266560, Note_off_c, 0, 62, 53
2, 266560, Note_on_c, 0, 86, 86
2, 266562, Note_on_c, 0, 55, 57
2, 266663, Note_off_c, 0, 55, 54
2, 266663, Note_on_c, 0, 62, 48
2, 266676, Control_c, 0, 64, 110
2, 266766, Note_off_c, 0, 62, 52
2, 266766, Note_on_c, 0, 84, 71
2, 266768, Note_on_c, 0, 58, 47
2, 266823, Note_off_c, 0, 86, 61
2, 266884, Note_off_c, 0, 58, 51
2, 266886, Note_on_c, 0, 62, 46
2, 266936, Note_off_c, 0, 84, 58
2, 266987, Note_off_c, 0, 62, 51
2, 266989, Note_on_c, 0, 82, 68
2, 266989, Note_on_c, 0, 58, 44
2, 267065, Note_off_c, 0, 82, 57
2, 267092, Note_off_c, 0, 58, 51
2, 267092, Note_on_c, 0, 62, 43
2, 267110, Control_c, 0, 64, 0
2, 267143, Note_off_c, 0, 62, 50
2, 267143, Note_on_c, 0, 84, 65
2, 267193, Note_off_c, 0, 84, 56
2, 267193, Note_on_c, 0, 82, 65
2, 267196, Note_on_c, 0, 55, 42
2, 267290, Control_c, 0, 64, 110
2, 267296, Note_off_c, 0, 55, 50
2, 267296, Note_on_c, 0, 62, 40
2, 267416, Note_off_c, 0, 62, 50
2, 267419, Note_on_c, 0, 81, 62
2, 267419, Note_on_c, 0, 58, 39
2, 267473, Note_off_c, 0, 82, 56
2, 267520, Note_off_c, 0, 58, 49
2, 267520, Note_on_c, 0, 62, 38
2, 267570, Note_off_c, 0, 81, 55
2, 267623, Note_off_c, 0, 62, 49
2, 267623, Note_on_c, 0, 79, 60
2, 267623, Note_on_c, 0, 58, 36
2, 267697, Note_off_c, 0, 79, 55
2, 267726, Note_off_c, 0, 58, 49
2, 267726, Note_on_c, 0, 62, 36
2, 267737, Control_c, 0, 64, 0
2, 267844, Note_off_c, 0, 62, 49
2, 267846, Note_on_c, 0, 77, 72
2, 267846, Note_on_c, 0, 57, 48
2, 267916, Control_c, 0, 64, 110
2, 267947, Note_off_c, 0, 57, 52
2, 267949, Note_on_c, 0, 62, 48
2, 268069, Note_off_c, 0, 62, 52
2, 268069, Note_on_c, 0, 79, 71
2, 268069, Note_on_c, 0, 57, 47
2, 268124, Note_off_c, 0, 77, 58
2, 268170, Note_off_c, 0, 57, 51
2, 268170, Note_on_c, 0, 62, 46
2, 268223, Note_off_c, 0, 79, 58
2, 268273, Note_off_c, 0, 62, 51
2, 268273, Note_on_c, 0, 76, 68
2, 268276, Note_on_c, 0, 57, 45
2, 268367, Note_off_c, 0, 76, 57
2, 268393, Note_off_c, 0, 57, 51
2, 268396, Note_on_c, 0, 61, 44
2, 268400, Control_c, 0, 64, 0
2, 268496, Note_off_c, 0, 61, 51
2, 268496, Note_on_c, 0, 74, 65
2, 268499, Note_on_c, 0, 50, 42
2, 268580, Control_c, 0, 64, 110
2, 268616, Note_on_c, 0, 62, 41
2, 268720, Note_off_c, 0, 62, 50
2, 268720, Note_on_c, 0, 61, 40
2, 268733, Note_off_c, 0, 50, 50
2, 268840, Note_off_c, 0, 61, 50
2, 268840, Note_on_c, 0, 62, 39
2, 268876, Note_off_c, 0, 74, 56
2, 268926, Note_off_c, 0, 62, 49
2, 268940, Note_on_c, 0, 74, 60
2, 268943, Note_on_c, 0, 60, 38
2, 269044, Note_off_c, 0, 60, 49
2, 269046, Note_on_c, 0, 57, 36
2, 269067, Control_c, 0, 64, 0
2, 269113, Note_off_c, 0, 74, 55
2, 269113, Note_off_c, 0, 57, 49
2, 269116, Note_on_c, 0, 87, 48
2, 269164, Note_off_c, 0, 87, 52
2, 269166, Note_on_c, 0, 86, 48
2, 269166, Note_on_c, 0, 55, 36
2, 269246, Control_c, 0, 64, 110
2, 269267, Note_off_c, 0, 55, 49
2, 269269, Note_on_c, 0, 62, 36
2, 269370, Note_off_c, 0, 86, 52
2, 269370, Note_off_c, 0, 62, 49
2, 269372, Note_on_c, 0, 85, 49
2, 269372, Note_on_c, 0, 58, 36
2, 269490, Note_off_c, 0, 58, 49
2, 269490, Note_on_c, 0, 62, 36
2, 269540, Note_off_c, 0, 85, 52
2, 269593, Note_off_c, 0, 62, 49
2, 269593, Note_on_c, 0, 86, 52
2, 269596, Note_on_c, 0, 58, 37
2, 269696, Note_off_c, 0, 86, 53
2, 269696, Note_off_c, 0, 58, 49
2, 269696, Note_on_c, 0, 62, 37
2, 269747, Note_off_c, 0, 62, 49
2, 269747, Control_c, 0, 64, 0
2, 269747, Note_on_c, 0, 87, 55
2, 269797, Note_off_c, 0, 87, 53
2, 269800, Note_on_c, 0, 86, 55
2, 269800, Note_on_c, 0, 54, 37
2, 269920, Note_on_c, 0, 62, 38
2, 269926, Control_c, 0, 64, 110
2, 270020, Note_off_c, 0, 86, 53
2, 270023, Note_off_c, 0, 62, 49
2, 270023, Note_on_c, 0, 85, 58
2, 270023, Note_on_c, 0, 57, 38
2, 270027, Note_off_c, 0, 54, 49
2, 270124, Note_off_c, 0, 57, 49
2, 270126, Note_on_c, 0, 62, 38
2, 270176, Note_off_c, 0, 85, 54
2, 270227, Note_off_c, 0, 62, 49
2, 270227, Note_on_c, 0, 86, 62
2, 270229, Note_on_c, 0, 57, 38
2, 270330, Note_off_c, 0, 86, 55
2, 270330, Note_off_c, 0, 57, 49
2, 270332, Note_on_c, 0, 62, 39
2, 270397, Note_off_c, 0, 62, 49
2, 270400, Note_on_c, 0, 87, 65
2, 270400, Control_c, 0, 64, 0
2, 270450, Note_off_c, 0, 87, 56
2, 270450, Note_on_c, 0, 86, 65
2, 270452, Note_on_c, 0, 55, 39
2, 270553, Note_on_c, 0, 62, 39
2, 270580, Control_c, 0, 64, 110
2, 270652, Note_off_c, 0, 55, 49
2, 270656, Note_off_c, 0, 62, 49
2, 270656, Note_off_c, 0, 86, 56
2, 270656, Note_on_c, 0, 85, 68
2, 270659, Note_on_c, 0, 58, 40
2, 270757, Note_off_c, 0, 58, 50
2, 270760, Note_on_c, 0, 62, 40
2, 270810, Note_off_c, 0, 85, 57
2, 270877, Note_off_c, 0, 62, 50
2, 270880, Note_on_c, 0, 86, 71
2, 270880, Note_on_c, 0, 58, 40
2, 270980, Note_off_c, 0, 86, 58
2, 270983, Note_off_c, 0, 58, 50
2, 270983, Note_on_c, 0, 62, 40
2, 271033, Note_off_c, 0, 62, 50
2, 271033, Note_on_c, 0, 89, 74
2, 271040, Control_c, 0, 64, 0
2, 271084, Note_off_c, 0, 89, 59
2, 271084, Note_on_c, 0, 87, 74
2, 271086, Note_on_c, 0, 55, 41
2, 271187, Note_on_c, 0, 63, 41
2, 271220, Control_c, 0, 64, 110
2, 271290, Note_off_c, 0, 87, 59
2, 271290, Note_off_c, 0, 63, 50
2, 271292, Note_on_c, 0, 86, 77
2, 271292, Note_on_c, 0, 58, 41
2, 271301, Note_off_c, 0, 55, 50
2, 271410, Note_off_c, 0, 58, 50
2, 271410, Note_on_c, 0, 63, 42
2, 271460, Note_off_c, 0, 86, 59
2, 271513, Note_off_c, 0, 63, 50
2, 271513, Note_on_c, 0, 87, 83
2, 271513, Note_on_c, 0, 58, 42
2, 271614, Note_off_c, 0, 87, 60
2, 271616, Note_off_c, 0, 58, 50
2, 271616, Note_on_c, 0, 63, 42
2, 271667, Note_off_c, 0, 63, 50
2, 271667, Note_on_c, 0, 77, 84
2, 271680, Control_c, 0, 64, 0
2, 271717, Note_off_c, 0, 77, 61
2, 271720, Note_on_c, 0, 89, 89
2, 271720, Note_on_c, 0, 57, 43
2, 271840, Note_on_c, 0, 65, 43
2, 271860, Control_c, 0, 64, 110
2, 271940, Note_off_c, 0, 65, 50
2, 271943, Note_on_c, 0, 60, 43
2, 271973, Note_off_c, 0, 57, 50
2, 272044, Note_off_c, 0, 60, 50
2, 272044, Note_on_c, 0, 65, 42
2, 272147, Note_off_c, 0, 65, 50
2, 272147, Note_on_c, 0, 60, 42
2, 272250, Note_off_c, 0, 60, 50
2, 272250, Note_on_c, 0, 65, 41
2, 272347, Control_c, 0, 64, 0
2, 272370, Note_off_c, 0, 65, 50
2, 272370, Note_on_c, 0, 58, 40
2, 272473, Note_on_c, 0, 65, 40
2, 272526, Control_c, 0, 64, 110
2, 272557, Note_off_c, 0, 58, 50
2, 272574, Note_off_c, 0, 89, 62
2, 272576, Note_off_c, 0, 65, 50
2, 272576, Note_on_c, 0, 87, 60
2, 272579, Note_on_c, 0, 62, 39
2, 272677, Note_off_c, 0, 62, 49
2, 272680, Note_on_c, 0, 65, 38
2, 272797, Note_off_c, 0, 87, 55
2, 272800, Note_off_c, 0, 65, 49
2, 272800, Note_on_c, 0, 86, 57
2, 272800, Note_on_c, 0, 62, 38
2, 272900, Note_off_c, 0, 62, 49
2, 272900, Note_on_c, 0, 65, 37
2, 272934, Note_off_c, 0, 86, 54
2, 272936, Note_off_c, 0, 65, 49
2, 272951, Note_on_c, 0, 86, 51
2, 272987, Control_c, 0, 64, 0
2, 273004, Note_off_c, 0, 86, 52
2, 273004, Note_on_c, 0, 84, 51
2, 273006, Note_on_c, 0, 51, 36
2, 273107, Note_on_c, 0, 60, 36
2, 273166, Control_c, 0, 64, 110
2, 273210, Note_off_c, 0, 51, 49
2, 273227, Note_off_c, 0, 60, 49
2, 273227, Note_off_c, 0, 84, 52
2, 273229, Note_on_c, 0, 83, 48
2, 273229, Note_on_c, 0, 55, 36
2, 273330, Note_off_c, 0, 55, 49
2, 273330, Note_on_c, 0, 60, 37
2, 273450, Note_off_c, 0, 83, 52
2, 273450, Note_off_c, 0, 60, 49
2, 273450, Note_on_c, 0, 84, 54
2, 273452, Note_on_c, 0, 55, 37
2, 273551, Note_off_c, 0, 55, 49
2, 273553, Note_on_c, 0, 60, 38
2, 273654, Note_off_c, 0, 84, 53
2, 273656, Note_off_c, 0, 60, 49
2, 273656, Note_on_c, 0, 87, 60
2, 273659, Note_on_c, 0, 53, 38
2, 273660, Control_c, 0, 64, 0
2, 273776, Note_on_c, 0, 60, 39
2, 273840, Control_c, 0, 64, 110
2, 273869, Note_off_c, 0, 53, 49
2, 273877, Note_off_c, 0, 60, 49
2, 273877, Note_off_c, 0, 87, 55
2, 273880, Note_on_c, 0, 84, 58
2, 273880, Note_on_c, 0, 57, 39
2, 273997, Note_off_c, 0, 57, 49
2, 273997, Note_on_c, 0, 60, 40
2, 274100, Note_off_c, 0, 84, 54
2, 274100, Note_off_c, 0, 60, 50
2, 274103, Note_on_c, 0, 81, 53
2, 274103, Note_on_c, 0, 57, 40
2, 274220, Note_off_c, 0, 57, 50
2, 274220, Note_on_c, 0, 60, 41
2, 274324, Note_off_c, 0, 81, 53
2, 274324, Note_off_c, 0, 60, 50
2, 274326, Note_on_c, 0, 82, 48
2, 274326, Note_on_c, 0, 50, 42
2, 274337, Control_c, 0, 64, 0
2, 274444, Note_on_c, 0, 62, 42
2, 274516, Control_c, 0, 64, 110
2, 274547, Note_off_c, 0, 82, 52
2, 274547, Note_off_c, 0, 62, 50
2, 274547, Note_on_c, 0, 86, 48
2, 274549, Note_on_c, 0, 58, 43
2, 274564, Note_off_c, 0, 50, 50
2, 274648, Note_off_c, 0, 58, 50
2, 274650, Note_on_c, 0, 62, 43
2, 274751, Note_off_c, 0, 86, 52
2, 274753, Note_off_c, 0, 62, 50
2, 274753, Note_on_c, 0, 89, 60
2, 274756, Note_on_c, 0, 58, 44
2, 274854, Note_off_c, 0, 58, 51
2, 274856, Note_on_c, 0, 62, 44
2, 274974, Note_off_c, 0, 62, 51
2, 274976, Note_on_c, 0, 53, 45
2, 274987, Control_c, 0, 64, 0
2, 275077, Note_on_c, 0, 62, 45
2, 275166, Control_c, 0, 64, 110
2, 275177, Note_off_c, 0, 53, 51
2, 275180, Note_off_c, 0, 62, 51
2, 275180, Note_off_c, 0, 89, 55
2, 275183, Note_on_c, 0, 87, 58
2, 275183, Note_on_c, 0, 58, 46
2, 275284, Note_off_c, 0, 58, 51
2, 275284, Note_on_c, 0, 62, 46
2, 275404, Note_off_c, 0, 87, 54
2, 275404, Note_off_c, 0, 62, 51
2, 275404, Note_on_c, 0, 86, 53
2, 275406, Note_on_c, 0, 58, 47
2, 275507, Note_off_c, 0, 58, 51
2, 275507, Note_on_c, 0, 62, 48
2, 275540, Note_off_c, 0, 86, 53
2, 275540, Note_off_c, 0, 62, 52
2, 275557, Note_on_c, 0, 86, 48
2, 275608, Note_off_c, 0, 86, 52
2, 275610, Note_on_c, 0, 51, 48
2, 275610, Note_on_c, 0, 84, 48
2, 275627, Control_c, 0, 64, 0
2, 275713, Note_on_c, 0, 60, 47
2, 275806, Control_c, 0, 64, 110
2, 275827, Note_off_c, 0, 51, 52
2, 275831, Note_off_c, 0, 84, 52
2, 275833, Note_off_c, 0, 60, 51
2, 275833, Note_on_c, 0, 83, 51
2, 275833, Note_on_c, 0, 55, 46
2, 275934, Note_off_c, 0, 55, 51
2, 275934, Note_on_c, 0, 60, 45
2, 276037, Note_off_c, 0, 83, 52
2, 276037, Note_off_c, 0, 60, 51
2, 276040, Note_on_c, 0, 84, 57
2, 276040, Note_on_c, 0, 55, 44
2, 276157, Note_off_c, 0, 55, 51
2, 276157, Note_on_c, 0, 60, 43
2, 276260, Note_off_c, 0, 84, 54
2, 276260, Note_off_c, 0, 60, 50
2, 276260, Note_on_c, 0, 87, 60
2, 276263, Note_on_c, 0, 53, 42
2, 276270, Control_c, 0, 64, 0
2, 276380, Note_on_c, 0, 63, 41
2, 276450, Control_c, 0, 64, 110
2, 276484, Note_off_c, 0, 87, 55
2, 276484, Note_off_c, 0, 63, 50
2, 276484, Note_on_c, 0, 84, 58
2, 276486, Note_on_c, 0, 60, 40
2, 276500, Note_off_c, 0, 53, 50
2, 276604, Note_off_c, 0, 60, 50
2, 276604, Note_on_c, 0, 63, 39
2, 276704, Note_off_c, 0, 84, 54
2, 276707, Note_off_c, 0, 63, 49
2, 276707, Note_on_c, 0, 81, 53
2, 276709, Note_on_c, 0, 60, 38
2, 276808, Note_off_c, 0, 60, 49
2, 276810, Note_on_c, 0, 63, 37
2, 276928, Note_off_c, 0, 81, 53
2, 276930, Note_off_c, 0, 63, 49
2, 276930, Note_on_c, 0, 82, 48
2, 276932, Note_on_c, 0, 58, 42
2, 276932, Note_on_c, 0, 62, 36
2, 276940, Control_c, 0, 64, 0
2, 277120, Control_c, 0, 64, 110
2, 277134, Note_off_c, 0, 82, 52
2, 277134, Note_on_c, 0, 86, 75
2, 277357, Note_off_c, 0, 62, 49
2, 277360, Note_off_c, 0, 58, 50
2, 277360, Note_on_c, 0, 84, 72
2, 277386, Note_off_c, 0, 86, 59
2, 277564, Note_on_c, 0, 82, 66
2, 277599, Note_off_c, 0, 84, 58
2, 277787, Note_on_c, 0, 81, 60
2, 277817, Note_off_c, 0, 82, 56
2, 278010, Note_on_c, 0, 79, 54
2, 278047, Note_off_c, 0, 81, 55
2, 278124, Control_c, 0, 64, 0
2, 278161, Note_off_c, 0, 79, 53
2, 278214, Note_on_c, 0, 77, 48
2, 278303, Control_c, 0, 64, 110
2, 278437, Note_on_c, 0, 76, 50
2, 278485, Note_off_c, 0, 77, 52
2, 278660, Note_on_c, 0, 77, 54
2, 278675, Note_off_c, 0, 76, 52
2, 278900, Note_on_c, 0, 78, 60
2, 278934, Note_off_c, 0, 77, 53
2, 279124, Note_on_c, 0, 79, 65
2, 279148, Note_off_c, 0, 78, 55
2, 279347, Note_on_c, 0, 75, 60
2, 279366, Note_off_c, 0, 79, 56
2, 279504, Control_c, 0, 64, 0
2, 279517, Note_off_c, 0, 75, 55
2, 279568, Note_on_c, 0, 74, 56
2, 279683, Control_c, 0, 64, 110
2, 279808, Note_on_c, 0, 65, 40
2, 279928, Note_off_c, 0, 65, 50
2, 280031, Note_on_c, 0, 65, 42
2, 280215, Note_off_c, 0, 65, 50
2, 280271, Note_off_c, 0, 74, 54
2, 280273, Note_on_c, 0, 75, 48
2, 280284, Control_c, 0, 64, 0
2, 280321, Note_off_c, 0, 75, 52
2, 280324, Note_on_c, 0, 74, 48
2, 280324, Note_on_c, 0, 58, 43
2, 280463, Control_c, 0, 64, 110
2, 280490, Note_off_c, 0, 58, 50
2, 280530, Note_on_c, 0, 72, 56
2, 280530, Note_on_c, 0, 65, 45
2, 280577, Note_off_c, 0, 74, 52
2, 280668, Note_off_c, 0, 65, 51
2, 280751, Note_on_c, 0, 74, 64
2, 280751, Note_on_c, 0, 65, 46
2, 280783, Note_off_c, 0, 72, 54
2, 280915, Note_off_c, 0, 65, 51
2, 280921, Note_off_c, 0, 74, 56
2, 280974, Note_on_c, 0, 75, 72
2, 280974, Note_on_c, 0, 60, 48
2, 280984, Control_c, 0, 64, 0
2, 281150, Note_off_c, 0, 60, 52
2, 281163, Control_c, 0, 64, 110
2, 281197, Note_on_c, 0, 65, 48
2, 281317, Note_off_c, 0, 65, 52
2, 281401, Note_on_c, 0, 65, 42
2, 281578, Note_off_c, 0, 65, 50
2, 281624, Note_off_c, 0, 75, 58
2, 281627, Note_on_c, 0, 74, 48
2, 281675, Note_off_c, 0, 74, 52
2, 281677, Note_on_c, 0, 72, 48
2, 281677, Note_on_c, 0, 63, 36
2, 281684, Control_c, 0, 64, 0
2, 281847, Note_off_c, 0, 63, 49
2, 281863, Control_c, 0, 64, 110
2, 281900, Note_on_c, 0, 71, 56
2, 281900, Note_on_c, 0, 65, 36
2, 281953, Note_off_c, 0, 72, 52
2, 282019, Note_off_c, 0, 65, 49
2, 282104, Note_on_c, 0, 72, 64
2, 282104, Note_on_c, 0, 65, 42
2, 282143, Note_off_c, 0, 71, 54
2, 282263, Note_off_c, 0, 72, 56
2, 282282, Note_off_c, 0, 65, 50
2, 282330, Note_on_c, 0, 77, 72
2, 282330, Note_on_c, 0, 62, 48
2, 282340, Control_c, 0, 64, 0
2, 282492, Note_off_c, 0, 62, 52
2, 282520, Control_c, 0, 64, 110
2, 282551, Note_on_c, 0, 65, 48
2, 282681, Note_off_c, 0, 65, 52
2, 282755, Note_on_c, 0, 65, 46
2, 282920, Note_off_c, 0, 65, 51
2, 282978, Note_on_c, 0, 58, 44
2, 282980, Control_c, 0, 64, 0
2, 283160, Control_c, 0, 64, 110
2, 283172, Note_off_c, 0, 58, 51
2, 283201, Note_off_c, 0, 77, 58
2, 283204, Note_on_c, 0, 75, 60
2, 283204, Note_on_c, 0, 65, 41
2, 283328, Note_off_c, 0, 65, 50
2, 283424, Note_on_c, 0, 74, 54
2, 283424, Note_on_c, 0, 65, 39
2, 283476, Note_off_c, 0, 75, 55
2, 283578, Note_off_c, 0, 74, 53
2, 283600, Note_off_c, 0, 65, 49
2, 283648, Note_on_c, 0, 72, 48
2, 283648, Note_on_c, 0, 60, 36
2, 283654, Control_c, 0, 64, 0
2, 283822, Note_off_c, 0, 60, 49
2, 283833, Control_c, 0, 64, 110
2, 283854, Note_on_c, 0, 74, 48
2, 283856, Note_on_c, 0, 65, 36
2, 283903, Note_off_c, 0, 72, 52
2, 283965, Note_off_c, 0, 65, 49
2, 284008, Note_off_c, 0, 74, 52
2, 284075, Note_on_c, 0, 70, 54
2, 284077, Note_on_c, 0, 65, 39
2, 284228, Note_off_c, 0, 65, 49
2, 284240, Note_off_c, 0, 70, 53
2, 284284, Note_on_c, 0, 69, 60
2, 284284, Note_on_c, 0, 60, 42
2, 284290, Control_c, 0, 64, 0
2, 284451, Note_off_c, 0, 60, 50
2, 284470, Control_c, 0, 64, 110
2, 284504, Note_on_c, 0, 70, 66
2, 284507, Note_on_c, 0, 64, 45
2, 284570, Note_off_c, 0, 69, 55
2, 284629, Note_off_c, 0, 64, 51
2, 284658, Note_off_c, 0, 70, 56
2, 284725, Note_on_c, 0, 67, 72
2, 284728, Note_on_c, 0, 64, 48
2, 284889, Note_off_c, 0, 64, 52
2, 284911, Note_off_c, 0, 67, 58
2, 284951, Note_on_c, 0, 65, 48
2, 284953, Note_on_c, 0, 53, 36
2, 284957, Control_c, 0, 64, 0
2, 285136, Control_c, 0, 64, 110
2, 285172, Note_off_c, 0, 53, 49
2, 285174, Note_on_c, 0, 57, 36
2, 285378, Note_off_c, 0, 57, 49
2, 285378, Note_on_c, 0, 60, 37
2, 285601, Note_off_c, 0, 60, 49
2, 285601, Note_on_c, 0, 51, 38
2, 285607, Control_c, 0, 64, 0
2, 285786, Control_c, 0, 64, 110
2, 285824, Note_off_c, 0, 51, 49
2, 285824, Note_on_c, 0, 67, 48
2, 285827, Note_on_c, 0, 57, 39
2, 285846, Note_off_c, 0, 65, 52
2, 286031, Note_off_c, 0, 57, 49
2, 286031, Note_on_c, 0, 69, 51
2, 286031, Note_on_c, 0, 60, 40
2, 286050, Note_off_c, 0, 67, 52
2, 286201, Note_off_c, 0, 69, 52
2, 286252, Note_off_c, 0, 60, 50
2, 286252, Note_on_c, 0, 72, 54
2, 286260, Control_c, 0, 64, 0
2, 286302, Note_off_c, 0, 72, 53
2, 286304, Note_on_c, 0, 70, 54
2, 286304, Note_on_c, 0, 50, 42
2, 286440, Control_c, 0, 64, 110
2, 286482, Note_off_c, 0, 50, 50
2, 286511, Note_on_c, 0, 69, 58
2, 286511, Note_on_c, 0, 53, 43
2, 286587, Note_off_c, 0, 70, 53
2, 286649, Note_off_c, 0, 53, 50
2, 286732, Note_on_c, 0, 70, 61
2, 286732, Note_on_c, 0, 53, 44
2, 286772, Note_off_c, 0, 69, 54
2, 286920, Note_off_c, 0, 53, 51
2, 286938, Note_on_c, 0, 65, 65
2, 286940, Note_on_c, 0, 46, 45
2, 286944, Control_c, 0, 64, 0
2, 287007, Note_off_c, 0, 70, 55
2, 287123, Control_c, 0, 64, 110
2, 287140, Note_off_c, 0, 46, 51
2, 287161, Note_on_c, 0, 69, 68
2, 287164, Note_on_c, 0, 53, 46
2, 287243, Note_off_c, 0, 65, 56
2, 287303, Note_off_c, 0, 53, 51
2, 287382, Note_on_c, 0, 70, 72
2, 287384, Note_on_c, 0, 53, 48
2, 287436, Note_off_c, 0, 69, 57
2, 287538, Note_off_c, 0, 70, 58
2, 287572, Note_off_c, 0, 53, 52
2, 287588, Note_on_c, 0, 74, 72
2, 287658, Note_off_c, 0, 74, 58
2, 287658, Note_on_c, 0, 72, 72
2, 287658, Note_on_c, 0, 45, 48
2, 287660, Control_c, 0, 64, 0
2, 287831, Note_off_c, 0, 45, 52
2, 287840, Control_c, 0, 64, 110
2, 287864, Note_on_c, 0, 71, 60
2, 287867, Note_on_c, 0, 53, 42
2, 287911, Note_off_c, 0, 72, 58
2, 288018, Note_off_c, 0, 53, 50
2, 288085, Note_on_c, 0, 72, 48
2, 288088, Note_on_c, 0, 53, 36
2, 288107, Note_off_c, 0, 71, 55
2, 288293, Note_off_c, 0, 53, 49
2, 288311, Note_on_c, 0, 65, 48
2, 288311, Note_on_c, 0, 41, 36
2, 288317, Control_c, 0, 64, 0
2, 288350, Note_off_c, 0, 72, 52
2, 288493, Note_off_c, 0, 41, 49
2, 288496, Control_c, 0, 64, 110
2, 288534, Note_on_c, 0, 70, 51
2, 288534, Note_on_c, 0, 53, 37
2, 288590, Note_off_c, 0, 65, 52
2, 288680, Note_off_c, 0, 53, 49
2, 288738, Note_on_c, 0, 72, 54
2, 288738, Note_on_c, 0, 53, 39
2, 288796, Note_off_c, 0, 70, 52
2, 288864, Note_off_c, 0, 53, 49
2, 288908, Note_off_c, 0, 72, 53
2, 288911, Note_on_c, 0, 75, 58
2, 288959, Note_off_c, 0, 75, 54
2, 288961, Note_on_c, 0, 74, 58
2, 288961, Note_on_c, 0, 46, 40
2, 288967, Control_c, 0, 64, 0
2, 289138, Note_off_c, 0, 46, 50
2, 289146, Control_c, 0, 64, 110
2, 289168, Note_on_c, 0, 72, 61
2, 289168, Note_on_c, 0, 53, 42
2, 289197, Note_off_c, 0, 74, 54
2, 289343, Note_off_c, 0, 53, 50
2, 289391, Note_on_c, 0, 74, 65
2, 289391, Note_on_c, 0, 58, 43
2, 289454, Note_off_c, 0, 72, 55
2, 289558, Note_off_c, 0, 58, 50
2, 289595, Note_on_c, 0, 75, 68
2, 289597, Note_on_c, 0, 51, 45
2, 289604, Control_c, 0, 64, 0
2, 289663, Note_off_c, 0, 74, 56
2, 289783, Control_c, 0, 64, 110
2, 289789, Note_off_c, 0, 51, 51
2, 289818, Note_on_c, 0, 77, 72
2, 289820, Note_on_c, 0, 55, 46
2, 289852, Note_off_c, 0, 75, 57
2, 290001, Note_off_c, 0, 55, 51
2, 290041, Note_on_c, 0, 79, 72
2, 290044, Note_on_c, 0, 60, 48
2, 290116, Note_off_c, 0, 77, 58
2, 290212, Note_off_c, 0, 79, 58
2, 290215, Note_off_c, 0, 60, 52
2, 290262, Note_on_c, 0, 72, 48
2, 290264, Note_on_c, 0, 53, 36
2, 290274, Control_c, 0, 64, 0
2, 290432, Note_off_c, 0, 53, 49
2, 290453, Control_c, 0, 64, 110
2, 290485, Note_on_c, 0, 65, 36
2, 290645, Note_off_c, 0, 65, 49
2, 290708, Note_on_c, 0, 65, 38
2, 290882, Note_off_c, 0, 65, 49
2, 290932, Note_off_c, 0, 72, 52
2, 290932, Note_on_c, 0, 75, 57
2, 290934, Control_c, 0, 64, 0
2, 290982, Note_off_c, 0, 75, 54
2, 290982, Note_on_c, 0, 74, 57
2, 290984, Note_on_c, 0, 58, 40
2, 291113, Control_c, 0, 64, 110
2, 291159, Note_off_c, 0, 58, 50
2, 291191, Note_on_c, 0, 72, 62
2, 291191, Note_on_c, 0, 65, 43
2, 291213, Note_off_c, 0, 74, 54
2, 291341, Note_off_c, 0, 65, 50
2, 291412, Note_on_c, 0, 74, 67
2, 291412, Note_on_c, 0, 65, 45
2, 291419, Note_off_c, 0, 72, 55
2, 291574, Note_off_c, 0, 65, 51
2, 291582, Note_off_c, 0, 74, 57
2, 291635, Note_on_c, 0, 75, 72
2, 291635, Note_on_c, 0, 60, 48
2, 291640, Control_c, 0, 64, 0
2, 291798, Note_off_c, 0, 60, 52
2, 291820, Control_c, 0, 64, 110
2, 291858, Note_on_c, 0, 65, 48
2, 292015, Note_off_c, 0, 65, 52
2, 292079, Note_on_c, 0, 65, 45
2, 292254, Note_off_c, 0, 65, 51
2, 292302, Note_off_c, 0, 75, 58
2, 292304, Note_on_c, 0, 74, 48
2, 292352, Note_off_c, 0, 74, 52
2, 292355, Note_on_c, 0, 72, 48
2, 292355, Note_on_c, 0, 63, 42
2, 292364, Control_c, 0, 64, 0
2, 292525, Note_off_c, 0, 63, 50
2, 292543, Control_c, 0, 64, 110
2, 292561, Note_on_c, 0, 71, 48
2, 292561, Note_on_c, 0, 65, 39
2, 292587, Note_off_c, 0, 72, 52
2, 292706, Note_off_c, 0, 65, 49
2, 292782, Note_on_c, 0, 72, 60
2, 292782, Note_on_c, 0, 65, 36
2, 292823, Note_off_c, 0, 71, 52
2, 292931, Note_off_c, 0, 65, 49
2, 292936, Note_off_c, 0, 72, 55
2, 292988, Note_on_c, 0, 77, 72
2, 292988, Note_on_c, 0, 62, 48
2, 292994, Control_c, 0, 64, 0
2, 293148, Note_off_c, 0, 62, 52
2, 293173, Control_c, 0, 64, 110
2, 293212, Note_on_c, 0, 65, 48
2, 293366, Note_off_c, 0, 65, 52
2, 293432, Note_on_c, 0, 65, 46
2, 293582, Note_off_c, 0, 65, 51
2, 293639, Note_on_c, 0, 58, 44
2, 293640, Control_c, 0, 64, 0
2, 293818, Note_off_c, 0, 58, 51
2, 293820, Control_c, 0, 64, 110
2, 293862, Note_on_c, 0, 75, 64
2, 293864, Note_on_c, 0, 65, 41
2, 293916, Note_off_c, 0, 77, 58
2, 294026, Note_off_c, 0, 65, 50
2, 294085, Note_on_c, 0, 74, 56
2, 294085, Note_on_c, 0, 65, 39
2, 294120, Note_off_c, 0, 75, 56
2, 294255, Note_off_c, 0, 65, 49
2, 294256, Note_off_c, 0, 74, 54
2, 294308, Note_on_c, 0, 72, 48
2, 294308, Note_on_c, 0, 60, 36
2, 294314, Control_c, 0, 64, 0
2, 294458, Note_off_c, 0, 60, 49
2, 294493, Control_c, 0, 64, 110
2, 294515, Note_on_c, 0, 74, 48
2, 294515, Note_on_c, 0, 65, 36
2, 294577, Note_off_c, 0, 72, 52
2, 294663, Note_off_c, 0, 74, 52
2, 294691, Note_off_c, 0, 65, 49
2, 294736, Note_on_c, 0, 70, 54
2, 294736, Note_on_c, 0, 65, 39
2, 294887, Note_off_c, 0, 70, 53
2, 294894, Note_off_c, 0, 65, 49
2, 294942, Note_on_c, 0, 69, 60
2, 294944, Note_on_c, 0, 60, 42
2, 294954, Control_c, 0, 64, 0
2, 295133, Note_off_c, 0, 60, 50
2, 295133, Control_c, 0, 64, 110
2, 295165, Note_on_c, 0, 70, 66
2, 295168, Note_on_c, 0, 64, 45
2, 295224, Note_off_c, 0, 69, 55
2, 295304, Note_off_c, 0, 70, 56
2, 295338, Note_off_c, 0, 64, 51
2, 295386, Note_on_c, 0, 67, 72
2, 295388, Note_on_c, 0, 64, 48
2, 295552, Note_off_c, 0, 64, 52
2, 295573, Note_off_c, 0, 67, 58
2, 295612, Note_on_c, 0, 65, 48
2, 295612, Note_on_c, 0, 53, 36
2, 295614, Control_c, 0, 64, 0
2, 295793, Control_c, 0, 64, 110
2, 295832, Note_off_c, 0, 53, 49
2, 295832, Note_on_c, 0, 57, 36
2, 296056, Note_off_c, 0, 57, 49
2, 296056, Note_on_c, 0, 60, 39
2, 296279, Note_off_c, 0, 60, 49
2, 296279, Note_on_c, 0, 51, 42
2, 296284, Control_c, 0, 64, 0
2, 296445, Note_off_c, 0, 51, 50
2, 296463, Control_c, 0, 64, 110
2, 296485, Note_on_c, 0, 67, 60
2, 296488, Note_on_c, 0, 57, 45
2, 296516, Note_off_c, 0, 65, 52
2, 296681, Note_off_c, 0, 57, 51
2, 296708, Note_on_c, 0, 69, 66
2, 296708, Note_on_c, 0, 60, 48
2, 296730, Note_off_c, 0, 67, 55
2, 296822, Note_off_c, 0, 60, 52
2, 296860, Note_off_c, 0, 69, 56
2, 296862, Note_on_c, 0, 72, 72
2, 296912, Note_off_c, 0, 72, 58
2, 296912, Note_on_c, 0, 70, 72
2, 296915, Note_on_c, 0, 50, 48
2, 296924, Control_c, 0, 64, 0
2, 297103, Control_c, 0, 64, 110
2, 297106, Note_off_c, 0, 50, 52
2, 297138, Note_on_c, 0, 69, 72
2, 297138, Note_on_c, 0, 53, 42
2, 297166, Note_off_c, 0, 70, 58
2, 297276, Note_off_c, 0, 53, 50
2, 297340, Note_on_c, 0, 70, 60
2, 297342, Note_on_c, 0, 53, 36
2, 297356, Note_off_c, 0, 69, 58
2, 297527, Note_off_c, 0, 53, 49
2, 297565, Note_on_c, 0, 65, 48
2, 297568, Note_on_c, 0, 46, 36
2, 297577, Control_c, 0, 64, 0
2, 297638, Note_off_c, 0, 70, 55
2, 297755, Note_off_c, 0, 46, 49
2, 297756, Control_c, 0, 64, 110
2, 297788, Note_on_c, 0, 69, 48
2, 297788, Note_on_c, 0, 53, 36
2, 297850, Note_off_c, 0, 65, 52
2, 297934, Note_off_c, 0, 53, 49
2, 297992, Note_on_c, 0, 70, 51
2, 297992, Note_on_c, 0, 53, 37
2, 298043, Note_off_c, 0, 69, 52
2, 298163, Note_off_c, 0, 70, 52
2, 298175, Note_off_c, 0, 53, 49
2, 298216, Note_on_c, 0, 74, 55
2, 298266, Note_off_c, 0, 74, 53
2, 298266, Note_on_c, 0, 72, 55
2, 298268, Note_on_c, 0, 45, 38
2, 298270, Control_c, 0, 64, 0
2, 298450, Control_c, 0, 64, 110
2, 298452, Note_off_c, 0, 45, 49
2, 298492, Note_on_c, 0, 71, 58
2, 298492, Note_on_c, 0, 53, 39
2, 298525, Note_off_c, 0, 72, 53
2, 298660, Note_off_c, 0, 53, 49
2, 298712, Note_on_c, 0, 72, 62
2, 298712, Note_on_c, 0, 53, 40
2, 298770, Note_off_c, 0, 71, 54
2, 298883, Note_off_c, 0, 72, 55
2, 298904, Note_off_c, 0, 53, 50
2, 298936, Note_on_c, 0, 75, 66
2, 298986, Note_off_c, 0, 75, 56
2, 298986, Note_on_c, 0, 74, 66
2, 298988, Note_on_c, 0, 46, 42
2, 298990, Control_c, 0, 64, 0
2, 299154, Note_off_c, 0, 46, 50
2, 299170, Control_c, 0, 64, 110
2, 299195, Note_on_c, 0, 72, 69
2, 299195, Note_on_c, 0, 53, 43
2, 299251, Note_off_c, 0, 74, 56
2, 299352, Note_off_c, 0, 53, 50
2, 299416, Note_on_c, 0, 74, 73
2, 299416, Note_on_c, 0, 53, 44
2, 299450, Note_off_c, 0, 72, 57
2, 299569, Note_off_c, 0, 74, 58
2, 299588, Note_off_c, 0, 53, 51
2, 299622, Note_on_c, 0, 75, 76
2, 299622, Note_on_c, 0, 51, 45
2, 299627, Control_c, 0, 64, 0
2, 299793, Note_off_c, 0, 51, 51
2, 299806, Control_c, 0, 64, 110
2, 299845, Note_on_c, 0, 77, 80
2, 299845, Note_on_c, 0, 55, 46
2, 299913, Note_off_c, 0, 75, 59
2, 300010, Note_off_c, 0, 55, 51
2, 300068, Note_on_c, 0, 79, 84
2, 300068, Note_on_c, 0, 60, 48
2, 300136, Note_off_c, 0, 77, 60
2, 300232, Note_off_c, 0, 60, 52
2, 300243, Note_off_c, 0, 79, 61
2, 300289, Note_on_c, 0, 70, 84
2, 300292, Note_on_c, 0, 53, 48
2, 300294, Control_c, 0, 64, 0
2, 300473, Control_c, 0, 64, 110
2, 300484, Note_off_c, 0, 53, 52
2, 300512, Note_on_c, 0, 62, 45
2, 300675, Note_off_c, 0, 62, 51
2, 300736, Note_on_c, 0, 74, 60
2, 300738, Note_on_c, 0, 63, 42
2, 300770, Note_off_c, 0, 70, 61
2, 300839, Note_on_c, 0, 72, 54
2, 300873, Note_off_c, 0, 74, 55
2, 300897, Note_off_c, 0, 63, 50
2, 300940, Note_off_c, 0, 72, 53
2, 300942, Note_on_c, 0, 70, 48
2, 300942, Note_on_c, 0, 58, 39
2, 300947, Control_c, 0, 64, 0
2, 301126, Control_c, 0, 64, 110
2, 301128, Note_off_c, 0, 58, 49
2, 301163, Note_on_c, 0, 62, 36
2, 301338, Note_off_c, 0, 62, 49
2, 301386, Note_off_c, 0, 70, 52
2, 301388, Note_on_c, 0, 65, 36
2, 301517, Note_off_c, 0, 65, 49
2, 301540, Note_on_c, 0, 72, 50
2, 301590, Note_off_c, 0, 72, 52
2, 301592, Note_on_c, 0, 70, 50
2, 301600, Control_c, 0, 64, 0
2, 301780, Control_c, 0, 64, 110
2, 301816, Note_on_c, 0, 69, 53
2, 301869, Note_off_c, 0, 70, 52
2, 302020, Note_on_c, 0, 70, 56
2, 302076, Note_off_c, 0, 69, 53
2, 302173, Note_off_c, 0, 70, 54
2, 302217, Note_on_c, 0, 77, 49
2, 302223, Note_on_c, 0, 62, 34
2, 302224, Note_on_c, 0, 65, 39
2, 302227, Note_on_c, 0, 70, 32
2, 302230, Control_c, 0, 64, 0
2, 302410, Control_c, 0, 64, 110
2, 302615, Note_off_c, 0, 77, 52
2, 302660, Note_on_c, 0, 77, 61
2, 302738, Note_off_c, 0, 62, 48
2, 302771, Note_off_c, 0, 70, 48
2, 302808, Note_off_c, 0, 65, 49
2, 302820, Note_off_c, 0, 77, 55
2, 302885, Note_on_c, 0, 77, 67
2, 302894, Note_on_c, 0, 71, 47
2, 302897, Note_on_c, 0, 61, 43
2, 302898, Note_on_c, 0, 65, 55
2, 302900, Control_c, 0, 64, 0
2, 303080, Control_c, 0, 64, 110
2, 303273, Note_off_c, 0, 77, 57
2, 303330, Note_on_c, 0, 77, 81
2, 303442, Note_off_c, 0, 61, 50
2, 303464, Note_off_c, 0, 65, 53
2, 303492, Note_off_c, 0, 71, 51
2, 303517, Note_off_c, 0, 77, 60
2, 303567, Note_on_c, 0, 77, 71
2, 303576, Note_on_c, 0, 72, 48
2, 303578, Note_on_c, 0, 67, 57
2, 303580, Note_on_c, 0, 60, 43
2, 303587, Control_c, 0, 64, 0
2, 303766, Control_c, 0, 64, 110
2, 304026, Note_on_c, 0, 76, 48
2, 304076, Note_off_c, 0, 77, 58
2, 304088, Note_off_c, 0, 60, 50
2, 304094, Note_off_c, 0, 67, 54
2, 304139, Note_off_c, 0, 72, 52
2, 304196, Note_off_c, 0, 76, 52
2, 304201, Note_on_c, 0, 74, 48
2, 304264, Note_off_c, 0, 74, 52
2, 304266, Note_on_c, 0, 72, 48
2, 304270, Control_c, 0, 64, 0
2, 304450, Control_c, 0, 64, 110
2, 304472, Note_on_c, 0, 71, 51
2, 304510, Note_off_c, 0, 72, 52
2, 304676, Note_on_c, 0, 72, 54
2, 304716, Note_off_c, 0, 71, 52
2, 304818, Note_off_c, 0, 72, 53
2, 304891, Note_on_c, 0, 75, 48
2, 304901, Note_on_c, 0, 67, 38
2, 304901, Note_on_c, 0, 60, 34
2, 304901, Note_on_c, 0, 72, 31
2, 304910, Control_c, 0, 64, 0
2, 305090, Control_c, 0, 64, 110
2, 305200, Note_off_c, 0, 75, 52
2, 305334, Note_on_c, 0, 75, 60
2, 305361, Note_off_c, 0, 67, 49
2, 305405, Note_off_c, 0, 72, 47
2, 305450, Note_off_c, 0, 60, 48
2, 305495, Note_off_c, 0, 75, 55
2, 305541, Note_on_c, 0, 75, 67
2, 305551, Note_on_c, 0, 66, 53
2, 305551, Note_on_c, 0, 72, 47
2, 305551, Note_on_c, 0, 57, 43
2, 305560, Control_c, 0, 64, 0
2, 305740, Control_c, 0, 64, 110
2, 305909, Note_off_c, 0, 75, 57
2, 306003, Note_on_c, 0, 75, 81
2, 306095, Note_off_c, 0, 57, 50
2, 306114, Note_off_c, 0, 72, 51
2, 306132, Note_off_c, 0, 66, 53
2, 306163, Note_off_c, 0, 75, 60
2, 306227, Note_on_c, 0, 75, 71
2, 306237, Note_on_c, 0, 65, 58
2, 306237, Note_on_c, 0, 70, 48
2, 306237, Note_on_c, 0, 58, 43
2, 306244, Control_c, 0, 64, 0
2, 306423, Control_c, 0, 64, 110
2, 306700, Note_on_c, 0, 74, 48
2, 306734, Note_off_c, 0, 75, 58
2, 306774, Note_off_c, 0, 58, 50
2, 306789, Note_off_c, 0, 65, 54
2, 306806, Note_off_c, 0, 70, 52
2, 306887, Note_off_c, 0, 74, 52
2, 306892, Note_on_c, 0, 75, 48
2, 306937, Note_off_c, 0, 75, 52
2, 306940, Note_on_c, 0, 74, 48
2, 306940, Note_on_c, 0, 58, 36
2, 306944, Control_c, 0, 64, 0
2, 307091, Note_off_c, 0, 58, 49
2, 307123, Control_c, 0, 64, 110
2, 307146, Note_on_c, 0, 72, 56
2, 307146, Note_on_c, 0, 65, 36
2, 307201, Note_off_c, 0, 74, 52
2, 307318, Note_off_c, 0, 65, 49
2, 307367, Note_on_c, 0, 74, 64
2, 307367, Note_on_c, 0, 65, 42
2, 307420, Note_off_c, 0, 72, 54
2, 307489, Note_off_c, 0, 74, 56
2, 307551, Note_off_c, 0, 65, 50
2, 307590, Note_on_c, 0, 75, 72
2, 307592, Note_on_c, 0, 60, 48
2, 307597, Control_c, 0, 64, 0
2, 307758, Note_off_c, 0, 60, 52
2, 307776, Control_c, 0, 64, 110
2, 307813, Note_on_c, 0, 65, 48
2, 307971, Note_off_c, 0, 65, 52
2, 308017, Note_on_c, 0, 65, 42
2, 308200, Note_off_c, 0, 65, 50
2, 308240, Note_off_c, 0, 75, 58
2, 308243, Note_on_c, 0, 74, 48
2, 308293, Note_off_c, 0, 74, 52
2, 308293, Note_on_c, 0, 72, 48
2, 308293, Note_on_c, 0, 63, 36
2, 308300, Control_c, 0, 64, 0
2, 308464, Note_off_c, 0, 63, 49
2, 308480, Control_c, 0, 64, 110
2, 308516, Note_on_c, 0, 71, 56
2, 308519, Note_on_c, 0, 65, 36
2, 308543, Note_off_c, 0, 72, 52
2, 308664, Note_off_c, 0, 65, 49
2, 308737, Note_on_c, 0, 72, 64
2, 308740, Note_on_c, 0, 65, 42
2, 308783, Note_off_c, 0, 71, 54
2, 308893, Note_off_c, 0, 72, 56
2, 308911, Note_off_c, 0, 65, 50
2, 308944, Note_on_c, 0, 77, 72
2, 308946, Note_on_c, 0, 62, 48
2, 308950, Control_c, 0, 64, 0
2, 309123, Note_off_c, 0, 62, 52
2, 309130, Control_c, 0, 64, 110
2, 309167, Note_on_c, 0, 58, 48
2, 309344, Note_off_c, 0, 58, 52
2, 309390, Note_on_c, 0, 58, 44
2, 309575, Note_off_c, 0, 58, 51
2, 309613, Note_on_c, 0, 51, 40
2, 309620, Control_c, 0, 64, 0
2, 309776, Note_off_c, 0, 51, 50
2, 309800, Control_c, 0, 64, 110
2, 309836, Note_on_c, 0, 78, 48
2, 309839, Note_on_c, 0, 58, 36
2, 309876, Note_off_c, 0, 77, 58
2, 309997, Note_off_c, 0, 58, 49
2, 310040, Note_on_c, 0, 79, 52
2, 310040, Note_on_c, 0, 58, 36
2, 310090, Note_off_c, 0, 78, 52
2, 310217, Note_off_c, 0, 79, 53
2, 310224, Note_off_c, 0, 58, 49
2, 310266, Note_on_c, 0, 70, 57
2, 310266, Note_on_c, 0, 53, 36
2, 310270, Control_c, 0, 64, 0
2, 310443, Note_off_c, 0, 53, 49
2, 310450, Control_c, 0, 64, 110
2, 310487, Note_on_c, 0, 58, 36
2, 310555, Note_off_c, 0, 70, 54
2, 310571, Note_on_c, 0, 72, 64
2, 310657, Note_off_c, 0, 72, 56
2, 310658, Note_off_c, 0, 58, 49
2, 310660, Note_on_c, 0, 70, 66
2, 310710, Note_on_c, 0, 58, 36
2, 310744, Note_on_c, 0, 69, 68
2, 310753, Note_off_c, 0, 70, 56
2, 310830, Note_off_c, 0, 69, 57
2, 310830, Note_on_c, 0, 70, 70
2, 310888, Note_off_c, 0, 58, 49
2, 310931, Note_off_c, 0, 70, 57
2, 310933, Note_on_c, 0, 74, 72
2, 310936, Note_on_c, 0, 53, 36
2, 310944, Control_c, 0, 64, 0
2, 311105, Note_off_c, 0, 53, 49
2, 311123, Control_c, 0, 64, 110
2, 311137, Note_on_c, 0, 57, 36
2, 311311, Note_off_c, 0, 57, 49
2, 311360, Note_on_c, 0, 72, 60
2, 311360, Note_on_c, 0, 57, 36
2, 311370, Note_off_c, 0, 74, 58
2, 311514, Note_off_c, 0, 72, 55
2, 311544, Note_off_c, 0, 57, 49
2, 311567, Note_on_c, 0, 70, 48
2, 311567, Note_on_c, 0, 46, 36
2, 311574, Control_c, 0, 64, 0
2, 311753, Control_c, 0, 64, 110
2, 311757, Note_off_c, 0, 46, 49
2, 311790, Note_on_c, 0, 58, 36
2, 311942, Note_off_c, 0, 58, 49
2, 311977, Note_off_c, 0, 70, 52
2, 312011, Note_on_c, 0, 58, 37
2, 312234, Note_off_c, 0, 58, 49
2, 312236, Note_on_c, 0, 72, 51
2, 312287, Note_off_c, 0, 72, 52
2, 312287, Note_on_c, 0, 70, 51
2, 312294, Control_c, 0, 64, 0
2, 312473, Control_c, 0, 64, 110
2, 312493, Note_on_c, 0, 69, 54
2, 312527, Note_off_c, 0, 70, 52
2, 312714, Note_on_c, 0, 70, 57
2, 312789, Note_off_c, 0, 69, 53
2, 312868, Note_off_c, 0, 70, 54
2, 312920, Note_on_c, 0, 77, 51
2, 312920, Note_on_c, 0, 70, 41
2, 312923, Note_on_c, 0, 62, 36
2, 312957, Control_c, 0, 64, 0
2, 313114, Note_off_c, 0, 62, 49
2, 313136, Control_c, 0, 64, 110
2, 313144, Note_on_c, 0, 65, 40
2, 313260, Note_off_c, 0, 77, 52
2, 313315, Note_off_c, 0, 65, 50
2, 313348, Note_on_c, 0, 77, 63
2, 313350, Note_on_c, 0, 65, 43
2, 313503, Note_off_c, 0, 70, 50
2, 313512, Note_off_c, 0, 77, 55
2, 313526, Note_off_c, 0, 65, 50
2, 313571, Note_on_c, 0, 77, 70
2, 313573, Note_on_c, 0, 71, 58
2, 313573, Note_on_c, 0, 61, 47
2, 313584, Control_c, 0, 64, 0
2, 313759, Note_off_c, 0, 61, 51
2, 313763, Control_c, 0, 64, 110
2, 313794, Note_on_c, 0, 65, 51
2, 313948, Note_off_c, 0, 77, 57
2, 313961, Note_off_c, 0, 65, 52
2, 314017, Note_on_c, 0, 77, 81
2, 314017, Note_on_c, 0, 65, 54
2, 314196, Note_off_c, 0, 77, 60
2, 314206, Note_off_c, 0, 71, 54
2, 314238, Note_off_c, 0, 65, 53
2, 314260, Note_on_c, 0, 77, 71
2, 314260, Note_on_c, 0, 72, 57
2, 314262, Note_on_c, 0, 60, 43
2, 314267, Control_c, 0, 64, 0
2, 314446, Control_c, 0, 64, 110
2, 314454, Note_off_c, 0, 60, 50
2, 314480, Note_on_c, 0, 67, 36
2, 314605, Note_off_c, 0, 67, 49
2, 314701, Note_on_c, 0, 76, 48
2, 314704, Note_on_c, 0, 67, 38
2, 314756, Note_off_c, 0, 77, 58
2, 314870, Note_off_c, 0, 67, 49
2, 314893, Note_off_c, 0, 72, 54
2, 314940, Control_c, 0, 64, 0
2, 314941, Note_off_c, 0, 76, 52
2, 314946, Note_on_c, 0, 74, 48
2, 314994, Note_off_c, 0, 74, 52
2, 314994, Note_on_c, 0, 72, 48
2, 314996, Note_on_c, 0, 67, 41
2, 315109, Note_off_c, 0, 67, 50
2, 315120, Control_c, 0, 64, 110
2, 315200, Note_on_c, 0, 71, 52
2, 315200, Note_on_c, 0, 67, 44
2, 315240, Note_off_c, 0, 72, 52
2, 315340, Note_off_c, 0, 67, 51
2, 315421, Note_on_c, 0, 72, 57
2, 315424, Note_on_c, 0, 67, 46
2, 315463, Note_off_c, 0, 71, 53
2, 315561, Note_off_c, 0, 67, 51
2, 315569, Note_off_c, 0, 72, 54
2, 315618, Note_on_c, 0, 75, 52
2, 315628, Note_on_c, 0, 72, 42
2, 315630, Note_on_c, 0, 60, 42
2, 315634, Control_c, 0, 64, 0
2, 315800, Note_off_c, 0, 60, 50
2, 315813, Control_c, 0, 64, 110
2, 315851, Note_on_c, 0, 67, 47
2, 315928, Note_off_c, 0, 75, 53
2, 315988, Note_off_c, 0, 67, 51
2, 316064, Note_on_c, 0, 75, 67
2, 316074, Note_on_c, 0, 67, 52
2, 316184, Note_off_c, 0, 72, 50
2, 316218, Note_off_c, 0, 75, 57
2, 316224, Note_off_c, 0, 67, 53
2, 316287, Note_on_c, 0, 75, 77
2, 316297, Note_on_c, 0, 72, 64
2, 316297, Note_on_c, 0, 57, 58
2, 316300, Control_c, 0, 64, 0
2, 316480, Control_c, 0, 64, 110
2, 316481, Note_off_c, 0, 57, 54
2, 316520, Note_on_c, 0, 66, 65
2, 316631, Note_off_c, 0, 75, 59
2, 316667, Note_off_c, 0, 66, 56
2, 316731, Note_on_c, 0, 75, 95
2, 316744, Note_on_c, 0, 66, 68
2, 316860, Note_off_c, 0, 72, 56
2, 316888, Note_off_c, 0, 75, 64
2, 316909, Note_off_c, 0, 66, 57
2, 316954, Note_on_c, 0, 75, 71
2, 316964, Note_on_c, 0, 70, 57
2, 316967, Note_on_c, 0, 58, 57
2, 316970, Control_c, 0, 64, 0
2, 317147, Note_off_c, 0, 58, 54
2, 317150, Control_c, 0, 64, 110
2, 317188, Note_on_c, 0, 65, 48
2, 317349, Note_off_c, 0, 65, 52
2, 317428, Note_on_c, 0, 74, 48
2, 317428, Note_on_c, 0, 65, 47
2, 317463, Note_off_c, 0, 75, 58
2, 317480, Note_off_c, 0, 70, 54
2, 317572, Note_off_c, 0, 65, 51
2, 317598, Note_off_c, 0, 74, 52
2, 317603, Note_on_c, 0, 75, 48
2, 317651, Note_off_c, 0, 75, 52
2, 317651, Note_on_c, 0, 74, 48
2, 317653, Note_on_c, 0, 65, 45
2, 317660, Control_c, 0, 64, 0
2, 317795, Note_off_c, 0, 65, 51
2, 317840, Control_c, 0, 64, 110
2, 317874, Note_on_c, 0, 72, 52
2, 317874, Note_on_c, 0, 65, 44
2, 317915, Note_off_c, 0, 74, 52
2, 318030, Note_off_c, 0, 65, 51
2, 318078, Note_on_c, 0, 74, 56
2, 318080, Note_on_c, 0, 65, 42
2, 318143, Note_off_c, 0, 72, 53
2, 318235, Note_off_c, 0, 74, 54
2, 318301, Note_off_c, 0, 65, 50
2, 318301, Note_on_c, 0, 75, 60
2, 318304, Note_on_c, 0, 60, 41
2, 318314, Control_c, 0, 64, 0
2, 318493, Control_c, 0, 64, 110
2, 318524, Note_off_c, 0, 60, 50
2, 318524, Note_on_c, 0, 65, 39
2, 318686, Note_off_c, 0, 65, 49
2, 318748, Note_on_c, 0, 65, 38
2, 318929, Note_off_c, 0, 65, 49
2, 318971, Note_off_c, 0, 75, 55
2, 318971, Note_on_c, 0, 74, 48
2, 318974, Control_c, 0, 64, 0
2, 319021, Note_off_c, 0, 74, 52
2, 319021, Note_on_c, 0, 72, 48
2, 319024, Note_on_c, 0, 63, 36
2, 319153, Control_c, 0, 64, 110
2, 319202, Note_off_c, 0, 63, 49
2, 319228, Note_on_c, 0, 71, 48
2, 319230, Note_on_c, 0, 65, 36
2, 319303, Note_off_c, 0, 72, 52
2, 319386, Note_off_c, 0, 65, 49
2, 319451, Note_on_c, 0, 72, 52
2, 319451, Note_on_c, 0, 65, 37
2, 319490, Note_off_c, 0, 71, 52
2, 319604, Note_off_c, 0, 72, 53
2, 319619, Note_off_c, 0, 65, 49
2, 319657, Note_on_c, 0, 77, 56
2, 319657, Note_on_c, 0, 62, 39
2, 319664, Control_c, 0, 64, 0
2, 319839, Note_off_c, 0, 62, 49
2, 319843, Control_c, 0, 64, 110
2, 319878, Note_on_c, 0, 58, 41
2, 320053, Note_off_c, 0, 58, 50
2, 320101, Note_on_c, 0, 58, 42
2, 320324, Note_off_c, 0, 58, 50
2, 320324, Note_on_c, 0, 51, 44
2, 320337, Control_c, 0, 64, 0
2, 320516, Control_c, 0, 64, 110
2, 320548, Note_off_c, 0, 51, 51
2, 320548, Note_on_c, 0, 78, 72
2, 320550, Note_on_c, 0, 58, 46
2, 320583, Note_off_c, 0, 77, 54
2, 320771, Note_off_c, 0, 58, 51
2, 320771, Note_on_c, 0, 79, 72
2, 320773, Note_on_c, 0, 63, 48
2, 320803, Note_off_c, 0, 78, 58
2, 320924, Note_off_c, 0, 79, 58
2, 320992, Note_off_c, 0, 63, 52
2, 320994, Note_on_c, 0, 70, 48
2, 320994, Note_on_c, 0, 53, 36
2, 321007, Control_c, 0, 64, 0
2, 321186, Control_c, 0, 64, 110
2, 321198, Note_off_c, 0, 53, 49
2, 321198, Note_on_c, 0, 58, 36
2, 321281, Note_off_c, 0, 70, 52
2, 321284, Note_on_c, 0, 72, 48
2, 321368, Note_off_c, 0, 72, 52
2, 321371, Note_on_c, 0, 70, 48
2, 321404, Note_off_c, 0, 58, 49
2, 321404, Note_on_c, 0, 62, 36
2, 321455, Note_off_c, 0, 70, 52
2, 321455, Note_on_c, 0, 69, 52
2, 321541, Note_off_c, 0, 69, 53
2, 321541, Note_on_c, 0, 70, 56
2, 321628, Note_off_c, 0, 62, 49
2, 321628, Note_off_c, 0, 70, 54
2, 321628, Note_on_c, 0, 74, 61
2, 321630, Note_on_c, 0, 53, 36
2, 321654, Control_c, 0, 64, 0
2, 321832, Note_off_c, 0, 53, 49
2, 321833, Control_c, 0, 64, 110
2, 321834, Note_on_c, 0, 57, 36
2, 322055, Note_off_c, 0, 57, 49
2, 322057, Note_on_c, 0, 72, 72
2, 322057, Note_on_c, 0, 63, 36
2, 322090, Note_off_c, 0, 74, 55
2, 322208, Note_off_c, 0, 72, 58
2, 322278, Note_off_c, 0, 63, 49
2, 322278, Note_on_c, 0, 70, 48
2, 322290, Note_on_c, 0, 58, 36
2, 322290, Note_on_c, 0, 62, 30
2, 322294, Control_c, 0, 64, 0
2, 322473, Control_c, 0, 64, 110
2, 322575, Note_off_c, 0, 62, 47
2, 322639, Note_off_c, 0, 58, 49
2, 322688, Note_off_c, 0, 70, 52
2, 322705, Note_on_c, 0, 74, 84
2, 322708, Note_on_c, 0, 62, 72
2, 322744, Control_c, 0, 64, 0
2, 322928, Note_off_c, 0, 74, 61
2, 322931, Note_off_c, 0, 62, 58
2, 322931, Note_on_c, 0, 75, 84
2, 322931, Note_on_c, 0, 63, 72
2, 322998, Note_off_c, 0, 75, 61
2, 322998, Note_off_c, 0, 63, 58
2, 323000, Note_on_c, 0, 74, 84
2, 323000, Note_on_c, 0, 62, 72
2, 323221, Note_off_c, 0, 74, 61
2, 323221, Note_off_c, 0, 62, 58
2, 323221, Note_on_c, 0, 73, 80
2, 323224, Note_on_c, 0, 61, 68
2, 323442, Note_off_c, 0, 73, 60
2, 323444, Note_off_c, 0, 61, 57
2, 323444, Note_on_c, 0, 74, 76
2, 323447, Note_on_c, 0, 62, 64
2, 323682, Note_off_c, 0, 74, 59
2, 323683, Control_c, 0, 64, 110
2, 323684, Note_off_c, 0, 62, 56
2, 323684, Note_on_c, 0, 75, 72
2, 323687, Note_on_c, 0, 63, 60
2, 324090, Control_c, 0, 64, 0
2, 324145, Note_off_c, 0, 75, 58
2, 324148, Note_off_c, 0, 63, 55
2, 324148, Note_on_c, 0, 74, 84
2, 324150, Note_on_c, 0, 62, 72
2, 324352, Note_off_c, 0, 74, 61
2, 324352, Note_off_c, 0, 62, 58
2, 324354, Note_on_c, 0, 72, 84
2, 324354, Note_on_c, 0, 60, 72
2, 324575, Note_off_c, 0, 72, 61
2, 324575, Note_off_c, 0, 60, 58
2, 324577, Note_on_c, 0, 70, 81
2, 324577, Note_on_c, 0, 58, 69
2, 324798, Note_off_c, 0, 70, 60
2, 324798, Note_off_c, 0, 58, 57
2, 324798, Note_on_c, 0, 69, 78
2, 324800, Note_on_c, 0, 57, 66
2, 325019, Note_off_c, 0, 69, 59
2, 325021, Note_off_c, 0, 57, 56
2, 325021, Note_on_c, 0, 74, 75
2, 325024, Note_on_c, 0, 62, 63
2, 325050, Control_c, 0, 64, 127
2, 325450, Control_c, 0, 64, 0
2, 325482, Note_off_c, 0, 74, 59
2, 325484, Note_off_c, 0, 62, 55
2, 325484, Note_on_c, 0, 72, 69
2, 325484, Note_on_c, 0, 60, 57
2, 325705, Note_off_c, 0, 72, 57
2, 325708, Note_off_c, 0, 60, 54
2, 325708, Note_on_c, 0, 70, 66
2, 325708, Note_on_c, 0, 58, 54
2, 325912, Note_off_c, 0, 70, 56
2, 325912, Note_off_c, 0, 58, 53
2, 325914, Note_on_c, 0, 69, 63
2, 325914, Note_on_c, 0, 57, 51
2, 326135, Note_off_c, 0, 69, 55
2, 326135, Note_off_c, 0, 57, 52
2, 326137, Note_on_c, 0, 67, 60
2, 326137, Note_on_c, 0, 55, 48
2, 326356, Note_off_c, 0, 67, 55
2, 326358, Note_off_c, 0, 55, 52
2, 326358, Note_on_c, 0, 63, 60
2, 326360, Note_on_c, 0, 57, 48
2, 326370, Note_on_c, 0, 48, 42
2, 326383, Control_c, 0, 64, 120
2, 326579, Note_off_c, 0, 63, 55
2, 326581, Note_on_c, 0, 72, 72
2, 326802, Note_off_c, 0, 72, 58
2, 326804, Note_on_c, 0, 70, 72
2, 326896, Note_off_c, 0, 48, 50
2, 327025, Note_off_c, 0, 70, 58
2, 327025, Note_off_c, 0, 57, 52
2, 327028, Note_on_c, 0, 69, 64
2, 327030, Note_on_c, 0, 60, 42
2, 327033, Control_c, 0, 64, 0
2, 327040, Note_on_c, 0, 50, 36
2, 327206, Control_c, 0, 64, 118
2, 327265, Note_off_c, 0, 69, 56
2, 327265, Note_on_c, 0, 67, 56
2, 327505, Note_off_c, 0, 67, 54
2, 327505, Note_on_c, 0, 66, 48
2, 327698, Note_off_c, 0, 50, 49
2, 327745, Note_off_c, 0, 66, 52
2, 327745, Note_off_c, 0, 60, 50
2, 327748, Note_on_c, 0, 67, 72
2, 327750, Note_on_c, 0, 55, 36
2, 327770, Control_c, 0, 64, 0
2, 327865, Note_on_c, 0, 62, 36
2, 327941, Control_c, 0, 64, 110
2, 327982, Note_off_c, 0, 55, 49
2, 327985, Note_off_c, 0, 62, 49
2, 327985, Note_on_c, 0, 58, 36
2, 328088, Note_off_c, 0, 58, 49
2, 328088, Note_on_c, 0, 62, 37
2, 328208, Note_off_c, 0, 67, 58
2, 328208, Note_off_c, 0, 62, 49
2, 328208, Note_on_c, 0, 86, 48
2, 328211, Note_on_c, 0, 58, 37
2, 328312, Note_off_c, 0, 58, 49
2, 328312, Note_on_c, 0, 62, 38
2, 328350, Note_off_c, 0, 86, 52
2, 328398, Note_off_c, 0, 62, 49
2, 328412, Note_on_c, 0, 86, 48
2, 328415, Note_on_c, 0, 54, 38
2, 328436, Control_c, 0, 64, 0
2, 328535, Note_on_c, 0, 62, 39
2, 328608, Control_c, 0, 64, 110
2, 328638, Note_off_c, 0, 62, 49
2, 328638, Note_on_c, 0, 85, 50
2, 328640, Note_on_c, 0, 57, 39
2, 328643, Note_off_c, 0, 54, 49
2, 328676, Note_off_c, 0, 86, 52
2, 328739, Note_off_c, 0, 57, 49
2, 328739, Note_on_c, 0, 62, 40
2, 328792, Note_off_c, 0, 85, 52
2, 328842, Note_off_c, 0, 62, 50
2, 328842, Note_on_c, 0, 86, 53
2, 328844, Note_on_c, 0, 57, 40
2, 328962, Note_off_c, 0, 86, 53
2, 328962, Note_off_c, 0, 57, 50
2, 328964, Note_on_c, 0, 62, 41
2, 329065, Note_off_c, 0, 62, 50
2, 329065, Note_on_c, 0, 86, 56
2, 329068, Note_on_c, 0, 55, 41
2, 329080, Control_c, 0, 64, 0
2, 329168, Note_on_c, 0, 62, 42
2, 329251, Control_c, 0, 64, 110
2, 329268, Note_off_c, 0, 55, 50
2, 329272, Note_off_c, 0, 62, 50
2, 329272, Note_on_c, 0, 85, 58
2, 329274, Note_on_c, 0, 58, 42
2, 329312, Note_off_c, 0, 86, 54
2, 329372, Note_off_c, 0, 58, 50
2, 329375, Note_on_c, 0, 62, 43
2, 329442, Note_off_c, 0, 85, 54
2, 329492, Note_off_c, 0, 62, 50
2, 329495, Note_on_c, 0, 86, 61
2, 329495, Note_on_c, 0, 58, 43
2, 329596, Note_off_c, 0, 86, 55
2, 329598, Note_off_c, 0, 58, 50
2, 329598, Note_on_c, 0, 62, 44
2, 329699, Note_off_c, 0, 62, 51
2, 329699, Note_on_c, 0, 86, 64
2, 329701, Note_on_c, 0, 54, 44
2, 329720, Control_c, 0, 64, 0
2, 329802, Note_on_c, 0, 62, 45
2, 329885, Note_off_c, 0, 54, 51
2, 329891, Control_c, 0, 64, 110
2, 329922, Note_off_c, 0, 62, 51
2, 329924, Note_on_c, 0, 85, 66
2, 329924, Note_on_c, 0, 57, 45
2, 329962, Note_off_c, 0, 86, 56
2, 330025, Note_off_c, 0, 57, 51
2, 330025, Note_on_c, 0, 62, 46
2, 330076, Note_off_c, 0, 85, 56
2, 330128, Note_off_c, 0, 62, 51
2, 330128, Note_on_c, 0, 86, 69
2, 330128, Note_on_c, 0, 57, 46
2, 330229, Note_off_c, 0, 86, 57
2, 330232, Note_off_c, 0, 57, 51
2, 330232, Note_on_c, 0, 62, 47
2, 330332, Note_off_c, 0, 62, 51
2, 330335, Note_on_c, 0, 86, 72
2, 330335, Note_on_c, 0, 55, 48
2, 330346, Control_c, 0, 64, 0
2, 330455, Note_on_c, 0, 62, 48
2, 330518, Control_c, 0, 64, 110
2, 330554, Note_off_c, 0, 55, 52
2, 330556, Note_off_c, 0, 62, 52
2, 330558, Note_on_c, 0, 84, 71
2, 330558, Note_on_c, 0, 58, 48
2, 330596, Note_off_c, 0, 86, 58
2, 330659, Note_off_c, 0, 58, 52
2, 330659, Note_on_c, 0, 62, 47
2, 330709, Note_off_c, 0, 84, 58
2, 330779, Note_off_c, 0, 62, 51
2, 330779, Note_on_c, 0, 82, 68
2, 330781, Note_on_c, 0, 58, 45
2, 330882, Note_off_c, 0, 82, 57
2, 330882, Note_off_c, 0, 58, 51
2, 330882, Note_on_c, 0, 62, 44
2, 330932, Note_off_c, 0, 62, 51
2, 330935, Note_on_c, 0, 84, 65
2, 330985, Note_off_c, 0, 84, 56
2, 330985, Note_on_c, 0, 82, 65
2, 330988, Note_on_c, 0, 55, 42
2, 330993, Control_c, 0, 64, 0
2, 331105, Note_on_c, 0, 62, 41
2, 331164, Control_c, 0, 64, 110
2, 331208, Note_off_c, 0, 55, 50
2, 331208, Note_off_c, 0, 62, 50
2, 331208, Note_on_c, 0, 81, 62
2, 331211, Note_on_c, 0, 58, 39
2, 331246, Note_off_c, 0, 82, 56
2, 331309, Note_off_c, 0, 58, 49
2, 331312, Note_on_c, 0, 62, 38
2, 331379, Note_off_c, 0, 81, 55
2, 331429, Note_off_c, 0, 62, 49
2, 331432, Note_on_c, 0, 79, 60
2, 331432, Note_on_c, 0, 58, 36
2, 331532, Note_off_c, 0, 79, 55
2, 331532, Note_off_c, 0, 58, 49
2, 331535, Note_on_c, 0, 62, 36
2, 331652, Note_off_c, 0, 62, 49
2, 331652, Note_on_c, 0, 77, 72
2, 331655, Note_on_c, 0, 57, 48
2, 331663, Control_c, 0, 64, 0
2, 331756, Note_on_c, 0, 62, 48
2, 331834, Control_c, 0, 64, 110
2, 331842, Note_off_c, 0, 57, 52
2, 331876, Note_off_c, 0, 62, 52
2, 331878, Note_on_c, 0, 79, 71
2, 331878, Note_on_c, 0, 57, 47
2, 331916, Note_off_c, 0, 77, 58
2, 331979, Note_off_c, 0, 57, 51
2, 331979, Note_on_c, 0, 62, 46
2, 332046, Note_off_c, 0, 79, 58
2, 332099, Note_off_c, 0, 62, 51
2, 332099, Note_on_c, 0, 76, 68
2, 332101, Note_on_c, 0, 57, 45
2, 332219, Note_off_c, 0, 76, 57
2, 332219, Note_off_c, 0, 57, 51
2, 332221, Note_on_c, 0, 61, 44
2, 332322, Note_off_c, 0, 61, 51
2, 332322, Note_on_c, 0, 74, 65
2, 332322, Note_on_c, 0, 50, 43
2, 332333, Control_c, 0, 64, 0
2, 332442, Note_on_c, 0, 62, 42
2, 332504, Control_c, 0, 64, 110
2, 332562, Note_off_c, 0, 62, 50
2, 332562, Note_on_c, 0, 61, 41
2, 332572, Note_off_c, 0, 50, 50
2, 332663, Note_off_c, 0, 61, 50
2, 332665, Note_on_c, 0, 62, 40
2, 332730, Note_off_c, 0, 74, 56
2, 332768, Note_off_c, 0, 62, 50
2, 332783, Note_on_c, 0, 74, 60
2, 332785, Note_on_c, 0, 60, 39
2, 332903, Note_off_c, 0, 60, 49
2, 332905, Note_on_c, 0, 57, 38
2, 332956, Note_off_c, 0, 74, 55
2, 332956, Note_off_c, 0, 57, 49
2, 332958, Note_on_c, 0, 87, 48
2, 332963, Control_c, 0, 64, 0
2, 333006, Note_off_c, 0, 87, 52
2, 333008, Note_on_c, 0, 86, 48
2, 333008, Note_on_c, 0, 55, 36
2, 333128, Note_on_c, 0, 62, 36
2, 333134, Control_c, 0, 64, 110
2, 333229, Note_off_c, 0, 62, 49
2, 333232, Note_on_c, 0, 85, 49
2, 333232, Note_on_c, 0, 58, 37
2, 333265, Note_off_c, 0, 55, 49
2, 333269, Note_off_c, 0, 86, 52
2, 333332, Note_off_c, 0, 58, 49
2, 333332, Note_on_c, 0, 62, 38
2, 333383, Note_off_c, 0, 85, 52
2, 333436, Note_off_c, 0, 62, 49
2, 333436, Note_on_c, 0, 86, 52
2, 333438, Note_on_c, 0, 58, 39
2, 333532, Note_off_c, 0, 86, 53
2, 333556, Note_off_c, 0, 58, 49
2, 333558, Note_on_c, 0, 62, 40
2, 333606, Note_off_c, 0, 62, 50
2, 333608, Note_on_c, 0, 87, 55
2, 333613, Control_c, 0, 64, 0
2, 333659, Note_off_c, 0, 87, 53
2, 333659, Note_on_c, 0, 86, 55
2, 333659, Note_on_c, 0, 54, 41
2, 333762, Note_on_c, 0, 62, 42
2, 333784, Control_c, 0, 64, 110
2, 333859, Note_off_c, 0, 54, 50
2, 333865, Note_off_c, 0, 62, 50
2, 333865, Note_on_c, 0, 85, 58
2, 333868, Note_on_c, 0, 57, 43
2, 333903, Note_off_c, 0, 86, 53
2, 333966, Note_off_c, 0, 57, 50
2, 333968, Note_on_c, 0, 62, 44
2, 334036, Note_off_c, 0, 85, 54
2, 334086, Note_off_c, 0, 62, 51
2, 334088, Note_on_c, 0, 86, 62
2, 334088, Note_on_c, 0, 57, 45
2, 334170, Note_off_c, 0, 86, 55
2, 334189, Note_off_c, 0, 57, 51
2, 334192, Note_on_c, 0, 62, 46
2, 334240, Note_off_c, 0, 62, 51
2, 334242, Note_on_c, 0, 87, 65
2, 334292, Note_off_c, 0, 87, 56
2, 334292, Note_on_c, 0, 86, 65
2, 334295, Note_on_c, 0, 55, 47
2, 334310, Control_c, 0, 64, 0
2, 334396, Note_on_c, 0, 62, 48
2, 334481, Control_c, 0, 64, 110
2, 334485, Note_off_c, 0, 55, 51
2, 334516, Note_off_c, 0, 62, 52
2, 334516, Note_on_c, 0, 85, 68
2, 334518, Note_on_c, 0, 58, 49
2, 334556, Note_off_c, 0, 86, 56
2, 334619, Note_off_c, 0, 58, 52
2, 334619, Note_on_c, 0, 62, 50
2, 334669, Note_off_c, 0, 85, 57
2, 334739, Note_off_c, 0, 62, 52
2, 334739, Note_on_c, 0, 86, 71
2, 334739, Note_on_c, 0, 58, 51
2, 334840, Note_off_c, 0, 86, 58
2, 334842, Note_off_c, 0, 58, 52
2, 334842, Note_on_c, 0, 62, 52
2, 334909, Note_off_c, 0, 62, 53
2, 334909, Note_on_c, 0, 89, 74
2, 334960, Note_off_c, 0, 89, 59
2, 334962, Note_on_c, 0, 87, 74
2, 334962, Note_on_c, 0, 55, 53
2, 334973, Control_c, 0, 64, 0
2, 335082, Note_on_c, 0, 63, 54
2, 335144, Control_c, 0, 64, 110
2, 335175, Note_off_c, 0, 55, 53
2, 335185, Note_off_c, 0, 63, 53
2, 335185, Note_on_c, 0, 86, 77
2, 335185, Note_on_c, 0, 58, 55
2, 335236, Note_off_c, 0, 87, 59
2, 335303, Note_off_c, 0, 58, 53
2, 335305, Note_on_c, 0, 63, 56
2, 335372, Note_off_c, 0, 86, 59
2, 335423, Note_off_c, 0, 63, 54
2, 335425, Note_on_c, 0, 87, 80
2, 335425, Note_on_c, 0, 58, 57
2, 335507, Note_off_c, 0, 87, 60
2, 335545, Note_off_c, 0, 58, 54
2, 335545, Note_on_c, 0, 63, 58
2, 335612, Note_off_c, 0, 63, 54
2, 335612, Note_on_c, 0, 77, 84
2, 335663, Note_off_c, 0, 77, 61
2, 335665, Note_on_c, 0, 89, 90
2, 335665, Note_on_c, 0, 57, 60
2, 335666, Control_c, 0, 64, 0
2, 335785, Note_on_c, 0, 65, 60
2, 335838, Control_c, 0, 64, 110
2, 335903, Note_off_c, 0, 65, 55
2, 335905, Note_on_c, 0, 60, 59
2, 335909, Note_off_c, 0, 57, 55
2, 336023, Note_off_c, 0, 60, 54
2, 336025, Note_on_c, 0, 65, 58
2, 336143, Note_off_c, 0, 65, 54
2, 336143, Note_on_c, 0, 60, 57
2, 336246, Note_off_c, 0, 60, 54
2, 336246, Note_on_c, 0, 65, 56
2, 336350, Control_c, 0, 64, 0
2, 336366, Note_off_c, 0, 65, 54
2, 336366, Note_on_c, 0, 58, 55
2, 336469, Note_on_c, 0, 65, 54
2, 336521, Control_c, 0, 64, 110
2, 336566, Note_off_c, 0, 89, 62
2, 336582, Note_off_c, 0, 58, 53
2, 336589, Note_off_c, 0, 65, 53
2, 336592, Note_on_c, 0, 87, 60
2, 336592, Note_on_c, 0, 62, 53
2, 336692, Note_off_c, 0, 62, 53
2, 336692, Note_on_c, 0, 65, 52
2, 336770, Note_off_c, 0, 87, 55
2, 336796, Note_off_c, 0, 65, 53
2, 336796, Note_on_c, 0, 86, 48
2, 336798, Note_on_c, 0, 62, 51
2, 336896, Note_off_c, 0, 62, 52
2, 336899, Note_on_c, 0, 65, 50
2, 336949, Note_off_c, 0, 86, 52
2, 336949, Note_off_c, 0, 65, 52
2, 336952, Note_on_c, 0, 75, 72
2, 337000, Note_off_c, 0, 75, 58
2, 337002, Note_on_c, 0, 87, 72
2, 337002, Note_on_c, 0, 55, 48
2, 337013, Control_c, 0, 64, 0
2, 337122, Note_on_c, 0, 63, 48
2, 337184, Control_c, 0, 64, 110
2, 337240, Note_off_c, 0, 63, 52
2, 337242, Note_on_c, 0, 58, 47
2, 337257, Note_off_c, 0, 55, 52
2, 337343, Note_off_c, 0, 58, 51
2, 337343, Note_on_c, 0, 63, 46
2, 337463, Note_off_c, 0, 63, 51
2, 337463, Note_on_c, 0, 58, 44
2, 337566, Note_off_c, 0, 58, 51
2, 337566, Note_on_c, 0, 63, 43
2, 337669, Note_off_c, 0, 63, 50
2, 337669, Note_on_c, 0, 57, 42
2, 337680, Control_c, 0, 64, 0
2, 337789, Note_on_c, 0, 63, 40
2, 337851, Control_c, 0, 64, 110
2, 337869, Note_off_c, 0, 87, 58
2, 337890, Note_off_c, 0, 57, 50
2, 337892, Note_off_c, 0, 63, 50
2, 337892, Note_on_c, 0, 86, 60
2, 337895, Note_on_c, 0, 60, 39
2, 337993, Note_off_c, 0, 60, 49
2, 337996, Note_on_c, 0, 63, 38
2, 338090, Note_off_c, 0, 86, 55
2, 338116, Note_off_c, 0, 63, 49
2, 338116, Note_on_c, 0, 84, 48
2, 338118, Note_on_c, 0, 60, 36
2, 338216, Note_off_c, 0, 60, 49
2, 338219, Note_on_c, 0, 63, 36
2, 338286, Note_off_c, 0, 84, 52
2, 338286, Note_off_c, 0, 63, 49
2, 338288, Note_on_c, 0, 74, 72
2, 338313, Control_c, 0, 64, 0
2, 338336, Note_off_c, 0, 74, 58
2, 338339, Note_on_c, 0, 86, 72
2, 338339, Note_on_c, 0, 54, 48
2, 338459, Note_on_c, 0, 62, 48
2, 338484, Control_c, 0, 64, 110
2, 338560, Note_off_c, 0, 62, 52
2, 338560, Note_on_c, 0, 57, 47
2, 338573, Note_off_c, 0, 54, 52
2, 338680, Note_off_c, 0, 57, 51
2, 338680, Note_on_c, 0, 62, 46
2, 338800, Note_off_c, 0, 62, 51
2, 338800, Note_on_c, 0, 57, 45
2, 338903, Note_off_c, 0, 57, 51
2, 338903, Note_on_c, 0, 62, 44
2, 338933, Control_c, 0, 64, 0
2, 339006, Note_off_c, 0, 62, 51
2, 339006, Note_on_c, 0, 55, 42
2, 339104, Control_c, 0, 64, 110
2, 339126, Note_on_c, 0, 62, 41
2, 339229, Note_off_c, 0, 86, 58
2, 339229, Note_off_c, 0, 62, 50
2, 339229, Note_on_c, 0, 84, 60
2, 339232, Note_on_c, 0, 58, 40
2, 339250, Note_off_c, 0, 55, 50
2, 339330, Note_off_c, 0, 58, 50
2, 339332, Note_on_c, 0, 62, 39
2, 339433, Note_off_c, 0, 84, 55
2, 339436, Note_off_c, 0, 62, 49
2, 339436, Note_on_c, 0, 82, 48
2, 339436, Note_on_c, 0, 58, 38
2, 339553, Note_off_c, 0, 58, 49
2, 339556, Note_on_c, 0, 62, 36
2, 339656, Note_off_c, 0, 82, 52
2, 339656, Note_off_c, 0, 62, 49
2, 339659, Note_on_c, 0, 81, 72
2, 339659, Note_on_c, 0, 48, 48
2, 339666, Control_c, 0, 64, 0
2, 339760, Note_on_c, 0, 63, 48
2, 339838, Control_c, 0, 64, 110
2, 339858, Note_off_c, 0, 48, 52
2, 339863, Note_off_c, 0, 63, 52
2, 339863, Note_off_c, 0, 81, 58
2, 339865, Note_on_c, 0, 82, 72
2, 339865, Note_on_c, 0, 58, 52
2, 339983, Note_off_c, 0, 58, 53
2, 339983, Note_on_c, 0, 63, 56
2, 340086, Note_off_c, 0, 82, 58
2, 340086, Note_off_c, 0, 63, 54
2, 340086, Note_on_c, 0, 84, 84
2, 340088, Note_on_c, 0, 58, 60
2, 340204, Note_off_c, 0, 58, 55
2, 340206, Note_on_c, 0, 63, 60
2, 340307, Note_off_c, 0, 84, 61
2, 340309, Note_off_c, 0, 63, 55
2, 340309, Note_on_c, 0, 78, 72
2, 340312, Note_on_c, 0, 50, 48
2, 340326, Control_c, 0, 64, 0
2, 340429, Note_on_c, 0, 57, 48
2, 340498, Control_c, 0, 64, 110
2, 340530, Note_off_c, 0, 78, 58
2, 340532, Note_off_c, 0, 57, 52
2, 340532, Note_on_c, 0, 79, 72
2, 340535, Note_on_c, 0, 54, 52
2, 340553, Note_off_c, 0, 50, 52
2, 340650, Note_off_c, 0, 54, 53
2, 340652, Note_on_c, 0, 57, 56
2, 340770, Note_off_c, 0, 79, 58
2, 340772, Note_off_c, 0, 57, 54
2, 340772, Note_on_c, 0, 81, 84
2, 340772, Note_on_c, 0, 54, 60
2, 340873, Note_off_c, 0, 54, 55
2, 340873, Note_on_c, 0, 57, 60
2, 340993, Note_off_c, 0, 81, 61
2, 340993, Note_off_c, 0, 57, 55
2, 340996, Note_on_c, 0, 79, 72
2, 340996, Note_on_c, 0, 43, 48
2, 341013, Control_c, 0, 64, 0
2, 341184, Control_c, 0, 64, 110
2, 341233, Note_off_c, 0, 43, 52
2, 341233, Note_on_c, 0, 55, 48
2, 341456, Note_off_c, 0, 79, 58
2, 341456, Note_off_c, 0, 55, 52
2, 341459, Note_on_c, 0, 62, 36
2, 341504, Control_c, 0, 64, 0
2, 341560, Note_off_c, 0, 62, 49
2, 341663, Note_on_c, 0, 62, 36
2, 341783, Note_off_c, 0, 62, 49
2, 341884, Note_on_c, 0, 67, 40
2, 341987, Note_off_c, 0, 67, 50
2, 342107, Note_on_c, 0, 69, 44
2, 342210, Note_off_c, 0, 69, 51
2, 342310, Control_c, 0, 64, 118
2, 342330, Note_on_c, 0, 70, 48
2, 342553, Note_on_c, 0, 67, 48
2, 342583, Note_off_c, 0, 70, 52
2, 342676, Control_c, 0, 64, 0
2, 342716, Note_off_c, 0, 67, 52
2, 342793, Note_on_c, 0, 62, 36
2, 342896, Note_off_c, 0, 62, 49
2, 343000, Note_on_c, 0, 62, 36
2, 343120, Note_off_c, 0, 62, 49
2, 343220, Note_on_c, 0, 69, 36
2, 343324, Note_off_c, 0, 69, 49
2, 343444, Note_on_c, 0, 70, 38
2, 343547, Note_off_c, 0, 70, 49
2, 343667, Note_on_c, 0, 72, 40
2, 343673, Control_c, 0, 64, 120
2, 343890, Note_on_c, 0, 69, 43
2, 343930, Note_off_c, 0, 72, 50
2, 344013, Control_c, 0, 64, 0
2, 344050, Note_off_c, 0, 69, 50
2, 344130, Note_on_c, 0, 62, 48
2, 344233, Note_off_c, 0, 62, 52
2, 344336, Note_on_c, 0, 62, 48
2, 344437, Note_off_c, 0, 62, 52
2, 344557, Note_on_c, 0, 67, 48
2, 344560, Note_on_c, 0, 59, 42
2, 344560, Note_on_c, 0, 62, 36
2, 344660, Note_off_c, 0, 67, 52
2, 344663, Note_off_c, 0, 62, 49
2, 344663, Note_off_c, 0, 59, 50
2, 344780, Note_on_c, 0, 69, 60
2, 344783, Note_on_c, 0, 57, 48
2, 344783, Note_on_c, 0, 60, 42
2, 344884, Note_off_c, 0, 69, 55
2, 344884, Note_off_c, 0, 60, 50
2, 344886, Note_off_c, 0, 57, 52
2, 344994, Note_on_c, 0, 71, 72
2, 345004, Note_on_c, 0, 59, 48
2, 345006, Note_on_c, 0, 56, 54
2, 345008, Control_c, 0, 64, 120
2, 345227, Note_on_c, 0, 68, 60
2, 345276, Note_off_c, 0, 71, 58
2, 345351, Control_c, 0, 64, 0
2, 345397, Note_off_c, 0, 68, 55
2, 345450, Note_off_c, 0, 56, 53
2, 345450, Note_off_c, 0, 59, 52
2, 345452, Note_on_c, 0, 64, 48
2, 345570, Note_off_c, 0, 64, 52
2, 345690, Note_on_c, 0, 64, 48
2, 345793, Note_off_c, 0, 64, 52
2, 345894, Note_on_c, 0, 69, 60
2, 345896, Note_on_c, 0, 61, 50
2, 345896, Note_on_c, 0, 64, 44
2, 346014, Note_off_c, 0, 69, 55
2, 346016, Note_off_c, 0, 64, 51
2, 346016, Note_off_c, 0, 61, 52
2, 346117, Note_on_c, 0, 71, 72
2, 346120, Note_on_c, 0, 59, 46
2, 346120, Note_on_c, 0, 62, 40
2, 346237, Note_off_c, 0, 71, 58
2, 346240, Note_off_c, 0, 62, 50
2, 346240, Note_off_c, 0, 59, 51
2, 346340, Note_on_c, 0, 73, 72
2, 346343, Note_on_c, 0, 57, 42
2, 346343, Note_on_c, 0, 61, 36
2, 346351, Control_c, 0, 64, 120
2, 346583, Note_on_c, 0, 69, 48
2, 346636, Note_off_c, 0, 73, 58
2, 346708, Control_c, 0, 64, 0
2, 346752, Note_off_c, 0, 69, 52
2, 346804, Note_off_c, 0, 61, 49
2, 346806, Note_off_c, 0, 57, 50
2, 346806, Note_on_c, 0, 76, 72
2, 346907, Note_off_c, 0, 76, 58
2, 347027, Note_on_c, 0, 74, 72
2, 347130, Note_off_c, 0, 74, 58
2, 347231, Note_on_c, 0, 73, 64
2, 347233, Note_on_c, 0, 54, 44
2, 347233, Note_on_c, 0, 57, 38
2, 347351, Note_off_c, 0, 73, 56
2, 347353, Note_off_c, 0, 57, 49
2, 347353, Note_off_c, 0, 54, 51
2, 347454, Note_on_c, 0, 71, 56
2, 347456, Note_on_c, 0, 56, 46
2, 347456, Note_on_c, 0, 59, 40
2, 347574, Note_off_c, 0, 71, 54
2, 347576, Note_off_c, 0, 59, 50
2, 347576, Note_off_c, 0, 56, 51
2, 347677, Note_on_c, 0, 69, 48
2, 347680, Note_on_c, 0, 57, 48
2, 347680, Note_on_c, 0, 60, 42
2, 347797, Note_off_c, 0, 69, 52
2, 347800, Note_off_c, 0, 60, 50
2, 347800, Note_off_c, 0, 57, 52
2, 347900, Note_on_c, 0, 67, 48
2, 347900, Note_on_c, 0, 62, 44
2, 347903, Note_on_c, 0, 59, 50
2, 348020, Note_off_c, 0, 67, 52
2, 348020, Note_off_c, 0, 62, 51
2, 348023, Note_off_c, 0, 59, 52
2, 348140, Note_on_c, 0, 69, 60
2, 348140, Note_on_c, 0, 64, 46
2, 348143, Note_on_c, 0, 60, 52
2, 348260, Note_off_c, 0, 69, 55
2, 348260, Note_off_c, 0, 64, 51
2, 348263, Note_off_c, 0, 60, 53
2, 348311, Note_on_c, 0, 67, 72
2, 348364, Note_off_c, 0, 67, 58
2, 348364, Note_on_c, 0, 69, 72
2, 348431, Note_off_c, 0, 69, 58
2, 348431, Control_c, 0, 64, 122
2, 348433, Note_on_c, 0, 70, 72
2, 348433, Note_on_c, 0, 64, 48
2, 348436, Note_on_c, 0, 61, 54
2, 348637, Note_on_c, 0, 69, 72
2, 348716, Note_off_c, 0, 70, 58
2, 348764, Control_c, 0, 64, 0
2, 348808, Note_off_c, 0, 69, 58
2, 348860, Note_on_c, 0, 67, 64
2, 348964, Note_off_c, 0, 67, 56
2, 349076, Note_on_c, 0, 66, 56
2, 349084, Note_off_c, 0, 61, 53
2, 349084, Note_off_c, 0, 64, 52
2, 349086, Note_on_c, 0, 62, 39
2, 349221, Note_off_c, 0, 62, 49
2, 349297, Note_off_c, 0, 66, 54
2, 349307, Note_on_c, 0, 62, 48
2, 349467, Note_off_c, 0, 62, 52
2, 349547, Note_on_c, 0, 62, 48
2, 349648, Note_off_c, 0, 62, 52
2, 349751, Note_on_c, 0, 62, 54
2, 349871, Note_off_c, 0, 62, 53
2, 349974, Note_on_c, 0, 67, 60
2, 349974, Note_on_c, 0, 62, 39
2, 349976, Note_on_c, 0, 59, 45
2, 350077, Note_off_c, 0, 67, 55
2, 350077, Note_off_c, 0, 62, 49
2, 350080, Note_off_c, 0, 59, 51
2, 350197, Note_on_c, 0, 69, 66
2, 350197, Note_on_c, 0, 60, 38
2, 350200, Note_on_c, 0, 57, 44
2, 350300, Note_off_c, 0, 69, 56
2, 350300, Note_off_c, 0, 60, 49
2, 350303, Note_off_c, 0, 57, 51
2, 350404, Control_c, 0, 64, 119
2, 350420, Note_on_c, 0, 71, 72
2, 350420, Note_on_c, 0, 59, 36
2, 350423, Note_on_c, 0, 55, 42
2, 350644, Note_off_c, 0, 71, 58
2, 350644, Note_on_c, 0, 67, 72
2, 350744, Control_c, 0, 64, 0
2, 350814, Note_off_c, 0, 67, 58
2, 350864, Note_off_c, 0, 59, 49
2, 350867, Note_off_c, 0, 55, 50
2, 350867, Note_on_c, 0, 64, 48
2, 350984, Note_off_c, 0, 64, 52
2, 351088, Note_on_c, 0, 64, 48
2, 351191, Note_off_c, 0, 64, 52
2, 351311, Note_on_c, 0, 69, 60
2, 351311, Note_on_c, 0, 64, 48
2, 351313, Note_on_c, 0, 60, 48
2, 351414, Note_off_c, 0, 69, 55
2, 351414, Note_off_c, 0, 64, 52
2, 351416, Note_off_c, 0, 60, 52
2, 351517, Note_on_c, 0, 71, 72
2, 351517, Note_on_c, 0, 62, 48
2, 351520, Note_on_c, 0, 59, 48
2, 351637, Note_off_c, 0, 71, 58
2, 351637, Note_off_c, 0, 62, 52
2, 351640, Note_off_c, 0, 59, 52
2, 351724, Control_c, 0, 64, 120
2, 351740, Note_on_c, 0, 72, 72
2, 351740, Note_on_c, 0, 60, 36
2, 351740, Note_on_c, 0, 57, 36
2, 351980, Note_off_c, 0, 72, 58
2, 351980, Note_on_c, 0, 69, 48
2, 352118, Control_c, 0, 64, 0
2, 352201, Note_off_c, 0, 69, 52
2, 352204, Note_off_c, 0, 57, 49
2, 352204, Note_off_c, 0, 60, 49
2, 352206, Note_on_c, 0, 76, 72
2, 352321, Note_off_c, 0, 76, 58
2, 352424, Note_on_c, 0, 74, 72
2, 352528, Note_off_c, 0, 74, 58
2, 352631, Note_on_c, 0, 72, 64
2, 352631, Note_on_c, 0, 57, 38
2, 352633, Note_on_c, 0, 54, 38
2, 352751, Note_off_c, 0, 72, 56
2, 352751, Note_off_c, 0, 57, 49
2, 352753, Note_off_c, 0, 54, 49
2, 352854, Note_on_c, 0, 71, 56
2, 352854, Note_on_c, 0, 59, 40
2, 352856, Note_on_c, 0, 55, 40
2, 352957, Note_off_c, 0, 71, 54
2, 352957, Note_off_c, 0, 55, 50
2, 352957, Note_off_c, 0, 59, 50
2, 353077, Note_on_c, 0, 69, 48
2, 353077, Note_on_c, 0, 60, 42
2, 353077, Note_on_c, 0, 57, 42
2, 353178, Note_off_c, 0, 69, 52
2, 353180, Note_off_c, 0, 57, 50
2, 353180, Note_off_c, 0, 60, 50
2, 353298, Note_on_c, 0, 67, 48
2, 353300, Note_on_c, 0, 62, 44
2, 353300, Note_on_c, 0, 59, 44
2, 353401, Note_off_c, 0, 67, 52
2, 353404, Note_off_c, 0, 59, 51
2, 353404, Note_off_c, 0, 62, 51
2, 353521, Note_on_c, 0, 69, 60
2, 353524, Note_on_c, 0, 64, 46
2, 353524, Note_on_c, 0, 60, 46
2, 353624, Note_off_c, 0, 69, 55
2, 353627, Note_off_c, 0, 60, 51
2, 353627, Note_off_c, 0, 64, 51
2, 353714, Control_c, 0, 64, 120
2, 353744, Note_on_c, 0, 62, 72
2, 353754, Note_on_c, 0, 59, 52
2, 353757, Note_on_c, 0, 50, 46
2, 353968, Note_on_c, 0, 67, 72
2, 354072, Note_off_c, 0, 50, 51
2, 354084, Control_c, 0, 64, 0
2, 354090, Note_off_c, 0, 59, 53
2, 354138, Note_off_c, 0, 67, 58
2, 354191, Note_off_c, 0, 62, 58
2, 354208, Note_on_c, 0, 66, 52
2, 354208, Note_on_c, 0, 60, 40
2, 354210, Note_on_c, 0, 57, 48
2, 354210, Note_on_c, 0, 50, 36
2, 354291, Note_off_c, 0, 66, 53
2, 354431, Note_off_c, 0, 50, 49
2, 354431, Note_off_c, 0, 57, 52
2, 354431, Note_off_c, 0, 60, 50
2, 354433, Note_on_c, 0, 67, 60
2, 354433, Note_on_c, 0, 55, 48
2, 354433, Note_on_c, 0, 59, 40
2, 354436, Note_on_c, 0, 43, 36
2, 354451, Control_c, 0, 64, 127
2, 354911, Note_off_c, 0, 67, 55
2, 354911, Note_off_c, 0, 59, 50
2, 354913, Note_off_c, 0, 43, 49
2, 354913, Note_off_c, 0, 55, 52
2, 354913, Note_on_c, 0, 62, 48
2, 355115, Note_off_c, 0, 62, 52
2, 355117, Note_on_c, 0, 67, 48
2, 355338, Note_off_c, 0, 67, 52
2, 355340, Note_on_c, 0, 71, 52
2, 355544, Note_off_c, 0, 71, 53
2, 355544, Note_on_c, 0, 74, 56
2, 355716, Note_off_c, 0, 74, 54
2, 355768, Note_on_c, 0, 74, 60
2, 355778, Control_c, 0, 64, 0
2, 355954, Control_c, 0, 64, 116
2, 355991, Note_off_c, 0, 74, 55
2, 355991, Note_on_c, 0, 72, 48
2, 355991, Note_on_c, 0, 69, 36
2, 355993, Note_on_c, 0, 62, 39
2, 355993, Note_on_c, 0, 54, 33
2, 356096, Note_off_c, 0, 62, 49
2, 356102, Note_off_c, 0, 54, 48
2, 356108, Note_off_c, 0, 72, 52
2, 356109, Note_off_c, 0, 69, 49
2, 356212, Note_on_c, 0, 72, 48
2, 356214, Note_on_c, 0, 62, 40
2, 356214, Note_on_c, 0, 69, 36
2, 356216, Note_on_c, 0, 54, 34
2, 356359, Note_off_c, 0, 62, 50
2, 356359, Note_off_c, 0, 54, 48
2, 356435, Note_off_c, 0, 72, 52
2, 356437, Note_off_c, 0, 69, 49
2, 356437, Note_on_c, 0, 74, 60
2, 356441, Control_c, 0, 64, 0
2, 356618, Control_c, 0, 64, 116
2, 356658, Note_off_c, 0, 74, 55
2, 356660, Note_on_c, 0, 71, 48
2, 356660, Note_on_c, 0, 62, 42
2, 356660, Note_on_c, 0, 67, 36
2, 356663, Note_on_c, 0, 55, 36
2, 356756, Note_off_c, 0, 55, 49
2, 356764, Note_off_c, 0, 62, 50
2, 356790, Note_off_c, 0, 71, 52
2, 356805, Note_off_c, 0, 67, 49
2, 356898, Note_on_c, 0, 71, 48
2, 356900, Note_on_c, 0, 62, 43
2, 356900, Note_on_c, 0, 55, 37
2, 356900, Note_on_c, 0, 67, 36
2, 357046, Note_off_c, 0, 62, 50
2, 357046, Note_off_c, 0, 55, 49
2, 357121, Note_off_c, 0, 67, 49
2, 357121, Note_off_c, 0, 71, 52
2, 357124, Note_on_c, 0, 74, 60
2, 357128, Control_c, 0, 64, 0
2, 357304, Control_c, 0, 64, 116
2, 357344, Note_off_c, 0, 74, 55
2, 357344, Note_on_c, 0, 72, 48
2, 357347, Note_on_c, 0, 62, 45
2, 357347, Note_on_c, 0, 54, 39
2, 357347, Note_on_c, 0, 69, 36
2, 357430, Note_off_c, 0, 54, 49
2, 357437, Note_off_c, 0, 62, 51
2, 357445, Note_off_c, 0, 72, 52
2, 357460, Note_off_c, 0, 69, 49
2, 357551, Note_on_c, 0, 72, 48
2, 357551, Note_on_c, 0, 62, 46
2, 357551, Note_on_c, 0, 69, 36
2, 357553, Note_on_c, 0, 54, 40
2, 357713, Note_off_c, 0, 62, 51
2, 357713, Note_off_c, 0, 54, 50
2, 357772, Note_off_c, 0, 72, 52
2, 357774, Note_off_c, 0, 69, 49
2, 357774, Note_on_c, 0, 74, 60
2, 357784, Control_c, 0, 64, 0
2, 357961, Control_c, 0, 64, 116
2, 357995, Note_off_c, 0, 74, 55
2, 357997, Note_on_c, 0, 71, 48
2, 357997, Note_on_c, 0, 62, 48
2, 357997, Note_on_c, 0, 67, 36
2, 358000, Note_on_c, 0, 55, 42
2, 358084, Note_off_c, 0, 55, 50
2, 358097, Note_off_c, 0, 62, 52
2, 358107, Note_off_c, 0, 67, 49
2, 358129, Note_off_c, 0, 71, 52
2, 358235, Note_on_c, 0, 71, 48
2, 358235, Note_on_c, 0, 67, 36
2, 358237, Note_on_c, 0, 62, 48
2, 358237, Note_on_c, 0, 55, 42
2, 358383, Note_off_c, 0, 62, 52
2, 358383, Note_off_c, 0, 55, 50
2, 358458, Note_off_c, 0, 71, 52
2, 358458, Note_off_c, 0, 67, 49
2, 358460, Note_on_c, 0, 74, 60
2, 358471, Control_c, 0, 64, 0
2, 358648, Control_c, 0, 64, 116
2, 358681, Note_off_c, 0, 74, 55
2, 358681, Note_on_c, 0, 72, 48
2, 358684, Note_on_c, 0, 54, 44
2, 358684, Note_on_c, 0, 62, 38
2, 358684, Note_on_c, 0, 69, 36
2, 358858, Note_off_c, 0, 62, 49
2, 358921, Note_off_c, 0, 69, 49
2, 358921, Note_off_c, 0, 72, 52
2, 358924, Note_off_c, 0, 54, 51
2, 358938, Note_on_c, 0, 71, 48
2, 358938, Note_on_c, 0, 67, 36
2, 358940, Note_on_c, 0, 55, 42
2, 358940, Note_on_c, 0, 62, 36
2, 359195, Note_off_c, 0, 71, 52
2, 359195, Note_off_c, 0, 67, 49
2, 359197, Note_off_c, 0, 55, 50
2, 359197, Note_off_c, 0, 62, 49
2, 359200, Note_on_c, 0, 74, 60
2, 359204, Control_c, 0, 64, 0
2, 359381, Control_c, 0, 64, 116
2, 359485, Note_off_c, 0, 74, 55
2, 359488, Note_on_c, 0, 72, 48
2, 359488, Note_on_c, 0, 69, 36
2, 359490, Note_on_c, 0, 54, 38
2, 359490, Note_on_c, 0, 62, 32
2, 359643, Note_off_c, 0, 62, 48
2, 359761, Note_off_c, 0, 69, 49
2, 359761, Note_off_c, 0, 72, 52
2, 359764, Note_off_c, 0, 54, 49
2, 359778, Note_on_c, 0, 71, 48
2, 359778, Note_on_c, 0, 67, 36
2, 359780, Note_on_c, 0, 55, 36
2, 359780, Note_on_c, 0, 62, 30
2, 360029, Note_off_c, 0, 62, 47
2, 360085, Note_off_c, 0, 71, 52
2, 360088, Note_off_c, 0, 67, 49
2, 360090, Note_off_c, 0, 55, 49
2, 360404, Note_on_c, 0, 74, 56
2, 360418, Control_c, 0, 64, 0
2, 360431, Note_on_c, 0, 69, 44
2, 360433, Note_on_c, 0, 72, 36
2, 360435, Note_on_c, 0, 62, 40
2, 360442, Note_on_c, 0, 54, 36
2, 360594, Control_c, 0, 64, 116
2, 361673, Note_off_c, 0, 54, 49
2, 361747, Note_off_c, 0, 72, 49
2, 361816, Note_off_c, 0, 69, 51
2, 361839, Note_off_c, 0, 62, 50
2, 361981, Note_off_c, 0, 74, 54
2, 362028, Control_c, 0, 64, 0
2, 362058, Note_on_c, 0, 74, 58
2, 362159, Note_off_c, 0, 74, 54
2, 362279, Note_on_c, 0, 74, 61
2, 362382, Note_off_c, 0, 74, 55
2, 362485, Note_on_c, 0, 79, 65
2, 362488, Note_on_c, 0, 71, 54
2, 362488, Note_on_c, 0, 74, 48
2, 362605, Note_off_c, 0, 79, 56
2, 362608, Note_off_c, 0, 74, 52
2, 362608, Note_off_c, 0, 71, 53
2, 362708, Note_on_c, 0, 81, 68
2, 362708, Note_on_c, 0, 72, 48
2, 362711, Note_on_c, 0, 69, 54
2, 362828, Note_off_c, 0, 81, 57
2, 362828, Note_off_c, 0, 72, 52
2, 362831, Note_off_c, 0, 69, 53
2, 362932, Note_on_c, 0, 83, 72
2, 362932, Note_on_c, 0, 71, 36
2, 362934, Note_on_c, 0, 67, 42
2, 362938, Control_c, 0, 64, 116
2, 363172, Note_on_c, 0, 79, 72
2, 363210, Note_off_c, 0, 83, 58
2, 363258, Control_c, 0, 64, 0
2, 363312, Note_off_c, 0, 79, 58
2, 363395, Note_off_c, 0, 67, 50
2, 363395, Note_off_c, 0, 71, 49
2, 363395, Note_on_c, 0, 76, 60
2, 363498, Note_off_c, 0, 76, 55
2, 363599, Note_on_c, 0, 76, 48
2, 363719, Note_off_c, 0, 76, 52
2, 363822, Note_on_c, 0, 81, 48
2, 363824, Note_on_c, 0, 72, 54
2, 363824, Note_on_c, 0, 76, 48
2, 363942, Note_off_c, 0, 81, 52
2, 363944, Note_off_c, 0, 76, 52
2, 363944, Note_off_c, 0, 72, 53
2, 364045, Note_on_c, 0, 83, 56
2, 364045, Note_on_c, 0, 74, 48
2, 364048, Note_on_c, 0, 71, 54
2, 364165, Note_off_c, 0, 83, 54
2, 364165, Note_off_c, 0, 74, 52
2, 364168, Note_off_c, 0, 71, 53
2, 364271, Control_c, 0, 64, 120
2, 364285, Note_on_c, 0, 84, 64
2, 364285, Note_on_c, 0, 72, 36
2, 364288, Note_on_c, 0, 69, 42
2, 364508, Note_on_c, 0, 81, 72
2, 364530, Note_off_c, 0, 84, 56
2, 364604, Control_c, 0, 64, 0
2, 364656, Note_off_c, 0, 81, 58
2, 364732, Note_off_c, 0, 69, 50
2, 364732, Note_off_c, 0, 72, 49
2, 364732, Note_on_c, 0, 88, 72
2, 364852, Note_off_c, 0, 88, 58
2, 364955, Note_on_c, 0, 86, 72
2, 365056, Note_off_c, 0, 86, 58
2, 365159, Note_on_c, 0, 84, 64
2, 365161, Note_on_c, 0, 66, 45
2, 365161, Note_on_c, 0, 69, 39
2, 365279, Note_off_c, 0, 84, 56
2, 365281, Note_off_c, 0, 69, 49
2, 365281, Note_off_c, 0, 66, 51
2, 365382, Note_on_c, 0, 83, 56
2, 365382, Note_on_c, 0, 71, 41
2, 365384, Note_on_c, 0, 67, 47
2, 365485, Note_off_c, 0, 83, 54
2, 365485, Note_off_c, 0, 71, 50
2, 365488, Note_off_c, 0, 67, 51
2, 365552, Note_on_c, 0, 83, 48
2, 365605, Note_off_c, 0, 83, 52
2, 365605, Note_on_c, 0, 81, 48
2, 365608, Note_on_c, 0, 69, 48
2, 365608, Note_on_c, 0, 72, 42
2, 365708, Note_off_c, 0, 69, 52
2, 365708, Note_off_c, 0, 72, 50
2, 365710, Note_off_c, 0, 81, 52
2, 365828, Note_on_c, 0, 79, 48
2, 365828, Note_on_c, 0, 74, 44
2, 365831, Note_on_c, 0, 71, 50
2, 365932, Note_off_c, 0, 74, 51
2, 365932, Note_off_c, 0, 71, 52
2, 365935, Note_off_c, 0, 79, 52
2, 366052, Note_on_c, 0, 81, 60
2, 366052, Note_on_c, 0, 76, 46
2, 366054, Note_on_c, 0, 72, 52
2, 366152, Note_off_c, 0, 76, 51
2, 366155, Note_off_c, 0, 72, 53
2, 366174, Note_off_c, 0, 81, 55
2, 366258, Control_c, 0, 64, 118
2, 366275, Note_on_c, 0, 74, 60
2, 366275, Note_on_c, 0, 71, 40
2, 366277, Note_on_c, 0, 62, 48
2, 366496, Note_on_c, 0, 79, 60
2, 366601, Note_off_c, 0, 62, 52
2, 366627, Note_off_c, 0, 71, 50
2, 366661, Control_c, 0, 64, 0
2, 366668, Note_off_c, 0, 79, 55
2, 366702, Note_off_c, 0, 74, 55
2, 366719, Note_on_c, 0, 78, 54
2, 366719, Note_on_c, 0, 72, 34
2, 366721, Note_on_c, 0, 69, 46
2, 366721, Note_on_c, 0, 62, 30
2, 366795, Note_off_c, 0, 78, 53
2, 366956, Note_off_c, 0, 72, 48
2, 366959, Note_off_c, 0, 69, 51
2, 366959, Note_off_c, 0, 62, 47
2, 366961, Note_on_c, 0, 79, 52
2, 366961, Note_on_c, 0, 71, 32
2, 366964, Note_on_c, 0, 67, 40
2, 366964, Note_on_c, 0, 55, 36
2, 366991, Control_c, 0, 64, 120
2, 367405, Note_off_c, 0, 79, 53
2, 367405, Note_off_c, 0, 71, 48
2, 367405, Note_off_c, 0, 67, 50
2, 367408, Note_off_c, 0, 55, 49
2, 367408, Note_on_c, 0, 72, 44
2, 367421, Control_c, 0, 64, 0
2, 367525, Note_off_c, 0, 72, 51
2, 367628, Note_on_c, 0, 71, 42
2, 367729, Note_off_c, 0, 71, 50
2, 367832, Note_on_c, 0, 84, 72
2, 367835, Note_on_c, 0, 69, 41
2, 367952, Note_off_c, 0, 84, 58
2, 367955, Note_off_c, 0, 69, 50
2, 368056, Note_on_c, 0, 83, 72
2, 368056, Note_on_c, 0, 67, 40
2, 368159, Note_off_c, 0, 83, 58
2, 368159, Note_off_c, 0, 67, 50
2, 368279, Note_on_c, 0, 81, 66
2, 368279, Note_on_c, 0, 66, 39
2, 368382, Note_off_c, 0, 81, 56
2, 368382, Note_off_c, 0, 66, 49
2, 368502, Note_on_c, 0, 79, 60
2, 368502, Note_on_c, 0, 64, 38
2, 368605, Note_off_c, 0, 79, 55
2, 368605, Note_off_c, 0, 64, 49
2, 368725, Note_on_c, 0, 78, 54
2, 368725, Note_on_c, 0, 66, 36
2, 368826, Note_off_c, 0, 78, 53
2, 368828, Note_off_c, 0, 66, 49
2, 368938, Control_c, 0, 64, 120
2, 368946, Note_on_c, 0, 71, 50
2, 368948, Note_on_c, 0, 59, 36
2, 368948, Note_on_c, 0, 67, 30
2, 369169, Note_on_c, 0, 76, 48
2, 369356, Note_off_c, 0, 76, 52
2, 369412, Note_off_c, 0, 71, 52
2, 369412, Note_off_c, 0, 67, 47
2, 369412, Note_on_c, 0, 75, 60
2, 369414, Note_on_c, 0, 66, 47
2, 369414, Note_on_c, 0, 69, 40
2, 369458, Control_c, 0, 64, 0
2, 369503, Note_off_c, 0, 75, 55
2, 369627, Note_on_c, 0, 78, 72
2, 369632, Note_off_c, 0, 69, 50
2, 369635, Note_off_c, 0, 59, 49
2, 369635, Note_off_c, 0, 66, 51
2, 369637, Note_on_c, 0, 67, 60
2, 369637, Note_on_c, 0, 64, 48
2, 369648, Control_c, 0, 64, 120
2, 369856, Note_on_c, 0, 76, 72
2, 369906, Note_off_c, 0, 78, 58
2, 369958, Control_c, 0, 64, 0
2, 370032, Note_off_c, 0, 76, 58
2, 370096, Note_off_c, 0, 67, 55
2, 370098, Note_off_c, 0, 64, 52
2, 370098, Note_on_c, 0, 81, 68
2, 370199, Note_off_c, 0, 81, 57
2, 370302, Note_on_c, 0, 79, 63
2, 370403, Note_off_c, 0, 79, 55
2, 370523, Note_on_c, 0, 77, 58
2, 370525, Note_on_c, 0, 69, 44
2, 370626, Note_off_c, 0, 77, 54
2, 370628, Note_off_c, 0, 69, 51
2, 370729, Note_on_c, 0, 76, 53
2, 370729, Note_on_c, 0, 67, 40
2, 370849, Note_off_c, 0, 76, 53
2, 370849, Note_off_c, 0, 67, 50
2, 370952, Note_on_c, 0, 74, 48
2, 370952, Note_on_c, 0, 65, 36
2, 371072, Note_off_c, 0, 74, 52
2, 371072, Note_off_c, 0, 65, 49
2, 371176, Note_on_c, 0, 72, 48
2, 371176, Note_on_c, 0, 64, 36
2, 371296, Note_off_c, 0, 72, 52
2, 371296, Note_off_c, 0, 64, 49
2, 371399, Note_on_c, 0, 74, 52
2, 371399, Note_on_c, 0, 65, 38
2, 371519, Note_off_c, 0, 74, 53
2, 371519, Note_off_c, 0, 65, 49
2, 371631, Control_c, 0, 64, 121
2, 371639, Note_on_c, 0, 67, 57
2, 371639, Note_on_c, 0, 64, 40
2, 371639, Note_on_c, 0, 55, 32
2, 371860, Note_on_c, 0, 72, 62
2, 372036, Note_off_c, 0, 72, 55
2, 372100, Note_off_c, 0, 67, 54
2, 372102, Note_off_c, 0, 64, 50
2, 372102, Note_on_c, 0, 71, 67
2, 372104, Note_on_c, 0, 65, 52
2, 372104, Note_on_c, 0, 62, 45
2, 372124, Control_c, 0, 64, 0
2, 372178, Note_off_c, 0, 71, 57
2, 372316, Note_off_c, 0, 65, 53
2, 372323, Note_off_c, 0, 62, 51
2, 372325, Note_off_c, 0, 55, 48
2, 372325, Note_on_c, 0, 74, 72
2, 372325, Note_on_c, 0, 64, 52
2, 372328, Note_on_c, 0, 60, 48
2, 372328, Note_on_c, 0, 48, 40
2, 372338, Control_c, 0, 64, 118
2, 372546, Note_on_c, 0, 72, 72
2, 372570, Note_off_c, 0, 74, 58
2, 372700, Note_off_c, 0, 72, 58
2, 372752, Note_off_c, 0, 48, 50
2, 372752, Note_off_c, 0, 60, 52
2, 372755, Note_on_c, 0, 72, 60
2, 372764, Control_c, 0, 64, 0
2, 372825, Note_off_c, 0, 64, 53
2, 372832, Note_off_c, 0, 72, 55
2, 372968, Control_c, 0, 64, 120
2, 372976, Note_on_c, 0, 64, 48
2, 372976, Note_on_c, 0, 52, 36
2, 372976, Note_on_c, 0, 60, 28
2, 373196, Note_on_c, 0, 69, 48
2, 373369, Note_off_c, 0, 69, 52
2, 373436, Note_off_c, 0, 64, 52
2, 373439, Note_off_c, 0, 60, 47
2, 373439, Note_on_c, 0, 68, 54
2, 373441, Note_on_c, 0, 59, 40
2, 373441, Note_on_c, 0, 62, 34
2, 373458, Control_c, 0, 64, 0
2, 373540, Note_off_c, 0, 68, 53
2, 373658, Control_c, 0, 64, 120
2, 373660, Note_off_c, 0, 59, 50
2, 373662, Note_off_c, 0, 52, 49
2, 373662, Note_on_c, 0, 71, 60
2, 373662, Note_on_c, 0, 60, 40
2, 373663, Note_off_c, 0, 62, 48
2, 373664, Note_on_c, 0, 57, 48
2, 373664, Note_on_c, 0, 45, 36
2, 373883, Note_on_c, 0, 69, 60
2, 373916, Note_off_c, 0, 71, 55
2, 374036, Note_off_c, 0, 69, 55
2, 374089, Note_off_c, 0, 60, 50
2, 374089, Note_off_c, 0, 57, 52
2, 374092, Note_off_c, 0, 45, 49
2, 374092, Note_on_c, 0, 69, 54
2, 374111, Control_c, 0, 64, 0
2, 374194, Note_off_c, 0, 69, 53
2, 374311, Control_c, 0, 64, 116
2, 374312, Note_on_c, 0, 62, 48
2, 374312, Note_on_c, 0, 59, 28
2, 374315, Note_on_c, 0, 50, 36
2, 374533, Note_on_c, 0, 67, 48
2, 374706, Note_off_c, 0, 67, 52
2, 374773, Note_off_c, 0, 62, 52
2, 374776, Note_off_c, 0, 59, 47
2, 374776, Note_on_c, 0, 66, 60
2, 374778, Note_on_c, 0, 57, 48
2, 374778, Note_on_c, 0, 60, 40
2, 374804, Control_c, 0, 64, 0
2, 374852, Note_off_c, 0, 66, 55
2, 374983, Note_off_c, 0, 60, 50
2, 374994, Control_c, 0, 64, 116
2, 374996, Note_off_c, 0, 57, 52
2, 374999, Note_off_c, 0, 50, 49
2, 374999, Note_on_c, 0, 69, 72
2, 375007, Note_on_c, 0, 59, 52
2, 375008, Note_on_c, 0, 43, 48
2, 375014, Note_on_c, 0, 55, 60
2, 375203, Note_on_c, 0, 67, 72
2, 375250, Note_off_c, 0, 69, 58
2, 375373, Note_off_c, 0, 67, 58
2, 375426, Note_on_c, 0, 67, 66
2, 375471, Control_c, 0, 64, 0
2, 375501, Note_off_c, 0, 43, 52
2, 375527, Note_off_c, 0, 59, 53
2, 375529, Note_off_c, 0, 67, 56
2, 375542, Note_off_c, 0, 55, 55
2, 375649, Note_on_c, 0, 62, 60
2, 375661, Note_on_c, 0, 55, 40
2, 375661, Note_on_c, 0, 45, 36
2, 375663, Note_on_c, 0, 52, 48
2, 375678, Control_c, 0, 64, 116
2, 375872, Note_on_c, 0, 61, 54
2, 375943, Note_off_c, 0, 62, 55
2, 376043, Note_off_c, 0, 61, 53
2, 376093, Note_on_c, 0, 61, 48
2, 376146, Note_off_c, 0, 45, 49
2, 376148, Control_c, 0, 64, 0
2, 376157, Note_off_c, 0, 55, 50
2, 376190, Note_off_c, 0, 52, 52
2, 376213, Note_off_c, 0, 61, 52
2, 376319, Note_on_c, 0, 62, 50
2, 376321, Note_on_c, 0, 38, 36
2, 376321, Note_on_c, 0, 54, 30
2, 376351, Control_c, 0, 64, 127
2, 376556, Note_off_c, 0, 38, 49
2, 376556, Note_on_c, 0, 50, 38
2, 376715, Note_off_c, 0, 50, 49
2, 376763, Note_off_c, 0, 54, 47
2, 376763, Note_off_c, 0, 62, 52
2, 376780, Note_on_c, 0, 50, 40
2, 376962, Note_off_c, 0, 50, 50
2, 377020, Note_on_c, 0, 72, 60
2, 377070, Note_off_c, 0, 72, 55
2, 377072, Note_on_c, 0, 71, 60
2, 377072, Note_on_c, 0, 43, 42
2, 377074, Control_c, 0, 64, 0
2, 377235, Note_off_c, 0, 43, 50
2, 377248, Control_c, 0, 64, 127
2, 377296, Note_on_c, 0, 69, 64
2, 377296, Note_on_c, 0, 50, 44
2, 377332, Note_off_c, 0, 71, 55
2, 377446, Note_off_c, 0, 50, 51
2, 377500, Note_on_c, 0, 71, 68
2, 377500, Note_on_c, 0, 50, 46
2, 377543, Note_off_c, 0, 69, 56
2, 377670, Note_off_c, 0, 71, 57
2, 377681, Note_off_c, 0, 50, 51
2, 377723, Note_on_c, 0, 72, 72
2, 377723, Note_on_c, 0, 45, 48
2, 377724, Control_c, 0, 64, 0
2, 377889, Note_off_c, 0, 45, 52
2, 377898, Control_c, 0, 64, 127
2, 377946, Note_on_c, 0, 50, 48
2, 378105, Note_off_c, 0, 50, 52
2, 378186, Note_on_c, 0, 50, 42
2, 378376, Note_off_c, 0, 50, 50
2, 378407, Note_off_c, 0, 72, 58
2, 378409, Note_on_c, 0, 71, 48
2, 378460, Note_off_c, 0, 71, 52
2, 378460, Note_on_c, 0, 69, 48
2, 378462, Note_on_c, 0, 48, 36
2, 378471, Control_c, 0, 64, 0
2, 378639, Note_off_c, 0, 48, 49
2, 378644, Control_c, 0, 64, 127
2, 378683, Note_on_c, 0, 68, 48
2, 378685, Note_on_c, 0, 50, 36
2, 378756, Note_off_c, 0, 69, 52
2, 378838, Note_off_c, 0, 50, 49
2, 378904, Note_on_c, 0, 69, 60
2, 378906, Note_on_c, 0, 50, 42
2, 378943, Note_off_c, 0, 68, 52
2, 379060, Note_off_c, 0, 69, 55
2, 379084, Note_off_c, 0, 50, 50
2, 379112, Note_on_c, 0, 74, 72
2, 379112, Note_on_c, 0, 47, 48
2, 379121, Control_c, 0, 64, 0
2, 379292, Note_off_c, 0, 47, 52
2, 379294, Control_c, 0, 64, 127
2, 379333, Note_on_c, 0, 50, 48
2, 379493, Note_off_c, 0, 50, 52
2, 379556, Note_on_c, 0, 50, 47
2, 379730, Note_off_c, 0, 50, 51
2, 379780, Note_on_c, 0, 43, 46
2, 379784, Control_c, 0, 64, 0
2, 379958, Control_c, 0, 64, 127
2, 379974, Note_off_c, 0, 43, 51
2, 380020, Note_on_c, 0, 72, 69
2, 380022, Note_on_c, 0, 50, 45
2, 380063, Note_off_c, 0, 74, 58
2, 380195, Note_off_c, 0, 50, 51
2, 380240, Note_on_c, 0, 71, 66
2, 380243, Note_on_c, 0, 50, 44
2, 380276, Note_off_c, 0, 72, 57
2, 380413, Note_off_c, 0, 71, 56
2, 380425, Note_off_c, 0, 50, 51
2, 380466, Note_on_c, 0, 69, 63
2, 380466, Note_on_c, 0, 45, 42
2, 380474, Control_c, 0, 64, 0
2, 380636, Note_off_c, 0, 45, 50
2, 380648, Control_c, 0, 64, 127
2, 380689, Note_on_c, 0, 71, 60
2, 380689, Note_on_c, 0, 50, 41
2, 380743, Note_off_c, 0, 69, 55
2, 380839, Note_off_c, 0, 50, 50
2, 380840, Note_off_c, 0, 71, 55
2, 380893, Note_on_c, 0, 67, 57
2, 380893, Note_on_c, 0, 50, 40
2, 380975, Note_off_c, 0, 67, 54
2, 381073, Note_off_c, 0, 50, 50
2, 381116, Note_on_c, 0, 66, 54
2, 381116, Note_on_c, 0, 45, 39
2, 381124, Control_c, 0, 64, 0
2, 381298, Control_c, 0, 64, 127
2, 381322, Note_off_c, 0, 45, 49
2, 381356, Note_on_c, 0, 67, 51
2, 381359, Note_on_c, 0, 49, 38
2, 381450, Note_off_c, 0, 66, 53
2, 381520, Note_off_c, 0, 49, 49
2, 381527, Note_off_c, 0, 67, 52
2, 381577, Note_on_c, 0, 64, 48
2, 381580, Note_on_c, 0, 49, 36
2, 381654, Note_off_c, 0, 64, 52
2, 381761, Note_off_c, 0, 49, 49
2, 381820, Note_on_c, 0, 62, 48
2, 381820, Note_on_c, 0, 38, 36
2, 381824, Control_c, 0, 64, 0
2, 381994, Note_off_c, 0, 38, 49
2, 381998, Control_c, 0, 64, 127
2, 382043, Note_on_c, 0, 50, 38
2, 382205, Note_off_c, 0, 50, 49
2, 382264, Note_on_c, 0, 50, 40
2, 382449, Note_off_c, 0, 50, 50
2, 382487, Note_on_c, 0, 48, 43
2, 382491, Control_c, 0, 64, 0
2, 382664, Control_c, 0, 64, 127
2, 382712, Note_on_c, 0, 64, 64
2, 382712, Note_on_c, 0, 50, 45
2, 382756, Note_off_c, 0, 62, 52
2, 382830, Note_off_c, 0, 48, 50
2, 382869, Note_off_c, 0, 50, 51
2, 382916, Note_on_c, 0, 66, 68
2, 382919, Note_on_c, 0, 48, 48
2, 382962, Note_off_c, 0, 64, 56
2, 383087, Note_off_c, 0, 66, 57
2, 383094, Note_off_c, 0, 48, 52
2, 383140, Note_on_c, 0, 69, 72
2, 383190, Note_off_c, 0, 69, 58
2, 383190, Note_on_c, 0, 67, 72
2, 383190, Note_on_c, 0, 47, 48
2, 383194, Control_c, 0, 64, 0
2, 383360, Note_off_c, 0, 47, 52
2, 383368, Control_c, 0, 64, 127
2, 383396, Note_on_c, 0, 66, 72
2, 383399, Note_on_c, 0, 50, 44
2, 383432, Note_off_c, 0, 67, 58
2, 383560, Note_off_c, 0, 50, 51
2, 383617, Note_on_c, 0, 67, 60
2, 383620, Note_on_c, 0, 50, 40
2, 383743, Note_off_c, 0, 66, 58
2, 383814, Note_off_c, 0, 50, 50
2, 383843, Note_on_c, 0, 62, 48
2, 383843, Note_on_c, 0, 43, 36
2, 383851, Control_c, 0, 64, 0
2, 383889, Note_off_c, 0, 67, 55
2, 384024, Control_c, 0, 64, 127
2, 384064, Note_off_c, 0, 43, 49
2, 384066, Note_on_c, 0, 66, 48
2, 384066, Note_on_c, 0, 50, 36
2, 384094, Note_off_c, 0, 62, 52
2, 384225, Note_off_c, 0, 50, 49
2, 384287, Note_on_c, 0, 67, 54
2, 384287, Note_on_c, 0, 50, 42
2, 384325, Note_off_c, 0, 66, 52
2, 384433, Note_off_c, 0, 50, 50
2, 384457, Note_off_c, 0, 67, 53
2, 384476, Note_on_c, 0, 71, 60
2, 384527, Note_off_c, 0, 71, 55
2, 384527, Note_on_c, 0, 69, 60
2, 384529, Note_on_c, 0, 42, 48
2, 384531, Control_c, 0, 64, 0
2, 384704, Control_c, 0, 64, 127
2, 384733, Note_off_c, 0, 42, 52
2, 384733, Note_on_c, 0, 68, 60
2, 384736, Note_on_c, 0, 50, 48
2, 384819, Note_off_c, 0, 69, 55
2, 384883, Note_off_c, 0, 50, 52
2, 384954, Note_on_c, 0, 69, 54
2, 384956, Note_on_c, 0, 50, 42
2, 385027, Note_off_c, 0, 68, 55
2, 385148, Note_off_c, 0, 50, 50
2, 385180, Note_on_c, 0, 62, 48
2, 385180, Note_on_c, 0, 38, 36
2, 385191, Control_c, 0, 64, 0
2, 385218, Note_off_c, 0, 69, 53
2, 385364, Control_c, 0, 64, 127
2, 385400, Note_off_c, 0, 38, 49
2, 385403, Note_on_c, 0, 67, 48
2, 385403, Note_on_c, 0, 50, 36
2, 385448, Note_off_c, 0, 62, 52
2, 385570, Note_off_c, 0, 50, 49
2, 385624, Note_on_c, 0, 69, 52
2, 385624, Note_on_c, 0, 50, 37
2, 385663, Note_off_c, 0, 67, 52
2, 385794, Note_off_c, 0, 69, 53
2, 385796, Note_off_c, 0, 50, 49
2, 385796, Note_on_c, 0, 72, 56
2, 385847, Note_off_c, 0, 72, 54
2, 385847, Note_on_c, 0, 71, 56
2, 385849, Note_on_c, 0, 43, 39
2, 385858, Control_c, 0, 64, 0
2, 386031, Control_c, 0, 64, 127
2, 386070, Note_off_c, 0, 43, 49
2, 386070, Note_on_c, 0, 69, 60
2, 386072, Note_on_c, 0, 50, 41
2, 386123, Note_off_c, 0, 71, 54
2, 386293, Note_off_c, 0, 50, 50
2, 386293, Note_on_c, 0, 71, 64
2, 386293, Note_on_c, 0, 55, 42
2, 386371, Note_off_c, 0, 69, 55
2, 386497, Note_off_c, 0, 55, 50
2, 386500, Note_on_c, 0, 72, 68
2, 386500, Note_on_c, 0, 48, 44
2, 386511, Control_c, 0, 64, 0
2, 386554, Note_off_c, 0, 71, 56
2, 386684, Control_c, 0, 64, 127
2, 386720, Note_off_c, 0, 48, 51
2, 386723, Note_on_c, 0, 74, 72
2, 386723, Note_on_c, 0, 52, 46
2, 386755, Note_off_c, 0, 72, 57
2, 386960, Note_off_c, 0, 52, 51
2, 386963, Note_on_c, 0, 76, 72
2, 386963, Note_on_c, 0, 57, 48
2, 387021, Note_off_c, 0, 74, 58
2, 387131, Note_off_c, 0, 76, 58
2, 387184, Note_off_c, 0, 57, 52
2, 387184, Note_on_c, 0, 69, 48
2, 387186, Note_on_c, 0, 50, 36
2, 387198, Control_c, 0, 64, 0
2, 387371, Control_c, 0, 64, 127
2, 387424, Note_off_c, 0, 50, 49
2, 387424, Note_on_c, 0, 62, 36
2, 387604, Note_off_c, 0, 62, 49
2, 387628, Note_off_c, 0, 69, 52
2, 387644, Note_on_c, 0, 62, 38
2, 387884, Note_off_c, 0, 62, 49
2, 387887, Note_on_c, 0, 84, 52
2, 387937, Note_off_c, 0, 84, 53
2, 387937, Note_on_c, 0, 83, 52
2, 387940, Note_on_c, 0, 55, 40
2, 387944, Control_c, 0, 64, 0
2, 388118, Control_c, 0, 64, 127
2, 388160, Note_off_c, 0, 55, 50
2, 388160, Note_on_c, 0, 81, 55
2, 388163, Note_on_c, 0, 62, 43
2, 388183, Note_off_c, 0, 83, 53
2, 388314, Note_off_c, 0, 62, 50
2, 388364, Note_on_c, 0, 83, 57
2, 388367, Note_on_c, 0, 62, 45
2, 388410, Note_off_c, 0, 81, 53
2, 388537, Note_off_c, 0, 83, 54
2, 388604, Note_off_c, 0, 62, 51
2, 388607, Note_on_c, 0, 84, 60
2, 388607, Note_on_c, 0, 57, 48
2, 388611, Control_c, 0, 64, 0
2, 388784, Control_c, 0, 64, 127
2, 388828, Note_off_c, 0, 57, 52
2, 388830, Note_on_c, 0, 62, 48
2, 388996, Note_off_c, 0, 62, 52
2, 389051, Note_on_c, 0, 62, 42
2, 389291, Note_off_c, 0, 84, 55
2, 389291, Note_off_c, 0, 62, 50
2, 389293, Note_on_c, 0, 83, 48
2, 389341, Note_off_c, 0, 83, 52
2, 389344, Note_on_c, 0, 81, 48
2, 389344, Note_on_c, 0, 60, 36
2, 389354, Control_c, 0, 64, 0
2, 389528, Control_c, 0, 64, 127
2, 389567, Note_off_c, 0, 60, 49
2, 389567, Note_on_c, 0, 80, 48
2, 389569, Note_on_c, 0, 62, 36
2, 389610, Note_off_c, 0, 81, 52
2, 389754, Note_off_c, 0, 62, 49
2, 389788, Note_on_c, 0, 81, 54
2, 389790, Note_on_c, 0, 62, 42
2, 389850, Note_off_c, 0, 80, 52
2, 389960, Note_off_c, 0, 81, 53
2, 390011, Note_off_c, 0, 62, 50
2, 390011, Note_on_c, 0, 86, 60
2, 390013, Note_on_c, 0, 59, 48
2, 390021, Control_c, 0, 64, 0
2, 390194, Control_c, 0, 64, 127
2, 390234, Note_off_c, 0, 59, 52
2, 390234, Note_on_c, 0, 62, 48
2, 390420, Note_off_c, 0, 62, 52
2, 390474, Note_on_c, 0, 62, 47
2, 390697, Note_off_c, 0, 62, 51
2, 390697, Note_on_c, 0, 55, 46
2, 390708, Control_c, 0, 64, 0
2, 390881, Control_c, 0, 64, 127
2, 390920, Note_off_c, 0, 55, 51
2, 390920, Note_on_c, 0, 84, 60
2, 390923, Note_on_c, 0, 62, 45
2, 390980, Note_off_c, 0, 86, 55
2, 391074, Note_off_c, 0, 62, 51
2, 391124, Note_on_c, 0, 83, 59
2, 391127, Note_on_c, 0, 62, 44
2, 391170, Note_off_c, 0, 84, 55
2, 391297, Note_off_c, 0, 83, 54
2, 391348, Note_off_c, 0, 62, 51
2, 391350, Note_on_c, 0, 81, 57
2, 391350, Note_on_c, 0, 57, 42
2, 391354, Control_c, 0, 64, 0
2, 391528, Control_c, 0, 64, 127
2, 391554, Note_off_c, 0, 57, 50
2, 391554, Note_on_c, 0, 83, 55
2, 391556, Note_on_c, 0, 62, 41
2, 391623, Note_off_c, 0, 81, 54
2, 391724, Note_off_c, 0, 83, 53
2, 391730, Note_off_c, 0, 62, 50
2, 391775, Note_on_c, 0, 79, 54
2, 391777, Note_on_c, 0, 62, 40
2, 391854, Note_off_c, 0, 79, 53
2, 391998, Note_off_c, 0, 62, 50
2, 392000, Note_on_c, 0, 78, 52
2, 392000, Note_on_c, 0, 57, 39
2, 392008, Control_c, 0, 64, 0
2, 392181, Control_c, 0, 64, 127
2, 392224, Note_off_c, 0, 57, 49
2, 392224, Note_on_c, 0, 79, 50
2, 392224, Note_on_c, 0, 61, 38
2, 392290, Note_off_c, 0, 78, 53
2, 392394, Note_off_c, 0, 79, 52
2, 392415, Note_off_c, 0, 61, 49
2, 392461, Note_on_c, 0, 76, 48
2, 392464, Note_on_c, 0, 61, 36
2, 392549, Note_off_c, 0, 76, 52
2, 392684, Note_off_c, 0, 61, 49
2, 392684, Note_on_c, 0, 74, 48
2, 392687, Note_on_c, 0, 50, 36
2, 392698, Control_c, 0, 64, 0
2, 392871, Control_c, 0, 64, 127
2, 392924, Note_off_c, 0, 50, 49
2, 392924, Note_on_c, 0, 62, 38
2, 393097, Note_off_c, 0, 62, 49
2, 393148, Note_on_c, 0, 62, 40
2, 393388, Note_off_c, 0, 62, 50
2, 393388, Note_on_c, 0, 60, 42
2, 393394, Control_c, 0, 64, 0
2, 393568, Control_c, 0, 64, 127
2, 393611, Note_off_c, 0, 60, 50
2, 393611, Note_on_c, 0, 76, 56
2, 393613, Note_on_c, 0, 62, 44
2, 393650, Note_off_c, 0, 74, 52
2, 393775, Note_off_c, 0, 62, 51
2, 393815, Note_on_c, 0, 78, 58
2, 393817, Note_on_c, 0, 62, 46
2, 393837, Note_off_c, 0, 76, 54
2, 393988, Note_off_c, 0, 78, 54
2, 394038, Note_off_c, 0, 62, 51
2, 394040, Note_on_c, 0, 81, 60
2, 394091, Note_off_c, 0, 81, 55
2, 394091, Note_on_c, 0, 79, 60
2, 394091, Note_on_c, 0, 59, 48
2, 394098, Control_c, 0, 64, 0
2, 394271, Control_c, 0, 64, 127
2, 394297, Note_off_c, 0, 59, 52
2, 394297, Note_on_c, 0, 78, 60
2, 394300, Note_on_c, 0, 62, 48
2, 394331, Note_off_c, 0, 79, 55
2, 394439, Note_off_c, 0, 62, 52
2, 394518, Note_on_c, 0, 79, 54
2, 394520, Note_on_c, 0, 62, 42
2, 394577, Note_off_c, 0, 78, 55
2, 394741, Note_off_c, 0, 62, 50
2, 394744, Note_on_c, 0, 74, 48
2, 394744, Note_on_c, 0, 55, 36
2, 394751, Control_c, 0, 64, 0
2, 394794, Note_off_c, 0, 79, 53
2, 394924, Control_c, 0, 64, 127
2, 394981, Note_off_c, 0, 55, 49
2, 394984, Note_on_c, 0, 78, 48
2, 394984, Note_on_c, 0, 62, 36
2, 395017, Note_off_c, 0, 74, 52
2, 395134, Note_off_c, 0, 62, 49
2, 395204, Note_on_c, 0, 79, 50
2, 395204, Note_on_c, 0, 62, 37
2, 395260, Note_off_c, 0, 78, 52
2, 395392, Note_off_c, 0, 79, 52
2, 395394, Note_off_c, 0, 62, 49
2, 395394, Note_on_c, 0, 83, 52
2, 395444, Note_off_c, 0, 83, 53
2, 395444, Note_on_c, 0, 81, 52
2, 395444, Note_on_c, 0, 54, 38
2, 395448, Control_c, 0, 64, 0
2, 395621, Control_c, 0, 64, 127
2, 395651, Note_off_c, 0, 54, 49
2, 395651, Note_on_c, 0, 80, 54
2, 395653, Note_on_c, 0, 57, 39
2, 395704, Note_off_c, 0, 81, 53
2, 395874, Note_off_c, 0, 57, 49
2, 395874, Note_on_c, 0, 81, 56
2, 395874, Note_on_c, 0, 62, 40
2, 395942, Note_off_c, 0, 80, 53
2, 396028, Note_off_c, 0, 81, 54
2, 396095, Note_off_c, 0, 62, 50
2, 396095, Note_on_c, 0, 84, 58
2, 396148, Note_off_c, 0, 84, 54
2, 396148, Note_on_c, 0, 83, 58
2, 396148, Note_on_c, 0, 55, 42
2, 396164, Control_c, 0, 64, 0
2, 396338, Control_c, 0, 64, 127
2, 396371, Note_off_c, 0, 55, 50
2, 396371, Note_on_c, 0, 81, 61
2, 396373, Note_on_c, 0, 59, 43
2, 396411, Note_off_c, 0, 83, 54
2, 396594, Note_off_c, 0, 59, 50
2, 396594, Note_on_c, 0, 83, 63
2, 396594, Note_on_c, 0, 62, 44
2, 396661, Note_off_c, 0, 81, 55
2, 396745, Note_off_c, 0, 83, 55
2, 396762, Note_on_c, 0, 86, 58
2, 396815, Note_off_c, 0, 62, 51
2, 396815, Note_off_c, 0, 86, 54
2, 396815, Note_on_c, 0, 84, 65
2, 396817, Note_on_c, 0, 48, 45
2, 396828, Control_c, 0, 64, 0
2, 397001, Control_c, 0, 64, 127
2, 397038, Note_off_c, 0, 48, 51
2, 397040, Note_on_c, 0, 83, 67
2, 397040, Note_on_c, 0, 52, 46
2, 397079, Note_off_c, 0, 84, 56
2, 397261, Note_off_c, 0, 52, 51
2, 397261, Note_on_c, 0, 84, 69
2, 397264, Note_on_c, 0, 57, 48
2, 397327, Note_off_c, 0, 83, 57
2, 397432, Note_off_c, 0, 84, 57
2, 397501, Note_off_c, 0, 57, 52
2, 397501, Note_on_c, 0, 88, 72
2, 397501, Note_on_c, 0, 54, 48
2, 397504, Note_on_c, 0, 50, 40
2, 397514, Control_c, 0, 64, 0
2, 397688, Control_c, 0, 64, 127
2, 397722, Note_off_c, 0, 54, 52
2, 397724, Note_off_c, 0, 50, 50
2, 397724, Note_on_c, 0, 57, 46
2, 397964, Note_off_c, 0, 57, 51
2, 397964, Note_on_c, 0, 78, 48
2, 397967, Note_on_c, 0, 60, 44
2, 397996, Note_off_c, 0, 88, 58
2, 398135, Note_off_c, 0, 78, 52
2, 398185, Note_off_c, 0, 60, 51
2, 398188, Note_on_c, 0, 79, 60
2, 398188, Note_on_c, 0, 55, 41
2, 398198, Control_c, 0, 64, 0
2, 398371, Control_c, 0, 64, 127
2, 398408, Note_off_c, 0, 55, 50
2, 398411, Note_on_c, 0, 59, 39
2, 398648, Note_off_c, 0, 79, 55
2, 398651, Note_off_c, 0, 59, 49
2, 398651, Note_on_c, 0, 62, 36
2, 398821, Note_off_c, 0, 62, 49
2, 398821, Note_on_c, 0, 69, 56
2, 398864, Control_c, 0, 64, 0
2, 398872, Note_off_c, 0, 69, 54
2, 398872, Note_on_c, 0, 67, 56
2, 399038, Control_c, 0, 64, 127
2, 399095, Note_on_c, 0, 66, 52
2, 399163, Note_off_c, 0, 67, 54
2, 399301, Note_on_c, 0, 67, 48
2, 399343, Note_off_c, 0, 66, 53
2, 399472, Note_off_c, 0, 67, 52
2, 399514, Note_on_c, 0, 74, 43
2, 399524, Note_on_c, 0, 67, 26
2, 399525, Note_on_c, 0, 62, 33
2, 399526, Note_on_c, 0, 59, 36
2, 399531, Control_c, 0, 64, 0
2, 399704, Control_c, 0, 64, 127
2, 399872, Note_off_c, 0, 74, 50
2, 399949, Note_off_c, 0, 62, 48
2, 399954, Note_off_c, 0, 59, 49
2, 399958, Note_on_c, 0, 74, 55
2, 400060, Note_off_c, 0, 67, 46
2, 400131, Note_off_c, 0, 74, 53
2, 400183, Note_on_c, 0, 74, 63
2, 400193, Note_on_c, 0, 68, 43
2, 400197, Note_on_c, 0, 62, 51
2, 400197, Note_on_c, 0, 58, 35
2, 400204, Control_c, 0, 64, 0
2, 400378, Control_c, 0, 64, 127
2, 400556, Note_off_c, 0, 74, 55
2, 400628, Note_on_c, 0, 74, 81
2, 400656, Note_off_c, 0, 68, 50
2, 400678, Note_off_c, 0, 62, 52
2, 400751, Note_off_c, 0, 58, 48
2, 400816, Note_off_c, 0, 74, 60
2, 400868, Note_on_c, 0, 74, 86
2, 400876, Note_on_c, 0, 64, 71
2, 400876, Note_on_c, 0, 57, 57
2, 400882, Note_on_c, 0, 69, 62
2, 400884, Control_c, 0, 64, 0
2, 401058, Control_c, 0, 64, 127
2, 401341, Note_off_c, 0, 64, 58
2, 401341, Note_on_c, 0, 73, 56
2, 401366, Note_off_c, 0, 57, 54
2, 401383, Note_off_c, 0, 74, 61
2, 401397, Note_off_c, 0, 69, 55
2, 401512, Note_off_c, 0, 73, 54
2, 401514, Note_on_c, 0, 71, 50
2, 401571, Control_c, 0, 64, 0
2, 401579, Note_off_c, 0, 71, 52
2, 401581, Note_on_c, 0, 69, 48
2, 401744, Control_c, 0, 64, 127
2, 401785, Note_on_c, 0, 68, 48
2, 401825, Note_off_c, 0, 69, 52
2, 402008, Note_on_c, 0, 69, 51
2, 402030, Note_off_c, 0, 68, 52
2, 402159, Note_off_c, 0, 69, 52
2, 402206, Note_on_c, 0, 72, 46
2, 402222, Note_on_c, 0, 57, 31
2, 402224, Note_on_c, 0, 69, 29
2, 402227, Note_on_c, 0, 64, 36
2, 402228, Control_c, 0, 64, 0
2, 402401, Control_c, 0, 64, 127
2, 402580, Note_off_c, 0, 72, 51
2, 402649, Note_on_c, 0, 72, 59
2, 402715, Note_off_c, 0, 57, 47
2, 402732, Note_off_c, 0, 64, 49
2, 402763, Note_off_c, 0, 69, 47
2, 402826, Note_off_c, 0, 72, 54
2, 402873, Note_on_c, 0, 72, 66
2, 402890, Note_on_c, 0, 63, 54
2, 402893, Note_on_c, 0, 54, 40
2, 402897, Note_on_c, 0, 69, 46
2, 402908, Control_c, 0, 64, 0
2, 403081, Control_c, 0, 64, 127
2, 403263, Note_off_c, 0, 72, 56
2, 403335, Note_on_c, 0, 72, 81
2, 403425, Note_off_c, 0, 54, 50
2, 403440, Note_off_c, 0, 63, 53
2, 403475, Note_off_c, 0, 69, 51
2, 403503, Note_off_c, 0, 72, 60
2, 403563, Note_on_c, 0, 72, 71
2, 403581, Note_on_c, 0, 62, 57
2, 403581, Note_on_c, 0, 55, 43
2, 403582, Note_on_c, 0, 67, 48
2, 403584, Control_c, 0, 64, 0
2, 403758, Control_c, 0, 64, 127
2, 404032, Note_on_c, 0, 71, 48
2, 404040, Note_off_c, 0, 55, 50
2, 404077, Note_off_c, 0, 72, 58
2, 404110, Note_off_c, 0, 67, 52
2, 404121, Note_off_c, 0, 62, 54
2, 404202, Note_off_c, 0, 71, 52
2, 404207, Note_on_c, 0, 72, 50
2, 404269, Note_off_c, 0, 72, 52
2, 404272, Note_on_c, 0, 71, 48
2, 404272, Note_on_c, 0, 55, 36
2, 404274, Control_c, 0, 64, 0
2, 404448, Control_c, 0, 64, 127
2, 404478, Note_off_c, 0, 55, 49
2, 404478, Note_on_c, 0, 69, 52
2, 404478, Note_on_c, 0, 62, 36
2, 404513, Note_off_c, 0, 71, 52
2, 404641, Note_off_c, 0, 62, 49
2, 404699, Note_on_c, 0, 71, 56
2, 404699, Note_on_c, 0, 62, 42
2, 404756, Note_off_c, 0, 69, 53
2, 404869, Note_off_c, 0, 71, 54
2, 404922, Note_off_c, 0, 62, 50
2, 404922, Note_on_c, 0, 72, 60
2, 404924, Note_on_c, 0, 57, 48
2, 404928, Control_c, 0, 64, 0
2, 405101, Control_c, 0, 64, 127
2, 405145, Note_off_c, 0, 57, 52
2, 405145, Note_on_c, 0, 62, 48
2, 405319, Note_off_c, 0, 62, 52
2, 405385, Note_on_c, 0, 62, 42
2, 405606, Note_off_c, 0, 72, 55
2, 405608, Note_off_c, 0, 62, 50
2, 405608, Note_on_c, 0, 71, 48
2, 405676, Note_off_c, 0, 71, 52
2, 405676, Note_on_c, 0, 69, 48
2, 405678, Note_on_c, 0, 60, 36
2, 405684, Control_c, 0, 64, 0
2, 405858, Control_c, 0, 64, 127
2, 405882, Note_off_c, 0, 60, 49
2, 405882, Note_on_c, 0, 68, 48
2, 405884, Note_on_c, 0, 62, 36
2, 405928, Note_off_c, 0, 69, 52
2, 406034, Note_off_c, 0, 62, 49
2, 406105, Note_on_c, 0, 69, 54
2, 406105, Note_on_c, 0, 62, 42
2, 406161, Note_off_c, 0, 68, 52
2, 406259, Note_off_c, 0, 69, 53
2, 406326, Note_off_c, 0, 62, 50
2, 406328, Note_on_c, 0, 74, 60
2, 406328, Note_on_c, 0, 59, 48
2, 406338, Control_c, 0, 64, 0
2, 406511, Control_c, 0, 64, 127
2, 406549, Note_off_c, 0, 59, 52
2, 406552, Note_on_c, 0, 55, 48
2, 406715, Note_off_c, 0, 55, 52
2, 406772, Note_on_c, 0, 55, 45
2, 407012, Note_off_c, 0, 55, 51
2, 407012, Note_on_c, 0, 48, 42
2, 407021, Control_c, 0, 64, 0
2, 407194, Control_c, 0, 64, 127
2, 407219, Note_off_c, 0, 48, 50
2, 407221, Note_on_c, 0, 75, 48
2, 407221, Note_on_c, 0, 55, 39
2, 407290, Note_off_c, 0, 74, 55
2, 407379, Note_off_c, 0, 55, 49
2, 407442, Note_on_c, 0, 76, 48
2, 407442, Note_on_c, 0, 55, 36
2, 407477, Note_off_c, 0, 75, 52
2, 407576, Note_off_c, 0, 76, 52
2, 407646, Note_off_c, 0, 55, 49
2, 407648, Note_on_c, 0, 67, 51
2, 407648, Note_on_c, 0, 50, 36
2, 407658, Control_c, 0, 64, 0
2, 407831, Control_c, 0, 64, 127
2, 407869, Note_off_c, 0, 50, 49
2, 407869, Note_on_c, 0, 55, 40
2, 407956, Note_on_c, 0, 69, 56
2, 407961, Note_off_c, 0, 67, 52
2, 408014, Note_off_c, 0, 55, 50
2, 408042, Note_off_c, 0, 69, 54
2, 408042, Note_on_c, 0, 67, 57
2, 408092, Note_on_c, 0, 55, 45
2, 408126, Note_on_c, 0, 66, 58
2, 408140, Note_off_c, 0, 67, 54
2, 408212, Note_off_c, 0, 66, 54
2, 408212, Note_on_c, 0, 67, 60
2, 408316, Note_off_c, 0, 55, 51
2, 408316, Note_off_c, 0, 67, 55
2, 408318, Note_on_c, 0, 71, 60
2, 408318, Note_on_c, 0, 50, 48
2, 408321, Control_c, 0, 64, 0
2, 408494, Control_c, 0, 64, 127
2, 408539, Note_off_c, 0, 50, 52
2, 408539, Note_on_c, 0, 54, 48
2, 408704, Note_off_c, 0, 54, 52
2, 408760, Note_on_c, 0, 69, 48
2, 408762, Note_on_c, 0, 54, 42
2, 408823, Note_off_c, 0, 71, 55
2, 408916, Note_off_c, 0, 69, 52
2, 408983, Note_off_c, 0, 54, 50
2, 408985, Note_on_c, 0, 67, 48
2, 408985, Note_on_c, 0, 43, 36
2, 408994, Control_c, 0, 64, 0
2, 409168, Control_c, 0, 64, 127
2, 409223, Note_off_c, 0, 43, 49
2, 409225, Note_on_c, 0, 55, 36
2, 409394, Note_off_c, 0, 55, 49
2, 409429, Note_off_c, 0, 67, 52
2, 409446, Note_on_c, 0, 55, 37
2, 409686, Note_off_c, 0, 55, 49
2, 409686, Note_on_c, 0, 69, 51
2, 409724, Control_c, 0, 64, 0
2, 409739, Note_off_c, 0, 69, 52
2, 409739, Note_on_c, 0, 67, 51
2, 409898, Control_c, 0, 64, 127
2, 409962, Note_on_c, 0, 66, 54
2, 410000, Note_off_c, 0, 67, 52
2, 410166, Note_on_c, 0, 67, 57
2, 410220, Note_off_c, 0, 66, 53
2, 410336, Note_off_c, 0, 67, 54
2, 410379, Note_on_c, 0, 74, 51
2, 410389, Note_on_c, 0, 67, 41
2, 410392, Note_on_c, 0, 59, 36
2, 410394, Control_c, 0, 64, 0
2, 410568, Control_c, 0, 64, 127
2, 410612, Note_off_c, 0, 59, 49
2, 410612, Note_on_c, 0, 62, 39
2, 410723, Note_off_c, 0, 74, 52
2, 410802, Note_off_c, 0, 62, 49
2, 410806, Note_on_c, 0, 74, 63
2, 410819, Note_on_c, 0, 62, 42
2, 410942, Note_off_c, 0, 67, 50
2, 410973, Note_off_c, 0, 74, 55
2, 411025, Note_off_c, 0, 62, 50
2, 411030, Note_on_c, 0, 74, 70
2, 411042, Note_on_c, 0, 68, 58
2, 411042, Note_on_c, 0, 58, 46
2, 411044, Control_c, 0, 64, 0
2, 411218, Control_c, 0, 64, 127
2, 411263, Note_off_c, 0, 58, 51
2, 411263, Note_on_c, 0, 62, 49
2, 411409, Note_off_c, 0, 74, 57
2, 411469, Note_off_c, 0, 62, 52
2, 411493, Note_on_c, 0, 74, 81
2, 411503, Note_on_c, 0, 62, 55
2, 411627, Note_off_c, 0, 68, 54
2, 411666, Note_off_c, 0, 74, 60
2, 411692, Note_off_c, 0, 62, 53
2, 411716, Note_on_c, 0, 74, 71
2, 411726, Note_on_c, 0, 69, 57
2, 411728, Note_on_c, 0, 57, 43
2, 411731, Control_c, 0, 64, 0
2, 411904, Control_c, 0, 64, 127
2, 411949, Note_off_c, 0, 57, 50
2, 411949, Note_on_c, 0, 64, 36
2, 412103, Note_off_c, 0, 64, 49
2, 412172, Note_on_c, 0, 73, 48
2, 412172, Note_on_c, 0, 64, 37
2, 412236, Note_off_c, 0, 74, 58
2, 412271, Note_off_c, 0, 69, 54
2, 412353, Note_off_c, 0, 64, 49
2, 412412, Note_off_c, 0, 73, 52
2, 412415, Note_on_c, 0, 71, 48
2, 412458, Control_c, 0, 64, 0
2, 412463, Note_off_c, 0, 71, 52
2, 412463, Note_on_c, 0, 69, 48
2, 412465, Note_on_c, 0, 64, 38
2, 412604, Note_off_c, 0, 64, 49
2, 412631, Control_c, 0, 64, 127
2, 412686, Note_on_c, 0, 68, 51
2, 412686, Note_on_c, 0, 64, 39
2, 412704, Note_off_c, 0, 69, 52
2, 412840, Note_off_c, 0, 64, 49
2, 412890, Note_on_c, 0, 69, 54
2, 412892, Note_on_c, 0, 64, 40
2, 412939, Note_off_c, 0, 68, 52
2, 413051, Note_off_c, 0, 69, 53
2, 413099, Note_off_c, 0, 64, 50
2, 413103, Note_on_c, 0, 72, 49
2, 413116, Note_on_c, 0, 69, 39
2, 413116, Note_on_c, 0, 57, 36
2, 413124, Control_c, 0, 64, 0
2, 413298, Control_c, 0, 64, 127
2, 413336, Note_off_c, 0, 57, 49
2, 413339, Note_on_c, 0, 64, 39
2, 413473, Note_off_c, 0, 72, 52
2, 413501, Note_off_c, 0, 64, 49
2, 413533, Note_on_c, 0, 72, 62
2, 413543, Note_on_c, 0, 64, 42
2, 413676, Note_off_c, 0, 69, 49
2, 413695, Note_off_c, 0, 72, 55
2, 413749, Note_off_c, 0, 64, 50
2, 413756, Note_on_c, 0, 72, 69
2, 413766, Note_on_c, 0, 69, 57
2, 413766, Note_on_c, 0, 54, 46
2, 413771, Control_c, 0, 64, 0
2, 413944, Control_c, 0, 64, 127
2, 413989, Note_off_c, 0, 54, 51
2, 413989, Note_on_c, 0, 63, 49
2, 414155, Note_off_c, 0, 72, 57
2, 414166, Note_off_c, 0, 63, 52
2, 414200, Note_on_c, 0, 72, 81
2, 414212, Note_on_c, 0, 63, 54
2, 414371, Note_off_c, 0, 69, 54
2, 414389, Note_off_c, 0, 72, 60
2, 414445, Note_on_c, 0, 72, 71
2, 414452, Note_off_c, 0, 63, 53
2, 414455, Note_on_c, 0, 67, 57
2, 414455, Note_on_c, 0, 55, 57
2, 414458, Control_c, 0, 64, 0
2, 414631, Control_c, 0, 64, 127
2, 414673, Note_off_c, 0, 55, 54
2, 414676, Note_on_c, 0, 62, 44
2, 414828, Note_off_c, 0, 62, 51
2, 414896, Note_on_c, 0, 71, 48
2, 414896, Note_on_c, 0, 62, 40
2, 414943, Note_off_c, 0, 72, 58
2, 415027, Note_off_c, 0, 67, 54
2, 415081, Note_off_c, 0, 62, 50
2, 415136, Note_off_c, 0, 71, 52
2, 415139, Note_on_c, 0, 72, 48
2, 415178, Control_c, 0, 64, 0
2, 415187, Note_off_c, 0, 72, 52
2, 415189, Note_on_c, 0, 71, 48
2, 415189, Note_on_c, 0, 62, 36
2, 415334, Note_off_c, 0, 62, 49
2, 415351, Control_c, 0, 64, 127
2, 415410, Note_on_c, 0, 69, 52
2, 415412, Note_on_c, 0, 62, 36
2, 415439, Note_off_c, 0, 71, 52
2, 415569, Note_off_c, 0, 62, 49
2, 415616, Note_on_c, 0, 71, 56
2, 415616, Note_on_c, 0, 62, 42
2, 415633, Note_off_c, 0, 69, 53
2, 415787, Note_off_c, 0, 71, 54
2, 415840, Note_off_c, 0, 62, 50
2, 415840, Note_on_c, 0, 72, 60
2, 415842, Note_on_c, 0, 57, 48
2, 415851, Control_c, 0, 64, 0
2, 416024, Control_c, 0, 64, 127
2, 416063, Note_off_c, 0, 57, 52
2, 416063, Note_on_c, 0, 62, 48
2, 416224, Note_off_c, 0, 62, 52
2, 416303, Note_on_c, 0, 62, 42
2, 416524, Note_off_c, 0, 72, 55
2, 416526, Note_off_c, 0, 62, 50
2, 416526, Note_on_c, 0, 71, 48
2, 416593, Note_off_c, 0, 71, 52
2, 416593, Note_on_c, 0, 69, 48
2, 416596, Note_on_c, 0, 60, 36
2, 416598, Control_c, 0, 64, 0
2, 416771, Control_c, 0, 64, 127
2, 416800, Note_off_c, 0, 60, 49
2, 416802, Note_on_c, 0, 68, 52
2, 416802, Note_on_c, 0, 62, 36
2, 416854, Note_off_c, 0, 69, 52
2, 416957, Note_off_c, 0, 62, 49
2, 417023, Note_on_c, 0, 69, 56
2, 417023, Note_on_c, 0, 62, 42
2, 417076, Note_off_c, 0, 68, 53
2, 417176, Note_off_c, 0, 69, 54
2, 417244, Note_off_c, 0, 62, 50
2, 417246, Note_on_c, 0, 74, 60
2, 417246, Note_on_c, 0, 59, 48
2, 417258, Control_c, 0, 64, 0
2, 417431, Control_c, 0, 64, 127
2, 417467, Note_off_c, 0, 59, 52
2, 417469, Note_on_c, 0, 55, 48
2, 417631, Note_off_c, 0, 55, 52
2, 417690, Note_on_c, 0, 55, 42
2, 417930, Note_off_c, 0, 55, 50
2, 417930, Note_on_c, 0, 48, 36
2, 417938, Control_c, 0, 64, 0
2, 418111, Control_c, 0, 64, 127
2, 418153, Note_off_c, 0, 48, 49
2, 418156, Note_on_c, 0, 75, 48
2, 418156, Note_on_c, 0, 55, 36
2, 418223, Note_off_c, 0, 74, 55
2, 418376, Note_off_c, 0, 55, 49
2, 418376, Note_on_c, 0, 76, 48
2, 418379, Note_on_c, 0, 60, 39
2, 418446, Note_off_c, 0, 75, 52
2, 418506, Note_off_c, 0, 76, 52
2, 418580, Note_off_c, 0, 60, 49
2, 418583, Note_on_c, 0, 67, 51
2, 418583, Note_on_c, 0, 50, 43
2, 418591, Control_c, 0, 64, 0
2, 418764, Control_c, 0, 64, 127
2, 418804, Note_off_c, 0, 50, 50
2, 418806, Note_on_c, 0, 55, 46
2, 418875, Note_off_c, 0, 67, 52
2, 418890, Note_on_c, 0, 69, 55
2, 418976, Note_off_c, 0, 69, 53
2, 418976, Note_on_c, 0, 67, 56
2, 419010, Note_off_c, 0, 55, 51
2, 419012, Note_on_c, 0, 59, 48
2, 419060, Note_on_c, 0, 66, 57
2, 419082, Note_off_c, 0, 67, 54
2, 419147, Note_off_c, 0, 66, 54
2, 419147, Note_on_c, 0, 67, 58
2, 419233, Note_off_c, 0, 59, 52
2, 419233, Note_off_c, 0, 67, 54
2, 419233, Note_on_c, 0, 71, 60
2, 419236, Note_on_c, 0, 50, 45
2, 419244, Control_c, 0, 64, 0
2, 419418, Control_c, 0, 64, 127
2, 419456, Note_off_c, 0, 50, 51
2, 419456, Note_on_c, 0, 54, 36
2, 419696, Note_off_c, 0, 54, 49
2, 419696, Note_on_c, 0, 69, 48
2, 419699, Note_on_c, 0, 60, 36
2, 419743, Note_off_c, 0, 71, 55
2, 419874, Note_off_c, 0, 69, 52
2, 419881, Note_off_c, 0, 60, 49
2, 419920, Note_on_c, 0, 67, 48
2, 419922, Note_on_c, 0, 59, 36
2, 419922, Note_on_c, 0, 55, 30
2, 419931, Control_c, 0, 64, 0
2, 420104, Control_c, 0, 64, 127
2, 420368, Control_c, 0, 64, 0
2, 420380, Note_off_c, 0, 67, 52
2, 420383, Note_off_c, 0, 55, 47
2, 420383, Note_off_c, 0, 59, 49
2, 420383, Note_on_c, 0, 62, 52
2, 420484, Note_off_c, 0, 62, 53
2, 420587, Note_on_c, 0, 62, 54
2, 420707, Note_off_c, 0, 62, 53
2, 420810, Note_on_c, 0, 67, 56
2, 420810, Note_on_c, 0, 62, 44
2, 420812, Note_on_c, 0, 59, 36
2, 420913, Note_off_c, 0, 67, 54
2, 420913, Note_off_c, 0, 59, 49
2, 420913, Note_off_c, 0, 62, 51
2, 421014, Note_on_c, 0, 69, 58
2, 421016, Note_on_c, 0, 60, 46
2, 421016, Note_on_c, 0, 57, 38
2, 421134, Note_off_c, 0, 69, 54
2, 421136, Note_off_c, 0, 57, 49
2, 421136, Note_off_c, 0, 60, 51
2, 421237, Note_on_c, 0, 71, 60
2, 421240, Note_on_c, 0, 59, 48
2, 421240, Note_on_c, 0, 55, 40
2, 421258, Control_c, 0, 64, 127
2, 421480, Note_on_c, 0, 67, 60
2, 421503, Note_off_c, 0, 71, 55
2, 421574, Control_c, 0, 64, 0
2, 421650, Note_off_c, 0, 67, 55
2, 421700, Note_off_c, 0, 55, 50
2, 421700, Note_off_c, 0, 59, 52
2, 421703, Note_on_c, 0, 62, 54
2, 421804, Note_off_c, 0, 62, 53
2, 421924, Note_on_c, 0, 62, 48
2, 422027, Note_off_c, 0, 62, 52
2, 422130, Note_on_c, 0, 69, 48
2, 422130, Note_on_c, 0, 60, 44
2, 422130, Note_on_c, 0, 57, 36
2, 422231, Note_off_c, 0, 69, 52
2, 422233, Note_off_c, 0, 57, 49
2, 422233, Note_off_c, 0, 60, 51
2, 422351, Note_on_c, 0, 71, 54
2, 422353, Note_on_c, 0, 59, 40
2, 422353, Note_on_c, 0, 55, 32
2, 422471, Note_off_c, 0, 71, 53
2, 422473, Note_off_c, 0, 55, 48
2, 422473, Note_off_c, 0, 59, 50
2, 422564, Control_c, 0, 64, 127
2, 422574, Note_on_c, 0, 72, 60
2, 422576, Note_on_c, 0, 57, 36
2, 422576, Note_on_c, 0, 54, 30
2, 422816, Note_on_c, 0, 69, 48
2, 422863, Note_off_c, 0, 72, 55
2, 422898, Control_c, 0, 64, 0
2, 422977, Note_off_c, 0, 69, 52
2, 423037, Note_off_c, 0, 57, 49
2, 423040, Note_off_c, 0, 54, 47
2, 423040, Note_on_c, 0, 50, 72
2, 423140, Note_off_c, 0, 50, 58
2, 423260, Note_on_c, 0, 50, 72
2, 423364, Note_off_c, 0, 50, 58
2, 423467, Note_on_c, 0, 74, 84
2, 423467, Note_on_c, 0, 71, 78
2, 423467, Note_on_c, 0, 55, 76
2, 423568, Note_off_c, 0, 74, 61
2, 423570, Note_off_c, 0, 55, 59
2, 423570, Note_off_c, 0, 71, 59
2, 423688, Note_on_c, 0, 72, 84
2, 423690, Note_on_c, 0, 57, 80
2, 423690, Note_on_c, 0, 69, 78
2, 423791, Note_off_c, 0, 72, 61
2, 423793, Note_off_c, 0, 69, 59
2, 423793, Note_off_c, 0, 57, 60
2, 423898, Control_c, 0, 64, 127
2, 423911, Note_on_c, 0, 71, 78
2, 423913, Note_on_c, 0, 59, 84
2, 423913, Note_on_c, 0, 67, 72
2, 424136, Note_on_c, 0, 62, 72
2, 424157, Note_off_c, 0, 67, 58
2, 424164, Note_off_c, 0, 71, 59
2, 424258, Control_c, 0, 64, 0
2, 424307, Note_off_c, 0, 62, 58
2, 424374, Note_off_c, 0, 59, 61
2, 424374, Note_on_c, 0, 50, 60
2, 424477, Note_off_c, 0, 50, 55
2, 424580, Note_on_c, 0, 50, 60
2, 424684, Note_off_c, 0, 50, 55
2, 424784, Note_on_c, 0, 72, 68
2, 424787, Note_on_c, 0, 57, 64
2, 424787, Note_on_c, 0, 69, 60
2, 424904, Note_off_c, 0, 72, 57
2, 424907, Note_off_c, 0, 69, 55
2, 424907, Note_off_c, 0, 57, 56
2, 425008, Note_on_c, 0, 71, 63
2, 425010, Note_on_c, 0, 59, 68
2, 425010, Note_on_c, 0, 67, 55
2, 425128, Note_off_c, 0, 71, 55
2, 425130, Note_off_c, 0, 67, 53
2, 425130, Note_off_c, 0, 59, 57
2, 425218, Control_c, 0, 64, 127
2, 425231, Note_on_c, 0, 69, 58
2, 425233, Note_on_c, 0, 60, 72
2, 425233, Note_on_c, 0, 66, 50
2, 425473, Note_on_c, 0, 62, 53
2, 425508, Note_off_c, 0, 69, 54
2, 425533, Note_off_c, 0, 66, 52
2, 425564, Control_c, 0, 64, 0
2, 425644, Note_off_c, 0, 62, 53
2, 425694, Note_off_c, 0, 60, 58
2, 425694, Note_on_c, 0, 62, 48
2, 425797, Note_off_c, 0, 62, 52
2, 425900, Note_on_c, 0, 62, 48
2, 426020, Note_off_c, 0, 62, 52
2, 426121, Note_on_c, 0, 67, 52
2, 426124, Note_on_c, 0, 59, 54
2, 426124, Note_on_c, 0, 62, 48
2, 426224, Note_off_c, 0, 67, 53
2, 426227, Note_off_c, 0, 62, 52
2, 426227, Note_off_c, 0, 59, 53
2, 426344, Note_on_c, 0, 69, 56
2, 426347, Note_on_c, 0, 57, 54
2, 426347, Note_on_c, 0, 60, 48
2, 426448, Note_off_c, 0, 69, 54
2, 426450, Note_off_c, 0, 60, 52
2, 426450, Note_off_c, 0, 57, 53
2, 426538, Control_c, 0, 64, 127
2, 426568, Note_on_c, 0, 71, 60
2, 426570, Note_on_c, 0, 55, 42
2, 426570, Note_on_c, 0, 59, 36
2, 426791, Note_on_c, 0, 67, 60
2, 426823, Note_off_c, 0, 71, 55
2, 426904, Control_c, 0, 64, 0
2, 426961, Note_off_c, 0, 67, 55
2, 427014, Note_off_c, 0, 59, 49
2, 427014, Note_off_c, 0, 55, 50
2, 427016, Note_on_c, 0, 64, 48
2, 427134, Note_off_c, 0, 64, 52
2, 427237, Note_on_c, 0, 64, 48
2, 427338, Note_off_c, 0, 64, 52
2, 427441, Note_on_c, 0, 69, 54
2, 427444, Note_on_c, 0, 60, 54
2, 427444, Note_on_c, 0, 64, 48
2, 427561, Note_off_c, 0, 69, 53
2, 427564, Note_off_c, 0, 64, 52
2, 427564, Note_off_c, 0, 60, 53
2, 427664, Note_on_c, 0, 71, 60
2, 427667, Note_on_c, 0, 59, 54
2, 427667, Note_on_c, 0, 62, 48
2, 427768, Note_off_c, 0, 71, 55
2, 427768, Note_off_c, 0, 62, 52
2, 427770, Note_off_c, 0, 59, 53
2, 427871, Control_c, 0, 64, 127
2, 427878, Note_on_c, 0, 72, 48
2, 427888, Note_on_c, 0, 60, 36
2, 427890, Note_on_c, 0, 57, 42
2, 428111, Note_on_c, 0, 69, 60
2, 428160, Note_off_c, 0, 72, 52
2, 428214, Control_c, 0, 64, 0
2, 428281, Note_off_c, 0, 69, 55
2, 428351, Note_off_c, 0, 57, 50
2, 428351, Note_off_c, 0, 60, 49
2, 428353, Note_on_c, 0, 76, 60
2, 428454, Note_off_c, 0, 76, 55
2, 428557, Note_on_c, 0, 74, 60
2, 428677, Note_off_c, 0, 74, 55
2, 428778, Note_on_c, 0, 72, 57
2, 428780, Note_on_c, 0, 54, 46
2, 428780, Note_on_c, 0, 57, 40
2, 428881, Note_off_c, 0, 72, 54
2, 428884, Note_off_c, 0, 57, 50
2, 428884, Note_off_c, 0, 54, 51
2, 429001, Note_on_c, 0, 71, 54
2, 429004, Note_on_c, 0, 55, 49
2, 429004, Note_on_c, 0, 59, 43
2, 429104, Note_off_c, 0, 71, 53
2, 429104, Note_off_c, 0, 59, 50
2, 429107, Note_off_c, 0, 55, 52
2, 429218, Control_c, 0, 64, 127
2, 429224, Note_on_c, 0, 69, 51
2, 429224, Note_on_c, 0, 60, 45
2, 429227, Note_on_c, 0, 57, 51
2, 429450, Note_on_c, 0, 67, 48
2, 429450, Note_on_c, 0, 62, 28
2, 429452, Note_on_c, 0, 59, 36
2, 429501, Note_off_c, 0, 69, 52
2, 429501, Note_off_c, 0, 60, 51
2, 429503, Note_off_c, 0, 57, 52
2, 429564, Control_c, 0, 64, 0
2, 429618, Note_off_c, 0, 67, 52
2, 429620, Note_off_c, 0, 62, 47
2, 429620, Note_off_c, 0, 59, 49
2, 429688, Note_on_c, 0, 64, 72
2, 429791, Note_off_c, 0, 64, 58
2, 429894, Note_on_c, 0, 62, 72
2, 429995, Note_off_c, 0, 62, 58
2, 430115, Note_on_c, 0, 76, 72
2, 430117, Note_on_c, 0, 60, 68
2, 430218, Note_off_c, 0, 76, 58
2, 430220, Note_off_c, 0, 60, 57
2, 430321, Note_on_c, 0, 79, 72
2, 430321, Note_on_c, 0, 74, 60
2, 430324, Note_on_c, 0, 59, 64
2, 430441, Note_off_c, 0, 79, 58
2, 430441, Note_off_c, 0, 74, 55
2, 430444, Note_off_c, 0, 59, 56
2, 430538, Control_c, 0, 64, 127
2, 430544, Note_on_c, 0, 78, 84
2, 430544, Note_on_c, 0, 72, 72
2, 430547, Note_on_c, 0, 57, 60
2, 430787, Note_on_c, 0, 79, 60
2, 430787, Note_on_c, 0, 71, 48
2, 430789, Note_on_c, 0, 55, 48
2, 430820, Note_off_c, 0, 78, 61
2, 430820, Note_off_c, 0, 72, 58
2, 430823, Note_off_c, 0, 57, 55
2, 430884, Control_c, 0, 64, 0
2, 430955, Note_off_c, 0, 79, 55
2, 430957, Note_off_c, 0, 71, 52
2, 430957, Note_off_c, 0, 55, 52
2, 431008, Note_on_c, 0, 76, 48
2, 431111, Note_off_c, 0, 76, 52
2, 431231, Note_on_c, 0, 74, 48
2, 431332, Note_off_c, 0, 74, 52
2, 431435, Note_on_c, 0, 72, 45
2, 431437, Note_on_c, 0, 54, 42
2, 431437, Note_on_c, 0, 57, 36
2, 431538, Note_off_c, 0, 72, 51
2, 431540, Note_off_c, 0, 57, 49
2, 431540, Note_off_c, 0, 54, 50
2, 431658, Note_on_c, 0, 71, 42
2, 431658, Note_on_c, 0, 59, 36
2, 431660, Note_on_c, 0, 55, 42
2, 431761, Note_off_c, 0, 71, 50
2, 431761, Note_off_c, 0, 59, 49
2, 431764, Note_off_c, 0, 55, 50
2, 431871, Control_c, 0, 64, 127
2, 431881, Note_on_c, 0, 69, 39
2, 431881, Note_on_c, 0, 60, 36
2, 431884, Note_on_c, 0, 57, 42
2, 432107, Note_on_c, 0, 67, 36
2, 432107, Note_on_c, 0, 62, 36
2, 432109, Note_on_c, 0, 59, 42
2, 432143, Note_off_c, 0, 69, 49
2, 432143, Note_off_c, 0, 60, 49
2, 432146, Note_off_c, 0, 57, 50
2, 432218, Control_c, 0, 64, 0
2, 432275, Note_off_c, 0, 67, 49
2, 432277, Note_off_c, 0, 62, 49
2, 432277, Note_off_c, 0, 59, 50
2, 432344, Note_on_c, 0, 64, 72
2, 432448, Note_off_c, 0, 64, 58
2, 432548, Note_on_c, 0, 62, 72
2, 432652, Note_off_c, 0, 62, 58
2, 432772, Note_on_c, 0, 76, 72
2, 432774, Note_on_c, 0, 60, 69
2, 432875, Note_off_c, 0, 76, 58
2, 432875, Note_off_c, 0, 60, 57
2, 432978, Note_on_c, 0, 79, 72
2, 432978, Note_on_c, 0, 74, 60
2, 432980, Note_on_c, 0, 59, 66
2, 433098, Note_off_c, 0, 79, 58
2, 433098, Note_off_c, 0, 74, 55
2, 433100, Note_off_c, 0, 59, 56
2, 433191, Control_c, 0, 64, 127
2, 433201, Note_on_c, 0, 78, 84
2, 433201, Note_on_c, 0, 72, 72
2, 433204, Note_on_c, 0, 57, 63
2, 433444, Note_on_c, 0, 79, 60
2, 433444, Note_on_c, 0, 71, 48
2, 433446, Note_on_c, 0, 55, 60
2, 433500, Note_off_c, 0, 78, 61
2, 433500, Note_off_c, 0, 72, 58
2, 433503, Note_off_c, 0, 57, 55
2, 433551, Control_c, 0, 64, 0
2, 433612, Note_off_c, 0, 79, 55
2, 433614, Note_off_c, 0, 71, 52
2, 433614, Note_off_c, 0, 55, 55
2, 433664, Note_on_c, 0, 62, 60
2, 433784, Note_off_c, 0, 62, 55
2, 433885, Note_on_c, 0, 80, 48
2, 433894, Note_on_c, 0, 77, 40
2, 433911, Control_c, 0, 64, 127
2, 434111, Note_on_c, 0, 81, 48
2, 434119, Note_on_c, 0, 78, 40
2, 434138, Note_off_c, 0, 77, 50
2, 434167, Note_off_c, 0, 80, 52
2, 434218, Control_c, 0, 64, 0
2, 434264, Note_off_c, 0, 81, 52
2, 434271, Note_off_c, 0, 78, 50
2, 434317, Note_on_c, 0, 62, 48
2, 434498, Note_off_c, 0, 62, 52
2, 434538, Note_on_c, 0, 82, 54
2, 434546, Note_on_c, 0, 78, 46
2, 434551, Control_c, 0, 64, 127
2, 434761, Note_on_c, 0, 83, 57
2, 434770, Note_on_c, 0, 79, 49
2, 434794, Note_off_c, 0, 82, 53
2, 434831, Note_off_c, 0, 78, 51
2, 434884, Control_c, 0, 64, 0
2, 434906, Note_off_c, 0, 83, 54
2, 434912, Note_off_c, 0, 79, 52
2, 434982, Note_on_c, 0, 62, 52
2, 435172, Note_off_c, 0, 62, 53
2, 435224, Note_on_c, 0, 83, 63
2, 435230, Note_on_c, 0, 80, 55
2, 435234, Control_c, 0, 64, 127
2, 435481, Note_on_c, 0, 84, 66
2, 435490, Note_on_c, 0, 81, 58
2, 435513, Note_off_c, 0, 83, 55
2, 435567, Note_off_c, 0, 80, 53
2, 435618, Control_c, 0, 64, 0
2, 435668, Note_off_c, 0, 84, 56
2, 435674, Note_off_c, 0, 81, 54
2, 435738, Note_on_c, 0, 62, 58
2, 435920, Note_off_c, 0, 62, 54
2, 436256, Note_on_c, 0, 84, 76
2, 436294, Control_c, 0, 64, 127
2, 436299, Note_on_c, 0, 50, 56
2, 436301, Note_on_c, 0, 72, 72
2, 436302, Note_on_c, 0, 54, 48
2, 436305, Note_on_c, 0, 57, 40
2, 436306, Note_on_c, 0, 78, 64
2, 436312, Note_on_c, 0, 81, 56
2, 436313, Note_on_c, 0, 62, 60
2, 437615, Note_off_c, 0, 78, 56
2, 437618, Note_off_c, 0, 81, 54
2, 437712, Note_off_c, 0, 84, 59
2, 437822, Note_on_c, 0, 81, 48
2, 438299, Note_off_c, 0, 81, 52
2, 438357, Note_on_c, 0, 78, 36
2, 438799, Note_off_c, 0, 72, 58
2, 439110, Note_off_c, 0, 50, 54
2, 439204, Note_off_c, 0, 57, 50
2, 439326, Note_off_c, 0, 62, 55
2, 439436, Note_off_c, 0, 54, 52
2, 439795, Note_off_c, 0, 78, 49
2, 439938, Control_c, 0, 64, 0
2, 440267, Note_on_c, 0, 38, 36
2, 440298, Control_c, 0, 64, 127
2, 440452, Note_off_c, 0, 38, 49
2, 440485, Note_on_c, 0, 38, 36
2, 440708, Note_off_c, 0, 38, 49
2, 440708, Note_on_c, 0, 45, 40
2, 440932, Note_off_c, 0, 45, 50
2, 440932, Note_on_c, 0, 47, 44
2, 441152, Note_off_c, 0, 47, 51
2, 441155, Note_on_c, 0, 62, 48
2, 441155, Note_on_c, 0, 54, 48
2, 441157, Note_on_c, 0, 48, 48
2, 441164, Control_c, 0, 64, 0
2, 441364, Control_c, 0, 64, 127
2, 441378, Note_on_c, 0, 57, 36
2, 441410, Note_off_c, 0, 54, 52
2, 441599, Note_on_c, 0, 54, 36
2, 441633, Note_off_c, 0, 57, 49
2, 441769, Note_off_c, 0, 54, 49
2, 441790, Note_off_c, 0, 62, 52
2, 441805, Note_off_c, 0, 48, 52
2, 441822, Note_on_c, 0, 62, 48
2, 441822, Note_on_c, 0, 55, 48
2, 441824, Note_on_c, 0, 47, 46
2, 441831, Control_c, 0, 64, 0
2, 442031, Control_c, 0, 64, 127
2, 442045, Note_on_c, 0, 59, 36
2, 442079, Note_off_c, 0, 55, 52
2, 442285, Note_on_c, 0, 55, 36
2, 442319, Note_off_c, 0, 59, 49
2, 442456, Note_off_c, 0, 55, 49
2, 442508, Note_off_c, 0, 47, 51
2, 442508, Note_off_c, 0, 62, 52
2, 442508, Note_on_c, 0, 66, 48
2, 442511, Note_on_c, 0, 60, 48
2, 442511, Note_on_c, 0, 45, 40
2, 442514, Control_c, 0, 64, 0
2, 442714, Control_c, 0, 64, 127
2, 442732, Note_on_c, 0, 62, 36
2, 442763, Note_off_c, 0, 60, 52
2, 442955, Note_on_c, 0, 60, 36
2, 442986, Note_off_c, 0, 62, 49
2, 443125, Note_off_c, 0, 60, 49
2, 443176, Note_off_c, 0, 45, 50
2, 443176, Note_off_c, 0, 66, 52
2, 443178, Note_on_c, 0, 67, 48
2, 443178, Note_on_c, 0, 59, 48
2, 443180, Note_on_c, 0, 43, 36
2, 443191, Control_c, 0, 64, 0
2, 443391, Control_c, 0, 64, 127
2, 443416, Note_on_c, 0, 62, 36
2, 443450, Note_off_c, 0, 59, 52
2, 443639, Note_on_c, 0, 59, 36
2, 443673, Note_off_c, 0, 62, 49
2, 443809, Note_off_c, 0, 59, 49
2, 443879, Note_off_c, 0, 43, 49
2, 443879, Note_off_c, 0, 67, 52
2, 443881, Note_on_c, 0, 48, 48
2, 443884, Control_c, 0, 64, 0
2, 444084, Control_c, 0, 64, 127
2, 444085, Note_on_c, 0, 64, 48
2, 444308, Note_on_c, 0, 68, 48
2, 444355, Note_off_c, 0, 64, 52
2, 444532, Note_on_c, 0, 69, 54
2, 444532, Note_on_c, 0, 60, 47
2, 444576, Note_off_c, 0, 68, 52
2, 444772, Note_on_c, 0, 72, 60
2, 444824, Note_off_c, 0, 69, 53
2, 444992, Note_on_c, 0, 69, 48
2, 445028, Note_off_c, 0, 72, 55
2, 445163, Note_off_c, 0, 69, 52
2, 445216, Note_off_c, 0, 60, 51
2, 445216, Note_off_c, 0, 48, 52
2, 445218, Note_on_c, 0, 67, 54
2, 445224, Note_on_c, 0, 62, 34
2, 445226, Note_on_c, 0, 59, 42
2, 445226, Note_on_c, 0, 50, 36
2, 445231, Control_c, 0, 64, 0
2, 445431, Control_c, 0, 64, 127
2, 445456, Note_on_c, 0, 71, 60
2, 445482, Note_off_c, 0, 67, 53
2, 445679, Note_on_c, 0, 67, 60
2, 445702, Note_off_c, 0, 71, 55
2, 445729, Note_off_c, 0, 50, 49
2, 445759, Note_off_c, 0, 59, 50
2, 445802, Note_off_c, 0, 62, 48
2, 445866, Note_off_c, 0, 67, 55
2, 445919, Note_on_c, 0, 66, 57
2, 445925, Note_on_c, 0, 50, 45
2, 445925, Note_on_c, 0, 57, 37
2, 445928, Control_c, 0, 64, 0
2, 446128, Control_c, 0, 64, 127
2, 446159, Note_on_c, 0, 69, 54
2, 446189, Note_off_c, 0, 66, 54
2, 446399, Note_on_c, 0, 66, 51
2, 446441, Note_off_c, 0, 69, 53
2, 446466, Note_off_c, 0, 57, 49
2, 446546, Note_off_c, 0, 50, 51
2, 446569, Note_off_c, 0, 66, 52
2, 446639, Note_on_c, 0, 67, 48
2, 446641, Note_on_c, 0, 59, 48
2, 446641, Note_on_c, 0, 43, 36
2, 446648, Control_c, 0, 64, 0
2, 446828, Control_c, 0, 64, 127
2, 446860, Note_off_c, 0, 67, 52
2, 446862, Note_off_c, 0, 43, 49
2, 446862, Note_off_c, 0, 59, 52
2, 446864, Note_on_c, 0, 50, 36
2, 447083, Note_off_c, 0, 50, 49
2, 447085, Note_on_c, 0, 62, 48
2, 447085, Note_on_c, 0, 55, 37
2, 447252, Note_off_c, 0, 62, 52
2, 447289, Note_off_c, 0, 55, 49
2, 447306, Note_on_c, 0, 62, 52
2, 447306, Note_on_c, 0, 43, 38
2, 447314, Control_c, 0, 64, 0
2, 447514, Control_c, 0, 64, 127
2, 447529, Note_off_c, 0, 43, 49
2, 447532, Note_on_c, 0, 69, 56
2, 447532, Note_on_c, 0, 50, 39
2, 447552, Note_off_c, 0, 62, 53
2, 447752, Note_off_c, 0, 50, 49
2, 447755, Note_on_c, 0, 71, 60
2, 447755, Note_on_c, 0, 55, 40
2, 447823, Note_off_c, 0, 69, 54
2, 447897, Note_off_c, 0, 71, 55
2, 447971, Control_c, 0, 64, 0
2, 447976, Note_off_c, 0, 55, 50
2, 447976, Note_on_c, 0, 72, 48
2, 447976, Note_on_c, 0, 43, 36
2, 448044, Note_off_c, 0, 72, 52
2, 448171, Control_c, 0, 64, 127
2, 448216, Note_off_c, 0, 43, 49
2, 448216, Note_on_c, 0, 50, 36
2, 448436, Note_off_c, 0, 50, 49
2, 448439, Note_on_c, 0, 74, 50
2, 448439, Note_on_c, 0, 54, 36
2, 448593, Note_off_c, 0, 74, 52
2, 448645, Note_off_c, 0, 54, 49
2, 448660, Note_on_c, 0, 74, 52
2, 448662, Note_on_c, 0, 43, 37
2, 448671, Control_c, 0, 64, 0
2, 448871, Control_c, 0, 64, 127
2, 448883, Note_off_c, 0, 43, 49
2, 448885, Note_on_c, 0, 81, 55
2, 448885, Note_on_c, 0, 50, 38
2, 448946, Note_off_c, 0, 74, 53
2, 449106, Note_off_c, 0, 50, 49
2, 449108, Note_on_c, 0, 83, 57
2, 449108, Note_on_c, 0, 54, 39
2, 449143, Note_off_c, 0, 81, 53
2, 449249, Note_off_c, 0, 83, 54
2, 449328, Control_c, 0, 64, 0
2, 449329, Note_off_c, 0, 54, 49
2, 449329, Note_on_c, 0, 84, 60
2, 449332, Note_on_c, 0, 43, 36
2, 449401, Note_off_c, 0, 84, 55
2, 449528, Control_c, 0, 64, 127
2, 449569, Note_off_c, 0, 43, 49
2, 449572, Note_on_c, 0, 50, 36
2, 449792, Note_off_c, 0, 50, 49
2, 449792, Note_on_c, 0, 62, 48
2, 449792, Note_on_c, 0, 54, 37
2, 449943, Note_off_c, 0, 62, 52
2, 449999, Note_off_c, 0, 54, 49
2, 450013, Note_on_c, 0, 62, 48
2, 450016, Note_on_c, 0, 43, 38
2, 450021, Control_c, 0, 64, 0
2, 450221, Control_c, 0, 64, 127
2, 450239, Note_off_c, 0, 43, 49
2, 450239, Note_on_c, 0, 74, 54
2, 450241, Note_on_c, 0, 50, 39
2, 450270, Note_off_c, 0, 62, 52
2, 450460, Note_off_c, 0, 50, 49
2, 450462, Note_on_c, 0, 72, 60
2, 450462, Note_on_c, 0, 54, 40
2, 450514, Note_off_c, 0, 74, 53
2, 450630, Note_off_c, 0, 72, 55
2, 450681, Control_c, 0, 64, 0
2, 450683, Note_off_c, 0, 54, 50
2, 450683, Note_on_c, 0, 71, 48
2, 450685, Note_on_c, 0, 43, 36
2, 450783, Note_off_c, 0, 71, 52
2, 450881, Control_c, 0, 64, 127
2, 450923, Note_off_c, 0, 43, 49
2, 450925, Note_on_c, 0, 50, 36
2, 451146, Note_off_c, 0, 50, 49
2, 451146, Note_on_c, 0, 74, 64
2, 451148, Note_on_c, 0, 55, 36
2, 451297, Note_off_c, 0, 74, 56
2, 451352, Note_off_c, 0, 55, 49
2, 451369, Note_on_c, 0, 74, 68
2, 451369, Note_on_c, 0, 43, 37
2, 451378, Control_c, 0, 64, 0
2, 451578, Control_c, 0, 64, 127
2, 451592, Note_off_c, 0, 43, 49
2, 451592, Note_on_c, 0, 86, 72
2, 451595, Note_on_c, 0, 50, 38
2, 451625, Note_off_c, 0, 74, 57
2, 451816, Note_off_c, 0, 50, 49
2, 451816, Note_on_c, 0, 84, 66
2, 451816, Note_on_c, 0, 55, 39
2, 451868, Note_off_c, 0, 86, 58
2, 451960, Note_off_c, 0, 84, 56
2, 452036, Note_off_c, 0, 55, 49
2, 452036, Note_on_c, 0, 83, 60
2, 452039, Note_on_c, 0, 43, 36
2, 452048, Control_c, 0, 64, 0
2, 452108, Note_off_c, 0, 83, 55
2, 452248, Control_c, 0, 64, 127
2, 452276, Note_off_c, 0, 43, 49
2, 452279, Note_on_c, 0, 50, 36
2, 452500, Note_off_c, 0, 50, 49
2, 452500, Note_on_c, 0, 62, 39
2, 452502, Note_on_c, 0, 55, 37
2, 452646, Note_off_c, 0, 62, 49
2, 452706, Note_off_c, 0, 55, 49
2, 452723, Note_on_c, 0, 62, 42
2, 452723, Note_on_c, 0, 43, 38
2, 452728, Control_c, 0, 64, 0
2, 452928, Control_c, 0, 64, 127
2, 452946, Note_off_c, 0, 43, 49
2, 452946, Note_on_c, 0, 69, 45
2, 452948, Note_on_c, 0, 50, 39
2, 453008, Note_off_c, 0, 62, 50
2, 453169, Note_off_c, 0, 50, 49
2, 453169, Note_on_c, 0, 71, 48
2, 453172, Note_on_c, 0, 55, 40
2, 453231, Note_off_c, 0, 69, 51
2, 453319, Note_off_c, 0, 71, 52
2, 453388, Control_c, 0, 64, 0
2, 453390, Note_off_c, 0, 55, 50
2, 453392, Note_on_c, 0, 72, 36
2, 453392, Note_on_c, 0, 43, 36
2, 453477, Note_off_c, 0, 72, 49
2, 453588, Control_c, 0, 64, 127
2, 453632, Note_off_c, 0, 43, 49
2, 453632, Note_on_c, 0, 50, 36
2, 453853, Note_off_c, 0, 50, 49
2, 453853, Note_on_c, 0, 74, 52
2, 453856, Note_on_c, 0, 54, 36
2, 454030, Note_off_c, 0, 74, 53
2, 454060, Note_off_c, 0, 54, 49
2, 454076, Note_on_c, 0, 74, 56
2, 454076, Note_on_c, 0, 43, 37
2, 454084, Control_c, 0, 64, 0
2, 454284, Control_c, 0, 64, 127
2, 454300, Note_off_c, 0, 43, 49
2, 454300, Note_on_c, 0, 81, 60
2, 454302, Note_on_c, 0, 50, 38
2, 454369, Note_off_c, 0, 74, 54
2, 454523, Note_off_c, 0, 50, 49
2, 454523, Note_on_c, 0, 83, 60
2, 454525, Note_on_c, 0, 54, 39
2, 454556, Note_off_c, 0, 81, 55
2, 454693, Note_off_c, 0, 83, 55
2, 454758, Control_c, 0, 64, 0
2, 454763, Note_off_c, 0, 54, 49
2, 454763, Note_on_c, 0, 84, 48
2, 454763, Note_on_c, 0, 43, 36
2, 454854, Note_off_c, 0, 84, 52
2, 454958, Control_c, 0, 64, 127
2, 454986, Note_off_c, 0, 43, 49
2, 454986, Note_on_c, 0, 50, 36
2, 455213, Note_on_c, 0, 62, 64
2, 455224, Note_off_c, 0, 50, 49
2, 455226, Note_on_c, 0, 54, 37
2, 455313, Note_off_c, 0, 62, 56
2, 455413, Note_off_c, 0, 54, 49
2, 455434, Note_on_c, 0, 62, 68
2, 455449, Note_on_c, 0, 43, 38
2, 455458, Control_c, 0, 64, 0
2, 455658, Control_c, 0, 64, 127
2, 455659, Note_on_c, 0, 74, 72
2, 455670, Note_off_c, 0, 43, 49
2, 455672, Note_on_c, 0, 50, 39
2, 455739, Note_off_c, 0, 62, 57
2, 455883, Note_on_c, 0, 72, 66
2, 455893, Note_off_c, 0, 50, 49
2, 455896, Note_on_c, 0, 54, 40
2, 455956, Note_off_c, 0, 74, 58
2, 456051, Note_off_c, 0, 72, 56
2, 456103, Note_on_c, 0, 71, 60
2, 456104, Control_c, 0, 64, 0
2, 456116, Note_off_c, 0, 54, 50
2, 456116, Note_on_c, 0, 43, 36
2, 456166, Note_off_c, 0, 71, 55
2, 456304, Control_c, 0, 64, 127
2, 456340, Note_off_c, 0, 43, 49
2, 456340, Note_on_c, 0, 50, 36
2, 456580, Note_off_c, 0, 50, 49
2, 456580, Note_on_c, 0, 55, 36
2, 456800, Note_off_c, 0, 55, 49
2, 456803, Note_on_c, 0, 74, 48
2, 456803, Note_on_c, 0, 43, 37
2, 456808, Control_c, 0, 64, 0
2, 457008, Control_c, 0, 64, 127
2, 457026, Note_off_c, 0, 43, 49
2, 457026, Note_on_c, 0, 86, 72
2, 457026, Note_on_c, 0, 50, 38
2, 457077, Note_off_c, 0, 74, 52
2, 457247, Note_off_c, 0, 50, 49
2, 457249, Note_on_c, 0, 84, 42
2, 457249, Note_on_c, 0, 55, 39
2, 457299, Note_off_c, 0, 86, 58
2, 457417, Note_off_c, 0, 84, 50
2, 457470, Note_off_c, 0, 55, 49
2, 457470, Note_on_c, 0, 83, 36
2, 457472, Note_on_c, 0, 43, 36
2, 457474, Control_c, 0, 64, 0
2, 457551, Note_off_c, 0, 83, 49
2, 457674, Control_c, 0, 64, 127
2, 457710, Note_off_c, 0, 43, 49
2, 457712, Note_on_c, 0, 50, 36
2, 457933, Note_off_c, 0, 50, 49
2, 457933, Note_on_c, 0, 55, 37
2, 458154, Note_off_c, 0, 55, 49
2, 458156, Note_on_c, 0, 62, 39
2, 458156, Note_on_c, 0, 43, 38
2, 458164, Control_c, 0, 64, 0
2, 458364, Control_c, 0, 64, 127
2, 458380, Note_off_c, 0, 43, 49
2, 458380, Note_on_c, 0, 74, 42
2, 458382, Note_on_c, 0, 50, 39
2, 458453, Note_off_c, 0, 62, 49
2, 458603, Note_off_c, 0, 50, 49
2, 458603, Note_on_c, 0, 72, 45
2, 458603, Note_on_c, 0, 55, 40
2, 458681, Note_off_c, 0, 74, 50
2, 458773, Note_off_c, 0, 72, 51
2, 458821, Control_c, 0, 64, 0
2, 458824, Note_off_c, 0, 55, 50
2, 458824, Note_on_c, 0, 71, 48
2, 458826, Note_on_c, 0, 43, 36
2, 458897, Note_off_c, 0, 71, 52
2, 459021, Control_c, 0, 64, 127
2, 459064, Note_off_c, 0, 43, 49
2, 459066, Note_on_c, 0, 50, 36
2, 459287, Note_off_c, 0, 50, 49
2, 459287, Note_on_c, 0, 55, 36
2, 459527, Note_off_c, 0, 55, 49
2, 459527, Note_on_c, 0, 74, 51
2, 459529, Note_on_c, 0, 43, 37
2, 459538, Control_c, 0, 64, 0
2, 459738, Control_c, 0, 64, 127
2, 459750, Note_off_c, 0, 43, 49
2, 459750, Note_on_c, 0, 86, 78
2, 459752, Note_on_c, 0, 50, 38
2, 459827, Note_off_c, 0, 74, 52
2, 459973, Note_off_c, 0, 50, 49
2, 459973, Note_on_c, 0, 84, 57
2, 459976, Note_on_c, 0, 55, 39
2, 460008, Note_off_c, 0, 86, 59
2, 460144, Note_off_c, 0, 84, 54
2, 460194, Note_off_c, 0, 55, 49
2, 460196, Note_on_c, 0, 83, 60
2, 460196, Note_on_c, 0, 43, 39
2, 460198, Control_c, 0, 64, 0
2, 460398, Control_c, 0, 64, 127
2, 460434, Note_off_c, 0, 43, 49
2, 460436, Note_on_c, 0, 50, 46
2, 460657, Note_off_c, 0, 83, 55
2, 460657, Note_off_c, 0, 50, 51
2, 460660, Note_on_c, 0, 55, 53
2, 460880, Note_off_c, 0, 55, 53
2, 460880, Note_on_c, 0, 83, 84
2, 460882, Note_on_c, 0, 71, 78
2, 460885, Note_on_c, 0, 79, 64
2, 460885, Note_on_c, 0, 43, 50
2, 460889, Note_on_c, 0, 74, 72
2, 460898, Control_c, 0, 64, 0
2, 461098, Control_c, 0, 64, 127
2, 461104, Note_off_c, 0, 43, 52
2, 461104, Note_on_c, 0, 50, 60
2, 461219, Note_off_c, 0, 79, 56
2, 461240, Note_off_c, 0, 74, 58
2, 461270, Note_off_c, 0, 71, 59
2, 461327, Note_off_c, 0, 83, 61
2, 461329, Note_off_c, 0, 50, 55
2, 461332, Note_on_c, 0, 55, 72
2, 461531, Note_off_c, 0, 55, 58
2, 461753, Note_on_c, 0, 79, 90
2, 461756, Note_on_c, 0, 43, 75
2, 461760, Note_on_c, 0, 67, 80
2, 461762, Note_on_c, 0, 74, 70
2, 461763, Note_on_c, 0, 71, 78
2, 461798, Control_c, 0, 64, 0
2, 461998, Control_c, 0, 64, 127
2, 462077, Note_off_c, 0, 74, 57
2, 462078, Note_off_c, 0, 71, 59
2, 462109, Note_off_c, 0, 67, 60
2, 462180, Note_off_c, 0, 79, 62
2, 462185, Note_off_c, 0, 43, 59
2, 462894, Control_c, 0, 64, 0
2, 462894, End_track
3, 0, Start_track
3, 0, Title_t, "Op. 49, No. 1"
3, 0, Channel_prefix, 1
3, 0, End_track
4, 0, Start_track
4, 0, Title_t, "Sequence by Richard Carlson"
4, 0, Channel_prefix, 2
4, 0, End_track
5, 0, Start_track
5, 0, Title_t, "http://geocities.com/lionheart2251"
5, 0, Channel_prefix, 3
5, 0, End_track
6, 0, Start_track
6, 0, Title_t, "lionheart2251@yahoo.com"
6, 0, Channel_prefix, 4
6, 0, End_track
7, 0, Start_track
7, 0, Title_t, "Copyright  2001"
7, 0, Channel_prefix, 5
7, 0, End_track
0, 0, End_of_file
