0, 0, Header, 1, 4, 192
1, 0, Start_track
1, 0, Title_t, "--------"
1, 0, Text_t, "SONATINA - Opus 49 no.2\012"
1, 0, Text_t, "by L.Van Beethoven\012"
1, 0, Text_t, "Performance by E.W.Cox.III - 1-4-92\012"
1, 0, Time_signature, 4, 2, 24, 8
1, 0, Key_signature, 0, "major"
1, 0, Tempo, 638298
1, 0, End_track
2, 0, Start_track
2, 0, Title_t, "Piano     "
2, 0, Program_c, 0, 0
2, 0, Control_c, 0, 7, 100
2, 0, Note_on_c, 0, 67, 94
2, 1, Note_on_c, 0, 62, 94
2, 1, Note_on_c, 0, 59, 98
2, 1, Note_on_c, 0, 55, 82
2, 1, Note_on_c, 0, 43, 82
2, 89, Control_c, 0, 64, 127
2, 107, Note_on_c, 0, 59, 0
2, 109, Note_on_c, 0, 62, 0
2, 115, Note_on_c, 0, 67, 0
2, 146, Note_on_c, 0, 43, 0
2, 148, Note_on_c, 0, 55, 0
2, 188, Control_c, 0, 64, 0
2, 189, Note_on_c, 0, 62, 75
2, 216, Note_on_c, 0, 67, 67
2, 221, Note_on_c, 0, 62, 0
2, 245, Note_on_c, 0, 71, 70
2, 253, Note_on_c, 0, 67, 0
2, 277, Note_on_c, 0, 74, 72
2, 278, Note_on_c, 0, 71, 0
2, 307, Note_on_c, 0, 74, 0
2, 308, Note_on_c, 0, 72, 64
2, 347, Note_on_c, 0, 69, 72
2, 352, Note_on_c, 0, 72, 0
2, 382, Note_on_c, 0, 67, 79
2, 385, Note_on_c, 0, 69, 0
2, 394, Control_c, 0, 64, 127
2, 430, Control_c, 0, 64, 0
2, 436, Note_on_c, 0, 67, 0
2, 478, Note_on_c, 0, 67, 88
2, 479, Note_on_c, 0, 59, 67
2, 570, Note_on_c, 0, 59, 0
2, 573, Note_on_c, 0, 66, 80
2, 574, Note_on_c, 0, 57, 67
2, 578, Note_on_c, 0, 67, 0
2, 668, Note_on_c, 0, 66, 0
2, 669, Note_on_c, 0, 57, 0
2, 670, Note_on_c, 0, 55, 64
2, 670, Note_on_c, 0, 67, 75
2, 765, Note_on_c, 0, 55, 0
2, 766, Note_on_c, 0, 69, 82
2, 766, Note_on_c, 0, 54, 60
2, 772, Note_on_c, 0, 67, 0
2, 859, Note_on_c, 0, 50, 82
2, 863, Note_on_c, 0, 54, 0
2, 870, Note_on_c, 0, 69, 0
2, 909, Note_on_c, 0, 69, 70
2, 955, Note_on_c, 0, 71, 88
2, 956, Note_on_c, 0, 55, 75
2, 958, Note_on_c, 0, 50, 0
2, 964, Note_on_c, 0, 69, 0
2, 1049, Note_on_c, 0, 53, 75
2, 1055, Note_on_c, 0, 55, 0
2, 1057, Note_on_c, 0, 71, 0
2, 1094, Note_on_c, 0, 71, 79
2, 1143, Note_on_c, 0, 71, 0
2, 1143, Note_on_c, 0, 53, 0
2, 1146, Note_on_c, 0, 52, 75
2, 1146, Note_on_c, 0, 74, 85
2, 1238, Note_on_c, 0, 74, 0
2, 1238, Note_on_c, 0, 52, 0
2, 1238, Note_on_c, 0, 72, 72
2, 1238, Note_on_c, 0, 54, 71
2, 1256, Note_on_c, 0, 74, 64
2, 1257, Note_on_c, 0, 72, 0
2, 1272, Note_on_c, 0, 72, 61
2, 1275, Note_on_c, 0, 74, 0
2, 1288, Note_on_c, 0, 74, 64
2, 1290, Note_on_c, 0, 72, 0
2, 1303, Note_on_c, 0, 72, 36
2, 1308, Note_on_c, 0, 74, 0
2, 1313, Note_on_c, 0, 71, 49
2, 1318, Note_on_c, 0, 72, 0
2, 1328, Note_on_c, 0, 71, 0
2, 1328, Note_on_c, 0, 72, 82
2, 1341, Note_on_c, 0, 72, 0
2, 1341, Note_on_c, 0, 71, 88
2, 1345, Note_on_c, 0, 55, 64
2, 1349, Note_on_c, 0, 54, 0
2, 1373, Note_on_c, 0, 55, 0
2, 1389, Note_on_c, 0, 55, 70
2, 1413, Note_on_c, 0, 55, 0
2, 1437, Note_on_c, 0, 59, 79
2, 1479, Note_on_c, 0, 59, 0
2, 1480, Note_on_c, 0, 71, 0
2, 1481, Note_on_c, 0, 62, 79
2, 1528, Note_on_c, 0, 62, 0
2, 1532, Note_on_c, 0, 79, 94
2, 1533, Note_on_c, 0, 55, 82
2, 1533, Note_on_c, 0, 74, 88
2, 1533, Note_on_c, 0, 71, 94
2, 1533, Note_on_c, 0, 67, 85
2, 1548, Control_c, 0, 64, 127
2, 1593, Note_on_c, 0, 74, 0
2, 1594, Note_on_c, 0, 71, 0
2, 1599, Note_on_c, 0, 79, 0
2, 1613, Note_on_c, 0, 55, 0
2, 1620, Note_on_c, 0, 67, 0
2, 1703, Control_c, 0, 64, 0
2, 1720, Note_on_c, 0, 79, 1
2, 1725, Note_on_c, 0, 74, 70
2, 1730, Note_on_c, 0, 79, 0
2, 1756, Note_on_c, 0, 79, 72
2, 1762, Note_on_c, 0, 74, 0
2, 1784, Note_on_c, 0, 83, 79
2, 1785, Note_on_c, 0, 79, 0
2, 1814, Note_on_c, 0, 83, 0
2, 1816, Note_on_c, 0, 86, 72
2, 1847, Note_on_c, 0, 84, 72
2, 1852, Note_on_c, 0, 86, 0
2, 1881, Note_on_c, 0, 81, 61
2, 1887, Note_on_c, 0, 84, 0
2, 1915, Note_on_c, 0, 79, 79
2, 1919, Note_on_c, 0, 81, 0
2, 1936, Control_c, 0, 64, 127
2, 1965, Control_c, 0, 64, 0
2, 1985, Note_on_c, 0, 79, 0
2, 2018, Note_on_c, 0, 79, 79
2, 2021, Note_on_c, 0, 71, 56
2, 2066, Note_on_c, 0, 74, 52
2, 2071, Note_on_c, 0, 71, 0
2, 2112, Note_on_c, 0, 69, 40
2, 2113, Note_on_c, 0, 78, 71
2, 2118, Note_on_c, 0, 74, 0
2, 2119, Note_on_c, 0, 79, 0
2, 2157, Note_on_c, 0, 74, 29
2, 2159, Note_on_c, 0, 69, 0
2, 2203, Note_on_c, 0, 78, 0
2, 2206, Note_on_c, 0, 79, 59
2, 2207, Note_on_c, 0, 67, 61
2, 2215, Note_on_c, 0, 74, 0
2, 2249, Note_on_c, 0, 67, 0
2, 2251, Note_on_c, 0, 74, 64
2, 2299, Note_on_c, 0, 79, 0
2, 2302, Note_on_c, 0, 81, 82
2, 2304, Note_on_c, 0, 66, 60
2, 2307, Note_on_c, 0, 74, 0
2, 2343, Note_on_c, 0, 66, 0
2, 2349, Note_on_c, 0, 74, 49
2, 2395, Note_on_c, 0, 62, 70
2, 2396, Note_on_c, 0, 74, 0
2, 2409, Note_on_c, 0, 81, 0
2, 2441, Note_on_c, 0, 74, 56
2, 2442, Note_on_c, 0, 62, 0
2, 2443, Note_on_c, 0, 81, 72
2, 2489, Note_on_c, 0, 83, 85
2, 2491, Note_on_c, 0, 67, 67
2, 2494, Note_on_c, 0, 74, 0
2, 2501, Note_on_c, 0, 81, 0
2, 2536, Note_on_c, 0, 74, 70
2, 2546, Note_on_c, 0, 67, 0
2, 2585, Note_on_c, 0, 65, 67
2, 2592, Note_on_c, 0, 74, 0
2, 2597, Note_on_c, 0, 83, 0
2, 2630, Note_on_c, 0, 83, 85
2, 2630, Note_on_c, 0, 74, 59
2, 2631, Note_on_c, 0, 65, 0
2, 2675, Note_on_c, 0, 83, 0
2, 2676, Note_on_c, 0, 74, 0
2, 2679, Note_on_c, 0, 64, 72
2, 2680, Note_on_c, 0, 86, 88
2, 2722, Note_on_c, 0, 67, 56
2, 2725, Note_on_c, 0, 64, 0
2, 2768, Note_on_c, 0, 86, 0
2, 2769, Note_on_c, 0, 67, 0
2, 2771, Note_on_c, 0, 66, 64
2, 2771, Note_on_c, 0, 84, 70
2, 2783, Note_on_c, 0, 86, 56
2, 2784, Note_on_c, 0, 84, 0
2, 2798, Note_on_c, 0, 84, 59
2, 2801, Note_on_c, 0, 86, 0
2, 2813, Note_on_c, 0, 84, 0
2, 2813, Note_on_c, 0, 86, 67
2, 2814, Note_on_c, 0, 69, 47
2, 2820, Note_on_c, 0, 66, 0
2, 2827, Note_on_c, 0, 84, 61
2, 2833, Note_on_c, 0, 86, 0
2, 2841, Note_on_c, 0, 83, 67
2, 2842, Note_on_c, 0, 84, 0
2, 2854, Note_on_c, 0, 84, 82
2, 2855, Note_on_c, 0, 83, 0
2, 2865, Note_on_c, 0, 83, 85
2, 2866, Note_on_c, 0, 84, 0
2, 2866, Note_on_c, 0, 67, 70
2, 2871, Note_on_c, 0, 69, 0
2, 2906, Note_on_c, 0, 84, 79
2, 2912, Note_on_c, 0, 83, 0
2, 2953, Note_on_c, 0, 84, 0
2, 2955, Note_on_c, 0, 67, 0
2, 2956, Note_on_c, 0, 85, 60
2, 3007, Note_on_c, 0, 85, 0
2, 3007, Note_on_c, 0, 86, 61
2, 3059, Note_on_c, 0, 87, 85
2, 3066, Note_on_c, 0, 86, 0
2, 3111, Note_on_c, 0, 87, 0
2, 3114, Note_on_c, 0, 88, 82
2, 3117, Note_on_c, 0, 87, 7
2, 3121, Note_on_c, 0, 87, 0
2, 3137, Note_on_c, 0, 88, 0
2, 3164, Note_on_c, 0, 64, 75
2, 3164, Note_on_c, 0, 69, 75
2, 3164, Note_on_c, 0, 60, 72
2, 3209, Note_on_c, 0, 69, 0
2, 3213, Note_on_c, 0, 60, 0
2, 3215, Note_on_c, 0, 64, 0
2, 3219, Note_on_c, 0, 88, 85
2, 3264, Note_on_c, 0, 86, 75
2, 3273, Note_on_c, 0, 88, 0
2, 3308, Note_on_c, 0, 86, 0
2, 3311, Note_on_c, 0, 84, 70
2, 3360, Note_on_c, 0, 84, 0
2, 3363, Note_on_c, 0, 83, 70
2, 3402, Note_on_c, 0, 83, 0
2, 3406, Note_on_c, 0, 81, 54
2, 3452, Note_on_c, 0, 85, 71
2, 3466, Note_on_c, 0, 81, 0
2, 3503, Note_on_c, 0, 86, 72
2, 3511, Note_on_c, 0, 85, 0
2, 3521, Note_on_c, 0, 86, 0
2, 3550, Note_on_c, 0, 67, 59
2, 3550, Note_on_c, 0, 59, 59
2, 3550, Note_on_c, 0, 62, 64
2, 3583, Note_on_c, 0, 67, 0
2, 3591, Note_on_c, 0, 62, 0
2, 3594, Note_on_c, 0, 59, 0
2, 3599, Note_on_c, 0, 86, 75
2, 3640, Note_on_c, 0, 86, 0
2, 3648, Note_on_c, 0, 84, 75
2, 3685, Note_on_c, 0, 84, 0
2, 3691, Note_on_c, 0, 83, 70
2, 3743, Note_on_c, 0, 81, 79
2, 3749, Note_on_c, 0, 83, 0
2, 3785, Note_on_c, 0, 81, 0
2, 3785, Note_on_c, 0, 79, 70
2, 3831, Note_on_c, 0, 79, 0
2, 3834, Note_on_c, 0, 78, 68
2, 3834, Note_on_c, 0, 60, 72
2, 3837, Note_on_c, 0, 79, 20
2, 3842, Note_on_c, 0, 79, 0
2, 3883, Note_on_c, 0, 76, 72
2, 3893, Note_on_c, 0, 78, 0
2, 3928, Note_on_c, 0, 74, 75
2, 3937, Note_on_c, 0, 76, 0
2, 3975, Note_on_c, 0, 74, 0
2, 3975, Note_on_c, 0, 72, 64
2, 4020, Note_on_c, 0, 72, 0
2, 4021, Note_on_c, 0, 62, 64
2, 4021, Note_on_c, 0, 71, 79
2, 4024, Note_on_c, 0, 60, 0
2, 4067, Note_on_c, 0, 69, 64
2, 4073, Note_on_c, 0, 71, 0
2, 4115, Note_on_c, 0, 69, 0
2, 4115, Note_on_c, 0, 67, 72
2, 4161, Note_on_c, 0, 67, 0
2, 4165, Note_on_c, 0, 66, 56
2, 4208, Note_on_c, 0, 62, 0
2, 4211, Note_on_c, 0, 66, 0
2, 4213, Note_on_c, 0, 67, 75
2, 4214, Note_on_c, 0, 55, 67
2, 4259, Note_on_c, 0, 67, 0
2, 4262, Note_on_c, 0, 69, 52
2, 4277, Note_on_c, 0, 67, 49
2, 4285, Note_on_c, 0, 69, 0
2, 4292, Note_on_c, 0, 66, 43
2, 4299, Note_on_c, 0, 67, 0
2, 4312, Note_on_c, 0, 66, 0
2, 4313, Note_on_c, 0, 67, 75
2, 4363, Note_on_c, 0, 69, 67
2, 4368, Note_on_c, 0, 67, 0
2, 4411, Note_on_c, 0, 71, 75
2, 4415, Note_on_c, 0, 55, 0
2, 4421, Note_on_c, 0, 69, 0
2, 4459, Note_on_c, 0, 71, 0
2, 4461, Note_on_c, 0, 72, 67
2, 4508, Note_on_c, 0, 72, 0
2, 4509, Note_on_c, 0, 73, 64
2, 4555, Note_on_c, 0, 74, 67
2, 4556, Note_on_c, 0, 73, 0
2, 4603, Note_on_c, 0, 75, 71
2, 4617, Note_on_c, 0, 74, 0
2, 4650, Note_on_c, 0, 75, 0
2, 4653, Note_on_c, 0, 76, 79
2, 4674, Note_on_c, 0, 76, 0
2, 4703, Note_on_c, 0, 48, 72
2, 4705, Note_on_c, 0, 57, 61
2, 4706, Note_on_c, 0, 52, 72
2, 4721, Note_on_c, 0, 57, 0
2, 4722, Note_on_c, 0, 48, 0
2, 4723, Note_on_c, 0, 52, 0
2, 4750, Note_on_c, 0, 76, 82
2, 4802, Note_on_c, 0, 74, 72
2, 4814, Note_on_c, 0, 76, 0
2, 4846, Note_on_c, 0, 72, 61
2, 4858, Note_on_c, 0, 74, 0
2, 4897, Note_on_c, 0, 72, 0
2, 4897, Note_on_c, 0, 71, 64
2, 4937, Note_on_c, 0, 69, 61
2, 4938, Note_on_c, 0, 71, 0
2, 4983, Note_on_c, 0, 75, 38
2, 5030, Note_on_c, 0, 75, 0
2, 5033, Note_on_c, 0, 76, 72
2, 5035, Note_on_c, 0, 69, 0
2, 5047, Note_on_c, 0, 76, 0
2, 5076, Note_on_c, 0, 49, 53
2, 5078, Note_on_c, 0, 57, 56
2, 5079, Note_on_c, 0, 52, 64
2, 5090, Note_on_c, 0, 57, 0
2, 5091, Note_on_c, 0, 49, 0
2, 5093, Note_on_c, 0, 52, 0
2, 5131, Note_on_c, 0, 76, 70
2, 5147, Note_on_c, 0, 76, 0
2, 5177, Note_on_c, 0, 76, 79
2, 5228, Note_on_c, 0, 73, 47
2, 5241, Note_on_c, 0, 76, 0
2, 5273, Note_on_c, 0, 69, 67
2, 5280, Note_on_c, 0, 73, 0
2, 5321, Note_on_c, 0, 69, 0
2, 5324, Note_on_c, 0, 67, 64
2, 5370, Note_on_c, 0, 67, 0
2, 5371, Note_on_c, 0, 50, 67
2, 5372, Note_on_c, 0, 66, 64
2, 5376, Note_on_c, 0, 67, 6
2, 5378, Control_c, 0, 64, 127
2, 5381, Note_on_c, 0, 67, 0
2, 5389, Note_on_c, 0, 66, 0
2, 5400, Note_on_c, 0, 54, 35
2, 5418, Note_on_c, 0, 50, 0
2, 5432, Note_on_c, 0, 57, 44
2, 5435, Note_on_c, 0, 54, 0
2, 5461, Note_on_c, 0, 57, 0
2, 5461, Control_c, 0, 64, 0
2, 5465, Note_on_c, 0, 50, 64
2, 5466, Note_on_c, 0, 81, 85
2, 5493, Note_on_c, 0, 81, 0
2, 5498, Note_on_c, 0, 78, 68
2, 5498, Note_on_c, 0, 54, 43
2, 5511, Note_on_c, 0, 50, 0
2, 5526, Note_on_c, 0, 78, 0
2, 5529, Note_on_c, 0, 57, 49
2, 5531, Note_on_c, 0, 74, 72
2, 5533, Note_on_c, 0, 54, 0
2, 5559, Note_on_c, 0, 74, 0
2, 5562, Note_on_c, 0, 57, 0
2, 5564, Note_on_c, 0, 50, 67
2, 5564, Note_on_c, 0, 72, 94
2, 5566, Note_on_c, 0, 74, 70
2, 5570, Note_on_c, 0, 74, 0
2, 5574, Control_c, 0, 64, 127
2, 5593, Note_on_c, 0, 54, 40
2, 5602, Note_on_c, 0, 50, 0
2, 5604, Note_on_c, 0, 72, 0
2, 5632, Note_on_c, 0, 54, 0
2, 5633, Note_on_c, 0, 57, 22
2, 5663, Note_on_c, 0, 50, 47
2, 5668, Control_c, 0, 64, 0
2, 5668, Note_on_c, 0, 81, 67
2, 5681, Note_on_c, 0, 57, 0
2, 5694, Note_on_c, 0, 54, 38
2, 5695, Note_on_c, 0, 78, 50
2, 5696, Control_c, 0, 64, 127
2, 5698, Note_on_c, 0, 81, 0
2, 5707, Note_on_c, 0, 50, 0
2, 5720, Note_on_c, 0, 78, 0
2, 5725, Note_on_c, 0, 72, 52
2, 5726, Note_on_c, 0, 57, 38
2, 5736, Note_on_c, 0, 54, 0
2, 5754, Note_on_c, 0, 57, 0
2, 5754, Note_on_c, 0, 72, 0
2, 5759, Note_on_c, 0, 50, 75
2, 5760, Control_c, 0, 64, 0
2, 5760, Note_on_c, 0, 71, 98
2, 5763, Note_on_c, 0, 72, 67
2, 5768, Note_on_c, 0, 72, 0
2, 5790, Note_on_c, 0, 55, 32
2, 5794, Control_c, 0, 64, 127
2, 5805, Note_on_c, 0, 50, 0
2, 5819, Note_on_c, 0, 71, 0
2, 5822, Note_on_c, 0, 55, 0
2, 5823, Note_on_c, 0, 59, 15
2, 5850, Note_on_c, 0, 59, 0
2, 5858, Note_on_c, 0, 50, 35
2, 5863, Note_on_c, 0, 79, 36
2, 5868, Control_c, 0, 64, 0
2, 5885, Note_on_c, 0, 79, 0
2, 5892, Note_on_c, 0, 74, 44
2, 5892, Note_on_c, 0, 55, 32
2, 5896, Control_c, 0, 64, 127
2, 5905, Note_on_c, 0, 50, 0
2, 5915, Note_on_c, 0, 74, 0
2, 5921, Note_on_c, 0, 71, 54
2, 5925, Note_on_c, 0, 55, 0
2, 5925, Note_on_c, 0, 59, 10
2, 5949, Note_on_c, 0, 59, 0
2, 5954, Note_on_c, 0, 71, 0
2, 5955, Control_c, 0, 64, 0
2, 5956, Note_on_c, 0, 67, 94
2, 5957, Note_on_c, 0, 50, 72
2, 5981, Control_c, 0, 64, 127
2, 5989, Note_on_c, 0, 55, 25
2, 5997, Note_on_c, 0, 50, 0
2, 6011, Note_on_c, 0, 67, 0
2, 6021, Note_on_c, 0, 55, 0
2, 6021, Note_on_c, 0, 59, 7
2, 6047, Note_on_c, 0, 50, 47
2, 6048, Note_on_c, 0, 59, 0
2, 6050, Note_on_c, 0, 74, 42
2, 6069, Note_on_c, 0, 74, 0
2, 6078, Note_on_c, 0, 71, 42
2, 6079, Note_on_c, 0, 55, 19
2, 6087, Note_on_c, 0, 50, 0
2, 6099, Note_on_c, 0, 71, 0
2, 6107, Note_on_c, 0, 55, 0
2, 6108, Note_on_c, 0, 67, 49
2, 6110, Note_on_c, 0, 59, 12
2, 6127, Control_c, 0, 64, 0
2, 6131, Note_on_c, 0, 67, 0
2, 6133, Note_on_c, 0, 59, 0
2, 6139, Note_on_c, 0, 66, 96
2, 6140, Note_on_c, 0, 50, 70
2, 6151, Control_c, 0, 64, 127
2, 6159, Note_on_c, 0, 66, 0
2, 6170, Note_on_c, 0, 54, 13
2, 6183, Note_on_c, 0, 50, 0
2, 6204, Note_on_c, 0, 57, 23
2, 6208, Note_on_c, 0, 54, 0
2, 6233, Note_on_c, 0, 57, 0
2, 6234, Note_on_c, 0, 50, 52
2, 6236, Note_on_c, 0, 81, 64
2, 6260, Note_on_c, 0, 81, 0
2, 6264, Note_on_c, 0, 54, 13
2, 6266, Note_on_c, 0, 78, 38
2, 6267, Note_on_c, 0, 50, 0
2, 6292, Note_on_c, 0, 78, 0
2, 6298, Note_on_c, 0, 54, 0
2, 6299, Note_on_c, 0, 74, 56
2, 6300, Note_on_c, 0, 57, 25
2, 6322, Note_on_c, 0, 74, 0
2, 6325, Note_on_c, 0, 57, 0
2, 6329, Control_c, 0, 64, 0
2, 6332, Note_on_c, 0, 50, 54
2, 6332, Note_on_c, 0, 72, 88
2, 6350, Control_c, 0, 64, 127
2, 6361, Note_on_c, 0, 54, 27
2, 6364, Note_on_c, 0, 72, 0
2, 6371, Note_on_c, 0, 72, 17
2, 6379, Note_on_c, 0, 50, 0
2, 6393, Note_on_c, 0, 72, 0
2, 6398, Note_on_c, 0, 57, 19
2, 6405, Note_on_c, 0, 54, 0
2, 6430, Note_on_c, 0, 57, 0
2, 6431, Note_on_c, 0, 50, 47
2, 6434, Note_on_c, 0, 81, 61
2, 6457, Note_on_c, 0, 81, 0
2, 6460, Note_on_c, 0, 78, 38
2, 6461, Note_on_c, 0, 54, 33
2, 6475, Note_on_c, 0, 50, 0
2, 6485, Note_on_c, 0, 78, 0
2, 6493, Note_on_c, 0, 72, 47
2, 6493, Note_on_c, 0, 57, 32
2, 6504, Note_on_c, 0, 54, 0
2, 6518, Note_on_c, 0, 72, 0
2, 6524, Note_on_c, 0, 57, 0
2, 6525, Control_c, 0, 64, 0
2, 6528, Note_on_c, 0, 71, 98
2, 6528, Note_on_c, 0, 50, 79
2, 6531, Note_on_c, 0, 72, 59
2, 6536, Note_on_c, 0, 72, 0
2, 6551, Control_c, 0, 64, 127
2, 6559, Note_on_c, 0, 55, 27
2, 6572, Note_on_c, 0, 50, 0
2, 6585, Note_on_c, 0, 71, 0
2, 6591, Note_on_c, 0, 55, 0
2, 6593, Note_on_c, 0, 59, 30
2, 6624, Note_on_c, 0, 50, 54
2, 6626, Note_on_c, 0, 59, 0
2, 6629, Note_on_c, 0, 79, 70
2, 6656, Note_on_c, 0, 55, 25
2, 6659, Note_on_c, 0, 79, 0
2, 6659, Note_on_c, 0, 74, 56
2, 6670, Note_on_c, 0, 50, 0
2, 6681, Note_on_c, 0, 74, 0
2, 6686, Note_on_c, 0, 55, 0
2, 6687, Note_on_c, 0, 71, 52
2, 6690, Note_on_c, 0, 59, 12
2, 6718, Note_on_c, 0, 59, 0
2, 6718, Note_on_c, 0, 71, 0
2, 6719, Note_on_c, 0, 67, 88
2, 6720, Control_c, 0, 64, 0
2, 6720, Note_on_c, 0, 50, 70
2, 6746, Control_c, 0, 64, 127
2, 6754, Note_on_c, 0, 55, 23
2, 6764, Note_on_c, 0, 50, 0
2, 6780, Note_on_c, 0, 55, 0
2, 6785, Note_on_c, 0, 67, 0
2, 6800, Note_on_c, 0, 59, 1
2, 6810, Note_on_c, 0, 59, 0
2, 6810, Note_on_c, 0, 50, 61
2, 6812, Note_on_c, 0, 74, 54
2, 6835, Note_on_c, 0, 74, 0
2, 6842, Note_on_c, 0, 71, 49
2, 6843, Note_on_c, 0, 55, 15
2, 6853, Note_on_c, 0, 50, 0
2, 6868, Note_on_c, 0, 71, 0
2, 6875, Note_on_c, 0, 55, 0
2, 6876, Note_on_c, 0, 59, 29
2, 6878, Note_on_c, 0, 67, 49
2, 6898, Note_on_c, 0, 67, 0
2, 6903, Note_on_c, 0, 59, 0
2, 6905, Control_c, 0, 64, 0
2, 6906, Note_on_c, 0, 50, 70
2, 6908, Note_on_c, 0, 62, 85
2, 6928, Note_on_c, 0, 62, 0
2, 6928, Control_c, 0, 64, 127
2, 6935, Note_on_c, 0, 54, 19
2, 6951, Note_on_c, 0, 50, 0
2, 6972, Note_on_c, 0, 57, 25
2, 6984, Note_on_c, 0, 54, 0
2, 7006, Note_on_c, 0, 50, 54
2, 7007, Note_on_c, 0, 57, 0
2, 7010, Note_on_c, 0, 74, 67
2, 7011, Control_c, 0, 64, 0
2, 7034, Note_on_c, 0, 74, 0
2, 7036, Note_on_c, 0, 71, 64
2, 7037, Control_c, 0, 64, 127
2, 7037, Note_on_c, 0, 55, 30
2, 7051, Note_on_c, 0, 50, 0
2, 7062, Note_on_c, 0, 71, 0
2, 7064, Note_on_c, 0, 59, 40
2, 7069, Note_on_c, 0, 67, 52
2, 7071, Note_on_c, 0, 55, 0
2, 7082, Note_on_c, 0, 67, 0
2, 7097, Note_on_c, 0, 59, 0
2, 7099, Control_c, 0, 64, 0
2, 7100, Note_on_c, 0, 50, 70
2, 7102, Note_on_c, 0, 62, 85
2, 7123, Control_c, 0, 64, 127
2, 7130, Note_on_c, 0, 54, 43
2, 7131, Note_on_c, 0, 62, 0
2, 7148, Note_on_c, 0, 50, 0
2, 7164, Note_on_c, 0, 57, 23
2, 7173, Note_on_c, 0, 54, 0
2, 7196, Note_on_c, 0, 50, 56
2, 7197, Note_on_c, 0, 74, 64
2, 7200, Note_on_c, 0, 57, 0
2, 7200, Control_c, 0, 64, 0
2, 7224, Note_on_c, 0, 74, 0
2, 7226, Note_on_c, 0, 71, 54
2, 7227, Note_on_c, 0, 55, 26
2, 7228, Control_c, 0, 64, 127
2, 7251, Note_on_c, 0, 50, 0
2, 7252, Note_on_c, 0, 71, 0
2, 7255, Note_on_c, 0, 55, 0
2, 7258, Note_on_c, 0, 67, 56
2, 7259, Note_on_c, 0, 59, 22
2, 7285, Note_on_c, 0, 67, 0
2, 7296, Note_on_c, 0, 54, 18
2, 7297, Note_on_c, 0, 59, 0
2, 7297, Note_on_c, 0, 62, 64
2, 7297, Note_on_c, 0, 50, 75
2, 7299, Control_c, 0, 64, 0
2, 7393, Control_c, 0, 64, 127
2, 7431, Note_on_c, 0, 62, 0
2, 7432, Note_on_c, 0, 50, 0
2, 7434, Note_on_c, 0, 54, 0
2, 7481, Control_c, 0, 64, 0
2, 7533, Note_on_c, 0, 69, 30
2, 7545, Note_on_c, 0, 69, 0
2, 7577, Note_on_c, 0, 69, 38
2, 7591, Note_on_c, 0, 69, 0
2, 7625, Note_on_c, 0, 69, 54
2, 7641, Note_on_c, 0, 69, 0
2, 7673, Note_on_c, 0, 66, 38
2, 7674, Note_on_c, 0, 74, 59
2, 7726, Note_on_c, 0, 66, 0
2, 7726, Note_on_c, 0, 69, 33
2, 7769, Note_on_c, 0, 73, 53
2, 7771, Note_on_c, 0, 69, 0
2, 7771, Note_on_c, 0, 74, 0
2, 7773, Note_on_c, 0, 67, 42
2, 7821, Note_on_c, 0, 67, 0
2, 7821, Note_on_c, 0, 69, 44
2, 7868, Note_on_c, 0, 74, 67
2, 7868, Note_on_c, 0, 61, 17
2, 7869, Note_on_c, 0, 73, 0
2, 7877, Note_on_c, 0, 69, 0
2, 7905, Note_on_c, 0, 61, 0
2, 7912, Note_on_c, 0, 69, 19
2, 7959, Note_on_c, 0, 76, 70
2, 7962, Note_on_c, 0, 61, 35
2, 7964, Note_on_c, 0, 69, 0
2, 7969, Note_on_c, 0, 74, 0
2, 8008, Note_on_c, 0, 69, 44
2, 8009, Note_on_c, 0, 61, 0
2, 8033, Control_c, 0, 64, 127
2, 8047, Control_c, 0, 64, 0
2, 8050, Note_on_c, 0, 69, 0
2, 8053, Note_on_c, 0, 79, 64
2, 8055, Note_on_c, 0, 62, 49
2, 8056, Note_on_c, 0, 76, 0
2, 8100, Note_on_c, 0, 62, 0
2, 8103, Note_on_c, 0, 79, 0
2, 8103, Note_on_c, 0, 69, 38
2, 8105, Note_on_c, 0, 78, 50
2, 8151, Note_on_c, 0, 69, 0
2, 8152, Note_on_c, 0, 76, 61
2, 8153, Note_on_c, 0, 61, 33
2, 8156, Note_on_c, 0, 78, 0
2, 8198, Note_on_c, 0, 61, 0
2, 8201, Note_on_c, 0, 69, 40
2, 8205, Note_on_c, 0, 76, 0
2, 8211, Control_c, 0, 64, 127
2, 8241, Note_on_c, 0, 69, 0
2, 8250, Control_c, 0, 64, 0
2, 8250, Note_on_c, 0, 57, 52
2, 8299, Note_on_c, 0, 69, 44
2, 8301, Note_on_c, 0, 57, 0
2, 8318, Note_on_c, 0, 69, 0
2, 8347, Note_on_c, 0, 69, 56
2, 8361, Note_on_c, 0, 69, 0
2, 8397, Note_on_c, 0, 69, 52
2, 8414, Note_on_c, 0, 69, 0
2, 8449, Note_on_c, 0, 76, 70
2, 8450, Note_on_c, 0, 67, 42
2, 8495, Note_on_c, 0, 67, 0
2, 8495, Note_on_c, 0, 69, 52
2, 8542, Note_on_c, 0, 66, 50
2, 8542, Note_on_c, 0, 74, 72
2, 8546, Note_on_c, 0, 76, 0
2, 8547, Note_on_c, 0, 69, 0
2, 8586, Note_on_c, 0, 66, 0
2, 8589, Note_on_c, 0, 69, 56
2, 8628, Note_on_c, 0, 74, 0
2, 8635, Note_on_c, 0, 76, 72
2, 8637, Note_on_c, 0, 73, 53
2, 8639, Note_on_c, 0, 64, 67
2, 8645, Note_on_c, 0, 69, 0
2, 8683, Note_on_c, 0, 64, 0
2, 8684, Note_on_c, 0, 69, 52
2, 8727, Note_on_c, 0, 78, 68
2, 8727, Note_on_c, 0, 74, 67
2, 8728, Note_on_c, 0, 76, 0
2, 8730, Note_on_c, 0, 62, 64
2, 8731, Note_on_c, 0, 69, 0
2, 8732, Note_on_c, 0, 73, 0
2, 8746, Control_c, 0, 64, 127
2, 8755, Note_on_c, 0, 74, 0
2, 8764, Note_on_c, 0, 78, 0
2, 8771, Note_on_c, 0, 62, 0
2, 8774, Note_on_c, 0, 69, 47
2, 8817, Note_on_c, 0, 69, 0
2, 8824, Control_c, 0, 64, 0
2, 8825, Note_on_c, 0, 61, 56
2, 8826, Note_on_c, 0, 81, 72
2, 8828, Note_on_c, 0, 76, 59
2, 8865, Note_on_c, 0, 81, 0
2, 8866, Note_on_c, 0, 61, 0
2, 8868, Note_on_c, 0, 79, 54
2, 8869, Note_on_c, 0, 69, 47
2, 8904, Note_on_c, 0, 76, 0
2, 8911, Note_on_c, 0, 79, 0
2, 8915, Note_on_c, 0, 78, 50
2, 8916, Note_on_c, 0, 74, 56
2, 8916, Note_on_c, 0, 62, 61
2, 8917, Note_on_c, 0, 69, 0
2, 8962, Note_on_c, 0, 62, 0
2, 8965, Note_on_c, 0, 69, 25
2, 8992, Note_on_c, 0, 69, 0
2, 9015, Note_on_c, 0, 62, 64
2, 9055, Note_on_c, 0, 78, 0
2, 9057, Note_on_c, 0, 74, 0
2, 9066, Note_on_c, 0, 81, 61
2, 9070, Note_on_c, 0, 62, 0
2, 9105, Note_on_c, 0, 81, 0
2, 9111, Note_on_c, 0, 79, 61
2, 9159, Note_on_c, 0, 78, 47
2, 9166, Note_on_c, 0, 79, 0
2, 9180, Note_on_c, 0, 78, 0
2, 9210, Note_on_c, 0, 71, 47
2, 9210, Note_on_c, 0, 78, 60
2, 9211, Note_on_c, 0, 67, 54
2, 9248, Note_on_c, 0, 78, 0
2, 9259, Note_on_c, 0, 76, 59
2, 9270, Note_on_c, 0, 76, 0
2, 9280, Note_on_c, 0, 71, 0
2, 9303, Note_on_c, 0, 76, 64
2, 9313, Note_on_c, 0, 76, 0
2, 9355, Note_on_c, 0, 76, 72
2, 9366, Note_on_c, 0, 76, 0
2, 9402, Note_on_c, 0, 67, 0
2, 9404, Note_on_c, 0, 69, 47
2, 9404, Note_on_c, 0, 74, 67
2, 9404, Note_on_c, 0, 66, 47
2, 9445, Note_on_c, 0, 74, 0
2, 9453, Note_on_c, 0, 81, 67
2, 9487, Note_on_c, 0, 81, 0
2, 9499, Note_on_c, 0, 79, 61
2, 9500, Note_on_c, 0, 69, 0
2, 9502, Note_on_c, 0, 66, 0
2, 9535, Note_on_c, 0, 79, 0
2, 9548, Note_on_c, 0, 78, 56
2, 9560, Note_on_c, 0, 78, 0
2, 9597, Note_on_c, 0, 71, 56
2, 9598, Note_on_c, 0, 67, 64
2, 9599, Note_on_c, 0, 78, 56
2, 9640, Note_on_c, 0, 78, 0
2, 9646, Note_on_c, 0, 76, 61
2, 9657, Note_on_c, 0, 76, 0
2, 9680, Note_on_c, 0, 71, 0
2, 9689, Note_on_c, 0, 76, 64
2, 9702, Note_on_c, 0, 76, 0
2, 9736, Note_on_c, 0, 76, 75
2, 9751, Note_on_c, 0, 76, 0
2, 9786, Note_on_c, 0, 66, 47
2, 9787, Note_on_c, 0, 67, 0
2, 9788, Note_on_c, 0, 74, 67
2, 9788, Note_on_c, 0, 69, 35
2, 9834, Note_on_c, 0, 74, 0
2, 9838, Note_on_c, 0, 81, 59
2, 9875, Note_on_c, 0, 81, 0
2, 9884, Note_on_c, 0, 79, 59
2, 9885, Note_on_c, 0, 69, 0
2, 9899, Note_on_c, 0, 66, 0
2, 9920, Note_on_c, 0, 79, 0
2, 9930, Note_on_c, 0, 78, 43
2, 9946, Note_on_c, 0, 78, 0
2, 9979, Note_on_c, 0, 78, 60
2, 10021, Note_on_c, 0, 76, 64
2, 10023, Note_on_c, 0, 78, 0
2, 10037, Note_on_c, 0, 76, 0
2, 10068, Note_on_c, 0, 67, 64
2, 10118, Note_on_c, 0, 76, 67
2, 10131, Note_on_c, 0, 76, 0
2, 10165, Note_on_c, 0, 67, 0
2, 10165, Note_on_c, 0, 76, 82
2, 10212, Note_on_c, 0, 74, 59
2, 10214, Note_on_c, 0, 76, 0
2, 10228, Note_on_c, 0, 74, 0
2, 10255, Note_on_c, 0, 68, 33
2, 10311, Note_on_c, 0, 74, 61
2, 10318, Note_on_c, 0, 68, 0
2, 10325, Note_on_c, 0, 74, 0
2, 10359, Note_on_c, 0, 74, 61
2, 10359, Note_on_c, 0, 69, 44
2, 10408, Note_on_c, 0, 73, 38
2, 10417, Note_on_c, 0, 74, 0
2, 10446, Note_on_c, 0, 69, 0
2, 10453, Note_on_c, 0, 71, 67
2, 10453, Note_on_c, 0, 57, 61
2, 10460, Note_on_c, 0, 73, 0
2, 10503, Note_on_c, 0, 71, 0
2, 10507, Note_on_c, 0, 69, 56
2, 10548, Note_on_c, 0, 69, 0
2, 10550, Note_on_c, 0, 68, 50
2, 10597, Note_on_c, 0, 68, 0
2, 10600, Note_on_c, 0, 69, 61
2, 10608, Note_on_c, 0, 57, 0
2, 10648, Note_on_c, 0, 71, 72
2, 10656, Note_on_c, 0, 69, 0
2, 10695, Note_on_c, 0, 73, 53
2, 10697, Note_on_c, 0, 71, 0
2, 10745, Note_on_c, 0, 74, 82
2, 10746, Note_on_c, 0, 66, 50
2, 10752, Note_on_c, 0, 73, 0
2, 10793, Note_on_c, 0, 69, 59
2, 10797, Note_on_c, 0, 66, 0
2, 10841, Note_on_c, 0, 74, 0
2, 10842, Note_on_c, 0, 73, 64
2, 10844, Note_on_c, 0, 67, 59
2, 10846, Note_on_c, 0, 69, 0
2, 10887, Note_on_c, 0, 67, 0
2, 10893, Note_on_c, 0, 69, 64
2, 10938, Note_on_c, 0, 66, 85
2, 10939, Note_on_c, 0, 73, 0
2, 10941, Note_on_c, 0, 69, 0
2, 10941, Note_on_c, 0, 74, 72
2, 10983, Note_on_c, 0, 66, 0
2, 10992, Note_on_c, 0, 69, 64
2, 11035, Note_on_c, 0, 76, 72
2, 11037, Note_on_c, 0, 61, 47
2, 11041, Note_on_c, 0, 69, 0
2, 11046, Note_on_c, 0, 74, 0
2, 11084, Note_on_c, 0, 69, 42
2, 11085, Note_on_c, 0, 61, 0
2, 11126, Note_on_c, 0, 79, 64
2, 11127, Note_on_c, 0, 62, 49
2, 11127, Note_on_c, 0, 74, 52
2, 11131, Note_on_c, 0, 69, 0
2, 11131, Note_on_c, 0, 76, 0
2, 11171, Note_on_c, 0, 62, 0
2, 11175, Note_on_c, 0, 78, 56
2, 11176, Note_on_c, 0, 69, 38
2, 11180, Note_on_c, 0, 74, 0
2, 11189, Note_on_c, 0, 79, 0
2, 11221, Note_on_c, 0, 78, 0
2, 11222, Note_on_c, 0, 76, 54
2, 11222, Note_on_c, 0, 57, 61
2, 11223, Note_on_c, 0, 73, 47
2, 11224, Note_on_c, 0, 69, 0
2, 11271, Note_on_c, 0, 57, 0
2, 11271, Note_on_c, 0, 69, 49
2, 11315, Note_on_c, 0, 76, 0
2, 11319, Note_on_c, 0, 73, 0
2, 11319, Note_on_c, 0, 57, 75
2, 11323, Note_on_c, 0, 69, 0
2, 11338, Control_c, 0, 64, 127
2, 11368, Control_c, 0, 64, 0
2, 11369, Note_on_c, 0, 69, 52
2, 11381, Note_on_c, 0, 69, 0
2, 11383, Note_on_c, 0, 57, 0
2, 11417, Note_on_c, 0, 69, 54
2, 11431, Note_on_c, 0, 69, 0
2, 11464, Note_on_c, 0, 69, 61
2, 11495, Note_on_c, 0, 69, 0
2, 11515, Note_on_c, 0, 67, 52
2, 11515, Note_on_c, 0, 76, 67
2, 11562, Note_on_c, 0, 67, 0
2, 11564, Note_on_c, 0, 69, 56
2, 11579, Note_on_c, 0, 74, 4
2, 11582, Note_on_c, 0, 76, 0
2, 11587, Note_on_c, 0, 74, 0
2, 11609, Note_on_c, 0, 66, 75
2, 11612, Note_on_c, 0, 74, 75
2, 11614, Note_on_c, 0, 69, 0
2, 11655, Note_on_c, 0, 66, 0
2, 11656, Note_on_c, 0, 69, 54
2, 11706, Note_on_c, 0, 76, 79
2, 11707, Note_on_c, 0, 73, 60
2, 11708, Note_on_c, 0, 64, 64
2, 11714, Note_on_c, 0, 69, 0
2, 11715, Note_on_c, 0, 74, 0
2, 11753, Note_on_c, 0, 69, 25
2, 11758, Note_on_c, 0, 64, 0
2, 11798, Note_on_c, 0, 78, 71
2, 11799, Note_on_c, 0, 62, 64
2, 11800, Note_on_c, 0, 69, 0
2, 11801, Note_on_c, 0, 74, 64
2, 11807, Note_on_c, 0, 76, 0
2, 11809, Note_on_c, 0, 73, 0
2, 11829, Control_c, 0, 64, 127
2, 11838, Note_on_c, 0, 74, 0
2, 11843, Note_on_c, 0, 78, 0
2, 11844, Note_on_c, 0, 62, 0
2, 11851, Note_on_c, 0, 69, 47
2, 11891, Control_c, 0, 64, 0
2, 11893, Note_on_c, 0, 81, 61
2, 11895, Note_on_c, 0, 76, 70
2, 11895, Note_on_c, 0, 61, 53
2, 11897, Note_on_c, 0, 69, 0
2, 11938, Note_on_c, 0, 61, 0
2, 11940, Note_on_c, 0, 79, 49
2, 11944, Note_on_c, 0, 69, 64
2, 11949, Note_on_c, 0, 76, 0
2, 11951, Note_on_c, 0, 81, 0
2, 11987, Note_on_c, 0, 79, 0
2, 11987, Note_on_c, 0, 78, 60
2, 11989, Note_on_c, 0, 74, 61
2, 11991, Note_on_c, 0, 62, 59
2, 11993, Note_on_c, 0, 69, 0
2, 12033, Note_on_c, 0, 62, 0
2, 12038, Note_on_c, 0, 69, 52
2, 12089, Note_on_c, 0, 69, 0
2, 12091, Note_on_c, 0, 62, 70
2, 12142, Note_on_c, 0, 81, 67
2, 12143, Note_on_c, 0, 78, 0
2, 12149, Note_on_c, 0, 74, 0
2, 12150, Note_on_c, 0, 62, 0
2, 12183, Note_on_c, 0, 81, 0
2, 12188, Note_on_c, 0, 79, 64
2, 12231, Note_on_c, 0, 79, 0
2, 12234, Note_on_c, 0, 78, 60
2, 12248, Note_on_c, 0, 78, 0
2, 12284, Note_on_c, 0, 78, 68
2, 12285, Note_on_c, 0, 71, 67
2, 12286, Note_on_c, 0, 67, 72
2, 12329, Note_on_c, 0, 76, 75
2, 12333, Note_on_c, 0, 78, 0
2, 12341, Note_on_c, 0, 76, 0
2, 12378, Note_on_c, 0, 76, 70
2, 12382, Note_on_c, 0, 71, 0
2, 12389, Note_on_c, 0, 76, 0
2, 12428, Note_on_c, 0, 76, 75
2, 12438, Note_on_c, 0, 76, 0
2, 12476, Note_on_c, 0, 66, 60
2, 12476, Note_on_c, 0, 69, 36
2, 12477, Note_on_c, 0, 74, 72
2, 12481, Note_on_c, 0, 67, 0
2, 12526, Note_on_c, 0, 81, 70
2, 12529, Note_on_c, 0, 74, 0
2, 12571, Note_on_c, 0, 79, 70
2, 12579, Note_on_c, 0, 81, 0
2, 12614, Note_on_c, 0, 69, 0
2, 12618, Note_on_c, 0, 78, 71
2, 12625, Note_on_c, 0, 66, 0
2, 12626, Note_on_c, 0, 79, 0
2, 12631, Note_on_c, 0, 78, 0
2, 12667, Note_on_c, 0, 71, 52
2, 12667, Note_on_c, 0, 78, 71
2, 12667, Note_on_c, 0, 67, 54
2, 12709, Note_on_c, 0, 76, 72
2, 12711, Note_on_c, 0, 78, 0
2, 12720, Note_on_c, 0, 76, 0
2, 12757, Note_on_c, 0, 76, 75
2, 12768, Note_on_c, 0, 76, 0
2, 12808, Note_on_c, 0, 76, 67
2, 12818, Note_on_c, 0, 76, 0
2, 12821, Note_on_c, 0, 71, 0
2, 12861, Note_on_c, 0, 74, 67
2, 12861, Note_on_c, 0, 66, 53
2, 12862, Note_on_c, 0, 69, 44
2, 12869, Note_on_c, 0, 67, 0
2, 12905, Note_on_c, 0, 74, 0
2, 12910, Note_on_c, 0, 81, 75
2, 12947, Note_on_c, 0, 81, 0
2, 12957, Note_on_c, 0, 79, 61
2, 12988, Note_on_c, 0, 69, 0
2, 12995, Note_on_c, 0, 79, 0
2, 13004, Note_on_c, 0, 78, 50
2, 13018, Note_on_c, 0, 66, 0
2, 13019, Note_on_c, 0, 78, 0
2, 13051, Note_on_c, 0, 78, 64
2, 13100, Note_on_c, 0, 76, 70
2, 13107, Note_on_c, 0, 78, 0
2, 13139, Note_on_c, 0, 76, 0
2, 13144, Note_on_c, 0, 79, 70
2, 13146, Note_on_c, 0, 55, 82
2, 13193, Note_on_c, 0, 79, 0
2, 13195, Note_on_c, 0, 76, 79
2, 13209, Note_on_c, 0, 55, 0
2, 13210, Note_on_c, 0, 76, 0
2, 13239, Note_on_c, 0, 57, 70
2, 13241, Note_on_c, 0, 76, 75
2, 13283, Note_on_c, 0, 74, 72
2, 13285, Note_on_c, 0, 76, 0
2, 13298, Note_on_c, 0, 74, 0
2, 13331, Note_on_c, 0, 45, 75
2, 13334, Note_on_c, 0, 74, 67
2, 13339, Note_on_c, 0, 57, 0
2, 13371, Note_on_c, 0, 74, 0
2, 13376, Note_on_c, 0, 73, 60
2, 13412, Note_on_c, 0, 73, 0
2, 13414, Note_on_c, 0, 74, 64
2, 13433, Note_on_c, 0, 74, 0
2, 13437, Note_on_c, 0, 81, 85
2, 13437, Note_on_c, 0, 50, 88
2, 13438, Note_on_c, 0, 45, 0
2, 13473, Note_on_c, 0, 81, 0
2, 13478, Note_on_c, 0, 79, 64
2, 13517, Note_on_c, 0, 78, 64
2, 13527, Note_on_c, 0, 79, 0
2, 13549, Note_on_c, 0, 76, 79
2, 13555, Note_on_c, 0, 78, 0
2, 13576, Note_on_c, 0, 76, 0
2, 13579, Note_on_c, 0, 74, 61
2, 13610, Note_on_c, 0, 73, 56
2, 13611, Note_on_c, 0, 74, 0
2, 13622, Note_on_c, 0, 50, 0
2, 13642, Note_on_c, 0, 71, 72
2, 13650, Note_on_c, 0, 73, 0
2, 13675, Note_on_c, 0, 71, 0
2, 13675, Note_on_c, 0, 69, 59
2, 13700, Note_on_c, 0, 69, 0
2, 13703, Note_on_c, 0, 67, 27
2, 13705, Note_on_c, 0, 69, 23
2, 13724, Note_on_c, 0, 69, 0
2, 13732, Note_on_c, 0, 66, 56
2, 13735, Note_on_c, 0, 67, 0
2, 13764, Note_on_c, 0, 64, 67
2, 13770, Note_on_c, 0, 66, 0
2, 13793, Note_on_c, 0, 64, 0
2, 13795, Note_on_c, 0, 62, 72
2, 13828, Note_on_c, 0, 61, 71
2, 13829, Note_on_c, 0, 52, 64
2, 13836, Note_on_c, 0, 62, 0
2, 13864, Note_on_c, 0, 55, 44
2, 13871, Note_on_c, 0, 52, 0
2, 13875, Note_on_c, 0, 61, 0
2, 13893, Note_on_c, 0, 57, 52
2, 13897, Note_on_c, 0, 55, 0
2, 13922, Note_on_c, 0, 61, 80
2, 13924, Note_on_c, 0, 52, 70
2, 13925, Note_on_c, 0, 57, 0
2, 13956, Note_on_c, 0, 55, 64
2, 13960, Note_on_c, 0, 61, 0
2, 13962, Note_on_c, 0, 52, 0
2, 13984, Note_on_c, 0, 57, 52
2, 13992, Note_on_c, 0, 55, 0
2, 14016, Note_on_c, 0, 61, 75
2, 14017, Note_on_c, 0, 52, 75
2, 14022, Note_on_c, 0, 57, 0
2, 14050, Note_on_c, 0, 55, 56
2, 14056, Note_on_c, 0, 61, 0
2, 14061, Note_on_c, 0, 52, 0
2, 14079, Note_on_c, 0, 57, 52
2, 14083, Note_on_c, 0, 55, 0
2, 14111, Note_on_c, 0, 61, 80
2, 14112, Note_on_c, 0, 52, 72
2, 14119, Note_on_c, 0, 57, 0
2, 14138, Note_on_c, 0, 61, 0
2, 14143, Note_on_c, 0, 55, 64
2, 14150, Note_on_c, 0, 52, 0
2, 14172, Note_on_c, 0, 55, 0
2, 14173, Note_on_c, 0, 57, 67
2, 14206, Note_on_c, 0, 50, 72
2, 14206, Note_on_c, 0, 54, 56
2, 14207, Note_on_c, 0, 57, 0
2, 14207, Note_on_c, 0, 62, 82
2, 14240, Note_on_c, 0, 64, 75
2, 14247, Note_on_c, 0, 62, 0
2, 14271, Note_on_c, 0, 66, 60
2, 14273, Note_on_c, 0, 64, 0
2, 14300, Note_on_c, 0, 66, 0
2, 14303, Note_on_c, 0, 67, 70
2, 14321, Note_on_c, 0, 50, 0
2, 14330, Note_on_c, 0, 54, 0
2, 14334, Note_on_c, 0, 69, 70
2, 14336, Note_on_c, 0, 67, 0
2, 14366, Note_on_c, 0, 71, 75
2, 14370, Note_on_c, 0, 69, 0
2, 14393, Note_on_c, 0, 71, 0
2, 14396, Note_on_c, 0, 73, 56
2, 14426, Note_on_c, 0, 73, 0
2, 14428, Note_on_c, 0, 74, 72
2, 14460, Note_on_c, 0, 76, 75
2, 14467, Note_on_c, 0, 74, 0
2, 14490, Note_on_c, 0, 78, 68
2, 14500, Note_on_c, 0, 76, 0
2, 14518, Note_on_c, 0, 78, 0
2, 14522, Note_on_c, 0, 79, 61
2, 14554, Note_on_c, 0, 79, 0
2, 14554, Note_on_c, 0, 81, 72
2, 14582, Note_on_c, 0, 81, 0
2, 14585, Note_on_c, 0, 79, 79
2, 14585, Note_on_c, 0, 49, 60
2, 14619, Note_on_c, 0, 52, 72
2, 14623, Note_on_c, 0, 49, 0
2, 14632, Note_on_c, 0, 79, 0
2, 14652, Note_on_c, 0, 57, 38
2, 14655, Note_on_c, 0, 52, 0
2, 14682, Note_on_c, 0, 79, 82
2, 14683, Note_on_c, 0, 57, 0
2, 14684, Note_on_c, 0, 49, 47
2, 14716, Note_on_c, 0, 52, 64
2, 14717, Note_on_c, 0, 49, 0
2, 14727, Note_on_c, 0, 79, 0
2, 14744, Note_on_c, 0, 57, 52
2, 14748, Note_on_c, 0, 52, 0
2, 14773, Note_on_c, 0, 57, 0
2, 14780, Note_on_c, 0, 79, 79
2, 14781, Note_on_c, 0, 49, 68
2, 14814, Note_on_c, 0, 49, 0
2, 14814, Note_on_c, 0, 52, 52
2, 14825, Note_on_c, 0, 79, 0
2, 14844, Note_on_c, 0, 57, 32
2, 14850, Note_on_c, 0, 52, 0
2, 14876, Note_on_c, 0, 57, 0
2, 14877, Note_on_c, 0, 79, 79
2, 14877, Note_on_c, 0, 49, 56
2, 14905, Note_on_c, 0, 79, 0
2, 14909, Note_on_c, 0, 52, 59
2, 14912, Note_on_c, 0, 49, 0
2, 14942, Note_on_c, 0, 57, 49
2, 14950, Note_on_c, 0, 52, 0
2, 14956, Note_on_c, 0, 78, 56
2, 14979, Note_on_c, 0, 50, 82
2, 14979, Note_on_c, 0, 81, 64
2, 14980, Note_on_c, 0, 78, 0
2, 14980, Note_on_c, 0, 57, 0
2, 15011, Note_on_c, 0, 79, 61
2, 15013, Note_on_c, 0, 81, 0
2, 15039, Note_on_c, 0, 79, 0
2, 15043, Note_on_c, 0, 78, 60
2, 15056, Note_on_c, 0, 50, 0
2, 15075, Note_on_c, 0, 76, 67
2, 15082, Note_on_c, 0, 78, 0
2, 15107, Note_on_c, 0, 74, 54
2, 15108, Note_on_c, 0, 76, 0
2, 15137, Note_on_c, 0, 73, 60
2, 15140, Note_on_c, 0, 74, 0
2, 15170, Note_on_c, 0, 71, 56
2, 15177, Note_on_c, 0, 73, 0
2, 15201, Note_on_c, 0, 71, 0
2, 15201, Note_on_c, 0, 69, 59
2, 15231, Note_on_c, 0, 67, 47
2, 15237, Note_on_c, 0, 69, 0
2, 15262, Note_on_c, 0, 66, 64
2, 15266, Note_on_c, 0, 67, 0
2, 15294, Note_on_c, 0, 64, 64
2, 15300, Note_on_c, 0, 66, 0
2, 15322, Note_on_c, 0, 64, 0
2, 15325, Note_on_c, 0, 62, 59
2, 15359, Note_on_c, 0, 60, 70
2, 15360, Note_on_c, 0, 62, 0
2, 15362, Note_on_c, 0, 52, 56
2, 15394, Note_on_c, 0, 54, 43
2, 15405, Note_on_c, 0, 52, 0
2, 15422, Note_on_c, 0, 57, 38
2, 15423, Note_on_c, 0, 54, 0
2, 15427, Note_on_c, 0, 60, 0
2, 15455, Note_on_c, 0, 50, 70
2, 15455, Note_on_c, 0, 60, 79
2, 15457, Note_on_c, 0, 57, 0
2, 15486, Note_on_c, 0, 54, 47
2, 15500, Note_on_c, 0, 50, 0
2, 15514, Note_on_c, 0, 60, 0
2, 15517, Note_on_c, 0, 57, 52
2, 15523, Note_on_c, 0, 54, 0
2, 15554, Note_on_c, 0, 50, 70
2, 15554, Note_on_c, 0, 60, 82
2, 15563, Note_on_c, 0, 57, 0
2, 15585, Note_on_c, 0, 54, 47
2, 15593, Note_on_c, 0, 60, 0
2, 15598, Note_on_c, 0, 50, 0
2, 15616, Note_on_c, 0, 57, 40
2, 15623, Note_on_c, 0, 54, 0
2, 15648, Note_on_c, 0, 50, 72
2, 15650, Note_on_c, 0, 60, 82
2, 15652, Note_on_c, 0, 57, 0
2, 15677, Note_on_c, 0, 60, 0
2, 15680, Note_on_c, 0, 54, 50
2, 15694, Note_on_c, 0, 50, 0
2, 15700, Control_c, 0, 64, 127
2, 15715, Note_on_c, 0, 54, 0
2, 15715, Note_on_c, 0, 57, 67
2, 15745, Note_on_c, 0, 59, 72
2, 15749, Note_on_c, 0, 57, 0
2, 15749, Note_on_c, 0, 43, 40
2, 15751, Control_c, 0, 64, 0
2, 15751, Note_on_c, 0, 45, 56
2, 15756, Note_on_c, 0, 45, 0
2, 15778, Note_on_c, 0, 64, 75
2, 15786, Note_on_c, 0, 59, 0
2, 15810, Note_on_c, 0, 67, 70
2, 15820, Note_on_c, 0, 64, 0
2, 15841, Note_on_c, 0, 55, 67
2, 15843, Note_on_c, 0, 67, 0
2, 15843, Note_on_c, 0, 71, 82
2, 15863, Note_on_c, 0, 43, 0
2, 15872, Note_on_c, 0, 67, 75
2, 15876, Note_on_c, 0, 71, 0
2, 15900, Note_on_c, 0, 64, 52
2, 15906, Note_on_c, 0, 67, 0
2, 15907, Note_on_c, 0, 55, 0
2, 15934, Note_on_c, 0, 62, 82
2, 15935, Note_on_c, 0, 54, 50
2, 15937, Note_on_c, 0, 45, 54
2, 15943, Note_on_c, 0, 64, 0
2, 15961, Control_c, 0, 64, 127
2, 15996, Note_on_c, 0, 54, 0
2, 15997, Note_on_c, 0, 62, 0
2, 15997, Note_on_c, 0, 45, 0
2, 16027, Control_c, 0, 64, 0
2, 16033, Note_on_c, 0, 66, 71
2, 16035, Note_on_c, 0, 55, 61
2, 16035, Note_on_c, 0, 45, 59
2, 16061, Note_on_c, 0, 64, 85
2, 16069, Note_on_c, 0, 66, 0
2, 16084, Note_on_c, 0, 55, 0
2, 16124, Note_on_c, 0, 45, 0
2, 16125, Note_on_c, 0, 50, 67
2, 16126, Note_on_c, 0, 62, 72
2, 16126, Note_on_c, 0, 54, 50
2, 16128, Note_on_c, 0, 64, 0
2, 16161, Note_on_c, 0, 64, 67
2, 16165, Note_on_c, 0, 62, 0
2, 16194, Note_on_c, 0, 64, 0
2, 16194, Note_on_c, 0, 66, 53
2, 16223, Note_on_c, 0, 66, 0
2, 16225, Note_on_c, 0, 67, 61
2, 16256, Note_on_c, 0, 69, 70
2, 16259, Note_on_c, 0, 67, 0
2, 16259, Note_on_c, 0, 54, 0
2, 16264, Note_on_c, 0, 50, 0
2, 16289, Note_on_c, 0, 71, 82
2, 16292, Note_on_c, 0, 69, 0
2, 16320, Note_on_c, 0, 71, 0
2, 16320, Note_on_c, 0, 73, 56
2, 16350, Note_on_c, 0, 73, 0
2, 16354, Note_on_c, 0, 74, 70
2, 16384, Note_on_c, 0, 76, 79
2, 16388, Note_on_c, 0, 74, 0
2, 16416, Note_on_c, 0, 78, 64
2, 16420, Note_on_c, 0, 76, 0
2, 16446, Note_on_c, 0, 78, 0
2, 16448, Note_on_c, 0, 79, 47
2, 16449, Note_on_c, 0, 77, 49
2, 16456, Note_on_c, 0, 77, 0
2, 16478, Note_on_c, 0, 79, 0
2, 16480, Note_on_c, 0, 81, 72
2, 16511, Note_on_c, 0, 83, 82
2, 16513, Note_on_c, 0, 79, 75
2, 16514, Note_on_c, 0, 81, 0
2, 16541, Note_on_c, 0, 55, 67
2, 16576, Note_on_c, 0, 55, 0
2, 16578, Note_on_c, 0, 57, 64
2, 16609, Note_on_c, 0, 59, 72
2, 16614, Note_on_c, 0, 57, 0
2, 16639, Note_on_c, 0, 61, 56
2, 16645, Note_on_c, 0, 59, 0
2, 16670, Note_on_c, 0, 61, 0
2, 16671, Note_on_c, 0, 62, 72
2, 16702, Note_on_c, 0, 64, 64
2, 16710, Note_on_c, 0, 62, 0
2, 16734, Note_on_c, 0, 66, 56
2, 16740, Note_on_c, 0, 64, 0
2, 16767, Note_on_c, 0, 66, 0
2, 16767, Note_on_c, 0, 67, 64
2, 16790, Note_on_c, 0, 67, 0
2, 16799, Note_on_c, 0, 69, 67
2, 16832, Note_on_c, 0, 71, 64
2, 16843, Note_on_c, 0, 69, 0
2, 16862, Note_on_c, 0, 73, 60
2, 16868, Note_on_c, 0, 71, 0
2, 16892, Note_on_c, 0, 73, 0
2, 16894, Note_on_c, 0, 79, 0
2, 16895, Note_on_c, 0, 74, 79
2, 16896, Note_on_c, 0, 78, 71
2, 16897, Note_on_c, 0, 81, 79
2, 16903, Note_on_c, 0, 83, 0
2, 16910, Note_on_c, 0, 78, 0
2, 16911, Note_on_c, 0, 74, 0
2, 16912, Note_on_c, 0, 81, 0
2, 16996, Note_on_c, 0, 67, 70
2, 16997, Note_on_c, 0, 79, 82
2, 16998, Note_on_c, 0, 76, 75
2, 17012, Note_on_c, 0, 76, 0
2, 17012, Note_on_c, 0, 79, 0
2, 17017, Note_on_c, 0, 67, 0
2, 17089, Note_on_c, 0, 78, 71
2, 17089, Note_on_c, 0, 69, 64
2, 17090, Note_on_c, 0, 74, 82
2, 17105, Note_on_c, 0, 78, 0
2, 17106, Note_on_c, 0, 74, 0
2, 17109, Note_on_c, 0, 69, 0
2, 17184, Note_on_c, 0, 73, 80
2, 17185, Note_on_c, 0, 76, 88
2, 17185, Note_on_c, 0, 57, 79
2, 17197, Note_on_c, 0, 73, 0
2, 17201, Note_on_c, 0, 76, 0
2, 17209, Note_on_c, 0, 57, 0
2, 17284, Note_on_c, 0, 81, 82
2, 17316, Note_on_c, 0, 79, 70
2, 17322, Note_on_c, 0, 81, 0
2, 17346, Note_on_c, 0, 78, 56
2, 17359, Note_on_c, 0, 79, 0
2, 17381, Note_on_c, 0, 76, 79
2, 17388, Note_on_c, 0, 78, 0
2, 17408, Note_on_c, 0, 76, 0
2, 17413, Note_on_c, 0, 74, 56
2, 17439, Note_on_c, 0, 74, 0
2, 17442, Note_on_c, 0, 73, 47
2, 17473, Note_on_c, 0, 71, 64
2, 17482, Note_on_c, 0, 73, 0
2, 17504, Note_on_c, 0, 69, 44
2, 17508, Note_on_c, 0, 71, 0
2, 17531, Note_on_c, 0, 69, 0
2, 17534, Note_on_c, 0, 67, 42
2, 17565, Note_on_c, 0, 67, 0
2, 17566, Note_on_c, 0, 66, 53
2, 17598, Note_on_c, 0, 64, 67
2, 17602, Note_on_c, 0, 66, 0
2, 17625, Note_on_c, 0, 64, 0
2, 17628, Note_on_c, 0, 62, 70
2, 17662, Note_on_c, 0, 71, 72
2, 17663, Note_on_c, 0, 67, 75
2, 17690, Note_on_c, 0, 62, 0
2, 17695, Note_on_c, 0, 43, 82
2, 17729, Note_on_c, 0, 43, 0
2, 17729, Note_on_c, 0, 45, 70
2, 17762, Note_on_c, 0, 47, 70
2, 17763, Note_on_c, 0, 48, 75
2, 17767, Note_on_c, 0, 48, 0
2, 17773, Note_on_c, 0, 45, 0
2, 17790, Note_on_c, 0, 49, 56
2, 17796, Note_on_c, 0, 47, 0
2, 17821, Note_on_c, 0, 49, 0
2, 17822, Note_on_c, 0, 50, 82
2, 17851, Note_on_c, 0, 50, 0
2, 17853, Note_on_c, 0, 52, 64
2, 17885, Note_on_c, 0, 54, 53
2, 17888, Note_on_c, 0, 52, 0
2, 17915, Note_on_c, 0, 54, 0
2, 17915, Note_on_c, 0, 55, 64
2, 17918, Note_on_c, 0, 67, 0
2, 17947, Note_on_c, 0, 57, 61
2, 17952, Note_on_c, 0, 55, 0
2, 17982, Note_on_c, 0, 57, 0
2, 17982, Note_on_c, 0, 59, 79
2, 18011, Note_on_c, 0, 61, 56
2, 18019, Note_on_c, 0, 59, 0
2, 18041, Note_on_c, 0, 61, 0
2, 18044, Note_on_c, 0, 62, 85
2, 18044, Note_on_c, 0, 66, 71
2, 18045, Note_on_c, 0, 69, 72
2, 18050, Note_on_c, 0, 71, 0
2, 18058, Note_on_c, 0, 66, 0
2, 18062, Note_on_c, 0, 69, 0
2, 18063, Note_on_c, 0, 62, 0
2, 18146, Note_on_c, 0, 55, 75
2, 18148, Note_on_c, 0, 67, 79
2, 18149, Note_on_c, 0, 64, 79
2, 18163, Note_on_c, 0, 64, 0
2, 18164, Note_on_c, 0, 67, 0
2, 18167, Note_on_c, 0, 55, 0
2, 18239, Note_on_c, 0, 66, 75
2, 18239, Note_on_c, 0, 57, 49
2, 18241, Note_on_c, 0, 62, 82
2, 18257, Note_on_c, 0, 66, 0
2, 18259, Note_on_c, 0, 57, 0
2, 18260, Note_on_c, 0, 62, 0
2, 18331, Note_on_c, 0, 61, 85
2, 18332, Note_on_c, 0, 64, 85
2, 18333, Note_on_c, 0, 45, 75
2, 18345, Note_on_c, 0, 61, 0
2, 18347, Note_on_c, 0, 45, 0
2, 18349, Note_on_c, 0, 64, 0
2, 18432, Note_on_c, 0, 50, 75
2, 18432, Note_on_c, 0, 62, 88
2, 18444, Control_c, 0, 64, 127
2, 18446, Note_on_c, 0, 62, 0
2, 18462, Note_on_c, 0, 54, 40
2, 18469, Note_on_c, 0, 50, 0
2, 18495, Note_on_c, 0, 54, 0
2, 18496, Note_on_c, 0, 57, 32
2, 18524, Control_c, 0, 64, 0
2, 18527, Note_on_c, 0, 57, 0
2, 18527, Note_on_c, 0, 50, 61
2, 18530, Note_on_c, 0, 81, 61
2, 18557, Note_on_c, 0, 54, 19
2, 18558, Note_on_c, 0, 78, 43
2, 18565, Note_on_c, 0, 50, 0
2, 18569, Note_on_c, 0, 81, 0
2, 18575, Control_c, 0, 64, 127
2, 18584, Note_on_c, 0, 78, 0
2, 18586, Note_on_c, 0, 74, 61
2, 18588, Note_on_c, 0, 57, 33
2, 18592, Note_on_c, 0, 54, 0
2, 18615, Note_on_c, 0, 74, 0
2, 18618, Control_c, 0, 64, 0
2, 18620, Note_on_c, 0, 57, 0
2, 18621, Note_on_c, 0, 73, 75
2, 18622, Note_on_c, 0, 50, 79
2, 18625, Note_on_c, 0, 74, 56
2, 18629, Note_on_c, 0, 74, 0
2, 18652, Note_on_c, 0, 55, 30
2, 18660, Note_on_c, 0, 50, 0
2, 18665, Control_c, 0, 64, 127
2, 18685, Note_on_c, 0, 55, 0
2, 18689, Note_on_c, 0, 57, 15
2, 18718, Note_on_c, 0, 50, 33
2, 18721, Note_on_c, 0, 79, 56
2, 18723, Note_on_c, 0, 57, 0
2, 18726, Note_on_c, 0, 73, 0
2, 18750, Note_on_c, 0, 55, 25
2, 18752, Note_on_c, 0, 50, 0
2, 18752, Note_on_c, 0, 79, 0
2, 18752, Note_on_c, 0, 76, 56
2, 18776, Note_on_c, 0, 76, 0
2, 18777, Note_on_c, 0, 73, 50
2, 18780, Note_on_c, 0, 55, 0
2, 18781, Note_on_c, 0, 57, 29
2, 18807, Control_c, 0, 64, 0
2, 18809, Note_on_c, 0, 57, 0
2, 18813, Note_on_c, 0, 74, 88
2, 18814, Note_on_c, 0, 50, 72
2, 18816, Note_on_c, 0, 73, 0
2, 18836, Control_c, 0, 64, 127
2, 18844, Note_on_c, 0, 54, 19
2, 18848, Note_on_c, 0, 74, 0
2, 18873, Note_on_c, 0, 57, 20
2, 18875, Note_on_c, 0, 50, 0
2, 18883, Note_on_c, 0, 54, 0
2, 18903, Note_on_c, 0, 57, 0
2, 18906, Note_on_c, 0, 69, 19
2, 18906, Note_on_c, 0, 50, 64
2, 18932, Note_on_c, 0, 54, 18
2, 18937, Note_on_c, 0, 66, 43
2, 18942, Note_on_c, 0, 69, 0
2, 18949, Note_on_c, 0, 50, 0
2, 18967, Note_on_c, 0, 66, 0
2, 18969, Note_on_c, 0, 57, 35
2, 18969, Note_on_c, 0, 62, 67
2, 18974, Note_on_c, 0, 54, 0
2, 18996, Note_on_c, 0, 62, 0
2, 18999, Note_on_c, 0, 57, 0
2, 19001, Control_c, 0, 64, 0
2, 19003, Note_on_c, 0, 61, 85
2, 19003, Note_on_c, 0, 50, 79
2, 19006, Note_on_c, 0, 62, 59
2, 19011, Note_on_c, 0, 62, 0
2, 19039, Note_on_c, 0, 55, 16
2, 19044, Control_c, 0, 64, 127
2, 19046, Note_on_c, 0, 50, 0
2, 19071, Note_on_c, 0, 57, 23
2, 19073, Note_on_c, 0, 55, 0
2, 19101, Note_on_c, 0, 61, 0
2, 19102, Note_on_c, 0, 57, 0
2, 19103, Note_on_c, 0, 67, 59
2, 19105, Note_on_c, 0, 50, 40
2, 19134, Note_on_c, 0, 67, 0
2, 19136, Note_on_c, 0, 55, 17
2, 19136, Note_on_c, 0, 64, 54
2, 19142, Note_on_c, 0, 50, 0
2, 19157, Note_on_c, 0, 64, 0
2, 19163, Note_on_c, 0, 55, 0
2, 19168, Note_on_c, 0, 57, 16
2, 19198, Control_c, 0, 64, 0
2, 19198, Note_on_c, 0, 62, 82
2, 19199, Note_on_c, 0, 50, 61
2, 19200, Note_on_c, 0, 57, 0
2, 19229, Note_on_c, 0, 54, 19
2, 19235, Control_c, 0, 64, 127
2, 19239, Note_on_c, 0, 50, 0
2, 19243, Note_on_c, 0, 62, 0
2, 19262, Note_on_c, 0, 57, 32
2, 19263, Note_on_c, 0, 54, 0
2, 19292, Note_on_c, 0, 57, 0
2, 19292, Note_on_c, 0, 67, 75
2, 19293, Note_on_c, 0, 50, 70
2, 19300, Control_c, 0, 64, 0
2, 19321, Note_on_c, 0, 67, 0
2, 19324, Note_on_c, 0, 64, 67
2, 19325, Note_on_c, 0, 55, 40
2, 19330, Note_on_c, 0, 50, 0
2, 19355, Note_on_c, 0, 64, 0
2, 19357, Note_on_c, 0, 57, 47
2, 19357, Note_on_c, 0, 61, 64
2, 19358, Note_on_c, 0, 55, 0
2, 19391, Note_on_c, 0, 62, 85
2, 19391, Note_on_c, 0, 50, 75
2, 19393, Note_on_c, 0, 57, 0
2, 19397, Note_on_c, 0, 61, 0
2, 19421, Note_on_c, 0, 54, 40
2, 19428, Note_on_c, 0, 62, 0
2, 19434, Note_on_c, 0, 50, 0
2, 19454, Note_on_c, 0, 57, 54
2, 19466, Note_on_c, 0, 54, 0
2, 19487, Note_on_c, 0, 67, 79
2, 19487, Note_on_c, 0, 50, 82
2, 19488, Note_on_c, 0, 57, 0
2, 19517, Note_on_c, 0, 64, 67
2, 19518, Note_on_c, 0, 67, 0
2, 19518, Note_on_c, 0, 55, 52
2, 19524, Note_on_c, 0, 50, 0
2, 19544, Note_on_c, 0, 64, 0
2, 19546, Note_on_c, 0, 61, 68
2, 19548, Note_on_c, 0, 57, 64
2, 19552, Note_on_c, 0, 55, 0
2, 19582, Note_on_c, 0, 62, 85
2, 19583, Note_on_c, 0, 50, 102
2, 19585, Note_on_c, 0, 57, 0
2, 19587, Note_on_c, 0, 61, 0
2, 19598, Control_c, 0, 64, 127
2, 19599, Note_on_c, 0, 62, 0
2, 19604, Note_on_c, 0, 50, 0
2, 19628, Control_c, 0, 64, 0
2, 19682, Note_on_c, 0, 62, 82
2, 19683, Note_on_c, 0, 57, 79
2, 19684, Note_on_c, 0, 54, 80
2, 19684, Note_on_c, 0, 50, 82
2, 19685, Note_on_c, 0, 38, 94
2, 19707, Note_on_c, 0, 54, 0
2, 19709, Control_c, 0, 64, 127
2, 19712, Note_on_c, 0, 62, 0
2, 19714, Note_on_c, 0, 50, 0
2, 19716, Note_on_c, 0, 57, 0
2, 19718, Control_c, 0, 64, 0
2, 19720, Note_on_c, 0, 38, 0
2, 19779, Note_on_c, 0, 57, 88
2, 19779, Note_on_c, 0, 54, 75
2, 19779, Note_on_c, 0, 62, 82
2, 19780, Note_on_c, 0, 38, 85
2, 19780, Note_on_c, 0, 50, 85
2, 19807, Note_on_c, 0, 54, 0
2, 19807, Control_c, 0, 64, 127
2, 19812, Note_on_c, 0, 38, 0
2, 19812, Note_on_c, 0, 50, 0
2, 19813, Note_on_c, 0, 57, 0
2, 19818, Note_on_c, 0, 62, 0
2, 19852, Control_c, 0, 64, 0
2, 19969, Note_on_c, 0, 74, 94
2, 19970, Note_on_c, 0, 62, 88
2, 19970, Note_on_c, 0, 69, 88
2, 19970, Note_on_c, 0, 65, 94
2, 19970, Note_on_c, 0, 50, 94
2, 20060, Note_on_c, 0, 65, 0
2, 20067, Control_c, 0, 64, 127
2, 20080, Note_on_c, 0, 69, 0
2, 20080, Note_on_c, 0, 50, 0
2, 20082, Note_on_c, 0, 62, 0
2, 20143, Control_c, 0, 64, 0
2, 20187, Note_on_c, 0, 74, 0
2, 20187, Note_on_c, 0, 77, 52
2, 20214, Note_on_c, 0, 77, 0
2, 20215, Note_on_c, 0, 76, 42
2, 20239, Note_on_c, 0, 76, 0
2, 20245, Note_on_c, 0, 74, 54
2, 20275, Note_on_c, 0, 72, 44
2, 20276, Note_on_c, 0, 74, 0
2, 20309, Note_on_c, 0, 72, 0
2, 20311, Note_on_c, 0, 71, 59
2, 20348, Note_on_c, 0, 69, 67
2, 20357, Note_on_c, 0, 71, 0
2, 20391, Note_on_c, 0, 64, 61
2, 20440, Note_on_c, 0, 68, 60
2, 20442, Note_on_c, 0, 62, 44
2, 20446, Note_on_c, 0, 64, 0
2, 20449, Note_on_c, 0, 69, 0
2, 20487, Note_on_c, 0, 62, 0
2, 20487, Note_on_c, 0, 64, 64
2, 20534, Note_on_c, 0, 60, 44
2, 20536, Note_on_c, 0, 68, 0
2, 20536, Note_on_c, 0, 69, 72
2, 20538, Note_on_c, 0, 64, 0
2, 20576, Note_on_c, 0, 60, 0
2, 20580, Note_on_c, 0, 64, 64
2, 20628, Note_on_c, 0, 71, 88
2, 20630, Note_on_c, 0, 56, 50
2, 20635, Note_on_c, 0, 64, 0
2, 20636, Note_on_c, 0, 69, 0
2, 20676, Note_on_c, 0, 56, 0
2, 20678, Note_on_c, 0, 64, 64
2, 20725, Note_on_c, 0, 72, 75
2, 20726, Note_on_c, 0, 64, 0
2, 20729, Note_on_c, 0, 57, 61
2, 20734, Note_on_c, 0, 71, 0
2, 20772, Note_on_c, 0, 64, 54
2, 20775, Note_on_c, 0, 57, 0
2, 20821, Note_on_c, 0, 64, 0
2, 20822, Note_on_c, 0, 74, 82
2, 20823, Note_on_c, 0, 59, 67
2, 20829, Note_on_c, 0, 72, 0
2, 20870, Note_on_c, 0, 64, 40
2, 20876, Note_on_c, 0, 59, 0
2, 20919, Note_on_c, 0, 76, 85
2, 20920, Note_on_c, 0, 60, 56
2, 20921, Note_on_c, 0, 64, 0
2, 20925, Note_on_c, 0, 74, 0
2, 20966, Note_on_c, 0, 64, 70
2, 20969, Note_on_c, 0, 60, 0
2, 21010, Note_on_c, 0, 76, 0
2, 21017, Note_on_c, 0, 74, 85
2, 21017, Note_on_c, 0, 59, 56
2, 21025, Note_on_c, 0, 64, 0
2, 21040, Note_on_c, 0, 74, 0
2, 21042, Control_c, 0, 64, 127
2, 21056, Note_on_c, 0, 59, 0
2, 21062, Note_on_c, 0, 64, 56
2, 21087, Note_on_c, 0, 72, 64
2, 21100, Note_on_c, 0, 76, 56
2, 21102, Note_on_c, 0, 64, 0
2, 21111, Note_on_c, 0, 81, 94
2, 21112, Note_on_c, 0, 72, 0
2, 21113, Note_on_c, 0, 57, 70
2, 21117, Control_c, 0, 64, 0
2, 21123, Note_on_c, 0, 76, 0
2, 21152, Note_on_c, 0, 60, 56
2, 21167, Note_on_c, 0, 57, 0
2, 21183, Note_on_c, 0, 64, 67
2, 21206, Note_on_c, 0, 60, 0
2, 21211, Note_on_c, 0, 69, 59
2, 21212, Note_on_c, 0, 64, 0
2, 21245, Note_on_c, 0, 64, 59
2, 21246, Note_on_c, 0, 69, 0
2, 21278, Note_on_c, 0, 60, 52
2, 21284, Note_on_c, 0, 64, 0
2, 21307, Note_on_c, 0, 60, 0
2, 21308, Note_on_c, 0, 57, 75
2, 21339, Note_on_c, 0, 81, 0
2, 21340, Note_on_c, 0, 84, 72
2, 21373, Note_on_c, 0, 84, 0
2, 21375, Note_on_c, 0, 83, 72
2, 21405, Note_on_c, 0, 57, 0
2, 21406, Note_on_c, 0, 81, 70
2, 21417, Note_on_c, 0, 83, 0
2, 21436, Note_on_c, 0, 81, 0
2, 21438, Note_on_c, 0, 79, 70
2, 21465, Note_on_c, 0, 79, 0
2, 21469, Note_on_c, 0, 78, 53
2, 21502, Note_on_c, 0, 78, 0
2, 21506, Note_on_c, 0, 76, 79
2, 21548, Note_on_c, 0, 71, 59
2, 21598, Note_on_c, 0, 69, 54
2, 21598, Note_on_c, 0, 75, 71
2, 21599, Note_on_c, 0, 76, 0
2, 21604, Note_on_c, 0, 71, 0
2, 21643, Note_on_c, 0, 69, 0
2, 21643, Note_on_c, 0, 71, 67
2, 21686, Note_on_c, 0, 67, 64
2, 21687, Note_on_c, 0, 76, 75
2, 21688, Note_on_c, 0, 75, 0
2, 21695, Note_on_c, 0, 71, 0
2, 21734, Note_on_c, 0, 67, 0
2, 21738, Note_on_c, 0, 71, 64
2, 21784, Note_on_c, 0, 78, 68
2, 21785, Note_on_c, 0, 63, 50
2, 21787, Note_on_c, 0, 71, 0
2, 21797, Note_on_c, 0, 76, 0
2, 21834, Note_on_c, 0, 63, 0
2, 21834, Note_on_c, 0, 71, 52
2, 21881, Note_on_c, 0, 78, 0
2, 21881, Note_on_c, 0, 79, 79
2, 21884, Note_on_c, 0, 64, 56
2, 21889, Note_on_c, 0, 71, 0
2, 21929, Note_on_c, 0, 64, 0
2, 21931, Note_on_c, 0, 71, 47
2, 21980, Note_on_c, 0, 64, 52
2, 21988, Note_on_c, 0, 71, 0
2, 22024, Note_on_c, 0, 64, 0
2, 22027, Note_on_c, 0, 78, 64
2, 22028, Note_on_c, 0, 71, 61
2, 22031, Note_on_c, 0, 79, 0
2, 22051, Note_on_c, 0, 79, 61
2, 22058, Note_on_c, 0, 78, 0
2, 22074, Note_on_c, 0, 79, 0
2, 22075, Note_on_c, 0, 81, 79
2, 22075, Note_on_c, 0, 60, 67
2, 22081, Note_on_c, 0, 71, 0
2, 22121, Note_on_c, 0, 70, 50
2, 22122, Note_on_c, 0, 60, 0
2, 22123, Note_on_c, 0, 79, 64
2, 22133, Note_on_c, 0, 81, 0
2, 22167, Note_on_c, 0, 79, 0
2, 22167, Note_on_c, 0, 60, 70
2, 22168, Note_on_c, 0, 78, 56
2, 22169, Note_on_c, 0, 70, 0
2, 22214, Note_on_c, 0, 78, 0
2, 22214, Note_on_c, 0, 60, 0
2, 22216, Note_on_c, 0, 70, 47
2, 22216, Note_on_c, 0, 76, 67
2, 22228, Note_on_c, 0, 70, 0
2, 22262, Note_on_c, 0, 59, 61
2, 22265, Note_on_c, 0, 75, 53
2, 22280, Note_on_c, 0, 76, 0
2, 22284, Note_on_c, 0, 59, 0
2, 22315, Note_on_c, 0, 71, 59
2, 22316, Note_on_c, 0, 75, 0
2, 22327, Note_on_c, 0, 71, 0
2, 22360, Note_on_c, 0, 71, 52
2, 22375, Note_on_c, 0, 71, 0
2, 22408, Note_on_c, 0, 83, 54
2, 22408, Note_on_c, 0, 71, 42
2, 22409, Note_on_c, 0, 79, 44
2, 22420, Note_on_c, 0, 71, 0
2, 22450, Note_on_c, 0, 79, 0
2, 22454, Note_on_c, 0, 83, 0
2, 22456, Note_on_c, 0, 81, 59
2, 22457, Note_on_c, 0, 78, 53
2, 22460, Note_on_c, 0, 71, 54
2, 22476, Note_on_c, 0, 71, 0
2, 22508, Note_on_c, 0, 71, 56
2, 22514, Note_on_c, 0, 81, 0
2, 22524, Note_on_c, 0, 71, 0
2, 22540, Note_on_c, 0, 78, 0
2, 22552, Note_on_c, 0, 71, 40
2, 22574, Note_on_c, 0, 71, 0
2, 22601, Note_on_c, 0, 78, 56
2, 22602, Note_on_c, 0, 75, 47
2, 22604, Note_on_c, 0, 71, 49
2, 22622, Note_on_c, 0, 71, 0
2, 22637, Note_on_c, 0, 75, 0
2, 22645, Note_on_c, 0, 78, 0
2, 22651, Note_on_c, 0, 79, 59
2, 22652, Note_on_c, 0, 76, 72
2, 22654, Note_on_c, 0, 71, 56
2, 22668, Note_on_c, 0, 71, 0
2, 22697, Note_on_c, 0, 71, 47
2, 22709, Note_on_c, 0, 76, 0
2, 22710, Note_on_c, 0, 71, 0
2, 22711, Note_on_c, 0, 79, 0
2, 22745, Note_on_c, 0, 71, 27
2, 22759, Note_on_c, 0, 71, 0
2, 22795, Note_on_c, 0, 79, 59
2, 22797, Note_on_c, 0, 76, 56
2, 22802, Note_on_c, 0, 71, 3
2, 22808, Note_on_c, 0, 71, 0
2, 22839, Note_on_c, 0, 76, 0
2, 22840, Note_on_c, 0, 75, 27
2, 22842, Note_on_c, 0, 79, 0
2, 22842, Note_on_c, 0, 71, 32
2, 22843, Note_on_c, 0, 78, 47
2, 22856, Note_on_c, 0, 71, 0
2, 22889, Note_on_c, 0, 71, 40
2, 22907, Note_on_c, 0, 71, 0
2, 22929, Note_on_c, 0, 75, 0
2, 22931, Note_on_c, 0, 78, 0
2, 22931, Note_on_c, 0, 79, 70
2, 22931, Note_on_c, 0, 76, 64
2, 22935, Note_on_c, 0, 71, 47
2, 22949, Note_on_c, 0, 71, 0
2, 22979, Note_on_c, 0, 71, 27
2, 22992, Note_on_c, 0, 71, 0
2, 23030, Note_on_c, 0, 76, 0
2, 23030, Note_on_c, 0, 78, 47
2, 23030, Note_on_c, 0, 75, 17
2, 23033, Note_on_c, 0, 59, 19
2, 23039, Note_on_c, 0, 79, 0
2, 23055, Note_on_c, 0, 59, 0
2, 23080, Note_on_c, 0, 75, 0
2, 23080, Note_on_c, 0, 71, 33
2, 23086, Note_on_c, 0, 78, 0
2, 23093, Note_on_c, 0, 71, 0
2, 23127, Note_on_c, 0, 71, 35
2, 23140, Note_on_c, 0, 71, 0
2, 23170, Note_on_c, 0, 71, 35
2, 23171, Note_on_c, 0, 83, 70
2, 23173, Note_on_c, 0, 79, 54
2, 23187, Note_on_c, 0, 71, 0
2, 23215, Note_on_c, 0, 81, 47
2, 23216, Note_on_c, 0, 71, 44
2, 23217, Note_on_c, 0, 78, 68
2, 23220, Note_on_c, 0, 79, 0
2, 23220, Note_on_c, 0, 83, 0
2, 23232, Note_on_c, 0, 71, 0
2, 23258, Note_on_c, 0, 81, 0
2, 23266, Note_on_c, 0, 71, 9
2, 23279, Note_on_c, 0, 78, 0
2, 23280, Note_on_c, 0, 71, 0
2, 23312, Note_on_c, 0, 71, 29
2, 23329, Note_on_c, 0, 71, 0
2, 23359, Note_on_c, 0, 78, 60
2, 23360, Note_on_c, 0, 75, 53
2, 23360, Note_on_c, 0, 71, 30
2, 23376, Note_on_c, 0, 71, 0
2, 23406, Note_on_c, 0, 75, 0
2, 23414, Note_on_c, 0, 79, 54
2, 23416, Note_on_c, 0, 71, 59
2, 23416, Note_on_c, 0, 76, 64
2, 23423, Note_on_c, 0, 78, 0
2, 23433, Note_on_c, 0, 71, 0
2, 23465, Note_on_c, 0, 76, 0
2, 23465, Note_on_c, 0, 71, 29
2, 23471, Note_on_c, 0, 79, 0
2, 23480, Note_on_c, 0, 71, 0
2, 23515, Note_on_c, 0, 71, 33
2, 23531, Note_on_c, 0, 71, 0
2, 23562, Note_on_c, 0, 71, 20
2, 23564, Note_on_c, 0, 79, 52
2, 23564, Note_on_c, 0, 76, 52
2, 23577, Note_on_c, 0, 71, 0
2, 23613, Note_on_c, 0, 75, 53
2, 23613, Note_on_c, 0, 78, 60
2, 23613, Note_on_c, 0, 71, 30
2, 23619, Note_on_c, 0, 76, 0
2, 23619, Note_on_c, 0, 79, 0
2, 23630, Note_on_c, 0, 71, 0
2, 23660, Note_on_c, 0, 71, 44
2, 23675, Note_on_c, 0, 71, 0
2, 23699, Note_on_c, 0, 75, 0
2, 23704, Note_on_c, 0, 78, 0
2, 23705, Note_on_c, 0, 79, 54
2, 23706, Note_on_c, 0, 71, 40
2, 23706, Note_on_c, 0, 76, 52
2, 23724, Note_on_c, 0, 71, 0
2, 23754, Note_on_c, 0, 71, 49
2, 23767, Note_on_c, 0, 71, 0
2, 23803, Note_on_c, 0, 78, 47
2, 23805, Note_on_c, 0, 71, 70
2, 23805, Note_on_c, 0, 75, 47
2, 23811, Note_on_c, 0, 76, 0
2, 23811, Note_on_c, 0, 79, 0
2, 23851, Note_on_c, 0, 70, 68
2, 23854, Note_on_c, 0, 71, 0
2, 23895, Note_on_c, 0, 70, 0
2, 23897, Note_on_c, 0, 71, 75
2, 23940, Note_on_c, 0, 70, 71
2, 23947, Note_on_c, 0, 71, 0
2, 23986, Note_on_c, 0, 70, 0
2, 23989, Note_on_c, 0, 71, 79
2, 24040, Note_on_c, 0, 69, 54
2, 24046, Note_on_c, 0, 71, 0
2, 24085, Note_on_c, 0, 69, 0
2, 24087, Note_on_c, 0, 67, 56
2, 24138, Note_on_c, 0, 66, 60
2, 24141, Note_on_c, 0, 67, 0
2, 24182, Note_on_c, 0, 75, 0
2, 24183, Note_on_c, 0, 66, 0
2, 24185, Note_on_c, 0, 79, 70
2, 24186, Note_on_c, 0, 64, 72
2, 24186, Note_on_c, 0, 76, 67
2, 24192, Note_on_c, 0, 78, 0
2, 24232, Note_on_c, 0, 63, 47
2, 24239, Note_on_c, 0, 64, 0
2, 24277, Note_on_c, 0, 63, 0
2, 24278, Note_on_c, 0, 64, 64
2, 24325, Note_on_c, 0, 63, 71
2, 24332, Note_on_c, 0, 64, 0
2, 24372, Note_on_c, 0, 63, 0
2, 24374, Note_on_c, 0, 64, 85
2, 24419, Note_on_c, 0, 62, 79
2, 24428, Note_on_c, 0, 64, 0
2, 24468, Note_on_c, 0, 60, 85
2, 24469, Note_on_c, 0, 62, 0
2, 24513, Note_on_c, 0, 60, 0
2, 24516, Note_on_c, 0, 59, 79
2, 24520, Note_on_c, 0, 79, 0
2, 24560, Note_on_c, 0, 59, 0
2, 24562, Note_on_c, 0, 76, 0
2, 24564, Note_on_c, 0, 57, 82
2, 24564, Note_on_c, 0, 84, 88
2, 24606, Note_on_c, 0, 84, 0
2, 24610, Note_on_c, 0, 56, 75
2, 24611, Note_on_c, 0, 83, 79
2, 24616, Note_on_c, 0, 57, 0
2, 24660, Note_on_c, 0, 56, 0
2, 24661, Note_on_c, 0, 84, 102
2, 24661, Note_on_c, 0, 57, 85
2, 24663, Note_on_c, 0, 83, 0
2, 24706, Note_on_c, 0, 84, 0
2, 24708, Note_on_c, 0, 56, 71
2, 24709, Note_on_c, 0, 83, 85
2, 24715, Note_on_c, 0, 57, 0
2, 24755, Note_on_c, 0, 56, 0
2, 24758, Note_on_c, 0, 84, 98
2, 24758, Note_on_c, 0, 57, 85
2, 24763, Note_on_c, 0, 83, 0
2, 24806, Note_on_c, 0, 83, 85
2, 24806, Note_on_c, 0, 55, 61
2, 24811, Note_on_c, 0, 57, 0
2, 24816, Note_on_c, 0, 84, 0
2, 24851, Note_on_c, 0, 54, 60
2, 24853, Note_on_c, 0, 81, 79
2, 24856, Note_on_c, 0, 55, 0
2, 24863, Note_on_c, 0, 83, 0
2, 24893, Note_on_c, 0, 81, 0
2, 24895, Note_on_c, 0, 54, 0
2, 24899, Note_on_c, 0, 52, 79
2, 24901, Note_on_c, 0, 79, 75
2, 24947, Note_on_c, 0, 79, 0
2, 24947, Note_on_c, 0, 52, 0
2, 24952, Note_on_c, 0, 50, 94
2, 24953, Note_on_c, 0, 78, 80
2, 25000, Note_on_c, 0, 76, 79
2, 25004, Note_on_c, 0, 78, 0
2, 25049, Note_on_c, 0, 74, 82
2, 25058, Note_on_c, 0, 76, 0
2, 25093, Note_on_c, 0, 74, 0
2, 25094, Note_on_c, 0, 72, 70
2, 25137, Note_on_c, 0, 72, 0
2, 25143, Note_on_c, 0, 60, 88
2, 25144, Note_on_c, 0, 71, 79
2, 25146, Note_on_c, 0, 72, 36
2, 25150, Note_on_c, 0, 72, 0
2, 25191, Note_on_c, 0, 69, 75
2, 25199, Note_on_c, 0, 71, 0
2, 25238, Note_on_c, 0, 69, 0
2, 25239, Note_on_c, 0, 67, 85
2, 25248, Control_c, 0, 64, 127
2, 25278, Note_on_c, 0, 60, 0
2, 25286, Note_on_c, 0, 67, 0
2, 25286, Note_on_c, 0, 66, 88
2, 25287, Note_on_c, 0, 50, 0
2, 25305, Note_on_c, 0, 66, 0
2, 25336, Note_on_c, 0, 67, 88
2, 25337, Control_c, 0, 64, 0
2, 25338, Note_on_c, 0, 62, 102
2, 25338, Note_on_c, 0, 59, 102
2, 25339, Note_on_c, 0, 55, 94
2, 25340, Note_on_c, 0, 43, 94
2, 25397, Control_c, 0, 64, 127
2, 25441, Note_on_c, 0, 62, 0
2, 25442, Note_on_c, 0, 59, 0
2, 25445, Note_on_c, 0, 43, 0
2, 25446, Note_on_c, 0, 67, 0
2, 25447, Note_on_c, 0, 55, 0
2, 25472, Control_c, 0, 64, 0
2, 25531, Note_on_c, 0, 62, 54
2, 25559, Note_on_c, 0, 62, 0
2, 25563, Note_on_c, 0, 67, 52
2, 25593, Note_on_c, 0, 71, 49
2, 25596, Note_on_c, 0, 67, 0
2, 25622, Note_on_c, 0, 71, 0
2, 25625, Note_on_c, 0, 74, 49
2, 25653, Note_on_c, 0, 72, 33
2, 25655, Note_on_c, 0, 74, 0
2, 25687, Note_on_c, 0, 69, 35
2, 25692, Note_on_c, 0, 72, 0
2, 25722, Note_on_c, 0, 69, 0
2, 25722, Note_on_c, 0, 67, 32
2, 25789, Note_on_c, 0, 67, 0
2, 25823, Note_on_c, 0, 67, 40
2, 25824, Note_on_c, 0, 59, 22
2, 25911, Note_on_c, 0, 59, 0
2, 25911, Note_on_c, 0, 66, 50
2, 25913, Note_on_c, 0, 57, 25
2, 25918, Note_on_c, 0, 67, 0
2, 26001, Note_on_c, 0, 66, 0
2, 26002, Note_on_c, 0, 57, 0
2, 26003, Note_on_c, 0, 55, 56
2, 26005, Note_on_c, 0, 67, 54
2, 26103, Note_on_c, 0, 69, 54
2, 26103, Note_on_c, 0, 54, 23
2, 26104, Note_on_c, 0, 67, 0
2, 26105, Note_on_c, 0, 55, 0
2, 26200, Note_on_c, 0, 50, 49
2, 26205, Note_on_c, 0, 54, 0
2, 26206, Note_on_c, 0, 69, 0
2, 26247, Note_on_c, 0, 69, 32
2, 26295, Note_on_c, 0, 69, 0
2, 26295, Note_on_c, 0, 71, 61
2, 26296, Note_on_c, 0, 55, 44
2, 26302, Note_on_c, 0, 50, 0
2, 26384, Note_on_c, 0, 71, 0
2, 26388, Note_on_c, 0, 53, 54
2, 26392, Note_on_c, 0, 55, 0
2, 26436, Note_on_c, 0, 71, 52
2, 26490, Note_on_c, 0, 71, 0
2, 26490, Note_on_c, 0, 53, 0
2, 26490, Note_on_c, 0, 74, 82
2, 26491, Note_on_c, 0, 52, 70
2, 26576, Note_on_c, 0, 72, 59
2, 26577, Note_on_c, 0, 54, 50
2, 26579, Note_on_c, 0, 74, 0
2, 26595, Note_on_c, 0, 74, 70
2, 26596, Note_on_c, 0, 52, 0
2, 26596, Note_on_c, 0, 72, 0
2, 26608, Note_on_c, 0, 72, 61
2, 26615, Note_on_c, 0, 74, 0
2, 26625, Note_on_c, 0, 71, 72
2, 26627, Note_on_c, 0, 72, 0
2, 26656, Note_on_c, 0, 72, 70
2, 26657, Note_on_c, 0, 71, 0
2, 26682, Note_on_c, 0, 54, 0
2, 26684, Note_on_c, 0, 72, 0
2, 26685, Note_on_c, 0, 71, 98
2, 26685, Note_on_c, 0, 55, 85
2, 26700, Note_on_c, 0, 55, 0
2, 26732, Note_on_c, 0, 55, 67
2, 26778, Note_on_c, 0, 59, 82
2, 26783, Note_on_c, 0, 55, 0
2, 26827, Note_on_c, 0, 59, 0
2, 26828, Note_on_c, 0, 62, 82
2, 26872, Note_on_c, 0, 71, 0
2, 26878, Note_on_c, 0, 62, 0
2, 26878, Note_on_c, 0, 79, 98
2, 26879, Note_on_c, 0, 71, 88
2, 26879, Note_on_c, 0, 67, 82
2, 26880, Note_on_c, 0, 55, 88
2, 26880, Note_on_c, 0, 74, 98
2, 26954, Control_c, 0, 64, 127
2, 26969, Note_on_c, 0, 71, 0
2, 26972, Note_on_c, 0, 79, 0
2, 26973, Note_on_c, 0, 74, 0
2, 26987, Note_on_c, 0, 67, 0
2, 26990, Note_on_c, 0, 55, 0
2, 27049, Control_c, 0, 64, 0
2, 27060, Note_on_c, 0, 74, 70
2, 27092, Note_on_c, 0, 79, 72
2, 27099, Note_on_c, 0, 74, 0
2, 27117, Note_on_c, 0, 79, 0
2, 27121, Note_on_c, 0, 83, 70
2, 27139, Note_on_c, 0, 83, 0
2, 27152, Note_on_c, 0, 86, 75
2, 27181, Note_on_c, 0, 84, 72
2, 27189, Note_on_c, 0, 86, 0
2, 27216, Note_on_c, 0, 81, 79
2, 27221, Note_on_c, 0, 84, 0
2, 27260, Note_on_c, 0, 79, 79
2, 27264, Note_on_c, 0, 81, 0
2, 27307, Note_on_c, 0, 74, 72
2, 27317, Note_on_c, 0, 79, 0
2, 27359, Note_on_c, 0, 79, 85
2, 27359, Note_on_c, 0, 71, 64
2, 27362, Note_on_c, 0, 74, 0
2, 27407, Note_on_c, 0, 74, 61
2, 27410, Note_on_c, 0, 71, 0
2, 27456, Note_on_c, 0, 69, 56
2, 27456, Note_on_c, 0, 78, 68
2, 27460, Note_on_c, 0, 74, 0
2, 27464, Note_on_c, 0, 79, 0
2, 27498, Note_on_c, 0, 74, 49
2, 27503, Note_on_c, 0, 69, 0
2, 27548, Note_on_c, 0, 78, 0
2, 27548, Note_on_c, 0, 79, 75
2, 27549, Note_on_c, 0, 67, 42
2, 27553, Note_on_c, 0, 74, 0
2, 27585, Note_on_c, 0, 67, 0
2, 27591, Note_on_c, 0, 74, 52
2, 27643, Note_on_c, 0, 79, 0
2, 27643, Note_on_c, 0, 66, 47
2, 27643, Note_on_c, 0, 81, 79
2, 27651, Note_on_c, 0, 74, 0
2, 27688, Note_on_c, 0, 66, 0
2, 27689, Note_on_c, 0, 74, 52
2, 27737, Note_on_c, 0, 62, 67
2, 27740, Note_on_c, 0, 74, 0
2, 27747, Note_on_c, 0, 81, 0
2, 27784, Note_on_c, 0, 74, 52
2, 27785, Note_on_c, 0, 62, 0
2, 27786, Note_on_c, 0, 81, 72
2, 27828, Note_on_c, 0, 81, 0
2, 27834, Note_on_c, 0, 67, 67
2, 27834, Note_on_c, 0, 83, 85
2, 27840, Note_on_c, 0, 74, 0
2, 27882, Note_on_c, 0, 74, 56
2, 27883, Note_on_c, 0, 67, 0
2, 27930, Note_on_c, 0, 83, 0
2, 27930, Note_on_c, 0, 65, 67
2, 27976, Note_on_c, 0, 74, 0
2, 27977, Note_on_c, 0, 83, 82
2, 28023, Note_on_c, 0, 83, 0
2, 28025, Note_on_c, 0, 65, 0
2, 28025, Note_on_c, 0, 64, 67
2, 28026, Note_on_c, 0, 84, 85
2, 28069, Note_on_c, 0, 84, 0
2, 28072, Note_on_c, 0, 79, 47
2, 28115, Note_on_c, 0, 79, 0
2, 28119, Note_on_c, 0, 81, 72
2, 28120, Note_on_c, 0, 65, 61
2, 28121, Note_on_c, 0, 64, 0
2, 28170, Note_on_c, 0, 81, 0
2, 28171, Note_on_c, 0, 77, 67
2, 28213, Note_on_c, 0, 77, 0
2, 28217, Note_on_c, 0, 65, 0
2, 28217, Note_on_c, 0, 67, 35
2, 28218, Note_on_c, 0, 76, 79
2, 28269, Note_on_c, 0, 79, 67
2, 28273, Note_on_c, 0, 76, 0
2, 28314, Note_on_c, 0, 77, 70
2, 28315, Note_on_c, 0, 55, 70
2, 28316, Note_on_c, 0, 67, 0
2, 28323, Note_on_c, 0, 79, 0
2, 28359, Note_on_c, 0, 74, 70
2, 28365, Note_on_c, 0, 77, 0
2, 28375, Note_on_c, 0, 74, 0
2, 28378, Control_c, 0, 64, 127
2, 28388, Note_on_c, 0, 72, 70
2, 28414, Note_on_c, 0, 72, 0
2, 28414, Note_on_c, 0, 79, 79
2, 28417, Note_on_c, 0, 60, 82
2, 28418, Note_on_c, 0, 55, 0
2, 28422, Control_c, 0, 64, 0
2, 28449, Note_on_c, 0, 77, 70
2, 28460, Note_on_c, 0, 79, 0
2, 28481, Note_on_c, 0, 76, 75
2, 28489, Note_on_c, 0, 77, 0
2, 28513, Note_on_c, 0, 74, 82
2, 28521, Note_on_c, 0, 76, 0
2, 28528, Note_on_c, 0, 60, 0
2, 28545, Note_on_c, 0, 72, 72
2, 28547, Note_on_c, 0, 74, 0
2, 28577, Note_on_c, 0, 71, 70
2, 28586, Note_on_c, 0, 72, 0
2, 28610, Note_on_c, 0, 69, 75
2, 28620, Note_on_c, 0, 71, 0
2, 28644, Note_on_c, 0, 69, 0
2, 28644, Note_on_c, 0, 67, 79
2, 28673, Note_on_c, 0, 65, 70
2, 28681, Note_on_c, 0, 67, 0
2, 28704, Note_on_c, 0, 65, 0
2, 28705, Note_on_c, 0, 64, 82
2, 28738, Note_on_c, 0, 62, 79
2, 28745, Note_on_c, 0, 64, 0
2, 28767, Note_on_c, 0, 62, 0
2, 28767, Note_on_c, 0, 60, 79
2, 28797, Note_on_c, 0, 60, 0
2, 28801, Note_on_c, 0, 59, 85
2, 28801, Note_on_c, 0, 50, 72
2, 28804, Note_on_c, 0, 60, 49
2, 28808, Note_on_c, 0, 60, 0
2, 28837, Note_on_c, 0, 53, 64
2, 28840, Control_c, 0, 64, 127
2, 28848, Note_on_c, 0, 50, 0
2, 28850, Note_on_c, 0, 59, 0
2, 28851, Control_c, 0, 64, 0
2, 28865, Note_on_c, 0, 55, 67
2, 28869, Note_on_c, 0, 53, 0
2, 28896, Note_on_c, 0, 59, 85
2, 28897, Note_on_c, 0, 50, 64
2, 28907, Note_on_c, 0, 55, 0
2, 28932, Note_on_c, 0, 53, 61
2, 28945, Note_on_c, 0, 50, 0
2, 28947, Note_on_c, 0, 59, 0
2, 28960, Note_on_c, 0, 55, 67
2, 28966, Note_on_c, 0, 53, 0
2, 28992, Note_on_c, 0, 55, 0
2, 28993, Note_on_c, 0, 59, 85
2, 28994, Note_on_c, 0, 50, 75
2, 29027, Note_on_c, 0, 53, 61
2, 29042, Note_on_c, 0, 50, 0
2, 29046, Note_on_c, 0, 59, 0
2, 29056, Note_on_c, 0, 55, 61
2, 29061, Note_on_c, 0, 53, 0
2, 29091, Note_on_c, 0, 50, 75
2, 29092, Note_on_c, 0, 55, 0
2, 29092, Note_on_c, 0, 59, 85
2, 29124, Note_on_c, 0, 53, 61
2, 29134, Note_on_c, 0, 59, 0
2, 29134, Note_on_c, 0, 50, 0
2, 29154, Note_on_c, 0, 55, 72
2, 29155, Note_on_c, 0, 53, 0
2, 29186, Note_on_c, 0, 55, 0
2, 29190, Note_on_c, 0, 48, 72
2, 29191, Note_on_c, 0, 60, 85
2, 29191, Note_on_c, 0, 52, 70
2, 29225, Note_on_c, 0, 62, 82
2, 29231, Note_on_c, 0, 60, 0
2, 29257, Note_on_c, 0, 64, 82
2, 29265, Note_on_c, 0, 48, 0
2, 29265, Note_on_c, 0, 62, 0
2, 29271, Note_on_c, 0, 52, 0
2, 29287, Note_on_c, 0, 64, 0
2, 29289, Note_on_c, 0, 65, 75
2, 29320, Note_on_c, 0, 65, 0
2, 29321, Note_on_c, 0, 67, 82
2, 29351, Note_on_c, 0, 69, 72
2, 29358, Note_on_c, 0, 67, 0
2, 29384, Note_on_c, 0, 71, 79
2, 29391, Note_on_c, 0, 69, 0
2, 29411, Note_on_c, 0, 71, 0
2, 29414, Note_on_c, 0, 72, 75
2, 29438, Note_on_c, 0, 72, 0
2, 29444, Note_on_c, 0, 74, 82
2, 29476, Note_on_c, 0, 76, 82
2, 29482, Note_on_c, 0, 74, 0
2, 29509, Note_on_c, 0, 77, 82
2, 29516, Note_on_c, 0, 76, 0
2, 29533, Note_on_c, 0, 77, 0
2, 29536, Note_on_c, 0, 79, 72
2, 29564, Note_on_c, 0, 79, 0
2, 29570, Note_on_c, 0, 77, 82
2, 29570, Note_on_c, 0, 47, 75
2, 29602, Note_on_c, 0, 50, 59
2, 29612, Note_on_c, 0, 47, 0
2, 29635, Note_on_c, 0, 55, 54
2, 29637, Note_on_c, 0, 77, 0
2, 29639, Note_on_c, 0, 50, 0
2, 29668, Note_on_c, 0, 47, 59
2, 29669, Note_on_c, 0, 55, 0
2, 29669, Note_on_c, 0, 77, 79
2, 29699, Note_on_c, 0, 50, 56
2, 29708, Note_on_c, 0, 47, 0
2, 29720, Note_on_c, 0, 77, 0
2, 29731, Note_on_c, 0, 55, 44
2, 29738, Note_on_c, 0, 50, 0
2, 29763, Note_on_c, 0, 77, 75
2, 29764, Note_on_c, 0, 55, 0
2, 29764, Note_on_c, 0, 47, 59
2, 29794, Note_on_c, 0, 50, 61
2, 29802, Note_on_c, 0, 47, 0
2, 29814, Note_on_c, 0, 77, 0
2, 29829, Note_on_c, 0, 55, 11
2, 29837, Note_on_c, 0, 50, 0
2, 29858, Note_on_c, 0, 47, 70
2, 29861, Note_on_c, 0, 77, 72
2, 29865, Note_on_c, 0, 55, 0
2, 29888, Note_on_c, 0, 77, 0
2, 29893, Note_on_c, 0, 50, 54
2, 29898, Note_on_c, 0, 47, 0
2, 29923, Note_on_c, 0, 50, 0
2, 29925, Note_on_c, 0, 55, 49
2, 29952, Note_on_c, 0, 55, 0
2, 29954, Note_on_c, 0, 48, 64
2, 29957, Note_on_c, 0, 76, 85
2, 29987, Note_on_c, 0, 74, 79
2, 29996, Note_on_c, 0, 76, 0
2, 30016, Note_on_c, 0, 74, 0
2, 30016, Note_on_c, 0, 72, 49
2, 30033, Note_on_c, 0, 48, 0
2, 30042, Note_on_c, 0, 72, 0
2, 30047, Note_on_c, 0, 71, 72
2, 30077, Note_on_c, 0, 69, 52
2, 30083, Note_on_c, 0, 71, 0
2, 30110, Note_on_c, 0, 69, 0
2, 30110, Note_on_c, 0, 67, 52
2, 30135, Note_on_c, 0, 67, 0
2, 30139, Note_on_c, 0, 65, 49
2, 30170, Note_on_c, 0, 65, 0
2, 30173, Note_on_c, 0, 64, 67
2, 30204, Note_on_c, 0, 62, 70
2, 30210, Note_on_c, 0, 64, 0
2, 30236, Note_on_c, 0, 62, 0
2, 30236, Note_on_c, 0, 60, 59
2, 30266, Note_on_c, 0, 60, 0
2, 30266, Note_on_c, 0, 59, 47
2, 30299, Note_on_c, 0, 59, 0
2, 30300, Note_on_c, 0, 57, 70
2, 30330, Note_on_c, 0, 57, 0
2, 30332, Note_on_c, 0, 56, 71
2, 30333, Note_on_c, 0, 47, 59
2, 30359, Control_c, 0, 64, 127
2, 30365, Note_on_c, 0, 50, 64
2, 30370, Note_on_c, 0, 56, 0
2, 30380, Note_on_c, 0, 47, 0
2, 30385, Control_c, 0, 64, 0
2, 30395, Note_on_c, 0, 52, 52
2, 30398, Note_on_c, 0, 50, 0
2, 30428, Note_on_c, 0, 56, 80
2, 30429, Note_on_c, 0, 47, 59
2, 30433, Note_on_c, 0, 52, 0
2, 30458, Note_on_c, 0, 50, 52
2, 30460, Control_c, 0, 64, 127
2, 30468, Note_on_c, 0, 56, 0
2, 30472, Note_on_c, 0, 47, 0
2, 30486, Control_c, 0, 64, 0
2, 30489, Note_on_c, 0, 52, 70
2, 30492, Note_on_c, 0, 50, 0
2, 30523, Note_on_c, 0, 56, 80
2, 30523, Note_on_c, 0, 47, 64
2, 30524, Note_on_c, 0, 52, 0
2, 30559, Note_on_c, 0, 50, 61
2, 30564, Note_on_c, 0, 56, 0
2, 30572, Note_on_c, 0, 47, 0
2, 30588, Note_on_c, 0, 52, 56
2, 30591, Note_on_c, 0, 50, 0
2, 30620, Note_on_c, 0, 56, 85
2, 30621, Note_on_c, 0, 52, 0
2, 30621, Note_on_c, 0, 47, 70
2, 30652, Note_on_c, 0, 56, 0
2, 30653, Note_on_c, 0, 50, 67
2, 30662, Note_on_c, 0, 47, 0
2, 30686, Note_on_c, 0, 50, 0
2, 30686, Note_on_c, 0, 52, 75
2, 30710, Note_on_c, 0, 52, 0
2, 30717, Note_on_c, 0, 57, 85
2, 30718, Note_on_c, 0, 48, 79
2, 30737, Note_on_c, 0, 57, 0
2, 30741, Control_c, 0, 64, 127
2, 30751, Note_on_c, 0, 52, 70
2, 30752, Note_on_c, 0, 48, 0
2, 30768, Control_c, 0, 64, 0
2, 30779, Note_on_c, 0, 57, 49
2, 30787, Note_on_c, 0, 52, 0
2, 30809, Note_on_c, 0, 57, 0
2, 30814, Note_on_c, 0, 69, 94
2, 30814, Note_on_c, 0, 48, 72
2, 30846, Note_on_c, 0, 52, 70
2, 30854, Note_on_c, 0, 48, 0
2, 30875, Note_on_c, 0, 57, 59
2, 30877, Note_on_c, 0, 52, 0
2, 30907, Note_on_c, 0, 49, 75
2, 30909, Note_on_c, 0, 57, 0
2, 30938, Note_on_c, 0, 52, 72
2, 30940, Note_on_c, 0, 49, 0
2, 30969, Note_on_c, 0, 57, 64
2, 30974, Note_on_c, 0, 52, 0
2, 30999, Note_on_c, 0, 57, 0
2, 31002, Note_on_c, 0, 69, 0
2, 31004, Note_on_c, 0, 49, 75
2, 31006, Note_on_c, 0, 67, 85
2, 31039, Note_on_c, 0, 52, 59
2, 31041, Note_on_c, 0, 49, 0
2, 31068, Note_on_c, 0, 57, 49
2, 31072, Note_on_c, 0, 52, 0
2, 31102, Note_on_c, 0, 67, 0
2, 31103, Note_on_c, 0, 50, 67
2, 31104, Note_on_c, 0, 57, 0
2, 31105, Note_on_c, 0, 66, 75
2, 31122, Control_c, 0, 64, 127
2, 31125, Note_on_c, 0, 66, 0
2, 31134, Note_on_c, 0, 54, 40
2, 31147, Note_on_c, 0, 50, 0
2, 31156, Control_c, 0, 64, 0
2, 31166, Note_on_c, 0, 57, 49
2, 31169, Note_on_c, 0, 54, 0
2, 31201, Note_on_c, 0, 57, 0
2, 31201, Note_on_c, 0, 50, 67
2, 31202, Note_on_c, 0, 81, 70
2, 31228, Note_on_c, 0, 81, 0
2, 31229, Note_on_c, 0, 54, 35
2, 31230, Note_on_c, 0, 78, 56
2, 31240, Note_on_c, 0, 50, 0
2, 31257, Note_on_c, 0, 78, 0
2, 31259, Note_on_c, 0, 57, 35
2, 31262, Note_on_c, 0, 74, 64
2, 31265, Note_on_c, 0, 54, 0
2, 31282, Note_on_c, 0, 57, 0
2, 31288, Note_on_c, 0, 74, 0
2, 31295, Note_on_c, 0, 72, 98
2, 31295, Note_on_c, 0, 50, 85
2, 31298, Note_on_c, 0, 74, 61
2, 31302, Note_on_c, 0, 74, 0
2, 31310, Control_c, 0, 64, 127
2, 31323, Note_on_c, 0, 54, 35
2, 31325, Note_on_c, 0, 72, 0
2, 31331, Note_on_c, 0, 50, 0
2, 31358, Note_on_c, 0, 57, 26
2, 31360, Note_on_c, 0, 54, 0
2, 31383, Control_c, 0, 64, 0
2, 31391, Note_on_c, 0, 57, 0
2, 31394, Note_on_c, 0, 81, 67
2, 31395, Note_on_c, 0, 50, 12
2, 31420, Note_on_c, 0, 54, 22
2, 31423, Note_on_c, 0, 78, 47
2, 31426, Note_on_c, 0, 81, 0
2, 31433, Note_on_c, 0, 50, 0
2, 31440, Control_c, 0, 64, 127
2, 31451, Note_on_c, 0, 78, 0
2, 31454, Note_on_c, 0, 57, 29
2, 31455, Note_on_c, 0, 72, 59
2, 31469, Note_on_c, 0, 54, 0
2, 31480, Note_on_c, 0, 72, 0
2, 31483, Control_c, 0, 64, 0
2, 31486, Note_on_c, 0, 57, 0
2, 31487, Note_on_c, 0, 71, 98
2, 31487, Note_on_c, 0, 50, 82
2, 31517, Note_on_c, 0, 55, 47
2, 31531, Note_on_c, 0, 50, 0
2, 31533, Control_c, 0, 64, 127
2, 31546, Note_on_c, 0, 55, 0
2, 31550, Note_on_c, 0, 59, 35
2, 31555, Note_on_c, 0, 71, 0
2, 31581, Control_c, 0, 64, 0
2, 31583, Note_on_c, 0, 59, 0
2, 31583, Note_on_c, 0, 50, 56
2, 31586, Note_on_c, 0, 79, 40
2, 31614, Note_on_c, 0, 79, 0
2, 31615, Note_on_c, 0, 55, 44
2, 31617, Note_on_c, 0, 74, 61
2, 31635, Note_on_c, 0, 50, 0
2, 31643, Note_on_c, 0, 74, 0
2, 31644, Note_on_c, 0, 71, 47
2, 31646, Note_on_c, 0, 59, 40
2, 31651, Note_on_c, 0, 55, 0
2, 31677, Note_on_c, 0, 59, 0
2, 31677, Note_on_c, 0, 71, 0
2, 31678, Note_on_c, 0, 50, 75
2, 31678, Note_on_c, 0, 67, 88
2, 31701, Control_c, 0, 64, 127
2, 31712, Note_on_c, 0, 55, 36
2, 31724, Note_on_c, 0, 50, 0
2, 31743, Note_on_c, 0, 59, 47
2, 31750, Note_on_c, 0, 55, 0
2, 31773, Note_on_c, 0, 67, 0
2, 31774, Note_on_c, 0, 74, 75
2, 31774, Note_on_c, 0, 50, 75
2, 31776, Note_on_c, 0, 59, 0
2, 31803, Note_on_c, 0, 74, 0
2, 31803, Note_on_c, 0, 55, 52
2, 31806, Control_c, 0, 64, 0
2, 31806, Note_on_c, 0, 71, 64
2, 31811, Note_on_c, 0, 50, 0
2, 31828, Note_on_c, 0, 71, 0
2, 31833, Note_on_c, 0, 59, 54
2, 31834, Note_on_c, 0, 67, 59
2, 31844, Note_on_c, 0, 55, 0
2, 31861, Note_on_c, 0, 67, 0
2, 31867, Note_on_c, 0, 59, 0
2, 31867, Note_on_c, 0, 66, 80
2, 31868, Note_on_c, 0, 50, 82
2, 31883, Control_c, 0, 64, 127
2, 31886, Note_on_c, 0, 66, 0
2, 31893, Note_on_c, 0, 54, 33
2, 31910, Note_on_c, 0, 50, 0
2, 31929, Note_on_c, 0, 57, 36
2, 31933, Note_on_c, 0, 54, 0
2, 31952, Control_c, 0, 64, 0
2, 31962, Note_on_c, 0, 50, 64
2, 31963, Note_on_c, 0, 57, 0
2, 31964, Note_on_c, 0, 81, 79
2, 31992, Note_on_c, 0, 81, 0
2, 31992, Note_on_c, 0, 54, 29
2, 31993, Note_on_c, 0, 78, 53
2, 32020, Note_on_c, 0, 78, 0
2, 32025, Note_on_c, 0, 57, 27
2, 32025, Note_on_c, 0, 74, 47
2, 32026, Note_on_c, 0, 50, 0
2, 32032, Note_on_c, 0, 54, 0
2, 32047, Note_on_c, 0, 74, 0
2, 32057, Note_on_c, 0, 50, 64
2, 32058, Note_on_c, 0, 57, 0
2, 32058, Note_on_c, 0, 72, 88
2, 32071, Control_c, 0, 64, 127
2, 32082, Note_on_c, 0, 72, 0
2, 32088, Note_on_c, 0, 54, 23
2, 32108, Note_on_c, 0, 50, 0
2, 32126, Note_on_c, 0, 57, 1
2, 32128, Note_on_c, 0, 54, 0
2, 32152, Note_on_c, 0, 50, 49
2, 32161, Note_on_c, 0, 57, 0
2, 32161, Note_on_c, 0, 81, 59
2, 32181, Note_on_c, 0, 81, 0
2, 32186, Note_on_c, 0, 78, 50
2, 32186, Note_on_c, 0, 54, 22
2, 32193, Note_on_c, 0, 50, 0
2, 32210, Note_on_c, 0, 78, 0
2, 32218, Note_on_c, 0, 72, 52
2, 32219, Note_on_c, 0, 57, 23
2, 32231, Note_on_c, 0, 54, 0
2, 32242, Note_on_c, 0, 72, 0
2, 32247, Note_on_c, 0, 57, 0
2, 32247, Control_c, 0, 64, 0
2, 32251, Note_on_c, 0, 50, 75
2, 32252, Note_on_c, 0, 71, 98
2, 32282, Control_c, 0, 64, 127
2, 32282, Note_on_c, 0, 55, 47
2, 32300, Note_on_c, 0, 50, 0
2, 32314, Note_on_c, 0, 71, 0
2, 32316, Note_on_c, 0, 59, 35
2, 32318, Note_on_c, 0, 55, 0
2, 32348, Note_on_c, 0, 59, 0
2, 32349, Note_on_c, 0, 79, 56
2, 32351, Note_on_c, 0, 50, 49
2, 32366, Control_c, 0, 64, 0
2, 32380, Note_on_c, 0, 79, 0
2, 32381, Note_on_c, 0, 74, 54
2, 32382, Note_on_c, 0, 55, 32
2, 32395, Note_on_c, 0, 50, 0
2, 32406, Note_on_c, 0, 74, 0
2, 32410, Note_on_c, 0, 71, 59
2, 32412, Note_on_c, 0, 59, 44
2, 32435, Note_on_c, 0, 55, 0
2, 32444, Note_on_c, 0, 50, 79
2, 32445, Note_on_c, 0, 71, 0
2, 32445, Note_on_c, 0, 67, 85
2, 32446, Note_on_c, 0, 59, 0
2, 32476, Control_c, 0, 64, 127
2, 32476, Note_on_c, 0, 55, 38
2, 32491, Note_on_c, 0, 50, 0
2, 32507, Note_on_c, 0, 59, 32
2, 32513, Note_on_c, 0, 55, 0
2, 32526, Note_on_c, 0, 67, 0
2, 32538, Note_on_c, 0, 59, 0
2, 32539, Note_on_c, 0, 50, 59
2, 32541, Note_on_c, 0, 74, 54
2, 32555, Control_c, 0, 64, 0
2, 32565, Note_on_c, 0, 74, 0
2, 32568, Note_on_c, 0, 71, 52
2, 32569, Note_on_c, 0, 55, 32
2, 32590, Control_c, 0, 64, 127
2, 32591, Note_on_c, 0, 50, 0
2, 32596, Note_on_c, 0, 71, 0
2, 32601, Note_on_c, 0, 67, 56
2, 32602, Note_on_c, 0, 59, 30
2, 32609, Note_on_c, 0, 55, 0
2, 32620, Note_on_c, 0, 67, 0
2, 32628, Control_c, 0, 64, 0
2, 32633, Note_on_c, 0, 59, 0
2, 32635, Note_on_c, 0, 62, 82
2, 32635, Note_on_c, 0, 50, 61
2, 32659, Note_on_c, 0, 62, 0
2, 32659, Control_c, 0, 64, 127
2, 32665, Note_on_c, 0, 54, 40
2, 32684, Note_on_c, 0, 50, 0
2, 32703, Note_on_c, 0, 57, 47
2, 32709, Note_on_c, 0, 54, 0
2, 32731, Control_c, 0, 64, 0
2, 32736, Note_on_c, 0, 74, 75
2, 32737, Note_on_c, 0, 57, 0
2, 32737, Note_on_c, 0, 50, 67
2, 32765, Note_on_c, 0, 74, 0
2, 32765, Note_on_c, 0, 55, 56
2, 32766, Note_on_c, 0, 71, 61
2, 32770, Control_c, 0, 64, 127
2, 32778, Note_on_c, 0, 50, 0
2, 32792, Note_on_c, 0, 71, 0
2, 32797, Note_on_c, 0, 55, 0
2, 32798, Note_on_c, 0, 67, 56
2, 32799, Note_on_c, 0, 59, 42
2, 32823, Note_on_c, 0, 67, 0
2, 32825, Control_c, 0, 64, 0
2, 32831, Note_on_c, 0, 50, 64
2, 32832, Note_on_c, 0, 62, 85
2, 32834, Note_on_c, 0, 59, 0
2, 32858, Note_on_c, 0, 62, 0
2, 32858, Control_c, 0, 64, 127
2, 32861, Note_on_c, 0, 54, 33
2, 32876, Note_on_c, 0, 50, 0
2, 32898, Note_on_c, 0, 57, 44
2, 32907, Note_on_c, 0, 54, 0
2, 32929, Control_c, 0, 64, 0
2, 32933, Note_on_c, 0, 74, 67
2, 32933, Note_on_c, 0, 50, 61
2, 32934, Note_on_c, 0, 57, 0
2, 32962, Note_on_c, 0, 74, 0
2, 32962, Note_on_c, 0, 71, 56
2, 32965, Note_on_c, 0, 55, 35
2, 32972, Control_c, 0, 64, 127
2, 32973, Note_on_c, 0, 50, 0
2, 32988, Note_on_c, 0, 71, 0
2, 32992, Note_on_c, 0, 67, 44
2, 32993, Note_on_c, 0, 59, 38
2, 32994, Note_on_c, 0, 55, 0
2, 33017, Control_c, 0, 64, 0
2, 33022, Note_on_c, 0, 67, 0
2, 33025, Note_on_c, 0, 62, 49
2, 33027, Note_on_c, 0, 54, 12
2, 33029, Note_on_c, 0, 50, 40
2, 33030, Note_on_c, 0, 59, 0
2, 33220, Note_on_c, 0, 62, 0
2, 33227, Note_on_c, 0, 54, 0
2, 33229, Note_on_c, 0, 50, 0
2, 33259, Note_on_c, 0, 62, 33
2, 33280, Note_on_c, 0, 62, 0
2, 33307, Note_on_c, 0, 62, 29
2, 33326, Note_on_c, 0, 62, 0
2, 33356, Note_on_c, 0, 62, 40
2, 33404, Note_on_c, 0, 67, 54
2, 33407, Note_on_c, 0, 59, 30
2, 33409, Note_on_c, 0, 62, 0
2, 33446, Note_on_c, 0, 62, 38
2, 33450, Note_on_c, 0, 59, 0
2, 33497, Note_on_c, 0, 62, 0
2, 33497, Note_on_c, 0, 66, 50
2, 33500, Note_on_c, 0, 60, 29
2, 33501, Note_on_c, 0, 67, 0
2, 33539, Note_on_c, 0, 60, 0
2, 33542, Note_on_c, 0, 62, 29
2, 33588, Note_on_c, 0, 62, 0
2, 33590, Note_on_c, 0, 66, 0
2, 33591, Note_on_c, 0, 67, 54
2, 33595, Note_on_c, 0, 59, 22
2, 33629, Note_on_c, 0, 59, 0
2, 33636, Note_on_c, 0, 62, 52
2, 33686, Note_on_c, 0, 69, 67
2, 33687, Note_on_c, 0, 54, 43
2, 33688, Note_on_c, 0, 67, 0
2, 33691, Note_on_c, 0, 62, 0
2, 33732, Note_on_c, 0, 62, 52
2, 33735, Note_on_c, 0, 54, 0
2, 33780, Note_on_c, 0, 62, 0
2, 33783, Note_on_c, 0, 72, 59
2, 33783, Note_on_c, 0, 55, 33
2, 33788, Note_on_c, 0, 69, 0
2, 33830, Note_on_c, 0, 72, 0
2, 33831, Note_on_c, 0, 55, 0
2, 33832, Note_on_c, 0, 62, 16
2, 33833, Note_on_c, 0, 71, 56
2, 33878, Note_on_c, 0, 62, 0
2, 33878, Note_on_c, 0, 54, 40
2, 33879, Note_on_c, 0, 69, 59
2, 33889, Note_on_c, 0, 71, 0
2, 33922, Note_on_c, 0, 54, 0
2, 33928, Note_on_c, 0, 62, 47
2, 33955, Note_on_c, 0, 69, 0
2, 33974, Note_on_c, 0, 62, 0
2, 33976, Note_on_c, 0, 50, 54
2, 34025, Note_on_c, 0, 62, 44
2, 34043, Note_on_c, 0, 62, 0
2, 34048, Note_on_c, 0, 50, 0
2, 34079, Note_on_c, 0, 62, 61
2, 34094, Note_on_c, 0, 62, 0
2, 34129, Note_on_c, 0, 62, 67
2, 34169, Note_on_c, 0, 62, 0
2, 34178, Note_on_c, 0, 69, 59
2, 34180, Note_on_c, 0, 60, 36
2, 34222, Note_on_c, 0, 62, 35
2, 34227, Note_on_c, 0, 60, 0
2, 34270, Note_on_c, 0, 69, 0
2, 34270, Note_on_c, 0, 67, 64
2, 34271, Note_on_c, 0, 62, 0
2, 34271, Note_on_c, 0, 59, 54
2, 34316, Note_on_c, 0, 62, 44
2, 34317, Note_on_c, 0, 59, 0
2, 34347, Note_on_c, 0, 67, 0
2, 34361, Note_on_c, 0, 69, 52
2, 34362, Note_on_c, 0, 66, 47
2, 34365, Note_on_c, 0, 62, 0
2, 34365, Note_on_c, 0, 57, 49
2, 34412, Note_on_c, 0, 62, 36
2, 34420, Note_on_c, 0, 57, 0
2, 34446, Note_on_c, 0, 69, 0
2, 34453, Note_on_c, 0, 67, 56
2, 34455, Note_on_c, 0, 66, 0
2, 34455, Note_on_c, 0, 71, 47
2, 34458, Note_on_c, 0, 55, 64
2, 34460, Note_on_c, 0, 62, 0
2, 34500, Note_on_c, 0, 67, 0
2, 34504, Note_on_c, 0, 71, 0
2, 34504, Note_on_c, 0, 55, 0
2, 34505, Control_c, 0, 64, 127
2, 34505, Note_on_c, 0, 62, 54
2, 34549, Note_on_c, 0, 54, 13
2, 34549, Note_on_c, 0, 74, 59
2, 34550, Note_on_c, 0, 62, 0
2, 34550, Note_on_c, 0, 69, 52
2, 34556, Control_c, 0, 64, 0
2, 34587, Note_on_c, 0, 74, 0
2, 34596, Note_on_c, 0, 72, 47
2, 34599, Note_on_c, 0, 54, 0
2, 34599, Note_on_c, 0, 62, 26
2, 34604, Note_on_c, 0, 69, 0
2, 34642, Note_on_c, 0, 72, 0
2, 34644, Note_on_c, 0, 62, 0
2, 34644, Note_on_c, 0, 55, 29
2, 34644, Note_on_c, 0, 71, 64
2, 34645, Note_on_c, 0, 67, 40
2, 34688, Note_on_c, 0, 55, 0
2, 34695, Note_on_c, 0, 62, 38
2, 34747, Note_on_c, 0, 55, 67
2, 34750, Note_on_c, 0, 62, 0
2, 34784, Note_on_c, 0, 67, 0
2, 34791, Note_on_c, 0, 71, 0
2, 34794, Note_on_c, 0, 74, 59
2, 34808, Note_on_c, 0, 55, 0
2, 34829, Note_on_c, 0, 74, 0
2, 34839, Note_on_c, 0, 72, 47
2, 34878, Note_on_c, 0, 72, 0
2, 34885, Note_on_c, 0, 71, 67
2, 34899, Note_on_c, 0, 71, 0
2, 34936, Note_on_c, 0, 64, 52
2, 34937, Note_on_c, 0, 71, 67
2, 34937, Note_on_c, 0, 60, 52
2, 34987, Note_on_c, 0, 69, 70
2, 34988, Note_on_c, 0, 71, 0
2, 34999, Note_on_c, 0, 69, 0
2, 35034, Note_on_c, 0, 69, 44
2, 35049, Note_on_c, 0, 69, 0
2, 35071, Note_on_c, 0, 64, 0
2, 35084, Note_on_c, 0, 69, 59
2, 35123, Note_on_c, 0, 69, 0
2, 35128, Note_on_c, 0, 67, 42
2, 35130, Note_on_c, 0, 62, 11
2, 35131, Note_on_c, 0, 59, 20
2, 35138, Note_on_c, 0, 60, 0
2, 35169, Note_on_c, 0, 67, 0
2, 35173, Note_on_c, 0, 74, 61
2, 35196, Note_on_c, 0, 62, 0
2, 35209, Note_on_c, 0, 74, 0
2, 35221, Note_on_c, 0, 72, 49
2, 35228, Note_on_c, 0, 59, 0
2, 35248, Note_on_c, 0, 72, 0
2, 35268, Note_on_c, 0, 71, 67
2, 35282, Note_on_c, 0, 71, 0
2, 35315, Note_on_c, 0, 71, 75
2, 35315, Note_on_c, 0, 64, 25
2, 35315, Note_on_c, 0, 60, 54
2, 35361, Note_on_c, 0, 71, 0
2, 35367, Note_on_c, 0, 69, 47
2, 35380, Note_on_c, 0, 69, 0
2, 35413, Note_on_c, 0, 69, 47
2, 35426, Note_on_c, 0, 69, 0
2, 35462, Note_on_c, 0, 69, 26
2, 35502, Note_on_c, 0, 60, 0
2, 35505, Note_on_c, 0, 59, 23
2, 35506, Note_on_c, 0, 69, 0
2, 35508, Note_on_c, 0, 67, 44
2, 35549, Note_on_c, 0, 67, 0
2, 35557, Note_on_c, 0, 74, 54
2, 35569, Note_on_c, 0, 64, 0
2, 35596, Note_on_c, 0, 74, 0
2, 35602, Note_on_c, 0, 72, 52
2, 35607, Note_on_c, 0, 59, 0
2, 35638, Note_on_c, 0, 72, 0
2, 35648, Note_on_c, 0, 71, 49
2, 35667, Note_on_c, 0, 71, 0
2, 35702, Note_on_c, 0, 71, 64
2, 35747, Note_on_c, 0, 71, 0
2, 35748, Note_on_c, 0, 69, 42
2, 35771, Note_on_c, 0, 69, 0
2, 35798, Note_on_c, 0, 60, 56
2, 35799, Note_on_c, 0, 64, 56
2, 35820, Note_on_c, 0, 64, 0
2, 35821, Note_on_c, 0, 60, 0
2, 35850, Note_on_c, 0, 69, 42
2, 35862, Note_on_c, 0, 69, 0
2, 35898, Note_on_c, 0, 69, 33
2, 35942, Note_on_c, 0, 69, 0
2, 35945, Note_on_c, 0, 67, 36
2, 35960, Note_on_c, 0, 67, 0
2, 35987, Note_on_c, 0, 64, 56
2, 35987, Note_on_c, 0, 61, 40
2, 36019, Note_on_c, 0, 64, 0
2, 36021, Note_on_c, 0, 61, 0
2, 36041, Note_on_c, 0, 67, 44
2, 36054, Note_on_c, 0, 67, 0
2, 36084, Note_on_c, 0, 62, 49
2, 36085, Note_on_c, 0, 66, 56
2, 36095, Note_on_c, 0, 66, 0
2, 36106, Note_on_c, 0, 62, 0
2, 36132, Note_on_c, 0, 67, 64
2, 36141, Note_on_c, 0, 67, 0
2, 36177, Note_on_c, 0, 69, 64
2, 36187, Note_on_c, 0, 69, 0
2, 36227, Note_on_c, 0, 71, 67
2, 36237, Note_on_c, 0, 71, 0
2, 36276, Note_on_c, 0, 72, 61
2, 36285, Note_on_c, 0, 72, 0
2, 36326, Note_on_c, 0, 74, 70
2, 36337, Note_on_c, 0, 74, 0
2, 36375, Note_on_c, 0, 76, 79
2, 36385, Note_on_c, 0, 76, 0
2, 36425, Note_on_c, 0, 78, 68
2, 36437, Note_on_c, 0, 78, 0
2, 36474, Note_on_c, 0, 79, 70
2, 36475, Note_on_c, 0, 71, 49
2, 36521, Note_on_c, 0, 71, 0
2, 36522, Note_on_c, 0, 74, 42
2, 36572, Note_on_c, 0, 78, 71
2, 36573, Note_on_c, 0, 74, 0
2, 36573, Note_on_c, 0, 72, 56
2, 36576, Note_on_c, 0, 79, 0
2, 36618, Note_on_c, 0, 74, 61
2, 36621, Note_on_c, 0, 72, 0
2, 36665, Note_on_c, 0, 79, 70
2, 36666, Note_on_c, 0, 78, 0
2, 36667, Note_on_c, 0, 71, 56
2, 36669, Note_on_c, 0, 74, 0
2, 36711, Note_on_c, 0, 71, 0
2, 36715, Note_on_c, 0, 74, 72
2, 36760, Note_on_c, 0, 81, 82
2, 36761, Note_on_c, 0, 66, 53
2, 36769, Note_on_c, 0, 74, 0
2, 36770, Note_on_c, 0, 79, 0
2, 36809, Note_on_c, 0, 66, 0
2, 36809, Note_on_c, 0, 74, 54
2, 36854, Note_on_c, 0, 74, 0
2, 36854, Note_on_c, 0, 84, 72
2, 36856, Note_on_c, 0, 67, 36
2, 36857, Note_on_c, 0, 81, 0
2, 36903, Note_on_c, 0, 67, 0
2, 36905, Note_on_c, 0, 74, 40
2, 36906, Note_on_c, 0, 83, 72
2, 36916, Note_on_c, 0, 84, 0
2, 36951, Note_on_c, 0, 66, 47
2, 36954, Note_on_c, 0, 81, 72
2, 36957, Note_on_c, 0, 74, 0
2, 36961, Note_on_c, 0, 83, 0
2, 37000, Note_on_c, 0, 66, 0
2, 37002, Note_on_c, 0, 74, 52
2, 37007, Note_on_c, 0, 81, 0
2, 37047, Note_on_c, 0, 74, 0
2, 37048, Note_on_c, 0, 62, 59
2, 37096, Note_on_c, 0, 74, 49
2, 37120, Note_on_c, 0, 74, 0
2, 37143, Note_on_c, 0, 74, 54
2, 37148, Note_on_c, 0, 62, 0
2, 37172, Note_on_c, 0, 74, 0
2, 37195, Note_on_c, 0, 74, 64
2, 37237, Note_on_c, 0, 74, 0
2, 37242, Note_on_c, 0, 81, 75
2, 37243, Note_on_c, 0, 72, 36
2, 37289, Note_on_c, 0, 74, 52
2, 37293, Note_on_c, 0, 72, 0
2, 37337, Note_on_c, 0, 74, 0
2, 37338, Note_on_c, 0, 79, 70
2, 37338, Note_on_c, 0, 71, 42
2, 37343, Note_on_c, 0, 81, 0
2, 37386, Note_on_c, 0, 74, 42
2, 37394, Note_on_c, 0, 71, 0
2, 37427, Note_on_c, 0, 79, 0
2, 37430, Note_on_c, 0, 81, 52
2, 37432, Note_on_c, 0, 78, 64
2, 37433, Note_on_c, 0, 74, 0
2, 37434, Note_on_c, 0, 69, 59
2, 37480, Note_on_c, 0, 69, 0
2, 37485, Note_on_c, 0, 74, 59
2, 37524, Note_on_c, 0, 81, 0
2, 37526, Note_on_c, 0, 74, 0
2, 37526, Note_on_c, 0, 83, 59
2, 37528, Note_on_c, 0, 79, 59
2, 37530, Note_on_c, 0, 67, 59
2, 37539, Note_on_c, 0, 78, 0
2, 37573, Note_on_c, 0, 67, 0
2, 37574, Note_on_c, 0, 79, 0
2, 37576, Note_on_c, 0, 74, 44
2, 37578, Note_on_c, 0, 83, 0
2, 37578, Control_c, 0, 64, 127
2, 37613, Note_on_c, 0, 74, 0
2, 37620, Note_on_c, 0, 86, 67
2, 37621, Note_on_c, 0, 66, 38
2, 37623, Note_on_c, 0, 81, 61
2, 37628, Control_c, 0, 64, 0
2, 37665, Note_on_c, 0, 66, 0
2, 37667, Note_on_c, 0, 84, 70
2, 37669, Note_on_c, 0, 74, 59
2, 37676, Note_on_c, 0, 81, 0
2, 37676, Note_on_c, 0, 86, 0
2, 37715, Note_on_c, 0, 84, 0
2, 37718, Note_on_c, 0, 83, 59
2, 37718, Note_on_c, 0, 79, 47
2, 37718, Note_on_c, 0, 67, 54
2, 37719, Note_on_c, 0, 74, 0
2, 37764, Note_on_c, 0, 67, 0
2, 37769, Note_on_c, 0, 74, 52
2, 37818, Note_on_c, 0, 67, 59
2, 37831, Note_on_c, 0, 74, 0
2, 37853, Note_on_c, 0, 83, 0
2, 37862, Note_on_c, 0, 79, 0
2, 37865, Note_on_c, 0, 86, 70
2, 37876, Note_on_c, 0, 67, 0
2, 37910, Note_on_c, 0, 86, 0
2, 37914, Note_on_c, 0, 84, 79
2, 37955, Note_on_c, 0, 84, 0
2, 37960, Note_on_c, 0, 83, 72
2, 37974, Note_on_c, 0, 83, 0
2, 38010, Note_on_c, 0, 83, 72
2, 38011, Note_on_c, 0, 72, 49
2, 38013, Note_on_c, 0, 76, 75
2, 38056, Note_on_c, 0, 81, 64
2, 38057, Note_on_c, 0, 83, 0
2, 38069, Note_on_c, 0, 81, 0
2, 38099, Note_on_c, 0, 72, 0
2, 38100, Note_on_c, 0, 76, 0
2, 38101, Note_on_c, 0, 81, 54
2, 38101, Note_on_c, 0, 78, 50
2, 38117, Note_on_c, 0, 81, 0
2, 38152, Note_on_c, 0, 81, 67
2, 38202, Note_on_c, 0, 81, 0
2, 38202, Note_on_c, 0, 79, 70
2, 38202, Note_on_c, 0, 71, 49
2, 38203, Note_on_c, 0, 74, 47
2, 38209, Note_on_c, 0, 78, 0
2, 38251, Note_on_c, 0, 86, 75
2, 38252, Note_on_c, 0, 79, 0
2, 38261, Note_on_c, 0, 71, 0
2, 38262, Note_on_c, 0, 74, 0
2, 38295, Note_on_c, 0, 86, 0
2, 38298, Note_on_c, 0, 84, 79
2, 38338, Note_on_c, 0, 84, 0
2, 38343, Note_on_c, 0, 83, 79
2, 38357, Note_on_c, 0, 83, 0
2, 38392, Note_on_c, 0, 83, 82
2, 38392, Note_on_c, 0, 72, 40
2, 38394, Note_on_c, 0, 76, 67
2, 38437, Note_on_c, 0, 81, 75
2, 38441, Note_on_c, 0, 83, 0
2, 38447, Note_on_c, 0, 81, 0
2, 38484, Note_on_c, 0, 81, 85
2, 38487, Note_on_c, 0, 78, 35
2, 38494, Note_on_c, 0, 76, 0
2, 38495, Note_on_c, 0, 81, 0
2, 38500, Note_on_c, 0, 72, 0
2, 38533, Note_on_c, 0, 81, 82
2, 38546, Note_on_c, 0, 81, 0
2, 38581, Note_on_c, 0, 79, 70
2, 38582, Note_on_c, 0, 78, 0
2, 38582, Note_on_c, 0, 74, 20
2, 38585, Note_on_c, 0, 71, 7
2, 38629, Note_on_c, 0, 86, 70
2, 38633, Note_on_c, 0, 79, 0
2, 38648, Note_on_c, 0, 74, 0
2, 38655, Note_on_c, 0, 71, 0
2, 38676, Note_on_c, 0, 84, 79
2, 38677, Note_on_c, 0, 86, 0
2, 38716, Note_on_c, 0, 84, 0
2, 38728, Note_on_c, 0, 83, 72
2, 38743, Note_on_c, 0, 83, 0
2, 38777, Note_on_c, 0, 83, 82
2, 38823, Note_on_c, 0, 81, 72
2, 38829, Note_on_c, 0, 83, 0
2, 38867, Note_on_c, 0, 84, 85
2, 38868, Note_on_c, 0, 81, 0
2, 38869, Note_on_c, 0, 72, 54
2, 38918, Note_on_c, 0, 81, 79
2, 38923, Note_on_c, 0, 84, 0
2, 38936, Note_on_c, 0, 72, 0
2, 38945, Note_on_c, 0, 81, 0
2, 38964, Note_on_c, 0, 81, 88
2, 38966, Note_on_c, 0, 74, 49
2, 39012, Note_on_c, 0, 79, 56
2, 39019, Note_on_c, 0, 81, 0
2, 39028, Note_on_c, 0, 79, 0
2, 39045, Note_on_c, 0, 74, 0
2, 39055, Note_on_c, 0, 62, 52
2, 39059, Note_on_c, 0, 79, 82
2, 39100, Note_on_c, 0, 78, 60
2, 39108, Note_on_c, 0, 79, 0
2, 39131, Note_on_c, 0, 78, 0
2, 39135, Note_on_c, 0, 79, 75
2, 39149, Note_on_c, 0, 62, 0
2, 39158, Note_on_c, 0, 79, 0
2, 39160, Note_on_c, 0, 86, 79
2, 39162, Note_on_c, 0, 67, 61
2, 39186, Note_on_c, 0, 86, 0
2, 39194, Note_on_c, 0, 84, 75
2, 39221, Note_on_c, 0, 84, 0
2, 39225, Note_on_c, 0, 83, 79
2, 39253, Note_on_c, 0, 67, 0
2, 39258, Note_on_c, 0, 81, 79
2, 39265, Note_on_c, 0, 83, 0
2, 39289, Note_on_c, 0, 81, 0
2, 39289, Note_on_c, 0, 79, 61
2, 39320, Note_on_c, 0, 78, 60
2, 39328, Note_on_c, 0, 79, 0
2, 39353, Note_on_c, 0, 76, 82
2, 39359, Note_on_c, 0, 78, 0
2, 39386, Note_on_c, 0, 74, 70
2, 39389, Note_on_c, 0, 76, 0
2, 39417, Note_on_c, 0, 72, 72
2, 39424, Note_on_c, 0, 74, 0
2, 39450, Note_on_c, 0, 71, 75
2, 39463, Note_on_c, 0, 72, 0
2, 39485, Note_on_c, 0, 69, 75
2, 39492, Note_on_c, 0, 71, 0
2, 39515, Note_on_c, 0, 69, 0
2, 39517, Note_on_c, 0, 67, 70
2, 39549, Note_on_c, 0, 66, 80
2, 39554, Note_on_c, 0, 57, 64
2, 39555, Note_on_c, 0, 67, 0
2, 39586, Note_on_c, 0, 60, 64
2, 39599, Note_on_c, 0, 57, 0
2, 39619, Note_on_c, 0, 66, 0
2, 39619, Note_on_c, 0, 62, 64
2, 39622, Note_on_c, 0, 60, 0
2, 39650, Note_on_c, 0, 66, 75
2, 39650, Note_on_c, 0, 57, 64
2, 39661, Note_on_c, 0, 62, 0
2, 39680, Note_on_c, 0, 60, 59
2, 39698, Note_on_c, 0, 57, 0
2, 39714, Note_on_c, 0, 62, 59
2, 39715, Note_on_c, 0, 60, 0
2, 39720, Note_on_c, 0, 66, 0
2, 39746, Note_on_c, 0, 66, 75
2, 39747, Note_on_c, 0, 57, 49
2, 39761, Note_on_c, 0, 62, 0
2, 39777, Note_on_c, 0, 60, 52
2, 39793, Note_on_c, 0, 66, 0
2, 39794, Note_on_c, 0, 57, 0
2, 39809, Note_on_c, 0, 62, 64
2, 39812, Note_on_c, 0, 60, 0
2, 39842, Note_on_c, 0, 62, 0
2, 39842, Note_on_c, 0, 66, 75
2, 39843, Note_on_c, 0, 57, 44
2, 39877, Note_on_c, 0, 60, 30
2, 39884, Note_on_c, 0, 66, 0
2, 39890, Note_on_c, 0, 57, 0
2, 39905, Note_on_c, 0, 62, 61
2, 39907, Note_on_c, 0, 60, 0
2, 39938, Note_on_c, 0, 55, 61
2, 39939, Note_on_c, 0, 62, 0
2, 39939, Note_on_c, 0, 67, 82
2, 39940, Note_on_c, 0, 59, 59
2, 39972, Note_on_c, 0, 69, 79
2, 39979, Note_on_c, 0, 67, 0
2, 40006, Note_on_c, 0, 71, 79
2, 40009, Note_on_c, 0, 55, 0
2, 40012, Note_on_c, 0, 69, 0
2, 40031, Note_on_c, 0, 71, 0
2, 40036, Note_on_c, 0, 72, 70
2, 40041, Note_on_c, 0, 59, 0
2, 40061, Note_on_c, 0, 72, 0
2, 40065, Note_on_c, 0, 74, 79
2, 40096, Note_on_c, 0, 76, 85
2, 40102, Note_on_c, 0, 74, 0
2, 40124, Note_on_c, 0, 76, 0
2, 40127, Note_on_c, 0, 78, 75
2, 40159, Note_on_c, 0, 79, 56
2, 40160, Note_on_c, 0, 78, 0
2, 40193, Note_on_c, 0, 81, 82
2, 40200, Note_on_c, 0, 79, 0
2, 40226, Note_on_c, 0, 83, 85
2, 40234, Note_on_c, 0, 81, 0
2, 40258, Note_on_c, 0, 84, 79
2, 40267, Note_on_c, 0, 83, 0
2, 40282, Note_on_c, 0, 84, 0
2, 40288, Note_on_c, 0, 86, 85
2, 40317, Note_on_c, 0, 86, 0
2, 40323, Note_on_c, 0, 84, 88
2, 40324, Note_on_c, 0, 54, 64
2, 40354, Note_on_c, 0, 57, 54
2, 40357, Note_on_c, 0, 54, 0
2, 40388, Note_on_c, 0, 62, 47
2, 40395, Note_on_c, 0, 57, 0
2, 40400, Note_on_c, 0, 84, 0
2, 40420, Note_on_c, 0, 62, 0
2, 40421, Note_on_c, 0, 54, 47
2, 40421, Note_on_c, 0, 84, 88
2, 40450, Note_on_c, 0, 57, 59
2, 40453, Note_on_c, 0, 54, 0
2, 40482, Note_on_c, 0, 62, 44
2, 40488, Note_on_c, 0, 57, 0
2, 40492, Note_on_c, 0, 84, 0
2, 40513, Note_on_c, 0, 62, 0
2, 40514, Note_on_c, 0, 54, 53
2, 40515, Note_on_c, 0, 84, 88
2, 40547, Note_on_c, 0, 57, 32
2, 40548, Note_on_c, 0, 54, 0
2, 40577, Note_on_c, 0, 62, 36
2, 40586, Note_on_c, 0, 57, 0
2, 40591, Note_on_c, 0, 84, 0
2, 40610, Note_on_c, 0, 54, 56
2, 40611, Note_on_c, 0, 84, 85
2, 40613, Note_on_c, 0, 62, 0
2, 40643, Note_on_c, 0, 57, 44
2, 40647, Note_on_c, 0, 84, 0
2, 40647, Note_on_c, 0, 54, 0
2, 40675, Note_on_c, 0, 62, 32
2, 40677, Note_on_c, 0, 57, 0
2, 40682, Note_on_c, 0, 83, 79
2, 40706, Note_on_c, 0, 55, 79
2, 40706, Note_on_c, 0, 59, 61
2, 40707, Note_on_c, 0, 86, 94
2, 40708, Note_on_c, 0, 83, 0
2, 40709, Note_on_c, 0, 62, 0
2, 40733, Note_on_c, 0, 86, 0
2, 40739, Note_on_c, 0, 84, 85
2, 40768, Note_on_c, 0, 84, 0
2, 40771, Note_on_c, 0, 83, 79
2, 40781, Note_on_c, 0, 55, 0
2, 40805, Note_on_c, 0, 59, 0
2, 40805, Note_on_c, 0, 81, 75
2, 40810, Note_on_c, 0, 83, 0
2, 40832, Note_on_c, 0, 81, 0
2, 40835, Note_on_c, 0, 79, 75
2, 40866, Note_on_c, 0, 78, 64
2, 40870, Note_on_c, 0, 79, 0
2, 40894, Note_on_c, 0, 78, 0
2, 40898, Note_on_c, 0, 76, 79
2, 40930, Note_on_c, 0, 74, 64
2, 40938, Note_on_c, 0, 76, 0
2, 40959, Note_on_c, 0, 74, 0
2, 40960, Note_on_c, 0, 72, 61
2, 40994, Note_on_c, 0, 71, 75
2, 41002, Note_on_c, 0, 72, 0
2, 41026, Note_on_c, 0, 69, 67
2, 41033, Note_on_c, 0, 71, 0
2, 41055, Note_on_c, 0, 69, 0
2, 41057, Note_on_c, 0, 67, 67
2, 41085, Note_on_c, 0, 67, 0
2, 41091, Note_on_c, 0, 47, 75
2, 41091, Note_on_c, 0, 65, 85
2, 41093, Note_on_c, 0, 67, 61
2, 41099, Note_on_c, 0, 67, 0
2, 41123, Note_on_c, 0, 50, 67
2, 41137, Note_on_c, 0, 47, 0
2, 41157, Note_on_c, 0, 55, 59
2, 41163, Note_on_c, 0, 50, 0
2, 41171, Note_on_c, 0, 65, 0
2, 41189, Note_on_c, 0, 55, 0
2, 41190, Note_on_c, 0, 47, 82
2, 41191, Note_on_c, 0, 65, 94
2, 41222, Note_on_c, 0, 50, 70
2, 41226, Note_on_c, 0, 47, 0
2, 41254, Note_on_c, 0, 55, 33
2, 41261, Note_on_c, 0, 50, 0
2, 41272, Note_on_c, 0, 65, 0
2, 41285, Note_on_c, 0, 55, 0
2, 41285, Note_on_c, 0, 65, 88
2, 41285, Note_on_c, 0, 47, 64
2, 41315, Note_on_c, 0, 50, 56
2, 41325, Note_on_c, 0, 47, 0
2, 41346, Note_on_c, 0, 56, 43
2, 41354, Note_on_c, 0, 50, 0
2, 41357, Note_on_c, 0, 65, 0
2, 41378, Note_on_c, 0, 47, 70
2, 41380, Note_on_c, 0, 65, 98
2, 41381, Note_on_c, 0, 56, 0
2, 41403, Note_on_c, 0, 50, 49
2, 41415, Note_on_c, 0, 47, 0
2, 41422, Note_on_c, 0, 65, 0
2, 41425, Control_c, 0, 64, 127
2, 41439, Note_on_c, 0, 56, 47
2, 41444, Note_on_c, 0, 50, 0
2, 41469, Note_on_c, 0, 56, 0
2, 41475, Note_on_c, 0, 64, 82
2, 41478, Note_on_c, 0, 48, 61
2, 41479, Control_c, 0, 64, 0
2, 41504, Note_on_c, 0, 52, 52
2, 41505, Note_on_c, 0, 69, 75
2, 41512, Note_on_c, 0, 64, 0
2, 41515, Note_on_c, 0, 48, 0
2, 41533, Note_on_c, 0, 57, 52
2, 41535, Note_on_c, 0, 72, 70
2, 41539, Note_on_c, 0, 52, 0
2, 41546, Note_on_c, 0, 69, 0
2, 41562, Note_on_c, 0, 72, 0
2, 41566, Note_on_c, 0, 48, 79
2, 41567, Note_on_c, 0, 76, 82
2, 41571, Note_on_c, 0, 57, 0
2, 41598, Note_on_c, 0, 52, 59
2, 41599, Note_on_c, 0, 72, 72
2, 41604, Note_on_c, 0, 76, 0
2, 41606, Note_on_c, 0, 48, 0
2, 41628, Note_on_c, 0, 69, 70
2, 41629, Note_on_c, 0, 57, 49
2, 41630, Note_on_c, 0, 72, 0
2, 41631, Note_on_c, 0, 52, 0
2, 41659, Note_on_c, 0, 57, 0
2, 41661, Note_on_c, 0, 67, 82
2, 41662, Note_on_c, 0, 69, 0
2, 41663, Note_on_c, 0, 50, 59
2, 41664, Note_on_c, 0, 48, 59
2, 41672, Note_on_c, 0, 48, 0
2, 41694, Note_on_c, 0, 55, 49
2, 41710, Note_on_c, 0, 50, 0
2, 41724, Note_on_c, 0, 59, 47
2, 41727, Note_on_c, 0, 55, 0
2, 41727, Note_on_c, 0, 67, 0
2, 41755, Note_on_c, 0, 59, 0
2, 41755, Note_on_c, 0, 50, 75
2, 41756, Note_on_c, 0, 69, 72
2, 41771, Note_on_c, 0, 71, 70
2, 41773, Note_on_c, 0, 69, 0
2, 41785, Note_on_c, 0, 69, 59
2, 41788, Note_on_c, 0, 71, 0
2, 41788, Note_on_c, 0, 54, 25
2, 41797, Note_on_c, 0, 71, 52
2, 41799, Note_on_c, 0, 69, 0
2, 41802, Note_on_c, 0, 50, 0
2, 41810, Note_on_c, 0, 69, 67
2, 41814, Note_on_c, 0, 71, 0
2, 41817, Note_on_c, 0, 54, 0
2, 41818, Note_on_c, 0, 60, 47
2, 41823, Note_on_c, 0, 67, 67
2, 41825, Note_on_c, 0, 69, 0
2, 41836, Note_on_c, 0, 69, 64
2, 41837, Note_on_c, 0, 67, 0
2, 41841, Note_on_c, 0, 60, 0
2, 41851, Note_on_c, 0, 59, 54
2, 41851, Note_on_c, 0, 55, 61
2, 41852, Note_on_c, 0, 67, 75
2, 41856, Note_on_c, 0, 69, 0
2, 41885, Note_on_c, 0, 69, 72
2, 41892, Note_on_c, 0, 67, 0
2, 41917, Note_on_c, 0, 71, 82
2, 41919, Note_on_c, 0, 69, 0
2, 41928, Note_on_c, 0, 59, 0
2, 41928, Note_on_c, 0, 55, 0
2, 41946, Note_on_c, 0, 71, 0
2, 41951, Note_on_c, 0, 72, 70
2, 41974, Note_on_c, 0, 72, 0
2, 41980, Note_on_c, 0, 74, 75
2, 42012, Note_on_c, 0, 76, 82
2, 42018, Note_on_c, 0, 74, 0
2, 42043, Note_on_c, 0, 76, 0
2, 42045, Note_on_c, 0, 78, 56
2, 42075, Note_on_c, 0, 78, 0
2, 42075, Note_on_c, 0, 79, 70
2, 42106, Note_on_c, 0, 81, 75
2, 42114, Note_on_c, 0, 79, 0
2, 42140, Note_on_c, 0, 83, 82
2, 42146, Note_on_c, 0, 81, 0
2, 42175, Note_on_c, 0, 83, 0
2, 42175, Note_on_c, 0, 84, 82
2, 42207, Note_on_c, 0, 86, 88
2, 42212, Note_on_c, 0, 84, 0
2, 42239, Note_on_c, 0, 86, 0
2, 42240, Note_on_c, 0, 84, 98
2, 42240, Note_on_c, 0, 88, 98
2, 42272, Note_on_c, 0, 60, 75
2, 42305, Note_on_c, 0, 62, 72
2, 42312, Note_on_c, 0, 60, 0
2, 42337, Note_on_c, 0, 64, 70
2, 42341, Note_on_c, 0, 62, 0
2, 42367, Note_on_c, 0, 66, 68
2, 42374, Note_on_c, 0, 64, 0
2, 42399, Note_on_c, 0, 67, 75
2, 42400, Note_on_c, 0, 66, 0
2, 42428, Note_on_c, 0, 67, 0
2, 42431, Note_on_c, 0, 69, 70
2, 42463, Note_on_c, 0, 71, 79
2, 42469, Note_on_c, 0, 69, 0
2, 42492, Note_on_c, 0, 71, 0
2, 42493, Note_on_c, 0, 72, 70
2, 42525, Note_on_c, 0, 74, 75
2, 42532, Note_on_c, 0, 72, 0
2, 42557, Note_on_c, 0, 76, 72
2, 42563, Note_on_c, 0, 74, 0
2, 42589, Note_on_c, 0, 78, 43
2, 42591, Note_on_c, 0, 84, 0
2, 42593, Note_on_c, 0, 76, 0
2, 42619, Note_on_c, 0, 78, 0
2, 42623, Note_on_c, 0, 79, 79
2, 42623, Note_on_c, 0, 86, 82
2, 42623, Note_on_c, 0, 83, 79
2, 42628, Note_on_c, 0, 88, 0
2, 42635, Note_on_c, 0, 86, 0
2, 42637, Note_on_c, 0, 83, 0
2, 42639, Note_on_c, 0, 79, 0
2, 42724, Note_on_c, 0, 84, 85
2, 42724, Note_on_c, 0, 81, 72
2, 42725, Note_on_c, 0, 72, 64
2, 42737, Note_on_c, 0, 84, 0
2, 42738, Note_on_c, 0, 81, 0
2, 42740, Note_on_c, 0, 72, 0
2, 42816, Note_on_c, 0, 74, 47
2, 42818, Note_on_c, 0, 79, 70
2, 42818, Note_on_c, 0, 83, 85
2, 42830, Note_on_c, 0, 74, 0
2, 42831, Note_on_c, 0, 83, 0
2, 42837, Note_on_c, 0, 79, 0
2, 42911, Note_on_c, 0, 81, 72
2, 42911, Note_on_c, 0, 78, 71
2, 42912, Note_on_c, 0, 62, 70
2, 42923, Note_on_c, 0, 78, 0
2, 42925, Note_on_c, 0, 81, 0
2, 42927, Note_on_c, 0, 62, 0
2, 43010, Note_on_c, 0, 86, 88
2, 43043, Note_on_c, 0, 84, 82
2, 43052, Note_on_c, 0, 86, 0
2, 43072, Note_on_c, 0, 84, 0
2, 43074, Note_on_c, 0, 83, 82
2, 43106, Note_on_c, 0, 81, 75
2, 43114, Note_on_c, 0, 83, 0
2, 43136, Note_on_c, 0, 81, 0
2, 43137, Note_on_c, 0, 79, 64
2, 43163, Note_on_c, 0, 79, 0
2, 43166, Note_on_c, 0, 78, 60
2, 43199, Note_on_c, 0, 76, 67
2, 43206, Note_on_c, 0, 78, 0
2, 43230, Note_on_c, 0, 74, 67
2, 43233, Note_on_c, 0, 76, 0
2, 43262, Note_on_c, 0, 72, 67
2, 43268, Note_on_c, 0, 74, 0
2, 43295, Note_on_c, 0, 71, 82
2, 43301, Note_on_c, 0, 72, 0
2, 43325, Note_on_c, 0, 69, 52
2, 43327, Note_on_c, 0, 71, 0
2, 43357, Note_on_c, 0, 67, 64
2, 43368, Note_on_c, 0, 69, 0
2, 43389, Note_on_c, 0, 67, 0
2, 43390, Note_on_c, 0, 76, 70
2, 43392, Note_on_c, 0, 72, 49
2, 43421, Note_on_c, 0, 48, 67
2, 43452, Note_on_c, 0, 50, 61
2, 43456, Note_on_c, 0, 48, 0
2, 43484, Note_on_c, 0, 50, 0
2, 43485, Note_on_c, 0, 52, 70
2, 43515, Note_on_c, 0, 54, 68
2, 43521, Note_on_c, 0, 52, 0
2, 43545, Note_on_c, 0, 55, 70
2, 43546, Note_on_c, 0, 54, 0
2, 43576, Note_on_c, 0, 57, 70
2, 43583, Note_on_c, 0, 55, 0
2, 43609, Note_on_c, 0, 59, 59
2, 43615, Note_on_c, 0, 57, 0
2, 43641, Note_on_c, 0, 59, 0
2, 43641, Note_on_c, 0, 60, 72
2, 43672, Note_on_c, 0, 62, 67
2, 43682, Note_on_c, 0, 60, 0
2, 43704, Note_on_c, 0, 64, 61
2, 43708, Note_on_c, 0, 62, 0
2, 43736, Note_on_c, 0, 66, 50
2, 43745, Note_on_c, 0, 64, 0
2, 43757, Note_on_c, 0, 72, 0
2, 43765, Note_on_c, 0, 76, 0
2, 43769, Note_on_c, 0, 66, 0
2, 43776, Note_on_c, 0, 74, 58
2, 43776, Note_on_c, 0, 71, 67
2, 43804, Note_on_c, 0, 71, 0
2, 43804, Note_on_c, 0, 74, 0
2, 43872, Note_on_c, 0, 60, 70
2, 43874, Note_on_c, 0, 72, 70
2, 43875, Note_on_c, 0, 69, 70
2, 43891, Note_on_c, 0, 60, 0
2, 43893, Note_on_c, 0, 69, 0
2, 43893, Note_on_c, 0, 72, 0
2, 43966, Note_on_c, 0, 62, 70
2, 43967, Note_on_c, 0, 67, 79
2, 43967, Note_on_c, 0, 71, 88
2, 43982, Note_on_c, 0, 62, 0
2, 43984, Note_on_c, 0, 71, 0
2, 43990, Note_on_c, 0, 67, 0
2, 44060, Note_on_c, 0, 66, 71
2, 44061, Note_on_c, 0, 50, 85
2, 44061, Note_on_c, 0, 69, 70
2, 44074, Note_on_c, 0, 50, 0
2, 44078, Note_on_c, 0, 66, 0
2, 44083, Note_on_c, 0, 69, 0
2, 44158, Note_on_c, 0, 43, 82
2, 44159, Note_on_c, 0, 67, 79
2, 44170, Control_c, 0, 64, 127
2, 44174, Note_on_c, 0, 67, 0
2, 44191, Note_on_c, 0, 47, 61
2, 44201, Note_on_c, 0, 43, 0
2, 44223, Note_on_c, 0, 50, 49
2, 44234, Control_c, 0, 64, 0
2, 44244, Note_on_c, 0, 47, 0
2, 44257, Note_on_c, 0, 50, 0
2, 44259, Note_on_c, 0, 43, 49
2, 44260, Note_on_c, 0, 86, 70
2, 44287, Note_on_c, 0, 86, 0
2, 44287, Note_on_c, 0, 47, 52
2, 44288, Note_on_c, 0, 83, 67
2, 44292, Note_on_c, 0, 43, 0
2, 44296, Control_c, 0, 64, 127
2, 44309, Note_on_c, 0, 83, 0
2, 44317, Note_on_c, 0, 79, 49
2, 44319, Note_on_c, 0, 50, 61
2, 44331, Note_on_c, 0, 47, 0
2, 44341, Note_on_c, 0, 79, 0
2, 44342, Control_c, 0, 64, 0
2, 44350, Note_on_c, 0, 50, 0
2, 44351, Note_on_c, 0, 78, 80
2, 44353, Note_on_c, 0, 43, 85
2, 44355, Note_on_c, 0, 79, 47
2, 44360, Note_on_c, 0, 79, 0
2, 44382, Control_c, 0, 64, 127
2, 44384, Note_on_c, 0, 48, 47
2, 44388, Note_on_c, 0, 43, 0
2, 44415, Note_on_c, 0, 78, 0
2, 44417, Note_on_c, 0, 50, 36
2, 44421, Note_on_c, 0, 48, 0
2, 44447, Note_on_c, 0, 50, 0
2, 44451, Note_on_c, 0, 43, 54
2, 44452, Note_on_c, 0, 84, 64
2, 44475, Note_on_c, 0, 84, 0
2, 44477, Note_on_c, 0, 81, 56
2, 44479, Note_on_c, 0, 48, 44
2, 44482, Note_on_c, 0, 43, 0
2, 44503, Note_on_c, 0, 78, 27
2, 44505, Note_on_c, 0, 81, 0
2, 44506, Note_on_c, 0, 50, 52
2, 44513, Note_on_c, 0, 48, 0
2, 44523, Control_c, 0, 64, 0
2, 44534, Note_on_c, 0, 78, 0
2, 44536, Note_on_c, 0, 50, 0
2, 44538, Note_on_c, 0, 79, 79
2, 44539, Note_on_c, 0, 43, 88
2, 44555, Control_c, 0, 64, 127
2, 44556, Note_on_c, 0, 79, 0
2, 44569, Note_on_c, 0, 47, 56
2, 44574, Note_on_c, 0, 43, 0
2, 44602, Note_on_c, 0, 50, 47
2, 44616, Note_on_c, 0, 47, 0
2, 44633, Note_on_c, 0, 50, 0
2, 44636, Note_on_c, 0, 43, 70
2, 44637, Note_on_c, 0, 74, 70
2, 44659, Note_on_c, 0, 74, 0
2, 44665, Note_on_c, 0, 47, 40
2, 44667, Note_on_c, 0, 71, 59
2, 44669, Note_on_c, 0, 43, 0
2, 44690, Note_on_c, 0, 71, 0
2, 44698, Note_on_c, 0, 67, 59
2, 44699, Note_on_c, 0, 50, 54
2, 44708, Note_on_c, 0, 47, 0
2, 44720, Note_on_c, 0, 67, 0
2, 44724, Control_c, 0, 64, 0
2, 44728, Note_on_c, 0, 50, 0
2, 44734, Note_on_c, 0, 66, 75
2, 44735, Note_on_c, 0, 43, 82
2, 44762, Control_c, 0, 64, 127
2, 44767, Note_on_c, 0, 48, 56
2, 44775, Note_on_c, 0, 43, 0
2, 44779, Note_on_c, 0, 66, 0
2, 44797, Note_on_c, 0, 50, 52
2, 44806, Note_on_c, 0, 48, 0
2, 44826, Note_on_c, 0, 50, 0
2, 44827, Note_on_c, 0, 72, 75
2, 44829, Note_on_c, 0, 43, 75
2, 44853, Note_on_c, 0, 72, 0
2, 44858, Note_on_c, 0, 69, 54
2, 44859, Note_on_c, 0, 48, 54
2, 44864, Note_on_c, 0, 43, 0
2, 44886, Note_on_c, 0, 69, 0
2, 44887, Note_on_c, 0, 50, 61
2, 44889, Note_on_c, 0, 66, 68
2, 44895, Note_on_c, 0, 48, 0
2, 44900, Control_c, 0, 64, 0
2, 44923, Note_on_c, 0, 66, 0
2, 44923, Note_on_c, 0, 50, 0
2, 44924, Note_on_c, 0, 67, 79
2, 44925, Note_on_c, 0, 43, 75
2, 44939, Control_c, 0, 64, 127
2, 44946, Note_on_c, 0, 67, 0
2, 44954, Note_on_c, 0, 47, 54
2, 44961, Note_on_c, 0, 43, 0
2, 44984, Note_on_c, 0, 50, 36
2, 45006, Note_on_c, 0, 47, 0
2, 45016, Note_on_c, 0, 50, 0
2, 45020, Note_on_c, 0, 43, 49
2, 45020, Note_on_c, 0, 86, 61
2, 45043, Note_on_c, 0, 86, 0
2, 45049, Note_on_c, 0, 47, 44
2, 45049, Note_on_c, 0, 83, 49
2, 45072, Note_on_c, 0, 83, 0
2, 45076, Note_on_c, 0, 43, 0
2, 45078, Note_on_c, 0, 50, 36
2, 45079, Note_on_c, 0, 79, 38
2, 45093, Note_on_c, 0, 47, 0
2, 45103, Note_on_c, 0, 79, 0
2, 45110, Note_on_c, 0, 50, 0
2, 45111, Control_c, 0, 64, 0
2, 45114, Note_on_c, 0, 78, 75
2, 45115, Note_on_c, 0, 43, 72
2, 45140, Control_c, 0, 64, 127
2, 45144, Note_on_c, 0, 48, 52
2, 45149, Note_on_c, 0, 43, 0
2, 45179, Note_on_c, 0, 50, 23
2, 45181, Note_on_c, 0, 48, 0
2, 45185, Note_on_c, 0, 78, 0
2, 45208, Note_on_c, 0, 50, 0
2, 45208, Note_on_c, 0, 43, 52
2, 45209, Note_on_c, 0, 84, 67
2, 45231, Note_on_c, 0, 84, 0
2, 45238, Note_on_c, 0, 48, 47
2, 45239, Note_on_c, 0, 43, 0
2, 45239, Note_on_c, 0, 81, 56
2, 45262, Note_on_c, 0, 48, 0
2, 45263, Note_on_c, 0, 81, 0
2, 45268, Note_on_c, 0, 50, 52
2, 45269, Note_on_c, 0, 78, 43
2, 45293, Control_c, 0, 64, 0
2, 45296, Note_on_c, 0, 50, 0
2, 45299, Note_on_c, 0, 78, 0
2, 45301, Note_on_c, 0, 79, 82
2, 45302, Note_on_c, 0, 43, 67
2, 45317, Control_c, 0, 64, 127
2, 45326, Note_on_c, 0, 79, 0
2, 45332, Note_on_c, 0, 47, 23
2, 45335, Note_on_c, 0, 43, 0
2, 45365, Note_on_c, 0, 50, 9
2, 45379, Note_on_c, 0, 47, 0
2, 45393, Note_on_c, 0, 50, 0
2, 45398, Control_c, 0, 64, 0
2, 45399, Note_on_c, 0, 74, 47
2, 45399, Note_on_c, 0, 43, 49
2, 45426, Note_on_c, 0, 74, 0
2, 45429, Control_c, 0, 64, 127
2, 45429, Note_on_c, 0, 71, 44
2, 45430, Note_on_c, 0, 48, 26
2, 45435, Note_on_c, 0, 43, 0
2, 45459, Note_on_c, 0, 71, 0
2, 45462, Note_on_c, 0, 50, 18
2, 45464, Note_on_c, 0, 67, 54
2, 45469, Note_on_c, 0, 48, 0
2, 45486, Note_on_c, 0, 67, 0
2, 45491, Note_on_c, 0, 50, 0
2, 45495, Control_c, 0, 64, 0
2, 45497, Note_on_c, 0, 66, 71
2, 45498, Note_on_c, 0, 43, 52
2, 45529, Control_c, 0, 64, 127
2, 45530, Note_on_c, 0, 48, 52
2, 45542, Note_on_c, 0, 43, 0
2, 45555, Note_on_c, 0, 66, 0
2, 45559, Note_on_c, 0, 48, 0
2, 45559, Note_on_c, 0, 50, 23
2, 45587, Note_on_c, 0, 50, 0
2, 45593, Note_on_c, 0, 43, 40
2, 45594, Note_on_c, 0, 72, 47
2, 45619, Note_on_c, 0, 72, 0
2, 45624, Note_on_c, 0, 69, 30
2, 45625, Note_on_c, 0, 48, 33
2, 45633, Note_on_c, 0, 43, 0
2, 45643, Note_on_c, 0, 69, 0
2, 45655, Note_on_c, 0, 66, 47
2, 45655, Note_on_c, 0, 50, 27
2, 45660, Note_on_c, 0, 48, 0
2, 45665, Control_c, 0, 64, 0
2, 45683, Note_on_c, 0, 66, 0
2, 45684, Note_on_c, 0, 50, 0
2, 45689, Note_on_c, 0, 43, 56
2, 45689, Note_on_c, 0, 67, 64
2, 45714, Control_c, 0, 64, 127
2, 45716, Note_on_c, 0, 67, 0
2, 45722, Note_on_c, 0, 47, 29
2, 45728, Note_on_c, 0, 43, 0
2, 45755, Note_on_c, 0, 50, 17
2, 45773, Control_c, 0, 64, 0
2, 45780, Note_on_c, 0, 47, 0
2, 45783, Note_on_c, 0, 50, 0
2, 45788, Note_on_c, 0, 72, 79
2, 45790, Note_on_c, 0, 43, 79
2, 45820, Note_on_c, 0, 69, 67
2, 45820, Note_on_c, 0, 48, 67
2, 45824, Note_on_c, 0, 72, 0
2, 45827, Note_on_c, 0, 43, 0
2, 45849, Note_on_c, 0, 69, 0
2, 45850, Note_on_c, 0, 50, 56
2, 45851, Note_on_c, 0, 66, 60
2, 45858, Note_on_c, 0, 48, 0
2, 45880, Note_on_c, 0, 66, 0
2, 45881, Note_on_c, 0, 50, 0
2, 45883, Note_on_c, 0, 67, 88
2, 45884, Note_on_c, 0, 43, 88
2, 45905, Note_on_c, 0, 67, 0
2, 45915, Note_on_c, 0, 47, 64
2, 45922, Note_on_c, 0, 43, 0
2, 45949, Note_on_c, 0, 50, 72
2, 45963, Note_on_c, 0, 47, 0
2, 45980, Note_on_c, 0, 50, 0
2, 45981, Note_on_c, 0, 72, 94
2, 45981, Note_on_c, 0, 43, 88
2, 46011, Note_on_c, 0, 69, 75
2, 46011, Note_on_c, 0, 48, 85
2, 46014, Note_on_c, 0, 72, 0
2, 46022, Note_on_c, 0, 43, 0
2, 46041, Note_on_c, 0, 69, 0
2, 46043, Note_on_c, 0, 66, 68
2, 46044, Note_on_c, 0, 50, 88
2, 46046, Note_on_c, 0, 48, 0
2, 46076, Note_on_c, 0, 50, 0
2, 46077, Note_on_c, 0, 67, 102
2, 46079, Note_on_c, 0, 43, 110
2, 46080, Note_on_c, 0, 66, 0
2, 46110, Note_on_c, 0, 67, 0
2, 46115, Note_on_c, 0, 43, 0
2, 46126, Control_c, 0, 64, 127
2, 46252, Control_c, 0, 64, 0
2, 46456, Note_on_c, 0, 78, 75
2, 46462, Note_on_c, 0, 69, 88
2, 46462, Note_on_c, 0, 74, 88
2, 46464, Note_on_c, 0, 72, 94
2, 46466, Note_on_c, 0, 50, 110
2, 46466, Note_on_c, 0, 38, 102
2, 46578, Note_on_c, 0, 69, 0
2, 46580, Note_on_c, 0, 50, 0
2, 46580, Note_on_c, 0, 78, 0
2, 46582, Note_on_c, 0, 72, 0
2, 46594, Note_on_c, 0, 74, 0
2, 46598, Note_on_c, 0, 38, 0
2, 46832, Note_on_c, 0, 74, 102
2, 46832, Note_on_c, 0, 79, 102
2, 46834, Note_on_c, 0, 71, 106
2, 46836, Note_on_c, 0, 43, 88
2, 46838, Note_on_c, 0, 31, 106
2, 46844, Note_on_c, 0, 34, 47
2, 46852, Note_on_c, 0, 34, 0
2, 46872, Control_c, 0, 64, 127
2, 46926, Control_c, 0, 64, 0
2, 46930, Note_on_c, 0, 71, 0
2, 46930, Note_on_c, 0, 43, 0
2, 46934, Note_on_c, 0, 79, 0
2, 46934, Note_on_c, 0, 31, 0
2, 46938, Note_on_c, 0, 74, 0
2, 46938, End_track
3, 0, Start_track
3, 0, Title_t, "SONATINA Opus49 No.2"
3, 0, End_track
4, 0, Start_track
4, 0, Title_t, "By L. Van Beethoven "
4, 0, End_track
0, 0, End_of_file
