0, 0, Header, 0, 1, 480
1, 0, Start_track
1, 0, Sequencer_specific, 6, 67, 113, 0, 0, 0, 67
1, 0, Sequencer_specific, 39, 67, 113, 0, 1, 0, 1, 0, 83, 111, 110, 97, 116, 97, 32, 105, 110, 32, 69, 32, 32, 32, 32, 32, 74, 105, 101, 32, 67, 104, 101, 110, 32, 32, 32, 32, 32, 32, 32, 32
1, 0, Sequencer_specific, 5, 67, 123, 12, 0, 1
1, 0, Tempo, 512820
1, 0, Time_signature, 4, 2, 24, 8
1, 0, System_exclusive, 5, 126, 127, 9, 1, 247
1, 1, System_exclusive, 8, 67, 16, 76, 0, 0, 126, 0, 247
1, 5, Control_c, 0, 0, 0
1, 6, Control_c, 0, 32, 0
1, 7, Program_c, 0, 0
1, 8, Control_c, 0, 7, 100
1, 199, Control_c, 0, 64, 15
1, 199, Control_c, 0, 67, 15
1, 390, Control_c, 0, 64, 31
1, 390, Control_c, 0, 67, 31
1, 581, Control_c, 0, 64, 45
1, 581, Control_c, 0, 67, 45
1, 772, Control_c, 0, 64, 62
1, 772, Control_c, 0, 67, 63
1, 963, Control_c, 0, 64, 75
1, 963, Control_c, 0, 67, 75
1, 1154, Control_c, 0, 64, 93
1, 1154, Control_c, 0, 67, 93
1, 1345, Control_c, 0, 64, 105
1, 1345, Control_c, 0, 67, 105
1, 1536, Control_c, 0, 64, 125
1, 1536, Control_c, 0, 67, 127
1, 1918, Note_on_c, 0, 68, 36
1, 2107, Note_on_c, 0, 71, 44
1, 2167, Note_on_c, 0, 68, 0
1, 2188, Note_on_c, 0, 71, 0
1, 2271, Note_on_c, 0, 52, 35
1, 2396, Note_on_c, 0, 59, 39
1, 2452, Note_on_c, 0, 59, 0
1, 2458, Note_on_c, 0, 52, 0
1, 2564, Note_on_c, 0, 71, 64
1, 2677, Control_c, 0, 64, 105
1, 2694, Control_c, 0, 64, 86
1, 2694, Note_on_c, 0, 66, 55
1, 2708, Control_c, 0, 64, 63
1, 2727, Control_c, 0, 64, 20
1, 2745, Control_c, 0, 64, 0
1, 2799, Control_c, 0, 64, 18
1, 2817, Control_c, 0, 64, 28
1, 2825, Note_on_c, 0, 63, 53
1, 2838, Control_c, 0, 64, 41
1, 2855, Control_c, 0, 64, 54
1, 2875, Control_c, 0, 64, 65
1, 2893, Control_c, 0, 64, 75
1, 2899, Note_on_c, 0, 66, 0
1, 2911, Control_c, 0, 64, 84
1, 2928, Control_c, 0, 64, 90
1, 2929, Note_on_c, 0, 63, 0
1, 2947, Control_c, 0, 64, 94
1, 2963, Note_on_c, 0, 51, 35
1, 2985, Control_c, 0, 64, 98
1, 3056, Note_on_c, 0, 51, 0
1, 3113, Note_on_c, 0, 64, 55
1, 3133, Control_c, 0, 64, 92
1, 3161, Control_c, 0, 64, 84
1, 3180, Control_c, 0, 64, 70
1, 3198, Control_c, 0, 64, 42
1, 3218, Control_c, 0, 64, 0
1, 3226, Note_on_c, 0, 71, 0
1, 3261, Note_on_c, 0, 68, 51
1, 3310, Control_c, 0, 64, 18
1, 3329, Control_c, 0, 64, 32
1, 3334, Note_on_c, 0, 64, 0
1, 3346, Control_c, 0, 64, 47
1, 3365, Control_c, 0, 64, 61
1, 3383, Control_c, 0, 64, 69
1, 3393, Note_on_c, 0, 49, 35
1, 3400, Control_c, 0, 64, 75
1, 3421, Control_c, 0, 64, 80
1, 3439, Control_c, 0, 64, 83
1, 3440, Note_on_c, 0, 68, 0
1, 3458, Control_c, 0, 64, 86
1, 3476, Control_c, 0, 64, 88
1, 3480, Note_on_c, 0, 49, 0
1, 3508, Note_on_c, 0, 56, 35
1, 3571, Note_on_c, 0, 56, 0
1, 3636, Note_on_c, 0, 68, 68
1, 3698, Control_c, 0, 64, 83
1, 3716, Control_c, 0, 64, 78
1, 3735, Control_c, 0, 64, 66
1, 3753, Control_c, 0, 64, 39
1, 3771, Control_c, 0, 64, 0
1, 3773, Note_on_c, 0, 63, 60
1, 3865, Control_c, 0, 64, 20
1, 3882, Note_on_c, 0, 59, 47
1, 3885, Control_c, 0, 64, 35
1, 3902, Control_c, 0, 64, 49
1, 3920, Control_c, 0, 64, 61
1, 3933, Note_on_c, 0, 63, 0
1, 3938, Control_c, 0, 64, 70
1, 3957, Control_c, 0, 64, 78
1, 3969, Note_on_c, 0, 59, 0
1, 3976, Control_c, 0, 64, 84
1, 3993, Note_on_c, 0, 47, 48
1, 3995, Control_c, 0, 64, 86
1, 4095, Note_on_c, 0, 47, 0
1, 4180, Note_on_c, 0, 61, 63
1, 4188, Control_c, 0, 64, 82
1, 4208, Control_c, 0, 64, 77
1, 4227, Control_c, 0, 64, 65
1, 4244, Control_c, 0, 64, 32
1, 4251, Note_on_c, 0, 68, 0
1, 4265, Control_c, 0, 64, 0
1, 4303, Note_on_c, 0, 64, 60
1, 4374, Control_c, 0, 64, 20
1, 4393, Control_c, 0, 64, 38
1, 4409, Control_c, 0, 64, 55
1, 4428, Note_on_c, 0, 45, 42
1, 4429, Control_c, 0, 64, 66
1, 4448, Control_c, 0, 64, 74
1, 4456, Note_on_c, 0, 61, 0
1, 4465, Control_c, 0, 64, 80
1, 4485, Control_c, 0, 64, 83
1, 4504, Control_c, 0, 64, 85
1, 4521, Control_c, 0, 64, 87
1, 4540, Note_on_c, 0, 64, 0
1, 4542, Note_on_c, 0, 45, 0
1, 4547, Note_on_c, 0, 52, 51
1, 4621, Note_on_c, 0, 52, 0
1, 4696, Note_on_c, 0, 64, 66
1, 4726, Control_c, 0, 64, 85
1, 4744, Control_c, 0, 64, 80
1, 4763, Control_c, 0, 64, 70
1, 4782, Control_c, 0, 64, 44
1, 4800, Control_c, 0, 64, 0
1, 4839, Note_on_c, 0, 59, 63
1, 4892, Control_c, 0, 64, 20
1, 4911, Control_c, 0, 64, 38
1, 4930, Control_c, 0, 64, 57
1, 4942, Note_on_c, 0, 56, 49
1, 4947, Control_c, 0, 64, 68
1, 4953, Note_on_c, 0, 64, 0
1, 4965, Control_c, 0, 64, 77
1, 4985, Control_c, 0, 64, 82
1, 4989, Note_on_c, 0, 59, 0
1, 5004, Control_c, 0, 64, 85
1, 5034, Note_on_c, 0, 56, 0
1, 5049, Control_c, 0, 64, 87
1, 5064, Note_on_c, 0, 44, 51
1, 5112, Note_on_c, 0, 44, 0
1, 5130, Poly_aftertouch_c, 0, 48, 0
1, 5223, Note_on_c, 0, 66, 66
1, 5235, Control_c, 0, 64, 84
1, 5250, Note_on_c, 0, 57, 50
1, 5253, Control_c, 0, 64, 81
1, 5257, Note_on_c, 0, 63, 50
1, 5271, Control_c, 0, 64, 73
1, 5291, Control_c, 0, 64, 55
1, 5309, Control_c, 0, 64, 0
1, 5371, Note_on_c, 0, 59, 54
1, 5419, Control_c, 0, 64, 17
1, 5439, Control_c, 0, 64, 35
1, 5449, Note_on_c, 0, 57, 0
1, 5456, Control_c, 0, 64, 53
1, 5476, Control_c, 0, 64, 65
1, 5494, Control_c, 0, 64, 73
1, 5504, Note_on_c, 0, 35, 43
1, 5513, Control_c, 0, 64, 80
1, 5531, Control_c, 0, 64, 85
1, 5542, Note_on_c, 0, 59, 0
1, 5543, Note_on_c, 0, 66, 0
1, 5547, Control_c, 0, 64, 87
1, 5614, Note_on_c, 0, 63, 0
1, 5662, Note_on_c, 0, 35, 0
1, 5662, Note_on_c, 0, 47, 36
1, 5750, Note_on_c, 0, 47, 0
1, 5772, Control_c, 0, 64, 85
1, 5790, Control_c, 0, 64, 82
1, 5807, Control_c, 0, 64, 78
1, 5815, Note_on_c, 0, 68, 49
1, 5826, Control_c, 0, 64, 70
1, 5838, Note_on_c, 0, 64, 44
1, 5845, Note_on_c, 0, 56, 39
1, 5845, Control_c, 0, 64, 56
1, 5865, Control_c, 0, 64, 28
1, 5882, Control_c, 0, 64, 12
1, 5919, Control_c, 0, 64, 8
1, 6003, Control_c, 0, 64, 13
1, 6021, Control_c, 0, 64, 20
1, 6040, Note_on_c, 0, 56, 0
1, 6040, Control_c, 0, 64, 27
1, 6046, Note_on_c, 0, 59, 34
1, 6059, Control_c, 0, 64, 35
1, 6077, Control_c, 0, 64, 45
1, 6095, Control_c, 0, 64, 56
1, 6113, Control_c, 0, 64, 62
1, 6132, Control_c, 0, 64, 65
1, 6150, Control_c, 0, 64, 67
1, 6167, Note_on_c, 0, 52, 35
1, 6169, Control_c, 0, 64, 70
1, 6189, Control_c, 0, 64, 74
1, 6206, Control_c, 0, 64, 77
1, 6244, Control_c, 0, 64, 79
1, 6247, Note_on_c, 0, 59, 0
1, 6287, Note_on_c, 0, 52, 0
1, 6299, Control_c, 0, 64, 81
1, 6302, Note_on_c, 0, 64, 0
1, 6352, Note_on_c, 0, 68, 0
1, 6372, Control_c, 0, 64, 83
1, 6376, Note_on_c, 0, 40, 28
1, 6457, Note_on_c, 0, 40, 0
1, 6679, Note_on_c, 0, 68, 45
1, 6725, Control_c, 0, 64, 81
1, 6743, Control_c, 0, 64, 78
1, 6761, Control_c, 0, 64, 74
1, 6780, Control_c, 0, 64, 62
1, 6799, Control_c, 0, 64, 34
1, 6818, Control_c, 0, 64, 0
1, 6854, Note_on_c, 0, 71, 51
1, 6900, Control_c, 0, 64, 9
1, 6919, Control_c, 0, 64, 21
1, 6920, Control_c, 0, 67, 115
1, 6938, Control_c, 0, 64, 34
1, 6939, Control_c, 0, 67, 103
1, 6956, Control_c, 0, 64, 51
1, 6956, Control_c, 0, 67, 88
1, 6976, Control_c, 0, 64, 62
1, 6977, Control_c, 0, 67, 72
1, 6993, Control_c, 0, 64, 68
1, 6994, Control_c, 0, 67, 55
1, 7006, Note_on_c, 0, 52, 37
1, 7012, Control_c, 0, 64, 72
1, 7013, Control_c, 0, 67, 41
1, 7034, Control_c, 0, 64, 77
1, 7035, Control_c, 0, 67, 28
1, 7049, Note_on_c, 0, 71, 0
1, 7050, Control_c, 0, 64, 80
1, 7051, Control_c, 0, 67, 16
1, 7068, Control_c, 0, 64, 83
1, 7070, Control_c, 0, 67, 8
1, 7084, Note_on_c, 0, 68, 0
1, 7104, Control_c, 0, 64, 85
1, 7123, Note_on_c, 0, 59, 35
1, 7195, Note_on_c, 0, 52, 0
1, 7201, Note_on_c, 0, 59, 0
1, 7270, Note_on_c, 0, 71, 63
1, 7271, Control_c, 0, 64, 82
1, 7289, Control_c, 0, 64, 78
1, 7308, Control_c, 0, 64, 70
1, 7327, Control_c, 0, 64, 49
1, 7344, Control_c, 0, 64, 9
1, 7391, Note_on_c, 0, 66, 61
1, 7400, Control_c, 0, 64, 17
1, 7420, Control_c, 0, 64, 25
1, 7440, Control_c, 0, 64, 37
1, 7456, Control_c, 0, 64, 51
1, 7475, Control_c, 0, 64, 65
1, 7493, Control_c, 0, 64, 75
1, 7504, Note_on_c, 0, 71, 0
1, 7510, Note_on_c, 0, 63, 50
1, 7512, Control_c, 0, 64, 85
1, 7531, Control_c, 0, 64, 91
1, 7559, Note_on_c, 0, 66, 0
1, 7567, Control_c, 0, 64, 95
1, 7608, Note_on_c, 0, 63, 0
1, 7617, Note_on_c, 0, 51, 47
1, 7654, Note_on_c, 0, 51, 0
1, 7788, Control_c, 0, 64, 89
1, 7792, Note_on_c, 0, 70, 63
1, 7797, Note_on_c, 0, 64, 53
1, 7805, Control_c, 0, 64, 83
1, 7836, Control_c, 0, 64, 72
1, 7854, Control_c, 0, 64, 53
1, 7872, Control_c, 0, 64, 17
1, 7891, Control_c, 0, 64, 12
1, 7944, Note_on_c, 0, 76, 68
1, 7947, Control_c, 0, 64, 19
1, 7965, Control_c, 0, 64, 25
1, 7983, Control_c, 0, 64, 33
1, 8002, Control_c, 0, 64, 43
1, 8020, Control_c, 0, 64, 55
1, 8038, Control_c, 0, 64, 63
1, 8058, Control_c, 0, 64, 68
1, 8061, Control_c, 0, 67, 12
1, 8061, Note_on_c, 0, 64, 0
1, 8067, Note_on_c, 0, 49, 41
1, 8076, Control_c, 0, 64, 74
1, 8087, Note_on_c, 0, 76, 0
1, 8093, Control_c, 0, 64, 78
1, 8114, Control_c, 0, 64, 80
1, 8115, Control_c, 0, 67, 19
1, 8141, Note_on_c, 0, 70, 0
1, 8151, Control_c, 0, 67, 26
1, 8151, Note_on_c, 0, 49, 0
1, 8188, Control_c, 0, 67, 32
1, 8197, Note_on_c, 0, 54, 39
1, 8236, Note_on_c, 0, 54, 0
1, 8242, Control_c, 0, 67, 36
1, 8280, Control_c, 0, 67, 41
1, 8298, Control_c, 0, 64, 78
1, 8318, Control_c, 0, 67, 47
1, 8336, Control_c, 0, 64, 75
1, 8354, Control_c, 0, 64, 72
1, 8355, Control_c, 0, 67, 52
1, 8362, Note_on_c, 0, 75, 62
1, 8374, Control_c, 0, 64, 66
1, 8389, Control_c, 0, 64, 55
1, 8390, Control_c, 0, 67, 56
1, 8397, Note_on_c, 0, 63, 33
1, 8409, Control_c, 0, 64, 39
1, 8428, Control_c, 0, 64, 23
1, 8448, Control_c, 0, 64, 11
1, 8484, Control_c, 0, 64, 0
1, 8515, Note_on_c, 0, 71, 42
1, 8539, Control_c, 0, 64, 16
1, 8558, Control_c, 0, 64, 24
1, 8575, Control_c, 0, 64, 33
1, 8583, Note_on_c, 0, 63, 0
1, 8595, Control_c, 0, 64, 43
1, 8613, Control_c, 0, 64, 54
1, 8632, Control_c, 0, 64, 62
1, 8649, Control_c, 0, 64, 68
1, 8654, Note_on_c, 0, 59, 32
1, 8669, Control_c, 0, 64, 74
1, 8688, Control_c, 0, 64, 80
1, 8689, Control_c, 0, 67, 52
1, 8692, Note_on_c, 0, 75, 0
1, 8704, Control_c, 0, 64, 83
1, 8723, Control_c, 0, 64, 86
1, 8747, Note_on_c, 0, 59, 0
1, 8771, Control_c, 0, 64, 91
1, 8771, Control_c, 0, 67, 48
1, 8790, Note_on_c, 0, 71, 0
1, 8799, Note_on_c, 0, 47, 40
1, 8806, Control_c, 0, 64, 96
1, 8827, Control_c, 0, 67, 43
1, 8863, Note_on_c, 0, 47, 0
1, 8864, Control_c, 0, 67, 38
1, 8899, Control_c, 0, 67, 33
1, 8936, Control_c, 0, 67, 26
1, 8974, Control_c, 0, 67, 18
1, 8992, Control_c, 0, 67, 11
1, 8997, Note_on_c, 0, 71, 60
1, 9048, Control_c, 0, 67, 0
1, 9068, Control_c, 0, 64, 84
1, 9085, Control_c, 0, 64, 70
1, 9105, Control_c, 0, 64, 47
1, 9124, Control_c, 0, 64, 15
1, 9134, Note_on_c, 0, 75, 70
1, 9179, Control_c, 0, 64, 22
1, 9197, Control_c, 0, 64, 32
1, 9215, Control_c, 0, 64, 46
1, 9234, Control_c, 0, 64, 62
1, 9252, Control_c, 0, 64, 76
1, 9263, Note_on_c, 0, 71, 0
1, 9266, Note_on_c, 0, 54, 54
1, 9271, Control_c, 0, 64, 93
1, 9290, Control_c, 0, 64, 108
1, 9308, Control_c, 0, 64, 124
1, 9362, Note_on_c, 0, 75, 0
1, 9389, Note_on_c, 0, 66, 62
1, 9394, Note_on_c, 0, 54, 0
1, 9431, Note_on_c, 0, 66, 0
1, 9516, Note_on_c, 0, 76, 79
1, 9568, Control_c, 0, 64, 97
1, 9588, Control_c, 0, 64, 74
1, 9606, Control_c, 0, 64, 50
1, 9625, Control_c, 0, 64, 39
1, 9640, Control_c, 0, 64, 42
1, 9646, Note_on_c, 0, 71, 74
1, 9660, Control_c, 0, 64, 47
1, 9679, Control_c, 0, 64, 55
1, 9708, Control_c, 0, 64, 66
1, 9726, Control_c, 0, 64, 83
1, 9745, Control_c, 0, 64, 112
1, 9757, Note_on_c, 0, 76, 0
1, 9762, Control_c, 0, 64, 127
1, 9781, Note_on_c, 0, 68, 68
1, 9848, Note_on_c, 0, 71, 0
1, 9889, Note_on_c, 0, 68, 0
1, 9896, Note_on_c, 0, 56, 74
1, 9935, Poly_aftertouch_c, 0, 60, 127
1, 9965, Note_on_c, 0, 56, 0
1, 9967, Poly_aftertouch_c, 0, 60, 0
1, 10031, Note_on_c, 0, 68, 77
1, 10034, Note_on_c, 0, 71, 83
1, 10078, Control_c, 0, 64, 96
1, 10096, Control_c, 0, 64, 64
1, 10114, Control_c, 0, 64, 0
1, 10146, Note_on_c, 0, 68, 0
1, 10151, Control_c, 0, 64, 8
1, 10172, Control_c, 0, 64, 38
1, 10182, Note_on_c, 0, 80, 87
1, 10190, Control_c, 0, 64, 60
1, 10206, Control_c, 0, 64, 80
1, 10225, Control_c, 0, 64, 111
1, 10243, Control_c, 0, 64, 127
1, 10273, Note_on_c, 0, 71, 0
1, 10317, Note_on_c, 0, 52, 80
1, 10389, Note_on_c, 0, 52, 0
1, 10448, Note_on_c, 0, 64, 79
1, 10499, Note_on_c, 0, 64, 0
1, 10576, Control_c, 0, 64, 113
1, 10586, Note_on_c, 0, 78, 90
1, 10595, Control_c, 0, 64, 78
1, 10614, Control_c, 0, 64, 34
1, 10634, Control_c, 0, 64, 0
1, 10655, Note_on_c, 0, 80, 0
1, 10679, Control_c, 0, 64, 28
1, 10699, Control_c, 0, 64, 51
1, 10716, Control_c, 0, 64, 71
1, 10736, Control_c, 0, 64, 97
1, 10742, Note_on_c, 0, 75, 89
1, 10753, Note_on_c, 0, 71, 79
1, 10753, Control_c, 0, 64, 127
1, 10791, Note_on_c, 0, 78, 0
1, 10877, Note_on_c, 0, 66, 80
1, 10879, Note_on_c, 0, 71, 0
1, 10932, Note_on_c, 0, 75, 0
1, 10966, Note_on_c, 0, 66, 0
1, 11011, Note_on_c, 0, 54, 85
1, 11058, Note_on_c, 0, 54, 0
1, 11205, Note_on_c, 0, 73, 91
1, 11210, Note_on_c, 0, 70, 86
1, 11215, Control_c, 0, 64, 99
1, 11234, Control_c, 0, 64, 52
1, 11253, Control_c, 0, 64, 0
1, 11309, Control_c, 0, 64, 13
1, 11327, Control_c, 0, 64, 46
1, 11345, Control_c, 0, 64, 66
1, 11363, Control_c, 0, 64, 82
1, 11382, Control_c, 0, 64, 103
1, 11401, Control_c, 0, 64, 127
1, 11435, Note_on_c, 0, 82, 96
1, 11454, Note_on_c, 0, 70, 0
1, 11483, Note_on_c, 0, 73, 0
1, 11511, Note_on_c, 0, 82, 0
1, 11677, Note_on_c, 0, 42, 82
1, 11997, Note_on_c, 0, 54, 81
1, 12307, Note_on_c, 0, 69, 73
1, 12361, Note_on_c, 0, 42, 0
1, 12361, Note_on_c, 0, 72, 68
1, 12389, Note_on_c, 0, 54, 0
1, 12411, Note_on_c, 0, 75, 76
1, 12459, Note_on_c, 0, 78, 81
1, 12492, Note_on_c, 0, 81, 91
1, 12533, Control_c, 0, 64, 79
1, 12551, Control_c, 0, 64, 0
1, 12977, Control_c, 0, 64, 28
1, 12996, Control_c, 0, 64, 44
1, 13013, Control_c, 0, 64, 54
1, 13031, Control_c, 0, 64, 60
1, 13050, Control_c, 0, 64, 66
1, 13068, Control_c, 0, 64, 73
1, 13088, Control_c, 0, 64, 84
1, 13106, Control_c, 0, 64, 95
1, 13125, Control_c, 0, 64, 110
1, 13143, Control_c, 0, 64, 127
1, 13761, Note_on_c, 0, 63, 89
1, 13771, Note_on_c, 0, 60, 68
1, 13785, Note_on_c, 0, 54, 59
1, 13791, Note_on_c, 0, 57, 59
1, 14173, Note_on_c, 0, 63, 0
1, 14460, Note_on_c, 0, 64, 85
1, 14515, Note_on_c, 0, 60, 0
1, 14533, Note_on_c, 0, 54, 0
1, 14659, Note_on_c, 0, 64, 0
1, 14666, Note_on_c, 0, 57, 0
1, 14949, Note_on_c, 0, 66, 83
1, 14958, Control_c, 0, 64, 118
1, 14978, Control_c, 0, 64, 85
1, 14997, Control_c, 0, 64, 50
1, 15015, Control_c, 0, 64, 0
1, 15071, Control_c, 0, 64, 19
1, 15088, Control_c, 0, 64, 41
1, 15108, Control_c, 0, 64, 62
1, 15125, Control_c, 0, 64, 81
1, 15145, Control_c, 0, 64, 106
1, 15163, Control_c, 0, 64, 127
1, 15234, Poly_aftertouch_c, 0, 72, 24
1, 15236, Note_on_c, 0, 66, 0
1, 15284, Note_on_c, 0, 72, 0
1, 15312, Note_on_c, 0, 69, 0
1, 15413, Note_on_c, 0, 75, 0
1, 15413, Control_c, 0, 64, 118
1, 15414, Control_c, 0, 67, 8
1, 15432, Control_c, 0, 64, 91
1, 15440, Note_on_c, 0, 68, 81
1, 15451, Control_c, 0, 64, 61
1, 15463, Note_on_c, 0, 78, 0
1, 15467, Control_c, 0, 64, 0
1, 15468, Control_c, 0, 67, 12
1, 15524, Control_c, 0, 67, 16
1, 15562, Control_c, 0, 64, 20
1, 15564, Control_c, 0, 67, 20
1, 15579, Control_c, 0, 64, 40
1, 15600, Control_c, 0, 64, 60
1, 15601, Control_c, 0, 67, 27
1, 15618, Control_c, 0, 64, 74
1, 15620, Control_c, 0, 67, 33
1, 15637, Control_c, 0, 64, 89
1, 15637, Control_c, 0, 67, 38
1, 15652, Control_c, 0, 64, 98
1, 15653, Control_c, 0, 67, 43
1, 15672, Control_c, 0, 64, 105
1, 15673, Control_c, 0, 67, 48
1, 15691, Control_c, 0, 64, 113
1, 15693, Control_c, 0, 67, 53
1, 15709, Control_c, 0, 64, 118
1, 15710, Control_c, 0, 67, 58
1, 15727, Control_c, 0, 67, 63
1, 15746, Control_c, 0, 64, 123
1, 15747, Control_c, 0, 67, 68
1, 15765, Control_c, 0, 67, 73
1, 15783, Control_c, 0, 67, 78
1, 15802, Control_c, 0, 67, 83
1, 15818, Note_on_c, 0, 68, 0
1, 15821, Control_c, 0, 67, 88
1, 15839, Control_c, 0, 67, 94
1, 15857, Control_c, 0, 67, 102
1, 15875, Control_c, 0, 67, 110
1, 15894, Control_c, 0, 67, 117
1, 15913, Control_c, 0, 67, 124
1, 16117, Control_c, 0, 64, 119
1, 16173, Control_c, 0, 64, 115
1, 16201, Note_on_c, 0, 69, 37
1, 16209, Control_c, 0, 64, 109
1, 16220, Note_on_c, 0, 63, 32
1, 16220, Note_on_c, 0, 60, 34
1, 16241, Note_on_c, 0, 80, 66
1, 16244, Control_c, 0, 64, 101
1, 16273, Control_c, 0, 64, 95
1, 16294, Control_c, 0, 64, 87
1, 16310, Control_c, 0, 64, 77
1, 16330, Control_c, 0, 64, 63
1, 16350, Control_c, 0, 64, 41
1, 16366, Note_on_c, 0, 81, 0
1, 16368, Control_c, 0, 64, 21
1, 16386, Control_c, 0, 64, 17
1, 16402, Control_c, 0, 64, 9
1, 16421, Control_c, 0, 64, 0
1, 16496, Control_c, 0, 64, 9
1, 16515, Control_c, 0, 64, 21
1, 16533, Control_c, 0, 64, 34
1, 16552, Control_c, 0, 64, 49
1, 16571, Control_c, 0, 64, 64
1, 16587, Control_c, 0, 64, 74
1, 16607, Control_c, 0, 64, 85
1, 16625, Control_c, 0, 64, 93
1, 16644, Control_c, 0, 64, 100
1, 16662, Control_c, 0, 64, 107
1, 16681, Control_c, 0, 64, 111
1, 16719, Control_c, 0, 64, 115
1, 16800, Note_on_c, 0, 60, 0
1, 16875, Note_on_c, 0, 80, 0
1, 16882, Note_on_c, 0, 63, 0
1, 17021, Note_on_c, 0, 78, 49
1, 17152, Note_on_c, 0, 78, 0
1, 17248, Note_on_c, 0, 69, 0
1, 17560, Control_c, 0, 64, 111
1, 17635, Control_c, 0, 64, 106
1, 17670, Note_on_c, 0, 76, 51
1, 17671, Control_c, 0, 64, 100
1, 17688, Note_on_c, 0, 61, 31
1, 17692, Control_c, 0, 64, 95
1, 17705, Note_on_c, 0, 68, 29
1, 17708, Note_on_c, 0, 64, 30
1, 17708, Control_c, 0, 64, 91
1, 17712, Note_on_c, 0, 73, 39
1, 17726, Control_c, 0, 64, 85
1, 17745, Control_c, 0, 64, 78
1, 17763, Control_c, 0, 64, 71
1, 17783, Control_c, 0, 64, 60
1, 17801, Control_c, 0, 64, 50
1, 17820, Control_c, 0, 64, 46
1, 17875, Control_c, 0, 64, 44
1, 17892, Control_c, 0, 64, 42
1, 17930, Control_c, 0, 64, 36
1, 17967, Control_c, 0, 64, 30
1, 18005, Control_c, 0, 64, 23
1, 18042, Control_c, 0, 64, 17
1, 18078, Control_c, 0, 64, 11
1, 18143, Control_c, 0, 64, 0
1, 18254, Note_on_c, 0, 73, 0
1, 18275, Note_on_c, 0, 64, 0
1, 18308, Note_on_c, 0, 75, 45
1, 18335, Note_on_c, 0, 72, 35
1, 18344, Note_on_c, 0, 66, 18
1, 18345, Note_on_c, 0, 69, 29
1, 18372, Note_on_c, 0, 68, 0
1, 18403, Note_on_c, 0, 76, 0
1, 18408, Note_on_c, 0, 61, 0
1, 18422, Control_c, 0, 64, 11
1, 18442, Control_c, 0, 64, 18
1, 18458, Control_c, 0, 64, 25
1, 18459, Control_c, 0, 67, 116
1, 18476, Control_c, 0, 64, 33
1, 18477, Control_c, 0, 67, 109
1, 18494, Control_c, 0, 64, 43
1, 18496, Control_c, 0, 67, 101
1, 18513, Control_c, 0, 64, 55
1, 18514, Control_c, 0, 67, 91
1, 18532, Control_c, 0, 64, 65
1, 18533, Control_c, 0, 67, 81
1, 18551, Control_c, 0, 64, 73
1, 18552, Control_c, 0, 67, 71
1, 18569, Control_c, 0, 64, 80
1, 18571, Control_c, 0, 67, 62
1, 18576, Note_on_c, 0, 72, 0
1, 18589, Control_c, 0, 64, 84
1, 18591, Control_c, 0, 67, 56
1, 18607, Control_c, 0, 64, 87
1, 18608, Control_c, 0, 67, 51
1, 18626, Control_c, 0, 64, 91
1, 18627, Control_c, 0, 67, 45
1, 18644, Control_c, 0, 64, 96
1, 18645, Control_c, 0, 67, 41
1, 18649, Note_on_c, 0, 75, 0
1, 18661, Control_c, 0, 64, 103
1, 18662, Control_c, 0, 67, 37
1, 18679, Control_c, 0, 64, 108
1, 18694, Note_on_c, 0, 66, 0
1, 18695, Note_on_c, 0, 69, 0
1, 18699, Control_c, 0, 64, 113
1, 18700, Control_c, 0, 67, 30
1, 18718, Control_c, 0, 67, 25
1, 18736, Control_c, 0, 64, 117
1, 18737, Control_c, 0, 67, 20
1, 18755, Control_c, 0, 67, 15
1, 18773, Control_c, 0, 67, 11
1, 18921, Control_c, 0, 64, 112
1, 18940, Control_c, 0, 67, 0
1, 18958, Control_c, 0, 64, 105
1, 18977, Control_c, 0, 64, 99
1, 18989, Note_on_c, 0, 64, 41
1, 18989, Note_on_c, 0, 76, 64
1, 18995, Control_c, 0, 64, 89
1, 18995, Note_on_c, 0, 68, 40
1, 19014, Control_c, 0, 64, 72
1, 19030, Note_on_c, 0, 73, 40
1, 19031, Control_c, 0, 64, 46
1, 19050, Control_c, 0, 64, 9
1, 19098, Control_c, 0, 64, 16
1, 19115, Control_c, 0, 64, 24
1, 19134, Control_c, 0, 64, 34
1, 19152, Control_c, 0, 64, 45
1, 19172, Control_c, 0, 64, 59
1, 19190, Control_c, 0, 64, 69
1, 19208, Control_c, 0, 64, 80
1, 19226, Control_c, 0, 64, 88
1, 19245, Control_c, 0, 64, 93
1, 19264, Control_c, 0, 64, 99
1, 19281, Control_c, 0, 64, 107
1, 19282, Note_on_c, 0, 76, 0
1, 19292, Note_on_c, 0, 73, 0
1, 19300, Control_c, 0, 64, 115
1, 19319, Control_c, 0, 64, 120
1, 19337, Note_on_c, 0, 64, 0
1, 19339, Note_on_c, 0, 68, 0
1, 19542, Control_c, 0, 64, 116
1, 19561, Control_c, 0, 64, 112
1, 19578, Control_c, 0, 64, 105
1, 19596, Control_c, 0, 64, 96
1, 19597, Note_on_c, 0, 63, 42
1, 19609, Note_on_c, 0, 78, 72
1, 19615, Control_c, 0, 64, 81
1, 19615, Note_on_c, 0, 66, 45
1, 19635, Control_c, 0, 64, 59
1, 19648, Note_on_c, 0, 72, 51
1, 19653, Note_on_c, 0, 68, 48
1, 19655, Control_c, 0, 64, 13
1, 19672, Control_c, 0, 64, 0
1, 19708, Control_c, 0, 64, 13
1, 19727, Control_c, 0, 64, 27
1, 19746, Control_c, 0, 64, 41
1, 19762, Control_c, 0, 64, 57
1, 19781, Control_c, 0, 64, 71
1, 19800, Control_c, 0, 64, 86
1, 19819, Control_c, 0, 64, 98
1, 19837, Control_c, 0, 64, 105
1, 19857, Control_c, 0, 64, 112
1, 19872, Note_on_c, 0, 68, 0
1, 19875, Control_c, 0, 64, 121
1, 19880, Note_on_c, 0, 63, 0
1, 19889, Note_on_c, 0, 66, 0
1, 19893, Control_c, 0, 64, 127
1, 19963, Note_on_c, 0, 72, 0
1, 20036, Note_on_c, 0, 78, 0
1, 20227, Note_on_c, 0, 79, 84
1, 20292, Control_c, 0, 64, 120
1, 20310, Control_c, 0, 64, 104
1, 20328, Control_c, 0, 64, 84
1, 20346, Control_c, 0, 64, 59
1, 20364, Control_c, 0, 64, 12
1, 20384, Control_c, 0, 64, 0
1, 20420, Control_c, 0, 64, 19
1, 20439, Control_c, 0, 64, 34
1, 20458, Control_c, 0, 64, 50
1, 20478, Control_c, 0, 64, 69
1, 20496, Control_c, 0, 64, 93
1, 20512, Control_c, 0, 64, 127
1, 20656, Note_on_c, 0, 79, 0
1, 20770, Note_on_c, 0, 52, 81
1, 21194, Note_on_c, 0, 52, 0
1, 21437, Note_on_c, 0, 52, 64
1, 21440, Note_on_c, 0, 56, 53
1, 21455, Note_on_c, 0, 61, 77
1, 21457, Note_on_c, 0, 80, 92
1, 21486, Note_on_c, 0, 68, 67
1, 21486, Control_c, 0, 64, 88
1, 21487, Note_on_c, 0, 73, 55
1, 21487, Note_on_c, 0, 76, 54
1, 21506, Control_c, 0, 64, 52
1, 21523, Control_c, 0, 64, 0
1, 21580, Control_c, 0, 64, 17
1, 21599, Control_c, 0, 64, 32
1, 21618, Control_c, 0, 64, 48
1, 21633, Control_c, 0, 64, 63
1, 21653, Control_c, 0, 64, 75
1, 21671, Control_c, 0, 64, 87
1, 21691, Control_c, 0, 64, 92
1, 21728, Control_c, 0, 64, 101
1, 21746, Control_c, 0, 64, 111
1, 21765, Control_c, 0, 64, 126
1, 21912, Note_on_c, 0, 61, 0
1, 22230, Note_on_c, 0, 63, 81
1, 22523, Note_on_c, 0, 63, 0
1, 22553, Note_on_c, 0, 68, 0
1, 22572, Note_on_c, 0, 52, 0
1, 22600, Note_on_c, 0, 68, 6
1, 22748, Note_on_c, 0, 64, 77
1, 22756, Control_c, 0, 64, 110
1, 22774, Control_c, 0, 64, 82
1, 22793, Control_c, 0, 64, 46
1, 22821, Control_c, 0, 64, 0
1, 22822, Control_c, 0, 67, 8
1, 22839, Note_on_c, 0, 56, 0
1, 22896, Control_c, 0, 64, 25
1, 22915, Control_c, 0, 64, 45
1, 22935, Control_c, 0, 64, 64
1, 22950, Control_c, 0, 64, 80
1, 22951, Control_c, 0, 67, 12
1, 22969, Control_c, 0, 64, 98
1, 22989, Control_c, 0, 64, 111
1, 23007, Control_c, 0, 64, 119
1, 23008, Control_c, 0, 67, 18
1, 23025, Control_c, 0, 64, 123
1, 23043, Control_c, 0, 67, 22
1, 23070, Note_on_c, 0, 68, 0
1, 23081, Control_c, 0, 67, 27
1, 23103, Poly_aftertouch_c, 0, 73, 24
1, 23120, Control_c, 0, 67, 32
1, 23146, Note_on_c, 0, 64, 0
1, 23154, Control_c, 0, 67, 37
1, 23155, Note_on_c, 0, 73, 0
1, 23191, Control_c, 0, 67, 41
1, 23229, Control_c, 0, 64, 112
1, 23231, Control_c, 0, 67, 47
1, 23248, Control_c, 0, 64, 100
1, 23262, Note_on_c, 0, 66, 69
1, 23267, Control_c, 0, 64, 81
1, 23268, Control_c, 0, 67, 55
1, 23284, Note_on_c, 0, 76, 0
1, 23286, Control_c, 0, 64, 56
1, 23303, Control_c, 0, 64, 0
1, 23304, Control_c, 0, 67, 62
1, 23339, Control_c, 0, 67, 69
1, 23358, Control_c, 0, 67, 73
1, 23376, Control_c, 0, 64, 13
1, 23378, Control_c, 0, 67, 78
1, 23395, Control_c, 0, 64, 28
1, 23397, Control_c, 0, 67, 82
1, 23415, Control_c, 0, 64, 45
1, 23416, Control_c, 0, 67, 86
1, 23433, Control_c, 0, 64, 60
1, 23435, Control_c, 0, 67, 90
1, 23450, Control_c, 0, 64, 71
1, 23453, Control_c, 0, 67, 95
1, 23469, Control_c, 0, 64, 80
1, 23470, Control_c, 0, 67, 99
1, 23488, Control_c, 0, 64, 85
1, 23490, Control_c, 0, 67, 104
1, 23506, Control_c, 0, 64, 87
1, 23508, Control_c, 0, 67, 109
1, 23524, Control_c, 0, 67, 114
1, 23544, Control_c, 0, 64, 93
1, 23545, Control_c, 0, 67, 120
1, 23562, Control_c, 0, 67, 124
1, 23580, Control_c, 0, 64, 97
1, 23610, Note_on_c, 0, 66, 0
1, 23960, Control_c, 0, 64, 93
1, 24033, Note_on_c, 0, 58, 24
1, 24037, Note_on_c, 0, 67, 29
1, 24053, Control_c, 0, 64, 88
1, 24071, Control_c, 0, 64, 85
1, 24089, Control_c, 0, 64, 82
1, 24110, Control_c, 0, 64, 77
1, 24119, Note_on_c, 0, 78, 46
1, 24126, Control_c, 0, 64, 69
1, 24134, Note_on_c, 0, 73, 31
1, 24146, Control_c, 0, 64, 55
1, 24163, Control_c, 0, 64, 33
1, 24183, Control_c, 0, 64, 15
1, 24201, Control_c, 0, 64, 0
1, 24231, Note_on_c, 0, 80, 0
1, 24293, Control_c, 0, 64, 15
1, 24311, Control_c, 0, 64, 26
1, 24330, Control_c, 0, 64, 42
1, 24349, Control_c, 0, 64, 58
1, 24368, Control_c, 0, 64, 67
1, 24384, Control_c, 0, 64, 74
1, 24404, Control_c, 0, 64, 80
1, 24422, Control_c, 0, 64, 84
1, 24441, Control_c, 0, 64, 89
1, 24459, Control_c, 0, 64, 94
1, 24478, Control_c, 0, 64, 101
1, 24497, Control_c, 0, 64, 107
1, 24515, Control_c, 0, 64, 113
1, 24533, Control_c, 0, 64, 118
1, 24570, Control_c, 0, 64, 125
1, 24602, Note_on_c, 0, 67, 0
1, 24613, Note_on_c, 0, 73, 0
1, 24796, Note_on_c, 0, 58, 0
1, 24902, Note_on_c, 0, 78, 0
1, 24910, Note_on_c, 0, 76, 50
1, 25031, Note_on_c, 0, 76, 0
1, 25542, Control_c, 0, 64, 117
1, 25556, Note_on_c, 0, 75, 52
1, 25562, Note_on_c, 0, 63, 29
1, 25562, Control_c, 0, 64, 111
1, 25565, Note_on_c, 0, 59, 30
1, 25580, Control_c, 0, 64, 101
1, 25584, Note_on_c, 0, 66, 36
1, 25599, Control_c, 0, 64, 86
1, 25616, Control_c, 0, 64, 68
1, 25645, Control_c, 0, 64, 39
1, 25663, Control_c, 0, 64, 20
1, 25699, Control_c, 0, 64, 26
1, 25718, Control_c, 0, 64, 32
1, 25734, Control_c, 0, 64, 40
1, 25754, Control_c, 0, 64, 52
1, 25771, Control_c, 0, 64, 64
1, 25790, Control_c, 0, 64, 75
1, 25810, Control_c, 0, 64, 85
1, 25828, Control_c, 0, 64, 90
1, 25866, Control_c, 0, 64, 96
1, 25869, Note_on_c, 0, 63, 0
1, 25881, Note_on_c, 0, 66, 0
1, 25901, Control_c, 0, 64, 101
1, 25997, Note_on_c, 0, 59, 0
1, 26216, Control_c, 0, 64, 94
1, 26216, Note_on_c, 0, 73, 45
1, 26220, Note_on_c, 0, 66, 45
1, 26235, Control_c, 0, 64, 87
1, 26241, Note_on_c, 0, 61, 27
1, 26248, Note_on_c, 0, 58, 23
1, 26252, Control_c, 0, 64, 75
1, 26254, Note_on_c, 0, 64, 21
1, 26271, Control_c, 0, 64, 55
1, 26290, Control_c, 0, 64, 18
1, 26309, Control_c, 0, 64, 9
1, 26321, Note_on_c, 0, 75, 0
1, 26346, Control_c, 0, 64, 15
1, 26365, Control_c, 0, 64, 21
1, 26383, Control_c, 0, 64, 28
1, 26402, Control_c, 0, 64, 37
1, 26420, Control_c, 0, 64, 48
1, 26438, Control_c, 0, 64, 60
1, 26456, Control_c, 0, 64, 67
1, 26474, Control_c, 0, 64, 74
1, 26493, Control_c, 0, 64, 81
1, 26512, Control_c, 0, 64, 85
1, 26530, Note_on_c, 0, 66, 0
1, 26544, Note_on_c, 0, 64, 0
1, 26548, Control_c, 0, 64, 92
1, 26596, Control_c, 0, 64, 97
1, 26608, Note_on_c, 0, 61, 0
1, 26626, Note_on_c, 0, 73, 0
1, 26646, Note_on_c, 0, 58, 0
1, 26925, Note_on_c, 0, 59, 37
1, 26928, Note_on_c, 0, 63, 39
1, 26938, Note_on_c, 0, 75, 68
1, 26945, Control_c, 0, 64, 89
1, 26965, Note_on_c, 0, 66, 46
1, 26965, Control_c, 0, 64, 79
1, 26985, Control_c, 0, 64, 65
1, 27002, Control_c, 0, 64, 43
1, 27022, Control_c, 0, 64, 31
1, 27023, Control_c, 0, 67, 119
1, 27057, Control_c, 0, 67, 111
1, 27077, Control_c, 0, 64, 37
1, 27079, Control_c, 0, 67, 105
1, 27096, Control_c, 0, 64, 43
1, 27098, Control_c, 0, 67, 97
1, 27115, Control_c, 0, 64, 52
1, 27115, Control_c, 0, 67, 88
1, 27133, Control_c, 0, 64, 63
1, 27134, Control_c, 0, 67, 78
1, 27152, Control_c, 0, 64, 74
1, 27153, Control_c, 0, 67, 68
1, 27173, Control_c, 0, 64, 86
1, 27174, Control_c, 0, 67, 59
1, 27188, Control_c, 0, 64, 95
1, 27189, Control_c, 0, 67, 51
1, 27206, Control_c, 0, 64, 102
1, 27208, Control_c, 0, 67, 42
1, 27225, Control_c, 0, 64, 108
1, 27226, Control_c, 0, 67, 32
1, 27241, Note_on_c, 0, 66, 0
1, 27243, Control_c, 0, 64, 114
1, 27244, Control_c, 0, 67, 20
1, 27262, Control_c, 0, 64, 121
1, 27263, Control_c, 0, 67, 9
1, 27280, Control_c, 0, 64, 127
1, 27283, Note_on_c, 0, 75, 0
1, 27296, Note_on_c, 0, 63, 0
1, 27300, Control_c, 0, 67, 0
1, 27305, Note_on_c, 0, 59, 0
1, 27561, Note_on_c, 0, 59, 30
1, 27598, Note_on_c, 0, 76, 75
1, 27617, Note_on_c, 0, 56, 39
1, 27622, Control_c, 0, 64, 115
1, 27627, Note_on_c, 0, 71, 46
1, 27632, Note_on_c, 0, 64, 50
1, 27641, Control_c, 0, 64, 103
1, 27654, Control_c, 0, 64, 88
1, 27674, Control_c, 0, 64, 70
1, 27692, Control_c, 0, 64, 51
1, 27710, Control_c, 0, 64, 42
1, 27729, Control_c, 0, 64, 45
1, 27746, Control_c, 0, 64, 47
1, 27765, Control_c, 0, 64, 50
1, 27783, Control_c, 0, 64, 54
1, 27799, Note_on_c, 0, 64, 0
1, 27801, Control_c, 0, 64, 60
1, 27820, Control_c, 0, 64, 67
1, 27840, Control_c, 0, 64, 76
1, 27857, Control_c, 0, 64, 88
1, 27877, Control_c, 0, 64, 97
1, 27896, Control_c, 0, 64, 105
1, 27901, Note_on_c, 0, 71, 0
1, 27914, Control_c, 0, 64, 112
1, 27931, Control_c, 0, 64, 120
1, 27949, Control_c, 0, 64, 127
1, 27967, Note_on_c, 0, 59, 0
1, 27968, Control_c, 0, 67, 8
1, 27999, Note_on_c, 0, 76, 0
1, 28043, Control_c, 0, 67, 12
1, 28068, Note_on_c, 0, 56, 0
1, 28116, Control_c, 0, 67, 16
1, 28173, Control_c, 0, 67, 20
1, 28247, Control_c, 0, 67, 24
1, 28320, Control_c, 0, 67, 28
1, 28376, Control_c, 0, 67, 33
1, 28412, Control_c, 0, 67, 37
1, 28479, Control_c, 0, 67, 42
1, 28533, Control_c, 0, 67, 46
1, 28552, Control_c, 0, 64, 121
1, 28562, Note_on_c, 0, 78, 53
1, 28574, Note_on_c, 0, 59, 28
1, 28587, Control_c, 0, 64, 117
1, 28594, Note_on_c, 0, 51, 28
1, 28608, Control_c, 0, 67, 51
1, 28626, Control_c, 0, 64, 112
1, 28663, Control_c, 0, 64, 106
1, 28681, Control_c, 0, 67, 55
1, 28699, Control_c, 0, 64, 98
1, 28718, Control_c, 0, 64, 93
1, 28736, Control_c, 0, 64, 85
1, 28756, Control_c, 0, 64, 75
1, 28775, Control_c, 0, 64, 58
1, 28793, Control_c, 0, 64, 24
1, 28812, Control_c, 0, 64, 0
1, 28830, Control_c, 0, 67, 59
1, 28922, Control_c, 0, 64, 15
1, 28940, Control_c, 0, 64, 24
1, 28959, Control_c, 0, 64, 34
1, 28978, Control_c, 0, 64, 45
1, 28996, Control_c, 0, 64, 55
1, 29015, Control_c, 0, 64, 63
1, 29034, Control_c, 0, 64, 70
1, 29051, Control_c, 0, 64, 78
1, 29070, Control_c, 0, 64, 87
1, 29088, Control_c, 0, 64, 93
1, 29107, Control_c, 0, 64, 99
1, 29126, Control_c, 0, 64, 106
1, 29144, Control_c, 0, 64, 114
1, 29163, Control_c, 0, 64, 125
1, 29255, Control_c, 0, 67, 64
1, 29329, Control_c, 0, 67, 68
1, 29377, Note_on_c, 0, 59, 0
1, 29383, Note_on_c, 0, 51, 0
1, 29413, Control_c, 0, 67, 73
1, 29448, Control_c, 0, 67, 78
1, 29454, Note_on_c, 0, 71, 50
1, 29486, Control_c, 0, 67, 82
1, 29554, Poly_aftertouch_c, 0, 78, 20
1, 29573, Note_on_c, 0, 78, 0
1, 29598, Control_c, 0, 67, 86
1, 29671, Control_c, 0, 67, 90
1, 29766, Control_c, 0, 67, 94
1, 29857, Control_c, 0, 67, 98
1, 29969, Control_c, 0, 67, 103
1, 30042, Control_c, 0, 67, 107
1, 30078, Note_on_c, 0, 78, 51
1, 30085, Note_on_c, 0, 56, 30
1, 30095, Note_on_c, 0, 59, 33
1, 30136, Control_c, 0, 67, 112
1, 30312, Control_c, 0, 64, 114
1, 30331, Control_c, 0, 64, 98
1, 30344, Note_on_c, 0, 71, 0
1, 30347, Control_c, 0, 64, 78
1, 30366, Control_c, 0, 64, 54
1, 30386, Control_c, 0, 64, 25
1, 30441, Control_c, 0, 64, 30
1, 30459, Control_c, 0, 64, 36
1, 30478, Control_c, 0, 64, 43
1, 30496, Control_c, 0, 64, 53
1, 30516, Control_c, 0, 64, 63
1, 30533, Control_c, 0, 64, 72
1, 30551, Control_c, 0, 64, 81
1, 30569, Control_c, 0, 64, 88
1, 30589, Control_c, 0, 64, 94
1, 30607, Control_c, 0, 64, 99
1, 30625, Control_c, 0, 64, 105
1, 30646, Control_c, 0, 64, 113
1, 30656, Note_on_c, 0, 76, 59
1, 30664, Control_c, 0, 64, 121
1, 30681, Control_c, 0, 64, 127
1, 30753, Control_c, 0, 67, 108
1, 30814, Note_on_c, 0, 59, 0
1, 30855, Note_on_c, 0, 56, 0
1, 30923, Note_on_c, 0, 78, 0
1, 31273, Note_on_c, 0, 54, 29
1, 31279, Note_on_c, 0, 59, 26
1, 31287, Note_on_c, 0, 75, 54
1, 31431, Control_c, 0, 64, 118
1, 31452, Control_c, 0, 64, 107
1, 31468, Control_c, 0, 64, 92
1, 31469, Note_on_c, 0, 76, 0
1, 31486, Control_c, 0, 64, 73
1, 31505, Control_c, 0, 64, 43
1, 31523, Control_c, 0, 64, 0
1, 31579, Control_c, 0, 67, 104
1, 31616, Control_c, 0, 64, 19
1, 31636, Control_c, 0, 64, 38
1, 31637, Control_c, 0, 67, 99
1, 31653, Control_c, 0, 64, 57
1, 31671, Control_c, 0, 64, 72
1, 31689, Control_c, 0, 64, 87
1, 31691, Control_c, 0, 67, 94
1, 31708, Control_c, 0, 64, 101
1, 31727, Control_c, 0, 64, 116
1, 31728, Control_c, 0, 67, 89
1, 31745, Control_c, 0, 64, 127
1, 31765, Control_c, 0, 67, 82
1, 31782, Control_c, 0, 67, 78
1, 31802, Control_c, 0, 67, 73
1, 31819, Control_c, 0, 67, 66
1, 31838, Control_c, 0, 67, 56
1, 31855, Control_c, 0, 67, 46
1, 31874, Control_c, 0, 67, 38
1, 31893, Control_c, 0, 67, 33
1, 31911, Control_c, 0, 67, 28
1, 31931, Control_c, 0, 67, 24
1, 31940, Note_on_c, 0, 54, 0
1, 31949, Control_c, 0, 67, 20
1, 31967, Control_c, 0, 67, 16
1, 31968, Note_on_c, 0, 59, 0
1, 31987, Control_c, 0, 67, 12
1, 32005, Control_c, 0, 67, 8
1, 32097, Control_c, 0, 67, 0
1, 32436, Note_on_c, 0, 63, 33
1, 32445, Note_on_c, 0, 54, 33
1, 32445, Note_on_c, 0, 59, 40
1, 33111, Note_on_c, 0, 54, 0
1, 33176, Note_on_c, 0, 63, 0
1, 33293, Note_on_c, 0, 59, 0
1, 33641, Note_on_c, 0, 73, 47
1, 33652, Note_on_c, 0, 58, 31
1, 33652, Note_on_c, 0, 61, 28
1, 33673, Note_on_c, 0, 54, 30
1, 33688, Note_on_c, 0, 75, 0
1, 33781, Control_c, 0, 64, 121
1, 33800, Control_c, 0, 64, 97
1, 33819, Control_c, 0, 64, 72
1, 33837, Control_c, 0, 64, 41
1, 33856, Control_c, 0, 64, 20
1, 33928, Control_c, 0, 64, 28
1, 33946, Note_on_c, 0, 75, 53
1, 33947, Control_c, 0, 64, 39
1, 33967, Control_c, 0, 64, 52
1, 33971, Note_on_c, 0, 73, 0
1, 33984, Control_c, 0, 64, 66
1, 34004, Control_c, 0, 64, 81
1, 34022, Control_c, 0, 64, 100
1, 34051, Control_c, 0, 64, 123
1, 34070, Control_c, 0, 64, 127
1, 34168, Note_on_c, 0, 73, 61
1, 34336, Note_on_c, 0, 75, 0
1, 34347, Note_on_c, 0, 73, 0
1, 34349, Note_on_c, 0, 61, 0
1, 34357, Note_on_c, 0, 72, 69
1, 34381, Note_on_c, 0, 54, 0
1, 34511, Note_on_c, 0, 73, 76
1, 34548, Note_on_c, 0, 72, 0
1, 34667, Note_on_c, 0, 60, 60
1, 34669, Note_on_c, 0, 63, 63
1, 34675, Note_on_c, 0, 75, 77
1, 34677, Note_on_c, 0, 54, 52
1, 34685, Note_on_c, 0, 57, 53
1, 34689, Note_on_c, 0, 58, 0
1, 34715, Note_on_c, 0, 73, 0
1, 34717, Control_c, 0, 64, 108
1, 34738, Control_c, 0, 64, 77
1, 34756, Control_c, 0, 64, 44
1, 34775, Control_c, 0, 64, 30
1, 34793, Control_c, 0, 64, 36
1, 34811, Control_c, 0, 64, 45
1, 34832, Control_c, 0, 64, 56
1, 34846, Note_on_c, 0, 75, 0
1, 34848, Control_c, 0, 64, 70
1, 34848, Note_on_c, 0, 76, 79
1, 34867, Control_c, 0, 64, 94
1, 34885, Control_c, 0, 64, 127
1, 34998, Note_on_c, 0, 77, 82
1, 35020, Note_on_c, 0, 63, 0
1, 35028, Note_on_c, 0, 76, 0
1, 35069, Note_on_c, 0, 60, 0
1, 35073, Note_on_c, 0, 57, 0
1, 35129, Note_on_c, 0, 54, 0
1, 35134, Note_on_c, 0, 78, 88
1, 35161, Note_on_c, 0, 77, 0
1, 35285, Note_on_c, 0, 78, 0
1, 35287, Note_on_c, 0, 79, 93
1, 35430, Note_on_c, 0, 80, 93
1, 35469, Note_on_c, 0, 79, 0
1, 35727, Note_on_c, 0, 42, 85
1, 35730, Note_on_c, 0, 81, 95
1, 35734, Note_on_c, 0, 30, 82
1, 35738, Note_on_c, 0, 80, 0
1, 35840, Poly_aftertouch_c, 0, 36, 127
1, 35960, Control_c, 0, 64, 113
1, 35970, Poly_aftertouch_c, 0, 36, 0
1, 35978, Control_c, 0, 64, 78
1, 35997, Control_c, 0, 64, 32
1, 36016, Control_c, 0, 64, 0
1, 36108, Control_c, 0, 64, 29
1, 36128, Control_c, 0, 64, 55
1, 36146, Control_c, 0, 64, 78
1, 36165, Control_c, 0, 64, 108
1, 36181, Control_c, 0, 64, 127
1, 36257, Note_on_c, 0, 93, 98
1, 36499, Note_on_c, 0, 81, 0
1, 36608, Note_on_c, 0, 87, 83
1, 36656, Note_on_c, 0, 93, 0
1, 36866, Note_on_c, 0, 84, 85
1, 36878, Note_on_c, 0, 87, 0
1, 37070, Note_on_c, 0, 84, 0
1, 37080, Note_on_c, 0, 81, 78
1, 37233, Note_on_c, 0, 81, 0
1, 37281, Note_on_c, 0, 75, 81
1, 37465, Note_on_c, 0, 75, 0
1, 37472, Note_on_c, 0, 72, 80
1, 37624, Note_on_c, 0, 72, 0
1, 37640, Note_on_c, 0, 69, 75
1, 37772, Note_on_c, 0, 69, 0
1, 37831, Note_on_c, 0, 63, 76
1, 38008, Note_on_c, 0, 60, 77
1, 38014, Note_on_c, 0, 63, 0
1, 38162, Control_c, 0, 67, 9
1, 38163, Note_on_c, 0, 60, 0
1, 38176, Note_on_c, 0, 57, 75
1, 38237, Control_c, 0, 67, 13
1, 38313, Note_on_c, 0, 57, 0
1, 38329, Control_c, 0, 67, 17
1, 38360, Note_on_c, 0, 51, 66
1, 38577, Note_on_c, 0, 51, 0
1, 38586, Note_on_c, 0, 48, 54
1, 38693, Note_on_c, 0, 48, 0
1, 38744, Control_c, 0, 67, 13
1, 38747, Note_on_c, 0, 45, 51
1, 38820, Control_c, 0, 67, 9
1, 38829, Note_on_c, 0, 45, 0
1, 38864, Note_on_c, 0, 48, 51
1, 38935, Note_on_c, 0, 48, 0
1, 38957, Note_on_c, 0, 51, 56
1, 38985, Control_c, 0, 67, 0
1, 38991, Note_on_c, 0, 51, 0
1, 39098, Note_on_c, 0, 57, 58
1, 39144, Note_on_c, 0, 57, 0
1, 39174, Note_on_c, 0, 60, 63
1, 39240, Note_on_c, 0, 60, 0
1, 39266, Note_on_c, 0, 63, 42
1, 39305, Note_on_c, 0, 63, 0
1, 39404, Note_on_c, 0, 69, 47
1, 39406, Note_on_c, 0, 67, 42
1, 39443, Note_on_c, 0, 69, 0
1, 39446, Note_on_c, 0, 67, 0
1, 39467, Note_on_c, 0, 72, 44
1, 39490, Note_on_c, 0, 71, 28
1, 39516, Note_on_c, 0, 72, 0
1, 39520, Note_on_c, 0, 75, 78
1, 39540, Note_on_c, 0, 71, 0
1, 39572, Note_on_c, 0, 75, 0
1, 39634, Note_on_c, 0, 81, 80
1, 39706, Note_on_c, 0, 81, 0
1, 39728, Note_on_c, 0, 84, 79
1, 39754, Note_on_c, 0, 30, 0
1, 39789, Note_on_c, 0, 42, 0
1, 39791, Control_c, 0, 67, 8
1, 39797, Note_on_c, 0, 87, 81
1, 39809, Note_on_c, 0, 84, 0
1, 39881, Note_on_c, 0, 93, 90
1, 39891, Note_on_c, 0, 87, 0
1, 39902, Control_c, 0, 67, 13
1, 39976, Control_c, 0, 67, 18
1, 40013, Control_c, 0, 67, 23
1, 40049, Control_c, 0, 67, 30
1, 40068, Control_c, 0, 67, 34
1, 40105, Control_c, 0, 67, 42
1, 40142, Control_c, 0, 67, 48
1, 40180, Control_c, 0, 67, 52
1, 40218, Control_c, 0, 67, 56
1, 40230, Note_on_c, 0, 29, 47
1, 40246, Note_on_c, 0, 41, 41
1, 40252, Control_c, 0, 64, 119
1, 40253, Control_c, 0, 67, 60
1, 40271, Control_c, 0, 64, 106
1, 40286, Note_on_c, 0, 92, 69
1, 40289, Control_c, 0, 64, 89
1, 40291, Control_c, 0, 67, 64
1, 40303, Note_on_c, 0, 80, 57
1, 40308, Control_c, 0, 64, 67
1, 40328, Control_c, 0, 64, 26
1, 40330, Control_c, 0, 67, 68
1, 40332, Poly_aftertouch_c, 0, 91, 0
1, 40342, Note_on_c, 0, 93, 0
1, 40344, Control_c, 0, 64, 0
1, 40384, Control_c, 0, 67, 73
1, 40399, Note_on_c, 0, 80, 0
1, 40400, Note_on_c, 0, 80, 17
1, 40434, Note_on_c, 0, 41, 0
1, 40440, Control_c, 0, 64, 17
1, 40441, Control_c, 0, 67, 77
1, 40457, Control_c, 0, 64, 34
1, 40475, Control_c, 0, 64, 51
1, 40494, Control_c, 0, 64, 65
1, 40514, Control_c, 0, 64, 78
1, 40515, Control_c, 0, 67, 81
1, 40532, Control_c, 0, 64, 93
1, 40550, Control_c, 0, 64, 102
1, 40569, Control_c, 0, 64, 108
1, 40571, Control_c, 0, 67, 86
1, 40607, Note_on_c, 0, 80, 0
1, 40612, Control_c, 0, 64, 113
1, 40675, Note_on_c, 0, 92, 0
1, 40707, Note_on_c, 0, 29, 0
1, 40817, Control_c, 0, 64, 107
1, 40837, Control_c, 0, 64, 103
1, 40855, Control_c, 0, 64, 96
1, 40873, Control_c, 0, 64, 85
1, 40885, Note_on_c, 0, 91, 50
1, 40892, Control_c, 0, 64, 68
1, 40908, Note_on_c, 0, 27, 24
1, 40908, Control_c, 0, 64, 42
1, 40911, Note_on_c, 0, 79, 31
1, 40929, Control_c, 0, 64, 17
1, 40940, Note_on_c, 0, 39, 15
1, 41002, Control_c, 0, 64, 24
1, 41021, Control_c, 0, 64, 32
1, 41023, Control_c, 0, 67, 82
1, 41040, Control_c, 0, 64, 44
1, 41059, Control_c, 0, 64, 57
1, 41077, Control_c, 0, 64, 68
1, 41079, Control_c, 0, 67, 75
1, 41097, Control_c, 0, 64, 79
1, 41098, Control_c, 0, 67, 68
1, 41115, Control_c, 0, 64, 89
1, 41117, Control_c, 0, 67, 57
1, 41134, Control_c, 0, 64, 97
1, 41134, Control_c, 0, 67, 39
1, 41152, Control_c, 0, 64, 106
1, 41154, Control_c, 0, 67, 17
1, 41169, Control_c, 0, 64, 119
1, 41170, Control_c, 0, 67, 0
1, 41187, Control_c, 0, 64, 127
1, 41282, Note_on_c, 0, 91, 0
1, 41310, Note_on_c, 0, 27, 0
1, 41379, Note_on_c, 0, 39, 0
1, 41607, Note_on_c, 0, 31, 46
1, 41621, Note_on_c, 0, 39, 87
1, 41622, Note_on_c, 0, 27, 82
1, 41667, Note_on_c, 0, 91, 97
1, 41671, Note_on_c, 0, 31, 0
1, 41698, Control_c, 0, 64, 89
1, 41717, Control_c, 0, 64, 53
1, 41733, Control_c, 0, 64, 0
1, 41846, Control_c, 0, 64, 28
1, 41865, Control_c, 0, 64, 49
1, 41883, Control_c, 0, 64, 68
1, 41902, Control_c, 0, 64, 91
1, 41909, Note_on_c, 0, 79, 0
1, 41919, Control_c, 0, 64, 127
1, 42118, Note_on_c, 0, 87, 87
1, 42158, Note_on_c, 0, 89, 19
1, 42184, Note_on_c, 0, 91, 0
1, 42230, Note_on_c, 0, 89, 0
1, 42374, Note_on_c, 0, 82, 87
1, 42409, Note_on_c, 0, 87, 0
1, 42582, Note_on_c, 0, 82, 0
1, 42597, Note_on_c, 0, 79, 80
1, 42726, Note_on_c, 0, 79, 0
1, 42774, Note_on_c, 0, 75, 84
1, 42934, Note_on_c, 0, 70, 82
1, 42977, Note_on_c, 0, 75, 0
1, 43064, Note_on_c, 0, 70, 0
1, 43094, Note_on_c, 0, 67, 77
1, 43191, Note_on_c, 0, 67, 0
1, 43195, Note_on_c, 0, 27, 0
1, 43224, Note_on_c, 0, 39, 0
1, 43245, Note_on_c, 0, 63, 80
1, 43389, Note_on_c, 0, 58, 82
1, 43416, Note_on_c, 0, 63, 0
1, 43522, Note_on_c, 0, 58, 0
1, 43549, Note_on_c, 0, 55, 78
1, 43650, Note_on_c, 0, 55, 0
1, 43703, Note_on_c, 0, 51, 80
1, 43840, Note_on_c, 0, 51, 0
1, 43840, Note_on_c, 0, 46, 83
1, 43941, Note_on_c, 0, 46, 0
1, 44015, Note_on_c, 0, 39, 76
1, 44203, Note_on_c, 0, 43, 64
1, 44323, Note_on_c, 0, 46, 64
1, 44405, Note_on_c, 0, 39, 0
1, 44441, Note_on_c, 0, 51, 69
1, 44478, Note_on_c, 0, 46, 0
1, 44515, Note_on_c, 0, 43, 0
1, 44567, Note_on_c, 0, 55, 65
1, 44568, Note_on_c, 0, 51, 0
1, 44654, Note_on_c, 0, 55, 0
1, 44665, Note_on_c, 0, 58, 67
1, 44777, Note_on_c, 0, 63, 58
1, 44790, Note_on_c, 0, 58, 0
1, 44879, Note_on_c, 0, 63, 0
1, 44900, Note_on_c, 0, 67, 64
1, 44996, Note_on_c, 0, 67, 0
1, 45027, Note_on_c, 0, 51, 57
1, 45059, Note_on_c, 0, 51, 0
1, 45130, Note_on_c, 0, 55, 50
1, 45224, Control_c, 0, 67, 9
1, 45262, Note_on_c, 0, 58, 47
1, 45262, Note_on_c, 0, 55, 0
1, 45288, Control_c, 0, 67, 13
1, 45345, Control_c, 0, 67, 17
1, 45362, Control_c, 0, 67, 21
1, 45366, Note_on_c, 0, 63, 45
1, 45375, Note_on_c, 0, 58, 0
1, 45381, Control_c, 0, 67, 25
1, 45401, Control_c, 0, 67, 30
1, 45419, Control_c, 0, 67, 34
1, 45456, Control_c, 0, 67, 39
1, 45468, Note_on_c, 0, 63, 0
1, 45500, Note_on_c, 0, 67, 49
1, 45508, Control_c, 0, 67, 45
1, 45547, Control_c, 0, 67, 51
1, 45557, Note_on_c, 0, 67, 0
1, 45584, Control_c, 0, 67, 57
1, 45592, Note_on_c, 0, 70, 57
1, 45622, Control_c, 0, 67, 63
1, 45658, Control_c, 0, 67, 70
1, 45695, Control_c, 0, 67, 77
1, 45708, Note_on_c, 0, 70, 0
1, 45720, Note_on_c, 0, 75, 47
1, 45733, Control_c, 0, 67, 85
1, 45770, Control_c, 0, 67, 92
1, 45781, Note_on_c, 0, 75, 0
1, 45808, Control_c, 0, 67, 97
1, 45828, Note_on_c, 0, 79, 55
1, 45843, Control_c, 0, 67, 102
1, 45881, Control_c, 0, 67, 107
1, 45917, Control_c, 0, 67, 111
1, 45921, Note_on_c, 0, 79, 0
1, 45956, Control_c, 0, 67, 116
1, 45957, Note_on_c, 0, 63, 42
1, 45993, Control_c, 0, 67, 122
1, 46023, Note_on_c, 0, 63, 0
1, 46028, Control_c, 0, 67, 127
1, 46075, Note_on_c, 0, 67, 37
1, 46166, Note_on_c, 0, 67, 0
1, 46232, Note_on_c, 0, 70, 31
1, 46312, Note_on_c, 0, 70, 0
1, 46351, Note_on_c, 0, 75, 48
1, 46396, Note_on_c, 0, 75, 0
1, 46489, Note_on_c, 0, 79, 45
1, 46595, Note_on_c, 0, 79, 0
1, 46603, Note_on_c, 0, 82, 49
1, 46744, Note_on_c, 0, 87, 45
1, 46755, Note_on_c, 0, 82, 0
1, 46853, Note_on_c, 0, 87, 0
1, 46868, Note_on_c, 0, 91, 50
1, 46949, Note_on_c, 0, 91, 0
1, 47360, Note_on_c, 0, 51, 28
1, 47363, Note_on_c, 0, 39, 35
1, 47373, Note_on_c, 0, 46, 38
1, 47399, Control_c, 0, 64, 122
1, 47418, Control_c, 0, 64, 106
1, 47424, Note_on_c, 0, 91, 68
1, 47437, Control_c, 0, 64, 87
1, 47454, Control_c, 0, 64, 63
1, 47463, Note_on_c, 0, 79, 40
1, 47474, Control_c, 0, 64, 20
1, 47493, Control_c, 0, 64, 0
1, 47566, Control_c, 0, 64, 11
1, 47584, Control_c, 0, 64, 20
1, 47603, Control_c, 0, 64, 31
1, 47621, Control_c, 0, 64, 42
1, 47641, Control_c, 0, 64, 52
1, 47658, Control_c, 0, 64, 62
1, 47678, Control_c, 0, 64, 70
1, 47696, Control_c, 0, 64, 78
1, 47700, Note_on_c, 0, 46, 0
1, 47713, Control_c, 0, 64, 85
1, 47732, Control_c, 0, 64, 90
1, 47748, Note_on_c, 0, 79, 0
1, 47770, Control_c, 0, 64, 97
1, 47788, Control_c, 0, 64, 101
1, 47825, Control_c, 0, 64, 106
1, 48094, Control_c, 0, 64, 102
1, 48130, Control_c, 0, 64, 95
1, 48148, Control_c, 0, 64, 90
1, 48168, Control_c, 0, 64, 81
1, 48185, Control_c, 0, 64, 70
1, 48191, Note_on_c, 0, 47, 32
1, 48204, Control_c, 0, 64, 53
1, 48224, Control_c, 0, 64, 37
1, 48241, Note_on_c, 0, 90, 46
1, 48242, Control_c, 0, 64, 32
1, 48244, Note_on_c, 0, 78, 39
1, 48261, Control_c, 0, 64, 26
1, 48278, Control_c, 0, 64, 20
1, 48356, Note_on_c, 0, 91, 0
1, 48367, Note_on_c, 0, 51, 0
1, 48370, Control_c, 0, 64, 27
1, 48390, Control_c, 0, 64, 34
1, 48408, Control_c, 0, 64, 41
1, 48428, Control_c, 0, 64, 48
1, 48446, Control_c, 0, 64, 58
1, 48463, Control_c, 0, 64, 68
1, 48481, Control_c, 0, 64, 79
1, 48501, Control_c, 0, 64, 89
1, 48520, Control_c, 0, 64, 95
1, 48589, Note_on_c, 0, 39, 0
1, 48616, Note_on_c, 0, 78, 0
1, 48626, Note_on_c, 0, 90, 0
1, 48714, Note_on_c, 0, 47, 0
1, 49083, Control_c, 0, 64, 91
1, 49159, Control_c, 0, 64, 86
1, 49178, Control_c, 0, 64, 84
1, 49196, Control_c, 0, 64, 81
1, 49212, Control_c, 0, 64, 78
1, 49231, Control_c, 0, 64, 73
1, 49251, Control_c, 0, 64, 67
1, 49268, Control_c, 0, 64, 59
1, 49288, Control_c, 0, 64, 54
1, 49306, Control_c, 0, 64, 52
1, 49329, Note_on_c, 0, 51, 18
1, 49333, Note_on_c, 0, 39, 26
1, 49334, Note_on_c, 0, 47, 27
1, 49342, Control_c, 0, 64, 47
1, 49362, Control_c, 0, 64, 42
1, 49381, Control_c, 0, 64, 35
1, 49398, Control_c, 0, 64, 30
1, 49435, Note_on_c, 0, 90, 58
1, 49451, Note_on_c, 0, 78, 42
1, 49510, Control_c, 0, 64, 37
1, 49529, Control_c, 0, 64, 44
1, 49547, Control_c, 0, 64, 51
1, 49566, Control_c, 0, 64, 60
1, 49583, Control_c, 0, 64, 69
1, 49602, Control_c, 0, 64, 80
1, 49620, Control_c, 0, 64, 90
1, 49640, Control_c, 0, 64, 96
1, 49658, Control_c, 0, 64, 101
1, 49676, Control_c, 0, 64, 107
1, 49695, Control_c, 0, 64, 114
1, 49704, Note_on_c, 0, 39, 0
1, 49707, Note_on_c, 0, 47, 0
1, 49712, Control_c, 0, 64, 122
1, 49732, Control_c, 0, 64, 127
1, 49764, Note_on_c, 0, 51, 0
1, 49839, Note_on_c, 0, 78, 0
1, 49950, Note_on_c, 0, 90, 0
1, 49999, Control_c, 0, 67, 122
1, 50020, Control_c, 0, 67, 117
1, 50037, Control_c, 0, 67, 111
1, 50055, Control_c, 0, 67, 104
1, 50071, Note_on_c, 0, 83, 58
1, 50074, Control_c, 0, 67, 97
1, 50093, Control_c, 0, 67, 90
1, 50112, Control_c, 0, 67, 83
1, 50130, Control_c, 0, 67, 76
1, 50147, Control_c, 0, 67, 71
1, 50167, Control_c, 0, 67, 65
1, 50185, Control_c, 0, 67, 60
1, 50203, Control_c, 0, 67, 56
1, 50241, Control_c, 0, 67, 50
1, 50278, Control_c, 0, 67, 43
1, 50316, Control_c, 0, 67, 36
1, 50332, Control_c, 0, 67, 32
1, 50351, Control_c, 0, 67, 27
1, 50370, Control_c, 0, 67, 21
1, 50389, Control_c, 0, 67, 15
1, 50407, Control_c, 0, 67, 10
1, 50455, Note_on_c, 0, 51, 32
1, 50471, Note_on_c, 0, 59, 36
1, 50475, Note_on_c, 0, 82, 56
1, 50481, Control_c, 0, 67, 0
1, 50519, Note_on_c, 0, 83, 0
1, 50674, Note_on_c, 0, 59, 0
1, 50699, Note_on_c, 0, 51, 0
1, 50767, Note_on_c, 0, 83, 65
1, 50787, Note_on_c, 0, 82, 0
1, 51038, Note_on_c, 0, 82, 67
1, 51082, Control_c, 0, 64, 116
1, 51100, Control_c, 0, 64, 106
1, 51120, Control_c, 0, 64, 93
1, 51136, Note_on_c, 0, 83, 0
1, 51138, Control_c, 0, 64, 78
1, 51157, Control_c, 0, 64, 60
1, 51176, Control_c, 0, 64, 37
1, 51194, Control_c, 0, 64, 32
1, 51296, Note_on_c, 0, 83, 68
1, 51313, Note_on_c, 0, 82, 0
1, 51361, Control_c, 0, 64, 37
1, 51379, Control_c, 0, 64, 40
1, 51399, Control_c, 0, 64, 43
1, 51416, Control_c, 0, 64, 46
1, 51435, Control_c, 0, 64, 49
1, 51454, Control_c, 0, 64, 52
1, 51471, Control_c, 0, 64, 56
1, 51489, Control_c, 0, 64, 60
1, 51508, Control_c, 0, 64, 64
1, 51527, Control_c, 0, 64, 67
1, 51546, Control_c, 0, 64, 71
1, 51564, Note_on_c, 0, 90, 62
1, 51564, Control_c, 0, 64, 76
1, 51567, Note_on_c, 0, 64, 33
1, 51570, Note_on_c, 0, 59, 34
1, 51585, Control_c, 0, 64, 81
1, 51598, Note_on_c, 0, 56, 34
1, 51602, Control_c, 0, 64, 85
1, 51621, Control_c, 0, 64, 90
1, 51637, Control_c, 0, 64, 95
1, 51657, Control_c, 0, 64, 101
1, 51667, Note_on_c, 0, 83, 0
1, 51675, Control_c, 0, 64, 111
1, 51694, Control_c, 0, 64, 124
1, 51699, Note_on_c, 0, 64, 0
1, 51737, Note_on_c, 0, 56, 0
1, 51758, Note_on_c, 0, 59, 0
1, 51843, Note_on_c, 0, 88, 69
1, 51884, Note_on_c, 0, 90, 0
1, 52115, Note_on_c, 0, 88, 0
1, 52125, Note_on_c, 0, 87, 73
1, 52130, Control_c, 0, 67, 8
1, 52185, Control_c, 0, 67, 14
1, 52221, Control_c, 0, 64, 113
1, 52222, Control_c, 0, 67, 20
1, 52240, Control_c, 0, 64, 96
1, 52259, Control_c, 0, 64, 76
1, 52262, Control_c, 0, 67, 28
1, 52278, Control_c, 0, 64, 52
1, 52278, Control_c, 0, 67, 33
1, 52296, Control_c, 0, 64, 31
1, 52297, Control_c, 0, 67, 38
1, 52315, Control_c, 0, 67, 42
1, 52332, Control_c, 0, 67, 47
1, 52370, Control_c, 0, 67, 55
1, 52387, Control_c, 0, 64, 38
1, 52388, Control_c, 0, 67, 59
1, 52406, Control_c, 0, 64, 42
1, 52425, Control_c, 0, 64, 46
1, 52426, Control_c, 0, 67, 65
1, 52443, Control_c, 0, 64, 51
1, 52463, Control_c, 0, 64, 56
1, 52464, Control_c, 0, 67, 70
1, 52466, Note_on_c, 0, 94, 71
1, 52481, Control_c, 0, 64, 60
1, 52499, Control_c, 0, 64, 65
1, 52516, Control_c, 0, 64, 70
1, 52517, Control_c, 0, 67, 75
1, 52536, Control_c, 0, 64, 76
1, 52554, Control_c, 0, 64, 82
1, 52573, Control_c, 0, 64, 87
1, 52575, Control_c, 0, 67, 80
1, 52612, Control_c, 0, 64, 93
1, 52612, Control_c, 0, 67, 84
1, 52613, Note_on_c, 0, 87, 0
1, 52647, Control_c, 0, 64, 100
1, 52666, Control_c, 0, 67, 89
1, 52685, Control_c, 0, 64, 108
1, 52720, Control_c, 0, 64, 114
1, 52720, Control_c, 0, 67, 93
1, 52768, Control_c, 0, 64, 120
1, 52786, Control_c, 0, 64, 124
1, 52788, Control_c, 0, 67, 97
1, 52860, Control_c, 0, 67, 102
1, 52873, Note_on_c, 0, 63, 25
1, 52876, Note_on_c, 0, 59, 33
1, 52878, Note_on_c, 0, 54, 27
1, 52916, Control_c, 0, 67, 106
1, 52918, Note_on_c, 0, 95, 55
1, 52969, Note_on_c, 0, 94, 0
1, 52971, Control_c, 0, 67, 111
1, 53027, Control_c, 0, 67, 116
1, 53061, Note_on_c, 0, 59, 0
1, 53068, Note_on_c, 0, 54, 0
1, 53082, Control_c, 0, 67, 120
1, 53089, Note_on_c, 0, 63, 0
1, 53139, Control_c, 0, 67, 125
1, 53307, Note_on_c, 0, 94, 51
1, 53339, Note_on_c, 0, 95, 0
1, 53816, Note_on_c, 0, 87, 29
1, 53818, Note_on_c, 0, 95, 45
1, 53850, Control_c, 0, 64, 115
1, 53858, Note_on_c, 0, 94, 0
1, 53868, Control_c, 0, 64, 99
1, 53888, Control_c, 0, 64, 81
1, 53905, Control_c, 0, 64, 61
1, 53924, Control_c, 0, 64, 40
1, 54000, Control_c, 0, 64, 43
1, 54016, Control_c, 0, 64, 46
1, 54035, Control_c, 0, 64, 51
1, 54053, Control_c, 0, 64, 58
1, 54073, Control_c, 0, 64, 68
1, 54091, Control_c, 0, 64, 78
1, 54098, Note_on_c, 0, 85, 42
1, 54109, Control_c, 0, 64, 89
1, 54117, Note_on_c, 0, 94, 49
1, 54128, Control_c, 0, 64, 96
1, 54147, Control_c, 0, 64, 101
1, 54165, Control_c, 0, 64, 108
1, 54171, Note_on_c, 0, 95, 0
1, 54185, Control_c, 0, 64, 118
1, 54194, Note_on_c, 0, 87, 0
1, 54200, Control_c, 0, 64, 127
1, 54270, Note_on_c, 0, 94, 0
1, 54282, Note_on_c, 0, 82, 39
1, 54300, Note_on_c, 0, 90, 47
1, 54316, Note_on_c, 0, 85, 0
1, 54351, Control_c, 0, 64, 115
1, 54369, Control_c, 0, 64, 96
1, 54386, Control_c, 0, 64, 75
1, 54404, Control_c, 0, 64, 53
1, 54407, Note_on_c, 0, 82, 0
1, 54424, Control_c, 0, 64, 42
1, 54454, Note_on_c, 0, 85, 45
1, 54460, Control_c, 0, 64, 46
1, 54460, Note_on_c, 0, 90, 0
1, 54466, Note_on_c, 0, 94, 46
1, 54480, Control_c, 0, 64, 50
1, 54499, Control_c, 0, 64, 56
1, 54516, Control_c, 0, 64, 65
1, 54534, Control_c, 0, 64, 75
1, 54552, Control_c, 0, 64, 88
1, 54570, Control_c, 0, 64, 100
1, 54587, Control_c, 0, 64, 106
1, 54599, Note_on_c, 0, 83, 40
1, 54607, Note_on_c, 0, 85, 0
1, 54610, Note_on_c, 0, 94, 0
1, 54613, Note_on_c, 0, 92, 50
1, 54625, Control_c, 0, 64, 113
1, 54672, Control_c, 0, 64, 120
1, 54730, Note_on_c, 0, 83, 0
1, 54741, Note_on_c, 0, 92, 0
1, 54754, Note_on_c, 0, 80, 41
1, 54763, Note_on_c, 0, 88, 48
1, 54821, Control_c, 0, 64, 115
1, 54838, Control_c, 0, 64, 103
1, 54843, Note_on_c, 0, 80, 0
1, 54857, Control_c, 0, 64, 85
1, 54874, Note_on_c, 0, 88, 0
1, 54875, Control_c, 0, 64, 65
1, 54894, Control_c, 0, 64, 46
1, 54896, Note_on_c, 0, 92, 56
1, 54898, Note_on_c, 0, 83, 43
1, 54933, Control_c, 0, 64, 49
1, 54950, Control_c, 0, 64, 52
1, 54968, Control_c, 0, 64, 57
1, 54986, Control_c, 0, 64, 65
1, 55001, Note_on_c, 0, 83, 0
1, 55004, Control_c, 0, 64, 74
1, 55024, Control_c, 0, 64, 88
1, 55030, Note_on_c, 0, 92, 0
1, 55038, Note_on_c, 0, 82, 46
1, 55039, Note_on_c, 0, 90, 52
1, 55042, Control_c, 0, 64, 101
1, 55061, Control_c, 0, 64, 109
1, 55099, Control_c, 0, 64, 115
1, 55153, Note_on_c, 0, 90, 0
1, 55158, Note_on_c, 0, 82, 0
1, 55177, Note_on_c, 0, 87, 56
1, 55177, Note_on_c, 0, 78, 44
1, 55246, Control_c, 0, 64, 107
1, 55264, Note_on_c, 0, 78, 0
1, 55264, Control_c, 0, 64, 93
1, 55284, Control_c, 0, 64, 75
1, 55298, Note_on_c, 0, 87, 0
1, 55302, Control_c, 0, 64, 53
1, 55306, Note_on_c, 0, 90, 58
1, 55318, Note_on_c, 0, 82, 43
1, 55320, Control_c, 0, 64, 40
1, 55359, Control_c, 0, 64, 43
1, 55377, Control_c, 0, 64, 46
1, 55395, Control_c, 0, 64, 51
1, 55412, Control_c, 0, 64, 59
1, 55416, Note_on_c, 0, 82, 0
1, 55431, Note_on_c, 0, 80, 44
1, 55431, Control_c, 0, 64, 68
1, 55439, Note_on_c, 0, 88, 63
1, 55450, Control_c, 0, 64, 82
1, 55459, Note_on_c, 0, 90, 0
1, 55467, Control_c, 0, 64, 97
1, 55487, Control_c, 0, 64, 107
1, 55505, Control_c, 0, 64, 112
1, 55540, Control_c, 0, 64, 117
1, 55546, Note_on_c, 0, 80, 0
1, 55548, Note_on_c, 0, 76, 51
1, 55551, Note_on_c, 0, 88, 0
1, 55575, Note_on_c, 0, 85, 66
1, 55682, Control_c, 0, 64, 107
1, 55689, Note_on_c, 0, 85, 0
1, 55698, Control_c, 0, 64, 93
1, 55701, Note_on_c, 0, 80, 55
1, 55705, Note_on_c, 0, 88, 69
1, 55718, Control_c, 0, 64, 74
1, 55720, Note_on_c, 0, 76, 0
1, 55738, Control_c, 0, 64, 53
1, 55755, Control_c, 0, 64, 42
1, 55792, Control_c, 0, 64, 47
1, 55811, Control_c, 0, 64, 52
1, 55830, Control_c, 0, 64, 59
1, 55835, Note_on_c, 0, 80, 0
1, 55839, Note_on_c, 0, 87, 71
1, 55849, Control_c, 0, 64, 68
1, 55854, Note_on_c, 0, 78, 48
1, 55858, Note_on_c, 0, 88, 0
1, 55867, Control_c, 0, 64, 81
1, 55887, Control_c, 0, 64, 96
1, 55903, Control_c, 0, 64, 107
1, 55920, Control_c, 0, 64, 111
1, 55953, Note_on_c, 0, 87, 0
1, 55959, Note_on_c, 0, 83, 69
1, 55972, Note_on_c, 0, 78, 0
1, 55989, Note_on_c, 0, 75, 54
1, 56052, Control_c, 0, 64, 104
1, 56061, Note_on_c, 0, 75, 0
1, 56070, Control_c, 0, 64, 91
1, 56084, Note_on_c, 0, 83, 0
1, 56089, Note_on_c, 0, 87, 70
1, 56089, Control_c, 0, 64, 70
1, 56100, Note_on_c, 0, 78, 49
1, 56108, Control_c, 0, 64, 42
1, 56128, Control_c, 0, 64, 27
1, 56163, Control_c, 0, 64, 34
1, 56178, Note_on_c, 0, 78, 0
1, 56181, Control_c, 0, 64, 42
1, 56200, Control_c, 0, 64, 52
1, 56204, Note_on_c, 0, 76, 52
1, 56207, Note_on_c, 0, 87, 0
1, 56218, Control_c, 0, 64, 62
1, 56221, Note_on_c, 0, 85, 65
1, 56238, Control_c, 0, 64, 75
1, 56254, Control_c, 0, 64, 91
1, 56273, Control_c, 0, 64, 104
1, 56292, Control_c, 0, 64, 111
1, 56318, Note_on_c, 0, 85, 0
1, 56329, Control_c, 0, 64, 116
1, 56342, Note_on_c, 0, 82, 67
1, 56347, Note_on_c, 0, 73, 47
1, 56393, Note_on_c, 0, 82, 0
1, 56396, Note_on_c, 0, 76, 0
1, 56422, Control_c, 0, 64, 101
1, 56440, Control_c, 0, 64, 81
1, 56457, Control_c, 0, 64, 57
1, 56470, Note_on_c, 0, 75, 43
1, 56476, Note_on_c, 0, 83, 64
1, 56476, Control_c, 0, 64, 34
1, 56482, Note_on_c, 0, 71, 55
1, 56496, Note_on_c, 0, 73, 0
1, 56524, Control_c, 0, 64, 40
1, 56525, Note_on_c, 0, 75, 0
1, 56535, Note_on_c, 0, 71, 0
1, 56541, Control_c, 0, 64, 47
1, 56542, Control_c, 0, 67, 115
1, 56561, Control_c, 0, 64, 57
1, 56562, Control_c, 0, 67, 96
1, 56579, Control_c, 0, 64, 68
1, 56582, Control_c, 0, 67, 71
1, 56599, Control_c, 0, 64, 84
1, 56601, Control_c, 0, 67, 43
1, 56617, Control_c, 0, 64, 103
1, 56618, Control_c, 0, 67, 22
1, 56619, Note_on_c, 0, 82, 63
1, 56619, Note_on_c, 0, 83, 0
1, 56634, Control_c, 0, 64, 117
1, 56726, Note_on_c, 0, 82, 0
1, 56734, Note_on_c, 0, 80, 67
1, 56746, Control_c, 0, 64, 107
1, 56765, Control_c, 0, 64, 92
1, 56782, Control_c, 0, 64, 71
1, 56802, Control_c, 0, 64, 39
1, 56803, Control_c, 0, 67, 0
1, 56819, Control_c, 0, 64, 8
1, 56856, Control_c, 0, 64, 15
1, 56869, Note_on_c, 0, 78, 62
1, 56875, Control_c, 0, 64, 27
1, 56879, Note_on_c, 0, 54, 62
1, 56895, Control_c, 0, 64, 42
1, 56910, Note_on_c, 0, 80, 0
1, 56911, Control_c, 0, 64, 57
1, 56930, Control_c, 0, 64, 72
1, 56933, Note_on_c, 0, 54, 0
1, 56950, Control_c, 0, 64, 90
1, 56969, Control_c, 0, 64, 107
1, 56986, Control_c, 0, 64, 113
1, 56993, Note_on_c, 0, 78, 0
1, 57009, Note_on_c, 0, 76, 61
1, 57081, Control_c, 0, 64, 107
1, 57099, Control_c, 0, 64, 96
1, 57118, Control_c, 0, 64, 77
1, 57121, Note_on_c, 0, 76, 0
1, 57133, Note_on_c, 0, 75, 68
1, 57135, Control_c, 0, 64, 47
1, 57156, Control_c, 0, 64, 0
1, 57229, Control_c, 0, 64, 15
1, 57246, Control_c, 0, 64, 36
1, 57248, Note_on_c, 0, 56, 78
1, 57258, Note_on_c, 0, 73, 74
1, 57264, Control_c, 0, 64, 55
1, 57284, Control_c, 0, 64, 69
1, 57287, Note_on_c, 0, 56, 0
1, 57303, Control_c, 0, 64, 84
1, 57312, Note_on_c, 0, 75, 0
1, 57321, Control_c, 0, 64, 97
1, 57340, Control_c, 0, 64, 104
1, 57374, Note_on_c, 0, 73, 0
1, 57401, Note_on_c, 0, 71, 70
1, 57480, Control_c, 0, 64, 97
1, 57498, Control_c, 0, 64, 83
1, 57507, Note_on_c, 0, 71, 0
1, 57515, Control_c, 0, 64, 59
1, 57533, Note_on_c, 0, 70, 75
1, 57534, Control_c, 0, 64, 0
1, 57643, Note_on_c, 0, 58, 89
1, 57645, Note_on_c, 0, 68, 82
1, 57645, Control_c, 0, 64, 32
1, 57658, Note_on_c, 0, 70, 0
1, 57663, Control_c, 0, 64, 54
1, 57684, Control_c, 0, 64, 72
1, 57692, Note_on_c, 0, 58, 0
1, 57701, Control_c, 0, 64, 91
1, 57720, Control_c, 0, 64, 108
1, 57739, Control_c, 0, 64, 116
1, 57783, Note_on_c, 0, 66, 78
1, 57825, Note_on_c, 0, 68, 0
1, 57888, Control_c, 0, 64, 106
1, 57905, Control_c, 0, 64, 91
1, 57909, Note_on_c, 0, 66, 0
1, 57919, Note_on_c, 0, 64, 72
1, 57924, Control_c, 0, 64, 65
1, 57940, Control_c, 0, 64, 0
1, 58032, Note_on_c, 0, 59, 91
1, 58042, Note_on_c, 0, 64, 0
1, 58049, Note_on_c, 0, 63, 79
1, 58053, Control_c, 0, 64, 30
1, 58071, Control_c, 0, 64, 57
1, 58079, Note_on_c, 0, 59, 0
1, 58091, Control_c, 0, 64, 76
1, 58110, Control_c, 0, 64, 99
1, 58126, Control_c, 0, 64, 123
1, 58144, Control_c, 0, 64, 127
1, 58183, Note_on_c, 0, 61, 80
1, 58241, Note_on_c, 0, 63, 0
1, 58294, Control_c, 0, 64, 119
1, 58302, Note_on_c, 0, 61, 0
1, 58311, Note_on_c, 0, 59, 78
1, 58313, Control_c, 0, 64, 112
1, 58331, Control_c, 0, 64, 107
1, 58349, Control_c, 0, 64, 101
1, 58366, Control_c, 0, 64, 95
1, 58395, Control_c, 0, 64, 88
1, 58413, Control_c, 0, 64, 81
1, 58433, Control_c, 0, 64, 72
1, 58446, Note_on_c, 0, 58, 82
1, 58451, Control_c, 0, 64, 59
1, 58470, Control_c, 0, 64, 47
1, 58470, Control_c, 0, 67, 8
1, 58471, Note_on_c, 0, 59, 0
1, 58488, Control_c, 0, 64, 45
1, 58566, Note_on_c, 0, 56, 82
1, 58578, Note_on_c, 0, 58, 0
1, 58579, Control_c, 0, 64, 47
1, 58692, Note_on_c, 0, 54, 80
1, 58734, Note_on_c, 0, 56, 0
1, 58746, Control_c, 0, 64, 44
1, 58766, Control_c, 0, 64, 41
1, 58784, Control_c, 0, 64, 33
1, 58802, Control_c, 0, 64, 22
1, 58821, Control_c, 0, 64, 9
1, 58840, Control_c, 0, 64, 0
1, 58840, Note_on_c, 0, 35, 86
1, 58852, Note_on_c, 0, 54, 0
1, 58861, Note_on_c, 0, 52, 79
1, 58988, Control_c, 0, 67, 12
1, 58998, Note_on_c, 0, 52, 0
1, 59019, Note_on_c, 0, 51, 72
1, 59044, Control_c, 0, 64, 12
1, 59062, Control_c, 0, 64, 26
1, 59079, Control_c, 0, 64, 41
1, 59097, Control_c, 0, 64, 56
1, 59117, Control_c, 0, 64, 67
1, 59125, Note_on_c, 0, 35, 0
1, 59136, Control_c, 0, 64, 76
1, 59152, Note_on_c, 0, 49, 75
1, 59154, Control_c, 0, 64, 82
1, 59173, Control_c, 0, 64, 84
1, 59177, Note_on_c, 0, 51, 0
1, 59257, Note_on_c, 0, 49, 0
1, 59271, Note_on_c, 0, 47, 72
1, 59283, Control_c, 0, 64, 82
1, 59330, Control_c, 0, 67, 16
1, 59348, Control_c, 0, 64, 80
1, 59385, Control_c, 0, 64, 77
1, 59387, Control_c, 0, 67, 20
1, 59403, Control_c, 0, 64, 75
1, 59403, Note_on_c, 0, 47, 0
1, 59408, Note_on_c, 0, 46, 73
1, 59423, Control_c, 0, 64, 72
1, 59443, Control_c, 0, 64, 68
1, 59443, Control_c, 0, 67, 25
1, 59459, Control_c, 0, 64, 61
1, 59479, Control_c, 0, 64, 54
1, 59480, Control_c, 0, 67, 29
1, 59497, Control_c, 0, 64, 52
1, 59517, Control_c, 0, 67, 33
1, 59526, Note_on_c, 0, 46, 0
1, 59543, Note_on_c, 0, 47, 75
1, 59553, Control_c, 0, 67, 37
1, 59590, Control_c, 0, 64, 50
1, 59591, Control_c, 0, 67, 42
1, 59628, Control_c, 0, 64, 48
1, 59628, Control_c, 0, 67, 47
1, 59663, Control_c, 0, 64, 45
1, 59664, Control_c, 0, 67, 51
1, 59701, Control_c, 0, 64, 42
1, 59701, Note_on_c, 0, 49, 73
1, 59702, Control_c, 0, 67, 55
1, 59723, Note_on_c, 0, 47, 0
1, 59757, Control_c, 0, 64, 37
1, 59758, Control_c, 0, 67, 60
1, 59794, Control_c, 0, 67, 64
1, 59830, Control_c, 0, 64, 32
1, 59832, Control_c, 0, 67, 70
1, 59854, Note_on_c, 0, 51, 68
1, 59867, Control_c, 0, 67, 76
1, 59882, Note_on_c, 0, 49, 0
1, 59884, Control_c, 0, 64, 28
1, 59905, Control_c, 0, 67, 81
1, 59960, Control_c, 0, 64, 24
1, 59966, Note_on_c, 0, 51, 0
1, 59979, Note_on_c, 0, 52, 66
1, 60015, Control_c, 0, 67, 85
1, 60033, Control_c, 0, 64, 20
1, 60110, Note_on_c, 0, 54, 64
1, 60118, Note_on_c, 0, 52, 0
1, 60240, Note_on_c, 0, 56, 63
1, 60270, Note_on_c, 0, 54, 0
1, 60371, Note_on_c, 0, 58, 64
1, 60377, Note_on_c, 0, 56, 0
1, 60467, Note_on_c, 0, 58, 0
1, 60490, Note_on_c, 0, 59, 68
1, 60627, Note_on_c, 0, 61, 65
1, 60632, Note_on_c, 0, 59, 0
1, 60754, Note_on_c, 0, 63, 63
1, 60760, Note_on_c, 0, 61, 0
1, 60857, Note_on_c, 0, 63, 0
1, 60874, Note_on_c, 0, 64, 62
1, 61015, Note_on_c, 0, 66, 59
1, 61023, Note_on_c, 0, 64, 0
1, 61154, Note_on_c, 0, 68, 57
1, 61169, Note_on_c, 0, 66, 0
1, 61382, Note_on_c, 0, 70, 57
1, 61453, Note_on_c, 0, 68, 0
1, 61719, Control_c, 0, 67, 81
1, 61832, Note_on_c, 0, 71, 53
1, 61944, Note_on_c, 0, 70, 0
1, 62054, Control_c, 0, 67, 77
1, 62209, Control_c, 0, 67, 73
1, 62280, Note_on_c, 0, 73, 54
1, 62321, Control_c, 0, 67, 68
1, 62426, Note_on_c, 0, 71, 0
1, 62431, Control_c, 0, 67, 64
1, 62506, Control_c, 0, 67, 58
1, 62544, Control_c, 0, 67, 51
1, 62561, Control_c, 0, 67, 47
1, 62581, Control_c, 0, 67, 43
1, 62618, Control_c, 0, 67, 36
1, 62654, Control_c, 0, 67, 31
1, 62715, Note_on_c, 0, 75, 54
1, 62852, Note_on_c, 0, 73, 0
1, 63024, Control_c, 0, 67, 26
1, 63089, Control_c, 0, 67, 21
1, 63144, Control_c, 0, 67, 17
1, 63199, Control_c, 0, 67, 13
1, 63209, Note_on_c, 0, 76, 44
1, 63256, Control_c, 0, 67, 9
1, 63311, Note_on_c, 0, 75, 0
1, 63496, Control_c, 0, 67, 0
1, 63710, Note_on_c, 0, 78, 44
1, 63826, Note_on_c, 0, 76, 0
1, 64297, Note_on_c, 0, 80, 39
1, 64445, Note_on_c, 0, 78, 0
1, 64503, Control_c, 0, 67, 9
1, 64541, Control_c, 0, 67, 14
1, 64581, Control_c, 0, 67, 22
1, 64598, Control_c, 0, 67, 28
1, 64618, Control_c, 0, 67, 35
1, 64635, Control_c, 0, 67, 43
1, 64653, Control_c, 0, 67, 52
1, 64673, Control_c, 0, 67, 60
1, 64690, Control_c, 0, 67, 69
1, 64708, Control_c, 0, 67, 78
1, 64727, Control_c, 0, 67, 89
1, 64745, Control_c, 0, 67, 100
1, 64765, Control_c, 0, 67, 111
1, 64782, Control_c, 0, 67, 122
1, 64802, Control_c, 0, 67, 127
1, 64975, Note_on_c, 0, 82, 39
1, 64997, Control_c, 0, 64, 25
1, 65070, Control_c, 0, 64, 31
1, 65088, Note_on_c, 0, 80, 0
1, 65106, Control_c, 0, 64, 37
1, 65127, Control_c, 0, 64, 41
1, 65144, Control_c, 0, 64, 46
1, 65161, Control_c, 0, 64, 52
1, 65181, Control_c, 0, 64, 57
1, 65200, Control_c, 0, 64, 60
1, 65219, Control_c, 0, 64, 63
1, 65237, Control_c, 0, 64, 66
1, 65254, Control_c, 0, 64, 69
1, 65273, Control_c, 0, 64, 73
1, 65292, Control_c, 0, 64, 78
1, 65310, Control_c, 0, 64, 81
1, 65330, Control_c, 0, 64, 84
1, 65348, Control_c, 0, 64, 87
1, 65386, Control_c, 0, 64, 94
1, 65423, Control_c, 0, 64, 101
1, 65458, Control_c, 0, 64, 106
1, 65496, Control_c, 0, 64, 111
1, 65532, Control_c, 0, 64, 115
1, 65570, Control_c, 0, 64, 119
1, 65607, Control_c, 0, 64, 123
1, 65913, Control_c, 0, 64, 119
1, 65931, Control_c, 0, 64, 114
1, 65931, Note_on_c, 0, 63, 28
1, 65949, Control_c, 0, 64, 107
1, 65955, Note_on_c, 0, 83, 42
1, 65969, Control_c, 0, 64, 98
1, 65987, Control_c, 0, 64, 88
1, 66004, Control_c, 0, 64, 78
1, 66011, Note_on_c, 0, 82, 0
1, 66022, Control_c, 0, 64, 70
1, 66041, Control_c, 0, 64, 68
1, 66079, Control_c, 0, 64, 71
1, 66097, Control_c, 0, 64, 74
1, 66116, Control_c, 0, 64, 78
1, 66134, Control_c, 0, 64, 83
1, 66137, Note_on_c, 0, 83, 0
1, 66154, Control_c, 0, 64, 88
1, 66172, Control_c, 0, 64, 92
1, 66188, Control_c, 0, 64, 96
1, 66208, Control_c, 0, 64, 100
1, 66245, Control_c, 0, 64, 106
1, 66262, Note_on_c, 0, 66, 29
1, 66429, Note_on_c, 0, 71, 21
1, 66434, Note_on_c, 0, 66, 0
1, 66509, Note_on_c, 0, 71, 0
1, 66543, Note_on_c, 0, 78, 44
1, 66648, Note_on_c, 0, 78, 0
1, 66678, Note_on_c, 0, 63, 0
1, 66699, Note_on_c, 0, 66, 45
1, 66706, Control_c, 0, 64, 100
1, 66728, Control_c, 0, 64, 90
1, 66744, Control_c, 0, 64, 75
1, 66762, Control_c, 0, 64, 54
1, 66782, Control_c, 0, 64, 32
1, 66841, Note_on_c, 0, 61, 33
1, 66847, Control_c, 0, 64, 38
1, 66866, Control_c, 0, 64, 42
1, 66886, Control_c, 0, 64, 48
1, 66902, Control_c, 0, 64, 58
1, 66922, Control_c, 0, 64, 69
1, 66938, Control_c, 0, 64, 79
1, 66958, Control_c, 0, 64, 87
1, 66977, Control_c, 0, 64, 91
1, 66989, Note_on_c, 0, 71, 36
1, 67011, Note_on_c, 0, 66, 0
1, 67012, Control_c, 0, 64, 98
1, 67051, Control_c, 0, 64, 103
1, 67092, Note_on_c, 0, 71, 0
1, 67116, Note_on_c, 0, 70, 43
1, 67159, Note_on_c, 0, 70, 0
1, 67181, Note_on_c, 0, 61, 0
1, 67223, Note_on_c, 0, 64, 46
1, 67236, Control_c, 0, 64, 94
1, 67254, Control_c, 0, 64, 80
1, 67273, Control_c, 0, 64, 60
1, 67293, Control_c, 0, 64, 21
1, 67309, Control_c, 0, 64, 8
1, 67347, Control_c, 0, 64, 18
1, 67351, Note_on_c, 0, 68, 43
1, 67365, Control_c, 0, 64, 25
1, 67384, Control_c, 0, 64, 35
1, 67402, Control_c, 0, 64, 47
1, 67421, Control_c, 0, 64, 60
1, 67440, Control_c, 0, 64, 73
1, 67455, Note_on_c, 0, 68, 0
1, 67458, Control_c, 0, 64, 86
1, 67463, Note_on_c, 0, 64, 0
1, 67477, Control_c, 0, 64, 94
1, 67487, Note_on_c, 0, 73, 49
1, 67493, Control_c, 0, 64, 99
1, 67513, Control_c, 0, 64, 104
1, 67531, Control_c, 0, 64, 109
1, 67550, Control_c, 0, 64, 115
1, 67569, Control_c, 0, 64, 120
1, 67589, Control_c, 0, 64, 124
1, 67604, Note_on_c, 0, 80, 55
1, 67609, Note_on_c, 0, 73, 0
1, 67663, Note_on_c, 0, 80, 0
1, 67698, Note_on_c, 0, 68, 60
1, 67717, Control_c, 0, 64, 117
1, 67746, Control_c, 0, 64, 104
1, 67764, Control_c, 0, 64, 83
1, 67782, Control_c, 0, 64, 58
1, 67800, Control_c, 0, 64, 17
1, 67837, Control_c, 0, 64, 21
1, 67843, Note_on_c, 0, 63, 48
1, 67856, Control_c, 0, 64, 28
1, 67874, Control_c, 0, 64, 39
1, 67892, Control_c, 0, 64, 51
1, 67911, Control_c, 0, 64, 62
1, 67929, Control_c, 0, 64, 71
1, 67949, Control_c, 0, 64, 81
1, 67967, Control_c, 0, 64, 88
1, 67972, Note_on_c, 0, 68, 0
1, 68003, Note_on_c, 0, 73, 47
1, 68003, Control_c, 0, 64, 93
1, 68023, Control_c, 0, 64, 97
1, 68042, Control_c, 0, 64, 102
1, 68073, Note_on_c, 0, 63, 0
1, 68076, Control_c, 0, 64, 108
1, 68106, Note_on_c, 0, 72, 53
1, 68110, Note_on_c, 0, 73, 0
1, 68167, Note_on_c, 0, 72, 0
1, 68222, Note_on_c, 0, 66, 55
1, 68244, Control_c, 0, 64, 104
1, 68254, Note_on_c, 0, 66, 0
1, 68262, Control_c, 0, 64, 96
1, 68281, Control_c, 0, 64, 83
1, 68301, Control_c, 0, 64, 63
1, 68319, Control_c, 0, 64, 28
1, 68338, Control_c, 0, 64, 11
1, 68363, Note_on_c, 0, 69, 48
1, 68375, Control_c, 0, 64, 19
1, 68393, Control_c, 0, 64, 30
1, 68412, Control_c, 0, 64, 42
1, 68429, Control_c, 0, 64, 57
1, 68448, Control_c, 0, 64, 70
1, 68467, Control_c, 0, 64, 86
1, 68485, Control_c, 0, 64, 102
1, 68492, Note_on_c, 0, 75, 45
1, 68502, Note_on_c, 0, 72, 31
1, 68504, Control_c, 0, 64, 114
1, 68523, Control_c, 0, 64, 122
1, 68525, Note_on_c, 0, 69, 0
1, 68540, Control_c, 0, 64, 127
1, 68547, Note_on_c, 0, 72, 0
1, 68578, Note_on_c, 0, 75, 0
1, 68590, Note_on_c, 0, 84, 61
1, 68627, Note_on_c, 0, 84, 0
1, 68679, Control_c, 0, 67, 122
1, 68698, Control_c, 0, 67, 116
1, 68712, Note_on_c, 0, 64, 60
1, 68716, Control_c, 0, 67, 110
1, 68735, Control_c, 0, 67, 104
1, 68755, Control_c, 0, 64, 108
1, 68756, Control_c, 0, 67, 98
1, 68774, Control_c, 0, 64, 88
1, 68775, Control_c, 0, 67, 90
1, 68791, Control_c, 0, 64, 67
1, 68794, Control_c, 0, 67, 80
1, 68808, Control_c, 0, 64, 42
1, 68809, Control_c, 0, 67, 68
1, 68826, Note_on_c, 0, 68, 53
1, 68827, Control_c, 0, 67, 56
1, 68847, Control_c, 0, 64, 46
1, 68847, Control_c, 0, 67, 45
1, 68865, Control_c, 0, 64, 51
1, 68866, Control_c, 0, 67, 36
1, 68883, Control_c, 0, 64, 59
1, 68885, Control_c, 0, 67, 28
1, 68902, Control_c, 0, 64, 68
1, 68903, Control_c, 0, 67, 19
1, 68921, Control_c, 0, 64, 80
1, 68922, Control_c, 0, 67, 11
1, 68940, Control_c, 0, 64, 94
1, 68958, Control_c, 0, 64, 103
1, 68968, Note_on_c, 0, 73, 52
1, 68975, Note_on_c, 0, 76, 59
1, 68977, Control_c, 0, 64, 109
1, 69008, Note_on_c, 0, 73, 0
1, 69009, Note_on_c, 0, 68, 0
1, 69011, Control_c, 0, 64, 117
1, 69016, Note_on_c, 0, 64, 0
1, 69031, Control_c, 0, 64, 121
1, 69051, Control_c, 0, 64, 126
1, 69087, Note_on_c, 0, 76, 0
1, 69105, Note_on_c, 0, 85, 56
1, 69152, Note_on_c, 0, 85, 0
1, 69206, Note_on_c, 0, 63, 65
1, 69219, Note_on_c, 0, 66, 57
1, 69235, Control_c, 0, 64, 119
1, 69254, Control_c, 0, 64, 103
1, 69272, Control_c, 0, 64, 80
1, 69291, Control_c, 0, 64, 55
1, 69294, Control_c, 0, 67, 0
1, 69309, Control_c, 0, 64, 31
1, 69346, Control_c, 0, 64, 38
1, 69355, Note_on_c, 0, 68, 43
1, 69363, Control_c, 0, 64, 44
1, 69383, Control_c, 0, 64, 54
1, 69396, Note_on_c, 0, 66, 0
1, 69401, Control_c, 0, 64, 65
1, 69420, Control_c, 0, 64, 78
1, 69439, Control_c, 0, 64, 96
1, 69458, Control_c, 0, 64, 111
1, 69474, Note_on_c, 0, 84, 54
1, 69476, Control_c, 0, 64, 121
1, 69490, Note_on_c, 0, 63, 0
1, 69493, Control_c, 0, 64, 127
1, 69582, Note_on_c, 0, 87, 68
1, 69593, Note_on_c, 0, 84, 0
1, 69635, Note_on_c, 0, 87, 0
1, 69717, Note_on_c, 0, 61, 63
1, 69744, Note_on_c, 0, 64, 50
1, 69744, Note_on_c, 0, 68, 0
1, 69764, Control_c, 0, 64, 106
1, 69781, Control_c, 0, 64, 83
1, 69799, Control_c, 0, 64, 58
1, 69818, Control_c, 0, 64, 34
1, 69856, Control_c, 0, 64, 40
1, 69861, Note_on_c, 0, 68, 61
1, 69867, Note_on_c, 0, 64, 0
1, 69874, Control_c, 0, 64, 47
1, 69894, Control_c, 0, 64, 57
1, 69912, Control_c, 0, 64, 67
1, 69929, Control_c, 0, 64, 83
1, 69947, Control_c, 0, 64, 102
1, 69966, Control_c, 0, 64, 118
1, 69985, Control_c, 0, 64, 127
1, 69987, Note_on_c, 0, 80, 63
1, 70090, Note_on_c, 0, 88, 70
1, 70091, Note_on_c, 0, 80, 0
1, 70138, Note_on_c, 0, 88, 0
1, 70181, Note_on_c, 0, 68, 0
1, 70206, Note_on_c, 0, 60, 68
1, 70251, Note_on_c, 0, 63, 45
1, 70251, Note_on_c, 0, 61, 0
1, 70263, Control_c, 0, 64, 121
1, 70282, Control_c, 0, 64, 95
1, 70298, Control_c, 0, 64, 68
1, 70318, Control_c, 0, 64, 35
1, 70320, Note_on_c, 0, 63, 0
1, 70327, Note_on_c, 0, 68, 61
1, 70337, Control_c, 0, 64, 25
1, 70374, Control_c, 0, 64, 30
1, 70392, Control_c, 0, 64, 38
1, 70412, Control_c, 0, 64, 48
1, 70429, Control_c, 0, 64, 60
1, 70449, Control_c, 0, 64, 72
1, 70470, Control_c, 0, 64, 89
1, 70485, Note_on_c, 0, 87, 61
1, 70485, Control_c, 0, 64, 105
1, 70495, Note_on_c, 0, 78, 56
1, 70501, Control_c, 0, 64, 115
1, 70522, Control_c, 0, 64, 125
1, 70570, Control_c, 0, 67, 8
1, 70600, Note_on_c, 0, 78, 0
1, 70603, Note_on_c, 0, 80, 67
1, 70640, Note_on_c, 0, 80, 0
1, 70645, Note_on_c, 0, 87, 0
1, 70722, Note_on_c, 0, 68, 0
1, 70724, Note_on_c, 0, 61, 65
1, 70734, Control_c, 0, 64, 108
1, 70753, Control_c, 0, 64, 85
1, 70773, Control_c, 0, 64, 60
1, 70776, Control_c, 0, 67, 12
1, 70786, Note_on_c, 0, 64, 44
1, 70790, Control_c, 0, 64, 31
1, 70792, Note_on_c, 0, 60, 0
1, 70847, Control_c, 0, 64, 37
1, 70857, Note_on_c, 0, 64, 0
1, 70864, Control_c, 0, 64, 46
1, 70865, Note_on_c, 0, 68, 57
1, 70865, Control_c, 0, 67, 16
1, 70884, Control_c, 0, 64, 56
1, 70902, Control_c, 0, 64, 68
1, 70922, Control_c, 0, 64, 84
1, 70924, Control_c, 0, 67, 21
1, 70940, Control_c, 0, 64, 101
1, 70950, Note_on_c, 0, 61, 0
1, 70960, Control_c, 0, 64, 112
1, 70961, Control_c, 0, 67, 28
1, 70977, Control_c, 0, 64, 118
1, 70996, Control_c, 0, 64, 126
1, 70997, Control_c, 0, 67, 35
1, 71004, Note_on_c, 0, 80, 58
1, 71005, Note_on_c, 0, 76, 46
1, 71015, Control_c, 0, 67, 39
1, 71051, Control_c, 0, 67, 45
1, 71070, Note_on_c, 0, 76, 0
1, 71106, Control_c, 0, 67, 50
1, 71123, Note_on_c, 0, 88, 65
1, 71123, Note_on_c, 0, 80, 0
1, 71143, Control_c, 0, 67, 55
1, 71166, Note_on_c, 0, 88, 0
1, 71181, Control_c, 0, 67, 60
1, 71204, Note_on_c, 0, 68, 0
1, 71218, Control_c, 0, 67, 67
1, 71237, Control_c, 0, 67, 71
1, 71251, Note_on_c, 0, 57, 56
1, 71256, Control_c, 0, 67, 76
1, 71273, Control_c, 0, 67, 82
1, 71292, Control_c, 0, 64, 104
1, 71293, Control_c, 0, 67, 89
1, 71296, Note_on_c, 0, 61, 44
1, 71311, Control_c, 0, 64, 82
1, 71312, Control_c, 0, 67, 97
1, 71329, Control_c, 0, 64, 57
1, 71331, Control_c, 0, 67, 103
1, 71348, Control_c, 0, 64, 30
1, 71348, Control_c, 0, 67, 109
1, 71367, Control_c, 0, 67, 113
1, 71385, Control_c, 0, 67, 117
1, 71404, Control_c, 0, 64, 34
1, 71404, Control_c, 0, 67, 122
1, 71420, Control_c, 0, 64, 39
1, 71421, Control_c, 0, 67, 126
1, 71427, Note_on_c, 0, 66, 33
1, 71440, Control_c, 0, 64, 46
1, 71458, Control_c, 0, 64, 56
1, 71478, Control_c, 0, 64, 65
1, 71505, Control_c, 0, 64, 74
1, 71523, Control_c, 0, 64, 82
1, 71542, Control_c, 0, 64, 88
1, 71561, Control_c, 0, 64, 93
1, 71575, Note_on_c, 0, 57, 0
1, 71579, Control_c, 0, 64, 99
1, 71582, Note_on_c, 0, 85, 50
1, 71586, Note_on_c, 0, 61, 0
1, 71595, Note_on_c, 0, 78, 38
1, 71597, Control_c, 0, 64, 107
1, 71614, Control_c, 0, 64, 116
1, 71634, Control_c, 0, 64, 123
1, 71652, Control_c, 0, 64, 127
1, 71718, Note_on_c, 0, 90, 52
1, 71736, Note_on_c, 0, 85, 0
1, 71755, Note_on_c, 0, 78, 0
1, 71805, Note_on_c, 0, 90, 0
1, 71858, Note_on_c, 0, 63, 39
1, 71858, Note_on_c, 0, 66, 0
1, 71876, Note_on_c, 0, 56, 43
1, 71895, Control_c, 0, 64, 123
1, 71913, Control_c, 0, 64, 107
1, 71931, Control_c, 0, 64, 86
1, 71952, Control_c, 0, 64, 60
1, 71968, Control_c, 0, 64, 23
1, 71985, Control_c, 0, 64, 19
1, 72023, Control_c, 0, 64, 24
1, 72039, Control_c, 0, 64, 32
1, 72044, Note_on_c, 0, 68, 37
1, 72060, Control_c, 0, 64, 43
1, 72079, Control_c, 0, 64, 58
1, 72098, Control_c, 0, 64, 74
1, 72107, Note_on_c, 0, 63, 0
1, 72115, Control_c, 0, 64, 93
1, 72134, Control_c, 0, 64, 112
1, 72138, Note_on_c, 0, 68, 0
1, 72152, Control_c, 0, 64, 127
1, 72171, Note_on_c, 0, 84, 42
1, 72174, Note_on_c, 0, 56, 0
1, 72178, Note_on_c, 0, 80, 27
1, 72335, Note_on_c, 0, 80, 0
1, 72413, Note_on_c, 0, 92, 53
1, 72433, Note_on_c, 0, 84, 0
1, 72460, Note_on_c, 0, 92, 0
1, 72875, Note_on_c, 0, 75, 58
1, 72921, Note_on_c, 0, 70, 39
1, 72957, Control_c, 0, 64, 109
1, 72976, Control_c, 0, 64, 90
1, 72995, Control_c, 0, 64, 67
1, 73013, Control_c, 0, 64, 33
1, 73032, Control_c, 0, 64, 18
1, 73060, Note_on_c, 0, 63, 36
1, 73066, Control_c, 0, 64, 24
1, 73087, Control_c, 0, 64, 30
1, 73105, Control_c, 0, 64, 38
1, 73124, Control_c, 0, 64, 48
1, 73143, Control_c, 0, 64, 61
1, 73160, Note_on_c, 0, 70, 0
1, 73160, Control_c, 0, 64, 74
1, 73163, Note_on_c, 0, 55, 41
1, 73180, Control_c, 0, 64, 86
1, 73200, Control_c, 0, 64, 94
1, 73218, Control_c, 0, 64, 99
1, 73234, Note_on_c, 0, 75, 0
1, 73236, Control_c, 0, 64, 104
1, 73238, Control_c, 0, 67, 115
1, 73253, Control_c, 0, 64, 110
1, 73254, Control_c, 0, 67, 106
1, 73272, Control_c, 0, 64, 116
1, 73273, Control_c, 0, 67, 95
1, 73284, Note_on_c, 0, 63, 0
1, 73291, Control_c, 0, 67, 84
1, 73306, Note_on_c, 0, 58, 29
1, 73308, Control_c, 0, 64, 121
1, 73310, Control_c, 0, 67, 73
1, 73328, Control_c, 0, 67, 63
1, 73340, Note_on_c, 0, 55, 0
1, 73347, Control_c, 0, 67, 55
1, 73375, Control_c, 0, 67, 50
1, 73377, Note_on_c, 0, 58, 0
1, 73393, Control_c, 0, 67, 45
1, 73412, Control_c, 0, 67, 40
1, 73430, Control_c, 0, 67, 33
1, 73445, Note_on_c, 0, 75, 68
1, 73450, Control_c, 0, 67, 26
1, 73468, Control_c, 0, 67, 20
1, 73485, Control_c, 0, 64, 115
1, 73486, Control_c, 0, 67, 14
1, 73504, Control_c, 0, 64, 109
1, 73505, Control_c, 0, 67, 10
1, 73507, Note_on_c, 0, 71, 43
1, 73523, Control_c, 0, 64, 98
1, 73542, Control_c, 0, 64, 81
1, 73560, Control_c, 0, 64, 58
1, 73578, Control_c, 0, 64, 19
1, 73587, Note_on_c, 0, 63, 31
1, 73596, Control_c, 0, 64, 13
1, 73597, Control_c, 0, 67, 0
1, 73614, Control_c, 0, 64, 18
1, 73633, Control_c, 0, 64, 25
1, 73651, Control_c, 0, 64, 33
1, 73671, Control_c, 0, 64, 43
1, 73677, Note_on_c, 0, 71, 0
1, 73688, Control_c, 0, 64, 57
1, 73704, Note_on_c, 0, 56, 35
1, 73707, Control_c, 0, 64, 70
1, 73728, Control_c, 0, 64, 85
1, 73745, Control_c, 0, 64, 97
1, 73763, Control_c, 0, 64, 102
1, 73793, Note_on_c, 0, 56, 0
1, 73799, Control_c, 0, 64, 106
1, 73830, Note_on_c, 0, 59, 40
1, 73872, Note_on_c, 0, 59, 0
1, 73933, Note_on_c, 0, 63, 0
1, 73970, Note_on_c, 0, 73, 69
1, 74005, Note_on_c, 0, 67, 42
1, 74039, Control_c, 0, 64, 99
1, 74059, Control_c, 0, 64, 88
1, 74076, Note_on_c, 0, 75, 0
1, 74077, Control_c, 0, 64, 71
1, 74097, Control_c, 0, 64, 44
1, 74115, Control_c, 0, 64, 23
1, 74117, Note_on_c, 0, 63, 53
1, 74153, Control_c, 0, 64, 27
1, 74169, Control_c, 0, 64, 34
1, 74188, Control_c, 0, 64, 42
1, 74207, Control_c, 0, 64, 53
1, 74226, Control_c, 0, 64, 66
1, 74240, Note_on_c, 0, 46, 45
1, 74244, Control_c, 0, 64, 80
1, 74258, Note_on_c, 0, 67, 0
1, 74262, Control_c, 0, 64, 94
1, 74281, Control_c, 0, 64, 100
1, 74311, Control_c, 0, 64, 104
1, 74337, Note_on_c, 0, 46, 0
1, 74346, Control_c, 0, 64, 111
1, 74357, Note_on_c, 0, 49, 50
1, 74383, Control_c, 0, 64, 115
1, 74395, Note_on_c, 0, 49, 0
1, 74457, Control_c, 0, 67, 8
1, 74496, Note_on_c, 0, 71, 70
1, 74532, Control_c, 0, 64, 110
1, 74533, Control_c, 0, 67, 12
1, 74541, Note_on_c, 0, 63, 0
1, 74544, Note_on_c, 0, 68, 54
1, 74549, Control_c, 0, 64, 105
1, 74564, Note_on_c, 0, 73, 0
1, 74565, Control_c, 0, 64, 94
1, 74587, Control_c, 0, 64, 78
1, 74605, Control_c, 0, 64, 56
1, 74624, Control_c, 0, 64, 24
1, 74642, Control_c, 0, 67, 8
1, 74663, Note_on_c, 0, 63, 55
1, 74698, Control_c, 0, 64, 35
1, 74716, Note_on_c, 0, 68, 0
1, 74716, Control_c, 0, 64, 45
1, 74717, Control_c, 0, 67, 0
1, 74734, Control_c, 0, 64, 57
1, 74751, Control_c, 0, 64, 69
1, 74751, Note_on_c, 0, 47, 52
1, 74773, Control_c, 0, 64, 85
1, 74781, Note_on_c, 0, 63, 0
1, 74790, Control_c, 0, 64, 99
1, 74809, Control_c, 0, 64, 108
1, 74828, Control_c, 0, 64, 113
1, 74863, Note_on_c, 0, 51, 61
1, 74865, Control_c, 0, 64, 119
1, 74865, Note_on_c, 0, 47, 0
1, 74902, Note_on_c, 0, 51, 0
1, 75014, Note_on_c, 0, 70, 76
1, 75039, Note_on_c, 0, 67, 61
1, 75050, Control_c, 0, 64, 115
1, 75067, Control_c, 0, 64, 107
1, 75068, Note_on_c, 0, 64, 42
1, 75086, Note_on_c, 0, 71, 0
1, 75086, Control_c, 0, 64, 94
1, 75105, Control_c, 0, 64, 76
1, 75122, Control_c, 0, 64, 52
1, 75141, Control_c, 0, 64, 16
1, 75169, Note_on_c, 0, 61, 59
1, 75171, Note_on_c, 0, 67, 0
1, 75216, Control_c, 0, 64, 26
1, 75243, Note_on_c, 0, 64, 0
1, 75243, Control_c, 0, 64, 38
1, 75263, Control_c, 0, 64, 52
1, 75278, Note_on_c, 0, 49, 59
1, 75281, Control_c, 0, 64, 67
1, 75299, Control_c, 0, 64, 85
1, 75305, Note_on_c, 0, 61, 0
1, 75317, Control_c, 0, 64, 105
1, 75337, Control_c, 0, 64, 119
1, 75355, Control_c, 0, 64, 126
1, 75386, Note_on_c, 0, 49, 0
1, 75400, Note_on_c, 0, 52, 65
1, 75446, Note_on_c, 0, 52, 0
1, 75535, Note_on_c, 0, 71, 76
1, 75555, Note_on_c, 0, 68, 63
1, 75568, Note_on_c, 0, 70, 0
1, 75575, Control_c, 0, 64, 118
1, 75595, Control_c, 0, 64, 104
1, 75596, Note_on_c, 0, 65, 55
1, 75615, Control_c, 0, 64, 86
1, 75634, Control_c, 0, 64, 65
1, 75651, Control_c, 0, 64, 35
1, 75669, Control_c, 0, 64, 26
1, 75701, Note_on_c, 0, 59, 56
1, 75705, Control_c, 0, 64, 30
1, 75724, Control_c, 0, 64, 34
1, 75744, Control_c, 0, 64, 43
1, 75762, Control_c, 0, 64, 55
1, 75772, Note_on_c, 0, 71, 0
1, 75780, Control_c, 0, 64, 70
1, 75780, Note_on_c, 0, 68, 0
1, 75790, Note_on_c, 0, 65, 0
1, 75794, Note_on_c, 0, 50, 60
1, 75800, Control_c, 0, 64, 91
1, 75819, Control_c, 0, 64, 118
1, 75837, Control_c, 0, 64, 127
1, 75847, Note_on_c, 0, 59, 0
1, 75882, Note_on_c, 0, 50, 0
1, 75911, Note_on_c, 0, 53, 64
1, 75947, Note_on_c, 0, 53, 0
1, 75966, Control_c, 0, 67, 8
1, 76093, Note_on_c, 0, 68, 79
1, 76120, Note_on_c, 0, 65, 59
1, 76132, Control_c, 0, 67, 12
1, 76136, Note_on_c, 0, 59, 58
1, 76217, Control_c, 0, 64, 114
1, 76218, Control_c, 0, 67, 17
1, 76233, Control_c, 0, 64, 95
1, 76252, Control_c, 0, 64, 74
1, 76271, Control_c, 0, 64, 43
1, 76289, Control_c, 0, 64, 0
1, 76290, Control_c, 0, 67, 21
1, 76306, Note_on_c, 0, 56, 55
1, 76327, Control_c, 0, 67, 25
1, 76364, Control_c, 0, 64, 18
1, 76365, Control_c, 0, 67, 30
1, 76383, Control_c, 0, 64, 31
1, 76384, Control_c, 0, 67, 34
1, 76402, Control_c, 0, 64, 44
1, 76403, Control_c, 0, 67, 38
1, 76417, Note_on_c, 0, 59, 0
1, 76420, Control_c, 0, 64, 58
1, 76421, Control_c, 0, 67, 43
1, 76440, Control_c, 0, 64, 71
1, 76442, Control_c, 0, 67, 48
1, 76459, Control_c, 0, 64, 84
1, 76461, Note_on_c, 0, 38, 32
1, 76462, Control_c, 0, 67, 54
1, 76469, Note_on_c, 0, 68, 0
1, 76475, Control_c, 0, 64, 92
1, 76477, Control_c, 0, 67, 62
1, 76496, Control_c, 0, 67, 70
1, 76513, Control_c, 0, 67, 79
1, 76514, Note_on_c, 0, 56, 0
1, 76532, Control_c, 0, 64, 97
1, 76533, Control_c, 0, 67, 88
1, 76553, Control_c, 0, 67, 97
1, 76569, Control_c, 0, 67, 106
1, 76589, Control_c, 0, 67, 115
1, 76608, Control_c, 0, 64, 101
1, 76609, Control_c, 0, 67, 122
1, 76619, Note_on_c, 0, 50, 44
1, 76624, Control_c, 0, 67, 127
1, 76680, Note_on_c, 0, 50, 0
1, 76701, Note_on_c, 0, 38, 0
1, 76790, Control_c, 0, 64, 97
1, 76791, Poly_aftertouch_c, 0, 65, 24
1, 76810, Note_on_c, 0, 67, 52
1, 76847, Control_c, 0, 64, 91
1, 76847, Note_on_c, 0, 63, 32
1, 76860, Note_on_c, 0, 65, 0
1, 76884, Control_c, 0, 64, 83
1, 76891, Note_on_c, 0, 58, 26
1, 76904, Control_c, 0, 64, 76
1, 76921, Control_c, 0, 64, 65
1, 76940, Control_c, 0, 64, 46
1, 76959, Control_c, 0, 64, 28
1, 76976, Control_c, 0, 64, 22
1, 77066, Note_on_c, 0, 55, 37
1, 77088, Control_c, 0, 64, 26
1, 77117, Control_c, 0, 64, 31
1, 77135, Control_c, 0, 64, 37
1, 77154, Control_c, 0, 64, 44
1, 77171, Control_c, 0, 64, 51
1, 77189, Control_c, 0, 64, 57
1, 77204, Note_on_c, 0, 39, 37
1, 77207, Control_c, 0, 64, 63
1, 77227, Control_c, 0, 64, 69
1, 77245, Control_c, 0, 64, 77
1, 77255, Note_on_c, 0, 63, 0
1, 77262, Control_c, 0, 64, 83
1, 77270, Note_on_c, 0, 58, 0
1, 77271, Note_on_c, 0, 55, 0
1, 77284, Control_c, 0, 64, 86
1, 77301, Control_c, 0, 64, 88
1, 77315, Note_on_c, 0, 67, 0
1, 77355, Control_c, 0, 64, 92
1, 77403, Note_on_c, 0, 51, 32
1, 77411, Note_on_c, 0, 39, 0
1, 77431, Control_c, 0, 64, 96
1, 77449, Note_on_c, 0, 51, 0
1, 77470, Poly_aftertouch_c, 0, 55, 24
1, 77528, Poly_aftertouch_c, 0, 55, 0
1, 77574, Note_on_c, 0, 67, 52
1, 77647, Control_c, 0, 64, 90
1, 77651, Note_on_c, 0, 63, 22
1, 77656, Note_on_c, 0, 58, 32
1, 77667, Control_c, 0, 64, 83
1, 77687, Control_c, 0, 64, 72
1, 77705, Control_c, 0, 64, 55
1, 77721, Control_c, 0, 64, 34
1, 77782, Note_on_c, 0, 55, 22
1, 77815, Control_c, 0, 64, 40
1, 77833, Control_c, 0, 64, 46
1, 77853, Control_c, 0, 64, 54
1, 77871, Control_c, 0, 64, 62
1, 77877, Note_on_c, 0, 39, 35
1, 77887, Note_on_c, 0, 67, 0
1, 77891, Control_c, 0, 64, 70
1, 77907, Control_c, 0, 64, 80
1, 77914, Note_on_c, 0, 58, 0
1, 77925, Control_c, 0, 64, 88
1, 77944, Control_c, 0, 64, 93
1, 77952, Poly_aftertouch_c, 0, 63, 24
1, 77981, Control_c, 0, 64, 97
1, 77991, Note_on_c, 0, 63, 0
1, 78017, Control_c, 0, 64, 101
1, 78022, Note_on_c, 0, 51, 28
1, 78052, Note_on_c, 0, 39, 0
1, 78070, Note_on_c, 0, 55, 0
1, 78084, Note_on_c, 0, 51, 0
1, 78173, Note_on_c, 0, 68, 56
1, 78213, Control_c, 0, 64, 95
1, 78218, Note_on_c, 0, 59, 40
1, 78225, Note_on_c, 0, 63, 16
1, 78232, Control_c, 0, 64, 85
1, 78251, Control_c, 0, 64, 69
1, 78270, Control_c, 0, 64, 44
1, 78287, Control_c, 0, 64, 26
1, 78305, Control_c, 0, 67, 116
1, 78323, Control_c, 0, 67, 103
1, 78341, Control_c, 0, 64, 34
1, 78342, Control_c, 0, 67, 86
1, 78348, Note_on_c, 0, 56, 42
1, 78361, Control_c, 0, 64, 40
1, 78362, Control_c, 0, 67, 66
1, 78380, Control_c, 0, 64, 48
1, 78381, Control_c, 0, 67, 48
1, 78398, Control_c, 0, 64, 58
1, 78399, Control_c, 0, 67, 36
1, 78418, Note_on_c, 0, 59, 0
1, 78418, Control_c, 0, 64, 69
1, 78418, Control_c, 0, 67, 27
1, 78436, Control_c, 0, 64, 82
1, 78437, Control_c, 0, 67, 20
1, 78446, Note_on_c, 0, 63, 0
1, 78454, Control_c, 0, 64, 95
1, 78456, Control_c, 0, 67, 13
1, 78460, Note_on_c, 0, 44, 47
1, 78471, Control_c, 0, 64, 104
1, 78473, Note_on_c, 0, 68, 0
1, 78489, Note_on_c, 0, 56, 0
1, 78489, Control_c, 0, 64, 110
1, 78510, Control_c, 0, 64, 114
1, 78546, Control_c, 0, 64, 119
1, 78593, Note_on_c, 0, 51, 33
1, 78624, Note_on_c, 0, 44, 0
1, 78639, Note_on_c, 0, 51, 0
1, 78719, Note_on_c, 0, 70, 56
1, 78731, Control_c, 0, 64, 114
1, 78742, Note_on_c, 0, 67, 48
1, 78749, Control_c, 0, 64, 104
1, 78769, Control_c, 0, 64, 90
1, 78786, Control_c, 0, 64, 70
1, 78793, Note_on_c, 0, 63, 33
1, 78805, Control_c, 0, 64, 41
1, 78825, Control_c, 0, 64, 19
1, 78879, Control_c, 0, 64, 26
1, 78889, Note_on_c, 0, 58, 42
1, 78897, Control_c, 0, 64, 34
1, 78916, Control_c, 0, 64, 44
1, 78934, Control_c, 0, 64, 56
1, 78953, Control_c, 0, 64, 68
1, 78980, Control_c, 0, 64, 80
1, 78987, Note_on_c, 0, 39, 41
1, 78993, Note_on_c, 0, 67, 0
1, 79000, Control_c, 0, 64, 91
1, 79020, Control_c, 0, 64, 98
1, 79030, Note_on_c, 0, 70, 0
1, 79054, Note_on_c, 0, 63, 0
1, 79054, Control_c, 0, 64, 105
1, 79061, Note_on_c, 0, 39, 0
1, 79093, Control_c, 0, 64, 111
1, 79110, Control_c, 0, 67, 8
1, 79123, Note_on_c, 0, 58, 0
1, 79141, Note_on_c, 0, 51, 37
1, 79198, Note_on_c, 0, 51, 0
1, 79315, Note_on_c, 0, 71, 56
1, 79329, Note_on_c, 0, 68, 40
1, 79331, Control_c, 0, 64, 102
1, 79351, Control_c, 0, 64, 91
1, 79358, Note_on_c, 0, 63, 33
1, 79371, Control_c, 0, 64, 75
1, 79389, Control_c, 0, 64, 49
1, 79445, Control_c, 0, 64, 11
1, 79458, Note_on_c, 0, 59, 33
1, 79461, Control_c, 0, 64, 18
1, 79481, Control_c, 0, 64, 27
1, 79501, Control_c, 0, 64, 36
1, 79504, Control_c, 0, 67, 0
1, 79518, Control_c, 0, 64, 47
1, 79537, Control_c, 0, 64, 59
1, 79555, Control_c, 0, 64, 69
1, 79560, Note_on_c, 0, 32, 43
1, 79575, Control_c, 0, 64, 79
1, 79593, Control_c, 0, 64, 88
1, 79608, Note_on_c, 0, 71, 0
1, 79608, Control_c, 0, 64, 93
1, 79647, Control_c, 0, 64, 101
1, 79666, Control_c, 0, 64, 105
1, 79678, Note_on_c, 0, 68, 0
1, 79682, Note_on_c, 0, 59, 0
1, 79684, Control_c, 0, 64, 109
1, 79719, Note_on_c, 0, 44, 41
1, 79723, Control_c, 0, 64, 114
1, 79728, Note_on_c, 0, 32, 0
1, 79763, Note_on_c, 0, 44, 0
1, 79815, Note_on_c, 0, 63, 0
1, 79887, Note_on_c, 0, 70, 59
1, 79928, Note_on_c, 0, 67, 41
1, 79939, Note_on_c, 0, 63, 29
1, 79954, Control_c, 0, 64, 110
1, 79973, Control_c, 0, 64, 103
1, 79991, Control_c, 0, 64, 91
1, 80008, Control_c, 0, 64, 72
1, 80026, Control_c, 0, 64, 42
1, 80045, Control_c, 0, 64, 0
1, 80051, Note_on_c, 0, 58, 37
1, 80102, Control_c, 0, 64, 17
1, 80120, Control_c, 0, 64, 30
1, 80139, Control_c, 0, 64, 43
1, 80155, Note_on_c, 0, 39, 44
1, 80156, Control_c, 0, 64, 57
1, 80173, Note_on_c, 0, 67, 0
1, 80174, Control_c, 0, 64, 71
1, 80193, Control_c, 0, 64, 87
1, 80212, Control_c, 0, 64, 101
1, 80222, Note_on_c, 0, 70, 0
1, 80230, Control_c, 0, 64, 110
1, 80249, Control_c, 0, 64, 117
1, 80264, Note_on_c, 0, 63, 0
1, 80267, Control_c, 0, 64, 125
1, 80272, Note_on_c, 0, 39, 0
1, 80282, Note_on_c, 0, 58, 0
1, 80316, Note_on_c, 0, 51, 38
1, 80359, Note_on_c, 0, 51, 0
1, 80462, Note_on_c, 0, 71, 67
1, 80499, Note_on_c, 0, 68, 46
1, 80509, Control_c, 0, 64, 107
1, 80514, Note_on_c, 0, 63, 42
1, 80528, Control_c, 0, 64, 86
1, 80544, Control_c, 0, 64, 65
1, 80564, Control_c, 0, 64, 44
1, 80613, Note_on_c, 0, 59, 49
1, 80619, Control_c, 0, 64, 48
1, 80639, Control_c, 0, 64, 53
1, 80657, Control_c, 0, 64, 61
1, 80675, Control_c, 0, 64, 74
1, 80695, Control_c, 0, 64, 95
1, 80713, Control_c, 0, 64, 127
1, 80732, Note_on_c, 0, 44, 54
1, 80741, Note_on_c, 0, 59, 0
1, 80746, Note_on_c, 0, 71, 0
1, 80748, Note_on_c, 0, 63, 0
1, 80763, Note_on_c, 0, 68, 0
1, 80836, Note_on_c, 0, 44, 0
1, 80878, Note_on_c, 0, 56, 48
1, 80939, Note_on_c, 0, 56, 0
1, 81032, Note_on_c, 0, 73, 69
1, 81066, Note_on_c, 0, 70, 44
1, 81103, Note_on_c, 0, 66, 44
1, 81109, Control_c, 0, 64, 117
1, 81128, Control_c, 0, 64, 89
1, 81147, Control_c, 0, 64, 62
1, 81165, Control_c, 0, 64, 24
1, 81195, Note_on_c, 0, 61, 51
1, 81202, Control_c, 0, 64, 30
1, 81222, Control_c, 0, 64, 39
1, 81240, Control_c, 0, 64, 49
1, 81244, Note_on_c, 0, 70, 0
1, 81259, Control_c, 0, 64, 61
1, 81278, Control_c, 0, 64, 73
1, 81287, Note_on_c, 0, 42, 56
1, 81297, Control_c, 0, 64, 91
1, 81315, Control_c, 0, 64, 110
1, 81318, Note_on_c, 0, 66, 0
1, 81335, Control_c, 0, 64, 127
1, 81345, Note_on_c, 0, 73, 0
1, 81365, Note_on_c, 0, 42, 0
1, 81421, Note_on_c, 0, 61, 0
1, 81435, Note_on_c, 0, 54, 45
1, 81476, Note_on_c, 0, 54, 0
1, 81591, Note_on_c, 0, 75, 70
1, 81617, Note_on_c, 0, 71, 40
1, 81651, Note_on_c, 0, 66, 39
1, 81685, Control_c, 0, 64, 110
1, 81704, Control_c, 0, 64, 83
1, 81723, Control_c, 0, 64, 50
1, 81742, Control_c, 0, 64, 0
1, 81759, Note_on_c, 0, 63, 53
1, 81845, Control_c, 0, 64, 31
1, 81855, Note_on_c, 0, 35, 54
1, 81863, Control_c, 0, 64, 55
1, 81882, Control_c, 0, 64, 75
1, 81901, Control_c, 0, 64, 101
1, 81918, Control_c, 0, 64, 127
1, 81937, Note_on_c, 0, 35, 0
1, 81952, Note_on_c, 0, 75, 0
1, 81989, Note_on_c, 0, 47, 57
1, 82035, Note_on_c, 0, 47, 0
1, 82055, Note_on_c, 0, 66, 0
1, 82073, Note_on_c, 0, 63, 0
1, 82131, Note_on_c, 0, 71, 0
1, 82171, Note_on_c, 0, 73, 79
1, 82201, Note_on_c, 0, 70, 60
1, 82233, Poly_aftertouch_c, 0, 71, 0
1, 82240, Note_on_c, 0, 66, 32
1, 82270, Control_c, 0, 64, 122
1, 82290, Control_c, 0, 64, 94
1, 82310, Control_c, 0, 64, 66
1, 82318, Note_on_c, 0, 61, 54
1, 82327, Control_c, 0, 64, 24
1, 82345, Control_c, 0, 64, 0
1, 82384, Control_c, 0, 64, 13
1, 82401, Control_c, 0, 64, 28
1, 82418, Control_c, 0, 64, 47
1, 82419, Note_on_c, 0, 42, 62
1, 82436, Control_c, 0, 64, 67
1, 82457, Control_c, 0, 64, 90
1, 82465, Note_on_c, 0, 73, 0
1, 82474, Control_c, 0, 64, 127
1, 82541, Note_on_c, 0, 61, 0
1, 82546, Note_on_c, 0, 42, 0
1, 82561, Note_on_c, 0, 54, 60
1, 82605, Note_on_c, 0, 54, 0
1, 82628, Note_on_c, 0, 66, 0
1, 82687, Note_on_c, 0, 75, 87
1, 82712, Note_on_c, 0, 71, 54
1, 82738, Note_on_c, 0, 66, 61
1, 82743, Control_c, 0, 64, 116
1, 82763, Control_c, 0, 64, 84
1, 82781, Control_c, 0, 64, 53
1, 82798, Control_c, 0, 64, 11
1, 82818, Control_c, 0, 64, 18
1, 82824, Note_on_c, 0, 70, 0
1, 82830, Note_on_c, 0, 63, 59
1, 82837, Control_c, 0, 64, 34
1, 82854, Control_c, 0, 64, 50
1, 82872, Control_c, 0, 64, 67
1, 82892, Control_c, 0, 64, 90
1, 82894, Note_on_c, 0, 71, 0
1, 82902, Note_on_c, 0, 66, 0
1, 82911, Control_c, 0, 64, 127
1, 82929, Note_on_c, 0, 47, 73
1, 82971, Note_on_c, 0, 63, 0
1, 82995, Note_on_c, 0, 75, 0
1, 83022, Note_on_c, 0, 47, 0
1, 83064, Note_on_c, 0, 59, 69
1, 83116, Note_on_c, 0, 59, 0
1, 83244, Note_on_c, 0, 77, 85
1, 83268, Note_on_c, 0, 74, 61
1, 83311, Note_on_c, 0, 70, 36
1, 83319, Control_c, 0, 64, 103
1, 83334, Control_c, 0, 64, 75
1, 83349, Control_c, 0, 64, 33
1, 83369, Control_c, 0, 64, 0
1, 83390, Note_on_c, 0, 65, 55
1, 83424, Control_c, 0, 64, 17
1, 83445, Control_c, 0, 64, 37
1, 83462, Control_c, 0, 64, 55
1, 83480, Control_c, 0, 64, 71
1, 83500, Control_c, 0, 64, 93
1, 83518, Control_c, 0, 64, 125
1, 83533, Note_on_c, 0, 46, 53
1, 83574, Note_on_c, 0, 77, 0
1, 83631, Note_on_c, 0, 46, 0
1, 83662, Note_on_c, 0, 70, 0
1, 83667, Note_on_c, 0, 58, 57
1, 83685, Note_on_c, 0, 65, 0
1, 83705, Note_on_c, 0, 58, 0
1, 83808, Note_on_c, 0, 78, 81
1, 83817, Note_on_c, 0, 75, 64
1, 83875, Note_on_c, 0, 70, 42
1, 83916, Control_c, 0, 64, 105
1, 83932, Control_c, 0, 64, 76
1, 83933, Note_on_c, 0, 66, 61
1, 83952, Control_c, 0, 64, 39
1, 83955, Note_on_c, 0, 74, 0
1, 83971, Control_c, 0, 64, 0
1, 84027, Control_c, 0, 64, 24
1, 84046, Control_c, 0, 64, 43
1, 84056, Note_on_c, 0, 39, 66
1, 84064, Control_c, 0, 64, 62
1, 84083, Control_c, 0, 64, 80
1, 84102, Control_c, 0, 64, 107
1, 84119, Control_c, 0, 64, 127
1, 84155, Note_on_c, 0, 66, 0
1, 84155, Note_on_c, 0, 70, 0
1, 84158, Note_on_c, 0, 78, 0
1, 84171, Note_on_c, 0, 75, 0
1, 84179, Note_on_c, 0, 39, 0
1, 84192, Note_on_c, 0, 51, 64
1, 84248, Note_on_c, 0, 51, 0
1, 84329, Note_on_c, 0, 77, 89
1, 84340, Note_on_c, 0, 74, 71
1, 84376, Note_on_c, 0, 70, 56
1, 84435, Control_c, 0, 64, 99
1, 84453, Control_c, 0, 64, 72
1, 84460, Note_on_c, 0, 65, 58
1, 84469, Control_c, 0, 64, 34
1, 84489, Control_c, 0, 64, 0
1, 84507, Control_c, 0, 64, 19
1, 84527, Control_c, 0, 64, 37
1, 84545, Control_c, 0, 64, 56
1, 84563, Note_on_c, 0, 77, 0
1, 84563, Control_c, 0, 64, 74
1, 84583, Control_c, 0, 64, 99
1, 84606, Note_on_c, 0, 46, 72
1, 84610, Control_c, 0, 64, 127
1, 84615, Note_on_c, 0, 70, 0
1, 84701, Note_on_c, 0, 46, 0
1, 84721, Note_on_c, 0, 58, 70
1, 84765, Note_on_c, 0, 58, 0
1, 84793, Note_on_c, 0, 65, 0
1, 84854, Note_on_c, 0, 78, 89
1, 84859, Note_on_c, 0, 75, 75
1, 84885, Note_on_c, 0, 70, 66
1, 84886, Control_c, 0, 64, 123
1, 84906, Control_c, 0, 64, 89
1, 84914, Note_on_c, 0, 74, 0
1, 84925, Control_c, 0, 64, 57
1, 84943, Control_c, 0, 64, 0
1, 84987, Note_on_c, 0, 66, 69
1, 84999, Control_c, 0, 64, 17
1, 85018, Control_c, 0, 64, 41
1, 85035, Control_c, 0, 64, 63
1, 85054, Control_c, 0, 64, 84
1, 85062, Note_on_c, 0, 70, 0
1, 85072, Control_c, 0, 64, 127
1, 85111, Note_on_c, 0, 66, 0
1, 85117, Note_on_c, 0, 51, 75
1, 85118, Note_on_c, 0, 78, 0
1, 85121, Note_on_c, 0, 75, 0
1, 85214, Note_on_c, 0, 51, 0
1, 85240, Note_on_c, 0, 63, 78
1, 85296, Note_on_c, 0, 63, 0
1, 85390, Note_on_c, 0, 80, 90
1, 85408, Note_on_c, 0, 77, 74
1, 85420, Note_on_c, 0, 73, 77
1, 85423, Control_c, 0, 64, 107
1, 85442, Control_c, 0, 64, 74
1, 85461, Control_c, 0, 64, 34
1, 85480, Control_c, 0, 64, 9
1, 85498, Control_c, 0, 64, 25
1, 85517, Control_c, 0, 64, 40
1, 85545, Control_c, 0, 64, 55
1, 85556, Note_on_c, 0, 68, 61
1, 85565, Control_c, 0, 64, 70
1, 85583, Control_c, 0, 64, 91
1, 85599, Control_c, 0, 64, 125
1, 85657, Note_on_c, 0, 80, 0
1, 85666, Note_on_c, 0, 73, 0
1, 85667, Note_on_c, 0, 77, 0
1, 85675, Note_on_c, 0, 49, 67
1, 85701, Note_on_c, 0, 68, 0
1, 85790, Note_on_c, 0, 61, 74
1, 85806, Note_on_c, 0, 49, 0
1, 85831, Note_on_c, 0, 61, 0
1, 85934, Note_on_c, 0, 82, 88
1, 85949, Note_on_c, 0, 78, 68
1, 85958, Note_on_c, 0, 73, 72
1, 86008, Control_c, 0, 64, 93
1, 86025, Control_c, 0, 64, 61
1, 86044, Control_c, 0, 64, 0
1, 86081, Control_c, 0, 64, 18
1, 86082, Note_on_c, 0, 70, 69
1, 86098, Control_c, 0, 64, 33
1, 86118, Control_c, 0, 64, 50
1, 86130, Note_on_c, 0, 78, 0
1, 86137, Control_c, 0, 64, 68
1, 86139, Note_on_c, 0, 73, 0
1, 86155, Control_c, 0, 64, 91
1, 86173, Control_c, 0, 64, 127
1, 86190, Note_on_c, 0, 42, 72
1, 86249, Note_on_c, 0, 70, 0
1, 86279, Note_on_c, 0, 42, 0
1, 86299, Note_on_c, 0, 82, 0
1, 86323, Note_on_c, 0, 54, 70
1, 86367, Note_on_c, 0, 54, 0
1, 86564, Note_on_c, 0, 83, 91
1, 86571, Control_c, 0, 64, 92
1, 86581, Note_on_c, 0, 78, 75
1, 86590, Control_c, 0, 64, 37
1, 86592, Note_on_c, 0, 75, 75
1, 86608, Control_c, 0, 64, 0
1, 86682, Control_c, 0, 64, 36
1, 86700, Control_c, 0, 64, 58
1, 86720, Control_c, 0, 64, 73
1, 86738, Control_c, 0, 64, 88
1, 86754, Note_on_c, 0, 71, 50
1, 86756, Control_c, 0, 64, 99
1, 86776, Control_c, 0, 64, 105
1, 86795, Control_c, 0, 64, 111
1, 86813, Control_c, 0, 64, 122
1, 86827, Note_on_c, 0, 83, 0
1, 86831, Control_c, 0, 64, 127
1, 86886, Note_on_c, 0, 75, 0
1, 86906, Note_on_c, 0, 78, 0
1, 86915, Note_on_c, 0, 66, 42
1, 86941, Note_on_c, 0, 71, 0
1, 86996, Note_on_c, 0, 66, 0
1, 87031, Note_on_c, 0, 54, 39
1, 87097, Note_on_c, 0, 54, 0
1, 87174, Note_on_c, 0, 80, 61
1, 87186, Note_on_c, 0, 78, 47
1, 87198, Note_on_c, 0, 71, 52
1, 87232, Control_c, 0, 64, 112
1, 87251, Control_c, 0, 64, 89
1, 87270, Control_c, 0, 64, 69
1, 87289, Control_c, 0, 64, 56
1, 87306, Control_c, 0, 64, 58
1, 87324, Note_on_c, 0, 68, 38
1, 87324, Control_c, 0, 64, 62
1, 87345, Control_c, 0, 64, 69
1, 87357, Note_on_c, 0, 71, 0
1, 87362, Control_c, 0, 64, 80
1, 87375, Note_on_c, 0, 80, 0
1, 87381, Control_c, 0, 64, 97
1, 87408, Control_c, 0, 64, 114
1, 87415, Note_on_c, 0, 78, 0
1, 87426, Control_c, 0, 64, 127
1, 87446, Note_on_c, 0, 42, 61
1, 87525, Note_on_c, 0, 68, 0
1, 87529, Note_on_c, 0, 42, 0
1, 87579, Note_on_c, 0, 54, 61
1, 87619, Note_on_c, 0, 54, 0
1, 87721, Note_on_c, 0, 82, 88
1, 87724, Control_c, 0, 64, 101
1, 87737, Note_on_c, 0, 78, 71
1, 87743, Control_c, 0, 64, 65
1, 87747, Note_on_c, 0, 73, 76
1, 87761, Control_c, 0, 64, 0
1, 87816, Control_c, 0, 64, 18
1, 87835, Control_c, 0, 64, 43
1, 87853, Control_c, 0, 64, 62
1, 87873, Control_c, 0, 64, 77
1, 87880, Note_on_c, 0, 70, 56
1, 87891, Control_c, 0, 64, 95
1, 87909, Control_c, 0, 64, 109
1, 87928, Control_c, 0, 64, 117
1, 87942, Note_on_c, 0, 73, 0
1, 87946, Control_c, 0, 64, 125
1, 87962, Note_on_c, 0, 78, 0
1, 87999, Note_on_c, 0, 66, 53
1, 88032, Note_on_c, 0, 70, 0
1, 88059, Control_c, 0, 67, 8
1, 88062, Note_on_c, 0, 66, 0
1, 88088, Note_on_c, 0, 82, 0
1, 88110, Note_on_c, 0, 54, 42
1, 88172, Note_on_c, 0, 54, 0
1, 88295, Note_on_c, 0, 83, 68
1, 88318, Control_c, 0, 64, 103
1, 88340, Note_on_c, 0, 75, 54
1, 88344, Control_c, 0, 64, 82
1, 88346, Note_on_c, 0, 78, 39
1, 88362, Control_c, 0, 64, 64
1, 88380, Control_c, 0, 64, 51
1, 88400, Control_c, 0, 64, 55
1, 88401, Control_c, 0, 67, 0
1, 88419, Control_c, 0, 64, 60
1, 88436, Control_c, 0, 64, 66
1, 88450, Note_on_c, 0, 71, 43
1, 88456, Control_c, 0, 64, 76
1, 88475, Control_c, 0, 64, 92
1, 88492, Control_c, 0, 64, 110
1, 88499, Note_on_c, 0, 83, 0
1, 88511, Control_c, 0, 64, 127
1, 88537, Note_on_c, 0, 75, 0
1, 88552, Note_on_c, 0, 71, 0
1, 88563, Note_on_c, 0, 78, 0
1, 88565, Note_on_c, 0, 42, 58
1, 88655, Note_on_c, 0, 42, 0
1, 88692, Note_on_c, 0, 54, 70
1, 88725, Note_on_c, 0, 54, 0
1, 88757, Poly_aftertouch_c, 0, 78, 0
1, 88843, Control_c, 0, 64, 95
1, 88843, Note_on_c, 0, 85, 93
1, 88862, Control_c, 0, 64, 46
1, 88864, Note_on_c, 0, 82, 69
1, 88874, Note_on_c, 0, 78, 73
1, 88880, Control_c, 0, 64, 0
1, 88936, Control_c, 0, 64, 24
1, 88955, Control_c, 0, 64, 51
1, 88973, Control_c, 0, 64, 70
1, 88988, Note_on_c, 0, 73, 65
1, 88992, Control_c, 0, 64, 92
1, 89011, Control_c, 0, 64, 115
1, 89030, Control_c, 0, 64, 127
1, 89032, Note_on_c, 0, 82, 0
1, 89074, Note_on_c, 0, 78, 0
1, 89092, Note_on_c, 0, 66, 54
1, 89135, Note_on_c, 0, 85, 0
1, 89139, Control_c, 0, 67, 9
1, 89141, Note_on_c, 0, 73, 0
1, 89155, Note_on_c, 0, 66, 0
1, 89196, Control_c, 0, 67, 13
1, 89205, Note_on_c, 0, 54, 45
1, 89256, Note_on_c, 0, 54, 0
1, 89394, Note_on_c, 0, 87, 68
1, 89424, Note_on_c, 0, 78, 52
1, 89425, Control_c, 0, 64, 120
1, 89446, Control_c, 0, 64, 95
1, 89459, Note_on_c, 0, 83, 24
1, 89462, Control_c, 0, 64, 73
1, 89482, Control_c, 0, 64, 54
1, 89501, Control_c, 0, 64, 49
1, 89520, Control_c, 0, 64, 56
1, 89537, Control_c, 0, 64, 63
1, 89538, Note_on_c, 0, 75, 50
1, 89549, Note_on_c, 0, 83, 0
1, 89551, Note_on_c, 0, 78, 0
1, 89554, Control_c, 0, 64, 75
1, 89556, Control_c, 0, 67, 0
1, 89576, Control_c, 0, 64, 96
1, 89594, Control_c, 0, 64, 127
1, 89626, Note_on_c, 0, 35, 64
1, 89638, Note_on_c, 0, 87, 0
1, 89662, Note_on_c, 0, 75, 0
1, 89690, Note_on_c, 0, 35, 0
1, 89746, Note_on_c, 0, 47, 66
1, 89781, Note_on_c, 0, 47, 0
1, 89905, Note_on_c, 0, 88, 94
1, 89908, Control_c, 0, 64, 84
1, 89920, Note_on_c, 0, 83, 78
1, 89927, Control_c, 0, 64, 48
1, 89933, Note_on_c, 0, 80, 75
1, 89946, Control_c, 0, 64, 26
1, 89965, Control_c, 0, 64, 36
1, 89982, Control_c, 0, 64, 50
1, 90002, Control_c, 0, 64, 66
1, 90018, Control_c, 0, 64, 88
1, 90037, Control_c, 0, 64, 127
1, 90062, Note_on_c, 0, 76, 60
1, 90114, Note_on_c, 0, 88, 0
1, 90147, Note_on_c, 0, 83, 0
1, 90156, Note_on_c, 0, 80, 0
1, 90168, Note_on_c, 0, 59, 56
1, 90193, Note_on_c, 0, 76, 0
1, 90219, Note_on_c, 0, 59, 0
1, 90288, Note_on_c, 0, 47, 56
1, 90324, Control_c, 0, 67, 9
1, 90330, Note_on_c, 0, 47, 0
1, 90361, Control_c, 0, 67, 14
1, 90398, Control_c, 0, 67, 18
1, 90460, Note_on_c, 0, 85, 63
1, 90465, Note_on_c, 0, 83, 48
1, 90465, Note_on_c, 0, 76, 52
1, 90493, Control_c, 0, 64, 115
1, 90509, Control_c, 0, 64, 87
1, 90529, Control_c, 0, 64, 64
1, 90548, Control_c, 0, 64, 49
1, 90566, Control_c, 0, 64, 53
1, 90583, Control_c, 0, 64, 58
1, 90594, Note_on_c, 0, 73, 52
1, 90601, Control_c, 0, 64, 64
1, 90621, Control_c, 0, 64, 72
1, 90639, Note_on_c, 0, 76, 0
1, 90639, Control_c, 0, 64, 87
1, 90649, Note_on_c, 0, 85, 0
1, 90656, Control_c, 0, 64, 106
1, 90677, Control_c, 0, 64, 126
1, 90708, Note_on_c, 0, 35, 61
1, 90748, Note_on_c, 0, 73, 0
1, 90751, Control_c, 0, 67, 14
1, 90787, Control_c, 0, 67, 9
1, 90793, Note_on_c, 0, 35, 0
1, 90799, Note_on_c, 0, 83, 0
1, 90824, Control_c, 0, 67, 0
1, 90844, Note_on_c, 0, 47, 53
1, 90881, Note_on_c, 0, 47, 0
1, 90929, Poly_aftertouch_c, 0, 83, 24
1, 90973, Control_c, 0, 64, 109
1, 90981, Note_on_c, 0, 87, 88
1, 90990, Control_c, 0, 64, 67
1, 90999, Note_on_c, 0, 83, 31
1, 91001, Note_on_c, 0, 78, 86
1, 91010, Control_c, 0, 64, 0
1, 91047, Control_c, 0, 64, 20
1, 91065, Control_c, 0, 64, 49
1, 91086, Control_c, 0, 64, 71
1, 91103, Control_c, 0, 64, 100
1, 91121, Control_c, 0, 64, 127
1, 91142, Note_on_c, 0, 75, 64
1, 91197, Note_on_c, 0, 78, 0
1, 91248, Note_on_c, 0, 83, 0
1, 91268, Note_on_c, 0, 59, 52
1, 91285, Note_on_c, 0, 75, 0
1, 91306, Note_on_c, 0, 59, 0
1, 91312, Note_on_c, 0, 87, 0
1, 91354, Note_on_c, 0, 47, 53
1, 91398, Note_on_c, 0, 47, 0
1, 91541, Note_on_c, 0, 88, 64
1, 91566, Note_on_c, 0, 83, 42
1, 91590, Note_on_c, 0, 80, 51
1, 91592, Control_c, 0, 64, 112
1, 91611, Control_c, 0, 64, 83
1, 91631, Control_c, 0, 64, 57
1, 91648, Control_c, 0, 64, 41
1, 91665, Note_on_c, 0, 76, 49
1, 91667, Control_c, 0, 64, 45
1, 91687, Control_c, 0, 64, 53
1, 91703, Control_c, 0, 64, 63
1, 91720, Note_on_c, 0, 88, 0
1, 91721, Control_c, 0, 64, 78
1, 91740, Control_c, 0, 64, 102
1, 91751, Note_on_c, 0, 80, 0
1, 91759, Control_c, 0, 64, 127
1, 91759, Note_on_c, 0, 83, 0
1, 91777, Note_on_c, 0, 35, 62
1, 91778, Note_on_c, 0, 76, 0
1, 91851, Note_on_c, 0, 35, 0
1, 91909, Note_on_c, 0, 47, 49
1, 91949, Note_on_c, 0, 47, 0
1, 92002, Poly_aftertouch_c, 0, 83, 0
1, 92057, Control_c, 0, 64, 93
1, 92075, Note_on_c, 0, 90, 92
1, 92082, Control_c, 0, 64, 46
1, 92096, Note_on_c, 0, 87, 73
1, 92101, Control_c, 0, 64, 0
1, 92105, Note_on_c, 0, 83, 74
1, 92157, Control_c, 0, 64, 18
1, 92159, Control_c, 0, 67, 8
1, 92177, Control_c, 0, 64, 44
1, 92195, Control_c, 0, 64, 64
1, 92195, Control_c, 0, 67, 17
1, 92214, Control_c, 0, 64, 80
1, 92215, Control_c, 0, 67, 23
1, 92233, Control_c, 0, 64, 100
1, 92235, Control_c, 0, 67, 31
1, 92239, Note_on_c, 0, 78, 55
1, 92251, Control_c, 0, 64, 121
1, 92252, Control_c, 0, 67, 42
1, 92268, Control_c, 0, 64, 127
1, 92269, Control_c, 0, 67, 53
1, 92286, Control_c, 0, 67, 63
1, 92298, Note_on_c, 0, 90, 0
1, 92303, Note_on_c, 0, 83, 0
1, 92305, Control_c, 0, 67, 72
1, 92313, Note_on_c, 0, 87, 0
1, 92323, Control_c, 0, 67, 80
1, 92342, Control_c, 0, 67, 87
1, 92361, Control_c, 0, 67, 92
1, 92367, Note_on_c, 0, 59, 45
1, 92391, Note_on_c, 0, 78, 0
1, 92405, Note_on_c, 0, 59, 0
1, 92444, Note_on_c, 0, 47, 54
1, 92486, Note_on_c, 0, 47, 0
1, 92655, Note_on_c, 0, 87, 62
1, 92673, Note_on_c, 0, 78, 53
1, 92714, Note_on_c, 0, 83, 24
1, 92731, Control_c, 0, 64, 103
1, 92750, Control_c, 0, 64, 77
1, 92769, Control_c, 0, 64, 49
1, 92789, Control_c, 0, 64, 28
1, 92800, Note_on_c, 0, 75, 45
1, 92822, Control_c, 0, 64, 34
1, 92842, Control_c, 0, 64, 40
1, 92860, Control_c, 0, 64, 48
1, 92867, Note_on_c, 0, 78, 0
1, 92879, Control_c, 0, 64, 59
1, 92898, Control_c, 0, 64, 71
1, 92911, Note_on_c, 0, 45, 47
1, 92917, Control_c, 0, 64, 90
1, 92919, Control_c, 0, 67, 88
1, 92935, Control_c, 0, 64, 116
1, 92950, Note_on_c, 0, 83, 0
1, 92952, Control_c, 0, 64, 127
1, 92953, Control_c, 0, 67, 82
1, 92972, Control_c, 0, 67, 74
1, 92977, Note_on_c, 0, 75, 0
1, 92991, Control_c, 0, 67, 60
1, 93018, Control_c, 0, 67, 38
1, 93037, Control_c, 0, 67, 12
1, 93048, Note_on_c, 0, 45, 0
1, 93049, Note_on_c, 0, 57, 49
1, 93055, Control_c, 0, 67, 0
1, 93064, Note_on_c, 0, 87, 0
1, 93141, Note_on_c, 0, 57, 0
1, 93184, Note_on_c, 0, 88, 84
1, 93185, Control_c, 0, 64, 112
1, 93201, Control_c, 0, 64, 79
1, 93206, Note_on_c, 0, 83, 62
1, 93218, Note_on_c, 0, 80, 63
1, 93220, Control_c, 0, 64, 46
1, 93240, Control_c, 0, 64, 27
1, 93258, Control_c, 0, 64, 32
1, 93259, Control_c, 0, 67, 8
1, 93278, Control_c, 0, 64, 39
1, 93295, Control_c, 0, 64, 47
1, 93297, Control_c, 0, 67, 12
1, 93301, Note_on_c, 0, 76, 62
1, 93315, Control_c, 0, 64, 59
1, 93336, Control_c, 0, 64, 72
1, 93337, Control_c, 0, 67, 17
1, 93353, Control_c, 0, 64, 91
1, 93371, Control_c, 0, 64, 111
1, 93388, Control_c, 0, 64, 123
1, 93389, Control_c, 0, 67, 21
1, 93393, Note_on_c, 0, 76, 0
1, 93394, Note_on_c, 0, 80, 0
1, 93406, Control_c, 0, 64, 127
1, 93407, Note_on_c, 0, 88, 0
1, 93420, Note_on_c, 0, 83, 0
1, 93449, Note_on_c, 0, 56, 41
1, 93531, Note_on_c, 0, 56, 0
1, 93556, Note_on_c, 0, 44, 42
1, 93612, Note_on_c, 0, 44, 0
1, 93711, Note_on_c, 0, 90, 64
1, 93722, Control_c, 0, 67, 17
1, 93751, Note_on_c, 0, 87, 42
1, 93751, Note_on_c, 0, 83, 46
1, 93757, Control_c, 0, 64, 119
1, 93777, Control_c, 0, 64, 92
1, 93797, Control_c, 0, 64, 67
1, 93799, Control_c, 0, 67, 12
1, 93814, Control_c, 0, 64, 43
1, 93832, Control_c, 0, 67, 0
1, 93846, Note_on_c, 0, 87, 0
1, 93852, Control_c, 0, 64, 52
1, 93854, Note_on_c, 0, 81, 54
1, 93870, Control_c, 0, 64, 61
1, 93886, Note_on_c, 0, 90, 0
1, 93888, Control_c, 0, 64, 74
1, 93888, Note_on_c, 0, 83, 0
1, 93908, Control_c, 0, 64, 96
1, 93926, Control_c, 0, 64, 127
1, 93977, Note_on_c, 0, 42, 63
1, 94041, Note_on_c, 0, 42, 0
1, 94097, Note_on_c, 0, 54, 52
1, 94131, Note_on_c, 0, 54, 0
1, 94208, Note_on_c, 0, 81, 0
1, 94212, Control_c, 0, 64, 110
1, 94231, Control_c, 0, 64, 65
1, 94237, Note_on_c, 0, 92, 96
1, 94250, Control_c, 0, 64, 0
1, 94254, Note_on_c, 0, 83, 86
1, 94257, Note_on_c, 0, 88, 72
1, 94306, Control_c, 0, 64, 34
1, 94318, Poly_aftertouch_c, 0, 86, 0
1, 94324, Control_c, 0, 64, 60
1, 94343, Control_c, 0, 64, 79
1, 94362, Control_c, 0, 64, 104
1, 94375, Note_on_c, 0, 88, 0
1, 94381, Control_c, 0, 64, 127
1, 94402, Note_on_c, 0, 80, 65
1, 94463, Note_on_c, 0, 83, 0
1, 94466, Note_on_c, 0, 92, 0
1, 94487, Poly_aftertouch_c, 0, 88, 0
1, 94511, Note_on_c, 0, 52, 57
1, 94514, Note_on_c, 0, 80, 0
1, 94564, Note_on_c, 0, 52, 0
1, 94618, Note_on_c, 0, 40, 48
1, 94660, Note_on_c, 0, 40, 0
1, 94775, Note_on_c, 0, 93, 75
1, 94792, Control_c, 0, 64, 98
1, 94796, Note_on_c, 0, 84, 62
1, 94797, Note_on_c, 0, 90, 52
1, 94808, Control_c, 0, 64, 70
1, 94827, Control_c, 0, 64, 44
1, 94866, Control_c, 0, 64, 50
1, 94891, Control_c, 0, 64, 58
1, 94909, Control_c, 0, 64, 69
1, 94911, Note_on_c, 0, 81, 56
1, 94928, Control_c, 0, 64, 89
1, 94948, Control_c, 0, 64, 124
1, 94950, Note_on_c, 0, 84, 0
1, 94959, Note_on_c, 0, 93, 0
1, 94990, Note_on_c, 0, 90, 0
1, 95014, Note_on_c, 0, 81, 0
1, 95031, Note_on_c, 0, 39, 72
1, 95126, Note_on_c, 0, 39, 0
1, 95152, Note_on_c, 0, 51, 77
1, 95186, Note_on_c, 0, 51, 0
1, 95308, Note_on_c, 0, 94, 97
1, 95317, Control_c, 0, 64, 72
1, 95330, Note_on_c, 0, 91, 75
1, 95332, Note_on_c, 0, 88, 82
1, 95334, Control_c, 0, 64, 0
1, 95411, Control_c, 0, 64, 26
1, 95412, Control_c, 0, 67, 8
1, 95430, Control_c, 0, 64, 52
1, 95432, Control_c, 0, 67, 12
1, 95446, Control_c, 0, 64, 70
1, 95448, Control_c, 0, 67, 17
1, 95465, Control_c, 0, 64, 89
1, 95467, Control_c, 0, 67, 21
1, 95469, Note_on_c, 0, 82, 62
1, 95483, Control_c, 0, 64, 114
1, 95485, Control_c, 0, 67, 27
1, 95503, Control_c, 0, 64, 127
1, 95504, Control_c, 0, 67, 33
1, 95521, Control_c, 0, 67, 39
1, 95539, Control_c, 0, 67, 46
1, 95557, Note_on_c, 0, 88, 0
1, 95557, Control_c, 0, 67, 52
1, 95575, Note_on_c, 0, 82, 0
1, 95576, Control_c, 0, 67, 56
1, 95587, Note_on_c, 0, 49, 47
1, 95614, Control_c, 0, 67, 60
1, 95624, Note_on_c, 0, 94, 0
1, 95626, Note_on_c, 0, 49, 0
1, 95690, Note_on_c, 0, 37, 57
1, 95707, Note_on_c, 0, 91, 0
1, 95731, Note_on_c, 0, 37, 0
1, 95801, Control_c, 0, 67, 64
1, 95895, Note_on_c, 0, 95, 68
1, 95900, Note_on_c, 0, 87, 61
1, 95919, Control_c, 0, 64, 114
1, 95938, Control_c, 0, 64, 87
1, 95957, Control_c, 0, 64, 61
1, 95977, Control_c, 0, 64, 34
1, 96024, Note_on_c, 0, 83, 54
1, 96029, Control_c, 0, 64, 41
1, 96050, Control_c, 0, 64, 48
1, 96067, Control_c, 0, 64, 56
1, 96085, Control_c, 0, 64, 65
1, 96094, Note_on_c, 0, 87, 0
1, 96105, Control_c, 0, 64, 75
1, 96115, Note_on_c, 0, 95, 0
1, 96120, Note_on_c, 0, 35, 45
1, 96124, Control_c, 0, 64, 88
1, 96142, Control_c, 0, 64, 100
1, 96160, Control_c, 0, 64, 107
1, 96181, Control_c, 0, 64, 112
1, 96196, Control_c, 0, 64, 117
1, 96209, Note_on_c, 0, 35, 0
1, 96213, Control_c, 0, 64, 124
1, 96259, Note_on_c, 0, 47, 46
1, 96297, Note_on_c, 0, 47, 0
1, 96409, Note_on_c, 0, 92, 60
1, 96426, Note_on_c, 0, 95, 53
1, 96427, Note_on_c, 0, 83, 0
1, 96437, Control_c, 0, 64, 109
1, 96456, Control_c, 0, 64, 86
1, 96475, Control_c, 0, 64, 63
1, 96493, Control_c, 0, 64, 43
1, 96531, Control_c, 0, 64, 45
1, 96549, Control_c, 0, 64, 48
1, 96562, Note_on_c, 0, 83, 42
1, 96566, Control_c, 0, 64, 54
1, 96586, Control_c, 0, 64, 62
1, 96604, Control_c, 0, 64, 73
1, 96622, Control_c, 0, 64, 89
1, 96624, Control_c, 0, 67, 60
1, 96641, Control_c, 0, 64, 111
1, 96656, Note_on_c, 0, 95, 0
1, 96661, Control_c, 0, 64, 127
1, 96665, Note_on_c, 0, 53, 45
1, 96698, Control_c, 0, 67, 55
1, 96734, Note_on_c, 0, 92, 0
1, 96734, Control_c, 0, 67, 44
1, 96749, Note_on_c, 0, 53, 0
1, 96760, Control_c, 0, 67, 30
1, 96774, Control_c, 0, 67, 11
1, 96781, Note_on_c, 0, 41, 37
1, 96792, Control_c, 0, 67, 0
1, 96882, Note_on_c, 0, 41, 0
1, 96924, Note_on_c, 0, 83, 0
1, 96927, Note_on_c, 0, 93, 67
1, 96937, Note_on_c, 0, 95, 67
1, 96960, Control_c, 0, 64, 100
1, 96979, Control_c, 0, 64, 74
1, 96997, Control_c, 0, 64, 48
1, 97015, Control_c, 0, 64, 40
1, 97035, Control_c, 0, 64, 42
1, 97048, Note_on_c, 0, 83, 59
1, 97054, Control_c, 0, 64, 47
1, 97071, Control_c, 0, 64, 53
1, 97091, Control_c, 0, 64, 61
1, 97109, Control_c, 0, 64, 74
1, 97127, Control_c, 0, 64, 94
1, 97144, Control_c, 0, 64, 127
1, 97178, Note_on_c, 0, 95, 0
1, 97180, Note_on_c, 0, 42, 41
1, 97245, Note_on_c, 0, 93, 0
1, 97263, Note_on_c, 0, 42, 0
1, 97291, Note_on_c, 0, 54, 47
1, 97324, Note_on_c, 0, 54, 0
1, 97440, Note_on_c, 0, 90, 74
1, 97440, Control_c, 0, 64, 105
1, 97447, Note_on_c, 0, 95, 74
1, 97462, Control_c, 0, 64, 76
1, 97467, Note_on_c, 0, 83, 0
1, 97479, Control_c, 0, 64, 49
1, 97495, Control_c, 0, 64, 42
1, 97515, Control_c, 0, 64, 47
1, 97533, Control_c, 0, 64, 53
1, 97552, Control_c, 0, 64, 60
1, 97571, Control_c, 0, 64, 72
1, 97582, Note_on_c, 0, 83, 62
1, 97589, Control_c, 0, 64, 92
1, 97609, Control_c, 0, 64, 127
1, 97699, Note_on_c, 0, 51, 58
1, 97739, Note_on_c, 0, 95, 0
1, 97764, Note_on_c, 0, 51, 0
1, 97799, Note_on_c, 0, 90, 0
1, 97800, Note_on_c, 0, 39, 61
1, 97839, Note_on_c, 0, 39, 0
1, 97956, Note_on_c, 0, 83, 0
1, 97957, Note_on_c, 0, 87, 86
1, 97967, Note_on_c, 0, 95, 82
1, 97989, Control_c, 0, 64, 91
1, 97991, Control_c, 0, 67, 8
1, 98006, Control_c, 0, 64, 59
1, 98025, Control_c, 0, 64, 15
1, 98061, Control_c, 0, 64, 21
1, 98081, Control_c, 0, 64, 34
1, 98093, Note_on_c, 0, 83, 69
1, 98100, Control_c, 0, 64, 50
1, 98101, Control_c, 0, 67, 0
1, 98117, Control_c, 0, 64, 66
1, 98137, Control_c, 0, 64, 86
1, 98154, Control_c, 0, 64, 119
1, 98161, Note_on_c, 0, 95, 0
1, 98174, Control_c, 0, 64, 127
1, 98206, Note_on_c, 0, 35, 67
1, 98257, Note_on_c, 0, 87, 0
1, 98283, Note_on_c, 0, 35, 0
1, 98333, Note_on_c, 0, 47, 62
1, 98369, Note_on_c, 0, 47, 0
1, 98468, Control_c, 0, 64, 105
1, 98480, Note_on_c, 0, 92, 88
1, 98483, Note_on_c, 0, 95, 88
1, 98487, Control_c, 0, 64, 71
1, 98506, Control_c, 0, 64, 30
1, 98524, Control_c, 0, 64, 24
1, 98544, Control_c, 0, 64, 42
1, 98561, Control_c, 0, 64, 62
1, 98566, Note_on_c, 0, 83, 0
1, 98581, Control_c, 0, 64, 87
1, 98600, Control_c, 0, 64, 127
1, 98631, Note_on_c, 0, 83, 66
1, 98753, Note_on_c, 0, 53, 71
1, 98763, Note_on_c, 0, 95, 0
1, 98824, Note_on_c, 0, 53, 0
1, 98847, Note_on_c, 0, 92, 0
1, 98859, Note_on_c, 0, 41, 71
1, 98896, Note_on_c, 0, 41, 0
1, 98975, Note_on_c, 0, 83, 0
1, 98978, Control_c, 0, 64, 82
1, 98993, Note_on_c, 0, 93, 88
1, 98993, Note_on_c, 0, 95, 93
1, 98994, Control_c, 0, 64, 26
1, 99014, Control_c, 0, 64, 0
1, 99034, Control_c, 0, 64, 24
1, 99053, Control_c, 0, 64, 56
1, 99070, Control_c, 0, 64, 77
1, 99089, Control_c, 0, 64, 110
1, 99106, Control_c, 0, 64, 127
1, 99110, Note_on_c, 0, 83, 78
1, 99242, Note_on_c, 0, 42, 80
1, 99250, Note_on_c, 0, 95, 0
1, 99320, Note_on_c, 0, 93, 0
1, 99349, Note_on_c, 0, 42, 0
1, 99366, Note_on_c, 0, 54, 76
1, 99418, Note_on_c, 0, 54, 0
1, 99459, Control_c, 0, 64, 84
1, 99478, Control_c, 0, 64, 0
1, 99502, Note_on_c, 0, 95, 99
1, 99509, Note_on_c, 0, 90, 89
1, 99532, Control_c, 0, 64, 36
1, 99561, Control_c, 0, 64, 67
1, 99571, Note_on_c, 0, 83, 0
1, 99579, Control_c, 0, 64, 100
1, 99598, Control_c, 0, 64, 127
1, 99642, Note_on_c, 0, 83, 84
1, 99754, Note_on_c, 0, 51, 81
1, 99755, Note_on_c, 0, 95, 0
1, 99836, Note_on_c, 0, 51, 0
1, 99856, Note_on_c, 0, 90, 0
1, 99863, Note_on_c, 0, 39, 78
1, 99915, Note_on_c, 0, 39, 0
1, 99986, Control_c, 0, 64, 86
1, 100006, Control_c, 0, 64, 0
1, 100016, Note_on_c, 0, 95, 103
1, 100019, Note_on_c, 0, 87, 95
1, 100062, Control_c, 0, 64, 20
1, 100080, Control_c, 0, 64, 55
1, 100088, Note_on_c, 0, 83, 0
1, 100100, Control_c, 0, 64, 81
1, 100118, Control_c, 0, 64, 127
1, 100153, Note_on_c, 0, 83, 78
1, 100190, Note_on_c, 0, 95, 0
1, 100196, Note_on_c, 0, 87, 0
1, 100246, Note_on_c, 0, 35, 82
1, 100328, Note_on_c, 0, 35, 0
1, 100383, Note_on_c, 0, 47, 78
1, 100424, Note_on_c, 0, 47, 0
1, 100486, Control_c, 0, 64, 106
1, 100515, Control_c, 0, 64, 54
1, 100526, Note_on_c, 0, 95, 98
1, 100530, Note_on_c, 0, 92, 93
1, 100533, Control_c, 0, 64, 0
1, 100571, Control_c, 0, 64, 33
1, 100589, Control_c, 0, 64, 67
1, 100591, Note_on_c, 0, 83, 0
1, 100608, Control_c, 0, 64, 107
1, 100623, Control_c, 0, 64, 127
1, 100648, Note_on_c, 0, 83, 70
1, 100729, Note_on_c, 0, 95, 0
1, 100771, Note_on_c, 0, 53, 83
1, 100776, Note_on_c, 0, 83, 0
1, 100838, Note_on_c, 0, 92, 0
1, 100859, Note_on_c, 0, 53, 0
1, 100882, Note_on_c, 0, 41, 89
1, 100945, Note_on_c, 0, 41, 0
1, 101013, Control_c, 0, 64, 72
1, 101033, Control_c, 0, 64, 0
1, 101036, Note_on_c, 0, 95, 102
1, 101037, Note_on_c, 0, 93, 94
1, 101069, Control_c, 0, 64, 17
1, 101088, Control_c, 0, 64, 53
1, 101106, Control_c, 0, 64, 78
1, 101125, Control_c, 0, 64, 127
1, 101167, Note_on_c, 0, 83, 87
1, 101186, Note_on_c, 0, 95, 0
1, 101267, Note_on_c, 0, 42, 86
1, 101321, Note_on_c, 0, 93, 0
1, 101397, Note_on_c, 0, 54, 91
1, 101423, Note_on_c, 0, 42, 0
1, 101455, Note_on_c, 0, 54, 0
1, 101544, Control_c, 0, 64, 94
1, 101559, Note_on_c, 0, 95, 102
1, 101559, Note_on_c, 0, 88, 99
1, 101561, Control_c, 0, 64, 0
1, 101613, Note_on_c, 0, 83, 0
1, 101618, Control_c, 0, 64, 23
1, 101637, Control_c, 0, 64, 63
1, 101655, Control_c, 0, 64, 110
1, 101673, Control_c, 0, 64, 127
1, 101705, Note_on_c, 0, 83, 91
1, 101772, Note_on_c, 0, 95, 0
1, 101820, Note_on_c, 0, 49, 93
1, 101894, Note_on_c, 0, 88, 0
1, 101946, Note_on_c, 0, 37, 87
1, 101962, Note_on_c, 0, 49, 0
1, 102019, Note_on_c, 0, 37, 0
1, 102117, Note_on_c, 0, 95, 102
1, 102117, Control_c, 0, 64, 71
1, 102120, Note_on_c, 0, 90, 97
1, 102136, Control_c, 0, 64, 0
1, 102166, Note_on_c, 0, 83, 0
1, 102231, Control_c, 0, 64, 28
1, 102249, Control_c, 0, 64, 76
1, 102268, Control_c, 0, 64, 127
1, 102279, Note_on_c, 0, 83, 98
1, 102294, Note_on_c, 0, 95, 0
1, 102335, Note_on_c, 0, 83, 0
1, 102341, Note_on_c, 0, 92, 12
1, 102373, Note_on_c, 0, 90, 0
1, 102414, Note_on_c, 0, 39, 90
1, 102426, Note_on_c, 0, 92, 0
1, 102598, Note_on_c, 0, 39, 0
1, 102622, Note_on_c, 0, 51, 97
1, 102623, Note_on_c, 0, 43, 17
1, 102687, Note_on_c, 0, 43, 0
1, 102696, Note_on_c, 0, 51, 0
1, 102713, Poly_aftertouch_c, 0, 46, 0
1, 102903, Note_on_c, 0, 92, 99
1, 102905, Control_c, 0, 64, 96
1, 102925, Control_c, 0, 64, 0
1, 103018, Control_c, 0, 64, 49
1, 103036, Control_c, 0, 64, 77
1, 103054, Control_c, 0, 64, 125
1, 103141, Note_on_c, 0, 95, 96
1, 103150, Note_on_c, 0, 92, 0
1, 103239, Note_on_c, 0, 95, 0
1, 103327, Note_on_c, 0, 40, 88
1, 103503, Note_on_c, 0, 52, 88
1, 103526, Note_on_c, 0, 40, 0
1, 103650, Note_on_c, 0, 95, 98
1, 103673, Note_on_c, 0, 52, 0
1, 103792, Note_on_c, 0, 90, 89
1, 103905, Note_on_c, 0, 95, 0
1, 103919, Note_on_c, 0, 39, 89
1, 103954, Control_c, 0, 64, 108
1, 103973, Control_c, 0, 64, 59
1, 103991, Control_c, 0, 64, 0
1, 104051, Note_on_c, 0, 51, 87
1, 104084, Control_c, 0, 64, 30
1, 104102, Control_c, 0, 64, 54
1, 104121, Control_c, 0, 64, 70
1, 104139, Control_c, 0, 64, 88
1, 104158, Control_c, 0, 64, 110
1, 104177, Control_c, 0, 64, 127
1, 104201, Poly_aftertouch_c, 0, 95, 0
1, 104203, Note_on_c, 0, 90, 0
1, 104205, Note_on_c, 0, 88, 90
1, 104233, Note_on_c, 0, 39, 0
1, 104247, Note_on_c, 0, 51, 0
1, 104340, Note_on_c, 0, 92, 91
1, 104443, Control_c, 0, 64, 101
1, 104463, Control_c, 0, 64, 63
1, 104477, Note_on_c, 0, 37, 81
1, 104482, Control_c, 0, 64, 0
1, 104499, Control_c, 0, 64, 15
1, 104519, Control_c, 0, 64, 39
1, 104537, Control_c, 0, 64, 54
1, 104540, Note_on_c, 0, 88, 0
1, 104548, Note_on_c, 0, 92, 0
1, 104556, Control_c, 0, 64, 71
1, 104576, Control_c, 0, 64, 95
1, 104593, Control_c, 0, 64, 127
1, 104611, Note_on_c, 0, 49, 84
1, 104692, Note_on_c, 0, 37, 0
1, 104715, Note_on_c, 0, 49, 0
1, 104747, Note_on_c, 0, 92, 89
1, 104818, Note_on_c, 0, 90, 18
1, 104876, Note_on_c, 0, 87, 88
1, 104881, Note_on_c, 0, 90, 0
1, 104945, Control_c, 0, 64, 105
1, 104962, Control_c, 0, 64, 64
1, 104981, Control_c, 0, 64, 0
1, 104996, Note_on_c, 0, 35, 82
1, 105019, Control_c, 0, 64, 24
1, 105037, Control_c, 0, 64, 45
1, 105055, Control_c, 0, 64, 65
1, 105074, Control_c, 0, 64, 85
1, 105086, Note_on_c, 0, 87, 0
1, 105091, Control_c, 0, 64, 118
1, 105112, Control_c, 0, 64, 127
1, 105125, Note_on_c, 0, 47, 85
1, 105196, Note_on_c, 0, 35, 0
1, 105198, Note_on_c, 0, 47, 0
1, 105272, Note_on_c, 0, 85, 89
1, 105317, Note_on_c, 0, 92, 0
1, 105404, Note_on_c, 0, 88, 91
1, 105474, Control_c, 0, 64, 109
1, 105492, Control_c, 0, 64, 67
1, 105508, Control_c, 0, 64, 0
1, 105532, Note_on_c, 0, 33, 82
1, 105545, Control_c, 0, 64, 37
1, 105564, Control_c, 0, 64, 56
1, 105583, Control_c, 0, 64, 74
1, 105601, Control_c, 0, 64, 103
1, 105621, Control_c, 0, 64, 127
1, 105652, Note_on_c, 0, 45, 83
1, 105683, Note_on_c, 0, 88, 0
1, 105700, Note_on_c, 0, 85, 0
1, 105702, Note_on_c, 0, 33, 0
1, 105757, Note_on_c, 0, 45, 0
1, 105799, Note_on_c, 0, 88, 96
1, 105930, Note_on_c, 0, 83, 89
1, 105961, Note_on_c, 0, 88, 0
1, 106046, Control_c, 0, 64, 88
1, 106049, Note_on_c, 0, 32, 88
1, 106065, Control_c, 0, 64, 45
1, 106084, Control_c, 0, 64, 0
1, 106103, Control_c, 0, 64, 13
1, 106131, Control_c, 0, 64, 39
1, 106150, Control_c, 0, 64, 57
1, 106169, Control_c, 0, 64, 76
1, 106188, Control_c, 0, 64, 107
1, 106195, Note_on_c, 0, 44, 82
1, 106205, Control_c, 0, 64, 127
1, 106210, Poly_aftertouch_c, 0, 34, 127
1, 106259, Note_on_c, 0, 83, 0
1, 106275, Note_on_c, 0, 32, 0
1, 106286, Poly_aftertouch_c, 0, 34, 0
1, 106302, Note_on_c, 0, 44, 0
1, 106339, Note_on_c, 0, 90, 86
1, 106343, Note_on_c, 0, 83, 87
1, 106352, Note_on_c, 0, 87, 79
1, 106353, Control_c, 0, 67, 8
1, 106501, Note_on_c, 0, 81, 89
1, 106503, Note_on_c, 0, 87, 0
1, 106522, Note_on_c, 0, 90, 0
1, 106541, Note_on_c, 0, 83, 0
1, 106630, Note_on_c, 0, 30, 89
1, 106650, Control_c, 0, 64, 83
1, 106669, Control_c, 0, 64, 23
1, 106686, Control_c, 0, 64, 0
1, 106723, Control_c, 0, 64, 30
1, 106742, Control_c, 0, 64, 53
1, 106760, Control_c, 0, 64, 72
1, 106780, Control_c, 0, 64, 96
1, 106794, Note_on_c, 0, 42, 84
1, 106797, Control_c, 0, 64, 127
1, 106861, Note_on_c, 0, 30, 0
1, 106885, Note_on_c, 0, 42, 0
1, 106927, Control_c, 0, 67, 12
1, 106941, Note_on_c, 0, 81, 0
1, 106974, Note_on_c, 0, 92, 84
1, 106975, Note_on_c, 0, 83, 87
1, 106992, Note_on_c, 0, 88, 67
1, 106999, Control_c, 0, 67, 17
1, 107067, Control_c, 0, 67, 21
1, 107123, Control_c, 0, 67, 25
1, 107177, Control_c, 0, 67, 30
1, 107205, Note_on_c, 0, 80, 85
1, 107251, Control_c, 0, 67, 34
1, 107325, Control_c, 0, 67, 38
1, 107363, Control_c, 0, 67, 42
1, 107398, Control_c, 0, 67, 48
1, 107424, Note_on_c, 0, 28, 80
1, 107436, Control_c, 0, 67, 53
1, 107452, Note_on_c, 0, 92, 0
1, 107454, Control_c, 0, 67, 57
1, 107473, Control_c, 0, 67, 63
1, 107493, Control_c, 0, 64, 100
1, 107494, Control_c, 0, 67, 72
1, 107512, Control_c, 0, 64, 54
1, 107514, Control_c, 0, 67, 84
1, 107526, Note_on_c, 0, 88, 0
1, 107528, Control_c, 0, 64, 0
1, 107530, Control_c, 0, 67, 96
1, 107548, Control_c, 0, 67, 110
1, 107567, Control_c, 0, 67, 127
1, 107595, Note_on_c, 0, 82, 39
1, 107605, Note_on_c, 0, 83, 0
1, 107614, Note_on_c, 0, 80, 0
1, 107622, Control_c, 0, 64, 30
1, 107633, Note_on_c, 0, 82, 0
1, 107642, Control_c, 0, 64, 57
1, 107660, Control_c, 0, 64, 79
1, 107679, Control_c, 0, 64, 106
1, 107698, Control_c, 0, 64, 127
1, 107731, Note_on_c, 0, 28, 0
1, 107749, Note_on_c, 0, 40, 60
1, 107804, Note_on_c, 0, 40, 0
1, 108168, Control_c, 0, 64, 112
1, 108176, Note_on_c, 0, 56, 50
1, 108180, Note_on_c, 0, 52, 47
1, 108186, Control_c, 0, 64, 89
1, 108207, Control_c, 0, 64, 60
1, 108226, Control_c, 0, 64, 0
1, 108326, Note_on_c, 0, 56, 0
1, 108327, Note_on_c, 0, 59, 43
1, 108354, Control_c, 0, 64, 34
1, 108374, Control_c, 0, 64, 54
1, 108391, Control_c, 0, 64, 68
1, 108410, Control_c, 0, 64, 81
1, 108431, Control_c, 0, 64, 95
1, 108448, Control_c, 0, 64, 105
1, 108451, Note_on_c, 0, 59, 0
1, 108465, Control_c, 0, 64, 113
1, 108474, Note_on_c, 0, 52, 0
1, 108478, Note_on_c, 0, 68, 47
1, 108485, Control_c, 0, 64, 118
1, 108502, Control_c, 0, 64, 123
1, 108539, Control_c, 0, 64, 127
1, 108601, Note_on_c, 0, 68, 0
1, 108613, Note_on_c, 0, 71, 37
1, 108675, Note_on_c, 0, 71, 0
1, 108706, Control_c, 0, 64, 107
1, 108724, Control_c, 0, 64, 82
1, 108729, Note_on_c, 0, 59, 51
1, 108743, Control_c, 0, 64, 52
1, 108747, Note_on_c, 0, 51, 41
1, 108762, Control_c, 0, 64, 0
1, 108793, Note_on_c, 0, 59, 0
1, 108817, Control_c, 0, 67, 120
1, 108837, Control_c, 0, 64, 11
1, 108838, Control_c, 0, 67, 112
1, 108854, Note_on_c, 0, 54, 49
1, 108854, Control_c, 0, 64, 32
1, 108855, Control_c, 0, 67, 101
1, 108872, Control_c, 0, 64, 50
1, 108872, Control_c, 0, 67, 89
1, 108891, Control_c, 0, 64, 65
1, 108893, Control_c, 0, 67, 75
1, 108910, Control_c, 0, 64, 78
1, 108911, Control_c, 0, 67, 62
1, 108936, Note_on_c, 0, 54, 0
1, 108938, Control_c, 0, 64, 94
1, 108939, Control_c, 0, 67, 52
1, 108958, Control_c, 0, 64, 107
1, 108959, Control_c, 0, 67, 45
1, 108974, Control_c, 0, 64, 116
1, 108975, Control_c, 0, 67, 40
1, 108991, Control_c, 0, 64, 124
1, 108993, Control_c, 0, 67, 36
1, 109002, Note_on_c, 0, 71, 44
1, 109031, Control_c, 0, 67, 30
1, 109050, Note_on_c, 0, 51, 0
1, 109057, Poly_aftertouch_c, 0, 54, 127
1, 109066, Control_c, 0, 67, 23
1, 109095, Note_on_c, 0, 71, 0
1, 109103, Control_c, 0, 67, 16
1, 109106, Note_on_c, 0, 78, 52
1, 109107, Poly_aftertouch_c, 0, 54, 0
1, 109141, Control_c, 0, 67, 9
1, 109160, Note_on_c, 0, 78, 0
1, 109179, Control_c, 0, 64, 113
1, 109197, Control_c, 0, 64, 88
1, 109217, Control_c, 0, 64, 59
1, 109226, Note_on_c, 0, 58, 48
1, 109235, Control_c, 0, 64, 0
1, 109236, Control_c, 0, 67, 0
1, 109240, Note_on_c, 0, 49, 42
1, 109274, Note_on_c, 0, 49, 0
1, 109308, Control_c, 0, 64, 31
1, 109326, Control_c, 0, 64, 49
1, 109345, Control_c, 0, 64, 64
1, 109360, Note_on_c, 0, 64, 57
1, 109363, Control_c, 0, 64, 76
1, 109369, Note_on_c, 0, 58, 0
1, 109382, Control_c, 0, 64, 89
1, 109402, Control_c, 0, 64, 97
1, 109419, Control_c, 0, 64, 101
1, 109437, Control_c, 0, 64, 105
1, 109456, Control_c, 0, 64, 109
1, 109469, Note_on_c, 0, 64, 0
1, 109475, Control_c, 0, 64, 113
1, 109492, Control_c, 0, 64, 117
1, 109500, Note_on_c, 0, 76, 35
1, 109520, Note_on_c, 0, 78, 54
1, 109530, Control_c, 0, 64, 121
1, 109548, Note_on_c, 0, 76, 0
1, 109651, Note_on_c, 0, 82, 55
1, 109651, Note_on_c, 0, 78, 0
1, 109748, Note_on_c, 0, 82, 0
1, 109772, Control_c, 0, 64, 117
1, 109779, Note_on_c, 0, 63, 43
1, 109807, Control_c, 0, 64, 112
1, 109823, Control_c, 0, 64, 108
1, 109844, Note_on_c, 0, 57, 7
1, 109845, Control_c, 0, 64, 102
1, 109872, Control_c, 0, 64, 94
1, 109891, Control_c, 0, 64, 83
1, 109910, Control_c, 0, 64, 67
1, 109928, Control_c, 0, 64, 36
1, 109944, Note_on_c, 0, 57, 0
1, 109946, Control_c, 0, 64, 0
1, 109948, Note_on_c, 0, 59, 42
1, 109969, Note_on_c, 0, 63, 0
1, 110112, Note_on_c, 0, 82, 40
1, 110245, Note_on_c, 0, 82, 0
1, 110260, Control_c, 0, 64, 13
1, 110261, Note_on_c, 0, 83, 45
1, 110279, Control_c, 0, 64, 25
1, 110299, Control_c, 0, 64, 35
1, 110317, Control_c, 0, 64, 45
1, 110336, Control_c, 0, 64, 55
1, 110354, Control_c, 0, 64, 62
1, 110372, Control_c, 0, 64, 69
1, 110391, Control_c, 0, 64, 77
1, 110409, Control_c, 0, 64, 87
1, 110417, Note_on_c, 0, 59, 0
1, 110427, Note_on_c, 0, 85, 51
1, 110428, Control_c, 0, 64, 94
1, 110447, Control_c, 0, 64, 100
1, 110465, Control_c, 0, 64, 105
1, 110472, Note_on_c, 0, 83, 0
1, 110483, Control_c, 0, 64, 109
1, 110523, Control_c, 0, 64, 115
1, 110556, Control_c, 0, 64, 119
1, 110575, Note_on_c, 0, 88, 53
1, 110687, Control_c, 0, 64, 106
1, 110705, Note_on_c, 0, 45, 40
1, 110706, Control_c, 0, 64, 87
1, 110725, Control_c, 0, 64, 62
1, 110742, Control_c, 0, 64, 15
1, 110760, Control_c, 0, 64, 0
1, 110779, Control_c, 0, 64, 21
1, 110807, Control_c, 0, 64, 33
1, 110825, Control_c, 0, 64, 46
1, 110840, Note_on_c, 0, 57, 41
1, 110845, Control_c, 0, 64, 60
1, 110863, Control_c, 0, 64, 72
1, 110883, Control_c, 0, 64, 88
1, 110899, Note_on_c, 0, 88, 0
1, 110900, Control_c, 0, 64, 104
1, 110919, Control_c, 0, 64, 115
1, 110935, Control_c, 0, 64, 123
1, 110952, Note_on_c, 0, 45, 0
1, 110953, Control_c, 0, 64, 127
1, 111000, Note_on_c, 0, 88, 73
1, 111007, Note_on_c, 0, 57, 0
1, 111041, Note_on_c, 0, 85, 0
1, 111134, Note_on_c, 0, 83, 71
1, 111196, Control_c, 0, 64, 114
1, 111211, Note_on_c, 0, 88, 0
1, 111213, Control_c, 0, 64, 85
1, 111234, Control_c, 0, 64, 52
1, 111251, Control_c, 0, 64, 0
1, 111256, Note_on_c, 0, 44, 62
1, 111270, Control_c, 0, 64, 13
1, 111289, Control_c, 0, 64, 34
1, 111307, Control_c, 0, 64, 51
1, 111325, Control_c, 0, 64, 65
1, 111330, Note_on_c, 0, 83, 0
1, 111343, Control_c, 0, 64, 80
1, 111363, Control_c, 0, 64, 101
1, 111370, Note_on_c, 0, 56, 68
1, 111382, Control_c, 0, 64, 124
1, 111470, Note_on_c, 0, 44, 0
1, 111482, Note_on_c, 0, 56, 0
1, 111504, Note_on_c, 0, 83, 81
1, 111507, Note_on_c, 0, 81, 73
1, 111567, Control_c, 0, 64, 107
1, 111585, Control_c, 0, 64, 72
1, 111602, Note_on_c, 0, 81, 0
1, 111603, Control_c, 0, 64, 35
1, 111641, Control_c, 0, 64, 52
1, 111649, Note_on_c, 0, 93, 97
1, 111660, Control_c, 0, 64, 68
1, 111677, Control_c, 0, 64, 88
1, 111694, Control_c, 0, 64, 127
1, 111696, Note_on_c, 0, 83, 0
1, 111740, Note_on_c, 0, 93, 0
1, 111776, Note_on_c, 0, 42, 71
1, 111878, Note_on_c, 0, 42, 0
1, 111902, Note_on_c, 0, 54, 75
1, 111958, Note_on_c, 0, 54, 0
1, 112041, Control_c, 0, 64, 117
1, 112056, Control_c, 0, 64, 72
1, 112070, Note_on_c, 0, 92, 85
1, 112074, Control_c, 0, 64, 0
1, 112077, Note_on_c, 0, 80, 80
1, 112100, Note_on_c, 0, 83, 61
1, 112112, Control_c, 0, 64, 48
1, 112131, Control_c, 0, 64, 73
1, 112150, Control_c, 0, 64, 114
1, 112168, Control_c, 0, 64, 127
1, 112169, Note_on_c, 0, 92, 0
1, 112171, Note_on_c, 0, 80, 0
1, 112206, Note_on_c, 0, 83, 0
1, 112242, Note_on_c, 0, 88, 89
1, 112290, Note_on_c, 0, 88, 0
1, 112355, Poly_aftertouch_c, 0, 90, 0
1, 112375, Note_on_c, 0, 40, 66
1, 112495, Note_on_c, 0, 40, 0
1, 112518, Note_on_c, 0, 52, 81
1, 112559, Note_on_c, 0, 52, 0
1, 112741, Note_on_c, 0, 85, 88
1, 112760, Note_on_c, 0, 76, 79
1, 112766, Note_on_c, 0, 81, 80
1, 112791, Control_c, 0, 64, 95
1, 112806, Control_c, 0, 64, 59
1, 112825, Control_c, 0, 64, 0
1, 112857, Poly_aftertouch_c, 0, 82, 0
1, 112881, Control_c, 0, 64, 13
1, 112899, Control_c, 0, 64, 39
1, 112916, Note_on_c, 0, 88, 89
1, 112918, Control_c, 0, 64, 59
1, 112937, Control_c, 0, 64, 75
1, 112956, Control_c, 0, 64, 99
1, 112958, Note_on_c, 0, 85, 0
1, 112974, Control_c, 0, 64, 127
1, 113022, Note_on_c, 0, 76, 0
1, 113056, Note_on_c, 0, 57, 80
1, 113059, Note_on_c, 0, 81, 0
1, 113119, Note_on_c, 0, 88, 0
1, 113133, Note_on_c, 0, 57, 0
1, 113169, Note_on_c, 0, 45, 76
1, 113197, Note_on_c, 0, 45, 0
1, 113287, Poly_aftertouch_c, 0, 88, 0
1, 113326, Control_c, 0, 64, 115
1, 113341, Note_on_c, 0, 80, 92
1, 113345, Control_c, 0, 64, 61
1, 113354, Note_on_c, 0, 76, 82
1, 113361, Control_c, 0, 64, 0
1, 113474, Control_c, 0, 64, 35
1, 113492, Control_c, 0, 64, 63
1, 113505, Note_on_c, 0, 88, 91
1, 113509, Control_c, 0, 64, 88
1, 113529, Control_c, 0, 64, 127
1, 113549, Note_on_c, 0, 76, 0
1, 113565, Note_on_c, 0, 80, 0
1, 113578, Note_on_c, 0, 88, 0
1, 113662, Note_on_c, 0, 47, 82
1, 113830, Note_on_c, 0, 59, 85
1, 113858, Note_on_c, 0, 47, 0
1, 113862, Note_on_c, 0, 59, 0
1, 114026, Note_on_c, 0, 78, 89
1, 114037, Note_on_c, 0, 75, 82
1, 114037, Control_c, 0, 64, 88
1, 114054, Control_c, 0, 64, 0
1, 114202, Control_c, 0, 64, 18
1, 114221, Control_c, 0, 64, 48
1, 114238, Control_c, 0, 64, 69
1, 114249, Note_on_c, 0, 87, 93
1, 114257, Control_c, 0, 64, 97
1, 114277, Control_c, 0, 64, 127
1, 114285, Note_on_c, 0, 75, 0
1, 114308, Note_on_c, 0, 78, 0
1, 114339, Note_on_c, 0, 87, 0
1, 114440, Note_on_c, 0, 47, 83
1, 114764, Note_on_c, 0, 35, 87
1, 114788, Note_on_c, 0, 47, 0
1, 114815, Note_on_c, 0, 35, 0
1, 115184, Note_on_c, 0, 74, 68
1, 115228, Note_on_c, 0, 77, 71
1, 115275, Note_on_c, 0, 80, 72
1, 115304, Note_on_c, 0, 83, 80
1, 115343, Note_on_c, 0, 86, 96
1, 115359, Control_c, 0, 64, 70
1, 115377, Control_c, 0, 64, 0
1, 115811, Control_c, 0, 64, 26
1, 115830, Control_c, 0, 64, 48
1, 115848, Control_c, 0, 64, 66
1, 115867, Control_c, 0, 64, 86
1, 115887, Control_c, 0, 64, 126
1, 116584, Note_on_c, 0, 68, 91
1, 116594, Note_on_c, 0, 59, 69
1, 116596, Note_on_c, 0, 65, 68
1, 116613, Note_on_c, 0, 62, 61
1, 117004, Note_on_c, 0, 68, 0
1, 117280, Note_on_c, 0, 69, 86
1, 117398, Note_on_c, 0, 59, 0
1, 117509, Note_on_c, 0, 69, 0
1, 117582, Note_on_c, 0, 65, 0
1, 117651, Poly_aftertouch_c, 0, 77, 24
1, 117759, Control_c, 0, 67, 8
1, 117790, Note_on_c, 0, 71, 80
1, 117814, Control_c, 0, 64, 94
1, 117815, Poly_aftertouch_c, 0, 62, 24
1, 117834, Control_c, 0, 64, 60
1, 117849, Note_on_c, 0, 62, 0
1, 117851, Control_c, 0, 64, 0
1, 117938, Poly_aftertouch_c, 0, 77, 22
1, 117944, Control_c, 0, 64, 32
1, 117965, Control_c, 0, 64, 57
1, 117981, Control_c, 0, 64, 76
1, 117996, Note_on_c, 0, 77, 0
1, 118001, Control_c, 0, 64, 98
1, 118020, Control_c, 0, 64, 116
1, 118036, Control_c, 0, 64, 127
1, 118129, Control_c, 0, 67, 13
1, 118169, Note_on_c, 0, 74, 0
1, 118185, Control_c, 0, 67, 18
1, 118221, Control_c, 0, 67, 24
1, 118241, Control_c, 0, 67, 29
1, 118247, Note_on_c, 0, 71, 0
1, 118258, Control_c, 0, 64, 120
1, 118259, Control_c, 0, 67, 34
1, 118261, Note_on_c, 0, 73, 81
1, 118280, Control_c, 0, 64, 97
1, 118290, Control_c, 0, 67, 38
1, 118292, Note_on_c, 0, 80, 0
1, 118306, Control_c, 0, 64, 71
1, 118306, Poly_aftertouch_c, 0, 71, 24
1, 118307, Control_c, 0, 67, 43
1, 118324, Control_c, 0, 64, 30
1, 118325, Control_c, 0, 67, 47
1, 118330, Poly_aftertouch_c, 0, 71, 0
1, 118343, Control_c, 0, 64, 0
1, 118346, Control_c, 0, 67, 51
1, 118347, Note_on_c, 0, 83, 0
1, 118380, Control_c, 0, 67, 58
1, 118416, Control_c, 0, 64, 25
1, 118435, Control_c, 0, 64, 45
1, 118453, Control_c, 0, 64, 65
1, 118472, Control_c, 0, 64, 81
1, 118491, Control_c, 0, 64, 94
1, 118509, Control_c, 0, 64, 99
1, 118547, Control_c, 0, 64, 106
1, 118565, Control_c, 0, 64, 111
1, 118584, Control_c, 0, 64, 116
1, 118585, Control_c, 0, 67, 62
1, 118598, Note_on_c, 0, 73, 0
1, 118601, Control_c, 0, 64, 120
1, 118657, Control_c, 0, 67, 67
1, 118696, Control_c, 0, 67, 73
1, 118732, Control_c, 0, 67, 78
1, 118769, Control_c, 0, 67, 83
1, 118824, Control_c, 0, 67, 87
1, 118880, Control_c, 0, 67, 91
1, 118936, Control_c, 0, 64, 116
1, 118955, Control_c, 0, 67, 95
1, 118989, Control_c, 0, 64, 111
1, 119005, Note_on_c, 0, 74, 44
1, 119009, Control_c, 0, 67, 99
1, 119028, Control_c, 0, 64, 106
1, 119036, Note_on_c, 0, 65, 35
1, 119047, Note_on_c, 0, 68, 34
1, 119064, Control_c, 0, 64, 99
1, 119084, Control_c, 0, 64, 94
1, 119085, Control_c, 0, 67, 103
1, 119101, Control_c, 0, 64, 88
1, 119105, Note_on_c, 0, 85, 59
1, 119122, Control_c, 0, 64, 81
1, 119123, Control_c, 0, 67, 107
1, 119139, Control_c, 0, 64, 73
1, 119157, Control_c, 0, 64, 61
1, 119158, Note_on_c, 0, 86, 0
1, 119158, Control_c, 0, 67, 112
1, 119177, Control_c, 0, 64, 44
1, 119194, Control_c, 0, 64, 32
1, 119196, Control_c, 0, 67, 117
1, 119213, Control_c, 0, 64, 25
1, 119240, Control_c, 0, 64, 19
1, 119241, Control_c, 0, 67, 122
1, 119278, Control_c, 0, 67, 126
1, 119351, Control_c, 0, 64, 31
1, 119370, Control_c, 0, 64, 45
1, 119388, Control_c, 0, 64, 59
1, 119408, Control_c, 0, 64, 68
1, 119426, Control_c, 0, 64, 78
1, 119444, Control_c, 0, 64, 89
1, 119463, Control_c, 0, 64, 101
1, 119482, Control_c, 0, 64, 112
1, 119501, Control_c, 0, 64, 127
1, 119617, Note_on_c, 0, 65, 0
1, 119636, Note_on_c, 0, 74, 0
1, 119734, Note_on_c, 0, 68, 0
1, 119795, Note_on_c, 0, 85, 0
1, 119844, Note_on_c, 0, 83, 54
1, 119959, Note_on_c, 0, 83, 0
1, 120478, Note_on_c, 0, 81, 51
1, 120484, Note_on_c, 0, 69, 32
1, 120490, Control_c, 0, 64, 119
1, 120498, Note_on_c, 0, 66, 32
1, 120508, Note_on_c, 0, 78, 36
1, 120509, Control_c, 0, 64, 110
1, 120525, Note_on_c, 0, 73, 18
1, 120525, Control_c, 0, 64, 99
1, 120545, Control_c, 0, 64, 85
1, 120565, Control_c, 0, 64, 67
1, 120584, Control_c, 0, 64, 37
1, 120641, Control_c, 0, 64, 8
1, 120657, Control_c, 0, 64, 15
1, 120675, Control_c, 0, 64, 22
1, 120693, Control_c, 0, 64, 31
1, 120713, Control_c, 0, 64, 42
1, 120730, Control_c, 0, 64, 57
1, 120750, Control_c, 0, 64, 69
1, 120768, Control_c, 0, 64, 80
1, 120787, Control_c, 0, 64, 88
1, 120805, Control_c, 0, 64, 94
1, 120824, Control_c, 0, 64, 98
1, 120842, Control_c, 0, 64, 102
1, 120867, Note_on_c, 0, 69, 0
1, 120891, Note_on_c, 0, 66, 0
1, 120909, Poly_aftertouch_c, 0, 73, 24
1, 120949, Note_on_c, 0, 73, 0
1, 121110, Control_c, 0, 64, 94
1, 121127, Note_on_c, 0, 68, 36
1, 121130, Note_on_c, 0, 80, 44
1, 121130, Control_c, 0, 64, 84
1, 121140, Note_on_c, 0, 77, 42
1, 121148, Control_c, 0, 64, 69
1, 121157, Note_on_c, 0, 71, 23
1, 121160, Note_on_c, 0, 81, 0
1, 121167, Control_c, 0, 64, 44
1, 121238, Note_on_c, 0, 78, 0
1, 121238, Control_c, 0, 64, 8
1, 121258, Control_c, 0, 64, 17
1, 121259, Control_c, 0, 67, 121
1, 121277, Control_c, 0, 64, 25
1, 121295, Control_c, 0, 64, 36
1, 121315, Control_c, 0, 64, 49
1, 121315, Control_c, 0, 67, 116
1, 121333, Control_c, 0, 64, 62
1, 121350, Control_c, 0, 64, 72
1, 121351, Control_c, 0, 67, 110
1, 121369, Control_c, 0, 64, 82
1, 121387, Control_c, 0, 64, 89
1, 121389, Control_c, 0, 67, 101
1, 121406, Control_c, 0, 64, 93
1, 121407, Control_c, 0, 67, 94
1, 121418, Note_on_c, 0, 77, 0
1, 121424, Control_c, 0, 64, 97
1, 121425, Control_c, 0, 67, 87
1, 121437, Note_on_c, 0, 68, 0
1, 121444, Note_on_c, 0, 71, 0
1, 121444, Control_c, 0, 67, 79
1, 121461, Control_c, 0, 64, 103
1, 121462, Control_c, 0, 67, 74
1, 121480, Control_c, 0, 67, 70
1, 121495, Note_on_c, 0, 80, 0
1, 121500, Control_c, 0, 67, 66
1, 121518, Control_c, 0, 64, 107
1, 121534, Control_c, 0, 67, 60
1, 121591, Control_c, 0, 67, 56
1, 121647, Control_c, 0, 67, 52
1, 121704, Control_c, 0, 67, 47
1, 121734, Control_c, 0, 64, 103
1, 121771, Control_c, 0, 64, 95
1, 121790, Control_c, 0, 64, 87
1, 121808, Control_c, 0, 64, 72
1, 121810, Note_on_c, 0, 81, 65
1, 121819, Note_on_c, 0, 66, 33
1, 121828, Control_c, 0, 64, 48
1, 121828, Control_c, 0, 67, 41
1, 121833, Note_on_c, 0, 69, 35
1, 121846, Control_c, 0, 64, 0
1, 121846, Control_c, 0, 67, 36
1, 121853, Note_on_c, 0, 78, 39
1, 121858, Note_on_c, 0, 73, 38
1, 121864, Control_c, 0, 67, 29
1, 121883, Control_c, 0, 67, 20
1, 121900, Control_c, 0, 67, 8
1, 121919, Control_c, 0, 64, 13
1, 121920, Control_c, 0, 67, 0
1, 121938, Control_c, 0, 64, 25
1, 121955, Control_c, 0, 64, 40
1, 121975, Control_c, 0, 64, 56
1, 121994, Control_c, 0, 64, 71
1, 122012, Control_c, 0, 64, 86
1, 122041, Control_c, 0, 64, 99
1, 122051, Note_on_c, 0, 73, 0
1, 122057, Control_c, 0, 64, 108
1, 122078, Control_c, 0, 64, 115
1, 122092, Note_on_c, 0, 81, 0
1, 122093, Control_c, 0, 64, 121
1, 122105, Note_on_c, 0, 69, 0
1, 122112, Note_on_c, 0, 66, 0
1, 122114, Control_c, 0, 64, 126
1, 122175, Note_on_c, 0, 78, 0
1, 122392, Control_c, 0, 64, 121
1, 122430, Control_c, 0, 64, 111
1, 122444, Note_on_c, 0, 61, 34
1, 122448, Control_c, 0, 64, 102
1, 122453, Note_on_c, 0, 68, 48
1, 122455, Note_on_c, 0, 83, 80
1, 122465, Control_c, 0, 64, 89
1, 122469, Note_on_c, 0, 65, 54
1, 122482, Note_on_c, 0, 73, 54
1, 122484, Control_c, 0, 64, 72
1, 122491, Note_on_c, 0, 80, 42
1, 122494, Note_on_c, 0, 77, 42
1, 122502, Control_c, 0, 64, 46
1, 122521, Control_c, 0, 64, 13
1, 122576, Control_c, 0, 64, 24
1, 122596, Control_c, 0, 64, 35
1, 122608, Note_on_c, 0, 80, 0
1, 122613, Control_c, 0, 64, 48
1, 122633, Control_c, 0, 64, 62
1, 122650, Control_c, 0, 64, 76
1, 122654, Note_on_c, 0, 73, 0
1, 122670, Control_c, 0, 64, 93
1, 122686, Control_c, 0, 64, 106
1, 122706, Control_c, 0, 64, 116
1, 122724, Control_c, 0, 64, 125
1, 122776, Note_on_c, 0, 68, 0
1, 122807, Note_on_c, 0, 65, 0
1, 122814, Note_on_c, 0, 61, 0
1, 122837, Note_on_c, 0, 83, 0
1, 122863, Poly_aftertouch_c, 0, 80, 0
1, 123081, Poly_aftertouch_c, 0, 77, 24
1, 123169, Note_on_c, 0, 84, 84
1, 123257, Note_on_c, 0, 77, 0
1, 123308, Control_c, 0, 64, 118
1, 123328, Control_c, 0, 64, 107
1, 123345, Control_c, 0, 64, 93
1, 123364, Control_c, 0, 64, 72
1, 123383, Control_c, 0, 64, 36
1, 123401, Control_c, 0, 64, 0
1, 123512, Control_c, 0, 64, 11
1, 123530, Control_c, 0, 64, 37
1, 123549, Control_c, 0, 64, 55
1, 123567, Control_c, 0, 64, 69
1, 123587, Control_c, 0, 64, 86
1, 123606, Control_c, 0, 64, 112
1, 123623, Control_c, 0, 64, 127
1, 124418, Note_on_c, 0, 66, 60
1, 124420, Note_on_c, 0, 57, 52
1, 124433, Note_on_c, 0, 61, 46
1, 124477, Note_on_c, 0, 85, 81
1, 124508, Note_on_c, 0, 84, 0
1, 124955, Note_on_c, 0, 65, 74
1, 124984, Note_on_c, 0, 66, 0
1, 125231, Note_on_c, 0, 66, 75
1, 125249, Note_on_c, 0, 65, 0
1, 125262, Note_on_c, 0, 57, 0
1, 125354, Note_on_c, 0, 61, 0
1, 125439, Note_on_c, 0, 68, 75
1, 125469, Note_on_c, 0, 66, 0
1, 125475, Control_c, 0, 67, 8
1, 125585, Control_c, 0, 67, 12
1, 125617, Note_on_c, 0, 68, 0
1, 125649, Note_on_c, 0, 69, 74
1, 125659, Control_c, 0, 64, 118
1, 125660, Control_c, 0, 67, 17
1, 125677, Control_c, 0, 64, 107
1, 125696, Control_c, 0, 64, 97
1, 125715, Control_c, 0, 64, 85
1, 125717, Control_c, 0, 67, 22
1, 125733, Control_c, 0, 64, 72
1, 125752, Control_c, 0, 64, 57
1, 125752, Control_c, 0, 67, 26
1, 125779, Control_c, 0, 64, 47
1, 125799, Control_c, 0, 67, 31
1, 125816, Control_c, 0, 64, 44
1, 125836, Control_c, 0, 64, 41
1, 125836, Control_c, 0, 67, 35
1, 125853, Control_c, 0, 64, 34
1, 125858, Note_on_c, 0, 68, 70
1, 125873, Control_c, 0, 64, 26
1, 125891, Control_c, 0, 64, 19
1, 125892, Control_c, 0, 67, 39
1, 125897, Note_on_c, 0, 69, 0
1, 125910, Control_c, 0, 64, 15
1, 125928, Control_c, 0, 64, 9
1, 125947, Control_c, 0, 64, 0
1, 125948, Control_c, 0, 67, 44
1, 126023, Control_c, 0, 67, 48
1, 126057, Control_c, 0, 67, 53
1, 126078, Note_on_c, 0, 69, 73
1, 126082, Note_on_c, 0, 68, 0
1, 126095, Control_c, 0, 67, 58
1, 126133, Control_c, 0, 67, 62
1, 126170, Control_c, 0, 67, 67
1, 126208, Control_c, 0, 67, 72
1, 126242, Control_c, 0, 67, 77
1, 126282, Control_c, 0, 64, 11
1, 126282, Control_c, 0, 67, 82
1, 126293, Note_on_c, 0, 71, 61
1, 126300, Control_c, 0, 64, 18
1, 126318, Control_c, 0, 64, 25
1, 126320, Control_c, 0, 67, 88
1, 126321, Note_on_c, 0, 69, 0
1, 126337, Control_c, 0, 64, 34
1, 126339, Control_c, 0, 67, 92
1, 126355, Control_c, 0, 64, 44
1, 126374, Control_c, 0, 64, 55
1, 126374, Control_c, 0, 67, 99
1, 126392, Control_c, 0, 64, 67
1, 126393, Control_c, 0, 67, 103
1, 126409, Control_c, 0, 64, 80
1, 126410, Control_c, 0, 67, 107
1, 126428, Control_c, 0, 64, 94
1, 126429, Control_c, 0, 67, 112
1, 126443, Note_on_c, 0, 71, 0
1, 126446, Control_c, 0, 64, 103
1, 126448, Control_c, 0, 67, 117
1, 126465, Control_c, 0, 64, 109
1, 126467, Control_c, 0, 67, 121
1, 126484, Control_c, 0, 64, 114
1, 126485, Control_c, 0, 67, 125
1, 126735, Control_c, 0, 64, 108
1, 126772, Control_c, 0, 64, 100
1, 126788, Control_c, 0, 64, 93
1, 126799, Note_on_c, 0, 83, 48
1, 126801, Note_on_c, 0, 72, 29
1, 126806, Control_c, 0, 64, 85
1, 126817, Note_on_c, 0, 66, 28
1, 126825, Control_c, 0, 64, 75
1, 126840, Note_on_c, 0, 78, 26
1, 126843, Control_c, 0, 64, 61
1, 126850, Note_on_c, 0, 63, 29
1, 126864, Control_c, 0, 64, 41
1, 126881, Note_on_c, 0, 85, 0
1, 126881, Control_c, 0, 64, 30
1, 126900, Control_c, 0, 64, 25
1, 126920, Control_c, 0, 64, 16
1, 126956, Control_c, 0, 64, 0
1, 127048, Control_c, 0, 64, 15
1, 127068, Control_c, 0, 64, 21
1, 127087, Control_c, 0, 64, 31
1, 127104, Control_c, 0, 64, 41
1, 127125, Control_c, 0, 64, 53
1, 127142, Control_c, 0, 64, 65
1, 127160, Control_c, 0, 64, 75
1, 127179, Control_c, 0, 64, 86
1, 127196, Control_c, 0, 64, 97
1, 127215, Control_c, 0, 64, 106
1, 127233, Control_c, 0, 64, 118
1, 127251, Control_c, 0, 64, 127
1, 127259, Note_on_c, 0, 78, 0
1, 127304, Note_on_c, 0, 72, 0
1, 127346, Note_on_c, 0, 66, 0
1, 127428, Note_on_c, 0, 63, 0
1, 127591, Note_on_c, 0, 81, 45
1, 127595, Note_on_c, 0, 83, 0
1, 127727, Note_on_c, 0, 81, 0
1, 128186, Control_c, 0, 64, 117
1, 128206, Control_c, 0, 64, 105
1, 128223, Note_on_c, 0, 64, 28
1, 128225, Control_c, 0, 64, 90
1, 128231, Note_on_c, 0, 80, 46
1, 128243, Control_c, 0, 64, 70
1, 128258, Note_on_c, 0, 68, 13
1, 128262, Control_c, 0, 64, 38
1, 128269, Note_on_c, 0, 71, 17
1, 128278, Control_c, 0, 64, 16
1, 128335, Control_c, 0, 64, 20
1, 128353, Control_c, 0, 64, 26
1, 128373, Control_c, 0, 64, 34
1, 128390, Control_c, 0, 64, 43
1, 128410, Control_c, 0, 64, 57
1, 128429, Control_c, 0, 64, 69
1, 128447, Control_c, 0, 64, 81
1, 128463, Control_c, 0, 64, 91
1, 128501, Control_c, 0, 64, 96
1, 128516, Note_on_c, 0, 71, 0
1, 128538, Control_c, 0, 64, 100
1, 128544, Note_on_c, 0, 68, 0
1, 128585, Control_c, 0, 64, 104
1, 128621, Note_on_c, 0, 64, 0
1, 128874, Note_on_c, 0, 80, 0
1, 128917, Control_c, 0, 64, 96
1, 128925, Note_on_c, 0, 66, 27
1, 128929, Note_on_c, 0, 78, 38
1, 128936, Control_c, 0, 64, 89
1, 128944, Note_on_c, 0, 63, 28
1, 128954, Control_c, 0, 64, 78
1, 128965, Note_on_c, 0, 69, 26
1, 128969, Note_on_c, 0, 71, 22
1, 128973, Control_c, 0, 64, 60
1, 128993, Control_c, 0, 64, 33
1, 129012, Control_c, 0, 64, 25
1, 129105, Control_c, 0, 64, 32
1, 129121, Control_c, 0, 64, 40
1, 129141, Control_c, 0, 64, 49
1, 129159, Control_c, 0, 64, 57
1, 129178, Control_c, 0, 64, 65
1, 129196, Control_c, 0, 64, 71
1, 129213, Control_c, 0, 64, 79
1, 129220, Poly_aftertouch_c, 0, 69, 22
1, 129229, Note_on_c, 0, 71, 0
1, 129231, Control_c, 0, 64, 87
1, 129246, Note_on_c, 0, 69, 0
1, 129250, Control_c, 0, 64, 94
1, 129279, Note_on_c, 0, 78, 0
1, 129288, Control_c, 0, 64, 100
1, 129300, Note_on_c, 0, 66, 0
1, 129325, Control_c, 0, 64, 106
1, 129331, Note_on_c, 0, 63, 0
1, 129383, Control_c, 0, 67, 119
1, 129398, Control_c, 0, 64, 110
1, 129417, Control_c, 0, 67, 115
1, 129473, Control_c, 0, 67, 111
1, 129539, Control_c, 0, 67, 106
1, 129612, Control_c, 0, 67, 101
1, 129631, Control_c, 0, 64, 106
1, 129687, Control_c, 0, 64, 100
1, 129687, Note_on_c, 0, 64, 34
1, 129699, Note_on_c, 0, 80, 53
1, 129705, Control_c, 0, 64, 95
1, 129724, Control_c, 0, 64, 86
1, 129727, Note_on_c, 0, 68, 26
1, 129734, Note_on_c, 0, 71, 26
1, 129742, Control_c, 0, 64, 72
1, 129762, Control_c, 0, 64, 51
1, 129763, Control_c, 0, 67, 96
1, 129778, Control_c, 0, 64, 25
1, 129796, Control_c, 0, 67, 90
1, 129835, Control_c, 0, 67, 84
1, 129852, Control_c, 0, 64, 31
1, 129872, Control_c, 0, 64, 38
1, 129873, Control_c, 0, 67, 77
1, 129891, Control_c, 0, 64, 47
1, 129892, Control_c, 0, 67, 73
1, 129910, Control_c, 0, 64, 58
1, 129912, Control_c, 0, 67, 69
1, 129927, Control_c, 0, 64, 70
1, 129947, Control_c, 0, 64, 83
1, 129948, Control_c, 0, 67, 63
1, 129958, Note_on_c, 0, 71, 0
1, 129964, Control_c, 0, 64, 92
1, 129982, Control_c, 0, 67, 59
1, 130001, Control_c, 0, 64, 97
1, 130003, Note_on_c, 0, 80, 0
1, 130019, Note_on_c, 0, 64, 0
1, 130034, Note_on_c, 0, 68, 0
1, 130039, Control_c, 0, 64, 102
1, 130317, Control_c, 0, 64, 96
1, 130325, Note_on_c, 0, 81, 51
1, 130331, Note_on_c, 0, 64, 28
1, 130334, Control_c, 0, 64, 89
1, 130351, Note_on_c, 0, 69, 31
1, 130353, Control_c, 0, 64, 77
1, 130360, Note_on_c, 0, 61, 24
1, 130364, Note_on_c, 0, 76, 36
1, 130372, Control_c, 0, 64, 60
1, 130392, Control_c, 0, 64, 33
1, 130410, Control_c, 0, 64, 25
1, 130475, Control_c, 0, 64, 31
1, 130495, Control_c, 0, 64, 36
1, 130512, Control_c, 0, 64, 45
1, 130530, Control_c, 0, 64, 55
1, 130549, Control_c, 0, 64, 67
1, 130568, Control_c, 0, 64, 80
1, 130586, Control_c, 0, 64, 93
1, 130597, Note_on_c, 0, 69, 0
1, 130604, Control_c, 0, 64, 100
1, 130624, Control_c, 0, 67, 63
1, 130642, Control_c, 0, 64, 107
1, 130655, Note_on_c, 0, 61, 0
1, 130661, Control_c, 0, 64, 112
1, 130680, Control_c, 0, 64, 116
1, 130702, Note_on_c, 0, 64, 0
1, 130715, Control_c, 0, 64, 121
1, 130828, Control_c, 0, 67, 67
1, 130919, Control_c, 0, 67, 71
1, 131012, Control_c, 0, 67, 75
1, 131123, Control_c, 0, 67, 79
1, 131138, Note_on_c, 0, 76, 0
1, 131180, Control_c, 0, 64, 116
1, 131210, Note_on_c, 0, 64, 25
1, 131214, Control_c, 0, 64, 112
1, 131228, Note_on_c, 0, 83, 54
1, 131234, Control_c, 0, 67, 84
1, 131254, Control_c, 0, 64, 107
1, 131257, Note_on_c, 0, 56, 24
1, 131289, Control_c, 0, 64, 103
1, 131327, Control_c, 0, 64, 97
1, 131329, Control_c, 0, 67, 88
1, 131357, Note_on_c, 0, 81, 0
1, 131362, Control_c, 0, 64, 89
1, 131383, Control_c, 0, 64, 84
1, 131411, Control_c, 0, 64, 77
1, 131429, Control_c, 0, 64, 66
1, 131449, Control_c, 0, 64, 50
1, 131464, Control_c, 0, 64, 36
1, 131484, Control_c, 0, 64, 31
1, 131577, Control_c, 0, 64, 35
1, 131595, Control_c, 0, 64, 42
1, 131615, Control_c, 0, 64, 51
1, 131633, Control_c, 0, 64, 63
1, 131650, Control_c, 0, 64, 75
1, 131668, Control_c, 0, 64, 88
1, 131687, Control_c, 0, 64, 97
1, 131706, Control_c, 0, 64, 105
1, 131724, Control_c, 0, 64, 113
1, 131744, Control_c, 0, 64, 125
1, 131745, Control_c, 0, 67, 84
1, 132038, Note_on_c, 0, 56, 0
1, 132039, Note_on_c, 0, 76, 46
1, 132058, Control_c, 0, 67, 80
1, 132132, Note_on_c, 0, 64, 0
1, 132244, Control_c, 0, 67, 76
1, 132269, Note_on_c, 0, 83, 0
1, 132656, Note_on_c, 0, 83, 57
1, 132678, Note_on_c, 0, 69, 19
1, 132697, Note_on_c, 0, 64, 26
1, 132698, Note_on_c, 0, 61, 25
1, 132789, Control_c, 0, 64, 116
1, 132807, Control_c, 0, 64, 110
1, 132826, Control_c, 0, 64, 99
1, 132844, Control_c, 0, 64, 84
1, 132864, Control_c, 0, 64, 65
1, 132882, Control_c, 0, 64, 40
1, 132883, Control_c, 0, 67, 72
1, 132901, Control_c, 0, 64, 34
1, 132920, Control_c, 0, 67, 65
1, 132937, Control_c, 0, 64, 42
1, 132938, Control_c, 0, 67, 61
1, 132955, Control_c, 0, 64, 48
1, 132957, Control_c, 0, 67, 56
1, 132974, Control_c, 0, 64, 54
1, 132975, Control_c, 0, 67, 51
1, 132993, Control_c, 0, 64, 64
1, 132995, Control_c, 0, 67, 47
1, 133010, Control_c, 0, 64, 76
1, 133012, Control_c, 0, 67, 43
1, 133030, Control_c, 0, 64, 92
1, 133049, Control_c, 0, 64, 102
1, 133050, Control_c, 0, 67, 37
1, 133068, Control_c, 0, 64, 107
1, 133086, Control_c, 0, 64, 112
1, 133088, Control_c, 0, 67, 33
1, 133104, Control_c, 0, 64, 117
1, 133123, Control_c, 0, 64, 121
1, 133140, Control_c, 0, 64, 126
1, 133158, Control_c, 0, 67, 28
1, 133228, Note_on_c, 0, 81, 62
1, 133404, Note_on_c, 0, 69, 0
1, 133439, Note_on_c, 0, 64, 0
1, 133483, Note_on_c, 0, 61, 0
1, 133557, Control_c, 0, 67, 24
1, 133723, Control_c, 0, 67, 20
1, 133855, Control_c, 0, 64, 119
1, 133858, Note_on_c, 0, 68, 24
1, 133875, Note_on_c, 0, 64, 32
1, 133877, Note_on_c, 0, 80, 57
1, 133880, Note_on_c, 0, 59, 28
1, 133890, Control_c, 0, 64, 115
1, 133928, Control_c, 0, 64, 110
1, 133929, Control_c, 0, 67, 16
1, 133964, Control_c, 0, 64, 104
1, 133983, Control_c, 0, 64, 100
1, 134003, Control_c, 0, 64, 94
1, 134020, Control_c, 0, 64, 84
1, 134040, Control_c, 0, 64, 68
1, 134058, Control_c, 0, 64, 43
1, 134075, Control_c, 0, 64, 21
1, 134078, Poly_aftertouch_c, 0, 83, 22
1, 134096, Note_on_c, 0, 83, 0
1, 134098, Note_on_c, 0, 81, 0
1, 134112, Control_c, 0, 67, 11
1, 134151, Control_c, 0, 64, 27
1, 134168, Control_c, 0, 64, 33
1, 134187, Control_c, 0, 64, 42
1, 134217, Control_c, 0, 64, 55
1, 134234, Control_c, 0, 64, 68
1, 134253, Control_c, 0, 64, 83
1, 134269, Control_c, 0, 64, 98
1, 134288, Control_c, 0, 64, 109
1, 134307, Control_c, 0, 64, 121
1, 134309, Control_c, 0, 67, 0
1, 134326, Control_c, 0, 64, 127
1, 134347, Poly_aftertouch_c, 0, 76, 22
1, 134390, Note_on_c, 0, 76, 0
1, 134587, Note_on_c, 0, 59, 0
1, 134616, Note_on_c, 0, 64, 0
1, 134621, Note_on_c, 0, 68, 0
1, 135046, Note_on_c, 0, 70, 57
1, 135080, Note_on_c, 0, 64, 39
1, 135092, Note_on_c, 0, 59, 33
1, 135569, Note_on_c, 0, 59, 0
1, 135785, Note_on_c, 0, 70, 0
1, 136267, Note_on_c, 0, 71, 48
1, 136309, Note_on_c, 0, 63, 39
1, 136315, Note_on_c, 0, 59, 33
1, 136351, Note_on_c, 0, 78, 63
1, 136359, Note_on_c, 0, 80, 0
1, 136400, Control_c, 0, 64, 106
1, 136412, Note_on_c, 0, 64, 0
1, 136417, Control_c, 0, 64, 80
1, 136436, Control_c, 0, 64, 52
1, 136454, Control_c, 0, 64, 28
1, 136472, Control_c, 0, 64, 33
1, 136491, Control_c, 0, 64, 43
1, 136510, Control_c, 0, 64, 53
1, 136529, Control_c, 0, 64, 65
1, 136547, Control_c, 0, 64, 80
1, 136565, Control_c, 0, 64, 102
1, 136584, Control_c, 0, 64, 127
1, 136598, Note_on_c, 0, 80, 65
1, 136603, Note_on_c, 0, 78, 0
1, 136674, Note_on_c, 0, 71, 0
1, 136688, Note_on_c, 0, 59, 0
1, 136703, Note_on_c, 0, 63, 0
1, 136733, Note_on_c, 0, 78, 74
1, 136749, Note_on_c, 0, 80, 0
1, 136842, Note_on_c, 0, 78, 0
1, 136852, Note_on_c, 0, 77, 75
1, 136880, Control_c, 0, 64, 115
1, 136899, Control_c, 0, 64, 80
1, 136917, Control_c, 0, 64, 45
1, 136921, Note_on_c, 0, 68, 79
1, 136927, Note_on_c, 0, 65, 55
1, 136931, Note_on_c, 0, 59, 66
1, 136936, Control_c, 0, 64, 32
1, 136945, Note_on_c, 0, 62, 62
1, 136954, Control_c, 0, 64, 43
1, 136963, Note_on_c, 0, 78, 80
1, 136973, Control_c, 0, 64, 60
1, 136984, Note_on_c, 0, 77, 0
1, 136990, Control_c, 0, 64, 79
1, 137020, Control_c, 0, 64, 121
1, 137039, Control_c, 0, 64, 127
1, 137076, Note_on_c, 0, 68, 0
1, 137076, Note_on_c, 0, 80, 82
1, 137093, Note_on_c, 0, 78, 0
1, 137110, Note_on_c, 0, 65, 0
1, 137123, Note_on_c, 0, 62, 0
1, 137139, Note_on_c, 0, 59, 0
1, 137172, Note_on_c, 0, 80, 0
1, 137177, Note_on_c, 0, 81, 86
1, 137274, Note_on_c, 0, 83, 88
1, 137282, Note_on_c, 0, 81, 0
1, 137376, Note_on_c, 0, 85, 93
1, 137394, Note_on_c, 0, 83, 0
1, 137430, Note_on_c, 0, 85, 0
1, 137721, Note_on_c, 0, 86, 94
1, 137721, Control_c, 0, 64, 121
1, 137728, Note_on_c, 0, 44, 76
1, 137729, Note_on_c, 0, 74, 87
1, 137731, Note_on_c, 0, 83, 77
1, 137733, Note_on_c, 0, 77, 83
1, 137734, Note_on_c, 0, 32, 70
1, 137739, Control_c, 0, 64, 89
1, 137761, Control_c, 0, 64, 63
1, 137764, Note_on_c, 0, 78, 52
1, 137764, Note_on_c, 0, 78, 0
1, 137777, Control_c, 0, 64, 44
1, 137797, Control_c, 0, 64, 47
1, 137814, Control_c, 0, 64, 55
1, 137834, Control_c, 0, 64, 63
1, 137851, Control_c, 0, 64, 78
1, 137871, Control_c, 0, 64, 104
1, 137890, Control_c, 0, 64, 127
1, 138102, Note_on_c, 0, 74, 0
1, 138217, Note_on_c, 0, 86, 0
1, 138249, Note_on_c, 0, 44, 0
1, 138291, Note_on_c, 0, 77, 0
1, 138358, Note_on_c, 0, 83, 0
1, 138622, Note_on_c, 0, 32, 0
1, 139064, Note_on_c, 0, 31, 86
1, 139068, Note_on_c, 0, 41, 80
1, 139069, Note_on_c, 0, 38, 82
1, 139073, Note_on_c, 0, 86, 96
1, 139075, Note_on_c, 0, 43, 83
1, 139078, Note_on_c, 0, 74, 97
1, 139082, Note_on_c, 0, 77, 92
1, 139089, Note_on_c, 0, 83, 75
1, 139117, Note_on_c, 0, 78, 47
1, 139117, Note_on_c, 0, 78, 0
1, 139151, Control_c, 0, 64, 91
1, 139169, Control_c, 0, 64, 44
1, 139186, Control_c, 0, 64, 0
1, 139297, Control_c, 0, 64, 38
1, 139317, Control_c, 0, 64, 65
1, 139334, Control_c, 0, 64, 86
1, 139354, Control_c, 0, 64, 107
1, 139372, Control_c, 0, 64, 121
1, 139390, Control_c, 0, 64, 127
1, 139421, Note_on_c, 0, 83, 0
1, 139442, Note_on_c, 0, 77, 0
1, 139653, Note_on_c, 0, 83, 83
1, 139686, Note_on_c, 0, 74, 0
1, 139722, Note_on_c, 0, 86, 0
1, 139762, Poly_aftertouch_c, 0, 84, 0
1, 139998, Note_on_c, 0, 79, 79
1, 140237, Note_on_c, 0, 77, 80
1, 140274, Note_on_c, 0, 83, 0
1, 140277, Note_on_c, 0, 79, 0
1, 140432, Note_on_c, 0, 77, 0
1, 140440, Note_on_c, 0, 74, 79
1, 140564, Note_on_c, 0, 31, 0
1, 140571, Note_on_c, 0, 43, 0
1, 140616, Note_on_c, 0, 74, 0
1, 140620, Note_on_c, 0, 38, 0
1, 140626, Note_on_c, 0, 41, 0
1, 140644, Note_on_c, 0, 71, 80
1, 140862, Note_on_c, 0, 67, 80
1, 141042, Note_on_c, 0, 65, 80
1, 141057, Note_on_c, 0, 71, 0
1, 141135, Note_on_c, 0, 67, 0
1, 141213, Note_on_c, 0, 65, 0
1, 141215, Note_on_c, 0, 62, 78
1, 141343, Note_on_c, 0, 62, 0
1, 141385, Note_on_c, 0, 59, 80
1, 141539, Note_on_c, 0, 55, 78
1, 141552, Note_on_c, 0, 59, 0
1, 141610, Note_on_c, 0, 55, 0
1, 141681, Note_on_c, 0, 53, 74
1, 141817, Note_on_c, 0, 50, 73
1, 141859, Note_on_c, 0, 53, 0
1, 141933, Note_on_c, 0, 47, 75
1, 141979, Note_on_c, 0, 50, 0
1, 142067, Note_on_c, 0, 43, 74
1, 142104, Control_c, 0, 64, 119
1, 142114, Note_on_c, 0, 47, 0
1, 142122, Control_c, 0, 64, 104
1, 142141, Control_c, 0, 64, 96
1, 142197, Control_c, 0, 64, 101
1, 142216, Control_c, 0, 64, 106
1, 142224, Note_on_c, 0, 47, 71
1, 142234, Control_c, 0, 64, 114
1, 142252, Control_c, 0, 64, 127
1, 142276, Note_on_c, 0, 43, 0
1, 142324, Note_on_c, 0, 50, 66
1, 142402, Note_on_c, 0, 47, 0
1, 142406, Note_on_c, 0, 53, 77
1, 142412, Note_on_c, 0, 50, 0
1, 142458, Note_on_c, 0, 53, 0
1, 142535, Note_on_c, 0, 55, 72
1, 142617, Note_on_c, 0, 59, 76
1, 142629, Note_on_c, 0, 55, 0
1, 142718, Note_on_c, 0, 62, 69
1, 142758, Note_on_c, 0, 59, 0
1, 142796, Note_on_c, 0, 65, 77
1, 142825, Note_on_c, 0, 62, 0
1, 142854, Note_on_c, 0, 65, 0
1, 142889, Note_on_c, 0, 67, 76
1, 142991, Note_on_c, 0, 71, 74
1, 143016, Note_on_c, 0, 67, 0
1, 143052, Note_on_c, 0, 74, 74
1, 143134, Note_on_c, 0, 74, 0
1, 143144, Note_on_c, 0, 77, 79
1, 143170, Note_on_c, 0, 77, 0
1, 143193, Note_on_c, 0, 71, 0
1, 143243, Note_on_c, 0, 74, 83
1, 143320, Note_on_c, 0, 77, 77
1, 143330, Note_on_c, 0, 74, 0
1, 143422, Note_on_c, 0, 79, 86
1, 143440, Note_on_c, 0, 77, 0
1, 143463, Control_c, 0, 67, 8
1, 143524, Note_on_c, 0, 83, 81
1, 143541, Note_on_c, 0, 79, 0
1, 143752, Note_on_c, 0, 31, 48
1, 143754, Note_on_c, 0, 43, 49
1, 143788, Control_c, 0, 64, 107
1, 143801, Note_on_c, 0, 86, 84
1, 143807, Control_c, 0, 64, 84
1, 143815, Note_on_c, 0, 77, 57
1, 143821, Note_on_c, 0, 83, 0
1, 143826, Control_c, 0, 64, 59
1, 143838, Note_on_c, 0, 74, 56
1, 143844, Control_c, 0, 64, 24
1, 143862, Control_c, 0, 64, 19
1, 143919, Control_c, 0, 64, 30
1, 143935, Control_c, 0, 64, 39
1, 143955, Control_c, 0, 64, 50
1, 143973, Control_c, 0, 64, 63
1, 143992, Control_c, 0, 64, 78
1, 143993, Control_c, 0, 67, 12
1, 144003, Note_on_c, 0, 31, 0
1, 144009, Control_c, 0, 64, 99
1, 144028, Note_on_c, 0, 43, 0
1, 144030, Control_c, 0, 64, 118
1, 144048, Control_c, 0, 64, 127
1, 144059, Note_on_c, 0, 86, 0
1, 144086, Note_on_c, 0, 74, 0
1, 144099, Note_on_c, 0, 77, 0
1, 144400, Control_c, 0, 64, 114
1, 144416, Note_on_c, 0, 36, 42
1, 144417, Note_on_c, 0, 84, 56
1, 144419, Control_c, 0, 64, 93
1, 144437, Control_c, 0, 64, 70
1, 144440, Note_on_c, 0, 48, 25
1, 144442, Note_on_c, 0, 72, 37
1, 144445, Note_on_c, 0, 76, 42
1, 144456, Control_c, 0, 64, 39
1, 144474, Control_c, 0, 64, 23
1, 144537, Control_c, 0, 64, 30
1, 144557, Control_c, 0, 64, 38
1, 144576, Control_c, 0, 64, 49
1, 144577, Control_c, 0, 67, 8
1, 144593, Control_c, 0, 64, 62
1, 144613, Control_c, 0, 64, 78
1, 144631, Control_c, 0, 64, 104
1, 144650, Control_c, 0, 64, 127
1, 144673, Note_on_c, 0, 72, 0
1, 144704, Control_c, 0, 67, 0
1, 144732, Note_on_c, 0, 76, 0
1, 144737, Note_on_c, 0, 48, 0
1, 144760, Note_on_c, 0, 84, 0
1, 144793, Note_on_c, 0, 36, 0
1, 145039, Control_c, 0, 64, 114
1, 145057, Control_c, 0, 64, 92
1, 145074, Control_c, 0, 64, 69
1, 145093, Control_c, 0, 64, 38
1, 145112, Control_c, 0, 64, 21
1, 145131, Control_c, 0, 64, 11
1, 145149, Control_c, 0, 64, 0
1, 145297, Control_c, 0, 64, 34
1, 145315, Control_c, 0, 64, 71
1, 145318, Note_on_c, 0, 36, 86
1, 145321, Note_on_c, 0, 48, 97
1, 145322, Note_on_c, 0, 84, 105
1, 145327, Note_on_c, 0, 43, 91
1, 145332, Note_on_c, 0, 40, 87
1, 145333, Control_c, 0, 64, 127
1, 145364, Note_on_c, 0, 86, 45
1, 145374, Note_on_c, 0, 84, 0
1, 145403, Note_on_c, 0, 86, 0
1, 145828, Note_on_c, 0, 79, 99
1, 145878, Note_on_c, 0, 79, 0
1, 146140, Note_on_c, 0, 76, 102
1, 146183, Note_on_c, 0, 76, 0
1, 146393, Note_on_c, 0, 72, 96
1, 146437, Note_on_c, 0, 72, 0
1, 146606, Note_on_c, 0, 67, 94
1, 146653, Note_on_c, 0, 67, 0
1, 146777, Note_on_c, 0, 64, 91
1, 146826, Note_on_c, 0, 64, 0
1, 146929, Note_on_c, 0, 60, 90
1, 146986, Note_on_c, 0, 60, 0
1, 147068, Note_on_c, 0, 48, 0
1, 147075, Note_on_c, 0, 55, 91
1, 147118, Note_on_c, 0, 55, 0
1, 147120, Note_on_c, 0, 43, 0
1, 147149, Note_on_c, 0, 40, 0
1, 147194, Note_on_c, 0, 52, 95
1, 147194, Note_on_c, 0, 36, 0
1, 147219, Note_on_c, 0, 52, 0
1, 147326, Note_on_c, 0, 48, 88
1, 147396, Note_on_c, 0, 48, 0
1, 147449, Note_on_c, 0, 43, 86
1, 147576, Note_on_c, 0, 40, 80
1, 147618, Note_on_c, 0, 43, 0
1, 147694, Control_c, 0, 64, 107
1, 147713, Control_c, 0, 64, 72
1, 147722, Note_on_c, 0, 36, 89
1, 147732, Control_c, 0, 64, 46
1, 147746, Note_on_c, 0, 40, 0
1, 147749, Control_c, 0, 64, 50
1, 147769, Control_c, 0, 64, 64
1, 147788, Control_c, 0, 64, 82
1, 147807, Control_c, 0, 64, 114
1, 147824, Control_c, 0, 64, 127
1, 147845, Note_on_c, 0, 40, 74
1, 147857, Note_on_c, 0, 36, 0
1, 147920, Note_on_c, 0, 43, 80
1, 147937, Note_on_c, 0, 40, 0
1, 147956, Note_on_c, 0, 43, 0
1, 148002, Note_on_c, 0, 48, 68
1, 148032, Note_on_c, 0, 48, 0
1, 148044, Note_on_c, 0, 52, 73
1, 148118, Note_on_c, 0, 55, 75
1, 148151, Note_on_c, 0, 52, 0
1, 148161, Note_on_c, 0, 55, 0
1, 148231, Note_on_c, 0, 60, 83
1, 148321, Note_on_c, 0, 64, 74
1, 148401, Note_on_c, 0, 64, 0
1, 148403, Note_on_c, 0, 67, 81
1, 148451, Note_on_c, 0, 60, 0
1, 148452, Note_on_c, 0, 67, 0
1, 148480, Note_on_c, 0, 72, 75
1, 148555, Note_on_c, 0, 76, 79
1, 148594, Note_on_c, 0, 72, 0
1, 148657, Note_on_c, 0, 79, 80
1, 148704, Note_on_c, 0, 76, 0
1, 148979, Note_on_c, 0, 43, 49
1, 148983, Note_on_c, 0, 31, 49
1, 149007, Note_on_c, 0, 84, 81
1, 149020, Note_on_c, 0, 76, 58
1, 149037, Control_c, 0, 64, 122
1, 149046, Note_on_c, 0, 72, 53
1, 149055, Control_c, 0, 64, 109
1, 149061, Note_on_c, 0, 79, 0
1, 149074, Control_c, 0, 64, 89
1, 149093, Control_c, 0, 64, 63
1, 149111, Control_c, 0, 64, 18
1, 149130, Control_c, 0, 64, 0
1, 149212, Control_c, 0, 64, 20
1, 149232, Control_c, 0, 64, 35
1, 149249, Control_c, 0, 64, 50
1, 149269, Control_c, 0, 64, 64
1, 149286, Control_c, 0, 64, 77
1, 149304, Control_c, 0, 64, 93
1, 149311, Note_on_c, 0, 43, 0
1, 149323, Control_c, 0, 64, 108
1, 149341, Control_c, 0, 64, 122
1, 149360, Control_c, 0, 64, 127
1, 149369, Note_on_c, 0, 84, 0
1, 149375, Note_on_c, 0, 76, 0
1, 149390, Note_on_c, 0, 31, 0
1, 149405, Poly_aftertouch_c, 0, 83, 0
1, 149408, Note_on_c, 0, 72, 0
1, 149582, Control_c, 0, 67, 8
1, 149666, Note_on_c, 0, 83, 62
1, 149679, Note_on_c, 0, 44, 35
1, 149694, Control_c, 0, 64, 118
1, 149697, Note_on_c, 0, 32, 39
1, 149701, Note_on_c, 0, 71, 42
1, 149705, Note_on_c, 0, 76, 39
1, 149713, Control_c, 0, 64, 103
1, 149733, Control_c, 0, 64, 82
1, 149749, Control_c, 0, 64, 57
1, 149768, Control_c, 0, 64, 15
1, 149769, Control_c, 0, 67, 12
1, 149787, Control_c, 0, 64, 0
1, 149842, Control_c, 0, 64, 18
1, 149861, Control_c, 0, 64, 28
1, 149880, Control_c, 0, 64, 42
1, 149899, Control_c, 0, 64, 58
1, 149917, Control_c, 0, 64, 72
1, 149935, Control_c, 0, 64, 91
1, 149954, Control_c, 0, 64, 111
1, 149971, Control_c, 0, 64, 127
1, 149986, Note_on_c, 0, 32, 0
1, 150016, Note_on_c, 0, 44, 0
1, 150034, Note_on_c, 0, 83, 0
1, 150046, Control_c, 0, 67, 17
1, 150058, Note_on_c, 0, 71, 0
1, 150068, Note_on_c, 0, 76, 0
1, 150083, Control_c, 0, 67, 24
1, 150128, Control_c, 0, 67, 30
1, 150165, Control_c, 0, 67, 36
1, 150222, Control_c, 0, 67, 40
1, 150381, Note_on_c, 0, 83, 50
1, 150386, Note_on_c, 0, 44, 28
1, 150396, Note_on_c, 0, 76, 39
1, 150397, Note_on_c, 0, 40, 34
1, 150402, Note_on_c, 0, 32, 28
1, 150419, Note_on_c, 0, 71, 31
1, 150445, Control_c, 0, 64, 120
1, 150464, Control_c, 0, 64, 115
1, 150482, Control_c, 0, 64, 109
1, 150499, Control_c, 0, 64, 99
1, 150517, Control_c, 0, 64, 85
1, 150534, Control_c, 0, 64, 67
1, 150553, Control_c, 0, 64, 42
1, 150571, Control_c, 0, 64, 29
1, 150644, Control_c, 0, 64, 37
1, 150663, Control_c, 0, 64, 43
1, 150682, Control_c, 0, 64, 53
1, 150701, Control_c, 0, 64, 63
1, 150719, Control_c, 0, 64, 74
1, 150738, Control_c, 0, 64, 86
1, 150757, Control_c, 0, 64, 96
1, 150775, Control_c, 0, 64, 103
1, 150794, Control_c, 0, 64, 110
1, 150810, Control_c, 0, 64, 119
1, 150830, Control_c, 0, 64, 127
1, 150960, Note_on_c, 0, 71, 0
1, 151131, Note_on_c, 0, 76, 0
1, 151208, Note_on_c, 0, 83, 0
1, 151317, Note_on_c, 0, 32, 0
1, 151371, Note_on_c, 0, 44, 0
1, 151375, Control_c, 0, 67, 36
1, 151474, Note_on_c, 0, 40, 0
1, 151785, Control_c, 0, 67, 32
1, 151820, Control_c, 0, 67, 27
1, 151840, Control_c, 0, 67, 23
1, 151858, Control_c, 0, 67, 16
1, 151877, Control_c, 0, 67, 9
1, 151969, Control_c, 0, 67, 0
1, 152388, Note_on_c, 0, 95, 85
1, 152391, Note_on_c, 0, 44, 30
1, 152408, Note_on_c, 0, 83, 58
1, 152409, Note_on_c, 0, 32, 27
1, 152410, Note_on_c, 0, 88, 61
1, 152411, Note_on_c, 0, 40, 34
1, 153523, Note_on_c, 0, 32, 0
1, 153750, Note_on_c, 0, 88, 0
1, 153930, Note_on_c, 0, 40, 0
1, 153941, Control_c, 0, 67, 8
1, 154016, Control_c, 0, 67, 12
1, 154070, Control_c, 0, 67, 16
1, 154108, Control_c, 0, 67, 24
1, 154126, Control_c, 0, 67, 29
1, 154145, Control_c, 0, 67, 35
1, 154163, Control_c, 0, 67, 40
1, 154182, Control_c, 0, 67, 45
1, 154198, Control_c, 0, 67, 50
1, 154218, Control_c, 0, 67, 55
1, 154236, Control_c, 0, 67, 60
1, 154243, Note_on_c, 0, 44, 0
1, 154273, Control_c, 0, 67, 66
1, 154292, Control_c, 0, 67, 70
1, 154311, Control_c, 0, 67, 74
1, 154330, Control_c, 0, 67, 79
1, 154349, Control_c, 0, 67, 83
1, 154365, Control_c, 0, 67, 87
1, 154403, Control_c, 0, 67, 94
1, 154440, Control_c, 0, 67, 101
1, 154478, Control_c, 0, 67, 108
1, 154516, Control_c, 0, 67, 112
1, 154569, Control_c, 0, 67, 116
1, 154625, Control_c, 0, 67, 120
1, 154699, Control_c, 0, 67, 125
1, 154777, Poly_aftertouch_c, 0, 83, 24
1, 154879, Note_on_c, 0, 88, 56
1, 154945, Note_on_c, 0, 95, 0
1, 155016, Note_on_c, 0, 83, 0
1, 155354, Note_on_c, 0, 87, 50
1, 155372, Note_on_c, 0, 52, 35
1, 155374, Control_c, 0, 64, 120
1, 155391, Note_on_c, 0, 47, 31
1, 155392, Control_c, 0, 64, 103
1, 155394, Note_on_c, 0, 44, 31
1, 155413, Control_c, 0, 64, 82
1, 155433, Control_c, 0, 64, 59
1, 155438, Note_on_c, 0, 88, 0
1, 155450, Control_c, 0, 64, 32
1, 155542, Control_c, 0, 64, 37
1, 155560, Control_c, 0, 64, 43
1, 155579, Control_c, 0, 64, 52
1, 155599, Control_c, 0, 64, 60
1, 155617, Control_c, 0, 64, 69
1, 155634, Control_c, 0, 64, 78
1, 155654, Control_c, 0, 64, 90
1, 155670, Control_c, 0, 64, 100
1, 155689, Control_c, 0, 64, 107
1, 155707, Control_c, 0, 64, 113
1, 155735, Control_c, 0, 64, 118
1, 155755, Control_c, 0, 64, 122
1, 155758, Note_on_c, 0, 88, 60
1, 155766, Note_on_c, 0, 52, 0
1, 155780, Note_on_c, 0, 47, 0
1, 155784, Note_on_c, 0, 44, 0
1, 155790, Control_c, 0, 64, 127
1, 155801, Note_on_c, 0, 87, 0
1, 156033, Control_c, 0, 64, 121
1, 156041, Note_on_c, 0, 87, 68
1, 156049, Control_c, 0, 64, 116
1, 156069, Control_c, 0, 64, 109
1, 156088, Control_c, 0, 64, 99
1, 156090, Control_c, 0, 67, 121
1, 156105, Note_on_c, 0, 88, 0
1, 156105, Control_c, 0, 64, 87
1, 156125, Control_c, 0, 64, 70
1, 156143, Control_c, 0, 64, 44
1, 156162, Control_c, 0, 64, 23
1, 156275, Control_c, 0, 64, 27
1, 156292, Control_c, 0, 67, 117
1, 156294, Note_on_c, 0, 88, 69
1, 156305, Control_c, 0, 64, 31
1, 156331, Note_on_c, 0, 87, 0
1, 156361, Control_c, 0, 64, 36
1, 156416, Control_c, 0, 64, 41
1, 156434, Control_c, 0, 64, 43
1, 156452, Control_c, 0, 64, 45
1, 156472, Control_c, 0, 64, 48
1, 156491, Control_c, 0, 64, 50
1, 156509, Control_c, 0, 64, 53
1, 156527, Control_c, 0, 64, 56
1, 156528, Control_c, 0, 67, 111
1, 156546, Control_c, 0, 64, 59
1, 156554, Note_on_c, 0, 95, 69
1, 156564, Control_c, 0, 64, 62
1, 156565, Control_c, 0, 67, 107
1, 156569, Note_on_c, 0, 57, 36
1, 156570, Note_on_c, 0, 52, 31
1, 156583, Note_on_c, 0, 49, 31
1, 156583, Control_c, 0, 64, 65
1, 156601, Control_c, 0, 64, 68
1, 156602, Control_c, 0, 67, 102
1, 156620, Control_c, 0, 64, 72
1, 156637, Control_c, 0, 64, 77
1, 156638, Control_c, 0, 67, 96
1, 156666, Control_c, 0, 64, 83
1, 156681, Note_on_c, 0, 88, 0
1, 156684, Control_c, 0, 64, 89
1, 156687, Control_c, 0, 67, 90
1, 156703, Control_c, 0, 64, 94
1, 156722, Control_c, 0, 64, 98
1, 156723, Control_c, 0, 67, 85
1, 156741, Control_c, 0, 64, 103
1, 156759, Control_c, 0, 64, 109
1, 156759, Control_c, 0, 67, 81
1, 156779, Control_c, 0, 64, 116
1, 156796, Control_c, 0, 64, 123
1, 156813, Control_c, 0, 64, 127
1, 156842, Note_on_c, 0, 57, 0
1, 156862, Note_on_c, 0, 93, 66
1, 156869, Note_on_c, 0, 52, 0
1, 156885, Note_on_c, 0, 49, 0
1, 156916, Note_on_c, 0, 95, 0
1, 157017, Control_c, 0, 67, 85
1, 157111, Control_c, 0, 67, 89
1, 157140, Note_on_c, 0, 92, 54
1, 157147, Control_c, 0, 64, 112
1, 157158, Note_on_c, 0, 93, 0
1, 157164, Control_c, 0, 64, 91
1, 157165, Control_c, 0, 67, 95
1, 157184, Control_c, 0, 64, 67
1, 157203, Control_c, 0, 64, 34
1, 157204, Control_c, 0, 67, 99
1, 157221, Control_c, 0, 64, 24
1, 157259, Control_c, 0, 64, 30
1, 157278, Control_c, 0, 64, 36
1, 157278, Control_c, 0, 67, 104
1, 157295, Control_c, 0, 64, 43
1, 157316, Control_c, 0, 64, 52
1, 157333, Control_c, 0, 64, 64
1, 157351, Control_c, 0, 64, 76
1, 157371, Control_c, 0, 64, 92
1, 157373, Control_c, 0, 67, 108
1, 157388, Control_c, 0, 64, 104
1, 157407, Control_c, 0, 64, 110
1, 157425, Control_c, 0, 64, 115
1, 157427, Control_c, 0, 67, 112
1, 157434, Note_on_c, 0, 92, 0
1, 157438, Note_on_c, 0, 87, 53
1, 157444, Control_c, 0, 64, 119
1, 157481, Control_c, 0, 64, 124
1, 157482, Control_c, 0, 67, 116
1, 157638, Control_c, 0, 67, 120
1, 157694, Control_c, 0, 64, 119
1, 157712, Control_c, 0, 64, 112
1, 157730, Control_c, 0, 64, 100
1, 157749, Control_c, 0, 64, 85
1, 157768, Control_c, 0, 64, 66
1, 157786, Control_c, 0, 64, 45
1, 157792, Note_on_c, 0, 88, 44
1, 157800, Note_on_c, 0, 47, 24
1, 157802, Note_on_c, 0, 56, 30
1, 157805, Control_c, 0, 64, 42
1, 157810, Note_on_c, 0, 52, 30
1, 157824, Note_on_c, 0, 87, 0
1, 157841, Control_c, 0, 64, 46
1, 157861, Control_c, 0, 64, 49
1, 157879, Control_c, 0, 64, 54
1, 157898, Control_c, 0, 64, 61
1, 157914, Control_c, 0, 64, 72
1, 157935, Control_c, 0, 64, 86
1, 157952, Control_c, 0, 64, 97
1, 157970, Control_c, 0, 64, 102
1, 157986, Note_on_c, 0, 47, 0
1, 157988, Control_c, 0, 64, 106
1, 158002, Note_on_c, 0, 52, 0
1, 158008, Control_c, 0, 64, 111
1, 158009, Note_on_c, 0, 56, 0
1, 158027, Control_c, 0, 64, 116
1, 158046, Control_c, 0, 64, 121
1, 158064, Control_c, 0, 64, 126
1, 158172, Note_on_c, 0, 88, 0
1, 158184, Note_on_c, 0, 87, 50
1, 158573, Control_c, 0, 64, 122
1, 158592, Control_c, 0, 64, 118
1, 158595, Note_on_c, 0, 80, 47
1, 158610, Control_c, 0, 64, 110
1, 158623, Note_on_c, 0, 88, 45
1, 158626, Control_c, 0, 64, 97
1, 158640, Note_on_c, 0, 87, 0
1, 158648, Control_c, 0, 64, 81
1, 158666, Control_c, 0, 64, 60
1, 158683, Control_c, 0, 64, 36
1, 158702, Control_c, 0, 67, 116
1, 158777, Control_c, 0, 64, 40
1, 158788, Note_on_c, 0, 80, 0
1, 158795, Control_c, 0, 64, 42
1, 158813, Note_on_c, 0, 88, 0
1, 158814, Control_c, 0, 64, 45
1, 158825, Note_on_c, 0, 76, 38
1, 158831, Note_on_c, 0, 85, 45
1, 158832, Control_c, 0, 64, 47
1, 158868, Control_c, 0, 64, 52
1, 158888, Control_c, 0, 64, 54
1, 158905, Control_c, 0, 64, 56
1, 158925, Control_c, 0, 64, 59
1, 158930, Note_on_c, 0, 76, 0
1, 158944, Control_c, 0, 64, 62
1, 158961, Control_c, 0, 64, 66
1, 158975, Note_on_c, 0, 85, 0
1, 158980, Control_c, 0, 64, 70
1, 158987, Note_on_c, 0, 87, 48
1, 158989, Note_on_c, 0, 78, 41
1, 159000, Control_c, 0, 64, 74
1, 159018, Control_c, 0, 64, 79
1, 159034, Control_c, 0, 64, 83
1, 159092, Note_on_c, 0, 87, 0
1, 159104, Note_on_c, 0, 75, 45
1, 159127, Note_on_c, 0, 83, 50
1, 159134, Note_on_c, 0, 78, 0
1, 159216, Note_on_c, 0, 75, 0
1, 159251, Note_on_c, 0, 83, 0
1, 159254, Note_on_c, 0, 85, 52
1, 159260, Note_on_c, 0, 76, 54
1, 159345, Note_on_c, 0, 85, 0
1, 159380, Note_on_c, 0, 81, 53
1, 159399, Note_on_c, 0, 73, 47
1, 159399, Note_on_c, 0, 76, 0
1, 159489, Control_c, 0, 64, 81
1, 159521, Note_on_c, 0, 81, 0
1, 159526, Control_c, 0, 64, 79
1, 159535, Note_on_c, 0, 75, 52
1, 159537, Note_on_c, 0, 83, 59
1, 159545, Control_c, 0, 64, 75
1, 159563, Control_c, 0, 64, 68
1, 159583, Control_c, 0, 64, 55
1, 159590, Note_on_c, 0, 73, 0
1, 159600, Control_c, 0, 64, 42
1, 159623, Note_on_c, 0, 75, 0
1, 159637, Control_c, 0, 64, 38
1, 159646, Note_on_c, 0, 83, 0
1, 159658, Note_on_c, 0, 80, 53
1, 159663, Note_on_c, 0, 71, 47
1, 159787, Note_on_c, 0, 81, 56
1, 159787, Note_on_c, 0, 71, 0
1, 159788, Control_c, 0, 64, 40
1, 159796, Note_on_c, 0, 80, 0
1, 159797, Note_on_c, 0, 73, 45
1, 159824, Control_c, 0, 64, 42
1, 159853, Note_on_c, 0, 81, 0
1, 159860, Control_c, 0, 64, 45
1, 159898, Note_on_c, 0, 78, 59
1, 159899, Control_c, 0, 64, 47
1, 159914, Note_on_c, 0, 69, 50
1, 159917, Note_on_c, 0, 73, 0
1, 159991, Control_c, 0, 64, 49
1, 160014, Note_on_c, 0, 78, 0
1, 160022, Note_on_c, 0, 80, 62
1, 160029, Note_on_c, 0, 69, 0
1, 160076, Note_on_c, 0, 71, 42
1, 160102, Note_on_c, 0, 80, 0
1, 160133, Note_on_c, 0, 76, 57
1, 160157, Note_on_c, 0, 71, 0
1, 160171, Note_on_c, 0, 68, 49
1, 160233, Note_on_c, 0, 76, 0
1, 160256, Note_on_c, 0, 78, 60
1, 160280, Note_on_c, 0, 68, 0
1, 160306, Control_c, 0, 64, 47
1, 160311, Note_on_c, 0, 69, 52
1, 160361, Control_c, 0, 64, 45
1, 160380, Note_on_c, 0, 78, 0
1, 160381, Note_on_c, 0, 75, 62
1, 160409, Note_on_c, 0, 69, 0
1, 160420, Note_on_c, 0, 66, 54
1, 160446, Control_c, 0, 64, 43
1, 160511, Note_on_c, 0, 76, 61
1, 160513, Note_on_c, 0, 75, 0
1, 160530, Note_on_c, 0, 66, 0
1, 160538, Note_on_c, 0, 68, 54
1, 160618, Note_on_c, 0, 68, 0
1, 160626, Note_on_c, 0, 76, 0
1, 160631, Note_on_c, 0, 73, 65
1, 160639, Note_on_c, 0, 64, 57
1, 160706, Note_on_c, 0, 64, 0
1, 160745, Note_on_c, 0, 75, 68
1, 160756, Note_on_c, 0, 66, 58
1, 160756, Note_on_c, 0, 73, 0
1, 160836, Note_on_c, 0, 75, 0
1, 160852, Note_on_c, 0, 66, 0
1, 160856, Note_on_c, 0, 71, 62
1, 160857, Note_on_c, 0, 63, 62
1, 160959, Note_on_c, 0, 71, 0
1, 160961, Note_on_c, 0, 63, 0
1, 160972, Note_on_c, 0, 73, 64
1, 160982, Note_on_c, 0, 64, 58
1, 161064, Note_on_c, 0, 73, 0
1, 161075, Control_c, 0, 67, 120
1, 161075, Note_on_c, 0, 69, 61
1, 161102, Note_on_c, 0, 61, 57
1, 161104, Note_on_c, 0, 64, 0
1, 161198, Note_on_c, 0, 69, 0
1, 161203, Note_on_c, 0, 71, 61
1, 161209, Note_on_c, 0, 63, 64
1, 161211, Note_on_c, 0, 61, 0
1, 161305, Note_on_c, 0, 68, 61
1, 161308, Note_on_c, 0, 71, 0
1, 161317, Note_on_c, 0, 63, 0
1, 161344, Note_on_c, 0, 59, 59
1, 161448, Note_on_c, 0, 61, 64
1, 161450, Note_on_c, 0, 69, 65
1, 161453, Note_on_c, 0, 59, 0
1, 161454, Control_c, 0, 64, 41
1, 161473, Note_on_c, 0, 68, 0
1, 161540, Note_on_c, 0, 69, 0
1, 161548, Note_on_c, 0, 66, 66
1, 161560, Note_on_c, 0, 57, 61
1, 161564, Note_on_c, 0, 61, 0
1, 161651, Note_on_c, 0, 57, 0
1, 161674, Note_on_c, 0, 68, 67
1, 161682, Note_on_c, 0, 59, 64
1, 161684, Note_on_c, 0, 66, 0
1, 161773, Note_on_c, 0, 68, 0
1, 161787, Note_on_c, 0, 64, 66
1, 161792, Note_on_c, 0, 59, 0
1, 161798, Note_on_c, 0, 56, 59
1, 161899, Note_on_c, 0, 56, 0
1, 161909, Note_on_c, 0, 66, 69
1, 161919, Note_on_c, 0, 57, 61
1, 161923, Note_on_c, 0, 64, 0
1, 162024, Note_on_c, 0, 63, 70
1, 162030, Note_on_c, 0, 54, 54
1, 162037, Note_on_c, 0, 57, 0
1, 162040, Note_on_c, 0, 66, 0
1, 162137, Note_on_c, 0, 56, 67
1, 162142, Note_on_c, 0, 54, 0
1, 162152, Note_on_c, 0, 64, 69
1, 162171, Note_on_c, 0, 63, 0
1, 162241, Note_on_c, 0, 56, 0
1, 162250, Control_c, 0, 67, 124
1, 162259, Note_on_c, 0, 52, 57
1, 162267, Note_on_c, 0, 61, 74
1, 162284, Note_on_c, 0, 64, 0
1, 162347, Note_on_c, 0, 52, 0
1, 162374, Note_on_c, 0, 54, 62
1, 162403, Note_on_c, 0, 63, 70
1, 162421, Note_on_c, 0, 61, 0
1, 162469, Note_on_c, 0, 54, 0
1, 162474, Note_on_c, 0, 51, 63
1, 162509, Note_on_c, 0, 59, 69
1, 162515, Note_on_c, 0, 63, 0
1, 162585, Note_on_c, 0, 51, 0
1, 162613, Note_on_c, 0, 52, 62
1, 162621, Note_on_c, 0, 59, 0
1, 162622, Note_on_c, 0, 61, 71
1, 162725, Note_on_c, 0, 61, 0
1, 162730, Note_on_c, 0, 57, 69
1, 162736, Note_on_c, 0, 49, 64
1, 162760, Note_on_c, 0, 52, 0
1, 162845, Note_on_c, 0, 51, 71
1, 162854, Note_on_c, 0, 59, 76
1, 162859, Note_on_c, 0, 49, 0
1, 162866, Note_on_c, 0, 57, 0
1, 162960, Note_on_c, 0, 51, 0
1, 162962, Note_on_c, 0, 56, 73
1, 162963, Note_on_c, 0, 47, 65
1, 162974, Note_on_c, 0, 59, 0
1, 163078, Note_on_c, 0, 49, 74
1, 163090, Note_on_c, 0, 57, 72
1, 163097, Note_on_c, 0, 47, 0
1, 163120, Note_on_c, 0, 56, 0
1, 163203, Note_on_c, 0, 45, 67
1, 163217, Note_on_c, 0, 54, 72
1, 163223, Note_on_c, 0, 57, 0
1, 163264, Note_on_c, 0, 49, 0
1, 163316, Note_on_c, 0, 45, 0
1, 163336, Note_on_c, 0, 47, 64
1, 163340, Note_on_c, 0, 56, 76
1, 163363, Note_on_c, 0, 54, 0
1, 163445, Note_on_c, 0, 56, 0
1, 163459, Note_on_c, 0, 44, 66
1, 163464, Note_on_c, 0, 52, 77
1, 163472, Note_on_c, 0, 47, 0
1, 163567, Note_on_c, 0, 44, 0
1, 163567, Control_c, 0, 64, 37
1, 163581, Note_on_c, 0, 45, 70
1, 163582, Note_on_c, 0, 54, 74
1, 163604, Note_on_c, 0, 52, 0
1, 163694, Note_on_c, 0, 42, 68
1, 163706, Note_on_c, 0, 51, 80
1, 163713, Note_on_c, 0, 45, 0
1, 163714, Note_on_c, 0, 54, 0
1, 163816, Note_on_c, 0, 44, 72
1, 163824, Note_on_c, 0, 52, 67
1, 163831, Note_on_c, 0, 42, 0
1, 163832, Note_on_c, 0, 51, 0
1, 163928, Note_on_c, 0, 40, 66
1, 163928, Note_on_c, 0, 44, 0
1, 163942, Note_on_c, 0, 49, 76
1, 163958, Note_on_c, 0, 52, 0
1, 164027, Note_on_c, 0, 40, 0
1, 164046, Note_on_c, 0, 42, 67
1, 164058, Note_on_c, 0, 51, 80
1, 164074, Note_on_c, 0, 49, 0
1, 164177, Note_on_c, 0, 42, 0
1, 164180, Note_on_c, 0, 39, 65
1, 164198, Note_on_c, 0, 47, 76
1, 164200, Note_on_c, 0, 51, 0
1, 164301, Note_on_c, 0, 39, 0
1, 164321, Note_on_c, 0, 49, 79
1, 164323, Note_on_c, 0, 40, 65
1, 164346, Note_on_c, 0, 47, 0
1, 164461, Note_on_c, 0, 37, 67
1, 164463, Note_on_c, 0, 46, 78
1, 164481, Note_on_c, 0, 40, 0
1, 164486, Note_on_c, 0, 49, 0
1, 164619, Note_on_c, 0, 35, 64
1, 164655, Note_on_c, 0, 37, 0
1, 164664, Note_on_c, 0, 47, 68
1, 164689, Note_on_c, 0, 46, 0
1, 164928, Note_on_c, 0, 45, 65
1, 164986, Note_on_c, 0, 47, 0
1, 164988, Note_on_c, 0, 35, 0
1, 165147, Note_on_c, 0, 37, 48
1, 165162, Note_on_c, 0, 47, 55
1, 165191, Note_on_c, 0, 45, 0
1, 165270, Control_c, 0, 64, 40
1, 165273, Control_c, 0, 67, 115
1, 165289, Control_c, 0, 67, 107
1, 165308, Control_c, 0, 64, 42
1, 165309, Control_c, 0, 67, 98
1, 165326, Control_c, 0, 67, 89
1, 165346, Control_c, 0, 64, 45
1, 165348, Control_c, 0, 67, 79
1, 165364, Control_c, 0, 67, 71
1, 165381, Note_on_c, 0, 47, 0
1, 165381, Control_c, 0, 67, 66
1, 165381, Note_on_c, 0, 44, 49
1, 165438, Control_c, 0, 64, 42
1, 165457, Note_on_c, 0, 37, 0
1, 165475, Control_c, 0, 64, 35
1, 165493, Control_c, 0, 64, 31
1, 165512, Control_c, 0, 64, 25
1, 165549, Control_c, 0, 64, 21
1, 165556, Note_on_c, 0, 44, 0
1, 165561, Note_on_c, 0, 47, 46
1, 165562, Note_on_c, 0, 39, 41
1, 165568, Control_c, 0, 67, 70
1, 165642, Control_c, 0, 64, 27
1, 165678, Control_c, 0, 64, 33
1, 165679, Control_c, 0, 67, 74
1, 165697, Control_c, 0, 64, 38
1, 165716, Control_c, 0, 64, 42
1, 165717, Control_c, 0, 67, 78
1, 165734, Control_c, 0, 64, 47
1, 165752, Control_c, 0, 64, 51
1, 165753, Control_c, 0, 67, 82
1, 165772, Control_c, 0, 64, 55
1, 165790, Control_c, 0, 64, 60
1, 165791, Control_c, 0, 67, 86
1, 165791, Note_on_c, 0, 47, 0
1, 165791, Note_on_c, 0, 39, 0
1, 165807, Control_c, 0, 64, 64
1, 165809, Note_on_c, 0, 42, 43
1, 165825, Control_c, 0, 64, 68
1, 165826, Control_c, 0, 67, 91
1, 165845, Control_c, 0, 64, 71
1, 165864, Control_c, 0, 64, 75
1, 165864, Control_c, 0, 67, 98
1, 165882, Control_c, 0, 64, 79
1, 165901, Control_c, 0, 64, 81
1, 165902, Control_c, 0, 67, 106
1, 165919, Control_c, 0, 67, 110
1, 165939, Control_c, 0, 67, 115
1, 165956, Control_c, 0, 67, 120
1, 165973, Control_c, 0, 67, 125
1, 166205, Control_c, 0, 64, 79
1, 166227, Note_on_c, 0, 28, 33
1, 166243, Control_c, 0, 64, 76
1, 166280, Control_c, 0, 64, 73
1, 166298, Control_c, 0, 64, 71
1, 166307, Note_on_c, 0, 40, 41
1, 166319, Control_c, 0, 64, 67
1, 166336, Control_c, 0, 64, 63
1, 166352, Control_c, 0, 64, 60
1, 166372, Control_c, 0, 64, 58
1, 166378, Note_on_c, 0, 42, 0
1, 166409, Control_c, 0, 64, 55
1, 166428, Control_c, 0, 64, 52
1, 166447, Control_c, 0, 64, 48
1, 166465, Control_c, 0, 64, 45
1, 166484, Control_c, 0, 64, 43
1, 166503, Control_c, 0, 64, 41
1, 166557, Control_c, 0, 64, 37
1, 166707, Control_c, 0, 64, 40
1, 166723, Control_c, 0, 64, 42
1, 166741, Control_c, 0, 64, 44
1, 166744, Note_on_c, 0, 47, 38
1, 166761, Control_c, 0, 64, 47
1, 166779, Control_c, 0, 64, 49
1, 166799, Control_c, 0, 64, 53
1, 166816, Control_c, 0, 64, 57
1, 166824, Note_on_c, 0, 40, 0
1, 166835, Control_c, 0, 64, 60
1, 166856, Control_c, 0, 64, 62
1, 166873, Control_c, 0, 64, 65
1, 166892, Control_c, 0, 64, 67
1, 166908, Control_c, 0, 64, 69
1, 166928, Control_c, 0, 64, 72
1, 166946, Control_c, 0, 64, 76
1, 166975, Control_c, 0, 64, 79
1, 166992, Control_c, 0, 64, 81
1, 167023, Note_on_c, 0, 44, 38
1, 167077, Note_on_c, 0, 47, 0
1, 167173, Note_on_c, 0, 44, 0
1, 167234, Control_c, 0, 64, 78
1, 167252, Control_c, 0, 64, 75
1, 167259, Note_on_c, 0, 52, 42
1, 167271, Control_c, 0, 64, 69
1, 167288, Control_c, 0, 64, 63
1, 167307, Control_c, 0, 64, 60
1, 167326, Control_c, 0, 64, 61
1, 167344, Control_c, 0, 64, 62
1, 167362, Control_c, 0, 64, 64
1, 167382, Control_c, 0, 64, 66
1, 167400, Control_c, 0, 64, 69
1, 167419, Control_c, 0, 64, 72
1, 167437, Control_c, 0, 64, 76
1, 167457, Control_c, 0, 64, 78
1, 167459, Note_on_c, 0, 52, 0
1, 167473, Control_c, 0, 64, 80
1, 167488, Note_on_c, 0, 47, 44
1, 167530, Control_c, 0, 64, 82
1, 167561, Note_on_c, 0, 28, 0
1, 167704, Note_on_c, 0, 47, 0
1, 167731, Note_on_c, 0, 56, 42
1, 167946, Control_c, 0, 64, 76
1, 167965, Control_c, 0, 64, 65
1, 167983, Note_on_c, 0, 56, 0
1, 167984, Control_c, 0, 64, 47
1, 167985, Note_on_c, 0, 52, 43
1, 168002, Control_c, 0, 64, 30
1, 168075, Control_c, 0, 64, 34
1, 168093, Control_c, 0, 64, 39
1, 168113, Control_c, 0, 64, 44
1, 168131, Control_c, 0, 64, 52
1, 168150, Control_c, 0, 64, 59
1, 168168, Control_c, 0, 64, 65
1, 168188, Control_c, 0, 64, 69
1, 168205, Control_c, 0, 64, 74
1, 168223, Control_c, 0, 64, 78
1, 168231, Note_on_c, 0, 59, 42
1, 168242, Control_c, 0, 64, 81
1, 168279, Control_c, 0, 64, 83
1, 168292, Note_on_c, 0, 52, 0
1, 168408, Control_c, 0, 64, 78
1, 168426, Control_c, 0, 64, 72
1, 168447, Control_c, 0, 64, 60
1, 168465, Control_c, 0, 64, 46
1, 168476, Note_on_c, 0, 56, 33
1, 168481, Control_c, 0, 64, 42
1, 168513, Note_on_c, 0, 59, 0
1, 168539, Control_c, 0, 64, 46
1, 168558, Control_c, 0, 64, 50
1, 168576, Control_c, 0, 64, 54
1, 168593, Control_c, 0, 64, 59
1, 168612, Control_c, 0, 64, 65
1, 168629, Note_on_c, 0, 56, 0
1, 168629, Control_c, 0, 64, 70
1, 168649, Control_c, 0, 64, 76
1, 168668, Control_c, 0, 64, 82
1, 168678, Note_on_c, 0, 64, 45
1, 168686, Control_c, 0, 64, 85
1, 168724, Control_c, 0, 64, 87
1, 168862, Control_c, 0, 64, 84
1, 168883, Control_c, 0, 64, 78
1, 168891, Note_on_c, 0, 64, 0
1, 168899, Control_c, 0, 64, 72
1, 168919, Control_c, 0, 64, 64
1, 168930, Note_on_c, 0, 59, 40
1, 168937, Control_c, 0, 64, 58
1, 168974, Control_c, 0, 64, 60
1, 168991, Control_c, 0, 64, 62
1, 169010, Control_c, 0, 64, 64
1, 169029, Control_c, 0, 64, 67
1, 169048, Control_c, 0, 64, 70
1, 169066, Control_c, 0, 64, 75
1, 169085, Control_c, 0, 64, 79
1, 169104, Control_c, 0, 64, 82
1, 169141, Control_c, 0, 64, 84
1, 169151, Note_on_c, 0, 59, 0
1, 169167, Note_on_c, 0, 68, 42
1, 169195, Control_c, 0, 64, 86
1, 169380, Control_c, 0, 64, 83
1, 169391, Note_on_c, 0, 64, 38
1, 169397, Control_c, 0, 64, 77
1, 169412, Note_on_c, 0, 68, 0
1, 169416, Control_c, 0, 64, 69
1, 169436, Control_c, 0, 64, 59
1, 169455, Control_c, 0, 64, 53
1, 169492, Control_c, 0, 64, 56
1, 169511, Control_c, 0, 64, 58
1, 169528, Control_c, 0, 64, 61
1, 169547, Control_c, 0, 64, 64
1, 169564, Control_c, 0, 64, 68
1, 169584, Control_c, 0, 64, 73
1, 169602, Control_c, 0, 64, 79
1, 169615, Note_on_c, 0, 71, 47
1, 169621, Control_c, 0, 64, 84
1, 169641, Control_c, 0, 64, 87
1, 169778, Control_c, 0, 64, 91
1, 169800, Note_on_c, 0, 64, 0
1, 169835, Control_c, 0, 64, 84
1, 169854, Control_c, 0, 64, 77
1, 169863, Note_on_c, 0, 68, 44
1, 169871, Control_c, 0, 64, 67
1, 169891, Control_c, 0, 64, 56
1, 169945, Control_c, 0, 64, 59
1, 169963, Control_c, 0, 64, 61
1, 169983, Control_c, 0, 64, 64
1, 169991, Note_on_c, 0, 71, 0
1, 170000, Control_c, 0, 64, 68
1, 170020, Control_c, 0, 64, 74
1, 170028, Note_on_c, 0, 68, 0
1, 170039, Control_c, 0, 64, 80
1, 170057, Control_c, 0, 64, 85
1, 170076, Control_c, 0, 64, 88
1, 170084, Note_on_c, 0, 76, 48
1, 170240, Control_c, 0, 64, 85
1, 170259, Control_c, 0, 64, 79
1, 170279, Control_c, 0, 64, 73
1, 170279, Note_on_c, 0, 76, 0
1, 170296, Control_c, 0, 64, 66
1, 170313, Note_on_c, 0, 71, 48
1, 170315, Control_c, 0, 64, 64
1, 170335, Control_c, 0, 64, 65
1, 170353, Control_c, 0, 64, 67
1, 170390, Control_c, 0, 64, 71
1, 170408, Control_c, 0, 64, 74
1, 170427, Note_on_c, 0, 71, 0
1, 170427, Control_c, 0, 64, 78
1, 170446, Control_c, 0, 64, 83
1, 170463, Control_c, 0, 64, 86
1, 170500, Control_c, 0, 64, 91
1, 170556, Control_c, 0, 64, 95
1, 170597, Note_on_c, 0, 80, 48
1, 170601, Poly_aftertouch_c, 0, 71, 0
1, 170900, Note_on_c, 0, 80, 0
1, 170936, Control_c, 0, 64, 87
1, 170948, Note_on_c, 0, 76, 47
1, 170954, Control_c, 0, 64, 81
1, 170973, Control_c, 0, 64, 77
1, 171065, Control_c, 0, 64, 81
1, 171085, Control_c, 0, 64, 84
1, 171102, Control_c, 0, 64, 86
1, 171130, Note_on_c, 0, 83, 57
1, 171139, Control_c, 0, 64, 91
1, 171177, Control_c, 0, 64, 95
1, 171213, Control_c, 0, 64, 99
1, 171268, Control_c, 0, 64, 103
1, 171313, Note_on_c, 0, 76, 0
1, 171319, Note_on_c, 0, 80, 58
1, 171361, Control_c, 0, 64, 107
1, 171435, Control_c, 0, 64, 111
1, 171445, Note_on_c, 0, 80, 0
1, 171473, Note_on_c, 0, 88, 62
1, 171482, Note_on_c, 0, 83, 0
1, 171546, Control_c, 0, 64, 115
1, 171633, Note_on_c, 0, 88, 0
1, 171663, Note_on_c, 0, 83, 66
1, 171939, Control_c, 0, 64, 119
1, 172109, Note_on_c, 0, 92, 67
1, 172207, Note_on_c, 0, 83, 0
1, 173091, Note_on_c, 0, 88, 54
1, 173116, Control_c, 0, 64, 113
1, 173134, Control_c, 0, 64, 107
1, 173148, Note_on_c, 0, 92, 0
1, 173153, Control_c, 0, 64, 99
1, 173172, Control_c, 0, 64, 90
1, 173191, Control_c, 0, 64, 80
1, 173207, Control_c, 0, 64, 70
1, 173226, Control_c, 0, 64, 61
1, 173246, Control_c, 0, 64, 57
1, 173282, Control_c, 0, 64, 59
1, 173301, Control_c, 0, 64, 61
1, 173320, Control_c, 0, 64, 63
1, 173338, Control_c, 0, 64, 67
1, 173356, Control_c, 0, 64, 73
1, 173376, Control_c, 0, 64, 82
1, 173392, Control_c, 0, 64, 88
1, 173430, Control_c, 0, 64, 94
1, 173466, Control_c, 0, 64, 99
1, 173513, Control_c, 0, 64, 104
1, 173587, Control_c, 0, 64, 108
1, 174060, Note_on_c, 0, 83, 49
1, 174068, Control_c, 0, 64, 104
1, 174161, Control_c, 0, 64, 100
1, 174236, Control_c, 0, 64, 96
1, 174293, Control_c, 0, 64, 92
1, 174313, Note_on_c, 0, 88, 0
1, 174346, Control_c, 0, 64, 88
1, 174364, Control_c, 0, 64, 85
1, 174384, Control_c, 0, 64, 83
1, 174401, Control_c, 0, 64, 81
1, 174421, Control_c, 0, 64, 79
1, 174449, Control_c, 0, 64, 76
1, 174468, Control_c, 0, 64, 72
1, 174487, Control_c, 0, 64, 67
1, 174504, Control_c, 0, 64, 62
1, 174522, Control_c, 0, 64, 58
1, 174634, Control_c, 0, 64, 56
1, 174672, Control_c, 0, 64, 54
1, 174708, Control_c, 0, 64, 51
1, 174745, Control_c, 0, 64, 48
1, 174781, Control_c, 0, 64, 45
1, 174819, Control_c, 0, 64, 42
1, 174856, Control_c, 0, 64, 40
1, 174948, Control_c, 0, 64, 36
1, 175132, Control_c, 0, 64, 32
1, 175412, Note_on_c, 0, 84, 40
1, 175562, Note_on_c, 0, 83, 0
1, 175735, Control_c, 0, 64, 37
1, 175754, Control_c, 0, 64, 40
1, 175773, Control_c, 0, 64, 43
1, 175791, Control_c, 0, 64, 47
1, 175810, Control_c, 0, 64, 51
1, 175826, Control_c, 0, 64, 57
1, 175846, Control_c, 0, 64, 63
1, 175864, Control_c, 0, 64, 68
1, 175883, Control_c, 0, 64, 73
1, 175901, Control_c, 0, 64, 78
1, 175921, Control_c, 0, 64, 83
1, 175940, Control_c, 0, 64, 86
1, 175977, Control_c, 0, 64, 92
1, 175995, Control_c, 0, 64, 97
1, 176012, Control_c, 0, 64, 102
1, 176030, Control_c, 0, 64, 108
1, 176050, Control_c, 0, 64, 114
1, 176068, Control_c, 0, 64, 121
1, 176087, Control_c, 0, 64, 127
1, 176496, Note_on_c, 0, 84, 0
1, 177226, Note_on_c, 0, 85, 40
1, 177344, Control_c, 0, 64, 119
1, 177364, Control_c, 0, 64, 100
1, 177383, Control_c, 0, 64, 83
1, 177401, Control_c, 0, 64, 68
1, 177420, Control_c, 0, 64, 58
1, 177476, Control_c, 0, 64, 61
1, 177494, Control_c, 0, 64, 63
1, 177500, Note_on_c, 0, 88, 40
1, 177512, Control_c, 0, 64, 67
1, 177531, Control_c, 0, 64, 72
1, 177549, Control_c, 0, 64, 82
1, 177568, Control_c, 0, 64, 93
1, 177588, Control_c, 0, 64, 101
1, 177604, Control_c, 0, 64, 108
1, 177624, Control_c, 0, 64, 116
1, 177633, Note_on_c, 0, 88, 0
1, 177641, Control_c, 0, 64, 127
1, 177642, Note_on_c, 0, 85, 0
1, 177660, Note_on_c, 0, 69, 28
1, 177814, Note_on_c, 0, 76, 19
1, 177867, Note_on_c, 0, 69, 0
1, 177913, Note_on_c, 0, 76, 0
1, 177947, Note_on_c, 0, 88, 51
1, 178013, Control_c, 0, 64, 117
1, 178031, Control_c, 0, 64, 99
1, 178051, Control_c, 0, 64, 79
1, 178067, Control_c, 0, 64, 59
1, 178069, Note_on_c, 0, 83, 46
1, 178087, Control_c, 0, 64, 43
1, 178125, Control_c, 0, 64, 48
1, 178133, Note_on_c, 0, 88, 0
1, 178142, Control_c, 0, 64, 51
1, 178162, Control_c, 0, 64, 57
1, 178181, Control_c, 0, 64, 64
1, 178207, Note_on_c, 0, 76, 39
1, 178209, Control_c, 0, 64, 74
1, 178228, Control_c, 0, 64, 89
1, 178231, Note_on_c, 0, 83, 0
1, 178247, Control_c, 0, 64, 103
1, 178265, Control_c, 0, 64, 110
1, 178282, Control_c, 0, 64, 115
1, 178299, Note_on_c, 0, 76, 0
1, 178301, Control_c, 0, 64, 120
1, 178329, Note_on_c, 0, 68, 32
1, 178336, Control_c, 0, 64, 125
1, 178379, Note_on_c, 0, 68, 0
1, 178472, Note_on_c, 0, 81, 53
1, 178486, Control_c, 0, 64, 118
1, 178504, Control_c, 0, 64, 107
1, 178524, Control_c, 0, 64, 90
1, 178542, Control_c, 0, 64, 68
1, 178560, Control_c, 0, 64, 39
1, 178580, Control_c, 0, 64, 31
1, 178586, Note_on_c, 0, 83, 47
1, 178604, Note_on_c, 0, 81, 0
1, 178616, Control_c, 0, 64, 36
1, 178633, Control_c, 0, 64, 43
1, 178652, Control_c, 0, 64, 52
1, 178672, Control_c, 0, 64, 62
1, 178689, Control_c, 0, 64, 73
1, 178701, Note_on_c, 0, 66, 46
1, 178708, Control_c, 0, 64, 89
1, 178723, Note_on_c, 0, 83, 0
1, 178727, Control_c, 0, 64, 103
1, 178745, Control_c, 0, 64, 111
1, 178764, Control_c, 0, 64, 115
1, 178803, Control_c, 0, 64, 122
1, 178818, Note_on_c, 0, 66, 0
1, 178832, Note_on_c, 0, 75, 44
1, 178837, Control_c, 0, 64, 127
1, 178912, Note_on_c, 0, 75, 0
1, 178968, Control_c, 0, 64, 121
1, 178972, Note_on_c, 0, 83, 60
1, 178987, Control_c, 0, 64, 108
1, 179004, Control_c, 0, 64, 91
1, 179023, Control_c, 0, 64, 71
1, 179041, Control_c, 0, 64, 46
1, 179060, Control_c, 0, 64, 37
1, 179093, Note_on_c, 0, 80, 43
1, 179096, Control_c, 0, 64, 41
1, 179103, Note_on_c, 0, 83, 0
1, 179115, Control_c, 0, 64, 46
1, 179144, Control_c, 0, 64, 53
1, 179162, Control_c, 0, 64, 62
1, 179182, Control_c, 0, 64, 72
1, 179198, Control_c, 0, 64, 86
1, 179208, Note_on_c, 0, 76, 47
1, 179216, Control_c, 0, 64, 99
1, 179230, Note_on_c, 0, 80, 0
1, 179234, Control_c, 0, 64, 107
1, 179255, Control_c, 0, 64, 114
1, 179272, Control_c, 0, 64, 125
1, 179360, Note_on_c, 0, 64, 35
1, 179369, Note_on_c, 0, 76, 0
1, 179531, Note_on_c, 0, 64, 0
1, 179584, Note_on_c, 0, 73, 50
1, 179595, Note_on_c, 0, 69, 32
1, 179607, Control_c, 0, 64, 113
1, 179625, Control_c, 0, 64, 94
1, 179643, Control_c, 0, 64, 76
1, 179663, Control_c, 0, 64, 57
1, 179681, Control_c, 0, 64, 47
1, 179717, Control_c, 0, 64, 52
1, 179720, Note_on_c, 0, 76, 54
1, 179737, Control_c, 0, 64, 56
1, 179754, Control_c, 0, 64, 62
1, 179771, Control_c, 0, 64, 72
1, 179791, Control_c, 0, 64, 87
1, 179810, Control_c, 0, 64, 105
1, 179828, Control_c, 0, 64, 120
1, 179847, Control_c, 0, 64, 127
1, 179863, Note_on_c, 0, 76, 0
1, 179867, Note_on_c, 0, 85, 59
1, 179874, Note_on_c, 0, 73, 0
1, 179945, Note_on_c, 0, 69, 0
1, 179989, Note_on_c, 0, 88, 56
1, 180000, Note_on_c, 0, 85, 0
1, 180026, Note_on_c, 0, 88, 0
1, 180086, Note_on_c, 0, 76, 62
1, 180098, Control_c, 0, 64, 112
1, 180116, Control_c, 0, 64, 93
1, 180123, Note_on_c, 0, 68, 50
1, 180134, Control_c, 0, 64, 74
1, 180152, Control_c, 0, 64, 57
1, 180170, Control_c, 0, 64, 51
1, 180190, Control_c, 0, 64, 53
1, 180207, Control_c, 0, 64, 56
1, 180211, Note_on_c, 0, 71, 58
1, 180226, Control_c, 0, 64, 59
1, 180246, Control_c, 0, 64, 66
1, 180264, Control_c, 0, 64, 79
1, 180276, Note_on_c, 0, 76, 0
1, 180283, Control_c, 0, 64, 96
1, 180302, Control_c, 0, 64, 111
1, 180318, Control_c, 0, 64, 121
1, 180337, Control_c, 0, 64, 127
1, 180344, Note_on_c, 0, 88, 63
1, 180395, Note_on_c, 0, 71, 0
1, 180397, Note_on_c, 0, 68, 0
1, 180483, Note_on_c, 0, 83, 57
1, 180485, Note_on_c, 0, 88, 0
1, 180530, Note_on_c, 0, 83, 0
1, 180579, Control_c, 0, 64, 120
1, 180589, Note_on_c, 0, 69, 48
1, 180598, Control_c, 0, 64, 94
1, 180616, Control_c, 0, 64, 70
1, 180632, Control_c, 0, 64, 42
1, 180640, Note_on_c, 0, 66, 30
1, 180653, Control_c, 0, 64, 36
1, 180689, Control_c, 0, 64, 41
1, 180706, Control_c, 0, 64, 47
1, 180714, Note_on_c, 0, 69, 0
1, 180726, Control_c, 0, 64, 54
1, 180740, Note_on_c, 0, 71, 45
1, 180744, Control_c, 0, 64, 63
1, 180763, Control_c, 0, 64, 75
1, 180784, Control_c, 0, 64, 90
1, 180801, Control_c, 0, 64, 100
1, 180819, Control_c, 0, 64, 105
1, 180838, Control_c, 0, 64, 110
1, 180856, Control_c, 0, 64, 118
1, 180869, Note_on_c, 0, 83, 46
1, 180875, Control_c, 0, 64, 127
1, 180904, Note_on_c, 0, 71, 0
1, 180975, Note_on_c, 0, 83, 0
1, 180986, Note_on_c, 0, 90, 46
1, 181022, Note_on_c, 0, 87, 27
1, 181034, Note_on_c, 0, 90, 0
1, 181070, Note_on_c, 0, 87, 0
1, 181146, Note_on_c, 0, 66, 0
1, 181164, Note_on_c, 0, 71, 27
1, 181164, Control_c, 0, 64, 113
1, 181174, Note_on_c, 0, 64, 35
1, 181181, Control_c, 0, 64, 96
1, 181201, Control_c, 0, 64, 74
1, 181218, Control_c, 0, 64, 48
1, 181238, Control_c, 0, 64, 28
1, 181254, Note_on_c, 0, 71, 0
1, 181288, Control_c, 0, 64, 34
1, 181304, Note_on_c, 0, 68, 32
1, 181304, Control_c, 0, 64, 39
1, 181324, Control_c, 0, 64, 46
1, 181342, Control_c, 0, 64, 54
1, 181361, Control_c, 0, 64, 62
1, 181380, Control_c, 0, 64, 71
1, 181399, Control_c, 0, 64, 80
1, 181417, Control_c, 0, 64, 89
1, 181429, Note_on_c, 0, 92, 43
1, 181434, Control_c, 0, 64, 95
1, 181448, Note_on_c, 0, 88, 27
1, 181450, Control_c, 0, 64, 102
1, 181471, Control_c, 0, 64, 114
1, 181489, Control_c, 0, 64, 127
1, 181496, Note_on_c, 0, 64, 0
1, 181534, Note_on_c, 0, 68, 0
1, 181561, Note_on_c, 0, 92, 0
1, 181577, Note_on_c, 0, 88, 0
1, 181591, Note_on_c, 0, 83, 43
1, 181703, Note_on_c, 0, 83, 0
1, 181831, Note_on_c, 0, 78, 49
1, 181898, Control_c, 0, 64, 119
1, 181918, Control_c, 0, 64, 100
1, 181944, Control_c, 0, 64, 80
1, 181963, Control_c, 0, 64, 60
1, 181982, Control_c, 0, 64, 45
1, 182000, Note_on_c, 0, 83, 46
1, 182017, Control_c, 0, 64, 49
1, 182036, Control_c, 0, 64, 52
1, 182055, Control_c, 0, 64, 57
1, 182073, Control_c, 0, 64, 63
1, 182095, Control_c, 0, 64, 73
1, 182105, Note_on_c, 0, 75, 46
1, 182111, Control_c, 0, 64, 90
1, 182113, Control_c, 0, 67, 117
1, 182131, Control_c, 0, 64, 107
1, 182132, Control_c, 0, 67, 111
1, 182146, Note_on_c, 0, 83, 0
1, 182147, Control_c, 0, 64, 121
1, 182148, Control_c, 0, 67, 105
1, 182166, Control_c, 0, 64, 127
1, 182167, Control_c, 0, 67, 96
1, 182172, Note_on_c, 0, 78, 0
1, 182183, Control_c, 0, 67, 85
1, 182203, Control_c, 0, 67, 73
1, 182220, Control_c, 0, 67, 61
1, 182240, Control_c, 0, 67, 51
1, 182244, Note_on_c, 0, 71, 32
1, 182258, Note_on_c, 0, 75, 0
1, 182258, Control_c, 0, 67, 42
1, 182277, Control_c, 0, 67, 35
1, 182296, Control_c, 0, 67, 29
1, 182314, Control_c, 0, 67, 24
1, 182348, Note_on_c, 0, 80, 67
1, 182351, Control_c, 0, 67, 17
1, 182366, Note_on_c, 0, 71, 0
1, 182390, Control_c, 0, 64, 121
1, 182391, Control_c, 0, 67, 13
1, 182408, Control_c, 0, 64, 105
1, 182428, Control_c, 0, 64, 85
1, 182429, Control_c, 0, 67, 8
1, 182446, Control_c, 0, 64, 62
1, 182464, Control_c, 0, 64, 37
1, 182488, Note_on_c, 0, 83, 65
1, 182521, Control_c, 0, 64, 42
1, 182539, Control_c, 0, 64, 49
1, 182556, Control_c, 0, 64, 57
1, 182574, Control_c, 0, 64, 68
1, 182593, Control_c, 0, 64, 85
1, 182601, Note_on_c, 0, 76, 58
1, 182612, Note_on_c, 0, 80, 0
1, 182612, Control_c, 0, 64, 106
1, 182630, Control_c, 0, 64, 123
1, 182649, Control_c, 0, 64, 127
1, 182658, Note_on_c, 0, 83, 0
1, 182691, Note_on_c, 0, 76, 0
1, 182719, Note_on_c, 0, 71, 53
1, 182771, Note_on_c, 0, 71, 0
1, 182841, Note_on_c, 0, 81, 71
1, 182881, Control_c, 0, 64, 108
1, 182901, Control_c, 0, 64, 87
1, 182920, Control_c, 0, 64, 63
1, 182936, Control_c, 0, 64, 38
1, 182971, Note_on_c, 0, 83, 65
1, 182992, Control_c, 0, 67, 12
1, 183009, Control_c, 0, 64, 42
1, 183028, Control_c, 0, 64, 48
1, 183031, Note_on_c, 0, 81, 0
1, 183048, Control_c, 0, 64, 58
1, 183068, Control_c, 0, 64, 72
1, 183068, Control_c, 0, 67, 17
1, 183085, Control_c, 0, 64, 92
1, 183104, Control_c, 0, 64, 113
1, 183105, Control_c, 0, 67, 23
1, 183122, Control_c, 0, 64, 125
1, 183123, Control_c, 0, 67, 28
1, 183126, Note_on_c, 0, 78, 48
1, 183141, Control_c, 0, 67, 32
1, 183149, Note_on_c, 0, 83, 0
1, 183174, Control_c, 0, 67, 39
1, 183211, Control_c, 0, 67, 46
1, 183228, Note_on_c, 0, 78, 0
1, 183233, Note_on_c, 0, 71, 26
1, 183250, Control_c, 0, 67, 50
1, 183283, Note_on_c, 0, 71, 0
1, 183285, Control_c, 0, 67, 55
1, 183322, Control_c, 0, 67, 62
1, 183342, Control_c, 0, 67, 66
1, 183358, Note_on_c, 0, 83, 55
1, 183360, Control_c, 0, 64, 112
1, 183361, Control_c, 0, 67, 71
1, 183379, Control_c, 0, 64, 94
1, 183398, Control_c, 0, 64, 73
1, 183400, Control_c, 0, 67, 78
1, 183416, Control_c, 0, 64, 49
1, 183434, Control_c, 0, 64, 43
1, 183436, Control_c, 0, 67, 84
1, 183453, Control_c, 0, 64, 46
1, 183473, Control_c, 0, 64, 51
1, 183473, Control_c, 0, 67, 90
1, 183490, Control_c, 0, 64, 57
1, 183494, Note_on_c, 0, 88, 48
1, 183509, Control_c, 0, 64, 65
1, 183510, Control_c, 0, 67, 97
1, 183528, Control_c, 0, 64, 78
1, 183529, Control_c, 0, 67, 101
1, 183547, Control_c, 0, 64, 100
1, 183549, Control_c, 0, 67, 106
1, 183567, Control_c, 0, 64, 123
1, 183569, Control_c, 0, 67, 111
1, 183579, Note_on_c, 0, 88, 0
1, 183582, Control_c, 0, 64, 127
1, 183584, Control_c, 0, 67, 118
1, 183599, Note_on_c, 0, 83, 0
1, 183601, Control_c, 0, 67, 124
1, 183624, Note_on_c, 0, 80, 44
1, 183657, Note_on_c, 0, 80, 0
1, 183732, Note_on_c, 0, 71, 32
1, 183776, Note_on_c, 0, 71, 0
1, 183939, Note_on_c, 0, 63, 53
1, 183968, Note_on_c, 0, 66, 47
1, 183982, Control_c, 0, 64, 103
1, 184001, Control_c, 0, 64, 86
1, 184019, Control_c, 0, 64, 72
1, 184038, Control_c, 0, 64, 63
1, 184074, Control_c, 0, 64, 66
1, 184093, Control_c, 0, 64, 68
1, 184094, Note_on_c, 0, 71, 45
1, 184111, Control_c, 0, 64, 72
1, 184131, Control_c, 0, 64, 78
1, 184148, Control_c, 0, 64, 86
1, 184167, Control_c, 0, 64, 92
1, 184186, Control_c, 0, 64, 98
1, 184198, Note_on_c, 0, 83, 50
1, 184205, Control_c, 0, 64, 102
1, 184213, Note_on_c, 0, 63, 0
1, 184240, Control_c, 0, 64, 110
1, 184259, Control_c, 0, 64, 114
1, 184296, Control_c, 0, 64, 120
1, 184321, Note_on_c, 0, 71, 0
1, 184322, Note_on_c, 0, 78, 48
1, 184330, Note_on_c, 0, 83, 0
1, 184350, Note_on_c, 0, 78, 0
1, 184472, Note_on_c, 0, 68, 62
1, 184533, Note_on_c, 0, 64, 48
1, 184538, Control_c, 0, 64, 107
1, 184547, Note_on_c, 0, 66, 0
1, 184555, Control_c, 0, 64, 95
1, 184574, Control_c, 0, 64, 76
1, 184592, Control_c, 0, 64, 53
1, 184610, Control_c, 0, 64, 32
1, 184613, Note_on_c, 0, 71, 59
1, 184666, Control_c, 0, 64, 39
1, 184686, Control_c, 0, 64, 45
1, 184703, Control_c, 0, 64, 52
1, 184723, Control_c, 0, 64, 62
1, 184747, Note_on_c, 0, 68, 0
1, 184749, Note_on_c, 0, 83, 57
1, 184750, Control_c, 0, 64, 74
1, 184768, Control_c, 0, 64, 91
1, 184787, Control_c, 0, 64, 105
1, 184805, Control_c, 0, 64, 114
1, 184824, Control_c, 0, 64, 119
1, 184842, Control_c, 0, 64, 123
1, 184863, Note_on_c, 0, 80, 60
1, 184877, Note_on_c, 0, 83, 0
1, 184944, Note_on_c, 0, 80, 0
1, 184975, Note_on_c, 0, 71, 0
1, 184982, Note_on_c, 0, 69, 63
1, 184990, Control_c, 0, 64, 118
1, 185002, Note_on_c, 0, 66, 55
1, 185009, Control_c, 0, 64, 108
1, 185027, Control_c, 0, 64, 93
1, 185046, Control_c, 0, 64, 73
1, 185048, Note_on_c, 0, 64, 0
1, 185065, Control_c, 0, 64, 47
1, 185084, Control_c, 0, 64, 28
1, 185138, Note_on_c, 0, 71, 49
1, 185156, Control_c, 0, 64, 35
1, 185163, Note_on_c, 0, 69, 0
1, 185175, Control_c, 0, 64, 42
1, 185195, Control_c, 0, 64, 51
1, 185213, Control_c, 0, 64, 60
1, 185233, Control_c, 0, 64, 71
1, 185250, Note_on_c, 0, 83, 52
1, 185250, Control_c, 0, 64, 84
1, 185269, Control_c, 0, 64, 96
1, 185287, Control_c, 0, 64, 101
1, 185304, Note_on_c, 0, 71, 0
1, 185342, Control_c, 0, 64, 105
1, 185386, Note_on_c, 0, 83, 0
1, 185389, Note_on_c, 0, 81, 44
1, 185432, Note_on_c, 0, 81, 0
1, 185501, Note_on_c, 0, 68, 41
1, 185504, Note_on_c, 0, 71, 33
1, 185504, Note_on_c, 0, 66, 0
1, 185509, Control_c, 0, 64, 99
1, 185528, Control_c, 0, 64, 91
1, 185545, Control_c, 0, 64, 76
1, 185565, Control_c, 0, 64, 54
1, 185582, Control_c, 0, 64, 25
1, 185657, Control_c, 0, 64, 32
1, 185657, Note_on_c, 0, 76, 43
1, 185684, Control_c, 0, 64, 40
1, 185702, Control_c, 0, 64, 49
1, 185722, Control_c, 0, 64, 60
1, 185740, Control_c, 0, 64, 69
1, 185758, Control_c, 0, 64, 79
1, 185777, Control_c, 0, 64, 89
1, 185779, Note_on_c, 0, 71, 0
1, 185791, Note_on_c, 0, 83, 54
1, 185796, Control_c, 0, 64, 95
1, 185814, Control_c, 0, 64, 99
1, 185815, Note_on_c, 0, 76, 0
1, 185852, Control_c, 0, 64, 107
1, 185887, Control_c, 0, 64, 112
1, 185891, Note_on_c, 0, 68, 0
1, 185916, Note_on_c, 0, 80, 52
1, 185986, Note_on_c, 0, 83, 0
1, 186080, Note_on_c, 0, 78, 56
1, 186101, Note_on_c, 0, 75, 46
1, 186109, Note_on_c, 0, 71, 38
1, 186129, Control_c, 0, 64, 108
1, 186148, Control_c, 0, 64, 103
1, 186166, Control_c, 0, 64, 94
1, 186185, Control_c, 0, 64, 83
1, 186204, Control_c, 0, 64, 66
1, 186223, Control_c, 0, 64, 42
1, 186239, Control_c, 0, 64, 30
1, 186262, Note_on_c, 0, 83, 58
1, 186314, Control_c, 0, 64, 36
1, 186323, Note_on_c, 0, 80, 0
1, 186333, Control_c, 0, 64, 42
1, 186352, Control_c, 0, 64, 52
1, 186353, Control_c, 0, 67, 117
1, 186357, Note_on_c, 0, 78, 0
1, 186371, Control_c, 0, 64, 64
1, 186373, Control_c, 0, 67, 104
1, 186390, Control_c, 0, 64, 79
1, 186392, Control_c, 0, 67, 83
1, 186393, Note_on_c, 0, 66, 45
1, 186401, Note_on_c, 0, 69, 41
1, 186409, Control_c, 0, 64, 101
1, 186412, Control_c, 0, 67, 53
1, 186425, Control_c, 0, 64, 124
1, 186427, Control_c, 0, 67, 19
1, 186443, Control_c, 0, 67, 0
1, 186476, Note_on_c, 0, 71, 0
1, 186485, Note_on_c, 0, 75, 0
1, 186510, Note_on_c, 0, 69, 0
1, 186520, Note_on_c, 0, 59, 51
1, 186529, Note_on_c, 0, 83, 0
1, 186559, Note_on_c, 0, 66, 0
1, 186649, Note_on_c, 0, 59, 0
1, 186691, Note_on_c, 0, 80, 75
1, 186720, Note_on_c, 0, 76, 62
1, 186727, Note_on_c, 0, 71, 44
1, 186749, Control_c, 0, 64, 99
1, 186769, Control_c, 0, 64, 72
1, 186787, Control_c, 0, 64, 28
1, 186804, Control_c, 0, 64, 0
1, 186868, Note_on_c, 0, 78, 23
1, 186879, Control_c, 0, 64, 20
1, 186880, Note_on_c, 0, 83, 78
1, 186898, Control_c, 0, 64, 39
1, 186916, Control_c, 0, 64, 57
1, 186922, Note_on_c, 0, 78, 0
1, 186934, Control_c, 0, 64, 74
1, 186954, Control_c, 0, 64, 99
1, 186972, Control_c, 0, 64, 127
1, 186975, Note_on_c, 0, 80, 0
1, 186984, Note_on_c, 0, 76, 0
1, 187005, Note_on_c, 0, 68, 68
1, 187008, Note_on_c, 0, 64, 60
1, 187093, Note_on_c, 0, 68, 0
1, 187133, Note_on_c, 0, 83, 0
1, 187154, Note_on_c, 0, 71, 0
1, 187164, Note_on_c, 0, 59, 72
1, 187185, Note_on_c, 0, 64, 0
1, 187257, Note_on_c, 0, 59, 0
1, 187409, Note_on_c, 0, 81, 81
1, 187431, Note_on_c, 0, 78, 72
1, 187434, Note_on_c, 0, 71, 63
1, 187472, Control_c, 0, 64, 105
1, 187490, Control_c, 0, 64, 81
1, 187510, Control_c, 0, 64, 54
1, 187527, Control_c, 0, 64, 0
1, 187646, Control_c, 0, 64, 27
1, 187666, Control_c, 0, 64, 46
1, 187685, Control_c, 0, 64, 60
1, 187703, Control_c, 0, 64, 70
1, 187719, Note_on_c, 0, 83, 78
1, 187720, Control_c, 0, 64, 81
1, 187726, Note_on_c, 0, 71, 0
1, 187740, Control_c, 0, 64, 93
1, 187758, Control_c, 0, 64, 105
1, 187776, Control_c, 0, 64, 123
1, 187794, Control_c, 0, 64, 127
1, 187802, Note_on_c, 0, 81, 0
1, 187854, Note_on_c, 0, 78, 0
1, 187873, Note_on_c, 0, 66, 62
1, 187877, Note_on_c, 0, 63, 55
1, 187932, Note_on_c, 0, 83, 0
1, 188018, Note_on_c, 0, 66, 0
1, 188108, Note_on_c, 0, 59, 57
1, 188121, Note_on_c, 0, 63, 0
1, 188209, Note_on_c, 0, 59, 0
1, 188528, Control_c, 0, 64, 117
1, 188547, Control_c, 0, 64, 110
1, 188566, Control_c, 0, 64, 103
1, 188584, Control_c, 0, 64, 95
1, 188585, Control_c, 0, 67, 9
1, 188602, Control_c, 0, 64, 85
1, 188622, Control_c, 0, 64, 73
1, 188625, Control_c, 0, 67, 15
1, 188640, Control_c, 0, 64, 59
1, 188659, Control_c, 0, 64, 45
1, 188662, Control_c, 0, 67, 23
1, 188676, Control_c, 0, 64, 43
1, 188677, Control_c, 0, 67, 28
1, 188694, Control_c, 0, 67, 34
1, 188712, Control_c, 0, 64, 38
1, 188713, Control_c, 0, 67, 40
1, 188732, Control_c, 0, 64, 34
1, 188733, Control_c, 0, 67, 45
1, 188751, Control_c, 0, 64, 30
1, 188752, Control_c, 0, 67, 52
1, 188768, Control_c, 0, 67, 59
1, 188788, Control_c, 0, 67, 67
1, 188806, Control_c, 0, 67, 78
1, 188826, Control_c, 0, 67, 87
1, 188843, Control_c, 0, 67, 96
1, 188860, Control_c, 0, 67, 102
1, 188881, Control_c, 0, 67, 109
1, 188898, Control_c, 0, 67, 115
1, 188917, Control_c, 0, 67, 122
1, 188934, Control_c, 0, 67, 127
1, 189028, Control_c, 0, 64, 34
1, 189082, Control_c, 0, 64, 38
1, 189119, Control_c, 0, 64, 40
1, 189138, Control_c, 0, 64, 42
1, 189175, Control_c, 0, 64, 46
1, 189194, Control_c, 0, 64, 48
1, 189212, Control_c, 0, 64, 51
1, 189230, Control_c, 0, 64, 53
1, 189249, Control_c, 0, 64, 55
1, 189285, Control_c, 0, 64, 58
1, 189304, Control_c, 0, 64, 60
1, 189312, Note_on_c, 0, 59, 30
1, 189314, Note_on_c, 0, 66, 37
1, 189316, Note_on_c, 0, 63, 35
1, 189322, Control_c, 0, 64, 62
1, 189325, Note_on_c, 0, 57, 30
1, 189339, Control_c, 0, 64, 64
1, 189344, Note_on_c, 0, 54, 23
1, 189344, Note_on_c, 0, 47, 32
1, 189360, Control_c, 0, 64, 68
1, 189380, Control_c, 0, 64, 72
1, 189398, Control_c, 0, 64, 77
1, 189425, Control_c, 0, 64, 82
1, 189443, Control_c, 0, 64, 85
1, 189480, Control_c, 0, 64, 92
1, 189517, Control_c, 0, 64, 100
1, 189537, Control_c, 0, 64, 104
1, 189555, Control_c, 0, 64, 109
1, 189593, Control_c, 0, 64, 115
1, 189597, Note_on_c, 0, 59, 0
1, 189603, Note_on_c, 0, 57, 0
1, 189615, Note_on_c, 0, 47, 0
1, 189629, Control_c, 0, 64, 120
1, 189641, Note_on_c, 0, 66, 0
1, 189646, Note_on_c, 0, 54, 0
1, 189653, Note_on_c, 0, 63, 0
1, 189740, Control_c, 0, 64, 124
1, 189907, Control_c, 0, 64, 119
1, 189944, Control_c, 0, 64, 115
1, 189980, Control_c, 0, 64, 108
1, 189997, Control_c, 0, 64, 104
1, 190017, Control_c, 0, 64, 100
1, 190036, Control_c, 0, 64, 94
1, 190054, Control_c, 0, 64, 88
1, 190073, Control_c, 0, 64, 80
1, 190093, Control_c, 0, 64, 69
1, 190111, Control_c, 0, 64, 54
1, 190130, Control_c, 0, 64, 43
1, 190165, Control_c, 0, 64, 40
1, 190202, Control_c, 0, 64, 35
1, 190333, Control_c, 0, 64, 39
1, 190377, Control_c, 0, 64, 42
1, 190396, Control_c, 0, 64, 45
1, 190417, Control_c, 0, 64, 48
1, 190434, Control_c, 0, 64, 52
1, 190453, Control_c, 0, 64, 55
1, 190471, Control_c, 0, 64, 57
1, 190508, Control_c, 0, 64, 60
1, 190528, Control_c, 0, 64, 62
1, 190563, Control_c, 0, 64, 63
1, 190581, Control_c, 0, 64, 64
1, 190581, Control_c, 0, 67, 122
1, 190601, Control_c, 0, 64, 65
1, 190602, Control_c, 0, 67, 116
1, 190612, Note_on_c, 0, 68, 59
1, 190620, Control_c, 0, 64, 66
1, 190622, Control_c, 0, 67, 109
1, 190635, Note_on_c, 0, 64, 47
1, 190637, Note_on_c, 0, 59, 44
1, 190639, Control_c, 0, 64, 68
1, 190639, Note_on_c, 0, 52, 41
1, 190639, Control_c, 0, 67, 101
1, 190648, Note_on_c, 0, 56, 37
1, 190655, Note_on_c, 0, 47, 40
1, 190657, Control_c, 0, 64, 70
1, 190658, Control_c, 0, 67, 92
1, 190675, Control_c, 0, 64, 72
1, 190676, Control_c, 0, 67, 83
1, 190694, Control_c, 0, 64, 76
1, 190696, Control_c, 0, 67, 75
1, 190713, Control_c, 0, 64, 79
1, 190714, Control_c, 0, 67, 68
1, 190731, Control_c, 0, 64, 82
1, 190731, Control_c, 0, 67, 62
1, 190749, Control_c, 0, 64, 85
1, 190752, Control_c, 0, 67, 57
1, 190768, Control_c, 0, 64, 88
1, 190770, Control_c, 0, 67, 53
1, 190785, Control_c, 0, 67, 49
1, 190805, Control_c, 0, 64, 94
1, 190823, Control_c, 0, 64, 99
1, 190843, Control_c, 0, 64, 106
1, 190860, Control_c, 0, 64, 114
1, 190880, Control_c, 0, 64, 124
1, 190881, Control_c, 0, 67, 45
1, 190930, Note_on_c, 0, 47, 0
1, 190932, Note_on_c, 0, 59, 0
1, 190952, Control_c, 0, 67, 41
1, 190961, Note_on_c, 0, 56, 0
1, 190990, Note_on_c, 0, 52, 0
1, 190990, Note_on_c, 0, 64, 0
1, 191008, Control_c, 0, 67, 37
1, 191013, Note_on_c, 0, 68, 0
1, 191137, Control_c, 0, 67, 41
1, 191231, Control_c, 0, 67, 45
1, 191269, Control_c, 0, 67, 49
1, 191313, Control_c, 0, 67, 53
1, 191352, Control_c, 0, 64, 120
1, 191370, Control_c, 0, 64, 115
1, 191370, Control_c, 0, 67, 58
1, 191388, Control_c, 0, 64, 109
1, 191408, Control_c, 0, 64, 103
1, 191426, Control_c, 0, 64, 97
1, 191444, Control_c, 0, 64, 90
1, 191463, Control_c, 0, 64, 83
1, 191482, Control_c, 0, 64, 74
1, 191499, Control_c, 0, 64, 62
1, 191517, Control_c, 0, 64, 52
1, 191536, Control_c, 0, 64, 48
1, 191555, Control_c, 0, 64, 45
1, 191575, Control_c, 0, 64, 42
1, 191611, Control_c, 0, 64, 36
1, 191760, Control_c, 0, 64, 40
1, 191762, Control_c, 0, 67, 53
1, 191796, Control_c, 0, 64, 42
1, 191834, Control_c, 0, 64, 45
1, 191836, Control_c, 0, 67, 49
1, 191863, Note_on_c, 0, 69, 65
1, 191868, Control_c, 0, 64, 48
1, 191869, Control_c, 0, 67, 44
1, 191884, Note_on_c, 0, 66, 51
1, 191886, Control_c, 0, 64, 50
1, 191891, Note_on_c, 0, 48, 43
1, 191896, Note_on_c, 0, 60, 43
1, 191897, Note_on_c, 0, 57, 44
1, 191902, Note_on_c, 0, 54, 40
1, 191904, Note_on_c, 0, 63, 40
1, 191905, Control_c, 0, 64, 52
1, 191907, Control_c, 0, 67, 36
1, 191915, Note_on_c, 0, 51, 35
1, 191925, Control_c, 0, 64, 54
1, 191926, Control_c, 0, 67, 28
1, 191944, Control_c, 0, 64, 58
1, 191945, Control_c, 0, 67, 17
1, 191963, Control_c, 0, 64, 63
1, 191981, Control_c, 0, 64, 69
1, 191982, Control_c, 0, 67, 0
1, 192000, Control_c, 0, 64, 75
1, 192018, Control_c, 0, 64, 82
1, 192037, Control_c, 0, 64, 89
1, 192054, Control_c, 0, 64, 94
1, 192072, Control_c, 0, 64, 102
1, 192092, Control_c, 0, 64, 115
1, 192110, Control_c, 0, 64, 127
1, 192175, Note_on_c, 0, 54, 0
1, 192188, Note_on_c, 0, 57, 0
1, 192217, Note_on_c, 0, 60, 0
1, 192269, Note_on_c, 0, 63, 0
1, 192271, Note_on_c, 0, 51, 0
1, 192427, Note_on_c, 0, 48, 0
1, 192469, Note_on_c, 0, 68, 72
1, 192477, Note_on_c, 0, 56, 55
1, 192488, Note_on_c, 0, 52, 46
1, 192488, Note_on_c, 0, 64, 60
1, 192489, Control_c, 0, 64, 106
1, 192489, Note_on_c, 0, 49, 46
1, 192500, Note_on_c, 0, 61, 53
1, 192508, Control_c, 0, 64, 85
1, 192518, Note_on_c, 0, 69, 0
1, 192526, Control_c, 0, 64, 61
1, 192545, Control_c, 0, 64, 23
1, 192565, Control_c, 0, 64, 11
1, 192602, Control_c, 0, 64, 16
1, 192613, Poly_aftertouch_c, 0, 66, 20
1, 192616, Control_c, 0, 64, 25
1, 192619, Note_on_c, 0, 66, 0
1, 192638, Control_c, 0, 64, 38
1, 192656, Control_c, 0, 64, 54
1, 192674, Control_c, 0, 64, 71
1, 192694, Control_c, 0, 64, 92
1, 192712, Control_c, 0, 64, 117
1, 192732, Control_c, 0, 64, 127
1, 192789, Note_on_c, 0, 56, 0
1, 192794, Note_on_c, 0, 64, 0
1, 192815, Note_on_c, 0, 52, 0
1, 192846, Note_on_c, 0, 61, 0
1, 192849, Note_on_c, 0, 49, 0
1, 193205, Note_on_c, 0, 73, 73
1, 193212, Note_on_c, 0, 53, 42
1, 193215, Note_on_c, 0, 65, 58
1, 193238, Note_on_c, 0, 49, 31
1, 193248, Note_on_c, 0, 45, 37
1, 193249, Note_on_c, 0, 61, 38
1, 193334, Control_c, 0, 64, 114
1, 193351, Control_c, 0, 64, 100
1, 193369, Control_c, 0, 64, 82
1, 193388, Control_c, 0, 64, 59
1, 193405, Control_c, 0, 64, 27
1, 193425, Control_c, 0, 64, 23
1, 193461, Control_c, 0, 64, 27
1, 193463, Note_on_c, 0, 68, 0
1, 193480, Control_c, 0, 64, 34
1, 193500, Control_c, 0, 64, 42
1, 193518, Control_c, 0, 64, 53
1, 193537, Control_c, 0, 64, 66
1, 193553, Control_c, 0, 64, 82
1, 193573, Control_c, 0, 64, 102
1, 193592, Control_c, 0, 64, 116
1, 193609, Control_c, 0, 64, 127
1, 193674, Note_on_c, 0, 65, 0
1, 193979, Note_on_c, 0, 66, 47
1, 193998, Control_c, 0, 64, 103
1, 194001, Note_on_c, 0, 54, 33
1, 194017, Control_c, 0, 64, 80
1, 194036, Control_c, 0, 64, 58
1, 194054, Control_c, 0, 64, 43
1, 194067, Note_on_c, 0, 53, 0
1, 194091, Control_c, 0, 64, 48
1, 194119, Control_c, 0, 64, 55
1, 194136, Control_c, 0, 64, 65
1, 194156, Control_c, 0, 64, 81
1, 194175, Control_c, 0, 64, 104
1, 194194, Control_c, 0, 64, 127
1, 194209, Note_on_c, 0, 66, 0
1, 194210, Control_c, 0, 67, 8
1, 194216, Note_on_c, 0, 73, 0
1, 194242, Note_on_c, 0, 54, 0
1, 194256, Note_on_c, 0, 61, 0
1, 194287, Control_c, 0, 67, 12
1, 194301, Note_on_c, 0, 49, 0
1, 194340, Control_c, 0, 67, 17
1, 194378, Control_c, 0, 67, 23
1, 194414, Control_c, 0, 67, 31
1, 194434, Control_c, 0, 67, 35
1, 194471, Control_c, 0, 67, 41
1, 194507, Control_c, 0, 67, 47
1, 194544, Control_c, 0, 64, 118
1, 194562, Control_c, 0, 64, 101
1, 194567, Note_on_c, 0, 71, 53
1, 194574, Note_on_c, 0, 56, 37
1, 194578, Note_on_c, 0, 53, 43
1, 194578, Note_on_c, 0, 59, 41
1, 194581, Control_c, 0, 64, 80
1, 194587, Note_on_c, 0, 68, 41
1, 194591, Note_on_c, 0, 50, 35
1, 194600, Control_c, 0, 64, 55
1, 194611, Note_on_c, 0, 65, 24
1, 194618, Control_c, 0, 64, 18
1, 194661, Poly_aftertouch_c, 0, 62, 127
1, 194692, Control_c, 0, 64, 28
1, 194711, Control_c, 0, 64, 38
1, 194730, Control_c, 0, 64, 54
1, 194731, Control_c, 0, 67, 51
1, 194748, Control_c, 0, 64, 70
1, 194767, Control_c, 0, 64, 88
1, 194786, Control_c, 0, 64, 103
1, 194804, Control_c, 0, 64, 111
1, 194823, Control_c, 0, 64, 117
1, 194825, Control_c, 0, 67, 56
1, 194825, Note_on_c, 0, 68, 0
1, 194825, Note_on_c, 0, 71, 0
1, 194835, Note_on_c, 0, 53, 0
1, 194842, Control_c, 0, 64, 121
1, 194847, Note_on_c, 0, 65, 0
1, 194853, Note_on_c, 0, 56, 0
1, 194854, Poly_aftertouch_c, 0, 62, 0
1, 194858, Note_on_c, 0, 50, 0
1, 194858, Control_c, 0, 67, 60
1, 194877, Control_c, 0, 64, 126
1, 194880, Note_on_c, 0, 59, 0
1, 194896, Control_c, 0, 67, 65
1, 194915, Control_c, 0, 67, 69
1, 194952, Control_c, 0, 67, 75
1, 194989, Control_c, 0, 67, 79
1, 195090, Control_c, 0, 67, 83
1, 195128, Control_c, 0, 64, 120
1, 195162, Note_on_c, 0, 69, 64
1, 195165, Control_c, 0, 64, 111
1, 195172, Note_on_c, 0, 66, 49
1, 195184, Control_c, 0, 64, 103
1, 195189, Note_on_c, 0, 57, 39
1, 195191, Note_on_c, 0, 49, 35
1, 195195, Note_on_c, 0, 54, 31
1, 195202, Control_c, 0, 64, 90
1, 195209, Note_on_c, 0, 61, 34
1, 195221, Control_c, 0, 64, 72
1, 195238, Control_c, 0, 64, 46
1, 195257, Control_c, 0, 64, 17
1, 195313, Control_c, 0, 64, 24
1, 195332, Control_c, 0, 64, 33
1, 195350, Control_c, 0, 64, 44
1, 195369, Control_c, 0, 64, 58
1, 195388, Control_c, 0, 64, 73
1, 195406, Control_c, 0, 64, 91
1, 195423, Control_c, 0, 64, 108
1, 195434, Note_on_c, 0, 69, 0
1, 195441, Control_c, 0, 64, 122
1, 195443, Control_c, 0, 67, 78
1, 195451, Note_on_c, 0, 57, 0
1, 195454, Note_on_c, 0, 61, 0
1, 195457, Note_on_c, 0, 66, 0
1, 195459, Control_c, 0, 64, 127
1, 195465, Note_on_c, 0, 54, 0
1, 195608, Control_c, 0, 67, 74
1, 195738, Note_on_c, 0, 68, 60
1, 195740, Control_c, 0, 64, 103
1, 195749, Note_on_c, 0, 53, 36
1, 195753, Note_on_c, 0, 65, 51
1, 195753, Note_on_c, 0, 56, 45
1, 195757, Control_c, 0, 64, 82
1, 195765, Note_on_c, 0, 47, 39
1, 195772, Note_on_c, 0, 50, 37
1, 195772, Note_on_c, 0, 59, 37
1, 195777, Control_c, 0, 64, 59
1, 195784, Note_on_c, 0, 62, 25
1, 195793, Control_c, 0, 64, 28
1, 195808, Note_on_c, 0, 49, 0
1, 195811, Control_c, 0, 67, 70
1, 195845, Note_on_c, 0, 56, 0
1, 195850, Control_c, 0, 67, 60
1, 195868, Control_c, 0, 64, 37
1, 195868, Control_c, 0, 67, 48
1, 195887, Control_c, 0, 64, 45
1, 195888, Control_c, 0, 67, 31
1, 195906, Control_c, 0, 64, 57
1, 195908, Control_c, 0, 67, 12
1, 195925, Control_c, 0, 64, 71
1, 195926, Control_c, 0, 67, 0
1, 195945, Control_c, 0, 64, 89
1, 195961, Note_on_c, 0, 59, 0
1, 195962, Control_c, 0, 64, 108
1, 195989, Control_c, 0, 64, 124
1, 195995, Note_on_c, 0, 53, 0
1, 196020, Note_on_c, 0, 65, 0
1, 196024, Note_on_c, 0, 62, 0
1, 196029, Poly_aftertouch_c, 0, 56, 24
1, 196058, Note_on_c, 0, 68, 0
1, 196064, Poly_aftertouch_c, 0, 56, 0
1, 196079, Note_on_c, 0, 50, 0
1, 196322, Note_on_c, 0, 69, 64
1, 196322, Control_c, 0, 64, 110
1, 196328, Note_on_c, 0, 49, 45
1, 196328, Note_on_c, 0, 47, 0
1, 196332, Note_on_c, 0, 66, 47
1, 196341, Control_c, 0, 64, 89
1, 196347, Note_on_c, 0, 57, 35
1, 196350, Note_on_c, 0, 54, 34
1, 196358, Control_c, 0, 64, 68
1, 196376, Control_c, 0, 64, 47
1, 196381, Note_on_c, 0, 61, 23
1, 196396, Control_c, 0, 64, 42
1, 196414, Control_c, 0, 64, 45
1, 196433, Control_c, 0, 64, 49
1, 196452, Control_c, 0, 64, 56
1, 196452, Control_c, 0, 67, 8
1, 196471, Control_c, 0, 64, 65
1, 196489, Control_c, 0, 64, 80
1, 196510, Control_c, 0, 64, 108
1, 196527, Control_c, 0, 64, 127
1, 196535, Note_on_c, 0, 54, 0
1, 196555, Note_on_c, 0, 69, 0
1, 196581, Note_on_c, 0, 57, 0
1, 196586, Note_on_c, 0, 49, 0
1, 196590, Note_on_c, 0, 66, 0
1, 196596, Note_on_c, 0, 45, 0
1, 196640, Note_on_c, 0, 61, 0
1, 196655, Control_c, 0, 67, 12
1, 196958, Note_on_c, 0, 61, 62
1, 196971, Note_on_c, 0, 46, 41
1, 196978, Note_on_c, 0, 34, 39
1, 196980, Note_on_c, 0, 54, 45
1, 197035, Control_c, 0, 64, 120
1, 197055, Control_c, 0, 64, 101
1, 197073, Control_c, 0, 64, 82
1, 197091, Control_c, 0, 64, 62
1, 197107, Control_c, 0, 64, 45
1, 197146, Control_c, 0, 64, 47
1, 197164, Control_c, 0, 64, 51
1, 197182, Control_c, 0, 64, 57
1, 197202, Control_c, 0, 64, 67
1, 197220, Control_c, 0, 64, 82
1, 197239, Control_c, 0, 64, 109
1, 197257, Control_c, 0, 64, 127
1, 197281, Note_on_c, 0, 61, 0
1, 197311, Note_on_c, 0, 54, 0
1, 197359, Note_on_c, 0, 46, 0
1, 197385, Note_on_c, 0, 34, 0
1, 197561, Note_on_c, 0, 64, 64
1, 197570, Note_on_c, 0, 47, 49
1, 197583, Note_on_c, 0, 52, 47
1, 197583, Note_on_c, 0, 35, 48
1, 197586, Note_on_c, 0, 59, 46
1, 197616, Note_on_c, 0, 56, 42
1, 197665, Control_c, 0, 64, 118
1, 197682, Control_c, 0, 64, 96
1, 197702, Control_c, 0, 64, 74
1, 197719, Control_c, 0, 64, 51
1, 197737, Control_c, 0, 64, 40
1, 197757, Control_c, 0, 64, 42
1, 197776, Control_c, 0, 64, 47
1, 197794, Control_c, 0, 64, 53
1, 197795, Control_c, 0, 67, 0
1, 197813, Control_c, 0, 64, 62
1, 197831, Control_c, 0, 64, 74
1, 197858, Control_c, 0, 64, 94
1, 197877, Control_c, 0, 64, 121
1, 197889, Note_on_c, 0, 52, 0
1, 197893, Control_c, 0, 64, 127
1, 197898, Note_on_c, 0, 59, 0
1, 197941, Note_on_c, 0, 47, 0
1, 197956, Note_on_c, 0, 56, 0
1, 197979, Note_on_c, 0, 35, 0
1, 198152, Note_on_c, 0, 63, 70
1, 198153, Note_on_c, 0, 48, 57
1, 198164, Note_on_c, 0, 36, 54
1, 198166, Note_on_c, 0, 57, 62
1, 198184, Note_on_c, 0, 54, 51
1, 198211, Control_c, 0, 64, 118
1, 198215, Note_on_c, 0, 64, 0
1, 198230, Control_c, 0, 64, 96
1, 198248, Control_c, 0, 64, 77
1, 198267, Control_c, 0, 64, 58
1, 198286, Control_c, 0, 64, 47
1, 198323, Control_c, 0, 64, 52
1, 198344, Control_c, 0, 64, 56
1, 198359, Control_c, 0, 64, 62
1, 198377, Control_c, 0, 64, 72
1, 198397, Control_c, 0, 64, 90
1, 198402, Note_on_c, 0, 57, 0
1, 198415, Control_c, 0, 64, 119
1, 198434, Control_c, 0, 64, 127
1, 198478, Note_on_c, 0, 54, 0
1, 198480, Note_on_c, 0, 48, 0
1, 198618, Note_on_c, 0, 36, 0
1, 198735, Note_on_c, 0, 64, 78
1, 198757, Note_on_c, 0, 47, 59
1, 198762, Note_on_c, 0, 35, 57
1, 198764, Note_on_c, 0, 59, 59
1, 198775, Note_on_c, 0, 56, 48
1, 198813, Control_c, 0, 64, 121
1, 198821, Note_on_c, 0, 63, 0
1, 198832, Control_c, 0, 64, 97
1, 198852, Control_c, 0, 64, 73
1, 198870, Control_c, 0, 64, 46
1, 198888, Control_c, 0, 64, 31
1, 198924, Control_c, 0, 64, 37
1, 198943, Control_c, 0, 64, 46
1, 198961, Control_c, 0, 64, 56
1, 198979, Control_c, 0, 64, 68
1, 198999, Control_c, 0, 64, 91
1, 199017, Control_c, 0, 64, 127
1, 199041, Note_on_c, 0, 59, 0
1, 199092, Note_on_c, 0, 56, 0
1, 199097, Note_on_c, 0, 64, 0
1, 199100, Note_on_c, 0, 47, 0
1, 199140, Note_on_c, 0, 35, 0
1, 199347, Note_on_c, 0, 45, 60
1, 199349, Note_on_c, 0, 66, 80
1, 199355, Note_on_c, 0, 33, 58
1, 199368, Control_c, 0, 64, 116
1, 199375, Note_on_c, 0, 54, 62
1, 199379, Note_on_c, 0, 60, 56
1, 199386, Control_c, 0, 64, 92
1, 199408, Control_c, 0, 64, 68
1, 199413, Note_on_c, 0, 63, 33
1, 199425, Control_c, 0, 64, 39
1, 199443, Control_c, 0, 64, 28
1, 199500, Control_c, 0, 64, 37
1, 199518, Control_c, 0, 64, 46
1, 199535, Control_c, 0, 64, 56
1, 199554, Control_c, 0, 64, 68
1, 199573, Control_c, 0, 64, 88
1, 199590, Control_c, 0, 64, 120
1, 199609, Control_c, 0, 64, 127
1, 199620, Note_on_c, 0, 60, 0
1, 199632, Note_on_c, 0, 54, 0
1, 199723, Note_on_c, 0, 45, 0
1, 199735, Note_on_c, 0, 33, 0
1, 199829, Note_on_c, 0, 63, 0
1, 199905, Poly_aftertouch_c, 0, 36, 127
1, 199948, Note_on_c, 0, 44, 67
1, 199962, Note_on_c, 0, 32, 52
1, 200005, Poly_aftertouch_c, 0, 36, 0
1, 200010, Control_c, 0, 64, 115
1, 200011, Note_on_c, 0, 68, 80
1, 200028, Control_c, 0, 64, 88
1, 200036, Note_on_c, 0, 64, 63
1, 200038, Note_on_c, 0, 66, 0
1, 200040, Note_on_c, 0, 59, 59
1, 200047, Control_c, 0, 64, 61
1, 200064, Control_c, 0, 64, 19
1, 200083, Control_c, 0, 64, 9
1, 200118, Control_c, 0, 64, 20
1, 200137, Control_c, 0, 64, 32
1, 200156, Control_c, 0, 64, 45
1, 200174, Control_c, 0, 64, 59
1, 200193, Control_c, 0, 64, 74
1, 200211, Control_c, 0, 64, 98
1, 200231, Control_c, 0, 64, 127
1, 200299, Note_on_c, 0, 59, 0
1, 200322, Control_c, 0, 67, 8
1, 200347, Note_on_c, 0, 44, 0
1, 200379, Control_c, 0, 67, 13
1, 200434, Control_c, 0, 67, 17
1, 200490, Control_c, 0, 67, 22
1, 200522, Note_on_c, 0, 68, 0
1, 200525, Control_c, 0, 67, 27
1, 200552, Note_on_c, 0, 64, 0
1, 200598, Control_c, 0, 67, 31
1, 200701, Control_c, 0, 67, 35
1, 200715, Note_on_c, 0, 30, 56
1, 200718, Note_on_c, 0, 42, 54
1, 200812, Control_c, 0, 64, 119
1, 200831, Control_c, 0, 64, 101
1, 200849, Control_c, 0, 64, 78
1, 200862, Note_on_c, 0, 32, 0
1, 200868, Control_c, 0, 64, 48
1, 200875, Note_on_c, 0, 58, 65
1, 200886, Control_c, 0, 64, 0
1, 200962, Control_c, 0, 64, 19
1, 200979, Control_c, 0, 64, 34
1, 200997, Control_c, 0, 64, 48
1, 201016, Control_c, 0, 64, 61
1, 201035, Control_c, 0, 64, 75
1, 201053, Control_c, 0, 64, 91
1, 201068, Note_on_c, 0, 64, 68
1, 201072, Control_c, 0, 64, 105
1, 201092, Control_c, 0, 64, 113
1, 201110, Control_c, 0, 64, 118
1, 201134, Note_on_c, 0, 58, 0
1, 201147, Control_c, 0, 64, 124
1, 201209, Note_on_c, 0, 30, 0
1, 201219, Control_c, 0, 67, 39
1, 201392, Note_on_c, 0, 73, 80
1, 201665, Note_on_c, 0, 42, 0
1, 201680, Note_on_c, 0, 64, 0
1, 201804, Control_c, 0, 67, 43
1, 201878, Control_c, 0, 67, 47
1, 202006, Control_c, 0, 67, 52
1, 202010, Note_on_c, 0, 44, 53
1, 202081, Control_c, 0, 67, 56
1, 202154, Control_c, 0, 67, 60
1, 202210, Control_c, 0, 67, 64
1, 202222, Note_on_c, 0, 44, 0
1, 202285, Control_c, 0, 67, 69
1, 202358, Control_c, 0, 67, 74
1, 202396, Control_c, 0, 64, 119
1, 202415, Control_c, 0, 64, 113
1, 202416, Control_c, 0, 67, 78
1, 202432, Note_on_c, 0, 45, 40
1, 202434, Control_c, 0, 64, 105
1, 202436, Note_on_c, 0, 35, 40
1, 202449, Note_on_c, 0, 63, 40
1, 202451, Control_c, 0, 64, 95
1, 202466, Note_on_c, 0, 66, 36
1, 202469, Control_c, 0, 64, 81
1, 202470, Control_c, 0, 67, 84
1, 202487, Control_c, 0, 64, 62
1, 202507, Control_c, 0, 64, 32
1, 202535, Control_c, 0, 64, 13
1, 202536, Control_c, 0, 67, 89
1, 202590, Control_c, 0, 67, 94
1, 202628, Control_c, 0, 64, 20
1, 202630, Control_c, 0, 67, 99
1, 202646, Control_c, 0, 64, 27
1, 202663, Control_c, 0, 64, 36
1, 202664, Control_c, 0, 67, 103
1, 202682, Control_c, 0, 64, 46
1, 202701, Control_c, 0, 64, 57
1, 202702, Control_c, 0, 67, 108
1, 202719, Control_c, 0, 64, 67
1, 202739, Control_c, 0, 64, 78
1, 202741, Control_c, 0, 67, 114
1, 202757, Control_c, 0, 64, 89
1, 202776, Control_c, 0, 64, 96
1, 202777, Control_c, 0, 67, 122
1, 202792, Note_on_c, 0, 45, 0
1, 202813, Control_c, 0, 64, 102
1, 202814, Control_c, 0, 67, 127
1, 202849, Control_c, 0, 64, 106
1, 202887, Control_c, 0, 64, 110
1, 202941, Control_c, 0, 64, 115
1, 203312, Control_c, 0, 64, 111
1, 203338, Note_on_c, 0, 71, 47
1, 203344, Note_on_c, 0, 47, 29
1, 203348, Control_c, 0, 64, 105
1, 203369, Control_c, 0, 64, 101
1, 203387, Control_c, 0, 64, 95
1, 203404, Control_c, 0, 64, 85
1, 203424, Control_c, 0, 64, 69
1, 203441, Control_c, 0, 64, 47
1, 203468, Control_c, 0, 64, 27
1, 203506, Note_on_c, 0, 73, 0
1, 203563, Control_c, 0, 64, 31
1, 203582, Control_c, 0, 64, 36
1, 203600, Control_c, 0, 64, 43
1, 203618, Control_c, 0, 64, 52
1, 203638, Control_c, 0, 64, 61
1, 203654, Control_c, 0, 64, 70
1, 203673, Control_c, 0, 64, 80
1, 203691, Control_c, 0, 64, 90
1, 203711, Control_c, 0, 64, 97
1, 203728, Control_c, 0, 64, 102
1, 203747, Control_c, 0, 64, 106
1, 203766, Control_c, 0, 64, 111
1, 203772, Note_on_c, 0, 63, 0
1, 203772, Note_on_c, 0, 35, 0
1, 203783, Control_c, 0, 64, 117
1, 203801, Control_c, 0, 64, 123
1, 203816, Note_on_c, 0, 66, 0
1, 203819, Control_c, 0, 64, 127
1, 204037, Note_on_c, 0, 47, 0
1, 204430, Note_on_c, 0, 68, 42
1, 204517, Control_c, 0, 64, 119
1, 204533, Control_c, 0, 64, 109
1, 204551, Control_c, 0, 64, 96
1, 204570, Control_c, 0, 64, 81
1, 204590, Control_c, 0, 64, 62
1, 204607, Control_c, 0, 64, 36
1, 204618, Note_on_c, 0, 71, 0
1, 204626, Control_c, 0, 64, 31
1, 204638, Note_on_c, 0, 59, 41
1, 204701, Control_c, 0, 64, 35
1, 204737, Control_c, 0, 64, 43
1, 204755, Control_c, 0, 64, 50
1, 204769, Note_on_c, 0, 40, 31
1, 204771, Control_c, 0, 64, 58
1, 204793, Control_c, 0, 64, 66
1, 204805, Note_on_c, 0, 59, 0
1, 204810, Control_c, 0, 64, 74
1, 204830, Control_c, 0, 64, 83
1, 204849, Control_c, 0, 64, 91
1, 204868, Control_c, 0, 64, 95
1, 204886, Note_on_c, 0, 52, 42
1, 204903, Control_c, 0, 64, 99
1, 204956, Note_on_c, 0, 40, 0
1, 204977, Control_c, 0, 67, 119
1, 204997, Control_c, 0, 67, 115
1, 204999, Note_on_c, 0, 52, 0
1, 205015, Control_c, 0, 67, 110
1, 205034, Control_c, 0, 67, 105
1, 205047, Note_on_c, 0, 57, 50
1, 205053, Control_c, 0, 67, 100
1, 205072, Control_c, 0, 67, 94
1, 205088, Control_c, 0, 67, 88
1, 205107, Control_c, 0, 64, 94
1, 205108, Control_c, 0, 67, 82
1, 205125, Control_c, 0, 64, 88
1, 205126, Control_c, 0, 67, 76
1, 205145, Control_c, 0, 64, 79
1, 205147, Control_c, 0, 67, 71
1, 205163, Control_c, 0, 64, 65
1, 205164, Control_c, 0, 67, 66
1, 205183, Control_c, 0, 64, 43
1, 205184, Control_c, 0, 67, 60
1, 205198, Note_on_c, 0, 69, 54
1, 205200, Control_c, 0, 64, 32
1, 205201, Control_c, 0, 67, 54
1, 205219, Control_c, 0, 67, 48
1, 205238, Control_c, 0, 67, 42
1, 205256, Control_c, 0, 67, 38
1, 205274, Control_c, 0, 64, 36
1, 205276, Control_c, 0, 67, 33
1, 205293, Control_c, 0, 64, 40
1, 205293, Control_c, 0, 67, 27
1, 205308, Note_on_c, 0, 68, 0
1, 205311, Control_c, 0, 64, 46
1, 205312, Control_c, 0, 67, 19
1, 205323, Note_on_c, 0, 48, 42
1, 205338, Control_c, 0, 64, 53
1, 205339, Control_c, 0, 67, 13
1, 205357, Control_c, 0, 64, 60
1, 205371, Note_on_c, 0, 57, 0
1, 205375, Control_c, 0, 64, 69
1, 205395, Control_c, 0, 64, 78
1, 205413, Control_c, 0, 64, 86
1, 205413, Note_on_c, 0, 48, 0
1, 205432, Note_on_c, 0, 40, 43
1, 205432, Control_c, 0, 64, 90
1, 205581, Note_on_c, 0, 40, 0
1, 205611, Note_on_c, 0, 66, 55
1, 205652, Control_c, 0, 64, 87
1, 205672, Control_c, 0, 64, 80
1, 205691, Control_c, 0, 64, 69
1, 205695, Poly_aftertouch_c, 0, 67, 0
1, 205703, Note_on_c, 0, 69, 0
1, 205708, Control_c, 0, 64, 48
1, 205718, Note_on_c, 0, 57, 48
1, 205727, Control_c, 0, 64, 26
1, 205756, Note_on_c, 0, 60, 41
1, 205803, Control_c, 0, 64, 33
1, 205821, Control_c, 0, 64, 40
1, 205837, Control_c, 0, 64, 48
1, 205845, Note_on_c, 0, 57, 0
1, 205847, Note_on_c, 0, 40, 39
1, 205857, Control_c, 0, 64, 60
1, 205876, Control_c, 0, 64, 70
1, 205894, Control_c, 0, 64, 80
1, 205901, Note_on_c, 0, 60, 0
1, 205913, Control_c, 0, 64, 88
1, 205932, Control_c, 0, 64, 92
1, 206001, Note_on_c, 0, 51, 47
1, 206054, Note_on_c, 0, 40, 0
1, 206071, Note_on_c, 0, 51, 0
1, 206112, Note_on_c, 0, 66, 0
1, 206122, Note_on_c, 0, 59, 60
1, 206133, Note_on_c, 0, 56, 53
1, 206192, Control_c, 0, 64, 87
1, 206208, Control_c, 0, 64, 82
1, 206228, Control_c, 0, 64, 73
1, 206245, Control_c, 0, 64, 57
1, 206263, Control_c, 0, 64, 35
1, 206275, Note_on_c, 0, 64, 65
1, 206292, Control_c, 0, 64, 30
1, 206348, Control_c, 0, 67, 8
1, 206366, Control_c, 0, 64, 35
1, 206385, Control_c, 0, 64, 40
1, 206389, Note_on_c, 0, 52, 49
1, 206405, Control_c, 0, 64, 46
1, 206425, Control_c, 0, 64, 54
1, 206442, Control_c, 0, 64, 63
1, 206454, Note_on_c, 0, 59, 0
1, 206459, Control_c, 0, 64, 73
1, 206470, Note_on_c, 0, 56, 0
1, 206478, Control_c, 0, 64, 85
1, 206495, Note_on_c, 0, 52, 0
1, 206495, Control_c, 0, 64, 94
1, 206515, Control_c, 0, 64, 98
1, 206518, Note_on_c, 0, 40, 50
1, 206552, Control_c, 0, 64, 102
1, 206600, Note_on_c, 0, 40, 0
1, 206655, Note_on_c, 0, 63, 70
1, 206701, Note_on_c, 0, 64, 0
1, 206739, Control_c, 0, 64, 95
1, 206756, Control_c, 0, 64, 88
1, 206773, Control_c, 0, 64, 78
1, 206791, Control_c, 0, 64, 62
1, 206792, Note_on_c, 0, 57, 55
1, 206802, Note_on_c, 0, 54, 53
1, 206810, Control_c, 0, 64, 37
1, 206829, Control_c, 0, 64, 23
1, 206878, Note_on_c, 0, 54, 0
1, 206921, Note_on_c, 0, 40, 51
1, 206921, Control_c, 0, 64, 30
1, 206941, Control_c, 0, 64, 40
1, 206958, Control_c, 0, 64, 51
1, 206963, Note_on_c, 0, 57, 0
1, 206976, Control_c, 0, 64, 62
1, 206997, Control_c, 0, 64, 72
1, 207014, Control_c, 0, 64, 85
1, 207033, Note_on_c, 0, 48, 58
1, 207034, Control_c, 0, 64, 94
1, 207051, Control_c, 0, 64, 98
1, 207060, Note_on_c, 0, 40, 0
1, 207093, Note_on_c, 0, 48, 0
1, 207174, Note_on_c, 0, 52, 61
1, 207180, Note_on_c, 0, 56, 64
1, 207244, Note_on_c, 0, 63, 0
1, 207266, Control_c, 0, 64, 90
1, 207283, Control_c, 0, 64, 77
1, 207302, Control_c, 0, 64, 58
1, 207321, Control_c, 0, 64, 26
1, 207334, Note_on_c, 0, 64, 73
1, 207338, Control_c, 0, 64, 15
1, 207357, Control_c, 0, 67, 0
1, 207393, Control_c, 0, 64, 25
1, 207414, Control_c, 0, 64, 34
1, 207430, Control_c, 0, 64, 46
1, 207450, Control_c, 0, 64, 58
1, 207469, Control_c, 0, 64, 71
1, 207472, Note_on_c, 0, 47, 54
1, 207478, Note_on_c, 0, 52, 0
1, 207487, Control_c, 0, 64, 86
1, 207506, Control_c, 0, 64, 102
1, 207525, Control_c, 0, 64, 114
1, 207532, Note_on_c, 0, 64, 0
1, 207543, Control_c, 0, 64, 125
1, 207549, Note_on_c, 0, 56, 0
1, 207581, Note_on_c, 0, 47, 0
1, 207589, Note_on_c, 0, 40, 51
1, 207748, Control_c, 0, 67, 8
1, 207789, Note_on_c, 0, 40, 0
1, 207871, Note_on_c, 0, 60, 75
1, 207877, Control_c, 0, 67, 12
1, 207929, Note_on_c, 0, 57, 42
1, 207951, Control_c, 0, 64, 117
1, 207970, Control_c, 0, 64, 111
1, 207970, Control_c, 0, 67, 17
1, 207988, Control_c, 0, 64, 106
1, 208007, Control_c, 0, 64, 99
1, 208025, Control_c, 0, 64, 91
1, 208027, Control_c, 0, 67, 21
1, 208044, Control_c, 0, 64, 80
1, 208063, Control_c, 0, 64, 66
1, 208066, Control_c, 0, 67, 25
1, 208079, Control_c, 0, 64, 44
1, 208099, Control_c, 0, 64, 28
1, 208100, Control_c, 0, 67, 29
1, 208130, Note_on_c, 0, 52, 39
1, 208134, Control_c, 0, 67, 33
1, 208181, Control_c, 0, 67, 37
1, 208219, Control_c, 0, 67, 44
1, 208237, Control_c, 0, 64, 35
1, 208256, Control_c, 0, 64, 41
1, 208257, Note_on_c, 0, 40, 35
1, 208258, Control_c, 0, 67, 49
1, 208274, Control_c, 0, 64, 48
1, 208292, Control_c, 0, 64, 57
1, 208294, Control_c, 0, 67, 53
1, 208310, Control_c, 0, 64, 66
1, 208318, Note_on_c, 0, 57, 0
1, 208322, Note_on_c, 0, 52, 0
1, 208330, Control_c, 0, 64, 75
1, 208331, Control_c, 0, 67, 60
1, 208349, Control_c, 0, 64, 83
1, 208350, Control_c, 0, 67, 64
1, 208367, Control_c, 0, 64, 87
1, 208385, Control_c, 0, 67, 70
1, 208422, Control_c, 0, 67, 77
1, 208444, Note_on_c, 0, 48, 40
1, 208458, Control_c, 0, 67, 84
1, 208495, Control_c, 0, 67, 90
1, 208508, Note_on_c, 0, 48, 0
1, 208517, Note_on_c, 0, 40, 0
1, 208533, Control_c, 0, 67, 95
1, 208570, Control_c, 0, 67, 100
1, 208626, Control_c, 0, 64, 85
1, 208627, Control_c, 0, 67, 105
1, 208631, Note_on_c, 0, 59, 56
1, 208664, Control_c, 0, 64, 82
1, 208680, Control_c, 0, 64, 80
1, 208681, Control_c, 0, 67, 110
1, 208687, Note_on_c, 0, 57, 35
1, 208700, Control_c, 0, 64, 78
1, 208705, Note_on_c, 0, 60, 0
1, 208718, Control_c, 0, 64, 72
1, 208737, Control_c, 0, 64, 62
1, 208758, Control_c, 0, 64, 44
1, 208758, Control_c, 0, 67, 115
1, 208773, Control_c, 0, 64, 33
1, 208793, Control_c, 0, 64, 27
1, 208829, Control_c, 0, 64, 21
1, 208841, Note_on_c, 0, 54, 25
1, 208904, Control_c, 0, 64, 26
1, 208921, Control_c, 0, 64, 32
1, 208941, Control_c, 0, 64, 40
1, 208945, Note_on_c, 0, 51, 36
1, 208961, Control_c, 0, 64, 49
1, 208978, Control_c, 0, 64, 57
1, 208997, Control_c, 0, 64, 64
1, 209000, Note_on_c, 0, 54, 0
1, 209005, Note_on_c, 0, 51, 0
1, 209014, Control_c, 0, 64, 71
1, 209033, Control_c, 0, 64, 79
1, 209051, Control_c, 0, 64, 86
1, 209063, Note_on_c, 0, 57, 0
1, 209065, Note_on_c, 0, 40, 38
1, 209098, Control_c, 0, 64, 91
1, 209165, Note_on_c, 0, 40, 0
1, 209191, Control_c, 0, 67, 119
1, 209276, Poly_aftertouch_c, 0, 40, 0
1, 209306, Note_on_c, 0, 61, 60
1, 209376, Control_c, 0, 64, 87
1, 209394, Control_c, 0, 64, 85
1, 209412, Control_c, 0, 64, 80
1, 209431, Control_c, 0, 64, 73
1, 209448, Note_on_c, 0, 59, 0
1, 209448, Control_c, 0, 64, 58
1, 209468, Control_c, 0, 64, 35
1, 209486, Control_c, 0, 64, 25
1, 209515, Note_on_c, 0, 56, 35
1, 209578, Control_c, 0, 64, 29
1, 209595, Note_on_c, 0, 56, 0
1, 209596, Control_c, 0, 64, 35
1, 209597, Note_on_c, 0, 40, 34
1, 209617, Control_c, 0, 64, 43
1, 209635, Control_c, 0, 64, 52
1, 209637, Control_c, 0, 67, 124
1, 209653, Control_c, 0, 64, 61
1, 209672, Control_c, 0, 64, 69
1, 209690, Control_c, 0, 64, 76
1, 209699, Note_on_c, 0, 40, 0
1, 209709, Control_c, 0, 64, 82
1, 209728, Control_c, 0, 64, 86
1, 209739, Note_on_c, 0, 52, 40
1, 209782, Note_on_c, 0, 52, 0
1, 209897, Note_on_c, 0, 59, 51
1, 209914, Control_c, 0, 64, 83
1, 209949, Control_c, 0, 64, 80
1, 209967, Control_c, 0, 64, 77
1, 209987, Control_c, 0, 64, 72
1, 210004, Control_c, 0, 64, 62
1, 210008, Note_on_c, 0, 61, 0
1, 210032, Control_c, 0, 64, 45
1, 210052, Control_c, 0, 64, 32
1, 210070, Control_c, 0, 64, 27
1, 210082, Note_on_c, 0, 56, 31
1, 210162, Control_c, 0, 64, 33
1, 210180, Note_on_c, 0, 52, 30
1, 210180, Control_c, 0, 64, 40
1, 210200, Control_c, 0, 64, 48
1, 210218, Control_c, 0, 64, 58
1, 210222, Note_on_c, 0, 56, 0
1, 210236, Control_c, 0, 64, 68
1, 210255, Control_c, 0, 64, 77
1, 210264, Note_on_c, 0, 52, 0
1, 210267, Note_on_c, 0, 59, 0
1, 210272, Control_c, 0, 64, 84
1, 210293, Control_c, 0, 64, 88
1, 210322, Note_on_c, 0, 40, 19
1, 210513, Control_c, 0, 64, 86
1, 210561, Poly_aftertouch_c, 0, 40, 24
1, 210568, Control_c, 0, 64, 84
1, 210606, Control_c, 0, 64, 82
1, 210606, Note_on_c, 0, 60, 37
1, 210617, Note_on_c, 0, 40, 0
1, 210645, Control_c, 0, 64, 78
1, 210648, Note_on_c, 0, 57, 27
1, 210663, Control_c, 0, 64, 75
1, 210681, Control_c, 0, 64, 68
1, 210699, Control_c, 0, 64, 59
1, 210717, Control_c, 0, 64, 50
1, 210736, Control_c, 0, 64, 45
1, 210754, Control_c, 0, 64, 43
1, 210774, Control_c, 0, 64, 40
1, 210845, Note_on_c, 0, 54, 19
1, 210902, Control_c, 0, 64, 42
1, 210921, Control_c, 0, 64, 45
1, 210939, Control_c, 0, 64, 50
1, 210967, Note_on_c, 0, 40, 28
1, 210967, Control_c, 0, 64, 55
1, 210980, Note_on_c, 0, 57, 0
1, 210983, Note_on_c, 0, 54, 0
1, 210987, Control_c, 0, 64, 59
1, 211005, Control_c, 0, 64, 64
1, 211024, Control_c, 0, 64, 67
1, 211041, Control_c, 0, 64, 70
1, 211061, Control_c, 0, 64, 72
1, 211079, Control_c, 0, 64, 74
1, 211136, Note_on_c, 0, 51, 16
1, 211142, Note_on_c, 0, 40, 0
1, 211199, Note_on_c, 0, 51, 0
1, 211299, Note_on_c, 0, 59, 34
1, 211319, Control_c, 0, 64, 72
1, 211324, Note_on_c, 0, 60, 0
1, 211358, Control_c, 0, 64, 70
1, 211369, Note_on_c, 0, 57, 9
1, 211375, Control_c, 0, 64, 67
1, 211394, Control_c, 0, 64, 64
1, 211413, Control_c, 0, 64, 59
1, 211431, Control_c, 0, 64, 52
1, 211449, Control_c, 0, 64, 45
1, 211466, Control_c, 0, 64, 40
1, 211487, Note_on_c, 0, 54, 16
1, 211505, Control_c, 0, 64, 36
1, 211616, Control_c, 0, 64, 42
1, 211635, Control_c, 0, 64, 46
1, 211643, Note_on_c, 0, 51, 12
1, 211652, Control_c, 0, 64, 50
1, 211671, Control_c, 0, 64, 56
1, 211689, Control_c, 0, 64, 60
1, 211705, Note_on_c, 0, 54, 0
1, 211707, Control_c, 0, 64, 64
1, 211713, Note_on_c, 0, 51, 0
1, 211727, Control_c, 0, 64, 67
1, 211745, Control_c, 0, 64, 69
1, 211754, Note_on_c, 0, 57, 0
1, 211765, Control_c, 0, 64, 71
1, 211782, Control_c, 0, 64, 73
1, 211793, Note_on_c, 0, 40, 23
1, 211800, Control_c, 0, 64, 75
1, 211819, Control_c, 0, 64, 77
1, 212027, Note_on_c, 0, 40, 0
1, 212062, Poly_aftertouch_c, 0, 59, 24
1, 212102, Note_on_c, 0, 61, 37
1, 212145, Control_c, 0, 64, 75
1, 212181, Control_c, 0, 64, 72
1, 212199, Control_c, 0, 64, 68
1, 212201, Note_on_c, 0, 59, 0
1, 212217, Control_c, 0, 64, 62
1, 212235, Control_c, 0, 64, 53
1, 212254, Control_c, 0, 64, 43
1, 212292, Control_c, 0, 64, 38
1, 212330, Note_on_c, 0, 56, 12
1, 212366, Control_c, 0, 64, 41
1, 212385, Control_c, 0, 64, 44
1, 212401, Control_c, 0, 64, 48
1, 212407, Note_on_c, 0, 40, 32
1, 212420, Control_c, 0, 64, 55
1, 212432, Note_on_c, 0, 56, 0
1, 212439, Control_c, 0, 64, 62
1, 212458, Control_c, 0, 64, 68
1, 212476, Control_c, 0, 64, 75
1, 212495, Control_c, 0, 64, 82
1, 212515, Control_c, 0, 64, 88
1, 212527, Note_on_c, 0, 40, 0
1, 212550, Control_c, 0, 64, 92
1, 212558, Note_on_c, 0, 52, 35
1, 212643, Control_c, 0, 67, 119
1, 212680, Control_c, 0, 67, 112
1, 212699, Control_c, 0, 67, 108
1, 212701, Note_on_c, 0, 52, 0
1, 212703, Note_on_c, 0, 59, 46
1, 212718, Control_c, 0, 64, 85
1, 212720, Control_c, 0, 67, 103
1, 212736, Control_c, 0, 64, 76
1, 212739, Control_c, 0, 67, 96
1, 212755, Control_c, 0, 64, 62
1, 212756, Control_c, 0, 67, 89
1, 212773, Control_c, 0, 64, 42
1, 212774, Control_c, 0, 67, 78
1, 212790, Control_c, 0, 64, 34
1, 212791, Control_c, 0, 67, 66
1, 212806, Note_on_c, 0, 61, 0
1, 212809, Control_c, 0, 67, 53
1, 212838, Control_c, 0, 67, 42
1, 212855, Control_c, 0, 67, 31
1, 212874, Control_c, 0, 64, 41
1, 212875, Control_c, 0, 67, 20
1, 212887, Note_on_c, 0, 56, 27
1, 212892, Control_c, 0, 64, 48
1, 212893, Control_c, 0, 67, 9
1, 212912, Control_c, 0, 64, 57
1, 212930, Control_c, 0, 64, 66
1, 212944, Note_on_c, 0, 56, 0
1, 212944, Note_on_c, 0, 59, 0
1, 212950, Control_c, 0, 64, 75
1, 212968, Control_c, 0, 64, 86
1, 212978, Note_on_c, 0, 51, 42
1, 212986, Control_c, 0, 64, 93
1, 213077, Note_on_c, 0, 51, 0
1, 213131, Note_on_c, 0, 52, 32
1, 213235, Note_on_c, 0, 52, 0
1, 213243, Note_on_c, 0, 69, 55
1, 213263, Control_c, 0, 64, 88
1, 213282, Control_c, 0, 64, 85
1, 213302, Control_c, 0, 64, 78
1, 213320, Control_c, 0, 64, 66
1, 213336, Control_c, 0, 64, 43
1, 213355, Control_c, 0, 64, 18
1, 213378, Note_on_c, 0, 59, 42
1, 213449, Control_c, 0, 64, 25
1, 213468, Control_c, 0, 64, 34
1, 213486, Control_c, 0, 64, 43
1, 213504, Control_c, 0, 64, 53
1, 213511, Note_on_c, 0, 51, 32
1, 213514, Note_on_c, 0, 59, 0
1, 213521, Control_c, 0, 64, 64
1, 213541, Control_c, 0, 64, 74
1, 213559, Control_c, 0, 64, 85
1, 213578, Control_c, 0, 64, 91
1, 213603, Note_on_c, 0, 51, 0
1, 213629, Note_on_c, 0, 52, 39
1, 213674, Note_on_c, 0, 52, 0
1, 213798, Note_on_c, 0, 68, 59
1, 213811, Control_c, 0, 64, 85
1, 213828, Control_c, 0, 64, 76
1, 213848, Control_c, 0, 64, 60
1, 213866, Control_c, 0, 64, 37
1, 213885, Control_c, 0, 64, 32
1, 213921, Control_c, 0, 64, 36
1, 213935, Note_on_c, 0, 69, 0
1, 213937, Control_c, 0, 64, 42
1, 213953, Note_on_c, 0, 59, 23
1, 213955, Control_c, 0, 64, 48
1, 213977, Control_c, 0, 64, 58
1, 213994, Control_c, 0, 64, 67
1, 214012, Note_on_c, 0, 59, 0
1, 214015, Control_c, 0, 64, 80
1, 214033, Control_c, 0, 64, 93
1, 214051, Control_c, 0, 64, 100
1, 214056, Note_on_c, 0, 68, 0
1, 214059, Note_on_c, 0, 63, 49
1, 214087, Control_c, 0, 64, 106
1, 214170, Note_on_c, 0, 63, 0
1, 214175, Note_on_c, 0, 64, 50
1, 214199, Control_c, 0, 67, 0
1, 214227, Note_on_c, 0, 64, 0
1, 214328, Note_on_c, 0, 73, 66
1, 214384, Control_c, 0, 64, 100
1, 214403, Control_c, 0, 64, 94
1, 214420, Control_c, 0, 64, 84
1, 214440, Control_c, 0, 64, 70
1, 214456, Control_c, 0, 64, 48
1, 214475, Note_on_c, 0, 68, 47
1, 214476, Control_c, 0, 64, 30
1, 214550, Control_c, 0, 64, 36
1, 214568, Control_c, 0, 64, 42
1, 214575, Note_on_c, 0, 52, 42
1, 214588, Control_c, 0, 64, 52
1, 214607, Control_c, 0, 64, 63
1, 214625, Control_c, 0, 64, 75
1, 214625, Note_on_c, 0, 68, 0
1, 214642, Control_c, 0, 64, 90
1, 214650, Note_on_c, 0, 52, 0
1, 214660, Control_c, 0, 64, 102
1, 214679, Control_c, 0, 64, 108
1, 214701, Note_on_c, 0, 64, 50
1, 214744, Control_c, 0, 64, 112
1, 214756, Note_on_c, 0, 64, 0
1, 214826, Note_on_c, 0, 71, 67
1, 214836, Control_c, 0, 64, 107
1, 214855, Control_c, 0, 64, 97
1, 214873, Control_c, 0, 64, 80
1, 214892, Control_c, 0, 64, 56
1, 214911, Control_c, 0, 64, 13
1, 214918, Note_on_c, 0, 73, 0
1, 214948, Control_c, 0, 64, 9
1, 214965, Note_on_c, 0, 68, 55
1, 214967, Control_c, 0, 64, 18
1, 214986, Control_c, 0, 64, 29
1, 215004, Control_c, 0, 64, 42
1, 215021, Control_c, 0, 64, 57
1, 215040, Control_c, 0, 64, 72
1, 215060, Control_c, 0, 64, 93
1, 215073, Note_on_c, 0, 63, 57
1, 215078, Control_c, 0, 64, 114
1, 215087, Note_on_c, 0, 68, 0
1, 215095, Control_c, 0, 64, 127
1, 215115, Note_on_c, 0, 71, 0
1, 215197, Note_on_c, 0, 63, 0
1, 215200, Note_on_c, 0, 64, 54
1, 215323, Note_on_c, 0, 64, 0
1, 215357, Note_on_c, 0, 81, 68
1, 215374, Control_c, 0, 64, 119
1, 215374, Note_on_c, 0, 83, 40
1, 215392, Control_c, 0, 64, 98
1, 215410, Control_c, 0, 64, 76
1, 215415, Note_on_c, 0, 83, 0
1, 215428, Control_c, 0, 64, 48
1, 215448, Control_c, 0, 64, 9
1, 215503, Control_c, 0, 64, 20
1, 215522, Control_c, 0, 64, 31
1, 215541, Control_c, 0, 64, 44
1, 215561, Control_c, 0, 64, 58
1, 215568, Note_on_c, 0, 71, 26
1, 215575, Control_c, 0, 64, 72
1, 215596, Control_c, 0, 64, 90
1, 215603, Note_on_c, 0, 63, 55
1, 215615, Control_c, 0, 64, 110
1, 215640, Note_on_c, 0, 71, 0
1, 215642, Control_c, 0, 64, 127
1, 215735, Note_on_c, 0, 63, 0
1, 215763, Note_on_c, 0, 64, 47
1, 215805, Note_on_c, 0, 64, 0
1, 215894, Note_on_c, 0, 80, 75
1, 215901, Control_c, 0, 64, 108
1, 215921, Control_c, 0, 64, 82
1, 215939, Control_c, 0, 64, 56
1, 215956, Control_c, 0, 64, 30
1, 215994, Control_c, 0, 64, 34
1, 216012, Control_c, 0, 64, 40
1, 216018, Note_on_c, 0, 81, 0
1, 216030, Control_c, 0, 64, 49
1, 216033, Note_on_c, 0, 71, 53
1, 216050, Control_c, 0, 64, 59
1, 216068, Control_c, 0, 64, 72
1, 216073, Note_on_c, 0, 71, 0
1, 216087, Control_c, 0, 64, 93
1, 216105, Control_c, 0, 64, 126
1, 216136, Note_on_c, 0, 80, 0
1, 216152, Note_on_c, 0, 75, 57
1, 216191, Poly_aftertouch_c, 0, 74, 127
1, 216201, Poly_aftertouch_c, 0, 74, 0
1, 216244, Note_on_c, 0, 75, 0
1, 216260, Note_on_c, 0, 76, 62
1, 216313, Note_on_c, 0, 76, 0
1, 216406, Note_on_c, 0, 85, 80
1, 216476, Control_c, 0, 64, 99
1, 216495, Control_c, 0, 64, 74
1, 216511, Control_c, 0, 64, 44
1, 216530, Control_c, 0, 64, 22
1, 216540, Note_on_c, 0, 80, 65
1, 216596, Control_c, 0, 64, 32
1, 216614, Control_c, 0, 64, 41
1, 216634, Control_c, 0, 64, 51
1, 216653, Control_c, 0, 64, 62
1, 216669, Control_c, 0, 64, 77
1, 216674, Note_on_c, 0, 64, 48
1, 216688, Control_c, 0, 64, 100
1, 216706, Control_c, 0, 64, 127
1, 216736, Note_on_c, 0, 64, 0
1, 216759, Note_on_c, 0, 80, 0
1, 216779, Note_on_c, 0, 76, 60
1, 216848, Note_on_c, 0, 76, 0
1, 216922, Note_on_c, 0, 83, 81
1, 216983, Note_on_c, 0, 85, 0
1, 217004, Control_c, 0, 64, 106
1, 217022, Control_c, 0, 64, 81
1, 217041, Control_c, 0, 64, 56
1, 217059, Control_c, 0, 64, 35
1, 217064, Note_on_c, 0, 80, 64
1, 217114, Control_c, 0, 64, 40
1, 217132, Control_c, 0, 64, 46
1, 217151, Control_c, 0, 64, 54
1, 217169, Control_c, 0, 64, 64
1, 217188, Control_c, 0, 64, 78
1, 217203, Note_on_c, 0, 75, 65
1, 217207, Control_c, 0, 64, 100
1, 217226, Control_c, 0, 64, 127
1, 217328, Note_on_c, 0, 75, 0
1, 217343, Note_on_c, 0, 76, 72
1, 217402, Note_on_c, 0, 76, 0
1, 217673, Note_on_c, 0, 85, 78
1, 217734, Note_on_c, 0, 80, 0
1, 217747, Note_on_c, 0, 83, 0
1, 217771, Control_c, 0, 64, 114
1, 217790, Control_c, 0, 64, 101
1, 217809, Control_c, 0, 64, 88
1, 217826, Control_c, 0, 64, 71
1, 217845, Control_c, 0, 64, 48
1, 217863, Control_c, 0, 64, 27
1, 217921, Note_on_c, 0, 80, 44
1, 217994, Control_c, 0, 64, 36
1, 218012, Control_c, 0, 64, 42
1, 218030, Control_c, 0, 64, 47
1, 218049, Control_c, 0, 64, 52
1, 218067, Control_c, 0, 64, 58
1, 218086, Control_c, 0, 64, 65
1, 218104, Note_on_c, 0, 87, 48
1, 218104, Control_c, 0, 64, 75
1, 218123, Control_c, 0, 64, 89
1, 218141, Control_c, 0, 64, 100
1, 218161, Control_c, 0, 64, 107
1, 218178, Control_c, 0, 64, 112
1, 218196, Control_c, 0, 64, 117
1, 218203, Note_on_c, 0, 80, 0
1, 218215, Control_c, 0, 64, 121
1, 218215, Note_on_c, 0, 87, 0
1, 218252, Control_c, 0, 64, 126
1, 218269, Note_on_c, 0, 88, 45
1, 218331, Note_on_c, 0, 88, 0
1, 218382, Control_c, 0, 64, 121
1, 218420, Control_c, 0, 64, 116
1, 218447, Control_c, 0, 64, 112
1, 218466, Control_c, 0, 64, 107
1, 218483, Note_on_c, 0, 83, 52
1, 218484, Control_c, 0, 64, 101
1, 218503, Control_c, 0, 64, 93
1, 218504, Control_c, 0, 67, 8
1, 218522, Control_c, 0, 64, 81
1, 218541, Control_c, 0, 64, 65
1, 218559, Control_c, 0, 64, 45
1, 218575, Control_c, 0, 64, 36
1, 218613, Control_c, 0, 67, 12
1, 218616, Note_on_c, 0, 85, 0
1, 218685, Note_on_c, 0, 80, 36
1, 218706, Control_c, 0, 64, 41
1, 218725, Control_c, 0, 64, 44
1, 218745, Control_c, 0, 64, 47
1, 218746, Control_c, 0, 67, 16
1, 218761, Control_c, 0, 64, 50
1, 218779, Control_c, 0, 64, 53
1, 218798, Control_c, 0, 64, 57
1, 218817, Control_c, 0, 64, 62
1, 218831, Note_on_c, 0, 92, 38
1, 218834, Control_c, 0, 64, 67
1, 218854, Control_c, 0, 64, 75
1, 218874, Control_c, 0, 64, 84
1, 218892, Control_c, 0, 64, 93
1, 218903, Note_on_c, 0, 92, 0
1, 218909, Control_c, 0, 64, 99
1, 218928, Control_c, 0, 64, 105
1, 218946, Control_c, 0, 64, 110
1, 218965, Control_c, 0, 64, 115
1, 218984, Control_c, 0, 64, 120
1, 219002, Control_c, 0, 64, 124
1, 219094, Note_on_c, 0, 95, 34
1, 219169, Control_c, 0, 67, 20
1, 219196, Note_on_c, 0, 95, 0
1, 219206, Control_c, 0, 67, 28
1, 219221, Note_on_c, 0, 83, 0
1, 219223, Control_c, 0, 67, 34
1, 219234, Note_on_c, 0, 80, 0
1, 219243, Control_c, 0, 67, 40
1, 219259, Control_c, 0, 67, 45
1, 219278, Control_c, 0, 67, 49
1, 219316, Control_c, 0, 67, 57
1, 219334, Control_c, 0, 67, 62
1, 219355, Control_c, 0, 67, 68
1, 219381, Control_c, 0, 64, 116
1, 219382, Control_c, 0, 67, 76
1, 219401, Control_c, 0, 64, 109
1, 219402, Control_c, 0, 67, 87
1, 219420, Control_c, 0, 64, 100
1, 219421, Control_c, 0, 67, 101
1, 219437, Control_c, 0, 64, 88
1, 219438, Control_c, 0, 67, 117
1, 219455, Control_c, 0, 64, 73
1, 219458, Control_c, 0, 67, 127
1, 219474, Control_c, 0, 64, 52
1, 219492, Control_c, 0, 64, 30
1, 219510, Control_c, 0, 64, 25
1, 219549, Control_c, 0, 64, 21
1, 219677, Control_c, 0, 64, 27
1, 219695, Control_c, 0, 64, 32
1, 219714, Control_c, 0, 64, 38
1, 219734, Control_c, 0, 64, 45
1, 219752, Control_c, 0, 64, 54
1, 219771, Control_c, 0, 64, 64
1, 219790, Control_c, 0, 64, 71
1, 219808, Control_c, 0, 64, 80
1, 219825, Control_c, 0, 64, 88
1, 219844, Control_c, 0, 64, 94
1, 219862, Control_c, 0, 64, 98
1, 219880, Control_c, 0, 64, 102
1, 219900, Control_c, 0, 64, 106
1, 219936, Control_c, 0, 64, 112
1, 219956, Control_c, 0, 64, 116
1, 219993, Control_c, 0, 64, 124
1, 220958, Note_on_c, 0, 47, 22
1, 220960, Note_on_c, 0, 59, 31
1, 220961, Note_on_c, 0, 56, 28
1, 220968, Note_on_c, 0, 44, 24
1, 220972, Note_on_c, 0, 40, 26
1, 220980, Note_on_c, 0, 52, 26
1, 222926, Control_c, 0, 67, 122
1, 222964, Control_c, 0, 67, 116
1, 223001, Control_c, 0, 67, 109
1, 223037, Control_c, 0, 67, 103
1, 223075, Control_c, 0, 67, 96
1, 223113, Control_c, 0, 67, 88
1, 223139, Control_c, 0, 67, 84
1, 223159, Control_c, 0, 67, 80
1, 223194, Control_c, 0, 67, 74
1, 223232, Control_c, 0, 67, 70
1, 223269, Control_c, 0, 67, 66
1, 223325, Control_c, 0, 67, 60
1, 223435, Control_c, 0, 67, 55
1, 223472, Control_c, 0, 67, 51
1, 223529, Control_c, 0, 67, 46
1, 223564, Control_c, 0, 67, 42
1, 223602, Control_c, 0, 67, 36
1, 223639, Control_c, 0, 67, 30
1, 223676, Control_c, 0, 67, 25
1, 223713, Control_c, 0, 67, 21
1, 223768, Control_c, 0, 67, 16
1, 223806, Control_c, 0, 67, 12
1, 224046, Control_c, 0, 67, 0
1, 225567, Poly_aftertouch_c, 0, 52, 24
1, 225689, Poly_aftertouch_c, 0, 56, 24
1, 225824, Poly_aftertouch_c, 0, 52, 20
1, 225922, Note_on_c, 0, 56, 0
1, 226005, Note_on_c, 0, 52, 0
1, 226314, Control_c, 0, 67, 8
1, 226323, Poly_aftertouch_c, 0, 47, 24
1, 226458, Poly_aftertouch_c, 0, 44, 24
1, 226506, Note_on_c, 0, 44, 0
1, 226543, Note_on_c, 0, 47, 0
1, 226590, Poly_aftertouch_c, 0, 59, 24
1, 226796, Note_on_c, 0, 59, 0
1, 226895, Poly_aftertouch_c, 0, 40, 24
1, 226994, Note_on_c, 0, 40, 0
1, 227230, Control_c, 0, 64, 119
1, 227287, Control_c, 0, 64, 115
1, 227341, Control_c, 0, 64, 111
1, 227398, Control_c, 0, 64, 107
1, 227453, Control_c, 0, 64, 103
1, 227508, Control_c, 0, 64, 98
1, 227564, Control_c, 0, 64, 94
1, 227620, Control_c, 0, 64, 89
1, 227657, Control_c, 0, 64, 86
1, 227693, Control_c, 0, 64, 82
1, 227712, Control_c, 0, 64, 80
1, 227730, Control_c, 0, 64, 76
1, 227749, Control_c, 0, 64, 71
1, 227767, Control_c, 0, 64, 66
1, 227786, Control_c, 0, 64, 62
1, 227815, Control_c, 0, 64, 60
1, 227925, Control_c, 0, 64, 57
1, 227981, Control_c, 0, 64, 55
1, 228036, Control_c, 0, 64, 53
1, 228110, Control_c, 0, 64, 50
1, 228166, Control_c, 0, 64, 48
1, 228258, Control_c, 0, 64, 46
1, 232444, Control_c, 0, 64, 44
1, 232594, Control_c, 0, 64, 42
1, 232686, Control_c, 0, 64, 40
1, 232836, Control_c, 0, 64, 36
1, 232986, Control_c, 0, 64, 32
1, 233192, Control_c, 0, 64, 28
1, 233342, Control_c, 0, 64, 24
1, 233435, Control_c, 0, 64, 20
1, 233509, Control_c, 0, 64, 16
1, 233604, Control_c, 0, 64, 12
1, 233678, Control_c, 0, 64, 8
1, 233734, Control_c, 0, 64, 0
1, 235604, Control_c, 0, 67, 0
1, 235604, End_track
0, 0, End_of_file
