0, 0, Header, 1, 5, 480
1, 0, Start_track
1, 0, Title_t, "untitled"
1, 0, Time_signature, 3, 3, 12, 8
1, 0, Key_signature, 0, "major"
1, 0, Tempo, 600000
1, 0, Sequencer_specific, 13, 5, 15, 28, 50, 48, 48, 56, 46, 48, 49, 46, 48, 49
1, 0, Sequencer_specific, 10, 5, 15, 18, 0, 0, 127, 127, 0, 127, 1
1, 0, Marker_t, "Untitled"
1, 0, Marker_t, "Beethoven"
1, 480, Tempo, 1428571
1, 660, Tempo, 1500000
1, 720, Tempo, 1428571
1, 720, Marker_t, "Piano Sonata No.12 "
1, 1380, Tempo, 1500000
1, 1440, Tempo, 1428571
1, 2160, Marker_t, "hisamori@bekkoame.or.jp"
1, 2827, Tempo, 1500000
1, 3234, Tempo, 1764706
1, 3306, Tempo, 1428571
1, 3600, Marker_t, "Mail in English Only "
1, 4980, Tempo, 1500000
1, 5040, Tempo, 1428571
1, 5040, Marker_t, "Jan.1998,  Ver.1"
1, 5707, Tempo, 1578947
1, 6120, Tempo, 1666667
1, 6240, Tempo, 1428571
1, 6480, Marker_t, "Thanks!"
1, 7140, Tempo, 1500000
1, 7200, Tempo, 1428571
1, 8580, Tempo, 1500000
1, 9000, Tempo, 1578947
1, 9078, Tempo, 1428571
1, 10680, Tempo, 1500000
1, 11460, Tempo, 1578947
1, 11760, Tempo, 1764706
1, 11880, Tempo, 1818182
1, 11993, Tempo, 1428571
1, 13380, Tempo, 1666667
1, 13440, Tempo, 1428571
1, 14820, Tempo, 1578947
1, 14880, Tempo, 1428571
1, 17220, Tempo, 1578947
1, 17240, Tempo, 1500000
1, 17280, Tempo, 1428571
1, 18660, Tempo, 1578947
1, 18680, Tempo, 1500000
1, 18720, Tempo, 1463415
1, 19132, Tempo, 1666667
1, 19195, Tempo, 1935484
1, 19440, Tempo, 1428571
1, 20100, Tempo, 1500000
1, 20160, Tempo, 1428571
1, 21540, Tempo, 1500000
1, 21966, Tempo, 1666667
1, 22038, Tempo, 1428571
1, 23640, Tempo, 1500000
1, 23700, Tempo, 1500000
1, 23940, Tempo, 1578947
1, 24225, Tempo, 1818182
1, 24480, Tempo, 1935484
1, 24960, Tempo, 789474
1, 25680, Tempo, 1111111
1, 25920, Tempo, 1071429
1, 26100, Tempo, 1111111
1, 26160, Tempo, 1071429
1, 26820, Tempo, 1111111
1, 26880, Tempo, 1071429
1, 27540, Tempo, 1111111
1, 27600, Tempo, 1071429
1, 28020, Tempo, 1111111
1, 28432, Tempo, 1132075
1, 28500, Tempo, 1071429
1, 28980, Tempo, 1111111
1, 29040, Tempo, 1071429
1, 29700, Tempo, 1111111
1, 29760, Tempo, 1071429
1, 30180, Tempo, 1111111
1, 30240, Tempo, 1071429
1, 30900, Tempo, 1132075
1, 31320, Tempo, 1224490
1, 31440, Tempo, 1111111
1, 31680, Tempo, 1071429
1, 31860, Tempo, 1111111
1, 31920, Tempo, 1071429
1, 32580, Tempo, 1111111
1, 32640, Tempo, 1071429
1, 33300, Tempo, 1111111
1, 33360, Tempo, 1071429
1, 33780, Tempo, 1132075
1, 33840, Tempo, 1111111
1, 34192, Tempo, 1132075
1, 34260, Tempo, 1071429
1, 34740, Tempo, 1111111
1, 34800, Tempo, 1071429
1, 35460, Tempo, 1132075
1, 35520, Tempo, 1071429
1, 35940, Tempo, 1111111
1, 36000, Tempo, 1071429
1, 36540, Tempo, 1111111
1, 37080, Tempo, 1276596
1, 37200, Tempo, 1071429
1, 37380, Tempo, 1111111
1, 37440, Tempo, 1071429
1, 37620, Tempo, 1111111
1, 37680, Tempo, 1071429
1, 38820, Tempo, 1111111
1, 38880, Tempo, 1071429
1, 39060, Tempo, 1111111
1, 39120, Tempo, 1071429
1, 40155, Tempo, 1176471
1, 40260, Tempo, 1111111
1, 40320, Tempo, 1071429
1, 41700, Tempo, 1111111
1, 41760, Tempo, 1071429
1, 42180, Tempo, 1111111
1, 42240, Tempo, 1071429
1, 42420, Tempo, 1111111
1, 42480, Tempo, 1071429
1, 42900, Tempo, 1111111
1, 42960, Tempo, 1071429
1, 43140, Tempo, 1111111
1, 43200, Tempo, 1071429
1, 43620, Tempo, 1111111
1, 43680, Tempo, 1071429
1, 44100, Tempo, 1111111
1, 44340, Tempo, 1176471
1, 44482, Tempo, 1333333
1, 44580, Tempo, 2068966
1, 44640, Tempo, 1071429
1, 44820, Tempo, 1111111
1, 44880, Tempo, 1071429
1, 45540, Tempo, 1111111
1, 45600, Tempo, 1071429
1, 46260, Tempo, 1111111
1, 46320, Tempo, 1071429
1, 46740, Tempo, 1111111
1, 47152, Tempo, 1132075
1, 47220, Tempo, 1071429
1, 47700, Tempo, 1111111
1, 47760, Tempo, 1071429
1, 48420, Tempo, 1132075
1, 48480, Tempo, 1071429
1, 48900, Tempo, 1132075
1, 48960, Tempo, 1111111
1, 49492, Tempo, 1132075
1, 49680, Tempo, 1333333
1, 50040, Tempo, 1176471
1, 50160, Tempo, 600000
1, 50880, Tempo, 1000000
1, 51060, Tempo, 1034483
1, 51120, Tempo, 1000000
1, 51780, Tempo, 1034483
1, 51840, Tempo, 1000000
1, 53640, Tempo, 1034483
1, 53700, Tempo, 1000000
1, 56100, Tempo, 1034483
1, 56160, Tempo, 1034483
1, 56520, Tempo, 1071429
1, 56580, Tempo, 1500000
1, 56640, Tempo, 1000000
1, 56820, Tempo, 1034483
1, 56880, Tempo, 1000000
1, 57540, Tempo, 1034483
1, 57600, Tempo, 1000000
1, 59400, Tempo, 1071429
1, 59460, Tempo, 1000000
1, 61860, Tempo, 1034483
1, 62100, Tempo, 1071429
1, 62280, Tempo, 1176471
1, 62400, Tempo, 1000000
1, 63720, Tempo, 1071429
1, 63780, Tempo, 1111111
1, 63840, Tempo, 1000000
1, 65160, Tempo, 1034483
1, 65220, Tempo, 1132075
1, 65280, Tempo, 1000000
1, 66780, Tempo, 1034483
1, 66840, Tempo, 1000000
1, 67640, Tempo, 1034483
1, 67680, Tempo, 1000000
1, 68220, Tempo, 1034483
1, 68280, Tempo, 1000000
1, 68340, Tempo, 1034483
1, 68820, Tempo, 1016949
1, 68985, Tempo, 1071429
1, 69054, Tempo, 1276596
1, 69120, Tempo, 1071429
1, 69174, Tempo, 1071429
1, 69300, Tempo, 1071429
1, 69420, Tempo, 1111111
1, 69534, Tempo, 1176471
1, 69660, Tempo, 1428571
1, 69780, Tempo, 2068966
1, 69840, Tempo, 1000000
1, 70500, Tempo, 1034483
1, 70560, Tempo, 1000000
1, 72360, Tempo, 1071429
1, 72420, Tempo, 1000000
1, 74814, Tempo, 1034483
1, 75060, Tempo, 1071429
1, 75300, Tempo, 1176471
1, 76080, Tempo, 1578947
1, 76260, Tempo, 1666667
1, 76362, Tempo, 1500000
1, 77000, Tempo, 1538462
1, 77070, Tempo, 1500000
1, 77720, Tempo, 1538462
1, 77796, Tempo, 1500000
1, 78440, Tempo, 1538462
1, 78516, Tempo, 1500000
1, 79160, Tempo, 1538462
1, 79224, Tempo, 1500000
1, 79880, Tempo, 1538462
1, 79944, Tempo, 1500000
1, 80580, Tempo, 1578947
1, 80700, Tempo, 1500000
1, 81180, Tempo, 1578947
1, 81300, Tempo, 1666667
1, 81780, Tempo, 2068966
1, 81840, Tempo, 1500000
1, 82020, Tempo, 1578947
1, 82140, Tempo, 1500000
1, 82740, Tempo, 1578947
1, 82860, Tempo, 1500000
1, 83460, Tempo, 1578947
1, 83580, Tempo, 1500000
1, 84180, Tempo, 1578947
1, 84300, Tempo, 1500000
1, 84900, Tempo, 1578947
1, 85020, Tempo, 1500000
1, 85620, Tempo, 1578947
1, 85740, Tempo, 1500000
1, 86220, Tempo, 1578947
1, 86340, Tempo, 1666667
1, 86460, Tempo, 1500000
1, 87060, Tempo, 1578947
1, 87540, Tempo, 2068966
1, 87600, Tempo, 1578947
1, 87840, Tempo, 1500000
1, 88500, Tempo, 1578947
1, 88980, Tempo, 1578947
1, 89040, Tempo, 1578947
1, 89280, Tempo, 1500000
1, 89940, Tempo, 1578947
1, 90420, Tempo, 1935484
1, 90480, Tempo, 1500000
1, 90525, Tempo, 1578947
1, 90772, Tempo, 1500000
1, 91260, Tempo, 1578947
1, 91500, Tempo, 1500000
1, 91980, Tempo, 1578947
1, 92227, Tempo, 1500000
1, 92700, Tempo, 1578947
1, 92947, Tempo, 1500000
1, 93420, Tempo, 1578947
1, 93660, Tempo, 1500000
1, 94140, Tempo, 1578947
1, 94380, Tempo, 1500000
1, 94500, Tempo, 1578947
1, 94740, Tempo, 1764706
1, 94920, Tempo, 2400000
1, 95100, Tempo, 1500000
1, 95700, Tempo, 1578947
1, 95820, Tempo, 1500000
1, 96420, Tempo, 1578947
1, 96540, Tempo, 1500000
1, 97140, Tempo, 1578947
1, 97260, Tempo, 1500000
1, 97860, Tempo, 1578947
1, 97980, Tempo, 1500000
1, 98580, Tempo, 1578947
1, 98700, Tempo, 1500000
1, 99180, Tempo, 1578947
1, 99300, Tempo, 1666667
1, 99427, Tempo, 1578947
1, 99862, Tempo, 1666667
1, 99960, Tempo, 1818182
1, 100080, Tempo, 2222222
1, 100560, Tempo, 750000
1, 101280, Tempo, 967742
1, 106260, Tempo, 1000000
1, 106920, Tempo, 1111111
1, 107040, Tempo, 967742
1, 111300, Tempo, 1000000
1, 111360, Tempo, 967742
1, 112260, Tempo, 1000000
1, 112670, Tempo, 1176471
1, 112800, Tempo, 967742
1, 115620, Tempo, 1000000
1, 115680, Tempo, 967742
1, 116340, Tempo, 1000000
1, 116400, Tempo, 967742
1, 117060, Tempo, 1000000
1, 117120, Tempo, 967742
1, 117780, Tempo, 1000000
1, 117840, Tempo, 967742
1, 118500, Tempo, 1000000
1, 119220, Tempo, 1034483
1, 119400, Tempo, 1111111
1, 119520, Tempo, 1071429
1, 119595, Tempo, 1034483
1, 120120, Tempo, 1071429
1, 120180, Tempo, 1224490
1, 120240, Tempo, 967742
1, 124260, Tempo, 1000000
1, 124320, Tempo, 967742
1, 125160, Tempo, 1000000
1, 125220, Tempo, 1111111
1, 125280, Tempo, 1428571
1, 125760, Tempo, 659341
1, 126480, Tempo, 1000000
1, 126660, Tempo, 1071429
1, 126720, Tempo, 923077
1, 129240, Tempo, 952381
1, 129300, Tempo, 923077
1, 129540, Tempo, 952381
1, 129600, Tempo, 923077
1, 132180, Tempo, 952381
1, 132240, Tempo, 923077
1, 132420, Tempo, 952381
1, 132480, Tempo, 923077
1, 135000, Tempo, 952381
1, 135060, Tempo, 923077
1, 135300, Tempo, 952381
1, 135360, Tempo, 923077
1, 136800, Tempo, 923077
1, 137940, Tempo, 1333333
1, 138000, Tempo, 923077
1, 138180, Tempo, 952381
1, 138240, Tempo, 923077
1, 138300, Tempo, 952381
1, 138360, Tempo, 923077
1, 138900, Tempo, 952381
1, 138960, Tempo, 923077
1, 139620, Tempo, 952381
1, 139680, Tempo, 923077
1, 139740, Tempo, 952381
1, 139800, Tempo, 923077
1, 140340, Tempo, 952381
1, 140400, Tempo, 923077
1, 141000, Tempo, 952381
1, 141060, Tempo, 1071429
1, 141120, Tempo, 923077
1, 142980, Tempo, 952381
1, 143040, Tempo, 923077
1, 143700, Tempo, 952381
1, 143760, Tempo, 923077
1, 144420, Tempo, 952381
1, 144652, Tempo, 967742
1, 144720, Tempo, 937500
1, 144724, Tempo, 952381
1, 144912, Tempo, 967742
1, 144992, Tempo, 983607
1, 145052, Tempo, 1000000
1, 145104, Tempo, 1016949
1, 145148, Tempo, 1071429
1, 145188, Tempo, 1052632
1, 145260, Tempo, 1071429
1, 145320, Tempo, 1276596
1, 145380, Tempo, 1666667
1, 145440, Tempo, 952381
1, 145500, Tempo, 923077
1, 147960, Tempo, 952381
1, 148020, Tempo, 923077
1, 150420, Tempo, 952381
1, 151140, Tempo, 967742
1, 151200, Tempo, 952381
1, 154020, Tempo, 967742
1, 154080, Tempo, 952381
1, 156180, Tempo, 967742
1, 157626, Tempo, 1000000
1, 158352, Tempo, 1016949
1, 159066, Tempo, 1034483
1, 159732, Tempo, 1052632
1, 159802, Tempo, 1071429
1, 159840, Tempo, 1090909
1, 160027, Tempo, 1111111
1, 160207, Tempo, 1132075
1, 160305, Tempo, 1428571
1, 160428, Tempo, 1935484
1, 162000, Tempo, 909091
1, 163440, Marker_t, "<2>"
1, 163920, Tempo, 447761
1, 166560, Tempo, 454545
1, 166800, Tempo, 447761
1, 169560, Tempo, 454545
1, 169687, Tempo, 447761
1, 172440, Tempo, 454545
1, 172552, Tempo, 447761
1, 175192, Tempo, 454545
1, 175440, Tempo, 447761
1, 177540, Tempo, 454545
1, 177600, Tempo, 447761
1, 178200, Tempo, 454545
1, 178312, Tempo, 447761
1, 180420, Tempo, 454545
1, 180480, Tempo, 447761
1, 181080, Tempo, 454545
1, 181185, Tempo, 447761
1, 182580, Tempo, 454545
1, 182640, Tempo, 447761
1, 187140, Tempo, 454545
1, 187200, Tempo, 447761
1, 190020, Tempo, 454545
1, 190080, Tempo, 447761
1, 192180, Tempo, 447761
1, 192915, Tempo, 454545
1, 194340, Tempo, 454545
1, 195060, Tempo, 465116
1, 195480, Tempo, 480000
1, 195600, Tempo, 447761
1, 196980, Tempo, 454545
1, 197040, Tempo, 447761
1, 198412, Tempo, 454545
1, 198472, Tempo, 447761
1, 199860, Tempo, 454545
1, 199920, Tempo, 447761
1, 201300, Tempo, 454545
1, 201360, Tempo, 447761
1, 202740, Tempo, 454545
1, 202800, Tempo, 447761
1, 204180, Tempo, 454545
1, 204240, Tempo, 447761
1, 205620, Tempo, 454545
1, 205680, Tempo, 447761
1, 207060, Tempo, 454545
1, 207120, Tempo, 447761
1, 208500, Tempo, 454545
1, 208560, Tempo, 447761
1, 211320, Tempo, 454545
1, 211560, Tempo, 472441
1, 211680, Tempo, 545455
1, 211920, Tempo, 1071429
1, 212152, Tempo, 465116
1, 215220, Tempo, 468750
1, 215280, Tempo, 465116
1, 215940, Tempo, 468750
1, 216000, Tempo, 465116
1, 217387, Tempo, 480000
1, 218160, Tempo, 465116
1, 220980, Tempo, 468750
1, 221040, Tempo, 465116
1, 221700, Tempo, 468750
1, 221760, Tempo, 465116
1, 223147, Tempo, 480000
1, 223920, Tempo, 465116
1, 226740, Tempo, 468750
1, 226800, Tempo, 465116
1, 229620, Tempo, 468750
1, 229680, Tempo, 465116
1, 232500, Tempo, 468750
1, 232560, Tempo, 465116
1, 234660, Tempo, 468750
1, 235080, Tempo, 472441
1, 235440, Tempo, 465116
1, 238260, Tempo, 468750
1, 238320, Tempo, 465116
1, 241140, Tempo, 468750
1, 241200, Tempo, 465116
1, 244020, Tempo, 468750
1, 244080, Tempo, 465116
1, 246180, Tempo, 468750
1, 246600, Tempo, 472441
1, 247460, Tempo, 483871
1, 247680, Tempo, 500000
1, 247920, Tempo, 600000
1, 248150, Tempo, 500000
1, 248872, Tempo, 508475
1, 249120, Tempo, 576923
1, 249472, Tempo, 5454545
1, 249600, Tempo, 447761
1, 249780, Tempo, 447761
1, 249840, Tempo, 447761
1, 252240, Tempo, 454545
1, 252480, Tempo, 447761
1, 255240, Tempo, 454545
1, 255367, Tempo, 447761
1, 258120, Tempo, 454545
1, 258232, Tempo, 447761
1, 260872, Tempo, 454545
1, 261120, Tempo, 447761
1, 263220, Tempo, 454545
1, 263280, Tempo, 447761
1, 263880, Tempo, 454545
1, 263992, Tempo, 447761
1, 266100, Tempo, 454545
1, 266160, Tempo, 447761
1, 266760, Tempo, 454545
1, 266865, Tempo, 447761
1, 268260, Tempo, 454545
1, 268320, Tempo, 447761
1, 272820, Tempo, 454545
1, 272880, Tempo, 447761
1, 275700, Tempo, 454545
1, 275760, Tempo, 447761
1, 277860, Tempo, 447761
1, 278595, Tempo, 454545
1, 280020, Tempo, 454545
1, 280740, Tempo, 465116
1, 281160, Tempo, 480000
1, 281280, Tempo, 447761
1, 281520, Tempo, 447761
1, 282660, Tempo, 454545
1, 282720, Tempo, 447761
1, 284092, Tempo, 454545
1, 284152, Tempo, 447761
1, 285540, Tempo, 454545
1, 285600, Tempo, 447761
1, 286980, Tempo, 454545
1, 287040, Tempo, 447761
1, 288420, Tempo, 454545
1, 288480, Tempo, 447761
1, 289860, Tempo, 454545
1, 289920, Tempo, 447761
1, 291300, Tempo, 454545
1, 291360, Tempo, 447761
1, 292740, Tempo, 454545
1, 292800, Tempo, 447761
1, 294180, Tempo, 454545
1, 294240, Tempo, 447761
1, 296900, Tempo, 508475
1, 297000, Tempo, 517241
1, 297120, Tempo, 571429
1, 297230, Tempo, 652174
1, 297360, Tempo, 1176471
1, 297832, Tempo, 465116
1, 300240, Time_signature, 4, 2, 24, 8
1, 300240, Tempo, 789474
1, 300240, Marker_t, "<3> "
1, 301200, Tempo, 952381
1, 302100, Tempo, 1000000
1, 302220, Tempo, 952381
1, 304020, Tempo, 967742
1, 304140, Tempo, 952381
1, 305040, Tempo, 967742
1, 305520, Tempo, 952381
1, 305940, Tempo, 967742
1, 306060, Tempo, 952381
1, 307880, Tempo, 967742
1, 309240, Tempo, 1333333
1, 309360, Tempo, 952381
1, 309780, Tempo, 1000000
1, 309900, Tempo, 952381
1, 311700, Tempo, 967742
1, 311820, Tempo, 952381
1, 312720, Tempo, 967742
1, 313200, Tempo, 952381
1, 313620, Tempo, 967742
1, 313740, Tempo, 952381
1, 315540, Tempo, 967742
1, 316920, Tempo, 1578947
1, 317040, Tempo, 952381
1, 317460, Tempo, 1000000
1, 317580, Tempo, 952381
1, 319380, Tempo, 967742
1, 319500, Tempo, 952381
1, 320385, Tempo, 967742
1, 320880, Tempo, 952381
1, 321300, Tempo, 967742
1, 321420, Tempo, 952381
1, 323220, Tempo, 967742
1, 324600, Tempo, 1333333
1, 324720, Tempo, 952381
1, 325140, Tempo, 1000000
1, 325260, Tempo, 952381
1, 327060, Tempo, 967742
1, 327180, Tempo, 952381
1, 328050, Tempo, 967742
1, 328560, Tempo, 952381
1, 328980, Tempo, 967742
1, 329100, Tempo, 952381
1, 330900, Tempo, 967742
1, 332280, Tempo, 1578947
1, 332400, Tempo, 952381
1, 332820, Tempo, 1000000
1, 332940, Tempo, 952381
1, 335220, Tempo, 967742
1, 335340, Tempo, 952381
1, 337140, Tempo, 967742
1, 337255, Tempo, 952381
1, 338580, Tempo, 967742
1, 338700, Tempo, 952381
1, 339000, Tempo, 967742
1, 339600, Tempo, 1176471
1, 340080, Tempo, 967742
1, 340310, Tempo, 983607
1, 340440, Tempo, 1071429
1, 340665, Tempo, 952381
1, 342420, Tempo, 967742
1, 342540, Tempo, 952381
1, 343440, Tempo, 967742
1, 343920, Tempo, 952381
1, 344340, Tempo, 967742
1, 344460, Tempo, 952381
1, 346260, Tempo, 967742
1, 347640, Tempo, 1333333
1, 347760, Tempo, 952381
1, 348180, Tempo, 1000000
1, 348300, Tempo, 952381
1, 350100, Tempo, 967742
1, 350220, Tempo, 952381
1, 351480, Tempo, 967742
1, 351600, Tempo, 952381
1, 352020, Tempo, 967742
1, 352140, Tempo, 952381
1, 353400, Tempo, 967742
1, 353520, Tempo, 952381
1, 353940, Tempo, 967742
1, 354060, Tempo, 952381
1, 355320, Tempo, 967742
1, 355440, Tempo, 952381
1, 355860, Tempo, 967742
1, 358260, Tempo, 1000000
1, 358680, Tempo, 1071429
1, 359280, Tempo, 1333333
1, 359760, Tempo, 952381
1, 366480, Tempo, 1000000
1, 367440, Tempo, 952381
1, 374160, Tempo, 1000000
1, 374880, Tempo, 1071429
1, 375120, Tempo, 952381
1, 381720, Tempo, 1000000
1, 382800, Tempo, 952381
1, 389400, Tempo, 1000000
1, 389760, Tempo, 2068966
1, 389985, Tempo, 952381
1, 390420, Tempo, 1000000
1, 390540, Tempo, 952381
1, 392340, Tempo, 967742
1, 392460, Tempo, 952381
1, 393360, Tempo, 967742
1, 393840, Tempo, 952381
1, 394260, Tempo, 967742
1, 394380, Tempo, 952381
1, 396200, Tempo, 967742
1, 397560, Tempo, 1333333
1, 397680, Tempo, 952381
1, 398100, Tempo, 1000000
1, 398220, Tempo, 952381
1, 400020, Tempo, 967742
1, 400140, Tempo, 952381
1, 401040, Tempo, 967742
1, 401520, Tempo, 952381
1, 401940, Tempo, 967742
1, 402060, Tempo, 952381
1, 403860, Tempo, 967742
1, 405255, Tempo, 1578947
1, 405360, Tempo, 952381
1, 405780, Tempo, 1000000
1, 405900, Tempo, 952381
1, 407700, Tempo, 967742
1, 407820, Tempo, 952381
1, 408735, Tempo, 967742
1, 409200, Tempo, 952381
1, 409620, Tempo, 967742
1, 409740, Tempo, 952381
1, 411540, Tempo, 967742
1, 412920, Tempo, 1333333
1, 413040, Tempo, 952381
1, 413460, Tempo, 1000000
1, 413580, Tempo, 952381
1, 415380, Tempo, 967742
1, 415500, Tempo, 952381
1, 416400, Tempo, 967742
1, 416880, Tempo, 952381
1, 417240, Tempo, 967742
1, 417360, Tempo, 952381
1, 419220, Tempo, 967742
1, 420600, Tempo, 1578947
1, 420720, Tempo, 952381
1, 421140, Tempo, 1000000
1, 421260, Tempo, 952381
1, 423540, Tempo, 967742
1, 423660, Tempo, 952381
1, 425460, Tempo, 967742
1, 425580, Tempo, 952381
1, 426900, Tempo, 967742
1, 427320, Tempo, 967742
1, 427910, Tempo, 1176471
1, 428400, Tempo, 967742
1, 428640, Tempo, 983607
1, 428770, Tempo, 1071429
1, 428970, Tempo, 952381
1, 430740, Tempo, 967742
1, 430860, Tempo, 952381
1, 431745, Tempo, 967742
1, 432240, Tempo, 952381
1, 432660, Tempo, 967742
1, 432780, Tempo, 952381
1, 434580, Tempo, 967742
1, 435960, Tempo, 1333333
1, 436080, Tempo, 952381
1, 436500, Tempo, 1000000
1, 436620, Tempo, 952381
1, 438420, Tempo, 967742
1, 438540, Tempo, 952381
1, 439800, Tempo, 967742
1, 439920, Tempo, 952381
1, 440340, Tempo, 967742
1, 440460, Tempo, 952381
1, 441720, Tempo, 967742
1, 441840, Tempo, 952381
1, 442260, Tempo, 967742
1, 442380, Tempo, 952381
1, 443640, Tempo, 967742
1, 443760, Tempo, 952381
1, 444180, Tempo, 967742
1, 446160, Tempo, 1000000
1, 447060, Tempo, 1034483
1, 447130, Tempo, 967742
1, 447490, Tempo, 1000000
1, 447600, Tempo, 967742
1, 448020, Tempo, 967742
1, 448140, Tempo, 952381
1, 449880, Tempo, 1000000
1, 450000, Tempo, 967742
1, 451860, Tempo, 967742
1, 451980, Tempo, 952381
1, 453720, Tempo, 1000000
1, 453840, Tempo, 967742
1, 454680, Tempo, 1000000
1, 454800, Tempo, 967742
1, 455640, Tempo, 1000000
1, 455760, Tempo, 967742
1, 456600, Tempo, 1000000
1, 456720, Tempo, 967742
1, 457560, Tempo, 1000000
1, 458520, Tempo, 1034483
1, 459480, Tempo, 1500000
1, 461520, Time_signature, 2, 2, 24, 8
1, 461520, Tempo, 2068966
1, 461520, Marker_t, "<4>  "
1, 462480, Tempo, 413793
1, 465240, Tempo, 419580
1, 465720, Tempo, 428571
1, 465840, Tempo, 413793
1, 468110, Tempo, 419580
1, 468600, Tempo, 659341
1, 468720, Tempo, 413793
1, 471000, Tempo, 419580
1, 471480, Tempo, 428571
1, 471600, Tempo, 413793
1, 473880, Tempo, 419580
1, 474360, Tempo, 600000
1, 474480, Tempo, 413793
1, 476280, Tempo, 419580
1, 476400, Tempo, 413793
1, 478200, Tempo, 419580
1, 478320, Tempo, 413793
1, 481560, Tempo, 419580
1, 482040, Tempo, 600000
1, 482160, Tempo, 413793
1, 483960, Tempo, 419580
1, 484080, Tempo, 413793
1, 485880, Tempo, 419580
1, 486000, Tempo, 413793
1, 489240, Tempo, 419580
1, 489720, Tempo, 600000
1, 489840, Tempo, 413793
1, 491160, Tempo, 419580
1, 491640, Tempo, 540541
1, 491760, Tempo, 413793
1, 493080, Tempo, 419580
1, 493560, Tempo, 540541
1, 493680, Tempo, 413793
1, 495480, Tempo, 419580
1, 495600, Tempo, 413793
1, 497400, Tempo, 461538
1, 497520, Tempo, 413793
1, 499320, Tempo, 419580
1, 499440, Tempo, 413793
1, 501240, Tempo, 419580
1, 501360, Tempo, 413793
1, 502200, Tempo, 419580
1, 502320, Tempo, 413793
1, 502680, Tempo, 425532
1, 502800, Tempo, 425532
1, 503040, Tempo, 413793
1, 504600, Tempo, 419580
1, 504720, Tempo, 425532
1, 504960, Tempo, 413793
1, 506520, Tempo, 419580
1, 506640, Tempo, 425532
1, 506880, Tempo, 413793
1, 508440, Tempo, 419580
1, 512660, Tempo, 428571
1, 512760, Tempo, 540541
1, 512880, Tempo, 447761
1, 512990, Tempo, 413793
1, 515160, Tempo, 419580
1, 515640, Tempo, 434783
1, 515760, Tempo, 413793
1, 518030, Tempo, 419580
1, 518520, Tempo, 659341
1, 518640, Tempo, 413793
1, 520920, Tempo, 419580
1, 521400, Tempo, 428571
1, 521520, Tempo, 413793
1, 523800, Tempo, 419580
1, 524280, Tempo, 600000
1, 524400, Tempo, 413793
1, 526200, Tempo, 419580
1, 526320, Tempo, 413793
1, 528120, Tempo, 419580
1, 528240, Tempo, 413793
1, 531480, Tempo, 419580
1, 531960, Tempo, 600000
1, 532080, Tempo, 413793
1, 533880, Tempo, 419580
1, 534000, Tempo, 413793
1, 535800, Tempo, 419580
1, 535920, Tempo, 413793
1, 539160, Tempo, 419580
1, 539640, Tempo, 750000
1, 539760, Tempo, 413793
1, 542750, Tempo, 425532
1, 543000, Tempo, 434783
1, 543120, Tempo, 447761
1, 543600, Tempo, 413793
1, 546600, Tempo, 419580
1, 546840, Tempo, 434783
1, 546960, Tempo, 447761
1, 547440, Tempo, 413793
1, 550440, Tempo, 425532
1, 550680, Tempo, 434783
1, 550800, Tempo, 447761
1, 551280, Tempo, 413793
1, 554270, Tempo, 425532
1, 554520, Tempo, 434783
1, 554640, Tempo, 447761
1, 555120, Tempo, 413793
1, 556200, Tempo, 425532
1, 556440, Tempo, 434783
1, 556560, Tempo, 447761
1, 557040, Tempo, 413793
1, 558120, Tempo, 425532
1, 558360, Tempo, 434783
1, 558480, Tempo, 447761
1, 558960, Tempo, 413793
1, 560040, Tempo, 425532
1, 560280, Tempo, 434783
1, 560400, Tempo, 447761
1, 560880, Tempo, 413793
1, 561960, Tempo, 425532
1, 562200, Tempo, 434783
1, 562320, Tempo, 447761
1, 562680, Tempo, 1428571
1, 562800, Tempo, 413793
1, 566280, Tempo, 419580
1, 566400, Tempo, 425532
1, 566520, Tempo, 550459
1, 566640, Tempo, 447761
1, 566750, Tempo, 413793
1, 568920, Tempo, 419580
1, 569400, Tempo, 428571
1, 569520, Tempo, 413793
1, 571790, Tempo, 419580
1, 572280, Tempo, 659341
1, 572400, Tempo, 413793
1, 574680, Tempo, 419580
1, 575160, Tempo, 428571
1, 575280, Tempo, 413793
1, 577560, Tempo, 419580
1, 578040, Tempo, 600000
1, 578160, Tempo, 413793
1, 579960, Tempo, 419580
1, 580080, Tempo, 413793
1, 581880, Tempo, 419580
1, 582000, Tempo, 413793
1, 585240, Tempo, 419580
1, 585720, Tempo, 600000
1, 585840, Tempo, 413793
1, 587640, Tempo, 419580
1, 587760, Tempo, 413793
1, 589560, Tempo, 419580
1, 589680, Tempo, 413793
1, 592920, Tempo, 419580
1, 593380, Tempo, 600000
1, 593505, Tempo, 413793
1, 595080, Tempo, 419580
1, 595455, Tempo, 413793
1, 597000, Tempo, 419580
1, 597375, Tempo, 413793
1, 598920, Tempo, 419580
1, 599295, Tempo, 413793
1, 600840, Tempo, 419580
1, 601215, Tempo, 413793
1, 601320, Tempo, 419580
1, 601695, Tempo, 413793
1, 601800, Tempo, 419580
1, 602175, Tempo, 413793
1, 602280, Tempo, 419580
1, 602610, Tempo, 425532
1, 603000, Tempo, 895522
1, 603120, Tempo, 413793
1, 604920, Tempo, 419580
1, 605040, Tempo, 413793
1, 606840, Tempo, 500000
1, 606960, Tempo, 413793
1, 608760, Tempo, 419580
1, 608880, Tempo, 413793
1, 610680, Tempo, 419580
1, 610800, Tempo, 413793
1, 611640, Tempo, 419580
1, 611760, Tempo, 413793
1, 612120, Tempo, 425532
1, 612240, Tempo, 425532
1, 612480, Tempo, 413793
1, 614040, Tempo, 419580
1, 614160, Tempo, 425532
1, 614400, Tempo, 413793
1, 615960, Tempo, 419580
1, 616080, Tempo, 425532
1, 616320, Tempo, 413793
1, 617880, Tempo, 419580
1, 619560, Tempo, 425532
1, 620280, Tempo, 434783
1, 620400, Tempo, 419580
1, 623400, Tempo, 425532
1, 624120, Tempo, 434783
1, 624230, Tempo, 419580
1, 626040, Tempo, 425532
1, 626520, Tempo, 428571
1, 627960, Tempo, 434783
1, 628440, Tempo, 441176
1, 629400, Tempo, 447761
1, 630360, Tempo, 454545
1, 630840, Tempo, 461538
1, 631080, Tempo, 472441
1, 631200, Tempo, 480000
1, 631320, Tempo, 571429
1, 631440, Tempo, 1276596
1, 631440, End_track
2, 0, Start_track
2, 0, Title_t, "Beethoven"
2, 0, Control_c, 0, 0, 0
2, 0, Control_c, 0, 7, 115
2, 0, Control_c, 0, 10, 79
2, 0, Control_c, 0, 91, 91
2, 0, Control_c, 0, 93, 28
2, 0, Sequencer_specific, 5, 5, 15, 9, 64, 72
2, 0, Sequencer_specific, 15, 5, 15, 6, 71, 101, 110, 101, 114, 97, 108, 32, 77, 73, 68, 73
2, 0, Pitch_bend_c, 0, 8192
2, 0, Control_c, 0, 1, 0
2, 0, Control_c, 0, 64, 0
2, 1, Control_c, 0, 32, 0
2, 1, Program_c, 0, 0
2, 480, Note_on_c, 0, 63, 59
2, 660, Note_on_c, 0, 63, 0
2, 720, Note_on_c, 0, 63, 62
2, 960, Note_on_c, 0, 63, 0
2, 960, Note_on_c, 0, 68, 61
2, 1116, Note_on_c, 0, 68, 0
2, 1200, Note_on_c, 0, 68, 59
2, 1356, Note_on_c, 0, 68, 0
2, 1440, Note_on_c, 0, 68, 62
2, 1560, Note_on_c, 0, 68, 0
2, 1560, Note_on_c, 0, 67, 62
2, 1680, Note_on_c, 0, 67, 0
2, 1680, Note_on_c, 0, 67, 61
2, 1860, Note_on_c, 0, 67, 0
2, 1860, Note_on_c, 0, 65, 60
2, 1920, Note_on_c, 0, 65, 0
2, 1920, Note_on_c, 0, 67, 60
2, 2100, Note_on_c, 0, 67, 0
2, 2100, Note_on_c, 0, 63, 59
2, 2160, Note_on_c, 0, 63, 0
2, 2160, Note_on_c, 0, 68, 61
2, 2640, Note_on_c, 0, 68, 0
2, 2640, Note_on_c, 0, 70, 66
2, 2880, Note_on_c, 0, 70, 0
2, 2880, Note_on_c, 0, 73, 72
2, 3060, Note_on_c, 0, 73, 0
2, 3060, Note_on_c, 0, 72, 64
2, 3120, Note_on_c, 0, 72, 0
2, 3120, Note_on_c, 0, 70, 59
2, 3243, Note_on_c, 0, 70, 0
2, 3320, Note_on_c, 0, 72, 57
2, 3360, Note_on_c, 0, 72, 0
2, 3360, Note_on_c, 0, 70, 60
2, 3420, Note_on_c, 0, 70, 0
2, 3420, Note_on_c, 0, 69, 59
2, 3480, Note_on_c, 0, 69, 0
2, 3480, Note_on_c, 0, 70, 58
2, 3540, Note_on_c, 0, 70, 0
2, 3540, Note_on_c, 0, 72, 57
2, 3600, Note_on_c, 0, 72, 0
2, 3600, Note_on_c, 0, 73, 60
2, 4080, Note_on_c, 0, 73, 0
2, 4080, Note_on_c, 0, 72, 66
2, 4320, Note_on_c, 0, 72, 0
2, 4320, Note_on_c, 0, 77, 69
2, 4560, Note_on_c, 0, 77, 0
2, 4560, Note_on_c, 0, 70, 72
2, 4800, Note_on_c, 0, 70, 0
2, 4800, Note_on_c, 0, 75, 75
2, 5040, Note_on_c, 0, 75, 0
2, 5040, Note_on_c, 0, 68, 64
2, 5280, Note_on_c, 0, 68, 0
2, 5280, Note_on_c, 0, 73, 67
2, 5520, Note_on_c, 0, 73, 0
2, 5520, Note_on_c, 0, 72, 69
2, 5760, Note_on_c, 0, 72, 0
2, 5760, Note_on_c, 0, 69, 71
2, 6000, Note_on_c, 0, 69, 0
2, 6000, Note_on_c, 0, 70, 62
2, 6120, Note_on_c, 0, 70, 0
2, 6240, Note_on_c, 0, 63, 55
2, 6395, Note_on_c, 0, 63, 0
2, 6420, Note_on_c, 0, 63, 56
2, 6468, Note_on_c, 0, 63, 0
2, 6480, Note_on_c, 0, 63, 59
2, 6600, Note_on_c, 0, 63, 0
2, 6600, Note_on_c, 0, 68, 58
2, 6678, Note_on_c, 0, 68, 0
2, 6720, Note_on_c, 0, 68, 57
2, 6798, Note_on_c, 0, 68, 0
2, 6840, Note_on_c, 0, 68, 56
2, 6918, Note_on_c, 0, 68, 0
2, 6960, Note_on_c, 0, 68, 56
2, 7038, Note_on_c, 0, 68, 0
2, 7080, Note_on_c, 0, 68, 55
2, 7158, Note_on_c, 0, 68, 0
2, 7200, Note_on_c, 0, 68, 60
2, 7320, Note_on_c, 0, 68, 0
2, 7320, Note_on_c, 0, 67, 60
2, 7440, Note_on_c, 0, 67, 0
2, 7440, Note_on_c, 0, 67, 59
2, 7620, Note_on_c, 0, 67, 0
2, 7620, Note_on_c, 0, 65, 58
2, 7680, Note_on_c, 0, 65, 0
2, 7680, Note_on_c, 0, 67, 58
2, 7860, Note_on_c, 0, 67, 0
2, 7860, Note_on_c, 0, 63, 59
2, 7920, Note_on_c, 0, 63, 0
2, 7920, Note_on_c, 0, 68, 60
2, 8400, Note_on_c, 0, 68, 0
2, 8400, Note_on_c, 0, 70, 68
2, 8640, Note_on_c, 0, 70, 0
2, 8640, Note_on_c, 0, 73, 73
2, 8820, Note_on_c, 0, 73, 0
2, 8820, Note_on_c, 0, 72, 63
2, 8880, Note_on_c, 0, 72, 0
2, 8880, Note_on_c, 0, 70, 60
2, 9003, Note_on_c, 0, 70, 0
2, 9080, Note_on_c, 0, 72, 55
2, 9120, Note_on_c, 0, 72, 0
2, 9120, Note_on_c, 0, 70, 58
2, 9180, Note_on_c, 0, 70, 0
2, 9180, Note_on_c, 0, 69, 57
2, 9240, Note_on_c, 0, 69, 0
2, 9240, Note_on_c, 0, 70, 56
2, 9300, Note_on_c, 0, 70, 0
2, 9300, Note_on_c, 0, 72, 55
2, 9360, Note_on_c, 0, 72, 0
2, 9360, Note_on_c, 0, 73, 59
2, 9840, Note_on_c, 0, 73, 0
2, 9840, Note_on_c, 0, 72, 65
2, 10080, Note_on_c, 0, 72, 0
2, 10080, Note_on_c, 0, 77, 69
2, 10320, Note_on_c, 0, 77, 0
2, 10320, Note_on_c, 0, 70, 72
2, 10560, Note_on_c, 0, 70, 0
2, 10560, Note_on_c, 0, 75, 75
2, 10735, Note_on_c, 0, 75, 0
2, 10760, Note_on_c, 0, 70, 68
2, 10800, Note_on_c, 0, 70, 0
2, 10800, Note_on_c, 0, 68, 70
2, 10860, Note_on_c, 0, 68, 0
2, 10860, Note_on_c, 0, 67, 68
2, 10920, Note_on_c, 0, 67, 0
2, 10920, Note_on_c, 0, 68, 65
2, 10980, Note_on_c, 0, 68, 0
2, 10980, Note_on_c, 0, 70, 63
2, 11040, Note_on_c, 0, 70, 0
2, 11040, Note_on_c, 0, 72, 65
2, 11280, Note_on_c, 0, 72, 0
2, 11280, Note_on_c, 0, 70, 59
2, 11520, Note_on_c, 0, 70, 0
2, 11520, Note_on_c, 0, 68, 54
2, 11760, Note_on_c, 0, 68, 0
2, 12240, Note_on_c, 0, 72, 72
2, 12480, Note_on_c, 0, 72, 0
2, 12480, Note_on_c, 0, 70, 69
2, 12720, Note_on_c, 0, 70, 0
2, 12720, Note_on_c, 0, 72, 67
2, 12960, Note_on_c, 0, 72, 0
2, 12960, Note_on_c, 0, 73, 64
2, 13200, Note_on_c, 0, 73, 0
2, 13200, Note_on_c, 0, 77, 61
2, 13392, Note_on_c, 0, 77, 0
2, 13680, Note_on_c, 0, 70, 68
2, 13920, Note_on_c, 0, 70, 0
2, 13920, Note_on_c, 0, 68, 66
2, 14160, Note_on_c, 0, 68, 0
2, 14160, Note_on_c, 0, 70, 64
2, 14400, Note_on_c, 0, 70, 0
2, 14400, Note_on_c, 0, 72, 62
2, 14640, Note_on_c, 0, 72, 0
2, 14640, Note_on_c, 0, 75, 59
2, 14832, Note_on_c, 0, 75, 0
2, 14880, Note_on_c, 0, 75, 61
2, 15360, Note_on_c, 0, 75, 0
2, 15360, Note_on_c, 0, 74, 60
2, 15600, Note_on_c, 0, 74, 0
2, 15600, Note_on_c, 0, 76, 62
2, 15840, Note_on_c, 0, 76, 0
2, 15840, Note_on_c, 0, 77, 63
2, 16080, Note_on_c, 0, 77, 0
2, 16080, Note_on_c, 0, 79, 64
2, 16320, Note_on_c, 0, 79, 0
2, 16320, Note_on_c, 0, 80, 66
2, 16500, Note_on_c, 0, 80, 0
2, 16500, Note_on_c, 0, 77, 67
2, 16560, Note_on_c, 0, 77, 0
2, 16560, Note_on_c, 0, 75, 67
2, 17040, Note_on_c, 0, 75, 0
2, 17040, Note_on_c, 0, 74, 62
2, 17060, Note_on_c, 0, 75, 63
2, 17075, Note_on_c, 0, 74, 0
2, 17080, Note_on_c, 0, 74, 64
2, 17092, Note_on_c, 0, 75, 0
2, 17100, Note_on_c, 0, 75, 65
2, 17117, Note_on_c, 0, 74, 0
2, 17130, Note_on_c, 0, 74, 66
2, 17140, Note_on_c, 0, 75, 0
2, 17160, Note_on_c, 0, 75, 67
2, 17170, Note_on_c, 0, 74, 0
2, 17190, Note_on_c, 0, 74, 68
2, 17200, Note_on_c, 0, 75, 0
2, 17220, Note_on_c, 0, 72, 70
2, 17235, Note_on_c, 0, 74, 0
2, 17250, Note_on_c, 0, 74, 71
2, 17260, Note_on_c, 0, 72, 0
2, 17280, Note_on_c, 0, 75, 73
2, 17282, Note_on_c, 0, 74, 0
2, 17760, Note_on_c, 0, 75, 0
2, 17760, Note_on_c, 0, 79, 71
2, 17940, Note_on_c, 0, 79, 0
2, 17940, Note_on_c, 0, 77, 70
2, 18000, Note_on_c, 0, 77, 0
2, 18000, Note_on_c, 0, 75, 69
2, 18480, Note_on_c, 0, 75, 0
2, 18480, Note_on_c, 0, 74, 65
2, 18500, Note_on_c, 0, 75, 66
2, 18515, Note_on_c, 0, 74, 0
2, 18520, Note_on_c, 0, 74, 67
2, 18532, Note_on_c, 0, 75, 0
2, 18540, Note_on_c, 0, 75, 68
2, 18557, Note_on_c, 0, 74, 0
2, 18570, Note_on_c, 0, 74, 69
2, 18580, Note_on_c, 0, 75, 0
2, 18600, Note_on_c, 0, 75, 71
2, 18610, Note_on_c, 0, 74, 0
2, 18630, Note_on_c, 0, 74, 72
2, 18640, Note_on_c, 0, 75, 0
2, 18660, Note_on_c, 0, 72, 73
2, 18675, Note_on_c, 0, 74, 0
2, 18690, Note_on_c, 0, 74, 75
2, 18700, Note_on_c, 0, 72, 0
2, 18720, Note_on_c, 0, 75, 76
2, 18722, Note_on_c, 0, 74, 0
2, 18876, Note_on_c, 0, 75, 0
2, 18960, Note_on_c, 0, 75, 78
2, 19116, Note_on_c, 0, 75, 0
2, 19200, Note_on_c, 0, 75, 81
2, 19356, Note_on_c, 0, 75, 0
2, 19440, Note_on_c, 0, 63, 58
2, 19560, Note_on_c, 0, 63, 0
2, 19560, Note_on_c, 0, 68, 58
2, 19638, Note_on_c, 0, 68, 0
2, 19680, Note_on_c, 0, 68, 57
2, 19758, Note_on_c, 0, 68, 0
2, 19800, Note_on_c, 0, 68, 56
2, 19878, Note_on_c, 0, 68, 0
2, 19920, Note_on_c, 0, 68, 55
2, 19998, Note_on_c, 0, 68, 0
2, 20040, Note_on_c, 0, 68, 55
2, 20118, Note_on_c, 0, 68, 0
2, 20160, Note_on_c, 0, 68, 60
2, 20280, Note_on_c, 0, 68, 0
2, 20280, Note_on_c, 0, 67, 60
2, 20400, Note_on_c, 0, 67, 0
2, 20400, Note_on_c, 0, 67, 60
2, 20580, Note_on_c, 0, 67, 0
2, 20580, Note_on_c, 0, 65, 59
2, 20640, Note_on_c, 0, 65, 0
2, 20640, Note_on_c, 0, 67, 59
2, 20820, Note_on_c, 0, 67, 0
2, 20820, Note_on_c, 0, 63, 59
2, 20880, Note_on_c, 0, 63, 0
2, 20880, Note_on_c, 0, 68, 61
2, 21360, Note_on_c, 0, 68, 0
2, 21360, Note_on_c, 0, 70, 69
2, 21600, Note_on_c, 0, 70, 0
2, 21600, Note_on_c, 0, 73, 73
2, 21780, Note_on_c, 0, 73, 0
2, 21780, Note_on_c, 0, 72, 64
2, 21840, Note_on_c, 0, 72, 0
2, 21840, Note_on_c, 0, 70, 60
2, 21963, Note_on_c, 0, 70, 0
2, 22040, Note_on_c, 0, 72, 58
2, 22080, Note_on_c, 0, 72, 0
2, 22080, Note_on_c, 0, 70, 60
2, 22140, Note_on_c, 0, 70, 0
2, 22140, Note_on_c, 0, 69, 59
2, 22200, Note_on_c, 0, 69, 0
2, 22200, Note_on_c, 0, 70, 57
2, 22260, Note_on_c, 0, 70, 0
2, 22260, Note_on_c, 0, 72, 55
2, 22320, Note_on_c, 0, 72, 0
2, 22320, Note_on_c, 0, 73, 61
2, 22800, Note_on_c, 0, 73, 0
2, 22800, Note_on_c, 0, 72, 67
2, 23040, Note_on_c, 0, 72, 0
2, 23040, Note_on_c, 0, 77, 70
2, 23280, Note_on_c, 0, 77, 0
2, 23280, Note_on_c, 0, 70, 73
2, 23460, Note_on_c, 0, 70, 0
2, 23520, Note_on_c, 0, 75, 75
2, 23700, Note_on_c, 0, 75, 0
2, 23720, Note_on_c, 0, 70, 68
2, 23760, Note_on_c, 0, 70, 0
2, 23760, Note_on_c, 0, 68, 69
2, 23820, Note_on_c, 0, 68, 0
2, 23820, Note_on_c, 0, 67, 68
2, 23880, Note_on_c, 0, 67, 0
2, 23880, Note_on_c, 0, 68, 67
2, 23940, Note_on_c, 0, 68, 0
2, 23940, Note_on_c, 0, 70, 66
2, 24000, Note_on_c, 0, 70, 0
2, 24000, Note_on_c, 0, 72, 65
2, 24240, Note_on_c, 0, 72, 0
2, 24240, Note_on_c, 0, 70, 60
2, 24480, Note_on_c, 0, 70, 0
2, 24480, Note_on_c, 0, 68, 56
2, 24720, Note_on_c, 0, 68, 0
2, 25680, Control_c, 0, 64, 127
2, 25680, Note_on_c, 0, 51, 61
2, 25980, Note_on_c, 0, 51, 0
2, 25980, Note_on_c, 0, 48, 56
2, 26040, Note_on_c, 0, 48, 0
2, 26040, Note_on_c, 0, 51, 58
2, 26100, Note_on_c, 0, 51, 0
2, 26100, Note_on_c, 0, 56, 60
2, 26160, Note_on_c, 0, 56, 0
2, 26160, Note_on_c, 0, 60, 67
2, 26400, Note_on_c, 0, 60, 0
2, 26400, Note_on_c, 0, 56, 55
2, 26640, Note_on_c, 0, 56, 0
2, 26640, Control_c, 0, 64, 0
2, 26640, Note_on_c, 0, 55, 58
2, 26680, Control_c, 0, 64, 127
2, 26700, Note_on_c, 0, 55, 0
2, 26700, Note_on_c, 0, 61, 60
2, 26760, Note_on_c, 0, 61, 0
2, 26760, Note_on_c, 0, 63, 62
2, 26820, Note_on_c, 0, 63, 0
2, 26820, Note_on_c, 0, 67, 64
2, 26880, Note_on_c, 0, 67, 0
2, 26880, Note_on_c, 0, 73, 71
2, 27120, Note_on_c, 0, 73, 0
2, 27120, Note_on_c, 0, 67, 62
2, 27360, Note_on_c, 0, 67, 0
2, 27360, Control_c, 0, 64, 0
2, 27360, Note_on_c, 0, 68, 65
2, 27400, Control_c, 0, 64, 127
2, 27420, Note_on_c, 0, 68, 0
2, 27420, Note_on_c, 0, 51, 68
2, 27480, Note_on_c, 0, 51, 0
2, 27480, Note_on_c, 0, 56, 70
2, 27540, Note_on_c, 0, 56, 0
2, 27540, Note_on_c, 0, 60, 73
2, 27600, Note_on_c, 0, 60, 0
2, 27600, Note_on_c, 0, 63, 82
2, 27840, Note_on_c, 0, 63, 0
2, 27840, Control_c, 0, 64, 0
2, 27840, Note_on_c, 0, 63, 76
2, 28080, Note_on_c, 0, 63, 0
2, 28080, Note_on_c, 0, 63, 76
2, 28320, Note_on_c, 0, 63, 0
2, 28320, Note_on_c, 0, 63, 64
2, 28500, Note_on_c, 0, 63, 0
2, 28520, Note_on_c, 0, 60, 55
2, 28560, Note_on_c, 0, 60, 0
2, 28560, Note_on_c, 0, 58, 55
2, 28620, Note_on_c, 0, 58, 0
2, 28620, Note_on_c, 0, 57, 55
2, 28680, Note_on_c, 0, 57, 0
2, 28680, Note_on_c, 0, 58, 56
2, 28740, Note_on_c, 0, 58, 0
2, 28740, Note_on_c, 0, 60, 56
2, 28800, Note_on_c, 0, 60, 0
2, 28800, Note_on_c, 0, 61, 55
2, 28860, Note_on_c, 0, 61, 0
2, 28860, Control_c, 0, 64, 127
2, 28860, Note_on_c, 0, 61, 57
2, 28920, Note_on_c, 0, 61, 0
2, 28920, Note_on_c, 0, 65, 58
2, 28980, Note_on_c, 0, 65, 0
2, 28980, Note_on_c, 0, 68, 60
2, 29040, Note_on_c, 0, 68, 0
2, 29040, Note_on_c, 0, 73, 64
2, 29280, Note_on_c, 0, 73, 0
2, 29280, Note_on_c, 0, 72, 58
2, 29400, Note_on_c, 0, 72, 0
2, 29400, Control_c, 0, 64, 0
2, 29580, Control_c, 0, 64, 127
2, 29580, Note_on_c, 0, 65, 64
2, 29640, Note_on_c, 0, 65, 0
2, 29640, Note_on_c, 0, 68, 66
2, 29700, Note_on_c, 0, 68, 0
2, 29700, Note_on_c, 0, 70, 68
2, 29760, Note_on_c, 0, 70, 0
2, 29760, Note_on_c, 0, 77, 71
2, 30000, Note_on_c, 0, 77, 0
2, 30000, Note_on_c, 0, 75, 58
2, 30120, Note_on_c, 0, 75, 0
2, 30120, Control_c, 0, 64, 0
2, 30300, Control_c, 0, 64, 127
2, 30300, Note_on_c, 0, 49, 64
2, 30360, Note_on_c, 0, 49, 0
2, 30360, Note_on_c, 0, 53, 65
2, 30420, Note_on_c, 0, 53, 0
2, 30420, Note_on_c, 0, 56, 66
2, 30480, Note_on_c, 0, 56, 0
2, 30480, Note_on_c, 0, 61, 69
2, 30720, Note_on_c, 0, 61, 0
2, 30720, Control_c, 0, 64, 0
2, 30720, Note_on_c, 0, 60, 72
2, 30960, Note_on_c, 0, 60, 0
2, 30960, Note_on_c, 0, 57, 74
2, 31200, Note_on_c, 0, 57, 0
2, 31200, Note_on_c, 0, 58, 63
2, 31320, Note_on_c, 0, 58, 0
2, 31440, Note_on_c, 0, 51, 55
2, 31680, Control_c, 0, 64, 0
2, 31720, Control_c, 0, 64, 127
2, 31740, Note_on_c, 0, 51, 0
2, 31740, Note_on_c, 0, 48, 57
2, 31800, Note_on_c, 0, 48, 0
2, 31800, Note_on_c, 0, 51, 59
2, 31860, Note_on_c, 0, 51, 0
2, 31860, Note_on_c, 0, 56, 61
2, 31920, Note_on_c, 0, 56, 0
2, 31920, Note_on_c, 0, 60, 67
2, 32160, Note_on_c, 0, 60, 0
2, 32160, Note_on_c, 0, 56, 55
2, 32400, Note_on_c, 0, 56, 0
2, 32400, Control_c, 0, 64, 0
2, 32400, Note_on_c, 0, 55, 58
2, 32440, Control_c, 0, 64, 127
2, 32460, Note_on_c, 0, 55, 0
2, 32460, Note_on_c, 0, 61, 61
2, 32520, Note_on_c, 0, 61, 0
2, 32520, Note_on_c, 0, 63, 63
2, 32580, Note_on_c, 0, 63, 0
2, 32580, Note_on_c, 0, 67, 66
2, 32640, Note_on_c, 0, 67, 0
2, 32640, Note_on_c, 0, 73, 72
2, 32880, Note_on_c, 0, 73, 0
2, 32880, Note_on_c, 0, 67, 63
2, 33120, Note_on_c, 0, 67, 0
2, 33120, Control_c, 0, 64, 0
2, 33120, Note_on_c, 0, 68, 65
2, 33160, Control_c, 0, 64, 127
2, 33180, Note_on_c, 0, 68, 0
2, 33180, Note_on_c, 0, 51, 66
2, 33240, Note_on_c, 0, 51, 0
2, 33240, Note_on_c, 0, 56, 66
2, 33300, Note_on_c, 0, 56, 0
2, 33300, Note_on_c, 0, 60, 67
2, 33360, Note_on_c, 0, 60, 0
2, 33360, Note_on_c, 0, 63, 73
2, 33420, Note_on_c, 0, 63, 0
2, 33480, Control_c, 0, 64, 0
2, 33480, Note_on_c, 0, 63, 72
2, 33540, Note_on_c, 0, 63, 0
2, 33600, Note_on_c, 0, 63, 74
2, 33660, Note_on_c, 0, 63, 0
2, 33720, Note_on_c, 0, 63, 77
2, 33780, Note_on_c, 0, 63, 0
2, 33840, Note_on_c, 0, 63, 83
2, 34080, Note_on_c, 0, 63, 0
2, 34080, Note_on_c, 0, 63, 69
2, 34260, Note_on_c, 0, 63, 0
2, 34280, Note_on_c, 0, 60, 57
2, 34320, Note_on_c, 0, 60, 0
2, 34320, Note_on_c, 0, 58, 57
2, 34380, Note_on_c, 0, 58, 0
2, 34380, Note_on_c, 0, 57, 57
2, 34440, Note_on_c, 0, 57, 0
2, 34440, Note_on_c, 0, 58, 58
2, 34500, Note_on_c, 0, 58, 0
2, 34500, Note_on_c, 0, 60, 57
2, 34560, Note_on_c, 0, 60, 0
2, 34560, Note_on_c, 0, 61, 58
2, 34620, Note_on_c, 0, 61, 0
2, 34620, Control_c, 0, 64, 127
2, 34620, Note_on_c, 0, 61, 59
2, 34680, Note_on_c, 0, 61, 0
2, 34680, Note_on_c, 0, 65, 61
2, 34740, Note_on_c, 0, 65, 0
2, 34740, Note_on_c, 0, 68, 64
2, 34800, Note_on_c, 0, 68, 0
2, 34800, Note_on_c, 0, 73, 71
2, 35040, Note_on_c, 0, 73, 0
2, 35040, Note_on_c, 0, 72, 60
2, 35160, Note_on_c, 0, 72, 0
2, 35160, Control_c, 0, 64, 0
2, 35340, Control_c, 0, 64, 127
2, 35340, Note_on_c, 0, 77, 68
2, 35400, Note_on_c, 0, 77, 0
2, 35400, Note_on_c, 0, 80, 70
2, 35460, Note_on_c, 0, 80, 0
2, 35460, Note_on_c, 0, 82, 73
2, 35520, Note_on_c, 0, 82, 0
2, 35520, Note_on_c, 0, 89, 79
2, 35760, Note_on_c, 0, 89, 0
2, 35760, Note_on_c, 0, 87, 65
2, 35880, Note_on_c, 0, 87, 0
2, 35880, Control_c, 0, 64, 0
2, 36000, Control_c, 0, 64, 127
2, 36060, Note_on_c, 0, 60, 69
2, 36120, Note_on_c, 0, 60, 0
2, 36120, Note_on_c, 0, 63, 72
2, 36180, Note_on_c, 0, 63, 0
2, 36180, Note_on_c, 0, 68, 74
2, 36240, Note_on_c, 0, 68, 0
2, 36240, Note_on_c, 0, 72, 81
2, 36480, Control_c, 0, 64, 0
2, 36600, Note_on_c, 0, 72, 0
2, 36600, Note_on_c, 0, 70, 75
2, 36720, Note_on_c, 0, 70, 0
2, 36720, Note_on_c, 0, 68, 73
2, 36960, Note_on_c, 0, 68, 0
2, 37440, Note_on_c, 0, 72, 79
2, 37680, Note_on_c, 0, 72, 0
2, 37680, Note_on_c, 0, 70, 76
2, 37920, Note_on_c, 0, 70, 0
2, 37920, Note_on_c, 0, 72, 73
2, 38160, Note_on_c, 0, 72, 0
2, 38160, Note_on_c, 0, 73, 70
2, 38400, Note_on_c, 0, 73, 0
2, 38400, Note_on_c, 0, 77, 64
2, 38640, Note_on_c, 0, 77, 0
2, 38760, Note_on_c, 0, 73, 72
2, 38820, Note_on_c, 0, 72, 70
2, 38835, Note_on_c, 0, 73, 0
2, 38880, Note_on_c, 0, 70, 68
2, 38887, Note_on_c, 0, 72, 0
2, 39120, Note_on_c, 0, 70, 0
2, 39120, Note_on_c, 0, 68, 73
2, 39360, Note_on_c, 0, 68, 0
2, 39360, Note_on_c, 0, 70, 69
2, 39600, Note_on_c, 0, 70, 0
2, 39600, Note_on_c, 0, 72, 65
2, 39840, Note_on_c, 0, 72, 0
2, 39840, Note_on_c, 0, 75, 62
2, 40080, Note_on_c, 0, 75, 0
2, 40200, Control_c, 0, 64, 0
2, 40240, Control_c, 0, 64, 127
2, 40260, Note_on_c, 0, 75, 74
2, 40380, Note_on_c, 0, 75, 0
2, 40380, Control_c, 0, 64, 0
2, 40420, Control_c, 0, 64, 127
2, 40440, Note_on_c, 0, 75, 62
2, 40500, Note_on_c, 0, 75, 0
2, 40620, Control_c, 0, 64, 0
2, 40660, Control_c, 0, 64, 127
2, 40680, Note_on_c, 0, 74, 66
2, 40740, Note_on_c, 0, 74, 0
2, 40860, Control_c, 0, 64, 0
2, 40900, Control_c, 0, 64, 127
2, 40920, Note_on_c, 0, 76, 69
2, 40980, Note_on_c, 0, 76, 0
2, 41040, Control_c, 0, 64, 0
2, 41080, Control_c, 0, 64, 127
2, 41160, Note_on_c, 0, 77, 73
2, 41220, Note_on_c, 0, 77, 0
2, 41340, Control_c, 0, 64, 0
2, 41380, Control_c, 0, 64, 127
2, 41400, Note_on_c, 0, 79, 76
2, 41460, Note_on_c, 0, 79, 0
2, 41580, Control_c, 0, 64, 0
2, 41620, Control_c, 0, 64, 127
2, 41640, Note_on_c, 0, 80, 79
2, 41700, Note_on_c, 0, 80, 0
2, 41760, Control_c, 0, 64, 0
2, 41760, Note_on_c, 0, 75, 69
2, 42240, Note_on_c, 0, 75, 0
2, 42240, Note_on_c, 0, 74, 81
2, 42480, Note_on_c, 0, 74, 0
2, 42480, Note_on_c, 0, 75, 72
2, 42960, Note_on_c, 0, 75, 0
2, 42960, Note_on_c, 0, 77, 83
2, 43200, Note_on_c, 0, 77, 0
2, 43200, Note_on_c, 0, 75, 74
2, 43680, Note_on_c, 0, 75, 0
2, 43680, Note_on_c, 0, 74, 68
2, 43700, Note_on_c, 0, 75, 68
2, 43715, Note_on_c, 0, 74, 0
2, 43720, Note_on_c, 0, 74, 69
2, 43732, Note_on_c, 0, 75, 0
2, 43740, Note_on_c, 0, 75, 70
2, 43757, Note_on_c, 0, 74, 0
2, 43770, Note_on_c, 0, 74, 71
2, 43780, Note_on_c, 0, 75, 0
2, 43800, Note_on_c, 0, 75, 72
2, 43810, Note_on_c, 0, 74, 0
2, 43830, Note_on_c, 0, 74, 73
2, 43840, Note_on_c, 0, 75, 0
2, 43860, Note_on_c, 0, 72, 74
2, 43875, Note_on_c, 0, 74, 0
2, 43890, Note_on_c, 0, 74, 75
2, 43900, Note_on_c, 0, 72, 0
2, 43920, Note_on_c, 0, 63, 79
2, 43920, Note_on_c, 0, 67, 79
2, 43920, Note_on_c, 0, 75, 79
2, 43922, Note_on_c, 0, 74, 0
2, 43980, Note_on_c, 0, 63, 0
2, 43980, Note_on_c, 0, 67, 0
2, 43980, Note_on_c, 0, 75, 0
2, 43980, Control_c, 0, 64, 0
2, 43980, Note_on_c, 0, 63, 80
2, 44020, Control_c, 0, 64, 127
2, 44040, Note_on_c, 0, 63, 0
2, 44040, Note_on_c, 0, 67, 80
2, 44100, Note_on_c, 0, 67, 0
2, 44100, Note_on_c, 0, 75, 81
2, 44160, Note_on_c, 0, 75, 0
2, 44160, Control_c, 0, 64, 0
2, 44200, Control_c, 0, 64, 127
2, 44220, Note_on_c, 0, 62, 82
2, 44280, Note_on_c, 0, 62, 0
2, 44280, Note_on_c, 0, 68, 82
2, 44340, Note_on_c, 0, 68, 0
2, 44340, Note_on_c, 0, 75, 83
2, 44400, Note_on_c, 0, 75, 0
2, 44400, Control_c, 0, 64, 0
2, 44440, Control_c, 0, 64, 127
2, 44460, Note_on_c, 0, 61, 84
2, 44520, Note_on_c, 0, 61, 0
2, 44520, Note_on_c, 0, 70, 84
2, 44580, Note_on_c, 0, 70, 0
2, 44580, Note_on_c, 0, 75, 75
2, 44640, Note_on_c, 0, 75, 0
2, 44640, Control_c, 0, 64, 0
2, 44640, Note_on_c, 0, 60, 57
2, 44680, Control_c, 0, 64, 127
2, 44700, Note_on_c, 0, 60, 0
2, 44700, Note_on_c, 0, 48, 58
2, 44760, Note_on_c, 0, 48, 0
2, 44760, Note_on_c, 0, 51, 60
2, 44820, Note_on_c, 0, 51, 0
2, 44820, Note_on_c, 0, 56, 61
2, 44880, Note_on_c, 0, 56, 0
2, 44880, Note_on_c, 0, 60, 68
2, 45120, Note_on_c, 0, 60, 0
2, 45120, Note_on_c, 0, 56, 61
2, 45360, Note_on_c, 0, 56, 0
2, 45360, Control_c, 0, 64, 0
2, 45360, Note_on_c, 0, 55, 62
2, 45400, Control_c, 0, 64, 127
2, 45420, Note_on_c, 0, 55, 0
2, 45420, Note_on_c, 0, 61, 64
2, 45480, Note_on_c, 0, 61, 0
2, 45480, Note_on_c, 0, 63, 66
2, 45540, Note_on_c, 0, 63, 0
2, 45540, Note_on_c, 0, 67, 67
2, 45600, Note_on_c, 0, 67, 0
2, 45600, Note_on_c, 0, 73, 73
2, 45840, Note_on_c, 0, 73, 0
2, 45840, Note_on_c, 0, 67, 68
2, 46080, Note_on_c, 0, 67, 0
2, 46080, Control_c, 0, 64, 0
2, 46080, Note_on_c, 0, 68, 67
2, 46120, Control_c, 0, 64, 127
2, 46140, Note_on_c, 0, 68, 0
2, 46140, Note_on_c, 0, 51, 69
2, 46200, Note_on_c, 0, 51, 0
2, 46200, Note_on_c, 0, 56, 71
2, 46260, Note_on_c, 0, 56, 0
2, 46260, Note_on_c, 0, 60, 72
2, 46320, Note_on_c, 0, 60, 0
2, 46320, Note_on_c, 0, 63, 77
2, 46380, Note_on_c, 0, 63, 0
2, 46440, Control_c, 0, 64, 0
2, 46440, Note_on_c, 0, 63, 76
2, 46500, Note_on_c, 0, 63, 0
2, 46560, Note_on_c, 0, 63, 78
2, 46620, Note_on_c, 0, 63, 0
2, 46680, Note_on_c, 0, 63, 81
2, 46740, Note_on_c, 0, 63, 0
2, 46800, Note_on_c, 0, 63, 83
2, 47040, Note_on_c, 0, 63, 0
2, 47040, Note_on_c, 0, 63, 66
2, 47220, Note_on_c, 0, 63, 0
2, 47240, Note_on_c, 0, 60, 55
2, 47280, Note_on_c, 0, 60, 0
2, 47280, Note_on_c, 0, 58, 56
2, 47340, Note_on_c, 0, 58, 0
2, 47340, Note_on_c, 0, 57, 56
2, 47400, Note_on_c, 0, 57, 0
2, 47400, Note_on_c, 0, 58, 56
2, 47460, Note_on_c, 0, 58, 0
2, 47460, Note_on_c, 0, 60, 57
2, 47520, Note_on_c, 0, 60, 0
2, 47520, Note_on_c, 0, 61, 58
2, 47580, Note_on_c, 0, 61, 0
2, 47580, Control_c, 0, 64, 127
2, 47580, Note_on_c, 0, 61, 59
2, 47640, Note_on_c, 0, 61, 0
2, 47640, Note_on_c, 0, 65, 61
2, 47700, Note_on_c, 0, 65, 0
2, 47700, Note_on_c, 0, 68, 62
2, 47760, Note_on_c, 0, 68, 0
2, 47760, Note_on_c, 0, 73, 66
2, 48000, Note_on_c, 0, 73, 0
2, 48000, Note_on_c, 0, 72, 59
2, 48120, Note_on_c, 0, 72, 0
2, 48120, Control_c, 0, 64, 0
2, 48300, Control_c, 0, 64, 127
2, 48300, Note_on_c, 0, 77, 66
2, 48360, Note_on_c, 0, 77, 0
2, 48360, Note_on_c, 0, 80, 69
2, 48420, Note_on_c, 0, 80, 0
2, 48420, Note_on_c, 0, 82, 71
2, 48480, Note_on_c, 0, 82, 0
2, 48480, Note_on_c, 0, 89, 79
2, 48720, Note_on_c, 0, 89, 0
2, 48720, Note_on_c, 0, 87, 62
2, 48840, Note_on_c, 0, 87, 0
2, 48840, Control_c, 0, 64, 0
2, 48960, Control_c, 0, 64, 127
2, 48960, Control_c, 0, 64, 127
2, 49020, Note_on_c, 0, 60, 67
2, 49080, Note_on_c, 0, 60, 0
2, 49080, Note_on_c, 0, 63, 69
2, 49140, Note_on_c, 0, 63, 0
2, 49140, Note_on_c, 0, 68, 72
2, 49200, Note_on_c, 0, 68, 0
2, 49200, Note_on_c, 0, 72, 75
2, 49440, Control_c, 0, 64, 0
2, 49440, Control_c, 0, 64, 0
2, 49560, Note_on_c, 0, 72, 0
2, 49560, Note_on_c, 0, 70, 64
2, 49680, Note_on_c, 0, 70, 0
2, 49680, Note_on_c, 0, 68, 60
2, 49920, Note_on_c, 0, 68, 0
2, 50940, Note_on_c, 0, 63, 49
2, 51000, Note_on_c, 0, 63, 0
2, 51060, Note_on_c, 0, 63, 50
2, 51120, Note_on_c, 0, 63, 0
2, 51180, Note_on_c, 0, 63, 51
2, 51240, Note_on_c, 0, 63, 0
2, 51300, Note_on_c, 0, 63, 52
2, 51360, Note_on_c, 0, 63, 0
2, 51420, Note_on_c, 0, 63, 52
2, 51480, Note_on_c, 0, 63, 0
2, 51540, Note_on_c, 0, 63, 53
2, 51600, Note_on_c, 0, 63, 0
2, 51660, Note_on_c, 0, 63, 54
2, 51720, Note_on_c, 0, 63, 0
2, 51780, Note_on_c, 0, 63, 55
2, 51840, Note_on_c, 0, 63, 0
2, 51900, Note_on_c, 0, 63, 56
2, 51960, Note_on_c, 0, 63, 0
2, 52020, Note_on_c, 0, 63, 57
2, 52080, Note_on_c, 0, 63, 0
2, 52140, Note_on_c, 0, 63, 58
2, 52200, Note_on_c, 0, 63, 0
2, 52260, Note_on_c, 0, 63, 59
2, 52320, Note_on_c, 0, 63, 0
2, 52380, Note_on_c, 0, 63, 60
2, 52440, Note_on_c, 0, 63, 0
2, 52500, Note_on_c, 0, 63, 61
2, 52560, Note_on_c, 0, 63, 0
2, 52620, Note_on_c, 0, 63, 62
2, 52680, Note_on_c, 0, 63, 0
2, 52740, Note_on_c, 0, 63, 62
2, 52800, Note_on_c, 0, 63, 0
2, 52860, Note_on_c, 0, 68, 63
2, 52920, Note_on_c, 0, 68, 0
2, 52980, Note_on_c, 0, 68, 64
2, 53040, Note_on_c, 0, 68, 0
2, 53100, Note_on_c, 0, 67, 65
2, 53160, Note_on_c, 0, 67, 0
2, 53220, Note_on_c, 0, 67, 68
2, 53280, Note_on_c, 0, 67, 0
2, 53340, Note_on_c, 0, 68, 65
2, 53400, Note_on_c, 0, 68, 0
2, 53460, Note_on_c, 0, 68, 62
2, 53520, Note_on_c, 0, 68, 0
2, 53580, Note_on_c, 0, 67, 59
2, 53640, Note_on_c, 0, 67, 0
2, 53700, Note_on_c, 0, 67, 56
2, 53760, Note_on_c, 0, 67, 0
2, 53820, Note_on_c, 0, 68, 56
2, 53880, Note_on_c, 0, 68, 0
2, 53940, Note_on_c, 0, 68, 58
2, 54000, Note_on_c, 0, 68, 0
2, 54060, Note_on_c, 0, 68, 59
2, 54120, Note_on_c, 0, 68, 0
2, 54180, Note_on_c, 0, 80, 61
2, 54240, Note_on_c, 0, 80, 0
2, 54300, Note_on_c, 0, 80, 63
2, 54360, Note_on_c, 0, 80, 0
2, 54420, Note_on_c, 0, 80, 64
2, 54480, Note_on_c, 0, 80, 0
2, 54540, Note_on_c, 0, 80, 66
2, 54600, Note_on_c, 0, 80, 0
2, 54660, Note_on_c, 0, 80, 68
2, 54720, Note_on_c, 0, 80, 0
2, 54780, Note_on_c, 0, 80, 69
2, 54840, Note_on_c, 0, 80, 0
2, 54900, Note_on_c, 0, 80, 71
2, 54960, Note_on_c, 0, 80, 0
2, 55020, Note_on_c, 0, 79, 73
2, 55080, Note_on_c, 0, 79, 0
2, 55140, Note_on_c, 0, 79, 74
2, 55200, Note_on_c, 0, 79, 0
2, 55260, Note_on_c, 0, 80, 76
2, 55320, Note_on_c, 0, 80, 0
2, 55380, Note_on_c, 0, 80, 78
2, 55440, Note_on_c, 0, 80, 0
2, 55500, Note_on_c, 0, 82, 77
2, 55560, Note_on_c, 0, 82, 0
2, 55620, Note_on_c, 0, 77, 74
2, 55680, Note_on_c, 0, 77, 0
2, 55740, Note_on_c, 0, 76, 71
2, 55800, Note_on_c, 0, 76, 0
2, 55860, Note_on_c, 0, 75, 68
2, 55920, Note_on_c, 0, 75, 0
2, 55980, Note_on_c, 0, 75, 64
2, 56040, Note_on_c, 0, 75, 0
2, 56100, Note_on_c, 0, 75, 61
2, 56160, Note_on_c, 0, 75, 0
2, 56220, Note_on_c, 0, 75, 59
2, 56280, Note_on_c, 0, 75, 0
2, 56340, Note_on_c, 0, 75, 57
2, 56400, Note_on_c, 0, 75, 0
2, 56460, Note_on_c, 0, 75, 56
2, 56520, Note_on_c, 0, 75, 0
2, 56580, Note_on_c, 0, 75, 55
2, 56640, Note_on_c, 0, 75, 0
2, 56700, Note_on_c, 0, 75, 51
2, 56760, Note_on_c, 0, 75, 0
2, 56820, Note_on_c, 0, 75, 52
2, 56880, Note_on_c, 0, 75, 0
2, 56940, Note_on_c, 0, 75, 53
2, 57000, Note_on_c, 0, 75, 0
2, 57060, Note_on_c, 0, 75, 53
2, 57120, Note_on_c, 0, 75, 0
2, 57180, Note_on_c, 0, 75, 54
2, 57240, Note_on_c, 0, 75, 0
2, 57300, Note_on_c, 0, 75, 55
2, 57360, Note_on_c, 0, 75, 0
2, 57420, Note_on_c, 0, 75, 56
2, 57480, Note_on_c, 0, 75, 0
2, 57540, Note_on_c, 0, 75, 57
2, 57600, Note_on_c, 0, 75, 0
2, 57660, Note_on_c, 0, 75, 58
2, 57720, Note_on_c, 0, 75, 0
2, 57780, Note_on_c, 0, 75, 59
2, 57840, Note_on_c, 0, 75, 0
2, 57900, Note_on_c, 0, 75, 60
2, 57960, Note_on_c, 0, 75, 0
2, 58020, Note_on_c, 0, 75, 61
2, 58080, Note_on_c, 0, 75, 0
2, 58140, Note_on_c, 0, 75, 62
2, 58200, Note_on_c, 0, 75, 0
2, 58260, Note_on_c, 0, 75, 63
2, 58320, Note_on_c, 0, 75, 0
2, 58380, Note_on_c, 0, 75, 64
2, 58440, Note_on_c, 0, 75, 0
2, 58500, Note_on_c, 0, 75, 65
2, 58560, Note_on_c, 0, 75, 0
2, 58620, Note_on_c, 0, 75, 66
2, 58680, Note_on_c, 0, 75, 0
2, 58740, Note_on_c, 0, 75, 66
2, 58800, Note_on_c, 0, 75, 0
2, 58860, Note_on_c, 0, 75, 67
2, 58920, Note_on_c, 0, 75, 0
2, 58980, Note_on_c, 0, 75, 68
2, 59040, Note_on_c, 0, 75, 0
2, 59100, Note_on_c, 0, 75, 66
2, 59160, Note_on_c, 0, 75, 0
2, 59220, Note_on_c, 0, 75, 62
2, 59280, Note_on_c, 0, 75, 0
2, 59340, Note_on_c, 0, 75, 58
2, 59400, Note_on_c, 0, 75, 0
2, 59460, Note_on_c, 0, 75, 55
2, 59520, Note_on_c, 0, 75, 0
2, 59580, Note_on_c, 0, 75, 57
2, 59640, Note_on_c, 0, 75, 0
2, 59700, Note_on_c, 0, 75, 59
2, 59760, Note_on_c, 0, 75, 0
2, 59820, Note_on_c, 0, 77, 61
2, 59880, Note_on_c, 0, 77, 0
2, 59940, Note_on_c, 0, 77, 63
2, 60000, Note_on_c, 0, 77, 0
2, 60060, Note_on_c, 0, 80, 65
2, 60120, Note_on_c, 0, 80, 0
2, 60180, Note_on_c, 0, 80, 67
2, 60240, Note_on_c, 0, 80, 0
2, 60300, Note_on_c, 0, 80, 69
2, 60360, Note_on_c, 0, 80, 0
2, 60420, Note_on_c, 0, 80, 71
2, 60480, Note_on_c, 0, 80, 0
2, 60540, Note_on_c, 0, 80, 73
2, 60600, Note_on_c, 0, 80, 0
2, 60660, Note_on_c, 0, 80, 75
2, 60720, Note_on_c, 0, 80, 0
2, 60780, Note_on_c, 0, 79, 77
2, 60840, Note_on_c, 0, 79, 0
2, 60900, Note_on_c, 0, 79, 80
2, 60960, Note_on_c, 0, 79, 0
2, 61020, Note_on_c, 0, 80, 82
2, 61080, Note_on_c, 0, 80, 0
2, 61140, Note_on_c, 0, 80, 76
2, 61200, Note_on_c, 0, 80, 0
2, 61260, Note_on_c, 0, 75, 71
2, 61320, Note_on_c, 0, 75, 0
2, 61380, Note_on_c, 0, 75, 69
2, 61440, Note_on_c, 0, 75, 0
2, 61500, Note_on_c, 0, 75, 67
2, 61560, Note_on_c, 0, 75, 0
2, 61620, Note_on_c, 0, 75, 65
2, 61680, Note_on_c, 0, 75, 0
2, 61740, Note_on_c, 0, 67, 64
2, 61800, Note_on_c, 0, 67, 0
2, 61860, Note_on_c, 0, 67, 62
2, 61920, Note_on_c, 0, 67, 0
2, 61980, Note_on_c, 0, 68, 60
2, 62040, Note_on_c, 0, 68, 0
2, 62100, Note_on_c, 0, 68, 58
2, 62160, Note_on_c, 0, 68, 0
2, 62460, Note_on_c, 0, 77, 74
2, 62520, Note_on_c, 0, 77, 0
2, 62580, Note_on_c, 0, 77, 73
2, 62640, Note_on_c, 0, 77, 0
2, 62700, Note_on_c, 0, 77, 72
2, 62760, Note_on_c, 0, 77, 0
2, 62820, Note_on_c, 0, 89, 72
2, 62880, Note_on_c, 0, 89, 0
2, 62940, Note_on_c, 0, 88, 71
2, 63000, Note_on_c, 0, 88, 0
2, 63060, Note_on_c, 0, 88, 70
2, 63120, Note_on_c, 0, 88, 0
2, 63180, Note_on_c, 0, 87, 69
2, 63240, Note_on_c, 0, 87, 0
2, 63300, Note_on_c, 0, 87, 69
2, 63360, Note_on_c, 0, 87, 0
2, 63420, Note_on_c, 0, 85, 68
2, 63480, Note_on_c, 0, 85, 0
2, 63540, Note_on_c, 0, 85, 67
2, 63600, Note_on_c, 0, 85, 0
2, 63660, Note_on_c, 0, 82, 66
2, 63720, Note_on_c, 0, 82, 0
2, 63780, Note_on_c, 0, 82, 65
2, 63840, Note_on_c, 0, 82, 0
2, 63900, Note_on_c, 0, 77, 74
2, 63960, Note_on_c, 0, 77, 0
2, 64020, Note_on_c, 0, 76, 73
2, 64080, Note_on_c, 0, 76, 0
2, 64140, Note_on_c, 0, 75, 72
2, 64200, Note_on_c, 0, 75, 0
2, 64260, Note_on_c, 0, 87, 71
2, 64320, Note_on_c, 0, 87, 0
2, 64380, Note_on_c, 0, 86, 71
2, 64440, Note_on_c, 0, 86, 0
2, 64500, Note_on_c, 0, 86, 70
2, 64560, Note_on_c, 0, 86, 0
2, 64620, Note_on_c, 0, 85, 69
2, 64680, Note_on_c, 0, 85, 0
2, 64740, Note_on_c, 0, 85, 67
2, 64800, Note_on_c, 0, 85, 0
2, 64860, Note_on_c, 0, 84, 66
2, 64920, Note_on_c, 0, 84, 0
2, 64980, Note_on_c, 0, 84, 65
2, 65040, Note_on_c, 0, 84, 0
2, 65100, Note_on_c, 0, 80, 64
2, 65160, Note_on_c, 0, 80, 0
2, 65220, Note_on_c, 0, 80, 63
2, 65280, Note_on_c, 0, 80, 0
2, 65340, Note_on_c, 0, 80, 61
2, 65400, Note_on_c, 0, 80, 0
2, 65460, Note_on_c, 0, 80, 60
2, 65520, Note_on_c, 0, 80, 0
2, 65580, Note_on_c, 0, 80, 59
2, 65640, Note_on_c, 0, 80, 0
2, 65700, Note_on_c, 0, 80, 61
2, 65760, Note_on_c, 0, 80, 0
2, 65820, Note_on_c, 0, 80, 62
2, 65880, Note_on_c, 0, 80, 0
2, 65940, Note_on_c, 0, 80, 63
2, 66000, Note_on_c, 0, 80, 0
2, 66060, Note_on_c, 0, 79, 64
2, 66120, Note_on_c, 0, 79, 0
2, 66180, Note_on_c, 0, 79, 64
2, 66240, Note_on_c, 0, 79, 0
2, 66300, Note_on_c, 0, 84, 65
2, 66360, Note_on_c, 0, 84, 0
2, 66420, Note_on_c, 0, 84, 66
2, 66480, Note_on_c, 0, 84, 0
2, 66540, Note_on_c, 0, 76, 67
2, 66600, Note_on_c, 0, 76, 0
2, 66660, Note_on_c, 0, 76, 68
2, 66720, Note_on_c, 0, 76, 0
2, 66780, Note_on_c, 0, 77, 69
2, 66840, Note_on_c, 0, 77, 0
2, 66900, Note_on_c, 0, 77, 69
2, 66960, Note_on_c, 0, 77, 0
2, 67020, Note_on_c, 0, 79, 70
2, 67080, Note_on_c, 0, 79, 0
2, 67140, Note_on_c, 0, 79, 71
2, 67200, Note_on_c, 0, 79, 0
2, 67260, Note_on_c, 0, 79, 72
2, 67320, Note_on_c, 0, 79, 0
2, 67380, Note_on_c, 0, 79, 73
2, 67440, Note_on_c, 0, 79, 0
2, 67500, Note_on_c, 0, 80, 74
2, 67560, Note_on_c, 0, 80, 0
2, 67620, Note_on_c, 0, 80, 74
2, 67680, Note_on_c, 0, 80, 0
2, 67740, Note_on_c, 0, 79, 75
2, 67800, Note_on_c, 0, 79, 0
2, 67860, Note_on_c, 0, 79, 76
2, 67920, Note_on_c, 0, 79, 0
2, 67980, Note_on_c, 0, 79, 77
2, 68040, Note_on_c, 0, 79, 0
2, 68100, Note_on_c, 0, 79, 78
2, 68160, Note_on_c, 0, 79, 0
2, 68220, Note_on_c, 0, 84, 78
2, 68280, Note_on_c, 0, 84, 0
2, 68340, Note_on_c, 0, 84, 79
2, 68400, Note_on_c, 0, 84, 0
2, 68460, Note_on_c, 0, 82, 80
2, 68520, Note_on_c, 0, 82, 0
2, 68580, Note_on_c, 0, 82, 81
2, 68640, Note_on_c, 0, 82, 0
2, 68700, Note_on_c, 0, 75, 82
2, 68760, Note_on_c, 0, 75, 0
2, 68820, Note_on_c, 0, 75, 83
2, 68880, Note_on_c, 0, 75, 0
2, 68940, Note_on_c, 0, 77, 83
2, 69000, Note_on_c, 0, 77, 0
2, 69060, Note_on_c, 0, 77, 84
2, 69120, Note_on_c, 0, 77, 0
2, 69180, Note_on_c, 0, 75, 74
2, 69240, Note_on_c, 0, 75, 0
2, 69300, Note_on_c, 0, 75, 68
2, 69360, Note_on_c, 0, 75, 0
2, 69420, Note_on_c, 0, 74, 62
2, 69480, Note_on_c, 0, 74, 0
2, 69540, Note_on_c, 0, 74, 56
2, 69600, Note_on_c, 0, 74, 0
2, 69660, Note_on_c, 0, 73, 55
2, 69720, Note_on_c, 0, 73, 0
2, 69780, Note_on_c, 0, 73, 55
2, 69840, Note_on_c, 0, 73, 0
2, 69900, Note_on_c, 0, 72, 55
2, 69960, Note_on_c, 0, 72, 0
2, 70020, Note_on_c, 0, 75, 56
2, 70080, Note_on_c, 0, 75, 0
2, 70140, Note_on_c, 0, 75, 57
2, 70200, Note_on_c, 0, 75, 0
2, 70260, Note_on_c, 0, 75, 58
2, 70320, Note_on_c, 0, 75, 0
2, 70380, Note_on_c, 0, 75, 59
2, 70440, Note_on_c, 0, 75, 0
2, 70500, Note_on_c, 0, 75, 60
2, 70560, Note_on_c, 0, 75, 0
2, 70620, Note_on_c, 0, 75, 61
2, 70680, Note_on_c, 0, 75, 0
2, 70740, Note_on_c, 0, 75, 62
2, 70800, Note_on_c, 0, 75, 0
2, 70860, Note_on_c, 0, 75, 62
2, 70920, Note_on_c, 0, 75, 0
2, 70980, Note_on_c, 0, 75, 63
2, 71040, Note_on_c, 0, 75, 0
2, 71100, Note_on_c, 0, 75, 64
2, 71160, Note_on_c, 0, 75, 0
2, 71220, Note_on_c, 0, 75, 65
2, 71280, Note_on_c, 0, 75, 0
2, 71340, Note_on_c, 0, 75, 66
2, 71400, Note_on_c, 0, 75, 0
2, 71460, Note_on_c, 0, 75, 67
2, 71520, Note_on_c, 0, 75, 0
2, 71580, Note_on_c, 0, 75, 68
2, 71640, Note_on_c, 0, 75, 0
2, 71700, Note_on_c, 0, 75, 68
2, 71760, Note_on_c, 0, 75, 0
2, 71820, Note_on_c, 0, 75, 69
2, 71880, Note_on_c, 0, 75, 0
2, 71940, Note_on_c, 0, 75, 70
2, 72000, Note_on_c, 0, 75, 0
2, 72060, Note_on_c, 0, 75, 68
2, 72120, Note_on_c, 0, 75, 0
2, 72180, Note_on_c, 0, 75, 64
2, 72240, Note_on_c, 0, 75, 0
2, 72300, Note_on_c, 0, 75, 59
2, 72360, Note_on_c, 0, 75, 0
2, 72420, Note_on_c, 0, 75, 55
2, 72480, Note_on_c, 0, 75, 0
2, 72540, Note_on_c, 0, 75, 57
2, 72600, Note_on_c, 0, 75, 0
2, 72660, Note_on_c, 0, 75, 58
2, 72720, Note_on_c, 0, 75, 0
2, 72780, Note_on_c, 0, 77, 60
2, 72840, Note_on_c, 0, 77, 0
2, 72900, Note_on_c, 0, 77, 61
2, 72960, Note_on_c, 0, 77, 0
2, 73020, Note_on_c, 0, 80, 63
2, 73080, Note_on_c, 0, 80, 0
2, 73140, Note_on_c, 0, 80, 64
2, 73200, Note_on_c, 0, 80, 0
2, 73260, Note_on_c, 0, 80, 66
2, 73320, Note_on_c, 0, 80, 0
2, 73380, Note_on_c, 0, 80, 67
2, 73440, Note_on_c, 0, 80, 0
2, 73500, Note_on_c, 0, 80, 69
2, 73560, Note_on_c, 0, 80, 0
2, 73620, Note_on_c, 0, 80, 70
2, 73680, Note_on_c, 0, 80, 0
2, 73740, Note_on_c, 0, 79, 72
2, 73800, Note_on_c, 0, 79, 0
2, 73860, Note_on_c, 0, 79, 73
2, 73920, Note_on_c, 0, 79, 0
2, 73980, Note_on_c, 0, 80, 75
2, 74040, Note_on_c, 0, 80, 0
2, 74100, Note_on_c, 0, 80, 76
2, 74160, Note_on_c, 0, 80, 0
2, 74220, Note_on_c, 0, 75, 70
2, 74280, Note_on_c, 0, 75, 0
2, 74340, Note_on_c, 0, 75, 68
2, 74400, Note_on_c, 0, 75, 0
2, 74460, Note_on_c, 0, 75, 66
2, 74520, Note_on_c, 0, 75, 0
2, 74580, Note_on_c, 0, 75, 63
2, 74640, Note_on_c, 0, 75, 0
2, 74700, Note_on_c, 0, 67, 61
2, 74760, Note_on_c, 0, 67, 0
2, 74820, Note_on_c, 0, 67, 59
2, 74880, Note_on_c, 0, 67, 0
2, 74940, Note_on_c, 0, 68, 57
2, 75000, Note_on_c, 0, 68, 0
2, 75060, Note_on_c, 0, 68, 55
2, 75120, Note_on_c, 0, 68, 0
2, 76080, Note_on_c, 0, 51, 55
2, 76200, Note_on_c, 0, 51, 0
2, 76200, Note_on_c, 0, 51, 55
2, 76440, Note_on_c, 0, 51, 0
2, 76440, Note_on_c, 0, 56, 57
2, 76680, Note_on_c, 0, 56, 0
2, 76680, Note_on_c, 0, 56, 58
2, 76920, Note_on_c, 0, 56, 0
2, 76920, Note_on_c, 0, 56, 59
2, 77160, Note_on_c, 0, 56, 0
2, 77160, Note_on_c, 0, 55, 60
2, 77400, Note_on_c, 0, 55, 0
2, 77400, Note_on_c, 0, 55, 61
2, 77640, Note_on_c, 0, 55, 0
2, 77640, Note_on_c, 0, 55, 62
2, 77880, Note_on_c, 0, 55, 0
2, 77880, Note_on_c, 0, 56, 63
2, 78120, Note_on_c, 0, 56, 0
2, 78120, Note_on_c, 0, 56, 64
2, 78360, Note_on_c, 0, 56, 0
2, 78360, Note_on_c, 0, 56, 65
2, 78600, Note_on_c, 0, 56, 0
2, 78600, Note_on_c, 0, 57, 66
2, 78840, Note_on_c, 0, 57, 0
2, 78840, Note_on_c, 0, 57, 67
2, 79080, Note_on_c, 0, 57, 0
2, 79080, Note_on_c, 0, 57, 69
2, 79320, Note_on_c, 0, 57, 0
2, 79320, Note_on_c, 0, 60, 71
2, 79560, Note_on_c, 0, 60, 0
2, 79560, Note_on_c, 0, 60, 73
2, 79800, Note_on_c, 0, 60, 0
2, 79800, Note_on_c, 0, 60, 75
2, 80040, Note_on_c, 0, 60, 0
2, 80040, Note_on_c, 0, 61, 76
2, 80280, Note_on_c, 0, 61, 0
2, 80280, Note_on_c, 0, 61, 78
2, 80520, Note_on_c, 0, 61, 0
2, 80520, Note_on_c, 0, 61, 80
2, 80760, Note_on_c, 0, 61, 0
2, 80760, Note_on_c, 0, 62, 82
2, 81000, Note_on_c, 0, 62, 0
2, 81000, Note_on_c, 0, 62, 83
2, 81240, Note_on_c, 0, 62, 0
2, 81240, Note_on_c, 0, 62, 91
2, 81600, Note_on_c, 0, 62, 0
2, 81600, Note_on_c, 0, 63, 66
2, 81720, Note_on_c, 0, 63, 0
2, 81840, Note_on_c, 0, 63, 53
2, 81960, Note_on_c, 0, 63, 0
2, 81960, Note_on_c, 0, 63, 53
2, 82200, Note_on_c, 0, 63, 0
2, 82200, Note_on_c, 0, 68, 53
2, 82440, Note_on_c, 0, 68, 0
2, 82440, Note_on_c, 0, 68, 54
2, 82680, Note_on_c, 0, 68, 0
2, 82680, Note_on_c, 0, 68, 55
2, 82920, Note_on_c, 0, 68, 0
2, 82920, Note_on_c, 0, 67, 55
2, 83160, Note_on_c, 0, 67, 0
2, 83160, Note_on_c, 0, 67, 56
2, 83400, Note_on_c, 0, 67, 0
2, 83400, Note_on_c, 0, 67, 56
2, 83640, Note_on_c, 0, 67, 0
2, 83640, Note_on_c, 0, 68, 57
2, 83880, Note_on_c, 0, 68, 0
2, 83880, Note_on_c, 0, 68, 57
2, 84120, Note_on_c, 0, 68, 0
2, 84120, Note_on_c, 0, 68, 58
2, 84360, Note_on_c, 0, 68, 0
2, 84360, Note_on_c, 0, 69, 60
2, 84600, Note_on_c, 0, 69, 0
2, 84600, Note_on_c, 0, 69, 63
2, 84840, Note_on_c, 0, 69, 0
2, 84840, Note_on_c, 0, 69, 65
2, 85080, Note_on_c, 0, 69, 0
2, 85080, Note_on_c, 0, 72, 68
2, 85320, Note_on_c, 0, 72, 0
2, 85320, Note_on_c, 0, 72, 70
2, 85560, Note_on_c, 0, 72, 0
2, 85560, Note_on_c, 0, 72, 72
2, 85800, Note_on_c, 0, 72, 0
2, 85800, Note_on_c, 0, 73, 76
2, 86040, Note_on_c, 0, 73, 0
2, 86040, Note_on_c, 0, 73, 79
2, 86280, Note_on_c, 0, 73, 0
2, 86280, Note_on_c, 0, 74, 83
2, 86520, Note_on_c, 0, 74, 0
2, 86520, Note_on_c, 0, 75, 82
2, 86760, Note_on_c, 0, 75, 0
2, 86760, Note_on_c, 0, 75, 73
2, 87000, Note_on_c, 0, 75, 0
2, 87000, Note_on_c, 0, 75, 64
2, 87120, Note_on_c, 0, 75, 0
2, 87120, Note_on_c, 0, 68, 60
2, 87360, Note_on_c, 0, 68, 0
2, 87840, Note_on_c, 0, 78, 78
2, 88800, Note_on_c, 0, 78, 0
2, 88800, Note_on_c, 0, 76, 65
2, 88920, Note_on_c, 0, 76, 0
2, 89280, Note_on_c, 0, 73, 72
2, 90240, Note_on_c, 0, 73, 0
2, 90240, Note_on_c, 0, 71, 56
2, 90360, Note_on_c, 0, 71, 0
2, 90480, Note_on_c, 0, 71, 53
2, 90585, Note_on_c, 0, 71, 0
2, 90600, Note_on_c, 0, 71, 63
2, 90840, Note_on_c, 0, 71, 0
2, 90840, Note_on_c, 0, 70, 55
2, 91080, Note_on_c, 0, 70, 0
2, 91080, Note_on_c, 0, 70, 57
2, 91200, Note_on_c, 0, 70, 0
2, 91200, Note_on_c, 0, 80, 58
2, 91320, Note_on_c, 0, 80, 0
2, 91320, Note_on_c, 0, 80, 72
2, 91560, Note_on_c, 0, 80, 0
2, 91560, Note_on_c, 0, 78, 62
2, 91800, Note_on_c, 0, 78, 0
2, 91800, Note_on_c, 0, 78, 59
2, 91920, Note_on_c, 0, 78, 0
2, 91920, Note_on_c, 0, 77, 57
2, 92040, Note_on_c, 0, 77, 0
2, 92040, Note_on_c, 0, 77, 78
2, 92280, Note_on_c, 0, 77, 0
2, 92280, Note_on_c, 0, 75, 68
2, 92520, Note_on_c, 0, 75, 0
2, 92520, Note_on_c, 0, 75, 65
2, 92640, Note_on_c, 0, 75, 0
2, 92640, Note_on_c, 0, 74, 63
2, 92760, Note_on_c, 0, 74, 0
2, 92760, Note_on_c, 0, 74, 84
2, 93000, Note_on_c, 0, 74, 0
2, 93000, Note_on_c, 0, 75, 76
2, 93240, Note_on_c, 0, 75, 0
2, 93240, Note_on_c, 0, 75, 73
2, 93360, Note_on_c, 0, 75, 0
2, 93360, Note_on_c, 0, 77, 71
2, 93480, Note_on_c, 0, 77, 0
2, 93480, Note_on_c, 0, 77, 88
2, 93720, Note_on_c, 0, 77, 0
2, 93720, Note_on_c, 0, 75, 80
2, 93960, Note_on_c, 0, 75, 0
2, 93960, Note_on_c, 0, 75, 78
2, 94080, Note_on_c, 0, 75, 0
2, 94080, Note_on_c, 0, 74, 77
2, 94200, Note_on_c, 0, 74, 0
2, 94200, Note_on_c, 0, 74, 88
2, 94440, Note_on_c, 0, 74, 0
2, 94440, Note_on_c, 0, 75, 72
2, 94680, Note_on_c, 0, 75, 0
2, 94680, Note_on_c, 0, 63, 57
2, 94920, Note_on_c, 0, 63, 0
2, 94920, Note_on_c, 0, 63, 58
2, 95160, Note_on_c, 0, 63, 0
2, 95160, Note_on_c, 0, 68, 59
2, 95400, Note_on_c, 0, 68, 0
2, 95400, Note_on_c, 0, 68, 60
2, 95640, Note_on_c, 0, 68, 0
2, 95640, Note_on_c, 0, 68, 61
2, 95880, Note_on_c, 0, 68, 0
2, 95880, Note_on_c, 0, 67, 62
2, 96120, Note_on_c, 0, 67, 0
2, 96120, Note_on_c, 0, 67, 63
2, 96360, Note_on_c, 0, 67, 0
2, 96360, Note_on_c, 0, 67, 64
2, 96600, Note_on_c, 0, 67, 0
2, 96600, Note_on_c, 0, 68, 65
2, 96840, Note_on_c, 0, 68, 0
2, 96840, Note_on_c, 0, 68, 66
2, 97080, Note_on_c, 0, 68, 0
2, 97080, Note_on_c, 0, 68, 67
2, 97320, Note_on_c, 0, 68, 0
2, 97320, Note_on_c, 0, 69, 68
2, 97560, Note_on_c, 0, 69, 0
2, 97560, Note_on_c, 0, 69, 69
2, 97800, Note_on_c, 0, 69, 0
2, 97800, Note_on_c, 0, 69, 70
2, 98040, Note_on_c, 0, 69, 0
2, 98040, Note_on_c, 0, 72, 71
2, 98280, Note_on_c, 0, 72, 0
2, 98280, Note_on_c, 0, 72, 72
2, 98520, Note_on_c, 0, 72, 0
2, 98520, Note_on_c, 0, 72, 73
2, 98760, Note_on_c, 0, 72, 0
2, 98760, Note_on_c, 0, 73, 74
2, 99000, Note_on_c, 0, 73, 0
2, 99000, Note_on_c, 0, 73, 75
2, 99240, Note_on_c, 0, 73, 0
2, 99240, Note_on_c, 0, 74, 76
2, 99480, Note_on_c, 0, 74, 0
2, 99480, Note_on_c, 0, 75, 76
2, 99720, Note_on_c, 0, 75, 0
2, 99720, Note_on_c, 0, 75, 72
2, 99960, Note_on_c, 0, 75, 0
2, 99960, Note_on_c, 0, 75, 67
2, 100080, Note_on_c, 0, 75, 0
2, 100080, Note_on_c, 0, 68, 65
2, 100320, Note_on_c, 0, 68, 0
2, 101280, Note_on_c, 0, 63, 49
2, 101760, Note_on_c, 0, 63, 0
2, 101760, Note_on_c, 0, 68, 44
2, 101880, Note_on_c, 0, 68, 0
2, 102000, Note_on_c, 0, 80, 48
2, 102480, Note_on_c, 0, 80, 0
2, 102480, Note_on_c, 0, 79, 45
2, 102600, Note_on_c, 0, 79, 0
2, 102720, Note_on_c, 0, 67, 49
2, 103200, Note_on_c, 0, 67, 0
2, 103200, Note_on_c, 0, 68, 47
2, 103320, Note_on_c, 0, 68, 0
2, 103440, Note_on_c, 0, 84, 53
2, 103920, Note_on_c, 0, 84, 0
2, 103920, Note_on_c, 0, 82, 48
2, 104040, Note_on_c, 0, 82, 0
2, 104160, Note_on_c, 0, 73, 53
2, 104640, Note_on_c, 0, 73, 0
2, 104640, Note_on_c, 0, 72, 47
2, 104760, Note_on_c, 0, 72, 0
2, 104880, Note_on_c, 0, 89, 60
2, 105360, Note_on_c, 0, 89, 0
2, 105360, Note_on_c, 0, 87, 56
2, 105480, Note_on_c, 0, 87, 0
2, 105600, Note_on_c, 0, 62, 60
2, 105840, Note_on_c, 0, 62, 0
2, 105840, Note_on_c, 0, 61, 64
2, 106080, Note_on_c, 0, 61, 0
2, 106080, Note_on_c, 0, 60, 67
2, 106320, Note_on_c, 0, 60, 0
2, 106320, Note_on_c, 0, 59, 74
2, 106800, Note_on_c, 0, 59, 0
2, 106800, Note_on_c, 0, 58, 57
2, 106920, Note_on_c, 0, 58, 0
2, 107040, Note_on_c, 0, 51, 51
2, 107520, Note_on_c, 0, 51, 0
2, 107520, Note_on_c, 0, 68, 43
2, 107640, Note_on_c, 0, 68, 0
2, 107760, Note_on_c, 0, 80, 49
2, 108240, Note_on_c, 0, 80, 0
2, 108240, Note_on_c, 0, 79, 45
2, 108360, Note_on_c, 0, 79, 0
2, 108480, Note_on_c, 0, 67, 52
2, 108960, Note_on_c, 0, 67, 0
2, 108960, Note_on_c, 0, 68, 46
2, 109080, Note_on_c, 0, 68, 0
2, 109200, Note_on_c, 0, 84, 54
2, 109680, Note_on_c, 0, 84, 0
2, 109680, Note_on_c, 0, 82, 48
2, 109800, Note_on_c, 0, 82, 0
2, 109920, Note_on_c, 0, 73, 54
2, 110400, Note_on_c, 0, 73, 0
2, 110400, Note_on_c, 0, 72, 47
2, 110520, Note_on_c, 0, 72, 0
2, 110640, Note_on_c, 0, 89, 61
2, 111120, Note_on_c, 0, 89, 0
2, 111120, Note_on_c, 0, 87, 50
2, 111240, Note_on_c, 0, 87, 0
2, 111360, Note_on_c, 0, 68, 77
2, 112080, Note_on_c, 0, 68, 0
2, 112080, Note_on_c, 0, 67, 49
2, 112320, Note_on_c, 0, 67, 0
2, 112320, Note_on_c, 0, 68, 44
2, 112440, Note_on_c, 0, 68, 0
2, 112800, Note_on_c, 0, 66, 57
2, 113280, Note_on_c, 0, 66, 0
2, 113280, Note_on_c, 0, 65, 49
2, 113400, Note_on_c, 0, 65, 0
2, 113520, Note_on_c, 0, 87, 62
2, 114000, Note_on_c, 0, 87, 0
2, 114000, Note_on_c, 0, 85, 53
2, 114120, Note_on_c, 0, 85, 0
2, 114240, Note_on_c, 0, 64, 63
2, 114720, Note_on_c, 0, 64, 0
2, 114720, Note_on_c, 0, 63, 60
2, 114840, Note_on_c, 0, 63, 0
2, 114960, Note_on_c, 0, 85, 68
2, 115440, Note_on_c, 0, 85, 0
2, 115440, Note_on_c, 0, 84, 64
2, 115560, Note_on_c, 0, 84, 0
2, 115680, Note_on_c, 0, 60, 84
2, 116160, Note_on_c, 0, 60, 0
2, 116160, Note_on_c, 0, 59, 74
2, 116287, Note_on_c, 0, 59, 0
2, 116400, Note_on_c, 0, 70, 89
2, 116880, Note_on_c, 0, 70, 0
2, 116880, Note_on_c, 0, 69, 81
2, 117000, Note_on_c, 0, 69, 0
2, 117120, Note_on_c, 0, 77, 95
2, 117600, Note_on_c, 0, 77, 0
2, 117600, Note_on_c, 0, 75, 83
2, 117720, Note_on_c, 0, 75, 0
2, 117840, Note_on_c, 0, 62, 98
2, 118320, Note_on_c, 0, 62, 0
2, 118320, Note_on_c, 0, 63, 90
2, 118440, Note_on_c, 0, 63, 0
2, 118560, Note_on_c, 0, 77, 104
2, 119040, Note_on_c, 0, 77, 0
2, 119040, Note_on_c, 0, 75, 91
2, 119160, Note_on_c, 0, 75, 0
2, 119280, Note_on_c, 0, 62, 109
2, 119520, Note_on_c, 0, 62, 0
2, 119520, Note_on_c, 0, 63, 98
2, 119640, Note_on_c, 0, 63, 0
2, 119760, Note_on_c, 0, 63, 89
2, 120000, Note_on_c, 0, 63, 0
2, 120000, Note_on_c, 0, 63, 76
2, 120480, Note_on_c, 0, 63, 0
2, 120480, Note_on_c, 0, 68, 41
2, 120600, Note_on_c, 0, 68, 0
2, 120720, Note_on_c, 0, 80, 47
2, 121200, Note_on_c, 0, 80, 0
2, 121200, Note_on_c, 0, 79, 43
2, 121320, Note_on_c, 0, 79, 0
2, 121440, Note_on_c, 0, 67, 49
2, 121920, Note_on_c, 0, 67, 0
2, 121920, Note_on_c, 0, 68, 45
2, 122040, Note_on_c, 0, 68, 0
2, 122160, Note_on_c, 0, 84, 51
2, 122640, Note_on_c, 0, 84, 0
2, 122640, Note_on_c, 0, 82, 47
2, 122765, Note_on_c, 0, 82, 0
2, 122880, Note_on_c, 0, 73, 55
2, 123360, Note_on_c, 0, 73, 0
2, 123360, Note_on_c, 0, 72, 48
2, 123480, Note_on_c, 0, 72, 0
2, 123600, Note_on_c, 0, 89, 63
2, 124080, Note_on_c, 0, 89, 0
2, 124080, Note_on_c, 0, 87, 52
2, 124200, Note_on_c, 0, 87, 0
2, 124320, Note_on_c, 0, 68, 75
2, 125040, Note_on_c, 0, 68, 0
2, 125040, Note_on_c, 0, 67, 50
2, 125280, Note_on_c, 0, 67, 0
2, 125280, Note_on_c, 0, 68, 45
2, 125400, Note_on_c, 0, 68, 0
2, 126560, Note_on_c, 0, 65, 55
2, 126640, Note_on_c, 0, 65, 0
2, 126640, Note_on_c, 0, 63, 55
2, 126720, Note_on_c, 0, 63, 0
2, 126800, Note_on_c, 0, 65, 56
2, 126880, Note_on_c, 0, 65, 0
2, 126880, Note_on_c, 0, 63, 56
2, 126960, Note_on_c, 0, 63, 0
2, 127040, Note_on_c, 0, 70, 56
2, 127120, Note_on_c, 0, 70, 0
2, 127120, Note_on_c, 0, 68, 57
2, 127200, Note_on_c, 0, 68, 0
2, 127280, Note_on_c, 0, 70, 57
2, 127360, Note_on_c, 0, 70, 0
2, 127360, Note_on_c, 0, 68, 57
2, 127440, Note_on_c, 0, 68, 0
2, 127520, Note_on_c, 0, 68, 58
2, 127600, Note_on_c, 0, 68, 0
2, 127600, Note_on_c, 0, 67, 58
2, 127680, Note_on_c, 0, 67, 0
2, 127760, Note_on_c, 0, 67, 59
2, 127840, Note_on_c, 0, 67, 0
2, 127840, Note_on_c, 0, 65, 59
2, 127920, Note_on_c, 0, 65, 0
2, 128000, Note_on_c, 0, 67, 59
2, 128080, Note_on_c, 0, 67, 0
2, 128080, Note_on_c, 0, 63, 60
2, 128160, Note_on_c, 0, 63, 0
2, 128240, Note_on_c, 0, 70, 60
2, 128320, Note_on_c, 0, 70, 0
2, 128320, Note_on_c, 0, 68, 60
2, 128400, Note_on_c, 0, 68, 0
2, 128480, Note_on_c, 0, 70, 61
2, 128560, Note_on_c, 0, 70, 0
2, 128560, Note_on_c, 0, 68, 61
2, 128640, Note_on_c, 0, 68, 0
2, 128720, Note_on_c, 0, 72, 62
2, 128800, Note_on_c, 0, 72, 0
2, 128800, Note_on_c, 0, 70, 62
2, 128880, Note_on_c, 0, 70, 0
2, 128960, Note_on_c, 0, 73, 62
2, 129040, Note_on_c, 0, 73, 0
2, 129040, Note_on_c, 0, 72, 59
2, 129120, Note_on_c, 0, 72, 0
2, 129200, Note_on_c, 0, 72, 55
2, 129280, Note_on_c, 0, 72, 0
2, 129280, Note_on_c, 0, 70, 55
2, 129320, Note_on_c, 0, 72, 55
2, 129330, Note_on_c, 0, 70, 0
2, 129360, Note_on_c, 0, 72, 0
2, 129360, Note_on_c, 0, 70, 56
2, 129420, Note_on_c, 0, 70, 0
2, 129420, Note_on_c, 0, 69, 56
2, 129480, Note_on_c, 0, 69, 0
2, 129480, Note_on_c, 0, 70, 56
2, 129540, Note_on_c, 0, 70, 0
2, 129540, Note_on_c, 0, 72, 57
2, 129600, Note_on_c, 0, 72, 0
2, 129680, Note_on_c, 0, 75, 58
2, 129760, Note_on_c, 0, 75, 0
2, 129760, Note_on_c, 0, 73, 58
2, 129840, Note_on_c, 0, 73, 0
2, 129920, Note_on_c, 0, 75, 59
2, 130000, Note_on_c, 0, 75, 0
2, 130000, Note_on_c, 0, 73, 60
2, 130080, Note_on_c, 0, 73, 0
2, 130160, Note_on_c, 0, 73, 61
2, 130240, Note_on_c, 0, 73, 0
2, 130240, Note_on_c, 0, 72, 61
2, 130320, Note_on_c, 0, 72, 0
2, 130400, Note_on_c, 0, 79, 62
2, 130480, Note_on_c, 0, 79, 0
2, 130480, Note_on_c, 0, 77, 63
2, 130560, Note_on_c, 0, 77, 0
2, 130640, Note_on_c, 0, 72, 64
2, 130720, Note_on_c, 0, 72, 0
2, 130880, Note_on_c, 0, 77, 66
2, 130960, Note_on_c, 0, 77, 0
2, 130960, Note_on_c, 0, 75, 66
2, 131040, Note_on_c, 0, 75, 0
2, 131120, Note_on_c, 0, 75, 67
2, 131200, Note_on_c, 0, 75, 0
2, 131200, Note_on_c, 0, 74, 68
2, 131280, Note_on_c, 0, 74, 0
2, 131360, Note_on_c, 0, 72, 69
2, 131360, Note_on_c, 0, 75, 69
2, 131440, Note_on_c, 0, 75, 0
2, 131440, Note_on_c, 0, 72, 0
2, 131440, Note_on_c, 0, 73, 69
2, 131520, Note_on_c, 0, 73, 0
2, 131600, Note_on_c, 0, 73, 70
2, 131680, Note_on_c, 0, 73, 0
2, 131680, Note_on_c, 0, 72, 71
2, 131760, Note_on_c, 0, 72, 0
2, 131760, Note_on_c, 0, 69, 68
2, 132000, Note_on_c, 0, 69, 0
2, 132000, Note_on_c, 0, 70, 57
2, 132180, Note_on_c, 0, 70, 0
2, 132240, Note_on_c, 0, 63, 57
2, 132348, Note_on_c, 0, 63, 0
2, 132360, Note_on_c, 0, 63, 58
2, 132468, Note_on_c, 0, 63, 0
2, 132480, Note_on_c, 0, 63, 58
2, 132720, Note_on_c, 0, 63, 0
2, 132720, Note_on_c, 0, 68, 60
2, 132960, Note_on_c, 0, 68, 0
2, 132960, Note_on_c, 0, 68, 61
2, 133200, Note_on_c, 0, 68, 0
2, 133200, Note_on_c, 0, 68, 63
2, 133320, Note_on_c, 0, 68, 0
2, 133320, Note_on_c, 0, 67, 64
2, 133380, Note_on_c, 0, 67, 0
2, 133440, Note_on_c, 0, 67, 64
2, 133560, Note_on_c, 0, 67, 0
2, 133560, Note_on_c, 0, 65, 65
2, 133620, Note_on_c, 0, 65, 0
2, 133680, Note_on_c, 0, 67, 66
2, 133800, Note_on_c, 0, 67, 0
2, 133800, Note_on_c, 0, 63, 67
2, 133860, Note_on_c, 0, 63, 0
2, 133920, Note_on_c, 0, 68, 67
2, 134160, Note_on_c, 0, 68, 0
2, 134160, Note_on_c, 0, 68, 69
2, 134400, Note_on_c, 0, 68, 0
2, 134400, Note_on_c, 0, 70, 70
2, 134640, Note_on_c, 0, 70, 0
2, 134640, Note_on_c, 0, 72, 72
2, 134880, Note_on_c, 0, 72, 0
2, 134880, Note_on_c, 0, 70, 66
2, 135070, Note_on_c, 0, 70, 0
2, 135080, Note_on_c, 0, 72, 60
2, 135120, Note_on_c, 0, 72, 0
2, 135120, Note_on_c, 0, 70, 60
2, 135180, Note_on_c, 0, 70, 0
2, 135180, Note_on_c, 0, 69, 60
2, 135240, Note_on_c, 0, 69, 0
2, 135240, Note_on_c, 0, 70, 61
2, 135300, Note_on_c, 0, 70, 0
2, 135300, Note_on_c, 0, 72, 61
2, 135360, Note_on_c, 0, 72, 0
2, 135360, Note_on_c, 0, 73, 65
2, 135600, Note_on_c, 0, 73, 0
2, 135600, Note_on_c, 0, 73, 67
2, 135840, Note_on_c, 0, 73, 0
2, 135840, Note_on_c, 0, 72, 70
2, 136080, Note_on_c, 0, 72, 0
2, 136080, Note_on_c, 0, 77, 72
2, 136320, Note_on_c, 0, 77, 0
2, 136320, Note_on_c, 0, 70, 75
2, 136560, Note_on_c, 0, 70, 0
2, 136560, Note_on_c, 0, 75, 77
2, 136800, Note_on_c, 0, 75, 0
2, 136800, Note_on_c, 0, 68, 80
2, 137040, Note_on_c, 0, 68, 0
2, 137040, Note_on_c, 0, 72, 71
2, 137280, Note_on_c, 0, 72, 0
2, 137280, Note_on_c, 0, 70, 66
2, 137520, Note_on_c, 0, 70, 0
2, 137520, Note_on_c, 0, 68, 61
2, 137760, Note_on_c, 0, 68, 0
2, 138000, Note_on_c, 0, 76, 66
2, 138060, Note_on_c, 0, 76, 0
2, 138060, Note_on_c, 0, 77, 67
2, 138120, Note_on_c, 0, 77, 0
2, 138120, Note_on_c, 0, 76, 68
2, 138180, Note_on_c, 0, 76, 0
2, 138180, Note_on_c, 0, 77, 69
2, 138240, Note_on_c, 0, 77, 0
2, 138240, Note_on_c, 0, 77, 70
2, 138300, Note_on_c, 0, 77, 0
2, 138360, Note_on_c, 0, 89, 84
2, 138600, Note_on_c, 0, 89, 0
2, 138600, Note_on_c, 0, 88, 81
2, 138840, Note_on_c, 0, 88, 0
2, 138840, Note_on_c, 0, 87, 77
2, 139020, Note_on_c, 0, 85, 75
2, 139080, Note_on_c, 0, 85, 0
2, 139080, Note_on_c, 0, 87, 0
2, 139080, Note_on_c, 0, 84, 74
2, 139140, Note_on_c, 0, 84, 0
2, 139140, Note_on_c, 0, 82, 73
2, 139200, Note_on_c, 0, 82, 0
2, 139200, Note_on_c, 0, 81, 72
2, 139260, Note_on_c, 0, 81, 0
2, 139260, Note_on_c, 0, 82, 71
2, 139320, Note_on_c, 0, 82, 0
2, 139320, Note_on_c, 0, 78, 70
2, 139380, Note_on_c, 0, 78, 0
2, 139380, Note_on_c, 0, 77, 69
2, 139440, Note_on_c, 0, 77, 0
2, 139440, Note_on_c, 0, 75, 69
2, 139500, Note_on_c, 0, 75, 0
2, 139500, Note_on_c, 0, 73, 68
2, 139560, Note_on_c, 0, 73, 0
2, 139560, Note_on_c, 0, 72, 67
2, 139620, Note_on_c, 0, 72, 0
2, 139620, Note_on_c, 0, 70, 66
2, 139680, Note_on_c, 0, 70, 0
2, 139680, Note_on_c, 0, 75, 65
2, 139740, Note_on_c, 0, 75, 0
2, 139800, Note_on_c, 0, 87, 78
2, 140040, Note_on_c, 0, 87, 0
2, 140040, Note_on_c, 0, 86, 74
2, 140280, Note_on_c, 0, 86, 0
2, 140280, Note_on_c, 0, 85, 70
2, 140460, Note_on_c, 0, 85, 0
2, 140460, Note_on_c, 0, 84, 67
2, 140520, Note_on_c, 0, 84, 0
2, 140520, Note_on_c, 0, 82, 66
2, 140580, Note_on_c, 0, 82, 0
2, 140580, Note_on_c, 0, 80, 65
2, 140640, Note_on_c, 0, 80, 0
2, 140640, Note_on_c, 0, 79, 64
2, 140700, Note_on_c, 0, 79, 0
2, 140700, Note_on_c, 0, 80, 63
2, 140760, Note_on_c, 0, 80, 0
2, 140760, Note_on_c, 0, 74, 62
2, 140820, Note_on_c, 0, 74, 0
2, 140820, Note_on_c, 0, 75, 61
2, 140880, Note_on_c, 0, 75, 0
2, 140880, Note_on_c, 0, 71, 60
2, 140940, Note_on_c, 0, 71, 0
2, 140940, Note_on_c, 0, 72, 59
2, 141000, Note_on_c, 0, 72, 0
2, 141000, Note_on_c, 0, 73, 58
2, 141060, Note_on_c, 0, 73, 0
2, 141060, Note_on_c, 0, 74, 57
2, 141120, Note_on_c, 0, 74, 0
2, 141120, Note_on_c, 0, 75, 61
2, 141360, Note_on_c, 0, 75, 0
2, 141360, Note_on_c, 0, 74, 62
2, 141600, Note_on_c, 0, 74, 0
2, 141600, Note_on_c, 0, 76, 64
2, 141840, Note_on_c, 0, 76, 0
2, 141840, Note_on_c, 0, 77, 65
2, 142080, Note_on_c, 0, 77, 0
2, 142080, Note_on_c, 0, 79, 67
2, 142320, Note_on_c, 0, 79, 0
2, 142320, Note_on_c, 0, 80, 68
2, 142560, Note_on_c, 0, 80, 0
2, 142560, Note_on_c, 0, 75, 70
2, 143040, Note_on_c, 0, 75, 0
2, 143040, Note_on_c, 0, 74, 80
2, 143280, Note_on_c, 0, 74, 0
2, 143280, Note_on_c, 0, 75, 74
2, 143760, Note_on_c, 0, 75, 0
2, 143760, Note_on_c, 0, 77, 84
2, 144000, Note_on_c, 0, 77, 0
2, 144000, Note_on_c, 0, 75, 79
2, 144480, Note_on_c, 0, 75, 0
2, 144480, Note_on_c, 0, 74, 89
2, 144720, Note_on_c, 0, 74, 0
2, 144720, Note_on_c, 0, 75, 83
2, 144960, Note_on_c, 0, 75, 0
2, 144960, Note_on_c, 0, 74, 85
2, 145200, Note_on_c, 0, 74, 0
2, 145200, Note_on_c, 0, 73, 86
2, 145440, Note_on_c, 0, 73, 0
2, 145440, Note_on_c, 0, 63, 61
2, 145560, Note_on_c, 0, 63, 0
2, 145560, Note_on_c, 0, 68, 62
2, 145620, Note_on_c, 0, 68, 0
2, 145680, Note_on_c, 0, 68, 63
2, 145740, Note_on_c, 0, 68, 0
2, 145800, Note_on_c, 0, 68, 64
2, 145860, Note_on_c, 0, 68, 0
2, 145920, Note_on_c, 0, 68, 65
2, 145980, Note_on_c, 0, 68, 0
2, 146040, Note_on_c, 0, 68, 65
2, 146100, Note_on_c, 0, 68, 0
2, 146160, Note_on_c, 0, 68, 66
2, 146280, Note_on_c, 0, 68, 0
2, 146280, Note_on_c, 0, 67, 67
2, 146340, Note_on_c, 0, 67, 0
2, 146400, Note_on_c, 0, 67, 68
2, 146520, Note_on_c, 0, 67, 0
2, 146520, Note_on_c, 0, 65, 68
2, 146580, Note_on_c, 0, 65, 0
2, 146640, Note_on_c, 0, 67, 69
2, 146760, Note_on_c, 0, 67, 0
2, 146760, Note_on_c, 0, 63, 70
2, 146820, Note_on_c, 0, 63, 0
2, 146880, Note_on_c, 0, 68, 71
2, 147120, Note_on_c, 0, 68, 0
2, 147120, Note_on_c, 0, 68, 72
2, 147360, Note_on_c, 0, 68, 0
2, 147360, Note_on_c, 0, 70, 74
2, 147600, Note_on_c, 0, 70, 0
2, 147600, Note_on_c, 0, 72, 76
2, 147840, Note_on_c, 0, 72, 0
2, 147840, Note_on_c, 0, 70, 69
2, 148040, Note_on_c, 0, 72, 60
2, 148080, Note_on_c, 0, 72, 0
2, 148080, Note_on_c, 0, 70, 0
2, 148080, Note_on_c, 0, 70, 60
2, 148140, Note_on_c, 0, 70, 0
2, 148140, Note_on_c, 0, 69, 61
2, 148200, Note_on_c, 0, 69, 0
2, 148200, Note_on_c, 0, 70, 61
2, 148260, Note_on_c, 0, 70, 0
2, 148260, Note_on_c, 0, 72, 62
2, 148320, Note_on_c, 0, 72, 0
2, 148320, Note_on_c, 0, 73, 67
2, 148560, Note_on_c, 0, 73, 0
2, 148560, Note_on_c, 0, 73, 69
2, 148800, Note_on_c, 0, 73, 0
2, 148800, Note_on_c, 0, 72, 71
2, 149040, Note_on_c, 0, 72, 0
2, 149040, Note_on_c, 0, 77, 73
2, 149280, Note_on_c, 0, 77, 0
2, 149280, Note_on_c, 0, 70, 76
2, 149520, Note_on_c, 0, 70, 0
2, 149520, Note_on_c, 0, 75, 78
2, 149760, Note_on_c, 0, 75, 0
2, 149760, Note_on_c, 0, 68, 80
2, 150000, Note_on_c, 0, 68, 0
2, 150000, Note_on_c, 0, 72, 74
2, 150240, Note_on_c, 0, 72, 0
2, 150240, Note_on_c, 0, 70, 70
2, 150480, Note_on_c, 0, 70, 0
2, 150480, Note_on_c, 0, 68, 66
2, 150720, Note_on_c, 0, 68, 0
2, 151200, Note_on_c, 0, 72, 70
2, 151680, Note_on_c, 0, 72, 0
2, 151680, Note_on_c, 0, 70, 69
2, 151800, Note_on_c, 0, 70, 0
2, 151800, Note_on_c, 0, 68, 69
2, 151920, Note_on_c, 0, 68, 0
2, 151920, Note_on_c, 0, 68, 68
2, 152160, Note_on_c, 0, 68, 0
2, 152160, Note_on_c, 0, 67, 68
2, 152400, Note_on_c, 0, 67, 0
2, 152400, Note_on_c, 0, 67, 67
2, 152580, Note_on_c, 0, 67, 0
2, 152580, Note_on_c, 0, 68, 67
2, 152640, Note_on_c, 0, 68, 0
2, 152640, Note_on_c, 0, 70, 67
2, 152880, Note_on_c, 0, 70, 0
2, 152880, Note_on_c, 0, 70, 66
2, 153120, Note_on_c, 0, 70, 0
2, 153120, Note_on_c, 0, 70, 65
2, 153300, Note_on_c, 0, 70, 0
2, 153300, Note_on_c, 0, 72, 65
2, 153360, Note_on_c, 0, 72, 0
2, 153360, Note_on_c, 0, 68, 65
2, 153600, Note_on_c, 0, 68, 0
2, 154080, Note_on_c, 0, 72, 63
2, 154176, Note_on_c, 0, 72, 0
2, 154200, Note_on_c, 0, 71, 63
2, 154296, Note_on_c, 0, 71, 0
2, 154320, Note_on_c, 0, 73, 62
2, 154416, Note_on_c, 0, 73, 0
2, 154440, Note_on_c, 0, 72, 62
2, 154536, Note_on_c, 0, 72, 0
2, 154560, Note_on_c, 0, 70, 62
2, 154656, Note_on_c, 0, 70, 0
2, 154680, Note_on_c, 0, 68, 61
2, 154776, Note_on_c, 0, 68, 0
2, 154800, Note_on_c, 0, 68, 61
2, 154896, Note_on_c, 0, 68, 0
2, 154920, Note_on_c, 0, 67, 61
2, 155016, Note_on_c, 0, 67, 0
2, 155040, Note_on_c, 0, 67, 60
2, 155136, Note_on_c, 0, 67, 0
2, 155160, Note_on_c, 0, 66, 60
2, 155256, Note_on_c, 0, 66, 0
2, 155280, Note_on_c, 0, 67, 60
2, 155376, Note_on_c, 0, 67, 0
2, 155400, Note_on_c, 0, 68, 59
2, 155496, Note_on_c, 0, 68, 0
2, 155520, Note_on_c, 0, 70, 59
2, 155616, Note_on_c, 0, 70, 0
2, 155640, Note_on_c, 0, 69, 59
2, 155736, Note_on_c, 0, 69, 0
2, 155760, Note_on_c, 0, 70, 59
2, 155856, Note_on_c, 0, 70, 0
2, 155880, Note_on_c, 0, 69, 58
2, 155976, Note_on_c, 0, 69, 0
2, 156000, Note_on_c, 0, 70, 58
2, 156096, Note_on_c, 0, 70, 0
2, 156120, Note_on_c, 0, 72, 58
2, 156216, Note_on_c, 0, 72, 0
2, 156240, Note_on_c, 0, 68, 57
2, 156480, Note_on_c, 0, 68, 0
2, 156840, Note_on_c, 0, 69, 56
2, 156960, Note_on_c, 0, 69, 0
2, 156960, Note_on_c, 0, 70, 55
2, 157200, Note_on_c, 0, 70, 0
2, 157560, Note_on_c, 0, 72, 54
2, 157680, Note_on_c, 0, 72, 0
2, 157680, Note_on_c, 0, 68, 54
2, 157920, Note_on_c, 0, 68, 0
2, 158280, Note_on_c, 0, 69, 52
2, 158400, Note_on_c, 0, 69, 0
2, 158400, Note_on_c, 0, 70, 52
2, 158640, Note_on_c, 0, 70, 0
2, 159000, Note_on_c, 0, 72, 50
2, 159120, Note_on_c, 0, 72, 0
2, 159120, Note_on_c, 0, 68, 50
2, 160080, Note_on_c, 0, 68, 0
2, 160080, Note_on_c, 0, 68, 47
2, 160320, Note_on_c, 0, 68, 0
2, 160320, Note_on_c, 0, 68, 47
2, 160560, Note_on_c, 0, 68, 0
2, 160560, Note_on_c, 0, 68, 48
2, 161760, Note_on_c, 0, 68, 0
2, 162720, Control_c, 0, 64, 0
2, 162720, Control_c, 0, 1, 0
2, 162720, Pitch_bend_c, 0, 8192
2, 162720, Control_c, 0, 93, 1
2, 162720, Control_c, 0, 91, 1
2, 162720, Control_c, 0, 10, 64
2, 163440, Control_c, 0, 91, 91
2, 163440, Control_c, 0, 93, 28
2, 163440, Control_c, 0, 64, 0
2, 163440, Control_c, 0, 1, 0
2, 163440, Pitch_bend_c, 0, 8192
2, 163440, Control_c, 0, 7, 127
2, 163920, Control_c, 0, 64, 0
2, 163920, Note_on_c, 0, 68, 66
2, 164040, Note_on_c, 0, 68, 0
2, 164040, Note_on_c, 0, 70, 71
2, 164160, Note_on_c, 0, 70, 0
2, 164160, Note_on_c, 0, 72, 85
2, 164640, Note_on_c, 0, 72, 0
2, 164640, Note_on_c, 0, 74, 76
2, 164880, Note_on_c, 0, 74, 0
2, 164880, Note_on_c, 0, 75, 74
2, 165840, Note_on_c, 0, 75, 0
2, 165840, Note_on_c, 0, 77, 72
2, 165960, Note_on_c, 0, 77, 0
2, 166080, Note_on_c, 0, 74, 67
2, 166200, Note_on_c, 0, 74, 0
2, 166320, Note_on_c, 0, 75, 63
2, 166440, Note_on_c, 0, 75, 0
2, 166800, Note_on_c, 0, 73, 60
2, 166920, Note_on_c, 0, 73, 0
2, 166920, Note_on_c, 0, 75, 65
2, 167040, Note_on_c, 0, 75, 0
2, 167040, Note_on_c, 0, 77, 75
2, 167520, Note_on_c, 0, 77, 0
2, 167520, Note_on_c, 0, 79, 67
2, 167760, Note_on_c, 0, 79, 0
2, 167760, Note_on_c, 0, 80, 65
2, 168600, Note_on_c, 0, 80, 0
2, 168720, Note_on_c, 0, 82, 64
2, 168815, Note_on_c, 0, 82, 0
2, 168960, Note_on_c, 0, 79, 58
2, 169055, Note_on_c, 0, 79, 0
2, 169200, Note_on_c, 0, 80, 53
2, 169295, Note_on_c, 0, 80, 0
2, 169680, Note_on_c, 0, 68, 60
2, 169800, Note_on_c, 0, 68, 0
2, 169800, Note_on_c, 0, 70, 64
2, 169920, Note_on_c, 0, 70, 0
2, 169920, Note_on_c, 0, 72, 72
2, 170040, Note_on_c, 0, 72, 0
2, 170160, Note_on_c, 0, 73, 70
2, 170255, Note_on_c, 0, 73, 0
2, 170400, Note_on_c, 0, 75, 68
2, 170495, Note_on_c, 0, 75, 0
2, 170640, Note_on_c, 0, 75, 67
2, 171480, Note_on_c, 0, 75, 0
2, 171600, Note_on_c, 0, 77, 64
2, 171695, Note_on_c, 0, 77, 0
2, 171840, Note_on_c, 0, 74, 59
2, 171935, Note_on_c, 0, 74, 0
2, 172080, Note_on_c, 0, 75, 53
2, 172175, Note_on_c, 0, 75, 0
2, 172560, Note_on_c, 0, 73, 57
2, 172680, Note_on_c, 0, 73, 0
2, 172680, Note_on_c, 0, 75, 61
2, 172800, Note_on_c, 0, 75, 0
2, 172800, Note_on_c, 0, 77, 66
2, 172895, Note_on_c, 0, 77, 0
2, 173040, Note_on_c, 0, 78, 65
2, 173135, Note_on_c, 0, 78, 0
2, 173280, Note_on_c, 0, 79, 64
2, 173375, Note_on_c, 0, 79, 0
2, 173520, Note_on_c, 0, 80, 63
2, 174360, Note_on_c, 0, 80, 0
2, 174480, Note_on_c, 0, 82, 62
2, 174575, Note_on_c, 0, 82, 0
2, 174720, Note_on_c, 0, 79, 58
2, 174815, Note_on_c, 0, 79, 0
2, 174960, Note_on_c, 0, 80, 53
2, 175055, Note_on_c, 0, 80, 0
2, 175440, Control_c, 0, 7, 127
2, 175440, Control_c, 0, 64, 0
2, 175440, Note_on_c, 0, 60, 57
2, 175560, Note_on_c, 0, 60, 0
2, 175560, Note_on_c, 0, 61, 57
2, 175680, Note_on_c, 0, 61, 0
2, 175680, Note_on_c, 0, 63, 58
2, 176160, Note_on_c, 0, 63, 0
2, 176160, Note_on_c, 0, 65, 60
2, 176400, Note_on_c, 0, 65, 0
2, 176400, Note_on_c, 0, 67, 62
2, 176495, Note_on_c, 0, 67, 0
2, 176880, Note_on_c, 0, 67, 71
2, 176975, Note_on_c, 0, 67, 0
2, 177120, Note_on_c, 0, 72, 65
2, 177215, Note_on_c, 0, 72, 0
2, 177360, Note_on_c, 0, 75, 66
2, 177455, Note_on_c, 0, 75, 0
2, 177600, Note_on_c, 0, 78, 90
2, 178080, Note_on_c, 0, 78, 0
2, 178080, Note_on_c, 0, 77, 64
2, 178175, Note_on_c, 0, 77, 0
2, 178320, Note_on_c, 0, 62, 71
2, 178440, Note_on_c, 0, 62, 0
2, 178440, Note_on_c, 0, 63, 72
2, 178560, Note_on_c, 0, 63, 0
2, 178560, Note_on_c, 0, 65, 72
2, 179040, Note_on_c, 0, 65, 0
2, 179040, Note_on_c, 0, 67, 75
2, 179280, Note_on_c, 0, 67, 0
2, 179280, Note_on_c, 0, 68, 76
2, 179375, Note_on_c, 0, 68, 0
2, 179760, Note_on_c, 0, 68, 87
2, 179855, Note_on_c, 0, 68, 0
2, 180000, Note_on_c, 0, 74, 79
2, 180095, Note_on_c, 0, 74, 0
2, 180240, Note_on_c, 0, 77, 81
2, 180335, Note_on_c, 0, 77, 0
2, 180480, Note_on_c, 0, 80, 101
2, 180960, Note_on_c, 0, 80, 0
2, 180960, Note_on_c, 0, 79, 80
2, 181055, Note_on_c, 0, 79, 0
2, 181200, Note_on_c, 0, 64, 85
2, 181320, Note_on_c, 0, 64, 0
2, 181320, Note_on_c, 0, 65, 86
2, 181440, Note_on_c, 0, 65, 0
2, 181440, Note_on_c, 0, 67, 87
2, 181920, Note_on_c, 0, 67, 0
2, 181920, Note_on_c, 0, 68, 89
2, 182160, Note_on_c, 0, 68, 0
2, 182160, Note_on_c, 0, 70, 90
2, 182255, Note_on_c, 0, 70, 0
2, 182640, Note_on_c, 0, 64, 94
2, 182760, Note_on_c, 0, 64, 0
2, 182760, Note_on_c, 0, 65, 92
2, 182880, Note_on_c, 0, 65, 0
2, 182880, Note_on_c, 0, 67, 90
2, 183000, Note_on_c, 0, 67, 0
2, 183120, Note_on_c, 0, 64, 102
2, 183240, Note_on_c, 0, 64, 0
2, 183240, Note_on_c, 0, 65, 97
2, 183360, Note_on_c, 0, 65, 0
2, 183360, Note_on_c, 0, 67, 96
2, 183480, Note_on_c, 0, 67, 0
2, 183480, Note_on_c, 0, 68, 95
2, 183600, Note_on_c, 0, 68, 0
2, 183600, Note_on_c, 0, 70, 94
2, 183720, Note_on_c, 0, 70, 0
2, 183840, Note_on_c, 0, 67, 103
2, 183960, Note_on_c, 0, 67, 0
2, 183960, Note_on_c, 0, 68, 99
2, 184080, Note_on_c, 0, 68, 0
2, 184080, Note_on_c, 0, 70, 95
2, 184200, Note_on_c, 0, 70, 0
2, 184200, Note_on_c, 0, 72, 92
2, 184320, Note_on_c, 0, 72, 0
2, 184320, Note_on_c, 0, 73, 88
2, 184415, Note_on_c, 0, 73, 0
2, 184800, Note_on_c, 0, 70, 85
2, 184895, Note_on_c, 0, 70, 0
2, 185040, Note_on_c, 0, 67, 84
2, 185135, Note_on_c, 0, 67, 0
2, 185520, Note_on_c, 0, 70, 81
2, 185615, Note_on_c, 0, 70, 0
2, 185760, Note_on_c, 0, 73, 80
2, 185855, Note_on_c, 0, 73, 0
2, 186240, Note_on_c, 0, 70, 77
2, 186335, Note_on_c, 0, 70, 0
2, 186480, Note_on_c, 0, 67, 75
2, 186575, Note_on_c, 0, 67, 0
2, 186960, Note_on_c, 0, 70, 72
2, 187055, Note_on_c, 0, 70, 0
2, 187200, Note_on_c, 0, 73, 71
2, 187680, Note_on_c, 0, 73, 0
2, 187680, Note_on_c, 0, 72, 65
2, 187775, Note_on_c, 0, 72, 0
2, 187920, Note_on_c, 0, 73, 67
2, 188400, Note_on_c, 0, 73, 0
2, 188400, Note_on_c, 0, 72, 63
2, 188495, Note_on_c, 0, 72, 0
2, 188640, Note_on_c, 0, 73, 66
2, 189120, Note_on_c, 0, 73, 0
2, 189120, Note_on_c, 0, 72, 61
2, 189215, Note_on_c, 0, 72, 0
2, 189360, Note_on_c, 0, 73, 64
2, 189840, Note_on_c, 0, 73, 0
2, 189840, Note_on_c, 0, 72, 60
2, 189935, Note_on_c, 0, 72, 0
2, 190080, Note_on_c, 0, 73, 62
2, 190560, Note_on_c, 0, 73, 0
2, 190560, Note_on_c, 0, 72, 57
2, 190655, Note_on_c, 0, 72, 0
2, 190800, Note_on_c, 0, 73, 60
2, 191280, Note_on_c, 0, 73, 0
2, 191280, Note_on_c, 0, 72, 56
2, 191375, Note_on_c, 0, 72, 0
2, 191520, Note_on_c, 0, 73, 58
2, 192000, Note_on_c, 0, 73, 0
2, 192000, Note_on_c, 0, 72, 55
2, 192095, Note_on_c, 0, 72, 0
2, 192240, Note_on_c, 0, 73, 57
2, 192720, Note_on_c, 0, 73, 0
2, 192720, Note_on_c, 0, 72, 53
2, 192815, Note_on_c, 0, 72, 0
2, 192960, Note_on_c, 0, 73, 55
2, 193055, Note_on_c, 0, 73, 0
2, 193680, Note_on_c, 0, 72, 53
2, 193775, Note_on_c, 0, 72, 0
2, 194400, Note_on_c, 0, 72, 51
2, 194495, Note_on_c, 0, 72, 0
2, 195120, Note_on_c, 0, 72, 49
2, 195215, Note_on_c, 0, 72, 0
2, 195840, Note_on_c, 0, 80, 86
2, 195935, Note_on_c, 0, 80, 0
2, 195960, Note_on_c, 0, 79, 86
2, 196055, Note_on_c, 0, 79, 0
2, 196080, Note_on_c, 0, 80, 85
2, 196175, Note_on_c, 0, 80, 0
2, 196200, Note_on_c, 0, 84, 85
2, 196295, Note_on_c, 0, 84, 0
2, 196320, Note_on_c, 0, 82, 85
2, 196415, Note_on_c, 0, 82, 0
2, 196440, Note_on_c, 0, 80, 84
2, 196535, Note_on_c, 0, 80, 0
2, 196560, Note_on_c, 0, 79, 84
2, 196655, Note_on_c, 0, 79, 0
2, 196680, Note_on_c, 0, 77, 83
2, 196775, Note_on_c, 0, 77, 0
2, 196800, Note_on_c, 0, 75, 83
2, 196895, Note_on_c, 0, 75, 0
2, 196920, Note_on_c, 0, 74, 83
2, 197015, Note_on_c, 0, 74, 0
2, 197040, Note_on_c, 0, 72, 82
2, 197135, Note_on_c, 0, 72, 0
2, 197160, Note_on_c, 0, 70, 82
2, 197255, Note_on_c, 0, 70, 0
2, 197280, Note_on_c, 0, 68, 81
2, 197375, Note_on_c, 0, 68, 0
2, 197400, Note_on_c, 0, 67, 81
2, 197495, Note_on_c, 0, 67, 0
2, 197520, Note_on_c, 0, 68, 81
2, 197615, Note_on_c, 0, 68, 0
2, 197640, Note_on_c, 0, 72, 80
2, 197735, Note_on_c, 0, 72, 0
2, 197760, Note_on_c, 0, 70, 80
2, 197855, Note_on_c, 0, 70, 0
2, 197880, Note_on_c, 0, 68, 79
2, 197975, Note_on_c, 0, 68, 0
2, 198000, Note_on_c, 0, 67, 79
2, 198095, Note_on_c, 0, 67, 0
2, 198120, Note_on_c, 0, 63, 79
2, 198215, Note_on_c, 0, 63, 0
2, 198240, Note_on_c, 0, 67, 78
2, 198335, Note_on_c, 0, 67, 0
2, 198360, Note_on_c, 0, 68, 78
2, 198455, Note_on_c, 0, 68, 0
2, 198480, Note_on_c, 0, 70, 77
2, 198575, Note_on_c, 0, 70, 0
2, 198600, Note_on_c, 0, 72, 77
2, 198695, Note_on_c, 0, 72, 0
2, 198720, Note_on_c, 0, 73, 77
2, 198815, Note_on_c, 0, 73, 0
2, 198840, Note_on_c, 0, 72, 76
2, 198935, Note_on_c, 0, 72, 0
2, 198960, Note_on_c, 0, 73, 76
2, 199055, Note_on_c, 0, 73, 0
2, 199080, Note_on_c, 0, 77, 75
2, 199175, Note_on_c, 0, 77, 0
2, 199200, Note_on_c, 0, 75, 75
2, 199295, Note_on_c, 0, 75, 0
2, 199320, Note_on_c, 0, 73, 75
2, 199415, Note_on_c, 0, 73, 0
2, 199440, Note_on_c, 0, 72, 74
2, 199535, Note_on_c, 0, 72, 0
2, 199560, Note_on_c, 0, 70, 74
2, 199655, Note_on_c, 0, 70, 0
2, 199680, Note_on_c, 0, 68, 73
2, 199775, Note_on_c, 0, 68, 0
2, 199800, Note_on_c, 0, 67, 73
2, 199895, Note_on_c, 0, 67, 0
2, 199920, Note_on_c, 0, 65, 73
2, 200015, Note_on_c, 0, 65, 0
2, 200040, Note_on_c, 0, 63, 72
2, 200135, Note_on_c, 0, 63, 0
2, 200160, Note_on_c, 0, 61, 72
2, 200255, Note_on_c, 0, 61, 0
2, 200280, Note_on_c, 0, 60, 71
2, 200375, Note_on_c, 0, 60, 0
2, 200400, Note_on_c, 0, 61, 71
2, 200495, Note_on_c, 0, 61, 0
2, 200520, Note_on_c, 0, 65, 71
2, 200615, Note_on_c, 0, 65, 0
2, 200640, Note_on_c, 0, 63, 70
2, 200735, Note_on_c, 0, 63, 0
2, 200760, Note_on_c, 0, 61, 70
2, 200855, Note_on_c, 0, 61, 0
2, 200880, Note_on_c, 0, 60, 69
2, 201120, Note_on_c, 0, 60, 0
2, 201360, Note_on_c, 0, 68, 82
2, 201480, Note_on_c, 0, 68, 0
2, 201480, Note_on_c, 0, 70, 86
2, 201600, Note_on_c, 0, 70, 0
2, 201600, Note_on_c, 0, 72, 92
2, 202080, Note_on_c, 0, 72, 0
2, 202080, Note_on_c, 0, 74, 91
2, 202320, Note_on_c, 0, 74, 0
2, 202320, Note_on_c, 0, 75, 90
2, 202415, Note_on_c, 0, 75, 0
2, 202800, Note_on_c, 0, 75, 101
2, 203280, Note_on_c, 0, 75, 0
2, 203280, Note_on_c, 0, 77, 89
2, 203375, Note_on_c, 0, 77, 0
2, 203520, Note_on_c, 0, 74, 86
2, 203615, Note_on_c, 0, 74, 0
2, 203760, Note_on_c, 0, 75, 81
2, 203855, Note_on_c, 0, 75, 0
2, 204240, Note_on_c, 0, 73, 86
2, 204360, Note_on_c, 0, 73, 0
2, 204360, Note_on_c, 0, 75, 89
2, 204480, Note_on_c, 0, 75, 0
2, 204480, Note_on_c, 0, 77, 92
2, 204960, Note_on_c, 0, 77, 0
2, 204960, Note_on_c, 0, 79, 89
2, 205200, Note_on_c, 0, 79, 0
2, 205200, Note_on_c, 0, 80, 84
2, 205295, Note_on_c, 0, 80, 0
2, 205680, Note_on_c, 0, 81, 98
2, 206160, Note_on_c, 0, 81, 0
2, 206160, Note_on_c, 0, 82, 85
2, 206255, Note_on_c, 0, 82, 0
2, 206400, Note_on_c, 0, 79, 81
2, 206495, Note_on_c, 0, 79, 0
2, 206640, Note_on_c, 0, 80, 77
2, 206735, Note_on_c, 0, 80, 0
2, 207120, Note_on_c, 0, 84, 100
2, 207600, Note_on_c, 0, 84, 0
2, 207600, Note_on_c, 0, 85, 92
2, 207695, Note_on_c, 0, 85, 0
2, 207840, Note_on_c, 0, 82, 88
2, 207935, Note_on_c, 0, 82, 0
2, 208080, Note_on_c, 0, 84, 84
2, 208175, Note_on_c, 0, 84, 0
2, 208560, Note_on_c, 0, 81, 104
2, 209040, Note_on_c, 0, 81, 0
2, 209040, Note_on_c, 0, 82, 95
2, 209135, Note_on_c, 0, 82, 0
2, 209280, Note_on_c, 0, 79, 92
2, 209375, Note_on_c, 0, 79, 0
2, 209520, Note_on_c, 0, 80, 91
2, 209615, Note_on_c, 0, 80, 0
2, 210000, Note_on_c, 0, 82, 96
2, 210095, Note_on_c, 0, 82, 0
2, 210240, Note_on_c, 0, 84, 99
2, 210335, Note_on_c, 0, 84, 0
2, 210720, Note_on_c, 0, 79, 105
2, 210815, Note_on_c, 0, 79, 0
2, 210960, Note_on_c, 0, 80, 107
2, 211055, Note_on_c, 0, 80, 0
2, 211440, Note_on_c, 0, 67, 113
2, 211535, Note_on_c, 0, 67, 0
2, 211680, Note_on_c, 0, 68, 116
2, 211860, Note_on_c, 0, 68, 0
2, 212160, Note_on_c, 0, 56, 53
2, 212400, Note_on_c, 0, 56, 0
2, 212400, Note_on_c, 0, 65, 54
2, 213120, Note_on_c, 0, 65, 0
2, 213120, Note_on_c, 0, 63, 56
2, 213840, Note_on_c, 0, 63, 0
2, 213840, Note_on_c, 0, 66, 59
2, 214560, Note_on_c, 0, 66, 0
2, 214560, Note_on_c, 0, 65, 61
2, 215280, Note_on_c, 0, 65, 0
2, 215280, Note_on_c, 0, 68, 65
2, 216000, Note_on_c, 0, 68, 0
2, 216000, Note_on_c, 0, 70, 79
2, 216480, Note_on_c, 0, 70, 0
2, 216480, Note_on_c, 0, 63, 67
2, 216720, Note_on_c, 0, 63, 0
2, 216720, Note_on_c, 0, 63, 64
2, 217200, Note_on_c, 0, 63, 0
2, 217200, Note_on_c, 0, 63, 57
2, 217440, Note_on_c, 0, 63, 0
2, 217440, Note_on_c, 0, 63, 53
2, 217680, Note_on_c, 0, 63, 0
2, 217920, Note_on_c, 0, 56, 53
2, 218160, Note_on_c, 0, 56, 0
2, 218160, Note_on_c, 0, 65, 54
2, 218880, Note_on_c, 0, 65, 0
2, 218880, Note_on_c, 0, 63, 56
2, 219600, Note_on_c, 0, 63, 0
2, 219600, Note_on_c, 0, 66, 59
2, 220320, Note_on_c, 0, 66, 0
2, 220320, Note_on_c, 0, 65, 61
2, 221040, Note_on_c, 0, 65, 0
2, 221040, Note_on_c, 0, 68, 65
2, 221760, Note_on_c, 0, 68, 0
2, 221760, Note_on_c, 0, 70, 79
2, 222240, Note_on_c, 0, 70, 0
2, 222240, Note_on_c, 0, 63, 67
2, 222480, Note_on_c, 0, 63, 0
2, 222480, Note_on_c, 0, 63, 64
2, 222960, Note_on_c, 0, 63, 0
2, 222960, Note_on_c, 0, 63, 57
2, 223200, Note_on_c, 0, 63, 0
2, 223200, Note_on_c, 0, 63, 53
2, 223440, Note_on_c, 0, 63, 0
2, 223680, Control_c, 0, 64, 0
2, 223680, Note_on_c, 0, 68, 55
2, 223920, Note_on_c, 0, 68, 0
2, 223920, Note_on_c, 0, 72, 56
2, 224640, Note_on_c, 0, 72, 0
2, 224640, Note_on_c, 0, 73, 58
2, 225360, Note_on_c, 0, 73, 0
2, 225360, Note_on_c, 0, 75, 60
2, 226080, Note_on_c, 0, 75, 0
2, 226080, Note_on_c, 0, 77, 62
2, 226800, Note_on_c, 0, 77, 0
2, 226800, Note_on_c, 0, 77, 64
2, 227520, Note_on_c, 0, 77, 0
2, 227520, Note_on_c, 0, 78, 66
2, 228240, Note_on_c, 0, 78, 0
2, 228240, Note_on_c, 0, 80, 68
2, 228960, Note_on_c, 0, 80, 0
2, 228960, Note_on_c, 0, 82, 70
2, 229680, Note_on_c, 0, 82, 0
2, 229680, Note_on_c, 0, 82, 71
2, 230400, Note_on_c, 0, 82, 0
2, 230400, Note_on_c, 0, 83, 76
2, 231120, Note_on_c, 0, 83, 0
2, 231120, Note_on_c, 0, 81, 81
2, 231840, Note_on_c, 0, 81, 0
2, 231840, Note_on_c, 0, 82, 85
2, 232560, Note_on_c, 0, 82, 0
2, 232560, Note_on_c, 0, 76, 93
2, 233040, Note_on_c, 0, 76, 0
2, 233040, Note_on_c, 0, 76, 83
2, 233280, Note_on_c, 0, 76, 0
2, 233280, Note_on_c, 0, 77, 73
2, 234240, Note_on_c, 0, 77, 0
2, 234240, Note_on_c, 0, 78, 63
2, 234480, Note_on_c, 0, 78, 0
2, 234480, Note_on_c, 0, 75, 60
2, 234720, Note_on_c, 0, 75, 0
2, 234720, Note_on_c, 0, 73, 58
2, 234960, Note_on_c, 0, 73, 0
2, 235200, Control_c, 0, 64, 0
2, 235200, Note_on_c, 0, 68, 55
2, 235440, Note_on_c, 0, 68, 0
2, 235440, Note_on_c, 0, 72, 56
2, 236160, Note_on_c, 0, 72, 0
2, 236160, Note_on_c, 0, 73, 58
2, 236880, Note_on_c, 0, 73, 0
2, 236880, Note_on_c, 0, 75, 60
2, 237600, Note_on_c, 0, 75, 0
2, 237600, Note_on_c, 0, 77, 62
2, 238320, Note_on_c, 0, 77, 0
2, 238320, Note_on_c, 0, 77, 64
2, 239040, Note_on_c, 0, 77, 0
2, 239040, Note_on_c, 0, 78, 66
2, 239760, Note_on_c, 0, 78, 0
2, 239760, Note_on_c, 0, 80, 68
2, 240480, Note_on_c, 0, 80, 0
2, 240480, Note_on_c, 0, 82, 70
2, 241200, Note_on_c, 0, 82, 0
2, 241200, Note_on_c, 0, 82, 71
2, 241920, Note_on_c, 0, 82, 0
2, 241920, Note_on_c, 0, 83, 76
2, 242640, Note_on_c, 0, 83, 0
2, 242640, Note_on_c, 0, 81, 81
2, 243360, Note_on_c, 0, 81, 0
2, 243360, Note_on_c, 0, 82, 85
2, 244080, Note_on_c, 0, 82, 0
2, 244080, Note_on_c, 0, 76, 93
2, 244560, Note_on_c, 0, 76, 0
2, 244560, Note_on_c, 0, 76, 83
2, 244800, Note_on_c, 0, 76, 0
2, 244800, Note_on_c, 0, 77, 73
2, 245760, Note_on_c, 0, 77, 0
2, 245760, Note_on_c, 0, 78, 63
2, 246000, Note_on_c, 0, 78, 0
2, 246000, Note_on_c, 0, 75, 60
2, 246240, Note_on_c, 0, 75, 0
2, 246240, Note_on_c, 0, 73, 58
2, 246480, Note_on_c, 0, 73, 0
2, 246720, Control_c, 0, 64, 0
2, 247200, Note_on_c, 0, 73, 75
2, 247920, Note_on_c, 0, 73, 0
2, 247920, Note_on_c, 0, 72, 62
2, 248040, Note_on_c, 0, 72, 0
2, 248640, Note_on_c, 0, 80, 85
2, 249360, Note_on_c, 0, 80, 0
2, 249360, Note_on_c, 0, 79, 55
2, 249495, Note_on_c, 0, 79, 0
2, 249600, Control_c, 0, 64, 0
2, 249600, Note_on_c, 0, 68, 66
2, 249720, Note_on_c, 0, 68, 0
2, 249720, Note_on_c, 0, 70, 71
2, 249840, Note_on_c, 0, 70, 0
2, 249840, Note_on_c, 0, 72, 85
2, 250320, Note_on_c, 0, 72, 0
2, 250320, Note_on_c, 0, 74, 76
2, 250560, Note_on_c, 0, 74, 0
2, 250560, Note_on_c, 0, 75, 74
2, 251520, Note_on_c, 0, 75, 0
2, 251520, Note_on_c, 0, 77, 72
2, 251640, Note_on_c, 0, 77, 0
2, 251760, Note_on_c, 0, 74, 67
2, 251880, Note_on_c, 0, 74, 0
2, 252000, Note_on_c, 0, 75, 63
2, 252120, Note_on_c, 0, 75, 0
2, 252480, Note_on_c, 0, 73, 60
2, 252600, Note_on_c, 0, 73, 0
2, 252600, Note_on_c, 0, 75, 65
2, 252720, Note_on_c, 0, 75, 0
2, 252720, Note_on_c, 0, 77, 75
2, 253200, Note_on_c, 0, 77, 0
2, 253200, Note_on_c, 0, 79, 67
2, 253440, Note_on_c, 0, 79, 0
2, 253440, Note_on_c, 0, 80, 65
2, 254280, Note_on_c, 0, 80, 0
2, 254400, Note_on_c, 0, 82, 64
2, 254495, Note_on_c, 0, 82, 0
2, 254640, Note_on_c, 0, 79, 58
2, 254735, Note_on_c, 0, 79, 0
2, 254880, Note_on_c, 0, 80, 53
2, 254975, Note_on_c, 0, 80, 0
2, 255360, Note_on_c, 0, 68, 60
2, 255480, Note_on_c, 0, 68, 0
2, 255480, Note_on_c, 0, 70, 64
2, 255600, Note_on_c, 0, 70, 0
2, 255600, Note_on_c, 0, 72, 72
2, 255720, Note_on_c, 0, 72, 0
2, 255840, Note_on_c, 0, 73, 70
2, 255935, Note_on_c, 0, 73, 0
2, 256080, Note_on_c, 0, 75, 68
2, 256175, Note_on_c, 0, 75, 0
2, 256320, Note_on_c, 0, 75, 67
2, 257160, Note_on_c, 0, 75, 0
2, 257280, Note_on_c, 0, 77, 64
2, 257375, Note_on_c, 0, 77, 0
2, 257520, Note_on_c, 0, 74, 59
2, 257615, Note_on_c, 0, 74, 0
2, 257760, Note_on_c, 0, 75, 53
2, 257855, Note_on_c, 0, 75, 0
2, 258240, Note_on_c, 0, 73, 57
2, 258360, Note_on_c, 0, 73, 0
2, 258360, Note_on_c, 0, 75, 61
2, 258480, Note_on_c, 0, 75, 0
2, 258480, Note_on_c, 0, 77, 66
2, 258575, Note_on_c, 0, 77, 0
2, 258720, Note_on_c, 0, 78, 65
2, 258815, Note_on_c, 0, 78, 0
2, 258960, Note_on_c, 0, 79, 64
2, 259055, Note_on_c, 0, 79, 0
2, 259200, Note_on_c, 0, 80, 63
2, 260040, Note_on_c, 0, 80, 0
2, 260160, Note_on_c, 0, 82, 62
2, 260255, Note_on_c, 0, 82, 0
2, 260400, Note_on_c, 0, 79, 58
2, 260495, Note_on_c, 0, 79, 0
2, 260640, Note_on_c, 0, 80, 53
2, 260735, Note_on_c, 0, 80, 0
2, 261120, Control_c, 0, 64, 0
2, 261120, Note_on_c, 0, 60, 57
2, 261240, Note_on_c, 0, 60, 0
2, 261240, Note_on_c, 0, 61, 57
2, 261360, Note_on_c, 0, 61, 0
2, 261360, Note_on_c, 0, 63, 58
2, 261840, Note_on_c, 0, 63, 0
2, 261840, Note_on_c, 0, 65, 60
2, 262080, Note_on_c, 0, 65, 0
2, 262080, Note_on_c, 0, 67, 62
2, 262175, Note_on_c, 0, 67, 0
2, 262560, Note_on_c, 0, 67, 71
2, 262655, Note_on_c, 0, 67, 0
2, 262800, Note_on_c, 0, 72, 65
2, 262895, Note_on_c, 0, 72, 0
2, 263040, Note_on_c, 0, 75, 66
2, 263135, Note_on_c, 0, 75, 0
2, 263280, Note_on_c, 0, 78, 90
2, 263760, Note_on_c, 0, 78, 0
2, 263760, Note_on_c, 0, 77, 64
2, 263855, Note_on_c, 0, 77, 0
2, 264000, Note_on_c, 0, 62, 71
2, 264120, Note_on_c, 0, 62, 0
2, 264120, Note_on_c, 0, 63, 72
2, 264240, Note_on_c, 0, 63, 0
2, 264240, Note_on_c, 0, 65, 72
2, 264720, Note_on_c, 0, 65, 0
2, 264720, Note_on_c, 0, 67, 75
2, 264960, Note_on_c, 0, 67, 0
2, 264960, Note_on_c, 0, 68, 76
2, 265055, Note_on_c, 0, 68, 0
2, 265440, Note_on_c, 0, 68, 87
2, 265535, Note_on_c, 0, 68, 0
2, 265680, Note_on_c, 0, 74, 79
2, 265775, Note_on_c, 0, 74, 0
2, 265920, Note_on_c, 0, 77, 81
2, 266015, Note_on_c, 0, 77, 0
2, 266160, Note_on_c, 0, 80, 101
2, 266640, Note_on_c, 0, 80, 0
2, 266640, Note_on_c, 0, 79, 80
2, 266735, Note_on_c, 0, 79, 0
2, 266880, Note_on_c, 0, 64, 85
2, 267000, Note_on_c, 0, 64, 0
2, 267000, Note_on_c, 0, 65, 86
2, 267120, Note_on_c, 0, 65, 0
2, 267120, Note_on_c, 0, 67, 87
2, 267600, Note_on_c, 0, 67, 0
2, 267600, Note_on_c, 0, 68, 89
2, 267840, Note_on_c, 0, 68, 0
2, 267840, Note_on_c, 0, 70, 90
2, 267935, Note_on_c, 0, 70, 0
2, 268320, Note_on_c, 0, 64, 94
2, 268440, Note_on_c, 0, 64, 0
2, 268440, Note_on_c, 0, 65, 92
2, 268560, Note_on_c, 0, 65, 0
2, 268560, Note_on_c, 0, 67, 90
2, 268680, Note_on_c, 0, 67, 0
2, 268800, Note_on_c, 0, 64, 102
2, 268920, Note_on_c, 0, 64, 0
2, 268920, Note_on_c, 0, 65, 97
2, 269040, Note_on_c, 0, 65, 0
2, 269040, Note_on_c, 0, 67, 96
2, 269160, Note_on_c, 0, 67, 0
2, 269160, Note_on_c, 0, 68, 95
2, 269280, Note_on_c, 0, 68, 0
2, 269280, Note_on_c, 0, 70, 94
2, 269400, Note_on_c, 0, 70, 0
2, 269520, Note_on_c, 0, 67, 103
2, 269640, Note_on_c, 0, 67, 0
2, 269640, Note_on_c, 0, 68, 99
2, 269760, Note_on_c, 0, 68, 0
2, 269760, Note_on_c, 0, 70, 95
2, 269880, Note_on_c, 0, 70, 0
2, 269880, Note_on_c, 0, 72, 92
2, 270000, Note_on_c, 0, 72, 0
2, 270000, Note_on_c, 0, 73, 86
2, 270095, Note_on_c, 0, 73, 0
2, 270480, Note_on_c, 0, 70, 75
2, 270575, Note_on_c, 0, 70, 0
2, 270720, Note_on_c, 0, 67, 75
2, 270815, Note_on_c, 0, 67, 0
2, 271200, Note_on_c, 0, 70, 73
2, 271295, Note_on_c, 0, 70, 0
2, 271440, Note_on_c, 0, 73, 73
2, 271535, Note_on_c, 0, 73, 0
2, 271920, Note_on_c, 0, 70, 72
2, 272015, Note_on_c, 0, 70, 0
2, 272160, Note_on_c, 0, 67, 71
2, 272255, Note_on_c, 0, 67, 0
2, 272640, Note_on_c, 0, 70, 70
2, 272735, Note_on_c, 0, 70, 0
2, 272880, Note_on_c, 0, 73, 69
2, 273360, Note_on_c, 0, 73, 0
2, 273360, Note_on_c, 0, 72, 65
2, 273455, Note_on_c, 0, 72, 0
2, 273600, Note_on_c, 0, 73, 67
2, 274080, Note_on_c, 0, 73, 0
2, 274080, Note_on_c, 0, 72, 63
2, 274175, Note_on_c, 0, 72, 0
2, 274320, Note_on_c, 0, 73, 66
2, 274800, Note_on_c, 0, 73, 0
2, 274800, Note_on_c, 0, 72, 61
2, 274895, Note_on_c, 0, 72, 0
2, 275040, Note_on_c, 0, 73, 64
2, 275520, Note_on_c, 0, 73, 0
2, 275520, Note_on_c, 0, 72, 60
2, 275615, Note_on_c, 0, 72, 0
2, 275760, Note_on_c, 0, 73, 62
2, 276240, Note_on_c, 0, 73, 0
2, 276240, Note_on_c, 0, 72, 57
2, 276335, Note_on_c, 0, 72, 0
2, 276480, Note_on_c, 0, 73, 60
2, 276960, Note_on_c, 0, 73, 0
2, 276960, Note_on_c, 0, 72, 56
2, 277055, Note_on_c, 0, 72, 0
2, 277200, Note_on_c, 0, 73, 58
2, 277680, Note_on_c, 0, 73, 0
2, 277680, Note_on_c, 0, 72, 55
2, 277775, Note_on_c, 0, 72, 0
2, 277920, Note_on_c, 0, 73, 57
2, 278400, Note_on_c, 0, 73, 0
2, 278400, Note_on_c, 0, 72, 53
2, 278495, Note_on_c, 0, 72, 0
2, 278640, Note_on_c, 0, 73, 55
2, 278735, Note_on_c, 0, 73, 0
2, 279360, Note_on_c, 0, 72, 53
2, 279455, Note_on_c, 0, 72, 0
2, 280080, Note_on_c, 0, 72, 51
2, 280175, Note_on_c, 0, 72, 0
2, 280800, Note_on_c, 0, 72, 49
2, 280895, Note_on_c, 0, 72, 0
2, 281520, Note_on_c, 0, 80, 86
2, 281615, Note_on_c, 0, 80, 0
2, 281640, Note_on_c, 0, 79, 86
2, 281735, Note_on_c, 0, 79, 0
2, 281760, Note_on_c, 0, 80, 85
2, 281855, Note_on_c, 0, 80, 0
2, 281880, Note_on_c, 0, 84, 85
2, 281975, Note_on_c, 0, 84, 0
2, 282000, Note_on_c, 0, 82, 85
2, 282095, Note_on_c, 0, 82, 0
2, 282120, Note_on_c, 0, 80, 84
2, 282215, Note_on_c, 0, 80, 0
2, 282240, Note_on_c, 0, 79, 84
2, 282335, Note_on_c, 0, 79, 0
2, 282360, Note_on_c, 0, 77, 83
2, 282455, Note_on_c, 0, 77, 0
2, 282480, Note_on_c, 0, 75, 83
2, 282575, Note_on_c, 0, 75, 0
2, 282600, Note_on_c, 0, 74, 83
2, 282695, Note_on_c, 0, 74, 0
2, 282720, Note_on_c, 0, 72, 82
2, 282815, Note_on_c, 0, 72, 0
2, 282840, Note_on_c, 0, 70, 82
2, 282935, Note_on_c, 0, 70, 0
2, 282960, Note_on_c, 0, 68, 81
2, 283055, Note_on_c, 0, 68, 0
2, 283080, Note_on_c, 0, 67, 81
2, 283175, Note_on_c, 0, 67, 0
2, 283200, Note_on_c, 0, 68, 81
2, 283295, Note_on_c, 0, 68, 0
2, 283320, Note_on_c, 0, 72, 80
2, 283415, Note_on_c, 0, 72, 0
2, 283440, Note_on_c, 0, 70, 80
2, 283535, Note_on_c, 0, 70, 0
2, 283560, Note_on_c, 0, 68, 79
2, 283655, Note_on_c, 0, 68, 0
2, 283680, Note_on_c, 0, 67, 79
2, 283775, Note_on_c, 0, 67, 0
2, 283800, Note_on_c, 0, 63, 79
2, 283895, Note_on_c, 0, 63, 0
2, 283920, Note_on_c, 0, 67, 78
2, 284015, Note_on_c, 0, 67, 0
2, 284040, Note_on_c, 0, 68, 78
2, 284135, Note_on_c, 0, 68, 0
2, 284160, Note_on_c, 0, 70, 77
2, 284255, Note_on_c, 0, 70, 0
2, 284280, Note_on_c, 0, 72, 77
2, 284375, Note_on_c, 0, 72, 0
2, 284400, Note_on_c, 0, 73, 77
2, 284495, Note_on_c, 0, 73, 0
2, 284520, Note_on_c, 0, 72, 76
2, 284615, Note_on_c, 0, 72, 0
2, 284640, Note_on_c, 0, 73, 76
2, 284735, Note_on_c, 0, 73, 0
2, 284760, Note_on_c, 0, 77, 75
2, 284855, Note_on_c, 0, 77, 0
2, 284880, Note_on_c, 0, 75, 75
2, 284975, Note_on_c, 0, 75, 0
2, 285000, Note_on_c, 0, 73, 75
2, 285095, Note_on_c, 0, 73, 0
2, 285120, Note_on_c, 0, 72, 74
2, 285215, Note_on_c, 0, 72, 0
2, 285240, Note_on_c, 0, 70, 74
2, 285335, Note_on_c, 0, 70, 0
2, 285360, Note_on_c, 0, 68, 73
2, 285455, Note_on_c, 0, 68, 0
2, 285480, Note_on_c, 0, 67, 73
2, 285575, Note_on_c, 0, 67, 0
2, 285600, Note_on_c, 0, 65, 73
2, 285695, Note_on_c, 0, 65, 0
2, 285720, Note_on_c, 0, 63, 72
2, 285815, Note_on_c, 0, 63, 0
2, 285840, Note_on_c, 0, 61, 72
2, 285935, Note_on_c, 0, 61, 0
2, 285960, Note_on_c, 0, 60, 71
2, 286055, Note_on_c, 0, 60, 0
2, 286080, Note_on_c, 0, 61, 71
2, 286175, Note_on_c, 0, 61, 0
2, 286200, Note_on_c, 0, 65, 71
2, 286295, Note_on_c, 0, 65, 0
2, 286320, Note_on_c, 0, 63, 70
2, 286415, Note_on_c, 0, 63, 0
2, 286440, Note_on_c, 0, 61, 70
2, 286535, Note_on_c, 0, 61, 0
2, 286560, Note_on_c, 0, 60, 69
2, 286800, Note_on_c, 0, 60, 0
2, 287040, Note_on_c, 0, 68, 82
2, 287160, Note_on_c, 0, 68, 0
2, 287160, Note_on_c, 0, 70, 86
2, 287280, Note_on_c, 0, 70, 0
2, 287280, Note_on_c, 0, 72, 92
2, 287760, Note_on_c, 0, 72, 0
2, 287760, Note_on_c, 0, 74, 91
2, 288000, Note_on_c, 0, 74, 0
2, 288000, Note_on_c, 0, 75, 90
2, 288095, Note_on_c, 0, 75, 0
2, 288480, Note_on_c, 0, 75, 101
2, 288960, Note_on_c, 0, 75, 0
2, 288960, Note_on_c, 0, 77, 89
2, 289055, Note_on_c, 0, 77, 0
2, 289200, Note_on_c, 0, 74, 86
2, 289295, Note_on_c, 0, 74, 0
2, 289440, Note_on_c, 0, 75, 81
2, 289535, Note_on_c, 0, 75, 0
2, 289920, Note_on_c, 0, 73, 83
2, 290040, Note_on_c, 0, 73, 0
2, 290040, Note_on_c, 0, 75, 88
2, 290160, Note_on_c, 0, 75, 0
2, 290160, Note_on_c, 0, 77, 93
2, 290640, Note_on_c, 0, 77, 0
2, 290640, Note_on_c, 0, 79, 90
2, 290880, Note_on_c, 0, 79, 0
2, 290880, Note_on_c, 0, 80, 85
2, 290975, Note_on_c, 0, 80, 0
2, 291360, Note_on_c, 0, 81, 99
2, 291840, Note_on_c, 0, 81, 0
2, 291840, Note_on_c, 0, 82, 84
2, 291935, Note_on_c, 0, 82, 0
2, 292080, Note_on_c, 0, 79, 80
2, 292175, Note_on_c, 0, 79, 0
2, 292320, Note_on_c, 0, 80, 76
2, 292415, Note_on_c, 0, 80, 0
2, 292800, Note_on_c, 0, 84, 100
2, 293280, Note_on_c, 0, 84, 0
2, 293280, Note_on_c, 0, 85, 94
2, 293375, Note_on_c, 0, 85, 0
2, 293520, Note_on_c, 0, 82, 90
2, 293615, Note_on_c, 0, 82, 0
2, 293760, Note_on_c, 0, 84, 87
2, 293855, Note_on_c, 0, 84, 0
2, 294240, Note_on_c, 0, 81, 105
2, 294720, Note_on_c, 0, 81, 0
2, 294720, Note_on_c, 0, 82, 100
2, 294815, Note_on_c, 0, 82, 0
2, 294960, Note_on_c, 0, 79, 97
2, 295055, Note_on_c, 0, 79, 0
2, 295200, Note_on_c, 0, 80, 95
2, 295295, Note_on_c, 0, 80, 0
2, 295680, Note_on_c, 0, 82, 102
2, 295775, Note_on_c, 0, 82, 0
2, 295920, Note_on_c, 0, 84, 104
2, 296015, Note_on_c, 0, 84, 0
2, 296400, Note_on_c, 0, 79, 108
2, 296495, Note_on_c, 0, 79, 0
2, 296640, Note_on_c, 0, 80, 110
2, 296735, Note_on_c, 0, 80, 0
2, 297120, Note_on_c, 0, 67, 115
2, 297215, Note_on_c, 0, 67, 0
2, 297360, Note_on_c, 0, 68, 117
2, 297455, Note_on_c, 0, 68, 0
2, 300240, Control_c, 0, 91, 91
2, 300240, Control_c, 0, 93, 28
2, 300240, Control_c, 0, 64, 0
2, 300240, Control_c, 0, 1, 0
2, 300240, Pitch_bend_c, 0, 8192
2, 300240, Control_c, 0, 7, 127
2, 301680, Note_on_c, 0, 63, 60
2, 302040, Note_on_c, 0, 63, 0
2, 302040, Note_on_c, 0, 63, 64
2, 302160, Note_on_c, 0, 63, 0
2, 302160, Note_on_c, 0, 63, 66
2, 302160, Note_on_c, 0, 56, 66
2, 302160, Note_on_c, 0, 59, 66
2, 302640, Note_on_c, 0, 59, 0
2, 302640, Note_on_c, 0, 56, 0
2, 302640, Note_on_c, 0, 63, 0
2, 302640, Note_on_c, 0, 63, 66
2, 302640, Note_on_c, 0, 59, 66
2, 302640, Note_on_c, 0, 56, 66
2, 303000, Note_on_c, 0, 56, 0
2, 303000, Note_on_c, 0, 59, 0
2, 303000, Note_on_c, 0, 63, 0
2, 303000, Note_on_c, 0, 56, 65
2, 303000, Note_on_c, 0, 63, 65
2, 303000, Note_on_c, 0, 59, 65
2, 303120, Note_on_c, 0, 59, 0
2, 303120, Note_on_c, 0, 63, 0
2, 303120, Note_on_c, 0, 56, 0
2, 303120, Note_on_c, 0, 63, 64
2, 303120, Note_on_c, 0, 59, 64
2, 303120, Note_on_c, 0, 56, 64
2, 303480, Note_on_c, 0, 56, 0
2, 303480, Note_on_c, 0, 59, 0
2, 303480, Note_on_c, 0, 63, 0
2, 303480, Note_on_c, 0, 56, 62
2, 303480, Note_on_c, 0, 63, 62
2, 303480, Note_on_c, 0, 59, 62
2, 303600, Note_on_c, 0, 59, 0
2, 303600, Note_on_c, 0, 63, 0
2, 303600, Note_on_c, 0, 56, 0
2, 303600, Note_on_c, 0, 63, 62
2, 303600, Note_on_c, 0, 55, 62
2, 303600, Note_on_c, 0, 58, 62
2, 303960, Note_on_c, 0, 58, 0
2, 303960, Note_on_c, 0, 55, 0
2, 303960, Note_on_c, 0, 63, 0
2, 303960, Note_on_c, 0, 63, 60
2, 303960, Note_on_c, 0, 56, 60
2, 303960, Note_on_c, 0, 59, 60
2, 304080, Note_on_c, 0, 59, 0
2, 304080, Note_on_c, 0, 56, 0
2, 304080, Note_on_c, 0, 63, 0
2, 304080, Note_on_c, 0, 58, 60
2, 304080, Note_on_c, 0, 61, 60
2, 304080, Note_on_c, 0, 63, 60
2, 305335, Note_on_c, 0, 58, 0
2, 305340, Note_on_c, 0, 61, 0
2, 305345, Note_on_c, 0, 63, 0
2, 305520, Note_on_c, 0, 63, 64
2, 305520, Note_on_c, 0, 55, 64
2, 305520, Note_on_c, 0, 58, 64
2, 305880, Note_on_c, 0, 58, 0
2, 305880, Note_on_c, 0, 55, 0
2, 305880, Note_on_c, 0, 63, 0
2, 305880, Note_on_c, 0, 55, 67
2, 305880, Note_on_c, 0, 63, 67
2, 305880, Note_on_c, 0, 58, 67
2, 306000, Note_on_c, 0, 58, 0
2, 306000, Note_on_c, 0, 63, 0
2, 306000, Note_on_c, 0, 55, 0
2, 306000, Note_on_c, 0, 63, 67
2, 306000, Note_on_c, 0, 56, 67
2, 306000, Note_on_c, 0, 59, 67
2, 306480, Note_on_c, 0, 59, 0
2, 306480, Note_on_c, 0, 56, 0
2, 306480, Note_on_c, 0, 63, 0
2, 306480, Note_on_c, 0, 63, 71
2, 306480, Note_on_c, 0, 56, 71
2, 306480, Note_on_c, 0, 59, 71
2, 306840, Note_on_c, 0, 59, 0
2, 306840, Note_on_c, 0, 56, 0
2, 306840, Note_on_c, 0, 63, 0
2, 306840, Note_on_c, 0, 63, 73
2, 306840, Note_on_c, 0, 56, 73
2, 306840, Note_on_c, 0, 59, 73
2, 306960, Note_on_c, 0, 59, 0
2, 306960, Note_on_c, 0, 56, 0
2, 306960, Note_on_c, 0, 63, 0
2, 306960, Note_on_c, 0, 58, 74
2, 306960, Note_on_c, 0, 63, 74
2, 306960, Note_on_c, 0, 61, 74
2, 307440, Note_on_c, 0, 61, 0
2, 307440, Note_on_c, 0, 63, 0
2, 307440, Note_on_c, 0, 58, 0
2, 307440, Note_on_c, 0, 63, 78
2, 307440, Note_on_c, 0, 56, 78
2, 307440, Note_on_c, 0, 59, 78
2, 307800, Note_on_c, 0, 59, 0
2, 307800, Note_on_c, 0, 56, 0
2, 307800, Note_on_c, 0, 63, 0
2, 307800, Note_on_c, 0, 63, 80
2, 307800, Note_on_c, 0, 56, 80
2, 307800, Note_on_c, 0, 59, 80
2, 307920, Note_on_c, 0, 59, 0
2, 307920, Note_on_c, 0, 56, 0
2, 307920, Note_on_c, 0, 63, 0
2, 307920, Note_on_c, 0, 63, 81
2, 307920, Note_on_c, 0, 58, 81
2, 307920, Note_on_c, 0, 55, 81
2, 308280, Note_on_c, 0, 55, 0
2, 308280, Note_on_c, 0, 58, 0
2, 308280, Note_on_c, 0, 63, 0
2, 308400, Note_on_c, 0, 63, 71
2, 308400, Note_on_c, 0, 58, 71
2, 308400, Note_on_c, 0, 55, 71
2, 308760, Note_on_c, 0, 55, 0
2, 308760, Note_on_c, 0, 58, 0
2, 308760, Note_on_c, 0, 63, 0
2, 308880, Note_on_c, 0, 63, 63
2, 308880, Note_on_c, 0, 58, 63
2, 308880, Note_on_c, 0, 55, 63
2, 309240, Note_on_c, 0, 55, 0
2, 309240, Note_on_c, 0, 58, 0
2, 309240, Note_on_c, 0, 63, 0
2, 309360, Note_on_c, 0, 63, 62
2, 309720, Note_on_c, 0, 63, 0
2, 309720, Note_on_c, 0, 63, 65
2, 309840, Note_on_c, 0, 63, 0
2, 309840, Note_on_c, 0, 59, 67
2, 309840, Note_on_c, 0, 56, 67
2, 309840, Note_on_c, 0, 63, 67
2, 310320, Note_on_c, 0, 63, 0
2, 310320, Note_on_c, 0, 56, 0
2, 310320, Note_on_c, 0, 59, 0
2, 310320, Note_on_c, 0, 56, 69
2, 310320, Note_on_c, 0, 59, 69
2, 310320, Note_on_c, 0, 63, 69
2, 310680, Note_on_c, 0, 63, 0
2, 310680, Note_on_c, 0, 59, 0
2, 310680, Note_on_c, 0, 56, 0
2, 310680, Note_on_c, 0, 59, 73
2, 310680, Note_on_c, 0, 63, 73
2, 310680, Note_on_c, 0, 56, 73
2, 310800, Note_on_c, 0, 56, 0
2, 310800, Note_on_c, 0, 63, 0
2, 310800, Note_on_c, 0, 59, 0
2, 310800, Note_on_c, 0, 56, 74
2, 310800, Note_on_c, 0, 59, 74
2, 310800, Note_on_c, 0, 63, 74
2, 311160, Note_on_c, 0, 63, 0
2, 311160, Note_on_c, 0, 59, 0
2, 311160, Note_on_c, 0, 56, 0
2, 311160, Note_on_c, 0, 59, 78
2, 311160, Note_on_c, 0, 63, 78
2, 311160, Note_on_c, 0, 56, 78
2, 311280, Note_on_c, 0, 56, 0
2, 311280, Note_on_c, 0, 63, 0
2, 311280, Note_on_c, 0, 59, 0
2, 311280, Note_on_c, 0, 58, 79
2, 311280, Note_on_c, 0, 63, 79
2, 311280, Note_on_c, 0, 54, 79
2, 311640, Note_on_c, 0, 54, 0
2, 311640, Note_on_c, 0, 63, 0
2, 311640, Note_on_c, 0, 58, 0
2, 311640, Note_on_c, 0, 53, 83
2, 311640, Note_on_c, 0, 63, 83
2, 311640, Note_on_c, 0, 56, 83
2, 311760, Note_on_c, 0, 56, 0
2, 311760, Note_on_c, 0, 63, 0
2, 311760, Note_on_c, 0, 53, 0
2, 311760, Note_on_c, 0, 54, 93
2, 311760, Note_on_c, 0, 58, 93
2, 311760, Note_on_c, 0, 63, 93
2, 313020, Note_on_c, 0, 63, 0
2, 313020, Note_on_c, 0, 58, 0
2, 313020, Note_on_c, 0, 54, 0
2, 313200, Note_on_c, 0, 63, 73
2, 313200, Note_on_c, 0, 59, 73
2, 313200, Note_on_c, 0, 54, 73
2, 313560, Note_on_c, 0, 54, 0
2, 313560, Note_on_c, 0, 59, 0
2, 313560, Note_on_c, 0, 63, 0
2, 313560, Note_on_c, 0, 54, 71
2, 313560, Note_on_c, 0, 63, 71
2, 313560, Note_on_c, 0, 59, 71
2, 313680, Note_on_c, 0, 59, 0
2, 313680, Note_on_c, 0, 63, 0
2, 313680, Note_on_c, 0, 54, 0
2, 313680, Note_on_c, 0, 56, 70
2, 313680, Note_on_c, 0, 63, 70
2, 313680, Note_on_c, 0, 59, 70
2, 314160, Note_on_c, 0, 59, 0
2, 314160, Note_on_c, 0, 63, 0
2, 314160, Note_on_c, 0, 56, 0
2, 314160, Note_on_c, 0, 61, 68
2, 314160, Note_on_c, 0, 56, 68
2, 314160, Note_on_c, 0, 59, 68
2, 314520, Note_on_c, 0, 59, 0
2, 314520, Note_on_c, 0, 56, 0
2, 314520, Note_on_c, 0, 61, 0
2, 314520, Note_on_c, 0, 61, 67
2, 314520, Note_on_c, 0, 59, 67
2, 314520, Note_on_c, 0, 56, 67
2, 314640, Note_on_c, 0, 56, 0
2, 314640, Note_on_c, 0, 59, 0
2, 314640, Note_on_c, 0, 61, 0
2, 314640, Note_on_c, 0, 54, 66
2, 314640, Note_on_c, 0, 61, 66
2, 314640, Note_on_c, 0, 59, 66
2, 315120, Note_on_c, 0, 59, 0
2, 315120, Note_on_c, 0, 61, 0
2, 315120, Note_on_c, 0, 54, 0
2, 315120, Note_on_c, 0, 54, 64
2, 315120, Note_on_c, 0, 52, 64
2, 315120, Note_on_c, 0, 61, 64
2, 315120, Note_on_c, 0, 58, 64
2, 315480, Note_on_c, 0, 58, 0
2, 315480, Note_on_c, 0, 54, 0
2, 315480, Note_on_c, 0, 52, 0
2, 315480, Note_on_c, 0, 61, 0
2, 315480, Note_on_c, 0, 52, 62
2, 315480, Note_on_c, 0, 54, 62
2, 315480, Note_on_c, 0, 61, 62
2, 315480, Note_on_c, 0, 58, 62
2, 315600, Note_on_c, 0, 58, 0
2, 315600, Note_on_c, 0, 52, 0
2, 315600, Note_on_c, 0, 54, 0
2, 315600, Note_on_c, 0, 61, 0
2, 315600, Note_on_c, 0, 51, 62
2, 315600, Note_on_c, 0, 54, 62
2, 315600, Note_on_c, 0, 59, 62
2, 315960, Note_on_c, 0, 59, 0
2, 315960, Note_on_c, 0, 54, 0
2, 315960, Note_on_c, 0, 51, 0
2, 316080, Note_on_c, 0, 51, 56
2, 316080, Note_on_c, 0, 54, 56
2, 316080, Note_on_c, 0, 59, 56
2, 316440, Note_on_c, 0, 59, 0
2, 316440, Note_on_c, 0, 54, 0
2, 316440, Note_on_c, 0, 51, 0
2, 316560, Note_on_c, 0, 51, 50
2, 316560, Note_on_c, 0, 54, 50
2, 316560, Note_on_c, 0, 59, 50
2, 316920, Note_on_c, 0, 59, 0
2, 316920, Note_on_c, 0, 54, 0
2, 316920, Note_on_c, 0, 51, 0
2, 317040, Note_on_c, 0, 66, 60
2, 317400, Note_on_c, 0, 66, 0
2, 317400, Note_on_c, 0, 66, 65
2, 317520, Note_on_c, 0, 66, 0
2, 317520, Note_on_c, 0, 66, 67
2, 317520, Note_on_c, 0, 62, 67
2, 317520, Note_on_c, 0, 59, 67
2, 318000, Note_on_c, 0, 59, 0
2, 318000, Note_on_c, 0, 62, 0
2, 318000, Note_on_c, 0, 66, 0
2, 318000, Note_on_c, 0, 66, 65
2, 318000, Note_on_c, 0, 62, 65
2, 318000, Note_on_c, 0, 59, 65
2, 318360, Note_on_c, 0, 59, 0
2, 318360, Note_on_c, 0, 62, 0
2, 318360, Note_on_c, 0, 66, 0
2, 318360, Note_on_c, 0, 66, 70
2, 318360, Note_on_c, 0, 62, 70
2, 318360, Note_on_c, 0, 59, 70
2, 318480, Note_on_c, 0, 59, 0
2, 318480, Note_on_c, 0, 62, 0
2, 318480, Note_on_c, 0, 66, 0
2, 318480, Note_on_c, 0, 66, 72
2, 318480, Note_on_c, 0, 62, 72
2, 318480, Note_on_c, 0, 59, 72
2, 318840, Note_on_c, 0, 59, 0
2, 318840, Note_on_c, 0, 62, 0
2, 318840, Note_on_c, 0, 66, 0
2, 318840, Note_on_c, 0, 66, 77
2, 318840, Note_on_c, 0, 62, 77
2, 318840, Note_on_c, 0, 59, 77
2, 318960, Note_on_c, 0, 59, 0
2, 318960, Note_on_c, 0, 62, 0
2, 318960, Note_on_c, 0, 66, 0
2, 318960, Note_on_c, 0, 66, 78
2, 318960, Note_on_c, 0, 58, 78
2, 318960, Note_on_c, 0, 61, 78
2, 319320, Note_on_c, 0, 61, 0
2, 319320, Note_on_c, 0, 58, 0
2, 319320, Note_on_c, 0, 66, 0
2, 319320, Note_on_c, 0, 66, 83
2, 319320, Note_on_c, 0, 62, 83
2, 319320, Note_on_c, 0, 59, 83
2, 319440, Note_on_c, 0, 59, 0
2, 319440, Note_on_c, 0, 62, 0
2, 319440, Note_on_c, 0, 66, 0
2, 319440, Note_on_c, 0, 61, 91
2, 319440, Note_on_c, 0, 64, 91
2, 319440, Note_on_c, 0, 66, 91
2, 320700, Note_on_c, 0, 66, 0
2, 320700, Note_on_c, 0, 64, 0
2, 320700, Note_on_c, 0, 61, 0
2, 320880, Note_on_c, 0, 66, 73
2, 320880, Note_on_c, 0, 58, 73
2, 320880, Note_on_c, 0, 61, 73
2, 321240, Note_on_c, 0, 61, 0
2, 321240, Note_on_c, 0, 58, 0
2, 321240, Note_on_c, 0, 66, 0
2, 321240, Note_on_c, 0, 66, 71
2, 321240, Note_on_c, 0, 61, 71
2, 321240, Note_on_c, 0, 58, 71
2, 321360, Note_on_c, 0, 58, 0
2, 321360, Note_on_c, 0, 61, 0
2, 321360, Note_on_c, 0, 66, 0
2, 321360, Note_on_c, 0, 66, 70
2, 321360, Note_on_c, 0, 62, 70
2, 321360, Note_on_c, 0, 59, 70
2, 321840, Note_on_c, 0, 59, 0
2, 321840, Note_on_c, 0, 62, 0
2, 321840, Note_on_c, 0, 66, 0
2, 321840, Note_on_c, 0, 62, 68
2, 321840, Note_on_c, 0, 66, 68
2, 321840, Note_on_c, 0, 59, 68
2, 322200, Note_on_c, 0, 59, 0
2, 322200, Note_on_c, 0, 66, 0
2, 322200, Note_on_c, 0, 62, 0
2, 322200, Note_on_c, 0, 62, 66
2, 322200, Note_on_c, 0, 66, 66
2, 322200, Note_on_c, 0, 59, 66
2, 322320, Note_on_c, 0, 59, 0
2, 322320, Note_on_c, 0, 66, 0
2, 322320, Note_on_c, 0, 62, 0
2, 322320, Note_on_c, 0, 64, 65
2, 322320, Note_on_c, 0, 66, 65
2, 322320, Note_on_c, 0, 61, 65
2, 322800, Note_on_c, 0, 61, 0
2, 322800, Note_on_c, 0, 66, 0
2, 322800, Note_on_c, 0, 64, 0
2, 322800, Note_on_c, 0, 66, 63
2, 322800, Note_on_c, 0, 62, 63
2, 322800, Note_on_c, 0, 59, 63
2, 323160, Note_on_c, 0, 59, 0
2, 323160, Note_on_c, 0, 62, 0
2, 323160, Note_on_c, 0, 66, 0
2, 323160, Note_on_c, 0, 66, 61
2, 323160, Note_on_c, 0, 62, 61
2, 323160, Note_on_c, 0, 59, 61
2, 323280, Note_on_c, 0, 59, 0
2, 323280, Note_on_c, 0, 62, 0
2, 323280, Note_on_c, 0, 66, 0
2, 323280, Note_on_c, 0, 58, 64
2, 323280, Note_on_c, 0, 66, 64
2, 323280, Note_on_c, 0, 61, 64
2, 323640, Note_on_c, 0, 61, 0
2, 323640, Note_on_c, 0, 66, 0
2, 323640, Note_on_c, 0, 58, 0
2, 323760, Note_on_c, 0, 66, 58
2, 323760, Note_on_c, 0, 58, 58
2, 323760, Note_on_c, 0, 61, 58
2, 324120, Note_on_c, 0, 61, 0
2, 324120, Note_on_c, 0, 58, 0
2, 324120, Note_on_c, 0, 66, 0
2, 324240, Note_on_c, 0, 66, 51
2, 324240, Note_on_c, 0, 58, 51
2, 324240, Note_on_c, 0, 61, 51
2, 324600, Note_on_c, 0, 61, 0
2, 324600, Note_on_c, 0, 58, 0
2, 324600, Note_on_c, 0, 66, 0
2, 324720, Note_on_c, 0, 66, 63
2, 325080, Note_on_c, 0, 66, 0
2, 325080, Note_on_c, 0, 66, 66
2, 325200, Note_on_c, 0, 66, 0
2, 325200, Note_on_c, 0, 66, 67
2, 325200, Note_on_c, 0, 59, 67
2, 325200, Note_on_c, 0, 62, 67
2, 325680, Note_on_c, 0, 62, 0
2, 325680, Note_on_c, 0, 59, 0
2, 325680, Note_on_c, 0, 66, 0
2, 325680, Note_on_c, 0, 66, 70
2, 325680, Note_on_c, 0, 62, 70
2, 325680, Note_on_c, 0, 59, 70
2, 326040, Note_on_c, 0, 59, 0
2, 326040, Note_on_c, 0, 62, 0
2, 326040, Note_on_c, 0, 66, 0
2, 326040, Note_on_c, 0, 66, 73
2, 326040, Note_on_c, 0, 62, 73
2, 326040, Note_on_c, 0, 59, 73
2, 326160, Note_on_c, 0, 59, 0
2, 326160, Note_on_c, 0, 62, 0
2, 326160, Note_on_c, 0, 66, 0
2, 326160, Note_on_c, 0, 66, 74
2, 326160, Note_on_c, 0, 62, 74
2, 326160, Note_on_c, 0, 59, 74
2, 326520, Note_on_c, 0, 59, 0
2, 326520, Note_on_c, 0, 62, 0
2, 326520, Note_on_c, 0, 66, 0
2, 326520, Note_on_c, 0, 59, 78
2, 326520, Note_on_c, 0, 66, 78
2, 326520, Note_on_c, 0, 62, 78
2, 326640, Note_on_c, 0, 62, 0
2, 326640, Note_on_c, 0, 66, 0
2, 326640, Note_on_c, 0, 59, 0
2, 326640, Note_on_c, 0, 64, 79
2, 326640, Note_on_c, 0, 61, 79
2, 326640, Note_on_c, 0, 59, 79
2, 326970, Note_on_c, 0, 59, 0
2, 327000, Note_on_c, 0, 61, 0
2, 327000, Note_on_c, 0, 64, 0
2, 327000, Note_on_c, 0, 66, 82
2, 327000, Note_on_c, 0, 62, 82
2, 327000, Note_on_c, 0, 59, 82
2, 327120, Note_on_c, 0, 59, 0
2, 327120, Note_on_c, 0, 62, 0
2, 327120, Note_on_c, 0, 66, 0
2, 327120, Note_on_c, 0, 59, 88
2, 327120, Note_on_c, 0, 64, 88
2, 327120, Note_on_c, 0, 67, 88
2, 328380, Note_on_c, 0, 67, 0
2, 328380, Note_on_c, 0, 64, 0
2, 328380, Note_on_c, 0, 59, 0
2, 328560, Note_on_c, 0, 59, 61
2, 328560, Note_on_c, 0, 64, 61
2, 328560, Note_on_c, 0, 67, 61
2, 328920, Note_on_c, 0, 67, 0
2, 328920, Note_on_c, 0, 64, 0
2, 328920, Note_on_c, 0, 59, 0
2, 328920, Note_on_c, 0, 59, 63
2, 328920, Note_on_c, 0, 64, 63
2, 328920, Note_on_c, 0, 67, 63
2, 329040, Note_on_c, 0, 67, 0
2, 329040, Note_on_c, 0, 64, 0
2, 329040, Note_on_c, 0, 59, 0
2, 329040, Note_on_c, 0, 66, 64
2, 329040, Note_on_c, 0, 57, 64
2, 329040, Note_on_c, 0, 62, 64
2, 329520, Note_on_c, 0, 62, 0
2, 329520, Note_on_c, 0, 57, 0
2, 329520, Note_on_c, 0, 66, 0
2, 329520, Note_on_c, 0, 66, 68
2, 329520, Note_on_c, 0, 57, 68
2, 329520, Note_on_c, 0, 62, 68
2, 329880, Note_on_c, 0, 62, 0
2, 329880, Note_on_c, 0, 57, 0
2, 329880, Note_on_c, 0, 66, 0
2, 329880, Note_on_c, 0, 57, 70
2, 329880, Note_on_c, 0, 66, 70
2, 329880, Note_on_c, 0, 62, 70
2, 330000, Note_on_c, 0, 62, 0
2, 330000, Note_on_c, 0, 66, 0
2, 330000, Note_on_c, 0, 57, 0
2, 330000, Note_on_c, 0, 57, 71
2, 330000, Note_on_c, 0, 64, 71
2, 330000, Note_on_c, 0, 61, 71
2, 330480, Note_on_c, 0, 61, 0
2, 330480, Note_on_c, 0, 64, 0
2, 330480, Note_on_c, 0, 57, 0
2, 330480, Note_on_c, 0, 61, 74
2, 330480, Note_on_c, 0, 64, 74
2, 330480, Note_on_c, 0, 69, 74
2, 330840, Note_on_c, 0, 69, 0
2, 330840, Note_on_c, 0, 64, 0
2, 330840, Note_on_c, 0, 61, 0
2, 330840, Note_on_c, 0, 64, 77
2, 330840, Note_on_c, 0, 61, 77
2, 330840, Note_on_c, 0, 69, 77
2, 330960, Note_on_c, 0, 69, 0
2, 330960, Note_on_c, 0, 61, 0
2, 330960, Note_on_c, 0, 64, 0
2, 330960, Note_on_c, 0, 62, 72
2, 331320, Note_on_c, 0, 62, 0
2, 331440, Note_on_c, 0, 62, 63
2, 331800, Note_on_c, 0, 62, 0
2, 331920, Note_on_c, 0, 62, 55
2, 332287, Note_on_c, 0, 62, 0
2, 332400, Note_on_c, 0, 71, 49
2, 332760, Note_on_c, 0, 71, 0
2, 332760, Note_on_c, 0, 71, 52
2, 332880, Note_on_c, 0, 71, 0
2, 332880, Note_on_c, 0, 71, 60
2, 333840, Note_on_c, 0, 71, 0
2, 333840, Note_on_c, 0, 70, 58
2, 334320, Note_on_c, 0, 70, 0
2, 334320, Note_on_c, 0, 68, 57
2, 334800, Note_on_c, 0, 68, 0
2, 334800, Note_on_c, 0, 67, 55
2, 335004, Note_on_c, 0, 67, 0
2, 335160, Note_on_c, 0, 71, 64
2, 335280, Note_on_c, 0, 71, 0
2, 335280, Note_on_c, 0, 71, 72
2, 336240, Note_on_c, 0, 71, 0
2, 336240, Note_on_c, 0, 70, 66
2, 336600, Note_on_c, 0, 70, 0
2, 336600, Note_on_c, 0, 68, 64
2, 336720, Note_on_c, 0, 68, 0
2, 336720, Note_on_c, 0, 67, 63
2, 336960, Note_on_c, 0, 67, 0
2, 337080, Note_on_c, 0, 71, 95
2, 337176, Note_on_c, 0, 71, 0
2, 337200, Note_on_c, 0, 71, 97
2, 337488, Note_on_c, 0, 71, 0
2, 337560, Note_on_c, 0, 71, 102
2, 337656, Note_on_c, 0, 71, 0
2, 337680, Note_on_c, 0, 71, 104
2, 337968, Note_on_c, 0, 71, 0
2, 338040, Note_on_c, 0, 71, 110
2, 338136, Note_on_c, 0, 71, 0
2, 338160, Note_on_c, 0, 70, 111
2, 338448, Note_on_c, 0, 70, 0
2, 338520, Note_on_c, 0, 68, 117
2, 338616, Note_on_c, 0, 68, 0
2, 338640, Note_on_c, 0, 67, 119
2, 338832, Note_on_c, 0, 67, 0
2, 339120, Note_on_c, 0, 64, 126
2, 340080, Note_on_c, 0, 64, 0
2, 340080, Note_on_c, 0, 63, 106
2, 340176, Note_on_c, 0, 63, 0
2, 340200, Note_on_c, 0, 61, 102
2, 340296, Note_on_c, 0, 61, 0
2, 340320, Note_on_c, 0, 59, 98
2, 340416, Note_on_c, 0, 59, 0
2, 340440, Note_on_c, 0, 58, 93
2, 340536, Note_on_c, 0, 58, 0
2, 340560, Note_on_c, 0, 56, 89
2, 341040, Note_on_c, 0, 56, 0
2, 341040, Note_on_c, 0, 56, 57
2, 341040, Note_on_c, 0, 59, 57
2, 341040, Note_on_c, 0, 63, 57
2, 341400, Note_on_c, 0, 63, 0
2, 341400, Note_on_c, 0, 59, 0
2, 341400, Note_on_c, 0, 56, 0
2, 341400, Note_on_c, 0, 59, 60
2, 341400, Note_on_c, 0, 63, 60
2, 341400, Note_on_c, 0, 56, 60
2, 341520, Note_on_c, 0, 56, 0
2, 341520, Note_on_c, 0, 63, 0
2, 341520, Note_on_c, 0, 59, 0
2, 341520, Note_on_c, 0, 56, 60
2, 341520, Note_on_c, 0, 59, 60
2, 341520, Note_on_c, 0, 63, 60
2, 341880, Note_on_c, 0, 63, 0
2, 341880, Note_on_c, 0, 59, 0
2, 341880, Note_on_c, 0, 56, 0
2, 341880, Note_on_c, 0, 59, 63
2, 341880, Note_on_c, 0, 63, 63
2, 341880, Note_on_c, 0, 56, 63
2, 342000, Note_on_c, 0, 56, 0
2, 342000, Note_on_c, 0, 63, 0
2, 342000, Note_on_c, 0, 59, 0
2, 342000, Note_on_c, 0, 58, 64
2, 342000, Note_on_c, 0, 55, 64
2, 342000, Note_on_c, 0, 63, 64
2, 342360, Note_on_c, 0, 63, 0
2, 342360, Note_on_c, 0, 55, 0
2, 342360, Note_on_c, 0, 58, 0
2, 342360, Note_on_c, 0, 59, 66
2, 342360, Note_on_c, 0, 56, 66
2, 342360, Note_on_c, 0, 63, 66
2, 342480, Note_on_c, 0, 63, 0
2, 342480, Note_on_c, 0, 56, 0
2, 342480, Note_on_c, 0, 59, 0
2, 342480, Note_on_c, 0, 63, 67
2, 342480, Note_on_c, 0, 61, 67
2, 342480, Note_on_c, 0, 58, 67
2, 343800, Note_on_c, 0, 58, 0
2, 343807, Note_on_c, 0, 61, 0
2, 343807, Note_on_c, 0, 63, 0
2, 343920, Note_on_c, 0, 58, 72
2, 343920, Note_on_c, 0, 55, 72
2, 343920, Note_on_c, 0, 63, 72
2, 344280, Note_on_c, 0, 63, 0
2, 344280, Note_on_c, 0, 55, 0
2, 344280, Note_on_c, 0, 58, 0
2, 344280, Note_on_c, 0, 58, 74
2, 344280, Note_on_c, 0, 63, 74
2, 344280, Note_on_c, 0, 55, 74
2, 344400, Note_on_c, 0, 55, 0
2, 344400, Note_on_c, 0, 63, 0
2, 344400, Note_on_c, 0, 58, 0
2, 344400, Note_on_c, 0, 59, 83
2, 344400, Note_on_c, 0, 56, 83
2, 344400, Note_on_c, 0, 63, 83
2, 344880, Note_on_c, 0, 63, 0
2, 344880, Note_on_c, 0, 56, 0
2, 344880, Note_on_c, 0, 59, 0
2, 344880, Note_on_c, 0, 59, 77
2, 344880, Note_on_c, 0, 56, 77
2, 344880, Note_on_c, 0, 63, 77
2, 345240, Note_on_c, 0, 63, 0
2, 345240, Note_on_c, 0, 56, 0
2, 345240, Note_on_c, 0, 59, 0
2, 345240, Note_on_c, 0, 59, 79
2, 345240, Note_on_c, 0, 56, 79
2, 345240, Note_on_c, 0, 63, 79
2, 345360, Note_on_c, 0, 63, 0
2, 345360, Note_on_c, 0, 56, 0
2, 345360, Note_on_c, 0, 59, 0
2, 345360, Note_on_c, 0, 61, 80
2, 345360, Note_on_c, 0, 63, 80
2, 345360, Note_on_c, 0, 58, 80
2, 345840, Note_on_c, 0, 58, 0
2, 345840, Note_on_c, 0, 63, 0
2, 345840, Note_on_c, 0, 61, 0
2, 345840, Note_on_c, 0, 59, 83
2, 345840, Note_on_c, 0, 56, 83
2, 345840, Note_on_c, 0, 63, 83
2, 346200, Note_on_c, 0, 63, 0
2, 346200, Note_on_c, 0, 56, 0
2, 346200, Note_on_c, 0, 59, 0
2, 346200, Note_on_c, 0, 59, 85
2, 346200, Note_on_c, 0, 56, 85
2, 346200, Note_on_c, 0, 63, 85
2, 346320, Note_on_c, 0, 63, 0
2, 346320, Note_on_c, 0, 56, 0
2, 346320, Note_on_c, 0, 59, 0
2, 346320, Note_on_c, 0, 55, 90
2, 346320, Note_on_c, 0, 58, 90
2, 346320, Note_on_c, 0, 63, 90
2, 346680, Note_on_c, 0, 63, 0
2, 346680, Note_on_c, 0, 58, 0
2, 346680, Note_on_c, 0, 55, 0
2, 346800, Note_on_c, 0, 55, 77
2, 346800, Note_on_c, 0, 58, 77
2, 346800, Note_on_c, 0, 63, 77
2, 347160, Note_on_c, 0, 63, 0
2, 347160, Note_on_c, 0, 58, 0
2, 347160, Note_on_c, 0, 55, 0
2, 347280, Note_on_c, 0, 55, 65
2, 347280, Note_on_c, 0, 58, 65
2, 347280, Note_on_c, 0, 63, 65
2, 347640, Note_on_c, 0, 63, 0
2, 347640, Note_on_c, 0, 58, 0
2, 347640, Note_on_c, 0, 55, 0
2, 347760, Note_on_c, 0, 63, 63
2, 348120, Note_on_c, 0, 63, 0
2, 348120, Note_on_c, 0, 63, 65
2, 348240, Note_on_c, 0, 63, 0
2, 348240, Note_on_c, 0, 63, 69
2, 348240, Note_on_c, 0, 56, 69
2, 348240, Note_on_c, 0, 60, 69
2, 348720, Note_on_c, 0, 60, 0
2, 348720, Note_on_c, 0, 56, 0
2, 348720, Note_on_c, 0, 63, 0
2, 348720, Note_on_c, 0, 63, 69
2, 348720, Note_on_c, 0, 56, 69
2, 348720, Note_on_c, 0, 60, 69
2, 349080, Note_on_c, 0, 60, 0
2, 349080, Note_on_c, 0, 56, 0
2, 349080, Note_on_c, 0, 63, 0
2, 349080, Note_on_c, 0, 56, 71
2, 349080, Note_on_c, 0, 63, 71
2, 349080, Note_on_c, 0, 60, 71
2, 349200, Note_on_c, 0, 60, 0
2, 349200, Note_on_c, 0, 63, 0
2, 349200, Note_on_c, 0, 56, 0
2, 349200, Note_on_c, 0, 63, 72
2, 349200, Note_on_c, 0, 56, 72
2, 349200, Note_on_c, 0, 60, 72
2, 349560, Note_on_c, 0, 60, 0
2, 349560, Note_on_c, 0, 56, 0
2, 349560, Note_on_c, 0, 63, 0
2, 349560, Note_on_c, 0, 56, 74
2, 349560, Note_on_c, 0, 63, 74
2, 349560, Note_on_c, 0, 60, 74
2, 349680, Note_on_c, 0, 60, 0
2, 349680, Note_on_c, 0, 63, 0
2, 349680, Note_on_c, 0, 56, 0
2, 349680, Note_on_c, 0, 63, 75
2, 349680, Note_on_c, 0, 58, 75
2, 349680, Note_on_c, 0, 56, 75
2, 350040, Note_on_c, 0, 56, 0
2, 350040, Note_on_c, 0, 58, 0
2, 350040, Note_on_c, 0, 63, 0
2, 350040, Note_on_c, 0, 63, 77
2, 350040, Note_on_c, 0, 60, 77
2, 350040, Note_on_c, 0, 56, 77
2, 350160, Note_on_c, 0, 56, 0
2, 350160, Note_on_c, 0, 60, 0
2, 350160, Note_on_c, 0, 63, 0
2, 350160, Note_on_c, 0, 56, 83
2, 350160, Note_on_c, 0, 61, 83
2, 350160, Note_on_c, 0, 64, 83
2, 351600, Note_on_c, 0, 64, 0
2, 351600, Note_on_c, 0, 61, 0
2, 351600, Note_on_c, 0, 56, 0
2, 351600, Note_on_c, 0, 61, 95
2, 351600, Note_on_c, 0, 64, 95
2, 351600, Note_on_c, 0, 56, 95
2, 351960, Note_on_c, 0, 56, 0
2, 351960, Note_on_c, 0, 64, 0
2, 351960, Note_on_c, 0, 61, 0
2, 352080, Note_on_c, 0, 69, 103
2, 352080, Note_on_c, 0, 73, 103
2, 352080, Note_on_c, 0, 64, 103
2, 353520, Note_on_c, 0, 64, 0
2, 353520, Note_on_c, 0, 73, 0
2, 353520, Note_on_c, 0, 69, 0
2, 353520, Note_on_c, 0, 73, 107
2, 353520, Note_on_c, 0, 64, 107
2, 353520, Note_on_c, 0, 69, 107
2, 353880, Note_on_c, 0, 69, 0
2, 353880, Note_on_c, 0, 64, 0
2, 353880, Note_on_c, 0, 73, 0
2, 354000, Note_on_c, 0, 73, 116
2, 354000, Note_on_c, 0, 82, 116
2, 354000, Note_on_c, 0, 75, 116
2, 355440, Note_on_c, 0, 75, 0
2, 355440, Note_on_c, 0, 82, 0
2, 355440, Note_on_c, 0, 73, 0
2, 355440, Note_on_c, 0, 73, 119
2, 355440, Note_on_c, 0, 75, 119
2, 355440, Note_on_c, 0, 82, 119
2, 355800, Note_on_c, 0, 82, 0
2, 355800, Note_on_c, 0, 75, 0
2, 355800, Note_on_c, 0, 73, 0
2, 355920, Note_on_c, 0, 75, 122
2, 355920, Note_on_c, 0, 83, 122
2, 356160, Note_on_c, 0, 83, 0
2, 356160, Note_on_c, 0, 75, 0
2, 356880, Note_on_c, 0, 73, 123
2, 356880, Note_on_c, 0, 82, 123
2, 356880, Note_on_c, 0, 76, 123
2, 357120, Note_on_c, 0, 76, 0
2, 357120, Note_on_c, 0, 82, 0
2, 357120, Note_on_c, 0, 73, 0
2, 357360, Note_on_c, 0, 70, 123
2, 357360, Note_on_c, 0, 73, 123
2, 357360, Note_on_c, 0, 79, 123
2, 357600, Note_on_c, 0, 79, 0
2, 357600, Note_on_c, 0, 73, 0
2, 357600, Note_on_c, 0, 70, 0
2, 357840, Note_on_c, 0, 80, 123
2, 357840, Note_on_c, 0, 71, 123
2, 358080, Note_on_c, 0, 71, 0
2, 358080, Note_on_c, 0, 80, 0
2, 358320, Note_on_c, 0, 56, 123
2, 358560, Note_on_c, 0, 56, 0
2, 358800, Note_on_c, 0, 44, 127
2, 359088, Note_on_c, 0, 44, 0
2, 359760, Control_c, 0, 64, 127
2, 359760, Control_c, 0, 64, 127
2, 359760, Note_on_c, 0, 60, 51
2, 359820, Note_on_c, 0, 60, 0
2, 359820, Note_on_c, 0, 51, 53
2, 359880, Note_on_c, 0, 51, 0
2, 359880, Note_on_c, 0, 60, 54
2, 359940, Note_on_c, 0, 60, 0
2, 359940, Note_on_c, 0, 51, 56
2, 360000, Note_on_c, 0, 51, 0
2, 360000, Note_on_c, 0, 60, 58
2, 360060, Note_on_c, 0, 60, 0
2, 360060, Note_on_c, 0, 51, 60
2, 360120, Note_on_c, 0, 51, 0
2, 360120, Note_on_c, 0, 60, 61
2, 360180, Note_on_c, 0, 60, 0
2, 360180, Note_on_c, 0, 51, 63
2, 360240, Note_on_c, 0, 51, 0
2, 360240, Note_on_c, 0, 60, 65
2, 360300, Note_on_c, 0, 60, 0
2, 360300, Note_on_c, 0, 51, 67
2, 360360, Note_on_c, 0, 51, 0
2, 360360, Note_on_c, 0, 60, 68
2, 360420, Note_on_c, 0, 60, 0
2, 360420, Note_on_c, 0, 51, 70
2, 360480, Note_on_c, 0, 51, 0
2, 360480, Note_on_c, 0, 60, 72
2, 360540, Note_on_c, 0, 60, 0
2, 360540, Note_on_c, 0, 51, 74
2, 360600, Note_on_c, 0, 51, 0
2, 360600, Note_on_c, 0, 60, 75
2, 360660, Note_on_c, 0, 60, 0
2, 360660, Note_on_c, 0, 51, 77
2, 360720, Note_on_c, 0, 51, 0
2, 360720, Note_on_c, 0, 48, 85
2, 360720, Note_on_c, 0, 56, 85
2, 360780, Note_on_c, 0, 56, 0
2, 360780, Note_on_c, 0, 48, 0
2, 361080, Note_on_c, 0, 72, 96
2, 361080, Note_on_c, 0, 68, 96
2, 361140, Note_on_c, 0, 68, 0
2, 361140, Note_on_c, 0, 72, 0
2, 361200, Note_on_c, 0, 72, 99
2, 361200, Note_on_c, 0, 75, 99
2, 361320, Note_on_c, 0, 75, 0
2, 361320, Note_on_c, 0, 72, 0
2, 361440, Control_c, 0, 64, 0
2, 361440, Control_c, 0, 64, 0
2, 361680, Control_c, 0, 64, 127
2, 361680, Control_c, 0, 64, 127
2, 361680, Note_on_c, 0, 60, 54
2, 361740, Note_on_c, 0, 60, 0
2, 361740, Note_on_c, 0, 51, 56
2, 361800, Note_on_c, 0, 51, 0
2, 361800, Note_on_c, 0, 60, 57
2, 361860, Note_on_c, 0, 60, 0
2, 361860, Note_on_c, 0, 51, 59
2, 361920, Note_on_c, 0, 51, 0
2, 361920, Note_on_c, 0, 60, 61
2, 361980, Note_on_c, 0, 60, 0
2, 361980, Note_on_c, 0, 51, 62
2, 362040, Note_on_c, 0, 51, 0
2, 362040, Note_on_c, 0, 60, 64
2, 362100, Note_on_c, 0, 60, 0
2, 362100, Note_on_c, 0, 51, 65
2, 362160, Note_on_c, 0, 51, 0
2, 362160, Note_on_c, 0, 60, 67
2, 362220, Note_on_c, 0, 60, 0
2, 362220, Note_on_c, 0, 51, 69
2, 362280, Note_on_c, 0, 51, 0
2, 362280, Note_on_c, 0, 60, 70
2, 362340, Note_on_c, 0, 60, 0
2, 362340, Note_on_c, 0, 51, 72
2, 362400, Note_on_c, 0, 51, 0
2, 362400, Note_on_c, 0, 60, 74
2, 362460, Note_on_c, 0, 60, 0
2, 362460, Note_on_c, 0, 51, 75
2, 362520, Note_on_c, 0, 51, 0
2, 362520, Note_on_c, 0, 60, 77
2, 362580, Note_on_c, 0, 60, 0
2, 362580, Note_on_c, 0, 51, 78
2, 362640, Note_on_c, 0, 51, 0
2, 362640, Note_on_c, 0, 48, 85
2, 362640, Note_on_c, 0, 56, 85
2, 362700, Note_on_c, 0, 56, 0
2, 362700, Note_on_c, 0, 48, 0
2, 363000, Note_on_c, 0, 72, 103
2, 363000, Note_on_c, 0, 68, 103
2, 363060, Note_on_c, 0, 68, 0
2, 363060, Note_on_c, 0, 72, 0
2, 363120, Note_on_c, 0, 72, 105
2, 363120, Note_on_c, 0, 75, 105
2, 363240, Note_on_c, 0, 75, 0
2, 363240, Note_on_c, 0, 72, 0
2, 363360, Control_c, 0, 64, 0
2, 363360, Control_c, 0, 64, 0
2, 363600, Control_c, 0, 64, 127
2, 363600, Note_on_c, 0, 58, 110
2, 363720, Note_on_c, 0, 58, 0
2, 363960, Note_on_c, 0, 79, 108
2, 363960, Note_on_c, 0, 75, 108
2, 364020, Note_on_c, 0, 75, 0
2, 364020, Note_on_c, 0, 79, 0
2, 364080, Note_on_c, 0, 82, 107
2, 364200, Note_on_c, 0, 82, 0
2, 364320, Control_c, 0, 64, 0
2, 364560, Control_c, 0, 64, 127
2, 364560, Note_on_c, 0, 58, 105
2, 364680, Note_on_c, 0, 58, 0
2, 364920, Note_on_c, 0, 77, 104
2, 364920, Note_on_c, 0, 74, 104
2, 364980, Note_on_c, 0, 74, 0
2, 364980, Note_on_c, 0, 77, 0
2, 365040, Note_on_c, 0, 82, 104
2, 365160, Note_on_c, 0, 82, 0
2, 365280, Control_c, 0, 64, 0
2, 365400, Note_on_c, 0, 70, 102
2, 365460, Note_on_c, 0, 70, 0
2, 365520, Control_c, 0, 64, 127
2, 365520, Note_on_c, 0, 75, 102
2, 365640, Note_on_c, 0, 75, 0
2, 365760, Control_c, 0, 64, 0
2, 365880, Note_on_c, 0, 58, 101
2, 365940, Note_on_c, 0, 58, 0
2, 366000, Control_c, 0, 64, 127
2, 366000, Note_on_c, 0, 63, 100
2, 366120, Note_on_c, 0, 63, 0
2, 366240, Control_c, 0, 64, 0
2, 366360, Note_on_c, 0, 46, 99
2, 366420, Note_on_c, 0, 46, 0
2, 366480, Note_on_c, 0, 51, 99
2, 366600, Note_on_c, 0, 51, 0
2, 366720, Control_c, 0, 64, 0
2, 367440, Control_c, 0, 64, 127
2, 367440, Control_c, 0, 64, 127
2, 367440, Note_on_c, 0, 60, 52
2, 367500, Note_on_c, 0, 60, 0
2, 367500, Note_on_c, 0, 51, 54
2, 367560, Note_on_c, 0, 51, 0
2, 367560, Note_on_c, 0, 60, 55
2, 367620, Note_on_c, 0, 60, 0
2, 367620, Note_on_c, 0, 51, 57
2, 367680, Note_on_c, 0, 51, 0
2, 367680, Note_on_c, 0, 60, 59
2, 367740, Note_on_c, 0, 60, 0
2, 367740, Note_on_c, 0, 51, 61
2, 367800, Note_on_c, 0, 51, 0
2, 367800, Note_on_c, 0, 60, 62
2, 367860, Note_on_c, 0, 60, 0
2, 367860, Note_on_c, 0, 51, 64
2, 367920, Note_on_c, 0, 51, 0
2, 367920, Note_on_c, 0, 60, 66
2, 367980, Note_on_c, 0, 60, 0
2, 367980, Note_on_c, 0, 51, 68
2, 368040, Note_on_c, 0, 51, 0
2, 368040, Note_on_c, 0, 60, 69
2, 368100, Note_on_c, 0, 60, 0
2, 368100, Note_on_c, 0, 51, 71
2, 368160, Note_on_c, 0, 51, 0
2, 368160, Note_on_c, 0, 60, 73
2, 368220, Note_on_c, 0, 60, 0
2, 368220, Note_on_c, 0, 51, 74
2, 368280, Note_on_c, 0, 51, 0
2, 368280, Note_on_c, 0, 60, 76
2, 368340, Note_on_c, 0, 60, 0
2, 368340, Note_on_c, 0, 51, 78
2, 368400, Note_on_c, 0, 51, 0
2, 368400, Note_on_c, 0, 56, 86
2, 368400, Note_on_c, 0, 48, 86
2, 368460, Note_on_c, 0, 48, 0
2, 368460, Note_on_c, 0, 56, 0
2, 368760, Note_on_c, 0, 68, 95
2, 368760, Note_on_c, 0, 72, 95
2, 368820, Note_on_c, 0, 72, 0
2, 368820, Note_on_c, 0, 68, 0
2, 368880, Note_on_c, 0, 75, 98
2, 368880, Note_on_c, 0, 72, 98
2, 369000, Note_on_c, 0, 72, 0
2, 369000, Note_on_c, 0, 75, 0
2, 369120, Control_c, 0, 64, 0
2, 369120, Control_c, 0, 64, 0
2, 369360, Control_c, 0, 64, 127
2, 369360, Control_c, 0, 64, 127
2, 369360, Note_on_c, 0, 60, 56
2, 369420, Note_on_c, 0, 60, 0
2, 369420, Note_on_c, 0, 51, 58
2, 369480, Note_on_c, 0, 51, 0
2, 369480, Note_on_c, 0, 60, 59
2, 369540, Note_on_c, 0, 60, 0
2, 369540, Note_on_c, 0, 51, 60
2, 369600, Note_on_c, 0, 51, 0
2, 369600, Note_on_c, 0, 60, 62
2, 369660, Note_on_c, 0, 60, 0
2, 369660, Note_on_c, 0, 51, 63
2, 369720, Note_on_c, 0, 51, 0
2, 369720, Note_on_c, 0, 60, 65
2, 369780, Note_on_c, 0, 60, 0
2, 369780, Note_on_c, 0, 51, 66
2, 369840, Note_on_c, 0, 51, 0
2, 369840, Note_on_c, 0, 60, 67
2, 369900, Note_on_c, 0, 60, 0
2, 369900, Note_on_c, 0, 51, 69
2, 369960, Note_on_c, 0, 51, 0
2, 369960, Note_on_c, 0, 60, 70
2, 370020, Note_on_c, 0, 60, 0
2, 370020, Note_on_c, 0, 51, 72
2, 370080, Note_on_c, 0, 51, 0
2, 370080, Note_on_c, 0, 60, 73
2, 370140, Note_on_c, 0, 60, 0
2, 370140, Note_on_c, 0, 51, 74
2, 370200, Note_on_c, 0, 51, 0
2, 370200, Note_on_c, 0, 60, 76
2, 370260, Note_on_c, 0, 60, 0
2, 370260, Note_on_c, 0, 51, 77
2, 370320, Note_on_c, 0, 51, 0
2, 370320, Note_on_c, 0, 56, 85
2, 370320, Note_on_c, 0, 48, 85
2, 370380, Note_on_c, 0, 48, 0
2, 370380, Note_on_c, 0, 56, 0
2, 370680, Note_on_c, 0, 68, 101
2, 370680, Note_on_c, 0, 72, 101
2, 370740, Note_on_c, 0, 72, 0
2, 370740, Note_on_c, 0, 68, 0
2, 370800, Note_on_c, 0, 75, 103
2, 370800, Note_on_c, 0, 72, 103
2, 370920, Note_on_c, 0, 72, 0
2, 370920, Note_on_c, 0, 75, 0
2, 371040, Control_c, 0, 64, 0
2, 371040, Control_c, 0, 64, 0
2, 371280, Control_c, 0, 64, 127
2, 371280, Note_on_c, 0, 58, 108
2, 371400, Note_on_c, 0, 58, 0
2, 371640, Note_on_c, 0, 75, 107
2, 371640, Note_on_c, 0, 79, 107
2, 371700, Note_on_c, 0, 79, 0
2, 371700, Note_on_c, 0, 75, 0
2, 371760, Note_on_c, 0, 82, 107
2, 371880, Note_on_c, 0, 82, 0
2, 372000, Control_c, 0, 64, 0
2, 372240, Control_c, 0, 64, 127
2, 372240, Note_on_c, 0, 58, 105
2, 372360, Note_on_c, 0, 58, 0
2, 372600, Note_on_c, 0, 74, 104
2, 372600, Note_on_c, 0, 77, 104
2, 372660, Note_on_c, 0, 77, 0
2, 372660, Note_on_c, 0, 74, 0
2, 372720, Note_on_c, 0, 82, 103
2, 372840, Note_on_c, 0, 82, 0
2, 372960, Control_c, 0, 64, 0
2, 373080, Note_on_c, 0, 70, 102
2, 373140, Note_on_c, 0, 70, 0
2, 373200, Control_c, 0, 64, 127
2, 373200, Note_on_c, 0, 75, 102
2, 373320, Note_on_c, 0, 75, 0
2, 373440, Control_c, 0, 64, 0
2, 373560, Note_on_c, 0, 58, 100
2, 373620, Note_on_c, 0, 58, 0
2, 373680, Control_c, 0, 64, 127
2, 373680, Note_on_c, 0, 63, 100
2, 373800, Note_on_c, 0, 63, 0
2, 373920, Control_c, 0, 64, 0
2, 374040, Note_on_c, 0, 46, 99
2, 374100, Note_on_c, 0, 46, 0
2, 374160, Note_on_c, 0, 51, 98
2, 374280, Note_on_c, 0, 51, 0
2, 374400, Control_c, 0, 64, 0
2, 375120, Control_c, 0, 64, 127
2, 375120, Control_c, 0, 64, 127
2, 375120, Note_on_c, 0, 61, 58
2, 375180, Note_on_c, 0, 61, 0
2, 375180, Note_on_c, 0, 58, 60
2, 375240, Note_on_c, 0, 58, 0
2, 375240, Note_on_c, 0, 61, 61
2, 375300, Note_on_c, 0, 61, 0
2, 375300, Note_on_c, 0, 58, 62
2, 375360, Note_on_c, 0, 58, 0
2, 375360, Note_on_c, 0, 61, 64
2, 375420, Note_on_c, 0, 61, 0
2, 375420, Note_on_c, 0, 58, 65
2, 375480, Note_on_c, 0, 58, 0
2, 375480, Note_on_c, 0, 61, 67
2, 375540, Note_on_c, 0, 61, 0
2, 375540, Note_on_c, 0, 58, 68
2, 375600, Note_on_c, 0, 58, 0
2, 375600, Note_on_c, 0, 61, 70
2, 375660, Note_on_c, 0, 61, 0
2, 375660, Note_on_c, 0, 58, 71
2, 375720, Note_on_c, 0, 58, 0
2, 375720, Note_on_c, 0, 61, 73
2, 375780, Note_on_c, 0, 61, 0
2, 375780, Note_on_c, 0, 58, 74
2, 375840, Note_on_c, 0, 58, 0
2, 375840, Note_on_c, 0, 61, 76
2, 375900, Note_on_c, 0, 61, 0
2, 375900, Note_on_c, 0, 58, 77
2, 375960, Note_on_c, 0, 58, 0
2, 375960, Note_on_c, 0, 61, 79
2, 376020, Note_on_c, 0, 61, 0
2, 376020, Note_on_c, 0, 58, 80
2, 376080, Note_on_c, 0, 58, 0
2, 376080, Note_on_c, 0, 55, 89
2, 376080, Note_on_c, 0, 58, 89
2, 376140, Note_on_c, 0, 58, 0
2, 376140, Note_on_c, 0, 55, 0
2, 376440, Note_on_c, 0, 67, 96
2, 376440, Note_on_c, 0, 70, 96
2, 376500, Note_on_c, 0, 70, 0
2, 376500, Note_on_c, 0, 67, 0
2, 376560, Note_on_c, 0, 73, 99
2, 376560, Note_on_c, 0, 70, 99
2, 376680, Note_on_c, 0, 70, 0
2, 376680, Note_on_c, 0, 73, 0
2, 376800, Control_c, 0, 64, 0
2, 376800, Control_c, 0, 64, 0
2, 377040, Control_c, 0, 64, 127
2, 377040, Control_c, 0, 64, 127
2, 377040, Note_on_c, 0, 61, 56
2, 377100, Note_on_c, 0, 61, 0
2, 377100, Note_on_c, 0, 58, 57
2, 377160, Note_on_c, 0, 58, 0
2, 377160, Note_on_c, 0, 61, 59
2, 377220, Note_on_c, 0, 61, 0
2, 377220, Note_on_c, 0, 58, 60
2, 377280, Note_on_c, 0, 58, 0
2, 377280, Note_on_c, 0, 61, 62
2, 377340, Note_on_c, 0, 61, 0
2, 377340, Note_on_c, 0, 58, 63
2, 377400, Note_on_c, 0, 58, 0
2, 377400, Note_on_c, 0, 61, 65
2, 377460, Note_on_c, 0, 61, 0
2, 377460, Note_on_c, 0, 58, 66
2, 377520, Note_on_c, 0, 58, 0
2, 377520, Note_on_c, 0, 61, 67
2, 377580, Note_on_c, 0, 61, 0
2, 377580, Note_on_c, 0, 58, 69
2, 377640, Note_on_c, 0, 58, 0
2, 377640, Note_on_c, 0, 61, 70
2, 377700, Note_on_c, 0, 61, 0
2, 377700, Note_on_c, 0, 58, 72
2, 377760, Note_on_c, 0, 58, 0
2, 377760, Note_on_c, 0, 61, 73
2, 377820, Note_on_c, 0, 61, 0
2, 377820, Note_on_c, 0, 58, 75
2, 377880, Note_on_c, 0, 58, 0
2, 377880, Note_on_c, 0, 61, 76
2, 377940, Note_on_c, 0, 61, 0
2, 377940, Note_on_c, 0, 58, 78
2, 378000, Note_on_c, 0, 58, 0
2, 378000, Note_on_c, 0, 58, 88
2, 378000, Note_on_c, 0, 55, 88
2, 378060, Note_on_c, 0, 55, 0
2, 378060, Note_on_c, 0, 58, 0
2, 378360, Note_on_c, 0, 82, 101
2, 378360, Note_on_c, 0, 79, 101
2, 378420, Note_on_c, 0, 79, 0
2, 378420, Note_on_c, 0, 82, 0
2, 378480, Note_on_c, 0, 82, 104
2, 378480, Note_on_c, 0, 85, 104
2, 378600, Note_on_c, 0, 85, 0
2, 378600, Note_on_c, 0, 82, 0
2, 378720, Control_c, 0, 64, 0
2, 378720, Control_c, 0, 64, 0
2, 378960, Control_c, 0, 64, 127
2, 378960, Note_on_c, 0, 68, 106
2, 379080, Note_on_c, 0, 68, 0
2, 379320, Note_on_c, 0, 84, 105
2, 379320, Note_on_c, 0, 80, 105
2, 379380, Note_on_c, 0, 80, 0
2, 379380, Note_on_c, 0, 84, 0
2, 379440, Note_on_c, 0, 87, 105
2, 379560, Note_on_c, 0, 87, 0
2, 379680, Control_c, 0, 64, 0
2, 379920, Control_c, 0, 64, 127
2, 379920, Note_on_c, 0, 63, 103
2, 380040, Note_on_c, 0, 63, 0
2, 380280, Note_on_c, 0, 82, 102
2, 380280, Note_on_c, 0, 79, 102
2, 380340, Note_on_c, 0, 79, 0
2, 380340, Note_on_c, 0, 82, 0
2, 380400, Note_on_c, 0, 87, 102
2, 380520, Note_on_c, 0, 87, 0
2, 380640, Control_c, 0, 64, 0
2, 380760, Note_on_c, 0, 75, 101
2, 380820, Note_on_c, 0, 75, 0
2, 380880, Control_c, 0, 64, 127
2, 380880, Note_on_c, 0, 80, 100
2, 381000, Note_on_c, 0, 80, 0
2, 381120, Control_c, 0, 64, 0
2, 381240, Note_on_c, 0, 63, 99
2, 381300, Note_on_c, 0, 63, 0
2, 381360, Control_c, 0, 64, 127
2, 381360, Note_on_c, 0, 68, 99
2, 381480, Note_on_c, 0, 68, 0
2, 381600, Control_c, 0, 64, 0
2, 381720, Note_on_c, 0, 51, 98
2, 381780, Note_on_c, 0, 51, 0
2, 381840, Note_on_c, 0, 56, 97
2, 381960, Note_on_c, 0, 56, 0
2, 382080, Control_c, 0, 64, 0
2, 382800, Control_c, 0, 64, 127
2, 382800, Control_c, 0, 64, 127
2, 382800, Note_on_c, 0, 61, 53
2, 382860, Note_on_c, 0, 61, 0
2, 382860, Note_on_c, 0, 58, 55
2, 382920, Note_on_c, 0, 58, 0
2, 382920, Note_on_c, 0, 61, 56
2, 382980, Note_on_c, 0, 61, 0
2, 382980, Note_on_c, 0, 58, 58
2, 383040, Note_on_c, 0, 58, 0
2, 383040, Note_on_c, 0, 61, 59
2, 383100, Note_on_c, 0, 61, 0
2, 383100, Note_on_c, 0, 58, 61
2, 383160, Note_on_c, 0, 58, 0
2, 383160, Note_on_c, 0, 61, 63
2, 383220, Note_on_c, 0, 61, 0
2, 383220, Note_on_c, 0, 58, 64
2, 383280, Note_on_c, 0, 58, 0
2, 383280, Note_on_c, 0, 61, 66
2, 383340, Note_on_c, 0, 61, 0
2, 383340, Note_on_c, 0, 58, 67
2, 383400, Note_on_c, 0, 58, 0
2, 383400, Note_on_c, 0, 61, 69
2, 383460, Note_on_c, 0, 61, 0
2, 383460, Note_on_c, 0, 58, 71
2, 383520, Note_on_c, 0, 58, 0
2, 383520, Note_on_c, 0, 61, 72
2, 383580, Note_on_c, 0, 61, 0
2, 383580, Note_on_c, 0, 58, 74
2, 383640, Note_on_c, 0, 58, 0
2, 383640, Note_on_c, 0, 61, 75
2, 383700, Note_on_c, 0, 61, 0
2, 383700, Note_on_c, 0, 58, 77
2, 383760, Note_on_c, 0, 58, 0
2, 383760, Note_on_c, 0, 58, 85
2, 383760, Note_on_c, 0, 55, 85
2, 383820, Note_on_c, 0, 55, 0
2, 383820, Note_on_c, 0, 58, 0
2, 384120, Note_on_c, 0, 70, 98
2, 384120, Note_on_c, 0, 67, 98
2, 384180, Note_on_c, 0, 67, 0
2, 384180, Note_on_c, 0, 70, 0
2, 384240, Note_on_c, 0, 70, 101
2, 384240, Note_on_c, 0, 73, 101
2, 384360, Note_on_c, 0, 73, 0
2, 384360, Note_on_c, 0, 70, 0
2, 384480, Control_c, 0, 64, 0
2, 384480, Control_c, 0, 64, 0
2, 384720, Control_c, 0, 64, 127
2, 384720, Control_c, 0, 64, 127
2, 384720, Note_on_c, 0, 61, 54
2, 384780, Note_on_c, 0, 61, 0
2, 384780, Note_on_c, 0, 58, 56
2, 384840, Note_on_c, 0, 58, 0
2, 384840, Note_on_c, 0, 61, 58
2, 384900, Note_on_c, 0, 61, 0
2, 384900, Note_on_c, 0, 58, 59
2, 384960, Note_on_c, 0, 58, 0
2, 384960, Note_on_c, 0, 61, 61
2, 385020, Note_on_c, 0, 61, 0
2, 385020, Note_on_c, 0, 58, 62
2, 385080, Note_on_c, 0, 58, 0
2, 385080, Note_on_c, 0, 61, 64
2, 385140, Note_on_c, 0, 61, 0
2, 385140, Note_on_c, 0, 58, 65
2, 385200, Note_on_c, 0, 58, 0
2, 385200, Note_on_c, 0, 61, 67
2, 385260, Note_on_c, 0, 61, 0
2, 385260, Note_on_c, 0, 58, 69
2, 385320, Note_on_c, 0, 58, 0
2, 385320, Note_on_c, 0, 61, 70
2, 385380, Note_on_c, 0, 61, 0
2, 385380, Note_on_c, 0, 58, 72
2, 385440, Note_on_c, 0, 58, 0
2, 385440, Note_on_c, 0, 61, 73
2, 385500, Note_on_c, 0, 61, 0
2, 385500, Note_on_c, 0, 58, 75
2, 385560, Note_on_c, 0, 58, 0
2, 385560, Note_on_c, 0, 61, 76
2, 385620, Note_on_c, 0, 61, 0
2, 385620, Note_on_c, 0, 58, 78
2, 385680, Note_on_c, 0, 58, 0
2, 385680, Note_on_c, 0, 55, 86
2, 385680, Note_on_c, 0, 58, 86
2, 385740, Note_on_c, 0, 58, 0
2, 385740, Note_on_c, 0, 55, 0
2, 386040, Note_on_c, 0, 79, 104
2, 386040, Note_on_c, 0, 82, 104
2, 386100, Note_on_c, 0, 82, 0
2, 386100, Note_on_c, 0, 79, 0
2, 386160, Note_on_c, 0, 85, 108
2, 386160, Note_on_c, 0, 82, 108
2, 386280, Note_on_c, 0, 82, 0
2, 386280, Note_on_c, 0, 85, 0
2, 386400, Control_c, 0, 64, 0
2, 386400, Control_c, 0, 64, 0
2, 386640, Control_c, 0, 64, 127
2, 386640, Note_on_c, 0, 68, 108
2, 386760, Note_on_c, 0, 68, 0
2, 387000, Note_on_c, 0, 80, 107
2, 387000, Note_on_c, 0, 84, 107
2, 387060, Note_on_c, 0, 84, 0
2, 387060, Note_on_c, 0, 80, 0
2, 387120, Note_on_c, 0, 87, 107
2, 387240, Note_on_c, 0, 87, 0
2, 387360, Control_c, 0, 64, 0
2, 387600, Control_c, 0, 64, 127
2, 387600, Note_on_c, 0, 63, 105
2, 387720, Note_on_c, 0, 63, 0
2, 387960, Note_on_c, 0, 79, 104
2, 387960, Note_on_c, 0, 82, 104
2, 388020, Note_on_c, 0, 82, 0
2, 388020, Note_on_c, 0, 79, 0
2, 388080, Note_on_c, 0, 87, 104
2, 388200, Note_on_c, 0, 87, 0
2, 388320, Control_c, 0, 64, 0
2, 388440, Note_on_c, 0, 75, 103
2, 388500, Note_on_c, 0, 75, 0
2, 388560, Control_c, 0, 64, 127
2, 388560, Note_on_c, 0, 80, 102
2, 388680, Note_on_c, 0, 80, 0
2, 388800, Control_c, 0, 64, 0
2, 388920, Note_on_c, 0, 63, 101
2, 388980, Note_on_c, 0, 63, 0
2, 389040, Control_c, 0, 64, 127
2, 389040, Note_on_c, 0, 68, 101
2, 389160, Note_on_c, 0, 68, 0
2, 389280, Control_c, 0, 64, 0
2, 389400, Note_on_c, 0, 51, 100
2, 389460, Note_on_c, 0, 51, 0
2, 389520, Note_on_c, 0, 56, 99
2, 389640, Note_on_c, 0, 56, 0
2, 389760, Control_c, 0, 64, 0
2, 390000, Note_on_c, 0, 63, 60
2, 390360, Note_on_c, 0, 63, 0
2, 390360, Note_on_c, 0, 63, 64
2, 390480, Note_on_c, 0, 63, 0
2, 390480, Control_c, 0, 64, 0
2, 390480, Note_on_c, 0, 59, 66
2, 390480, Note_on_c, 0, 56, 66
2, 390480, Note_on_c, 0, 63, 66
2, 390960, Note_on_c, 0, 63, 0
2, 390960, Note_on_c, 0, 56, 0
2, 390960, Note_on_c, 0, 59, 0
2, 390960, Note_on_c, 0, 56, 66
2, 390960, Note_on_c, 0, 59, 66
2, 390960, Note_on_c, 0, 63, 66
2, 391320, Note_on_c, 0, 63, 0
2, 391320, Note_on_c, 0, 59, 0
2, 391320, Note_on_c, 0, 56, 0
2, 391320, Note_on_c, 0, 59, 65
2, 391320, Note_on_c, 0, 63, 65
2, 391320, Note_on_c, 0, 56, 65
2, 391440, Note_on_c, 0, 56, 0
2, 391440, Note_on_c, 0, 63, 0
2, 391440, Note_on_c, 0, 59, 0
2, 391440, Note_on_c, 0, 56, 64
2, 391440, Note_on_c, 0, 59, 64
2, 391440, Note_on_c, 0, 63, 64
2, 391800, Note_on_c, 0, 63, 0
2, 391800, Note_on_c, 0, 59, 0
2, 391800, Note_on_c, 0, 56, 0
2, 391800, Note_on_c, 0, 59, 62
2, 391800, Note_on_c, 0, 63, 62
2, 391800, Note_on_c, 0, 56, 62
2, 391920, Note_on_c, 0, 56, 0
2, 391920, Note_on_c, 0, 63, 0
2, 391920, Note_on_c, 0, 59, 0
2, 391920, Note_on_c, 0, 58, 62
2, 391920, Note_on_c, 0, 55, 62
2, 391920, Note_on_c, 0, 63, 62
2, 392280, Note_on_c, 0, 63, 0
2, 392280, Note_on_c, 0, 55, 0
2, 392280, Note_on_c, 0, 58, 0
2, 392280, Note_on_c, 0, 59, 60
2, 392280, Note_on_c, 0, 56, 60
2, 392280, Note_on_c, 0, 63, 60
2, 392400, Note_on_c, 0, 63, 0
2, 392400, Note_on_c, 0, 56, 0
2, 392400, Note_on_c, 0, 59, 0
2, 392400, Note_on_c, 0, 58, 60
2, 392400, Note_on_c, 0, 61, 60
2, 392400, Note_on_c, 0, 63, 60
2, 393705, Note_on_c, 0, 58, 0
2, 393720, Note_on_c, 0, 63, 0
2, 393727, Note_on_c, 0, 61, 0
2, 393840, Note_on_c, 0, 58, 64
2, 393840, Note_on_c, 0, 55, 64
2, 393840, Note_on_c, 0, 63, 64
2, 394200, Note_on_c, 0, 63, 0
2, 394200, Note_on_c, 0, 55, 0
2, 394200, Note_on_c, 0, 58, 0
2, 394200, Note_on_c, 0, 58, 67
2, 394200, Note_on_c, 0, 63, 67
2, 394200, Note_on_c, 0, 55, 67
2, 394320, Note_on_c, 0, 55, 0
2, 394320, Note_on_c, 0, 63, 0
2, 394320, Note_on_c, 0, 58, 0
2, 394320, Note_on_c, 0, 59, 67
2, 394320, Note_on_c, 0, 56, 67
2, 394320, Note_on_c, 0, 63, 67
2, 394800, Note_on_c, 0, 63, 0
2, 394800, Note_on_c, 0, 56, 0
2, 394800, Note_on_c, 0, 59, 0
2, 394800, Note_on_c, 0, 59, 71
2, 394800, Note_on_c, 0, 56, 71
2, 394800, Note_on_c, 0, 63, 71
2, 395160, Note_on_c, 0, 63, 0
2, 395160, Note_on_c, 0, 56, 0
2, 395160, Note_on_c, 0, 59, 0
2, 395160, Note_on_c, 0, 59, 73
2, 395160, Note_on_c, 0, 56, 73
2, 395160, Note_on_c, 0, 63, 73
2, 395280, Note_on_c, 0, 63, 0
2, 395280, Note_on_c, 0, 56, 0
2, 395280, Note_on_c, 0, 59, 0
2, 395280, Note_on_c, 0, 61, 74
2, 395280, Note_on_c, 0, 63, 74
2, 395280, Note_on_c, 0, 58, 74
2, 395760, Note_on_c, 0, 58, 0
2, 395760, Note_on_c, 0, 63, 0
2, 395760, Note_on_c, 0, 61, 0
2, 395760, Note_on_c, 0, 59, 78
2, 395760, Note_on_c, 0, 56, 78
2, 395760, Note_on_c, 0, 63, 78
2, 396120, Note_on_c, 0, 63, 0
2, 396120, Note_on_c, 0, 56, 0
2, 396120, Note_on_c, 0, 59, 0
2, 396120, Note_on_c, 0, 59, 80
2, 396120, Note_on_c, 0, 56, 80
2, 396120, Note_on_c, 0, 63, 80
2, 396240, Note_on_c, 0, 63, 0
2, 396240, Note_on_c, 0, 56, 0
2, 396240, Note_on_c, 0, 59, 0
2, 396240, Note_on_c, 0, 55, 81
2, 396240, Note_on_c, 0, 58, 81
2, 396240, Note_on_c, 0, 63, 81
2, 396600, Note_on_c, 0, 63, 0
2, 396600, Note_on_c, 0, 58, 0
2, 396600, Note_on_c, 0, 55, 0
2, 396720, Note_on_c, 0, 55, 71
2, 396720, Note_on_c, 0, 58, 71
2, 396720, Note_on_c, 0, 63, 71
2, 397080, Note_on_c, 0, 63, 0
2, 397080, Note_on_c, 0, 58, 0
2, 397080, Note_on_c, 0, 55, 0
2, 397200, Note_on_c, 0, 55, 63
2, 397200, Note_on_c, 0, 58, 63
2, 397200, Note_on_c, 0, 63, 63
2, 397560, Note_on_c, 0, 63, 0
2, 397560, Note_on_c, 0, 58, 0
2, 397560, Note_on_c, 0, 55, 0
2, 397680, Note_on_c, 0, 63, 62
2, 398040, Note_on_c, 0, 63, 0
2, 398040, Note_on_c, 0, 63, 65
2, 398160, Note_on_c, 0, 63, 0
2, 398160, Note_on_c, 0, 63, 67
2, 398160, Note_on_c, 0, 56, 67
2, 398160, Note_on_c, 0, 59, 67
2, 398640, Note_on_c, 0, 59, 0
2, 398640, Note_on_c, 0, 56, 0
2, 398640, Note_on_c, 0, 63, 0
2, 398640, Note_on_c, 0, 63, 69
2, 398640, Note_on_c, 0, 59, 69
2, 398640, Note_on_c, 0, 56, 69
2, 399000, Note_on_c, 0, 56, 0
2, 399000, Note_on_c, 0, 59, 0
2, 399000, Note_on_c, 0, 63, 0
2, 399000, Note_on_c, 0, 56, 73
2, 399000, Note_on_c, 0, 63, 73
2, 399000, Note_on_c, 0, 59, 73
2, 399120, Note_on_c, 0, 59, 0
2, 399120, Note_on_c, 0, 63, 0
2, 399120, Note_on_c, 0, 56, 0
2, 399120, Note_on_c, 0, 63, 74
2, 399120, Note_on_c, 0, 59, 74
2, 399120, Note_on_c, 0, 56, 74
2, 399480, Note_on_c, 0, 56, 0
2, 399480, Note_on_c, 0, 59, 0
2, 399480, Note_on_c, 0, 63, 0
2, 399480, Note_on_c, 0, 56, 78
2, 399480, Note_on_c, 0, 63, 78
2, 399480, Note_on_c, 0, 59, 78
2, 399600, Note_on_c, 0, 59, 0
2, 399600, Note_on_c, 0, 63, 0
2, 399600, Note_on_c, 0, 56, 0
2, 399600, Note_on_c, 0, 54, 79
2, 399600, Note_on_c, 0, 63, 79
2, 399600, Note_on_c, 0, 58, 79
2, 399960, Note_on_c, 0, 58, 0
2, 399960, Note_on_c, 0, 63, 0
2, 399960, Note_on_c, 0, 54, 0
2, 399960, Note_on_c, 0, 56, 83
2, 399960, Note_on_c, 0, 63, 83
2, 399960, Note_on_c, 0, 53, 83
2, 400080, Note_on_c, 0, 53, 0
2, 400080, Note_on_c, 0, 63, 0
2, 400080, Note_on_c, 0, 56, 0
2, 400080, Note_on_c, 0, 54, 93
2, 400080, Note_on_c, 0, 58, 93
2, 400080, Note_on_c, 0, 63, 93
2, 401340, Note_on_c, 0, 63, 0
2, 401340, Note_on_c, 0, 58, 0
2, 401340, Note_on_c, 0, 54, 0
2, 401520, Note_on_c, 0, 54, 73
2, 401520, Note_on_c, 0, 59, 73
2, 401520, Note_on_c, 0, 63, 73
2, 401880, Note_on_c, 0, 63, 0
2, 401880, Note_on_c, 0, 59, 0
2, 401880, Note_on_c, 0, 54, 0
2, 401880, Note_on_c, 0, 59, 71
2, 401880, Note_on_c, 0, 63, 71
2, 401880, Note_on_c, 0, 54, 71
2, 402000, Note_on_c, 0, 54, 0
2, 402000, Note_on_c, 0, 63, 0
2, 402000, Note_on_c, 0, 59, 0
2, 402000, Note_on_c, 0, 59, 70
2, 402000, Note_on_c, 0, 63, 70
2, 402000, Note_on_c, 0, 56, 70
2, 402480, Note_on_c, 0, 56, 0
2, 402480, Note_on_c, 0, 63, 0
2, 402480, Note_on_c, 0, 59, 0
2, 402480, Note_on_c, 0, 59, 68
2, 402480, Note_on_c, 0, 56, 68
2, 402480, Note_on_c, 0, 61, 68
2, 402840, Note_on_c, 0, 61, 0
2, 402840, Note_on_c, 0, 56, 0
2, 402840, Note_on_c, 0, 59, 0
2, 402840, Note_on_c, 0, 56, 67
2, 402840, Note_on_c, 0, 59, 67
2, 402840, Note_on_c, 0, 61, 67
2, 402960, Note_on_c, 0, 61, 0
2, 402960, Note_on_c, 0, 59, 0
2, 402960, Note_on_c, 0, 56, 0
2, 402960, Note_on_c, 0, 59, 66
2, 402960, Note_on_c, 0, 61, 66
2, 402960, Note_on_c, 0, 54, 66
2, 403440, Note_on_c, 0, 54, 0
2, 403440, Note_on_c, 0, 61, 0
2, 403440, Note_on_c, 0, 59, 0
2, 403440, Note_on_c, 0, 58, 64
2, 403440, Note_on_c, 0, 61, 64
2, 403440, Note_on_c, 0, 52, 64
2, 403440, Note_on_c, 0, 54, 64
2, 403800, Note_on_c, 0, 54, 0
2, 403800, Note_on_c, 0, 58, 0
2, 403800, Note_on_c, 0, 61, 0
2, 403800, Note_on_c, 0, 52, 0
2, 403800, Note_on_c, 0, 58, 62
2, 403800, Note_on_c, 0, 61, 62
2, 403800, Note_on_c, 0, 54, 62
2, 403800, Note_on_c, 0, 52, 62
2, 403920, Note_on_c, 0, 52, 0
2, 403920, Note_on_c, 0, 58, 0
2, 403920, Note_on_c, 0, 61, 0
2, 403920, Note_on_c, 0, 54, 0
2, 403920, Note_on_c, 0, 59, 62
2, 403920, Note_on_c, 0, 54, 62
2, 403920, Note_on_c, 0, 51, 62
2, 404280, Note_on_c, 0, 51, 0
2, 404280, Note_on_c, 0, 54, 0
2, 404280, Note_on_c, 0, 59, 0
2, 404400, Note_on_c, 0, 59, 56
2, 404400, Note_on_c, 0, 54, 56
2, 404400, Note_on_c, 0, 51, 56
2, 404760, Note_on_c, 0, 51, 0
2, 404760, Note_on_c, 0, 54, 0
2, 404760, Note_on_c, 0, 59, 0
2, 404880, Note_on_c, 0, 59, 50
2, 404880, Note_on_c, 0, 54, 50
2, 404880, Note_on_c, 0, 51, 50
2, 405240, Note_on_c, 0, 51, 0
2, 405240, Note_on_c, 0, 54, 0
2, 405240, Note_on_c, 0, 59, 0
2, 405360, Note_on_c, 0, 66, 60
2, 405720, Note_on_c, 0, 66, 0
2, 405720, Note_on_c, 0, 66, 65
2, 405840, Note_on_c, 0, 66, 0
2, 405840, Note_on_c, 0, 59, 67
2, 405840, Note_on_c, 0, 62, 67
2, 405840, Note_on_c, 0, 66, 67
2, 406320, Note_on_c, 0, 66, 0
2, 406320, Note_on_c, 0, 62, 0
2, 406320, Note_on_c, 0, 59, 0
2, 406320, Note_on_c, 0, 59, 65
2, 406320, Note_on_c, 0, 62, 65
2, 406320, Note_on_c, 0, 66, 65
2, 406680, Note_on_c, 0, 66, 0
2, 406680, Note_on_c, 0, 62, 0
2, 406680, Note_on_c, 0, 59, 0
2, 406680, Note_on_c, 0, 59, 70
2, 406680, Note_on_c, 0, 62, 70
2, 406680, Note_on_c, 0, 66, 70
2, 406800, Note_on_c, 0, 66, 0
2, 406800, Note_on_c, 0, 62, 0
2, 406800, Note_on_c, 0, 59, 0
2, 406800, Note_on_c, 0, 59, 72
2, 406800, Note_on_c, 0, 62, 72
2, 406800, Note_on_c, 0, 66, 72
2, 407160, Note_on_c, 0, 66, 0
2, 407160, Note_on_c, 0, 62, 0
2, 407160, Note_on_c, 0, 59, 0
2, 407160, Note_on_c, 0, 59, 77
2, 407160, Note_on_c, 0, 62, 77
2, 407160, Note_on_c, 0, 66, 77
2, 407280, Note_on_c, 0, 66, 0
2, 407280, Note_on_c, 0, 62, 0
2, 407280, Note_on_c, 0, 59, 0
2, 407280, Note_on_c, 0, 61, 78
2, 407280, Note_on_c, 0, 58, 78
2, 407280, Note_on_c, 0, 66, 78
2, 407640, Note_on_c, 0, 66, 0
2, 407640, Note_on_c, 0, 58, 0
2, 407640, Note_on_c, 0, 61, 0
2, 407640, Note_on_c, 0, 59, 83
2, 407640, Note_on_c, 0, 62, 83
2, 407640, Note_on_c, 0, 66, 83
2, 407760, Note_on_c, 0, 66, 0
2, 407760, Note_on_c, 0, 62, 0
2, 407760, Note_on_c, 0, 59, 0
2, 407760, Note_on_c, 0, 61, 91
2, 407760, Note_on_c, 0, 64, 91
2, 407760, Note_on_c, 0, 66, 91
2, 409020, Note_on_c, 0, 64, 0
2, 409020, Note_on_c, 0, 61, 0
2, 409027, Note_on_c, 0, 66, 0
2, 409200, Note_on_c, 0, 61, 73
2, 409200, Note_on_c, 0, 58, 73
2, 409200, Note_on_c, 0, 66, 73
2, 409560, Note_on_c, 0, 66, 0
2, 409560, Note_on_c, 0, 58, 0
2, 409560, Note_on_c, 0, 61, 0
2, 409560, Note_on_c, 0, 58, 71
2, 409560, Note_on_c, 0, 61, 71
2, 409560, Note_on_c, 0, 66, 71
2, 409680, Note_on_c, 0, 66, 0
2, 409680, Note_on_c, 0, 61, 0
2, 409680, Note_on_c, 0, 58, 0
2, 409680, Note_on_c, 0, 59, 70
2, 409680, Note_on_c, 0, 62, 70
2, 409680, Note_on_c, 0, 66, 70
2, 410160, Note_on_c, 0, 66, 0
2, 410160, Note_on_c, 0, 62, 0
2, 410160, Note_on_c, 0, 59, 0
2, 410160, Note_on_c, 0, 59, 68
2, 410160, Note_on_c, 0, 66, 68
2, 410160, Note_on_c, 0, 62, 68
2, 410520, Note_on_c, 0, 62, 0
2, 410520, Note_on_c, 0, 66, 0
2, 410520, Note_on_c, 0, 59, 0
2, 410520, Note_on_c, 0, 59, 66
2, 410520, Note_on_c, 0, 66, 66
2, 410520, Note_on_c, 0, 62, 66
2, 410640, Note_on_c, 0, 62, 0
2, 410640, Note_on_c, 0, 66, 0
2, 410640, Note_on_c, 0, 59, 0
2, 410640, Note_on_c, 0, 61, 65
2, 410640, Note_on_c, 0, 66, 65
2, 410640, Note_on_c, 0, 64, 65
2, 411120, Note_on_c, 0, 64, 0
2, 411120, Note_on_c, 0, 66, 0
2, 411120, Note_on_c, 0, 61, 0
2, 411120, Note_on_c, 0, 59, 63
2, 411120, Note_on_c, 0, 62, 63
2, 411120, Note_on_c, 0, 66, 63
2, 411480, Note_on_c, 0, 66, 0
2, 411480, Note_on_c, 0, 62, 0
2, 411480, Note_on_c, 0, 59, 0
2, 411480, Note_on_c, 0, 59, 61
2, 411480, Note_on_c, 0, 62, 61
2, 411480, Note_on_c, 0, 66, 61
2, 411600, Note_on_c, 0, 66, 0
2, 411600, Note_on_c, 0, 62, 0
2, 411600, Note_on_c, 0, 59, 0
2, 411600, Note_on_c, 0, 61, 64
2, 411600, Note_on_c, 0, 66, 64
2, 411600, Note_on_c, 0, 58, 64
2, 411960, Note_on_c, 0, 58, 0
2, 411960, Note_on_c, 0, 66, 0
2, 411960, Note_on_c, 0, 61, 0
2, 412080, Note_on_c, 0, 61, 58
2, 412080, Note_on_c, 0, 58, 58
2, 412080, Note_on_c, 0, 66, 58
2, 412440, Note_on_c, 0, 66, 0
2, 412440, Note_on_c, 0, 58, 0
2, 412440, Note_on_c, 0, 61, 0
2, 412560, Note_on_c, 0, 61, 51
2, 412560, Note_on_c, 0, 58, 51
2, 412560, Note_on_c, 0, 66, 51
2, 412920, Note_on_c, 0, 66, 0
2, 412920, Note_on_c, 0, 58, 0
2, 412920, Note_on_c, 0, 61, 0
2, 413040, Note_on_c, 0, 66, 63
2, 413400, Note_on_c, 0, 66, 0
2, 413400, Note_on_c, 0, 66, 66
2, 413520, Note_on_c, 0, 66, 0
2, 413520, Note_on_c, 0, 62, 67
2, 413520, Note_on_c, 0, 59, 67
2, 413520, Note_on_c, 0, 66, 67
2, 414000, Note_on_c, 0, 66, 0
2, 414000, Note_on_c, 0, 59, 0
2, 414000, Note_on_c, 0, 62, 0
2, 414000, Note_on_c, 0, 59, 70
2, 414000, Note_on_c, 0, 62, 70
2, 414000, Note_on_c, 0, 66, 70
2, 414360, Note_on_c, 0, 66, 0
2, 414360, Note_on_c, 0, 62, 0
2, 414360, Note_on_c, 0, 59, 0
2, 414360, Note_on_c, 0, 59, 73
2, 414360, Note_on_c, 0, 62, 73
2, 414360, Note_on_c, 0, 66, 73
2, 414480, Note_on_c, 0, 66, 0
2, 414480, Note_on_c, 0, 62, 0
2, 414480, Note_on_c, 0, 59, 0
2, 414480, Note_on_c, 0, 59, 74
2, 414480, Note_on_c, 0, 62, 74
2, 414480, Note_on_c, 0, 66, 74
2, 414840, Note_on_c, 0, 66, 0
2, 414840, Note_on_c, 0, 62, 0
2, 414840, Note_on_c, 0, 59, 0
2, 414840, Note_on_c, 0, 62, 78
2, 414840, Note_on_c, 0, 66, 78
2, 414840, Note_on_c, 0, 59, 78
2, 414960, Note_on_c, 0, 59, 0
2, 414960, Note_on_c, 0, 66, 0
2, 414960, Note_on_c, 0, 62, 0
2, 414960, Note_on_c, 0, 59, 79
2, 414960, Note_on_c, 0, 61, 79
2, 414960, Note_on_c, 0, 64, 79
2, 415290, Note_on_c, 0, 59, 0
2, 415320, Note_on_c, 0, 64, 0
2, 415320, Note_on_c, 0, 61, 0
2, 415320, Note_on_c, 0, 59, 82
2, 415320, Note_on_c, 0, 62, 82
2, 415320, Note_on_c, 0, 66, 82
2, 415440, Note_on_c, 0, 66, 0
2, 415440, Note_on_c, 0, 62, 0
2, 415440, Note_on_c, 0, 59, 0
2, 415440, Note_on_c, 0, 59, 88
2, 415440, Note_on_c, 0, 64, 88
2, 415440, Note_on_c, 0, 67, 88
2, 416700, Note_on_c, 0, 67, 0
2, 416700, Note_on_c, 0, 64, 0
2, 416707, Note_on_c, 0, 59, 0
2, 416880, Note_on_c, 0, 67, 61
2, 416880, Note_on_c, 0, 64, 61
2, 416880, Note_on_c, 0, 59, 61
2, 417240, Note_on_c, 0, 59, 0
2, 417240, Note_on_c, 0, 64, 0
2, 417240, Note_on_c, 0, 67, 0
2, 417240, Note_on_c, 0, 67, 63
2, 417240, Note_on_c, 0, 64, 63
2, 417240, Note_on_c, 0, 59, 63
2, 417360, Note_on_c, 0, 59, 0
2, 417360, Note_on_c, 0, 64, 0
2, 417360, Note_on_c, 0, 67, 0
2, 417360, Note_on_c, 0, 62, 64
2, 417360, Note_on_c, 0, 57, 64
2, 417360, Note_on_c, 0, 66, 64
2, 417840, Note_on_c, 0, 66, 0
2, 417840, Note_on_c, 0, 57, 0
2, 417840, Note_on_c, 0, 62, 0
2, 417840, Note_on_c, 0, 62, 68
2, 417840, Note_on_c, 0, 57, 68
2, 417840, Note_on_c, 0, 66, 68
2, 418200, Note_on_c, 0, 66, 0
2, 418200, Note_on_c, 0, 57, 0
2, 418200, Note_on_c, 0, 62, 0
2, 418200, Note_on_c, 0, 62, 70
2, 418200, Note_on_c, 0, 66, 70
2, 418200, Note_on_c, 0, 57, 70
2, 418320, Note_on_c, 0, 57, 0
2, 418320, Note_on_c, 0, 66, 0
2, 418320, Note_on_c, 0, 62, 0
2, 418320, Note_on_c, 0, 61, 71
2, 418320, Note_on_c, 0, 64, 71
2, 418320, Note_on_c, 0, 57, 71
2, 418800, Note_on_c, 0, 57, 0
2, 418800, Note_on_c, 0, 64, 0
2, 418800, Note_on_c, 0, 61, 0
2, 418800, Note_on_c, 0, 69, 74
2, 418800, Note_on_c, 0, 64, 74
2, 418800, Note_on_c, 0, 61, 74
2, 419160, Note_on_c, 0, 61, 0
2, 419160, Note_on_c, 0, 64, 0
2, 419160, Note_on_c, 0, 69, 0
2, 419160, Note_on_c, 0, 69, 77
2, 419160, Note_on_c, 0, 61, 77
2, 419160, Note_on_c, 0, 64, 77
2, 419280, Note_on_c, 0, 64, 0
2, 419280, Note_on_c, 0, 61, 0
2, 419280, Note_on_c, 0, 69, 0
2, 419280, Note_on_c, 0, 62, 75
2, 419640, Note_on_c, 0, 62, 0
2, 419760, Note_on_c, 0, 62, 64
2, 420120, Note_on_c, 0, 62, 0
2, 420240, Note_on_c, 0, 62, 53
2, 420607, Note_on_c, 0, 62, 0
2, 420720, Note_on_c, 0, 71, 49
2, 420720, Note_on_c, 0, 65, 49
2, 421080, Note_on_c, 0, 65, 0
2, 421080, Note_on_c, 0, 71, 0
2, 421080, Note_on_c, 0, 65, 52
2, 421080, Note_on_c, 0, 71, 52
2, 421200, Note_on_c, 0, 71, 0
2, 421200, Note_on_c, 0, 65, 0
2, 421200, Note_on_c, 0, 71, 60
2, 421200, Note_on_c, 0, 65, 60
2, 422160, Note_on_c, 0, 65, 0
2, 422160, Note_on_c, 0, 71, 0
2, 422160, Note_on_c, 0, 65, 58
2, 422160, Note_on_c, 0, 70, 58
2, 422640, Note_on_c, 0, 70, 0
2, 422640, Note_on_c, 0, 65, 0
2, 422640, Note_on_c, 0, 65, 57
2, 422640, Note_on_c, 0, 68, 57
2, 423120, Note_on_c, 0, 68, 0
2, 423120, Note_on_c, 0, 65, 0
2, 423120, Note_on_c, 0, 63, 55
2, 423120, Note_on_c, 0, 67, 55
2, 423324, Note_on_c, 0, 67, 0
2, 423324, Note_on_c, 0, 63, 0
2, 423480, Note_on_c, 0, 71, 64
2, 423480, Note_on_c, 0, 65, 64
2, 423600, Note_on_c, 0, 65, 0
2, 423600, Note_on_c, 0, 71, 0
2, 423600, Note_on_c, 0, 71, 76
2, 423600, Note_on_c, 0, 65, 76
2, 424560, Note_on_c, 0, 65, 0
2, 424560, Note_on_c, 0, 71, 0
2, 424560, Note_on_c, 0, 65, 72
2, 424560, Note_on_c, 0, 70, 72
2, 424920, Note_on_c, 0, 70, 0
2, 424920, Note_on_c, 0, 65, 0
2, 424920, Note_on_c, 0, 65, 70
2, 424920, Note_on_c, 0, 68, 70
2, 425040, Note_on_c, 0, 68, 0
2, 425040, Note_on_c, 0, 65, 0
2, 425040, Note_on_c, 0, 67, 69
2, 425040, Note_on_c, 0, 63, 69
2, 425280, Note_on_c, 0, 63, 0
2, 425280, Note_on_c, 0, 67, 0
2, 425400, Note_on_c, 0, 71, 90
2, 425400, Note_on_c, 0, 65, 90
2, 425496, Note_on_c, 0, 65, 0
2, 425496, Note_on_c, 0, 71, 0
2, 425520, Note_on_c, 0, 71, 92
2, 425520, Note_on_c, 0, 65, 92
2, 425808, Note_on_c, 0, 65, 0
2, 425808, Note_on_c, 0, 71, 0
2, 425880, Note_on_c, 0, 71, 97
2, 425880, Note_on_c, 0, 65, 97
2, 425976, Note_on_c, 0, 65, 0
2, 425976, Note_on_c, 0, 71, 0
2, 426000, Note_on_c, 0, 71, 99
2, 426000, Note_on_c, 0, 65, 99
2, 426288, Note_on_c, 0, 65, 0
2, 426288, Note_on_c, 0, 71, 0
2, 426360, Note_on_c, 0, 65, 104
2, 426360, Note_on_c, 0, 71, 104
2, 426456, Note_on_c, 0, 71, 0
2, 426456, Note_on_c, 0, 65, 0
2, 426480, Note_on_c, 0, 65, 106
2, 426480, Note_on_c, 0, 70, 106
2, 426768, Note_on_c, 0, 70, 0
2, 426768, Note_on_c, 0, 65, 0
2, 426840, Note_on_c, 0, 65, 111
2, 426840, Note_on_c, 0, 68, 111
2, 426936, Note_on_c, 0, 68, 0
2, 426936, Note_on_c, 0, 65, 0
2, 426960, Note_on_c, 0, 67, 113
2, 426960, Note_on_c, 0, 63, 113
2, 427152, Note_on_c, 0, 63, 0
2, 427152, Note_on_c, 0, 67, 0
2, 427440, Note_on_c, 0, 64, 120
2, 428400, Note_on_c, 0, 64, 0
2, 428400, Note_on_c, 0, 63, 106
2, 428496, Note_on_c, 0, 63, 0
2, 428520, Note_on_c, 0, 61, 101
2, 428616, Note_on_c, 0, 61, 0
2, 428640, Note_on_c, 0, 59, 96
2, 428736, Note_on_c, 0, 59, 0
2, 428760, Note_on_c, 0, 58, 90
2, 428856, Note_on_c, 0, 58, 0
2, 428880, Note_on_c, 0, 56, 85
2, 429360, Note_on_c, 0, 56, 0
2, 429360, Note_on_c, 0, 63, 57
2, 429360, Note_on_c, 0, 59, 57
2, 429360, Note_on_c, 0, 56, 57
2, 429720, Note_on_c, 0, 56, 0
2, 429720, Note_on_c, 0, 59, 0
2, 429720, Note_on_c, 0, 63, 0
2, 429720, Note_on_c, 0, 56, 60
2, 429720, Note_on_c, 0, 63, 60
2, 429720, Note_on_c, 0, 59, 60
2, 429840, Note_on_c, 0, 59, 0
2, 429840, Note_on_c, 0, 63, 0
2, 429840, Note_on_c, 0, 56, 0
2, 429840, Note_on_c, 0, 63, 60
2, 429840, Note_on_c, 0, 59, 60
2, 429840, Note_on_c, 0, 56, 60
2, 430200, Note_on_c, 0, 56, 0
2, 430200, Note_on_c, 0, 59, 0
2, 430200, Note_on_c, 0, 63, 0
2, 430200, Note_on_c, 0, 56, 63
2, 430200, Note_on_c, 0, 63, 63
2, 430200, Note_on_c, 0, 59, 63
2, 430320, Note_on_c, 0, 59, 0
2, 430320, Note_on_c, 0, 63, 0
2, 430320, Note_on_c, 0, 56, 0
2, 430320, Note_on_c, 0, 63, 64
2, 430320, Note_on_c, 0, 55, 64
2, 430320, Note_on_c, 0, 58, 64
2, 430680, Note_on_c, 0, 58, 0
2, 430680, Note_on_c, 0, 55, 0
2, 430680, Note_on_c, 0, 63, 0
2, 430680, Note_on_c, 0, 63, 66
2, 430680, Note_on_c, 0, 56, 66
2, 430680, Note_on_c, 0, 59, 66
2, 430800, Note_on_c, 0, 59, 0
2, 430800, Note_on_c, 0, 56, 0
2, 430800, Note_on_c, 0, 63, 0
2, 430800, Note_on_c, 0, 58, 67
2, 430800, Note_on_c, 0, 61, 67
2, 430800, Note_on_c, 0, 63, 67
2, 432060, Note_on_c, 0, 63, 0
2, 432060, Note_on_c, 0, 61, 0
2, 432060, Note_on_c, 0, 58, 0
2, 432240, Note_on_c, 0, 63, 72
2, 432240, Note_on_c, 0, 55, 72
2, 432240, Note_on_c, 0, 58, 72
2, 432600, Note_on_c, 0, 58, 0
2, 432600, Note_on_c, 0, 55, 0
2, 432600, Note_on_c, 0, 63, 0
2, 432600, Note_on_c, 0, 55, 74
2, 432600, Note_on_c, 0, 63, 74
2, 432600, Note_on_c, 0, 58, 74
2, 432720, Note_on_c, 0, 58, 0
2, 432720, Note_on_c, 0, 63, 0
2, 432720, Note_on_c, 0, 55, 0
2, 432720, Note_on_c, 0, 63, 83
2, 432720, Note_on_c, 0, 56, 83
2, 432720, Note_on_c, 0, 59, 83
2, 433200, Note_on_c, 0, 59, 0
2, 433200, Note_on_c, 0, 56, 0
2, 433200, Note_on_c, 0, 63, 0
2, 433200, Note_on_c, 0, 63, 77
2, 433200, Note_on_c, 0, 56, 77
2, 433200, Note_on_c, 0, 59, 77
2, 433560, Note_on_c, 0, 59, 0
2, 433560, Note_on_c, 0, 56, 0
2, 433560, Note_on_c, 0, 63, 0
2, 433560, Note_on_c, 0, 63, 79
2, 433560, Note_on_c, 0, 56, 79
2, 433560, Note_on_c, 0, 59, 79
2, 433680, Note_on_c, 0, 59, 0
2, 433680, Note_on_c, 0, 56, 0
2, 433680, Note_on_c, 0, 63, 0
2, 433680, Note_on_c, 0, 58, 80
2, 433680, Note_on_c, 0, 63, 80
2, 433680, Note_on_c, 0, 61, 80
2, 434160, Note_on_c, 0, 61, 0
2, 434160, Note_on_c, 0, 63, 0
2, 434160, Note_on_c, 0, 58, 0
2, 434160, Note_on_c, 0, 63, 83
2, 434160, Note_on_c, 0, 56, 83
2, 434160, Note_on_c, 0, 59, 83
2, 434520, Note_on_c, 0, 59, 0
2, 434520, Note_on_c, 0, 56, 0
2, 434520, Note_on_c, 0, 63, 0
2, 434520, Note_on_c, 0, 63, 85
2, 434520, Note_on_c, 0, 56, 85
2, 434520, Note_on_c, 0, 59, 85
2, 434640, Note_on_c, 0, 59, 0
2, 434640, Note_on_c, 0, 56, 0
2, 434640, Note_on_c, 0, 63, 0
2, 434640, Note_on_c, 0, 63, 90
2, 434640, Note_on_c, 0, 58, 90
2, 434640, Note_on_c, 0, 55, 90
2, 435000, Note_on_c, 0, 55, 0
2, 435000, Note_on_c, 0, 58, 0
2, 435000, Note_on_c, 0, 63, 0
2, 435120, Note_on_c, 0, 63, 77
2, 435120, Note_on_c, 0, 58, 77
2, 435120, Note_on_c, 0, 55, 77
2, 435480, Note_on_c, 0, 55, 0
2, 435480, Note_on_c, 0, 58, 0
2, 435480, Note_on_c, 0, 63, 0
2, 435600, Note_on_c, 0, 63, 65
2, 435600, Note_on_c, 0, 58, 65
2, 435600, Note_on_c, 0, 55, 65
2, 435960, Note_on_c, 0, 55, 0
2, 435960, Note_on_c, 0, 58, 0
2, 435960, Note_on_c, 0, 63, 0
2, 436080, Note_on_c, 0, 63, 63
2, 436440, Note_on_c, 0, 63, 0
2, 436440, Note_on_c, 0, 63, 65
2, 436560, Note_on_c, 0, 63, 0
2, 436560, Note_on_c, 0, 60, 69
2, 436560, Note_on_c, 0, 56, 69
2, 436560, Note_on_c, 0, 63, 69
2, 437040, Note_on_c, 0, 63, 0
2, 437040, Note_on_c, 0, 56, 0
2, 437040, Note_on_c, 0, 60, 0
2, 437040, Note_on_c, 0, 60, 69
2, 437040, Note_on_c, 0, 56, 69
2, 437040, Note_on_c, 0, 63, 69
2, 437400, Note_on_c, 0, 63, 0
2, 437400, Note_on_c, 0, 56, 0
2, 437400, Note_on_c, 0, 60, 0
2, 437400, Note_on_c, 0, 60, 71
2, 437400, Note_on_c, 0, 63, 71
2, 437400, Note_on_c, 0, 56, 71
2, 437520, Note_on_c, 0, 56, 0
2, 437520, Note_on_c, 0, 63, 0
2, 437520, Note_on_c, 0, 60, 0
2, 437520, Note_on_c, 0, 60, 72
2, 437520, Note_on_c, 0, 56, 72
2, 437520, Note_on_c, 0, 63, 72
2, 437880, Note_on_c, 0, 63, 0
2, 437880, Note_on_c, 0, 56, 0
2, 437880, Note_on_c, 0, 60, 0
2, 437880, Note_on_c, 0, 60, 74
2, 437880, Note_on_c, 0, 63, 74
2, 437880, Note_on_c, 0, 56, 74
2, 438000, Note_on_c, 0, 56, 0
2, 438000, Note_on_c, 0, 63, 0
2, 438000, Note_on_c, 0, 60, 0
2, 438000, Note_on_c, 0, 56, 75
2, 438000, Note_on_c, 0, 58, 75
2, 438000, Note_on_c, 0, 63, 75
2, 438360, Note_on_c, 0, 63, 0
2, 438360, Note_on_c, 0, 58, 0
2, 438360, Note_on_c, 0, 56, 0
2, 438360, Note_on_c, 0, 56, 77
2, 438360, Note_on_c, 0, 60, 77
2, 438360, Note_on_c, 0, 63, 77
2, 438480, Note_on_c, 0, 63, 0
2, 438480, Note_on_c, 0, 60, 0
2, 438480, Note_on_c, 0, 56, 0
2, 438480, Note_on_c, 0, 64, 83
2, 438480, Note_on_c, 0, 61, 83
2, 438480, Note_on_c, 0, 56, 83
2, 439920, Note_on_c, 0, 56, 0
2, 439920, Note_on_c, 0, 61, 0
2, 439920, Note_on_c, 0, 64, 0
2, 439920, Note_on_c, 0, 56, 95
2, 439920, Note_on_c, 0, 64, 95
2, 439920, Note_on_c, 0, 61, 95
2, 440280, Note_on_c, 0, 61, 0
2, 440280, Note_on_c, 0, 64, 0
2, 440280, Note_on_c, 0, 56, 0
2, 440400, Note_on_c, 0, 64, 103
2, 440400, Note_on_c, 0, 73, 103
2, 440400, Note_on_c, 0, 69, 103
2, 441840, Note_on_c, 0, 69, 0
2, 441840, Note_on_c, 0, 73, 0
2, 441840, Note_on_c, 0, 64, 0
2, 441840, Note_on_c, 0, 69, 107
2, 441840, Note_on_c, 0, 64, 107
2, 441840, Note_on_c, 0, 73, 107
2, 442200, Note_on_c, 0, 73, 0
2, 442200, Note_on_c, 0, 64, 0
2, 442200, Note_on_c, 0, 69, 0
2, 442320, Note_on_c, 0, 75, 116
2, 442320, Note_on_c, 0, 82, 116
2, 442320, Note_on_c, 0, 73, 116
2, 443760, Note_on_c, 0, 73, 0
2, 443760, Note_on_c, 0, 82, 0
2, 443760, Note_on_c, 0, 75, 0
2, 443760, Note_on_c, 0, 82, 119
2, 443760, Note_on_c, 0, 75, 119
2, 443760, Note_on_c, 0, 73, 119
2, 444120, Note_on_c, 0, 73, 0
2, 444120, Note_on_c, 0, 75, 0
2, 444120, Note_on_c, 0, 82, 0
2, 444240, Note_on_c, 0, 75, 123
2, 444240, Note_on_c, 0, 83, 123
2, 444480, Note_on_c, 0, 83, 0
2, 444480, Note_on_c, 0, 75, 0
2, 445200, Note_on_c, 0, 76, 126
2, 445200, Note_on_c, 0, 82, 126
2, 445200, Note_on_c, 0, 73, 126
2, 445440, Note_on_c, 0, 73, 0
2, 445440, Note_on_c, 0, 82, 0
2, 445440, Note_on_c, 0, 76, 0
2, 445680, Note_on_c, 0, 79, 127
2, 445680, Note_on_c, 0, 73, 127
2, 445680, Note_on_c, 0, 70, 127
2, 445920, Note_on_c, 0, 70, 0
2, 445920, Note_on_c, 0, 73, 0
2, 445920, Note_on_c, 0, 79, 0
2, 446160, Note_on_c, 0, 71, 127
2, 446160, Note_on_c, 0, 80, 127
2, 446400, Note_on_c, 0, 80, 0
2, 446400, Note_on_c, 0, 71, 0
2, 447600, Note_on_c, 0, 69, 61
2, 447960, Note_on_c, 0, 69, 0
2, 447960, Note_on_c, 0, 68, 64
2, 448080, Note_on_c, 0, 68, 0
2, 448080, Note_on_c, 0, 66, 65
2, 448800, Note_on_c, 0, 66, 0
2, 448920, Note_on_c, 0, 64, 71
2, 449040, Note_on_c, 0, 64, 0
2, 449040, Note_on_c, 0, 63, 72
2, 449400, Note_on_c, 0, 63, 0
2, 449520, Note_on_c, 0, 63, 76
2, 449880, Note_on_c, 0, 63, 0
2, 450000, Note_on_c, 0, 63, 70
2, 450480, Note_on_c, 0, 63, 0
2, 451440, Note_on_c, 0, 72, 66
2, 451800, Note_on_c, 0, 72, 0
2, 451800, Note_on_c, 0, 73, 70
2, 451920, Note_on_c, 0, 73, 0
2, 451920, Note_on_c, 0, 75, 71
2, 452760, Note_on_c, 0, 75, 0
2, 452760, Note_on_c, 0, 76, 80
2, 452880, Note_on_c, 0, 76, 0
2, 452880, Note_on_c, 0, 78, 81
2, 453360, Note_on_c, 0, 78, 0
2, 453360, Note_on_c, 0, 79, 86
2, 453840, Note_on_c, 0, 79, 0
2, 453840, Note_on_c, 0, 80, 75
2, 454800, Note_on_c, 0, 80, 0
2, 454800, Note_on_c, 0, 81, 92
2, 455640, Note_on_c, 0, 79, 78
2, 455647, Note_on_c, 0, 81, 0
2, 455760, Note_on_c, 0, 79, 0
2, 455760, Note_on_c, 0, 80, 74
2, 456240, Note_on_c, 0, 80, 0
2, 456720, Note_on_c, 0, 69, 75
2, 457560, Note_on_c, 0, 69, 0
2, 457560, Note_on_c, 0, 67, 67
2, 457680, Note_on_c, 0, 67, 0
2, 457680, Note_on_c, 0, 68, 66
2, 458160, Note_on_c, 0, 68, 0
2, 458640, Note_on_c, 0, 63, 60
2, 459000, Note_on_c, 0, 63, 0
2, 459120, Note_on_c, 0, 63, 58
2, 459480, Note_on_c, 0, 63, 0
2, 459600, Note_on_c, 0, 63, 56
2, 461520, Note_on_c, 0, 63, 0
2, 461520, Control_c, 0, 10, 73
2, 461520, Control_c, 0, 91, 91
2, 461520, Control_c, 0, 93, 28
2, 461520, Control_c, 0, 64, 0
2, 461520, Control_c, 0, 1, 0
2, 461520, Pitch_bend_c, 0, 8192
2, 461520, Control_c, 0, 7, 127
2, 461520, Control_c, 0, 0, 0
2, 461520, Control_c, 0, 32, 0
2, 461520, Program_c, 0, 0
2, 462960, Note_on_c, 0, 75, 76
2, 463179, Note_on_c, 0, 75, 0
2, 463200, Note_on_c, 0, 77, 75
2, 463419, Note_on_c, 0, 77, 0
2, 463440, Note_on_c, 0, 73, 74
2, 463659, Note_on_c, 0, 73, 0
2, 463680, Note_on_c, 0, 75, 73
2, 463899, Note_on_c, 0, 75, 0
2, 463920, Note_on_c, 0, 72, 72
2, 464150, Note_on_c, 0, 72, 0
2, 464160, Note_on_c, 0, 73, 71
2, 464390, Note_on_c, 0, 73, 0
2, 464400, Note_on_c, 0, 70, 70
2, 464630, Note_on_c, 0, 70, 0
2, 464640, Note_on_c, 0, 72, 69
2, 464870, Note_on_c, 0, 72, 0
2, 464880, Note_on_c, 0, 68, 68
2, 465110, Note_on_c, 0, 68, 0
2, 465120, Note_on_c, 0, 70, 67
2, 465350, Note_on_c, 0, 70, 0
2, 465360, Note_on_c, 0, 67, 66
2, 465600, Note_on_c, 0, 67, 0
2, 465840, Note_on_c, 0, 67, 63
2, 466070, Note_on_c, 0, 67, 0
2, 466080, Note_on_c, 0, 68, 65
2, 466310, Note_on_c, 0, 68, 0
2, 466320, Note_on_c, 0, 70, 67
2, 466550, Note_on_c, 0, 70, 0
2, 466560, Note_on_c, 0, 72, 68
2, 466790, Note_on_c, 0, 72, 0
2, 466800, Note_on_c, 0, 73, 70
2, 467030, Note_on_c, 0, 73, 0
2, 467040, Note_on_c, 0, 74, 72
2, 467270, Note_on_c, 0, 74, 0
2, 467280, Note_on_c, 0, 75, 73
2, 467510, Note_on_c, 0, 75, 0
2, 467520, Note_on_c, 0, 75, 75
2, 467760, Note_on_c, 0, 75, 0
2, 467760, Note_on_c, 0, 75, 76
2, 467990, Note_on_c, 0, 75, 0
2, 468000, Note_on_c, 0, 75, 78
2, 468235, Note_on_c, 0, 75, 0
2, 468240, Note_on_c, 0, 75, 80
2, 468475, Note_on_c, 0, 75, 0
2, 468480, Note_on_c, 0, 75, 81
2, 468660, Note_on_c, 0, 75, 0
2, 468720, Note_on_c, 0, 72, 65
2, 468960, Note_on_c, 0, 72, 0
2, 468960, Note_on_c, 0, 69, 66
2, 469200, Note_on_c, 0, 69, 0
2, 469200, Note_on_c, 0, 70, 67
2, 469440, Note_on_c, 0, 67, 68
2, 469447, Note_on_c, 0, 70, 0
2, 469680, Note_on_c, 0, 68, 69
2, 469687, Note_on_c, 0, 67, 0
2, 469920, Note_on_c, 0, 65, 70
2, 469935, Note_on_c, 0, 68, 0
2, 470160, Note_on_c, 0, 65, 0
2, 470160, Note_on_c, 0, 67, 71
2, 470400, Note_on_c, 0, 64, 72
2, 470415, Note_on_c, 0, 67, 0
2, 470640, Note_on_c, 0, 64, 0
2, 470640, Note_on_c, 0, 65, 73
2, 470880, Note_on_c, 0, 62, 74
2, 470887, Note_on_c, 0, 65, 0
2, 471120, Note_on_c, 0, 62, 0
2, 471120, Note_on_c, 0, 63, 74
2, 471360, Note_on_c, 0, 63, 0
2, 471600, Note_on_c, 0, 85, 75
2, 471840, Note_on_c, 0, 85, 0
2, 471840, Note_on_c, 0, 84, 77
2, 472080, Note_on_c, 0, 84, 0
2, 472080, Note_on_c, 0, 82, 78
2, 472320, Note_on_c, 0, 82, 0
2, 472320, Note_on_c, 0, 80, 80
2, 472560, Note_on_c, 0, 80, 0
2, 472560, Note_on_c, 0, 79, 82
2, 472800, Note_on_c, 0, 79, 0
2, 472800, Note_on_c, 0, 77, 84
2, 473040, Note_on_c, 0, 77, 0
2, 473040, Note_on_c, 0, 75, 85
2, 473160, Note_on_c, 0, 75, 0
2, 473280, Note_on_c, 0, 75, 87
2, 473400, Note_on_c, 0, 75, 0
2, 473520, Note_on_c, 0, 75, 89
2, 473640, Note_on_c, 0, 75, 0
2, 473760, Note_on_c, 0, 75, 91
2, 473880, Note_on_c, 0, 75, 0
2, 474000, Note_on_c, 0, 75, 92
2, 474120, Note_on_c, 0, 75, 0
2, 474480, Note_on_c, 0, 60, 81
2, 474720, Note_on_c, 0, 64, 81
2, 474721, Note_on_c, 0, 60, 0
2, 474960, Note_on_c, 0, 67, 82
2, 474961, Note_on_c, 0, 64, 0
2, 475200, Note_on_c, 0, 71, 82
2, 475201, Note_on_c, 0, 67, 0
2, 475440, Note_on_c, 0, 70, 82
2, 475441, Note_on_c, 0, 71, 0
2, 475680, Note_on_c, 0, 67, 83
2, 475681, Note_on_c, 0, 70, 0
2, 475920, Note_on_c, 0, 68, 83
2, 475921, Note_on_c, 0, 67, 0
2, 476160, Note_on_c, 0, 65, 83
2, 476161, Note_on_c, 0, 68, 0
2, 476400, Note_on_c, 0, 80, 81
2, 476401, Note_on_c, 0, 65, 0
2, 476640, Note_on_c, 0, 80, 0
2, 476640, Note_on_c, 0, 77, 82
2, 476880, Note_on_c, 0, 77, 0
2, 476880, Note_on_c, 0, 74, 83
2, 477120, Note_on_c, 0, 74, 0
2, 477120, Note_on_c, 0, 70, 85
2, 477360, Note_on_c, 0, 70, 0
2, 477360, Note_on_c, 0, 72, 86
2, 477600, Note_on_c, 0, 72, 0
2, 477600, Note_on_c, 0, 74, 87
2, 477840, Note_on_c, 0, 74, 0
2, 477840, Note_on_c, 0, 75, 89
2, 478080, Note_on_c, 0, 75, 0
2, 478080, Note_on_c, 0, 79, 90
2, 478320, Note_on_c, 0, 79, 0
2, 478320, Note_on_c, 0, 63, 87
2, 478539, Note_on_c, 0, 63, 0
2, 478560, Note_on_c, 0, 67, 87
2, 478779, Note_on_c, 0, 67, 0
2, 478800, Note_on_c, 0, 70, 88
2, 479019, Note_on_c, 0, 70, 0
2, 479040, Note_on_c, 0, 74, 88
2, 479259, Note_on_c, 0, 74, 0
2, 479280, Note_on_c, 0, 73, 88
2, 479499, Note_on_c, 0, 73, 0
2, 479520, Note_on_c, 0, 70, 89
2, 479739, Note_on_c, 0, 70, 0
2, 479760, Note_on_c, 0, 72, 89
2, 479979, Note_on_c, 0, 72, 0
2, 480000, Note_on_c, 0, 72, 89
2, 480219, Note_on_c, 0, 72, 0
2, 480240, Note_on_c, 0, 73, 90
2, 480459, Note_on_c, 0, 73, 0
2, 480480, Note_on_c, 0, 72, 90
2, 480699, Note_on_c, 0, 72, 0
2, 480720, Note_on_c, 0, 72, 91
2, 480939, Note_on_c, 0, 72, 0
2, 480960, Note_on_c, 0, 70, 91
2, 481179, Note_on_c, 0, 70, 0
2, 481200, Note_on_c, 0, 68, 91
2, 481419, Note_on_c, 0, 68, 0
2, 481440, Note_on_c, 0, 67, 92
2, 481659, Note_on_c, 0, 67, 0
2, 481680, Note_on_c, 0, 68, 92
2, 481920, Note_on_c, 0, 68, 0
2, 482160, Note_on_c, 0, 82, 89
2, 482400, Note_on_c, 0, 82, 0
2, 482400, Note_on_c, 0, 79, 89
2, 482640, Note_on_c, 0, 79, 0
2, 482640, Note_on_c, 0, 76, 90
2, 482880, Note_on_c, 0, 76, 0
2, 482880, Note_on_c, 0, 72, 91
2, 483120, Note_on_c, 0, 72, 0
2, 483120, Note_on_c, 0, 74, 91
2, 483360, Note_on_c, 0, 74, 0
2, 483360, Note_on_c, 0, 76, 92
2, 483600, Note_on_c, 0, 76, 0
2, 483600, Note_on_c, 0, 77, 92
2, 483840, Note_on_c, 0, 77, 0
2, 483840, Note_on_c, 0, 80, 93
2, 484080, Note_on_c, 0, 80, 0
2, 484080, Note_on_c, 0, 70, 93
2, 484320, Note_on_c, 0, 70, 0
2, 484320, Note_on_c, 0, 74, 94
2, 484539, Note_on_c, 0, 74, 0
2, 484560, Note_on_c, 0, 77, 95
2, 484779, Note_on_c, 0, 77, 0
2, 484800, Note_on_c, 0, 81, 95
2, 485019, Note_on_c, 0, 81, 0
2, 485040, Note_on_c, 0, 80, 96
2, 485259, Note_on_c, 0, 80, 0
2, 485280, Note_on_c, 0, 77, 96
2, 485499, Note_on_c, 0, 77, 0
2, 485520, Note_on_c, 0, 79, 97
2, 485739, Note_on_c, 0, 79, 0
2, 485760, Note_on_c, 0, 75, 97
2, 485979, Note_on_c, 0, 75, 0
2, 486000, Note_on_c, 0, 85, 98
2, 486240, Note_on_c, 0, 85, 0
2, 486240, Note_on_c, 0, 82, 98
2, 486480, Note_on_c, 0, 82, 0
2, 486480, Note_on_c, 0, 79, 99
2, 486720, Note_on_c, 0, 79, 0
2, 486720, Note_on_c, 0, 75, 101
2, 486960, Note_on_c, 0, 75, 0
2, 486960, Note_on_c, 0, 77, 102
2, 487200, Note_on_c, 0, 77, 0
2, 487200, Note_on_c, 0, 79, 103
2, 487440, Note_on_c, 0, 79, 0
2, 487440, Note_on_c, 0, 80, 104
2, 487680, Note_on_c, 0, 80, 0
2, 487800, Note_on_c, 0, 87, 106
2, 487920, Note_on_c, 0, 87, 0
2, 488040, Note_on_c, 0, 87, 107
2, 488160, Note_on_c, 0, 87, 0
2, 488280, Note_on_c, 0, 87, 108
2, 488400, Note_on_c, 0, 87, 0
2, 488520, Note_on_c, 0, 87, 110
2, 488640, Note_on_c, 0, 87, 0
2, 488760, Note_on_c, 0, 85, 111
2, 488880, Note_on_c, 0, 85, 0
2, 489000, Note_on_c, 0, 84, 112
2, 489120, Note_on_c, 0, 84, 0
2, 489240, Note_on_c, 0, 82, 113
2, 489360, Note_on_c, 0, 82, 0
2, 489360, Note_on_c, 0, 80, 114
2, 489480, Note_on_c, 0, 80, 0
2, 491520, Note_on_c, 0, 79, 113
2, 491640, Note_on_c, 0, 79, 0
2, 491760, Note_on_c, 0, 79, 95
2, 492000, Note_on_c, 0, 80, 93
2, 492012, Note_on_c, 0, 79, 0
2, 492240, Note_on_c, 0, 77, 91
2, 492252, Note_on_c, 0, 80, 0
2, 492480, Note_on_c, 0, 79, 89
2, 492492, Note_on_c, 0, 77, 0
2, 492720, Note_on_c, 0, 75, 87
2, 492732, Note_on_c, 0, 79, 0
2, 492950, Note_on_c, 0, 75, 0
2, 492960, Note_on_c, 0, 77, 85
2, 493190, Note_on_c, 0, 77, 0
2, 493200, Note_on_c, 0, 74, 83
2, 493320, Note_on_c, 0, 74, 0
2, 493440, Note_on_c, 0, 82, 107
2, 493560, Note_on_c, 0, 82, 0
2, 493920, Note_on_c, 0, 82, 76
2, 494040, Note_on_c, 0, 82, 0
2, 494400, Note_on_c, 0, 86, 75
2, 494520, Note_on_c, 0, 86, 0
2, 494880, Note_on_c, 0, 89, 73
2, 495000, Note_on_c, 0, 89, 0
2, 495120, Note_on_c, 0, 86, 72
2, 495240, Note_on_c, 0, 86, 0
2, 495360, Note_on_c, 0, 82, 71
2, 495480, Note_on_c, 0, 82, 0
2, 495840, Note_on_c, 0, 82, 70
2, 495960, Note_on_c, 0, 82, 0
2, 496320, Note_on_c, 0, 86, 68
2, 496440, Note_on_c, 0, 86, 0
2, 496800, Note_on_c, 0, 89, 66
2, 496920, Note_on_c, 0, 89, 0
2, 497040, Note_on_c, 0, 86, 65
2, 497160, Note_on_c, 0, 86, 0
2, 497280, Note_on_c, 0, 82, 64
2, 497400, Note_on_c, 0, 82, 0
2, 497520, Note_on_c, 0, 80, 63
2, 497760, Note_on_c, 0, 82, 65
2, 497783, Note_on_c, 0, 80, 0
2, 497990, Note_on_c, 0, 82, 0
2, 498000, Note_on_c, 0, 80, 67
2, 498230, Note_on_c, 0, 80, 0
2, 498240, Note_on_c, 0, 82, 69
2, 498470, Note_on_c, 0, 82, 0
2, 498480, Note_on_c, 0, 80, 71
2, 498710, Note_on_c, 0, 80, 0
2, 498720, Note_on_c, 0, 82, 73
2, 498950, Note_on_c, 0, 82, 0
2, 498960, Note_on_c, 0, 80, 75
2, 499190, Note_on_c, 0, 80, 0
2, 499200, Note_on_c, 0, 82, 77
2, 499430, Note_on_c, 0, 82, 0
2, 499440, Note_on_c, 0, 80, 79
2, 499670, Note_on_c, 0, 80, 0
2, 499680, Note_on_c, 0, 82, 81
2, 499910, Note_on_c, 0, 82, 0
2, 499920, Note_on_c, 0, 80, 83
2, 500150, Note_on_c, 0, 80, 0
2, 500160, Note_on_c, 0, 82, 84
2, 500390, Note_on_c, 0, 82, 0
2, 500400, Note_on_c, 0, 80, 86
2, 500630, Note_on_c, 0, 80, 0
2, 500640, Note_on_c, 0, 82, 88
2, 500870, Note_on_c, 0, 82, 0
2, 500880, Note_on_c, 0, 80, 90
2, 501110, Note_on_c, 0, 80, 0
2, 501120, Note_on_c, 0, 82, 92
2, 501350, Note_on_c, 0, 82, 0
2, 501360, Note_on_c, 0, 80, 94
2, 501590, Note_on_c, 0, 80, 0
2, 501600, Note_on_c, 0, 82, 96
2, 501830, Note_on_c, 0, 82, 0
2, 501840, Note_on_c, 0, 80, 98
2, 502070, Note_on_c, 0, 80, 0
2, 502080, Note_on_c, 0, 82, 100
2, 502310, Note_on_c, 0, 82, 0
2, 502320, Note_on_c, 0, 80, 102
2, 502550, Note_on_c, 0, 80, 0
2, 502560, Note_on_c, 0, 82, 104
2, 502790, Note_on_c, 0, 82, 0
2, 502800, Note_on_c, 0, 79, 106
2, 502920, Note_on_c, 0, 79, 0
2, 503040, Note_on_c, 0, 75, 117
2, 503160, Note_on_c, 0, 75, 0
2, 503160, Note_on_c, 0, 74, 109
2, 503280, Note_on_c, 0, 74, 0
2, 503280, Note_on_c, 0, 72, 107
2, 503400, Note_on_c, 0, 72, 0
2, 503400, Note_on_c, 0, 70, 106
2, 503520, Note_on_c, 0, 70, 0
2, 503520, Note_on_c, 0, 68, 104
2, 503640, Note_on_c, 0, 68, 0
2, 503640, Note_on_c, 0, 67, 103
2, 503760, Note_on_c, 0, 67, 0
2, 503760, Note_on_c, 0, 65, 101
2, 503880, Note_on_c, 0, 65, 0
2, 503880, Note_on_c, 0, 63, 100
2, 504000, Note_on_c, 0, 63, 0
2, 504000, Note_on_c, 0, 62, 98
2, 504120, Note_on_c, 0, 62, 0
2, 504120, Note_on_c, 0, 60, 97
2, 504240, Note_on_c, 0, 60, 0
2, 504240, Note_on_c, 0, 58, 96
2, 504360, Note_on_c, 0, 58, 0
2, 504360, Note_on_c, 0, 56, 94
2, 504480, Note_on_c, 0, 56, 0
2, 504480, Note_on_c, 0, 55, 93
2, 504600, Note_on_c, 0, 55, 0
2, 504600, Note_on_c, 0, 53, 91
2, 504720, Note_on_c, 0, 53, 0
2, 504720, Note_on_c, 0, 51, 90
2, 504840, Note_on_c, 0, 51, 0
2, 504960, Note_on_c, 0, 79, 117
2, 505080, Note_on_c, 0, 79, 0
2, 505080, Note_on_c, 0, 77, 111
2, 505200, Note_on_c, 0, 77, 0
2, 505200, Note_on_c, 0, 75, 110
2, 505280, Note_on_c, 0, 75, 0
2, 505280, Note_on_c, 0, 74, 109
2, 505360, Note_on_c, 0, 74, 0
2, 505360, Note_on_c, 0, 72, 108
2, 505440, Note_on_c, 0, 72, 0
2, 505440, Note_on_c, 0, 70, 107
2, 505520, Note_on_c, 0, 70, 0
2, 505520, Note_on_c, 0, 68, 107
2, 505600, Note_on_c, 0, 68, 0
2, 505600, Note_on_c, 0, 67, 106
2, 505680, Note_on_c, 0, 67, 0
2, 505680, Note_on_c, 0, 65, 105
2, 505800, Note_on_c, 0, 65, 0
2, 505800, Note_on_c, 0, 63, 104
2, 505920, Note_on_c, 0, 63, 0
2, 505920, Note_on_c, 0, 62, 103
2, 506040, Note_on_c, 0, 62, 0
2, 506040, Note_on_c, 0, 60, 102
2, 506160, Note_on_c, 0, 60, 0
2, 506160, Note_on_c, 0, 58, 100
2, 506280, Note_on_c, 0, 58, 0
2, 506280, Note_on_c, 0, 56, 99
2, 506400, Note_on_c, 0, 56, 0
2, 506400, Note_on_c, 0, 55, 98
2, 506520, Note_on_c, 0, 55, 0
2, 506520, Note_on_c, 0, 53, 97
2, 506640, Note_on_c, 0, 53, 0
2, 506640, Note_on_c, 0, 51, 96
2, 506760, Note_on_c, 0, 51, 0
2, 506880, Note_on_c, 0, 82, 125
2, 507000, Note_on_c, 0, 82, 0
2, 507000, Note_on_c, 0, 80, 118
2, 507120, Note_on_c, 0, 80, 0
2, 507120, Note_on_c, 0, 79, 117
2, 507180, Note_on_c, 0, 79, 0
2, 507180, Note_on_c, 0, 77, 116
2, 507240, Note_on_c, 0, 77, 0
2, 507240, Note_on_c, 0, 75, 116
2, 507300, Note_on_c, 0, 75, 0
2, 507300, Note_on_c, 0, 74, 115
2, 507360, Note_on_c, 0, 74, 0
2, 507360, Note_on_c, 0, 72, 114
2, 507420, Note_on_c, 0, 72, 0
2, 507420, Note_on_c, 0, 70, 113
2, 507480, Note_on_c, 0, 70, 0
2, 507480, Note_on_c, 0, 68, 113
2, 507540, Note_on_c, 0, 68, 0
2, 507540, Note_on_c, 0, 67, 112
2, 507600, Note_on_c, 0, 67, 0
2, 507600, Note_on_c, 0, 65, 111
2, 507720, Note_on_c, 0, 65, 0
2, 507720, Note_on_c, 0, 63, 110
2, 507840, Note_on_c, 0, 63, 0
2, 507840, Note_on_c, 0, 62, 108
2, 507960, Note_on_c, 0, 62, 0
2, 507960, Note_on_c, 0, 60, 107
2, 508080, Note_on_c, 0, 60, 0
2, 508080, Note_on_c, 0, 58, 105
2, 508200, Note_on_c, 0, 58, 0
2, 508200, Note_on_c, 0, 56, 104
2, 508320, Note_on_c, 0, 56, 0
2, 508320, Note_on_c, 0, 55, 102
2, 508440, Note_on_c, 0, 55, 0
2, 508440, Note_on_c, 0, 53, 101
2, 508560, Note_on_c, 0, 53, 0
2, 508560, Note_on_c, 0, 51, 99
2, 508680, Note_on_c, 0, 51, 0
2, 509040, Note_on_c, 0, 67, 69
2, 509270, Note_on_c, 0, 67, 0
2, 509280, Note_on_c, 0, 68, 68
2, 509510, Note_on_c, 0, 68, 0
2, 510000, Note_on_c, 0, 70, 65
2, 510219, Note_on_c, 0, 70, 0
2, 510240, Note_on_c, 0, 72, 64
2, 510459, Note_on_c, 0, 72, 0
2, 510960, Note_on_c, 0, 73, 66
2, 511190, Note_on_c, 0, 73, 0
2, 511200, Note_on_c, 0, 74, 69
2, 511430, Note_on_c, 0, 74, 0
2, 511440, Note_on_c, 0, 75, 71
2, 511670, Note_on_c, 0, 75, 0
2, 511680, Note_on_c, 0, 74, 74
2, 511910, Note_on_c, 0, 74, 0
2, 511920, Note_on_c, 0, 75, 77
2, 512150, Note_on_c, 0, 75, 0
2, 512160, Note_on_c, 0, 74, 81
2, 512390, Note_on_c, 0, 74, 0
2, 512400, Note_on_c, 0, 75, 84
2, 512630, Note_on_c, 0, 75, 0
2, 512640, Note_on_c, 0, 74, 84
2, 512870, Note_on_c, 0, 74, 0
2, 512880, Note_on_c, 0, 75, 79
2, 513099, Note_on_c, 0, 75, 0
2, 513120, Note_on_c, 0, 77, 78
2, 513339, Note_on_c, 0, 77, 0
2, 513360, Note_on_c, 0, 73, 77
2, 513579, Note_on_c, 0, 73, 0
2, 513600, Note_on_c, 0, 75, 75
2, 513819, Note_on_c, 0, 75, 0
2, 513840, Note_on_c, 0, 72, 74
2, 514070, Note_on_c, 0, 72, 0
2, 514080, Note_on_c, 0, 73, 73
2, 514310, Note_on_c, 0, 73, 0
2, 514320, Note_on_c, 0, 70, 71
2, 514550, Note_on_c, 0, 70, 0
2, 514560, Note_on_c, 0, 72, 70
2, 514790, Note_on_c, 0, 72, 0
2, 514800, Note_on_c, 0, 68, 68
2, 515030, Note_on_c, 0, 68, 0
2, 515040, Note_on_c, 0, 70, 67
2, 515270, Note_on_c, 0, 70, 0
2, 515280, Note_on_c, 0, 67, 66
2, 515520, Note_on_c, 0, 67, 0
2, 515760, Note_on_c, 0, 67, 63
2, 515990, Note_on_c, 0, 67, 0
2, 516000, Note_on_c, 0, 68, 65
2, 516230, Note_on_c, 0, 68, 0
2, 516240, Note_on_c, 0, 70, 67
2, 516470, Note_on_c, 0, 70, 0
2, 516480, Note_on_c, 0, 72, 68
2, 516710, Note_on_c, 0, 72, 0
2, 516720, Note_on_c, 0, 73, 70
2, 516950, Note_on_c, 0, 73, 0
2, 516960, Note_on_c, 0, 74, 72
2, 517190, Note_on_c, 0, 74, 0
2, 517200, Note_on_c, 0, 75, 73
2, 517430, Note_on_c, 0, 75, 0
2, 517440, Note_on_c, 0, 75, 75
2, 517680, Note_on_c, 0, 75, 0
2, 517680, Note_on_c, 0, 75, 75
2, 517918, Note_on_c, 0, 75, 0
2, 517920, Note_on_c, 0, 75, 78
2, 518155, Note_on_c, 0, 75, 0
2, 518160, Note_on_c, 0, 75, 80
2, 518395, Note_on_c, 0, 75, 0
2, 518400, Note_on_c, 0, 75, 81
2, 518580, Note_on_c, 0, 75, 0
2, 518640, Note_on_c, 0, 72, 65
2, 518880, Note_on_c, 0, 69, 66
2, 518894, Note_on_c, 0, 72, 0
2, 519099, Note_on_c, 0, 69, 0
2, 519120, Note_on_c, 0, 70, 67
2, 519339, Note_on_c, 0, 70, 0
2, 519360, Note_on_c, 0, 67, 68
2, 519579, Note_on_c, 0, 67, 0
2, 519600, Note_on_c, 0, 68, 69
2, 519808, Note_on_c, 0, 68, 0
2, 519840, Note_on_c, 0, 65, 70
2, 520048, Note_on_c, 0, 65, 0
2, 520080, Note_on_c, 0, 67, 71
2, 520288, Note_on_c, 0, 67, 0
2, 520320, Note_on_c, 0, 64, 72
2, 520528, Note_on_c, 0, 64, 0
2, 520560, Note_on_c, 0, 65, 73
2, 520790, Note_on_c, 0, 65, 0
2, 520800, Note_on_c, 0, 62, 74
2, 521030, Note_on_c, 0, 62, 0
2, 521040, Note_on_c, 0, 63, 74
2, 521280, Note_on_c, 0, 63, 0
2, 521520, Note_on_c, 0, 85, 75
2, 521760, Note_on_c, 0, 85, 0
2, 521760, Note_on_c, 0, 84, 77
2, 522000, Note_on_c, 0, 84, 0
2, 522000, Note_on_c, 0, 82, 78
2, 522240, Note_on_c, 0, 82, 0
2, 522240, Note_on_c, 0, 80, 80
2, 522480, Note_on_c, 0, 80, 0
2, 522480, Note_on_c, 0, 79, 82
2, 522720, Note_on_c, 0, 79, 0
2, 522720, Note_on_c, 0, 77, 84
2, 522960, Note_on_c, 0, 77, 0
2, 522960, Note_on_c, 0, 75, 85
2, 523080, Note_on_c, 0, 75, 0
2, 523200, Note_on_c, 0, 75, 87
2, 523320, Note_on_c, 0, 75, 0
2, 523440, Note_on_c, 0, 75, 89
2, 523560, Note_on_c, 0, 75, 0
2, 523680, Note_on_c, 0, 75, 91
2, 523800, Note_on_c, 0, 75, 0
2, 523920, Note_on_c, 0, 75, 92
2, 524040, Note_on_c, 0, 75, 0
2, 524400, Note_on_c, 0, 60, 81
2, 524640, Note_on_c, 0, 64, 81
2, 524641, Note_on_c, 0, 60, 0
2, 524880, Note_on_c, 0, 67, 82
2, 524881, Note_on_c, 0, 64, 0
2, 525120, Note_on_c, 0, 71, 82
2, 525121, Note_on_c, 0, 67, 0
2, 525360, Note_on_c, 0, 70, 82
2, 525361, Note_on_c, 0, 71, 0
2, 525600, Note_on_c, 0, 67, 83
2, 525601, Note_on_c, 0, 70, 0
2, 525840, Note_on_c, 0, 68, 83
2, 525841, Note_on_c, 0, 67, 0
2, 526080, Note_on_c, 0, 65, 83
2, 526081, Note_on_c, 0, 68, 0
2, 526320, Note_on_c, 0, 80, 81
2, 526321, Note_on_c, 0, 65, 0
2, 526560, Note_on_c, 0, 80, 0
2, 526560, Note_on_c, 0, 77, 82
2, 526800, Note_on_c, 0, 77, 0
2, 526800, Note_on_c, 0, 74, 83
2, 527040, Note_on_c, 0, 74, 0
2, 527040, Note_on_c, 0, 70, 85
2, 527280, Note_on_c, 0, 70, 0
2, 527280, Note_on_c, 0, 72, 86
2, 527520, Note_on_c, 0, 72, 0
2, 527520, Note_on_c, 0, 74, 87
2, 527760, Note_on_c, 0, 74, 0
2, 527760, Note_on_c, 0, 75, 89
2, 528000, Note_on_c, 0, 75, 0
2, 528000, Note_on_c, 0, 79, 90
2, 528240, Note_on_c, 0, 79, 0
2, 528240, Note_on_c, 0, 63, 87
2, 528459, Note_on_c, 0, 63, 0
2, 528480, Note_on_c, 0, 67, 87
2, 528699, Note_on_c, 0, 67, 0
2, 528720, Note_on_c, 0, 70, 88
2, 528939, Note_on_c, 0, 70, 0
2, 528960, Note_on_c, 0, 74, 88
2, 529179, Note_on_c, 0, 74, 0
2, 529200, Note_on_c, 0, 73, 88
2, 529419, Note_on_c, 0, 73, 0
2, 529440, Note_on_c, 0, 70, 89
2, 529659, Note_on_c, 0, 70, 0
2, 529680, Note_on_c, 0, 72, 89
2, 529899, Note_on_c, 0, 72, 0
2, 529920, Note_on_c, 0, 72, 89
2, 530139, Note_on_c, 0, 72, 0
2, 530160, Note_on_c, 0, 73, 90
2, 530379, Note_on_c, 0, 73, 0
2, 530400, Note_on_c, 0, 72, 90
2, 530619, Note_on_c, 0, 72, 0
2, 530640, Note_on_c, 0, 72, 91
2, 530859, Note_on_c, 0, 72, 0
2, 530880, Note_on_c, 0, 70, 91
2, 531099, Note_on_c, 0, 70, 0
2, 531120, Note_on_c, 0, 68, 91
2, 531339, Note_on_c, 0, 68, 0
2, 531360, Note_on_c, 0, 67, 92
2, 531579, Note_on_c, 0, 67, 0
2, 531600, Note_on_c, 0, 68, 92
2, 531840, Note_on_c, 0, 68, 0
2, 532080, Note_on_c, 0, 82, 89
2, 532320, Note_on_c, 0, 82, 0
2, 532320, Note_on_c, 0, 79, 89
2, 532560, Note_on_c, 0, 79, 0
2, 532560, Note_on_c, 0, 76, 90
2, 532800, Note_on_c, 0, 76, 0
2, 532800, Note_on_c, 0, 72, 91
2, 533040, Note_on_c, 0, 72, 0
2, 533040, Note_on_c, 0, 74, 91
2, 533280, Note_on_c, 0, 74, 0
2, 533280, Note_on_c, 0, 76, 92
2, 533520, Note_on_c, 0, 76, 0
2, 533520, Note_on_c, 0, 77, 92
2, 533760, Note_on_c, 0, 77, 0
2, 533760, Note_on_c, 0, 80, 93
2, 534000, Note_on_c, 0, 80, 0
2, 534000, Note_on_c, 0, 70, 93
2, 534120, Note_on_c, 0, 70, 0
2, 534240, Note_on_c, 0, 74, 94
2, 534459, Note_on_c, 0, 74, 0
2, 534480, Note_on_c, 0, 77, 95
2, 534699, Note_on_c, 0, 77, 0
2, 534720, Note_on_c, 0, 81, 95
2, 534939, Note_on_c, 0, 81, 0
2, 534960, Note_on_c, 0, 80, 96
2, 535179, Note_on_c, 0, 80, 0
2, 535200, Note_on_c, 0, 77, 96
2, 535419, Note_on_c, 0, 77, 0
2, 535440, Note_on_c, 0, 79, 97
2, 535659, Note_on_c, 0, 79, 0
2, 535680, Note_on_c, 0, 75, 97
2, 535899, Note_on_c, 0, 75, 0
2, 535920, Note_on_c, 0, 85, 98
2, 536160, Note_on_c, 0, 85, 0
2, 536160, Note_on_c, 0, 82, 98
2, 536400, Note_on_c, 0, 82, 0
2, 536400, Note_on_c, 0, 79, 99
2, 536640, Note_on_c, 0, 79, 0
2, 536640, Note_on_c, 0, 75, 101
2, 536880, Note_on_c, 0, 75, 0
2, 536880, Note_on_c, 0, 77, 102
2, 537120, Note_on_c, 0, 77, 0
2, 537120, Note_on_c, 0, 79, 103
2, 537360, Note_on_c, 0, 79, 0
2, 537360, Note_on_c, 0, 80, 104
2, 537600, Note_on_c, 0, 80, 0
2, 537720, Note_on_c, 0, 87, 106
2, 537840, Note_on_c, 0, 87, 0
2, 537960, Note_on_c, 0, 87, 107
2, 538080, Note_on_c, 0, 87, 0
2, 538200, Note_on_c, 0, 87, 108
2, 538320, Note_on_c, 0, 87, 0
2, 538440, Note_on_c, 0, 87, 110
2, 538560, Note_on_c, 0, 87, 0
2, 538680, Note_on_c, 0, 85, 111
2, 538800, Note_on_c, 0, 85, 0
2, 538920, Note_on_c, 0, 84, 112
2, 539040, Note_on_c, 0, 84, 0
2, 539160, Note_on_c, 0, 82, 113
2, 539280, Note_on_c, 0, 82, 0
2, 539280, Note_on_c, 0, 80, 114
2, 539400, Note_on_c, 0, 80, 0
2, 539760, Control_c, 0, 64, 0
2, 539760, Note_on_c, 0, 60, 53
2, 539994, Note_on_c, 0, 60, 0
2, 540000, Note_on_c, 0, 60, 56
2, 540234, Note_on_c, 0, 60, 0
2, 540240, Note_on_c, 0, 60, 58
2, 540474, Note_on_c, 0, 60, 0
2, 540480, Note_on_c, 0, 62, 61
2, 540714, Note_on_c, 0, 62, 0
2, 540720, Note_on_c, 0, 63, 63
2, 540960, Note_on_c, 0, 63, 0
2, 540960, Note_on_c, 0, 65, 66
2, 541200, Note_on_c, 0, 65, 0
2, 541200, Note_on_c, 0, 67, 68
2, 541440, Note_on_c, 0, 67, 0
2, 541440, Note_on_c, 0, 71, 71
2, 541680, Note_on_c, 0, 71, 0
2, 541680, Note_on_c, 0, 72, 73
2, 541914, Note_on_c, 0, 72, 0
2, 541920, Note_on_c, 0, 74, 76
2, 542154, Note_on_c, 0, 74, 0
2, 542160, Note_on_c, 0, 75, 79
2, 542400, Note_on_c, 0, 75, 0
2, 542400, Note_on_c, 0, 75, 83
2, 542640, Note_on_c, 0, 75, 0
2, 542640, Note_on_c, 0, 74, 87
2, 542760, Note_on_c, 0, 74, 0
2, 542880, Note_on_c, 0, 78, 101
2, 543000, Note_on_c, 0, 78, 0
2, 543120, Note_on_c, 0, 79, 105
2, 543240, Note_on_c, 0, 79, 0
2, 543600, Note_on_c, 0, 60, 62
2, 543822, Note_on_c, 0, 60, 0
2, 543840, Note_on_c, 0, 60, 65
2, 544062, Note_on_c, 0, 60, 0
2, 544080, Note_on_c, 0, 60, 68
2, 544302, Note_on_c, 0, 60, 0
2, 544320, Note_on_c, 0, 62, 70
2, 544542, Note_on_c, 0, 62, 0
2, 544560, Note_on_c, 0, 63, 73
2, 544788, Note_on_c, 0, 63, 0
2, 544800, Note_on_c, 0, 65, 76
2, 545028, Note_on_c, 0, 65, 0
2, 545040, Note_on_c, 0, 67, 79
2, 545268, Note_on_c, 0, 67, 0
2, 545280, Note_on_c, 0, 71, 82
2, 545508, Note_on_c, 0, 71, 0
2, 545520, Note_on_c, 0, 72, 85
2, 545748, Note_on_c, 0, 72, 0
2, 545760, Note_on_c, 0, 74, 88
2, 545988, Note_on_c, 0, 74, 0
2, 546000, Note_on_c, 0, 75, 92
2, 546228, Note_on_c, 0, 75, 0
2, 546240, Note_on_c, 0, 75, 97
2, 546468, Note_on_c, 0, 75, 0
2, 546480, Note_on_c, 0, 74, 102
2, 546600, Note_on_c, 0, 74, 0
2, 546720, Note_on_c, 0, 78, 111
2, 546840, Note_on_c, 0, 78, 0
2, 546960, Note_on_c, 0, 79, 115
2, 547080, Note_on_c, 0, 79, 0
2, 547440, Control_c, 0, 64, 0
2, 547440, Note_on_c, 0, 60, 53
2, 547674, Note_on_c, 0, 60, 0
2, 547680, Note_on_c, 0, 60, 56
2, 547914, Note_on_c, 0, 60, 0
2, 547920, Note_on_c, 0, 60, 58
2, 548154, Note_on_c, 0, 60, 0
2, 548160, Note_on_c, 0, 62, 61
2, 548394, Note_on_c, 0, 62, 0
2, 548400, Note_on_c, 0, 63, 63
2, 548640, Note_on_c, 0, 63, 0
2, 548640, Note_on_c, 0, 65, 66
2, 548880, Note_on_c, 0, 65, 0
2, 548880, Note_on_c, 0, 67, 68
2, 549120, Note_on_c, 0, 67, 0
2, 549120, Note_on_c, 0, 71, 71
2, 549360, Note_on_c, 0, 71, 0
2, 549360, Note_on_c, 0, 72, 73
2, 549594, Note_on_c, 0, 72, 0
2, 549600, Note_on_c, 0, 74, 76
2, 549834, Note_on_c, 0, 74, 0
2, 549840, Note_on_c, 0, 75, 79
2, 550080, Note_on_c, 0, 75, 0
2, 550080, Note_on_c, 0, 75, 83
2, 550320, Note_on_c, 0, 75, 0
2, 550320, Note_on_c, 0, 74, 87
2, 550440, Note_on_c, 0, 74, 0
2, 550560, Note_on_c, 0, 78, 101
2, 550680, Note_on_c, 0, 78, 0
2, 550800, Note_on_c, 0, 79, 105
2, 550920, Note_on_c, 0, 79, 0
2, 551280, Note_on_c, 0, 60, 62
2, 551502, Note_on_c, 0, 60, 0
2, 551520, Note_on_c, 0, 60, 65
2, 551742, Note_on_c, 0, 60, 0
2, 551760, Note_on_c, 0, 60, 68
2, 551982, Note_on_c, 0, 60, 0
2, 552000, Note_on_c, 0, 62, 70
2, 552222, Note_on_c, 0, 62, 0
2, 552240, Note_on_c, 0, 63, 73
2, 552468, Note_on_c, 0, 63, 0
2, 552480, Note_on_c, 0, 65, 76
2, 552708, Note_on_c, 0, 65, 0
2, 552720, Note_on_c, 0, 67, 79
2, 552948, Note_on_c, 0, 67, 0
2, 552960, Note_on_c, 0, 71, 82
2, 553188, Note_on_c, 0, 71, 0
2, 553200, Note_on_c, 0, 72, 85
2, 553428, Note_on_c, 0, 72, 0
2, 553440, Note_on_c, 0, 74, 88
2, 553668, Note_on_c, 0, 74, 0
2, 553680, Note_on_c, 0, 75, 92
2, 553908, Note_on_c, 0, 75, 0
2, 553920, Note_on_c, 0, 75, 97
2, 554148, Note_on_c, 0, 75, 0
2, 554160, Note_on_c, 0, 74, 102
2, 554280, Note_on_c, 0, 74, 0
2, 554400, Note_on_c, 0, 78, 111
2, 554520, Note_on_c, 0, 78, 0
2, 554640, Note_on_c, 0, 79, 115
2, 554760, Note_on_c, 0, 79, 0
2, 555120, Control_c, 0, 64, 0
2, 555120, Note_on_c, 0, 70, 79
2, 555348, Note_on_c, 0, 70, 0
2, 555360, Note_on_c, 0, 70, 78
2, 555588, Note_on_c, 0, 70, 0
2, 555600, Note_on_c, 0, 70, 77
2, 555828, Note_on_c, 0, 70, 0
2, 555840, Note_on_c, 0, 72, 77
2, 556068, Note_on_c, 0, 72, 0
2, 556080, Note_on_c, 0, 74, 76
2, 556200, Note_on_c, 0, 74, 0
2, 556320, Note_on_c, 0, 77, 91
2, 556440, Note_on_c, 0, 77, 0
2, 556560, Note_on_c, 0, 79, 98
2, 556680, Note_on_c, 0, 79, 0
2, 557040, Note_on_c, 0, 70, 73
2, 557268, Note_on_c, 0, 70, 0
2, 557280, Note_on_c, 0, 70, 72
2, 557508, Note_on_c, 0, 70, 0
2, 557520, Note_on_c, 0, 70, 72
2, 557748, Note_on_c, 0, 70, 0
2, 557760, Note_on_c, 0, 70, 71
2, 557988, Note_on_c, 0, 70, 0
2, 558000, Note_on_c, 0, 70, 70
2, 558228, Note_on_c, 0, 70, 0
2, 558240, Note_on_c, 0, 76, 80
2, 558360, Note_on_c, 0, 76, 0
2, 558480, Note_on_c, 0, 77, 83
2, 558600, Note_on_c, 0, 77, 0
2, 559680, Note_on_c, 0, 70, 65
2, 559908, Note_on_c, 0, 70, 0
2, 559920, Note_on_c, 0, 72, 65
2, 560154, Note_on_c, 0, 72, 0
2, 560160, Note_on_c, 0, 76, 74
2, 560280, Note_on_c, 0, 76, 0
2, 560400, Note_on_c, 0, 77, 78
2, 560520, Note_on_c, 0, 77, 0
2, 560880, Note_on_c, 0, 68, 62
2, 561114, Note_on_c, 0, 68, 0
2, 561120, Note_on_c, 0, 68, 61
2, 561354, Note_on_c, 0, 68, 0
2, 561360, Note_on_c, 0, 68, 61
2, 561594, Note_on_c, 0, 68, 0
2, 561600, Note_on_c, 0, 68, 60
2, 561834, Note_on_c, 0, 68, 0
2, 562080, Note_on_c, 0, 74, 68
2, 562200, Note_on_c, 0, 74, 0
2, 562320, Note_on_c, 0, 75, 73
2, 562440, Note_on_c, 0, 75, 0
2, 562800, Note_on_c, 0, 67, 52
2, 563028, Note_on_c, 0, 67, 0
2, 563040, Note_on_c, 0, 67, 54
2, 563268, Note_on_c, 0, 67, 0
2, 563280, Note_on_c, 0, 67, 56
2, 563508, Note_on_c, 0, 67, 0
2, 563520, Note_on_c, 0, 68, 58
2, 563748, Note_on_c, 0, 68, 0
2, 563760, Note_on_c, 0, 69, 60
2, 563994, Note_on_c, 0, 69, 0
2, 564000, Note_on_c, 0, 70, 61
2, 564234, Note_on_c, 0, 70, 0
2, 564240, Note_on_c, 0, 71, 63
2, 564474, Note_on_c, 0, 71, 0
2, 564480, Note_on_c, 0, 72, 65
2, 564714, Note_on_c, 0, 72, 0
2, 564720, Note_on_c, 0, 73, 67
2, 564954, Note_on_c, 0, 73, 0
2, 564960, Note_on_c, 0, 74, 69
2, 565194, Note_on_c, 0, 74, 0
2, 565200, Note_on_c, 0, 75, 70
2, 565434, Note_on_c, 0, 75, 0
2, 565440, Note_on_c, 0, 74, 72
2, 565674, Note_on_c, 0, 74, 0
2, 565680, Note_on_c, 0, 75, 74
2, 565914, Note_on_c, 0, 75, 0
2, 565920, Note_on_c, 0, 74, 76
2, 566154, Note_on_c, 0, 74, 0
2, 566160, Note_on_c, 0, 75, 78
2, 566394, Note_on_c, 0, 75, 0
2, 566400, Note_on_c, 0, 74, 79
2, 566634, Note_on_c, 0, 74, 0
2, 566640, Note_on_c, 0, 75, 82
2, 566859, Note_on_c, 0, 75, 0
2, 566880, Note_on_c, 0, 77, 79
2, 567099, Note_on_c, 0, 77, 0
2, 567120, Note_on_c, 0, 73, 76
2, 567339, Note_on_c, 0, 73, 0
2, 567360, Note_on_c, 0, 75, 74
2, 567579, Note_on_c, 0, 75, 0
2, 567600, Note_on_c, 0, 72, 71
2, 567830, Note_on_c, 0, 72, 0
2, 567840, Note_on_c, 0, 73, 68
2, 568070, Note_on_c, 0, 73, 0
2, 568080, Note_on_c, 0, 70, 67
2, 568310, Note_on_c, 0, 70, 0
2, 568320, Note_on_c, 0, 72, 67
2, 568550, Note_on_c, 0, 72, 0
2, 568560, Note_on_c, 0, 68, 66
2, 568790, Note_on_c, 0, 68, 0
2, 568800, Note_on_c, 0, 70, 65
2, 569030, Note_on_c, 0, 70, 0
2, 569040, Note_on_c, 0, 67, 64
2, 569280, Note_on_c, 0, 67, 0
2, 569520, Note_on_c, 0, 67, 63
2, 569750, Note_on_c, 0, 67, 0
2, 569760, Note_on_c, 0, 68, 65
2, 569990, Note_on_c, 0, 68, 0
2, 570000, Note_on_c, 0, 70, 67
2, 570230, Note_on_c, 0, 70, 0
2, 570240, Note_on_c, 0, 72, 68
2, 570470, Note_on_c, 0, 72, 0
2, 570480, Note_on_c, 0, 73, 70
2, 570710, Note_on_c, 0, 73, 0
2, 570720, Note_on_c, 0, 74, 72
2, 570950, Note_on_c, 0, 74, 0
2, 570960, Note_on_c, 0, 75, 73
2, 571190, Note_on_c, 0, 75, 0
2, 571200, Note_on_c, 0, 75, 75
2, 571440, Note_on_c, 0, 75, 0
2, 571440, Note_on_c, 0, 75, 75
2, 571680, Note_on_c, 0, 75, 0
2, 571680, Note_on_c, 0, 75, 78
2, 571915, Note_on_c, 0, 75, 0
2, 571920, Note_on_c, 0, 75, 80
2, 572155, Note_on_c, 0, 75, 0
2, 572160, Note_on_c, 0, 75, 81
2, 572340, Note_on_c, 0, 75, 0
2, 572400, Note_on_c, 0, 72, 65
2, 572640, Note_on_c, 0, 72, 0
2, 572640, Note_on_c, 0, 69, 66
2, 572880, Note_on_c, 0, 69, 0
2, 572880, Note_on_c, 0, 70, 67
2, 573120, Note_on_c, 0, 70, 0
2, 573120, Note_on_c, 0, 67, 68
2, 573360, Note_on_c, 0, 67, 0
2, 573360, Note_on_c, 0, 68, 69
2, 573600, Note_on_c, 0, 68, 0
2, 573600, Note_on_c, 0, 65, 70
2, 573840, Note_on_c, 0, 65, 0
2, 573840, Note_on_c, 0, 67, 71
2, 574048, Note_on_c, 0, 67, 0
2, 574080, Note_on_c, 0, 64, 72
2, 574288, Note_on_c, 0, 64, 0
2, 574320, Note_on_c, 0, 65, 73
2, 574550, Note_on_c, 0, 65, 0
2, 574560, Note_on_c, 0, 62, 74
2, 574790, Note_on_c, 0, 62, 0
2, 574800, Note_on_c, 0, 63, 74
2, 575040, Note_on_c, 0, 63, 0
2, 575280, Note_on_c, 0, 85, 75
2, 575520, Note_on_c, 0, 85, 0
2, 575520, Note_on_c, 0, 84, 77
2, 575760, Note_on_c, 0, 84, 0
2, 575760, Note_on_c, 0, 82, 78
2, 576000, Note_on_c, 0, 82, 0
2, 576000, Note_on_c, 0, 80, 80
2, 576240, Note_on_c, 0, 80, 0
2, 576240, Note_on_c, 0, 79, 82
2, 576480, Note_on_c, 0, 79, 0
2, 576480, Note_on_c, 0, 77, 84
2, 576720, Note_on_c, 0, 77, 0
2, 576720, Note_on_c, 0, 75, 85
2, 576840, Note_on_c, 0, 75, 0
2, 576960, Note_on_c, 0, 75, 87
2, 577080, Note_on_c, 0, 75, 0
2, 577200, Note_on_c, 0, 75, 89
2, 577320, Note_on_c, 0, 75, 0
2, 577440, Note_on_c, 0, 75, 91
2, 577560, Note_on_c, 0, 75, 0
2, 577680, Note_on_c, 0, 75, 92
2, 577800, Note_on_c, 0, 75, 0
2, 578160, Note_on_c, 0, 60, 81
2, 578400, Note_on_c, 0, 64, 81
2, 578401, Note_on_c, 0, 60, 0
2, 578640, Note_on_c, 0, 67, 82
2, 578641, Note_on_c, 0, 64, 0
2, 578880, Note_on_c, 0, 71, 82
2, 578881, Note_on_c, 0, 67, 0
2, 579120, Note_on_c, 0, 70, 82
2, 579121, Note_on_c, 0, 71, 0
2, 579360, Note_on_c, 0, 67, 83
2, 579361, Note_on_c, 0, 70, 0
2, 579600, Note_on_c, 0, 68, 83
2, 579601, Note_on_c, 0, 67, 0
2, 579840, Note_on_c, 0, 65, 83
2, 579841, Note_on_c, 0, 68, 0
2, 580080, Note_on_c, 0, 80, 81
2, 580081, Note_on_c, 0, 65, 0
2, 580320, Note_on_c, 0, 80, 0
2, 580320, Note_on_c, 0, 77, 82
2, 580560, Note_on_c, 0, 77, 0
2, 580560, Note_on_c, 0, 74, 83
2, 580800, Note_on_c, 0, 74, 0
2, 580800, Note_on_c, 0, 70, 85
2, 581040, Note_on_c, 0, 70, 0
2, 581040, Note_on_c, 0, 72, 86
2, 581280, Note_on_c, 0, 72, 0
2, 581280, Note_on_c, 0, 74, 87
2, 581520, Note_on_c, 0, 74, 0
2, 581520, Note_on_c, 0, 75, 89
2, 581760, Note_on_c, 0, 75, 0
2, 581760, Note_on_c, 0, 79, 90
2, 582000, Note_on_c, 0, 79, 0
2, 582000, Note_on_c, 0, 63, 87
2, 582219, Note_on_c, 0, 63, 0
2, 582240, Note_on_c, 0, 67, 87
2, 582459, Note_on_c, 0, 67, 0
2, 582480, Note_on_c, 0, 70, 88
2, 582699, Note_on_c, 0, 70, 0
2, 582720, Note_on_c, 0, 74, 88
2, 582939, Note_on_c, 0, 74, 0
2, 582960, Note_on_c, 0, 73, 88
2, 583179, Note_on_c, 0, 73, 0
2, 583200, Note_on_c, 0, 70, 89
2, 583419, Note_on_c, 0, 70, 0
2, 583440, Note_on_c, 0, 72, 89
2, 583659, Note_on_c, 0, 72, 0
2, 583680, Note_on_c, 0, 72, 89
2, 583899, Note_on_c, 0, 72, 0
2, 583920, Note_on_c, 0, 73, 90
2, 584139, Note_on_c, 0, 73, 0
2, 584160, Note_on_c, 0, 72, 90
2, 584379, Note_on_c, 0, 72, 0
2, 584400, Note_on_c, 0, 72, 91
2, 584619, Note_on_c, 0, 72, 0
2, 584640, Note_on_c, 0, 70, 91
2, 584859, Note_on_c, 0, 70, 0
2, 584880, Note_on_c, 0, 68, 91
2, 585099, Note_on_c, 0, 68, 0
2, 585120, Note_on_c, 0, 67, 92
2, 585339, Note_on_c, 0, 67, 0
2, 585360, Note_on_c, 0, 68, 92
2, 585600, Note_on_c, 0, 68, 0
2, 585840, Note_on_c, 0, 82, 89
2, 586080, Note_on_c, 0, 82, 0
2, 586080, Note_on_c, 0, 79, 89
2, 586320, Note_on_c, 0, 79, 0
2, 586320, Note_on_c, 0, 76, 90
2, 586560, Note_on_c, 0, 76, 0
2, 586560, Note_on_c, 0, 72, 91
2, 586800, Note_on_c, 0, 72, 0
2, 586800, Note_on_c, 0, 74, 91
2, 587040, Note_on_c, 0, 74, 0
2, 587040, Note_on_c, 0, 76, 92
2, 587280, Note_on_c, 0, 76, 0
2, 587280, Note_on_c, 0, 77, 92
2, 587520, Note_on_c, 0, 77, 0
2, 587520, Note_on_c, 0, 80, 93
2, 587760, Note_on_c, 0, 80, 0
2, 587760, Note_on_c, 0, 70, 93
2, 587880, Note_on_c, 0, 70, 0
2, 588000, Note_on_c, 0, 74, 94
2, 588219, Note_on_c, 0, 74, 0
2, 588240, Note_on_c, 0, 77, 95
2, 588459, Note_on_c, 0, 77, 0
2, 588480, Note_on_c, 0, 81, 95
2, 588699, Note_on_c, 0, 81, 0
2, 588720, Note_on_c, 0, 80, 96
2, 588939, Note_on_c, 0, 80, 0
2, 588960, Note_on_c, 0, 77, 96
2, 589179, Note_on_c, 0, 77, 0
2, 589200, Note_on_c, 0, 79, 97
2, 589419, Note_on_c, 0, 79, 0
2, 589440, Note_on_c, 0, 75, 97
2, 589659, Note_on_c, 0, 75, 0
2, 589680, Note_on_c, 0, 85, 98
2, 589920, Note_on_c, 0, 85, 0
2, 589920, Note_on_c, 0, 82, 98
2, 590160, Note_on_c, 0, 82, 0
2, 590160, Note_on_c, 0, 79, 99
2, 590400, Note_on_c, 0, 79, 0
2, 590400, Note_on_c, 0, 75, 101
2, 590640, Note_on_c, 0, 75, 0
2, 590640, Note_on_c, 0, 77, 102
2, 590880, Note_on_c, 0, 77, 0
2, 590880, Note_on_c, 0, 79, 103
2, 591120, Note_on_c, 0, 79, 0
2, 591120, Note_on_c, 0, 80, 104
2, 591360, Note_on_c, 0, 80, 0
2, 591480, Note_on_c, 0, 87, 106
2, 591600, Note_on_c, 0, 87, 0
2, 591720, Note_on_c, 0, 87, 107
2, 591840, Note_on_c, 0, 87, 0
2, 591960, Note_on_c, 0, 87, 108
2, 592080, Note_on_c, 0, 87, 0
2, 592200, Note_on_c, 0, 87, 110
2, 592320, Note_on_c, 0, 87, 0
2, 592440, Note_on_c, 0, 85, 111
2, 592560, Note_on_c, 0, 85, 0
2, 592680, Note_on_c, 0, 84, 112
2, 592800, Note_on_c, 0, 84, 0
2, 592920, Note_on_c, 0, 82, 113
2, 593040, Note_on_c, 0, 82, 0
2, 593040, Note_on_c, 0, 80, 114
2, 593160, Note_on_c, 0, 80, 0
2, 593520, Note_on_c, 0, 68, 108
2, 593760, Note_on_c, 0, 68, 0
2, 593760, Note_on_c, 0, 65, 108
2, 594000, Note_on_c, 0, 65, 0
2, 594000, Note_on_c, 0, 67, 108
2, 594240, Note_on_c, 0, 67, 0
2, 594240, Note_on_c, 0, 64, 107
2, 594480, Note_on_c, 0, 64, 0
2, 594480, Note_on_c, 0, 65, 107
2, 594720, Note_on_c, 0, 65, 0
2, 594720, Note_on_c, 0, 62, 107
2, 594960, Note_on_c, 0, 62, 0
2, 594960, Note_on_c, 0, 67, 106
2, 595080, Note_on_c, 0, 67, 0
2, 595200, Note_on_c, 0, 79, 121
2, 595320, Note_on_c, 0, 79, 0
2, 595440, Note_on_c, 0, 79, 106
2, 595680, Note_on_c, 0, 79, 0
2, 595680, Note_on_c, 0, 80, 106
2, 595920, Note_on_c, 0, 80, 0
2, 595920, Note_on_c, 0, 77, 105
2, 596160, Note_on_c, 0, 77, 0
2, 596160, Note_on_c, 0, 79, 105
2, 596400, Note_on_c, 0, 79, 0
2, 596400, Note_on_c, 0, 75, 105
2, 596640, Note_on_c, 0, 75, 0
2, 596640, Note_on_c, 0, 77, 104
2, 596880, Note_on_c, 0, 77, 0
2, 596880, Note_on_c, 0, 73, 104
2, 597000, Note_on_c, 0, 73, 0
2, 597120, Note_on_c, 0, 82, 119
2, 597240, Note_on_c, 0, 82, 0
2, 597360, Note_on_c, 0, 70, 103
2, 597600, Note_on_c, 0, 70, 0
2, 597600, Note_on_c, 0, 67, 103
2, 597840, Note_on_c, 0, 67, 0
2, 597840, Note_on_c, 0, 68, 103
2, 598080, Note_on_c, 0, 68, 0
2, 598080, Note_on_c, 0, 65, 103
2, 598320, Note_on_c, 0, 65, 0
2, 598320, Note_on_c, 0, 67, 102
2, 598560, Note_on_c, 0, 67, 0
2, 598560, Note_on_c, 0, 64, 102
2, 598800, Note_on_c, 0, 64, 0
2, 598800, Note_on_c, 0, 68, 102
2, 598920, Note_on_c, 0, 68, 0
2, 599040, Note_on_c, 0, 80, 116
2, 599160, Note_on_c, 0, 80, 0
2, 599280, Note_on_c, 0, 80, 101
2, 599520, Note_on_c, 0, 80, 0
2, 599520, Note_on_c, 0, 82, 101
2, 599760, Note_on_c, 0, 82, 0
2, 599760, Note_on_c, 0, 79, 100
2, 600000, Note_on_c, 0, 79, 0
2, 600000, Note_on_c, 0, 80, 100
2, 600240, Note_on_c, 0, 80, 0
2, 600240, Note_on_c, 0, 77, 100
2, 600480, Note_on_c, 0, 77, 0
2, 600480, Note_on_c, 0, 79, 100
2, 600720, Note_on_c, 0, 79, 0
2, 600720, Note_on_c, 0, 75, 99
2, 600840, Note_on_c, 0, 75, 0
2, 600960, Note_on_c, 0, 84, 115
2, 601080, Note_on_c, 0, 84, 0
2, 601200, Note_on_c, 0, 73, 99
2, 601320, Note_on_c, 0, 73, 0
2, 601440, Note_on_c, 0, 82, 115
2, 601560, Note_on_c, 0, 82, 0
2, 601680, Note_on_c, 0, 73, 98
2, 601800, Note_on_c, 0, 73, 0
2, 601920, Note_on_c, 0, 82, 114
2, 602040, Note_on_c, 0, 82, 0
2, 602160, Note_on_c, 0, 72, 97
2, 602280, Note_on_c, 0, 72, 0
2, 602400, Note_on_c, 0, 80, 112
2, 602520, Note_on_c, 0, 80, 0
2, 602640, Note_on_c, 0, 70, 97
2, 602760, Note_on_c, 0, 70, 0
2, 602880, Note_on_c, 0, 79, 109
2, 603000, Note_on_c, 0, 79, 0
2, 603360, Note_on_c, 0, 75, 76
2, 603480, Note_on_c, 0, 75, 0
2, 603840, Note_on_c, 0, 79, 75
2, 603960, Note_on_c, 0, 79, 0
2, 604320, Note_on_c, 0, 82, 73
2, 604440, Note_on_c, 0, 82, 0
2, 604560, Note_on_c, 0, 79, 72
2, 604680, Note_on_c, 0, 79, 0
2, 604800, Note_on_c, 0, 75, 71
2, 604920, Note_on_c, 0, 75, 0
2, 605280, Note_on_c, 0, 75, 70
2, 605400, Note_on_c, 0, 75, 0
2, 605760, Note_on_c, 0, 79, 68
2, 605880, Note_on_c, 0, 79, 0
2, 606240, Note_on_c, 0, 82, 66
2, 606360, Note_on_c, 0, 82, 0
2, 606480, Note_on_c, 0, 79, 65
2, 606600, Note_on_c, 0, 79, 0
2, 606720, Note_on_c, 0, 75, 64
2, 606840, Note_on_c, 0, 75, 0
2, 606960, Note_on_c, 0, 82, 63
2, 607200, Note_on_c, 0, 79, 65
2, 607223, Note_on_c, 0, 82, 0
2, 607430, Note_on_c, 0, 79, 0
2, 607440, Note_on_c, 0, 82, 68
2, 607680, Note_on_c, 0, 82, 0
2, 607680, Note_on_c, 0, 79, 70
2, 607920, Note_on_c, 0, 79, 0
2, 607920, Note_on_c, 0, 82, 72
2, 608160, Note_on_c, 0, 82, 0
2, 608160, Note_on_c, 0, 79, 74
2, 608400, Note_on_c, 0, 79, 0
2, 608400, Note_on_c, 0, 82, 76
2, 608640, Note_on_c, 0, 82, 0
2, 608640, Note_on_c, 0, 79, 78
2, 608880, Note_on_c, 0, 79, 0
2, 608880, Note_on_c, 0, 82, 80
2, 609120, Note_on_c, 0, 82, 0
2, 609120, Note_on_c, 0, 79, 82
2, 609360, Note_on_c, 0, 79, 0
2, 609360, Note_on_c, 0, 82, 83
2, 609600, Note_on_c, 0, 82, 0
2, 609600, Note_on_c, 0, 79, 85
2, 609840, Note_on_c, 0, 79, 0
2, 609840, Note_on_c, 0, 82, 87
2, 610080, Note_on_c, 0, 82, 0
2, 610080, Note_on_c, 0, 79, 89
2, 610320, Note_on_c, 0, 79, 0
2, 610320, Note_on_c, 0, 82, 91
2, 610560, Note_on_c, 0, 82, 0
2, 610560, Note_on_c, 0, 79, 93
2, 610800, Note_on_c, 0, 79, 0
2, 610800, Note_on_c, 0, 82, 95
2, 611040, Note_on_c, 0, 82, 0
2, 611040, Note_on_c, 0, 79, 97
2, 611280, Note_on_c, 0, 79, 0
2, 611280, Note_on_c, 0, 82, 99
2, 611520, Note_on_c, 0, 82, 0
2, 611520, Note_on_c, 0, 79, 101
2, 611760, Note_on_c, 0, 79, 0
2, 611760, Note_on_c, 0, 82, 103
2, 612000, Note_on_c, 0, 82, 0
2, 612000, Note_on_c, 0, 79, 105
2, 612240, Note_on_c, 0, 79, 0
2, 612240, Note_on_c, 0, 84, 106
2, 612360, Note_on_c, 0, 84, 0
2, 612480, Note_on_c, 0, 80, 121
2, 612600, Note_on_c, 0, 80, 0
2, 612600, Note_on_c, 0, 79, 112
2, 612720, Note_on_c, 0, 79, 0
2, 612720, Note_on_c, 0, 77, 111
2, 612840, Note_on_c, 0, 77, 0
2, 612840, Note_on_c, 0, 75, 109
2, 612960, Note_on_c, 0, 75, 0
2, 612960, Note_on_c, 0, 73, 108
2, 613080, Note_on_c, 0, 73, 0
2, 613080, Note_on_c, 0, 72, 106
2, 613200, Note_on_c, 0, 72, 0
2, 613200, Note_on_c, 0, 70, 105
2, 613320, Note_on_c, 0, 70, 0
2, 613320, Note_on_c, 0, 68, 103
2, 613440, Note_on_c, 0, 68, 0
2, 613440, Note_on_c, 0, 67, 102
2, 613560, Note_on_c, 0, 67, 0
2, 613560, Note_on_c, 0, 65, 100
2, 613680, Note_on_c, 0, 65, 0
2, 613680, Note_on_c, 0, 63, 99
2, 613800, Note_on_c, 0, 63, 0
2, 613800, Note_on_c, 0, 61, 97
2, 613920, Note_on_c, 0, 61, 0
2, 613920, Note_on_c, 0, 60, 95
2, 614040, Note_on_c, 0, 60, 0
2, 614040, Note_on_c, 0, 58, 94
2, 614160, Note_on_c, 0, 58, 0
2, 614160, Note_on_c, 0, 56, 91
2, 614280, Note_on_c, 0, 56, 0
2, 614400, Note_on_c, 0, 84, 123
2, 614520, Note_on_c, 0, 84, 0
2, 614520, Note_on_c, 0, 82, 113
2, 614640, Note_on_c, 0, 82, 0
2, 614640, Note_on_c, 0, 80, 112
2, 614720, Note_on_c, 0, 80, 0
2, 614720, Note_on_c, 0, 79, 111
2, 614800, Note_on_c, 0, 79, 0
2, 614800, Note_on_c, 0, 77, 110
2, 614880, Note_on_c, 0, 77, 0
2, 614880, Note_on_c, 0, 75, 109
2, 614960, Note_on_c, 0, 75, 0
2, 614960, Note_on_c, 0, 73, 109
2, 615040, Note_on_c, 0, 73, 0
2, 615040, Note_on_c, 0, 72, 108
2, 615120, Note_on_c, 0, 72, 0
2, 615120, Note_on_c, 0, 70, 107
2, 615240, Note_on_c, 0, 70, 0
2, 615240, Note_on_c, 0, 68, 106
2, 615360, Note_on_c, 0, 68, 0
2, 615360, Note_on_c, 0, 67, 105
2, 615480, Note_on_c, 0, 67, 0
2, 615480, Note_on_c, 0, 65, 103
2, 615600, Note_on_c, 0, 65, 0
2, 615600, Note_on_c, 0, 63, 102
2, 615720, Note_on_c, 0, 63, 0
2, 615720, Note_on_c, 0, 61, 101
2, 615840, Note_on_c, 0, 61, 0
2, 615840, Note_on_c, 0, 60, 100
2, 615960, Note_on_c, 0, 60, 0
2, 615960, Note_on_c, 0, 58, 99
2, 616080, Note_on_c, 0, 58, 0
2, 616080, Note_on_c, 0, 56, 97
2, 616200, Note_on_c, 0, 56, 0
2, 616320, Note_on_c, 0, 87, 126
2, 616380, Note_on_c, 0, 87, 0
2, 616380, Note_on_c, 0, 85, 121
2, 616440, Note_on_c, 0, 85, 0
2, 616440, Note_on_c, 0, 84, 121
2, 616500, Note_on_c, 0, 84, 0
2, 616500, Note_on_c, 0, 82, 120
2, 616560, Note_on_c, 0, 82, 0
2, 616560, Note_on_c, 0, 80, 119
2, 616640, Note_on_c, 0, 79, 119
2, 616650, Note_on_c, 0, 80, 0
2, 616720, Note_on_c, 0, 79, 0
2, 616720, Note_on_c, 0, 77, 118
2, 616800, Note_on_c, 0, 77, 0
2, 616800, Note_on_c, 0, 75, 117
2, 616880, Note_on_c, 0, 75, 0
2, 616880, Note_on_c, 0, 73, 116
2, 616955, Note_on_c, 0, 73, 0
2, 616960, Note_on_c, 0, 72, 116
2, 617040, Note_on_c, 0, 72, 0
2, 617040, Note_on_c, 0, 70, 115
2, 617160, Note_on_c, 0, 70, 0
2, 617160, Note_on_c, 0, 68, 114
2, 617280, Note_on_c, 0, 68, 0
2, 617280, Note_on_c, 0, 67, 113
2, 617400, Note_on_c, 0, 67, 0
2, 617400, Note_on_c, 0, 65, 112
2, 617520, Note_on_c, 0, 65, 0
2, 617520, Note_on_c, 0, 63, 110
2, 617640, Note_on_c, 0, 63, 0
2, 617640, Note_on_c, 0, 61, 109
2, 617760, Note_on_c, 0, 61, 0
2, 617760, Note_on_c, 0, 60, 108
2, 617880, Note_on_c, 0, 60, 0
2, 617880, Note_on_c, 0, 58, 107
2, 618000, Note_on_c, 0, 58, 0
2, 618000, Note_on_c, 0, 56, 106
2, 618120, Note_on_c, 0, 56, 0
2, 618480, Note_on_c, 0, 80, 64
2, 618712, Note_on_c, 0, 80, 0
2, 618720, Note_on_c, 0, 82, 70
2, 618952, Note_on_c, 0, 82, 0
2, 618960, Note_on_c, 0, 78, 77
2, 619200, Note_on_c, 0, 78, 0
2, 619200, Note_on_c, 0, 80, 83
2, 619432, Note_on_c, 0, 80, 0
2, 619440, Note_on_c, 0, 77, 89
2, 619664, Note_on_c, 0, 77, 0
2, 619680, Note_on_c, 0, 78, 103
2, 620160, Note_on_c, 0, 78, 0
2, 620160, Note_on_c, 0, 77, 76
2, 620400, Note_on_c, 0, 77, 0
2, 620400, Note_on_c, 0, 73, 70
2, 620640, Note_on_c, 0, 76, 70
2, 620655, Note_on_c, 0, 73, 0
2, 620875, Note_on_c, 0, 76, 0
2, 620880, Note_on_c, 0, 70, 69
2, 621120, Note_on_c, 0, 70, 0
2, 621120, Note_on_c, 0, 73, 69
2, 621360, Note_on_c, 0, 73, 0
2, 621360, Note_on_c, 0, 67, 68
2, 621600, Note_on_c, 0, 67, 0
2, 621600, Note_on_c, 0, 70, 68
2, 621835, Note_on_c, 0, 70, 0
2, 621840, Note_on_c, 0, 68, 67
2, 622075, Note_on_c, 0, 68, 0
2, 622080, Note_on_c, 0, 72, 67
2, 622315, Note_on_c, 0, 72, 0
2, 622320, Note_on_c, 0, 68, 69
2, 622555, Note_on_c, 0, 68, 0
2, 622560, Note_on_c, 0, 70, 74
2, 622795, Note_on_c, 0, 70, 0
2, 622800, Note_on_c, 0, 66, 78
2, 623040, Note_on_c, 0, 66, 0
2, 623040, Note_on_c, 0, 68, 83
2, 623280, Note_on_c, 0, 68, 0
2, 623280, Note_on_c, 0, 65, 87
2, 623520, Note_on_c, 0, 65, 0
2, 623520, Note_on_c, 0, 66, 100
2, 624000, Note_on_c, 0, 66, 0
2, 624000, Note_on_c, 0, 65, 77
2, 624240, Note_on_c, 0, 65, 0
2, 624240, Note_on_c, 0, 61, 65
2, 624475, Note_on_c, 0, 61, 0
2, 624480, Note_on_c, 0, 64, 64
2, 624715, Note_on_c, 0, 64, 0
2, 624720, Note_on_c, 0, 58, 63
2, 624960, Note_on_c, 0, 61, 63
2, 624970, Note_on_c, 0, 58, 0
2, 625195, Note_on_c, 0, 61, 0
2, 625200, Note_on_c, 0, 55, 62
2, 625435, Note_on_c, 0, 55, 0
2, 625440, Note_on_c, 0, 58, 61
2, 625675, Note_on_c, 0, 58, 0
2, 625680, Note_on_c, 0, 56, 61
2, 625915, Note_on_c, 0, 56, 0
2, 625920, Note_on_c, 0, 60, 60
2, 626155, Note_on_c, 0, 60, 0
2, 626160, Note_on_c, 0, 61, 59
2, 626395, Note_on_c, 0, 61, 0
2, 626400, Note_on_c, 0, 64, 59
2, 626635, Note_on_c, 0, 64, 0
2, 626640, Note_on_c, 0, 58, 58
2, 626880, Note_on_c, 0, 61, 58
2, 626885, Note_on_c, 0, 58, 0
2, 627115, Note_on_c, 0, 61, 0
2, 627120, Note_on_c, 0, 55, 57
2, 627355, Note_on_c, 0, 55, 0
2, 627360, Note_on_c, 0, 58, 56
2, 627595, Note_on_c, 0, 58, 0
2, 627600, Note_on_c, 0, 56, 56
2, 627835, Note_on_c, 0, 56, 0
2, 627840, Note_on_c, 0, 60, 55
2, 628075, Note_on_c, 0, 60, 0
2, 628080, Note_on_c, 0, 61, 54
2, 628315, Note_on_c, 0, 61, 0
2, 628320, Note_on_c, 0, 64, 54
2, 628555, Note_on_c, 0, 64, 0
2, 628560, Note_on_c, 0, 58, 53
2, 628795, Note_on_c, 0, 58, 0
2, 628800, Note_on_c, 0, 61, 52
2, 629035, Note_on_c, 0, 61, 0
2, 629040, Note_on_c, 0, 55, 52
2, 629275, Note_on_c, 0, 55, 0
2, 629280, Note_on_c, 0, 58, 51
2, 629515, Note_on_c, 0, 58, 0
2, 629520, Control_c, 0, 64, 127
2, 629520, Note_on_c, 0, 56, 50
2, 629755, Note_on_c, 0, 56, 0
2, 629760, Note_on_c, 0, 60, 50
2, 629995, Note_on_c, 0, 60, 0
2, 630000, Note_on_c, 0, 51, 49
2, 630240, Note_on_c, 0, 56, 48
2, 630260, Note_on_c, 0, 51, 0
2, 630475, Note_on_c, 0, 56, 0
2, 630480, Note_on_c, 0, 48, 48
2, 630715, Note_on_c, 0, 48, 0
2, 630720, Note_on_c, 0, 51, 47
2, 630955, Note_on_c, 0, 51, 0
2, 630960, Note_on_c, 0, 44, 46
2, 631200, Note_on_c, 0, 48, 46
2, 631210, Note_on_c, 0, 44, 0
2, 631435, Note_on_c, 0, 48, 0
2, 633360, Control_c, 0, 64, 0
2, 633360, End_track
3, 0, Start_track
3, 0, Title_t, "Piano Sonata No-12"
3, 0, Program_c, 0, 0
3, 0, Control_c, 0, 7, 115
3, 0, Control_c, 0, 10, 64
3, 0, Control_c, 0, 91, 91
3, 0, Control_c, 0, 93, 28
3, 0, Sequencer_specific, 5, 5, 15, 9, 0, 64
3, 0, Sequencer_specific, 15, 5, 15, 6, 71, 101, 110, 101, 114, 97, 108, 32, 77, 73, 68, 73
3, 0, Program_c, 0, 0
3, 0, Control_c, 0, 64, 0
3, 0, Control_c, 0, 1, 0
3, 0, Pitch_bend_c, 0, 8192
3, 720, Note_on_c, 0, 60, 62
3, 1440, Note_on_c, 0, 60, 0
3, 1440, Note_on_c, 0, 61, 62
3, 1440, Note_on_c, 0, 63, 62
3, 2100, Note_on_c, 0, 63, 0
3, 2160, Note_on_c, 0, 61, 0
3, 2400, Note_on_c, 0, 63, 62
3, 2640, Note_on_c, 0, 63, 0
3, 2640, Note_on_c, 0, 58, 66
3, 2640, Note_on_c, 0, 63, 66
3, 2880, Note_on_c, 0, 63, 0
3, 2880, Note_on_c, 0, 58, 0
3, 2880, Note_on_c, 0, 68, 69
3, 2880, Note_on_c, 0, 63, 69
3, 2880, Note_on_c, 0, 60, 69
3, 3120, Note_on_c, 0, 60, 0
3, 3120, Note_on_c, 0, 63, 0
3, 3120, Note_on_c, 0, 68, 0
3, 3120, Note_on_c, 0, 67, 60
3, 3120, Note_on_c, 0, 63, 60
3, 3120, Note_on_c, 0, 58, 60
3, 3240, Note_on_c, 0, 58, 0
3, 3240, Note_on_c, 0, 67, 0
3, 3243, Note_on_c, 0, 63, 0
3, 3600, Note_on_c, 0, 68, 60
3, 4080, Note_on_c, 0, 68, 0
3, 4080, Note_on_c, 0, 68, 66
3, 4320, Note_on_c, 0, 68, 0
3, 4320, Note_on_c, 0, 68, 69
3, 4320, Note_on_c, 0, 70, 69
3, 4560, Note_on_c, 0, 70, 0
3, 4560, Note_on_c, 0, 68, 0
3, 4560, Note_on_c, 0, 67, 72
3, 4800, Note_on_c, 0, 67, 0
3, 4800, Note_on_c, 0, 68, 75
3, 5040, Note_on_c, 0, 68, 0
3, 5040, Note_on_c, 0, 65, 62
3, 5280, Note_on_c, 0, 65, 0
3, 5280, Note_on_c, 0, 70, 65
3, 5280, Note_on_c, 0, 64, 65
3, 5520, Note_on_c, 0, 64, 0
3, 5520, Note_on_c, 0, 70, 0
3, 5520, Note_on_c, 0, 63, 67
3, 5520, Note_on_c, 0, 68, 67
3, 5760, Note_on_c, 0, 68, 0
3, 5760, Note_on_c, 0, 63, 0
3, 5760, Note_on_c, 0, 66, 71
3, 5760, Note_on_c, 0, 63, 71
3, 6000, Note_on_c, 0, 66, 0
3, 6000, Note_on_c, 0, 67, 62
3, 6120, Note_on_c, 0, 67, 0
3, 6120, Note_on_c, 0, 63, 0
3, 6480, Note_on_c, 0, 60, 59
3, 7160, Note_on_c, 0, 60, 0
3, 7200, Note_on_c, 0, 61, 60
3, 7200, Note_on_c, 0, 63, 60
3, 7803, Note_on_c, 0, 63, 0
3, 7803, Note_on_c, 0, 61, 0
3, 8160, Note_on_c, 0, 63, 61
3, 8400, Note_on_c, 0, 63, 0
3, 8400, Note_on_c, 0, 58, 66
3, 8400, Note_on_c, 0, 63, 66
3, 8640, Note_on_c, 0, 63, 0
3, 8640, Note_on_c, 0, 58, 0
3, 8640, Note_on_c, 0, 60, 71
3, 8640, Note_on_c, 0, 63, 71
3, 8640, Note_on_c, 0, 68, 71
3, 8880, Note_on_c, 0, 68, 0
3, 8880, Note_on_c, 0, 63, 0
3, 8880, Note_on_c, 0, 60, 0
3, 8880, Note_on_c, 0, 58, 62
3, 8880, Note_on_c, 0, 63, 62
3, 8880, Note_on_c, 0, 67, 62
3, 9003, Note_on_c, 0, 63, 0
3, 9003, Note_on_c, 0, 58, 0
3, 9007, Note_on_c, 0, 67, 0
3, 9360, Note_on_c, 0, 68, 59
3, 9840, Note_on_c, 0, 68, 0
3, 9840, Note_on_c, 0, 68, 65
3, 10080, Note_on_c, 0, 68, 0
3, 10080, Note_on_c, 0, 68, 69
3, 10080, Note_on_c, 0, 70, 69
3, 10320, Note_on_c, 0, 70, 0
3, 10320, Note_on_c, 0, 68, 0
3, 10320, Note_on_c, 0, 67, 72
3, 10560, Note_on_c, 0, 67, 0
3, 10560, Note_on_c, 0, 68, 75
3, 10735, Note_on_c, 0, 68, 0
3, 11040, Note_on_c, 0, 63, 65
3, 11040, Note_on_c, 0, 68, 65
3, 11280, Note_on_c, 0, 68, 0
3, 11280, Note_on_c, 0, 63, 0
3, 11280, Note_on_c, 0, 61, 59
3, 11280, Note_on_c, 0, 67, 59
3, 11520, Note_on_c, 0, 67, 0
3, 11520, Note_on_c, 0, 61, 0
3, 11520, Note_on_c, 0, 60, 54
3, 11760, Note_on_c, 0, 60, 0
3, 12240, Note_on_c, 0, 69, 72
3, 12480, Note_on_c, 0, 69, 0
3, 12480, Note_on_c, 0, 67, 69
3, 12720, Note_on_c, 0, 67, 0
3, 12720, Note_on_c, 0, 69, 67
3, 12960, Note_on_c, 0, 69, 0
3, 12960, Note_on_c, 0, 70, 64
3, 13200, Note_on_c, 0, 70, 0
3, 13200, Note_on_c, 0, 73, 61
3, 13392, Note_on_c, 0, 73, 0
3, 13680, Note_on_c, 0, 67, 68
3, 13920, Note_on_c, 0, 67, 0
3, 13920, Note_on_c, 0, 65, 66
3, 14160, Note_on_c, 0, 65, 0
3, 14160, Note_on_c, 0, 67, 64
3, 14400, Note_on_c, 0, 67, 0
3, 14400, Note_on_c, 0, 68, 62
3, 14640, Note_on_c, 0, 68, 0
3, 14640, Note_on_c, 0, 72, 59
3, 14832, Note_on_c, 0, 72, 0
3, 14880, Note_on_c, 0, 63, 61
3, 15360, Note_on_c, 0, 63, 0
3, 15360, Note_on_c, 0, 62, 60
3, 15600, Note_on_c, 0, 62, 0
3, 15600, Note_on_c, 0, 64, 62
3, 15840, Note_on_c, 0, 64, 0
3, 15840, Note_on_c, 0, 65, 63
3, 16080, Note_on_c, 0, 65, 0
3, 16080, Note_on_c, 0, 67, 64
3, 16320, Note_on_c, 0, 67, 0
3, 16320, Note_on_c, 0, 68, 66
3, 16560, Note_on_c, 0, 68, 0
3, 16800, Note_on_c, 0, 70, 69
3, 17040, Note_on_c, 0, 70, 0
3, 17040, Note_on_c, 0, 68, 62
3, 17040, Note_on_c, 0, 65, 62
3, 17280, Note_on_c, 0, 65, 0
3, 17280, Note_on_c, 0, 68, 0
3, 17280, Note_on_c, 0, 63, 69
3, 17280, Note_on_c, 0, 67, 69
3, 17520, Note_on_c, 0, 67, 0
3, 17520, Note_on_c, 0, 63, 0
3, 17520, Note_on_c, 0, 72, 71
3, 17760, Note_on_c, 0, 72, 0
3, 17760, Note_on_c, 0, 72, 72
3, 17760, Note_on_c, 0, 65, 72
3, 18000, Note_on_c, 0, 65, 0
3, 18000, Note_on_c, 0, 72, 0
3, 18000, Note_on_c, 0, 67, 74
3, 18240, Note_on_c, 0, 70, 76
3, 18480, Note_on_c, 0, 70, 0
3, 18480, Note_on_c, 0, 67, 0
3, 18480, Note_on_c, 0, 65, 70
3, 18480, Note_on_c, 0, 68, 70
3, 18720, Note_on_c, 0, 68, 0
3, 18720, Note_on_c, 0, 65, 0
3, 18720, Note_on_c, 0, 63, 76
3, 18720, Note_on_c, 0, 67, 76
3, 18876, Note_on_c, 0, 67, 0
3, 18876, Note_on_c, 0, 63, 0
3, 18960, Note_on_c, 0, 68, 79
3, 18960, Note_on_c, 0, 62, 79
3, 19116, Note_on_c, 0, 62, 0
3, 19116, Note_on_c, 0, 68, 0
3, 19200, Note_on_c, 0, 61, 78
3, 19200, Note_on_c, 0, 70, 78
3, 19356, Note_on_c, 0, 70, 0
3, 19356, Note_on_c, 0, 61, 0
3, 19440, Note_on_c, 0, 60, 58
3, 20115, Note_on_c, 0, 60, 0
3, 20160, Note_on_c, 0, 63, 60
3, 20160, Note_on_c, 0, 61, 60
3, 20815, Note_on_c, 0, 61, 0
3, 20820, Note_on_c, 0, 63, 0
3, 21120, Note_on_c, 0, 63, 63
3, 21360, Note_on_c, 0, 63, 0
3, 21360, Note_on_c, 0, 63, 67
3, 21360, Note_on_c, 0, 58, 67
3, 21600, Note_on_c, 0, 58, 0
3, 21600, Note_on_c, 0, 63, 0
3, 21600, Note_on_c, 0, 68, 70
3, 21600, Note_on_c, 0, 63, 70
3, 21600, Note_on_c, 0, 60, 70
3, 21840, Note_on_c, 0, 60, 0
3, 21840, Note_on_c, 0, 63, 0
3, 21840, Note_on_c, 0, 68, 0
3, 21840, Note_on_c, 0, 67, 61
3, 21840, Note_on_c, 0, 63, 61
3, 21840, Note_on_c, 0, 58, 61
3, 21963, Note_on_c, 0, 63, 0
3, 21963, Note_on_c, 0, 67, 0
3, 21967, Note_on_c, 0, 58, 0
3, 22320, Note_on_c, 0, 61, 61
3, 22800, Note_on_c, 0, 61, 0
3, 22800, Note_on_c, 0, 60, 67
3, 23040, Note_on_c, 0, 60, 0
3, 23040, Note_on_c, 0, 65, 70
3, 23280, Note_on_c, 0, 65, 0
3, 23280, Note_on_c, 0, 58, 73
3, 23460, Note_on_c, 0, 58, 0
3, 23520, Note_on_c, 0, 63, 75
3, 23700, Note_on_c, 0, 63, 0
3, 24000, Note_on_c, 0, 68, 65
3, 24000, Note_on_c, 0, 63, 65
3, 24240, Note_on_c, 0, 63, 0
3, 24240, Note_on_c, 0, 68, 0
3, 24240, Note_on_c, 0, 67, 60
3, 24240, Note_on_c, 0, 61, 60
3, 24480, Note_on_c, 0, 61, 0
3, 24480, Note_on_c, 0, 67, 0
3, 24480, Note_on_c, 0, 60, 56
3, 24720, Note_on_c, 0, 60, 0
3, 27840, Note_on_c, 0, 58, 76
3, 28080, Note_on_c, 0, 58, 0
3, 28080, Note_on_c, 0, 61, 76
3, 28080, Note_on_c, 0, 56, 76
3, 28200, Note_on_c, 0, 61, 0
3, 28200, Note_on_c, 0, 60, 70
3, 28320, Note_on_c, 0, 60, 0
3, 28320, Note_on_c, 0, 56, 0
3, 28320, Note_on_c, 0, 55, 64
3, 28320, Note_on_c, 0, 58, 64
3, 28500, Note_on_c, 0, 58, 0
3, 28500, Note_on_c, 0, 55, 0
3, 30480, Note_on_c, 0, 58, 69
3, 30480, Note_on_c, 0, 52, 69
3, 30720, Note_on_c, 0, 52, 0
3, 30720, Note_on_c, 0, 58, 0
3, 30720, Note_on_c, 0, 51, 72
3, 30720, Note_on_c, 0, 56, 72
3, 30960, Note_on_c, 0, 56, 0
3, 30960, Note_on_c, 0, 51, 0
3, 30960, Note_on_c, 0, 54, 74
3, 31200, Note_on_c, 0, 54, 0
3, 31200, Note_on_c, 0, 55, 63
3, 31320, Note_on_c, 0, 55, 0
3, 33600, Note_on_c, 0, 58, 74
3, 33780, Note_on_c, 0, 58, 0
3, 33840, Note_on_c, 0, 61, 83
3, 33840, Note_on_c, 0, 56, 83
3, 33960, Note_on_c, 0, 61, 0
3, 33960, Note_on_c, 0, 60, 74
3, 34080, Note_on_c, 0, 60, 0
3, 34080, Note_on_c, 0, 56, 0
3, 34080, Note_on_c, 0, 58, 69
3, 34080, Note_on_c, 0, 55, 69
3, 34260, Note_on_c, 0, 55, 0
3, 34260, Note_on_c, 0, 58, 0
3, 36480, Note_on_c, 0, 61, 78
3, 36480, Note_on_c, 0, 67, 78
3, 36720, Note_on_c, 0, 67, 0
3, 36720, Note_on_c, 0, 61, 0
3, 36720, Note_on_c, 0, 60, 73
3, 36960, Note_on_c, 0, 60, 0
3, 37440, Note_on_c, 0, 69, 79
3, 37680, Note_on_c, 0, 69, 0
3, 37680, Note_on_c, 0, 67, 76
3, 37920, Note_on_c, 0, 67, 0
3, 37920, Note_on_c, 0, 69, 73
3, 38160, Note_on_c, 0, 69, 0
3, 38160, Note_on_c, 0, 70, 70
3, 38400, Note_on_c, 0, 70, 0
3, 38400, Note_on_c, 0, 73, 64
3, 38640, Note_on_c, 0, 73, 0
3, 38760, Note_on_c, 0, 70, 72
3, 38820, Note_on_c, 0, 68, 70
3, 38835, Note_on_c, 0, 70, 0
3, 38880, Note_on_c, 0, 67, 68
3, 38902, Note_on_c, 0, 68, 0
3, 39120, Note_on_c, 0, 67, 0
3, 39120, Note_on_c, 0, 65, 73
3, 39360, Note_on_c, 0, 65, 0
3, 39360, Note_on_c, 0, 67, 69
3, 39600, Note_on_c, 0, 67, 0
3, 39600, Note_on_c, 0, 68, 65
3, 39840, Note_on_c, 0, 68, 0
3, 39840, Note_on_c, 0, 72, 62
3, 40080, Note_on_c, 0, 72, 0
3, 40200, Control_c, 0, 64, 0
3, 40240, Control_c, 0, 64, 127
3, 40260, Note_on_c, 0, 63, 74
3, 40380, Note_on_c, 0, 63, 0
3, 40380, Control_c, 0, 64, 0
3, 40380, Note_on_c, 0, 63, 62
3, 40420, Control_c, 0, 64, 127
3, 40440, Note_on_c, 0, 63, 0
3, 40500, Note_on_c, 0, 63, 63
3, 40560, Note_on_c, 0, 63, 0
3, 40620, Control_c, 0, 64, 0
3, 40620, Note_on_c, 0, 62, 65
3, 40660, Control_c, 0, 64, 127
3, 40680, Note_on_c, 0, 62, 0
3, 40740, Note_on_c, 0, 62, 67
3, 40800, Note_on_c, 0, 62, 0
3, 40860, Control_c, 0, 64, 0
3, 40860, Note_on_c, 0, 64, 68
3, 40900, Control_c, 0, 64, 127
3, 40920, Note_on_c, 0, 64, 0
3, 40980, Note_on_c, 0, 64, 70
3, 41040, Note_on_c, 0, 64, 0
3, 41040, Control_c, 0, 64, 0
3, 41080, Control_c, 0, 64, 127
3, 41100, Note_on_c, 0, 65, 72
3, 41160, Note_on_c, 0, 65, 0
3, 41220, Note_on_c, 0, 65, 73
3, 41280, Note_on_c, 0, 65, 0
3, 41340, Control_c, 0, 64, 0
3, 41340, Note_on_c, 0, 67, 75
3, 41380, Control_c, 0, 64, 127
3, 41400, Note_on_c, 0, 67, 0
3, 41460, Note_on_c, 0, 67, 77
3, 41520, Note_on_c, 0, 67, 0
3, 41580, Control_c, 0, 64, 0
3, 41580, Note_on_c, 0, 68, 79
3, 41620, Control_c, 0, 64, 127
3, 41640, Note_on_c, 0, 68, 0
3, 41700, Note_on_c, 0, 68, 80
3, 41760, Note_on_c, 0, 68, 0
3, 41760, Control_c, 0, 64, 0
3, 41760, Note_on_c, 0, 70, 71
3, 41760, Note_on_c, 0, 67, 71
3, 42240, Note_on_c, 0, 67, 0
3, 42240, Note_on_c, 0, 70, 0
3, 42240, Note_on_c, 0, 68, 87
3, 42240, Note_on_c, 0, 65, 87
3, 42480, Note_on_c, 0, 65, 0
3, 42480, Note_on_c, 0, 68, 0
3, 42480, Note_on_c, 0, 67, 76
3, 42480, Note_on_c, 0, 63, 76
3, 42960, Note_on_c, 0, 63, 0
3, 42960, Note_on_c, 0, 67, 0
3, 42960, Note_on_c, 0, 72, 83
3, 42960, Note_on_c, 0, 65, 94
3, 43200, Note_on_c, 0, 65, 0
3, 43200, Note_on_c, 0, 72, 0
3, 43200, Note_on_c, 0, 63, 87
3, 43200, Note_on_c, 0, 67, 87
3, 43680, Note_on_c, 0, 67, 0
3, 43680, Note_on_c, 0, 63, 0
3, 43680, Note_on_c, 0, 68, 78
3, 43680, Note_on_c, 0, 65, 78
3, 43920, Note_on_c, 0, 65, 0
3, 43920, Note_on_c, 0, 68, 0
3, 46560, Note_on_c, 0, 58, 78
3, 46740, Note_on_c, 0, 58, 0
3, 46800, Note_on_c, 0, 56, 83
3, 46800, Note_on_c, 0, 61, 83
3, 46920, Note_on_c, 0, 61, 0
3, 46920, Note_on_c, 0, 60, 74
3, 47040, Note_on_c, 0, 60, 0
3, 47040, Note_on_c, 0, 56, 0
3, 47040, Note_on_c, 0, 55, 66
3, 47040, Note_on_c, 0, 58, 66
3, 47220, Note_on_c, 0, 58, 0
3, 47220, Note_on_c, 0, 55, 0
3, 49440, Note_on_c, 0, 67, 68
3, 49440, Note_on_c, 0, 61, 68
3, 49680, Note_on_c, 0, 61, 0
3, 49680, Note_on_c, 0, 67, 0
3, 49680, Note_on_c, 0, 60, 60
3, 49920, Note_on_c, 0, 60, 0
3, 50940, Note_on_c, 0, 60, 49
3, 51000, Note_on_c, 0, 60, 0
3, 51060, Note_on_c, 0, 60, 50
3, 51120, Note_on_c, 0, 60, 0
3, 51180, Note_on_c, 0, 60, 51
3, 51240, Note_on_c, 0, 60, 0
3, 51300, Note_on_c, 0, 60, 52
3, 51360, Note_on_c, 0, 60, 0
3, 51420, Note_on_c, 0, 60, 52
3, 51480, Note_on_c, 0, 60, 0
3, 51540, Note_on_c, 0, 60, 53
3, 51600, Note_on_c, 0, 60, 0
3, 51660, Note_on_c, 0, 60, 54
3, 51720, Note_on_c, 0, 60, 0
3, 51780, Note_on_c, 0, 60, 55
3, 51840, Note_on_c, 0, 60, 0
3, 51900, Note_on_c, 0, 58, 56
3, 51900, Note_on_c, 0, 61, 56
3, 51960, Note_on_c, 0, 61, 0
3, 51960, Note_on_c, 0, 58, 0
3, 52020, Note_on_c, 0, 58, 57
3, 52020, Note_on_c, 0, 61, 57
3, 52080, Note_on_c, 0, 61, 0
3, 52080, Note_on_c, 0, 58, 0
3, 52140, Note_on_c, 0, 58, 58
3, 52140, Note_on_c, 0, 61, 58
3, 52200, Note_on_c, 0, 61, 0
3, 52200, Note_on_c, 0, 58, 0
3, 52260, Note_on_c, 0, 58, 59
3, 52260, Note_on_c, 0, 61, 59
3, 52320, Note_on_c, 0, 61, 0
3, 52320, Note_on_c, 0, 58, 0
3, 52380, Note_on_c, 0, 58, 60
3, 52380, Note_on_c, 0, 61, 60
3, 52440, Note_on_c, 0, 61, 0
3, 52440, Note_on_c, 0, 58, 0
3, 52500, Note_on_c, 0, 58, 61
3, 52500, Note_on_c, 0, 61, 61
3, 52560, Note_on_c, 0, 61, 0
3, 52560, Note_on_c, 0, 58, 0
3, 52620, Note_on_c, 0, 60, 62
3, 52680, Note_on_c, 0, 60, 0
3, 52740, Note_on_c, 0, 60, 62
3, 52800, Note_on_c, 0, 60, 0
3, 52860, Note_on_c, 0, 63, 63
3, 52860, Note_on_c, 0, 60, 63
3, 52920, Note_on_c, 0, 60, 0
3, 52920, Note_on_c, 0, 63, 0
3, 52980, Note_on_c, 0, 63, 64
3, 52980, Note_on_c, 0, 60, 64
3, 53040, Note_on_c, 0, 60, 0
3, 53040, Note_on_c, 0, 63, 0
3, 53100, Note_on_c, 0, 63, 65
3, 53100, Note_on_c, 0, 61, 65
3, 53160, Note_on_c, 0, 61, 0
3, 53160, Note_on_c, 0, 63, 0
3, 53220, Note_on_c, 0, 63, 68
3, 53220, Note_on_c, 0, 61, 68
3, 53280, Note_on_c, 0, 61, 0
3, 53280, Note_on_c, 0, 63, 0
3, 53340, Note_on_c, 0, 63, 65
3, 53400, Note_on_c, 0, 63, 0
3, 53460, Note_on_c, 0, 63, 62
3, 53520, Note_on_c, 0, 63, 0
3, 53580, Note_on_c, 0, 63, 59
3, 53640, Note_on_c, 0, 63, 0
3, 53700, Note_on_c, 0, 63, 56
3, 53760, Note_on_c, 0, 63, 0
3, 53820, Note_on_c, 0, 63, 56
3, 53820, Note_on_c, 0, 66, 56
3, 53880, Note_on_c, 0, 66, 0
3, 53880, Note_on_c, 0, 63, 0
3, 53940, Note_on_c, 0, 66, 58
3, 53940, Note_on_c, 0, 63, 58
3, 54000, Note_on_c, 0, 63, 0
3, 54000, Note_on_c, 0, 66, 0
3, 54060, Note_on_c, 0, 65, 59
3, 54120, Note_on_c, 0, 65, 0
3, 54180, Note_on_c, 0, 65, 61
3, 54240, Note_on_c, 0, 65, 0
3, 54300, Note_on_c, 0, 68, 63
3, 54360, Note_on_c, 0, 68, 0
3, 54420, Note_on_c, 0, 68, 64
3, 54480, Note_on_c, 0, 68, 0
3, 54540, Note_on_c, 0, 68, 66
3, 54600, Note_on_c, 0, 68, 0
3, 54660, Note_on_c, 0, 68, 68
3, 54720, Note_on_c, 0, 68, 0
3, 54780, Note_on_c, 0, 68, 69
3, 54840, Note_on_c, 0, 68, 0
3, 54900, Note_on_c, 0, 68, 71
3, 54960, Note_on_c, 0, 68, 0
3, 55020, Note_on_c, 0, 67, 73
3, 55080, Note_on_c, 0, 67, 0
3, 55140, Note_on_c, 0, 67, 74
3, 55200, Note_on_c, 0, 67, 0
3, 55260, Note_on_c, 0, 68, 76
3, 55320, Note_on_c, 0, 68, 0
3, 55380, Note_on_c, 0, 68, 78
3, 55440, Note_on_c, 0, 68, 0
3, 55500, Note_on_c, 0, 70, 77
3, 55560, Note_on_c, 0, 70, 0
3, 55620, Note_on_c, 0, 65, 74
3, 55680, Note_on_c, 0, 65, 0
3, 55740, Note_on_c, 0, 64, 71
3, 55800, Note_on_c, 0, 64, 0
3, 55860, Note_on_c, 0, 63, 68
3, 55920, Note_on_c, 0, 63, 0
3, 55980, Note_on_c, 0, 63, 64
3, 56040, Note_on_c, 0, 63, 0
3, 56100, Note_on_c, 0, 63, 61
3, 56160, Note_on_c, 0, 63, 0
3, 56220, Note_on_c, 0, 66, 59
3, 56220, Note_on_c, 0, 63, 59
3, 56280, Note_on_c, 0, 63, 0
3, 56280, Note_on_c, 0, 66, 0
3, 56340, Note_on_c, 0, 66, 57
3, 56340, Note_on_c, 0, 63, 57
3, 56400, Note_on_c, 0, 63, 0
3, 56400, Note_on_c, 0, 66, 0
3, 56460, Note_on_c, 0, 63, 56
3, 56460, Note_on_c, 0, 67, 56
3, 56520, Note_on_c, 0, 67, 0
3, 56520, Note_on_c, 0, 63, 0
3, 56580, Note_on_c, 0, 63, 55
3, 56580, Note_on_c, 0, 67, 55
3, 56640, Note_on_c, 0, 67, 0
3, 56640, Note_on_c, 0, 63, 0
3, 56700, Note_on_c, 0, 63, 51
3, 56760, Note_on_c, 0, 63, 0
3, 56820, Note_on_c, 0, 63, 52
3, 56880, Note_on_c, 0, 63, 0
3, 56940, Note_on_c, 0, 63, 53
3, 56940, Note_on_c, 0, 72, 53
3, 57000, Note_on_c, 0, 72, 0
3, 57000, Note_on_c, 0, 63, 0
3, 57060, Note_on_c, 0, 63, 53
3, 57060, Note_on_c, 0, 72, 53
3, 57120, Note_on_c, 0, 72, 0
3, 57120, Note_on_c, 0, 63, 0
3, 57180, Note_on_c, 0, 63, 54
3, 57180, Note_on_c, 0, 72, 54
3, 57240, Note_on_c, 0, 72, 0
3, 57240, Note_on_c, 0, 63, 0
3, 57300, Note_on_c, 0, 72, 55
3, 57300, Note_on_c, 0, 63, 55
3, 57360, Note_on_c, 0, 63, 0
3, 57360, Note_on_c, 0, 72, 0
3, 57420, Note_on_c, 0, 63, 56
3, 57420, Note_on_c, 0, 72, 56
3, 57480, Note_on_c, 0, 72, 0
3, 57480, Note_on_c, 0, 63, 0
3, 57540, Note_on_c, 0, 63, 57
3, 57540, Note_on_c, 0, 72, 57
3, 57600, Note_on_c, 0, 72, 0
3, 57600, Note_on_c, 0, 63, 0
3, 57660, Note_on_c, 0, 73, 58
3, 57660, Note_on_c, 0, 63, 58
3, 57720, Note_on_c, 0, 63, 0
3, 57720, Note_on_c, 0, 73, 0
3, 57780, Note_on_c, 0, 73, 59
3, 57780, Note_on_c, 0, 63, 59
3, 57840, Note_on_c, 0, 63, 0
3, 57840, Note_on_c, 0, 73, 0
3, 57900, Note_on_c, 0, 73, 60
3, 57900, Note_on_c, 0, 63, 60
3, 57960, Note_on_c, 0, 63, 0
3, 57960, Note_on_c, 0, 73, 0
3, 58020, Note_on_c, 0, 63, 61
3, 58020, Note_on_c, 0, 73, 61
3, 58080, Note_on_c, 0, 73, 0
3, 58080, Note_on_c, 0, 63, 0
3, 58140, Note_on_c, 0, 73, 62
3, 58140, Note_on_c, 0, 63, 62
3, 58200, Note_on_c, 0, 63, 0
3, 58200, Note_on_c, 0, 73, 0
3, 58260, Note_on_c, 0, 63, 63
3, 58260, Note_on_c, 0, 67, 63
3, 58320, Note_on_c, 0, 67, 0
3, 58320, Note_on_c, 0, 63, 0
3, 58380, Note_on_c, 0, 68, 64
3, 58380, Note_on_c, 0, 63, 64
3, 58440, Note_on_c, 0, 63, 0
3, 58440, Note_on_c, 0, 68, 0
3, 58500, Note_on_c, 0, 72, 65
3, 58500, Note_on_c, 0, 63, 65
3, 58560, Note_on_c, 0, 63, 0
3, 58560, Note_on_c, 0, 72, 0
3, 58620, Note_on_c, 0, 68, 66
3, 58620, Note_on_c, 0, 63, 66
3, 58680, Note_on_c, 0, 63, 0
3, 58680, Note_on_c, 0, 68, 0
3, 58740, Note_on_c, 0, 72, 66
3, 58740, Note_on_c, 0, 63, 66
3, 58800, Note_on_c, 0, 63, 0
3, 58800, Note_on_c, 0, 72, 0
3, 58860, Note_on_c, 0, 70, 67
3, 58860, Note_on_c, 0, 63, 67
3, 58920, Note_on_c, 0, 63, 0
3, 58920, Note_on_c, 0, 70, 0
3, 58980, Note_on_c, 0, 73, 68
3, 58980, Note_on_c, 0, 63, 68
3, 59040, Note_on_c, 0, 63, 0
3, 59040, Note_on_c, 0, 73, 0
3, 59100, Note_on_c, 0, 68, 66
3, 59100, Note_on_c, 0, 72, 66
3, 59100, Note_on_c, 0, 63, 66
3, 59160, Note_on_c, 0, 63, 0
3, 59160, Note_on_c, 0, 72, 0
3, 59160, Note_on_c, 0, 68, 0
3, 59220, Note_on_c, 0, 68, 62
3, 59220, Note_on_c, 0, 63, 62
3, 59220, Note_on_c, 0, 72, 62
3, 59280, Note_on_c, 0, 72, 0
3, 59280, Note_on_c, 0, 63, 0
3, 59280, Note_on_c, 0, 68, 0
3, 59340, Note_on_c, 0, 63, 58
3, 59340, Note_on_c, 0, 67, 58
3, 59340, Note_on_c, 0, 70, 58
3, 59400, Note_on_c, 0, 70, 0
3, 59400, Note_on_c, 0, 67, 0
3, 59400, Note_on_c, 0, 63, 0
3, 59460, Note_on_c, 0, 67, 55
3, 59460, Note_on_c, 0, 70, 55
3, 59460, Note_on_c, 0, 63, 55
3, 59520, Note_on_c, 0, 63, 0
3, 59520, Note_on_c, 0, 70, 0
3, 59520, Note_on_c, 0, 67, 0
3, 59580, Note_on_c, 0, 66, 57
3, 59580, Note_on_c, 0, 68, 57
3, 59580, Note_on_c, 0, 63, 57
3, 59640, Note_on_c, 0, 63, 0
3, 59640, Note_on_c, 0, 68, 0
3, 59640, Note_on_c, 0, 66, 0
3, 59700, Note_on_c, 0, 66, 59
3, 59700, Note_on_c, 0, 68, 59
3, 59700, Note_on_c, 0, 63, 59
3, 59760, Note_on_c, 0, 63, 0
3, 59760, Note_on_c, 0, 68, 0
3, 59760, Note_on_c, 0, 66, 0
3, 59820, Note_on_c, 0, 68, 61
3, 59820, Note_on_c, 0, 65, 61
3, 59880, Note_on_c, 0, 65, 0
3, 59880, Note_on_c, 0, 68, 0
3, 59940, Note_on_c, 0, 68, 63
3, 59940, Note_on_c, 0, 65, 63
3, 60000, Note_on_c, 0, 65, 0
3, 60000, Note_on_c, 0, 68, 0
3, 60060, Note_on_c, 0, 68, 65
3, 60120, Note_on_c, 0, 68, 0
3, 60180, Note_on_c, 0, 68, 67
3, 60240, Note_on_c, 0, 68, 0
3, 60300, Note_on_c, 0, 68, 69
3, 60360, Note_on_c, 0, 68, 0
3, 60420, Note_on_c, 0, 68, 71
3, 60480, Note_on_c, 0, 68, 0
3, 60540, Note_on_c, 0, 68, 73
3, 60600, Note_on_c, 0, 68, 0
3, 60660, Note_on_c, 0, 68, 75
3, 60720, Note_on_c, 0, 68, 0
3, 60780, Note_on_c, 0, 67, 77
3, 60840, Note_on_c, 0, 67, 0
3, 60900, Note_on_c, 0, 67, 80
3, 60960, Note_on_c, 0, 67, 0
3, 61020, Note_on_c, 0, 68, 82
3, 61080, Note_on_c, 0, 68, 0
3, 61140, Note_on_c, 0, 68, 76
3, 61200, Note_on_c, 0, 68, 0
3, 61260, Note_on_c, 0, 63, 71
3, 61260, Note_on_c, 0, 72, 71
3, 61320, Note_on_c, 0, 72, 0
3, 61320, Note_on_c, 0, 63, 0
3, 61380, Note_on_c, 0, 63, 69
3, 61380, Note_on_c, 0, 72, 69
3, 61440, Note_on_c, 0, 72, 0
3, 61440, Note_on_c, 0, 63, 0
3, 61500, Note_on_c, 0, 68, 67
3, 61500, Note_on_c, 0, 72, 67
3, 61500, Note_on_c, 0, 63, 67
3, 61560, Note_on_c, 0, 63, 0
3, 61560, Note_on_c, 0, 72, 0
3, 61560, Note_on_c, 0, 68, 0
3, 61620, Note_on_c, 0, 68, 65
3, 61620, Note_on_c, 0, 72, 65
3, 61620, Note_on_c, 0, 63, 65
3, 61680, Note_on_c, 0, 63, 0
3, 61680, Note_on_c, 0, 72, 0
3, 61680, Note_on_c, 0, 68, 0
3, 61740, Note_on_c, 0, 63, 64
3, 61740, Note_on_c, 0, 61, 64
3, 61800, Note_on_c, 0, 61, 0
3, 61800, Note_on_c, 0, 63, 0
3, 61860, Note_on_c, 0, 61, 62
3, 61860, Note_on_c, 0, 63, 62
3, 61920, Note_on_c, 0, 63, 0
3, 61920, Note_on_c, 0, 61, 0
3, 61980, Note_on_c, 0, 60, 60
3, 61980, Note_on_c, 0, 63, 60
3, 62040, Note_on_c, 0, 63, 0
3, 62040, Note_on_c, 0, 60, 0
3, 62100, Note_on_c, 0, 60, 58
3, 62100, Note_on_c, 0, 63, 58
3, 62160, Note_on_c, 0, 63, 0
3, 62160, Note_on_c, 0, 60, 0
3, 62460, Note_on_c, 0, 65, 74
3, 62520, Note_on_c, 0, 65, 0
3, 62580, Note_on_c, 0, 65, 73
3, 62640, Note_on_c, 0, 65, 0
3, 62700, Note_on_c, 0, 65, 72
3, 62760, Note_on_c, 0, 65, 0
3, 62820, Note_on_c, 0, 77, 72
3, 62880, Note_on_c, 0, 77, 0
3, 62940, Note_on_c, 0, 76, 71
3, 63000, Note_on_c, 0, 76, 0
3, 63060, Note_on_c, 0, 76, 70
3, 63120, Note_on_c, 0, 76, 0
3, 63180, Note_on_c, 0, 75, 69
3, 63240, Note_on_c, 0, 75, 0
3, 63300, Note_on_c, 0, 75, 69
3, 63360, Note_on_c, 0, 75, 0
3, 63420, Note_on_c, 0, 73, 68
3, 63480, Note_on_c, 0, 73, 0
3, 63540, Note_on_c, 0, 73, 67
3, 63600, Note_on_c, 0, 73, 0
3, 63660, Note_on_c, 0, 70, 66
3, 63720, Note_on_c, 0, 70, 0
3, 63780, Note_on_c, 0, 70, 65
3, 63840, Note_on_c, 0, 70, 0
3, 63900, Note_on_c, 0, 73, 74
3, 63900, Note_on_c, 0, 65, 74
3, 63960, Note_on_c, 0, 65, 0
3, 63960, Note_on_c, 0, 73, 0
3, 64020, Note_on_c, 0, 73, 73
3, 64020, Note_on_c, 0, 64, 73
3, 64080, Note_on_c, 0, 64, 0
3, 64080, Note_on_c, 0, 73, 0
3, 64140, Note_on_c, 0, 63, 72
3, 64140, Note_on_c, 0, 73, 72
3, 64200, Note_on_c, 0, 73, 0
3, 64200, Note_on_c, 0, 63, 0
3, 64260, Note_on_c, 0, 75, 71
3, 64320, Note_on_c, 0, 75, 0
3, 64380, Note_on_c, 0, 74, 71
3, 64440, Note_on_c, 0, 74, 0
3, 64500, Note_on_c, 0, 74, 70
3, 64560, Note_on_c, 0, 74, 0
3, 64620, Note_on_c, 0, 73, 69
3, 64680, Note_on_c, 0, 73, 0
3, 64740, Note_on_c, 0, 73, 67
3, 64800, Note_on_c, 0, 73, 0
3, 64860, Note_on_c, 0, 72, 66
3, 64920, Note_on_c, 0, 72, 0
3, 64980, Note_on_c, 0, 72, 65
3, 65040, Note_on_c, 0, 72, 0
3, 65100, Note_on_c, 0, 68, 64
3, 65160, Note_on_c, 0, 68, 0
3, 65220, Note_on_c, 0, 68, 63
3, 65280, Note_on_c, 0, 68, 0
3, 65340, Note_on_c, 0, 68, 61
3, 65400, Note_on_c, 0, 68, 0
3, 65460, Note_on_c, 0, 68, 60
3, 65520, Note_on_c, 0, 68, 0
3, 65580, Note_on_c, 0, 68, 59
3, 65640, Note_on_c, 0, 68, 0
3, 65700, Note_on_c, 0, 68, 61
3, 65760, Note_on_c, 0, 68, 0
3, 65820, Note_on_c, 0, 68, 62
3, 65880, Note_on_c, 0, 68, 0
3, 65940, Note_on_c, 0, 68, 63
3, 66000, Note_on_c, 0, 68, 0
3, 66060, Note_on_c, 0, 67, 64
3, 66120, Note_on_c, 0, 67, 0
3, 66180, Note_on_c, 0, 67, 64
3, 66240, Note_on_c, 0, 67, 0
3, 66300, Note_on_c, 0, 72, 65
3, 66360, Note_on_c, 0, 72, 0
3, 66420, Note_on_c, 0, 72, 66
3, 66480, Note_on_c, 0, 72, 0
3, 66540, Note_on_c, 0, 70, 67
3, 66540, Note_on_c, 0, 72, 67
3, 66600, Note_on_c, 0, 72, 0
3, 66600, Note_on_c, 0, 70, 0
3, 66660, Note_on_c, 0, 70, 68
3, 66660, Note_on_c, 0, 72, 68
3, 66720, Note_on_c, 0, 72, 0
3, 66720, Note_on_c, 0, 70, 0
3, 66780, Note_on_c, 0, 68, 69
3, 66780, Note_on_c, 0, 72, 69
3, 66840, Note_on_c, 0, 72, 0
3, 66840, Note_on_c, 0, 68, 0
3, 66900, Note_on_c, 0, 68, 69
3, 66900, Note_on_c, 0, 72, 69
3, 66960, Note_on_c, 0, 72, 0
3, 66960, Note_on_c, 0, 68, 0
3, 67020, Note_on_c, 0, 67, 70
3, 67080, Note_on_c, 0, 67, 0
3, 67140, Note_on_c, 0, 67, 71
3, 67200, Note_on_c, 0, 67, 0
3, 67260, Note_on_c, 0, 67, 72
3, 67320, Note_on_c, 0, 67, 0
3, 67380, Note_on_c, 0, 67, 73
3, 67440, Note_on_c, 0, 67, 0
3, 67500, Note_on_c, 0, 68, 74
3, 67500, Note_on_c, 0, 77, 74
3, 67560, Note_on_c, 0, 77, 0
3, 67560, Note_on_c, 0, 68, 0
3, 67620, Note_on_c, 0, 68, 74
3, 67620, Note_on_c, 0, 77, 74
3, 67680, Note_on_c, 0, 77, 0
3, 67680, Note_on_c, 0, 68, 0
3, 67740, Note_on_c, 0, 67, 75
3, 67740, Note_on_c, 0, 77, 75
3, 67800, Note_on_c, 0, 77, 0
3, 67800, Note_on_c, 0, 67, 0
3, 67860, Note_on_c, 0, 75, 76
3, 67860, Note_on_c, 0, 67, 76
3, 67920, Note_on_c, 0, 67, 0
3, 67920, Note_on_c, 0, 75, 0
3, 67980, Note_on_c, 0, 67, 77
3, 67980, Note_on_c, 0, 75, 77
3, 68040, Note_on_c, 0, 75, 0
3, 68040, Note_on_c, 0, 67, 0
3, 68100, Note_on_c, 0, 75, 78
3, 68100, Note_on_c, 0, 67, 78
3, 68160, Note_on_c, 0, 67, 0
3, 68160, Note_on_c, 0, 75, 0
3, 68220, Note_on_c, 0, 75, 78
3, 68220, Note_on_c, 0, 72, 78
3, 68280, Note_on_c, 0, 72, 0
3, 68280, Note_on_c, 0, 75, 0
3, 68340, Note_on_c, 0, 75, 79
3, 68340, Note_on_c, 0, 72, 79
3, 68400, Note_on_c, 0, 72, 0
3, 68400, Note_on_c, 0, 75, 0
3, 68460, Note_on_c, 0, 70, 80
3, 68460, Note_on_c, 0, 75, 80
3, 68460, Note_on_c, 0, 79, 80
3, 68520, Note_on_c, 0, 79, 0
3, 68520, Note_on_c, 0, 75, 0
3, 68520, Note_on_c, 0, 70, 0
3, 68580, Note_on_c, 0, 70, 81
3, 68580, Note_on_c, 0, 75, 81
3, 68580, Note_on_c, 0, 79, 81
3, 68640, Note_on_c, 0, 79, 0
3, 68640, Note_on_c, 0, 75, 0
3, 68640, Note_on_c, 0, 70, 0
3, 68700, Note_on_c, 0, 70, 82
3, 68700, Note_on_c, 0, 67, 82
3, 68760, Note_on_c, 0, 67, 0
3, 68760, Note_on_c, 0, 70, 0
3, 68820, Note_on_c, 0, 67, 83
3, 68820, Note_on_c, 0, 70, 83
3, 68880, Note_on_c, 0, 70, 0
3, 68880, Note_on_c, 0, 67, 0
3, 68940, Note_on_c, 0, 68, 83
3, 68940, Note_on_c, 0, 70, 83
3, 69000, Note_on_c, 0, 70, 0
3, 69000, Note_on_c, 0, 68, 0
3, 69060, Note_on_c, 0, 68, 84
3, 69060, Note_on_c, 0, 70, 84
3, 69120, Note_on_c, 0, 70, 0
3, 69120, Note_on_c, 0, 68, 0
3, 69180, Note_on_c, 0, 67, 74
3, 69180, Note_on_c, 0, 70, 74
3, 69240, Note_on_c, 0, 70, 0
3, 69240, Note_on_c, 0, 67, 0
3, 69300, Note_on_c, 0, 67, 68
3, 69300, Note_on_c, 0, 70, 68
3, 69360, Note_on_c, 0, 70, 0
3, 69360, Note_on_c, 0, 67, 0
3, 69420, Note_on_c, 0, 63, 62
3, 69420, Note_on_c, 0, 68, 62
3, 69480, Note_on_c, 0, 68, 0
3, 69480, Note_on_c, 0, 63, 0
3, 69540, Note_on_c, 0, 68, 56
3, 69540, Note_on_c, 0, 63, 56
3, 69600, Note_on_c, 0, 63, 0
3, 69600, Note_on_c, 0, 68, 0
3, 69660, Note_on_c, 0, 70, 55
3, 69660, Note_on_c, 0, 61, 55
3, 69720, Note_on_c, 0, 61, 0
3, 69720, Note_on_c, 0, 70, 0
3, 69780, Note_on_c, 0, 61, 55
3, 69780, Note_on_c, 0, 70, 55
3, 69840, Note_on_c, 0, 70, 0
3, 69840, Note_on_c, 0, 61, 0
3, 69900, Note_on_c, 0, 63, 55
3, 69900, Note_on_c, 0, 68, 55
3, 69960, Note_on_c, 0, 68, 0
3, 69960, Note_on_c, 0, 63, 0
3, 70020, Note_on_c, 0, 68, 56
3, 70020, Note_on_c, 0, 72, 56
3, 70080, Note_on_c, 0, 72, 0
3, 70080, Note_on_c, 0, 68, 0
3, 70140, Note_on_c, 0, 68, 57
3, 70140, Note_on_c, 0, 72, 57
3, 70200, Note_on_c, 0, 72, 0
3, 70200, Note_on_c, 0, 68, 0
3, 70260, Note_on_c, 0, 68, 58
3, 70260, Note_on_c, 0, 72, 58
3, 70260, Note_on_c, 0, 63, 58
3, 70320, Note_on_c, 0, 63, 0
3, 70320, Note_on_c, 0, 72, 0
3, 70320, Note_on_c, 0, 68, 0
3, 70380, Note_on_c, 0, 68, 59
3, 70380, Note_on_c, 0, 72, 59
3, 70380, Note_on_c, 0, 63, 59
3, 70440, Note_on_c, 0, 63, 0
3, 70440, Note_on_c, 0, 72, 0
3, 70440, Note_on_c, 0, 68, 0
3, 70500, Note_on_c, 0, 68, 60
3, 70500, Note_on_c, 0, 63, 60
3, 70500, Note_on_c, 0, 72, 60
3, 70560, Note_on_c, 0, 72, 0
3, 70560, Note_on_c, 0, 63, 0
3, 70560, Note_on_c, 0, 68, 0
3, 70620, Note_on_c, 0, 70, 61
3, 70620, Note_on_c, 0, 73, 61
3, 70620, Note_on_c, 0, 63, 61
3, 70680, Note_on_c, 0, 63, 0
3, 70680, Note_on_c, 0, 73, 0
3, 70680, Note_on_c, 0, 70, 0
3, 70740, Note_on_c, 0, 73, 62
3, 70740, Note_on_c, 0, 70, 62
3, 70740, Note_on_c, 0, 63, 62
3, 70800, Note_on_c, 0, 63, 0
3, 70800, Note_on_c, 0, 70, 0
3, 70800, Note_on_c, 0, 73, 0
3, 70860, Note_on_c, 0, 73, 62
3, 70860, Note_on_c, 0, 63, 62
3, 70860, Note_on_c, 0, 70, 62
3, 70920, Note_on_c, 0, 70, 0
3, 70920, Note_on_c, 0, 63, 0
3, 70920, Note_on_c, 0, 73, 0
3, 70980, Note_on_c, 0, 70, 63
3, 70980, Note_on_c, 0, 73, 63
3, 70980, Note_on_c, 0, 63, 63
3, 71040, Note_on_c, 0, 63, 0
3, 71040, Note_on_c, 0, 73, 0
3, 71040, Note_on_c, 0, 70, 0
3, 71100, Note_on_c, 0, 63, 64
3, 71100, Note_on_c, 0, 73, 64
3, 71100, Note_on_c, 0, 70, 64
3, 71160, Note_on_c, 0, 70, 0
3, 71160, Note_on_c, 0, 73, 0
3, 71160, Note_on_c, 0, 63, 0
3, 71220, Note_on_c, 0, 73, 65
3, 71220, Note_on_c, 0, 70, 65
3, 71220, Note_on_c, 0, 63, 65
3, 71280, Note_on_c, 0, 63, 0
3, 71280, Note_on_c, 0, 70, 0
3, 71280, Note_on_c, 0, 73, 0
3, 71340, Note_on_c, 0, 68, 66
3, 71340, Note_on_c, 0, 72, 66
3, 71340, Note_on_c, 0, 63, 66
3, 71400, Note_on_c, 0, 63, 0
3, 71400, Note_on_c, 0, 72, 0
3, 71400, Note_on_c, 0, 68, 0
3, 71460, Note_on_c, 0, 68, 67
3, 71460, Note_on_c, 0, 72, 67
3, 71460, Note_on_c, 0, 63, 67
3, 71520, Note_on_c, 0, 63, 0
3, 71520, Note_on_c, 0, 72, 0
3, 71520, Note_on_c, 0, 68, 0
3, 71580, Note_on_c, 0, 68, 68
3, 71580, Note_on_c, 0, 72, 68
3, 71580, Note_on_c, 0, 63, 68
3, 71640, Note_on_c, 0, 63, 0
3, 71640, Note_on_c, 0, 72, 0
3, 71640, Note_on_c, 0, 68, 0
3, 71700, Note_on_c, 0, 68, 68
3, 71700, Note_on_c, 0, 72, 68
3, 71760, Note_on_c, 0, 72, 0
3, 71760, Note_on_c, 0, 68, 0
3, 71820, Note_on_c, 0, 73, 69
3, 71820, Note_on_c, 0, 67, 69
3, 71820, Note_on_c, 0, 63, 69
3, 71880, Note_on_c, 0, 63, 0
3, 71880, Note_on_c, 0, 67, 0
3, 71880, Note_on_c, 0, 73, 0
3, 71940, Note_on_c, 0, 67, 70
3, 71940, Note_on_c, 0, 63, 70
3, 72000, Note_on_c, 0, 63, 0
3, 72000, Note_on_c, 0, 67, 0
3, 72060, Note_on_c, 0, 63, 68
3, 72060, Note_on_c, 0, 68, 68
3, 72120, Note_on_c, 0, 68, 0
3, 72120, Note_on_c, 0, 63, 0
3, 72180, Note_on_c, 0, 68, 64
3, 72180, Note_on_c, 0, 63, 64
3, 72240, Note_on_c, 0, 63, 0
3, 72240, Note_on_c, 0, 68, 0
3, 72300, Note_on_c, 0, 63, 59
3, 72300, Note_on_c, 0, 67, 59
3, 72360, Note_on_c, 0, 67, 0
3, 72360, Note_on_c, 0, 63, 0
3, 72420, Note_on_c, 0, 67, 55
3, 72420, Note_on_c, 0, 63, 55
3, 72480, Note_on_c, 0, 63, 0
3, 72480, Note_on_c, 0, 67, 0
3, 72540, Note_on_c, 0, 66, 57
3, 72540, Note_on_c, 0, 68, 57
3, 72540, Note_on_c, 0, 63, 57
3, 72600, Note_on_c, 0, 63, 0
3, 72600, Note_on_c, 0, 68, 0
3, 72600, Note_on_c, 0, 66, 0
3, 72660, Note_on_c, 0, 66, 58
3, 72660, Note_on_c, 0, 68, 58
3, 72660, Note_on_c, 0, 63, 58
3, 72720, Note_on_c, 0, 63, 0
3, 72720, Note_on_c, 0, 68, 0
3, 72720, Note_on_c, 0, 66, 0
3, 72780, Note_on_c, 0, 68, 60
3, 72780, Note_on_c, 0, 65, 60
3, 72840, Note_on_c, 0, 65, 0
3, 72840, Note_on_c, 0, 68, 0
3, 72900, Note_on_c, 0, 68, 61
3, 72900, Note_on_c, 0, 65, 61
3, 72960, Note_on_c, 0, 65, 0
3, 72960, Note_on_c, 0, 68, 0
3, 73020, Note_on_c, 0, 68, 63
3, 73080, Note_on_c, 0, 68, 0
3, 73140, Note_on_c, 0, 68, 64
3, 73200, Note_on_c, 0, 68, 0
3, 73260, Note_on_c, 0, 68, 66
3, 73320, Note_on_c, 0, 68, 0
3, 73380, Note_on_c, 0, 68, 67
3, 73440, Note_on_c, 0, 68, 0
3, 73500, Note_on_c, 0, 68, 69
3, 73560, Note_on_c, 0, 68, 0
3, 73620, Note_on_c, 0, 68, 70
3, 73680, Note_on_c, 0, 68, 0
3, 73740, Note_on_c, 0, 67, 72
3, 73800, Note_on_c, 0, 67, 0
3, 73860, Note_on_c, 0, 67, 73
3, 73920, Note_on_c, 0, 67, 0
3, 73980, Note_on_c, 0, 68, 75
3, 74040, Note_on_c, 0, 68, 0
3, 74100, Note_on_c, 0, 68, 76
3, 74160, Note_on_c, 0, 68, 0
3, 74220, Note_on_c, 0, 63, 70
3, 74220, Note_on_c, 0, 72, 70
3, 74280, Note_on_c, 0, 72, 0
3, 74280, Note_on_c, 0, 63, 0
3, 74340, Note_on_c, 0, 72, 68
3, 74340, Note_on_c, 0, 63, 68
3, 74400, Note_on_c, 0, 63, 0
3, 74400, Note_on_c, 0, 72, 0
3, 74460, Note_on_c, 0, 68, 66
3, 74460, Note_on_c, 0, 72, 66
3, 74460, Note_on_c, 0, 63, 66
3, 74520, Note_on_c, 0, 63, 0
3, 74520, Note_on_c, 0, 72, 0
3, 74520, Note_on_c, 0, 68, 0
3, 74580, Note_on_c, 0, 68, 63
3, 74580, Note_on_c, 0, 63, 63
3, 74580, Note_on_c, 0, 72, 63
3, 74640, Note_on_c, 0, 72, 0
3, 74640, Note_on_c, 0, 63, 0
3, 74640, Note_on_c, 0, 68, 0
3, 74700, Note_on_c, 0, 63, 61
3, 74700, Note_on_c, 0, 61, 61
3, 74760, Note_on_c, 0, 61, 0
3, 74760, Note_on_c, 0, 63, 0
3, 74820, Note_on_c, 0, 61, 59
3, 74820, Note_on_c, 0, 63, 59
3, 74880, Note_on_c, 0, 63, 0
3, 74880, Note_on_c, 0, 61, 0
3, 74940, Note_on_c, 0, 63, 57
3, 74940, Note_on_c, 0, 60, 57
3, 75000, Note_on_c, 0, 60, 0
3, 75000, Note_on_c, 0, 63, 0
3, 75060, Note_on_c, 0, 60, 55
3, 75060, Note_on_c, 0, 63, 55
3, 75120, Note_on_c, 0, 63, 0
3, 75120, Note_on_c, 0, 60, 0
3, 81840, Note_on_c, 0, 51, 53
3, 81960, Note_on_c, 0, 51, 0
3, 81960, Note_on_c, 0, 51, 53
3, 82200, Note_on_c, 0, 51, 0
3, 82200, Note_on_c, 0, 56, 53
3, 82440, Note_on_c, 0, 56, 0
3, 82440, Note_on_c, 0, 56, 54
3, 82680, Note_on_c, 0, 56, 0
3, 82680, Note_on_c, 0, 56, 55
3, 82920, Note_on_c, 0, 56, 0
3, 82920, Note_on_c, 0, 55, 55
3, 83160, Note_on_c, 0, 55, 0
3, 83160, Note_on_c, 0, 55, 56
3, 83400, Note_on_c, 0, 55, 0
3, 83400, Note_on_c, 0, 55, 56
3, 83640, Note_on_c, 0, 55, 0
3, 83640, Note_on_c, 0, 56, 57
3, 83880, Note_on_c, 0, 56, 0
3, 83880, Note_on_c, 0, 56, 57
3, 84120, Note_on_c, 0, 56, 0
3, 84120, Note_on_c, 0, 56, 58
3, 84360, Note_on_c, 0, 56, 0
3, 84360, Note_on_c, 0, 57, 60
3, 84600, Note_on_c, 0, 57, 0
3, 84600, Note_on_c, 0, 57, 63
3, 84840, Note_on_c, 0, 57, 0
3, 84840, Note_on_c, 0, 57, 65
3, 85080, Note_on_c, 0, 57, 0
3, 85080, Note_on_c, 0, 60, 68
3, 85320, Note_on_c, 0, 60, 0
3, 85320, Note_on_c, 0, 60, 70
3, 85560, Note_on_c, 0, 60, 0
3, 85560, Note_on_c, 0, 60, 72
3, 85800, Note_on_c, 0, 60, 0
3, 85800, Note_on_c, 0, 61, 76
3, 86040, Note_on_c, 0, 61, 0
3, 86040, Note_on_c, 0, 61, 79
3, 86280, Note_on_c, 0, 61, 0
3, 86280, Note_on_c, 0, 62, 83
3, 86400, Note_on_c, 0, 62, 0
3, 86400, Note_on_c, 0, 62, 86
3, 86520, Note_on_c, 0, 62, 0
3, 86520, Note_on_c, 0, 63, 82
3, 86760, Note_on_c, 0, 63, 0
3, 86760, Note_on_c, 0, 63, 73
3, 87000, Note_on_c, 0, 63, 0
3, 87000, Note_on_c, 0, 63, 64
3, 87120, Note_on_c, 0, 63, 0
3, 87600, Note_on_c, 0, 69, 86
3, 87840, Note_on_c, 0, 75, 82
3, 88080, Note_on_c, 0, 69, 0
3, 88080, Note_on_c, 0, 68, 73
3, 88320, Note_on_c, 0, 72, 72
3, 88560, Note_on_c, 0, 72, 0
3, 88560, Note_on_c, 0, 75, 0
3, 88560, Note_on_c, 0, 73, 70
3, 88920, Note_on_c, 0, 73, 0
3, 88920, Note_on_c, 0, 68, 0
3, 89040, Note_on_c, 0, 64, 76
3, 89280, Note_on_c, 0, 70, 72
3, 89520, Note_on_c, 0, 64, 0
3, 89520, Note_on_c, 0, 63, 62
3, 89760, Note_on_c, 0, 67, 60
3, 90000, Note_on_c, 0, 67, 0
3, 90000, Note_on_c, 0, 70, 0
3, 90000, Note_on_c, 0, 68, 58
3, 90360, Note_on_c, 0, 68, 0
3, 90360, Note_on_c, 0, 63, 0
3, 90480, Note_on_c, 0, 59, 53
3, 90592, Note_on_c, 0, 59, 0
3, 90600, Note_on_c, 0, 59, 63
3, 90840, Note_on_c, 0, 59, 0
3, 90840, Note_on_c, 0, 58, 55
3, 91080, Note_on_c, 0, 58, 0
3, 91080, Note_on_c, 0, 58, 57
3, 91200, Note_on_c, 0, 58, 0
3, 91200, Note_on_c, 0, 68, 58
3, 91320, Note_on_c, 0, 68, 0
3, 91320, Note_on_c, 0, 68, 72
3, 91560, Note_on_c, 0, 68, 0
3, 91560, Note_on_c, 0, 66, 62
3, 91800, Note_on_c, 0, 66, 0
3, 91800, Note_on_c, 0, 66, 59
3, 91920, Note_on_c, 0, 66, 0
3, 91920, Note_on_c, 0, 65, 57
3, 92040, Note_on_c, 0, 65, 0
3, 92040, Note_on_c, 0, 65, 78
3, 92280, Note_on_c, 0, 65, 0
3, 92280, Note_on_c, 0, 63, 68
3, 92520, Note_on_c, 0, 63, 0
3, 92520, Note_on_c, 0, 63, 65
3, 92640, Note_on_c, 0, 63, 0
3, 92640, Note_on_c, 0, 62, 63
3, 92760, Note_on_c, 0, 62, 0
3, 92760, Note_on_c, 0, 62, 84
3, 93000, Note_on_c, 0, 62, 0
3, 93000, Note_on_c, 0, 63, 76
3, 93240, Note_on_c, 0, 63, 0
3, 93240, Note_on_c, 0, 63, 73
3, 93360, Note_on_c, 0, 63, 0
3, 93360, Note_on_c, 0, 65, 71
3, 93480, Note_on_c, 0, 65, 0
3, 93480, Note_on_c, 0, 65, 88
3, 93720, Note_on_c, 0, 65, 0
3, 93720, Note_on_c, 0, 63, 80
3, 93960, Note_on_c, 0, 63, 0
3, 93960, Note_on_c, 0, 63, 78
3, 94080, Note_on_c, 0, 63, 0
3, 94080, Note_on_c, 0, 62, 77
3, 94200, Note_on_c, 0, 62, 0
3, 94200, Note_on_c, 0, 62, 88
3, 94440, Note_on_c, 0, 62, 0
3, 94440, Note_on_c, 0, 63, 72
3, 94680, Note_on_c, 0, 63, 0
3, 94680, Note_on_c, 0, 51, 57
3, 94920, Note_on_c, 0, 51, 0
3, 94920, Note_on_c, 0, 51, 58
3, 95160, Note_on_c, 0, 51, 0
3, 95160, Note_on_c, 0, 56, 59
3, 95400, Note_on_c, 0, 56, 0
3, 95400, Note_on_c, 0, 56, 60
3, 95640, Note_on_c, 0, 56, 0
3, 95640, Note_on_c, 0, 56, 61
3, 95880, Note_on_c, 0, 56, 0
3, 95880, Note_on_c, 0, 55, 62
3, 96120, Note_on_c, 0, 55, 0
3, 96120, Note_on_c, 0, 55, 63
3, 96360, Note_on_c, 0, 55, 0
3, 96360, Note_on_c, 0, 55, 64
3, 96600, Note_on_c, 0, 55, 0
3, 96600, Note_on_c, 0, 56, 65
3, 96840, Note_on_c, 0, 56, 0
3, 96840, Note_on_c, 0, 56, 66
3, 97080, Note_on_c, 0, 56, 0
3, 97080, Note_on_c, 0, 56, 67
3, 97320, Note_on_c, 0, 56, 0
3, 97320, Note_on_c, 0, 57, 68
3, 97560, Note_on_c, 0, 57, 0
3, 97560, Note_on_c, 0, 57, 69
3, 97800, Note_on_c, 0, 57, 0
3, 97800, Note_on_c, 0, 57, 70
3, 98040, Note_on_c, 0, 57, 0
3, 98040, Note_on_c, 0, 60, 71
3, 98280, Note_on_c, 0, 60, 0
3, 98280, Note_on_c, 0, 60, 72
3, 98520, Note_on_c, 0, 60, 0
3, 98520, Note_on_c, 0, 60, 73
3, 98760, Note_on_c, 0, 60, 0
3, 98760, Note_on_c, 0, 61, 74
3, 99000, Note_on_c, 0, 61, 0
3, 99000, Note_on_c, 0, 61, 75
3, 99240, Note_on_c, 0, 61, 0
3, 99240, Note_on_c, 0, 62, 76
3, 99360, Note_on_c, 0, 62, 0
3, 99360, Note_on_c, 0, 62, 79
3, 99480, Note_on_c, 0, 62, 0
3, 99480, Note_on_c, 0, 63, 76
3, 99720, Note_on_c, 0, 63, 0
3, 99720, Note_on_c, 0, 63, 72
3, 99960, Note_on_c, 0, 63, 0
3, 99960, Note_on_c, 0, 63, 67
3, 100080, Note_on_c, 0, 63, 0
3, 101280, Note_on_c, 0, 63, 49
3, 101760, Note_on_c, 0, 63, 0
3, 101760, Note_on_c, 0, 68, 44
3, 101880, Note_on_c, 0, 68, 0
3, 102000, Note_on_c, 0, 80, 48
3, 102480, Note_on_c, 0, 80, 0
3, 102480, Note_on_c, 0, 79, 45
3, 102600, Note_on_c, 0, 79, 0
3, 102720, Note_on_c, 0, 67, 49
3, 103200, Note_on_c, 0, 67, 0
3, 103200, Note_on_c, 0, 68, 47
3, 103320, Note_on_c, 0, 68, 0
3, 103440, Note_on_c, 0, 80, 53
3, 103920, Note_on_c, 0, 80, 0
3, 103920, Note_on_c, 0, 79, 48
3, 104040, Note_on_c, 0, 79, 0
3, 104160, Note_on_c, 0, 65, 53
3, 104400, Note_on_c, 0, 65, 0
3, 104400, Note_on_c, 0, 64, 49
3, 104640, Note_on_c, 0, 64, 0
3, 104640, Note_on_c, 0, 63, 47
3, 104760, Note_on_c, 0, 63, 0
3, 104880, Note_on_c, 0, 77, 60
3, 105360, Note_on_c, 0, 77, 0
3, 105360, Note_on_c, 0, 75, 56
3, 105480, Note_on_c, 0, 75, 0
3, 105600, Note_on_c, 0, 56, 60
3, 105600, Note_on_c, 0, 59, 60
3, 105840, Note_on_c, 0, 59, 0
3, 105840, Note_on_c, 0, 56, 0
3, 105840, Note_on_c, 0, 58, 64
3, 105840, Note_on_c, 0, 52, 64
3, 106080, Note_on_c, 0, 52, 0
3, 106080, Note_on_c, 0, 58, 0
3, 106080, Note_on_c, 0, 51, 67
3, 106080, Note_on_c, 0, 56, 67
3, 106320, Note_on_c, 0, 56, 0
3, 106320, Note_on_c, 0, 51, 0
3, 106320, Note_on_c, 0, 53, 74
3, 106320, Note_on_c, 0, 56, 74
3, 106800, Note_on_c, 0, 56, 0
3, 106800, Note_on_c, 0, 53, 0
3, 106800, Note_on_c, 0, 55, 57
3, 106920, Note_on_c, 0, 55, 0
3, 107040, Note_on_c, 0, 39, 51
3, 107520, Note_on_c, 0, 39, 0
3, 107520, Note_on_c, 0, 56, 43
3, 107640, Note_on_c, 0, 56, 0
3, 107760, Note_on_c, 0, 68, 49
3, 108240, Note_on_c, 0, 68, 0
3, 108240, Note_on_c, 0, 67, 45
3, 108360, Note_on_c, 0, 67, 0
3, 108480, Note_on_c, 0, 55, 52
3, 108960, Note_on_c, 0, 55, 0
3, 108960, Note_on_c, 0, 56, 46
3, 109080, Note_on_c, 0, 56, 0
3, 109200, Note_on_c, 0, 80, 54
3, 109680, Note_on_c, 0, 80, 0
3, 109680, Note_on_c, 0, 79, 48
3, 109800, Note_on_c, 0, 79, 0
3, 109920, Note_on_c, 0, 65, 54
3, 110160, Note_on_c, 0, 65, 0
3, 110160, Note_on_c, 0, 64, 49
3, 110400, Note_on_c, 0, 64, 0
3, 110400, Note_on_c, 0, 63, 47
3, 110520, Note_on_c, 0, 63, 0
3, 110640, Note_on_c, 0, 77, 61
3, 111120, Note_on_c, 0, 77, 0
3, 111120, Note_on_c, 0, 75, 50
3, 111240, Note_on_c, 0, 75, 0
3, 111360, Note_on_c, 0, 59, 77
3, 111360, Note_on_c, 0, 62, 77
3, 111840, Note_on_c, 0, 62, 0
3, 111840, Note_on_c, 0, 59, 0
3, 111840, Note_on_c, 0, 63, 55
3, 111840, Note_on_c, 0, 60, 55
3, 112080, Note_on_c, 0, 60, 0
3, 112080, Note_on_c, 0, 63, 0
3, 112080, Note_on_c, 0, 58, 49
3, 112080, Note_on_c, 0, 61, 49
3, 112320, Note_on_c, 0, 61, 0
3, 112320, Note_on_c, 0, 58, 0
3, 112320, Note_on_c, 0, 56, 44
3, 112320, Note_on_c, 0, 60, 44
3, 112440, Note_on_c, 0, 60, 0
3, 112440, Note_on_c, 0, 56, 0
3, 112800, Note_on_c, 0, 54, 57
3, 113280, Note_on_c, 0, 54, 0
3, 113280, Note_on_c, 0, 53, 49
3, 113400, Note_on_c, 0, 53, 0
3, 113520, Note_on_c, 0, 75, 62
3, 114000, Note_on_c, 0, 75, 0
3, 114000, Note_on_c, 0, 73, 53
3, 114120, Note_on_c, 0, 73, 0
3, 114240, Note_on_c, 0, 52, 63
3, 114720, Note_on_c, 0, 52, 0
3, 114720, Note_on_c, 0, 51, 60
3, 114840, Note_on_c, 0, 51, 0
3, 114960, Note_on_c, 0, 73, 68
3, 115440, Note_on_c, 0, 73, 0
3, 115440, Note_on_c, 0, 72, 64
3, 115560, Note_on_c, 0, 72, 0
3, 115680, Note_on_c, 0, 48, 84
3, 115680, Note_on_c, 0, 53, 84
3, 115920, Note_on_c, 0, 53, 0
3, 115920, Note_on_c, 0, 48, 0
3, 115920, Note_on_c, 0, 53, 74
3, 115920, Note_on_c, 0, 50, 74
3, 116275, Note_on_c, 0, 50, 0
3, 116275, Note_on_c, 0, 53, 0
3, 116400, Note_on_c, 0, 61, 89
3, 116400, Note_on_c, 0, 64, 89
3, 116400, Note_on_c, 0, 67, 89
3, 116880, Note_on_c, 0, 67, 0
3, 116880, Note_on_c, 0, 64, 0
3, 116880, Note_on_c, 0, 61, 0
3, 116880, Note_on_c, 0, 60, 81
3, 116880, Note_on_c, 0, 65, 81
3, 117000, Note_on_c, 0, 65, 0
3, 117000, Note_on_c, 0, 60, 0
3, 117120, Note_on_c, 0, 72, 95
3, 117120, Note_on_c, 0, 65, 95
3, 117360, Note_on_c, 0, 65, 0
3, 117360, Note_on_c, 0, 72, 0
3, 117360, Note_on_c, 0, 70, 87
3, 117360, Note_on_c, 0, 67, 87
3, 117720, Note_on_c, 0, 67, 0
3, 117725, Note_on_c, 0, 70, 0
3, 117840, Note_on_c, 0, 53, 98
3, 117840, Note_on_c, 0, 56, 98
3, 118320, Note_on_c, 0, 56, 0
3, 118320, Note_on_c, 0, 53, 0
3, 118320, Note_on_c, 0, 55, 90
3, 118320, Note_on_c, 0, 51, 90
3, 118440, Note_on_c, 0, 51, 0
3, 118440, Note_on_c, 0, 55, 0
3, 118560, Note_on_c, 0, 72, 104
3, 118560, Note_on_c, 0, 65, 104
3, 118800, Note_on_c, 0, 65, 0
3, 118800, Note_on_c, 0, 72, 0
3, 118800, Note_on_c, 0, 70, 93
3, 118800, Note_on_c, 0, 67, 93
3, 119040, Note_on_c, 0, 67, 0
3, 119040, Note_on_c, 0, 70, 0
3, 119040, Note_on_c, 0, 70, 91
3, 119040, Note_on_c, 0, 67, 91
3, 119160, Note_on_c, 0, 67, 0
3, 119160, Note_on_c, 0, 70, 0
3, 119280, Note_on_c, 0, 53, 109
3, 119280, Note_on_c, 0, 56, 109
3, 119520, Note_on_c, 0, 56, 0
3, 119520, Note_on_c, 0, 53, 0
3, 119520, Note_on_c, 0, 51, 98
3, 119520, Note_on_c, 0, 55, 98
3, 119640, Note_on_c, 0, 55, 0
3, 119640, Note_on_c, 0, 51, 0
3, 119760, Note_on_c, 0, 53, 89
3, 119760, Note_on_c, 0, 56, 89
3, 120000, Note_on_c, 0, 56, 0
3, 120000, Note_on_c, 0, 53, 0
3, 120000, Note_on_c, 0, 55, 76
3, 120000, Note_on_c, 0, 58, 76
3, 120240, Note_on_c, 0, 58, 0
3, 120240, Note_on_c, 0, 55, 0
3, 120240, Note_on_c, 0, 56, 61
3, 120240, Note_on_c, 0, 60, 61
3, 120480, Note_on_c, 0, 60, 0
3, 120480, Note_on_c, 0, 56, 0
3, 120720, Note_on_c, 0, 68, 47
3, 121200, Note_on_c, 0, 68, 0
3, 121200, Note_on_c, 0, 67, 43
3, 121320, Note_on_c, 0, 67, 0
3, 121440, Note_on_c, 0, 55, 49
3, 121920, Note_on_c, 0, 55, 0
3, 121920, Note_on_c, 0, 56, 45
3, 122035, Note_on_c, 0, 56, 0
3, 122160, Note_on_c, 0, 80, 51
3, 122640, Note_on_c, 0, 80, 0
3, 122640, Note_on_c, 0, 79, 47
3, 122755, Note_on_c, 0, 79, 0
3, 122880, Note_on_c, 0, 65, 55
3, 123120, Note_on_c, 0, 65, 0
3, 123120, Note_on_c, 0, 64, 48
3, 123360, Note_on_c, 0, 64, 0
3, 123360, Note_on_c, 0, 63, 48
3, 123480, Note_on_c, 0, 63, 0
3, 123600, Note_on_c, 0, 77, 63
3, 124080, Note_on_c, 0, 77, 0
3, 124080, Note_on_c, 0, 75, 52
3, 124205, Note_on_c, 0, 75, 0
3, 124320, Note_on_c, 0, 62, 75
3, 124320, Note_on_c, 0, 59, 75
3, 124800, Note_on_c, 0, 59, 0
3, 124800, Note_on_c, 0, 62, 0
3, 124800, Note_on_c, 0, 60, 55
3, 124800, Note_on_c, 0, 63, 55
3, 125040, Note_on_c, 0, 63, 0
3, 125040, Note_on_c, 0, 60, 0
3, 125040, Note_on_c, 0, 61, 50
3, 125040, Note_on_c, 0, 58, 50
3, 125280, Note_on_c, 0, 58, 0
3, 125280, Note_on_c, 0, 61, 0
3, 125280, Note_on_c, 0, 60, 45
3, 125280, Note_on_c, 0, 56, 45
3, 125400, Note_on_c, 0, 56, 0
3, 125400, Note_on_c, 0, 60, 0
3, 126480, Note_on_c, 0, 60, 55
3, 126710, Note_on_c, 0, 60, 0
3, 126720, Note_on_c, 0, 60, 55
3, 126950, Note_on_c, 0, 60, 0
3, 126960, Note_on_c, 0, 60, 56
3, 127190, Note_on_c, 0, 60, 0
3, 127200, Note_on_c, 0, 60, 57
3, 127430, Note_on_c, 0, 60, 0
3, 127440, Note_on_c, 0, 61, 58
3, 127670, Note_on_c, 0, 61, 0
3, 127680, Note_on_c, 0, 61, 58
3, 127910, Note_on_c, 0, 61, 0
3, 127920, Note_on_c, 0, 61, 59
3, 128150, Note_on_c, 0, 61, 0
3, 128160, Note_on_c, 0, 63, 60
3, 128390, Note_on_c, 0, 63, 0
3, 128400, Note_on_c, 0, 63, 61
3, 128630, Note_on_c, 0, 63, 0
3, 128640, Note_on_c, 0, 63, 61
3, 128870, Note_on_c, 0, 63, 0
3, 128880, Note_on_c, 0, 63, 64
3, 128960, Note_on_c, 0, 70, 62
3, 129040, Note_on_c, 0, 70, 0
3, 129040, Note_on_c, 0, 68, 59
3, 129110, Note_on_c, 0, 63, 0
3, 129120, Note_on_c, 0, 68, 0
3, 129120, Note_on_c, 0, 63, 57
3, 129200, Note_on_c, 0, 68, 55
3, 129280, Note_on_c, 0, 68, 0
3, 129280, Note_on_c, 0, 67, 55
3, 129350, Note_on_c, 0, 63, 0
3, 129360, Note_on_c, 0, 67, 0
3, 129600, Note_on_c, 0, 68, 57
3, 129836, Note_on_c, 0, 68, 0
3, 129840, Note_on_c, 0, 68, 59
3, 130076, Note_on_c, 0, 68, 0
3, 130080, Note_on_c, 0, 68, 60
3, 130316, Note_on_c, 0, 68, 0
3, 130320, Note_on_c, 0, 68, 62
3, 130556, Note_on_c, 0, 68, 0
3, 130560, Note_on_c, 0, 67, 63
3, 130796, Note_on_c, 0, 67, 0
3, 130800, Note_on_c, 0, 68, 65
3, 131036, Note_on_c, 0, 68, 0
3, 131040, Note_on_c, 0, 68, 67
3, 131276, Note_on_c, 0, 68, 0
3, 131280, Note_on_c, 0, 64, 68
3, 131440, Note_on_c, 0, 70, 69
3, 131516, Note_on_c, 0, 64, 0
3, 131520, Note_on_c, 0, 70, 0
3, 131520, Note_on_c, 0, 63, 70
3, 131600, Note_on_c, 0, 70, 70
3, 131680, Note_on_c, 0, 70, 0
3, 131680, Note_on_c, 0, 68, 71
3, 131756, Note_on_c, 0, 63, 0
3, 131760, Note_on_c, 0, 68, 0
3, 131760, Note_on_c, 0, 66, 68
3, 132000, Note_on_c, 0, 66, 0
3, 132000, Note_on_c, 0, 67, 57
3, 132180, Note_on_c, 0, 67, 0
3, 132300, Note_on_c, 0, 75, 49
3, 132360, Note_on_c, 0, 75, 0
3, 132420, Note_on_c, 0, 75, 50
3, 132480, Note_on_c, 0, 75, 0
3, 132540, Note_on_c, 0, 75, 50
3, 132600, Note_on_c, 0, 75, 0
3, 132600, Note_on_c, 0, 77, 51
3, 132660, Note_on_c, 0, 77, 0
3, 132660, Note_on_c, 0, 75, 51
3, 132720, Note_on_c, 0, 75, 0
3, 132780, Note_on_c, 0, 75, 52
3, 132840, Note_on_c, 0, 75, 0
3, 132840, Note_on_c, 0, 77, 52
3, 132900, Note_on_c, 0, 77, 0
3, 132900, Note_on_c, 0, 75, 52
3, 132960, Note_on_c, 0, 75, 0
3, 133020, Note_on_c, 0, 75, 53
3, 133080, Note_on_c, 0, 75, 0
3, 133080, Note_on_c, 0, 77, 53
3, 133140, Note_on_c, 0, 77, 0
3, 133140, Note_on_c, 0, 75, 54
3, 133200, Note_on_c, 0, 75, 0
3, 133200, Note_on_c, 0, 77, 54
3, 133260, Note_on_c, 0, 77, 0
3, 133260, Note_on_c, 0, 75, 54
3, 133320, Note_on_c, 0, 75, 0
3, 133320, Note_on_c, 0, 77, 55
3, 133380, Note_on_c, 0, 77, 0
3, 133380, Note_on_c, 0, 75, 55
3, 133440, Note_on_c, 0, 75, 0
3, 133440, Note_on_c, 0, 77, 55
3, 133500, Note_on_c, 0, 77, 0
3, 133500, Note_on_c, 0, 75, 56
3, 133560, Note_on_c, 0, 75, 0
3, 133560, Note_on_c, 0, 77, 56
3, 133620, Note_on_c, 0, 77, 0
3, 133620, Note_on_c, 0, 75, 56
3, 133680, Note_on_c, 0, 75, 0
3, 133680, Note_on_c, 0, 77, 57
3, 133740, Note_on_c, 0, 77, 0
3, 133740, Note_on_c, 0, 75, 57
3, 133800, Note_on_c, 0, 75, 0
3, 133800, Note_on_c, 0, 77, 57
3, 133860, Note_on_c, 0, 77, 0
3, 133860, Note_on_c, 0, 75, 58
3, 133920, Note_on_c, 0, 75, 0
3, 133980, Note_on_c, 0, 75, 58
3, 134040, Note_on_c, 0, 75, 0
3, 134040, Note_on_c, 0, 77, 59
3, 134100, Note_on_c, 0, 77, 0
3, 134100, Note_on_c, 0, 75, 59
3, 134160, Note_on_c, 0, 75, 0
3, 134220, Note_on_c, 0, 75, 60
3, 134280, Note_on_c, 0, 75, 0
3, 134280, Note_on_c, 0, 77, 60
3, 134340, Note_on_c, 0, 77, 0
3, 134340, Note_on_c, 0, 75, 60
3, 134400, Note_on_c, 0, 75, 0
3, 134460, Note_on_c, 0, 75, 61
3, 134520, Note_on_c, 0, 75, 0
3, 134520, Note_on_c, 0, 77, 61
3, 134580, Note_on_c, 0, 77, 0
3, 134580, Note_on_c, 0, 75, 62
3, 134640, Note_on_c, 0, 75, 0
3, 134640, Note_on_c, 0, 68, 72
3, 134700, Note_on_c, 0, 75, 62
3, 134760, Note_on_c, 0, 75, 0
3, 134760, Note_on_c, 0, 77, 61
3, 134820, Note_on_c, 0, 77, 0
3, 134820, Note_on_c, 0, 75, 60
3, 134880, Note_on_c, 0, 75, 0
3, 134880, Note_on_c, 0, 68, 0
3, 134880, Note_on_c, 0, 67, 62
3, 134940, Note_on_c, 0, 75, 58
3, 135000, Note_on_c, 0, 75, 0
3, 135000, Note_on_c, 0, 77, 57
3, 135060, Note_on_c, 0, 77, 0
3, 135060, Note_on_c, 0, 75, 56
3, 135120, Note_on_c, 0, 75, 0
3, 135120, Note_on_c, 0, 67, 0
3, 135420, Note_on_c, 0, 80, 57
3, 135480, Note_on_c, 0, 80, 0
3, 135480, Note_on_c, 0, 82, 58
3, 135540, Note_on_c, 0, 82, 0
3, 135540, Note_on_c, 0, 80, 58
3, 135600, Note_on_c, 0, 80, 0
3, 135660, Note_on_c, 0, 80, 59
3, 135720, Note_on_c, 0, 80, 0
3, 135720, Note_on_c, 0, 82, 60
3, 135780, Note_on_c, 0, 82, 0
3, 135780, Note_on_c, 0, 80, 61
3, 135840, Note_on_c, 0, 80, 0
3, 135900, Note_on_c, 0, 80, 62
3, 135960, Note_on_c, 0, 80, 0
3, 135960, Note_on_c, 0, 82, 62
3, 136020, Note_on_c, 0, 82, 0
3, 136020, Note_on_c, 0, 80, 63
3, 136080, Note_on_c, 0, 80, 0
3, 136140, Note_on_c, 0, 80, 64
3, 136200, Note_on_c, 0, 80, 0
3, 136200, Note_on_c, 0, 82, 65
3, 136260, Note_on_c, 0, 82, 0
3, 136260, Note_on_c, 0, 80, 65
3, 136320, Note_on_c, 0, 80, 0
3, 136380, Note_on_c, 0, 80, 66
3, 136440, Note_on_c, 0, 80, 0
3, 136440, Note_on_c, 0, 82, 67
3, 136500, Note_on_c, 0, 82, 0
3, 136500, Note_on_c, 0, 80, 67
3, 136560, Note_on_c, 0, 80, 0
3, 136620, Note_on_c, 0, 80, 69
3, 136680, Note_on_c, 0, 80, 0
3, 136680, Note_on_c, 0, 82, 69
3, 136740, Note_on_c, 0, 82, 0
3, 136740, Note_on_c, 0, 80, 70
3, 136800, Note_on_c, 0, 80, 0
3, 136860, Note_on_c, 0, 75, 64
3, 136920, Note_on_c, 0, 75, 0
3, 136920, Note_on_c, 0, 77, 63
3, 136980, Note_on_c, 0, 77, 0
3, 136980, Note_on_c, 0, 75, 63
3, 137040, Note_on_c, 0, 75, 0
3, 137040, Note_on_c, 0, 68, 71
3, 137100, Note_on_c, 0, 75, 61
3, 137160, Note_on_c, 0, 75, 0
3, 137160, Note_on_c, 0, 77, 60
3, 137220, Note_on_c, 0, 77, 0
3, 137220, Note_on_c, 0, 75, 60
3, 137280, Note_on_c, 0, 75, 0
3, 137280, Note_on_c, 0, 68, 0
3, 137280, Note_on_c, 0, 67, 66
3, 137340, Note_on_c, 0, 75, 58
3, 137400, Note_on_c, 0, 75, 0
3, 137400, Note_on_c, 0, 77, 57
3, 137460, Note_on_c, 0, 77, 0
3, 137460, Note_on_c, 0, 75, 57
3, 137520, Note_on_c, 0, 75, 0
3, 137520, Note_on_c, 0, 67, 0
3, 141180, Note_on_c, 0, 63, 53
3, 141240, Note_on_c, 0, 63, 0
3, 141240, Note_on_c, 0, 68, 53
3, 141300, Note_on_c, 0, 68, 0
3, 141300, Note_on_c, 0, 63, 54
3, 141360, Note_on_c, 0, 63, 0
3, 141420, Note_on_c, 0, 65, 54
3, 141480, Note_on_c, 0, 65, 0
3, 141480, Note_on_c, 0, 68, 55
3, 141540, Note_on_c, 0, 68, 0
3, 141540, Note_on_c, 0, 65, 55
3, 141600, Note_on_c, 0, 65, 0
3, 141660, Note_on_c, 0, 67, 56
3, 141720, Note_on_c, 0, 67, 0
3, 141720, Note_on_c, 0, 73, 56
3, 141780, Note_on_c, 0, 73, 0
3, 141780, Note_on_c, 0, 67, 57
3, 141840, Note_on_c, 0, 67, 0
3, 141900, Note_on_c, 0, 68, 58
3, 141960, Note_on_c, 0, 68, 0
3, 141960, Note_on_c, 0, 72, 58
3, 142020, Note_on_c, 0, 72, 0
3, 142020, Note_on_c, 0, 68, 58
3, 142080, Note_on_c, 0, 68, 0
3, 142140, Note_on_c, 0, 70, 59
3, 142200, Note_on_c, 0, 70, 0
3, 142200, Note_on_c, 0, 76, 59
3, 142260, Note_on_c, 0, 76, 0
3, 142260, Note_on_c, 0, 70, 60
3, 142320, Note_on_c, 0, 70, 0
3, 142380, Note_on_c, 0, 72, 61
3, 142440, Note_on_c, 0, 72, 0
3, 142440, Note_on_c, 0, 77, 61
3, 142500, Note_on_c, 0, 77, 0
3, 142500, Note_on_c, 0, 72, 61
3, 142560, Note_on_c, 0, 72, 0
3, 142560, Note_on_c, 0, 67, 62
3, 142620, Note_on_c, 0, 67, 0
3, 142620, Note_on_c, 0, 66, 62
3, 142680, Note_on_c, 0, 66, 0
3, 142680, Note_on_c, 0, 67, 63
3, 142740, Note_on_c, 0, 67, 0
3, 142740, Note_on_c, 0, 66, 63
3, 142800, Note_on_c, 0, 66, 0
3, 142800, Note_on_c, 0, 67, 63
3, 142860, Note_on_c, 0, 67, 0
3, 142860, Note_on_c, 0, 70, 64
3, 142920, Note_on_c, 0, 70, 0
3, 142920, Note_on_c, 0, 68, 64
3, 142980, Note_on_c, 0, 68, 0
3, 142980, Note_on_c, 0, 67, 65
3, 143040, Note_on_c, 0, 67, 0
3, 143040, Note_on_c, 0, 65, 77
3, 143100, Note_on_c, 0, 65, 0
3, 143100, Note_on_c, 0, 68, 65
3, 143160, Note_on_c, 0, 68, 0
3, 143160, Note_on_c, 0, 67, 66
3, 143220, Note_on_c, 0, 67, 0
3, 143220, Note_on_c, 0, 65, 66
3, 143280, Note_on_c, 0, 65, 0
3, 143280, Note_on_c, 0, 63, 67
3, 143340, Note_on_c, 0, 63, 0
3, 143340, Note_on_c, 0, 65, 67
3, 143400, Note_on_c, 0, 65, 0
3, 143400, Note_on_c, 0, 67, 67
3, 143460, Note_on_c, 0, 67, 0
3, 143460, Note_on_c, 0, 68, 68
3, 143520, Note_on_c, 0, 68, 0
3, 143520, Note_on_c, 0, 70, 68
3, 143580, Note_on_c, 0, 70, 0
3, 143580, Note_on_c, 0, 71, 69
3, 143640, Note_on_c, 0, 71, 0
3, 143640, Note_on_c, 0, 72, 69
3, 143700, Note_on_c, 0, 72, 0
3, 143700, Note_on_c, 0, 71, 69
3, 143760, Note_on_c, 0, 71, 0
3, 143760, Note_on_c, 0, 72, 83
3, 143820, Note_on_c, 0, 72, 0
3, 143820, Note_on_c, 0, 71, 70
3, 143880, Note_on_c, 0, 71, 0
3, 143880, Note_on_c, 0, 74, 71
3, 143940, Note_on_c, 0, 74, 0
3, 143940, Note_on_c, 0, 72, 71
3, 144000, Note_on_c, 0, 72, 0
3, 144000, Note_on_c, 0, 67, 71
3, 144060, Note_on_c, 0, 67, 0
3, 144060, Note_on_c, 0, 66, 72
3, 144120, Note_on_c, 0, 66, 0
3, 144120, Note_on_c, 0, 67, 72
3, 144180, Note_on_c, 0, 67, 0
3, 144180, Note_on_c, 0, 66, 73
3, 144240, Note_on_c, 0, 66, 0
3, 144240, Note_on_c, 0, 67, 73
3, 144300, Note_on_c, 0, 67, 0
3, 144300, Note_on_c, 0, 70, 73
3, 144360, Note_on_c, 0, 70, 0
3, 144360, Note_on_c, 0, 68, 74
3, 144420, Note_on_c, 0, 68, 0
3, 144420, Note_on_c, 0, 67, 74
3, 144480, Note_on_c, 0, 67, 0
3, 144480, Note_on_c, 0, 65, 88
3, 144540, Note_on_c, 0, 65, 0
3, 144540, Note_on_c, 0, 68, 75
3, 144600, Note_on_c, 0, 68, 0
3, 144600, Note_on_c, 0, 67, 75
3, 144660, Note_on_c, 0, 67, 0
3, 144660, Note_on_c, 0, 65, 76
3, 144720, Note_on_c, 0, 65, 0
3, 144780, Note_on_c, 0, 63, 76
3, 144840, Note_on_c, 0, 63, 0
3, 144840, Note_on_c, 0, 67, 77
3, 144900, Note_on_c, 0, 67, 0
3, 144900, Note_on_c, 0, 63, 77
3, 144960, Note_on_c, 0, 63, 0
3, 145020, Note_on_c, 0, 63, 78
3, 145080, Note_on_c, 0, 63, 0
3, 145080, Note_on_c, 0, 68, 78
3, 145140, Note_on_c, 0, 68, 0
3, 145140, Note_on_c, 0, 63, 79
3, 145200, Note_on_c, 0, 63, 0
3, 145260, Note_on_c, 0, 63, 80
3, 145320, Note_on_c, 0, 63, 0
3, 145320, Note_on_c, 0, 70, 80
3, 145380, Note_on_c, 0, 70, 0
3, 145380, Note_on_c, 0, 63, 80
3, 145440, Note_on_c, 0, 63, 0
3, 145440, Note_on_c, 0, 72, 51
3, 145500, Note_on_c, 0, 72, 0
3, 145500, Note_on_c, 0, 75, 51
3, 145560, Note_on_c, 0, 75, 0
3, 145560, Note_on_c, 0, 77, 51
3, 145620, Note_on_c, 0, 77, 0
3, 145620, Note_on_c, 0, 75, 52
3, 145680, Note_on_c, 0, 75, 0
3, 145680, Note_on_c, 0, 77, 52
3, 145740, Note_on_c, 0, 77, 0
3, 145740, Note_on_c, 0, 75, 52
3, 145800, Note_on_c, 0, 75, 0
3, 145800, Note_on_c, 0, 77, 53
3, 145860, Note_on_c, 0, 77, 0
3, 145860, Note_on_c, 0, 75, 53
3, 145920, Note_on_c, 0, 75, 0
3, 145920, Note_on_c, 0, 77, 54
3, 145980, Note_on_c, 0, 77, 0
3, 145980, Note_on_c, 0, 75, 54
3, 146040, Note_on_c, 0, 75, 0
3, 146040, Note_on_c, 0, 77, 54
3, 146100, Note_on_c, 0, 77, 0
3, 146100, Note_on_c, 0, 75, 55
3, 146160, Note_on_c, 0, 75, 0
3, 146160, Note_on_c, 0, 77, 55
3, 146220, Note_on_c, 0, 77, 0
3, 146220, Note_on_c, 0, 75, 55
3, 146280, Note_on_c, 0, 75, 0
3, 146280, Note_on_c, 0, 77, 56
3, 146340, Note_on_c, 0, 77, 0
3, 146340, Note_on_c, 0, 75, 56
3, 146400, Note_on_c, 0, 75, 0
3, 146400, Note_on_c, 0, 77, 56
3, 146460, Note_on_c, 0, 77, 0
3, 146460, Note_on_c, 0, 75, 57
3, 146520, Note_on_c, 0, 75, 0
3, 146520, Note_on_c, 0, 77, 57
3, 146580, Note_on_c, 0, 77, 0
3, 146580, Note_on_c, 0, 75, 57
3, 146640, Note_on_c, 0, 75, 0
3, 146640, Note_on_c, 0, 77, 58
3, 146700, Note_on_c, 0, 77, 0
3, 146700, Note_on_c, 0, 75, 58
3, 146760, Note_on_c, 0, 75, 0
3, 146760, Note_on_c, 0, 77, 58
3, 146820, Note_on_c, 0, 77, 0
3, 146820, Note_on_c, 0, 75, 59
3, 146880, Note_on_c, 0, 75, 0
3, 146880, Note_on_c, 0, 77, 59
3, 146940, Note_on_c, 0, 77, 0
3, 146940, Note_on_c, 0, 75, 60
3, 147000, Note_on_c, 0, 75, 0
3, 147000, Note_on_c, 0, 77, 60
3, 147060, Note_on_c, 0, 77, 0
3, 147060, Note_on_c, 0, 75, 60
3, 147120, Note_on_c, 0, 75, 0
3, 147120, Note_on_c, 0, 77, 61
3, 147180, Note_on_c, 0, 77, 0
3, 147180, Note_on_c, 0, 75, 61
3, 147240, Note_on_c, 0, 75, 0
3, 147240, Note_on_c, 0, 77, 61
3, 147300, Note_on_c, 0, 77, 0
3, 147300, Note_on_c, 0, 75, 62
3, 147360, Note_on_c, 0, 75, 0
3, 147360, Note_on_c, 0, 77, 62
3, 147420, Note_on_c, 0, 77, 0
3, 147420, Note_on_c, 0, 75, 62
3, 147480, Note_on_c, 0, 75, 0
3, 147480, Note_on_c, 0, 77, 63
3, 147540, Note_on_c, 0, 77, 0
3, 147540, Note_on_c, 0, 75, 63
3, 147600, Note_on_c, 0, 75, 0
3, 147600, Note_on_c, 0, 68, 76
3, 147600, Note_on_c, 0, 77, 66
3, 147600, Note_on_c, 0, 72, 66
3, 147660, Note_on_c, 0, 77, 0
3, 147660, Note_on_c, 0, 75, 64
3, 147720, Note_on_c, 0, 75, 0
3, 147720, Note_on_c, 0, 77, 63
3, 147780, Note_on_c, 0, 77, 0
3, 147780, Note_on_c, 0, 75, 61
3, 147840, Note_on_c, 0, 75, 0
3, 147840, Note_on_c, 0, 72, 0
3, 147840, Note_on_c, 0, 68, 0
3, 147840, Note_on_c, 0, 67, 69
3, 147840, Note_on_c, 0, 77, 59
3, 147900, Note_on_c, 0, 77, 0
3, 147900, Note_on_c, 0, 75, 58
3, 147960, Note_on_c, 0, 75, 0
3, 147960, Note_on_c, 0, 77, 56
3, 148000, Note_on_c, 0, 75, 59
3, 148020, Note_on_c, 0, 77, 0
3, 148060, Note_on_c, 0, 75, 0
3, 148080, Note_on_c, 0, 67, 0
3, 148380, Note_on_c, 0, 80, 57
3, 148440, Note_on_c, 0, 80, 0
3, 148440, Note_on_c, 0, 82, 58
3, 148500, Note_on_c, 0, 82, 0
3, 148500, Note_on_c, 0, 80, 59
3, 148560, Note_on_c, 0, 80, 0
3, 148560, Note_on_c, 0, 82, 59
3, 148620, Note_on_c, 0, 82, 0
3, 148620, Note_on_c, 0, 80, 60
3, 148680, Note_on_c, 0, 80, 0
3, 148680, Note_on_c, 0, 82, 61
3, 148740, Note_on_c, 0, 82, 0
3, 148740, Note_on_c, 0, 80, 61
3, 148800, Note_on_c, 0, 80, 0
3, 148800, Note_on_c, 0, 82, 62
3, 148860, Note_on_c, 0, 82, 0
3, 148860, Note_on_c, 0, 80, 63
3, 148920, Note_on_c, 0, 80, 0
3, 148920, Note_on_c, 0, 82, 63
3, 148980, Note_on_c, 0, 82, 0
3, 148980, Note_on_c, 0, 80, 64
3, 149040, Note_on_c, 0, 80, 0
3, 149040, Note_on_c, 0, 82, 65
3, 149100, Note_on_c, 0, 82, 0
3, 149100, Note_on_c, 0, 80, 65
3, 149160, Note_on_c, 0, 80, 0
3, 149160, Note_on_c, 0, 82, 66
3, 149220, Note_on_c, 0, 82, 0
3, 149220, Note_on_c, 0, 80, 67
3, 149280, Note_on_c, 0, 80, 0
3, 149280, Note_on_c, 0, 80, 67
3, 149340, Note_on_c, 0, 80, 0
3, 149340, Note_on_c, 0, 79, 68
3, 149400, Note_on_c, 0, 79, 0
3, 149400, Note_on_c, 0, 80, 69
3, 149460, Note_on_c, 0, 80, 0
3, 149460, Note_on_c, 0, 79, 69
3, 149520, Note_on_c, 0, 79, 0
3, 149520, Note_on_c, 0, 82, 70
3, 149580, Note_on_c, 0, 82, 0
3, 149580, Note_on_c, 0, 80, 71
3, 149640, Note_on_c, 0, 80, 0
3, 149640, Note_on_c, 0, 82, 71
3, 149700, Note_on_c, 0, 82, 0
3, 149700, Note_on_c, 0, 80, 72
3, 149760, Note_on_c, 0, 80, 0
3, 149760, Note_on_c, 0, 77, 70
3, 149820, Note_on_c, 0, 77, 0
3, 149820, Note_on_c, 0, 75, 69
3, 149880, Note_on_c, 0, 75, 0
3, 149880, Note_on_c, 0, 77, 69
3, 149940, Note_on_c, 0, 77, 0
3, 149940, Note_on_c, 0, 75, 68
3, 150000, Note_on_c, 0, 75, 0
3, 150000, Note_on_c, 0, 68, 74
3, 150000, Note_on_c, 0, 77, 67
3, 150060, Note_on_c, 0, 77, 0
3, 150060, Note_on_c, 0, 75, 67
3, 150120, Note_on_c, 0, 75, 0
3, 150120, Note_on_c, 0, 77, 66
3, 150180, Note_on_c, 0, 77, 0
3, 150180, Note_on_c, 0, 75, 65
3, 150240, Note_on_c, 0, 75, 0
3, 150240, Note_on_c, 0, 68, 0
3, 150240, Note_on_c, 0, 67, 70
3, 150240, Note_on_c, 0, 77, 65
3, 150300, Note_on_c, 0, 77, 0
3, 150300, Note_on_c, 0, 75, 64
3, 150360, Note_on_c, 0, 75, 0
3, 150360, Note_on_c, 0, 77, 63
3, 150420, Note_on_c, 0, 77, 0
3, 150420, Note_on_c, 0, 75, 63
3, 150480, Note_on_c, 0, 75, 0
3, 150480, Note_on_c, 0, 67, 0
3, 150600, Note_on_c, 0, 63, 65
3, 150696, Note_on_c, 0, 63, 0
3, 150720, Note_on_c, 0, 63, 60
3, 150816, Note_on_c, 0, 63, 0
3, 150840, Note_on_c, 0, 63, 56
3, 150936, Note_on_c, 0, 63, 0
3, 150960, Note_on_c, 0, 63, 56
3, 151056, Note_on_c, 0, 63, 0
3, 151080, Note_on_c, 0, 63, 56
3, 151176, Note_on_c, 0, 63, 0
3, 151200, Note_on_c, 0, 63, 56
3, 151200, Note_on_c, 0, 60, 56
3, 151296, Note_on_c, 0, 60, 0
3, 151296, Note_on_c, 0, 63, 0
3, 151320, Note_on_c, 0, 63, 56
3, 151320, Note_on_c, 0, 60, 56
3, 151416, Note_on_c, 0, 60, 0
3, 151416, Note_on_c, 0, 63, 0
3, 151440, Note_on_c, 0, 63, 56
3, 151440, Note_on_c, 0, 60, 56
3, 151536, Note_on_c, 0, 60, 0
3, 151536, Note_on_c, 0, 63, 0
3, 151560, Note_on_c, 0, 63, 55
3, 151560, Note_on_c, 0, 60, 55
3, 151656, Note_on_c, 0, 60, 0
3, 151656, Note_on_c, 0, 63, 0
3, 151680, Note_on_c, 0, 60, 55
3, 151680, Note_on_c, 0, 63, 55
3, 151776, Note_on_c, 0, 63, 0
3, 151776, Note_on_c, 0, 60, 0
3, 151800, Note_on_c, 0, 63, 55
3, 151800, Note_on_c, 0, 60, 55
3, 151896, Note_on_c, 0, 60, 0
3, 151896, Note_on_c, 0, 63, 0
3, 151920, Note_on_c, 0, 61, 55
3, 151920, Note_on_c, 0, 63, 55
3, 152016, Note_on_c, 0, 63, 0
3, 152016, Note_on_c, 0, 61, 0
3, 152040, Note_on_c, 0, 61, 55
3, 152040, Note_on_c, 0, 63, 55
3, 152136, Note_on_c, 0, 63, 0
3, 152136, Note_on_c, 0, 61, 0
3, 152160, Note_on_c, 0, 61, 54
3, 152160, Note_on_c, 0, 63, 54
3, 152256, Note_on_c, 0, 63, 0
3, 152256, Note_on_c, 0, 61, 0
3, 152280, Note_on_c, 0, 61, 54
3, 152280, Note_on_c, 0, 63, 54
3, 152376, Note_on_c, 0, 63, 0
3, 152376, Note_on_c, 0, 61, 0
3, 152400, Note_on_c, 0, 61, 54
3, 152400, Note_on_c, 0, 63, 54
3, 152496, Note_on_c, 0, 63, 0
3, 152496, Note_on_c, 0, 61, 0
3, 152520, Note_on_c, 0, 63, 54
3, 152520, Note_on_c, 0, 61, 54
3, 152616, Note_on_c, 0, 61, 0
3, 152616, Note_on_c, 0, 63, 0
3, 152640, Note_on_c, 0, 63, 54
3, 152640, Note_on_c, 0, 61, 54
3, 152736, Note_on_c, 0, 61, 0
3, 152736, Note_on_c, 0, 63, 0
3, 152760, Note_on_c, 0, 63, 54
3, 152760, Note_on_c, 0, 61, 54
3, 152856, Note_on_c, 0, 61, 0
3, 152856, Note_on_c, 0, 63, 0
3, 152880, Note_on_c, 0, 63, 53
3, 152880, Note_on_c, 0, 61, 53
3, 152976, Note_on_c, 0, 61, 0
3, 152976, Note_on_c, 0, 63, 0
3, 153000, Note_on_c, 0, 63, 53
3, 153000, Note_on_c, 0, 61, 53
3, 153096, Note_on_c, 0, 61, 0
3, 153096, Note_on_c, 0, 63, 0
3, 153120, Note_on_c, 0, 63, 53
3, 153120, Note_on_c, 0, 61, 53
3, 153216, Note_on_c, 0, 61, 0
3, 153216, Note_on_c, 0, 63, 0
3, 153240, Note_on_c, 0, 61, 53
3, 153240, Note_on_c, 0, 63, 53
3, 153336, Note_on_c, 0, 63, 0
3, 153336, Note_on_c, 0, 61, 0
3, 153360, Note_on_c, 0, 60, 53
3, 153360, Note_on_c, 0, 63, 53
3, 153456, Note_on_c, 0, 63, 0
3, 153456, Note_on_c, 0, 60, 0
3, 153480, Note_on_c, 0, 60, 53
3, 153480, Note_on_c, 0, 63, 53
3, 153576, Note_on_c, 0, 63, 0
3, 153576, Note_on_c, 0, 60, 0
3, 153600, Note_on_c, 0, 60, 52
3, 153600, Note_on_c, 0, 63, 52
3, 153696, Note_on_c, 0, 63, 0
3, 153696, Note_on_c, 0, 60, 0
3, 153720, Note_on_c, 0, 60, 52
3, 153720, Note_on_c, 0, 63, 52
3, 153816, Note_on_c, 0, 63, 0
3, 153816, Note_on_c, 0, 60, 0
3, 153840, Note_on_c, 0, 63, 52
3, 153840, Note_on_c, 0, 60, 52
3, 153936, Note_on_c, 0, 60, 0
3, 153936, Note_on_c, 0, 63, 0
3, 153960, Note_on_c, 0, 60, 52
3, 153960, Note_on_c, 0, 63, 52
3, 154056, Note_on_c, 0, 63, 0
3, 154056, Note_on_c, 0, 60, 0
3, 154080, Note_on_c, 0, 60, 52
3, 154080, Note_on_c, 0, 63, 52
3, 154176, Note_on_c, 0, 63, 0
3, 154176, Note_on_c, 0, 60, 0
3, 154200, Note_on_c, 0, 60, 52
3, 154200, Note_on_c, 0, 63, 52
3, 154296, Note_on_c, 0, 63, 0
3, 154296, Note_on_c, 0, 60, 0
3, 154320, Note_on_c, 0, 60, 51
3, 154320, Note_on_c, 0, 63, 51
3, 154416, Note_on_c, 0, 63, 0
3, 154416, Note_on_c, 0, 60, 0
3, 154440, Note_on_c, 0, 60, 51
3, 154440, Note_on_c, 0, 63, 51
3, 154536, Note_on_c, 0, 63, 0
3, 154536, Note_on_c, 0, 60, 0
3, 154560, Note_on_c, 0, 63, 51
3, 154560, Note_on_c, 0, 60, 51
3, 154656, Note_on_c, 0, 60, 0
3, 154656, Note_on_c, 0, 63, 0
3, 154680, Note_on_c, 0, 60, 51
3, 154680, Note_on_c, 0, 63, 51
3, 154776, Note_on_c, 0, 63, 0
3, 154776, Note_on_c, 0, 60, 0
3, 154800, Note_on_c, 0, 63, 51
3, 154800, Note_on_c, 0, 61, 51
3, 154896, Note_on_c, 0, 61, 0
3, 154896, Note_on_c, 0, 63, 0
3, 154920, Note_on_c, 0, 63, 51
3, 154920, Note_on_c, 0, 61, 51
3, 155016, Note_on_c, 0, 61, 0
3, 155016, Note_on_c, 0, 63, 0
3, 155040, Note_on_c, 0, 63, 50
3, 155040, Note_on_c, 0, 61, 50
3, 155136, Note_on_c, 0, 61, 0
3, 155136, Note_on_c, 0, 63, 0
3, 155160, Note_on_c, 0, 63, 50
3, 155160, Note_on_c, 0, 61, 50
3, 155256, Note_on_c, 0, 61, 0
3, 155256, Note_on_c, 0, 63, 0
3, 155280, Note_on_c, 0, 63, 50
3, 155280, Note_on_c, 0, 61, 50
3, 155376, Note_on_c, 0, 61, 0
3, 155376, Note_on_c, 0, 63, 0
3, 155400, Note_on_c, 0, 61, 50
3, 155400, Note_on_c, 0, 63, 50
3, 155496, Note_on_c, 0, 63, 0
3, 155496, Note_on_c, 0, 61, 0
3, 155520, Note_on_c, 0, 61, 50
3, 155520, Note_on_c, 0, 63, 50
3, 155616, Note_on_c, 0, 63, 0
3, 155616, Note_on_c, 0, 61, 0
3, 155640, Note_on_c, 0, 61, 49
3, 155640, Note_on_c, 0, 63, 49
3, 155736, Note_on_c, 0, 63, 0
3, 155736, Note_on_c, 0, 61, 0
3, 155760, Note_on_c, 0, 61, 49
3, 155760, Note_on_c, 0, 63, 49
3, 155856, Note_on_c, 0, 63, 0
3, 155856, Note_on_c, 0, 61, 0
3, 155880, Note_on_c, 0, 61, 49
3, 155880, Note_on_c, 0, 63, 49
3, 155976, Note_on_c, 0, 63, 0
3, 155976, Note_on_c, 0, 61, 0
3, 156000, Note_on_c, 0, 61, 49
3, 156000, Note_on_c, 0, 63, 49
3, 156096, Note_on_c, 0, 63, 0
3, 156096, Note_on_c, 0, 61, 0
3, 156120, Note_on_c, 0, 63, 49
3, 156120, Note_on_c, 0, 61, 49
3, 156216, Note_on_c, 0, 61, 0
3, 156216, Note_on_c, 0, 63, 0
3, 156240, Note_on_c, 0, 60, 49
3, 156240, Note_on_c, 0, 63, 49
3, 156336, Note_on_c, 0, 63, 0
3, 156336, Note_on_c, 0, 60, 0
3, 156360, Note_on_c, 0, 60, 48
3, 156360, Note_on_c, 0, 63, 48
3, 156456, Note_on_c, 0, 63, 0
3, 156456, Note_on_c, 0, 60, 0
3, 156480, Note_on_c, 0, 60, 48
3, 156480, Note_on_c, 0, 63, 48
3, 156576, Note_on_c, 0, 63, 0
3, 156576, Note_on_c, 0, 60, 0
3, 156600, Note_on_c, 0, 60, 48
3, 156600, Note_on_c, 0, 63, 48
3, 156696, Note_on_c, 0, 63, 0
3, 156696, Note_on_c, 0, 60, 0
3, 156720, Note_on_c, 0, 63, 48
3, 156720, Note_on_c, 0, 60, 48
3, 156816, Note_on_c, 0, 60, 0
3, 156816, Note_on_c, 0, 63, 0
3, 156840, Note_on_c, 0, 60, 48
3, 156840, Note_on_c, 0, 63, 48
3, 156936, Note_on_c, 0, 63, 0
3, 156936, Note_on_c, 0, 60, 0
3, 156960, Note_on_c, 0, 63, 48
3, 156960, Note_on_c, 0, 61, 48
3, 157056, Note_on_c, 0, 61, 0
3, 157056, Note_on_c, 0, 63, 0
3, 157080, Note_on_c, 0, 63, 47
3, 157080, Note_on_c, 0, 61, 47
3, 157176, Note_on_c, 0, 61, 0
3, 157176, Note_on_c, 0, 63, 0
3, 157200, Note_on_c, 0, 63, 47
3, 157200, Note_on_c, 0, 61, 47
3, 157296, Note_on_c, 0, 61, 0
3, 157296, Note_on_c, 0, 63, 0
3, 157320, Note_on_c, 0, 63, 47
3, 157320, Note_on_c, 0, 61, 47
3, 157416, Note_on_c, 0, 61, 0
3, 157416, Note_on_c, 0, 63, 0
3, 157440, Note_on_c, 0, 63, 47
3, 157440, Note_on_c, 0, 61, 47
3, 157536, Note_on_c, 0, 61, 0
3, 157536, Note_on_c, 0, 63, 0
3, 157560, Note_on_c, 0, 61, 47
3, 157560, Note_on_c, 0, 63, 47
3, 157656, Note_on_c, 0, 63, 0
3, 157656, Note_on_c, 0, 61, 0
3, 157680, Note_on_c, 0, 60, 47
3, 157680, Note_on_c, 0, 63, 47
3, 157776, Note_on_c, 0, 63, 0
3, 157776, Note_on_c, 0, 60, 0
3, 157800, Note_on_c, 0, 60, 46
3, 157800, Note_on_c, 0, 63, 46
3, 157896, Note_on_c, 0, 63, 0
3, 157896, Note_on_c, 0, 60, 0
3, 157920, Note_on_c, 0, 60, 46
3, 157920, Note_on_c, 0, 63, 46
3, 158016, Note_on_c, 0, 63, 0
3, 158016, Note_on_c, 0, 60, 0
3, 158040, Note_on_c, 0, 60, 46
3, 158040, Note_on_c, 0, 63, 46
3, 158136, Note_on_c, 0, 63, 0
3, 158136, Note_on_c, 0, 60, 0
3, 158160, Note_on_c, 0, 63, 46
3, 158160, Note_on_c, 0, 60, 46
3, 158256, Note_on_c, 0, 60, 0
3, 158256, Note_on_c, 0, 63, 0
3, 158280, Note_on_c, 0, 60, 46
3, 158280, Note_on_c, 0, 63, 46
3, 158376, Note_on_c, 0, 63, 0
3, 158376, Note_on_c, 0, 60, 0
3, 158400, Note_on_c, 0, 61, 46
3, 158400, Note_on_c, 0, 63, 46
3, 158496, Note_on_c, 0, 63, 0
3, 158496, Note_on_c, 0, 61, 0
3, 158520, Note_on_c, 0, 61, 45
3, 158520, Note_on_c, 0, 63, 45
3, 158616, Note_on_c, 0, 63, 0
3, 158616, Note_on_c, 0, 61, 0
3, 158640, Note_on_c, 0, 61, 45
3, 158640, Note_on_c, 0, 63, 45
3, 158736, Note_on_c, 0, 63, 0
3, 158736, Note_on_c, 0, 61, 0
3, 158760, Note_on_c, 0, 61, 45
3, 158760, Note_on_c, 0, 63, 45
3, 158856, Note_on_c, 0, 63, 0
3, 158856, Note_on_c, 0, 61, 0
3, 158880, Note_on_c, 0, 61, 45
3, 158880, Note_on_c, 0, 63, 45
3, 158976, Note_on_c, 0, 63, 0
3, 158976, Note_on_c, 0, 61, 0
3, 159000, Note_on_c, 0, 63, 45
3, 159000, Note_on_c, 0, 61, 45
3, 159096, Note_on_c, 0, 61, 0
3, 159096, Note_on_c, 0, 63, 0
3, 159120, Note_on_c, 0, 63, 44
3, 159120, Note_on_c, 0, 60, 44
3, 159216, Note_on_c, 0, 60, 0
3, 159216, Note_on_c, 0, 63, 0
3, 159240, Note_on_c, 0, 63, 44
3, 159240, Note_on_c, 0, 60, 44
3, 159336, Note_on_c, 0, 60, 0
3, 159336, Note_on_c, 0, 63, 0
3, 159360, Note_on_c, 0, 63, 44
3, 159360, Note_on_c, 0, 60, 44
3, 159456, Note_on_c, 0, 60, 0
3, 159456, Note_on_c, 0, 63, 0
3, 159480, Note_on_c, 0, 63, 44
3, 159480, Note_on_c, 0, 60, 44
3, 159576, Note_on_c, 0, 60, 0
3, 159576, Note_on_c, 0, 63, 0
3, 159600, Note_on_c, 0, 60, 44
3, 159600, Note_on_c, 0, 63, 44
3, 159696, Note_on_c, 0, 63, 0
3, 159696, Note_on_c, 0, 60, 0
3, 159720, Note_on_c, 0, 63, 44
3, 159720, Note_on_c, 0, 60, 44
3, 159816, Note_on_c, 0, 60, 0
3, 159816, Note_on_c, 0, 63, 0
3, 159840, Note_on_c, 0, 60, 43
3, 159840, Note_on_c, 0, 63, 43
3, 159936, Note_on_c, 0, 63, 0
3, 159936, Note_on_c, 0, 60, 0
3, 159960, Note_on_c, 0, 60, 43
3, 159960, Note_on_c, 0, 63, 43
3, 160056, Note_on_c, 0, 63, 0
3, 160056, Note_on_c, 0, 60, 0
3, 160080, Note_on_c, 0, 60, 43
3, 160080, Note_on_c, 0, 63, 43
3, 160176, Note_on_c, 0, 63, 0
3, 160176, Note_on_c, 0, 60, 0
3, 160200, Note_on_c, 0, 60, 43
3, 160200, Note_on_c, 0, 63, 43
3, 160296, Note_on_c, 0, 63, 0
3, 160296, Note_on_c, 0, 60, 0
3, 160320, Note_on_c, 0, 63, 43
3, 160320, Note_on_c, 0, 60, 43
3, 160416, Note_on_c, 0, 60, 0
3, 160416, Note_on_c, 0, 63, 0
3, 160440, Note_on_c, 0, 60, 43
3, 160440, Note_on_c, 0, 63, 43
3, 160536, Note_on_c, 0, 63, 0
3, 160536, Note_on_c, 0, 60, 0
3, 160560, Note_on_c, 0, 63, 48
3, 160560, Note_on_c, 0, 60, 48
3, 161760, Note_on_c, 0, 60, 0
3, 161760, Note_on_c, 0, 63, 0
3, 162720, Control_c, 0, 7, 100
3, 162720, Control_c, 0, 64, 0
3, 162720, Control_c, 0, 1, 0
3, 162720, Pitch_bend_c, 0, 8192
3, 162720, Control_c, 0, 93, 1
3, 162720, Control_c, 0, 91, 1
3, 162720, Control_c, 0, 10, 64
3, 163440, Control_c, 0, 7, 122
3, 163440, Pitch_bend_c, 0, 8192
3, 163440, Control_c, 0, 1, 0
3, 163440, Control_c, 0, 64, 0
3, 163440, Control_c, 0, 93, 28
3, 163440, Control_c, 0, 91, 91
3, 163920, Control_c, 0, 64, 0
3, 164160, Note_on_c, 0, 68, 85
3, 165360, Note_on_c, 0, 68, 0
3, 165360, Note_on_c, 0, 70, 71
3, 165480, Note_on_c, 0, 70, 0
3, 165600, Note_on_c, 0, 72, 74
3, 165720, Note_on_c, 0, 72, 0
3, 165840, Note_on_c, 0, 68, 72
3, 165960, Note_on_c, 0, 68, 0
3, 166080, Note_on_c, 0, 68, 67
3, 166200, Note_on_c, 0, 68, 0
3, 166320, Note_on_c, 0, 67, 63
3, 166440, Note_on_c, 0, 67, 0
3, 167040, Note_on_c, 0, 73, 75
3, 167760, Note_on_c, 0, 73, 0
3, 167760, Note_on_c, 0, 72, 65
3, 168240, Note_on_c, 0, 72, 0
3, 168240, Note_on_c, 0, 75, 62
3, 168335, Note_on_c, 0, 75, 0
3, 168480, Note_on_c, 0, 77, 60
3, 168575, Note_on_c, 0, 77, 0
3, 168720, Note_on_c, 0, 73, 64
3, 168815, Note_on_c, 0, 73, 0
3, 168960, Note_on_c, 0, 73, 58
3, 169055, Note_on_c, 0, 73, 0
3, 169920, Note_on_c, 0, 68, 72
3, 170640, Note_on_c, 0, 68, 0
3, 170640, Note_on_c, 0, 67, 67
3, 170735, Note_on_c, 0, 67, 0
3, 170880, Note_on_c, 0, 68, 65
3, 170975, Note_on_c, 0, 68, 0
3, 171120, Note_on_c, 0, 70, 63
3, 171215, Note_on_c, 0, 70, 0
3, 171360, Note_on_c, 0, 72, 67
3, 171480, Note_on_c, 0, 72, 0
3, 171600, Note_on_c, 0, 68, 64
3, 171695, Note_on_c, 0, 68, 0
3, 171840, Note_on_c, 0, 68, 59
3, 171935, Note_on_c, 0, 68, 0
3, 172080, Note_on_c, 0, 67, 53
3, 172175, Note_on_c, 0, 67, 0
3, 172800, Note_on_c, 0, 73, 66
3, 173520, Note_on_c, 0, 73, 0
3, 173520, Note_on_c, 0, 72, 63
3, 173640, Note_on_c, 0, 72, 0
3, 173760, Note_on_c, 0, 73, 61
3, 173855, Note_on_c, 0, 73, 0
3, 174000, Note_on_c, 0, 75, 60
3, 174095, Note_on_c, 0, 75, 0
3, 174240, Note_on_c, 0, 77, 59
3, 174335, Note_on_c, 0, 77, 0
3, 174480, Note_on_c, 0, 73, 62
3, 174575, Note_on_c, 0, 73, 0
3, 174720, Note_on_c, 0, 73, 58
3, 174815, Note_on_c, 0, 73, 0
3, 174960, Note_on_c, 0, 72, 53
3, 175055, Note_on_c, 0, 72, 0
3, 175440, Control_c, 0, 7, 122
3, 175440, Control_c, 0, 64, 0
3, 175440, Note_on_c, 0, 56, 57
3, 175560, Note_on_c, 0, 56, 0
3, 175560, Note_on_c, 0, 58, 57
3, 175680, Note_on_c, 0, 58, 0
3, 175680, Note_on_c, 0, 60, 58
3, 176160, Note_on_c, 0, 60, 0
3, 176160, Note_on_c, 0, 61, 60
3, 176400, Note_on_c, 0, 61, 0
3, 176400, Note_on_c, 0, 63, 62
3, 176495, Note_on_c, 0, 63, 0
3, 176880, Note_on_c, 0, 63, 71
3, 176975, Note_on_c, 0, 63, 0
3, 177120, Note_on_c, 0, 66, 65
3, 177215, Note_on_c, 0, 66, 0
3, 177360, Note_on_c, 0, 72, 66
3, 177455, Note_on_c, 0, 72, 0
3, 177600, Note_on_c, 0, 75, 90
3, 178080, Note_on_c, 0, 75, 0
3, 178080, Note_on_c, 0, 74, 64
3, 178175, Note_on_c, 0, 74, 0
3, 178320, Note_on_c, 0, 58, 71
3, 178440, Note_on_c, 0, 58, 0
3, 178440, Note_on_c, 0, 60, 72
3, 178560, Note_on_c, 0, 60, 0
3, 178560, Note_on_c, 0, 62, 72
3, 179040, Note_on_c, 0, 62, 0
3, 179040, Note_on_c, 0, 64, 75
3, 179280, Note_on_c, 0, 64, 0
3, 179280, Note_on_c, 0, 65, 76
3, 179375, Note_on_c, 0, 65, 0
3, 179760, Note_on_c, 0, 65, 87
3, 179855, Note_on_c, 0, 65, 0
3, 180000, Note_on_c, 0, 68, 79
3, 180095, Note_on_c, 0, 68, 0
3, 180240, Note_on_c, 0, 74, 81
3, 180335, Note_on_c, 0, 74, 0
3, 180480, Note_on_c, 0, 77, 101
3, 180960, Note_on_c, 0, 77, 0
3, 180960, Note_on_c, 0, 76, 80
3, 181055, Note_on_c, 0, 76, 0
3, 181200, Note_on_c, 0, 60, 85
3, 181320, Note_on_c, 0, 60, 0
3, 181320, Note_on_c, 0, 62, 86
3, 181440, Note_on_c, 0, 62, 0
3, 181440, Note_on_c, 0, 64, 87
3, 181920, Note_on_c, 0, 64, 0
3, 181920, Note_on_c, 0, 65, 89
3, 182160, Note_on_c, 0, 65, 0
3, 182160, Note_on_c, 0, 67, 90
3, 182255, Note_on_c, 0, 67, 0
3, 182640, Note_on_c, 0, 60, 94
3, 182760, Note_on_c, 0, 60, 0
3, 182760, Note_on_c, 0, 62, 92
3, 182880, Note_on_c, 0, 62, 0
3, 182880, Note_on_c, 0, 64, 90
3, 183000, Note_on_c, 0, 64, 0
3, 183120, Note_on_c, 0, 60, 102
3, 183240, Note_on_c, 0, 60, 0
3, 183240, Note_on_c, 0, 62, 97
3, 183360, Note_on_c, 0, 62, 0
3, 183360, Note_on_c, 0, 64, 96
3, 183480, Note_on_c, 0, 64, 0
3, 183480, Note_on_c, 0, 65, 95
3, 183600, Note_on_c, 0, 65, 0
3, 183600, Note_on_c, 0, 67, 94
3, 183720, Note_on_c, 0, 67, 0
3, 183840, Note_on_c, 0, 64, 103
3, 183960, Note_on_c, 0, 64, 0
3, 183960, Note_on_c, 0, 65, 99
3, 184080, Note_on_c, 0, 65, 0
3, 184080, Note_on_c, 0, 67, 95
3, 184200, Note_on_c, 0, 67, 0
3, 184200, Note_on_c, 0, 68, 92
3, 184320, Note_on_c, 0, 68, 0
3, 184320, Note_on_c, 0, 70, 86
3, 184415, Note_on_c, 0, 70, 0
3, 184800, Note_on_c, 0, 67, 75
3, 184895, Note_on_c, 0, 67, 0
3, 185040, Note_on_c, 0, 64, 75
3, 185135, Note_on_c, 0, 64, 0
3, 185520, Note_on_c, 0, 67, 73
3, 185615, Note_on_c, 0, 67, 0
3, 185760, Note_on_c, 0, 70, 73
3, 185855, Note_on_c, 0, 70, 0
3, 186240, Note_on_c, 0, 67, 72
3, 186335, Note_on_c, 0, 67, 0
3, 186480, Note_on_c, 0, 64, 71
3, 186575, Note_on_c, 0, 64, 0
3, 186960, Note_on_c, 0, 67, 70
3, 187055, Note_on_c, 0, 67, 0
3, 187200, Note_on_c, 0, 67, 69
3, 187200, Note_on_c, 0, 70, 69
3, 187680, Note_on_c, 0, 70, 0
3, 187680, Note_on_c, 0, 67, 0
3, 187680, Note_on_c, 0, 67, 65
3, 187680, Note_on_c, 0, 70, 65
3, 187775, Note_on_c, 0, 70, 0
3, 187775, Note_on_c, 0, 67, 0
3, 187920, Note_on_c, 0, 70, 67
3, 187920, Note_on_c, 0, 67, 67
3, 188400, Note_on_c, 0, 67, 0
3, 188400, Note_on_c, 0, 70, 0
3, 188400, Note_on_c, 0, 70, 63
3, 188400, Note_on_c, 0, 67, 63
3, 188495, Note_on_c, 0, 67, 0
3, 188495, Note_on_c, 0, 70, 0
3, 188640, Note_on_c, 0, 70, 66
3, 188640, Note_on_c, 0, 67, 66
3, 189120, Note_on_c, 0, 67, 0
3, 189120, Note_on_c, 0, 70, 0
3, 189120, Note_on_c, 0, 70, 61
3, 189120, Note_on_c, 0, 67, 61
3, 189215, Note_on_c, 0, 67, 0
3, 189215, Note_on_c, 0, 70, 0
3, 189360, Note_on_c, 0, 70, 64
3, 189360, Note_on_c, 0, 67, 64
3, 189840, Note_on_c, 0, 67, 0
3, 189840, Note_on_c, 0, 70, 0
3, 189840, Note_on_c, 0, 70, 60
3, 189840, Note_on_c, 0, 67, 60
3, 189935, Note_on_c, 0, 67, 0
3, 189935, Note_on_c, 0, 70, 0
3, 190080, Note_on_c, 0, 64, 62
3, 190080, Note_on_c, 0, 70, 62
3, 190560, Note_on_c, 0, 70, 0
3, 190560, Note_on_c, 0, 64, 0
3, 190560, Note_on_c, 0, 70, 57
3, 190560, Note_on_c, 0, 64, 57
3, 190655, Note_on_c, 0, 64, 0
3, 190655, Note_on_c, 0, 70, 0
3, 190800, Note_on_c, 0, 70, 60
3, 190800, Note_on_c, 0, 64, 60
3, 191280, Note_on_c, 0, 64, 0
3, 191280, Note_on_c, 0, 70, 0
3, 191280, Note_on_c, 0, 64, 56
3, 191280, Note_on_c, 0, 70, 56
3, 191375, Note_on_c, 0, 70, 0
3, 191375, Note_on_c, 0, 64, 0
3, 191520, Note_on_c, 0, 70, 58
3, 191520, Note_on_c, 0, 64, 58
3, 192000, Note_on_c, 0, 64, 0
3, 192000, Note_on_c, 0, 70, 0
3, 192000, Note_on_c, 0, 64, 55
3, 192000, Note_on_c, 0, 70, 55
3, 192095, Note_on_c, 0, 70, 0
3, 192095, Note_on_c, 0, 64, 0
3, 192240, Note_on_c, 0, 70, 57
3, 192240, Note_on_c, 0, 64, 57
3, 192720, Note_on_c, 0, 64, 0
3, 192720, Note_on_c, 0, 70, 0
3, 192720, Note_on_c, 0, 64, 53
3, 192720, Note_on_c, 0, 70, 53
3, 192815, Note_on_c, 0, 70, 0
3, 192815, Note_on_c, 0, 64, 0
3, 192960, Note_on_c, 0, 70, 55
3, 192960, Note_on_c, 0, 64, 55
3, 193055, Note_on_c, 0, 64, 0
3, 193055, Note_on_c, 0, 70, 0
3, 193680, Note_on_c, 0, 64, 53
3, 193680, Note_on_c, 0, 70, 53
3, 193775, Note_on_c, 0, 70, 0
3, 193775, Note_on_c, 0, 64, 0
3, 194400, Note_on_c, 0, 64, 51
3, 194400, Note_on_c, 0, 70, 51
3, 194495, Note_on_c, 0, 70, 0
3, 194495, Note_on_c, 0, 64, 0
3, 195120, Note_on_c, 0, 64, 49
3, 195120, Note_on_c, 0, 70, 49
3, 195215, Note_on_c, 0, 70, 0
3, 195215, Note_on_c, 0, 64, 0
3, 201600, Note_on_c, 0, 60, 92
3, 202080, Note_on_c, 0, 60, 0
3, 202080, Note_on_c, 0, 62, 91
3, 202320, Note_on_c, 0, 62, 0
3, 202320, Note_on_c, 0, 63, 90
3, 202415, Note_on_c, 0, 63, 0
3, 202800, Note_on_c, 0, 63, 101
3, 203280, Note_on_c, 0, 63, 0
3, 203280, Note_on_c, 0, 65, 89
3, 203375, Note_on_c, 0, 65, 0
3, 203520, Note_on_c, 0, 62, 86
3, 203615, Note_on_c, 0, 62, 0
3, 203760, Note_on_c, 0, 63, 81
3, 203855, Note_on_c, 0, 63, 0
3, 204480, Note_on_c, 0, 65, 82
3, 204960, Note_on_c, 0, 65, 0
3, 204960, Note_on_c, 0, 67, 81
3, 205200, Note_on_c, 0, 67, 0
3, 205200, Note_on_c, 0, 68, 80
3, 205295, Note_on_c, 0, 68, 0
3, 205680, Note_on_c, 0, 69, 93
3, 206160, Note_on_c, 0, 69, 0
3, 206160, Note_on_c, 0, 70, 81
3, 206255, Note_on_c, 0, 70, 0
3, 206400, Note_on_c, 0, 67, 77
3, 206495, Note_on_c, 0, 67, 0
3, 206640, Note_on_c, 0, 68, 74
3, 206735, Note_on_c, 0, 68, 0
3, 207120, Note_on_c, 0, 72, 98
3, 207120, Note_on_c, 0, 81, 98
3, 207600, Note_on_c, 0, 81, 0
3, 207600, Note_on_c, 0, 72, 0
3, 207600, Note_on_c, 0, 73, 91
3, 207600, Note_on_c, 0, 82, 91
3, 207695, Note_on_c, 0, 82, 0
3, 207695, Note_on_c, 0, 73, 0
3, 207840, Note_on_c, 0, 70, 88
3, 207840, Note_on_c, 0, 79, 88
3, 207935, Note_on_c, 0, 79, 0
3, 207935, Note_on_c, 0, 70, 0
3, 208080, Note_on_c, 0, 72, 84
3, 208080, Note_on_c, 0, 80, 84
3, 208175, Note_on_c, 0, 80, 0
3, 208175, Note_on_c, 0, 72, 0
3, 208560, Note_on_c, 0, 72, 104
3, 208560, Note_on_c, 0, 69, 104
3, 209040, Note_on_c, 0, 69, 0
3, 209040, Note_on_c, 0, 72, 0
3, 209040, Note_on_c, 0, 70, 95
3, 209040, Note_on_c, 0, 73, 95
3, 209135, Note_on_c, 0, 73, 0
3, 209135, Note_on_c, 0, 70, 0
3, 209280, Note_on_c, 0, 67, 91
3, 209280, Note_on_c, 0, 70, 91
3, 209375, Note_on_c, 0, 70, 0
3, 209375, Note_on_c, 0, 67, 0
3, 209520, Note_on_c, 0, 72, 91
3, 209520, Note_on_c, 0, 68, 91
3, 209615, Note_on_c, 0, 68, 0
3, 209615, Note_on_c, 0, 72, 0
3, 210000, Note_on_c, 0, 70, 96
3, 210000, Note_on_c, 0, 79, 96
3, 210095, Note_on_c, 0, 79, 0
3, 210095, Note_on_c, 0, 70, 0
3, 210240, Note_on_c, 0, 72, 99
3, 210240, Note_on_c, 0, 80, 99
3, 210335, Note_on_c, 0, 80, 0
3, 210335, Note_on_c, 0, 72, 0
3, 210720, Note_on_c, 0, 67, 103
3, 210720, Note_on_c, 0, 70, 103
3, 210815, Note_on_c, 0, 70, 0
3, 210815, Note_on_c, 0, 67, 0
3, 210960, Note_on_c, 0, 72, 105
3, 210960, Note_on_c, 0, 68, 105
3, 211055, Note_on_c, 0, 68, 0
3, 211055, Note_on_c, 0, 72, 0
3, 211440, Note_on_c, 0, 55, 110
3, 211440, Note_on_c, 0, 58, 110
3, 211535, Note_on_c, 0, 58, 0
3, 211535, Note_on_c, 0, 55, 0
3, 211680, Note_on_c, 0, 60, 112
3, 211680, Note_on_c, 0, 56, 112
3, 211860, Note_on_c, 0, 56, 0
3, 211860, Note_on_c, 0, 60, 0
3, 212400, Note_on_c, 0, 53, 54
3, 212880, Note_on_c, 0, 56, 55
3, 213120, Note_on_c, 0, 56, 0
3, 213120, Note_on_c, 0, 53, 0
3, 213120, Note_on_c, 0, 51, 56
3, 213600, Note_on_c, 0, 56, 58
3, 213840, Note_on_c, 0, 56, 0
3, 213840, Note_on_c, 0, 51, 0
3, 213840, Note_on_c, 0, 54, 59
3, 214320, Note_on_c, 0, 56, 60
3, 214560, Note_on_c, 0, 56, 0
3, 214560, Note_on_c, 0, 54, 0
3, 214560, Note_on_c, 0, 53, 61
3, 215040, Note_on_c, 0, 61, 63
3, 215280, Note_on_c, 0, 61, 0
3, 215280, Note_on_c, 0, 53, 0
3, 215280, Note_on_c, 0, 56, 65
3, 215760, Note_on_c, 0, 61, 69
3, 216000, Note_on_c, 0, 61, 0
3, 216000, Note_on_c, 0, 56, 0
3, 216000, Note_on_c, 0, 61, 79
3, 216000, Note_on_c, 0, 58, 79
3, 216480, Note_on_c, 0, 58, 0
3, 216480, Note_on_c, 0, 61, 0
3, 216480, Note_on_c, 0, 58, 67
3, 216480, Note_on_c, 0, 61, 67
3, 216720, Note_on_c, 0, 61, 0
3, 216720, Note_on_c, 0, 58, 0
3, 216720, Note_on_c, 0, 61, 64
3, 216720, Note_on_c, 0, 58, 64
3, 217200, Note_on_c, 0, 58, 0
3, 217200, Note_on_c, 0, 61, 0
3, 217200, Note_on_c, 0, 58, 57
3, 217200, Note_on_c, 0, 61, 57
3, 217440, Note_on_c, 0, 61, 0
3, 217440, Note_on_c, 0, 58, 0
3, 217440, Note_on_c, 0, 60, 53
3, 217680, Note_on_c, 0, 60, 0
3, 218160, Note_on_c, 0, 53, 54
3, 218640, Note_on_c, 0, 56, 55
3, 218880, Note_on_c, 0, 56, 0
3, 218880, Note_on_c, 0, 53, 0
3, 218880, Note_on_c, 0, 51, 56
3, 219360, Note_on_c, 0, 56, 58
3, 219600, Note_on_c, 0, 56, 0
3, 219600, Note_on_c, 0, 51, 0
3, 219600, Note_on_c, 0, 54, 59
3, 220080, Note_on_c, 0, 56, 60
3, 220320, Note_on_c, 0, 56, 0
3, 220320, Note_on_c, 0, 54, 0
3, 220320, Note_on_c, 0, 53, 61
3, 220800, Note_on_c, 0, 61, 63
3, 221040, Note_on_c, 0, 61, 0
3, 221040, Note_on_c, 0, 53, 0
3, 221040, Note_on_c, 0, 56, 65
3, 221520, Note_on_c, 0, 61, 69
3, 221760, Note_on_c, 0, 61, 0
3, 221760, Note_on_c, 0, 56, 0
3, 221760, Note_on_c, 0, 58, 79
3, 221760, Note_on_c, 0, 61, 79
3, 222240, Note_on_c, 0, 61, 0
3, 222240, Note_on_c, 0, 58, 0
3, 222240, Note_on_c, 0, 61, 67
3, 222240, Note_on_c, 0, 58, 67
3, 222480, Note_on_c, 0, 58, 0
3, 222480, Note_on_c, 0, 61, 0
3, 222480, Note_on_c, 0, 58, 64
3, 222480, Note_on_c, 0, 61, 64
3, 222960, Note_on_c, 0, 61, 0
3, 222960, Note_on_c, 0, 58, 0
3, 222960, Note_on_c, 0, 61, 57
3, 222960, Note_on_c, 0, 58, 57
3, 223200, Note_on_c, 0, 58, 0
3, 223200, Note_on_c, 0, 61, 0
3, 223200, Note_on_c, 0, 60, 53
3, 223440, Note_on_c, 0, 60, 0
3, 223680, Control_c, 0, 64, 0
3, 223920, Note_on_c, 0, 60, 56
3, 224400, Note_on_c, 0, 67, 57
3, 224640, Note_on_c, 0, 67, 0
3, 224640, Note_on_c, 0, 60, 0
3, 224640, Note_on_c, 0, 61, 58
3, 225120, Note_on_c, 0, 68, 59
3, 225360, Note_on_c, 0, 68, 0
3, 225360, Note_on_c, 0, 61, 0
3, 225360, Note_on_c, 0, 63, 60
3, 225360, Note_on_c, 0, 66, 60
3, 225840, Note_on_c, 0, 68, 61
3, 226080, Note_on_c, 0, 68, 0
3, 226080, Note_on_c, 0, 66, 0
3, 226080, Note_on_c, 0, 63, 0
3, 226080, Note_on_c, 0, 65, 62
3, 226560, Note_on_c, 0, 73, 63
3, 226800, Note_on_c, 0, 73, 0
3, 226800, Note_on_c, 0, 65, 0
3, 226800, Note_on_c, 0, 65, 64
3, 227280, Note_on_c, 0, 73, 65
3, 227520, Note_on_c, 0, 73, 0
3, 227520, Note_on_c, 0, 65, 0
3, 227520, Note_on_c, 0, 66, 66
3, 228000, Note_on_c, 0, 72, 67
3, 228240, Note_on_c, 0, 72, 0
3, 228240, Note_on_c, 0, 66, 0
3, 228240, Note_on_c, 0, 71, 68
3, 228240, Note_on_c, 0, 68, 68
3, 228720, Note_on_c, 0, 73, 69
3, 228960, Note_on_c, 0, 73, 0
3, 228960, Note_on_c, 0, 68, 0
3, 228960, Note_on_c, 0, 71, 0
3, 228960, Note_on_c, 0, 70, 70
3, 229440, Note_on_c, 0, 73, 71
3, 229680, Note_on_c, 0, 73, 0
3, 229680, Note_on_c, 0, 70, 0
3, 229680, Note_on_c, 0, 70, 71
3, 230160, Note_on_c, 0, 73, 74
3, 230400, Note_on_c, 0, 73, 0
3, 230400, Note_on_c, 0, 70, 0
3, 230400, Note_on_c, 0, 71, 76
3, 230880, Note_on_c, 0, 73, 79
3, 231120, Note_on_c, 0, 73, 0
3, 231120, Note_on_c, 0, 71, 0
3, 231120, Note_on_c, 0, 69, 81
3, 231600, Note_on_c, 0, 73, 84
3, 231840, Note_on_c, 0, 73, 0
3, 231840, Note_on_c, 0, 69, 0
3, 231840, Note_on_c, 0, 70, 85
3, 232320, Note_on_c, 0, 73, 88
3, 232545, Note_on_c, 0, 70, 0
3, 232560, Note_on_c, 0, 73, 0
3, 232560, Note_on_c, 0, 70, 93
3, 233040, Note_on_c, 0, 73, 83
3, 233280, Note_on_c, 0, 73, 0
3, 233280, Note_on_c, 0, 70, 0
3, 233280, Note_on_c, 0, 68, 73
3, 233760, Note_on_c, 0, 73, 68
3, 234000, Note_on_c, 0, 73, 0
3, 234000, Note_on_c, 0, 68, 0
3, 234000, Note_on_c, 0, 66, 65
3, 234000, Note_on_c, 0, 72, 65
3, 234480, Note_on_c, 0, 72, 0
3, 234480, Note_on_c, 0, 66, 0
3, 234480, Note_on_c, 0, 66, 60
3, 234480, Note_on_c, 0, 72, 60
3, 234720, Note_on_c, 0, 72, 0
3, 234720, Note_on_c, 0, 66, 0
3, 234720, Note_on_c, 0, 65, 58
3, 234960, Note_on_c, 0, 65, 0
3, 235200, Control_c, 0, 64, 0
3, 235440, Note_on_c, 0, 60, 56
3, 235920, Note_on_c, 0, 67, 57
3, 236160, Note_on_c, 0, 67, 0
3, 236160, Note_on_c, 0, 60, 0
3, 236160, Note_on_c, 0, 61, 58
3, 236640, Note_on_c, 0, 68, 59
3, 236880, Note_on_c, 0, 68, 0
3, 236880, Note_on_c, 0, 61, 0
3, 236880, Note_on_c, 0, 66, 60
3, 236880, Note_on_c, 0, 63, 60
3, 237360, Note_on_c, 0, 68, 61
3, 237600, Note_on_c, 0, 68, 0
3, 237600, Note_on_c, 0, 63, 0
3, 237600, Note_on_c, 0, 66, 0
3, 237600, Note_on_c, 0, 65, 62
3, 238080, Note_on_c, 0, 73, 63
3, 238320, Note_on_c, 0, 73, 0
3, 238320, Note_on_c, 0, 65, 0
3, 238320, Note_on_c, 0, 65, 64
3, 238800, Note_on_c, 0, 73, 65
3, 239040, Note_on_c, 0, 73, 0
3, 239040, Note_on_c, 0, 65, 0
3, 239040, Note_on_c, 0, 66, 66
3, 239520, Note_on_c, 0, 72, 67
3, 239760, Note_on_c, 0, 72, 0
3, 239760, Note_on_c, 0, 66, 0
3, 239760, Note_on_c, 0, 68, 68
3, 239760, Note_on_c, 0, 71, 68
3, 240240, Note_on_c, 0, 73, 69
3, 240480, Note_on_c, 0, 73, 0
3, 240480, Note_on_c, 0, 71, 0
3, 240480, Note_on_c, 0, 68, 0
3, 240480, Note_on_c, 0, 70, 70
3, 240960, Note_on_c, 0, 73, 71
3, 241200, Note_on_c, 0, 73, 0
3, 241200, Note_on_c, 0, 70, 0
3, 241200, Note_on_c, 0, 70, 71
3, 241680, Note_on_c, 0, 73, 74
3, 241920, Note_on_c, 0, 73, 0
3, 241920, Note_on_c, 0, 70, 0
3, 241920, Note_on_c, 0, 71, 76
3, 242400, Note_on_c, 0, 73, 79
3, 242640, Note_on_c, 0, 73, 0
3, 242640, Note_on_c, 0, 71, 0
3, 242640, Note_on_c, 0, 69, 81
3, 243120, Note_on_c, 0, 73, 84
3, 243360, Note_on_c, 0, 73, 0
3, 243360, Note_on_c, 0, 69, 0
3, 243360, Note_on_c, 0, 70, 85
3, 243840, Note_on_c, 0, 73, 88
3, 244065, Note_on_c, 0, 70, 0
3, 244080, Note_on_c, 0, 73, 0
3, 244080, Note_on_c, 0, 70, 93
3, 244560, Note_on_c, 0, 73, 83
3, 244800, Note_on_c, 0, 73, 0
3, 244800, Note_on_c, 0, 70, 0
3, 244800, Note_on_c, 0, 68, 73
3, 245280, Note_on_c, 0, 73, 68
3, 245520, Note_on_c, 0, 73, 0
3, 245520, Note_on_c, 0, 68, 0
3, 245520, Note_on_c, 0, 72, 65
3, 245520, Note_on_c, 0, 66, 65
3, 246000, Note_on_c, 0, 66, 0
3, 246000, Note_on_c, 0, 72, 0
3, 246000, Note_on_c, 0, 72, 60
3, 246000, Note_on_c, 0, 66, 60
3, 246240, Note_on_c, 0, 66, 0
3, 246240, Note_on_c, 0, 72, 0
3, 246240, Note_on_c, 0, 65, 58
3, 246480, Note_on_c, 0, 65, 0
3, 246720, Control_c, 0, 64, 0
3, 247200, Note_on_c, 0, 61, 75
3, 247920, Note_on_c, 0, 61, 0
3, 247920, Note_on_c, 0, 60, 62
3, 248100, Note_on_c, 0, 60, 0
3, 248640, Note_on_c, 0, 68, 85
3, 249360, Note_on_c, 0, 68, 0
3, 249360, Note_on_c, 0, 67, 55
3, 249480, Note_on_c, 0, 67, 0
3, 249600, Control_c, 0, 64, 0
3, 249840, Note_on_c, 0, 68, 85
3, 251040, Note_on_c, 0, 68, 0
3, 251040, Note_on_c, 0, 70, 71
3, 251160, Note_on_c, 0, 70, 0
3, 251280, Note_on_c, 0, 72, 74
3, 251400, Note_on_c, 0, 72, 0
3, 251520, Note_on_c, 0, 68, 72
3, 251640, Note_on_c, 0, 68, 0
3, 251760, Note_on_c, 0, 68, 67
3, 251880, Note_on_c, 0, 68, 0
3, 252000, Note_on_c, 0, 67, 63
3, 252120, Note_on_c, 0, 67, 0
3, 252720, Note_on_c, 0, 73, 75
3, 253440, Note_on_c, 0, 73, 0
3, 253440, Note_on_c, 0, 72, 65
3, 253920, Note_on_c, 0, 72, 0
3, 253920, Note_on_c, 0, 75, 62
3, 254015, Note_on_c, 0, 75, 0
3, 254160, Note_on_c, 0, 77, 60
3, 254255, Note_on_c, 0, 77, 0
3, 254400, Note_on_c, 0, 73, 64
3, 254495, Note_on_c, 0, 73, 0
3, 254640, Note_on_c, 0, 73, 58
3, 254735, Note_on_c, 0, 73, 0
3, 255600, Note_on_c, 0, 68, 72
3, 256320, Note_on_c, 0, 68, 0
3, 256320, Note_on_c, 0, 67, 67
3, 256415, Note_on_c, 0, 67, 0
3, 256560, Note_on_c, 0, 68, 65
3, 256655, Note_on_c, 0, 68, 0
3, 256800, Note_on_c, 0, 70, 63
3, 256895, Note_on_c, 0, 70, 0
3, 257040, Note_on_c, 0, 72, 67
3, 257160, Note_on_c, 0, 72, 0
3, 257280, Note_on_c, 0, 68, 64
3, 257375, Note_on_c, 0, 68, 0
3, 257520, Note_on_c, 0, 68, 59
3, 257615, Note_on_c, 0, 68, 0
3, 257760, Note_on_c, 0, 67, 53
3, 257855, Note_on_c, 0, 67, 0
3, 258480, Note_on_c, 0, 73, 66
3, 259200, Note_on_c, 0, 73, 0
3, 259200, Note_on_c, 0, 72, 63
3, 259320, Note_on_c, 0, 72, 0
3, 259440, Note_on_c, 0, 73, 61
3, 259535, Note_on_c, 0, 73, 0
3, 259680, Note_on_c, 0, 75, 60
3, 259775, Note_on_c, 0, 75, 0
3, 259920, Note_on_c, 0, 77, 59
3, 260015, Note_on_c, 0, 77, 0
3, 260160, Note_on_c, 0, 73, 62
3, 260255, Note_on_c, 0, 73, 0
3, 260400, Note_on_c, 0, 73, 58
3, 260495, Note_on_c, 0, 73, 0
3, 260640, Note_on_c, 0, 72, 53
3, 260735, Note_on_c, 0, 72, 0
3, 261120, Control_c, 0, 64, 0
3, 261120, Note_on_c, 0, 56, 57
3, 261240, Note_on_c, 0, 56, 0
3, 261240, Note_on_c, 0, 58, 57
3, 261360, Note_on_c, 0, 58, 0
3, 261360, Note_on_c, 0, 60, 58
3, 261840, Note_on_c, 0, 60, 0
3, 261840, Note_on_c, 0, 61, 60
3, 262080, Note_on_c, 0, 61, 0
3, 262080, Note_on_c, 0, 63, 62
3, 262175, Note_on_c, 0, 63, 0
3, 262560, Note_on_c, 0, 63, 71
3, 262655, Note_on_c, 0, 63, 0
3, 262800, Note_on_c, 0, 66, 65
3, 262895, Note_on_c, 0, 66, 0
3, 263040, Note_on_c, 0, 72, 66
3, 263135, Note_on_c, 0, 72, 0
3, 263280, Note_on_c, 0, 75, 90
3, 263760, Note_on_c, 0, 75, 0
3, 263760, Note_on_c, 0, 74, 64
3, 263855, Note_on_c, 0, 74, 0
3, 264000, Note_on_c, 0, 58, 71
3, 264120, Note_on_c, 0, 58, 0
3, 264120, Note_on_c, 0, 60, 72
3, 264240, Note_on_c, 0, 60, 0
3, 264240, Note_on_c, 0, 62, 72
3, 264720, Note_on_c, 0, 62, 0
3, 264720, Note_on_c, 0, 64, 75
3, 264960, Note_on_c, 0, 64, 0
3, 264960, Note_on_c, 0, 65, 76
3, 265055, Note_on_c, 0, 65, 0
3, 265440, Note_on_c, 0, 65, 87
3, 265535, Note_on_c, 0, 65, 0
3, 265680, Note_on_c, 0, 68, 79
3, 265775, Note_on_c, 0, 68, 0
3, 265920, Note_on_c, 0, 74, 81
3, 266015, Note_on_c, 0, 74, 0
3, 266160, Note_on_c, 0, 77, 101
3, 266640, Note_on_c, 0, 77, 0
3, 266640, Note_on_c, 0, 76, 80
3, 266735, Note_on_c, 0, 76, 0
3, 266880, Note_on_c, 0, 60, 85
3, 267000, Note_on_c, 0, 60, 0
3, 267000, Note_on_c, 0, 62, 86
3, 267120, Note_on_c, 0, 62, 0
3, 267120, Note_on_c, 0, 64, 87
3, 267600, Note_on_c, 0, 64, 0
3, 267600, Note_on_c, 0, 65, 89
3, 267840, Note_on_c, 0, 65, 0
3, 267840, Note_on_c, 0, 67, 90
3, 267935, Note_on_c, 0, 67, 0
3, 268320, Note_on_c, 0, 60, 94
3, 268440, Note_on_c, 0, 60, 0
3, 268440, Note_on_c, 0, 62, 92
3, 268560, Note_on_c, 0, 62, 0
3, 268560, Note_on_c, 0, 64, 90
3, 268680, Note_on_c, 0, 64, 0
3, 268800, Note_on_c, 0, 60, 102
3, 268920, Note_on_c, 0, 60, 0
3, 268920, Note_on_c, 0, 62, 97
3, 269040, Note_on_c, 0, 62, 0
3, 269040, Note_on_c, 0, 64, 96
3, 269160, Note_on_c, 0, 64, 0
3, 269160, Note_on_c, 0, 65, 95
3, 269280, Note_on_c, 0, 65, 0
3, 269280, Note_on_c, 0, 67, 94
3, 269400, Note_on_c, 0, 67, 0
3, 269520, Note_on_c, 0, 64, 103
3, 269640, Note_on_c, 0, 64, 0
3, 269640, Note_on_c, 0, 65, 99
3, 269760, Note_on_c, 0, 65, 0
3, 269760, Note_on_c, 0, 67, 95
3, 269880, Note_on_c, 0, 67, 0
3, 269880, Note_on_c, 0, 68, 92
3, 270000, Note_on_c, 0, 68, 0
3, 270000, Note_on_c, 0, 70, 86
3, 270095, Note_on_c, 0, 70, 0
3, 270480, Note_on_c, 0, 67, 75
3, 270575, Note_on_c, 0, 67, 0
3, 270720, Note_on_c, 0, 64, 75
3, 270815, Note_on_c, 0, 64, 0
3, 271200, Note_on_c, 0, 67, 73
3, 271295, Note_on_c, 0, 67, 0
3, 271440, Note_on_c, 0, 70, 73
3, 271535, Note_on_c, 0, 70, 0
3, 271920, Note_on_c, 0, 67, 72
3, 272015, Note_on_c, 0, 67, 0
3, 272160, Note_on_c, 0, 64, 71
3, 272255, Note_on_c, 0, 64, 0
3, 272640, Note_on_c, 0, 67, 70
3, 272735, Note_on_c, 0, 67, 0
3, 272880, Note_on_c, 0, 70, 69
3, 272880, Note_on_c, 0, 67, 69
3, 273360, Note_on_c, 0, 67, 0
3, 273360, Note_on_c, 0, 70, 0
3, 273360, Note_on_c, 0, 70, 65
3, 273360, Note_on_c, 0, 67, 65
3, 273455, Note_on_c, 0, 67, 0
3, 273455, Note_on_c, 0, 70, 0
3, 273600, Note_on_c, 0, 67, 67
3, 273600, Note_on_c, 0, 70, 67
3, 274080, Note_on_c, 0, 70, 0
3, 274080, Note_on_c, 0, 67, 0
3, 274080, Note_on_c, 0, 67, 63
3, 274080, Note_on_c, 0, 70, 63
3, 274175, Note_on_c, 0, 70, 0
3, 274175, Note_on_c, 0, 67, 0
3, 274320, Note_on_c, 0, 67, 66
3, 274320, Note_on_c, 0, 70, 66
3, 274800, Note_on_c, 0, 70, 0
3, 274800, Note_on_c, 0, 67, 0
3, 274800, Note_on_c, 0, 67, 61
3, 274800, Note_on_c, 0, 70, 61
3, 274895, Note_on_c, 0, 70, 0
3, 274895, Note_on_c, 0, 67, 0
3, 275040, Note_on_c, 0, 67, 64
3, 275040, Note_on_c, 0, 70, 64
3, 275520, Note_on_c, 0, 70, 0
3, 275520, Note_on_c, 0, 67, 0
3, 275520, Note_on_c, 0, 67, 60
3, 275520, Note_on_c, 0, 70, 60
3, 275615, Note_on_c, 0, 70, 0
3, 275615, Note_on_c, 0, 67, 0
3, 275760, Note_on_c, 0, 70, 62
3, 275760, Note_on_c, 0, 64, 62
3, 276240, Note_on_c, 0, 64, 0
3, 276240, Note_on_c, 0, 70, 0
3, 276240, Note_on_c, 0, 64, 57
3, 276240, Note_on_c, 0, 70, 57
3, 276335, Note_on_c, 0, 70, 0
3, 276335, Note_on_c, 0, 64, 0
3, 276480, Note_on_c, 0, 64, 60
3, 276480, Note_on_c, 0, 70, 60
3, 276960, Note_on_c, 0, 70, 0
3, 276960, Note_on_c, 0, 64, 0
3, 276960, Note_on_c, 0, 70, 56
3, 276960, Note_on_c, 0, 64, 56
3, 277055, Note_on_c, 0, 64, 0
3, 277055, Note_on_c, 0, 70, 0
3, 277200, Note_on_c, 0, 64, 58
3, 277200, Note_on_c, 0, 70, 58
3, 277680, Note_on_c, 0, 70, 0
3, 277680, Note_on_c, 0, 64, 0
3, 277680, Note_on_c, 0, 70, 55
3, 277680, Note_on_c, 0, 64, 55
3, 277775, Note_on_c, 0, 64, 0
3, 277775, Note_on_c, 0, 70, 0
3, 277920, Note_on_c, 0, 64, 57
3, 277920, Note_on_c, 0, 70, 57
3, 278400, Note_on_c, 0, 70, 0
3, 278400, Note_on_c, 0, 64, 0
3, 278400, Note_on_c, 0, 70, 53
3, 278400, Note_on_c, 0, 64, 53
3, 278495, Note_on_c, 0, 64, 0
3, 278495, Note_on_c, 0, 70, 0
3, 278640, Note_on_c, 0, 64, 55
3, 278640, Note_on_c, 0, 70, 55
3, 278735, Note_on_c, 0, 70, 0
3, 278735, Note_on_c, 0, 64, 0
3, 279360, Note_on_c, 0, 70, 53
3, 279360, Note_on_c, 0, 64, 53
3, 279455, Note_on_c, 0, 64, 0
3, 279455, Note_on_c, 0, 70, 0
3, 280080, Note_on_c, 0, 70, 51
3, 280080, Note_on_c, 0, 64, 51
3, 280175, Note_on_c, 0, 64, 0
3, 280175, Note_on_c, 0, 70, 0
3, 280800, Note_on_c, 0, 70, 49
3, 280800, Note_on_c, 0, 64, 49
3, 280895, Note_on_c, 0, 64, 0
3, 280895, Note_on_c, 0, 70, 0
3, 287280, Note_on_c, 0, 60, 92
3, 287760, Note_on_c, 0, 60, 0
3, 287760, Note_on_c, 0, 62, 91
3, 288000, Note_on_c, 0, 62, 0
3, 288000, Note_on_c, 0, 63, 90
3, 288095, Note_on_c, 0, 63, 0
3, 288480, Note_on_c, 0, 63, 101
3, 288960, Note_on_c, 0, 63, 0
3, 288960, Note_on_c, 0, 65, 89
3, 289055, Note_on_c, 0, 65, 0
3, 289200, Note_on_c, 0, 62, 86
3, 289295, Note_on_c, 0, 62, 0
3, 289440, Note_on_c, 0, 63, 81
3, 289535, Note_on_c, 0, 63, 0
3, 290160, Note_on_c, 0, 65, 82
3, 290640, Note_on_c, 0, 65, 0
3, 290640, Note_on_c, 0, 67, 81
3, 290880, Note_on_c, 0, 67, 0
3, 290880, Note_on_c, 0, 68, 80
3, 290975, Note_on_c, 0, 68, 0
3, 291360, Note_on_c, 0, 69, 92
3, 291840, Note_on_c, 0, 69, 0
3, 291840, Note_on_c, 0, 70, 85
3, 291935, Note_on_c, 0, 70, 0
3, 292080, Note_on_c, 0, 67, 81
3, 292175, Note_on_c, 0, 67, 0
3, 292320, Note_on_c, 0, 68, 78
3, 292415, Note_on_c, 0, 68, 0
3, 292800, Note_on_c, 0, 81, 100
3, 292800, Note_on_c, 0, 72, 100
3, 293280, Note_on_c, 0, 72, 0
3, 293280, Note_on_c, 0, 81, 0
3, 293280, Note_on_c, 0, 82, 95
3, 293280, Note_on_c, 0, 73, 95
3, 293375, Note_on_c, 0, 73, 0
3, 293375, Note_on_c, 0, 82, 0
3, 293520, Note_on_c, 0, 79, 92
3, 293520, Note_on_c, 0, 70, 92
3, 293615, Note_on_c, 0, 70, 0
3, 293615, Note_on_c, 0, 79, 0
3, 293760, Note_on_c, 0, 80, 89
3, 293760, Note_on_c, 0, 72, 89
3, 293855, Note_on_c, 0, 72, 0
3, 293855, Note_on_c, 0, 80, 0
3, 294240, Note_on_c, 0, 69, 103
3, 294240, Note_on_c, 0, 72, 103
3, 294720, Note_on_c, 0, 72, 0
3, 294720, Note_on_c, 0, 69, 0
3, 294720, Note_on_c, 0, 73, 99
3, 294720, Note_on_c, 0, 70, 99
3, 294815, Note_on_c, 0, 70, 0
3, 294815, Note_on_c, 0, 73, 0
3, 294960, Note_on_c, 0, 70, 96
3, 294960, Note_on_c, 0, 67, 96
3, 295055, Note_on_c, 0, 67, 0
3, 295055, Note_on_c, 0, 70, 0
3, 295200, Note_on_c, 0, 68, 93
3, 295200, Note_on_c, 0, 72, 93
3, 295295, Note_on_c, 0, 72, 0
3, 295295, Note_on_c, 0, 68, 0
3, 295680, Note_on_c, 0, 79, 99
3, 295680, Note_on_c, 0, 70, 99
3, 295775, Note_on_c, 0, 70, 0
3, 295775, Note_on_c, 0, 79, 0
3, 295920, Note_on_c, 0, 80, 101
3, 295920, Note_on_c, 0, 72, 101
3, 296015, Note_on_c, 0, 72, 0
3, 296015, Note_on_c, 0, 80, 0
3, 296400, Note_on_c, 0, 70, 105
3, 296400, Note_on_c, 0, 67, 105
3, 296495, Note_on_c, 0, 67, 0
3, 296495, Note_on_c, 0, 70, 0
3, 296640, Note_on_c, 0, 68, 108
3, 296640, Note_on_c, 0, 72, 108
3, 296735, Note_on_c, 0, 72, 0
3, 296735, Note_on_c, 0, 68, 0
3, 297120, Note_on_c, 0, 58, 110
3, 297120, Note_on_c, 0, 55, 110
3, 297215, Note_on_c, 0, 55, 0
3, 297215, Note_on_c, 0, 58, 0
3, 297360, Note_on_c, 0, 56, 112
3, 297360, Note_on_c, 0, 60, 112
3, 297455, Note_on_c, 0, 60, 0
3, 297455, Note_on_c, 0, 56, 0
3, 300240, Control_c, 0, 7, 122
3, 300240, Pitch_bend_c, 0, 8192
3, 300240, Control_c, 0, 1, 0
3, 300240, Control_c, 0, 64, 0
3, 300240, Control_c, 0, 93, 28
3, 300240, Control_c, 0, 91, 91
3, 301680, Note_on_c, 0, 51, 60
3, 302040, Note_on_c, 0, 51, 0
3, 302040, Note_on_c, 0, 51, 64
3, 302160, Note_on_c, 0, 51, 0
3, 302160, Note_on_c, 0, 51, 66
3, 302640, Note_on_c, 0, 51, 0
3, 302640, Note_on_c, 0, 51, 66
3, 303000, Note_on_c, 0, 51, 0
3, 303000, Note_on_c, 0, 51, 65
3, 303120, Note_on_c, 0, 51, 0
3, 303120, Note_on_c, 0, 51, 64
3, 303480, Note_on_c, 0, 51, 0
3, 303480, Note_on_c, 0, 51, 62
3, 303600, Note_on_c, 0, 51, 0
3, 303600, Note_on_c, 0, 51, 62
3, 303960, Note_on_c, 0, 51, 0
3, 303960, Note_on_c, 0, 51, 60
3, 304080, Note_on_c, 0, 51, 0
3, 304080, Note_on_c, 0, 51, 60
3, 305340, Note_on_c, 0, 51, 0
3, 309360, Note_on_c, 0, 51, 62
3, 309720, Note_on_c, 0, 51, 0
3, 309720, Note_on_c, 0, 51, 65
3, 309840, Note_on_c, 0, 51, 0
3, 309840, Note_on_c, 0, 51, 67
3, 310320, Note_on_c, 0, 51, 0
3, 310320, Note_on_c, 0, 51, 69
3, 310680, Note_on_c, 0, 51, 0
3, 310680, Note_on_c, 0, 51, 73
3, 310800, Note_on_c, 0, 51, 0
3, 310800, Note_on_c, 0, 51, 74
3, 311160, Note_on_c, 0, 51, 0
3, 311160, Note_on_c, 0, 51, 78
3, 311280, Note_on_c, 0, 51, 0
3, 311280, Note_on_c, 0, 51, 79
3, 311640, Note_on_c, 0, 51, 0
3, 311640, Note_on_c, 0, 51, 83
3, 311760, Note_on_c, 0, 51, 0
3, 311760, Note_on_c, 0, 51, 93
3, 313030, Note_on_c, 0, 51, 0
3, 317040, Note_on_c, 0, 54, 60
3, 317400, Note_on_c, 0, 54, 0
3, 317400, Note_on_c, 0, 54, 65
3, 317520, Note_on_c, 0, 54, 0
3, 317520, Note_on_c, 0, 54, 67
3, 318000, Note_on_c, 0, 54, 0
3, 318000, Note_on_c, 0, 54, 65
3, 318360, Note_on_c, 0, 54, 0
3, 318360, Note_on_c, 0, 54, 70
3, 318480, Note_on_c, 0, 54, 0
3, 318480, Note_on_c, 0, 54, 72
3, 318840, Note_on_c, 0, 54, 0
3, 318840, Note_on_c, 0, 54, 77
3, 318960, Note_on_c, 0, 54, 0
3, 318960, Note_on_c, 0, 54, 78
3, 319320, Note_on_c, 0, 54, 0
3, 319320, Note_on_c, 0, 54, 83
3, 319440, Note_on_c, 0, 54, 0
3, 319440, Note_on_c, 0, 54, 91
3, 320705, Note_on_c, 0, 54, 0
3, 320880, Note_on_c, 0, 54, 73
3, 321240, Note_on_c, 0, 54, 0
3, 321240, Note_on_c, 0, 54, 71
3, 321360, Note_on_c, 0, 54, 0
3, 321360, Note_on_c, 0, 54, 70
3, 321840, Note_on_c, 0, 54, 0
3, 321840, Note_on_c, 0, 54, 68
3, 322200, Note_on_c, 0, 54, 0
3, 322200, Note_on_c, 0, 54, 66
3, 322320, Note_on_c, 0, 54, 0
3, 322320, Note_on_c, 0, 54, 65
3, 322800, Note_on_c, 0, 54, 0
3, 322800, Note_on_c, 0, 54, 63
3, 323160, Note_on_c, 0, 54, 0
3, 323160, Note_on_c, 0, 54, 61
3, 323280, Note_on_c, 0, 54, 0
3, 323280, Note_on_c, 0, 54, 64
3, 323640, Note_on_c, 0, 54, 0
3, 323760, Note_on_c, 0, 54, 58
3, 324120, Note_on_c, 0, 54, 0
3, 324240, Note_on_c, 0, 54, 51
3, 324600, Note_on_c, 0, 54, 0
3, 324720, Note_on_c, 0, 54, 63
3, 325080, Note_on_c, 0, 54, 0
3, 325080, Note_on_c, 0, 54, 66
3, 325200, Note_on_c, 0, 54, 0
3, 325200, Note_on_c, 0, 54, 67
3, 325680, Note_on_c, 0, 54, 0
3, 325680, Note_on_c, 0, 54, 70
3, 326040, Note_on_c, 0, 54, 0
3, 326040, Note_on_c, 0, 54, 73
3, 326160, Note_on_c, 0, 54, 0
3, 326160, Note_on_c, 0, 54, 74
3, 326520, Note_on_c, 0, 54, 0
3, 326640, Note_on_c, 0, 52, 79
3, 327000, Note_on_c, 0, 52, 0
3, 327000, Note_on_c, 0, 54, 82
3, 327120, Note_on_c, 0, 54, 0
3, 327120, Note_on_c, 0, 55, 88
3, 328380, Note_on_c, 0, 55, 0
3, 328560, Note_on_c, 0, 55, 61
3, 328920, Note_on_c, 0, 55, 0
3, 328920, Note_on_c, 0, 55, 63
3, 329040, Note_on_c, 0, 55, 0
3, 330480, Note_on_c, 0, 57, 74
3, 330840, Note_on_c, 0, 57, 0
3, 330840, Note_on_c, 0, 57, 77
3, 330960, Note_on_c, 0, 57, 0
3, 332400, Note_on_c, 0, 65, 49
3, 332760, Note_on_c, 0, 65, 0
3, 332760, Note_on_c, 0, 65, 52
3, 332880, Note_on_c, 0, 65, 0
3, 332880, Note_on_c, 0, 65, 60
3, 333840, Note_on_c, 0, 65, 0
3, 333840, Note_on_c, 0, 65, 58
3, 334320, Note_on_c, 0, 65, 0
3, 334320, Note_on_c, 0, 65, 57
3, 334800, Note_on_c, 0, 65, 0
3, 334800, Note_on_c, 0, 63, 55
3, 335004, Note_on_c, 0, 63, 0
3, 335160, Note_on_c, 0, 65, 64
3, 335280, Note_on_c, 0, 65, 0
3, 335280, Note_on_c, 0, 65, 72
3, 336240, Note_on_c, 0, 65, 0
3, 336240, Note_on_c, 0, 65, 66
3, 336600, Note_on_c, 0, 65, 0
3, 336600, Note_on_c, 0, 65, 64
3, 336720, Note_on_c, 0, 65, 0
3, 336720, Note_on_c, 0, 63, 63
3, 336960, Note_on_c, 0, 63, 0
3, 337080, Note_on_c, 0, 65, 95
3, 337176, Note_on_c, 0, 65, 0
3, 337200, Note_on_c, 0, 65, 98
3, 337488, Note_on_c, 0, 65, 0
3, 337560, Note_on_c, 0, 65, 106
3, 337656, Note_on_c, 0, 65, 0
3, 337680, Note_on_c, 0, 65, 108
3, 337968, Note_on_c, 0, 65, 0
3, 338040, Note_on_c, 0, 65, 116
3, 338136, Note_on_c, 0, 65, 0
3, 338160, Note_on_c, 0, 65, 119
3, 338448, Note_on_c, 0, 65, 0
3, 338520, Note_on_c, 0, 65, 127
3, 338616, Note_on_c, 0, 65, 0
3, 338640, Note_on_c, 0, 63, 127
3, 338832, Note_on_c, 0, 63, 0
3, 341040, Note_on_c, 0, 51, 57
3, 341400, Note_on_c, 0, 51, 0
3, 341400, Note_on_c, 0, 51, 60
3, 341520, Note_on_c, 0, 51, 0
3, 341520, Note_on_c, 0, 51, 60
3, 341880, Note_on_c, 0, 51, 0
3, 341880, Note_on_c, 0, 51, 63
3, 342000, Note_on_c, 0, 51, 0
3, 342000, Note_on_c, 0, 51, 64
3, 342360, Note_on_c, 0, 51, 0
3, 342360, Note_on_c, 0, 51, 66
3, 342480, Note_on_c, 0, 51, 0
3, 342480, Note_on_c, 0, 51, 67
3, 343807, Note_on_c, 0, 51, 0
3, 347760, Note_on_c, 0, 51, 63
3, 348120, Note_on_c, 0, 51, 0
3, 348120, Note_on_c, 0, 51, 65
3, 348240, Note_on_c, 0, 51, 0
3, 348240, Note_on_c, 0, 51, 69
3, 348720, Note_on_c, 0, 51, 0
3, 348720, Note_on_c, 0, 51, 69
3, 349080, Note_on_c, 0, 51, 0
3, 349080, Note_on_c, 0, 51, 71
3, 349200, Note_on_c, 0, 51, 0
3, 349200, Note_on_c, 0, 51, 72
3, 349560, Note_on_c, 0, 51, 0
3, 349560, Note_on_c, 0, 51, 74
3, 349680, Note_on_c, 0, 51, 0
3, 349680, Note_on_c, 0, 51, 75
3, 350040, Note_on_c, 0, 51, 0
3, 350040, Note_on_c, 0, 51, 77
3, 350160, Note_on_c, 0, 51, 0
3, 350160, Note_on_c, 0, 52, 83
3, 351600, Note_on_c, 0, 52, 0
3, 351600, Note_on_c, 0, 52, 95
3, 351960, Note_on_c, 0, 52, 0
3, 352080, Note_on_c, 0, 61, 103
3, 352214, Note_on_c, 0, 61, 0
3, 353520, Note_on_c, 0, 61, 107
3, 353880, Note_on_c, 0, 61, 0
3, 354000, Note_on_c, 0, 70, 116
3, 355440, Note_on_c, 0, 70, 0
3, 355440, Note_on_c, 0, 70, 119
3, 355800, Note_on_c, 0, 70, 0
3, 355920, Note_on_c, 0, 71, 122
3, 356160, Note_on_c, 0, 71, 0
3, 356880, Note_on_c, 0, 70, 123
3, 357120, Note_on_c, 0, 70, 0
3, 357360, Note_on_c, 0, 67, 123
3, 357600, Note_on_c, 0, 67, 0
3, 357840, Note_on_c, 0, 68, 123
3, 358080, Note_on_c, 0, 68, 0
3, 358320, Note_on_c, 0, 47, 123
3, 358320, Note_on_c, 0, 51, 123
3, 358560, Note_on_c, 0, 51, 0
3, 358560, Note_on_c, 0, 47, 0
3, 375120, Control_c, 0, 64, 0
3, 382800, Control_c, 0, 64, 0
3, 390000, Note_on_c, 0, 51, 60
3, 390360, Note_on_c, 0, 51, 0
3, 390360, Note_on_c, 0, 51, 64
3, 390480, Note_on_c, 0, 51, 0
3, 390480, Control_c, 0, 64, 0
3, 390480, Note_on_c, 0, 51, 66
3, 390960, Note_on_c, 0, 51, 0
3, 390960, Note_on_c, 0, 51, 66
3, 391320, Note_on_c, 0, 51, 0
3, 391320, Note_on_c, 0, 51, 65
3, 391440, Note_on_c, 0, 51, 0
3, 391440, Note_on_c, 0, 51, 64
3, 391800, Note_on_c, 0, 51, 0
3, 391800, Note_on_c, 0, 51, 62
3, 391920, Note_on_c, 0, 51, 0
3, 391920, Note_on_c, 0, 51, 62
3, 392280, Note_on_c, 0, 51, 0
3, 392280, Note_on_c, 0, 51, 60
3, 392400, Note_on_c, 0, 51, 0
3, 392400, Note_on_c, 0, 51, 60
3, 393720, Note_on_c, 0, 51, 0
3, 397680, Note_on_c, 0, 51, 62
3, 398040, Note_on_c, 0, 51, 0
3, 398040, Note_on_c, 0, 51, 65
3, 398160, Note_on_c, 0, 51, 0
3, 398160, Note_on_c, 0, 51, 67
3, 398640, Note_on_c, 0, 51, 0
3, 398640, Note_on_c, 0, 51, 69
3, 399000, Note_on_c, 0, 51, 0
3, 399000, Note_on_c, 0, 51, 73
3, 399120, Note_on_c, 0, 51, 0
3, 399120, Note_on_c, 0, 51, 74
3, 399480, Note_on_c, 0, 51, 0
3, 399480, Note_on_c, 0, 51, 78
3, 399600, Note_on_c, 0, 51, 0
3, 399600, Note_on_c, 0, 51, 79
3, 399960, Note_on_c, 0, 51, 0
3, 399960, Note_on_c, 0, 51, 83
3, 400080, Note_on_c, 0, 51, 0
3, 400080, Note_on_c, 0, 51, 93
3, 401340, Note_on_c, 0, 51, 0
3, 405360, Note_on_c, 0, 54, 60
3, 405720, Note_on_c, 0, 54, 0
3, 405720, Note_on_c, 0, 54, 65
3, 405840, Note_on_c, 0, 54, 0
3, 405840, Note_on_c, 0, 54, 67
3, 406320, Note_on_c, 0, 54, 0
3, 406320, Note_on_c, 0, 54, 65
3, 406680, Note_on_c, 0, 54, 0
3, 406680, Note_on_c, 0, 54, 70
3, 406800, Note_on_c, 0, 54, 0
3, 406800, Note_on_c, 0, 54, 72
3, 407160, Note_on_c, 0, 54, 0
3, 407160, Note_on_c, 0, 54, 77
3, 407280, Note_on_c, 0, 54, 0
3, 407280, Note_on_c, 0, 54, 78
3, 407640, Note_on_c, 0, 54, 0
3, 407640, Note_on_c, 0, 54, 83
3, 407760, Note_on_c, 0, 54, 0
3, 407760, Note_on_c, 0, 54, 91
3, 409020, Note_on_c, 0, 54, 0
3, 409200, Note_on_c, 0, 54, 73
3, 409560, Note_on_c, 0, 54, 0
3, 409560, Note_on_c, 0, 54, 71
3, 409680, Note_on_c, 0, 54, 0
3, 409680, Note_on_c, 0, 54, 70
3, 410160, Note_on_c, 0, 54, 0
3, 410160, Note_on_c, 0, 54, 68
3, 410520, Note_on_c, 0, 54, 0
3, 410520, Note_on_c, 0, 54, 66
3, 410640, Note_on_c, 0, 54, 0
3, 410640, Note_on_c, 0, 54, 65
3, 411120, Note_on_c, 0, 54, 0
3, 411120, Note_on_c, 0, 54, 63
3, 411480, Note_on_c, 0, 54, 0
3, 411480, Note_on_c, 0, 54, 61
3, 411600, Note_on_c, 0, 54, 0
3, 411600, Note_on_c, 0, 54, 64
3, 411960, Note_on_c, 0, 54, 0
3, 412080, Note_on_c, 0, 54, 58
3, 412440, Note_on_c, 0, 54, 0
3, 412560, Note_on_c, 0, 54, 51
3, 412920, Note_on_c, 0, 54, 0
3, 413040, Note_on_c, 0, 54, 63
3, 413400, Note_on_c, 0, 54, 0
3, 413400, Note_on_c, 0, 54, 66
3, 413520, Note_on_c, 0, 54, 0
3, 413520, Note_on_c, 0, 54, 67
3, 414000, Note_on_c, 0, 54, 0
3, 414000, Note_on_c, 0, 54, 70
3, 414360, Note_on_c, 0, 54, 0
3, 414360, Note_on_c, 0, 54, 73
3, 414480, Note_on_c, 0, 54, 0
3, 414480, Note_on_c, 0, 54, 74
3, 414840, Note_on_c, 0, 54, 0
3, 414960, Note_on_c, 0, 52, 79
3, 415320, Note_on_c, 0, 52, 0
3, 415320, Note_on_c, 0, 54, 82
3, 415440, Note_on_c, 0, 54, 0
3, 415440, Note_on_c, 0, 55, 88
3, 416700, Note_on_c, 0, 55, 0
3, 416880, Note_on_c, 0, 55, 61
3, 417240, Note_on_c, 0, 55, 0
3, 417240, Note_on_c, 0, 55, 63
3, 417360, Note_on_c, 0, 55, 0
3, 418800, Note_on_c, 0, 57, 74
3, 419160, Note_on_c, 0, 57, 0
3, 419160, Note_on_c, 0, 57, 77
3, 419280, Note_on_c, 0, 57, 0
3, 429360, Note_on_c, 0, 51, 57
3, 429720, Note_on_c, 0, 51, 0
3, 429720, Note_on_c, 0, 51, 60
3, 429840, Note_on_c, 0, 51, 0
3, 429840, Note_on_c, 0, 51, 60
3, 430200, Note_on_c, 0, 51, 0
3, 430200, Note_on_c, 0, 51, 63
3, 430320, Note_on_c, 0, 51, 0
3, 430320, Note_on_c, 0, 51, 64
3, 430680, Note_on_c, 0, 51, 0
3, 430680, Note_on_c, 0, 51, 66
3, 430800, Note_on_c, 0, 51, 0
3, 430800, Note_on_c, 0, 51, 67
3, 432060, Note_on_c, 0, 51, 0
3, 436080, Note_on_c, 0, 51, 63
3, 436440, Note_on_c, 0, 51, 0
3, 436440, Note_on_c, 0, 51, 65
3, 436560, Note_on_c, 0, 51, 0
3, 436560, Note_on_c, 0, 51, 69
3, 437040, Note_on_c, 0, 51, 0
3, 437040, Note_on_c, 0, 51, 69
3, 437400, Note_on_c, 0, 51, 0
3, 437400, Note_on_c, 0, 51, 71
3, 437520, Note_on_c, 0, 51, 0
3, 437520, Note_on_c, 0, 51, 72
3, 437880, Note_on_c, 0, 51, 0
3, 437880, Note_on_c, 0, 51, 74
3, 438000, Note_on_c, 0, 51, 0
3, 438000, Note_on_c, 0, 51, 75
3, 438360, Note_on_c, 0, 51, 0
3, 438360, Note_on_c, 0, 51, 77
3, 438480, Note_on_c, 0, 51, 0
3, 438480, Note_on_c, 0, 52, 83
3, 439920, Note_on_c, 0, 52, 0
3, 439920, Note_on_c, 0, 52, 95
3, 440280, Note_on_c, 0, 52, 0
3, 440400, Note_on_c, 0, 61, 103
3, 441840, Note_on_c, 0, 61, 0
3, 441840, Note_on_c, 0, 61, 107
3, 442200, Note_on_c, 0, 61, 0
3, 442320, Note_on_c, 0, 70, 116
3, 443760, Note_on_c, 0, 70, 0
3, 443760, Note_on_c, 0, 70, 119
3, 444120, Note_on_c, 0, 70, 0
3, 444240, Note_on_c, 0, 71, 123
3, 444480, Note_on_c, 0, 71, 0
3, 445200, Note_on_c, 0, 70, 126
3, 445440, Note_on_c, 0, 70, 0
3, 445680, Note_on_c, 0, 67, 127
3, 445920, Note_on_c, 0, 67, 0
3, 446160, Note_on_c, 0, 68, 127
3, 446400, Note_on_c, 0, 68, 0
3, 447600, Note_on_c, 0, 66, 61
3, 447960, Note_on_c, 0, 66, 0
3, 447960, Note_on_c, 0, 64, 64
3, 448080, Note_on_c, 0, 64, 0
3, 448080, Note_on_c, 0, 63, 65
3, 448800, Note_on_c, 0, 63, 0
3, 448920, Note_on_c, 0, 61, 71
3, 449040, Note_on_c, 0, 61, 0
3, 449040, Note_on_c, 0, 61, 72
3, 449400, Note_on_c, 0, 61, 0
3, 449520, Note_on_c, 0, 61, 76
3, 449880, Note_on_c, 0, 61, 0
3, 450000, Note_on_c, 0, 60, 70
3, 450480, Note_on_c, 0, 60, 0
3, 451440, Note_on_c, 0, 66, 66
3, 451440, Note_on_c, 0, 63, 66
3, 451800, Note_on_c, 0, 63, 0
3, 451800, Note_on_c, 0, 66, 0
3, 451800, Note_on_c, 0, 64, 70
3, 451800, Note_on_c, 0, 68, 70
3, 451920, Note_on_c, 0, 68, 0
3, 451920, Note_on_c, 0, 64, 0
3, 451920, Note_on_c, 0, 69, 71
3, 451920, Note_on_c, 0, 66, 71
3, 452760, Note_on_c, 0, 66, 0
3, 452760, Note_on_c, 0, 73, 80
3, 452760, Note_on_c, 0, 68, 80
3, 452767, Note_on_c, 0, 69, 0
3, 452880, Note_on_c, 0, 68, 0
3, 452880, Note_on_c, 0, 73, 0
3, 452880, Note_on_c, 0, 70, 81
3, 452880, Note_on_c, 0, 72, 81
3, 453360, Note_on_c, 0, 72, 0
3, 453360, Note_on_c, 0, 70, 0
3, 453360, Note_on_c, 0, 70, 86
3, 453360, Note_on_c, 0, 76, 86
3, 453840, Note_on_c, 0, 76, 0
3, 453840, Note_on_c, 0, 70, 0
3, 453840, Note_on_c, 0, 72, 75
3, 453840, Note_on_c, 0, 75, 75
3, 454800, Note_on_c, 0, 75, 0
3, 454800, Note_on_c, 0, 72, 0
3, 454800, Note_on_c, 0, 69, 92
3, 455640, Note_on_c, 0, 67, 78
3, 455647, Note_on_c, 0, 69, 0
3, 455760, Note_on_c, 0, 67, 0
3, 455760, Note_on_c, 0, 68, 74
3, 456240, Note_on_c, 0, 68, 0
3, 456720, Note_on_c, 0, 61, 75
3, 456720, Note_on_c, 0, 64, 75
3, 457680, Note_on_c, 0, 64, 0
3, 457680, Note_on_c, 0, 61, 0
3, 457680, Note_on_c, 0, 60, 66
3, 457680, Note_on_c, 0, 63, 66
3, 458160, Note_on_c, 0, 63, 0
3, 458160, Note_on_c, 0, 60, 0
3, 458640, Note_on_c, 0, 60, 60
3, 459000, Note_on_c, 0, 60, 0
3, 459120, Note_on_c, 0, 60, 58
3, 459480, Note_on_c, 0, 60, 0
3, 459600, Note_on_c, 0, 60, 56
3, 459600, Note_on_c, 0, 56, 56
3, 461520, Note_on_c, 0, 56, 0
3, 461520, Note_on_c, 0, 60, 0
3, 461520, Control_c, 0, 7, 122
3, 461520, Pitch_bend_c, 0, 8192
3, 461520, Control_c, 0, 1, 0
3, 461520, Control_c, 0, 64, 0
3, 461520, Control_c, 0, 93, 28
3, 461520, Control_c, 0, 91, 91
3, 461520, Control_c, 0, 10, 64
3, 463080, Note_on_c, 0, 72, 72
3, 463200, Note_on_c, 0, 72, 0
3, 463320, Note_on_c, 0, 69, 71
3, 463440, Note_on_c, 0, 69, 0
3, 463560, Note_on_c, 0, 70, 71
3, 463680, Note_on_c, 0, 70, 0
3, 463800, Note_on_c, 0, 67, 70
3, 463920, Note_on_c, 0, 67, 0
3, 464040, Note_on_c, 0, 68, 69
3, 464160, Note_on_c, 0, 68, 0
3, 464280, Note_on_c, 0, 65, 68
3, 464400, Note_on_c, 0, 65, 0
3, 464520, Note_on_c, 0, 67, 67
3, 464640, Note_on_c, 0, 67, 0
3, 464760, Note_on_c, 0, 64, 67
3, 464880, Note_on_c, 0, 64, 0
3, 465000, Note_on_c, 0, 65, 66
3, 465120, Note_on_c, 0, 65, 0
3, 465240, Note_on_c, 0, 62, 65
3, 465360, Note_on_c, 0, 62, 0
3, 465480, Note_on_c, 0, 63, 64
3, 465600, Note_on_c, 0, 63, 0
3, 465600, Note_on_c, 0, 62, 64
3, 465720, Note_on_c, 0, 62, 0
3, 465720, Note_on_c, 0, 63, 63
3, 465840, Note_on_c, 0, 63, 0
3, 465960, Note_on_c, 0, 63, 64
3, 466080, Note_on_c, 0, 63, 0
3, 466200, Note_on_c, 0, 63, 66
3, 466320, Note_on_c, 0, 63, 0
3, 466440, Note_on_c, 0, 63, 67
3, 466560, Note_on_c, 0, 63, 0
3, 466680, Note_on_c, 0, 63, 69
3, 466800, Note_on_c, 0, 63, 0
3, 466920, Note_on_c, 0, 63, 71
3, 467040, Note_on_c, 0, 63, 0
3, 467160, Note_on_c, 0, 63, 72
3, 467280, Note_on_c, 0, 63, 0
3, 467400, Note_on_c, 0, 63, 74
3, 467520, Note_on_c, 0, 63, 0
3, 467520, Note_on_c, 0, 67, 75
3, 467640, Note_on_c, 0, 63, 76
3, 467750, Note_on_c, 0, 67, 0
3, 467760, Note_on_c, 0, 63, 0
3, 467760, Note_on_c, 0, 68, 76
3, 467880, Note_on_c, 0, 63, 77
3, 467990, Note_on_c, 0, 68, 0
3, 468000, Note_on_c, 0, 63, 0
3, 468000, Note_on_c, 0, 72, 78
3, 468000, Note_on_c, 0, 68, 78
3, 468120, Note_on_c, 0, 63, 79
3, 468230, Note_on_c, 0, 68, 0
3, 468240, Note_on_c, 0, 63, 0
3, 468240, Note_on_c, 0, 67, 80
3, 468240, Note_on_c, 0, 70, 80
3, 468248, Note_on_c, 0, 72, 0
3, 468360, Note_on_c, 0, 63, 81
3, 468470, Note_on_c, 0, 70, 0
3, 468470, Note_on_c, 0, 67, 0
3, 468480, Note_on_c, 0, 63, 0
3, 468480, Note_on_c, 0, 67, 81
3, 468480, Note_on_c, 0, 70, 81
3, 468600, Note_on_c, 0, 63, 82
3, 468660, Note_on_c, 0, 63, 0
3, 468660, Note_on_c, 0, 67, 0
3, 468665, Note_on_c, 0, 70, 0
3, 468840, Note_on_c, 0, 75, 65
3, 468960, Note_on_c, 0, 75, 0
3, 469080, Note_on_c, 0, 77, 66
3, 469200, Note_on_c, 0, 77, 0
3, 469320, Note_on_c, 0, 73, 67
3, 469440, Note_on_c, 0, 73, 0
3, 469560, Note_on_c, 0, 75, 68
3, 469680, Note_on_c, 0, 75, 0
3, 469800, Note_on_c, 0, 72, 69
3, 469920, Note_on_c, 0, 72, 0
3, 470040, Note_on_c, 0, 73, 70
3, 470160, Note_on_c, 0, 73, 0
3, 470280, Note_on_c, 0, 70, 71
3, 470400, Note_on_c, 0, 70, 0
3, 470520, Note_on_c, 0, 72, 72
3, 470640, Note_on_c, 0, 72, 0
3, 470760, Note_on_c, 0, 68, 73
3, 470880, Note_on_c, 0, 68, 0
3, 471000, Note_on_c, 0, 70, 74
3, 471120, Note_on_c, 0, 70, 0
3, 471600, Note_on_c, 0, 73, 75
3, 471840, Note_on_c, 0, 73, 0
3, 471840, Note_on_c, 0, 72, 77
3, 472080, Note_on_c, 0, 72, 0
3, 472080, Note_on_c, 0, 70, 78
3, 472320, Note_on_c, 0, 70, 0
3, 472320, Note_on_c, 0, 68, 80
3, 472560, Note_on_c, 0, 68, 0
3, 472560, Note_on_c, 0, 67, 82
3, 472800, Note_on_c, 0, 67, 0
3, 472800, Note_on_c, 0, 65, 84
3, 473040, Note_on_c, 0, 65, 0
3, 473280, Note_on_c, 0, 68, 87
3, 473280, Note_on_c, 0, 72, 87
3, 473400, Note_on_c, 0, 72, 0
3, 473400, Note_on_c, 0, 68, 0
3, 473520, Note_on_c, 0, 70, 89
3, 473520, Note_on_c, 0, 73, 89
3, 473640, Note_on_c, 0, 73, 0
3, 473640, Note_on_c, 0, 70, 0
3, 473760, Note_on_c, 0, 67, 91
3, 473760, Note_on_c, 0, 70, 91
3, 473880, Note_on_c, 0, 70, 0
3, 473880, Note_on_c, 0, 67, 0
3, 474000, Note_on_c, 0, 72, 92
3, 474000, Note_on_c, 0, 68, 92
3, 474120, Note_on_c, 0, 68, 0
3, 474120, Note_on_c, 0, 72, 0
3, 474600, Note_on_c, 0, 72, 81
3, 474720, Note_on_c, 0, 72, 0
3, 474840, Note_on_c, 0, 72, 81
3, 474960, Note_on_c, 0, 72, 0
3, 475080, Note_on_c, 0, 72, 82
3, 475200, Note_on_c, 0, 72, 0
3, 475320, Note_on_c, 0, 72, 82
3, 475440, Note_on_c, 0, 72, 0
3, 475560, Note_on_c, 0, 72, 82
3, 475680, Note_on_c, 0, 72, 0
3, 475800, Note_on_c, 0, 72, 83
3, 475920, Note_on_c, 0, 72, 0
3, 476040, Note_on_c, 0, 72, 83
3, 476160, Note_on_c, 0, 72, 0
3, 476280, Note_on_c, 0, 72, 84
3, 476400, Note_on_c, 0, 72, 0
3, 478440, Note_on_c, 0, 75, 87
3, 478560, Note_on_c, 0, 75, 0
3, 478680, Note_on_c, 0, 75, 87
3, 478800, Note_on_c, 0, 75, 0
3, 478920, Note_on_c, 0, 75, 88
3, 479040, Note_on_c, 0, 75, 0
3, 479160, Note_on_c, 0, 75, 88
3, 479280, Note_on_c, 0, 75, 0
3, 479400, Note_on_c, 0, 75, 88
3, 479520, Note_on_c, 0, 75, 0
3, 479640, Note_on_c, 0, 75, 89
3, 479760, Note_on_c, 0, 75, 0
3, 479880, Note_on_c, 0, 75, 89
3, 480000, Note_on_c, 0, 75, 0
3, 480000, Note_on_c, 0, 63, 89
3, 480120, Note_on_c, 0, 75, 90
3, 480219, Note_on_c, 0, 63, 0
3, 480240, Note_on_c, 0, 75, 0
3, 480240, Note_on_c, 0, 67, 90
3, 480360, Note_on_c, 0, 75, 90
3, 480459, Note_on_c, 0, 67, 0
3, 480480, Note_on_c, 0, 75, 0
3, 480480, Note_on_c, 0, 68, 90
3, 480600, Note_on_c, 0, 75, 90
3, 480699, Note_on_c, 0, 68, 0
3, 480720, Note_on_c, 0, 75, 0
3, 480720, Note_on_c, 0, 65, 91
3, 480840, Note_on_c, 0, 75, 91
3, 480939, Note_on_c, 0, 65, 0
3, 480960, Note_on_c, 0, 75, 0
3, 480960, Note_on_c, 0, 65, 91
3, 481080, Note_on_c, 0, 73, 91
3, 481179, Note_on_c, 0, 65, 0
3, 481200, Note_on_c, 0, 73, 0
3, 481200, Note_on_c, 0, 63, 91
3, 481320, Note_on_c, 0, 72, 91
3, 481419, Note_on_c, 0, 63, 0
3, 481440, Note_on_c, 0, 72, 0
3, 481440, Note_on_c, 0, 61, 92
3, 481560, Note_on_c, 0, 70, 92
3, 481659, Note_on_c, 0, 61, 0
3, 481680, Note_on_c, 0, 70, 0
3, 481680, Note_on_c, 0, 60, 92
3, 481800, Note_on_c, 0, 60, 0
3, 482160, Note_on_c, 0, 70, 89
3, 482400, Note_on_c, 0, 70, 0
3, 482400, Note_on_c, 0, 67, 89
3, 482640, Note_on_c, 0, 67, 0
3, 482640, Note_on_c, 0, 64, 90
3, 482880, Note_on_c, 0, 64, 0
3, 483120, Note_on_c, 0, 62, 91
3, 483360, Note_on_c, 0, 62, 0
3, 483360, Note_on_c, 0, 64, 92
3, 483600, Note_on_c, 0, 64, 0
3, 483600, Note_on_c, 0, 65, 92
3, 483840, Note_on_c, 0, 65, 0
3, 483840, Note_on_c, 0, 68, 93
3, 484080, Note_on_c, 0, 68, 0
3, 484200, Note_on_c, 0, 82, 94
3, 484320, Note_on_c, 0, 82, 0
3, 484440, Note_on_c, 0, 82, 94
3, 484560, Note_on_c, 0, 82, 0
3, 484680, Note_on_c, 0, 82, 95
3, 484800, Note_on_c, 0, 82, 0
3, 484920, Note_on_c, 0, 82, 95
3, 485040, Note_on_c, 0, 82, 0
3, 485160, Note_on_c, 0, 82, 96
3, 485280, Note_on_c, 0, 82, 0
3, 485400, Note_on_c, 0, 82, 97
3, 485520, Note_on_c, 0, 82, 0
3, 485640, Note_on_c, 0, 82, 97
3, 485760, Note_on_c, 0, 82, 0
3, 485880, Note_on_c, 0, 82, 98
3, 486000, Note_on_c, 0, 82, 0
3, 486000, Note_on_c, 0, 73, 98
3, 486240, Note_on_c, 0, 73, 0
3, 486240, Note_on_c, 0, 70, 98
3, 486480, Note_on_c, 0, 70, 0
3, 486480, Note_on_c, 0, 67, 99
3, 486720, Note_on_c, 0, 67, 0
3, 486720, Note_on_c, 0, 63, 101
3, 486960, Note_on_c, 0, 63, 0
3, 486960, Note_on_c, 0, 65, 102
3, 487200, Note_on_c, 0, 65, 0
3, 487200, Note_on_c, 0, 67, 103
3, 487440, Note_on_c, 0, 67, 0
3, 487440, Note_on_c, 0, 68, 104
3, 487680, Note_on_c, 0, 68, 0
3, 487680, Note_on_c, 0, 75, 105
3, 487680, Note_on_c, 0, 84, 105
3, 487680, Note_on_c, 0, 80, 105
3, 487899, Note_on_c, 0, 80, 0
3, 487899, Note_on_c, 0, 84, 0
3, 487899, Note_on_c, 0, 75, 0
3, 487920, Note_on_c, 0, 85, 107
3, 487920, Note_on_c, 0, 82, 107
3, 487920, Note_on_c, 0, 75, 107
3, 488139, Note_on_c, 0, 75, 0
3, 488139, Note_on_c, 0, 82, 0
3, 488139, Note_on_c, 0, 85, 0
3, 488160, Note_on_c, 0, 84, 108
3, 488160, Note_on_c, 0, 80, 108
3, 488160, Note_on_c, 0, 75, 108
3, 488379, Note_on_c, 0, 75, 0
3, 488379, Note_on_c, 0, 80, 0
3, 488379, Note_on_c, 0, 84, 0
3, 488400, Note_on_c, 0, 84, 109
3, 488400, Note_on_c, 0, 75, 109
3, 488619, Note_on_c, 0, 75, 0
3, 488619, Note_on_c, 0, 84, 0
3, 488640, Note_on_c, 0, 73, 110
3, 488640, Note_on_c, 0, 82, 110
3, 488859, Note_on_c, 0, 82, 0
3, 488859, Note_on_c, 0, 73, 0
3, 488880, Note_on_c, 0, 72, 112
3, 488880, Note_on_c, 0, 80, 112
3, 489099, Note_on_c, 0, 80, 0
3, 489099, Note_on_c, 0, 72, 0
3, 489120, Note_on_c, 0, 79, 113
3, 489120, Note_on_c, 0, 70, 113
3, 489339, Note_on_c, 0, 70, 0
3, 489339, Note_on_c, 0, 79, 0
3, 489360, Note_on_c, 0, 72, 114
3, 489480, Note_on_c, 0, 72, 0
3, 491520, Note_on_c, 0, 67, 113
3, 491520, Note_on_c, 0, 70, 113
3, 491520, Note_on_c, 0, 75, 113
3, 491640, Note_on_c, 0, 75, 0
3, 491640, Note_on_c, 0, 70, 0
3, 491640, Note_on_c, 0, 67, 0
3, 491880, Note_on_c, 0, 75, 94
3, 492000, Note_on_c, 0, 75, 0
3, 492120, Note_on_c, 0, 72, 92
3, 492240, Note_on_c, 0, 72, 0
3, 492360, Note_on_c, 0, 74, 90
3, 492480, Note_on_c, 0, 74, 0
3, 492600, Note_on_c, 0, 71, 88
3, 492720, Note_on_c, 0, 71, 0
3, 492840, Note_on_c, 0, 72, 86
3, 492960, Note_on_c, 0, 72, 0
3, 493080, Note_on_c, 0, 69, 84
3, 493200, Note_on_c, 0, 69, 0
3, 493440, Note_on_c, 0, 77, 107
3, 493440, Note_on_c, 0, 74, 107
3, 493440, Note_on_c, 0, 70, 107
3, 493560, Note_on_c, 0, 70, 0
3, 493560, Note_on_c, 0, 74, 0
3, 493560, Note_on_c, 0, 77, 0
3, 493920, Note_on_c, 0, 70, 76
3, 494040, Note_on_c, 0, 70, 0
3, 494400, Note_on_c, 0, 74, 75
3, 494520, Note_on_c, 0, 74, 0
3, 494880, Note_on_c, 0, 77, 73
3, 495000, Note_on_c, 0, 77, 0
3, 495120, Note_on_c, 0, 74, 72
3, 495240, Note_on_c, 0, 74, 0
3, 495360, Note_on_c, 0, 70, 71
3, 495480, Note_on_c, 0, 70, 0
3, 495840, Note_on_c, 0, 70, 70
3, 495960, Note_on_c, 0, 70, 0
3, 496320, Note_on_c, 0, 74, 68
3, 496440, Note_on_c, 0, 74, 0
3, 496800, Note_on_c, 0, 77, 66
3, 496920, Note_on_c, 0, 77, 0
3, 497040, Note_on_c, 0, 74, 65
3, 497160, Note_on_c, 0, 74, 0
3, 497280, Note_on_c, 0, 70, 64
3, 497400, Note_on_c, 0, 70, 0
3, 497640, Note_on_c, 0, 77, 64
3, 497760, Note_on_c, 0, 77, 0
3, 497880, Note_on_c, 0, 74, 66
3, 498000, Note_on_c, 0, 74, 0
3, 498120, Note_on_c, 0, 77, 68
3, 498240, Note_on_c, 0, 77, 0
3, 498360, Note_on_c, 0, 74, 70
3, 498480, Note_on_c, 0, 74, 0
3, 498600, Note_on_c, 0, 77, 72
3, 498720, Note_on_c, 0, 77, 0
3, 498840, Note_on_c, 0, 74, 74
3, 498960, Note_on_c, 0, 74, 0
3, 499080, Note_on_c, 0, 77, 76
3, 499200, Note_on_c, 0, 77, 0
3, 499320, Note_on_c, 0, 74, 78
3, 499440, Note_on_c, 0, 74, 0
3, 499560, Note_on_c, 0, 77, 80
3, 499680, Note_on_c, 0, 77, 0
3, 499800, Note_on_c, 0, 74, 82
3, 499920, Note_on_c, 0, 74, 0
3, 500040, Note_on_c, 0, 77, 83
3, 500160, Note_on_c, 0, 77, 0
3, 500280, Note_on_c, 0, 74, 85
3, 500400, Note_on_c, 0, 74, 0
3, 500520, Note_on_c, 0, 77, 87
3, 500640, Note_on_c, 0, 77, 0
3, 500760, Note_on_c, 0, 74, 89
3, 500880, Note_on_c, 0, 74, 0
3, 501000, Note_on_c, 0, 77, 91
3, 501120, Note_on_c, 0, 77, 0
3, 501240, Note_on_c, 0, 74, 93
3, 501360, Note_on_c, 0, 74, 0
3, 501480, Note_on_c, 0, 77, 95
3, 501600, Note_on_c, 0, 77, 0
3, 501720, Note_on_c, 0, 74, 97
3, 501840, Note_on_c, 0, 74, 0
3, 501960, Note_on_c, 0, 77, 99
3, 502080, Note_on_c, 0, 77, 0
3, 502200, Note_on_c, 0, 74, 101
3, 502320, Note_on_c, 0, 74, 0
3, 502440, Note_on_c, 0, 77, 103
3, 502560, Note_on_c, 0, 77, 0
3, 502680, Note_on_c, 0, 74, 105
3, 502800, Note_on_c, 0, 74, 0
3, 509160, Note_on_c, 0, 63, 68
3, 509280, Note_on_c, 0, 63, 0
3, 509400, Note_on_c, 0, 65, 67
3, 509520, Note_on_c, 0, 65, 0
3, 510120, Note_on_c, 0, 67, 64
3, 510240, Note_on_c, 0, 67, 0
3, 510360, Note_on_c, 0, 68, 63
3, 510480, Note_on_c, 0, 68, 0
3, 511080, Note_on_c, 0, 70, 67
3, 511200, Note_on_c, 0, 70, 0
3, 511320, Note_on_c, 0, 71, 69
3, 511440, Note_on_c, 0, 71, 0
3, 511560, Note_on_c, 0, 72, 72
3, 511680, Note_on_c, 0, 72, 0
3, 511800, Note_on_c, 0, 71, 75
3, 511920, Note_on_c, 0, 71, 0
3, 512040, Note_on_c, 0, 72, 78
3, 512160, Note_on_c, 0, 72, 0
3, 512280, Note_on_c, 0, 71, 81
3, 512400, Note_on_c, 0, 71, 0
3, 512520, Note_on_c, 0, 72, 85
3, 512640, Note_on_c, 0, 72, 0
3, 512760, Note_on_c, 0, 71, 85
3, 512880, Note_on_c, 0, 71, 0
3, 513000, Note_on_c, 0, 72, 79
3, 513120, Note_on_c, 0, 72, 0
3, 513240, Note_on_c, 0, 69, 76
3, 513360, Note_on_c, 0, 69, 0
3, 513480, Note_on_c, 0, 70, 74
3, 513600, Note_on_c, 0, 70, 0
3, 513720, Note_on_c, 0, 67, 71
3, 513840, Note_on_c, 0, 67, 0
3, 513960, Note_on_c, 0, 68, 69
3, 514080, Note_on_c, 0, 68, 0
3, 514200, Note_on_c, 0, 65, 68
3, 514320, Note_on_c, 0, 65, 0
3, 514440, Note_on_c, 0, 67, 67
3, 514560, Note_on_c, 0, 67, 0
3, 514680, Note_on_c, 0, 64, 66
3, 514800, Note_on_c, 0, 64, 0
3, 514920, Note_on_c, 0, 65, 66
3, 515040, Note_on_c, 0, 65, 0
3, 515160, Note_on_c, 0, 62, 65
3, 515280, Note_on_c, 0, 62, 0
3, 515400, Note_on_c, 0, 63, 64
3, 515520, Note_on_c, 0, 63, 0
3, 515520, Note_on_c, 0, 62, 64
3, 515640, Note_on_c, 0, 62, 0
3, 515640, Note_on_c, 0, 63, 63
3, 515760, Note_on_c, 0, 63, 0
3, 515880, Note_on_c, 0, 63, 64
3, 516000, Note_on_c, 0, 63, 0
3, 516120, Note_on_c, 0, 63, 66
3, 516240, Note_on_c, 0, 63, 0
3, 516360, Note_on_c, 0, 63, 67
3, 516480, Note_on_c, 0, 63, 0
3, 516600, Note_on_c, 0, 63, 69
3, 516720, Note_on_c, 0, 63, 0
3, 516840, Note_on_c, 0, 63, 71
3, 516960, Note_on_c, 0, 63, 0
3, 517080, Note_on_c, 0, 63, 72
3, 517200, Note_on_c, 0, 63, 0
3, 517320, Note_on_c, 0, 63, 74
3, 517440, Note_on_c, 0, 63, 0
3, 517440, Note_on_c, 0, 67, 75
3, 517560, Note_on_c, 0, 63, 76
3, 517670, Note_on_c, 0, 67, 0
3, 517680, Note_on_c, 0, 63, 0
3, 517680, Note_on_c, 0, 68, 76
3, 517800, Note_on_c, 0, 63, 77
3, 517910, Note_on_c, 0, 68, 0
3, 517920, Note_on_c, 0, 63, 0
3, 517920, Note_on_c, 0, 68, 78
3, 517920, Note_on_c, 0, 72, 78
3, 518040, Note_on_c, 0, 63, 79
3, 518150, Note_on_c, 0, 68, 0
3, 518160, Note_on_c, 0, 63, 0
3, 518160, Note_on_c, 0, 70, 80
3, 518160, Note_on_c, 0, 67, 80
3, 518168, Note_on_c, 0, 72, 0
3, 518280, Note_on_c, 0, 63, 81
3, 518390, Note_on_c, 0, 67, 0
3, 518390, Note_on_c, 0, 70, 0
3, 518400, Note_on_c, 0, 63, 0
3, 518400, Note_on_c, 0, 67, 81
3, 518400, Note_on_c, 0, 70, 81
3, 518520, Note_on_c, 0, 63, 82
3, 518575, Note_on_c, 0, 63, 0
3, 518580, Note_on_c, 0, 70, 0
3, 518585, Note_on_c, 0, 67, 0
3, 518760, Note_on_c, 0, 75, 65
3, 518880, Note_on_c, 0, 75, 0
3, 519000, Note_on_c, 0, 77, 66
3, 519120, Note_on_c, 0, 77, 0
3, 519240, Note_on_c, 0, 73, 67
3, 519360, Note_on_c, 0, 73, 0
3, 519480, Note_on_c, 0, 75, 68
3, 519600, Note_on_c, 0, 75, 0
3, 519720, Note_on_c, 0, 72, 69
3, 519840, Note_on_c, 0, 72, 0
3, 519960, Note_on_c, 0, 73, 70
3, 520080, Note_on_c, 0, 73, 0
3, 520200, Note_on_c, 0, 70, 71
3, 520320, Note_on_c, 0, 70, 0
3, 520440, Note_on_c, 0, 72, 72
3, 520560, Note_on_c, 0, 72, 0
3, 520680, Note_on_c, 0, 68, 73
3, 520800, Note_on_c, 0, 68, 0
3, 520920, Note_on_c, 0, 70, 74
3, 521040, Note_on_c, 0, 70, 0
3, 521520, Note_on_c, 0, 73, 75
3, 521760, Note_on_c, 0, 73, 0
3, 521760, Note_on_c, 0, 72, 77
3, 522000, Note_on_c, 0, 72, 0
3, 522000, Note_on_c, 0, 70, 78
3, 522240, Note_on_c, 0, 70, 0
3, 522240, Note_on_c, 0, 68, 80
3, 522480, Note_on_c, 0, 68, 0
3, 522480, Note_on_c, 0, 67, 82
3, 522720, Note_on_c, 0, 67, 0
3, 522720, Note_on_c, 0, 65, 84
3, 522960, Note_on_c, 0, 65, 0
3, 523200, Note_on_c, 0, 72, 87
3, 523200, Note_on_c, 0, 68, 87
3, 523320, Note_on_c, 0, 68, 0
3, 523320, Note_on_c, 0, 72, 0
3, 523440, Note_on_c, 0, 73, 89
3, 523440, Note_on_c, 0, 70, 89
3, 523560, Note_on_c, 0, 70, 0
3, 523560, Note_on_c, 0, 73, 0
3, 523680, Note_on_c, 0, 70, 91
3, 523680, Note_on_c, 0, 67, 91
3, 523800, Note_on_c, 0, 67, 0
3, 523800, Note_on_c, 0, 70, 0
3, 523920, Note_on_c, 0, 68, 92
3, 523920, Note_on_c, 0, 72, 92
3, 524040, Note_on_c, 0, 72, 0
3, 524040, Note_on_c, 0, 68, 0
3, 524520, Note_on_c, 0, 72, 81
3, 524640, Note_on_c, 0, 72, 0
3, 524760, Note_on_c, 0, 72, 81
3, 524880, Note_on_c, 0, 72, 0
3, 525000, Note_on_c, 0, 72, 82
3, 525120, Note_on_c, 0, 72, 0
3, 525240, Note_on_c, 0, 72, 82
3, 525360, Note_on_c, 0, 72, 0
3, 525480, Note_on_c, 0, 72, 82
3, 525600, Note_on_c, 0, 72, 0
3, 525720, Note_on_c, 0, 72, 83
3, 525840, Note_on_c, 0, 72, 0
3, 525960, Note_on_c, 0, 72, 83
3, 526080, Note_on_c, 0, 72, 0
3, 526200, Note_on_c, 0, 72, 84
3, 526320, Note_on_c, 0, 72, 0
3, 528360, Note_on_c, 0, 75, 87
3, 528480, Note_on_c, 0, 75, 0
3, 528600, Note_on_c, 0, 75, 87
3, 528720, Note_on_c, 0, 75, 0
3, 528840, Note_on_c, 0, 75, 88
3, 528960, Note_on_c, 0, 75, 0
3, 529080, Note_on_c, 0, 75, 88
3, 529200, Note_on_c, 0, 75, 0
3, 529320, Note_on_c, 0, 75, 88
3, 529440, Note_on_c, 0, 75, 0
3, 529560, Note_on_c, 0, 75, 89
3, 529680, Note_on_c, 0, 75, 0
3, 529800, Note_on_c, 0, 75, 89
3, 529920, Note_on_c, 0, 75, 0
3, 529920, Note_on_c, 0, 63, 89
3, 530040, Note_on_c, 0, 75, 90
3, 530139, Note_on_c, 0, 63, 0
3, 530160, Note_on_c, 0, 75, 0
3, 530160, Note_on_c, 0, 67, 90
3, 530280, Note_on_c, 0, 75, 90
3, 530379, Note_on_c, 0, 67, 0
3, 530400, Note_on_c, 0, 75, 0
3, 530400, Note_on_c, 0, 68, 90
3, 530520, Note_on_c, 0, 75, 90
3, 530619, Note_on_c, 0, 68, 0
3, 530640, Note_on_c, 0, 75, 0
3, 530640, Note_on_c, 0, 65, 91
3, 530760, Note_on_c, 0, 75, 91
3, 530859, Note_on_c, 0, 65, 0
3, 530880, Note_on_c, 0, 75, 0
3, 530880, Note_on_c, 0, 65, 91
3, 531000, Note_on_c, 0, 73, 91
3, 531099, Note_on_c, 0, 65, 0
3, 531120, Note_on_c, 0, 73, 0
3, 531120, Note_on_c, 0, 63, 91
3, 531240, Note_on_c, 0, 72, 91
3, 531339, Note_on_c, 0, 63, 0
3, 531360, Note_on_c, 0, 72, 0
3, 531360, Note_on_c, 0, 61, 92
3, 531480, Note_on_c, 0, 70, 92
3, 531579, Note_on_c, 0, 61, 0
3, 531600, Note_on_c, 0, 70, 0
3, 531600, Note_on_c, 0, 60, 92
3, 531720, Note_on_c, 0, 60, 0
3, 532080, Note_on_c, 0, 70, 89
3, 532320, Note_on_c, 0, 70, 0
3, 532320, Note_on_c, 0, 67, 89
3, 532560, Note_on_c, 0, 67, 0
3, 532560, Note_on_c, 0, 64, 90
3, 532800, Note_on_c, 0, 64, 0
3, 533040, Note_on_c, 0, 62, 91
3, 533280, Note_on_c, 0, 62, 0
3, 533280, Note_on_c, 0, 64, 92
3, 533520, Note_on_c, 0, 64, 0
3, 533520, Note_on_c, 0, 65, 92
3, 533760, Note_on_c, 0, 65, 0
3, 533760, Note_on_c, 0, 68, 93
3, 534000, Note_on_c, 0, 68, 0
3, 534120, Note_on_c, 0, 82, 94
3, 534240, Note_on_c, 0, 82, 0
3, 534360, Note_on_c, 0, 82, 94
3, 534480, Note_on_c, 0, 82, 0
3, 534600, Note_on_c, 0, 82, 95
3, 534720, Note_on_c, 0, 82, 0
3, 534840, Note_on_c, 0, 82, 95
3, 534960, Note_on_c, 0, 82, 0
3, 535080, Note_on_c, 0, 82, 96
3, 535200, Note_on_c, 0, 82, 0
3, 535320, Note_on_c, 0, 82, 97
3, 535440, Note_on_c, 0, 82, 0
3, 535560, Note_on_c, 0, 82, 97
3, 535680, Note_on_c, 0, 82, 0
3, 535800, Note_on_c, 0, 82, 98
3, 535920, Note_on_c, 0, 82, 0
3, 535920, Note_on_c, 0, 73, 98
3, 536160, Note_on_c, 0, 73, 0
3, 536160, Note_on_c, 0, 70, 98
3, 536400, Note_on_c, 0, 70, 0
3, 536400, Note_on_c, 0, 67, 99
3, 536640, Note_on_c, 0, 67, 0
3, 536640, Note_on_c, 0, 63, 101
3, 536880, Note_on_c, 0, 63, 0
3, 536880, Note_on_c, 0, 65, 102
3, 537120, Note_on_c, 0, 65, 0
3, 537120, Note_on_c, 0, 67, 103
3, 537360, Note_on_c, 0, 67, 0
3, 537360, Note_on_c, 0, 68, 104
3, 537600, Note_on_c, 0, 68, 0
3, 537600, Note_on_c, 0, 80, 105
3, 537600, Note_on_c, 0, 84, 105
3, 537600, Note_on_c, 0, 75, 105
3, 537819, Note_on_c, 0, 75, 0
3, 537819, Note_on_c, 0, 84, 0
3, 537819, Note_on_c, 0, 80, 0
3, 537840, Note_on_c, 0, 75, 107
3, 537840, Note_on_c, 0, 82, 107
3, 537840, Note_on_c, 0, 85, 107
3, 538059, Note_on_c, 0, 85, 0
3, 538059, Note_on_c, 0, 82, 0
3, 538059, Note_on_c, 0, 75, 0
3, 538080, Note_on_c, 0, 75, 108
3, 538080, Note_on_c, 0, 80, 108
3, 538080, Note_on_c, 0, 84, 108
3, 538299, Note_on_c, 0, 84, 0
3, 538299, Note_on_c, 0, 80, 0
3, 538299, Note_on_c, 0, 75, 0
3, 538320, Note_on_c, 0, 75, 109
3, 538320, Note_on_c, 0, 84, 109
3, 538539, Note_on_c, 0, 84, 0
3, 538539, Note_on_c, 0, 75, 0
3, 538560, Note_on_c, 0, 82, 110
3, 538560, Note_on_c, 0, 73, 110
3, 538779, Note_on_c, 0, 73, 0
3, 538779, Note_on_c, 0, 82, 0
3, 538800, Note_on_c, 0, 80, 112
3, 538800, Note_on_c, 0, 72, 112
3, 539019, Note_on_c, 0, 72, 0
3, 539019, Note_on_c, 0, 80, 0
3, 539040, Note_on_c, 0, 70, 113
3, 539040, Note_on_c, 0, 79, 113
3, 539259, Note_on_c, 0, 79, 0
3, 539259, Note_on_c, 0, 70, 0
3, 539280, Note_on_c, 0, 72, 114
3, 539400, Note_on_c, 0, 72, 0
3, 539760, Control_c, 0, 64, 0
3, 539880, Note_on_c, 0, 55, 54
3, 540000, Note_on_c, 0, 55, 0
3, 540120, Note_on_c, 0, 55, 57
3, 540240, Note_on_c, 0, 55, 0
3, 540360, Note_on_c, 0, 55, 59
3, 540480, Note_on_c, 0, 55, 0
3, 540600, Note_on_c, 0, 59, 62
3, 540720, Note_on_c, 0, 59, 0
3, 540840, Note_on_c, 0, 60, 64
3, 540960, Note_on_c, 0, 60, 0
3, 541080, Note_on_c, 0, 62, 67
3, 541200, Note_on_c, 0, 62, 0
3, 541320, Note_on_c, 0, 63, 69
3, 541440, Note_on_c, 0, 63, 0
3, 541560, Note_on_c, 0, 67, 72
3, 541680, Note_on_c, 0, 67, 0
3, 541800, Note_on_c, 0, 69, 74
3, 541920, Note_on_c, 0, 69, 0
3, 542040, Note_on_c, 0, 71, 77
3, 542172, Note_on_c, 0, 71, 0
3, 542280, Note_on_c, 0, 72, 81
3, 542400, Note_on_c, 0, 72, 0
3, 542520, Note_on_c, 0, 72, 85
3, 542640, Note_on_c, 0, 72, 0
3, 542640, Note_on_c, 0, 70, 87
3, 542760, Note_on_c, 0, 70, 0
3, 542880, Note_on_c, 0, 69, 101
3, 542880, Note_on_c, 0, 66, 101
3, 543000, Note_on_c, 0, 66, 0
3, 543000, Note_on_c, 0, 69, 0
3, 543120, Note_on_c, 0, 70, 105
3, 543120, Note_on_c, 0, 67, 105
3, 543240, Note_on_c, 0, 67, 0
3, 543240, Note_on_c, 0, 70, 0
3, 543720, Note_on_c, 0, 55, 63
3, 543840, Note_on_c, 0, 55, 0
3, 543960, Note_on_c, 0, 55, 66
3, 544080, Note_on_c, 0, 55, 0
3, 544200, Note_on_c, 0, 55, 69
3, 544320, Note_on_c, 0, 55, 0
3, 544440, Note_on_c, 0, 59, 72
3, 544560, Note_on_c, 0, 59, 0
3, 544680, Note_on_c, 0, 60, 75
3, 544800, Note_on_c, 0, 60, 0
3, 544920, Note_on_c, 0, 62, 78
3, 545040, Note_on_c, 0, 62, 0
3, 545160, Note_on_c, 0, 63, 81
3, 545280, Note_on_c, 0, 63, 0
3, 545400, Note_on_c, 0, 67, 84
3, 545520, Note_on_c, 0, 67, 0
3, 545640, Note_on_c, 0, 69, 87
3, 545760, Note_on_c, 0, 69, 0
3, 545880, Note_on_c, 0, 71, 90
3, 546000, Note_on_c, 0, 71, 0
3, 546120, Note_on_c, 0, 72, 95
3, 546240, Note_on_c, 0, 72, 0
3, 546360, Note_on_c, 0, 72, 100
3, 546480, Note_on_c, 0, 72, 0
3, 546480, Note_on_c, 0, 70, 102
3, 546600, Note_on_c, 0, 70, 0
3, 546720, Note_on_c, 0, 66, 111
3, 546720, Note_on_c, 0, 69, 111
3, 546840, Note_on_c, 0, 69, 0
3, 546840, Note_on_c, 0, 66, 0
3, 546960, Note_on_c, 0, 70, 115
3, 546960, Note_on_c, 0, 67, 115
3, 547080, Note_on_c, 0, 67, 0
3, 547080, Note_on_c, 0, 70, 0
3, 547440, Control_c, 0, 64, 0
3, 547560, Note_on_c, 0, 55, 54
3, 547680, Note_on_c, 0, 55, 0
3, 547800, Note_on_c, 0, 55, 57
3, 547920, Note_on_c, 0, 55, 0
3, 548040, Note_on_c, 0, 55, 59
3, 548160, Note_on_c, 0, 55, 0
3, 548280, Note_on_c, 0, 59, 62
3, 548400, Note_on_c, 0, 59, 0
3, 548520, Note_on_c, 0, 60, 64
3, 548640, Note_on_c, 0, 60, 0
3, 548760, Note_on_c, 0, 62, 67
3, 548880, Note_on_c, 0, 62, 0
3, 549000, Note_on_c, 0, 63, 69
3, 549120, Note_on_c, 0, 63, 0
3, 549240, Note_on_c, 0, 67, 72
3, 549360, Note_on_c, 0, 67, 0
3, 549480, Note_on_c, 0, 69, 74
3, 549600, Note_on_c, 0, 69, 0
3, 549720, Note_on_c, 0, 71, 77
3, 549852, Note_on_c, 0, 71, 0
3, 549960, Note_on_c, 0, 72, 81
3, 550080, Note_on_c, 0, 72, 0
3, 550200, Note_on_c, 0, 72, 85
3, 550320, Note_on_c, 0, 72, 0
3, 550320, Note_on_c, 0, 70, 87
3, 550440, Note_on_c, 0, 70, 0
3, 550560, Note_on_c, 0, 66, 101
3, 550560, Note_on_c, 0, 69, 101
3, 550680, Note_on_c, 0, 69, 0
3, 550680, Note_on_c, 0, 66, 0
3, 550800, Note_on_c, 0, 67, 105
3, 550800, Note_on_c, 0, 70, 105
3, 550920, Note_on_c, 0, 70, 0
3, 550920, Note_on_c, 0, 67, 0
3, 551400, Note_on_c, 0, 55, 63
3, 551520, Note_on_c, 0, 55, 0
3, 551640, Note_on_c, 0, 55, 66
3, 551760, Note_on_c, 0, 55, 0
3, 551880, Note_on_c, 0, 55, 69
3, 552000, Note_on_c, 0, 55, 0
3, 552120, Note_on_c, 0, 59, 72
3, 552240, Note_on_c, 0, 59, 0
3, 552360, Note_on_c, 0, 60, 75
3, 552480, Note_on_c, 0, 60, 0
3, 552600, Note_on_c, 0, 62, 78
3, 552720, Note_on_c, 0, 62, 0
3, 552840, Note_on_c, 0, 63, 81
3, 552960, Note_on_c, 0, 63, 0
3, 553080, Note_on_c, 0, 67, 84
3, 553200, Note_on_c, 0, 67, 0
3, 553320, Note_on_c, 0, 69, 87
3, 553440, Note_on_c, 0, 69, 0
3, 553560, Note_on_c, 0, 71, 90
3, 553680, Note_on_c, 0, 71, 0
3, 553800, Note_on_c, 0, 72, 95
3, 553920, Note_on_c, 0, 72, 0
3, 554040, Note_on_c, 0, 72, 100
3, 554160, Note_on_c, 0, 72, 0
3, 554160, Note_on_c, 0, 70, 102
3, 554280, Note_on_c, 0, 70, 0
3, 554400, Note_on_c, 0, 69, 111
3, 554400, Note_on_c, 0, 66, 111
3, 554520, Note_on_c, 0, 66, 0
3, 554520, Note_on_c, 0, 69, 0
3, 554640, Note_on_c, 0, 67, 115
3, 554640, Note_on_c, 0, 70, 115
3, 554760, Note_on_c, 0, 70, 0
3, 554760, Note_on_c, 0, 67, 0
3, 555120, Control_c, 0, 64, 0
3, 555240, Note_on_c, 0, 67, 78
3, 555360, Note_on_c, 0, 67, 0
3, 555480, Note_on_c, 0, 67, 78
3, 555600, Note_on_c, 0, 67, 0
3, 555720, Note_on_c, 0, 67, 77
3, 555840, Note_on_c, 0, 67, 0
3, 555960, Note_on_c, 0, 69, 76
3, 556080, Note_on_c, 0, 69, 0
3, 556200, Note_on_c, 0, 71, 76
3, 556320, Note_on_c, 0, 71, 0
3, 556320, Note_on_c, 0, 65, 88
3, 556320, Note_on_c, 0, 69, 88
3, 556440, Note_on_c, 0, 69, 0
3, 556440, Note_on_c, 0, 65, 0
3, 556560, Note_on_c, 0, 67, 95
3, 556560, Note_on_c, 0, 70, 95
3, 556560, Note_on_c, 0, 74, 95
3, 556680, Note_on_c, 0, 74, 0
3, 556680, Note_on_c, 0, 70, 0
3, 556680, Note_on_c, 0, 67, 0
3, 557160, Note_on_c, 0, 67, 73
3, 557280, Note_on_c, 0, 67, 0
3, 557400, Note_on_c, 0, 67, 72
3, 557520, Note_on_c, 0, 67, 0
3, 557640, Note_on_c, 0, 67, 71
3, 557760, Note_on_c, 0, 67, 0
3, 557880, Note_on_c, 0, 67, 71
3, 558000, Note_on_c, 0, 67, 0
3, 558120, Note_on_c, 0, 67, 70
3, 558240, Note_on_c, 0, 67, 0
3, 558240, Note_on_c, 0, 67, 83
3, 558240, Note_on_c, 0, 70, 83
3, 558360, Note_on_c, 0, 70, 0
3, 558360, Note_on_c, 0, 67, 0
3, 558480, Note_on_c, 0, 65, 88
3, 558480, Note_on_c, 0, 68, 88
3, 558600, Note_on_c, 0, 68, 0
3, 558600, Note_on_c, 0, 65, 0
3, 558960, Note_on_c, 0, 68, 68
3, 559080, Note_on_c, 0, 65, 67
3, 559188, Note_on_c, 0, 68, 0
3, 559200, Note_on_c, 0, 65, 0
3, 559200, Note_on_c, 0, 68, 67
3, 559320, Note_on_c, 0, 65, 67
3, 559428, Note_on_c, 0, 68, 0
3, 559440, Note_on_c, 0, 65, 0
3, 559440, Note_on_c, 0, 68, 66
3, 559560, Note_on_c, 0, 65, 66
3, 559668, Note_on_c, 0, 68, 0
3, 559680, Note_on_c, 0, 65, 0
3, 559800, Note_on_c, 0, 67, 65
3, 559920, Note_on_c, 0, 67, 0
3, 560040, Note_on_c, 0, 68, 64
3, 560160, Note_on_c, 0, 68, 0
3, 560160, Note_on_c, 0, 67, 79
3, 560160, Note_on_c, 0, 70, 79
3, 560280, Note_on_c, 0, 70, 0
3, 560280, Note_on_c, 0, 67, 0
3, 560400, Note_on_c, 0, 65, 84
3, 560400, Note_on_c, 0, 68, 84
3, 560520, Note_on_c, 0, 68, 0
3, 560520, Note_on_c, 0, 65, 0
3, 561000, Note_on_c, 0, 65, 62
3, 561120, Note_on_c, 0, 65, 0
3, 561240, Note_on_c, 0, 65, 61
3, 561360, Note_on_c, 0, 65, 0
3, 561480, Note_on_c, 0, 65, 60
3, 561600, Note_on_c, 0, 65, 0
3, 561720, Note_on_c, 0, 65, 59
3, 561840, Note_on_c, 0, 65, 0
3, 562080, Note_on_c, 0, 65, 69
3, 562080, Note_on_c, 0, 68, 69
3, 562200, Note_on_c, 0, 68, 0
3, 562200, Note_on_c, 0, 65, 0
3, 562320, Note_on_c, 0, 63, 73
3, 562320, Note_on_c, 0, 67, 73
3, 562440, Note_on_c, 0, 67, 0
3, 562440, Note_on_c, 0, 63, 0
3, 562920, Note_on_c, 0, 63, 59
3, 563040, Note_on_c, 0, 63, 0
3, 563160, Note_on_c, 0, 63, 60
3, 563280, Note_on_c, 0, 63, 0
3, 563400, Note_on_c, 0, 63, 62
3, 563520, Note_on_c, 0, 63, 0
3, 563640, Note_on_c, 0, 65, 64
3, 563760, Note_on_c, 0, 65, 0
3, 563880, Note_on_c, 0, 66, 65
3, 564000, Note_on_c, 0, 66, 0
3, 564120, Note_on_c, 0, 67, 67
3, 564240, Note_on_c, 0, 67, 0
3, 564360, Note_on_c, 0, 68, 69
3, 564480, Note_on_c, 0, 68, 0
3, 564600, Note_on_c, 0, 69, 70
3, 564720, Note_on_c, 0, 69, 0
3, 564840, Note_on_c, 0, 70, 72
3, 564960, Note_on_c, 0, 70, 0
3, 565080, Note_on_c, 0, 71, 75
3, 565200, Note_on_c, 0, 71, 0
3, 565320, Note_on_c, 0, 72, 77
3, 565428, Note_on_c, 0, 72, 0
3, 565560, Note_on_c, 0, 71, 79
3, 565680, Note_on_c, 0, 71, 0
3, 565800, Note_on_c, 0, 72, 81
3, 565908, Note_on_c, 0, 72, 0
3, 566040, Note_on_c, 0, 71, 83
3, 566160, Note_on_c, 0, 71, 0
3, 566280, Note_on_c, 0, 72, 85
3, 566388, Note_on_c, 0, 72, 0
3, 566520, Note_on_c, 0, 71, 83
3, 566640, Note_on_c, 0, 71, 0
3, 566760, Note_on_c, 0, 72, 77
3, 566880, Note_on_c, 0, 72, 0
3, 567000, Note_on_c, 0, 69, 74
3, 567120, Note_on_c, 0, 69, 0
3, 567240, Note_on_c, 0, 70, 71
3, 567360, Note_on_c, 0, 70, 0
3, 567480, Note_on_c, 0, 67, 68
3, 567600, Note_on_c, 0, 67, 0
3, 567720, Note_on_c, 0, 68, 68
3, 567840, Note_on_c, 0, 68, 0
3, 567960, Note_on_c, 0, 65, 67
3, 568080, Note_on_c, 0, 65, 0
3, 568200, Note_on_c, 0, 67, 66
3, 568320, Note_on_c, 0, 67, 0
3, 568440, Note_on_c, 0, 64, 66
3, 568560, Note_on_c, 0, 64, 0
3, 568680, Note_on_c, 0, 65, 65
3, 568800, Note_on_c, 0, 65, 0
3, 568920, Note_on_c, 0, 62, 64
3, 569040, Note_on_c, 0, 62, 0
3, 569160, Note_on_c, 0, 63, 64
3, 569280, Note_on_c, 0, 63, 0
3, 569280, Note_on_c, 0, 62, 63
3, 569400, Note_on_c, 0, 62, 0
3, 569400, Note_on_c, 0, 63, 63
3, 569520, Note_on_c, 0, 63, 0
3, 569640, Note_on_c, 0, 63, 64
3, 569760, Note_on_c, 0, 63, 0
3, 569880, Note_on_c, 0, 63, 66
3, 570000, Note_on_c, 0, 63, 0
3, 570120, Note_on_c, 0, 63, 67
3, 570240, Note_on_c, 0, 63, 0
3, 570360, Note_on_c, 0, 63, 69
3, 570480, Note_on_c, 0, 63, 0
3, 570600, Note_on_c, 0, 63, 71
3, 570720, Note_on_c, 0, 63, 0
3, 570840, Note_on_c, 0, 63, 72
3, 570960, Note_on_c, 0, 63, 0
3, 571080, Note_on_c, 0, 63, 74
3, 571200, Note_on_c, 0, 63, 0
3, 571200, Note_on_c, 0, 67, 75
3, 571320, Note_on_c, 0, 63, 76
3, 571430, Note_on_c, 0, 67, 0
3, 571440, Note_on_c, 0, 63, 0
3, 571440, Note_on_c, 0, 68, 76
3, 571560, Note_on_c, 0, 63, 77
3, 571670, Note_on_c, 0, 68, 0
3, 571680, Note_on_c, 0, 63, 0
3, 571680, Note_on_c, 0, 68, 78
3, 571680, Note_on_c, 0, 72, 78
3, 571800, Note_on_c, 0, 63, 79
3, 571910, Note_on_c, 0, 68, 0
3, 571920, Note_on_c, 0, 63, 0
3, 571920, Note_on_c, 0, 70, 80
3, 571920, Note_on_c, 0, 67, 80
3, 571928, Note_on_c, 0, 72, 0
3, 572040, Note_on_c, 0, 63, 81
3, 572150, Note_on_c, 0, 67, 0
3, 572150, Note_on_c, 0, 70, 0
3, 572160, Note_on_c, 0, 63, 0
3, 572160, Note_on_c, 0, 67, 81
3, 572160, Note_on_c, 0, 70, 81
3, 572280, Note_on_c, 0, 63, 82
3, 572340, Note_on_c, 0, 70, 0
3, 572345, Note_on_c, 0, 67, 0
3, 572350, Note_on_c, 0, 63, 0
3, 572520, Note_on_c, 0, 75, 65
3, 572647, Note_on_c, 0, 75, 0
3, 572760, Note_on_c, 0, 77, 66
3, 572869, Note_on_c, 0, 77, 0
3, 573000, Note_on_c, 0, 73, 67
3, 573109, Note_on_c, 0, 73, 0
3, 573240, Note_on_c, 0, 75, 68
3, 573349, Note_on_c, 0, 75, 0
3, 573480, Note_on_c, 0, 72, 69
3, 573600, Note_on_c, 0, 72, 0
3, 573720, Note_on_c, 0, 73, 70
3, 573824, Note_on_c, 0, 73, 0
3, 573960, Note_on_c, 0, 70, 71
3, 574080, Note_on_c, 0, 70, 0
3, 574200, Note_on_c, 0, 72, 72
3, 574320, Note_on_c, 0, 72, 0
3, 574440, Note_on_c, 0, 68, 73
3, 574560, Note_on_c, 0, 68, 0
3, 574680, Note_on_c, 0, 70, 74
3, 574800, Note_on_c, 0, 70, 0
3, 575280, Note_on_c, 0, 73, 75
3, 575520, Note_on_c, 0, 73, 0
3, 575520, Note_on_c, 0, 72, 77
3, 575760, Note_on_c, 0, 72, 0
3, 575760, Note_on_c, 0, 70, 78
3, 576000, Note_on_c, 0, 70, 0
3, 576000, Note_on_c, 0, 68, 80
3, 576240, Note_on_c, 0, 68, 0
3, 576240, Note_on_c, 0, 67, 82
3, 576480, Note_on_c, 0, 67, 0
3, 576480, Note_on_c, 0, 65, 84
3, 576720, Note_on_c, 0, 65, 0
3, 576960, Note_on_c, 0, 72, 87
3, 576960, Note_on_c, 0, 68, 87
3, 577080, Note_on_c, 0, 68, 0
3, 577080, Note_on_c, 0, 72, 0
3, 577200, Note_on_c, 0, 73, 89
3, 577200, Note_on_c, 0, 70, 89
3, 577320, Note_on_c, 0, 70, 0
3, 577320, Note_on_c, 0, 73, 0
3, 577440, Note_on_c, 0, 70, 91
3, 577440, Note_on_c, 0, 67, 91
3, 577560, Note_on_c, 0, 67, 0
3, 577560, Note_on_c, 0, 70, 0
3, 577680, Note_on_c, 0, 68, 92
3, 577680, Note_on_c, 0, 72, 92
3, 577800, Note_on_c, 0, 72, 0
3, 577800, Note_on_c, 0, 68, 0
3, 578280, Note_on_c, 0, 72, 81
3, 578400, Note_on_c, 0, 72, 0
3, 578520, Note_on_c, 0, 72, 81
3, 578640, Note_on_c, 0, 72, 0
3, 578760, Note_on_c, 0, 72, 82
3, 578880, Note_on_c, 0, 72, 0
3, 579000, Note_on_c, 0, 72, 82
3, 579120, Note_on_c, 0, 72, 0
3, 579240, Note_on_c, 0, 72, 82
3, 579360, Note_on_c, 0, 72, 0
3, 579480, Note_on_c, 0, 72, 83
3, 579600, Note_on_c, 0, 72, 0
3, 579720, Note_on_c, 0, 72, 83
3, 579840, Note_on_c, 0, 72, 0
3, 579960, Note_on_c, 0, 72, 84
3, 580080, Note_on_c, 0, 72, 0
3, 582120, Note_on_c, 0, 75, 87
3, 582240, Note_on_c, 0, 75, 0
3, 582360, Note_on_c, 0, 75, 87
3, 582480, Note_on_c, 0, 75, 0
3, 582600, Note_on_c, 0, 75, 88
3, 582720, Note_on_c, 0, 75, 0
3, 582840, Note_on_c, 0, 75, 88
3, 582960, Note_on_c, 0, 75, 0
3, 583080, Note_on_c, 0, 75, 88
3, 583200, Note_on_c, 0, 75, 0
3, 583320, Note_on_c, 0, 75, 89
3, 583440, Note_on_c, 0, 75, 0
3, 583560, Note_on_c, 0, 75, 89
3, 583680, Note_on_c, 0, 75, 0
3, 583680, Note_on_c, 0, 63, 89
3, 583800, Note_on_c, 0, 75, 90
3, 583899, Note_on_c, 0, 63, 0
3, 583920, Note_on_c, 0, 75, 0
3, 583920, Note_on_c, 0, 67, 90
3, 584040, Note_on_c, 0, 75, 90
3, 584139, Note_on_c, 0, 67, 0
3, 584160, Note_on_c, 0, 75, 0
3, 584160, Note_on_c, 0, 68, 90
3, 584280, Note_on_c, 0, 75, 90
3, 584379, Note_on_c, 0, 68, 0
3, 584400, Note_on_c, 0, 75, 0
3, 584400, Note_on_c, 0, 65, 91
3, 584520, Note_on_c, 0, 75, 91
3, 584619, Note_on_c, 0, 65, 0
3, 584640, Note_on_c, 0, 75, 0
3, 584640, Note_on_c, 0, 65, 91
3, 584760, Note_on_c, 0, 73, 91
3, 584859, Note_on_c, 0, 65, 0
3, 584880, Note_on_c, 0, 73, 0
3, 584880, Note_on_c, 0, 63, 91
3, 585000, Note_on_c, 0, 72, 91
3, 585099, Note_on_c, 0, 63, 0
3, 585120, Note_on_c, 0, 72, 0
3, 585120, Note_on_c, 0, 61, 92
3, 585240, Note_on_c, 0, 70, 92
3, 585339, Note_on_c, 0, 61, 0
3, 585360, Note_on_c, 0, 70, 0
3, 585360, Note_on_c, 0, 60, 92
3, 585480, Note_on_c, 0, 60, 0
3, 585840, Note_on_c, 0, 70, 89
3, 586080, Note_on_c, 0, 70, 0
3, 586080, Note_on_c, 0, 67, 89
3, 586320, Note_on_c, 0, 67, 0
3, 586320, Note_on_c, 0, 64, 90
3, 586560, Note_on_c, 0, 64, 0
3, 586800, Note_on_c, 0, 62, 91
3, 587040, Note_on_c, 0, 62, 0
3, 587040, Note_on_c, 0, 64, 92
3, 587280, Note_on_c, 0, 64, 0
3, 587280, Note_on_c, 0, 65, 92
3, 587520, Note_on_c, 0, 65, 0
3, 587520, Note_on_c, 0, 68, 93
3, 587760, Note_on_c, 0, 68, 0
3, 587880, Note_on_c, 0, 82, 94
3, 588000, Note_on_c, 0, 82, 0
3, 588120, Note_on_c, 0, 82, 94
3, 588240, Note_on_c, 0, 82, 0
3, 588360, Note_on_c, 0, 82, 95
3, 588480, Note_on_c, 0, 82, 0
3, 588600, Note_on_c, 0, 82, 95
3, 588720, Note_on_c, 0, 82, 0
3, 588840, Note_on_c, 0, 82, 96
3, 588960, Note_on_c, 0, 82, 0
3, 589080, Note_on_c, 0, 82, 97
3, 589200, Note_on_c, 0, 82, 0
3, 589320, Note_on_c, 0, 82, 97
3, 589440, Note_on_c, 0, 82, 0
3, 589560, Note_on_c, 0, 82, 98
3, 589680, Note_on_c, 0, 82, 0
3, 589680, Note_on_c, 0, 73, 98
3, 589920, Note_on_c, 0, 73, 0
3, 589920, Note_on_c, 0, 70, 98
3, 590160, Note_on_c, 0, 70, 0
3, 590160, Note_on_c, 0, 67, 99
3, 590400, Note_on_c, 0, 67, 0
3, 590400, Note_on_c, 0, 63, 101
3, 590640, Note_on_c, 0, 63, 0
3, 590640, Note_on_c, 0, 65, 102
3, 590880, Note_on_c, 0, 65, 0
3, 590880, Note_on_c, 0, 67, 103
3, 591120, Note_on_c, 0, 67, 0
3, 591120, Note_on_c, 0, 68, 104
3, 591360, Note_on_c, 0, 68, 0
3, 591360, Note_on_c, 0, 80, 105
3, 591360, Note_on_c, 0, 84, 105
3, 591360, Note_on_c, 0, 75, 105
3, 591579, Note_on_c, 0, 75, 0
3, 591579, Note_on_c, 0, 84, 0
3, 591579, Note_on_c, 0, 80, 0
3, 591600, Note_on_c, 0, 75, 107
3, 591600, Note_on_c, 0, 82, 107
3, 591600, Note_on_c, 0, 85, 107
3, 591819, Note_on_c, 0, 85, 0
3, 591819, Note_on_c, 0, 82, 0
3, 591819, Note_on_c, 0, 75, 0
3, 591840, Note_on_c, 0, 75, 108
3, 591840, Note_on_c, 0, 80, 108
3, 591840, Note_on_c, 0, 84, 108
3, 592059, Note_on_c, 0, 84, 0
3, 592059, Note_on_c, 0, 80, 0
3, 592059, Note_on_c, 0, 75, 0
3, 592080, Note_on_c, 0, 75, 109
3, 592080, Note_on_c, 0, 84, 109
3, 592299, Note_on_c, 0, 84, 0
3, 592299, Note_on_c, 0, 75, 0
3, 592320, Note_on_c, 0, 82, 110
3, 592320, Note_on_c, 0, 73, 110
3, 592539, Note_on_c, 0, 73, 0
3, 592539, Note_on_c, 0, 82, 0
3, 592560, Note_on_c, 0, 80, 112
3, 592560, Note_on_c, 0, 72, 112
3, 592779, Note_on_c, 0, 72, 0
3, 592779, Note_on_c, 0, 80, 0
3, 592800, Note_on_c, 0, 70, 113
3, 592800, Note_on_c, 0, 79, 113
3, 593019, Note_on_c, 0, 79, 0
3, 593019, Note_on_c, 0, 70, 0
3, 593040, Note_on_c, 0, 72, 114
3, 593160, Note_on_c, 0, 72, 0
3, 593640, Note_on_c, 0, 72, 108
3, 593760, Note_on_c, 0, 72, 0
3, 593880, Note_on_c, 0, 73, 108
3, 594000, Note_on_c, 0, 73, 0
3, 594120, Note_on_c, 0, 70, 108
3, 594240, Note_on_c, 0, 70, 0
3, 594360, Note_on_c, 0, 72, 107
3, 594480, Note_on_c, 0, 72, 0
3, 594600, Note_on_c, 0, 68, 107
3, 594720, Note_on_c, 0, 68, 0
3, 594840, Note_on_c, 0, 70, 107
3, 594960, Note_on_c, 0, 70, 0
3, 595200, Note_on_c, 0, 67, 121
3, 595200, Note_on_c, 0, 75, 121
3, 595200, Note_on_c, 0, 70, 121
3, 595320, Note_on_c, 0, 70, 0
3, 595320, Note_on_c, 0, 75, 0
3, 595320, Note_on_c, 0, 67, 0
3, 595560, Note_on_c, 0, 75, 106
3, 595680, Note_on_c, 0, 75, 0
3, 595800, Note_on_c, 0, 72, 105
3, 595920, Note_on_c, 0, 72, 0
3, 596040, Note_on_c, 0, 74, 105
3, 596160, Note_on_c, 0, 74, 0
3, 596280, Note_on_c, 0, 71, 105
3, 596400, Note_on_c, 0, 71, 0
3, 596520, Note_on_c, 0, 72, 105
3, 596640, Note_on_c, 0, 72, 0
3, 596760, Note_on_c, 0, 69, 104
3, 596880, Note_on_c, 0, 69, 0
3, 597120, Note_on_c, 0, 70, 119
3, 597120, Note_on_c, 0, 73, 119
3, 597240, Note_on_c, 0, 73, 0
3, 597240, Note_on_c, 0, 70, 0
3, 597480, Note_on_c, 0, 73, 103
3, 597600, Note_on_c, 0, 73, 0
3, 597720, Note_on_c, 0, 75, 103
3, 597840, Note_on_c, 0, 75, 0
3, 597960, Note_on_c, 0, 72, 103
3, 598080, Note_on_c, 0, 72, 0
3, 598200, Note_on_c, 0, 73, 102
3, 598320, Note_on_c, 0, 73, 0
3, 598440, Note_on_c, 0, 70, 102
3, 598560, Note_on_c, 0, 70, 0
3, 598680, Note_on_c, 0, 72, 102
3, 598800, Note_on_c, 0, 72, 0
3, 599040, Note_on_c, 0, 77, 116
3, 599040, Note_on_c, 0, 72, 116
3, 599040, Note_on_c, 0, 68, 116
3, 599160, Note_on_c, 0, 68, 0
3, 599160, Note_on_c, 0, 72, 0
3, 599160, Note_on_c, 0, 77, 0
3, 599400, Note_on_c, 0, 77, 101
3, 599520, Note_on_c, 0, 77, 0
3, 599640, Note_on_c, 0, 74, 101
3, 599760, Note_on_c, 0, 74, 0
3, 599880, Note_on_c, 0, 75, 100
3, 600000, Note_on_c, 0, 75, 0
3, 600120, Note_on_c, 0, 72, 100
3, 600240, Note_on_c, 0, 72, 0
3, 600360, Note_on_c, 0, 74, 100
3, 600480, Note_on_c, 0, 74, 0
3, 600600, Note_on_c, 0, 71, 99
3, 600720, Note_on_c, 0, 71, 0
3, 600960, Note_on_c, 0, 72, 115
3, 600960, Note_on_c, 0, 77, 115
3, 600960, Note_on_c, 0, 75, 115
3, 601080, Note_on_c, 0, 75, 0
3, 601080, Note_on_c, 0, 77, 0
3, 601080, Note_on_c, 0, 72, 0
3, 601440, Note_on_c, 0, 70, 115
3, 601440, Note_on_c, 0, 75, 115
3, 601440, Note_on_c, 0, 73, 115
3, 601560, Note_on_c, 0, 73, 0
3, 601560, Note_on_c, 0, 75, 0
3, 601560, Note_on_c, 0, 70, 0
3, 601920, Note_on_c, 0, 75, 114
3, 601920, Note_on_c, 0, 73, 114
3, 601920, Note_on_c, 0, 70, 114
3, 602040, Note_on_c, 0, 70, 0
3, 602040, Note_on_c, 0, 73, 0
3, 602040, Note_on_c, 0, 75, 0
3, 602400, Note_on_c, 0, 68, 113
3, 602400, Note_on_c, 0, 75, 113
3, 602400, Note_on_c, 0, 72, 113
3, 602520, Note_on_c, 0, 72, 0
3, 602520, Note_on_c, 0, 75, 0
3, 602520, Note_on_c, 0, 68, 0
3, 602880, Note_on_c, 0, 67, 115
3, 602880, Note_on_c, 0, 70, 115
3, 602880, Note_on_c, 0, 75, 115
3, 603000, Note_on_c, 0, 75, 0
3, 603000, Note_on_c, 0, 70, 0
3, 603000, Note_on_c, 0, 67, 0
3, 603360, Note_on_c, 0, 63, 76
3, 603480, Note_on_c, 0, 63, 0
3, 603840, Note_on_c, 0, 67, 75
3, 603960, Note_on_c, 0, 67, 0
3, 604320, Note_on_c, 0, 70, 73
3, 604440, Note_on_c, 0, 70, 0
3, 604560, Note_on_c, 0, 67, 72
3, 604680, Note_on_c, 0, 67, 0
3, 604800, Note_on_c, 0, 63, 71
3, 604920, Note_on_c, 0, 63, 0
3, 605280, Note_on_c, 0, 63, 70
3, 605400, Note_on_c, 0, 63, 0
3, 605760, Note_on_c, 0, 67, 68
3, 605880, Note_on_c, 0, 67, 0
3, 606240, Note_on_c, 0, 70, 66
3, 606360, Note_on_c, 0, 70, 0
3, 606480, Note_on_c, 0, 67, 65
3, 606600, Note_on_c, 0, 67, 0
3, 606720, Note_on_c, 0, 63, 64
3, 606840, Note_on_c, 0, 63, 0
3, 607080, Note_on_c, 0, 86, 64
3, 607200, Note_on_c, 0, 86, 0
3, 607320, Note_on_c, 0, 87, 66
3, 607440, Note_on_c, 0, 87, 0
3, 607560, Note_on_c, 0, 85, 67
3, 607665, Note_on_c, 0, 85, 0
3, 607800, Note_on_c, 0, 87, 69
3, 607927, Note_on_c, 0, 87, 0
3, 608040, Note_on_c, 0, 85, 71
3, 608167, Note_on_c, 0, 85, 0
3, 608280, Note_on_c, 0, 87, 73
3, 608407, Note_on_c, 0, 87, 0
3, 608520, Note_on_c, 0, 85, 75
3, 608640, Note_on_c, 0, 85, 0
3, 608760, Note_on_c, 0, 87, 77
3, 608887, Note_on_c, 0, 87, 0
3, 609000, Note_on_c, 0, 85, 79
3, 609120, Note_on_c, 0, 85, 0
3, 609240, Note_on_c, 0, 87, 81
3, 609367, Note_on_c, 0, 87, 0
3, 609480, Note_on_c, 0, 85, 83
3, 609607, Note_on_c, 0, 85, 0
3, 609720, Note_on_c, 0, 87, 84
3, 609840, Note_on_c, 0, 87, 0
3, 609960, Note_on_c, 0, 85, 86
3, 610087, Note_on_c, 0, 85, 0
3, 610200, Note_on_c, 0, 87, 88
3, 610320, Note_on_c, 0, 87, 0
3, 610440, Note_on_c, 0, 85, 90
3, 610567, Note_on_c, 0, 85, 0
3, 610680, Note_on_c, 0, 87, 92
3, 610800, Note_on_c, 0, 87, 0
3, 610920, Note_on_c, 0, 85, 94
3, 611040, Note_on_c, 0, 85, 0
3, 611160, Note_on_c, 0, 87, 96
3, 611287, Note_on_c, 0, 87, 0
3, 611400, Note_on_c, 0, 85, 98
3, 611512, Note_on_c, 0, 85, 0
3, 611640, Note_on_c, 0, 87, 100
3, 611767, Note_on_c, 0, 87, 0
3, 611880, Note_on_c, 0, 85, 102
3, 612007, Note_on_c, 0, 85, 0
3, 612120, Note_on_c, 0, 87, 104
3, 612247, Note_on_c, 0, 87, 0
3, 618600, Note_on_c, 0, 77, 67
3, 618720, Note_on_c, 0, 77, 0
3, 618840, Note_on_c, 0, 74, 73
3, 618960, Note_on_c, 0, 74, 0
3, 619080, Note_on_c, 0, 75, 80
3, 619200, Note_on_c, 0, 75, 0
3, 619320, Note_on_c, 0, 72, 86
3, 619440, Note_on_c, 0, 72, 0
3, 619560, Note_on_c, 0, 73, 92
3, 619680, Note_on_c, 0, 73, 0
3, 619800, Note_on_c, 0, 70, 96
3, 619920, Note_on_c, 0, 70, 0
3, 619920, Note_on_c, 0, 75, 90
3, 620040, Note_on_c, 0, 75, 0
3, 620040, Note_on_c, 0, 69, 83
3, 620160, Note_on_c, 0, 69, 0
3, 620160, Note_on_c, 0, 73, 76
3, 620280, Note_on_c, 0, 73, 0
3, 620280, Note_on_c, 0, 70, 69
3, 620400, Note_on_c, 0, 70, 0
3, 620520, Note_on_c, 0, 70, 70
3, 620640, Note_on_c, 0, 70, 0
3, 620760, Note_on_c, 0, 67, 70
3, 620880, Note_on_c, 0, 67, 0
3, 621000, Note_on_c, 0, 67, 69
3, 621120, Note_on_c, 0, 67, 0
3, 621240, Note_on_c, 0, 64, 69
3, 621360, Note_on_c, 0, 64, 0
3, 621480, Note_on_c, 0, 64, 68
3, 621600, Note_on_c, 0, 64, 0
3, 621720, Note_on_c, 0, 61, 68
3, 621840, Note_on_c, 0, 61, 0
3, 621960, Note_on_c, 0, 63, 67
3, 622080, Note_on_c, 0, 63, 0
3, 622200, Note_on_c, 0, 60, 67
3, 622320, Note_on_c, 0, 60, 0
3, 622440, Note_on_c, 0, 65, 72
3, 622560, Note_on_c, 0, 65, 0
3, 622680, Note_on_c, 0, 62, 76
3, 622800, Note_on_c, 0, 62, 0
3, 622920, Note_on_c, 0, 63, 81
3, 623040, Note_on_c, 0, 63, 0
3, 623160, Note_on_c, 0, 60, 85
3, 623280, Note_on_c, 0, 60, 0
3, 623400, Note_on_c, 0, 61, 90
3, 623520, Note_on_c, 0, 61, 0
3, 623640, Note_on_c, 0, 58, 94
3, 623760, Note_on_c, 0, 58, 0
3, 623760, Note_on_c, 0, 63, 88
3, 623880, Note_on_c, 0, 63, 0
3, 623880, Note_on_c, 0, 57, 82
3, 624000, Note_on_c, 0, 57, 0
3, 624000, Note_on_c, 0, 61, 77
3, 624120, Note_on_c, 0, 61, 0
3, 624120, Note_on_c, 0, 58, 71
3, 624240, Note_on_c, 0, 58, 0
3, 624360, Note_on_c, 0, 58, 64
3, 624480, Note_on_c, 0, 58, 0
3, 624600, Note_on_c, 0, 55, 64
3, 624720, Note_on_c, 0, 55, 0
3, 624840, Note_on_c, 0, 55, 63
3, 624960, Note_on_c, 0, 55, 0
3, 625080, Note_on_c, 0, 52, 62
3, 625200, Note_on_c, 0, 52, 0
3, 625320, Note_on_c, 0, 52, 62
3, 625440, Note_on_c, 0, 52, 0
3, 625560, Note_on_c, 0, 49, 61
3, 625680, Note_on_c, 0, 49, 0
3, 625800, Note_on_c, 0, 51, 60
3, 625920, Note_on_c, 0, 51, 0
3, 626040, Note_on_c, 0, 48, 60
3, 626160, Note_on_c, 0, 48, 0
3, 626160, Note_on_c, 0, 58, 59
3, 626280, Note_on_c, 0, 58, 0
3, 626400, Note_on_c, 0, 55, 58
3, 626520, Note_on_c, 0, 55, 0
3, 626760, Note_on_c, 0, 55, 58
3, 626880, Note_on_c, 0, 55, 0
3, 627000, Note_on_c, 0, 52, 57
3, 627120, Note_on_c, 0, 52, 0
3, 627240, Note_on_c, 0, 52, 57
3, 627360, Note_on_c, 0, 52, 0
3, 627480, Note_on_c, 0, 49, 56
3, 627600, Note_on_c, 0, 49, 0
3, 627720, Note_on_c, 0, 48, 55
3, 627840, Note_on_c, 0, 48, 0
3, 627960, Note_on_c, 0, 48, 55
3, 628080, Note_on_c, 0, 48, 0
3, 628200, Note_on_c, 0, 58, 54
3, 628320, Note_on_c, 0, 58, 0
3, 628440, Note_on_c, 0, 55, 53
3, 628560, Note_on_c, 0, 55, 0
3, 628680, Note_on_c, 0, 55, 53
3, 628800, Note_on_c, 0, 55, 0
3, 628920, Note_on_c, 0, 52, 52
3, 629040, Note_on_c, 0, 52, 0
3, 629160, Note_on_c, 0, 52, 51
3, 629280, Note_on_c, 0, 52, 0
3, 629400, Note_on_c, 0, 49, 51
3, 629520, Note_on_c, 0, 49, 0
3, 629640, Note_on_c, 0, 51, 50
3, 629760, Note_on_c, 0, 51, 0
3, 629880, Note_on_c, 0, 48, 49
3, 630000, Note_on_c, 0, 48, 0
3, 630120, Note_on_c, 0, 48, 49
3, 630240, Note_on_c, 0, 48, 0
3, 630360, Note_on_c, 0, 44, 48
3, 630480, Note_on_c, 0, 44, 0
3, 630600, Note_on_c, 0, 44, 47
3, 630720, Note_on_c, 0, 44, 0
3, 630840, Note_on_c, 0, 39, 47
3, 630960, Note_on_c, 0, 39, 0
3, 631080, Note_on_c, 0, 39, 46
3, 631200, Note_on_c, 0, 39, 0
3, 631320, Control_c, 0, 64, 127
3, 631320, Note_on_c, 0, 36, 45
3, 631440, Note_on_c, 0, 36, 0
3, 633360, Control_c, 0, 64, 0
3, 633360, End_track
4, 0, Start_track
4, 0, Title_t, "Piano"
4, 0, Program_c, 0, 0
4, 0, Control_c, 0, 7, 115
4, 0, Control_c, 0, 10, 64
4, 0, Control_c, 0, 91, 91
4, 0, Control_c, 0, 93, 28
4, 0, Sequencer_specific, 5, 5, 15, 9, 0, 64
4, 0, Sequencer_specific, 15, 5, 15, 6, 71, 101, 110, 101, 114, 97, 108, 32, 77, 73, 68, 73
4, 0, Program_c, 0, 0
4, 0, Pitch_bend_c, 0, 8192
4, 0, Control_c, 0, 1, 0
4, 0, Control_c, 0, 64, 0
4, 480, Note_on_c, 0, 51, 57
4, 665, Note_on_c, 0, 51, 0
4, 720, Note_on_c, 0, 51, 60
4, 960, Note_on_c, 0, 51, 0
4, 960, Note_on_c, 0, 56, 59
4, 1116, Note_on_c, 0, 56, 0
4, 1200, Note_on_c, 0, 56, 57
4, 1356, Note_on_c, 0, 56, 0
4, 1440, Note_on_c, 0, 56, 62
4, 1440, Note_on_c, 0, 51, 62
4, 1560, Note_on_c, 0, 56, 0
4, 1560, Note_on_c, 0, 55, 62
4, 1680, Note_on_c, 0, 55, 0
4, 1680, Note_on_c, 0, 55, 61
4, 1860, Note_on_c, 0, 55, 0
4, 1860, Note_on_c, 0, 53, 60
4, 1920, Note_on_c, 0, 53, 0
4, 1920, Note_on_c, 0, 55, 60
4, 2096, Note_on_c, 0, 51, 0
4, 2100, Note_on_c, 0, 55, 0
4, 2100, Note_on_c, 0, 51, 59
4, 2160, Note_on_c, 0, 51, 0
4, 2160, Note_on_c, 0, 56, 59
4, 2640, Note_on_c, 0, 56, 0
4, 2640, Note_on_c, 0, 51, 65
4, 2880, Note_on_c, 0, 51, 0
4, 2880, Note_on_c, 0, 51, 70
4, 3120, Note_on_c, 0, 51, 0
4, 3120, Note_on_c, 0, 51, 60
4, 3240, Note_on_c, 0, 51, 0
4, 6240, Note_on_c, 0, 51, 57
4, 6410, Note_on_c, 0, 51, 0
4, 6420, Note_on_c, 0, 51, 58
4, 6468, Note_on_c, 0, 51, 0
4, 6480, Note_on_c, 0, 51, 61
4, 6600, Note_on_c, 0, 51, 0
4, 6600, Note_on_c, 0, 56, 60
4, 6678, Note_on_c, 0, 56, 0
4, 6720, Note_on_c, 0, 56, 59
4, 6798, Note_on_c, 0, 56, 0
4, 6840, Note_on_c, 0, 56, 58
4, 6918, Note_on_c, 0, 56, 0
4, 6960, Note_on_c, 0, 56, 57
4, 7038, Note_on_c, 0, 56, 0
4, 7080, Note_on_c, 0, 56, 57
4, 7158, Note_on_c, 0, 56, 0
4, 7200, Note_on_c, 0, 51, 62
4, 7200, Note_on_c, 0, 56, 62
4, 7320, Note_on_c, 0, 56, 0
4, 7320, Note_on_c, 0, 55, 62
4, 7440, Note_on_c, 0, 55, 0
4, 7440, Note_on_c, 0, 55, 61
4, 7620, Note_on_c, 0, 55, 0
4, 7620, Note_on_c, 0, 53, 60
4, 7680, Note_on_c, 0, 53, 0
4, 7680, Note_on_c, 0, 55, 59
4, 7803, Note_on_c, 0, 55, 0
4, 7803, Note_on_c, 0, 51, 0
4, 7860, Note_on_c, 0, 51, 62
4, 7920, Note_on_c, 0, 51, 0
4, 7920, Note_on_c, 0, 56, 61
4, 8400, Note_on_c, 0, 56, 0
4, 8400, Note_on_c, 0, 51, 68
4, 8640, Note_on_c, 0, 51, 0
4, 8640, Note_on_c, 0, 51, 71
4, 8880, Note_on_c, 0, 51, 0
4, 8880, Note_on_c, 0, 51, 62
4, 9003, Note_on_c, 0, 51, 0
4, 15120, Note_on_c, 0, 60, 57
4, 15360, Note_on_c, 0, 60, 0
4, 15360, Note_on_c, 0, 59, 58
4, 15600, Note_on_c, 0, 59, 0
4, 15600, Note_on_c, 0, 58, 59
4, 15600, Note_on_c, 0, 61, 59
4, 15840, Note_on_c, 0, 61, 0
4, 15840, Note_on_c, 0, 58, 0
4, 15840, Note_on_c, 0, 60, 60
4, 16080, Note_on_c, 0, 60, 0
4, 16080, Note_on_c, 0, 60, 62
4, 16320, Note_on_c, 0, 60, 0
4, 16320, Note_on_c, 0, 60, 63
4, 16560, Note_on_c, 0, 60, 0
4, 16560, Note_on_c, 0, 58, 64
4, 17040, Note_on_c, 0, 58, 0
4, 17040, Note_on_c, 0, 59, 67
4, 17280, Note_on_c, 0, 59, 0
4, 17280, Note_on_c, 0, 60, 68
4, 17520, Note_on_c, 0, 60, 0
4, 17520, Note_on_c, 0, 56, 69
4, 17760, Note_on_c, 0, 56, 0
4, 17760, Note_on_c, 0, 57, 70
4, 18000, Note_on_c, 0, 57, 0
4, 18000, Note_on_c, 0, 58, 72
4, 18480, Note_on_c, 0, 58, 0
4, 18480, Note_on_c, 0, 46, 74
4, 18720, Note_on_c, 0, 46, 0
4, 18720, Note_on_c, 0, 51, 75
4, 18876, Note_on_c, 0, 51, 0
4, 18960, Note_on_c, 0, 51, 77
4, 19116, Note_on_c, 0, 51, 0
4, 19200, Note_on_c, 0, 51, 78
4, 19356, Note_on_c, 0, 51, 0
4, 19440, Note_on_c, 0, 51, 58
4, 19560, Note_on_c, 0, 51, 0
4, 19560, Note_on_c, 0, 56, 56
4, 19638, Note_on_c, 0, 56, 0
4, 19680, Note_on_c, 0, 56, 56
4, 19758, Note_on_c, 0, 56, 0
4, 19800, Note_on_c, 0, 56, 55
4, 19878, Note_on_c, 0, 56, 0
4, 19920, Note_on_c, 0, 56, 55
4, 19998, Note_on_c, 0, 56, 0
4, 20040, Note_on_c, 0, 56, 55
4, 20118, Note_on_c, 0, 56, 0
4, 20160, Note_on_c, 0, 51, 62
4, 20160, Note_on_c, 0, 56, 62
4, 20280, Note_on_c, 0, 56, 0
4, 20280, Note_on_c, 0, 55, 62
4, 20400, Note_on_c, 0, 55, 0
4, 20400, Note_on_c, 0, 55, 61
4, 20580, Note_on_c, 0, 55, 0
4, 20580, Note_on_c, 0, 53, 60
4, 20640, Note_on_c, 0, 53, 0
4, 20640, Note_on_c, 0, 55, 60
4, 20816, Note_on_c, 0, 51, 0
4, 20820, Note_on_c, 0, 55, 0
4, 20820, Note_on_c, 0, 51, 59
4, 20880, Note_on_c, 0, 51, 0
4, 20880, Note_on_c, 0, 56, 59
4, 21360, Note_on_c, 0, 56, 0
4, 21360, Note_on_c, 0, 51, 66
4, 21600, Note_on_c, 0, 51, 0
4, 21600, Note_on_c, 0, 51, 71
4, 21840, Note_on_c, 0, 51, 0
4, 21840, Note_on_c, 0, 51, 61
4, 22020, Note_on_c, 0, 51, 0
4, 22560, Note_on_c, 0, 56, 64
4, 22800, Note_on_c, 0, 56, 0
4, 22800, Note_on_c, 0, 56, 65
4, 23040, Note_on_c, 0, 56, 0
4, 23040, Note_on_c, 0, 56, 67
4, 23280, Note_on_c, 0, 56, 0
4, 23280, Note_on_c, 0, 55, 69
4, 23520, Note_on_c, 0, 55, 0
4, 23520, Note_on_c, 0, 56, 71
4, 23700, Note_on_c, 0, 56, 0
4, 25920, Note_on_c, 0, 44, 57
4, 25920, Note_on_c, 0, 39, 57
4, 26640, Note_on_c, 0, 39, 0
4, 26640, Note_on_c, 0, 44, 0
4, 26640, Note_on_c, 0, 46, 59
4, 26640, Note_on_c, 0, 39, 59
4, 27360, Note_on_c, 0, 39, 0
4, 27360, Note_on_c, 0, 46, 0
4, 27360, Note_on_c, 0, 48, 61
4, 27360, Note_on_c, 0, 39, 61
4, 27840, Note_on_c, 0, 39, 0
4, 27840, Note_on_c, 0, 48, 0
4, 27840, Note_on_c, 0, 51, 67
4, 28080, Note_on_c, 0, 51, 0
4, 28080, Note_on_c, 0, 51, 75
4, 28320, Note_on_c, 0, 51, 0
4, 28320, Note_on_c, 0, 51, 64
4, 28500, Note_on_c, 0, 51, 0
4, 29040, Note_on_c, 0, 56, 58
4, 29280, Note_on_c, 0, 56, 0
4, 29280, Note_on_c, 0, 56, 59
4, 29520, Note_on_c, 0, 56, 0
4, 29520, Note_on_c, 0, 56, 59
4, 29760, Note_on_c, 0, 56, 0
4, 29760, Note_on_c, 0, 55, 60
4, 30000, Note_on_c, 0, 55, 0
4, 30000, Note_on_c, 0, 56, 61
4, 30240, Note_on_c, 0, 56, 0
4, 30960, Note_on_c, 0, 51, 71
4, 31320, Note_on_c, 0, 51, 0
4, 31680, Note_on_c, 0, 44, 57
4, 32400, Note_on_c, 0, 44, 0
4, 32400, Note_on_c, 0, 46, 59
4, 33120, Note_on_c, 0, 46, 0
4, 33120, Note_on_c, 0, 48, 61
4, 33120, Note_on_c, 0, 39, 61
4, 33360, Note_on_c, 0, 39, 0
4, 33360, Note_on_c, 0, 48, 0
4, 33360, Note_on_c, 0, 51, 63
4, 33420, Note_on_c, 0, 51, 0
4, 33480, Note_on_c, 0, 51, 65
4, 33540, Note_on_c, 0, 51, 0
4, 33600, Note_on_c, 0, 51, 68
4, 33660, Note_on_c, 0, 51, 0
4, 33720, Note_on_c, 0, 51, 71
4, 33780, Note_on_c, 0, 51, 0
4, 33840, Note_on_c, 0, 51, 73
4, 34080, Note_on_c, 0, 51, 0
4, 34080, Note_on_c, 0, 51, 66
4, 34320, Note_on_c, 0, 51, 0
4, 34800, Note_on_c, 0, 56, 59
4, 35040, Note_on_c, 0, 56, 0
4, 35040, Note_on_c, 0, 56, 62
4, 35280, Note_on_c, 0, 56, 0
4, 35280, Note_on_c, 0, 56, 64
4, 35520, Note_on_c, 0, 56, 0
4, 35520, Note_on_c, 0, 55, 66
4, 35760, Note_on_c, 0, 55, 0
4, 35760, Note_on_c, 0, 56, 68
4, 36000, Note_on_c, 0, 56, 0
4, 40320, Note_on_c, 0, 60, 63
4, 40560, Note_on_c, 0, 60, 0
4, 40560, Note_on_c, 0, 59, 67
4, 40800, Note_on_c, 0, 59, 0
4, 40800, Note_on_c, 0, 58, 71
4, 40800, Note_on_c, 0, 61, 71
4, 41040, Note_on_c, 0, 61, 0
4, 41040, Note_on_c, 0, 58, 0
4, 41040, Note_on_c, 0, 60, 74
4, 41280, Note_on_c, 0, 60, 0
4, 41280, Note_on_c, 0, 60, 78
4, 41520, Note_on_c, 0, 60, 0
4, 41520, Note_on_c, 0, 60, 81
4, 41760, Note_on_c, 0, 60, 0
4, 44640, Note_on_c, 0, 44, 57
4, 44640, Note_on_c, 0, 39, 57
4, 45360, Note_on_c, 0, 39, 0
4, 45360, Note_on_c, 0, 44, 0
4, 45360, Note_on_c, 0, 46, 58
4, 45360, Note_on_c, 0, 39, 58
4, 46080, Note_on_c, 0, 39, 0
4, 46080, Note_on_c, 0, 46, 0
4, 46080, Note_on_c, 0, 39, 59
4, 46080, Note_on_c, 0, 48, 59
4, 46320, Note_on_c, 0, 48, 0
4, 46320, Note_on_c, 0, 39, 0
4, 46320, Note_on_c, 0, 51, 64
4, 46380, Note_on_c, 0, 51, 0
4, 46440, Note_on_c, 0, 51, 67
4, 46500, Note_on_c, 0, 51, 0
4, 46560, Note_on_c, 0, 51, 69
4, 46620, Note_on_c, 0, 51, 0
4, 46680, Note_on_c, 0, 51, 72
4, 46740, Note_on_c, 0, 51, 0
4, 46800, Note_on_c, 0, 51, 73
4, 47040, Note_on_c, 0, 51, 0
4, 47040, Note_on_c, 0, 51, 65
4, 47280, Note_on_c, 0, 51, 0
4, 47760, Note_on_c, 0, 56, 59
4, 48000, Note_on_c, 0, 56, 0
4, 48000, Note_on_c, 0, 56, 62
4, 48240, Note_on_c, 0, 56, 0
4, 48240, Note_on_c, 0, 56, 64
4, 48480, Note_on_c, 0, 56, 0
4, 48480, Note_on_c, 0, 55, 66
4, 48720, Note_on_c, 0, 55, 0
4, 48720, Note_on_c, 0, 56, 69
4, 48960, Note_on_c, 0, 56, 0
4, 76320, Note_on_c, 0, 47, 55
4, 76440, Note_on_c, 0, 47, 0
4, 76560, Note_on_c, 0, 47, 56
4, 76680, Note_on_c, 0, 47, 0
4, 76800, Note_on_c, 0, 47, 57
4, 76920, Note_on_c, 0, 47, 0
4, 77040, Note_on_c, 0, 49, 57
4, 77160, Note_on_c, 0, 49, 0
4, 77280, Note_on_c, 0, 49, 58
4, 77400, Note_on_c, 0, 49, 0
4, 77520, Note_on_c, 0, 49, 59
4, 77640, Note_on_c, 0, 49, 0
4, 77760, Note_on_c, 0, 51, 60
4, 77880, Note_on_c, 0, 51, 0
4, 78000, Note_on_c, 0, 51, 60
4, 78120, Note_on_c, 0, 51, 0
4, 78240, Note_on_c, 0, 51, 61
4, 78360, Note_on_c, 0, 51, 0
4, 78480, Note_on_c, 0, 52, 62
4, 78600, Note_on_c, 0, 52, 0
4, 78720, Note_on_c, 0, 52, 63
4, 78840, Note_on_c, 0, 52, 0
4, 78960, Note_on_c, 0, 52, 64
4, 79080, Note_on_c, 0, 52, 0
4, 79200, Note_on_c, 0, 54, 65
4, 79320, Note_on_c, 0, 54, 0
4, 79440, Note_on_c, 0, 54, 67
4, 79440, Note_on_c, 0, 57, 67
4, 79560, Note_on_c, 0, 57, 0
4, 79560, Note_on_c, 0, 54, 0
4, 79680, Note_on_c, 0, 54, 69
4, 79680, Note_on_c, 0, 57, 69
4, 79800, Note_on_c, 0, 57, 0
4, 79800, Note_on_c, 0, 54, 0
4, 79920, Note_on_c, 0, 56, 71
4, 80040, Note_on_c, 0, 56, 0
4, 80160, Note_on_c, 0, 56, 74
4, 80280, Note_on_c, 0, 56, 0
4, 80400, Note_on_c, 0, 56, 76
4, 80520, Note_on_c, 0, 56, 0
4, 80640, Note_on_c, 0, 59, 86
4, 80760, Note_on_c, 0, 59, 0
4, 80880, Note_on_c, 0, 58, 80
4, 81000, Note_on_c, 0, 58, 0
4, 81120, Note_on_c, 0, 56, 83
4, 81240, Note_on_c, 0, 56, 0
4, 81360, Note_on_c, 0, 56, 89
4, 81600, Note_on_c, 0, 56, 0
4, 81600, Note_on_c, 0, 55, 72
4, 81720, Note_on_c, 0, 55, 0
4, 82320, Note_on_c, 0, 47, 57
4, 82320, Note_on_c, 0, 44, 57
4, 82440, Note_on_c, 0, 44, 0
4, 82440, Note_on_c, 0, 47, 0
4, 82560, Note_on_c, 0, 44, 57
4, 82560, Note_on_c, 0, 47, 57
4, 82680, Note_on_c, 0, 47, 0
4, 82680, Note_on_c, 0, 44, 0
4, 83040, Note_on_c, 0, 49, 58
4, 83040, Note_on_c, 0, 46, 58
4, 83160, Note_on_c, 0, 46, 0
4, 83160, Note_on_c, 0, 49, 0
4, 83280, Note_on_c, 0, 49, 58
4, 83280, Note_on_c, 0, 46, 58
4, 83400, Note_on_c, 0, 46, 0
4, 83400, Note_on_c, 0, 49, 0
4, 83760, Note_on_c, 0, 47, 59
4, 83760, Note_on_c, 0, 51, 59
4, 83880, Note_on_c, 0, 51, 0
4, 83880, Note_on_c, 0, 47, 0
4, 84000, Note_on_c, 0, 47, 59
4, 84000, Note_on_c, 0, 51, 59
4, 84120, Note_on_c, 0, 51, 0
4, 84120, Note_on_c, 0, 47, 0
4, 84480, Note_on_c, 0, 52, 60
4, 84480, Note_on_c, 0, 49, 60
4, 84600, Note_on_c, 0, 49, 0
4, 84600, Note_on_c, 0, 52, 0
4, 84720, Note_on_c, 0, 52, 60
4, 84720, Note_on_c, 0, 49, 60
4, 84840, Note_on_c, 0, 49, 0
4, 84840, Note_on_c, 0, 52, 0
4, 85200, Note_on_c, 0, 54, 64
4, 85200, Note_on_c, 0, 57, 64
4, 85200, Note_on_c, 0, 51, 64
4, 85320, Note_on_c, 0, 51, 0
4, 85320, Note_on_c, 0, 57, 0
4, 85320, Note_on_c, 0, 54, 0
4, 85440, Note_on_c, 0, 57, 67
4, 85440, Note_on_c, 0, 54, 67
4, 85440, Note_on_c, 0, 51, 67
4, 85560, Note_on_c, 0, 51, 0
4, 85560, Note_on_c, 0, 54, 0
4, 85560, Note_on_c, 0, 57, 0
4, 85920, Note_on_c, 0, 52, 77
4, 85920, Note_on_c, 0, 56, 77
4, 86040, Note_on_c, 0, 56, 0
4, 86040, Note_on_c, 0, 52, 0
4, 86160, Note_on_c, 0, 56, 81
4, 86160, Note_on_c, 0, 59, 81
4, 86160, Note_on_c, 0, 53, 81
4, 86280, Note_on_c, 0, 53, 0
4, 86280, Note_on_c, 0, 59, 0
4, 86280, Note_on_c, 0, 56, 0
4, 86400, Note_on_c, 0, 56, 87
4, 86400, Note_on_c, 0, 59, 87
4, 86520, Note_on_c, 0, 59, 0
4, 86520, Note_on_c, 0, 56, 0
4, 86640, Note_on_c, 0, 44, 76
4, 86640, Note_on_c, 0, 47, 76
4, 86640, Note_on_c, 0, 51, 76
4, 86760, Note_on_c, 0, 51, 0
4, 86760, Note_on_c, 0, 47, 0
4, 86760, Note_on_c, 0, 44, 0
4, 86880, Note_on_c, 0, 43, 70
4, 86880, Note_on_c, 0, 46, 70
4, 86880, Note_on_c, 0, 51, 70
4, 87000, Note_on_c, 0, 51, 0
4, 87000, Note_on_c, 0, 46, 0
4, 87000, Note_on_c, 0, 43, 0
4, 87120, Note_on_c, 0, 56, 65
4, 87240, Note_on_c, 0, 56, 0
4, 90960, Note_on_c, 0, 50, 54
4, 90960, Note_on_c, 0, 53, 54
4, 91080, Note_on_c, 0, 53, 0
4, 91080, Note_on_c, 0, 50, 0
4, 91200, Note_on_c, 0, 50, 56
4, 91200, Note_on_c, 0, 58, 56
4, 91320, Note_on_c, 0, 58, 0
4, 91320, Note_on_c, 0, 50, 0
4, 91680, Note_on_c, 0, 51, 59
4, 91680, Note_on_c, 0, 58, 59
4, 91800, Note_on_c, 0, 58, 0
4, 91800, Note_on_c, 0, 51, 0
4, 91920, Note_on_c, 0, 56, 60
4, 91920, Note_on_c, 0, 44, 60
4, 92040, Note_on_c, 0, 44, 0
4, 92040, Note_on_c, 0, 56, 0
4, 92400, Note_on_c, 0, 54, 64
4, 92400, Note_on_c, 0, 46, 64
4, 92520, Note_on_c, 0, 46, 0
4, 92520, Note_on_c, 0, 54, 0
4, 92640, Note_on_c, 0, 46, 65
4, 92760, Note_on_c, 0, 46, 0
4, 92880, Note_on_c, 0, 47, 75
4, 93000, Note_on_c, 0, 47, 0
4, 93120, Note_on_c, 0, 54, 68
4, 93120, Note_on_c, 0, 47, 68
4, 93240, Note_on_c, 0, 47, 0
4, 93240, Note_on_c, 0, 54, 0
4, 93360, Note_on_c, 0, 45, 75
4, 93480, Note_on_c, 0, 45, 0
4, 93600, Note_on_c, 0, 46, 83
4, 93720, Note_on_c, 0, 46, 0
4, 93840, Note_on_c, 0, 51, 73
4, 93840, Note_on_c, 0, 54, 73
4, 93840, Note_on_c, 0, 46, 73
4, 93960, Note_on_c, 0, 46, 0
4, 93960, Note_on_c, 0, 54, 0
4, 93960, Note_on_c, 0, 51, 0
4, 94080, Note_on_c, 0, 46, 78
4, 94200, Note_on_c, 0, 46, 0
4, 94320, Note_on_c, 0, 51, 83
4, 94560, Note_on_c, 0, 51, 0
4, 94560, Note_on_c, 0, 49, 70
4, 94800, Note_on_c, 0, 49, 0
4, 94800, Note_on_c, 0, 46, 63
4, 95040, Note_on_c, 0, 46, 0
4, 95280, Note_on_c, 0, 44, 61
4, 95280, Note_on_c, 0, 47, 61
4, 95400, Note_on_c, 0, 47, 0
4, 95400, Note_on_c, 0, 44, 0
4, 95520, Note_on_c, 0, 47, 62
4, 95520, Note_on_c, 0, 44, 62
4, 95640, Note_on_c, 0, 44, 0
4, 95640, Note_on_c, 0, 47, 0
4, 96000, Note_on_c, 0, 46, 63
4, 96000, Note_on_c, 0, 49, 63
4, 96120, Note_on_c, 0, 49, 0
4, 96120, Note_on_c, 0, 46, 0
4, 96240, Note_on_c, 0, 46, 64
4, 96240, Note_on_c, 0, 49, 64
4, 96360, Note_on_c, 0, 49, 0
4, 96360, Note_on_c, 0, 46, 0
4, 96720, Note_on_c, 0, 51, 65
4, 96720, Note_on_c, 0, 47, 65
4, 96840, Note_on_c, 0, 47, 0
4, 96840, Note_on_c, 0, 51, 0
4, 96960, Note_on_c, 0, 51, 66
4, 96960, Note_on_c, 0, 47, 66
4, 97080, Note_on_c, 0, 47, 0
4, 97080, Note_on_c, 0, 51, 0
4, 97440, Note_on_c, 0, 49, 67
4, 97440, Note_on_c, 0, 52, 67
4, 97560, Note_on_c, 0, 52, 0
4, 97560, Note_on_c, 0, 49, 0
4, 97680, Note_on_c, 0, 49, 68
4, 97680, Note_on_c, 0, 52, 68
4, 97800, Note_on_c, 0, 52, 0
4, 97800, Note_on_c, 0, 49, 0
4, 98160, Note_on_c, 0, 51, 69
4, 98160, Note_on_c, 0, 57, 69
4, 98160, Note_on_c, 0, 54, 69
4, 98280, Note_on_c, 0, 54, 0
4, 98280, Note_on_c, 0, 57, 0
4, 98280, Note_on_c, 0, 51, 0
4, 98400, Note_on_c, 0, 51, 70
4, 98400, Note_on_c, 0, 54, 70
4, 98400, Note_on_c, 0, 57, 70
4, 98520, Note_on_c, 0, 57, 0
4, 98520, Note_on_c, 0, 54, 0
4, 98520, Note_on_c, 0, 51, 0
4, 98880, Note_on_c, 0, 56, 71
4, 98880, Note_on_c, 0, 52, 71
4, 99000, Note_on_c, 0, 52, 0
4, 99000, Note_on_c, 0, 56, 0
4, 99120, Note_on_c, 0, 53, 72
4, 99120, Note_on_c, 0, 56, 72
4, 99120, Note_on_c, 0, 59, 72
4, 99240, Note_on_c, 0, 59, 0
4, 99240, Note_on_c, 0, 56, 0
4, 99240, Note_on_c, 0, 53, 0
4, 99360, Note_on_c, 0, 59, 78
4, 99360, Note_on_c, 0, 56, 78
4, 99480, Note_on_c, 0, 56, 0
4, 99480, Note_on_c, 0, 59, 0
4, 99600, Note_on_c, 0, 44, 73
4, 99600, Note_on_c, 0, 51, 73
4, 99600, Note_on_c, 0, 47, 73
4, 99720, Note_on_c, 0, 47, 0
4, 99720, Note_on_c, 0, 51, 0
4, 99720, Note_on_c, 0, 44, 0
4, 99840, Note_on_c, 0, 43, 68
4, 99840, Note_on_c, 0, 51, 68
4, 99840, Note_on_c, 0, 46, 68
4, 99960, Note_on_c, 0, 46, 0
4, 99960, Note_on_c, 0, 51, 0
4, 99960, Note_on_c, 0, 43, 0
4, 100080, Note_on_c, 0, 56, 64
4, 100200, Note_on_c, 0, 56, 0
4, 126800, Note_on_c, 0, 51, 55
4, 126880, Note_on_c, 0, 56, 56
4, 126891, Note_on_c, 0, 51, 0
4, 126960, Note_on_c, 0, 56, 0
4, 127040, Note_on_c, 0, 51, 56
4, 127120, Note_on_c, 0, 56, 56
4, 127131, Note_on_c, 0, 51, 0
4, 127200, Note_on_c, 0, 56, 0
4, 127280, Note_on_c, 0, 51, 57
4, 127360, Note_on_c, 0, 56, 57
4, 127371, Note_on_c, 0, 51, 0
4, 127440, Note_on_c, 0, 56, 0
4, 127520, Note_on_c, 0, 51, 57
4, 127600, Note_on_c, 0, 58, 57
4, 127611, Note_on_c, 0, 51, 0
4, 127680, Note_on_c, 0, 58, 0
4, 127760, Note_on_c, 0, 51, 58
4, 127840, Note_on_c, 0, 58, 58
4, 127851, Note_on_c, 0, 51, 0
4, 127920, Note_on_c, 0, 58, 0
4, 128000, Note_on_c, 0, 51, 58
4, 128080, Note_on_c, 0, 58, 59
4, 128091, Note_on_c, 0, 51, 0
4, 128160, Note_on_c, 0, 58, 0
4, 128240, Note_on_c, 0, 51, 59
4, 128320, Note_on_c, 0, 60, 59
4, 128331, Note_on_c, 0, 51, 0
4, 128400, Note_on_c, 0, 60, 0
4, 128480, Note_on_c, 0, 51, 60
4, 128560, Note_on_c, 0, 60, 60
4, 128571, Note_on_c, 0, 51, 0
4, 128640, Note_on_c, 0, 60, 0
4, 128720, Note_on_c, 0, 51, 60
4, 128800, Note_on_c, 0, 55, 61
4, 128811, Note_on_c, 0, 51, 0
4, 128880, Note_on_c, 0, 55, 0
4, 128960, Note_on_c, 0, 51, 63
4, 129040, Note_on_c, 0, 56, 61
4, 129051, Note_on_c, 0, 51, 0
4, 129120, Note_on_c, 0, 56, 0
4, 129200, Note_on_c, 0, 51, 59
4, 129280, Note_on_c, 0, 51, 0
4, 129280, Note_on_c, 0, 51, 57
4, 129360, Note_on_c, 0, 51, 0
4, 129440, Note_on_c, 0, 51, 57
4, 129520, Note_on_c, 0, 51, 0
4, 129520, Note_on_c, 0, 54, 58
4, 129600, Note_on_c, 0, 54, 0
4, 129680, Note_on_c, 0, 53, 59
4, 129760, Note_on_c, 0, 53, 0
4, 129760, Note_on_c, 0, 56, 59
4, 129840, Note_on_c, 0, 56, 0
4, 129920, Note_on_c, 0, 56, 60
4, 130000, Note_on_c, 0, 56, 0
4, 130000, Note_on_c, 0, 61, 61
4, 130080, Note_on_c, 0, 61, 0
4, 130160, Note_on_c, 0, 56, 62
4, 130240, Note_on_c, 0, 56, 0
4, 130240, Note_on_c, 0, 60, 62
4, 130320, Note_on_c, 0, 60, 0
4, 130400, Note_on_c, 0, 53, 63
4, 130480, Note_on_c, 0, 53, 0
4, 130480, Note_on_c, 0, 58, 63
4, 130560, Note_on_c, 0, 58, 0
4, 130640, Note_on_c, 0, 51, 64
4, 130720, Note_on_c, 0, 51, 0
4, 130720, Note_on_c, 0, 58, 65
4, 130800, Note_on_c, 0, 58, 0
4, 130880, Note_on_c, 0, 51, 66
4, 130960, Note_on_c, 0, 51, 0
4, 130960, Note_on_c, 0, 56, 66
4, 131040, Note_on_c, 0, 56, 0
4, 131120, Note_on_c, 0, 53, 67
4, 131200, Note_on_c, 0, 53, 0
4, 131200, Note_on_c, 0, 56, 67
4, 131280, Note_on_c, 0, 56, 0
4, 131360, Note_on_c, 0, 55, 68
4, 131440, Note_on_c, 0, 55, 0
4, 131440, Note_on_c, 0, 58, 69
4, 131520, Note_on_c, 0, 58, 0
4, 131600, Note_on_c, 0, 56, 70
4, 131680, Note_on_c, 0, 56, 0
4, 131680, Note_on_c, 0, 60, 70
4, 131760, Note_on_c, 0, 60, 0
4, 132540, Note_on_c, 0, 51, 53
4, 132600, Note_on_c, 0, 51, 0
4, 132600, Note_on_c, 0, 56, 53
4, 132660, Note_on_c, 0, 56, 0
4, 132660, Note_on_c, 0, 51, 54
4, 132720, Note_on_c, 0, 51, 0
4, 132780, Note_on_c, 0, 51, 54
4, 132840, Note_on_c, 0, 51, 0
4, 132840, Note_on_c, 0, 56, 55
4, 132900, Note_on_c, 0, 56, 0
4, 132900, Note_on_c, 0, 51, 55
4, 132960, Note_on_c, 0, 51, 0
4, 133020, Note_on_c, 0, 51, 55
4, 133080, Note_on_c, 0, 51, 0
4, 133080, Note_on_c, 0, 56, 56
4, 133140, Note_on_c, 0, 56, 0
4, 133140, Note_on_c, 0, 51, 56
4, 133200, Note_on_c, 0, 51, 0
4, 133260, Note_on_c, 0, 51, 57
4, 133320, Note_on_c, 0, 51, 0
4, 133320, Note_on_c, 0, 55, 57
4, 133380, Note_on_c, 0, 55, 0
4, 133380, Note_on_c, 0, 51, 57
4, 133440, Note_on_c, 0, 51, 0
4, 133500, Note_on_c, 0, 51, 58
4, 133560, Note_on_c, 0, 51, 0
4, 133560, Note_on_c, 0, 58, 58
4, 133620, Note_on_c, 0, 58, 0
4, 133620, Note_on_c, 0, 51, 58
4, 133680, Note_on_c, 0, 51, 0
4, 133740, Note_on_c, 0, 51, 59
4, 133800, Note_on_c, 0, 51, 0
4, 133800, Note_on_c, 0, 58, 59
4, 133860, Note_on_c, 0, 58, 0
4, 133860, Note_on_c, 0, 51, 60
4, 133920, Note_on_c, 0, 51, 0
4, 133980, Note_on_c, 0, 51, 60
4, 134040, Note_on_c, 0, 51, 0
4, 134040, Note_on_c, 0, 56, 61
4, 134100, Note_on_c, 0, 56, 0
4, 134100, Note_on_c, 0, 51, 61
4, 134160, Note_on_c, 0, 51, 0
4, 134220, Note_on_c, 0, 51, 61
4, 134280, Note_on_c, 0, 51, 0
4, 134280, Note_on_c, 0, 56, 62
4, 134340, Note_on_c, 0, 56, 0
4, 134340, Note_on_c, 0, 51, 62
4, 134400, Note_on_c, 0, 51, 0
4, 134460, Note_on_c, 0, 51, 63
4, 134520, Note_on_c, 0, 51, 0
4, 134520, Note_on_c, 0, 55, 63
4, 134580, Note_on_c, 0, 55, 0
4, 134580, Note_on_c, 0, 51, 63
4, 134640, Note_on_c, 0, 51, 0
4, 134700, Note_on_c, 0, 51, 63
4, 134760, Note_on_c, 0, 51, 0
4, 134760, Note_on_c, 0, 56, 62
4, 134820, Note_on_c, 0, 56, 0
4, 134820, Note_on_c, 0, 51, 62
4, 134880, Note_on_c, 0, 51, 0
4, 134940, Note_on_c, 0, 51, 60
4, 135000, Note_on_c, 0, 51, 0
4, 135000, Note_on_c, 0, 55, 60
4, 135060, Note_on_c, 0, 55, 0
4, 135060, Note_on_c, 0, 51, 59
4, 135120, Note_on_c, 0, 51, 0
4, 135180, Note_on_c, 0, 51, 59
4, 135240, Note_on_c, 0, 51, 0
4, 135240, Note_on_c, 0, 54, 60
4, 135300, Note_on_c, 0, 54, 0
4, 135300, Note_on_c, 0, 51, 61
4, 135360, Note_on_c, 0, 51, 0
4, 135420, Note_on_c, 0, 53, 62
4, 135480, Note_on_c, 0, 53, 0
4, 135480, Note_on_c, 0, 56, 62
4, 135540, Note_on_c, 0, 56, 0
4, 135540, Note_on_c, 0, 61, 63
4, 135600, Note_on_c, 0, 61, 0
4, 135660, Note_on_c, 0, 56, 64
4, 135720, Note_on_c, 0, 56, 0
4, 135720, Note_on_c, 0, 61, 65
4, 135780, Note_on_c, 0, 61, 0
4, 135780, Note_on_c, 0, 56, 65
4, 135840, Note_on_c, 0, 56, 0
4, 135900, Note_on_c, 0, 56, 67
4, 135960, Note_on_c, 0, 56, 0
4, 135960, Note_on_c, 0, 60, 67
4, 136020, Note_on_c, 0, 60, 0
4, 136020, Note_on_c, 0, 56, 68
4, 136080, Note_on_c, 0, 56, 0
4, 136140, Note_on_c, 0, 53, 69
4, 136200, Note_on_c, 0, 53, 0
4, 136200, Note_on_c, 0, 58, 70
4, 136260, Note_on_c, 0, 58, 0
4, 136260, Note_on_c, 0, 53, 70
4, 136320, Note_on_c, 0, 53, 0
4, 136380, Note_on_c, 0, 51, 71
4, 136440, Note_on_c, 0, 51, 0
4, 136440, Note_on_c, 0, 58, 72
4, 136500, Note_on_c, 0, 58, 0
4, 136500, Note_on_c, 0, 51, 73
4, 136560, Note_on_c, 0, 51, 0
4, 136620, Note_on_c, 0, 51, 74
4, 136680, Note_on_c, 0, 51, 0
4, 136680, Note_on_c, 0, 56, 74
4, 136740, Note_on_c, 0, 56, 0
4, 136740, Note_on_c, 0, 51, 74
4, 136800, Note_on_c, 0, 51, 0
4, 136860, Note_on_c, 0, 48, 64
4, 136920, Note_on_c, 0, 48, 0
4, 136920, Note_on_c, 0, 51, 63
4, 136980, Note_on_c, 0, 51, 0
4, 136980, Note_on_c, 0, 56, 62
4, 137040, Note_on_c, 0, 56, 0
4, 137100, Note_on_c, 0, 48, 61
4, 137160, Note_on_c, 0, 48, 0
4, 137160, Note_on_c, 0, 51, 61
4, 137220, Note_on_c, 0, 51, 0
4, 137220, Note_on_c, 0, 56, 60
4, 137280, Note_on_c, 0, 56, 0
4, 137340, Note_on_c, 0, 49, 59
4, 137400, Note_on_c, 0, 49, 0
4, 137400, Note_on_c, 0, 51, 59
4, 137460, Note_on_c, 0, 51, 0
4, 137460, Note_on_c, 0, 55, 58
4, 137520, Note_on_c, 0, 55, 0
4, 137580, Note_on_c, 0, 48, 57
4, 137640, Note_on_c, 0, 48, 0
4, 137640, Note_on_c, 0, 51, 56
4, 137700, Note_on_c, 0, 51, 0
4, 137700, Note_on_c, 0, 56, 56
4, 137760, Note_on_c, 0, 56, 0
4, 138300, Note_on_c, 0, 65, 69
4, 138360, Note_on_c, 0, 65, 0
4, 138360, Note_on_c, 0, 60, 69
4, 138420, Note_on_c, 0, 60, 0
4, 138420, Note_on_c, 0, 65, 69
4, 138480, Note_on_c, 0, 65, 0
4, 138540, Note_on_c, 0, 65, 68
4, 138600, Note_on_c, 0, 65, 0
4, 138600, Note_on_c, 0, 58, 67
4, 138660, Note_on_c, 0, 58, 0
4, 138660, Note_on_c, 0, 65, 67
4, 138720, Note_on_c, 0, 65, 0
4, 138780, Note_on_c, 0, 65, 66
4, 138840, Note_on_c, 0, 65, 0
4, 138840, Note_on_c, 0, 60, 66
4, 138900, Note_on_c, 0, 60, 0
4, 138900, Note_on_c, 0, 65, 65
4, 138960, Note_on_c, 0, 65, 0
4, 139020, Note_on_c, 0, 65, 64
4, 139080, Note_on_c, 0, 65, 0
4, 139080, Note_on_c, 0, 61, 64
4, 139140, Note_on_c, 0, 61, 0
4, 139140, Note_on_c, 0, 65, 64
4, 139200, Note_on_c, 0, 65, 0
4, 139740, Note_on_c, 0, 63, 59
4, 139800, Note_on_c, 0, 63, 0
4, 139800, Note_on_c, 0, 58, 59
4, 139860, Note_on_c, 0, 58, 0
4, 139860, Note_on_c, 0, 63, 59
4, 139920, Note_on_c, 0, 63, 0
4, 139980, Note_on_c, 0, 63, 58
4, 140040, Note_on_c, 0, 63, 0
4, 140040, Note_on_c, 0, 56, 57
4, 140100, Note_on_c, 0, 56, 0
4, 140100, Note_on_c, 0, 63, 57
4, 140160, Note_on_c, 0, 63, 0
4, 140220, Note_on_c, 0, 63, 56
4, 140280, Note_on_c, 0, 63, 0
4, 140280, Note_on_c, 0, 58, 56
4, 140340, Note_on_c, 0, 58, 0
4, 140340, Note_on_c, 0, 63, 55
4, 140400, Note_on_c, 0, 63, 0
4, 140460, Note_on_c, 0, 63, 55
4, 140520, Note_on_c, 0, 63, 0
4, 140520, Note_on_c, 0, 60, 54
4, 140580, Note_on_c, 0, 60, 0
4, 140580, Note_on_c, 0, 63, 54
4, 140640, Note_on_c, 0, 63, 0
4, 145500, Note_on_c, 0, 51, 55
4, 145560, Note_on_c, 0, 51, 0
4, 145560, Note_on_c, 0, 56, 55
4, 145620, Note_on_c, 0, 56, 0
4, 145620, Note_on_c, 0, 51, 56
4, 145680, Note_on_c, 0, 51, 0
4, 145740, Note_on_c, 0, 51, 56
4, 145800, Note_on_c, 0, 51, 0
4, 145800, Note_on_c, 0, 56, 56
4, 145860, Note_on_c, 0, 56, 0
4, 145860, Note_on_c, 0, 51, 57
4, 145920, Note_on_c, 0, 51, 0
4, 145980, Note_on_c, 0, 51, 57
4, 146040, Note_on_c, 0, 51, 0
4, 146040, Note_on_c, 0, 56, 58
4, 146100, Note_on_c, 0, 56, 0
4, 146100, Note_on_c, 0, 51, 58
4, 146160, Note_on_c, 0, 51, 0
4, 146220, Note_on_c, 0, 51, 58
4, 146280, Note_on_c, 0, 51, 0
4, 146280, Note_on_c, 0, 55, 59
4, 146340, Note_on_c, 0, 55, 0
4, 146340, Note_on_c, 0, 51, 59
4, 146400, Note_on_c, 0, 51, 0
4, 146460, Note_on_c, 0, 51, 59
4, 146520, Note_on_c, 0, 51, 0
4, 146520, Note_on_c, 0, 58, 60
4, 146580, Note_on_c, 0, 58, 0
4, 146580, Note_on_c, 0, 51, 60
4, 146640, Note_on_c, 0, 51, 0
4, 146700, Note_on_c, 0, 51, 61
4, 146760, Note_on_c, 0, 51, 0
4, 146760, Note_on_c, 0, 58, 61
4, 146820, Note_on_c, 0, 58, 0
4, 146820, Note_on_c, 0, 51, 61
4, 146880, Note_on_c, 0, 51, 0
4, 146940, Note_on_c, 0, 51, 62
4, 147000, Note_on_c, 0, 51, 0
4, 147000, Note_on_c, 0, 56, 62
4, 147060, Note_on_c, 0, 56, 0
4, 147060, Note_on_c, 0, 51, 62
4, 147120, Note_on_c, 0, 51, 0
4, 147180, Note_on_c, 0, 51, 63
4, 147240, Note_on_c, 0, 51, 0
4, 147240, Note_on_c, 0, 56, 63
4, 147300, Note_on_c, 0, 56, 0
4, 147300, Note_on_c, 0, 51, 63
4, 147360, Note_on_c, 0, 51, 0
4, 147420, Note_on_c, 0, 51, 64
4, 147480, Note_on_c, 0, 51, 0
4, 147480, Note_on_c, 0, 55, 64
4, 147540, Note_on_c, 0, 55, 0
4, 147540, Note_on_c, 0, 51, 64
4, 147600, Note_on_c, 0, 51, 0
4, 147660, Note_on_c, 0, 51, 65
4, 147720, Note_on_c, 0, 51, 0
4, 147720, Note_on_c, 0, 56, 64
4, 147780, Note_on_c, 0, 56, 0
4, 147780, Note_on_c, 0, 51, 63
4, 147840, Note_on_c, 0, 51, 0
4, 147900, Note_on_c, 0, 51, 61
4, 147960, Note_on_c, 0, 51, 0
4, 147960, Note_on_c, 0, 55, 61
4, 148020, Note_on_c, 0, 55, 0
4, 148020, Note_on_c, 0, 51, 61
4, 148080, Note_on_c, 0, 51, 0
4, 148140, Note_on_c, 0, 51, 62
4, 148200, Note_on_c, 0, 51, 0
4, 148200, Note_on_c, 0, 54, 63
4, 148260, Note_on_c, 0, 54, 0
4, 148260, Note_on_c, 0, 51, 63
4, 148320, Note_on_c, 0, 51, 0
4, 148380, Note_on_c, 0, 53, 64
4, 148440, Note_on_c, 0, 53, 0
4, 148440, Note_on_c, 0, 56, 64
4, 148500, Note_on_c, 0, 56, 0
4, 148500, Note_on_c, 0, 61, 64
4, 148560, Note_on_c, 0, 61, 0
4, 148620, Note_on_c, 0, 56, 65
4, 148680, Note_on_c, 0, 56, 0
4, 148680, Note_on_c, 0, 61, 66
4, 148740, Note_on_c, 0, 61, 0
4, 148740, Note_on_c, 0, 56, 66
4, 148800, Note_on_c, 0, 56, 0
4, 148860, Note_on_c, 0, 56, 67
4, 148920, Note_on_c, 0, 56, 0
4, 148920, Note_on_c, 0, 60, 67
4, 148980, Note_on_c, 0, 60, 0
4, 148980, Note_on_c, 0, 56, 68
4, 149040, Note_on_c, 0, 56, 0
4, 149100, Note_on_c, 0, 53, 68
4, 149160, Note_on_c, 0, 53, 0
4, 149160, Note_on_c, 0, 58, 69
4, 149220, Note_on_c, 0, 58, 0
4, 149220, Note_on_c, 0, 53, 69
4, 149280, Note_on_c, 0, 53, 0
4, 149340, Note_on_c, 0, 51, 70
4, 149400, Note_on_c, 0, 51, 0
4, 149400, Note_on_c, 0, 58, 70
4, 149460, Note_on_c, 0, 58, 0
4, 149460, Note_on_c, 0, 51, 71
4, 149520, Note_on_c, 0, 51, 0
4, 149580, Note_on_c, 0, 51, 72
4, 149640, Note_on_c, 0, 51, 0
4, 149640, Note_on_c, 0, 56, 72
4, 149700, Note_on_c, 0, 56, 0
4, 149700, Note_on_c, 0, 51, 72
4, 149760, Note_on_c, 0, 51, 0
4, 149820, Note_on_c, 0, 48, 63
4, 149880, Note_on_c, 0, 48, 0
4, 149880, Note_on_c, 0, 51, 63
4, 149940, Note_on_c, 0, 51, 0
4, 149940, Note_on_c, 0, 56, 62
4, 150000, Note_on_c, 0, 56, 0
4, 150060, Note_on_c, 0, 48, 60
4, 150120, Note_on_c, 0, 48, 0
4, 150120, Note_on_c, 0, 51, 60
4, 150180, Note_on_c, 0, 51, 0
4, 150180, Note_on_c, 0, 56, 59
4, 150240, Note_on_c, 0, 56, 0
4, 150300, Note_on_c, 0, 49, 57
4, 150360, Note_on_c, 0, 49, 0
4, 150360, Note_on_c, 0, 51, 57
4, 150420, Note_on_c, 0, 51, 0
4, 150420, Note_on_c, 0, 55, 56
4, 150480, Note_on_c, 0, 55, 0
4, 150480, Note_on_c, 0, 48, 55
4, 150480, Note_on_c, 0, 51, 55
4, 150480, Note_on_c, 0, 56, 55
4, 150720, Note_on_c, 0, 56, 0
4, 150720, Note_on_c, 0, 51, 0
4, 150720, Note_on_c, 0, 48, 0
4, 162720, Control_c, 0, 7, 100
4, 162720, Control_c, 0, 64, 0
4, 162720, Control_c, 0, 1, 0
4, 162720, Pitch_bend_c, 0, 8192
4, 162720, Control_c, 0, 93, 1
4, 162720, Control_c, 0, 91, 1
4, 162720, Control_c, 0, 10, 64
4, 163440, Control_c, 0, 7, 117
4, 163440, Pitch_bend_c, 0, 8192
4, 163440, Control_c, 0, 1, 0
4, 163440, Control_c, 0, 64, 0
4, 163440, Control_c, 0, 93, 28
4, 163440, Control_c, 0, 91, 91
4, 163920, Control_c, 0, 64, 0
4, 175440, Control_c, 0, 7, 117
4, 175440, Control_c, 0, 64, 0
4, 175920, Note_on_c, 0, 44, 57
4, 176015, Note_on_c, 0, 44, 0
4, 176640, Note_on_c, 0, 44, 61
4, 176735, Note_on_c, 0, 44, 0
4, 177360, Note_on_c, 0, 44, 64
4, 177455, Note_on_c, 0, 44, 0
4, 178800, Note_on_c, 0, 46, 71
4, 178895, Note_on_c, 0, 46, 0
4, 179520, Note_on_c, 0, 46, 75
4, 179615, Note_on_c, 0, 46, 0
4, 180240, Note_on_c, 0, 46, 78
4, 180335, Note_on_c, 0, 46, 0
4, 181680, Note_on_c, 0, 48, 85
4, 181775, Note_on_c, 0, 48, 0
4, 182400, Note_on_c, 0, 48, 89
4, 182495, Note_on_c, 0, 48, 0
4, 183120, Note_on_c, 0, 48, 92
4, 183215, Note_on_c, 0, 48, 0
4, 183840, Note_on_c, 0, 48, 96
4, 183935, Note_on_c, 0, 48, 0
4, 184560, Note_on_c, 0, 60, 91
4, 184655, Note_on_c, 0, 60, 0
4, 185280, Note_on_c, 0, 60, 87
4, 185375, Note_on_c, 0, 60, 0
4, 186000, Note_on_c, 0, 60, 83
4, 186095, Note_on_c, 0, 60, 0
4, 186720, Note_on_c, 0, 60, 80
4, 186815, Note_on_c, 0, 60, 0
4, 187440, Note_on_c, 0, 64, 76
4, 187535, Note_on_c, 0, 64, 0
4, 188160, Note_on_c, 0, 64, 72
4, 188255, Note_on_c, 0, 64, 0
4, 188880, Note_on_c, 0, 64, 69
4, 188975, Note_on_c, 0, 64, 0
4, 189600, Note_on_c, 0, 64, 65
4, 189695, Note_on_c, 0, 64, 0
4, 190320, Note_on_c, 0, 67, 64
4, 190415, Note_on_c, 0, 67, 0
4, 191040, Note_on_c, 0, 67, 62
4, 191135, Note_on_c, 0, 67, 0
4, 191760, Note_on_c, 0, 67, 60
4, 191855, Note_on_c, 0, 67, 0
4, 192480, Note_on_c, 0, 67, 58
4, 192575, Note_on_c, 0, 67, 0
4, 193440, Note_on_c, 0, 67, 55
4, 193535, Note_on_c, 0, 67, 0
4, 194160, Note_on_c, 0, 67, 53
4, 194255, Note_on_c, 0, 67, 0
4, 194880, Note_on_c, 0, 67, 51
4, 194975, Note_on_c, 0, 67, 0
4, 195840, Note_on_c, 0, 53, 95
4, 196560, Note_on_c, 0, 53, 0
4, 196560, Note_on_c, 0, 51, 87
4, 196655, Note_on_c, 0, 51, 0
4, 197040, Note_on_c, 0, 52, 100
4, 197520, Note_on_c, 0, 52, 0
4, 197520, Note_on_c, 0, 53, 81
4, 197615, Note_on_c, 0, 53, 0
4, 197760, Note_on_c, 0, 50, 79
4, 197855, Note_on_c, 0, 50, 0
4, 198000, Note_on_c, 0, 51, 77
4, 198095, Note_on_c, 0, 51, 0
4, 198720, Note_on_c, 0, 46, 84
4, 199440, Note_on_c, 0, 46, 0
4, 199440, Note_on_c, 0, 44, 77
4, 199535, Note_on_c, 0, 44, 0
4, 199920, Note_on_c, 0, 45, 91
4, 200370, Note_on_c, 0, 45, 0
4, 200400, Note_on_c, 0, 46, 72
4, 200495, Note_on_c, 0, 46, 0
4, 200640, Note_on_c, 0, 43, 71
4, 200735, Note_on_c, 0, 43, 0
4, 212400, Note_on_c, 0, 49, 53
4, 212880, Note_on_c, 0, 49, 0
4, 212880, Note_on_c, 0, 44, 55
4, 213120, Note_on_c, 0, 44, 0
4, 213120, Note_on_c, 0, 48, 56
4, 213600, Note_on_c, 0, 48, 0
4, 213600, Note_on_c, 0, 44, 58
4, 213840, Note_on_c, 0, 44, 0
4, 213840, Note_on_c, 0, 51, 59
4, 214320, Note_on_c, 0, 51, 0
4, 214320, Note_on_c, 0, 44, 61
4, 214560, Note_on_c, 0, 44, 0
4, 214560, Note_on_c, 0, 49, 62
4, 215040, Note_on_c, 0, 49, 0
4, 215040, Note_on_c, 0, 44, 64
4, 215280, Note_on_c, 0, 44, 0
4, 215280, Note_on_c, 0, 53, 68
4, 215760, Note_on_c, 0, 53, 0
4, 215760, Note_on_c, 0, 49, 75
4, 216000, Note_on_c, 0, 49, 0
4, 216000, Note_on_c, 0, 54, 79
4, 216000, Note_on_c, 0, 49, 79
4, 216480, Note_on_c, 0, 49, 0
4, 216480, Note_on_c, 0, 54, 0
4, 216480, Note_on_c, 0, 53, 69
4, 216720, Note_on_c, 0, 53, 0
4, 216720, Note_on_c, 0, 54, 66
4, 217200, Note_on_c, 0, 54, 0
4, 217200, Control_c, 0, 64, 0
4, 217200, Note_on_c, 0, 55, 59
4, 217440, Note_on_c, 0, 55, 0
4, 217440, Note_on_c, 0, 56, 56
4, 217680, Note_on_c, 0, 56, 0
4, 218160, Note_on_c, 0, 49, 53
4, 218640, Note_on_c, 0, 49, 0
4, 218640, Note_on_c, 0, 44, 55
4, 218880, Note_on_c, 0, 44, 0
4, 218880, Note_on_c, 0, 48, 56
4, 219360, Note_on_c, 0, 48, 0
4, 219360, Note_on_c, 0, 44, 58
4, 219600, Note_on_c, 0, 44, 0
4, 219600, Note_on_c, 0, 51, 59
4, 220080, Note_on_c, 0, 51, 0
4, 220080, Note_on_c, 0, 44, 61
4, 220320, Note_on_c, 0, 44, 0
4, 220320, Note_on_c, 0, 49, 62
4, 220800, Note_on_c, 0, 49, 0
4, 220800, Note_on_c, 0, 44, 64
4, 221040, Note_on_c, 0, 44, 0
4, 221040, Note_on_c, 0, 53, 68
4, 221520, Note_on_c, 0, 53, 0
4, 221520, Note_on_c, 0, 49, 75
4, 221760, Note_on_c, 0, 49, 0
4, 221760, Note_on_c, 0, 49, 79
4, 221760, Note_on_c, 0, 54, 79
4, 222240, Note_on_c, 0, 54, 0
4, 222240, Note_on_c, 0, 49, 0
4, 222240, Note_on_c, 0, 53, 69
4, 222480, Note_on_c, 0, 53, 0
4, 222480, Note_on_c, 0, 54, 66
4, 222960, Note_on_c, 0, 54, 0
4, 222960, Control_c, 0, 64, 0
4, 222960, Note_on_c, 0, 55, 59
4, 223200, Note_on_c, 0, 55, 0
4, 223200, Note_on_c, 0, 56, 56
4, 223440, Note_on_c, 0, 56, 0
4, 223920, Note_on_c, 0, 56, 55
4, 224400, Note_on_c, 0, 56, 0
4, 224400, Note_on_c, 0, 51, 56
4, 224640, Note_on_c, 0, 51, 0
4, 224640, Note_on_c, 0, 58, 57
4, 225120, Note_on_c, 0, 58, 0
4, 225120, Note_on_c, 0, 51, 58
4, 225360, Note_on_c, 0, 51, 0
4, 225360, Note_on_c, 0, 60, 59
4, 225840, Note_on_c, 0, 60, 0
4, 225840, Note_on_c, 0, 56, 60
4, 226080, Note_on_c, 0, 56, 0
4, 226080, Note_on_c, 0, 61, 61
4, 226560, Note_on_c, 0, 61, 0
4, 226560, Note_on_c, 0, 56, 62
4, 226800, Note_on_c, 0, 56, 0
4, 226800, Note_on_c, 0, 61, 63
4, 227280, Note_on_c, 0, 61, 0
4, 227280, Note_on_c, 0, 56, 64
4, 227520, Note_on_c, 0, 56, 0
4, 227520, Note_on_c, 0, 63, 65
4, 228000, Note_on_c, 0, 63, 0
4, 228000, Note_on_c, 0, 56, 66
4, 228240, Note_on_c, 0, 56, 0
4, 228240, Note_on_c, 0, 65, 67
4, 228720, Note_on_c, 0, 65, 0
4, 228720, Note_on_c, 0, 61, 68
4, 228960, Note_on_c, 0, 61, 0
4, 228960, Note_on_c, 0, 66, 69
4, 229440, Note_on_c, 0, 66, 0
4, 229440, Note_on_c, 0, 61, 70
4, 229680, Note_on_c, 0, 61, 0
4, 229680, Note_on_c, 0, 66, 71
4, 230160, Note_on_c, 0, 66, 0
4, 230160, Note_on_c, 0, 61, 74
4, 230400, Note_on_c, 0, 61, 0
4, 230400, Note_on_c, 0, 68, 76
4, 230880, Note_on_c, 0, 68, 0
4, 230880, Note_on_c, 0, 61, 78
4, 231120, Note_on_c, 0, 61, 0
4, 231120, Note_on_c, 0, 65, 80
4, 231600, Note_on_c, 0, 65, 0
4, 231600, Note_on_c, 0, 61, 83
4, 231840, Note_on_c, 0, 61, 0
4, 231840, Note_on_c, 0, 66, 84
4, 232320, Note_on_c, 0, 66, 0
4, 232320, Note_on_c, 0, 61, 87
4, 232560, Note_on_c, 0, 61, 0
4, 232560, Note_on_c, 0, 64, 94
4, 233040, Note_on_c, 0, 64, 0
4, 233040, Note_on_c, 0, 64, 83
4, 233040, Note_on_c, 0, 61, 83
4, 233280, Note_on_c, 0, 61, 0
4, 233280, Note_on_c, 0, 64, 0
4, 233280, Note_on_c, 0, 65, 74
4, 233760, Note_on_c, 0, 65, 0
4, 233760, Note_on_c, 0, 61, 65
4, 234000, Note_on_c, 0, 61, 0
4, 235440, Note_on_c, 0, 56, 55
4, 235920, Note_on_c, 0, 56, 0
4, 235920, Note_on_c, 0, 51, 56
4, 236160, Note_on_c, 0, 51, 0
4, 236160, Note_on_c, 0, 58, 57
4, 236640, Note_on_c, 0, 58, 0
4, 236640, Note_on_c, 0, 51, 58
4, 236880, Note_on_c, 0, 51, 0
4, 236880, Note_on_c, 0, 60, 59
4, 237360, Note_on_c, 0, 60, 0
4, 237360, Note_on_c, 0, 56, 60
4, 237600, Note_on_c, 0, 56, 0
4, 237600, Note_on_c, 0, 61, 61
4, 238080, Note_on_c, 0, 61, 0
4, 238080, Note_on_c, 0, 56, 62
4, 238320, Note_on_c, 0, 56, 0
4, 238320, Note_on_c, 0, 61, 63
4, 238800, Note_on_c, 0, 61, 0
4, 238800, Note_on_c, 0, 56, 64
4, 239040, Note_on_c, 0, 56, 0
4, 239040, Note_on_c, 0, 63, 65
4, 239520, Note_on_c, 0, 63, 0
4, 239520, Note_on_c, 0, 56, 66
4, 239760, Note_on_c, 0, 56, 0
4, 239760, Note_on_c, 0, 65, 67
4, 240240, Note_on_c, 0, 65, 0
4, 240240, Note_on_c, 0, 61, 68
4, 240480, Note_on_c, 0, 61, 0
4, 240480, Note_on_c, 0, 66, 69
4, 240960, Note_on_c, 0, 66, 0
4, 240960, Note_on_c, 0, 61, 70
4, 241200, Note_on_c, 0, 61, 0
4, 241200, Note_on_c, 0, 66, 71
4, 241680, Note_on_c, 0, 66, 0
4, 241680, Note_on_c, 0, 61, 74
4, 241920, Note_on_c, 0, 61, 0
4, 241920, Note_on_c, 0, 68, 76
4, 242400, Note_on_c, 0, 68, 0
4, 242400, Note_on_c, 0, 61, 78
4, 242640, Note_on_c, 0, 61, 0
4, 242640, Note_on_c, 0, 65, 80
4, 243120, Note_on_c, 0, 65, 0
4, 243120, Note_on_c, 0, 61, 83
4, 243360, Note_on_c, 0, 61, 0
4, 243360, Note_on_c, 0, 66, 84
4, 243840, Note_on_c, 0, 66, 0
4, 243840, Note_on_c, 0, 61, 87
4, 244080, Note_on_c, 0, 61, 0
4, 244080, Note_on_c, 0, 64, 94
4, 244560, Note_on_c, 0, 64, 0
4, 244560, Note_on_c, 0, 61, 83
4, 244560, Note_on_c, 0, 64, 83
4, 244800, Note_on_c, 0, 64, 0
4, 244800, Note_on_c, 0, 61, 0
4, 244800, Note_on_c, 0, 65, 74
4, 245280, Note_on_c, 0, 65, 0
4, 245280, Note_on_c, 0, 61, 65
4, 245520, Note_on_c, 0, 61, 0
4, 246720, Control_c, 0, 64, 0
4, 246960, Note_on_c, 0, 46, 68
4, 247680, Note_on_c, 0, 46, 0
4, 247680, Note_on_c, 0, 44, 60
4, 247800, Note_on_c, 0, 44, 0
4, 248400, Note_on_c, 0, 53, 82
4, 249120, Note_on_c, 0, 53, 0
4, 249120, Note_on_c, 0, 51, 62
4, 249125, Note_on_c, 0, 51, 0
4, 249600, Control_c, 0, 64, 0
4, 261120, Control_c, 0, 64, 0
4, 264480, Note_on_c, 0, 46, 71
4, 264575, Note_on_c, 0, 46, 0
4, 265200, Note_on_c, 0, 46, 75
4, 265295, Note_on_c, 0, 46, 0
4, 265920, Note_on_c, 0, 46, 78
4, 266015, Note_on_c, 0, 46, 0
4, 267360, Note_on_c, 0, 48, 85
4, 267455, Note_on_c, 0, 48, 0
4, 268080, Note_on_c, 0, 48, 89
4, 268175, Note_on_c, 0, 48, 0
4, 268800, Note_on_c, 0, 48, 92
4, 268895, Note_on_c, 0, 48, 0
4, 269520, Note_on_c, 0, 48, 96
4, 269615, Note_on_c, 0, 48, 0
4, 270240, Note_on_c, 0, 60, 79
4, 270335, Note_on_c, 0, 60, 0
4, 270960, Note_on_c, 0, 60, 77
4, 271055, Note_on_c, 0, 60, 0
4, 271680, Note_on_c, 0, 60, 75
4, 271775, Note_on_c, 0, 60, 0
4, 272400, Note_on_c, 0, 60, 73
4, 272495, Note_on_c, 0, 60, 0
4, 273120, Note_on_c, 0, 64, 71
4, 273215, Note_on_c, 0, 64, 0
4, 273840, Note_on_c, 0, 64, 70
4, 273935, Note_on_c, 0, 64, 0
4, 274560, Note_on_c, 0, 64, 68
4, 274655, Note_on_c, 0, 64, 0
4, 275280, Note_on_c, 0, 64, 66
4, 275375, Note_on_c, 0, 64, 0
4, 276000, Note_on_c, 0, 67, 64
4, 276095, Note_on_c, 0, 67, 0
4, 276720, Note_on_c, 0, 67, 62
4, 276815, Note_on_c, 0, 67, 0
4, 277440, Note_on_c, 0, 67, 60
4, 277535, Note_on_c, 0, 67, 0
4, 278160, Note_on_c, 0, 67, 58
4, 278255, Note_on_c, 0, 67, 0
4, 279120, Note_on_c, 0, 67, 55
4, 279215, Note_on_c, 0, 67, 0
4, 279840, Note_on_c, 0, 67, 53
4, 279935, Note_on_c, 0, 67, 0
4, 280560, Note_on_c, 0, 67, 51
4, 280655, Note_on_c, 0, 67, 0
4, 281520, Note_on_c, 0, 53, 95
4, 282240, Note_on_c, 0, 53, 0
4, 282240, Note_on_c, 0, 51, 87
4, 282335, Note_on_c, 0, 51, 0
4, 282720, Note_on_c, 0, 52, 100
4, 283200, Note_on_c, 0, 52, 0
4, 283200, Note_on_c, 0, 53, 81
4, 283295, Note_on_c, 0, 53, 0
4, 283440, Note_on_c, 0, 50, 79
4, 283535, Note_on_c, 0, 50, 0
4, 283680, Note_on_c, 0, 51, 77
4, 283775, Note_on_c, 0, 51, 0
4, 284400, Note_on_c, 0, 46, 84
4, 285120, Note_on_c, 0, 46, 0
4, 285120, Note_on_c, 0, 44, 77
4, 285215, Note_on_c, 0, 44, 0
4, 285600, Note_on_c, 0, 45, 91
4, 286050, Note_on_c, 0, 45, 0
4, 286080, Note_on_c, 0, 46, 72
4, 286175, Note_on_c, 0, 46, 0
4, 286320, Note_on_c, 0, 43, 71
4, 286415, Note_on_c, 0, 43, 0
4, 300240, Control_c, 0, 10, 55
4, 300240, Control_c, 0, 7, 127
4, 300240, Pitch_bend_c, 0, 8192
4, 300240, Control_c, 0, 1, 0
4, 300240, Control_c, 0, 64, 0
4, 300240, Control_c, 0, 93, 28
4, 300240, Control_c, 0, 91, 91
4, 302160, Note_on_c, 0, 44, 67
4, 302160, Note_on_c, 0, 32, 67
4, 303120, Note_on_c, 0, 32, 0
4, 303120, Note_on_c, 0, 32, 65
4, 304072, Note_on_c, 0, 44, 0
4, 304080, Note_on_c, 0, 32, 0
4, 304080, Note_on_c, 0, 39, 69
4, 304338, Note_on_c, 0, 39, 0
4, 304440, Note_on_c, 0, 39, 63
4, 304542, Note_on_c, 0, 39, 0
4, 304560, Note_on_c, 0, 43, 63
4, 304818, Note_on_c, 0, 43, 0
4, 304920, Note_on_c, 0, 46, 60
4, 305022, Note_on_c, 0, 46, 0
4, 305040, Note_on_c, 0, 51, 59
4, 305347, Note_on_c, 0, 51, 0
4, 305520, Note_on_c, 0, 49, 60
4, 305520, Note_on_c, 0, 51, 60
4, 305880, Note_on_c, 0, 51, 0
4, 305880, Note_on_c, 0, 49, 0
4, 305880, Note_on_c, 0, 49, 63
4, 305880, Note_on_c, 0, 51, 63
4, 306000, Note_on_c, 0, 51, 0
4, 306000, Note_on_c, 0, 49, 0
4, 306000, Note_on_c, 0, 51, 64
4, 306000, Note_on_c, 0, 47, 64
4, 306480, Note_on_c, 0, 47, 0
4, 306480, Note_on_c, 0, 51, 0
4, 306480, Note_on_c, 0, 44, 68
4, 306480, Note_on_c, 0, 51, 68
4, 306840, Note_on_c, 0, 51, 0
4, 306840, Note_on_c, 0, 44, 0
4, 306840, Note_on_c, 0, 44, 72
4, 306840, Note_on_c, 0, 51, 72
4, 306960, Note_on_c, 0, 51, 0
4, 306960, Note_on_c, 0, 44, 0
4, 306960, Note_on_c, 0, 43, 73
4, 306960, Note_on_c, 0, 51, 73
4, 307440, Note_on_c, 0, 51, 0
4, 307440, Note_on_c, 0, 43, 0
4, 307440, Note_on_c, 0, 44, 77
4, 307440, Note_on_c, 0, 51, 77
4, 307800, Note_on_c, 0, 51, 0
4, 307800, Note_on_c, 0, 44, 0
4, 307800, Note_on_c, 0, 44, 80
4, 307800, Note_on_c, 0, 51, 80
4, 307920, Note_on_c, 0, 51, 0
4, 307920, Note_on_c, 0, 44, 0
4, 307920, Note_on_c, 0, 39, 80
4, 307920, Note_on_c, 0, 51, 80
4, 308280, Note_on_c, 0, 51, 0
4, 308280, Note_on_c, 0, 39, 0
4, 308400, Note_on_c, 0, 51, 70
4, 308400, Note_on_c, 0, 39, 70
4, 308760, Note_on_c, 0, 39, 0
4, 308760, Note_on_c, 0, 51, 0
4, 308880, Note_on_c, 0, 51, 61
4, 308880, Note_on_c, 0, 39, 61
4, 309240, Note_on_c, 0, 39, 0
4, 309240, Note_on_c, 0, 51, 0
4, 309840, Note_on_c, 0, 32, 73
4, 309840, Note_on_c, 0, 44, 73
4, 310800, Note_on_c, 0, 32, 0
4, 310800, Note_on_c, 0, 32, 71
4, 311640, Note_on_c, 0, 32, 0
4, 311640, Note_on_c, 0, 44, 0
4, 311760, Note_on_c, 0, 39, 87
4, 312019, Note_on_c, 0, 39, 0
4, 312120, Note_on_c, 0, 39, 78
4, 312223, Note_on_c, 0, 39, 0
4, 312240, Note_on_c, 0, 42, 76
4, 312499, Note_on_c, 0, 42, 0
4, 312600, Note_on_c, 0, 46, 72
4, 312703, Note_on_c, 0, 46, 0
4, 312720, Note_on_c, 0, 51, 71
4, 313020, Note_on_c, 0, 51, 0
4, 313200, Note_on_c, 0, 47, 70
4, 313560, Note_on_c, 0, 47, 0
4, 313560, Note_on_c, 0, 47, 68
4, 313680, Note_on_c, 0, 47, 0
4, 313680, Note_on_c, 0, 44, 68
4, 314160, Note_on_c, 0, 44, 0
4, 314160, Note_on_c, 0, 40, 66
4, 314520, Note_on_c, 0, 40, 0
4, 314520, Note_on_c, 0, 40, 64
4, 314640, Note_on_c, 0, 40, 0
4, 314640, Note_on_c, 0, 42, 64
4, 315120, Note_on_c, 0, 42, 0
4, 315120, Note_on_c, 0, 42, 62
4, 315120, Note_on_c, 0, 30, 62
4, 315480, Note_on_c, 0, 30, 0
4, 315480, Note_on_c, 0, 42, 0
4, 315480, Note_on_c, 0, 30, 60
4, 315480, Note_on_c, 0, 42, 60
4, 315600, Note_on_c, 0, 42, 0
4, 315600, Note_on_c, 0, 30, 0
4, 315600, Note_on_c, 0, 35, 60
4, 315600, Note_on_c, 0, 47, 60
4, 315960, Note_on_c, 0, 47, 0
4, 315960, Note_on_c, 0, 35, 0
4, 316080, Note_on_c, 0, 35, 55
4, 316080, Note_on_c, 0, 47, 55
4, 316440, Note_on_c, 0, 47, 0
4, 316440, Note_on_c, 0, 35, 0
4, 316560, Note_on_c, 0, 35, 49
4, 316560, Note_on_c, 0, 47, 49
4, 316920, Note_on_c, 0, 47, 0
4, 316920, Note_on_c, 0, 35, 0
4, 317520, Note_on_c, 0, 35, 72
4, 317520, Note_on_c, 0, 47, 72
4, 318480, Note_on_c, 0, 35, 0
4, 318480, Note_on_c, 0, 35, 74
4, 319440, Note_on_c, 0, 35, 0
4, 319440, Note_on_c, 0, 47, 0
4, 319440, Note_on_c, 0, 30, 83
4, 319440, Note_on_c, 0, 42, 83
4, 319743, Note_on_c, 0, 42, 0
4, 319743, Note_on_c, 0, 30, 0
4, 319800, Note_on_c, 0, 30, 75
4, 319800, Note_on_c, 0, 42, 75
4, 319911, Note_on_c, 0, 42, 0
4, 319911, Note_on_c, 0, 30, 0
4, 319920, Note_on_c, 0, 34, 74
4, 319920, Note_on_c, 0, 46, 74
4, 320223, Note_on_c, 0, 46, 0
4, 320223, Note_on_c, 0, 34, 0
4, 320280, Note_on_c, 0, 37, 72
4, 320280, Note_on_c, 0, 49, 72
4, 320391, Note_on_c, 0, 49, 0
4, 320391, Note_on_c, 0, 37, 0
4, 320400, Note_on_c, 0, 42, 72
4, 320400, Note_on_c, 0, 54, 72
4, 320700, Note_on_c, 0, 42, 0
4, 320707, Note_on_c, 0, 54, 0
4, 320880, Note_on_c, 0, 40, 69
4, 320880, Note_on_c, 0, 52, 69
4, 321240, Note_on_c, 0, 52, 0
4, 321240, Note_on_c, 0, 40, 0
4, 321240, Note_on_c, 0, 40, 68
4, 321240, Note_on_c, 0, 52, 68
4, 321360, Note_on_c, 0, 52, 0
4, 321360, Note_on_c, 0, 40, 0
4, 321360, Note_on_c, 0, 38, 68
4, 321360, Note_on_c, 0, 50, 68
4, 321840, Note_on_c, 0, 50, 0
4, 321840, Note_on_c, 0, 38, 0
4, 321840, Note_on_c, 0, 35, 66
4, 321840, Note_on_c, 0, 47, 66
4, 322200, Note_on_c, 0, 47, 0
4, 322200, Note_on_c, 0, 35, 0
4, 322200, Note_on_c, 0, 35, 64
4, 322200, Note_on_c, 0, 47, 64
4, 322320, Note_on_c, 0, 47, 0
4, 322320, Note_on_c, 0, 35, 0
4, 322320, Note_on_c, 0, 34, 64
4, 322320, Note_on_c, 0, 46, 64
4, 322800, Note_on_c, 0, 46, 0
4, 322800, Note_on_c, 0, 34, 0
4, 322800, Note_on_c, 0, 35, 62
4, 322800, Note_on_c, 0, 47, 62
4, 323160, Note_on_c, 0, 47, 0
4, 323160, Note_on_c, 0, 35, 0
4, 323160, Note_on_c, 0, 35, 61
4, 323160, Note_on_c, 0, 47, 61
4, 323280, Note_on_c, 0, 47, 0
4, 323280, Note_on_c, 0, 35, 0
4, 323280, Note_on_c, 0, 30, 60
4, 323280, Note_on_c, 0, 42, 60
4, 323640, Note_on_c, 0, 42, 0
4, 323640, Note_on_c, 0, 30, 0
4, 323760, Note_on_c, 0, 30, 54
4, 323760, Note_on_c, 0, 42, 54
4, 324120, Note_on_c, 0, 42, 0
4, 324120, Note_on_c, 0, 30, 0
4, 324240, Note_on_c, 0, 30, 47
4, 324240, Note_on_c, 0, 42, 47
4, 324600, Note_on_c, 0, 42, 0
4, 324600, Note_on_c, 0, 30, 0
4, 325200, Note_on_c, 0, 47, 72
4, 325200, Note_on_c, 0, 35, 72
4, 326160, Note_on_c, 0, 35, 0
4, 326160, Note_on_c, 0, 35, 71
4, 327120, Note_on_c, 0, 35, 0
4, 327120, Note_on_c, 0, 47, 0
4, 327120, Note_on_c, 0, 40, 82
4, 327423, Note_on_c, 0, 40, 0
4, 327480, Note_on_c, 0, 40, 77
4, 327591, Note_on_c, 0, 40, 0
4, 327600, Note_on_c, 0, 43, 75
4, 327903, Note_on_c, 0, 43, 0
4, 327960, Note_on_c, 0, 47, 70
4, 328071, Note_on_c, 0, 47, 0
4, 328080, Note_on_c, 0, 52, 68
4, 328387, Note_on_c, 0, 52, 0
4, 328560, Note_on_c, 0, 43, 62
4, 328560, Note_on_c, 0, 52, 62
4, 328920, Note_on_c, 0, 52, 0
4, 328920, Note_on_c, 0, 43, 0
4, 328920, Note_on_c, 0, 43, 65
4, 328920, Note_on_c, 0, 52, 65
4, 329040, Note_on_c, 0, 52, 0
4, 329040, Note_on_c, 0, 43, 0
4, 329040, Note_on_c, 0, 54, 65
4, 329040, Note_on_c, 0, 45, 65
4, 329040, Note_on_c, 0, 50, 65
4, 329520, Note_on_c, 0, 50, 0
4, 329520, Note_on_c, 0, 45, 0
4, 329520, Note_on_c, 0, 54, 0
4, 329520, Note_on_c, 0, 54, 68
4, 329520, Note_on_c, 0, 45, 68
4, 329520, Note_on_c, 0, 50, 68
4, 329880, Note_on_c, 0, 50, 0
4, 329880, Note_on_c, 0, 45, 0
4, 329880, Note_on_c, 0, 54, 0
4, 329880, Note_on_c, 0, 54, 71
4, 329880, Note_on_c, 0, 50, 71
4, 329880, Note_on_c, 0, 45, 71
4, 330000, Note_on_c, 0, 45, 0
4, 330000, Note_on_c, 0, 50, 0
4, 330000, Note_on_c, 0, 54, 0
4, 330000, Note_on_c, 0, 45, 72
4, 330000, Note_on_c, 0, 49, 72
4, 330000, Note_on_c, 0, 52, 72
4, 330480, Note_on_c, 0, 52, 0
4, 330480, Note_on_c, 0, 49, 0
4, 330480, Note_on_c, 0, 45, 0
4, 330480, Note_on_c, 0, 52, 75
4, 330480, Note_on_c, 0, 45, 75
4, 330480, Note_on_c, 0, 49, 75
4, 330840, Note_on_c, 0, 49, 0
4, 330840, Note_on_c, 0, 45, 0
4, 330840, Note_on_c, 0, 52, 0
4, 330840, Note_on_c, 0, 49, 78
4, 330840, Note_on_c, 0, 45, 78
4, 330840, Note_on_c, 0, 52, 78
4, 330960, Note_on_c, 0, 52, 0
4, 330960, Note_on_c, 0, 45, 0
4, 330960, Note_on_c, 0, 49, 0
4, 330960, Note_on_c, 0, 38, 70
4, 330960, Note_on_c, 0, 50, 70
4, 331320, Note_on_c, 0, 50, 0
4, 331320, Note_on_c, 0, 38, 0
4, 331440, Note_on_c, 0, 38, 62
4, 331440, Note_on_c, 0, 50, 62
4, 331800, Note_on_c, 0, 50, 0
4, 331800, Note_on_c, 0, 38, 0
4, 331920, Note_on_c, 0, 38, 55
4, 331920, Note_on_c, 0, 50, 55
4, 332280, Note_on_c, 0, 50, 0
4, 332280, Note_on_c, 0, 38, 0
4, 332400, Note_on_c, 0, 56, 47
4, 332400, Note_on_c, 0, 50, 47
4, 332760, Note_on_c, 0, 50, 0
4, 332760, Note_on_c, 0, 56, 0
4, 332760, Note_on_c, 0, 56, 55
4, 332760, Note_on_c, 0, 50, 55
4, 332880, Note_on_c, 0, 50, 0
4, 332880, Note_on_c, 0, 56, 0
4, 332880, Note_on_c, 0, 56, 61
4, 332880, Note_on_c, 0, 50, 61
4, 333360, Note_on_c, 0, 50, 0
4, 333360, Note_on_c, 0, 50, 56
4, 333840, Note_on_c, 0, 50, 0
4, 333840, Note_on_c, 0, 56, 0
4, 333840, Note_on_c, 0, 50, 55
4, 333840, Note_on_c, 0, 58, 55
4, 334320, Note_on_c, 0, 58, 0
4, 334320, Note_on_c, 0, 50, 0
4, 334320, Note_on_c, 0, 50, 53
4, 334320, Note_on_c, 0, 59, 53
4, 334800, Note_on_c, 0, 59, 0
4, 334800, Note_on_c, 0, 50, 0
4, 334800, Note_on_c, 0, 58, 51
4, 334800, Note_on_c, 0, 51, 51
4, 334999, Note_on_c, 0, 51, 0
4, 334999, Note_on_c, 0, 58, 0
4, 335160, Note_on_c, 0, 50, 65
4, 335160, Note_on_c, 0, 56, 65
4, 335280, Note_on_c, 0, 56, 0
4, 335280, Note_on_c, 0, 50, 0
4, 335280, Note_on_c, 0, 50, 72
4, 335280, Note_on_c, 0, 56, 72
4, 335760, Note_on_c, 0, 50, 0
4, 335760, Note_on_c, 0, 50, 68
4, 336240, Note_on_c, 0, 50, 0
4, 336240, Note_on_c, 0, 56, 0
4, 336240, Note_on_c, 0, 50, 64
4, 336240, Note_on_c, 0, 58, 64
4, 336600, Note_on_c, 0, 58, 0
4, 336600, Note_on_c, 0, 50, 0
4, 336600, Note_on_c, 0, 50, 61
4, 336600, Note_on_c, 0, 59, 61
4, 336720, Note_on_c, 0, 59, 0
4, 336720, Note_on_c, 0, 50, 0
4, 336720, Note_on_c, 0, 51, 60
4, 336720, Note_on_c, 0, 58, 60
4, 336960, Note_on_c, 0, 58, 0
4, 336960, Note_on_c, 0, 51, 0
4, 337080, Note_on_c, 0, 50, 93
4, 337080, Note_on_c, 0, 56, 93
4, 337176, Note_on_c, 0, 56, 0
4, 337176, Note_on_c, 0, 50, 0
4, 337200, Note_on_c, 0, 50, 95
4, 337200, Note_on_c, 0, 56, 95
4, 337488, Note_on_c, 0, 56, 0
4, 337488, Note_on_c, 0, 50, 0
4, 337560, Note_on_c, 0, 50, 100
4, 337560, Note_on_c, 0, 56, 100
4, 337656, Note_on_c, 0, 56, 0
4, 337656, Note_on_c, 0, 50, 0
4, 337680, Note_on_c, 0, 56, 102
4, 337680, Note_on_c, 0, 50, 102
4, 337968, Note_on_c, 0, 50, 0
4, 337968, Note_on_c, 0, 56, 0
4, 338040, Note_on_c, 0, 56, 107
4, 338040, Note_on_c, 0, 50, 107
4, 338136, Note_on_c, 0, 50, 0
4, 338136, Note_on_c, 0, 56, 0
4, 338160, Note_on_c, 0, 58, 109
4, 338160, Note_on_c, 0, 50, 109
4, 338448, Note_on_c, 0, 50, 0
4, 338448, Note_on_c, 0, 58, 0
4, 338520, Note_on_c, 0, 50, 114
4, 338520, Note_on_c, 0, 59, 114
4, 338616, Note_on_c, 0, 59, 0
4, 338616, Note_on_c, 0, 50, 0
4, 338640, Note_on_c, 0, 51, 116
4, 338640, Note_on_c, 0, 58, 116
4, 338832, Note_on_c, 0, 58, 0
4, 338832, Note_on_c, 0, 51, 0
4, 339120, Note_on_c, 0, 52, 123
4, 340080, Note_on_c, 0, 52, 0
4, 340080, Note_on_c, 0, 51, 103
4, 340176, Note_on_c, 0, 51, 0
4, 340200, Note_on_c, 0, 49, 99
4, 340296, Note_on_c, 0, 49, 0
4, 340320, Note_on_c, 0, 47, 94
4, 340416, Note_on_c, 0, 47, 0
4, 340440, Note_on_c, 0, 46, 89
4, 340536, Note_on_c, 0, 46, 0
4, 340560, Note_on_c, 0, 44, 85
4, 340560, Note_on_c, 0, 32, 85
4, 341520, Note_on_c, 0, 32, 0
4, 341520, Note_on_c, 0, 32, 72
4, 342480, Note_on_c, 0, 32, 0
4, 342480, Note_on_c, 0, 44, 0
4, 342480, Note_on_c, 0, 39, 72
4, 342739, Note_on_c, 0, 39, 0
4, 342840, Note_on_c, 0, 39, 70
4, 342943, Note_on_c, 0, 39, 0
4, 342960, Note_on_c, 0, 43, 71
4, 343219, Note_on_c, 0, 43, 0
4, 343320, Note_on_c, 0, 46, 74
4, 343423, Note_on_c, 0, 46, 0
4, 343440, Note_on_c, 0, 51, 75
4, 343747, Note_on_c, 0, 51, 0
4, 343920, Note_on_c, 0, 49, 78
4, 344280, Note_on_c, 0, 49, 0
4, 344280, Note_on_c, 0, 49, 80
4, 344400, Note_on_c, 0, 49, 0
4, 344400, Note_on_c, 0, 47, 81
4, 344460, Note_on_c, 0, 49, 82
4, 344500, Note_on_c, 0, 47, 0
4, 344520, Note_on_c, 0, 47, 82
4, 344560, Note_on_c, 0, 49, 0
4, 344580, Note_on_c, 0, 49, 82
4, 344620, Note_on_c, 0, 47, 0
4, 344640, Note_on_c, 0, 47, 83
4, 344680, Note_on_c, 0, 49, 0
4, 344700, Note_on_c, 0, 49, 83
4, 344740, Note_on_c, 0, 47, 0
4, 344760, Note_on_c, 0, 47, 84
4, 344800, Note_on_c, 0, 49, 0
4, 344820, Note_on_c, 0, 49, 84
4, 344860, Note_on_c, 0, 47, 0
4, 344880, Note_on_c, 0, 47, 84
4, 344920, Note_on_c, 0, 49, 0
4, 344960, Note_on_c, 0, 49, 85
4, 345000, Note_on_c, 0, 47, 0
4, 345040, Note_on_c, 0, 47, 85
4, 345080, Note_on_c, 0, 49, 0
4, 345120, Note_on_c, 0, 46, 86
4, 345160, Note_on_c, 0, 47, 0
4, 345240, Note_on_c, 0, 44, 87
4, 345268, Note_on_c, 0, 46, 0
4, 345360, Note_on_c, 0, 44, 0
4, 345360, Note_on_c, 0, 43, 88
4, 345840, Note_on_c, 0, 43, 0
4, 345840, Note_on_c, 0, 44, 91
4, 346200, Note_on_c, 0, 44, 0
4, 346200, Note_on_c, 0, 44, 93
4, 346320, Note_on_c, 0, 44, 0
4, 346320, Note_on_c, 0, 39, 95
4, 346680, Note_on_c, 0, 39, 0
4, 346800, Note_on_c, 0, 39, 81
4, 347160, Note_on_c, 0, 39, 0
4, 347280, Note_on_c, 0, 39, 66
4, 347640, Note_on_c, 0, 39, 0
4, 348240, Note_on_c, 0, 44, 76
4, 348240, Note_on_c, 0, 32, 76
4, 349200, Note_on_c, 0, 32, 0
4, 349200, Note_on_c, 0, 32, 77
4, 350160, Note_on_c, 0, 32, 0
4, 350160, Note_on_c, 0, 44, 0
4, 350160, Note_on_c, 0, 37, 83
4, 350463, Note_on_c, 0, 37, 0
4, 350520, Note_on_c, 0, 37, 86
4, 350631, Note_on_c, 0, 37, 0
4, 350640, Note_on_c, 0, 40, 86
4, 350943, Note_on_c, 0, 40, 0
4, 351000, Note_on_c, 0, 44, 89
4, 351111, Note_on_c, 0, 44, 0
4, 351120, Note_on_c, 0, 49, 95
4, 351420, Note_on_c, 0, 49, 0
4, 352440, Note_on_c, 0, 33, 98
4, 352440, Note_on_c, 0, 45, 98
4, 352551, Note_on_c, 0, 45, 0
4, 352551, Note_on_c, 0, 33, 0
4, 352560, Note_on_c, 0, 37, 99
4, 352560, Note_on_c, 0, 49, 99
4, 352863, Note_on_c, 0, 49, 0
4, 352863, Note_on_c, 0, 37, 0
4, 352920, Note_on_c, 0, 40, 102
4, 352920, Note_on_c, 0, 52, 102
4, 353031, Note_on_c, 0, 52, 0
4, 353031, Note_on_c, 0, 40, 0
4, 353040, Note_on_c, 0, 45, 105
4, 353040, Note_on_c, 0, 57, 105
4, 353400, Note_on_c, 0, 57, 0
4, 353400, Note_on_c, 0, 45, 0
4, 354360, Note_on_c, 0, 43, 111
4, 354360, Note_on_c, 0, 55, 111
4, 354471, Note_on_c, 0, 55, 0
4, 354471, Note_on_c, 0, 43, 0
4, 354480, Note_on_c, 0, 46, 114
4, 354480, Note_on_c, 0, 58, 114
4, 354783, Note_on_c, 0, 58, 0
4, 354783, Note_on_c, 0, 46, 0
4, 354840, Note_on_c, 0, 51, 114
4, 354840, Note_on_c, 0, 63, 114
4, 354951, Note_on_c, 0, 63, 0
4, 354951, Note_on_c, 0, 51, 0
4, 354960, Note_on_c, 0, 55, 119
4, 354960, Note_on_c, 0, 67, 119
4, 355200, Note_on_c, 0, 67, 0
4, 355200, Note_on_c, 0, 55, 0
4, 355440, Note_on_c, 0, 43, 118
4, 355440, Note_on_c, 0, 55, 118
4, 355680, Note_on_c, 0, 55, 0
4, 355680, Note_on_c, 0, 43, 0
4, 355920, Note_on_c, 0, 44, 127
4, 355920, Note_on_c, 0, 56, 127
4, 356160, Note_on_c, 0, 56, 0
4, 356160, Note_on_c, 0, 44, 0
4, 356880, Note_on_c, 0, 37, 124
4, 356880, Note_on_c, 0, 49, 124
4, 357120, Note_on_c, 0, 49, 0
4, 357120, Note_on_c, 0, 37, 0
4, 357360, Note_on_c, 0, 39, 125
4, 357360, Note_on_c, 0, 51, 125
4, 357600, Note_on_c, 0, 51, 0
4, 357600, Note_on_c, 0, 39, 0
4, 357840, Note_on_c, 0, 32, 126
4, 357840, Note_on_c, 0, 44, 126
4, 358080, Note_on_c, 0, 44, 0
4, 358080, Note_on_c, 0, 32, 0
4, 358320, Note_on_c, 0, 32, 127
4, 358320, Note_on_c, 0, 44, 127
4, 358560, Note_on_c, 0, 44, 0
4, 358560, Note_on_c, 0, 32, 0
4, 358800, Note_on_c, 0, 32, 127
4, 359088, Note_on_c, 0, 32, 0
4, 359760, Control_c, 0, 64, 127
4, 359760, Note_on_c, 0, 32, 52
4, 359820, Note_on_c, 0, 32, 0
4, 359820, Note_on_c, 0, 44, 53
4, 359880, Note_on_c, 0, 44, 0
4, 359880, Note_on_c, 0, 32, 55
4, 359940, Note_on_c, 0, 32, 0
4, 359940, Note_on_c, 0, 44, 57
4, 360000, Note_on_c, 0, 44, 0
4, 360000, Note_on_c, 0, 32, 58
4, 360060, Note_on_c, 0, 32, 0
4, 360060, Note_on_c, 0, 44, 60
4, 360120, Note_on_c, 0, 44, 0
4, 360120, Note_on_c, 0, 32, 62
4, 360180, Note_on_c, 0, 32, 0
4, 360180, Note_on_c, 0, 44, 63
4, 360240, Note_on_c, 0, 44, 0
4, 360240, Note_on_c, 0, 32, 65
4, 360300, Note_on_c, 0, 32, 0
4, 360300, Note_on_c, 0, 44, 67
4, 360360, Note_on_c, 0, 44, 0
4, 360360, Note_on_c, 0, 32, 69
4, 360420, Note_on_c, 0, 32, 0
4, 360420, Note_on_c, 0, 44, 70
4, 360480, Note_on_c, 0, 44, 0
4, 360480, Note_on_c, 0, 32, 72
4, 360540, Note_on_c, 0, 32, 0
4, 360540, Note_on_c, 0, 44, 74
4, 360600, Note_on_c, 0, 44, 0
4, 360600, Note_on_c, 0, 32, 75
4, 360660, Note_on_c, 0, 32, 0
4, 360660, Note_on_c, 0, 44, 77
4, 360720, Note_on_c, 0, 44, 0
4, 360720, Note_on_c, 0, 32, 84
4, 360780, Note_on_c, 0, 32, 0
4, 361080, Note_on_c, 0, 60, 93
4, 361080, Note_on_c, 0, 56, 93
4, 361140, Note_on_c, 0, 56, 0
4, 361140, Note_on_c, 0, 60, 0
4, 361200, Note_on_c, 0, 60, 95
4, 361200, Note_on_c, 0, 63, 95
4, 361320, Note_on_c, 0, 63, 0
4, 361320, Note_on_c, 0, 60, 0
4, 361440, Control_c, 0, 64, 0
4, 361680, Control_c, 0, 64, 127
4, 361680, Note_on_c, 0, 32, 56
4, 361740, Note_on_c, 0, 32, 0
4, 361740, Note_on_c, 0, 44, 57
4, 361800, Note_on_c, 0, 44, 0
4, 361800, Note_on_c, 0, 32, 58
4, 361860, Note_on_c, 0, 32, 0
4, 361860, Note_on_c, 0, 44, 60
4, 361920, Note_on_c, 0, 44, 0
4, 361920, Note_on_c, 0, 32, 61
4, 361980, Note_on_c, 0, 32, 0
4, 361980, Note_on_c, 0, 44, 63
4, 362040, Note_on_c, 0, 44, 0
4, 362040, Note_on_c, 0, 32, 64
4, 362100, Note_on_c, 0, 32, 0
4, 362100, Note_on_c, 0, 44, 65
4, 362160, Note_on_c, 0, 44, 0
4, 362160, Note_on_c, 0, 32, 67
4, 362220, Note_on_c, 0, 32, 0
4, 362220, Note_on_c, 0, 44, 68
4, 362280, Note_on_c, 0, 44, 0
4, 362280, Note_on_c, 0, 32, 70
4, 362340, Note_on_c, 0, 32, 0
4, 362340, Note_on_c, 0, 44, 71
4, 362400, Note_on_c, 0, 44, 0
4, 362400, Note_on_c, 0, 32, 73
4, 362460, Note_on_c, 0, 32, 0
4, 362460, Note_on_c, 0, 44, 74
4, 362520, Note_on_c, 0, 44, 0
4, 362520, Note_on_c, 0, 32, 75
4, 362580, Note_on_c, 0, 32, 0
4, 362580, Note_on_c, 0, 44, 77
4, 362640, Note_on_c, 0, 44, 0
4, 362640, Note_on_c, 0, 32, 85
4, 362700, Note_on_c, 0, 32, 0
4, 363000, Note_on_c, 0, 60, 95
4, 363000, Note_on_c, 0, 56, 95
4, 363060, Note_on_c, 0, 56, 0
4, 363060, Note_on_c, 0, 60, 0
4, 363120, Note_on_c, 0, 60, 97
4, 363120, Note_on_c, 0, 63, 97
4, 363240, Note_on_c, 0, 63, 0
4, 363240, Note_on_c, 0, 60, 0
4, 363360, Control_c, 0, 64, 0
4, 363600, Control_c, 0, 64, 127
4, 363600, Control_c, 0, 64, 127
4, 363600, Note_on_c, 0, 34, 106
4, 363600, Note_on_c, 0, 46, 106
4, 363720, Note_on_c, 0, 46, 0
4, 363720, Note_on_c, 0, 34, 0
4, 363960, Note_on_c, 0, 63, 105
4, 363960, Note_on_c, 0, 67, 105
4, 364020, Note_on_c, 0, 67, 0
4, 364020, Note_on_c, 0, 63, 0
4, 364080, Note_on_c, 0, 70, 105
4, 364200, Note_on_c, 0, 70, 0
4, 364320, Control_c, 0, 64, 0
4, 364320, Control_c, 0, 64, 0
4, 364560, Control_c, 0, 64, 127
4, 364560, Control_c, 0, 64, 127
4, 364560, Note_on_c, 0, 34, 103
4, 364560, Note_on_c, 0, 46, 103
4, 364680, Note_on_c, 0, 46, 0
4, 364680, Note_on_c, 0, 34, 0
4, 364920, Note_on_c, 0, 62, 102
4, 364920, Note_on_c, 0, 65, 102
4, 364980, Note_on_c, 0, 65, 0
4, 364980, Note_on_c, 0, 62, 0
4, 365040, Note_on_c, 0, 70, 102
4, 365160, Note_on_c, 0, 70, 0
4, 365280, Control_c, 0, 64, 0
4, 365280, Control_c, 0, 64, 0
4, 365400, Note_on_c, 0, 46, 101
4, 365400, Note_on_c, 0, 58, 101
4, 365460, Note_on_c, 0, 58, 0
4, 365460, Note_on_c, 0, 46, 0
4, 365520, Control_c, 0, 64, 127
4, 365520, Control_c, 0, 64, 127
4, 365520, Note_on_c, 0, 51, 101
4, 365520, Note_on_c, 0, 63, 101
4, 365640, Note_on_c, 0, 63, 0
4, 365640, Note_on_c, 0, 51, 0
4, 365760, Control_c, 0, 64, 0
4, 365760, Control_c, 0, 64, 0
4, 366000, Control_c, 0, 64, 127
4, 366000, Control_c, 0, 64, 127
4, 366000, Note_on_c, 0, 43, 99
4, 366000, Note_on_c, 0, 46, 99
4, 366000, Note_on_c, 0, 39, 99
4, 366000, Note_on_c, 0, 51, 99
4, 366120, Note_on_c, 0, 51, 0
4, 366120, Note_on_c, 0, 43, 0
4, 366120, Note_on_c, 0, 46, 0
4, 366120, Note_on_c, 0, 39, 0
4, 366240, Control_c, 0, 64, 0
4, 366240, Control_c, 0, 64, 0
4, 366480, Control_c, 0, 64, 127
4, 366480, Control_c, 0, 64, 127
4, 366480, Note_on_c, 0, 43, 98
4, 366480, Note_on_c, 0, 39, 98
4, 366600, Note_on_c, 0, 39, 0
4, 366600, Note_on_c, 0, 43, 0
4, 366720, Control_c, 0, 64, 0
4, 366720, Control_c, 0, 64, 0
4, 367440, Control_c, 0, 64, 127
4, 367440, Note_on_c, 0, 32, 51
4, 367500, Note_on_c, 0, 32, 0
4, 367500, Note_on_c, 0, 44, 53
4, 367560, Note_on_c, 0, 44, 0
4, 367560, Note_on_c, 0, 32, 55
4, 367620, Note_on_c, 0, 32, 0
4, 367620, Note_on_c, 0, 44, 57
4, 367680, Note_on_c, 0, 44, 0
4, 367680, Note_on_c, 0, 32, 59
4, 367740, Note_on_c, 0, 32, 0
4, 367740, Note_on_c, 0, 44, 61
4, 367800, Note_on_c, 0, 44, 0
4, 367800, Note_on_c, 0, 32, 62
4, 367860, Note_on_c, 0, 32, 0
4, 367860, Note_on_c, 0, 44, 64
4, 367920, Note_on_c, 0, 44, 0
4, 367920, Note_on_c, 0, 32, 66
4, 367980, Note_on_c, 0, 32, 0
4, 367980, Note_on_c, 0, 44, 68
4, 368040, Note_on_c, 0, 44, 0
4, 368040, Note_on_c, 0, 32, 70
4, 368100, Note_on_c, 0, 32, 0
4, 368100, Note_on_c, 0, 44, 72
4, 368160, Note_on_c, 0, 44, 0
4, 368160, Note_on_c, 0, 32, 74
4, 368220, Note_on_c, 0, 32, 0
4, 368220, Note_on_c, 0, 44, 75
4, 368280, Note_on_c, 0, 44, 0
4, 368280, Note_on_c, 0, 32, 77
4, 368340, Note_on_c, 0, 32, 0
4, 368340, Note_on_c, 0, 44, 79
4, 368400, Note_on_c, 0, 44, 0
4, 368400, Note_on_c, 0, 32, 86
4, 368460, Note_on_c, 0, 32, 0
4, 368760, Note_on_c, 0, 56, 94
4, 368760, Note_on_c, 0, 60, 94
4, 368820, Note_on_c, 0, 60, 0
4, 368820, Note_on_c, 0, 56, 0
4, 368880, Note_on_c, 0, 63, 97
4, 368880, Note_on_c, 0, 60, 97
4, 369000, Note_on_c, 0, 60, 0
4, 369000, Note_on_c, 0, 63, 0
4, 369120, Control_c, 0, 64, 0
4, 369360, Control_c, 0, 64, 127
4, 369360, Note_on_c, 0, 32, 55
4, 369420, Note_on_c, 0, 32, 0
4, 369420, Note_on_c, 0, 44, 56
4, 369480, Note_on_c, 0, 44, 0
4, 369480, Note_on_c, 0, 32, 58
4, 369540, Note_on_c, 0, 32, 0
4, 369540, Note_on_c, 0, 44, 59
4, 369600, Note_on_c, 0, 44, 0
4, 369600, Note_on_c, 0, 32, 61
4, 369660, Note_on_c, 0, 32, 0
4, 369660, Note_on_c, 0, 44, 62
4, 369720, Note_on_c, 0, 44, 0
4, 369720, Note_on_c, 0, 32, 64
4, 369780, Note_on_c, 0, 32, 0
4, 369780, Note_on_c, 0, 44, 65
4, 369840, Note_on_c, 0, 44, 0
4, 369840, Note_on_c, 0, 32, 67
4, 369900, Note_on_c, 0, 32, 0
4, 369900, Note_on_c, 0, 44, 69
4, 369960, Note_on_c, 0, 44, 0
4, 369960, Note_on_c, 0, 32, 70
4, 370020, Note_on_c, 0, 32, 0
4, 370020, Note_on_c, 0, 44, 72
4, 370080, Note_on_c, 0, 44, 0
4, 370080, Note_on_c, 0, 32, 73
4, 370140, Note_on_c, 0, 32, 0
4, 370140, Note_on_c, 0, 44, 75
4, 370200, Note_on_c, 0, 44, 0
4, 370200, Note_on_c, 0, 32, 76
4, 370260, Note_on_c, 0, 32, 0
4, 370260, Note_on_c, 0, 44, 78
4, 370320, Note_on_c, 0, 44, 0
4, 370320, Note_on_c, 0, 32, 83
4, 370380, Note_on_c, 0, 32, 0
4, 370680, Note_on_c, 0, 56, 99
4, 370680, Note_on_c, 0, 60, 99
4, 370740, Note_on_c, 0, 60, 0
4, 370740, Note_on_c, 0, 56, 0
4, 370800, Note_on_c, 0, 63, 102
4, 370800, Note_on_c, 0, 60, 102
4, 370920, Note_on_c, 0, 60, 0
4, 370920, Note_on_c, 0, 63, 0
4, 371040, Control_c, 0, 64, 0
4, 371280, Control_c, 0, 64, 127
4, 371280, Control_c, 0, 64, 127
4, 371280, Note_on_c, 0, 46, 106
4, 371280, Note_on_c, 0, 34, 106
4, 371400, Note_on_c, 0, 34, 0
4, 371400, Note_on_c, 0, 46, 0
4, 371640, Note_on_c, 0, 67, 105
4, 371640, Note_on_c, 0, 63, 105
4, 371700, Note_on_c, 0, 63, 0
4, 371700, Note_on_c, 0, 67, 0
4, 371760, Note_on_c, 0, 70, 105
4, 371880, Note_on_c, 0, 70, 0
4, 372000, Control_c, 0, 64, 0
4, 372000, Control_c, 0, 64, 0
4, 372240, Control_c, 0, 64, 127
4, 372240, Control_c, 0, 64, 127
4, 372240, Note_on_c, 0, 46, 104
4, 372240, Note_on_c, 0, 34, 104
4, 372360, Note_on_c, 0, 34, 0
4, 372360, Note_on_c, 0, 46, 0
4, 372600, Note_on_c, 0, 65, 103
4, 372600, Note_on_c, 0, 62, 103
4, 372660, Note_on_c, 0, 62, 0
4, 372660, Note_on_c, 0, 65, 0
4, 372720, Note_on_c, 0, 70, 102
4, 372840, Note_on_c, 0, 70, 0
4, 372960, Control_c, 0, 64, 0
4, 372960, Control_c, 0, 64, 0
4, 373080, Note_on_c, 0, 58, 101
4, 373080, Note_on_c, 0, 46, 101
4, 373140, Note_on_c, 0, 46, 0
4, 373140, Note_on_c, 0, 58, 0
4, 373200, Control_c, 0, 64, 127
4, 373200, Control_c, 0, 64, 127
4, 373200, Note_on_c, 0, 63, 101
4, 373200, Note_on_c, 0, 51, 101
4, 373320, Note_on_c, 0, 51, 0
4, 373320, Note_on_c, 0, 63, 0
4, 373440, Control_c, 0, 64, 0
4, 373440, Control_c, 0, 64, 0
4, 373680, Control_c, 0, 64, 127
4, 373680, Control_c, 0, 64, 127
4, 373680, Note_on_c, 0, 51, 99
4, 373680, Note_on_c, 0, 39, 99
4, 373680, Note_on_c, 0, 46, 99
4, 373680, Note_on_c, 0, 43, 99
4, 373800, Note_on_c, 0, 43, 0
4, 373800, Note_on_c, 0, 51, 0
4, 373800, Note_on_c, 0, 39, 0
4, 373800, Note_on_c, 0, 46, 0
4, 373920, Control_c, 0, 64, 0
4, 373920, Control_c, 0, 64, 0
4, 374160, Control_c, 0, 64, 127
4, 374160, Control_c, 0, 64, 127
4, 374160, Note_on_c, 0, 39, 98
4, 374160, Note_on_c, 0, 43, 98
4, 374280, Note_on_c, 0, 43, 0
4, 374280, Note_on_c, 0, 39, 0
4, 374400, Control_c, 0, 64, 0
4, 374400, Control_c, 0, 64, 0
4, 375120, Control_c, 0, 64, 127
4, 375120, Note_on_c, 0, 39, 55
4, 375180, Note_on_c, 0, 39, 0
4, 375180, Note_on_c, 0, 51, 56
4, 375240, Note_on_c, 0, 51, 0
4, 375240, Note_on_c, 0, 39, 58
4, 375300, Note_on_c, 0, 39, 0
4, 375300, Note_on_c, 0, 51, 59
4, 375360, Note_on_c, 0, 51, 0
4, 375360, Note_on_c, 0, 39, 61
4, 375420, Note_on_c, 0, 39, 0
4, 375420, Note_on_c, 0, 51, 62
4, 375480, Note_on_c, 0, 51, 0
4, 375480, Note_on_c, 0, 39, 64
4, 375540, Note_on_c, 0, 39, 0
4, 375540, Note_on_c, 0, 51, 65
4, 375600, Note_on_c, 0, 51, 0
4, 375600, Note_on_c, 0, 39, 67
4, 375660, Note_on_c, 0, 39, 0
4, 375660, Note_on_c, 0, 51, 68
4, 375720, Note_on_c, 0, 51, 0
4, 375720, Note_on_c, 0, 39, 70
4, 375780, Note_on_c, 0, 39, 0
4, 375780, Note_on_c, 0, 51, 71
4, 375840, Note_on_c, 0, 51, 0
4, 375840, Note_on_c, 0, 39, 73
4, 375900, Note_on_c, 0, 39, 0
4, 375900, Note_on_c, 0, 51, 75
4, 375960, Note_on_c, 0, 51, 0
4, 375960, Note_on_c, 0, 39, 76
4, 376020, Note_on_c, 0, 39, 0
4, 376020, Note_on_c, 0, 51, 78
4, 376080, Note_on_c, 0, 51, 0
4, 376080, Note_on_c, 0, 39, 88
4, 376140, Note_on_c, 0, 39, 0
4, 376440, Note_on_c, 0, 55, 96
4, 376440, Note_on_c, 0, 58, 96
4, 376500, Note_on_c, 0, 58, 0
4, 376500, Note_on_c, 0, 55, 0
4, 376560, Note_on_c, 0, 61, 99
4, 376560, Note_on_c, 0, 58, 99
4, 376680, Note_on_c, 0, 58, 0
4, 376680, Note_on_c, 0, 61, 0
4, 376800, Control_c, 0, 64, 0
4, 377040, Control_c, 0, 64, 127
4, 377040, Note_on_c, 0, 39, 57
4, 377100, Note_on_c, 0, 39, 0
4, 377100, Note_on_c, 0, 51, 59
4, 377160, Note_on_c, 0, 51, 0
4, 377160, Note_on_c, 0, 39, 60
4, 377220, Note_on_c, 0, 39, 0
4, 377220, Note_on_c, 0, 51, 62
4, 377280, Note_on_c, 0, 51, 0
4, 377280, Note_on_c, 0, 39, 64
4, 377340, Note_on_c, 0, 39, 0
4, 377340, Note_on_c, 0, 51, 65
4, 377400, Note_on_c, 0, 51, 0
4, 377400, Note_on_c, 0, 39, 67
4, 377460, Note_on_c, 0, 39, 0
4, 377460, Note_on_c, 0, 51, 69
4, 377520, Note_on_c, 0, 51, 0
4, 377520, Note_on_c, 0, 39, 70
4, 377580, Note_on_c, 0, 39, 0
4, 377580, Note_on_c, 0, 51, 72
4, 377640, Note_on_c, 0, 51, 0
4, 377640, Note_on_c, 0, 39, 74
4, 377700, Note_on_c, 0, 39, 0
4, 377700, Note_on_c, 0, 51, 76
4, 377760, Note_on_c, 0, 51, 0
4, 377760, Note_on_c, 0, 39, 77
4, 377820, Note_on_c, 0, 39, 0
4, 377820, Note_on_c, 0, 51, 79
4, 377880, Note_on_c, 0, 51, 0
4, 377880, Note_on_c, 0, 39, 81
4, 377940, Note_on_c, 0, 39, 0
4, 377940, Note_on_c, 0, 51, 82
4, 378000, Note_on_c, 0, 51, 0
4, 378000, Note_on_c, 0, 39, 91
4, 378060, Note_on_c, 0, 39, 0
4, 378360, Note_on_c, 0, 70, 102
4, 378360, Note_on_c, 0, 67, 102
4, 378420, Note_on_c, 0, 67, 0
4, 378420, Note_on_c, 0, 70, 0
4, 378480, Note_on_c, 0, 70, 104
4, 378480, Note_on_c, 0, 73, 104
4, 378600, Note_on_c, 0, 73, 0
4, 378600, Note_on_c, 0, 70, 0
4, 378720, Control_c, 0, 64, 0
4, 378960, Control_c, 0, 64, 127
4, 378960, Control_c, 0, 64, 127
4, 378960, Note_on_c, 0, 32, 108
4, 378960, Note_on_c, 0, 56, 108
4, 378960, Note_on_c, 0, 44, 108
4, 379080, Note_on_c, 0, 44, 0
4, 379080, Note_on_c, 0, 56, 0
4, 379080, Note_on_c, 0, 32, 0
4, 379320, Note_on_c, 0, 72, 107
4, 379320, Note_on_c, 0, 68, 107
4, 379380, Note_on_c, 0, 68, 0
4, 379380, Note_on_c, 0, 72, 0
4, 379440, Note_on_c, 0, 75, 107
4, 379560, Note_on_c, 0, 75, 0
4, 379680, Control_c, 0, 64, 0
4, 379680, Control_c, 0, 64, 0
4, 379920, Control_c, 0, 64, 127
4, 379920, Control_c, 0, 64, 127
4, 379920, Note_on_c, 0, 27, 106
4, 379920, Note_on_c, 0, 51, 106
4, 379920, Note_on_c, 0, 39, 106
4, 380040, Note_on_c, 0, 39, 0
4, 380040, Note_on_c, 0, 51, 0
4, 380040, Note_on_c, 0, 27, 0
4, 380280, Note_on_c, 0, 67, 104
4, 380280, Note_on_c, 0, 70, 104
4, 380340, Note_on_c, 0, 70, 0
4, 380340, Note_on_c, 0, 67, 0
4, 380400, Note_on_c, 0, 75, 104
4, 380520, Note_on_c, 0, 75, 0
4, 380640, Control_c, 0, 64, 0
4, 380640, Control_c, 0, 64, 0
4, 380880, Control_c, 0, 64, 127
4, 380880, Control_c, 0, 64, 127
4, 380880, Note_on_c, 0, 68, 103
4, 380880, Note_on_c, 0, 56, 103
4, 381000, Note_on_c, 0, 56, 0
4, 381000, Note_on_c, 0, 68, 0
4, 381120, Control_c, 0, 64, 0
4, 381120, Control_c, 0, 64, 0
4, 381360, Control_c, 0, 64, 127
4, 381360, Control_c, 0, 64, 127
4, 381360, Note_on_c, 0, 48, 101
4, 381360, Note_on_c, 0, 51, 101
4, 381360, Note_on_c, 0, 56, 101
4, 381360, Note_on_c, 0, 44, 101
4, 381480, Note_on_c, 0, 44, 0
4, 381480, Note_on_c, 0, 48, 0
4, 381480, Note_on_c, 0, 51, 0
4, 381480, Note_on_c, 0, 56, 0
4, 381600, Control_c, 0, 64, 0
4, 381600, Control_c, 0, 64, 0
4, 381840, Control_c, 0, 64, 127
4, 381840, Control_c, 0, 64, 127
4, 381840, Note_on_c, 0, 36, 100
4, 381840, Note_on_c, 0, 39, 100
4, 381840, Note_on_c, 0, 44, 100
4, 381840, Note_on_c, 0, 32, 100
4, 381960, Note_on_c, 0, 32, 0
4, 381960, Note_on_c, 0, 36, 0
4, 381960, Note_on_c, 0, 39, 0
4, 381960, Note_on_c, 0, 44, 0
4, 382080, Control_c, 0, 64, 0
4, 382080, Control_c, 0, 64, 0
4, 382800, Control_c, 0, 64, 127
4, 382800, Note_on_c, 0, 39, 55
4, 382860, Note_on_c, 0, 39, 0
4, 382860, Note_on_c, 0, 51, 56
4, 382920, Note_on_c, 0, 51, 0
4, 382920, Note_on_c, 0, 39, 58
4, 382980, Note_on_c, 0, 39, 0
4, 382980, Note_on_c, 0, 51, 59
4, 383040, Note_on_c, 0, 51, 0
4, 383040, Note_on_c, 0, 39, 61
4, 383100, Note_on_c, 0, 39, 0
4, 383100, Note_on_c, 0, 51, 63
4, 383160, Note_on_c, 0, 51, 0
4, 383160, Note_on_c, 0, 39, 64
4, 383220, Note_on_c, 0, 39, 0
4, 383220, Note_on_c, 0, 51, 66
4, 383280, Note_on_c, 0, 51, 0
4, 383280, Note_on_c, 0, 39, 68
4, 383340, Note_on_c, 0, 39, 0
4, 383340, Note_on_c, 0, 51, 69
4, 383400, Note_on_c, 0, 51, 0
4, 383400, Note_on_c, 0, 39, 71
4, 383460, Note_on_c, 0, 39, 0
4, 383460, Note_on_c, 0, 51, 73
4, 383520, Note_on_c, 0, 51, 0
4, 383520, Note_on_c, 0, 39, 74
4, 383580, Note_on_c, 0, 39, 0
4, 383580, Note_on_c, 0, 51, 76
4, 383640, Note_on_c, 0, 51, 0
4, 383640, Note_on_c, 0, 39, 77
4, 383700, Note_on_c, 0, 39, 0
4, 383700, Note_on_c, 0, 51, 79
4, 383760, Note_on_c, 0, 51, 0
4, 383760, Note_on_c, 0, 39, 86
4, 383820, Note_on_c, 0, 39, 0
4, 384120, Note_on_c, 0, 58, 98
4, 384120, Note_on_c, 0, 55, 98
4, 384180, Note_on_c, 0, 55, 0
4, 384180, Note_on_c, 0, 58, 0
4, 384240, Note_on_c, 0, 58, 101
4, 384240, Note_on_c, 0, 61, 101
4, 384360, Note_on_c, 0, 61, 0
4, 384360, Note_on_c, 0, 58, 0
4, 384480, Control_c, 0, 64, 0
4, 384720, Control_c, 0, 64, 127
4, 384720, Note_on_c, 0, 39, 62
4, 384780, Note_on_c, 0, 39, 0
4, 384780, Note_on_c, 0, 51, 63
4, 384840, Note_on_c, 0, 51, 0
4, 384840, Note_on_c, 0, 39, 65
4, 384900, Note_on_c, 0, 39, 0
4, 384900, Note_on_c, 0, 51, 66
4, 384960, Note_on_c, 0, 51, 0
4, 384960, Note_on_c, 0, 39, 67
4, 385020, Note_on_c, 0, 39, 0
4, 385020, Note_on_c, 0, 51, 69
4, 385080, Note_on_c, 0, 51, 0
4, 385080, Note_on_c, 0, 39, 70
4, 385140, Note_on_c, 0, 39, 0
4, 385140, Note_on_c, 0, 51, 71
4, 385200, Note_on_c, 0, 51, 0
4, 385200, Note_on_c, 0, 39, 73
4, 385260, Note_on_c, 0, 39, 0
4, 385260, Note_on_c, 0, 51, 74
4, 385320, Note_on_c, 0, 51, 0
4, 385320, Note_on_c, 0, 39, 75
4, 385380, Note_on_c, 0, 39, 0
4, 385380, Note_on_c, 0, 51, 77
4, 385440, Note_on_c, 0, 51, 0
4, 385440, Note_on_c, 0, 39, 78
4, 385500, Note_on_c, 0, 39, 0
4, 385500, Note_on_c, 0, 51, 79
4, 385560, Note_on_c, 0, 51, 0
4, 385560, Note_on_c, 0, 39, 81
4, 385620, Note_on_c, 0, 39, 0
4, 385620, Note_on_c, 0, 51, 82
4, 385680, Note_on_c, 0, 51, 0
4, 385680, Note_on_c, 0, 39, 89
4, 385740, Note_on_c, 0, 39, 0
4, 386040, Note_on_c, 0, 67, 109
4, 386040, Note_on_c, 0, 70, 109
4, 386100, Note_on_c, 0, 70, 0
4, 386100, Note_on_c, 0, 67, 0
4, 386160, Note_on_c, 0, 73, 112
4, 386160, Note_on_c, 0, 70, 112
4, 386280, Note_on_c, 0, 70, 0
4, 386280, Note_on_c, 0, 73, 0
4, 386400, Control_c, 0, 64, 0
4, 386640, Control_c, 0, 64, 127
4, 386640, Control_c, 0, 64, 127
4, 386640, Note_on_c, 0, 44, 114
4, 386640, Note_on_c, 0, 56, 114
4, 386640, Note_on_c, 0, 32, 114
4, 386760, Note_on_c, 0, 32, 0
4, 386760, Note_on_c, 0, 56, 0
4, 386760, Note_on_c, 0, 44, 0
4, 387000, Note_on_c, 0, 68, 112
4, 387000, Note_on_c, 0, 72, 112
4, 387060, Note_on_c, 0, 72, 0
4, 387060, Note_on_c, 0, 68, 0
4, 387120, Note_on_c, 0, 75, 111
4, 387240, Note_on_c, 0, 75, 0
4, 387360, Control_c, 0, 64, 0
4, 387360, Control_c, 0, 64, 0
4, 387600, Control_c, 0, 64, 127
4, 387600, Control_c, 0, 64, 127
4, 387600, Note_on_c, 0, 39, 108
4, 387600, Note_on_c, 0, 51, 108
4, 387600, Note_on_c, 0, 27, 108
4, 387720, Note_on_c, 0, 27, 0
4, 387720, Note_on_c, 0, 51, 0
4, 387720, Note_on_c, 0, 39, 0
4, 387960, Note_on_c, 0, 70, 106
4, 387960, Note_on_c, 0, 67, 106
4, 388020, Note_on_c, 0, 67, 0
4, 388020, Note_on_c, 0, 70, 0
4, 388080, Note_on_c, 0, 75, 106
4, 388200, Note_on_c, 0, 75, 0
4, 388320, Control_c, 0, 64, 0
4, 388320, Control_c, 0, 64, 0
4, 388560, Control_c, 0, 64, 127
4, 388560, Control_c, 0, 64, 127
4, 388560, Note_on_c, 0, 56, 103
4, 388560, Note_on_c, 0, 68, 103
4, 388680, Note_on_c, 0, 68, 0
4, 388680, Note_on_c, 0, 56, 0
4, 388800, Control_c, 0, 64, 0
4, 388800, Control_c, 0, 64, 0
4, 389040, Control_c, 0, 64, 127
4, 389040, Control_c, 0, 64, 127
4, 389040, Note_on_c, 0, 44, 100
4, 389040, Note_on_c, 0, 56, 100
4, 389040, Note_on_c, 0, 51, 100
4, 389040, Note_on_c, 0, 48, 100
4, 389160, Note_on_c, 0, 48, 0
4, 389160, Note_on_c, 0, 44, 0
4, 389160, Note_on_c, 0, 56, 0
4, 389160, Note_on_c, 0, 51, 0
4, 389280, Control_c, 0, 64, 0
4, 389280, Control_c, 0, 64, 0
4, 389520, Control_c, 0, 64, 127
4, 389520, Control_c, 0, 64, 127
4, 389520, Note_on_c, 0, 32, 97
4, 389520, Note_on_c, 0, 44, 97
4, 389520, Note_on_c, 0, 39, 97
4, 389520, Note_on_c, 0, 36, 97
4, 389640, Note_on_c, 0, 36, 0
4, 389640, Note_on_c, 0, 32, 0
4, 389640, Note_on_c, 0, 44, 0
4, 389640, Note_on_c, 0, 39, 0
4, 389760, Control_c, 0, 64, 0
4, 389760, Control_c, 0, 64, 0
4, 390480, Control_c, 0, 64, 0
4, 390480, Note_on_c, 0, 44, 71
4, 390480, Note_on_c, 0, 32, 71
4, 391440, Note_on_c, 0, 32, 0
4, 391440, Note_on_c, 0, 32, 65
4, 392400, Note_on_c, 0, 32, 0
4, 392400, Note_on_c, 0, 44, 0
4, 392400, Note_on_c, 0, 39, 69
4, 392658, Note_on_c, 0, 39, 0
4, 392760, Note_on_c, 0, 39, 63
4, 392862, Note_on_c, 0, 39, 0
4, 392880, Note_on_c, 0, 43, 63
4, 393138, Note_on_c, 0, 43, 0
4, 393240, Note_on_c, 0, 46, 60
4, 393342, Note_on_c, 0, 46, 0
4, 393360, Note_on_c, 0, 51, 59
4, 393660, Note_on_c, 0, 51, 0
4, 393840, Note_on_c, 0, 51, 60
4, 393840, Note_on_c, 0, 49, 60
4, 394200, Note_on_c, 0, 49, 0
4, 394200, Note_on_c, 0, 51, 0
4, 394200, Note_on_c, 0, 51, 63
4, 394200, Note_on_c, 0, 49, 63
4, 394320, Note_on_c, 0, 49, 0
4, 394320, Note_on_c, 0, 51, 0
4, 394320, Note_on_c, 0, 47, 64
4, 394320, Note_on_c, 0, 51, 64
4, 394800, Note_on_c, 0, 51, 0
4, 394800, Note_on_c, 0, 47, 0
4, 394800, Note_on_c, 0, 51, 68
4, 394800, Note_on_c, 0, 44, 68
4, 395160, Note_on_c, 0, 44, 0
4, 395160, Note_on_c, 0, 51, 0
4, 395160, Note_on_c, 0, 51, 72
4, 395160, Note_on_c, 0, 44, 72
4, 395280, Note_on_c, 0, 44, 0
4, 395280, Note_on_c, 0, 51, 0
4, 395280, Note_on_c, 0, 51, 73
4, 395280, Note_on_c, 0, 43, 73
4, 395760, Note_on_c, 0, 43, 0
4, 395760, Note_on_c, 0, 51, 0
4, 395760, Note_on_c, 0, 51, 77
4, 395760, Note_on_c, 0, 44, 77
4, 396120, Note_on_c, 0, 44, 0
4, 396120, Note_on_c, 0, 51, 0
4, 396120, Note_on_c, 0, 51, 80
4, 396120, Note_on_c, 0, 44, 80
4, 396240, Note_on_c, 0, 44, 0
4, 396240, Note_on_c, 0, 51, 0
4, 396240, Note_on_c, 0, 51, 78
4, 396240, Note_on_c, 0, 39, 78
4, 396600, Note_on_c, 0, 39, 0
4, 396600, Note_on_c, 0, 51, 0
4, 396720, Note_on_c, 0, 39, 67
4, 396720, Note_on_c, 0, 51, 67
4, 397080, Note_on_c, 0, 51, 0
4, 397080, Note_on_c, 0, 39, 0
4, 397200, Note_on_c, 0, 39, 61
4, 397200, Note_on_c, 0, 51, 61
4, 397560, Note_on_c, 0, 51, 0
4, 397560, Note_on_c, 0, 39, 0
4, 398160, Note_on_c, 0, 44, 71
4, 398160, Note_on_c, 0, 32, 71
4, 399120, Note_on_c, 0, 32, 0
4, 399120, Note_on_c, 0, 32, 71
4, 399960, Note_on_c, 0, 32, 0
4, 399960, Note_on_c, 0, 44, 0
4, 400080, Note_on_c, 0, 39, 87
4, 400339, Note_on_c, 0, 39, 0
4, 400440, Note_on_c, 0, 39, 78
4, 400543, Note_on_c, 0, 39, 0
4, 400560, Note_on_c, 0, 42, 76
4, 400819, Note_on_c, 0, 42, 0
4, 400920, Note_on_c, 0, 46, 72
4, 401023, Note_on_c, 0, 46, 0
4, 401040, Note_on_c, 0, 51, 71
4, 401340, Note_on_c, 0, 51, 0
4, 401520, Note_on_c, 0, 47, 70
4, 401880, Note_on_c, 0, 47, 0
4, 401880, Note_on_c, 0, 47, 68
4, 402000, Note_on_c, 0, 47, 0
4, 402000, Note_on_c, 0, 44, 68
4, 402480, Note_on_c, 0, 44, 0
4, 402480, Note_on_c, 0, 40, 66
4, 402840, Note_on_c, 0, 40, 0
4, 402840, Note_on_c, 0, 40, 64
4, 402960, Note_on_c, 0, 40, 0
4, 402960, Note_on_c, 0, 42, 64
4, 403440, Note_on_c, 0, 42, 0
4, 403440, Note_on_c, 0, 30, 62
4, 403440, Note_on_c, 0, 42, 62
4, 403800, Note_on_c, 0, 42, 0
4, 403800, Note_on_c, 0, 30, 0
4, 403800, Note_on_c, 0, 42, 60
4, 403800, Note_on_c, 0, 30, 60
4, 403920, Note_on_c, 0, 30, 0
4, 403920, Note_on_c, 0, 42, 0
4, 403920, Note_on_c, 0, 47, 60
4, 403920, Note_on_c, 0, 35, 60
4, 404280, Note_on_c, 0, 35, 0
4, 404280, Note_on_c, 0, 47, 0
4, 404400, Note_on_c, 0, 47, 55
4, 404400, Note_on_c, 0, 35, 55
4, 404760, Note_on_c, 0, 35, 0
4, 404760, Note_on_c, 0, 47, 0
4, 404880, Note_on_c, 0, 47, 49
4, 404880, Note_on_c, 0, 35, 49
4, 405240, Note_on_c, 0, 35, 0
4, 405240, Note_on_c, 0, 47, 0
4, 405840, Note_on_c, 0, 47, 74
4, 405840, Note_on_c, 0, 35, 74
4, 406800, Note_on_c, 0, 35, 0
4, 406800, Note_on_c, 0, 35, 74
4, 407760, Note_on_c, 0, 35, 0
4, 407760, Note_on_c, 0, 47, 0
4, 407760, Note_on_c, 0, 42, 83
4, 407760, Note_on_c, 0, 30, 83
4, 408063, Note_on_c, 0, 30, 0
4, 408063, Note_on_c, 0, 42, 0
4, 408120, Note_on_c, 0, 42, 77
4, 408120, Note_on_c, 0, 30, 77
4, 408231, Note_on_c, 0, 30, 0
4, 408231, Note_on_c, 0, 42, 0
4, 408240, Note_on_c, 0, 46, 76
4, 408240, Note_on_c, 0, 34, 76
4, 408543, Note_on_c, 0, 34, 0
4, 408543, Note_on_c, 0, 46, 0
4, 408600, Note_on_c, 0, 49, 73
4, 408600, Note_on_c, 0, 37, 73
4, 408711, Note_on_c, 0, 37, 0
4, 408711, Note_on_c, 0, 49, 0
4, 408720, Note_on_c, 0, 42, 72
4, 408720, Note_on_c, 0, 54, 72
4, 409020, Note_on_c, 0, 54, 0
4, 409020, Note_on_c, 0, 42, 0
4, 409200, Note_on_c, 0, 52, 69
4, 409200, Note_on_c, 0, 40, 69
4, 409560, Note_on_c, 0, 40, 0
4, 409560, Note_on_c, 0, 52, 0
4, 409560, Note_on_c, 0, 52, 69
4, 409560, Note_on_c, 0, 40, 69
4, 409680, Note_on_c, 0, 40, 0
4, 409680, Note_on_c, 0, 52, 0
4, 409680, Note_on_c, 0, 50, 69
4, 409680, Note_on_c, 0, 38, 69
4, 410160, Note_on_c, 0, 38, 0
4, 410160, Note_on_c, 0, 50, 0
4, 410160, Note_on_c, 0, 47, 66
4, 410160, Note_on_c, 0, 35, 66
4, 410520, Note_on_c, 0, 35, 0
4, 410520, Note_on_c, 0, 47, 0
4, 410520, Note_on_c, 0, 47, 65
4, 410520, Note_on_c, 0, 35, 65
4, 410640, Note_on_c, 0, 35, 0
4, 410640, Note_on_c, 0, 47, 0
4, 410640, Note_on_c, 0, 46, 64
4, 410640, Note_on_c, 0, 34, 64
4, 411120, Note_on_c, 0, 34, 0
4, 411120, Note_on_c, 0, 46, 0
4, 411120, Note_on_c, 0, 47, 62
4, 411120, Note_on_c, 0, 35, 62
4, 411480, Note_on_c, 0, 35, 0
4, 411480, Note_on_c, 0, 47, 0
4, 411480, Note_on_c, 0, 47, 61
4, 411480, Note_on_c, 0, 35, 61
4, 411600, Note_on_c, 0, 35, 0
4, 411600, Note_on_c, 0, 47, 0
4, 411600, Note_on_c, 0, 42, 60
4, 411600, Note_on_c, 0, 30, 60
4, 411960, Note_on_c, 0, 30, 0
4, 411960, Note_on_c, 0, 42, 0
4, 412080, Note_on_c, 0, 42, 54
4, 412080, Note_on_c, 0, 30, 54
4, 412440, Note_on_c, 0, 30, 0
4, 412440, Note_on_c, 0, 42, 0
4, 412560, Note_on_c, 0, 42, 47
4, 412560, Note_on_c, 0, 30, 47
4, 412920, Note_on_c, 0, 30, 0
4, 412920, Note_on_c, 0, 42, 0
4, 413520, Note_on_c, 0, 35, 71
4, 413520, Note_on_c, 0, 47, 71
4, 414480, Note_on_c, 0, 35, 0
4, 414480, Note_on_c, 0, 35, 71
4, 415440, Note_on_c, 0, 35, 0
4, 415440, Note_on_c, 0, 47, 0
4, 415440, Note_on_c, 0, 40, 78
4, 415743, Note_on_c, 0, 40, 0
4, 415800, Note_on_c, 0, 40, 73
4, 415911, Note_on_c, 0, 40, 0
4, 415920, Note_on_c, 0, 43, 72
4, 416223, Note_on_c, 0, 43, 0
4, 416280, Note_on_c, 0, 47, 67
4, 416391, Note_on_c, 0, 47, 0
4, 416400, Note_on_c, 0, 52, 65
4, 416707, Note_on_c, 0, 52, 0
4, 416880, Note_on_c, 0, 52, 59
4, 416880, Note_on_c, 0, 43, 59
4, 417240, Note_on_c, 0, 43, 0
4, 417240, Note_on_c, 0, 52, 0
4, 417240, Note_on_c, 0, 52, 65
4, 417240, Note_on_c, 0, 43, 65
4, 417360, Note_on_c, 0, 43, 0
4, 417360, Note_on_c, 0, 52, 0
4, 417360, Note_on_c, 0, 50, 65
4, 417360, Note_on_c, 0, 45, 65
4, 417360, Note_on_c, 0, 54, 65
4, 417840, Note_on_c, 0, 54, 0
4, 417840, Note_on_c, 0, 45, 0
4, 417840, Note_on_c, 0, 50, 0
4, 417840, Note_on_c, 0, 50, 68
4, 417840, Note_on_c, 0, 45, 68
4, 417840, Note_on_c, 0, 54, 68
4, 418200, Note_on_c, 0, 54, 0
4, 418200, Note_on_c, 0, 45, 0
4, 418200, Note_on_c, 0, 50, 0
4, 418200, Note_on_c, 0, 45, 71
4, 418200, Note_on_c, 0, 50, 71
4, 418200, Note_on_c, 0, 54, 71
4, 418320, Note_on_c, 0, 54, 0
4, 418320, Note_on_c, 0, 50, 0
4, 418320, Note_on_c, 0, 45, 0
4, 418320, Note_on_c, 0, 52, 72
4, 418320, Note_on_c, 0, 49, 72
4, 418320, Note_on_c, 0, 45, 72
4, 418800, Note_on_c, 0, 45, 0
4, 418800, Note_on_c, 0, 49, 0
4, 418800, Note_on_c, 0, 52, 0
4, 418800, Note_on_c, 0, 49, 75
4, 418800, Note_on_c, 0, 45, 75
4, 418800, Note_on_c, 0, 52, 75
4, 419160, Note_on_c, 0, 52, 0
4, 419160, Note_on_c, 0, 45, 0
4, 419160, Note_on_c, 0, 49, 0
4, 419160, Note_on_c, 0, 52, 78
4, 419160, Note_on_c, 0, 45, 78
4, 419160, Note_on_c, 0, 49, 78
4, 419280, Note_on_c, 0, 49, 0
4, 419280, Note_on_c, 0, 45, 0
4, 419280, Note_on_c, 0, 52, 0
4, 419280, Note_on_c, 0, 50, 73
4, 419280, Note_on_c, 0, 38, 73
4, 419640, Note_on_c, 0, 38, 0
4, 419640, Note_on_c, 0, 50, 0
4, 419760, Note_on_c, 0, 50, 62
4, 419760, Note_on_c, 0, 38, 62
4, 420120, Note_on_c, 0, 38, 0
4, 420120, Note_on_c, 0, 50, 0
4, 420240, Note_on_c, 0, 50, 51
4, 420240, Note_on_c, 0, 38, 51
4, 420600, Note_on_c, 0, 38, 0
4, 420600, Note_on_c, 0, 50, 0
4, 420720, Note_on_c, 0, 50, 47
4, 420720, Note_on_c, 0, 56, 47
4, 421080, Note_on_c, 0, 56, 0
4, 421080, Note_on_c, 0, 50, 0
4, 421080, Note_on_c, 0, 50, 55
4, 421080, Note_on_c, 0, 56, 55
4, 421200, Note_on_c, 0, 56, 0
4, 421200, Note_on_c, 0, 50, 0
4, 421200, Note_on_c, 0, 50, 61
4, 421200, Note_on_c, 0, 56, 61
4, 421680, Note_on_c, 0, 50, 0
4, 421680, Note_on_c, 0, 50, 56
4, 422160, Note_on_c, 0, 50, 0
4, 422160, Note_on_c, 0, 56, 0
4, 422160, Note_on_c, 0, 58, 55
4, 422160, Note_on_c, 0, 50, 55
4, 422640, Note_on_c, 0, 50, 0
4, 422640, Note_on_c, 0, 58, 0
4, 422640, Note_on_c, 0, 59, 53
4, 422640, Note_on_c, 0, 50, 53
4, 423120, Note_on_c, 0, 50, 0
4, 423120, Note_on_c, 0, 59, 0
4, 423120, Note_on_c, 0, 51, 51
4, 423120, Note_on_c, 0, 58, 51
4, 423319, Note_on_c, 0, 58, 0
4, 423319, Note_on_c, 0, 51, 0
4, 423480, Note_on_c, 0, 56, 65
4, 423480, Note_on_c, 0, 50, 65
4, 423600, Note_on_c, 0, 50, 0
4, 423600, Note_on_c, 0, 56, 0
4, 423600, Note_on_c, 0, 56, 74
4, 423600, Note_on_c, 0, 50, 74
4, 424080, Note_on_c, 0, 50, 0
4, 424080, Note_on_c, 0, 50, 71
4, 424560, Note_on_c, 0, 50, 0
4, 424560, Note_on_c, 0, 56, 0
4, 424560, Note_on_c, 0, 58, 67
4, 424560, Note_on_c, 0, 50, 67
4, 424920, Note_on_c, 0, 50, 0
4, 424920, Note_on_c, 0, 58, 0
4, 424920, Note_on_c, 0, 59, 65
4, 424920, Note_on_c, 0, 50, 65
4, 425040, Note_on_c, 0, 50, 0
4, 425040, Note_on_c, 0, 59, 0
4, 425040, Note_on_c, 0, 58, 64
4, 425040, Note_on_c, 0, 51, 64
4, 425280, Note_on_c, 0, 51, 0
4, 425280, Note_on_c, 0, 58, 0
4, 425400, Note_on_c, 0, 56, 92
4, 425400, Note_on_c, 0, 50, 92
4, 425496, Note_on_c, 0, 50, 0
4, 425496, Note_on_c, 0, 56, 0
4, 425520, Note_on_c, 0, 56, 94
4, 425520, Note_on_c, 0, 50, 94
4, 425808, Note_on_c, 0, 50, 0
4, 425808, Note_on_c, 0, 56, 0
4, 425880, Note_on_c, 0, 56, 100
4, 425880, Note_on_c, 0, 50, 100
4, 425976, Note_on_c, 0, 50, 0
4, 425976, Note_on_c, 0, 56, 0
4, 426000, Note_on_c, 0, 50, 101
4, 426000, Note_on_c, 0, 56, 101
4, 426288, Note_on_c, 0, 56, 0
4, 426288, Note_on_c, 0, 50, 0
4, 426360, Note_on_c, 0, 50, 107
4, 426360, Note_on_c, 0, 56, 107
4, 426456, Note_on_c, 0, 56, 0
4, 426456, Note_on_c, 0, 50, 0
4, 426480, Note_on_c, 0, 50, 109
4, 426480, Note_on_c, 0, 58, 109
4, 426768, Note_on_c, 0, 58, 0
4, 426768, Note_on_c, 0, 50, 0
4, 426840, Note_on_c, 0, 59, 115
4, 426840, Note_on_c, 0, 50, 115
4, 426936, Note_on_c, 0, 50, 0
4, 426936, Note_on_c, 0, 59, 0
4, 426960, Note_on_c, 0, 58, 117
4, 426960, Note_on_c, 0, 51, 117
4, 427152, Note_on_c, 0, 51, 0
4, 427152, Note_on_c, 0, 58, 0
4, 427440, Note_on_c, 0, 52, 124
4, 428400, Note_on_c, 0, 52, 0
4, 428400, Note_on_c, 0, 51, 104
4, 428496, Note_on_c, 0, 51, 0
4, 428520, Note_on_c, 0, 49, 99
4, 428616, Note_on_c, 0, 49, 0
4, 428640, Note_on_c, 0, 47, 94
4, 428736, Note_on_c, 0, 47, 0
4, 428760, Note_on_c, 0, 46, 89
4, 428856, Note_on_c, 0, 46, 0
4, 428880, Note_on_c, 0, 44, 84
4, 428880, Note_on_c, 0, 32, 84
4, 429840, Note_on_c, 0, 32, 0
4, 429840, Note_on_c, 0, 32, 73
4, 430800, Note_on_c, 0, 32, 0
4, 430800, Note_on_c, 0, 39, 68
4, 430807, Note_on_c, 0, 44, 0
4, 431059, Note_on_c, 0, 39, 0
4, 431160, Note_on_c, 0, 39, 70
4, 431263, Note_on_c, 0, 39, 0
4, 431280, Note_on_c, 0, 43, 71
4, 431539, Note_on_c, 0, 43, 0
4, 431640, Note_on_c, 0, 46, 74
4, 431743, Note_on_c, 0, 46, 0
4, 431760, Note_on_c, 0, 51, 75
4, 432067, Note_on_c, 0, 51, 0
4, 432240, Note_on_c, 0, 49, 78
4, 432600, Note_on_c, 0, 49, 0
4, 432600, Note_on_c, 0, 49, 80
4, 432720, Note_on_c, 0, 49, 0
4, 432720, Note_on_c, 0, 47, 81
4, 432780, Note_on_c, 0, 49, 82
4, 432820, Note_on_c, 0, 47, 0
4, 432840, Note_on_c, 0, 47, 82
4, 432880, Note_on_c, 0, 49, 0
4, 432900, Note_on_c, 0, 49, 82
4, 432940, Note_on_c, 0, 47, 0
4, 432960, Note_on_c, 0, 47, 83
4, 433000, Note_on_c, 0, 49, 0
4, 433020, Note_on_c, 0, 49, 83
4, 433060, Note_on_c, 0, 47, 0
4, 433080, Note_on_c, 0, 47, 84
4, 433120, Note_on_c, 0, 49, 0
4, 433140, Note_on_c, 0, 49, 84
4, 433180, Note_on_c, 0, 47, 0
4, 433200, Note_on_c, 0, 47, 84
4, 433240, Note_on_c, 0, 49, 0
4, 433280, Note_on_c, 0, 49, 85
4, 433320, Note_on_c, 0, 47, 0
4, 433360, Note_on_c, 0, 47, 85
4, 433400, Note_on_c, 0, 49, 0
4, 433440, Note_on_c, 0, 46, 86
4, 433480, Note_on_c, 0, 47, 0
4, 433560, Note_on_c, 0, 44, 87
4, 433588, Note_on_c, 0, 46, 0
4, 433680, Note_on_c, 0, 44, 0
4, 433680, Note_on_c, 0, 43, 88
4, 434160, Note_on_c, 0, 43, 0
4, 434160, Note_on_c, 0, 44, 91
4, 434520, Note_on_c, 0, 44, 0
4, 434520, Note_on_c, 0, 44, 93
4, 434640, Note_on_c, 0, 44, 0
4, 434640, Note_on_c, 0, 39, 95
4, 435000, Note_on_c, 0, 39, 0
4, 435120, Note_on_c, 0, 39, 81
4, 435480, Note_on_c, 0, 39, 0
4, 435600, Note_on_c, 0, 39, 66
4, 435960, Note_on_c, 0, 39, 0
4, 436560, Note_on_c, 0, 32, 71
4, 436560, Note_on_c, 0, 44, 71
4, 437520, Note_on_c, 0, 32, 0
4, 437520, Note_on_c, 0, 32, 77
4, 438480, Note_on_c, 0, 32, 0
4, 438480, Note_on_c, 0, 44, 0
4, 438480, Note_on_c, 0, 37, 83
4, 438783, Note_on_c, 0, 37, 0
4, 438840, Note_on_c, 0, 37, 85
4, 438951, Note_on_c, 0, 37, 0
4, 438960, Note_on_c, 0, 40, 88
4, 439263, Note_on_c, 0, 40, 0
4, 439320, Note_on_c, 0, 44, 89
4, 439431, Note_on_c, 0, 44, 0
4, 439440, Note_on_c, 0, 49, 101
4, 439747, Note_on_c, 0, 49, 0
4, 440760, Note_on_c, 0, 45, 98
4, 440760, Note_on_c, 0, 33, 98
4, 440871, Note_on_c, 0, 33, 0
4, 440871, Note_on_c, 0, 45, 0
4, 440880, Note_on_c, 0, 49, 99
4, 440880, Note_on_c, 0, 37, 99
4, 441183, Note_on_c, 0, 37, 0
4, 441183, Note_on_c, 0, 49, 0
4, 441240, Note_on_c, 0, 52, 102
4, 441240, Note_on_c, 0, 40, 102
4, 441351, Note_on_c, 0, 40, 0
4, 441351, Note_on_c, 0, 52, 0
4, 441360, Note_on_c, 0, 57, 111
4, 441360, Note_on_c, 0, 45, 111
4, 441720, Note_on_c, 0, 45, 0
4, 441720, Note_on_c, 0, 57, 0
4, 442680, Note_on_c, 0, 55, 111
4, 442680, Note_on_c, 0, 43, 111
4, 442791, Note_on_c, 0, 43, 0
4, 442791, Note_on_c, 0, 55, 0
4, 442800, Note_on_c, 0, 58, 112
4, 442800, Note_on_c, 0, 46, 112
4, 443103, Note_on_c, 0, 46, 0
4, 443103, Note_on_c, 0, 58, 0
4, 443160, Note_on_c, 0, 63, 114
4, 443160, Note_on_c, 0, 51, 114
4, 443271, Note_on_c, 0, 51, 0
4, 443271, Note_on_c, 0, 63, 0
4, 443280, Note_on_c, 0, 67, 119
4, 443280, Note_on_c, 0, 55, 119
4, 443520, Note_on_c, 0, 55, 0
4, 443520, Note_on_c, 0, 67, 0
4, 443760, Note_on_c, 0, 55, 118
4, 443760, Note_on_c, 0, 43, 118
4, 444000, Note_on_c, 0, 43, 0
4, 444000, Note_on_c, 0, 55, 0
4, 444240, Note_on_c, 0, 56, 127
4, 444240, Note_on_c, 0, 44, 127
4, 444480, Note_on_c, 0, 44, 0
4, 444480, Note_on_c, 0, 56, 0
4, 445200, Note_on_c, 0, 49, 126
4, 445200, Note_on_c, 0, 37, 126
4, 445440, Note_on_c, 0, 37, 0
4, 445440, Note_on_c, 0, 49, 0
4, 445680, Note_on_c, 0, 51, 127
4, 445680, Note_on_c, 0, 39, 127
4, 445920, Note_on_c, 0, 39, 0
4, 445920, Note_on_c, 0, 51, 0
4, 446160, Note_on_c, 0, 44, 127
4, 446160, Note_on_c, 0, 32, 127
4, 446400, Note_on_c, 0, 32, 0
4, 446400, Note_on_c, 0, 44, 0
4, 446640, Note_on_c, 0, 44, 81
4, 446970, Note_on_c, 0, 44, 0
4, 447000, Note_on_c, 0, 44, 65
4, 447090, Note_on_c, 0, 44, 0
4, 447120, Note_on_c, 0, 44, 63
4, 447547, Note_on_c, 0, 44, 0
4, 447600, Note_on_c, 0, 44, 58
4, 447600, Note_on_c, 0, 48, 58
4, 447960, Note_on_c, 0, 48, 0
4, 447960, Note_on_c, 0, 49, 60
4, 448080, Note_on_c, 0, 49, 0
4, 448080, Note_on_c, 0, 44, 0
4, 448080, Note_on_c, 0, 44, 61
4, 448080, Note_on_c, 0, 51, 61
4, 448560, Note_on_c, 0, 44, 0
4, 448560, Note_on_c, 0, 44, 65
4, 448920, Note_on_c, 0, 52, 67
4, 448935, Note_on_c, 0, 51, 0
4, 449040, Note_on_c, 0, 52, 0
4, 449040, Note_on_c, 0, 44, 0
4, 449040, Note_on_c, 0, 44, 68
4, 449040, Note_on_c, 0, 54, 68
4, 449520, Note_on_c, 0, 54, 0
4, 449520, Note_on_c, 0, 44, 0
4, 449520, Note_on_c, 0, 44, 74
4, 449520, Note_on_c, 0, 55, 74
4, 450000, Note_on_c, 0, 55, 0
4, 450000, Note_on_c, 0, 44, 0
4, 450000, Note_on_c, 0, 44, 70
4, 450000, Note_on_c, 0, 56, 70
4, 450480, Note_on_c, 0, 56, 0
4, 450480, Note_on_c, 0, 44, 0
4, 450480, Note_on_c, 0, 44, 65
4, 450840, Note_on_c, 0, 44, 0
4, 450840, Note_on_c, 0, 44, 61
4, 450960, Note_on_c, 0, 44, 0
4, 450960, Note_on_c, 0, 44, 60
4, 451440, Note_on_c, 0, 44, 0
4, 451440, Note_on_c, 0, 44, 64
4, 451440, Note_on_c, 0, 57, 64
4, 451800, Note_on_c, 0, 57, 0
4, 451800, Note_on_c, 0, 56, 69
4, 451920, Note_on_c, 0, 56, 0
4, 451920, Note_on_c, 0, 44, 0
4, 451920, Note_on_c, 0, 44, 70
4, 451920, Note_on_c, 0, 54, 70
4, 452400, Note_on_c, 0, 44, 0
4, 452400, Note_on_c, 0, 44, 76
4, 452760, Note_on_c, 0, 52, 79
4, 452775, Note_on_c, 0, 54, 0
4, 452880, Note_on_c, 0, 52, 0
4, 452880, Note_on_c, 0, 44, 0
4, 452880, Note_on_c, 0, 44, 81
4, 452880, Note_on_c, 0, 51, 81
4, 453360, Note_on_c, 0, 51, 0
4, 453360, Note_on_c, 0, 44, 0
4, 453360, Note_on_c, 0, 44, 86
4, 453360, Note_on_c, 0, 49, 86
4, 453840, Note_on_c, 0, 49, 0
4, 453840, Note_on_c, 0, 44, 0
4, 453840, Note_on_c, 0, 44, 71
4, 453840, Note_on_c, 0, 48, 71
4, 454320, Note_on_c, 0, 44, 0
4, 454320, Note_on_c, 0, 44, 63
4, 454680, Note_on_c, 0, 44, 0
4, 454680, Note_on_c, 0, 44, 59
4, 454800, Note_on_c, 0, 44, 0
4, 454800, Note_on_c, 0, 48, 0
4, 454800, Note_on_c, 0, 44, 98
4, 454800, Note_on_c, 0, 52, 98
4, 454800, Note_on_c, 0, 49, 98
4, 455280, Note_on_c, 0, 44, 0
4, 455280, Note_on_c, 0, 44, 88
4, 455640, Note_on_c, 0, 44, 0
4, 455640, Note_on_c, 0, 44, 80
4, 455760, Note_on_c, 0, 44, 0
4, 455760, Note_on_c, 0, 49, 0
4, 455760, Note_on_c, 0, 52, 0
4, 455760, Note_on_c, 0, 44, 78
4, 455760, Note_on_c, 0, 51, 78
4, 455760, Note_on_c, 0, 48, 78
4, 456240, Note_on_c, 0, 48, 0
4, 456240, Note_on_c, 0, 51, 0
4, 456240, Note_on_c, 0, 32, 72
4, 456600, Note_on_c, 0, 32, 0
4, 456600, Note_on_c, 0, 32, 71
4, 456720, Note_on_c, 0, 32, 0
4, 456720, Note_on_c, 0, 32, 78
4, 457200, Note_on_c, 0, 32, 0
4, 457200, Note_on_c, 0, 32, 73
4, 457560, Note_on_c, 0, 32, 0
4, 457560, Note_on_c, 0, 32, 69
4, 457680, Note_on_c, 0, 32, 0
4, 457680, Note_on_c, 0, 44, 0
4, 457680, Note_on_c, 0, 44, 68
4, 457680, Note_on_c, 0, 32, 68
4, 458160, Note_on_c, 0, 32, 0
4, 458160, Note_on_c, 0, 32, 63
4, 458520, Note_on_c, 0, 32, 0
4, 458520, Note_on_c, 0, 32, 61
4, 458640, Note_on_c, 0, 32, 0
4, 458640, Note_on_c, 0, 32, 61
4, 459120, Note_on_c, 0, 32, 0
4, 459120, Note_on_c, 0, 32, 58
4, 459480, Note_on_c, 0, 32, 0
4, 459480, Note_on_c, 0, 32, 56
4, 459600, Note_on_c, 0, 32, 0
4, 459600, Note_on_c, 0, 44, 0
4, 459600, Note_on_c, 0, 44, 56
4, 459600, Note_on_c, 0, 32, 56
4, 461520, Note_on_c, 0, 32, 0
4, 461520, Note_on_c, 0, 44, 0
4, 461520, Control_c, 0, 7, 117
4, 461520, Pitch_bend_c, 0, 8192
4, 461520, Control_c, 0, 1, 0
4, 461520, Control_c, 0, 64, 0
4, 461520, Control_c, 0, 93, 28
4, 461520, Control_c, 0, 91, 91
4, 461520, Control_c, 0, 10, 64
4, 468840, Note_on_c, 0, 60, 65
4, 468960, Note_on_c, 0, 60, 0
4, 469080, Note_on_c, 0, 57, 67
4, 469200, Note_on_c, 0, 57, 0
4, 469320, Note_on_c, 0, 58, 68
4, 469440, Note_on_c, 0, 58, 0
4, 469560, Note_on_c, 0, 55, 69
4, 469680, Note_on_c, 0, 55, 0
4, 469800, Note_on_c, 0, 56, 70
4, 469920, Note_on_c, 0, 56, 0
4, 470040, Note_on_c, 0, 53, 71
4, 470160, Note_on_c, 0, 53, 0
4, 470280, Note_on_c, 0, 55, 72
4, 470400, Note_on_c, 0, 55, 0
4, 470520, Note_on_c, 0, 52, 73
4, 470640, Note_on_c, 0, 52, 0
4, 470760, Note_on_c, 0, 53, 74
4, 470880, Note_on_c, 0, 53, 0
4, 471000, Note_on_c, 0, 50, 75
4, 471120, Note_on_c, 0, 50, 0
4, 471240, Note_on_c, 0, 51, 77
4, 471360, Note_on_c, 0, 51, 0
4, 471360, Note_on_c, 0, 50, 76
4, 471480, Note_on_c, 0, 50, 0
4, 471480, Note_on_c, 0, 51, 75
4, 471600, Note_on_c, 0, 51, 0
4, 471720, Note_on_c, 0, 51, 74
4, 471840, Note_on_c, 0, 51, 0
4, 471960, Note_on_c, 0, 51, 76
4, 472080, Note_on_c, 0, 51, 0
4, 472200, Note_on_c, 0, 51, 77
4, 472320, Note_on_c, 0, 51, 0
4, 472440, Note_on_c, 0, 51, 79
4, 472560, Note_on_c, 0, 51, 0
4, 472680, Note_on_c, 0, 51, 81
4, 472800, Note_on_c, 0, 51, 0
4, 472920, Note_on_c, 0, 51, 83
4, 473040, Note_on_c, 0, 51, 0
4, 473160, Note_on_c, 0, 51, 84
4, 473280, Note_on_c, 0, 51, 0
4, 473400, Note_on_c, 0, 51, 86
4, 473520, Note_on_c, 0, 51, 0
4, 473640, Note_on_c, 0, 51, 88
4, 473760, Note_on_c, 0, 51, 0
4, 473880, Note_on_c, 0, 51, 90
4, 474000, Note_on_c, 0, 51, 0
4, 476520, Note_on_c, 0, 58, 81
4, 476640, Note_on_c, 0, 58, 0
4, 476760, Note_on_c, 0, 58, 81
4, 476880, Note_on_c, 0, 58, 0
4, 477000, Note_on_c, 0, 58, 82
4, 477120, Note_on_c, 0, 58, 0
4, 477240, Note_on_c, 0, 58, 82
4, 477360, Note_on_c, 0, 58, 0
4, 477480, Note_on_c, 0, 58, 82
4, 477600, Note_on_c, 0, 58, 0
4, 477720, Note_on_c, 0, 58, 83
4, 477840, Note_on_c, 0, 58, 0
4, 477960, Note_on_c, 0, 58, 83
4, 478080, Note_on_c, 0, 58, 0
4, 478200, Note_on_c, 0, 58, 83
4, 478320, Note_on_c, 0, 58, 0
4, 482280, Note_on_c, 0, 60, 87
4, 482400, Note_on_c, 0, 60, 0
4, 482520, Note_on_c, 0, 60, 88
4, 482640, Note_on_c, 0, 60, 0
4, 482760, Note_on_c, 0, 60, 88
4, 482880, Note_on_c, 0, 60, 0
4, 483000, Note_on_c, 0, 60, 89
4, 483120, Note_on_c, 0, 60, 0
4, 483240, Note_on_c, 0, 60, 89
4, 483360, Note_on_c, 0, 60, 0
4, 483480, Note_on_c, 0, 60, 90
4, 483600, Note_on_c, 0, 60, 0
4, 483720, Note_on_c, 0, 60, 90
4, 483840, Note_on_c, 0, 60, 0
4, 483960, Note_on_c, 0, 60, 91
4, 484080, Note_on_c, 0, 60, 0
4, 486120, Note_on_c, 0, 51, 90
4, 486240, Note_on_c, 0, 51, 0
4, 486360, Note_on_c, 0, 51, 91
4, 486480, Note_on_c, 0, 51, 0
4, 486600, Note_on_c, 0, 51, 92
4, 486720, Note_on_c, 0, 51, 0
4, 486840, Note_on_c, 0, 51, 93
4, 486960, Note_on_c, 0, 51, 0
4, 487080, Note_on_c, 0, 51, 94
4, 487200, Note_on_c, 0, 51, 0
4, 487320, Note_on_c, 0, 51, 95
4, 487440, Note_on_c, 0, 51, 0
4, 487560, Note_on_c, 0, 51, 96
4, 487656, Note_on_c, 0, 51, 0
4, 487800, Note_on_c, 0, 56, 97
4, 487896, Note_on_c, 0, 56, 0
4, 488040, Note_on_c, 0, 55, 98
4, 488136, Note_on_c, 0, 55, 0
4, 488280, Note_on_c, 0, 56, 99
4, 488376, Note_on_c, 0, 56, 0
4, 488520, Note_on_c, 0, 53, 101
4, 488616, Note_on_c, 0, 53, 0
4, 488760, Note_on_c, 0, 49, 102
4, 488856, Note_on_c, 0, 49, 0
4, 489000, Note_on_c, 0, 51, 103
4, 489096, Note_on_c, 0, 51, 0
4, 489240, Note_on_c, 0, 51, 104
4, 489336, Note_on_c, 0, 51, 0
4, 489960, Note_on_c, 0, 56, 99
4, 490080, Note_on_c, 0, 56, 0
4, 490200, Note_on_c, 0, 53, 97
4, 490320, Note_on_c, 0, 53, 0
4, 490440, Note_on_c, 0, 55, 95
4, 490560, Note_on_c, 0, 55, 0
4, 490680, Note_on_c, 0, 52, 93
4, 490800, Note_on_c, 0, 52, 0
4, 490920, Note_on_c, 0, 53, 91
4, 491040, Note_on_c, 0, 53, 0
4, 491160, Note_on_c, 0, 50, 88
4, 491280, Note_on_c, 0, 50, 0
4, 491280, Note_on_c, 0, 51, 87
4, 491400, Note_on_c, 0, 51, 0
4, 491880, Note_on_c, 0, 67, 92
4, 492000, Note_on_c, 0, 67, 0
4, 492120, Note_on_c, 0, 68, 89
4, 492240, Note_on_c, 0, 68, 0
4, 492360, Note_on_c, 0, 65, 87
4, 492480, Note_on_c, 0, 65, 0
4, 492600, Note_on_c, 0, 67, 84
4, 492720, Note_on_c, 0, 67, 0
4, 492960, Note_on_c, 0, 63, 82
4, 493080, Note_on_c, 0, 63, 0
4, 493200, Note_on_c, 0, 65, 79
4, 493320, Note_on_c, 0, 65, 0
4, 493440, Note_on_c, 0, 58, 110
4, 493560, Note_on_c, 0, 58, 0
4, 493800, Note_on_c, 0, 58, 80
4, 493920, Note_on_c, 0, 58, 0
4, 494040, Note_on_c, 0, 62, 79
4, 494160, Note_on_c, 0, 62, 0
4, 494280, Note_on_c, 0, 58, 78
4, 494400, Note_on_c, 0, 58, 0
4, 494520, Note_on_c, 0, 62, 77
4, 494640, Note_on_c, 0, 62, 0
4, 494760, Note_on_c, 0, 58, 76
4, 494880, Note_on_c, 0, 58, 0
4, 495000, Note_on_c, 0, 62, 76
4, 495120, Note_on_c, 0, 62, 0
4, 495240, Note_on_c, 0, 58, 75
4, 495360, Note_on_c, 0, 58, 0
4, 495480, Note_on_c, 0, 62, 74
4, 495600, Note_on_c, 0, 62, 0
4, 495720, Note_on_c, 0, 58, 73
4, 495840, Note_on_c, 0, 58, 0
4, 495960, Note_on_c, 0, 62, 72
4, 496080, Note_on_c, 0, 62, 0
4, 496200, Note_on_c, 0, 58, 71
4, 496320, Note_on_c, 0, 58, 0
4, 496440, Note_on_c, 0, 62, 70
4, 496560, Note_on_c, 0, 62, 0
4, 496680, Note_on_c, 0, 58, 69
4, 496800, Note_on_c, 0, 58, 0
4, 496920, Note_on_c, 0, 62, 69
4, 497040, Note_on_c, 0, 62, 0
4, 497160, Note_on_c, 0, 58, 68
4, 497280, Note_on_c, 0, 58, 0
4, 497400, Note_on_c, 0, 62, 67
4, 497520, Note_on_c, 0, 62, 0
4, 497760, Note_on_c, 0, 46, 70
4, 497880, Note_on_c, 0, 46, 0
4, 498240, Note_on_c, 0, 50, 74
4, 498360, Note_on_c, 0, 50, 0
4, 498720, Note_on_c, 0, 53, 78
4, 498840, Note_on_c, 0, 53, 0
4, 498960, Note_on_c, 0, 50, 80
4, 499080, Note_on_c, 0, 50, 0
4, 499200, Note_on_c, 0, 46, 81
4, 499320, Note_on_c, 0, 46, 0
4, 499680, Note_on_c, 0, 34, 85
4, 499800, Note_on_c, 0, 34, 0
4, 500160, Note_on_c, 0, 38, 89
4, 500280, Note_on_c, 0, 38, 0
4, 500640, Note_on_c, 0, 41, 93
4, 500760, Note_on_c, 0, 41, 0
4, 500880, Note_on_c, 0, 38, 95
4, 501000, Note_on_c, 0, 38, 0
4, 501120, Note_on_c, 0, 34, 96
4, 501240, Note_on_c, 0, 34, 0
4, 501600, Note_on_c, 0, 53, 100
4, 501720, Note_on_c, 0, 53, 0
4, 501840, Note_on_c, 0, 50, 102
4, 501960, Note_on_c, 0, 50, 0
4, 502080, Note_on_c, 0, 46, 104
4, 502200, Note_on_c, 0, 46, 0
4, 502560, Note_on_c, 0, 34, 108
4, 502680, Note_on_c, 0, 34, 0
4, 502800, Note_on_c, 0, 39, 110
4, 502920, Note_on_c, 0, 39, 0
4, 518760, Note_on_c, 0, 60, 65
4, 518880, Note_on_c, 0, 60, 0
4, 519000, Note_on_c, 0, 57, 67
4, 519120, Note_on_c, 0, 57, 0
4, 519240, Note_on_c, 0, 58, 68
4, 519360, Note_on_c, 0, 58, 0
4, 519480, Note_on_c, 0, 55, 69
4, 519600, Note_on_c, 0, 55, 0
4, 519720, Note_on_c, 0, 56, 70
4, 519840, Note_on_c, 0, 56, 0
4, 519960, Note_on_c, 0, 53, 71
4, 520080, Note_on_c, 0, 53, 0
4, 520200, Note_on_c, 0, 55, 72
4, 520320, Note_on_c, 0, 55, 0
4, 520440, Note_on_c, 0, 52, 73
4, 520560, Note_on_c, 0, 52, 0
4, 520680, Note_on_c, 0, 50, 75
4, 520800, Note_on_c, 0, 50, 0
4, 520920, Note_on_c, 0, 51, 77
4, 521040, Note_on_c, 0, 51, 0
4, 521160, Note_on_c, 0, 51, 75
4, 521280, Note_on_c, 0, 51, 0
4, 521280, Note_on_c, 0, 50, 76
4, 521400, Note_on_c, 0, 50, 0
4, 521400, Note_on_c, 0, 51, 74
4, 521520, Note_on_c, 0, 51, 0
4, 521640, Note_on_c, 0, 51, 76
4, 521760, Note_on_c, 0, 51, 0
4, 521880, Note_on_c, 0, 51, 77
4, 522000, Note_on_c, 0, 51, 0
4, 522120, Note_on_c, 0, 51, 79
4, 522240, Note_on_c, 0, 51, 0
4, 522360, Note_on_c, 0, 51, 81
4, 522480, Note_on_c, 0, 51, 0
4, 522600, Note_on_c, 0, 51, 83
4, 522720, Note_on_c, 0, 51, 0
4, 522840, Note_on_c, 0, 51, 84
4, 522960, Note_on_c, 0, 51, 0
4, 523080, Note_on_c, 0, 51, 86
4, 523200, Note_on_c, 0, 51, 0
4, 523320, Note_on_c, 0, 51, 88
4, 523440, Note_on_c, 0, 51, 0
4, 523560, Note_on_c, 0, 51, 90
4, 523680, Note_on_c, 0, 51, 0
4, 523800, Note_on_c, 0, 51, 90
4, 523920, Note_on_c, 0, 51, 0
4, 526440, Note_on_c, 0, 58, 81
4, 526560, Note_on_c, 0, 58, 0
4, 526680, Note_on_c, 0, 58, 81
4, 526800, Note_on_c, 0, 58, 0
4, 526920, Note_on_c, 0, 58, 82
4, 527040, Note_on_c, 0, 58, 0
4, 527160, Note_on_c, 0, 58, 82
4, 527280, Note_on_c, 0, 58, 0
4, 527400, Note_on_c, 0, 58, 82
4, 527520, Note_on_c, 0, 58, 0
4, 527640, Note_on_c, 0, 58, 83
4, 527760, Note_on_c, 0, 58, 0
4, 527880, Note_on_c, 0, 58, 83
4, 528000, Note_on_c, 0, 58, 0
4, 528120, Note_on_c, 0, 58, 83
4, 528240, Note_on_c, 0, 58, 0
4, 532200, Note_on_c, 0, 60, 87
4, 532320, Note_on_c, 0, 60, 0
4, 532440, Note_on_c, 0, 60, 88
4, 532560, Note_on_c, 0, 60, 0
4, 532680, Note_on_c, 0, 60, 88
4, 532800, Note_on_c, 0, 60, 0
4, 532920, Note_on_c, 0, 60, 89
4, 533040, Note_on_c, 0, 60, 0
4, 533160, Note_on_c, 0, 60, 89
4, 533280, Note_on_c, 0, 60, 0
4, 533400, Note_on_c, 0, 60, 90
4, 533520, Note_on_c, 0, 60, 0
4, 533640, Note_on_c, 0, 60, 90
4, 533760, Note_on_c, 0, 60, 0
4, 533880, Note_on_c, 0, 60, 91
4, 534000, Note_on_c, 0, 60, 0
4, 536040, Note_on_c, 0, 51, 90
4, 536160, Note_on_c, 0, 51, 0
4, 536280, Note_on_c, 0, 51, 91
4, 536400, Note_on_c, 0, 51, 0
4, 536520, Note_on_c, 0, 51, 92
4, 536640, Note_on_c, 0, 51, 0
4, 536760, Note_on_c, 0, 51, 93
4, 536880, Note_on_c, 0, 51, 0
4, 537000, Note_on_c, 0, 51, 94
4, 537120, Note_on_c, 0, 51, 0
4, 537240, Note_on_c, 0, 51, 95
4, 537360, Note_on_c, 0, 51, 0
4, 537480, Note_on_c, 0, 51, 96
4, 537576, Note_on_c, 0, 51, 0
4, 537720, Note_on_c, 0, 56, 97
4, 537816, Note_on_c, 0, 56, 0
4, 537960, Note_on_c, 0, 55, 98
4, 538056, Note_on_c, 0, 55, 0
4, 538200, Note_on_c, 0, 56, 99
4, 538296, Note_on_c, 0, 56, 0
4, 538440, Note_on_c, 0, 53, 101
4, 538536, Note_on_c, 0, 53, 0
4, 538680, Note_on_c, 0, 49, 102
4, 538776, Note_on_c, 0, 49, 0
4, 538920, Note_on_c, 0, 51, 103
4, 539016, Note_on_c, 0, 51, 0
4, 539160, Note_on_c, 0, 51, 104
4, 539256, Note_on_c, 0, 51, 0
4, 539880, Note_on_c, 0, 43, 59
4, 540000, Note_on_c, 0, 43, 0
4, 540120, Note_on_c, 0, 43, 61
4, 540240, Note_on_c, 0, 43, 0
4, 540360, Note_on_c, 0, 43, 63
4, 540480, Note_on_c, 0, 43, 0
4, 540600, Note_on_c, 0, 43, 65
4, 540720, Note_on_c, 0, 43, 0
4, 540840, Note_on_c, 0, 43, 68
4, 540960, Note_on_c, 0, 43, 0
4, 541080, Note_on_c, 0, 43, 70
4, 541200, Note_on_c, 0, 43, 0
4, 541320, Note_on_c, 0, 43, 72
4, 541440, Note_on_c, 0, 43, 0
4, 541560, Note_on_c, 0, 43, 75
4, 541680, Note_on_c, 0, 43, 0
4, 541800, Note_on_c, 0, 43, 77
4, 541920, Note_on_c, 0, 43, 0
4, 542040, Note_on_c, 0, 43, 79
4, 542160, Note_on_c, 0, 43, 0
4, 542280, Note_on_c, 0, 43, 81
4, 542400, Note_on_c, 0, 43, 0
4, 542520, Note_on_c, 0, 43, 86
4, 542640, Note_on_c, 0, 43, 0
4, 542760, Note_on_c, 0, 43, 91
4, 542880, Note_on_c, 0, 43, 0
4, 543000, Note_on_c, 0, 43, 111
4, 543120, Note_on_c, 0, 43, 0
4, 543240, Note_on_c, 0, 43, 69
4, 543360, Note_on_c, 0, 43, 0
4, 543480, Note_on_c, 0, 43, 71
4, 543600, Note_on_c, 0, 43, 0
4, 543720, Note_on_c, 0, 43, 73
4, 543840, Note_on_c, 0, 43, 0
4, 543960, Note_on_c, 0, 43, 75
4, 544080, Note_on_c, 0, 43, 0
4, 544200, Note_on_c, 0, 43, 77
4, 544320, Note_on_c, 0, 43, 0
4, 544440, Note_on_c, 0, 43, 79
4, 544560, Note_on_c, 0, 43, 0
4, 544680, Note_on_c, 0, 43, 81
4, 544800, Note_on_c, 0, 43, 0
4, 544920, Note_on_c, 0, 43, 83
4, 545040, Note_on_c, 0, 43, 0
4, 545160, Note_on_c, 0, 43, 86
4, 545280, Note_on_c, 0, 43, 0
4, 545400, Note_on_c, 0, 43, 88
4, 545520, Note_on_c, 0, 43, 0
4, 545640, Note_on_c, 0, 43, 90
4, 545760, Note_on_c, 0, 43, 0
4, 545880, Note_on_c, 0, 43, 92
4, 546000, Note_on_c, 0, 43, 0
4, 546120, Note_on_c, 0, 43, 95
4, 546240, Note_on_c, 0, 43, 0
4, 546360, Note_on_c, 0, 43, 98
4, 546480, Note_on_c, 0, 43, 0
4, 546600, Note_on_c, 0, 43, 102
4, 546720, Note_on_c, 0, 43, 0
4, 546840, Note_on_c, 0, 50, 113
4, 546960, Note_on_c, 0, 50, 0
4, 547080, Note_on_c, 0, 43, 79
4, 547200, Note_on_c, 0, 43, 0
4, 547320, Note_on_c, 0, 43, 81
4, 547440, Note_on_c, 0, 43, 0
4, 547560, Note_on_c, 0, 43, 59
4, 547680, Note_on_c, 0, 43, 0
4, 547800, Note_on_c, 0, 43, 61
4, 547920, Note_on_c, 0, 43, 0
4, 548040, Note_on_c, 0, 43, 63
4, 548160, Note_on_c, 0, 43, 0
4, 548280, Note_on_c, 0, 43, 65
4, 548400, Note_on_c, 0, 43, 0
4, 548520, Note_on_c, 0, 43, 68
4, 548640, Note_on_c, 0, 43, 0
4, 548760, Note_on_c, 0, 43, 70
4, 548880, Note_on_c, 0, 43, 0
4, 549000, Note_on_c, 0, 43, 72
4, 549120, Note_on_c, 0, 43, 0
4, 549240, Note_on_c, 0, 43, 75
4, 549360, Note_on_c, 0, 43, 0
4, 549480, Note_on_c, 0, 43, 77
4, 549600, Note_on_c, 0, 43, 0
4, 549720, Note_on_c, 0, 43, 79
4, 549840, Note_on_c, 0, 43, 0
4, 549960, Note_on_c, 0, 43, 81
4, 550080, Note_on_c, 0, 43, 0
4, 550200, Note_on_c, 0, 43, 86
4, 550320, Note_on_c, 0, 43, 0
4, 550440, Note_on_c, 0, 43, 91
4, 550560, Note_on_c, 0, 43, 0
4, 550680, Note_on_c, 0, 43, 111
4, 550800, Note_on_c, 0, 43, 0
4, 550920, Note_on_c, 0, 43, 69
4, 551040, Note_on_c, 0, 43, 0
4, 551160, Note_on_c, 0, 43, 71
4, 551280, Note_on_c, 0, 43, 0
4, 551400, Note_on_c, 0, 43, 73
4, 551520, Note_on_c, 0, 43, 0
4, 551640, Note_on_c, 0, 43, 75
4, 551760, Note_on_c, 0, 43, 0
4, 551880, Note_on_c, 0, 43, 77
4, 552000, Note_on_c, 0, 43, 0
4, 552120, Note_on_c, 0, 43, 79
4, 552240, Note_on_c, 0, 43, 0
4, 552360, Note_on_c, 0, 43, 81
4, 552480, Note_on_c, 0, 43, 0
4, 552600, Note_on_c, 0, 43, 83
4, 552720, Note_on_c, 0, 43, 0
4, 552840, Note_on_c, 0, 43, 86
4, 552960, Note_on_c, 0, 43, 0
4, 553080, Note_on_c, 0, 43, 88
4, 553200, Note_on_c, 0, 43, 0
4, 553320, Note_on_c, 0, 43, 90
4, 553440, Note_on_c, 0, 43, 0
4, 553560, Note_on_c, 0, 43, 92
4, 553680, Note_on_c, 0, 43, 0
4, 553800, Note_on_c, 0, 43, 95
4, 553920, Note_on_c, 0, 43, 0
4, 554040, Note_on_c, 0, 43, 98
4, 554160, Note_on_c, 0, 43, 0
4, 554280, Note_on_c, 0, 43, 102
4, 554400, Note_on_c, 0, 43, 0
4, 554520, Note_on_c, 0, 50, 113
4, 554640, Note_on_c, 0, 50, 0
4, 554760, Note_on_c, 0, 43, 79
4, 554880, Note_on_c, 0, 43, 0
4, 555000, Note_on_c, 0, 43, 81
4, 555120, Note_on_c, 0, 43, 0
4, 555240, Note_on_c, 0, 50, 80
4, 555360, Note_on_c, 0, 50, 0
4, 555480, Note_on_c, 0, 50, 79
4, 555600, Note_on_c, 0, 50, 0
4, 555720, Note_on_c, 0, 50, 78
4, 555840, Note_on_c, 0, 50, 0
4, 555960, Note_on_c, 0, 50, 77
4, 556080, Note_on_c, 0, 50, 0
4, 556200, Note_on_c, 0, 50, 77
4, 556320, Note_on_c, 0, 50, 0
4, 556440, Note_on_c, 0, 50, 91
4, 556560, Note_on_c, 0, 50, 0
4, 556680, Note_on_c, 0, 50, 75
4, 556800, Note_on_c, 0, 50, 0
4, 556920, Note_on_c, 0, 50, 74
4, 557040, Note_on_c, 0, 50, 0
4, 557160, Note_on_c, 0, 50, 73
4, 557280, Note_on_c, 0, 50, 0
4, 557400, Note_on_c, 0, 49, 72
4, 557520, Note_on_c, 0, 49, 0
4, 557640, Note_on_c, 0, 48, 72
4, 557760, Note_on_c, 0, 48, 0
4, 557880, Note_on_c, 0, 49, 71
4, 558000, Note_on_c, 0, 49, 0
4, 558120, Note_on_c, 0, 48, 70
4, 558240, Note_on_c, 0, 48, 0
4, 558360, Note_on_c, 0, 48, 87
4, 558480, Note_on_c, 0, 48, 0
4, 558600, Note_on_c, 0, 48, 68
4, 558720, Note_on_c, 0, 48, 0
4, 558840, Note_on_c, 0, 48, 67
4, 558960, Note_on_c, 0, 48, 0
4, 559080, Note_on_c, 0, 48, 67
4, 559200, Note_on_c, 0, 48, 0
4, 559320, Note_on_c, 0, 48, 66
4, 559440, Note_on_c, 0, 48, 0
4, 559560, Note_on_c, 0, 48, 65
4, 559680, Note_on_c, 0, 48, 0
4, 559800, Note_on_c, 0, 48, 64
4, 559920, Note_on_c, 0, 48, 0
4, 560040, Note_on_c, 0, 48, 63
4, 560160, Note_on_c, 0, 48, 0
4, 560280, Note_on_c, 0, 48, 79
4, 560400, Note_on_c, 0, 48, 0
4, 560520, Note_on_c, 0, 48, 64
4, 560640, Note_on_c, 0, 48, 0
4, 560760, Note_on_c, 0, 48, 61
4, 560880, Note_on_c, 0, 48, 0
4, 561000, Note_on_c, 0, 48, 60
4, 561120, Note_on_c, 0, 48, 0
4, 561240, Note_on_c, 0, 47, 59
4, 561360, Note_on_c, 0, 47, 0
4, 561480, Note_on_c, 0, 46, 58
4, 561600, Note_on_c, 0, 46, 0
4, 561720, Note_on_c, 0, 47, 57
4, 561840, Note_on_c, 0, 47, 0
4, 561960, Note_on_c, 0, 46, 57
4, 562080, Note_on_c, 0, 46, 0
4, 562200, Note_on_c, 0, 46, 70
4, 562320, Note_on_c, 0, 46, 0
4, 562440, Note_on_c, 0, 46, 55
4, 562560, Note_on_c, 0, 46, 0
4, 562680, Note_on_c, 0, 46, 54
4, 562800, Note_on_c, 0, 46, 0
4, 572520, Note_on_c, 0, 60, 65
4, 572640, Note_on_c, 0, 60, 0
4, 572760, Note_on_c, 0, 57, 67
4, 572880, Note_on_c, 0, 57, 0
4, 573000, Note_on_c, 0, 58, 68
4, 573120, Note_on_c, 0, 58, 0
4, 573240, Note_on_c, 0, 55, 70
4, 573360, Note_on_c, 0, 55, 0
4, 573480, Note_on_c, 0, 56, 71
4, 573600, Note_on_c, 0, 56, 0
4, 573720, Note_on_c, 0, 53, 72
4, 573840, Note_on_c, 0, 53, 0
4, 573960, Note_on_c, 0, 55, 72
4, 574080, Note_on_c, 0, 55, 0
4, 574200, Note_on_c, 0, 52, 73
4, 574320, Note_on_c, 0, 52, 0
4, 574440, Note_on_c, 0, 53, 74
4, 574560, Note_on_c, 0, 53, 0
4, 574680, Note_on_c, 0, 50, 75
4, 574800, Note_on_c, 0, 50, 0
4, 574920, Note_on_c, 0, 51, 77
4, 575040, Note_on_c, 0, 51, 0
4, 575040, Note_on_c, 0, 50, 76
4, 575160, Note_on_c, 0, 50, 0
4, 575160, Note_on_c, 0, 51, 75
4, 575280, Note_on_c, 0, 51, 0
4, 575400, Note_on_c, 0, 51, 74
4, 575520, Note_on_c, 0, 51, 0
4, 575640, Note_on_c, 0, 51, 76
4, 575760, Note_on_c, 0, 51, 0
4, 575880, Note_on_c, 0, 51, 77
4, 576000, Note_on_c, 0, 51, 0
4, 576120, Note_on_c, 0, 51, 79
4, 576240, Note_on_c, 0, 51, 0
4, 576360, Note_on_c, 0, 51, 81
4, 576480, Note_on_c, 0, 51, 0
4, 576600, Note_on_c, 0, 51, 83
4, 576720, Note_on_c, 0, 51, 0
4, 576840, Note_on_c, 0, 51, 84
4, 576960, Note_on_c, 0, 51, 0
4, 577080, Note_on_c, 0, 51, 86
4, 577200, Note_on_c, 0, 51, 0
4, 577320, Note_on_c, 0, 51, 88
4, 577440, Note_on_c, 0, 51, 0
4, 577560, Note_on_c, 0, 51, 90
4, 577680, Note_on_c, 0, 51, 0
4, 580200, Note_on_c, 0, 58, 81
4, 580320, Note_on_c, 0, 58, 0
4, 580440, Note_on_c, 0, 58, 81
4, 580560, Note_on_c, 0, 58, 0
4, 580680, Note_on_c, 0, 58, 82
4, 580800, Note_on_c, 0, 58, 0
4, 580920, Note_on_c, 0, 58, 82
4, 581040, Note_on_c, 0, 58, 0
4, 581160, Note_on_c, 0, 58, 82
4, 581280, Note_on_c, 0, 58, 0
4, 581400, Note_on_c, 0, 58, 83
4, 581520, Note_on_c, 0, 58, 0
4, 581640, Note_on_c, 0, 58, 83
4, 581760, Note_on_c, 0, 58, 0
4, 581880, Note_on_c, 0, 58, 83
4, 582000, Note_on_c, 0, 58, 0
4, 585960, Note_on_c, 0, 60, 87
4, 586080, Note_on_c, 0, 60, 0
4, 586200, Note_on_c, 0, 60, 88
4, 586320, Note_on_c, 0, 60, 0
4, 586440, Note_on_c, 0, 60, 88
4, 586560, Note_on_c, 0, 60, 0
4, 586680, Note_on_c, 0, 60, 89
4, 586800, Note_on_c, 0, 60, 0
4, 586920, Note_on_c, 0, 60, 89
4, 587040, Note_on_c, 0, 60, 0
4, 587160, Note_on_c, 0, 60, 90
4, 587280, Note_on_c, 0, 60, 0
4, 587400, Note_on_c, 0, 60, 90
4, 587520, Note_on_c, 0, 60, 0
4, 587640, Note_on_c, 0, 60, 91
4, 587760, Note_on_c, 0, 60, 0
4, 589800, Note_on_c, 0, 51, 90
4, 589920, Note_on_c, 0, 51, 0
4, 590040, Note_on_c, 0, 51, 91
4, 590160, Note_on_c, 0, 51, 0
4, 590280, Note_on_c, 0, 51, 92
4, 590400, Note_on_c, 0, 51, 0
4, 590520, Note_on_c, 0, 51, 93
4, 590640, Note_on_c, 0, 51, 0
4, 590760, Note_on_c, 0, 51, 94
4, 590880, Note_on_c, 0, 51, 0
4, 591000, Note_on_c, 0, 51, 95
4, 591120, Note_on_c, 0, 51, 0
4, 591240, Note_on_c, 0, 51, 96
4, 591336, Note_on_c, 0, 51, 0
4, 591480, Note_on_c, 0, 56, 97
4, 591576, Note_on_c, 0, 56, 0
4, 591720, Note_on_c, 0, 55, 98
4, 591816, Note_on_c, 0, 55, 0
4, 591960, Note_on_c, 0, 56, 99
4, 592056, Note_on_c, 0, 56, 0
4, 592200, Note_on_c, 0, 53, 101
4, 592296, Note_on_c, 0, 53, 0
4, 592440, Note_on_c, 0, 49, 102
4, 592536, Note_on_c, 0, 49, 0
4, 592680, Note_on_c, 0, 51, 103
4, 592776, Note_on_c, 0, 51, 0
4, 592920, Note_on_c, 0, 51, 104
4, 593016, Note_on_c, 0, 51, 0
4, 593640, Note_on_c, 0, 56, 104
4, 593760, Note_on_c, 0, 56, 0
4, 593880, Note_on_c, 0, 53, 104
4, 594000, Note_on_c, 0, 53, 0
4, 594120, Note_on_c, 0, 55, 104
4, 594240, Note_on_c, 0, 55, 0
4, 594360, Note_on_c, 0, 52, 103
4, 594480, Note_on_c, 0, 52, 0
4, 594480, Note_on_c, 0, 53, 103
4, 594600, Note_on_c, 0, 53, 0
4, 594720, Note_on_c, 0, 50, 103
4, 594840, Note_on_c, 0, 50, 0
4, 595560, Note_on_c, 0, 67, 102
4, 595680, Note_on_c, 0, 67, 0
4, 595800, Note_on_c, 0, 68, 101
4, 595920, Note_on_c, 0, 68, 0
4, 596040, Note_on_c, 0, 65, 101
4, 596160, Note_on_c, 0, 65, 0
4, 596280, Note_on_c, 0, 67, 101
4, 596400, Note_on_c, 0, 67, 0
4, 596520, Note_on_c, 0, 63, 101
4, 596647, Note_on_c, 0, 63, 0
4, 596760, Note_on_c, 0, 65, 100
4, 596880, Note_on_c, 0, 65, 0
4, 597480, Note_on_c, 0, 58, 99
4, 597600, Note_on_c, 0, 58, 0
4, 597720, Note_on_c, 0, 55, 99
4, 597840, Note_on_c, 0, 55, 0
4, 597960, Note_on_c, 0, 56, 99
4, 598080, Note_on_c, 0, 56, 0
4, 598200, Note_on_c, 0, 53, 98
4, 598320, Note_on_c, 0, 53, 0
4, 598320, Note_on_c, 0, 55, 98
4, 598440, Note_on_c, 0, 55, 0
4, 598560, Note_on_c, 0, 52, 98
4, 598680, Note_on_c, 0, 52, 0
4, 599400, Note_on_c, 0, 68, 97
4, 599520, Note_on_c, 0, 68, 0
4, 599640, Note_on_c, 0, 70, 97
4, 599760, Note_on_c, 0, 70, 0
4, 599760, Note_on_c, 0, 67, 96
4, 599880, Note_on_c, 0, 67, 0
4, 600000, Note_on_c, 0, 68, 96
4, 600120, Note_on_c, 0, 68, 0
4, 600240, Note_on_c, 0, 65, 96
4, 600360, Note_on_c, 0, 65, 0
4, 600480, Note_on_c, 0, 67, 95
4, 600600, Note_on_c, 0, 67, 0
4, 603240, Note_on_c, 0, 51, 80
4, 603360, Note_on_c, 0, 51, 0
4, 603480, Note_on_c, 0, 55, 79
4, 603600, Note_on_c, 0, 55, 0
4, 603720, Note_on_c, 0, 51, 78
4, 603840, Note_on_c, 0, 51, 0
4, 603960, Note_on_c, 0, 55, 77
4, 604080, Note_on_c, 0, 55, 0
4, 604200, Note_on_c, 0, 51, 76
4, 604320, Note_on_c, 0, 51, 0
4, 604440, Note_on_c, 0, 55, 76
4, 604560, Note_on_c, 0, 55, 0
4, 604680, Note_on_c, 0, 51, 75
4, 604800, Note_on_c, 0, 51, 0
4, 604920, Note_on_c, 0, 55, 74
4, 605040, Note_on_c, 0, 55, 0
4, 605160, Note_on_c, 0, 51, 73
4, 605280, Note_on_c, 0, 51, 0
4, 605400, Note_on_c, 0, 55, 72
4, 605520, Note_on_c, 0, 55, 0
4, 605640, Note_on_c, 0, 51, 71
4, 605760, Note_on_c, 0, 51, 0
4, 605880, Note_on_c, 0, 55, 70
4, 606000, Note_on_c, 0, 55, 0
4, 606120, Note_on_c, 0, 51, 69
4, 606240, Note_on_c, 0, 51, 0
4, 606360, Note_on_c, 0, 55, 69
4, 606480, Note_on_c, 0, 55, 0
4, 606600, Note_on_c, 0, 51, 68
4, 606720, Note_on_c, 0, 51, 0
4, 606840, Note_on_c, 0, 55, 67
4, 606960, Note_on_c, 0, 55, 0
4, 606960, End_track
5, 0, Start_track
5, 0, Title_t, "Piano"
5, 0, Program_c, 0, 0
5, 0, Control_c, 0, 7, 115
5, 0, Control_c, 0, 10, 47
5, 0, Control_c, 0, 91, 91
5, 0, Control_c, 0, 93, 28
5, 0, Sequencer_specific, 5, 5, 15, 9, 0, 64
5, 0, Sequencer_specific, 15, 5, 15, 6, 71, 101, 110, 101, 114, 97, 108, 32, 77, 73, 68, 73
5, 0, Program_c, 0, 0
5, 0, Control_c, 0, 64, 0
5, 0, Control_c, 0, 1, 0
5, 0, Pitch_bend_c, 0, 8192
5, 720, Note_on_c, 0, 44, 60
5, 1350, Note_on_c, 0, 44, 0
5, 1440, Note_on_c, 0, 46, 62
5, 2100, Note_on_c, 0, 46, 0
5, 2400, Note_on_c, 0, 48, 64
5, 2640, Note_on_c, 0, 48, 0
5, 2640, Note_on_c, 0, 43, 67
5, 2880, Note_on_c, 0, 43, 0
5, 2880, Note_on_c, 0, 44, 72
5, 3120, Note_on_c, 0, 44, 0
5, 3120, Note_on_c, 0, 39, 63
5, 3240, Note_on_c, 0, 39, 0
5, 3600, Note_on_c, 0, 53, 60
5, 3840, Note_on_c, 0, 53, 0
5, 3840, Note_on_c, 0, 65, 63
5, 4080, Note_on_c, 0, 65, 0
5, 4080, Note_on_c, 0, 63, 66
5, 4320, Note_on_c, 0, 63, 0
5, 4320, Note_on_c, 0, 62, 70
5, 4560, Note_on_c, 0, 62, 0
5, 4560, Note_on_c, 0, 61, 73
5, 4800, Note_on_c, 0, 61, 0
5, 4800, Note_on_c, 0, 60, 76
5, 5040, Note_on_c, 0, 60, 0
5, 5040, Note_on_c, 0, 53, 63
5, 5280, Note_on_c, 0, 53, 0
5, 5280, Note_on_c, 0, 55, 65
5, 5520, Note_on_c, 0, 55, 0
5, 5520, Note_on_c, 0, 56, 67
5, 5760, Note_on_c, 0, 56, 0
5, 5760, Note_on_c, 0, 51, 73
5, 6120, Note_on_c, 0, 51, 0
5, 6480, Note_on_c, 0, 44, 61
5, 7140, Note_on_c, 0, 44, 0
5, 7200, Note_on_c, 0, 46, 62
5, 7807, Note_on_c, 0, 46, 0
5, 8160, Note_on_c, 0, 48, 62
5, 8400, Note_on_c, 0, 48, 0
5, 8400, Note_on_c, 0, 43, 66
5, 8640, Note_on_c, 0, 43, 0
5, 8640, Note_on_c, 0, 44, 71
5, 8880, Note_on_c, 0, 44, 0
5, 8880, Note_on_c, 0, 39, 61
5, 9003, Note_on_c, 0, 39, 0
5, 9360, Note_on_c, 0, 53, 59
5, 9600, Note_on_c, 0, 53, 0
5, 9600, Note_on_c, 0, 65, 62
5, 9840, Note_on_c, 0, 65, 0
5, 9840, Note_on_c, 0, 63, 65
5, 10080, Note_on_c, 0, 63, 0
5, 10080, Note_on_c, 0, 62, 68
5, 10320, Note_on_c, 0, 62, 0
5, 10320, Note_on_c, 0, 61, 71
5, 10560, Note_on_c, 0, 61, 0
5, 10560, Note_on_c, 0, 60, 74
5, 10800, Note_on_c, 0, 60, 0
5, 11040, Note_on_c, 0, 51, 67
5, 11280, Note_on_c, 0, 51, 0
5, 11280, Note_on_c, 0, 39, 64
5, 11520, Note_on_c, 0, 39, 0
5, 11520, Note_on_c, 0, 44, 61
5, 11640, Note_on_c, 0, 44, 0
5, 11760, Note_on_c, 0, 32, 57
5, 11880, Note_on_c, 0, 32, 0
5, 12000, Note_on_c, 0, 65, 76
5, 12720, Note_on_c, 0, 65, 0
5, 12720, Note_on_c, 0, 63, 69
5, 12960, Note_on_c, 0, 63, 0
5, 12960, Note_on_c, 0, 63, 67
5, 13080, Note_on_c, 0, 63, 0
5, 13080, Note_on_c, 0, 61, 66
5, 13200, Note_on_c, 0, 61, 0
5, 13200, Note_on_c, 0, 60, 64
5, 13320, Note_on_c, 0, 60, 0
5, 13320, Note_on_c, 0, 58, 63
5, 13425, Note_on_c, 0, 58, 0
5, 13440, Note_on_c, 0, 63, 72
5, 14160, Note_on_c, 0, 63, 0
5, 14160, Note_on_c, 0, 61, 64
5, 14400, Note_on_c, 0, 61, 0
5, 14400, Note_on_c, 0, 61, 61
5, 14520, Note_on_c, 0, 61, 0
5, 14520, Note_on_c, 0, 60, 60
5, 14640, Note_on_c, 0, 60, 0
5, 14640, Note_on_c, 0, 58, 59
5, 14760, Note_on_c, 0, 58, 0
5, 14760, Note_on_c, 0, 56, 57
5, 14856, Note_on_c, 0, 56, 0
5, 15120, Note_on_c, 0, 56, 55
5, 15600, Note_on_c, 0, 56, 0
5, 15600, Note_on_c, 0, 55, 59
5, 15840, Note_on_c, 0, 55, 0
5, 15840, Note_on_c, 0, 56, 62
5, 16080, Note_on_c, 0, 56, 0
5, 16080, Note_on_c, 0, 52, 62
5, 16320, Note_on_c, 0, 52, 0
5, 16320, Note_on_c, 0, 53, 64
5, 16440, Note_on_c, 0, 53, 0
5, 16440, Note_on_c, 0, 56, 64
5, 16560, Note_on_c, 0, 56, 0
5, 16560, Note_on_c, 0, 46, 65
5, 17040, Note_on_c, 0, 46, 0
5, 17040, Note_on_c, 0, 47, 66
5, 17280, Note_on_c, 0, 47, 0
5, 17280, Note_on_c, 0, 48, 68
5, 17520, Note_on_c, 0, 48, 0
5, 17520, Note_on_c, 0, 44, 69
5, 17760, Note_on_c, 0, 44, 0
5, 17760, Note_on_c, 0, 45, 71
5, 18000, Note_on_c, 0, 45, 0
5, 18000, Note_on_c, 0, 46, 73
5, 18480, Note_on_c, 0, 46, 0
5, 18480, Note_on_c, 0, 34, 76
5, 18720, Note_on_c, 0, 34, 0
5, 18720, Note_on_c, 0, 39, 78
5, 18876, Note_on_c, 0, 39, 0
5, 18960, Note_on_c, 0, 41, 80
5, 19116, Note_on_c, 0, 41, 0
5, 19200, Note_on_c, 0, 43, 82
5, 19356, Note_on_c, 0, 43, 0
5, 19440, Note_on_c, 0, 44, 58
5, 20120, Note_on_c, 0, 44, 0
5, 20160, Note_on_c, 0, 46, 62
5, 20808, Note_on_c, 0, 46, 0
5, 21120, Note_on_c, 0, 48, 63
5, 21360, Note_on_c, 0, 48, 0
5, 21360, Note_on_c, 0, 43, 66
5, 21600, Note_on_c, 0, 43, 0
5, 21600, Note_on_c, 0, 44, 69
5, 21840, Note_on_c, 0, 44, 0
5, 21840, Note_on_c, 0, 39, 61
5, 21967, Note_on_c, 0, 39, 0
5, 22320, Note_on_c, 0, 41, 66
5, 22560, Note_on_c, 0, 53, 64
5, 22784, Note_on_c, 0, 41, 0
5, 22800, Note_on_c, 0, 53, 0
5, 22800, Note_on_c, 0, 51, 65
5, 23040, Note_on_c, 0, 51, 0
5, 23040, Note_on_c, 0, 50, 67
5, 23280, Note_on_c, 0, 50, 0
5, 23280, Note_on_c, 0, 49, 69
5, 23520, Note_on_c, 0, 49, 0
5, 23520, Note_on_c, 0, 48, 71
5, 23700, Note_on_c, 0, 48, 0
5, 24000, Note_on_c, 0, 51, 66
5, 24240, Note_on_c, 0, 51, 0
5, 24240, Note_on_c, 0, 39, 63
5, 24480, Note_on_c, 0, 39, 0
5, 24480, Note_on_c, 0, 44, 60
5, 24600, Note_on_c, 0, 44, 0
5, 24720, Note_on_c, 0, 32, 56
5, 24840, Note_on_c, 0, 32, 0
5, 25920, Note_on_c, 0, 32, 57
5, 26640, Note_on_c, 0, 32, 0
5, 26640, Note_on_c, 0, 34, 59
5, 27360, Note_on_c, 0, 34, 0
5, 27360, Note_on_c, 0, 36, 61
5, 27840, Note_on_c, 0, 36, 0
5, 27840, Note_on_c, 0, 43, 67
5, 28080, Note_on_c, 0, 43, 0
5, 28080, Note_on_c, 0, 44, 75
5, 28320, Note_on_c, 0, 44, 0
5, 28320, Note_on_c, 0, 39, 64
5, 28495, Note_on_c, 0, 39, 0
5, 28800, Note_on_c, 0, 41, 57
5, 29040, Note_on_c, 0, 53, 58
5, 29280, Note_on_c, 0, 53, 0
5, 29280, Note_on_c, 0, 41, 0
5, 29280, Note_on_c, 0, 51, 59
5, 29520, Note_on_c, 0, 51, 0
5, 29520, Note_on_c, 0, 50, 59
5, 29760, Note_on_c, 0, 50, 0
5, 29760, Note_on_c, 0, 49, 60
5, 30000, Note_on_c, 0, 49, 0
5, 30000, Note_on_c, 0, 48, 61
5, 30240, Note_on_c, 0, 48, 0
5, 30240, Note_on_c, 0, 41, 63
5, 30480, Note_on_c, 0, 41, 0
5, 30480, Note_on_c, 0, 43, 66
5, 30720, Note_on_c, 0, 43, 0
5, 30720, Note_on_c, 0, 44, 69
5, 30960, Note_on_c, 0, 44, 0
5, 30960, Note_on_c, 0, 39, 71
5, 31320, Note_on_c, 0, 39, 0
5, 31680, Note_on_c, 0, 32, 57
5, 31680, Note_on_c, 0, 39, 57
5, 32400, Note_on_c, 0, 39, 0
5, 32400, Note_on_c, 0, 32, 0
5, 32400, Note_on_c, 0, 34, 59
5, 32400, Note_on_c, 0, 39, 59
5, 33120, Note_on_c, 0, 39, 0
5, 33120, Note_on_c, 0, 34, 0
5, 33120, Note_on_c, 0, 36, 61
5, 33360, Note_on_c, 0, 36, 0
5, 33600, Note_on_c, 0, 43, 68
5, 33780, Note_on_c, 0, 43, 0
5, 33840, Note_on_c, 0, 44, 73
5, 34080, Note_on_c, 0, 44, 0
5, 34080, Note_on_c, 0, 39, 66
5, 34320, Note_on_c, 0, 39, 0
5, 34560, Note_on_c, 0, 41, 57
5, 34800, Note_on_c, 0, 53, 59
5, 35040, Note_on_c, 0, 53, 0
5, 35040, Note_on_c, 0, 41, 0
5, 35040, Note_on_c, 0, 51, 62
5, 35280, Note_on_c, 0, 51, 0
5, 35280, Note_on_c, 0, 50, 64
5, 35520, Note_on_c, 0, 50, 0
5, 35520, Note_on_c, 0, 49, 66
5, 35760, Note_on_c, 0, 49, 0
5, 35760, Note_on_c, 0, 48, 68
5, 36000, Note_on_c, 0, 48, 0
5, 36000, Note_on_c, 0, 51, 74
5, 36480, Note_on_c, 0, 51, 0
5, 36480, Note_on_c, 0, 39, 66
5, 36720, Note_on_c, 0, 39, 0
5, 36720, Note_on_c, 0, 44, 62
5, 36840, Note_on_c, 0, 44, 0
5, 36960, Note_on_c, 0, 32, 58
5, 37080, Note_on_c, 0, 32, 0
5, 37200, Control_c, 0, 64, 127
5, 37200, Note_on_c, 0, 65, 79
5, 37500, Note_on_c, 0, 65, 0
5, 37500, Note_on_c, 0, 53, 71
5, 37560, Note_on_c, 0, 53, 0
5, 37560, Note_on_c, 0, 57, 73
5, 37620, Note_on_c, 0, 57, 0
5, 37620, Note_on_c, 0, 60, 75
5, 37680, Note_on_c, 0, 60, 0
5, 37680, Note_on_c, 0, 65, 85
5, 37920, Control_c, 0, 64, 0
5, 38040, Note_on_c, 0, 65, 0
5, 38040, Note_on_c, 0, 63, 73
5, 38160, Note_on_c, 0, 63, 0
5, 38160, Note_on_c, 0, 63, 69
5, 38220, Note_on_c, 0, 63, 0
5, 38220, Note_on_c, 0, 61, 68
5, 38280, Note_on_c, 0, 61, 0
5, 38280, Note_on_c, 0, 60, 68
5, 38340, Note_on_c, 0, 60, 0
5, 38340, Note_on_c, 0, 58, 67
5, 38400, Note_on_c, 0, 58, 0
5, 38400, Note_on_c, 0, 57, 66
5, 38460, Note_on_c, 0, 57, 0
5, 38460, Note_on_c, 0, 58, 66
5, 38520, Note_on_c, 0, 58, 0
5, 38520, Note_on_c, 0, 61, 65
5, 38580, Note_on_c, 0, 61, 0
5, 38580, Note_on_c, 0, 58, 64
5, 38640, Note_on_c, 0, 58, 0
5, 38640, Note_on_c, 0, 46, 64
5, 38880, Note_on_c, 0, 46, 0
5, 38880, Control_c, 0, 64, 127
5, 38880, Note_on_c, 0, 63, 64
5, 38940, Note_on_c, 0, 63, 0
5, 38940, Note_on_c, 0, 51, 66
5, 39000, Note_on_c, 0, 51, 0
5, 39000, Note_on_c, 0, 55, 67
5, 39060, Note_on_c, 0, 55, 0
5, 39060, Note_on_c, 0, 58, 69
5, 39120, Note_on_c, 0, 58, 0
5, 39120, Note_on_c, 0, 63, 81
5, 39360, Control_c, 0, 64, 0
5, 39480, Note_on_c, 0, 63, 0
5, 39480, Note_on_c, 0, 61, 71
5, 39600, Note_on_c, 0, 61, 0
5, 39600, Note_on_c, 0, 61, 67
5, 39660, Note_on_c, 0, 61, 0
5, 39660, Note_on_c, 0, 60, 66
5, 39720, Note_on_c, 0, 60, 0
5, 39720, Note_on_c, 0, 58, 65
5, 39780, Note_on_c, 0, 58, 0
5, 39780, Note_on_c, 0, 56, 64
5, 39840, Note_on_c, 0, 56, 0
5, 39840, Note_on_c, 0, 55, 63
5, 39900, Note_on_c, 0, 55, 0
5, 39900, Note_on_c, 0, 56, 62
5, 39960, Note_on_c, 0, 56, 0
5, 39960, Note_on_c, 0, 60, 62
5, 40020, Note_on_c, 0, 60, 0
5, 40020, Note_on_c, 0, 56, 61
5, 40080, Note_on_c, 0, 56, 0
5, 40080, Note_on_c, 0, 44, 60
5, 40320, Note_on_c, 0, 44, 0
5, 40320, Note_on_c, 0, 56, 63
5, 40560, Note_on_c, 0, 56, 0
5, 40560, Note_on_c, 0, 56, 67
5, 40800, Note_on_c, 0, 56, 0
5, 40800, Note_on_c, 0, 55, 71
5, 41040, Note_on_c, 0, 55, 0
5, 41040, Note_on_c, 0, 56, 74
5, 41280, Note_on_c, 0, 56, 0
5, 41280, Note_on_c, 0, 52, 78
5, 41520, Note_on_c, 0, 52, 0
5, 41520, Note_on_c, 0, 53, 81
5, 41760, Note_on_c, 0, 53, 0
5, 41820, Note_on_c, 0, 34, 61
5, 41850, Note_on_c, 0, 34, 0
5, 41880, Note_on_c, 0, 39, 62
5, 41910, Note_on_c, 0, 39, 0
5, 41940, Note_on_c, 0, 43, 64
5, 41970, Note_on_c, 0, 43, 0
5, 42000, Note_on_c, 0, 46, 65
5, 42030, Note_on_c, 0, 46, 0
5, 42060, Note_on_c, 0, 51, 67
5, 42090, Note_on_c, 0, 51, 0
5, 42120, Note_on_c, 0, 55, 68
5, 42150, Note_on_c, 0, 55, 0
5, 42180, Note_on_c, 0, 57, 70
5, 42210, Note_on_c, 0, 57, 0
5, 42240, Note_on_c, 0, 59, 80
5, 42468, Note_on_c, 0, 59, 0
5, 42540, Note_on_c, 0, 36, 68
5, 42570, Note_on_c, 0, 36, 0
5, 42600, Note_on_c, 0, 39, 69
5, 42630, Note_on_c, 0, 39, 0
5, 42660, Note_on_c, 0, 43, 70
5, 42690, Note_on_c, 0, 43, 0
5, 42720, Note_on_c, 0, 48, 72
5, 42750, Note_on_c, 0, 48, 0
5, 42780, Note_on_c, 0, 51, 73
5, 42810, Note_on_c, 0, 51, 0
5, 42840, Note_on_c, 0, 55, 74
5, 42870, Note_on_c, 0, 55, 0
5, 42900, Note_on_c, 0, 60, 76
5, 42930, Note_on_c, 0, 60, 0
5, 42960, Note_on_c, 0, 57, 83
5, 43188, Note_on_c, 0, 57, 0
5, 43260, Note_on_c, 0, 34, 75
5, 43290, Note_on_c, 0, 34, 0
5, 43320, Note_on_c, 0, 39, 75
5, 43350, Note_on_c, 0, 39, 0
5, 43380, Note_on_c, 0, 43, 76
5, 43410, Note_on_c, 0, 43, 0
5, 43440, Note_on_c, 0, 46, 76
5, 43470, Note_on_c, 0, 46, 0
5, 43500, Note_on_c, 0, 51, 77
5, 43530, Note_on_c, 0, 51, 0
5, 43560, Note_on_c, 0, 55, 77
5, 43590, Note_on_c, 0, 55, 0
5, 43620, Note_on_c, 0, 57, 78
5, 43650, Note_on_c, 0, 57, 0
5, 43680, Note_on_c, 0, 58, 85
5, 43740, Note_on_c, 0, 58, 0
5, 43800, Note_on_c, 0, 46, 81
5, 43860, Note_on_c, 0, 46, 0
5, 43920, Note_on_c, 0, 51, 81
5, 43980, Note_on_c, 0, 51, 0
5, 44040, Note_on_c, 0, 39, 82
5, 44100, Note_on_c, 0, 39, 0
5, 44160, Note_on_c, 0, 41, 83
5, 44220, Note_on_c, 0, 41, 0
5, 44280, Note_on_c, 0, 39, 84
5, 44340, Note_on_c, 0, 39, 0
5, 44400, Note_on_c, 0, 43, 85
5, 44460, Note_on_c, 0, 43, 0
5, 44520, Note_on_c, 0, 39, 86
5, 44580, Note_on_c, 0, 39, 0
5, 44640, Note_on_c, 0, 32, 57
5, 45360, Note_on_c, 0, 32, 0
5, 45360, Note_on_c, 0, 34, 58
5, 46080, Note_on_c, 0, 34, 0
5, 46080, Note_on_c, 0, 36, 59
5, 46320, Note_on_c, 0, 36, 0
5, 46560, Note_on_c, 0, 43, 69
5, 46740, Note_on_c, 0, 43, 0
5, 46800, Note_on_c, 0, 44, 73
5, 47040, Note_on_c, 0, 44, 0
5, 47040, Note_on_c, 0, 39, 65
5, 47280, Note_on_c, 0, 39, 0
5, 47520, Note_on_c, 0, 41, 57
5, 47760, Note_on_c, 0, 53, 59
5, 48000, Note_on_c, 0, 53, 0
5, 48000, Note_on_c, 0, 41, 0
5, 48000, Note_on_c, 0, 51, 62
5, 48240, Note_on_c, 0, 51, 0
5, 48240, Note_on_c, 0, 50, 64
5, 48480, Note_on_c, 0, 50, 0
5, 48480, Note_on_c, 0, 49, 66
5, 48720, Note_on_c, 0, 49, 0
5, 48720, Note_on_c, 0, 48, 69
5, 48960, Note_on_c, 0, 48, 0
5, 48960, Note_on_c, 0, 51, 75
5, 49440, Note_on_c, 0, 51, 0
5, 49440, Note_on_c, 0, 39, 70
5, 49680, Note_on_c, 0, 39, 0
5, 49680, Note_on_c, 0, 44, 67
5, 49800, Note_on_c, 0, 44, 0
5, 49920, Note_on_c, 0, 32, 60
5, 50040, Note_on_c, 0, 32, 0
5, 50880, Note_on_c, 0, 51, 59
5, 50880, Note_on_c, 0, 39, 59
5, 50940, Note_on_c, 0, 39, 0
5, 50940, Note_on_c, 0, 51, 0
5, 51000, Note_on_c, 0, 51, 60
5, 51000, Note_on_c, 0, 39, 60
5, 51060, Note_on_c, 0, 39, 0
5, 51060, Note_on_c, 0, 51, 0
5, 51120, Note_on_c, 0, 51, 66
5, 51120, Note_on_c, 0, 39, 66
5, 51240, Note_on_c, 0, 39, 0
5, 51240, Note_on_c, 0, 51, 0
5, 51240, Note_on_c, 0, 56, 61
5, 51240, Note_on_c, 0, 44, 61
5, 51300, Note_on_c, 0, 44, 0
5, 51300, Note_on_c, 0, 56, 0
5, 51360, Note_on_c, 0, 56, 62
5, 51360, Note_on_c, 0, 44, 62
5, 51420, Note_on_c, 0, 44, 0
5, 51420, Note_on_c, 0, 56, 0
5, 51480, Note_on_c, 0, 56, 62
5, 51480, Note_on_c, 0, 44, 62
5, 51540, Note_on_c, 0, 44, 0
5, 51540, Note_on_c, 0, 56, 0
5, 51600, Note_on_c, 0, 56, 63
5, 51600, Note_on_c, 0, 44, 63
5, 51660, Note_on_c, 0, 44, 0
5, 51660, Note_on_c, 0, 56, 0
5, 51720, Note_on_c, 0, 56, 64
5, 51720, Note_on_c, 0, 44, 64
5, 51780, Note_on_c, 0, 44, 0
5, 51780, Note_on_c, 0, 56, 0
5, 51840, Note_on_c, 0, 56, 70
5, 51840, Note_on_c, 0, 44, 70
5, 51960, Note_on_c, 0, 44, 0
5, 51960, Note_on_c, 0, 56, 0
5, 51960, Note_on_c, 0, 55, 65
5, 51960, Note_on_c, 0, 43, 65
5, 52020, Note_on_c, 0, 43, 0
5, 52020, Note_on_c, 0, 55, 0
5, 52080, Note_on_c, 0, 55, 66
5, 52080, Note_on_c, 0, 43, 66
5, 52140, Note_on_c, 0, 43, 0
5, 52140, Note_on_c, 0, 55, 0
5, 52200, Note_on_c, 0, 53, 66
5, 52200, Note_on_c, 0, 41, 66
5, 52260, Note_on_c, 0, 41, 0
5, 52260, Note_on_c, 0, 53, 0
5, 52320, Note_on_c, 0, 55, 67
5, 52320, Note_on_c, 0, 43, 67
5, 52380, Note_on_c, 0, 43, 0
5, 52380, Note_on_c, 0, 55, 0
5, 52440, Note_on_c, 0, 39, 69
5, 52440, Note_on_c, 0, 51, 69
5, 52500, Note_on_c, 0, 51, 0
5, 52500, Note_on_c, 0, 39, 0
5, 52560, Note_on_c, 0, 39, 72
5, 52560, Note_on_c, 0, 51, 72
5, 52620, Note_on_c, 0, 51, 0
5, 52680, Note_on_c, 0, 39, 0
5, 52680, Note_on_c, 0, 56, 74
5, 52680, Note_on_c, 0, 44, 74
5, 52740, Note_on_c, 0, 44, 0
5, 52740, Note_on_c, 0, 56, 0
5, 52800, Note_on_c, 0, 39, 76
5, 52800, Note_on_c, 0, 51, 76
5, 52860, Note_on_c, 0, 51, 0
5, 52920, Note_on_c, 0, 56, 78
5, 52920, Note_on_c, 0, 44, 78
5, 52923, Note_on_c, 0, 39, 0
5, 52980, Note_on_c, 0, 44, 0
5, 52980, Note_on_c, 0, 56, 0
5, 53040, Note_on_c, 0, 39, 81
5, 53040, Note_on_c, 0, 51, 81
5, 53100, Note_on_c, 0, 51, 0
5, 53160, Note_on_c, 0, 39, 0
5, 53160, Note_on_c, 0, 58, 83
5, 53160, Note_on_c, 0, 46, 83
5, 53220, Note_on_c, 0, 46, 0
5, 53220, Note_on_c, 0, 58, 0
5, 53280, Note_on_c, 0, 39, 85
5, 53280, Note_on_c, 0, 51, 85
5, 53340, Note_on_c, 0, 51, 0
5, 53400, Note_on_c, 0, 60, 76
5, 53400, Note_on_c, 0, 48, 76
5, 53403, Note_on_c, 0, 39, 0
5, 53460, Note_on_c, 0, 48, 0
5, 53460, Note_on_c, 0, 60, 0
5, 53520, Note_on_c, 0, 39, 68
5, 53520, Note_on_c, 0, 51, 68
5, 53580, Note_on_c, 0, 51, 0
5, 53640, Note_on_c, 0, 39, 0
5, 53640, Note_on_c, 0, 58, 61
5, 53640, Note_on_c, 0, 46, 61
5, 53700, Note_on_c, 0, 46, 0
5, 53700, Note_on_c, 0, 58, 0
5, 53720, Note_on_c, 0, 60, 68
5, 53760, Note_on_c, 0, 60, 0
5, 53760, Note_on_c, 0, 58, 70
5, 53820, Note_on_c, 0, 58, 0
5, 53820, Note_on_c, 0, 57, 69
5, 53880, Note_on_c, 0, 57, 0
5, 53880, Note_on_c, 0, 58, 68
5, 53940, Note_on_c, 0, 58, 0
5, 53940, Note_on_c, 0, 60, 66
5, 54000, Note_on_c, 0, 60, 0
5, 54000, Note_on_c, 0, 49, 65
5, 54120, Note_on_c, 0, 61, 65
5, 54179, Note_on_c, 0, 49, 0
5, 54180, Note_on_c, 0, 61, 0
5, 54240, Note_on_c, 0, 53, 67
5, 54360, Note_on_c, 0, 61, 68
5, 54419, Note_on_c, 0, 53, 0
5, 54420, Note_on_c, 0, 61, 0
5, 54480, Note_on_c, 0, 51, 69
5, 54600, Note_on_c, 0, 60, 71
5, 54659, Note_on_c, 0, 51, 0
5, 54660, Note_on_c, 0, 60, 0
5, 54720, Note_on_c, 0, 50, 72
5, 54840, Note_on_c, 0, 65, 73
5, 54900, Note_on_c, 0, 65, 0
5, 54903, Note_on_c, 0, 50, 0
5, 54960, Note_on_c, 0, 49, 74
5, 55080, Note_on_c, 0, 58, 76
5, 55139, Note_on_c, 0, 49, 0
5, 55140, Note_on_c, 0, 58, 0
5, 55200, Note_on_c, 0, 48, 77
5, 55320, Note_on_c, 0, 63, 78
5, 55376, Note_on_c, 0, 48, 0
5, 55380, Note_on_c, 0, 63, 0
5, 55440, Note_on_c, 0, 41, 80
5, 55560, Note_on_c, 0, 56, 81
5, 55619, Note_on_c, 0, 41, 0
5, 55620, Note_on_c, 0, 56, 0
5, 55680, Note_on_c, 0, 43, 82
5, 55800, Note_on_c, 0, 61, 84
5, 55859, Note_on_c, 0, 43, 0
5, 55860, Note_on_c, 0, 61, 0
5, 55920, Note_on_c, 0, 44, 85
5, 56040, Note_on_c, 0, 60, 86
5, 56099, Note_on_c, 0, 44, 0
5, 56100, Note_on_c, 0, 60, 0
5, 56160, Note_on_c, 0, 39, 81
5, 56280, Note_on_c, 0, 57, 75
5, 56339, Note_on_c, 0, 39, 0
5, 56340, Note_on_c, 0, 57, 0
5, 56400, Note_on_c, 0, 39, 70
5, 56520, Note_on_c, 0, 58, 64
5, 56579, Note_on_c, 0, 39, 0
5, 56580, Note_on_c, 0, 58, 0
5, 56640, Note_on_c, 0, 51, 59
5, 56640, Note_on_c, 0, 39, 59
5, 56700, Note_on_c, 0, 39, 0
5, 56700, Note_on_c, 0, 51, 0
5, 56760, Note_on_c, 0, 51, 59
5, 56760, Note_on_c, 0, 39, 59
5, 56820, Note_on_c, 0, 39, 0
5, 56820, Note_on_c, 0, 51, 0
5, 56880, Note_on_c, 0, 51, 66
5, 56880, Note_on_c, 0, 39, 66
5, 57000, Note_on_c, 0, 39, 0
5, 57000, Note_on_c, 0, 51, 0
5, 57000, Note_on_c, 0, 56, 61
5, 57000, Note_on_c, 0, 44, 61
5, 57060, Note_on_c, 0, 44, 0
5, 57060, Note_on_c, 0, 56, 0
5, 57120, Note_on_c, 0, 56, 61
5, 57120, Note_on_c, 0, 44, 61
5, 57180, Note_on_c, 0, 44, 0
5, 57180, Note_on_c, 0, 56, 0
5, 57240, Note_on_c, 0, 56, 62
5, 57240, Note_on_c, 0, 44, 62
5, 57300, Note_on_c, 0, 44, 0
5, 57300, Note_on_c, 0, 56, 0
5, 57360, Note_on_c, 0, 56, 62
5, 57360, Note_on_c, 0, 44, 62
5, 57420, Note_on_c, 0, 44, 0
5, 57420, Note_on_c, 0, 56, 0
5, 57480, Note_on_c, 0, 56, 63
5, 57480, Note_on_c, 0, 44, 63
5, 57540, Note_on_c, 0, 44, 0
5, 57540, Note_on_c, 0, 56, 0
5, 57600, Note_on_c, 0, 56, 71
5, 57600, Note_on_c, 0, 44, 71
5, 57720, Note_on_c, 0, 44, 0
5, 57720, Note_on_c, 0, 56, 0
5, 57720, Note_on_c, 0, 46, 63
5, 57720, Note_on_c, 0, 55, 63
5, 57780, Note_on_c, 0, 55, 0
5, 57780, Note_on_c, 0, 46, 0
5, 57840, Note_on_c, 0, 46, 64
5, 57840, Note_on_c, 0, 55, 64
5, 57900, Note_on_c, 0, 55, 0
5, 57900, Note_on_c, 0, 46, 0
5, 57960, Note_on_c, 0, 53, 65
5, 57960, Note_on_c, 0, 46, 65
5, 58020, Note_on_c, 0, 46, 0
5, 58020, Note_on_c, 0, 53, 0
5, 58080, Note_on_c, 0, 55, 66
5, 58080, Note_on_c, 0, 46, 66
5, 58140, Note_on_c, 0, 46, 0
5, 58140, Note_on_c, 0, 55, 0
5, 58200, Note_on_c, 0, 46, 67
5, 58200, Note_on_c, 0, 51, 67
5, 58260, Note_on_c, 0, 51, 0
5, 58260, Note_on_c, 0, 46, 0
5, 58320, Note_on_c, 0, 48, 70
5, 58320, Note_on_c, 0, 51, 70
5, 58380, Note_on_c, 0, 51, 0
5, 58440, Note_on_c, 0, 56, 71
5, 58498, Note_on_c, 0, 48, 0
5, 58500, Note_on_c, 0, 56, 0
5, 58560, Note_on_c, 0, 51, 73
5, 58560, Note_on_c, 0, 48, 73
5, 58620, Note_on_c, 0, 51, 0
5, 58680, Note_on_c, 0, 56, 75
5, 58724, Note_on_c, 0, 48, 0
5, 58740, Note_on_c, 0, 56, 0
5, 58800, Note_on_c, 0, 51, 77
5, 58800, Note_on_c, 0, 43, 77
5, 58860, Note_on_c, 0, 51, 0
5, 58920, Note_on_c, 0, 58, 78
5, 58964, Note_on_c, 0, 43, 0
5, 58980, Note_on_c, 0, 58, 0
5, 59040, Note_on_c, 0, 51, 80
5, 59040, Note_on_c, 0, 44, 80
5, 59100, Note_on_c, 0, 51, 0
5, 59160, Note_on_c, 0, 60, 73
5, 59204, Note_on_c, 0, 44, 0
5, 59220, Note_on_c, 0, 60, 0
5, 59280, Note_on_c, 0, 51, 67
5, 59280, Note_on_c, 0, 39, 67
5, 59340, Note_on_c, 0, 51, 0
5, 59400, Note_on_c, 0, 58, 61
5, 59444, Note_on_c, 0, 39, 0
5, 59460, Note_on_c, 0, 58, 0
5, 59480, Note_on_c, 0, 60, 66
5, 59520, Note_on_c, 0, 60, 0
5, 59520, Note_on_c, 0, 58, 70
5, 59580, Note_on_c, 0, 58, 0
5, 59580, Note_on_c, 0, 57, 68
5, 59640, Note_on_c, 0, 57, 0
5, 59640, Note_on_c, 0, 58, 66
5, 59700, Note_on_c, 0, 58, 0
5, 59700, Note_on_c, 0, 60, 64
5, 59760, Note_on_c, 0, 60, 0
5, 59760, Note_on_c, 0, 49, 63
5, 59880, Note_on_c, 0, 61, 64
5, 59940, Note_on_c, 0, 61, 0
5, 59944, Note_on_c, 0, 49, 0
5, 60000, Note_on_c, 0, 53, 66
5, 60120, Note_on_c, 0, 61, 68
5, 60180, Note_on_c, 0, 61, 0
5, 60184, Note_on_c, 0, 53, 0
5, 60240, Note_on_c, 0, 51, 69
5, 60360, Note_on_c, 0, 60, 71
5, 60420, Note_on_c, 0, 60, 0
5, 60424, Note_on_c, 0, 51, 0
5, 60480, Note_on_c, 0, 50, 73
5, 60600, Note_on_c, 0, 65, 75
5, 60660, Note_on_c, 0, 65, 0
5, 60664, Note_on_c, 0, 50, 0
5, 60720, Note_on_c, 0, 49, 77
5, 60840, Note_on_c, 0, 58, 79
5, 60900, Note_on_c, 0, 58, 0
5, 60904, Note_on_c, 0, 49, 0
5, 60960, Note_on_c, 0, 48, 80
5, 61080, Note_on_c, 0, 63, 82
5, 61140, Note_on_c, 0, 63, 0
5, 61144, Note_on_c, 0, 48, 0
5, 61200, Note_on_c, 0, 51, 84
5, 61320, Note_on_c, 0, 56, 80
5, 61380, Note_on_c, 0, 56, 0
5, 61384, Note_on_c, 0, 51, 0
5, 61440, Note_on_c, 0, 39, 77
5, 61560, Note_on_c, 0, 60, 74
5, 61620, Note_on_c, 0, 60, 0
5, 61624, Note_on_c, 0, 39, 0
5, 61680, Note_on_c, 0, 39, 71
5, 61800, Note_on_c, 0, 58, 68
5, 61860, Note_on_c, 0, 58, 0
5, 61864, Note_on_c, 0, 39, 0
5, 61920, Note_on_c, 0, 44, 65
5, 62040, Note_on_c, 0, 56, 62
5, 62100, Note_on_c, 0, 56, 0
5, 62104, Note_on_c, 0, 44, 0
5, 62160, Note_on_c, 0, 32, 59
5, 62280, Note_on_c, 0, 32, 0
5, 62400, Note_on_c, 0, 45, 84
5, 62520, Note_on_c, 0, 60, 82
5, 62580, Note_on_c, 0, 60, 0
5, 62582, Note_on_c, 0, 45, 0
5, 62640, Note_on_c, 0, 45, 80
5, 62760, Note_on_c, 0, 60, 78
5, 62820, Note_on_c, 0, 60, 0
5, 62822, Note_on_c, 0, 45, 0
5, 62880, Note_on_c, 0, 43, 76
5, 63000, Note_on_c, 0, 58, 75
5, 63060, Note_on_c, 0, 58, 0
5, 63062, Note_on_c, 0, 43, 0
5, 63120, Note_on_c, 0, 45, 74
5, 63240, Note_on_c, 0, 60, 73
5, 63300, Note_on_c, 0, 60, 0
5, 63302, Note_on_c, 0, 45, 0
5, 63360, Note_on_c, 0, 46, 71
5, 63480, Note_on_c, 0, 61, 70
5, 63540, Note_on_c, 0, 61, 0
5, 63542, Note_on_c, 0, 46, 0
5, 63600, Note_on_c, 0, 49, 69
5, 63720, Note_on_c, 0, 65, 68
5, 63780, Note_on_c, 0, 65, 0
5, 63782, Note_on_c, 0, 49, 0
5, 63840, Note_on_c, 0, 46, 86
5, 63840, Note_on_c, 0, 34, 86
5, 63960, Note_on_c, 0, 34, 0
5, 63960, Note_on_c, 0, 46, 0
5, 63960, Note_on_c, 0, 44, 83
5, 63960, Note_on_c, 0, 32, 83
5, 64080, Note_on_c, 0, 32, 0
5, 64080, Note_on_c, 0, 44, 0
5, 64080, Note_on_c, 0, 43, 81
5, 64080, Note_on_c, 0, 31, 81
5, 64200, Note_on_c, 0, 31, 0
5, 64200, Note_on_c, 0, 43, 0
5, 64200, Note_on_c, 0, 58, 78
5, 64260, Note_on_c, 0, 58, 0
5, 64320, Note_on_c, 0, 41, 76
5, 64440, Note_on_c, 0, 56, 71
5, 64500, Note_on_c, 0, 56, 0
5, 64505, Note_on_c, 0, 41, 0
5, 64560, Note_on_c, 0, 43, 70
5, 64680, Note_on_c, 0, 58, 69
5, 64740, Note_on_c, 0, 58, 0
5, 64745, Note_on_c, 0, 43, 0
5, 64800, Note_on_c, 0, 44, 67
5, 64920, Note_on_c, 0, 60, 66
5, 64980, Note_on_c, 0, 60, 0
5, 64985, Note_on_c, 0, 44, 0
5, 65040, Note_on_c, 0, 48, 65
5, 65160, Note_on_c, 0, 63, 63
5, 65220, Note_on_c, 0, 63, 0
5, 65225, Note_on_c, 0, 48, 0
5, 65280, Note_on_c, 0, 48, 62
5, 65400, Note_on_c, 0, 51, 61
5, 65460, Note_on_c, 0, 51, 0
5, 65465, Note_on_c, 0, 48, 0
5, 65520, Note_on_c, 0, 48, 62
5, 65640, Note_on_c, 0, 51, 64
5, 65700, Note_on_c, 0, 51, 0
5, 65705, Note_on_c, 0, 48, 0
5, 65760, Note_on_c, 0, 47, 66
5, 65880, Note_on_c, 0, 50, 68
5, 65940, Note_on_c, 0, 50, 0
5, 65945, Note_on_c, 0, 47, 0
5, 66000, Note_on_c, 0, 46, 70
5, 66120, Note_on_c, 0, 52, 72
5, 66180, Note_on_c, 0, 52, 0
5, 66185, Note_on_c, 0, 46, 0
5, 66240, Note_on_c, 0, 44, 74
5, 66360, Note_on_c, 0, 53, 76
5, 66420, Note_on_c, 0, 53, 0
5, 66425, Note_on_c, 0, 44, 0
5, 66480, Note_on_c, 0, 43, 78
5, 66600, Note_on_c, 0, 55, 80
5, 66660, Note_on_c, 0, 55, 0
5, 66665, Note_on_c, 0, 43, 0
5, 66720, Note_on_c, 0, 41, 82
5, 66840, Note_on_c, 0, 56, 97
5, 66900, Note_on_c, 0, 56, 0
5, 66900, Note_on_c, 0, 53, 89
5, 66905, Note_on_c, 0, 41, 0
5, 66960, Note_on_c, 0, 53, 0
5, 66960, Note_on_c, 0, 46, 81
5, 67080, Note_on_c, 0, 51, 65
5, 67140, Note_on_c, 0, 51, 0
5, 67145, Note_on_c, 0, 46, 0
5, 67200, Note_on_c, 0, 46, 68
5, 67320, Note_on_c, 0, 51, 70
5, 67380, Note_on_c, 0, 51, 0
5, 67393, Note_on_c, 0, 46, 0
5, 67440, Note_on_c, 0, 47, 72
5, 67560, Note_on_c, 0, 50, 75
5, 67620, Note_on_c, 0, 50, 0
5, 67633, Note_on_c, 0, 47, 0
5, 67680, Note_on_c, 0, 48, 77
5, 67800, Note_on_c, 0, 51, 79
5, 67860, Note_on_c, 0, 51, 0
5, 67868, Note_on_c, 0, 48, 0
5, 67920, Note_on_c, 0, 48, 81
5, 68040, Note_on_c, 0, 51, 84
5, 68100, Note_on_c, 0, 51, 0
5, 68108, Note_on_c, 0, 48, 0
5, 68160, Note_on_c, 0, 45, 86
5, 68280, Note_on_c, 0, 55, 99
5, 68340, Note_on_c, 0, 55, 0
5, 68340, Note_on_c, 0, 53, 92
5, 68348, Note_on_c, 0, 45, 0
5, 68400, Note_on_c, 0, 53, 0
5, 68400, Note_on_c, 0, 46, 86
5, 68520, Note_on_c, 0, 51, 78
5, 68580, Note_on_c, 0, 51, 0
5, 68588, Note_on_c, 0, 46, 0
5, 68640, Note_on_c, 0, 46, 79
5, 68760, Note_on_c, 0, 51, 80
5, 68820, Note_on_c, 0, 51, 0
5, 68828, Note_on_c, 0, 46, 0
5, 68880, Note_on_c, 0, 34, 81
5, 69000, Note_on_c, 0, 50, 81
5, 69060, Note_on_c, 0, 50, 0
5, 69068, Note_on_c, 0, 34, 0
5, 69120, Note_on_c, 0, 39, 82
5, 69240, Note_on_c, 0, 51, 75
5, 69300, Note_on_c, 0, 51, 0
5, 69308, Note_on_c, 0, 39, 0
5, 69360, Note_on_c, 0, 41, 70
5, 69480, Note_on_c, 0, 51, 66
5, 69540, Note_on_c, 0, 51, 0
5, 69548, Note_on_c, 0, 41, 0
5, 69600, Note_on_c, 0, 43, 62
5, 69720, Note_on_c, 0, 51, 58
5, 69780, Note_on_c, 0, 51, 0
5, 69788, Note_on_c, 0, 43, 0
5, 69840, Note_on_c, 0, 44, 63
5, 69840, Note_on_c, 0, 51, 63
5, 69960, Note_on_c, 0, 51, 0
5, 69960, Note_on_c, 0, 44, 0
5, 69960, Note_on_c, 0, 44, 58
5, 69960, Note_on_c, 0, 56, 58
5, 70020, Note_on_c, 0, 56, 0
5, 70020, Note_on_c, 0, 44, 0
5, 70080, Note_on_c, 0, 44, 58
5, 70080, Note_on_c, 0, 56, 58
5, 70140, Note_on_c, 0, 56, 0
5, 70140, Note_on_c, 0, 44, 0
5, 70200, Note_on_c, 0, 44, 59
5, 70200, Note_on_c, 0, 56, 59
5, 70260, Note_on_c, 0, 56, 0
5, 70260, Note_on_c, 0, 44, 0
5, 70320, Note_on_c, 0, 44, 59
5, 70320, Note_on_c, 0, 56, 59
5, 70380, Note_on_c, 0, 56, 0
5, 70380, Note_on_c, 0, 44, 0
5, 70440, Note_on_c, 0, 44, 59
5, 70440, Note_on_c, 0, 56, 59
5, 70500, Note_on_c, 0, 56, 0
5, 70500, Note_on_c, 0, 44, 0
5, 70560, Note_on_c, 0, 44, 65
5, 70560, Note_on_c, 0, 56, 65
5, 70680, Note_on_c, 0, 56, 0
5, 70680, Note_on_c, 0, 44, 0
5, 70680, Note_on_c, 0, 55, 60
5, 70680, Note_on_c, 0, 46, 60
5, 70740, Note_on_c, 0, 46, 0
5, 70740, Note_on_c, 0, 55, 0
5, 70800, Note_on_c, 0, 55, 61
5, 70800, Note_on_c, 0, 46, 61
5, 70860, Note_on_c, 0, 46, 0
5, 70860, Note_on_c, 0, 55, 0
5, 70920, Note_on_c, 0, 46, 61
5, 70920, Note_on_c, 0, 53, 61
5, 70980, Note_on_c, 0, 53, 0
5, 70980, Note_on_c, 0, 46, 0
5, 71040, Note_on_c, 0, 46, 61
5, 71040, Note_on_c, 0, 55, 61
5, 71100, Note_on_c, 0, 55, 0
5, 71100, Note_on_c, 0, 46, 0
5, 71160, Note_on_c, 0, 51, 62
5, 71160, Note_on_c, 0, 46, 62
5, 71220, Note_on_c, 0, 46, 0
5, 71220, Note_on_c, 0, 51, 0
5, 71280, Note_on_c, 0, 51, 64
5, 71280, Note_on_c, 0, 48, 64
5, 71340, Note_on_c, 0, 51, 0
5, 71400, Note_on_c, 0, 56, 66
5, 71456, Note_on_c, 0, 48, 0
5, 71460, Note_on_c, 0, 56, 0
5, 71520, Note_on_c, 0, 48, 69
5, 71520, Note_on_c, 0, 51, 69
5, 71580, Note_on_c, 0, 51, 0
5, 71640, Note_on_c, 0, 56, 71
5, 71696, Note_on_c, 0, 48, 0
5, 71700, Note_on_c, 0, 56, 0
5, 71760, Note_on_c, 0, 43, 74
5, 71760, Note_on_c, 0, 51, 74
5, 71820, Note_on_c, 0, 51, 0
5, 71880, Note_on_c, 0, 58, 77
5, 71936, Note_on_c, 0, 43, 0
5, 71940, Note_on_c, 0, 58, 0
5, 72000, Note_on_c, 0, 44, 80
5, 72000, Note_on_c, 0, 51, 80
5, 72060, Note_on_c, 0, 51, 0
5, 72120, Note_on_c, 0, 60, 74
5, 72176, Note_on_c, 0, 44, 0
5, 72180, Note_on_c, 0, 60, 0
5, 72240, Note_on_c, 0, 39, 68
5, 72240, Note_on_c, 0, 51, 68
5, 72300, Note_on_c, 0, 51, 0
5, 72316, Note_on_c, 0, 39, 0
5, 72360, Note_on_c, 0, 58, 61
5, 72420, Note_on_c, 0, 58, 0
5, 72440, Note_on_c, 0, 60, 66
5, 72480, Note_on_c, 0, 60, 0
5, 72480, Note_on_c, 0, 58, 70
5, 72540, Note_on_c, 0, 58, 0
5, 72540, Note_on_c, 0, 57, 69
5, 72600, Note_on_c, 0, 57, 0
5, 72600, Note_on_c, 0, 58, 67
5, 72660, Note_on_c, 0, 58, 0
5, 72660, Note_on_c, 0, 60, 65
5, 72720, Note_on_c, 0, 60, 0
5, 72720, Note_on_c, 0, 49, 65
5, 72840, Note_on_c, 0, 61, 67
5, 72900, Note_on_c, 0, 61, 0
5, 72900, Note_on_c, 0, 49, 0
5, 72960, Note_on_c, 0, 53, 68
5, 73080, Note_on_c, 0, 61, 70
5, 73140, Note_on_c, 0, 61, 0
5, 73150, Note_on_c, 0, 53, 0
5, 73200, Note_on_c, 0, 51, 72
5, 73320, Note_on_c, 0, 60, 74
5, 73380, Note_on_c, 0, 60, 0
5, 73380, Note_on_c, 0, 51, 0
5, 73440, Note_on_c, 0, 50, 75
5, 73560, Note_on_c, 0, 65, 77
5, 73620, Note_on_c, 0, 65, 0
5, 73620, Note_on_c, 0, 50, 0
5, 73680, Note_on_c, 0, 49, 79
5, 73800, Note_on_c, 0, 58, 81
5, 73860, Note_on_c, 0, 58, 0
5, 73860, Note_on_c, 0, 49, 0
5, 73920, Note_on_c, 0, 48, 83
5, 74040, Note_on_c, 0, 63, 84
5, 74100, Note_on_c, 0, 63, 0
5, 74100, Note_on_c, 0, 48, 0
5, 74160, Note_on_c, 0, 51, 86
5, 74280, Note_on_c, 0, 56, 80
5, 74340, Note_on_c, 0, 56, 0
5, 74340, Note_on_c, 0, 51, 0
5, 74400, Note_on_c, 0, 39, 78
5, 74520, Note_on_c, 0, 60, 75
5, 74580, Note_on_c, 0, 60, 0
5, 74580, Note_on_c, 0, 39, 0
5, 74640, Note_on_c, 0, 39, 72
5, 74760, Note_on_c, 0, 58, 70
5, 74820, Note_on_c, 0, 58, 0
5, 74820, Note_on_c, 0, 39, 0
5, 74880, Note_on_c, 0, 44, 67
5, 75000, Note_on_c, 0, 56, 64
5, 75060, Note_on_c, 0, 56, 0
5, 75060, Note_on_c, 0, 44, 0
5, 75120, Note_on_c, 0, 32, 62
5, 75210, Note_on_c, 0, 32, 0
5, 76320, Note_on_c, 0, 44, 55
5, 76440, Note_on_c, 0, 44, 0
5, 76560, Note_on_c, 0, 44, 56
5, 76680, Note_on_c, 0, 44, 0
5, 76800, Note_on_c, 0, 44, 57
5, 76920, Note_on_c, 0, 44, 0
5, 77040, Note_on_c, 0, 46, 57
5, 77160, Note_on_c, 0, 46, 0
5, 77280, Note_on_c, 0, 46, 58
5, 77400, Note_on_c, 0, 46, 0
5, 77520, Note_on_c, 0, 46, 59
5, 77640, Note_on_c, 0, 46, 0
5, 77760, Note_on_c, 0, 47, 60
5, 77880, Note_on_c, 0, 47, 0
5, 78000, Note_on_c, 0, 47, 60
5, 78120, Note_on_c, 0, 47, 0
5, 78240, Note_on_c, 0, 47, 61
5, 78360, Note_on_c, 0, 47, 0
5, 78480, Note_on_c, 0, 49, 62
5, 78600, Note_on_c, 0, 49, 0
5, 78720, Note_on_c, 0, 49, 63
5, 78840, Note_on_c, 0, 49, 0
5, 78960, Note_on_c, 0, 49, 64
5, 79080, Note_on_c, 0, 49, 0
5, 79200, Note_on_c, 0, 51, 65
5, 79320, Note_on_c, 0, 51, 0
5, 79440, Note_on_c, 0, 51, 67
5, 79560, Note_on_c, 0, 51, 0
5, 79680, Note_on_c, 0, 51, 69
5, 79800, Note_on_c, 0, 51, 0
5, 79920, Note_on_c, 0, 52, 71
5, 80040, Note_on_c, 0, 52, 0
5, 80160, Note_on_c, 0, 52, 74
5, 80280, Note_on_c, 0, 52, 0
5, 80400, Note_on_c, 0, 52, 76
5, 80520, Note_on_c, 0, 52, 0
5, 80640, Note_on_c, 0, 53, 86
5, 80760, Note_on_c, 0, 53, 0
5, 80880, Note_on_c, 0, 53, 80
5, 81000, Note_on_c, 0, 53, 0
5, 81120, Note_on_c, 0, 53, 83
5, 81240, Note_on_c, 0, 53, 0
5, 81360, Note_on_c, 0, 51, 89
5, 81720, Note_on_c, 0, 51, 0
5, 82080, Note_on_c, 0, 32, 71
5, 82756, Note_on_c, 0, 32, 0
5, 82800, Note_on_c, 0, 34, 74
5, 83393, Note_on_c, 0, 34, 0
5, 83520, Note_on_c, 0, 35, 77
5, 84240, Note_on_c, 0, 35, 0
5, 84240, Note_on_c, 0, 37, 81
5, 84960, Note_on_c, 0, 37, 0
5, 84960, Note_on_c, 0, 39, 84
5, 85553, Note_on_c, 0, 39, 0
5, 85680, Note_on_c, 0, 40, 85
5, 86273, Note_on_c, 0, 40, 0
5, 86400, Note_on_c, 0, 51, 87
5, 86520, Note_on_c, 0, 51, 0
5, 86640, Note_on_c, 0, 39, 76
5, 86760, Note_on_c, 0, 39, 0
5, 86880, Note_on_c, 0, 39, 70
5, 87000, Note_on_c, 0, 39, 0
5, 87120, Note_on_c, 0, 44, 65
5, 87240, Note_on_c, 0, 44, 0
5, 87360, Note_on_c, 0, 32, 59
5, 87480, Note_on_c, 0, 32, 0
5, 88080, Note_on_c, 0, 60, 76
5, 88320, Note_on_c, 0, 60, 0
5, 88320, Note_on_c, 0, 56, 74
5, 88560, Note_on_c, 0, 56, 0
5, 88560, Note_on_c, 0, 61, 72
5, 88800, Note_on_c, 0, 61, 0
5, 88800, Note_on_c, 0, 49, 66
5, 88920, Note_on_c, 0, 49, 0
5, 89520, Note_on_c, 0, 55, 64
5, 89760, Note_on_c, 0, 55, 0
5, 89760, Note_on_c, 0, 51, 62
5, 90000, Note_on_c, 0, 51, 0
5, 90000, Note_on_c, 0, 56, 60
5, 90240, Note_on_c, 0, 56, 0
5, 90240, Note_on_c, 0, 44, 58
5, 90360, Note_on_c, 0, 44, 0
5, 90720, Note_on_c, 0, 38, 67
5, 91335, Note_on_c, 0, 38, 0
5, 91440, Note_on_c, 0, 39, 71
5, 92055, Note_on_c, 0, 39, 0
5, 92160, Note_on_c, 0, 34, 76
5, 92522, Note_on_c, 0, 34, 0
5, 92640, Note_on_c, 0, 34, 65
5, 92760, Note_on_c, 0, 34, 0
5, 92880, Note_on_c, 0, 35, 75
5, 93242, Note_on_c, 0, 35, 0
5, 93360, Note_on_c, 0, 33, 75
5, 93480, Note_on_c, 0, 33, 0
5, 93600, Note_on_c, 0, 34, 83
5, 93940, Note_on_c, 0, 34, 0
5, 94080, Note_on_c, 0, 34, 78
5, 94200, Note_on_c, 0, 34, 0
5, 94320, Note_on_c, 0, 39, 83
5, 94560, Note_on_c, 0, 39, 0
5, 94560, Note_on_c, 0, 37, 70
5, 94800, Note_on_c, 0, 37, 0
5, 94800, Note_on_c, 0, 34, 63
5, 95040, Note_on_c, 0, 34, 0
5, 95040, Note_on_c, 0, 32, 71
5, 95655, Note_on_c, 0, 32, 0
5, 95760, Note_on_c, 0, 34, 73
5, 96375, Note_on_c, 0, 34, 0
5, 96480, Note_on_c, 0, 35, 76
5, 97200, Note_on_c, 0, 35, 0
5, 97200, Note_on_c, 0, 37, 79
5, 97920, Note_on_c, 0, 37, 0
5, 97920, Note_on_c, 0, 39, 82
5, 98535, Note_on_c, 0, 39, 0
5, 98640, Note_on_c, 0, 40, 84
5, 99255, Note_on_c, 0, 40, 0
5, 99360, Note_on_c, 0, 51, 78
5, 99480, Note_on_c, 0, 51, 0
5, 99600, Note_on_c, 0, 39, 73
5, 99720, Note_on_c, 0, 39, 0
5, 99840, Note_on_c, 0, 39, 68
5, 99960, Note_on_c, 0, 39, 0
5, 100080, Note_on_c, 0, 44, 64
5, 100200, Note_on_c, 0, 44, 0
5, 100320, Note_on_c, 0, 32, 59
5, 100440, Note_on_c, 0, 32, 0
5, 101520, Note_on_c, 0, 48, 43
5, 101520, Note_on_c, 0, 44, 43
5, 101640, Note_on_c, 0, 44, 0
5, 101640, Note_on_c, 0, 48, 0
5, 102000, Note_on_c, 0, 56, 52
5, 102000, Note_on_c, 0, 60, 52
5, 102120, Note_on_c, 0, 60, 0
5, 102120, Note_on_c, 0, 56, 0
5, 102240, Note_on_c, 0, 61, 45
5, 102240, Note_on_c, 0, 58, 45
5, 102360, Note_on_c, 0, 58, 0
5, 102360, Note_on_c, 0, 61, 0
5, 102720, Note_on_c, 0, 49, 51
5, 102720, Note_on_c, 0, 46, 51
5, 102840, Note_on_c, 0, 46, 0
5, 102840, Note_on_c, 0, 49, 0
5, 102960, Note_on_c, 0, 51, 44
5, 102960, Note_on_c, 0, 48, 44
5, 103080, Note_on_c, 0, 48, 0
5, 103080, Note_on_c, 0, 51, 0
5, 103440, Note_on_c, 0, 60, 56
5, 103440, Note_on_c, 0, 63, 56
5, 103560, Note_on_c, 0, 63, 0
5, 103560, Note_on_c, 0, 60, 0
5, 103680, Note_on_c, 0, 65, 49
5, 103680, Note_on_c, 0, 62, 49
5, 103800, Note_on_c, 0, 62, 0
5, 103800, Note_on_c, 0, 65, 0
5, 103920, Note_on_c, 0, 67, 46
5, 103920, Note_on_c, 0, 63, 46
5, 104040, Note_on_c, 0, 63, 0
5, 104040, Note_on_c, 0, 67, 0
5, 104160, Note_on_c, 0, 56, 55
5, 104160, Note_on_c, 0, 53, 55
5, 104280, Note_on_c, 0, 53, 0
5, 104280, Note_on_c, 0, 56, 0
5, 104400, Note_on_c, 0, 58, 51
5, 104400, Note_on_c, 0, 55, 51
5, 104520, Note_on_c, 0, 55, 0
5, 104520, Note_on_c, 0, 58, 0
5, 104640, Note_on_c, 0, 56, 48
5, 104640, Note_on_c, 0, 60, 48
5, 104760, Note_on_c, 0, 60, 0
5, 104760, Note_on_c, 0, 56, 0
5, 104880, Note_on_c, 0, 68, 57
5, 104880, Note_on_c, 0, 62, 57
5, 105000, Note_on_c, 0, 62, 0
5, 105000, Note_on_c, 0, 68, 0
5, 105120, Note_on_c, 0, 67, 60
5, 105120, Note_on_c, 0, 70, 60
5, 105120, Note_on_c, 0, 61, 60
5, 105240, Note_on_c, 0, 61, 0
5, 105240, Note_on_c, 0, 70, 0
5, 105240, Note_on_c, 0, 67, 0
5, 105360, Note_on_c, 0, 72, 51
5, 105360, Note_on_c, 0, 60, 51
5, 105360, Note_on_c, 0, 68, 51
5, 105480, Note_on_c, 0, 68, 0
5, 105480, Note_on_c, 0, 60, 0
5, 105480, Note_on_c, 0, 72, 0
5, 105600, Note_on_c, 0, 41, 59
5, 105840, Note_on_c, 0, 41, 0
5, 105840, Note_on_c, 0, 43, 62
5, 106080, Note_on_c, 0, 43, 0
5, 106080, Note_on_c, 0, 44, 65
5, 106320, Note_on_c, 0, 44, 0
5, 106320, Note_on_c, 0, 38, 71
5, 106560, Note_on_c, 0, 38, 0
5, 106560, Note_on_c, 0, 39, 62
5, 106800, Note_on_c, 0, 39, 0
5, 106800, Note_on_c, 0, 51, 52
5, 106920, Note_on_c, 0, 51, 0
5, 107280, Note_on_c, 0, 44, 43
5, 107280, Note_on_c, 0, 32, 43
5, 107400, Note_on_c, 0, 32, 0
5, 107400, Note_on_c, 0, 44, 0
5, 107760, Note_on_c, 0, 60, 47
5, 107760, Note_on_c, 0, 56, 47
5, 107820, Note_on_c, 0, 56, 0
5, 107820, Note_on_c, 0, 60, 0
5, 107880, Note_on_c, 0, 60, 44
5, 107880, Note_on_c, 0, 56, 44
5, 107940, Note_on_c, 0, 56, 0
5, 107940, Note_on_c, 0, 60, 0
5, 108000, Note_on_c, 0, 61, 42
5, 108000, Note_on_c, 0, 58, 42
5, 108120, Note_on_c, 0, 58, 0
5, 108120, Note_on_c, 0, 61, 0
5, 108480, Note_on_c, 0, 49, 49
5, 108480, Note_on_c, 0, 46, 49
5, 108540, Note_on_c, 0, 46, 0
5, 108540, Note_on_c, 0, 49, 0
5, 108600, Note_on_c, 0, 49, 46
5, 108600, Note_on_c, 0, 46, 46
5, 108660, Note_on_c, 0, 46, 0
5, 108660, Note_on_c, 0, 49, 0
5, 108720, Note_on_c, 0, 51, 45
5, 108720, Note_on_c, 0, 48, 45
5, 108840, Note_on_c, 0, 48, 0
5, 108840, Note_on_c, 0, 51, 0
5, 109200, Note_on_c, 0, 60, 54
5, 109200, Note_on_c, 0, 63, 54
5, 109260, Note_on_c, 0, 63, 0
5, 109260, Note_on_c, 0, 60, 0
5, 109320, Note_on_c, 0, 60, 48
5, 109320, Note_on_c, 0, 63, 48
5, 109380, Note_on_c, 0, 63, 0
5, 109380, Note_on_c, 0, 60, 0
5, 109440, Note_on_c, 0, 65, 47
5, 109440, Note_on_c, 0, 62, 47
5, 109500, Note_on_c, 0, 62, 0
5, 109500, Note_on_c, 0, 65, 0
5, 109560, Note_on_c, 0, 65, 45
5, 109560, Note_on_c, 0, 62, 45
5, 109620, Note_on_c, 0, 62, 0
5, 109620, Note_on_c, 0, 65, 0
5, 109680, Note_on_c, 0, 67, 44
5, 109680, Note_on_c, 0, 63, 44
5, 109800, Note_on_c, 0, 63, 0
5, 109800, Note_on_c, 0, 67, 0
5, 109920, Note_on_c, 0, 56, 55
5, 109920, Note_on_c, 0, 53, 55
5, 109980, Note_on_c, 0, 53, 0
5, 109980, Note_on_c, 0, 56, 0
5, 110040, Note_on_c, 0, 56, 51
5, 110040, Note_on_c, 0, 53, 51
5, 110100, Note_on_c, 0, 53, 0
5, 110100, Note_on_c, 0, 56, 0
5, 110160, Note_on_c, 0, 55, 50
5, 110160, Note_on_c, 0, 58, 50
5, 110220, Note_on_c, 0, 58, 0
5, 110220, Note_on_c, 0, 55, 0
5, 110280, Note_on_c, 0, 55, 48
5, 110280, Note_on_c, 0, 58, 48
5, 110340, Note_on_c, 0, 58, 0
5, 110340, Note_on_c, 0, 55, 0
5, 110400, Note_on_c, 0, 60, 47
5, 110400, Note_on_c, 0, 56, 47
5, 110520, Note_on_c, 0, 56, 0
5, 110520, Note_on_c, 0, 60, 0
5, 110640, Note_on_c, 0, 68, 50
5, 110640, Note_on_c, 0, 62, 50
5, 110700, Note_on_c, 0, 62, 0
5, 110700, Note_on_c, 0, 68, 0
5, 110760, Note_on_c, 0, 62, 53
5, 110760, Note_on_c, 0, 68, 53
5, 110820, Note_on_c, 0, 68, 0
5, 110820, Note_on_c, 0, 62, 0
5, 110880, Note_on_c, 0, 61, 59
5, 110880, Note_on_c, 0, 70, 59
5, 110880, Note_on_c, 0, 67, 59
5, 110940, Note_on_c, 0, 67, 0
5, 110940, Note_on_c, 0, 70, 0
5, 110940, Note_on_c, 0, 61, 0
5, 111000, Note_on_c, 0, 61, 52
5, 111000, Note_on_c, 0, 70, 52
5, 111000, Note_on_c, 0, 67, 52
5, 111060, Note_on_c, 0, 67, 0
5, 111060, Note_on_c, 0, 70, 0
5, 111060, Note_on_c, 0, 61, 0
5, 111120, Note_on_c, 0, 72, 46
5, 111120, Note_on_c, 0, 60, 46
5, 111120, Note_on_c, 0, 68, 46
5, 111240, Note_on_c, 0, 68, 0
5, 111240, Note_on_c, 0, 60, 0
5, 111240, Note_on_c, 0, 72, 0
5, 111360, Note_on_c, 0, 53, 76
5, 111420, Note_on_c, 0, 53, 0
5, 111480, Note_on_c, 0, 53, 55
5, 111540, Note_on_c, 0, 53, 0
5, 111600, Note_on_c, 0, 51, 47
5, 111720, Note_on_c, 0, 51, 0
5, 112080, Note_on_c, 0, 39, 49
5, 112140, Note_on_c, 0, 39, 0
5, 112200, Note_on_c, 0, 39, 46
5, 112260, Note_on_c, 0, 39, 0
5, 112320, Note_on_c, 0, 44, 44
5, 112440, Note_on_c, 0, 44, 0
5, 112560, Note_on_c, 0, 32, 42
5, 112680, Note_on_c, 0, 32, 0
5, 112800, Note_on_c, 0, 49, 51
5, 112800, Note_on_c, 0, 46, 51
5, 112920, Note_on_c, 0, 46, 0
5, 112920, Note_on_c, 0, 49, 0
5, 113040, Note_on_c, 0, 45, 47
5, 113040, Note_on_c, 0, 48, 47
5, 113160, Note_on_c, 0, 48, 0
5, 113160, Note_on_c, 0, 45, 0
5, 113520, Note_on_c, 0, 65, 57
5, 113520, Note_on_c, 0, 57, 57
5, 113640, Note_on_c, 0, 57, 0
5, 113640, Note_on_c, 0, 65, 0
5, 113760, Note_on_c, 0, 65, 53
5, 113760, Note_on_c, 0, 58, 53
5, 113880, Note_on_c, 0, 58, 0
5, 113880, Note_on_c, 0, 65, 0
5, 114240, Note_on_c, 0, 47, 62
5, 114240, Note_on_c, 0, 44, 62
5, 114360, Note_on_c, 0, 44, 0
5, 114360, Note_on_c, 0, 47, 0
5, 114480, Note_on_c, 0, 43, 57
5, 114480, Note_on_c, 0, 46, 57
5, 114600, Note_on_c, 0, 46, 0
5, 114600, Note_on_c, 0, 43, 0
5, 114960, Note_on_c, 0, 63, 67
5, 114960, Note_on_c, 0, 55, 67
5, 115080, Note_on_c, 0, 55, 0
5, 115080, Note_on_c, 0, 63, 0
5, 115200, Note_on_c, 0, 63, 63
5, 115200, Note_on_c, 0, 56, 63
5, 115320, Note_on_c, 0, 56, 0
5, 115320, Note_on_c, 0, 63, 0
5, 115680, Note_on_c, 0, 44, 84
5, 115800, Note_on_c, 0, 44, 0
5, 115920, Note_on_c, 0, 43, 76
5, 116040, Note_on_c, 0, 43, 0
5, 116160, Note_on_c, 0, 31, 72
5, 116280, Note_on_c, 0, 31, 0
5, 116400, Note_on_c, 0, 48, 88
5, 116520, Note_on_c, 0, 48, 0
5, 116640, Note_on_c, 0, 53, 80
5, 116760, Note_on_c, 0, 53, 0
5, 116880, Note_on_c, 0, 41, 76
5, 117000, Note_on_c, 0, 41, 0
5, 117120, Note_on_c, 0, 57, 93
5, 117240, Note_on_c, 0, 57, 0
5, 117360, Note_on_c, 0, 58, 86
5, 117480, Note_on_c, 0, 58, 0
5, 117600, Note_on_c, 0, 46, 84
5, 117720, Note_on_c, 0, 46, 0
5, 117840, Note_on_c, 0, 47, 98
5, 117960, Note_on_c, 0, 47, 0
5, 118080, Note_on_c, 0, 48, 90
5, 118200, Note_on_c, 0, 48, 0
5, 118320, Note_on_c, 0, 36, 87
5, 118440, Note_on_c, 0, 36, 0
5, 118560, Note_on_c, 0, 57, 103
5, 118680, Note_on_c, 0, 57, 0
5, 118800, Note_on_c, 0, 58, 95
5, 118920, Note_on_c, 0, 58, 0
5, 119040, Note_on_c, 0, 46, 93
5, 119160, Note_on_c, 0, 46, 0
5, 119280, Note_on_c, 0, 34, 114
5, 119400, Note_on_c, 0, 34, 0
5, 119520, Note_on_c, 0, 39, 106
5, 119580, Note_on_c, 0, 39, 0
5, 119640, Note_on_c, 0, 49, 99
5, 119700, Note_on_c, 0, 49, 0
5, 119700, Note_on_c, 0, 48, 96
5, 119760, Note_on_c, 0, 48, 0
5, 119760, Note_on_c, 0, 46, 92
5, 119820, Note_on_c, 0, 46, 0
5, 119820, Note_on_c, 0, 44, 87
5, 119880, Note_on_c, 0, 44, 0
5, 119880, Note_on_c, 0, 43, 82
5, 119940, Note_on_c, 0, 43, 0
5, 119940, Note_on_c, 0, 41, 77
5, 120000, Note_on_c, 0, 41, 0
5, 120000, Note_on_c, 0, 39, 73
5, 120060, Note_on_c, 0, 39, 0
5, 120060, Note_on_c, 0, 37, 68
5, 120120, Note_on_c, 0, 37, 0
5, 120120, Note_on_c, 0, 36, 63
5, 120180, Note_on_c, 0, 36, 0
5, 120180, Note_on_c, 0, 34, 59
5, 120240, Note_on_c, 0, 34, 0
5, 120240, Note_on_c, 0, 32, 54
5, 120480, Note_on_c, 0, 32, 0
5, 120720, Note_on_c, 0, 56, 49
5, 120720, Note_on_c, 0, 60, 49
5, 120780, Note_on_c, 0, 60, 0
5, 120780, Note_on_c, 0, 56, 0
5, 120840, Note_on_c, 0, 56, 46
5, 120840, Note_on_c, 0, 60, 46
5, 120900, Note_on_c, 0, 60, 0
5, 120900, Note_on_c, 0, 56, 0
5, 120960, Note_on_c, 0, 58, 44
5, 120960, Note_on_c, 0, 61, 44
5, 121080, Note_on_c, 0, 61, 0
5, 121080, Note_on_c, 0, 58, 0
5, 121440, Note_on_c, 0, 46, 52
5, 121440, Note_on_c, 0, 49, 52
5, 121500, Note_on_c, 0, 49, 0
5, 121500, Note_on_c, 0, 46, 0
5, 121560, Note_on_c, 0, 46, 47
5, 121560, Note_on_c, 0, 49, 47
5, 121620, Note_on_c, 0, 49, 0
5, 121620, Note_on_c, 0, 46, 0
5, 121680, Note_on_c, 0, 48, 45
5, 121680, Note_on_c, 0, 51, 45
5, 121800, Note_on_c, 0, 51, 0
5, 121800, Note_on_c, 0, 48, 0
5, 122160, Note_on_c, 0, 63, 55
5, 122160, Note_on_c, 0, 60, 55
5, 122220, Note_on_c, 0, 60, 0
5, 122220, Note_on_c, 0, 63, 0
5, 122280, Note_on_c, 0, 63, 50
5, 122280, Note_on_c, 0, 60, 50
5, 122340, Note_on_c, 0, 60, 0
5, 122340, Note_on_c, 0, 63, 0
5, 122400, Note_on_c, 0, 62, 49
5, 122400, Note_on_c, 0, 65, 49
5, 122460, Note_on_c, 0, 65, 0
5, 122460, Note_on_c, 0, 62, 0
5, 122520, Note_on_c, 0, 62, 47
5, 122520, Note_on_c, 0, 65, 47
5, 122580, Note_on_c, 0, 65, 0
5, 122580, Note_on_c, 0, 62, 0
5, 122640, Note_on_c, 0, 63, 46
5, 122640, Note_on_c, 0, 67, 46
5, 122760, Note_on_c, 0, 67, 0
5, 122760, Note_on_c, 0, 63, 0
5, 122880, Note_on_c, 0, 53, 57
5, 122880, Note_on_c, 0, 56, 57
5, 122940, Note_on_c, 0, 56, 0
5, 122940, Note_on_c, 0, 53, 0
5, 123000, Note_on_c, 0, 53, 53
5, 123000, Note_on_c, 0, 56, 53
5, 123060, Note_on_c, 0, 56, 0
5, 123060, Note_on_c, 0, 53, 0
5, 123120, Note_on_c, 0, 58, 52
5, 123120, Note_on_c, 0, 55, 52
5, 123180, Note_on_c, 0, 55, 0
5, 123180, Note_on_c, 0, 58, 0
5, 123240, Note_on_c, 0, 58, 50
5, 123240, Note_on_c, 0, 55, 50
5, 123300, Note_on_c, 0, 55, 0
5, 123300, Note_on_c, 0, 58, 0
5, 123360, Note_on_c, 0, 56, 49
5, 123360, Note_on_c, 0, 60, 49
5, 123480, Note_on_c, 0, 60, 0
5, 123480, Note_on_c, 0, 56, 0
5, 123600, Note_on_c, 0, 62, 53
5, 123600, Note_on_c, 0, 68, 53
5, 123660, Note_on_c, 0, 68, 0
5, 123660, Note_on_c, 0, 62, 0
5, 123720, Note_on_c, 0, 68, 56
5, 123720, Note_on_c, 0, 62, 56
5, 123780, Note_on_c, 0, 62, 0
5, 123780, Note_on_c, 0, 68, 0
5, 123840, Note_on_c, 0, 67, 63
5, 123840, Note_on_c, 0, 70, 63
5, 123840, Note_on_c, 0, 61, 63
5, 123900, Note_on_c, 0, 61, 0
5, 123900, Note_on_c, 0, 70, 0
5, 123900, Note_on_c, 0, 67, 0
5, 123960, Note_on_c, 0, 67, 56
5, 123960, Note_on_c, 0, 70, 56
5, 123960, Note_on_c, 0, 61, 56
5, 124020, Note_on_c, 0, 61, 0
5, 124020, Note_on_c, 0, 70, 0
5, 124020, Note_on_c, 0, 67, 0
5, 124080, Note_on_c, 0, 68, 52
5, 124080, Note_on_c, 0, 60, 52
5, 124080, Note_on_c, 0, 72, 52
5, 124200, Note_on_c, 0, 72, 0
5, 124200, Note_on_c, 0, 60, 0
5, 124200, Note_on_c, 0, 68, 0
5, 124320, Note_on_c, 0, 53, 77
5, 124380, Note_on_c, 0, 53, 0
5, 124440, Note_on_c, 0, 53, 57
5, 124500, Note_on_c, 0, 53, 0
5, 124560, Note_on_c, 0, 51, 48
5, 124680, Note_on_c, 0, 51, 0
5, 125040, Note_on_c, 0, 39, 48
5, 125100, Note_on_c, 0, 39, 0
5, 125160, Note_on_c, 0, 39, 43
5, 125220, Note_on_c, 0, 39, 0
5, 125280, Note_on_c, 0, 44, 42
5, 125400, Note_on_c, 0, 44, 0
5, 125520, Note_on_c, 0, 32, 40
5, 125640, Note_on_c, 0, 32, 0
5, 126720, Note_on_c, 0, 44, 55
5, 126960, Note_on_c, 0, 44, 0
5, 126960, Note_on_c, 0, 44, 56
5, 127200, Note_on_c, 0, 44, 0
5, 127200, Note_on_c, 0, 44, 56
5, 127440, Note_on_c, 0, 44, 0
5, 127440, Note_on_c, 0, 46, 57
5, 127680, Note_on_c, 0, 46, 0
5, 127680, Note_on_c, 0, 46, 58
5, 127920, Note_on_c, 0, 46, 0
5, 127920, Note_on_c, 0, 46, 58
5, 128160, Note_on_c, 0, 46, 0
5, 128160, Note_on_c, 0, 48, 59
5, 128400, Note_on_c, 0, 48, 0
5, 128400, Note_on_c, 0, 48, 60
5, 128640, Note_on_c, 0, 48, 0
5, 128640, Note_on_c, 0, 43, 60
5, 128880, Note_on_c, 0, 43, 0
5, 128880, Note_on_c, 0, 44, 64
5, 129120, Note_on_c, 0, 44, 0
5, 129120, Note_on_c, 0, 39, 60
5, 129360, Note_on_c, 0, 39, 0
5, 129360, Note_on_c, 0, 42, 57
5, 129600, Note_on_c, 0, 42, 0
5, 129600, Note_on_c, 0, 41, 58
5, 129840, Note_on_c, 0, 41, 0
5, 129840, Note_on_c, 0, 53, 60
5, 130080, Note_on_c, 0, 53, 0
5, 130080, Note_on_c, 0, 51, 61
5, 130320, Note_on_c, 0, 51, 0
5, 130320, Note_on_c, 0, 50, 62
5, 130560, Note_on_c, 0, 50, 0
5, 130560, Note_on_c, 0, 49, 64
5, 130800, Note_on_c, 0, 49, 0
5, 130800, Note_on_c, 0, 48, 65
5, 131040, Note_on_c, 0, 48, 0
5, 131040, Note_on_c, 0, 41, 67
5, 131280, Note_on_c, 0, 41, 0
5, 131280, Note_on_c, 0, 43, 68
5, 131520, Note_on_c, 0, 43, 0
5, 131520, Note_on_c, 0, 44, 69
5, 131760, Note_on_c, 0, 44, 0
5, 131760, Note_on_c, 0, 39, 72
5, 131840, Note_on_c, 0, 51, 70
5, 131920, Note_on_c, 0, 51, 0
5, 131920, Note_on_c, 0, 51, 68
5, 132000, Note_on_c, 0, 51, 0
5, 132000, Note_on_c, 0, 39, 0
5, 132000, Note_on_c, 0, 51, 67
5, 132080, Note_on_c, 0, 51, 0
5, 132080, Note_on_c, 0, 53, 65
5, 132160, Note_on_c, 0, 53, 0
5, 132160, Note_on_c, 0, 51, 63
5, 132240, Note_on_c, 0, 51, 0
5, 132240, Note_on_c, 0, 49, 62
5, 132320, Note_on_c, 0, 49, 0
5, 132320, Note_on_c, 0, 48, 60
5, 132400, Note_on_c, 0, 48, 0
5, 132400, Note_on_c, 0, 46, 58
5, 132480, Note_on_c, 0, 46, 0
5, 132480, Note_on_c, 0, 44, 53
5, 132720, Note_on_c, 0, 44, 0
5, 132720, Note_on_c, 0, 48, 54
5, 132960, Note_on_c, 0, 48, 0
5, 132960, Note_on_c, 0, 48, 55
5, 133200, Note_on_c, 0, 48, 0
5, 133200, Note_on_c, 0, 46, 56
5, 133440, Note_on_c, 0, 46, 0
5, 133440, Note_on_c, 0, 49, 58
5, 133680, Note_on_c, 0, 49, 0
5, 133680, Note_on_c, 0, 49, 59
5, 133920, Note_on_c, 0, 49, 0
5, 133920, Note_on_c, 0, 48, 60
5, 134160, Note_on_c, 0, 48, 0
5, 134160, Note_on_c, 0, 48, 61
5, 134400, Note_on_c, 0, 48, 0
5, 134400, Note_on_c, 0, 43, 62
5, 134640, Note_on_c, 0, 43, 0
5, 134640, Note_on_c, 0, 44, 64
5, 134880, Note_on_c, 0, 44, 0
5, 134880, Note_on_c, 0, 39, 61
5, 135120, Note_on_c, 0, 39, 0
5, 135120, Note_on_c, 0, 42, 59
5, 135360, Note_on_c, 0, 42, 0
5, 135360, Note_on_c, 0, 41, 61
5, 135600, Note_on_c, 0, 41, 0
5, 135600, Note_on_c, 0, 53, 64
5, 135840, Note_on_c, 0, 53, 0
5, 135840, Note_on_c, 0, 51, 66
5, 136080, Note_on_c, 0, 51, 0
5, 136080, Note_on_c, 0, 50, 68
5, 136320, Note_on_c, 0, 50, 0
5, 136320, Note_on_c, 0, 49, 71
5, 136560, Note_on_c, 0, 49, 0
5, 136560, Note_on_c, 0, 48, 73
5, 136800, Note_on_c, 0, 48, 0
5, 136800, Note_on_c, 0, 39, 64
5, 137040, Note_on_c, 0, 39, 0
5, 137040, Note_on_c, 0, 39, 62
5, 137280, Note_on_c, 0, 39, 0
5, 137280, Note_on_c, 0, 39, 60
5, 137520, Note_on_c, 0, 39, 0
5, 137520, Note_on_c, 0, 44, 57
5, 137760, Note_on_c, 0, 44, 0
5, 137760, Note_on_c, 0, 44, 55
5, 138000, Note_on_c, 0, 44, 0
5, 138240, Note_on_c, 0, 57, 70
5, 138480, Note_on_c, 0, 57, 0
5, 138480, Note_on_c, 0, 55, 68
5, 138720, Note_on_c, 0, 55, 0
5, 138720, Note_on_c, 0, 57, 67
5, 138960, Note_on_c, 0, 57, 0
5, 138960, Note_on_c, 0, 58, 65
5, 139200, Note_on_c, 0, 58, 0
5, 139200, Note_on_c, 0, 46, 63
5, 139440, Note_on_c, 0, 46, 0
5, 139680, Note_on_c, 0, 55, 60
5, 139920, Note_on_c, 0, 55, 0
5, 139920, Note_on_c, 0, 53, 58
5, 140160, Note_on_c, 0, 53, 0
5, 140160, Note_on_c, 0, 55, 57
5, 140400, Note_on_c, 0, 55, 0
5, 140400, Note_on_c, 0, 56, 55
5, 140640, Note_on_c, 0, 56, 0
5, 140640, Note_on_c, 0, 44, 53
5, 140880, Note_on_c, 0, 44, 0
5, 141120, Note_on_c, 0, 48, 58
5, 141240, Note_on_c, 0, 60, 59
5, 141350, Note_on_c, 0, 48, 0
5, 141360, Note_on_c, 0, 60, 0
5, 141360, Note_on_c, 0, 47, 60
5, 141480, Note_on_c, 0, 59, 61
5, 141590, Note_on_c, 0, 47, 0
5, 141600, Note_on_c, 0, 59, 0
5, 141600, Note_on_c, 0, 46, 62
5, 141720, Note_on_c, 0, 58, 62
5, 141830, Note_on_c, 0, 46, 0
5, 141840, Note_on_c, 0, 58, 0
5, 141840, Note_on_c, 0, 44, 63
5, 141960, Note_on_c, 0, 56, 64
5, 142070, Note_on_c, 0, 44, 0
5, 142080, Note_on_c, 0, 56, 0
5, 142080, Note_on_c, 0, 43, 65
5, 142200, Note_on_c, 0, 55, 66
5, 142310, Note_on_c, 0, 43, 0
5, 142320, Note_on_c, 0, 55, 0
5, 142320, Note_on_c, 0, 41, 67
5, 142440, Note_on_c, 0, 53, 68
5, 142550, Note_on_c, 0, 41, 0
5, 142560, Note_on_c, 0, 53, 0
5, 142560, Note_on_c, 0, 46, 68
5, 142680, Note_on_c, 0, 58, 69
5, 142790, Note_on_c, 0, 46, 0
5, 142800, Note_on_c, 0, 58, 0
5, 142800, Note_on_c, 0, 46, 70
5, 142920, Note_on_c, 0, 58, 71
5, 143030, Note_on_c, 0, 46, 0
5, 143040, Note_on_c, 0, 58, 0
5, 143040, Note_on_c, 0, 47, 84
5, 143160, Note_on_c, 0, 59, 73
5, 143270, Note_on_c, 0, 47, 0
5, 143280, Note_on_c, 0, 59, 0
5, 143280, Note_on_c, 0, 48, 74
5, 143400, Note_on_c, 0, 60, 74
5, 143510, Note_on_c, 0, 48, 0
5, 143520, Note_on_c, 0, 60, 0
5, 143520, Note_on_c, 0, 44, 75
5, 143640, Note_on_c, 0, 56, 76
5, 143750, Note_on_c, 0, 44, 0
5, 143760, Note_on_c, 0, 56, 0
5, 143760, Note_on_c, 0, 45, 91
5, 143880, Note_on_c, 0, 57, 78
5, 143990, Note_on_c, 0, 45, 0
5, 144000, Note_on_c, 0, 57, 0
5, 144000, Note_on_c, 0, 46, 79
5, 144120, Note_on_c, 0, 58, 80
5, 144230, Note_on_c, 0, 46, 0
5, 144240, Note_on_c, 0, 58, 0
5, 144240, Note_on_c, 0, 46, 80
5, 144360, Note_on_c, 0, 58, 81
5, 144470, Note_on_c, 0, 46, 0
5, 144480, Note_on_c, 0, 58, 0
5, 144480, Note_on_c, 0, 34, 93
5, 144600, Note_on_c, 0, 46, 83
5, 144710, Note_on_c, 0, 34, 0
5, 144720, Note_on_c, 0, 39, 84
5, 144830, Note_on_c, 0, 46, 0
5, 144840, Note_on_c, 0, 51, 85
5, 144950, Note_on_c, 0, 39, 0
5, 144960, Note_on_c, 0, 51, 0
5, 144960, Note_on_c, 0, 41, 86
5, 145080, Note_on_c, 0, 53, 86
5, 145190, Note_on_c, 0, 41, 0
5, 145200, Note_on_c, 0, 53, 0
5, 145200, Note_on_c, 0, 43, 87
5, 145320, Note_on_c, 0, 55, 88
5, 145430, Note_on_c, 0, 43, 0
5, 145440, Note_on_c, 0, 55, 0
5, 145440, Note_on_c, 0, 44, 55
5, 145660, Note_on_c, 0, 44, 0
5, 145680, Note_on_c, 0, 48, 56
5, 145900, Note_on_c, 0, 48, 0
5, 145920, Note_on_c, 0, 48, 57
5, 146140, Note_on_c, 0, 48, 0
5, 146160, Note_on_c, 0, 46, 58
5, 146380, Note_on_c, 0, 46, 0
5, 146400, Note_on_c, 0, 49, 59
5, 146620, Note_on_c, 0, 49, 0
5, 146640, Note_on_c, 0, 49, 60
5, 146860, Note_on_c, 0, 49, 0
5, 146880, Note_on_c, 0, 48, 61
5, 147100, Note_on_c, 0, 48, 0
5, 147120, Note_on_c, 0, 48, 62
5, 147340, Note_on_c, 0, 48, 0
5, 147360, Note_on_c, 0, 43, 64
5, 147580, Note_on_c, 0, 43, 0
5, 147600, Note_on_c, 0, 44, 66
5, 147820, Note_on_c, 0, 44, 0
5, 147840, Note_on_c, 0, 39, 62
5, 148060, Note_on_c, 0, 39, 0
5, 148080, Note_on_c, 0, 42, 62
5, 148300, Note_on_c, 0, 42, 0
5, 148320, Note_on_c, 0, 41, 63
5, 148540, Note_on_c, 0, 41, 0
5, 148560, Note_on_c, 0, 53, 65
5, 148780, Note_on_c, 0, 53, 0
5, 148800, Note_on_c, 0, 51, 66
5, 149020, Note_on_c, 0, 51, 0
5, 149040, Note_on_c, 0, 50, 68
5, 149268, Note_on_c, 0, 50, 0
5, 149280, Note_on_c, 0, 49, 70
5, 149508, Note_on_c, 0, 49, 0
5, 149520, Note_on_c, 0, 48, 71
5, 149748, Note_on_c, 0, 48, 0
5, 149760, Note_on_c, 0, 39, 64
5, 149996, Note_on_c, 0, 39, 0
5, 150000, Note_on_c, 0, 39, 61
5, 150236, Note_on_c, 0, 39, 0
5, 150240, Note_on_c, 0, 39, 58
5, 150476, Note_on_c, 0, 39, 0
5, 150480, Note_on_c, 0, 44, 55
5, 150720, Note_on_c, 0, 44, 0
5, 151440, Note_on_c, 0, 51, 61
5, 151440, Note_on_c, 0, 39, 61
5, 151560, Note_on_c, 0, 39, 0
5, 151560, Note_on_c, 0, 51, 0
5, 151680, Note_on_c, 0, 56, 61
5, 151680, Note_on_c, 0, 44, 61
5, 151800, Note_on_c, 0, 44, 0
5, 151800, Note_on_c, 0, 56, 0
5, 152160, Note_on_c, 0, 39, 60
5, 152160, Note_on_c, 0, 51, 60
5, 152280, Note_on_c, 0, 51, 0
5, 152280, Note_on_c, 0, 39, 0
5, 152400, Note_on_c, 0, 58, 59
5, 152400, Note_on_c, 0, 46, 59
5, 152520, Note_on_c, 0, 46, 0
5, 152520, Note_on_c, 0, 58, 0
5, 152880, Note_on_c, 0, 39, 58
5, 152880, Note_on_c, 0, 51, 58
5, 153000, Note_on_c, 0, 51, 0
5, 153000, Note_on_c, 0, 39, 0
5, 153120, Note_on_c, 0, 55, 57
5, 153120, Note_on_c, 0, 43, 57
5, 153240, Note_on_c, 0, 43, 0
5, 153240, Note_on_c, 0, 55, 0
5, 153600, Note_on_c, 0, 39, 56
5, 153600, Note_on_c, 0, 51, 56
5, 153720, Note_on_c, 0, 51, 0
5, 153720, Note_on_c, 0, 39, 0
5, 153840, Note_on_c, 0, 44, 56
5, 153840, Note_on_c, 0, 56, 56
5, 153960, Note_on_c, 0, 56, 0
5, 153960, Note_on_c, 0, 44, 0
5, 154320, Note_on_c, 0, 51, 54
5, 154320, Note_on_c, 0, 39, 54
5, 154440, Note_on_c, 0, 39, 0
5, 154440, Note_on_c, 0, 51, 0
5, 154560, Note_on_c, 0, 56, 54
5, 154560, Note_on_c, 0, 44, 54
5, 154680, Note_on_c, 0, 44, 0
5, 154680, Note_on_c, 0, 56, 0
5, 155040, Note_on_c, 0, 51, 53
5, 155040, Note_on_c, 0, 39, 53
5, 155160, Note_on_c, 0, 39, 0
5, 155160, Note_on_c, 0, 51, 0
5, 155280, Note_on_c, 0, 46, 52
5, 155280, Note_on_c, 0, 58, 52
5, 155400, Note_on_c, 0, 58, 0
5, 155400, Note_on_c, 0, 46, 0
5, 155760, Note_on_c, 0, 51, 51
5, 155760, Note_on_c, 0, 39, 51
5, 155880, Note_on_c, 0, 39, 0
5, 155880, Note_on_c, 0, 51, 0
5, 156000, Note_on_c, 0, 43, 50
5, 156000, Note_on_c, 0, 55, 50
5, 156120, Note_on_c, 0, 55, 0
5, 156120, Note_on_c, 0, 43, 0
5, 156480, Note_on_c, 0, 51, 49
5, 156720, Note_on_c, 0, 51, 0
5, 156720, Note_on_c, 0, 56, 49
5, 156960, Note_on_c, 0, 56, 0
5, 157200, Note_on_c, 0, 39, 47
5, 157440, Note_on_c, 0, 39, 0
5, 157440, Note_on_c, 0, 43, 47
5, 157680, Note_on_c, 0, 43, 0
5, 157920, Note_on_c, 0, 51, 46
5, 158160, Note_on_c, 0, 51, 0
5, 158160, Note_on_c, 0, 56, 45
5, 158400, Note_on_c, 0, 56, 0
5, 158640, Note_on_c, 0, 39, 44
5, 158880, Note_on_c, 0, 39, 0
5, 158880, Note_on_c, 0, 43, 43
5, 159120, Note_on_c, 0, 43, 0
5, 159360, Note_on_c, 0, 44, 42
5, 159600, Note_on_c, 0, 39, 41
5, 159840, Note_on_c, 0, 39, 0
5, 159840, Note_on_c, 0, 36, 41
5, 160080, Note_on_c, 0, 36, 0
5, 160080, Note_on_c, 0, 44, 0
5, 160080, Note_on_c, 0, 44, 40
5, 160080, Note_on_c, 0, 39, 40
5, 160320, Note_on_c, 0, 39, 0
5, 160320, Note_on_c, 0, 44, 0
5, 160320, Note_on_c, 0, 36, 40
5, 160320, Note_on_c, 0, 44, 40
5, 160560, Note_on_c, 0, 44, 0
5, 160560, Note_on_c, 0, 36, 0
5, 160560, Note_on_c, 0, 44, 43
5, 160560, Note_on_c, 0, 32, 43
5, 161760, Note_on_c, 0, 32, 0
5, 161760, Note_on_c, 0, 44, 0
5, 162720, Control_c, 0, 7, 100
5, 162720, Control_c, 0, 64, 0
5, 162720, Control_c, 0, 1, 0
5, 162720, Pitch_bend_c, 0, 8192
5, 162720, Control_c, 0, 93, 1
5, 162720, Control_c, 0, 91, 1
5, 162720, Control_c, 0, 10, 64
5, 163440, Control_c, 0, 7, 127
5, 163440, Pitch_bend_c, 0, 8192
5, 163440, Control_c, 0, 1, 0
5, 163440, Control_c, 0, 64, 0
5, 163440, Control_c, 0, 93, 28
5, 163440, Control_c, 0, 91, 91
5, 163920, Control_c, 0, 64, 0
5, 164160, Note_on_c, 0, 65, 85
5, 164880, Note_on_c, 0, 65, 0
5, 164880, Note_on_c, 0, 63, 72
5, 164975, Note_on_c, 0, 63, 0
5, 165360, Note_on_c, 0, 55, 68
5, 165455, Note_on_c, 0, 55, 0
5, 165600, Note_on_c, 0, 56, 68
5, 165695, Note_on_c, 0, 56, 0
5, 165840, Note_on_c, 0, 53, 64
5, 165935, Note_on_c, 0, 53, 0
5, 166080, Note_on_c, 0, 58, 60
5, 166175, Note_on_c, 0, 58, 0
5, 166320, Note_on_c, 0, 51, 56
5, 166415, Note_on_c, 0, 51, 0
5, 167040, Note_on_c, 0, 70, 76
5, 167760, Note_on_c, 0, 70, 0
5, 167760, Note_on_c, 0, 68, 65
5, 167855, Note_on_c, 0, 68, 0
5, 168240, Note_on_c, 0, 60, 62
5, 168335, Note_on_c, 0, 60, 0
5, 168480, Note_on_c, 0, 61, 62
5, 168575, Note_on_c, 0, 61, 0
5, 168720, Note_on_c, 0, 58, 59
5, 168815, Note_on_c, 0, 58, 0
5, 168960, Note_on_c, 0, 63, 55
5, 169055, Note_on_c, 0, 63, 0
5, 169200, Note_on_c, 0, 56, 52
5, 169295, Note_on_c, 0, 56, 0
5, 169920, Note_on_c, 0, 65, 74
5, 170640, Note_on_c, 0, 65, 0
5, 170640, Note_on_c, 0, 63, 68
5, 170735, Note_on_c, 0, 63, 0
5, 170880, Note_on_c, 0, 65, 66
5, 170975, Note_on_c, 0, 65, 0
5, 171120, Note_on_c, 0, 67, 64
5, 171215, Note_on_c, 0, 67, 0
5, 171360, Note_on_c, 0, 56, 62
5, 171455, Note_on_c, 0, 56, 0
5, 171600, Note_on_c, 0, 53, 64
5, 171695, Note_on_c, 0, 53, 0
5, 171840, Note_on_c, 0, 58, 59
5, 171935, Note_on_c, 0, 58, 0
5, 172080, Note_on_c, 0, 51, 55
5, 172175, Note_on_c, 0, 51, 0
5, 172800, Note_on_c, 0, 70, 68
5, 173520, Note_on_c, 0, 70, 0
5, 173520, Note_on_c, 0, 68, 63
5, 173615, Note_on_c, 0, 68, 0
5, 173760, Note_on_c, 0, 70, 61
5, 173855, Note_on_c, 0, 70, 0
5, 174000, Note_on_c, 0, 72, 60
5, 174095, Note_on_c, 0, 72, 0
5, 174240, Note_on_c, 0, 61, 58
5, 174335, Note_on_c, 0, 61, 0
5, 174480, Note_on_c, 0, 58, 58
5, 174575, Note_on_c, 0, 58, 0
5, 174720, Note_on_c, 0, 63, 55
5, 174815, Note_on_c, 0, 63, 0
5, 174960, Note_on_c, 0, 56, 51
5, 175055, Note_on_c, 0, 56, 0
5, 175440, Control_c, 0, 7, 127
5, 175440, Control_c, 0, 64, 0
5, 175680, Note_on_c, 0, 32, 56
5, 175775, Note_on_c, 0, 32, 0
5, 176400, Note_on_c, 0, 32, 59
5, 176495, Note_on_c, 0, 32, 0
5, 177120, Note_on_c, 0, 32, 63
5, 177215, Note_on_c, 0, 32, 0
5, 177600, Note_on_c, 0, 32, 77
5, 177695, Note_on_c, 0, 32, 0
5, 177840, Note_on_c, 0, 32, 71
5, 178080, Note_on_c, 0, 32, 0
5, 178080, Note_on_c, 0, 34, 60
5, 178175, Note_on_c, 0, 34, 0
5, 178560, Note_on_c, 0, 34, 70
5, 178655, Note_on_c, 0, 34, 0
5, 179280, Note_on_c, 0, 34, 73
5, 179375, Note_on_c, 0, 34, 0
5, 180000, Note_on_c, 0, 34, 77
5, 180095, Note_on_c, 0, 34, 0
5, 180480, Note_on_c, 0, 34, 89
5, 180575, Note_on_c, 0, 34, 0
5, 180720, Note_on_c, 0, 35, 85
5, 180960, Note_on_c, 0, 35, 0
5, 180960, Note_on_c, 0, 36, 71
5, 181035, Note_on_c, 0, 36, 0
5, 181440, Note_on_c, 0, 36, 85
5, 181535, Note_on_c, 0, 36, 0
5, 182160, Note_on_c, 0, 36, 89
5, 182255, Note_on_c, 0, 36, 0
5, 182880, Note_on_c, 0, 36, 92
5, 182975, Note_on_c, 0, 36, 0
5, 183600, Note_on_c, 0, 36, 96
5, 183695, Note_on_c, 0, 36, 0
5, 184320, Note_on_c, 0, 48, 92
5, 184415, Note_on_c, 0, 48, 0
5, 185040, Note_on_c, 0, 48, 88
5, 185135, Note_on_c, 0, 48, 0
5, 185760, Note_on_c, 0, 48, 85
5, 185855, Note_on_c, 0, 48, 0
5, 186480, Note_on_c, 0, 48, 81
5, 186575, Note_on_c, 0, 48, 0
5, 187200, Note_on_c, 0, 52, 77
5, 187295, Note_on_c, 0, 52, 0
5, 187920, Note_on_c, 0, 52, 74
5, 188015, Note_on_c, 0, 52, 0
5, 188640, Note_on_c, 0, 52, 70
5, 188735, Note_on_c, 0, 52, 0
5, 189360, Note_on_c, 0, 52, 66
5, 189455, Note_on_c, 0, 52, 0
5, 190080, Note_on_c, 0, 55, 63
5, 190320, Note_on_c, 0, 55, 0
5, 190800, Note_on_c, 0, 55, 62
5, 191040, Note_on_c, 0, 55, 0
5, 191520, Note_on_c, 0, 55, 60
5, 191760, Note_on_c, 0, 55, 0
5, 192240, Note_on_c, 0, 55, 58
5, 192480, Note_on_c, 0, 55, 0
5, 193200, Note_on_c, 0, 55, 56
5, 193440, Note_on_c, 0, 55, 0
5, 193920, Note_on_c, 0, 55, 54
5, 194160, Note_on_c, 0, 55, 0
5, 194640, Note_on_c, 0, 55, 52
5, 194880, Note_on_c, 0, 55, 0
5, 195360, Note_on_c, 0, 55, 46
5, 195455, Note_on_c, 0, 55, 0
5, 195600, Note_on_c, 0, 56, 83
5, 195720, Note_on_c, 0, 56, 0
5, 195720, Note_on_c, 0, 58, 90
5, 195840, Note_on_c, 0, 58, 0
5, 195840, Note_on_c, 0, 60, 96
5, 196320, Note_on_c, 0, 60, 0
5, 196320, Note_on_c, 0, 62, 89
5, 196560, Note_on_c, 0, 62, 0
5, 196560, Note_on_c, 0, 63, 87
5, 196655, Note_on_c, 0, 63, 0
5, 197040, Note_on_c, 0, 64, 100
5, 197520, Note_on_c, 0, 64, 0
5, 197520, Note_on_c, 0, 65, 81
5, 197615, Note_on_c, 0, 65, 0
5, 197760, Note_on_c, 0, 62, 79
5, 197855, Note_on_c, 0, 62, 0
5, 198000, Note_on_c, 0, 63, 77
5, 198095, Note_on_c, 0, 63, 0
5, 198480, Note_on_c, 0, 49, 85
5, 198600, Note_on_c, 0, 49, 0
5, 198600, Note_on_c, 0, 51, 90
5, 198720, Note_on_c, 0, 51, 0
5, 198720, Note_on_c, 0, 53, 95
5, 199200, Note_on_c, 0, 53, 0
5, 199200, Note_on_c, 0, 55, 91
5, 199440, Note_on_c, 0, 55, 0
5, 199440, Note_on_c, 0, 56, 87
5, 199535, Note_on_c, 0, 56, 0
5, 199920, Note_on_c, 0, 57, 95
5, 200370, Note_on_c, 0, 57, 0
5, 200400, Note_on_c, 0, 58, 83
5, 200495, Note_on_c, 0, 58, 0
5, 200640, Note_on_c, 0, 55, 77
5, 200735, Note_on_c, 0, 55, 0
5, 200880, Note_on_c, 0, 44, 79
5, 200975, Note_on_c, 0, 44, 0
5, 201000, Note_on_c, 0, 48, 78
5, 201095, Note_on_c, 0, 48, 0
5, 201120, Note_on_c, 0, 49, 78
5, 201215, Note_on_c, 0, 49, 0
5, 201240, Note_on_c, 0, 51, 78
5, 201335, Note_on_c, 0, 51, 0
5, 201360, Note_on_c, 0, 53, 78
5, 201455, Note_on_c, 0, 53, 0
5, 201480, Note_on_c, 0, 55, 78
5, 201575, Note_on_c, 0, 55, 0
5, 201600, Note_on_c, 0, 56, 90
5, 201695, Note_on_c, 0, 56, 0
5, 201720, Note_on_c, 0, 55, 90
5, 201815, Note_on_c, 0, 55, 0
5, 201840, Note_on_c, 0, 56, 90
5, 201935, Note_on_c, 0, 56, 0
5, 201960, Note_on_c, 0, 53, 89
5, 202055, Note_on_c, 0, 53, 0
5, 202080, Note_on_c, 0, 58, 89
5, 202175, Note_on_c, 0, 58, 0
5, 202200, Note_on_c, 0, 56, 89
5, 202295, Note_on_c, 0, 56, 0
5, 202320, Note_on_c, 0, 55, 88
5, 202415, Note_on_c, 0, 55, 0
5, 202440, Note_on_c, 0, 53, 88
5, 202535, Note_on_c, 0, 53, 0
5, 202560, Note_on_c, 0, 51, 87
5, 202655, Note_on_c, 0, 51, 0
5, 202680, Note_on_c, 0, 50, 87
5, 202775, Note_on_c, 0, 50, 0
5, 202800, Note_on_c, 0, 48, 87
5, 202895, Note_on_c, 0, 48, 0
5, 202920, Note_on_c, 0, 46, 86
5, 203015, Note_on_c, 0, 46, 0
5, 203040, Note_on_c, 0, 44, 86
5, 203135, Note_on_c, 0, 44, 0
5, 203160, Note_on_c, 0, 43, 86
5, 203255, Note_on_c, 0, 43, 0
5, 203280, Note_on_c, 0, 44, 85
5, 203375, Note_on_c, 0, 44, 0
5, 203400, Note_on_c, 0, 48, 85
5, 203495, Note_on_c, 0, 48, 0
5, 203520, Note_on_c, 0, 46, 85
5, 203615, Note_on_c, 0, 46, 0
5, 203640, Note_on_c, 0, 44, 84
5, 203735, Note_on_c, 0, 44, 0
5, 203760, Note_on_c, 0, 43, 84
5, 203855, Note_on_c, 0, 43, 0
5, 203880, Note_on_c, 0, 39, 84
5, 203975, Note_on_c, 0, 39, 0
5, 204000, Note_on_c, 0, 43, 83
5, 204095, Note_on_c, 0, 43, 0
5, 204120, Note_on_c, 0, 44, 83
5, 204215, Note_on_c, 0, 44, 0
5, 204240, Note_on_c, 0, 46, 82
5, 204335, Note_on_c, 0, 46, 0
5, 204360, Note_on_c, 0, 48, 82
5, 204455, Note_on_c, 0, 48, 0
5, 204480, Note_on_c, 0, 49, 82
5, 204575, Note_on_c, 0, 49, 0
5, 204600, Note_on_c, 0, 48, 81
5, 204695, Note_on_c, 0, 48, 0
5, 204720, Note_on_c, 0, 49, 81
5, 204815, Note_on_c, 0, 49, 0
5, 204840, Note_on_c, 0, 46, 81
5, 204935, Note_on_c, 0, 46, 0
5, 204960, Note_on_c, 0, 51, 80
5, 205055, Note_on_c, 0, 51, 0
5, 205080, Note_on_c, 0, 49, 80
5, 205175, Note_on_c, 0, 49, 0
5, 205200, Note_on_c, 0, 48, 80
5, 205295, Note_on_c, 0, 48, 0
5, 205320, Note_on_c, 0, 46, 79
5, 205415, Note_on_c, 0, 46, 0
5, 205440, Note_on_c, 0, 44, 79
5, 205535, Note_on_c, 0, 44, 0
5, 205560, Note_on_c, 0, 43, 79
5, 205655, Note_on_c, 0, 43, 0
5, 205680, Note_on_c, 0, 41, 80
5, 205775, Note_on_c, 0, 41, 0
5, 205800, Note_on_c, 0, 39, 81
5, 205895, Note_on_c, 0, 39, 0
5, 205920, Note_on_c, 0, 37, 81
5, 206015, Note_on_c, 0, 37, 0
5, 206040, Note_on_c, 0, 36, 82
5, 206135, Note_on_c, 0, 36, 0
5, 206160, Note_on_c, 0, 37, 82
5, 206255, Note_on_c, 0, 37, 0
5, 206280, Note_on_c, 0, 41, 83
5, 206375, Note_on_c, 0, 41, 0
5, 206400, Note_on_c, 0, 39, 84
5, 206495, Note_on_c, 0, 39, 0
5, 206520, Note_on_c, 0, 37, 84
5, 206615, Note_on_c, 0, 37, 0
5, 206640, Note_on_c, 0, 36, 85
5, 206735, Note_on_c, 0, 36, 0
5, 206760, Note_on_c, 0, 39, 85
5, 206855, Note_on_c, 0, 39, 0
5, 206880, Note_on_c, 0, 44, 86
5, 206975, Note_on_c, 0, 44, 0
5, 207000, Note_on_c, 0, 43, 86
5, 207095, Note_on_c, 0, 43, 0
5, 207120, Note_on_c, 0, 41, 87
5, 207215, Note_on_c, 0, 41, 0
5, 207240, Note_on_c, 0, 39, 88
5, 207335, Note_on_c, 0, 39, 0
5, 207360, Note_on_c, 0, 37, 88
5, 207455, Note_on_c, 0, 37, 0
5, 207480, Note_on_c, 0, 34, 89
5, 207575, Note_on_c, 0, 34, 0
5, 207600, Note_on_c, 0, 37, 89
5, 207695, Note_on_c, 0, 37, 0
5, 207720, Note_on_c, 0, 34, 90
5, 207815, Note_on_c, 0, 34, 0
5, 207840, Note_on_c, 0, 39, 91
5, 207935, Note_on_c, 0, 39, 0
5, 207960, Note_on_c, 0, 37, 91
5, 208055, Note_on_c, 0, 37, 0
5, 208080, Note_on_c, 0, 36, 92
5, 208175, Note_on_c, 0, 36, 0
5, 208200, Note_on_c, 0, 39, 92
5, 208295, Note_on_c, 0, 39, 0
5, 208320, Note_on_c, 0, 44, 93
5, 208415, Note_on_c, 0, 44, 0
5, 208440, Note_on_c, 0, 43, 94
5, 208535, Note_on_c, 0, 43, 0
5, 208560, Note_on_c, 0, 41, 94
5, 208655, Note_on_c, 0, 41, 0
5, 208680, Note_on_c, 0, 39, 95
5, 208775, Note_on_c, 0, 39, 0
5, 208800, Note_on_c, 0, 37, 95
5, 208895, Note_on_c, 0, 37, 0
5, 208920, Note_on_c, 0, 34, 96
5, 209015, Note_on_c, 0, 34, 0
5, 209040, Note_on_c, 0, 37, 97
5, 209135, Note_on_c, 0, 37, 0
5, 209160, Note_on_c, 0, 34, 97
5, 209255, Note_on_c, 0, 34, 0
5, 209280, Note_on_c, 0, 39, 98
5, 209375, Note_on_c, 0, 39, 0
5, 209400, Note_on_c, 0, 39, 98
5, 209495, Note_on_c, 0, 39, 0
5, 209520, Note_on_c, 0, 32, 99
5, 209615, Note_on_c, 0, 32, 0
5, 209640, Note_on_c, 0, 36, 99
5, 209735, Note_on_c, 0, 36, 0
5, 209760, Note_on_c, 0, 39, 100
5, 209855, Note_on_c, 0, 39, 0
5, 209880, Note_on_c, 0, 37, 101
5, 209975, Note_on_c, 0, 37, 0
5, 210000, Note_on_c, 0, 36, 101
5, 210095, Note_on_c, 0, 36, 0
5, 210120, Note_on_c, 0, 34, 102
5, 210215, Note_on_c, 0, 34, 0
5, 210240, Note_on_c, 0, 32, 102
5, 210335, Note_on_c, 0, 32, 0
5, 210360, Note_on_c, 0, 36, 103
5, 210455, Note_on_c, 0, 36, 0
5, 210480, Note_on_c, 0, 39, 104
5, 210575, Note_on_c, 0, 39, 0
5, 210600, Note_on_c, 0, 37, 104
5, 210695, Note_on_c, 0, 37, 0
5, 210720, Note_on_c, 0, 36, 105
5, 210815, Note_on_c, 0, 36, 0
5, 210840, Note_on_c, 0, 34, 105
5, 210935, Note_on_c, 0, 34, 0
5, 210960, Note_on_c, 0, 32, 106
5, 211055, Note_on_c, 0, 32, 0
5, 211080, Note_on_c, 0, 36, 107
5, 211175, Note_on_c, 0, 36, 0
5, 211200, Note_on_c, 0, 39, 107
5, 211295, Note_on_c, 0, 39, 0
5, 211320, Note_on_c, 0, 37, 108
5, 211415, Note_on_c, 0, 37, 0
5, 211440, Note_on_c, 0, 36, 108
5, 211535, Note_on_c, 0, 36, 0
5, 211560, Note_on_c, 0, 34, 109
5, 211655, Note_on_c, 0, 34, 0
5, 211680, Note_on_c, 0, 32, 110
5, 211860, Note_on_c, 0, 32, 0
5, 212400, Note_on_c, 0, 37, 53
5, 213120, Note_on_c, 0, 37, 0
5, 213120, Note_on_c, 0, 36, 56
5, 213840, Note_on_c, 0, 36, 0
5, 213840, Note_on_c, 0, 39, 59
5, 214560, Note_on_c, 0, 39, 0
5, 214560, Note_on_c, 0, 37, 62
5, 215280, Note_on_c, 0, 37, 0
5, 215280, Note_on_c, 0, 41, 68
5, 216000, Note_on_c, 0, 41, 0
5, 216000, Note_on_c, 0, 42, 79
5, 216480, Note_on_c, 0, 42, 0
5, 216480, Note_on_c, 0, 41, 69
5, 216720, Note_on_c, 0, 41, 0
5, 216720, Note_on_c, 0, 42, 66
5, 217200, Note_on_c, 0, 42, 0
5, 217200, Control_c, 0, 64, 0
5, 217200, Note_on_c, 0, 43, 59
5, 217440, Note_on_c, 0, 43, 0
5, 217440, Note_on_c, 0, 44, 56
5, 217680, Note_on_c, 0, 44, 0
5, 218160, Note_on_c, 0, 37, 53
5, 218880, Note_on_c, 0, 37, 0
5, 218880, Note_on_c, 0, 36, 56
5, 219600, Note_on_c, 0, 36, 0
5, 219600, Note_on_c, 0, 39, 59
5, 220320, Note_on_c, 0, 39, 0
5, 220320, Note_on_c, 0, 37, 62
5, 221040, Note_on_c, 0, 37, 0
5, 221040, Note_on_c, 0, 41, 68
5, 221760, Note_on_c, 0, 41, 0
5, 221760, Note_on_c, 0, 42, 79
5, 222240, Note_on_c, 0, 42, 0
5, 222240, Note_on_c, 0, 41, 69
5, 222480, Note_on_c, 0, 41, 0
5, 222480, Note_on_c, 0, 42, 66
5, 222960, Note_on_c, 0, 42, 0
5, 222960, Control_c, 0, 64, 0
5, 222960, Note_on_c, 0, 43, 59
5, 223200, Note_on_c, 0, 43, 0
5, 223200, Note_on_c, 0, 44, 56
5, 223440, Note_on_c, 0, 44, 0
5, 223920, Note_on_c, 0, 44, 55
5, 224640, Note_on_c, 0, 44, 0
5, 224640, Note_on_c, 0, 46, 57
5, 225360, Note_on_c, 0, 46, 0
5, 225360, Note_on_c, 0, 48, 59
5, 226080, Note_on_c, 0, 48, 0
5, 226080, Note_on_c, 0, 49, 61
5, 226800, Note_on_c, 0, 49, 0
5, 226800, Note_on_c, 0, 49, 63
5, 227520, Note_on_c, 0, 49, 0
5, 227520, Note_on_c, 0, 51, 65
5, 228240, Note_on_c, 0, 51, 0
5, 228240, Note_on_c, 0, 53, 67
5, 228960, Note_on_c, 0, 53, 0
5, 228960, Note_on_c, 0, 54, 69
5, 229680, Note_on_c, 0, 54, 0
5, 229680, Note_on_c, 0, 54, 71
5, 230400, Note_on_c, 0, 54, 0
5, 230400, Note_on_c, 0, 56, 76
5, 231120, Note_on_c, 0, 56, 0
5, 231120, Note_on_c, 0, 53, 80
5, 231840, Note_on_c, 0, 53, 0
5, 231840, Note_on_c, 0, 54, 84
5, 232560, Note_on_c, 0, 54, 0
5, 232560, Note_on_c, 0, 55, 94
5, 233280, Note_on_c, 0, 55, 0
5, 233280, Note_on_c, 0, 56, 74
5, 234000, Note_on_c, 0, 56, 0
5, 234000, Note_on_c, 0, 44, 63
5, 234480, Note_on_c, 0, 56, 59
5, 234720, Note_on_c, 0, 56, 0
5, 234720, Note_on_c, 0, 44, 0
5, 234720, Note_on_c, 0, 49, 57
5, 234960, Note_on_c, 0, 49, 0
5, 235440, Note_on_c, 0, 44, 55
5, 236160, Note_on_c, 0, 44, 0
5, 236160, Note_on_c, 0, 46, 57
5, 236880, Note_on_c, 0, 46, 0
5, 236880, Note_on_c, 0, 48, 59
5, 237600, Note_on_c, 0, 48, 0
5, 237600, Note_on_c, 0, 49, 61
5, 238320, Note_on_c, 0, 49, 0
5, 238320, Note_on_c, 0, 49, 63
5, 239040, Note_on_c, 0, 49, 0
5, 239040, Note_on_c, 0, 51, 65
5, 239760, Note_on_c, 0, 51, 0
5, 239760, Note_on_c, 0, 53, 67
5, 240480, Note_on_c, 0, 53, 0
5, 240480, Note_on_c, 0, 54, 69
5, 241200, Note_on_c, 0, 54, 0
5, 241200, Note_on_c, 0, 54, 71
5, 241920, Note_on_c, 0, 54, 0
5, 241920, Note_on_c, 0, 56, 76
5, 242640, Note_on_c, 0, 56, 0
5, 242640, Note_on_c, 0, 53, 80
5, 243360, Note_on_c, 0, 53, 0
5, 243360, Note_on_c, 0, 54, 84
5, 244080, Note_on_c, 0, 54, 0
5, 244080, Note_on_c, 0, 55, 94
5, 244800, Note_on_c, 0, 55, 0
5, 244800, Note_on_c, 0, 56, 74
5, 245520, Note_on_c, 0, 56, 0
5, 245520, Note_on_c, 0, 44, 63
5, 246000, Note_on_c, 0, 56, 59
5, 246240, Note_on_c, 0, 56, 0
5, 246240, Note_on_c, 0, 44, 0
5, 246240, Note_on_c, 0, 49, 57
5, 246480, Note_on_c, 0, 49, 0
5, 246720, Control_c, 0, 64, 0
5, 246720, Note_on_c, 0, 49, 58
5, 246840, Note_on_c, 0, 49, 0
5, 246840, Note_on_c, 0, 51, 62
5, 246960, Note_on_c, 0, 51, 0
5, 246960, Note_on_c, 0, 53, 68
5, 247440, Note_on_c, 0, 53, 0
5, 247440, Note_on_c, 0, 55, 63
5, 247680, Note_on_c, 0, 55, 0
5, 247680, Note_on_c, 0, 56, 60
5, 247800, Note_on_c, 0, 56, 0
5, 248160, Note_on_c, 0, 56, 71
5, 248280, Note_on_c, 0, 56, 0
5, 248280, Note_on_c, 0, 58, 77
5, 248400, Note_on_c, 0, 58, 0
5, 248400, Note_on_c, 0, 60, 82
5, 248880, Note_on_c, 0, 60, 0
5, 248880, Note_on_c, 0, 62, 75
5, 249120, Note_on_c, 0, 62, 0
5, 249120, Note_on_c, 0, 63, 62
5, 249480, Note_on_c, 0, 63, 0
5, 249600, Control_c, 0, 64, 0
5, 249840, Note_on_c, 0, 65, 85
5, 250560, Note_on_c, 0, 65, 0
5, 250560, Note_on_c, 0, 63, 72
5, 250655, Note_on_c, 0, 63, 0
5, 251040, Note_on_c, 0, 55, 68
5, 251135, Note_on_c, 0, 55, 0
5, 251280, Note_on_c, 0, 56, 68
5, 251375, Note_on_c, 0, 56, 0
5, 251520, Note_on_c, 0, 53, 64
5, 251615, Note_on_c, 0, 53, 0
5, 251760, Note_on_c, 0, 58, 60
5, 251855, Note_on_c, 0, 58, 0
5, 252000, Note_on_c, 0, 51, 56
5, 252095, Note_on_c, 0, 51, 0
5, 252720, Note_on_c, 0, 70, 76
5, 253440, Note_on_c, 0, 70, 0
5, 253440, Note_on_c, 0, 68, 65
5, 253535, Note_on_c, 0, 68, 0
5, 253920, Note_on_c, 0, 60, 62
5, 254015, Note_on_c, 0, 60, 0
5, 254160, Note_on_c, 0, 61, 62
5, 254255, Note_on_c, 0, 61, 0
5, 254400, Note_on_c, 0, 58, 59
5, 254495, Note_on_c, 0, 58, 0
5, 254640, Note_on_c, 0, 63, 55
5, 254735, Note_on_c, 0, 63, 0
5, 254880, Note_on_c, 0, 56, 52
5, 254975, Note_on_c, 0, 56, 0
5, 255600, Note_on_c, 0, 65, 74
5, 256320, Note_on_c, 0, 65, 0
5, 256320, Note_on_c, 0, 63, 68
5, 256415, Note_on_c, 0, 63, 0
5, 256560, Note_on_c, 0, 65, 66
5, 256655, Note_on_c, 0, 65, 0
5, 256800, Note_on_c, 0, 67, 64
5, 256895, Note_on_c, 0, 67, 0
5, 257040, Note_on_c, 0, 56, 62
5, 257135, Note_on_c, 0, 56, 0
5, 257280, Note_on_c, 0, 53, 64
5, 257375, Note_on_c, 0, 53, 0
5, 257520, Note_on_c, 0, 58, 59
5, 257615, Note_on_c, 0, 58, 0
5, 257760, Note_on_c, 0, 51, 55
5, 257855, Note_on_c, 0, 51, 0
5, 258480, Note_on_c, 0, 70, 68
5, 259200, Note_on_c, 0, 70, 0
5, 259200, Note_on_c, 0, 68, 63
5, 259295, Note_on_c, 0, 68, 0
5, 259440, Note_on_c, 0, 70, 61
5, 259535, Note_on_c, 0, 70, 0
5, 259680, Note_on_c, 0, 72, 60
5, 259775, Note_on_c, 0, 72, 0
5, 259920, Note_on_c, 0, 61, 58
5, 260015, Note_on_c, 0, 61, 0
5, 260160, Note_on_c, 0, 58, 58
5, 260255, Note_on_c, 0, 58, 0
5, 260400, Note_on_c, 0, 63, 55
5, 260495, Note_on_c, 0, 63, 0
5, 260640, Note_on_c, 0, 56, 51
5, 260735, Note_on_c, 0, 56, 0
5, 261120, Control_c, 0, 64, 0
5, 261360, Note_on_c, 0, 32, 56
5, 261455, Note_on_c, 0, 32, 0
5, 261600, Note_on_c, 0, 44, 57
5, 261695, Note_on_c, 0, 44, 0
5, 262080, Note_on_c, 0, 32, 59
5, 262175, Note_on_c, 0, 32, 0
5, 262320, Note_on_c, 0, 44, 61
5, 262415, Note_on_c, 0, 44, 0
5, 262800, Note_on_c, 0, 32, 63
5, 262895, Note_on_c, 0, 32, 0
5, 263040, Note_on_c, 0, 44, 64
5, 263135, Note_on_c, 0, 44, 0
5, 263280, Note_on_c, 0, 32, 77
5, 263375, Note_on_c, 0, 32, 0
5, 263520, Note_on_c, 0, 32, 71
5, 263760, Note_on_c, 0, 32, 0
5, 263760, Note_on_c, 0, 34, 60
5, 263855, Note_on_c, 0, 34, 0
5, 264240, Note_on_c, 0, 34, 70
5, 264335, Note_on_c, 0, 34, 0
5, 264960, Note_on_c, 0, 34, 73
5, 265055, Note_on_c, 0, 34, 0
5, 265680, Note_on_c, 0, 34, 77
5, 265775, Note_on_c, 0, 34, 0
5, 266160, Note_on_c, 0, 34, 89
5, 266255, Note_on_c, 0, 34, 0
5, 266400, Note_on_c, 0, 35, 84
5, 266640, Note_on_c, 0, 35, 0
5, 266640, Note_on_c, 0, 36, 71
5, 266715, Note_on_c, 0, 36, 0
5, 267120, Note_on_c, 0, 36, 85
5, 267215, Note_on_c, 0, 36, 0
5, 267840, Note_on_c, 0, 36, 89
5, 267935, Note_on_c, 0, 36, 0
5, 268560, Note_on_c, 0, 36, 92
5, 268655, Note_on_c, 0, 36, 0
5, 269280, Note_on_c, 0, 36, 96
5, 269375, Note_on_c, 0, 36, 0
5, 270000, Note_on_c, 0, 48, 85
5, 270095, Note_on_c, 0, 48, 0
5, 270720, Note_on_c, 0, 48, 78
5, 270815, Note_on_c, 0, 48, 0
5, 271440, Note_on_c, 0, 48, 76
5, 271535, Note_on_c, 0, 48, 0
5, 272160, Note_on_c, 0, 48, 74
5, 272255, Note_on_c, 0, 48, 0
5, 272880, Note_on_c, 0, 52, 72
5, 272975, Note_on_c, 0, 52, 0
5, 273600, Note_on_c, 0, 52, 70
5, 273695, Note_on_c, 0, 52, 0
5, 274320, Note_on_c, 0, 52, 68
5, 274415, Note_on_c, 0, 52, 0
5, 275040, Note_on_c, 0, 52, 66
5, 275135, Note_on_c, 0, 52, 0
5, 275760, Note_on_c, 0, 55, 64
5, 276000, Note_on_c, 0, 55, 0
5, 276480, Note_on_c, 0, 55, 62
5, 276720, Note_on_c, 0, 55, 0
5, 277200, Note_on_c, 0, 55, 60
5, 277440, Note_on_c, 0, 55, 0
5, 277920, Note_on_c, 0, 55, 58
5, 278160, Note_on_c, 0, 55, 0
5, 278880, Note_on_c, 0, 55, 56
5, 279120, Note_on_c, 0, 55, 0
5, 279600, Note_on_c, 0, 55, 54
5, 279840, Note_on_c, 0, 55, 0
5, 280320, Note_on_c, 0, 55, 52
5, 280560, Note_on_c, 0, 55, 0
5, 281040, Note_on_c, 0, 55, 46
5, 281135, Note_on_c, 0, 55, 0
5, 281280, Note_on_c, 0, 56, 83
5, 281400, Note_on_c, 0, 56, 0
5, 281400, Note_on_c, 0, 58, 85
5, 281520, Note_on_c, 0, 58, 0
5, 281520, Note_on_c, 0, 60, 95
5, 282000, Note_on_c, 0, 60, 0
5, 282000, Note_on_c, 0, 62, 89
5, 282240, Note_on_c, 0, 62, 0
5, 282240, Note_on_c, 0, 63, 87
5, 282335, Note_on_c, 0, 63, 0
5, 282720, Note_on_c, 0, 64, 100
5, 283200, Note_on_c, 0, 64, 0
5, 283200, Note_on_c, 0, 65, 81
5, 283295, Note_on_c, 0, 65, 0
5, 283440, Note_on_c, 0, 62, 79
5, 283535, Note_on_c, 0, 62, 0
5, 283680, Note_on_c, 0, 63, 77
5, 283775, Note_on_c, 0, 63, 0
5, 284160, Note_on_c, 0, 49, 81
5, 284280, Note_on_c, 0, 49, 0
5, 284280, Note_on_c, 0, 51, 85
5, 284400, Note_on_c, 0, 51, 0
5, 284400, Note_on_c, 0, 53, 93
5, 284880, Note_on_c, 0, 53, 0
5, 284880, Note_on_c, 0, 55, 87
5, 285120, Note_on_c, 0, 55, 0
5, 285120, Note_on_c, 0, 56, 83
5, 285215, Note_on_c, 0, 56, 0
5, 285600, Note_on_c, 0, 57, 97
5, 286050, Note_on_c, 0, 57, 0
5, 286080, Note_on_c, 0, 58, 83
5, 286175, Note_on_c, 0, 58, 0
5, 286320, Note_on_c, 0, 55, 79
5, 286415, Note_on_c, 0, 55, 0
5, 286560, Note_on_c, 0, 44, 78
5, 286655, Note_on_c, 0, 44, 0
5, 286680, Note_on_c, 0, 48, 78
5, 286775, Note_on_c, 0, 48, 0
5, 286800, Note_on_c, 0, 49, 78
5, 286895, Note_on_c, 0, 49, 0
5, 286920, Note_on_c, 0, 51, 78
5, 287015, Note_on_c, 0, 51, 0
5, 287040, Note_on_c, 0, 53, 78
5, 287135, Note_on_c, 0, 53, 0
5, 287160, Note_on_c, 0, 55, 78
5, 287255, Note_on_c, 0, 55, 0
5, 287280, Note_on_c, 0, 56, 90
5, 287375, Note_on_c, 0, 56, 0
5, 287400, Note_on_c, 0, 55, 90
5, 287495, Note_on_c, 0, 55, 0
5, 287520, Note_on_c, 0, 56, 90
5, 287615, Note_on_c, 0, 56, 0
5, 287640, Note_on_c, 0, 53, 89
5, 287735, Note_on_c, 0, 53, 0
5, 287760, Note_on_c, 0, 58, 89
5, 287855, Note_on_c, 0, 58, 0
5, 287880, Note_on_c, 0, 56, 89
5, 287975, Note_on_c, 0, 56, 0
5, 288000, Note_on_c, 0, 55, 88
5, 288095, Note_on_c, 0, 55, 0
5, 288120, Note_on_c, 0, 53, 88
5, 288215, Note_on_c, 0, 53, 0
5, 288240, Note_on_c, 0, 51, 87
5, 288335, Note_on_c, 0, 51, 0
5, 288360, Note_on_c, 0, 50, 87
5, 288455, Note_on_c, 0, 50, 0
5, 288480, Note_on_c, 0, 48, 87
5, 288575, Note_on_c, 0, 48, 0
5, 288600, Note_on_c, 0, 46, 86
5, 288695, Note_on_c, 0, 46, 0
5, 288720, Note_on_c, 0, 44, 86
5, 288815, Note_on_c, 0, 44, 0
5, 288840, Note_on_c, 0, 43, 86
5, 288935, Note_on_c, 0, 43, 0
5, 288960, Note_on_c, 0, 44, 85
5, 289055, Note_on_c, 0, 44, 0
5, 289080, Note_on_c, 0, 48, 85
5, 289175, Note_on_c, 0, 48, 0
5, 289200, Note_on_c, 0, 46, 85
5, 289295, Note_on_c, 0, 46, 0
5, 289320, Note_on_c, 0, 44, 84
5, 289415, Note_on_c, 0, 44, 0
5, 289440, Note_on_c, 0, 43, 84
5, 289535, Note_on_c, 0, 43, 0
5, 289560, Note_on_c, 0, 39, 84
5, 289655, Note_on_c, 0, 39, 0
5, 289680, Note_on_c, 0, 43, 83
5, 289775, Note_on_c, 0, 43, 0
5, 289800, Note_on_c, 0, 44, 83
5, 289895, Note_on_c, 0, 44, 0
5, 289920, Note_on_c, 0, 46, 82
5, 290015, Note_on_c, 0, 46, 0
5, 290040, Note_on_c, 0, 48, 82
5, 290135, Note_on_c, 0, 48, 0
5, 290160, Note_on_c, 0, 49, 82
5, 290255, Note_on_c, 0, 49, 0
5, 290280, Note_on_c, 0, 48, 81
5, 290375, Note_on_c, 0, 48, 0
5, 290400, Note_on_c, 0, 49, 81
5, 290495, Note_on_c, 0, 49, 0
5, 290520, Note_on_c, 0, 46, 81
5, 290615, Note_on_c, 0, 46, 0
5, 290640, Note_on_c, 0, 51, 80
5, 290735, Note_on_c, 0, 51, 0
5, 290760, Note_on_c, 0, 49, 80
5, 290855, Note_on_c, 0, 49, 0
5, 290880, Note_on_c, 0, 48, 80
5, 290975, Note_on_c, 0, 48, 0
5, 291000, Note_on_c, 0, 46, 79
5, 291095, Note_on_c, 0, 46, 0
5, 291120, Note_on_c, 0, 44, 79
5, 291215, Note_on_c, 0, 44, 0
5, 291240, Note_on_c, 0, 43, 80
5, 291335, Note_on_c, 0, 43, 0
5, 291360, Note_on_c, 0, 41, 80
5, 291455, Note_on_c, 0, 41, 0
5, 291480, Note_on_c, 0, 39, 81
5, 291575, Note_on_c, 0, 39, 0
5, 291600, Note_on_c, 0, 37, 81
5, 291695, Note_on_c, 0, 37, 0
5, 291720, Note_on_c, 0, 36, 82
5, 291815, Note_on_c, 0, 36, 0
5, 291840, Note_on_c, 0, 37, 82
5, 291935, Note_on_c, 0, 37, 0
5, 291960, Note_on_c, 0, 41, 83
5, 292055, Note_on_c, 0, 41, 0
5, 292080, Note_on_c, 0, 39, 83
5, 292175, Note_on_c, 0, 39, 0
5, 292200, Note_on_c, 0, 37, 84
5, 292295, Note_on_c, 0, 37, 0
5, 292320, Note_on_c, 0, 36, 84
5, 292415, Note_on_c, 0, 36, 0
5, 292440, Note_on_c, 0, 39, 85
5, 292535, Note_on_c, 0, 39, 0
5, 292560, Note_on_c, 0, 44, 85
5, 292655, Note_on_c, 0, 44, 0
5, 292680, Note_on_c, 0, 43, 86
5, 292775, Note_on_c, 0, 43, 0
5, 292800, Note_on_c, 0, 41, 86
5, 292895, Note_on_c, 0, 41, 0
5, 292920, Note_on_c, 0, 39, 87
5, 293015, Note_on_c, 0, 39, 0
5, 293040, Note_on_c, 0, 37, 87
5, 293135, Note_on_c, 0, 37, 0
5, 293160, Note_on_c, 0, 34, 88
5, 293255, Note_on_c, 0, 34, 0
5, 293280, Note_on_c, 0, 37, 88
5, 293375, Note_on_c, 0, 37, 0
5, 293400, Note_on_c, 0, 34, 89
5, 293495, Note_on_c, 0, 34, 0
5, 293520, Note_on_c, 0, 39, 90
5, 293615, Note_on_c, 0, 39, 0
5, 293640, Note_on_c, 0, 37, 90
5, 293735, Note_on_c, 0, 37, 0
5, 293760, Note_on_c, 0, 36, 91
5, 293855, Note_on_c, 0, 36, 0
5, 293880, Note_on_c, 0, 39, 91
5, 293975, Note_on_c, 0, 39, 0
5, 294000, Note_on_c, 0, 44, 92
5, 294095, Note_on_c, 0, 44, 0
5, 294120, Note_on_c, 0, 43, 92
5, 294215, Note_on_c, 0, 43, 0
5, 294240, Note_on_c, 0, 41, 93
5, 294335, Note_on_c, 0, 41, 0
5, 294360, Note_on_c, 0, 39, 93
5, 294455, Note_on_c, 0, 39, 0
5, 294480, Note_on_c, 0, 37, 94
5, 294575, Note_on_c, 0, 37, 0
5, 294600, Note_on_c, 0, 34, 94
5, 294695, Note_on_c, 0, 34, 0
5, 294720, Note_on_c, 0, 37, 95
5, 294815, Note_on_c, 0, 37, 0
5, 294840, Note_on_c, 0, 34, 95
5, 294935, Note_on_c, 0, 34, 0
5, 294960, Note_on_c, 0, 39, 96
5, 295055, Note_on_c, 0, 39, 0
5, 295080, Note_on_c, 0, 39, 96
5, 295175, Note_on_c, 0, 39, 0
5, 295200, Note_on_c, 0, 32, 97
5, 295295, Note_on_c, 0, 32, 0
5, 295320, Note_on_c, 0, 36, 97
5, 295415, Note_on_c, 0, 36, 0
5, 295440, Note_on_c, 0, 39, 98
5, 295535, Note_on_c, 0, 39, 0
5, 295560, Note_on_c, 0, 37, 98
5, 295655, Note_on_c, 0, 37, 0
5, 295680, Note_on_c, 0, 36, 99
5, 295775, Note_on_c, 0, 36, 0
5, 295800, Note_on_c, 0, 34, 99
5, 295895, Note_on_c, 0, 34, 0
5, 295920, Note_on_c, 0, 32, 100
5, 296015, Note_on_c, 0, 32, 0
5, 296040, Note_on_c, 0, 36, 100
5, 296135, Note_on_c, 0, 36, 0
5, 296160, Note_on_c, 0, 39, 101
5, 296255, Note_on_c, 0, 39, 0
5, 296280, Note_on_c, 0, 37, 101
5, 296375, Note_on_c, 0, 37, 0
5, 296400, Note_on_c, 0, 36, 102
5, 296495, Note_on_c, 0, 36, 0
5, 296520, Note_on_c, 0, 34, 102
5, 296615, Note_on_c, 0, 34, 0
5, 296640, Note_on_c, 0, 32, 103
5, 296735, Note_on_c, 0, 32, 0
5, 296760, Note_on_c, 0, 36, 103
5, 296855, Note_on_c, 0, 36, 0
5, 296880, Note_on_c, 0, 39, 104
5, 296975, Note_on_c, 0, 39, 0
5, 297000, Note_on_c, 0, 37, 104
5, 297095, Note_on_c, 0, 37, 0
5, 297120, Note_on_c, 0, 36, 105
5, 297215, Note_on_c, 0, 36, 0
5, 297240, Note_on_c, 0, 34, 106
5, 297335, Note_on_c, 0, 34, 0
5, 297360, Note_on_c, 0, 32, 106
5, 297455, Note_on_c, 0, 32, 0
5, 375120, Control_c, 0, 64, 0
5, 382800, Control_c, 0, 64, 0
5, 390480, Control_c, 0, 64, 0
5, 461520, Control_c, 0, 10, 55
5, 461520, Control_c, 0, 91, 91
5, 461520, Control_c, 0, 93, 28
5, 461520, Control_c, 0, 64, 0
5, 461520, Control_c, 0, 1, 0
5, 461520, Pitch_bend_c, 0, 8192
5, 461520, Control_c, 0, 7, 127
5, 465360, Note_on_c, 0, 51, 79
5, 465840, Note_on_c, 0, 61, 68
5, 466080, Note_on_c, 0, 61, 0
5, 466080, Note_on_c, 0, 60, 69
5, 466320, Note_on_c, 0, 60, 0
5, 466320, Note_on_c, 0, 58, 71
5, 466560, Note_on_c, 0, 58, 0
5, 466560, Note_on_c, 0, 56, 73
5, 466800, Note_on_c, 0, 56, 0
5, 466800, Note_on_c, 0, 55, 74
5, 467040, Note_on_c, 0, 55, 0
5, 467040, Note_on_c, 0, 53, 76
5, 467280, Note_on_c, 0, 53, 0
5, 467280, Note_on_c, 0, 51, 0
5, 467280, Note_on_c, 0, 51, 78
5, 467520, Note_on_c, 0, 51, 0
5, 467520, Note_on_c, 0, 49, 79
5, 467760, Note_on_c, 0, 49, 0
5, 467760, Note_on_c, 0, 48, 81
5, 468000, Note_on_c, 0, 48, 0
5, 468000, Note_on_c, 0, 44, 82
5, 468240, Note_on_c, 0, 44, 0
5, 468240, Note_on_c, 0, 51, 84
5, 468360, Note_on_c, 0, 51, 0
5, 468480, Note_on_c, 0, 39, 76
5, 468600, Note_on_c, 0, 39, 0
5, 468720, Note_on_c, 0, 63, 65
5, 468950, Note_on_c, 0, 63, 0
5, 468960, Note_on_c, 0, 65, 66
5, 469190, Note_on_c, 0, 65, 0
5, 469200, Note_on_c, 0, 61, 67
5, 469430, Note_on_c, 0, 61, 0
5, 469440, Note_on_c, 0, 63, 68
5, 469670, Note_on_c, 0, 63, 0
5, 469680, Note_on_c, 0, 60, 69
5, 469920, Note_on_c, 0, 60, 0
5, 469920, Note_on_c, 0, 61, 70
5, 470160, Note_on_c, 0, 58, 71
5, 470161, Note_on_c, 0, 61, 0
5, 470400, Note_on_c, 0, 60, 72
5, 470401, Note_on_c, 0, 58, 0
5, 470640, Note_on_c, 0, 56, 73
5, 470641, Note_on_c, 0, 60, 0
5, 470870, Note_on_c, 0, 56, 0
5, 470880, Note_on_c, 0, 58, 75
5, 471110, Note_on_c, 0, 58, 0
5, 471120, Note_on_c, 0, 55, 78
5, 471273, Note_on_c, 0, 55, 0
5, 471600, Note_on_c, 0, 55, 73
5, 471830, Note_on_c, 0, 55, 0
5, 471840, Note_on_c, 0, 56, 75
5, 472070, Note_on_c, 0, 56, 0
5, 472080, Note_on_c, 0, 58, 77
5, 472310, Note_on_c, 0, 58, 0
5, 472320, Note_on_c, 0, 60, 78
5, 472550, Note_on_c, 0, 60, 0
5, 472560, Note_on_c, 0, 61, 80
5, 472790, Note_on_c, 0, 61, 0
5, 472800, Note_on_c, 0, 62, 82
5, 473030, Note_on_c, 0, 62, 0
5, 473040, Note_on_c, 0, 63, 83
5, 473270, Note_on_c, 0, 63, 0
5, 473280, Note_on_c, 0, 63, 85
5, 473510, Note_on_c, 0, 63, 0
5, 473520, Note_on_c, 0, 63, 87
5, 473750, Note_on_c, 0, 63, 0
5, 473760, Note_on_c, 0, 63, 89
5, 473990, Note_on_c, 0, 63, 0
5, 474000, Note_on_c, 0, 56, 90
5, 474120, Note_on_c, 0, 56, 0
5, 474240, Note_on_c, 0, 44, 84
5, 474360, Note_on_c, 0, 44, 0
5, 474480, Note_on_c, 0, 58, 79
5, 474720, Note_on_c, 0, 58, 0
5, 474720, Note_on_c, 0, 55, 80
5, 474960, Note_on_c, 0, 55, 0
5, 474960, Note_on_c, 0, 52, 81
5, 475200, Note_on_c, 0, 52, 0
5, 475200, Note_on_c, 0, 48, 82
5, 475440, Note_on_c, 0, 48, 0
5, 475440, Note_on_c, 0, 50, 82
5, 475680, Note_on_c, 0, 50, 0
5, 475680, Note_on_c, 0, 52, 83
5, 475920, Note_on_c, 0, 52, 0
5, 475920, Note_on_c, 0, 53, 84
5, 476160, Note_on_c, 0, 53, 0
5, 476160, Note_on_c, 0, 56, 78
5, 476400, Note_on_c, 0, 56, 0
5, 476400, Note_on_c, 0, 46, 81
5, 476630, Note_on_c, 0, 46, 0
5, 476640, Note_on_c, 0, 50, 81
5, 476870, Note_on_c, 0, 50, 0
5, 476880, Note_on_c, 0, 53, 82
5, 477110, Note_on_c, 0, 53, 0
5, 477120, Note_on_c, 0, 57, 82
5, 477350, Note_on_c, 0, 57, 0
5, 477360, Note_on_c, 0, 56, 82
5, 477590, Note_on_c, 0, 56, 0
5, 477600, Note_on_c, 0, 53, 82
5, 477830, Note_on_c, 0, 53, 0
5, 477840, Note_on_c, 0, 55, 83
5, 478070, Note_on_c, 0, 55, 0
5, 478080, Note_on_c, 0, 51, 83
5, 478310, Note_on_c, 0, 51, 0
5, 478320, Note_on_c, 0, 61, 81
5, 478560, Note_on_c, 0, 61, 0
5, 478560, Note_on_c, 0, 58, 82
5, 478800, Note_on_c, 0, 58, 0
5, 478800, Note_on_c, 0, 55, 83
5, 479040, Note_on_c, 0, 55, 0
5, 479040, Note_on_c, 0, 51, 84
5, 479280, Note_on_c, 0, 51, 0
5, 479280, Note_on_c, 0, 53, 85
5, 479520, Note_on_c, 0, 53, 0
5, 479520, Note_on_c, 0, 55, 85
5, 479760, Note_on_c, 0, 55, 0
5, 479760, Note_on_c, 0, 56, 86
5, 480000, Note_on_c, 0, 56, 0
5, 480000, Note_on_c, 0, 44, 87
5, 480240, Note_on_c, 0, 44, 0
5, 480240, Note_on_c, 0, 46, 88
5, 480480, Note_on_c, 0, 46, 0
5, 480480, Note_on_c, 0, 48, 89
5, 480720, Note_on_c, 0, 48, 0
5, 480720, Note_on_c, 0, 49, 90
5, 480960, Note_on_c, 0, 49, 0
5, 480960, Note_on_c, 0, 46, 91
5, 481200, Note_on_c, 0, 46, 0
5, 481200, Note_on_c, 0, 51, 92
5, 481440, Note_on_c, 0, 51, 0
5, 481440, Note_on_c, 0, 39, 93
5, 481680, Note_on_c, 0, 39, 0
5, 481680, Note_on_c, 0, 44, 94
5, 481800, Note_on_c, 0, 44, 0
5, 481920, Note_on_c, 0, 32, 90
5, 482040, Note_on_c, 0, 32, 0
5, 482160, Note_on_c, 0, 48, 87
5, 482400, Note_on_c, 0, 52, 88
5, 482401, Note_on_c, 0, 48, 0
5, 482640, Note_on_c, 0, 55, 88
5, 482641, Note_on_c, 0, 52, 0
5, 482880, Note_on_c, 0, 59, 89
5, 482881, Note_on_c, 0, 55, 0
5, 483120, Note_on_c, 0, 58, 89
5, 483121, Note_on_c, 0, 59, 0
5, 483360, Note_on_c, 0, 55, 90
5, 483361, Note_on_c, 0, 58, 0
5, 483600, Note_on_c, 0, 56, 90
5, 483601, Note_on_c, 0, 55, 0
5, 483840, Note_on_c, 0, 53, 91
5, 483841, Note_on_c, 0, 56, 0
5, 484080, Note_on_c, 0, 68, 91
5, 484081, Note_on_c, 0, 53, 0
5, 484320, Note_on_c, 0, 68, 0
5, 484320, Note_on_c, 0, 65, 92
5, 484560, Note_on_c, 0, 65, 0
5, 484560, Note_on_c, 0, 62, 92
5, 484800, Note_on_c, 0, 62, 0
5, 484800, Note_on_c, 0, 58, 93
5, 485040, Note_on_c, 0, 58, 0
5, 485040, Note_on_c, 0, 60, 93
5, 485280, Note_on_c, 0, 60, 0
5, 485280, Note_on_c, 0, 62, 93
5, 485520, Note_on_c, 0, 62, 0
5, 485520, Note_on_c, 0, 63, 94
5, 485760, Note_on_c, 0, 63, 0
5, 485760, Note_on_c, 0, 67, 94
5, 486000, Note_on_c, 0, 67, 0
5, 486000, Note_on_c, 0, 39, 89
5, 486240, Note_on_c, 0, 43, 90
5, 486252, Note_on_c, 0, 39, 0
5, 486480, Note_on_c, 0, 46, 91
5, 486492, Note_on_c, 0, 43, 0
5, 486720, Note_on_c, 0, 50, 92
5, 486732, Note_on_c, 0, 46, 0
5, 486960, Note_on_c, 0, 49, 93
5, 486972, Note_on_c, 0, 50, 0
5, 487200, Note_on_c, 0, 46, 95
5, 487212, Note_on_c, 0, 49, 0
5, 487440, Note_on_c, 0, 48, 96
5, 487452, Note_on_c, 0, 46, 0
5, 487668, Note_on_c, 0, 48, 0
5, 487680, Note_on_c, 0, 44, 97
5, 487897, Note_on_c, 0, 44, 0
5, 487920, Note_on_c, 0, 43, 98
5, 488137, Note_on_c, 0, 43, 0
5, 488160, Note_on_c, 0, 44, 99
5, 488377, Note_on_c, 0, 44, 0
5, 488400, Note_on_c, 0, 41, 100
5, 488617, Note_on_c, 0, 41, 0
5, 488640, Note_on_c, 0, 37, 101
5, 488857, Note_on_c, 0, 37, 0
5, 488880, Note_on_c, 0, 39, 102
5, 489097, Note_on_c, 0, 39, 0
5, 489120, Note_on_c, 0, 39, 103
5, 489337, Note_on_c, 0, 39, 0
5, 489360, Note_on_c, 0, 32, 104
5, 489456, Note_on_c, 0, 32, 0
5, 489600, Note_on_c, 0, 44, 99
5, 489720, Note_on_c, 0, 44, 0
5, 489840, Note_on_c, 0, 60, 100
5, 490070, Note_on_c, 0, 60, 0
5, 490080, Note_on_c, 0, 61, 98
5, 490310, Note_on_c, 0, 61, 0
5, 490320, Note_on_c, 0, 58, 96
5, 490550, Note_on_c, 0, 58, 0
5, 490560, Note_on_c, 0, 60, 94
5, 490790, Note_on_c, 0, 60, 0
5, 490800, Note_on_c, 0, 56, 92
5, 491030, Note_on_c, 0, 56, 0
5, 491040, Note_on_c, 0, 58, 90
5, 491270, Note_on_c, 0, 58, 0
5, 491280, Note_on_c, 0, 55, 87
5, 491400, Note_on_c, 0, 55, 0
5, 491760, Note_on_c, 0, 63, 93
5, 491979, Note_on_c, 0, 63, 0
5, 492000, Note_on_c, 0, 60, 91
5, 492219, Note_on_c, 0, 60, 0
5, 492240, Note_on_c, 0, 62, 88
5, 492459, Note_on_c, 0, 62, 0
5, 492480, Note_on_c, 0, 59, 85
5, 492699, Note_on_c, 0, 59, 0
5, 492720, Note_on_c, 0, 60, 83
5, 492928, Note_on_c, 0, 60, 0
5, 492960, Note_on_c, 0, 57, 80
5, 493168, Note_on_c, 0, 57, 0
5, 493200, Note_on_c, 0, 58, 78
5, 493320, Note_on_c, 0, 58, 0
5, 493440, Note_on_c, 0, 46, 108
5, 493560, Note_on_c, 0, 46, 0
5, 493680, Note_on_c, 0, 56, 80
5, 493888, Note_on_c, 0, 56, 0
5, 493920, Note_on_c, 0, 53, 80
5, 494128, Note_on_c, 0, 53, 0
5, 494160, Note_on_c, 0, 56, 79
5, 494368, Note_on_c, 0, 56, 0
5, 494400, Note_on_c, 0, 53, 78
5, 494608, Note_on_c, 0, 53, 0
5, 494640, Note_on_c, 0, 56, 77
5, 494848, Note_on_c, 0, 56, 0
5, 494880, Note_on_c, 0, 53, 76
5, 495088, Note_on_c, 0, 53, 0
5, 495120, Note_on_c, 0, 56, 75
5, 495328, Note_on_c, 0, 56, 0
5, 495360, Note_on_c, 0, 53, 74
5, 495568, Note_on_c, 0, 53, 0
5, 495600, Note_on_c, 0, 56, 73
5, 495808, Note_on_c, 0, 56, 0
5, 495840, Note_on_c, 0, 53, 72
5, 496048, Note_on_c, 0, 53, 0
5, 496080, Note_on_c, 0, 56, 72
5, 496288, Note_on_c, 0, 56, 0
5, 496320, Note_on_c, 0, 53, 71
5, 496528, Note_on_c, 0, 53, 0
5, 496560, Note_on_c, 0, 56, 70
5, 496768, Note_on_c, 0, 56, 0
5, 496800, Note_on_c, 0, 53, 69
5, 497008, Note_on_c, 0, 53, 0
5, 497040, Note_on_c, 0, 56, 68
5, 497248, Note_on_c, 0, 56, 0
5, 497280, Note_on_c, 0, 53, 67
5, 497488, Note_on_c, 0, 53, 0
5, 497760, Note_on_c, 0, 58, 70
5, 497880, Note_on_c, 0, 58, 0
5, 498240, Note_on_c, 0, 62, 74
5, 498360, Note_on_c, 0, 62, 0
5, 498720, Note_on_c, 0, 65, 78
5, 498840, Note_on_c, 0, 65, 0
5, 498960, Note_on_c, 0, 62, 80
5, 499080, Note_on_c, 0, 62, 0
5, 499200, Note_on_c, 0, 58, 81
5, 499320, Note_on_c, 0, 58, 0
5, 499680, Note_on_c, 0, 46, 85
5, 499800, Note_on_c, 0, 46, 0
5, 500160, Note_on_c, 0, 50, 89
5, 500280, Note_on_c, 0, 50, 0
5, 500640, Note_on_c, 0, 53, 93
5, 500760, Note_on_c, 0, 53, 0
5, 500880, Note_on_c, 0, 50, 95
5, 501000, Note_on_c, 0, 50, 0
5, 501120, Note_on_c, 0, 46, 96
5, 501240, Note_on_c, 0, 46, 0
5, 501600, Note_on_c, 0, 65, 100
5, 501720, Note_on_c, 0, 65, 0
5, 501840, Note_on_c, 0, 62, 102
5, 501960, Note_on_c, 0, 62, 0
5, 502080, Note_on_c, 0, 58, 104
5, 502200, Note_on_c, 0, 58, 0
5, 502560, Note_on_c, 0, 46, 108
5, 502680, Note_on_c, 0, 46, 0
5, 502800, Note_on_c, 0, 51, 110
5, 502920, Note_on_c, 0, 51, 0
5, 503040, Note_on_c, 0, 43, 120
5, 503040, Note_on_c, 0, 31, 120
5, 503760, Note_on_c, 0, 31, 0
5, 503760, Note_on_c, 0, 43, 0
5, 503760, Note_on_c, 0, 44, 102
5, 503760, Note_on_c, 0, 32, 102
5, 504240, Note_on_c, 0, 32, 0
5, 504240, Note_on_c, 0, 44, 0
5, 504240, Note_on_c, 0, 46, 99
5, 504240, Note_on_c, 0, 34, 99
5, 504720, Note_on_c, 0, 34, 0
5, 504720, Note_on_c, 0, 46, 0
5, 504720, Note_on_c, 0, 48, 95
5, 504720, Note_on_c, 0, 36, 95
5, 504840, Note_on_c, 0, 36, 0
5, 504840, Note_on_c, 0, 48, 0
5, 504960, Note_on_c, 0, 31, 124
5, 504960, Note_on_c, 0, 43, 124
5, 505680, Note_on_c, 0, 43, 0
5, 505680, Note_on_c, 0, 31, 0
5, 505680, Note_on_c, 0, 32, 106
5, 505680, Note_on_c, 0, 44, 106
5, 506160, Note_on_c, 0, 44, 0
5, 506160, Note_on_c, 0, 32, 0
5, 506160, Note_on_c, 0, 34, 102
5, 506160, Note_on_c, 0, 46, 102
5, 506640, Note_on_c, 0, 46, 0
5, 506640, Note_on_c, 0, 34, 0
5, 506640, Note_on_c, 0, 36, 98
5, 506640, Note_on_c, 0, 48, 98
5, 506760, Note_on_c, 0, 48, 0
5, 506760, Note_on_c, 0, 36, 0
5, 506880, Note_on_c, 0, 43, 127
5, 506880, Note_on_c, 0, 31, 127
5, 507600, Note_on_c, 0, 31, 0
5, 507600, Note_on_c, 0, 43, 0
5, 507600, Note_on_c, 0, 44, 110
5, 507600, Note_on_c, 0, 32, 110
5, 508080, Note_on_c, 0, 32, 0
5, 508080, Note_on_c, 0, 44, 0
5, 508080, Note_on_c, 0, 46, 106
5, 508080, Note_on_c, 0, 34, 106
5, 508560, Note_on_c, 0, 34, 0
5, 508560, Note_on_c, 0, 46, 0
5, 508560, Note_on_c, 0, 39, 102
5, 508800, Note_on_c, 0, 51, 78
5, 509520, Note_on_c, 0, 51, 0
5, 509520, Note_on_c, 0, 39, 0
5, 509520, Note_on_c, 0, 39, 74
5, 509760, Note_on_c, 0, 51, 73
5, 510480, Note_on_c, 0, 51, 0
5, 510480, Note_on_c, 0, 39, 0
5, 510480, Note_on_c, 0, 39, 70
5, 510720, Note_on_c, 0, 51, 69
5, 515280, Note_on_c, 0, 51, 0
5, 515280, Note_on_c, 0, 39, 0
5, 515280, Note_on_c, 0, 51, 79
5, 515760, Note_on_c, 0, 61, 68
5, 516000, Note_on_c, 0, 61, 0
5, 516000, Note_on_c, 0, 60, 69
5, 516240, Note_on_c, 0, 60, 0
5, 516240, Note_on_c, 0, 58, 71
5, 516480, Note_on_c, 0, 58, 0
5, 516480, Note_on_c, 0, 56, 73
5, 516720, Note_on_c, 0, 56, 0
5, 516720, Note_on_c, 0, 55, 74
5, 516960, Note_on_c, 0, 55, 0
5, 516960, Note_on_c, 0, 53, 76
5, 517200, Note_on_c, 0, 53, 0
5, 517200, Note_on_c, 0, 51, 0
5, 517200, Note_on_c, 0, 51, 78
5, 517440, Note_on_c, 0, 51, 0
5, 517440, Note_on_c, 0, 49, 79
5, 517680, Note_on_c, 0, 49, 0
5, 517680, Note_on_c, 0, 48, 81
5, 517920, Note_on_c, 0, 48, 0
5, 517920, Note_on_c, 0, 44, 82
5, 518160, Note_on_c, 0, 44, 0
5, 518160, Note_on_c, 0, 51, 84
5, 518280, Note_on_c, 0, 51, 0
5, 518400, Note_on_c, 0, 39, 76
5, 518520, Note_on_c, 0, 39, 0
5, 518640, Note_on_c, 0, 63, 65
5, 518870, Note_on_c, 0, 63, 0
5, 518880, Note_on_c, 0, 65, 66
5, 519110, Note_on_c, 0, 65, 0
5, 519120, Note_on_c, 0, 61, 67
5, 519350, Note_on_c, 0, 61, 0
5, 519360, Note_on_c, 0, 63, 68
5, 519590, Note_on_c, 0, 63, 0
5, 519600, Note_on_c, 0, 60, 69
5, 519840, Note_on_c, 0, 60, 0
5, 519840, Note_on_c, 0, 61, 70
5, 520080, Note_on_c, 0, 58, 71
5, 520081, Note_on_c, 0, 61, 0
5, 520320, Note_on_c, 0, 60, 72
5, 520321, Note_on_c, 0, 58, 0
5, 520560, Note_on_c, 0, 56, 73
5, 520561, Note_on_c, 0, 60, 0
5, 520790, Note_on_c, 0, 56, 0
5, 520800, Note_on_c, 0, 58, 75
5, 521030, Note_on_c, 0, 58, 0
5, 521040, Note_on_c, 0, 55, 78
5, 521193, Note_on_c, 0, 55, 0
5, 521520, Note_on_c, 0, 55, 73
5, 521750, Note_on_c, 0, 55, 0
5, 521760, Note_on_c, 0, 56, 75
5, 521990, Note_on_c, 0, 56, 0
5, 522000, Note_on_c, 0, 58, 77
5, 522230, Note_on_c, 0, 58, 0
5, 522240, Note_on_c, 0, 60, 78
5, 522470, Note_on_c, 0, 60, 0
5, 522480, Note_on_c, 0, 61, 80
5, 522710, Note_on_c, 0, 61, 0
5, 522720, Note_on_c, 0, 62, 82
5, 522950, Note_on_c, 0, 62, 0
5, 522960, Note_on_c, 0, 63, 83
5, 523190, Note_on_c, 0, 63, 0
5, 523200, Note_on_c, 0, 63, 85
5, 523430, Note_on_c, 0, 63, 0
5, 523440, Note_on_c, 0, 63, 87
5, 523670, Note_on_c, 0, 63, 0
5, 523680, Note_on_c, 0, 63, 89
5, 523910, Note_on_c, 0, 63, 0
5, 523920, Note_on_c, 0, 56, 90
5, 524040, Note_on_c, 0, 56, 0
5, 524160, Note_on_c, 0, 44, 84
5, 524280, Note_on_c, 0, 44, 0
5, 524400, Note_on_c, 0, 58, 79
5, 524640, Note_on_c, 0, 58, 0
5, 524640, Note_on_c, 0, 55, 80
5, 524880, Note_on_c, 0, 55, 0
5, 524880, Note_on_c, 0, 52, 81
5, 525120, Note_on_c, 0, 52, 0
5, 525120, Note_on_c, 0, 48, 82
5, 525360, Note_on_c, 0, 48, 0
5, 525360, Note_on_c, 0, 50, 82
5, 525600, Note_on_c, 0, 50, 0
5, 525600, Note_on_c, 0, 52, 83
5, 525840, Note_on_c, 0, 52, 0
5, 525840, Note_on_c, 0, 53, 84
5, 526080, Note_on_c, 0, 53, 0
5, 526080, Note_on_c, 0, 56, 78
5, 526320, Note_on_c, 0, 56, 0
5, 526320, Note_on_c, 0, 46, 81
5, 526550, Note_on_c, 0, 46, 0
5, 526560, Note_on_c, 0, 50, 81
5, 526790, Note_on_c, 0, 50, 0
5, 526800, Note_on_c, 0, 53, 82
5, 527030, Note_on_c, 0, 53, 0
5, 527040, Note_on_c, 0, 57, 82
5, 527270, Note_on_c, 0, 57, 0
5, 527280, Note_on_c, 0, 56, 82
5, 527510, Note_on_c, 0, 56, 0
5, 527520, Note_on_c, 0, 53, 82
5, 527750, Note_on_c, 0, 53, 0
5, 527760, Note_on_c, 0, 55, 83
5, 527990, Note_on_c, 0, 55, 0
5, 528000, Note_on_c, 0, 51, 83
5, 528230, Note_on_c, 0, 51, 0
5, 528240, Note_on_c, 0, 61, 81
5, 528480, Note_on_c, 0, 61, 0
5, 528480, Note_on_c, 0, 58, 82
5, 528720, Note_on_c, 0, 58, 0
5, 528720, Note_on_c, 0, 55, 83
5, 528960, Note_on_c, 0, 55, 0
5, 528960, Note_on_c, 0, 51, 84
5, 529200, Note_on_c, 0, 51, 0
5, 529200, Note_on_c, 0, 53, 85
5, 529440, Note_on_c, 0, 53, 0
5, 529440, Note_on_c, 0, 55, 85
5, 529680, Note_on_c, 0, 55, 0
5, 529680, Note_on_c, 0, 56, 86
5, 529920, Note_on_c, 0, 56, 0
5, 529920, Note_on_c, 0, 44, 87
5, 530160, Note_on_c, 0, 44, 0
5, 530160, Note_on_c, 0, 46, 88
5, 530400, Note_on_c, 0, 46, 0
5, 530400, Note_on_c, 0, 48, 89
5, 530640, Note_on_c, 0, 48, 0
5, 530640, Note_on_c, 0, 49, 90
5, 530880, Note_on_c, 0, 49, 0
5, 530880, Note_on_c, 0, 46, 91
5, 531120, Note_on_c, 0, 46, 0
5, 531120, Note_on_c, 0, 51, 92
5, 531360, Note_on_c, 0, 51, 0
5, 531360, Note_on_c, 0, 39, 93
5, 531600, Note_on_c, 0, 39, 0
5, 531600, Note_on_c, 0, 44, 94
5, 531720, Note_on_c, 0, 44, 0
5, 531840, Note_on_c, 0, 32, 90
5, 531960, Note_on_c, 0, 32, 0
5, 532080, Note_on_c, 0, 48, 87
5, 532320, Note_on_c, 0, 52, 88
5, 532321, Note_on_c, 0, 48, 0
5, 532560, Note_on_c, 0, 55, 88
5, 532561, Note_on_c, 0, 52, 0
5, 532800, Note_on_c, 0, 59, 89
5, 532801, Note_on_c, 0, 55, 0
5, 533040, Note_on_c, 0, 58, 89
5, 533041, Note_on_c, 0, 59, 0
5, 533280, Note_on_c, 0, 55, 90
5, 533281, Note_on_c, 0, 58, 0
5, 533520, Note_on_c, 0, 56, 90
5, 533521, Note_on_c, 0, 55, 0
5, 533760, Note_on_c, 0, 53, 91
5, 533761, Note_on_c, 0, 56, 0
5, 534000, Note_on_c, 0, 68, 91
5, 534001, Note_on_c, 0, 53, 0
5, 534240, Note_on_c, 0, 68, 0
5, 534240, Note_on_c, 0, 65, 92
5, 534480, Note_on_c, 0, 65, 0
5, 534480, Note_on_c, 0, 62, 92
5, 534720, Note_on_c, 0, 62, 0
5, 534720, Note_on_c, 0, 58, 93
5, 534960, Note_on_c, 0, 58, 0
5, 534960, Note_on_c, 0, 60, 93
5, 535200, Note_on_c, 0, 60, 0
5, 535200, Note_on_c, 0, 62, 93
5, 535440, Note_on_c, 0, 62, 0
5, 535440, Note_on_c, 0, 63, 94
5, 535680, Note_on_c, 0, 63, 0
5, 535680, Note_on_c, 0, 67, 94
5, 535920, Note_on_c, 0, 67, 0
5, 535920, Note_on_c, 0, 39, 89
5, 536160, Note_on_c, 0, 43, 90
5, 536172, Note_on_c, 0, 39, 0
5, 536400, Note_on_c, 0, 46, 91
5, 536412, Note_on_c, 0, 43, 0
5, 536640, Note_on_c, 0, 50, 92
5, 536652, Note_on_c, 0, 46, 0
5, 536880, Note_on_c, 0, 49, 93
5, 536892, Note_on_c, 0, 50, 0
5, 537120, Note_on_c, 0, 46, 95
5, 537132, Note_on_c, 0, 49, 0
5, 537360, Note_on_c, 0, 48, 96
5, 537372, Note_on_c, 0, 46, 0
5, 537588, Note_on_c, 0, 48, 0
5, 537600, Note_on_c, 0, 44, 97
5, 537817, Note_on_c, 0, 44, 0
5, 537840, Note_on_c, 0, 43, 98
5, 538057, Note_on_c, 0, 43, 0
5, 538080, Note_on_c, 0, 44, 99
5, 538297, Note_on_c, 0, 44, 0
5, 538320, Note_on_c, 0, 41, 100
5, 538537, Note_on_c, 0, 41, 0
5, 538560, Note_on_c, 0, 37, 101
5, 538777, Note_on_c, 0, 37, 0
5, 538800, Note_on_c, 0, 39, 102
5, 539017, Note_on_c, 0, 39, 0
5, 539040, Note_on_c, 0, 39, 103
5, 539257, Note_on_c, 0, 39, 0
5, 539280, Note_on_c, 0, 32, 104
5, 539376, Note_on_c, 0, 32, 0
5, 539520, Note_on_c, 0, 44, 99
5, 539640, Note_on_c, 0, 44, 0
5, 539760, Control_c, 0, 64, 0
5, 539760, Note_on_c, 0, 36, 57
5, 539988, Note_on_c, 0, 36, 0
5, 540000, Note_on_c, 0, 36, 60
5, 540228, Note_on_c, 0, 36, 0
5, 540240, Note_on_c, 0, 36, 62
5, 540468, Note_on_c, 0, 36, 0
5, 540480, Note_on_c, 0, 36, 64
5, 540708, Note_on_c, 0, 36, 0
5, 540720, Note_on_c, 0, 36, 67
5, 540948, Note_on_c, 0, 36, 0
5, 540960, Note_on_c, 0, 36, 69
5, 541188, Note_on_c, 0, 36, 0
5, 541200, Note_on_c, 0, 36, 71
5, 541428, Note_on_c, 0, 36, 0
5, 541440, Note_on_c, 0, 36, 73
5, 541668, Note_on_c, 0, 36, 0
5, 541680, Note_on_c, 0, 36, 76
5, 541908, Note_on_c, 0, 36, 0
5, 541920, Note_on_c, 0, 36, 78
5, 542148, Note_on_c, 0, 36, 0
5, 542160, Note_on_c, 0, 36, 78
5, 542388, Note_on_c, 0, 36, 0
5, 542400, Note_on_c, 0, 36, 83
5, 542628, Note_on_c, 0, 36, 0
5, 542640, Note_on_c, 0, 36, 89
5, 542760, Note_on_c, 0, 36, 0
5, 542880, Note_on_c, 0, 31, 109
5, 543000, Note_on_c, 0, 31, 0
5, 543120, Note_on_c, 0, 36, 112
5, 543240, Note_on_c, 0, 36, 0
5, 543360, Note_on_c, 0, 36, 70
5, 543576, Note_on_c, 0, 36, 0
5, 543600, Note_on_c, 0, 36, 72
5, 543816, Note_on_c, 0, 36, 0
5, 543840, Note_on_c, 0, 36, 74
5, 544056, Note_on_c, 0, 36, 0
5, 544080, Note_on_c, 0, 36, 76
5, 544296, Note_on_c, 0, 36, 0
5, 544320, Note_on_c, 0, 36, 78
5, 544536, Note_on_c, 0, 36, 0
5, 544560, Note_on_c, 0, 36, 80
5, 544776, Note_on_c, 0, 36, 0
5, 544800, Note_on_c, 0, 36, 82
5, 545016, Note_on_c, 0, 36, 0
5, 545040, Note_on_c, 0, 36, 85
5, 545256, Note_on_c, 0, 36, 0
5, 545280, Note_on_c, 0, 36, 87
5, 545496, Note_on_c, 0, 36, 0
5, 545520, Note_on_c, 0, 36, 89
5, 545736, Note_on_c, 0, 36, 0
5, 545760, Note_on_c, 0, 36, 91
5, 545976, Note_on_c, 0, 36, 0
5, 546000, Note_on_c, 0, 36, 93
5, 546216, Note_on_c, 0, 36, 0
5, 546240, Note_on_c, 0, 36, 96
5, 546456, Note_on_c, 0, 36, 0
5, 546480, Note_on_c, 0, 38, 100
5, 546600, Note_on_c, 0, 38, 0
5, 546720, Note_on_c, 0, 38, 111
5, 546840, Note_on_c, 0, 38, 0
5, 546960, Note_on_c, 0, 31, 115
5, 547080, Note_on_c, 0, 31, 0
5, 547200, Note_on_c, 0, 31, 81
5, 547440, Note_on_c, 0, 31, 0
5, 547440, Control_c, 0, 64, 0
5, 547440, Note_on_c, 0, 36, 57
5, 547668, Note_on_c, 0, 36, 0
5, 547680, Note_on_c, 0, 36, 60
5, 547908, Note_on_c, 0, 36, 0
5, 547920, Note_on_c, 0, 36, 62
5, 548148, Note_on_c, 0, 36, 0
5, 548160, Note_on_c, 0, 36, 64
5, 548388, Note_on_c, 0, 36, 0
5, 548400, Note_on_c, 0, 36, 67
5, 548628, Note_on_c, 0, 36, 0
5, 548640, Note_on_c, 0, 36, 69
5, 548868, Note_on_c, 0, 36, 0
5, 548880, Note_on_c, 0, 36, 71
5, 549108, Note_on_c, 0, 36, 0
5, 549120, Note_on_c, 0, 36, 73
5, 549348, Note_on_c, 0, 36, 0
5, 549360, Note_on_c, 0, 36, 76
5, 549588, Note_on_c, 0, 36, 0
5, 549600, Note_on_c, 0, 36, 78
5, 549828, Note_on_c, 0, 36, 0
5, 549840, Note_on_c, 0, 36, 78
5, 550068, Note_on_c, 0, 36, 0
5, 550080, Note_on_c, 0, 36, 83
5, 550308, Note_on_c, 0, 36, 0
5, 550320, Note_on_c, 0, 36, 89
5, 550440, Note_on_c, 0, 36, 0
5, 550560, Note_on_c, 0, 31, 109
5, 550680, Note_on_c, 0, 31, 0
5, 550800, Note_on_c, 0, 36, 112
5, 550920, Note_on_c, 0, 36, 0
5, 551040, Note_on_c, 0, 36, 70
5, 551256, Note_on_c, 0, 36, 0
5, 551280, Note_on_c, 0, 36, 72
5, 551496, Note_on_c, 0, 36, 0
5, 551520, Note_on_c, 0, 36, 74
5, 551736, Note_on_c, 0, 36, 0
5, 551760, Note_on_c, 0, 36, 76
5, 551976, Note_on_c, 0, 36, 0
5, 552000, Note_on_c, 0, 36, 78
5, 552216, Note_on_c, 0, 36, 0
5, 552240, Note_on_c, 0, 36, 80
5, 552456, Note_on_c, 0, 36, 0
5, 552480, Note_on_c, 0, 36, 82
5, 552696, Note_on_c, 0, 36, 0
5, 552720, Note_on_c, 0, 36, 85
5, 552936, Note_on_c, 0, 36, 0
5, 552960, Note_on_c, 0, 36, 87
5, 553176, Note_on_c, 0, 36, 0
5, 553200, Note_on_c, 0, 36, 89
5, 553416, Note_on_c, 0, 36, 0
5, 553440, Note_on_c, 0, 36, 91
5, 553656, Note_on_c, 0, 36, 0
5, 553680, Note_on_c, 0, 36, 93
5, 553896, Note_on_c, 0, 36, 0
5, 553920, Note_on_c, 0, 36, 96
5, 554136, Note_on_c, 0, 36, 0
5, 554160, Note_on_c, 0, 38, 100
5, 554280, Note_on_c, 0, 38, 0
5, 554400, Note_on_c, 0, 38, 111
5, 554520, Note_on_c, 0, 38, 0
5, 554640, Note_on_c, 0, 31, 115
5, 554760, Note_on_c, 0, 31, 0
5, 554880, Note_on_c, 0, 31, 81
5, 555120, Note_on_c, 0, 31, 0
5, 555120, Control_c, 0, 64, 0
5, 555120, Note_on_c, 0, 43, 80
5, 555360, Note_on_c, 0, 43, 0
5, 555360, Note_on_c, 0, 43, 79
5, 555600, Note_on_c, 0, 43, 0
5, 555600, Note_on_c, 0, 43, 79
5, 555840, Note_on_c, 0, 43, 0
5, 555840, Note_on_c, 0, 43, 78
5, 556080, Note_on_c, 0, 43, 0
5, 556080, Note_on_c, 0, 43, 77
5, 556320, Note_on_c, 0, 43, 0
5, 556320, Note_on_c, 0, 38, 90
5, 556440, Note_on_c, 0, 38, 0
5, 556560, Note_on_c, 0, 43, 96
5, 556710, Note_on_c, 0, 43, 0
5, 556800, Note_on_c, 0, 43, 74
5, 557040, Note_on_c, 0, 43, 0
5, 557040, Note_on_c, 0, 43, 74
5, 557280, Note_on_c, 0, 43, 0
5, 557280, Note_on_c, 0, 41, 73
5, 557520, Note_on_c, 0, 41, 0
5, 557520, Note_on_c, 0, 40, 72
5, 557748, Note_on_c, 0, 40, 0
5, 557760, Note_on_c, 0, 41, 71
5, 557988, Note_on_c, 0, 41, 0
5, 558000, Note_on_c, 0, 40, 70
5, 558228, Note_on_c, 0, 40, 0
5, 558240, Note_on_c, 0, 36, 88
5, 558360, Note_on_c, 0, 36, 0
5, 558480, Note_on_c, 0, 41, 92
5, 558600, Note_on_c, 0, 41, 0
5, 558720, Note_on_c, 0, 41, 68
5, 558948, Note_on_c, 0, 41, 0
5, 558960, Note_on_c, 0, 41, 67
5, 559188, Note_on_c, 0, 41, 0
5, 559200, Note_on_c, 0, 41, 66
5, 559428, Note_on_c, 0, 41, 0
5, 559440, Note_on_c, 0, 41, 65
5, 559668, Note_on_c, 0, 41, 0
5, 559680, Note_on_c, 0, 41, 64
5, 559908, Note_on_c, 0, 41, 0
5, 559920, Note_on_c, 0, 41, 64
5, 560148, Note_on_c, 0, 41, 0
5, 560160, Note_on_c, 0, 36, 76
5, 560280, Note_on_c, 0, 36, 0
5, 560400, Note_on_c, 0, 41, 79
5, 560520, Note_on_c, 0, 41, 0
5, 560640, Note_on_c, 0, 41, 61
5, 560856, Note_on_c, 0, 41, 0
5, 560880, Note_on_c, 0, 41, 60
5, 561096, Note_on_c, 0, 41, 0
5, 561120, Note_on_c, 0, 39, 59
5, 561336, Note_on_c, 0, 39, 0
5, 561360, Note_on_c, 0, 38, 59
5, 561576, Note_on_c, 0, 38, 0
5, 561600, Note_on_c, 0, 39, 58
5, 561816, Note_on_c, 0, 39, 0
5, 561840, Note_on_c, 0, 38, 57
5, 562056, Note_on_c, 0, 38, 0
5, 562080, Note_on_c, 0, 34, 68
5, 562200, Note_on_c, 0, 34, 0
5, 562320, Note_on_c, 0, 39, 73
5, 562440, Note_on_c, 0, 39, 0
5, 562560, Note_on_c, 0, 39, 54
5, 562788, Note_on_c, 0, 39, 0
5, 569040, Note_on_c, 0, 51, 79
5, 569520, Note_on_c, 0, 61, 68
5, 569760, Note_on_c, 0, 61, 0
5, 569760, Note_on_c, 0, 60, 69
5, 570000, Note_on_c, 0, 60, 0
5, 570000, Note_on_c, 0, 58, 71
5, 570240, Note_on_c, 0, 58, 0
5, 570240, Note_on_c, 0, 56, 73
5, 570480, Note_on_c, 0, 56, 0
5, 570480, Note_on_c, 0, 55, 74
5, 570720, Note_on_c, 0, 55, 0
5, 570720, Note_on_c, 0, 53, 76
5, 570960, Note_on_c, 0, 53, 0
5, 570960, Note_on_c, 0, 51, 0
5, 570960, Note_on_c, 0, 51, 78
5, 571200, Note_on_c, 0, 51, 0
5, 571200, Note_on_c, 0, 49, 79
5, 571440, Note_on_c, 0, 49, 0
5, 571440, Note_on_c, 0, 48, 81
5, 571680, Note_on_c, 0, 48, 0
5, 571680, Note_on_c, 0, 44, 82
5, 571920, Note_on_c, 0, 44, 0
5, 571920, Note_on_c, 0, 51, 84
5, 572040, Note_on_c, 0, 51, 0
5, 572160, Note_on_c, 0, 39, 76
5, 572280, Note_on_c, 0, 39, 0
5, 572400, Note_on_c, 0, 63, 65
5, 572630, Note_on_c, 0, 63, 0
5, 572640, Note_on_c, 0, 65, 66
5, 572870, Note_on_c, 0, 65, 0
5, 572880, Note_on_c, 0, 61, 67
5, 573110, Note_on_c, 0, 61, 0
5, 573120, Note_on_c, 0, 63, 68
5, 573350, Note_on_c, 0, 63, 0
5, 573360, Note_on_c, 0, 60, 69
5, 573600, Note_on_c, 0, 61, 70
5, 573630, Note_on_c, 0, 60, 0
5, 573840, Note_on_c, 0, 58, 71
5, 573841, Note_on_c, 0, 61, 0
5, 574080, Note_on_c, 0, 60, 72
5, 574081, Note_on_c, 0, 58, 0
5, 574320, Note_on_c, 0, 56, 73
5, 574321, Note_on_c, 0, 60, 0
5, 574550, Note_on_c, 0, 56, 0
5, 574560, Note_on_c, 0, 58, 75
5, 574790, Note_on_c, 0, 58, 0
5, 574800, Note_on_c, 0, 55, 78
5, 574953, Note_on_c, 0, 55, 0
5, 575280, Note_on_c, 0, 55, 73
5, 575510, Note_on_c, 0, 55, 0
5, 575520, Note_on_c, 0, 56, 75
5, 575750, Note_on_c, 0, 56, 0
5, 575760, Note_on_c, 0, 58, 77
5, 575990, Note_on_c, 0, 58, 0
5, 576000, Note_on_c, 0, 60, 78
5, 576230, Note_on_c, 0, 60, 0
5, 576240, Note_on_c, 0, 61, 80
5, 576470, Note_on_c, 0, 61, 0
5, 576480, Note_on_c, 0, 62, 82
5, 576710, Note_on_c, 0, 62, 0
5, 576720, Note_on_c, 0, 63, 83
5, 576950, Note_on_c, 0, 63, 0
5, 576960, Note_on_c, 0, 63, 85
5, 577190, Note_on_c, 0, 63, 0
5, 577200, Note_on_c, 0, 63, 87
5, 577430, Note_on_c, 0, 63, 0
5, 577440, Note_on_c, 0, 63, 89
5, 577670, Note_on_c, 0, 63, 0
5, 577680, Note_on_c, 0, 56, 90
5, 577800, Note_on_c, 0, 56, 0
5, 577920, Note_on_c, 0, 44, 84
5, 578040, Note_on_c, 0, 44, 0
5, 578160, Note_on_c, 0, 58, 79
5, 578400, Note_on_c, 0, 58, 0
5, 578400, Note_on_c, 0, 55, 80
5, 578640, Note_on_c, 0, 55, 0
5, 578640, Note_on_c, 0, 52, 81
5, 578880, Note_on_c, 0, 52, 0
5, 578880, Note_on_c, 0, 48, 82
5, 579120, Note_on_c, 0, 48, 0
5, 579120, Note_on_c, 0, 50, 82
5, 579360, Note_on_c, 0, 50, 0
5, 579360, Note_on_c, 0, 52, 83
5, 579600, Note_on_c, 0, 52, 0
5, 579600, Note_on_c, 0, 53, 84
5, 579840, Note_on_c, 0, 53, 0
5, 579840, Note_on_c, 0, 56, 78
5, 580080, Note_on_c, 0, 56, 0
5, 580080, Note_on_c, 0, 46, 81
5, 580310, Note_on_c, 0, 46, 0
5, 580320, Note_on_c, 0, 50, 81
5, 580550, Note_on_c, 0, 50, 0
5, 580560, Note_on_c, 0, 53, 82
5, 580790, Note_on_c, 0, 53, 0
5, 580800, Note_on_c, 0, 57, 82
5, 581030, Note_on_c, 0, 57, 0
5, 581040, Note_on_c, 0, 56, 82
5, 581270, Note_on_c, 0, 56, 0
5, 581280, Note_on_c, 0, 53, 82
5, 581510, Note_on_c, 0, 53, 0
5, 581520, Note_on_c, 0, 55, 83
5, 581750, Note_on_c, 0, 55, 0
5, 581760, Note_on_c, 0, 51, 83
5, 581990, Note_on_c, 0, 51, 0
5, 582000, Note_on_c, 0, 61, 81
5, 582240, Note_on_c, 0, 61, 0
5, 582240, Note_on_c, 0, 58, 82
5, 582480, Note_on_c, 0, 58, 0
5, 582480, Note_on_c, 0, 55, 83
5, 582720, Note_on_c, 0, 55, 0
5, 582720, Note_on_c, 0, 51, 84
5, 582960, Note_on_c, 0, 51, 0
5, 582960, Note_on_c, 0, 53, 85
5, 583200, Note_on_c, 0, 53, 0
5, 583200, Note_on_c, 0, 55, 85
5, 583440, Note_on_c, 0, 55, 0
5, 583440, Note_on_c, 0, 56, 86
5, 583680, Note_on_c, 0, 56, 0
5, 583680, Note_on_c, 0, 44, 87
5, 583920, Note_on_c, 0, 44, 0
5, 583920, Note_on_c, 0, 46, 88
5, 584160, Note_on_c, 0, 46, 0
5, 584160, Note_on_c, 0, 48, 89
5, 584400, Note_on_c, 0, 48, 0
5, 584400, Note_on_c, 0, 49, 90
5, 584640, Note_on_c, 0, 49, 0
5, 584640, Note_on_c, 0, 46, 91
5, 584880, Note_on_c, 0, 46, 0
5, 584880, Note_on_c, 0, 51, 92
5, 585120, Note_on_c, 0, 51, 0
5, 585120, Note_on_c, 0, 39, 93
5, 585360, Note_on_c, 0, 39, 0
5, 585360, Note_on_c, 0, 44, 94
5, 585480, Note_on_c, 0, 44, 0
5, 585600, Note_on_c, 0, 32, 90
5, 585720, Note_on_c, 0, 32, 0
5, 585840, Note_on_c, 0, 48, 87
5, 586080, Note_on_c, 0, 52, 88
5, 586081, Note_on_c, 0, 48, 0
5, 586320, Note_on_c, 0, 55, 88
5, 586321, Note_on_c, 0, 52, 0
5, 586560, Note_on_c, 0, 59, 89
5, 586561, Note_on_c, 0, 55, 0
5, 586800, Note_on_c, 0, 58, 89
5, 586801, Note_on_c, 0, 59, 0
5, 587040, Note_on_c, 0, 55, 90
5, 587041, Note_on_c, 0, 58, 0
5, 587280, Note_on_c, 0, 56, 90
5, 587281, Note_on_c, 0, 55, 0
5, 587520, Note_on_c, 0, 53, 91
5, 587521, Note_on_c, 0, 56, 0
5, 587760, Note_on_c, 0, 68, 91
5, 587761, Note_on_c, 0, 53, 0
5, 588000, Note_on_c, 0, 68, 0
5, 588000, Note_on_c, 0, 65, 92
5, 588240, Note_on_c, 0, 65, 0
5, 588240, Note_on_c, 0, 62, 92
5, 588480, Note_on_c, 0, 62, 0
5, 588480, Note_on_c, 0, 58, 93
5, 588720, Note_on_c, 0, 58, 0
5, 588720, Note_on_c, 0, 60, 93
5, 588960, Note_on_c, 0, 60, 0
5, 588960, Note_on_c, 0, 62, 93
5, 589200, Note_on_c, 0, 62, 0
5, 589200, Note_on_c, 0, 63, 94
5, 589440, Note_on_c, 0, 63, 0
5, 589440, Note_on_c, 0, 67, 94
5, 589680, Note_on_c, 0, 67, 0
5, 589680, Note_on_c, 0, 39, 89
5, 589920, Note_on_c, 0, 43, 90
5, 589932, Note_on_c, 0, 39, 0
5, 590160, Note_on_c, 0, 46, 91
5, 590172, Note_on_c, 0, 43, 0
5, 590400, Note_on_c, 0, 50, 92
5, 590412, Note_on_c, 0, 46, 0
5, 590640, Note_on_c, 0, 49, 93
5, 590652, Note_on_c, 0, 50, 0
5, 590880, Note_on_c, 0, 46, 95
5, 590892, Note_on_c, 0, 49, 0
5, 591120, Note_on_c, 0, 48, 96
5, 591132, Note_on_c, 0, 46, 0
5, 591348, Note_on_c, 0, 48, 0
5, 591360, Note_on_c, 0, 44, 97
5, 591577, Note_on_c, 0, 44, 0
5, 591600, Note_on_c, 0, 43, 98
5, 591817, Note_on_c, 0, 43, 0
5, 591840, Note_on_c, 0, 44, 99
5, 592057, Note_on_c, 0, 44, 0
5, 592080, Note_on_c, 0, 41, 100
5, 592297, Note_on_c, 0, 41, 0
5, 592320, Note_on_c, 0, 37, 101
5, 592537, Note_on_c, 0, 37, 0
5, 592560, Note_on_c, 0, 39, 102
5, 592777, Note_on_c, 0, 39, 0
5, 592800, Note_on_c, 0, 39, 103
5, 593017, Note_on_c, 0, 39, 0
5, 593040, Note_on_c, 0, 32, 104
5, 593136, Note_on_c, 0, 32, 0
5, 593280, Note_on_c, 0, 44, 99
5, 593400, Note_on_c, 0, 44, 0
5, 593520, Note_on_c, 0, 60, 104
5, 593745, Note_on_c, 0, 60, 0
5, 593760, Note_on_c, 0, 61, 104
5, 593985, Note_on_c, 0, 61, 0
5, 594000, Note_on_c, 0, 58, 104
5, 594225, Note_on_c, 0, 58, 0
5, 594240, Note_on_c, 0, 60, 103
5, 594465, Note_on_c, 0, 60, 0
5, 594480, Note_on_c, 0, 56, 103
5, 594705, Note_on_c, 0, 56, 0
5, 594720, Note_on_c, 0, 58, 103
5, 594945, Note_on_c, 0, 58, 0
5, 594960, Note_on_c, 0, 51, 103
5, 595080, Note_on_c, 0, 51, 0
5, 595200, Note_on_c, 0, 51, 117
5, 595200, Note_on_c, 0, 39, 117
5, 595320, Note_on_c, 0, 39, 0
5, 595320, Note_on_c, 0, 51, 0
5, 595440, Note_on_c, 0, 63, 102
5, 595672, Note_on_c, 0, 63, 0
5, 595680, Note_on_c, 0, 60, 102
5, 595912, Note_on_c, 0, 60, 0
5, 595920, Note_on_c, 0, 62, 101
5, 596152, Note_on_c, 0, 62, 0
5, 596160, Note_on_c, 0, 59, 101
5, 596392, Note_on_c, 0, 59, 0
5, 596400, Note_on_c, 0, 60, 101
5, 596632, Note_on_c, 0, 60, 0
5, 596640, Note_on_c, 0, 57, 100
5, 596865, Note_on_c, 0, 57, 0
5, 596880, Note_on_c, 0, 58, 100
5, 597000, Note_on_c, 0, 58, 0
5, 597120, Note_on_c, 0, 58, 116
5, 597120, Note_on_c, 0, 46, 116
5, 597240, Note_on_c, 0, 46, 0
5, 597240, Note_on_c, 0, 58, 0
5, 597360, Note_on_c, 0, 61, 100
5, 597599, Note_on_c, 0, 61, 0
5, 597600, Note_on_c, 0, 63, 99
5, 597839, Note_on_c, 0, 63, 0
5, 597840, Note_on_c, 0, 60, 99
5, 598079, Note_on_c, 0, 60, 0
5, 598080, Note_on_c, 0, 61, 99
5, 598319, Note_on_c, 0, 61, 0
5, 598320, Note_on_c, 0, 58, 98
5, 598552, Note_on_c, 0, 58, 0
5, 598560, Note_on_c, 0, 60, 98
5, 598792, Note_on_c, 0, 60, 0
5, 598800, Note_on_c, 0, 53, 98
5, 598920, Note_on_c, 0, 53, 0
5, 599040, Note_on_c, 0, 53, 115
5, 599040, Note_on_c, 0, 41, 115
5, 599160, Note_on_c, 0, 41, 0
5, 599160, Note_on_c, 0, 53, 0
5, 599280, Note_on_c, 0, 65, 97
5, 599512, Note_on_c, 0, 65, 0
5, 599520, Note_on_c, 0, 62, 97
5, 599752, Note_on_c, 0, 62, 0
5, 599760, Note_on_c, 0, 63, 97
5, 599992, Note_on_c, 0, 63, 0
5, 600000, Note_on_c, 0, 60, 96
5, 600232, Note_on_c, 0, 60, 0
5, 600240, Note_on_c, 0, 62, 96
5, 600472, Note_on_c, 0, 62, 0
5, 600480, Note_on_c, 0, 59, 96
5, 600712, Note_on_c, 0, 59, 0
5, 600720, Note_on_c, 0, 60, 95
5, 600840, Note_on_c, 0, 60, 0
5, 600960, Note_on_c, 0, 45, 112
5, 601080, Note_on_c, 0, 45, 0
5, 601200, Note_on_c, 0, 46, 95
5, 601320, Note_on_c, 0, 46, 0
5, 601440, Note_on_c, 0, 58, 109
5, 601560, Note_on_c, 0, 58, 0
5, 601680, Note_on_c, 0, 43, 94
5, 601800, Note_on_c, 0, 43, 0
5, 601920, Note_on_c, 0, 55, 110
5, 602040, Note_on_c, 0, 55, 0
5, 602160, Note_on_c, 0, 44, 94
5, 602280, Note_on_c, 0, 44, 0
5, 602400, Note_on_c, 0, 56, 108
5, 602520, Note_on_c, 0, 56, 0
5, 602640, Note_on_c, 0, 39, 93
5, 602760, Note_on_c, 0, 39, 0
5, 602880, Note_on_c, 0, 51, 109
5, 603000, Note_on_c, 0, 51, 0
5, 603120, Note_on_c, 0, 49, 80
5, 603328, Note_on_c, 0, 49, 0
5, 603360, Note_on_c, 0, 46, 80
5, 603568, Note_on_c, 0, 46, 0
5, 603600, Note_on_c, 0, 49, 79
5, 603808, Note_on_c, 0, 49, 0
5, 603840, Note_on_c, 0, 46, 78
5, 604048, Note_on_c, 0, 46, 0
5, 604080, Note_on_c, 0, 49, 77
5, 604288, Note_on_c, 0, 49, 0
5, 604320, Note_on_c, 0, 46, 76
5, 604528, Note_on_c, 0, 46, 0
5, 604560, Note_on_c, 0, 49, 75
5, 604768, Note_on_c, 0, 49, 0
5, 604800, Note_on_c, 0, 46, 74
5, 605008, Note_on_c, 0, 46, 0
5, 605040, Note_on_c, 0, 49, 73
5, 605248, Note_on_c, 0, 49, 0
5, 605280, Note_on_c, 0, 46, 72
5, 605488, Note_on_c, 0, 46, 0
5, 605520, Note_on_c, 0, 49, 72
5, 605728, Note_on_c, 0, 49, 0
5, 605760, Note_on_c, 0, 46, 71
5, 605968, Note_on_c, 0, 46, 0
5, 606000, Note_on_c, 0, 49, 70
5, 606208, Note_on_c, 0, 49, 0
5, 606240, Note_on_c, 0, 46, 69
5, 606448, Note_on_c, 0, 46, 0
5, 606480, Note_on_c, 0, 49, 68
5, 606688, Note_on_c, 0, 49, 0
5, 606720, Note_on_c, 0, 46, 67
5, 606928, Note_on_c, 0, 46, 0
5, 607200, Note_on_c, 0, 39, 70
5, 607200, Note_on_c, 0, 51, 70
5, 607320, Note_on_c, 0, 51, 0
5, 607320, Note_on_c, 0, 39, 0
5, 607680, Note_on_c, 0, 55, 74
5, 607680, Note_on_c, 0, 43, 74
5, 607800, Note_on_c, 0, 43, 0
5, 607800, Note_on_c, 0, 55, 0
5, 608160, Note_on_c, 0, 46, 78
5, 608160, Note_on_c, 0, 58, 78
5, 608280, Note_on_c, 0, 58, 0
5, 608280, Note_on_c, 0, 46, 0
5, 608400, Note_on_c, 0, 55, 80
5, 608400, Note_on_c, 0, 43, 80
5, 608520, Note_on_c, 0, 43, 0
5, 608520, Note_on_c, 0, 55, 0
5, 608640, Note_on_c, 0, 39, 81
5, 608640, Note_on_c, 0, 51, 81
5, 608760, Note_on_c, 0, 51, 0
5, 608760, Note_on_c, 0, 39, 0
5, 609120, Note_on_c, 0, 51, 85
5, 609120, Note_on_c, 0, 39, 85
5, 609240, Note_on_c, 0, 39, 0
5, 609240, Note_on_c, 0, 51, 0
5, 609600, Note_on_c, 0, 55, 89
5, 609600, Note_on_c, 0, 43, 89
5, 609720, Note_on_c, 0, 43, 0
5, 609720, Note_on_c, 0, 55, 0
5, 610080, Note_on_c, 0, 58, 93
5, 610080, Note_on_c, 0, 46, 93
5, 610200, Note_on_c, 0, 46, 0
5, 610200, Note_on_c, 0, 58, 0
5, 610320, Note_on_c, 0, 43, 95
5, 610320, Note_on_c, 0, 55, 95
5, 610440, Note_on_c, 0, 55, 0
5, 610440, Note_on_c, 0, 43, 0
5, 610560, Note_on_c, 0, 51, 96
5, 610560, Note_on_c, 0, 39, 96
5, 610680, Note_on_c, 0, 39, 0
5, 610680, Note_on_c, 0, 51, 0
5, 611040, Note_on_c, 0, 46, 100
5, 611040, Note_on_c, 0, 58, 100
5, 611160, Note_on_c, 0, 58, 0
5, 611160, Note_on_c, 0, 46, 0
5, 611280, Note_on_c, 0, 43, 102
5, 611280, Note_on_c, 0, 55, 102
5, 611400, Note_on_c, 0, 55, 0
5, 611400, Note_on_c, 0, 43, 0
5, 611520, Note_on_c, 0, 39, 104
5, 611520, Note_on_c, 0, 51, 104
5, 611640, Note_on_c, 0, 51, 0
5, 611640, Note_on_c, 0, 39, 0
5, 612000, Note_on_c, 0, 39, 108
5, 612000, Note_on_c, 0, 51, 108
5, 612120, Note_on_c, 0, 51, 0
5, 612120, Note_on_c, 0, 39, 0
5, 612240, Note_on_c, 0, 44, 110
5, 612240, Note_on_c, 0, 56, 110
5, 612360, Note_on_c, 0, 56, 0
5, 612360, Note_on_c, 0, 44, 0
5, 612480, Note_on_c, 0, 36, 115
5, 612480, Note_on_c, 0, 48, 115
5, 613200, Note_on_c, 0, 48, 0
5, 613200, Note_on_c, 0, 36, 0
5, 613200, Note_on_c, 0, 37, 102
5, 613200, Note_on_c, 0, 49, 102
5, 613680, Note_on_c, 0, 49, 0
5, 613680, Note_on_c, 0, 37, 0
5, 613680, Note_on_c, 0, 39, 99
5, 613680, Note_on_c, 0, 51, 99
5, 614160, Note_on_c, 0, 51, 0
5, 614160, Note_on_c, 0, 39, 0
5, 614160, Note_on_c, 0, 41, 95
5, 614160, Note_on_c, 0, 53, 95
5, 614280, Note_on_c, 0, 53, 0
5, 614280, Note_on_c, 0, 41, 0
5, 614400, Note_on_c, 0, 48, 124
5, 614400, Note_on_c, 0, 36, 124
5, 615120, Note_on_c, 0, 36, 0
5, 615120, Note_on_c, 0, 48, 0
5, 615120, Note_on_c, 0, 49, 106
5, 615120, Note_on_c, 0, 37, 106
5, 615600, Note_on_c, 0, 37, 0
5, 615600, Note_on_c, 0, 49, 0
5, 615600, Note_on_c, 0, 51, 102
5, 615600, Note_on_c, 0, 39, 102
5, 616080, Note_on_c, 0, 39, 0
5, 616080, Note_on_c, 0, 51, 0
5, 616080, Note_on_c, 0, 53, 98
5, 616080, Note_on_c, 0, 41, 98
5, 616200, Note_on_c, 0, 41, 0
5, 616200, Note_on_c, 0, 53, 0
5, 616320, Note_on_c, 0, 36, 127
5, 616320, Note_on_c, 0, 48, 127
5, 617040, Note_on_c, 0, 48, 0
5, 617040, Note_on_c, 0, 36, 0
5, 617040, Note_on_c, 0, 37, 110
5, 617040, Note_on_c, 0, 49, 110
5, 617520, Note_on_c, 0, 49, 0
5, 617520, Note_on_c, 0, 37, 0
5, 617520, Note_on_c, 0, 39, 106
5, 617520, Note_on_c, 0, 51, 106
5, 618000, Note_on_c, 0, 51, 0
5, 618000, Note_on_c, 0, 39, 0
5, 618000, Control_c, 0, 64, 127
5, 618000, Note_on_c, 0, 32, 104
5, 618240, Note_on_c, 0, 44, 90
5, 619920, Note_on_c, 0, 44, 0
5, 619920, Note_on_c, 0, 32, 0
5, 619920, Note_on_c, 0, 32, 118
5, 620160, Note_on_c, 0, 44, 90
5, 621840, Note_on_c, 0, 44, 0
5, 621840, Note_on_c, 0, 32, 0
5, 621840, Note_on_c, 0, 32, 75
5, 622080, Note_on_c, 0, 44, 75
5, 623760, Note_on_c, 0, 44, 0
5, 623760, Note_on_c, 0, 32, 0
5, 623760, Note_on_c, 0, 32, 113
5, 624000, Note_on_c, 0, 44, 75
5, 625680, Note_on_c, 0, 44, 0
5, 625680, Note_on_c, 0, 32, 0
5, 625680, Note_on_c, 0, 32, 67
5, 625920, Note_on_c, 0, 44, 67
5, 627600, Note_on_c, 0, 44, 0
5, 627600, Note_on_c, 0, 32, 0
5, 627600, Note_on_c, 0, 32, 63
5, 627840, Note_on_c, 0, 44, 63
5, 629520, Note_on_c, 0, 44, 0
5, 629520, Note_on_c, 0, 32, 0
5, 629520, Note_on_c, 0, 44, 54
5, 629520, Note_on_c, 0, 32, 54
5, 630480, Note_on_c, 0, 32, 0
5, 630480, Note_on_c, 0, 44, 0
5, 631440, Note_on_c, 0, 44, 49
5, 631440, Note_on_c, 0, 32, 49
5, 632400, Note_on_c, 0, 44, 0
5, 633360, Note_on_c, 0, 32, 0
5, 633360, Control_c, 0, 64, 0
5, 633360, End_track
0, 0, End_of_file
