0, 0, Header, 1, 6, 480
1, 0, Start_track
1, 0, Title_t, "Untitled"
1, 0, Time_signature, 2, 2, 24, 8
1, 0, Key_signature, 0, "major"
1, 0, Tempo, 600000
1, 0, Marker_t, "Beethoven"
1, 960, Tempo, 1500000
1, 960, Marker_t, "Piano Sonata No.24"
1, 1800, Tempo, 1578947
1, 1920, Tempo, 1428571
1, 1920, Marker_t, "hisamori@bekkoame.or.jp"
1, 2415, Tempo, 1578947
1, 2820, Tempo, 1666667
1, 2880, Marker_t, "Mail in English only"
1, 3240, Tempo, 1764706
1, 3367, Tempo, 1818182
1, 3720, Tempo, 2068966
1, 3840, Marker_t, "Feb. 1998"
1, 3960, Tempo, 2222222
1, 4020, Tempo, 2400000
1, 4320, Tempo, 454545
1, 4800, Marker_t, "Thanks!"
1, 5760, Time_signature, 4, 2, 24, 8
1, 7200, Tempo, 508475
1, 7200, Marker_t, "Allrgro, ma non troppo"
1, 7680, Tempo, 500000
1, 9480, Tempo, 508475
1, 9600, Tempo, 500000
1, 13320, Tempo, 504202
1, 14760, Tempo, 517241
1, 14880, Tempo, 500000
1, 16680, Tempo, 508475
1, 16800, Tempo, 500000
1, 18600, Tempo, 508475
1, 18720, Tempo, 500000
1, 22920, Tempo, 508475
1, 23040, Tempo, 500000
1, 26760, Tempo, 508475
1, 26880, Tempo, 500000
1, 29640, Tempo, 508475
1, 29760, Tempo, 500000
1, 31560, Tempo, 508475
1, 32520, Tempo, 526316
1, 32640, Tempo, 508475
1, 35940, Tempo, 512821
1, 36360, Tempo, 517241
1, 36480, Tempo, 500000
1, 40200, Tempo, 508475
1, 40320, Tempo, 500000
1, 44040, Tempo, 508475
1, 44160, Tempo, 500000
1, 47955, Tempo, 504202
1, 48000, Tempo, 500000
1, 49860, Tempo, 504202
1, 51600, Tempo, 508475
1, 51720, Tempo, 517241
1, 51840, Tempo, 517241
1, 52800, Tempo, 508475
1, 56040, Tempo, 517241
1, 56160, Tempo, 508475
1, 58440, Tempo, 517241
1, 60360, Tempo, 526316
1, 60480, Tempo, 508475
1, 62280, Tempo, 517241
1, 64200, Tempo, 526316
1, 64320, Tempo, 508475
1, 71880, Tempo, 517241
1, 72360, Tempo, 526316
1, 72480, Tempo, 508475
1, 72900, Tempo, 517241
1, 72960, Tempo, 500000
1, 74760, Tempo, 508475
1, 74880, Tempo, 500000
1, 78660, Tempo, 504202
1, 80040, Tempo, 517241
1, 80160, Tempo, 500000
1, 81960, Tempo, 508475
1, 82080, Tempo, 500000
1, 83880, Tempo, 508475
1, 84000, Tempo, 500000
1, 88200, Tempo, 508475
1, 88320, Tempo, 500000
1, 92040, Tempo, 508475
1, 92160, Tempo, 500000
1, 94920, Tempo, 508475
1, 95040, Tempo, 500000
1, 96840, Tempo, 508475
1, 97800, Tempo, 526316
1, 97920, Tempo, 508475
1, 101220, Tempo, 517241
1, 101640, Tempo, 517241
1, 101760, Tempo, 500000
1, 105480, Tempo, 508475
1, 105600, Tempo, 500000
1, 109320, Tempo, 508475
1, 109440, Tempo, 500000
1, 113220, Tempo, 504202
1, 113280, Tempo, 500000
1, 115140, Tempo, 504202
1, 116880, Tempo, 508475
1, 117000, Tempo, 517241
1, 117120, Tempo, 517241
1, 118080, Tempo, 508475
1, 121320, Tempo, 517241
1, 121440, Tempo, 508475
1, 123720, Tempo, 517241
1, 125640, Tempo, 526316
1, 125760, Tempo, 508475
1, 127560, Tempo, 517241
1, 129480, Tempo, 526316
1, 129600, Tempo, 508475
1, 137160, Tempo, 517241
1, 137640, Tempo, 526316
1, 138000, Tempo, 535714
1, 138120, Tempo, 550459
1, 138240, Tempo, 500000
1, 140040, Tempo, 508475
1, 140160, Tempo, 500000
1, 142020, Tempo, 508475
1, 142080, Tempo, 500000
1, 143940, Tempo, 508475
1, 144000, Tempo, 500000
1, 146280, Tempo, 508475
1, 146400, Tempo, 500000
1, 147720, Tempo, 508475
1, 147840, Tempo, 500000
1, 149700, Tempo, 508475
1, 149760, Tempo, 500000
1, 165540, Tempo, 504202
1, 165600, Tempo, 500000
1, 167940, Tempo, 504202
1, 168720, Tempo, 508475
1, 168840, Tempo, 526316
1, 168960, Tempo, 508475
1, 170820, Tempo, 508475
1, 170880, Tempo, 500000
1, 172560, Tempo, 517241
1, 172680, Tempo, 535714
1, 172800, Tempo, 500000
1, 174586, Tempo, 508475
1, 174735, Tempo, 500000
1, 178500, Tempo, 504202
1, 179866, Tempo, 517241
1, 180016, Tempo, 500000
1, 181786, Tempo, 508475
1, 181906, Tempo, 500000
1, 183706, Tempo, 508475
1, 183826, Tempo, 500000
1, 185626, Tempo, 508475
1, 185746, Tempo, 500000
1, 187546, Tempo, 508475
1, 187666, Tempo, 500000
1, 191866, Tempo, 508475
1, 191986, Tempo, 500000
1, 195706, Tempo, 508475
1, 195826, Tempo, 500000
1, 199546, Tempo, 508475
1, 199666, Tempo, 500000
1, 203386, Tempo, 508475
1, 203506, Tempo, 500000
1, 205306, Tempo, 508475
1, 205426, Tempo, 500000
1, 208186, Tempo, 508475
1, 208306, Tempo, 500000
1, 210106, Tempo, 508475
1, 211066, Tempo, 526316
1, 211200, Tempo, 508475
1, 214500, Tempo, 504202
1, 214906, Tempo, 517241
1, 215055, Tempo, 500000
1, 218820, Tempo, 508475
1, 218880, Tempo, 500000
1, 222660, Tempo, 508475
1, 222720, Tempo, 500000
1, 226500, Tempo, 504202
1, 226560, Tempo, 500000
1, 228420, Tempo, 504202
1, 230146, Tempo, 508475
1, 230266, Tempo, 517241
1, 230386, Tempo, 508475
1, 230866, Tempo, 517241
1, 231346, Tempo, 508475
1, 234586, Tempo, 517241
1, 234706, Tempo, 508475
1, 236986, Tempo, 517241
1, 238906, Tempo, 526316
1, 239026, Tempo, 508475
1, 240826, Tempo, 517241
1, 242746, Tempo, 526316
1, 242866, Tempo, 508475
1, 251446, Tempo, 508475
1, 251535, Tempo, 500000
1, 253366, Tempo, 508475
1, 253455, Tempo, 500000
1, 258106, Tempo, 508475
1, 258226, Tempo, 500000
1, 264706, Tempo, 508475
1, 264826, Tempo, 526316
1, 265440, Tempo, 674157
1, 266880, Time_signature, 2, 2, 24, 8
1, 266880, Tempo, 1071429
1, 266880, Marker_t, "<2>"
1, 267840, Tempo, 377358
1, 268560, Tempo, 379747
1, 268800, Tempo, 384615
1, 269640, Tempo, 389610
1, 271200, Tempo, 408163
1, 271680, Tempo, 377358
1, 272400, Tempo, 379747
1, 272640, Tempo, 384615
1, 273540, Tempo, 389610
1, 275040, Tempo, 408163
1, 275520, Tempo, 377358
1, 276240, Tempo, 379747
1, 276480, Tempo, 384615
1, 277380, Tempo, 389610
1, 278340, Tempo, 394737
1, 278520, Tempo, 377358
1, 282120, Tempo, 379747
1, 282350, Tempo, 372671
1, 287750, Tempo, 379747
1, 287880, Tempo, 384615
1, 288000, Tempo, 394737
1, 288230, Tempo, 379747
1, 288360, Tempo, 377358
1, 297000, Tempo, 379747
1, 297240, Tempo, 384615
1, 297360, Tempo, 413793
1, 297480, Tempo, 600000
1, 297600, Tempo, 377358
1, 298320, Tempo, 379747
1, 298560, Tempo, 384615
1, 299460, Tempo, 389610
1, 300960, Tempo, 408163
1, 301440, Tempo, 377358
1, 302160, Tempo, 379747
1, 302400, Tempo, 384615
1, 303300, Tempo, 389610
1, 304800, Tempo, 408163
1, 305280, Tempo, 377358
1, 306020, Tempo, 379747
1, 306240, Tempo, 384615
1, 307140, Tempo, 389610
1, 308100, Tempo, 394737
1, 308280, Tempo, 377358
1, 311880, Tempo, 377358
1, 312130, Tempo, 372671
1, 315660, Tempo, 379747
1, 315720, Tempo, 384615
1, 315840, Tempo, 394737
1, 316080, Tempo, 379747
1, 316200, Tempo, 377358
1, 321360, Tempo, 379747
1, 321480, Tempo, 389610
1, 321740, Tempo, 377358
1, 323400, Tempo, 379747
1, 323520, Tempo, 394737
1, 323760, Tempo, 377358
1, 325320, Tempo, 379747
1, 325540, Tempo, 377358
1, 327240, Tempo, 379747
1, 327360, Tempo, 394737
1, 327600, Tempo, 377358
1, 329160, Tempo, 379747
1, 329400, Tempo, 377358
1, 333000, Tempo, 379747
1, 333240, Tempo, 377358
1, 336840, Tempo, 379747
1, 337560, Tempo, 384615
1, 337680, Tempo, 394737
1, 337800, Tempo, 428571
1, 337920, Tempo, 461538
1, 338650, Tempo, 379747
1, 338760, Tempo, 377358
1, 351960, Tempo, 379747
1, 352080, Tempo, 402685
1, 352200, Tempo, 540541
1, 352320, Tempo, 377358
1, 353060, Tempo, 379747
1, 353280, Tempo, 384615
1, 354180, Tempo, 389610
1, 355680, Tempo, 408163
1, 356160, Tempo, 377358
1, 356890, Tempo, 379747
1, 357120, Tempo, 384615
1, 358020, Tempo, 389610
1, 359520, Tempo, 408163
1, 360000, Tempo, 377358
1, 360710, Tempo, 379747
1, 360960, Tempo, 384615
1, 361860, Tempo, 389610
1, 362760, Tempo, 394737
1, 362990, Tempo, 377358
1, 366600, Tempo, 379747
1, 366850, Tempo, 377358
1, 372360, Tempo, 379747
1, 372480, Tempo, 394737
1, 372710, Tempo, 379747
1, 372840, Tempo, 377358
1, 378000, Tempo, 379747
1, 378120, Tempo, 384615
1, 378360, Tempo, 377358
1, 380040, Tempo, 379747
1, 380160, Tempo, 394737
1, 380390, Tempo, 377358
1, 381960, Tempo, 379747
1, 382220, Tempo, 377358
1, 383880, Tempo, 379747
1, 384000, Tempo, 394737
1, 384250, Tempo, 377358
1, 385800, Tempo, 379747
1, 386040, Tempo, 377358
1, 389640, Tempo, 379747
1, 389890, Tempo, 377358
1, 394200, Tempo, 379747
1, 394320, Tempo, 389610
1, 394440, Tempo, 413793
1, 394560, Tempo, 461538
1, 395280, Tempo, 379747
1, 395400, Tempo, 377358
1, 410520, Tempo, 379747
1, 410640, Tempo, 394737
1, 410760, Tempo, 540541
1, 410880, Tempo, 377358
1, 411600, Tempo, 379747
1, 411840, Tempo, 384615
1, 412740, Tempo, 389610
1, 414240, Tempo, 408163
1, 414720, Tempo, 377358
1, 415450, Tempo, 379747
1, 415680, Tempo, 384615
1, 416580, Tempo, 389610
1, 418080, Tempo, 408163
1, 418560, Tempo, 377358
1, 419300, Tempo, 379747
1, 419520, Tempo, 384615
1, 420420, Tempo, 389610
1, 432840, Tempo, 394737
1, 433020, Tempo, 384615
1, 433440, Tempo, 402685
1, 433920, Tempo, 413793
1, 434280, Tempo, 434783
1, 434400, Tempo, 461538
1, 434640, Tempo, 526316
1, 434880, Tempo, 389610
1, 437760, Tempo, 408163
1, 438720, Tempo, 408163
1, 438840, Tempo, 402685
1, 441840, Tempo, 408163
1, 441980, Tempo, 419580
1, 442080, Tempo, 588235
1, 442560, Tempo, 750000
1, 443520, Tempo, 379747
1, 443640, Tempo, 377358
1, 445320, Tempo, 379747
1, 445500, Tempo, 377358
1, 447240, Tempo, 379747
1, 447960, Tempo, 384615
1, 448080, Tempo, 394737
1, 448200, Tempo, 582524
1, 448320, Tempo, 895522
1, 448320, End_track
2, 0, Start_track
2, 0, Title_t, "Beethoven"
2, 0, Control_c, 0, 0, 0
2, 0, Control_c, 0, 7, 115
2, 0, Control_c, 0, 10, 79
2, 0, Control_c, 0, 91, 91
2, 0, Control_c, 0, 93, 28
2, 0, Pitch_bend_c, 0, 8192
2, 0, Control_c, 0, 1, 0
2, 0, Control_c, 0, 64, 0
2, 1, Control_c, 0, 32, 0
2, 1, Program_c, 0, 0
2, 960, Note_on_c, 0, 61, 57
2, 1440, Note_on_c, 0, 61, 0
2, 1440, Note_on_c, 0, 66, 59
2, 1800, Note_on_c, 0, 66, 0
2, 1800, Note_on_c, 0, 68, 60
2, 1920, Note_on_c, 0, 68, 0
2, 1920, Note_on_c, 0, 68, 61
2, 2400, Note_on_c, 0, 68, 0
2, 2400, Note_on_c, 0, 70, 62
2, 2616, Note_on_c, 0, 70, 0
2, 2640, Note_on_c, 0, 70, 63
2, 2880, Note_on_c, 0, 70, 0
2, 2880, Note_on_c, 0, 71, 65
2, 3000, Note_on_c, 0, 71, 0
2, 3000, Note_on_c, 0, 73, 66
2, 3040, Note_on_c, 0, 73, 0
2, 3040, Note_on_c, 0, 71, 66
2, 3080, Note_on_c, 0, 71, 0
2, 3080, Note_on_c, 0, 70, 66
2, 3120, Note_on_c, 0, 70, 0
2, 3120, Note_on_c, 0, 71, 66
2, 3240, Note_on_c, 0, 71, 0
2, 3240, Note_on_c, 0, 73, 67
2, 3360, Note_on_c, 0, 73, 0
2, 3360, Note_on_c, 0, 75, 68
2, 3684, Note_on_c, 0, 75, 0
2, 3720, Note_on_c, 0, 73, 65
2, 3828, Note_on_c, 0, 73, 0
2, 3840, Note_on_c, 0, 71, 62
2, 3894, Note_on_c, 0, 71, 0
2, 3900, Note_on_c, 0, 70, 60
2, 3954, Note_on_c, 0, 70, 0
2, 3960, Note_on_c, 0, 75, 59
2, 4014, Note_on_c, 0, 75, 0
2, 4020, Note_on_c, 0, 73, 57
2, 4074, Note_on_c, 0, 73, 0
2, 4080, Note_on_c, 0, 73, 55
2, 7080, Note_on_c, 0, 73, 0
2, 7200, Note_on_c, 0, 70, 57
2, 7560, Note_on_c, 0, 70, 0
2, 7560, Note_on_c, 0, 71, 59
2, 7680, Note_on_c, 0, 71, 0
2, 7680, Note_on_c, 0, 73, 61
2, 8160, Note_on_c, 0, 73, 0
2, 8160, Note_on_c, 0, 66, 57
2, 8640, Note_on_c, 0, 66, 0
2, 8640, Note_on_c, 0, 65, 60
2, 9120, Note_on_c, 0, 65, 0
2, 9120, Note_on_c, 0, 66, 63
2, 9600, Note_on_c, 0, 66, 0
2, 9600, Note_on_c, 0, 71, 66
2, 11040, Note_on_c, 0, 71, 0
2, 11040, Note_on_c, 0, 68, 59
2, 11520, Note_on_c, 0, 68, 0
2, 11520, Note_on_c, 0, 70, 59
2, 12000, Note_on_c, 0, 70, 0
2, 12000, Note_on_c, 0, 75, 61
2, 12480, Note_on_c, 0, 75, 0
2, 12480, Note_on_c, 0, 73, 64
2, 12960, Note_on_c, 0, 73, 0
2, 12960, Note_on_c, 0, 78, 66
2, 13440, Note_on_c, 0, 78, 0
2, 13440, Note_on_c, 0, 77, 70
2, 13920, Note_on_c, 0, 77, 0
2, 13920, Note_on_c, 0, 75, 66
2, 14400, Note_on_c, 0, 75, 0
2, 14400, Note_on_c, 0, 73, 61
2, 14880, Note_on_c, 0, 73, 0
2, 14880, Note_on_c, 0, 70, 57
2, 15000, Note_on_c, 0, 70, 0
2, 15000, Note_on_c, 0, 71, 57
2, 15120, Note_on_c, 0, 71, 0
2, 15120, Note_on_c, 0, 70, 58
2, 15240, Note_on_c, 0, 70, 0
2, 15240, Note_on_c, 0, 66, 58
2, 15360, Note_on_c, 0, 66, 0
2, 15360, Note_on_c, 0, 71, 58
2, 15480, Note_on_c, 0, 71, 0
2, 15480, Note_on_c, 0, 73, 59
2, 15600, Note_on_c, 0, 73, 0
2, 15600, Note_on_c, 0, 71, 59
2, 15720, Note_on_c, 0, 71, 0
2, 15720, Note_on_c, 0, 68, 59
2, 15840, Note_on_c, 0, 68, 0
2, 15840, Note_on_c, 0, 65, 60
2, 16320, Note_on_c, 0, 65, 0
2, 16800, Note_on_c, 0, 71, 62
2, 16920, Note_on_c, 0, 71, 0
2, 16920, Note_on_c, 0, 73, 63
2, 17040, Note_on_c, 0, 73, 0
2, 17040, Note_on_c, 0, 71, 63
2, 17160, Note_on_c, 0, 71, 0
2, 17160, Note_on_c, 0, 68, 63
2, 17280, Note_on_c, 0, 68, 0
2, 17280, Note_on_c, 0, 73, 64
2, 17400, Note_on_c, 0, 73, 0
2, 17400, Note_on_c, 0, 75, 64
2, 17520, Note_on_c, 0, 75, 0
2, 17520, Note_on_c, 0, 73, 64
2, 17640, Note_on_c, 0, 73, 0
2, 17640, Note_on_c, 0, 70, 65
2, 17760, Note_on_c, 0, 70, 0
2, 17760, Note_on_c, 0, 66, 65
2, 18240, Note_on_c, 0, 66, 0
2, 18720, Note_on_c, 0, 78, 68
2, 18880, Note_on_c, 0, 78, 0
2, 18880, Note_on_c, 0, 77, 68
2, 19040, Note_on_c, 0, 77, 0
2, 19040, Note_on_c, 0, 75, 69
2, 19200, Note_on_c, 0, 75, 0
2, 19200, Note_on_c, 0, 73, 69
2, 19360, Note_on_c, 0, 73, 0
2, 19360, Note_on_c, 0, 71, 70
2, 19520, Note_on_c, 0, 71, 0
2, 19520, Note_on_c, 0, 70, 70
2, 19680, Note_on_c, 0, 70, 0
2, 19680, Note_on_c, 0, 68, 71
2, 19840, Note_on_c, 0, 68, 0
2, 19840, Note_on_c, 0, 66, 71
2, 20000, Note_on_c, 0, 66, 0
2, 20000, Note_on_c, 0, 65, 72
2, 20160, Note_on_c, 0, 65, 0
2, 20160, Note_on_c, 0, 63, 72
2, 20320, Note_on_c, 0, 63, 0
2, 20320, Note_on_c, 0, 61, 72
2, 20480, Note_on_c, 0, 61, 0
2, 20480, Note_on_c, 0, 60, 73
2, 20640, Note_on_c, 0, 60, 0
2, 20640, Note_on_c, 0, 61, 73
2, 20800, Note_on_c, 0, 61, 0
2, 20800, Note_on_c, 0, 63, 74
2, 20960, Note_on_c, 0, 63, 0
2, 20960, Note_on_c, 0, 65, 74
2, 21120, Note_on_c, 0, 65, 0
2, 21120, Note_on_c, 0, 66, 68
2, 21600, Note_on_c, 0, 66, 0
2, 21600, Note_on_c, 0, 68, 64
2, 22080, Note_on_c, 0, 68, 0
2, 22080, Note_on_c, 0, 70, 60
2, 22560, Note_on_c, 0, 70, 0
2, 23040, Note_on_c, 0, 70, 59
2, 23520, Note_on_c, 0, 70, 0
2, 24000, Note_on_c, 0, 71, 62
2, 24480, Note_on_c, 0, 71, 0
2, 24960, Note_on_c, 0, 68, 66
2, 25440, Note_on_c, 0, 68, 0
2, 25440, Note_on_c, 0, 70, 64
2, 25920, Note_on_c, 0, 70, 0
2, 25920, Note_on_c, 0, 71, 60
2, 26400, Note_on_c, 0, 71, 0
2, 26880, Note_on_c, 0, 71, 61
2, 27360, Note_on_c, 0, 71, 0
2, 27840, Note_on_c, 0, 73, 65
2, 28320, Note_on_c, 0, 73, 0
2, 28800, Note_on_c, 0, 70, 70
2, 29280, Note_on_c, 0, 70, 0
2, 29280, Note_on_c, 0, 73, 65
2, 29400, Note_on_c, 0, 73, 0
2, 29400, Note_on_c, 0, 75, 69
2, 29520, Note_on_c, 0, 75, 0
2, 29520, Note_on_c, 0, 73, 72
2, 29640, Note_on_c, 0, 73, 0
2, 29640, Note_on_c, 0, 70, 75
2, 29760, Note_on_c, 0, 70, 0
2, 29760, Note_on_c, 0, 78, 82
2, 31200, Note_on_c, 0, 78, 0
2, 31200, Note_on_c, 0, 77, 77
2, 31320, Note_on_c, 0, 77, 0
2, 31320, Note_on_c, 0, 78, 78
2, 31360, Note_on_c, 0, 78, 0
2, 31360, Note_on_c, 0, 77, 79
2, 31400, Note_on_c, 0, 77, 0
2, 31400, Note_on_c, 0, 75, 79
2, 31440, Note_on_c, 0, 75, 0
2, 31440, Note_on_c, 0, 77, 80
2, 31560, Note_on_c, 0, 77, 0
2, 31560, Note_on_c, 0, 78, 81
2, 31680, Note_on_c, 0, 78, 0
2, 31680, Note_on_c, 0, 80, 83
2, 32160, Note_on_c, 0, 80, 0
2, 32160, Note_on_c, 0, 77, 75
2, 32640, Note_on_c, 0, 77, 0
2, 32640, Note_on_c, 0, 74, 70
2, 32760, Note_on_c, 0, 83, 70
2, 32880, Note_on_c, 0, 83, 0
2, 32880, Note_on_c, 0, 82, 70
2, 33000, Note_on_c, 0, 82, 0
2, 33000, Note_on_c, 0, 74, 0
2, 33000, Note_on_c, 0, 74, 70
2, 33120, Note_on_c, 0, 74, 0
2, 33120, Note_on_c, 0, 74, 70
2, 33240, Note_on_c, 0, 83, 70
2, 33360, Note_on_c, 0, 83, 0
2, 33360, Note_on_c, 0, 82, 70
2, 33480, Note_on_c, 0, 82, 0
2, 33480, Note_on_c, 0, 74, 0
2, 33480, Note_on_c, 0, 74, 69
2, 33600, Note_on_c, 0, 74, 0
2, 33600, Note_on_c, 0, 74, 69
2, 33720, Note_on_c, 0, 83, 69
2, 33840, Note_on_c, 0, 83, 0
2, 33840, Note_on_c, 0, 82, 69
2, 33960, Note_on_c, 0, 82, 0
2, 33960, Note_on_c, 0, 74, 0
2, 33960, Note_on_c, 0, 74, 69
2, 34080, Note_on_c, 0, 74, 0
2, 34080, Note_on_c, 0, 74, 69
2, 34200, Note_on_c, 0, 83, 69
2, 34320, Note_on_c, 0, 83, 0
2, 34320, Note_on_c, 0, 82, 69
2, 34440, Note_on_c, 0, 82, 0
2, 34440, Note_on_c, 0, 74, 0
2, 34440, Note_on_c, 0, 74, 68
2, 34560, Note_on_c, 0, 74, 0
2, 34560, Note_on_c, 0, 75, 68
2, 34680, Note_on_c, 0, 83, 68
2, 34800, Note_on_c, 0, 83, 0
2, 34800, Note_on_c, 0, 82, 68
2, 34920, Note_on_c, 0, 82, 0
2, 34920, Note_on_c, 0, 75, 0
2, 34920, Note_on_c, 0, 75, 68
2, 35040, Note_on_c, 0, 75, 0
2, 35040, Note_on_c, 0, 77, 68
2, 35160, Note_on_c, 0, 83, 68
2, 35280, Note_on_c, 0, 83, 0
2, 35280, Note_on_c, 0, 82, 68
2, 35400, Note_on_c, 0, 82, 0
2, 35400, Note_on_c, 0, 77, 0
2, 35400, Note_on_c, 0, 77, 67
2, 35520, Note_on_c, 0, 77, 0
2, 35520, Note_on_c, 0, 78, 67
2, 35640, Note_on_c, 0, 83, 67
2, 35760, Note_on_c, 0, 83, 0
2, 35760, Note_on_c, 0, 82, 67
2, 35880, Note_on_c, 0, 82, 0
2, 35880, Note_on_c, 0, 78, 0
2, 35880, Note_on_c, 0, 78, 67
2, 36000, Note_on_c, 0, 78, 0
2, 36000, Control_c, 0, 64, 127
2, 36000, Note_on_c, 0, 87, 67
2, 36120, Note_on_c, 0, 87, 0
2, 36120, Note_on_c, 0, 82, 67
2, 36240, Note_on_c, 0, 82, 0
2, 36240, Note_on_c, 0, 78, 67
2, 36360, Note_on_c, 0, 78, 0
2, 36360, Note_on_c, 0, 75, 67
2, 36480, Note_on_c, 0, 75, 0
2, 36480, Control_c, 0, 64, 0
2, 36480, Note_on_c, 0, 84, 66
2, 36840, Note_on_c, 0, 84, 0
2, 36840, Note_on_c, 0, 84, 66
2, 36960, Note_on_c, 0, 84, 0
2, 36960, Note_on_c, 0, 87, 66
2, 37320, Note_on_c, 0, 87, 0
2, 37320, Note_on_c, 0, 85, 66
2, 37440, Note_on_c, 0, 85, 0
2, 37440, Note_on_c, 0, 84, 65
2, 37800, Note_on_c, 0, 84, 0
2, 37800, Note_on_c, 0, 84, 65
2, 37920, Note_on_c, 0, 84, 0
2, 37920, Note_on_c, 0, 87, 65
2, 38280, Note_on_c, 0, 87, 0
2, 38280, Note_on_c, 0, 85, 65
2, 38400, Note_on_c, 0, 85, 0
2, 38400, Note_on_c, 0, 84, 64
2, 38760, Note_on_c, 0, 84, 0
2, 38760, Note_on_c, 0, 84, 64
2, 38880, Note_on_c, 0, 84, 0
2, 38880, Note_on_c, 0, 85, 64
2, 39240, Note_on_c, 0, 85, 0
2, 39240, Note_on_c, 0, 85, 64
2, 39360, Note_on_c, 0, 85, 0
2, 39360, Note_on_c, 0, 80, 63
2, 39720, Note_on_c, 0, 80, 0
2, 39720, Note_on_c, 0, 80, 63
2, 39840, Note_on_c, 0, 80, 0
2, 39840, Note_on_c, 0, 82, 63
2, 40200, Note_on_c, 0, 82, 0
2, 40200, Note_on_c, 0, 82, 63
2, 40320, Note_on_c, 0, 82, 0
2, 40320, Note_on_c, 0, 84, 62
2, 40680, Note_on_c, 0, 84, 0
2, 40680, Note_on_c, 0, 84, 62
2, 40800, Note_on_c, 0, 84, 0
2, 40800, Note_on_c, 0, 87, 62
2, 41160, Note_on_c, 0, 87, 0
2, 41160, Note_on_c, 0, 85, 62
2, 41280, Note_on_c, 0, 85, 0
2, 41280, Note_on_c, 0, 84, 62
2, 41640, Note_on_c, 0, 84, 0
2, 41640, Note_on_c, 0, 84, 61
2, 41760, Note_on_c, 0, 84, 0
2, 41760, Note_on_c, 0, 87, 61
2, 42120, Note_on_c, 0, 87, 0
2, 42120, Note_on_c, 0, 85, 61
2, 42240, Note_on_c, 0, 85, 0
2, 42240, Note_on_c, 0, 84, 61
2, 42600, Note_on_c, 0, 84, 0
2, 42600, Note_on_c, 0, 84, 60
2, 42720, Note_on_c, 0, 84, 0
2, 42720, Note_on_c, 0, 87, 60
2, 43080, Note_on_c, 0, 87, 0
2, 43080, Note_on_c, 0, 87, 60
2, 43200, Note_on_c, 0, 87, 0
2, 43200, Note_on_c, 0, 80, 60
2, 43560, Note_on_c, 0, 80, 0
2, 43560, Note_on_c, 0, 80, 59
2, 43680, Note_on_c, 0, 80, 0
2, 43680, Note_on_c, 0, 82, 59
2, 44040, Note_on_c, 0, 82, 0
2, 44040, Note_on_c, 0, 82, 59
2, 44160, Note_on_c, 0, 82, 0
2, 44160, Note_on_c, 0, 84, 59
2, 44520, Note_on_c, 0, 84, 0
2, 44520, Note_on_c, 0, 84, 62
2, 44640, Note_on_c, 0, 84, 0
2, 44640, Note_on_c, 0, 85, 63
2, 45000, Note_on_c, 0, 85, 0
2, 45000, Note_on_c, 0, 85, 66
2, 45120, Note_on_c, 0, 85, 0
2, 45120, Note_on_c, 0, 85, 67
2, 45480, Note_on_c, 0, 85, 0
2, 45480, Note_on_c, 0, 85, 69
2, 45600, Note_on_c, 0, 85, 0
2, 45600, Note_on_c, 0, 85, 70
2, 45960, Note_on_c, 0, 85, 0
2, 45960, Note_on_c, 0, 85, 73
2, 46080, Note_on_c, 0, 85, 0
2, 46080, Note_on_c, 0, 85, 74
2, 46440, Note_on_c, 0, 85, 0
2, 46440, Note_on_c, 0, 85, 77
2, 46560, Note_on_c, 0, 85, 0
2, 46560, Note_on_c, 0, 85, 78
2, 46920, Note_on_c, 0, 85, 0
2, 46920, Note_on_c, 0, 85, 81
2, 47040, Note_on_c, 0, 85, 0
2, 47040, Note_on_c, 0, 85, 82
2, 47400, Note_on_c, 0, 85, 0
2, 47400, Note_on_c, 0, 85, 85
2, 47520, Note_on_c, 0, 85, 0
2, 47520, Note_on_c, 0, 85, 86
2, 47880, Note_on_c, 0, 85, 0
2, 47880, Note_on_c, 0, 85, 89
2, 48000, Note_on_c, 0, 85, 0
2, 48000, Note_on_c, 0, 85, 90
2, 48360, Note_on_c, 0, 85, 0
2, 48360, Note_on_c, 0, 85, 93
2, 48480, Note_on_c, 0, 85, 0
2, 48480, Note_on_c, 0, 85, 94
2, 48840, Note_on_c, 0, 85, 0
2, 48840, Note_on_c, 0, 85, 97
2, 48960, Note_on_c, 0, 85, 0
2, 48960, Note_on_c, 0, 85, 98
2, 49320, Note_on_c, 0, 85, 0
2, 49320, Note_on_c, 0, 85, 101
2, 49440, Note_on_c, 0, 85, 0
2, 49440, Note_on_c, 0, 85, 102
2, 49800, Note_on_c, 0, 85, 0
2, 49800, Note_on_c, 0, 85, 105
2, 49920, Note_on_c, 0, 85, 0
2, 49920, Note_on_c, 0, 85, 107
2, 50280, Note_on_c, 0, 85, 0
2, 50280, Note_on_c, 0, 85, 108
2, 50400, Note_on_c, 0, 85, 0
2, 50400, Note_on_c, 0, 85, 108
2, 50760, Note_on_c, 0, 85, 0
2, 50760, Note_on_c, 0, 85, 110
2, 50880, Note_on_c, 0, 85, 0
2, 50880, Note_on_c, 0, 84, 110
2, 51240, Note_on_c, 0, 84, 0
2, 51240, Note_on_c, 0, 84, 112
2, 51360, Note_on_c, 0, 84, 0
2, 51360, Note_on_c, 0, 84, 112
2, 51720, Note_on_c, 0, 84, 0
2, 51720, Note_on_c, 0, 84, 112
2, 51840, Note_on_c, 0, 84, 0
2, 51840, Note_on_c, 0, 85, 110
2, 52320, Note_on_c, 0, 85, 0
2, 52800, Note_on_c, 0, 77, 63
2, 52960, Note_on_c, 0, 77, 0
2, 52960, Note_on_c, 0, 73, 63
2, 53120, Note_on_c, 0, 73, 0
2, 53120, Note_on_c, 0, 68, 64
2, 53280, Note_on_c, 0, 68, 0
2, 53280, Note_on_c, 0, 70, 65
2, 53440, Note_on_c, 0, 70, 0
2, 53440, Note_on_c, 0, 73, 65
2, 53600, Note_on_c, 0, 73, 0
2, 53600, Note_on_c, 0, 70, 66
2, 53760, Note_on_c, 0, 70, 0
2, 53760, Note_on_c, 0, 68, 67
2, 53920, Note_on_c, 0, 68, 0
2, 53920, Note_on_c, 0, 73, 67
2, 54080, Note_on_c, 0, 73, 0
2, 54080, Note_on_c, 0, 75, 68
2, 54240, Note_on_c, 0, 75, 0
2, 54240, Note_on_c, 0, 77, 68
2, 54400, Note_on_c, 0, 77, 0
2, 54400, Note_on_c, 0, 73, 69
2, 54560, Note_on_c, 0, 73, 0
2, 54560, Note_on_c, 0, 80, 70
2, 54720, Note_on_c, 0, 80, 0
2, 54720, Note_on_c, 0, 77, 70
2, 54880, Note_on_c, 0, 77, 0
2, 54880, Note_on_c, 0, 73, 68
2, 55040, Note_on_c, 0, 73, 0
2, 55040, Note_on_c, 0, 68, 67
2, 55200, Note_on_c, 0, 68, 0
2, 55200, Note_on_c, 0, 66, 66
2, 55360, Note_on_c, 0, 66, 0
2, 55360, Note_on_c, 0, 63, 65
2, 55520, Note_on_c, 0, 63, 0
2, 55520, Note_on_c, 0, 68, 65
2, 55680, Note_on_c, 0, 68, 0
2, 55680, Note_on_c, 0, 65, 64
2, 56160, Note_on_c, 0, 65, 0
2, 56160, Note_on_c, 0, 68, 65
2, 56320, Note_on_c, 0, 68, 0
2, 56320, Note_on_c, 0, 73, 66
2, 56480, Note_on_c, 0, 73, 0
2, 56480, Note_on_c, 0, 75, 67
2, 56640, Note_on_c, 0, 75, 0
2, 56640, Note_on_c, 0, 77, 68
2, 56800, Note_on_c, 0, 77, 0
2, 56800, Note_on_c, 0, 73, 70
2, 56960, Note_on_c, 0, 73, 0
2, 56960, Note_on_c, 0, 68, 71
2, 57120, Note_on_c, 0, 68, 0
2, 57120, Note_on_c, 0, 70, 72
2, 57280, Note_on_c, 0, 70, 0
2, 57280, Note_on_c, 0, 73, 73
2, 57440, Note_on_c, 0, 73, 0
2, 57440, Note_on_c, 0, 70, 74
2, 57600, Note_on_c, 0, 70, 0
2, 57600, Note_on_c, 0, 68, 75
2, 57760, Note_on_c, 0, 68, 0
2, 57760, Note_on_c, 0, 73, 76
2, 57920, Note_on_c, 0, 73, 0
2, 57920, Note_on_c, 0, 75, 77
2, 58080, Note_on_c, 0, 75, 0
2, 58080, Note_on_c, 0, 77, 78
2, 58240, Note_on_c, 0, 77, 0
2, 58240, Note_on_c, 0, 73, 79
2, 58400, Note_on_c, 0, 73, 0
2, 58400, Note_on_c, 0, 80, 80
2, 58560, Note_on_c, 0, 80, 0
2, 58560, Note_on_c, 0, 74, 100
2, 59040, Note_on_c, 0, 74, 0
2, 59040, Note_on_c, 0, 75, 97
2, 59520, Note_on_c, 0, 75, 0
2, 59520, Note_on_c, 0, 72, 94
2, 60480, Note_on_c, 0, 72, 0
2, 60480, Note_on_c, 0, 66, 76
2, 60600, Note_on_c, 0, 66, 0
2, 60600, Note_on_c, 0, 68, 77
2, 60720, Note_on_c, 0, 68, 0
2, 60720, Note_on_c, 0, 66, 78
2, 60840, Note_on_c, 0, 66, 0
2, 60840, Note_on_c, 0, 65, 79
2, 60960, Note_on_c, 0, 65, 0
2, 60960, Note_on_c, 0, 66, 79
2, 61080, Note_on_c, 0, 66, 0
2, 61080, Note_on_c, 0, 75, 80
2, 61200, Note_on_c, 0, 75, 0
2, 61200, Note_on_c, 0, 73, 81
2, 61320, Note_on_c, 0, 73, 0
2, 61320, Note_on_c, 0, 72, 82
2, 61440, Note_on_c, 0, 72, 0
2, 61440, Note_on_c, 0, 73, 83
2, 61560, Note_on_c, 0, 73, 0
2, 61560, Note_on_c, 0, 68, 83
2, 61680, Note_on_c, 0, 68, 0
2, 61680, Note_on_c, 0, 73, 84
2, 61800, Note_on_c, 0, 73, 0
2, 61800, Note_on_c, 0, 77, 85
2, 61920, Note_on_c, 0, 77, 0
2, 61920, Note_on_c, 0, 80, 86
2, 62040, Note_on_c, 0, 80, 0
2, 62040, Note_on_c, 0, 85, 87
2, 62160, Note_on_c, 0, 85, 0
2, 62160, Note_on_c, 0, 89, 87
2, 62280, Note_on_c, 0, 89, 0
2, 62280, Note_on_c, 0, 87, 88
2, 62400, Note_on_c, 0, 87, 0
2, 62400, Note_on_c, 0, 86, 108
2, 62880, Note_on_c, 0, 86, 0
2, 62880, Note_on_c, 0, 87, 105
2, 63360, Note_on_c, 0, 87, 0
2, 63360, Note_on_c, 0, 84, 100
2, 64320, Note_on_c, 0, 84, 0
2, 64320, Note_on_c, 0, 78, 73
2, 64440, Note_on_c, 0, 78, 0
2, 64440, Note_on_c, 0, 80, 73
2, 64560, Note_on_c, 0, 80, 0
2, 64560, Note_on_c, 0, 78, 72
2, 64680, Note_on_c, 0, 78, 0
2, 64680, Note_on_c, 0, 77, 72
2, 64800, Note_on_c, 0, 77, 0
2, 64800, Note_on_c, 0, 78, 71
2, 64920, Note_on_c, 0, 78, 0
2, 64920, Note_on_c, 0, 87, 71
2, 65040, Note_on_c, 0, 87, 0
2, 65040, Note_on_c, 0, 85, 70
2, 65160, Note_on_c, 0, 85, 0
2, 65160, Note_on_c, 0, 84, 70
2, 65280, Note_on_c, 0, 84, 0
2, 65280, Note_on_c, 0, 85, 69
2, 65400, Note_on_c, 0, 85, 0
2, 65400, Note_on_c, 0, 80, 69
2, 65520, Note_on_c, 0, 80, 0
2, 65520, Note_on_c, 0, 77, 68
2, 65640, Note_on_c, 0, 77, 0
2, 65640, Note_on_c, 0, 73, 68
2, 65760, Note_on_c, 0, 73, 0
2, 65760, Note_on_c, 0, 68, 67
2, 65880, Note_on_c, 0, 68, 0
2, 65880, Note_on_c, 0, 73, 67
2, 66000, Note_on_c, 0, 73, 0
2, 66000, Note_on_c, 0, 68, 66
2, 66120, Note_on_c, 0, 68, 0
2, 66120, Note_on_c, 0, 65, 66
2, 66240, Note_on_c, 0, 65, 0
2, 66240, Note_on_c, 0, 66, 65
2, 66360, Note_on_c, 0, 66, 0
2, 66360, Note_on_c, 0, 68, 65
2, 66480, Note_on_c, 0, 68, 0
2, 66480, Note_on_c, 0, 66, 64
2, 66600, Note_on_c, 0, 66, 0
2, 66600, Note_on_c, 0, 65, 64
2, 66720, Note_on_c, 0, 65, 0
2, 66720, Note_on_c, 0, 66, 63
2, 66840, Note_on_c, 0, 66, 0
2, 66840, Note_on_c, 0, 75, 63
2, 66960, Note_on_c, 0, 75, 0
2, 66960, Note_on_c, 0, 73, 62
2, 67080, Note_on_c, 0, 73, 0
2, 67080, Note_on_c, 0, 72, 62
2, 67200, Note_on_c, 0, 72, 0
2, 67200, Note_on_c, 0, 73, 61
2, 67320, Note_on_c, 0, 73, 0
2, 67320, Note_on_c, 0, 68, 61
2, 67440, Note_on_c, 0, 68, 0
2, 67440, Note_on_c, 0, 65, 60
2, 67560, Note_on_c, 0, 65, 0
2, 67560, Note_on_c, 0, 61, 60
2, 67680, Note_on_c, 0, 61, 0
2, 67680, Note_on_c, 0, 56, 59
2, 67800, Note_on_c, 0, 56, 0
2, 67800, Note_on_c, 0, 61, 59
2, 67920, Note_on_c, 0, 61, 0
2, 67920, Note_on_c, 0, 56, 58
2, 68040, Note_on_c, 0, 56, 0
2, 68040, Note_on_c, 0, 53, 58
2, 68160, Note_on_c, 0, 53, 0
2, 68640, Note_on_c, 0, 66, 55
2, 69120, Note_on_c, 0, 66, 0
2, 69600, Note_on_c, 0, 66, 58
2, 70080, Note_on_c, 0, 66, 0
2, 70560, Note_on_c, 0, 68, 62
2, 71040, Note_on_c, 0, 68, 0
2, 71520, Note_on_c, 0, 68, 66
2, 72000, Note_on_c, 0, 68, 0
2, 72480, Note_on_c, 0, 70, 59
2, 72840, Note_on_c, 0, 70, 0
2, 72840, Note_on_c, 0, 71, 59
2, 72960, Note_on_c, 0, 71, 0
2, 72960, Note_on_c, 0, 73, 61
2, 73440, Note_on_c, 0, 73, 0
2, 73440, Note_on_c, 0, 66, 57
2, 73920, Note_on_c, 0, 66, 0
2, 73920, Note_on_c, 0, 65, 60
2, 74400, Note_on_c, 0, 65, 0
2, 74400, Note_on_c, 0, 66, 63
2, 74880, Note_on_c, 0, 66, 0
2, 74880, Note_on_c, 0, 71, 66
2, 76320, Note_on_c, 0, 71, 0
2, 76320, Note_on_c, 0, 68, 59
2, 76800, Note_on_c, 0, 68, 0
2, 76800, Note_on_c, 0, 70, 59
2, 77280, Note_on_c, 0, 70, 0
2, 77280, Note_on_c, 0, 75, 61
2, 77760, Note_on_c, 0, 75, 0
2, 77760, Note_on_c, 0, 73, 64
2, 78240, Note_on_c, 0, 73, 0
2, 78240, Note_on_c, 0, 78, 66
2, 78720, Note_on_c, 0, 78, 0
2, 78720, Note_on_c, 0, 77, 70
2, 79200, Note_on_c, 0, 77, 0
2, 79200, Note_on_c, 0, 75, 66
2, 79680, Note_on_c, 0, 75, 0
2, 79680, Note_on_c, 0, 73, 61
2, 80160, Note_on_c, 0, 73, 0
2, 80160, Note_on_c, 0, 70, 57
2, 80280, Note_on_c, 0, 70, 0
2, 80280, Note_on_c, 0, 71, 57
2, 80400, Note_on_c, 0, 71, 0
2, 80400, Note_on_c, 0, 70, 58
2, 80520, Note_on_c, 0, 70, 0
2, 80520, Note_on_c, 0, 66, 58
2, 80640, Note_on_c, 0, 66, 0
2, 80640, Note_on_c, 0, 71, 58
2, 80760, Note_on_c, 0, 71, 0
2, 80760, Note_on_c, 0, 73, 59
2, 80880, Note_on_c, 0, 73, 0
2, 80880, Note_on_c, 0, 71, 59
2, 81000, Note_on_c, 0, 71, 0
2, 81000, Note_on_c, 0, 68, 59
2, 81120, Note_on_c, 0, 68, 0
2, 81120, Note_on_c, 0, 65, 60
2, 81600, Note_on_c, 0, 65, 0
2, 82080, Note_on_c, 0, 71, 62
2, 82200, Note_on_c, 0, 71, 0
2, 82200, Note_on_c, 0, 73, 63
2, 82320, Note_on_c, 0, 73, 0
2, 82320, Note_on_c, 0, 71, 63
2, 82440, Note_on_c, 0, 71, 0
2, 82440, Note_on_c, 0, 68, 63
2, 82560, Note_on_c, 0, 68, 0
2, 82560, Note_on_c, 0, 73, 64
2, 82680, Note_on_c, 0, 73, 0
2, 82680, Note_on_c, 0, 75, 64
2, 82800, Note_on_c, 0, 75, 0
2, 82800, Note_on_c, 0, 73, 64
2, 82920, Note_on_c, 0, 73, 0
2, 82920, Note_on_c, 0, 70, 65
2, 83040, Note_on_c, 0, 70, 0
2, 83040, Note_on_c, 0, 66, 65
2, 83520, Note_on_c, 0, 66, 0
2, 84000, Note_on_c, 0, 78, 68
2, 84160, Note_on_c, 0, 78, 0
2, 84160, Note_on_c, 0, 77, 68
2, 84320, Note_on_c, 0, 77, 0
2, 84320, Note_on_c, 0, 75, 69
2, 84480, Note_on_c, 0, 75, 0
2, 84480, Note_on_c, 0, 73, 69
2, 84640, Note_on_c, 0, 73, 0
2, 84640, Note_on_c, 0, 71, 70
2, 84800, Note_on_c, 0, 71, 0
2, 84800, Note_on_c, 0, 70, 70
2, 84960, Note_on_c, 0, 70, 0
2, 84960, Note_on_c, 0, 68, 71
2, 85120, Note_on_c, 0, 68, 0
2, 85120, Note_on_c, 0, 66, 71
2, 85280, Note_on_c, 0, 66, 0
2, 85280, Note_on_c, 0, 65, 72
2, 85440, Note_on_c, 0, 65, 0
2, 85440, Note_on_c, 0, 63, 72
2, 85600, Note_on_c, 0, 63, 0
2, 85600, Note_on_c, 0, 61, 72
2, 85760, Note_on_c, 0, 61, 0
2, 85760, Note_on_c, 0, 60, 73
2, 85920, Note_on_c, 0, 60, 0
2, 85920, Note_on_c, 0, 61, 73
2, 86080, Note_on_c, 0, 61, 0
2, 86080, Note_on_c, 0, 63, 74
2, 86240, Note_on_c, 0, 63, 0
2, 86240, Note_on_c, 0, 65, 74
2, 86400, Note_on_c, 0, 65, 0
2, 86400, Note_on_c, 0, 66, 68
2, 86880, Note_on_c, 0, 66, 0
2, 86880, Note_on_c, 0, 68, 64
2, 87360, Note_on_c, 0, 68, 0
2, 87360, Note_on_c, 0, 70, 60
2, 87840, Note_on_c, 0, 70, 0
2, 88320, Note_on_c, 0, 70, 59
2, 88800, Note_on_c, 0, 70, 0
2, 89280, Note_on_c, 0, 71, 62
2, 89760, Note_on_c, 0, 71, 0
2, 90240, Note_on_c, 0, 68, 66
2, 90720, Note_on_c, 0, 68, 0
2, 90720, Note_on_c, 0, 70, 64
2, 91200, Note_on_c, 0, 70, 0
2, 91200, Note_on_c, 0, 71, 60
2, 91680, Note_on_c, 0, 71, 0
2, 92160, Note_on_c, 0, 71, 62
2, 92640, Note_on_c, 0, 71, 0
2, 93120, Note_on_c, 0, 73, 65
2, 93600, Note_on_c, 0, 73, 0
2, 94080, Note_on_c, 0, 70, 69
2, 94560, Note_on_c, 0, 70, 0
2, 94560, Note_on_c, 0, 73, 65
2, 94680, Note_on_c, 0, 73, 0
2, 94680, Note_on_c, 0, 75, 69
2, 94800, Note_on_c, 0, 75, 0
2, 94800, Note_on_c, 0, 73, 72
2, 94920, Note_on_c, 0, 73, 0
2, 94920, Note_on_c, 0, 70, 75
2, 95040, Note_on_c, 0, 70, 0
2, 95040, Note_on_c, 0, 78, 82
2, 96480, Note_on_c, 0, 78, 0
2, 96480, Note_on_c, 0, 77, 77
2, 96600, Note_on_c, 0, 77, 0
2, 96600, Note_on_c, 0, 78, 78
2, 96640, Note_on_c, 0, 78, 0
2, 96640, Note_on_c, 0, 77, 79
2, 96680, Note_on_c, 0, 77, 0
2, 96680, Note_on_c, 0, 75, 79
2, 96720, Note_on_c, 0, 75, 0
2, 96720, Note_on_c, 0, 77, 80
2, 96840, Note_on_c, 0, 77, 0
2, 96840, Note_on_c, 0, 78, 81
2, 96960, Note_on_c, 0, 78, 0
2, 96960, Note_on_c, 0, 80, 83
2, 97440, Note_on_c, 0, 80, 0
2, 97440, Note_on_c, 0, 77, 75
2, 97920, Note_on_c, 0, 77, 0
2, 97920, Note_on_c, 0, 74, 70
2, 98040, Note_on_c, 0, 83, 70
2, 98160, Note_on_c, 0, 83, 0
2, 98160, Note_on_c, 0, 82, 70
2, 98280, Note_on_c, 0, 82, 0
2, 98280, Note_on_c, 0, 74, 0
2, 98280, Note_on_c, 0, 74, 70
2, 98400, Note_on_c, 0, 74, 0
2, 98400, Note_on_c, 0, 74, 70
2, 98520, Note_on_c, 0, 83, 70
2, 98640, Note_on_c, 0, 83, 0
2, 98640, Note_on_c, 0, 82, 70
2, 98760, Note_on_c, 0, 82, 0
2, 98760, Note_on_c, 0, 74, 0
2, 98760, Note_on_c, 0, 74, 69
2, 98880, Note_on_c, 0, 74, 0
2, 98880, Note_on_c, 0, 74, 69
2, 99000, Note_on_c, 0, 83, 69
2, 99120, Note_on_c, 0, 83, 0
2, 99120, Note_on_c, 0, 82, 69
2, 99240, Note_on_c, 0, 82, 0
2, 99240, Note_on_c, 0, 74, 0
2, 99240, Note_on_c, 0, 74, 69
2, 99360, Note_on_c, 0, 74, 0
2, 99360, Note_on_c, 0, 74, 69
2, 99480, Note_on_c, 0, 83, 69
2, 99600, Note_on_c, 0, 83, 0
2, 99600, Note_on_c, 0, 82, 69
2, 99720, Note_on_c, 0, 82, 0
2, 99720, Note_on_c, 0, 74, 0
2, 99720, Note_on_c, 0, 74, 68
2, 99840, Note_on_c, 0, 74, 0
2, 99840, Note_on_c, 0, 75, 68
2, 99960, Note_on_c, 0, 83, 68
2, 100080, Note_on_c, 0, 83, 0
2, 100080, Note_on_c, 0, 82, 68
2, 100200, Note_on_c, 0, 82, 0
2, 100200, Note_on_c, 0, 75, 0
2, 100200, Note_on_c, 0, 75, 68
2, 100320, Note_on_c, 0, 75, 0
2, 100320, Note_on_c, 0, 77, 68
2, 100440, Note_on_c, 0, 83, 68
2, 100560, Note_on_c, 0, 83, 0
2, 100560, Note_on_c, 0, 82, 68
2, 100680, Note_on_c, 0, 82, 0
2, 100680, Note_on_c, 0, 77, 0
2, 100680, Note_on_c, 0, 77, 67
2, 100800, Note_on_c, 0, 77, 0
2, 100800, Note_on_c, 0, 78, 67
2, 100920, Note_on_c, 0, 83, 67
2, 101040, Note_on_c, 0, 83, 0
2, 101040, Note_on_c, 0, 82, 67
2, 101160, Note_on_c, 0, 82, 0
2, 101160, Note_on_c, 0, 78, 0
2, 101160, Note_on_c, 0, 78, 67
2, 101280, Note_on_c, 0, 78, 0
2, 101280, Control_c, 0, 64, 127
2, 101280, Note_on_c, 0, 87, 67
2, 101400, Note_on_c, 0, 87, 0
2, 101400, Note_on_c, 0, 82, 67
2, 101520, Note_on_c, 0, 82, 0
2, 101520, Note_on_c, 0, 78, 67
2, 101640, Note_on_c, 0, 78, 0
2, 101640, Note_on_c, 0, 75, 67
2, 101760, Note_on_c, 0, 75, 0
2, 101760, Control_c, 0, 64, 0
2, 101760, Note_on_c, 0, 84, 66
2, 102120, Note_on_c, 0, 84, 0
2, 102120, Note_on_c, 0, 84, 66
2, 102240, Note_on_c, 0, 84, 0
2, 102240, Note_on_c, 0, 87, 66
2, 102600, Note_on_c, 0, 87, 0
2, 102600, Note_on_c, 0, 85, 66
2, 102720, Note_on_c, 0, 85, 0
2, 102720, Note_on_c, 0, 84, 65
2, 103080, Note_on_c, 0, 84, 0
2, 103080, Note_on_c, 0, 84, 65
2, 103200, Note_on_c, 0, 84, 0
2, 103200, Note_on_c, 0, 87, 65
2, 103560, Note_on_c, 0, 87, 0
2, 103560, Note_on_c, 0, 85, 65
2, 103680, Note_on_c, 0, 85, 0
2, 103680, Note_on_c, 0, 84, 64
2, 104040, Note_on_c, 0, 84, 0
2, 104040, Note_on_c, 0, 84, 64
2, 104160, Note_on_c, 0, 84, 0
2, 104160, Note_on_c, 0, 85, 64
2, 104520, Note_on_c, 0, 85, 0
2, 104520, Note_on_c, 0, 85, 64
2, 104640, Note_on_c, 0, 85, 0
2, 104640, Note_on_c, 0, 80, 63
2, 105000, Note_on_c, 0, 80, 0
2, 105000, Note_on_c, 0, 80, 63
2, 105120, Note_on_c, 0, 80, 0
2, 105120, Note_on_c, 0, 82, 63
2, 105480, Note_on_c, 0, 82, 0
2, 105480, Note_on_c, 0, 82, 63
2, 105600, Note_on_c, 0, 82, 0
2, 105600, Note_on_c, 0, 84, 62
2, 105960, Note_on_c, 0, 84, 0
2, 105960, Note_on_c, 0, 84, 62
2, 106080, Note_on_c, 0, 84, 0
2, 106080, Note_on_c, 0, 87, 62
2, 106440, Note_on_c, 0, 87, 0
2, 106440, Note_on_c, 0, 85, 62
2, 106560, Note_on_c, 0, 85, 0
2, 106560, Note_on_c, 0, 84, 62
2, 106920, Note_on_c, 0, 84, 0
2, 106920, Note_on_c, 0, 84, 61
2, 107040, Note_on_c, 0, 84, 0
2, 107040, Note_on_c, 0, 87, 61
2, 107400, Note_on_c, 0, 87, 0
2, 107400, Note_on_c, 0, 85, 61
2, 107520, Note_on_c, 0, 85, 0
2, 107520, Note_on_c, 0, 84, 61
2, 107880, Note_on_c, 0, 84, 0
2, 107880, Note_on_c, 0, 84, 60
2, 108000, Note_on_c, 0, 84, 0
2, 108000, Note_on_c, 0, 87, 60
2, 108360, Note_on_c, 0, 87, 0
2, 108360, Note_on_c, 0, 87, 60
2, 108480, Note_on_c, 0, 87, 0
2, 108480, Note_on_c, 0, 80, 60
2, 108840, Note_on_c, 0, 80, 0
2, 108840, Note_on_c, 0, 80, 59
2, 108960, Note_on_c, 0, 80, 0
2, 108960, Note_on_c, 0, 82, 59
2, 109320, Note_on_c, 0, 82, 0
2, 109320, Note_on_c, 0, 82, 59
2, 109440, Note_on_c, 0, 82, 0
2, 109440, Note_on_c, 0, 84, 59
2, 109800, Note_on_c, 0, 84, 0
2, 109800, Note_on_c, 0, 84, 62
2, 109920, Note_on_c, 0, 84, 0
2, 109920, Note_on_c, 0, 85, 63
2, 110280, Note_on_c, 0, 85, 0
2, 110280, Note_on_c, 0, 85, 66
2, 110400, Note_on_c, 0, 85, 0
2, 110400, Note_on_c, 0, 85, 67
2, 110760, Note_on_c, 0, 85, 0
2, 110760, Note_on_c, 0, 85, 69
2, 110880, Note_on_c, 0, 85, 0
2, 110880, Note_on_c, 0, 85, 70
2, 111240, Note_on_c, 0, 85, 0
2, 111240, Note_on_c, 0, 85, 73
2, 111360, Note_on_c, 0, 85, 0
2, 111360, Note_on_c, 0, 85, 74
2, 111720, Note_on_c, 0, 85, 0
2, 111720, Note_on_c, 0, 85, 77
2, 111840, Note_on_c, 0, 85, 0
2, 111840, Note_on_c, 0, 85, 78
2, 112200, Note_on_c, 0, 85, 0
2, 112200, Note_on_c, 0, 85, 81
2, 112320, Note_on_c, 0, 85, 0
2, 112320, Note_on_c, 0, 85, 82
2, 112680, Note_on_c, 0, 85, 0
2, 112680, Note_on_c, 0, 85, 85
2, 112800, Note_on_c, 0, 85, 0
2, 112800, Note_on_c, 0, 85, 86
2, 113160, Note_on_c, 0, 85, 0
2, 113160, Note_on_c, 0, 85, 89
2, 113280, Note_on_c, 0, 85, 0
2, 113280, Note_on_c, 0, 85, 90
2, 113640, Note_on_c, 0, 85, 0
2, 113640, Note_on_c, 0, 85, 93
2, 113760, Note_on_c, 0, 85, 0
2, 113760, Note_on_c, 0, 85, 94
2, 114120, Note_on_c, 0, 85, 0
2, 114120, Note_on_c, 0, 85, 97
2, 114240, Note_on_c, 0, 85, 0
2, 114240, Note_on_c, 0, 85, 98
2, 114600, Note_on_c, 0, 85, 0
2, 114600, Note_on_c, 0, 85, 101
2, 114720, Note_on_c, 0, 85, 0
2, 114720, Note_on_c, 0, 85, 102
2, 115080, Note_on_c, 0, 85, 0
2, 115080, Note_on_c, 0, 85, 105
2, 115200, Note_on_c, 0, 85, 0
2, 115200, Note_on_c, 0, 85, 107
2, 115560, Note_on_c, 0, 85, 0
2, 115560, Note_on_c, 0, 85, 108
2, 115680, Note_on_c, 0, 85, 0
2, 115680, Note_on_c, 0, 85, 108
2, 116040, Note_on_c, 0, 85, 0
2, 116040, Note_on_c, 0, 85, 110
2, 116160, Note_on_c, 0, 85, 0
2, 116160, Note_on_c, 0, 84, 110
2, 116520, Note_on_c, 0, 84, 0
2, 116520, Note_on_c, 0, 84, 112
2, 116640, Note_on_c, 0, 84, 0
2, 116640, Note_on_c, 0, 84, 112
2, 117000, Note_on_c, 0, 84, 0
2, 117000, Note_on_c, 0, 84, 112
2, 117120, Note_on_c, 0, 84, 0
2, 117120, Note_on_c, 0, 85, 110
2, 117600, Note_on_c, 0, 85, 0
2, 118080, Note_on_c, 0, 77, 63
2, 118240, Note_on_c, 0, 77, 0
2, 118240, Note_on_c, 0, 73, 63
2, 118400, Note_on_c, 0, 73, 0
2, 118400, Note_on_c, 0, 68, 64
2, 118560, Note_on_c, 0, 68, 0
2, 118560, Note_on_c, 0, 70, 65
2, 118720, Note_on_c, 0, 70, 0
2, 118720, Note_on_c, 0, 73, 65
2, 118880, Note_on_c, 0, 73, 0
2, 118880, Note_on_c, 0, 70, 66
2, 119040, Note_on_c, 0, 70, 0
2, 119040, Note_on_c, 0, 68, 67
2, 119200, Note_on_c, 0, 68, 0
2, 119200, Note_on_c, 0, 73, 67
2, 119360, Note_on_c, 0, 73, 0
2, 119360, Note_on_c, 0, 75, 68
2, 119520, Note_on_c, 0, 75, 0
2, 119520, Note_on_c, 0, 77, 68
2, 119680, Note_on_c, 0, 77, 0
2, 119680, Note_on_c, 0, 73, 69
2, 119840, Note_on_c, 0, 73, 0
2, 119840, Note_on_c, 0, 80, 70
2, 120000, Note_on_c, 0, 80, 0
2, 120000, Note_on_c, 0, 77, 70
2, 120160, Note_on_c, 0, 77, 0
2, 120160, Note_on_c, 0, 73, 68
2, 120320, Note_on_c, 0, 73, 0
2, 120320, Note_on_c, 0, 68, 67
2, 120480, Note_on_c, 0, 68, 0
2, 120480, Note_on_c, 0, 66, 66
2, 120640, Note_on_c, 0, 66, 0
2, 120640, Note_on_c, 0, 63, 65
2, 120800, Note_on_c, 0, 63, 0
2, 120800, Note_on_c, 0, 68, 65
2, 120960, Note_on_c, 0, 68, 0
2, 120960, Note_on_c, 0, 65, 64
2, 121440, Note_on_c, 0, 65, 0
2, 121440, Note_on_c, 0, 68, 65
2, 121600, Note_on_c, 0, 68, 0
2, 121600, Note_on_c, 0, 73, 66
2, 121760, Note_on_c, 0, 73, 0
2, 121760, Note_on_c, 0, 75, 67
2, 121920, Note_on_c, 0, 75, 0
2, 121920, Note_on_c, 0, 77, 68
2, 122080, Note_on_c, 0, 77, 0
2, 122080, Note_on_c, 0, 73, 70
2, 122240, Note_on_c, 0, 73, 0
2, 122240, Note_on_c, 0, 68, 71
2, 122400, Note_on_c, 0, 68, 0
2, 122400, Note_on_c, 0, 70, 72
2, 122560, Note_on_c, 0, 70, 0
2, 122560, Note_on_c, 0, 73, 73
2, 122720, Note_on_c, 0, 73, 0
2, 122720, Note_on_c, 0, 70, 74
2, 122880, Note_on_c, 0, 70, 0
2, 122880, Note_on_c, 0, 68, 75
2, 123040, Note_on_c, 0, 68, 0
2, 123040, Note_on_c, 0, 73, 76
2, 123200, Note_on_c, 0, 73, 0
2, 123200, Note_on_c, 0, 75, 77
2, 123360, Note_on_c, 0, 75, 0
2, 123360, Note_on_c, 0, 77, 78
2, 123520, Note_on_c, 0, 77, 0
2, 123520, Note_on_c, 0, 73, 79
2, 123680, Note_on_c, 0, 73, 0
2, 123680, Note_on_c, 0, 80, 80
2, 123840, Note_on_c, 0, 80, 0
2, 123840, Note_on_c, 0, 74, 100
2, 124320, Note_on_c, 0, 74, 0
2, 124320, Note_on_c, 0, 75, 97
2, 124800, Note_on_c, 0, 75, 0
2, 124800, Note_on_c, 0, 72, 94
2, 125760, Note_on_c, 0, 72, 0
2, 125760, Note_on_c, 0, 66, 76
2, 125880, Note_on_c, 0, 66, 0
2, 125880, Note_on_c, 0, 68, 77
2, 126000, Note_on_c, 0, 68, 0
2, 126000, Note_on_c, 0, 66, 78
2, 126120, Note_on_c, 0, 66, 0
2, 126120, Note_on_c, 0, 65, 79
2, 126240, Note_on_c, 0, 65, 0
2, 126240, Note_on_c, 0, 66, 79
2, 126360, Note_on_c, 0, 66, 0
2, 126360, Note_on_c, 0, 75, 80
2, 126480, Note_on_c, 0, 75, 0
2, 126480, Note_on_c, 0, 73, 81
2, 126600, Note_on_c, 0, 73, 0
2, 126600, Note_on_c, 0, 72, 82
2, 126720, Note_on_c, 0, 72, 0
2, 126720, Note_on_c, 0, 73, 83
2, 126840, Note_on_c, 0, 73, 0
2, 126840, Note_on_c, 0, 68, 83
2, 126960, Note_on_c, 0, 68, 0
2, 126960, Note_on_c, 0, 73, 84
2, 127080, Note_on_c, 0, 73, 0
2, 127080, Note_on_c, 0, 77, 85
2, 127200, Note_on_c, 0, 77, 0
2, 127200, Note_on_c, 0, 80, 86
2, 127320, Note_on_c, 0, 80, 0
2, 127320, Note_on_c, 0, 85, 87
2, 127440, Note_on_c, 0, 85, 0
2, 127440, Note_on_c, 0, 89, 87
2, 127560, Note_on_c, 0, 89, 0
2, 127560, Note_on_c, 0, 87, 88
2, 127680, Note_on_c, 0, 87, 0
2, 127680, Note_on_c, 0, 86, 108
2, 128160, Note_on_c, 0, 86, 0
2, 128160, Note_on_c, 0, 87, 105
2, 128640, Note_on_c, 0, 87, 0
2, 128640, Note_on_c, 0, 84, 100
2, 129600, Note_on_c, 0, 84, 0
2, 129600, Note_on_c, 0, 78, 73
2, 129720, Note_on_c, 0, 78, 0
2, 129720, Note_on_c, 0, 80, 73
2, 129840, Note_on_c, 0, 80, 0
2, 129840, Note_on_c, 0, 78, 72
2, 129960, Note_on_c, 0, 78, 0
2, 129960, Note_on_c, 0, 77, 72
2, 130080, Note_on_c, 0, 77, 0
2, 130080, Note_on_c, 0, 78, 71
2, 130200, Note_on_c, 0, 78, 0
2, 130200, Note_on_c, 0, 87, 71
2, 130320, Note_on_c, 0, 87, 0
2, 130320, Note_on_c, 0, 85, 70
2, 130440, Note_on_c, 0, 85, 0
2, 130440, Note_on_c, 0, 84, 70
2, 130560, Note_on_c, 0, 84, 0
2, 130560, Note_on_c, 0, 85, 69
2, 130680, Note_on_c, 0, 85, 0
2, 130680, Note_on_c, 0, 80, 69
2, 130800, Note_on_c, 0, 80, 0
2, 130800, Note_on_c, 0, 77, 68
2, 130920, Note_on_c, 0, 77, 0
2, 130920, Note_on_c, 0, 73, 68
2, 131040, Note_on_c, 0, 73, 0
2, 131040, Note_on_c, 0, 68, 67
2, 131160, Note_on_c, 0, 68, 0
2, 131160, Note_on_c, 0, 73, 67
2, 131280, Note_on_c, 0, 73, 0
2, 131280, Note_on_c, 0, 68, 66
2, 131400, Note_on_c, 0, 68, 0
2, 131400, Note_on_c, 0, 65, 66
2, 131520, Note_on_c, 0, 65, 0
2, 131520, Note_on_c, 0, 66, 65
2, 131640, Note_on_c, 0, 66, 0
2, 131640, Note_on_c, 0, 68, 65
2, 131760, Note_on_c, 0, 68, 0
2, 131760, Note_on_c, 0, 66, 64
2, 131880, Note_on_c, 0, 66, 0
2, 131880, Note_on_c, 0, 65, 64
2, 132000, Note_on_c, 0, 65, 0
2, 132000, Note_on_c, 0, 66, 63
2, 132120, Note_on_c, 0, 66, 0
2, 132120, Note_on_c, 0, 75, 63
2, 132240, Note_on_c, 0, 75, 0
2, 132240, Note_on_c, 0, 73, 62
2, 132360, Note_on_c, 0, 73, 0
2, 132360, Note_on_c, 0, 72, 62
2, 132480, Note_on_c, 0, 72, 0
2, 132480, Note_on_c, 0, 73, 61
2, 132600, Note_on_c, 0, 73, 0
2, 132600, Note_on_c, 0, 68, 61
2, 132720, Note_on_c, 0, 68, 0
2, 132720, Note_on_c, 0, 65, 60
2, 132840, Note_on_c, 0, 65, 0
2, 132840, Note_on_c, 0, 61, 60
2, 132960, Note_on_c, 0, 61, 0
2, 132960, Note_on_c, 0, 56, 59
2, 133080, Note_on_c, 0, 56, 0
2, 133080, Note_on_c, 0, 61, 59
2, 133200, Note_on_c, 0, 61, 0
2, 133200, Note_on_c, 0, 56, 58
2, 133320, Note_on_c, 0, 56, 0
2, 133320, Note_on_c, 0, 53, 58
2, 133440, Note_on_c, 0, 53, 0
2, 133920, Note_on_c, 0, 66, 55
2, 134400, Note_on_c, 0, 66, 0
2, 134880, Note_on_c, 0, 66, 58
2, 135360, Note_on_c, 0, 66, 0
2, 135840, Note_on_c, 0, 68, 62
2, 136320, Note_on_c, 0, 68, 0
2, 137760, Note_on_c, 0, 69, 61
2, 138000, Control_c, 0, 64, 0
2, 138120, Note_on_c, 0, 69, 0
2, 138120, Note_on_c, 0, 71, 63
2, 138240, Note_on_c, 0, 71, 0
2, 138240, Note_on_c, 0, 73, 66
2, 138720, Note_on_c, 0, 73, 0
2, 138720, Note_on_c, 0, 66, 61
2, 139200, Note_on_c, 0, 66, 0
2, 139200, Note_on_c, 0, 65, 61
2, 139680, Note_on_c, 0, 65, 0
2, 139680, Note_on_c, 0, 66, 62
2, 140160, Note_on_c, 0, 66, 0
2, 140160, Note_on_c, 0, 74, 67
2, 141600, Note_on_c, 0, 74, 0
2, 141600, Note_on_c, 0, 74, 64
2, 142080, Note_on_c, 0, 74, 0
2, 142080, Note_on_c, 0, 74, 63
2, 142160, Note_on_c, 0, 74, 0
2, 142160, Note_on_c, 0, 76, 64
2, 142240, Note_on_c, 0, 76, 0
2, 142240, Note_on_c, 0, 74, 64
2, 142320, Note_on_c, 0, 74, 0
2, 142320, Note_on_c, 0, 76, 65
2, 142400, Note_on_c, 0, 76, 0
2, 142400, Note_on_c, 0, 74, 65
2, 142480, Note_on_c, 0, 74, 0
2, 142480, Note_on_c, 0, 76, 66
2, 142560, Note_on_c, 0, 76, 0
2, 142560, Note_on_c, 0, 74, 66
2, 142640, Note_on_c, 0, 74, 0
2, 142640, Note_on_c, 0, 76, 67
2, 142720, Note_on_c, 0, 76, 0
2, 142720, Note_on_c, 0, 74, 67
2, 142800, Note_on_c, 0, 74, 0
2, 142800, Note_on_c, 0, 73, 68
2, 142920, Note_on_c, 0, 73, 0
2, 142920, Note_on_c, 0, 74, 68
2, 143040, Note_on_c, 0, 74, 0
2, 143040, Note_on_c, 0, 76, 72
2, 143760, Note_on_c, 0, 76, 0
2, 143760, Note_on_c, 0, 71, 66
2, 144000, Note_on_c, 0, 71, 0
2, 144000, Note_on_c, 0, 73, 64
2, 144240, Note_on_c, 0, 73, 0
2, 147360, Note_on_c, 0, 83, 105
2, 147720, Note_on_c, 0, 83, 0
2, 147720, Note_on_c, 0, 85, 106
2, 147840, Note_on_c, 0, 85, 0
2, 147840, Note_on_c, 0, 87, 107
2, 148320, Note_on_c, 0, 87, 0
2, 148320, Note_on_c, 0, 80, 99
2, 148800, Note_on_c, 0, 80, 0
2, 148800, Note_on_c, 0, 79, 101
2, 149280, Note_on_c, 0, 79, 0
2, 149280, Note_on_c, 0, 80, 102
2, 149760, Note_on_c, 0, 80, 0
2, 149760, Note_on_c, 0, 80, 72
2, 149880, Note_on_c, 0, 80, 0
2, 149880, Note_on_c, 0, 83, 72
2, 149881, Note_on_c, 0, 83, 0
2, 150000, Note_on_c, 0, 82, 72
2, 150120, Note_on_c, 0, 82, 0
2, 150120, Note_on_c, 0, 80, 72
2, 150240, Note_on_c, 0, 80, 0
2, 150240, Note_on_c, 0, 80, 72
2, 150360, Note_on_c, 0, 80, 0
2, 150360, Note_on_c, 0, 83, 71
2, 150480, Note_on_c, 0, 83, 0
2, 150480, Note_on_c, 0, 82, 71
2, 150600, Note_on_c, 0, 82, 0
2, 150600, Note_on_c, 0, 80, 71
2, 150720, Note_on_c, 0, 80, 0
2, 150720, Note_on_c, 0, 80, 71
2, 150840, Note_on_c, 0, 80, 0
2, 150840, Note_on_c, 0, 83, 71
2, 150960, Note_on_c, 0, 83, 0
2, 150960, Note_on_c, 0, 82, 71
2, 151080, Note_on_c, 0, 82, 0
2, 151080, Note_on_c, 0, 80, 70
2, 151200, Note_on_c, 0, 80, 0
2, 151200, Note_on_c, 0, 80, 70
2, 151320, Note_on_c, 0, 80, 0
2, 151320, Note_on_c, 0, 83, 70
2, 151440, Note_on_c, 0, 83, 0
2, 151440, Note_on_c, 0, 82, 70
2, 151560, Note_on_c, 0, 82, 0
2, 151560, Note_on_c, 0, 80, 70
2, 151680, Note_on_c, 0, 80, 0
2, 151680, Note_on_c, 0, 80, 69
2, 151800, Note_on_c, 0, 80, 0
2, 151800, Note_on_c, 0, 83, 69
2, 151920, Note_on_c, 0, 83, 0
2, 151920, Note_on_c, 0, 82, 69
2, 152040, Note_on_c, 0, 82, 0
2, 152040, Note_on_c, 0, 80, 69
2, 152160, Note_on_c, 0, 80, 0
2, 152160, Note_on_c, 0, 83, 69
2, 152280, Note_on_c, 0, 83, 0
2, 152280, Note_on_c, 0, 80, 69
2, 152400, Note_on_c, 0, 80, 0
2, 152400, Note_on_c, 0, 78, 68
2, 152520, Note_on_c, 0, 78, 0
2, 152520, Note_on_c, 0, 77, 68
2, 152640, Note_on_c, 0, 77, 0
2, 152640, Note_on_c, 0, 83, 68
2, 152760, Note_on_c, 0, 83, 0
2, 152760, Note_on_c, 0, 80, 68
2, 152880, Note_on_c, 0, 80, 0
2, 152880, Note_on_c, 0, 78, 68
2, 153000, Note_on_c, 0, 78, 0
2, 153000, Note_on_c, 0, 77, 67
2, 153120, Note_on_c, 0, 77, 0
2, 153120, Note_on_c, 0, 82, 67
2, 153240, Note_on_c, 0, 82, 0
2, 153240, Note_on_c, 0, 80, 67
2, 153360, Note_on_c, 0, 80, 0
2, 153360, Note_on_c, 0, 78, 67
2, 153480, Note_on_c, 0, 78, 0
2, 153480, Note_on_c, 0, 77, 67
2, 153600, Note_on_c, 0, 77, 0
2, 153600, Note_on_c, 0, 78, 67
2, 153720, Note_on_c, 0, 78, 0
2, 153720, Note_on_c, 0, 82, 66
2, 153840, Note_on_c, 0, 82, 0
2, 153840, Note_on_c, 0, 80, 66
2, 153960, Note_on_c, 0, 80, 0
2, 153960, Note_on_c, 0, 78, 66
2, 154080, Note_on_c, 0, 78, 0
2, 154080, Note_on_c, 0, 80, 66
2, 154200, Note_on_c, 0, 80, 0
2, 154200, Note_on_c, 0, 78, 66
2, 154320, Note_on_c, 0, 78, 0
2, 154320, Note_on_c, 0, 77, 65
2, 154440, Note_on_c, 0, 77, 0
2, 154440, Note_on_c, 0, 75, 65
2, 154560, Note_on_c, 0, 75, 0
2, 154560, Note_on_c, 0, 74, 65
2, 154680, Note_on_c, 0, 74, 0
2, 154680, Note_on_c, 0, 77, 65
2, 154800, Note_on_c, 0, 77, 0
2, 154800, Note_on_c, 0, 75, 65
2, 154920, Note_on_c, 0, 75, 0
2, 154920, Note_on_c, 0, 74, 65
2, 155040, Note_on_c, 0, 74, 0
2, 155040, Note_on_c, 0, 82, 64
2, 155160, Note_on_c, 0, 82, 0
2, 155160, Note_on_c, 0, 80, 64
2, 155280, Note_on_c, 0, 80, 0
2, 155280, Note_on_c, 0, 78, 64
2, 155400, Note_on_c, 0, 78, 0
2, 155400, Note_on_c, 0, 77, 64
2, 155520, Note_on_c, 0, 77, 0
2, 155520, Note_on_c, 0, 78, 64
2, 155640, Note_on_c, 0, 78, 0
2, 155640, Note_on_c, 0, 82, 63
2, 155760, Note_on_c, 0, 82, 0
2, 155760, Note_on_c, 0, 80, 63
2, 155880, Note_on_c, 0, 80, 0
2, 155880, Note_on_c, 0, 78, 63
2, 156000, Note_on_c, 0, 78, 0
2, 156000, Note_on_c, 0, 80, 63
2, 156120, Note_on_c, 0, 80, 0
2, 156120, Note_on_c, 0, 78, 63
2, 156240, Note_on_c, 0, 78, 0
2, 156240, Note_on_c, 0, 77, 63
2, 156360, Note_on_c, 0, 77, 0
2, 156360, Note_on_c, 0, 75, 62
2, 156480, Note_on_c, 0, 75, 0
2, 156480, Note_on_c, 0, 72, 62
2, 156600, Note_on_c, 0, 72, 0
2, 156600, Note_on_c, 0, 75, 62
2, 156720, Note_on_c, 0, 75, 0
2, 156720, Note_on_c, 0, 73, 62
2, 156840, Note_on_c, 0, 73, 0
2, 156840, Note_on_c, 0, 72, 62
2, 156960, Note_on_c, 0, 72, 0
2, 156960, Note_on_c, 0, 80, 61
2, 157080, Note_on_c, 0, 80, 0
2, 157080, Note_on_c, 0, 78, 61
2, 157200, Note_on_c, 0, 78, 0
2, 157200, Note_on_c, 0, 76, 61
2, 157320, Note_on_c, 0, 76, 0
2, 157320, Note_on_c, 0, 75, 61
2, 157440, Note_on_c, 0, 75, 0
2, 157440, Note_on_c, 0, 76, 61
2, 157560, Note_on_c, 0, 76, 0
2, 157560, Note_on_c, 0, 80, 60
2, 157680, Note_on_c, 0, 80, 0
2, 157680, Note_on_c, 0, 78, 60
2, 157800, Note_on_c, 0, 78, 0
2, 157800, Note_on_c, 0, 76, 60
2, 157920, Note_on_c, 0, 76, 0
2, 157920, Note_on_c, 0, 78, 60
2, 158040, Note_on_c, 0, 78, 0
2, 158040, Note_on_c, 0, 76, 60
2, 158160, Note_on_c, 0, 76, 0
2, 158160, Note_on_c, 0, 75, 60
2, 158280, Note_on_c, 0, 75, 0
2, 158280, Note_on_c, 0, 73, 59
2, 158400, Note_on_c, 0, 73, 0
2, 158400, Note_on_c, 0, 72, 59
2, 158520, Note_on_c, 0, 72, 0
2, 158520, Note_on_c, 0, 75, 59
2, 158640, Note_on_c, 0, 75, 0
2, 158640, Note_on_c, 0, 73, 59
2, 158760, Note_on_c, 0, 73, 0
2, 158760, Note_on_c, 0, 72, 59
2, 158880, Note_on_c, 0, 72, 0
2, 158880, Note_on_c, 0, 80, 58
2, 159000, Note_on_c, 0, 80, 0
2, 159000, Note_on_c, 0, 78, 58
2, 159120, Note_on_c, 0, 78, 0
2, 159120, Note_on_c, 0, 76, 58
2, 159240, Note_on_c, 0, 76, 0
2, 159240, Note_on_c, 0, 75, 58
2, 159360, Note_on_c, 0, 75, 0
2, 159360, Note_on_c, 0, 76, 58
2, 159480, Note_on_c, 0, 76, 0
2, 159480, Note_on_c, 0, 80, 58
2, 159600, Note_on_c, 0, 80, 0
2, 159600, Note_on_c, 0, 78, 57
2, 159720, Note_on_c, 0, 78, 0
2, 159720, Note_on_c, 0, 76, 57
2, 159840, Note_on_c, 0, 76, 0
2, 159840, Note_on_c, 0, 78, 57
2, 159960, Note_on_c, 0, 78, 0
2, 159960, Note_on_c, 0, 76, 57
2, 160080, Note_on_c, 0, 76, 0
2, 160080, Note_on_c, 0, 75, 57
2, 160200, Note_on_c, 0, 75, 0
2, 160200, Note_on_c, 0, 73, 56
2, 160320, Note_on_c, 0, 73, 0
2, 160320, Note_on_c, 0, 70, 56
2, 160440, Note_on_c, 0, 70, 0
2, 160440, Note_on_c, 0, 73, 56
2, 160560, Note_on_c, 0, 73, 0
2, 160560, Note_on_c, 0, 71, 56
2, 160680, Note_on_c, 0, 71, 0
2, 160680, Note_on_c, 0, 70, 56
2, 160800, Note_on_c, 0, 70, 0
2, 160800, Note_on_c, 0, 78, 56
2, 160920, Note_on_c, 0, 78, 0
2, 160920, Note_on_c, 0, 76, 55
2, 161040, Note_on_c, 0, 76, 0
2, 161040, Note_on_c, 0, 75, 55
2, 161160, Note_on_c, 0, 75, 0
2, 161160, Note_on_c, 0, 73, 55
2, 161280, Note_on_c, 0, 73, 0
2, 161280, Note_on_c, 0, 71, 55
2, 161400, Note_on_c, 0, 71, 0
2, 161400, Note_on_c, 0, 75, 55
2, 161520, Note_on_c, 0, 75, 0
2, 161520, Note_on_c, 0, 73, 54
2, 161640, Note_on_c, 0, 73, 0
2, 161640, Note_on_c, 0, 71, 54
2, 161760, Note_on_c, 0, 71, 0
2, 161760, Note_on_c, 0, 78, 54
2, 161880, Note_on_c, 0, 78, 0
2, 161880, Note_on_c, 0, 76, 54
2, 162000, Note_on_c, 0, 76, 0
2, 162000, Note_on_c, 0, 75, 54
2, 162120, Note_on_c, 0, 75, 0
2, 162120, Note_on_c, 0, 73, 53
2, 162240, Note_on_c, 0, 73, 0
2, 162240, Note_on_c, 0, 71, 53
2, 162360, Note_on_c, 0, 71, 0
2, 162360, Note_on_c, 0, 75, 53
2, 162480, Note_on_c, 0, 75, 0
2, 162480, Note_on_c, 0, 73, 53
2, 162600, Note_on_c, 0, 73, 0
2, 162600, Note_on_c, 0, 71, 53
2, 162720, Note_on_c, 0, 71, 0
2, 162720, Note_on_c, 0, 78, 55
2, 162840, Note_on_c, 0, 78, 0
2, 162840, Note_on_c, 0, 76, 58
2, 162960, Note_on_c, 0, 76, 0
2, 162960, Note_on_c, 0, 75, 60
2, 163080, Note_on_c, 0, 75, 0
2, 163080, Note_on_c, 0, 73, 60
2, 163200, Note_on_c, 0, 73, 0
2, 163200, Note_on_c, 0, 71, 61
2, 163320, Note_on_c, 0, 71, 0
2, 163320, Note_on_c, 0, 75, 62
2, 163440, Note_on_c, 0, 75, 0
2, 163440, Note_on_c, 0, 73, 63
2, 163560, Note_on_c, 0, 73, 0
2, 163560, Note_on_c, 0, 71, 64
2, 163680, Note_on_c, 0, 71, 0
2, 163680, Note_on_c, 0, 83, 67
2, 163800, Note_on_c, 0, 83, 0
2, 163800, Note_on_c, 0, 82, 66
2, 163920, Note_on_c, 0, 82, 0
2, 163920, Note_on_c, 0, 80, 67
2, 164040, Note_on_c, 0, 80, 0
2, 164040, Note_on_c, 0, 78, 68
2, 164160, Note_on_c, 0, 78, 0
2, 164160, Note_on_c, 0, 77, 69
2, 164280, Note_on_c, 0, 77, 0
2, 164280, Note_on_c, 0, 80, 70
2, 164400, Note_on_c, 0, 80, 0
2, 164400, Note_on_c, 0, 78, 71
2, 164520, Note_on_c, 0, 78, 0
2, 164520, Note_on_c, 0, 77, 72
2, 164640, Note_on_c, 0, 77, 0
2, 164640, Note_on_c, 0, 83, 75
2, 164760, Note_on_c, 0, 83, 0
2, 164760, Note_on_c, 0, 82, 74
2, 164880, Note_on_c, 0, 82, 0
2, 164880, Note_on_c, 0, 80, 75
2, 165000, Note_on_c, 0, 80, 0
2, 165000, Note_on_c, 0, 78, 76
2, 165120, Note_on_c, 0, 78, 0
2, 165120, Note_on_c, 0, 77, 77
2, 165240, Note_on_c, 0, 77, 0
2, 165240, Note_on_c, 0, 80, 78
2, 165360, Note_on_c, 0, 80, 0
2, 165360, Note_on_c, 0, 78, 79
2, 165480, Note_on_c, 0, 78, 0
2, 165480, Note_on_c, 0, 77, 80
2, 165600, Note_on_c, 0, 77, 0
2, 165600, Note_on_c, 0, 87, 81
2, 165720, Note_on_c, 0, 87, 0
2, 165720, Note_on_c, 0, 85, 82
2, 165840, Note_on_c, 0, 85, 0
2, 165840, Note_on_c, 0, 83, 83
2, 165960, Note_on_c, 0, 83, 0
2, 165960, Note_on_c, 0, 82, 84
2, 166080, Note_on_c, 0, 82, 0
2, 166080, Note_on_c, 0, 80, 85
2, 166200, Note_on_c, 0, 80, 0
2, 166200, Note_on_c, 0, 83, 86
2, 166320, Note_on_c, 0, 83, 0
2, 166320, Note_on_c, 0, 82, 87
2, 166440, Note_on_c, 0, 82, 0
2, 166440, Note_on_c, 0, 80, 88
2, 166560, Note_on_c, 0, 80, 0
2, 166560, Note_on_c, 0, 78, 89
2, 166680, Note_on_c, 0, 78, 0
2, 166680, Note_on_c, 0, 77, 90
2, 166800, Note_on_c, 0, 77, 0
2, 166800, Note_on_c, 0, 75, 91
2, 166920, Note_on_c, 0, 75, 0
2, 166920, Note_on_c, 0, 73, 92
2, 167040, Note_on_c, 0, 73, 0
2, 167040, Note_on_c, 0, 71, 91
2, 167160, Note_on_c, 0, 71, 0
2, 167160, Note_on_c, 0, 75, 93
2, 167280, Note_on_c, 0, 75, 0
2, 167280, Note_on_c, 0, 73, 94
2, 167400, Note_on_c, 0, 73, 0
2, 167400, Note_on_c, 0, 71, 96
2, 167520, Note_on_c, 0, 71, 0
2, 167520, Note_on_c, 0, 70, 97
2, 167640, Note_on_c, 0, 70, 0
2, 167640, Note_on_c, 0, 68, 98
2, 167760, Note_on_c, 0, 66, 100
2, 167768, Note_on_c, 0, 68, 0
2, 167880, Note_on_c, 0, 66, 0
2, 167880, Note_on_c, 0, 65, 101
2, 168000, Note_on_c, 0, 65, 0
2, 168000, Note_on_c, 0, 71, 103
2, 168120, Note_on_c, 0, 71, 0
2, 168120, Note_on_c, 0, 70, 104
2, 168226, Note_on_c, 0, 68, 105
2, 168240, Note_on_c, 0, 70, 0
2, 168346, Note_on_c, 0, 68, 0
2, 168360, Note_on_c, 0, 66, 107
2, 168480, Note_on_c, 0, 66, 0
2, 168480, Note_on_c, 0, 65, 108
2, 168600, Note_on_c, 0, 65, 0
2, 168600, Note_on_c, 0, 63, 110
2, 168720, Note_on_c, 0, 63, 0
2, 168720, Note_on_c, 0, 61, 111
2, 168840, Note_on_c, 0, 61, 0
2, 168840, Note_on_c, 0, 60, 112
2, 168960, Note_on_c, 0, 60, 0
2, 168960, Note_on_c, 0, 61, 122
2, 169920, Note_on_c, 0, 65, 111
2, 170880, Note_on_c, 0, 65, 0
2, 170880, Note_on_c, 0, 61, 0
2, 170880, Note_on_c, 0, 68, 101
2, 172320, Note_on_c, 0, 68, 0
2, 172320, Note_on_c, 0, 70, 59
2, 172680, Note_on_c, 0, 70, 0
2, 172680, Note_on_c, 0, 71, 62
2, 172800, Note_on_c, 0, 71, 0
2, 172800, Note_on_c, 0, 73, 63
2, 173280, Note_on_c, 0, 73, 0
2, 173280, Note_on_c, 0, 66, 62
2, 173760, Note_on_c, 0, 66, 0
2, 173760, Note_on_c, 0, 65, 63
2, 174240, Note_on_c, 0, 65, 0
2, 174240, Note_on_c, 0, 66, 64
2, 174720, Note_on_c, 0, 66, 0
2, 174720, Note_on_c, 0, 71, 66
2, 176160, Note_on_c, 0, 71, 0
2, 176160, Note_on_c, 0, 68, 59
2, 176640, Note_on_c, 0, 68, 0
2, 176640, Note_on_c, 0, 70, 60
2, 177120, Note_on_c, 0, 70, 0
2, 177120, Note_on_c, 0, 75, 62
2, 177600, Note_on_c, 0, 75, 0
2, 177600, Note_on_c, 0, 73, 63
2, 178080, Note_on_c, 0, 73, 0
2, 178080, Note_on_c, 0, 78, 65
2, 178560, Note_on_c, 0, 78, 0
2, 178560, Note_on_c, 0, 77, 70
2, 179040, Note_on_c, 0, 77, 0
2, 179040, Note_on_c, 0, 75, 67
2, 179520, Note_on_c, 0, 75, 0
2, 179520, Note_on_c, 0, 73, 64
2, 180000, Note_on_c, 0, 73, 0
2, 180000, Note_on_c, 0, 70, 62
2, 180120, Note_on_c, 0, 70, 0
2, 180120, Note_on_c, 0, 71, 62
2, 180240, Note_on_c, 0, 71, 0
2, 180240, Note_on_c, 0, 70, 63
2, 180360, Note_on_c, 0, 70, 0
2, 180360, Note_on_c, 0, 66, 63
2, 180480, Note_on_c, 0, 66, 0
2, 180480, Note_on_c, 0, 71, 66
2, 180600, Note_on_c, 0, 71, 0
2, 180600, Note_on_c, 0, 73, 65
2, 180720, Note_on_c, 0, 73, 0
2, 180720, Note_on_c, 0, 71, 63
2, 180840, Note_on_c, 0, 71, 0
2, 180840, Note_on_c, 0, 68, 61
2, 180960, Note_on_c, 0, 68, 0
2, 180960, Note_on_c, 0, 65, 60
2, 181440, Note_on_c, 0, 65, 0
2, 181920, Note_on_c, 0, 71, 70
2, 182040, Note_on_c, 0, 71, 0
2, 182040, Note_on_c, 0, 73, 71
2, 182160, Note_on_c, 0, 73, 0
2, 182160, Note_on_c, 0, 71, 72
2, 182280, Note_on_c, 0, 71, 0
2, 182280, Note_on_c, 0, 68, 74
2, 182400, Note_on_c, 0, 68, 0
2, 182400, Note_on_c, 0, 73, 75
2, 182520, Note_on_c, 0, 73, 0
2, 182520, Note_on_c, 0, 75, 76
2, 182640, Note_on_c, 0, 75, 0
2, 182640, Note_on_c, 0, 73, 73
2, 182760, Note_on_c, 0, 73, 0
2, 182760, Note_on_c, 0, 70, 72
2, 182880, Note_on_c, 0, 70, 0
2, 182880, Note_on_c, 0, 66, 70
2, 183360, Note_on_c, 0, 66, 0
2, 183840, Note_on_c, 0, 70, 79
2, 183960, Note_on_c, 0, 70, 0
2, 183960, Note_on_c, 0, 71, 79
2, 184080, Note_on_c, 0, 71, 0
2, 184080, Note_on_c, 0, 70, 80
2, 184200, Note_on_c, 0, 70, 0
2, 184200, Note_on_c, 0, 66, 80
2, 184320, Note_on_c, 0, 66, 0
2, 184320, Note_on_c, 0, 73, 81
2, 184440, Note_on_c, 0, 73, 0
2, 184440, Note_on_c, 0, 75, 81
2, 184560, Note_on_c, 0, 75, 0
2, 184560, Note_on_c, 0, 73, 79
2, 184680, Note_on_c, 0, 73, 0
2, 184680, Note_on_c, 0, 70, 78
2, 184800, Note_on_c, 0, 70, 0
2, 184800, Note_on_c, 0, 67, 76
2, 185280, Note_on_c, 0, 67, 0
2, 185760, Note_on_c, 0, 73, 87
2, 185880, Note_on_c, 0, 73, 0
2, 185880, Note_on_c, 0, 75, 88
2, 186000, Note_on_c, 0, 75, 0
2, 186000, Note_on_c, 0, 73, 89
2, 186120, Note_on_c, 0, 73, 0
2, 186120, Note_on_c, 0, 70, 89
2, 186240, Note_on_c, 0, 70, 0
2, 186240, Note_on_c, 0, 75, 90
2, 186360, Note_on_c, 0, 75, 0
2, 186360, Note_on_c, 0, 76, 89
2, 186480, Note_on_c, 0, 76, 0
2, 186480, Note_on_c, 0, 75, 88
2, 186600, Note_on_c, 0, 75, 0
2, 186600, Note_on_c, 0, 71, 86
2, 186720, Note_on_c, 0, 71, 0
2, 187680, Note_on_c, 0, 88, 96
2, 187840, Note_on_c, 0, 88, 0
2, 187840, Note_on_c, 0, 87, 97
2, 188000, Note_on_c, 0, 87, 0
2, 188000, Note_on_c, 0, 85, 98
2, 188160, Note_on_c, 0, 85, 0
2, 188160, Note_on_c, 0, 83, 99
2, 188320, Note_on_c, 0, 83, 0
2, 188320, Note_on_c, 0, 81, 99
2, 188480, Note_on_c, 0, 81, 0
2, 188480, Note_on_c, 0, 80, 100
2, 188640, Note_on_c, 0, 80, 0
2, 188640, Note_on_c, 0, 78, 100
2, 188800, Note_on_c, 0, 78, 0
2, 188800, Note_on_c, 0, 76, 101
2, 188960, Note_on_c, 0, 76, 0
2, 188960, Note_on_c, 0, 75, 102
2, 189120, Note_on_c, 0, 75, 0
2, 189120, Note_on_c, 0, 73, 103
2, 189280, Note_on_c, 0, 73, 0
2, 189280, Note_on_c, 0, 71, 103
2, 189440, Note_on_c, 0, 71, 0
2, 189440, Note_on_c, 0, 70, 104
2, 189600, Note_on_c, 0, 70, 0
2, 189600, Note_on_c, 0, 71, 105
2, 189760, Note_on_c, 0, 71, 0
2, 189760, Note_on_c, 0, 73, 105
2, 189920, Note_on_c, 0, 73, 0
2, 189920, Note_on_c, 0, 75, 106
2, 190080, Note_on_c, 0, 75, 0
2, 190080, Note_on_c, 0, 76, 104
2, 190560, Note_on_c, 0, 76, 0
2, 190560, Note_on_c, 0, 78, 100
2, 191040, Note_on_c, 0, 78, 0
2, 191040, Note_on_c, 0, 80, 96
2, 191520, Note_on_c, 0, 80, 0
2, 192000, Note_on_c, 0, 68, 59
2, 192480, Note_on_c, 0, 68, 0
2, 192960, Note_on_c, 0, 69, 60
2, 193440, Note_on_c, 0, 69, 0
2, 193920, Note_on_c, 0, 78, 76
2, 194400, Note_on_c, 0, 78, 0
2, 194400, Note_on_c, 0, 80, 73
2, 194880, Note_on_c, 0, 80, 0
2, 194880, Note_on_c, 0, 81, 70
2, 195360, Note_on_c, 0, 81, 0
2, 195840, Note_on_c, 0, 69, 64
2, 196320, Note_on_c, 0, 69, 0
2, 196800, Note_on_c, 0, 71, 66
2, 197280, Note_on_c, 0, 71, 0
2, 197760, Note_on_c, 0, 80, 81
2, 198240, Note_on_c, 0, 80, 0
2, 198240, Note_on_c, 0, 82, 79
2, 198720, Note_on_c, 0, 82, 0
2, 198720, Note_on_c, 0, 83, 79
2, 199200, Note_on_c, 0, 83, 0
2, 199680, Note_on_c, 0, 74, 70
2, 200160, Note_on_c, 0, 74, 0
2, 200640, Note_on_c, 0, 76, 71
2, 201120, Note_on_c, 0, 76, 0
2, 201600, Note_on_c, 0, 82, 88
2, 202080, Note_on_c, 0, 82, 0
2, 202080, Note_on_c, 0, 83, 84
2, 202560, Note_on_c, 0, 83, 0
2, 202560, Note_on_c, 0, 85, 82
2, 203040, Note_on_c, 0, 85, 0
2, 203520, Note_on_c, 0, 73, 75
2, 204000, Note_on_c, 0, 73, 0
2, 204000, Note_on_c, 0, 75, 76
2, 204480, Note_on_c, 0, 75, 0
2, 204480, Note_on_c, 0, 76, 76
2, 204960, Note_on_c, 0, 76, 0
2, 205440, Note_on_c, 0, 73, 78
2, 205920, Note_on_c, 0, 73, 0
2, 206400, Note_on_c, 0, 76, 79
2, 206880, Note_on_c, 0, 76, 0
2, 207360, Note_on_c, 0, 75, 80
2, 207840, Note_on_c, 0, 75, 0
2, 207840, Note_on_c, 0, 78, 81
2, 207960, Note_on_c, 0, 78, 0
2, 207960, Note_on_c, 0, 80, 82
2, 208080, Note_on_c, 0, 80, 0
2, 208080, Note_on_c, 0, 78, 83
2, 208200, Note_on_c, 0, 78, 0
2, 208200, Note_on_c, 0, 75, 84
2, 208320, Note_on_c, 0, 75, 0
2, 208320, Note_on_c, 0, 83, 84
2, 208800, Note_on_c, 0, 83, 0
2, 209760, Note_on_c, 0, 82, 81
2, 209880, Note_on_c, 0, 82, 0
2, 209880, Note_on_c, 0, 83, 81
2, 209920, Note_on_c, 0, 82, 84
2, 209925, Note_on_c, 0, 83, 0
2, 209960, Note_on_c, 0, 82, 0
2, 209960, Note_on_c, 0, 80, 85
2, 210000, Note_on_c, 0, 80, 0
2, 210000, Note_on_c, 0, 82, 86
2, 210120, Note_on_c, 0, 82, 0
2, 210120, Note_on_c, 0, 83, 86
2, 210240, Note_on_c, 0, 83, 0
2, 210240, Note_on_c, 0, 85, 92
2, 210720, Note_on_c, 0, 85, 0
2, 210720, Note_on_c, 0, 82, 87
2, 211200, Note_on_c, 0, 82, 0
2, 211200, Note_on_c, 0, 79, 79
2, 211320, Note_on_c, 0, 88, 79
2, 211440, Note_on_c, 0, 88, 0
2, 211440, Note_on_c, 0, 87, 79
2, 211560, Note_on_c, 0, 87, 0
2, 211560, Note_on_c, 0, 79, 0
2, 211560, Note_on_c, 0, 79, 78
2, 211680, Note_on_c, 0, 79, 0
2, 211680, Note_on_c, 0, 79, 78
2, 211800, Note_on_c, 0, 88, 78
2, 211920, Note_on_c, 0, 88, 0
2, 211920, Note_on_c, 0, 87, 78
2, 212040, Note_on_c, 0, 87, 0
2, 212040, Note_on_c, 0, 79, 0
2, 212040, Note_on_c, 0, 79, 78
2, 212160, Note_on_c, 0, 79, 0
2, 212160, Note_on_c, 0, 79, 77
2, 212280, Note_on_c, 0, 88, 77
2, 212400, Note_on_c, 0, 88, 0
2, 212400, Note_on_c, 0, 87, 77
2, 212520, Note_on_c, 0, 87, 0
2, 212520, Note_on_c, 0, 79, 0
2, 212520, Note_on_c, 0, 79, 77
2, 212640, Note_on_c, 0, 79, 0
2, 212640, Note_on_c, 0, 79, 76
2, 212760, Note_on_c, 0, 88, 76
2, 212880, Note_on_c, 0, 88, 0
2, 212880, Note_on_c, 0, 87, 76
2, 213000, Note_on_c, 0, 87, 0
2, 213000, Note_on_c, 0, 79, 0
2, 213000, Note_on_c, 0, 79, 76
2, 213120, Note_on_c, 0, 79, 0
2, 213120, Note_on_c, 0, 80, 76
2, 213240, Note_on_c, 0, 88, 75
2, 213360, Note_on_c, 0, 88, 0
2, 213360, Note_on_c, 0, 87, 75
2, 213480, Note_on_c, 0, 87, 0
2, 213480, Note_on_c, 0, 80, 0
2, 213480, Note_on_c, 0, 80, 75
2, 213600, Note_on_c, 0, 80, 0
2, 213600, Note_on_c, 0, 82, 75
2, 213720, Note_on_c, 0, 88, 75
2, 213840, Note_on_c, 0, 88, 0
2, 213840, Note_on_c, 0, 87, 74
2, 213960, Note_on_c, 0, 87, 0
2, 213960, Note_on_c, 0, 82, 0
2, 213960, Note_on_c, 0, 82, 74
2, 214080, Note_on_c, 0, 82, 0
2, 214080, Note_on_c, 0, 83, 74
2, 214200, Note_on_c, 0, 88, 74
2, 214320, Note_on_c, 0, 88, 0
2, 214320, Note_on_c, 0, 87, 74
2, 214435, Note_on_c, 0, 83, 0
2, 214440, Note_on_c, 0, 87, 0
2, 214440, Note_on_c, 0, 83, 74
2, 214560, Note_on_c, 0, 83, 0
2, 214560, Control_c, 0, 64, 127
2, 214560, Note_on_c, 0, 92, 73
2, 214680, Note_on_c, 0, 92, 0
2, 214680, Note_on_c, 0, 87, 73
2, 214800, Note_on_c, 0, 87, 0
2, 214800, Note_on_c, 0, 83, 73
2, 214920, Note_on_c, 0, 83, 0
2, 214920, Note_on_c, 0, 80, 72
2, 215040, Note_on_c, 0, 80, 0
2, 215040, Control_c, 0, 64, 0
2, 215040, Note_on_c, 0, 89, 72
2, 215400, Note_on_c, 0, 89, 0
2, 215400, Note_on_c, 0, 89, 72
2, 215520, Note_on_c, 0, 89, 0
2, 215520, Note_on_c, 0, 92, 71
2, 215880, Note_on_c, 0, 92, 0
2, 215880, Note_on_c, 0, 90, 71
2, 216000, Note_on_c, 0, 90, 0
2, 216000, Note_on_c, 0, 89, 71
2, 216360, Note_on_c, 0, 89, 0
2, 216360, Note_on_c, 0, 89, 70
2, 216480, Note_on_c, 0, 89, 0
2, 216480, Note_on_c, 0, 92, 70
2, 216840, Note_on_c, 0, 92, 0
2, 216840, Note_on_c, 0, 90, 69
2, 216960, Note_on_c, 0, 90, 0
2, 216960, Note_on_c, 0, 89, 69
2, 217320, Note_on_c, 0, 89, 0
2, 217320, Note_on_c, 0, 89, 68
2, 217440, Note_on_c, 0, 89, 0
2, 217440, Note_on_c, 0, 92, 68
2, 217800, Note_on_c, 0, 92, 0
2, 217800, Note_on_c, 0, 92, 67
2, 217920, Note_on_c, 0, 92, 0
2, 217920, Note_on_c, 0, 85, 67
2, 218280, Note_on_c, 0, 85, 0
2, 218280, Note_on_c, 0, 85, 67
2, 218400, Note_on_c, 0, 85, 0
2, 218400, Note_on_c, 0, 87, 66
2, 218760, Note_on_c, 0, 87, 0
2, 218760, Note_on_c, 0, 87, 66
2, 218880, Note_on_c, 0, 87, 0
2, 218880, Note_on_c, 0, 89, 66
2, 219240, Note_on_c, 0, 89, 0
2, 219240, Note_on_c, 0, 89, 65
2, 219360, Note_on_c, 0, 89, 0
2, 219360, Note_on_c, 0, 92, 65
2, 219720, Note_on_c, 0, 92, 0
2, 219720, Note_on_c, 0, 90, 64
2, 219840, Note_on_c, 0, 90, 0
2, 219840, Note_on_c, 0, 89, 64
2, 220200, Note_on_c, 0, 89, 0
2, 220200, Note_on_c, 0, 89, 63
2, 220320, Note_on_c, 0, 89, 0
2, 220320, Note_on_c, 0, 92, 63
2, 220680, Note_on_c, 0, 92, 0
2, 220680, Note_on_c, 0, 90, 62
2, 220800, Note_on_c, 0, 90, 0
2, 220800, Note_on_c, 0, 89, 62
2, 221160, Note_on_c, 0, 89, 0
2, 221160, Note_on_c, 0, 89, 62
2, 221280, Note_on_c, 0, 89, 0
2, 221280, Note_on_c, 0, 92, 61
2, 221640, Note_on_c, 0, 92, 0
2, 221640, Note_on_c, 0, 92, 61
2, 221760, Note_on_c, 0, 92, 0
2, 221760, Note_on_c, 0, 85, 60
2, 222120, Note_on_c, 0, 85, 0
2, 222120, Note_on_c, 0, 85, 60
2, 222240, Note_on_c, 0, 85, 0
2, 222240, Note_on_c, 0, 87, 60
2, 222600, Note_on_c, 0, 87, 0
2, 222600, Note_on_c, 0, 87, 61
2, 222720, Note_on_c, 0, 87, 0
2, 222720, Note_on_c, 0, 89, 62
2, 223080, Note_on_c, 0, 89, 0
2, 223080, Note_on_c, 0, 89, 65
2, 223200, Note_on_c, 0, 89, 0
2, 223200, Note_on_c, 0, 90, 66
2, 223560, Note_on_c, 0, 90, 0
2, 223560, Note_on_c, 0, 90, 68
2, 223680, Note_on_c, 0, 90, 0
2, 223680, Note_on_c, 0, 90, 69
2, 224040, Note_on_c, 0, 90, 0
2, 224040, Note_on_c, 0, 90, 72
2, 224160, Note_on_c, 0, 90, 0
2, 224160, Note_on_c, 0, 90, 73
2, 224520, Note_on_c, 0, 90, 0
2, 224520, Note_on_c, 0, 90, 76
2, 224640, Note_on_c, 0, 90, 0
2, 224640, Note_on_c, 0, 90, 79
2, 225000, Note_on_c, 0, 90, 0
2, 225000, Note_on_c, 0, 90, 81
2, 225120, Note_on_c, 0, 90, 0
2, 225120, Note_on_c, 0, 90, 82
2, 225480, Note_on_c, 0, 90, 0
2, 225480, Note_on_c, 0, 90, 84
2, 225600, Note_on_c, 0, 90, 0
2, 225600, Note_on_c, 0, 90, 85
2, 225960, Note_on_c, 0, 90, 0
2, 225960, Note_on_c, 0, 90, 88
2, 226080, Note_on_c, 0, 90, 0
2, 226080, Note_on_c, 0, 90, 88
2, 226440, Note_on_c, 0, 90, 0
2, 226440, Note_on_c, 0, 90, 91
2, 226560, Note_on_c, 0, 90, 0
2, 226560, Note_on_c, 0, 90, 91
2, 226920, Note_on_c, 0, 90, 0
2, 226920, Note_on_c, 0, 90, 94
2, 227040, Note_on_c, 0, 90, 0
2, 227040, Note_on_c, 0, 90, 94
2, 227400, Note_on_c, 0, 90, 0
2, 227400, Note_on_c, 0, 90, 97
2, 227520, Note_on_c, 0, 90, 0
2, 227520, Note_on_c, 0, 90, 98
2, 227880, Note_on_c, 0, 90, 0
2, 227880, Note_on_c, 0, 90, 100
2, 228000, Note_on_c, 0, 90, 0
2, 228000, Note_on_c, 0, 90, 101
2, 228360, Note_on_c, 0, 90, 0
2, 228360, Note_on_c, 0, 90, 103
2, 228480, Note_on_c, 0, 90, 0
2, 228480, Note_on_c, 0, 90, 103
2, 228840, Note_on_c, 0, 90, 0
2, 228840, Note_on_c, 0, 90, 104
2, 228960, Note_on_c, 0, 90, 0
2, 228960, Note_on_c, 0, 90, 104
2, 229320, Note_on_c, 0, 90, 0
2, 229320, Note_on_c, 0, 90, 105
2, 229440, Note_on_c, 0, 90, 0
2, 229440, Note_on_c, 0, 89, 106
2, 229800, Note_on_c, 0, 89, 0
2, 229800, Note_on_c, 0, 89, 107
2, 229920, Note_on_c, 0, 89, 0
2, 229920, Note_on_c, 0, 89, 107
2, 230280, Note_on_c, 0, 89, 0
2, 230280, Note_on_c, 0, 89, 108
2, 230400, Note_on_c, 0, 89, 0
2, 230400, Note_on_c, 0, 90, 110
2, 230880, Note_on_c, 0, 90, 0
2, 231360, Note_on_c, 0, 82, 58
2, 231520, Note_on_c, 0, 82, 0
2, 231520, Note_on_c, 0, 78, 58
2, 231680, Note_on_c, 0, 78, 0
2, 231680, Note_on_c, 0, 73, 59
2, 231840, Note_on_c, 0, 73, 0
2, 231840, Note_on_c, 0, 75, 60
2, 232000, Note_on_c, 0, 75, 0
2, 232000, Note_on_c, 0, 78, 61
2, 232160, Note_on_c, 0, 78, 0
2, 232160, Note_on_c, 0, 75, 61
2, 232320, Note_on_c, 0, 75, 0
2, 232320, Note_on_c, 0, 73, 62
2, 232480, Note_on_c, 0, 73, 0
2, 232480, Note_on_c, 0, 78, 63
2, 232640, Note_on_c, 0, 78, 0
2, 232640, Note_on_c, 0, 80, 64
2, 232800, Note_on_c, 0, 80, 0
2, 232800, Note_on_c, 0, 82, 64
2, 232960, Note_on_c, 0, 82, 0
2, 232960, Note_on_c, 0, 78, 65
2, 233120, Note_on_c, 0, 78, 0
2, 233120, Note_on_c, 0, 85, 66
2, 233280, Note_on_c, 0, 85, 0
2, 233280, Note_on_c, 0, 82, 67
2, 233440, Note_on_c, 0, 82, 0
2, 233440, Note_on_c, 0, 78, 66
2, 233600, Note_on_c, 0, 78, 0
2, 233600, Note_on_c, 0, 73, 65
2, 233760, Note_on_c, 0, 73, 0
2, 233760, Note_on_c, 0, 71, 64
2, 233920, Note_on_c, 0, 71, 0
2, 233920, Note_on_c, 0, 68, 63
2, 234080, Note_on_c, 0, 68, 0
2, 234080, Note_on_c, 0, 73, 63
2, 234240, Note_on_c, 0, 73, 0
2, 234240, Note_on_c, 0, 70, 62
2, 234720, Note_on_c, 0, 70, 0
2, 234720, Note_on_c, 0, 73, 63
2, 234880, Note_on_c, 0, 73, 0
2, 234880, Note_on_c, 0, 78, 64
2, 235040, Note_on_c, 0, 78, 0
2, 235040, Note_on_c, 0, 80, 64
2, 235200, Note_on_c, 0, 80, 0
2, 235200, Note_on_c, 0, 82, 65
2, 235360, Note_on_c, 0, 82, 0
2, 235360, Note_on_c, 0, 78, 66
2, 235520, Note_on_c, 0, 78, 0
2, 235520, Note_on_c, 0, 73, 66
2, 235680, Note_on_c, 0, 73, 0
2, 235680, Note_on_c, 0, 75, 67
2, 235840, Note_on_c, 0, 75, 0
2, 235840, Note_on_c, 0, 78, 68
2, 236000, Note_on_c, 0, 78, 0
2, 236000, Note_on_c, 0, 75, 68
2, 236160, Note_on_c, 0, 75, 0
2, 236160, Note_on_c, 0, 73, 69
2, 236320, Note_on_c, 0, 73, 0
2, 236320, Note_on_c, 0, 78, 70
2, 236480, Note_on_c, 0, 78, 0
2, 236480, Note_on_c, 0, 80, 70
2, 236640, Note_on_c, 0, 80, 0
2, 236640, Note_on_c, 0, 82, 71
2, 236800, Note_on_c, 0, 82, 0
2, 236800, Note_on_c, 0, 78, 72
2, 236960, Note_on_c, 0, 78, 0
2, 236960, Note_on_c, 0, 85, 72
2, 237120, Note_on_c, 0, 85, 0
2, 237120, Note_on_c, 0, 79, 88
2, 237600, Note_on_c, 0, 79, 0
2, 237600, Note_on_c, 0, 80, 87
2, 238080, Note_on_c, 0, 80, 0
2, 238080, Note_on_c, 0, 77, 83
2, 239040, Note_on_c, 0, 77, 0
2, 239040, Note_on_c, 0, 71, 74
2, 239160, Note_on_c, 0, 71, 0
2, 239160, Note_on_c, 0, 73, 75
2, 239280, Note_on_c, 0, 73, 0
2, 239280, Note_on_c, 0, 71, 75
2, 239400, Note_on_c, 0, 71, 0
2, 239400, Note_on_c, 0, 70, 75
2, 239520, Note_on_c, 0, 70, 0
2, 239520, Note_on_c, 0, 71, 76
2, 239640, Note_on_c, 0, 71, 0
2, 239640, Note_on_c, 0, 80, 76
2, 239760, Note_on_c, 0, 80, 0
2, 239760, Note_on_c, 0, 78, 77
2, 239880, Note_on_c, 0, 78, 0
2, 239880, Note_on_c, 0, 77, 77
2, 240000, Note_on_c, 0, 77, 0
2, 240000, Note_on_c, 0, 78, 78
2, 240120, Note_on_c, 0, 78, 0
2, 240120, Note_on_c, 0, 73, 78
2, 240240, Note_on_c, 0, 73, 0
2, 240240, Note_on_c, 0, 70, 78
2, 240360, Note_on_c, 0, 70, 0
2, 240360, Note_on_c, 0, 73, 79
2, 240480, Note_on_c, 0, 73, 0
2, 240480, Note_on_c, 0, 78, 79
2, 240600, Note_on_c, 0, 78, 0
2, 240600, Note_on_c, 0, 82, 80
2, 240720, Note_on_c, 0, 82, 0
2, 240720, Note_on_c, 0, 85, 80
2, 240840, Note_on_c, 0, 85, 0
2, 240840, Note_on_c, 0, 90, 83
2, 240960, Note_on_c, 0, 90, 0
2, 240960, Note_on_c, 0, 91, 94
2, 241440, Note_on_c, 0, 91, 0
2, 241440, Note_on_c, 0, 92, 91
2, 241920, Note_on_c, 0, 92, 0
2, 241920, Note_on_c, 0, 89, 87
2, 242880, Note_on_c, 0, 89, 0
2, 242880, Note_on_c, 0, 83, 77
2, 243000, Note_on_c, 0, 83, 0
2, 243000, Note_on_c, 0, 85, 77
2, 243120, Note_on_c, 0, 85, 0
2, 243120, Note_on_c, 0, 83, 77
2, 243240, Note_on_c, 0, 83, 0
2, 243240, Note_on_c, 0, 82, 76
2, 243360, Note_on_c, 0, 82, 0
2, 243360, Note_on_c, 0, 83, 77
2, 243480, Note_on_c, 0, 83, 0
2, 243480, Note_on_c, 0, 92, 76
2, 243600, Note_on_c, 0, 92, 0
2, 243600, Note_on_c, 0, 90, 76
2, 243720, Note_on_c, 0, 90, 0
2, 243720, Note_on_c, 0, 89, 75
2, 243840, Note_on_c, 0, 89, 0
2, 243840, Note_on_c, 0, 90, 75
2, 243960, Note_on_c, 0, 90, 0
2, 243960, Note_on_c, 0, 85, 75
2, 244080, Note_on_c, 0, 85, 0
2, 244080, Note_on_c, 0, 82, 74
2, 244200, Note_on_c, 0, 82, 0
2, 244200, Note_on_c, 0, 78, 74
2, 244320, Note_on_c, 0, 78, 0
2, 244320, Note_on_c, 0, 73, 74
2, 244440, Note_on_c, 0, 73, 0
2, 244440, Note_on_c, 0, 78, 74
2, 244560, Note_on_c, 0, 78, 0
2, 244560, Note_on_c, 0, 73, 73
2, 244680, Note_on_c, 0, 73, 0
2, 244680, Note_on_c, 0, 70, 73
2, 244800, Note_on_c, 0, 70, 0
2, 244800, Note_on_c, 0, 71, 73
2, 244920, Note_on_c, 0, 71, 0
2, 244920, Note_on_c, 0, 73, 73
2, 245040, Note_on_c, 0, 73, 0
2, 245040, Note_on_c, 0, 71, 72
2, 245160, Note_on_c, 0, 71, 0
2, 245160, Note_on_c, 0, 70, 72
2, 245280, Note_on_c, 0, 70, 0
2, 245280, Note_on_c, 0, 71, 72
2, 245400, Note_on_c, 0, 71, 0
2, 245400, Note_on_c, 0, 80, 72
2, 245520, Note_on_c, 0, 80, 0
2, 245520, Note_on_c, 0, 78, 71
2, 245640, Note_on_c, 0, 78, 0
2, 245640, Note_on_c, 0, 77, 71
2, 245760, Note_on_c, 0, 77, 0
2, 245760, Note_on_c, 0, 78, 71
2, 245880, Note_on_c, 0, 78, 0
2, 245880, Note_on_c, 0, 73, 70
2, 246000, Note_on_c, 0, 73, 0
2, 246000, Note_on_c, 0, 70, 70
2, 246120, Note_on_c, 0, 70, 0
2, 246120, Note_on_c, 0, 66, 70
2, 246240, Note_on_c, 0, 66, 0
2, 246240, Note_on_c, 0, 61, 70
2, 246360, Note_on_c, 0, 61, 0
2, 246360, Note_on_c, 0, 66, 69
2, 246480, Note_on_c, 0, 66, 0
2, 246480, Note_on_c, 0, 61, 69
2, 246600, Note_on_c, 0, 61, 0
2, 246600, Note_on_c, 0, 58, 69
2, 246720, Note_on_c, 0, 58, 0
2, 247200, Note_on_c, 0, 71, 67
2, 247680, Note_on_c, 0, 71, 0
2, 248160, Note_on_c, 0, 71, 65
2, 248640, Note_on_c, 0, 71, 0
2, 249120, Note_on_c, 0, 73, 63
2, 249600, Note_on_c, 0, 73, 0
2, 250080, Note_on_c, 0, 73, 61
2, 250560, Note_on_c, 0, 73, 0
2, 251040, Note_on_c, 0, 70, 67
2, 251400, Note_on_c, 0, 70, 0
2, 251400, Note_on_c, 0, 71, 71
2, 251520, Note_on_c, 0, 71, 0
2, 252000, Note_on_c, 0, 73, 57
2, 252480, Note_on_c, 0, 73, 0
2, 252960, Note_on_c, 0, 70, 69
2, 253320, Note_on_c, 0, 70, 0
2, 253320, Note_on_c, 0, 71, 72
2, 253440, Note_on_c, 0, 71, 0
2, 253440, Note_on_c, 0, 73, 74
2, 253920, Note_on_c, 0, 73, 0
2, 253920, Note_on_c, 0, 66, 68
2, 254400, Note_on_c, 0, 66, 0
2, 254400, Note_on_c, 0, 67, 70
2, 254880, Note_on_c, 0, 67, 0
2, 254880, Note_on_c, 0, 66, 73
2, 255360, Note_on_c, 0, 66, 0
2, 255360, Note_on_c, 0, 76, 75
2, 255840, Note_on_c, 0, 76, 0
2, 255840, Note_on_c, 0, 73, 77
2, 256320, Note_on_c, 0, 73, 0
2, 256320, Note_on_c, 0, 74, 79
2, 256800, Note_on_c, 0, 74, 0
2, 256800, Note_on_c, 0, 71, 81
2, 257280, Note_on_c, 0, 71, 0
2, 257280, Note_on_c, 0, 83, 85
2, 257760, Note_on_c, 0, 83, 0
2, 257760, Note_on_c, 0, 80, 87
2, 258240, Note_on_c, 0, 80, 0
2, 258240, Note_on_c, 0, 86, 95
2, 258720, Note_on_c, 0, 86, 0
2, 258720, Note_on_c, 0, 85, 83
2, 259200, Note_on_c, 0, 85, 0
2, 259680, Note_on_c, 0, 85, 73
2, 260160, Note_on_c, 0, 85, 0
2, 260640, Note_on_c, 0, 85, 80
2, 261120, Note_on_c, 0, 85, 0
2, 261600, Note_on_c, 0, 85, 87
2, 262080, Note_on_c, 0, 85, 0
2, 262560, Note_on_c, 0, 85, 95
2, 263040, Note_on_c, 0, 85, 0
2, 263520, Note_on_c, 0, 90, 109
2, 264000, Note_on_c, 0, 90, 0
2, 264000, Note_on_c, 0, 90, 112
2, 264480, Note_on_c, 0, 90, 0
2, 264480, Note_on_c, 0, 90, 115
2, 264960, Note_on_c, 0, 90, 0
2, 264960, Note_on_c, 0, 90, 119
2, 265440, Note_on_c, 0, 90, 0
2, 266880, Control_c, 0, 10, 73
2, 266880, Control_c, 0, 91, 91
2, 266880, Control_c, 0, 93, 28
2, 266880, Control_c, 0, 64, 0
2, 266880, Control_c, 0, 1, 0
2, 266880, Pitch_bend_c, 0, 8192
2, 266880, Control_c, 0, 7, 127
2, 266880, Control_c, 0, 0, 0
2, 266880, Control_c, 0, 32, 0
2, 266880, Program_c, 0, 0
2, 267840, Note_on_c, 0, 72, 94
2, 268560, Note_on_c, 0, 72, 0
2, 268560, Note_on_c, 0, 73, 91
2, 268716, Note_on_c, 0, 73, 0
2, 268800, Note_on_c, 0, 68, 85
2, 268956, Note_on_c, 0, 68, 0
2, 269520, Note_on_c, 0, 70, 63
2, 269676, Note_on_c, 0, 70, 0
2, 269760, Note_on_c, 0, 71, 67
2, 270120, Note_on_c, 0, 71, 0
2, 270120, Note_on_c, 0, 70, 61
2, 270198, Note_on_c, 0, 70, 0
2, 270240, Note_on_c, 0, 68, 59
2, 270396, Note_on_c, 0, 68, 0
2, 270480, Note_on_c, 0, 66, 55
2, 270636, Note_on_c, 0, 66, 0
2, 270720, Note_on_c, 0, 65, 52
2, 270980, Note_on_c, 0, 65, 0
2, 271680, Note_on_c, 0, 73, 96
2, 272400, Note_on_c, 0, 73, 0
2, 272400, Note_on_c, 0, 75, 91
2, 272556, Note_on_c, 0, 75, 0
2, 272640, Note_on_c, 0, 76, 85
2, 272874, Note_on_c, 0, 76, 0
2, 273360, Note_on_c, 0, 78, 65
2, 273516, Note_on_c, 0, 78, 0
2, 273600, Note_on_c, 0, 80, 69
2, 273960, Note_on_c, 0, 80, 0
2, 273960, Note_on_c, 0, 76, 62
2, 274038, Note_on_c, 0, 76, 0
2, 274080, Note_on_c, 0, 75, 60
2, 274236, Note_on_c, 0, 75, 0
2, 274320, Note_on_c, 0, 73, 56
2, 274476, Note_on_c, 0, 73, 0
2, 274560, Note_on_c, 0, 75, 52
2, 274860, Note_on_c, 0, 75, 0
2, 275520, Note_on_c, 0, 71, 62
2, 276240, Note_on_c, 0, 71, 0
2, 276480, Note_on_c, 0, 75, 56
2, 276840, Note_on_c, 0, 75, 0
2, 277200, Note_on_c, 0, 73, 53
2, 277356, Note_on_c, 0, 73, 0
2, 277440, Note_on_c, 0, 71, 56
2, 277800, Note_on_c, 0, 71, 0
2, 277800, Note_on_c, 0, 70, 51
2, 277878, Note_on_c, 0, 70, 0
2, 277920, Note_on_c, 0, 68, 50
2, 278076, Note_on_c, 0, 68, 0
2, 278160, Note_on_c, 0, 73, 49
2, 278316, Note_on_c, 0, 73, 0
2, 278400, Note_on_c, 0, 70, 51
2, 278520, Note_on_c, 0, 70, 0
2, 278640, Note_on_c, 0, 65, 52
2, 278760, Note_on_c, 0, 65, 0
2, 278880, Note_on_c, 0, 71, 54
2, 279000, Note_on_c, 0, 71, 0
2, 279120, Note_on_c, 0, 70, 56
2, 279240, Note_on_c, 0, 70, 0
2, 279360, Note_on_c, 0, 75, 58
2, 279480, Note_on_c, 0, 75, 0
2, 279600, Note_on_c, 0, 73, 60
2, 279720, Note_on_c, 0, 73, 0
2, 279840, Note_on_c, 0, 77, 62
2, 279960, Note_on_c, 0, 77, 0
2, 280080, Note_on_c, 0, 77, 64
2, 280200, Note_on_c, 0, 77, 0
2, 280320, Note_on_c, 0, 78, 66
2, 280440, Note_on_c, 0, 78, 0
2, 280560, Note_on_c, 0, 78, 68
2, 280680, Note_on_c, 0, 78, 0
2, 280800, Note_on_c, 0, 78, 70
2, 280920, Note_on_c, 0, 78, 0
2, 281040, Note_on_c, 0, 82, 72
2, 281160, Note_on_c, 0, 82, 0
2, 281280, Note_on_c, 0, 82, 74
2, 281400, Note_on_c, 0, 82, 0
2, 281520, Note_on_c, 0, 82, 75
2, 281640, Note_on_c, 0, 82, 0
2, 281760, Note_on_c, 0, 80, 77
2, 281880, Note_on_c, 0, 80, 0
2, 282000, Note_on_c, 0, 77, 79
2, 282120, Note_on_c, 0, 77, 0
2, 282240, Note_on_c, 0, 82, 61
2, 282360, Note_on_c, 0, 82, 0
2, 282480, Note_on_c, 0, 70, 62
2, 282600, Note_on_c, 0, 70, 0
2, 282720, Note_on_c, 0, 71, 64
2, 282840, Note_on_c, 0, 71, 0
2, 282960, Note_on_c, 0, 70, 66
2, 283080, Note_on_c, 0, 70, 0
2, 283200, Note_on_c, 0, 75, 67
2, 283320, Note_on_c, 0, 75, 0
2, 283440, Note_on_c, 0, 73, 69
2, 283560, Note_on_c, 0, 73, 0
2, 283680, Note_on_c, 0, 77, 71
2, 283800, Note_on_c, 0, 77, 0
2, 283920, Note_on_c, 0, 77, 73
2, 284040, Note_on_c, 0, 77, 0
2, 284160, Note_on_c, 0, 78, 74
2, 284280, Note_on_c, 0, 78, 0
2, 284400, Note_on_c, 0, 78, 76
2, 284520, Note_on_c, 0, 78, 0
2, 284640, Note_on_c, 0, 78, 78
2, 284760, Note_on_c, 0, 78, 0
2, 284880, Note_on_c, 0, 82, 79
2, 285000, Note_on_c, 0, 82, 0
2, 285120, Note_on_c, 0, 82, 81
2, 285240, Note_on_c, 0, 82, 0
2, 285360, Note_on_c, 0, 82, 83
2, 285480, Note_on_c, 0, 82, 0
2, 285600, Note_on_c, 0, 80, 85
2, 285720, Note_on_c, 0, 80, 0
2, 285840, Note_on_c, 0, 77, 86
2, 285960, Note_on_c, 0, 77, 0
2, 286080, Note_on_c, 0, 82, 88
2, 286200, Note_on_c, 0, 82, 0
2, 286320, Note_on_c, 0, 82, 90
2, 286320, Note_on_c, 0, 78, 90
2, 286440, Note_on_c, 0, 78, 0
2, 286440, Note_on_c, 0, 82, 0
2, 286560, Note_on_c, 0, 78, 91
2, 286680, Note_on_c, 0, 78, 0
2, 286800, Note_on_c, 0, 78, 93
2, 286920, Note_on_c, 0, 78, 0
2, 287040, Note_on_c, 0, 78, 95
2, 287160, Note_on_c, 0, 78, 0
2, 287280, Note_on_c, 0, 78, 97
2, 287400, Note_on_c, 0, 78, 0
2, 287520, Note_on_c, 0, 78, 98
2, 287640, Note_on_c, 0, 78, 0
2, 287760, Note_on_c, 0, 78, 100
2, 287880, Note_on_c, 0, 78, 0
2, 288000, Note_on_c, 0, 80, 102
2, 288240, Note_on_c, 0, 80, 0
2, 288240, Note_on_c, 0, 60, 92
2, 288360, Note_on_c, 0, 60, 0
2, 288480, Note_on_c, 0, 60, 87
2, 288600, Note_on_c, 0, 60, 0
2, 288720, Note_on_c, 0, 64, 84
2, 288840, Note_on_c, 0, 64, 0
2, 288960, Note_on_c, 0, 64, 83
2, 289080, Note_on_c, 0, 64, 0
2, 289200, Note_on_c, 0, 67, 82
2, 289320, Note_on_c, 0, 67, 0
2, 289440, Note_on_c, 0, 67, 81
2, 289560, Note_on_c, 0, 67, 0
2, 289680, Note_on_c, 0, 72, 80
2, 289800, Note_on_c, 0, 72, 0
2, 289920, Note_on_c, 0, 72, 79
2, 290040, Note_on_c, 0, 72, 0
2, 290160, Note_on_c, 0, 76, 78
2, 290280, Note_on_c, 0, 76, 0
2, 290400, Note_on_c, 0, 76, 77
2, 290520, Note_on_c, 0, 76, 0
2, 290640, Note_on_c, 0, 79, 76
2, 290760, Note_on_c, 0, 79, 0
2, 290880, Note_on_c, 0, 79, 74
2, 291000, Note_on_c, 0, 79, 0
2, 291120, Note_on_c, 0, 84, 73
2, 291240, Note_on_c, 0, 84, 0
2, 291360, Note_on_c, 0, 84, 72
2, 291480, Note_on_c, 0, 84, 0
2, 291600, Note_on_c, 0, 88, 71
2, 291720, Note_on_c, 0, 88, 0
2, 291840, Note_on_c, 0, 88, 70
2, 291960, Note_on_c, 0, 88, 0
2, 292080, Note_on_c, 0, 91, 69
2, 292200, Note_on_c, 0, 91, 0
2, 292320, Note_on_c, 0, 84, 68
2, 292440, Note_on_c, 0, 84, 0
2, 292560, Note_on_c, 0, 88, 67
2, 292680, Note_on_c, 0, 88, 0
2, 292800, Note_on_c, 0, 79, 66
2, 292920, Note_on_c, 0, 79, 0
2, 293040, Note_on_c, 0, 84, 65
2, 293160, Note_on_c, 0, 84, 0
2, 293280, Note_on_c, 0, 76, 64
2, 293400, Note_on_c, 0, 76, 0
2, 293520, Note_on_c, 0, 79, 62
2, 293640, Note_on_c, 0, 79, 0
2, 293760, Note_on_c, 0, 72, 61
2, 293880, Note_on_c, 0, 72, 0
2, 294000, Note_on_c, 0, 76, 60
2, 294120, Note_on_c, 0, 76, 0
2, 294240, Note_on_c, 0, 67, 59
2, 294360, Note_on_c, 0, 67, 0
2, 294480, Note_on_c, 0, 72, 58
2, 294600, Note_on_c, 0, 72, 0
2, 294720, Note_on_c, 0, 64, 57
2, 294840, Note_on_c, 0, 64, 0
2, 294960, Note_on_c, 0, 72, 56
2, 295080, Note_on_c, 0, 72, 0
2, 295200, Note_on_c, 0, 60, 55
2, 295320, Note_on_c, 0, 60, 0
2, 295440, Note_on_c, 0, 72, 54
2, 295560, Note_on_c, 0, 72, 0
2, 295680, Note_on_c, 0, 60, 53
2, 295800, Note_on_c, 0, 60, 0
2, 295920, Note_on_c, 0, 72, 52
2, 296040, Note_on_c, 0, 72, 0
2, 296160, Note_on_c, 0, 48, 51
2, 296280, Note_on_c, 0, 48, 0
2, 296400, Note_on_c, 0, 60, 49
2, 296520, Note_on_c, 0, 60, 0
2, 296640, Note_on_c, 0, 60, 48
2, 296760, Note_on_c, 0, 60, 0
2, 296880, Note_on_c, 0, 72, 47
2, 297000, Note_on_c, 0, 72, 0
2, 297120, Note_on_c, 0, 48, 46
2, 297240, Note_on_c, 0, 48, 0
2, 297360, Note_on_c, 0, 60, 45
2, 297480, Note_on_c, 0, 60, 0
2, 297600, Note_on_c, 0, 72, 94
2, 298320, Note_on_c, 0, 72, 0
2, 298320, Note_on_c, 0, 73, 92
2, 298476, Note_on_c, 0, 73, 0
2, 298560, Note_on_c, 0, 68, 87
2, 298716, Note_on_c, 0, 68, 0
2, 299280, Note_on_c, 0, 70, 62
2, 299436, Note_on_c, 0, 70, 0
2, 299520, Note_on_c, 0, 71, 68
2, 299880, Note_on_c, 0, 71, 0
2, 299880, Note_on_c, 0, 70, 64
2, 299958, Note_on_c, 0, 70, 0
2, 300000, Note_on_c, 0, 68, 62
2, 300156, Note_on_c, 0, 68, 0
2, 300240, Note_on_c, 0, 66, 59
2, 300396, Note_on_c, 0, 66, 0
2, 300480, Note_on_c, 0, 65, 56
2, 300840, Note_on_c, 0, 65, 0
2, 301440, Note_on_c, 0, 73, 94
2, 302160, Note_on_c, 0, 73, 0
2, 302160, Note_on_c, 0, 75, 92
2, 302316, Note_on_c, 0, 75, 0
2, 302400, Note_on_c, 0, 76, 90
2, 302634, Note_on_c, 0, 76, 0
2, 303120, Note_on_c, 0, 78, 62
2, 303276, Note_on_c, 0, 78, 0
2, 303360, Note_on_c, 0, 80, 66
2, 303720, Note_on_c, 0, 80, 0
2, 303720, Note_on_c, 0, 76, 62
2, 303798, Note_on_c, 0, 76, 0
2, 303840, Note_on_c, 0, 75, 61
2, 303996, Note_on_c, 0, 75, 0
2, 304080, Note_on_c, 0, 73, 58
2, 304236, Note_on_c, 0, 73, 0
2, 304320, Note_on_c, 0, 75, 56
2, 304680, Note_on_c, 0, 75, 0
2, 305280, Note_on_c, 0, 71, 56
2, 306000, Note_on_c, 0, 71, 0
2, 306000, Note_on_c, 0, 70, 54
2, 306156, Note_on_c, 0, 70, 0
2, 306240, Note_on_c, 0, 75, 50
2, 306600, Note_on_c, 0, 75, 0
2, 306960, Note_on_c, 0, 73, 46
2, 307116, Note_on_c, 0, 73, 0
2, 307200, Note_on_c, 0, 71, 50
2, 307560, Note_on_c, 0, 71, 0
2, 307560, Note_on_c, 0, 70, 48
2, 307638, Note_on_c, 0, 70, 0
2, 307680, Note_on_c, 0, 68, 48
2, 307836, Note_on_c, 0, 68, 0
2, 307920, Note_on_c, 0, 73, 46
2, 308076, Note_on_c, 0, 73, 0
2, 308160, Note_on_c, 0, 70, 50
2, 308280, Note_on_c, 0, 70, 0
2, 308400, Note_on_c, 0, 65, 52
2, 308520, Note_on_c, 0, 65, 0
2, 308640, Note_on_c, 0, 71, 54
2, 308760, Note_on_c, 0, 71, 0
2, 308880, Note_on_c, 0, 70, 56
2, 309000, Note_on_c, 0, 70, 0
2, 309120, Note_on_c, 0, 75, 58
2, 309240, Note_on_c, 0, 75, 0
2, 309360, Note_on_c, 0, 73, 60
2, 309480, Note_on_c, 0, 73, 0
2, 309600, Note_on_c, 0, 77, 62
2, 309720, Note_on_c, 0, 77, 0
2, 309840, Note_on_c, 0, 77, 64
2, 309960, Note_on_c, 0, 77, 0
2, 310080, Note_on_c, 0, 78, 66
2, 310200, Note_on_c, 0, 78, 0
2, 310320, Note_on_c, 0, 78, 68
2, 310440, Note_on_c, 0, 78, 0
2, 310560, Note_on_c, 0, 78, 70
2, 310680, Note_on_c, 0, 78, 0
2, 310800, Note_on_c, 0, 82, 72
2, 310920, Note_on_c, 0, 82, 0
2, 311040, Note_on_c, 0, 82, 74
2, 311160, Note_on_c, 0, 82, 0
2, 311280, Note_on_c, 0, 82, 76
2, 311400, Note_on_c, 0, 82, 0
2, 311520, Note_on_c, 0, 80, 78
2, 311640, Note_on_c, 0, 80, 0
2, 311760, Note_on_c, 0, 77, 80
2, 311880, Note_on_c, 0, 77, 0
2, 312240, Note_on_c, 0, 70, 71
2, 312360, Note_on_c, 0, 70, 0
2, 312480, Note_on_c, 0, 71, 73
2, 312600, Note_on_c, 0, 71, 0
2, 312720, Note_on_c, 0, 70, 75
2, 312840, Note_on_c, 0, 70, 0
2, 312960, Note_on_c, 0, 75, 76
2, 313080, Note_on_c, 0, 75, 0
2, 313200, Note_on_c, 0, 73, 78
2, 313320, Note_on_c, 0, 73, 0
2, 313440, Note_on_c, 0, 77, 80
2, 313560, Note_on_c, 0, 77, 0
2, 313680, Note_on_c, 0, 77, 81
2, 313800, Note_on_c, 0, 77, 0
2, 313920, Note_on_c, 0, 78, 83
2, 314040, Note_on_c, 0, 78, 0
2, 314160, Note_on_c, 0, 78, 85
2, 314280, Note_on_c, 0, 78, 0
2, 314400, Note_on_c, 0, 78, 86
2, 314520, Note_on_c, 0, 78, 0
2, 314640, Note_on_c, 0, 78, 88
2, 314760, Note_on_c, 0, 78, 0
2, 314880, Note_on_c, 0, 78, 90
2, 315000, Note_on_c, 0, 78, 0
2, 315120, Note_on_c, 0, 78, 91
2, 315240, Note_on_c, 0, 78, 0
2, 315360, Note_on_c, 0, 78, 93
2, 315480, Note_on_c, 0, 78, 0
2, 315600, Note_on_c, 0, 78, 95
2, 315720, Note_on_c, 0, 78, 0
2, 315840, Note_on_c, 0, 77, 96
2, 316080, Note_on_c, 0, 77, 0
2, 316080, Note_on_c, 0, 71, 89
2, 316200, Note_on_c, 0, 71, 0
2, 316320, Note_on_c, 0, 70, 83
2, 316440, Note_on_c, 0, 70, 0
2, 316560, Note_on_c, 0, 70, 80
2, 316680, Note_on_c, 0, 70, 0
2, 316800, Note_on_c, 0, 68, 78
2, 316920, Note_on_c, 0, 68, 0
2, 317040, Note_on_c, 0, 68, 77
2, 317160, Note_on_c, 0, 68, 0
2, 317280, Note_on_c, 0, 66, 75
2, 317400, Note_on_c, 0, 66, 0
2, 317520, Note_on_c, 0, 66, 74
2, 317640, Note_on_c, 0, 66, 0
2, 317760, Note_on_c, 0, 65, 73
2, 317880, Note_on_c, 0, 65, 0
2, 318000, Note_on_c, 0, 65, 71
2, 318120, Note_on_c, 0, 65, 0
2, 318240, Note_on_c, 0, 63, 70
2, 318360, Note_on_c, 0, 63, 0
2, 318480, Note_on_c, 0, 63, 68
2, 318600, Note_on_c, 0, 63, 0
2, 318720, Note_on_c, 0, 61, 67
2, 318840, Note_on_c, 0, 61, 0
2, 318960, Note_on_c, 0, 61, 66
2, 319080, Note_on_c, 0, 61, 0
2, 319200, Note_on_c, 0, 59, 64
2, 319320, Note_on_c, 0, 59, 0
2, 319440, Note_on_c, 0, 59, 63
2, 319560, Note_on_c, 0, 59, 0
2, 319680, Note_on_c, 0, 58, 61
2, 319800, Note_on_c, 0, 58, 0
2, 319920, Note_on_c, 0, 58, 60
2, 320040, Note_on_c, 0, 58, 0
2, 320160, Note_on_c, 0, 58, 59
2, 320280, Note_on_c, 0, 58, 0
2, 320400, Note_on_c, 0, 58, 57
2, 320520, Note_on_c, 0, 58, 0
2, 320640, Note_on_c, 0, 58, 56
2, 320760, Note_on_c, 0, 58, 0
2, 320880, Note_on_c, 0, 58, 54
2, 321000, Note_on_c, 0, 58, 0
2, 321120, Note_on_c, 0, 58, 53
2, 321240, Note_on_c, 0, 58, 0
2, 321360, Note_on_c, 0, 58, 52
2, 321480, Note_on_c, 0, 58, 0
2, 321600, Control_c, 0, 64, 127
2, 321840, Note_on_c, 0, 58, 110
2, 321960, Note_on_c, 0, 58, 0
2, 322080, Note_on_c, 0, 63, 108
2, 322200, Note_on_c, 0, 63, 0
2, 322320, Note_on_c, 0, 67, 106
2, 322440, Note_on_c, 0, 67, 0
2, 322560, Note_on_c, 0, 70, 104
2, 322680, Note_on_c, 0, 70, 0
2, 322800, Note_on_c, 0, 75, 102
2, 322920, Note_on_c, 0, 75, 0
2, 323040, Note_on_c, 0, 79, 100
2, 323160, Note_on_c, 0, 79, 0
2, 323280, Note_on_c, 0, 82, 98
2, 323400, Note_on_c, 0, 82, 0
2, 323520, Note_on_c, 0, 91, 95
2, 323760, Note_on_c, 0, 91, 0
2, 323760, Control_c, 0, 64, 0
2, 323760, Note_on_c, 0, 66, 70
2, 323880, Note_on_c, 0, 66, 0
2, 324000, Note_on_c, 0, 63, 68
2, 324120, Note_on_c, 0, 63, 0
2, 324240, Note_on_c, 0, 66, 67
2, 324360, Note_on_c, 0, 66, 0
2, 324480, Note_on_c, 0, 63, 66
2, 324600, Note_on_c, 0, 63, 0
2, 324720, Note_on_c, 0, 66, 64
2, 324840, Note_on_c, 0, 66, 0
2, 324960, Note_on_c, 0, 68, 63
2, 325080, Note_on_c, 0, 68, 0
2, 325200, Note_on_c, 0, 65, 62
2, 325320, Note_on_c, 0, 65, 0
2, 325440, Control_c, 0, 64, 127
2, 325680, Note_on_c, 0, 58, 102
2, 325800, Note_on_c, 0, 58, 0
2, 325920, Note_on_c, 0, 63, 100
2, 326040, Note_on_c, 0, 63, 0
2, 326160, Note_on_c, 0, 67, 99
2, 326280, Note_on_c, 0, 67, 0
2, 326400, Note_on_c, 0, 70, 97
2, 326520, Note_on_c, 0, 70, 0
2, 326640, Note_on_c, 0, 75, 95
2, 326760, Note_on_c, 0, 75, 0
2, 326880, Note_on_c, 0, 79, 93
2, 327000, Note_on_c, 0, 79, 0
2, 327120, Note_on_c, 0, 82, 91
2, 327240, Note_on_c, 0, 82, 0
2, 327360, Note_on_c, 0, 91, 89
2, 327600, Note_on_c, 0, 91, 0
2, 327600, Control_c, 0, 64, 0
2, 327600, Note_on_c, 0, 66, 66
2, 327720, Note_on_c, 0, 66, 0
2, 327840, Note_on_c, 0, 63, 65
2, 327960, Note_on_c, 0, 63, 0
2, 328080, Note_on_c, 0, 66, 63
2, 328200, Note_on_c, 0, 66, 0
2, 328320, Note_on_c, 0, 63, 62
2, 328440, Note_on_c, 0, 63, 0
2, 328560, Note_on_c, 0, 66, 61
2, 328680, Note_on_c, 0, 66, 0
2, 328800, Note_on_c, 0, 68, 60
2, 328920, Note_on_c, 0, 68, 0
2, 329040, Note_on_c, 0, 65, 59
2, 329160, Note_on_c, 0, 65, 0
2, 329280, Note_on_c, 0, 63, 59
2, 329400, Note_on_c, 0, 63, 0
2, 329520, Note_on_c, 0, 66, 62
2, 329640, Note_on_c, 0, 66, 0
2, 329760, Note_on_c, 0, 65, 65
2, 329880, Note_on_c, 0, 65, 0
2, 330000, Note_on_c, 0, 74, 68
2, 330120, Note_on_c, 0, 74, 0
2, 330240, Note_on_c, 0, 66, 71
2, 330360, Note_on_c, 0, 66, 0
2, 330480, Note_on_c, 0, 75, 74
2, 330600, Note_on_c, 0, 75, 0
2, 330720, Note_on_c, 0, 74, 77
2, 330840, Note_on_c, 0, 74, 0
2, 330960, Note_on_c, 0, 77, 80
2, 331080, Note_on_c, 0, 77, 0
2, 331200, Note_on_c, 0, 66, 83
2, 331320, Note_on_c, 0, 66, 0
2, 331440, Note_on_c, 0, 75, 86
2, 331560, Note_on_c, 0, 75, 0
2, 331680, Note_on_c, 0, 74, 89
2, 331800, Note_on_c, 0, 74, 0
2, 331920, Note_on_c, 0, 77, 91
2, 332040, Note_on_c, 0, 77, 0
2, 332160, Note_on_c, 0, 75, 94
2, 332280, Note_on_c, 0, 75, 0
2, 332400, Note_on_c, 0, 78, 97
2, 332520, Note_on_c, 0, 78, 0
2, 332640, Note_on_c, 0, 77, 100
2, 332760, Note_on_c, 0, 77, 0
2, 332880, Note_on_c, 0, 80, 103
2, 333000, Note_on_c, 0, 80, 0
2, 333120, Note_on_c, 0, 63, 75
2, 333240, Note_on_c, 0, 63, 0
2, 333360, Note_on_c, 0, 66, 78
2, 333480, Note_on_c, 0, 66, 0
2, 333600, Note_on_c, 0, 65, 80
2, 333720, Note_on_c, 0, 65, 0
2, 333840, Note_on_c, 0, 74, 83
2, 333960, Note_on_c, 0, 74, 0
2, 334080, Note_on_c, 0, 66, 85
2, 334200, Note_on_c, 0, 66, 0
2, 334320, Note_on_c, 0, 75, 88
2, 334440, Note_on_c, 0, 75, 0
2, 334560, Note_on_c, 0, 74, 90
2, 334680, Note_on_c, 0, 74, 0
2, 334800, Note_on_c, 0, 77, 93
2, 334920, Note_on_c, 0, 77, 0
2, 335040, Note_on_c, 0, 66, 95
2, 335160, Note_on_c, 0, 66, 0
2, 335280, Note_on_c, 0, 75, 98
2, 335400, Note_on_c, 0, 75, 0
2, 335520, Note_on_c, 0, 74, 100
2, 335640, Note_on_c, 0, 74, 0
2, 335760, Note_on_c, 0, 77, 103
2, 335880, Note_on_c, 0, 77, 0
2, 336000, Note_on_c, 0, 75, 105
2, 336120, Note_on_c, 0, 75, 0
2, 336240, Note_on_c, 0, 78, 108
2, 336360, Note_on_c, 0, 78, 0
2, 336480, Note_on_c, 0, 76, 110
2, 336600, Note_on_c, 0, 76, 0
2, 336720, Note_on_c, 0, 78, 113
2, 336840, Note_on_c, 0, 78, 0
2, 336960, Note_on_c, 0, 75, 115
2, 337080, Note_on_c, 0, 75, 0
2, 337200, Note_on_c, 0, 83, 118
2, 337320, Note_on_c, 0, 83, 0
2, 337440, Note_on_c, 0, 83, 120
2, 337560, Note_on_c, 0, 83, 0
2, 337680, Note_on_c, 0, 83, 123
2, 337800, Note_on_c, 0, 83, 0
2, 337920, Control_c, 0, 64, 127
2, 337920, Control_c, 0, 64, 127
2, 337920, Note_on_c, 0, 77, 126
2, 338280, Note_on_c, 0, 77, 0
2, 338640, Control_c, 0, 64, 0
2, 338640, Control_c, 0, 64, 0
2, 338640, Note_on_c, 0, 58, 113
2, 338760, Note_on_c, 0, 58, 0
2, 338880, Note_on_c, 0, 58, 106
2, 339000, Note_on_c, 0, 58, 0
2, 339120, Note_on_c, 0, 58, 102
2, 339240, Note_on_c, 0, 58, 0
2, 339360, Note_on_c, 0, 61, 101
2, 339480, Note_on_c, 0, 61, 0
2, 339600, Note_on_c, 0, 61, 100
2, 339720, Note_on_c, 0, 61, 0
2, 339840, Note_on_c, 0, 64, 99
2, 339960, Note_on_c, 0, 64, 0
2, 340080, Note_on_c, 0, 64, 98
2, 340200, Note_on_c, 0, 64, 0
2, 340320, Note_on_c, 0, 70, 97
2, 340440, Note_on_c, 0, 70, 0
2, 340560, Note_on_c, 0, 70, 96
2, 340680, Note_on_c, 0, 70, 0
2, 340800, Note_on_c, 0, 73, 95
2, 340920, Note_on_c, 0, 73, 0
2, 341040, Note_on_c, 0, 73, 93
2, 341160, Note_on_c, 0, 73, 0
2, 341280, Note_on_c, 0, 76, 92
2, 341400, Note_on_c, 0, 76, 0
2, 341520, Note_on_c, 0, 76, 91
2, 341640, Note_on_c, 0, 76, 0
2, 341760, Note_on_c, 0, 82, 90
2, 341880, Note_on_c, 0, 82, 0
2, 342000, Note_on_c, 0, 82, 89
2, 342120, Note_on_c, 0, 82, 0
2, 342240, Note_on_c, 0, 85, 88
2, 342360, Note_on_c, 0, 85, 0
2, 342480, Note_on_c, 0, 85, 87
2, 342600, Note_on_c, 0, 85, 0
2, 342720, Note_on_c, 0, 85, 86
2, 342840, Note_on_c, 0, 85, 0
2, 342960, Note_on_c, 0, 88, 85
2, 343080, Note_on_c, 0, 88, 0
2, 343200, Note_on_c, 0, 82, 84
2, 343320, Note_on_c, 0, 82, 0
2, 343440, Note_on_c, 0, 86, 83
2, 343560, Note_on_c, 0, 86, 0
2, 343680, Note_on_c, 0, 85, 82
2, 343800, Note_on_c, 0, 85, 0
2, 343920, Note_on_c, 0, 88, 81
2, 344040, Note_on_c, 0, 88, 0
2, 344160, Note_on_c, 0, 82, 80
2, 344280, Note_on_c, 0, 82, 0
2, 344400, Note_on_c, 0, 86, 79
2, 344520, Note_on_c, 0, 86, 0
2, 344640, Note_on_c, 0, 85, 78
2, 344760, Note_on_c, 0, 85, 0
2, 344880, Note_on_c, 0, 88, 77
2, 345000, Note_on_c, 0, 88, 0
2, 345120, Note_on_c, 0, 82, 76
2, 345240, Note_on_c, 0, 82, 0
2, 345360, Note_on_c, 0, 86, 75
2, 345480, Note_on_c, 0, 86, 0
2, 345600, Note_on_c, 0, 78, 73
2, 345720, Note_on_c, 0, 78, 0
2, 345840, Note_on_c, 0, 86, 72
2, 345960, Note_on_c, 0, 86, 0
2, 346080, Note_on_c, 0, 76, 71
2, 346200, Note_on_c, 0, 76, 0
2, 346320, Note_on_c, 0, 76, 70
2, 346440, Note_on_c, 0, 76, 0
2, 346560, Note_on_c, 0, 73, 69
2, 346680, Note_on_c, 0, 73, 0
2, 346800, Note_on_c, 0, 76, 68
2, 346920, Note_on_c, 0, 76, 0
2, 347040, Note_on_c, 0, 70, 67
2, 347160, Note_on_c, 0, 70, 0
2, 347280, Note_on_c, 0, 74, 66
2, 347400, Note_on_c, 0, 74, 0
2, 347520, Note_on_c, 0, 73, 65
2, 347640, Note_on_c, 0, 73, 0
2, 347760, Note_on_c, 0, 76, 64
2, 347880, Note_on_c, 0, 76, 0
2, 348000, Note_on_c, 0, 70, 63
2, 348120, Note_on_c, 0, 70, 0
2, 348240, Note_on_c, 0, 74, 62
2, 348360, Note_on_c, 0, 74, 0
2, 348480, Note_on_c, 0, 73, 61
2, 348600, Note_on_c, 0, 73, 0
2, 348720, Note_on_c, 0, 76, 60
2, 348840, Note_on_c, 0, 76, 0
2, 348960, Note_on_c, 0, 82, 59
2, 349080, Note_on_c, 0, 82, 0
2, 349200, Note_on_c, 0, 74, 58
2, 349320, Note_on_c, 0, 74, 0
2, 349440, Note_on_c, 0, 85, 57
2, 349560, Note_on_c, 0, 85, 0
2, 349680, Note_on_c, 0, 74, 56
2, 349800, Note_on_c, 0, 74, 0
2, 349920, Note_on_c, 0, 82, 55
2, 350040, Note_on_c, 0, 82, 0
2, 350160, Note_on_c, 0, 74, 54
2, 350280, Note_on_c, 0, 74, 0
2, 350400, Note_on_c, 0, 73, 52
2, 350520, Note_on_c, 0, 73, 0
2, 350640, Note_on_c, 0, 85, 51
2, 350760, Note_on_c, 0, 85, 0
2, 350880, Note_on_c, 0, 70, 50
2, 351000, Note_on_c, 0, 70, 0
2, 351120, Note_on_c, 0, 82, 49
2, 351240, Note_on_c, 0, 82, 0
2, 351360, Note_on_c, 0, 73, 48
2, 351480, Note_on_c, 0, 73, 0
2, 351600, Note_on_c, 0, 85, 47
2, 351720, Note_on_c, 0, 85, 0
2, 351840, Note_on_c, 0, 70, 46
2, 351960, Note_on_c, 0, 70, 0
2, 352080, Note_on_c, 0, 82, 45
2, 352200, Note_on_c, 0, 82, 0
2, 352320, Note_on_c, 0, 89, 94
2, 353040, Note_on_c, 0, 89, 0
2, 353040, Note_on_c, 0, 90, 90
2, 353196, Note_on_c, 0, 90, 0
2, 353280, Note_on_c, 0, 85, 87
2, 353559, Note_on_c, 0, 85, 0
2, 354000, Note_on_c, 0, 63, 62
2, 354156, Note_on_c, 0, 63, 0
2, 354240, Note_on_c, 0, 64, 66
2, 354600, Note_on_c, 0, 64, 0
2, 354600, Note_on_c, 0, 63, 62
2, 354678, Note_on_c, 0, 63, 0
2, 354720, Note_on_c, 0, 61, 61
2, 354876, Note_on_c, 0, 61, 0
2, 354960, Note_on_c, 0, 59, 59
2, 355116, Note_on_c, 0, 59, 0
2, 355200, Note_on_c, 0, 58, 56
2, 355560, Note_on_c, 0, 58, 0
2, 356160, Note_on_c, 0, 87, 94
2, 356880, Note_on_c, 0, 87, 0
2, 356880, Note_on_c, 0, 88, 91
2, 357036, Note_on_c, 0, 88, 0
2, 357120, Note_on_c, 0, 90, 87
2, 357276, Note_on_c, 0, 90, 0
2, 357840, Note_on_c, 0, 59, 62
2, 357996, Note_on_c, 0, 59, 0
2, 358080, Note_on_c, 0, 61, 66
2, 358440, Note_on_c, 0, 61, 0
2, 358440, Note_on_c, 0, 57, 62
2, 358518, Note_on_c, 0, 57, 0
2, 358560, Note_on_c, 0, 56, 61
2, 358716, Note_on_c, 0, 56, 0
2, 358800, Note_on_c, 0, 54, 59
2, 358956, Note_on_c, 0, 54, 0
2, 359040, Note_on_c, 0, 56, 56
2, 359400, Note_on_c, 0, 56, 0
2, 360000, Note_on_c, 0, 88, 94
2, 360720, Note_on_c, 0, 88, 0
2, 360720, Note_on_c, 0, 87, 91
2, 360876, Note_on_c, 0, 87, 0
2, 360960, Note_on_c, 0, 92, 87
2, 361116, Note_on_c, 0, 92, 0
2, 361680, Control_c, 0, 64, 0
2, 361680, Note_on_c, 0, 66, 62
2, 361836, Note_on_c, 0, 66, 0
2, 361920, Note_on_c, 0, 64, 68
2, 362280, Note_on_c, 0, 64, 0
2, 362280, Note_on_c, 0, 63, 64
2, 362358, Note_on_c, 0, 63, 0
2, 362400, Note_on_c, 0, 61, 63
2, 362556, Note_on_c, 0, 61, 0
2, 362640, Note_on_c, 0, 66, 61
2, 362796, Note_on_c, 0, 66, 0
2, 362880, Note_on_c, 0, 63, 59
2, 363000, Note_on_c, 0, 63, 0
2, 363120, Note_on_c, 0, 58, 61
2, 363240, Note_on_c, 0, 58, 0
2, 363360, Note_on_c, 0, 64, 63
2, 363480, Note_on_c, 0, 64, 0
2, 363600, Note_on_c, 0, 63, 65
2, 363720, Note_on_c, 0, 63, 0
2, 363840, Note_on_c, 0, 68, 67
2, 363960, Note_on_c, 0, 68, 0
2, 364080, Note_on_c, 0, 66, 69
2, 364200, Note_on_c, 0, 66, 0
2, 364320, Note_on_c, 0, 70, 71
2, 364440, Note_on_c, 0, 70, 0
2, 364560, Note_on_c, 0, 70, 73
2, 364680, Note_on_c, 0, 70, 0
2, 364800, Note_on_c, 0, 71, 75
2, 364920, Note_on_c, 0, 71, 0
2, 365040, Note_on_c, 0, 71, 77
2, 365160, Note_on_c, 0, 71, 0
2, 365280, Note_on_c, 0, 71, 79
2, 365400, Note_on_c, 0, 71, 0
2, 365520, Note_on_c, 0, 75, 81
2, 365640, Note_on_c, 0, 75, 0
2, 365760, Note_on_c, 0, 75, 83
2, 365880, Note_on_c, 0, 75, 0
2, 366000, Note_on_c, 0, 75, 85
2, 366120, Note_on_c, 0, 75, 0
2, 366240, Note_on_c, 0, 73, 87
2, 366360, Note_on_c, 0, 73, 0
2, 366480, Note_on_c, 0, 70, 89
2, 366600, Note_on_c, 0, 70, 0
2, 366720, Note_on_c, 0, 75, 73
2, 366840, Note_on_c, 0, 75, 0
2, 366960, Note_on_c, 0, 63, 74
2, 367080, Note_on_c, 0, 63, 0
2, 367200, Note_on_c, 0, 64, 76
2, 367320, Note_on_c, 0, 64, 0
2, 367440, Note_on_c, 0, 63, 77
2, 367560, Note_on_c, 0, 63, 0
2, 367680, Note_on_c, 0, 68, 79
2, 367800, Note_on_c, 0, 68, 0
2, 367920, Note_on_c, 0, 66, 80
2, 368040, Note_on_c, 0, 66, 0
2, 368160, Note_on_c, 0, 70, 82
2, 368280, Note_on_c, 0, 70, 0
2, 368400, Note_on_c, 0, 70, 83
2, 368520, Note_on_c, 0, 70, 0
2, 368640, Note_on_c, 0, 71, 85
2, 368760, Note_on_c, 0, 71, 0
2, 368880, Note_on_c, 0, 71, 86
2, 369000, Note_on_c, 0, 71, 0
2, 369120, Note_on_c, 0, 71, 87
2, 369240, Note_on_c, 0, 71, 0
2, 369360, Note_on_c, 0, 74, 89
2, 369480, Note_on_c, 0, 74, 0
2, 369600, Note_on_c, 0, 74, 90
2, 369720, Note_on_c, 0, 74, 0
2, 369840, Note_on_c, 0, 74, 92
2, 369960, Note_on_c, 0, 74, 0
2, 370080, Note_on_c, 0, 77, 93
2, 370080, Note_on_c, 0, 73, 93
2, 370200, Note_on_c, 0, 73, 0
2, 370200, Note_on_c, 0, 77, 0
2, 370320, Note_on_c, 0, 80, 95
2, 370320, Note_on_c, 0, 73, 95
2, 370440, Note_on_c, 0, 73, 0
2, 370440, Note_on_c, 0, 80, 0
2, 370560, Note_on_c, 0, 78, 96
2, 370560, Note_on_c, 0, 73, 96
2, 370680, Note_on_c, 0, 73, 0
2, 370680, Note_on_c, 0, 78, 0
2, 370800, Note_on_c, 0, 78, 98
2, 370800, Note_on_c, 0, 73, 98
2, 370920, Note_on_c, 0, 73, 0
2, 370920, Note_on_c, 0, 78, 0
2, 371040, Note_on_c, 0, 78, 99
2, 371040, Note_on_c, 0, 73, 99
2, 371160, Note_on_c, 0, 73, 0
2, 371160, Note_on_c, 0, 78, 0
2, 371280, Note_on_c, 0, 78, 101
2, 371280, Note_on_c, 0, 73, 101
2, 371400, Note_on_c, 0, 73, 0
2, 371400, Note_on_c, 0, 78, 0
2, 371520, Note_on_c, 0, 78, 102
2, 371520, Note_on_c, 0, 73, 102
2, 371640, Note_on_c, 0, 73, 0
2, 371640, Note_on_c, 0, 78, 0
2, 371760, Note_on_c, 0, 73, 104
2, 371760, Note_on_c, 0, 69, 104
2, 371880, Note_on_c, 0, 69, 0
2, 371880, Note_on_c, 0, 73, 0
2, 372000, Note_on_c, 0, 73, 105
2, 372000, Note_on_c, 0, 66, 105
2, 372120, Note_on_c, 0, 66, 0
2, 372120, Note_on_c, 0, 73, 0
2, 372240, Note_on_c, 0, 66, 107
2, 372240, Note_on_c, 0, 72, 107
2, 372360, Note_on_c, 0, 72, 0
2, 372360, Note_on_c, 0, 66, 0
2, 372480, Note_on_c, 0, 73, 108
2, 372480, Note_on_c, 0, 65, 108
2, 372720, Note_on_c, 0, 65, 0
2, 372720, Note_on_c, 0, 73, 0
2, 372720, Note_on_c, 0, 73, 102
2, 372840, Note_on_c, 0, 73, 0
2, 372960, Note_on_c, 0, 71, 96
2, 373080, Note_on_c, 0, 71, 0
2, 373200, Note_on_c, 0, 71, 91
2, 373320, Note_on_c, 0, 71, 0
2, 373440, Note_on_c, 0, 69, 90
2, 373560, Note_on_c, 0, 69, 0
2, 373680, Note_on_c, 0, 69, 88
2, 373800, Note_on_c, 0, 69, 0
2, 373920, Note_on_c, 0, 68, 86
2, 374040, Note_on_c, 0, 68, 0
2, 374160, Note_on_c, 0, 68, 85
2, 374280, Note_on_c, 0, 68, 0
2, 374400, Note_on_c, 0, 66, 83
2, 374520, Note_on_c, 0, 66, 0
2, 374640, Note_on_c, 0, 66, 81
2, 374760, Note_on_c, 0, 66, 0
2, 374880, Note_on_c, 0, 65, 80
2, 375000, Note_on_c, 0, 65, 0
2, 375120, Note_on_c, 0, 65, 78
2, 375240, Note_on_c, 0, 65, 0
2, 375360, Note_on_c, 0, 62, 76
2, 375480, Note_on_c, 0, 62, 0
2, 375600, Note_on_c, 0, 62, 75
2, 375720, Note_on_c, 0, 62, 0
2, 375840, Note_on_c, 0, 61, 73
2, 375960, Note_on_c, 0, 61, 0
2, 376080, Note_on_c, 0, 61, 71
2, 376200, Note_on_c, 0, 61, 0
2, 376320, Note_on_c, 0, 61, 70
2, 376440, Note_on_c, 0, 61, 0
2, 376560, Note_on_c, 0, 61, 68
2, 376680, Note_on_c, 0, 61, 0
2, 376800, Note_on_c, 0, 61, 66
2, 376920, Note_on_c, 0, 61, 0
2, 377040, Note_on_c, 0, 61, 65
2, 377160, Note_on_c, 0, 61, 0
2, 377280, Note_on_c, 0, 61, 63
2, 377400, Note_on_c, 0, 61, 0
2, 377520, Note_on_c, 0, 61, 61
2, 377640, Note_on_c, 0, 61, 0
2, 377760, Note_on_c, 0, 61, 60
2, 377880, Note_on_c, 0, 61, 0
2, 378000, Note_on_c, 0, 61, 58
2, 378120, Note_on_c, 0, 61, 0
2, 378240, Control_c, 0, 64, 127
2, 378480, Note_on_c, 0, 61, 103
2, 378600, Note_on_c, 0, 61, 0
2, 378720, Note_on_c, 0, 66, 101
2, 378840, Note_on_c, 0, 66, 0
2, 378960, Note_on_c, 0, 70, 99
2, 379080, Note_on_c, 0, 70, 0
2, 379200, Note_on_c, 0, 73, 98
2, 379320, Note_on_c, 0, 73, 0
2, 379440, Note_on_c, 0, 78, 96
2, 379560, Note_on_c, 0, 78, 0
2, 379680, Note_on_c, 0, 82, 94
2, 379800, Note_on_c, 0, 82, 0
2, 379920, Note_on_c, 0, 85, 93
2, 380040, Note_on_c, 0, 85, 0
2, 380160, Note_on_c, 0, 94, 91
2, 380400, Note_on_c, 0, 94, 0
2, 380400, Control_c, 0, 64, 0
2, 380400, Note_on_c, 0, 69, 78
2, 380520, Note_on_c, 0, 69, 0
2, 380640, Note_on_c, 0, 66, 77
2, 380760, Note_on_c, 0, 66, 0
2, 380880, Note_on_c, 0, 69, 76
2, 381000, Note_on_c, 0, 69, 0
2, 381120, Note_on_c, 0, 66, 75
2, 381240, Note_on_c, 0, 66, 0
2, 381360, Note_on_c, 0, 69, 74
2, 381480, Note_on_c, 0, 69, 0
2, 381600, Note_on_c, 0, 71, 73
2, 381720, Note_on_c, 0, 71, 0
2, 381840, Note_on_c, 0, 68, 72
2, 381960, Note_on_c, 0, 68, 0
2, 382020, Control_c, 0, 64, 0
2, 382080, Control_c, 0, 64, 127
2, 382320, Note_on_c, 0, 61, 94
2, 382440, Note_on_c, 0, 61, 0
2, 382560, Note_on_c, 0, 66, 92
2, 382680, Note_on_c, 0, 66, 0
2, 382800, Note_on_c, 0, 70, 90
2, 382920, Note_on_c, 0, 70, 0
2, 383040, Note_on_c, 0, 73, 88
2, 383160, Note_on_c, 0, 73, 0
2, 383280, Note_on_c, 0, 78, 86
2, 383400, Note_on_c, 0, 78, 0
2, 383520, Note_on_c, 0, 82, 84
2, 383640, Note_on_c, 0, 82, 0
2, 383760, Note_on_c, 0, 85, 83
2, 383880, Note_on_c, 0, 85, 0
2, 384000, Note_on_c, 0, 94, 81
2, 384240, Note_on_c, 0, 94, 0
2, 384240, Control_c, 0, 64, 0
2, 384240, Note_on_c, 0, 69, 67
2, 384360, Note_on_c, 0, 69, 0
2, 384480, Note_on_c, 0, 66, 66
2, 384600, Note_on_c, 0, 66, 0
2, 384720, Note_on_c, 0, 69, 64
2, 384840, Note_on_c, 0, 69, 0
2, 384960, Note_on_c, 0, 66, 63
2, 385080, Note_on_c, 0, 66, 0
2, 385200, Note_on_c, 0, 69, 61
2, 385320, Note_on_c, 0, 69, 0
2, 385440, Note_on_c, 0, 71, 60
2, 385560, Note_on_c, 0, 71, 0
2, 385680, Note_on_c, 0, 68, 58
2, 385800, Note_on_c, 0, 68, 0
2, 385920, Control_c, 0, 64, 0
2, 385920, Note_on_c, 0, 66, 58
2, 386040, Note_on_c, 0, 66, 0
2, 386160, Note_on_c, 0, 69, 61
2, 386280, Note_on_c, 0, 69, 0
2, 386400, Note_on_c, 0, 68, 63
2, 386520, Note_on_c, 0, 68, 0
2, 386640, Note_on_c, 0, 77, 66
2, 386760, Note_on_c, 0, 77, 0
2, 386880, Note_on_c, 0, 69, 69
2, 387000, Note_on_c, 0, 69, 0
2, 387120, Note_on_c, 0, 78, 71
2, 387240, Note_on_c, 0, 78, 0
2, 387360, Note_on_c, 0, 77, 74
2, 387480, Note_on_c, 0, 77, 0
2, 387600, Note_on_c, 0, 80, 77
2, 387720, Note_on_c, 0, 80, 0
2, 387840, Note_on_c, 0, 69, 79
2, 387960, Note_on_c, 0, 69, 0
2, 388080, Note_on_c, 0, 78, 82
2, 388200, Note_on_c, 0, 78, 0
2, 388320, Note_on_c, 0, 77, 85
2, 388440, Note_on_c, 0, 77, 0
2, 388560, Note_on_c, 0, 80, 87
2, 388680, Note_on_c, 0, 80, 0
2, 388800, Note_on_c, 0, 78, 90
2, 388920, Note_on_c, 0, 78, 0
2, 389040, Note_on_c, 0, 81, 93
2, 389160, Note_on_c, 0, 81, 0
2, 389280, Note_on_c, 0, 80, 95
2, 389400, Note_on_c, 0, 80, 0
2, 389520, Note_on_c, 0, 83, 98
2, 389640, Note_on_c, 0, 83, 0
2, 389760, Note_on_c, 0, 66, 79
2, 389880, Note_on_c, 0, 66, 0
2, 390000, Note_on_c, 0, 69, 81
2, 390120, Note_on_c, 0, 69, 0
2, 390240, Note_on_c, 0, 68, 84
2, 390360, Note_on_c, 0, 68, 0
2, 390480, Note_on_c, 0, 77, 86
2, 390600, Note_on_c, 0, 77, 0
2, 390720, Note_on_c, 0, 69, 88
2, 390840, Note_on_c, 0, 69, 0
2, 390960, Note_on_c, 0, 78, 90
2, 391080, Note_on_c, 0, 78, 0
2, 391200, Note_on_c, 0, 77, 93
2, 391320, Note_on_c, 0, 77, 0
2, 391440, Note_on_c, 0, 80, 95
2, 391560, Note_on_c, 0, 80, 0
2, 391680, Note_on_c, 0, 69, 97
2, 391800, Note_on_c, 0, 69, 0
2, 391920, Note_on_c, 0, 78, 100
2, 392040, Note_on_c, 0, 78, 0
2, 392160, Note_on_c, 0, 77, 102
2, 392280, Note_on_c, 0, 77, 0
2, 392400, Note_on_c, 0, 80, 104
2, 392520, Note_on_c, 0, 80, 0
2, 392640, Note_on_c, 0, 78, 107
2, 392760, Note_on_c, 0, 78, 0
2, 392880, Note_on_c, 0, 81, 109
2, 393000, Note_on_c, 0, 81, 0
2, 393120, Note_on_c, 0, 78, 111
2, 393240, Note_on_c, 0, 78, 0
2, 393360, Note_on_c, 0, 81, 114
2, 393480, Note_on_c, 0, 81, 0
2, 393600, Note_on_c, 0, 78, 116
2, 393720, Note_on_c, 0, 78, 0
2, 393840, Note_on_c, 0, 81, 118
2, 393960, Note_on_c, 0, 81, 0
2, 394080, Note_on_c, 0, 78, 121
2, 394200, Note_on_c, 0, 78, 0
2, 394320, Note_on_c, 0, 81, 123
2, 394440, Note_on_c, 0, 81, 0
2, 394560, Control_c, 0, 64, 127
2, 394560, Control_c, 0, 64, 127
2, 394560, Note_on_c, 0, 78, 123
2, 394920, Note_on_c, 0, 78, 0
2, 395280, Control_c, 0, 64, 0
2, 395280, Control_c, 0, 64, 0
2, 395280, Note_on_c, 0, 59, 112
2, 395400, Note_on_c, 0, 59, 0
2, 395520, Note_on_c, 0, 59, 107
2, 395640, Note_on_c, 0, 59, 0
2, 395760, Note_on_c, 0, 59, 106
2, 395880, Note_on_c, 0, 59, 0
2, 396000, Note_on_c, 0, 65, 105
2, 396120, Note_on_c, 0, 65, 0
2, 396240, Note_on_c, 0, 65, 104
2, 396360, Note_on_c, 0, 65, 0
2, 396480, Note_on_c, 0, 68, 103
2, 396600, Note_on_c, 0, 68, 0
2, 396720, Note_on_c, 0, 68, 102
2, 396840, Note_on_c, 0, 68, 0
2, 396960, Note_on_c, 0, 71, 101
2, 397080, Note_on_c, 0, 71, 0
2, 397200, Note_on_c, 0, 71, 100
2, 397320, Note_on_c, 0, 71, 0
2, 397440, Note_on_c, 0, 77, 99
2, 397560, Note_on_c, 0, 77, 0
2, 397680, Note_on_c, 0, 77, 98
2, 397800, Note_on_c, 0, 77, 0
2, 397920, Note_on_c, 0, 80, 97
2, 398040, Note_on_c, 0, 80, 0
2, 398160, Note_on_c, 0, 80, 96
2, 398280, Note_on_c, 0, 80, 0
2, 398400, Note_on_c, 0, 83, 95
2, 398520, Note_on_c, 0, 83, 0
2, 398640, Note_on_c, 0, 83, 94
2, 398760, Note_on_c, 0, 83, 0
2, 398880, Note_on_c, 0, 89, 93
2, 399000, Note_on_c, 0, 89, 0
2, 399120, Note_on_c, 0, 89, 92
2, 399240, Note_on_c, 0, 89, 0
2, 399360, Note_on_c, 0, 92, 91
2, 399480, Note_on_c, 0, 92, 0
2, 399600, Note_on_c, 0, 92, 90
2, 399720, Note_on_c, 0, 92, 0
2, 399840, Note_on_c, 0, 89, 89
2, 399960, Note_on_c, 0, 89, 0
2, 400080, Note_on_c, 0, 89, 89
2, 400200, Note_on_c, 0, 89, 0
2, 400320, Note_on_c, 0, 83, 88
2, 400440, Note_on_c, 0, 83, 0
2, 400560, Note_on_c, 0, 92, 87
2, 400680, Note_on_c, 0, 92, 0
2, 400800, Note_on_c, 0, 80, 86
2, 400920, Note_on_c, 0, 80, 0
2, 401040, Note_on_c, 0, 89, 85
2, 401160, Note_on_c, 0, 89, 0
2, 401280, Note_on_c, 0, 80, 84
2, 401400, Note_on_c, 0, 80, 0
2, 401520, Note_on_c, 0, 83, 83
2, 401640, Note_on_c, 0, 83, 0
2, 401760, Note_on_c, 0, 77, 82
2, 401880, Note_on_c, 0, 77, 0
2, 402000, Note_on_c, 0, 81, 81
2, 402120, Note_on_c, 0, 81, 0
2, 402240, Note_on_c, 0, 71, 80
2, 402360, Note_on_c, 0, 71, 0
2, 402480, Note_on_c, 0, 83, 79
2, 402600, Note_on_c, 0, 83, 0
2, 402720, Note_on_c, 0, 68, 78
2, 402840, Note_on_c, 0, 68, 0
2, 402960, Note_on_c, 0, 83, 77
2, 403080, Note_on_c, 0, 83, 0
2, 403200, Note_on_c, 0, 65, 76
2, 403320, Note_on_c, 0, 65, 0
2, 403440, Note_on_c, 0, 81, 75
2, 403560, Note_on_c, 0, 81, 0
2, 403680, Note_on_c, 0, 68, 74
2, 403800, Note_on_c, 0, 68, 0
2, 403920, Note_on_c, 0, 83, 73
2, 404040, Note_on_c, 0, 83, 0
2, 404160, Note_on_c, 0, 65, 72
2, 404280, Note_on_c, 0, 65, 0
2, 404400, Note_on_c, 0, 81, 71
2, 404520, Note_on_c, 0, 81, 0
2, 404640, Note_on_c, 0, 80, 70
2, 404760, Note_on_c, 0, 80, 0
2, 404880, Note_on_c, 0, 71, 69
2, 405000, Note_on_c, 0, 71, 0
2, 405120, Note_on_c, 0, 77, 68
2, 405240, Note_on_c, 0, 77, 0
2, 405360, Note_on_c, 0, 69, 67
2, 405480, Note_on_c, 0, 69, 0
2, 405600, Note_on_c, 0, 80, 66
2, 405720, Note_on_c, 0, 80, 0
2, 405840, Note_on_c, 0, 71, 65
2, 405960, Note_on_c, 0, 71, 0
2, 406080, Note_on_c, 0, 77, 64
2, 406200, Note_on_c, 0, 77, 0
2, 406320, Note_on_c, 0, 69, 63
2, 406440, Note_on_c, 0, 69, 0
2, 406560, Note_on_c, 0, 80, 62
2, 406680, Note_on_c, 0, 80, 0
2, 406800, Note_on_c, 0, 71, 61
2, 406920, Note_on_c, 0, 71, 0
2, 407040, Note_on_c, 0, 77, 60
2, 407160, Note_on_c, 0, 77, 0
2, 407280, Note_on_c, 0, 69, 60
2, 407400, Note_on_c, 0, 69, 0
2, 407520, Note_on_c, 0, 80, 59
2, 407640, Note_on_c, 0, 80, 0
2, 407760, Note_on_c, 0, 69, 58
2, 407880, Note_on_c, 0, 69, 0
2, 408000, Note_on_c, 0, 77, 57
2, 408120, Note_on_c, 0, 77, 0
2, 408240, Note_on_c, 0, 69, 56
2, 408360, Note_on_c, 0, 69, 0
2, 408480, Note_on_c, 0, 80, 55
2, 408600, Note_on_c, 0, 80, 0
2, 408720, Note_on_c, 0, 69, 54
2, 408840, Note_on_c, 0, 69, 0
2, 408960, Note_on_c, 0, 68, 53
2, 409080, Note_on_c, 0, 68, 0
2, 409200, Note_on_c, 0, 80, 51
2, 409320, Note_on_c, 0, 80, 0
2, 409440, Note_on_c, 0, 71, 50
2, 409560, Note_on_c, 0, 71, 0
2, 409680, Note_on_c, 0, 83, 49
2, 409800, Note_on_c, 0, 83, 0
2, 409920, Note_on_c, 0, 68, 48
2, 410040, Note_on_c, 0, 68, 0
2, 410160, Note_on_c, 0, 80, 47
2, 410280, Note_on_c, 0, 80, 0
2, 410400, Note_on_c, 0, 71, 46
2, 410520, Note_on_c, 0, 71, 0
2, 410640, Note_on_c, 0, 83, 45
2, 410760, Note_on_c, 0, 83, 0
2, 410880, Note_on_c, 0, 84, 94
2, 411600, Note_on_c, 0, 84, 0
2, 411600, Note_on_c, 0, 85, 92
2, 411756, Note_on_c, 0, 85, 0
2, 411840, Note_on_c, 0, 80, 88
2, 412032, Note_on_c, 0, 80, 0
2, 412560, Note_on_c, 0, 58, 62
2, 412800, Note_on_c, 0, 58, 0
2, 412800, Note_on_c, 0, 59, 64
2, 413160, Note_on_c, 0, 59, 0
2, 413160, Note_on_c, 0, 58, 61
2, 413280, Note_on_c, 0, 58, 0
2, 413280, Note_on_c, 0, 56, 61
2, 413520, Note_on_c, 0, 56, 0
2, 413520, Note_on_c, 0, 54, 59
2, 413760, Note_on_c, 0, 54, 0
2, 413760, Note_on_c, 0, 53, 57
2, 414240, Note_on_c, 0, 53, 0
2, 414720, Note_on_c, 0, 85, 94
2, 415440, Note_on_c, 0, 85, 0
2, 415440, Note_on_c, 0, 87, 92
2, 415596, Note_on_c, 0, 87, 0
2, 415680, Note_on_c, 0, 88, 91
2, 415872, Note_on_c, 0, 88, 0
2, 416400, Note_on_c, 0, 54, 62
2, 416640, Note_on_c, 0, 54, 0
2, 416640, Note_on_c, 0, 56, 64
2, 417000, Note_on_c, 0, 56, 0
2, 417000, Note_on_c, 0, 52, 62
2, 417120, Note_on_c, 0, 52, 0
2, 417120, Note_on_c, 0, 51, 62
2, 417360, Note_on_c, 0, 51, 0
2, 417360, Note_on_c, 0, 49, 61
2, 417600, Note_on_c, 0, 49, 0
2, 417600, Note_on_c, 0, 51, 59
2, 418080, Note_on_c, 0, 51, 0
2, 418560, Note_on_c, 0, 83, 60
2, 419280, Note_on_c, 0, 83, 0
2, 419280, Note_on_c, 0, 82, 58
2, 419520, Note_on_c, 0, 82, 0
2, 419520, Note_on_c, 0, 87, 55
2, 420000, Note_on_c, 0, 87, 0
2, 420240, Note_on_c, 0, 61, 55
2, 420480, Note_on_c, 0, 61, 0
2, 420480, Note_on_c, 0, 59, 58
2, 420840, Note_on_c, 0, 59, 0
2, 420840, Note_on_c, 0, 58, 55
2, 420960, Note_on_c, 0, 58, 0
2, 420960, Note_on_c, 0, 56, 54
2, 421200, Note_on_c, 0, 56, 0
2, 421200, Note_on_c, 0, 61, 52
2, 421440, Note_on_c, 0, 61, 0
2, 421440, Note_on_c, 0, 58, 56
2, 422160, Note_on_c, 0, 58, 0
2, 422160, Note_on_c, 0, 63, 48
2, 422400, Note_on_c, 0, 63, 0
2, 422400, Note_on_c, 0, 59, 52
2, 422760, Note_on_c, 0, 59, 0
2, 422760, Note_on_c, 0, 58, 49
2, 422880, Note_on_c, 0, 58, 0
2, 422880, Note_on_c, 0, 56, 48
2, 423120, Note_on_c, 0, 56, 0
2, 423120, Note_on_c, 0, 61, 47
2, 423360, Note_on_c, 0, 61, 0
2, 423360, Note_on_c, 0, 58, 56
2, 424080, Note_on_c, 0, 66, 53
2, 424095, Note_on_c, 0, 58, 0
2, 424320, Note_on_c, 0, 66, 0
2, 424320, Note_on_c, 0, 64, 58
2, 424680, Note_on_c, 0, 64, 0
2, 424680, Note_on_c, 0, 63, 56
2, 424800, Note_on_c, 0, 63, 0
2, 424800, Note_on_c, 0, 61, 56
2, 425040, Note_on_c, 0, 61, 0
2, 425040, Note_on_c, 0, 66, 58
2, 425280, Note_on_c, 0, 66, 0
2, 425280, Note_on_c, 0, 64, 66
2, 426000, Note_on_c, 0, 64, 0
2, 426000, Note_on_c, 0, 78, 64
2, 426240, Note_on_c, 0, 78, 0
2, 426240, Note_on_c, 0, 78, 72
2, 426600, Note_on_c, 0, 78, 0
2, 426600, Note_on_c, 0, 76, 69
2, 426720, Note_on_c, 0, 76, 0
2, 426720, Note_on_c, 0, 75, 69
2, 426960, Note_on_c, 0, 75, 0
2, 426960, Note_on_c, 0, 78, 69
2, 427200, Note_on_c, 0, 78, 0
2, 427200, Note_on_c, 0, 80, 80
2, 427560, Note_on_c, 0, 80, 0
2, 427560, Note_on_c, 0, 78, 76
2, 427680, Note_on_c, 0, 78, 0
2, 427680, Note_on_c, 0, 77, 75
2, 427920, Note_on_c, 0, 77, 0
2, 427920, Note_on_c, 0, 80, 84
2, 428160, Note_on_c, 0, 80, 0
2, 428160, Note_on_c, 0, 80, 83
2, 428520, Note_on_c, 0, 80, 0
2, 428520, Note_on_c, 0, 78, 80
2, 428640, Note_on_c, 0, 78, 0
2, 428640, Note_on_c, 0, 77, 78
2, 428880, Note_on_c, 0, 77, 0
2, 428880, Note_on_c, 0, 85, 89
2, 429120, Note_on_c, 0, 85, 0
2, 429120, Note_on_c, 0, 82, 88
2, 429480, Note_on_c, 0, 82, 0
2, 429480, Note_on_c, 0, 80, 85
2, 429600, Note_on_c, 0, 80, 0
2, 429600, Note_on_c, 0, 78, 84
2, 429840, Note_on_c, 0, 78, 0
2, 429840, Note_on_c, 0, 85, 93
2, 430080, Note_on_c, 0, 85, 0
2, 430080, Note_on_c, 0, 80, 94
2, 430440, Note_on_c, 0, 80, 0
2, 430440, Note_on_c, 0, 78, 91
2, 430560, Note_on_c, 0, 78, 0
2, 430560, Note_on_c, 0, 77, 89
2, 430800, Note_on_c, 0, 77, 0
2, 430800, Note_on_c, 0, 85, 100
2, 431040, Note_on_c, 0, 85, 0
2, 431040, Note_on_c, 0, 78, 100
2, 431400, Note_on_c, 0, 78, 0
2, 431400, Note_on_c, 0, 77, 97
2, 431520, Note_on_c, 0, 77, 0
2, 431520, Note_on_c, 0, 75, 96
2, 431760, Note_on_c, 0, 75, 0
2, 431760, Note_on_c, 0, 85, 103
2, 432000, Note_on_c, 0, 85, 0
2, 432000, Note_on_c, 0, 77, 106
2, 432360, Note_on_c, 0, 77, 0
2, 432360, Note_on_c, 0, 75, 103
2, 432480, Note_on_c, 0, 75, 0
2, 432480, Note_on_c, 0, 85, 101
2, 432720, Note_on_c, 0, 85, 0
2, 432720, Note_on_c, 0, 83, 106
2, 432960, Note_on_c, 0, 83, 0
2, 432960, Note_on_c, 0, 83, 111
2, 433320, Note_on_c, 0, 83, 0
2, 433320, Note_on_c, 0, 82, 97
2, 433440, Note_on_c, 0, 82, 0
2, 433440, Note_on_c, 0, 80, 92
2, 433680, Note_on_c, 0, 80, 0
2, 433680, Note_on_c, 0, 73, 76
2, 433836, Note_on_c, 0, 73, 0
2, 433920, Note_on_c, 0, 73, 72
2, 434400, Note_on_c, 0, 73, 0
2, 434400, Note_on_c, 0, 73, 66
2, 434556, Note_on_c, 0, 73, 0
2, 434640, Note_on_c, 0, 73, 63
2, 434796, Note_on_c, 0, 73, 0
2, 434880, Note_on_c, 0, 73, 60
2, 436800, Note_on_c, 0, 73, 0
2, 436800, Note_on_c, 0, 75, 48
2, 438720, Note_on_c, 0, 75, 0
2, 438720, Control_c, 0, 64, 127
2, 438720, Note_on_c, 0, 37, 48
2, 438840, Note_on_c, 0, 37, 0
2, 438840, Note_on_c, 0, 41, 50
2, 438960, Note_on_c, 0, 41, 0
2, 438960, Note_on_c, 0, 44, 52
2, 439080, Note_on_c, 0, 44, 0
2, 439080, Note_on_c, 0, 47, 53
2, 439200, Note_on_c, 0, 47, 0
2, 439200, Note_on_c, 0, 49, 55
2, 439320, Note_on_c, 0, 49, 0
2, 439320, Note_on_c, 0, 53, 57
2, 439440, Note_on_c, 0, 53, 0
2, 439440, Note_on_c, 0, 56, 59
2, 439560, Note_on_c, 0, 56, 0
2, 439560, Note_on_c, 0, 59, 60
2, 439680, Note_on_c, 0, 59, 0
2, 439680, Note_on_c, 0, 61, 62
2, 439800, Note_on_c, 0, 61, 0
2, 439800, Note_on_c, 0, 65, 64
2, 439920, Note_on_c, 0, 65, 0
2, 439920, Note_on_c, 0, 49, 66
2, 440040, Note_on_c, 0, 49, 0
2, 440040, Note_on_c, 0, 53, 67
2, 440160, Note_on_c, 0, 53, 0
2, 440160, Note_on_c, 0, 56, 69
2, 440280, Note_on_c, 0, 56, 0
2, 440280, Note_on_c, 0, 59, 71
2, 440400, Note_on_c, 0, 59, 0
2, 440400, Note_on_c, 0, 61, 73
2, 440520, Note_on_c, 0, 61, 0
2, 440520, Note_on_c, 0, 65, 74
2, 440640, Note_on_c, 0, 65, 0
2, 440640, Note_on_c, 0, 68, 76
2, 440760, Note_on_c, 0, 68, 0
2, 440760, Note_on_c, 0, 71, 78
2, 440880, Note_on_c, 0, 71, 0
2, 440880, Note_on_c, 0, 73, 80
2, 441000, Note_on_c, 0, 73, 0
2, 441000, Note_on_c, 0, 77, 81
2, 441120, Note_on_c, 0, 77, 0
2, 441120, Note_on_c, 0, 61, 83
2, 441240, Note_on_c, 0, 61, 0
2, 441240, Note_on_c, 0, 65, 85
2, 441360, Note_on_c, 0, 65, 0
2, 441360, Note_on_c, 0, 68, 86
2, 441480, Note_on_c, 0, 68, 0
2, 441480, Note_on_c, 0, 71, 88
2, 441600, Note_on_c, 0, 71, 0
2, 441600, Note_on_c, 0, 73, 90
2, 441720, Note_on_c, 0, 73, 0
2, 441720, Note_on_c, 0, 77, 92
2, 441840, Note_on_c, 0, 77, 0
2, 441840, Note_on_c, 0, 80, 93
2, 441960, Note_on_c, 0, 80, 0
2, 441960, Note_on_c, 0, 83, 95
2, 442080, Note_on_c, 0, 83, 0
2, 442080, Note_on_c, 0, 85, 97
2, 442200, Note_on_c, 0, 85, 0
2, 442200, Note_on_c, 0, 89, 99
2, 442320, Note_on_c, 0, 89, 0
2, 443400, Control_c, 0, 64, 0
2, 443520, Note_on_c, 0, 57, 100
2, 443640, Note_on_c, 0, 57, 0
2, 443760, Note_on_c, 0, 57, 98
2, 443880, Note_on_c, 0, 57, 0
2, 444000, Note_on_c, 0, 57, 96
2, 444120, Note_on_c, 0, 57, 0
2, 444240, Note_on_c, 0, 58, 93
2, 444360, Note_on_c, 0, 58, 0
2, 444480, Note_on_c, 0, 59, 92
2, 444600, Note_on_c, 0, 59, 0
2, 444720, Note_on_c, 0, 63, 96
2, 444840, Note_on_c, 0, 63, 0
2, 444960, Note_on_c, 0, 68, 99
2, 445080, Note_on_c, 0, 68, 0
2, 445200, Note_on_c, 0, 65, 103
2, 445320, Note_on_c, 0, 65, 0
2, 445440, Note_on_c, 0, 69, 110
2, 445560, Note_on_c, 0, 69, 0
2, 445680, Note_on_c, 0, 69, 109
2, 445800, Note_on_c, 0, 69, 0
2, 445920, Note_on_c, 0, 69, 107
2, 446040, Note_on_c, 0, 69, 0
2, 446160, Note_on_c, 0, 70, 105
2, 446280, Note_on_c, 0, 70, 0
2, 446400, Note_on_c, 0, 71, 103
2, 446520, Note_on_c, 0, 71, 0
2, 446640, Note_on_c, 0, 75, 107
2, 446760, Note_on_c, 0, 75, 0
2, 446880, Note_on_c, 0, 80, 110
2, 447000, Note_on_c, 0, 80, 0
2, 447120, Note_on_c, 0, 77, 113
2, 447240, Note_on_c, 0, 77, 0
2, 447360, Note_on_c, 0, 78, 116
2, 447480, Note_on_c, 0, 78, 0
2, 447600, Note_on_c, 0, 82, 119
2, 447720, Note_on_c, 0, 82, 0
2, 447840, Note_on_c, 0, 78, 122
2, 447960, Note_on_c, 0, 78, 0
2, 448080, Note_on_c, 0, 80, 125
2, 448080, Note_on_c, 0, 83, 125
2, 448200, Note_on_c, 0, 83, 0
2, 448200, Note_on_c, 0, 80, 0
2, 448320, Note_on_c, 0, 78, 127
2, 448320, Note_on_c, 0, 82, 127
2, 448320, Note_on_c, 0, 90, 127
2, 448476, Note_on_c, 0, 90, 0
2, 448476, Note_on_c, 0, 82, 0
2, 448476, Note_on_c, 0, 78, 0
2, 448476, End_track
3, 0, Start_track
3, 0, Title_t, "Piano Sonata No-24"
3, 0, Control_c, 0, 0, 0
3, 0, Control_c, 0, 7, 115
3, 0, Control_c, 0, 10, 73
3, 0, Control_c, 0, 91, 91
3, 0, Control_c, 0, 93, 28
3, 0, Control_c, 0, 64, 0
3, 0, Control_c, 0, 1, 0
3, 0, Pitch_bend_c, 0, 8192
3, 1, Control_c, 0, 32, 0
3, 1, Program_c, 0, 0
3, 960, Note_on_c, 0, 58, 57
3, 1440, Note_on_c, 0, 58, 0
3, 1440, Note_on_c, 0, 61, 59
3, 1440, Note_on_c, 0, 58, 59
3, 1800, Note_on_c, 0, 58, 0
3, 1800, Note_on_c, 0, 61, 0
3, 1800, Note_on_c, 0, 65, 60
3, 1800, Note_on_c, 0, 58, 60
3, 1920, Note_on_c, 0, 58, 0
3, 1920, Note_on_c, 0, 65, 0
3, 1920, Note_on_c, 0, 65, 61
3, 1920, Note_on_c, 0, 59, 61
3, 2400, Note_on_c, 0, 59, 0
3, 2400, Note_on_c, 0, 65, 0
3, 2400, Note_on_c, 0, 66, 62
3, 2400, Note_on_c, 0, 61, 62
3, 2616, Note_on_c, 0, 61, 0
3, 2616, Note_on_c, 0, 66, 0
3, 2640, Note_on_c, 0, 64, 63
3, 2640, Note_on_c, 0, 61, 63
3, 2880, Note_on_c, 0, 61, 0
3, 2880, Note_on_c, 0, 64, 0
3, 2880, Note_on_c, 0, 66, 65
3, 2880, Note_on_c, 0, 63, 65
3, 3360, Note_on_c, 0, 63, 0
3, 3360, Note_on_c, 0, 66, 0
3, 3360, Note_on_c, 0, 68, 68
3, 3360, Note_on_c, 0, 65, 68
3, 3840, Note_on_c, 0, 65, 0
3, 3840, Note_on_c, 0, 68, 0
3, 3840, Note_on_c, 0, 66, 60
3, 7075, Note_on_c, 0, 66, 0
3, 8160, Note_on_c, 0, 61, 57
3, 8640, Note_on_c, 0, 61, 0
3, 8640, Note_on_c, 0, 61, 60
3, 9120, Note_on_c, 0, 61, 0
3, 9120, Note_on_c, 0, 61, 63
3, 9600, Note_on_c, 0, 61, 0
3, 9600, Note_on_c, 0, 65, 66
3, 9600, Note_on_c, 0, 61, 66
3, 9600, Note_on_c, 0, 59, 66
3, 11040, Note_on_c, 0, 59, 0
3, 11040, Note_on_c, 0, 61, 0
3, 11040, Note_on_c, 0, 65, 0
3, 11040, Note_on_c, 0, 61, 59
3, 11040, Note_on_c, 0, 56, 59
3, 11520, Note_on_c, 0, 56, 0
3, 11520, Note_on_c, 0, 61, 0
3, 11520, Note_on_c, 0, 58, 59
3, 11520, Note_on_c, 0, 61, 59
3, 12000, Note_on_c, 0, 61, 0
3, 12000, Note_on_c, 0, 58, 0
3, 12000, Note_on_c, 0, 63, 61
3, 12480, Note_on_c, 0, 63, 0
3, 12480, Note_on_c, 0, 61, 64
3, 12960, Note_on_c, 0, 61, 0
3, 12960, Note_on_c, 0, 66, 66
3, 13440, Note_on_c, 0, 66, 0
3, 13440, Note_on_c, 0, 65, 70
3, 13920, Note_on_c, 0, 65, 0
3, 13920, Note_on_c, 0, 63, 66
3, 14400, Note_on_c, 0, 63, 0
3, 14400, Note_on_c, 0, 61, 61
3, 14880, Note_on_c, 0, 61, 0
3, 36600, Note_on_c, 0, 78, 66
3, 36720, Note_on_c, 0, 75, 66
3, 36960, Note_on_c, 0, 75, 0
3, 36960, Note_on_c, 0, 78, 0
3, 37080, Note_on_c, 0, 78, 66
3, 37200, Note_on_c, 0, 75, 66
3, 37440, Note_on_c, 0, 75, 0
3, 37440, Note_on_c, 0, 78, 0
3, 37560, Note_on_c, 0, 78, 65
3, 37680, Note_on_c, 0, 75, 65
3, 37920, Note_on_c, 0, 75, 0
3, 37920, Note_on_c, 0, 78, 0
3, 38040, Note_on_c, 0, 78, 65
3, 38160, Note_on_c, 0, 75, 65
3, 38400, Note_on_c, 0, 75, 0
3, 38400, Note_on_c, 0, 78, 0
3, 38520, Note_on_c, 0, 78, 64
3, 38640, Note_on_c, 0, 75, 64
3, 38880, Note_on_c, 0, 75, 0
3, 38880, Note_on_c, 0, 78, 0
3, 39000, Note_on_c, 0, 78, 64
3, 39120, Note_on_c, 0, 75, 64
3, 39360, Note_on_c, 0, 75, 0
3, 39360, Note_on_c, 0, 78, 0
3, 39480, Note_on_c, 0, 78, 63
3, 39600, Note_on_c, 0, 75, 63
3, 39840, Note_on_c, 0, 75, 0
3, 39840, Note_on_c, 0, 78, 0
3, 39960, Note_on_c, 0, 78, 63
3, 40080, Note_on_c, 0, 75, 63
3, 40320, Note_on_c, 0, 75, 0
3, 40320, Note_on_c, 0, 78, 0
3, 40440, Note_on_c, 0, 78, 62
3, 40560, Note_on_c, 0, 75, 62
3, 40800, Note_on_c, 0, 75, 0
3, 40800, Note_on_c, 0, 78, 0
3, 40920, Note_on_c, 0, 78, 62
3, 41040, Note_on_c, 0, 75, 62
3, 41280, Note_on_c, 0, 75, 0
3, 41280, Note_on_c, 0, 78, 0
3, 41400, Note_on_c, 0, 78, 61
3, 41520, Note_on_c, 0, 75, 61
3, 41760, Note_on_c, 0, 75, 0
3, 41760, Note_on_c, 0, 78, 0
3, 41880, Note_on_c, 0, 78, 61
3, 42000, Note_on_c, 0, 75, 61
3, 42240, Note_on_c, 0, 75, 0
3, 42240, Note_on_c, 0, 78, 0
3, 42360, Note_on_c, 0, 78, 60
3, 42480, Note_on_c, 0, 75, 60
3, 42720, Note_on_c, 0, 75, 0
3, 42720, Note_on_c, 0, 78, 0
3, 42840, Note_on_c, 0, 78, 60
3, 42960, Note_on_c, 0, 75, 60
3, 43200, Note_on_c, 0, 75, 0
3, 43200, Note_on_c, 0, 78, 0
3, 43320, Note_on_c, 0, 78, 59
3, 43440, Note_on_c, 0, 75, 59
3, 43680, Note_on_c, 0, 75, 0
3, 43680, Note_on_c, 0, 78, 0
3, 43800, Note_on_c, 0, 78, 59
3, 43920, Note_on_c, 0, 75, 59
3, 44160, Note_on_c, 0, 75, 0
3, 44160, Note_on_c, 0, 78, 0
3, 44280, Note_on_c, 0, 80, 60
3, 44400, Note_on_c, 0, 75, 61
3, 44640, Note_on_c, 0, 75, 0
3, 44640, Note_on_c, 0, 80, 0
3, 44760, Note_on_c, 0, 80, 64
3, 44880, Note_on_c, 0, 73, 65
3, 45120, Note_on_c, 0, 73, 0
3, 45120, Note_on_c, 0, 80, 0
3, 45240, Note_on_c, 0, 80, 67
3, 45360, Note_on_c, 0, 73, 68
3, 45600, Note_on_c, 0, 73, 0
3, 45600, Note_on_c, 0, 80, 0
3, 45720, Note_on_c, 0, 80, 71
3, 45840, Note_on_c, 0, 73, 72
3, 46080, Note_on_c, 0, 73, 0
3, 46080, Note_on_c, 0, 80, 0
3, 46200, Note_on_c, 0, 79, 75
3, 46320, Note_on_c, 0, 73, 76
3, 46560, Note_on_c, 0, 73, 0
3, 46560, Note_on_c, 0, 79, 0
3, 46680, Note_on_c, 0, 78, 79
3, 46800, Note_on_c, 0, 73, 80
3, 47040, Note_on_c, 0, 73, 0
3, 47040, Note_on_c, 0, 78, 0
3, 47160, Note_on_c, 0, 78, 83
3, 47280, Note_on_c, 0, 73, 84
3, 47520, Note_on_c, 0, 73, 0
3, 47520, Note_on_c, 0, 78, 0
3, 47640, Note_on_c, 0, 78, 87
3, 47760, Note_on_c, 0, 73, 88
3, 48000, Note_on_c, 0, 73, 0
3, 48000, Note_on_c, 0, 78, 0
3, 48120, Note_on_c, 0, 79, 91
3, 48240, Note_on_c, 0, 73, 92
3, 48480, Note_on_c, 0, 73, 0
3, 48480, Note_on_c, 0, 79, 0
3, 48600, Note_on_c, 0, 78, 95
3, 48720, Note_on_c, 0, 73, 96
3, 48960, Note_on_c, 0, 73, 0
3, 48960, Note_on_c, 0, 78, 0
3, 49080, Note_on_c, 0, 78, 99
3, 49200, Note_on_c, 0, 73, 100
3, 49440, Note_on_c, 0, 73, 0
3, 49440, Note_on_c, 0, 78, 0
3, 49560, Note_on_c, 0, 78, 103
3, 49680, Note_on_c, 0, 73, 104
3, 49920, Note_on_c, 0, 73, 0
3, 49920, Note_on_c, 0, 78, 0
3, 50040, Note_on_c, 0, 78, 107
3, 50160, Note_on_c, 0, 73, 107
3, 50400, Note_on_c, 0, 73, 0
3, 50400, Note_on_c, 0, 78, 0
3, 50520, Note_on_c, 0, 78, 109
3, 50640, Note_on_c, 0, 73, 109
3, 50880, Note_on_c, 0, 73, 0
3, 50880, Note_on_c, 0, 78, 0
3, 51000, Note_on_c, 0, 78, 110
3, 51120, Note_on_c, 0, 73, 110
3, 51360, Note_on_c, 0, 73, 0
3, 51360, Note_on_c, 0, 78, 0
3, 51480, Note_on_c, 0, 78, 112
3, 51600, Note_on_c, 0, 73, 112
3, 51840, Note_on_c, 0, 73, 0
3, 51840, Note_on_c, 0, 78, 0
3, 51840, Note_on_c, 0, 73, 110
3, 51840, Note_on_c, 0, 77, 110
3, 52320, Note_on_c, 0, 77, 0
3, 52320, Note_on_c, 0, 73, 0
3, 58560, Note_on_c, 0, 68, 100
3, 59040, Note_on_c, 0, 68, 0
3, 59040, Note_on_c, 0, 66, 97
3, 59520, Note_on_c, 0, 66, 0
3, 59520, Note_on_c, 0, 66, 94
3, 60480, Note_on_c, 0, 66, 0
3, 62400, Note_on_c, 0, 80, 108
3, 62880, Note_on_c, 0, 80, 0
3, 62880, Note_on_c, 0, 78, 105
3, 63360, Note_on_c, 0, 78, 0
3, 63360, Note_on_c, 0, 78, 100
3, 64320, Note_on_c, 0, 78, 0
3, 68640, Note_on_c, 0, 60, 55
3, 68640, Note_on_c, 0, 63, 55
3, 68640, Note_on_c, 0, 56, 55
3, 69120, Note_on_c, 0, 56, 0
3, 69120, Note_on_c, 0, 63, 0
3, 69120, Note_on_c, 0, 60, 0
3, 69600, Note_on_c, 0, 63, 58
3, 69600, Note_on_c, 0, 60, 58
3, 70080, Note_on_c, 0, 60, 0
3, 70080, Note_on_c, 0, 63, 0
3, 70560, Note_on_c, 0, 66, 62
3, 70560, Note_on_c, 0, 63, 62
3, 70560, Note_on_c, 0, 60, 62
3, 71040, Note_on_c, 0, 60, 0
3, 71040, Note_on_c, 0, 63, 0
3, 71040, Note_on_c, 0, 66, 0
3, 71520, Note_on_c, 0, 65, 66
3, 71520, Note_on_c, 0, 61, 66
3, 71520, Note_on_c, 0, 59, 66
3, 72000, Note_on_c, 0, 59, 0
3, 72000, Note_on_c, 0, 61, 0
3, 72000, Note_on_c, 0, 65, 0
3, 73440, Note_on_c, 0, 61, 57
3, 73920, Note_on_c, 0, 61, 0
3, 73920, Note_on_c, 0, 61, 60
3, 74400, Note_on_c, 0, 61, 0
3, 74400, Note_on_c, 0, 61, 63
3, 74880, Note_on_c, 0, 61, 0
3, 74880, Note_on_c, 0, 59, 66
3, 74880, Note_on_c, 0, 61, 66
3, 74880, Note_on_c, 0, 65, 66
3, 76320, Note_on_c, 0, 65, 0
3, 76320, Note_on_c, 0, 61, 0
3, 76320, Note_on_c, 0, 59, 0
3, 76320, Note_on_c, 0, 56, 59
3, 76320, Note_on_c, 0, 61, 59
3, 76800, Note_on_c, 0, 61, 0
3, 76800, Note_on_c, 0, 56, 0
3, 76800, Note_on_c, 0, 61, 59
3, 76800, Note_on_c, 0, 58, 59
3, 77280, Note_on_c, 0, 58, 0
3, 77280, Note_on_c, 0, 61, 0
3, 77280, Note_on_c, 0, 63, 61
3, 77760, Note_on_c, 0, 63, 0
3, 77760, Note_on_c, 0, 61, 64
3, 78240, Note_on_c, 0, 61, 0
3, 78240, Note_on_c, 0, 66, 66
3, 78720, Note_on_c, 0, 66, 0
3, 78720, Note_on_c, 0, 65, 70
3, 79200, Note_on_c, 0, 65, 0
3, 79200, Note_on_c, 0, 63, 66
3, 79680, Note_on_c, 0, 63, 0
3, 79680, Note_on_c, 0, 61, 61
3, 80160, Note_on_c, 0, 61, 0
3, 101880, Note_on_c, 0, 78, 66
3, 102000, Note_on_c, 0, 75, 66
3, 102240, Note_on_c, 0, 75, 0
3, 102240, Note_on_c, 0, 78, 0
3, 102360, Note_on_c, 0, 78, 66
3, 102480, Note_on_c, 0, 75, 66
3, 102720, Note_on_c, 0, 75, 0
3, 102720, Note_on_c, 0, 78, 0
3, 102840, Note_on_c, 0, 78, 65
3, 102960, Note_on_c, 0, 75, 65
3, 103200, Note_on_c, 0, 75, 0
3, 103200, Note_on_c, 0, 78, 0
3, 103320, Note_on_c, 0, 78, 65
3, 103440, Note_on_c, 0, 75, 65
3, 103680, Note_on_c, 0, 75, 0
3, 103680, Note_on_c, 0, 78, 0
3, 103800, Note_on_c, 0, 78, 64
3, 103920, Note_on_c, 0, 75, 64
3, 104160, Note_on_c, 0, 75, 0
3, 104160, Note_on_c, 0, 78, 0
3, 104280, Note_on_c, 0, 78, 64
3, 104400, Note_on_c, 0, 75, 64
3, 104640, Note_on_c, 0, 75, 0
3, 104640, Note_on_c, 0, 78, 0
3, 104760, Note_on_c, 0, 78, 63
3, 104880, Note_on_c, 0, 75, 63
3, 105120, Note_on_c, 0, 75, 0
3, 105120, Note_on_c, 0, 78, 0
3, 105240, Note_on_c, 0, 78, 63
3, 105360, Note_on_c, 0, 75, 63
3, 105600, Note_on_c, 0, 75, 0
3, 105600, Note_on_c, 0, 78, 0
3, 105720, Note_on_c, 0, 78, 62
3, 105840, Note_on_c, 0, 75, 62
3, 106080, Note_on_c, 0, 75, 0
3, 106080, Note_on_c, 0, 78, 0
3, 106200, Note_on_c, 0, 78, 62
3, 106320, Note_on_c, 0, 75, 62
3, 106560, Note_on_c, 0, 75, 0
3, 106560, Note_on_c, 0, 78, 0
3, 106680, Note_on_c, 0, 78, 61
3, 106800, Note_on_c, 0, 75, 61
3, 107040, Note_on_c, 0, 75, 0
3, 107040, Note_on_c, 0, 78, 0
3, 107160, Note_on_c, 0, 78, 61
3, 107280, Note_on_c, 0, 75, 61
3, 107520, Note_on_c, 0, 75, 0
3, 107520, Note_on_c, 0, 78, 0
3, 107640, Note_on_c, 0, 78, 60
3, 107760, Note_on_c, 0, 75, 60
3, 108000, Note_on_c, 0, 75, 0
3, 108000, Note_on_c, 0, 78, 0
3, 108120, Note_on_c, 0, 78, 60
3, 108240, Note_on_c, 0, 75, 60
3, 108480, Note_on_c, 0, 75, 0
3, 108480, Note_on_c, 0, 78, 0
3, 108600, Note_on_c, 0, 78, 59
3, 108720, Note_on_c, 0, 75, 59
3, 108960, Note_on_c, 0, 75, 0
3, 108960, Note_on_c, 0, 78, 0
3, 109080, Note_on_c, 0, 78, 59
3, 109200, Note_on_c, 0, 75, 59
3, 109440, Note_on_c, 0, 75, 0
3, 109440, Note_on_c, 0, 78, 0
3, 109560, Note_on_c, 0, 80, 60
3, 109680, Note_on_c, 0, 75, 61
3, 109920, Note_on_c, 0, 75, 0
3, 109920, Note_on_c, 0, 80, 0
3, 110040, Note_on_c, 0, 80, 64
3, 110160, Note_on_c, 0, 73, 65
3, 110400, Note_on_c, 0, 73, 0
3, 110400, Note_on_c, 0, 80, 0
3, 110520, Note_on_c, 0, 80, 67
3, 110640, Note_on_c, 0, 73, 68
3, 110880, Note_on_c, 0, 73, 0
3, 110880, Note_on_c, 0, 80, 0
3, 111000, Note_on_c, 0, 80, 71
3, 111120, Note_on_c, 0, 73, 72
3, 111360, Note_on_c, 0, 73, 0
3, 111360, Note_on_c, 0, 80, 0
3, 111480, Note_on_c, 0, 79, 75
3, 111600, Note_on_c, 0, 73, 76
3, 111840, Note_on_c, 0, 73, 0
3, 111840, Note_on_c, 0, 79, 0
3, 111960, Note_on_c, 0, 78, 79
3, 112080, Note_on_c, 0, 73, 80
3, 112320, Note_on_c, 0, 73, 0
3, 112320, Note_on_c, 0, 78, 0
3, 112440, Note_on_c, 0, 78, 83
3, 112560, Note_on_c, 0, 73, 84
3, 112800, Note_on_c, 0, 73, 0
3, 112800, Note_on_c, 0, 78, 0
3, 112920, Note_on_c, 0, 78, 87
3, 113040, Note_on_c, 0, 73, 88
3, 113280, Note_on_c, 0, 73, 0
3, 113280, Note_on_c, 0, 78, 0
3, 113400, Note_on_c, 0, 79, 91
3, 113520, Note_on_c, 0, 73, 92
3, 113760, Note_on_c, 0, 73, 0
3, 113760, Note_on_c, 0, 79, 0
3, 113880, Note_on_c, 0, 78, 95
3, 114000, Note_on_c, 0, 73, 96
3, 114240, Note_on_c, 0, 73, 0
3, 114240, Note_on_c, 0, 78, 0
3, 114360, Note_on_c, 0, 78, 99
3, 114480, Note_on_c, 0, 73, 100
3, 114720, Note_on_c, 0, 73, 0
3, 114720, Note_on_c, 0, 78, 0
3, 114840, Note_on_c, 0, 78, 103
3, 114960, Note_on_c, 0, 73, 104
3, 115200, Note_on_c, 0, 73, 0
3, 115200, Note_on_c, 0, 78, 0
3, 115320, Note_on_c, 0, 78, 107
3, 115440, Note_on_c, 0, 73, 107
3, 115680, Note_on_c, 0, 73, 0
3, 115680, Note_on_c, 0, 78, 0
3, 115800, Note_on_c, 0, 78, 109
3, 115920, Note_on_c, 0, 73, 109
3, 116160, Note_on_c, 0, 73, 0
3, 116160, Note_on_c, 0, 78, 0
3, 116280, Note_on_c, 0, 78, 110
3, 116400, Note_on_c, 0, 73, 110
3, 116640, Note_on_c, 0, 73, 0
3, 116640, Note_on_c, 0, 78, 0
3, 116760, Note_on_c, 0, 78, 112
3, 116880, Note_on_c, 0, 73, 112
3, 117120, Note_on_c, 0, 73, 0
3, 117120, Note_on_c, 0, 78, 0
3, 117120, Note_on_c, 0, 77, 110
3, 117120, Note_on_c, 0, 73, 110
3, 117600, Note_on_c, 0, 73, 0
3, 117600, Note_on_c, 0, 77, 0
3, 123840, Note_on_c, 0, 68, 100
3, 124320, Note_on_c, 0, 68, 0
3, 124320, Note_on_c, 0, 66, 97
3, 124800, Note_on_c, 0, 66, 0
3, 124800, Note_on_c, 0, 66, 94
3, 125760, Note_on_c, 0, 66, 0
3, 127680, Note_on_c, 0, 80, 108
3, 128160, Note_on_c, 0, 80, 0
3, 128160, Note_on_c, 0, 78, 105
3, 128640, Note_on_c, 0, 78, 0
3, 128640, Note_on_c, 0, 78, 100
3, 129600, Note_on_c, 0, 78, 0
3, 133920, Note_on_c, 0, 56, 55
3, 133920, Note_on_c, 0, 63, 55
3, 133920, Note_on_c, 0, 60, 55
3, 134400, Note_on_c, 0, 60, 0
3, 134400, Note_on_c, 0, 63, 0
3, 134400, Note_on_c, 0, 56, 0
3, 134880, Note_on_c, 0, 60, 58
3, 134880, Note_on_c, 0, 63, 58
3, 135360, Note_on_c, 0, 63, 0
3, 135360, Note_on_c, 0, 60, 0
3, 135840, Note_on_c, 0, 60, 62
3, 135840, Note_on_c, 0, 63, 62
3, 135840, Note_on_c, 0, 66, 62
3, 136320, Note_on_c, 0, 66, 0
3, 136320, Note_on_c, 0, 63, 0
3, 136320, Note_on_c, 0, 60, 0
3, 136800, Note_on_c, 0, 59, 66
3, 136800, Note_on_c, 0, 61, 66
3, 136800, Note_on_c, 0, 65, 66
3, 137280, Note_on_c, 0, 65, 0
3, 137280, Note_on_c, 0, 61, 0
3, 137280, Note_on_c, 0, 59, 0
3, 138000, Control_c, 0, 64, 0
3, 138720, Note_on_c, 0, 61, 61
3, 139200, Note_on_c, 0, 61, 0
3, 139200, Note_on_c, 0, 61, 61
3, 139680, Note_on_c, 0, 61, 0
3, 139680, Note_on_c, 0, 61, 62
3, 140160, Note_on_c, 0, 61, 0
3, 140160, Note_on_c, 0, 66, 67
3, 140160, Note_on_c, 0, 62, 67
3, 141600, Note_on_c, 0, 62, 0
3, 141600, Note_on_c, 0, 66, 0
3, 141600, Note_on_c, 0, 66, 64
3, 141600, Note_on_c, 0, 62, 64
3, 142080, Note_on_c, 0, 62, 0
3, 142080, Note_on_c, 0, 66, 0
3, 142080, Note_on_c, 0, 71, 68
3, 143040, Note_on_c, 0, 71, 0
3, 143040, Note_on_c, 0, 68, 65
3, 143520, Note_on_c, 0, 68, 0
3, 143520, Note_on_c, 0, 64, 64
3, 144000, Note_on_c, 0, 64, 0
3, 144120, Note_on_c, 0, 76, 66
3, 144240, Note_on_c, 0, 76, 0
3, 144240, Note_on_c, 0, 73, 66
3, 144360, Note_on_c, 0, 73, 0
3, 144360, Note_on_c, 0, 76, 65
3, 144480, Note_on_c, 0, 76, 0
3, 144480, Note_on_c, 0, 73, 64
3, 144600, Note_on_c, 0, 73, 0
3, 144600, Note_on_c, 0, 76, 64
3, 144720, Note_on_c, 0, 76, 0
3, 144720, Note_on_c, 0, 73, 63
3, 144840, Note_on_c, 0, 73, 0
3, 144840, Note_on_c, 0, 76, 63
3, 144960, Note_on_c, 0, 76, 0
3, 144960, Note_on_c, 0, 73, 62
3, 145080, Note_on_c, 0, 73, 0
3, 145080, Note_on_c, 0, 76, 62
3, 145200, Note_on_c, 0, 76, 0
3, 145200, Note_on_c, 0, 73, 61
3, 145320, Note_on_c, 0, 73, 0
3, 145320, Note_on_c, 0, 76, 61
3, 145440, Note_on_c, 0, 76, 0
3, 145440, Note_on_c, 0, 73, 60
3, 145560, Note_on_c, 0, 73, 0
3, 145560, Note_on_c, 0, 76, 59
3, 145680, Note_on_c, 0, 76, 0
3, 145680, Note_on_c, 0, 73, 59
3, 145800, Note_on_c, 0, 73, 0
3, 145800, Note_on_c, 0, 76, 57
3, 145920, Note_on_c, 0, 76, 0
3, 145920, Note_on_c, 0, 73, 61
3, 146040, Note_on_c, 0, 73, 0
3, 146040, Note_on_c, 0, 75, 63
3, 146160, Note_on_c, 0, 75, 0
3, 146160, Note_on_c, 0, 73, 65
3, 146280, Note_on_c, 0, 73, 0
3, 146280, Note_on_c, 0, 75, 67
3, 146400, Note_on_c, 0, 75, 0
3, 146400, Note_on_c, 0, 71, 69
3, 146520, Note_on_c, 0, 71, 0
3, 146520, Note_on_c, 0, 75, 71
3, 146640, Note_on_c, 0, 75, 0
3, 146640, Note_on_c, 0, 71, 74
3, 146760, Note_on_c, 0, 71, 0
3, 146760, Note_on_c, 0, 75, 76
3, 146880, Note_on_c, 0, 75, 0
3, 146880, Note_on_c, 0, 71, 78
3, 147000, Note_on_c, 0, 71, 0
3, 147000, Note_on_c, 0, 75, 80
3, 147120, Note_on_c, 0, 75, 0
3, 147120, Note_on_c, 0, 71, 82
3, 147240, Note_on_c, 0, 71, 0
3, 147240, Note_on_c, 0, 75, 84
3, 147360, Note_on_c, 0, 75, 0
3, 147360, Note_on_c, 0, 71, 86
3, 147480, Note_on_c, 0, 71, 0
3, 147480, Note_on_c, 0, 75, 88
3, 147600, Note_on_c, 0, 75, 0
3, 147600, Note_on_c, 0, 71, 89
3, 147720, Note_on_c, 0, 71, 0
3, 147840, Note_on_c, 0, 75, 107
3, 148320, Note_on_c, 0, 75, 0
3, 148320, Note_on_c, 0, 68, 99
3, 148800, Note_on_c, 0, 68, 0
3, 148800, Note_on_c, 0, 67, 101
3, 149280, Note_on_c, 0, 67, 0
3, 149280, Note_on_c, 0, 68, 102
3, 149760, Note_on_c, 0, 68, 0
3, 170880, Note_on_c, 0, 65, 101
3, 170880, Note_on_c, 0, 61, 101
3, 172320, Note_on_c, 0, 65, 0
3, 172320, Note_on_c, 0, 66, 59
3, 172680, Note_on_c, 0, 66, 0
3, 172680, Note_on_c, 0, 68, 62
3, 172800, Note_on_c, 0, 68, 0
3, 172800, Note_on_c, 0, 61, 0
3, 173280, Note_on_c, 0, 61, 62
3, 173760, Note_on_c, 0, 61, 0
3, 173760, Note_on_c, 0, 61, 63
3, 174240, Note_on_c, 0, 61, 0
3, 174240, Note_on_c, 0, 61, 64
3, 174720, Note_on_c, 0, 61, 0
3, 174720, Note_on_c, 0, 65, 66
3, 174720, Note_on_c, 0, 61, 66
3, 174720, Note_on_c, 0, 59, 66
3, 176160, Note_on_c, 0, 59, 0
3, 176160, Note_on_c, 0, 61, 0
3, 176160, Note_on_c, 0, 65, 0
3, 176160, Note_on_c, 0, 61, 59
3, 176160, Note_on_c, 0, 56, 59
3, 176640, Note_on_c, 0, 56, 0
3, 176640, Note_on_c, 0, 61, 0
3, 176640, Note_on_c, 0, 58, 60
3, 176640, Note_on_c, 0, 61, 60
3, 177120, Note_on_c, 0, 61, 0
3, 177120, Note_on_c, 0, 58, 0
3, 177120, Note_on_c, 0, 63, 62
3, 177600, Note_on_c, 0, 63, 0
3, 177600, Note_on_c, 0, 61, 63
3, 178080, Note_on_c, 0, 61, 0
3, 178080, Note_on_c, 0, 66, 65
3, 178560, Note_on_c, 0, 66, 0
3, 178560, Note_on_c, 0, 65, 70
3, 179040, Note_on_c, 0, 65, 0
3, 179040, Note_on_c, 0, 63, 67
3, 179520, Note_on_c, 0, 63, 0
3, 179520, Note_on_c, 0, 61, 64
3, 180000, Note_on_c, 0, 61, 0
3, 215160, Note_on_c, 0, 83, 72
3, 215280, Note_on_c, 0, 80, 72
3, 215520, Note_on_c, 0, 80, 0
3, 215520, Note_on_c, 0, 83, 0
3, 215640, Note_on_c, 0, 83, 71
3, 215760, Note_on_c, 0, 80, 71
3, 216000, Note_on_c, 0, 80, 0
3, 216000, Note_on_c, 0, 83, 0
3, 216120, Note_on_c, 0, 83, 70
3, 216240, Note_on_c, 0, 80, 70
3, 216480, Note_on_c, 0, 80, 0
3, 216480, Note_on_c, 0, 83, 0
3, 216600, Note_on_c, 0, 83, 70
3, 216720, Note_on_c, 0, 80, 69
3, 216960, Note_on_c, 0, 80, 0
3, 216960, Note_on_c, 0, 83, 0
3, 217080, Note_on_c, 0, 83, 69
3, 217200, Note_on_c, 0, 80, 68
3, 217440, Note_on_c, 0, 80, 0
3, 217440, Note_on_c, 0, 83, 0
3, 217560, Note_on_c, 0, 83, 68
3, 217680, Note_on_c, 0, 80, 68
3, 217920, Note_on_c, 0, 80, 0
3, 217920, Note_on_c, 0, 83, 0
3, 218040, Note_on_c, 0, 83, 67
3, 218160, Note_on_c, 0, 80, 67
3, 218400, Note_on_c, 0, 80, 0
3, 218400, Note_on_c, 0, 83, 0
3, 218520, Note_on_c, 0, 83, 66
3, 218640, Note_on_c, 0, 80, 66
3, 218880, Note_on_c, 0, 80, 0
3, 218880, Note_on_c, 0, 83, 0
3, 219000, Note_on_c, 0, 83, 65
3, 219120, Note_on_c, 0, 80, 65
3, 219360, Note_on_c, 0, 80, 0
3, 219360, Note_on_c, 0, 83, 0
3, 219480, Note_on_c, 0, 83, 64
3, 219600, Note_on_c, 0, 80, 64
3, 219840, Note_on_c, 0, 80, 0
3, 219840, Note_on_c, 0, 83, 0
3, 219960, Note_on_c, 0, 83, 64
3, 220080, Note_on_c, 0, 80, 63
3, 220320, Note_on_c, 0, 80, 0
3, 220320, Note_on_c, 0, 83, 0
3, 220440, Note_on_c, 0, 83, 63
3, 220560, Note_on_c, 0, 80, 63
3, 220800, Note_on_c, 0, 80, 0
3, 220800, Note_on_c, 0, 83, 0
3, 220920, Note_on_c, 0, 83, 62
3, 221040, Note_on_c, 0, 80, 62
3, 221280, Note_on_c, 0, 80, 0
3, 221280, Note_on_c, 0, 83, 0
3, 221400, Note_on_c, 0, 83, 61
3, 221520, Note_on_c, 0, 80, 61
3, 221760, Note_on_c, 0, 80, 0
3, 221760, Note_on_c, 0, 83, 0
3, 221880, Note_on_c, 0, 83, 60
3, 222000, Note_on_c, 0, 80, 60
3, 222240, Note_on_c, 0, 80, 0
3, 222240, Note_on_c, 0, 83, 0
3, 222360, Note_on_c, 0, 83, 59
3, 222480, Note_on_c, 0, 80, 59
3, 222720, Note_on_c, 0, 80, 0
3, 222720, Note_on_c, 0, 83, 0
3, 222840, Note_on_c, 0, 85, 63
3, 222960, Note_on_c, 0, 80, 64
3, 223200, Note_on_c, 0, 80, 0
3, 223200, Note_on_c, 0, 85, 0
3, 223320, Note_on_c, 0, 85, 66
3, 223440, Note_on_c, 0, 78, 67
3, 223680, Note_on_c, 0, 78, 0
3, 223680, Note_on_c, 0, 85, 0
3, 223800, Note_on_c, 0, 85, 70
3, 223920, Note_on_c, 0, 78, 71
3, 224160, Note_on_c, 0, 78, 0
3, 224160, Note_on_c, 0, 85, 0
3, 224280, Note_on_c, 0, 85, 74
3, 224400, Note_on_c, 0, 78, 75
3, 224640, Note_on_c, 0, 78, 0
3, 224640, Note_on_c, 0, 85, 0
3, 224760, Note_on_c, 0, 84, 80
3, 224880, Note_on_c, 0, 78, 81
3, 225120, Note_on_c, 0, 78, 0
3, 225120, Note_on_c, 0, 84, 0
3, 225240, Note_on_c, 0, 84, 83
3, 225360, Note_on_c, 0, 78, 84
3, 225600, Note_on_c, 0, 78, 0
3, 225600, Note_on_c, 0, 84, 0
3, 225720, Note_on_c, 0, 84, 86
3, 225840, Note_on_c, 0, 78, 87
3, 226080, Note_on_c, 0, 78, 0
3, 226080, Note_on_c, 0, 84, 0
3, 226200, Note_on_c, 0, 84, 89
3, 226320, Note_on_c, 0, 78, 90
3, 226560, Note_on_c, 0, 78, 0
3, 226560, Note_on_c, 0, 84, 0
3, 226680, Note_on_c, 0, 84, 92
3, 226800, Note_on_c, 0, 78, 93
3, 227040, Note_on_c, 0, 78, 0
3, 227040, Note_on_c, 0, 84, 0
3, 227160, Note_on_c, 0, 84, 95
3, 227280, Note_on_c, 0, 78, 96
3, 227520, Note_on_c, 0, 78, 0
3, 227520, Note_on_c, 0, 84, 0
3, 227640, Note_on_c, 0, 84, 98
3, 227760, Note_on_c, 0, 78, 99
3, 228000, Note_on_c, 0, 78, 0
3, 228000, Note_on_c, 0, 84, 0
3, 228120, Note_on_c, 0, 84, 101
3, 228240, Note_on_c, 0, 78, 102
3, 228480, Note_on_c, 0, 78, 0
3, 228480, Note_on_c, 0, 84, 0
3, 228600, Note_on_c, 0, 83, 103
3, 228720, Note_on_c, 0, 78, 103
3, 228960, Note_on_c, 0, 78, 0
3, 228960, Note_on_c, 0, 83, 0
3, 229080, Note_on_c, 0, 83, 105
3, 229200, Note_on_c, 0, 78, 105
3, 229440, Note_on_c, 0, 78, 0
3, 229440, Note_on_c, 0, 83, 0
3, 229560, Note_on_c, 0, 83, 106
3, 229680, Note_on_c, 0, 78, 106
3, 229920, Note_on_c, 0, 78, 0
3, 229920, Note_on_c, 0, 83, 0
3, 230040, Note_on_c, 0, 83, 108
3, 230160, Note_on_c, 0, 78, 108
3, 230400, Note_on_c, 0, 78, 0
3, 230400, Note_on_c, 0, 83, 0
3, 230400, Note_on_c, 0, 82, 110
3, 230400, Note_on_c, 0, 78, 110
3, 230880, Note_on_c, 0, 78, 0
3, 230880, Note_on_c, 0, 82, 0
3, 237120, Note_on_c, 0, 73, 88
3, 237120, Note_on_c, 0, 75, 88
3, 237600, Note_on_c, 0, 75, 0
3, 237600, Note_on_c, 0, 73, 0
3, 237600, Note_on_c, 0, 75, 87
3, 237600, Note_on_c, 0, 71, 87
3, 238080, Note_on_c, 0, 71, 0
3, 238080, Note_on_c, 0, 75, 0
3, 238080, Note_on_c, 0, 73, 83
3, 238080, Note_on_c, 0, 71, 83
3, 239040, Note_on_c, 0, 71, 0
3, 239040, Note_on_c, 0, 73, 0
3, 240960, Note_on_c, 0, 82, 94
3, 240960, Note_on_c, 0, 87, 94
3, 240960, Note_on_c, 0, 85, 94
3, 240960, Note_on_c, 0, 79, 94
3, 241440, Note_on_c, 0, 79, 0
3, 241440, Note_on_c, 0, 82, 0
3, 241440, Note_on_c, 0, 87, 0
3, 241440, Note_on_c, 0, 85, 0
3, 241440, Note_on_c, 0, 87, 91
3, 241440, Note_on_c, 0, 83, 91
3, 241440, Note_on_c, 0, 80, 91
3, 241920, Note_on_c, 0, 80, 0
3, 241920, Note_on_c, 0, 83, 0
3, 241920, Note_on_c, 0, 87, 0
3, 241920, Note_on_c, 0, 80, 87
3, 241920, Note_on_c, 0, 85, 87
3, 241920, Note_on_c, 0, 83, 87
3, 241920, Note_on_c, 0, 77, 87
3, 242880, Note_on_c, 0, 77, 0
3, 242880, Note_on_c, 0, 80, 0
3, 242880, Note_on_c, 0, 85, 0
3, 242880, Note_on_c, 0, 83, 0
3, 247200, Note_on_c, 0, 65, 67
3, 247200, Note_on_c, 0, 68, 67
3, 247680, Note_on_c, 0, 68, 0
3, 247680, Note_on_c, 0, 65, 0
3, 248160, Note_on_c, 0, 68, 65
3, 248160, Note_on_c, 0, 65, 65
3, 248640, Note_on_c, 0, 65, 0
3, 248640, Note_on_c, 0, 68, 0
3, 249120, Note_on_c, 0, 71, 63
3, 249120, Note_on_c, 0, 68, 63
3, 249120, Note_on_c, 0, 65, 63
3, 249600, Note_on_c, 0, 65, 0
3, 249600, Note_on_c, 0, 68, 0
3, 249600, Note_on_c, 0, 71, 0
3, 250080, Note_on_c, 0, 70, 61
3, 250080, Note_on_c, 0, 66, 61
3, 250560, Note_on_c, 0, 66, 0
3, 250560, Note_on_c, 0, 70, 0
3, 252000, Note_on_c, 0, 66, 57
3, 252000, Note_on_c, 0, 64, 57
3, 252000, Note_on_c, 0, 70, 57
3, 252480, Note_on_c, 0, 70, 0
3, 252480, Note_on_c, 0, 64, 0
3, 252480, Note_on_c, 0, 66, 0
3, 252960, Note_on_c, 0, 58, 69
3, 253320, Note_on_c, 0, 58, 0
3, 253320, Note_on_c, 0, 59, 72
3, 253440, Note_on_c, 0, 59, 0
3, 253440, Note_on_c, 0, 64, 74
3, 253440, Note_on_c, 0, 61, 74
3, 253920, Note_on_c, 0, 61, 0
3, 253920, Note_on_c, 0, 64, 0
3, 253920, Note_on_c, 0, 64, 68
3, 254400, Note_on_c, 0, 64, 0
3, 254400, Note_on_c, 0, 64, 70
3, 254400, Note_on_c, 0, 61, 70
3, 254880, Note_on_c, 0, 61, 0
3, 254880, Note_on_c, 0, 64, 0
3, 254880, Note_on_c, 0, 64, 73
3, 254880, Note_on_c, 0, 61, 73
3, 255360, Note_on_c, 0, 61, 0
3, 255360, Note_on_c, 0, 64, 0
3, 255360, Note_on_c, 0, 67, 75
3, 255360, Note_on_c, 0, 64, 75
3, 255840, Note_on_c, 0, 64, 0
3, 255840, Note_on_c, 0, 67, 0
3, 255840, Note_on_c, 0, 66, 77
3, 255840, Note_on_c, 0, 64, 77
3, 256320, Note_on_c, 0, 64, 0
3, 256320, Note_on_c, 0, 66, 0
3, 256320, Note_on_c, 0, 66, 79
3, 256320, Note_on_c, 0, 62, 79
3, 256800, Note_on_c, 0, 62, 0
3, 256800, Note_on_c, 0, 66, 0
3, 256800, Note_on_c, 0, 66, 81
3, 256800, Note_on_c, 0, 62, 81
3, 257280, Note_on_c, 0, 62, 0
3, 257280, Note_on_c, 0, 66, 0
3, 257280, Note_on_c, 0, 74, 85
3, 257280, Note_on_c, 0, 71, 85
3, 257760, Note_on_c, 0, 71, 0
3, 257760, Note_on_c, 0, 74, 0
3, 257760, Note_on_c, 0, 71, 87
3, 257760, Note_on_c, 0, 75, 87
3, 258240, Note_on_c, 0, 75, 0
3, 258240, Note_on_c, 0, 71, 0
3, 258240, Note_on_c, 0, 83, 95
3, 258240, Note_on_c, 0, 80, 95
3, 258720, Note_on_c, 0, 80, 0
3, 258720, Note_on_c, 0, 83, 0
3, 258720, Note_on_c, 0, 83, 83
3, 258720, Note_on_c, 0, 80, 83
3, 259200, Note_on_c, 0, 80, 0
3, 259200, Note_on_c, 0, 83, 0
3, 259680, Note_on_c, 0, 83, 73
3, 259680, Note_on_c, 0, 80, 73
3, 260160, Note_on_c, 0, 80, 0
3, 260160, Note_on_c, 0, 83, 0
3, 260640, Note_on_c, 0, 82, 80
3, 261120, Note_on_c, 0, 82, 0
3, 261600, Note_on_c, 0, 82, 87
3, 262080, Note_on_c, 0, 82, 0
3, 262560, Note_on_c, 0, 82, 95
3, 263040, Note_on_c, 0, 82, 0
3, 263520, Note_on_c, 0, 85, 109
3, 263520, Note_on_c, 0, 78, 109
3, 263520, Note_on_c, 0, 82, 109
3, 264000, Note_on_c, 0, 82, 0
3, 264000, Note_on_c, 0, 78, 0
3, 264000, Note_on_c, 0, 85, 0
3, 264000, Note_on_c, 0, 85, 112
3, 264000, Note_on_c, 0, 78, 112
3, 264000, Note_on_c, 0, 82, 112
3, 264480, Note_on_c, 0, 82, 0
3, 264480, Note_on_c, 0, 78, 0
3, 264480, Note_on_c, 0, 85, 0
3, 264480, Note_on_c, 0, 85, 115
3, 264480, Note_on_c, 0, 82, 115
3, 264480, Note_on_c, 0, 78, 115
3, 264960, Note_on_c, 0, 78, 0
3, 264960, Note_on_c, 0, 82, 0
3, 264960, Note_on_c, 0, 85, 0
3, 264960, Note_on_c, 0, 85, 119
3, 264960, Note_on_c, 0, 82, 119
3, 264960, Note_on_c, 0, 78, 119
3, 265440, Note_on_c, 0, 78, 0
3, 265440, Note_on_c, 0, 82, 0
3, 265440, Note_on_c, 0, 85, 0
3, 266880, Control_c, 0, 7, 117
3, 266880, Pitch_bend_c, 0, 8192
3, 266880, Control_c, 0, 1, 0
3, 266880, Control_c, 0, 64, 0
3, 266880, Control_c, 0, 93, 28
3, 266880, Control_c, 0, 91, 91
3, 266880, Control_c, 0, 10, 64
3, 266880, Control_c, 0, 0, 0
3, 266880, Control_c, 0, 32, 0
3, 266880, Program_c, 0, 0
3, 267840, Note_on_c, 0, 66, 94
3, 268560, Note_on_c, 0, 66, 0
3, 268560, Note_on_c, 0, 65, 91
3, 268716, Note_on_c, 0, 65, 0
3, 268800, Note_on_c, 0, 65, 85
3, 268956, Note_on_c, 0, 65, 0
3, 269520, Note_on_c, 0, 66, 63
3, 269676, Note_on_c, 0, 66, 0
3, 269760, Note_on_c, 0, 63, 67
3, 270120, Note_on_c, 0, 63, 0
3, 270120, Note_on_c, 0, 61, 61
3, 270198, Note_on_c, 0, 61, 0
3, 270240, Note_on_c, 0, 59, 59
3, 270396, Note_on_c, 0, 59, 0
3, 270480, Note_on_c, 0, 58, 55
3, 270636, Note_on_c, 0, 58, 0
3, 270720, Note_on_c, 0, 56, 52
3, 270980, Note_on_c, 0, 56, 0
3, 271680, Note_on_c, 0, 70, 96
3, 272400, Note_on_c, 0, 70, 0
3, 272400, Note_on_c, 0, 71, 91
3, 272556, Note_on_c, 0, 71, 0
3, 272640, Note_on_c, 0, 73, 85
3, 272874, Note_on_c, 0, 73, 0
3, 273360, Note_on_c, 0, 75, 65
3, 273516, Note_on_c, 0, 75, 0
3, 273600, Note_on_c, 0, 76, 69
3, 273960, Note_on_c, 0, 76, 0
3, 273960, Note_on_c, 0, 73, 62
3, 274038, Note_on_c, 0, 73, 0
3, 274080, Note_on_c, 0, 71, 60
3, 274236, Note_on_c, 0, 71, 0
3, 274320, Note_on_c, 0, 70, 56
3, 274476, Note_on_c, 0, 70, 0
3, 274560, Note_on_c, 0, 71, 52
3, 274860, Note_on_c, 0, 71, 0
3, 275520, Note_on_c, 0, 66, 62
3, 276240, Note_on_c, 0, 66, 0
3, 276240, Note_on_c, 0, 70, 59
3, 276240, Note_on_c, 0, 66, 59
3, 276396, Note_on_c, 0, 66, 0
3, 276396, Note_on_c, 0, 70, 0
3, 276480, Note_on_c, 0, 66, 56
3, 276840, Note_on_c, 0, 66, 0
3, 277200, Note_on_c, 0, 66, 53
3, 277356, Note_on_c, 0, 66, 0
3, 277440, Note_on_c, 0, 66, 56
3, 277920, Note_on_c, 0, 66, 0
3, 277920, Note_on_c, 0, 66, 50
3, 278076, Note_on_c, 0, 66, 0
3, 278160, Note_on_c, 0, 65, 49
3, 278316, Note_on_c, 0, 65, 0
3, 278520, Note_on_c, 0, 66, 52
3, 278598, Note_on_c, 0, 66, 0
3, 278760, Note_on_c, 0, 66, 53
3, 278838, Note_on_c, 0, 66, 0
3, 279000, Note_on_c, 0, 78, 55
3, 279078, Note_on_c, 0, 78, 0
3, 279240, Note_on_c, 0, 78, 57
3, 279318, Note_on_c, 0, 78, 0
3, 279480, Note_on_c, 0, 78, 59
3, 279558, Note_on_c, 0, 78, 0
3, 279720, Note_on_c, 0, 78, 61
3, 279798, Note_on_c, 0, 78, 0
3, 279960, Note_on_c, 0, 80, 63
3, 280038, Note_on_c, 0, 80, 0
3, 280200, Note_on_c, 0, 85, 65
3, 280278, Note_on_c, 0, 85, 0
3, 280440, Note_on_c, 0, 82, 67
3, 280518, Note_on_c, 0, 82, 0
3, 280680, Note_on_c, 0, 85, 69
3, 280758, Note_on_c, 0, 85, 0
3, 280920, Note_on_c, 0, 85, 71
3, 280998, Note_on_c, 0, 85, 0
3, 281160, Note_on_c, 0, 85, 73
3, 281238, Note_on_c, 0, 85, 0
3, 281400, Note_on_c, 0, 85, 75
3, 281478, Note_on_c, 0, 85, 0
3, 281640, Note_on_c, 0, 85, 76
3, 281718, Note_on_c, 0, 85, 0
3, 281880, Note_on_c, 0, 83, 78
3, 281958, Note_on_c, 0, 83, 0
3, 282120, Note_on_c, 0, 85, 80
3, 282198, Note_on_c, 0, 85, 0
3, 282360, Note_on_c, 0, 78, 61
3, 282438, Note_on_c, 0, 78, 0
3, 282600, Note_on_c, 0, 78, 63
3, 282678, Note_on_c, 0, 78, 0
3, 282840, Note_on_c, 0, 78, 65
3, 282918, Note_on_c, 0, 78, 0
3, 283080, Note_on_c, 0, 78, 67
3, 283158, Note_on_c, 0, 78, 0
3, 283320, Note_on_c, 0, 78, 68
3, 283398, Note_on_c, 0, 78, 0
3, 283560, Note_on_c, 0, 78, 70
3, 283638, Note_on_c, 0, 78, 0
3, 283800, Note_on_c, 0, 80, 72
3, 283878, Note_on_c, 0, 80, 0
3, 284040, Note_on_c, 0, 85, 73
3, 284118, Note_on_c, 0, 85, 0
3, 284280, Note_on_c, 0, 82, 75
3, 284358, Note_on_c, 0, 82, 0
3, 284520, Note_on_c, 0, 85, 77
3, 284598, Note_on_c, 0, 85, 0
3, 284760, Note_on_c, 0, 85, 79
3, 284838, Note_on_c, 0, 85, 0
3, 285000, Note_on_c, 0, 85, 80
3, 285078, Note_on_c, 0, 85, 0
3, 285240, Note_on_c, 0, 85, 82
3, 285318, Note_on_c, 0, 85, 0
3, 285480, Note_on_c, 0, 85, 84
3, 285558, Note_on_c, 0, 85, 0
3, 285720, Note_on_c, 0, 83, 85
3, 285798, Note_on_c, 0, 83, 0
3, 285960, Note_on_c, 0, 85, 87
3, 286038, Note_on_c, 0, 85, 0
3, 286200, Note_on_c, 0, 85, 89
3, 286278, Note_on_c, 0, 85, 0
3, 286440, Note_on_c, 0, 85, 91
3, 286518, Note_on_c, 0, 85, 0
3, 286680, Note_on_c, 0, 80, 92
3, 286758, Note_on_c, 0, 80, 0
3, 286920, Note_on_c, 0, 84, 94
3, 286998, Note_on_c, 0, 84, 0
3, 287160, Note_on_c, 0, 80, 96
3, 287238, Note_on_c, 0, 80, 0
3, 287400, Note_on_c, 0, 87, 98
3, 287478, Note_on_c, 0, 87, 0
3, 287640, Note_on_c, 0, 80, 99
3, 287718, Note_on_c, 0, 80, 0
3, 287880, Note_on_c, 0, 87, 101
3, 287958, Note_on_c, 0, 87, 0
3, 288000, Note_on_c, 0, 85, 102
3, 288000, Note_on_c, 0, 77, 102
3, 288240, Note_on_c, 0, 77, 0
3, 288240, Note_on_c, 0, 85, 0
3, 288360, Note_on_c, 0, 61, 90
3, 288438, Note_on_c, 0, 61, 0
3, 288600, Note_on_c, 0, 61, 85
3, 288678, Note_on_c, 0, 61, 0
3, 288840, Note_on_c, 0, 65, 84
3, 288918, Note_on_c, 0, 65, 0
3, 289080, Note_on_c, 0, 65, 83
3, 289158, Note_on_c, 0, 65, 0
3, 289320, Note_on_c, 0, 68, 81
3, 289398, Note_on_c, 0, 68, 0
3, 289560, Note_on_c, 0, 68, 80
3, 289638, Note_on_c, 0, 68, 0
3, 289800, Note_on_c, 0, 73, 79
3, 289878, Note_on_c, 0, 73, 0
3, 290040, Note_on_c, 0, 73, 78
3, 290118, Note_on_c, 0, 73, 0
3, 290280, Note_on_c, 0, 77, 77
3, 290358, Note_on_c, 0, 77, 0
3, 290520, Note_on_c, 0, 77, 76
3, 290598, Note_on_c, 0, 77, 0
3, 290760, Note_on_c, 0, 80, 75
3, 290838, Note_on_c, 0, 80, 0
3, 291000, Note_on_c, 0, 80, 74
3, 291078, Note_on_c, 0, 80, 0
3, 291240, Note_on_c, 0, 85, 73
3, 291318, Note_on_c, 0, 85, 0
3, 291480, Note_on_c, 0, 85, 72
3, 291558, Note_on_c, 0, 85, 0
3, 291720, Note_on_c, 0, 89, 71
3, 291798, Note_on_c, 0, 89, 0
3, 291960, Note_on_c, 0, 89, 70
3, 292038, Note_on_c, 0, 89, 0
3, 292200, Note_on_c, 0, 92, 68
3, 292278, Note_on_c, 0, 92, 0
3, 292440, Note_on_c, 0, 85, 67
3, 292518, Note_on_c, 0, 85, 0
3, 292680, Note_on_c, 0, 89, 66
3, 292758, Note_on_c, 0, 89, 0
3, 292920, Note_on_c, 0, 80, 65
3, 292998, Note_on_c, 0, 80, 0
3, 293160, Note_on_c, 0, 85, 64
3, 293238, Note_on_c, 0, 85, 0
3, 293400, Note_on_c, 0, 77, 63
3, 293478, Note_on_c, 0, 77, 0
3, 293640, Note_on_c, 0, 80, 62
3, 293718, Note_on_c, 0, 80, 0
3, 293880, Note_on_c, 0, 73, 61
3, 293958, Note_on_c, 0, 73, 0
3, 294120, Note_on_c, 0, 77, 60
3, 294198, Note_on_c, 0, 77, 0
3, 294360, Note_on_c, 0, 68, 59
3, 294438, Note_on_c, 0, 68, 0
3, 294600, Note_on_c, 0, 73, 58
3, 294678, Note_on_c, 0, 73, 0
3, 294840, Note_on_c, 0, 65, 57
3, 294918, Note_on_c, 0, 65, 0
3, 295080, Note_on_c, 0, 73, 55
3, 295158, Note_on_c, 0, 73, 0
3, 295320, Note_on_c, 0, 61, 54
3, 295398, Note_on_c, 0, 61, 0
3, 295560, Note_on_c, 0, 73, 53
3, 295638, Note_on_c, 0, 73, 0
3, 295800, Note_on_c, 0, 61, 52
3, 295878, Note_on_c, 0, 61, 0
3, 296040, Note_on_c, 0, 73, 51
3, 296118, Note_on_c, 0, 73, 0
3, 296280, Note_on_c, 0, 49, 50
3, 296358, Note_on_c, 0, 49, 0
3, 296520, Note_on_c, 0, 61, 49
3, 296598, Note_on_c, 0, 61, 0
3, 296760, Note_on_c, 0, 61, 48
3, 296838, Note_on_c, 0, 61, 0
3, 297000, Note_on_c, 0, 73, 47
3, 297078, Note_on_c, 0, 73, 0
3, 297240, Note_on_c, 0, 49, 46
3, 297318, Note_on_c, 0, 49, 0
3, 297480, Note_on_c, 0, 61, 47
3, 297558, Note_on_c, 0, 61, 0
3, 297600, Note_on_c, 0, 66, 94
3, 298320, Note_on_c, 0, 66, 0
3, 298320, Note_on_c, 0, 65, 92
3, 298476, Note_on_c, 0, 65, 0
3, 298560, Note_on_c, 0, 65, 87
3, 298716, Note_on_c, 0, 65, 0
3, 299280, Note_on_c, 0, 66, 62
3, 299436, Note_on_c, 0, 66, 0
3, 299520, Note_on_c, 0, 63, 68
3, 299880, Note_on_c, 0, 63, 0
3, 299880, Note_on_c, 0, 61, 64
3, 299958, Note_on_c, 0, 61, 0
3, 300000, Note_on_c, 0, 59, 62
3, 300156, Note_on_c, 0, 59, 0
3, 300240, Note_on_c, 0, 58, 59
3, 300396, Note_on_c, 0, 58, 0
3, 300480, Note_on_c, 0, 49, 56
3, 300480, Note_on_c, 0, 56, 56
3, 300840, Note_on_c, 0, 56, 0
3, 300840, Note_on_c, 0, 49, 0
3, 301440, Note_on_c, 0, 70, 94
3, 302160, Note_on_c, 0, 70, 0
3, 302160, Note_on_c, 0, 71, 92
3, 302316, Note_on_c, 0, 71, 0
3, 302400, Note_on_c, 0, 73, 90
3, 302634, Note_on_c, 0, 73, 0
3, 303120, Note_on_c, 0, 75, 62
3, 303276, Note_on_c, 0, 75, 0
3, 303360, Note_on_c, 0, 76, 66
3, 303720, Note_on_c, 0, 76, 0
3, 303720, Note_on_c, 0, 73, 62
3, 303798, Note_on_c, 0, 73, 0
3, 303840, Note_on_c, 0, 71, 61
3, 303996, Note_on_c, 0, 71, 0
3, 304080, Note_on_c, 0, 70, 58
3, 304236, Note_on_c, 0, 70, 0
3, 304320, Note_on_c, 0, 71, 56
3, 304680, Note_on_c, 0, 71, 0
3, 305280, Note_on_c, 0, 66, 56
3, 306000, Note_on_c, 0, 66, 0
3, 306000, Note_on_c, 0, 66, 54
3, 306156, Note_on_c, 0, 66, 0
3, 306240, Note_on_c, 0, 66, 50
3, 306600, Note_on_c, 0, 66, 0
3, 306960, Note_on_c, 0, 66, 46
3, 307116, Note_on_c, 0, 66, 0
3, 307200, Note_on_c, 0, 66, 50
3, 307680, Note_on_c, 0, 66, 0
3, 307680, Note_on_c, 0, 66, 48
3, 307836, Note_on_c, 0, 66, 0
3, 307920, Note_on_c, 0, 65, 46
3, 308076, Note_on_c, 0, 65, 0
3, 308280, Note_on_c, 0, 66, 51
3, 308358, Note_on_c, 0, 66, 0
3, 308520, Note_on_c, 0, 66, 53
3, 308598, Note_on_c, 0, 66, 0
3, 308760, Note_on_c, 0, 78, 55
3, 308838, Note_on_c, 0, 78, 0
3, 309000, Note_on_c, 0, 78, 57
3, 309078, Note_on_c, 0, 78, 0
3, 309240, Note_on_c, 0, 78, 59
3, 309318, Note_on_c, 0, 78, 0
3, 309480, Note_on_c, 0, 78, 61
3, 309558, Note_on_c, 0, 78, 0
3, 309720, Note_on_c, 0, 80, 63
3, 309798, Note_on_c, 0, 80, 0
3, 309960, Note_on_c, 0, 85, 65
3, 310038, Note_on_c, 0, 85, 0
3, 310200, Note_on_c, 0, 82, 67
3, 310278, Note_on_c, 0, 82, 0
3, 310440, Note_on_c, 0, 85, 69
3, 310518, Note_on_c, 0, 85, 0
3, 310680, Note_on_c, 0, 85, 71
3, 310758, Note_on_c, 0, 85, 0
3, 310920, Note_on_c, 0, 85, 73
3, 310998, Note_on_c, 0, 85, 0
3, 311160, Note_on_c, 0, 85, 75
3, 311238, Note_on_c, 0, 85, 0
3, 311400, Note_on_c, 0, 85, 77
3, 311478, Note_on_c, 0, 85, 0
3, 311640, Note_on_c, 0, 83, 79
3, 311718, Note_on_c, 0, 83, 0
3, 311880, Note_on_c, 0, 85, 81
3, 311958, Note_on_c, 0, 85, 0
3, 312000, Note_on_c, 0, 82, 82
3, 312078, Note_on_c, 0, 82, 0
3, 312120, Note_on_c, 0, 78, 71
3, 312198, Note_on_c, 0, 78, 0
3, 312360, Note_on_c, 0, 78, 72
3, 312438, Note_on_c, 0, 78, 0
3, 312600, Note_on_c, 0, 78, 74
3, 312678, Note_on_c, 0, 78, 0
3, 312840, Note_on_c, 0, 78, 76
3, 312918, Note_on_c, 0, 78, 0
3, 313080, Note_on_c, 0, 78, 77
3, 313158, Note_on_c, 0, 78, 0
3, 313320, Note_on_c, 0, 78, 79
3, 313398, Note_on_c, 0, 78, 0
3, 313560, Note_on_c, 0, 80, 81
3, 313638, Note_on_c, 0, 80, 0
3, 313800, Note_on_c, 0, 85, 82
3, 313878, Note_on_c, 0, 85, 0
3, 314040, Note_on_c, 0, 82, 84
3, 314118, Note_on_c, 0, 82, 0
3, 314280, Note_on_c, 0, 85, 86
3, 314358, Note_on_c, 0, 85, 0
3, 314520, Note_on_c, 0, 82, 87
3, 314598, Note_on_c, 0, 82, 0
3, 314760, Note_on_c, 0, 87, 89
3, 314838, Note_on_c, 0, 87, 0
3, 315000, Note_on_c, 0, 87, 90
3, 315078, Note_on_c, 0, 87, 0
3, 315240, Note_on_c, 0, 87, 92
3, 315318, Note_on_c, 0, 87, 0
3, 315480, Note_on_c, 0, 87, 94
3, 315558, Note_on_c, 0, 87, 0
3, 315720, Note_on_c, 0, 87, 95
3, 315798, Note_on_c, 0, 87, 0
3, 315840, Note_on_c, 0, 86, 96
3, 316080, Note_on_c, 0, 86, 0
3, 316200, Note_on_c, 0, 70, 86
3, 316278, Note_on_c, 0, 70, 0
3, 316440, Note_on_c, 0, 69, 80
3, 316518, Note_on_c, 0, 69, 0
3, 316680, Note_on_c, 0, 69, 79
3, 316758, Note_on_c, 0, 69, 0
3, 316920, Note_on_c, 0, 66, 77
3, 316998, Note_on_c, 0, 66, 0
3, 317160, Note_on_c, 0, 66, 76
3, 317238, Note_on_c, 0, 66, 0
3, 317400, Note_on_c, 0, 65, 75
3, 317478, Note_on_c, 0, 65, 0
3, 317640, Note_on_c, 0, 65, 73
3, 317718, Note_on_c, 0, 65, 0
3, 317880, Note_on_c, 0, 63, 72
3, 317958, Note_on_c, 0, 63, 0
3, 318120, Note_on_c, 0, 63, 70
3, 318198, Note_on_c, 0, 63, 0
3, 318360, Note_on_c, 0, 61, 69
3, 318438, Note_on_c, 0, 61, 0
3, 318600, Note_on_c, 0, 61, 68
3, 318678, Note_on_c, 0, 61, 0
3, 318840, Note_on_c, 0, 59, 66
3, 318918, Note_on_c, 0, 59, 0
3, 319080, Note_on_c, 0, 59, 65
3, 319158, Note_on_c, 0, 59, 0
3, 319320, Note_on_c, 0, 58, 63
3, 319398, Note_on_c, 0, 58, 0
3, 319560, Note_on_c, 0, 58, 62
3, 319638, Note_on_c, 0, 58, 0
3, 319800, Note_on_c, 0, 57, 61
3, 319878, Note_on_c, 0, 57, 0
3, 320040, Note_on_c, 0, 57, 59
3, 320118, Note_on_c, 0, 57, 0
3, 320280, Note_on_c, 0, 56, 58
3, 320358, Note_on_c, 0, 56, 0
3, 320520, Note_on_c, 0, 56, 56
3, 320598, Note_on_c, 0, 56, 0
3, 320760, Note_on_c, 0, 54, 55
3, 320838, Note_on_c, 0, 54, 0
3, 321000, Note_on_c, 0, 54, 54
3, 321078, Note_on_c, 0, 54, 0
3, 321240, Note_on_c, 0, 53, 52
3, 321318, Note_on_c, 0, 53, 0
3, 321480, Note_on_c, 0, 53, 51
3, 321558, Note_on_c, 0, 53, 0
3, 321600, Control_c, 0, 64, 127
3, 321960, Note_on_c, 0, 63, 109
3, 322038, Note_on_c, 0, 63, 0
3, 322200, Note_on_c, 0, 67, 107
3, 322278, Note_on_c, 0, 67, 0
3, 322440, Note_on_c, 0, 70, 105
3, 322518, Note_on_c, 0, 70, 0
3, 322680, Note_on_c, 0, 75, 103
3, 322758, Note_on_c, 0, 75, 0
3, 322920, Note_on_c, 0, 79, 101
3, 322998, Note_on_c, 0, 79, 0
3, 323160, Note_on_c, 0, 82, 99
3, 323238, Note_on_c, 0, 82, 0
3, 323400, Note_on_c, 0, 87, 96
3, 323478, Note_on_c, 0, 87, 0
3, 323760, Control_c, 0, 64, 0
3, 323880, Note_on_c, 0, 70, 69
3, 323958, Note_on_c, 0, 70, 0
3, 324120, Note_on_c, 0, 70, 68
3, 324198, Note_on_c, 0, 70, 0
3, 324360, Note_on_c, 0, 70, 66
3, 324438, Note_on_c, 0, 70, 0
3, 324600, Note_on_c, 0, 70, 65
3, 324678, Note_on_c, 0, 70, 0
3, 324840, Note_on_c, 0, 70, 64
3, 324918, Note_on_c, 0, 70, 0
3, 325080, Note_on_c, 0, 70, 62
3, 325158, Note_on_c, 0, 70, 0
3, 325320, Note_on_c, 0, 70, 61
3, 325398, Note_on_c, 0, 70, 0
3, 325440, Control_c, 0, 64, 127
3, 325800, Note_on_c, 0, 63, 101
3, 325920, Note_on_c, 0, 63, 0
3, 326040, Note_on_c, 0, 67, 99
3, 326160, Note_on_c, 0, 67, 0
3, 326280, Note_on_c, 0, 70, 98
3, 326400, Note_on_c, 0, 70, 0
3, 326520, Note_on_c, 0, 75, 96
3, 326640, Note_on_c, 0, 75, 0
3, 326760, Note_on_c, 0, 79, 94
3, 326880, Note_on_c, 0, 79, 0
3, 327000, Note_on_c, 0, 82, 92
3, 327120, Note_on_c, 0, 82, 0
3, 327240, Note_on_c, 0, 87, 90
3, 327360, Note_on_c, 0, 87, 0
3, 327600, Control_c, 0, 64, 0
3, 327720, Note_on_c, 0, 70, 65
3, 327840, Note_on_c, 0, 70, 0
3, 327960, Note_on_c, 0, 70, 64
3, 328080, Note_on_c, 0, 70, 0
3, 328200, Note_on_c, 0, 70, 63
3, 328320, Note_on_c, 0, 70, 0
3, 328440, Note_on_c, 0, 70, 62
3, 328560, Note_on_c, 0, 70, 0
3, 328680, Note_on_c, 0, 70, 60
3, 328800, Note_on_c, 0, 70, 0
3, 328920, Note_on_c, 0, 70, 59
3, 329040, Note_on_c, 0, 70, 0
3, 329160, Note_on_c, 0, 70, 58
3, 329280, Note_on_c, 0, 70, 0
3, 329400, Note_on_c, 0, 66, 60
3, 329478, Note_on_c, 0, 66, 0
3, 329640, Note_on_c, 0, 75, 63
3, 329718, Note_on_c, 0, 75, 0
3, 329880, Note_on_c, 0, 74, 66
3, 329958, Note_on_c, 0, 74, 0
3, 330120, Note_on_c, 0, 77, 69
3, 330198, Note_on_c, 0, 77, 0
3, 330360, Note_on_c, 0, 75, 72
3, 330438, Note_on_c, 0, 75, 0
3, 330600, Note_on_c, 0, 78, 75
3, 330678, Note_on_c, 0, 78, 0
3, 330840, Note_on_c, 0, 77, 78
3, 330918, Note_on_c, 0, 77, 0
3, 331080, Note_on_c, 0, 80, 81
3, 331158, Note_on_c, 0, 80, 0
3, 331320, Note_on_c, 0, 75, 84
3, 331398, Note_on_c, 0, 75, 0
3, 331560, Note_on_c, 0, 78, 87
3, 331638, Note_on_c, 0, 78, 0
3, 331800, Note_on_c, 0, 77, 90
3, 331878, Note_on_c, 0, 77, 0
3, 332040, Note_on_c, 0, 80, 93
3, 332118, Note_on_c, 0, 80, 0
3, 332280, Note_on_c, 0, 78, 96
3, 332358, Note_on_c, 0, 78, 0
3, 332520, Note_on_c, 0, 87, 99
3, 332598, Note_on_c, 0, 87, 0
3, 332760, Note_on_c, 0, 86, 102
3, 332838, Note_on_c, 0, 86, 0
3, 333000, Note_on_c, 0, 89, 105
3, 333078, Note_on_c, 0, 89, 0
3, 333240, Note_on_c, 0, 66, 76
3, 333318, Note_on_c, 0, 66, 0
3, 333480, Note_on_c, 0, 75, 79
3, 333558, Note_on_c, 0, 75, 0
3, 333720, Note_on_c, 0, 74, 81
3, 333798, Note_on_c, 0, 74, 0
3, 333960, Note_on_c, 0, 77, 84
3, 334038, Note_on_c, 0, 77, 0
3, 334200, Note_on_c, 0, 75, 86
3, 334278, Note_on_c, 0, 75, 0
3, 334440, Note_on_c, 0, 78, 89
3, 334518, Note_on_c, 0, 78, 0
3, 334680, Note_on_c, 0, 77, 91
3, 334758, Note_on_c, 0, 77, 0
3, 334920, Note_on_c, 0, 80, 94
3, 334998, Note_on_c, 0, 80, 0
3, 335160, Note_on_c, 0, 75, 96
3, 335238, Note_on_c, 0, 75, 0
3, 335400, Note_on_c, 0, 78, 99
3, 335478, Note_on_c, 0, 78, 0
3, 335640, Note_on_c, 0, 77, 102
3, 335718, Note_on_c, 0, 77, 0
3, 335880, Note_on_c, 0, 80, 104
3, 335958, Note_on_c, 0, 80, 0
3, 336120, Note_on_c, 0, 78, 107
3, 336198, Note_on_c, 0, 78, 0
3, 336360, Note_on_c, 0, 87, 109
3, 336438, Note_on_c, 0, 87, 0
3, 336600, Note_on_c, 0, 78, 112
3, 336678, Note_on_c, 0, 78, 0
3, 336840, Note_on_c, 0, 88, 114
3, 336918, Note_on_c, 0, 88, 0
3, 337080, Note_on_c, 0, 78, 117
3, 337158, Note_on_c, 0, 78, 0
3, 337320, Note_on_c, 0, 87, 119
3, 337398, Note_on_c, 0, 87, 0
3, 337560, Note_on_c, 0, 87, 122
3, 337638, Note_on_c, 0, 87, 0
3, 337800, Note_on_c, 0, 87, 124
3, 337878, Note_on_c, 0, 87, 0
3, 337920, Note_on_c, 0, 83, 126
3, 337920, Note_on_c, 0, 89, 126
3, 337920, Note_on_c, 0, 86, 126
3, 338280, Note_on_c, 0, 86, 0
3, 338280, Note_on_c, 0, 89, 0
3, 338280, Note_on_c, 0, 83, 0
3, 338760, Note_on_c, 0, 59, 110
3, 338838, Note_on_c, 0, 59, 0
3, 339000, Note_on_c, 0, 59, 102
3, 339078, Note_on_c, 0, 59, 0
3, 339240, Note_on_c, 0, 59, 101
3, 339318, Note_on_c, 0, 59, 0
3, 339480, Note_on_c, 0, 62, 100
3, 339558, Note_on_c, 0, 62, 0
3, 339720, Note_on_c, 0, 62, 99
3, 339798, Note_on_c, 0, 62, 0
3, 339960, Note_on_c, 0, 65, 98
3, 340038, Note_on_c, 0, 65, 0
3, 340200, Note_on_c, 0, 65, 97
3, 340278, Note_on_c, 0, 65, 0
3, 340440, Note_on_c, 0, 71, 96
3, 340518, Note_on_c, 0, 71, 0
3, 340680, Note_on_c, 0, 71, 95
3, 340758, Note_on_c, 0, 71, 0
3, 340920, Note_on_c, 0, 74, 94
3, 340998, Note_on_c, 0, 74, 0
3, 341160, Note_on_c, 0, 74, 93
3, 341238, Note_on_c, 0, 74, 0
3, 341400, Note_on_c, 0, 77, 92
3, 341478, Note_on_c, 0, 77, 0
3, 341640, Note_on_c, 0, 77, 91
3, 341718, Note_on_c, 0, 77, 0
3, 341880, Note_on_c, 0, 83, 90
3, 341958, Note_on_c, 0, 83, 0
3, 342120, Note_on_c, 0, 83, 89
3, 342198, Note_on_c, 0, 83, 0
3, 342360, Note_on_c, 0, 86, 88
3, 342438, Note_on_c, 0, 86, 0
3, 342600, Note_on_c, 0, 86, 87
3, 342678, Note_on_c, 0, 86, 0
3, 342840, Note_on_c, 0, 86, 86
3, 342918, Note_on_c, 0, 86, 0
3, 343080, Note_on_c, 0, 89, 85
3, 343158, Note_on_c, 0, 89, 0
3, 343320, Note_on_c, 0, 83, 83
3, 343398, Note_on_c, 0, 83, 0
3, 343560, Note_on_c, 0, 89, 82
3, 343638, Note_on_c, 0, 89, 0
3, 343800, Note_on_c, 0, 86, 81
3, 343878, Note_on_c, 0, 86, 0
3, 344040, Note_on_c, 0, 89, 80
3, 344118, Note_on_c, 0, 89, 0
3, 344280, Note_on_c, 0, 83, 79
3, 344358, Note_on_c, 0, 83, 0
3, 344520, Note_on_c, 0, 89, 78
3, 344598, Note_on_c, 0, 89, 0
3, 344760, Note_on_c, 0, 86, 77
3, 344838, Note_on_c, 0, 86, 0
3, 345000, Note_on_c, 0, 89, 76
3, 345078, Note_on_c, 0, 89, 0
3, 345240, Note_on_c, 0, 83, 75
3, 345318, Note_on_c, 0, 83, 0
3, 345480, Note_on_c, 0, 89, 74
3, 345558, Note_on_c, 0, 89, 0
3, 345720, Note_on_c, 0, 79, 73
3, 345798, Note_on_c, 0, 79, 0
3, 345960, Note_on_c, 0, 89, 72
3, 346038, Note_on_c, 0, 89, 0
3, 346200, Note_on_c, 0, 77, 71
3, 346278, Note_on_c, 0, 77, 0
3, 346440, Note_on_c, 0, 77, 70
3, 346518, Note_on_c, 0, 77, 0
3, 346680, Note_on_c, 0, 74, 69
3, 346758, Note_on_c, 0, 74, 0
3, 346920, Note_on_c, 0, 77, 68
3, 346998, Note_on_c, 0, 77, 0
3, 347160, Note_on_c, 0, 71, 67
3, 347238, Note_on_c, 0, 71, 0
3, 347400, Note_on_c, 0, 77, 66
3, 347478, Note_on_c, 0, 77, 0
3, 347640, Note_on_c, 0, 74, 65
3, 347718, Note_on_c, 0, 74, 0
3, 347880, Note_on_c, 0, 77, 64
3, 347958, Note_on_c, 0, 77, 0
3, 348120, Note_on_c, 0, 71, 62
3, 348198, Note_on_c, 0, 71, 0
3, 348360, Note_on_c, 0, 77, 61
3, 348438, Note_on_c, 0, 77, 0
3, 348600, Note_on_c, 0, 74, 60
3, 348678, Note_on_c, 0, 74, 0
3, 348840, Note_on_c, 0, 77, 59
3, 348918, Note_on_c, 0, 77, 0
3, 349080, Note_on_c, 0, 83, 58
3, 349158, Note_on_c, 0, 83, 0
3, 349320, Note_on_c, 0, 77, 57
3, 349398, Note_on_c, 0, 77, 0
3, 349560, Note_on_c, 0, 86, 56
3, 349638, Note_on_c, 0, 86, 0
3, 349800, Note_on_c, 0, 77, 55
3, 349878, Note_on_c, 0, 77, 0
3, 350040, Note_on_c, 0, 83, 54
3, 350118, Note_on_c, 0, 83, 0
3, 350280, Note_on_c, 0, 77, 53
3, 350358, Note_on_c, 0, 77, 0
3, 350520, Note_on_c, 0, 74, 52
3, 350598, Note_on_c, 0, 74, 0
3, 350760, Note_on_c, 0, 86, 51
3, 350838, Note_on_c, 0, 86, 0
3, 351000, Note_on_c, 0, 71, 50
3, 351078, Note_on_c, 0, 71, 0
3, 351240, Note_on_c, 0, 83, 49
3, 351318, Note_on_c, 0, 83, 0
3, 351480, Note_on_c, 0, 74, 48
3, 351558, Note_on_c, 0, 74, 0
3, 351720, Note_on_c, 0, 86, 47
3, 351798, Note_on_c, 0, 86, 0
3, 351960, Note_on_c, 0, 71, 46
3, 352038, Note_on_c, 0, 71, 0
3, 352200, Note_on_c, 0, 83, 45
3, 352278, Note_on_c, 0, 83, 0
3, 352320, Note_on_c, 0, 83, 94
3, 352320, Note_on_c, 0, 77, 94
3, 353040, Note_on_c, 0, 77, 0
3, 353040, Note_on_c, 0, 83, 0
3, 353040, Note_on_c, 0, 73, 90
3, 353040, Note_on_c, 0, 82, 90
3, 353040, Note_on_c, 0, 78, 90
3, 353196, Note_on_c, 0, 78, 0
3, 353196, Note_on_c, 0, 82, 0
3, 353196, Note_on_c, 0, 73, 0
3, 353280, Note_on_c, 0, 73, 87
3, 353280, Note_on_c, 0, 82, 87
3, 353280, Note_on_c, 0, 78, 87
3, 353559, Note_on_c, 0, 78, 0
3, 353559, Note_on_c, 0, 82, 0
3, 353559, Note_on_c, 0, 73, 0
3, 354000, Note_on_c, 0, 59, 62
3, 354156, Note_on_c, 0, 59, 0
3, 354240, Note_on_c, 0, 56, 66
3, 354600, Note_on_c, 0, 56, 0
3, 354600, Note_on_c, 0, 54, 62
3, 354678, Note_on_c, 0, 54, 0
3, 354720, Note_on_c, 0, 52, 61
3, 354876, Note_on_c, 0, 52, 0
3, 354960, Note_on_c, 0, 51, 59
3, 355116, Note_on_c, 0, 51, 0
3, 355200, Note_on_c, 0, 49, 56
3, 355560, Note_on_c, 0, 49, 0
3, 356160, Note_on_c, 0, 83, 94
3, 356160, Note_on_c, 0, 78, 94
3, 356160, Note_on_c, 0, 75, 94
3, 356880, Note_on_c, 0, 75, 0
3, 356880, Note_on_c, 0, 78, 0
3, 356880, Note_on_c, 0, 83, 0
3, 356880, Note_on_c, 0, 83, 91
3, 356880, Note_on_c, 0, 76, 91
3, 356880, Note_on_c, 0, 80, 91
3, 357036, Note_on_c, 0, 80, 0
3, 357036, Note_on_c, 0, 76, 0
3, 357036, Note_on_c, 0, 83, 0
3, 357120, Note_on_c, 0, 81, 87
3, 357120, Note_on_c, 0, 78, 87
3, 357120, Note_on_c, 0, 87, 87
3, 357276, Note_on_c, 0, 87, 0
3, 357276, Note_on_c, 0, 78, 0
3, 357276, Note_on_c, 0, 81, 0
3, 357840, Note_on_c, 0, 56, 62
3, 357996, Note_on_c, 0, 56, 0
3, 358080, Note_on_c, 0, 57, 66
3, 358440, Note_on_c, 0, 57, 0
3, 358440, Note_on_c, 0, 54, 62
3, 358518, Note_on_c, 0, 54, 0
3, 358560, Note_on_c, 0, 52, 61
3, 358716, Note_on_c, 0, 52, 0
3, 358800, Note_on_c, 0, 51, 59
3, 358956, Note_on_c, 0, 51, 0
3, 359040, Note_on_c, 0, 52, 56
3, 359400, Note_on_c, 0, 52, 0
3, 360000, Note_on_c, 0, 76, 94
3, 360000, Note_on_c, 0, 83, 94
3, 360720, Note_on_c, 0, 83, 0
3, 360720, Note_on_c, 0, 76, 0
3, 360720, Note_on_c, 0, 75, 91
3, 360720, Note_on_c, 0, 83, 91
3, 360876, Note_on_c, 0, 83, 0
3, 360876, Note_on_c, 0, 75, 0
3, 360960, Note_on_c, 0, 83, 87
3, 360960, Note_on_c, 0, 80, 87
3, 361116, Note_on_c, 0, 80, 0
3, 361116, Note_on_c, 0, 83, 0
3, 361680, Note_on_c, 0, 59, 62
3, 361680, Note_on_c, 0, 54, 62
3, 361836, Note_on_c, 0, 54, 0
3, 361836, Note_on_c, 0, 59, 0
3, 361920, Note_on_c, 0, 59, 68
3, 361920, Note_on_c, 0, 56, 68
3, 362400, Note_on_c, 0, 56, 0
3, 362400, Note_on_c, 0, 59, 0
3, 362400, Note_on_c, 0, 59, 63
3, 362400, Note_on_c, 0, 56, 63
3, 362556, Note_on_c, 0, 56, 0
3, 362556, Note_on_c, 0, 59, 0
3, 362640, Note_on_c, 0, 58, 61
3, 362796, Note_on_c, 0, 58, 0
3, 363000, Note_on_c, 0, 59, 60
3, 363078, Note_on_c, 0, 59, 0
3, 363240, Note_on_c, 0, 59, 62
3, 363318, Note_on_c, 0, 59, 0
3, 363480, Note_on_c, 0, 71, 64
3, 363558, Note_on_c, 0, 71, 0
3, 363720, Note_on_c, 0, 71, 66
3, 363798, Note_on_c, 0, 71, 0
3, 363960, Note_on_c, 0, 71, 68
3, 364038, Note_on_c, 0, 71, 0
3, 364200, Note_on_c, 0, 71, 70
3, 364278, Note_on_c, 0, 71, 0
3, 364440, Note_on_c, 0, 73, 72
3, 364518, Note_on_c, 0, 73, 0
3, 364680, Note_on_c, 0, 78, 74
3, 364758, Note_on_c, 0, 78, 0
3, 364920, Note_on_c, 0, 75, 76
3, 364998, Note_on_c, 0, 75, 0
3, 365160, Note_on_c, 0, 78, 78
3, 365238, Note_on_c, 0, 78, 0
3, 365400, Note_on_c, 0, 78, 80
3, 365478, Note_on_c, 0, 78, 0
3, 365640, Note_on_c, 0, 78, 82
3, 365718, Note_on_c, 0, 78, 0
3, 365880, Note_on_c, 0, 78, 84
3, 365958, Note_on_c, 0, 78, 0
3, 366120, Note_on_c, 0, 78, 86
3, 366198, Note_on_c, 0, 78, 0
3, 366360, Note_on_c, 0, 76, 88
3, 366438, Note_on_c, 0, 76, 0
3, 366600, Note_on_c, 0, 78, 90
3, 366678, Note_on_c, 0, 78, 0
3, 366840, Note_on_c, 0, 71, 73
3, 366918, Note_on_c, 0, 71, 0
3, 367080, Note_on_c, 0, 71, 75
3, 367158, Note_on_c, 0, 71, 0
3, 367320, Note_on_c, 0, 71, 76
3, 367398, Note_on_c, 0, 71, 0
3, 367560, Note_on_c, 0, 71, 78
3, 367638, Note_on_c, 0, 71, 0
3, 367800, Note_on_c, 0, 71, 79
3, 367878, Note_on_c, 0, 71, 0
3, 368040, Note_on_c, 0, 71, 81
3, 368118, Note_on_c, 0, 71, 0
3, 368280, Note_on_c, 0, 73, 82
3, 368358, Note_on_c, 0, 73, 0
3, 368520, Note_on_c, 0, 78, 84
3, 368598, Note_on_c, 0, 78, 0
3, 368760, Note_on_c, 0, 75, 85
3, 368838, Note_on_c, 0, 75, 0
3, 369000, Note_on_c, 0, 78, 87
3, 369078, Note_on_c, 0, 78, 0
3, 369240, Note_on_c, 0, 78, 88
3, 369318, Note_on_c, 0, 78, 0
3, 369480, Note_on_c, 0, 78, 90
3, 369558, Note_on_c, 0, 78, 0
3, 369720, Note_on_c, 0, 83, 91
3, 369798, Note_on_c, 0, 83, 0
3, 369960, Note_on_c, 0, 83, 93
3, 370038, Note_on_c, 0, 83, 0
3, 370200, Note_on_c, 0, 83, 94
3, 370278, Note_on_c, 0, 83, 0
3, 370440, Note_on_c, 0, 83, 96
3, 370518, Note_on_c, 0, 83, 0
3, 370680, Note_on_c, 0, 81, 97
3, 370758, Note_on_c, 0, 81, 0
3, 370920, Note_on_c, 0, 81, 99
3, 370998, Note_on_c, 0, 81, 0
3, 371160, Note_on_c, 0, 81, 100
3, 371238, Note_on_c, 0, 81, 0
3, 371400, Note_on_c, 0, 81, 101
3, 371478, Note_on_c, 0, 81, 0
3, 371640, Note_on_c, 0, 81, 103
3, 371718, Note_on_c, 0, 81, 0
3, 371880, Note_on_c, 0, 78, 104
3, 371958, Note_on_c, 0, 78, 0
3, 372120, Note_on_c, 0, 78, 106
3, 372198, Note_on_c, 0, 78, 0
3, 372360, Note_on_c, 0, 78, 107
3, 372438, Note_on_c, 0, 78, 0
3, 372480, Note_on_c, 0, 77, 108
3, 372720, Note_on_c, 0, 77, 0
3, 372840, Note_on_c, 0, 71, 99
3, 372918, Note_on_c, 0, 71, 0
3, 373080, Note_on_c, 0, 69, 92
3, 373158, Note_on_c, 0, 69, 0
3, 373320, Note_on_c, 0, 69, 91
3, 373398, Note_on_c, 0, 69, 0
3, 373560, Note_on_c, 0, 68, 89
3, 373638, Note_on_c, 0, 68, 0
3, 373800, Note_on_c, 0, 68, 87
3, 373878, Note_on_c, 0, 68, 0
3, 374040, Note_on_c, 0, 66, 86
3, 374118, Note_on_c, 0, 66, 0
3, 374280, Note_on_c, 0, 66, 84
3, 374358, Note_on_c, 0, 66, 0
3, 374520, Note_on_c, 0, 65, 82
3, 374598, Note_on_c, 0, 65, 0
3, 374760, Note_on_c, 0, 65, 81
3, 374838, Note_on_c, 0, 65, 0
3, 375000, Note_on_c, 0, 62, 79
3, 375078, Note_on_c, 0, 62, 0
3, 375240, Note_on_c, 0, 62, 77
3, 375318, Note_on_c, 0, 62, 0
3, 375480, Note_on_c, 0, 61, 76
3, 375558, Note_on_c, 0, 61, 0
3, 375720, Note_on_c, 0, 61, 74
3, 375798, Note_on_c, 0, 61, 0
3, 375960, Note_on_c, 0, 60, 72
3, 376038, Note_on_c, 0, 60, 0
3, 376200, Note_on_c, 0, 60, 70
3, 376278, Note_on_c, 0, 60, 0
3, 376440, Note_on_c, 0, 60, 69
3, 376518, Note_on_c, 0, 60, 0
3, 376680, Note_on_c, 0, 60, 67
3, 376758, Note_on_c, 0, 60, 0
3, 376920, Note_on_c, 0, 59, 65
3, 376998, Note_on_c, 0, 59, 0
3, 377160, Note_on_c, 0, 59, 64
3, 377238, Note_on_c, 0, 59, 0
3, 377400, Note_on_c, 0, 57, 62
3, 377478, Note_on_c, 0, 57, 0
3, 377640, Note_on_c, 0, 57, 60
3, 377718, Note_on_c, 0, 57, 0
3, 377880, Note_on_c, 0, 56, 59
3, 377958, Note_on_c, 0, 56, 0
3, 378120, Note_on_c, 0, 56, 57
3, 378198, Note_on_c, 0, 56, 0
3, 378240, Control_c, 0, 64, 127
3, 378600, Note_on_c, 0, 66, 102
3, 378720, Note_on_c, 0, 66, 0
3, 378840, Note_on_c, 0, 70, 100
3, 378960, Note_on_c, 0, 70, 0
3, 379080, Note_on_c, 0, 73, 98
3, 379200, Note_on_c, 0, 73, 0
3, 379320, Note_on_c, 0, 78, 97
3, 379440, Note_on_c, 0, 78, 0
3, 379560, Note_on_c, 0, 82, 95
3, 379680, Note_on_c, 0, 82, 0
3, 379800, Note_on_c, 0, 85, 93
3, 379920, Note_on_c, 0, 85, 0
3, 380040, Note_on_c, 0, 90, 92
3, 380160, Note_on_c, 0, 90, 0
3, 380400, Control_c, 0, 64, 0
3, 380520, Note_on_c, 0, 73, 77
3, 380598, Note_on_c, 0, 73, 0
3, 380760, Note_on_c, 0, 73, 76
3, 380838, Note_on_c, 0, 73, 0
3, 381000, Note_on_c, 0, 73, 75
3, 381078, Note_on_c, 0, 73, 0
3, 381240, Note_on_c, 0, 73, 74
3, 381318, Note_on_c, 0, 73, 0
3, 381480, Note_on_c, 0, 73, 73
3, 381558, Note_on_c, 0, 73, 0
3, 381720, Note_on_c, 0, 73, 73
3, 381798, Note_on_c, 0, 73, 0
3, 381960, Note_on_c, 0, 73, 72
3, 382020, Control_c, 0, 64, 0
3, 382038, Note_on_c, 0, 73, 0
3, 382080, Control_c, 0, 64, 127
3, 382440, Note_on_c, 0, 66, 93
3, 382560, Note_on_c, 0, 66, 0
3, 382680, Note_on_c, 0, 70, 91
3, 382800, Note_on_c, 0, 70, 0
3, 382920, Note_on_c, 0, 73, 89
3, 383040, Note_on_c, 0, 73, 0
3, 383160, Note_on_c, 0, 78, 87
3, 383280, Note_on_c, 0, 78, 0
3, 383400, Note_on_c, 0, 82, 85
3, 383520, Note_on_c, 0, 82, 0
3, 383640, Note_on_c, 0, 85, 84
3, 383760, Note_on_c, 0, 85, 0
3, 383880, Note_on_c, 0, 90, 82
3, 384000, Note_on_c, 0, 90, 0
3, 384240, Control_c, 0, 64, 0
3, 384360, Note_on_c, 0, 73, 67
3, 384438, Note_on_c, 0, 73, 0
3, 384600, Note_on_c, 0, 73, 65
3, 384678, Note_on_c, 0, 73, 0
3, 384840, Note_on_c, 0, 73, 64
3, 384918, Note_on_c, 0, 73, 0
3, 385080, Note_on_c, 0, 73, 62
3, 385158, Note_on_c, 0, 73, 0
3, 385320, Note_on_c, 0, 73, 61
3, 385398, Note_on_c, 0, 73, 0
3, 385560, Note_on_c, 0, 73, 59
3, 385638, Note_on_c, 0, 73, 0
3, 385800, Note_on_c, 0, 73, 57
3, 385878, Note_on_c, 0, 73, 0
3, 386040, Note_on_c, 0, 69, 59
3, 386118, Note_on_c, 0, 69, 0
3, 386280, Note_on_c, 0, 78, 62
3, 386358, Note_on_c, 0, 78, 0
3, 386520, Note_on_c, 0, 77, 65
3, 386598, Note_on_c, 0, 77, 0
3, 386760, Note_on_c, 0, 80, 67
3, 386838, Note_on_c, 0, 80, 0
3, 387000, Note_on_c, 0, 78, 70
3, 387078, Note_on_c, 0, 78, 0
3, 387240, Note_on_c, 0, 81, 73
3, 387318, Note_on_c, 0, 81, 0
3, 387480, Note_on_c, 0, 80, 75
3, 387558, Note_on_c, 0, 80, 0
3, 387720, Note_on_c, 0, 83, 78
3, 387798, Note_on_c, 0, 83, 0
3, 387960, Note_on_c, 0, 78, 81
3, 388038, Note_on_c, 0, 78, 0
3, 388200, Note_on_c, 0, 81, 83
3, 388278, Note_on_c, 0, 81, 0
3, 388440, Note_on_c, 0, 80, 86
3, 388518, Note_on_c, 0, 80, 0
3, 388680, Note_on_c, 0, 83, 89
3, 388758, Note_on_c, 0, 83, 0
3, 388920, Note_on_c, 0, 81, 91
3, 388998, Note_on_c, 0, 81, 0
3, 389160, Note_on_c, 0, 90, 94
3, 389238, Note_on_c, 0, 90, 0
3, 389400, Note_on_c, 0, 89, 97
3, 389478, Note_on_c, 0, 89, 0
3, 389640, Note_on_c, 0, 92, 100
3, 389718, Note_on_c, 0, 92, 0
3, 389880, Note_on_c, 0, 69, 80
3, 389958, Note_on_c, 0, 69, 0
3, 390120, Note_on_c, 0, 78, 82
3, 390198, Note_on_c, 0, 78, 0
3, 390360, Note_on_c, 0, 77, 85
3, 390438, Note_on_c, 0, 77, 0
3, 390600, Note_on_c, 0, 80, 87
3, 390678, Note_on_c, 0, 80, 0
3, 390840, Note_on_c, 0, 78, 89
3, 390918, Note_on_c, 0, 78, 0
3, 391080, Note_on_c, 0, 81, 92
3, 391158, Note_on_c, 0, 81, 0
3, 391320, Note_on_c, 0, 80, 94
3, 391398, Note_on_c, 0, 80, 0
3, 391560, Note_on_c, 0, 83, 96
3, 391638, Note_on_c, 0, 83, 0
3, 391800, Note_on_c, 0, 78, 99
3, 391878, Note_on_c, 0, 78, 0
3, 392040, Note_on_c, 0, 81, 101
3, 392118, Note_on_c, 0, 81, 0
3, 392280, Note_on_c, 0, 80, 103
3, 392358, Note_on_c, 0, 80, 0
3, 392520, Note_on_c, 0, 83, 106
3, 392598, Note_on_c, 0, 83, 0
3, 392760, Note_on_c, 0, 81, 108
3, 392838, Note_on_c, 0, 81, 0
3, 393000, Note_on_c, 0, 90, 110
3, 393078, Note_on_c, 0, 90, 0
3, 393240, Note_on_c, 0, 81, 112
3, 393318, Note_on_c, 0, 81, 0
3, 393480, Note_on_c, 0, 90, 115
3, 393558, Note_on_c, 0, 90, 0
3, 393720, Note_on_c, 0, 81, 117
3, 393798, Note_on_c, 0, 81, 0
3, 393960, Note_on_c, 0, 90, 119
3, 394038, Note_on_c, 0, 90, 0
3, 394200, Note_on_c, 0, 81, 122
3, 394278, Note_on_c, 0, 81, 0
3, 394440, Note_on_c, 0, 90, 124
3, 394518, Note_on_c, 0, 90, 0
3, 394560, Note_on_c, 0, 90, 123
3, 394560, Note_on_c, 0, 84, 123
3, 394560, Note_on_c, 0, 81, 123
3, 394920, Note_on_c, 0, 81, 0
3, 394920, Note_on_c, 0, 84, 0
3, 394920, Note_on_c, 0, 90, 0
3, 395400, Note_on_c, 0, 60, 109
3, 395478, Note_on_c, 0, 60, 0
3, 395640, Note_on_c, 0, 60, 106
3, 395718, Note_on_c, 0, 60, 0
3, 395880, Note_on_c, 0, 60, 105
3, 395958, Note_on_c, 0, 60, 0
3, 396120, Note_on_c, 0, 66, 104
3, 396198, Note_on_c, 0, 66, 0
3, 396360, Note_on_c, 0, 66, 104
3, 396438, Note_on_c, 0, 66, 0
3, 396600, Note_on_c, 0, 69, 103
3, 396678, Note_on_c, 0, 69, 0
3, 396840, Note_on_c, 0, 69, 102
3, 396918, Note_on_c, 0, 69, 0
3, 397080, Note_on_c, 0, 72, 101
3, 397158, Note_on_c, 0, 72, 0
3, 397320, Note_on_c, 0, 72, 100
3, 397398, Note_on_c, 0, 72, 0
3, 397560, Note_on_c, 0, 78, 99
3, 397638, Note_on_c, 0, 78, 0
3, 397800, Note_on_c, 0, 78, 98
3, 397878, Note_on_c, 0, 78, 0
3, 398040, Note_on_c, 0, 81, 97
3, 398118, Note_on_c, 0, 81, 0
3, 398280, Note_on_c, 0, 81, 96
3, 398358, Note_on_c, 0, 81, 0
3, 398520, Note_on_c, 0, 84, 95
3, 398598, Note_on_c, 0, 84, 0
3, 398760, Note_on_c, 0, 84, 94
3, 398838, Note_on_c, 0, 84, 0
3, 399000, Note_on_c, 0, 90, 93
3, 399078, Note_on_c, 0, 90, 0
3, 399240, Note_on_c, 0, 90, 92
3, 399318, Note_on_c, 0, 90, 0
3, 399480, Note_on_c, 0, 93, 91
3, 399558, Note_on_c, 0, 93, 0
3, 399720, Note_on_c, 0, 93, 90
3, 399798, Note_on_c, 0, 93, 0
3, 399960, Note_on_c, 0, 90, 89
3, 400038, Note_on_c, 0, 90, 0
3, 400200, Note_on_c, 0, 90, 88
3, 400278, Note_on_c, 0, 90, 0
3, 400440, Note_on_c, 0, 84, 87
3, 400518, Note_on_c, 0, 84, 0
3, 400680, Note_on_c, 0, 93, 86
3, 400758, Note_on_c, 0, 93, 0
3, 400920, Note_on_c, 0, 81, 85
3, 400998, Note_on_c, 0, 81, 0
3, 401160, Note_on_c, 0, 90, 84
3, 401238, Note_on_c, 0, 90, 0
3, 401400, Note_on_c, 0, 81, 83
3, 401478, Note_on_c, 0, 81, 0
3, 401640, Note_on_c, 0, 84, 82
3, 401718, Note_on_c, 0, 84, 0
3, 401880, Note_on_c, 0, 78, 81
3, 401958, Note_on_c, 0, 78, 0
3, 402120, Note_on_c, 0, 84, 80
3, 402198, Note_on_c, 0, 84, 0
3, 402360, Note_on_c, 0, 72, 79
3, 402438, Note_on_c, 0, 72, 0
3, 402600, Note_on_c, 0, 84, 78
3, 402678, Note_on_c, 0, 84, 0
3, 402840, Note_on_c, 0, 69, 77
3, 402918, Note_on_c, 0, 69, 0
3, 403080, Note_on_c, 0, 84, 76
3, 403158, Note_on_c, 0, 84, 0
3, 403320, Note_on_c, 0, 66, 75
3, 403398, Note_on_c, 0, 66, 0
3, 403560, Note_on_c, 0, 84, 74
3, 403638, Note_on_c, 0, 84, 0
3, 403800, Note_on_c, 0, 69, 74
3, 403878, Note_on_c, 0, 69, 0
3, 404040, Note_on_c, 0, 84, 73
3, 404118, Note_on_c, 0, 84, 0
3, 404280, Note_on_c, 0, 66, 72
3, 404358, Note_on_c, 0, 66, 0
3, 404520, Note_on_c, 0, 84, 71
3, 404598, Note_on_c, 0, 84, 0
3, 404760, Note_on_c, 0, 81, 70
3, 404838, Note_on_c, 0, 81, 0
3, 405000, Note_on_c, 0, 72, 69
3, 405078, Note_on_c, 0, 72, 0
3, 405240, Note_on_c, 0, 78, 68
3, 405318, Note_on_c, 0, 78, 0
3, 405480, Note_on_c, 0, 72, 67
3, 405558, Note_on_c, 0, 72, 0
3, 405720, Note_on_c, 0, 81, 66
3, 405798, Note_on_c, 0, 81, 0
3, 405960, Note_on_c, 0, 72, 65
3, 406038, Note_on_c, 0, 72, 0
3, 406200, Note_on_c, 0, 78, 64
3, 406278, Note_on_c, 0, 78, 0
3, 406440, Note_on_c, 0, 72, 63
3, 406518, Note_on_c, 0, 72, 0
3, 406680, Note_on_c, 0, 81, 62
3, 406758, Note_on_c, 0, 81, 0
3, 406920, Note_on_c, 0, 72, 61
3, 406998, Note_on_c, 0, 72, 0
3, 407160, Note_on_c, 0, 78, 60
3, 407238, Note_on_c, 0, 78, 0
3, 407400, Note_on_c, 0, 72, 59
3, 407478, Note_on_c, 0, 72, 0
3, 407640, Note_on_c, 0, 81, 58
3, 407718, Note_on_c, 0, 81, 0
3, 407880, Note_on_c, 0, 72, 57
3, 407958, Note_on_c, 0, 72, 0
3, 408120, Note_on_c, 0, 78, 56
3, 408198, Note_on_c, 0, 78, 0
3, 408360, Note_on_c, 0, 72, 55
3, 408438, Note_on_c, 0, 72, 0
3, 408600, Note_on_c, 0, 81, 54
3, 408678, Note_on_c, 0, 81, 0
3, 408840, Note_on_c, 0, 72, 53
3, 408918, Note_on_c, 0, 72, 0
3, 409080, Note_on_c, 0, 69, 52
3, 409158, Note_on_c, 0, 69, 0
3, 409320, Note_on_c, 0, 81, 51
3, 409398, Note_on_c, 0, 81, 0
3, 409560, Note_on_c, 0, 72, 50
3, 409638, Note_on_c, 0, 72, 0
3, 409800, Note_on_c, 0, 84, 49
3, 409878, Note_on_c, 0, 84, 0
3, 410040, Note_on_c, 0, 69, 48
3, 410118, Note_on_c, 0, 69, 0
3, 410280, Note_on_c, 0, 81, 47
3, 410358, Note_on_c, 0, 81, 0
3, 410520, Note_on_c, 0, 72, 46
3, 410598, Note_on_c, 0, 72, 0
3, 410760, Note_on_c, 0, 84, 45
3, 410838, Note_on_c, 0, 84, 0
3, 410880, Note_on_c, 0, 72, 94
3, 410880, Note_on_c, 0, 78, 94
3, 411600, Note_on_c, 0, 78, 0
3, 411600, Note_on_c, 0, 72, 0
3, 411600, Note_on_c, 0, 73, 92
3, 411600, Note_on_c, 0, 77, 92
3, 411756, Note_on_c, 0, 77, 0
3, 411756, Note_on_c, 0, 73, 0
3, 411840, Note_on_c, 0, 77, 88
3, 411840, Note_on_c, 0, 73, 88
3, 412032, Note_on_c, 0, 73, 0
3, 412032, Note_on_c, 0, 77, 0
3, 412560, Note_on_c, 0, 49, 62
3, 412800, Note_on_c, 0, 49, 0
3, 412800, Note_on_c, 0, 51, 64
3, 413160, Note_on_c, 0, 51, 0
3, 413160, Note_on_c, 0, 49, 61
3, 413280, Note_on_c, 0, 49, 0
3, 413280, Note_on_c, 0, 47, 61
3, 413520, Note_on_c, 0, 47, 0
3, 413520, Note_on_c, 0, 46, 59
3, 413760, Note_on_c, 0, 46, 0
3, 413760, Note_on_c, 0, 44, 57
3, 414240, Note_on_c, 0, 44, 0
3, 414720, Note_on_c, 0, 73, 94
3, 414720, Note_on_c, 0, 82, 94
3, 415440, Note_on_c, 0, 82, 0
3, 415440, Note_on_c, 0, 73, 0
3, 415440, Note_on_c, 0, 83, 92
3, 415440, Note_on_c, 0, 75, 92
3, 415596, Note_on_c, 0, 75, 0
3, 415596, Note_on_c, 0, 83, 0
3, 415680, Note_on_c, 0, 76, 91
3, 415680, Note_on_c, 0, 85, 91
3, 415872, Note_on_c, 0, 85, 0
3, 415872, Note_on_c, 0, 76, 0
3, 416400, Note_on_c, 0, 51, 62
3, 416640, Note_on_c, 0, 51, 0
3, 416640, Note_on_c, 0, 52, 64
3, 417000, Note_on_c, 0, 52, 0
3, 417000, Note_on_c, 0, 49, 62
3, 417120, Note_on_c, 0, 49, 0
3, 417120, Note_on_c, 0, 47, 62
3, 417360, Note_on_c, 0, 47, 0
3, 417360, Note_on_c, 0, 46, 61
3, 417600, Note_on_c, 0, 46, 0
3, 417600, Note_on_c, 0, 47, 59
3, 418080, Note_on_c, 0, 47, 0
3, 418560, Note_on_c, 0, 71, 60
3, 419280, Note_on_c, 0, 71, 0
3, 419280, Note_on_c, 0, 70, 58
3, 419520, Note_on_c, 0, 70, 0
3, 419520, Note_on_c, 0, 75, 55
3, 420000, Note_on_c, 0, 75, 0
3, 420240, Note_on_c, 0, 54, 55
3, 420480, Note_on_c, 0, 54, 0
3, 420480, Note_on_c, 0, 54, 58
3, 421200, Note_on_c, 0, 54, 0
3, 421200, Note_on_c, 0, 53, 52
3, 421440, Note_on_c, 0, 53, 0
3, 421440, Note_on_c, 0, 54, 56
3, 422160, Note_on_c, 0, 54, 0
3, 422160, Note_on_c, 0, 54, 48
3, 422400, Note_on_c, 0, 54, 0
3, 422400, Note_on_c, 0, 54, 52
3, 423120, Note_on_c, 0, 54, 0
3, 423120, Note_on_c, 0, 53, 47
3, 423360, Note_on_c, 0, 53, 0
3, 423360, Note_on_c, 0, 54, 56
3, 424080, Note_on_c, 0, 54, 0
3, 424080, Note_on_c, 0, 54, 53
3, 424080, Note_on_c, 0, 61, 53
3, 424320, Note_on_c, 0, 61, 0
3, 424320, Note_on_c, 0, 54, 0
3, 424320, Note_on_c, 0, 54, 58
3, 424320, Note_on_c, 0, 58, 58
3, 425032, Note_on_c, 0, 58, 0
3, 425032, Note_on_c, 0, 54, 0
3, 425040, Note_on_c, 0, 61, 58
3, 425040, Note_on_c, 0, 58, 58
3, 425280, Note_on_c, 0, 58, 0
3, 425280, Note_on_c, 0, 61, 0
3, 426000, Note_on_c, 0, 70, 64
3, 426000, Note_on_c, 0, 76, 64
3, 426240, Note_on_c, 0, 76, 0
3, 426240, Note_on_c, 0, 70, 0
3, 426240, Note_on_c, 0, 71, 72
3, 426240, Note_on_c, 0, 75, 72
3, 426960, Note_on_c, 0, 75, 0
3, 426960, Note_on_c, 0, 71, 0
3, 426960, Note_on_c, 0, 75, 69
3, 427200, Note_on_c, 0, 75, 0
3, 427200, Note_on_c, 0, 71, 80
3, 427200, Note_on_c, 0, 73, 80
3, 427920, Note_on_c, 0, 73, 0
3, 427920, Note_on_c, 0, 71, 0
3, 427920, Note_on_c, 0, 77, 84
3, 428160, Note_on_c, 0, 77, 0
3, 432480, Note_on_c, 0, 73, 101
3, 432720, Note_on_c, 0, 73, 0
3, 432720, Note_on_c, 0, 73, 106
3, 432960, Note_on_c, 0, 73, 0
3, 432960, Note_on_c, 0, 73, 111
3, 433560, Note_on_c, 0, 73, 0
3, 433680, Note_on_c, 0, 71, 76
3, 433836, Note_on_c, 0, 71, 0
3, 433920, Note_on_c, 0, 71, 72
3, 434280, Note_on_c, 0, 71, 0
3, 434280, Note_on_c, 0, 70, 67
3, 434358, Note_on_c, 0, 70, 0
3, 434400, Note_on_c, 0, 68, 66
3, 434400, Note_on_c, 0, 71, 66
3, 434556, Note_on_c, 0, 71, 0
3, 434556, Note_on_c, 0, 68, 0
3, 434640, Note_on_c, 0, 70, 63
3, 434640, Note_on_c, 0, 66, 63
3, 434796, Note_on_c, 0, 66, 0
3, 434796, Note_on_c, 0, 70, 0
3, 434880, Note_on_c, 0, 68, 60
3, 434880, Note_on_c, 0, 65, 60
3, 436800, Note_on_c, 0, 65, 0
3, 436800, Note_on_c, 0, 68, 0
3, 436800, Note_on_c, 0, 66, 48
3, 436800, Note_on_c, 0, 69, 48
3, 438720, Note_on_c, 0, 69, 0
3, 438720, Note_on_c, 0, 66, 0
3, 443640, Note_on_c, 0, 66, 99
3, 443718, Note_on_c, 0, 66, 0
3, 443880, Note_on_c, 0, 66, 97
3, 443958, Note_on_c, 0, 66, 0
3, 444120, Note_on_c, 0, 66, 94
3, 444198, Note_on_c, 0, 66, 0
3, 444360, Note_on_c, 0, 66, 92
3, 444438, Note_on_c, 0, 66, 0
3, 444600, Note_on_c, 0, 66, 94
3, 444678, Note_on_c, 0, 66, 0
3, 444840, Note_on_c, 0, 71, 98
3, 444918, Note_on_c, 0, 71, 0
3, 445080, Note_on_c, 0, 71, 101
3, 445158, Note_on_c, 0, 71, 0
3, 445320, Note_on_c, 0, 73, 105
3, 445398, Note_on_c, 0, 73, 0
3, 445560, Note_on_c, 0, 78, 109
3, 445638, Note_on_c, 0, 78, 0
3, 445800, Note_on_c, 0, 78, 108
3, 445878, Note_on_c, 0, 78, 0
3, 446040, Note_on_c, 0, 78, 106
3, 446118, Note_on_c, 0, 78, 0
3, 446280, Note_on_c, 0, 78, 104
3, 446358, Note_on_c, 0, 78, 0
3, 446520, Note_on_c, 0, 78, 105
3, 446598, Note_on_c, 0, 78, 0
3, 446760, Note_on_c, 0, 83, 108
3, 446838, Note_on_c, 0, 83, 0
3, 447000, Note_on_c, 0, 83, 111
3, 447078, Note_on_c, 0, 83, 0
3, 447240, Note_on_c, 0, 85, 114
3, 447318, Note_on_c, 0, 85, 0
3, 447480, Note_on_c, 0, 82, 117
3, 447558, Note_on_c, 0, 82, 0
3, 447720, Note_on_c, 0, 85, 120
3, 447798, Note_on_c, 0, 85, 0
3, 447960, Note_on_c, 0, 82, 123
3, 448080, Note_on_c, 0, 82, 0
3, 448200, Note_on_c, 0, 89, 126
3, 448320, Note_on_c, 0, 89, 0
3, 448320, End_track
4, 0, Start_track
4, 0, Title_t, "Piano"
4, 0, Control_c, 0, 0, 0
4, 0, Control_c, 0, 7, 115
4, 0, Control_c, 0, 10, 54
4, 0, Control_c, 0, 91, 91
4, 0, Control_c, 0, 93, 28
4, 0, Control_c, 0, 64, 0
4, 0, Control_c, 0, 1, 0
4, 0, Pitch_bend_c, 0, 8192
4, 1, Control_c, 0, 32, 0
4, 1, Program_c, 0, 0
4, 960, Note_on_c, 0, 42, 55
4, 1920, Note_on_c, 0, 42, 0
4, 1920, Note_on_c, 0, 42, 57
4, 2880, Note_on_c, 0, 42, 0
4, 2880, Note_on_c, 0, 42, 60
4, 3840, Note_on_c, 0, 42, 0
4, 3840, Note_on_c, 0, 42, 49
4, 7080, Note_on_c, 0, 42, 0
4, 7920, Note_on_c, 0, 54, 56
4, 8160, Note_on_c, 0, 58, 56
4, 8384, Note_on_c, 0, 54, 0
4, 8400, Note_on_c, 0, 54, 57
4, 8624, Note_on_c, 0, 58, 0
4, 8640, Note_on_c, 0, 59, 58
4, 8864, Note_on_c, 0, 54, 0
4, 8880, Note_on_c, 0, 54, 59
4, 9104, Note_on_c, 0, 59, 0
4, 9120, Note_on_c, 0, 58, 59
4, 9344, Note_on_c, 0, 54, 0
4, 9360, Note_on_c, 0, 54, 60
4, 9584, Note_on_c, 0, 58, 0
4, 9600, Note_on_c, 0, 54, 0
4, 9600, Note_on_c, 0, 56, 62
4, 9840, Note_on_c, 0, 49, 59
4, 10064, Note_on_c, 0, 56, 0
4, 10080, Note_on_c, 0, 56, 58
4, 10304, Note_on_c, 0, 49, 0
4, 10320, Note_on_c, 0, 49, 57
4, 10544, Note_on_c, 0, 56, 0
4, 10560, Note_on_c, 0, 56, 56
4, 10784, Note_on_c, 0, 49, 0
4, 10800, Note_on_c, 0, 49, 54
4, 11024, Note_on_c, 0, 56, 0
4, 11040, Note_on_c, 0, 53, 53
4, 11264, Note_on_c, 0, 49, 0
4, 11280, Note_on_c, 0, 49, 52
4, 11520, Note_on_c, 0, 49, 0
4, 11520, Note_on_c, 0, 53, 0
4, 11760, Note_on_c, 0, 54, 54
4, 12224, Note_on_c, 0, 54, 0
4, 12240, Note_on_c, 0, 54, 58
4, 12704, Note_on_c, 0, 54, 0
4, 12720, Note_on_c, 0, 54, 62
4, 12960, Note_on_c, 0, 51, 64
4, 12961, Note_on_c, 0, 51, 0
4, 13184, Note_on_c, 0, 54, 0
4, 13200, Note_on_c, 0, 54, 66
4, 13440, Note_on_c, 0, 49, 70
4, 13671, Note_on_c, 0, 54, 0
4, 13680, Note_on_c, 0, 54, 68
4, 13904, Note_on_c, 0, 49, 0
4, 13920, Note_on_c, 0, 47, 66
4, 14112, Note_on_c, 0, 54, 0
4, 14160, Note_on_c, 0, 54, 63
4, 14384, Note_on_c, 0, 47, 0
4, 14400, Note_on_c, 0, 46, 61
4, 14592, Note_on_c, 0, 54, 0
4, 14640, Note_on_c, 0, 54, 59
4, 14864, Note_on_c, 0, 46, 0
4, 14880, Note_on_c, 0, 54, 0
4, 21120, Note_on_c, 0, 61, 68
4, 21120, Note_on_c, 0, 58, 66
4, 21600, Note_on_c, 0, 58, 0
4, 21600, Note_on_c, 0, 61, 0
4, 21600, Note_on_c, 0, 61, 64
4, 21600, Note_on_c, 0, 65, 64
4, 21600, Note_on_c, 0, 56, 61
4, 22080, Note_on_c, 0, 56, 0
4, 22080, Note_on_c, 0, 65, 0
4, 22080, Note_on_c, 0, 61, 0
4, 22080, Note_on_c, 0, 61, 60
4, 22080, Note_on_c, 0, 66, 60
4, 22080, Note_on_c, 0, 54, 56
4, 22560, Note_on_c, 0, 54, 0
4, 22560, Note_on_c, 0, 66, 0
4, 22560, Note_on_c, 0, 61, 0
4, 23040, Note_on_c, 0, 61, 59
4, 23040, Note_on_c, 0, 66, 59
4, 23040, Note_on_c, 0, 58, 55
4, 23520, Note_on_c, 0, 58, 0
4, 23520, Note_on_c, 0, 66, 0
4, 23520, Note_on_c, 0, 61, 0
4, 24000, Note_on_c, 0, 68, 62
4, 24000, Note_on_c, 0, 63, 62
4, 24000, Note_on_c, 0, 56, 59
4, 24480, Note_on_c, 0, 56, 0
4, 24480, Note_on_c, 0, 63, 0
4, 24480, Note_on_c, 0, 68, 0
4, 24960, Note_on_c, 0, 65, 66
4, 24960, Note_on_c, 0, 61, 66
4, 25440, Note_on_c, 0, 61, 0
4, 25440, Note_on_c, 0, 65, 0
4, 25440, Note_on_c, 0, 66, 64
4, 25440, Note_on_c, 0, 61, 64
4, 25920, Note_on_c, 0, 61, 0
4, 25920, Note_on_c, 0, 66, 0
4, 25920, Note_on_c, 0, 68, 60
4, 25920, Note_on_c, 0, 61, 60
4, 26400, Note_on_c, 0, 61, 0
4, 26400, Note_on_c, 0, 68, 0
4, 26880, Note_on_c, 0, 61, 62
4, 26880, Note_on_c, 0, 68, 62
4, 26880, Note_on_c, 0, 59, 59
4, 26880, Note_on_c, 0, 56, 59
4, 27360, Note_on_c, 0, 56, 0
4, 27360, Note_on_c, 0, 61, 0
4, 27360, Note_on_c, 0, 68, 0
4, 27360, Note_on_c, 0, 59, 0
4, 27840, Note_on_c, 0, 61, 65
4, 27840, Note_on_c, 0, 68, 65
4, 27840, Note_on_c, 0, 65, 65
4, 27840, Note_on_c, 0, 53, 62
4, 27840, Note_on_c, 0, 59, 62
4, 27840, Note_on_c, 0, 56, 62
4, 28320, Note_on_c, 0, 56, 0
4, 28320, Note_on_c, 0, 68, 0
4, 28320, Note_on_c, 0, 65, 0
4, 28320, Note_on_c, 0, 61, 0
4, 28320, Note_on_c, 0, 59, 0
4, 28320, Note_on_c, 0, 53, 0
4, 28800, Note_on_c, 0, 66, 69
4, 28800, Note_on_c, 0, 61, 69
4, 28800, Note_on_c, 0, 58, 65
4, 29280, Note_on_c, 0, 58, 0
4, 29280, Note_on_c, 0, 61, 0
4, 29280, Note_on_c, 0, 66, 0
4, 30240, Note_on_c, 0, 70, 73
4, 30720, Note_on_c, 0, 70, 0
4, 30720, Note_on_c, 0, 71, 79
4, 32160, Note_on_c, 0, 71, 0
4, 32160, Note_on_c, 0, 71, 82
4, 32640, Note_on_c, 0, 71, 0
4, 32640, Note_on_c, 0, 70, 76
4, 33600, Note_on_c, 0, 70, 0
4, 33600, Note_on_c, 0, 68, 73
4, 34080, Note_on_c, 0, 68, 0
4, 34080, Note_on_c, 0, 65, 73
4, 34080, Note_on_c, 0, 68, 73
4, 34560, Note_on_c, 0, 68, 0
4, 34560, Note_on_c, 0, 65, 0
4, 34560, Note_on_c, 0, 66, 72
4, 34560, Note_on_c, 0, 63, 72
4, 35040, Note_on_c, 0, 63, 0
4, 35040, Note_on_c, 0, 66, 0
4, 35040, Note_on_c, 0, 62, 72
4, 35040, Note_on_c, 0, 65, 72
4, 35520, Note_on_c, 0, 65, 0
4, 35520, Note_on_c, 0, 62, 0
4, 35520, Note_on_c, 0, 58, 71
4, 35520, Note_on_c, 0, 63, 71
4, 36000, Note_on_c, 0, 63, 0
4, 36000, Note_on_c, 0, 58, 0
4, 36000, Note_on_c, 0, 58, 71
4, 36000, Note_on_c, 0, 63, 71
4, 36480, Note_on_c, 0, 63, 0
4, 36480, Note_on_c, 0, 58, 0
4, 36480, Note_on_c, 0, 57, 79
4, 36480, Note_on_c, 0, 63, 79
4, 36960, Note_on_c, 0, 63, 0
4, 36960, Note_on_c, 0, 57, 0
4, 36960, Note_on_c, 0, 63, 70
4, 36960, Note_on_c, 0, 56, 70
4, 37440, Note_on_c, 0, 56, 0
4, 37440, Note_on_c, 0, 63, 0
4, 37440, Note_on_c, 0, 57, 77
4, 37440, Note_on_c, 0, 63, 77
4, 37920, Note_on_c, 0, 63, 0
4, 37920, Note_on_c, 0, 57, 0
4, 37920, Note_on_c, 0, 56, 69
4, 37920, Note_on_c, 0, 63, 69
4, 38400, Note_on_c, 0, 63, 0
4, 38400, Note_on_c, 0, 56, 0
4, 38400, Note_on_c, 0, 63, 74
4, 38400, Note_on_c, 0, 57, 74
4, 38880, Note_on_c, 0, 57, 0
4, 38880, Note_on_c, 0, 63, 0
4, 38880, Note_on_c, 0, 63, 68
4, 38880, Note_on_c, 0, 56, 68
4, 39360, Note_on_c, 0, 56, 0
4, 39360, Note_on_c, 0, 63, 0
4, 39840, Note_on_c, 0, 58, 67
4, 39840, Note_on_c, 0, 63, 67
4, 40320, Note_on_c, 0, 63, 0
4, 40320, Note_on_c, 0, 58, 0
4, 40320, Note_on_c, 0, 57, 74
4, 40320, Note_on_c, 0, 63, 74
4, 40800, Note_on_c, 0, 63, 0
4, 40800, Note_on_c, 0, 57, 0
4, 40800, Note_on_c, 0, 56, 66
4, 40800, Note_on_c, 0, 63, 66
4, 41280, Note_on_c, 0, 63, 0
4, 41280, Note_on_c, 0, 56, 0
4, 41280, Note_on_c, 0, 57, 73
4, 41280, Note_on_c, 0, 63, 73
4, 41760, Note_on_c, 0, 63, 0
4, 41760, Note_on_c, 0, 57, 0
4, 41760, Note_on_c, 0, 56, 65
4, 41760, Note_on_c, 0, 63, 65
4, 42240, Note_on_c, 0, 63, 0
4, 42240, Note_on_c, 0, 56, 0
4, 42240, Note_on_c, 0, 63, 71
4, 42240, Note_on_c, 0, 57, 71
4, 42720, Note_on_c, 0, 57, 0
4, 42720, Note_on_c, 0, 63, 0
4, 42720, Note_on_c, 0, 56, 64
4, 42720, Note_on_c, 0, 63, 64
4, 43200, Note_on_c, 0, 63, 0
4, 43200, Note_on_c, 0, 56, 0
4, 43680, Note_on_c, 0, 58, 63
4, 43680, Note_on_c, 0, 63, 63
4, 44160, Note_on_c, 0, 63, 0
4, 44160, Note_on_c, 0, 58, 0
4, 44160, Note_on_c, 0, 56, 63
4, 44160, Note_on_c, 0, 63, 63
4, 44640, Note_on_c, 0, 63, 0
4, 44640, Note_on_c, 0, 56, 0
4, 44640, Note_on_c, 0, 61, 67
4, 44640, Note_on_c, 0, 56, 67
4, 45120, Note_on_c, 0, 56, 0
4, 45120, Note_on_c, 0, 61, 0
4, 45120, Note_on_c, 0, 61, 70
4, 45120, Note_on_c, 0, 56, 70
4, 45600, Note_on_c, 0, 56, 0
4, 45600, Note_on_c, 0, 61, 0
4, 45600, Note_on_c, 0, 56, 72
4, 45600, Note_on_c, 0, 61, 72
4, 46080, Note_on_c, 0, 61, 0
4, 46080, Note_on_c, 0, 56, 0
4, 46080, Note_on_c, 0, 55, 75
4, 46080, Note_on_c, 0, 61, 75
4, 46560, Note_on_c, 0, 61, 0
4, 46560, Note_on_c, 0, 55, 0
4, 46560, Note_on_c, 0, 61, 78
4, 46560, Note_on_c, 0, 55, 78
4, 47040, Note_on_c, 0, 55, 0
4, 47040, Note_on_c, 0, 61, 0
4, 47040, Note_on_c, 0, 61, 80
4, 47040, Note_on_c, 0, 55, 80
4, 47520, Note_on_c, 0, 55, 0
4, 47520, Note_on_c, 0, 61, 0
4, 47520, Note_on_c, 0, 61, 83
4, 47520, Note_on_c, 0, 55, 83
4, 48000, Note_on_c, 0, 55, 0
4, 48000, Note_on_c, 0, 61, 0
4, 48000, Note_on_c, 0, 49, 86
4, 48000, Note_on_c, 0, 52, 86
4, 48000, Note_on_c, 0, 55, 86
4, 48480, Note_on_c, 0, 55, 0
4, 48480, Note_on_c, 0, 52, 0
4, 48480, Note_on_c, 0, 49, 0
4, 48480, Note_on_c, 0, 49, 88
4, 48480, Note_on_c, 0, 52, 88
4, 48480, Note_on_c, 0, 55, 88
4, 48960, Note_on_c, 0, 55, 0
4, 48960, Note_on_c, 0, 52, 0
4, 48960, Note_on_c, 0, 49, 0
4, 48960, Note_on_c, 0, 49, 91
4, 48960, Note_on_c, 0, 52, 91
4, 48960, Note_on_c, 0, 55, 91
4, 49440, Note_on_c, 0, 55, 0
4, 49440, Note_on_c, 0, 52, 0
4, 49440, Note_on_c, 0, 49, 0
4, 49440, Note_on_c, 0, 49, 93
4, 49440, Note_on_c, 0, 52, 93
4, 49440, Note_on_c, 0, 55, 93
4, 49920, Note_on_c, 0, 55, 0
4, 49920, Note_on_c, 0, 52, 0
4, 49920, Note_on_c, 0, 49, 0
4, 49920, Note_on_c, 0, 63, 85
4, 50000, Note_on_c, 0, 65, 85
4, 50048, Note_on_c, 0, 63, 0
4, 50080, Note_on_c, 0, 63, 85
4, 50128, Note_on_c, 0, 65, 0
4, 50160, Note_on_c, 0, 65, 86
4, 50208, Note_on_c, 0, 63, 0
4, 50240, Note_on_c, 0, 63, 86
4, 50288, Note_on_c, 0, 65, 0
4, 50320, Note_on_c, 0, 65, 86
4, 50368, Note_on_c, 0, 63, 0
4, 50400, Note_on_c, 0, 63, 87
4, 50448, Note_on_c, 0, 65, 0
4, 50480, Note_on_c, 0, 65, 87
4, 50528, Note_on_c, 0, 63, 0
4, 50560, Note_on_c, 0, 63, 87
4, 50608, Note_on_c, 0, 65, 0
4, 50640, Note_on_c, 0, 65, 88
4, 50688, Note_on_c, 0, 63, 0
4, 50720, Note_on_c, 0, 63, 88
4, 50768, Note_on_c, 0, 65, 0
4, 50800, Note_on_c, 0, 65, 88
4, 50848, Note_on_c, 0, 63, 0
4, 50880, Note_on_c, 0, 63, 89
4, 50928, Note_on_c, 0, 65, 0
4, 50960, Note_on_c, 0, 65, 89
4, 51008, Note_on_c, 0, 63, 0
4, 51040, Note_on_c, 0, 63, 89
4, 51088, Note_on_c, 0, 65, 0
4, 51120, Note_on_c, 0, 65, 90
4, 51168, Note_on_c, 0, 63, 0
4, 51200, Note_on_c, 0, 63, 90
4, 51248, Note_on_c, 0, 65, 0
4, 51280, Note_on_c, 0, 65, 90
4, 51328, Note_on_c, 0, 63, 0
4, 51360, Note_on_c, 0, 63, 90
4, 51408, Note_on_c, 0, 65, 0
4, 51440, Note_on_c, 0, 65, 91
4, 51488, Note_on_c, 0, 63, 0
4, 51520, Note_on_c, 0, 63, 91
4, 51568, Note_on_c, 0, 65, 0
4, 51600, Note_on_c, 0, 61, 91
4, 51648, Note_on_c, 0, 63, 0
4, 51720, Note_on_c, 0, 63, 92
4, 51790, Note_on_c, 0, 61, 0
4, 51840, Note_on_c, 0, 61, 88
4, 51845, Note_on_c, 0, 63, 0
4, 52320, Note_on_c, 0, 61, 0
4, 58560, Note_on_c, 0, 65, 96
4, 59040, Note_on_c, 0, 65, 0
4, 59040, Note_on_c, 0, 63, 93
4, 59520, Note_on_c, 0, 63, 0
4, 59520, Note_on_c, 0, 63, 89
4, 60480, Note_on_c, 0, 63, 0
4, 60480, Note_on_c, 0, 54, 71
4, 61440, Note_on_c, 0, 54, 0
4, 61440, Note_on_c, 0, 53, 73
4, 61920, Note_on_c, 0, 53, 0
4, 62400, Note_on_c, 0, 77, 108
4, 62880, Note_on_c, 0, 77, 0
4, 62880, Note_on_c, 0, 75, 105
4, 63360, Note_on_c, 0, 75, 0
4, 63360, Note_on_c, 0, 75, 97
4, 64320, Note_on_c, 0, 75, 0
4, 64320, Note_on_c, 0, 63, 71
4, 64320, Note_on_c, 0, 66, 71
4, 65280, Note_on_c, 0, 66, 0
4, 65280, Note_on_c, 0, 63, 0
4, 65280, Note_on_c, 0, 65, 68
4, 65760, Note_on_c, 0, 65, 0
4, 66240, Note_on_c, 0, 54, 64
4, 67200, Note_on_c, 0, 54, 0
4, 67200, Note_on_c, 0, 53, 61
4, 67680, Note_on_c, 0, 53, 0
4, 73200, Note_on_c, 0, 54, 56
4, 73440, Note_on_c, 0, 58, 56
4, 73664, Note_on_c, 0, 54, 0
4, 73680, Note_on_c, 0, 54, 57
4, 73904, Note_on_c, 0, 58, 0
4, 73920, Note_on_c, 0, 59, 58
4, 74144, Note_on_c, 0, 54, 0
4, 74160, Note_on_c, 0, 54, 59
4, 74384, Note_on_c, 0, 59, 0
4, 74400, Note_on_c, 0, 58, 59
4, 74624, Note_on_c, 0, 54, 0
4, 74640, Note_on_c, 0, 54, 60
4, 74864, Note_on_c, 0, 58, 0
4, 74880, Note_on_c, 0, 54, 0
4, 74880, Note_on_c, 0, 56, 62
4, 75120, Note_on_c, 0, 49, 59
4, 75344, Note_on_c, 0, 56, 0
4, 75360, Note_on_c, 0, 56, 58
4, 75584, Note_on_c, 0, 49, 0
4, 75600, Note_on_c, 0, 49, 57
4, 75824, Note_on_c, 0, 56, 0
4, 75840, Note_on_c, 0, 56, 56
4, 76064, Note_on_c, 0, 49, 0
4, 76080, Note_on_c, 0, 49, 54
4, 76304, Note_on_c, 0, 56, 0
4, 76320, Note_on_c, 0, 53, 53
4, 76544, Note_on_c, 0, 49, 0
4, 76560, Note_on_c, 0, 49, 52
4, 76800, Note_on_c, 0, 49, 0
4, 76800, Note_on_c, 0, 53, 0
4, 77040, Note_on_c, 0, 54, 54
4, 77504, Note_on_c, 0, 54, 0
4, 77520, Note_on_c, 0, 54, 58
4, 77984, Note_on_c, 0, 54, 0
4, 78000, Note_on_c, 0, 54, 62
4, 78464, Note_on_c, 0, 54, 0
4, 78480, Note_on_c, 0, 54, 66
4, 78720, Note_on_c, 0, 49, 70
4, 78951, Note_on_c, 0, 54, 0
4, 78960, Note_on_c, 0, 54, 68
4, 79184, Note_on_c, 0, 49, 0
4, 79200, Note_on_c, 0, 47, 66
4, 79392, Note_on_c, 0, 54, 0
4, 79440, Note_on_c, 0, 54, 63
4, 79664, Note_on_c, 0, 47, 0
4, 79680, Note_on_c, 0, 46, 61
4, 79872, Note_on_c, 0, 54, 0
4, 79920, Note_on_c, 0, 54, 59
4, 80144, Note_on_c, 0, 46, 0
4, 80160, Note_on_c, 0, 54, 0
4, 86400, Note_on_c, 0, 58, 66
4, 86400, Note_on_c, 0, 61, 68
4, 86880, Note_on_c, 0, 61, 0
4, 86880, Note_on_c, 0, 58, 0
4, 86880, Note_on_c, 0, 56, 61
4, 86880, Note_on_c, 0, 65, 64
4, 86880, Note_on_c, 0, 61, 64
4, 87360, Note_on_c, 0, 61, 0
4, 87360, Note_on_c, 0, 65, 0
4, 87360, Note_on_c, 0, 56, 0
4, 87360, Note_on_c, 0, 54, 56
4, 87360, Note_on_c, 0, 66, 60
4, 87360, Note_on_c, 0, 61, 60
4, 87840, Note_on_c, 0, 61, 0
4, 87840, Note_on_c, 0, 66, 0
4, 87840, Note_on_c, 0, 54, 0
4, 88320, Note_on_c, 0, 58, 55
4, 88320, Note_on_c, 0, 66, 59
4, 88320, Note_on_c, 0, 61, 59
4, 88800, Note_on_c, 0, 61, 0
4, 88800, Note_on_c, 0, 66, 0
4, 88800, Note_on_c, 0, 58, 0
4, 89280, Note_on_c, 0, 56, 59
4, 89280, Note_on_c, 0, 63, 62
4, 89280, Note_on_c, 0, 68, 62
4, 89760, Note_on_c, 0, 68, 0
4, 89760, Note_on_c, 0, 63, 0
4, 89760, Note_on_c, 0, 56, 0
4, 90240, Note_on_c, 0, 61, 66
4, 90240, Note_on_c, 0, 65, 66
4, 90720, Note_on_c, 0, 65, 0
4, 90720, Note_on_c, 0, 61, 0
4, 90720, Note_on_c, 0, 61, 64
4, 90720, Note_on_c, 0, 66, 64
4, 91200, Note_on_c, 0, 66, 0
4, 91200, Note_on_c, 0, 61, 0
4, 91200, Note_on_c, 0, 61, 60
4, 91200, Note_on_c, 0, 68, 60
4, 91680, Note_on_c, 0, 68, 0
4, 91680, Note_on_c, 0, 61, 0
4, 92160, Note_on_c, 0, 56, 59
4, 92160, Note_on_c, 0, 59, 59
4, 92160, Note_on_c, 0, 68, 62
4, 92160, Note_on_c, 0, 61, 62
4, 92640, Note_on_c, 0, 61, 0
4, 92640, Note_on_c, 0, 56, 0
4, 92640, Note_on_c, 0, 59, 0
4, 92640, Note_on_c, 0, 68, 0
4, 93120, Note_on_c, 0, 56, 62
4, 93120, Note_on_c, 0, 59, 62
4, 93120, Note_on_c, 0, 53, 62
4, 93120, Note_on_c, 0, 65, 65
4, 93120, Note_on_c, 0, 68, 65
4, 93120, Note_on_c, 0, 61, 65
4, 93600, Note_on_c, 0, 61, 0
4, 93600, Note_on_c, 0, 59, 0
4, 93600, Note_on_c, 0, 53, 0
4, 93600, Note_on_c, 0, 56, 0
4, 93600, Note_on_c, 0, 68, 0
4, 93600, Note_on_c, 0, 65, 0
4, 94080, Note_on_c, 0, 58, 65
4, 94080, Note_on_c, 0, 61, 69
4, 94080, Note_on_c, 0, 66, 69
4, 94560, Note_on_c, 0, 66, 0
4, 94560, Note_on_c, 0, 61, 0
4, 94560, Note_on_c, 0, 58, 0
4, 95520, Note_on_c, 0, 70, 73
4, 96000, Note_on_c, 0, 70, 0
4, 96000, Note_on_c, 0, 71, 79
4, 97440, Note_on_c, 0, 71, 0
4, 97440, Note_on_c, 0, 71, 82
4, 97920, Note_on_c, 0, 71, 0
4, 97920, Note_on_c, 0, 70, 76
4, 98880, Note_on_c, 0, 70, 0
4, 98880, Note_on_c, 0, 68, 73
4, 99360, Note_on_c, 0, 68, 0
4, 99360, Note_on_c, 0, 68, 73
4, 99360, Note_on_c, 0, 65, 73
4, 99840, Note_on_c, 0, 65, 0
4, 99840, Note_on_c, 0, 68, 0
4, 99840, Note_on_c, 0, 63, 72
4, 99840, Note_on_c, 0, 66, 72
4, 100320, Note_on_c, 0, 66, 0
4, 100320, Note_on_c, 0, 63, 0
4, 100320, Note_on_c, 0, 65, 72
4, 100320, Note_on_c, 0, 62, 72
4, 100800, Note_on_c, 0, 62, 0
4, 100800, Note_on_c, 0, 65, 0
4, 100800, Note_on_c, 0, 63, 71
4, 100800, Note_on_c, 0, 58, 71
4, 101280, Note_on_c, 0, 58, 0
4, 101280, Note_on_c, 0, 63, 0
4, 101280, Note_on_c, 0, 63, 71
4, 101280, Note_on_c, 0, 58, 71
4, 101760, Note_on_c, 0, 58, 0
4, 101760, Note_on_c, 0, 63, 0
4, 101760, Note_on_c, 0, 63, 79
4, 101760, Note_on_c, 0, 57, 79
4, 102240, Note_on_c, 0, 57, 0
4, 102240, Note_on_c, 0, 63, 0
4, 102240, Note_on_c, 0, 56, 70
4, 102240, Note_on_c, 0, 63, 70
4, 102720, Note_on_c, 0, 63, 0
4, 102720, Note_on_c, 0, 56, 0
4, 102720, Note_on_c, 0, 63, 77
4, 102720, Note_on_c, 0, 57, 77
4, 103200, Note_on_c, 0, 57, 0
4, 103200, Note_on_c, 0, 63, 0
4, 103200, Note_on_c, 0, 63, 69
4, 103200, Note_on_c, 0, 56, 69
4, 103680, Note_on_c, 0, 56, 0
4, 103680, Note_on_c, 0, 63, 0
4, 103680, Note_on_c, 0, 57, 74
4, 103680, Note_on_c, 0, 63, 74
4, 104160, Note_on_c, 0, 63, 0
4, 104160, Note_on_c, 0, 57, 0
4, 104160, Note_on_c, 0, 56, 68
4, 104160, Note_on_c, 0, 63, 68
4, 104640, Note_on_c, 0, 63, 0
4, 104640, Note_on_c, 0, 56, 0
4, 105120, Note_on_c, 0, 63, 67
4, 105120, Note_on_c, 0, 58, 67
4, 105600, Note_on_c, 0, 58, 0
4, 105600, Note_on_c, 0, 63, 0
4, 105600, Note_on_c, 0, 63, 74
4, 105600, Note_on_c, 0, 57, 74
4, 106080, Note_on_c, 0, 57, 0
4, 106080, Note_on_c, 0, 63, 0
4, 106080, Note_on_c, 0, 63, 66
4, 106080, Note_on_c, 0, 56, 66
4, 106560, Note_on_c, 0, 56, 0
4, 106560, Note_on_c, 0, 63, 0
4, 106560, Note_on_c, 0, 63, 73
4, 106560, Note_on_c, 0, 57, 73
4, 107040, Note_on_c, 0, 57, 0
4, 107040, Note_on_c, 0, 63, 0
4, 107040, Note_on_c, 0, 63, 65
4, 107040, Note_on_c, 0, 56, 65
4, 107520, Note_on_c, 0, 56, 0
4, 107520, Note_on_c, 0, 63, 0
4, 107520, Note_on_c, 0, 57, 71
4, 107520, Note_on_c, 0, 63, 71
4, 108000, Note_on_c, 0, 63, 0
4, 108000, Note_on_c, 0, 57, 0
4, 108000, Note_on_c, 0, 63, 64
4, 108000, Note_on_c, 0, 56, 64
4, 108480, Note_on_c, 0, 56, 0
4, 108480, Note_on_c, 0, 63, 0
4, 108960, Note_on_c, 0, 63, 63
4, 108960, Note_on_c, 0, 58, 63
4, 109440, Note_on_c, 0, 58, 0
4, 109440, Note_on_c, 0, 63, 0
4, 109440, Note_on_c, 0, 63, 63
4, 109440, Note_on_c, 0, 56, 63
4, 109920, Note_on_c, 0, 56, 0
4, 109920, Note_on_c, 0, 63, 0
4, 109920, Note_on_c, 0, 56, 67
4, 109920, Note_on_c, 0, 61, 67
4, 110400, Note_on_c, 0, 61, 0
4, 110400, Note_on_c, 0, 56, 0
4, 110400, Note_on_c, 0, 56, 70
4, 110400, Note_on_c, 0, 61, 70
4, 110880, Note_on_c, 0, 61, 0
4, 110880, Note_on_c, 0, 56, 0
4, 110880, Note_on_c, 0, 61, 72
4, 110880, Note_on_c, 0, 56, 72
4, 111360, Note_on_c, 0, 56, 0
4, 111360, Note_on_c, 0, 61, 0
4, 111360, Note_on_c, 0, 61, 75
4, 111360, Note_on_c, 0, 55, 75
4, 111840, Note_on_c, 0, 55, 0
4, 111840, Note_on_c, 0, 61, 0
4, 111840, Note_on_c, 0, 55, 78
4, 111840, Note_on_c, 0, 61, 78
4, 112320, Note_on_c, 0, 61, 0
4, 112320, Note_on_c, 0, 55, 0
4, 112320, Note_on_c, 0, 55, 80
4, 112320, Note_on_c, 0, 61, 80
4, 112800, Note_on_c, 0, 61, 0
4, 112800, Note_on_c, 0, 55, 0
4, 112800, Note_on_c, 0, 55, 83
4, 112800, Note_on_c, 0, 61, 83
4, 113280, Note_on_c, 0, 61, 0
4, 113280, Note_on_c, 0, 55, 0
4, 113280, Note_on_c, 0, 55, 86
4, 113280, Note_on_c, 0, 52, 86
4, 113280, Note_on_c, 0, 49, 86
4, 113760, Note_on_c, 0, 49, 0
4, 113760, Note_on_c, 0, 52, 0
4, 113760, Note_on_c, 0, 55, 0
4, 113760, Note_on_c, 0, 55, 88
4, 113760, Note_on_c, 0, 52, 88
4, 113760, Note_on_c, 0, 49, 88
4, 114240, Note_on_c, 0, 49, 0
4, 114240, Note_on_c, 0, 52, 0
4, 114240, Note_on_c, 0, 55, 0
4, 114240, Note_on_c, 0, 55, 91
4, 114240, Note_on_c, 0, 52, 91
4, 114240, Note_on_c, 0, 49, 91
4, 114720, Note_on_c, 0, 49, 0
4, 114720, Note_on_c, 0, 52, 0
4, 114720, Note_on_c, 0, 55, 0
4, 114720, Note_on_c, 0, 55, 93
4, 114720, Note_on_c, 0, 52, 93
4, 114720, Note_on_c, 0, 49, 93
4, 115200, Note_on_c, 0, 49, 0
4, 115200, Note_on_c, 0, 52, 0
4, 115200, Note_on_c, 0, 55, 0
4, 115200, Note_on_c, 0, 63, 89
4, 115280, Note_on_c, 0, 65, 89
4, 115328, Note_on_c, 0, 63, 0
4, 115360, Note_on_c, 0, 63, 90
4, 115408, Note_on_c, 0, 65, 0
4, 115440, Note_on_c, 0, 65, 90
4, 115488, Note_on_c, 0, 63, 0
4, 115520, Note_on_c, 0, 63, 90
4, 115568, Note_on_c, 0, 65, 0
4, 115600, Note_on_c, 0, 65, 90
4, 115648, Note_on_c, 0, 63, 0
4, 115680, Note_on_c, 0, 63, 91
4, 115728, Note_on_c, 0, 65, 0
4, 115760, Note_on_c, 0, 65, 91
4, 115808, Note_on_c, 0, 63, 0
4, 115840, Note_on_c, 0, 63, 91
4, 115888, Note_on_c, 0, 65, 0
4, 115920, Note_on_c, 0, 65, 91
4, 115968, Note_on_c, 0, 63, 0
4, 116000, Note_on_c, 0, 63, 92
4, 116048, Note_on_c, 0, 65, 0
4, 116080, Note_on_c, 0, 65, 92
4, 116128, Note_on_c, 0, 63, 0
4, 116160, Note_on_c, 0, 63, 92
4, 116208, Note_on_c, 0, 65, 0
4, 116240, Note_on_c, 0, 65, 92
4, 116288, Note_on_c, 0, 63, 0
4, 116320, Note_on_c, 0, 63, 93
4, 116368, Note_on_c, 0, 65, 0
4, 116400, Note_on_c, 0, 65, 93
4, 116448, Note_on_c, 0, 63, 0
4, 116480, Note_on_c, 0, 63, 93
4, 116528, Note_on_c, 0, 65, 0
4, 116560, Note_on_c, 0, 65, 94
4, 116608, Note_on_c, 0, 63, 0
4, 116640, Note_on_c, 0, 63, 94
4, 116688, Note_on_c, 0, 65, 0
4, 116720, Note_on_c, 0, 65, 94
4, 116768, Note_on_c, 0, 63, 0
4, 116800, Note_on_c, 0, 63, 94
4, 116848, Note_on_c, 0, 65, 0
4, 116880, Note_on_c, 0, 61, 95
4, 116928, Note_on_c, 0, 63, 0
4, 117000, Note_on_c, 0, 63, 95
4, 117070, Note_on_c, 0, 61, 0
4, 117120, Note_on_c, 0, 61, 95
4, 117125, Note_on_c, 0, 63, 0
4, 117600, Note_on_c, 0, 61, 0
4, 123840, Note_on_c, 0, 65, 96
4, 124320, Note_on_c, 0, 65, 0
4, 124320, Note_on_c, 0, 63, 93
4, 124800, Note_on_c, 0, 63, 0
4, 124800, Note_on_c, 0, 63, 89
4, 125760, Note_on_c, 0, 63, 0
4, 125760, Note_on_c, 0, 54, 71
4, 126720, Note_on_c, 0, 54, 0
4, 126720, Note_on_c, 0, 53, 73
4, 127200, Note_on_c, 0, 53, 0
4, 127680, Note_on_c, 0, 77, 108
4, 128160, Note_on_c, 0, 77, 0
4, 128160, Note_on_c, 0, 75, 105
4, 128640, Note_on_c, 0, 75, 0
4, 128640, Note_on_c, 0, 75, 97
4, 129600, Note_on_c, 0, 75, 0
4, 129600, Note_on_c, 0, 66, 71
4, 129600, Note_on_c, 0, 63, 71
4, 130560, Note_on_c, 0, 63, 0
4, 130560, Note_on_c, 0, 66, 0
4, 130560, Note_on_c, 0, 65, 68
4, 131040, Note_on_c, 0, 65, 0
4, 131520, Note_on_c, 0, 54, 64
4, 132480, Note_on_c, 0, 54, 0
4, 132480, Note_on_c, 0, 53, 61
4, 132960, Note_on_c, 0, 53, 0
4, 138000, Control_c, 0, 64, 0
4, 138480, Note_on_c, 0, 54, 63
4, 138720, Note_on_c, 0, 57, 63
4, 138944, Note_on_c, 0, 54, 0
4, 138960, Note_on_c, 0, 54, 63
4, 139184, Note_on_c, 0, 57, 0
4, 139200, Note_on_c, 0, 59, 64
4, 139408, Note_on_c, 0, 54, 0
4, 139440, Note_on_c, 0, 54, 65
4, 139664, Note_on_c, 0, 59, 0
4, 139680, Note_on_c, 0, 57, 65
4, 139888, Note_on_c, 0, 54, 0
4, 139920, Note_on_c, 0, 54, 66
4, 140144, Note_on_c, 0, 57, 0
4, 140160, Note_on_c, 0, 54, 0
4, 140400, Note_on_c, 0, 54, 65
4, 140640, Note_on_c, 0, 59, 66
4, 140848, Note_on_c, 0, 54, 0
4, 140880, Note_on_c, 0, 54, 66
4, 141104, Note_on_c, 0, 59, 0
4, 141120, Note_on_c, 0, 59, 67
4, 141328, Note_on_c, 0, 54, 0
4, 141360, Note_on_c, 0, 54, 68
4, 141584, Note_on_c, 0, 59, 0
4, 141600, Note_on_c, 0, 57, 69
4, 141808, Note_on_c, 0, 54, 0
4, 141840, Note_on_c, 0, 54, 70
4, 142064, Note_on_c, 0, 57, 0
4, 142080, Note_on_c, 0, 54, 0
4, 142080, Note_on_c, 0, 56, 71
4, 142320, Note_on_c, 0, 52, 70
4, 142544, Note_on_c, 0, 56, 0
4, 142560, Note_on_c, 0, 54, 69
4, 142768, Note_on_c, 0, 52, 0
4, 142800, Note_on_c, 0, 54, 0
4, 142800, Note_on_c, 0, 52, 68
4, 143248, Note_on_c, 0, 52, 0
4, 143280, Note_on_c, 0, 52, 65
4, 143744, Note_on_c, 0, 52, 0
4, 143760, Note_on_c, 0, 56, 63
4, 144000, Note_on_c, 0, 56, 0
4, 144000, Note_on_c, 0, 57, 61
4, 144480, Note_on_c, 0, 57, 0
4, 147840, Note_on_c, 0, 59, 91
4, 147960, Note_on_c, 0, 63, 81
4, 148080, Note_on_c, 0, 63, 0
4, 148080, Note_on_c, 0, 59, 0
4, 148080, Note_on_c, 0, 59, 81
4, 148200, Note_on_c, 0, 63, 82
4, 148320, Note_on_c, 0, 63, 0
4, 148320, Note_on_c, 0, 59, 0
4, 148320, Note_on_c, 0, 59, 82
4, 148440, Note_on_c, 0, 63, 82
4, 148560, Note_on_c, 0, 63, 0
4, 148560, Note_on_c, 0, 59, 0
4, 148560, Note_on_c, 0, 59, 83
4, 148680, Note_on_c, 0, 63, 83
4, 148800, Note_on_c, 0, 63, 0
4, 148800, Note_on_c, 0, 59, 0
4, 148800, Note_on_c, 0, 61, 84
4, 148920, Note_on_c, 0, 63, 84
4, 149040, Note_on_c, 0, 63, 0
4, 149040, Note_on_c, 0, 61, 0
4, 149040, Note_on_c, 0, 61, 84
4, 149160, Note_on_c, 0, 63, 85
4, 149280, Note_on_c, 0, 63, 0
4, 149280, Note_on_c, 0, 61, 0
4, 149280, Note_on_c, 0, 59, 85
4, 149400, Note_on_c, 0, 63, 86
4, 149520, Note_on_c, 0, 63, 0
4, 149520, Note_on_c, 0, 59, 0
4, 149520, Note_on_c, 0, 59, 86
4, 149640, Note_on_c, 0, 63, 86
4, 149760, Note_on_c, 0, 63, 0
4, 149760, Note_on_c, 0, 59, 0
4, 149760, Note_on_c, 0, 65, 74
4, 150240, Note_on_c, 0, 65, 0
4, 173040, Note_on_c, 0, 54, 61
4, 173280, Note_on_c, 0, 58, 62
4, 173520, Note_on_c, 0, 54, 0
4, 173520, Note_on_c, 0, 54, 62
4, 173712, Note_on_c, 0, 58, 0
4, 173760, Note_on_c, 0, 59, 63
4, 174000, Note_on_c, 0, 54, 0
4, 174000, Note_on_c, 0, 54, 63
4, 174192, Note_on_c, 0, 59, 0
4, 174240, Note_on_c, 0, 58, 64
4, 174480, Note_on_c, 0, 54, 0
4, 174480, Note_on_c, 0, 54, 64
4, 174672, Note_on_c, 0, 58, 0
4, 174720, Note_on_c, 0, 56, 64
4, 174960, Note_on_c, 0, 54, 0
4, 174960, Note_on_c, 0, 49, 59
4, 175152, Note_on_c, 0, 56, 0
4, 175200, Note_on_c, 0, 56, 60
4, 175440, Note_on_c, 0, 49, 0
4, 175440, Note_on_c, 0, 49, 61
4, 175632, Note_on_c, 0, 56, 0
4, 175680, Note_on_c, 0, 56, 61
4, 175920, Note_on_c, 0, 49, 0
4, 175920, Note_on_c, 0, 49, 62
4, 176112, Note_on_c, 0, 56, 0
4, 176160, Note_on_c, 0, 53, 63
4, 176400, Note_on_c, 0, 49, 0
4, 176400, Note_on_c, 0, 49, 64
4, 176592, Note_on_c, 0, 53, 0
4, 176880, Note_on_c, 0, 49, 0
4, 176880, Note_on_c, 0, 54, 65
4, 177312, Note_on_c, 0, 54, 0
4, 177360, Note_on_c, 0, 54, 67
4, 177792, Note_on_c, 0, 54, 0
4, 177840, Note_on_c, 0, 54, 69
4, 178272, Note_on_c, 0, 54, 0
4, 178320, Note_on_c, 0, 54, 70
4, 178560, Note_on_c, 0, 49, 72
4, 178752, Note_on_c, 0, 54, 0
4, 178800, Note_on_c, 0, 54, 68
4, 179040, Note_on_c, 0, 49, 0
4, 179040, Note_on_c, 0, 47, 67
4, 179232, Note_on_c, 0, 54, 0
4, 179280, Note_on_c, 0, 54, 65
4, 179520, Note_on_c, 0, 47, 0
4, 179520, Note_on_c, 0, 46, 62
4, 179712, Note_on_c, 0, 54, 0
4, 179760, Note_on_c, 0, 54, 60
4, 180000, Note_on_c, 0, 54, 0
4, 180000, Note_on_c, 0, 46, 0
4, 187680, Note_on_c, 0, 47, 96
4, 187680, Note_on_c, 0, 52, 96
4, 187680, Note_on_c, 0, 56, 96
4, 188160, Note_on_c, 0, 56, 0
4, 188160, Note_on_c, 0, 52, 0
4, 188160, Note_on_c, 0, 47, 0
4, 188160, Note_on_c, 0, 49, 98
4, 188160, Note_on_c, 0, 57, 98
4, 188160, Note_on_c, 0, 54, 98
4, 189120, Note_on_c, 0, 54, 0
4, 189120, Note_on_c, 0, 57, 0
4, 189120, Note_on_c, 0, 49, 0
4, 189120, Note_on_c, 0, 59, 103
4, 189120, Note_on_c, 0, 54, 103
4, 189120, Note_on_c, 0, 57, 103
4, 190080, Note_on_c, 0, 57, 0
4, 190080, Note_on_c, 0, 54, 0
4, 190080, Note_on_c, 0, 59, 0
4, 190080, Note_on_c, 0, 71, 107
4, 190080, Note_on_c, 0, 68, 107
4, 190080, Note_on_c, 0, 56, 107
4, 190080, Note_on_c, 0, 59, 107
4, 190560, Note_on_c, 0, 59, 0
4, 190560, Note_on_c, 0, 71, 0
4, 190560, Note_on_c, 0, 68, 0
4, 190560, Note_on_c, 0, 56, 0
4, 190560, Note_on_c, 0, 71, 102
4, 190560, Note_on_c, 0, 75, 102
4, 190560, Note_on_c, 0, 59, 102
4, 190560, Note_on_c, 0, 54, 102
4, 191040, Note_on_c, 0, 54, 0
4, 191040, Note_on_c, 0, 71, 0
4, 191040, Note_on_c, 0, 75, 0
4, 191040, Note_on_c, 0, 59, 0
4, 191040, Note_on_c, 0, 76, 97
4, 191040, Note_on_c, 0, 71, 97
4, 191040, Note_on_c, 0, 44, 97
4, 191040, Note_on_c, 0, 47, 97
4, 191040, Note_on_c, 0, 52, 97
4, 191520, Note_on_c, 0, 52, 0
4, 191520, Note_on_c, 0, 44, 0
4, 191520, Note_on_c, 0, 76, 0
4, 191520, Note_on_c, 0, 71, 0
4, 191520, Note_on_c, 0, 47, 0
4, 192000, Note_on_c, 0, 64, 59
4, 192000, Note_on_c, 0, 59, 59
4, 192000, Note_on_c, 0, 56, 60
4, 192480, Note_on_c, 0, 56, 0
4, 192480, Note_on_c, 0, 59, 0
4, 192480, Note_on_c, 0, 64, 0
4, 192960, Note_on_c, 0, 61, 60
4, 192960, Note_on_c, 0, 66, 60
4, 192960, Note_on_c, 0, 49, 61
4, 192960, Note_on_c, 0, 54, 61
4, 193440, Note_on_c, 0, 54, 0
4, 193440, Note_on_c, 0, 61, 0
4, 193440, Note_on_c, 0, 66, 0
4, 193440, Note_on_c, 0, 49, 0
4, 193920, Note_on_c, 0, 71, 76
4, 193920, Note_on_c, 0, 75, 76
4, 193920, Note_on_c, 0, 63, 75
4, 193920, Note_on_c, 0, 66, 75
4, 194400, Note_on_c, 0, 66, 0
4, 194400, Note_on_c, 0, 71, 0
4, 194400, Note_on_c, 0, 75, 0
4, 194400, Note_on_c, 0, 63, 0
4, 194400, Note_on_c, 0, 71, 73
4, 194400, Note_on_c, 0, 77, 73
4, 194400, Note_on_c, 0, 73, 73
4, 194400, Note_on_c, 0, 61, 73
4, 194400, Note_on_c, 0, 59, 73
4, 194400, Note_on_c, 0, 65, 73
4, 194880, Note_on_c, 0, 65, 0
4, 194880, Note_on_c, 0, 77, 0
4, 194880, Note_on_c, 0, 73, 0
4, 194880, Note_on_c, 0, 71, 0
4, 194880, Note_on_c, 0, 59, 0
4, 194880, Note_on_c, 0, 61, 0
4, 194880, Note_on_c, 0, 69, 70
4, 194880, Note_on_c, 0, 78, 70
4, 194880, Note_on_c, 0, 73, 70
4, 194880, Note_on_c, 0, 61, 70
4, 194880, Note_on_c, 0, 57, 70
4, 194880, Note_on_c, 0, 66, 70
4, 195360, Note_on_c, 0, 66, 0
4, 195360, Note_on_c, 0, 78, 0
4, 195360, Note_on_c, 0, 73, 0
4, 195360, Note_on_c, 0, 69, 0
4, 195360, Note_on_c, 0, 57, 0
4, 195360, Note_on_c, 0, 61, 0
4, 195840, Note_on_c, 0, 61, 64
4, 195840, Note_on_c, 0, 66, 64
4, 195840, Note_on_c, 0, 57, 65
4, 196320, Note_on_c, 0, 57, 0
4, 196320, Note_on_c, 0, 66, 0
4, 196320, Note_on_c, 0, 61, 0
4, 196800, Note_on_c, 0, 68, 66
4, 196800, Note_on_c, 0, 62, 66
4, 196800, Note_on_c, 0, 56, 66
4, 197280, Note_on_c, 0, 56, 0
4, 197280, Note_on_c, 0, 62, 0
4, 197280, Note_on_c, 0, 68, 0
4, 197760, Note_on_c, 0, 71, 81
4, 197760, Note_on_c, 0, 73, 81
4, 197760, Note_on_c, 0, 77, 81
4, 197760, Note_on_c, 0, 65, 83
4, 198240, Note_on_c, 0, 65, 0
4, 198240, Note_on_c, 0, 71, 0
4, 198240, Note_on_c, 0, 73, 0
4, 198240, Note_on_c, 0, 77, 0
4, 198240, Note_on_c, 0, 76, 79
4, 198240, Note_on_c, 0, 70, 79
4, 198240, Note_on_c, 0, 73, 79
4, 198240, Note_on_c, 0, 61, 79
4, 198240, Note_on_c, 0, 64, 79
4, 198720, Note_on_c, 0, 64, 0
4, 198720, Note_on_c, 0, 73, 0
4, 198720, Note_on_c, 0, 76, 0
4, 198720, Note_on_c, 0, 70, 0
4, 198720, Note_on_c, 0, 61, 0
4, 198720, Note_on_c, 0, 71, 76
4, 198720, Note_on_c, 0, 74, 76
4, 198720, Note_on_c, 0, 62, 74
4, 199200, Note_on_c, 0, 62, 0
4, 199200, Note_on_c, 0, 74, 0
4, 199200, Note_on_c, 0, 71, 0
4, 199680, Note_on_c, 0, 66, 70
4, 199680, Note_on_c, 0, 71, 70
4, 199680, Note_on_c, 0, 62, 71
4, 200160, Note_on_c, 0, 62, 0
4, 200160, Note_on_c, 0, 71, 0
4, 200160, Note_on_c, 0, 66, 0
4, 200640, Note_on_c, 0, 73, 71
4, 200640, Note_on_c, 0, 67, 71
4, 200640, Note_on_c, 0, 55, 72
4, 200640, Note_on_c, 0, 61, 72
4, 201120, Note_on_c, 0, 61, 0
4, 201120, Note_on_c, 0, 73, 0
4, 201120, Note_on_c, 0, 67, 0
4, 201120, Note_on_c, 0, 55, 0
4, 201600, Note_on_c, 0, 70, 88
4, 201600, Note_on_c, 0, 73, 88
4, 201600, Note_on_c, 0, 76, 88
4, 201600, Note_on_c, 0, 58, 89
4, 201600, Note_on_c, 0, 61, 89
4, 202080, Note_on_c, 0, 61, 0
4, 202080, Note_on_c, 0, 76, 0
4, 202080, Note_on_c, 0, 70, 0
4, 202080, Note_on_c, 0, 73, 0
4, 202080, Note_on_c, 0, 58, 0
4, 202080, Note_on_c, 0, 71, 85
4, 202080, Note_on_c, 0, 54, 86
4, 202080, Note_on_c, 0, 59, 86
4, 202560, Note_on_c, 0, 59, 0
4, 202560, Note_on_c, 0, 54, 0
4, 202560, Note_on_c, 0, 71, 0
4, 202560, Note_on_c, 0, 76, 82
4, 202560, Note_on_c, 0, 73, 82
4, 202560, Note_on_c, 0, 54, 80
4, 202560, Note_on_c, 0, 58, 80
4, 203040, Note_on_c, 0, 58, 0
4, 203040, Note_on_c, 0, 76, 0
4, 203040, Note_on_c, 0, 73, 0
4, 203040, Note_on_c, 0, 54, 0
4, 203520, Note_on_c, 0, 70, 75
4, 203520, Note_on_c, 0, 64, 76
4, 204000, Note_on_c, 0, 64, 0
4, 204000, Note_on_c, 0, 70, 0
4, 204000, Note_on_c, 0, 71, 76
4, 204000, Note_on_c, 0, 63, 77
4, 204480, Note_on_c, 0, 63, 0
4, 204480, Note_on_c, 0, 71, 0
4, 204480, Note_on_c, 0, 73, 76
4, 204480, Note_on_c, 0, 61, 77
4, 204960, Note_on_c, 0, 61, 0
4, 204960, Note_on_c, 0, 73, 0
4, 205440, Note_on_c, 0, 66, 78
4, 205440, Note_on_c, 0, 70, 78
4, 205440, Note_on_c, 0, 61, 79
4, 205920, Note_on_c, 0, 61, 0
4, 205920, Note_on_c, 0, 70, 0
4, 205920, Note_on_c, 0, 66, 0
4, 206400, Note_on_c, 0, 73, 79
4, 206400, Note_on_c, 0, 66, 79
4, 206400, Note_on_c, 0, 58, 80
4, 206880, Note_on_c, 0, 58, 0
4, 206880, Note_on_c, 0, 66, 0
4, 206880, Note_on_c, 0, 73, 0
4, 207360, Note_on_c, 0, 71, 80
4, 207360, Note_on_c, 0, 66, 80
4, 207360, Note_on_c, 0, 63, 82
4, 207840, Note_on_c, 0, 63, 0
4, 207840, Note_on_c, 0, 66, 0
4, 207840, Note_on_c, 0, 71, 0
4, 208800, Note_on_c, 0, 75, 84
4, 209280, Note_on_c, 0, 75, 0
4, 209280, Note_on_c, 0, 76, 91
4, 210720, Note_on_c, 0, 76, 0
4, 210720, Note_on_c, 0, 76, 90
4, 211200, Note_on_c, 0, 76, 0
4, 211200, Note_on_c, 0, 75, 83
4, 212160, Note_on_c, 0, 75, 0
4, 212160, Note_on_c, 0, 73, 72
4, 212640, Note_on_c, 0, 73, 0
4, 212640, Note_on_c, 0, 70, 71
4, 212640, Note_on_c, 0, 73, 71
4, 213120, Note_on_c, 0, 73, 0
4, 213120, Note_on_c, 0, 70, 0
4, 213120, Note_on_c, 0, 68, 71
4, 213120, Note_on_c, 0, 71, 71
4, 213600, Note_on_c, 0, 71, 0
4, 213600, Note_on_c, 0, 68, 0
4, 213600, Note_on_c, 0, 70, 70
4, 213600, Note_on_c, 0, 67, 70
4, 214080, Note_on_c, 0, 67, 0
4, 214080, Note_on_c, 0, 70, 0
4, 214080, Note_on_c, 0, 63, 70
4, 214080, Note_on_c, 0, 68, 70
4, 214560, Note_on_c, 0, 68, 0
4, 214560, Note_on_c, 0, 63, 0
4, 214560, Note_on_c, 0, 68, 69
4, 214560, Note_on_c, 0, 63, 69
4, 215040, Note_on_c, 0, 63, 0
4, 215040, Note_on_c, 0, 68, 0
4, 215040, Note_on_c, 0, 68, 75
4, 215040, Note_on_c, 0, 62, 75
4, 215520, Note_on_c, 0, 62, 0
4, 215520, Note_on_c, 0, 68, 0
4, 215520, Note_on_c, 0, 61, 68
4, 215520, Note_on_c, 0, 68, 68
4, 216000, Note_on_c, 0, 68, 0
4, 216000, Note_on_c, 0, 61, 0
4, 216000, Note_on_c, 0, 68, 73
4, 216000, Note_on_c, 0, 62, 73
4, 216480, Note_on_c, 0, 62, 0
4, 216480, Note_on_c, 0, 68, 0
4, 216480, Note_on_c, 0, 61, 67
4, 216480, Note_on_c, 0, 68, 67
4, 216960, Note_on_c, 0, 68, 0
4, 216960, Note_on_c, 0, 61, 0
4, 216960, Note_on_c, 0, 68, 74
4, 216960, Note_on_c, 0, 62, 74
4, 217440, Note_on_c, 0, 62, 0
4, 217440, Note_on_c, 0, 68, 0
4, 217440, Note_on_c, 0, 68, 66
4, 217440, Note_on_c, 0, 61, 66
4, 217920, Note_on_c, 0, 61, 0
4, 217920, Note_on_c, 0, 68, 0
4, 218400, Note_on_c, 0, 63, 65
4, 218400, Note_on_c, 0, 68, 65
4, 218880, Note_on_c, 0, 68, 0
4, 218880, Note_on_c, 0, 63, 0
4, 218880, Note_on_c, 0, 68, 71
4, 218880, Note_on_c, 0, 62, 71
4, 219360, Note_on_c, 0, 62, 0
4, 219360, Note_on_c, 0, 68, 0
4, 219360, Note_on_c, 0, 68, 64
4, 219360, Note_on_c, 0, 61, 64
4, 219840, Note_on_c, 0, 61, 0
4, 219840, Note_on_c, 0, 68, 0
4, 219840, Note_on_c, 0, 68, 69
4, 219840, Note_on_c, 0, 62, 69
4, 220320, Note_on_c, 0, 62, 0
4, 220320, Note_on_c, 0, 68, 0
4, 220320, Note_on_c, 0, 68, 63
4, 220320, Note_on_c, 0, 61, 63
4, 220800, Note_on_c, 0, 61, 0
4, 220800, Note_on_c, 0, 68, 0
4, 220800, Note_on_c, 0, 68, 70
4, 220800, Note_on_c, 0, 62, 70
4, 221280, Note_on_c, 0, 62, 0
4, 221280, Note_on_c, 0, 68, 0
4, 221280, Note_on_c, 0, 68, 62
4, 221280, Note_on_c, 0, 61, 62
4, 221760, Note_on_c, 0, 61, 0
4, 221760, Note_on_c, 0, 68, 0
4, 222240, Note_on_c, 0, 63, 61
4, 222240, Note_on_c, 0, 68, 61
4, 222720, Note_on_c, 0, 68, 0
4, 222720, Note_on_c, 0, 63, 0
4, 222720, Note_on_c, 0, 61, 63
4, 222720, Note_on_c, 0, 68, 63
4, 223200, Note_on_c, 0, 68, 0
4, 223200, Note_on_c, 0, 61, 0
4, 223200, Note_on_c, 0, 66, 65
4, 223200, Note_on_c, 0, 61, 65
4, 223680, Note_on_c, 0, 61, 0
4, 223680, Note_on_c, 0, 66, 0
4, 223680, Note_on_c, 0, 66, 68
4, 223680, Note_on_c, 0, 61, 68
4, 224160, Note_on_c, 0, 61, 0
4, 224160, Note_on_c, 0, 66, 0
4, 224160, Note_on_c, 0, 66, 70
4, 224160, Note_on_c, 0, 61, 70
4, 224640, Note_on_c, 0, 61, 0
4, 224640, Note_on_c, 0, 66, 0
4, 224640, Note_on_c, 0, 66, 73
4, 224640, Note_on_c, 0, 60, 73
4, 225120, Note_on_c, 0, 60, 0
4, 225120, Note_on_c, 0, 66, 0
4, 225120, Note_on_c, 0, 66, 75
4, 225120, Note_on_c, 0, 60, 75
4, 225600, Note_on_c, 0, 60, 0
4, 225600, Note_on_c, 0, 66, 0
4, 225600, Note_on_c, 0, 66, 78
4, 225600, Note_on_c, 0, 60, 78
4, 226080, Note_on_c, 0, 60, 0
4, 226080, Note_on_c, 0, 66, 0
4, 226080, Note_on_c, 0, 66, 80
4, 226080, Note_on_c, 0, 60, 80
4, 226560, Note_on_c, 0, 60, 0
4, 226560, Note_on_c, 0, 66, 0
4, 226560, Note_on_c, 0, 42, 83
4, 226560, Note_on_c, 0, 45, 83
4, 226560, Note_on_c, 0, 48, 83
4, 227040, Note_on_c, 0, 48, 0
4, 227040, Note_on_c, 0, 45, 0
4, 227040, Note_on_c, 0, 42, 0
4, 227040, Note_on_c, 0, 42, 85
4, 227040, Note_on_c, 0, 45, 85
4, 227040, Note_on_c, 0, 48, 85
4, 227520, Note_on_c, 0, 48, 0
4, 227520, Note_on_c, 0, 45, 0
4, 227520, Note_on_c, 0, 42, 0
4, 227520, Note_on_c, 0, 42, 88
4, 227520, Note_on_c, 0, 45, 88
4, 227520, Note_on_c, 0, 48, 88
4, 228000, Note_on_c, 0, 48, 0
4, 228000, Note_on_c, 0, 45, 0
4, 228000, Note_on_c, 0, 42, 0
4, 228000, Note_on_c, 0, 42, 90
4, 228000, Note_on_c, 0, 45, 90
4, 228000, Note_on_c, 0, 48, 90
4, 228480, Note_on_c, 0, 48, 0
4, 228480, Note_on_c, 0, 45, 0
4, 228480, Note_on_c, 0, 42, 0
4, 228480, Note_on_c, 0, 56, 91
4, 228560, Note_on_c, 0, 56, 0
4, 228560, Note_on_c, 0, 58, 87
4, 228640, Note_on_c, 0, 58, 0
4, 228640, Note_on_c, 0, 56, 87
4, 228720, Note_on_c, 0, 56, 0
4, 228720, Note_on_c, 0, 58, 87
4, 228800, Note_on_c, 0, 58, 0
4, 228800, Note_on_c, 0, 56, 88
4, 228880, Note_on_c, 0, 56, 0
4, 228880, Note_on_c, 0, 58, 88
4, 228960, Note_on_c, 0, 58, 0
4, 228960, Note_on_c, 0, 56, 88
4, 229040, Note_on_c, 0, 56, 0
4, 229040, Note_on_c, 0, 58, 89
4, 229120, Note_on_c, 0, 58, 0
4, 229120, Note_on_c, 0, 56, 89
4, 229200, Note_on_c, 0, 56, 0
4, 229200, Note_on_c, 0, 58, 89
4, 229280, Note_on_c, 0, 58, 0
4, 229280, Note_on_c, 0, 56, 90
4, 229360, Note_on_c, 0, 56, 0
4, 229360, Note_on_c, 0, 58, 90
4, 229440, Note_on_c, 0, 58, 0
4, 229440, Note_on_c, 0, 56, 91
4, 229520, Note_on_c, 0, 56, 0
4, 229520, Note_on_c, 0, 58, 91
4, 229600, Note_on_c, 0, 58, 0
4, 229600, Note_on_c, 0, 56, 91
4, 229680, Note_on_c, 0, 56, 0
4, 229680, Note_on_c, 0, 58, 92
4, 229760, Note_on_c, 0, 58, 0
4, 229760, Note_on_c, 0, 56, 92
4, 229840, Note_on_c, 0, 56, 0
4, 229840, Note_on_c, 0, 58, 92
4, 229920, Note_on_c, 0, 58, 0
4, 229920, Note_on_c, 0, 56, 93
4, 230000, Note_on_c, 0, 56, 0
4, 230000, Note_on_c, 0, 58, 93
4, 230080, Note_on_c, 0, 58, 0
4, 230080, Note_on_c, 0, 56, 93
4, 230160, Note_on_c, 0, 56, 0
4, 230160, Note_on_c, 0, 54, 94
4, 230280, Note_on_c, 0, 54, 0
4, 230280, Note_on_c, 0, 56, 94
4, 230400, Note_on_c, 0, 56, 0
4, 230400, Note_on_c, 0, 54, 94
4, 230880, Note_on_c, 0, 54, 0
4, 237120, Note_on_c, 0, 70, 90
4, 237120, Note_on_c, 0, 67, 90
4, 237600, Note_on_c, 0, 67, 0
4, 237600, Note_on_c, 0, 70, 0
4, 237600, Note_on_c, 0, 63, 87
4, 237600, Note_on_c, 0, 68, 87
4, 237600, Note_on_c, 0, 59, 87
4, 238080, Note_on_c, 0, 59, 0
4, 238080, Note_on_c, 0, 68, 0
4, 238080, Note_on_c, 0, 63, 0
4, 238080, Note_on_c, 0, 68, 81
4, 238080, Note_on_c, 0, 65, 81
4, 239040, Note_on_c, 0, 65, 0
4, 239040, Note_on_c, 0, 68, 0
4, 239040, Note_on_c, 0, 56, 79
4, 239040, Note_on_c, 0, 59, 79
4, 240000, Note_on_c, 0, 59, 0
4, 240000, Note_on_c, 0, 56, 0
4, 240000, Note_on_c, 0, 58, 82
4, 240480, Note_on_c, 0, 58, 0
4, 240960, Note_on_c, 0, 67, 94
4, 240960, Note_on_c, 0, 70, 94
4, 240960, Note_on_c, 0, 73, 94
4, 241440, Note_on_c, 0, 73, 0
4, 241440, Note_on_c, 0, 70, 0
4, 241440, Note_on_c, 0, 67, 0
4, 241440, Note_on_c, 0, 75, 91
4, 241440, Note_on_c, 0, 71, 91
4, 241920, Note_on_c, 0, 71, 0
4, 241920, Note_on_c, 0, 75, 0
4, 241920, Note_on_c, 0, 68, 84
4, 241920, Note_on_c, 0, 65, 84
4, 241920, Note_on_c, 0, 71, 84
4, 241920, Note_on_c, 0, 73, 84
4, 242880, Note_on_c, 0, 73, 0
4, 242880, Note_on_c, 0, 68, 0
4, 242880, Note_on_c, 0, 65, 0
4, 242880, Note_on_c, 0, 71, 0
4, 242880, Note_on_c, 0, 56, 75
4, 242880, Note_on_c, 0, 59, 75
4, 243840, Note_on_c, 0, 59, 0
4, 243840, Note_on_c, 0, 56, 0
4, 243840, Note_on_c, 0, 58, 74
4, 244320, Note_on_c, 0, 58, 0
4, 244800, Note_on_c, 0, 44, 72
4, 244800, Note_on_c, 0, 47, 72
4, 245760, Note_on_c, 0, 47, 0
4, 245760, Note_on_c, 0, 44, 0
4, 245760, Note_on_c, 0, 46, 70
4, 246240, Note_on_c, 0, 46, 0
4, 266880, Control_c, 0, 7, 112
4, 266880, Pitch_bend_c, 0, 8192
4, 266880, Control_c, 0, 1, 0
4, 266880, Control_c, 0, 64, 0
4, 266880, Control_c, 0, 93, 28
4, 266880, Control_c, 0, 91, 91
4, 266880, Control_c, 0, 10, 73
4, 266880, Control_c, 0, 0, 0
4, 266880, Control_c, 0, 32, 0
4, 266880, Program_c, 0, 0
4, 267120, Control_c, 0, 10, 64
4, 267840, Note_on_c, 0, 54, 94
4, 268560, Note_on_c, 0, 54, 0
4, 268560, Note_on_c, 0, 56, 91
4, 268716, Note_on_c, 0, 56, 0
4, 268800, Note_on_c, 0, 49, 85
4, 268956, Note_on_c, 0, 49, 0
4, 269520, Note_on_c, 0, 49, 63
4, 269676, Note_on_c, 0, 49, 0
4, 271680, Note_on_c, 0, 67, 96
4, 272400, Note_on_c, 0, 67, 0
4, 272400, Note_on_c, 0, 66, 91
4, 272556, Note_on_c, 0, 66, 0
4, 272640, Note_on_c, 0, 64, 85
4, 272874, Note_on_c, 0, 64, 0
4, 273360, Note_on_c, 0, 63, 65
4, 273516, Note_on_c, 0, 63, 0
4, 273600, Note_on_c, 0, 56, 69
4, 273960, Note_on_c, 0, 56, 0
4, 273960, Note_on_c, 0, 61, 62
4, 274038, Note_on_c, 0, 61, 0
4, 274080, Note_on_c, 0, 63, 60
4, 274236, Note_on_c, 0, 63, 0
4, 274320, Note_on_c, 0, 64, 56
4, 274476, Note_on_c, 0, 64, 0
4, 274560, Note_on_c, 0, 63, 52
4, 274860, Note_on_c, 0, 63, 0
4, 297600, Note_on_c, 0, 54, 94
4, 298320, Note_on_c, 0, 54, 0
4, 298320, Note_on_c, 0, 56, 92
4, 298476, Note_on_c, 0, 56, 0
4, 298560, Note_on_c, 0, 49, 87
4, 298716, Note_on_c, 0, 49, 0
4, 299280, Note_on_c, 0, 49, 62
4, 299436, Note_on_c, 0, 49, 0
4, 301440, Note_on_c, 0, 67, 94
4, 302160, Note_on_c, 0, 67, 0
4, 302160, Note_on_c, 0, 66, 92
4, 302316, Note_on_c, 0, 66, 0
4, 302400, Note_on_c, 0, 64, 90
4, 302634, Note_on_c, 0, 64, 0
4, 303120, Note_on_c, 0, 63, 62
4, 303276, Note_on_c, 0, 63, 0
4, 303360, Note_on_c, 0, 56, 66
4, 303720, Note_on_c, 0, 56, 0
4, 303720, Note_on_c, 0, 61, 62
4, 303798, Note_on_c, 0, 61, 0
4, 303840, Note_on_c, 0, 63, 61
4, 303996, Note_on_c, 0, 63, 0
4, 304080, Note_on_c, 0, 64, 58
4, 304236, Note_on_c, 0, 64, 0
4, 304320, Note_on_c, 0, 63, 56
4, 304680, Note_on_c, 0, 63, 0
4, 352320, Note_on_c, 0, 71, 94
4, 353040, Note_on_c, 0, 71, 0
4, 353040, Note_on_c, 0, 70, 90
4, 353196, Note_on_c, 0, 70, 0
4, 353280, Note_on_c, 0, 70, 87
4, 353559, Note_on_c, 0, 70, 0
4, 356160, Note_on_c, 0, 71, 94
4, 356880, Note_on_c, 0, 71, 0
4, 356880, Note_on_c, 0, 71, 91
4, 357036, Note_on_c, 0, 71, 0
4, 357120, Note_on_c, 0, 71, 87
4, 357120, Note_on_c, 0, 69, 87
4, 357276, Note_on_c, 0, 69, 0
4, 357276, Note_on_c, 0, 71, 0
4, 360000, Note_on_c, 0, 71, 94
4, 360720, Note_on_c, 0, 71, 0
4, 360720, Note_on_c, 0, 71, 91
4, 360876, Note_on_c, 0, 71, 0
4, 360960, Note_on_c, 0, 71, 87
4, 361116, Note_on_c, 0, 71, 0
4, 410880, Note_on_c, 0, 66, 94
4, 411600, Note_on_c, 0, 66, 0
4, 411600, Note_on_c, 0, 68, 92
4, 411600, Note_on_c, 0, 65, 92
4, 411756, Note_on_c, 0, 65, 0
4, 411756, Note_on_c, 0, 68, 0
4, 411840, Note_on_c, 0, 65, 88
4, 411840, Note_on_c, 0, 68, 88
4, 412032, Note_on_c, 0, 68, 0
4, 412032, Note_on_c, 0, 65, 0
4, 414720, Note_on_c, 0, 66, 94
4, 414720, Note_on_c, 0, 64, 94
4, 415440, Note_on_c, 0, 64, 0
4, 415440, Note_on_c, 0, 66, 0
4, 415440, Note_on_c, 0, 66, 92
4, 415440, Note_on_c, 0, 63, 92
4, 415596, Note_on_c, 0, 63, 0
4, 415596, Note_on_c, 0, 66, 0
4, 415680, Note_on_c, 0, 66, 91
4, 415680, Note_on_c, 0, 61, 91
4, 415872, Note_on_c, 0, 61, 0
4, 415872, Note_on_c, 0, 66, 0
4, 418560, Note_on_c, 0, 66, 60
4, 419280, Note_on_c, 0, 66, 0
4, 419280, Note_on_c, 0, 66, 58
4, 419520, Note_on_c, 0, 66, 0
4, 419520, Note_on_c, 0, 66, 55
4, 420000, Note_on_c, 0, 66, 0
4, 432720, Note_on_c, 0, 68, 106
4, 432960, Note_on_c, 0, 68, 0
4, 432960, Note_on_c, 0, 68, 110
4, 433320, Note_on_c, 0, 68, 0
4, 433320, Note_on_c, 0, 70, 94
4, 433440, Note_on_c, 0, 70, 0
4, 433440, Note_on_c, 0, 71, 88
4, 433680, Note_on_c, 0, 71, 0
4, 433680, Note_on_c, 0, 56, 76
4, 433836, Note_on_c, 0, 56, 0
4, 433920, Note_on_c, 0, 56, 72
4, 434280, Note_on_c, 0, 56, 0
4, 434280, Note_on_c, 0, 58, 67
4, 434358, Note_on_c, 0, 58, 0
4, 434400, Note_on_c, 0, 59, 66
4, 434556, Note_on_c, 0, 59, 0
4, 434640, Note_on_c, 0, 61, 63
4, 434796, Note_on_c, 0, 61, 0
4, 434880, Note_on_c, 0, 61, 60
4, 436800, Note_on_c, 0, 61, 0
4, 436800, Note_on_c, 0, 60, 48
4, 438720, Note_on_c, 0, 60, 0
4, 438720, End_track
5, 0, Start_track
5, 0, Title_t, "Piano"
5, 0, Control_c, 0, 0, 0
5, 0, Control_c, 0, 7, 115
5, 0, Control_c, 0, 10, 47
5, 0, Control_c, 0, 91, 91
5, 0, Control_c, 0, 93, 28
5, 0, Control_c, 0, 64, 0
5, 0, Control_c, 0, 1, 0
5, 0, Pitch_bend_c, 0, 8192
5, 1, Control_c, 0, 32, 0
5, 1, Program_c, 0, 0
5, 960, Note_on_c, 0, 30, 53
5, 1920, Note_on_c, 0, 30, 0
5, 1920, Note_on_c, 0, 30, 55
5, 2880, Note_on_c, 0, 30, 0
5, 2880, Note_on_c, 0, 30, 57
5, 3840, Note_on_c, 0, 30, 0
5, 3840, Note_on_c, 0, 30, 49
5, 7085, Note_on_c, 0, 30, 0
5, 7680, Note_on_c, 0, 42, 55
5, 9600, Note_on_c, 0, 42, 0
5, 9600, Note_on_c, 0, 37, 51
5, 11520, Note_on_c, 0, 37, 0
5, 11520, Note_on_c, 0, 42, 53
5, 12000, Note_on_c, 0, 47, 56
5, 12480, Note_on_c, 0, 46, 60
5, 12496, Note_on_c, 0, 47, 0
5, 12960, Note_on_c, 0, 42, 0
5, 12960, Note_on_c, 0, 42, 64
5, 12976, Note_on_c, 0, 46, 0
5, 13424, Note_on_c, 0, 42, 0
5, 13440, Note_on_c, 0, 42, 70
5, 13904, Note_on_c, 0, 42, 0
5, 13920, Note_on_c, 0, 42, 66
5, 14384, Note_on_c, 0, 42, 0
5, 14400, Note_on_c, 0, 42, 61
5, 14864, Note_on_c, 0, 42, 0
5, 15840, Note_on_c, 0, 49, 55
5, 15960, Note_on_c, 0, 49, 0
5, 15960, Note_on_c, 0, 53, 55
5, 16080, Note_on_c, 0, 53, 0
5, 16080, Note_on_c, 0, 56, 56
5, 16200, Note_on_c, 0, 56, 0
5, 16200, Note_on_c, 0, 59, 56
5, 16320, Note_on_c, 0, 59, 0
5, 16320, Note_on_c, 0, 47, 56
5, 16800, Note_on_c, 0, 47, 0
5, 17760, Note_on_c, 0, 46, 60
5, 17880, Note_on_c, 0, 46, 0
5, 17880, Note_on_c, 0, 49, 60
5, 18000, Note_on_c, 0, 49, 0
5, 18000, Note_on_c, 0, 54, 61
5, 18120, Note_on_c, 0, 54, 0
5, 18120, Note_on_c, 0, 58, 61
5, 18240, Note_on_c, 0, 58, 0
5, 18240, Note_on_c, 0, 46, 61
5, 18720, Note_on_c, 0, 46, 0
5, 18720, Note_on_c, 0, 42, 63
5, 18880, Note_on_c, 0, 42, 0
5, 18880, Note_on_c, 0, 44, 63
5, 19040, Note_on_c, 0, 44, 0
5, 19040, Note_on_c, 0, 46, 64
5, 19200, Note_on_c, 0, 46, 0
5, 19200, Note_on_c, 0, 47, 64
5, 20160, Note_on_c, 0, 47, 0
5, 20160, Note_on_c, 0, 49, 66
5, 20640, Note_on_c, 0, 59, 70
5, 21120, Note_on_c, 0, 59, 0
5, 21120, Note_on_c, 0, 49, 0
5, 21120, Note_on_c, 0, 54, 66
5, 21600, Note_on_c, 0, 54, 0
5, 21600, Note_on_c, 0, 49, 61
5, 22080, Note_on_c, 0, 49, 0
5, 22080, Note_on_c, 0, 42, 56
5, 22560, Note_on_c, 0, 42, 0
5, 23040, Note_on_c, 0, 54, 55
5, 23520, Note_on_c, 0, 54, 0
5, 24000, Note_on_c, 0, 47, 59
5, 24480, Note_on_c, 0, 47, 0
5, 24960, Note_on_c, 0, 49, 63
5, 25440, Note_on_c, 0, 49, 0
5, 25440, Note_on_c, 0, 42, 61
5, 25920, Note_on_c, 0, 42, 0
5, 25920, Note_on_c, 0, 37, 57
5, 26400, Note_on_c, 0, 37, 0
5, 26880, Note_on_c, 0, 53, 59
5, 27360, Note_on_c, 0, 53, 0
5, 27840, Note_on_c, 0, 49, 62
5, 28320, Note_on_c, 0, 49, 0
5, 28800, Note_on_c, 0, 54, 65
5, 29280, Note_on_c, 0, 54, 0
5, 30240, Note_on_c, 0, 66, 73
5, 30720, Note_on_c, 0, 66, 0
5, 30720, Note_on_c, 0, 68, 79
5, 32160, Note_on_c, 0, 68, 0
5, 32160, Note_on_c, 0, 68, 82
5, 32640, Note_on_c, 0, 68, 0
5, 32640, Note_on_c, 0, 68, 76
5, 33600, Note_on_c, 0, 68, 0
5, 33600, Note_on_c, 0, 65, 73
5, 34080, Note_on_c, 0, 65, 0
5, 34080, Note_on_c, 0, 58, 73
5, 34560, Note_on_c, 0, 58, 0
5, 34560, Note_on_c, 0, 58, 72
5, 35040, Note_on_c, 0, 58, 0
5, 35040, Note_on_c, 0, 56, 72
5, 35520, Note_on_c, 0, 56, 0
5, 35520, Note_on_c, 0, 54, 71
5, 36000, Note_on_c, 0, 54, 0
5, 36000, Note_on_c, 0, 54, 71
5, 36480, Note_on_c, 0, 54, 0
5, 36480, Note_on_c, 0, 54, 79
5, 36960, Note_on_c, 0, 54, 0
5, 36960, Note_on_c, 0, 54, 70
5, 37440, Note_on_c, 0, 54, 0
5, 37440, Note_on_c, 0, 54, 77
5, 37920, Note_on_c, 0, 54, 0
5, 37920, Note_on_c, 0, 54, 69
5, 38400, Note_on_c, 0, 54, 0
5, 38400, Note_on_c, 0, 54, 74
5, 38880, Note_on_c, 0, 54, 0
5, 38880, Note_on_c, 0, 54, 68
5, 39360, Note_on_c, 0, 54, 0
5, 39840, Note_on_c, 0, 54, 67
5, 40320, Note_on_c, 0, 54, 0
5, 40320, Note_on_c, 0, 54, 74
5, 40800, Note_on_c, 0, 54, 0
5, 40800, Note_on_c, 0, 54, 66
5, 41280, Note_on_c, 0, 54, 0
5, 41280, Note_on_c, 0, 54, 73
5, 41760, Note_on_c, 0, 54, 0
5, 41760, Note_on_c, 0, 54, 65
5, 42240, Note_on_c, 0, 54, 0
5, 42240, Note_on_c, 0, 54, 71
5, 42720, Note_on_c, 0, 54, 0
5, 42720, Note_on_c, 0, 54, 64
5, 43200, Note_on_c, 0, 54, 0
5, 44160, Note_on_c, 0, 54, 63
5, 44640, Note_on_c, 0, 54, 0
5, 44640, Note_on_c, 0, 53, 67
5, 45120, Note_on_c, 0, 53, 0
5, 45120, Note_on_c, 0, 53, 70
5, 45600, Note_on_c, 0, 53, 0
5, 45600, Note_on_c, 0, 53, 72
5, 46080, Note_on_c, 0, 53, 0
5, 46080, Note_on_c, 0, 52, 75
5, 46560, Note_on_c, 0, 52, 0
5, 46560, Note_on_c, 0, 52, 78
5, 47040, Note_on_c, 0, 52, 0
5, 47040, Note_on_c, 0, 52, 80
5, 47520, Note_on_c, 0, 52, 0
5, 47520, Note_on_c, 0, 52, 83
5, 48000, Note_on_c, 0, 52, 0
5, 48000, Note_on_c, 0, 45, 86
5, 48480, Note_on_c, 0, 45, 0
5, 48480, Note_on_c, 0, 45, 88
5, 48960, Note_on_c, 0, 45, 0
5, 48960, Note_on_c, 0, 45, 91
5, 49440, Note_on_c, 0, 45, 0
5, 49440, Note_on_c, 0, 45, 93
5, 49920, Note_on_c, 0, 45, 0
5, 49920, Note_on_c, 0, 44, 95
5, 49920, Note_on_c, 0, 56, 95
5, 51840, Note_on_c, 0, 56, 0
5, 51840, Note_on_c, 0, 44, 0
5, 51840, Note_on_c, 0, 49, 98
5, 52320, Note_on_c, 0, 49, 0
5, 52800, Note_on_c, 0, 61, 64
5, 52960, Note_on_c, 0, 61, 0
5, 52960, Note_on_c, 0, 63, 64
5, 53120, Note_on_c, 0, 63, 0
5, 53120, Note_on_c, 0, 65, 65
5, 53280, Note_on_c, 0, 65, 0
5, 53280, Note_on_c, 0, 66, 66
5, 53440, Note_on_c, 0, 66, 0
5, 53440, Note_on_c, 0, 61, 66
5, 53600, Note_on_c, 0, 61, 0
5, 53600, Note_on_c, 0, 66, 67
5, 53760, Note_on_c, 0, 66, 0
5, 53760, Note_on_c, 0, 61, 65
5, 53760, Note_on_c, 0, 65, 65
5, 54240, Note_on_c, 0, 65, 0
5, 54240, Note_on_c, 0, 61, 0
5, 54720, Note_on_c, 0, 49, 69
5, 54880, Note_on_c, 0, 49, 0
5, 54880, Note_on_c, 0, 51, 68
5, 55040, Note_on_c, 0, 51, 0
5, 55040, Note_on_c, 0, 53, 67
5, 55200, Note_on_c, 0, 53, 0
5, 55200, Note_on_c, 0, 44, 66
5, 55200, Note_on_c, 0, 54, 66
5, 55360, Note_on_c, 0, 54, 0
5, 55360, Note_on_c, 0, 51, 65
5, 55520, Note_on_c, 0, 51, 0
5, 55520, Note_on_c, 0, 56, 64
5, 55680, Note_on_c, 0, 56, 0
5, 55680, Note_on_c, 0, 44, 0
5, 55680, Note_on_c, 0, 53, 62
5, 55680, Note_on_c, 0, 49, 62
5, 56160, Note_on_c, 0, 49, 0
5, 56160, Note_on_c, 0, 53, 0
5, 56640, Note_on_c, 0, 61, 68
5, 56800, Note_on_c, 0, 61, 0
5, 56800, Note_on_c, 0, 63, 69
5, 56960, Note_on_c, 0, 63, 0
5, 56960, Note_on_c, 0, 65, 70
5, 57120, Note_on_c, 0, 65, 0
5, 57120, Note_on_c, 0, 66, 71
5, 57280, Note_on_c, 0, 66, 0
5, 57280, Note_on_c, 0, 61, 72
5, 57440, Note_on_c, 0, 61, 0
5, 57440, Note_on_c, 0, 66, 73
5, 57600, Note_on_c, 0, 66, 0
5, 57600, Note_on_c, 0, 65, 70
5, 57600, Note_on_c, 0, 61, 70
5, 58080, Note_on_c, 0, 61, 0
5, 58080, Note_on_c, 0, 65, 0
5, 58560, Note_on_c, 0, 58, 96
5, 59040, Note_on_c, 0, 58, 0
5, 59040, Note_on_c, 0, 51, 93
5, 59520, Note_on_c, 0, 51, 0
5, 59520, Note_on_c, 0, 56, 89
5, 60480, Note_on_c, 0, 56, 0
5, 60480, Note_on_c, 0, 44, 71
5, 61440, Note_on_c, 0, 44, 0
5, 61440, Note_on_c, 0, 49, 73
5, 61920, Note_on_c, 0, 49, 0
5, 62400, Note_on_c, 0, 70, 108
5, 62880, Note_on_c, 0, 70, 0
5, 62880, Note_on_c, 0, 63, 105
5, 63360, Note_on_c, 0, 63, 0
5, 63360, Note_on_c, 0, 68, 97
5, 64320, Note_on_c, 0, 68, 0
5, 64320, Note_on_c, 0, 56, 71
5, 65280, Note_on_c, 0, 56, 0
5, 65280, Note_on_c, 0, 61, 68
5, 65760, Note_on_c, 0, 61, 0
5, 66240, Note_on_c, 0, 44, 64
5, 67200, Note_on_c, 0, 44, 0
5, 67200, Note_on_c, 0, 49, 61
5, 67680, Note_on_c, 0, 49, 0
5, 68160, Note_on_c, 0, 42, 57
5, 68280, Note_on_c, 0, 42, 0
5, 68280, Note_on_c, 0, 44, 57
5, 68400, Note_on_c, 0, 44, 0
5, 68400, Note_on_c, 0, 42, 57
5, 68520, Note_on_c, 0, 42, 0
5, 68520, Note_on_c, 0, 41, 57
5, 68640, Note_on_c, 0, 41, 0
5, 68640, Note_on_c, 0, 42, 57
5, 68760, Note_on_c, 0, 42, 0
5, 68760, Note_on_c, 0, 44, 58
5, 68880, Note_on_c, 0, 44, 0
5, 68880, Note_on_c, 0, 46, 58
5, 69000, Note_on_c, 0, 46, 0
5, 69000, Note_on_c, 0, 48, 58
5, 69120, Note_on_c, 0, 48, 0
5, 69120, Note_on_c, 0, 49, 58
5, 69240, Note_on_c, 0, 49, 0
5, 69240, Note_on_c, 0, 51, 58
5, 69360, Note_on_c, 0, 51, 0
5, 69360, Note_on_c, 0, 53, 59
5, 69480, Note_on_c, 0, 53, 0
5, 69480, Note_on_c, 0, 54, 59
5, 69600, Note_on_c, 0, 54, 0
5, 69600, Note_on_c, 0, 56, 59
5, 69720, Note_on_c, 0, 56, 0
5, 69720, Note_on_c, 0, 54, 59
5, 69840, Note_on_c, 0, 54, 0
5, 69840, Note_on_c, 0, 53, 59
5, 69960, Note_on_c, 0, 53, 0
5, 69960, Note_on_c, 0, 51, 60
5, 70080, Note_on_c, 0, 51, 0
5, 70080, Note_on_c, 0, 49, 60
5, 70200, Note_on_c, 0, 49, 0
5, 70200, Note_on_c, 0, 48, 60
5, 70320, Note_on_c, 0, 48, 0
5, 70320, Note_on_c, 0, 46, 60
5, 70440, Note_on_c, 0, 46, 0
5, 70440, Note_on_c, 0, 44, 60
5, 70560, Note_on_c, 0, 44, 0
5, 70560, Note_on_c, 0, 46, 61
5, 70680, Note_on_c, 0, 46, 0
5, 70680, Note_on_c, 0, 44, 61
5, 70800, Note_on_c, 0, 44, 0
5, 70800, Note_on_c, 0, 46, 61
5, 70920, Note_on_c, 0, 46, 0
5, 70920, Note_on_c, 0, 48, 61
5, 71040, Note_on_c, 0, 48, 0
5, 71040, Note_on_c, 0, 49, 61
5, 71160, Note_on_c, 0, 49, 0
5, 71160, Note_on_c, 0, 51, 63
5, 71280, Note_on_c, 0, 51, 0
5, 71280, Note_on_c, 0, 53, 65
5, 71400, Note_on_c, 0, 53, 0
5, 71400, Note_on_c, 0, 54, 67
5, 71520, Note_on_c, 0, 54, 0
5, 71520, Note_on_c, 0, 56, 70
5, 71640, Note_on_c, 0, 56, 0
5, 71640, Note_on_c, 0, 54, 72
5, 71760, Note_on_c, 0, 54, 0
5, 71760, Note_on_c, 0, 53, 74
5, 71880, Note_on_c, 0, 53, 0
5, 71880, Note_on_c, 0, 54, 76
5, 72000, Note_on_c, 0, 54, 0
5, 72000, Note_on_c, 0, 56, 78
5, 72120, Note_on_c, 0, 56, 0
5, 72120, Note_on_c, 0, 54, 75
5, 72240, Note_on_c, 0, 54, 0
5, 72240, Note_on_c, 0, 53, 72
5, 72360, Note_on_c, 0, 53, 0
5, 72360, Note_on_c, 0, 51, 70
5, 72480, Note_on_c, 0, 51, 0
5, 72480, Note_on_c, 0, 49, 67
5, 72600, Note_on_c, 0, 49, 0
5, 72600, Note_on_c, 0, 47, 64
5, 72720, Note_on_c, 0, 47, 0
5, 72720, Note_on_c, 0, 46, 62
5, 72840, Note_on_c, 0, 46, 0
5, 72840, Note_on_c, 0, 44, 59
5, 72960, Note_on_c, 0, 44, 0
5, 72960, Note_on_c, 0, 42, 56
5, 74880, Note_on_c, 0, 42, 0
5, 74880, Note_on_c, 0, 37, 51
5, 76800, Note_on_c, 0, 37, 0
5, 76800, Note_on_c, 0, 42, 53
5, 77280, Note_on_c, 0, 47, 56
5, 77760, Note_on_c, 0, 46, 60
5, 77776, Note_on_c, 0, 47, 0
5, 78240, Note_on_c, 0, 42, 0
5, 78240, Note_on_c, 0, 42, 64
5, 78256, Note_on_c, 0, 46, 0
5, 78704, Note_on_c, 0, 42, 0
5, 78720, Note_on_c, 0, 42, 70
5, 79184, Note_on_c, 0, 42, 0
5, 79200, Note_on_c, 0, 42, 66
5, 79664, Note_on_c, 0, 42, 0
5, 79680, Note_on_c, 0, 42, 61
5, 80144, Note_on_c, 0, 42, 0
5, 81120, Note_on_c, 0, 49, 55
5, 81240, Note_on_c, 0, 49, 0
5, 81240, Note_on_c, 0, 53, 55
5, 81360, Note_on_c, 0, 53, 0
5, 81360, Note_on_c, 0, 56, 56
5, 81480, Note_on_c, 0, 56, 0
5, 81480, Note_on_c, 0, 59, 56
5, 81600, Note_on_c, 0, 59, 0
5, 81600, Note_on_c, 0, 47, 56
5, 82080, Note_on_c, 0, 47, 0
5, 83040, Note_on_c, 0, 46, 60
5, 83160, Note_on_c, 0, 46, 0
5, 83160, Note_on_c, 0, 49, 60
5, 83280, Note_on_c, 0, 49, 0
5, 83280, Note_on_c, 0, 54, 61
5, 83400, Note_on_c, 0, 54, 0
5, 83400, Note_on_c, 0, 58, 61
5, 83520, Note_on_c, 0, 58, 0
5, 83520, Note_on_c, 0, 46, 61
5, 84000, Note_on_c, 0, 46, 0
5, 84000, Note_on_c, 0, 42, 63
5, 84160, Note_on_c, 0, 42, 0
5, 84160, Note_on_c, 0, 44, 63
5, 84320, Note_on_c, 0, 44, 0
5, 84320, Note_on_c, 0, 46, 64
5, 84480, Note_on_c, 0, 46, 0
5, 84480, Note_on_c, 0, 47, 64
5, 85440, Note_on_c, 0, 47, 0
5, 85440, Note_on_c, 0, 49, 66
5, 85920, Note_on_c, 0, 59, 70
5, 86400, Note_on_c, 0, 59, 0
5, 86400, Note_on_c, 0, 49, 0
5, 86400, Note_on_c, 0, 54, 66
5, 86880, Note_on_c, 0, 54, 0
5, 86880, Note_on_c, 0, 49, 61
5, 87360, Note_on_c, 0, 49, 0
5, 87360, Note_on_c, 0, 42, 56
5, 87840, Note_on_c, 0, 42, 0
5, 88320, Note_on_c, 0, 54, 55
5, 88800, Note_on_c, 0, 54, 0
5, 89280, Note_on_c, 0, 47, 59
5, 89760, Note_on_c, 0, 47, 0
5, 90240, Note_on_c, 0, 49, 63
5, 90720, Note_on_c, 0, 49, 0
5, 90720, Note_on_c, 0, 42, 61
5, 91200, Note_on_c, 0, 42, 0
5, 91200, Note_on_c, 0, 37, 57
5, 91680, Note_on_c, 0, 37, 0
5, 92160, Note_on_c, 0, 53, 59
5, 92640, Note_on_c, 0, 53, 0
5, 93120, Note_on_c, 0, 49, 62
5, 93600, Note_on_c, 0, 49, 0
5, 94080, Note_on_c, 0, 54, 65
5, 94560, Note_on_c, 0, 54, 0
5, 95520, Note_on_c, 0, 66, 73
5, 96000, Note_on_c, 0, 66, 0
5, 96000, Note_on_c, 0, 68, 79
5, 97440, Note_on_c, 0, 68, 0
5, 97440, Note_on_c, 0, 68, 82
5, 97920, Note_on_c, 0, 68, 0
5, 97920, Note_on_c, 0, 68, 76
5, 98880, Note_on_c, 0, 68, 0
5, 98880, Note_on_c, 0, 65, 73
5, 99360, Note_on_c, 0, 65, 0
5, 99360, Note_on_c, 0, 58, 73
5, 99840, Note_on_c, 0, 58, 0
5, 99840, Note_on_c, 0, 58, 72
5, 100320, Note_on_c, 0, 58, 0
5, 100320, Note_on_c, 0, 56, 72
5, 100800, Note_on_c, 0, 56, 0
5, 100800, Note_on_c, 0, 54, 71
5, 101280, Note_on_c, 0, 54, 0
5, 101280, Note_on_c, 0, 54, 71
5, 101760, Note_on_c, 0, 54, 0
5, 101760, Note_on_c, 0, 54, 79
5, 102240, Note_on_c, 0, 54, 0
5, 102240, Note_on_c, 0, 54, 70
5, 102720, Note_on_c, 0, 54, 0
5, 102720, Note_on_c, 0, 54, 77
5, 103200, Note_on_c, 0, 54, 0
5, 103200, Note_on_c, 0, 54, 69
5, 103680, Note_on_c, 0, 54, 0
5, 103680, Note_on_c, 0, 54, 74
5, 104160, Note_on_c, 0, 54, 0
5, 104160, Note_on_c, 0, 54, 68
5, 104640, Note_on_c, 0, 54, 0
5, 105120, Note_on_c, 0, 54, 67
5, 105600, Note_on_c, 0, 54, 0
5, 105600, Note_on_c, 0, 54, 74
5, 106080, Note_on_c, 0, 54, 0
5, 106080, Note_on_c, 0, 54, 66
5, 106560, Note_on_c, 0, 54, 0
5, 106560, Note_on_c, 0, 54, 73
5, 107040, Note_on_c, 0, 54, 0
5, 107040, Note_on_c, 0, 54, 65
5, 107520, Note_on_c, 0, 54, 0
5, 107520, Note_on_c, 0, 54, 71
5, 108000, Note_on_c, 0, 54, 0
5, 108000, Note_on_c, 0, 54, 64
5, 108480, Note_on_c, 0, 54, 0
5, 109440, Note_on_c, 0, 54, 63
5, 109920, Note_on_c, 0, 54, 0
5, 109920, Note_on_c, 0, 53, 67
5, 110400, Note_on_c, 0, 53, 0
5, 110400, Note_on_c, 0, 53, 70
5, 110880, Note_on_c, 0, 53, 0
5, 110880, Note_on_c, 0, 53, 72
5, 111360, Note_on_c, 0, 53, 0
5, 111360, Note_on_c, 0, 52, 75
5, 111840, Note_on_c, 0, 52, 0
5, 111840, Note_on_c, 0, 52, 78
5, 112320, Note_on_c, 0, 52, 0
5, 112320, Note_on_c, 0, 52, 80
5, 112800, Note_on_c, 0, 52, 0
5, 112800, Note_on_c, 0, 52, 83
5, 113280, Note_on_c, 0, 52, 0
5, 113280, Note_on_c, 0, 45, 86
5, 113760, Note_on_c, 0, 45, 0
5, 113760, Note_on_c, 0, 45, 88
5, 114240, Note_on_c, 0, 45, 0
5, 114240, Note_on_c, 0, 45, 91
5, 114720, Note_on_c, 0, 45, 0
5, 114720, Note_on_c, 0, 45, 93
5, 115200, Note_on_c, 0, 45, 0
5, 115200, Note_on_c, 0, 56, 95
5, 115200, Note_on_c, 0, 44, 95
5, 117120, Note_on_c, 0, 44, 0
5, 117120, Note_on_c, 0, 56, 0
5, 117120, Note_on_c, 0, 49, 98
5, 117600, Note_on_c, 0, 49, 0
5, 118080, Note_on_c, 0, 61, 64
5, 118240, Note_on_c, 0, 61, 0
5, 118240, Note_on_c, 0, 63, 64
5, 118400, Note_on_c, 0, 63, 0
5, 118400, Note_on_c, 0, 65, 65
5, 118560, Note_on_c, 0, 65, 0
5, 118560, Note_on_c, 0, 66, 66
5, 118720, Note_on_c, 0, 66, 0
5, 118720, Note_on_c, 0, 61, 66
5, 118880, Note_on_c, 0, 61, 0
5, 118880, Note_on_c, 0, 66, 67
5, 119040, Note_on_c, 0, 66, 0
5, 119040, Note_on_c, 0, 65, 65
5, 119040, Note_on_c, 0, 61, 65
5, 119520, Note_on_c, 0, 61, 0
5, 119520, Note_on_c, 0, 65, 0
5, 120000, Note_on_c, 0, 49, 69
5, 120160, Note_on_c, 0, 49, 0
5, 120160, Note_on_c, 0, 51, 68
5, 120320, Note_on_c, 0, 51, 0
5, 120320, Note_on_c, 0, 53, 67
5, 120480, Note_on_c, 0, 53, 0
5, 120480, Note_on_c, 0, 54, 66
5, 120480, Note_on_c, 0, 44, 66
5, 120640, Note_on_c, 0, 54, 0
5, 120640, Note_on_c, 0, 51, 65
5, 120800, Note_on_c, 0, 51, 0
5, 120800, Note_on_c, 0, 56, 64
5, 120960, Note_on_c, 0, 56, 0
5, 120960, Note_on_c, 0, 44, 0
5, 120960, Note_on_c, 0, 49, 62
5, 120960, Note_on_c, 0, 53, 62
5, 121440, Note_on_c, 0, 53, 0
5, 121440, Note_on_c, 0, 49, 0
5, 121920, Note_on_c, 0, 61, 68
5, 122080, Note_on_c, 0, 61, 0
5, 122080, Note_on_c, 0, 63, 69
5, 122240, Note_on_c, 0, 63, 0
5, 122240, Note_on_c, 0, 65, 70
5, 122400, Note_on_c, 0, 65, 0
5, 122400, Note_on_c, 0, 66, 71
5, 122560, Note_on_c, 0, 66, 0
5, 122560, Note_on_c, 0, 61, 72
5, 122720, Note_on_c, 0, 61, 0
5, 122720, Note_on_c, 0, 66, 73
5, 122880, Note_on_c, 0, 66, 0
5, 122880, Note_on_c, 0, 61, 70
5, 122880, Note_on_c, 0, 65, 70
5, 123360, Note_on_c, 0, 65, 0
5, 123360, Note_on_c, 0, 61, 0
5, 123840, Note_on_c, 0, 58, 96
5, 124320, Note_on_c, 0, 58, 0
5, 124320, Note_on_c, 0, 51, 93
5, 124800, Note_on_c, 0, 51, 0
5, 124800, Note_on_c, 0, 56, 89
5, 125760, Note_on_c, 0, 56, 0
5, 125760, Note_on_c, 0, 44, 71
5, 126720, Note_on_c, 0, 44, 0
5, 126720, Note_on_c, 0, 49, 73
5, 127200, Note_on_c, 0, 49, 0
5, 127680, Note_on_c, 0, 70, 108
5, 128160, Note_on_c, 0, 70, 0
5, 128160, Note_on_c, 0, 63, 105
5, 128640, Note_on_c, 0, 63, 0
5, 128640, Note_on_c, 0, 68, 97
5, 129600, Note_on_c, 0, 68, 0
5, 129600, Note_on_c, 0, 56, 71
5, 130560, Note_on_c, 0, 56, 0
5, 130560, Note_on_c, 0, 61, 68
5, 131040, Note_on_c, 0, 61, 0
5, 131520, Note_on_c, 0, 44, 64
5, 132480, Note_on_c, 0, 44, 0
5, 132480, Note_on_c, 0, 49, 61
5, 132960, Note_on_c, 0, 49, 0
5, 133440, Note_on_c, 0, 42, 57
5, 133560, Note_on_c, 0, 42, 0
5, 133560, Note_on_c, 0, 44, 57
5, 133680, Note_on_c, 0, 44, 0
5, 133680, Note_on_c, 0, 42, 57
5, 133800, Note_on_c, 0, 42, 0
5, 133800, Note_on_c, 0, 41, 57
5, 133920, Note_on_c, 0, 41, 0
5, 133920, Note_on_c, 0, 42, 57
5, 134040, Note_on_c, 0, 42, 0
5, 134040, Note_on_c, 0, 44, 58
5, 134160, Note_on_c, 0, 44, 0
5, 134160, Note_on_c, 0, 46, 58
5, 134280, Note_on_c, 0, 46, 0
5, 134280, Note_on_c, 0, 48, 58
5, 134400, Note_on_c, 0, 48, 0
5, 134400, Note_on_c, 0, 49, 58
5, 134520, Note_on_c, 0, 49, 0
5, 134520, Note_on_c, 0, 51, 58
5, 134640, Note_on_c, 0, 51, 0
5, 134640, Note_on_c, 0, 53, 59
5, 134760, Note_on_c, 0, 53, 0
5, 134760, Note_on_c, 0, 54, 59
5, 134880, Note_on_c, 0, 54, 0
5, 134880, Note_on_c, 0, 56, 59
5, 135000, Note_on_c, 0, 56, 0
5, 135000, Note_on_c, 0, 54, 59
5, 135120, Note_on_c, 0, 54, 0
5, 135120, Note_on_c, 0, 53, 59
5, 135240, Note_on_c, 0, 53, 0
5, 135240, Note_on_c, 0, 51, 60
5, 135360, Note_on_c, 0, 51, 0
5, 135360, Note_on_c, 0, 49, 60
5, 135480, Note_on_c, 0, 49, 0
5, 135480, Note_on_c, 0, 48, 60
5, 135600, Note_on_c, 0, 48, 0
5, 135600, Note_on_c, 0, 46, 60
5, 135720, Note_on_c, 0, 46, 0
5, 135720, Note_on_c, 0, 44, 60
5, 135840, Note_on_c, 0, 44, 0
5, 135840, Note_on_c, 0, 46, 61
5, 135960, Note_on_c, 0, 46, 0
5, 135960, Note_on_c, 0, 44, 61
5, 136080, Note_on_c, 0, 44, 0
5, 136080, Note_on_c, 0, 46, 61
5, 136200, Note_on_c, 0, 46, 0
5, 136200, Note_on_c, 0, 48, 61
5, 136320, Note_on_c, 0, 48, 0
5, 136320, Note_on_c, 0, 49, 63
5, 136440, Note_on_c, 0, 49, 0
5, 136440, Note_on_c, 0, 51, 64
5, 136560, Note_on_c, 0, 51, 0
5, 136560, Note_on_c, 0, 53, 66
5, 136680, Note_on_c, 0, 53, 0
5, 136680, Note_on_c, 0, 54, 67
5, 136800, Note_on_c, 0, 54, 0
5, 136800, Note_on_c, 0, 56, 69
5, 136920, Note_on_c, 0, 56, 0
5, 136920, Note_on_c, 0, 57, 72
5, 137040, Note_on_c, 0, 57, 0
5, 137040, Note_on_c, 0, 59, 75
5, 137160, Note_on_c, 0, 59, 0
5, 137160, Note_on_c, 0, 61, 78
5, 137280, Note_on_c, 0, 61, 0
5, 137280, Note_on_c, 0, 62, 85
5, 137400, Note_on_c, 0, 62, 0
5, 137400, Note_on_c, 0, 61, 81
5, 137520, Note_on_c, 0, 61, 0
5, 137520, Note_on_c, 0, 59, 76
5, 137640, Note_on_c, 0, 59, 0
5, 137640, Note_on_c, 0, 57, 73
5, 137760, Note_on_c, 0, 57, 0
5, 137760, Note_on_c, 0, 61, 71
5, 137880, Note_on_c, 0, 61, 0
5, 137880, Note_on_c, 0, 59, 69
5, 138000, Note_on_c, 0, 59, 0
5, 138000, Control_c, 0, 64, 0
5, 138000, Note_on_c, 0, 57, 67
5, 138120, Note_on_c, 0, 57, 0
5, 138120, Note_on_c, 0, 56, 65
5, 138240, Note_on_c, 0, 56, 0
5, 138240, Note_on_c, 0, 54, 66
5, 138240, Note_on_c, 0, 42, 66
5, 138480, Note_on_c, 0, 54, 0
5, 140160, Note_on_c, 0, 42, 0
5, 140160, Note_on_c, 0, 47, 69
5, 141600, Note_on_c, 0, 47, 0
5, 141600, Note_on_c, 0, 45, 70
5, 142080, Note_on_c, 0, 45, 0
5, 142080, Note_on_c, 0, 44, 71
5, 142560, Note_on_c, 0, 44, 0
5, 142560, Note_on_c, 0, 42, 71
5, 143040, Note_on_c, 0, 42, 0
5, 143040, Note_on_c, 0, 40, 69
5, 143520, Note_on_c, 0, 40, 0
5, 143520, Note_on_c, 0, 44, 67
5, 144000, Note_on_c, 0, 44, 0
5, 144000, Note_on_c, 0, 45, 65
5, 144480, Note_on_c, 0, 45, 0
5, 144960, Note_on_c, 0, 68, 61
5, 145440, Note_on_c, 0, 68, 0
5, 145920, Note_on_c, 0, 67, 56
5, 146400, Note_on_c, 0, 67, 0
5, 146400, Note_on_c, 0, 47, 93
5, 146760, Note_on_c, 0, 47, 0
5, 146760, Note_on_c, 0, 49, 95
5, 146880, Note_on_c, 0, 49, 0
5, 146880, Note_on_c, 0, 51, 98
5, 147360, Note_on_c, 0, 51, 0
5, 147360, Note_on_c, 0, 44, 91
5, 147840, Note_on_c, 0, 44, 0
5, 147840, Note_on_c, 0, 56, 91
5, 147840, Note_on_c, 0, 44, 91
5, 148080, Note_on_c, 0, 56, 0
5, 148080, Note_on_c, 0, 56, 81
5, 148320, Note_on_c, 0, 56, 0
5, 148320, Note_on_c, 0, 56, 82
5, 148560, Note_on_c, 0, 56, 0
5, 148560, Note_on_c, 0, 56, 83
5, 148800, Note_on_c, 0, 56, 0
5, 148800, Note_on_c, 0, 58, 84
5, 149040, Note_on_c, 0, 58, 0
5, 149040, Note_on_c, 0, 58, 84
5, 149280, Note_on_c, 0, 58, 0
5, 149280, Note_on_c, 0, 56, 85
5, 149520, Note_on_c, 0, 56, 0
5, 149520, Note_on_c, 0, 56, 86
5, 149760, Note_on_c, 0, 56, 0
5, 149760, Note_on_c, 0, 44, 0
5, 149760, Note_on_c, 0, 62, 74
5, 150240, Note_on_c, 0, 62, 0
5, 151200, Note_on_c, 0, 62, 73
5, 151200, Note_on_c, 0, 65, 73
5, 151560, Note_on_c, 0, 65, 0
5, 151560, Note_on_c, 0, 66, 72
5, 151680, Note_on_c, 0, 66, 0
5, 151680, Note_on_c, 0, 62, 0
5, 151680, Note_on_c, 0, 65, 72
5, 151680, Note_on_c, 0, 62, 72
5, 151680, Note_on_c, 0, 68, 72
5, 152160, Note_on_c, 0, 68, 0
5, 152160, Note_on_c, 0, 62, 0
5, 152160, Note_on_c, 0, 65, 0
5, 153120, Note_on_c, 0, 62, 70
5, 153120, Note_on_c, 0, 65, 70
5, 153480, Note_on_c, 0, 65, 0
5, 153480, Note_on_c, 0, 70, 70
5, 153600, Note_on_c, 0, 70, 0
5, 153600, Note_on_c, 0, 62, 0
5, 153600, Note_on_c, 0, 66, 70
5, 153600, Note_on_c, 0, 63, 70
5, 153840, Note_on_c, 0, 63, 0
5, 153840, Note_on_c, 0, 66, 0
5, 154080, Note_on_c, 0, 51, 69
5, 154080, Note_on_c, 0, 54, 69
5, 154440, Note_on_c, 0, 54, 0
5, 154440, Note_on_c, 0, 58, 69
5, 154560, Note_on_c, 0, 58, 0
5, 154560, Note_on_c, 0, 51, 0
5, 154560, Note_on_c, 0, 53, 69
5, 154560, Note_on_c, 0, 56, 69
5, 154800, Note_on_c, 0, 56, 0
5, 154800, Note_on_c, 0, 53, 0
5, 155040, Note_on_c, 0, 62, 68
5, 155040, Note_on_c, 0, 65, 68
5, 155400, Note_on_c, 0, 65, 0
5, 155400, Note_on_c, 0, 70, 67
5, 155520, Note_on_c, 0, 70, 0
5, 155520, Note_on_c, 0, 62, 0
5, 155520, Note_on_c, 0, 66, 67
5, 155520, Note_on_c, 0, 63, 67
5, 155760, Note_on_c, 0, 63, 0
5, 155760, Note_on_c, 0, 66, 0
5, 156000, Note_on_c, 0, 51, 67
5, 156000, Note_on_c, 0, 54, 67
5, 156360, Note_on_c, 0, 54, 0
5, 156360, Note_on_c, 0, 58, 66
5, 156480, Note_on_c, 0, 58, 0
5, 156480, Note_on_c, 0, 51, 0
5, 156480, Note_on_c, 0, 54, 66
5, 156480, Note_on_c, 0, 51, 66
5, 156720, Note_on_c, 0, 51, 0
5, 156720, Note_on_c, 0, 54, 0
5, 156960, Note_on_c, 0, 60, 66
5, 156960, Note_on_c, 0, 63, 66
5, 157320, Note_on_c, 0, 63, 0
5, 157320, Note_on_c, 0, 68, 65
5, 157440, Note_on_c, 0, 68, 0
5, 157440, Note_on_c, 0, 64, 65
5, 157440, Note_on_c, 0, 61, 65
5, 157447, Note_on_c, 0, 60, 0
5, 157680, Note_on_c, 0, 61, 0
5, 157680, Note_on_c, 0, 64, 0
5, 157920, Note_on_c, 0, 49, 64
5, 157920, Note_on_c, 0, 52, 64
5, 158280, Note_on_c, 0, 52, 0
5, 158280, Note_on_c, 0, 56, 64
5, 158400, Note_on_c, 0, 56, 0
5, 158400, Note_on_c, 0, 49, 0
5, 158400, Note_on_c, 0, 54, 64
5, 158400, Note_on_c, 0, 51, 64
5, 158640, Note_on_c, 0, 51, 0
5, 158640, Note_on_c, 0, 54, 0
5, 158880, Note_on_c, 0, 60, 63
5, 158880, Note_on_c, 0, 63, 63
5, 159240, Note_on_c, 0, 63, 0
5, 159240, Note_on_c, 0, 68, 63
5, 159360, Note_on_c, 0, 68, 0
5, 159360, Note_on_c, 0, 60, 0
5, 159360, Note_on_c, 0, 64, 63
5, 159360, Note_on_c, 0, 61, 63
5, 159600, Note_on_c, 0, 61, 0
5, 159600, Note_on_c, 0, 64, 0
5, 159840, Note_on_c, 0, 49, 62
5, 159840, Note_on_c, 0, 52, 62
5, 160200, Note_on_c, 0, 52, 0
5, 160200, Note_on_c, 0, 56, 62
5, 160305, Note_on_c, 0, 49, 0
5, 160320, Note_on_c, 0, 56, 0
5, 160320, Note_on_c, 0, 49, 61
5, 160320, Note_on_c, 0, 54, 61
5, 160320, Note_on_c, 0, 52, 61
5, 160560, Note_on_c, 0, 52, 0
5, 160560, Note_on_c, 0, 54, 0
5, 160560, Note_on_c, 0, 49, 0
5, 160800, Note_on_c, 0, 58, 61
5, 160800, Note_on_c, 0, 61, 61
5, 161160, Note_on_c, 0, 61, 0
5, 161160, Note_on_c, 0, 66, 60
5, 161280, Note_on_c, 0, 66, 0
5, 161280, Note_on_c, 0, 63, 60
5, 161280, Note_on_c, 0, 59, 60
5, 161287, Note_on_c, 0, 58, 0
5, 161520, Note_on_c, 0, 59, 0
5, 161520, Note_on_c, 0, 63, 0
5, 161760, Note_on_c, 0, 46, 60
5, 161760, Note_on_c, 0, 49, 60
5, 162120, Note_on_c, 0, 49, 0
5, 162120, Note_on_c, 0, 54, 59
5, 162240, Note_on_c, 0, 54, 0
5, 162240, Note_on_c, 0, 47, 59
5, 162240, Note_on_c, 0, 51, 59
5, 162247, Note_on_c, 0, 46, 0
5, 162480, Note_on_c, 0, 51, 0
5, 162480, Note_on_c, 0, 47, 0
5, 162720, Note_on_c, 0, 66, 59
5, 162840, Note_on_c, 0, 66, 0
5, 162840, Note_on_c, 0, 64, 60
5, 162960, Note_on_c, 0, 64, 0
5, 162960, Note_on_c, 0, 63, 61
5, 163080, Note_on_c, 0, 63, 0
5, 163080, Note_on_c, 0, 61, 62
5, 163200, Note_on_c, 0, 61, 0
5, 163200, Note_on_c, 0, 59, 63
5, 163440, Note_on_c, 0, 59, 0
5, 163680, Note_on_c, 0, 71, 67
5, 163800, Note_on_c, 0, 71, 0
5, 163800, Note_on_c, 0, 70, 68
5, 163920, Note_on_c, 0, 70, 0
5, 163920, Note_on_c, 0, 68, 69
5, 164040, Note_on_c, 0, 68, 0
5, 164040, Note_on_c, 0, 66, 70
5, 164160, Note_on_c, 0, 66, 0
5, 164160, Note_on_c, 0, 65, 71
5, 164400, Note_on_c, 0, 65, 0
5, 164640, Note_on_c, 0, 71, 75
5, 164760, Note_on_c, 0, 71, 0
5, 164760, Note_on_c, 0, 70, 76
5, 164880, Note_on_c, 0, 70, 0
5, 164880, Note_on_c, 0, 68, 77
5, 165000, Note_on_c, 0, 68, 0
5, 165000, Note_on_c, 0, 66, 78
5, 165120, Note_on_c, 0, 66, 0
5, 165120, Note_on_c, 0, 65, 79
5, 165360, Note_on_c, 0, 65, 0
5, 165600, Note_on_c, 0, 75, 83
5, 165720, Note_on_c, 0, 75, 0
5, 165720, Note_on_c, 0, 73, 84
5, 165840, Note_on_c, 0, 73, 0
5, 165840, Note_on_c, 0, 71, 85
5, 165960, Note_on_c, 0, 71, 0
5, 165960, Note_on_c, 0, 70, 86
5, 166080, Note_on_c, 0, 70, 0
5, 166080, Note_on_c, 0, 68, 87
5, 166200, Note_on_c, 0, 68, 0
5, 166200, Note_on_c, 0, 71, 88
5, 166320, Note_on_c, 0, 71, 0
5, 166320, Note_on_c, 0, 70, 89
5, 166440, Note_on_c, 0, 70, 0
5, 166440, Note_on_c, 0, 68, 90
5, 166560, Note_on_c, 0, 68, 0
5, 166560, Note_on_c, 0, 66, 91
5, 166680, Note_on_c, 0, 66, 0
5, 166680, Note_on_c, 0, 65, 92
5, 166800, Note_on_c, 0, 65, 0
5, 166800, Note_on_c, 0, 63, 93
5, 166920, Note_on_c, 0, 63, 0
5, 166920, Note_on_c, 0, 61, 94
5, 167040, Note_on_c, 0, 61, 0
5, 167040, Note_on_c, 0, 59, 93
5, 167160, Note_on_c, 0, 59, 0
5, 167160, Note_on_c, 0, 63, 95
5, 167280, Note_on_c, 0, 63, 0
5, 167280, Note_on_c, 0, 61, 96
5, 167400, Note_on_c, 0, 61, 0
5, 167400, Note_on_c, 0, 59, 97
5, 167520, Note_on_c, 0, 59, 0
5, 167520, Note_on_c, 0, 58, 98
5, 167640, Note_on_c, 0, 58, 0
5, 167640, Note_on_c, 0, 56, 100
5, 167760, Note_on_c, 0, 56, 0
5, 167760, Note_on_c, 0, 54, 101
5, 167880, Note_on_c, 0, 54, 0
5, 167880, Note_on_c, 0, 53, 102
5, 168000, Note_on_c, 0, 53, 0
5, 168000, Note_on_c, 0, 59, 103
5, 168120, Note_on_c, 0, 59, 0
5, 168120, Note_on_c, 0, 58, 105
5, 168240, Note_on_c, 0, 58, 0
5, 168240, Note_on_c, 0, 56, 106
5, 168360, Note_on_c, 0, 56, 0
5, 168360, Note_on_c, 0, 54, 107
5, 168480, Note_on_c, 0, 54, 0
5, 168480, Note_on_c, 0, 53, 108
5, 168600, Note_on_c, 0, 53, 0
5, 168600, Note_on_c, 0, 51, 110
5, 168720, Note_on_c, 0, 51, 0
5, 168720, Note_on_c, 0, 49, 111
5, 168840, Note_on_c, 0, 49, 0
5, 168840, Note_on_c, 0, 48, 113
5, 168960, Note_on_c, 0, 48, 0
5, 168960, Note_on_c, 0, 49, 120
5, 169920, Note_on_c, 0, 53, 110
5, 170880, Note_on_c, 0, 53, 0
5, 170880, Note_on_c, 0, 49, 0
5, 170880, Note_on_c, 0, 56, 109
5, 171040, Note_on_c, 0, 56, 0
5, 171040, Note_on_c, 0, 58, 99
5, 171200, Note_on_c, 0, 58, 0
5, 171200, Note_on_c, 0, 56, 92
5, 171360, Note_on_c, 0, 56, 0
5, 171360, Note_on_c, 0, 54, 87
5, 171520, Note_on_c, 0, 54, 0
5, 171520, Note_on_c, 0, 53, 82
5, 171680, Note_on_c, 0, 53, 0
5, 171680, Note_on_c, 0, 51, 77
5, 171840, Note_on_c, 0, 51, 0
5, 171840, Note_on_c, 0, 49, 75
5, 172000, Note_on_c, 0, 49, 0
5, 172000, Note_on_c, 0, 51, 73
5, 172160, Note_on_c, 0, 51, 0
5, 172160, Note_on_c, 0, 49, 70
5, 172320, Note_on_c, 0, 49, 0
5, 172320, Note_on_c, 0, 47, 68
5, 172480, Note_on_c, 0, 47, 0
5, 172480, Note_on_c, 0, 46, 66
5, 172640, Note_on_c, 0, 46, 0
5, 172640, Note_on_c, 0, 44, 63
5, 172800, Note_on_c, 0, 44, 0
5, 172800, Note_on_c, 0, 42, 65
5, 174720, Note_on_c, 0, 42, 0
5, 174720, Note_on_c, 0, 37, 58
5, 176640, Note_on_c, 0, 37, 0
5, 176640, Note_on_c, 0, 42, 68
5, 177120, Note_on_c, 0, 47, 69
5, 177600, Note_on_c, 0, 47, 0
5, 177600, Note_on_c, 0, 46, 70
5, 178080, Note_on_c, 0, 46, 0
5, 178080, Note_on_c, 0, 42, 0
5, 178080, Note_on_c, 0, 42, 71
5, 178560, Note_on_c, 0, 42, 0
5, 178560, Note_on_c, 0, 42, 72
5, 179040, Note_on_c, 0, 42, 0
5, 179040, Note_on_c, 0, 42, 67
5, 179520, Note_on_c, 0, 42, 0
5, 179520, Note_on_c, 0, 42, 65
5, 180000, Note_on_c, 0, 42, 0
5, 180960, Note_on_c, 0, 49, 68
5, 181080, Note_on_c, 0, 49, 0
5, 181080, Note_on_c, 0, 53, 67
5, 181200, Note_on_c, 0, 53, 0
5, 181200, Note_on_c, 0, 56, 65
5, 181320, Note_on_c, 0, 56, 0
5, 181320, Note_on_c, 0, 59, 64
5, 181440, Note_on_c, 0, 59, 0
5, 181440, Note_on_c, 0, 47, 62
5, 181920, Note_on_c, 0, 47, 0
5, 182880, Note_on_c, 0, 46, 78
5, 183000, Note_on_c, 0, 46, 0
5, 183000, Note_on_c, 0, 49, 76
5, 183120, Note_on_c, 0, 49, 0
5, 183120, Note_on_c, 0, 54, 74
5, 183240, Note_on_c, 0, 54, 0
5, 183240, Note_on_c, 0, 58, 72
5, 183360, Note_on_c, 0, 58, 0
5, 183360, Note_on_c, 0, 46, 70
5, 183840, Note_on_c, 0, 46, 0
5, 184800, Note_on_c, 0, 51, 85
5, 184920, Note_on_c, 0, 51, 0
5, 184920, Note_on_c, 0, 55, 84
5, 185040, Note_on_c, 0, 55, 0
5, 185040, Note_on_c, 0, 58, 82
5, 185160, Note_on_c, 0, 58, 0
5, 185160, Note_on_c, 0, 61, 80
5, 185280, Note_on_c, 0, 61, 0
5, 185280, Note_on_c, 0, 49, 79
5, 185760, Note_on_c, 0, 49, 0
5, 186720, Note_on_c, 0, 47, 95
5, 186840, Note_on_c, 0, 47, 0
5, 186840, Note_on_c, 0, 51, 94
5, 186960, Note_on_c, 0, 51, 0
5, 186960, Note_on_c, 0, 56, 93
5, 187080, Note_on_c, 0, 56, 0
5, 187080, Note_on_c, 0, 59, 92
5, 187200, Note_on_c, 0, 59, 0
5, 187200, Note_on_c, 0, 47, 90
5, 187680, Note_on_c, 0, 47, 0
5, 187680, Note_on_c, 0, 44, 96
5, 188160, Note_on_c, 0, 44, 0
5, 188160, Note_on_c, 0, 45, 98
5, 189120, Note_on_c, 0, 45, 0
5, 189120, Note_on_c, 0, 47, 103
5, 190080, Note_on_c, 0, 47, 0
5, 190080, Note_on_c, 0, 52, 110
5, 190560, Note_on_c, 0, 52, 0
5, 190560, Note_on_c, 0, 47, 107
5, 191040, Note_on_c, 0, 47, 0
5, 191040, Note_on_c, 0, 40, 101
5, 191520, Note_on_c, 0, 40, 0
5, 192000, Note_on_c, 0, 52, 60
5, 192480, Note_on_c, 0, 52, 0
5, 192960, Note_on_c, 0, 45, 61
5, 193440, Note_on_c, 0, 45, 0
5, 193920, Note_on_c, 0, 59, 75
5, 194400, Note_on_c, 0, 59, 0
5, 194400, Note_on_c, 0, 56, 73
5, 194880, Note_on_c, 0, 56, 0
5, 194880, Note_on_c, 0, 54, 70
5, 195360, Note_on_c, 0, 54, 0
5, 195840, Note_on_c, 0, 54, 65
5, 196320, Note_on_c, 0, 54, 0
5, 196800, Note_on_c, 0, 47, 66
5, 197280, Note_on_c, 0, 47, 0
5, 197760, Note_on_c, 0, 61, 83
5, 198240, Note_on_c, 0, 61, 0
5, 198240, Note_on_c, 0, 54, 79
5, 198720, Note_on_c, 0, 54, 0
5, 198720, Note_on_c, 0, 59, 74
5, 199200, Note_on_c, 0, 59, 0
5, 199680, Note_on_c, 0, 59, 71
5, 200160, Note_on_c, 0, 59, 0
5, 200640, Note_on_c, 0, 52, 72
5, 201120, Note_on_c, 0, 52, 0
5, 201600, Note_on_c, 0, 54, 89
5, 202080, Note_on_c, 0, 54, 0
5, 202080, Note_on_c, 0, 47, 86
5, 202560, Note_on_c, 0, 47, 0
5, 202560, Note_on_c, 0, 46, 80
5, 203040, Note_on_c, 0, 46, 0
5, 203520, Note_on_c, 0, 61, 76
5, 204000, Note_on_c, 0, 61, 0
5, 204000, Note_on_c, 0, 59, 77
5, 204480, Note_on_c, 0, 59, 0
5, 204480, Note_on_c, 0, 58, 77
5, 204960, Note_on_c, 0, 58, 0
5, 205440, Note_on_c, 0, 58, 79
5, 205920, Note_on_c, 0, 58, 0
5, 206400, Note_on_c, 0, 54, 80
5, 206880, Note_on_c, 0, 54, 0
5, 207360, Note_on_c, 0, 59, 82
5, 207840, Note_on_c, 0, 59, 0
5, 208800, Note_on_c, 0, 71, 84
5, 209280, Note_on_c, 0, 71, 0
5, 209280, Note_on_c, 0, 73, 91
5, 210720, Note_on_c, 0, 73, 0
5, 210720, Note_on_c, 0, 73, 90
5, 211200, Note_on_c, 0, 73, 0
5, 211200, Note_on_c, 0, 73, 83
5, 212160, Note_on_c, 0, 73, 0
5, 212160, Note_on_c, 0, 70, 72
5, 212640, Note_on_c, 0, 70, 0
5, 212640, Note_on_c, 0, 63, 71
5, 213120, Note_on_c, 0, 63, 0
5, 213120, Note_on_c, 0, 63, 71
5, 213600, Note_on_c, 0, 63, 0
5, 213600, Note_on_c, 0, 61, 70
5, 214080, Note_on_c, 0, 61, 0
5, 214080, Note_on_c, 0, 59, 70
5, 214560, Note_on_c, 0, 59, 0
5, 214560, Note_on_c, 0, 59, 69
5, 215040, Note_on_c, 0, 59, 0
5, 215040, Note_on_c, 0, 59, 75
5, 215520, Note_on_c, 0, 59, 0
5, 215520, Note_on_c, 0, 59, 68
5, 216000, Note_on_c, 0, 59, 0
5, 216000, Note_on_c, 0, 59, 73
5, 216480, Note_on_c, 0, 59, 0
5, 216480, Note_on_c, 0, 59, 67
5, 216960, Note_on_c, 0, 59, 0
5, 216960, Note_on_c, 0, 59, 74
5, 217440, Note_on_c, 0, 59, 0
5, 217440, Note_on_c, 0, 59, 66
5, 217920, Note_on_c, 0, 59, 0
5, 218400, Note_on_c, 0, 59, 65
5, 218880, Note_on_c, 0, 59, 0
5, 218880, Note_on_c, 0, 59, 71
5, 219360, Note_on_c, 0, 59, 0
5, 219360, Note_on_c, 0, 59, 64
5, 219840, Note_on_c, 0, 59, 0
5, 219840, Note_on_c, 0, 59, 69
5, 220320, Note_on_c, 0, 59, 0
5, 220320, Note_on_c, 0, 59, 63
5, 220800, Note_on_c, 0, 59, 0
5, 220800, Note_on_c, 0, 59, 70
5, 221280, Note_on_c, 0, 59, 0
5, 221280, Note_on_c, 0, 59, 62
5, 221760, Note_on_c, 0, 59, 0
5, 222240, Note_on_c, 0, 59, 61
5, 222720, Note_on_c, 0, 59, 0
5, 222720, Note_on_c, 0, 59, 63
5, 223200, Note_on_c, 0, 59, 0
5, 223200, Note_on_c, 0, 58, 65
5, 223680, Note_on_c, 0, 58, 0
5, 223680, Note_on_c, 0, 58, 68
5, 224160, Note_on_c, 0, 58, 0
5, 224160, Note_on_c, 0, 58, 70
5, 224640, Note_on_c, 0, 58, 0
5, 224640, Note_on_c, 0, 57, 73
5, 225120, Note_on_c, 0, 57, 0
5, 225120, Note_on_c, 0, 57, 75
5, 225600, Note_on_c, 0, 57, 0
5, 225600, Note_on_c, 0, 57, 78
5, 226080, Note_on_c, 0, 57, 0
5, 226080, Note_on_c, 0, 57, 80
5, 226560, Note_on_c, 0, 57, 0
5, 226560, Note_on_c, 0, 38, 83
5, 227040, Note_on_c, 0, 38, 0
5, 227040, Note_on_c, 0, 38, 85
5, 227520, Note_on_c, 0, 38, 0
5, 227520, Note_on_c, 0, 38, 88
5, 228000, Note_on_c, 0, 38, 0
5, 228000, Note_on_c, 0, 38, 90
5, 228480, Note_on_c, 0, 38, 0
5, 228480, Note_on_c, 0, 49, 91
5, 230400, Note_on_c, 0, 49, 0
5, 230400, Note_on_c, 0, 42, 94
5, 230880, Note_on_c, 0, 42, 0
5, 231360, Note_on_c, 0, 66, 58
5, 231520, Note_on_c, 0, 66, 0
5, 231520, Note_on_c, 0, 68, 58
5, 231680, Note_on_c, 0, 68, 0
5, 231680, Note_on_c, 0, 70, 59
5, 231840, Note_on_c, 0, 70, 0
5, 231840, Note_on_c, 0, 71, 59
5, 232000, Note_on_c, 0, 71, 0
5, 232000, Note_on_c, 0, 66, 60
5, 232160, Note_on_c, 0, 66, 0
5, 232160, Note_on_c, 0, 71, 60
5, 232320, Note_on_c, 0, 71, 0
5, 232320, Note_on_c, 0, 70, 61
5, 232320, Note_on_c, 0, 66, 61
5, 232800, Note_on_c, 0, 66, 0
5, 232800, Note_on_c, 0, 70, 0
5, 233280, Note_on_c, 0, 54, 65
5, 233440, Note_on_c, 0, 54, 0
5, 233440, Note_on_c, 0, 56, 64
5, 233600, Note_on_c, 0, 56, 0
5, 233600, Note_on_c, 0, 58, 63
5, 233760, Note_on_c, 0, 58, 0
5, 233760, Note_on_c, 0, 49, 61
5, 233760, Note_on_c, 0, 59, 61
5, 233920, Note_on_c, 0, 59, 0
5, 233920, Note_on_c, 0, 56, 60
5, 234080, Note_on_c, 0, 56, 0
5, 234080, Note_on_c, 0, 61, 59
5, 234240, Note_on_c, 0, 61, 0
5, 234240, Note_on_c, 0, 49, 0
5, 234240, Note_on_c, 0, 54, 58
5, 234240, Note_on_c, 0, 58, 58
5, 234720, Note_on_c, 0, 58, 0
5, 234720, Note_on_c, 0, 54, 0
5, 235200, Note_on_c, 0, 66, 62
5, 235360, Note_on_c, 0, 66, 0
5, 235360, Note_on_c, 0, 68, 63
5, 235520, Note_on_c, 0, 68, 0
5, 235520, Note_on_c, 0, 70, 64
5, 235680, Note_on_c, 0, 70, 0
5, 235680, Note_on_c, 0, 71, 65
5, 235840, Note_on_c, 0, 71, 0
5, 235840, Note_on_c, 0, 66, 66
5, 236000, Note_on_c, 0, 66, 0
5, 236000, Note_on_c, 0, 71, 67
5, 236160, Note_on_c, 0, 71, 0
5, 236160, Note_on_c, 0, 70, 68
5, 236160, Note_on_c, 0, 66, 68
5, 236640, Note_on_c, 0, 66, 0
5, 236640, Note_on_c, 0, 70, 0
5, 237120, Note_on_c, 0, 63, 90
5, 237600, Note_on_c, 0, 63, 0
5, 237600, Note_on_c, 0, 56, 87
5, 238080, Note_on_c, 0, 56, 0
5, 238080, Note_on_c, 0, 61, 81
5, 239040, Note_on_c, 0, 61, 0
5, 239040, Note_on_c, 0, 49, 79
5, 240000, Note_on_c, 0, 49, 0
5, 240000, Note_on_c, 0, 54, 82
5, 240480, Note_on_c, 0, 54, 0
5, 240960, Note_on_c, 0, 63, 94
5, 241440, Note_on_c, 0, 63, 0
5, 241440, Note_on_c, 0, 68, 91
5, 241920, Note_on_c, 0, 68, 0
5, 241920, Note_on_c, 0, 61, 84
5, 242880, Note_on_c, 0, 61, 0
5, 242880, Note_on_c, 0, 49, 75
5, 243840, Note_on_c, 0, 49, 0
5, 243840, Note_on_c, 0, 54, 74
5, 244320, Note_on_c, 0, 54, 0
5, 244800, Note_on_c, 0, 37, 72
5, 245760, Note_on_c, 0, 37, 0
5, 245760, Note_on_c, 0, 42, 70
5, 246240, Note_on_c, 0, 42, 0
5, 246720, Note_on_c, 0, 47, 72
5, 246840, Note_on_c, 0, 47, 0
5, 246840, Note_on_c, 0, 49, 71
5, 246960, Note_on_c, 0, 49, 0
5, 246960, Note_on_c, 0, 47, 71
5, 247080, Note_on_c, 0, 47, 0
5, 247080, Note_on_c, 0, 46, 71
5, 247200, Note_on_c, 0, 46, 0
5, 247200, Note_on_c, 0, 47, 71
5, 247320, Note_on_c, 0, 47, 0
5, 247320, Note_on_c, 0, 49, 70
5, 247440, Note_on_c, 0, 49, 0
5, 247440, Note_on_c, 0, 51, 70
5, 247560, Note_on_c, 0, 51, 0
5, 247560, Note_on_c, 0, 53, 70
5, 247680, Note_on_c, 0, 53, 0
5, 247680, Note_on_c, 0, 54, 69
5, 247800, Note_on_c, 0, 54, 0
5, 247800, Note_on_c, 0, 56, 69
5, 247920, Note_on_c, 0, 56, 0
5, 247920, Note_on_c, 0, 58, 69
5, 248040, Note_on_c, 0, 58, 0
5, 248040, Note_on_c, 0, 59, 69
5, 248160, Note_on_c, 0, 59, 0
5, 248160, Note_on_c, 0, 61, 68
5, 248280, Note_on_c, 0, 61, 0
5, 248280, Note_on_c, 0, 59, 68
5, 248400, Note_on_c, 0, 59, 0
5, 248400, Note_on_c, 0, 58, 68
5, 248520, Note_on_c, 0, 58, 0
5, 248520, Note_on_c, 0, 56, 68
5, 248640, Note_on_c, 0, 56, 0
5, 248640, Note_on_c, 0, 54, 67
5, 248760, Note_on_c, 0, 54, 0
5, 248760, Note_on_c, 0, 53, 67
5, 248880, Note_on_c, 0, 53, 0
5, 248880, Note_on_c, 0, 51, 67
5, 249000, Note_on_c, 0, 51, 0
5, 249000, Note_on_c, 0, 49, 67
5, 249120, Note_on_c, 0, 49, 0
5, 249120, Note_on_c, 0, 51, 66
5, 249240, Note_on_c, 0, 51, 0
5, 249240, Note_on_c, 0, 49, 66
5, 249360, Note_on_c, 0, 49, 0
5, 249360, Note_on_c, 0, 51, 66
5, 249480, Note_on_c, 0, 51, 0
5, 249480, Note_on_c, 0, 53, 65
5, 249600, Note_on_c, 0, 53, 0
5, 249600, Note_on_c, 0, 54, 65
5, 249720, Note_on_c, 0, 54, 0
5, 249720, Note_on_c, 0, 56, 65
5, 249840, Note_on_c, 0, 56, 0
5, 249840, Note_on_c, 0, 58, 65
5, 249960, Note_on_c, 0, 58, 0
5, 249960, Note_on_c, 0, 59, 64
5, 250080, Note_on_c, 0, 59, 0
5, 250080, Note_on_c, 0, 61, 64
5, 250200, Note_on_c, 0, 61, 0
5, 250200, Note_on_c, 0, 63, 64
5, 250320, Note_on_c, 0, 63, 0
5, 250320, Note_on_c, 0, 61, 64
5, 250440, Note_on_c, 0, 61, 0
5, 250440, Note_on_c, 0, 59, 63
5, 250560, Note_on_c, 0, 59, 0
5, 250560, Note_on_c, 0, 58, 63
5, 250680, Note_on_c, 0, 58, 0
5, 250680, Note_on_c, 0, 59, 63
5, 250800, Note_on_c, 0, 59, 0
5, 250800, Note_on_c, 0, 61, 63
5, 250920, Note_on_c, 0, 61, 0
5, 250920, Note_on_c, 0, 59, 62
5, 251040, Note_on_c, 0, 59, 0
5, 251040, Note_on_c, 0, 58, 62
5, 251160, Note_on_c, 0, 58, 0
5, 251160, Note_on_c, 0, 59, 62
5, 251280, Note_on_c, 0, 59, 0
5, 251280, Note_on_c, 0, 58, 61
5, 251400, Note_on_c, 0, 58, 0
5, 251400, Note_on_c, 0, 56, 61
5, 251520, Note_on_c, 0, 56, 0
5, 251520, Note_on_c, 0, 54, 61
5, 251640, Note_on_c, 0, 54, 0
5, 251640, Note_on_c, 0, 56, 61
5, 251760, Note_on_c, 0, 56, 0
5, 251760, Note_on_c, 0, 58, 60
5, 251880, Note_on_c, 0, 58, 0
5, 251880, Note_on_c, 0, 59, 60
5, 252000, Note_on_c, 0, 59, 0
5, 252000, Note_on_c, 0, 61, 60
5, 252120, Note_on_c, 0, 61, 0
5, 252120, Note_on_c, 0, 59, 60
5, 252240, Note_on_c, 0, 59, 0
5, 252240, Note_on_c, 0, 58, 59
5, 252360, Note_on_c, 0, 58, 0
5, 252360, Note_on_c, 0, 56, 59
5, 252480, Note_on_c, 0, 56, 0
5, 252480, Note_on_c, 0, 54, 59
5, 252600, Note_on_c, 0, 54, 0
5, 252600, Note_on_c, 0, 58, 59
5, 252720, Note_on_c, 0, 58, 0
5, 252720, Note_on_c, 0, 56, 58
5, 252840, Note_on_c, 0, 56, 0
5, 252840, Note_on_c, 0, 54, 58
5, 252960, Note_on_c, 0, 54, 0
5, 252960, Note_on_c, 0, 52, 58
5, 253080, Note_on_c, 0, 52, 0
5, 253080, Note_on_c, 0, 51, 57
5, 253200, Note_on_c, 0, 51, 0
5, 253200, Note_on_c, 0, 49, 57
5, 253320, Note_on_c, 0, 49, 0
5, 253320, Note_on_c, 0, 47, 57
5, 253440, Note_on_c, 0, 47, 0
5, 253440, Note_on_c, 0, 46, 57
5, 253560, Note_on_c, 0, 46, 0
5, 253560, Note_on_c, 0, 47, 60
5, 253680, Note_on_c, 0, 47, 0
5, 253680, Note_on_c, 0, 49, 60
5, 253800, Note_on_c, 0, 49, 0
5, 253800, Note_on_c, 0, 47, 61
5, 253920, Note_on_c, 0, 47, 0
5, 253920, Note_on_c, 0, 46, 62
5, 254040, Note_on_c, 0, 46, 0
5, 254040, Note_on_c, 0, 49, 62
5, 254160, Note_on_c, 0, 49, 0
5, 254160, Note_on_c, 0, 52, 63
5, 254280, Note_on_c, 0, 52, 0
5, 254280, Note_on_c, 0, 54, 64
5, 254400, Note_on_c, 0, 54, 0
5, 254400, Note_on_c, 0, 55, 65
5, 254520, Note_on_c, 0, 55, 0
5, 254520, Note_on_c, 0, 52, 65
5, 254640, Note_on_c, 0, 52, 0
5, 254640, Note_on_c, 0, 49, 66
5, 254760, Note_on_c, 0, 49, 0
5, 254760, Note_on_c, 0, 47, 67
5, 254880, Note_on_c, 0, 47, 0
5, 254880, Note_on_c, 0, 46, 67
5, 255000, Note_on_c, 0, 46, 0
5, 255000, Note_on_c, 0, 49, 68
5, 255120, Note_on_c, 0, 49, 0
5, 255120, Note_on_c, 0, 52, 69
5, 255240, Note_on_c, 0, 52, 0
5, 255240, Note_on_c, 0, 54, 70
5, 255360, Note_on_c, 0, 54, 0
5, 255360, Note_on_c, 0, 55, 70
5, 255480, Note_on_c, 0, 55, 0
5, 255480, Note_on_c, 0, 52, 71
5, 255600, Note_on_c, 0, 52, 0
5, 255600, Note_on_c, 0, 49, 72
5, 255720, Note_on_c, 0, 49, 0
5, 255720, Note_on_c, 0, 47, 72
5, 255840, Note_on_c, 0, 47, 0
5, 255840, Note_on_c, 0, 46, 73
5, 255960, Note_on_c, 0, 46, 0
5, 255960, Note_on_c, 0, 49, 74
5, 256080, Note_on_c, 0, 49, 0
5, 256080, Note_on_c, 0, 54, 75
5, 256200, Note_on_c, 0, 54, 0
5, 256200, Note_on_c, 0, 58, 75
5, 256320, Note_on_c, 0, 58, 0
5, 256320, Note_on_c, 0, 47, 76
5, 256440, Note_on_c, 0, 47, 0
5, 256440, Note_on_c, 0, 50, 77
5, 256560, Note_on_c, 0, 50, 0
5, 256560, Note_on_c, 0, 54, 77
5, 256680, Note_on_c, 0, 54, 0
5, 256680, Note_on_c, 0, 59, 78
5, 256800, Note_on_c, 0, 59, 0
5, 256800, Note_on_c, 0, 50, 79
5, 256920, Note_on_c, 0, 50, 0
5, 256920, Note_on_c, 0, 54, 80
5, 257040, Note_on_c, 0, 54, 0
5, 257040, Note_on_c, 0, 59, 80
5, 257160, Note_on_c, 0, 59, 0
5, 257160, Note_on_c, 0, 62, 81
5, 257280, Note_on_c, 0, 62, 0
5, 257280, Note_on_c, 0, 53, 82
5, 257400, Note_on_c, 0, 53, 0
5, 257400, Note_on_c, 0, 56, 82
5, 257520, Note_on_c, 0, 56, 0
5, 257520, Note_on_c, 0, 59, 83
5, 257640, Note_on_c, 0, 59, 0
5, 257640, Note_on_c, 0, 62, 84
5, 257760, Note_on_c, 0, 62, 0
5, 257760, Note_on_c, 0, 65, 85
5, 257880, Note_on_c, 0, 65, 0
5, 257880, Note_on_c, 0, 68, 85
5, 258000, Note_on_c, 0, 68, 0
5, 258000, Note_on_c, 0, 71, 86
5, 258120, Note_on_c, 0, 71, 0
5, 258120, Note_on_c, 0, 68, 87
5, 258240, Note_on_c, 0, 68, 0
5, 258240, Note_on_c, 0, 65, 92
5, 258360, Note_on_c, 0, 65, 0
5, 258360, Note_on_c, 0, 68, 89
5, 258480, Note_on_c, 0, 68, 0
5, 258480, Note_on_c, 0, 71, 85
5, 258600, Note_on_c, 0, 71, 0
5, 258600, Note_on_c, 0, 68, 82
5, 258720, Note_on_c, 0, 68, 0
5, 258720, Note_on_c, 0, 65, 78
5, 258840, Note_on_c, 0, 65, 0
5, 258840, Note_on_c, 0, 68, 75
5, 258960, Note_on_c, 0, 68, 0
5, 258960, Note_on_c, 0, 71, 71
5, 259080, Note_on_c, 0, 71, 0
5, 259080, Note_on_c, 0, 68, 68
5, 259200, Note_on_c, 0, 68, 0
5, 259200, Note_on_c, 0, 65, 64
5, 259320, Note_on_c, 0, 65, 0
5, 259320, Note_on_c, 0, 71, 63
5, 259440, Note_on_c, 0, 71, 0
5, 259440, Note_on_c, 0, 70, 64
5, 259560, Note_on_c, 0, 70, 0
5, 259560, Note_on_c, 0, 68, 65
5, 259680, Note_on_c, 0, 68, 0
5, 259680, Note_on_c, 0, 73, 66
5, 259800, Note_on_c, 0, 73, 0
5, 259800, Note_on_c, 0, 71, 67
5, 259920, Note_on_c, 0, 71, 0
5, 259920, Note_on_c, 0, 70, 68
5, 260040, Note_on_c, 0, 70, 0
5, 260040, Note_on_c, 0, 68, 68
5, 260160, Note_on_c, 0, 68, 0
5, 260160, Note_on_c, 0, 66, 69
5, 260280, Note_on_c, 0, 66, 0
5, 260280, Note_on_c, 0, 73, 70
5, 260400, Note_on_c, 0, 73, 0
5, 260400, Note_on_c, 0, 71, 71
5, 260520, Note_on_c, 0, 71, 0
5, 260520, Note_on_c, 0, 70, 72
5, 260640, Note_on_c, 0, 70, 0
5, 260640, Note_on_c, 0, 78, 73
5, 260760, Note_on_c, 0, 78, 0
5, 260760, Note_on_c, 0, 77, 73
5, 260880, Note_on_c, 0, 77, 0
5, 260880, Note_on_c, 0, 75, 74
5, 261000, Note_on_c, 0, 75, 0
5, 261000, Note_on_c, 0, 73, 75
5, 261120, Note_on_c, 0, 73, 0
5, 261120, Note_on_c, 0, 71, 76
5, 261240, Note_on_c, 0, 71, 0
5, 261240, Note_on_c, 0, 70, 77
5, 261360, Note_on_c, 0, 70, 0
5, 261360, Note_on_c, 0, 75, 78
5, 261480, Note_on_c, 0, 75, 0
5, 261480, Note_on_c, 0, 73, 78
5, 261600, Note_on_c, 0, 73, 0
5, 261600, Note_on_c, 0, 71, 79
5, 261720, Note_on_c, 0, 71, 0
5, 261720, Note_on_c, 0, 70, 80
5, 261840, Note_on_c, 0, 70, 0
5, 261840, Note_on_c, 0, 68, 81
5, 261960, Note_on_c, 0, 68, 0
5, 261960, Note_on_c, 0, 66, 82
5, 262080, Note_on_c, 0, 66, 0
5, 262080, Note_on_c, 0, 65, 83
5, 262200, Note_on_c, 0, 65, 0
5, 262200, Note_on_c, 0, 66, 84
5, 262320, Note_on_c, 0, 66, 0
5, 262320, Note_on_c, 0, 68, 84
5, 262440, Note_on_c, 0, 68, 0
5, 262440, Note_on_c, 0, 66, 85
5, 262560, Note_on_c, 0, 66, 0
5, 262560, Note_on_c, 0, 60, 86
5, 262680, Note_on_c, 0, 60, 0
5, 262680, Note_on_c, 0, 61, 87
5, 262800, Note_on_c, 0, 61, 0
5, 262800, Note_on_c, 0, 63, 88
5, 262920, Note_on_c, 0, 63, 0
5, 262920, Note_on_c, 0, 61, 89
5, 263040, Note_on_c, 0, 61, 0
5, 263040, Note_on_c, 0, 57, 89
5, 263160, Note_on_c, 0, 57, 0
5, 263160, Note_on_c, 0, 58, 90
5, 263280, Note_on_c, 0, 58, 0
5, 263280, Note_on_c, 0, 59, 91
5, 263400, Note_on_c, 0, 59, 0
5, 263400, Note_on_c, 0, 58, 92
5, 263520, Note_on_c, 0, 58, 0
5, 263520, Note_on_c, 0, 53, 93
5, 263640, Note_on_c, 0, 53, 0
5, 263640, Note_on_c, 0, 54, 94
5, 263760, Note_on_c, 0, 54, 0
5, 263760, Note_on_c, 0, 56, 95
5, 263880, Note_on_c, 0, 56, 0
5, 263880, Note_on_c, 0, 54, 95
5, 264000, Note_on_c, 0, 54, 0
5, 264000, Note_on_c, 0, 48, 96
5, 264120, Note_on_c, 0, 48, 0
5, 264120, Note_on_c, 0, 49, 97
5, 264240, Note_on_c, 0, 49, 0
5, 264240, Note_on_c, 0, 51, 98
5, 264360, Note_on_c, 0, 51, 0
5, 264360, Note_on_c, 0, 49, 99
5, 264480, Note_on_c, 0, 49, 0
5, 264480, Note_on_c, 0, 45, 100
5, 264600, Note_on_c, 0, 45, 0
5, 264600, Note_on_c, 0, 46, 100
5, 264720, Note_on_c, 0, 46, 0
5, 264720, Note_on_c, 0, 47, 101
5, 264840, Note_on_c, 0, 47, 0
5, 264840, Note_on_c, 0, 46, 102
5, 264960, Note_on_c, 0, 46, 0
5, 264960, Note_on_c, 0, 42, 103
5, 265440, Note_on_c, 0, 42, 0
5, 266880, Control_c, 0, 7, 122
5, 266880, Pitch_bend_c, 0, 8192
5, 266880, Control_c, 0, 1, 0
5, 266880, Control_c, 0, 64, 0
5, 266880, Control_c, 0, 93, 28
5, 266880, Control_c, 0, 91, 91
5, 266880, Control_c, 0, 10, 55
5, 266880, Control_c, 0, 0, 0
5, 266880, Control_c, 0, 32, 0
5, 266880, Program_c, 0, 0
5, 267840, Note_on_c, 0, 50, 94
5, 268560, Note_on_c, 0, 50, 0
5, 268560, Note_on_c, 0, 49, 91
5, 268716, Note_on_c, 0, 49, 0
5, 268800, Note_on_c, 0, 47, 85
5, 268956, Note_on_c, 0, 47, 0
5, 269520, Note_on_c, 0, 46, 63
5, 269676, Note_on_c, 0, 46, 0
5, 269760, Note_on_c, 0, 44, 67
5, 270120, Note_on_c, 0, 44, 0
5, 270120, Note_on_c, 0, 46, 61
5, 270198, Note_on_c, 0, 46, 0
5, 270240, Note_on_c, 0, 47, 59
5, 270396, Note_on_c, 0, 47, 0
5, 270480, Note_on_c, 0, 48, 55
5, 270636, Note_on_c, 0, 48, 0
5, 270720, Note_on_c, 0, 49, 52
5, 270980, Note_on_c, 0, 49, 0
5, 271680, Note_on_c, 0, 64, 96
5, 272400, Note_on_c, 0, 64, 0
5, 272400, Note_on_c, 0, 63, 91
5, 272556, Note_on_c, 0, 63, 0
5, 272640, Note_on_c, 0, 61, 85
5, 272874, Note_on_c, 0, 61, 0
5, 273360, Note_on_c, 0, 59, 65
5, 273516, Note_on_c, 0, 59, 0
5, 273600, Note_on_c, 0, 52, 69
5, 274080, Note_on_c, 0, 52, 0
5, 274080, Note_on_c, 0, 54, 60
5, 274236, Note_on_c, 0, 54, 0
5, 274320, Note_on_c, 0, 54, 56
5, 274476, Note_on_c, 0, 54, 0
5, 274560, Note_on_c, 0, 59, 52
5, 274860, Note_on_c, 0, 59, 0
5, 275520, Note_on_c, 0, 63, 62
5, 276240, Note_on_c, 0, 63, 0
5, 276240, Note_on_c, 0, 61, 59
5, 276396, Note_on_c, 0, 61, 0
5, 276480, Note_on_c, 0, 59, 56
5, 276840, Note_on_c, 0, 59, 0
5, 277200, Note_on_c, 0, 58, 53
5, 277356, Note_on_c, 0, 58, 0
5, 277440, Note_on_c, 0, 56, 56
5, 277800, Note_on_c, 0, 56, 0
5, 277800, Note_on_c, 0, 58, 51
5, 277878, Note_on_c, 0, 58, 0
5, 277920, Note_on_c, 0, 59, 50
5, 278076, Note_on_c, 0, 59, 0
5, 278160, Note_on_c, 0, 49, 49
5, 278316, Note_on_c, 0, 49, 0
5, 278400, Note_on_c, 0, 54, 51
5, 278556, Note_on_c, 0, 54, 0
5, 278640, Note_on_c, 0, 61, 52
5, 278880, Note_on_c, 0, 61, 0
5, 278880, Note_on_c, 0, 63, 54
5, 279120, Note_on_c, 0, 63, 0
5, 279120, Note_on_c, 0, 61, 56
5, 279360, Note_on_c, 0, 61, 0
5, 279360, Note_on_c, 0, 59, 58
5, 279600, Note_on_c, 0, 59, 0
5, 279600, Note_on_c, 0, 58, 60
5, 279840, Note_on_c, 0, 58, 0
5, 279840, Note_on_c, 0, 56, 62
5, 280080, Note_on_c, 0, 56, 0
5, 280080, Note_on_c, 0, 49, 64
5, 280320, Note_on_c, 0, 49, 0
5, 280320, Note_on_c, 0, 54, 66
5, 280560, Note_on_c, 0, 54, 0
5, 280560, Note_on_c, 0, 49, 68
5, 280800, Note_on_c, 0, 49, 0
5, 280800, Note_on_c, 0, 46, 70
5, 281040, Note_on_c, 0, 46, 0
5, 281040, Note_on_c, 0, 49, 72
5, 281280, Note_on_c, 0, 49, 0
5, 281280, Note_on_c, 0, 42, 74
5, 281520, Note_on_c, 0, 42, 0
5, 281520, Note_on_c, 0, 49, 75
5, 281760, Note_on_c, 0, 49, 0
5, 281760, Note_on_c, 0, 37, 77
5, 282000, Note_on_c, 0, 37, 0
5, 282000, Note_on_c, 0, 49, 79
5, 282240, Note_on_c, 0, 49, 0
5, 282240, Note_on_c, 0, 42, 61
5, 282396, Note_on_c, 0, 42, 0
5, 282480, Note_on_c, 0, 61, 62
5, 282720, Note_on_c, 0, 61, 0
5, 282720, Note_on_c, 0, 63, 64
5, 282960, Note_on_c, 0, 63, 0
5, 282960, Note_on_c, 0, 61, 66
5, 283200, Note_on_c, 0, 61, 0
5, 283200, Note_on_c, 0, 59, 67
5, 283440, Note_on_c, 0, 59, 0
5, 283440, Note_on_c, 0, 58, 69
5, 283680, Note_on_c, 0, 58, 0
5, 283680, Note_on_c, 0, 56, 71
5, 283920, Note_on_c, 0, 56, 0
5, 283920, Note_on_c, 0, 49, 73
5, 284160, Note_on_c, 0, 49, 0
5, 284160, Note_on_c, 0, 54, 74
5, 284400, Note_on_c, 0, 54, 0
5, 284400, Note_on_c, 0, 49, 76
5, 284640, Note_on_c, 0, 49, 0
5, 284640, Note_on_c, 0, 46, 78
5, 284880, Note_on_c, 0, 46, 0
5, 284880, Note_on_c, 0, 49, 79
5, 285120, Note_on_c, 0, 49, 0
5, 285120, Note_on_c, 0, 42, 81
5, 285360, Note_on_c, 0, 42, 0
5, 285360, Note_on_c, 0, 49, 83
5, 285600, Note_on_c, 0, 49, 0
5, 285600, Note_on_c, 0, 37, 85
5, 285840, Note_on_c, 0, 37, 0
5, 285840, Note_on_c, 0, 49, 86
5, 286080, Note_on_c, 0, 49, 0
5, 286080, Note_on_c, 0, 42, 88
5, 286320, Note_on_c, 0, 42, 0
5, 286320, Note_on_c, 0, 54, 90
5, 286560, Note_on_c, 0, 54, 0
5, 286560, Note_on_c, 0, 35, 91
5, 286800, Note_on_c, 0, 35, 0
5, 286800, Note_on_c, 0, 47, 93
5, 287040, Note_on_c, 0, 47, 0
5, 287040, Note_on_c, 0, 36, 95
5, 287280, Note_on_c, 0, 36, 0
5, 287280, Note_on_c, 0, 48, 97
5, 287520, Note_on_c, 0, 48, 0
5, 287520, Note_on_c, 0, 32, 98
5, 287760, Note_on_c, 0, 32, 0
5, 287760, Note_on_c, 0, 44, 100
5, 288000, Note_on_c, 0, 44, 0
5, 288000, Note_on_c, 0, 49, 102
5, 288000, Note_on_c, 0, 37, 102
5, 288240, Note_on_c, 0, 37, 0
5, 288240, Note_on_c, 0, 49, 0
5, 297600, Note_on_c, 0, 50, 94
5, 298320, Note_on_c, 0, 50, 0
5, 298320, Note_on_c, 0, 49, 92
5, 298476, Note_on_c, 0, 49, 0
5, 298560, Note_on_c, 0, 47, 87
5, 298716, Note_on_c, 0, 47, 0
5, 299280, Note_on_c, 0, 46, 62
5, 299436, Note_on_c, 0, 46, 0
5, 299520, Note_on_c, 0, 44, 68
5, 299880, Note_on_c, 0, 44, 0
5, 299880, Note_on_c, 0, 46, 64
5, 299958, Note_on_c, 0, 46, 0
5, 300000, Note_on_c, 0, 47, 62
5, 300156, Note_on_c, 0, 47, 0
5, 300240, Note_on_c, 0, 48, 59
5, 300396, Note_on_c, 0, 48, 0
5, 301440, Note_on_c, 0, 64, 94
5, 302160, Note_on_c, 0, 64, 0
5, 302160, Note_on_c, 0, 63, 92
5, 302316, Note_on_c, 0, 63, 0
5, 302400, Note_on_c, 0, 61, 90
5, 302634, Note_on_c, 0, 61, 0
5, 303120, Note_on_c, 0, 59, 62
5, 303276, Note_on_c, 0, 59, 0
5, 303360, Note_on_c, 0, 52, 66
5, 303840, Note_on_c, 0, 52, 0
5, 303840, Note_on_c, 0, 54, 61
5, 303996, Note_on_c, 0, 54, 0
5, 304080, Note_on_c, 0, 54, 58
5, 304236, Note_on_c, 0, 54, 0
5, 304320, Note_on_c, 0, 59, 56
5, 304680, Note_on_c, 0, 59, 0
5, 305280, Note_on_c, 0, 63, 56
5, 306000, Note_on_c, 0, 63, 0
5, 306000, Note_on_c, 0, 61, 54
5, 306156, Note_on_c, 0, 61, 0
5, 306240, Note_on_c, 0, 59, 50
5, 306600, Note_on_c, 0, 59, 0
5, 306960, Note_on_c, 0, 58, 46
5, 307116, Note_on_c, 0, 58, 0
5, 307200, Note_on_c, 0, 56, 50
5, 307560, Note_on_c, 0, 56, 0
5, 307560, Note_on_c, 0, 58, 48
5, 307638, Note_on_c, 0, 58, 0
5, 307680, Note_on_c, 0, 59, 48
5, 307836, Note_on_c, 0, 59, 0
5, 307920, Note_on_c, 0, 49, 46
5, 308076, Note_on_c, 0, 49, 0
5, 308160, Note_on_c, 0, 54, 50
5, 308316, Note_on_c, 0, 54, 0
5, 308400, Note_on_c, 0, 61, 52
5, 308640, Note_on_c, 0, 61, 0
5, 308640, Note_on_c, 0, 63, 54
5, 308880, Note_on_c, 0, 63, 0
5, 308880, Note_on_c, 0, 61, 56
5, 309120, Note_on_c, 0, 61, 0
5, 309120, Note_on_c, 0, 59, 58
5, 309360, Note_on_c, 0, 59, 0
5, 309360, Note_on_c, 0, 58, 60
5, 309600, Note_on_c, 0, 58, 0
5, 309600, Note_on_c, 0, 56, 62
5, 309840, Note_on_c, 0, 56, 0
5, 309840, Note_on_c, 0, 49, 64
5, 310080, Note_on_c, 0, 49, 0
5, 310080, Note_on_c, 0, 54, 66
5, 310320, Note_on_c, 0, 54, 0
5, 310320, Note_on_c, 0, 49, 68
5, 310560, Note_on_c, 0, 49, 0
5, 310560, Note_on_c, 0, 46, 70
5, 310800, Note_on_c, 0, 46, 0
5, 310800, Note_on_c, 0, 49, 72
5, 311040, Note_on_c, 0, 49, 0
5, 311040, Note_on_c, 0, 42, 74
5, 311280, Note_on_c, 0, 42, 0
5, 311280, Note_on_c, 0, 49, 76
5, 311520, Note_on_c, 0, 49, 0
5, 311520, Note_on_c, 0, 37, 78
5, 311760, Note_on_c, 0, 37, 0
5, 311760, Note_on_c, 0, 49, 80
5, 312000, Note_on_c, 0, 49, 0
5, 312000, Note_on_c, 0, 42, 82
5, 312156, Note_on_c, 0, 42, 0
5, 312240, Note_on_c, 0, 61, 71
5, 312480, Note_on_c, 0, 61, 0
5, 312480, Note_on_c, 0, 63, 73
5, 312720, Note_on_c, 0, 63, 0
5, 312720, Note_on_c, 0, 61, 75
5, 312960, Note_on_c, 0, 61, 0
5, 312960, Note_on_c, 0, 59, 76
5, 313200, Note_on_c, 0, 59, 0
5, 313200, Note_on_c, 0, 58, 78
5, 313440, Note_on_c, 0, 58, 0
5, 313440, Note_on_c, 0, 56, 80
5, 313680, Note_on_c, 0, 56, 0
5, 313680, Note_on_c, 0, 49, 81
5, 313920, Note_on_c, 0, 49, 0
5, 313920, Note_on_c, 0, 54, 83
5, 314160, Note_on_c, 0, 54, 0
5, 314160, Note_on_c, 0, 42, 85
5, 314400, Note_on_c, 0, 42, 0
5, 314400, Note_on_c, 0, 51, 86
5, 314640, Note_on_c, 0, 51, 0
5, 314640, Note_on_c, 0, 39, 88
5, 314880, Note_on_c, 0, 39, 0
5, 314880, Note_on_c, 0, 47, 90
5, 315120, Note_on_c, 0, 47, 0
5, 315120, Note_on_c, 0, 35, 91
5, 315360, Note_on_c, 0, 35, 0
5, 315360, Note_on_c, 0, 45, 93
5, 315600, Note_on_c, 0, 45, 0
5, 315600, Note_on_c, 0, 33, 95
5, 315840, Note_on_c, 0, 33, 0
5, 315840, Note_on_c, 0, 34, 96
5, 315840, Note_on_c, 0, 46, 96
5, 316080, Note_on_c, 0, 46, 0
5, 316080, Note_on_c, 0, 34, 0
5, 321600, Control_c, 0, 64, 127
5, 321840, Note_on_c, 0, 55, 110
5, 321996, Note_on_c, 0, 55, 0
5, 322080, Note_on_c, 0, 58, 108
5, 322236, Note_on_c, 0, 58, 0
5, 322320, Note_on_c, 0, 63, 106
5, 322476, Note_on_c, 0, 63, 0
5, 322560, Note_on_c, 0, 67, 104
5, 322716, Note_on_c, 0, 67, 0
5, 322800, Note_on_c, 0, 70, 102
5, 322956, Note_on_c, 0, 70, 0
5, 323040, Note_on_c, 0, 75, 100
5, 323196, Note_on_c, 0, 75, 0
5, 323280, Note_on_c, 0, 79, 98
5, 323436, Note_on_c, 0, 79, 0
5, 323520, Note_on_c, 0, 82, 95
5, 323676, Note_on_c, 0, 82, 0
5, 323760, Control_c, 0, 64, 0
5, 323760, Note_on_c, 0, 51, 70
5, 324000, Note_on_c, 0, 51, 0
5, 324000, Note_on_c, 0, 54, 68
5, 324240, Note_on_c, 0, 54, 0
5, 324240, Note_on_c, 0, 51, 67
5, 324480, Note_on_c, 0, 51, 0
5, 324480, Note_on_c, 0, 54, 66
5, 324720, Note_on_c, 0, 54, 0
5, 324720, Note_on_c, 0, 51, 64
5, 324960, Note_on_c, 0, 51, 0
5, 324960, Note_on_c, 0, 46, 63
5, 324960, Note_on_c, 0, 53, 63
5, 325200, Note_on_c, 0, 53, 0
5, 325200, Note_on_c, 0, 50, 62
5, 325440, Note_on_c, 0, 50, 0
5, 325440, Note_on_c, 0, 46, 0
5, 325440, Control_c, 0, 64, 127
5, 325680, Note_on_c, 0, 55, 102
5, 325836, Note_on_c, 0, 55, 0
5, 325920, Note_on_c, 0, 58, 100
5, 326076, Note_on_c, 0, 58, 0
5, 326160, Note_on_c, 0, 63, 99
5, 326316, Note_on_c, 0, 63, 0
5, 326400, Note_on_c, 0, 67, 97
5, 326556, Note_on_c, 0, 67, 0
5, 326640, Note_on_c, 0, 70, 95
5, 326796, Note_on_c, 0, 70, 0
5, 326880, Note_on_c, 0, 75, 93
5, 327036, Note_on_c, 0, 75, 0
5, 327120, Note_on_c, 0, 79, 91
5, 327276, Note_on_c, 0, 79, 0
5, 327360, Note_on_c, 0, 82, 89
5, 327516, Note_on_c, 0, 82, 0
5, 327600, Control_c, 0, 64, 0
5, 327600, Note_on_c, 0, 51, 66
5, 327840, Note_on_c, 0, 51, 0
5, 327840, Note_on_c, 0, 54, 65
5, 328080, Note_on_c, 0, 54, 0
5, 328080, Note_on_c, 0, 51, 63
5, 328320, Note_on_c, 0, 51, 0
5, 328320, Note_on_c, 0, 54, 62
5, 328560, Note_on_c, 0, 54, 0
5, 328560, Note_on_c, 0, 51, 61
5, 328800, Note_on_c, 0, 51, 0
5, 328800, Note_on_c, 0, 53, 60
5, 328800, Note_on_c, 0, 46, 60
5, 329040, Note_on_c, 0, 53, 0
5, 329040, Note_on_c, 0, 50, 59
5, 329280, Note_on_c, 0, 50, 0
5, 329280, Note_on_c, 0, 46, 0
5, 329280, Note_on_c, 0, 51, 59
5, 329472, Note_on_c, 0, 51, 0
5, 329520, Note_on_c, 0, 51, 62
5, 329760, Note_on_c, 0, 51, 0
5, 329760, Note_on_c, 0, 58, 65
5, 330000, Note_on_c, 0, 58, 0
5, 330000, Note_on_c, 0, 46, 68
5, 330240, Note_on_c, 0, 46, 0
5, 330240, Note_on_c, 0, 51, 71
5, 330480, Note_on_c, 0, 51, 0
5, 330480, Note_on_c, 0, 39, 74
5, 330720, Note_on_c, 0, 39, 0
5, 330720, Note_on_c, 0, 46, 77
5, 330960, Note_on_c, 0, 46, 0
5, 330960, Note_on_c, 0, 34, 80
5, 331200, Note_on_c, 0, 34, 0
5, 331200, Note_on_c, 0, 39, 83
5, 331356, Note_on_c, 0, 39, 0
5, 331440, Note_on_c, 0, 51, 86
5, 331680, Note_on_c, 0, 51, 0
5, 331680, Note_on_c, 0, 58, 89
5, 331920, Note_on_c, 0, 58, 0
5, 331920, Note_on_c, 0, 46, 91
5, 332160, Note_on_c, 0, 46, 0
5, 332160, Note_on_c, 0, 51, 94
5, 332400, Note_on_c, 0, 51, 0
5, 332400, Note_on_c, 0, 39, 97
5, 332640, Note_on_c, 0, 39, 0
5, 332640, Note_on_c, 0, 46, 100
5, 332880, Note_on_c, 0, 46, 0
5, 332880, Note_on_c, 0, 34, 103
5, 333120, Note_on_c, 0, 34, 0
5, 333120, Note_on_c, 0, 39, 75
5, 333276, Note_on_c, 0, 39, 0
5, 333360, Note_on_c, 0, 51, 78
5, 333600, Note_on_c, 0, 51, 0
5, 333600, Note_on_c, 0, 58, 80
5, 333840, Note_on_c, 0, 58, 0
5, 333840, Note_on_c, 0, 46, 83
5, 334080, Note_on_c, 0, 46, 0
5, 334080, Note_on_c, 0, 51, 85
5, 334320, Note_on_c, 0, 51, 0
5, 334320, Note_on_c, 0, 39, 88
5, 334560, Note_on_c, 0, 39, 0
5, 334560, Note_on_c, 0, 46, 90
5, 334800, Note_on_c, 0, 46, 0
5, 334800, Note_on_c, 0, 34, 93
5, 335040, Note_on_c, 0, 34, 0
5, 335040, Note_on_c, 0, 39, 95
5, 335196, Note_on_c, 0, 39, 0
5, 335280, Note_on_c, 0, 51, 98
5, 335520, Note_on_c, 0, 51, 0
5, 335520, Note_on_c, 0, 58, 100
5, 335760, Note_on_c, 0, 58, 0
5, 335760, Note_on_c, 0, 46, 103
5, 336000, Note_on_c, 0, 46, 0
5, 336000, Note_on_c, 0, 51, 105
5, 336240, Note_on_c, 0, 51, 0
5, 336240, Note_on_c, 0, 39, 108
5, 336480, Note_on_c, 0, 39, 0
5, 336480, Note_on_c, 0, 49, 110
5, 336720, Note_on_c, 0, 49, 0
5, 336720, Note_on_c, 0, 37, 113
5, 336960, Note_on_c, 0, 37, 0
5, 336960, Note_on_c, 0, 47, 115
5, 337200, Note_on_c, 0, 47, 0
5, 337200, Note_on_c, 0, 35, 118
5, 337440, Note_on_c, 0, 35, 0
5, 337440, Note_on_c, 0, 47, 120
5, 337680, Note_on_c, 0, 47, 0
5, 337680, Note_on_c, 0, 35, 123
5, 337920, Note_on_c, 0, 35, 0
5, 337920, Note_on_c, 0, 31, 126
5, 337920, Note_on_c, 0, 43, 126
5, 338280, Note_on_c, 0, 43, 0
5, 338280, Note_on_c, 0, 31, 0
5, 352320, Note_on_c, 0, 67, 94
5, 353040, Note_on_c, 0, 67, 0
5, 353040, Note_on_c, 0, 66, 90
5, 353196, Note_on_c, 0, 66, 0
5, 353280, Note_on_c, 0, 66, 87
5, 353559, Note_on_c, 0, 66, 0
5, 354000, Note_on_c, 0, 35, 62
5, 354156, Note_on_c, 0, 35, 0
5, 354240, Note_on_c, 0, 37, 66
5, 354600, Note_on_c, 0, 37, 0
5, 354600, Note_on_c, 0, 39, 62
5, 354678, Note_on_c, 0, 39, 0
5, 354720, Note_on_c, 0, 40, 61
5, 354876, Note_on_c, 0, 40, 0
5, 354960, Note_on_c, 0, 41, 59
5, 355116, Note_on_c, 0, 41, 0
5, 355200, Note_on_c, 0, 42, 56
5, 355560, Note_on_c, 0, 42, 0
5, 356160, Note_on_c, 0, 69, 94
5, 356880, Note_on_c, 0, 69, 0
5, 356880, Note_on_c, 0, 68, 91
5, 357036, Note_on_c, 0, 68, 0
5, 357120, Note_on_c, 0, 66, 87
5, 357276, Note_on_c, 0, 66, 0
5, 357840, Note_on_c, 0, 40, 62
5, 357996, Note_on_c, 0, 40, 0
5, 358080, Note_on_c, 0, 33, 66
5, 358440, Note_on_c, 0, 33, 0
5, 358440, Note_on_c, 0, 45, 62
5, 358518, Note_on_c, 0, 45, 0
5, 358560, Note_on_c, 0, 47, 61
5, 358716, Note_on_c, 0, 47, 0
5, 358800, Note_on_c, 0, 35, 59
5, 358956, Note_on_c, 0, 35, 0
5, 359040, Note_on_c, 0, 40, 56
5, 359400, Note_on_c, 0, 40, 0
5, 360000, Note_on_c, 0, 68, 94
5, 360720, Note_on_c, 0, 68, 0
5, 360720, Note_on_c, 0, 66, 91
5, 360876, Note_on_c, 0, 66, 0
5, 360960, Note_on_c, 0, 64, 87
5, 361116, Note_on_c, 0, 64, 0
5, 361680, Control_c, 0, 64, 0
5, 361680, Note_on_c, 0, 39, 62
5, 361836, Note_on_c, 0, 39, 0
5, 361920, Note_on_c, 0, 37, 68
5, 362280, Note_on_c, 0, 37, 0
5, 362280, Note_on_c, 0, 39, 64
5, 362358, Note_on_c, 0, 39, 0
5, 362400, Note_on_c, 0, 40, 63
5, 362556, Note_on_c, 0, 40, 0
5, 362640, Note_on_c, 0, 42, 61
5, 362796, Note_on_c, 0, 42, 0
5, 362880, Note_on_c, 0, 47, 59
5, 363036, Note_on_c, 0, 47, 0
5, 363120, Note_on_c, 0, 54, 61
5, 363360, Note_on_c, 0, 54, 0
5, 363360, Note_on_c, 0, 56, 63
5, 363600, Note_on_c, 0, 56, 0
5, 363600, Note_on_c, 0, 54, 65
5, 363840, Note_on_c, 0, 54, 0
5, 363840, Note_on_c, 0, 52, 67
5, 364080, Note_on_c, 0, 52, 0
5, 364080, Note_on_c, 0, 51, 69
5, 364320, Note_on_c, 0, 51, 0
5, 364320, Note_on_c, 0, 49, 71
5, 364560, Note_on_c, 0, 49, 0
5, 364560, Note_on_c, 0, 42, 73
5, 364800, Note_on_c, 0, 42, 0
5, 364800, Note_on_c, 0, 47, 75
5, 365040, Note_on_c, 0, 47, 0
5, 365040, Note_on_c, 0, 42, 77
5, 365280, Note_on_c, 0, 42, 0
5, 365280, Note_on_c, 0, 39, 79
5, 365520, Note_on_c, 0, 39, 0
5, 365520, Note_on_c, 0, 42, 81
5, 365760, Note_on_c, 0, 42, 0
5, 365760, Note_on_c, 0, 35, 83
5, 366000, Note_on_c, 0, 35, 0
5, 366000, Note_on_c, 0, 42, 85
5, 366240, Note_on_c, 0, 42, 0
5, 366240, Note_on_c, 0, 30, 87
5, 366480, Note_on_c, 0, 30, 0
5, 366480, Note_on_c, 0, 42, 89
5, 366720, Note_on_c, 0, 42, 0
5, 366720, Note_on_c, 0, 35, 73
5, 366876, Note_on_c, 0, 35, 0
5, 366960, Note_on_c, 0, 54, 74
5, 367200, Note_on_c, 0, 54, 0
5, 367200, Note_on_c, 0, 56, 76
5, 367440, Note_on_c, 0, 56, 0
5, 367440, Note_on_c, 0, 54, 77
5, 367680, Note_on_c, 0, 54, 0
5, 367680, Note_on_c, 0, 52, 79
5, 367920, Note_on_c, 0, 52, 0
5, 367920, Note_on_c, 0, 51, 80
5, 368160, Note_on_c, 0, 51, 0
5, 368160, Note_on_c, 0, 49, 82
5, 368400, Note_on_c, 0, 49, 0
5, 368400, Note_on_c, 0, 42, 83
5, 368640, Note_on_c, 0, 42, 0
5, 368640, Note_on_c, 0, 47, 85
5, 368880, Note_on_c, 0, 47, 0
5, 368880, Note_on_c, 0, 42, 86
5, 369120, Note_on_c, 0, 42, 0
5, 369120, Note_on_c, 0, 38, 87
5, 369360, Note_on_c, 0, 38, 0
5, 369360, Note_on_c, 0, 42, 89
5, 369600, Note_on_c, 0, 42, 0
5, 369600, Note_on_c, 0, 35, 90
5, 369840, Note_on_c, 0, 35, 0
5, 369840, Note_on_c, 0, 42, 92
5, 370080, Note_on_c, 0, 42, 0
5, 370080, Note_on_c, 0, 37, 93
5, 370320, Note_on_c, 0, 37, 0
5, 370320, Note_on_c, 0, 41, 95
5, 370560, Note_on_c, 0, 41, 0
5, 370560, Note_on_c, 0, 42, 96
5, 370800, Note_on_c, 0, 42, 0
5, 370800, Note_on_c, 0, 49, 98
5, 371040, Note_on_c, 0, 49, 0
5, 371040, Note_on_c, 0, 45, 99
5, 371280, Note_on_c, 0, 45, 0
5, 371280, Note_on_c, 0, 49, 101
5, 371520, Note_on_c, 0, 49, 0
5, 371520, Note_on_c, 0, 42, 102
5, 371760, Note_on_c, 0, 42, 0
5, 371760, Note_on_c, 0, 54, 104
5, 372000, Note_on_c, 0, 54, 0
5, 372000, Note_on_c, 0, 38, 105
5, 372240, Note_on_c, 0, 38, 0
5, 372240, Note_on_c, 0, 50, 107
5, 372480, Note_on_c, 0, 50, 0
5, 372480, Note_on_c, 0, 49, 108
5, 372480, Note_on_c, 0, 37, 108
5, 372720, Note_on_c, 0, 37, 0
5, 372720, Note_on_c, 0, 49, 0
5, 378240, Control_c, 0, 64, 127
5, 378240, Note_on_c, 0, 42, 104
5, 378480, Note_on_c, 0, 42, 0
5, 378480, Note_on_c, 0, 58, 103
5, 378720, Note_on_c, 0, 58, 0
5, 378720, Note_on_c, 0, 61, 101
5, 378960, Note_on_c, 0, 61, 0
5, 378960, Note_on_c, 0, 66, 99
5, 379200, Note_on_c, 0, 66, 0
5, 379200, Note_on_c, 0, 70, 98
5, 379440, Note_on_c, 0, 70, 0
5, 379440, Note_on_c, 0, 73, 96
5, 379680, Note_on_c, 0, 73, 0
5, 379680, Note_on_c, 0, 78, 94
5, 379920, Note_on_c, 0, 78, 0
5, 379920, Note_on_c, 0, 82, 93
5, 380160, Note_on_c, 0, 82, 0
5, 380160, Note_on_c, 0, 85, 91
5, 380400, Note_on_c, 0, 85, 0
5, 380400, Control_c, 0, 64, 0
5, 380400, Note_on_c, 0, 54, 78
5, 380640, Note_on_c, 0, 54, 0
5, 380640, Note_on_c, 0, 57, 77
5, 380880, Note_on_c, 0, 57, 0
5, 380880, Note_on_c, 0, 54, 76
5, 381120, Note_on_c, 0, 54, 0
5, 381120, Note_on_c, 0, 57, 75
5, 381360, Note_on_c, 0, 57, 0
5, 381360, Note_on_c, 0, 54, 74
5, 381600, Note_on_c, 0, 54, 0
5, 381600, Note_on_c, 0, 49, 73
5, 381600, Note_on_c, 0, 56, 73
5, 381840, Note_on_c, 0, 56, 0
5, 381840, Note_on_c, 0, 53, 72
5, 382020, Control_c, 0, 64, 0
5, 382080, Note_on_c, 0, 53, 0
5, 382080, Note_on_c, 0, 49, 0
5, 382080, Control_c, 0, 64, 127
5, 382080, Note_on_c, 0, 42, 71
5, 382320, Note_on_c, 0, 42, 0
5, 382320, Note_on_c, 0, 58, 94
5, 382560, Note_on_c, 0, 58, 0
5, 382560, Note_on_c, 0, 61, 92
5, 382800, Note_on_c, 0, 61, 0
5, 382800, Note_on_c, 0, 66, 90
5, 383040, Note_on_c, 0, 66, 0
5, 383040, Note_on_c, 0, 70, 88
5, 383280, Note_on_c, 0, 70, 0
5, 383280, Note_on_c, 0, 73, 86
5, 383520, Note_on_c, 0, 73, 0
5, 383520, Note_on_c, 0, 78, 84
5, 383760, Note_on_c, 0, 78, 0
5, 383760, Note_on_c, 0, 82, 83
5, 384000, Note_on_c, 0, 82, 0
5, 384000, Note_on_c, 0, 85, 81
5, 384240, Note_on_c, 0, 85, 0
5, 384240, Control_c, 0, 64, 0
5, 384240, Note_on_c, 0, 54, 67
5, 384480, Note_on_c, 0, 54, 0
5, 384480, Note_on_c, 0, 57, 66
5, 384720, Note_on_c, 0, 57, 0
5, 384720, Note_on_c, 0, 54, 64
5, 384960, Note_on_c, 0, 54, 0
5, 384960, Note_on_c, 0, 57, 63
5, 385200, Note_on_c, 0, 57, 0
5, 385200, Note_on_c, 0, 54, 61
5, 385440, Note_on_c, 0, 54, 0
5, 385440, Note_on_c, 0, 56, 60
5, 385440, Note_on_c, 0, 49, 60
5, 385680, Note_on_c, 0, 56, 0
5, 385680, Note_on_c, 0, 53, 58
5, 385920, Note_on_c, 0, 53, 0
5, 385920, Note_on_c, 0, 49, 0
5, 385920, Control_c, 0, 64, 0
5, 385920, Note_on_c, 0, 54, 58
5, 386076, Note_on_c, 0, 54, 0
5, 386160, Note_on_c, 0, 54, 61
5, 386400, Note_on_c, 0, 54, 0
5, 386400, Note_on_c, 0, 61, 63
5, 386640, Note_on_c, 0, 61, 0
5, 386640, Note_on_c, 0, 49, 66
5, 386880, Note_on_c, 0, 49, 0
5, 386880, Note_on_c, 0, 54, 69
5, 387120, Note_on_c, 0, 54, 0
5, 387120, Note_on_c, 0, 42, 71
5, 387360, Note_on_c, 0, 42, 0
5, 387360, Note_on_c, 0, 49, 74
5, 387600, Note_on_c, 0, 49, 0
5, 387600, Note_on_c, 0, 37, 77
5, 387840, Note_on_c, 0, 37, 0
5, 387840, Note_on_c, 0, 42, 79
5, 387996, Note_on_c, 0, 42, 0
5, 388080, Note_on_c, 0, 54, 82
5, 388320, Note_on_c, 0, 54, 0
5, 388320, Note_on_c, 0, 61, 85
5, 388560, Note_on_c, 0, 61, 0
5, 388560, Note_on_c, 0, 49, 87
5, 388800, Note_on_c, 0, 49, 0
5, 388800, Note_on_c, 0, 54, 90
5, 389040, Note_on_c, 0, 54, 0
5, 389040, Note_on_c, 0, 42, 93
5, 389280, Note_on_c, 0, 42, 0
5, 389280, Note_on_c, 0, 49, 95
5, 389520, Note_on_c, 0, 49, 0
5, 389520, Note_on_c, 0, 37, 98
5, 389760, Note_on_c, 0, 37, 0
5, 389760, Note_on_c, 0, 42, 79
5, 389916, Note_on_c, 0, 42, 0
5, 390000, Note_on_c, 0, 54, 81
5, 390240, Note_on_c, 0, 54, 0
5, 390240, Note_on_c, 0, 61, 84
5, 390480, Note_on_c, 0, 61, 0
5, 390480, Note_on_c, 0, 49, 86
5, 390720, Note_on_c, 0, 49, 0
5, 390720, Note_on_c, 0, 54, 88
5, 390960, Note_on_c, 0, 54, 0
5, 390960, Note_on_c, 0, 42, 90
5, 391200, Note_on_c, 0, 42, 0
5, 391200, Note_on_c, 0, 49, 93
5, 391440, Note_on_c, 0, 49, 0
5, 391440, Note_on_c, 0, 37, 95
5, 391680, Note_on_c, 0, 37, 0
5, 391680, Note_on_c, 0, 42, 97
5, 391836, Note_on_c, 0, 42, 0
5, 391920, Note_on_c, 0, 54, 100
5, 392160, Note_on_c, 0, 54, 0
5, 392160, Note_on_c, 0, 61, 102
5, 392400, Note_on_c, 0, 61, 0
5, 392400, Note_on_c, 0, 49, 104
5, 392640, Note_on_c, 0, 49, 0
5, 392640, Note_on_c, 0, 54, 107
5, 392880, Note_on_c, 0, 54, 0
5, 392880, Note_on_c, 0, 42, 109
5, 393120, Note_on_c, 0, 42, 0
5, 393120, Note_on_c, 0, 52, 111
5, 393360, Note_on_c, 0, 52, 0
5, 393360, Note_on_c, 0, 40, 114
5, 393600, Note_on_c, 0, 40, 0
5, 393600, Note_on_c, 0, 50, 116
5, 393840, Note_on_c, 0, 50, 0
5, 393840, Note_on_c, 0, 38, 118
5, 394080, Note_on_c, 0, 38, 0
5, 394080, Note_on_c, 0, 50, 121
5, 394320, Note_on_c, 0, 50, 0
5, 394320, Note_on_c, 0, 38, 123
5, 394560, Note_on_c, 0, 38, 0
5, 394560, Note_on_c, 0, 50, 123
5, 394560, Note_on_c, 0, 38, 123
5, 394920, Note_on_c, 0, 38, 0
5, 394920, Note_on_c, 0, 50, 0
5, 410880, Note_on_c, 0, 62, 94
5, 411600, Note_on_c, 0, 62, 0
5, 411600, Note_on_c, 0, 61, 92
5, 411756, Note_on_c, 0, 61, 0
5, 411840, Note_on_c, 0, 61, 88
5, 412032, Note_on_c, 0, 61, 0
5, 412560, Note_on_c, 0, 37, 62
5, 412800, Note_on_c, 0, 37, 0
5, 412800, Note_on_c, 0, 35, 64
5, 413160, Note_on_c, 0, 35, 0
5, 413160, Note_on_c, 0, 37, 61
5, 413280, Note_on_c, 0, 37, 0
5, 413280, Note_on_c, 0, 39, 61
5, 413520, Note_on_c, 0, 39, 0
5, 413520, Note_on_c, 0, 36, 59
5, 413760, Note_on_c, 0, 36, 0
5, 413760, Note_on_c, 0, 37, 57
5, 414240, Note_on_c, 0, 37, 0
5, 414720, Note_on_c, 0, 61, 94
5, 415440, Note_on_c, 0, 61, 0
5, 415440, Note_on_c, 0, 59, 92
5, 415596, Note_on_c, 0, 59, 0
5, 415680, Note_on_c, 0, 58, 91
5, 415872, Note_on_c, 0, 58, 0
5, 416400, Note_on_c, 0, 35, 62
5, 416640, Note_on_c, 0, 35, 0
5, 416640, Note_on_c, 0, 40, 64
5, 417000, Note_on_c, 0, 40, 0
5, 417000, Note_on_c, 0, 37, 62
5, 417120, Note_on_c, 0, 37, 0
5, 417120, Note_on_c, 0, 42, 62
5, 417360, Note_on_c, 0, 42, 0
5, 417360, Note_on_c, 0, 42, 61
5, 417600, Note_on_c, 0, 42, 0
5, 417600, Note_on_c, 0, 35, 59
5, 418080, Note_on_c, 0, 35, 0
5, 418560, Note_on_c, 0, 63, 60
5, 419280, Note_on_c, 0, 63, 0
5, 419280, Note_on_c, 0, 61, 58
5, 419520, Note_on_c, 0, 61, 0
5, 419520, Note_on_c, 0, 59, 55
5, 420000, Note_on_c, 0, 59, 0
5, 420240, Note_on_c, 0, 46, 55
5, 420480, Note_on_c, 0, 46, 0
5, 420480, Note_on_c, 0, 44, 58
5, 420840, Note_on_c, 0, 44, 0
5, 420840, Note_on_c, 0, 46, 55
5, 420960, Note_on_c, 0, 46, 0
5, 420960, Note_on_c, 0, 47, 54
5, 421200, Note_on_c, 0, 47, 0
5, 421200, Note_on_c, 0, 49, 52
5, 421440, Note_on_c, 0, 49, 0
5, 421440, Note_on_c, 0, 42, 56
5, 421800, Note_on_c, 0, 42, 0
5, 421800, Note_on_c, 0, 44, 52
5, 421920, Note_on_c, 0, 44, 0
5, 421920, Note_on_c, 0, 46, 51
5, 422160, Note_on_c, 0, 46, 0
5, 422160, Note_on_c, 0, 47, 48
5, 422400, Note_on_c, 0, 47, 0
5, 422400, Note_on_c, 0, 44, 52
5, 422760, Note_on_c, 0, 44, 0
5, 422760, Note_on_c, 0, 46, 49
5, 422880, Note_on_c, 0, 46, 0
5, 422880, Note_on_c, 0, 47, 48
5, 423120, Note_on_c, 0, 47, 0
5, 423120, Note_on_c, 0, 49, 47
5, 423360, Note_on_c, 0, 49, 0
5, 423360, Note_on_c, 0, 42, 56
5, 423720, Note_on_c, 0, 42, 0
5, 423720, Note_on_c, 0, 44, 53
5, 423840, Note_on_c, 0, 44, 0
5, 423840, Note_on_c, 0, 46, 52
5, 424080, Note_on_c, 0, 46, 0
5, 424080, Note_on_c, 0, 47, 53
5, 424320, Note_on_c, 0, 47, 0
5, 424320, Note_on_c, 0, 49, 58
5, 424680, Note_on_c, 0, 51, 57
5, 424695, Note_on_c, 0, 49, 0
5, 424800, Note_on_c, 0, 51, 0
5, 424800, Note_on_c, 0, 52, 57
5, 425040, Note_on_c, 0, 52, 0
5, 425040, Note_on_c, 0, 54, 57
5, 425280, Note_on_c, 0, 54, 0
5, 425280, Note_on_c, 0, 56, 66
5, 425640, Note_on_c, 0, 56, 0
5, 425640, Note_on_c, 0, 58, 61
5, 425760, Note_on_c, 0, 58, 0
5, 425760, Note_on_c, 0, 59, 60
5, 426000, Note_on_c, 0, 59, 0
5, 426000, Note_on_c, 0, 61, 64
5, 426240, Note_on_c, 0, 61, 0
5, 426240, Note_on_c, 0, 63, 72
5, 426600, Note_on_c, 0, 63, 0
5, 426600, Note_on_c, 0, 64, 69
5, 426720, Note_on_c, 0, 64, 0
5, 426720, Note_on_c, 0, 66, 68
5, 426960, Note_on_c, 0, 66, 0
5, 426960, Note_on_c, 0, 71, 69
5, 427200, Note_on_c, 0, 71, 0
5, 427200, Note_on_c, 0, 65, 80
5, 427560, Note_on_c, 0, 65, 0
5, 427560, Note_on_c, 0, 66, 76
5, 427680, Note_on_c, 0, 66, 0
5, 427680, Note_on_c, 0, 68, 75
5, 427920, Note_on_c, 0, 68, 0
5, 427920, Note_on_c, 0, 73, 84
5, 428160, Note_on_c, 0, 73, 0
5, 428160, Note_on_c, 0, 65, 83
5, 428520, Note_on_c, 0, 65, 0
5, 428520, Note_on_c, 0, 66, 80
5, 428640, Note_on_c, 0, 66, 0
5, 428640, Note_on_c, 0, 68, 78
5, 428880, Note_on_c, 0, 68, 0
5, 428880, Note_on_c, 0, 73, 89
5, 429120, Note_on_c, 0, 73, 0
5, 429120, Note_on_c, 0, 66, 88
5, 429480, Note_on_c, 0, 66, 0
5, 429480, Note_on_c, 0, 68, 85
5, 429600, Note_on_c, 0, 68, 0
5, 429600, Note_on_c, 0, 70, 84
5, 429840, Note_on_c, 0, 70, 0
5, 429840, Note_on_c, 0, 73, 93
5, 430080, Note_on_c, 0, 73, 0
5, 430080, Note_on_c, 0, 65, 94
5, 430440, Note_on_c, 0, 65, 0
5, 430440, Note_on_c, 0, 66, 91
5, 430560, Note_on_c, 0, 66, 0
5, 430560, Note_on_c, 0, 68, 89
5, 430800, Note_on_c, 0, 68, 0
5, 430800, Note_on_c, 0, 73, 100
5, 431040, Note_on_c, 0, 73, 0
5, 431040, Note_on_c, 0, 63, 100
5, 431400, Note_on_c, 0, 63, 0
5, 431400, Note_on_c, 0, 65, 97
5, 431520, Note_on_c, 0, 65, 0
5, 431520, Note_on_c, 0, 66, 96
5, 431760, Note_on_c, 0, 66, 0
5, 431760, Note_on_c, 0, 73, 103
5, 432000, Note_on_c, 0, 73, 0
5, 432000, Note_on_c, 0, 61, 106
5, 432360, Note_on_c, 0, 61, 0
5, 432360, Note_on_c, 0, 63, 103
5, 432480, Note_on_c, 0, 63, 0
5, 432480, Note_on_c, 0, 65, 101
5, 432720, Note_on_c, 0, 65, 0
5, 432720, Note_on_c, 0, 65, 106
5, 432960, Note_on_c, 0, 65, 0
5, 432960, Note_on_c, 0, 65, 110
5, 433320, Note_on_c, 0, 65, 0
5, 433320, Note_on_c, 0, 66, 94
5, 433440, Note_on_c, 0, 66, 0
5, 433440, Note_on_c, 0, 68, 88
5, 433680, Note_on_c, 0, 68, 0
5, 433680, Note_on_c, 0, 53, 76
5, 433836, Note_on_c, 0, 53, 0
5, 433920, Note_on_c, 0, 53, 72
5, 434280, Note_on_c, 0, 53, 0
5, 434280, Note_on_c, 0, 54, 67
5, 434358, Note_on_c, 0, 54, 0
5, 434400, Note_on_c, 0, 56, 66
5, 434556, Note_on_c, 0, 56, 0
5, 434640, Note_on_c, 0, 58, 63
5, 434796, Note_on_c, 0, 58, 0
5, 434880, Note_on_c, 0, 59, 60
5, 436800, Note_on_c, 0, 59, 0
5, 436800, Note_on_c, 0, 57, 48
5, 438720, Note_on_c, 0, 57, 0
5, 443520, Note_on_c, 0, 48, 100
5, 443520, Note_on_c, 0, 42, 100
5, 444240, Note_on_c, 0, 48, 0
5, 444240, Note_on_c, 0, 49, 93
5, 444480, Note_on_c, 0, 49, 0
5, 444480, Note_on_c, 0, 51, 92
5, 444720, Note_on_c, 0, 51, 0
5, 444720, Note_on_c, 0, 47, 96
5, 444960, Note_on_c, 0, 47, 0
5, 444960, Note_on_c, 0, 53, 99
5, 445200, Note_on_c, 0, 53, 0
5, 445200, Note_on_c, 0, 49, 103
5, 445440, Note_on_c, 0, 49, 0
5, 445440, Note_on_c, 0, 42, 0
5, 445440, Note_on_c, 0, 54, 110
5, 445440, Note_on_c, 0, 60, 110
5, 446160, Note_on_c, 0, 60, 0
5, 446160, Note_on_c, 0, 61, 105
5, 446400, Note_on_c, 0, 61, 0
5, 446400, Note_on_c, 0, 63, 103
5, 446640, Note_on_c, 0, 63, 0
5, 446640, Note_on_c, 0, 59, 107
5, 446880, Note_on_c, 0, 59, 0
5, 446880, Note_on_c, 0, 65, 110
5, 447120, Note_on_c, 0, 65, 0
5, 447120, Note_on_c, 0, 61, 113
5, 447360, Note_on_c, 0, 61, 0
5, 447360, Note_on_c, 0, 54, 0
5, 447360, Note_on_c, 0, 66, 116
5, 447516, Note_on_c, 0, 66, 0
5, 447600, Note_on_c, 0, 61, 119
5, 447756, Note_on_c, 0, 61, 0
5, 447840, Note_on_c, 0, 54, 122
5, 447996, Note_on_c, 0, 54, 0
5, 448080, Note_on_c, 0, 49, 125
5, 448236, Note_on_c, 0, 49, 0
5, 448320, Note_on_c, 0, 42, 127
5, 448476, Note_on_c, 0, 42, 0
5, 448476, End_track
6, 0, Start_track
6, 0, Title_t, "Piano"
6, 0, Program_c, 0, 0
6, 0, Control_c, 0, 7, 115
6, 321600, Note_on_c, 0, 39, 107
6, 323520, Note_on_c, 0, 39, 0
6, 325440, Note_on_c, 0, 39, 99
6, 327360, Note_on_c, 0, 39, 0
6, 327360, End_track
0, 0, End_of_file
