0, 0, Header, 1, 5, 480
1, 0, Start_track
1, 0, Title_t, "Untitled"
1, 0, Time_signature, 3, 2, 24, 8
1, 0, Key_signature, 0, "major"
1, 0, Tempo, 600000
1, 0, Marker_t, "Beethoven"
1, 1440, Tempo, 288462
1, 1440, Marker_t, "Piano Sonata No.25"
1, 2830, Tempo, 289855
1, 2880, Tempo, 288462
1, 2880, Marker_t, "hisamor@bekkoame.or.jp"
1, 4320, Marker_t, "Feb. 1998"
1, 5760, Marker_t, "Mail in English only "
1, 7200, Marker_t, "Thanks!"
1, 8580, Tempo, 289855
1, 8640, Tempo, 288462
1, 9960, Tempo, 289855
1, 11400, Tempo, 301508
1, 11520, Tempo, 288462
1, 17160, Tempo, 292683
1, 17505, Tempo, 288462
1, 22920, Tempo, 289855
1, 23250, Tempo, 288462
1, 28680, Tempo, 289855
1, 29025, Tempo, 288462
1, 34440, Tempo, 295567
1, 34560, Tempo, 288462
1, 37380, Tempo, 289855
1, 37440, Tempo, 288462
1, 40200, Tempo, 289855
1, 40320, Tempo, 288462
1, 43140, Tempo, 289855
1, 43200, Tempo, 288462
1, 45960, Tempo, 289855
1, 46080, Tempo, 288462
1, 48900, Tempo, 289855
1, 48960, Tempo, 288462
1, 51780, Tempo, 289855
1, 51840, Tempo, 288462
1, 54660, Tempo, 289855
1, 54720, Tempo, 288462
1, 57480, Tempo, 289855
1, 57600, Tempo, 288462
1, 60420, Tempo, 289855
1, 60480, Tempo, 288462
1, 64680, Tempo, 289855
1, 66120, Tempo, 292683
1, 66240, Tempo, 288462
1, 69000, Tempo, 301508
1, 69120, Tempo, 288462
1, 71880, Tempo, 298507
1, 72000, Tempo, 288462
1, 73320, Tempo, 289855
1, 73920, Tempo, 292683
1, 74640, Tempo, 400000
1, 74880, Tempo, 288462
1, 76260, Tempo, 289855
1, 76320, Tempo, 288462
1, 82020, Tempo, 289855
1, 82080, Tempo, 288462
1, 83400, Tempo, 289855
1, 84840, Tempo, 301508
1, 84960, Tempo, 288462
1, 90720, Tempo, 288462
1, 96370, Tempo, 298507
1, 96480, Tempo, 288462
1, 102240, Tempo, 288462
1, 107880, Tempo, 298507
1, 108000, Tempo, 288462
1, 113640, Tempo, 292683
1, 113760, Tempo, 288462
1, 114480, Tempo, 292683
1, 114720, Tempo, 288462
1, 117360, Tempo, 289855
1, 117600, Tempo, 288462
1, 119400, Tempo, 295567
1, 119520, Tempo, 288462
1, 125220, Tempo, 289855
1, 125280, Tempo, 288462
1, 130920, Tempo, 289855
1, 131040, Tempo, 288462
1, 136740, Tempo, 289855
1, 136800, Tempo, 288462
1, 142440, Tempo, 289855
1, 142560, Tempo, 288462
1, 148200, Tempo, 292683
1, 148560, Tempo, 288462
1, 151080, Tempo, 292683
1, 151440, Tempo, 288462
1, 153960, Tempo, 289855
1, 154320, Tempo, 288462
1, 159720, Tempo, 301508
1, 159840, Tempo, 288462
1, 165540, Tempo, 289855
1, 165600, Tempo, 288462
1, 171345, Tempo, 289855
1, 171360, Tempo, 288462
1, 176580, Tempo, 289855
1, 176640, Tempo, 288462
1, 177000, Tempo, 331492
1, 177120, Tempo, 288462
1, 178500, Tempo, 289855
1, 178560, Tempo, 288462
1, 184260, Tempo, 289855
1, 184320, Tempo, 288462
1, 185700, Tempo, 289855
1, 187080, Tempo, 301508
1, 187200, Tempo, 288462
1, 192840, Tempo, 289855
1, 193200, Tempo, 288462
1, 198600, Tempo, 289855
1, 198960, Tempo, 288462
1, 204360, Tempo, 289855
1, 204705, Tempo, 288462
1, 210120, Tempo, 289855
1, 210240, Tempo, 288462
1, 213060, Tempo, 289855
1, 213120, Tempo, 288462
1, 215880, Tempo, 289855
1, 216000, Tempo, 288462
1, 218820, Tempo, 289855
1, 218880, Tempo, 288462
1, 221640, Tempo, 289855
1, 221760, Tempo, 288462
1, 224580, Tempo, 289855
1, 224640, Tempo, 288462
1, 227460, Tempo, 289855
1, 227520, Tempo, 288462
1, 233160, Tempo, 289855
1, 233280, Tempo, 288462
1, 240360, Tempo, 289855
1, 241800, Tempo, 292683
1, 241920, Tempo, 288462
1, 244680, Tempo, 295567
1, 244800, Tempo, 288462
1, 247560, Tempo, 295567
1, 247680, Tempo, 288462
1, 250440, Tempo, 295567
1, 250560, Tempo, 288462
1, 251880, Tempo, 289855
1, 252720, Tempo, 292683
1, 253320, Tempo, 400000
1, 253440, Tempo, 288462
1, 254820, Tempo, 289855
1, 254880, Tempo, 288462
1, 259080, Tempo, 298507
1, 259200, Tempo, 288462
1, 260580, Tempo, 289855
1, 260640, Tempo, 288462
1, 264840, Tempo, 301508
1, 264960, Tempo, 288462
1, 266340, Tempo, 289855
1, 266400, Tempo, 288462
1, 270600, Tempo, 298507
1, 270720, Tempo, 288462
1, 272100, Tempo, 289855
1, 272160, Tempo, 288462
1, 274920, Tempo, 289855
1, 275040, Tempo, 288462
1, 280770, Tempo, 289855
1, 280800, Tempo, 288462
1, 286440, Tempo, 289855
1, 286560, Tempo, 288462
1, 288945, Tempo, 289855
1, 289140, Tempo, 295567
1, 289245, Tempo, 298507
1, 290880, Time_signature, 9, 3, 12, 8
1, 290880, Tempo, 1071429
1, 290880, Marker_t, "<2>"
1, 293040, Tempo, 895522
1, 295140, Tempo, 923077
1, 295200, Tempo, 895522
1, 297000, Tempo, 923077
1, 297135, Tempo, 967742
1, 297360, Tempo, 895522
1, 299460, Tempo, 923077
1, 299520, Tempo, 895522
1, 301320, Tempo, 923077
1, 301440, Tempo, 1034483
1, 301680, Tempo, 895522
1, 303780, Tempo, 923077
1, 303840, Tempo, 895522
1, 305400, Tempo, 923077
1, 305775, Tempo, 967742
1, 306000, Tempo, 895522
1, 308100, Tempo, 923077
1, 308160, Tempo, 895522
1, 309930, Tempo, 923077
1, 310080, Tempo, 1034483
1, 310320, Tempo, 1176471
1, 311040, Tempo, 1224490
1, 311760, Tempo, 1333333
1, 312480, Tempo, 869565
1, 312600, Tempo, 845070
1, 313880, Tempo, 869565
1, 313920, Tempo, 845070
1, 314410, Tempo, 869565
1, 314640, Tempo, 845070
1, 316040, Tempo, 869565
1, 316080, Tempo, 845070
1, 316560, Tempo, 895522
1, 316800, Tempo, 845070
1, 318200, Tempo, 869565
1, 318240, Tempo, 845070
1, 318840, Tempo, 869565
1, 318960, Tempo, 845070
1, 320600, Tempo, 869565
1, 320640, Tempo, 845070
1, 320880, Tempo, 869565
1, 321000, Tempo, 895522
1, 321120, Tempo, 845070
1, 322800, Tempo, 869565
1, 323160, Tempo, 895522
1, 323280, Tempo, 845070
1, 324680, Tempo, 869565
1, 324720, Tempo, 845070
1, 325330, Tempo, 869565
1, 325440, Tempo, 845070
1, 326820, Tempo, 869565
1, 327240, Tempo, 895522
1, 327340, Tempo, 952381
1, 327690, Tempo, 845070
1, 329000, Tempo, 869565
1, 329040, Tempo, 845070
1, 329640, Tempo, 869565
1, 329760, Tempo, 845070
1, 331160, Tempo, 869565
1, 331620, Tempo, 895522
1, 331850, Tempo, 923077
1, 332030, Tempo, 845070
1, 333320, Tempo, 869565
1, 333960, Tempo, 895522
1, 334080, Tempo, 845070
1, 335180, Tempo, 869565
1, 335840, Tempo, 895522
1, 336000, Tempo, 923077
1, 336120, Tempo, 1111111
1, 336240, Tempo, 895522
1, 337680, Tempo, 923077
1, 337800, Tempo, 895522
1, 338110, Tempo, 952381
1, 338160, Tempo, 1034483
1, 338280, Tempo, 1276596
1, 338460, Tempo, 895522
1, 340500, Tempo, 923077
1, 340560, Tempo, 895522
1, 342360, Tempo, 923077
1, 342495, Tempo, 1000000
1, 342720, Tempo, 895522
1, 344820, Tempo, 923077
1, 344880, Tempo, 895522
1, 346680, Tempo, 923077
1, 346800, Tempo, 1000000
1, 347040, Tempo, 895522
1, 349140, Tempo, 923077
1, 349200, Tempo, 895522
1, 350760, Tempo, 923077
1, 351135, Tempo, 1000000
1, 351360, Tempo, 895522
1, 353460, Tempo, 923077
1, 353520, Tempo, 895522
1, 354720, Tempo, 923077
1, 354960, Tempo, 895522
1, 355560, Tempo, 923077
1, 355680, Tempo, 895522
1, 357780, Tempo, 923077
1, 357840, Tempo, 895522
1, 359880, Tempo, 923077
1, 360010, Tempo, 895522
1, 361920, Tempo, 923077
1, 362040, Tempo, 952381
1, 362160, Tempo, 952381
1, 362520, Tempo, 967742
1, 363590, Tempo, 1000000
1, 364070, Tempo, 1276596
1, 364320, Tempo, 1333333
1, 365040, Tempo, 1578947
1, 366480, Time_signature, 2, 2, 24, 8
1, 366480, Tempo, 1176471
1, 366480, Marker_t, "<3>"
1, 367440, Tempo, 340909
1, 369140, Tempo, 344828
1, 369360, Tempo, 340909
1, 371060, Tempo, 344828
1, 371280, Tempo, 340909
1, 372950, Tempo, 344828
1, 373200, Tempo, 340909
1, 374040, Tempo, 344828
1, 374650, Tempo, 359281
1, 375120, Tempo, 340909
1, 376820, Tempo, 344828
1, 377040, Tempo, 340909
1, 378740, Tempo, 344828
1, 378960, Tempo, 340909
1, 380630, Tempo, 344828
1, 380880, Tempo, 340909
1, 381720, Tempo, 344828
1, 381840, Tempo, 359281
1, 382095, Tempo, 355030
1, 382800, Tempo, 340909
1, 383700, Tempo, 344828
1, 384240, Tempo, 352941
1, 384600, Tempo, 344828
1, 384720, Tempo, 340909
1, 385650, Tempo, 344828
1, 386040, Tempo, 363636
1, 386400, Tempo, 368098
1, 386640, Tempo, 340909
1, 387540, Tempo, 344828
1, 388065, Tempo, 363636
1, 388560, Tempo, 352941
1, 389520, Tempo, 355030
1, 390255, Tempo, 359281
1, 390480, Tempo, 340909
1, 391380, Tempo, 344828
1, 391920, Tempo, 352941
1, 392280, Tempo, 344828
1, 392400, Tempo, 340909
1, 393345, Tempo, 344828
1, 393710, Tempo, 363636
1, 394080, Tempo, 368098
1, 394320, Tempo, 340909
1, 395220, Tempo, 344828
1, 395745, Tempo, 363636
1, 396240, Tempo, 352941
1, 397200, Tempo, 363636
1, 397680, Tempo, 340909
1, 398880, Tempo, 344828
1, 399000, Tempo, 359281
1, 399120, Tempo, 340909
1, 399480, Tempo, 344828
1, 399600, Tempo, 340909
1, 400980, Tempo, 344828
1, 401040, Tempo, 340909
1, 401400, Tempo, 344828
1, 401520, Tempo, 340909
1, 403560, Tempo, 348837
1, 403680, Tempo, 340909
1, 403920, Tempo, 344828
1, 404655, Tempo, 352941
1, 404760, Tempo, 359281
1, 404880, Tempo, 359281
1, 405110, Tempo, 355030
1, 405370, Tempo, 340909
1, 406320, Tempo, 368098
1, 407280, Tempo, 340909
1, 408240, Tempo, 368098
1, 409190, Tempo, 340909
1, 410040, Tempo, 344828
1, 410160, Tempo, 340909
1, 415800, Tempo, 344828
1, 416160, Tempo, 352941
1, 416280, Tempo, 400000
1, 416400, Tempo, 340909
1, 418200, Tempo, 344828
1, 418320, Tempo, 340909
1, 420120, Tempo, 344828
1, 420240, Tempo, 340909
1, 422040, Tempo, 344828
1, 423000, Tempo, 348837
1, 423830, Tempo, 352941
1, 423960, Tempo, 363636
1, 424080, Tempo, 340909
1, 424980, Tempo, 344828
1, 425520, Tempo, 352941
1, 425750, Tempo, 344828
1, 426000, Tempo, 340909
1, 426900, Tempo, 344828
1, 427320, Tempo, 363636
1, 427680, Tempo, 368098
1, 427930, Tempo, 340909
1, 428820, Tempo, 344828
1, 429375, Tempo, 359281
1, 429840, Tempo, 344828
1, 430755, Tempo, 348837
1, 431115, Tempo, 372671
1, 431400, Tempo, 340909
1, 432680, Tempo, 359281
1, 432720, Tempo, 355030
1, 434505, Tempo, 344828
1, 434640, Tempo, 355030
1, 435230, Tempo, 340909
1, 436520, Tempo, 359281
1, 436560, Tempo, 355030
1, 438360, Tempo, 344828
1, 438480, Tempo, 355030
1, 439070, Tempo, 340909
1, 440360, Tempo, 359281
1, 440400, Tempo, 355030
1, 442185, Tempo, 344828
1, 442320, Tempo, 355030
1, 442910, Tempo, 340909
1, 444200, Tempo, 359281
1, 444240, Tempo, 355030
1, 446025, Tempo, 344828
1, 446160, Tempo, 359281
1, 446400, Tempo, 355030
1, 447130, Tempo, 340909
1, 451680, Tempo, 348837
1, 451800, Tempo, 379747
1, 451920, Tempo, 340909
1, 453720, Tempo, 344828
1, 453840, Tempo, 340909
1, 455640, Tempo, 344828
1, 455760, Tempo, 340909
1, 457560, Tempo, 344828
1, 457680, Tempo, 340909
1, 459360, Tempo, 344828
1, 459480, Tempo, 352941
1, 459600, Tempo, 340909
1, 463320, Tempo, 348837
1, 463440, Tempo, 340909
1, 466200, Tempo, 344828
1, 467040, Tempo, 348837
1, 467160, Tempo, 377358
1, 467280, Tempo, 340909
1, 468180, Tempo, 344828
1, 468720, Tempo, 352941
1, 469095, Tempo, 344828
1, 469200, Tempo, 340909
1, 470100, Tempo, 344828
1, 470520, Tempo, 363636
1, 470880, Tempo, 368098
1, 471120, Tempo, 340909
1, 473880, Tempo, 344828
1, 474720, Tempo, 348837
1, 474840, Tempo, 359281
1, 474960, Tempo, 340909
1, 475860, Tempo, 344828
1, 476400, Tempo, 352941
1, 476880, Tempo, 340909
1, 478560, Tempo, 344828
1, 478800, Tempo, 340909
1, 479700, Tempo, 344828
1, 480240, Tempo, 348837
1, 480720, Tempo, 340909
1, 482160, Tempo, 344828
1, 482640, Tempo, 340909
1, 484440, Tempo, 344828
1, 484560, Tempo, 340909
1, 488280, Tempo, 344828
1, 488400, Tempo, 340909
1, 491160, Tempo, 344828
1, 491280, Tempo, 340909
1, 494145, Tempo, 359281
1, 494595, Tempo, 379747
1, 494880, Tempo, 434783
1, 494880, End_track
2, 0, Start_track
2, 0, Title_t, "Beethoven"
2, 0, Control_c, 0, 0, 0
2, 0, Control_c, 0, 7, 115
2, 0, Control_c, 0, 10, 83
2, 0, Control_c, 0, 91, 91
2, 0, Control_c, 0, 93, 28
2, 0, Pitch_bend_c, 0, 8192
2, 0, Control_c, 0, 1, 0
2, 0, Control_c, 0, 64, 0
2, 1, Control_c, 0, 32, 0
2, 1, Program_c, 0, 0
2, 1440, Note_on_c, 0, 79, 87
2, 1680, Note_on_c, 0, 79, 0
2, 1920, Note_on_c, 0, 83, 90
2, 2112, Note_on_c, 0, 83, 0
2, 2400, Note_on_c, 0, 79, 92
2, 2592, Note_on_c, 0, 79, 0
2, 2880, Note_on_c, 0, 86, 98
2, 3840, Note_on_c, 0, 86, 0
2, 3840, Note_on_c, 0, 84, 92
2, 4080, Note_on_c, 0, 84, 0
2, 4080, Note_on_c, 0, 83, 92
2, 4320, Note_on_c, 0, 83, 0
2, 4320, Note_on_c, 0, 81, 92
2, 4560, Note_on_c, 0, 81, 0
2, 4560, Note_on_c, 0, 79, 91
2, 4800, Note_on_c, 0, 79, 0
2, 4800, Note_on_c, 0, 78, 91
2, 5040, Note_on_c, 0, 78, 0
2, 5040, Note_on_c, 0, 79, 91
2, 5280, Note_on_c, 0, 79, 0
2, 5280, Note_on_c, 0, 83, 90
2, 5520, Note_on_c, 0, 83, 0
2, 5520, Note_on_c, 0, 79, 90
2, 5760, Note_on_c, 0, 79, 0
2, 5760, Note_on_c, 0, 78, 90
2, 6240, Note_on_c, 0, 78, 0
2, 6240, Note_on_c, 0, 76, 86
2, 6600, Note_on_c, 0, 76, 0
2, 6720, Note_on_c, 0, 74, 88
2, 6960, Note_on_c, 0, 74, 0
2, 6960, Note_on_c, 0, 72, 88
2, 7200, Note_on_c, 0, 72, 0
2, 7200, Note_on_c, 0, 71, 88
2, 7440, Note_on_c, 0, 71, 0
2, 7440, Note_on_c, 0, 69, 87
2, 7680, Note_on_c, 0, 69, 0
2, 7680, Note_on_c, 0, 68, 87
2, 7920, Note_on_c, 0, 68, 0
2, 7920, Note_on_c, 0, 69, 87
2, 8160, Note_on_c, 0, 69, 0
2, 8160, Note_on_c, 0, 72, 86
2, 8400, Note_on_c, 0, 72, 0
2, 8400, Note_on_c, 0, 69, 86
2, 8640, Note_on_c, 0, 69, 0
2, 8640, Note_on_c, 0, 66, 86
2, 9600, Note_on_c, 0, 66, 0
2, 9600, Note_on_c, 0, 69, 84
2, 9840, Note_on_c, 0, 69, 0
2, 10080, Note_on_c, 0, 72, 84
2, 10272, Note_on_c, 0, 72, 0
2, 10560, Note_on_c, 0, 69, 83
2, 10752, Note_on_c, 0, 69, 0
2, 11040, Note_on_c, 0, 66, 82
2, 11232, Note_on_c, 0, 66, 0
2, 11520, Note_on_c, 0, 67, 82
2, 11760, Note_on_c, 0, 67, 0
2, 11760, Note_on_c, 0, 62, 83
2, 12000, Note_on_c, 0, 62, 0
2, 12000, Note_on_c, 0, 61, 83
2, 12240, Note_on_c, 0, 61, 0
2, 12240, Note_on_c, 0, 62, 84
2, 12480, Note_on_c, 0, 62, 0
2, 12480, Note_on_c, 0, 66, 85
2, 12720, Note_on_c, 0, 66, 0
2, 12720, Note_on_c, 0, 67, 86
2, 12960, Note_on_c, 0, 67, 0
2, 12960, Note_on_c, 0, 69, 86
2, 13200, Note_on_c, 0, 69, 0
2, 13200, Note_on_c, 0, 62, 87
2, 13440, Note_on_c, 0, 62, 0
2, 13440, Note_on_c, 0, 61, 88
2, 13680, Note_on_c, 0, 61, 0
2, 13680, Note_on_c, 0, 62, 88
2, 13920, Note_on_c, 0, 62, 0
2, 13920, Note_on_c, 0, 67, 89
2, 14160, Note_on_c, 0, 67, 0
2, 14160, Note_on_c, 0, 69, 90
2, 14400, Note_on_c, 0, 69, 0
2, 14400, Note_on_c, 0, 71, 91
2, 14640, Note_on_c, 0, 71, 0
2, 14640, Note_on_c, 0, 67, 91
2, 14880, Note_on_c, 0, 67, 0
2, 14880, Note_on_c, 0, 66, 92
2, 15120, Note_on_c, 0, 66, 0
2, 15120, Note_on_c, 0, 67, 93
2, 15360, Note_on_c, 0, 67, 0
2, 15360, Note_on_c, 0, 72, 94
2, 15600, Note_on_c, 0, 72, 0
2, 15600, Note_on_c, 0, 74, 94
2, 15840, Note_on_c, 0, 74, 0
2, 15840, Note_on_c, 0, 76, 98
2, 16080, Note_on_c, 0, 76, 0
2, 16080, Note_on_c, 0, 74, 96
2, 16320, Note_on_c, 0, 74, 0
2, 16320, Note_on_c, 0, 72, 92
2, 16560, Note_on_c, 0, 72, 0
2, 16560, Note_on_c, 0, 71, 88
2, 16800, Note_on_c, 0, 71, 0
2, 16800, Note_on_c, 0, 69, 84
2, 17040, Note_on_c, 0, 69, 0
2, 17040, Note_on_c, 0, 67, 80
2, 17280, Note_on_c, 0, 67, 0
2, 17280, Note_on_c, 0, 66, 69
2, 17760, Note_on_c, 0, 66, 0
2, 18000, Control_c, 0, 64, 127
2, 18000, Note_on_c, 0, 62, 65
2, 18240, Note_on_c, 0, 62, 0
2, 18240, Note_on_c, 0, 66, 65
2, 18480, Note_on_c, 0, 66, 0
2, 18480, Note_on_c, 0, 69, 64
2, 18720, Note_on_c, 0, 69, 0
2, 18720, Note_on_c, 0, 74, 64
2, 18960, Note_on_c, 0, 74, 0
2, 18960, Note_on_c, 0, 66, 64
2, 19200, Note_on_c, 0, 66, 0
2, 19200, Note_on_c, 0, 69, 64
2, 19440, Note_on_c, 0, 69, 0
2, 19440, Note_on_c, 0, 74, 63
2, 19680, Note_on_c, 0, 74, 0
2, 19680, Note_on_c, 0, 78, 63
2, 19920, Note_on_c, 0, 78, 0
2, 19920, Note_on_c, 0, 69, 63
2, 20160, Note_on_c, 0, 69, 0
2, 20160, Note_on_c, 0, 74, 63
2, 20400, Note_on_c, 0, 74, 0
2, 20400, Note_on_c, 0, 78, 62
2, 20640, Note_on_c, 0, 78, 0
2, 20640, Note_on_c, 0, 81, 62
2, 20880, Note_on_c, 0, 81, 0
2, 20880, Note_on_c, 0, 74, 62
2, 21120, Note_on_c, 0, 74, 0
2, 21120, Note_on_c, 0, 78, 62
2, 21360, Note_on_c, 0, 78, 0
2, 21360, Note_on_c, 0, 81, 61
2, 21600, Note_on_c, 0, 81, 0
2, 21600, Note_on_c, 0, 86, 61
2, 21840, Note_on_c, 0, 86, 0
2, 21840, Note_on_c, 0, 78, 61
2, 22080, Note_on_c, 0, 78, 0
2, 22080, Note_on_c, 0, 81, 61
2, 22320, Note_on_c, 0, 81, 0
2, 22320, Note_on_c, 0, 86, 60
2, 22560, Note_on_c, 0, 86, 0
2, 22560, Note_on_c, 0, 90, 60
2, 22800, Note_on_c, 0, 90, 0
2, 22800, Note_on_c, 0, 88, 60
2, 23040, Note_on_c, 0, 88, 0
2, 23040, Control_c, 0, 64, 0
2, 23040, Note_on_c, 0, 86, 60
2, 23520, Note_on_c, 0, 86, 0
2, 23760, Control_c, 0, 64, 127
2, 23760, Note_on_c, 0, 62, 59
2, 24000, Note_on_c, 0, 62, 0
2, 24000, Note_on_c, 0, 66, 59
2, 24240, Note_on_c, 0, 66, 0
2, 24240, Note_on_c, 0, 71, 59
2, 24480, Note_on_c, 0, 71, 0
2, 24480, Note_on_c, 0, 74, 58
2, 24720, Note_on_c, 0, 74, 0
2, 24720, Note_on_c, 0, 66, 58
2, 24960, Note_on_c, 0, 66, 0
2, 24960, Note_on_c, 0, 71, 58
2, 25200, Note_on_c, 0, 71, 0
2, 25200, Note_on_c, 0, 74, 58
2, 25440, Note_on_c, 0, 74, 0
2, 25440, Note_on_c, 0, 78, 57
2, 25680, Note_on_c, 0, 78, 0
2, 25680, Note_on_c, 0, 71, 57
2, 25920, Note_on_c, 0, 71, 0
2, 25920, Note_on_c, 0, 74, 57
2, 26160, Note_on_c, 0, 74, 0
2, 26160, Note_on_c, 0, 78, 57
2, 26400, Note_on_c, 0, 78, 0
2, 26400, Note_on_c, 0, 83, 56
2, 26640, Note_on_c, 0, 83, 0
2, 26640, Note_on_c, 0, 74, 56
2, 26880, Note_on_c, 0, 74, 0
2, 26880, Note_on_c, 0, 78, 56
2, 27120, Note_on_c, 0, 78, 0
2, 27120, Note_on_c, 0, 83, 56
2, 27360, Note_on_c, 0, 83, 0
2, 27360, Note_on_c, 0, 86, 55
2, 27600, Note_on_c, 0, 86, 0
2, 27600, Note_on_c, 0, 78, 55
2, 27840, Note_on_c, 0, 78, 0
2, 27840, Note_on_c, 0, 83, 55
2, 28080, Note_on_c, 0, 83, 0
2, 28080, Note_on_c, 0, 86, 55
2, 28320, Note_on_c, 0, 86, 0
2, 28320, Note_on_c, 0, 90, 54
2, 28560, Note_on_c, 0, 90, 0
2, 28560, Note_on_c, 0, 88, 54
2, 28800, Note_on_c, 0, 88, 0
2, 28800, Control_c, 0, 64, 0
2, 28800, Note_on_c, 0, 86, 54
2, 28860, Control_c, 0, 64, 0
2, 29280, Note_on_c, 0, 86, 0
2, 29520, Control_c, 0, 64, 127
2, 29520, Note_on_c, 0, 62, 53
2, 29760, Note_on_c, 0, 62, 0
2, 29760, Note_on_c, 0, 64, 53
2, 30000, Note_on_c, 0, 64, 0
2, 30000, Note_on_c, 0, 68, 53
2, 30240, Note_on_c, 0, 68, 0
2, 30240, Note_on_c, 0, 71, 53
2, 30480, Note_on_c, 0, 71, 0
2, 30480, Note_on_c, 0, 64, 52
2, 30720, Note_on_c, 0, 64, 0
2, 30720, Note_on_c, 0, 68, 52
2, 30960, Note_on_c, 0, 68, 0
2, 30960, Note_on_c, 0, 71, 52
2, 31200, Note_on_c, 0, 71, 0
2, 31200, Note_on_c, 0, 74, 52
2, 31440, Note_on_c, 0, 74, 0
2, 31440, Note_on_c, 0, 68, 51
2, 31680, Note_on_c, 0, 68, 0
2, 31680, Note_on_c, 0, 71, 51
2, 31920, Note_on_c, 0, 71, 0
2, 31920, Note_on_c, 0, 74, 51
2, 32160, Note_on_c, 0, 74, 0
2, 32160, Note_on_c, 0, 80, 51
2, 32400, Note_on_c, 0, 80, 0
2, 32400, Note_on_c, 0, 71, 50
2, 32640, Note_on_c, 0, 71, 0
2, 32640, Note_on_c, 0, 74, 50
2, 32880, Note_on_c, 0, 74, 0
2, 32880, Note_on_c, 0, 80, 50
2, 33120, Note_on_c, 0, 80, 0
2, 33120, Note_on_c, 0, 83, 50
2, 33360, Note_on_c, 0, 83, 0
2, 33360, Note_on_c, 0, 80, 49
2, 33600, Note_on_c, 0, 80, 0
2, 33600, Note_on_c, 0, 76, 49
2, 33840, Note_on_c, 0, 76, 0
2, 33840, Note_on_c, 0, 78, 49
2, 34080, Note_on_c, 0, 78, 0
2, 34080, Note_on_c, 0, 76, 49
2, 34320, Note_on_c, 0, 76, 0
2, 34320, Note_on_c, 0, 78, 48
2, 34560, Note_on_c, 0, 78, 0
2, 34560, Control_c, 0, 64, 0
2, 34560, Note_on_c, 0, 76, 52
2, 36000, Note_on_c, 0, 76, 0
2, 36000, Note_on_c, 0, 76, 58
2, 37440, Note_on_c, 0, 76, 0
2, 37440, Note_on_c, 0, 79, 72
2, 38880, Note_on_c, 0, 79, 0
2, 38880, Note_on_c, 0, 78, 64
2, 39360, Note_on_c, 0, 78, 0
2, 39360, Note_on_c, 0, 78, 60
2, 39840, Note_on_c, 0, 78, 0
2, 39840, Note_on_c, 0, 78, 56
2, 40320, Note_on_c, 0, 78, 0
2, 40320, Note_on_c, 0, 76, 53
2, 41760, Note_on_c, 0, 76, 0
2, 41760, Note_on_c, 0, 76, 56
2, 43200, Note_on_c, 0, 76, 0
2, 43200, Note_on_c, 0, 79, 69
2, 44640, Note_on_c, 0, 79, 0
2, 44640, Note_on_c, 0, 78, 63
2, 45120, Note_on_c, 0, 78, 0
2, 45120, Note_on_c, 0, 78, 59
2, 45600, Note_on_c, 0, 78, 0
2, 45600, Note_on_c, 0, 78, 56
2, 46080, Note_on_c, 0, 78, 0
2, 46080, Note_on_c, 0, 76, 54
2, 46320, Note_on_c, 0, 76, 0
2, 46320, Note_on_c, 0, 74, 54
2, 46560, Note_on_c, 0, 74, 0
2, 46560, Note_on_c, 0, 76, 55
2, 46800, Note_on_c, 0, 76, 0
2, 46800, Note_on_c, 0, 78, 55
2, 47040, Note_on_c, 0, 78, 0
2, 47040, Note_on_c, 0, 80, 56
2, 47280, Note_on_c, 0, 80, 0
2, 47280, Note_on_c, 0, 81, 56
2, 47520, Note_on_c, 0, 81, 0
2, 47520, Note_on_c, 0, 80, 57
2, 47760, Note_on_c, 0, 80, 0
2, 47760, Note_on_c, 0, 78, 57
2, 48000, Note_on_c, 0, 78, 0
2, 48000, Note_on_c, 0, 76, 57
2, 48240, Note_on_c, 0, 76, 0
2, 48240, Note_on_c, 0, 74, 58
2, 48480, Note_on_c, 0, 74, 0
2, 48480, Note_on_c, 0, 73, 58
2, 48720, Note_on_c, 0, 73, 0
2, 48720, Note_on_c, 0, 71, 59
2, 48960, Note_on_c, 0, 71, 0
2, 48960, Note_on_c, 0, 74, 59
2, 49200, Note_on_c, 0, 74, 0
2, 49200, Note_on_c, 0, 76, 60
2, 49440, Note_on_c, 0, 76, 0
2, 49440, Note_on_c, 0, 78, 60
2, 49680, Note_on_c, 0, 78, 0
2, 49680, Note_on_c, 0, 80, 61
2, 49920, Note_on_c, 0, 80, 0
2, 49920, Note_on_c, 0, 81, 61
2, 50160, Note_on_c, 0, 81, 0
2, 50160, Note_on_c, 0, 83, 62
2, 50400, Note_on_c, 0, 83, 0
2, 50400, Note_on_c, 0, 81, 62
2, 50640, Note_on_c, 0, 81, 0
2, 50640, Note_on_c, 0, 79, 63
2, 50880, Note_on_c, 0, 79, 0
2, 50880, Note_on_c, 0, 78, 63
2, 51120, Note_on_c, 0, 78, 0
2, 51120, Note_on_c, 0, 76, 63
2, 51360, Note_on_c, 0, 76, 0
2, 51360, Note_on_c, 0, 74, 64
2, 51600, Note_on_c, 0, 74, 0
2, 51600, Note_on_c, 0, 73, 64
2, 51840, Note_on_c, 0, 73, 0
2, 51840, Control_c, 0, 64, 0
2, 51840, Note_on_c, 0, 76, 65
2, 51900, Control_c, 0, 64, 127
2, 52080, Note_on_c, 0, 76, 0
2, 52080, Note_on_c, 0, 79, 65
2, 52320, Note_on_c, 0, 79, 0
2, 52320, Note_on_c, 0, 85, 66
2, 52560, Note_on_c, 0, 85, 0
2, 52560, Note_on_c, 0, 79, 66
2, 52800, Note_on_c, 0, 79, 0
2, 52800, Note_on_c, 0, 88, 67
2, 53040, Note_on_c, 0, 88, 0
2, 53040, Note_on_c, 0, 85, 67
2, 53280, Note_on_c, 0, 85, 0
2, 53280, Note_on_c, 0, 88, 78
2, 53520, Note_on_c, 0, 88, 0
2, 53520, Note_on_c, 0, 85, 68
2, 53760, Note_on_c, 0, 85, 0
2, 53760, Note_on_c, 0, 88, 69
2, 54000, Note_on_c, 0, 88, 0
2, 54000, Note_on_c, 0, 85, 69
2, 54240, Note_on_c, 0, 85, 0
2, 54240, Note_on_c, 0, 88, 70
2, 54480, Note_on_c, 0, 88, 0
2, 54480, Note_on_c, 0, 85, 70
2, 54720, Note_on_c, 0, 85, 0
2, 54720, Note_on_c, 0, 88, 82
2, 54960, Note_on_c, 0, 88, 0
2, 54960, Note_on_c, 0, 85, 73
2, 55200, Note_on_c, 0, 85, 0
2, 55200, Note_on_c, 0, 81, 72
2, 55440, Note_on_c, 0, 81, 0
2, 55440, Note_on_c, 0, 83, 72
2, 55680, Note_on_c, 0, 83, 0
2, 55680, Note_on_c, 0, 85, 71
2, 55920, Note_on_c, 0, 85, 0
2, 55920, Note_on_c, 0, 81, 70
2, 56160, Note_on_c, 0, 81, 0
2, 56160, Control_c, 0, 64, 0
2, 56160, Note_on_c, 0, 86, 70
2, 56220, Control_c, 0, 64, 127
2, 56400, Note_on_c, 0, 86, 0
2, 56400, Note_on_c, 0, 81, 69
2, 56640, Note_on_c, 0, 81, 0
2, 56640, Note_on_c, 0, 86, 68
2, 56880, Note_on_c, 0, 86, 0
2, 56880, Note_on_c, 0, 81, 67
2, 57120, Note_on_c, 0, 81, 0
2, 57120, Note_on_c, 0, 78, 67
2, 57360, Note_on_c, 0, 78, 0
2, 57360, Note_on_c, 0, 74, 66
2, 57600, Note_on_c, 0, 74, 0
2, 57600, Control_c, 0, 64, 0
2, 57600, Note_on_c, 0, 76, 66
2, 57660, Control_c, 0, 64, 127
2, 57840, Note_on_c, 0, 76, 0
2, 57840, Note_on_c, 0, 79, 69
2, 58080, Note_on_c, 0, 79, 0
2, 58080, Note_on_c, 0, 85, 70
2, 58320, Note_on_c, 0, 85, 0
2, 58320, Note_on_c, 0, 79, 71
2, 58560, Note_on_c, 0, 79, 0
2, 58560, Note_on_c, 0, 88, 72
2, 58800, Note_on_c, 0, 88, 0
2, 58800, Note_on_c, 0, 85, 73
2, 59040, Note_on_c, 0, 85, 0
2, 59040, Note_on_c, 0, 88, 84
2, 59280, Note_on_c, 0, 88, 0
2, 59280, Note_on_c, 0, 85, 75
2, 59520, Note_on_c, 0, 85, 0
2, 59520, Note_on_c, 0, 88, 76
2, 59760, Note_on_c, 0, 88, 0
2, 59760, Note_on_c, 0, 85, 77
2, 60000, Note_on_c, 0, 85, 0
2, 60000, Note_on_c, 0, 88, 77
2, 60240, Note_on_c, 0, 88, 0
2, 60240, Note_on_c, 0, 85, 78
2, 60480, Note_on_c, 0, 85, 0
2, 60480, Control_c, 0, 64, 0
2, 60480, Note_on_c, 0, 88, 88
2, 60540, Control_c, 0, 64, 127
2, 60720, Note_on_c, 0, 88, 0
2, 60720, Note_on_c, 0, 85, 81
2, 60960, Note_on_c, 0, 85, 0
2, 60960, Note_on_c, 0, 81, 80
2, 61200, Note_on_c, 0, 81, 0
2, 61200, Note_on_c, 0, 83, 79
2, 61440, Note_on_c, 0, 83, 0
2, 61440, Note_on_c, 0, 85, 78
2, 61680, Note_on_c, 0, 85, 0
2, 61680, Note_on_c, 0, 81, 77
2, 61920, Note_on_c, 0, 81, 0
2, 61920, Control_c, 0, 64, 0
2, 61920, Note_on_c, 0, 86, 76
2, 61980, Control_c, 0, 64, 127
2, 62160, Note_on_c, 0, 86, 0
2, 62160, Note_on_c, 0, 81, 75
2, 62400, Note_on_c, 0, 81, 0
2, 62400, Note_on_c, 0, 86, 74
2, 62640, Note_on_c, 0, 86, 0
2, 62640, Note_on_c, 0, 81, 73
2, 62880, Note_on_c, 0, 81, 0
2, 62880, Note_on_c, 0, 78, 72
2, 63120, Note_on_c, 0, 78, 0
2, 63120, Note_on_c, 0, 74, 71
2, 63360, Note_on_c, 0, 74, 0
2, 63360, Control_c, 0, 64, 0
2, 63360, Note_on_c, 0, 83, 70
2, 63420, Control_c, 0, 64, 127
2, 63600, Note_on_c, 0, 83, 0
2, 63600, Note_on_c, 0, 79, 69
2, 63840, Note_on_c, 0, 79, 0
2, 63840, Note_on_c, 0, 83, 68
2, 64080, Note_on_c, 0, 83, 0
2, 64080, Note_on_c, 0, 79, 67
2, 64320, Note_on_c, 0, 79, 0
2, 64320, Note_on_c, 0, 74, 66
2, 64560, Note_on_c, 0, 74, 0
2, 64560, Note_on_c, 0, 71, 65
2, 64800, Note_on_c, 0, 71, 0
2, 64800, Control_c, 0, 64, 0
2, 64800, Note_on_c, 0, 69, 64
2, 65760, Note_on_c, 0, 69, 0
2, 65760, Note_on_c, 0, 76, 60
2, 65820, Note_on_c, 0, 76, 0
2, 65820, Note_on_c, 0, 78, 62
2, 65880, Note_on_c, 0, 78, 0
2, 65880, Note_on_c, 0, 76, 63
2, 65940, Note_on_c, 0, 76, 0
2, 65940, Note_on_c, 0, 78, 65
2, 66000, Note_on_c, 0, 78, 0
2, 66000, Note_on_c, 0, 76, 66
2, 66040, Note_on_c, 0, 76, 0
2, 66040, Note_on_c, 0, 78, 67
2, 66080, Note_on_c, 0, 78, 0
2, 66080, Note_on_c, 0, 76, 68
2, 66120, Note_on_c, 0, 76, 0
2, 66120, Note_on_c, 0, 74, 71
2, 66180, Note_on_c, 0, 74, 0
2, 66180, Note_on_c, 0, 76, 76
2, 66240, Note_on_c, 0, 76, 0
2, 66240, Note_on_c, 0, 74, 93
2, 66480, Note_on_c, 0, 74, 0
2, 66720, Note_on_c, 0, 81, 92
2, 66912, Note_on_c, 0, 81, 0
2, 67200, Note_on_c, 0, 74, 91
2, 67392, Note_on_c, 0, 74, 0
2, 68160, Note_on_c, 0, 79, 88
2, 68352, Note_on_c, 0, 79, 0
2, 68640, Note_on_c, 0, 73, 86
2, 68832, Note_on_c, 0, 73, 0
2, 69600, Note_on_c, 0, 74, 63
2, 69792, Note_on_c, 0, 74, 0
2, 70080, Note_on_c, 0, 71, 61
2, 70272, Note_on_c, 0, 71, 0
2, 71040, Note_on_c, 0, 72, 58
2, 71232, Note_on_c, 0, 72, 0
2, 71520, Note_on_c, 0, 69, 56
2, 71712, Note_on_c, 0, 69, 0
2, 72480, Note_on_c, 0, 83, 93
2, 72672, Note_on_c, 0, 83, 0
2, 72960, Note_on_c, 0, 80, 91
2, 73152, Note_on_c, 0, 80, 0
2, 73920, Note_on_c, 0, 81, 86
2, 74112, Note_on_c, 0, 81, 0
2, 74400, Note_on_c, 0, 78, 84
2, 74592, Note_on_c, 0, 78, 0
2, 74880, Note_on_c, 0, 76, 84
2, 75072, Note_on_c, 0, 76, 0
2, 75360, Note_on_c, 0, 80, 87
2, 75552, Note_on_c, 0, 80, 0
2, 75840, Note_on_c, 0, 76, 90
2, 76032, Note_on_c, 0, 76, 0
2, 76320, Note_on_c, 0, 83, 99
2, 77280, Note_on_c, 0, 83, 0
2, 77280, Note_on_c, 0, 81, 95
2, 77520, Note_on_c, 0, 81, 0
2, 77520, Note_on_c, 0, 80, 94
2, 77760, Note_on_c, 0, 80, 0
2, 77760, Note_on_c, 0, 78, 94
2, 78000, Note_on_c, 0, 78, 0
2, 78000, Note_on_c, 0, 76, 93
2, 78240, Note_on_c, 0, 76, 0
2, 78240, Note_on_c, 0, 75, 92
2, 78480, Note_on_c, 0, 75, 0
2, 78480, Note_on_c, 0, 76, 91
2, 78720, Note_on_c, 0, 76, 0
2, 78720, Note_on_c, 0, 80, 91
2, 78960, Note_on_c, 0, 80, 0
2, 78960, Note_on_c, 0, 76, 90
2, 79200, Note_on_c, 0, 76, 0
2, 79200, Note_on_c, 0, 75, 89
2, 79680, Note_on_c, 0, 75, 0
2, 79680, Note_on_c, 0, 73, 85
2, 80040, Note_on_c, 0, 73, 0
2, 80160, Note_on_c, 0, 71, 87
2, 80400, Note_on_c, 0, 71, 0
2, 80400, Note_on_c, 0, 69, 86
2, 80640, Note_on_c, 0, 69, 0
2, 80640, Note_on_c, 0, 68, 85
2, 80880, Note_on_c, 0, 68, 0
2, 80880, Note_on_c, 0, 66, 85
2, 81120, Note_on_c, 0, 66, 0
2, 81120, Note_on_c, 0, 65, 84
2, 81360, Note_on_c, 0, 65, 0
2, 81360, Note_on_c, 0, 66, 83
2, 81600, Note_on_c, 0, 66, 0
2, 81600, Note_on_c, 0, 69, 82
2, 81840, Note_on_c, 0, 69, 0
2, 81840, Note_on_c, 0, 66, 82
2, 82080, Note_on_c, 0, 66, 0
2, 82080, Note_on_c, 0, 63, 81
2, 83040, Note_on_c, 0, 63, 0
2, 83040, Note_on_c, 0, 66, 78
2, 83280, Note_on_c, 0, 66, 0
2, 83520, Note_on_c, 0, 69, 77
2, 83712, Note_on_c, 0, 69, 0
2, 84000, Note_on_c, 0, 66, 76
2, 84192, Note_on_c, 0, 66, 0
2, 84480, Note_on_c, 0, 63, 74
2, 84672, Note_on_c, 0, 63, 0
2, 84960, Note_on_c, 0, 64, 67
2, 85152, Note_on_c, 0, 64, 0
2, 85440, Note_on_c, 0, 68, 67
2, 85632, Note_on_c, 0, 68, 0
2, 85920, Note_on_c, 0, 64, 66
2, 86112, Note_on_c, 0, 64, 0
2, 86400, Note_on_c, 0, 64, 66
2, 86592, Note_on_c, 0, 64, 0
2, 86880, Note_on_c, 0, 68, 66
2, 87072, Note_on_c, 0, 68, 0
2, 87360, Note_on_c, 0, 64, 65
2, 87552, Note_on_c, 0, 64, 0
2, 87840, Note_on_c, 0, 64, 65
2, 88032, Note_on_c, 0, 64, 0
2, 88320, Note_on_c, 0, 68, 65
2, 88512, Note_on_c, 0, 68, 0
2, 88800, Note_on_c, 0, 64, 64
2, 88992, Note_on_c, 0, 64, 0
2, 89280, Note_on_c, 0, 63, 64
2, 89472, Note_on_c, 0, 63, 0
2, 89760, Note_on_c, 0, 66, 64
2, 89952, Note_on_c, 0, 66, 0
2, 90240, Note_on_c, 0, 63, 63
2, 90432, Note_on_c, 0, 63, 0
2, 90720, Note_on_c, 0, 63, 63
2, 90912, Note_on_c, 0, 63, 0
2, 91200, Note_on_c, 0, 66, 62
2, 91392, Note_on_c, 0, 66, 0
2, 91680, Note_on_c, 0, 63, 62
2, 91872, Note_on_c, 0, 63, 0
2, 92160, Note_on_c, 0, 63, 62
2, 92352, Note_on_c, 0, 63, 0
2, 92640, Note_on_c, 0, 66, 61
2, 92832, Note_on_c, 0, 66, 0
2, 93120, Note_on_c, 0, 63, 61
2, 93312, Note_on_c, 0, 63, 0
2, 93600, Note_on_c, 0, 63, 61
2, 93792, Note_on_c, 0, 63, 0
2, 94080, Note_on_c, 0, 66, 60
2, 94272, Note_on_c, 0, 66, 0
2, 94560, Note_on_c, 0, 63, 60
2, 94752, Note_on_c, 0, 63, 0
2, 95040, Note_on_c, 0, 64, 55
2, 95232, Note_on_c, 0, 64, 0
2, 95520, Note_on_c, 0, 64, 52
2, 95712, Note_on_c, 0, 64, 0
2, 96000, Note_on_c, 0, 64, 53
2, 96192, Note_on_c, 0, 64, 0
2, 96480, Note_on_c, 0, 60, 53
2, 96672, Note_on_c, 0, 60, 0
2, 96960, Note_on_c, 0, 64, 52
2, 97152, Note_on_c, 0, 64, 0
2, 97440, Note_on_c, 0, 60, 52
2, 97632, Note_on_c, 0, 60, 0
2, 97920, Note_on_c, 0, 60, 52
2, 98112, Note_on_c, 0, 60, 0
2, 98400, Note_on_c, 0, 64, 51
2, 98592, Note_on_c, 0, 64, 0
2, 98880, Note_on_c, 0, 60, 51
2, 99072, Note_on_c, 0, 60, 0
2, 99360, Note_on_c, 0, 60, 51
2, 99552, Note_on_c, 0, 60, 0
2, 99840, Note_on_c, 0, 64, 50
2, 100032, Note_on_c, 0, 64, 0
2, 100320, Note_on_c, 0, 60, 50
2, 100512, Note_on_c, 0, 60, 0
2, 100800, Note_on_c, 0, 59, 50
2, 100992, Note_on_c, 0, 59, 0
2, 101280, Note_on_c, 0, 62, 50
2, 101472, Note_on_c, 0, 62, 0
2, 101760, Note_on_c, 0, 59, 49
2, 101952, Note_on_c, 0, 59, 0
2, 102240, Note_on_c, 0, 59, 49
2, 102432, Note_on_c, 0, 59, 0
2, 102720, Note_on_c, 0, 62, 49
2, 102912, Note_on_c, 0, 62, 0
2, 103200, Note_on_c, 0, 59, 48
2, 103392, Note_on_c, 0, 59, 0
2, 103680, Note_on_c, 0, 59, 48
2, 103872, Note_on_c, 0, 59, 0
2, 104160, Note_on_c, 0, 62, 48
2, 104352, Note_on_c, 0, 62, 0
2, 104640, Note_on_c, 0, 59, 48
2, 104832, Note_on_c, 0, 59, 0
2, 105120, Note_on_c, 0, 59, 47
2, 105312, Note_on_c, 0, 59, 0
2, 105600, Note_on_c, 0, 62, 47
2, 105792, Note_on_c, 0, 62, 0
2, 106080, Note_on_c, 0, 59, 47
2, 106272, Note_on_c, 0, 59, 0
2, 106560, Note_on_c, 0, 60, 46
2, 106752, Note_on_c, 0, 60, 0
2, 107040, Note_on_c, 0, 60, 46
2, 107232, Note_on_c, 0, 60, 0
2, 107520, Note_on_c, 0, 60, 46
2, 107712, Note_on_c, 0, 60, 0
2, 108000, Note_on_c, 0, 60, 82
2, 108240, Note_on_c, 0, 60, 0
2, 108240, Note_on_c, 0, 55, 82
2, 108480, Note_on_c, 0, 55, 0
2, 108480, Note_on_c, 0, 54, 83
2, 108720, Note_on_c, 0, 54, 0
2, 108720, Note_on_c, 0, 55, 83
2, 108960, Note_on_c, 0, 55, 0
2, 108960, Note_on_c, 0, 59, 84
2, 109200, Note_on_c, 0, 59, 0
2, 109200, Note_on_c, 0, 60, 84
2, 109440, Note_on_c, 0, 60, 0
2, 109440, Note_on_c, 0, 62, 85
2, 109680, Note_on_c, 0, 62, 0
2, 109680, Note_on_c, 0, 55, 85
2, 109920, Note_on_c, 0, 55, 0
2, 109920, Note_on_c, 0, 54, 86
2, 110160, Note_on_c, 0, 54, 0
2, 110160, Note_on_c, 0, 55, 86
2, 110400, Note_on_c, 0, 55, 0
2, 110400, Note_on_c, 0, 60, 87
2, 110640, Note_on_c, 0, 60, 0
2, 110640, Note_on_c, 0, 62, 87
2, 110880, Note_on_c, 0, 62, 0
2, 110880, Note_on_c, 0, 64, 88
2, 111120, Note_on_c, 0, 64, 0
2, 111120, Note_on_c, 0, 60, 89
2, 111360, Note_on_c, 0, 60, 0
2, 111360, Note_on_c, 0, 59, 89
2, 111600, Note_on_c, 0, 59, 0
2, 111600, Note_on_c, 0, 60, 90
2, 111840, Note_on_c, 0, 60, 0
2, 111840, Note_on_c, 0, 65, 90
2, 112080, Note_on_c, 0, 65, 0
2, 112080, Note_on_c, 0, 67, 91
2, 112320, Note_on_c, 0, 67, 0
2, 112320, Note_on_c, 0, 69, 93
2, 112560, Note_on_c, 0, 69, 0
2, 112560, Note_on_c, 0, 67, 92
2, 112800, Note_on_c, 0, 67, 0
2, 112800, Note_on_c, 0, 65, 90
2, 113040, Note_on_c, 0, 65, 0
2, 113040, Note_on_c, 0, 64, 90
2, 113280, Note_on_c, 0, 64, 0
2, 113280, Note_on_c, 0, 62, 87
2, 113520, Note_on_c, 0, 62, 0
2, 113520, Note_on_c, 0, 60, 85
2, 113760, Note_on_c, 0, 60, 0
2, 113760, Note_on_c, 0, 59, 82
2, 114240, Note_on_c, 0, 59, 0
2, 114720, Note_on_c, 0, 77, 58
2, 114960, Note_on_c, 0, 77, 0
2, 114960, Note_on_c, 0, 79, 60
2, 115200, Note_on_c, 0, 79, 0
2, 115200, Note_on_c, 0, 81, 65
2, 115440, Note_on_c, 0, 81, 0
2, 115440, Note_on_c, 0, 79, 63
2, 115680, Note_on_c, 0, 79, 0
2, 115680, Note_on_c, 0, 77, 61
2, 115920, Note_on_c, 0, 77, 0
2, 115920, Note_on_c, 0, 76, 60
2, 116160, Note_on_c, 0, 76, 0
2, 116160, Note_on_c, 0, 74, 58
2, 116400, Note_on_c, 0, 74, 0
2, 116400, Note_on_c, 0, 72, 56
2, 116640, Note_on_c, 0, 72, 0
2, 116640, Note_on_c, 0, 71, 54
2, 117120, Note_on_c, 0, 71, 0
2, 117600, Note_on_c, 0, 65, 58
2, 117840, Note_on_c, 0, 65, 0
2, 117840, Note_on_c, 0, 67, 62
2, 118080, Note_on_c, 0, 67, 0
2, 118080, Note_on_c, 0, 68, 65
2, 118320, Note_on_c, 0, 68, 0
2, 118320, Note_on_c, 0, 67, 69
2, 118560, Note_on_c, 0, 67, 0
2, 118560, Note_on_c, 0, 65, 72
2, 118800, Note_on_c, 0, 65, 0
2, 118800, Note_on_c, 0, 63, 76
2, 119040, Note_on_c, 0, 63, 0
2, 119040, Note_on_c, 0, 62, 79
2, 119280, Note_on_c, 0, 62, 0
2, 119280, Note_on_c, 0, 67, 83
2, 119520, Note_on_c, 0, 67, 0
2, 119520, Note_on_c, 0, 60, 81
2, 119712, Note_on_c, 0, 60, 0
2, 120000, Note_on_c, 0, 63, 81
2, 120192, Note_on_c, 0, 63, 0
2, 120480, Note_on_c, 0, 60, 81
2, 120672, Note_on_c, 0, 60, 0
2, 120960, Note_on_c, 0, 60, 80
2, 121152, Note_on_c, 0, 60, 0
2, 121440, Note_on_c, 0, 63, 80
2, 121632, Note_on_c, 0, 63, 0
2, 121920, Note_on_c, 0, 60, 80
2, 122112, Note_on_c, 0, 60, 0
2, 122400, Note_on_c, 0, 60, 79
2, 122592, Note_on_c, 0, 60, 0
2, 122880, Note_on_c, 0, 63, 79
2, 123072, Note_on_c, 0, 63, 0
2, 123360, Note_on_c, 0, 60, 78
2, 123552, Note_on_c, 0, 60, 0
2, 123840, Note_on_c, 0, 59, 78
2, 124032, Note_on_c, 0, 59, 0
2, 124320, Note_on_c, 0, 62, 78
2, 124512, Note_on_c, 0, 62, 0
2, 124800, Note_on_c, 0, 59, 77
2, 124992, Note_on_c, 0, 59, 0
2, 125280, Note_on_c, 0, 59, 77
2, 125472, Note_on_c, 0, 59, 0
2, 125760, Note_on_c, 0, 62, 76
2, 125952, Note_on_c, 0, 62, 0
2, 126240, Note_on_c, 0, 59, 76
2, 126432, Note_on_c, 0, 59, 0
2, 126720, Note_on_c, 0, 59, 76
2, 126912, Note_on_c, 0, 59, 0
2, 127200, Note_on_c, 0, 62, 75
2, 127392, Note_on_c, 0, 62, 0
2, 127680, Note_on_c, 0, 59, 75
2, 127872, Note_on_c, 0, 59, 0
2, 128160, Note_on_c, 0, 59, 75
2, 128352, Note_on_c, 0, 59, 0
2, 128640, Note_on_c, 0, 62, 74
2, 128832, Note_on_c, 0, 62, 0
2, 129120, Note_on_c, 0, 59, 74
2, 129312, Note_on_c, 0, 59, 0
2, 129600, Note_on_c, 0, 60, 61
2, 129792, Note_on_c, 0, 60, 0
2, 130080, Note_on_c, 0, 60, 61
2, 130320, Note_on_c, 0, 60, 0
2, 130560, Note_on_c, 0, 62, 60
2, 130800, Note_on_c, 0, 62, 0
2, 131040, Note_on_c, 0, 63, 60
2, 131232, Note_on_c, 0, 63, 0
2, 131520, Note_on_c, 0, 67, 60
2, 131712, Note_on_c, 0, 67, 0
2, 132000, Note_on_c, 0, 63, 59
2, 132192, Note_on_c, 0, 63, 0
2, 132480, Note_on_c, 0, 63, 59
2, 132672, Note_on_c, 0, 63, 0
2, 132960, Note_on_c, 0, 67, 58
2, 133152, Note_on_c, 0, 67, 0
2, 133440, Note_on_c, 0, 63, 58
2, 133632, Note_on_c, 0, 63, 0
2, 133920, Note_on_c, 0, 63, 57
2, 134112, Note_on_c, 0, 63, 0
2, 134400, Note_on_c, 0, 67, 57
2, 134592, Note_on_c, 0, 67, 0
2, 134880, Note_on_c, 0, 63, 56
2, 135072, Note_on_c, 0, 63, 0
2, 135360, Note_on_c, 0, 62, 56
2, 135552, Note_on_c, 0, 62, 0
2, 135840, Note_on_c, 0, 65, 56
2, 136032, Note_on_c, 0, 65, 0
2, 136320, Note_on_c, 0, 62, 55
2, 136512, Note_on_c, 0, 62, 0
2, 136800, Note_on_c, 0, 62, 55
2, 136992, Note_on_c, 0, 62, 0
2, 137280, Note_on_c, 0, 65, 54
2, 137472, Note_on_c, 0, 65, 0
2, 137760, Note_on_c, 0, 62, 54
2, 137952, Note_on_c, 0, 62, 0
2, 138240, Note_on_c, 0, 62, 53
2, 138432, Note_on_c, 0, 62, 0
2, 138720, Note_on_c, 0, 65, 53
2, 138912, Note_on_c, 0, 65, 0
2, 139200, Note_on_c, 0, 62, 52
2, 139392, Note_on_c, 0, 62, 0
2, 139680, Note_on_c, 0, 62, 52
2, 139872, Note_on_c, 0, 62, 0
2, 140160, Note_on_c, 0, 65, 52
2, 140352, Note_on_c, 0, 65, 0
2, 140640, Note_on_c, 0, 62, 51
2, 140832, Note_on_c, 0, 62, 0
2, 141120, Note_on_c, 0, 63, 51
2, 141312, Note_on_c, 0, 63, 0
2, 141600, Note_on_c, 0, 63, 50
2, 141792, Note_on_c, 0, 63, 0
2, 142080, Note_on_c, 0, 63, 50
2, 142272, Note_on_c, 0, 63, 0
2, 142560, Note_on_c, 0, 63, 78
2, 142800, Note_on_c, 0, 63, 0
2, 142800, Note_on_c, 0, 58, 78
2, 143040, Note_on_c, 0, 58, 0
2, 143040, Note_on_c, 0, 57, 79
2, 143280, Note_on_c, 0, 57, 0
2, 143280, Note_on_c, 0, 58, 79
2, 143520, Note_on_c, 0, 58, 0
2, 143520, Note_on_c, 0, 62, 80
2, 143760, Note_on_c, 0, 62, 0
2, 143760, Note_on_c, 0, 63, 80
2, 144000, Note_on_c, 0, 63, 0
2, 144000, Note_on_c, 0, 65, 81
2, 144240, Note_on_c, 0, 65, 0
2, 144240, Note_on_c, 0, 58, 81
2, 144480, Note_on_c, 0, 58, 0
2, 144480, Note_on_c, 0, 57, 82
2, 144720, Note_on_c, 0, 57, 0
2, 144720, Note_on_c, 0, 58, 82
2, 144960, Note_on_c, 0, 58, 0
2, 144960, Note_on_c, 0, 63, 83
2, 145200, Note_on_c, 0, 63, 0
2, 145200, Note_on_c, 0, 65, 83
2, 145440, Note_on_c, 0, 65, 0
2, 145440, Note_on_c, 0, 67, 83
2, 145680, Note_on_c, 0, 67, 0
2, 145680, Note_on_c, 0, 63, 84
2, 145920, Note_on_c, 0, 63, 0
2, 145920, Note_on_c, 0, 62, 84
2, 146160, Note_on_c, 0, 62, 0
2, 146160, Note_on_c, 0, 63, 85
2, 146400, Note_on_c, 0, 63, 0
2, 146400, Note_on_c, 0, 68, 85
2, 146640, Note_on_c, 0, 68, 0
2, 146640, Note_on_c, 0, 70, 86
2, 146880, Note_on_c, 0, 70, 0
2, 146880, Note_on_c, 0, 72, 89
2, 147120, Note_on_c, 0, 72, 0
2, 147120, Note_on_c, 0, 70, 88
2, 147360, Note_on_c, 0, 70, 0
2, 147360, Note_on_c, 0, 68, 87
2, 147600, Note_on_c, 0, 68, 0
2, 147600, Note_on_c, 0, 67, 86
2, 147840, Note_on_c, 0, 67, 0
2, 147840, Note_on_c, 0, 65, 84
2, 148080, Note_on_c, 0, 65, 0
2, 148080, Note_on_c, 0, 63, 82
2, 148320, Note_on_c, 0, 63, 0
2, 148320, Note_on_c, 0, 62, 80
2, 148800, Note_on_c, 0, 62, 0
2, 149280, Note_on_c, 0, 80, 58
2, 149520, Note_on_c, 0, 80, 0
2, 149520, Note_on_c, 0, 82, 60
2, 149760, Note_on_c, 0, 82, 0
2, 149760, Note_on_c, 0, 84, 63
2, 150000, Note_on_c, 0, 84, 0
2, 150000, Note_on_c, 0, 82, 62
2, 150240, Note_on_c, 0, 82, 0
2, 150240, Note_on_c, 0, 80, 60
2, 150480, Note_on_c, 0, 80, 0
2, 150480, Note_on_c, 0, 79, 59
2, 150720, Note_on_c, 0, 79, 0
2, 150720, Note_on_c, 0, 77, 57
2, 150960, Note_on_c, 0, 77, 0
2, 150960, Note_on_c, 0, 75, 56
2, 151200, Note_on_c, 0, 75, 0
2, 151200, Note_on_c, 0, 74, 54
2, 151680, Note_on_c, 0, 74, 0
2, 152160, Note_on_c, 0, 60, 81
2, 152400, Note_on_c, 0, 60, 0
2, 152400, Note_on_c, 0, 62, 84
2, 152640, Note_on_c, 0, 62, 0
2, 152640, Note_on_c, 0, 63, 87
2, 152880, Note_on_c, 0, 63, 0
2, 152880, Note_on_c, 0, 62, 86
2, 153120, Note_on_c, 0, 62, 0
2, 153120, Note_on_c, 0, 60, 84
2, 153360, Note_on_c, 0, 60, 0
2, 153360, Note_on_c, 0, 58, 83
2, 153600, Note_on_c, 0, 58, 0
2, 153600, Note_on_c, 0, 57, 82
2, 153840, Note_on_c, 0, 57, 0
2, 153840, Note_on_c, 0, 55, 80
2, 154080, Note_on_c, 0, 55, 0
2, 154080, Note_on_c, 0, 54, 79
2, 154560, Note_on_c, 0, 54, 0
2, 155040, Note_on_c, 0, 84, 57
2, 155280, Note_on_c, 0, 84, 0
2, 155280, Note_on_c, 0, 86, 58
2, 155520, Note_on_c, 0, 86, 0
2, 155520, Note_on_c, 0, 87, 60
2, 155760, Note_on_c, 0, 87, 0
2, 155760, Note_on_c, 0, 86, 62
2, 156000, Note_on_c, 0, 86, 0
2, 156000, Note_on_c, 0, 84, 64
2, 156240, Note_on_c, 0, 84, 0
2, 156240, Note_on_c, 0, 82, 66
2, 156480, Note_on_c, 0, 82, 0
2, 156480, Note_on_c, 0, 81, 68
2, 156720, Note_on_c, 0, 81, 0
2, 156720, Note_on_c, 0, 79, 69
2, 156960, Note_on_c, 0, 79, 0
2, 156960, Note_on_c, 0, 78, 71
2, 157200, Note_on_c, 0, 78, 0
2, 157200, Note_on_c, 0, 75, 73
2, 157440, Note_on_c, 0, 75, 0
2, 157440, Note_on_c, 0, 74, 75
2, 157680, Note_on_c, 0, 74, 0
2, 157680, Note_on_c, 0, 72, 77
2, 157920, Note_on_c, 0, 72, 0
2, 157920, Note_on_c, 0, 70, 79
2, 158160, Note_on_c, 0, 70, 0
2, 158160, Note_on_c, 0, 69, 80
2, 158400, Note_on_c, 0, 69, 0
2, 158400, Note_on_c, 0, 67, 82
2, 158640, Note_on_c, 0, 67, 0
2, 158640, Note_on_c, 0, 66, 79
2, 158880, Note_on_c, 0, 66, 0
2, 158880, Note_on_c, 0, 67, 79
2, 159120, Note_on_c, 0, 67, 0
2, 159120, Note_on_c, 0, 69, 78
2, 159360, Note_on_c, 0, 69, 0
2, 159360, Note_on_c, 0, 70, 78
2, 159600, Note_on_c, 0, 70, 0
2, 159600, Note_on_c, 0, 67, 77
2, 159840, Note_on_c, 0, 67, 0
2, 159840, Note_on_c, 0, 66, 77
2, 160320, Note_on_c, 0, 66, 0
2, 160320, Note_on_c, 0, 66, 76
2, 160512, Note_on_c, 0, 66, 0
2, 160800, Note_on_c, 0, 62, 75
2, 160992, Note_on_c, 0, 62, 0
2, 161280, Note_on_c, 0, 62, 74
2, 161472, Note_on_c, 0, 62, 0
2, 161760, Note_on_c, 0, 66, 73
2, 161952, Note_on_c, 0, 66, 0
2, 162240, Note_on_c, 0, 62, 72
2, 162432, Note_on_c, 0, 62, 0
2, 162720, Note_on_c, 0, 62, 71
2, 162912, Note_on_c, 0, 62, 0
2, 163200, Note_on_c, 0, 66, 70
2, 163392, Note_on_c, 0, 66, 0
2, 163680, Note_on_c, 0, 62, 69
2, 163872, Note_on_c, 0, 62, 0
2, 164160, Note_on_c, 0, 61, 68
2, 164352, Note_on_c, 0, 61, 0
2, 164640, Note_on_c, 0, 64, 67
2, 164832, Note_on_c, 0, 64, 0
2, 165120, Note_on_c, 0, 61, 66
2, 165312, Note_on_c, 0, 61, 0
2, 165600, Note_on_c, 0, 61, 65
2, 165792, Note_on_c, 0, 61, 0
2, 166080, Note_on_c, 0, 64, 64
2, 166272, Note_on_c, 0, 64, 0
2, 166560, Note_on_c, 0, 61, 63
2, 166752, Note_on_c, 0, 61, 0
2, 167040, Note_on_c, 0, 61, 62
2, 167232, Note_on_c, 0, 61, 0
2, 167520, Note_on_c, 0, 64, 61
2, 167712, Note_on_c, 0, 64, 0
2, 168000, Note_on_c, 0, 61, 60
2, 168192, Note_on_c, 0, 61, 0
2, 168480, Note_on_c, 0, 61, 59
2, 168672, Note_on_c, 0, 61, 0
2, 168960, Note_on_c, 0, 64, 58
2, 169152, Note_on_c, 0, 64, 0
2, 169440, Note_on_c, 0, 61, 58
2, 169632, Note_on_c, 0, 61, 0
2, 169920, Note_on_c, 0, 62, 57
2, 170112, Note_on_c, 0, 62, 0
2, 170400, Note_on_c, 0, 69, 56
2, 170592, Note_on_c, 0, 69, 0
2, 170880, Note_on_c, 0, 69, 55
2, 171072, Note_on_c, 0, 69, 0
2, 171360, Note_on_c, 0, 74, 54
2, 171552, Note_on_c, 0, 74, 0
2, 171840, Note_on_c, 0, 74, 55
2, 172032, Note_on_c, 0, 74, 0
2, 172320, Note_on_c, 0, 74, 58
2, 172512, Note_on_c, 0, 74, 0
2, 172800, Note_on_c, 0, 74, 61
2, 172992, Note_on_c, 0, 74, 0
2, 173280, Note_on_c, 0, 74, 64
2, 173472, Note_on_c, 0, 74, 0
2, 173760, Note_on_c, 0, 74, 67
2, 173952, Note_on_c, 0, 74, 0
2, 174240, Note_on_c, 0, 72, 70
2, 174432, Note_on_c, 0, 72, 0
2, 174720, Note_on_c, 0, 72, 73
2, 174912, Note_on_c, 0, 72, 0
2, 175200, Note_on_c, 0, 72, 76
2, 175392, Note_on_c, 0, 72, 0
2, 175680, Note_on_c, 0, 72, 79
2, 175872, Note_on_c, 0, 72, 0
2, 176160, Note_on_c, 0, 72, 82
2, 176352, Note_on_c, 0, 72, 0
2, 176640, Note_on_c, 0, 72, 85
2, 176832, Note_on_c, 0, 72, 0
2, 177120, Note_on_c, 0, 79, 90
2, 177360, Note_on_c, 0, 79, 0
2, 177600, Note_on_c, 0, 83, 93
2, 177792, Note_on_c, 0, 83, 0
2, 178080, Note_on_c, 0, 79, 95
2, 178272, Note_on_c, 0, 79, 0
2, 178560, Note_on_c, 0, 86, 98
2, 179520, Note_on_c, 0, 86, 0
2, 179520, Note_on_c, 0, 84, 92
2, 179760, Note_on_c, 0, 84, 0
2, 179760, Note_on_c, 0, 83, 92
2, 180000, Note_on_c, 0, 83, 0
2, 180000, Note_on_c, 0, 81, 91
2, 180240, Note_on_c, 0, 81, 0
2, 180240, Note_on_c, 0, 79, 91
2, 180480, Note_on_c, 0, 79, 0
2, 180480, Note_on_c, 0, 78, 91
2, 180720, Note_on_c, 0, 78, 0
2, 180720, Note_on_c, 0, 79, 90
2, 180960, Note_on_c, 0, 79, 0
2, 180960, Note_on_c, 0, 83, 90
2, 181200, Note_on_c, 0, 83, 0
2, 181200, Note_on_c, 0, 79, 89
2, 181440, Note_on_c, 0, 79, 0
2, 181440, Note_on_c, 0, 78, 89
2, 181920, Note_on_c, 0, 78, 0
2, 181920, Note_on_c, 0, 76, 85
2, 182280, Note_on_c, 0, 76, 0
2, 182400, Note_on_c, 0, 74, 88
2, 182640, Note_on_c, 0, 74, 0
2, 182640, Note_on_c, 0, 72, 87
2, 182880, Note_on_c, 0, 72, 0
2, 182880, Note_on_c, 0, 71, 87
2, 183120, Note_on_c, 0, 71, 0
2, 183120, Note_on_c, 0, 69, 86
2, 183360, Note_on_c, 0, 69, 0
2, 183360, Note_on_c, 0, 68, 86
2, 183600, Note_on_c, 0, 68, 0
2, 183600, Note_on_c, 0, 69, 86
2, 183840, Note_on_c, 0, 69, 0
2, 183840, Note_on_c, 0, 72, 85
2, 184080, Note_on_c, 0, 72, 0
2, 184080, Note_on_c, 0, 69, 85
2, 184320, Note_on_c, 0, 69, 0
2, 184320, Note_on_c, 0, 66, 84
2, 185040, Note_on_c, 0, 71, 83
2, 185070, Note_on_c, 0, 66, 0
2, 185120, Note_on_c, 0, 71, 0
2, 185120, Note_on_c, 0, 69, 83
2, 185200, Note_on_c, 0, 69, 0
2, 185200, Note_on_c, 0, 68, 83
2, 185280, Note_on_c, 0, 68, 0
2, 185280, Note_on_c, 0, 69, 83
2, 185760, Note_on_c, 0, 69, 0
2, 185760, Note_on_c, 0, 72, 82
2, 186000, Note_on_c, 0, 72, 0
2, 186240, Note_on_c, 0, 69, 81
2, 186432, Note_on_c, 0, 69, 0
2, 186720, Note_on_c, 0, 66, 81
2, 186912, Note_on_c, 0, 66, 0
2, 187200, Note_on_c, 0, 67, 84
2, 187440, Note_on_c, 0, 67, 0
2, 187440, Note_on_c, 0, 62, 84
2, 187680, Note_on_c, 0, 62, 0
2, 187680, Note_on_c, 0, 61, 84
2, 187920, Note_on_c, 0, 61, 0
2, 187920, Note_on_c, 0, 62, 84
2, 188160, Note_on_c, 0, 62, 0
2, 188160, Note_on_c, 0, 66, 85
2, 188400, Note_on_c, 0, 66, 0
2, 188400, Note_on_c, 0, 67, 85
2, 188640, Note_on_c, 0, 67, 0
2, 188640, Note_on_c, 0, 69, 85
2, 188880, Note_on_c, 0, 69, 0
2, 188880, Note_on_c, 0, 62, 85
2, 189120, Note_on_c, 0, 62, 0
2, 189120, Note_on_c, 0, 61, 86
2, 189360, Note_on_c, 0, 61, 0
2, 189360, Note_on_c, 0, 62, 86
2, 189600, Note_on_c, 0, 62, 0
2, 189600, Note_on_c, 0, 67, 86
2, 189840, Note_on_c, 0, 67, 0
2, 189840, Note_on_c, 0, 69, 86
2, 190080, Note_on_c, 0, 69, 0
2, 190080, Note_on_c, 0, 71, 87
2, 190320, Note_on_c, 0, 71, 0
2, 190320, Note_on_c, 0, 67, 87
2, 190560, Note_on_c, 0, 67, 0
2, 190560, Note_on_c, 0, 66, 87
2, 190800, Note_on_c, 0, 66, 0
2, 190800, Note_on_c, 0, 67, 87
2, 191040, Note_on_c, 0, 67, 0
2, 191040, Note_on_c, 0, 69, 88
2, 191280, Note_on_c, 0, 69, 0
2, 191280, Note_on_c, 0, 71, 88
2, 191520, Note_on_c, 0, 71, 0
2, 191520, Note_on_c, 0, 72, 88
2, 191760, Note_on_c, 0, 72, 0
2, 191760, Note_on_c, 0, 67, 88
2, 192000, Note_on_c, 0, 67, 0
2, 192000, Note_on_c, 0, 66, 89
2, 192240, Note_on_c, 0, 66, 0
2, 192240, Note_on_c, 0, 67, 89
2, 192480, Note_on_c, 0, 67, 0
2, 192480, Note_on_c, 0, 71, 89
2, 192720, Note_on_c, 0, 71, 0
2, 192720, Note_on_c, 0, 72, 89
2, 192960, Note_on_c, 0, 72, 0
2, 192960, Note_on_c, 0, 74, 69
2, 193440, Note_on_c, 0, 74, 0
2, 193440, Control_c, 0, 64, 127
2, 193680, Note_on_c, 0, 62, 69
2, 193920, Note_on_c, 0, 62, 0
2, 193920, Note_on_c, 0, 67, 69
2, 194160, Note_on_c, 0, 67, 0
2, 194160, Note_on_c, 0, 71, 68
2, 194400, Note_on_c, 0, 71, 0
2, 194400, Note_on_c, 0, 74, 68
2, 194640, Note_on_c, 0, 74, 0
2, 194640, Note_on_c, 0, 67, 68
2, 194880, Note_on_c, 0, 67, 0
2, 194880, Note_on_c, 0, 71, 68
2, 195120, Note_on_c, 0, 71, 0
2, 195120, Note_on_c, 0, 74, 67
2, 195360, Note_on_c, 0, 74, 0
2, 195360, Note_on_c, 0, 79, 67
2, 195600, Note_on_c, 0, 79, 0
2, 195600, Note_on_c, 0, 71, 67
2, 195840, Note_on_c, 0, 71, 0
2, 195840, Note_on_c, 0, 74, 67
2, 196080, Note_on_c, 0, 74, 0
2, 196080, Note_on_c, 0, 79, 67
2, 196320, Note_on_c, 0, 79, 0
2, 196320, Note_on_c, 0, 83, 66
2, 196560, Note_on_c, 0, 83, 0
2, 196560, Note_on_c, 0, 74, 66
2, 196800, Note_on_c, 0, 74, 0
2, 196800, Note_on_c, 0, 79, 66
2, 197040, Note_on_c, 0, 79, 0
2, 197040, Note_on_c, 0, 83, 66
2, 197280, Note_on_c, 0, 83, 0
2, 197280, Control_c, 0, 64, 0
2, 197280, Note_on_c, 0, 86, 66
2, 197520, Note_on_c, 0, 86, 0
2, 197520, Note_on_c, 0, 84, 65
2, 197760, Note_on_c, 0, 84, 0
2, 197760, Note_on_c, 0, 83, 65
2, 198000, Note_on_c, 0, 83, 0
2, 198000, Note_on_c, 0, 81, 65
2, 198240, Note_on_c, 0, 81, 0
2, 198240, Note_on_c, 0, 79, 65
2, 198480, Note_on_c, 0, 79, 0
2, 198480, Note_on_c, 0, 77, 64
2, 198720, Note_on_c, 0, 77, 0
2, 198720, Note_on_c, 0, 76, 64
2, 199200, Note_on_c, 0, 76, 0
2, 199200, Control_c, 0, 64, 127
2, 199440, Note_on_c, 0, 64, 64
2, 199680, Note_on_c, 0, 64, 0
2, 199680, Note_on_c, 0, 67, 63
2, 199920, Note_on_c, 0, 67, 0
2, 199920, Note_on_c, 0, 72, 63
2, 200160, Note_on_c, 0, 72, 0
2, 200160, Note_on_c, 0, 76, 63
2, 200400, Note_on_c, 0, 76, 0
2, 200400, Note_on_c, 0, 64, 63
2, 200640, Note_on_c, 0, 64, 0
2, 200640, Note_on_c, 0, 67, 63
2, 200880, Note_on_c, 0, 67, 0
2, 200880, Note_on_c, 0, 72, 62
2, 201120, Note_on_c, 0, 72, 0
2, 201120, Note_on_c, 0, 76, 62
2, 201360, Note_on_c, 0, 76, 0
2, 201360, Note_on_c, 0, 67, 62
2, 201600, Note_on_c, 0, 67, 0
2, 201600, Note_on_c, 0, 72, 62
2, 201840, Note_on_c, 0, 72, 0
2, 201840, Note_on_c, 0, 76, 61
2, 202080, Note_on_c, 0, 76, 0
2, 202080, Note_on_c, 0, 79, 61
2, 202320, Note_on_c, 0, 79, 0
2, 202320, Note_on_c, 0, 72, 61
2, 202560, Note_on_c, 0, 72, 0
2, 202560, Note_on_c, 0, 76, 61
2, 202800, Note_on_c, 0, 76, 0
2, 202800, Note_on_c, 0, 79, 61
2, 203040, Note_on_c, 0, 79, 0
2, 203040, Note_on_c, 0, 84, 60
2, 203280, Note_on_c, 0, 84, 0
2, 203280, Note_on_c, 0, 76, 60
2, 203520, Note_on_c, 0, 76, 0
2, 203520, Note_on_c, 0, 79, 60
2, 203760, Note_on_c, 0, 79, 0
2, 203760, Note_on_c, 0, 84, 60
2, 204000, Note_on_c, 0, 84, 0
2, 204000, Note_on_c, 0, 88, 60
2, 204240, Note_on_c, 0, 88, 0
2, 204240, Note_on_c, 0, 86, 59
2, 204480, Note_on_c, 0, 86, 0
2, 204480, Control_c, 0, 64, 0
2, 204480, Note_on_c, 0, 73, 59
2, 204960, Note_on_c, 0, 73, 0
2, 204960, Control_c, 0, 64, 127
2, 205200, Note_on_c, 0, 61, 58
2, 205440, Note_on_c, 0, 61, 0
2, 205440, Note_on_c, 0, 64, 58
2, 205680, Note_on_c, 0, 64, 0
2, 205680, Note_on_c, 0, 67, 58
2, 205920, Note_on_c, 0, 67, 0
2, 205920, Note_on_c, 0, 73, 58
2, 206160, Note_on_c, 0, 73, 0
2, 206160, Note_on_c, 0, 64, 58
2, 206400, Note_on_c, 0, 64, 0
2, 206400, Note_on_c, 0, 67, 57
2, 206640, Note_on_c, 0, 67, 0
2, 206640, Note_on_c, 0, 73, 57
2, 206880, Note_on_c, 0, 73, 0
2, 206880, Note_on_c, 0, 76, 57
2, 207120, Note_on_c, 0, 76, 0
2, 207120, Note_on_c, 0, 67, 57
2, 207360, Note_on_c, 0, 67, 0
2, 207360, Note_on_c, 0, 73, 57
2, 207600, Note_on_c, 0, 73, 0
2, 207600, Note_on_c, 0, 76, 56
2, 207840, Note_on_c, 0, 76, 0
2, 207840, Note_on_c, 0, 79, 56
2, 208080, Note_on_c, 0, 79, 0
2, 208080, Note_on_c, 0, 73, 56
2, 208320, Note_on_c, 0, 73, 0
2, 208320, Note_on_c, 0, 76, 56
2, 208560, Note_on_c, 0, 76, 0
2, 208560, Note_on_c, 0, 79, 55
2, 208800, Note_on_c, 0, 79, 0
2, 208800, Note_on_c, 0, 85, 55
2, 209040, Note_on_c, 0, 85, 0
2, 209040, Note_on_c, 0, 88, 55
2, 209280, Note_on_c, 0, 88, 0
2, 209280, Control_c, 0, 64, 0
2, 209280, Note_on_c, 0, 81, 55
2, 209520, Note_on_c, 0, 81, 0
2, 209520, Note_on_c, 0, 83, 55
2, 209760, Note_on_c, 0, 83, 0
2, 209760, Note_on_c, 0, 81, 54
2, 210000, Note_on_c, 0, 81, 0
2, 210000, Note_on_c, 0, 83, 54
2, 210240, Note_on_c, 0, 83, 0
2, 210240, Note_on_c, 0, 81, 60
2, 211680, Note_on_c, 0, 81, 0
2, 211680, Note_on_c, 0, 81, 64
2, 213120, Note_on_c, 0, 81, 0
2, 213120, Note_on_c, 0, 84, 71
2, 214560, Note_on_c, 0, 84, 0
2, 214560, Note_on_c, 0, 83, 62
2, 215040, Note_on_c, 0, 83, 0
2, 215040, Note_on_c, 0, 83, 60
2, 215520, Note_on_c, 0, 83, 0
2, 215520, Note_on_c, 0, 83, 58
2, 216000, Note_on_c, 0, 83, 0
2, 216000, Note_on_c, 0, 81, 56
2, 217440, Note_on_c, 0, 81, 0
2, 217440, Note_on_c, 0, 81, 59
2, 218880, Note_on_c, 0, 81, 0
2, 218880, Note_on_c, 0, 84, 66
2, 220320, Note_on_c, 0, 84, 0
2, 220320, Note_on_c, 0, 83, 59
2, 220800, Note_on_c, 0, 83, 0
2, 220800, Note_on_c, 0, 83, 57
2, 221280, Note_on_c, 0, 83, 0
2, 221280, Note_on_c, 0, 83, 58
2, 221760, Note_on_c, 0, 83, 0
2, 221760, Note_on_c, 0, 81, 59
2, 222000, Note_on_c, 0, 81, 0
2, 222000, Note_on_c, 0, 79, 59
2, 222240, Note_on_c, 0, 79, 0
2, 222240, Note_on_c, 0, 81, 60
2, 222480, Note_on_c, 0, 81, 0
2, 222480, Note_on_c, 0, 83, 60
2, 222720, Note_on_c, 0, 83, 0
2, 222720, Note_on_c, 0, 85, 61
2, 222960, Note_on_c, 0, 85, 0
2, 222960, Note_on_c, 0, 86, 61
2, 223200, Note_on_c, 0, 86, 0
2, 223200, Note_on_c, 0, 85, 62
2, 223440, Note_on_c, 0, 85, 0
2, 223440, Note_on_c, 0, 83, 62
2, 223680, Note_on_c, 0, 83, 0
2, 223680, Note_on_c, 0, 81, 63
2, 223920, Note_on_c, 0, 81, 0
2, 223920, Note_on_c, 0, 79, 63
2, 224160, Note_on_c, 0, 79, 0
2, 224160, Note_on_c, 0, 78, 64
2, 224400, Note_on_c, 0, 78, 0
2, 224400, Note_on_c, 0, 76, 64
2, 224640, Note_on_c, 0, 76, 0
2, 224640, Note_on_c, 0, 79, 65
2, 224880, Note_on_c, 0, 79, 0
2, 224880, Note_on_c, 0, 81, 65
2, 225120, Note_on_c, 0, 81, 0
2, 225120, Note_on_c, 0, 83, 66
2, 225360, Note_on_c, 0, 83, 0
2, 225360, Note_on_c, 0, 85, 66
2, 225600, Note_on_c, 0, 85, 0
2, 225600, Note_on_c, 0, 86, 67
2, 225840, Note_on_c, 0, 86, 0
2, 225840, Note_on_c, 0, 88, 67
2, 226080, Note_on_c, 0, 88, 0
2, 226080, Note_on_c, 0, 86, 68
2, 226320, Note_on_c, 0, 86, 0
2, 226320, Note_on_c, 0, 84, 68
2, 226560, Note_on_c, 0, 84, 0
2, 226560, Note_on_c, 0, 83, 69
2, 226800, Note_on_c, 0, 83, 0
2, 226800, Note_on_c, 0, 81, 70
2, 227040, Note_on_c, 0, 81, 0
2, 227040, Note_on_c, 0, 79, 70
2, 227280, Note_on_c, 0, 79, 0
2, 227280, Note_on_c, 0, 78, 71
2, 227520, Note_on_c, 0, 78, 0
2, 227520, Control_c, 0, 64, 0
2, 227520, Note_on_c, 0, 81, 71
2, 227580, Control_c, 0, 64, 127
2, 227760, Note_on_c, 0, 81, 0
2, 227760, Note_on_c, 0, 84, 72
2, 228000, Note_on_c, 0, 84, 0
2, 228000, Note_on_c, 0, 90, 72
2, 228240, Note_on_c, 0, 90, 0
2, 228240, Note_on_c, 0, 84, 73
2, 228480, Note_on_c, 0, 84, 0
2, 228480, Note_on_c, 0, 93, 73
2, 228720, Note_on_c, 0, 93, 0
2, 228720, Note_on_c, 0, 90, 74
2, 228960, Note_on_c, 0, 90, 0
2, 228960, Note_on_c, 0, 93, 82
2, 229200, Note_on_c, 0, 93, 0
2, 229200, Note_on_c, 0, 90, 75
2, 229440, Note_on_c, 0, 90, 0
2, 229440, Note_on_c, 0, 93, 75
2, 229680, Note_on_c, 0, 93, 0
2, 229680, Note_on_c, 0, 90, 76
2, 229920, Note_on_c, 0, 90, 0
2, 229920, Note_on_c, 0, 93, 76
2, 230160, Note_on_c, 0, 93, 0
2, 230160, Note_on_c, 0, 90, 77
2, 230400, Note_on_c, 0, 90, 0
2, 230400, Control_c, 0, 64, 0
2, 230400, Note_on_c, 0, 93, 84
2, 230460, Control_c, 0, 64, 127
2, 230640, Note_on_c, 0, 93, 0
2, 230640, Note_on_c, 0, 90, 76
2, 230880, Note_on_c, 0, 90, 0
2, 230880, Note_on_c, 0, 86, 74
2, 231120, Note_on_c, 0, 86, 0
2, 231120, Note_on_c, 0, 88, 73
2, 231360, Note_on_c, 0, 88, 0
2, 231360, Note_on_c, 0, 90, 71
2, 231600, Note_on_c, 0, 90, 0
2, 231600, Note_on_c, 0, 86, 70
2, 231840, Note_on_c, 0, 86, 0
2, 231840, Control_c, 0, 64, 0
2, 231840, Note_on_c, 0, 91, 69
2, 231900, Control_c, 0, 64, 127
2, 232080, Note_on_c, 0, 91, 0
2, 232080, Note_on_c, 0, 86, 67
2, 232320, Note_on_c, 0, 86, 0
2, 232320, Note_on_c, 0, 91, 66
2, 232560, Note_on_c, 0, 91, 0
2, 232560, Note_on_c, 0, 86, 64
2, 232800, Note_on_c, 0, 86, 0
2, 232800, Note_on_c, 0, 83, 63
2, 233040, Note_on_c, 0, 83, 0
2, 233040, Note_on_c, 0, 79, 62
2, 233280, Note_on_c, 0, 79, 0
2, 233280, Control_c, 0, 64, 0
2, 233280, Note_on_c, 0, 81, 62
2, 233340, Control_c, 0, 64, 127
2, 233520, Note_on_c, 0, 81, 0
2, 233520, Note_on_c, 0, 84, 63
2, 233760, Note_on_c, 0, 84, 0
2, 233760, Note_on_c, 0, 90, 64
2, 234000, Note_on_c, 0, 90, 0
2, 234000, Note_on_c, 0, 84, 64
2, 234240, Note_on_c, 0, 84, 0
2, 234240, Note_on_c, 0, 93, 65
2, 234480, Note_on_c, 0, 93, 0
2, 234480, Note_on_c, 0, 90, 65
2, 234720, Note_on_c, 0, 90, 0
2, 234720, Note_on_c, 0, 93, 78
2, 234960, Note_on_c, 0, 93, 0
2, 234960, Note_on_c, 0, 90, 67
2, 235200, Note_on_c, 0, 90, 0
2, 235200, Note_on_c, 0, 93, 67
2, 235440, Note_on_c, 0, 93, 0
2, 235440, Note_on_c, 0, 90, 68
2, 235680, Note_on_c, 0, 90, 0
2, 235680, Note_on_c, 0, 93, 69
2, 235920, Note_on_c, 0, 93, 0
2, 235920, Note_on_c, 0, 90, 69
2, 236160, Note_on_c, 0, 90, 0
2, 236160, Control_c, 0, 64, 0
2, 236160, Note_on_c, 0, 93, 82
2, 236220, Control_c, 0, 64, 127
2, 236400, Note_on_c, 0, 93, 0
2, 236400, Note_on_c, 0, 90, 73
2, 236640, Note_on_c, 0, 90, 0
2, 236640, Note_on_c, 0, 86, 72
2, 236880, Note_on_c, 0, 86, 0
2, 236880, Note_on_c, 0, 88, 71
2, 237120, Note_on_c, 0, 88, 0
2, 237120, Note_on_c, 0, 90, 71
2, 237360, Note_on_c, 0, 90, 0
2, 237360, Note_on_c, 0, 86, 70
2, 237600, Note_on_c, 0, 86, 0
2, 237600, Control_c, 0, 64, 0
2, 237600, Note_on_c, 0, 91, 69
2, 237660, Control_c, 0, 64, 127
2, 237840, Note_on_c, 0, 91, 0
2, 237840, Note_on_c, 0, 86, 69
2, 238080, Note_on_c, 0, 86, 0
2, 238080, Note_on_c, 0, 91, 68
2, 238320, Note_on_c, 0, 91, 0
2, 238320, Note_on_c, 0, 86, 67
2, 238560, Note_on_c, 0, 86, 0
2, 238560, Note_on_c, 0, 83, 67
2, 238800, Note_on_c, 0, 83, 0
2, 238800, Note_on_c, 0, 79, 66
2, 239040, Note_on_c, 0, 79, 0
2, 239040, Control_c, 0, 64, 0
2, 239040, Note_on_c, 0, 88, 65
2, 239100, Control_c, 0, 64, 127
2, 239280, Note_on_c, 0, 88, 0
2, 239280, Note_on_c, 0, 84, 65
2, 239520, Note_on_c, 0, 84, 0
2, 239520, Note_on_c, 0, 88, 64
2, 239760, Note_on_c, 0, 88, 0
2, 239760, Note_on_c, 0, 84, 63
2, 240000, Note_on_c, 0, 84, 0
2, 240000, Note_on_c, 0, 79, 63
2, 240240, Note_on_c, 0, 79, 0
2, 240240, Note_on_c, 0, 76, 62
2, 240480, Note_on_c, 0, 76, 0
2, 240480, Control_c, 0, 64, 0
2, 240480, Note_on_c, 0, 74, 61
2, 241440, Note_on_c, 0, 74, 0
2, 241440, Note_on_c, 0, 81, 59
2, 241500, Note_on_c, 0, 81, 0
2, 241500, Note_on_c, 0, 83, 62
2, 241560, Note_on_c, 0, 83, 0
2, 241560, Note_on_c, 0, 81, 65
2, 241620, Note_on_c, 0, 81, 0
2, 241620, Note_on_c, 0, 83, 68
2, 241680, Note_on_c, 0, 83, 0
2, 241680, Note_on_c, 0, 81, 71
2, 241720, Note_on_c, 0, 81, 0
2, 241720, Note_on_c, 0, 83, 73
2, 241760, Note_on_c, 0, 83, 0
2, 241760, Note_on_c, 0, 81, 75
2, 241800, Note_on_c, 0, 81, 0
2, 241800, Note_on_c, 0, 79, 77
2, 241860, Note_on_c, 0, 79, 0
2, 241860, Note_on_c, 0, 81, 80
2, 241920, Note_on_c, 0, 81, 0
2, 241920, Note_on_c, 0, 79, 93
2, 242160, Note_on_c, 0, 79, 0
2, 242400, Note_on_c, 0, 86, 92
2, 242592, Note_on_c, 0, 86, 0
2, 242880, Note_on_c, 0, 79, 90
2, 243072, Note_on_c, 0, 79, 0
2, 243840, Note_on_c, 0, 81, 87
2, 244032, Note_on_c, 0, 81, 0
2, 244320, Note_on_c, 0, 78, 86
2, 244512, Note_on_c, 0, 78, 0
2, 245280, Note_on_c, 0, 74, 63
2, 245472, Note_on_c, 0, 74, 0
2, 245760, Note_on_c, 0, 67, 62
2, 245952, Note_on_c, 0, 67, 0
2, 246720, Note_on_c, 0, 72, 60
2, 246912, Note_on_c, 0, 72, 0
2, 247200, Note_on_c, 0, 66, 58
2, 247392, Note_on_c, 0, 66, 0
2, 248160, Note_on_c, 0, 86, 85
2, 248352, Note_on_c, 0, 86, 0
2, 248640, Note_on_c, 0, 79, 83
2, 248832, Note_on_c, 0, 79, 0
2, 249600, Note_on_c, 0, 84, 80
2, 249792, Note_on_c, 0, 84, 0
2, 250080, Note_on_c, 0, 78, 78
2, 250272, Note_on_c, 0, 78, 0
2, 251040, Note_on_c, 0, 74, 55
2, 251232, Note_on_c, 0, 74, 0
2, 251520, Note_on_c, 0, 67, 54
2, 251712, Note_on_c, 0, 67, 0
2, 252480, Note_on_c, 0, 72, 52
2, 252672, Note_on_c, 0, 72, 0
2, 252960, Note_on_c, 0, 66, 51
2, 253152, Note_on_c, 0, 66, 0
2, 253440, Note_on_c, 0, 71, 72
2, 253680, Note_on_c, 0, 71, 0
2, 253920, Note_on_c, 0, 71, 75
2, 254160, Note_on_c, 0, 71, 0
2, 254400, Note_on_c, 0, 71, 78
2, 254640, Note_on_c, 0, 71, 0
2, 254880, Note_on_c, 0, 71, 81
2, 255120, Note_on_c, 0, 71, 0
2, 255360, Note_on_c, 0, 71, 75
2, 255600, Note_on_c, 0, 71, 0
2, 255840, Note_on_c, 0, 71, 74
2, 256080, Note_on_c, 0, 71, 0
2, 256320, Note_on_c, 0, 71, 73
2, 256560, Note_on_c, 0, 71, 0
2, 256800, Note_on_c, 0, 71, 72
2, 257040, Note_on_c, 0, 71, 0
2, 257280, Note_on_c, 0, 71, 71
2, 257520, Note_on_c, 0, 71, 0
2, 257760, Note_on_c, 0, 72, 70
2, 258000, Note_on_c, 0, 72, 0
2, 258240, Note_on_c, 0, 72, 69
2, 258480, Note_on_c, 0, 72, 0
2, 258720, Note_on_c, 0, 72, 68
2, 258960, Note_on_c, 0, 72, 0
2, 259200, Note_on_c, 0, 69, 84
2, 259440, Note_on_c, 0, 69, 0
2, 259680, Note_on_c, 0, 72, 86
2, 259872, Note_on_c, 0, 72, 0
2, 260160, Note_on_c, 0, 69, 89
2, 260352, Note_on_c, 0, 69, 0
2, 260640, Note_on_c, 0, 76, 91
2, 261600, Note_on_c, 0, 76, 0
2, 261600, Note_on_c, 0, 74, 89
2, 261840, Note_on_c, 0, 74, 0
2, 261840, Note_on_c, 0, 72, 88
2, 262080, Note_on_c, 0, 72, 0
2, 262080, Note_on_c, 0, 71, 87
2, 262320, Note_on_c, 0, 71, 0
2, 262320, Note_on_c, 0, 69, 86
2, 262560, Note_on_c, 0, 69, 0
2, 262560, Note_on_c, 0, 72, 86
2, 262800, Note_on_c, 0, 72, 0
2, 262800, Note_on_c, 0, 69, 85
2, 263040, Note_on_c, 0, 69, 0
2, 263040, Note_on_c, 0, 66, 84
2, 263280, Note_on_c, 0, 66, 0
2, 263280, Note_on_c, 0, 69, 84
2, 263520, Note_on_c, 0, 69, 0
2, 263520, Note_on_c, 0, 69, 83
2, 264000, Note_on_c, 0, 69, 0
2, 264000, Note_on_c, 0, 67, 82
2, 264192, Note_on_c, 0, 67, 0
2, 264480, Note_on_c, 0, 67, 80
2, 264672, Note_on_c, 0, 67, 0
2, 264960, Note_on_c, 0, 74, 74
2, 265200, Note_on_c, 0, 74, 0
2, 265440, Note_on_c, 0, 74, 77
2, 265680, Note_on_c, 0, 74, 0
2, 265920, Note_on_c, 0, 74, 80
2, 266160, Note_on_c, 0, 74, 0
2, 266400, Note_on_c, 0, 74, 82
2, 266640, Note_on_c, 0, 74, 0
2, 266880, Note_on_c, 0, 74, 77
2, 267120, Note_on_c, 0, 74, 0
2, 267360, Note_on_c, 0, 74, 76
2, 267600, Note_on_c, 0, 74, 0
2, 267840, Note_on_c, 0, 74, 75
2, 268080, Note_on_c, 0, 74, 0
2, 268320, Note_on_c, 0, 74, 74
2, 268560, Note_on_c, 0, 74, 0
2, 268800, Note_on_c, 0, 74, 73
2, 269040, Note_on_c, 0, 74, 0
2, 269280, Note_on_c, 0, 79, 72
2, 269520, Note_on_c, 0, 79, 0
2, 269760, Note_on_c, 0, 79, 71
2, 270000, Note_on_c, 0, 79, 0
2, 270240, Note_on_c, 0, 79, 70
2, 270480, Note_on_c, 0, 79, 0
2, 270720, Note_on_c, 0, 80, 88
2, 270780, Note_on_c, 0, 81, 89
2, 270847, Note_on_c, 0, 80, 0
2, 270905, Note_on_c, 0, 81, 0
2, 271200, Note_on_c, 0, 83, 92
2, 271260, Note_on_c, 0, 84, 92
2, 271327, Note_on_c, 0, 83, 0
2, 271385, Note_on_c, 0, 84, 0
2, 271680, Note_on_c, 0, 80, 95
2, 271740, Note_on_c, 0, 81, 96
2, 271800, Note_on_c, 0, 80, 0
2, 271860, Note_on_c, 0, 81, 0
2, 272160, Note_on_c, 0, 87, 99
2, 272220, Note_on_c, 0, 88, 99
2, 272287, Note_on_c, 0, 87, 0
2, 273120, Note_on_c, 0, 88, 0
2, 273120, Note_on_c, 0, 86, 92
2, 273360, Note_on_c, 0, 86, 0
2, 273360, Note_on_c, 0, 84, 90
2, 273600, Note_on_c, 0, 84, 0
2, 273600, Note_on_c, 0, 83, 89
2, 273840, Note_on_c, 0, 83, 0
2, 273840, Note_on_c, 0, 81, 87
2, 274080, Note_on_c, 0, 81, 0
2, 274080, Note_on_c, 0, 84, 86
2, 274320, Note_on_c, 0, 84, 0
2, 274320, Note_on_c, 0, 81, 85
2, 274560, Note_on_c, 0, 81, 0
2, 274560, Note_on_c, 0, 78, 83
2, 274800, Note_on_c, 0, 78, 0
2, 274800, Note_on_c, 0, 81, 82
2, 275040, Note_on_c, 0, 81, 0
2, 275040, Note_on_c, 0, 79, 75
2, 275280, Note_on_c, 0, 79, 0
2, 275280, Note_on_c, 0, 74, 75
2, 275520, Note_on_c, 0, 74, 0
2, 275520, Note_on_c, 0, 83, 75
2, 275760, Note_on_c, 0, 83, 0
2, 275760, Note_on_c, 0, 79, 75
2, 276000, Note_on_c, 0, 79, 0
2, 276000, Note_on_c, 0, 74, 74
2, 276240, Note_on_c, 0, 74, 0
2, 276240, Note_on_c, 0, 71, 74
2, 276480, Note_on_c, 0, 71, 0
2, 276480, Note_on_c, 0, 79, 74
2, 276720, Note_on_c, 0, 79, 0
2, 276720, Note_on_c, 0, 74, 74
2, 276960, Note_on_c, 0, 74, 0
2, 276960, Note_on_c, 0, 83, 74
2, 277200, Note_on_c, 0, 83, 0
2, 277200, Note_on_c, 0, 79, 73
2, 277440, Note_on_c, 0, 79, 0
2, 277440, Note_on_c, 0, 74, 73
2, 277680, Note_on_c, 0, 74, 0
2, 277680, Note_on_c, 0, 71, 73
2, 277920, Note_on_c, 0, 71, 0
2, 277920, Note_on_c, 0, 79, 73
2, 278160, Note_on_c, 0, 79, 0
2, 278160, Note_on_c, 0, 74, 72
2, 278400, Note_on_c, 0, 74, 0
2, 278400, Note_on_c, 0, 83, 72
2, 278640, Note_on_c, 0, 83, 0
2, 278640, Note_on_c, 0, 79, 72
2, 278880, Note_on_c, 0, 79, 0
2, 278880, Note_on_c, 0, 74, 72
2, 279120, Note_on_c, 0, 74, 0
2, 279120, Note_on_c, 0, 71, 71
2, 279360, Note_on_c, 0, 71, 0
2, 279360, Note_on_c, 0, 78, 71
2, 279600, Note_on_c, 0, 78, 0
2, 279600, Note_on_c, 0, 74, 71
2, 279840, Note_on_c, 0, 74, 0
2, 279840, Note_on_c, 0, 81, 71
2, 280080, Note_on_c, 0, 81, 0
2, 280080, Note_on_c, 0, 78, 70
2, 280320, Note_on_c, 0, 78, 0
2, 280320, Note_on_c, 0, 74, 70
2, 280560, Note_on_c, 0, 74, 0
2, 280560, Note_on_c, 0, 72, 70
2, 280800, Note_on_c, 0, 72, 0
2, 280800, Note_on_c, 0, 74, 70
2, 281040, Note_on_c, 0, 74, 0
2, 281040, Note_on_c, 0, 71, 69
2, 281280, Note_on_c, 0, 71, 0
2, 281280, Note_on_c, 0, 79, 69
2, 281520, Note_on_c, 0, 79, 0
2, 281520, Note_on_c, 0, 74, 69
2, 281760, Note_on_c, 0, 74, 0
2, 281760, Note_on_c, 0, 71, 69
2, 282000, Note_on_c, 0, 71, 0
2, 282000, Note_on_c, 0, 67, 68
2, 282240, Note_on_c, 0, 67, 0
2, 282240, Note_on_c, 0, 74, 68
2, 282480, Note_on_c, 0, 74, 0
2, 282480, Note_on_c, 0, 71, 68
2, 282720, Note_on_c, 0, 71, 0
2, 282720, Note_on_c, 0, 79, 68
2, 282960, Note_on_c, 0, 79, 0
2, 282960, Note_on_c, 0, 74, 67
2, 283200, Note_on_c, 0, 74, 0
2, 283200, Note_on_c, 0, 71, 67
2, 283440, Note_on_c, 0, 71, 0
2, 283440, Note_on_c, 0, 67, 67
2, 283680, Note_on_c, 0, 67, 0
2, 283680, Note_on_c, 0, 74, 67
2, 283920, Note_on_c, 0, 74, 0
2, 283920, Note_on_c, 0, 71, 66
2, 284160, Note_on_c, 0, 71, 0
2, 284160, Note_on_c, 0, 79, 66
2, 284400, Note_on_c, 0, 79, 0
2, 284400, Note_on_c, 0, 74, 66
2, 284640, Note_on_c, 0, 74, 0
2, 284640, Note_on_c, 0, 71, 66
2, 284880, Note_on_c, 0, 71, 0
2, 284880, Note_on_c, 0, 67, 65
2, 285120, Note_on_c, 0, 67, 0
2, 285120, Note_on_c, 0, 72, 65
2, 285360, Note_on_c, 0, 72, 0
2, 285360, Note_on_c, 0, 69, 65
2, 285600, Note_on_c, 0, 69, 0
2, 285600, Note_on_c, 0, 74, 65
2, 285840, Note_on_c, 0, 74, 0
2, 285840, Note_on_c, 0, 72, 64
2, 286080, Note_on_c, 0, 72, 0
2, 286080, Note_on_c, 0, 69, 64
2, 286320, Note_on_c, 0, 69, 0
2, 286320, Note_on_c, 0, 66, 64
2, 286560, Note_on_c, 0, 66, 0
2, 286560, Note_on_c, 0, 67, 64
2, 287040, Note_on_c, 0, 67, 0
2, 287280, Note_on_c, 0, 55, 63
2, 287520, Note_on_c, 0, 55, 0
2, 287520, Note_on_c, 0, 59, 63
2, 287760, Note_on_c, 0, 59, 0
2, 287760, Note_on_c, 0, 62, 62
2, 288000, Note_on_c, 0, 62, 0
2, 288000, Note_on_c, 0, 67, 62
2, 288240, Note_on_c, 0, 67, 0
2, 288240, Note_on_c, 0, 71, 62
2, 288480, Note_on_c, 0, 71, 0
2, 288480, Note_on_c, 0, 74, 62
2, 288720, Note_on_c, 0, 74, 0
2, 288720, Note_on_c, 0, 79, 61
2, 288960, Note_on_c, 0, 79, 0
2, 288960, Note_on_c, 0, 83, 61
2, 289200, Note_on_c, 0, 83, 0
2, 289200, Note_on_c, 0, 86, 61
2, 289440, Note_on_c, 0, 86, 0
2, 289440, Note_on_c, 0, 91, 61
2, 289920, Note_on_c, 0, 91, 0
2, 290880, Control_c, 0, 10, 73
2, 290880, Control_c, 0, 91, 91
2, 290880, Control_c, 0, 93, 28
2, 290880, Control_c, 0, 64, 0
2, 290880, Control_c, 0, 1, 0
2, 290880, Pitch_bend_c, 0, 8192
2, 290880, Control_c, 0, 7, 127
2, 290880, Control_c, 0, 0, 0
2, 290880, Control_c, 0, 32, 0
2, 290880, Program_c, 0, 0
2, 293040, Note_on_c, 0, 67, 58
2, 293760, Note_on_c, 0, 67, 0
2, 293760, Note_on_c, 0, 70, 61
2, 294240, Note_on_c, 0, 70, 0
2, 294240, Note_on_c, 0, 72, 63
2, 294480, Note_on_c, 0, 72, 0
2, 294480, Note_on_c, 0, 74, 63
2, 294960, Note_on_c, 0, 74, 0
2, 294960, Note_on_c, 0, 74, 65
2, 295200, Note_on_c, 0, 74, 0
2, 295200, Note_on_c, 0, 74, 67
2, 295680, Note_on_c, 0, 74, 0
2, 295680, Note_on_c, 0, 70, 64
2, 295920, Note_on_c, 0, 70, 0
2, 295920, Note_on_c, 0, 67, 63
2, 296400, Note_on_c, 0, 67, 0
2, 296400, Note_on_c, 0, 70, 60
2, 296640, Note_on_c, 0, 70, 0
2, 296640, Note_on_c, 0, 69, 59
2, 297360, Note_on_c, 0, 69, 0
2, 297360, Note_on_c, 0, 67, 56
2, 298080, Note_on_c, 0, 67, 0
2, 298080, Note_on_c, 0, 70, 58
2, 298560, Note_on_c, 0, 70, 0
2, 298560, Note_on_c, 0, 72, 60
2, 298800, Note_on_c, 0, 72, 0
2, 298800, Note_on_c, 0, 74, 61
2, 299280, Note_on_c, 0, 74, 0
2, 299280, Note_on_c, 0, 74, 63
2, 299520, Note_on_c, 0, 74, 0
2, 299520, Note_on_c, 0, 74, 64
2, 300000, Note_on_c, 0, 74, 0
2, 300000, Note_on_c, 0, 70, 60
2, 300240, Note_on_c, 0, 70, 0
2, 300240, Note_on_c, 0, 72, 59
2, 300480, Note_on_c, 0, 72, 0
2, 300480, Note_on_c, 0, 75, 58
2, 300720, Note_on_c, 0, 75, 0
2, 300720, Note_on_c, 0, 69, 56
2, 300960, Note_on_c, 0, 69, 0
2, 300960, Note_on_c, 0, 70, 55
2, 301680, Note_on_c, 0, 70, 0
2, 301680, Note_on_c, 0, 74, 52
2, 302160, Note_on_c, 0, 74, 0
2, 302160, Note_on_c, 0, 70, 55
2, 302400, Note_on_c, 0, 70, 0
2, 302400, Note_on_c, 0, 72, 56
2, 302880, Note_on_c, 0, 72, 0
2, 302880, Note_on_c, 0, 74, 59
2, 303120, Note_on_c, 0, 74, 0
2, 303120, Note_on_c, 0, 75, 61
2, 303600, Note_on_c, 0, 75, 0
2, 303600, Note_on_c, 0, 75, 64
2, 303840, Note_on_c, 0, 75, 0
2, 303840, Note_on_c, 0, 75, 67
2, 304320, Note_on_c, 0, 75, 0
2, 304320, Note_on_c, 0, 72, 65
2, 304560, Note_on_c, 0, 72, 0
2, 304560, Note_on_c, 0, 69, 63
2, 304800, Note_on_c, 0, 69, 0
2, 304800, Note_on_c, 0, 72, 62
2, 305040, Note_on_c, 0, 72, 0
2, 305040, Note_on_c, 0, 69, 60
2, 305280, Note_on_c, 0, 69, 0
2, 305280, Note_on_c, 0, 70, 59
2, 305520, Note_on_c, 0, 70, 0
2, 305520, Note_on_c, 0, 70, 57
2, 305760, Note_on_c, 0, 70, 0
2, 305760, Note_on_c, 0, 72, 56
2, 306000, Note_on_c, 0, 72, 0
2, 306000, Note_on_c, 0, 74, 54
2, 306480, Note_on_c, 0, 74, 0
2, 306480, Note_on_c, 0, 70, 56
2, 306720, Note_on_c, 0, 70, 0
2, 306720, Note_on_c, 0, 72, 57
2, 307200, Note_on_c, 0, 72, 0
2, 307200, Note_on_c, 0, 74, 59
2, 307440, Note_on_c, 0, 74, 0
2, 307440, Note_on_c, 0, 75, 60
2, 307920, Note_on_c, 0, 75, 0
2, 307920, Note_on_c, 0, 75, 62
2, 308160, Note_on_c, 0, 75, 0
2, 308160, Note_on_c, 0, 75, 64
2, 308640, Note_on_c, 0, 75, 0
2, 308640, Note_on_c, 0, 72, 61
2, 308880, Note_on_c, 0, 72, 0
2, 308880, Note_on_c, 0, 69, 60
2, 309120, Note_on_c, 0, 69, 0
2, 309120, Note_on_c, 0, 72, 59
2, 309360, Note_on_c, 0, 72, 0
2, 309360, Note_on_c, 0, 69, 58
2, 309600, Note_on_c, 0, 69, 0
2, 309600, Note_on_c, 0, 67, 57
2, 310320, Note_on_c, 0, 67, 0
2, 311040, Note_on_c, 0, 58, 52
2, 311760, Note_on_c, 0, 58, 0
2, 311760, Note_on_c, 0, 62, 56
2, 312480, Note_on_c, 0, 62, 0
2, 312480, Note_on_c, 0, 63, 54
2, 312960, Note_on_c, 0, 63, 0
2, 313440, Note_on_c, 0, 67, 56
2, 313680, Note_on_c, 0, 67, 0
2, 313680, Note_on_c, 0, 67, 56
2, 313920, Note_on_c, 0, 67, 0
2, 313920, Note_on_c, 0, 67, 57
2, 314160, Note_on_c, 0, 67, 0
2, 314160, Note_on_c, 0, 70, 57
2, 314400, Note_on_c, 0, 70, 0
2, 314400, Note_on_c, 0, 70, 58
2, 314580, Note_on_c, 0, 70, 0
2, 314580, Note_on_c, 0, 70, 58
2, 314640, Note_on_c, 0, 70, 0
2, 314640, Note_on_c, 0, 75, 63
2, 314880, Note_on_c, 0, 75, 0
2, 314880, Note_on_c, 0, 74, 58
2, 315120, Note_on_c, 0, 74, 0
2, 315120, Note_on_c, 0, 72, 59
2, 315360, Note_on_c, 0, 72, 0
2, 315360, Note_on_c, 0, 70, 59
2, 315600, Note_on_c, 0, 70, 0
2, 315600, Note_on_c, 0, 68, 60
2, 315840, Note_on_c, 0, 68, 0
2, 315840, Note_on_c, 0, 67, 60
2, 316080, Note_on_c, 0, 67, 0
2, 316080, Note_on_c, 0, 70, 61
2, 316560, Note_on_c, 0, 70, 0
2, 316560, Note_on_c, 0, 68, 57
2, 316740, Note_on_c, 0, 65, 62
2, 316745, Note_on_c, 0, 68, 0
2, 316800, Note_on_c, 0, 77, 65
2, 316860, Note_on_c, 0, 65, 0
2, 317040, Note_on_c, 0, 77, 0
2, 317040, Note_on_c, 0, 75, 62
2, 317280, Note_on_c, 0, 75, 0
2, 317280, Note_on_c, 0, 74, 63
2, 317520, Note_on_c, 0, 74, 0
2, 317520, Note_on_c, 0, 72, 63
2, 317760, Note_on_c, 0, 72, 0
2, 317760, Note_on_c, 0, 70, 63
2, 318000, Note_on_c, 0, 70, 0
2, 318000, Note_on_c, 0, 68, 64
2, 318240, Note_on_c, 0, 68, 0
2, 318240, Note_on_c, 0, 66, 64
2, 318720, Note_on_c, 0, 66, 0
2, 318720, Note_on_c, 0, 67, 60
2, 318960, Note_on_c, 0, 67, 0
2, 318960, Note_on_c, 0, 65, 66
2, 319440, Note_on_c, 0, 65, 0
2, 319440, Note_on_c, 0, 68, 66
2, 319560, Note_on_c, 0, 68, 0
2, 319560, Note_on_c, 0, 67, 67
2, 319680, Note_on_c, 0, 67, 0
2, 319680, Note_on_c, 0, 65, 67
2, 319800, Note_on_c, 0, 65, 0
2, 319800, Note_on_c, 0, 67, 67
2, 319920, Note_on_c, 0, 67, 0
2, 319920, Note_on_c, 0, 68, 67
2, 320040, Note_on_c, 0, 68, 0
2, 320040, Note_on_c, 0, 70, 67
2, 320160, Note_on_c, 0, 70, 0
2, 320160, Note_on_c, 0, 72, 68
2, 320280, Note_on_c, 0, 72, 0
2, 320280, Note_on_c, 0, 70, 68
2, 320400, Note_on_c, 0, 70, 0
2, 320400, Note_on_c, 0, 70, 70
2, 320440, Note_on_c, 0, 70, 0
2, 320440, Note_on_c, 0, 72, 70
2, 320480, Note_on_c, 0, 72, 0
2, 320480, Note_on_c, 0, 70, 71
2, 320520, Note_on_c, 0, 70, 0
2, 320520, Note_on_c, 0, 69, 71
2, 320580, Note_on_c, 0, 69, 0
2, 320580, Note_on_c, 0, 70, 72
2, 320640, Note_on_c, 0, 70, 0
2, 320640, Note_on_c, 0, 75, 73
2, 320880, Note_on_c, 0, 75, 0
2, 320880, Note_on_c, 0, 67, 67
2, 321120, Note_on_c, 0, 67, 0
2, 321120, Note_on_c, 0, 77, 66
2, 321600, Note_on_c, 0, 77, 0
2, 321600, Note_on_c, 0, 80, 69
2, 321720, Note_on_c, 0, 80, 0
2, 321720, Note_on_c, 0, 79, 70
2, 321840, Note_on_c, 0, 79, 0
2, 321840, Note_on_c, 0, 77, 71
2, 321960, Note_on_c, 0, 77, 0
2, 321960, Note_on_c, 0, 79, 71
2, 322080, Note_on_c, 0, 79, 0
2, 322080, Note_on_c, 0, 80, 72
2, 322200, Note_on_c, 0, 80, 0
2, 322200, Note_on_c, 0, 82, 73
2, 322320, Note_on_c, 0, 82, 0
2, 322320, Note_on_c, 0, 84, 74
2, 322440, Note_on_c, 0, 84, 0
2, 322440, Note_on_c, 0, 82, 74
2, 322560, Note_on_c, 0, 82, 0
2, 322560, Note_on_c, 0, 82, 73
2, 322600, Note_on_c, 0, 82, 0
2, 322600, Note_on_c, 0, 84, 74
2, 322640, Note_on_c, 0, 84, 0
2, 322640, Note_on_c, 0, 82, 75
2, 322680, Note_on_c, 0, 82, 0
2, 322680, Note_on_c, 0, 81, 76
2, 322740, Note_on_c, 0, 81, 0
2, 322740, Note_on_c, 0, 82, 77
2, 322800, Note_on_c, 0, 82, 0
2, 322800, Note_on_c, 0, 87, 79
2, 323040, Note_on_c, 0, 87, 0
2, 323040, Note_on_c, 0, 79, 71
2, 323280, Note_on_c, 0, 79, 0
2, 323280, Note_on_c, 0, 77, 66
2, 323520, Note_on_c, 0, 77, 0
2, 323520, Note_on_c, 0, 80, 67
2, 323760, Note_on_c, 0, 80, 0
2, 323760, Note_on_c, 0, 84, 67
2, 324000, Note_on_c, 0, 84, 0
2, 324000, Note_on_c, 0, 74, 68
2, 324240, Note_on_c, 0, 74, 0
2, 324240, Note_on_c, 0, 77, 69
2, 324480, Note_on_c, 0, 77, 0
2, 324480, Note_on_c, 0, 82, 70
2, 324720, Note_on_c, 0, 82, 0
2, 324720, Note_on_c, 0, 80, 73
2, 325200, Note_on_c, 0, 80, 0
2, 325200, Note_on_c, 0, 79, 68
2, 325440, Note_on_c, 0, 79, 0
2, 325440, Note_on_c, 0, 65, 65
2, 325680, Note_on_c, 0, 65, 0
2, 325680, Note_on_c, 0, 68, 63
2, 325920, Note_on_c, 0, 68, 0
2, 325920, Note_on_c, 0, 72, 62
2, 326160, Note_on_c, 0, 72, 0
2, 326160, Note_on_c, 0, 63, 61
2, 326400, Note_on_c, 0, 63, 0
2, 326400, Note_on_c, 0, 67, 60
2, 326640, Note_on_c, 0, 67, 0
2, 326640, Note_on_c, 0, 70, 59
2, 326880, Note_on_c, 0, 70, 0
2, 326880, Note_on_c, 0, 56, 58
2, 327120, Note_on_c, 0, 56, 0
2, 327120, Note_on_c, 0, 58, 57
2, 327360, Note_on_c, 0, 58, 0
2, 327360, Note_on_c, 0, 62, 56
2, 327600, Note_on_c, 0, 62, 0
2, 327600, Note_on_c, 0, 63, 56
2, 328320, Note_on_c, 0, 63, 0
2, 328560, Note_on_c, 0, 75, 60
2, 328800, Note_on_c, 0, 75, 0
2, 328800, Note_on_c, 0, 75, 62
2, 329040, Note_on_c, 0, 75, 0
2, 329040, Note_on_c, 0, 75, 67
2, 329520, Note_on_c, 0, 75, 0
2, 329520, Note_on_c, 0, 72, 64
2, 329760, Note_on_c, 0, 72, 0
2, 329760, Note_on_c, 0, 70, 62
2, 330480, Note_on_c, 0, 70, 0
2, 330480, Note_on_c, 0, 67, 60
2, 330960, Note_on_c, 0, 67, 0
2, 330960, Note_on_c, 0, 70, 58
2, 331200, Note_on_c, 0, 70, 0
2, 331200, Note_on_c, 0, 70, 57
2, 331440, Note_on_c, 0, 70, 0
2, 331440, Note_on_c, 0, 68, 56
2, 331680, Note_on_c, 0, 68, 0
2, 331680, Note_on_c, 0, 67, 55
2, 331760, Note_on_c, 0, 67, 0
2, 331760, Note_on_c, 0, 70, 55
2, 331840, Note_on_c, 0, 70, 0
2, 331840, Note_on_c, 0, 68, 54
2, 331920, Note_on_c, 0, 68, 0
2, 331920, Note_on_c, 0, 67, 54
2, 332640, Note_on_c, 0, 67, 0
2, 332640, Note_on_c, 0, 63, 54
2, 332720, Note_on_c, 0, 63, 0
2, 332720, Note_on_c, 0, 65, 55
2, 332800, Note_on_c, 0, 65, 0
2, 332800, Note_on_c, 0, 63, 55
2, 332880, Note_on_c, 0, 63, 0
2, 332880, Note_on_c, 0, 62, 56
2, 332940, Note_on_c, 0, 62, 0
2, 332940, Note_on_c, 0, 63, 57
2, 333000, Note_on_c, 0, 63, 0
2, 333000, Note_on_c, 0, 65, 57
2, 333060, Note_on_c, 0, 65, 0
2, 333060, Note_on_c, 0, 67, 58
2, 333120, Note_on_c, 0, 67, 0
2, 333120, Note_on_c, 0, 68, 58
2, 333160, Note_on_c, 0, 68, 0
2, 333160, Note_on_c, 0, 70, 58
2, 333200, Note_on_c, 0, 70, 0
2, 333200, Note_on_c, 0, 72, 59
2, 333240, Note_on_c, 0, 72, 0
2, 333240, Note_on_c, 0, 74, 59
2, 333300, Note_on_c, 0, 74, 0
2, 333300, Note_on_c, 0, 75, 60
2, 333360, Note_on_c, 0, 75, 0
2, 333360, Note_on_c, 0, 77, 60
2, 333480, Note_on_c, 0, 77, 0
2, 333480, Note_on_c, 0, 75, 61
2, 333600, Note_on_c, 0, 75, 0
2, 333600, Note_on_c, 0, 74, 62
2, 333720, Note_on_c, 0, 74, 0
2, 333720, Note_on_c, 0, 72, 63
2, 333840, Note_on_c, 0, 72, 0
2, 333840, Note_on_c, 0, 75, 64
2, 333960, Note_on_c, 0, 75, 0
2, 333960, Note_on_c, 0, 72, 65
2, 334080, Note_on_c, 0, 72, 0
2, 334080, Note_on_c, 0, 70, 63
2, 334800, Note_on_c, 0, 70, 0
2, 334800, Note_on_c, 0, 67, 56
2, 335280, Note_on_c, 0, 67, 0
2, 335280, Note_on_c, 0, 70, 52
2, 335520, Note_on_c, 0, 67, 50
2, 335525, Note_on_c, 0, 70, 0
2, 335880, Note_on_c, 0, 70, 48
2, 335885, Note_on_c, 0, 67, 0
2, 336000, Note_on_c, 0, 70, 0
2, 336000, Note_on_c, 0, 69, 47
2, 336120, Note_on_c, 0, 69, 0
2, 336120, Note_on_c, 0, 67, 46
2, 336240, Note_on_c, 0, 67, 0
2, 336240, Note_on_c, 0, 66, 45
2, 336960, Note_on_c, 0, 66, 0
2, 336960, Note_on_c, 0, 69, 45
2, 337440, Note_on_c, 0, 70, 52
2, 337445, Note_on_c, 0, 69, 0
2, 337680, Note_on_c, 0, 70, 0
2, 337680, Note_on_c, 0, 72, 56
2, 337800, Note_on_c, 0, 72, 0
2, 337800, Note_on_c, 0, 75, 54
2, 337920, Note_on_c, 0, 75, 0
2, 337920, Note_on_c, 0, 74, 51
2, 338040, Note_on_c, 0, 74, 0
2, 338040, Note_on_c, 0, 72, 49
2, 338160, Note_on_c, 0, 72, 0
2, 338160, Note_on_c, 0, 70, 46
2, 338280, Note_on_c, 0, 70, 0
2, 338280, Note_on_c, 0, 69, 43
2, 338400, Note_on_c, 0, 69, 0
2, 338400, Note_on_c, 0, 67, 42
2, 339120, Note_on_c, 0, 67, 0
2, 339120, Note_on_c, 0, 70, 45
2, 339600, Note_on_c, 0, 70, 0
2, 339600, Note_on_c, 0, 72, 48
2, 339840, Note_on_c, 0, 72, 0
2, 339840, Note_on_c, 0, 74, 49
2, 340320, Note_on_c, 0, 74, 0
2, 340320, Note_on_c, 0, 74, 51
2, 340560, Note_on_c, 0, 74, 0
2, 340560, Note_on_c, 0, 74, 53
2, 341040, Note_on_c, 0, 74, 0
2, 341040, Note_on_c, 0, 70, 51
2, 341280, Note_on_c, 0, 70, 0
2, 341280, Note_on_c, 0, 67, 50
2, 341760, Note_on_c, 0, 67, 0
2, 341760, Note_on_c, 0, 70, 47
2, 342000, Note_on_c, 0, 70, 0
2, 342000, Note_on_c, 0, 69, 46
2, 342720, Note_on_c, 0, 69, 0
2, 342720, Note_on_c, 0, 67, 44
2, 343440, Note_on_c, 0, 67, 0
2, 343440, Note_on_c, 0, 70, 46
2, 343920, Note_on_c, 0, 70, 0
2, 343920, Note_on_c, 0, 72, 47
2, 344160, Note_on_c, 0, 72, 0
2, 344160, Note_on_c, 0, 74, 47
2, 344640, Note_on_c, 0, 74, 0
2, 344640, Note_on_c, 0, 74, 49
2, 344880, Note_on_c, 0, 74, 0
2, 344880, Note_on_c, 0, 74, 51
2, 345360, Note_on_c, 0, 74, 0
2, 345360, Note_on_c, 0, 70, 49
2, 345600, Note_on_c, 0, 70, 0
2, 345600, Note_on_c, 0, 72, 47
2, 345840, Note_on_c, 0, 72, 0
2, 345840, Note_on_c, 0, 75, 46
2, 346080, Note_on_c, 0, 75, 0
2, 346080, Note_on_c, 0, 69, 45
2, 346320, Note_on_c, 0, 69, 0
2, 346320, Note_on_c, 0, 70, 44
2, 347040, Note_on_c, 0, 70, 0
2, 347040, Note_on_c, 0, 74, 42
2, 347520, Note_on_c, 0, 74, 0
2, 347520, Note_on_c, 0, 70, 45
2, 347760, Note_on_c, 0, 70, 0
2, 347760, Note_on_c, 0, 72, 46
2, 348240, Note_on_c, 0, 72, 0
2, 348240, Note_on_c, 0, 74, 48
2, 348480, Note_on_c, 0, 74, 0
2, 348480, Note_on_c, 0, 75, 49
2, 348960, Note_on_c, 0, 75, 0
2, 348960, Note_on_c, 0, 75, 52
2, 349200, Note_on_c, 0, 75, 0
2, 349200, Note_on_c, 0, 75, 54
2, 349680, Note_on_c, 0, 75, 0
2, 349680, Note_on_c, 0, 72, 51
2, 349920, Note_on_c, 0, 72, 0
2, 349920, Note_on_c, 0, 69, 51
2, 350160, Note_on_c, 0, 69, 0
2, 350160, Note_on_c, 0, 72, 50
2, 350400, Note_on_c, 0, 72, 0
2, 350400, Note_on_c, 0, 69, 49
2, 350640, Note_on_c, 0, 69, 0
2, 350640, Note_on_c, 0, 70, 48
2, 350880, Note_on_c, 0, 70, 0
2, 350880, Note_on_c, 0, 70, 47
2, 351120, Note_on_c, 0, 70, 0
2, 351120, Note_on_c, 0, 72, 46
2, 351360, Note_on_c, 0, 72, 0
2, 351360, Note_on_c, 0, 74, 46
2, 351840, Note_on_c, 0, 74, 0
2, 351840, Note_on_c, 0, 70, 48
2, 352080, Note_on_c, 0, 70, 0
2, 352080, Note_on_c, 0, 72, 49
2, 352560, Note_on_c, 0, 72, 0
2, 352560, Note_on_c, 0, 74, 52
2, 352800, Note_on_c, 0, 74, 0
2, 352800, Note_on_c, 0, 75, 53
2, 353280, Note_on_c, 0, 75, 0
2, 353280, Note_on_c, 0, 75, 55
2, 353520, Note_on_c, 0, 75, 0
2, 353520, Note_on_c, 0, 75, 58
2, 354000, Note_on_c, 0, 75, 0
2, 354000, Note_on_c, 0, 72, 54
2, 354240, Note_on_c, 0, 72, 0
2, 354240, Note_on_c, 0, 69, 53
2, 354480, Note_on_c, 0, 69, 0
2, 354480, Note_on_c, 0, 72, 51
2, 354720, Note_on_c, 0, 72, 0
2, 354720, Note_on_c, 0, 69, 49
2, 354960, Note_on_c, 0, 69, 0
2, 354960, Note_on_c, 0, 67, 48
2, 355680, Note_on_c, 0, 67, 0
2, 355680, Note_on_c, 0, 79, 54
2, 356400, Note_on_c, 0, 79, 0
2, 356400, Note_on_c, 0, 82, 58
2, 356880, Note_on_c, 0, 82, 0
2, 356880, Note_on_c, 0, 84, 60
2, 357120, Note_on_c, 0, 84, 0
2, 357120, Note_on_c, 0, 86, 62
2, 357600, Note_on_c, 0, 86, 0
2, 357600, Note_on_c, 0, 86, 64
2, 357840, Note_on_c, 0, 86, 0
2, 357840, Note_on_c, 0, 86, 67
2, 358320, Note_on_c, 0, 86, 0
2, 358320, Note_on_c, 0, 82, 64
2, 358560, Note_on_c, 0, 82, 0
2, 358560, Note_on_c, 0, 79, 62
2, 359040, Note_on_c, 0, 79, 0
2, 359040, Note_on_c, 0, 82, 59
2, 359280, Note_on_c, 0, 82, 0
2, 359280, Note_on_c, 0, 81, 57
2, 360000, Note_on_c, 0, 81, 0
2, 360000, Note_on_c, 0, 84, 63
2, 360480, Note_on_c, 0, 84, 0
2, 360480, Note_on_c, 0, 81, 62
2, 360720, Note_on_c, 0, 81, 0
2, 360720, Note_on_c, 0, 78, 61
2, 361200, Note_on_c, 0, 78, 0
2, 361200, Note_on_c, 0, 81, 60
2, 361440, Note_on_c, 0, 81, 0
2, 361440, Note_on_c, 0, 79, 59
2, 362160, Note_on_c, 0, 79, 0
2, 362160, Note_on_c, 0, 72, 59
2, 362520, Note_on_c, 0, 72, 0
2, 362640, Note_on_c, 0, 69, 52
2, 362832, Note_on_c, 0, 69, 0
2, 363600, Note_on_c, 0, 66, 55
2, 363960, Note_on_c, 0, 66, 0
2, 364080, Note_on_c, 0, 69, 51
2, 364272, Note_on_c, 0, 69, 0
2, 364320, Note_on_c, 0, 66, 48
2, 364800, Note_on_c, 0, 66, 0
2, 365040, Note_on_c, 0, 67, 45
2, 365520, Note_on_c, 0, 67, 0
2, 366479, Control_c, 0, 0, 0
2, 366480, Control_c, 0, 32, 0
2, 366480, Program_c, 0, 0
2, 366480, Control_c, 0, 7, 127
2, 366480, Pitch_bend_c, 0, 8192
2, 366480, Control_c, 0, 1, 0
2, 366480, Control_c, 0, 64, 0
2, 366480, Control_c, 0, 93, 28
2, 366480, Control_c, 0, 91, 91
2, 366480, Control_c, 0, 10, 73
2, 367440, Note_on_c, 0, 71, 56
2, 367680, Note_on_c, 0, 71, 0
2, 367680, Note_on_c, 0, 72, 57
2, 367800, Note_on_c, 0, 72, 0
2, 367800, Note_on_c, 0, 71, 58
2, 367920, Note_on_c, 0, 71, 0
2, 367920, Note_on_c, 0, 74, 58
2, 368160, Note_on_c, 0, 74, 0
2, 368160, Note_on_c, 0, 76, 59
2, 368280, Note_on_c, 0, 76, 0
2, 368280, Note_on_c, 0, 74, 60
2, 368400, Note_on_c, 0, 74, 0
2, 368400, Note_on_c, 0, 67, 60
2, 368640, Note_on_c, 0, 67, 0
2, 368640, Note_on_c, 0, 69, 62
2, 368760, Note_on_c, 0, 69, 0
2, 368760, Note_on_c, 0, 67, 62
2, 368880, Note_on_c, 0, 67, 0
2, 368880, Note_on_c, 0, 71, 63
2, 369360, Note_on_c, 0, 71, 0
2, 369360, Note_on_c, 0, 64, 62
2, 369600, Note_on_c, 0, 64, 0
2, 369600, Note_on_c, 0, 66, 62
2, 369720, Note_on_c, 0, 66, 0
2, 369720, Note_on_c, 0, 64, 61
2, 369840, Note_on_c, 0, 64, 0
2, 369840, Note_on_c, 0, 67, 61
2, 370080, Note_on_c, 0, 67, 0
2, 370080, Note_on_c, 0, 69, 60
2, 370200, Note_on_c, 0, 69, 0
2, 370200, Note_on_c, 0, 67, 60
2, 370320, Note_on_c, 0, 67, 0
2, 370320, Note_on_c, 0, 69, 60
2, 370560, Note_on_c, 0, 69, 0
2, 370560, Note_on_c, 0, 71, 59
2, 370680, Note_on_c, 0, 71, 0
2, 370680, Note_on_c, 0, 69, 59
2, 370800, Note_on_c, 0, 69, 0
2, 370800, Note_on_c, 0, 71, 58
2, 371280, Note_on_c, 0, 71, 0
2, 371280, Note_on_c, 0, 71, 58
2, 371520, Note_on_c, 0, 71, 0
2, 371520, Note_on_c, 0, 72, 58
2, 371640, Note_on_c, 0, 72, 0
2, 371640, Note_on_c, 0, 71, 58
2, 371760, Note_on_c, 0, 71, 0
2, 371760, Note_on_c, 0, 74, 59
2, 372000, Note_on_c, 0, 74, 0
2, 372000, Note_on_c, 0, 76, 59
2, 372120, Note_on_c, 0, 76, 0
2, 372120, Note_on_c, 0, 74, 59
2, 372240, Note_on_c, 0, 74, 0
2, 372240, Note_on_c, 0, 79, 59
2, 372480, Note_on_c, 0, 79, 0
2, 372480, Note_on_c, 0, 81, 60
2, 372600, Note_on_c, 0, 81, 0
2, 372600, Note_on_c, 0, 79, 60
2, 372720, Note_on_c, 0, 79, 0
2, 372720, Note_on_c, 0, 78, 63
2, 373200, Note_on_c, 0, 78, 0
2, 373200, Note_on_c, 0, 76, 60
2, 373440, Note_on_c, 0, 76, 0
2, 373440, Note_on_c, 0, 78, 59
2, 373560, Note_on_c, 0, 78, 0
2, 373560, Note_on_c, 0, 76, 58
2, 373680, Note_on_c, 0, 76, 0
2, 373680, Note_on_c, 0, 73, 58
2, 373740, Note_on_c, 0, 73, 0
2, 373740, Note_on_c, 0, 74, 57
2, 373800, Note_on_c, 0, 74, 0
2, 373800, Note_on_c, 0, 73, 57
2, 373912, Note_on_c, 0, 73, 0
2, 373920, Note_on_c, 0, 71, 56
2, 374040, Note_on_c, 0, 71, 0
2, 374040, Note_on_c, 0, 73, 55
2, 374160, Note_on_c, 0, 73, 0
2, 374160, Note_on_c, 0, 74, 55
2, 374400, Note_on_c, 0, 74, 0
2, 375120, Control_c, 0, 64, 0
2, 375120, Note_on_c, 0, 71, 56
2, 375360, Note_on_c, 0, 71, 0
2, 375360, Note_on_c, 0, 72, 57
2, 375480, Note_on_c, 0, 72, 0
2, 375480, Note_on_c, 0, 71, 58
2, 375600, Note_on_c, 0, 71, 0
2, 375600, Note_on_c, 0, 74, 58
2, 375840, Note_on_c, 0, 74, 0
2, 375840, Note_on_c, 0, 76, 59
2, 375960, Note_on_c, 0, 76, 0
2, 375960, Note_on_c, 0, 74, 60
2, 376080, Note_on_c, 0, 74, 0
2, 376080, Note_on_c, 0, 67, 60
2, 376320, Note_on_c, 0, 67, 0
2, 376320, Note_on_c, 0, 69, 62
2, 376440, Note_on_c, 0, 69, 0
2, 376440, Note_on_c, 0, 67, 62
2, 376560, Note_on_c, 0, 67, 0
2, 376560, Note_on_c, 0, 71, 63
2, 377040, Note_on_c, 0, 71, 0
2, 377040, Note_on_c, 0, 64, 62
2, 377280, Note_on_c, 0, 64, 0
2, 377280, Note_on_c, 0, 66, 62
2, 377400, Note_on_c, 0, 66, 0
2, 377400, Note_on_c, 0, 64, 61
2, 377520, Note_on_c, 0, 64, 0
2, 377520, Note_on_c, 0, 67, 61
2, 377760, Note_on_c, 0, 67, 0
2, 377760, Note_on_c, 0, 69, 60
2, 377880, Note_on_c, 0, 69, 0
2, 377880, Note_on_c, 0, 67, 60
2, 378000, Note_on_c, 0, 67, 0
2, 378000, Note_on_c, 0, 69, 60
2, 378240, Note_on_c, 0, 69, 0
2, 378240, Note_on_c, 0, 71, 59
2, 378360, Note_on_c, 0, 71, 0
2, 378360, Note_on_c, 0, 69, 59
2, 378480, Note_on_c, 0, 69, 0
2, 378480, Note_on_c, 0, 71, 58
2, 378960, Note_on_c, 0, 71, 0
2, 378960, Note_on_c, 0, 71, 58
2, 379200, Note_on_c, 0, 71, 0
2, 379200, Note_on_c, 0, 72, 58
2, 379320, Note_on_c, 0, 72, 0
2, 379320, Note_on_c, 0, 71, 58
2, 379440, Note_on_c, 0, 71, 0
2, 379440, Note_on_c, 0, 74, 59
2, 379680, Note_on_c, 0, 74, 0
2, 379680, Note_on_c, 0, 76, 59
2, 379800, Note_on_c, 0, 76, 0
2, 379800, Note_on_c, 0, 74, 59
2, 379920, Note_on_c, 0, 74, 0
2, 379920, Note_on_c, 0, 79, 59
2, 380160, Note_on_c, 0, 79, 0
2, 380160, Note_on_c, 0, 81, 60
2, 380280, Note_on_c, 0, 81, 0
2, 380280, Note_on_c, 0, 79, 60
2, 380400, Note_on_c, 0, 79, 0
2, 380400, Note_on_c, 0, 78, 63
2, 380880, Note_on_c, 0, 78, 0
2, 380880, Note_on_c, 0, 76, 60
2, 381120, Note_on_c, 0, 76, 0
2, 381120, Note_on_c, 0, 78, 59
2, 381240, Note_on_c, 0, 78, 0
2, 381240, Note_on_c, 0, 76, 58
2, 381360, Note_on_c, 0, 76, 0
2, 381360, Note_on_c, 0, 73, 58
2, 381420, Note_on_c, 0, 73, 0
2, 381420, Note_on_c, 0, 74, 57
2, 381480, Note_on_c, 0, 74, 0
2, 381480, Note_on_c, 0, 73, 57
2, 381592, Note_on_c, 0, 73, 0
2, 381600, Note_on_c, 0, 71, 56
2, 381720, Note_on_c, 0, 71, 0
2, 381720, Note_on_c, 0, 73, 55
2, 381840, Note_on_c, 0, 73, 0
2, 381840, Note_on_c, 0, 74, 55
2, 382080, Note_on_c, 0, 74, 0
2, 382800, Note_on_c, 0, 62, 91
2, 383040, Note_on_c, 0, 62, 0
2, 383040, Note_on_c, 0, 64, 91
2, 383160, Note_on_c, 0, 64, 0
2, 383160, Note_on_c, 0, 62, 91
2, 383280, Note_on_c, 0, 62, 0
2, 383280, Note_on_c, 0, 59, 90
2, 383400, Note_on_c, 0, 59, 0
2, 383520, Note_on_c, 0, 61, 90
2, 383640, Note_on_c, 0, 61, 0
2, 383760, Note_on_c, 0, 62, 89
2, 384240, Note_on_c, 0, 62, 0
2, 384240, Note_on_c, 0, 50, 86
2, 384600, Note_on_c, 0, 50, 0
2, 384660, Note_on_c, 0, 54, 87
2, 384720, Note_on_c, 0, 54, 0
2, 384720, Note_on_c, 0, 52, 87
2, 384840, Note_on_c, 0, 52, 0
2, 384960, Note_on_c, 0, 50, 86
2, 385080, Note_on_c, 0, 50, 0
2, 385200, Note_on_c, 0, 52, 86
2, 385320, Note_on_c, 0, 52, 0
2, 385440, Note_on_c, 0, 54, 85
2, 385560, Note_on_c, 0, 54, 0
2, 385680, Note_on_c, 0, 55, 85
2, 386160, Note_on_c, 0, 55, 0
2, 386160, Note_on_c, 0, 43, 82
2, 386520, Note_on_c, 0, 43, 0
2, 386640, Note_on_c, 0, 74, 61
2, 386880, Note_on_c, 0, 76, 61
2, 386892, Note_on_c, 0, 74, 0
2, 387000, Note_on_c, 0, 76, 0
2, 387000, Note_on_c, 0, 74, 61
2, 387120, Note_on_c, 0, 74, 0
2, 387120, Note_on_c, 0, 71, 60
2, 387360, Note_on_c, 0, 71, 0
2, 387360, Note_on_c, 0, 73, 59
2, 387600, Note_on_c, 0, 73, 0
2, 387600, Note_on_c, 0, 74, 59
2, 388080, Note_on_c, 0, 74, 0
2, 388080, Note_on_c, 0, 71, 58
2, 388560, Note_on_c, 0, 71, 0
2, 388560, Note_on_c, 0, 74, 56
2, 388800, Note_on_c, 0, 74, 0
2, 388800, Note_on_c, 0, 72, 56
2, 388956, Note_on_c, 0, 72, 0
2, 389040, Note_on_c, 0, 69, 55
2, 389196, Note_on_c, 0, 69, 0
2, 389280, Note_on_c, 0, 66, 54
2, 389436, Note_on_c, 0, 66, 0
2, 389520, Note_on_c, 0, 67, 51
2, 389760, Note_on_c, 0, 67, 0
2, 390480, Control_c, 0, 64, 0
2, 390480, Note_on_c, 0, 62, 91
2, 390720, Note_on_c, 0, 62, 0
2, 390720, Note_on_c, 0, 64, 91
2, 390840, Note_on_c, 0, 64, 0
2, 390840, Note_on_c, 0, 62, 91
2, 390960, Note_on_c, 0, 62, 0
2, 390960, Note_on_c, 0, 59, 90
2, 391080, Note_on_c, 0, 59, 0
2, 391200, Note_on_c, 0, 61, 90
2, 391320, Note_on_c, 0, 61, 0
2, 391440, Note_on_c, 0, 62, 89
2, 391920, Note_on_c, 0, 62, 0
2, 391920, Note_on_c, 0, 50, 86
2, 392280, Note_on_c, 0, 50, 0
2, 392340, Note_on_c, 0, 54, 87
2, 392400, Note_on_c, 0, 54, 0
2, 392400, Note_on_c, 0, 52, 87
2, 392520, Note_on_c, 0, 52, 0
2, 392640, Note_on_c, 0, 50, 86
2, 392760, Note_on_c, 0, 50, 0
2, 392880, Note_on_c, 0, 52, 86
2, 393000, Note_on_c, 0, 52, 0
2, 393120, Note_on_c, 0, 54, 85
2, 393240, Note_on_c, 0, 54, 0
2, 393360, Note_on_c, 0, 55, 85
2, 393840, Note_on_c, 0, 55, 0
2, 393840, Note_on_c, 0, 43, 82
2, 394200, Note_on_c, 0, 43, 0
2, 394320, Note_on_c, 0, 74, 61
2, 394560, Note_on_c, 0, 76, 61
2, 394572, Note_on_c, 0, 74, 0
2, 394680, Note_on_c, 0, 76, 0
2, 394680, Note_on_c, 0, 74, 61
2, 394800, Note_on_c, 0, 74, 0
2, 394800, Note_on_c, 0, 71, 60
2, 395040, Note_on_c, 0, 71, 0
2, 395040, Note_on_c, 0, 73, 59
2, 395280, Note_on_c, 0, 73, 0
2, 395280, Note_on_c, 0, 74, 59
2, 395760, Note_on_c, 0, 74, 0
2, 395760, Note_on_c, 0, 71, 58
2, 396240, Note_on_c, 0, 71, 0
2, 396240, Note_on_c, 0, 74, 56
2, 396480, Note_on_c, 0, 74, 0
2, 396480, Note_on_c, 0, 72, 56
2, 396636, Note_on_c, 0, 72, 0
2, 396720, Note_on_c, 0, 69, 55
2, 396876, Note_on_c, 0, 69, 0
2, 396960, Note_on_c, 0, 66, 54
2, 397116, Note_on_c, 0, 66, 0
2, 397200, Note_on_c, 0, 67, 51
2, 397440, Note_on_c, 0, 67, 0
2, 397680, Note_on_c, 0, 55, 88
2, 397920, Note_on_c, 0, 55, 0
2, 397920, Note_on_c, 0, 57, 89
2, 398040, Note_on_c, 0, 57, 0
2, 398040, Note_on_c, 0, 55, 89
2, 398160, Note_on_c, 0, 55, 0
2, 398160, Note_on_c, 0, 59, 90
2, 398400, Note_on_c, 0, 59, 0
2, 398400, Note_on_c, 0, 60, 91
2, 398520, Note_on_c, 0, 60, 0
2, 398520, Note_on_c, 0, 59, 92
2, 398640, Note_on_c, 0, 59, 0
2, 398640, Note_on_c, 0, 71, 92
2, 398880, Note_on_c, 0, 71, 0
2, 398880, Note_on_c, 0, 72, 94
2, 399000, Note_on_c, 0, 72, 0
2, 399000, Note_on_c, 0, 71, 94
2, 399120, Note_on_c, 0, 71, 0
2, 399120, Note_on_c, 0, 64, 95
2, 399360, Note_on_c, 0, 64, 0
2, 399360, Note_on_c, 0, 66, 98
2, 399480, Note_on_c, 0, 66, 0
2, 399480, Note_on_c, 0, 64, 100
2, 399600, Note_on_c, 0, 64, 0
2, 399600, Note_on_c, 0, 79, 104
2, 400080, Note_on_c, 0, 79, 0
2, 400080, Note_on_c, 0, 78, 96
2, 400320, Note_on_c, 0, 78, 0
2, 400320, Note_on_c, 0, 81, 96
2, 400560, Note_on_c, 0, 81, 0
2, 400560, Note_on_c, 0, 78, 95
2, 400800, Note_on_c, 0, 78, 0
2, 400800, Note_on_c, 0, 75, 95
2, 401040, Note_on_c, 0, 75, 0
2, 401040, Note_on_c, 0, 76, 94
2, 401520, Note_on_c, 0, 76, 0
2, 401520, Note_on_c, 0, 71, 93
2, 401712, Note_on_c, 0, 71, 0
2, 401760, Note_on_c, 0, 71, 92
2, 402000, Note_on_c, 0, 71, 0
2, 402000, Note_on_c, 0, 72, 95
2, 402120, Note_on_c, 0, 72, 0
2, 402120, Note_on_c, 0, 71, 95
2, 402240, Note_on_c, 0, 71, 0
2, 402240, Note_on_c, 0, 69, 94
2, 402360, Note_on_c, 0, 69, 0
2, 402360, Note_on_c, 0, 67, 93
2, 402480, Note_on_c, 0, 67, 0
2, 402480, Note_on_c, 0, 66, 92
2, 402600, Note_on_c, 0, 66, 0
2, 402600, Note_on_c, 0, 67, 92
2, 402720, Note_on_c, 0, 67, 0
2, 402720, Note_on_c, 0, 66, 91
2, 402840, Note_on_c, 0, 66, 0
2, 402840, Note_on_c, 0, 64, 90
2, 402960, Note_on_c, 0, 64, 0
2, 402960, Note_on_c, 0, 63, 89
2, 403080, Note_on_c, 0, 63, 0
2, 403080, Note_on_c, 0, 64, 89
2, 403200, Note_on_c, 0, 64, 0
2, 403200, Note_on_c, 0, 66, 88
2, 403320, Note_on_c, 0, 66, 0
2, 403320, Note_on_c, 0, 63, 87
2, 403440, Note_on_c, 0, 63, 0
2, 403440, Note_on_c, 0, 59, 86
2, 403560, Note_on_c, 0, 59, 0
2, 403680, Note_on_c, 0, 66, 87
2, 403680, Note_on_c, 0, 63, 87
2, 403680, Note_on_c, 0, 59, 87
2, 403800, Note_on_c, 0, 59, 0
2, 403800, Note_on_c, 0, 63, 0
2, 403800, Note_on_c, 0, 66, 0
2, 403920, Note_on_c, 0, 67, 87
2, 403920, Note_on_c, 0, 64, 87
2, 403920, Note_on_c, 0, 59, 87
2, 404040, Note_on_c, 0, 59, 0
2, 404040, Note_on_c, 0, 64, 0
2, 404040, Note_on_c, 0, 67, 0
2, 404160, Note_on_c, 0, 64, 86
2, 404160, Note_on_c, 0, 67, 86
2, 404280, Note_on_c, 0, 67, 0
2, 404280, Note_on_c, 0, 64, 0
2, 404400, Note_on_c, 0, 64, 85
2, 404400, Note_on_c, 0, 67, 85
2, 404520, Note_on_c, 0, 67, 0
2, 404520, Note_on_c, 0, 64, 0
2, 404640, Note_on_c, 0, 59, 84
2, 404640, Note_on_c, 0, 67, 84
2, 404640, Note_on_c, 0, 64, 84
2, 404760, Note_on_c, 0, 64, 0
2, 404760, Note_on_c, 0, 67, 0
2, 404760, Note_on_c, 0, 59, 0
2, 404880, Note_on_c, 0, 59, 80
2, 404880, Note_on_c, 0, 63, 80
2, 404880, Note_on_c, 0, 66, 80
2, 405120, Note_on_c, 0, 66, 0
2, 405120, Note_on_c, 0, 63, 0
2, 405120, Note_on_c, 0, 59, 0
2, 405360, Note_on_c, 0, 59, 86
2, 405600, Note_on_c, 0, 59, 0
2, 405600, Note_on_c, 0, 60, 86
2, 405720, Note_on_c, 0, 60, 0
2, 405720, Note_on_c, 0, 59, 86
2, 405840, Note_on_c, 0, 59, 0
2, 405840, Note_on_c, 0, 71, 86
2, 406080, Note_on_c, 0, 71, 0
2, 406080, Note_on_c, 0, 72, 87
2, 406200, Note_on_c, 0, 72, 0
2, 406200, Note_on_c, 0, 71, 87
2, 406320, Note_on_c, 0, 71, 0
2, 406320, Note_on_c, 0, 83, 98
2, 406800, Note_on_c, 0, 83, 0
2, 407280, Note_on_c, 0, 57, 89
2, 407520, Note_on_c, 0, 57, 0
2, 407520, Note_on_c, 0, 59, 89
2, 407640, Note_on_c, 0, 59, 0
2, 407640, Note_on_c, 0, 57, 89
2, 407760, Note_on_c, 0, 57, 0
2, 407760, Note_on_c, 0, 72, 89
2, 408000, Note_on_c, 0, 72, 0
2, 408000, Note_on_c, 0, 74, 90
2, 408120, Note_on_c, 0, 74, 0
2, 408120, Note_on_c, 0, 72, 90
2, 408240, Note_on_c, 0, 72, 0
2, 408240, Note_on_c, 0, 84, 98
2, 408720, Note_on_c, 0, 84, 0
2, 409200, Note_on_c, 0, 54, 92
2, 409440, Note_on_c, 0, 54, 0
2, 409440, Note_on_c, 0, 55, 92
2, 409560, Note_on_c, 0, 55, 0
2, 409560, Note_on_c, 0, 54, 92
2, 409680, Note_on_c, 0, 54, 0
2, 409680, Note_on_c, 0, 72, 93
2, 409920, Note_on_c, 0, 72, 0
2, 409920, Note_on_c, 0, 74, 93
2, 410040, Note_on_c, 0, 74, 0
2, 410040, Note_on_c, 0, 72, 93
2, 410160, Note_on_c, 0, 72, 0
2, 410160, Note_on_c, 0, 81, 96
2, 410400, Note_on_c, 0, 81, 0
2, 410400, Note_on_c, 0, 83, 90
2, 410520, Note_on_c, 0, 83, 0
2, 410520, Note_on_c, 0, 81, 89
2, 410640, Note_on_c, 0, 81, 0
2, 410640, Note_on_c, 0, 72, 89
2, 410880, Note_on_c, 0, 72, 0
2, 410880, Note_on_c, 0, 74, 88
2, 411000, Note_on_c, 0, 74, 0
2, 411000, Note_on_c, 0, 72, 87
2, 411120, Note_on_c, 0, 72, 0
2, 411120, Note_on_c, 0, 81, 86
2, 411360, Note_on_c, 0, 81, 0
2, 411360, Note_on_c, 0, 83, 85
2, 411480, Note_on_c, 0, 83, 0
2, 411480, Note_on_c, 0, 81, 85
2, 411600, Note_on_c, 0, 81, 0
2, 411600, Note_on_c, 0, 72, 84
2, 411840, Note_on_c, 0, 72, 0
2, 411840, Note_on_c, 0, 74, 83
2, 411960, Note_on_c, 0, 74, 0
2, 411960, Note_on_c, 0, 72, 82
2, 412080, Note_on_c, 0, 72, 0
2, 412080, Note_on_c, 0, 78, 82
2, 412320, Note_on_c, 0, 78, 0
2, 412320, Note_on_c, 0, 79, 80
2, 412440, Note_on_c, 0, 79, 0
2, 412440, Note_on_c, 0, 78, 80
2, 412560, Note_on_c, 0, 78, 0
2, 412560, Note_on_c, 0, 72, 79
2, 412800, Note_on_c, 0, 72, 0
2, 412800, Note_on_c, 0, 74, 78
2, 412920, Note_on_c, 0, 74, 0
2, 412920, Note_on_c, 0, 72, 78
2, 413040, Note_on_c, 0, 72, 0
2, 413040, Note_on_c, 0, 78, 77
2, 413280, Note_on_c, 0, 78, 0
2, 413280, Note_on_c, 0, 79, 76
2, 413400, Note_on_c, 0, 79, 0
2, 413400, Note_on_c, 0, 78, 75
2, 413520, Note_on_c, 0, 78, 0
2, 413520, Note_on_c, 0, 72, 75
2, 413760, Note_on_c, 0, 72, 0
2, 413760, Note_on_c, 0, 74, 73
2, 413880, Note_on_c, 0, 74, 0
2, 413880, Note_on_c, 0, 72, 73
2, 414000, Note_on_c, 0, 72, 0
2, 414000, Note_on_c, 0, 74, 72
2, 414240, Note_on_c, 0, 74, 0
2, 414240, Note_on_c, 0, 76, 71
2, 414360, Note_on_c, 0, 76, 0
2, 414360, Note_on_c, 0, 74, 71
2, 414480, Note_on_c, 0, 74, 0
2, 414480, Note_on_c, 0, 73, 70
2, 414720, Note_on_c, 0, 73, 0
2, 414720, Note_on_c, 0, 74, 69
2, 414840, Note_on_c, 0, 74, 0
2, 414840, Note_on_c, 0, 73, 68
2, 414960, Note_on_c, 0, 73, 0
2, 414960, Note_on_c, 0, 74, 68
2, 415200, Note_on_c, 0, 74, 0
2, 415200, Note_on_c, 0, 76, 66
2, 415320, Note_on_c, 0, 76, 0
2, 415320, Note_on_c, 0, 74, 66
2, 415440, Note_on_c, 0, 74, 0
2, 415440, Note_on_c, 0, 72, 65
2, 415680, Note_on_c, 0, 72, 0
2, 415680, Note_on_c, 0, 74, 64
2, 415800, Note_on_c, 0, 74, 0
2, 415800, Note_on_c, 0, 72, 63
2, 415920, Note_on_c, 0, 72, 0
2, 415920, Note_on_c, 0, 74, 63
2, 416160, Note_on_c, 0, 74, 0
2, 416160, Note_on_c, 0, 76, 62
2, 416280, Note_on_c, 0, 76, 0
2, 416280, Note_on_c, 0, 74, 61
2, 416400, Note_on_c, 0, 74, 0
2, 416400, Note_on_c, 0, 71, 61
2, 416640, Note_on_c, 0, 71, 0
2, 416640, Note_on_c, 0, 72, 61
2, 416760, Note_on_c, 0, 72, 0
2, 416760, Note_on_c, 0, 71, 61
2, 416880, Note_on_c, 0, 71, 0
2, 416880, Note_on_c, 0, 74, 60
2, 417120, Note_on_c, 0, 74, 0
2, 417120, Note_on_c, 0, 76, 60
2, 417240, Note_on_c, 0, 76, 0
2, 417240, Note_on_c, 0, 74, 59
2, 417360, Note_on_c, 0, 74, 0
2, 417360, Note_on_c, 0, 67, 59
2, 417600, Note_on_c, 0, 67, 0
2, 417600, Note_on_c, 0, 69, 58
2, 417720, Note_on_c, 0, 69, 0
2, 417720, Note_on_c, 0, 67, 58
2, 417840, Note_on_c, 0, 67, 0
2, 417840, Note_on_c, 0, 71, 58
2, 418320, Note_on_c, 0, 71, 0
2, 418320, Note_on_c, 0, 64, 57
2, 418560, Note_on_c, 0, 64, 0
2, 418560, Note_on_c, 0, 66, 56
2, 418680, Note_on_c, 0, 66, 0
2, 418680, Note_on_c, 0, 64, 56
2, 418800, Note_on_c, 0, 64, 0
2, 418800, Note_on_c, 0, 67, 55
2, 419040, Note_on_c, 0, 67, 0
2, 419040, Note_on_c, 0, 69, 55
2, 419160, Note_on_c, 0, 69, 0
2, 419160, Note_on_c, 0, 67, 55
2, 419280, Note_on_c, 0, 67, 0
2, 419280, Note_on_c, 0, 69, 54
2, 419520, Note_on_c, 0, 69, 0
2, 419520, Note_on_c, 0, 71, 54
2, 419640, Note_on_c, 0, 71, 0
2, 419640, Note_on_c, 0, 69, 53
2, 419760, Note_on_c, 0, 69, 0
2, 419760, Note_on_c, 0, 71, 53
2, 420240, Note_on_c, 0, 71, 0
2, 420240, Note_on_c, 0, 71, 55
2, 420480, Note_on_c, 0, 71, 0
2, 420480, Note_on_c, 0, 72, 57
2, 420600, Note_on_c, 0, 72, 0
2, 420600, Note_on_c, 0, 71, 58
2, 420720, Note_on_c, 0, 71, 0
2, 420720, Note_on_c, 0, 74, 58
2, 420960, Note_on_c, 0, 74, 0
2, 420960, Note_on_c, 0, 76, 60
2, 421080, Note_on_c, 0, 76, 0
2, 421080, Note_on_c, 0, 74, 61
2, 421200, Note_on_c, 0, 74, 0
2, 421200, Note_on_c, 0, 79, 62
2, 421440, Note_on_c, 0, 79, 0
2, 421440, Note_on_c, 0, 81, 63
2, 421560, Note_on_c, 0, 81, 0
2, 421560, Note_on_c, 0, 79, 64
2, 421680, Note_on_c, 0, 79, 0
2, 421680, Note_on_c, 0, 78, 65
2, 422160, Note_on_c, 0, 78, 0
2, 422160, Note_on_c, 0, 76, 63
2, 422400, Note_on_c, 0, 76, 0
2, 422400, Note_on_c, 0, 78, 62
2, 422520, Note_on_c, 0, 78, 0
2, 422520, Note_on_c, 0, 76, 62
2, 422640, Note_on_c, 0, 76, 0
2, 422640, Note_on_c, 0, 73, 61
2, 422700, Note_on_c, 0, 73, 0
2, 422700, Note_on_c, 0, 74, 61
2, 422760, Note_on_c, 0, 74, 0
2, 422760, Note_on_c, 0, 73, 60
2, 422872, Note_on_c, 0, 73, 0
2, 422880, Note_on_c, 0, 71, 60
2, 423000, Note_on_c, 0, 71, 0
2, 423000, Note_on_c, 0, 73, 59
2, 423120, Note_on_c, 0, 73, 0
2, 423120, Note_on_c, 0, 74, 58
2, 423360, Note_on_c, 0, 74, 0
2, 424080, Note_on_c, 0, 62, 93
2, 424320, Note_on_c, 0, 62, 0
2, 424320, Note_on_c, 0, 64, 92
2, 424440, Note_on_c, 0, 64, 0
2, 424440, Note_on_c, 0, 62, 92
2, 424560, Note_on_c, 0, 62, 0
2, 424560, Note_on_c, 0, 59, 91
2, 424680, Note_on_c, 0, 59, 0
2, 424800, Note_on_c, 0, 61, 91
2, 424920, Note_on_c, 0, 61, 0
2, 425040, Note_on_c, 0, 62, 90
2, 425520, Note_on_c, 0, 62, 0
2, 425520, Note_on_c, 0, 50, 86
2, 425880, Note_on_c, 0, 50, 0
2, 425940, Note_on_c, 0, 54, 87
2, 426000, Note_on_c, 0, 54, 0
2, 426000, Note_on_c, 0, 52, 87
2, 426120, Note_on_c, 0, 52, 0
2, 426240, Note_on_c, 0, 50, 86
2, 426360, Note_on_c, 0, 50, 0
2, 426480, Note_on_c, 0, 52, 85
2, 426600, Note_on_c, 0, 52, 0
2, 426720, Note_on_c, 0, 54, 84
2, 426840, Note_on_c, 0, 54, 0
2, 426960, Note_on_c, 0, 55, 83
2, 427440, Note_on_c, 0, 55, 0
2, 427440, Note_on_c, 0, 43, 80
2, 427800, Note_on_c, 0, 43, 0
2, 427920, Note_on_c, 0, 74, 61
2, 428160, Note_on_c, 0, 74, 0
2, 428160, Note_on_c, 0, 76, 60
2, 428280, Note_on_c, 0, 76, 0
2, 428280, Note_on_c, 0, 74, 59
2, 428400, Note_on_c, 0, 74, 0
2, 428400, Note_on_c, 0, 71, 59
2, 428520, Note_on_c, 0, 71, 0
2, 428640, Note_on_c, 0, 73, 58
2, 428760, Note_on_c, 0, 73, 0
2, 428880, Note_on_c, 0, 74, 57
2, 429360, Note_on_c, 0, 74, 0
2, 429360, Note_on_c, 0, 71, 52
2, 429720, Note_on_c, 0, 71, 0
2, 429840, Note_on_c, 0, 74, 54
2, 430080, Note_on_c, 0, 74, 0
2, 430080, Note_on_c, 0, 72, 53
2, 430236, Note_on_c, 0, 72, 0
2, 430320, Note_on_c, 0, 69, 52
2, 430476, Note_on_c, 0, 69, 0
2, 430560, Note_on_c, 0, 66, 51
2, 430716, Note_on_c, 0, 66, 0
2, 430800, Note_on_c, 0, 67, 50
2, 431280, Note_on_c, 0, 67, 0
2, 431400, Note_on_c, 0, 55, 68
2, 431520, Note_on_c, 0, 55, 0
2, 431520, Note_on_c, 0, 57, 68
2, 431640, Note_on_c, 0, 57, 0
2, 431640, Note_on_c, 0, 59, 69
2, 431760, Note_on_c, 0, 59, 0
2, 431760, Note_on_c, 0, 60, 69
2, 431880, Note_on_c, 0, 60, 0
2, 431880, Note_on_c, 0, 55, 69
2, 432000, Note_on_c, 0, 55, 0
2, 432000, Note_on_c, 0, 57, 70
2, 432120, Note_on_c, 0, 57, 0
2, 432120, Note_on_c, 0, 59, 70
2, 432240, Note_on_c, 0, 59, 0
2, 432240, Note_on_c, 0, 60, 71
2, 432360, Note_on_c, 0, 60, 0
2, 432360, Note_on_c, 0, 62, 71
2, 432480, Note_on_c, 0, 62, 0
2, 432480, Note_on_c, 0, 64, 71
2, 432600, Note_on_c, 0, 64, 0
2, 432600, Note_on_c, 0, 65, 72
2, 432720, Note_on_c, 0, 65, 0
2, 432720, Note_on_c, 0, 67, 72
2, 432840, Note_on_c, 0, 67, 0
2, 432960, Note_on_c, 0, 64, 73
2, 433080, Note_on_c, 0, 64, 0
2, 433200, Note_on_c, 0, 72, 74
2, 433320, Note_on_c, 0, 72, 0
2, 433440, Note_on_c, 0, 67, 75
2, 433560, Note_on_c, 0, 67, 0
2, 433680, Note_on_c, 0, 76, 75
2, 433800, Note_on_c, 0, 76, 0
2, 433920, Note_on_c, 0, 72, 76
2, 434040, Note_on_c, 0, 72, 0
2, 434160, Note_on_c, 0, 79, 77
2, 434280, Note_on_c, 0, 79, 0
2, 434400, Note_on_c, 0, 76, 78
2, 434520, Note_on_c, 0, 76, 0
2, 434640, Note_on_c, 0, 81, 72
2, 435240, Note_on_c, 0, 81, 0
2, 435240, Note_on_c, 0, 60, 70
2, 435360, Note_on_c, 0, 60, 0
2, 435360, Note_on_c, 0, 62, 71
2, 435480, Note_on_c, 0, 62, 0
2, 435480, Note_on_c, 0, 64, 71
2, 435600, Note_on_c, 0, 64, 0
2, 435600, Note_on_c, 0, 65, 71
2, 435720, Note_on_c, 0, 65, 0
2, 435720, Note_on_c, 0, 60, 72
2, 435840, Note_on_c, 0, 60, 0
2, 435840, Note_on_c, 0, 62, 72
2, 435960, Note_on_c, 0, 62, 0
2, 435960, Note_on_c, 0, 64, 73
2, 436080, Note_on_c, 0, 64, 0
2, 436080, Note_on_c, 0, 65, 73
2, 436200, Note_on_c, 0, 65, 0
2, 436200, Note_on_c, 0, 67, 74
2, 436320, Note_on_c, 0, 67, 0
2, 436320, Note_on_c, 0, 69, 74
2, 436440, Note_on_c, 0, 69, 0
2, 436440, Note_on_c, 0, 70, 74
2, 436560, Note_on_c, 0, 70, 0
2, 436560, Note_on_c, 0, 72, 75
2, 436680, Note_on_c, 0, 72, 0
2, 436800, Note_on_c, 0, 69, 76
2, 436920, Note_on_c, 0, 69, 0
2, 437040, Note_on_c, 0, 77, 77
2, 437160, Note_on_c, 0, 77, 0
2, 437280, Note_on_c, 0, 72, 77
2, 437400, Note_on_c, 0, 72, 0
2, 437520, Note_on_c, 0, 81, 78
2, 437640, Note_on_c, 0, 81, 0
2, 437760, Note_on_c, 0, 77, 79
2, 437880, Note_on_c, 0, 77, 0
2, 438000, Note_on_c, 0, 89, 80
2, 438120, Note_on_c, 0, 89, 0
2, 438240, Note_on_c, 0, 83, 81
2, 438360, Note_on_c, 0, 83, 0
2, 438480, Note_on_c, 0, 84, 76
2, 439080, Note_on_c, 0, 84, 0
2, 439080, Note_on_c, 0, 55, 76
2, 439200, Note_on_c, 0, 55, 0
2, 439200, Note_on_c, 0, 57, 76
2, 439320, Note_on_c, 0, 57, 0
2, 439320, Note_on_c, 0, 59, 77
2, 439440, Note_on_c, 0, 59, 0
2, 439440, Note_on_c, 0, 60, 77
2, 439560, Note_on_c, 0, 60, 0
2, 439560, Note_on_c, 0, 55, 77
2, 439680, Note_on_c, 0, 55, 0
2, 439680, Note_on_c, 0, 57, 78
2, 439800, Note_on_c, 0, 57, 0
2, 439800, Note_on_c, 0, 59, 78
2, 439920, Note_on_c, 0, 59, 0
2, 439920, Note_on_c, 0, 60, 79
2, 440040, Note_on_c, 0, 60, 0
2, 440040, Note_on_c, 0, 62, 79
2, 440160, Note_on_c, 0, 62, 0
2, 440160, Note_on_c, 0, 64, 79
2, 440280, Note_on_c, 0, 64, 0
2, 440280, Note_on_c, 0, 65, 80
2, 440400, Note_on_c, 0, 65, 0
2, 440400, Note_on_c, 0, 67, 80
2, 440520, Note_on_c, 0, 67, 0
2, 440520, Note_on_c, 0, 64, 81
2, 440640, Note_on_c, 0, 64, 0
2, 440640, Note_on_c, 0, 60, 81
2, 440760, Note_on_c, 0, 60, 0
2, 440760, Note_on_c, 0, 67, 81
2, 440880, Note_on_c, 0, 67, 0
2, 440880, Note_on_c, 0, 72, 82
2, 441000, Note_on_c, 0, 72, 0
2, 441000, Note_on_c, 0, 67, 82
2, 441120, Note_on_c, 0, 67, 0
2, 441120, Note_on_c, 0, 64, 83
2, 441240, Note_on_c, 0, 64, 0
2, 441240, Note_on_c, 0, 72, 83
2, 441360, Note_on_c, 0, 72, 0
2, 441360, Note_on_c, 0, 76, 83
2, 441480, Note_on_c, 0, 76, 0
2, 441480, Note_on_c, 0, 72, 84
2, 441600, Note_on_c, 0, 72, 0
2, 441600, Note_on_c, 0, 67, 84
2, 441720, Note_on_c, 0, 67, 0
2, 441720, Note_on_c, 0, 76, 85
2, 441840, Note_on_c, 0, 76, 0
2, 441840, Note_on_c, 0, 79, 85
2, 441960, Note_on_c, 0, 79, 0
2, 441960, Note_on_c, 0, 76, 86
2, 442080, Note_on_c, 0, 76, 0
2, 442080, Note_on_c, 0, 72, 86
2, 442200, Note_on_c, 0, 72, 0
2, 442200, Note_on_c, 0, 79, 86
2, 442320, Note_on_c, 0, 79, 0
2, 442320, Note_on_c, 0, 81, 82
2, 442920, Note_on_c, 0, 81, 0
2, 442920, Note_on_c, 0, 60, 80
2, 443040, Note_on_c, 0, 60, 0
2, 443040, Note_on_c, 0, 62, 80
2, 443160, Note_on_c, 0, 62, 0
2, 443160, Note_on_c, 0, 64, 80
2, 443280, Note_on_c, 0, 64, 0
2, 443280, Note_on_c, 0, 65, 81
2, 443400, Note_on_c, 0, 65, 0
2, 443400, Note_on_c, 0, 60, 81
2, 443520, Note_on_c, 0, 60, 0
2, 443520, Note_on_c, 0, 62, 81
2, 443640, Note_on_c, 0, 62, 0
2, 443640, Note_on_c, 0, 64, 82
2, 443760, Note_on_c, 0, 64, 0
2, 443760, Note_on_c, 0, 65, 82
2, 443880, Note_on_c, 0, 65, 0
2, 443880, Note_on_c, 0, 67, 83
2, 444000, Note_on_c, 0, 67, 0
2, 444000, Note_on_c, 0, 69, 83
2, 444120, Note_on_c, 0, 69, 0
2, 444120, Note_on_c, 0, 70, 83
2, 444240, Note_on_c, 0, 70, 0
2, 444240, Note_on_c, 0, 72, 84
2, 444360, Note_on_c, 0, 72, 0
2, 444360, Note_on_c, 0, 69, 84
2, 444480, Note_on_c, 0, 69, 0
2, 444480, Note_on_c, 0, 65, 84
2, 444600, Note_on_c, 0, 65, 0
2, 444600, Note_on_c, 0, 69, 85
2, 444720, Note_on_c, 0, 69, 0
2, 444720, Note_on_c, 0, 77, 85
2, 444840, Note_on_c, 0, 77, 0
2, 444840, Note_on_c, 0, 72, 85
2, 444960, Note_on_c, 0, 72, 0
2, 444960, Note_on_c, 0, 69, 86
2, 445080, Note_on_c, 0, 69, 0
2, 445080, Note_on_c, 0, 77, 86
2, 445200, Note_on_c, 0, 77, 0
2, 445200, Note_on_c, 0, 81, 86
2, 445320, Note_on_c, 0, 81, 0
2, 445320, Note_on_c, 0, 77, 87
2, 445440, Note_on_c, 0, 77, 0
2, 445440, Note_on_c, 0, 72, 87
2, 445560, Note_on_c, 0, 72, 0
2, 445560, Note_on_c, 0, 81, 88
2, 445680, Note_on_c, 0, 81, 0
2, 445680, Note_on_c, 0, 77, 88
2, 445800, Note_on_c, 0, 77, 0
2, 445800, Note_on_c, 0, 89, 88
2, 445920, Note_on_c, 0, 89, 0
2, 445920, Note_on_c, 0, 86, 89
2, 446040, Note_on_c, 0, 86, 0
2, 446040, Note_on_c, 0, 83, 89
2, 446160, Note_on_c, 0, 83, 0
2, 446160, Note_on_c, 0, 84, 85
2, 446400, Note_on_c, 0, 84, 0
2, 447120, Note_on_c, 0, 76, 58
2, 447360, Note_on_c, 0, 77, 58
2, 447480, Note_on_c, 0, 77, 0
2, 447480, Note_on_c, 0, 76, 0
2, 447480, Note_on_c, 0, 76, 58
2, 447600, Note_on_c, 0, 76, 0
2, 447600, Note_on_c, 0, 79, 58
2, 447840, Note_on_c, 0, 81, 59
2, 447960, Note_on_c, 0, 81, 0
2, 447960, Note_on_c, 0, 79, 0
2, 447960, Note_on_c, 0, 79, 59
2, 448080, Note_on_c, 0, 79, 0
2, 448080, Note_on_c, 0, 76, 59
2, 448320, Note_on_c, 0, 77, 59
2, 448440, Note_on_c, 0, 77, 0
2, 448440, Note_on_c, 0, 76, 0
2, 448440, Note_on_c, 0, 76, 59
2, 448560, Note_on_c, 0, 76, 0
2, 448560, Note_on_c, 0, 79, 59
2, 448800, Note_on_c, 0, 81, 60
2, 448920, Note_on_c, 0, 81, 0
2, 448920, Note_on_c, 0, 79, 0
2, 448920, Note_on_c, 0, 79, 60
2, 449040, Note_on_c, 0, 79, 0
2, 449040, Control_c, 0, 64, 0
2, 449040, Note_on_c, 0, 72, 60
2, 449280, Note_on_c, 0, 74, 60
2, 449400, Note_on_c, 0, 74, 0
2, 449400, Note_on_c, 0, 72, 0
2, 449400, Note_on_c, 0, 72, 60
2, 449520, Note_on_c, 0, 72, 0
2, 449520, Note_on_c, 0, 76, 60
2, 449760, Note_on_c, 0, 77, 61
2, 449880, Note_on_c, 0, 77, 0
2, 449880, Note_on_c, 0, 76, 0
2, 449880, Note_on_c, 0, 76, 61
2, 450000, Note_on_c, 0, 76, 0
2, 450000, Note_on_c, 0, 72, 61
2, 450240, Note_on_c, 0, 72, 0
2, 450240, Note_on_c, 0, 74, 61
2, 450360, Note_on_c, 0, 74, 0
2, 450360, Note_on_c, 0, 72, 61
2, 450480, Note_on_c, 0, 72, 0
2, 450480, Note_on_c, 0, 76, 61
2, 450720, Note_on_c, 0, 76, 0
2, 450720, Note_on_c, 0, 77, 61
2, 450840, Note_on_c, 0, 77, 0
2, 450840, Note_on_c, 0, 76, 62
2, 450960, Note_on_c, 0, 76, 0
2, 450960, Note_on_c, 0, 72, 62
2, 451200, Note_on_c, 0, 72, 0
2, 451200, Note_on_c, 0, 74, 62
2, 451320, Note_on_c, 0, 74, 0
2, 451320, Note_on_c, 0, 72, 62
2, 451440, Note_on_c, 0, 72, 0
2, 451440, Note_on_c, 0, 74, 62
2, 451680, Note_on_c, 0, 74, 0
2, 451680, Note_on_c, 0, 76, 62
2, 451800, Note_on_c, 0, 76, 0
2, 451800, Note_on_c, 0, 74, 62
2, 451920, Note_on_c, 0, 74, 0
2, 451920, Note_on_c, 0, 71, 63
2, 452160, Note_on_c, 0, 71, 0
2, 452160, Note_on_c, 0, 72, 63
2, 452280, Note_on_c, 0, 72, 0
2, 452280, Note_on_c, 0, 71, 63
2, 452400, Note_on_c, 0, 71, 0
2, 452400, Note_on_c, 0, 74, 63
2, 452640, Note_on_c, 0, 74, 0
2, 452640, Note_on_c, 0, 76, 63
2, 452760, Note_on_c, 0, 76, 0
2, 452760, Note_on_c, 0, 74, 63
2, 452880, Note_on_c, 0, 74, 0
2, 452880, Note_on_c, 0, 67, 64
2, 453120, Note_on_c, 0, 67, 0
2, 453120, Note_on_c, 0, 69, 64
2, 453240, Note_on_c, 0, 69, 0
2, 453240, Note_on_c, 0, 67, 64
2, 453360, Note_on_c, 0, 67, 0
2, 453360, Note_on_c, 0, 71, 64
2, 453840, Note_on_c, 0, 71, 0
2, 453840, Note_on_c, 0, 64, 64
2, 454080, Note_on_c, 0, 64, 0
2, 454080, Note_on_c, 0, 66, 65
2, 454200, Note_on_c, 0, 66, 0
2, 454200, Note_on_c, 0, 64, 65
2, 454320, Note_on_c, 0, 64, 0
2, 454320, Note_on_c, 0, 67, 65
2, 454560, Note_on_c, 0, 67, 0
2, 454560, Note_on_c, 0, 69, 65
2, 454680, Note_on_c, 0, 69, 0
2, 454680, Note_on_c, 0, 67, 65
2, 454800, Note_on_c, 0, 67, 0
2, 454800, Note_on_c, 0, 69, 65
2, 455040, Note_on_c, 0, 69, 0
2, 455040, Note_on_c, 0, 71, 66
2, 455160, Note_on_c, 0, 71, 0
2, 455160, Note_on_c, 0, 69, 66
2, 455280, Note_on_c, 0, 69, 0
2, 455280, Note_on_c, 0, 71, 66
2, 455760, Note_on_c, 0, 71, 0
2, 455760, Note_on_c, 0, 71, 66
2, 456000, Note_on_c, 0, 71, 0
2, 456000, Note_on_c, 0, 72, 67
2, 456120, Note_on_c, 0, 72, 0
2, 456120, Note_on_c, 0, 71, 67
2, 456240, Note_on_c, 0, 71, 0
2, 456240, Note_on_c, 0, 74, 67
2, 456480, Note_on_c, 0, 74, 0
2, 456480, Note_on_c, 0, 76, 67
2, 456600, Note_on_c, 0, 76, 0
2, 456600, Note_on_c, 0, 74, 67
2, 456720, Note_on_c, 0, 74, 0
2, 456720, Note_on_c, 0, 79, 67
2, 456960, Note_on_c, 0, 79, 0
2, 456960, Note_on_c, 0, 81, 68
2, 457080, Note_on_c, 0, 81, 0
2, 457080, Note_on_c, 0, 79, 68
2, 457200, Note_on_c, 0, 79, 0
2, 457200, Note_on_c, 0, 78, 68
2, 457680, Note_on_c, 0, 78, 0
2, 457680, Note_on_c, 0, 76, 68
2, 457920, Note_on_c, 0, 76, 0
2, 457920, Note_on_c, 0, 78, 67
2, 458040, Note_on_c, 0, 78, 0
2, 458040, Note_on_c, 0, 76, 67
2, 458100, Note_on_c, 0, 74, 67
2, 458122, Note_on_c, 0, 76, 0
2, 458160, Note_on_c, 0, 74, 0
2, 458160, Note_on_c, 0, 73, 67
2, 458400, Note_on_c, 0, 73, 0
2, 458400, Note_on_c, 0, 71, 66
2, 458520, Note_on_c, 0, 71, 0
2, 458520, Note_on_c, 0, 73, 65
2, 458640, Note_on_c, 0, 73, 0
2, 458640, Note_on_c, 0, 74, 65
2, 458880, Note_on_c, 0, 74, 0
2, 459760, Note_on_c, 0, 71, 65
2, 459920, Note_on_c, 0, 83, 65
2, 460064, Note_on_c, 0, 71, 0
2, 460080, Note_on_c, 0, 83, 0
2, 460240, Note_on_c, 0, 74, 66
2, 460400, Note_on_c, 0, 86, 66
2, 460544, Note_on_c, 0, 74, 0
2, 460560, Note_on_c, 0, 86, 0
2, 460720, Note_on_c, 0, 67, 67
2, 460880, Note_on_c, 0, 79, 68
2, 461024, Note_on_c, 0, 67, 0
2, 461040, Note_on_c, 0, 79, 0
2, 461200, Note_on_c, 0, 71, 68
2, 461360, Note_on_c, 0, 83, 69
2, 461504, Note_on_c, 0, 71, 0
2, 461520, Note_on_c, 0, 83, 0
2, 461680, Note_on_c, 0, 64, 70
2, 461840, Note_on_c, 0, 76, 70
2, 461984, Note_on_c, 0, 64, 0
2, 462000, Note_on_c, 0, 76, 0
2, 462160, Note_on_c, 0, 67, 71
2, 462320, Note_on_c, 0, 79, 71
2, 462464, Note_on_c, 0, 67, 0
2, 462480, Note_on_c, 0, 79, 0
2, 462640, Note_on_c, 0, 69, 72
2, 462800, Note_on_c, 0, 81, 73
2, 462944, Note_on_c, 0, 69, 0
2, 462960, Note_on_c, 0, 81, 0
2, 463120, Note_on_c, 0, 71, 73
2, 463280, Note_on_c, 0, 83, 74
2, 463424, Note_on_c, 0, 71, 0
2, 463440, Note_on_c, 0, 83, 0
2, 463600, Note_on_c, 0, 71, 75
2, 463760, Note_on_c, 0, 83, 75
2, 463904, Note_on_c, 0, 71, 0
2, 463920, Note_on_c, 0, 83, 0
2, 464080, Note_on_c, 0, 74, 76
2, 464240, Note_on_c, 0, 86, 76
2, 464384, Note_on_c, 0, 74, 0
2, 464400, Note_on_c, 0, 86, 0
2, 464560, Note_on_c, 0, 79, 77
2, 464720, Note_on_c, 0, 91, 77
2, 464880, Note_on_c, 0, 91, 0
2, 464888, Note_on_c, 0, 79, 0
2, 465040, Note_on_c, 0, 78, 78
2, 465200, Note_on_c, 0, 90, 79
2, 465360, Note_on_c, 0, 90, 0
2, 465368, Note_on_c, 0, 78, 0
2, 465520, Note_on_c, 0, 76, 80
2, 465680, Note_on_c, 0, 88, 80
2, 465840, Note_on_c, 0, 88, 0
2, 465848, Note_on_c, 0, 76, 0
2, 466000, Note_on_c, 0, 73, 81
2, 466160, Note_on_c, 0, 85, 81
2, 466304, Note_on_c, 0, 73, 0
2, 466320, Note_on_c, 0, 85, 0
2, 466480, Note_on_c, 0, 74, 82
2, 466640, Note_on_c, 0, 86, 82
2, 466784, Note_on_c, 0, 74, 0
2, 466800, Note_on_c, 0, 86, 0
2, 467280, Note_on_c, 0, 62, 97
2, 467520, Note_on_c, 0, 62, 0
2, 467520, Note_on_c, 0, 64, 97
2, 467640, Note_on_c, 0, 64, 0
2, 467640, Note_on_c, 0, 62, 96
2, 467760, Note_on_c, 0, 62, 0
2, 467760, Note_on_c, 0, 59, 96
2, 467880, Note_on_c, 0, 59, 0
2, 468000, Note_on_c, 0, 61, 95
2, 468120, Note_on_c, 0, 61, 0
2, 468240, Note_on_c, 0, 62, 95
2, 468720, Note_on_c, 0, 62, 0
2, 468720, Note_on_c, 0, 50, 90
2, 469080, Note_on_c, 0, 50, 0
2, 469140, Note_on_c, 0, 54, 92
2, 469200, Note_on_c, 0, 54, 0
2, 469200, Note_on_c, 0, 52, 92
2, 469320, Note_on_c, 0, 52, 0
2, 469440, Note_on_c, 0, 50, 92
2, 469560, Note_on_c, 0, 50, 0
2, 469680, Note_on_c, 0, 52, 91
2, 469800, Note_on_c, 0, 52, 0
2, 469920, Note_on_c, 0, 54, 90
2, 470040, Note_on_c, 0, 54, 0
2, 470160, Note_on_c, 0, 55, 90
2, 470640, Note_on_c, 0, 55, 0
2, 470640, Note_on_c, 0, 43, 86
2, 471000, Note_on_c, 0, 43, 0
2, 471280, Note_on_c, 0, 71, 63
2, 471440, Note_on_c, 0, 83, 63
2, 471584, Note_on_c, 0, 71, 0
2, 471600, Note_on_c, 0, 83, 0
2, 471760, Note_on_c, 0, 73, 62
2, 471920, Note_on_c, 0, 85, 62
2, 472064, Note_on_c, 0, 73, 0
2, 472080, Note_on_c, 0, 85, 0
2, 472240, Note_on_c, 0, 74, 61
2, 472400, Note_on_c, 0, 86, 61
2, 472544, Note_on_c, 0, 74, 0
2, 472560, Note_on_c, 0, 86, 0
2, 472720, Note_on_c, 0, 71, 60
2, 472880, Note_on_c, 0, 83, 60
2, 473024, Note_on_c, 0, 71, 0
2, 473040, Note_on_c, 0, 83, 0
2, 473200, Note_on_c, 0, 72, 59
2, 473360, Note_on_c, 0, 84, 59
2, 473504, Note_on_c, 0, 72, 0
2, 473520, Note_on_c, 0, 84, 0
2, 473680, Note_on_c, 0, 66, 58
2, 473840, Note_on_c, 0, 78, 58
2, 473984, Note_on_c, 0, 66, 0
2, 474000, Note_on_c, 0, 78, 0
2, 474000, Note_on_c, 0, 67, 56
2, 474000, Note_on_c, 0, 79, 56
2, 474480, Note_on_c, 0, 79, 0
2, 474480, Note_on_c, 0, 67, 0
2, 474960, Note_on_c, 0, 62, 89
2, 475200, Note_on_c, 0, 62, 0
2, 475200, Note_on_c, 0, 64, 88
2, 475320, Note_on_c, 0, 64, 0
2, 475320, Note_on_c, 0, 62, 88
2, 475440, Note_on_c, 0, 62, 0
2, 475440, Note_on_c, 0, 59, 88
2, 475560, Note_on_c, 0, 59, 0
2, 475680, Note_on_c, 0, 61, 87
2, 475800, Note_on_c, 0, 61, 0
2, 475920, Note_on_c, 0, 62, 86
2, 476400, Note_on_c, 0, 62, 0
2, 476400, Note_on_c, 0, 50, 82
2, 476760, Note_on_c, 0, 50, 0
2, 476880, Note_on_c, 0, 86, 59
2, 477120, Note_on_c, 0, 86, 0
2, 477120, Note_on_c, 0, 88, 57
2, 477240, Note_on_c, 0, 88, 0
2, 477240, Note_on_c, 0, 86, 56
2, 477360, Note_on_c, 0, 86, 0
2, 477360, Note_on_c, 0, 83, 56
2, 477480, Note_on_c, 0, 83, 0
2, 477600, Note_on_c, 0, 85, 54
2, 477720, Note_on_c, 0, 85, 0
2, 477840, Note_on_c, 0, 86, 52
2, 478080, Note_on_c, 0, 86, 0
2, 478740, Note_on_c, 0, 54, 83
2, 478800, Note_on_c, 0, 54, 0
2, 478800, Note_on_c, 0, 52, 83
2, 478920, Note_on_c, 0, 52, 0
2, 479040, Note_on_c, 0, 50, 82
2, 479160, Note_on_c, 0, 50, 0
2, 479280, Note_on_c, 0, 52, 81
2, 479400, Note_on_c, 0, 52, 0
2, 479520, Note_on_c, 0, 54, 80
2, 479640, Note_on_c, 0, 54, 0
2, 479760, Note_on_c, 0, 55, 78
2, 480240, Note_on_c, 0, 55, 0
2, 480240, Note_on_c, 0, 43, 70
2, 480600, Note_on_c, 0, 43, 0
2, 480660, Note_on_c, 0, 90, 59
2, 480720, Note_on_c, 0, 90, 0
2, 480720, Note_on_c, 0, 88, 59
2, 480840, Note_on_c, 0, 88, 0
2, 480960, Note_on_c, 0, 86, 58
2, 481080, Note_on_c, 0, 86, 0
2, 481200, Note_on_c, 0, 88, 57
2, 481320, Note_on_c, 0, 88, 0
2, 481440, Note_on_c, 0, 90, 56
2, 481560, Note_on_c, 0, 90, 0
2, 481680, Note_on_c, 0, 91, 55
2, 481920, Note_on_c, 0, 91, 0
2, 482580, Note_on_c, 0, 78, 57
2, 482640, Note_on_c, 0, 78, 0
2, 482640, Note_on_c, 0, 76, 57
2, 482760, Note_on_c, 0, 76, 0
2, 482880, Note_on_c, 0, 74, 55
2, 483000, Note_on_c, 0, 74, 0
2, 483120, Note_on_c, 0, 76, 54
2, 483240, Note_on_c, 0, 76, 0
2, 483360, Note_on_c, 0, 78, 52
2, 483480, Note_on_c, 0, 78, 0
2, 483600, Note_on_c, 0, 79, 50
2, 483840, Note_on_c, 0, 79, 0
2, 484080, Note_on_c, 0, 74, 51
2, 484320, Note_on_c, 0, 74, 0
2, 484320, Note_on_c, 0, 76, 51
2, 484440, Note_on_c, 0, 76, 0
2, 484440, Note_on_c, 0, 74, 52
2, 484560, Note_on_c, 0, 74, 0
2, 484560, Note_on_c, 0, 72, 52
2, 484800, Note_on_c, 0, 72, 0
2, 484800, Note_on_c, 0, 74, 53
2, 484920, Note_on_c, 0, 74, 0
2, 484920, Note_on_c, 0, 72, 53
2, 485040, Note_on_c, 0, 72, 0
2, 485040, Note_on_c, 0, 69, 53
2, 485280, Note_on_c, 0, 69, 0
2, 485280, Note_on_c, 0, 71, 54
2, 485400, Note_on_c, 0, 71, 0
2, 485400, Note_on_c, 0, 69, 54
2, 485520, Note_on_c, 0, 69, 0
2, 485520, Note_on_c, 0, 71, 55
2, 485760, Note_on_c, 0, 71, 0
2, 485760, Note_on_c, 0, 72, 55
2, 485880, Note_on_c, 0, 72, 0
2, 485880, Note_on_c, 0, 71, 55
2, 486000, Note_on_c, 0, 71, 0
2, 486000, Note_on_c, 0, 74, 56
2, 486240, Note_on_c, 0, 74, 0
2, 486240, Note_on_c, 0, 76, 56
2, 486360, Note_on_c, 0, 76, 0
2, 486360, Note_on_c, 0, 74, 57
2, 486480, Note_on_c, 0, 74, 0
2, 486480, Note_on_c, 0, 72, 57
2, 486720, Note_on_c, 0, 72, 0
2, 486720, Note_on_c, 0, 74, 58
2, 486840, Note_on_c, 0, 74, 0
2, 486840, Note_on_c, 0, 72, 58
2, 486960, Note_on_c, 0, 72, 0
2, 486960, Note_on_c, 0, 69, 58
2, 487200, Note_on_c, 0, 69, 0
2, 487200, Note_on_c, 0, 71, 59
2, 487320, Note_on_c, 0, 71, 0
2, 487320, Note_on_c, 0, 69, 59
2, 487440, Note_on_c, 0, 69, 0
2, 487440, Note_on_c, 0, 71, 59
2, 487680, Note_on_c, 0, 71, 0
2, 488080, Note_on_c, 0, 74, 61
2, 488240, Note_on_c, 0, 86, 62
2, 488384, Note_on_c, 0, 74, 0
2, 488400, Note_on_c, 0, 86, 0
2, 488560, Note_on_c, 0, 72, 62
2, 488720, Note_on_c, 0, 84, 63
2, 488864, Note_on_c, 0, 72, 0
2, 488880, Note_on_c, 0, 84, 0
2, 489040, Note_on_c, 0, 69, 64
2, 489200, Note_on_c, 0, 81, 64
2, 489344, Note_on_c, 0, 69, 0
2, 489360, Note_on_c, 0, 81, 0
2, 489520, Note_on_c, 0, 71, 65
2, 489680, Note_on_c, 0, 83, 65
2, 489824, Note_on_c, 0, 71, 0
2, 489840, Note_on_c, 0, 83, 0
2, 490000, Note_on_c, 0, 74, 66
2, 490160, Note_on_c, 0, 86, 66
2, 490304, Note_on_c, 0, 74, 0
2, 490320, Note_on_c, 0, 86, 0
2, 490480, Note_on_c, 0, 72, 67
2, 490640, Note_on_c, 0, 84, 68
2, 490784, Note_on_c, 0, 72, 0
2, 490800, Note_on_c, 0, 84, 0
2, 490960, Note_on_c, 0, 69, 69
2, 491120, Note_on_c, 0, 81, 69
2, 491264, Note_on_c, 0, 69, 0
2, 491280, Note_on_c, 0, 81, 0
2, 491280, Note_on_c, 0, 71, 69
2, 491520, Note_on_c, 0, 71, 0
2, 491520, Note_on_c, 0, 72, 71
2, 491640, Note_on_c, 0, 72, 0
2, 491640, Note_on_c, 0, 71, 72
2, 491760, Note_on_c, 0, 71, 0
2, 491760, Note_on_c, 0, 74, 73
2, 492000, Note_on_c, 0, 74, 0
2, 492000, Note_on_c, 0, 76, 76
2, 492120, Note_on_c, 0, 76, 0
2, 492120, Note_on_c, 0, 74, 77
2, 492240, Note_on_c, 0, 74, 0
2, 492240, Note_on_c, 0, 71, 78
2, 492480, Note_on_c, 0, 71, 0
2, 492480, Note_on_c, 0, 72, 80
2, 492600, Note_on_c, 0, 72, 0
2, 492600, Note_on_c, 0, 71, 81
2, 492720, Note_on_c, 0, 71, 0
2, 492720, Note_on_c, 0, 79, 83
2, 492960, Note_on_c, 0, 79, 0
2, 492960, Note_on_c, 0, 81, 85
2, 493080, Note_on_c, 0, 81, 0
2, 493080, Note_on_c, 0, 79, 86
2, 493200, Note_on_c, 0, 79, 0
2, 493200, Note_on_c, 0, 74, 87
2, 493440, Note_on_c, 0, 74, 0
2, 493440, Note_on_c, 0, 76, 90
2, 493560, Note_on_c, 0, 76, 0
2, 493560, Note_on_c, 0, 74, 91
2, 493680, Note_on_c, 0, 74, 0
2, 493680, Note_on_c, 0, 83, 92
2, 493920, Note_on_c, 0, 83, 0
2, 493920, Note_on_c, 0, 84, 94
2, 494040, Note_on_c, 0, 84, 0
2, 494040, Note_on_c, 0, 83, 96
2, 494160, Note_on_c, 0, 83, 0
2, 494160, Note_on_c, 0, 79, 100
2, 494400, Note_on_c, 0, 79, 0
2, 494640, Note_on_c, 0, 86, 82
2, 494880, Note_on_c, 0, 86, 0
2, 495120, Note_on_c, 0, 83, 63
2, 495360, Note_on_c, 0, 83, 0
2, 495360, End_track
3, 0, Start_track
3, 0, Title_t, "Piano Sonata No-25"
3, 0, Control_c, 0, 0, 0
3, 0, Control_c, 0, 7, 115
3, 0, Control_c, 0, 10, 73
3, 0, Control_c, 0, 91, 91
3, 0, Control_c, 0, 93, 28
3, 0, Pitch_bend_c, 0, 8192
3, 0, Control_c, 0, 1, 0
3, 0, Control_c, 0, 64, 0
3, 1, Control_c, 0, 32, 0
3, 1, Program_c, 0, 0
3, 1440, Note_on_c, 0, 67, 87
3, 1680, Note_on_c, 0, 67, 0
3, 1920, Note_on_c, 0, 71, 90
3, 2160, Note_on_c, 0, 71, 0
3, 2400, Note_on_c, 0, 67, 92
3, 2640, Note_on_c, 0, 67, 0
3, 2880, Note_on_c, 0, 74, 98
3, 3840, Note_on_c, 0, 74, 0
3, 34560, Note_on_c, 0, 73, 52
3, 36000, Note_on_c, 0, 73, 0
3, 36000, Note_on_c, 0, 74, 58
3, 37440, Note_on_c, 0, 74, 0
3, 37440, Note_on_c, 0, 76, 72
3, 38880, Note_on_c, 0, 76, 0
3, 38880, Note_on_c, 0, 74, 59
3, 39360, Note_on_c, 0, 74, 0
3, 39360, Note_on_c, 0, 74, 56
3, 39840, Note_on_c, 0, 74, 0
3, 39840, Note_on_c, 0, 74, 53
3, 40320, Note_on_c, 0, 74, 0
3, 40320, Note_on_c, 0, 73, 50
3, 41760, Note_on_c, 0, 73, 0
3, 41760, Note_on_c, 0, 74, 56
3, 43200, Note_on_c, 0, 74, 0
3, 43200, Note_on_c, 0, 76, 69
3, 44640, Note_on_c, 0, 76, 0
3, 44640, Note_on_c, 0, 74, 58
3, 45120, Note_on_c, 0, 74, 0
3, 45120, Note_on_c, 0, 74, 56
3, 45600, Note_on_c, 0, 74, 0
3, 45600, Note_on_c, 0, 74, 54
3, 46080, Note_on_c, 0, 74, 0
3, 46080, Note_on_c, 0, 73, 54
3, 46320, Note_on_c, 0, 73, 0
3, 66720, Note_on_c, 0, 69, 92
3, 66960, Note_on_c, 0, 69, 0
3, 67200, Note_on_c, 0, 62, 91
3, 67440, Note_on_c, 0, 62, 0
3, 68160, Note_on_c, 0, 67, 88
3, 68400, Note_on_c, 0, 67, 0
3, 68640, Note_on_c, 0, 61, 86
3, 68880, Note_on_c, 0, 61, 0
3, 69600, Note_on_c, 0, 62, 63
3, 69840, Note_on_c, 0, 62, 0
3, 70080, Note_on_c, 0, 59, 61
3, 70320, Note_on_c, 0, 59, 0
3, 71040, Note_on_c, 0, 60, 58
3, 71280, Note_on_c, 0, 60, 0
3, 71520, Note_on_c, 0, 57, 56
3, 71760, Note_on_c, 0, 57, 0
3, 72480, Note_on_c, 0, 71, 93
3, 72720, Note_on_c, 0, 71, 0
3, 72960, Note_on_c, 0, 68, 91
3, 73200, Note_on_c, 0, 68, 0
3, 73920, Note_on_c, 0, 69, 86
3, 74160, Note_on_c, 0, 69, 0
3, 74400, Note_on_c, 0, 66, 84
3, 74640, Note_on_c, 0, 66, 0
3, 74880, Note_on_c, 0, 64, 84
3, 75120, Note_on_c, 0, 64, 0
3, 75360, Note_on_c, 0, 68, 87
3, 75600, Note_on_c, 0, 68, 0
3, 75840, Note_on_c, 0, 64, 90
3, 76080, Note_on_c, 0, 64, 0
3, 76320, Note_on_c, 0, 71, 99
3, 77280, Note_on_c, 0, 71, 0
3, 85200, Note_on_c, 0, 59, 67
3, 85392, Note_on_c, 0, 59, 0
3, 85680, Note_on_c, 0, 59, 67
3, 85872, Note_on_c, 0, 59, 0
3, 86160, Note_on_c, 0, 59, 66
3, 86352, Note_on_c, 0, 59, 0
3, 86640, Note_on_c, 0, 59, 66
3, 86832, Note_on_c, 0, 59, 0
3, 87120, Note_on_c, 0, 59, 66
3, 87312, Note_on_c, 0, 59, 0
3, 87600, Note_on_c, 0, 59, 65
3, 87792, Note_on_c, 0, 59, 0
3, 88080, Note_on_c, 0, 59, 65
3, 88272, Note_on_c, 0, 59, 0
3, 88560, Note_on_c, 0, 59, 64
3, 88752, Note_on_c, 0, 59, 0
3, 89040, Note_on_c, 0, 59, 64
3, 89232, Note_on_c, 0, 59, 0
3, 89520, Note_on_c, 0, 59, 64
3, 89712, Note_on_c, 0, 59, 0
3, 90000, Note_on_c, 0, 59, 63
3, 90192, Note_on_c, 0, 59, 0
3, 90480, Note_on_c, 0, 59, 63
3, 90672, Note_on_c, 0, 59, 0
3, 90960, Note_on_c, 0, 59, 63
3, 91152, Note_on_c, 0, 59, 0
3, 91440, Note_on_c, 0, 59, 62
3, 91632, Note_on_c, 0, 59, 0
3, 91920, Note_on_c, 0, 59, 62
3, 92112, Note_on_c, 0, 59, 0
3, 92400, Note_on_c, 0, 59, 61
3, 92592, Note_on_c, 0, 59, 0
3, 92880, Note_on_c, 0, 59, 61
3, 93072, Note_on_c, 0, 59, 0
3, 93360, Note_on_c, 0, 59, 61
3, 93552, Note_on_c, 0, 59, 0
3, 93840, Note_on_c, 0, 59, 60
3, 94032, Note_on_c, 0, 59, 0
3, 94320, Note_on_c, 0, 59, 60
3, 94512, Note_on_c, 0, 59, 0
3, 94800, Note_on_c, 0, 59, 60
3, 94992, Note_on_c, 0, 59, 0
3, 95280, Note_on_c, 0, 59, 53
3, 95472, Note_on_c, 0, 59, 0
3, 95760, Note_on_c, 0, 59, 53
3, 95952, Note_on_c, 0, 59, 0
3, 96240, Note_on_c, 0, 59, 53
3, 96432, Note_on_c, 0, 59, 0
3, 96720, Note_on_c, 0, 55, 52
3, 96912, Note_on_c, 0, 55, 0
3, 97200, Note_on_c, 0, 55, 52
3, 97392, Note_on_c, 0, 55, 0
3, 97680, Note_on_c, 0, 55, 52
3, 97872, Note_on_c, 0, 55, 0
3, 98160, Note_on_c, 0, 55, 52
3, 98352, Note_on_c, 0, 55, 0
3, 98640, Note_on_c, 0, 55, 51
3, 98832, Note_on_c, 0, 55, 0
3, 99120, Note_on_c, 0, 55, 51
3, 99312, Note_on_c, 0, 55, 0
3, 99600, Note_on_c, 0, 55, 51
3, 99792, Note_on_c, 0, 55, 0
3, 100080, Note_on_c, 0, 55, 50
3, 100272, Note_on_c, 0, 55, 0
3, 100560, Note_on_c, 0, 55, 50
3, 100752, Note_on_c, 0, 55, 0
3, 101040, Note_on_c, 0, 55, 50
3, 101232, Note_on_c, 0, 55, 0
3, 101520, Note_on_c, 0, 55, 49
3, 101712, Note_on_c, 0, 55, 0
3, 102000, Note_on_c, 0, 55, 49
3, 102192, Note_on_c, 0, 55, 0
3, 102480, Note_on_c, 0, 55, 49
3, 102672, Note_on_c, 0, 55, 0
3, 102960, Note_on_c, 0, 55, 49
3, 103152, Note_on_c, 0, 55, 0
3, 103440, Note_on_c, 0, 55, 48
3, 103632, Note_on_c, 0, 55, 0
3, 103920, Note_on_c, 0, 55, 48
3, 104112, Note_on_c, 0, 55, 0
3, 104400, Note_on_c, 0, 55, 48
3, 104592, Note_on_c, 0, 55, 0
3, 104880, Note_on_c, 0, 55, 47
3, 105072, Note_on_c, 0, 55, 0
3, 105360, Note_on_c, 0, 55, 47
3, 105552, Note_on_c, 0, 55, 0
3, 105840, Note_on_c, 0, 55, 47
3, 106032, Note_on_c, 0, 55, 0
3, 106320, Note_on_c, 0, 55, 46
3, 106512, Note_on_c, 0, 55, 0
3, 106800, Note_on_c, 0, 55, 46
3, 106992, Note_on_c, 0, 55, 0
3, 107280, Note_on_c, 0, 55, 46
3, 107472, Note_on_c, 0, 55, 0
3, 107760, Note_on_c, 0, 55, 46
3, 107952, Note_on_c, 0, 55, 0
3, 119760, Note_on_c, 0, 55, 81
3, 119952, Note_on_c, 0, 55, 0
3, 120240, Note_on_c, 0, 55, 81
3, 120432, Note_on_c, 0, 55, 0
3, 120720, Note_on_c, 0, 55, 80
3, 120912, Note_on_c, 0, 55, 0
3, 121200, Note_on_c, 0, 55, 80
3, 121392, Note_on_c, 0, 55, 0
3, 121680, Note_on_c, 0, 55, 80
3, 121872, Note_on_c, 0, 55, 0
3, 122160, Note_on_c, 0, 55, 79
3, 122352, Note_on_c, 0, 55, 0
3, 122640, Note_on_c, 0, 55, 79
3, 122832, Note_on_c, 0, 55, 0
3, 123120, Note_on_c, 0, 55, 79
3, 123312, Note_on_c, 0, 55, 0
3, 123600, Note_on_c, 0, 55, 78
3, 123792, Note_on_c, 0, 55, 0
3, 124080, Note_on_c, 0, 55, 78
3, 124272, Note_on_c, 0, 55, 0
3, 124560, Note_on_c, 0, 55, 77
3, 124752, Note_on_c, 0, 55, 0
3, 125040, Note_on_c, 0, 55, 77
3, 125232, Note_on_c, 0, 55, 0
3, 125520, Note_on_c, 0, 55, 77
3, 125712, Note_on_c, 0, 55, 0
3, 126000, Note_on_c, 0, 55, 76
3, 126192, Note_on_c, 0, 55, 0
3, 126480, Note_on_c, 0, 55, 76
3, 126672, Note_on_c, 0, 55, 0
3, 126960, Note_on_c, 0, 55, 76
3, 127152, Note_on_c, 0, 55, 0
3, 127440, Note_on_c, 0, 55, 75
3, 127632, Note_on_c, 0, 55, 0
3, 127920, Note_on_c, 0, 55, 75
3, 128112, Note_on_c, 0, 55, 0
3, 128400, Note_on_c, 0, 55, 74
3, 128592, Note_on_c, 0, 55, 0
3, 128880, Note_on_c, 0, 55, 74
3, 129072, Note_on_c, 0, 55, 0
3, 129360, Note_on_c, 0, 55, 74
3, 129552, Note_on_c, 0, 55, 0
3, 129840, Note_on_c, 0, 55, 61
3, 130032, Note_on_c, 0, 55, 0
3, 130320, Note_on_c, 0, 55, 61
3, 130512, Note_on_c, 0, 55, 0
3, 130800, Note_on_c, 0, 58, 60
3, 130992, Note_on_c, 0, 58, 0
3, 131280, Note_on_c, 0, 58, 60
3, 131472, Note_on_c, 0, 58, 0
3, 131760, Note_on_c, 0, 58, 59
3, 131952, Note_on_c, 0, 58, 0
3, 132240, Note_on_c, 0, 58, 59
3, 132432, Note_on_c, 0, 58, 0
3, 132720, Note_on_c, 0, 58, 58
3, 132912, Note_on_c, 0, 58, 0
3, 133200, Note_on_c, 0, 58, 58
3, 133392, Note_on_c, 0, 58, 0
3, 133680, Note_on_c, 0, 58, 58
3, 133872, Note_on_c, 0, 58, 0
3, 134160, Note_on_c, 0, 58, 57
3, 134352, Note_on_c, 0, 58, 0
3, 134640, Note_on_c, 0, 58, 57
3, 134832, Note_on_c, 0, 58, 0
3, 135120, Note_on_c, 0, 58, 56
3, 135312, Note_on_c, 0, 58, 0
3, 135600, Note_on_c, 0, 58, 56
3, 135792, Note_on_c, 0, 58, 0
3, 136080, Note_on_c, 0, 58, 55
3, 136272, Note_on_c, 0, 58, 0
3, 136560, Note_on_c, 0, 58, 55
3, 136752, Note_on_c, 0, 58, 0
3, 137040, Note_on_c, 0, 58, 54
3, 137232, Note_on_c, 0, 58, 0
3, 137520, Note_on_c, 0, 58, 54
3, 137712, Note_on_c, 0, 58, 0
3, 138000, Note_on_c, 0, 58, 54
3, 138192, Note_on_c, 0, 58, 0
3, 138480, Note_on_c, 0, 58, 53
3, 138672, Note_on_c, 0, 58, 0
3, 138960, Note_on_c, 0, 58, 53
3, 139152, Note_on_c, 0, 58, 0
3, 139440, Note_on_c, 0, 58, 52
3, 139632, Note_on_c, 0, 58, 0
3, 139920, Note_on_c, 0, 58, 52
3, 140112, Note_on_c, 0, 58, 0
3, 140400, Note_on_c, 0, 58, 51
3, 140592, Note_on_c, 0, 58, 0
3, 140880, Note_on_c, 0, 58, 51
3, 141072, Note_on_c, 0, 58, 0
3, 141360, Note_on_c, 0, 58, 50
3, 141552, Note_on_c, 0, 58, 0
3, 141840, Note_on_c, 0, 58, 50
3, 142032, Note_on_c, 0, 58, 0
3, 142320, Note_on_c, 0, 58, 50
3, 142512, Note_on_c, 0, 58, 0
3, 160560, Note_on_c, 0, 57, 75
3, 160752, Note_on_c, 0, 57, 0
3, 161040, Note_on_c, 0, 57, 74
3, 161232, Note_on_c, 0, 57, 0
3, 161520, Note_on_c, 0, 57, 73
3, 161712, Note_on_c, 0, 57, 0
3, 162000, Note_on_c, 0, 57, 72
3, 162192, Note_on_c, 0, 57, 0
3, 162480, Note_on_c, 0, 57, 71
3, 162672, Note_on_c, 0, 57, 0
3, 162960, Note_on_c, 0, 57, 70
3, 163152, Note_on_c, 0, 57, 0
3, 163440, Note_on_c, 0, 57, 70
3, 163632, Note_on_c, 0, 57, 0
3, 163920, Note_on_c, 0, 57, 69
3, 164112, Note_on_c, 0, 57, 0
3, 164400, Note_on_c, 0, 57, 68
3, 164592, Note_on_c, 0, 57, 0
3, 164880, Note_on_c, 0, 57, 67
3, 165072, Note_on_c, 0, 57, 0
3, 165360, Note_on_c, 0, 57, 66
3, 165552, Note_on_c, 0, 57, 0
3, 165840, Note_on_c, 0, 57, 65
3, 166032, Note_on_c, 0, 57, 0
3, 166320, Note_on_c, 0, 57, 64
3, 166512, Note_on_c, 0, 57, 0
3, 166800, Note_on_c, 0, 57, 63
3, 166992, Note_on_c, 0, 57, 0
3, 167280, Note_on_c, 0, 57, 62
3, 167472, Note_on_c, 0, 57, 0
3, 167760, Note_on_c, 0, 57, 61
3, 167952, Note_on_c, 0, 57, 0
3, 168240, Note_on_c, 0, 57, 60
3, 168432, Note_on_c, 0, 57, 0
3, 168720, Note_on_c, 0, 57, 59
3, 168912, Note_on_c, 0, 57, 0
3, 169200, Note_on_c, 0, 57, 58
3, 169392, Note_on_c, 0, 57, 0
3, 169680, Note_on_c, 0, 57, 57
3, 169872, Note_on_c, 0, 57, 0
3, 170160, Note_on_c, 0, 57, 56
3, 170352, Note_on_c, 0, 57, 0
3, 170640, Note_on_c, 0, 62, 55
3, 170832, Note_on_c, 0, 62, 0
3, 171120, Note_on_c, 0, 66, 54
3, 171312, Note_on_c, 0, 66, 0
3, 171360, Note_on_c, 0, 69, 54
3, 171600, Note_on_c, 0, 62, 54
3, 171840, Note_on_c, 0, 62, 0
3, 171840, Note_on_c, 0, 69, 0
3, 171840, Note_on_c, 0, 69, 55
3, 172080, Note_on_c, 0, 62, 57
3, 172320, Note_on_c, 0, 62, 0
3, 172320, Note_on_c, 0, 69, 0
3, 172320, Note_on_c, 0, 69, 58
3, 172560, Note_on_c, 0, 62, 60
3, 172800, Note_on_c, 0, 62, 0
3, 172800, Note_on_c, 0, 69, 0
3, 172800, Note_on_c, 0, 69, 61
3, 173040, Note_on_c, 0, 62, 63
3, 173280, Note_on_c, 0, 62, 0
3, 173280, Note_on_c, 0, 69, 0
3, 173280, Note_on_c, 0, 69, 64
3, 173520, Note_on_c, 0, 62, 66
3, 173760, Note_on_c, 0, 62, 0
3, 173760, Note_on_c, 0, 69, 0
3, 173760, Note_on_c, 0, 69, 67
3, 174000, Note_on_c, 0, 62, 69
3, 174240, Note_on_c, 0, 62, 0
3, 174240, Note_on_c, 0, 69, 0
3, 174240, Note_on_c, 0, 69, 70
3, 174480, Note_on_c, 0, 62, 72
3, 174720, Note_on_c, 0, 62, 0
3, 174720, Note_on_c, 0, 69, 0
3, 174720, Note_on_c, 0, 69, 73
3, 174960, Note_on_c, 0, 62, 74
3, 175200, Note_on_c, 0, 62, 0
3, 175200, Note_on_c, 0, 69, 0
3, 175200, Note_on_c, 0, 69, 76
3, 175440, Note_on_c, 0, 62, 77
3, 175680, Note_on_c, 0, 62, 0
3, 175680, Note_on_c, 0, 69, 0
3, 175680, Note_on_c, 0, 69, 79
3, 175920, Note_on_c, 0, 62, 80
3, 176160, Note_on_c, 0, 62, 0
3, 176160, Note_on_c, 0, 69, 0
3, 176160, Note_on_c, 0, 69, 82
3, 176400, Note_on_c, 0, 62, 83
3, 176640, Note_on_c, 0, 62, 0
3, 176640, Note_on_c, 0, 69, 0
3, 176640, Note_on_c, 0, 69, 85
3, 176880, Note_on_c, 0, 62, 86
3, 177120, Note_on_c, 0, 62, 0
3, 177120, Note_on_c, 0, 69, 0
3, 177120, Note_on_c, 0, 67, 90
3, 177360, Note_on_c, 0, 67, 0
3, 177600, Note_on_c, 0, 71, 93
3, 177840, Note_on_c, 0, 71, 0
3, 178080, Note_on_c, 0, 67, 95
3, 178320, Note_on_c, 0, 67, 0
3, 178560, Note_on_c, 0, 74, 98
3, 179520, Note_on_c, 0, 74, 0
3, 210240, Note_on_c, 0, 78, 60
3, 211680, Note_on_c, 0, 78, 0
3, 211680, Note_on_c, 0, 79, 64
3, 213120, Note_on_c, 0, 79, 0
3, 213120, Note_on_c, 0, 81, 71
3, 214560, Note_on_c, 0, 81, 0
3, 214560, Note_on_c, 0, 79, 62
3, 215040, Note_on_c, 0, 79, 0
3, 215040, Note_on_c, 0, 79, 60
3, 215520, Note_on_c, 0, 79, 0
3, 215520, Note_on_c, 0, 79, 58
3, 216000, Note_on_c, 0, 79, 0
3, 216000, Note_on_c, 0, 78, 56
3, 217440, Note_on_c, 0, 78, 0
3, 217440, Note_on_c, 0, 79, 59
3, 218880, Note_on_c, 0, 79, 0
3, 218880, Note_on_c, 0, 81, 66
3, 220320, Note_on_c, 0, 81, 0
3, 220320, Note_on_c, 0, 79, 59
3, 220800, Note_on_c, 0, 79, 0
3, 220800, Note_on_c, 0, 79, 57
3, 221280, Note_on_c, 0, 79, 0
3, 221280, Note_on_c, 0, 79, 58
3, 221760, Note_on_c, 0, 79, 0
3, 221760, Note_on_c, 0, 78, 59
3, 222000, Note_on_c, 0, 78, 0
3, 242400, Note_on_c, 0, 74, 92
3, 242640, Note_on_c, 0, 74, 0
3, 242880, Note_on_c, 0, 67, 90
3, 243120, Note_on_c, 0, 67, 0
3, 243840, Note_on_c, 0, 69, 87
3, 244080, Note_on_c, 0, 69, 0
3, 244320, Note_on_c, 0, 66, 86
3, 244560, Note_on_c, 0, 66, 0
3, 245280, Note_on_c, 0, 62, 63
3, 245520, Note_on_c, 0, 62, 0
3, 245760, Note_on_c, 0, 55, 62
3, 246000, Note_on_c, 0, 55, 0
3, 246720, Note_on_c, 0, 60, 60
3, 246960, Note_on_c, 0, 60, 0
3, 247200, Note_on_c, 0, 54, 58
3, 247440, Note_on_c, 0, 54, 0
3, 248160, Note_on_c, 0, 74, 85
3, 248400, Note_on_c, 0, 74, 0
3, 248640, Note_on_c, 0, 67, 83
3, 248880, Note_on_c, 0, 67, 0
3, 249600, Note_on_c, 0, 72, 80
3, 249840, Note_on_c, 0, 72, 0
3, 250080, Note_on_c, 0, 66, 78
3, 250320, Note_on_c, 0, 66, 0
3, 251040, Note_on_c, 0, 62, 55
3, 251280, Note_on_c, 0, 62, 0
3, 251520, Note_on_c, 0, 55, 54
3, 251760, Note_on_c, 0, 55, 0
3, 252480, Note_on_c, 0, 60, 52
3, 252720, Note_on_c, 0, 60, 0
3, 252960, Note_on_c, 0, 54, 51
3, 253200, Note_on_c, 0, 54, 0
3, 253440, Note_on_c, 0, 67, 72
3, 253680, Note_on_c, 0, 62, 73
3, 253901, Note_on_c, 0, 67, 0
3, 253920, Note_on_c, 0, 62, 0
3, 253920, Note_on_c, 0, 67, 75
3, 254160, Note_on_c, 0, 62, 77
3, 254381, Note_on_c, 0, 67, 0
3, 254400, Note_on_c, 0, 62, 0
3, 254400, Note_on_c, 0, 67, 78
3, 254640, Note_on_c, 0, 62, 80
3, 254861, Note_on_c, 0, 67, 0
3, 254880, Note_on_c, 0, 62, 0
3, 254880, Note_on_c, 0, 67, 81
3, 255120, Note_on_c, 0, 62, 75
3, 255341, Note_on_c, 0, 67, 0
3, 255360, Note_on_c, 0, 62, 0
3, 255360, Note_on_c, 0, 67, 75
3, 255600, Note_on_c, 0, 62, 74
3, 255821, Note_on_c, 0, 67, 0
3, 255840, Note_on_c, 0, 62, 0
3, 255840, Note_on_c, 0, 67, 74
3, 256080, Note_on_c, 0, 62, 73
3, 256301, Note_on_c, 0, 67, 0
3, 256320, Note_on_c, 0, 62, 0
3, 256320, Note_on_c, 0, 67, 73
3, 256560, Note_on_c, 0, 62, 72
3, 256781, Note_on_c, 0, 67, 0
3, 256800, Note_on_c, 0, 62, 0
3, 256800, Note_on_c, 0, 67, 72
3, 257040, Note_on_c, 0, 62, 71
3, 257261, Note_on_c, 0, 67, 0
3, 257280, Note_on_c, 0, 62, 0
3, 257280, Note_on_c, 0, 67, 71
3, 257520, Note_on_c, 0, 62, 70
3, 257741, Note_on_c, 0, 67, 0
3, 257760, Note_on_c, 0, 62, 0
3, 257760, Note_on_c, 0, 67, 70
3, 258000, Note_on_c, 0, 60, 70
3, 258221, Note_on_c, 0, 67, 0
3, 258240, Note_on_c, 0, 60, 0
3, 258240, Note_on_c, 0, 67, 69
3, 258480, Note_on_c, 0, 60, 69
3, 258701, Note_on_c, 0, 67, 0
3, 258720, Note_on_c, 0, 60, 0
3, 258720, Note_on_c, 0, 67, 68
3, 258960, Note_on_c, 0, 60, 68
3, 259181, Note_on_c, 0, 67, 0
3, 259200, Note_on_c, 0, 60, 0
3, 264960, Note_on_c, 0, 71, 74
3, 265200, Note_on_c, 0, 67, 76
3, 265404, Note_on_c, 0, 71, 0
3, 265440, Note_on_c, 0, 67, 0
3, 265440, Note_on_c, 0, 71, 77
3, 265680, Note_on_c, 0, 67, 78
3, 265884, Note_on_c, 0, 71, 0
3, 265920, Note_on_c, 0, 67, 0
3, 265920, Note_on_c, 0, 71, 80
3, 266160, Note_on_c, 0, 67, 81
3, 266364, Note_on_c, 0, 71, 0
3, 266400, Note_on_c, 0, 67, 0
3, 266400, Note_on_c, 0, 71, 82
3, 266640, Note_on_c, 0, 67, 77
3, 266844, Note_on_c, 0, 71, 0
3, 266880, Note_on_c, 0, 67, 0
3, 266880, Note_on_c, 0, 71, 77
3, 267120, Note_on_c, 0, 67, 76
3, 267324, Note_on_c, 0, 71, 0
3, 267360, Note_on_c, 0, 67, 0
3, 267360, Note_on_c, 0, 71, 76
3, 267600, Note_on_c, 0, 67, 75
3, 267804, Note_on_c, 0, 71, 0
3, 267840, Note_on_c, 0, 67, 0
3, 267840, Note_on_c, 0, 71, 75
3, 268080, Note_on_c, 0, 67, 74
3, 268284, Note_on_c, 0, 71, 0
3, 268320, Note_on_c, 0, 67, 0
3, 268320, Note_on_c, 0, 71, 74
3, 268560, Note_on_c, 0, 67, 73
3, 268764, Note_on_c, 0, 71, 0
3, 268800, Note_on_c, 0, 67, 0
3, 268800, Note_on_c, 0, 71, 73
3, 269040, Note_on_c, 0, 67, 73
3, 269244, Note_on_c, 0, 71, 0
3, 269280, Note_on_c, 0, 67, 0
3, 269280, Note_on_c, 0, 72, 72
3, 269520, Note_on_c, 0, 67, 72
3, 269724, Note_on_c, 0, 72, 0
3, 269760, Note_on_c, 0, 67, 0
3, 269760, Note_on_c, 0, 72, 71
3, 270000, Note_on_c, 0, 67, 71
3, 270204, Note_on_c, 0, 72, 0
3, 270240, Note_on_c, 0, 67, 0
3, 270240, Note_on_c, 0, 72, 70
3, 270480, Note_on_c, 0, 67, 70
3, 270684, Note_on_c, 0, 72, 0
3, 270720, Note_on_c, 0, 67, 0
3, 290880, Control_c, 0, 7, 117
3, 290880, Pitch_bend_c, 0, 8192
3, 290880, Control_c, 0, 1, 0
3, 290880, Control_c, 0, 64, 0
3, 290880, Control_c, 0, 93, 28
3, 290880, Control_c, 0, 91, 91
3, 290880, Control_c, 0, 10, 64
3, 290880, Control_c, 0, 0, 0
3, 290880, Control_c, 0, 32, 0
3, 290880, Program_c, 0, 0
3, 293040, Note_on_c, 0, 58, 58
3, 293760, Note_on_c, 0, 58, 0
3, 293760, Note_on_c, 0, 67, 61
3, 294240, Note_on_c, 0, 67, 0
3, 294240, Note_on_c, 0, 69, 63
3, 294480, Note_on_c, 0, 69, 0
3, 294480, Note_on_c, 0, 70, 63
3, 294960, Note_on_c, 0, 70, 0
3, 294960, Note_on_c, 0, 70, 65
3, 295200, Note_on_c, 0, 70, 0
3, 295200, Note_on_c, 0, 70, 67
3, 295680, Note_on_c, 0, 70, 0
3, 295680, Note_on_c, 0, 67, 64
3, 295920, Note_on_c, 0, 67, 0
3, 295920, Note_on_c, 0, 58, 63
3, 296400, Note_on_c, 0, 58, 0
3, 296400, Note_on_c, 0, 67, 60
3, 296640, Note_on_c, 0, 67, 0
3, 296640, Note_on_c, 0, 66, 59
3, 297360, Note_on_c, 0, 58, 56
3, 297367, Note_on_c, 0, 66, 0
3, 298080, Note_on_c, 0, 58, 0
3, 298080, Note_on_c, 0, 67, 58
3, 298560, Note_on_c, 0, 67, 0
3, 298560, Note_on_c, 0, 69, 60
3, 298800, Note_on_c, 0, 69, 0
3, 298800, Note_on_c, 0, 70, 61
3, 299280, Note_on_c, 0, 70, 0
3, 299280, Note_on_c, 0, 70, 63
3, 299520, Note_on_c, 0, 70, 0
3, 299520, Note_on_c, 0, 70, 64
3, 300000, Note_on_c, 0, 70, 0
3, 300000, Note_on_c, 0, 62, 60
3, 300240, Note_on_c, 0, 62, 0
3, 300240, Note_on_c, 0, 63, 59
3, 300480, Note_on_c, 0, 63, 0
3, 300480, Note_on_c, 0, 67, 58
3, 300720, Note_on_c, 0, 67, 0
3, 300720, Note_on_c, 0, 60, 56
3, 300960, Note_on_c, 0, 60, 0
3, 300960, Note_on_c, 0, 62, 55
3, 301680, Note_on_c, 0, 62, 0
3, 301680, Note_on_c, 0, 70, 52
3, 302160, Note_on_c, 0, 70, 0
3, 302160, Note_on_c, 0, 62, 55
3, 302400, Note_on_c, 0, 62, 0
3, 302400, Note_on_c, 0, 69, 56
3, 302880, Note_on_c, 0, 69, 0
3, 302880, Note_on_c, 0, 71, 59
3, 303120, Note_on_c, 0, 71, 0
3, 303120, Note_on_c, 0, 72, 61
3, 303600, Note_on_c, 0, 72, 0
3, 303600, Note_on_c, 0, 72, 64
3, 303840, Note_on_c, 0, 72, 0
3, 303840, Note_on_c, 0, 72, 67
3, 304320, Note_on_c, 0, 72, 0
3, 304320, Note_on_c, 0, 69, 65
3, 304560, Note_on_c, 0, 69, 0
3, 304560, Note_on_c, 0, 66, 63
3, 304800, Note_on_c, 0, 66, 0
3, 304800, Note_on_c, 0, 69, 62
3, 305040, Note_on_c, 0, 69, 0
3, 305040, Note_on_c, 0, 66, 60
3, 305280, Note_on_c, 0, 66, 0
3, 305280, Note_on_c, 0, 67, 59
3, 305520, Note_on_c, 0, 67, 0
3, 305520, Note_on_c, 0, 67, 57
3, 305760, Note_on_c, 0, 67, 0
3, 305760, Note_on_c, 0, 69, 56
3, 306000, Note_on_c, 0, 69, 0
3, 306000, Note_on_c, 0, 70, 54
3, 306480, Note_on_c, 0, 70, 0
3, 306480, Note_on_c, 0, 62, 56
3, 306720, Note_on_c, 0, 62, 0
3, 306720, Note_on_c, 0, 69, 57
3, 307200, Note_on_c, 0, 69, 0
3, 307200, Note_on_c, 0, 71, 59
3, 307440, Note_on_c, 0, 71, 0
3, 307440, Note_on_c, 0, 72, 60
3, 307920, Note_on_c, 0, 72, 0
3, 307920, Note_on_c, 0, 72, 62
3, 308160, Note_on_c, 0, 72, 0
3, 308160, Note_on_c, 0, 72, 63
3, 308640, Note_on_c, 0, 72, 0
3, 308640, Note_on_c, 0, 69, 61
3, 308880, Note_on_c, 0, 69, 0
3, 308880, Note_on_c, 0, 66, 60
3, 309120, Note_on_c, 0, 66, 0
3, 309120, Note_on_c, 0, 69, 59
3, 309360, Note_on_c, 0, 69, 0
3, 309360, Note_on_c, 0, 66, 58
3, 309600, Note_on_c, 0, 66, 0
3, 309600, Note_on_c, 0, 58, 57
3, 310320, Note_on_c, 0, 58, 0
3, 311760, Note_on_c, 0, 58, 56
3, 311760, Note_on_c, 0, 56, 56
3, 312480, Note_on_c, 0, 56, 0
3, 312480, Note_on_c, 0, 58, 0
3, 312480, Note_on_c, 0, 58, 54
3, 312480, Note_on_c, 0, 55, 54
3, 312960, Note_on_c, 0, 55, 0
3, 312960, Note_on_c, 0, 58, 0
3, 327600, Note_on_c, 0, 55, 56
3, 327600, Note_on_c, 0, 58, 56
3, 328320, Note_on_c, 0, 58, 0
3, 328320, Note_on_c, 0, 55, 0
3, 328560, Note_on_c, 0, 63, 59
3, 328560, Note_on_c, 0, 72, 59
3, 328800, Note_on_c, 0, 72, 0
3, 328800, Note_on_c, 0, 63, 0
3, 328800, Note_on_c, 0, 63, 62
3, 328800, Note_on_c, 0, 72, 62
3, 329040, Note_on_c, 0, 72, 0
3, 329040, Note_on_c, 0, 63, 0
3, 329040, Note_on_c, 0, 63, 65
3, 329040, Note_on_c, 0, 72, 65
3, 329520, Note_on_c, 0, 72, 0
3, 329520, Note_on_c, 0, 68, 62
3, 329760, Note_on_c, 0, 68, 0
3, 329760, Note_on_c, 0, 63, 0
3, 329760, Note_on_c, 0, 63, 60
3, 330480, Note_on_c, 0, 63, 0
3, 330480, Note_on_c, 0, 58, 60
3, 330480, Note_on_c, 0, 63, 60
3, 331200, Note_on_c, 0, 63, 0
3, 331200, Note_on_c, 0, 58, 0
3, 331200, Note_on_c, 0, 62, 57
3, 331920, Note_on_c, 0, 62, 0
3, 331920, Note_on_c, 0, 63, 54
3, 331920, Note_on_c, 0, 58, 54
3, 332640, Note_on_c, 0, 58, 0
3, 332640, Note_on_c, 0, 63, 0
3, 334800, Note_on_c, 0, 58, 55
3, 335280, Note_on_c, 0, 58, 0
3, 335280, Note_on_c, 0, 61, 50
3, 335520, Note_on_c, 0, 61, 0
3, 335520, Note_on_c, 0, 61, 48
3, 336000, Note_on_c, 0, 61, 0
3, 336000, Note_on_c, 0, 61, 43
3, 336240, Note_on_c, 0, 61, 0
3, 336240, Note_on_c, 0, 62, 38
3, 336960, Note_on_c, 0, 62, 0
3, 336960, Note_on_c, 0, 66, 45
3, 337440, Note_on_c, 0, 67, 48
3, 337445, Note_on_c, 0, 66, 0
3, 337680, Note_on_c, 0, 69, 56
3, 337685, Note_on_c, 0, 67, 0
3, 337930, Note_on_c, 0, 69, 0
3, 338400, Note_on_c, 0, 58, 42
3, 339120, Note_on_c, 0, 58, 0
3, 339120, Note_on_c, 0, 67, 45
3, 339600, Note_on_c, 0, 67, 0
3, 339600, Note_on_c, 0, 69, 48
3, 339840, Note_on_c, 0, 69, 0
3, 339840, Note_on_c, 0, 70, 49
3, 340320, Note_on_c, 0, 70, 0
3, 340320, Note_on_c, 0, 70, 51
3, 340560, Note_on_c, 0, 70, 0
3, 340560, Note_on_c, 0, 70, 53
3, 341040, Note_on_c, 0, 70, 0
3, 341040, Note_on_c, 0, 67, 51
3, 341280, Note_on_c, 0, 67, 0
3, 341280, Note_on_c, 0, 58, 50
3, 341760, Note_on_c, 0, 58, 0
3, 341760, Note_on_c, 0, 67, 47
3, 342000, Note_on_c, 0, 67, 0
3, 342000, Note_on_c, 0, 66, 46
3, 342720, Note_on_c, 0, 66, 0
3, 342720, Note_on_c, 0, 58, 44
3, 343440, Note_on_c, 0, 58, 0
3, 343440, Note_on_c, 0, 67, 46
3, 343920, Note_on_c, 0, 67, 0
3, 343920, Note_on_c, 0, 69, 47
3, 344160, Note_on_c, 0, 69, 0
3, 344160, Note_on_c, 0, 70, 47
3, 344640, Note_on_c, 0, 70, 0
3, 344640, Note_on_c, 0, 70, 49
3, 344880, Note_on_c, 0, 70, 0
3, 344880, Note_on_c, 0, 70, 51
3, 345360, Note_on_c, 0, 70, 0
3, 345360, Note_on_c, 0, 62, 49
3, 345600, Note_on_c, 0, 62, 0
3, 345600, Note_on_c, 0, 63, 47
3, 345840, Note_on_c, 0, 63, 0
3, 345840, Note_on_c, 0, 67, 46
3, 346080, Note_on_c, 0, 67, 0
3, 346080, Note_on_c, 0, 60, 45
3, 346320, Note_on_c, 0, 60, 0
3, 346320, Note_on_c, 0, 62, 44
3, 347040, Note_on_c, 0, 62, 0
3, 347040, Note_on_c, 0, 70, 42
3, 347520, Note_on_c, 0, 70, 0
3, 347520, Note_on_c, 0, 62, 45
3, 347760, Note_on_c, 0, 62, 0
3, 347760, Note_on_c, 0, 69, 46
3, 348240, Note_on_c, 0, 69, 0
3, 348240, Note_on_c, 0, 71, 48
3, 348480, Note_on_c, 0, 71, 0
3, 348480, Note_on_c, 0, 72, 49
3, 348960, Note_on_c, 0, 72, 0
3, 348960, Note_on_c, 0, 72, 52
3, 349200, Note_on_c, 0, 72, 0
3, 349200, Note_on_c, 0, 72, 53
3, 349680, Note_on_c, 0, 72, 0
3, 349680, Note_on_c, 0, 69, 51
3, 349920, Note_on_c, 0, 69, 0
3, 349920, Note_on_c, 0, 66, 51
3, 350160, Note_on_c, 0, 66, 0
3, 350160, Note_on_c, 0, 69, 50
3, 350400, Note_on_c, 0, 69, 0
3, 350400, Note_on_c, 0, 66, 49
3, 350640, Note_on_c, 0, 66, 0
3, 350640, Note_on_c, 0, 67, 48
3, 350880, Note_on_c, 0, 67, 0
3, 350880, Note_on_c, 0, 67, 47
3, 351120, Note_on_c, 0, 67, 0
3, 351120, Note_on_c, 0, 69, 46
3, 351360, Note_on_c, 0, 69, 0
3, 351360, Note_on_c, 0, 70, 46
3, 351840, Note_on_c, 0, 70, 0
3, 351840, Note_on_c, 0, 62, 48
3, 352080, Note_on_c, 0, 62, 0
3, 352080, Note_on_c, 0, 69, 49
3, 352560, Note_on_c, 0, 69, 0
3, 352560, Note_on_c, 0, 71, 52
3, 352800, Note_on_c, 0, 71, 0
3, 352800, Note_on_c, 0, 72, 53
3, 353280, Note_on_c, 0, 72, 0
3, 353280, Note_on_c, 0, 72, 55
3, 353520, Note_on_c, 0, 72, 0
3, 353520, Note_on_c, 0, 72, 57
3, 354000, Note_on_c, 0, 72, 0
3, 354000, Note_on_c, 0, 69, 54
3, 354240, Note_on_c, 0, 69, 0
3, 354240, Note_on_c, 0, 66, 53
3, 354480, Note_on_c, 0, 66, 0
3, 354480, Note_on_c, 0, 69, 51
3, 354720, Note_on_c, 0, 69, 0
3, 354720, Note_on_c, 0, 66, 49
3, 354960, Note_on_c, 0, 66, 0
3, 354960, Note_on_c, 0, 58, 48
3, 355680, Note_on_c, 0, 58, 0
3, 355680, Note_on_c, 0, 67, 52
3, 356400, Note_on_c, 0, 67, 0
3, 356400, Note_on_c, 0, 70, 56
3, 356880, Note_on_c, 0, 70, 0
3, 356880, Note_on_c, 0, 72, 59
3, 357120, Note_on_c, 0, 72, 0
3, 357120, Note_on_c, 0, 74, 60
3, 357600, Note_on_c, 0, 74, 0
3, 357600, Note_on_c, 0, 74, 63
3, 357840, Note_on_c, 0, 74, 0
3, 357840, Note_on_c, 0, 74, 67
3, 358320, Note_on_c, 0, 74, 0
3, 358320, Note_on_c, 0, 70, 64
3, 358560, Note_on_c, 0, 70, 0
3, 358560, Note_on_c, 0, 67, 62
3, 359040, Note_on_c, 0, 67, 0
3, 359040, Note_on_c, 0, 70, 59
3, 359280, Note_on_c, 0, 70, 0
3, 359280, Note_on_c, 0, 69, 57
3, 360000, Note_on_c, 0, 69, 0
3, 360000, Note_on_c, 0, 72, 63
3, 360480, Note_on_c, 0, 72, 0
3, 360480, Note_on_c, 0, 69, 62
3, 360720, Note_on_c, 0, 69, 0
3, 360720, Note_on_c, 0, 66, 61
3, 361200, Note_on_c, 0, 66, 0
3, 361200, Note_on_c, 0, 69, 60
3, 361440, Note_on_c, 0, 69, 0
3, 361440, Note_on_c, 0, 67, 59
3, 362160, Note_on_c, 0, 67, 0
3, 362160, Note_on_c, 0, 63, 59
3, 362520, Note_on_c, 0, 63, 0
3, 362640, Note_on_c, 0, 63, 52
3, 362832, Note_on_c, 0, 63, 0
3, 363600, Note_on_c, 0, 60, 55
3, 363960, Note_on_c, 0, 60, 0
3, 364080, Note_on_c, 0, 66, 51
3, 364272, Note_on_c, 0, 66, 0
3, 364320, Note_on_c, 0, 60, 48
3, 364320, Note_on_c, 0, 62, 48
3, 364800, Note_on_c, 0, 62, 0
3, 364800, Note_on_c, 0, 60, 0
3, 365040, Note_on_c, 0, 58, 45
3, 365040, Note_on_c, 0, 62, 45
3, 365520, Note_on_c, 0, 62, 0
3, 365520, Note_on_c, 0, 58, 0
3, 375120, Control_c, 0, 64, 0
3, 387120, Note_on_c, 0, 67, 60
3, 387600, Note_on_c, 0, 67, 0
3, 387600, Note_on_c, 0, 66, 59
3, 388080, Note_on_c, 0, 66, 0
3, 388080, Note_on_c, 0, 65, 58
3, 388560, Note_on_c, 0, 65, 0
3, 388560, Note_on_c, 0, 64, 56
3, 389040, Note_on_c, 0, 64, 0
3, 389040, Note_on_c, 0, 60, 55
3, 389520, Note_on_c, 0, 60, 0
3, 389520, Note_on_c, 0, 59, 51
3, 389760, Note_on_c, 0, 59, 0
3, 390480, Control_c, 0, 64, 0
3, 394800, Note_on_c, 0, 67, 60
3, 395280, Note_on_c, 0, 67, 0
3, 395280, Note_on_c, 0, 66, 59
3, 395760, Note_on_c, 0, 66, 0
3, 395760, Note_on_c, 0, 65, 58
3, 396240, Note_on_c, 0, 65, 0
3, 396240, Note_on_c, 0, 64, 56
3, 396720, Note_on_c, 0, 64, 0
3, 396720, Note_on_c, 0, 60, 55
3, 397200, Note_on_c, 0, 60, 0
3, 397200, Note_on_c, 0, 59, 51
3, 397440, Note_on_c, 0, 59, 0
3, 434640, Note_on_c, 0, 69, 72
3, 435240, Note_on_c, 0, 69, 0
3, 438480, Note_on_c, 0, 72, 76
3, 439080, Note_on_c, 0, 72, 0
3, 442320, Note_on_c, 0, 69, 82
3, 442320, Note_on_c, 0, 77, 82
3, 442320, Note_on_c, 0, 72, 82
3, 442920, Note_on_c, 0, 72, 0
3, 442920, Note_on_c, 0, 77, 0
3, 442920, Note_on_c, 0, 69, 0
3, 494640, Note_on_c, 0, 81, 82
3, 494640, Note_on_c, 0, 78, 82
3, 494640, Note_on_c, 0, 74, 82
3, 494880, Note_on_c, 0, 74, 0
3, 494880, Note_on_c, 0, 78, 0
3, 494880, Note_on_c, 0, 81, 0
3, 495120, Note_on_c, 0, 79, 63
3, 495120, Note_on_c, 0, 71, 63
3, 495360, Note_on_c, 0, 71, 0
3, 495360, Note_on_c, 0, 79, 0
3, 495360, End_track
4, 0, Start_track
4, 0, Title_t, "Piano"
4, 0, Control_c, 0, 0, 0
4, 0, Control_c, 0, 7, 115
4, 0, Control_c, 0, 10, 54
4, 0, Control_c, 0, 91, 91
4, 0, Control_c, 0, 93, 28
4, 0, Pitch_bend_c, 0, 8192
4, 0, Control_c, 0, 1, 0
4, 0, Control_c, 0, 64, 0
4, 1, Control_c, 0, 32, 0
4, 1, Program_c, 0, 0
4, 1440, Note_on_c, 0, 59, 74
4, 1680, Note_on_c, 0, 62, 76
4, 1920, Note_on_c, 0, 62, 0
4, 1920, Note_on_c, 0, 59, 0
4, 1920, Note_on_c, 0, 59, 77
4, 2160, Note_on_c, 0, 62, 79
4, 2400, Note_on_c, 0, 62, 0
4, 2400, Note_on_c, 0, 59, 0
4, 2400, Note_on_c, 0, 59, 80
4, 2640, Note_on_c, 0, 62, 82
4, 2880, Note_on_c, 0, 62, 0
4, 2880, Note_on_c, 0, 59, 0
4, 2880, Note_on_c, 0, 59, 87
4, 3120, Note_on_c, 0, 62, 79
4, 3360, Note_on_c, 0, 62, 0
4, 3360, Note_on_c, 0, 59, 0
4, 3360, Note_on_c, 0, 59, 79
4, 3600, Note_on_c, 0, 62, 78
4, 3840, Note_on_c, 0, 62, 0
4, 3840, Note_on_c, 0, 59, 0
4, 3840, Note_on_c, 0, 59, 78
4, 4080, Note_on_c, 0, 62, 78
4, 4320, Note_on_c, 0, 62, 0
4, 4320, Note_on_c, 0, 59, 0
4, 4320, Note_on_c, 0, 59, 77
4, 4560, Note_on_c, 0, 62, 77
4, 4800, Note_on_c, 0, 62, 0
4, 4800, Note_on_c, 0, 59, 0
4, 4800, Note_on_c, 0, 59, 76
4, 5040, Note_on_c, 0, 62, 76
4, 5280, Note_on_c, 0, 62, 0
4, 5280, Note_on_c, 0, 59, 0
4, 5280, Note_on_c, 0, 59, 76
4, 5520, Note_on_c, 0, 62, 75
4, 5760, Note_on_c, 0, 62, 0
4, 5760, Note_on_c, 0, 59, 0
4, 5760, Note_on_c, 0, 60, 75
4, 6000, Note_on_c, 0, 64, 75
4, 6240, Note_on_c, 0, 64, 0
4, 6240, Note_on_c, 0, 60, 0
4, 6240, Note_on_c, 0, 60, 74
4, 6480, Note_on_c, 0, 64, 74
4, 6720, Note_on_c, 0, 64, 0
4, 6720, Note_on_c, 0, 60, 0
4, 6720, Note_on_c, 0, 60, 73
4, 6960, Note_on_c, 0, 64, 73
4, 7200, Note_on_c, 0, 64, 0
4, 7200, Note_on_c, 0, 60, 0
4, 7200, Note_on_c, 0, 60, 73
4, 7440, Note_on_c, 0, 64, 72
4, 7680, Note_on_c, 0, 64, 0
4, 7680, Note_on_c, 0, 60, 0
4, 7680, Note_on_c, 0, 60, 72
4, 7920, Note_on_c, 0, 64, 71
4, 8160, Note_on_c, 0, 64, 0
4, 8160, Note_on_c, 0, 60, 0
4, 8160, Note_on_c, 0, 60, 71
4, 8400, Note_on_c, 0, 64, 71
4, 8640, Note_on_c, 0, 64, 0
4, 8640, Note_on_c, 0, 60, 0
4, 8640, Note_on_c, 0, 60, 70
4, 8640, Note_on_c, 0, 57, 70
4, 8880, Note_on_c, 0, 62, 70
4, 9120, Note_on_c, 0, 62, 0
4, 9120, Note_on_c, 0, 57, 0
4, 9120, Note_on_c, 0, 60, 0
4, 9120, Note_on_c, 0, 60, 69
4, 9120, Note_on_c, 0, 57, 69
4, 9360, Note_on_c, 0, 62, 69
4, 9600, Note_on_c, 0, 62, 0
4, 9600, Note_on_c, 0, 57, 0
4, 9600, Note_on_c, 0, 60, 0
4, 9600, Note_on_c, 0, 57, 69
4, 9600, Note_on_c, 0, 60, 69
4, 9840, Note_on_c, 0, 62, 68
4, 10080, Note_on_c, 0, 62, 0
4, 10080, Note_on_c, 0, 60, 0
4, 10080, Note_on_c, 0, 57, 0
4, 10080, Note_on_c, 0, 57, 68
4, 10080, Note_on_c, 0, 60, 68
4, 10320, Note_on_c, 0, 62, 67
4, 10560, Note_on_c, 0, 62, 0
4, 10560, Note_on_c, 0, 60, 0
4, 10560, Note_on_c, 0, 57, 0
4, 10560, Note_on_c, 0, 60, 67
4, 10560, Note_on_c, 0, 57, 67
4, 10800, Note_on_c, 0, 62, 67
4, 11040, Note_on_c, 0, 62, 0
4, 11040, Note_on_c, 0, 57, 0
4, 11040, Note_on_c, 0, 60, 0
4, 11040, Note_on_c, 0, 60, 66
4, 11040, Note_on_c, 0, 57, 66
4, 11280, Note_on_c, 0, 62, 66
4, 11520, Note_on_c, 0, 62, 0
4, 11520, Note_on_c, 0, 57, 0
4, 11520, Note_on_c, 0, 60, 0
4, 12960, Note_on_c, 0, 50, 82
4, 14400, Note_on_c, 0, 50, 0
4, 14400, Note_on_c, 0, 50, 87
4, 15360, Note_on_c, 0, 50, 0
4, 66240, Note_on_c, 0, 54, 87
4, 66480, Note_on_c, 0, 57, 87
4, 66680, Note_on_c, 0, 54, 0
4, 66720, Note_on_c, 0, 57, 0
4, 66720, Note_on_c, 0, 54, 86
4, 66960, Note_on_c, 0, 57, 85
4, 67160, Note_on_c, 0, 54, 0
4, 67200, Note_on_c, 0, 57, 0
4, 67200, Note_on_c, 0, 54, 84
4, 67440, Note_on_c, 0, 57, 84
4, 67640, Note_on_c, 0, 54, 0
4, 67680, Note_on_c, 0, 57, 0
4, 67680, Note_on_c, 0, 55, 83
4, 67680, Note_on_c, 0, 52, 83
4, 67920, Note_on_c, 0, 57, 82
4, 68120, Note_on_c, 0, 52, 0
4, 68120, Note_on_c, 0, 55, 0
4, 68160, Note_on_c, 0, 57, 0
4, 68160, Note_on_c, 0, 55, 81
4, 68160, Note_on_c, 0, 52, 81
4, 68400, Note_on_c, 0, 57, 81
4, 68600, Note_on_c, 0, 52, 0
4, 68600, Note_on_c, 0, 55, 0
4, 68640, Note_on_c, 0, 57, 0
4, 68640, Note_on_c, 0, 55, 80
4, 68640, Note_on_c, 0, 52, 80
4, 68880, Note_on_c, 0, 57, 79
4, 69080, Note_on_c, 0, 52, 0
4, 69080, Note_on_c, 0, 55, 0
4, 69120, Note_on_c, 0, 57, 0
4, 74880, Note_on_c, 0, 56, 80
4, 75120, Note_on_c, 0, 59, 82
4, 75360, Note_on_c, 0, 59, 0
4, 75360, Note_on_c, 0, 56, 0
4, 75360, Note_on_c, 0, 56, 83
4, 75600, Note_on_c, 0, 59, 85
4, 75840, Note_on_c, 0, 59, 0
4, 75840, Note_on_c, 0, 56, 0
4, 75840, Note_on_c, 0, 56, 87
4, 76080, Note_on_c, 0, 59, 89
4, 76320, Note_on_c, 0, 59, 0
4, 76320, Note_on_c, 0, 56, 0
4, 76320, Note_on_c, 0, 56, 95
4, 76560, Note_on_c, 0, 59, 83
4, 76800, Note_on_c, 0, 59, 0
4, 76800, Note_on_c, 0, 56, 0
4, 76800, Note_on_c, 0, 56, 83
4, 77040, Note_on_c, 0, 59, 82
4, 77280, Note_on_c, 0, 59, 0
4, 77280, Note_on_c, 0, 56, 0
4, 77280, Note_on_c, 0, 56, 82
4, 77520, Note_on_c, 0, 59, 81
4, 77760, Note_on_c, 0, 59, 0
4, 77760, Note_on_c, 0, 56, 0
4, 77760, Note_on_c, 0, 56, 81
4, 78000, Note_on_c, 0, 59, 81
4, 78240, Note_on_c, 0, 59, 0
4, 78240, Note_on_c, 0, 56, 0
4, 78240, Note_on_c, 0, 56, 80
4, 78480, Note_on_c, 0, 59, 80
4, 78720, Note_on_c, 0, 59, 0
4, 78720, Note_on_c, 0, 56, 0
4, 78720, Note_on_c, 0, 56, 79
4, 78960, Note_on_c, 0, 59, 79
4, 79200, Note_on_c, 0, 59, 0
4, 79200, Note_on_c, 0, 56, 0
4, 79200, Note_on_c, 0, 57, 78
4, 79440, Note_on_c, 0, 61, 78
4, 79680, Note_on_c, 0, 61, 0
4, 79680, Note_on_c, 0, 57, 0
4, 79680, Note_on_c, 0, 57, 77
4, 79920, Note_on_c, 0, 61, 77
4, 80160, Note_on_c, 0, 61, 0
4, 80160, Note_on_c, 0, 57, 0
4, 80160, Note_on_c, 0, 57, 77
4, 80400, Note_on_c, 0, 61, 76
4, 80640, Note_on_c, 0, 61, 0
4, 80640, Note_on_c, 0, 57, 0
4, 80640, Note_on_c, 0, 57, 76
4, 80880, Note_on_c, 0, 61, 75
4, 81120, Note_on_c, 0, 61, 0
4, 81120, Note_on_c, 0, 57, 0
4, 81120, Note_on_c, 0, 57, 75
4, 81360, Note_on_c, 0, 61, 74
4, 81600, Note_on_c, 0, 61, 0
4, 81600, Note_on_c, 0, 57, 0
4, 81600, Note_on_c, 0, 57, 74
4, 81840, Note_on_c, 0, 61, 74
4, 82080, Note_on_c, 0, 61, 0
4, 82080, Note_on_c, 0, 57, 0
4, 82080, Note_on_c, 0, 54, 73
4, 82080, Note_on_c, 0, 57, 73
4, 82320, Note_on_c, 0, 59, 73
4, 82560, Note_on_c, 0, 59, 0
4, 82560, Note_on_c, 0, 57, 0
4, 82560, Note_on_c, 0, 54, 0
4, 82560, Note_on_c, 0, 54, 72
4, 82560, Note_on_c, 0, 57, 72
4, 82800, Note_on_c, 0, 59, 72
4, 83040, Note_on_c, 0, 59, 0
4, 83040, Note_on_c, 0, 57, 0
4, 83040, Note_on_c, 0, 54, 0
4, 83040, Note_on_c, 0, 54, 71
4, 83040, Note_on_c, 0, 57, 71
4, 83280, Note_on_c, 0, 59, 71
4, 83520, Note_on_c, 0, 59, 0
4, 83520, Note_on_c, 0, 57, 0
4, 83520, Note_on_c, 0, 54, 0
4, 83520, Note_on_c, 0, 54, 70
4, 83520, Note_on_c, 0, 57, 70
4, 83760, Note_on_c, 0, 59, 70
4, 84000, Note_on_c, 0, 59, 0
4, 84000, Note_on_c, 0, 57, 0
4, 84000, Note_on_c, 0, 54, 0
4, 84000, Note_on_c, 0, 57, 70
4, 84000, Note_on_c, 0, 54, 70
4, 84240, Note_on_c, 0, 59, 69
4, 84480, Note_on_c, 0, 59, 0
4, 84480, Note_on_c, 0, 54, 0
4, 84480, Note_on_c, 0, 57, 0
4, 84480, Note_on_c, 0, 54, 69
4, 84480, Note_on_c, 0, 57, 69
4, 84720, Note_on_c, 0, 59, 68
4, 84960, Note_on_c, 0, 59, 0
4, 84960, Note_on_c, 0, 57, 0
4, 84960, Note_on_c, 0, 54, 0
4, 85440, Note_on_c, 0, 71, 81
4, 85632, Note_on_c, 0, 71, 0
4, 85920, Note_on_c, 0, 68, 74
4, 86112, Note_on_c, 0, 68, 0
4, 86880, Note_on_c, 0, 71, 81
4, 87072, Note_on_c, 0, 71, 0
4, 87360, Note_on_c, 0, 68, 73
4, 87552, Note_on_c, 0, 68, 0
4, 88320, Note_on_c, 0, 71, 78
4, 88512, Note_on_c, 0, 71, 0
4, 88800, Note_on_c, 0, 68, 71
4, 88992, Note_on_c, 0, 68, 0
4, 89760, Note_on_c, 0, 69, 79
4, 89952, Note_on_c, 0, 69, 0
4, 90240, Note_on_c, 0, 66, 69
4, 90432, Note_on_c, 0, 66, 0
4, 91200, Note_on_c, 0, 69, 78
4, 91392, Note_on_c, 0, 69, 0
4, 91680, Note_on_c, 0, 66, 67
4, 91872, Note_on_c, 0, 66, 0
4, 92640, Note_on_c, 0, 69, 73
4, 92832, Note_on_c, 0, 69, 0
4, 93120, Note_on_c, 0, 66, 65
4, 93312, Note_on_c, 0, 66, 0
4, 94080, Note_on_c, 0, 69, 71
4, 94272, Note_on_c, 0, 69, 0
4, 94560, Note_on_c, 0, 66, 64
4, 94752, Note_on_c, 0, 66, 0
4, 95520, Note_on_c, 0, 67, 62
4, 95712, Note_on_c, 0, 67, 0
4, 96000, Note_on_c, 0, 67, 57
4, 96192, Note_on_c, 0, 67, 0
4, 96960, Note_on_c, 0, 67, 62
4, 97152, Note_on_c, 0, 67, 0
4, 97440, Note_on_c, 0, 64, 56
4, 97632, Note_on_c, 0, 64, 0
4, 98400, Note_on_c, 0, 67, 60
4, 98592, Note_on_c, 0, 67, 0
4, 98880, Note_on_c, 0, 64, 55
4, 99072, Note_on_c, 0, 64, 0
4, 99840, Note_on_c, 0, 67, 60
4, 100032, Note_on_c, 0, 67, 0
4, 100320, Note_on_c, 0, 64, 54
4, 100512, Note_on_c, 0, 64, 0
4, 101280, Note_on_c, 0, 65, 60
4, 101472, Note_on_c, 0, 65, 0
4, 101760, Note_on_c, 0, 62, 53
4, 101952, Note_on_c, 0, 62, 0
4, 102720, Note_on_c, 0, 65, 61
4, 102912, Note_on_c, 0, 65, 0
4, 103200, Note_on_c, 0, 62, 52
4, 103392, Note_on_c, 0, 62, 0
4, 104160, Note_on_c, 0, 65, 59
4, 104352, Note_on_c, 0, 65, 0
4, 104640, Note_on_c, 0, 62, 51
4, 104832, Note_on_c, 0, 62, 0
4, 105600, Note_on_c, 0, 65, 58
4, 105792, Note_on_c, 0, 65, 0
4, 106080, Note_on_c, 0, 62, 51
4, 106272, Note_on_c, 0, 62, 0
4, 107040, Note_on_c, 0, 64, 56
4, 107232, Note_on_c, 0, 64, 0
4, 107520, Note_on_c, 0, 64, 50
4, 107712, Note_on_c, 0, 64, 0
4, 108000, Note_on_c, 0, 43, 78
4, 109440, Note_on_c, 0, 43, 0
4, 109440, Note_on_c, 0, 43, 83
4, 110880, Note_on_c, 0, 43, 0
4, 110880, Note_on_c, 0, 43, 87
4, 111840, Note_on_c, 0, 43, 0
4, 120000, Note_on_c, 0, 67, 96
4, 120192, Note_on_c, 0, 67, 0
4, 120480, Note_on_c, 0, 63, 89
4, 120672, Note_on_c, 0, 63, 0
4, 121440, Note_on_c, 0, 67, 96
4, 121632, Note_on_c, 0, 67, 0
4, 121920, Note_on_c, 0, 63, 88
4, 122112, Note_on_c, 0, 63, 0
4, 122880, Note_on_c, 0, 67, 95
4, 123072, Note_on_c, 0, 67, 0
4, 123360, Note_on_c, 0, 63, 86
4, 123552, Note_on_c, 0, 63, 0
4, 124320, Note_on_c, 0, 65, 94
4, 124512, Note_on_c, 0, 65, 0
4, 124800, Note_on_c, 0, 62, 85
4, 124992, Note_on_c, 0, 62, 0
4, 125760, Note_on_c, 0, 65, 92
4, 125952, Note_on_c, 0, 65, 0
4, 126240, Note_on_c, 0, 62, 84
4, 126432, Note_on_c, 0, 62, 0
4, 127200, Note_on_c, 0, 65, 90
4, 127392, Note_on_c, 0, 65, 0
4, 127680, Note_on_c, 0, 62, 83
4, 127872, Note_on_c, 0, 62, 0
4, 128640, Note_on_c, 0, 65, 90
4, 128832, Note_on_c, 0, 65, 0
4, 129120, Note_on_c, 0, 62, 82
4, 129312, Note_on_c, 0, 62, 0
4, 130080, Note_on_c, 0, 63, 75
4, 130081, Note_on_c, 0, 63, 0
4, 130560, Note_on_c, 0, 65, 69
4, 130752, Note_on_c, 0, 65, 0
4, 131520, Note_on_c, 0, 70, 74
4, 131712, Note_on_c, 0, 70, 0
4, 132000, Note_on_c, 0, 67, 64
4, 132192, Note_on_c, 0, 67, 0
4, 132960, Note_on_c, 0, 70, 70
4, 133152, Note_on_c, 0, 70, 0
4, 133440, Note_on_c, 0, 67, 63
4, 133632, Note_on_c, 0, 67, 0
4, 134400, Note_on_c, 0, 70, 70
4, 134592, Note_on_c, 0, 70, 0
4, 134880, Note_on_c, 0, 67, 62
4, 135072, Note_on_c, 0, 67, 0
4, 135840, Note_on_c, 0, 68, 68
4, 136032, Note_on_c, 0, 68, 0
4, 136320, Note_on_c, 0, 65, 61
4, 136512, Note_on_c, 0, 65, 0
4, 137280, Note_on_c, 0, 68, 68
4, 137472, Note_on_c, 0, 68, 0
4, 137760, Note_on_c, 0, 65, 60
4, 137952, Note_on_c, 0, 65, 0
4, 138720, Note_on_c, 0, 68, 67
4, 138912, Note_on_c, 0, 68, 0
4, 139200, Note_on_c, 0, 65, 59
4, 139392, Note_on_c, 0, 65, 0
4, 140160, Note_on_c, 0, 68, 66
4, 140352, Note_on_c, 0, 68, 0
4, 140640, Note_on_c, 0, 65, 59
4, 140832, Note_on_c, 0, 65, 0
4, 141600, Note_on_c, 0, 67, 63
4, 141792, Note_on_c, 0, 67, 0
4, 142080, Note_on_c, 0, 67, 58
4, 142272, Note_on_c, 0, 67, 0
4, 142560, Note_on_c, 0, 46, 80
4, 144000, Note_on_c, 0, 46, 0
4, 144000, Note_on_c, 0, 46, 85
4, 145440, Note_on_c, 0, 46, 0
4, 145440, Note_on_c, 0, 46, 89
4, 146400, Note_on_c, 0, 46, 0
4, 160320, Note_on_c, 0, 69, 83
4, 160512, Note_on_c, 0, 69, 0
4, 160800, Note_on_c, 0, 66, 82
4, 160992, Note_on_c, 0, 66, 0
4, 161760, Note_on_c, 0, 69, 80
4, 161952, Note_on_c, 0, 69, 0
4, 162240, Note_on_c, 0, 66, 79
4, 162432, Note_on_c, 0, 66, 0
4, 163200, Note_on_c, 0, 69, 77
4, 163392, Note_on_c, 0, 69, 0
4, 163680, Note_on_c, 0, 66, 76
4, 163872, Note_on_c, 0, 66, 0
4, 164640, Note_on_c, 0, 67, 74
4, 164832, Note_on_c, 0, 67, 0
4, 165120, Note_on_c, 0, 64, 73
4, 165312, Note_on_c, 0, 64, 0
4, 166080, Note_on_c, 0, 67, 71
4, 166272, Note_on_c, 0, 67, 0
4, 166560, Note_on_c, 0, 64, 69
4, 166752, Note_on_c, 0, 64, 0
4, 167520, Note_on_c, 0, 67, 67
4, 167712, Note_on_c, 0, 67, 0
4, 168000, Note_on_c, 0, 64, 66
4, 168192, Note_on_c, 0, 64, 0
4, 168960, Note_on_c, 0, 67, 64
4, 169152, Note_on_c, 0, 67, 0
4, 169440, Note_on_c, 0, 64, 63
4, 169632, Note_on_c, 0, 64, 0
4, 170400, Note_on_c, 0, 66, 61
4, 170592, Note_on_c, 0, 66, 0
4, 170880, Note_on_c, 0, 62, 60
4, 171072, Note_on_c, 0, 62, 0
4, 177600, Note_on_c, 0, 59, 88
4, 177840, Note_on_c, 0, 62, 90
4, 178080, Note_on_c, 0, 62, 0
4, 178080, Note_on_c, 0, 59, 0
4, 178080, Note_on_c, 0, 59, 92
4, 178320, Note_on_c, 0, 62, 94
4, 178560, Note_on_c, 0, 62, 0
4, 178560, Note_on_c, 0, 59, 0
4, 178560, Note_on_c, 0, 59, 96
4, 178800, Note_on_c, 0, 62, 91
4, 179040, Note_on_c, 0, 62, 0
4, 179040, Note_on_c, 0, 59, 0
4, 179040, Note_on_c, 0, 59, 91
4, 179280, Note_on_c, 0, 62, 90
4, 179520, Note_on_c, 0, 62, 0
4, 179520, Note_on_c, 0, 59, 0
4, 179520, Note_on_c, 0, 59, 90
4, 179760, Note_on_c, 0, 62, 90
4, 180000, Note_on_c, 0, 62, 0
4, 180000, Note_on_c, 0, 59, 0
4, 180000, Note_on_c, 0, 59, 89
4, 180240, Note_on_c, 0, 62, 89
4, 180480, Note_on_c, 0, 62, 0
4, 180480, Note_on_c, 0, 59, 0
4, 180480, Note_on_c, 0, 59, 88
4, 180720, Note_on_c, 0, 62, 88
4, 180960, Note_on_c, 0, 62, 0
4, 180960, Note_on_c, 0, 59, 0
4, 180960, Note_on_c, 0, 59, 88
4, 181200, Note_on_c, 0, 62, 87
4, 181440, Note_on_c, 0, 62, 0
4, 181440, Note_on_c, 0, 59, 0
4, 181440, Note_on_c, 0, 60, 87
4, 181680, Note_on_c, 0, 64, 86
4, 181920, Note_on_c, 0, 64, 0
4, 181920, Note_on_c, 0, 60, 0
4, 181920, Note_on_c, 0, 60, 86
4, 182160, Note_on_c, 0, 64, 86
4, 182400, Note_on_c, 0, 64, 0
4, 182400, Note_on_c, 0, 60, 0
4, 182400, Note_on_c, 0, 60, 85
4, 182640, Note_on_c, 0, 64, 85
4, 182880, Note_on_c, 0, 64, 0
4, 182880, Note_on_c, 0, 60, 0
4, 182880, Note_on_c, 0, 60, 84
4, 183120, Note_on_c, 0, 64, 84
4, 183360, Note_on_c, 0, 64, 0
4, 183360, Note_on_c, 0, 60, 0
4, 183360, Note_on_c, 0, 60, 84
4, 183600, Note_on_c, 0, 64, 83
4, 183840, Note_on_c, 0, 64, 0
4, 183840, Note_on_c, 0, 60, 0
4, 183840, Note_on_c, 0, 60, 83
4, 184080, Note_on_c, 0, 64, 82
4, 184320, Note_on_c, 0, 64, 0
4, 184320, Note_on_c, 0, 60, 0
4, 184320, Note_on_c, 0, 60, 82
4, 184320, Note_on_c, 0, 57, 82
4, 184560, Note_on_c, 0, 62, 82
4, 184800, Note_on_c, 0, 62, 0
4, 184800, Note_on_c, 0, 57, 0
4, 184800, Note_on_c, 0, 60, 0
4, 184800, Note_on_c, 0, 57, 81
4, 184800, Note_on_c, 0, 60, 81
4, 185040, Note_on_c, 0, 62, 81
4, 185280, Note_on_c, 0, 62, 0
4, 185280, Note_on_c, 0, 60, 0
4, 185280, Note_on_c, 0, 57, 0
4, 185280, Note_on_c, 0, 57, 81
4, 185280, Note_on_c, 0, 60, 81
4, 185520, Note_on_c, 0, 62, 80
4, 185760, Note_on_c, 0, 62, 0
4, 185760, Note_on_c, 0, 60, 0
4, 185760, Note_on_c, 0, 57, 0
4, 185760, Note_on_c, 0, 57, 80
4, 185760, Note_on_c, 0, 60, 80
4, 186000, Note_on_c, 0, 62, 79
4, 186240, Note_on_c, 0, 62, 0
4, 186240, Note_on_c, 0, 60, 0
4, 186240, Note_on_c, 0, 57, 0
4, 186240, Note_on_c, 0, 57, 79
4, 186240, Note_on_c, 0, 60, 79
4, 186480, Note_on_c, 0, 62, 79
4, 186720, Note_on_c, 0, 62, 0
4, 186720, Note_on_c, 0, 60, 0
4, 186720, Note_on_c, 0, 57, 0
4, 186720, Note_on_c, 0, 60, 78
4, 186720, Note_on_c, 0, 57, 78
4, 186960, Note_on_c, 0, 62, 78
4, 187200, Note_on_c, 0, 62, 0
4, 187200, Note_on_c, 0, 57, 0
4, 187200, Note_on_c, 0, 60, 0
4, 241920, Note_on_c, 0, 59, 87
4, 242160, Note_on_c, 0, 62, 86
4, 242400, Note_on_c, 0, 62, 0
4, 242400, Note_on_c, 0, 59, 0
4, 242400, Note_on_c, 0, 59, 86
4, 242640, Note_on_c, 0, 62, 85
4, 242880, Note_on_c, 0, 62, 0
4, 242880, Note_on_c, 0, 59, 0
4, 242880, Note_on_c, 0, 59, 84
4, 243120, Note_on_c, 0, 62, 83
4, 243360, Note_on_c, 0, 62, 0
4, 243360, Note_on_c, 0, 59, 0
4, 243360, Note_on_c, 0, 57, 82
4, 243360, Note_on_c, 0, 60, 82
4, 243600, Note_on_c, 0, 62, 81
4, 243840, Note_on_c, 0, 62, 0
4, 243840, Note_on_c, 0, 60, 0
4, 243840, Note_on_c, 0, 57, 0
4, 243840, Note_on_c, 0, 57, 80
4, 243840, Note_on_c, 0, 60, 80
4, 244080, Note_on_c, 0, 62, 80
4, 244320, Note_on_c, 0, 62, 0
4, 244320, Note_on_c, 0, 60, 0
4, 244320, Note_on_c, 0, 57, 0
4, 244320, Note_on_c, 0, 60, 79
4, 244320, Note_on_c, 0, 57, 79
4, 244560, Note_on_c, 0, 62, 78
4, 244800, Note_on_c, 0, 62, 0
4, 244800, Note_on_c, 0, 57, 0
4, 244800, Note_on_c, 0, 60, 0
4, 245040, Note_on_c, 0, 50, 57
4, 245280, Note_on_c, 0, 50, 0
4, 245520, Note_on_c, 0, 50, 55
4, 245760, Note_on_c, 0, 50, 0
4, 246000, Note_on_c, 0, 50, 54
4, 246240, Note_on_c, 0, 50, 0
4, 246480, Note_on_c, 0, 50, 53
4, 246720, Note_on_c, 0, 50, 0
4, 246960, Note_on_c, 0, 50, 51
4, 247200, Note_on_c, 0, 50, 0
4, 247440, Note_on_c, 0, 50, 50
4, 247680, Note_on_c, 0, 50, 0
4, 247680, Note_on_c, 0, 59, 81
4, 247920, Note_on_c, 0, 62, 80
4, 248160, Note_on_c, 0, 62, 0
4, 248160, Note_on_c, 0, 59, 0
4, 248160, Note_on_c, 0, 59, 79
4, 248400, Note_on_c, 0, 62, 79
4, 248640, Note_on_c, 0, 62, 0
4, 248640, Note_on_c, 0, 59, 0
4, 248640, Note_on_c, 0, 59, 78
4, 248880, Note_on_c, 0, 62, 77
4, 249120, Note_on_c, 0, 62, 0
4, 249120, Note_on_c, 0, 59, 0
4, 249120, Note_on_c, 0, 57, 76
4, 249120, Note_on_c, 0, 60, 76
4, 249360, Note_on_c, 0, 62, 75
4, 249600, Note_on_c, 0, 62, 0
4, 249600, Note_on_c, 0, 60, 0
4, 249600, Note_on_c, 0, 57, 0
4, 249600, Note_on_c, 0, 57, 74
4, 249600, Note_on_c, 0, 60, 74
4, 249840, Note_on_c, 0, 62, 73
4, 250080, Note_on_c, 0, 62, 0
4, 250080, Note_on_c, 0, 60, 0
4, 250080, Note_on_c, 0, 57, 0
4, 250080, Note_on_c, 0, 57, 73
4, 250080, Note_on_c, 0, 60, 73
4, 250320, Note_on_c, 0, 62, 72
4, 250560, Note_on_c, 0, 62, 0
4, 250560, Note_on_c, 0, 60, 0
4, 250560, Note_on_c, 0, 57, 0
4, 250800, Note_on_c, 0, 50, 53
4, 251040, Note_on_c, 0, 50, 0
4, 251280, Note_on_c, 0, 50, 51
4, 251520, Note_on_c, 0, 50, 0
4, 251760, Note_on_c, 0, 50, 50
4, 252000, Note_on_c, 0, 50, 0
4, 252240, Note_on_c, 0, 50, 49
4, 252480, Note_on_c, 0, 50, 0
4, 252720, Note_on_c, 0, 50, 47
4, 252960, Note_on_c, 0, 50, 0
4, 253200, Note_on_c, 0, 50, 46
4, 253440, Note_on_c, 0, 50, 0
4, 259200, Note_on_c, 0, 52, 70
4, 259440, Note_on_c, 0, 57, 71
4, 259680, Note_on_c, 0, 57, 0
4, 259680, Note_on_c, 0, 52, 0
4, 259680, Note_on_c, 0, 52, 73
4, 259920, Note_on_c, 0, 57, 74
4, 260160, Note_on_c, 0, 57, 0
4, 260160, Note_on_c, 0, 52, 0
4, 260160, Note_on_c, 0, 52, 75
4, 260400, Note_on_c, 0, 57, 76
4, 260640, Note_on_c, 0, 57, 0
4, 260640, Note_on_c, 0, 52, 0
4, 260640, Note_on_c, 0, 52, 77
4, 260880, Note_on_c, 0, 57, 71
4, 261120, Note_on_c, 0, 57, 0
4, 261120, Note_on_c, 0, 52, 0
4, 261120, Note_on_c, 0, 52, 71
4, 261360, Note_on_c, 0, 57, 71
4, 261600, Note_on_c, 0, 57, 0
4, 261600, Note_on_c, 0, 52, 0
4, 261600, Note_on_c, 0, 52, 70
4, 261840, Note_on_c, 0, 57, 70
4, 262080, Note_on_c, 0, 57, 0
4, 262080, Note_on_c, 0, 52, 0
4, 262080, Note_on_c, 0, 57, 70
4, 262320, Note_on_c, 0, 60, 69
4, 262560, Note_on_c, 0, 60, 0
4, 262560, Note_on_c, 0, 57, 0
4, 262560, Note_on_c, 0, 57, 69
4, 262800, Note_on_c, 0, 60, 68
4, 263040, Note_on_c, 0, 60, 0
4, 263040, Note_on_c, 0, 57, 0
4, 263040, Note_on_c, 0, 57, 68
4, 263280, Note_on_c, 0, 60, 68
4, 263520, Note_on_c, 0, 60, 0
4, 263520, Note_on_c, 0, 57, 0
4, 263520, Note_on_c, 0, 59, 67
4, 263760, Note_on_c, 0, 62, 67
4, 264000, Note_on_c, 0, 62, 0
4, 264000, Note_on_c, 0, 59, 0
4, 264000, Note_on_c, 0, 59, 67
4, 264240, Note_on_c, 0, 62, 66
4, 264480, Note_on_c, 0, 62, 0
4, 264480, Note_on_c, 0, 59, 0
4, 264480, Note_on_c, 0, 59, 66
4, 264720, Note_on_c, 0, 62, 66
4, 264960, Note_on_c, 0, 62, 0
4, 264960, Note_on_c, 0, 59, 0
4, 270720, Note_on_c, 0, 52, 86
4, 270960, Note_on_c, 0, 57, 88
4, 271200, Note_on_c, 0, 57, 0
4, 271200, Note_on_c, 0, 52, 0
4, 271200, Note_on_c, 0, 52, 89
4, 271440, Note_on_c, 0, 57, 90
4, 271680, Note_on_c, 0, 57, 0
4, 271680, Note_on_c, 0, 52, 0
4, 271680, Note_on_c, 0, 52, 91
4, 271920, Note_on_c, 0, 57, 93
4, 272160, Note_on_c, 0, 57, 0
4, 272160, Note_on_c, 0, 52, 0
4, 272160, Note_on_c, 0, 52, 95
4, 272400, Note_on_c, 0, 57, 87
4, 272640, Note_on_c, 0, 57, 0
4, 272640, Note_on_c, 0, 52, 0
4, 272640, Note_on_c, 0, 52, 85
4, 272880, Note_on_c, 0, 57, 84
4, 273120, Note_on_c, 0, 57, 0
4, 273120, Note_on_c, 0, 52, 0
4, 273120, Note_on_c, 0, 52, 83
4, 273360, Note_on_c, 0, 57, 82
4, 273600, Note_on_c, 0, 57, 0
4, 273600, Note_on_c, 0, 52, 0
4, 273600, Note_on_c, 0, 57, 80
4, 273840, Note_on_c, 0, 60, 79
4, 274080, Note_on_c, 0, 60, 0
4, 274080, Note_on_c, 0, 57, 0
4, 274080, Note_on_c, 0, 57, 78
4, 274320, Note_on_c, 0, 60, 76
4, 274560, Note_on_c, 0, 60, 0
4, 274560, Note_on_c, 0, 57, 0
4, 274560, Note_on_c, 0, 57, 75
4, 274800, Note_on_c, 0, 60, 74
4, 275040, Note_on_c, 0, 60, 0
4, 275040, Note_on_c, 0, 57, 0
4, 275520, Note_on_c, 0, 62, 75
4, 275520, Note_on_c, 0, 59, 75
4, 276000, Note_on_c, 0, 59, 0
4, 276000, Note_on_c, 0, 62, 0
4, 276000, Note_on_c, 0, 55, 74
4, 276000, Note_on_c, 0, 59, 74
4, 276480, Note_on_c, 0, 59, 0
4, 276480, Note_on_c, 0, 55, 0
4, 276960, Note_on_c, 0, 62, 73
4, 276960, Note_on_c, 0, 59, 73
4, 277440, Note_on_c, 0, 59, 0
4, 277440, Note_on_c, 0, 62, 0
4, 277440, Note_on_c, 0, 55, 72
4, 277440, Note_on_c, 0, 59, 72
4, 277920, Note_on_c, 0, 59, 0
4, 277920, Note_on_c, 0, 55, 0
4, 278400, Note_on_c, 0, 59, 70
4, 278400, Note_on_c, 0, 62, 70
4, 278880, Note_on_c, 0, 62, 0
4, 278880, Note_on_c, 0, 59, 0
4, 278880, Note_on_c, 0, 55, 70
4, 278880, Note_on_c, 0, 59, 70
4, 279360, Note_on_c, 0, 59, 0
4, 279360, Note_on_c, 0, 55, 0
4, 279840, Note_on_c, 0, 60, 68
4, 279840, Note_on_c, 0, 57, 68
4, 280320, Note_on_c, 0, 57, 0
4, 280320, Note_on_c, 0, 60, 0
4, 280320, Note_on_c, 0, 54, 68
4, 280320, Note_on_c, 0, 57, 68
4, 280800, Note_on_c, 0, 57, 0
4, 280800, Note_on_c, 0, 54, 0
4, 281280, Note_on_c, 0, 62, 66
4, 281280, Note_on_c, 0, 59, 66
4, 281760, Note_on_c, 0, 59, 0
4, 281760, Note_on_c, 0, 62, 0
4, 281760, Note_on_c, 0, 55, 66
4, 281760, Note_on_c, 0, 59, 66
4, 282240, Note_on_c, 0, 59, 0
4, 282240, Note_on_c, 0, 55, 0
4, 282720, Note_on_c, 0, 62, 64
4, 282720, Note_on_c, 0, 59, 64
4, 283200, Note_on_c, 0, 59, 0
4, 283200, Note_on_c, 0, 62, 0
4, 283200, Note_on_c, 0, 55, 64
4, 283200, Note_on_c, 0, 59, 64
4, 283680, Note_on_c, 0, 59, 0
4, 283680, Note_on_c, 0, 55, 0
4, 284160, Note_on_c, 0, 62, 62
4, 284160, Note_on_c, 0, 59, 62
4, 284640, Note_on_c, 0, 59, 0
4, 284640, Note_on_c, 0, 62, 0
4, 284640, Note_on_c, 0, 55, 62
4, 284640, Note_on_c, 0, 59, 62
4, 285120, Note_on_c, 0, 59, 0
4, 285120, Note_on_c, 0, 55, 0
4, 285600, Note_on_c, 0, 57, 60
4, 285600, Note_on_c, 0, 60, 60
4, 286080, Note_on_c, 0, 60, 0
4, 286080, Note_on_c, 0, 57, 0
4, 286080, Note_on_c, 0, 57, 59
4, 286560, Note_on_c, 0, 57, 0
4, 290880, Control_c, 0, 7, 112
4, 290880, Pitch_bend_c, 0, 8192
4, 290880, Control_c, 0, 1, 0
4, 290880, Control_c, 0, 64, 0
4, 290880, Control_c, 0, 93, 28
4, 290880, Control_c, 0, 91, 91
4, 290880, Control_c, 0, 10, 64
4, 290880, Control_c, 0, 0, 0
4, 290880, Control_c, 0, 32, 0
4, 290880, Program_c, 0, 0
4, 293280, Note_on_c, 0, 50, 48
4, 293520, Note_on_c, 0, 50, 0
4, 293520, Note_on_c, 0, 50, 49
4, 293760, Note_on_c, 0, 50, 0
4, 294000, Note_on_c, 0, 50, 51
4, 294240, Note_on_c, 0, 50, 0
4, 294240, Note_on_c, 0, 50, 51
4, 294480, Note_on_c, 0, 50, 0
4, 294720, Note_on_c, 0, 50, 53
4, 294960, Note_on_c, 0, 50, 0
4, 294960, Note_on_c, 0, 50, 54
4, 295200, Note_on_c, 0, 50, 0
4, 295440, Note_on_c, 0, 50, 55
4, 295680, Note_on_c, 0, 50, 0
4, 295680, Note_on_c, 0, 50, 54
4, 295920, Note_on_c, 0, 50, 0
4, 296160, Note_on_c, 0, 50, 52
4, 296400, Note_on_c, 0, 50, 0
4, 296400, Note_on_c, 0, 50, 51
4, 296640, Note_on_c, 0, 50, 0
4, 296880, Note_on_c, 0, 50, 50
4, 297120, Note_on_c, 0, 50, 0
4, 297120, Note_on_c, 0, 50, 49
4, 297360, Note_on_c, 0, 50, 0
4, 297600, Note_on_c, 0, 50, 47
4, 297840, Note_on_c, 0, 50, 0
4, 297840, Note_on_c, 0, 50, 46
4, 298080, Note_on_c, 0, 50, 0
4, 298320, Note_on_c, 0, 50, 48
4, 298560, Note_on_c, 0, 50, 0
4, 298560, Note_on_c, 0, 50, 49
4, 298800, Note_on_c, 0, 50, 0
4, 299040, Note_on_c, 0, 50, 50
4, 299280, Note_on_c, 0, 50, 0
4, 299280, Note_on_c, 0, 50, 51
4, 299520, Note_on_c, 0, 50, 0
4, 299760, Note_on_c, 0, 53, 52
4, 300000, Note_on_c, 0, 53, 0
4, 300000, Note_on_c, 0, 53, 52
4, 300240, Note_on_c, 0, 53, 0
4, 300480, Note_on_c, 0, 53, 50
4, 300720, Note_on_c, 0, 53, 0
4, 300720, Note_on_c, 0, 53, 49
4, 300960, Note_on_c, 0, 53, 0
4, 301200, Note_on_c, 0, 53, 48
4, 301440, Note_on_c, 0, 53, 0
4, 301440, Note_on_c, 0, 53, 47
4, 301680, Note_on_c, 0, 53, 0
4, 301920, Note_on_c, 0, 53, 45
4, 302160, Note_on_c, 0, 53, 0
4, 302160, Note_on_c, 0, 53, 45
4, 302400, Note_on_c, 0, 53, 0
4, 302640, Note_on_c, 0, 53, 47
4, 302880, Note_on_c, 0, 53, 0
4, 302880, Note_on_c, 0, 53, 48
4, 303120, Note_on_c, 0, 53, 0
4, 303360, Note_on_c, 0, 48, 50
4, 303600, Note_on_c, 0, 48, 0
4, 303600, Note_on_c, 0, 48, 51
4, 303840, Note_on_c, 0, 48, 0
4, 304080, Note_on_c, 0, 48, 53
4, 304320, Note_on_c, 0, 48, 0
4, 304320, Note_on_c, 0, 48, 53
4, 304560, Note_on_c, 0, 48, 0
4, 304800, Note_on_c, 0, 50, 51
4, 305040, Note_on_c, 0, 50, 0
4, 305520, Note_on_c, 0, 55, 48
4, 305760, Note_on_c, 0, 55, 0
4, 305760, Note_on_c, 0, 53, 47
4, 306000, Note_on_c, 0, 53, 0
4, 306240, Note_on_c, 0, 53, 45
4, 306480, Note_on_c, 0, 53, 0
4, 306480, Note_on_c, 0, 53, 46
4, 306720, Note_on_c, 0, 53, 0
4, 306960, Note_on_c, 0, 53, 48
4, 307200, Note_on_c, 0, 53, 0
4, 307200, Note_on_c, 0, 53, 49
4, 307440, Note_on_c, 0, 53, 0
4, 307680, Note_on_c, 0, 48, 51
4, 307920, Note_on_c, 0, 48, 0
4, 307920, Note_on_c, 0, 48, 53
4, 308160, Note_on_c, 0, 48, 0
4, 308400, Note_on_c, 0, 48, 51
4, 308640, Note_on_c, 0, 48, 0
4, 308640, Note_on_c, 0, 48, 50
4, 308880, Note_on_c, 0, 48, 0
4, 309120, Note_on_c, 0, 50, 48
4, 309360, Note_on_c, 0, 50, 0
4, 309360, Note_on_c, 0, 50, 47
4, 309600, Note_on_c, 0, 50, 0
4, 309840, Note_on_c, 0, 55, 45
4, 310080, Note_on_c, 0, 55, 0
4, 310080, Note_on_c, 0, 55, 44
4, 310320, Note_on_c, 0, 55, 0
4, 336480, Note_on_c, 0, 50, 39
4, 336720, Note_on_c, 0, 50, 0
4, 336720, Note_on_c, 0, 50, 41
4, 336960, Note_on_c, 0, 50, 0
4, 337200, Note_on_c, 0, 62, 46
4, 337440, Note_on_c, 0, 62, 0
4, 337440, Note_on_c, 0, 62, 48
4, 337680, Note_on_c, 0, 62, 0
4, 338160, Note_on_c, 0, 50, 38
4, 338400, Note_on_c, 0, 50, 0
4, 338640, Note_on_c, 0, 50, 39
4, 338880, Note_on_c, 0, 50, 0
4, 338880, Note_on_c, 0, 50, 40
4, 339120, Note_on_c, 0, 50, 0
4, 339360, Note_on_c, 0, 50, 41
4, 339600, Note_on_c, 0, 50, 0
4, 339600, Note_on_c, 0, 50, 41
4, 339840, Note_on_c, 0, 50, 0
4, 340080, Note_on_c, 0, 50, 42
4, 340320, Note_on_c, 0, 50, 0
4, 340320, Note_on_c, 0, 50, 43
4, 340560, Note_on_c, 0, 50, 0
4, 340800, Note_on_c, 0, 50, 42
4, 341040, Note_on_c, 0, 50, 0
4, 341040, Note_on_c, 0, 50, 41
4, 341280, Note_on_c, 0, 50, 0
4, 341520, Note_on_c, 0, 50, 40
4, 341760, Note_on_c, 0, 50, 0
4, 341760, Note_on_c, 0, 50, 39
4, 342000, Note_on_c, 0, 50, 0
4, 342240, Note_on_c, 0, 50, 38
4, 342480, Note_on_c, 0, 50, 0
4, 342480, Note_on_c, 0, 50, 37
4, 342720, Note_on_c, 0, 50, 0
4, 342960, Note_on_c, 0, 50, 37
4, 343200, Note_on_c, 0, 50, 0
4, 343200, Note_on_c, 0, 50, 38
4, 343440, Note_on_c, 0, 50, 0
4, 343680, Note_on_c, 0, 50, 40
4, 343920, Note_on_c, 0, 50, 0
4, 343920, Note_on_c, 0, 50, 41
4, 344160, Note_on_c, 0, 50, 0
4, 344400, Note_on_c, 0, 50, 43
4, 344640, Note_on_c, 0, 50, 0
4, 344640, Note_on_c, 0, 50, 44
4, 344880, Note_on_c, 0, 50, 0
4, 345120, Note_on_c, 0, 53, 43
4, 345360, Note_on_c, 0, 53, 0
4, 345360, Note_on_c, 0, 53, 42
4, 345600, Note_on_c, 0, 53, 0
4, 345840, Note_on_c, 0, 53, 41
4, 346080, Note_on_c, 0, 53, 0
4, 346080, Note_on_c, 0, 53, 40
4, 346320, Note_on_c, 0, 53, 0
4, 346560, Note_on_c, 0, 53, 39
4, 346800, Note_on_c, 0, 53, 0
4, 346800, Note_on_c, 0, 53, 39
4, 347040, Note_on_c, 0, 53, 0
4, 347280, Note_on_c, 0, 53, 38
4, 347520, Note_on_c, 0, 53, 0
4, 347520, Note_on_c, 0, 53, 39
4, 347760, Note_on_c, 0, 53, 0
4, 348000, Note_on_c, 0, 53, 41
4, 348240, Note_on_c, 0, 53, 0
4, 348240, Note_on_c, 0, 53, 42
4, 348480, Note_on_c, 0, 53, 0
4, 348720, Note_on_c, 0, 48, 43
4, 348960, Note_on_c, 0, 48, 0
4, 348960, Note_on_c, 0, 48, 44
4, 349200, Note_on_c, 0, 48, 0
4, 349440, Note_on_c, 0, 48, 45
4, 349680, Note_on_c, 0, 48, 0
4, 349680, Note_on_c, 0, 48, 45
4, 349920, Note_on_c, 0, 48, 0
4, 350160, Note_on_c, 0, 50, 46
4, 350400, Note_on_c, 0, 50, 0
4, 350880, Note_on_c, 0, 55, 43
4, 351120, Note_on_c, 0, 55, 0
4, 351120, Note_on_c, 0, 53, 42
4, 351360, Note_on_c, 0, 53, 0
4, 351600, Note_on_c, 0, 53, 41
4, 351840, Note_on_c, 0, 53, 0
4, 351840, Note_on_c, 0, 53, 42
4, 352080, Note_on_c, 0, 53, 0
4, 352320, Note_on_c, 0, 53, 43
4, 352560, Note_on_c, 0, 53, 0
4, 352560, Note_on_c, 0, 53, 44
4, 352800, Note_on_c, 0, 53, 0
4, 353040, Note_on_c, 0, 48, 46
4, 353280, Note_on_c, 0, 48, 0
4, 353280, Note_on_c, 0, 48, 47
4, 353520, Note_on_c, 0, 48, 0
4, 353760, Note_on_c, 0, 48, 46
4, 354000, Note_on_c, 0, 48, 0
4, 354000, Note_on_c, 0, 48, 45
4, 354240, Note_on_c, 0, 48, 0
4, 354480, Note_on_c, 0, 50, 43
4, 354720, Note_on_c, 0, 50, 0
4, 354720, Note_on_c, 0, 50, 43
4, 354960, Note_on_c, 0, 50, 0
4, 362160, Note_on_c, 0, 57, 49
4, 362520, Note_on_c, 0, 57, 0
4, 362640, Note_on_c, 0, 60, 43
4, 362832, Note_on_c, 0, 60, 0
4, 363600, Note_on_c, 0, 57, 45
4, 363960, Note_on_c, 0, 57, 0
4, 364080, Note_on_c, 0, 60, 38
4, 364272, Note_on_c, 0, 60, 0
4, 364320, Note_on_c, 0, 57, 39
4, 364800, Note_on_c, 0, 57, 0
4, 365040, Note_on_c, 0, 55, 36
4, 365520, Note_on_c, 0, 55, 0
4, 366479, Control_c, 0, 0, 0
4, 366480, Control_c, 0, 32, 0
4, 366480, Program_c, 0, 0
4, 366480, Control_c, 0, 7, 112
4, 366480, Pitch_bend_c, 0, 8192
4, 366480, Control_c, 0, 1, 0
4, 366480, Control_c, 0, 64, 0
4, 366480, Control_c, 0, 93, 28
4, 366480, Control_c, 0, 91, 91
4, 366480, Control_c, 0, 10, 64
4, 367440, Note_on_c, 0, 59, 54
4, 367920, Note_on_c, 0, 59, 0
4, 367920, Note_on_c, 0, 57, 55
4, 368400, Note_on_c, 0, 57, 0
4, 368400, Note_on_c, 0, 55, 57
4, 368880, Note_on_c, 0, 55, 0
4, 368880, Note_on_c, 0, 54, 58
4, 369360, Note_on_c, 0, 54, 0
4, 369360, Note_on_c, 0, 52, 59
4, 369840, Note_on_c, 0, 52, 0
4, 369840, Note_on_c, 0, 50, 58
4, 370320, Note_on_c, 0, 50, 0
4, 370320, Note_on_c, 0, 54, 56
4, 370800, Note_on_c, 0, 54, 0
4, 370800, Note_on_c, 0, 55, 55
4, 371280, Note_on_c, 0, 55, 0
4, 371280, Note_on_c, 0, 59, 54
4, 371760, Note_on_c, 0, 59, 0
4, 371760, Note_on_c, 0, 57, 55
4, 372240, Note_on_c, 0, 57, 0
4, 372240, Note_on_c, 0, 61, 57
4, 372720, Note_on_c, 0, 61, 0
4, 372720, Note_on_c, 0, 62, 61
4, 373200, Note_on_c, 0, 62, 0
4, 373200, Note_on_c, 0, 59, 59
4, 373680, Note_on_c, 0, 59, 0
4, 373680, Note_on_c, 0, 64, 57
4, 374160, Note_on_c, 0, 64, 0
4, 374160, Note_on_c, 0, 62, 54
4, 374400, Note_on_c, 0, 62, 0
4, 375120, Control_c, 0, 64, 0
4, 375120, Note_on_c, 0, 59, 54
4, 375600, Note_on_c, 0, 59, 0
4, 375600, Note_on_c, 0, 57, 55
4, 376080, Note_on_c, 0, 57, 0
4, 376080, Note_on_c, 0, 55, 57
4, 376560, Note_on_c, 0, 55, 0
4, 376560, Note_on_c, 0, 54, 58
4, 377040, Note_on_c, 0, 54, 0
4, 377040, Note_on_c, 0, 52, 59
4, 377520, Note_on_c, 0, 52, 0
4, 377520, Note_on_c, 0, 50, 58
4, 378000, Note_on_c, 0, 50, 0
4, 378000, Note_on_c, 0, 54, 56
4, 378480, Note_on_c, 0, 54, 0
4, 378480, Note_on_c, 0, 55, 55
4, 378960, Note_on_c, 0, 55, 0
4, 378960, Note_on_c, 0, 59, 54
4, 379440, Note_on_c, 0, 59, 0
4, 379440, Note_on_c, 0, 57, 55
4, 379920, Note_on_c, 0, 57, 0
4, 379920, Note_on_c, 0, 61, 57
4, 380400, Note_on_c, 0, 61, 0
4, 380400, Note_on_c, 0, 62, 61
4, 380880, Note_on_c, 0, 62, 0
4, 380880, Note_on_c, 0, 59, 59
4, 381360, Note_on_c, 0, 59, 0
4, 381360, Note_on_c, 0, 64, 57
4, 381840, Note_on_c, 0, 64, 0
4, 381840, Note_on_c, 0, 62, 54
4, 382080, Note_on_c, 0, 62, 0
4, 387120, Note_on_c, 0, 52, 62
4, 387600, Note_on_c, 0, 52, 0
4, 388080, Note_on_c, 0, 50, 59
4, 388560, Note_on_c, 0, 50, 0
4, 388560, Note_on_c, 0, 48, 57
4, 389040, Note_on_c, 0, 48, 0
4, 389040, Note_on_c, 0, 50, 56
4, 389520, Note_on_c, 0, 50, 0
4, 390480, Control_c, 0, 64, 0
4, 394800, Note_on_c, 0, 52, 62
4, 395280, Note_on_c, 0, 52, 0
4, 395760, Note_on_c, 0, 50, 59
4, 396240, Note_on_c, 0, 50, 0
4, 396240, Note_on_c, 0, 48, 57
4, 396720, Note_on_c, 0, 48, 0
4, 396720, Note_on_c, 0, 50, 56
4, 397200, Note_on_c, 0, 50, 0
4, 399120, Note_on_c, 0, 55, 84
4, 399240, Note_on_c, 0, 59, 86
4, 399344, Note_on_c, 0, 55, 0
4, 399360, Note_on_c, 0, 59, 0
4, 399360, Note_on_c, 0, 55, 87
4, 399480, Note_on_c, 0, 59, 89
4, 399584, Note_on_c, 0, 55, 0
4, 399600, Note_on_c, 0, 59, 0
4, 399600, Note_on_c, 0, 55, 90
4, 399720, Note_on_c, 0, 59, 87
4, 399824, Note_on_c, 0, 55, 0
4, 399840, Note_on_c, 0, 59, 0
4, 399840, Note_on_c, 0, 55, 87
4, 399960, Note_on_c, 0, 59, 87
4, 400064, Note_on_c, 0, 55, 0
4, 400080, Note_on_c, 0, 59, 0
4, 400080, Note_on_c, 0, 54, 86
4, 400080, Note_on_c, 0, 57, 86
4, 400200, Note_on_c, 0, 59, 86
4, 400304, Note_on_c, 0, 57, 0
4, 400304, Note_on_c, 0, 54, 0
4, 400320, Note_on_c, 0, 59, 0
4, 400320, Note_on_c, 0, 54, 86
4, 400320, Note_on_c, 0, 57, 86
4, 400440, Note_on_c, 0, 59, 85
4, 400544, Note_on_c, 0, 57, 0
4, 400544, Note_on_c, 0, 54, 0
4, 400560, Note_on_c, 0, 59, 0
4, 400560, Note_on_c, 0, 54, 85
4, 400560, Note_on_c, 0, 57, 85
4, 400680, Note_on_c, 0, 59, 85
4, 400784, Note_on_c, 0, 57, 0
4, 400784, Note_on_c, 0, 54, 0
4, 400800, Note_on_c, 0, 59, 0
4, 400800, Note_on_c, 0, 54, 85
4, 400800, Note_on_c, 0, 57, 85
4, 400920, Note_on_c, 0, 59, 84
4, 401024, Note_on_c, 0, 57, 0
4, 401024, Note_on_c, 0, 54, 0
4, 401040, Note_on_c, 0, 59, 0
4, 401040, Note_on_c, 0, 55, 84
4, 401160, Note_on_c, 0, 59, 84
4, 401264, Note_on_c, 0, 55, 0
4, 401280, Note_on_c, 0, 59, 0
4, 401280, Note_on_c, 0, 55, 83
4, 401400, Note_on_c, 0, 59, 83
4, 401504, Note_on_c, 0, 55, 0
4, 401520, Note_on_c, 0, 59, 0
4, 401520, Note_on_c, 0, 55, 83
4, 401640, Note_on_c, 0, 59, 82
4, 401744, Note_on_c, 0, 55, 0
4, 401760, Note_on_c, 0, 59, 0
4, 401760, Note_on_c, 0, 55, 82
4, 401880, Note_on_c, 0, 59, 82
4, 401984, Note_on_c, 0, 55, 0
4, 402000, Note_on_c, 0, 59, 0
4, 416560, Note_on_c, 0, 59, 63
4, 416720, Note_on_c, 0, 59, 0
4, 416720, Note_on_c, 0, 62, 62
4, 416880, Note_on_c, 0, 62, 0
4, 417040, Note_on_c, 0, 59, 61
4, 417200, Note_on_c, 0, 59, 0
4, 417200, Note_on_c, 0, 57, 61
4, 417360, Note_on_c, 0, 57, 0
4, 417520, Note_on_c, 0, 55, 60
4, 417680, Note_on_c, 0, 55, 0
4, 417680, Note_on_c, 0, 59, 59
4, 417840, Note_on_c, 0, 59, 0
4, 418000, Note_on_c, 0, 54, 58
4, 418160, Note_on_c, 0, 54, 0
4, 418160, Note_on_c, 0, 59, 58
4, 418320, Note_on_c, 0, 59, 0
4, 418480, Note_on_c, 0, 52, 57
4, 418640, Note_on_c, 0, 52, 0
4, 418640, Note_on_c, 0, 55, 56
4, 418800, Note_on_c, 0, 55, 0
4, 418960, Note_on_c, 0, 50, 56
4, 419120, Note_on_c, 0, 50, 0
4, 419120, Note_on_c, 0, 55, 55
4, 419280, Note_on_c, 0, 55, 0
4, 419440, Note_on_c, 0, 50, 54
4, 419600, Note_on_c, 0, 50, 0
4, 419600, Note_on_c, 0, 54, 54
4, 419760, Note_on_c, 0, 54, 0
4, 419920, Note_on_c, 0, 50, 53
4, 420080, Note_on_c, 0, 50, 0
4, 420080, Note_on_c, 0, 55, 52
4, 420240, Note_on_c, 0, 55, 0
4, 420400, Note_on_c, 0, 59, 54
4, 420560, Note_on_c, 0, 59, 0
4, 420560, Note_on_c, 0, 62, 55
4, 420720, Note_on_c, 0, 62, 0
4, 420880, Note_on_c, 0, 57, 56
4, 421040, Note_on_c, 0, 57, 0
4, 421040, Note_on_c, 0, 62, 56
4, 421200, Note_on_c, 0, 62, 0
4, 421360, Note_on_c, 0, 57, 58
4, 421520, Note_on_c, 0, 57, 0
4, 421520, Note_on_c, 0, 61, 58
4, 421680, Note_on_c, 0, 61, 0
4, 421840, Note_on_c, 0, 57, 59
4, 422000, Note_on_c, 0, 57, 0
4, 422000, Note_on_c, 0, 62, 60
4, 422160, Note_on_c, 0, 62, 0
4, 422320, Note_on_c, 0, 59, 61
4, 422480, Note_on_c, 0, 59, 0
4, 422480, Note_on_c, 0, 64, 61
4, 422640, Note_on_c, 0, 64, 0
4, 422800, Note_on_c, 0, 64, 63
4, 422960, Note_on_c, 0, 64, 0
4, 422960, Note_on_c, 0, 67, 63
4, 423120, Note_on_c, 0, 67, 0
4, 428080, Note_on_c, 0, 54, 63
4, 428240, Note_on_c, 0, 54, 0
4, 428240, Note_on_c, 0, 57, 62
4, 428400, Note_on_c, 0, 57, 0
4, 428560, Note_on_c, 0, 55, 61
4, 428720, Note_on_c, 0, 55, 0
4, 428720, Note_on_c, 0, 57, 60
4, 428880, Note_on_c, 0, 57, 0
4, 429040, Note_on_c, 0, 54, 59
4, 429200, Note_on_c, 0, 54, 0
4, 429200, Note_on_c, 0, 57, 59
4, 429360, Note_on_c, 0, 57, 0
4, 429520, Note_on_c, 0, 53, 58
4, 429680, Note_on_c, 0, 53, 0
4, 429680, Note_on_c, 0, 55, 57
4, 429840, Note_on_c, 0, 55, 0
4, 430000, Note_on_c, 0, 52, 56
4, 430160, Note_on_c, 0, 52, 0
4, 430160, Note_on_c, 0, 57, 55
4, 430320, Note_on_c, 0, 57, 0
4, 430480, Note_on_c, 0, 54, 54
4, 430640, Note_on_c, 0, 54, 0
4, 430640, Note_on_c, 0, 57, 54
4, 430800, Note_on_c, 0, 57, 0
4, 430960, Note_on_c, 0, 50, 53
4, 431120, Note_on_c, 0, 50, 0
4, 431120, Note_on_c, 0, 55, 52
4, 431280, Note_on_c, 0, 55, 0
4, 447280, Note_on_c, 0, 64, 56
4, 447440, Note_on_c, 0, 64, 0
4, 447440, Note_on_c, 0, 67, 56
4, 447600, Note_on_c, 0, 67, 0
4, 447760, Note_on_c, 0, 62, 56
4, 447920, Note_on_c, 0, 62, 0
4, 447920, Note_on_c, 0, 67, 57
4, 448080, Note_on_c, 0, 67, 0
4, 448240, Note_on_c, 0, 64, 57
4, 448400, Note_on_c, 0, 64, 0
4, 448400, Note_on_c, 0, 67, 57
4, 448560, Note_on_c, 0, 67, 0
4, 448720, Note_on_c, 0, 62, 57
4, 448880, Note_on_c, 0, 62, 0
4, 448880, Note_on_c, 0, 67, 58
4, 449040, Note_on_c, 0, 67, 0
4, 449200, Note_on_c, 0, 60, 58
4, 449360, Note_on_c, 0, 60, 0
4, 449360, Note_on_c, 0, 64, 58
4, 449520, Note_on_c, 0, 64, 0
4, 449680, Note_on_c, 0, 59, 58
4, 449840, Note_on_c, 0, 59, 0
4, 449840, Note_on_c, 0, 64, 59
4, 450000, Note_on_c, 0, 64, 0
4, 450160, Note_on_c, 0, 60, 59
4, 450320, Note_on_c, 0, 60, 0
4, 450320, Note_on_c, 0, 64, 59
4, 450480, Note_on_c, 0, 64, 0
4, 450640, Note_on_c, 0, 59, 59
4, 450800, Note_on_c, 0, 59, 0
4, 450800, Note_on_c, 0, 64, 60
4, 450960, Note_on_c, 0, 64, 0
4, 451120, Note_on_c, 0, 60, 60
4, 451280, Note_on_c, 0, 60, 0
4, 451280, Note_on_c, 0, 64, 60
4, 451440, Note_on_c, 0, 64, 0
4, 451600, Note_on_c, 0, 57, 61
4, 451760, Note_on_c, 0, 57, 0
4, 451760, Note_on_c, 0, 62, 61
4, 451920, Note_on_c, 0, 62, 0
4, 452040, Note_on_c, 0, 59, 61
4, 452160, Note_on_c, 0, 59, 0
4, 452160, Note_on_c, 0, 62, 61
4, 452280, Note_on_c, 0, 62, 0
4, 452280, Note_on_c, 0, 59, 61
4, 452400, Note_on_c, 0, 59, 0
4, 452520, Note_on_c, 0, 57, 62
4, 452640, Note_on_c, 0, 57, 0
4, 452640, Note_on_c, 0, 62, 62
4, 452760, Note_on_c, 0, 62, 0
4, 452760, Note_on_c, 0, 57, 62
4, 452880, Note_on_c, 0, 57, 0
4, 453000, Note_on_c, 0, 55, 62
4, 453120, Note_on_c, 0, 55, 0
4, 453120, Note_on_c, 0, 59, 62
4, 453240, Note_on_c, 0, 59, 0
4, 453240, Note_on_c, 0, 55, 62
4, 453360, Note_on_c, 0, 55, 0
4, 453480, Note_on_c, 0, 54, 63
4, 453600, Note_on_c, 0, 54, 0
4, 453600, Note_on_c, 0, 59, 63
4, 453720, Note_on_c, 0, 59, 0
4, 453720, Note_on_c, 0, 54, 63
4, 453840, Note_on_c, 0, 54, 0
4, 453960, Note_on_c, 0, 52, 63
4, 454080, Note_on_c, 0, 52, 0
4, 454080, Note_on_c, 0, 55, 63
4, 454200, Note_on_c, 0, 55, 0
4, 454200, Note_on_c, 0, 52, 63
4, 454320, Note_on_c, 0, 52, 0
4, 454440, Note_on_c, 0, 50, 64
4, 454560, Note_on_c, 0, 50, 0
4, 454560, Note_on_c, 0, 55, 64
4, 454680, Note_on_c, 0, 55, 0
4, 454680, Note_on_c, 0, 50, 64
4, 454800, Note_on_c, 0, 50, 0
4, 454920, Note_on_c, 0, 50, 64
4, 455040, Note_on_c, 0, 50, 0
4, 455040, Note_on_c, 0, 54, 64
4, 455160, Note_on_c, 0, 54, 0
4, 455160, Note_on_c, 0, 50, 64
4, 455280, Note_on_c, 0, 50, 0
4, 455400, Note_on_c, 0, 50, 65
4, 455520, Note_on_c, 0, 50, 0
4, 455520, Note_on_c, 0, 55, 65
4, 455640, Note_on_c, 0, 55, 0
4, 455640, Note_on_c, 0, 50, 65
4, 455760, Note_on_c, 0, 50, 0
4, 455880, Note_on_c, 0, 59, 65
4, 456000, Note_on_c, 0, 59, 0
4, 456000, Note_on_c, 0, 62, 65
4, 456120, Note_on_c, 0, 62, 0
4, 456120, Note_on_c, 0, 59, 65
4, 456240, Note_on_c, 0, 59, 0
4, 456360, Note_on_c, 0, 57, 66
4, 456480, Note_on_c, 0, 57, 0
4, 456480, Note_on_c, 0, 62, 66
4, 456600, Note_on_c, 0, 62, 0
4, 456600, Note_on_c, 0, 57, 66
4, 456720, Note_on_c, 0, 57, 0
4, 456840, Note_on_c, 0, 57, 66
4, 456960, Note_on_c, 0, 57, 0
4, 456960, Note_on_c, 0, 61, 66
4, 457080, Note_on_c, 0, 61, 0
4, 457080, Note_on_c, 0, 57, 66
4, 457200, Note_on_c, 0, 57, 0
4, 457320, Note_on_c, 0, 57, 67
4, 457440, Note_on_c, 0, 57, 0
4, 457440, Note_on_c, 0, 62, 67
4, 457560, Note_on_c, 0, 62, 0
4, 457560, Note_on_c, 0, 57, 67
4, 457680, Note_on_c, 0, 57, 0
4, 457800, Note_on_c, 0, 59, 67
4, 457920, Note_on_c, 0, 59, 0
4, 457920, Note_on_c, 0, 62, 67
4, 458040, Note_on_c, 0, 62, 0
4, 458040, Note_on_c, 0, 59, 68
4, 458160, Note_on_c, 0, 59, 0
4, 458280, Note_on_c, 0, 64, 68
4, 458400, Note_on_c, 0, 64, 0
4, 458400, Note_on_c, 0, 67, 68
4, 458520, Note_on_c, 0, 67, 0
4, 458520, Note_on_c, 0, 64, 68
4, 458640, Note_on_c, 0, 64, 0
4, 459720, Note_on_c, 0, 62, 62
4, 459840, Note_on_c, 0, 62, 0
4, 459840, Note_on_c, 0, 59, 62
4, 459960, Note_on_c, 0, 59, 0
4, 459960, Note_on_c, 0, 62, 63
4, 460080, Note_on_c, 0, 62, 0
4, 460200, Note_on_c, 0, 62, 63
4, 460320, Note_on_c, 0, 62, 0
4, 460320, Note_on_c, 0, 57, 63
4, 460440, Note_on_c, 0, 57, 0
4, 460440, Note_on_c, 0, 62, 64
4, 460560, Note_on_c, 0, 62, 0
4, 460680, Note_on_c, 0, 59, 64
4, 460800, Note_on_c, 0, 59, 0
4, 460800, Note_on_c, 0, 55, 65
4, 460920, Note_on_c, 0, 55, 0
4, 460920, Note_on_c, 0, 59, 65
4, 461040, Note_on_c, 0, 59, 0
4, 461160, Note_on_c, 0, 59, 65
4, 461280, Note_on_c, 0, 59, 0
4, 461280, Note_on_c, 0, 55, 66
4, 461400, Note_on_c, 0, 55, 0
4, 461400, Note_on_c, 0, 59, 66
4, 461520, Note_on_c, 0, 59, 0
4, 461640, Note_on_c, 0, 55, 67
4, 461760, Note_on_c, 0, 55, 0
4, 461760, Note_on_c, 0, 52, 67
4, 461880, Note_on_c, 0, 52, 0
4, 461880, Note_on_c, 0, 55, 67
4, 462000, Note_on_c, 0, 55, 0
4, 462120, Note_on_c, 0, 55, 68
4, 462240, Note_on_c, 0, 55, 0
4, 462240, Note_on_c, 0, 50, 68
4, 462360, Note_on_c, 0, 50, 0
4, 462360, Note_on_c, 0, 55, 68
4, 462480, Note_on_c, 0, 55, 0
4, 462600, Note_on_c, 0, 54, 69
4, 462720, Note_on_c, 0, 54, 0
4, 462720, Note_on_c, 0, 50, 69
4, 462840, Note_on_c, 0, 50, 0
4, 462840, Note_on_c, 0, 54, 69
4, 462960, Note_on_c, 0, 54, 0
4, 463080, Note_on_c, 0, 55, 70
4, 463200, Note_on_c, 0, 55, 0
4, 463200, Note_on_c, 0, 50, 70
4, 463320, Note_on_c, 0, 50, 0
4, 463320, Note_on_c, 0, 55, 70
4, 463440, Note_on_c, 0, 55, 0
4, 463560, Note_on_c, 0, 62, 71
4, 463680, Note_on_c, 0, 62, 0
4, 463680, Note_on_c, 0, 59, 71
4, 463800, Note_on_c, 0, 59, 0
4, 463800, Note_on_c, 0, 62, 72
4, 463920, Note_on_c, 0, 62, 0
4, 464040, Note_on_c, 0, 62, 72
4, 464160, Note_on_c, 0, 62, 0
4, 464160, Note_on_c, 0, 57, 72
4, 464280, Note_on_c, 0, 57, 0
4, 464280, Note_on_c, 0, 62, 73
4, 464400, Note_on_c, 0, 62, 0
4, 464520, Note_on_c, 0, 61, 73
4, 464640, Note_on_c, 0, 61, 0
4, 464640, Note_on_c, 0, 55, 74
4, 464760, Note_on_c, 0, 55, 0
4, 464760, Note_on_c, 0, 61, 74
4, 464880, Note_on_c, 0, 61, 0
4, 465000, Note_on_c, 0, 62, 74
4, 465120, Note_on_c, 0, 62, 0
4, 465120, Note_on_c, 0, 57, 75
4, 465240, Note_on_c, 0, 57, 0
4, 465240, Note_on_c, 0, 62, 75
4, 465360, Note_on_c, 0, 62, 0
4, 465480, Note_on_c, 0, 64, 75
4, 465600, Note_on_c, 0, 64, 0
4, 465600, Note_on_c, 0, 59, 76
4, 465720, Note_on_c, 0, 59, 0
4, 465720, Note_on_c, 0, 64, 76
4, 465840, Note_on_c, 0, 64, 0
4, 465960, Note_on_c, 0, 67, 77
4, 466080, Note_on_c, 0, 67, 0
4, 466080, Note_on_c, 0, 64, 77
4, 466200, Note_on_c, 0, 64, 0
4, 466200, Note_on_c, 0, 67, 77
4, 466320, Note_on_c, 0, 67, 0
4, 471240, Note_on_c, 0, 57, 61
4, 471360, Note_on_c, 0, 57, 0
4, 471360, Note_on_c, 0, 54, 61
4, 471480, Note_on_c, 0, 54, 0
4, 471480, Note_on_c, 0, 57, 61
4, 471600, Note_on_c, 0, 57, 0
4, 471720, Note_on_c, 0, 57, 60
4, 471840, Note_on_c, 0, 57, 0
4, 471840, Note_on_c, 0, 55, 60
4, 471960, Note_on_c, 0, 55, 0
4, 471960, Note_on_c, 0, 57, 60
4, 472080, Note_on_c, 0, 57, 0
4, 472200, Note_on_c, 0, 57, 60
4, 472320, Note_on_c, 0, 57, 0
4, 472320, Note_on_c, 0, 54, 60
4, 472440, Note_on_c, 0, 54, 0
4, 472440, Note_on_c, 0, 57, 59
4, 472560, Note_on_c, 0, 57, 0
4, 472680, Note_on_c, 0, 55, 59
4, 472800, Note_on_c, 0, 55, 0
4, 472800, Note_on_c, 0, 53, 59
4, 472920, Note_on_c, 0, 53, 0
4, 472920, Note_on_c, 0, 55, 59
4, 473040, Note_on_c, 0, 55, 0
4, 473160, Note_on_c, 0, 57, 58
4, 473280, Note_on_c, 0, 57, 0
4, 473280, Note_on_c, 0, 52, 58
4, 473400, Note_on_c, 0, 52, 0
4, 473400, Note_on_c, 0, 57, 58
4, 473520, Note_on_c, 0, 57, 0
4, 473640, Note_on_c, 0, 60, 57
4, 473760, Note_on_c, 0, 60, 0
4, 473760, Note_on_c, 0, 57, 57
4, 473880, Note_on_c, 0, 57, 0
4, 473880, Note_on_c, 0, 60, 57
4, 474000, Note_on_c, 0, 60, 0
4, 474000, Note_on_c, 0, 59, 57
4, 474220, Note_on_c, 0, 59, 0
4, 477000, Note_on_c, 0, 78, 57
4, 477120, Note_on_c, 0, 78, 0
4, 477240, Note_on_c, 0, 78, 55
4, 477360, Note_on_c, 0, 78, 0
4, 477480, Note_on_c, 0, 79, 54
4, 477600, Note_on_c, 0, 79, 0
4, 477720, Note_on_c, 0, 79, 53
4, 477840, Note_on_c, 0, 79, 0
4, 477840, Note_on_c, 0, 78, 53
4, 478080, Note_on_c, 0, 78, 0
4, 480840, Note_on_c, 0, 76, 53
4, 480960, Note_on_c, 0, 76, 0
4, 481080, Note_on_c, 0, 74, 52
4, 481200, Note_on_c, 0, 74, 0
4, 481320, Note_on_c, 0, 76, 51
4, 481440, Note_on_c, 0, 76, 0
4, 481560, Note_on_c, 0, 72, 50
4, 481680, Note_on_c, 0, 72, 0
4, 481680, Note_on_c, 0, 74, 50
4, 481920, Note_on_c, 0, 74, 0
4, 482760, Note_on_c, 0, 64, 51
4, 482880, Note_on_c, 0, 64, 0
4, 483000, Note_on_c, 0, 62, 49
4, 483120, Note_on_c, 0, 62, 0
4, 483240, Note_on_c, 0, 64, 48
4, 483360, Note_on_c, 0, 64, 0
4, 483480, Note_on_c, 0, 60, 47
4, 483600, Note_on_c, 0, 60, 0
4, 483720, Note_on_c, 0, 62, 48
4, 483840, Note_on_c, 0, 62, 0
4, 483960, Note_on_c, 0, 62, 49
4, 484080, Note_on_c, 0, 62, 0
4, 484200, Note_on_c, 0, 65, 49
4, 484320, Note_on_c, 0, 65, 0
4, 484440, Note_on_c, 0, 65, 50
4, 484560, Note_on_c, 0, 65, 0
4, 484680, Note_on_c, 0, 64, 50
4, 484800, Note_on_c, 0, 64, 0
4, 484920, Note_on_c, 0, 64, 51
4, 485040, Note_on_c, 0, 64, 0
4, 485160, Note_on_c, 0, 66, 52
4, 485280, Note_on_c, 0, 66, 0
4, 485400, Note_on_c, 0, 66, 52
4, 485520, Note_on_c, 0, 66, 0
4, 485640, Note_on_c, 0, 67, 53
4, 485760, Note_on_c, 0, 67, 0
4, 485880, Note_on_c, 0, 67, 54
4, 486000, Note_on_c, 0, 67, 0
4, 486120, Note_on_c, 0, 65, 54
4, 486240, Note_on_c, 0, 65, 0
4, 486360, Note_on_c, 0, 65, 55
4, 486480, Note_on_c, 0, 65, 0
4, 486600, Note_on_c, 0, 64, 55
4, 486720, Note_on_c, 0, 64, 0
4, 486840, Note_on_c, 0, 64, 56
4, 486960, Note_on_c, 0, 64, 0
4, 487080, Note_on_c, 0, 66, 57
4, 487200, Note_on_c, 0, 66, 0
4, 487320, Note_on_c, 0, 66, 57
4, 487440, Note_on_c, 0, 66, 0
4, 487560, Note_on_c, 0, 67, 58
4, 487680, Note_on_c, 0, 67, 0
4, 487800, Note_on_c, 0, 67, 58
4, 487920, Note_on_c, 0, 67, 0
4, 488040, Note_on_c, 0, 65, 59
4, 488160, Note_on_c, 0, 65, 0
4, 488280, Note_on_c, 0, 65, 60
4, 488400, Note_on_c, 0, 65, 0
4, 488520, Note_on_c, 0, 64, 60
4, 488640, Note_on_c, 0, 64, 0
4, 488760, Note_on_c, 0, 64, 61
4, 488880, Note_on_c, 0, 64, 0
4, 489000, Note_on_c, 0, 66, 62
4, 489120, Note_on_c, 0, 66, 0
4, 489240, Note_on_c, 0, 66, 62
4, 489360, Note_on_c, 0, 66, 0
4, 489480, Note_on_c, 0, 67, 63
4, 489600, Note_on_c, 0, 67, 0
4, 489720, Note_on_c, 0, 67, 63
4, 489840, Note_on_c, 0, 67, 0
4, 489960, Note_on_c, 0, 65, 64
4, 490080, Note_on_c, 0, 65, 0
4, 490200, Note_on_c, 0, 65, 65
4, 490320, Note_on_c, 0, 65, 0
4, 490440, Note_on_c, 0, 64, 65
4, 490560, Note_on_c, 0, 64, 0
4, 490680, Note_on_c, 0, 64, 66
4, 490800, Note_on_c, 0, 64, 0
4, 490920, Note_on_c, 0, 66, 67
4, 491040, Note_on_c, 0, 66, 0
4, 491160, Note_on_c, 0, 66, 67
4, 491280, Note_on_c, 0, 66, 0
4, 491400, Note_on_c, 0, 59, 67
4, 491520, Note_on_c, 0, 59, 0
4, 491520, Note_on_c, 0, 62, 68
4, 491640, Note_on_c, 0, 62, 0
4, 491640, Note_on_c, 0, 67, 69
4, 491760, Note_on_c, 0, 67, 0
4, 491880, Note_on_c, 0, 59, 72
4, 492000, Note_on_c, 0, 59, 0
4, 492000, Note_on_c, 0, 62, 73
4, 492120, Note_on_c, 0, 62, 0
4, 492120, Note_on_c, 0, 67, 74
4, 492240, Note_on_c, 0, 67, 0
4, 492360, Note_on_c, 0, 59, 76
4, 492480, Note_on_c, 0, 59, 0
4, 492480, Note_on_c, 0, 62, 77
4, 492600, Note_on_c, 0, 62, 0
4, 492600, Note_on_c, 0, 67, 78
4, 492720, Note_on_c, 0, 67, 0
4, 492840, Note_on_c, 0, 59, 81
4, 492960, Note_on_c, 0, 59, 0
4, 492960, Note_on_c, 0, 62, 82
4, 493080, Note_on_c, 0, 62, 0
4, 493080, Note_on_c, 0, 67, 83
4, 493200, Note_on_c, 0, 67, 0
4, 493320, Note_on_c, 0, 59, 85
4, 493440, Note_on_c, 0, 59, 0
4, 493440, Note_on_c, 0, 62, 86
4, 493560, Note_on_c, 0, 62, 0
4, 493560, Note_on_c, 0, 67, 87
4, 493680, Note_on_c, 0, 67, 0
4, 493800, Note_on_c, 0, 59, 90
4, 493920, Note_on_c, 0, 59, 0
4, 493920, Note_on_c, 0, 62, 91
4, 494040, Note_on_c, 0, 62, 0
4, 494040, Note_on_c, 0, 67, 92
4, 494160, Note_on_c, 0, 67, 0
4, 494280, Note_on_c, 0, 59, 90
4, 494400, Note_on_c, 0, 59, 0
4, 494400, Note_on_c, 0, 62, 87
4, 494520, Note_on_c, 0, 62, 0
4, 494520, Note_on_c, 0, 67, 83
4, 494640, Note_on_c, 0, 67, 0
4, 494760, Note_on_c, 0, 54, 76
4, 494880, Note_on_c, 0, 54, 0
4, 494880, Note_on_c, 0, 57, 73
4, 495000, Note_on_c, 0, 57, 0
4, 495000, Note_on_c, 0, 62, 69
4, 495120, Note_on_c, 0, 62, 0
4, 495120, End_track
5, 0, Start_track
5, 0, Title_t, "Piano"
5, 0, Control_c, 0, 0, 0
5, 0, Control_c, 0, 7, 115
5, 0, Control_c, 0, 10, 44
5, 0, Control_c, 0, 91, 91
5, 0, Control_c, 0, 93, 28
5, 0, Control_c, 0, 64, 0
5, 0, Control_c, 0, 1, 0
5, 0, Pitch_bend_c, 0, 8192
5, 1, Control_c, 0, 32, 0
5, 1, Program_c, 0, 0
5, 1440, Note_on_c, 0, 55, 74
5, 1920, Note_on_c, 0, 55, 0
5, 1920, Note_on_c, 0, 55, 77
5, 2400, Note_on_c, 0, 55, 0
5, 2400, Note_on_c, 0, 55, 80
5, 2880, Note_on_c, 0, 55, 0
5, 2880, Note_on_c, 0, 55, 87
5, 3360, Note_on_c, 0, 55, 0
5, 3360, Note_on_c, 0, 55, 79
5, 3840, Note_on_c, 0, 55, 0
5, 3840, Note_on_c, 0, 55, 78
5, 4320, Note_on_c, 0, 55, 0
5, 4320, Note_on_c, 0, 55, 77
5, 4800, Note_on_c, 0, 55, 0
5, 4800, Note_on_c, 0, 55, 76
5, 5280, Note_on_c, 0, 55, 0
5, 5280, Note_on_c, 0, 55, 76
5, 5760, Note_on_c, 0, 55, 0
5, 5760, Note_on_c, 0, 55, 75
5, 6240, Note_on_c, 0, 55, 0
5, 6240, Note_on_c, 0, 55, 74
5, 6720, Note_on_c, 0, 55, 0
5, 6720, Note_on_c, 0, 55, 73
5, 7200, Note_on_c, 0, 55, 0
5, 7200, Note_on_c, 0, 55, 73
5, 7680, Note_on_c, 0, 55, 0
5, 7680, Note_on_c, 0, 55, 72
5, 8160, Note_on_c, 0, 55, 0
5, 8160, Note_on_c, 0, 55, 71
5, 8640, Note_on_c, 0, 55, 0
5, 8640, Note_on_c, 0, 55, 70
5, 9120, Note_on_c, 0, 55, 0
5, 9120, Note_on_c, 0, 55, 69
5, 9600, Note_on_c, 0, 55, 0
5, 9600, Note_on_c, 0, 55, 69
5, 10080, Note_on_c, 0, 55, 0
5, 10080, Note_on_c, 0, 55, 68
5, 10560, Note_on_c, 0, 55, 0
5, 10560, Note_on_c, 0, 55, 67
5, 11040, Note_on_c, 0, 55, 0
5, 11040, Note_on_c, 0, 55, 66
5, 11520, Note_on_c, 0, 55, 0
5, 11520, Note_on_c, 0, 59, 78
5, 11520, Note_on_c, 0, 55, 78
5, 12960, Note_on_c, 0, 55, 0
5, 12960, Note_on_c, 0, 59, 0
5, 12960, Note_on_c, 0, 54, 82
5, 12960, Note_on_c, 0, 42, 82
5, 14400, Note_on_c, 0, 42, 0
5, 14400, Note_on_c, 0, 54, 0
5, 14400, Note_on_c, 0, 43, 87
5, 14400, Note_on_c, 0, 55, 87
5, 15360, Note_on_c, 0, 55, 0
5, 15360, Note_on_c, 0, 43, 0
5, 15360, Note_on_c, 0, 45, 91
5, 15360, Note_on_c, 0, 57, 91
5, 15552, Note_on_c, 0, 57, 0
5, 15552, Note_on_c, 0, 45, 0
5, 15600, Note_on_c, 0, 59, 94
5, 15600, Note_on_c, 0, 47, 94
5, 15792, Note_on_c, 0, 47, 0
5, 15792, Note_on_c, 0, 59, 0
5, 15840, Note_on_c, 0, 48, 101
5, 15840, Note_on_c, 0, 60, 101
5, 16032, Note_on_c, 0, 60, 0
5, 16032, Note_on_c, 0, 48, 0
5, 16320, Note_on_c, 0, 48, 93
5, 16320, Note_on_c, 0, 60, 93
5, 16512, Note_on_c, 0, 60, 0
5, 16512, Note_on_c, 0, 48, 0
5, 16800, Note_on_c, 0, 61, 85
5, 16800, Note_on_c, 0, 49, 85
5, 16992, Note_on_c, 0, 49, 0
5, 16992, Note_on_c, 0, 61, 0
5, 17280, Control_c, 0, 64, 127
5, 17280, Note_on_c, 0, 50, 76
5, 17280, Note_on_c, 0, 62, 76
5, 17520, Note_on_c, 0, 50, 0
5, 17520, Note_on_c, 0, 50, 75
5, 17758, Note_on_c, 0, 62, 0
5, 17760, Note_on_c, 0, 50, 0
5, 17760, Note_on_c, 0, 54, 75
5, 18000, Note_on_c, 0, 54, 0
5, 18000, Note_on_c, 0, 57, 74
5, 18240, Note_on_c, 0, 57, 0
5, 22980, Control_c, 0, 64, 0
5, 23040, Control_c, 0, 64, 127
5, 23040, Note_on_c, 0, 47, 67
5, 23280, Note_on_c, 0, 47, 0
5, 23280, Note_on_c, 0, 50, 66
5, 23520, Note_on_c, 0, 50, 0
5, 23520, Note_on_c, 0, 54, 66
5, 23760, Note_on_c, 0, 54, 0
5, 23760, Note_on_c, 0, 59, 65
5, 24000, Note_on_c, 0, 59, 0
5, 28740, Control_c, 0, 64, 0
5, 28800, Control_c, 0, 64, 127
5, 28800, Note_on_c, 0, 44, 58
5, 29040, Note_on_c, 0, 44, 0
5, 29040, Note_on_c, 0, 47, 57
5, 29280, Note_on_c, 0, 47, 0
5, 29280, Note_on_c, 0, 50, 57
5, 29520, Note_on_c, 0, 50, 0
5, 29520, Note_on_c, 0, 52, 57
5, 29760, Note_on_c, 0, 52, 0
5, 29760, Note_on_c, 0, 56, 56
5, 30240, Note_on_c, 0, 56, 0
5, 33120, Control_c, 0, 64, 0
5, 33600, Note_on_c, 0, 56, 52
5, 33600, Note_on_c, 0, 59, 52
5, 33960, Note_on_c, 0, 59, 0
5, 33960, Note_on_c, 0, 56, 0
5, 34080, Note_on_c, 0, 62, 54
5, 34080, Note_on_c, 0, 59, 54
5, 34440, Note_on_c, 0, 59, 0
5, 34440, Note_on_c, 0, 62, 0
5, 34560, Note_on_c, 0, 61, 56
5, 34560, Note_on_c, 0, 57, 56
5, 34800, Note_on_c, 0, 61, 0
5, 34800, Note_on_c, 0, 62, 57
5, 35040, Note_on_c, 0, 62, 0
5, 35040, Note_on_c, 0, 57, 0
5, 35040, Note_on_c, 0, 64, 58
5, 35280, Note_on_c, 0, 64, 0
5, 35280, Note_on_c, 0, 66, 59
5, 35520, Note_on_c, 0, 66, 0
5, 35520, Note_on_c, 0, 68, 60
5, 35760, Note_on_c, 0, 68, 0
5, 35760, Note_on_c, 0, 69, 61
5, 36000, Note_on_c, 0, 69, 0
5, 36000, Note_on_c, 0, 68, 62
5, 36240, Note_on_c, 0, 68, 0
5, 36240, Note_on_c, 0, 66, 63
5, 36480, Note_on_c, 0, 66, 0
5, 36480, Note_on_c, 0, 64, 64
5, 36720, Note_on_c, 0, 64, 0
5, 36720, Note_on_c, 0, 62, 65
5, 36960, Note_on_c, 0, 62, 0
5, 36960, Note_on_c, 0, 61, 66
5, 37200, Note_on_c, 0, 61, 0
5, 37200, Note_on_c, 0, 59, 67
5, 37440, Note_on_c, 0, 59, 0
5, 37440, Note_on_c, 0, 57, 69
5, 37680, Note_on_c, 0, 57, 0
5, 37680, Note_on_c, 0, 55, 66
5, 37920, Note_on_c, 0, 55, 0
5, 37920, Note_on_c, 0, 54, 63
5, 38160, Note_on_c, 0, 54, 0
5, 38160, Note_on_c, 0, 52, 61
5, 38400, Note_on_c, 0, 52, 0
5, 38400, Note_on_c, 0, 50, 58
5, 38640, Note_on_c, 0, 50, 0
5, 38640, Note_on_c, 0, 49, 56
5, 38880, Note_on_c, 0, 49, 0
5, 38880, Note_on_c, 0, 50, 54
5, 39120, Note_on_c, 0, 50, 0
5, 39120, Note_on_c, 0, 52, 54
5, 39360, Note_on_c, 0, 52, 0
5, 39360, Note_on_c, 0, 54, 55
5, 39600, Note_on_c, 0, 54, 0
5, 39600, Note_on_c, 0, 56, 55
5, 39840, Note_on_c, 0, 56, 0
5, 39840, Note_on_c, 0, 57, 56
5, 40080, Note_on_c, 0, 57, 0
5, 40080, Note_on_c, 0, 59, 57
5, 40320, Note_on_c, 0, 59, 0
5, 40320, Note_on_c, 0, 57, 57
5, 40320, Note_on_c, 0, 61, 57
5, 40560, Note_on_c, 0, 61, 0
5, 40560, Note_on_c, 0, 62, 58
5, 40800, Note_on_c, 0, 62, 0
5, 40800, Note_on_c, 0, 57, 0
5, 40800, Note_on_c, 0, 64, 58
5, 41040, Note_on_c, 0, 64, 0
5, 41040, Note_on_c, 0, 66, 59
5, 41280, Note_on_c, 0, 66, 0
5, 41280, Note_on_c, 0, 68, 60
5, 41520, Note_on_c, 0, 68, 0
5, 41520, Note_on_c, 0, 69, 60
5, 41760, Note_on_c, 0, 69, 0
5, 41760, Note_on_c, 0, 68, 61
5, 42000, Note_on_c, 0, 68, 0
5, 42000, Note_on_c, 0, 66, 61
5, 42240, Note_on_c, 0, 66, 0
5, 42240, Note_on_c, 0, 64, 62
5, 42480, Note_on_c, 0, 64, 0
5, 42480, Note_on_c, 0, 62, 63
5, 42720, Note_on_c, 0, 62, 0
5, 42720, Note_on_c, 0, 61, 63
5, 42960, Note_on_c, 0, 61, 0
5, 42960, Note_on_c, 0, 59, 64
5, 43200, Note_on_c, 0, 59, 0
5, 43200, Note_on_c, 0, 57, 65
5, 43440, Note_on_c, 0, 57, 0
5, 43440, Note_on_c, 0, 55, 64
5, 43680, Note_on_c, 0, 55, 0
5, 43680, Note_on_c, 0, 54, 63
5, 43920, Note_on_c, 0, 54, 0
5, 43920, Note_on_c, 0, 52, 62
5, 44160, Note_on_c, 0, 52, 0
5, 44160, Note_on_c, 0, 50, 61
5, 44400, Note_on_c, 0, 50, 0
5, 44400, Note_on_c, 0, 49, 59
5, 44640, Note_on_c, 0, 49, 0
5, 44640, Note_on_c, 0, 50, 58
5, 44880, Note_on_c, 0, 50, 0
5, 44880, Note_on_c, 0, 52, 57
5, 45120, Note_on_c, 0, 52, 0
5, 45120, Note_on_c, 0, 54, 56
5, 45360, Note_on_c, 0, 54, 0
5, 45360, Note_on_c, 0, 56, 55
5, 45600, Note_on_c, 0, 56, 0
5, 45600, Note_on_c, 0, 57, 53
5, 45840, Note_on_c, 0, 57, 0
5, 45840, Note_on_c, 0, 59, 52
5, 46080, Note_on_c, 0, 59, 0
5, 46080, Note_on_c, 0, 64, 54
5, 46080, Note_on_c, 0, 61, 54
5, 46080, Note_on_c, 0, 57, 54
5, 47520, Note_on_c, 0, 61, 0
5, 47520, Note_on_c, 0, 64, 0
5, 47520, Note_on_c, 0, 62, 57
5, 47520, Note_on_c, 0, 59, 57
5, 48960, Note_on_c, 0, 59, 0
5, 48960, Note_on_c, 0, 62, 0
5, 48960, Note_on_c, 0, 57, 0
5, 48960, Note_on_c, 0, 62, 61
5, 48960, Note_on_c, 0, 68, 61
5, 48960, Note_on_c, 0, 57, 61
5, 50400, Note_on_c, 0, 68, 0
5, 50400, Note_on_c, 0, 62, 0
5, 50400, Note_on_c, 0, 61, 64
5, 50400, Note_on_c, 0, 64, 64
5, 51840, Note_on_c, 0, 64, 0
5, 51840, Note_on_c, 0, 61, 0
5, 51840, Note_on_c, 0, 57, 0
5, 51840, Note_on_c, 0, 61, 68
5, 51840, Note_on_c, 0, 67, 68
5, 51840, Note_on_c, 0, 64, 68
5, 51840, Note_on_c, 0, 57, 68
5, 53280, Note_on_c, 0, 57, 0
5, 53280, Note_on_c, 0, 61, 0
5, 53280, Note_on_c, 0, 67, 0
5, 53280, Note_on_c, 0, 64, 0
5, 53280, Note_on_c, 0, 61, 71
5, 53280, Note_on_c, 0, 67, 71
5, 53280, Note_on_c, 0, 64, 71
5, 53280, Note_on_c, 0, 58, 71
5, 54720, Note_on_c, 0, 58, 0
5, 54720, Note_on_c, 0, 61, 0
5, 54720, Note_on_c, 0, 67, 0
5, 54720, Note_on_c, 0, 64, 0
5, 54720, Note_on_c, 0, 67, 75
5, 54720, Note_on_c, 0, 64, 75
5, 54720, Note_on_c, 0, 61, 75
5, 54720, Note_on_c, 0, 57, 75
5, 55680, Note_on_c, 0, 57, 0
5, 55680, Note_on_c, 0, 67, 0
5, 55680, Note_on_c, 0, 64, 0
5, 55680, Note_on_c, 0, 61, 0
5, 55680, Note_on_c, 0, 61, 69
5, 55680, Note_on_c, 0, 64, 69
5, 55680, Note_on_c, 0, 55, 69
5, 56160, Note_on_c, 0, 55, 0
5, 56160, Note_on_c, 0, 64, 0
5, 56160, Note_on_c, 0, 61, 0
5, 56160, Note_on_c, 0, 62, 68
5, 56160, Note_on_c, 0, 57, 68
5, 56160, Note_on_c, 0, 54, 68
5, 57120, Note_on_c, 0, 54, 0
5, 57120, Note_on_c, 0, 57, 0
5, 57120, Note_on_c, 0, 62, 0
5, 57120, Note_on_c, 0, 62, 65
5, 57120, Note_on_c, 0, 57, 65
5, 57120, Note_on_c, 0, 50, 65
5, 57600, Note_on_c, 0, 50, 0
5, 57600, Note_on_c, 0, 57, 0
5, 57600, Note_on_c, 0, 62, 0
5, 57600, Note_on_c, 0, 61, 67
5, 57600, Note_on_c, 0, 67, 67
5, 57600, Note_on_c, 0, 64, 67
5, 57600, Note_on_c, 0, 57, 67
5, 59040, Note_on_c, 0, 57, 0
5, 59040, Note_on_c, 0, 61, 0
5, 59040, Note_on_c, 0, 67, 0
5, 59040, Note_on_c, 0, 64, 0
5, 59040, Note_on_c, 0, 67, 72
5, 59040, Note_on_c, 0, 64, 72
5, 59040, Note_on_c, 0, 61, 72
5, 59040, Note_on_c, 0, 58, 72
5, 60480, Note_on_c, 0, 58, 0
5, 60480, Note_on_c, 0, 67, 0
5, 60480, Note_on_c, 0, 64, 0
5, 60480, Note_on_c, 0, 61, 0
5, 60480, Note_on_c, 0, 61, 78
5, 60480, Note_on_c, 0, 67, 78
5, 60480, Note_on_c, 0, 64, 78
5, 60480, Note_on_c, 0, 57, 78
5, 61440, Note_on_c, 0, 57, 0
5, 61440, Note_on_c, 0, 61, 0
5, 61440, Note_on_c, 0, 67, 0
5, 61440, Note_on_c, 0, 64, 0
5, 61440, Note_on_c, 0, 64, 76
5, 61440, Note_on_c, 0, 61, 76
5, 61440, Note_on_c, 0, 55, 76
5, 61920, Note_on_c, 0, 55, 0
5, 61920, Note_on_c, 0, 61, 0
5, 61920, Note_on_c, 0, 64, 0
5, 61920, Note_on_c, 0, 57, 75
5, 61920, Note_on_c, 0, 62, 75
5, 61920, Note_on_c, 0, 54, 75
5, 62880, Note_on_c, 0, 54, 0
5, 62880, Note_on_c, 0, 62, 0
5, 62880, Note_on_c, 0, 57, 0
5, 62880, Note_on_c, 0, 62, 71
5, 62880, Note_on_c, 0, 57, 71
5, 62880, Note_on_c, 0, 50, 71
5, 63360, Note_on_c, 0, 50, 0
5, 63360, Note_on_c, 0, 57, 0
5, 63360, Note_on_c, 0, 62, 0
5, 63360, Note_on_c, 0, 55, 70
5, 63360, Note_on_c, 0, 62, 70
5, 63360, Note_on_c, 0, 59, 70
5, 63840, Note_on_c, 0, 59, 0
5, 63840, Note_on_c, 0, 62, 0
5, 63840, Note_on_c, 0, 55, 0
5, 64320, Note_on_c, 0, 64, 67
5, 64320, Note_on_c, 0, 55, 67
5, 64320, Note_on_c, 0, 59, 67
5, 64800, Note_on_c, 0, 59, 0
5, 64800, Note_on_c, 0, 55, 0
5, 64800, Note_on_c, 0, 64, 0
5, 64800, Note_on_c, 0, 62, 65
5, 64800, Note_on_c, 0, 66, 65
5, 64800, Note_on_c, 0, 57, 65
5, 65280, Note_on_c, 0, 57, 0
5, 65280, Note_on_c, 0, 66, 0
5, 65280, Note_on_c, 0, 62, 0
5, 65760, Note_on_c, 0, 67, 62
5, 65760, Note_on_c, 0, 61, 62
5, 65760, Note_on_c, 0, 57, 62
5, 66240, Note_on_c, 0, 57, 0
5, 66240, Note_on_c, 0, 61, 0
5, 66240, Note_on_c, 0, 67, 0
5, 66240, Note_on_c, 0, 50, 87
5, 66680, Note_on_c, 0, 50, 0
5, 66720, Note_on_c, 0, 50, 86
5, 67160, Note_on_c, 0, 50, 0
5, 67200, Note_on_c, 0, 50, 84
5, 67640, Note_on_c, 0, 50, 0
5, 67680, Note_on_c, 0, 50, 83
5, 68120, Note_on_c, 0, 50, 0
5, 68160, Note_on_c, 0, 50, 81
5, 68600, Note_on_c, 0, 50, 0
5, 68640, Note_on_c, 0, 50, 80
5, 69080, Note_on_c, 0, 50, 0
5, 69600, Note_on_c, 0, 50, 63
5, 69792, Note_on_c, 0, 50, 0
5, 70080, Note_on_c, 0, 47, 61
5, 70272, Note_on_c, 0, 47, 0
5, 71040, Note_on_c, 0, 48, 58
5, 71232, Note_on_c, 0, 48, 0
5, 71520, Note_on_c, 0, 45, 56
5, 71712, Note_on_c, 0, 45, 0
5, 72480, Note_on_c, 0, 47, 93
5, 72480, Note_on_c, 0, 59, 93
5, 72672, Note_on_c, 0, 59, 0
5, 72672, Note_on_c, 0, 47, 0
5, 72960, Note_on_c, 0, 44, 91
5, 72960, Note_on_c, 0, 56, 91
5, 73152, Note_on_c, 0, 56, 0
5, 73152, Note_on_c, 0, 44, 0
5, 73920, Note_on_c, 0, 45, 87
5, 73920, Note_on_c, 0, 57, 87
5, 74112, Note_on_c, 0, 57, 0
5, 74112, Note_on_c, 0, 45, 0
5, 74400, Note_on_c, 0, 42, 85
5, 74400, Note_on_c, 0, 54, 85
5, 74592, Note_on_c, 0, 54, 0
5, 74592, Note_on_c, 0, 42, 0
5, 74880, Note_on_c, 0, 52, 80
5, 75360, Note_on_c, 0, 52, 0
5, 75360, Note_on_c, 0, 52, 83
5, 75840, Note_on_c, 0, 52, 0
5, 75840, Note_on_c, 0, 52, 87
5, 76320, Note_on_c, 0, 52, 0
5, 76320, Note_on_c, 0, 52, 95
5, 76800, Note_on_c, 0, 52, 0
5, 76800, Note_on_c, 0, 52, 83
5, 77280, Note_on_c, 0, 52, 0
5, 77280, Note_on_c, 0, 52, 82
5, 77760, Note_on_c, 0, 52, 0
5, 77760, Note_on_c, 0, 52, 81
5, 78240, Note_on_c, 0, 52, 0
5, 78240, Note_on_c, 0, 52, 80
5, 78720, Note_on_c, 0, 52, 0
5, 78720, Note_on_c, 0, 52, 79
5, 79200, Note_on_c, 0, 52, 0
5, 79200, Note_on_c, 0, 52, 78
5, 79680, Note_on_c, 0, 52, 0
5, 79680, Note_on_c, 0, 52, 77
5, 80160, Note_on_c, 0, 52, 0
5, 80160, Note_on_c, 0, 52, 77
5, 80640, Note_on_c, 0, 52, 0
5, 80640, Note_on_c, 0, 52, 76
5, 81120, Note_on_c, 0, 52, 0
5, 81120, Note_on_c, 0, 52, 75
5, 81600, Note_on_c, 0, 52, 0
5, 81600, Note_on_c, 0, 52, 74
5, 82080, Note_on_c, 0, 52, 0
5, 82080, Note_on_c, 0, 52, 73
5, 82560, Note_on_c, 0, 52, 0
5, 82560, Note_on_c, 0, 52, 72
5, 83040, Note_on_c, 0, 52, 0
5, 83040, Note_on_c, 0, 52, 71
5, 83520, Note_on_c, 0, 52, 0
5, 83520, Note_on_c, 0, 52, 70
5, 84000, Note_on_c, 0, 52, 0
5, 84000, Note_on_c, 0, 52, 70
5, 84480, Note_on_c, 0, 52, 0
5, 84480, Note_on_c, 0, 52, 69
5, 84960, Note_on_c, 0, 52, 0
5, 84960, Note_on_c, 0, 52, 79
5, 86400, Note_on_c, 0, 52, 0
5, 86400, Note_on_c, 0, 52, 77
5, 87840, Note_on_c, 0, 52, 0
5, 87840, Note_on_c, 0, 52, 75
5, 89280, Note_on_c, 0, 52, 0
5, 89280, Note_on_c, 0, 47, 73
5, 90720, Note_on_c, 0, 47, 0
5, 90720, Note_on_c, 0, 47, 71
5, 92160, Note_on_c, 0, 47, 0
5, 92160, Note_on_c, 0, 47, 69
5, 93600, Note_on_c, 0, 47, 0
5, 93600, Note_on_c, 0, 47, 67
5, 95040, Note_on_c, 0, 47, 0
5, 95040, Note_on_c, 0, 52, 61
5, 96480, Note_on_c, 0, 52, 0
5, 96480, Note_on_c, 0, 48, 61
5, 97920, Note_on_c, 0, 48, 0
5, 97920, Note_on_c, 0, 48, 60
5, 99360, Note_on_c, 0, 48, 0
5, 99360, Note_on_c, 0, 48, 59
5, 100800, Note_on_c, 0, 48, 0
5, 100800, Note_on_c, 0, 43, 59
5, 102240, Note_on_c, 0, 43, 0
5, 102240, Note_on_c, 0, 43, 58
5, 103680, Note_on_c, 0, 43, 0
5, 103680, Note_on_c, 0, 43, 57
5, 105120, Note_on_c, 0, 43, 0
5, 105120, Note_on_c, 0, 43, 56
5, 106560, Note_on_c, 0, 43, 0
5, 106560, Note_on_c, 0, 48, 56
5, 108000, Note_on_c, 0, 48, 0
5, 108000, Note_on_c, 0, 48, 78
5, 108000, Note_on_c, 0, 36, 78
5, 109440, Note_on_c, 0, 36, 0
5, 109440, Note_on_c, 0, 48, 0
5, 109440, Note_on_c, 0, 35, 83
5, 109440, Note_on_c, 0, 47, 83
5, 110880, Note_on_c, 0, 47, 0
5, 110880, Note_on_c, 0, 35, 0
5, 110880, Note_on_c, 0, 48, 87
5, 110880, Note_on_c, 0, 36, 87
5, 111840, Note_on_c, 0, 36, 0
5, 111840, Note_on_c, 0, 48, 0
5, 111840, Note_on_c, 0, 45, 91
5, 112080, Note_on_c, 0, 45, 0
5, 112080, Note_on_c, 0, 40, 94
5, 112320, Note_on_c, 0, 40, 0
5, 112320, Note_on_c, 0, 41, 100
5, 112512, Note_on_c, 0, 41, 0
5, 112800, Note_on_c, 0, 41, 93
5, 112992, Note_on_c, 0, 41, 0
5, 113280, Note_on_c, 0, 42, 87
5, 113472, Note_on_c, 0, 42, 0
5, 113760, Note_on_c, 0, 43, 82
5, 114240, Note_on_c, 0, 43, 0
5, 114720, Note_on_c, 0, 65, 57
5, 114960, Note_on_c, 0, 65, 0
5, 114960, Note_on_c, 0, 67, 60
5, 115200, Note_on_c, 0, 67, 0
5, 115200, Note_on_c, 0, 69, 64
5, 115440, Note_on_c, 0, 69, 0
5, 115440, Note_on_c, 0, 67, 62
5, 115680, Note_on_c, 0, 67, 0
5, 115680, Note_on_c, 0, 65, 60
5, 115920, Note_on_c, 0, 65, 0
5, 115920, Note_on_c, 0, 64, 58
5, 116160, Note_on_c, 0, 64, 0
5, 116160, Note_on_c, 0, 62, 56
5, 116400, Note_on_c, 0, 62, 0
5, 116400, Note_on_c, 0, 60, 54
5, 116640, Note_on_c, 0, 60, 0
5, 116640, Note_on_c, 0, 59, 52
5, 117120, Note_on_c, 0, 59, 0
5, 117600, Note_on_c, 0, 53, 57
5, 117840, Note_on_c, 0, 53, 0
5, 117840, Note_on_c, 0, 55, 61
5, 118080, Note_on_c, 0, 55, 0
5, 118080, Note_on_c, 0, 56, 66
5, 118320, Note_on_c, 0, 56, 0
5, 118320, Note_on_c, 0, 55, 70
5, 118560, Note_on_c, 0, 55, 0
5, 118560, Note_on_c, 0, 53, 74
5, 118800, Note_on_c, 0, 53, 0
5, 118800, Note_on_c, 0, 51, 78
5, 119040, Note_on_c, 0, 51, 0
5, 119040, Note_on_c, 0, 50, 82
5, 119280, Note_on_c, 0, 50, 0
5, 119280, Note_on_c, 0, 55, 87
5, 119520, Note_on_c, 0, 55, 0
5, 119520, Note_on_c, 0, 48, 91
5, 120960, Note_on_c, 0, 48, 0
5, 120960, Note_on_c, 0, 48, 90
5, 122400, Note_on_c, 0, 48, 0
5, 122400, Note_on_c, 0, 48, 89
5, 123840, Note_on_c, 0, 48, 0
5, 123840, Note_on_c, 0, 43, 88
5, 125280, Note_on_c, 0, 43, 0
5, 125280, Note_on_c, 0, 43, 86
5, 126720, Note_on_c, 0, 43, 0
5, 126720, Note_on_c, 0, 43, 85
5, 128160, Note_on_c, 0, 43, 0
5, 128160, Note_on_c, 0, 43, 84
5, 129600, Note_on_c, 0, 43, 0
5, 129600, Note_on_c, 0, 48, 67
5, 131040, Note_on_c, 0, 48, 0
5, 131040, Note_on_c, 0, 51, 67
5, 132480, Note_on_c, 0, 51, 0
5, 132480, Note_on_c, 0, 51, 66
5, 133920, Note_on_c, 0, 51, 0
5, 133920, Note_on_c, 0, 51, 65
5, 135360, Note_on_c, 0, 51, 0
5, 135360, Note_on_c, 0, 46, 64
5, 136800, Note_on_c, 0, 46, 0
5, 136800, Note_on_c, 0, 46, 63
5, 138240, Note_on_c, 0, 46, 0
5, 138240, Note_on_c, 0, 46, 62
5, 139680, Note_on_c, 0, 46, 0
5, 139680, Note_on_c, 0, 46, 61
5, 141120, Note_on_c, 0, 46, 0
5, 141120, Note_on_c, 0, 51, 60
5, 142560, Note_on_c, 0, 51, 0
5, 142560, Note_on_c, 0, 51, 80
5, 142560, Note_on_c, 0, 39, 80
5, 144000, Note_on_c, 0, 39, 0
5, 144000, Note_on_c, 0, 51, 0
5, 144000, Note_on_c, 0, 38, 85
5, 144000, Note_on_c, 0, 50, 85
5, 145440, Note_on_c, 0, 50, 0
5, 145440, Note_on_c, 0, 38, 0
5, 145440, Note_on_c, 0, 39, 89
5, 145440, Note_on_c, 0, 51, 89
5, 146400, Note_on_c, 0, 51, 0
5, 146400, Note_on_c, 0, 39, 0
5, 146400, Note_on_c, 0, 48, 93
5, 146640, Note_on_c, 0, 48, 0
5, 146640, Note_on_c, 0, 43, 98
5, 146880, Note_on_c, 0, 43, 0
5, 146880, Note_on_c, 0, 44, 104
5, 147072, Note_on_c, 0, 44, 0
5, 147360, Note_on_c, 0, 44, 98
5, 147552, Note_on_c, 0, 44, 0
5, 147840, Note_on_c, 0, 45, 92
5, 148032, Note_on_c, 0, 45, 0
5, 148320, Note_on_c, 0, 46, 85
5, 148800, Note_on_c, 0, 46, 0
5, 149280, Note_on_c, 0, 72, 58
5, 149520, Note_on_c, 0, 72, 0
5, 149520, Note_on_c, 0, 70, 60
5, 149760, Note_on_c, 0, 70, 0
5, 149760, Note_on_c, 0, 68, 63
5, 149952, Note_on_c, 0, 68, 0
5, 150240, Note_on_c, 0, 68, 61
5, 150432, Note_on_c, 0, 68, 0
5, 150720, Note_on_c, 0, 69, 58
5, 150912, Note_on_c, 0, 69, 0
5, 151200, Note_on_c, 0, 70, 55
5, 151680, Note_on_c, 0, 70, 0
5, 152160, Note_on_c, 0, 48, 77
5, 152400, Note_on_c, 0, 48, 0
5, 152400, Note_on_c, 0, 50, 79
5, 152640, Note_on_c, 0, 50, 0
5, 152640, Note_on_c, 0, 51, 85
5, 152880, Note_on_c, 0, 51, 0
5, 152880, Note_on_c, 0, 50, 83
5, 153120, Note_on_c, 0, 50, 0
5, 153120, Note_on_c, 0, 48, 82
5, 153360, Note_on_c, 0, 48, 0
5, 153360, Note_on_c, 0, 46, 80
5, 153600, Note_on_c, 0, 46, 0
5, 153600, Note_on_c, 0, 45, 79
5, 153840, Note_on_c, 0, 45, 0
5, 153840, Note_on_c, 0, 43, 77
5, 154080, Note_on_c, 0, 43, 0
5, 154080, Note_on_c, 0, 42, 75
5, 154560, Note_on_c, 0, 42, 0
5, 155040, Note_on_c, 0, 72, 58
5, 155280, Note_on_c, 0, 72, 0
5, 155280, Note_on_c, 0, 74, 60
5, 155520, Note_on_c, 0, 74, 0
5, 155520, Note_on_c, 0, 75, 61
5, 155760, Note_on_c, 0, 75, 0
5, 155760, Note_on_c, 0, 74, 63
5, 156000, Note_on_c, 0, 74, 0
5, 156000, Note_on_c, 0, 72, 64
5, 156240, Note_on_c, 0, 72, 0
5, 156240, Note_on_c, 0, 70, 66
5, 156480, Note_on_c, 0, 70, 0
5, 156480, Note_on_c, 0, 69, 68
5, 156720, Note_on_c, 0, 69, 0
5, 156720, Note_on_c, 0, 67, 69
5, 156960, Note_on_c, 0, 67, 0
5, 156960, Note_on_c, 0, 66, 71
5, 157200, Note_on_c, 0, 66, 0
5, 157200, Note_on_c, 0, 63, 73
5, 157440, Note_on_c, 0, 63, 0
5, 157440, Note_on_c, 0, 62, 74
5, 157680, Note_on_c, 0, 62, 0
5, 157680, Note_on_c, 0, 60, 76
5, 157920, Note_on_c, 0, 60, 0
5, 157920, Note_on_c, 0, 58, 78
5, 158160, Note_on_c, 0, 58, 0
5, 158160, Note_on_c, 0, 57, 79
5, 158400, Note_on_c, 0, 57, 0
5, 158400, Note_on_c, 0, 55, 87
5, 158592, Note_on_c, 0, 55, 0
5, 158880, Note_on_c, 0, 51, 86
5, 159072, Note_on_c, 0, 51, 0
5, 159360, Note_on_c, 0, 49, 85
5, 159552, Note_on_c, 0, 49, 0
5, 159840, Note_on_c, 0, 50, 87
5, 161280, Note_on_c, 0, 50, 0
5, 161280, Note_on_c, 0, 50, 84
5, 162720, Note_on_c, 0, 50, 0
5, 162720, Note_on_c, 0, 50, 81
5, 164160, Note_on_c, 0, 50, 0
5, 164160, Note_on_c, 0, 45, 78
5, 165600, Note_on_c, 0, 45, 0
5, 165600, Note_on_c, 0, 45, 75
5, 167040, Note_on_c, 0, 45, 0
5, 167040, Note_on_c, 0, 45, 72
5, 168480, Note_on_c, 0, 45, 0
5, 168480, Note_on_c, 0, 45, 69
5, 169920, Note_on_c, 0, 45, 0
5, 169920, Note_on_c, 0, 50, 66
5, 171360, Note_on_c, 0, 50, 0
5, 171360, Note_on_c, 0, 54, 63
5, 171552, Note_on_c, 0, 54, 0
5, 171840, Note_on_c, 0, 50, 65
5, 172032, Note_on_c, 0, 50, 0
5, 172320, Note_on_c, 0, 42, 68
5, 172512, Note_on_c, 0, 42, 0
5, 172800, Note_on_c, 0, 38, 70
5, 172992, Note_on_c, 0, 38, 0
5, 173280, Note_on_c, 0, 54, 73
5, 173472, Note_on_c, 0, 54, 0
5, 173760, Note_on_c, 0, 50, 75
5, 173952, Note_on_c, 0, 50, 0
5, 174240, Note_on_c, 0, 42, 78
5, 174432, Note_on_c, 0, 42, 0
5, 174720, Note_on_c, 0, 38, 80
5, 174912, Note_on_c, 0, 38, 0
5, 175200, Note_on_c, 0, 54, 83
5, 175392, Note_on_c, 0, 54, 0
5, 175680, Note_on_c, 0, 50, 85
5, 175872, Note_on_c, 0, 50, 0
5, 176160, Note_on_c, 0, 42, 87
5, 176352, Note_on_c, 0, 42, 0
5, 176640, Note_on_c, 0, 38, 90
5, 176832, Note_on_c, 0, 38, 0
5, 177120, Note_on_c, 0, 43, 100
5, 177600, Note_on_c, 0, 55, 88
5, 178080, Note_on_c, 0, 55, 0
5, 178080, Note_on_c, 0, 55, 92
5, 178560, Note_on_c, 0, 55, 0
5, 178560, Note_on_c, 0, 55, 96
5, 179040, Note_on_c, 0, 55, 0
5, 179040, Note_on_c, 0, 55, 91
5, 179520, Note_on_c, 0, 55, 0
5, 179520, Note_on_c, 0, 55, 90
5, 180000, Note_on_c, 0, 55, 0
5, 180000, Note_on_c, 0, 55, 89
5, 180480, Note_on_c, 0, 55, 0
5, 180480, Note_on_c, 0, 55, 88
5, 180960, Note_on_c, 0, 55, 0
5, 180960, Note_on_c, 0, 55, 88
5, 181408, Note_on_c, 0, 43, 0
5, 181440, Note_on_c, 0, 55, 0
5, 181440, Note_on_c, 0, 55, 87
5, 181920, Note_on_c, 0, 55, 0
5, 181920, Note_on_c, 0, 55, 86
5, 182400, Note_on_c, 0, 55, 0
5, 182400, Note_on_c, 0, 55, 85
5, 182880, Note_on_c, 0, 55, 0
5, 182880, Note_on_c, 0, 55, 84
5, 183360, Note_on_c, 0, 55, 0
5, 183360, Note_on_c, 0, 55, 84
5, 183840, Note_on_c, 0, 55, 0
5, 183840, Note_on_c, 0, 55, 83
5, 184320, Note_on_c, 0, 55, 0
5, 184320, Note_on_c, 0, 55, 82
5, 184800, Note_on_c, 0, 55, 0
5, 184800, Note_on_c, 0, 55, 81
5, 185280, Note_on_c, 0, 55, 0
5, 185280, Note_on_c, 0, 55, 81
5, 185760, Note_on_c, 0, 55, 0
5, 185760, Note_on_c, 0, 55, 80
5, 186240, Note_on_c, 0, 55, 0
5, 186240, Note_on_c, 0, 55, 79
5, 186720, Note_on_c, 0, 55, 0
5, 186720, Note_on_c, 0, 55, 78
5, 187200, Note_on_c, 0, 55, 0
5, 187200, Note_on_c, 0, 55, 86
5, 187200, Note_on_c, 0, 59, 86
5, 188640, Note_on_c, 0, 59, 0
5, 188640, Note_on_c, 0, 55, 0
5, 188640, Note_on_c, 0, 57, 88
5, 188640, Note_on_c, 0, 54, 88
5, 190080, Note_on_c, 0, 54, 0
5, 190080, Note_on_c, 0, 57, 0
5, 190080, Note_on_c, 0, 55, 90
5, 190080, Note_on_c, 0, 59, 90
5, 191520, Note_on_c, 0, 59, 0
5, 191520, Note_on_c, 0, 55, 0
5, 191520, Note_on_c, 0, 60, 92
5, 191520, Note_on_c, 0, 57, 92
5, 192960, Note_on_c, 0, 57, 0
5, 192960, Note_on_c, 0, 60, 0
5, 192960, Control_c, 0, 64, 0
5, 192960, Note_on_c, 0, 47, 67
5, 193020, Control_c, 0, 64, 127
5, 193200, Note_on_c, 0, 47, 0
5, 193200, Note_on_c, 0, 50, 67
5, 193440, Note_on_c, 0, 50, 0
5, 193440, Note_on_c, 0, 55, 66
5, 193680, Note_on_c, 0, 55, 0
5, 193680, Note_on_c, 0, 59, 66
5, 193920, Note_on_c, 0, 59, 0
5, 198720, Control_c, 0, 64, 0
5, 198720, Note_on_c, 0, 48, 63
5, 198780, Control_c, 0, 64, 127
5, 198960, Note_on_c, 0, 48, 0
5, 198960, Note_on_c, 0, 52, 63
5, 199200, Note_on_c, 0, 52, 0
5, 199200, Note_on_c, 0, 55, 63
5, 199440, Note_on_c, 0, 55, 0
5, 199440, Note_on_c, 0, 60, 63
5, 199680, Note_on_c, 0, 60, 0
5, 204480, Control_c, 0, 64, 0
5, 204480, Note_on_c, 0, 45, 59
5, 204540, Control_c, 0, 64, 127
5, 204720, Note_on_c, 0, 45, 0
5, 204720, Note_on_c, 0, 49, 59
5, 204960, Note_on_c, 0, 49, 0
5, 204960, Note_on_c, 0, 52, 59
5, 205200, Note_on_c, 0, 52, 0
5, 205200, Note_on_c, 0, 55, 59
5, 205440, Note_on_c, 0, 55, 0
5, 209280, Control_c, 0, 64, 0
5, 209280, Note_on_c, 0, 61, 60
5, 209280, Note_on_c, 0, 64, 60
5, 209640, Note_on_c, 0, 64, 0
5, 209640, Note_on_c, 0, 61, 0
5, 209760, Note_on_c, 0, 64, 61
5, 209760, Note_on_c, 0, 67, 61
5, 210120, Note_on_c, 0, 67, 0
5, 210120, Note_on_c, 0, 64, 0
5, 210240, Note_on_c, 0, 66, 62
5, 210240, Note_on_c, 0, 62, 62
5, 210480, Note_on_c, 0, 66, 0
5, 210480, Note_on_c, 0, 67, 63
5, 210720, Note_on_c, 0, 67, 0
5, 210720, Note_on_c, 0, 62, 0
5, 210720, Note_on_c, 0, 69, 64
5, 210960, Note_on_c, 0, 69, 0
5, 210960, Note_on_c, 0, 71, 65
5, 211200, Note_on_c, 0, 71, 0
5, 211200, Note_on_c, 0, 73, 65
5, 211440, Note_on_c, 0, 73, 0
5, 211440, Note_on_c, 0, 74, 66
5, 211680, Note_on_c, 0, 74, 0
5, 211680, Note_on_c, 0, 73, 67
5, 211920, Note_on_c, 0, 73, 0
5, 211920, Note_on_c, 0, 71, 68
5, 212160, Note_on_c, 0, 71, 0
5, 212160, Note_on_c, 0, 69, 69
5, 212400, Note_on_c, 0, 69, 0
5, 212400, Note_on_c, 0, 67, 70
5, 212640, Note_on_c, 0, 67, 0
5, 212640, Note_on_c, 0, 66, 71
5, 212880, Note_on_c, 0, 66, 0
5, 212880, Note_on_c, 0, 64, 72
5, 213120, Note_on_c, 0, 64, 0
5, 213120, Note_on_c, 0, 62, 77
5, 213360, Note_on_c, 0, 62, 0
5, 213360, Note_on_c, 0, 60, 74
5, 213600, Note_on_c, 0, 60, 0
5, 213600, Note_on_c, 0, 59, 70
5, 213840, Note_on_c, 0, 59, 0
5, 213840, Note_on_c, 0, 57, 67
5, 214080, Note_on_c, 0, 57, 0
5, 214080, Note_on_c, 0, 55, 64
5, 214320, Note_on_c, 0, 55, 0
5, 214320, Note_on_c, 0, 54, 61
5, 214560, Note_on_c, 0, 54, 0
5, 214560, Note_on_c, 0, 55, 56
5, 214800, Note_on_c, 0, 55, 0
5, 214800, Note_on_c, 0, 57, 56
5, 215040, Note_on_c, 0, 57, 0
5, 215040, Note_on_c, 0, 59, 57
5, 215280, Note_on_c, 0, 59, 0
5, 215280, Note_on_c, 0, 61, 58
5, 215520, Note_on_c, 0, 61, 0
5, 215520, Note_on_c, 0, 62, 59
5, 215760, Note_on_c, 0, 62, 0
5, 215760, Note_on_c, 0, 64, 59
5, 216000, Note_on_c, 0, 64, 0
5, 216000, Note_on_c, 0, 66, 60
5, 216000, Note_on_c, 0, 62, 60
5, 216240, Note_on_c, 0, 66, 0
5, 216240, Note_on_c, 0, 67, 61
5, 216480, Note_on_c, 0, 67, 0
5, 216480, Note_on_c, 0, 62, 0
5, 216480, Note_on_c, 0, 69, 62
5, 216720, Note_on_c, 0, 69, 0
5, 216720, Note_on_c, 0, 71, 62
5, 216960, Note_on_c, 0, 71, 0
5, 216960, Note_on_c, 0, 73, 63
5, 217200, Note_on_c, 0, 73, 0
5, 217200, Note_on_c, 0, 74, 64
5, 217440, Note_on_c, 0, 74, 0
5, 217440, Note_on_c, 0, 73, 65
5, 217680, Note_on_c, 0, 73, 0
5, 217680, Note_on_c, 0, 71, 65
5, 217920, Note_on_c, 0, 71, 0
5, 217920, Note_on_c, 0, 69, 66
5, 218160, Note_on_c, 0, 69, 0
5, 218160, Note_on_c, 0, 67, 67
5, 218400, Note_on_c, 0, 67, 0
5, 218400, Note_on_c, 0, 66, 67
5, 218640, Note_on_c, 0, 66, 0
5, 218640, Note_on_c, 0, 64, 68
5, 218880, Note_on_c, 0, 64, 0
5, 218880, Note_on_c, 0, 62, 69
5, 219120, Note_on_c, 0, 62, 0
5, 219120, Note_on_c, 0, 60, 68
5, 219360, Note_on_c, 0, 60, 0
5, 219360, Note_on_c, 0, 59, 67
5, 219600, Note_on_c, 0, 59, 0
5, 219600, Note_on_c, 0, 57, 66
5, 219840, Note_on_c, 0, 57, 0
5, 219840, Note_on_c, 0, 55, 65
5, 220080, Note_on_c, 0, 55, 0
5, 220080, Note_on_c, 0, 54, 64
5, 220320, Note_on_c, 0, 54, 0
5, 220320, Note_on_c, 0, 55, 63
5, 220560, Note_on_c, 0, 55, 0
5, 220560, Note_on_c, 0, 57, 62
5, 220800, Note_on_c, 0, 57, 0
5, 220800, Note_on_c, 0, 59, 61
5, 221040, Note_on_c, 0, 59, 0
5, 221040, Note_on_c, 0, 61, 60
5, 221280, Note_on_c, 0, 61, 0
5, 221280, Note_on_c, 0, 62, 59
5, 221520, Note_on_c, 0, 62, 0
5, 221520, Note_on_c, 0, 64, 58
5, 221760, Note_on_c, 0, 64, 0
5, 221760, Note_on_c, 0, 62, 54
5, 221760, Note_on_c, 0, 69, 54
5, 221760, Note_on_c, 0, 66, 54
5, 223200, Note_on_c, 0, 66, 0
5, 223200, Note_on_c, 0, 69, 0
5, 223200, Note_on_c, 0, 64, 57
5, 223200, Note_on_c, 0, 67, 57
5, 224640, Note_on_c, 0, 67, 0
5, 224640, Note_on_c, 0, 64, 0
5, 224640, Note_on_c, 0, 62, 0
5, 224640, Note_on_c, 0, 62, 60
5, 224640, Note_on_c, 0, 67, 60
5, 224640, Note_on_c, 0, 73, 60
5, 226080, Note_on_c, 0, 73, 0
5, 226080, Note_on_c, 0, 67, 0
5, 226080, Note_on_c, 0, 66, 63
5, 226080, Note_on_c, 0, 69, 63
5, 227520, Note_on_c, 0, 69, 0
5, 227520, Note_on_c, 0, 66, 0
5, 227520, Note_on_c, 0, 62, 0
5, 227520, Note_on_c, 0, 69, 70
5, 227520, Note_on_c, 0, 72, 70
5, 227520, Note_on_c, 0, 66, 70
5, 227520, Note_on_c, 0, 62, 70
5, 228960, Note_on_c, 0, 62, 0
5, 228960, Note_on_c, 0, 69, 0
5, 228960, Note_on_c, 0, 72, 0
5, 228960, Note_on_c, 0, 66, 0
5, 228960, Note_on_c, 0, 69, 76
5, 228960, Note_on_c, 0, 66, 76
5, 228960, Note_on_c, 0, 72, 76
5, 228960, Note_on_c, 0, 63, 76
5, 230400, Note_on_c, 0, 63, 0
5, 230400, Note_on_c, 0, 69, 0
5, 230400, Note_on_c, 0, 66, 0
5, 230400, Note_on_c, 0, 72, 0
5, 230400, Note_on_c, 0, 69, 75
5, 230400, Note_on_c, 0, 72, 75
5, 230400, Note_on_c, 0, 66, 75
5, 230400, Note_on_c, 0, 62, 75
5, 231360, Note_on_c, 0, 62, 0
5, 231360, Note_on_c, 0, 69, 0
5, 231360, Note_on_c, 0, 72, 0
5, 231360, Note_on_c, 0, 66, 0
5, 231360, Note_on_c, 0, 60, 71
5, 231360, Note_on_c, 0, 69, 71
5, 231360, Note_on_c, 0, 66, 71
5, 231840, Note_on_c, 0, 66, 0
5, 231840, Note_on_c, 0, 69, 0
5, 231840, Note_on_c, 0, 60, 0
5, 231840, Note_on_c, 0, 59, 69
5, 231840, Note_on_c, 0, 67, 69
5, 231840, Note_on_c, 0, 62, 69
5, 232800, Note_on_c, 0, 62, 0
5, 232800, Note_on_c, 0, 67, 0
5, 232800, Note_on_c, 0, 59, 0
5, 232800, Note_on_c, 0, 55, 65
5, 232800, Note_on_c, 0, 67, 65
5, 232800, Note_on_c, 0, 62, 65
5, 233280, Note_on_c, 0, 62, 0
5, 233280, Note_on_c, 0, 67, 0
5, 233280, Note_on_c, 0, 55, 0
5, 233280, Note_on_c, 0, 69, 68
5, 233280, Note_on_c, 0, 62, 68
5, 233280, Note_on_c, 0, 72, 68
5, 233280, Note_on_c, 0, 66, 68
5, 234720, Note_on_c, 0, 66, 0
5, 234720, Note_on_c, 0, 69, 0
5, 234720, Note_on_c, 0, 62, 0
5, 234720, Note_on_c, 0, 72, 0
5, 234720, Note_on_c, 0, 72, 74
5, 234720, Note_on_c, 0, 69, 74
5, 234720, Note_on_c, 0, 66, 74
5, 234720, Note_on_c, 0, 63, 74
5, 236160, Note_on_c, 0, 63, 0
5, 236160, Note_on_c, 0, 72, 0
5, 236160, Note_on_c, 0, 69, 0
5, 236160, Note_on_c, 0, 66, 0
5, 236160, Note_on_c, 0, 66, 71
5, 236160, Note_on_c, 0, 69, 71
5, 236160, Note_on_c, 0, 72, 71
5, 236160, Note_on_c, 0, 62, 71
5, 237120, Note_on_c, 0, 62, 0
5, 237120, Note_on_c, 0, 66, 0
5, 237120, Note_on_c, 0, 69, 0
5, 237120, Note_on_c, 0, 72, 0
5, 237120, Note_on_c, 0, 69, 69
5, 237120, Note_on_c, 0, 66, 69
5, 237120, Note_on_c, 0, 60, 69
5, 237600, Note_on_c, 0, 60, 0
5, 237600, Note_on_c, 0, 66, 0
5, 237600, Note_on_c, 0, 69, 0
5, 237600, Note_on_c, 0, 62, 68
5, 237600, Note_on_c, 0, 67, 68
5, 237600, Note_on_c, 0, 59, 68
5, 238560, Note_on_c, 0, 59, 0
5, 238560, Note_on_c, 0, 67, 0
5, 238560, Note_on_c, 0, 62, 0
5, 238560, Note_on_c, 0, 67, 66
5, 238560, Note_on_c, 0, 55, 66
5, 238560, Note_on_c, 0, 62, 66
5, 239040, Note_on_c, 0, 62, 0
5, 239040, Note_on_c, 0, 55, 0
5, 239040, Note_on_c, 0, 67, 0
5, 239040, Note_on_c, 0, 60, 65
5, 239040, Note_on_c, 0, 67, 65
5, 239040, Note_on_c, 0, 64, 65
5, 239520, Note_on_c, 0, 64, 0
5, 239520, Note_on_c, 0, 67, 0
5, 239520, Note_on_c, 0, 60, 0
5, 240000, Note_on_c, 0, 60, 63
5, 240000, Note_on_c, 0, 69, 63
5, 240000, Note_on_c, 0, 64, 63
5, 240480, Note_on_c, 0, 64, 0
5, 240480, Note_on_c, 0, 69, 0
5, 240480, Note_on_c, 0, 60, 0
5, 240480, Note_on_c, 0, 67, 62
5, 240480, Note_on_c, 0, 71, 62
5, 240480, Note_on_c, 0, 62, 62
5, 240960, Note_on_c, 0, 62, 0
5, 240960, Note_on_c, 0, 71, 0
5, 240960, Note_on_c, 0, 67, 0
5, 241440, Note_on_c, 0, 72, 60
5, 241440, Note_on_c, 0, 62, 60
5, 241440, Note_on_c, 0, 66, 60
5, 241920, Note_on_c, 0, 66, 0
5, 241920, Note_on_c, 0, 62, 0
5, 241920, Note_on_c, 0, 72, 0
5, 241920, Note_on_c, 0, 55, 87
5, 242400, Note_on_c, 0, 55, 0
5, 242400, Note_on_c, 0, 55, 86
5, 242880, Note_on_c, 0, 55, 0
5, 242880, Note_on_c, 0, 55, 84
5, 243360, Note_on_c, 0, 55, 0
5, 243360, Note_on_c, 0, 55, 82
5, 243840, Note_on_c, 0, 55, 0
5, 243840, Note_on_c, 0, 55, 80
5, 244320, Note_on_c, 0, 55, 0
5, 244320, Note_on_c, 0, 55, 79
5, 244800, Note_on_c, 0, 55, 0
5, 244800, Note_on_c, 0, 47, 57
5, 245280, Note_on_c, 0, 47, 0
5, 245280, Note_on_c, 0, 47, 56
5, 245760, Note_on_c, 0, 47, 0
5, 245760, Note_on_c, 0, 47, 55
5, 246240, Note_on_c, 0, 47, 0
5, 246240, Note_on_c, 0, 45, 53
5, 246720, Note_on_c, 0, 45, 0
5, 246720, Note_on_c, 0, 45, 52
5, 247200, Note_on_c, 0, 45, 0
5, 247200, Note_on_c, 0, 38, 51
5, 247680, Note_on_c, 0, 38, 0
5, 247680, Note_on_c, 0, 55, 81
5, 248160, Note_on_c, 0, 55, 0
5, 248160, Note_on_c, 0, 55, 79
5, 248640, Note_on_c, 0, 55, 0
5, 248640, Note_on_c, 0, 55, 78
5, 249120, Note_on_c, 0, 55, 0
5, 249120, Note_on_c, 0, 55, 76
5, 249600, Note_on_c, 0, 55, 0
5, 249600, Note_on_c, 0, 55, 74
5, 250080, Note_on_c, 0, 55, 0
5, 250080, Note_on_c, 0, 55, 73
5, 250560, Note_on_c, 0, 55, 0
5, 250560, Note_on_c, 0, 47, 53
5, 251040, Note_on_c, 0, 47, 0
5, 251040, Note_on_c, 0, 47, 52
5, 251520, Note_on_c, 0, 47, 0
5, 251520, Note_on_c, 0, 47, 51
5, 252000, Note_on_c, 0, 47, 0
5, 252000, Note_on_c, 0, 45, 49
5, 252480, Note_on_c, 0, 45, 0
5, 252480, Note_on_c, 0, 45, 48
5, 252960, Note_on_c, 0, 45, 0
5, 252960, Note_on_c, 0, 38, 47
5, 253440, Note_on_c, 0, 38, 0
5, 253440, Note_on_c, 0, 43, 78
5, 253680, Note_on_c, 0, 43, 0
5, 253920, Note_on_c, 0, 47, 81
5, 254112, Note_on_c, 0, 47, 0
5, 254400, Note_on_c, 0, 43, 84
5, 254592, Note_on_c, 0, 43, 0
5, 254880, Note_on_c, 0, 50, 88
5, 255840, Note_on_c, 0, 50, 0
5, 255840, Note_on_c, 0, 48, 83
5, 256080, Note_on_c, 0, 48, 0
5, 256080, Note_on_c, 0, 47, 82
5, 256320, Note_on_c, 0, 47, 0
5, 256320, Note_on_c, 0, 45, 82
5, 256560, Note_on_c, 0, 45, 0
5, 256560, Note_on_c, 0, 43, 81
5, 256800, Note_on_c, 0, 43, 0
5, 256800, Note_on_c, 0, 42, 80
5, 257040, Note_on_c, 0, 42, 0
5, 257040, Note_on_c, 0, 43, 80
5, 257280, Note_on_c, 0, 43, 0
5, 257280, Note_on_c, 0, 47, 79
5, 257520, Note_on_c, 0, 47, 0
5, 257520, Note_on_c, 0, 43, 79
5, 257760, Note_on_c, 0, 43, 0
5, 257760, Note_on_c, 0, 42, 78
5, 258240, Note_on_c, 0, 42, 0
5, 258240, Note_on_c, 0, 40, 77
5, 258432, Note_on_c, 0, 40, 0
5, 258720, Note_on_c, 0, 40, 76
5, 258912, Note_on_c, 0, 40, 0
5, 259200, Note_on_c, 0, 48, 70
5, 259680, Note_on_c, 0, 48, 0
5, 259680, Note_on_c, 0, 48, 73
5, 260160, Note_on_c, 0, 48, 0
5, 260160, Note_on_c, 0, 48, 75
5, 260640, Note_on_c, 0, 48, 0
5, 260640, Note_on_c, 0, 48, 77
5, 261120, Note_on_c, 0, 48, 0
5, 261120, Note_on_c, 0, 48, 71
5, 261600, Note_on_c, 0, 48, 0
5, 261600, Note_on_c, 0, 48, 70
5, 262080, Note_on_c, 0, 48, 0
5, 262080, Note_on_c, 0, 50, 70
5, 262560, Note_on_c, 0, 50, 0
5, 262560, Note_on_c, 0, 50, 69
5, 263040, Note_on_c, 0, 50, 0
5, 263040, Note_on_c, 0, 50, 68
5, 263520, Note_on_c, 0, 50, 0
5, 263520, Note_on_c, 0, 55, 67
5, 264000, Note_on_c, 0, 55, 0
5, 264000, Note_on_c, 0, 55, 67
5, 264480, Note_on_c, 0, 55, 0
5, 264480, Note_on_c, 0, 55, 66
5, 264960, Note_on_c, 0, 55, 0
5, 264960, Note_on_c, 0, 54, 84
5, 265020, Note_on_c, 0, 55, 85
5, 265080, Note_on_c, 0, 54, 0
5, 265140, Note_on_c, 0, 55, 0
5, 265440, Note_on_c, 0, 58, 87
5, 265500, Note_on_c, 0, 59, 88
5, 265560, Note_on_c, 0, 58, 0
5, 265625, Note_on_c, 0, 59, 0
5, 265920, Note_on_c, 0, 54, 90
5, 265980, Note_on_c, 0, 55, 91
5, 266040, Note_on_c, 0, 54, 0
5, 266095, Note_on_c, 0, 55, 0
5, 266400, Note_on_c, 0, 61, 97
5, 266460, Note_on_c, 0, 62, 97
5, 266520, Note_on_c, 0, 61, 0
5, 267360, Note_on_c, 0, 60, 93
5, 267375, Note_on_c, 0, 62, 0
5, 267600, Note_on_c, 0, 60, 0
5, 267600, Note_on_c, 0, 59, 93
5, 267840, Note_on_c, 0, 59, 0
5, 267840, Note_on_c, 0, 57, 92
5, 268080, Note_on_c, 0, 57, 0
5, 268080, Note_on_c, 0, 55, 92
5, 268320, Note_on_c, 0, 55, 0
5, 268320, Note_on_c, 0, 54, 91
5, 268560, Note_on_c, 0, 54, 0
5, 268560, Note_on_c, 0, 55, 90
5, 268800, Note_on_c, 0, 55, 0
5, 268800, Note_on_c, 0, 59, 90
5, 269040, Note_on_c, 0, 59, 0
5, 269040, Note_on_c, 0, 55, 89
5, 269280, Note_on_c, 0, 55, 0
5, 269280, Note_on_c, 0, 54, 88
5, 269760, Note_on_c, 0, 54, 0
5, 269760, Note_on_c, 0, 52, 87
5, 269952, Note_on_c, 0, 52, 0
5, 270240, Note_on_c, 0, 52, 86
5, 270432, Note_on_c, 0, 52, 0
5, 270720, Note_on_c, 0, 48, 86
5, 271200, Note_on_c, 0, 48, 0
5, 271200, Note_on_c, 0, 48, 89
5, 271680, Note_on_c, 0, 48, 0
5, 271680, Note_on_c, 0, 48, 91
5, 272160, Note_on_c, 0, 48, 0
5, 272160, Note_on_c, 0, 48, 95
5, 272640, Note_on_c, 0, 48, 0
5, 272640, Note_on_c, 0, 48, 85
5, 273120, Note_on_c, 0, 48, 0
5, 273120, Note_on_c, 0, 48, 83
5, 273600, Note_on_c, 0, 48, 0
5, 273600, Note_on_c, 0, 50, 80
5, 274080, Note_on_c, 0, 50, 0
5, 274080, Note_on_c, 0, 50, 78
5, 274560, Note_on_c, 0, 50, 0
5, 274560, Note_on_c, 0, 50, 75
5, 275040, Note_on_c, 0, 50, 0
5, 275040, Note_on_c, 0, 43, 75
5, 276480, Note_on_c, 0, 43, 0
5, 276480, Note_on_c, 0, 43, 73
5, 277920, Note_on_c, 0, 43, 0
5, 277920, Note_on_c, 0, 43, 71
5, 279360, Note_on_c, 0, 43, 0
5, 279360, Note_on_c, 0, 50, 69
5, 280800, Note_on_c, 0, 50, 0
5, 280800, Note_on_c, 0, 43, 67
5, 282240, Note_on_c, 0, 43, 0
5, 282240, Note_on_c, 0, 43, 65
5, 283680, Note_on_c, 0, 43, 0
5, 283680, Note_on_c, 0, 43, 63
5, 285120, Note_on_c, 0, 43, 0
5, 285120, Note_on_c, 0, 50, 61
5, 286080, Note_on_c, 0, 50, 0
5, 286080, Note_on_c, 0, 50, 59
5, 286560, Note_on_c, 0, 50, 0
5, 286560, Note_on_c, 0, 31, 59
5, 286800, Note_on_c, 0, 31, 0
5, 286800, Note_on_c, 0, 35, 58
5, 287040, Note_on_c, 0, 35, 0
5, 287040, Note_on_c, 0, 38, 58
5, 287280, Note_on_c, 0, 38, 0
5, 287280, Note_on_c, 0, 43, 58
5, 287520, Note_on_c, 0, 43, 0
5, 287520, Note_on_c, 0, 47, 57
5, 287760, Note_on_c, 0, 47, 0
5, 287760, Note_on_c, 0, 50, 57
5, 288000, Note_on_c, 0, 50, 0
5, 288000, Note_on_c, 0, 43, 57
5, 288480, Note_on_c, 0, 43, 0
5, 290880, Control_c, 0, 7, 122
5, 290880, Pitch_bend_c, 0, 8192
5, 290880, Control_c, 0, 1, 0
5, 290880, Control_c, 0, 64, 0
5, 290880, Control_c, 0, 93, 28
5, 290880, Control_c, 0, 91, 91
5, 290880, Control_c, 0, 10, 55
5, 290880, Control_c, 0, 0, 0
5, 290880, Control_c, 0, 32, 0
5, 290880, Program_c, 0, 0
5, 293040, Note_on_c, 0, 43, 52
5, 293760, Note_on_c, 0, 43, 0
5, 293760, Note_on_c, 0, 43, 54
5, 294480, Note_on_c, 0, 43, 0
5, 294480, Note_on_c, 0, 43, 56
5, 295200, Note_on_c, 0, 43, 0
5, 295200, Note_on_c, 0, 43, 60
5, 295920, Note_on_c, 0, 43, 0
5, 295920, Note_on_c, 0, 43, 56
5, 296640, Note_on_c, 0, 43, 0
5, 296640, Note_on_c, 0, 38, 53
5, 297360, Note_on_c, 0, 38, 0
5, 297360, Note_on_c, 0, 43, 50
5, 298080, Note_on_c, 0, 43, 0
5, 298080, Note_on_c, 0, 43, 52
5, 298800, Note_on_c, 0, 43, 0
5, 298800, Note_on_c, 0, 43, 54
5, 299520, Note_on_c, 0, 43, 0
5, 299520, Note_on_c, 0, 41, 58
5, 300240, Note_on_c, 0, 41, 0
5, 300240, Note_on_c, 0, 41, 55
5, 300960, Note_on_c, 0, 41, 0
5, 300960, Note_on_c, 0, 46, 53
5, 301680, Note_on_c, 0, 46, 0
5, 301680, Note_on_c, 0, 46, 50
5, 302400, Note_on_c, 0, 46, 0
5, 302400, Note_on_c, 0, 41, 53
5, 303120, Note_on_c, 0, 41, 0
5, 303120, Note_on_c, 0, 36, 55
5, 303840, Note_on_c, 0, 36, 0
5, 303840, Note_on_c, 0, 36, 59
5, 304560, Note_on_c, 0, 36, 0
5, 304560, Note_on_c, 0, 38, 57
5, 305040, Note_on_c, 0, 38, 0
5, 305040, Note_on_c, 0, 38, 55
5, 305280, Note_on_c, 0, 38, 0
5, 305280, Note_on_c, 0, 43, 54
5, 305520, Note_on_c, 0, 43, 0
5, 305520, Note_on_c, 0, 43, 53
5, 305760, Note_on_c, 0, 43, 0
5, 305760, Note_on_c, 0, 41, 52
5, 306000, Note_on_c, 0, 41, 0
5, 306000, Note_on_c, 0, 46, 50
5, 306720, Note_on_c, 0, 46, 0
5, 306720, Note_on_c, 0, 41, 53
5, 307440, Note_on_c, 0, 41, 0
5, 307440, Note_on_c, 0, 36, 56
5, 308160, Note_on_c, 0, 36, 0
5, 308160, Note_on_c, 0, 36, 57
5, 308880, Note_on_c, 0, 36, 0
5, 308880, Note_on_c, 0, 38, 54
5, 309600, Note_on_c, 0, 38, 0
5, 309600, Note_on_c, 0, 43, 51
5, 310320, Note_on_c, 0, 43, 0
5, 310320, Note_on_c, 0, 55, 40
5, 311040, Note_on_c, 0, 55, 0
5, 311040, Note_on_c, 0, 55, 51
5, 311760, Note_on_c, 0, 55, 0
5, 311760, Note_on_c, 0, 46, 55
5, 311760, Note_on_c, 0, 53, 55
5, 312480, Note_on_c, 0, 53, 0
5, 312480, Note_on_c, 0, 46, 0
5, 312480, Control_c, 0, 64, 0
5, 312480, Note_on_c, 0, 51, 44
5, 312540, Control_c, 0, 64, 127
5, 312600, Note_on_c, 0, 55, 44
5, 312617, Note_on_c, 0, 51, 0
5, 312720, Note_on_c, 0, 55, 0
5, 312720, Note_on_c, 0, 58, 44
5, 312840, Note_on_c, 0, 58, 0
5, 312840, Note_on_c, 0, 55, 44
5, 312960, Note_on_c, 0, 55, 0
5, 312960, Note_on_c, 0, 51, 44
5, 313080, Note_on_c, 0, 51, 0
5, 313080, Note_on_c, 0, 46, 44
5, 313200, Control_c, 0, 64, 0
5, 313200, Note_on_c, 0, 51, 44
5, 313201, Note_on_c, 0, 46, 0
5, 313260, Control_c, 0, 64, 127
5, 313320, Note_on_c, 0, 51, 0
5, 313320, Note_on_c, 0, 55, 45
5, 313440, Note_on_c, 0, 55, 0
5, 313440, Note_on_c, 0, 58, 45
5, 313560, Note_on_c, 0, 58, 0
5, 313560, Note_on_c, 0, 55, 45
5, 313680, Note_on_c, 0, 55, 0
5, 313680, Note_on_c, 0, 51, 45
5, 313800, Note_on_c, 0, 51, 0
5, 313800, Note_on_c, 0, 46, 45
5, 313920, Control_c, 0, 64, 0
5, 313920, Note_on_c, 0, 51, 45
5, 313921, Note_on_c, 0, 46, 0
5, 313980, Control_c, 0, 64, 127
5, 314040, Note_on_c, 0, 51, 0
5, 314040, Note_on_c, 0, 55, 46
5, 314160, Note_on_c, 0, 55, 0
5, 314160, Note_on_c, 0, 58, 46
5, 314280, Note_on_c, 0, 58, 0
5, 314280, Note_on_c, 0, 55, 46
5, 314400, Note_on_c, 0, 55, 0
5, 314400, Note_on_c, 0, 51, 46
5, 314520, Note_on_c, 0, 51, 0
5, 314520, Note_on_c, 0, 46, 46
5, 314640, Control_c, 0, 64, 0
5, 314640, Note_on_c, 0, 51, 46
5, 314641, Note_on_c, 0, 46, 0
5, 314700, Control_c, 0, 64, 127
5, 314760, Note_on_c, 0, 51, 0
5, 314760, Note_on_c, 0, 55, 46
5, 314880, Note_on_c, 0, 55, 0
5, 314880, Note_on_c, 0, 58, 47
5, 315000, Note_on_c, 0, 58, 0
5, 315000, Note_on_c, 0, 55, 47
5, 315120, Note_on_c, 0, 55, 0
5, 315120, Note_on_c, 0, 51, 47
5, 315240, Note_on_c, 0, 51, 0
5, 315240, Note_on_c, 0, 46, 47
5, 315360, Control_c, 0, 64, 0
5, 315360, Note_on_c, 0, 51, 47
5, 315361, Note_on_c, 0, 46, 0
5, 315420, Control_c, 0, 64, 127
5, 315480, Note_on_c, 0, 51, 0
5, 315480, Note_on_c, 0, 55, 47
5, 315600, Note_on_c, 0, 55, 0
5, 315600, Note_on_c, 0, 58, 47
5, 315720, Note_on_c, 0, 58, 0
5, 315720, Note_on_c, 0, 55, 48
5, 315840, Note_on_c, 0, 55, 0
5, 315840, Note_on_c, 0, 51, 48
5, 315960, Note_on_c, 0, 51, 0
5, 315960, Note_on_c, 0, 46, 48
5, 316080, Control_c, 0, 64, 0
5, 316080, Note_on_c, 0, 53, 48
5, 316081, Note_on_c, 0, 46, 0
5, 316140, Control_c, 0, 64, 127
5, 316200, Note_on_c, 0, 53, 0
5, 316200, Note_on_c, 0, 56, 48
5, 316320, Note_on_c, 0, 56, 0
5, 316320, Note_on_c, 0, 58, 48
5, 316440, Note_on_c, 0, 58, 0
5, 316440, Note_on_c, 0, 56, 48
5, 316560, Note_on_c, 0, 56, 0
5, 316560, Note_on_c, 0, 53, 49
5, 316680, Note_on_c, 0, 53, 0
5, 316680, Note_on_c, 0, 46, 49
5, 316800, Control_c, 0, 64, 0
5, 316800, Note_on_c, 0, 50, 49
5, 316801, Note_on_c, 0, 46, 0
5, 316860, Control_c, 0, 64, 127
5, 316920, Note_on_c, 0, 50, 0
5, 316920, Note_on_c, 0, 53, 49
5, 317040, Note_on_c, 0, 53, 0
5, 317040, Note_on_c, 0, 58, 49
5, 317160, Note_on_c, 0, 58, 0
5, 317160, Note_on_c, 0, 53, 49
5, 317280, Note_on_c, 0, 53, 0
5, 317280, Note_on_c, 0, 50, 49
5, 317400, Note_on_c, 0, 50, 0
5, 317400, Note_on_c, 0, 46, 50
5, 317520, Control_c, 0, 64, 0
5, 317520, Note_on_c, 0, 50, 50
5, 317521, Note_on_c, 0, 46, 0
5, 317580, Control_c, 0, 64, 127
5, 317640, Note_on_c, 0, 50, 0
5, 317640, Note_on_c, 0, 53, 50
5, 317760, Note_on_c, 0, 53, 0
5, 317760, Note_on_c, 0, 58, 50
5, 317880, Note_on_c, 0, 58, 0
5, 317880, Note_on_c, 0, 53, 50
5, 318000, Note_on_c, 0, 53, 0
5, 318000, Note_on_c, 0, 50, 50
5, 318120, Note_on_c, 0, 50, 0
5, 318120, Note_on_c, 0, 46, 51
5, 318240, Control_c, 0, 64, 0
5, 318240, Note_on_c, 0, 51, 51
5, 318241, Note_on_c, 0, 46, 0
5, 318300, Control_c, 0, 64, 127
5, 318360, Note_on_c, 0, 51, 0
5, 318360, Note_on_c, 0, 55, 51
5, 318480, Note_on_c, 0, 55, 0
5, 318480, Note_on_c, 0, 58, 51
5, 318600, Note_on_c, 0, 58, 0
5, 318600, Note_on_c, 0, 55, 51
5, 318720, Note_on_c, 0, 55, 0
5, 318720, Note_on_c, 0, 51, 51
5, 318840, Note_on_c, 0, 51, 0
5, 318840, Note_on_c, 0, 46, 51
5, 318960, Note_on_c, 0, 46, 0
5, 318960, Control_c, 0, 64, 0
5, 318960, Note_on_c, 0, 44, 50
5, 319020, Control_c, 0, 64, 127
5, 319080, Note_on_c, 0, 46, 50
5, 319095, Note_on_c, 0, 44, 0
5, 319200, Note_on_c, 0, 46, 0
5, 319200, Note_on_c, 0, 50, 51
5, 319320, Note_on_c, 0, 50, 0
5, 319320, Note_on_c, 0, 53, 52
5, 319440, Note_on_c, 0, 53, 0
5, 319440, Note_on_c, 0, 50, 52
5, 319560, Note_on_c, 0, 50, 0
5, 319560, Note_on_c, 0, 46, 53
5, 319680, Note_on_c, 0, 46, 0
5, 319680, Control_c, 0, 64, 0
5, 319680, Note_on_c, 0, 44, 53
5, 319740, Control_c, 0, 64, 127
5, 319800, Note_on_c, 0, 46, 54
5, 319815, Note_on_c, 0, 44, 0
5, 319920, Note_on_c, 0, 46, 0
5, 319920, Note_on_c, 0, 50, 55
5, 320040, Note_on_c, 0, 50, 0
5, 320040, Note_on_c, 0, 53, 55
5, 320160, Note_on_c, 0, 53, 0
5, 320160, Note_on_c, 0, 50, 56
5, 320280, Note_on_c, 0, 50, 0
5, 320280, Note_on_c, 0, 46, 57
5, 320400, Note_on_c, 0, 46, 0
5, 320400, Control_c, 0, 64, 0
5, 320400, Note_on_c, 0, 43, 57
5, 320460, Control_c, 0, 64, 127
5, 320520, Note_on_c, 0, 46, 56
5, 320535, Note_on_c, 0, 43, 0
5, 320640, Note_on_c, 0, 46, 0
5, 320640, Note_on_c, 0, 51, 55
5, 320760, Note_on_c, 0, 51, 0
5, 320760, Note_on_c, 0, 55, 54
5, 320880, Note_on_c, 0, 55, 0
5, 320880, Note_on_c, 0, 58, 53
5, 321000, Note_on_c, 0, 58, 0
5, 321000, Note_on_c, 0, 55, 52
5, 321120, Note_on_c, 0, 55, 0
5, 321120, Control_c, 0, 64, 0
5, 321120, Note_on_c, 0, 56, 52
5, 321180, Control_c, 0, 64, 127
5, 321240, Note_on_c, 0, 58, 52
5, 321266, Note_on_c, 0, 56, 0
5, 321360, Note_on_c, 0, 58, 0
5, 321360, Note_on_c, 0, 62, 53
5, 321480, Note_on_c, 0, 62, 0
5, 321480, Note_on_c, 0, 65, 54
5, 321600, Note_on_c, 0, 65, 0
5, 321600, Note_on_c, 0, 62, 54
5, 321720, Note_on_c, 0, 62, 0
5, 321720, Note_on_c, 0, 58, 55
5, 321840, Note_on_c, 0, 58, 0
5, 321840, Control_c, 0, 64, 0
5, 321840, Note_on_c, 0, 56, 55
5, 321900, Control_c, 0, 64, 127
5, 321960, Note_on_c, 0, 58, 56
5, 321986, Note_on_c, 0, 56, 0
5, 322080, Note_on_c, 0, 58, 0
5, 322080, Note_on_c, 0, 62, 57
5, 322200, Note_on_c, 0, 62, 0
5, 322200, Note_on_c, 0, 65, 57
5, 322320, Note_on_c, 0, 65, 0
5, 322320, Note_on_c, 0, 62, 58
5, 322440, Note_on_c, 0, 62, 0
5, 322440, Note_on_c, 0, 58, 59
5, 322560, Note_on_c, 0, 58, 0
5, 322560, Control_c, 0, 64, 0
5, 322560, Note_on_c, 0, 55, 61
5, 322620, Control_c, 0, 64, 127
5, 322680, Note_on_c, 0, 58, 60
5, 322706, Note_on_c, 0, 55, 0
5, 322800, Note_on_c, 0, 58, 0
5, 322800, Note_on_c, 0, 63, 59
5, 322920, Note_on_c, 0, 63, 0
5, 322920, Note_on_c, 0, 67, 58
5, 323040, Note_on_c, 0, 67, 0
5, 323040, Note_on_c, 0, 63, 57
5, 323160, Note_on_c, 0, 63, 0
5, 323160, Note_on_c, 0, 58, 56
5, 323280, Note_on_c, 0, 58, 0
5, 323280, Control_c, 0, 64, 0
5, 323280, Note_on_c, 0, 56, 54
5, 323340, Control_c, 0, 64, 127
5, 323400, Note_on_c, 0, 60, 54
5, 323426, Note_on_c, 0, 56, 0
5, 323520, Note_on_c, 0, 60, 0
5, 323520, Note_on_c, 0, 65, 55
5, 323640, Note_on_c, 0, 65, 0
5, 323640, Note_on_c, 0, 68, 56
5, 323760, Note_on_c, 0, 68, 0
5, 323760, Note_on_c, 0, 65, 56
5, 323880, Note_on_c, 0, 65, 0
5, 323880, Note_on_c, 0, 60, 57
5, 324000, Note_on_c, 0, 60, 0
5, 324000, Control_c, 0, 64, 0
5, 324000, Note_on_c, 0, 58, 57
5, 324060, Control_c, 0, 64, 127
5, 324120, Note_on_c, 0, 62, 58
5, 324137, Note_on_c, 0, 58, 0
5, 324240, Note_on_c, 0, 62, 0
5, 324240, Note_on_c, 0, 65, 59
5, 324360, Note_on_c, 0, 65, 0
5, 324360, Note_on_c, 0, 68, 59
5, 324480, Note_on_c, 0, 68, 0
5, 324480, Note_on_c, 0, 65, 60
5, 324600, Note_on_c, 0, 65, 0
5, 324600, Note_on_c, 0, 62, 61
5, 324720, Note_on_c, 0, 62, 0
5, 324720, Control_c, 0, 64, 0
5, 324720, Note_on_c, 0, 60, 61
5, 324840, Note_on_c, 0, 60, 0
5, 324840, Note_on_c, 0, 59, 60
5, 324960, Note_on_c, 0, 60, 60
5, 324990, Note_on_c, 0, 59, 0
5, 325080, Note_on_c, 0, 60, 0
5, 325080, Note_on_c, 0, 62, 59
5, 325200, Note_on_c, 0, 62, 0
5, 325200, Note_on_c, 0, 63, 58
5, 325320, Note_on_c, 0, 63, 0
5, 325320, Note_on_c, 0, 60, 57
5, 325440, Note_on_c, 0, 60, 0
5, 325440, Control_c, 0, 64, 0
5, 325440, Note_on_c, 0, 44, 56
5, 325500, Control_c, 0, 64, 127
5, 325560, Note_on_c, 0, 48, 54
5, 325589, Note_on_c, 0, 44, 0
5, 325680, Note_on_c, 0, 48, 0
5, 325680, Note_on_c, 0, 53, 54
5, 325800, Note_on_c, 0, 53, 0
5, 325800, Note_on_c, 0, 56, 54
5, 325920, Note_on_c, 0, 56, 0
5, 325920, Note_on_c, 0, 60, 53
5, 326040, Note_on_c, 0, 60, 0
5, 326040, Note_on_c, 0, 56, 53
5, 326160, Note_on_c, 0, 56, 0
5, 326160, Control_c, 0, 64, 0
5, 326160, Note_on_c, 0, 46, 52
5, 326220, Control_c, 0, 64, 127
5, 326280, Note_on_c, 0, 51, 52
5, 326309, Note_on_c, 0, 46, 0
5, 326400, Note_on_c, 0, 51, 0
5, 326400, Note_on_c, 0, 55, 52
5, 326520, Note_on_c, 0, 55, 0
5, 326520, Note_on_c, 0, 58, 51
5, 326640, Note_on_c, 0, 58, 0
5, 326640, Note_on_c, 0, 55, 51
5, 326760, Note_on_c, 0, 55, 0
5, 326760, Note_on_c, 0, 51, 51
5, 326880, Note_on_c, 0, 51, 0
5, 326880, Control_c, 0, 64, 0
5, 326880, Note_on_c, 0, 46, 50
5, 326940, Control_c, 0, 64, 127
5, 327000, Note_on_c, 0, 50, 50
5, 327029, Note_on_c, 0, 46, 0
5, 327120, Note_on_c, 0, 50, 0
5, 327120, Note_on_c, 0, 53, 50
5, 327240, Note_on_c, 0, 53, 0
5, 327240, Note_on_c, 0, 56, 49
5, 327360, Note_on_c, 0, 56, 0
5, 327360, Note_on_c, 0, 53, 49
5, 327480, Note_on_c, 0, 53, 0
5, 327480, Note_on_c, 0, 56, 48
5, 327600, Note_on_c, 0, 56, 0
5, 327600, Control_c, 0, 64, 0
5, 327600, Note_on_c, 0, 43, 48
5, 327660, Control_c, 0, 64, 127
5, 327720, Note_on_c, 0, 46, 49
5, 327840, Note_on_c, 0, 46, 0
5, 327840, Note_on_c, 0, 51, 49
5, 327960, Note_on_c, 0, 51, 0
5, 327960, Note_on_c, 0, 46, 50
5, 328020, Note_on_c, 0, 43, 0
5, 328080, Note_on_c, 0, 46, 0
5, 328080, Note_on_c, 0, 43, 51
5, 328200, Note_on_c, 0, 43, 0
5, 328200, Note_on_c, 0, 39, 52
5, 328320, Control_c, 0, 64, 0
5, 328320, Note_on_c, 0, 44, 53
5, 328326, Note_on_c, 0, 39, 0
5, 328380, Control_c, 0, 64, 127
5, 328440, Note_on_c, 0, 48, 53
5, 328560, Note_on_c, 0, 48, 0
5, 328560, Note_on_c, 0, 51, 54
5, 328680, Note_on_c, 0, 51, 0
5, 328680, Note_on_c, 0, 48, 55
5, 328780, Note_on_c, 0, 44, 0
5, 328800, Note_on_c, 0, 48, 0
5, 328800, Note_on_c, 0, 44, 56
5, 328920, Note_on_c, 0, 44, 0
5, 328920, Note_on_c, 0, 39, 56
5, 329040, Control_c, 0, 64, 0
5, 329040, Note_on_c, 0, 44, 57
5, 329046, Note_on_c, 0, 39, 0
5, 329100, Control_c, 0, 64, 127
5, 329160, Note_on_c, 0, 48, 57
5, 329280, Note_on_c, 0, 48, 0
5, 329280, Note_on_c, 0, 51, 57
5, 329400, Note_on_c, 0, 51, 0
5, 329400, Note_on_c, 0, 48, 56
5, 329517, Note_on_c, 0, 44, 0
5, 329520, Note_on_c, 0, 48, 0
5, 329520, Note_on_c, 0, 44, 56
5, 329640, Note_on_c, 0, 44, 0
5, 329640, Note_on_c, 0, 39, 56
5, 329760, Control_c, 0, 64, 0
5, 329760, Note_on_c, 0, 43, 55
5, 329766, Note_on_c, 0, 39, 0
5, 329820, Control_c, 0, 64, 127
5, 329880, Note_on_c, 0, 46, 55
5, 330000, Note_on_c, 0, 46, 0
5, 330000, Note_on_c, 0, 51, 55
5, 330120, Note_on_c, 0, 51, 0
5, 330120, Note_on_c, 0, 46, 54
5, 330220, Note_on_c, 0, 43, 0
5, 330240, Note_on_c, 0, 46, 0
5, 330240, Note_on_c, 0, 43, 54
5, 330360, Note_on_c, 0, 43, 0
5, 330360, Note_on_c, 0, 39, 54
5, 330480, Control_c, 0, 64, 0
5, 330480, Note_on_c, 0, 43, 54
5, 330486, Note_on_c, 0, 39, 0
5, 330540, Control_c, 0, 64, 127
5, 330600, Note_on_c, 0, 46, 53
5, 330720, Note_on_c, 0, 46, 0
5, 330720, Note_on_c, 0, 51, 53
5, 330840, Note_on_c, 0, 51, 0
5, 330840, Note_on_c, 0, 46, 53
5, 330940, Note_on_c, 0, 43, 0
5, 330960, Note_on_c, 0, 46, 0
5, 330960, Note_on_c, 0, 43, 52
5, 331080, Note_on_c, 0, 43, 0
5, 331080, Note_on_c, 0, 39, 52
5, 331200, Control_c, 0, 64, 0
5, 331200, Note_on_c, 0, 41, 52
5, 331206, Note_on_c, 0, 39, 0
5, 331260, Control_c, 0, 64, 127
5, 331320, Note_on_c, 0, 44, 51
5, 331440, Note_on_c, 0, 44, 0
5, 331440, Note_on_c, 0, 50, 51
5, 331560, Note_on_c, 0, 50, 0
5, 331560, Note_on_c, 0, 44, 51
5, 331660, Note_on_c, 0, 41, 0
5, 331680, Note_on_c, 0, 44, 0
5, 331680, Note_on_c, 0, 41, 50
5, 331800, Note_on_c, 0, 41, 0
5, 331800, Note_on_c, 0, 39, 50
5, 331920, Control_c, 0, 64, 0
5, 331920, Note_on_c, 0, 43, 50
5, 331926, Note_on_c, 0, 39, 0
5, 331980, Control_c, 0, 64, 127
5, 332040, Note_on_c, 0, 46, 48
5, 332160, Note_on_c, 0, 46, 0
5, 332160, Note_on_c, 0, 51, 48
5, 332280, Note_on_c, 0, 51, 0
5, 332280, Note_on_c, 0, 46, 49
5, 332380, Note_on_c, 0, 43, 0
5, 332400, Note_on_c, 0, 46, 0
5, 332400, Note_on_c, 0, 43, 49
5, 332520, Note_on_c, 0, 43, 0
5, 332520, Note_on_c, 0, 39, 50
5, 332640, Control_c, 0, 64, 0
5, 332640, Note_on_c, 0, 44, 50
5, 332646, Note_on_c, 0, 39, 0
5, 332700, Control_c, 0, 64, 127
5, 332760, Note_on_c, 0, 48, 51
5, 332880, Note_on_c, 0, 48, 0
5, 332880, Note_on_c, 0, 51, 51
5, 333000, Note_on_c, 0, 51, 0
5, 333000, Note_on_c, 0, 48, 52
5, 333100, Note_on_c, 0, 44, 0
5, 333120, Note_on_c, 0, 48, 0
5, 333120, Note_on_c, 0, 44, 52
5, 333240, Note_on_c, 0, 44, 0
5, 333240, Note_on_c, 0, 39, 53
5, 333360, Control_c, 0, 64, 0
5, 333360, Note_on_c, 0, 44, 53
5, 333366, Note_on_c, 0, 39, 0
5, 333420, Control_c, 0, 64, 127
5, 333480, Note_on_c, 0, 48, 53
5, 333600, Note_on_c, 0, 48, 0
5, 333600, Note_on_c, 0, 51, 54
5, 333720, Note_on_c, 0, 51, 0
5, 333720, Note_on_c, 0, 48, 54
5, 333820, Note_on_c, 0, 44, 0
5, 333840, Note_on_c, 0, 48, 0
5, 333840, Note_on_c, 0, 44, 55
5, 333960, Note_on_c, 0, 44, 0
5, 333960, Note_on_c, 0, 39, 55
5, 334080, Note_on_c, 0, 39, 0
5, 334080, Control_c, 0, 64, 0
5, 334080, Note_on_c, 0, 43, 53
5, 334140, Control_c, 0, 64, 127
5, 334200, Note_on_c, 0, 46, 52
5, 334320, Note_on_c, 0, 46, 0
5, 334320, Note_on_c, 0, 51, 52
5, 334440, Note_on_c, 0, 51, 0
5, 334440, Note_on_c, 0, 46, 51
5, 334500, Note_on_c, 0, 43, 0
5, 334560, Note_on_c, 0, 46, 0
5, 334560, Note_on_c, 0, 43, 50
5, 334680, Note_on_c, 0, 43, 0
5, 334680, Note_on_c, 0, 39, 50
5, 334800, Control_c, 0, 64, 0
5, 334800, Note_on_c, 0, 43, 49
5, 334860, Control_c, 0, 64, 127
5, 334920, Note_on_c, 0, 43, 0
5, 334920, Note_on_c, 0, 46, 48
5, 335040, Note_on_c, 0, 46, 0
5, 335040, Note_on_c, 0, 51, 48
5, 335160, Note_on_c, 0, 51, 0
5, 335160, Note_on_c, 0, 46, 47
5, 335280, Note_on_c, 0, 46, 0
5, 335280, Note_on_c, 0, 43, 46
5, 335350, Note_on_c, 0, 39, 0
5, 335400, Note_on_c, 0, 43, 0
5, 335400, Note_on_c, 0, 39, 46
5, 335520, Control_c, 0, 64, 0
5, 335520, Note_on_c, 0, 43, 45
5, 335580, Control_c, 0, 64, 127
5, 335640, Note_on_c, 0, 43, 0
5, 335640, Note_on_c, 0, 46, 44
5, 335760, Note_on_c, 0, 46, 0
5, 335760, Note_on_c, 0, 51, 44
5, 335845, Note_on_c, 0, 39, 0
5, 335880, Note_on_c, 0, 51, 0
5, 335880, Note_on_c, 0, 39, 43
5, 336000, Note_on_c, 0, 39, 0
5, 336000, Note_on_c, 0, 51, 42
5, 336120, Note_on_c, 0, 51, 0
5, 336120, Note_on_c, 0, 39, 42
5, 336240, Note_on_c, 0, 39, 0
5, 336240, Control_c, 0, 64, 0
5, 336240, Note_on_c, 0, 38, 38
5, 336960, Note_on_c, 0, 38, 0
5, 336960, Note_on_c, 0, 50, 43
5, 337744, Note_on_c, 0, 50, 0
5, 338400, Note_on_c, 0, 43, 42
5, 339048, Note_on_c, 0, 43, 0
5, 339120, Note_on_c, 0, 43, 44
5, 339768, Note_on_c, 0, 43, 0
5, 339840, Note_on_c, 0, 43, 46
5, 340488, Note_on_c, 0, 43, 0
5, 340560, Note_on_c, 0, 43, 50
5, 341208, Note_on_c, 0, 43, 0
5, 341280, Note_on_c, 0, 43, 44
5, 341928, Note_on_c, 0, 43, 0
5, 342000, Note_on_c, 0, 38, 42
5, 342648, Note_on_c, 0, 38, 0
5, 342720, Note_on_c, 0, 43, 40
5, 343368, Note_on_c, 0, 43, 0
5, 343440, Note_on_c, 0, 43, 42
5, 344088, Note_on_c, 0, 43, 0
5, 344160, Note_on_c, 0, 43, 44
5, 344808, Note_on_c, 0, 43, 0
5, 344880, Note_on_c, 0, 41, 47
5, 345528, Note_on_c, 0, 41, 0
5, 345600, Note_on_c, 0, 41, 45
5, 346248, Note_on_c, 0, 41, 0
5, 346320, Note_on_c, 0, 46, 43
5, 346968, Note_on_c, 0, 46, 0
5, 347040, Note_on_c, 0, 46, 40
5, 347688, Note_on_c, 0, 46, 0
5, 347760, Note_on_c, 0, 41, 43
5, 348408, Note_on_c, 0, 41, 0
5, 348480, Note_on_c, 0, 36, 46
5, 349128, Note_on_c, 0, 36, 0
5, 349200, Note_on_c, 0, 36, 49
5, 349848, Note_on_c, 0, 36, 0
5, 349920, Note_on_c, 0, 38, 47
5, 350400, Note_on_c, 0, 38, 0
5, 350400, Note_on_c, 0, 38, 46
5, 350640, Note_on_c, 0, 38, 0
5, 350640, Note_on_c, 0, 43, 44
5, 350880, Note_on_c, 0, 43, 0
5, 350880, Note_on_c, 0, 43, 44
5, 351120, Note_on_c, 0, 43, 0
5, 351120, Note_on_c, 0, 41, 43
5, 351360, Note_on_c, 0, 41, 0
5, 351360, Note_on_c, 0, 46, 42
5, 352042, Note_on_c, 0, 46, 0
5, 352080, Note_on_c, 0, 41, 44
5, 352762, Note_on_c, 0, 41, 0
5, 352800, Note_on_c, 0, 36, 47
5, 353482, Note_on_c, 0, 36, 0
5, 353520, Note_on_c, 0, 36, 49
5, 354202, Note_on_c, 0, 36, 0
5, 354240, Note_on_c, 0, 38, 44
5, 354922, Note_on_c, 0, 38, 0
5, 354960, Control_c, 0, 64, 0
5, 354960, Note_on_c, 0, 43, 40
5, 355020, Control_c, 0, 64, 127
5, 355080, Note_on_c, 0, 46, 41
5, 355200, Note_on_c, 0, 46, 0
5, 355200, Note_on_c, 0, 50, 42
5, 355304, Note_on_c, 0, 43, 0
5, 355320, Note_on_c, 0, 50, 0
5, 355320, Note_on_c, 0, 43, 43
5, 355440, Note_on_c, 0, 46, 44
5, 355560, Note_on_c, 0, 46, 0
5, 355560, Note_on_c, 0, 50, 45
5, 355664, Note_on_c, 0, 43, 0
5, 355680, Note_on_c, 0, 50, 0
5, 355680, Control_c, 0, 64, 0
5, 355680, Note_on_c, 0, 55, 46
5, 355740, Control_c, 0, 64, 127
5, 355800, Note_on_c, 0, 58, 47
5, 355920, Note_on_c, 0, 58, 0
5, 355920, Note_on_c, 0, 62, 47
5, 356040, Note_on_c, 0, 62, 0
5, 356040, Note_on_c, 0, 58, 48
5, 356136, Note_on_c, 0, 55, 0
5, 356160, Note_on_c, 0, 58, 0
5, 356160, Note_on_c, 0, 55, 49
5, 356280, Note_on_c, 0, 55, 0
5, 356280, Note_on_c, 0, 50, 50
5, 356400, Note_on_c, 0, 50, 0
5, 356400, Control_c, 0, 64, 0
5, 356400, Note_on_c, 0, 55, 51
5, 356460, Control_c, 0, 64, 127
5, 356520, Note_on_c, 0, 58, 52
5, 356640, Note_on_c, 0, 58, 0
5, 356640, Note_on_c, 0, 62, 53
5, 356760, Note_on_c, 0, 62, 0
5, 356760, Note_on_c, 0, 58, 54
5, 356856, Note_on_c, 0, 55, 0
5, 356880, Note_on_c, 0, 58, 0
5, 356880, Note_on_c, 0, 55, 55
5, 357000, Note_on_c, 0, 55, 0
5, 357000, Note_on_c, 0, 50, 56
5, 357120, Note_on_c, 0, 50, 0
5, 357120, Control_c, 0, 64, 0
5, 357120, Note_on_c, 0, 55, 57
5, 357180, Control_c, 0, 64, 127
5, 357240, Note_on_c, 0, 58, 57
5, 357360, Note_on_c, 0, 58, 0
5, 357360, Note_on_c, 0, 62, 58
5, 357480, Note_on_c, 0, 62, 0
5, 357480, Note_on_c, 0, 58, 59
5, 357576, Note_on_c, 0, 55, 0
5, 357600, Note_on_c, 0, 58, 0
5, 357600, Note_on_c, 0, 55, 60
5, 357720, Note_on_c, 0, 55, 0
5, 357720, Note_on_c, 0, 50, 61
5, 357840, Note_on_c, 0, 50, 0
5, 357840, Control_c, 0, 64, 0
5, 357840, Note_on_c, 0, 55, 63
5, 357900, Control_c, 0, 64, 127
5, 357960, Note_on_c, 0, 58, 60
5, 358080, Note_on_c, 0, 58, 0
5, 358080, Note_on_c, 0, 62, 60
5, 358200, Note_on_c, 0, 62, 0
5, 358200, Note_on_c, 0, 58, 59
5, 358296, Note_on_c, 0, 55, 0
5, 358320, Note_on_c, 0, 58, 0
5, 358320, Note_on_c, 0, 55, 58
5, 358440, Note_on_c, 0, 55, 0
5, 358440, Note_on_c, 0, 50, 57
5, 358560, Note_on_c, 0, 50, 0
5, 358560, Control_c, 0, 64, 0
5, 358560, Note_on_c, 0, 55, 57
5, 358620, Control_c, 0, 64, 127
5, 358680, Note_on_c, 0, 58, 56
5, 358800, Note_on_c, 0, 58, 0
5, 358800, Note_on_c, 0, 62, 55
5, 358920, Note_on_c, 0, 62, 0
5, 358920, Note_on_c, 0, 58, 54
5, 359032, Note_on_c, 0, 55, 0
5, 359040, Note_on_c, 0, 58, 0
5, 359040, Note_on_c, 0, 55, 53
5, 359160, Note_on_c, 0, 55, 0
5, 359160, Note_on_c, 0, 50, 53
5, 359280, Note_on_c, 0, 50, 0
5, 359280, Control_c, 0, 64, 0
5, 359280, Note_on_c, 0, 54, 52
5, 359340, Control_c, 0, 64, 127
5, 359400, Note_on_c, 0, 57, 51
5, 359520, Note_on_c, 0, 57, 0
5, 359520, Note_on_c, 0, 62, 50
5, 359640, Note_on_c, 0, 62, 0
5, 359640, Note_on_c, 0, 57, 50
5, 359736, Note_on_c, 0, 54, 0
5, 359760, Note_on_c, 0, 57, 0
5, 359760, Note_on_c, 0, 54, 49
5, 359880, Note_on_c, 0, 54, 0
5, 359880, Note_on_c, 0, 50, 48
5, 360000, Note_on_c, 0, 50, 0
5, 360000, Control_c, 0, 64, 0
5, 360000, Note_on_c, 0, 54, 61
5, 360060, Control_c, 0, 64, 127
5, 360120, Note_on_c, 0, 57, 59
5, 360240, Note_on_c, 0, 57, 0
5, 360240, Note_on_c, 0, 62, 58
5, 360360, Note_on_c, 0, 62, 0
5, 360360, Note_on_c, 0, 57, 58
5, 360456, Note_on_c, 0, 54, 0
5, 360480, Note_on_c, 0, 57, 0
5, 360480, Note_on_c, 0, 54, 57
5, 360600, Note_on_c, 0, 54, 0
5, 360600, Note_on_c, 0, 50, 56
5, 360720, Note_on_c, 0, 50, 0
5, 360720, Control_c, 0, 64, 0
5, 360720, Note_on_c, 0, 54, 56
5, 360780, Control_c, 0, 64, 127
5, 360840, Note_on_c, 0, 57, 55
5, 360960, Note_on_c, 0, 57, 0
5, 360960, Note_on_c, 0, 62, 54
5, 361080, Note_on_c, 0, 62, 0
5, 361080, Note_on_c, 0, 57, 53
5, 361160, Note_on_c, 0, 54, 0
5, 361200, Note_on_c, 0, 57, 0
5, 361200, Note_on_c, 0, 54, 53
5, 361320, Note_on_c, 0, 54, 0
5, 361320, Note_on_c, 0, 50, 52
5, 361440, Note_on_c, 0, 50, 0
5, 361440, Control_c, 0, 64, 0
5, 361440, Note_on_c, 0, 51, 51
5, 361500, Control_c, 0, 64, 127
5, 361560, Note_on_c, 0, 55, 50
5, 361680, Note_on_c, 0, 55, 0
5, 361680, Note_on_c, 0, 58, 50
5, 361800, Note_on_c, 0, 58, 0
5, 361800, Note_on_c, 0, 55, 49
5, 361896, Note_on_c, 0, 51, 0
5, 361920, Note_on_c, 0, 55, 0
5, 361920, Note_on_c, 0, 51, 48
5, 362040, Note_on_c, 0, 51, 0
5, 362040, Note_on_c, 0, 50, 47
5, 362160, Note_on_c, 0, 50, 0
5, 362160, Control_c, 0, 64, 0
5, 362160, Note_on_c, 0, 48, 49
5, 362520, Note_on_c, 0, 48, 0
5, 362640, Note_on_c, 0, 48, 43
5, 362832, Note_on_c, 0, 48, 0
5, 363600, Note_on_c, 0, 50, 45
5, 363960, Note_on_c, 0, 50, 0
5, 364080, Note_on_c, 0, 50, 38
5, 364272, Note_on_c, 0, 50, 0
5, 364320, Note_on_c, 0, 50, 39
5, 364800, Note_on_c, 0, 50, 0
5, 365040, Note_on_c, 0, 43, 35
5, 365520, Note_on_c, 0, 43, 0
5, 366479, Control_c, 0, 0, 0
5, 366480, Control_c, 0, 32, 0
5, 366480, Program_c, 0, 0
5, 366480, Control_c, 0, 10, 55
5, 366480, Control_c, 0, 91, 91
5, 366480, Control_c, 0, 93, 28
5, 366480, Control_c, 0, 64, 0
5, 366480, Control_c, 0, 1, 0
5, 366480, Pitch_bend_c, 0, 8192
5, 366480, Control_c, 0, 7, 122
5, 367440, Note_on_c, 0, 55, 54
5, 367920, Note_on_c, 0, 55, 0
5, 367920, Note_on_c, 0, 54, 55
5, 368400, Note_on_c, 0, 54, 0
5, 368400, Note_on_c, 0, 52, 57
5, 368880, Note_on_c, 0, 52, 0
5, 368880, Note_on_c, 0, 50, 58
5, 369360, Note_on_c, 0, 50, 0
5, 369360, Note_on_c, 0, 48, 59
5, 369840, Note_on_c, 0, 48, 0
5, 369840, Note_on_c, 0, 47, 58
5, 370320, Note_on_c, 0, 47, 0
5, 370320, Note_on_c, 0, 50, 56
5, 370800, Note_on_c, 0, 50, 0
5, 370800, Note_on_c, 0, 43, 55
5, 371280, Note_on_c, 0, 43, 0
5, 371280, Note_on_c, 0, 55, 54
5, 371760, Note_on_c, 0, 55, 0
5, 371760, Note_on_c, 0, 54, 55
5, 372240, Note_on_c, 0, 54, 0
5, 372240, Note_on_c, 0, 52, 57
5, 372720, Note_on_c, 0, 52, 0
5, 372720, Note_on_c, 0, 50, 61
5, 373200, Note_on_c, 0, 50, 0
5, 373200, Note_on_c, 0, 55, 59
5, 373680, Note_on_c, 0, 55, 0
5, 373680, Note_on_c, 0, 57, 57
5, 374160, Note_on_c, 0, 57, 0
5, 374160, Note_on_c, 0, 50, 54
5, 374400, Note_on_c, 0, 50, 0
5, 375120, Control_c, 0, 64, 0
5, 375120, Note_on_c, 0, 55, 54
5, 375600, Note_on_c, 0, 55, 0
5, 375600, Note_on_c, 0, 54, 55
5, 376080, Note_on_c, 0, 54, 0
5, 376080, Note_on_c, 0, 52, 57
5, 376560, Note_on_c, 0, 52, 0
5, 376560, Note_on_c, 0, 50, 58
5, 377040, Note_on_c, 0, 50, 0
5, 377040, Note_on_c, 0, 48, 59
5, 377520, Note_on_c, 0, 48, 0
5, 377520, Note_on_c, 0, 47, 58
5, 378000, Note_on_c, 0, 47, 0
5, 378000, Note_on_c, 0, 50, 56
5, 378480, Note_on_c, 0, 50, 0
5, 378480, Note_on_c, 0, 43, 55
5, 378960, Note_on_c, 0, 43, 0
5, 378960, Note_on_c, 0, 55, 54
5, 379440, Note_on_c, 0, 55, 0
5, 379440, Note_on_c, 0, 54, 55
5, 379920, Note_on_c, 0, 54, 0
5, 379920, Note_on_c, 0, 52, 57
5, 380400, Note_on_c, 0, 52, 0
5, 380400, Note_on_c, 0, 50, 61
5, 380880, Note_on_c, 0, 50, 0
5, 380880, Note_on_c, 0, 55, 59
5, 381360, Note_on_c, 0, 55, 0
5, 381360, Note_on_c, 0, 57, 57
5, 381840, Note_on_c, 0, 57, 0
5, 381840, Note_on_c, 0, 50, 54
5, 382080, Note_on_c, 0, 50, 0
5, 382800, Note_on_c, 0, 50, 91
5, 383040, Note_on_c, 0, 50, 0
5, 383040, Note_on_c, 0, 52, 91
5, 383160, Note_on_c, 0, 52, 0
5, 383160, Note_on_c, 0, 50, 91
5, 383280, Note_on_c, 0, 50, 0
5, 383280, Note_on_c, 0, 47, 90
5, 383400, Note_on_c, 0, 47, 0
5, 383520, Note_on_c, 0, 49, 90
5, 383640, Note_on_c, 0, 49, 0
5, 383760, Note_on_c, 0, 50, 89
5, 384240, Note_on_c, 0, 50, 0
5, 384240, Note_on_c, 0, 38, 87
5, 384600, Note_on_c, 0, 38, 0
5, 384660, Note_on_c, 0, 42, 87
5, 384720, Note_on_c, 0, 42, 0
5, 384720, Note_on_c, 0, 40, 87
5, 384840, Note_on_c, 0, 40, 0
5, 384960, Note_on_c, 0, 38, 86
5, 385080, Note_on_c, 0, 38, 0
5, 385200, Note_on_c, 0, 40, 86
5, 385320, Note_on_c, 0, 40, 0
5, 385440, Note_on_c, 0, 42, 85
5, 385560, Note_on_c, 0, 42, 0
5, 385680, Note_on_c, 0, 43, 85
5, 386160, Note_on_c, 0, 43, 0
5, 386160, Note_on_c, 0, 31, 81
5, 386520, Note_on_c, 0, 31, 0
5, 386640, Note_on_c, 0, 50, 69
5, 387120, Note_on_c, 0, 50, 0
5, 387120, Note_on_c, 0, 45, 67
5, 387600, Note_on_c, 0, 45, 0
5, 387600, Note_on_c, 0, 50, 65
5, 388080, Note_on_c, 0, 50, 0
5, 388080, Note_on_c, 0, 43, 64
5, 388560, Note_on_c, 0, 43, 0
5, 388560, Note_on_c, 0, 36, 62
5, 389040, Note_on_c, 0, 36, 0
5, 389040, Note_on_c, 0, 38, 60
5, 389520, Note_on_c, 0, 38, 0
5, 389520, Note_on_c, 0, 43, 58
5, 389760, Note_on_c, 0, 43, 0
5, 389760, Note_on_c, 0, 55, 57
5, 389952, Note_on_c, 0, 55, 0
5, 390000, Note_on_c, 0, 53, 57
5, 390192, Note_on_c, 0, 53, 0
5, 390240, Note_on_c, 0, 52, 56
5, 390432, Note_on_c, 0, 52, 0
5, 390480, Control_c, 0, 64, 0
5, 390480, Note_on_c, 0, 50, 91
5, 390720, Note_on_c, 0, 50, 0
5, 390720, Note_on_c, 0, 52, 91
5, 390840, Note_on_c, 0, 52, 0
5, 390840, Note_on_c, 0, 50, 91
5, 390960, Note_on_c, 0, 50, 0
5, 390960, Note_on_c, 0, 47, 90
5, 391080, Note_on_c, 0, 47, 0
5, 391200, Note_on_c, 0, 49, 90
5, 391320, Note_on_c, 0, 49, 0
5, 391440, Note_on_c, 0, 50, 89
5, 391920, Note_on_c, 0, 50, 0
5, 391920, Note_on_c, 0, 38, 87
5, 392280, Note_on_c, 0, 38, 0
5, 392340, Note_on_c, 0, 42, 87
5, 392400, Note_on_c, 0, 42, 0
5, 392400, Note_on_c, 0, 40, 87
5, 392520, Note_on_c, 0, 40, 0
5, 392640, Note_on_c, 0, 38, 86
5, 392760, Note_on_c, 0, 38, 0
5, 392880, Note_on_c, 0, 40, 86
5, 393000, Note_on_c, 0, 40, 0
5, 393120, Note_on_c, 0, 42, 85
5, 393240, Note_on_c, 0, 42, 0
5, 393360, Note_on_c, 0, 43, 85
5, 393840, Note_on_c, 0, 43, 0
5, 393840, Note_on_c, 0, 31, 82
5, 394200, Note_on_c, 0, 31, 0
5, 394320, Note_on_c, 0, 50, 63
5, 394800, Note_on_c, 0, 50, 0
5, 394800, Note_on_c, 0, 45, 62
5, 395280, Note_on_c, 0, 45, 0
5, 395280, Note_on_c, 0, 50, 60
5, 395760, Note_on_c, 0, 50, 0
5, 395760, Note_on_c, 0, 43, 59
5, 396240, Note_on_c, 0, 43, 0
5, 396240, Note_on_c, 0, 36, 57
5, 396720, Note_on_c, 0, 36, 0
5, 396720, Note_on_c, 0, 38, 56
5, 397200, Note_on_c, 0, 38, 0
5, 397200, Note_on_c, 0, 43, 53
5, 397440, Note_on_c, 0, 43, 0
5, 399120, Note_on_c, 0, 52, 84
5, 399344, Note_on_c, 0, 52, 0
5, 399360, Note_on_c, 0, 52, 87
5, 399584, Note_on_c, 0, 52, 0
5, 399600, Note_on_c, 0, 52, 90
5, 399824, Note_on_c, 0, 52, 0
5, 399840, Note_on_c, 0, 52, 87
5, 400064, Note_on_c, 0, 52, 0
5, 400080, Note_on_c, 0, 52, 86
5, 400304, Note_on_c, 0, 52, 0
5, 400320, Note_on_c, 0, 52, 86
5, 400544, Note_on_c, 0, 52, 0
5, 400560, Note_on_c, 0, 52, 85
5, 400784, Note_on_c, 0, 52, 0
5, 400800, Note_on_c, 0, 52, 85
5, 401024, Note_on_c, 0, 52, 0
5, 401040, Note_on_c, 0, 52, 84
5, 401264, Note_on_c, 0, 52, 0
5, 401280, Note_on_c, 0, 52, 83
5, 401504, Note_on_c, 0, 52, 0
5, 401520, Note_on_c, 0, 52, 83
5, 401744, Note_on_c, 0, 52, 0
5, 401760, Note_on_c, 0, 52, 82
5, 401984, Note_on_c, 0, 52, 0
5, 402000, Note_on_c, 0, 60, 91
5, 402120, Note_on_c, 0, 60, 0
5, 402120, Note_on_c, 0, 59, 90
5, 402240, Note_on_c, 0, 59, 0
5, 402240, Note_on_c, 0, 57, 90
5, 402360, Note_on_c, 0, 57, 0
5, 402360, Note_on_c, 0, 55, 89
5, 402480, Note_on_c, 0, 55, 0
5, 402480, Note_on_c, 0, 54, 88
5, 402600, Note_on_c, 0, 54, 0
5, 402600, Note_on_c, 0, 55, 87
5, 402720, Note_on_c, 0, 55, 0
5, 402720, Note_on_c, 0, 54, 86
5, 402840, Note_on_c, 0, 54, 0
5, 402840, Note_on_c, 0, 52, 85
5, 402960, Note_on_c, 0, 52, 0
5, 402960, Note_on_c, 0, 51, 84
5, 403080, Note_on_c, 0, 51, 0
5, 403080, Note_on_c, 0, 52, 83
5, 403200, Note_on_c, 0, 52, 0
5, 403200, Note_on_c, 0, 54, 82
5, 403320, Note_on_c, 0, 54, 0
5, 403320, Note_on_c, 0, 51, 81
5, 403440, Note_on_c, 0, 51, 0
5, 403440, Note_on_c, 0, 47, 81
5, 403560, Note_on_c, 0, 47, 0
5, 403680, Note_on_c, 0, 47, 85
5, 403800, Note_on_c, 0, 47, 0
5, 403920, Note_on_c, 0, 47, 87
5, 404040, Note_on_c, 0, 47, 0
5, 404160, Note_on_c, 0, 47, 86
5, 404280, Note_on_c, 0, 47, 0
5, 404400, Note_on_c, 0, 47, 84
5, 404520, Note_on_c, 0, 47, 0
5, 404640, Note_on_c, 0, 47, 83
5, 404760, Note_on_c, 0, 47, 0
5, 404880, Note_on_c, 0, 47, 80
5, 405120, Note_on_c, 0, 47, 0
5, 416400, Note_on_c, 0, 55, 67
5, 416870, Note_on_c, 0, 55, 0
5, 416880, Note_on_c, 0, 54, 65
5, 417350, Note_on_c, 0, 54, 0
5, 417360, Note_on_c, 0, 52, 64
5, 417830, Note_on_c, 0, 52, 0
5, 417840, Note_on_c, 0, 50, 63
5, 418300, Note_on_c, 0, 50, 0
5, 418320, Note_on_c, 0, 48, 61
5, 418780, Note_on_c, 0, 48, 0
5, 418800, Note_on_c, 0, 47, 60
5, 419260, Note_on_c, 0, 47, 0
5, 419280, Note_on_c, 0, 45, 58
5, 419750, Note_on_c, 0, 45, 0
5, 419760, Note_on_c, 0, 43, 57
5, 420230, Note_on_c, 0, 43, 0
5, 420240, Note_on_c, 0, 55, 57
5, 420710, Note_on_c, 0, 55, 0
5, 420720, Note_on_c, 0, 54, 59
5, 421190, Note_on_c, 0, 54, 0
5, 421200, Note_on_c, 0, 52, 61
5, 421670, Note_on_c, 0, 52, 0
5, 421680, Note_on_c, 0, 50, 63
5, 422150, Note_on_c, 0, 50, 0
5, 422160, Note_on_c, 0, 55, 65
5, 422630, Note_on_c, 0, 55, 0
5, 422640, Note_on_c, 0, 57, 67
5, 423110, Note_on_c, 0, 57, 0
5, 423120, Note_on_c, 0, 62, 64
5, 423280, Note_on_c, 0, 69, 62
5, 423300, Note_on_c, 0, 62, 0
5, 423440, Note_on_c, 0, 69, 0
5, 423440, Note_on_c, 0, 66, 60
5, 423600, Note_on_c, 0, 66, 0
5, 423600, Note_on_c, 0, 62, 58
5, 423760, Note_on_c, 0, 62, 0
5, 423760, Note_on_c, 0, 57, 57
5, 423920, Note_on_c, 0, 57, 0
5, 423920, Note_on_c, 0, 54, 55
5, 424080, Note_on_c, 0, 54, 0
5, 424080, Note_on_c, 0, 50, 91
5, 424320, Note_on_c, 0, 50, 0
5, 424320, Note_on_c, 0, 52, 91
5, 424440, Note_on_c, 0, 52, 0
5, 424440, Note_on_c, 0, 50, 90
5, 424560, Note_on_c, 0, 50, 0
5, 424560, Note_on_c, 0, 47, 90
5, 424680, Note_on_c, 0, 47, 0
5, 424800, Note_on_c, 0, 49, 89
5, 424920, Note_on_c, 0, 49, 0
5, 425040, Note_on_c, 0, 50, 89
5, 425520, Note_on_c, 0, 50, 0
5, 425520, Note_on_c, 0, 38, 82
5, 425880, Note_on_c, 0, 38, 0
5, 425940, Note_on_c, 0, 42, 86
5, 426000, Note_on_c, 0, 42, 0
5, 426000, Note_on_c, 0, 40, 86
5, 426120, Note_on_c, 0, 40, 0
5, 426240, Note_on_c, 0, 38, 85
5, 426360, Note_on_c, 0, 38, 0
5, 426480, Note_on_c, 0, 40, 84
5, 426600, Note_on_c, 0, 40, 0
5, 426720, Note_on_c, 0, 42, 84
5, 426840, Note_on_c, 0, 42, 0
5, 426960, Note_on_c, 0, 43, 83
5, 427440, Note_on_c, 0, 43, 0
5, 427440, Note_on_c, 0, 31, 79
5, 427800, Note_on_c, 0, 31, 0
5, 427920, Note_on_c, 0, 50, 70
5, 428390, Note_on_c, 0, 50, 0
5, 428400, Note_on_c, 0, 52, 68
5, 428870, Note_on_c, 0, 52, 0
5, 428880, Note_on_c, 0, 50, 66
5, 429350, Note_on_c, 0, 50, 0
5, 429360, Note_on_c, 0, 43, 64
5, 429830, Note_on_c, 0, 43, 0
5, 429840, Note_on_c, 0, 48, 62
5, 430310, Note_on_c, 0, 48, 0
5, 430320, Note_on_c, 0, 50, 60
5, 430790, Note_on_c, 0, 50, 0
5, 430800, Note_on_c, 0, 43, 58
5, 431270, Note_on_c, 0, 43, 0
5, 431400, Note_on_c, 0, 43, 66
5, 431520, Note_on_c, 0, 43, 0
5, 431520, Note_on_c, 0, 45, 66
5, 431640, Note_on_c, 0, 45, 0
5, 431640, Note_on_c, 0, 47, 67
5, 431760, Note_on_c, 0, 47, 0
5, 431760, Note_on_c, 0, 48, 67
5, 431880, Note_on_c, 0, 48, 0
5, 431880, Note_on_c, 0, 43, 68
5, 432000, Note_on_c, 0, 43, 0
5, 432000, Note_on_c, 0, 45, 68
5, 432120, Note_on_c, 0, 45, 0
5, 432120, Note_on_c, 0, 47, 69
5, 432240, Note_on_c, 0, 47, 0
5, 432240, Note_on_c, 0, 48, 69
5, 432360, Note_on_c, 0, 48, 0
5, 432360, Note_on_c, 0, 50, 70
5, 432480, Note_on_c, 0, 50, 0
5, 432480, Note_on_c, 0, 52, 70
5, 432600, Note_on_c, 0, 52, 0
5, 432600, Note_on_c, 0, 53, 71
5, 432720, Note_on_c, 0, 53, 0
5, 432720, Note_on_c, 0, 48, 71
5, 432720, Note_on_c, 0, 55, 71
5, 432720, Note_on_c, 0, 52, 71
5, 432840, Note_on_c, 0, 52, 0
5, 432840, Note_on_c, 0, 55, 0
5, 432840, Note_on_c, 0, 48, 0
5, 432960, Note_on_c, 0, 48, 72
5, 432960, Note_on_c, 0, 52, 72
5, 432960, Note_on_c, 0, 55, 72
5, 433080, Note_on_c, 0, 55, 0
5, 433080, Note_on_c, 0, 52, 0
5, 433080, Note_on_c, 0, 48, 0
5, 433200, Note_on_c, 0, 48, 73
5, 433200, Note_on_c, 0, 52, 73
5, 433200, Note_on_c, 0, 55, 73
5, 433320, Note_on_c, 0, 55, 0
5, 433320, Note_on_c, 0, 52, 0
5, 433320, Note_on_c, 0, 48, 0
5, 433440, Note_on_c, 0, 48, 74
5, 433440, Note_on_c, 0, 55, 74
5, 433440, Note_on_c, 0, 52, 74
5, 433560, Note_on_c, 0, 52, 0
5, 433560, Note_on_c, 0, 55, 0
5, 433560, Note_on_c, 0, 48, 0
5, 433680, Note_on_c, 0, 55, 75
5, 433680, Note_on_c, 0, 48, 75
5, 433680, Note_on_c, 0, 60, 75
5, 433680, Note_on_c, 0, 52, 75
5, 433800, Note_on_c, 0, 52, 0
5, 433800, Note_on_c, 0, 55, 0
5, 433800, Note_on_c, 0, 48, 0
5, 433800, Note_on_c, 0, 60, 0
5, 433920, Note_on_c, 0, 55, 76
5, 433920, Note_on_c, 0, 52, 76
5, 433920, Note_on_c, 0, 60, 76
5, 433920, Note_on_c, 0, 48, 76
5, 434040, Note_on_c, 0, 48, 0
5, 434040, Note_on_c, 0, 55, 0
5, 434040, Note_on_c, 0, 52, 0
5, 434040, Note_on_c, 0, 60, 0
5, 434160, Note_on_c, 0, 52, 77
5, 434160, Note_on_c, 0, 55, 77
5, 434160, Note_on_c, 0, 60, 77
5, 434160, Note_on_c, 0, 48, 77
5, 434280, Note_on_c, 0, 48, 0
5, 434280, Note_on_c, 0, 52, 0
5, 434280, Note_on_c, 0, 55, 0
5, 434280, Note_on_c, 0, 60, 0
5, 434400, Note_on_c, 0, 52, 78
5, 434400, Note_on_c, 0, 55, 78
5, 434400, Note_on_c, 0, 60, 78
5, 434400, Note_on_c, 0, 48, 78
5, 434520, Note_on_c, 0, 48, 0
5, 434520, Note_on_c, 0, 52, 0
5, 434520, Note_on_c, 0, 55, 0
5, 434520, Note_on_c, 0, 60, 0
5, 434640, Note_on_c, 0, 60, 74
5, 434640, Note_on_c, 0, 57, 74
5, 434640, Note_on_c, 0, 53, 74
5, 435240, Note_on_c, 0, 53, 0
5, 435240, Note_on_c, 0, 57, 0
5, 435240, Note_on_c, 0, 60, 0
5, 435240, Note_on_c, 0, 48, 70
5, 435360, Note_on_c, 0, 48, 0
5, 435360, Note_on_c, 0, 50, 70
5, 435480, Note_on_c, 0, 50, 0
5, 435480, Note_on_c, 0, 52, 71
5, 435600, Note_on_c, 0, 52, 0
5, 435600, Note_on_c, 0, 53, 71
5, 435720, Note_on_c, 0, 53, 0
5, 435720, Note_on_c, 0, 48, 72
5, 435840, Note_on_c, 0, 48, 0
5, 435840, Note_on_c, 0, 50, 72
5, 435960, Note_on_c, 0, 50, 0
5, 435960, Note_on_c, 0, 52, 72
5, 436080, Note_on_c, 0, 52, 0
5, 436080, Note_on_c, 0, 53, 73
5, 436200, Note_on_c, 0, 53, 0
5, 436200, Note_on_c, 0, 55, 73
5, 436320, Note_on_c, 0, 55, 0
5, 436320, Note_on_c, 0, 57, 73
5, 436440, Note_on_c, 0, 57, 0
5, 436440, Note_on_c, 0, 58, 74
5, 436560, Note_on_c, 0, 58, 0
5, 436560, Note_on_c, 0, 53, 74
5, 436560, Note_on_c, 0, 60, 74
5, 436560, Note_on_c, 0, 57, 74
5, 436680, Note_on_c, 0, 57, 0
5, 436680, Note_on_c, 0, 60, 0
5, 436680, Note_on_c, 0, 53, 0
5, 436800, Note_on_c, 0, 53, 75
5, 436800, Note_on_c, 0, 60, 75
5, 436800, Note_on_c, 0, 65, 75
5, 436800, Note_on_c, 0, 57, 75
5, 436920, Note_on_c, 0, 57, 0
5, 436920, Note_on_c, 0, 53, 0
5, 436920, Note_on_c, 0, 60, 0
5, 436920, Note_on_c, 0, 65, 0
5, 437040, Note_on_c, 0, 53, 76
5, 437040, Note_on_c, 0, 60, 76
5, 437040, Note_on_c, 0, 65, 76
5, 437040, Note_on_c, 0, 57, 76
5, 437160, Note_on_c, 0, 57, 0
5, 437160, Note_on_c, 0, 53, 0
5, 437160, Note_on_c, 0, 60, 0
5, 437160, Note_on_c, 0, 65, 0
5, 437280, Note_on_c, 0, 53, 77
5, 437280, Note_on_c, 0, 60, 77
5, 437280, Note_on_c, 0, 57, 77
5, 437280, Note_on_c, 0, 65, 77
5, 437400, Note_on_c, 0, 65, 0
5, 437400, Note_on_c, 0, 53, 0
5, 437400, Note_on_c, 0, 60, 0
5, 437400, Note_on_c, 0, 57, 0
5, 437520, Note_on_c, 0, 60, 77
5, 437520, Note_on_c, 0, 65, 77
5, 437520, Note_on_c, 0, 57, 77
5, 437520, Note_on_c, 0, 53, 77
5, 437640, Note_on_c, 0, 53, 0
5, 437640, Note_on_c, 0, 60, 0
5, 437640, Note_on_c, 0, 65, 0
5, 437640, Note_on_c, 0, 57, 0
5, 437760, Note_on_c, 0, 53, 78
5, 437760, Note_on_c, 0, 60, 78
5, 437760, Note_on_c, 0, 65, 78
5, 437760, Note_on_c, 0, 57, 78
5, 437880, Note_on_c, 0, 57, 0
5, 437880, Note_on_c, 0, 53, 0
5, 437880, Note_on_c, 0, 60, 0
5, 437880, Note_on_c, 0, 65, 0
5, 438000, Note_on_c, 0, 62, 79
5, 438000, Note_on_c, 0, 59, 79
5, 438000, Note_on_c, 0, 55, 79
5, 438120, Note_on_c, 0, 55, 0
5, 438120, Note_on_c, 0, 59, 0
5, 438120, Note_on_c, 0, 62, 0
5, 438240, Note_on_c, 0, 59, 80
5, 438240, Note_on_c, 0, 62, 80
5, 438240, Note_on_c, 0, 55, 80
5, 438360, Note_on_c, 0, 55, 0
5, 438360, Note_on_c, 0, 62, 0
5, 438360, Note_on_c, 0, 59, 0
5, 438480, Note_on_c, 0, 60, 76
5, 438480, Note_on_c, 0, 48, 76
5, 439080, Note_on_c, 0, 48, 0
5, 439080, Note_on_c, 0, 60, 0
5, 439080, Note_on_c, 0, 43, 74
5, 439200, Note_on_c, 0, 43, 0
5, 439200, Note_on_c, 0, 45, 75
5, 439320, Note_on_c, 0, 45, 0
5, 439320, Note_on_c, 0, 47, 75
5, 439440, Note_on_c, 0, 47, 0
5, 439440, Note_on_c, 0, 48, 75
5, 439560, Note_on_c, 0, 48, 0
5, 439560, Note_on_c, 0, 43, 76
5, 439680, Note_on_c, 0, 43, 0
5, 439680, Note_on_c, 0, 45, 76
5, 439800, Note_on_c, 0, 45, 0
5, 439800, Note_on_c, 0, 47, 77
5, 439920, Note_on_c, 0, 47, 0
5, 439920, Note_on_c, 0, 48, 77
5, 440040, Note_on_c, 0, 48, 0
5, 440040, Note_on_c, 0, 50, 77
5, 440160, Note_on_c, 0, 50, 0
5, 440160, Note_on_c, 0, 52, 78
5, 440280, Note_on_c, 0, 52, 0
5, 440280, Note_on_c, 0, 53, 78
5, 440400, Note_on_c, 0, 53, 0
5, 440400, Note_on_c, 0, 48, 78
5, 440400, Note_on_c, 0, 52, 78
5, 440400, Note_on_c, 0, 55, 78
5, 440520, Note_on_c, 0, 55, 0
5, 440520, Note_on_c, 0, 52, 0
5, 440520, Note_on_c, 0, 48, 0
5, 440640, Note_on_c, 0, 48, 79
5, 440640, Note_on_c, 0, 55, 79
5, 440640, Note_on_c, 0, 52, 79
5, 440760, Note_on_c, 0, 52, 0
5, 440760, Note_on_c, 0, 55, 0
5, 440760, Note_on_c, 0, 48, 0
5, 440880, Note_on_c, 0, 52, 80
5, 440880, Note_on_c, 0, 55, 80
5, 440880, Note_on_c, 0, 48, 80
5, 441000, Note_on_c, 0, 48, 0
5, 441000, Note_on_c, 0, 55, 0
5, 441000, Note_on_c, 0, 52, 0
5, 441120, Note_on_c, 0, 55, 81
5, 441120, Note_on_c, 0, 48, 81
5, 441120, Note_on_c, 0, 52, 81
5, 441240, Note_on_c, 0, 52, 0
5, 441240, Note_on_c, 0, 48, 0
5, 441240, Note_on_c, 0, 55, 0
5, 441360, Note_on_c, 0, 48, 82
5, 441360, Note_on_c, 0, 55, 82
5, 441360, Note_on_c, 0, 60, 82
5, 441360, Note_on_c, 0, 52, 82
5, 441480, Note_on_c, 0, 52, 0
5, 441480, Note_on_c, 0, 48, 0
5, 441480, Note_on_c, 0, 55, 0
5, 441480, Note_on_c, 0, 60, 0
5, 441600, Note_on_c, 0, 55, 82
5, 441600, Note_on_c, 0, 52, 82
5, 441600, Note_on_c, 0, 60, 82
5, 441600, Note_on_c, 0, 48, 82
5, 441720, Note_on_c, 0, 48, 0
5, 441720, Note_on_c, 0, 55, 0
5, 441720, Note_on_c, 0, 52, 0
5, 441720, Note_on_c, 0, 60, 0
5, 441840, Note_on_c, 0, 48, 83
5, 441840, Note_on_c, 0, 55, 83
5, 441840, Note_on_c, 0, 60, 83
5, 441840, Note_on_c, 0, 52, 83
5, 441960, Note_on_c, 0, 52, 0
5, 441960, Note_on_c, 0, 48, 0
5, 441960, Note_on_c, 0, 55, 0
5, 441960, Note_on_c, 0, 60, 0
5, 442080, Note_on_c, 0, 60, 84
5, 442080, Note_on_c, 0, 55, 84
5, 442080, Note_on_c, 0, 52, 84
5, 442080, Note_on_c, 0, 48, 84
5, 442200, Note_on_c, 0, 48, 0
5, 442200, Note_on_c, 0, 60, 0
5, 442200, Note_on_c, 0, 55, 0
5, 442200, Note_on_c, 0, 52, 0
5, 442320, Note_on_c, 0, 53, 80
5, 442320, Note_on_c, 0, 57, 80
5, 442320, Note_on_c, 0, 60, 80
5, 442920, Note_on_c, 0, 60, 0
5, 442920, Note_on_c, 0, 57, 0
5, 442920, Note_on_c, 0, 53, 0
5, 442920, Note_on_c, 0, 48, 76
5, 443040, Note_on_c, 0, 48, 0
5, 443040, Note_on_c, 0, 50, 77
5, 443160, Note_on_c, 0, 50, 0
5, 443160, Note_on_c, 0, 52, 77
5, 443280, Note_on_c, 0, 52, 0
5, 443280, Note_on_c, 0, 53, 78
5, 443400, Note_on_c, 0, 53, 0
5, 443400, Note_on_c, 0, 48, 78
5, 443520, Note_on_c, 0, 48, 0
5, 443520, Note_on_c, 0, 50, 79
5, 443640, Note_on_c, 0, 50, 0
5, 443640, Note_on_c, 0, 52, 79
5, 443760, Note_on_c, 0, 52, 0
5, 443760, Note_on_c, 0, 53, 80
5, 443880, Note_on_c, 0, 53, 0
5, 443880, Note_on_c, 0, 55, 80
5, 444000, Note_on_c, 0, 55, 0
5, 444000, Note_on_c, 0, 57, 81
5, 444120, Note_on_c, 0, 57, 0
5, 444120, Note_on_c, 0, 58, 81
5, 444240, Note_on_c, 0, 58, 0
5, 444240, Note_on_c, 0, 57, 81
5, 444240, Note_on_c, 0, 60, 81
5, 444240, Note_on_c, 0, 53, 81
5, 444360, Note_on_c, 0, 53, 0
5, 444360, Note_on_c, 0, 60, 0
5, 444360, Note_on_c, 0, 57, 0
5, 444480, Note_on_c, 0, 57, 82
5, 444480, Note_on_c, 0, 65, 82
5, 444480, Note_on_c, 0, 60, 82
5, 444480, Note_on_c, 0, 53, 82
5, 444600, Note_on_c, 0, 53, 0
5, 444600, Note_on_c, 0, 57, 0
5, 444600, Note_on_c, 0, 65, 0
5, 444600, Note_on_c, 0, 60, 0
5, 444720, Note_on_c, 0, 57, 83
5, 444720, Note_on_c, 0, 65, 83
5, 444720, Note_on_c, 0, 60, 83
5, 444720, Note_on_c, 0, 53, 83
5, 444840, Note_on_c, 0, 53, 0
5, 444840, Note_on_c, 0, 57, 0
5, 444840, Note_on_c, 0, 65, 0
5, 444840, Note_on_c, 0, 60, 0
5, 444960, Note_on_c, 0, 65, 84
5, 444960, Note_on_c, 0, 57, 84
5, 444960, Note_on_c, 0, 60, 84
5, 444960, Note_on_c, 0, 53, 84
5, 445080, Note_on_c, 0, 53, 0
5, 445080, Note_on_c, 0, 65, 0
5, 445080, Note_on_c, 0, 57, 0
5, 445080, Note_on_c, 0, 60, 0
5, 445200, Note_on_c, 0, 53, 85
5, 445200, Note_on_c, 0, 57, 85
5, 445200, Note_on_c, 0, 65, 85
5, 445200, Note_on_c, 0, 60, 85
5, 445320, Note_on_c, 0, 60, 0
5, 445320, Note_on_c, 0, 53, 0
5, 445320, Note_on_c, 0, 57, 0
5, 445320, Note_on_c, 0, 65, 0
5, 445440, Note_on_c, 0, 53, 86
5, 445440, Note_on_c, 0, 57, 86
5, 445440, Note_on_c, 0, 65, 86
5, 445440, Note_on_c, 0, 60, 86
5, 445560, Note_on_c, 0, 60, 0
5, 445560, Note_on_c, 0, 53, 0
5, 445560, Note_on_c, 0, 57, 0
5, 445560, Note_on_c, 0, 65, 0
5, 445680, Note_on_c, 0, 55, 87
5, 445680, Note_on_c, 0, 59, 87
5, 445680, Note_on_c, 0, 62, 87
5, 445800, Note_on_c, 0, 62, 0
5, 445800, Note_on_c, 0, 59, 0
5, 445800, Note_on_c, 0, 55, 0
5, 445920, Note_on_c, 0, 55, 88
5, 445920, Note_on_c, 0, 62, 88
5, 445920, Note_on_c, 0, 59, 88
5, 446040, Note_on_c, 0, 59, 0
5, 446040, Note_on_c, 0, 62, 0
5, 446040, Note_on_c, 0, 55, 0
5, 446160, Note_on_c, 0, 48, 84
5, 446160, Note_on_c, 0, 60, 84
5, 446400, Note_on_c, 0, 60, 0
5, 446400, Note_on_c, 0, 48, 0
5, 447120, Note_on_c, 0, 60, 60
5, 447600, Note_on_c, 0, 60, 0
5, 447600, Note_on_c, 0, 59, 61
5, 448080, Note_on_c, 0, 59, 0
5, 448080, Note_on_c, 0, 60, 61
5, 448560, Note_on_c, 0, 60, 0
5, 448560, Note_on_c, 0, 59, 62
5, 449040, Note_on_c, 0, 59, 0
5, 449040, Note_on_c, 0, 57, 62
5, 449520, Note_on_c, 0, 57, 0
5, 449520, Note_on_c, 0, 56, 63
5, 449980, Note_on_c, 0, 56, 0
5, 450000, Note_on_c, 0, 57, 63
5, 450460, Note_on_c, 0, 57, 0
5, 450480, Note_on_c, 0, 56, 64
5, 450940, Note_on_c, 0, 56, 0
5, 450960, Note_on_c, 0, 57, 65
5, 451420, Note_on_c, 0, 57, 0
5, 451440, Note_on_c, 0, 54, 65
5, 451900, Note_on_c, 0, 54, 0
5, 451920, Note_on_c, 0, 55, 66
5, 452390, Note_on_c, 0, 55, 0
5, 452400, Note_on_c, 0, 54, 66
5, 452870, Note_on_c, 0, 54, 0
5, 452880, Note_on_c, 0, 52, 67
5, 453350, Note_on_c, 0, 52, 0
5, 453360, Note_on_c, 0, 50, 68
5, 453820, Note_on_c, 0, 50, 0
5, 453840, Note_on_c, 0, 48, 68
5, 454290, Note_on_c, 0, 48, 0
5, 454320, Note_on_c, 0, 47, 69
5, 454770, Note_on_c, 0, 47, 0
5, 454800, Note_on_c, 0, 45, 69
5, 455250, Note_on_c, 0, 45, 0
5, 455280, Note_on_c, 0, 43, 70
5, 455730, Note_on_c, 0, 43, 0
5, 455760, Note_on_c, 0, 55, 70
5, 456210, Note_on_c, 0, 55, 0
5, 456240, Note_on_c, 0, 54, 71
5, 456690, Note_on_c, 0, 54, 0
5, 456720, Note_on_c, 0, 52, 72
5, 457170, Note_on_c, 0, 52, 0
5, 457200, Note_on_c, 0, 50, 72
5, 457650, Note_on_c, 0, 50, 0
5, 457680, Note_on_c, 0, 55, 73
5, 458160, Note_on_c, 0, 55, 0
5, 458160, Note_on_c, 0, 57, 73
5, 458640, Note_on_c, 0, 57, 0
5, 458640, Note_on_c, 0, 50, 69
5, 458760, Note_on_c, 0, 54, 68
5, 458880, Note_on_c, 0, 54, 0
5, 458880, Note_on_c, 0, 50, 0
5, 458880, Note_on_c, 0, 57, 67
5, 459000, Note_on_c, 0, 57, 0
5, 459000, Note_on_c, 0, 62, 66
5, 459120, Note_on_c, 0, 62, 0
5, 459120, Note_on_c, 0, 61, 65
5, 459240, Note_on_c, 0, 61, 0
5, 459240, Note_on_c, 0, 62, 65
5, 459360, Note_on_c, 0, 62, 0
5, 459360, Note_on_c, 0, 60, 64
5, 459480, Note_on_c, 0, 60, 0
5, 459480, Note_on_c, 0, 57, 62
5, 459600, Note_on_c, 0, 57, 0
5, 459600, Note_on_c, 0, 55, 62
5, 460070, Note_on_c, 0, 55, 0
5, 460080, Note_on_c, 0, 54, 66
5, 460550, Note_on_c, 0, 54, 0
5, 460560, Note_on_c, 0, 52, 67
5, 461030, Note_on_c, 0, 52, 0
5, 461040, Note_on_c, 0, 50, 68
5, 461490, Note_on_c, 0, 50, 0
5, 461520, Note_on_c, 0, 48, 69
5, 461970, Note_on_c, 0, 48, 0
5, 462000, Note_on_c, 0, 47, 70
5, 462450, Note_on_c, 0, 47, 0
5, 462480, Note_on_c, 0, 45, 71
5, 462940, Note_on_c, 0, 45, 0
5, 462960, Note_on_c, 0, 43, 72
5, 463420, Note_on_c, 0, 43, 0
5, 463440, Note_on_c, 0, 55, 73
5, 463920, Note_on_c, 0, 55, 0
5, 463920, Note_on_c, 0, 54, 75
5, 464400, Note_on_c, 0, 54, 0
5, 464400, Note_on_c, 0, 52, 76
5, 464880, Note_on_c, 0, 52, 0
5, 464880, Note_on_c, 0, 50, 77
5, 465350, Note_on_c, 0, 50, 0
5, 465360, Note_on_c, 0, 55, 78
5, 465830, Note_on_c, 0, 55, 0
5, 465840, Note_on_c, 0, 57, 79
5, 466310, Note_on_c, 0, 57, 0
5, 466320, Note_on_c, 0, 50, 77
5, 466440, Note_on_c, 0, 54, 78
5, 466560, Note_on_c, 0, 54, 0
5, 466560, Note_on_c, 0, 57, 78
5, 466570, Note_on_c, 0, 50, 0
5, 466680, Note_on_c, 0, 57, 0
5, 466680, Note_on_c, 0, 62, 78
5, 466800, Note_on_c, 0, 62, 0
5, 466800, Note_on_c, 0, 61, 79
5, 466920, Note_on_c, 0, 61, 0
5, 466920, Note_on_c, 0, 62, 79
5, 467040, Note_on_c, 0, 62, 0
5, 467040, Note_on_c, 0, 57, 79
5, 467160, Note_on_c, 0, 57, 0
5, 467160, Note_on_c, 0, 54, 79
5, 467280, Note_on_c, 0, 54, 0
5, 467280, Note_on_c, 0, 50, 97
5, 467520, Note_on_c, 0, 50, 0
5, 467520, Note_on_c, 0, 52, 97
5, 467640, Note_on_c, 0, 52, 0
5, 467640, Note_on_c, 0, 50, 96
5, 467760, Note_on_c, 0, 50, 0
5, 467760, Note_on_c, 0, 47, 96
5, 467880, Note_on_c, 0, 47, 0
5, 468000, Note_on_c, 0, 49, 95
5, 468120, Note_on_c, 0, 49, 0
5, 468240, Note_on_c, 0, 50, 95
5, 468720, Note_on_c, 0, 50, 0
5, 468720, Note_on_c, 0, 38, 90
5, 469080, Note_on_c, 0, 38, 0
5, 469140, Note_on_c, 0, 42, 92
5, 469200, Note_on_c, 0, 42, 0
5, 469200, Note_on_c, 0, 40, 92
5, 469320, Note_on_c, 0, 40, 0
5, 469440, Note_on_c, 0, 38, 91
5, 469560, Note_on_c, 0, 38, 0
5, 469680, Note_on_c, 0, 40, 91
5, 469800, Note_on_c, 0, 40, 0
5, 469920, Note_on_c, 0, 42, 90
5, 470040, Note_on_c, 0, 42, 0
5, 470160, Note_on_c, 0, 43, 89
5, 470640, Note_on_c, 0, 43, 0
5, 470640, Note_on_c, 0, 31, 86
5, 471000, Note_on_c, 0, 31, 0
5, 471120, Note_on_c, 0, 50, 65
5, 471580, Note_on_c, 0, 50, 0
5, 471600, Note_on_c, 0, 52, 64
5, 472080, Note_on_c, 0, 52, 0
5, 472080, Note_on_c, 0, 50, 62
5, 472540, Note_on_c, 0, 50, 0
5, 472560, Note_on_c, 0, 43, 61
5, 473020, Note_on_c, 0, 43, 0
5, 473040, Note_on_c, 0, 48, 60
5, 473500, Note_on_c, 0, 48, 0
5, 473520, Note_on_c, 0, 50, 58
5, 473980, Note_on_c, 0, 50, 0
5, 474000, Note_on_c, 0, 55, 57
5, 474120, Note_on_c, 0, 62, 57
5, 474240, Note_on_c, 0, 62, 0
5, 474240, Note_on_c, 0, 55, 0
5, 474240, Note_on_c, 0, 60, 57
5, 474360, Note_on_c, 0, 60, 0
5, 474360, Note_on_c, 0, 59, 56
5, 474480, Note_on_c, 0, 59, 0
5, 474480, Note_on_c, 0, 57, 56
5, 474600, Note_on_c, 0, 57, 0
5, 474600, Note_on_c, 0, 55, 56
5, 474720, Note_on_c, 0, 55, 0
5, 474720, Note_on_c, 0, 54, 56
5, 474840, Note_on_c, 0, 54, 0
5, 474840, Note_on_c, 0, 52, 56
5, 474960, Note_on_c, 0, 52, 0
5, 474960, Note_on_c, 0, 50, 91
5, 475200, Note_on_c, 0, 50, 0
5, 475200, Note_on_c, 0, 52, 90
5, 475320, Note_on_c, 0, 52, 0
5, 475320, Note_on_c, 0, 50, 89
5, 475440, Note_on_c, 0, 50, 0
5, 475440, Note_on_c, 0, 47, 89
5, 475560, Note_on_c, 0, 47, 0
5, 475680, Note_on_c, 0, 49, 88
5, 475800, Note_on_c, 0, 49, 0
5, 475920, Note_on_c, 0, 50, 86
5, 476400, Note_on_c, 0, 50, 0
5, 476400, Note_on_c, 0, 38, 82
5, 476760, Note_on_c, 0, 38, 0
5, 476880, Note_on_c, 0, 74, 57
5, 477120, Note_on_c, 0, 74, 0
5, 477120, Note_on_c, 0, 74, 56
5, 477360, Note_on_c, 0, 74, 0
5, 477360, Note_on_c, 0, 76, 55
5, 477600, Note_on_c, 0, 76, 0
5, 477600, Note_on_c, 0, 76, 54
5, 477840, Note_on_c, 0, 76, 0
5, 477840, Note_on_c, 0, 74, 53
5, 478080, Note_on_c, 0, 74, 0
5, 478740, Note_on_c, 0, 42, 83
5, 478800, Note_on_c, 0, 42, 0
5, 478800, Note_on_c, 0, 40, 83
5, 478920, Note_on_c, 0, 40, 0
5, 479040, Note_on_c, 0, 38, 82
5, 479160, Note_on_c, 0, 38, 0
5, 479280, Note_on_c, 0, 40, 81
5, 479400, Note_on_c, 0, 40, 0
5, 479520, Note_on_c, 0, 42, 79
5, 479640, Note_on_c, 0, 42, 0
5, 479760, Note_on_c, 0, 43, 78
5, 480240, Note_on_c, 0, 43, 0
5, 480240, Note_on_c, 0, 31, 74
5, 480600, Note_on_c, 0, 31, 0
5, 480720, Note_on_c, 0, 72, 53
5, 480950, Note_on_c, 0, 72, 0
5, 480960, Note_on_c, 0, 71, 52
5, 481190, Note_on_c, 0, 71, 0
5, 481200, Note_on_c, 0, 72, 52
5, 481430, Note_on_c, 0, 72, 0
5, 481440, Note_on_c, 0, 69, 51
5, 481670, Note_on_c, 0, 69, 0
5, 481680, Note_on_c, 0, 71, 50
5, 481920, Note_on_c, 0, 71, 0
5, 482640, Note_on_c, 0, 60, 51
5, 482870, Note_on_c, 0, 60, 0
5, 482880, Note_on_c, 0, 59, 50
5, 483110, Note_on_c, 0, 59, 0
5, 483120, Note_on_c, 0, 60, 49
5, 483350, Note_on_c, 0, 60, 0
5, 483360, Note_on_c, 0, 57, 50
5, 483590, Note_on_c, 0, 57, 0
5, 483600, Note_on_c, 0, 59, 50
5, 483830, Note_on_c, 0, 59, 0
5, 483840, Note_on_c, 0, 59, 51
5, 484070, Note_on_c, 0, 59, 0
5, 484080, Note_on_c, 0, 55, 52
5, 484310, Note_on_c, 0, 55, 0
5, 484320, Note_on_c, 0, 55, 52
5, 484550, Note_on_c, 0, 55, 0
5, 484560, Note_on_c, 0, 60, 53
5, 484780, Note_on_c, 0, 60, 0
5, 484800, Note_on_c, 0, 60, 54
5, 485020, Note_on_c, 0, 60, 0
5, 485040, Note_on_c, 0, 62, 55
5, 485260, Note_on_c, 0, 62, 0
5, 485280, Note_on_c, 0, 62, 55
5, 485500, Note_on_c, 0, 62, 0
5, 485520, Note_on_c, 0, 55, 56
5, 485740, Note_on_c, 0, 55, 0
5, 485760, Note_on_c, 0, 55, 57
5, 485980, Note_on_c, 0, 55, 0
5, 486000, Note_on_c, 0, 59, 57
5, 486220, Note_on_c, 0, 59, 0
5, 486240, Note_on_c, 0, 59, 58
5, 486460, Note_on_c, 0, 59, 0
5, 486480, Note_on_c, 0, 60, 59
5, 486700, Note_on_c, 0, 60, 0
5, 486720, Note_on_c, 0, 60, 59
5, 486940, Note_on_c, 0, 60, 0
5, 486960, Note_on_c, 0, 62, 60
5, 487180, Note_on_c, 0, 62, 0
5, 487200, Note_on_c, 0, 62, 61
5, 487420, Note_on_c, 0, 62, 0
5, 487440, Note_on_c, 0, 55, 61
5, 487660, Note_on_c, 0, 55, 0
5, 487680, Note_on_c, 0, 55, 62
5, 487900, Note_on_c, 0, 55, 0
5, 487920, Note_on_c, 0, 59, 63
5, 488140, Note_on_c, 0, 59, 0
5, 488160, Note_on_c, 0, 59, 64
5, 488380, Note_on_c, 0, 59, 0
5, 488400, Note_on_c, 0, 60, 64
5, 488620, Note_on_c, 0, 60, 0
5, 488640, Note_on_c, 0, 60, 65
5, 488860, Note_on_c, 0, 60, 0
5, 488880, Note_on_c, 0, 62, 66
5, 489100, Note_on_c, 0, 62, 0
5, 489120, Note_on_c, 0, 62, 66
5, 489340, Note_on_c, 0, 62, 0
5, 489360, Note_on_c, 0, 55, 67
5, 489580, Note_on_c, 0, 55, 0
5, 489600, Note_on_c, 0, 55, 68
5, 489820, Note_on_c, 0, 55, 0
5, 489840, Note_on_c, 0, 59, 68
5, 490060, Note_on_c, 0, 59, 0
5, 490080, Note_on_c, 0, 59, 69
5, 490300, Note_on_c, 0, 59, 0
5, 490320, Note_on_c, 0, 60, 70
5, 490540, Note_on_c, 0, 60, 0
5, 490560, Note_on_c, 0, 60, 70
5, 490780, Note_on_c, 0, 60, 0
5, 490800, Note_on_c, 0, 62, 71
5, 491030, Note_on_c, 0, 62, 0
5, 491040, Note_on_c, 0, 62, 72
5, 491270, Note_on_c, 0, 62, 0
5, 491280, Note_on_c, 0, 55, 73
5, 491750, Note_on_c, 0, 55, 0
5, 491760, Note_on_c, 0, 55, 71
5, 492230, Note_on_c, 0, 55, 0
5, 492240, Note_on_c, 0, 55, 75
5, 492710, Note_on_c, 0, 55, 0
5, 492720, Note_on_c, 0, 55, 80
5, 493190, Note_on_c, 0, 55, 0
5, 493200, Note_on_c, 0, 55, 84
5, 493670, Note_on_c, 0, 55, 0
5, 493680, Note_on_c, 0, 55, 89
5, 494150, Note_on_c, 0, 55, 0
5, 494160, Note_on_c, 0, 55, 94
5, 494630, Note_on_c, 0, 55, 0
5, 494640, Note_on_c, 0, 50, 80
5, 495110, Note_on_c, 0, 50, 0
5, 495120, Note_on_c, 0, 43, 66
5, 495360, Note_on_c, 0, 43, 0
5, 495360, End_track
0, 0, End_of_file
