0, 0, Header, 1, 5, 480
1, 0, Start_track
1, 0, Title_t, "Untitled"
1, 0, Time_signature, 4, 2, 24, 8
1, 0, Key_signature, 0, "major"
1, 0, Tempo, 600000
1, 0, Marker_t, "Beethoven"
1, 960, Tempo, 810811
1, 1800, Tempo, 821918
1, 1920, Tempo, 810811
1, 1920, Marker_t, "8 Variations"
1, 2760, Tempo, 821918
1, 2880, Tempo, 810811
1, 3720, Tempo, 821918
1, 3840, Tempo, 810811
1, 3840, Marker_t, "@ Bunji Hisamori"
1, 4215, Tempo, 821918
1, 4320, Tempo, 845070
1, 4800, Tempo, 810811
1, 5520, Tempo, 821918
1, 5760, Tempo, 810811
1, 5760, Marker_t, "June  1998"
1, 6120, Tempo, 821918
1, 6480, Tempo, 845070
1, 6720, Tempo, 810811
1, 7440, Tempo, 821918
1, 7680, Tempo, 810811
1, 7680, Marker_t, "Thanks"
1, 8055, Tempo, 821918
1, 8145, Tempo, 869565
1, 8640, Tempo, 810811
1, 9480, Tempo, 845070
1, 9600, Tempo, 810811
1, 10440, Tempo, 821918
1, 10560, Tempo, 810811
1, 10920, Tempo, 821918
1, 11400, Tempo, 895522
1, 11520, Tempo, 923077
1, 12000, Tempo, 1276596
1, 12480, Tempo, 789474
1, 13320, Tempo, 810811
1, 13440, Tempo, 789474
1, 14280, Tempo, 810811
1, 14400, Tempo, 789474
1, 15240, Tempo, 810811
1, 15360, Tempo, 789474
1, 15600, Tempo, 810811
1, 15735, Tempo, 810811
1, 16035, Tempo, 869565
1, 16080, Tempo, 895522
1, 16320, Tempo, 789474
1, 17160, Tempo, 810811
1, 17280, Tempo, 789474
1, 18120, Tempo, 810811
1, 18240, Tempo, 789474
1, 19080, Tempo, 810811
1, 19200, Tempo, 789474
1, 19440, Tempo, 821918
1, 19665, Tempo, 821918
1, 19920, Tempo, 845070
1, 20040, Tempo, 869565
1, 20160, Tempo, 810811
1, 21000, Tempo, 821918
1, 21120, Tempo, 810811
1, 21585, Tempo, 821918
1, 21960, Tempo, 845070
1, 22080, Tempo, 810811
1, 22920, Tempo, 821918
1, 23040, Tempo, 810811
1, 23415, Tempo, 821918
1, 23775, Tempo, 869565
1, 24000, Tempo, 810811
1, 24840, Tempo, 821918
1, 24960, Tempo, 810811
1, 25800, Tempo, 821918
1, 25920, Tempo, 810811
1, 26280, Tempo, 821918
1, 26760, Tempo, 895522
1, 26880, Tempo, 923077
1, 27360, Tempo, 1071429
1, 27600, Tempo, 2222222
1, 27840, Tempo, 600000
1, 27840, Marker_t, "1"
1, 28680, Tempo, 612245
1, 28800, Tempo, 600000
1, 29640, Tempo, 612245
1, 29760, Tempo, 600000
1, 30600, Tempo, 612245
1, 30720, Tempo, 600000
1, 31510, Tempo, 612245
1, 31680, Tempo, 600000
1, 32520, Tempo, 612245
1, 32640, Tempo, 600000
1, 33480, Tempo, 612245
1, 33600, Tempo, 600000
1, 34440, Tempo, 612245
1, 34560, Tempo, 600000
1, 35370, Tempo, 612245
1, 35520, Tempo, 600000
1, 36360, Tempo, 612245
1, 36480, Tempo, 600000
1, 37320, Tempo, 612245
1, 37440, Tempo, 600000
1, 38280, Tempo, 612245
1, 38870, Tempo, 674157
1, 39120, Tempo, 821918
1, 39360, Tempo, 588235
1, 40200, Tempo, 652174
1, 40320, Tempo, 588235
1, 41030, Tempo, 652174
1, 41280, Tempo, 588235
1, 42120, Tempo, 652174
1, 42480, Tempo, 705882
1, 42890, Tempo, 600000
1, 43080, Tempo, 612245
1, 43200, Tempo, 600000
1, 44040, Tempo, 612245
1, 44160, Tempo, 600000
1, 45000, Tempo, 612245
1, 45120, Tempo, 600000
1, 45960, Tempo, 612245
1, 46080, Tempo, 600000
1, 46770, Tempo, 612245
1, 46880, Tempo, 638298
1, 47040, Tempo, 600000
1, 47880, Tempo, 612245
1, 48000, Tempo, 600000
1, 48840, Tempo, 612245
1, 48960, Tempo, 600000
1, 49800, Tempo, 612245
1, 49920, Tempo, 600000
1, 50760, Tempo, 625000
1, 50880, Tempo, 600000
1, 51720, Tempo, 612245
1, 51840, Tempo, 600000
1, 52680, Tempo, 612245
1, 52800, Tempo, 600000
1, 53640, Tempo, 612245
1, 54240, Tempo, 923077
1, 54720, Tempo, 500000
1, 54720, Marker_t, "2"
1, 58440, Tempo, 508475
1, 58560, Tempo, 500000
1, 62280, Tempo, 508475
1, 62400, Tempo, 500000
1, 65640, Tempo, 508475
1, 65770, Tempo, 625000
1, 66000, Tempo, 500000
1, 67080, Tempo, 508475
1, 67200, Tempo, 500000
1, 68040, Tempo, 508475
1, 68160, Tempo, 500000
1, 69000, Tempo, 508475
1, 69120, Tempo, 500000
1, 69620, Tempo, 517241
1, 69840, Tempo, 500000
1, 70920, Tempo, 508475
1, 71040, Tempo, 500000
1, 71880, Tempo, 508475
1, 72000, Tempo, 500000
1, 72840, Tempo, 508475
1, 72960, Tempo, 500000
1, 73800, Tempo, 508475
1, 73920, Tempo, 500000
1, 77640, Tempo, 508475
1, 77760, Tempo, 500000
1, 80520, Tempo, 508475
1, 80880, Tempo, 517241
1, 81000, Tempo, 540541
1, 81135, Tempo, 1818182
1, 81600, Tempo, 810811
1, 81600, Marker_t, "3"
1, 82440, Tempo, 821918
1, 82560, Tempo, 810811
1, 84360, Tempo, 821918
1, 84480, Tempo, 810811
1, 85210, Tempo, 821918
1, 85440, Tempo, 810811
1, 86280, Tempo, 821918
1, 86400, Tempo, 810811
1, 87240, Tempo, 821918
1, 87360, Tempo, 810811
1, 88200, Tempo, 821918
1, 88320, Tempo, 810811
1, 89160, Tempo, 821918
1, 89280, Tempo, 810811
1, 90120, Tempo, 821918
1, 90240, Tempo, 810811
1, 90360, Tempo, 821918
1, 90480, Tempo, 810811
1, 91080, Tempo, 821918
1, 91200, Tempo, 810811
1, 92040, Tempo, 821918
1, 92160, Tempo, 869565
1, 92640, Tempo, 1333333
1, 92880, Tempo, 810811
1, 93050, Tempo, 821918
1, 93120, Tempo, 810811
1, 93960, Tempo, 821918
1, 94080, Tempo, 810811
1, 95880, Tempo, 821918
1, 96740, Tempo, 869565
1, 96960, Tempo, 810811
1, 97800, Tempo, 821918
1, 97920, Tempo, 810811
1, 99720, Tempo, 821918
1, 99840, Tempo, 810811
1, 100560, Tempo, 821918
1, 100680, Tempo, 1000000
1, 100800, Tempo, 810811
1, 101640, Tempo, 821918
1, 101760, Tempo, 810811
1, 103560, Tempo, 821918
1, 103680, Tempo, 810811
1, 104520, Tempo, 821918
1, 104640, Tempo, 810811
1, 105480, Tempo, 821918
1, 105600, Tempo, 810811
1, 107280, Tempo, 821918
1, 107400, Tempo, 845070
1, 107520, Tempo, 923077
1, 108000, Tempo, 2400000
1, 108240, Marker_t, "4"
1, 108375, Tempo, 454545
1, 109200, Tempo, 461538
1, 109320, Tempo, 454545
1, 110160, Tempo, 461538
1, 110400, Tempo, 454545
1, 111240, Tempo, 461538
1, 111840, Tempo, 472441
1, 112200, Tempo, 454545
1, 113040, Tempo, 461538
1, 113160, Tempo, 454545
1, 113985, Tempo, 461538
1, 114240, Tempo, 454545
1, 115080, Tempo, 461538
1, 115665, Tempo, 472441
1, 116040, Tempo, 454545
1, 116880, Tempo, 461538
1, 117000, Tempo, 454545
1, 117840, Tempo, 461538
1, 118080, Tempo, 454545
1, 118920, Tempo, 461538
1, 119505, Tempo, 540541
1, 119760, Tempo, 461538
1, 119880, Tempo, 447761
1, 120840, Tempo, 454545
1, 120960, Tempo, 447761
1, 121800, Tempo, 454545
1, 121920, Tempo, 447761
1, 122760, Tempo, 454545
1, 122880, Tempo, 447761
1, 123720, Tempo, 454545
1, 123840, Tempo, 447761
1, 124680, Tempo, 454545
1, 124800, Tempo, 447761
1, 125640, Tempo, 454545
1, 126360, Tempo, 461538
1, 126480, Tempo, 465116
1, 126720, Tempo, 461538
1, 127080, Tempo, 472441
1, 127320, Tempo, 480000
1, 127440, Tempo, 526316
1, 127560, Tempo, 1578947
1, 127620, Tempo, 454545
1, 128400, Tempo, 461538
1, 128520, Tempo, 454545
1, 129360, Tempo, 461538
1, 129600, Tempo, 454545
1, 130440, Tempo, 461538
1, 131025, Tempo, 465116
1, 131400, Tempo, 454545
1, 132240, Tempo, 461538
1, 132360, Tempo, 454545
1, 133215, Tempo, 461538
1, 133440, Tempo, 454545
1, 133800, Tempo, 461538
1, 133920, Tempo, 472441
1, 134160, Tempo, 560748
1, 134400, Tempo, 750000
1, 134880, Tempo, 1071429
1, 135120, Tempo, 2400000
1, 135240, Tempo, 659341
1, 135360, Tempo, 705882
1, 135360, Marker_t, "5"
1, 136200, Tempo, 722892
1, 136320, Tempo, 705882
1, 138120, Tempo, 722892
1, 138240, Tempo, 705882
1, 138960, Tempo, 722892
1, 139080, Tempo, 750000
1, 139200, Tempo, 705882
1, 140040, Tempo, 722892
1, 140160, Tempo, 705882
1, 141000, Tempo, 722892
1, 141120, Tempo, 705882
1, 141960, Tempo, 722892
1, 142080, Tempo, 705882
1, 142800, Tempo, 722892
1, 142920, Tempo, 750000
1, 143040, Tempo, 705882
1, 143880, Tempo, 722892
1, 144000, Tempo, 705882
1, 144780, Tempo, 722892
1, 144960, Tempo, 705882
1, 145320, Tempo, 722892
1, 145440, Tempo, 705882
1, 145680, Tempo, 750000
1, 145920, Tempo, 789474
1, 146400, Tempo, 789474
1, 146640, Tempo, 967742
1, 146895, Tempo, 689655
1, 147720, Tempo, 705882
1, 147840, Tempo, 689655
1, 149640, Tempo, 705882
1, 149760, Tempo, 689655
1, 151560, Tempo, 705882
1, 151680, Tempo, 689655
1, 152400, Tempo, 705882
1, 152520, Tempo, 731707
1, 152640, Tempo, 689655
1, 153480, Tempo, 705882
1, 153600, Tempo, 689655
1, 154320, Tempo, 705882
1, 154440, Tempo, 731707
1, 154560, Tempo, 705882
1, 155400, Tempo, 722892
1, 155520, Tempo, 705882
1, 157320, Tempo, 722892
1, 157440, Tempo, 705882
1, 158160, Tempo, 722892
1, 158280, Tempo, 750000
1, 158400, Tempo, 705882
1, 159240, Tempo, 722892
1, 159360, Tempo, 705882
1, 160200, Tempo, 722892
1, 160320, Tempo, 705882
1, 161040, Tempo, 722892
1, 161160, Tempo, 750000
1, 161280, Tempo, 769231
1, 161520, Tempo, 789474
1, 161640, Tempo, 1034483
1, 161760, Tempo, 2222222
1, 162240, Tempo, 652174
1, 162240, Marker_t, "6"
1, 163080, Tempo, 659341
1, 163200, Tempo, 652174
1, 164040, Tempo, 659341
1, 164160, Tempo, 652174
1, 165000, Tempo, 659341
1, 165120, Tempo, 652174
1, 165790, Tempo, 674157
1, 166080, Tempo, 652174
1, 166920, Tempo, 659341
1, 167040, Tempo, 652174
1, 167880, Tempo, 659341
1, 168000, Tempo, 652174
1, 168840, Tempo, 659341
1, 168960, Tempo, 652174
1, 169800, Tempo, 659341
1, 169920, Tempo, 652174
1, 170760, Tempo, 659341
1, 170880, Tempo, 652174
1, 171720, Tempo, 659341
1, 171840, Tempo, 652174
1, 172680, Tempo, 659341
1, 172800, Tempo, 652174
1, 173260, Tempo, 1034483
1, 173760, Tempo, 638298
1, 174600, Tempo, 652174
1, 174720, Tempo, 638298
1, 175560, Tempo, 652174
1, 175680, Tempo, 638298
1, 176520, Tempo, 652174
1, 176640, Tempo, 638298
1, 177480, Tempo, 652174
1, 177600, Tempo, 638298
1, 178440, Tempo, 652174
1, 178560, Tempo, 638298
1, 179400, Tempo, 652174
1, 179520, Tempo, 638298
1, 180360, Tempo, 652174
1, 180720, Tempo, 659341
1, 180960, Tempo, 652174
1, 181260, Tempo, 659341
1, 181320, Tempo, 689655
1, 181440, Tempo, 652174
1, 182280, Tempo, 659341
1, 182400, Tempo, 652174
1, 183240, Tempo, 659341
1, 183360, Tempo, 652174
1, 184200, Tempo, 659341
1, 184320, Tempo, 652174
1, 185000, Tempo, 674157
1, 185280, Tempo, 652174
1, 186120, Tempo, 659341
1, 186240, Tempo, 652174
1, 187080, Tempo, 659341
1, 187200, Tempo, 652174
1, 188040, Tempo, 659341
1, 188280, Tempo, 674157
1, 188520, Tempo, 689655
1, 188580, Tempo, 731707
1, 188640, Tempo, 845070
1, 188770, Tempo, 2400000
1, 189120, Tempo, 526316
1, 189120, Marker_t, "7"
1, 189960, Tempo, 535714
1, 190080, Tempo, 526316
1, 190920, Tempo, 535714
1, 191040, Tempo, 526316
1, 191880, Tempo, 535714
1, 192000, Tempo, 526316
1, 192720, Tempo, 526316
1, 192840, Tempo, 540541
1, 192960, Tempo, 526316
1, 193800, Tempo, 535714
1, 193920, Tempo, 526316
1, 194640, Tempo, 535714
1, 194880, Tempo, 526316
1, 195720, Tempo, 535714
1, 195840, Tempo, 526316
1, 196560, Tempo, 540541
1, 196800, Tempo, 526316
1, 197640, Tempo, 535714
1, 197760, Tempo, 526316
1, 198600, Tempo, 535714
1, 198720, Tempo, 526316
1, 199560, Tempo, 535714
1, 199680, Tempo, 540541
1, 200160, Tempo, 659341
1, 200640, Tempo, 517241
1, 201480, Tempo, 526316
1, 201600, Tempo, 517241
1, 202440, Tempo, 526316
1, 202560, Tempo, 517241
1, 203400, Tempo, 526316
1, 203520, Tempo, 517241
1, 204360, Tempo, 526316
1, 204480, Tempo, 517241
1, 205320, Tempo, 526316
1, 205440, Tempo, 517241
1, 206280, Tempo, 526316
1, 206400, Tempo, 517241
1, 207120, Tempo, 526316
1, 207240, Tempo, 550459
1, 208320, Tempo, 810811
1, 208800, Tempo, 869565
1, 209640, Tempo, 895522
1, 209760, Tempo, 869565
1, 210120, Tempo, 895522
1, 210240, Tempo, 869565
1, 211080, Tempo, 895522
1, 211200, Tempo, 869565
1, 211560, Tempo, 895522
1, 211680, Tempo, 869565
1, 212040, Tempo, 895522
1, 212160, Tempo, 869565
1, 212520, Tempo, 895522
1, 212640, Tempo, 869565
1, 213000, Tempo, 923077
1, 213315, Tempo, 952381
1, 213600, Tempo, 1176471
1, 214080, Tempo, 526316
1, 214200, Tempo, 517241
1, 215040, Tempo, 526316
1, 215160, Tempo, 517241
1, 216000, Tempo, 526316
1, 216120, Tempo, 517241
1, 216960, Tempo, 526316
1, 217080, Tempo, 517241
1, 217800, Tempo, 526316
1, 217920, Tempo, 517241
1, 218760, Tempo, 526316
1, 218880, Tempo, 517241
1, 219720, Tempo, 526316
1, 219840, Tempo, 517241
1, 220200, Tempo, 526316
1, 220680, Tempo, 535714
1, 220800, Tempo, 560748
1, 221040, Tempo, 582524
1, 221260, Tempo, 2727273
1, 221760, Tempo, 869565
1, 221760, Marker_t, "8"
1, 222600, Tempo, 895522
1, 222720, Tempo, 869565
1, 223560, Tempo, 895522
1, 223680, Tempo, 869565
1, 224520, Tempo, 895522
1, 224640, Tempo, 869565
1, 225360, Tempo, 895522
1, 225480, Tempo, 1034483
1, 225600, Tempo, 869565
1, 226440, Tempo, 895522
1, 226560, Tempo, 869565
1, 227400, Tempo, 923077
1, 227520, Tempo, 869565
1, 228360, Tempo, 895522
1, 228480, Tempo, 869565
1, 229200, Tempo, 895522
1, 229320, Tempo, 1000000
1, 229440, Tempo, 869565
1, 230280, Tempo, 895522
1, 230400, Tempo, 869565
1, 231240, Tempo, 895522
1, 231360, Tempo, 869565
1, 231720, Tempo, 895522
1, 232200, Tempo, 952381
1, 232680, Tempo, 967742
1, 232800, Tempo, 1034483
1, 233280, Tempo, 869565
1, 234120, Tempo, 895522
1, 234240, Tempo, 869565
1, 235080, Tempo, 895522
1, 235200, Tempo, 869565
1, 236040, Tempo, 895522
1, 236160, Tempo, 869565
1, 236880, Tempo, 895522
1, 237000, Tempo, 952381
1, 237120, Tempo, 869565
1, 237960, Tempo, 895522
1, 238080, Tempo, 869565
1, 238920, Tempo, 895522
1, 239040, Tempo, 869565
1, 239880, Tempo, 895522
1, 240000, Tempo, 869565
1, 240720, Tempo, 895522
1, 240840, Tempo, 952381
1, 240960, Tempo, 869565
1, 241800, Tempo, 895522
1, 241920, Tempo, 869565
1, 242760, Tempo, 895522
1, 242880, Tempo, 869565
1, 243720, Tempo, 895522
1, 243840, Tempo, 869565
1, 244560, Tempo, 895522
1, 244680, Tempo, 1000000
1, 244800, Tempo, 869565
1, 245640, Tempo, 895522
1, 245760, Tempo, 869565
1, 246600, Tempo, 895522
1, 247080, Tempo, 923077
1, 247560, Tempo, 1000000
1, 248130, Tempo, 1000000
1, 248640, Tempo, 500000
1, 249120, Tempo, 845070
1, 249480, Tempo, 869565
1, 249600, Tempo, 845070
1, 251400, Tempo, 869565
1, 251520, Tempo, 845070
1, 252360, Tempo, 869565
1, 252480, Tempo, 845070
1, 253320, Tempo, 869565
1, 253440, Tempo, 845070
1, 255240, Tempo, 869565
1, 255320, Tempo, 895522
1, 255360, Tempo, 869565
1, 256200, Tempo, 895522
1, 256440, Tempo, 845070
1, 257040, Tempo, 869565
1, 257160, Tempo, 923077
1, 257280, Tempo, 845070
1, 259080, Tempo, 869565
1, 259200, Tempo, 845070
1, 260040, Tempo, 869565
1, 260160, Tempo, 845070
1, 261000, Tempo, 869565
1, 261850, Tempo, 895522
1, 262550, Tempo, 923077
1, 262870, Tempo, 952381
1, 262920, Tempo, 1111111
1, 263040, Tempo, 967742
1, 263280, Tempo, 1000000
1, 263400, Tempo, 1071429
1, 264960, Tempo, 845070
1, 265320, Tempo, 869565
1, 265380, Tempo, 923077
1, 265440, Tempo, 845070
1, 265687, Tempo, 895522
1, 265920, Tempo, 895522
1, 266512, Tempo, 923077
1, 266640, Tempo, 1000000
1, 266880, Tempo, 952381
1, 267350, Tempo, 967742
1, 270720, Tempo, 869565
1, 270840, Tempo, 845070
1, 271980, Tempo, 869565
1, 272040, Tempo, 923077
1, 272400, Tempo, 1363636
1, 272640, Tempo, 869565
1, 272760, Tempo, 845070
1, 273660, Tempo, 869565
1, 273720, Tempo, 923077
1, 274080, Tempo, 1111111
1, 274560, Tempo, 845070
1, 275160, Tempo, 1111111
1, 275280, Tempo, 869565
1, 276060, Tempo, 895522
1, 276120, Tempo, 923077
1, 276240, Tempo, 1000000
1, 276480, Time_signature, 6, 3, 12, 8
1, 276480, Marker_t, "Allegro  6/8"
1, 276840, Tempo, 1111111
1, 276960, Tempo, 2500000
1, 277200, Tempo, 425532
1, 279960, Tempo, 428571
1, 280080, Tempo, 425532
1, 280680, Tempo, 428571
1, 280800, Tempo, 425532
1, 282120, Tempo, 428571
1, 282240, Tempo, 425532
1, 282840, Tempo, 428571
1, 282960, Tempo, 425532
1, 285000, Tempo, 428571
1, 285360, Tempo, 434783
1, 285600, Tempo, 454545
1, 285840, Tempo, 419580
1, 288600, Tempo, 425532
1, 288720, Tempo, 419580
1, 290760, Tempo, 425532
1, 291360, Tempo, 434783
1, 291480, Tempo, 447761
1, 291600, Tempo, 425532
1, 294360, Tempo, 428571
1, 294480, Tempo, 425532
1, 297240, Tempo, 428571
1, 297360, Tempo, 425532
1, 299400, Tempo, 434783
1, 299520, Time_signature, 4, 2, 24, 8
1, 299880, Marker_t, "Adagio  4/4"
1, 300000, Tempo, 2727273
1, 300480, Tempo, 1071429
1, 301380, Tempo, 1111111
1, 301440, Tempo, 1071429
1, 301860, Tempo, 1111111
1, 301920, Tempo, 1071429
1, 303780, Tempo, 1111111
1, 303840, Tempo, 1071429
1, 304200, Tempo, 1132075
1, 304310, Tempo, 1071429
1, 304740, Tempo, 1111111
1, 304800, Tempo, 1071429
1, 306180, Tempo, 1111111
1, 306240, Tempo, 1071429
1, 306660, Tempo, 1111111
1, 306720, Tempo, 1071429
1, 307140, Tempo, 1111111
1, 307200, Tempo, 1071429
1, 307620, Tempo, 1111111
1, 307680, Tempo, 1071429
1, 309540, Tempo, 1111111
1, 309600, Tempo, 1071429
1, 310500, Tempo, 1111111
1, 310560, Tempo, 1071429
1, 311460, Tempo, 1111111
1, 311520, Tempo, 1071429
1, 312420, Tempo, 1111111
1, 312480, Tempo, 1071429
1, 314640, Tempo, 1111111
1, 314820, Tempo, 1224490
1, 314880, Tempo, 1333333
1, 314940, Tempo, 1276596
1, 315780, Tempo, 1333333
1, 315890, Tempo, 1276596
1, 316590, Tempo, 1132075
1, 316680, Tempo, 1935484
1, 316800, Time_signature, 6, 3, 12, 8
1, 316800, Tempo, 425532
1, 316800, Marker_t, "Allrgro  6/8"
1, 317520, Tempo, 425532
1, 320280, Tempo, 428571
1, 320400, Tempo, 425532
1, 322440, Tempo, 428571
1, 322560, Time_signature, 4, 2, 24, 8
1, 323040, Tempo, 1176471
1, 323050, Marker_t, "Adagio  4/4 "
1, 323520, Tempo, 1071429
1, 324420, Tempo, 1111111
1, 324480, Tempo, 1071429
1, 325320, Tempo, 1111111
1, 325430, Tempo, 1071429
1, 326340, Tempo, 1111111
1, 326400, Tempo, 1071429
1, 327230, Tempo, 1111111
1, 327360, Tempo, 1071429
1, 328200, Tempo, 1111111
1, 328320, Tempo, 1071429
1, 329220, Tempo, 1111111
1, 329280, Tempo, 1071429
1, 330180, Tempo, 1111111
1, 330240, Tempo, 1071429
1, 331380, Tempo, 1111111
1, 331440, Tempo, 1071429
1, 332580, Tempo, 1111111
1, 332640, Tempo, 1071429
1, 333300, Tempo, 1111111
1, 333360, Tempo, 1071429
1, 333780, Tempo, 1111111
1, 333840, Tempo, 1071429
1, 334020, Tempo, 1111111
1, 334080, Tempo, 1071429
1, 334960, Tempo, 1132075
1, 335090, Tempo, 1071429
1, 335700, Tempo, 1132075
1, 335740, Tempo, 1304348
1, 335890, Tempo, 3750000
1, 336000, Tempo, 500000
1, 337800, Tempo, 508475
1, 337920, Tempo, 500000
1, 339720, Tempo, 508475
1, 340680, Tempo, 517241
1, 341640, Tempo, 535714
1, 342600, Tempo, 560748
1, 343200, Tempo, 1176471
1, 343680, Time_signature, 6, 3, 12, 8
1, 343680, Tempo, 372671
1, 343680, Marker_t, "Presto  6/8"
1, 347160, Tempo, 377358
1, 347280, Tempo, 372671
1, 350040, Tempo, 377358
1, 350160, Tempo, 372671
1, 352800, Tempo, 377358
1, 352920, Tempo, 384615
1, 353040, Tempo, 372671
1, 355800, Tempo, 377358
1, 355920, Tempo, 372671
1, 356520, Tempo, 377358
1, 356640, Tempo, 372671
1, 357960, Tempo, 377358
1, 358080, Tempo, 372671
1, 362280, Tempo, 377358
1, 362400, Tempo, 372671
1, 363720, Tempo, 377358
1, 363840, Tempo, 372671
1, 366600, Tempo, 377358
1, 366720, Tempo, 372671
1, 369480, Tempo, 377358
1, 369600, Tempo, 372671
1, 373920, Tempo, 384615
1, 374640, Tempo, 372671
1, 378960, Tempo, 384615
1, 379440, Tempo, 540541
1, 379680, Tempo, 1132075
1, 381120, Tempo, 425532
1, 382110, Tempo, 600000
1, 382110, End_track
2, 0, Start_track
2, 0, Title_t, "Beethoven"
2, 0, Control_c, 0, 0, 0
2, 0, Control_c, 0, 7, 115
2, 0, Control_c, 0, 10, 82
2, 0, Control_c, 0, 91, 91
2, 0, Control_c, 0, 93, 28
2, 0, Pitch_bend_c, 0, 8192
2, 0, Control_c, 0, 1, 0
2, 0, Control_c, 0, 64, 0
2, 1, Control_c, 0, 32, 0
2, 1, Program_c, 0, 0
2, 480, Control_c, 0, 64, 0
2, 960, Note_on_c, 0, 76, 57
2, 1320, Note_on_c, 0, 76, 0
2, 1440, Note_on_c, 0, 76, 60
2, 1800, Note_on_c, 0, 76, 0
2, 1920, Note_on_c, 0, 74, 64
2, 2280, Note_on_c, 0, 74, 0
2, 2400, Note_on_c, 0, 74, 59
2, 2760, Note_on_c, 0, 74, 0
2, 2880, Note_on_c, 0, 76, 58
2, 3120, Note_on_c, 0, 76, 0
2, 3120, Note_on_c, 0, 77, 60
2, 3360, Note_on_c, 0, 77, 0
2, 3360, Note_on_c, 0, 78, 61
2, 3600, Note_on_c, 0, 78, 0
2, 3600, Note_on_c, 0, 79, 63
2, 3840, Note_on_c, 0, 79, 0
2, 3840, Note_on_c, 0, 74, 65
2, 4200, Note_on_c, 0, 74, 0
2, 4320, Note_on_c, 0, 74, 59
2, 4680, Note_on_c, 0, 74, 0
2, 4800, Note_on_c, 0, 76, 63
2, 5160, Note_on_c, 0, 76, 0
2, 5280, Note_on_c, 0, 76, 66
2, 5640, Note_on_c, 0, 76, 0
2, 5760, Note_on_c, 0, 79, 68
2, 6240, Note_on_c, 0, 79, 0
2, 6240, Note_on_c, 0, 77, 58
2, 6432, Note_on_c, 0, 77, 0
2, 6720, Note_on_c, 0, 76, 60
2, 6960, Note_on_c, 0, 76, 0
2, 6960, Note_on_c, 0, 74, 61
2, 7200, Note_on_c, 0, 74, 0
2, 7200, Note_on_c, 0, 73, 63
2, 7440, Note_on_c, 0, 73, 0
2, 7440, Note_on_c, 0, 74, 64
2, 7680, Note_on_c, 0, 74, 0
2, 7680, Note_on_c, 0, 77, 66
2, 8160, Note_on_c, 0, 77, 0
2, 8160, Note_on_c, 0, 76, 56
2, 8352, Note_on_c, 0, 76, 0
2, 8640, Note_on_c, 0, 79, 62
2, 9000, Note_on_c, 0, 79, 0
2, 9000, Note_on_c, 0, 76, 64
2, 9120, Note_on_c, 0, 76, 0
2, 9120, Note_on_c, 0, 79, 65
2, 9480, Note_on_c, 0, 79, 0
2, 9480, Note_on_c, 0, 76, 67
2, 9600, Note_on_c, 0, 76, 0
2, 9600, Note_on_c, 0, 76, 70
2, 9840, Note_on_c, 0, 76, 0
2, 9840, Note_on_c, 0, 74, 69
2, 10080, Note_on_c, 0, 74, 0
2, 10080, Note_on_c, 0, 77, 67
2, 10320, Note_on_c, 0, 77, 0
2, 10320, Note_on_c, 0, 74, 66
2, 10560, Note_on_c, 0, 74, 0
2, 10560, Note_on_c, 0, 74, 65
2, 10800, Note_on_c, 0, 74, 0
2, 10800, Note_on_c, 0, 72, 63
2, 10992, Note_on_c, 0, 72, 0
2, 11040, Note_on_c, 0, 72, 62
2, 11280, Note_on_c, 0, 72, 0
2, 11280, Note_on_c, 0, 71, 60
2, 11472, Note_on_c, 0, 71, 0
2, 11520, Note_on_c, 0, 74, 59
2, 12000, Note_on_c, 0, 74, 0
2, 12000, Note_on_c, 0, 72, 49
2, 12192, Note_on_c, 0, 72, 0
2, 12480, Note_on_c, 0, 75, 57
2, 12840, Note_on_c, 0, 75, 0
2, 12960, Note_on_c, 0, 75, 60
2, 13320, Note_on_c, 0, 75, 0
2, 13440, Note_on_c, 0, 74, 64
2, 13800, Note_on_c, 0, 74, 0
2, 13920, Note_on_c, 0, 74, 59
2, 14280, Note_on_c, 0, 74, 0
2, 14340, Note_on_c, 0, 77, 58
2, 14400, Note_on_c, 0, 77, 0
2, 14400, Note_on_c, 0, 75, 58
2, 14640, Note_on_c, 0, 75, 0
2, 14640, Note_on_c, 0, 74, 59
2, 14880, Note_on_c, 0, 74, 0
2, 14880, Note_on_c, 0, 75, 61
2, 15120, Note_on_c, 0, 75, 0
2, 15120, Note_on_c, 0, 79, 62
2, 15360, Note_on_c, 0, 79, 0
2, 15360, Note_on_c, 0, 74, 64
2, 15720, Note_on_c, 0, 74, 0
2, 16320, Note_on_c, 0, 75, 61
2, 16680, Note_on_c, 0, 75, 0
2, 16800, Note_on_c, 0, 75, 64
2, 17160, Note_on_c, 0, 75, 0
2, 17280, Note_on_c, 0, 74, 68
2, 17640, Note_on_c, 0, 74, 0
2, 17760, Note_on_c, 0, 74, 64
2, 18120, Note_on_c, 0, 74, 0
2, 18180, Note_on_c, 0, 77, 60
2, 18240, Note_on_c, 0, 77, 0
2, 18240, Note_on_c, 0, 75, 61
2, 18480, Note_on_c, 0, 75, 0
2, 18480, Note_on_c, 0, 74, 63
2, 18720, Note_on_c, 0, 74, 0
2, 18720, Note_on_c, 0, 75, 64
2, 18960, Note_on_c, 0, 75, 0
2, 18960, Note_on_c, 0, 79, 66
2, 19200, Note_on_c, 0, 79, 0
2, 19200, Note_on_c, 0, 74, 70
2, 19920, Note_on_c, 0, 74, 0
2, 19920, Note_on_c, 0, 74, 66
2, 20040, Note_on_c, 0, 74, 0
2, 20040, Note_on_c, 0, 75, 65
2, 20160, Note_on_c, 0, 75, 0
2, 20160, Note_on_c, 0, 76, 66
2, 20520, Note_on_c, 0, 76, 0
2, 20640, Note_on_c, 0, 76, 70
2, 21000, Note_on_c, 0, 76, 0
2, 21120, Note_on_c, 0, 74, 74
2, 21480, Note_on_c, 0, 74, 0
2, 21600, Note_on_c, 0, 74, 72
2, 21960, Note_on_c, 0, 74, 0
2, 22080, Note_on_c, 0, 76, 71
2, 22320, Note_on_c, 0, 76, 0
2, 22320, Note_on_c, 0, 77, 72
2, 22560, Note_on_c, 0, 77, 0
2, 22560, Note_on_c, 0, 78, 74
2, 22800, Note_on_c, 0, 78, 0
2, 22800, Note_on_c, 0, 79, 76
2, 23040, Note_on_c, 0, 79, 0
2, 23040, Note_on_c, 0, 74, 77
2, 23400, Note_on_c, 0, 74, 0
2, 23520, Note_on_c, 0, 74, 76
2, 23880, Note_on_c, 0, 74, 0
2, 24000, Note_on_c, 0, 79, 82
2, 24360, Note_on_c, 0, 79, 0
2, 24360, Note_on_c, 0, 76, 83
2, 24480, Note_on_c, 0, 76, 0
2, 24480, Note_on_c, 0, 79, 87
2, 24840, Note_on_c, 0, 79, 0
2, 24840, Note_on_c, 0, 76, 86
2, 24960, Note_on_c, 0, 76, 0
2, 24960, Note_on_c, 0, 76, 87
2, 25200, Note_on_c, 0, 76, 0
2, 25200, Note_on_c, 0, 74, 86
2, 25440, Note_on_c, 0, 74, 0
2, 25440, Note_on_c, 0, 77, 84
2, 25680, Note_on_c, 0, 77, 0
2, 25680, Note_on_c, 0, 74, 83
2, 25920, Note_on_c, 0, 74, 0
2, 25920, Note_on_c, 0, 74, 81
2, 26160, Note_on_c, 0, 74, 0
2, 26160, Note_on_c, 0, 72, 79
2, 26400, Note_on_c, 0, 72, 0
2, 26400, Note_on_c, 0, 72, 77
2, 26640, Note_on_c, 0, 72, 0
2, 26640, Note_on_c, 0, 71, 75
2, 26880, Note_on_c, 0, 71, 0
2, 26880, Note_on_c, 0, 74, 73
2, 27360, Note_on_c, 0, 74, 0
2, 27360, Note_on_c, 0, 72, 63
2, 27552, Note_on_c, 0, 72, 0
2, 27840, Control_c, 0, 64, 0
2, 27840, Note_on_c, 0, 76, 57
2, 27944, Note_on_c, 0, 76, 0
2, 28000, Note_on_c, 0, 72, 58
2, 28104, Note_on_c, 0, 72, 0
2, 28160, Note_on_c, 0, 76, 59
2, 28264, Note_on_c, 0, 76, 0
2, 28320, Note_on_c, 0, 67, 61
2, 28424, Note_on_c, 0, 67, 0
2, 28480, Note_on_c, 0, 76, 62
2, 28584, Note_on_c, 0, 76, 0
2, 28640, Note_on_c, 0, 72, 63
2, 28744, Note_on_c, 0, 72, 0
2, 28800, Note_on_c, 0, 73, 64
2, 28904, Note_on_c, 0, 73, 0
2, 28960, Note_on_c, 0, 74, 62
2, 29064, Note_on_c, 0, 74, 0
2, 29120, Note_on_c, 0, 71, 60
2, 29224, Note_on_c, 0, 71, 0
2, 29280, Note_on_c, 0, 74, 59
2, 29384, Note_on_c, 0, 74, 0
2, 29440, Note_on_c, 0, 67, 58
2, 29544, Note_on_c, 0, 67, 0
2, 29600, Note_on_c, 0, 74, 57
2, 29704, Note_on_c, 0, 74, 0
2, 29760, Note_on_c, 0, 76, 58
2, 29864, Note_on_c, 0, 76, 0
2, 29920, Note_on_c, 0, 72, 59
2, 30024, Note_on_c, 0, 72, 0
2, 30080, Note_on_c, 0, 77, 60
2, 30184, Note_on_c, 0, 77, 0
2, 30240, Note_on_c, 0, 78, 62
2, 30344, Note_on_c, 0, 78, 0
2, 30400, Note_on_c, 0, 72, 63
2, 30504, Note_on_c, 0, 72, 0
2, 30560, Note_on_c, 0, 79, 65
2, 30664, Note_on_c, 0, 79, 0
2, 30720, Note_on_c, 0, 73, 67
2, 30824, Note_on_c, 0, 73, 0
2, 30880, Note_on_c, 0, 70, 65
2, 30984, Note_on_c, 0, 70, 0
2, 31040, Note_on_c, 0, 74, 64
2, 31144, Note_on_c, 0, 74, 0
2, 31200, Note_on_c, 0, 71, 62
2, 31304, Note_on_c, 0, 71, 0
2, 31360, Note_on_c, 0, 74, 61
2, 31464, Note_on_c, 0, 74, 0
2, 31520, Note_on_c, 0, 67, 60
2, 31624, Note_on_c, 0, 67, 0
2, 31680, Note_on_c, 0, 76, 59
2, 31784, Note_on_c, 0, 76, 0
2, 31840, Note_on_c, 0, 72, 61
2, 31944, Note_on_c, 0, 72, 0
2, 32000, Note_on_c, 0, 76, 62
2, 32104, Note_on_c, 0, 76, 0
2, 32160, Note_on_c, 0, 70, 64
2, 32264, Note_on_c, 0, 70, 0
2, 32320, Note_on_c, 0, 76, 65
2, 32424, Note_on_c, 0, 76, 0
2, 32480, Note_on_c, 0, 69, 67
2, 32584, Note_on_c, 0, 69, 0
2, 32640, Note_on_c, 0, 79, 70
2, 32744, Note_on_c, 0, 79, 0
2, 32800, Note_on_c, 0, 69, 68
2, 32904, Note_on_c, 0, 69, 0
2, 32960, Note_on_c, 0, 77, 66
2, 33064, Note_on_c, 0, 77, 0
2, 33120, Note_on_c, 0, 68, 64
2, 33224, Note_on_c, 0, 68, 0
2, 33280, Note_on_c, 0, 77, 63
2, 33384, Note_on_c, 0, 77, 0
2, 33440, Note_on_c, 0, 69, 61
2, 33544, Note_on_c, 0, 69, 0
2, 33600, Note_on_c, 0, 73, 59
2, 33704, Note_on_c, 0, 73, 0
2, 33760, Note_on_c, 0, 74, 60
2, 33864, Note_on_c, 0, 74, 0
2, 33920, Note_on_c, 0, 68, 61
2, 34024, Note_on_c, 0, 68, 0
2, 34080, Note_on_c, 0, 74, 62
2, 34184, Note_on_c, 0, 74, 0
2, 34240, Note_on_c, 0, 67, 64
2, 34344, Note_on_c, 0, 67, 0
2, 34400, Note_on_c, 0, 74, 65
2, 34504, Note_on_c, 0, 74, 0
2, 34560, Note_on_c, 0, 77, 66
2, 34664, Note_on_c, 0, 77, 0
2, 34720, Note_on_c, 0, 67, 65
2, 34824, Note_on_c, 0, 67, 0
2, 34880, Note_on_c, 0, 75, 64
2, 34984, Note_on_c, 0, 75, 0
2, 35040, Note_on_c, 0, 76, 63
2, 35144, Note_on_c, 0, 76, 0
2, 35200, Note_on_c, 0, 67, 62
2, 35304, Note_on_c, 0, 67, 0
2, 35360, Note_on_c, 0, 76, 61
2, 35464, Note_on_c, 0, 76, 0
2, 35520, Note_on_c, 0, 79, 63
2, 35624, Note_on_c, 0, 79, 0
2, 35680, Note_on_c, 0, 72, 65
2, 35784, Note_on_c, 0, 72, 0
2, 35840, Note_on_c, 0, 79, 67
2, 35944, Note_on_c, 0, 79, 0
2, 36000, Note_on_c, 0, 70, 69
2, 36104, Note_on_c, 0, 70, 0
2, 36160, Note_on_c, 0, 79, 71
2, 36264, Note_on_c, 0, 79, 0
2, 36320, Note_on_c, 0, 69, 73
2, 36424, Note_on_c, 0, 69, 0
2, 36480, Note_on_c, 0, 76, 75
2, 36584, Note_on_c, 0, 76, 0
2, 36640, Note_on_c, 0, 69, 73
2, 36744, Note_on_c, 0, 69, 0
2, 36800, Note_on_c, 0, 74, 72
2, 36904, Note_on_c, 0, 74, 0
2, 36960, Note_on_c, 0, 68, 71
2, 37064, Note_on_c, 0, 68, 0
2, 37120, Note_on_c, 0, 77, 69
2, 37224, Note_on_c, 0, 77, 0
2, 37280, Note_on_c, 0, 74, 68
2, 37384, Note_on_c, 0, 74, 0
2, 37440, Note_on_c, 0, 67, 67
2, 37544, Note_on_c, 0, 67, 0
2, 37600, Note_on_c, 0, 74, 66
2, 37704, Note_on_c, 0, 74, 0
2, 37760, Note_on_c, 0, 72, 64
2, 37864, Note_on_c, 0, 72, 0
2, 37920, Note_on_c, 0, 65, 63
2, 38024, Note_on_c, 0, 65, 0
2, 38080, Note_on_c, 0, 72, 62
2, 38184, Note_on_c, 0, 72, 0
2, 38240, Note_on_c, 0, 71, 61
2, 38344, Note_on_c, 0, 71, 0
2, 38400, Note_on_c, 0, 74, 62
2, 38504, Note_on_c, 0, 74, 0
2, 38560, Note_on_c, 0, 64, 59
2, 38664, Note_on_c, 0, 64, 0
2, 38720, Note_on_c, 0, 72, 57
2, 38824, Note_on_c, 0, 72, 0
2, 39360, Note_on_c, 0, 63, 64
2, 40320, Note_on_c, 0, 63, 0
2, 40320, Note_on_c, 0, 62, 72
2, 41280, Note_on_c, 0, 62, 0
2, 41280, Note_on_c, 0, 63, 61
2, 42240, Note_on_c, 0, 63, 0
2, 42240, Note_on_c, 0, 62, 67
2, 42720, Note_on_c, 0, 62, 0
2, 42880, Note_on_c, 0, 79, 57
2, 43040, Note_on_c, 0, 79, 0
2, 43040, Note_on_c, 0, 77, 59
2, 43144, Note_on_c, 0, 77, 0
2, 43200, Note_on_c, 0, 75, 60
2, 43304, Note_on_c, 0, 75, 0
2, 43360, Note_on_c, 0, 72, 61
2, 43464, Note_on_c, 0, 72, 0
2, 43520, Note_on_c, 0, 66, 62
2, 43624, Note_on_c, 0, 66, 0
2, 43680, Note_on_c, 0, 67, 64
2, 43784, Note_on_c, 0, 67, 0
2, 43840, Note_on_c, 0, 72, 65
2, 43944, Note_on_c, 0, 72, 0
2, 44000, Note_on_c, 0, 75, 66
2, 44104, Note_on_c, 0, 75, 0
2, 44160, Note_on_c, 0, 74, 68
2, 44264, Note_on_c, 0, 74, 0
2, 44320, Note_on_c, 0, 71, 67
2, 44424, Note_on_c, 0, 71, 0
2, 44480, Note_on_c, 0, 66, 66
2, 44584, Note_on_c, 0, 66, 0
2, 44640, Note_on_c, 0, 67, 64
2, 44744, Note_on_c, 0, 67, 0
2, 44800, Note_on_c, 0, 71, 63
2, 44904, Note_on_c, 0, 71, 0
2, 44960, Note_on_c, 0, 74, 61
2, 45064, Note_on_c, 0, 74, 0
2, 45120, Note_on_c, 0, 75, 61
2, 45224, Note_on_c, 0, 75, 0
2, 45280, Note_on_c, 0, 72, 63
2, 45384, Note_on_c, 0, 72, 0
2, 45440, Note_on_c, 0, 66, 65
2, 45544, Note_on_c, 0, 66, 0
2, 45600, Note_on_c, 0, 67, 66
2, 45704, Note_on_c, 0, 67, 0
2, 45760, Note_on_c, 0, 72, 68
2, 45864, Note_on_c, 0, 72, 0
2, 45920, Note_on_c, 0, 75, 70
2, 46024, Note_on_c, 0, 75, 0
2, 46080, Note_on_c, 0, 74, 73
2, 46184, Note_on_c, 0, 74, 0
2, 46240, Note_on_c, 0, 67, 71
2, 46344, Note_on_c, 0, 67, 0
2, 46400, Note_on_c, 0, 73, 70
2, 46504, Note_on_c, 0, 73, 0
2, 46560, Note_on_c, 0, 74, 69
2, 46664, Note_on_c, 0, 74, 0
2, 46720, Note_on_c, 0, 79, 68
2, 46880, Note_on_c, 0, 79, 0
2, 46880, Note_on_c, 0, 77, 66
2, 46984, Note_on_c, 0, 77, 0
2, 47040, Note_on_c, 0, 76, 66
2, 47144, Note_on_c, 0, 76, 0
2, 47200, Note_on_c, 0, 72, 67
2, 47304, Note_on_c, 0, 72, 0
2, 47360, Note_on_c, 0, 76, 69
2, 47464, Note_on_c, 0, 76, 0
2, 47520, Note_on_c, 0, 67, 71
2, 47624, Note_on_c, 0, 67, 0
2, 47680, Note_on_c, 0, 76, 72
2, 47784, Note_on_c, 0, 76, 0
2, 47840, Note_on_c, 0, 72, 74
2, 47944, Note_on_c, 0, 72, 0
2, 48000, Note_on_c, 0, 73, 76
2, 48104, Note_on_c, 0, 73, 0
2, 48160, Note_on_c, 0, 74, 75
2, 48264, Note_on_c, 0, 74, 0
2, 48320, Note_on_c, 0, 71, 73
2, 48424, Note_on_c, 0, 71, 0
2, 48480, Note_on_c, 0, 74, 72
2, 48584, Note_on_c, 0, 74, 0
2, 48640, Note_on_c, 0, 67, 70
2, 48744, Note_on_c, 0, 67, 0
2, 48800, Note_on_c, 0, 74, 68
2, 48904, Note_on_c, 0, 74, 0
2, 48960, Note_on_c, 0, 76, 70
2, 49064, Note_on_c, 0, 76, 0
2, 49120, Note_on_c, 0, 72, 71
2, 49224, Note_on_c, 0, 72, 0
2, 49280, Note_on_c, 0, 77, 73
2, 49384, Note_on_c, 0, 77, 0
2, 49440, Note_on_c, 0, 78, 75
2, 49544, Note_on_c, 0, 78, 0
2, 49600, Note_on_c, 0, 72, 76
2, 49704, Note_on_c, 0, 72, 0
2, 49760, Note_on_c, 0, 79, 78
2, 49864, Note_on_c, 0, 79, 0
2, 49920, Note_on_c, 0, 73, 80
2, 50024, Note_on_c, 0, 73, 0
2, 50080, Note_on_c, 0, 70, 79
2, 50184, Note_on_c, 0, 70, 0
2, 50240, Note_on_c, 0, 74, 78
2, 50344, Note_on_c, 0, 74, 0
2, 50400, Note_on_c, 0, 71, 77
2, 50504, Note_on_c, 0, 71, 0
2, 50560, Note_on_c, 0, 74, 75
2, 50664, Note_on_c, 0, 74, 0
2, 50720, Note_on_c, 0, 67, 74
2, 50824, Note_on_c, 0, 67, 0
2, 50880, Note_on_c, 0, 76, 78
2, 50984, Note_on_c, 0, 76, 0
2, 51040, Note_on_c, 0, 72, 80
2, 51144, Note_on_c, 0, 72, 0
2, 51200, Note_on_c, 0, 79, 83
2, 51304, Note_on_c, 0, 79, 0
2, 51360, Note_on_c, 0, 70, 85
2, 51464, Note_on_c, 0, 70, 0
2, 51520, Note_on_c, 0, 79, 87
2, 51624, Note_on_c, 0, 79, 0
2, 51680, Note_on_c, 0, 69, 89
2, 51784, Note_on_c, 0, 69, 0
2, 51840, Note_on_c, 0, 79, 95
2, 51944, Note_on_c, 0, 79, 0
2, 52000, Note_on_c, 0, 69, 93
2, 52104, Note_on_c, 0, 69, 0
2, 52160, Note_on_c, 0, 77, 91
2, 52264, Note_on_c, 0, 77, 0
2, 52320, Note_on_c, 0, 76, 89
2, 52424, Note_on_c, 0, 76, 0
2, 52480, Note_on_c, 0, 69, 87
2, 52584, Note_on_c, 0, 69, 0
2, 52640, Note_on_c, 0, 74, 85
2, 52744, Note_on_c, 0, 74, 0
2, 52800, Note_on_c, 0, 68, 84
2, 52904, Note_on_c, 0, 68, 0
2, 52960, Note_on_c, 0, 72, 82
2, 53064, Note_on_c, 0, 72, 0
2, 53120, Note_on_c, 0, 67, 80
2, 53224, Note_on_c, 0, 67, 0
2, 53280, Note_on_c, 0, 72, 78
2, 53384, Note_on_c, 0, 72, 0
2, 53440, Note_on_c, 0, 65, 76
2, 53544, Note_on_c, 0, 65, 0
2, 53600, Note_on_c, 0, 71, 75
2, 53704, Note_on_c, 0, 71, 0
2, 53760, Note_on_c, 0, 74, 73
2, 53864, Note_on_c, 0, 74, 0
2, 53920, Note_on_c, 0, 64, 71
2, 54024, Note_on_c, 0, 64, 0
2, 54080, Note_on_c, 0, 72, 69
2, 54184, Note_on_c, 0, 72, 0
2, 54720, Control_c, 0, 64, 0
2, 56640, Note_on_c, 0, 88, 101
2, 56760, Note_on_c, 0, 88, 0
2, 56760, Note_on_c, 0, 86, 102
2, 56838, Note_on_c, 0, 86, 0
2, 56880, Note_on_c, 0, 84, 102
2, 56958, Note_on_c, 0, 84, 0
2, 57000, Note_on_c, 0, 83, 103
2, 57078, Note_on_c, 0, 83, 0
2, 57120, Note_on_c, 0, 81, 104
2, 57198, Note_on_c, 0, 81, 0
2, 57240, Note_on_c, 0, 79, 105
2, 57318, Note_on_c, 0, 79, 0
2, 57360, Note_on_c, 0, 77, 106
2, 57438, Note_on_c, 0, 77, 0
2, 57480, Note_on_c, 0, 76, 106
2, 57558, Note_on_c, 0, 76, 0
2, 57600, Note_on_c, 0, 79, 109
2, 57720, Note_on_c, 0, 79, 0
2, 57720, Note_on_c, 0, 77, 105
2, 57840, Note_on_c, 0, 77, 0
2, 57840, Note_on_c, 0, 76, 101
2, 57960, Note_on_c, 0, 76, 0
2, 57960, Note_on_c, 0, 77, 97
2, 58080, Note_on_c, 0, 77, 0
2, 58080, Note_on_c, 0, 59, 93
2, 58080, Note_on_c, 0, 74, 93
2, 58200, Note_on_c, 0, 59, 0
2, 58200, Note_on_c, 0, 62, 89
2, 58320, Note_on_c, 0, 62, 0
2, 58320, Note_on_c, 0, 74, 0
2, 58320, Note_on_c, 0, 55, 86
2, 58440, Note_on_c, 0, 55, 0
2, 58440, Note_on_c, 0, 59, 82
2, 58560, Note_on_c, 0, 59, 0
2, 58560, Note_on_c, 0, 60, 65
2, 58680, Note_on_c, 0, 60, 0
2, 58680, Note_on_c, 0, 55, 66
2, 58800, Note_on_c, 0, 55, 0
2, 58800, Note_on_c, 0, 64, 67
2, 58920, Note_on_c, 0, 64, 0
2, 58920, Note_on_c, 0, 60, 67
2, 59040, Note_on_c, 0, 60, 0
2, 59040, Note_on_c, 0, 67, 68
2, 59160, Note_on_c, 0, 67, 0
2, 59160, Note_on_c, 0, 64, 69
2, 59280, Note_on_c, 0, 64, 0
2, 59280, Note_on_c, 0, 60, 70
2, 59400, Note_on_c, 0, 60, 0
2, 59400, Note_on_c, 0, 55, 71
2, 59520, Note_on_c, 0, 55, 0
2, 59520, Note_on_c, 0, 56, 72
2, 59640, Note_on_c, 0, 56, 0
2, 59640, Note_on_c, 0, 57, 71
2, 59760, Note_on_c, 0, 57, 0
2, 59760, Note_on_c, 0, 59, 69
2, 59880, Note_on_c, 0, 59, 0
2, 59880, Note_on_c, 0, 60, 68
2, 60000, Note_on_c, 0, 60, 0
2, 60000, Note_on_c, 0, 62, 66
2, 60120, Note_on_c, 0, 62, 0
2, 60120, Note_on_c, 0, 64, 65
2, 60240, Note_on_c, 0, 64, 0
2, 60240, Note_on_c, 0, 65, 64
2, 60360, Note_on_c, 0, 65, 0
2, 60360, Note_on_c, 0, 62, 62
2, 60480, Note_on_c, 0, 62, 0
2, 60480, Note_on_c, 0, 60, 61
2, 60600, Note_on_c, 0, 60, 0
2, 60600, Note_on_c, 0, 59, 60
2, 60720, Note_on_c, 0, 59, 0
2, 60720, Note_on_c, 0, 62, 61
2, 60840, Note_on_c, 0, 62, 0
2, 60840, Note_on_c, 0, 59, 62
2, 60960, Note_on_c, 0, 59, 0
2, 60960, Note_on_c, 0, 62, 63
2, 61080, Note_on_c, 0, 62, 0
2, 61080, Note_on_c, 0, 59, 64
2, 61200, Note_on_c, 0, 59, 0
2, 61200, Note_on_c, 0, 55, 64
2, 61320, Note_on_c, 0, 55, 0
2, 61320, Note_on_c, 0, 53, 65
2, 61440, Note_on_c, 0, 53, 0
2, 61440, Note_on_c, 0, 52, 68
2, 61518, Note_on_c, 0, 52, 0
2, 61560, Note_on_c, 0, 55, 67
2, 61680, Note_on_c, 0, 55, 0
2, 61680, Note_on_c, 0, 53, 66
2, 61800, Note_on_c, 0, 53, 0
2, 61800, Note_on_c, 0, 57, 66
2, 61920, Note_on_c, 0, 57, 0
2, 61920, Note_on_c, 0, 55, 65
2, 61998, Note_on_c, 0, 55, 0
2, 62040, Note_on_c, 0, 60, 64
2, 62160, Note_on_c, 0, 60, 0
2, 62160, Note_on_c, 0, 59, 63
2, 62280, Note_on_c, 0, 59, 0
2, 62280, Note_on_c, 0, 62, 62
2, 62400, Note_on_c, 0, 62, 0
2, 62400, Note_on_c, 0, 60, 62
2, 62478, Note_on_c, 0, 60, 0
2, 62520, Note_on_c, 0, 64, 63
2, 62640, Note_on_c, 0, 64, 0
2, 62640, Note_on_c, 0, 62, 65
2, 62760, Note_on_c, 0, 62, 0
2, 62760, Note_on_c, 0, 65, 67
2, 62880, Note_on_c, 0, 65, 0
2, 62880, Note_on_c, 0, 64, 68
2, 63000, Note_on_c, 0, 64, 0
2, 63000, Note_on_c, 0, 67, 70
2, 63078, Note_on_c, 0, 67, 0
2, 63120, Note_on_c, 0, 64, 72
2, 63198, Note_on_c, 0, 64, 0
2, 63240, Note_on_c, 0, 61, 74
2, 63318, Note_on_c, 0, 61, 0
2, 63360, Note_on_c, 0, 62, 78
2, 63438, Note_on_c, 0, 62, 0
2, 63480, Note_on_c, 0, 65, 77
2, 63600, Note_on_c, 0, 65, 0
2, 63600, Note_on_c, 0, 64, 76
2, 63720, Note_on_c, 0, 64, 0
2, 63720, Note_on_c, 0, 67, 74
2, 63840, Note_on_c, 0, 67, 0
2, 63840, Note_on_c, 0, 65, 73
2, 63960, Note_on_c, 0, 65, 0
2, 63960, Note_on_c, 0, 69, 72
2, 64038, Note_on_c, 0, 69, 0
2, 64080, Note_on_c, 0, 65, 71
2, 64158, Note_on_c, 0, 65, 0
2, 64200, Note_on_c, 0, 64, 70
2, 64278, Note_on_c, 0, 64, 0
2, 64320, Note_on_c, 0, 62, 69
2, 64398, Note_on_c, 0, 62, 0
2, 64440, Note_on_c, 0, 60, 68
2, 64518, Note_on_c, 0, 60, 0
2, 64560, Note_on_c, 0, 59, 67
2, 64638, Note_on_c, 0, 59, 0
2, 64680, Note_on_c, 0, 57, 66
2, 64758, Note_on_c, 0, 57, 0
2, 64800, Note_on_c, 0, 55, 64
2, 64878, Note_on_c, 0, 55, 0
2, 64920, Note_on_c, 0, 53, 63
2, 64998, Note_on_c, 0, 53, 0
2, 65040, Note_on_c, 0, 52, 62
2, 65118, Note_on_c, 0, 52, 0
2, 65160, Note_on_c, 0, 50, 61
2, 65238, Note_on_c, 0, 50, 0
2, 65280, Note_on_c, 0, 48, 60
2, 65358, Note_on_c, 0, 48, 0
2, 66000, Note_on_c, 0, 67, 64
2, 66240, Note_on_c, 0, 67, 0
2, 66240, Note_on_c, 0, 75, 68
2, 66480, Note_on_c, 0, 75, 0
2, 66960, Note_on_c, 0, 75, 63
2, 67200, Note_on_c, 0, 75, 0
2, 67200, Note_on_c, 0, 74, 61
2, 67440, Note_on_c, 0, 74, 0
2, 67920, Note_on_c, 0, 83, 58
2, 68160, Note_on_c, 0, 83, 0
2, 68160, Note_on_c, 0, 84, 62
2, 68400, Note_on_c, 0, 84, 0
2, 68880, Note_on_c, 0, 87, 57
2, 69120, Note_on_c, 0, 87, 0
2, 69120, Note_on_c, 0, 86, 56
2, 69360, Note_on_c, 0, 86, 0
2, 69840, Note_on_c, 0, 55, 53
2, 70080, Note_on_c, 0, 55, 0
2, 70080, Note_on_c, 0, 63, 60
2, 70320, Note_on_c, 0, 63, 0
2, 70800, Note_on_c, 0, 63, 56
2, 71040, Note_on_c, 0, 63, 0
2, 71040, Note_on_c, 0, 62, 54
2, 71280, Note_on_c, 0, 62, 0
2, 71760, Note_on_c, 0, 71, 54
2, 72000, Note_on_c, 0, 71, 0
2, 72000, Note_on_c, 0, 72, 58
2, 72240, Note_on_c, 0, 72, 0
2, 72720, Note_on_c, 0, 63, 52
2, 72960, Note_on_c, 0, 63, 0
2, 72960, Note_on_c, 0, 62, 48
2, 73200, Note_on_c, 0, 62, 0
2, 75840, Note_on_c, 0, 88, 110
2, 75960, Note_on_c, 0, 88, 0
2, 75960, Note_on_c, 0, 86, 101
2, 76038, Note_on_c, 0, 86, 0
2, 76080, Note_on_c, 0, 84, 102
2, 76158, Note_on_c, 0, 84, 0
2, 76200, Note_on_c, 0, 83, 103
2, 76278, Note_on_c, 0, 83, 0
2, 76320, Note_on_c, 0, 81, 103
2, 76398, Note_on_c, 0, 81, 0
2, 76440, Note_on_c, 0, 79, 104
2, 76518, Note_on_c, 0, 79, 0
2, 76560, Note_on_c, 0, 77, 104
2, 76638, Note_on_c, 0, 77, 0
2, 76680, Note_on_c, 0, 76, 105
2, 76758, Note_on_c, 0, 76, 0
2, 76800, Note_on_c, 0, 77, 114
2, 76920, Note_on_c, 0, 77, 0
2, 76920, Note_on_c, 0, 76, 102
2, 76998, Note_on_c, 0, 76, 0
2, 77040, Note_on_c, 0, 74, 99
2, 77118, Note_on_c, 0, 74, 0
2, 77160, Note_on_c, 0, 72, 96
2, 77238, Note_on_c, 0, 72, 0
2, 77280, Note_on_c, 0, 71, 92
2, 77358, Note_on_c, 0, 71, 0
2, 77400, Note_on_c, 0, 69, 89
2, 77478, Note_on_c, 0, 69, 0
2, 77520, Note_on_c, 0, 67, 85
2, 77598, Note_on_c, 0, 67, 0
2, 77640, Note_on_c, 0, 65, 82
2, 77718, Note_on_c, 0, 65, 0
2, 77760, Note_on_c, 0, 64, 79
2, 77880, Note_on_c, 0, 55, 63
2, 78000, Note_on_c, 0, 55, 0
2, 78000, Note_on_c, 0, 64, 0
2, 78000, Note_on_c, 0, 64, 64
2, 78120, Note_on_c, 0, 64, 0
2, 78120, Note_on_c, 0, 60, 66
2, 78240, Note_on_c, 0, 60, 0
2, 78240, Note_on_c, 0, 67, 67
2, 78360, Note_on_c, 0, 67, 0
2, 78360, Note_on_c, 0, 64, 68
2, 78480, Note_on_c, 0, 64, 0
2, 78480, Note_on_c, 0, 60, 69
2, 78600, Note_on_c, 0, 60, 0
2, 78600, Note_on_c, 0, 55, 71
2, 78720, Note_on_c, 0, 55, 0
2, 78720, Note_on_c, 0, 56, 74
2, 78840, Note_on_c, 0, 56, 0
2, 78840, Note_on_c, 0, 57, 73
2, 78960, Note_on_c, 0, 57, 0
2, 78960, Note_on_c, 0, 59, 72
2, 79080, Note_on_c, 0, 59, 0
2, 79080, Note_on_c, 0, 60, 70
2, 79200, Note_on_c, 0, 60, 0
2, 79200, Note_on_c, 0, 62, 69
2, 79320, Note_on_c, 0, 62, 0
2, 79320, Note_on_c, 0, 64, 68
2, 79440, Note_on_c, 0, 64, 0
2, 79440, Note_on_c, 0, 65, 66
2, 79560, Note_on_c, 0, 65, 0
2, 79560, Note_on_c, 0, 62, 65
2, 79680, Note_on_c, 0, 62, 0
2, 79680, Note_on_c, 0, 60, 64
2, 79800, Note_on_c, 0, 60, 0
2, 79800, Note_on_c, 0, 64, 63
2, 79920, Note_on_c, 0, 64, 0
2, 79920, Note_on_c, 0, 60, 61
2, 80040, Note_on_c, 0, 60, 0
2, 80040, Note_on_c, 0, 55, 60
2, 80160, Note_on_c, 0, 55, 0
2, 80160, Note_on_c, 0, 53, 59
2, 80280, Note_on_c, 0, 53, 0
2, 80280, Note_on_c, 0, 55, 57
2, 80400, Note_on_c, 0, 55, 0
2, 80400, Note_on_c, 0, 53, 56
2, 80520, Note_on_c, 0, 53, 0
2, 80520, Note_on_c, 0, 50, 55
2, 80640, Note_on_c, 0, 50, 0
2, 80640, Note_on_c, 0, 48, 54
2, 80880, Note_on_c, 0, 48, 0
2, 81600, Control_c, 0, 64, 0
2, 81600, Note_on_c, 0, 64, 61
2, 81960, Note_on_c, 0, 64, 0
2, 82080, Note_on_c, 0, 64, 64
2, 82440, Note_on_c, 0, 64, 0
2, 82560, Note_on_c, 0, 62, 67
2, 82800, Note_on_c, 0, 62, 0
2, 83160, Note_on_c, 0, 62, 62
2, 83280, Note_on_c, 0, 62, 0
2, 83280, Note_on_c, 0, 63, 63
2, 83400, Note_on_c, 0, 63, 0
2, 83400, Note_on_c, 0, 64, 64
2, 83520, Note_on_c, 0, 64, 0
2, 83520, Note_on_c, 0, 65, 65
2, 83640, Note_on_c, 0, 65, 0
2, 83640, Note_on_c, 0, 66, 66
2, 83760, Note_on_c, 0, 66, 0
2, 83760, Note_on_c, 0, 67, 67
2, 83880, Note_on_c, 0, 67, 0
2, 83880, Note_on_c, 0, 68, 67
2, 84000, Note_on_c, 0, 68, 0
2, 84000, Note_on_c, 0, 69, 68
2, 84120, Note_on_c, 0, 69, 0
2, 84120, Note_on_c, 0, 67, 69
2, 84240, Note_on_c, 0, 67, 0
2, 84240, Note_on_c, 0, 65, 70
2, 84360, Note_on_c, 0, 65, 0
2, 84360, Note_on_c, 0, 64, 71
2, 84480, Note_on_c, 0, 64, 0
2, 84480, Note_on_c, 0, 64, 72
2, 84960, Note_on_c, 0, 64, 0
2, 84960, Note_on_c, 0, 62, 65
2, 85200, Note_on_c, 0, 62, 0
2, 85440, Note_on_c, 0, 64, 65
2, 85920, Note_on_c, 0, 64, 0
2, 85920, Note_on_c, 0, 64, 64
2, 85960, Note_on_c, 0, 64, 0
2, 85960, Note_on_c, 0, 65, 64
2, 86000, Note_on_c, 0, 65, 0
2, 86000, Note_on_c, 0, 64, 65
2, 86040, Note_on_c, 0, 64, 0
2, 86040, Note_on_c, 0, 62, 66
2, 86100, Note_on_c, 0, 62, 0
2, 86100, Note_on_c, 0, 64, 67
2, 86160, Note_on_c, 0, 64, 0
2, 86160, Note_on_c, 0, 65, 68
2, 86280, Note_on_c, 0, 65, 0
2, 86280, Note_on_c, 0, 67, 70
2, 86400, Note_on_c, 0, 67, 0
2, 86400, Note_on_c, 0, 67, 72
2, 86880, Note_on_c, 0, 67, 0
2, 86880, Note_on_c, 0, 65, 66
2, 87120, Note_on_c, 0, 65, 0
2, 87360, Note_on_c, 0, 64, 62
2, 87480, Note_on_c, 0, 64, 0
2, 87480, Note_on_c, 0, 62, 63
2, 87600, Note_on_c, 0, 62, 0
2, 87600, Note_on_c, 0, 61, 64
2, 87720, Note_on_c, 0, 61, 0
2, 87720, Note_on_c, 0, 62, 65
2, 87840, Note_on_c, 0, 62, 0
2, 87840, Note_on_c, 0, 61, 66
2, 87960, Note_on_c, 0, 61, 0
2, 87960, Note_on_c, 0, 62, 67
2, 88080, Note_on_c, 0, 62, 0
2, 88080, Note_on_c, 0, 64, 68
2, 88200, Note_on_c, 0, 64, 0
2, 88200, Note_on_c, 0, 62, 68
2, 88320, Note_on_c, 0, 62, 0
2, 88320, Note_on_c, 0, 65, 69
2, 88800, Note_on_c, 0, 65, 0
2, 88800, Note_on_c, 0, 64, 65
2, 89040, Note_on_c, 0, 64, 0
2, 89280, Note_on_c, 0, 67, 66
2, 89640, Note_on_c, 0, 67, 0
2, 89640, Note_on_c, 0, 64, 70
2, 89760, Note_on_c, 0, 64, 0
2, 89760, Note_on_c, 0, 67, 71
2, 90120, Note_on_c, 0, 67, 0
2, 90120, Note_on_c, 0, 64, 76
2, 90240, Note_on_c, 0, 64, 0
2, 90240, Note_on_c, 0, 64, 77
2, 90360, Note_on_c, 0, 64, 0
2, 90360, Note_on_c, 0, 62, 74
2, 90480, Note_on_c, 0, 62, 0
2, 90480, Note_on_c, 0, 69, 78
2, 90600, Note_on_c, 0, 69, 0
2, 90600, Note_on_c, 0, 68, 77
2, 90720, Note_on_c, 0, 68, 0
2, 90720, Note_on_c, 0, 67, 76
2, 90840, Note_on_c, 0, 67, 0
2, 90840, Note_on_c, 0, 65, 75
2, 90960, Note_on_c, 0, 65, 0
2, 90960, Note_on_c, 0, 64, 74
2, 91080, Note_on_c, 0, 64, 0
2, 91080, Note_on_c, 0, 62, 73
2, 91200, Note_on_c, 0, 62, 0
2, 91200, Note_on_c, 0, 62, 72
2, 91320, Note_on_c, 0, 62, 0
2, 91320, Note_on_c, 0, 60, 71
2, 91440, Note_on_c, 0, 60, 0
2, 91440, Note_on_c, 0, 64, 70
2, 91560, Note_on_c, 0, 64, 0
2, 91560, Note_on_c, 0, 60, 69
2, 91680, Note_on_c, 0, 60, 0
2, 91680, Note_on_c, 0, 60, 68
2, 91800, Note_on_c, 0, 60, 0
2, 91800, Note_on_c, 0, 59, 67
2, 91920, Note_on_c, 0, 59, 0
2, 91920, Note_on_c, 0, 62, 66
2, 92040, Note_on_c, 0, 62, 0
2, 92040, Note_on_c, 0, 59, 65
2, 92160, Note_on_c, 0, 59, 0
2, 92160, Note_on_c, 0, 62, 64
2, 92640, Note_on_c, 0, 62, 0
2, 92640, Note_on_c, 0, 60, 57
2, 92880, Note_on_c, 0, 60, 0
2, 92880, Note_on_c, 0, 79, 65
2, 93120, Note_on_c, 0, 79, 0
2, 93120, Note_on_c, 0, 87, 70
2, 93240, Note_on_c, 0, 87, 0
2, 93360, Note_on_c, 0, 87, 67
2, 93480, Note_on_c, 0, 87, 0
2, 93540, Note_on_c, 0, 89, 65
2, 93600, Note_on_c, 0, 89, 0
2, 93600, Note_on_c, 0, 87, 65
2, 93840, Note_on_c, 0, 87, 0
2, 93840, Note_on_c, 0, 86, 63
2, 93960, Note_on_c, 0, 86, 0
2, 93960, Note_on_c, 0, 84, 60
2, 94080, Note_on_c, 0, 84, 0
2, 94080, Note_on_c, 0, 83, 57
2, 94320, Note_on_c, 0, 83, 0
2, 94680, Note_on_c, 0, 79, 55
2, 94800, Note_on_c, 0, 79, 0
2, 94800, Note_on_c, 0, 81, 56
2, 94920, Note_on_c, 0, 81, 0
2, 94920, Note_on_c, 0, 83, 57
2, 95040, Note_on_c, 0, 83, 0
2, 95040, Note_on_c, 0, 84, 57
2, 95160, Note_on_c, 0, 84, 0
2, 95160, Note_on_c, 0, 86, 58
2, 95280, Note_on_c, 0, 86, 0
2, 95280, Note_on_c, 0, 87, 58
2, 95400, Note_on_c, 0, 87, 0
2, 95400, Note_on_c, 0, 86, 59
2, 95520, Note_on_c, 0, 86, 0
2, 95520, Note_on_c, 0, 89, 59
2, 95640, Note_on_c, 0, 89, 0
2, 95640, Note_on_c, 0, 87, 60
2, 95760, Note_on_c, 0, 87, 0
2, 95760, Note_on_c, 0, 86, 60
2, 95880, Note_on_c, 0, 86, 0
2, 95880, Note_on_c, 0, 84, 61
2, 96000, Note_on_c, 0, 84, 0
2, 96000, Note_on_c, 0, 84, 62
2, 96240, Note_on_c, 0, 84, 0
2, 96240, Note_on_c, 0, 83, 56
2, 96480, Note_on_c, 0, 83, 0
2, 96720, Note_on_c, 0, 55, 59
2, 96960, Note_on_c, 0, 55, 0
2, 96960, Note_on_c, 0, 63, 64
2, 97080, Note_on_c, 0, 63, 0
2, 97200, Note_on_c, 0, 63, 62
2, 97320, Note_on_c, 0, 63, 0
2, 97380, Note_on_c, 0, 65, 60
2, 97440, Note_on_c, 0, 65, 0
2, 97440, Note_on_c, 0, 63, 59
2, 97680, Note_on_c, 0, 63, 0
2, 97680, Note_on_c, 0, 62, 56
2, 97800, Note_on_c, 0, 62, 0
2, 97800, Note_on_c, 0, 60, 55
2, 97920, Note_on_c, 0, 60, 0
2, 97920, Note_on_c, 0, 59, 54
2, 98160, Note_on_c, 0, 59, 0
2, 98520, Note_on_c, 0, 67, 53
2, 98640, Note_on_c, 0, 67, 0
2, 98640, Note_on_c, 0, 69, 54
2, 98760, Note_on_c, 0, 69, 0
2, 98760, Note_on_c, 0, 71, 55
2, 98880, Note_on_c, 0, 71, 0
2, 98880, Note_on_c, 0, 72, 56
2, 99000, Note_on_c, 0, 72, 0
2, 99000, Note_on_c, 0, 74, 57
2, 99120, Note_on_c, 0, 74, 0
2, 99120, Note_on_c, 0, 75, 57
2, 99240, Note_on_c, 0, 75, 0
2, 99240, Note_on_c, 0, 74, 58
2, 99360, Note_on_c, 0, 74, 0
2, 99360, Note_on_c, 0, 77, 59
2, 99480, Note_on_c, 0, 77, 0
2, 99480, Note_on_c, 0, 75, 60
2, 99600, Note_on_c, 0, 75, 0
2, 99600, Note_on_c, 0, 74, 61
2, 99720, Note_on_c, 0, 74, 0
2, 99720, Note_on_c, 0, 72, 61
2, 99840, Note_on_c, 0, 72, 0
2, 99840, Note_on_c, 0, 72, 62
2, 99960, Note_on_c, 0, 72, 0
2, 99960, Note_on_c, 0, 71, 61
2, 100080, Note_on_c, 0, 71, 0
2, 100080, Note_on_c, 0, 69, 60
2, 100200, Note_on_c, 0, 69, 0
2, 100200, Note_on_c, 0, 67, 59
2, 100320, Note_on_c, 0, 67, 0
2, 100320, Note_on_c, 0, 66, 58
2, 100440, Note_on_c, 0, 66, 0
2, 100440, Note_on_c, 0, 67, 57
2, 100560, Note_on_c, 0, 67, 0
2, 100560, Note_on_c, 0, 65, 56
2, 100680, Note_on_c, 0, 65, 0
2, 100680, Note_on_c, 0, 67, 55
2, 100800, Note_on_c, 0, 67, 0
2, 100800, Note_on_c, 0, 64, 61
2, 101160, Note_on_c, 0, 64, 0
2, 101280, Note_on_c, 0, 64, 65
2, 101520, Note_on_c, 0, 64, 0
2, 101520, Note_on_c, 0, 65, 66
2, 101640, Note_on_c, 0, 65, 0
2, 101640, Note_on_c, 0, 64, 67
2, 101760, Note_on_c, 0, 64, 0
2, 101760, Note_on_c, 0, 62, 68
2, 102000, Note_on_c, 0, 62, 0
2, 102360, Note_on_c, 0, 62, 62
2, 102480, Note_on_c, 0, 62, 0
2, 102480, Note_on_c, 0, 63, 62
2, 102600, Note_on_c, 0, 63, 0
2, 102600, Note_on_c, 0, 64, 63
2, 102720, Note_on_c, 0, 64, 0
2, 102720, Note_on_c, 0, 65, 64
2, 102840, Note_on_c, 0, 65, 0
2, 102840, Note_on_c, 0, 66, 65
2, 102960, Note_on_c, 0, 66, 0
2, 102960, Note_on_c, 0, 67, 66
2, 103080, Note_on_c, 0, 67, 0
2, 103080, Note_on_c, 0, 68, 67
2, 103200, Note_on_c, 0, 68, 0
2, 103200, Note_on_c, 0, 69, 68
2, 103320, Note_on_c, 0, 69, 0
2, 103320, Note_on_c, 0, 67, 69
2, 103440, Note_on_c, 0, 67, 0
2, 103440, Note_on_c, 0, 65, 69
2, 103560, Note_on_c, 0, 65, 0
2, 103560, Note_on_c, 0, 64, 70
2, 103680, Note_on_c, 0, 64, 0
2, 103680, Note_on_c, 0, 64, 71
2, 103920, Note_on_c, 0, 64, 0
2, 103920, Note_on_c, 0, 62, 70
2, 104400, Note_on_c, 0, 62, 0
2, 104400, Note_on_c, 0, 63, 65
2, 104640, Note_on_c, 0, 63, 0
2, 104640, Note_on_c, 0, 64, 68
2, 105120, Note_on_c, 0, 64, 0
2, 105120, Note_on_c, 0, 72, 72
2, 105840, Note_on_c, 0, 72, 0
2, 105840, Note_on_c, 0, 65, 78
2, 105960, Note_on_c, 0, 65, 0
2, 105960, Note_on_c, 0, 67, 77
2, 106080, Note_on_c, 0, 67, 0
2, 106080, Note_on_c, 0, 68, 76
2, 106200, Note_on_c, 0, 68, 0
2, 106200, Note_on_c, 0, 69, 76
2, 106296, Note_on_c, 0, 69, 0
2, 106320, Note_on_c, 0, 64, 75
2, 106440, Note_on_c, 0, 64, 0
2, 106440, Note_on_c, 0, 65, 74
2, 106560, Note_on_c, 0, 65, 0
2, 106560, Note_on_c, 0, 66, 73
2, 106680, Note_on_c, 0, 66, 0
2, 106680, Note_on_c, 0, 67, 72
2, 106776, Note_on_c, 0, 67, 0
2, 106800, Note_on_c, 0, 63, 71
2, 106920, Note_on_c, 0, 63, 0
2, 106920, Note_on_c, 0, 64, 70
2, 107016, Note_on_c, 0, 64, 0
2, 107040, Note_on_c, 0, 67, 69
2, 107160, Note_on_c, 0, 67, 0
2, 107160, Note_on_c, 0, 65, 68
2, 107280, Note_on_c, 0, 65, 0
2, 107280, Note_on_c, 0, 64, 67
2, 107400, Note_on_c, 0, 64, 0
2, 107400, Note_on_c, 0, 62, 66
2, 107520, Note_on_c, 0, 62, 0
2, 107520, Note_on_c, 0, 62, 65
2, 108000, Note_on_c, 0, 62, 0
2, 108000, Note_on_c, 0, 60, 59
2, 108240, Note_on_c, 0, 60, 0
2, 108240, Control_c, 0, 64, 0
2, 108420, Note_on_c, 0, 87, 112
2, 108480, Note_on_c, 0, 87, 0
2, 108480, Note_on_c, 0, 88, 112
2, 108720, Note_on_c, 0, 88, 0
2, 109380, Note_on_c, 0, 85, 117
2, 109440, Note_on_c, 0, 85, 0
2, 109440, Note_on_c, 0, 86, 117
2, 109680, Note_on_c, 0, 86, 0
2, 110400, Note_on_c, 0, 76, 65
2, 110760, Note_on_c, 0, 76, 0
2, 110760, Note_on_c, 0, 77, 67
2, 110880, Note_on_c, 0, 77, 0
2, 110880, Note_on_c, 0, 79, 68
2, 111000, Note_on_c, 0, 79, 0
2, 111120, Note_on_c, 0, 79, 69
2, 111240, Note_on_c, 0, 79, 0
2, 111360, Note_on_c, 0, 77, 70
2, 111840, Note_on_c, 0, 77, 0
2, 111840, Note_on_c, 0, 74, 64
2, 112032, Note_on_c, 0, 74, 0
2, 112260, Note_on_c, 0, 87, 105
2, 112320, Note_on_c, 0, 87, 0
2, 112320, Note_on_c, 0, 88, 105
2, 112560, Note_on_c, 0, 88, 0
2, 113220, Note_on_c, 0, 88, 109
2, 113280, Note_on_c, 0, 88, 0
2, 113280, Note_on_c, 0, 89, 110
2, 113520, Note_on_c, 0, 89, 0
2, 114240, Note_on_c, 0, 74, 57
2, 114600, Note_on_c, 0, 74, 0
2, 114600, Note_on_c, 0, 76, 59
2, 114720, Note_on_c, 0, 76, 0
2, 114720, Note_on_c, 0, 77, 59
2, 114840, Note_on_c, 0, 77, 0
2, 114960, Note_on_c, 0, 77, 61
2, 115080, Note_on_c, 0, 77, 0
2, 115200, Note_on_c, 0, 75, 62
2, 115680, Note_on_c, 0, 75, 0
2, 115680, Note_on_c, 0, 76, 57
2, 115872, Note_on_c, 0, 76, 0
2, 116100, Note_on_c, 0, 84, 110
2, 116160, Note_on_c, 0, 84, 0
2, 116160, Note_on_c, 0, 85, 110
2, 116400, Note_on_c, 0, 85, 0
2, 117060, Note_on_c, 0, 85, 115
2, 117120, Note_on_c, 0, 85, 0
2, 117120, Note_on_c, 0, 86, 115
2, 117360, Note_on_c, 0, 86, 0
2, 118080, Note_on_c, 0, 71, 62
2, 118440, Note_on_c, 0, 71, 0
2, 118440, Note_on_c, 0, 72, 64
2, 118560, Note_on_c, 0, 72, 0
2, 118560, Note_on_c, 0, 74, 65
2, 118680, Note_on_c, 0, 74, 0
2, 118800, Note_on_c, 0, 74, 67
2, 118920, Note_on_c, 0, 74, 0
2, 119040, Note_on_c, 0, 71, 68
2, 119520, Note_on_c, 0, 71, 0
2, 119520, Note_on_c, 0, 72, 58
2, 119712, Note_on_c, 0, 72, 0
2, 119760, Note_on_c, 0, 79, 72
2, 119880, Note_on_c, 0, 79, 0
2, 120000, Note_on_c, 0, 87, 80
2, 120360, Note_on_c, 0, 87, 0
2, 120360, Note_on_c, 0, 86, 76
2, 120480, Note_on_c, 0, 86, 0
2, 120480, Note_on_c, 0, 84, 74
2, 120600, Note_on_c, 0, 84, 0
2, 120720, Note_on_c, 0, 84, 72
2, 120840, Note_on_c, 0, 84, 0
2, 120960, Note_on_c, 0, 83, 78
2, 121320, Note_on_c, 0, 83, 0
2, 121320, Note_on_c, 0, 81, 74
2, 121440, Note_on_c, 0, 81, 0
2, 121440, Note_on_c, 0, 79, 73
2, 121560, Note_on_c, 0, 79, 0
2, 121680, Note_on_c, 0, 79, 70
2, 121800, Note_on_c, 0, 79, 0
2, 121920, Note_on_c, 0, 79, 67
2, 122040, Note_on_c, 0, 79, 0
2, 122880, Note_on_c, 0, 71, 72
2, 123240, Note_on_c, 0, 71, 0
2, 123240, Note_on_c, 0, 69, 69
2, 123360, Note_on_c, 0, 69, 0
2, 123360, Note_on_c, 0, 67, 68
2, 123480, Note_on_c, 0, 67, 0
2, 123600, Note_on_c, 0, 67, 65
2, 123720, Note_on_c, 0, 67, 0
2, 123840, Note_on_c, 0, 67, 63
2, 123960, Note_on_c, 0, 67, 0
2, 126720, Note_on_c, 0, 86, 62
2, 127080, Note_on_c, 0, 86, 0
2, 127080, Note_on_c, 0, 88, 57
2, 127200, Note_on_c, 0, 88, 0
2, 127200, Note_on_c, 0, 89, 55
2, 127320, Note_on_c, 0, 89, 0
2, 127440, Note_on_c, 0, 89, 52
2, 127560, Note_on_c, 0, 89, 0
2, 127620, Note_on_c, 0, 87, 111
2, 127680, Note_on_c, 0, 87, 0
2, 127680, Note_on_c, 0, 88, 111
2, 127920, Note_on_c, 0, 88, 0
2, 128580, Note_on_c, 0, 85, 118
2, 128640, Note_on_c, 0, 85, 0
2, 128640, Note_on_c, 0, 86, 118
2, 128880, Note_on_c, 0, 86, 0
2, 129600, Note_on_c, 0, 76, 63
2, 129960, Note_on_c, 0, 76, 0
2, 129960, Note_on_c, 0, 77, 65
2, 130080, Note_on_c, 0, 77, 0
2, 130080, Note_on_c, 0, 79, 66
2, 130200, Note_on_c, 0, 79, 0
2, 130320, Note_on_c, 0, 79, 68
2, 130440, Note_on_c, 0, 79, 0
2, 130560, Note_on_c, 0, 77, 69
2, 131040, Note_on_c, 0, 77, 0
2, 131040, Note_on_c, 0, 74, 62
2, 131232, Note_on_c, 0, 74, 0
2, 131460, Note_on_c, 0, 87, 105
2, 131520, Note_on_c, 0, 87, 0
2, 131520, Note_on_c, 0, 88, 105
2, 131760, Note_on_c, 0, 88, 0
2, 132420, Note_on_c, 0, 88, 111
2, 132480, Note_on_c, 0, 88, 0
2, 132480, Note_on_c, 0, 89, 111
2, 132720, Note_on_c, 0, 89, 0
2, 133440, Note_on_c, 0, 83, 57
2, 133800, Note_on_c, 0, 83, 0
2, 133800, Note_on_c, 0, 84, 60
2, 133920, Note_on_c, 0, 84, 0
2, 133920, Note_on_c, 0, 86, 61
2, 134040, Note_on_c, 0, 86, 0
2, 134160, Note_on_c, 0, 86, 62
2, 134280, Note_on_c, 0, 86, 0
2, 134400, Note_on_c, 0, 83, 64
2, 134880, Note_on_c, 0, 83, 0
2, 134880, Note_on_c, 0, 84, 55
2, 135072, Note_on_c, 0, 84, 0
2, 135360, Control_c, 0, 64, 0
2, 135360, Note_on_c, 0, 76, 57
2, 135720, Note_on_c, 0, 76, 0
2, 135840, Note_on_c, 0, 76, 59
2, 136200, Note_on_c, 0, 76, 0
2, 136320, Note_on_c, 0, 74, 62
2, 137040, Note_on_c, 0, 74, 0
2, 137040, Note_on_c, 0, 74, 59
2, 137280, Note_on_c, 0, 74, 0
2, 137280, Note_on_c, 0, 76, 61
2, 137520, Note_on_c, 0, 76, 0
2, 137520, Note_on_c, 0, 77, 63
2, 137760, Note_on_c, 0, 77, 0
2, 137760, Note_on_c, 0, 78, 64
2, 138000, Note_on_c, 0, 78, 0
2, 138000, Note_on_c, 0, 79, 66
2, 138240, Note_on_c, 0, 79, 0
2, 138240, Note_on_c, 0, 74, 67
2, 138480, Note_on_c, 0, 74, 0
2, 139200, Note_on_c, 0, 76, 65
2, 139560, Note_on_c, 0, 76, 0
2, 139680, Note_on_c, 0, 76, 68
2, 140040, Note_on_c, 0, 76, 0
2, 140160, Note_on_c, 0, 79, 70
2, 140640, Note_on_c, 0, 79, 0
2, 140640, Note_on_c, 0, 77, 67
2, 140880, Note_on_c, 0, 77, 0
2, 141120, Note_on_c, 0, 76, 65
2, 141360, Note_on_c, 0, 76, 0
2, 141360, Note_on_c, 0, 74, 66
2, 141600, Note_on_c, 0, 74, 0
2, 141600, Note_on_c, 0, 73, 66
2, 141840, Note_on_c, 0, 73, 0
2, 141840, Note_on_c, 0, 74, 67
2, 142080, Note_on_c, 0, 74, 0
2, 142080, Note_on_c, 0, 77, 68
2, 142560, Note_on_c, 0, 77, 0
2, 142560, Note_on_c, 0, 76, 63
2, 142800, Note_on_c, 0, 76, 0
2, 143040, Note_on_c, 0, 79, 68
2, 143400, Note_on_c, 0, 79, 0
2, 143400, Note_on_c, 0, 76, 71
2, 143520, Note_on_c, 0, 76, 0
2, 143520, Note_on_c, 0, 79, 72
2, 143880, Note_on_c, 0, 79, 0
2, 143880, Note_on_c, 0, 76, 76
2, 144000, Note_on_c, 0, 76, 0
2, 144000, Note_on_c, 0, 76, 78
2, 144240, Note_on_c, 0, 76, 0
2, 144240, Note_on_c, 0, 74, 76
2, 144480, Note_on_c, 0, 74, 0
2, 144480, Note_on_c, 0, 77, 74
2, 144720, Note_on_c, 0, 77, 0
2, 144720, Note_on_c, 0, 74, 72
2, 144960, Note_on_c, 0, 74, 0
2, 144960, Note_on_c, 0, 74, 70
2, 145200, Note_on_c, 0, 74, 0
2, 145200, Note_on_c, 0, 72, 68
2, 145440, Note_on_c, 0, 72, 0
2, 145440, Note_on_c, 0, 72, 67
2, 145680, Note_on_c, 0, 72, 0
2, 145680, Note_on_c, 0, 71, 65
2, 145920, Note_on_c, 0, 71, 0
2, 145920, Note_on_c, 0, 74, 63
2, 146400, Note_on_c, 0, 74, 0
2, 146400, Note_on_c, 0, 72, 59
2, 146640, Note_on_c, 0, 72, 0
2, 147000, Note_on_c, 0, 72, 64
2, 147120, Note_on_c, 0, 72, 0
2, 147120, Note_on_c, 0, 71, 65
2, 147240, Note_on_c, 0, 71, 0
2, 147240, Note_on_c, 0, 72, 65
2, 147360, Note_on_c, 0, 72, 0
2, 147360, Note_on_c, 0, 74, 66
2, 147480, Note_on_c, 0, 74, 0
2, 147480, Note_on_c, 0, 72, 67
2, 147600, Note_on_c, 0, 72, 0
2, 147600, Note_on_c, 0, 71, 68
2, 147720, Note_on_c, 0, 71, 0
2, 147720, Note_on_c, 0, 72, 69
2, 147840, Note_on_c, 0, 72, 0
2, 147840, Note_on_c, 0, 74, 70
2, 147918, Note_on_c, 0, 74, 0
2, 147960, Note_on_c, 0, 67, 70
2, 148080, Note_on_c, 0, 67, 0
2, 148080, Note_on_c, 0, 69, 69
2, 148200, Note_on_c, 0, 69, 0
2, 148200, Note_on_c, 0, 70, 68
2, 148320, Note_on_c, 0, 70, 0
2, 148320, Note_on_c, 0, 71, 68
2, 148440, Note_on_c, 0, 71, 0
2, 148440, Note_on_c, 0, 72, 67
2, 148560, Note_on_c, 0, 72, 0
2, 148560, Note_on_c, 0, 73, 66
2, 148680, Note_on_c, 0, 73, 0
2, 148680, Note_on_c, 0, 74, 67
2, 148800, Note_on_c, 0, 74, 0
2, 148800, Note_on_c, 0, 75, 70
2, 149040, Note_on_c, 0, 75, 0
2, 149040, Note_on_c, 0, 77, 71
2, 149280, Note_on_c, 0, 77, 0
2, 149280, Note_on_c, 0, 78, 73
2, 149520, Note_on_c, 0, 78, 0
2, 149520, Note_on_c, 0, 79, 74
2, 149760, Note_on_c, 0, 79, 0
2, 149760, Note_on_c, 0, 74, 76
2, 150000, Note_on_c, 0, 74, 0
2, 152760, Note_on_c, 0, 72, 95
2, 152880, Note_on_c, 0, 72, 0
2, 152880, Note_on_c, 0, 71, 96
2, 153000, Note_on_c, 0, 71, 0
2, 153000, Note_on_c, 0, 72, 97
2, 153120, Note_on_c, 0, 72, 0
2, 153120, Note_on_c, 0, 74, 98
2, 153240, Note_on_c, 0, 74, 0
2, 153240, Note_on_c, 0, 72, 99
2, 153360, Note_on_c, 0, 72, 0
2, 153360, Note_on_c, 0, 71, 100
2, 153480, Note_on_c, 0, 71, 0
2, 153480, Note_on_c, 0, 72, 101
2, 153600, Note_on_c, 0, 72, 0
2, 153600, Note_on_c, 0, 74, 102
2, 153678, Note_on_c, 0, 74, 0
2, 153720, Note_on_c, 0, 67, 98
2, 153840, Note_on_c, 0, 67, 0
2, 153840, Note_on_c, 0, 69, 96
2, 153960, Note_on_c, 0, 69, 0
2, 153960, Note_on_c, 0, 70, 94
2, 154080, Note_on_c, 0, 70, 0
2, 154080, Note_on_c, 0, 71, 93
2, 154200, Note_on_c, 0, 71, 0
2, 154200, Note_on_c, 0, 72, 91
2, 154320, Note_on_c, 0, 72, 0
2, 154320, Note_on_c, 0, 73, 89
2, 154440, Note_on_c, 0, 73, 0
2, 154440, Note_on_c, 0, 74, 88
2, 154560, Note_on_c, 0, 74, 0
2, 154560, Note_on_c, 0, 76, 61
2, 154920, Note_on_c, 0, 76, 0
2, 155040, Note_on_c, 0, 76, 65
2, 155400, Note_on_c, 0, 76, 0
2, 155520, Note_on_c, 0, 74, 70
2, 156240, Note_on_c, 0, 74, 0
2, 156240, Note_on_c, 0, 74, 67
2, 156480, Note_on_c, 0, 74, 0
2, 156480, Note_on_c, 0, 76, 67
2, 156720, Note_on_c, 0, 76, 0
2, 156720, Note_on_c, 0, 77, 69
2, 156960, Note_on_c, 0, 77, 0
2, 156960, Note_on_c, 0, 78, 70
2, 157200, Note_on_c, 0, 78, 0
2, 157200, Note_on_c, 0, 79, 72
2, 157440, Note_on_c, 0, 79, 0
2, 157440, Note_on_c, 0, 74, 71
2, 157680, Note_on_c, 0, 74, 0
2, 158400, Note_on_c, 0, 79, 68
2, 158760, Note_on_c, 0, 79, 0
2, 158760, Note_on_c, 0, 76, 71
2, 158880, Note_on_c, 0, 76, 0
2, 158880, Note_on_c, 0, 79, 72
2, 159240, Note_on_c, 0, 79, 0
2, 159240, Note_on_c, 0, 76, 75
2, 159360, Note_on_c, 0, 76, 0
2, 159360, Note_on_c, 0, 76, 76
2, 159720, Note_on_c, 0, 76, 0
2, 159720, Note_on_c, 0, 74, 73
2, 159840, Note_on_c, 0, 74, 0
2, 159840, Note_on_c, 0, 77, 72
2, 159960, Note_on_c, 0, 77, 0
2, 159960, Note_on_c, 0, 74, 71
2, 160080, Note_on_c, 0, 74, 0
2, 160080, Note_on_c, 0, 77, 70
2, 160200, Note_on_c, 0, 77, 0
2, 160200, Note_on_c, 0, 74, 69
2, 160320, Note_on_c, 0, 74, 0
2, 160320, Note_on_c, 0, 74, 68
2, 160440, Note_on_c, 0, 74, 0
2, 160440, Note_on_c, 0, 72, 67
2, 160560, Note_on_c, 0, 72, 0
2, 160560, Note_on_c, 0, 74, 66
2, 160680, Note_on_c, 0, 74, 0
2, 160680, Note_on_c, 0, 72, 65
2, 160800, Note_on_c, 0, 72, 0
2, 160800, Note_on_c, 0, 72, 64
2, 160920, Note_on_c, 0, 72, 0
2, 160920, Note_on_c, 0, 71, 63
2, 161040, Note_on_c, 0, 71, 0
2, 161040, Note_on_c, 0, 72, 62
2, 161160, Note_on_c, 0, 72, 0
2, 161160, Note_on_c, 0, 71, 61
2, 161280, Note_on_c, 0, 71, 0
2, 161280, Note_on_c, 0, 74, 60
2, 161760, Note_on_c, 0, 74, 0
2, 161760, Note_on_c, 0, 72, 56
2, 162000, Note_on_c, 0, 72, 0
2, 162240, Control_c, 0, 64, 0
2, 162240, Note_on_c, 0, 88, 102
2, 162320, Note_on_c, 0, 88, 0
2, 162480, Note_on_c, 0, 84, 106
2, 162560, Note_on_c, 0, 84, 0
2, 162720, Note_on_c, 0, 79, 109
2, 162800, Note_on_c, 0, 79, 0
2, 162960, Note_on_c, 0, 76, 112
2, 163040, Note_on_c, 0, 76, 0
2, 163200, Note_on_c, 0, 74, 116
2, 163280, Note_on_c, 0, 74, 0
2, 163440, Note_on_c, 0, 71, 111
2, 163520, Note_on_c, 0, 71, 0
2, 163680, Note_on_c, 0, 67, 108
2, 163760, Note_on_c, 0, 67, 0
2, 163920, Note_on_c, 0, 62, 104
2, 164000, Note_on_c, 0, 62, 0
2, 164160, Note_on_c, 0, 60, 103
2, 164240, Note_on_c, 0, 60, 0
2, 164240, Note_on_c, 0, 62, 104
2, 164320, Note_on_c, 0, 62, 0
2, 164320, Note_on_c, 0, 64, 106
2, 164400, Note_on_c, 0, 64, 0
2, 164400, Note_on_c, 0, 65, 107
2, 164480, Note_on_c, 0, 65, 0
2, 164480, Note_on_c, 0, 67, 108
2, 164560, Note_on_c, 0, 67, 0
2, 164560, Note_on_c, 0, 69, 109
2, 164640, Note_on_c, 0, 69, 0
2, 164640, Note_on_c, 0, 71, 110
2, 164720, Note_on_c, 0, 71, 0
2, 164720, Note_on_c, 0, 72, 112
2, 164800, Note_on_c, 0, 72, 0
2, 164800, Note_on_c, 0, 74, 113
2, 164880, Note_on_c, 0, 74, 0
2, 164880, Note_on_c, 0, 76, 114
2, 164960, Note_on_c, 0, 76, 0
2, 164960, Note_on_c, 0, 77, 115
2, 165040, Note_on_c, 0, 77, 0
2, 165040, Note_on_c, 0, 78, 116
2, 165120, Note_on_c, 0, 78, 0
2, 165120, Note_on_c, 0, 79, 118
2, 165200, Note_on_c, 0, 79, 0
2, 165200, Note_on_c, 0, 78, 117
2, 165280, Note_on_c, 0, 78, 0
2, 165280, Note_on_c, 0, 81, 116
2, 165360, Note_on_c, 0, 81, 0
2, 165360, Note_on_c, 0, 79, 114
2, 165440, Note_on_c, 0, 79, 0
2, 165440, Note_on_c, 0, 77, 113
2, 165520, Note_on_c, 0, 77, 0
2, 165520, Note_on_c, 0, 76, 112
2, 165600, Note_on_c, 0, 76, 0
2, 165600, Note_on_c, 0, 73, 111
2, 165680, Note_on_c, 0, 73, 0
2, 165680, Note_on_c, 0, 76, 110
2, 165760, Note_on_c, 0, 76, 0
2, 165760, Note_on_c, 0, 74, 109
2, 165840, Note_on_c, 0, 74, 0
2, 165840, Note_on_c, 0, 86, 108
2, 166080, Note_on_c, 0, 86, 0
2, 166080, Note_on_c, 0, 88, 105
2, 166160, Note_on_c, 0, 88, 0
2, 166320, Note_on_c, 0, 84, 106
2, 166400, Note_on_c, 0, 84, 0
2, 166560, Note_on_c, 0, 79, 107
2, 166640, Note_on_c, 0, 79, 0
2, 166800, Note_on_c, 0, 76, 109
2, 166880, Note_on_c, 0, 76, 0
2, 167040, Note_on_c, 0, 77, 112
2, 167120, Note_on_c, 0, 77, 0
2, 167280, Note_on_c, 0, 72, 111
2, 167360, Note_on_c, 0, 72, 0
2, 167520, Note_on_c, 0, 69, 109
2, 167600, Note_on_c, 0, 69, 0
2, 167760, Note_on_c, 0, 65, 107
2, 167840, Note_on_c, 0, 65, 0
2, 168000, Note_on_c, 0, 55, 105
2, 168080, Note_on_c, 0, 55, 0
2, 168080, Note_on_c, 0, 57, 105
2, 168160, Note_on_c, 0, 57, 0
2, 168160, Note_on_c, 0, 59, 105
2, 168240, Note_on_c, 0, 59, 0
2, 168240, Note_on_c, 0, 60, 105
2, 168320, Note_on_c, 0, 60, 0
2, 168320, Note_on_c, 0, 62, 106
2, 168400, Note_on_c, 0, 62, 0
2, 168400, Note_on_c, 0, 64, 106
2, 168480, Note_on_c, 0, 64, 0
2, 168480, Note_on_c, 0, 65, 106
2, 168560, Note_on_c, 0, 65, 0
2, 168560, Note_on_c, 0, 67, 107
2, 168640, Note_on_c, 0, 67, 0
2, 168640, Note_on_c, 0, 69, 107
2, 168720, Note_on_c, 0, 69, 0
2, 168720, Note_on_c, 0, 71, 107
2, 168800, Note_on_c, 0, 71, 0
2, 168800, Note_on_c, 0, 72, 107
2, 168880, Note_on_c, 0, 72, 0
2, 168880, Note_on_c, 0, 74, 108
2, 168960, Note_on_c, 0, 74, 0
2, 168960, Note_on_c, 0, 75, 108
2, 169040, Note_on_c, 0, 75, 0
2, 169040, Note_on_c, 0, 77, 108
2, 169120, Note_on_c, 0, 77, 0
2, 169120, Note_on_c, 0, 76, 107
2, 169200, Note_on_c, 0, 76, 0
2, 169200, Note_on_c, 0, 75, 107
2, 169280, Note_on_c, 0, 75, 0
2, 169280, Note_on_c, 0, 77, 107
2, 169360, Note_on_c, 0, 77, 0
2, 169360, Note_on_c, 0, 76, 106
2, 169440, Note_on_c, 0, 76, 0
2, 169440, Note_on_c, 0, 75, 106
2, 169520, Note_on_c, 0, 75, 0
2, 169520, Note_on_c, 0, 77, 105
2, 169600, Note_on_c, 0, 77, 0
2, 169600, Note_on_c, 0, 76, 105
2, 169680, Note_on_c, 0, 76, 0
2, 169680, Note_on_c, 0, 75, 104
2, 169760, Note_on_c, 0, 75, 0
2, 169760, Note_on_c, 0, 77, 104
2, 169840, Note_on_c, 0, 77, 0
2, 169840, Note_on_c, 0, 76, 104
2, 169920, Note_on_c, 0, 76, 0
2, 169920, Note_on_c, 0, 79, 105
2, 170160, Note_on_c, 0, 79, 0
2, 170160, Note_on_c, 0, 67, 109
2, 170240, Note_on_c, 0, 67, 0
2, 170240, Note_on_c, 0, 69, 110
2, 170320, Note_on_c, 0, 69, 0
2, 170320, Note_on_c, 0, 70, 112
2, 170400, Note_on_c, 0, 70, 0
2, 170400, Note_on_c, 0, 73, 113
2, 170480, Note_on_c, 0, 73, 0
2, 170480, Note_on_c, 0, 74, 114
2, 170560, Note_on_c, 0, 74, 0
2, 170560, Note_on_c, 0, 76, 116
2, 170640, Note_on_c, 0, 76, 0
2, 170640, Note_on_c, 0, 77, 117
2, 170720, Note_on_c, 0, 77, 0
2, 170720, Note_on_c, 0, 79, 119
2, 170800, Note_on_c, 0, 79, 0
2, 170800, Note_on_c, 0, 80, 120
2, 170880, Note_on_c, 0, 80, 0
2, 170880, Note_on_c, 0, 81, 122
2, 171120, Note_on_c, 0, 81, 0
2, 171120, Note_on_c, 0, 74, 120
2, 171200, Note_on_c, 0, 74, 0
2, 171200, Note_on_c, 0, 76, 119
2, 171280, Note_on_c, 0, 76, 0
2, 171280, Note_on_c, 0, 77, 119
2, 171360, Note_on_c, 0, 77, 0
2, 171360, Note_on_c, 0, 79, 118
2, 171440, Note_on_c, 0, 79, 0
2, 171440, Note_on_c, 0, 81, 117
2, 171520, Note_on_c, 0, 81, 0
2, 171520, Note_on_c, 0, 82, 117
2, 171600, Note_on_c, 0, 82, 0
2, 171600, Note_on_c, 0, 83, 116
2, 171680, Note_on_c, 0, 83, 0
2, 171680, Note_on_c, 0, 84, 116
2, 171760, Note_on_c, 0, 84, 0
2, 171760, Note_on_c, 0, 85, 115
2, 171840, Note_on_c, 0, 85, 0
2, 171840, Note_on_c, 0, 86, 114
2, 171920, Note_on_c, 0, 86, 0
2, 171920, Note_on_c, 0, 77, 114
2, 172000, Note_on_c, 0, 77, 0
2, 172000, Note_on_c, 0, 79, 113
2, 172080, Note_on_c, 0, 79, 0
2, 172080, Note_on_c, 0, 81, 112
2, 172160, Note_on_c, 0, 81, 0
2, 172160, Note_on_c, 0, 83, 112
2, 172240, Note_on_c, 0, 83, 0
2, 172240, Note_on_c, 0, 84, 111
2, 172320, Note_on_c, 0, 84, 0
2, 172320, Note_on_c, 0, 86, 110
2, 172400, Note_on_c, 0, 86, 0
2, 172400, Note_on_c, 0, 87, 110
2, 172480, Note_on_c, 0, 87, 0
2, 172480, Note_on_c, 0, 88, 109
2, 172560, Note_on_c, 0, 88, 0
2, 172560, Note_on_c, 0, 89, 108
2, 172640, Note_on_c, 0, 89, 0
2, 172640, Note_on_c, 0, 86, 108
2, 172720, Note_on_c, 0, 86, 0
2, 172720, Note_on_c, 0, 83, 107
2, 172800, Note_on_c, 0, 83, 0
2, 172800, Note_on_c, 0, 84, 106
2, 172880, Note_on_c, 0, 84, 0
2, 172880, Note_on_c, 0, 79, 106
2, 172960, Note_on_c, 0, 79, 0
2, 172960, Note_on_c, 0, 76, 105
2, 173040, Note_on_c, 0, 76, 0
2, 173040, Note_on_c, 0, 72, 104
2, 173120, Note_on_c, 0, 72, 0
2, 173120, Note_on_c, 0, 67, 104
2, 173200, Note_on_c, 0, 67, 0
2, 173200, Note_on_c, 0, 64, 103
2, 173280, Note_on_c, 0, 64, 0
2, 173280, Note_on_c, 0, 60, 103
2, 173520, Note_on_c, 0, 60, 0
2, 173760, Note_on_c, 0, 63, 67
2, 174240, Note_on_c, 0, 63, 0
2, 174240, Note_on_c, 0, 67, 72
2, 174480, Note_on_c, 0, 67, 0
2, 174480, Note_on_c, 0, 63, 74
2, 174720, Note_on_c, 0, 63, 0
2, 174720, Note_on_c, 0, 62, 76
2, 175680, Note_on_c, 0, 62, 0
2, 175680, Note_on_c, 0, 72, 65
2, 176160, Note_on_c, 0, 72, 0
2, 176160, Note_on_c, 0, 75, 68
2, 176400, Note_on_c, 0, 75, 0
2, 176400, Note_on_c, 0, 72, 70
2, 176640, Note_on_c, 0, 72, 0
2, 176640, Note_on_c, 0, 71, 72
2, 177600, Note_on_c, 0, 71, 0
2, 177600, Note_on_c, 0, 63, 63
2, 178080, Note_on_c, 0, 63, 0
2, 178080, Note_on_c, 0, 67, 65
2, 178320, Note_on_c, 0, 67, 0
2, 178320, Note_on_c, 0, 63, 67
2, 178560, Note_on_c, 0, 63, 0
2, 178560, Note_on_c, 0, 62, 70
2, 179280, Note_on_c, 0, 62, 0
2, 179280, Note_on_c, 0, 59, 66
2, 179520, Note_on_c, 0, 59, 0
2, 179520, Note_on_c, 0, 60, 65
2, 179760, Note_on_c, 0, 60, 0
2, 179760, Note_on_c, 0, 62, 63
2, 180000, Note_on_c, 0, 62, 0
2, 180000, Note_on_c, 0, 63, 62
2, 180240, Note_on_c, 0, 63, 0
2, 180240, Note_on_c, 0, 60, 60
2, 180480, Note_on_c, 0, 60, 0
2, 180720, Note_on_c, 0, 59, 59
2, 180960, Note_on_c, 0, 59, 0
2, 181040, Note_on_c, 0, 79, 68
2, 181120, Note_on_c, 0, 79, 0
2, 181120, Note_on_c, 0, 81, 74
2, 181200, Note_on_c, 0, 81, 0
2, 181200, Note_on_c, 0, 83, 79
2, 181280, Note_on_c, 0, 83, 0
2, 181280, Note_on_c, 0, 84, 85
2, 181360, Note_on_c, 0, 84, 0
2, 181360, Note_on_c, 0, 86, 91
2, 181440, Note_on_c, 0, 86, 0
2, 181440, Note_on_c, 0, 88, 105
2, 181520, Note_on_c, 0, 88, 0
2, 181680, Note_on_c, 0, 84, 107
2, 181760, Note_on_c, 0, 84, 0
2, 181920, Note_on_c, 0, 79, 109
2, 182000, Note_on_c, 0, 79, 0
2, 182160, Note_on_c, 0, 76, 111
2, 182240, Note_on_c, 0, 76, 0
2, 182400, Note_on_c, 0, 74, 114
2, 182480, Note_on_c, 0, 74, 0
2, 182640, Note_on_c, 0, 71, 110
2, 182720, Note_on_c, 0, 71, 0
2, 182880, Note_on_c, 0, 67, 108
2, 182960, Note_on_c, 0, 67, 0
2, 183120, Note_on_c, 0, 62, 105
2, 183200, Note_on_c, 0, 62, 0
2, 183360, Note_on_c, 0, 60, 103
2, 183440, Note_on_c, 0, 60, 0
2, 183440, Note_on_c, 0, 62, 104
2, 183520, Note_on_c, 0, 62, 0
2, 183520, Note_on_c, 0, 64, 105
2, 183600, Note_on_c, 0, 64, 0
2, 183600, Note_on_c, 0, 65, 106
2, 183680, Note_on_c, 0, 65, 0
2, 183680, Note_on_c, 0, 67, 107
2, 183760, Note_on_c, 0, 67, 0
2, 183760, Note_on_c, 0, 69, 108
2, 183840, Note_on_c, 0, 69, 0
2, 183840, Note_on_c, 0, 71, 109
2, 183920, Note_on_c, 0, 71, 0
2, 183920, Note_on_c, 0, 72, 110
2, 184000, Note_on_c, 0, 72, 0
2, 184000, Note_on_c, 0, 74, 112
2, 184080, Note_on_c, 0, 74, 0
2, 184080, Note_on_c, 0, 76, 113
2, 184160, Note_on_c, 0, 76, 0
2, 184160, Note_on_c, 0, 77, 114
2, 184240, Note_on_c, 0, 77, 0
2, 184240, Note_on_c, 0, 78, 115
2, 184320, Note_on_c, 0, 78, 0
2, 184320, Note_on_c, 0, 79, 118
2, 184400, Note_on_c, 0, 79, 0
2, 184400, Note_on_c, 0, 78, 117
2, 184480, Note_on_c, 0, 78, 0
2, 184480, Note_on_c, 0, 81, 116
2, 184560, Note_on_c, 0, 81, 0
2, 184560, Note_on_c, 0, 79, 115
2, 184640, Note_on_c, 0, 79, 0
2, 184640, Note_on_c, 0, 77, 114
2, 184720, Note_on_c, 0, 77, 0
2, 184720, Note_on_c, 0, 76, 112
2, 184800, Note_on_c, 0, 76, 0
2, 184800, Note_on_c, 0, 73, 111
2, 184880, Note_on_c, 0, 73, 0
2, 184880, Note_on_c, 0, 76, 110
2, 184960, Note_on_c, 0, 76, 0
2, 184960, Note_on_c, 0, 74, 109
2, 185040, Note_on_c, 0, 74, 0
2, 185040, Note_on_c, 0, 86, 108
2, 185280, Note_on_c, 0, 86, 0
2, 185280, Note_on_c, 0, 88, 101
2, 185360, Note_on_c, 0, 88, 0
2, 185520, Note_on_c, 0, 84, 104
2, 185600, Note_on_c, 0, 84, 0
2, 185760, Note_on_c, 0, 79, 107
2, 185840, Note_on_c, 0, 79, 0
2, 186000, Note_on_c, 0, 76, 110
2, 186080, Note_on_c, 0, 76, 0
2, 186240, Note_on_c, 0, 77, 112
2, 186320, Note_on_c, 0, 77, 0
2, 186480, Note_on_c, 0, 72, 110
2, 186560, Note_on_c, 0, 72, 0
2, 186720, Note_on_c, 0, 69, 108
2, 186800, Note_on_c, 0, 69, 0
2, 186960, Note_on_c, 0, 65, 105
2, 187040, Note_on_c, 0, 65, 0
2, 187200, Note_on_c, 0, 60, 105
2, 187280, Note_on_c, 0, 60, 0
2, 187280, Note_on_c, 0, 64, 106
2, 187360, Note_on_c, 0, 64, 0
2, 187360, Note_on_c, 0, 65, 106
2, 187440, Note_on_c, 0, 65, 0
2, 187440, Note_on_c, 0, 67, 107
2, 187520, Note_on_c, 0, 67, 0
2, 187520, Note_on_c, 0, 69, 108
2, 187600, Note_on_c, 0, 69, 0
2, 187600, Note_on_c, 0, 71, 109
2, 187680, Note_on_c, 0, 71, 0
2, 187680, Note_on_c, 0, 72, 109
2, 187760, Note_on_c, 0, 72, 0
2, 187760, Note_on_c, 0, 74, 110
2, 187840, Note_on_c, 0, 74, 0
2, 187840, Note_on_c, 0, 76, 111
2, 187920, Note_on_c, 0, 76, 0
2, 187920, Note_on_c, 0, 77, 111
2, 188000, Note_on_c, 0, 77, 0
2, 188000, Note_on_c, 0, 79, 112
2, 188080, Note_on_c, 0, 79, 0
2, 188080, Note_on_c, 0, 81, 113
2, 188160, Note_on_c, 0, 81, 0
2, 188160, Note_on_c, 0, 83, 114
2, 188240, Note_on_c, 0, 83, 0
2, 188240, Note_on_c, 0, 84, 114
2, 188320, Note_on_c, 0, 84, 0
2, 188320, Note_on_c, 0, 85, 115
2, 188400, Note_on_c, 0, 85, 0
2, 188400, Note_on_c, 0, 86, 116
2, 188460, Note_on_c, 0, 86, 0
2, 188460, Note_on_c, 0, 87, 116
2, 188520, Note_on_c, 0, 87, 0
2, 188520, Note_on_c, 0, 88, 117
2, 188580, Note_on_c, 0, 88, 0
2, 188580, Note_on_c, 0, 83, 117
2, 188640, Note_on_c, 0, 83, 0
2, 188640, Note_on_c, 0, 84, 118
2, 188880, Note_on_c, 0, 84, 0
2, 189120, Control_c, 0, 64, 0
2, 189120, Note_on_c, 0, 76, 57
2, 189276, Note_on_c, 0, 76, 0
2, 189360, Note_on_c, 0, 76, 59
2, 189516, Note_on_c, 0, 76, 0
2, 189840, Note_on_c, 0, 75, 62
2, 189960, Note_on_c, 0, 75, 0
2, 189960, Note_on_c, 0, 76, 63
2, 190080, Note_on_c, 0, 76, 0
2, 190080, Note_on_c, 0, 74, 64
2, 190236, Note_on_c, 0, 74, 0
2, 190320, Note_on_c, 0, 74, 62
2, 190476, Note_on_c, 0, 74, 0
2, 190800, Note_on_c, 0, 73, 61
2, 190920, Note_on_c, 0, 73, 0
2, 190920, Note_on_c, 0, 74, 62
2, 191040, Note_on_c, 0, 74, 0
2, 191040, Note_on_c, 0, 76, 63
2, 191144, Note_on_c, 0, 76, 0
2, 191200, Note_on_c, 0, 76, 65
2, 191304, Note_on_c, 0, 76, 0
2, 191360, Note_on_c, 0, 77, 66
2, 191464, Note_on_c, 0, 77, 0
2, 191520, Note_on_c, 0, 78, 67
2, 191624, Note_on_c, 0, 78, 0
2, 191680, Note_on_c, 0, 79, 69
2, 191784, Note_on_c, 0, 79, 0
2, 191840, Note_on_c, 0, 81, 70
2, 191944, Note_on_c, 0, 81, 0
2, 192000, Note_on_c, 0, 81, 72
2, 192160, Note_on_c, 0, 81, 0
2, 192160, Note_on_c, 0, 79, 67
2, 192264, Note_on_c, 0, 79, 0
2, 192320, Note_on_c, 0, 76, 65
2, 192424, Note_on_c, 0, 76, 0
2, 192480, Note_on_c, 0, 74, 64
2, 192720, Note_on_c, 0, 74, 0
2, 192960, Note_on_c, 0, 76, 61
2, 193116, Note_on_c, 0, 76, 0
2, 193200, Note_on_c, 0, 76, 63
2, 193356, Note_on_c, 0, 76, 0
2, 193680, Note_on_c, 0, 75, 67
2, 193800, Note_on_c, 0, 75, 0
2, 193800, Note_on_c, 0, 76, 68
2, 193920, Note_on_c, 0, 76, 0
2, 193920, Note_on_c, 0, 79, 69
2, 194400, Note_on_c, 0, 79, 0
2, 194400, Note_on_c, 0, 77, 66
2, 194640, Note_on_c, 0, 77, 0
2, 194880, Note_on_c, 0, 76, 61
2, 195000, Note_on_c, 0, 76, 0
2, 195000, Note_on_c, 0, 74, 62
2, 195120, Note_on_c, 0, 74, 0
2, 195120, Note_on_c, 0, 73, 63
2, 195240, Note_on_c, 0, 73, 0
2, 195240, Note_on_c, 0, 74, 64
2, 195360, Note_on_c, 0, 74, 0
2, 195360, Note_on_c, 0, 73, 65
2, 195480, Note_on_c, 0, 73, 0
2, 195480, Note_on_c, 0, 74, 66
2, 195600, Note_on_c, 0, 74, 0
2, 195600, Note_on_c, 0, 76, 66
2, 195720, Note_on_c, 0, 76, 0
2, 195720, Note_on_c, 0, 74, 67
2, 195840, Note_on_c, 0, 74, 0
2, 195840, Note_on_c, 0, 77, 68
2, 196320, Note_on_c, 0, 77, 0
2, 196320, Note_on_c, 0, 76, 65
2, 196560, Note_on_c, 0, 76, 0
2, 196800, Note_on_c, 0, 79, 66
2, 197160, Note_on_c, 0, 79, 0
2, 197160, Note_on_c, 0, 76, 70
2, 197280, Note_on_c, 0, 76, 0
2, 197280, Note_on_c, 0, 79, 71
2, 197400, Note_on_c, 0, 79, 0
2, 197400, Note_on_c, 0, 76, 72
2, 197520, Note_on_c, 0, 76, 0
2, 197520, Note_on_c, 0, 79, 73
2, 197640, Note_on_c, 0, 79, 0
2, 197640, Note_on_c, 0, 76, 75
2, 197760, Note_on_c, 0, 76, 0
2, 197760, Note_on_c, 0, 81, 80
2, 198120, Note_on_c, 0, 81, 0
2, 198120, Note_on_c, 0, 77, 77
2, 198240, Note_on_c, 0, 77, 0
2, 198240, Note_on_c, 0, 74, 76
2, 198360, Note_on_c, 0, 74, 0
2, 198360, Note_on_c, 0, 69, 74
2, 198480, Note_on_c, 0, 69, 0
2, 198480, Note_on_c, 0, 74, 73
2, 198600, Note_on_c, 0, 74, 0
2, 198600, Note_on_c, 0, 69, 72
2, 198720, Note_on_c, 0, 69, 0
2, 198720, Note_on_c, 0, 67, 71
2, 198840, Note_on_c, 0, 67, 0
2, 198840, Note_on_c, 0, 64, 70
2, 198960, Note_on_c, 0, 64, 0
2, 198960, Note_on_c, 0, 67, 69
2, 199080, Note_on_c, 0, 67, 0
2, 199080, Note_on_c, 0, 64, 68
2, 199200, Note_on_c, 0, 64, 0
2, 199200, Note_on_c, 0, 65, 67
2, 199320, Note_on_c, 0, 65, 0
2, 199320, Note_on_c, 0, 62, 66
2, 199440, Note_on_c, 0, 62, 0
2, 199440, Note_on_c, 0, 65, 65
2, 199560, Note_on_c, 0, 65, 0
2, 199560, Note_on_c, 0, 62, 64
2, 199680, Note_on_c, 0, 62, 0
2, 199680, Note_on_c, 0, 62, 63
2, 200160, Note_on_c, 0, 62, 0
2, 200160, Note_on_c, 0, 60, 58
2, 200400, Note_on_c, 0, 60, 0
2, 200640, Note_on_c, 0, 75, 65
2, 201000, Note_on_c, 0, 75, 0
2, 201000, Note_on_c, 0, 72, 67
2, 201120, Note_on_c, 0, 72, 0
2, 201120, Note_on_c, 0, 75, 68
2, 201240, Note_on_c, 0, 75, 0
2, 201240, Note_on_c, 0, 72, 68
2, 201360, Note_on_c, 0, 72, 0
2, 201360, Note_on_c, 0, 75, 69
2, 201480, Note_on_c, 0, 75, 0
2, 201480, Note_on_c, 0, 72, 69
2, 201600, Note_on_c, 0, 72, 0
2, 201600, Note_on_c, 0, 71, 72
2, 202080, Note_on_c, 0, 71, 0
2, 202080, Note_on_c, 0, 74, 68
2, 202320, Note_on_c, 0, 74, 0
2, 202560, Note_on_c, 0, 75, 63
2, 202920, Note_on_c, 0, 75, 0
2, 202920, Note_on_c, 0, 72, 66
2, 203040, Note_on_c, 0, 72, 0
2, 203040, Note_on_c, 0, 75, 66
2, 203160, Note_on_c, 0, 75, 0
2, 203160, Note_on_c, 0, 72, 67
2, 203280, Note_on_c, 0, 72, 0
2, 203280, Note_on_c, 0, 75, 68
2, 203400, Note_on_c, 0, 75, 0
2, 203400, Note_on_c, 0, 72, 69
2, 203520, Note_on_c, 0, 72, 0
2, 203520, Note_on_c, 0, 71, 72
2, 203760, Note_on_c, 0, 79, 70
2, 204000, Note_on_c, 0, 79, 0
2, 204000, Note_on_c, 0, 71, 0
2, 204960, Note_on_c, 0, 72, 63
2, 205440, Note_on_c, 0, 72, 0
2, 205440, Note_on_c, 0, 74, 68
2, 205920, Note_on_c, 0, 74, 0
2, 205920, Note_on_c, 0, 77, 63
2, 206160, Note_on_c, 0, 77, 0
2, 206880, Note_on_c, 0, 75, 60
2, 207000, Note_on_c, 0, 75, 0
2, 207000, Note_on_c, 0, 72, 61
2, 207120, Note_on_c, 0, 72, 0
2, 207120, Note_on_c, 0, 75, 61
2, 207240, Note_on_c, 0, 75, 0
2, 207240, Note_on_c, 0, 72, 62
2, 207360, Note_on_c, 0, 72, 0
2, 207360, Note_on_c, 0, 71, 58
2, 208800, Note_on_c, 0, 71, 0
2, 208960, Note_on_c, 0, 67, 57
2, 209064, Note_on_c, 0, 67, 0
2, 209120, Note_on_c, 0, 69, 58
2, 209224, Note_on_c, 0, 69, 0
2, 209280, Note_on_c, 0, 71, 59
2, 209384, Note_on_c, 0, 71, 0
2, 209440, Note_on_c, 0, 72, 60
2, 209544, Note_on_c, 0, 72, 0
2, 209600, Note_on_c, 0, 74, 60
2, 209704, Note_on_c, 0, 74, 0
2, 209760, Note_on_c, 0, 75, 61
2, 209920, Note_on_c, 0, 75, 0
2, 209920, Note_on_c, 0, 76, 62
2, 210024, Note_on_c, 0, 76, 0
2, 210080, Note_on_c, 0, 76, 63
2, 210184, Note_on_c, 0, 76, 0
2, 210240, Note_on_c, 0, 77, 67
2, 210400, Note_on_c, 0, 77, 0
2, 210400, Note_on_c, 0, 78, 64
2, 210504, Note_on_c, 0, 78, 0
2, 210560, Note_on_c, 0, 78, 65
2, 210664, Note_on_c, 0, 78, 0
2, 210720, Note_on_c, 0, 79, 71
2, 210880, Note_on_c, 0, 79, 0
2, 210880, Note_on_c, 0, 81, 67
2, 210984, Note_on_c, 0, 81, 0
2, 211040, Note_on_c, 0, 81, 67
2, 211144, Note_on_c, 0, 81, 0
2, 211200, Note_on_c, 0, 81, 75
2, 211520, Note_on_c, 0, 79, 68
2, 211530, Note_on_c, 0, 81, 0
2, 211624, Note_on_c, 0, 79, 0
2, 211680, Note_on_c, 0, 79, 71
2, 211840, Note_on_c, 0, 79, 0
2, 211840, Note_on_c, 0, 77, 66
2, 211944, Note_on_c, 0, 77, 0
2, 212000, Note_on_c, 0, 77, 65
2, 212104, Note_on_c, 0, 77, 0
2, 212160, Note_on_c, 0, 77, 71
2, 212480, Note_on_c, 0, 77, 0
2, 212480, Note_on_c, 0, 76, 62
2, 212595, Note_on_c, 0, 76, 0
2, 212640, Note_on_c, 0, 76, 67
2, 212800, Note_on_c, 0, 76, 0
2, 212800, Note_on_c, 0, 74, 59
2, 212904, Note_on_c, 0, 74, 0
2, 212960, Note_on_c, 0, 74, 58
2, 213064, Note_on_c, 0, 74, 0
2, 213120, Note_on_c, 0, 74, 61
2, 213224, Note_on_c, 0, 74, 0
2, 213280, Note_on_c, 0, 79, 54
2, 213384, Note_on_c, 0, 79, 0
2, 213440, Note_on_c, 0, 77, 46
2, 213544, Note_on_c, 0, 77, 0
2, 214080, Note_on_c, 0, 76, 59
2, 214236, Note_on_c, 0, 76, 0
2, 214320, Note_on_c, 0, 76, 61
2, 214476, Note_on_c, 0, 76, 0
2, 214800, Note_on_c, 0, 75, 64
2, 214920, Note_on_c, 0, 75, 0
2, 214920, Note_on_c, 0, 76, 65
2, 215040, Note_on_c, 0, 76, 0
2, 215040, Note_on_c, 0, 74, 66
2, 215196, Note_on_c, 0, 74, 0
2, 215280, Note_on_c, 0, 74, 65
2, 215436, Note_on_c, 0, 74, 0
2, 215760, Note_on_c, 0, 73, 61
2, 215880, Note_on_c, 0, 73, 0
2, 215880, Note_on_c, 0, 74, 60
2, 216000, Note_on_c, 0, 74, 0
2, 216000, Note_on_c, 0, 76, 61
2, 216104, Note_on_c, 0, 76, 0
2, 216160, Note_on_c, 0, 76, 62
2, 216264, Note_on_c, 0, 76, 0
2, 216320, Note_on_c, 0, 77, 63
2, 216424, Note_on_c, 0, 77, 0
2, 216480, Note_on_c, 0, 78, 65
2, 216584, Note_on_c, 0, 78, 0
2, 216640, Note_on_c, 0, 79, 66
2, 216744, Note_on_c, 0, 79, 0
2, 216800, Note_on_c, 0, 81, 67
2, 216904, Note_on_c, 0, 81, 0
2, 216960, Note_on_c, 0, 81, 72
2, 217120, Note_on_c, 0, 81, 0
2, 217120, Note_on_c, 0, 79, 70
2, 217224, Note_on_c, 0, 79, 0
2, 217280, Note_on_c, 0, 76, 68
2, 217384, Note_on_c, 0, 76, 0
2, 217440, Note_on_c, 0, 74, 66
2, 217596, Note_on_c, 0, 74, 0
2, 217920, Note_on_c, 0, 76, 67
2, 217998, Note_on_c, 0, 76, 0
2, 218040, Note_on_c, 0, 76, 68
2, 218160, Note_on_c, 0, 76, 0
2, 218160, Note_on_c, 0, 75, 69
2, 218280, Note_on_c, 0, 75, 0
2, 218280, Note_on_c, 0, 76, 70
2, 218400, Note_on_c, 0, 76, 0
2, 218400, Note_on_c, 0, 77, 71
2, 218520, Note_on_c, 0, 77, 0
2, 218520, Note_on_c, 0, 76, 72
2, 218640, Note_on_c, 0, 76, 0
2, 218640, Note_on_c, 0, 79, 73
2, 218760, Note_on_c, 0, 79, 0
2, 218760, Note_on_c, 0, 76, 74
2, 218880, Note_on_c, 0, 76, 0
2, 218880, Note_on_c, 0, 79, 78
2, 219000, Note_on_c, 0, 79, 0
2, 219000, Note_on_c, 0, 77, 77
2, 219120, Note_on_c, 0, 77, 0
2, 219120, Note_on_c, 0, 76, 76
2, 219240, Note_on_c, 0, 76, 0
2, 219240, Note_on_c, 0, 77, 74
2, 219360, Note_on_c, 0, 77, 0
2, 219360, Note_on_c, 0, 79, 73
2, 219480, Note_on_c, 0, 79, 0
2, 219480, Note_on_c, 0, 77, 72
2, 219600, Note_on_c, 0, 77, 0
2, 219600, Note_on_c, 0, 81, 71
2, 219720, Note_on_c, 0, 81, 0
2, 219720, Note_on_c, 0, 77, 70
2, 219840, Note_on_c, 0, 77, 0
2, 219840, Note_on_c, 0, 77, 69
2, 219960, Note_on_c, 0, 77, 0
2, 219960, Note_on_c, 0, 76, 68
2, 220080, Note_on_c, 0, 76, 0
2, 220080, Note_on_c, 0, 77, 67
2, 220200, Note_on_c, 0, 77, 0
2, 220200, Note_on_c, 0, 76, 65
2, 220320, Note_on_c, 0, 76, 0
2, 220320, Note_on_c, 0, 76, 64
2, 220440, Note_on_c, 0, 76, 0
2, 220440, Note_on_c, 0, 74, 63
2, 220560, Note_on_c, 0, 74, 0
2, 220560, Note_on_c, 0, 76, 62
2, 220680, Note_on_c, 0, 76, 0
2, 220680, Note_on_c, 0, 74, 61
2, 220800, Note_on_c, 0, 74, 0
2, 220800, Note_on_c, 0, 74, 60
2, 221280, Note_on_c, 0, 74, 0
2, 221280, Note_on_c, 0, 72, 55
2, 221436, Note_on_c, 0, 72, 0
2, 221760, Control_c, 0, 64, 0
2, 221760, Note_on_c, 0, 75, 57
2, 222120, Note_on_c, 0, 75, 0
2, 222240, Note_on_c, 0, 75, 61
2, 222600, Note_on_c, 0, 75, 0
2, 222720, Note_on_c, 0, 74, 64
2, 223080, Note_on_c, 0, 74, 0
2, 223200, Note_on_c, 0, 74, 62
2, 223560, Note_on_c, 0, 74, 0
2, 223680, Note_on_c, 0, 75, 62
2, 224040, Note_on_c, 0, 75, 0
2, 224040, Note_on_c, 0, 77, 65
2, 224160, Note_on_c, 0, 77, 0
2, 224160, Note_on_c, 0, 78, 66
2, 224520, Note_on_c, 0, 78, 0
2, 224520, Note_on_c, 0, 79, 70
2, 224640, Note_on_c, 0, 79, 0
2, 224640, Note_on_c, 0, 74, 71
2, 225600, Note_on_c, 0, 74, 0
2, 225600, Note_on_c, 0, 76, 64
2, 225960, Note_on_c, 0, 76, 0
2, 226080, Note_on_c, 0, 76, 68
2, 226440, Note_on_c, 0, 76, 0
2, 226560, Note_on_c, 0, 79, 72
2, 227040, Note_on_c, 0, 79, 0
2, 227040, Note_on_c, 0, 77, 69
2, 227280, Note_on_c, 0, 77, 0
2, 227520, Note_on_c, 0, 75, 63
2, 227880, Note_on_c, 0, 75, 0
2, 227880, Note_on_c, 0, 74, 66
2, 228000, Note_on_c, 0, 74, 0
2, 228000, Note_on_c, 0, 73, 66
2, 228360, Note_on_c, 0, 73, 0
2, 228360, Note_on_c, 0, 74, 69
2, 228480, Note_on_c, 0, 74, 0
2, 228480, Note_on_c, 0, 77, 73
2, 228960, Note_on_c, 0, 77, 0
2, 228960, Note_on_c, 0, 75, 67
2, 229200, Note_on_c, 0, 75, 0
2, 229440, Note_on_c, 0, 79, 81
2, 229800, Note_on_c, 0, 79, 0
2, 229800, Note_on_c, 0, 75, 77
2, 229920, Note_on_c, 0, 75, 0
2, 229920, Note_on_c, 0, 79, 85
2, 230280, Note_on_c, 0, 79, 0
2, 230280, Note_on_c, 0, 75, 82
2, 230400, Note_on_c, 0, 75, 0
2, 230400, Note_on_c, 0, 75, 88
2, 230640, Note_on_c, 0, 75, 0
2, 230640, Note_on_c, 0, 73, 86
2, 230880, Note_on_c, 0, 73, 0
2, 230880, Note_on_c, 0, 77, 84
2, 231120, Note_on_c, 0, 77, 0
2, 231120, Note_on_c, 0, 73, 81
2, 231360, Note_on_c, 0, 73, 0
2, 231360, Note_on_c, 0, 73, 79
2, 231600, Note_on_c, 0, 73, 0
2, 231600, Note_on_c, 0, 72, 77
2, 231840, Note_on_c, 0, 72, 0
2, 231840, Note_on_c, 0, 72, 75
2, 232080, Note_on_c, 0, 72, 0
2, 232080, Note_on_c, 0, 71, 73
2, 232320, Note_on_c, 0, 71, 0
2, 232320, Note_on_c, 0, 74, 70
2, 232800, Note_on_c, 0, 74, 0
2, 232800, Note_on_c, 0, 72, 59
2, 232992, Note_on_c, 0, 72, 0
2, 233280, Note_on_c, 0, 75, 61
2, 233640, Note_on_c, 0, 75, 0
2, 233760, Note_on_c, 0, 75, 63
2, 234120, Note_on_c, 0, 75, 0
2, 234240, Note_on_c, 0, 74, 65
2, 234600, Note_on_c, 0, 74, 0
2, 234720, Note_on_c, 0, 74, 67
2, 235080, Note_on_c, 0, 74, 0
2, 235200, Note_on_c, 0, 75, 70
2, 235560, Note_on_c, 0, 75, 0
2, 235560, Note_on_c, 0, 74, 73
2, 235680, Note_on_c, 0, 74, 0
2, 235680, Note_on_c, 0, 75, 75
2, 236040, Note_on_c, 0, 75, 0
2, 236040, Note_on_c, 0, 79, 78
2, 236160, Note_on_c, 0, 79, 0
2, 236160, Note_on_c, 0, 74, 85
2, 237120, Note_on_c, 0, 74, 0
2, 237120, Note_on_c, 0, 75, 52
2, 237480, Note_on_c, 0, 75, 0
2, 237600, Note_on_c, 0, 75, 53
2, 237960, Note_on_c, 0, 75, 0
2, 238080, Note_on_c, 0, 74, 54
2, 238440, Note_on_c, 0, 74, 0
2, 238560, Note_on_c, 0, 74, 55
2, 239040, Note_on_c, 0, 74, 0
2, 239040, Note_on_c, 0, 75, 56
2, 239400, Note_on_c, 0, 75, 0
2, 239400, Note_on_c, 0, 74, 57
2, 239520, Note_on_c, 0, 74, 0
2, 239520, Note_on_c, 0, 75, 57
2, 239880, Note_on_c, 0, 75, 0
2, 239880, Note_on_c, 0, 79, 58
2, 240000, Note_on_c, 0, 79, 0
2, 240000, Note_on_c, 0, 74, 61
2, 240960, Note_on_c, 0, 74, 0
2, 240960, Note_on_c, 0, 75, 67
2, 241320, Note_on_c, 0, 75, 0
2, 241440, Note_on_c, 0, 75, 70
2, 241800, Note_on_c, 0, 75, 0
2, 241920, Note_on_c, 0, 74, 74
2, 242280, Note_on_c, 0, 74, 0
2, 242400, Note_on_c, 0, 74, 78
2, 242880, Note_on_c, 0, 74, 0
2, 242880, Note_on_c, 0, 75, 81
2, 243240, Note_on_c, 0, 75, 0
2, 243240, Note_on_c, 0, 77, 84
2, 243360, Note_on_c, 0, 77, 0
2, 243360, Note_on_c, 0, 78, 85
2, 243720, Note_on_c, 0, 78, 0
2, 243720, Note_on_c, 0, 79, 88
2, 243840, Note_on_c, 0, 79, 0
2, 243840, Note_on_c, 0, 74, 99
2, 244800, Note_on_c, 0, 74, 0
2, 244800, Note_on_c, 0, 79, 93
2, 245160, Note_on_c, 0, 79, 0
2, 245160, Note_on_c, 0, 75, 86
2, 245280, Note_on_c, 0, 75, 0
2, 245280, Note_on_c, 0, 79, 99
2, 245640, Note_on_c, 0, 79, 0
2, 245640, Note_on_c, 0, 75, 92
2, 245760, Note_on_c, 0, 75, 0
2, 245760, Note_on_c, 0, 75, 107
2, 246000, Note_on_c, 0, 75, 0
2, 246000, Note_on_c, 0, 73, 87
2, 246240, Note_on_c, 0, 73, 0
2, 246240, Note_on_c, 0, 77, 79
2, 246480, Note_on_c, 0, 77, 0
2, 246480, Note_on_c, 0, 73, 72
2, 246720, Note_on_c, 0, 73, 0
2, 246720, Note_on_c, 0, 73, 65
2, 246960, Note_on_c, 0, 73, 0
2, 246960, Note_on_c, 0, 72, 61
2, 247200, Note_on_c, 0, 72, 0
2, 247200, Note_on_c, 0, 72, 58
2, 247440, Note_on_c, 0, 72, 0
2, 247440, Note_on_c, 0, 71, 55
2, 247680, Note_on_c, 0, 71, 0
2, 247680, Note_on_c, 0, 74, 51
2, 248160, Note_on_c, 0, 74, 0
2, 248160, Note_on_c, 0, 72, 45
2, 248400, Note_on_c, 0, 72, 0
2, 249120, Note_on_c, 0, 56, 69
2, 249600, Note_on_c, 0, 56, 0
2, 249600, Note_on_c, 0, 65, 75
2, 249960, Note_on_c, 0, 65, 0
2, 250080, Note_on_c, 0, 65, 78
2, 250560, Note_on_c, 0, 65, 0
2, 250560, Note_on_c, 0, 63, 81
2, 250920, Note_on_c, 0, 63, 0
2, 251040, Note_on_c, 0, 63, 77
2, 251520, Note_on_c, 0, 63, 0
2, 251520, Note_on_c, 0, 65, 73
2, 251880, Note_on_c, 0, 65, 0
2, 251880, Note_on_c, 0, 66, 76
2, 252000, Note_on_c, 0, 66, 0
2, 252000, Note_on_c, 0, 67, 76
2, 252360, Note_on_c, 0, 67, 0
2, 252360, Note_on_c, 0, 68, 79
2, 252480, Note_on_c, 0, 68, 0
2, 252480, Note_on_c, 0, 63, 80
2, 253200, Note_on_c, 0, 63, 0
2, 253200, Note_on_c, 0, 64, 74
2, 253440, Note_on_c, 0, 64, 0
2, 253440, Note_on_c, 0, 65, 71
2, 253800, Note_on_c, 0, 65, 0
2, 253920, Note_on_c, 0, 65, 73
2, 254400, Note_on_c, 0, 65, 0
2, 254400, Note_on_c, 0, 63, 76
2, 254760, Note_on_c, 0, 63, 0
2, 254880, Note_on_c, 0, 63, 79
2, 255240, Note_on_c, 0, 63, 0
2, 255240, Note_on_c, 0, 65, 79
2, 255270, Note_on_c, 0, 63, 80
2, 255280, Note_on_c, 0, 65, 0
2, 255300, Note_on_c, 0, 62, 81
2, 255310, Note_on_c, 0, 63, 0
2, 255330, Note_on_c, 0, 63, 82
2, 255340, Note_on_c, 0, 62, 0
2, 255360, Note_on_c, 0, 70, 83
2, 255370, Note_on_c, 0, 63, 0
2, 255464, Note_on_c, 0, 70, 0
2, 255520, Note_on_c, 0, 68, 80
2, 255624, Note_on_c, 0, 68, 0
2, 255680, Note_on_c, 0, 67, 78
2, 255784, Note_on_c, 0, 67, 0
2, 255840, Note_on_c, 0, 65, 76
2, 255944, Note_on_c, 0, 65, 0
2, 256000, Note_on_c, 0, 63, 74
2, 256104, Note_on_c, 0, 63, 0
2, 256160, Note_on_c, 0, 61, 73
2, 256264, Note_on_c, 0, 61, 0
2, 256320, Note_on_c, 0, 60, 71
2, 256800, Note_on_c, 0, 60, 0
2, 257280, Note_on_c, 0, 72, 63
2, 257640, Note_on_c, 0, 72, 0
2, 257760, Note_on_c, 0, 72, 66
2, 258240, Note_on_c, 0, 72, 0
2, 258240, Note_on_c, 0, 70, 68
2, 258600, Note_on_c, 0, 70, 0
2, 258720, Note_on_c, 0, 70, 65
2, 259200, Note_on_c, 0, 70, 0
2, 259200, Note_on_c, 0, 72, 63
2, 259560, Note_on_c, 0, 72, 0
2, 259560, Note_on_c, 0, 73, 66
2, 259680, Note_on_c, 0, 73, 0
2, 259680, Note_on_c, 0, 74, 67
2, 260040, Note_on_c, 0, 74, 0
2, 260040, Note_on_c, 0, 75, 69
2, 260160, Note_on_c, 0, 75, 0
2, 260160, Note_on_c, 0, 70, 70
2, 260880, Note_on_c, 0, 70, 0
2, 260880, Note_on_c, 0, 71, 63
2, 261120, Note_on_c, 0, 71, 0
2, 261120, Note_on_c, 0, 72, 63
2, 261600, Note_on_c, 0, 72, 0
2, 261600, Note_on_c, 0, 72, 68
2, 261960, Note_on_c, 0, 72, 0
2, 261960, Note_on_c, 0, 74, 68
2, 262020, Note_on_c, 0, 74, 0
2, 262020, Note_on_c, 0, 72, 70
2, 262080, Note_on_c, 0, 72, 0
2, 262080, Note_on_c, 0, 71, 71
2, 262320, Note_on_c, 0, 71, 0
2, 262560, Note_on_c, 0, 77, 74
2, 262920, Note_on_c, 0, 77, 0
2, 262920, Note_on_c, 0, 80, 73
2, 262934, Note_on_c, 0, 79, 73
2, 262948, Note_on_c, 0, 77, 74
2, 262962, Note_on_c, 0, 75, 74
2, 262976, Note_on_c, 0, 74, 75
2, 262980, Note_on_c, 0, 80, 0
2, 262994, Note_on_c, 0, 79, 0
2, 263008, Note_on_c, 0, 77, 0
2, 263022, Note_on_c, 0, 75, 0
2, 263036, Note_on_c, 0, 74, 0
2, 263040, Note_on_c, 0, 72, 77
2, 263520, Note_on_c, 0, 72, 0
2, 263520, Control_c, 0, 64, 0
2, 263520, Note_on_c, 0, 72, 87
2, 263580, Control_c, 0, 64, 127
2, 264960, Note_on_c, 0, 72, 0
2, 265200, Control_c, 0, 64, 0
2, 265200, Note_on_c, 0, 74, 58
2, 265260, Note_on_c, 0, 74, 0
2, 265260, Note_on_c, 0, 72, 58
2, 265320, Note_on_c, 0, 72, 0
2, 265320, Note_on_c, 0, 71, 59
2, 265380, Note_on_c, 0, 71, 0
2, 265380, Note_on_c, 0, 72, 60
2, 265440, Note_on_c, 0, 72, 0
2, 265440, Note_on_c, 0, 75, 61
2, 265680, Note_on_c, 0, 75, 0
2, 265680, Note_on_c, 0, 74, 63
2, 265920, Note_on_c, 0, 74, 0
2, 265920, Note_on_c, 0, 77, 66
2, 266160, Note_on_c, 0, 77, 0
2, 266160, Note_on_c, 0, 75, 65
2, 266400, Note_on_c, 0, 75, 0
2, 266400, Note_on_c, 0, 74, 63
2, 266640, Note_on_c, 0, 74, 0
2, 266640, Note_on_c, 0, 72, 61
2, 266880, Note_on_c, 0, 72, 0
2, 266880, Note_on_c, 0, 71, 59
2, 267240, Note_on_c, 0, 71, 0
2, 267360, Note_on_c, 0, 72, 62
2, 267720, Note_on_c, 0, 72, 0
2, 267840, Control_c, 0, 64, 0
2, 267840, Note_on_c, 0, 75, 62
2, 268320, Note_on_c, 0, 75, 0
2, 268320, Control_c, 0, 64, 127
2, 268320, Note_on_c, 0, 74, 57
2, 269760, Note_on_c, 0, 74, 0
2, 270720, Control_c, 0, 64, 0
2, 270720, Note_on_c, 0, 67, 55
2, 270780, Note_on_c, 0, 67, 0
2, 270780, Note_on_c, 0, 69, 55
2, 270840, Note_on_c, 0, 69, 0
2, 270840, Note_on_c, 0, 67, 56
2, 270900, Note_on_c, 0, 67, 0
2, 270900, Note_on_c, 0, 66, 56
2, 270960, Note_on_c, 0, 66, 0
2, 270960, Note_on_c, 0, 67, 56
2, 271020, Note_on_c, 0, 67, 0
2, 271020, Note_on_c, 0, 68, 57
2, 271080, Note_on_c, 0, 68, 0
2, 271080, Note_on_c, 0, 69, 57
2, 271140, Note_on_c, 0, 69, 0
2, 271140, Note_on_c, 0, 70, 57
2, 271200, Note_on_c, 0, 70, 0
2, 271200, Note_on_c, 0, 71, 57
2, 271260, Note_on_c, 0, 71, 0
2, 271260, Note_on_c, 0, 72, 58
2, 271320, Note_on_c, 0, 72, 0
2, 271320, Note_on_c, 0, 73, 58
2, 271380, Note_on_c, 0, 73, 0
2, 271380, Note_on_c, 0, 74, 58
2, 271440, Note_on_c, 0, 74, 0
2, 271440, Note_on_c, 0, 75, 59
2, 271500, Note_on_c, 0, 75, 0
2, 271500, Note_on_c, 0, 76, 59
2, 271560, Note_on_c, 0, 76, 0
2, 271560, Note_on_c, 0, 77, 59
2, 271620, Note_on_c, 0, 77, 0
2, 271620, Note_on_c, 0, 78, 59
2, 271680, Note_on_c, 0, 78, 0
2, 271680, Note_on_c, 0, 79, 60
2, 271740, Note_on_c, 0, 79, 0
2, 271740, Note_on_c, 0, 80, 60
2, 271800, Note_on_c, 0, 80, 0
2, 271800, Note_on_c, 0, 81, 60
2, 271860, Note_on_c, 0, 81, 0
2, 271860, Note_on_c, 0, 82, 61
2, 271920, Note_on_c, 0, 82, 0
2, 271920, Note_on_c, 0, 83, 61
2, 271980, Note_on_c, 0, 83, 0
2, 271980, Note_on_c, 0, 84, 61
2, 272040, Note_on_c, 0, 84, 0
2, 272040, Note_on_c, 0, 85, 61
2, 272100, Note_on_c, 0, 85, 0
2, 272100, Note_on_c, 0, 86, 62
2, 272640, Note_on_c, 0, 86, 0
2, 272640, Note_on_c, 0, 85, 64
2, 272700, Note_on_c, 0, 85, 0
2, 272700, Note_on_c, 0, 86, 64
2, 272760, Note_on_c, 0, 86, 0
2, 272760, Note_on_c, 0, 88, 63
2, 272820, Note_on_c, 0, 88, 0
2, 272820, Note_on_c, 0, 86, 63
2, 272880, Note_on_c, 0, 86, 0
2, 272880, Note_on_c, 0, 84, 62
2, 272940, Note_on_c, 0, 84, 0
2, 272940, Note_on_c, 0, 83, 62
2, 273000, Note_on_c, 0, 83, 0
2, 273000, Note_on_c, 0, 81, 61
2, 273060, Note_on_c, 0, 81, 0
2, 273060, Note_on_c, 0, 79, 61
2, 273120, Note_on_c, 0, 79, 0
2, 273120, Note_on_c, 0, 78, 61
2, 273180, Note_on_c, 0, 78, 0
2, 273180, Note_on_c, 0, 81, 62
2, 273240, Note_on_c, 0, 81, 0
2, 273240, Note_on_c, 0, 79, 63
2, 273300, Note_on_c, 0, 79, 0
2, 273300, Note_on_c, 0, 83, 64
2, 273360, Note_on_c, 0, 83, 0
2, 273360, Note_on_c, 0, 81, 65
2, 273420, Note_on_c, 0, 81, 0
2, 273420, Note_on_c, 0, 84, 66
2, 273480, Note_on_c, 0, 84, 0
2, 273480, Note_on_c, 0, 83, 67
2, 273540, Note_on_c, 0, 83, 0
2, 273540, Note_on_c, 0, 86, 68
2, 273600, Note_on_c, 0, 86, 0
2, 273600, Note_on_c, 0, 85, 69
2, 273660, Note_on_c, 0, 85, 0
2, 273660, Note_on_c, 0, 88, 71
2, 273720, Note_on_c, 0, 88, 0
2, 273720, Note_on_c, 0, 86, 72
2, 273780, Note_on_c, 0, 86, 0
2, 273780, Note_on_c, 0, 89, 73
2, 274560, Note_on_c, 0, 89, 0
2, 274560, Note_on_c, 0, 88, 69
2, 274640, Note_on_c, 0, 88, 0
2, 274640, Note_on_c, 0, 86, 66
2, 274720, Note_on_c, 0, 86, 0
2, 274800, Note_on_c, 0, 84, 67
2, 274880, Note_on_c, 0, 84, 0
2, 274880, Note_on_c, 0, 83, 64
2, 274960, Note_on_c, 0, 83, 0
2, 275040, Note_on_c, 0, 81, 65
2, 275120, Note_on_c, 0, 81, 0
2, 275120, Note_on_c, 0, 79, 62
2, 275200, Note_on_c, 0, 79, 0
2, 275280, Note_on_c, 0, 78, 63
2, 275400, Note_on_c, 0, 78, 0
2, 275400, Note_on_c, 0, 79, 62
2, 275520, Note_on_c, 0, 79, 0
2, 275520, Note_on_c, 0, 78, 61
2, 275640, Note_on_c, 0, 78, 0
2, 275640, Note_on_c, 0, 79, 62
2, 275760, Note_on_c, 0, 79, 0
2, 275760, Note_on_c, 0, 78, 64
2, 275880, Note_on_c, 0, 78, 0
2, 275880, Note_on_c, 0, 79, 65
2, 276000, Note_on_c, 0, 79, 0
2, 276000, Note_on_c, 0, 81, 66
2, 276120, Note_on_c, 0, 81, 0
2, 276120, Note_on_c, 0, 79, 67
2, 276240, Note_on_c, 0, 79, 0
2, 276240, Note_on_c, 0, 83, 70
2, 276432, Note_on_c, 0, 83, 0
2, 276480, Note_on_c, 0, 81, 67
2, 276672, Note_on_c, 0, 81, 0
2, 276720, Note_on_c, 0, 79, 64
2, 276912, Note_on_c, 0, 79, 0
2, 276960, Note_on_c, 0, 77, 62
2, 277152, Note_on_c, 0, 77, 0
2, 277200, Note_on_c, 0, 76, 63
2, 277560, Note_on_c, 0, 76, 0
2, 277680, Note_on_c, 0, 76, 67
2, 277836, Note_on_c, 0, 76, 0
2, 277920, Note_on_c, 0, 74, 68
2, 278280, Note_on_c, 0, 74, 0
2, 278400, Note_on_c, 0, 74, 65
2, 278640, Note_on_c, 0, 74, 0
2, 278640, Note_on_c, 0, 76, 63
2, 278796, Note_on_c, 0, 76, 0
2, 278880, Note_on_c, 0, 77, 65
2, 279036, Note_on_c, 0, 77, 0
2, 279120, Note_on_c, 0, 79, 67
2, 279276, Note_on_c, 0, 79, 0
2, 279360, Note_on_c, 0, 74, 68
2, 279720, Note_on_c, 0, 74, 0
2, 280080, Note_on_c, 0, 76, 69
2, 280440, Note_on_c, 0, 76, 0
2, 280560, Note_on_c, 0, 76, 75
2, 280716, Note_on_c, 0, 76, 0
2, 280800, Note_on_c, 0, 79, 78
2, 281280, Note_on_c, 0, 79, 0
2, 281280, Note_on_c, 0, 77, 71
2, 281436, Note_on_c, 0, 77, 0
2, 281460, Note_on_c, 0, 76, 69
2, 281520, Note_on_c, 0, 76, 0
2, 281520, Note_on_c, 0, 74, 71
2, 281676, Note_on_c, 0, 74, 0
2, 281760, Note_on_c, 0, 73, 73
2, 281916, Note_on_c, 0, 73, 0
2, 282000, Note_on_c, 0, 74, 74
2, 282156, Note_on_c, 0, 74, 0
2, 282240, Note_on_c, 0, 77, 82
2, 282720, Note_on_c, 0, 77, 0
2, 282720, Note_on_c, 0, 76, 76
2, 282876, Note_on_c, 0, 76, 0
2, 282960, Note_on_c, 0, 79, 86
2, 283440, Note_on_c, 0, 79, 0
2, 283440, Note_on_c, 0, 76, 82
2, 283596, Note_on_c, 0, 76, 0
2, 283680, Note_on_c, 0, 76, 80
2, 283920, Note_on_c, 0, 76, 0
2, 283920, Note_on_c, 0, 74, 78
2, 284076, Note_on_c, 0, 74, 0
2, 284160, Note_on_c, 0, 77, 76
2, 284316, Note_on_c, 0, 77, 0
2, 284400, Note_on_c, 0, 74, 75
2, 284640, Note_on_c, 0, 74, 0
2, 284640, Note_on_c, 0, 72, 73
2, 284796, Note_on_c, 0, 72, 0
2, 284880, Note_on_c, 0, 71, 71
2, 285036, Note_on_c, 0, 71, 0
2, 285120, Note_on_c, 0, 74, 71
2, 285360, Note_on_c, 0, 74, 0
2, 285360, Note_on_c, 0, 72, 65
2, 285516, Note_on_c, 0, 72, 0
2, 285840, Note_on_c, 0, 75, 64
2, 286200, Note_on_c, 0, 75, 0
2, 286320, Note_on_c, 0, 75, 68
2, 286560, Note_on_c, 0, 75, 0
2, 286560, Note_on_c, 0, 74, 70
2, 286920, Note_on_c, 0, 74, 0
2, 287040, Note_on_c, 0, 74, 66
2, 287280, Note_on_c, 0, 74, 0
2, 287280, Note_on_c, 0, 75, 61
2, 287640, Note_on_c, 0, 75, 0
2, 287760, Note_on_c, 0, 75, 64
2, 288000, Note_on_c, 0, 75, 0
2, 288000, Note_on_c, 0, 74, 66
2, 288360, Note_on_c, 0, 74, 0
2, 288720, Note_on_c, 0, 87, 95
2, 289080, Note_on_c, 0, 87, 0
2, 289200, Note_on_c, 0, 87, 99
2, 289440, Note_on_c, 0, 87, 0
2, 289440, Note_on_c, 0, 86, 102
2, 289800, Note_on_c, 0, 86, 0
2, 289920, Note_on_c, 0, 86, 94
2, 290160, Note_on_c, 0, 86, 0
2, 290160, Note_on_c, 0, 87, 91
2, 290520, Note_on_c, 0, 87, 0
2, 290640, Note_on_c, 0, 87, 95
2, 290880, Note_on_c, 0, 87, 0
2, 290880, Note_on_c, 0, 86, 94
2, 291240, Note_on_c, 0, 86, 0
2, 291600, Note_on_c, 0, 76, 102
2, 291960, Note_on_c, 0, 76, 0
2, 292080, Note_on_c, 0, 76, 107
2, 292236, Note_on_c, 0, 76, 0
2, 292320, Note_on_c, 0, 74, 108
2, 292680, Note_on_c, 0, 74, 0
2, 292800, Note_on_c, 0, 74, 104
2, 293040, Note_on_c, 0, 74, 0
2, 293040, Note_on_c, 0, 76, 101
2, 293196, Note_on_c, 0, 76, 0
2, 293280, Note_on_c, 0, 77, 102
2, 293436, Note_on_c, 0, 77, 0
2, 293520, Note_on_c, 0, 79, 104
2, 293676, Note_on_c, 0, 79, 0
2, 293760, Note_on_c, 0, 74, 106
2, 294120, Note_on_c, 0, 74, 0
2, 294480, Note_on_c, 0, 79, 101
2, 294960, Note_on_c, 0, 79, 0
2, 294960, Note_on_c, 0, 76, 105
2, 295116, Note_on_c, 0, 76, 0
2, 295200, Note_on_c, 0, 76, 108
2, 295440, Note_on_c, 0, 76, 0
2, 295440, Note_on_c, 0, 74, 106
2, 295596, Note_on_c, 0, 74, 0
2, 295680, Note_on_c, 0, 77, 105
2, 295836, Note_on_c, 0, 77, 0
2, 295920, Note_on_c, 0, 74, 103
2, 296160, Note_on_c, 0, 74, 0
2, 296160, Note_on_c, 0, 72, 101
2, 296316, Note_on_c, 0, 72, 0
2, 296400, Note_on_c, 0, 71, 100
2, 296556, Note_on_c, 0, 71, 0
2, 296640, Note_on_c, 0, 74, 101
2, 297120, Note_on_c, 0, 74, 0
2, 297120, Note_on_c, 0, 72, 105
2, 297276, Note_on_c, 0, 72, 0
2, 297360, Note_on_c, 0, 79, 107
2, 297840, Note_on_c, 0, 79, 0
2, 297840, Note_on_c, 0, 76, 112
2, 297996, Note_on_c, 0, 76, 0
2, 298080, Note_on_c, 0, 76, 114
2, 298320, Note_on_c, 0, 76, 0
2, 298320, Note_on_c, 0, 74, 112
2, 298476, Note_on_c, 0, 74, 0
2, 298560, Note_on_c, 0, 77, 109
2, 298716, Note_on_c, 0, 77, 0
2, 298800, Note_on_c, 0, 74, 107
2, 299040, Note_on_c, 0, 74, 0
2, 299040, Note_on_c, 0, 72, 105
2, 299196, Note_on_c, 0, 72, 0
2, 299280, Note_on_c, 0, 71, 102
2, 299436, Note_on_c, 0, 71, 0
2, 299520, Note_on_c, 0, 72, 100
2, 299880, Note_on_c, 0, 72, 0
2, 300480, Note_on_c, 0, 76, 58
2, 300960, Note_on_c, 0, 76, 0
2, 300960, Note_on_c, 0, 76, 61
2, 301200, Note_on_c, 0, 76, 0
2, 301200, Note_on_c, 0, 77, 59
2, 301260, Note_on_c, 0, 77, 0
2, 301260, Note_on_c, 0, 76, 60
2, 301320, Note_on_c, 0, 76, 0
2, 301320, Note_on_c, 0, 74, 62
2, 301380, Note_on_c, 0, 74, 0
2, 301380, Note_on_c, 0, 76, 63
2, 301440, Note_on_c, 0, 76, 0
2, 301440, Note_on_c, 0, 79, 65
2, 301920, Note_on_c, 0, 79, 0
2, 301920, Note_on_c, 0, 77, 60
2, 302112, Note_on_c, 0, 77, 0
2, 302640, Note_on_c, 0, 80, 57
2, 302760, Note_on_c, 0, 80, 0
2, 302760, Note_on_c, 0, 81, 58
2, 302880, Note_on_c, 0, 81, 0
2, 302880, Note_on_c, 0, 83, 58
2, 303000, Note_on_c, 0, 83, 0
2, 303000, Note_on_c, 0, 81, 59
2, 303120, Note_on_c, 0, 81, 0
2, 303120, Note_on_c, 0, 79, 60
2, 303240, Note_on_c, 0, 79, 0
2, 303240, Note_on_c, 0, 77, 60
2, 303360, Note_on_c, 0, 77, 0
2, 303360, Note_on_c, 0, 76, 61
2, 303480, Note_on_c, 0, 76, 0
2, 303480, Note_on_c, 0, 74, 61
2, 303600, Note_on_c, 0, 74, 0
2, 303600, Note_on_c, 0, 73, 62
2, 303720, Note_on_c, 0, 73, 0
2, 303720, Note_on_c, 0, 74, 63
2, 303840, Note_on_c, 0, 74, 0
2, 303840, Note_on_c, 0, 73, 63
2, 303960, Note_on_c, 0, 73, 0
2, 303960, Note_on_c, 0, 74, 64
2, 304080, Note_on_c, 0, 74, 0
2, 304080, Note_on_c, 0, 76, 65
2, 304200, Note_on_c, 0, 76, 0
2, 304200, Note_on_c, 0, 74, 65
2, 304260, Note_on_c, 0, 74, 0
2, 304260, Note_on_c, 0, 74, 65
2, 304320, Note_on_c, 0, 74, 0
2, 304320, Note_on_c, 0, 77, 66
2, 304800, Note_on_c, 0, 77, 0
2, 304800, Note_on_c, 0, 76, 59
2, 304992, Note_on_c, 0, 76, 0
2, 305400, Note_on_c, 0, 76, 59
2, 305478, Note_on_c, 0, 76, 0
2, 305520, Note_on_c, 0, 77, 60
2, 305598, Note_on_c, 0, 77, 0
2, 305640, Note_on_c, 0, 79, 61
2, 305718, Note_on_c, 0, 79, 0
2, 305760, Note_on_c, 0, 81, 61
2, 305838, Note_on_c, 0, 81, 0
2, 305880, Note_on_c, 0, 83, 62
2, 305958, Note_on_c, 0, 83, 0
2, 306000, Note_on_c, 0, 84, 63
2, 306078, Note_on_c, 0, 84, 0
2, 306120, Note_on_c, 0, 86, 64
2, 306198, Note_on_c, 0, 86, 0
2, 306240, Note_on_c, 0, 87, 64
2, 306360, Note_on_c, 0, 87, 0
2, 306360, Note_on_c, 0, 88, 61
2, 306438, Note_on_c, 0, 88, 0
2, 306480, Note_on_c, 0, 83, 66
2, 306600, Note_on_c, 0, 83, 0
2, 306600, Note_on_c, 0, 84, 63
2, 306678, Note_on_c, 0, 84, 0
2, 306720, Note_on_c, 0, 78, 67
2, 306840, Note_on_c, 0, 78, 0
2, 306840, Note_on_c, 0, 79, 64
2, 306918, Note_on_c, 0, 79, 0
2, 306960, Note_on_c, 0, 75, 68
2, 307080, Note_on_c, 0, 75, 0
2, 307080, Note_on_c, 0, 76, 65
2, 307158, Note_on_c, 0, 76, 0
2, 307200, Note_on_c, 0, 76, 70
2, 307560, Note_on_c, 0, 76, 0
2, 307680, Note_on_c, 0, 74, 62
2, 307872, Note_on_c, 0, 74, 0
2, 308400, Note_on_c, 0, 73, 58
2, 308520, Note_on_c, 0, 73, 0
2, 308520, Note_on_c, 0, 74, 58
2, 308640, Note_on_c, 0, 74, 0
2, 308640, Note_on_c, 0, 76, 59
2, 308760, Note_on_c, 0, 76, 0
2, 308760, Note_on_c, 0, 74, 60
2, 308880, Note_on_c, 0, 74, 0
2, 308880, Note_on_c, 0, 77, 60
2, 309000, Note_on_c, 0, 77, 0
2, 309000, Note_on_c, 0, 74, 61
2, 309120, Note_on_c, 0, 74, 0
2, 309120, Note_on_c, 0, 74, 62
2, 309240, Note_on_c, 0, 74, 0
2, 309240, Note_on_c, 0, 72, 62
2, 309360, Note_on_c, 0, 72, 0
2, 309360, Note_on_c, 0, 71, 63
2, 309480, Note_on_c, 0, 71, 0
2, 309480, Note_on_c, 0, 72, 63
2, 309600, Note_on_c, 0, 72, 0
2, 309600, Note_on_c, 0, 76, 70
2, 309960, Note_on_c, 0, 76, 0
2, 309960, Note_on_c, 0, 72, 66
2, 310080, Note_on_c, 0, 72, 0
2, 310080, Note_on_c, 0, 71, 67
2, 310200, Note_on_c, 0, 71, 0
2, 310200, Note_on_c, 0, 72, 67
2, 310320, Note_on_c, 0, 72, 0
2, 310320, Note_on_c, 0, 71, 68
2, 310440, Note_on_c, 0, 71, 0
2, 310440, Note_on_c, 0, 72, 69
2, 310560, Note_on_c, 0, 72, 0
2, 310560, Note_on_c, 0, 75, 75
2, 310920, Note_on_c, 0, 75, 0
2, 310920, Note_on_c, 0, 72, 71
2, 311040, Note_on_c, 0, 72, 0
2, 311040, Note_on_c, 0, 74, 72
2, 311160, Note_on_c, 0, 74, 0
2, 311160, Note_on_c, 0, 72, 71
2, 311280, Note_on_c, 0, 72, 0
2, 311280, Note_on_c, 0, 71, 71
2, 311400, Note_on_c, 0, 71, 0
2, 311400, Note_on_c, 0, 72, 70
2, 311520, Note_on_c, 0, 72, 0
2, 311520, Note_on_c, 0, 76, 75
2, 311880, Note_on_c, 0, 76, 0
2, 311880, Note_on_c, 0, 72, 67
2, 312000, Note_on_c, 0, 72, 0
2, 312000, Note_on_c, 0, 71, 67
2, 312120, Note_on_c, 0, 71, 0
2, 312120, Note_on_c, 0, 72, 66
2, 312240, Note_on_c, 0, 72, 0
2, 312240, Note_on_c, 0, 71, 65
2, 312360, Note_on_c, 0, 71, 0
2, 312360, Note_on_c, 0, 72, 65
2, 312480, Note_on_c, 0, 72, 0
2, 312480, Note_on_c, 0, 75, 70
2, 312840, Note_on_c, 0, 75, 0
2, 312840, Note_on_c, 0, 72, 61
2, 312960, Note_on_c, 0, 72, 0
2, 312960, Note_on_c, 0, 71, 61
2, 313080, Note_on_c, 0, 71, 0
2, 313080, Note_on_c, 0, 72, 61
2, 313200, Note_on_c, 0, 72, 0
2, 313200, Note_on_c, 0, 76, 62
2, 313320, Note_on_c, 0, 76, 0
2, 313320, Note_on_c, 0, 72, 62
2, 313440, Note_on_c, 0, 72, 0
2, 313440, Note_on_c, 0, 71, 62
2, 313560, Note_on_c, 0, 71, 0
2, 313560, Note_on_c, 0, 72, 62
2, 313680, Note_on_c, 0, 72, 0
2, 313680, Note_on_c, 0, 71, 63
2, 313800, Note_on_c, 0, 71, 0
2, 313800, Note_on_c, 0, 72, 63
2, 313920, Note_on_c, 0, 72, 0
2, 313920, Note_on_c, 0, 71, 63
2, 314040, Note_on_c, 0, 71, 0
2, 314040, Note_on_c, 0, 72, 64
2, 314160, Note_on_c, 0, 72, 0
2, 314160, Note_on_c, 0, 76, 72
2, 314280, Note_on_c, 0, 76, 0
2, 314280, Note_on_c, 0, 72, 64
2, 314400, Note_on_c, 0, 72, 0
2, 314400, Note_on_c, 0, 71, 65
2, 314520, Note_on_c, 0, 71, 0
2, 314520, Note_on_c, 0, 72, 65
2, 314640, Note_on_c, 0, 72, 0
2, 314640, Note_on_c, 0, 76, 72
2, 314760, Note_on_c, 0, 76, 0
2, 314760, Note_on_c, 0, 72, 66
2, 314880, Note_on_c, 0, 72, 0
2, 314880, Note_on_c, 0, 71, 66
2, 314940, Note_on_c, 0, 72, 66
2, 314992, Note_on_c, 0, 71, 0
2, 315000, Note_on_c, 0, 71, 66
2, 315037, Note_on_c, 0, 72, 0
2, 315060, Note_on_c, 0, 72, 66
2, 315109, Note_on_c, 0, 71, 0
2, 315120, Note_on_c, 0, 71, 66
2, 315169, Note_on_c, 0, 72, 0
2, 315180, Note_on_c, 0, 72, 66
2, 315229, Note_on_c, 0, 71, 0
2, 315240, Note_on_c, 0, 71, 67
2, 315289, Note_on_c, 0, 72, 0
2, 315300, Note_on_c, 0, 72, 67
2, 315349, Note_on_c, 0, 71, 0
2, 315360, Note_on_c, 0, 71, 67
2, 315409, Note_on_c, 0, 72, 0
2, 315420, Note_on_c, 0, 72, 67
2, 315469, Note_on_c, 0, 71, 0
2, 315480, Note_on_c, 0, 71, 67
2, 315529, Note_on_c, 0, 72, 0
2, 315540, Note_on_c, 0, 72, 66
2, 315589, Note_on_c, 0, 71, 0
2, 315600, Note_on_c, 0, 71, 68
2, 315649, Note_on_c, 0, 72, 0
2, 315660, Note_on_c, 0, 72, 68
2, 315709, Note_on_c, 0, 71, 0
2, 315720, Note_on_c, 0, 71, 66
2, 315769, Note_on_c, 0, 72, 0
2, 315780, Note_on_c, 0, 72, 68
2, 315829, Note_on_c, 0, 71, 0
2, 315840, Note_on_c, 0, 71, 70
2, 315889, Note_on_c, 0, 72, 0
2, 315900, Note_on_c, 0, 72, 69
2, 315949, Note_on_c, 0, 71, 0
2, 315960, Note_on_c, 0, 71, 66
2, 316009, Note_on_c, 0, 72, 0
2, 316020, Note_on_c, 0, 72, 68
2, 316069, Note_on_c, 0, 71, 0
2, 316080, Note_on_c, 0, 71, 68
2, 316129, Note_on_c, 0, 72, 0
2, 316140, Note_on_c, 0, 72, 67
2, 316189, Note_on_c, 0, 71, 0
2, 316200, Note_on_c, 0, 71, 66
2, 316249, Note_on_c, 0, 72, 0
2, 316260, Note_on_c, 0, 72, 66
2, 316309, Note_on_c, 0, 71, 0
2, 316320, Note_on_c, 0, 71, 66
2, 316369, Note_on_c, 0, 72, 0
2, 316400, Note_on_c, 0, 72, 66
2, 316429, Note_on_c, 0, 71, 0
2, 316480, Note_on_c, 0, 71, 65
2, 316521, Note_on_c, 0, 72, 0
2, 316560, Note_on_c, 0, 69, 64
2, 316612, Note_on_c, 0, 71, 0
2, 316680, Note_on_c, 0, 71, 64
2, 316747, Note_on_c, 0, 69, 0
2, 317272, Note_on_c, 0, 71, 0
2, 317520, Note_on_c, 0, 76, 93
2, 317880, Note_on_c, 0, 76, 0
2, 318000, Note_on_c, 0, 76, 97
2, 318240, Note_on_c, 0, 76, 0
2, 318240, Note_on_c, 0, 74, 98
2, 318600, Note_on_c, 0, 74, 0
2, 318720, Note_on_c, 0, 74, 92
2, 318960, Note_on_c, 0, 74, 0
2, 318960, Note_on_c, 0, 76, 89
2, 319116, Note_on_c, 0, 76, 0
2, 319200, Note_on_c, 0, 77, 91
2, 319356, Note_on_c, 0, 77, 0
2, 319440, Note_on_c, 0, 79, 92
2, 319596, Note_on_c, 0, 79, 0
2, 319680, Note_on_c, 0, 74, 93
2, 320040, Note_on_c, 0, 74, 0
2, 320400, Note_on_c, 0, 79, 88
2, 320880, Note_on_c, 0, 79, 0
2, 320880, Note_on_c, 0, 76, 96
2, 321036, Note_on_c, 0, 76, 0
2, 321120, Note_on_c, 0, 76, 100
2, 321360, Note_on_c, 0, 76, 0
2, 321360, Note_on_c, 0, 74, 98
2, 321516, Note_on_c, 0, 74, 0
2, 321600, Note_on_c, 0, 77, 96
2, 321756, Note_on_c, 0, 77, 0
2, 321840, Note_on_c, 0, 74, 94
2, 322080, Note_on_c, 0, 74, 0
2, 322080, Note_on_c, 0, 72, 91
2, 322236, Note_on_c, 0, 72, 0
2, 322320, Note_on_c, 0, 71, 89
2, 322476, Note_on_c, 0, 71, 0
2, 322560, Note_on_c, 0, 72, 87
2, 322920, Note_on_c, 0, 72, 0
2, 323520, Note_on_c, 0, 64, 62
2, 324000, Note_on_c, 0, 64, 0
2, 324000, Note_on_c, 0, 64, 62
2, 324240, Note_on_c, 0, 64, 0
2, 324240, Note_on_c, 0, 65, 62
2, 324300, Note_on_c, 0, 65, 0
2, 324300, Note_on_c, 0, 64, 62
2, 324360, Note_on_c, 0, 64, 0
2, 324360, Note_on_c, 0, 62, 62
2, 324420, Note_on_c, 0, 62, 0
2, 324420, Note_on_c, 0, 64, 62
2, 324480, Note_on_c, 0, 64, 0
2, 324480, Note_on_c, 0, 67, 62
2, 324960, Note_on_c, 0, 67, 0
2, 324960, Note_on_c, 0, 65, 62
2, 325116, Note_on_c, 0, 65, 0
2, 326400, Note_on_c, 0, 64, 57
2, 326520, Note_on_c, 0, 64, 0
2, 326520, Note_on_c, 0, 62, 58
2, 326640, Note_on_c, 0, 62, 0
2, 326640, Note_on_c, 0, 61, 59
2, 326760, Note_on_c, 0, 61, 0
2, 326760, Note_on_c, 0, 62, 60
2, 326880, Note_on_c, 0, 62, 0
2, 326880, Note_on_c, 0, 61, 61
2, 327000, Note_on_c, 0, 61, 0
2, 327000, Note_on_c, 0, 62, 62
2, 327120, Note_on_c, 0, 62, 0
2, 327120, Note_on_c, 0, 64, 63
2, 327240, Note_on_c, 0, 64, 0
2, 327240, Note_on_c, 0, 62, 64
2, 327300, Note_on_c, 0, 62, 0
2, 327300, Note_on_c, 0, 62, 64
2, 327360, Note_on_c, 0, 62, 0
2, 327360, Note_on_c, 0, 65, 65
2, 327840, Note_on_c, 0, 65, 0
2, 327840, Note_on_c, 0, 64, 62
2, 327996, Note_on_c, 0, 64, 0
2, 329280, Note_on_c, 0, 67, 63
2, 329400, Note_on_c, 0, 67, 0
2, 329400, Note_on_c, 0, 69, 64
2, 329460, Note_on_c, 0, 69, 0
2, 329460, Note_on_c, 0, 67, 64
2, 329520, Note_on_c, 0, 67, 0
2, 329520, Note_on_c, 0, 66, 64
2, 329640, Note_on_c, 0, 66, 0
2, 329640, Note_on_c, 0, 67, 65
2, 329760, Note_on_c, 0, 67, 0
2, 329760, Note_on_c, 0, 69, 66
2, 329880, Note_on_c, 0, 69, 0
2, 329880, Note_on_c, 0, 67, 66
2, 330000, Note_on_c, 0, 67, 0
2, 330000, Note_on_c, 0, 65, 67
2, 330120, Note_on_c, 0, 65, 0
2, 330120, Note_on_c, 0, 64, 68
2, 330240, Note_on_c, 0, 64, 0
2, 330240, Note_on_c, 0, 64, 70
2, 330600, Note_on_c, 0, 64, 0
2, 331440, Note_on_c, 0, 64, 61
2, 331560, Note_on_c, 0, 64, 0
2, 331560, Note_on_c, 0, 65, 62
2, 331680, Note_on_c, 0, 65, 0
2, 331680, Note_on_c, 0, 67, 63
2, 331800, Note_on_c, 0, 67, 0
2, 331800, Note_on_c, 0, 65, 64
2, 331920, Note_on_c, 0, 65, 0
2, 331920, Note_on_c, 0, 64, 64
2, 332040, Note_on_c, 0, 64, 0
2, 332040, Note_on_c, 0, 62, 65
2, 332160, Note_on_c, 0, 62, 0
2, 332160, Note_on_c, 0, 62, 68
2, 332280, Note_on_c, 0, 62, 0
2, 332280, Note_on_c, 0, 60, 68
2, 332400, Note_on_c, 0, 60, 0
2, 332400, Note_on_c, 0, 59, 67
2, 332520, Note_on_c, 0, 59, 0
2, 332520, Note_on_c, 0, 60, 66
2, 332640, Note_on_c, 0, 60, 0
2, 332640, Note_on_c, 0, 64, 66
2, 333000, Note_on_c, 0, 64, 0
2, 333000, Note_on_c, 0, 60, 64
2, 333120, Note_on_c, 0, 60, 0
2, 333120, Note_on_c, 0, 59, 63
2, 333240, Note_on_c, 0, 59, 0
2, 333240, Note_on_c, 0, 60, 63
2, 333360, Note_on_c, 0, 60, 0
2, 333360, Note_on_c, 0, 64, 62
2, 333480, Note_on_c, 0, 64, 0
2, 333480, Note_on_c, 0, 60, 62
2, 333600, Note_on_c, 0, 60, 0
2, 333600, Note_on_c, 0, 59, 61
2, 333720, Note_on_c, 0, 59, 0
2, 333720, Note_on_c, 0, 60, 60
2, 333840, Note_on_c, 0, 60, 0
2, 333840, Note_on_c, 0, 64, 60
2, 333960, Note_on_c, 0, 64, 0
2, 333960, Note_on_c, 0, 60, 59
2, 334080, Note_on_c, 0, 60, 0
2, 334080, Note_on_c, 0, 59, 57
2, 334160, Note_on_c, 0, 60, 58
2, 334176, Note_on_c, 0, 59, 0
2, 334240, Note_on_c, 0, 59, 58
2, 334256, Note_on_c, 0, 60, 0
2, 334320, Note_on_c, 0, 60, 59
2, 334336, Note_on_c, 0, 59, 0
2, 334400, Note_on_c, 0, 59, 60
2, 334416, Note_on_c, 0, 60, 0
2, 334480, Note_on_c, 0, 60, 61
2, 334496, Note_on_c, 0, 59, 0
2, 334560, Note_on_c, 0, 59, 61
2, 334576, Note_on_c, 0, 60, 0
2, 334640, Note_on_c, 0, 60, 62
2, 334656, Note_on_c, 0, 59, 0
2, 334720, Note_on_c, 0, 59, 63
2, 334736, Note_on_c, 0, 60, 0
2, 334800, Note_on_c, 0, 60, 64
2, 334816, Note_on_c, 0, 59, 0
2, 334880, Note_on_c, 0, 59, 64
2, 334896, Note_on_c, 0, 60, 0
2, 334960, Note_on_c, 0, 60, 65
2, 334976, Note_on_c, 0, 59, 0
2, 335040, Note_on_c, 0, 59, 68
2, 335040, Note_on_c, 0, 74, 62
2, 335056, Note_on_c, 0, 60, 0
2, 335120, Note_on_c, 0, 60, 67
2, 335120, Note_on_c, 0, 76, 62
2, 335136, Note_on_c, 0, 74, 0
2, 335136, Note_on_c, 0, 59, 0
2, 335200, Note_on_c, 0, 59, 66
2, 335200, Note_on_c, 0, 74, 62
2, 335216, Note_on_c, 0, 60, 0
2, 335216, Note_on_c, 0, 76, 0
2, 335280, Note_on_c, 0, 60, 66
2, 335280, Note_on_c, 0, 76, 62
2, 335296, Note_on_c, 0, 59, 0
2, 335296, Note_on_c, 0, 74, 0
2, 335360, Note_on_c, 0, 59, 65
2, 335360, Note_on_c, 0, 74, 62
2, 335376, Note_on_c, 0, 60, 0
2, 335376, Note_on_c, 0, 76, 0
2, 335440, Note_on_c, 0, 60, 64
2, 335440, Note_on_c, 0, 76, 62
2, 335456, Note_on_c, 0, 59, 0
2, 335456, Note_on_c, 0, 74, 0
2, 335520, Note_on_c, 0, 59, 63
2, 335520, Note_on_c, 0, 74, 62
2, 335536, Note_on_c, 0, 60, 0
2, 335536, Note_on_c, 0, 76, 0
2, 335600, Note_on_c, 0, 60, 62
2, 335600, Note_on_c, 0, 76, 62
2, 335616, Note_on_c, 0, 59, 0
2, 335616, Note_on_c, 0, 74, 0
2, 335680, Note_on_c, 0, 59, 61
2, 335680, Note_on_c, 0, 74, 62
2, 335696, Note_on_c, 0, 60, 0
2, 335696, Note_on_c, 0, 76, 0
2, 335760, Note_on_c, 0, 72, 62
2, 335760, Note_on_c, 0, 57, 62
2, 335776, Note_on_c, 0, 59, 0
2, 335776, Note_on_c, 0, 74, 0
2, 335880, Note_on_c, 0, 57, 0
2, 335880, Note_on_c, 0, 59, 59
2, 335880, Note_on_c, 0, 74, 62
2, 335895, Note_on_c, 0, 72, 0
2, 336000, Note_on_c, 0, 74, 0
2, 336000, Note_on_c, 0, 59, 0
2, 336000, Note_on_c, 0, 75, 66
2, 336360, Note_on_c, 0, 75, 0
2, 336480, Note_on_c, 0, 75, 65
2, 336840, Note_on_c, 0, 75, 0
2, 336960, Note_on_c, 0, 74, 64
2, 337320, Note_on_c, 0, 74, 0
2, 337440, Note_on_c, 0, 74, 62
2, 337800, Note_on_c, 0, 74, 0
2, 337860, Note_on_c, 0, 77, 61
2, 337920, Note_on_c, 0, 77, 0
2, 337920, Note_on_c, 0, 75, 61
2, 338160, Note_on_c, 0, 75, 0
2, 338160, Note_on_c, 0, 74, 60
2, 338316, Note_on_c, 0, 74, 0
2, 338400, Note_on_c, 0, 75, 59
2, 338556, Note_on_c, 0, 75, 0
2, 338640, Note_on_c, 0, 79, 59
2, 338796, Note_on_c, 0, 79, 0
2, 338880, Note_on_c, 0, 74, 58
2, 339240, Note_on_c, 0, 74, 0
2, 339840, Note_on_c, 0, 75, 60
2, 339960, Note_on_c, 0, 75, 0
2, 339960, Note_on_c, 0, 87, 60
2, 340320, Note_on_c, 0, 87, 0
2, 340800, Note_on_c, 0, 74, 57
2, 340920, Note_on_c, 0, 74, 0
2, 340920, Note_on_c, 0, 86, 57
2, 341280, Note_on_c, 0, 86, 0
2, 341760, Note_on_c, 0, 75, 55
2, 341880, Note_on_c, 0, 75, 0
2, 341880, Note_on_c, 0, 87, 55
2, 342240, Note_on_c, 0, 87, 0
2, 342600, Note_on_c, 0, 74, 52
2, 342720, Note_on_c, 0, 74, 0
2, 342720, Control_c, 0, 64, 127
2, 342720, Note_on_c, 0, 86, 52
2, 343080, Note_on_c, 0, 86, 0
2, 344400, Control_c, 0, 64, 0
2, 344400, Note_on_c, 0, 64, 61
2, 344760, Note_on_c, 0, 64, 0
2, 344880, Note_on_c, 0, 64, 64
2, 345120, Note_on_c, 0, 64, 0
2, 345120, Note_on_c, 0, 62, 66
2, 345480, Note_on_c, 0, 62, 0
2, 345600, Note_on_c, 0, 62, 62
2, 345840, Note_on_c, 0, 62, 0
2, 345840, Note_on_c, 0, 64, 59
2, 345996, Note_on_c, 0, 64, 0
2, 346080, Note_on_c, 0, 65, 61
2, 346236, Note_on_c, 0, 65, 0
2, 346320, Note_on_c, 0, 67, 62
2, 346476, Note_on_c, 0, 67, 0
2, 346560, Note_on_c, 0, 62, 64
2, 346920, Note_on_c, 0, 62, 0
2, 347280, Note_on_c, 0, 64, 62
2, 347640, Note_on_c, 0, 64, 0
2, 347760, Note_on_c, 0, 64, 64
2, 347916, Note_on_c, 0, 64, 0
2, 348000, Note_on_c, 0, 67, 66
2, 348480, Note_on_c, 0, 67, 0
2, 348480, Note_on_c, 0, 65, 64
2, 348636, Note_on_c, 0, 65, 0
2, 348660, Note_on_c, 0, 64, 63
2, 348720, Note_on_c, 0, 64, 0
2, 348720, Note_on_c, 0, 62, 62
2, 348876, Note_on_c, 0, 62, 0
2, 348960, Note_on_c, 0, 61, 61
2, 349116, Note_on_c, 0, 61, 0
2, 349200, Note_on_c, 0, 62, 60
2, 349356, Note_on_c, 0, 62, 0
2, 349440, Note_on_c, 0, 65, 59
2, 349920, Note_on_c, 0, 65, 0
2, 349920, Note_on_c, 0, 64, 62
2, 350076, Note_on_c, 0, 64, 0
2, 350160, Note_on_c, 0, 79, 64
2, 350160, Note_on_c, 0, 67, 64
2, 350640, Note_on_c, 0, 67, 0
2, 350640, Note_on_c, 0, 79, 0
2, 350640, Note_on_c, 0, 76, 67
2, 350640, Note_on_c, 0, 64, 67
2, 350796, Note_on_c, 0, 64, 0
2, 350796, Note_on_c, 0, 76, 0
2, 350880, Note_on_c, 0, 76, 68
2, 350880, Note_on_c, 0, 64, 68
2, 351120, Note_on_c, 0, 64, 0
2, 351120, Note_on_c, 0, 76, 0
2, 351120, Note_on_c, 0, 74, 67
2, 351120, Note_on_c, 0, 62, 67
2, 351276, Note_on_c, 0, 62, 0
2, 351276, Note_on_c, 0, 74, 0
2, 351360, Note_on_c, 0, 77, 66
2, 351360, Note_on_c, 0, 65, 66
2, 351516, Note_on_c, 0, 65, 0
2, 351516, Note_on_c, 0, 77, 0
2, 351600, Note_on_c, 0, 74, 65
2, 351600, Note_on_c, 0, 62, 65
2, 351840, Note_on_c, 0, 62, 0
2, 351840, Note_on_c, 0, 74, 0
2, 351840, Note_on_c, 0, 72, 64
2, 351840, Note_on_c, 0, 60, 64
2, 351996, Note_on_c, 0, 60, 0
2, 351996, Note_on_c, 0, 72, 0
2, 352080, Note_on_c, 0, 71, 63
2, 352080, Note_on_c, 0, 59, 63
2, 352236, Note_on_c, 0, 59, 0
2, 352236, Note_on_c, 0, 71, 0
2, 352320, Note_on_c, 0, 74, 62
2, 352320, Note_on_c, 0, 62, 62
2, 352800, Note_on_c, 0, 62, 0
2, 352800, Note_on_c, 0, 74, 0
2, 352800, Note_on_c, 0, 72, 62
2, 352800, Note_on_c, 0, 60, 62
2, 352956, Note_on_c, 0, 60, 0
2, 352956, Note_on_c, 0, 72, 0
2, 353040, Note_on_c, 0, 79, 105
2, 353520, Note_on_c, 0, 79, 0
2, 353520, Note_on_c, 0, 76, 109
2, 353676, Note_on_c, 0, 76, 0
2, 353760, Note_on_c, 0, 76, 114
2, 354000, Note_on_c, 0, 76, 0
2, 354000, Note_on_c, 0, 74, 112
2, 354156, Note_on_c, 0, 74, 0
2, 354240, Note_on_c, 0, 77, 111
2, 354396, Note_on_c, 0, 77, 0
2, 354480, Note_on_c, 0, 74, 109
2, 354720, Note_on_c, 0, 74, 0
2, 354720, Note_on_c, 0, 72, 107
2, 354876, Note_on_c, 0, 72, 0
2, 355200, Note_on_c, 0, 72, 103
2, 355560, Note_on_c, 0, 72, 0
2, 355920, Note_on_c, 0, 63, 61
2, 356160, Note_on_c, 0, 63, 0
2, 356160, Note_on_c, 0, 64, 64
2, 356316, Note_on_c, 0, 64, 0
2, 356400, Note_on_c, 0, 64, 67
2, 356556, Note_on_c, 0, 64, 0
2, 356640, Note_on_c, 0, 67, 75
2, 357120, Note_on_c, 0, 67, 0
2, 357360, Note_on_c, 0, 65, 57
2, 357516, Note_on_c, 0, 65, 0
2, 357600, Note_on_c, 0, 61, 59
2, 357840, Note_on_c, 0, 61, 0
2, 357840, Note_on_c, 0, 62, 62
2, 357996, Note_on_c, 0, 62, 0
2, 358080, Note_on_c, 0, 65, 71
2, 358560, Note_on_c, 0, 65, 0
2, 358560, Note_on_c, 0, 64, 60
2, 358716, Note_on_c, 0, 64, 0
2, 359040, Note_on_c, 0, 60, 61
2, 359196, Note_on_c, 0, 60, 0
2, 359280, Note_on_c, 0, 61, 62
2, 359436, Note_on_c, 0, 61, 0
2, 359520, Note_on_c, 0, 61, 64
2, 359760, Note_on_c, 0, 61, 0
2, 359760, Note_on_c, 0, 62, 65
2, 359916, Note_on_c, 0, 62, 0
2, 360000, Note_on_c, 0, 64, 67
2, 360156, Note_on_c, 0, 64, 0
2, 360240, Note_on_c, 0, 64, 70
2, 360480, Note_on_c, 0, 64, 0
2, 360480, Note_on_c, 0, 65, 68
2, 360636, Note_on_c, 0, 65, 0
2, 360720, Note_on_c, 0, 67, 67
2, 360876, Note_on_c, 0, 67, 0
2, 360960, Note_on_c, 0, 64, 65
2, 361440, Note_on_c, 0, 64, 0
2, 361680, Note_on_c, 0, 83, 81
2, 361800, Note_on_c, 0, 83, 0
2, 361800, Note_on_c, 0, 84, 83
2, 361920, Note_on_c, 0, 84, 0
2, 361920, Note_on_c, 0, 83, 84
2, 362040, Note_on_c, 0, 83, 0
2, 362040, Note_on_c, 0, 84, 85
2, 362160, Note_on_c, 0, 84, 0
2, 362160, Note_on_c, 0, 83, 86
2, 362280, Note_on_c, 0, 83, 0
2, 362280, Note_on_c, 0, 84, 87
2, 362400, Note_on_c, 0, 84, 0
2, 362400, Note_on_c, 0, 85, 88
2, 362880, Note_on_c, 0, 85, 0
2, 362880, Note_on_c, 0, 86, 82
2, 363036, Note_on_c, 0, 86, 0
2, 363120, Note_on_c, 0, 84, 84
2, 363240, Note_on_c, 0, 84, 0
2, 363240, Note_on_c, 0, 83, 85
2, 363360, Note_on_c, 0, 83, 0
2, 363360, Note_on_c, 0, 84, 86
2, 363480, Note_on_c, 0, 84, 0
2, 363480, Note_on_c, 0, 83, 87
2, 363600, Note_on_c, 0, 83, 0
2, 363600, Note_on_c, 0, 84, 89
2, 363720, Note_on_c, 0, 84, 0
2, 363720, Note_on_c, 0, 83, 90
2, 363840, Note_on_c, 0, 83, 0
2, 363840, Note_on_c, 0, 86, 91
2, 364320, Note_on_c, 0, 86, 0
2, 364320, Note_on_c, 0, 84, 88
2, 364476, Note_on_c, 0, 84, 0
2, 364560, Note_on_c, 0, 83, 89
2, 364680, Note_on_c, 0, 83, 0
2, 364680, Note_on_c, 0, 84, 89
2, 364800, Note_on_c, 0, 84, 0
2, 364800, Note_on_c, 0, 83, 90
2, 364920, Note_on_c, 0, 83, 0
2, 364920, Note_on_c, 0, 84, 90
2, 365040, Note_on_c, 0, 84, 0
2, 365040, Note_on_c, 0, 83, 91
2, 365160, Note_on_c, 0, 83, 0
2, 365160, Note_on_c, 0, 84, 92
2, 365280, Note_on_c, 0, 84, 0
2, 365280, Note_on_c, 0, 85, 92
2, 365400, Note_on_c, 0, 85, 0
2, 365400, Note_on_c, 0, 86, 93
2, 365520, Note_on_c, 0, 86, 0
2, 365520, Note_on_c, 0, 85, 93
2, 365640, Note_on_c, 0, 85, 0
2, 365640, Note_on_c, 0, 86, 94
2, 365760, Note_on_c, 0, 86, 0
2, 365760, Note_on_c, 0, 85, 94
2, 365880, Note_on_c, 0, 85, 0
2, 365880, Note_on_c, 0, 86, 95
2, 366000, Note_on_c, 0, 86, 0
2, 366000, Note_on_c, 0, 84, 95
2, 366120, Note_on_c, 0, 84, 0
2, 366120, Note_on_c, 0, 83, 96
2, 366240, Note_on_c, 0, 83, 0
2, 366240, Note_on_c, 0, 84, 96
2, 366360, Note_on_c, 0, 84, 0
2, 366360, Note_on_c, 0, 83, 97
2, 366480, Note_on_c, 0, 83, 0
2, 366480, Note_on_c, 0, 84, 97
2, 366600, Note_on_c, 0, 84, 0
2, 366600, Note_on_c, 0, 83, 98
2, 366720, Note_on_c, 0, 83, 0
2, 366720, Note_on_c, 0, 86, 105
2, 367200, Note_on_c, 0, 86, 0
2, 367200, Note_on_c, 0, 84, 100
2, 367356, Note_on_c, 0, 84, 0
2, 367440, Note_on_c, 0, 83, 101
2, 367560, Note_on_c, 0, 83, 0
2, 367560, Note_on_c, 0, 84, 102
2, 367680, Note_on_c, 0, 84, 0
2, 367680, Note_on_c, 0, 83, 102
2, 367800, Note_on_c, 0, 83, 0
2, 367800, Note_on_c, 0, 84, 103
2, 367920, Note_on_c, 0, 84, 0
2, 367920, Note_on_c, 0, 83, 103
2, 368040, Note_on_c, 0, 83, 0
2, 368040, Note_on_c, 0, 84, 104
2, 368160, Note_on_c, 0, 84, 0
2, 368160, Note_on_c, 0, 85, 104
2, 368280, Note_on_c, 0, 85, 0
2, 368280, Note_on_c, 0, 86, 105
2, 368400, Note_on_c, 0, 86, 0
2, 368400, Note_on_c, 0, 85, 105
2, 368520, Note_on_c, 0, 85, 0
2, 368520, Note_on_c, 0, 86, 106
2, 368640, Note_on_c, 0, 86, 0
2, 368640, Note_on_c, 0, 85, 106
2, 368760, Note_on_c, 0, 85, 0
2, 368760, Note_on_c, 0, 86, 107
2, 368880, Note_on_c, 0, 86, 0
2, 368880, Note_on_c, 0, 84, 107
2, 369000, Note_on_c, 0, 84, 0
2, 369000, Note_on_c, 0, 83, 108
2, 369120, Note_on_c, 0, 83, 0
2, 369120, Note_on_c, 0, 84, 108
2, 369240, Note_on_c, 0, 84, 0
2, 369240, Note_on_c, 0, 83, 109
2, 369360, Note_on_c, 0, 83, 0
2, 369360, Note_on_c, 0, 84, 110
2, 369480, Note_on_c, 0, 84, 0
2, 369480, Note_on_c, 0, 83, 110
2, 369600, Note_on_c, 0, 83, 0
2, 369600, Note_on_c, 0, 84, 120
2, 369756, Note_on_c, 0, 84, 0
2, 370080, Note_on_c, 0, 83, 119
2, 370160, Note_on_c, 0, 83, 0
2, 370160, Note_on_c, 0, 81, 119
2, 370240, Note_on_c, 0, 81, 0
2, 370240, Note_on_c, 0, 79, 118
2, 370320, Note_on_c, 0, 79, 0
2, 370320, Note_on_c, 0, 78, 118
2, 370476, Note_on_c, 0, 78, 0
2, 370800, Note_on_c, 0, 77, 116
2, 370880, Note_on_c, 0, 77, 0
2, 370880, Note_on_c, 0, 76, 116
2, 370960, Note_on_c, 0, 76, 0
2, 370960, Note_on_c, 0, 74, 116
2, 371040, Note_on_c, 0, 74, 0
2, 371040, Note_on_c, 0, 72, 115
2, 371196, Note_on_c, 0, 72, 0
2, 371520, Note_on_c, 0, 83, 114
2, 371600, Note_on_c, 0, 83, 0
2, 371600, Note_on_c, 0, 81, 113
2, 371680, Note_on_c, 0, 81, 0
2, 371680, Note_on_c, 0, 79, 113
2, 371760, Note_on_c, 0, 79, 0
2, 371760, Note_on_c, 0, 78, 113
2, 371916, Note_on_c, 0, 78, 0
2, 372240, Note_on_c, 0, 77, 111
2, 372320, Note_on_c, 0, 77, 0
2, 372320, Note_on_c, 0, 76, 111
2, 372400, Note_on_c, 0, 76, 0
2, 372400, Note_on_c, 0, 74, 110
2, 372480, Note_on_c, 0, 74, 0
2, 372480, Note_on_c, 0, 72, 110
2, 372636, Note_on_c, 0, 72, 0
2, 372960, Note_on_c, 0, 71, 108
2, 373040, Note_on_c, 0, 71, 0
2, 373040, Note_on_c, 0, 69, 108
2, 373120, Note_on_c, 0, 69, 0
2, 373120, Note_on_c, 0, 67, 108
2, 373200, Note_on_c, 0, 67, 0
2, 373200, Note_on_c, 0, 66, 108
2, 373356, Note_on_c, 0, 66, 0
2, 373680, Note_on_c, 0, 65, 106
2, 373760, Note_on_c, 0, 65, 0
2, 373760, Note_on_c, 0, 64, 105
2, 373840, Note_on_c, 0, 64, 0
2, 373840, Note_on_c, 0, 62, 105
2, 373920, Note_on_c, 0, 62, 0
2, 373920, Note_on_c, 0, 60, 105
2, 374160, Note_on_c, 0, 60, 0
2, 374640, Note_on_c, 0, 83, 107
2, 375360, Note_on_c, 0, 83, 0
2, 376080, Note_on_c, 0, 86, 114
2, 376800, Note_on_c, 0, 86, 0
2, 377520, Note_on_c, 0, 89, 121
2, 378000, Note_on_c, 0, 89, 0
2, 378240, Note_on_c, 0, 89, 125
2, 378720, Note_on_c, 0, 89, 0
2, 378960, Note_on_c, 0, 89, 127
2, 379440, Note_on_c, 0, 89, 0
2, 379680, Note_on_c, 0, 89, 127
2, 381120, Note_on_c, 0, 89, 0
2, 381120, Note_on_c, 0, 88, 81
2, 381360, Note_on_c, 0, 88, 0
2, 381840, Note_on_c, 0, 86, 76
2, 382080, Note_on_c, 0, 86, 0
2, 382560, Note_on_c, 0, 84, 72
2, 382800, Note_on_c, 0, 84, 0
2, 382800, End_track
3, 0, Start_track
3, 0, Title_t, "Piano Variation Waldheim"
3, 0, Control_c, 0, 0, 0
3, 0, Control_c, 0, 7, 115
3, 0, Control_c, 0, 10, 73
3, 0, Control_c, 0, 91, 91
3, 0, Control_c, 0, 93, 28
3, 0, Control_c, 0, 64, 0
3, 0, Control_c, 0, 1, 0
3, 0, Pitch_bend_c, 0, 8192
3, 1, Control_c, 0, 32, 0
3, 1, Program_c, 0, 0
3, 960, Note_on_c, 0, 67, 57
3, 1320, Note_on_c, 0, 67, 0
3, 1440, Note_on_c, 0, 67, 59
3, 1800, Note_on_c, 0, 67, 0
3, 1920, Note_on_c, 0, 67, 62
3, 2280, Note_on_c, 0, 67, 0
3, 2400, Note_on_c, 0, 67, 58
3, 2760, Note_on_c, 0, 67, 0
3, 2880, Note_on_c, 0, 67, 59
3, 3240, Note_on_c, 0, 67, 0
3, 3360, Note_on_c, 0, 67, 61
3, 3720, Note_on_c, 0, 67, 0
3, 3840, Note_on_c, 0, 67, 63
3, 4687, Note_on_c, 0, 67, 0
3, 4800, Note_on_c, 0, 67, 60
3, 5160, Note_on_c, 0, 67, 0
3, 5280, Note_on_c, 0, 67, 63
3, 5640, Note_on_c, 0, 67, 0
3, 5760, Note_on_c, 0, 73, 68
3, 6240, Note_on_c, 0, 73, 0
3, 6240, Note_on_c, 0, 74, 58
3, 6432, Note_on_c, 0, 74, 0
3, 6720, Note_on_c, 0, 65, 61
3, 7080, Note_on_c, 0, 65, 0
3, 7200, Note_on_c, 0, 65, 63
3, 7560, Note_on_c, 0, 65, 0
3, 7680, Note_on_c, 0, 71, 66
3, 8160, Note_on_c, 0, 71, 0
3, 8160, Note_on_c, 0, 72, 56
3, 8352, Note_on_c, 0, 72, 0
3, 8640, Note_on_c, 0, 67, 63
3, 9120, Note_on_c, 0, 67, 0
3, 9120, Note_on_c, 0, 70, 66
3, 9600, Note_on_c, 0, 70, 0
3, 9600, Note_on_c, 0, 69, 70
3, 10320, Note_on_c, 0, 69, 0
3, 10320, Note_on_c, 0, 65, 66
3, 10560, Note_on_c, 0, 65, 0
3, 10560, Note_on_c, 0, 64, 64
3, 10920, Note_on_c, 0, 64, 0
3, 11040, Note_on_c, 0, 65, 61
3, 11400, Note_on_c, 0, 65, 0
3, 11520, Note_on_c, 0, 65, 66
3, 12000, Note_on_c, 0, 65, 0
3, 12000, Note_on_c, 0, 64, 56
3, 12192, Note_on_c, 0, 64, 0
3, 12480, Note_on_c, 0, 60, 55
3, 12636, Note_on_c, 0, 60, 0
3, 12720, Note_on_c, 0, 67, 57
3, 12876, Note_on_c, 0, 67, 0
3, 12960, Note_on_c, 0, 72, 59
3, 13116, Note_on_c, 0, 72, 0
3, 13200, Note_on_c, 0, 67, 60
3, 13356, Note_on_c, 0, 67, 0
3, 13440, Note_on_c, 0, 71, 62
3, 13596, Note_on_c, 0, 71, 0
3, 13680, Note_on_c, 0, 67, 61
3, 13836, Note_on_c, 0, 67, 0
3, 13920, Note_on_c, 0, 59, 60
3, 14076, Note_on_c, 0, 59, 0
3, 14160, Note_on_c, 0, 67, 58
3, 14316, Note_on_c, 0, 67, 0
3, 14400, Note_on_c, 0, 60, 57
3, 14556, Note_on_c, 0, 60, 0
3, 14640, Note_on_c, 0, 67, 58
3, 14796, Note_on_c, 0, 67, 0
3, 14880, Note_on_c, 0, 72, 60
3, 15036, Note_on_c, 0, 72, 0
3, 15120, Note_on_c, 0, 67, 61
3, 15276, Note_on_c, 0, 67, 0
3, 15360, Note_on_c, 0, 71, 62
3, 15516, Note_on_c, 0, 71, 0
3, 15600, Note_on_c, 0, 67, 61
3, 15840, Note_on_c, 0, 67, 0
3, 15840, Note_on_c, 0, 66, 60
3, 16080, Note_on_c, 0, 66, 0
3, 16080, Note_on_c, 0, 67, 59
3, 16320, Note_on_c, 0, 67, 0
3, 16320, Note_on_c, 0, 63, 61
3, 16320, Note_on_c, 0, 67, 61
3, 16680, Note_on_c, 0, 67, 0
3, 16680, Note_on_c, 0, 63, 0
3, 16800, Note_on_c, 0, 67, 64
3, 16800, Note_on_c, 0, 63, 64
3, 17160, Note_on_c, 0, 63, 0
3, 17160, Note_on_c, 0, 67, 0
3, 17280, Note_on_c, 0, 62, 68
3, 17280, Note_on_c, 0, 67, 68
3, 17640, Note_on_c, 0, 67, 0
3, 17640, Note_on_c, 0, 62, 0
3, 17760, Note_on_c, 0, 67, 64
3, 17760, Note_on_c, 0, 62, 64
3, 18120, Note_on_c, 0, 62, 0
3, 18120, Note_on_c, 0, 67, 0
3, 18240, Note_on_c, 0, 63, 61
3, 18240, Note_on_c, 0, 67, 61
3, 18600, Note_on_c, 0, 67, 0
3, 18600, Note_on_c, 0, 63, 0
3, 18720, Note_on_c, 0, 63, 64
3, 18720, Note_on_c, 0, 67, 64
3, 19080, Note_on_c, 0, 67, 0
3, 19080, Note_on_c, 0, 63, 0
3, 19200, Note_on_c, 0, 62, 70
3, 19200, Note_on_c, 0, 67, 70
3, 19356, Note_on_c, 0, 67, 0
3, 19356, Note_on_c, 0, 62, 0
3, 19440, Note_on_c, 0, 67, 69
3, 19680, Note_on_c, 0, 67, 0
3, 19680, Note_on_c, 0, 66, 68
3, 19920, Note_on_c, 0, 66, 0
3, 19920, Note_on_c, 0, 65, 66
3, 20160, Note_on_c, 0, 65, 0
3, 20160, Note_on_c, 0, 64, 66
3, 20400, Note_on_c, 0, 64, 0
3, 20400, Note_on_c, 0, 67, 68
3, 20640, Note_on_c, 0, 67, 0
3, 20640, Note_on_c, 0, 69, 70
3, 20880, Note_on_c, 0, 69, 0
3, 20880, Note_on_c, 0, 67, 72
3, 21120, Note_on_c, 0, 67, 0
3, 21120, Note_on_c, 0, 62, 74
3, 21360, Note_on_c, 0, 62, 0
3, 21360, Note_on_c, 0, 67, 73
3, 21600, Note_on_c, 0, 67, 0
3, 21600, Note_on_c, 0, 69, 72
3, 21840, Note_on_c, 0, 69, 0
3, 21840, Note_on_c, 0, 67, 71
3, 22080, Note_on_c, 0, 67, 0
3, 22080, Note_on_c, 0, 67, 71
3, 22320, Note_on_c, 0, 67, 0
3, 22320, Note_on_c, 0, 67, 72
3, 22800, Note_on_c, 0, 67, 0
3, 22800, Note_on_c, 0, 67, 76
3, 23040, Note_on_c, 0, 67, 0
3, 23040, Note_on_c, 0, 62, 77
3, 23280, Note_on_c, 0, 62, 0
3, 23280, Note_on_c, 0, 67, 77
3, 23520, Note_on_c, 0, 67, 0
3, 23520, Note_on_c, 0, 69, 76
3, 23760, Note_on_c, 0, 69, 0
3, 23760, Note_on_c, 0, 67, 74
3, 24000, Note_on_c, 0, 67, 0
3, 24000, Note_on_c, 0, 72, 80
3, 24240, Note_on_c, 0, 72, 0
3, 24240, Note_on_c, 0, 67, 79
3, 24480, Note_on_c, 0, 67, 0
3, 24480, Note_on_c, 0, 70, 85
3, 24720, Note_on_c, 0, 70, 0
3, 24720, Note_on_c, 0, 67, 84
3, 24960, Note_on_c, 0, 67, 0
3, 24960, Note_on_c, 0, 69, 87
3, 25200, Note_on_c, 0, 69, 0
3, 25200, Note_on_c, 0, 65, 86
3, 25440, Note_on_c, 0, 65, 0
3, 25440, Note_on_c, 0, 69, 84
3, 25680, Note_on_c, 0, 69, 0
3, 25680, Note_on_c, 0, 65, 83
3, 25920, Note_on_c, 0, 65, 0
3, 25920, Note_on_c, 0, 67, 81
3, 26160, Note_on_c, 0, 67, 0
3, 26160, Note_on_c, 0, 64, 79
3, 26400, Note_on_c, 0, 64, 0
3, 26400, Note_on_c, 0, 62, 77
3, 26640, Note_on_c, 0, 62, 0
3, 26640, Note_on_c, 0, 65, 75
3, 26880, Note_on_c, 0, 65, 0
3, 26880, Note_on_c, 0, 65, 73
3, 27360, Note_on_c, 0, 65, 0
3, 27360, Note_on_c, 0, 64, 63
3, 27552, Note_on_c, 0, 64, 0
3, 39360, Note_on_c, 0, 60, 64
3, 39360, Note_on_c, 0, 55, 64
3, 40320, Note_on_c, 0, 55, 0
3, 40320, Note_on_c, 0, 60, 0
3, 40320, Note_on_c, 0, 59, 72
3, 40320, Note_on_c, 0, 55, 72
3, 41280, Note_on_c, 0, 55, 0
3, 41280, Note_on_c, 0, 59, 0
3, 41280, Note_on_c, 0, 60, 61
3, 41280, Note_on_c, 0, 55, 61
3, 42240, Note_on_c, 0, 55, 0
3, 42240, Note_on_c, 0, 60, 0
3, 42240, Note_on_c, 0, 59, 67
3, 42240, Note_on_c, 0, 55, 67
3, 42720, Note_on_c, 0, 55, 0
3, 42720, Note_on_c, 0, 59, 0
3, 54720, Note_on_c, 0, 88, 102
3, 54840, Note_on_c, 0, 88, 0
3, 54840, Note_on_c, 0, 86, 103
3, 54918, Note_on_c, 0, 86, 0
3, 54960, Note_on_c, 0, 84, 104
3, 55038, Note_on_c, 0, 84, 0
3, 55080, Note_on_c, 0, 83, 105
3, 55158, Note_on_c, 0, 83, 0
3, 55200, Note_on_c, 0, 81, 106
3, 55278, Note_on_c, 0, 81, 0
3, 55320, Note_on_c, 0, 79, 107
3, 55398, Note_on_c, 0, 79, 0
3, 55440, Note_on_c, 0, 77, 108
3, 55518, Note_on_c, 0, 77, 0
3, 55560, Note_on_c, 0, 76, 109
3, 55638, Note_on_c, 0, 76, 0
3, 55680, Note_on_c, 0, 74, 110
3, 55758, Note_on_c, 0, 74, 0
3, 55800, Note_on_c, 0, 72, 109
3, 55878, Note_on_c, 0, 72, 0
3, 55920, Note_on_c, 0, 71, 108
3, 55998, Note_on_c, 0, 71, 0
3, 56040, Note_on_c, 0, 69, 107
3, 56118, Note_on_c, 0, 69, 0
3, 56160, Note_on_c, 0, 67, 106
3, 56238, Note_on_c, 0, 67, 0
3, 56280, Note_on_c, 0, 65, 105
3, 56358, Note_on_c, 0, 65, 0
3, 56400, Note_on_c, 0, 64, 104
3, 56478, Note_on_c, 0, 64, 0
3, 56520, Note_on_c, 0, 62, 103
3, 56598, Note_on_c, 0, 62, 0
3, 56640, Note_on_c, 0, 64, 101
3, 56760, Note_on_c, 0, 64, 0
3, 56760, Note_on_c, 0, 65, 102
3, 56838, Note_on_c, 0, 65, 0
3, 56880, Note_on_c, 0, 67, 102
3, 56958, Note_on_c, 0, 67, 0
3, 57000, Note_on_c, 0, 69, 103
3, 57078, Note_on_c, 0, 69, 0
3, 57120, Note_on_c, 0, 71, 104
3, 57198, Note_on_c, 0, 71, 0
3, 57240, Note_on_c, 0, 72, 105
3, 57318, Note_on_c, 0, 72, 0
3, 57360, Note_on_c, 0, 74, 106
3, 57438, Note_on_c, 0, 74, 0
3, 66240, Note_on_c, 0, 72, 68
3, 66480, Note_on_c, 0, 72, 0
3, 66960, Note_on_c, 0, 72, 63
3, 67200, Note_on_c, 0, 72, 0
3, 67200, Note_on_c, 0, 71, 61
3, 67440, Note_on_c, 0, 71, 0
3, 67920, Note_on_c, 0, 74, 58
3, 68160, Note_on_c, 0, 74, 0
3, 68160, Note_on_c, 0, 75, 62
3, 68400, Note_on_c, 0, 75, 0
3, 68880, Note_on_c, 0, 84, 57
3, 69120, Note_on_c, 0, 84, 0
3, 69120, Note_on_c, 0, 83, 56
3, 69360, Note_on_c, 0, 83, 0
3, 70080, Note_on_c, 0, 60, 60
3, 70320, Note_on_c, 0, 60, 0
3, 70800, Note_on_c, 0, 60, 56
3, 71040, Note_on_c, 0, 60, 0
3, 71040, Note_on_c, 0, 59, 54
3, 71280, Note_on_c, 0, 59, 0
3, 71760, Note_on_c, 0, 62, 54
3, 72000, Note_on_c, 0, 62, 0
3, 72000, Note_on_c, 0, 63, 58
3, 72240, Note_on_c, 0, 63, 0
3, 72720, Note_on_c, 0, 60, 55
3, 72960, Note_on_c, 0, 60, 0
3, 72960, Note_on_c, 0, 59, 53
3, 73080, Note_on_c, 0, 79, 65
3, 73158, Note_on_c, 0, 79, 0
3, 73200, Note_on_c, 0, 59, 0
3, 73200, Note_on_c, 0, 81, 70
3, 73278, Note_on_c, 0, 81, 0
3, 73320, Note_on_c, 0, 83, 75
3, 73398, Note_on_c, 0, 83, 0
3, 73440, Note_on_c, 0, 84, 80
3, 73518, Note_on_c, 0, 84, 0
3, 73560, Note_on_c, 0, 85, 85
3, 73638, Note_on_c, 0, 85, 0
3, 73680, Note_on_c, 0, 86, 90
3, 73758, Note_on_c, 0, 86, 0
3, 73800, Note_on_c, 0, 87, 95
3, 73878, Note_on_c, 0, 87, 0
3, 73920, Note_on_c, 0, 88, 107
3, 74040, Note_on_c, 0, 88, 0
3, 74040, Note_on_c, 0, 86, 101
3, 74118, Note_on_c, 0, 86, 0
3, 74160, Note_on_c, 0, 84, 103
3, 74238, Note_on_c, 0, 84, 0
3, 74280, Note_on_c, 0, 83, 104
3, 74358, Note_on_c, 0, 83, 0
3, 74400, Note_on_c, 0, 81, 106
3, 74478, Note_on_c, 0, 81, 0
3, 74520, Note_on_c, 0, 79, 108
3, 74598, Note_on_c, 0, 79, 0
3, 74640, Note_on_c, 0, 77, 109
3, 74718, Note_on_c, 0, 77, 0
3, 74760, Note_on_c, 0, 76, 111
3, 74838, Note_on_c, 0, 76, 0
3, 74880, Note_on_c, 0, 74, 112
3, 74958, Note_on_c, 0, 74, 0
3, 75000, Note_on_c, 0, 72, 111
3, 75078, Note_on_c, 0, 72, 0
3, 75120, Note_on_c, 0, 71, 110
3, 75198, Note_on_c, 0, 71, 0
3, 75240, Note_on_c, 0, 69, 108
3, 75318, Note_on_c, 0, 69, 0
3, 75360, Note_on_c, 0, 67, 107
3, 75438, Note_on_c, 0, 67, 0
3, 75480, Note_on_c, 0, 65, 105
3, 75558, Note_on_c, 0, 65, 0
3, 75600, Note_on_c, 0, 64, 104
3, 75678, Note_on_c, 0, 64, 0
3, 75720, Note_on_c, 0, 62, 103
3, 75798, Note_on_c, 0, 62, 0
3, 75840, Note_on_c, 0, 64, 110
3, 75960, Note_on_c, 0, 64, 0
3, 75960, Note_on_c, 0, 65, 101
3, 76038, Note_on_c, 0, 65, 0
3, 76080, Note_on_c, 0, 67, 102
3, 76158, Note_on_c, 0, 67, 0
3, 76200, Note_on_c, 0, 69, 103
3, 76278, Note_on_c, 0, 69, 0
3, 76320, Note_on_c, 0, 71, 103
3, 76398, Note_on_c, 0, 71, 0
3, 76440, Note_on_c, 0, 72, 104
3, 76518, Note_on_c, 0, 72, 0
3, 76560, Note_on_c, 0, 74, 104
3, 76638, Note_on_c, 0, 74, 0
3, 76800, Note_on_c, 0, 74, 114
3, 76920, Note_on_c, 0, 74, 0
3, 76920, Note_on_c, 0, 72, 102
3, 76998, Note_on_c, 0, 72, 0
3, 77040, Note_on_c, 0, 71, 99
3, 77118, Note_on_c, 0, 71, 0
3, 77160, Note_on_c, 0, 69, 96
3, 77238, Note_on_c, 0, 69, 0
3, 77280, Note_on_c, 0, 67, 92
3, 77358, Note_on_c, 0, 67, 0
3, 77400, Note_on_c, 0, 65, 89
3, 77478, Note_on_c, 0, 65, 0
3, 77520, Note_on_c, 0, 64, 85
3, 77598, Note_on_c, 0, 64, 0
3, 77640, Note_on_c, 0, 62, 82
3, 77718, Note_on_c, 0, 62, 0
3, 77760, Note_on_c, 0, 60, 79
3, 77880, Note_on_c, 0, 60, 0
3, 81600, Control_c, 0, 10, 82
3, 82080, Note_on_c, 0, 79, 64
3, 82440, Note_on_c, 0, 79, 0
3, 82440, Note_on_c, 0, 76, 66
3, 82560, Note_on_c, 0, 76, 0
3, 82560, Note_on_c, 0, 74, 67
3, 82800, Note_on_c, 0, 74, 0
3, 84000, Note_on_c, 0, 81, 68
3, 84360, Note_on_c, 0, 81, 0
3, 84360, Note_on_c, 0, 76, 71
3, 84480, Note_on_c, 0, 76, 0
3, 84480, Note_on_c, 0, 74, 72
3, 84720, Note_on_c, 0, 74, 0
3, 86880, Note_on_c, 0, 81, 66
3, 87240, Note_on_c, 0, 81, 0
3, 87240, Note_on_c, 0, 77, 61
3, 87360, Note_on_c, 0, 77, 0
3, 87360, Note_on_c, 0, 74, 62
3, 87600, Note_on_c, 0, 74, 0
3, 88800, Note_on_c, 0, 79, 65
3, 89160, Note_on_c, 0, 79, 0
3, 89160, Note_on_c, 0, 76, 64
3, 89280, Note_on_c, 0, 76, 0
3, 89280, Note_on_c, 0, 76, 66
3, 89520, Note_on_c, 0, 76, 0
3, 91680, Note_on_c, 0, 79, 68
3, 92040, Note_on_c, 0, 79, 0
3, 92040, Note_on_c, 0, 83, 65
3, 92160, Note_on_c, 0, 83, 0
3, 92160, Note_on_c, 0, 84, 64
3, 92400, Note_on_c, 0, 84, 0
3, 101280, Note_on_c, 0, 79, 65
3, 101640, Note_on_c, 0, 79, 0
3, 101640, Note_on_c, 0, 76, 67
3, 101760, Note_on_c, 0, 76, 0
3, 101760, Note_on_c, 0, 74, 68
3, 102000, Note_on_c, 0, 74, 0
3, 103200, Note_on_c, 0, 84, 68
3, 103560, Note_on_c, 0, 84, 0
3, 103560, Note_on_c, 0, 76, 70
3, 103680, Note_on_c, 0, 76, 0
3, 103680, Note_on_c, 0, 74, 71
3, 103920, Note_on_c, 0, 74, 0
3, 105120, Note_on_c, 0, 84, 72
3, 105480, Note_on_c, 0, 84, 0
3, 105480, Note_on_c, 0, 88, 75
3, 105600, Note_on_c, 0, 88, 0
3, 105600, Note_on_c, 0, 89, 80
3, 105840, Note_on_c, 0, 89, 0
3, 107040, Note_on_c, 0, 79, 69
3, 107400, Note_on_c, 0, 79, 0
3, 107400, Note_on_c, 0, 83, 66
3, 107520, Note_on_c, 0, 83, 0
3, 107520, Note_on_c, 0, 84, 65
3, 107760, Note_on_c, 0, 84, 0
3, 108000, Control_c, 0, 10, 64
3, 108420, Note_on_c, 0, 75, 112
3, 108480, Note_on_c, 0, 75, 0
3, 108480, Note_on_c, 0, 76, 112
3, 108720, Note_on_c, 0, 76, 0
3, 109380, Note_on_c, 0, 73, 117
3, 109440, Note_on_c, 0, 73, 0
3, 109440, Note_on_c, 0, 74, 117
3, 109680, Note_on_c, 0, 74, 0
3, 110400, Note_on_c, 0, 72, 65
3, 110760, Note_on_c, 0, 72, 0
3, 110760, Note_on_c, 0, 74, 67
3, 110880, Note_on_c, 0, 74, 0
3, 110880, Note_on_c, 0, 76, 68
3, 111000, Note_on_c, 0, 76, 0
3, 111120, Note_on_c, 0, 76, 69
3, 111240, Note_on_c, 0, 76, 0
3, 111360, Note_on_c, 0, 74, 70
3, 111840, Note_on_c, 0, 74, 0
3, 111840, Note_on_c, 0, 71, 64
3, 112032, Note_on_c, 0, 71, 0
3, 112260, Note_on_c, 0, 75, 105
3, 112320, Note_on_c, 0, 75, 0
3, 112320, Note_on_c, 0, 76, 105
3, 112560, Note_on_c, 0, 76, 0
3, 113220, Note_on_c, 0, 76, 109
3, 113280, Note_on_c, 0, 76, 0
3, 113280, Note_on_c, 0, 77, 110
3, 113520, Note_on_c, 0, 77, 0
3, 114720, Note_on_c, 0, 67, 59
3, 114840, Note_on_c, 0, 67, 0
3, 114960, Note_on_c, 0, 67, 61
3, 115080, Note_on_c, 0, 67, 0
3, 115200, Note_on_c, 0, 67, 62
3, 115920, Note_on_c, 0, 67, 0
3, 116100, Note_on_c, 0, 72, 110
3, 116160, Note_on_c, 0, 72, 0
3, 116160, Note_on_c, 0, 73, 110
3, 116400, Note_on_c, 0, 73, 0
3, 117060, Note_on_c, 0, 73, 115
3, 117120, Note_on_c, 0, 73, 0
3, 117120, Note_on_c, 0, 74, 115
3, 117360, Note_on_c, 0, 74, 0
3, 118560, Note_on_c, 0, 67, 65
3, 118680, Note_on_c, 0, 67, 0
3, 118800, Note_on_c, 0, 67, 67
3, 118920, Note_on_c, 0, 67, 0
3, 119040, Note_on_c, 0, 67, 68
3, 119760, Note_on_c, 0, 67, 0
3, 125760, Note_on_c, 0, 72, 63
3, 126120, Note_on_c, 0, 72, 0
3, 126120, Note_on_c, 0, 74, 59
3, 126240, Note_on_c, 0, 74, 0
3, 126240, Note_on_c, 0, 75, 58
3, 126360, Note_on_c, 0, 75, 0
3, 126480, Note_on_c, 0, 75, 55
3, 126600, Note_on_c, 0, 75, 0
3, 126720, Note_on_c, 0, 74, 62
3, 127200, Note_on_c, 0, 74, 0
3, 127320, Note_on_c, 0, 71, 54
3, 127440, Note_on_c, 0, 71, 0
3, 127440, Note_on_c, 0, 72, 52
3, 127560, Note_on_c, 0, 72, 0
3, 127560, Note_on_c, 0, 74, 51
3, 127620, Note_on_c, 0, 75, 111
3, 127680, Note_on_c, 0, 75, 0
3, 127680, Note_on_c, 0, 74, 0
3, 127680, Note_on_c, 0, 76, 111
3, 127920, Note_on_c, 0, 76, 0
3, 128580, Note_on_c, 0, 73, 118
3, 128640, Note_on_c, 0, 73, 0
3, 128640, Note_on_c, 0, 74, 118
3, 128880, Note_on_c, 0, 74, 0
3, 129600, Note_on_c, 0, 72, 63
3, 129960, Note_on_c, 0, 72, 0
3, 129960, Note_on_c, 0, 74, 65
3, 130080, Note_on_c, 0, 74, 0
3, 130080, Note_on_c, 0, 76, 66
3, 130200, Note_on_c, 0, 76, 0
3, 130320, Note_on_c, 0, 76, 68
3, 130440, Note_on_c, 0, 76, 0
3, 130560, Note_on_c, 0, 74, 69
3, 131040, Note_on_c, 0, 74, 0
3, 131040, Note_on_c, 0, 71, 62
3, 131232, Note_on_c, 0, 71, 0
3, 131460, Note_on_c, 0, 75, 105
3, 131520, Note_on_c, 0, 75, 0
3, 131520, Note_on_c, 0, 76, 105
3, 131760, Note_on_c, 0, 76, 0
3, 132420, Note_on_c, 0, 76, 111
3, 132480, Note_on_c, 0, 76, 0
3, 132480, Note_on_c, 0, 77, 111
3, 132720, Note_on_c, 0, 77, 0
3, 133440, Note_on_c, 0, 77, 57
3, 133800, Note_on_c, 0, 77, 0
3, 133800, Note_on_c, 0, 76, 60
3, 133920, Note_on_c, 0, 76, 0
3, 133920, Note_on_c, 0, 74, 61
3, 134040, Note_on_c, 0, 74, 0
3, 134160, Note_on_c, 0, 74, 62
3, 134280, Note_on_c, 0, 74, 0
3, 134400, Note_on_c, 0, 77, 64
3, 134880, Note_on_c, 0, 77, 0
3, 134880, Note_on_c, 0, 76, 55
3, 135072, Note_on_c, 0, 76, 0
3, 135360, Note_on_c, 0, 72, 57
3, 135720, Note_on_c, 0, 72, 0
3, 135840, Note_on_c, 0, 72, 59
3, 136200, Note_on_c, 0, 72, 0
3, 136320, Note_on_c, 0, 72, 62
3, 136800, Note_on_c, 0, 72, 0
3, 136800, Note_on_c, 0, 71, 60
3, 137280, Note_on_c, 0, 71, 0
3, 139440, Note_on_c, 0, 67, 67
3, 139680, Note_on_c, 0, 67, 0
3, 139680, Note_on_c, 0, 72, 68
3, 139836, Note_on_c, 0, 72, 0
3, 139920, Note_on_c, 0, 72, 69
3, 140076, Note_on_c, 0, 72, 0
3, 140400, Note_on_c, 0, 69, 69
3, 140556, Note_on_c, 0, 69, 0
3, 140640, Note_on_c, 0, 69, 67
3, 140880, Note_on_c, 0, 69, 0
3, 140880, Note_on_c, 0, 65, 66
3, 141036, Note_on_c, 0, 65, 0
3, 141120, Note_on_c, 0, 62, 65
3, 141600, Note_on_c, 0, 62, 0
3, 141600, Note_on_c, 0, 67, 66
3, 142080, Note_on_c, 0, 67, 0
3, 142080, Note_on_c, 0, 67, 68
3, 142320, Note_on_c, 0, 67, 0
3, 142320, Note_on_c, 0, 62, 66
3, 142560, Note_on_c, 0, 62, 0
3, 142560, Note_on_c, 0, 64, 63
3, 142800, Note_on_c, 0, 64, 0
3, 143280, Note_on_c, 0, 67, 70
3, 143520, Note_on_c, 0, 67, 0
3, 143520, Note_on_c, 0, 70, 72
3, 143760, Note_on_c, 0, 70, 0
3, 143760, Note_on_c, 0, 67, 75
3, 144000, Note_on_c, 0, 67, 0
3, 144240, Note_on_c, 0, 65, 76
3, 144480, Note_on_c, 0, 65, 0
3, 144480, Note_on_c, 0, 69, 74
3, 144720, Note_on_c, 0, 69, 0
3, 144720, Note_on_c, 0, 62, 72
3, 144960, Note_on_c, 0, 62, 0
3, 145200, Note_on_c, 0, 67, 68
3, 145440, Note_on_c, 0, 67, 0
3, 145680, Note_on_c, 0, 67, 65
3, 145920, Note_on_c, 0, 67, 0
3, 145920, Note_on_c, 0, 67, 63
3, 145920, Note_on_c, 0, 59, 63
3, 146400, Note_on_c, 0, 59, 0
3, 146400, Note_on_c, 0, 60, 59
3, 146640, Note_on_c, 0, 60, 0
3, 146640, Note_on_c, 0, 67, 0
3, 146880, Note_on_c, 0, 63, 63
3, 147360, Note_on_c, 0, 63, 0
3, 147360, Note_on_c, 0, 60, 66
3, 147840, Note_on_c, 0, 60, 0
3, 147840, Note_on_c, 0, 59, 70
3, 148320, Note_on_c, 0, 59, 0
3, 148320, Note_on_c, 0, 55, 68
3, 148800, Note_on_c, 0, 55, 0
3, 148920, Note_on_c, 0, 60, 70
3, 149040, Note_on_c, 0, 60, 0
3, 149040, Note_on_c, 0, 59, 71
3, 149160, Note_on_c, 0, 59, 0
3, 149160, Note_on_c, 0, 60, 72
3, 149280, Note_on_c, 0, 60, 0
3, 149280, Note_on_c, 0, 62, 73
3, 149400, Note_on_c, 0, 62, 0
3, 149400, Note_on_c, 0, 60, 74
3, 149520, Note_on_c, 0, 60, 0
3, 149520, Note_on_c, 0, 59, 74
3, 149640, Note_on_c, 0, 59, 0
3, 149640, Note_on_c, 0, 60, 75
3, 149760, Note_on_c, 0, 60, 0
3, 149760, Note_on_c, 0, 62, 76
3, 149838, Note_on_c, 0, 62, 0
3, 149880, Note_on_c, 0, 55, 74
3, 150000, Note_on_c, 0, 55, 0
3, 150000, Note_on_c, 0, 57, 73
3, 150120, Note_on_c, 0, 57, 0
3, 150120, Note_on_c, 0, 58, 72
3, 150240, Note_on_c, 0, 58, 0
3, 150240, Note_on_c, 0, 59, 72
3, 150360, Note_on_c, 0, 59, 0
3, 150360, Note_on_c, 0, 60, 71
3, 150480, Note_on_c, 0, 60, 0
3, 150480, Note_on_c, 0, 61, 70
3, 150600, Note_on_c, 0, 61, 0
3, 150600, Note_on_c, 0, 62, 70
3, 150720, Note_on_c, 0, 62, 0
3, 150720, Note_on_c, 0, 63, 71
3, 150960, Note_on_c, 0, 63, 0
3, 150960, Note_on_c, 0, 65, 72
3, 151200, Note_on_c, 0, 65, 0
3, 151200, Note_on_c, 0, 66, 73
3, 151440, Note_on_c, 0, 66, 0
3, 151440, Note_on_c, 0, 67, 74
3, 151680, Note_on_c, 0, 67, 0
3, 151680, Note_on_c, 0, 62, 73
3, 151920, Note_on_c, 0, 62, 0
3, 154560, Note_on_c, 0, 72, 61
3, 154920, Note_on_c, 0, 72, 0
3, 155040, Note_on_c, 0, 72, 65
3, 155400, Note_on_c, 0, 72, 0
3, 155520, Note_on_c, 0, 72, 70
3, 156000, Note_on_c, 0, 72, 0
3, 156000, Note_on_c, 0, 71, 68
3, 156480, Note_on_c, 0, 71, 0
3, 158640, Note_on_c, 0, 67, 67
3, 158880, Note_on_c, 0, 67, 0
3, 159120, Note_on_c, 0, 67, 73
3, 159360, Note_on_c, 0, 67, 0
3, 159600, Note_on_c, 0, 65, 74
3, 159840, Note_on_c, 0, 65, 0
3, 159840, Note_on_c, 0, 69, 72
3, 160080, Note_on_c, 0, 69, 0
3, 160080, Note_on_c, 0, 65, 70
3, 160320, Note_on_c, 0, 65, 0
3, 160320, Note_on_c, 0, 67, 68
3, 160560, Note_on_c, 0, 67, 0
3, 160560, Note_on_c, 0, 60, 66
3, 160800, Note_on_c, 0, 60, 0
3, 160800, Note_on_c, 0, 65, 64
3, 161040, Note_on_c, 0, 65, 0
3, 161040, Note_on_c, 0, 59, 62
3, 161280, Note_on_c, 0, 59, 0
3, 161280, Note_on_c, 0, 65, 60
3, 161760, Note_on_c, 0, 65, 0
3, 161760, Note_on_c, 0, 64, 56
3, 162000, Note_on_c, 0, 64, 0
3, 162320, Note_on_c, 0, 84, 100
3, 162400, Note_on_c, 0, 84, 0
3, 162400, Note_on_c, 0, 79, 101
3, 162480, Note_on_c, 0, 79, 0
3, 162560, Note_on_c, 0, 79, 103
3, 162640, Note_on_c, 0, 79, 0
3, 162640, Note_on_c, 0, 76, 104
3, 162720, Note_on_c, 0, 76, 0
3, 162800, Note_on_c, 0, 76, 107
3, 162880, Note_on_c, 0, 76, 0
3, 162880, Note_on_c, 0, 72, 108
3, 162960, Note_on_c, 0, 72, 0
3, 163040, Note_on_c, 0, 72, 110
3, 163120, Note_on_c, 0, 72, 0
3, 163120, Note_on_c, 0, 67, 112
3, 163200, Note_on_c, 0, 67, 0
3, 163280, Note_on_c, 0, 71, 110
3, 163360, Note_on_c, 0, 71, 0
3, 163360, Note_on_c, 0, 67, 109
3, 163440, Note_on_c, 0, 67, 0
3, 163520, Note_on_c, 0, 67, 107
3, 163600, Note_on_c, 0, 67, 0
3, 163600, Note_on_c, 0, 62, 106
3, 163680, Note_on_c, 0, 62, 0
3, 163760, Note_on_c, 0, 62, 104
3, 163840, Note_on_c, 0, 62, 0
3, 163840, Note_on_c, 0, 59, 103
3, 163920, Note_on_c, 0, 59, 0
3, 164000, Note_on_c, 0, 59, 101
3, 164080, Note_on_c, 0, 59, 0
3, 164080, Note_on_c, 0, 55, 100
3, 164160, Note_on_c, 0, 55, 0
3, 166160, Note_on_c, 0, 84, 102
3, 166240, Note_on_c, 0, 84, 0
3, 166240, Note_on_c, 0, 79, 103
3, 166320, Note_on_c, 0, 79, 0
3, 166400, Note_on_c, 0, 79, 104
3, 166480, Note_on_c, 0, 79, 0
3, 166480, Note_on_c, 0, 76, 104
3, 166560, Note_on_c, 0, 76, 0
3, 166640, Note_on_c, 0, 76, 105
3, 166720, Note_on_c, 0, 76, 0
3, 166720, Note_on_c, 0, 72, 106
3, 166800, Note_on_c, 0, 72, 0
3, 166880, Note_on_c, 0, 72, 107
3, 166960, Note_on_c, 0, 72, 0
3, 166960, Note_on_c, 0, 67, 107
3, 167040, Note_on_c, 0, 67, 0
3, 167120, Note_on_c, 0, 72, 109
3, 167200, Note_on_c, 0, 72, 0
3, 167200, Note_on_c, 0, 69, 108
3, 167280, Note_on_c, 0, 69, 0
3, 167360, Note_on_c, 0, 69, 106
3, 167440, Note_on_c, 0, 69, 0
3, 167440, Note_on_c, 0, 65, 106
3, 167520, Note_on_c, 0, 65, 0
3, 167600, Note_on_c, 0, 65, 104
3, 167680, Note_on_c, 0, 65, 0
3, 167680, Note_on_c, 0, 60, 103
3, 167760, Note_on_c, 0, 60, 0
3, 167840, Note_on_c, 0, 60, 101
3, 167920, Note_on_c, 0, 60, 0
3, 167920, Note_on_c, 0, 57, 100
3, 168000, Note_on_c, 0, 57, 0
3, 173760, Note_on_c, 0, 60, 67
3, 174240, Note_on_c, 0, 60, 0
3, 174480, Note_on_c, 0, 60, 74
3, 174720, Note_on_c, 0, 60, 0
3, 174720, Note_on_c, 0, 59, 76
3, 175200, Note_on_c, 0, 79, 69
3, 175560, Note_on_c, 0, 79, 0
3, 175560, Note_on_c, 0, 81, 69
3, 175680, Note_on_c, 0, 81, 0
3, 175680, Note_on_c, 0, 59, 0
3, 175680, Note_on_c, 0, 79, 68
3, 175920, Note_on_c, 0, 79, 0
3, 175920, Note_on_c, 0, 67, 67
3, 176400, Note_on_c, 0, 67, 0
3, 176400, Note_on_c, 0, 63, 70
3, 176640, Note_on_c, 0, 63, 0
3, 176640, Note_on_c, 0, 62, 72
3, 177120, Note_on_c, 0, 79, 65
3, 177480, Note_on_c, 0, 79, 0
3, 177480, Note_on_c, 0, 81, 64
3, 177600, Note_on_c, 0, 81, 0
3, 177600, Note_on_c, 0, 62, 0
3, 177600, Note_on_c, 0, 79, 64
3, 177600, Note_on_c, 0, 60, 63
3, 177840, Note_on_c, 0, 79, 0
3, 177840, Note_on_c, 0, 55, 64
3, 178080, Note_on_c, 0, 60, 0
3, 178320, Note_on_c, 0, 55, 0
3, 178320, Note_on_c, 0, 60, 67
3, 178560, Note_on_c, 0, 60, 0
3, 178560, Note_on_c, 0, 59, 70
3, 179040, Note_on_c, 0, 79, 60
3, 179280, Note_on_c, 0, 59, 0
3, 179280, Note_on_c, 0, 55, 66
3, 179400, Note_on_c, 0, 79, 0
3, 179400, Note_on_c, 0, 80, 60
3, 179520, Note_on_c, 0, 80, 0
3, 179520, Note_on_c, 0, 55, 0
3, 179520, Note_on_c, 0, 79, 59
3, 179760, Note_on_c, 0, 79, 0
3, 180000, Note_on_c, 0, 79, 58
3, 180360, Note_on_c, 0, 79, 0
3, 180360, Note_on_c, 0, 80, 57
3, 180480, Note_on_c, 0, 80, 0
3, 180480, Note_on_c, 0, 79, 57
3, 180720, Note_on_c, 0, 79, 0
3, 181520, Note_on_c, 0, 84, 101
3, 181600, Note_on_c, 0, 84, 0
3, 181600, Note_on_c, 0, 79, 102
3, 181680, Note_on_c, 0, 79, 0
3, 181760, Note_on_c, 0, 79, 103
3, 181840, Note_on_c, 0, 79, 0
3, 181840, Note_on_c, 0, 76, 104
3, 181920, Note_on_c, 0, 76, 0
3, 182000, Note_on_c, 0, 76, 106
3, 182080, Note_on_c, 0, 76, 0
3, 182080, Note_on_c, 0, 72, 107
3, 182160, Note_on_c, 0, 72, 0
3, 182240, Note_on_c, 0, 72, 108
3, 182320, Note_on_c, 0, 72, 0
3, 182320, Note_on_c, 0, 67, 109
3, 182400, Note_on_c, 0, 67, 0
3, 182480, Note_on_c, 0, 71, 109
3, 182560, Note_on_c, 0, 71, 0
3, 182560, Note_on_c, 0, 67, 108
3, 182640, Note_on_c, 0, 67, 0
3, 182720, Note_on_c, 0, 67, 106
3, 182800, Note_on_c, 0, 67, 0
3, 182800, Note_on_c, 0, 62, 106
3, 182880, Note_on_c, 0, 62, 0
3, 182960, Note_on_c, 0, 62, 104
3, 183040, Note_on_c, 0, 62, 0
3, 183040, Note_on_c, 0, 59, 103
3, 183120, Note_on_c, 0, 59, 0
3, 183200, Note_on_c, 0, 59, 101
3, 183280, Note_on_c, 0, 59, 0
3, 183280, Note_on_c, 0, 55, 100
3, 183360, Note_on_c, 0, 55, 0
3, 185360, Note_on_c, 0, 84, 97
3, 185440, Note_on_c, 0, 84, 0
3, 185440, Note_on_c, 0, 79, 98
3, 185520, Note_on_c, 0, 79, 0
3, 185600, Note_on_c, 0, 79, 101
3, 185680, Note_on_c, 0, 79, 0
3, 185680, Note_on_c, 0, 76, 102
3, 185760, Note_on_c, 0, 76, 0
3, 185840, Note_on_c, 0, 76, 105
3, 185920, Note_on_c, 0, 76, 0
3, 185920, Note_on_c, 0, 72, 106
3, 186000, Note_on_c, 0, 72, 0
3, 186080, Note_on_c, 0, 72, 109
3, 186160, Note_on_c, 0, 72, 0
3, 186160, Note_on_c, 0, 67, 110
3, 186240, Note_on_c, 0, 67, 0
3, 186320, Note_on_c, 0, 72, 110
3, 186400, Note_on_c, 0, 72, 0
3, 186400, Note_on_c, 0, 69, 109
3, 186480, Note_on_c, 0, 69, 0
3, 186560, Note_on_c, 0, 69, 106
3, 186640, Note_on_c, 0, 69, 0
3, 186640, Note_on_c, 0, 65, 105
3, 186720, Note_on_c, 0, 65, 0
3, 186800, Note_on_c, 0, 65, 103
3, 186880, Note_on_c, 0, 65, 0
3, 186880, Note_on_c, 0, 60, 102
3, 186960, Note_on_c, 0, 60, 0
3, 187040, Note_on_c, 0, 60, 100
3, 187120, Note_on_c, 0, 60, 0
3, 187120, Note_on_c, 0, 57, 99
3, 187200, Note_on_c, 0, 57, 0
3, 192480, Note_on_c, 0, 67, 64
3, 192640, Note_on_c, 0, 67, 0
3, 192640, Note_on_c, 0, 69, 62
3, 192744, Note_on_c, 0, 69, 0
3, 192800, Note_on_c, 0, 65, 61
3, 192904, Note_on_c, 0, 65, 0
3, 192960, Note_on_c, 0, 64, 61
3, 193116, Note_on_c, 0, 64, 0
3, 193440, Note_on_c, 0, 69, 65
3, 193596, Note_on_c, 0, 69, 0
3, 193680, Note_on_c, 0, 69, 67
3, 193836, Note_on_c, 0, 69, 0
3, 194400, Note_on_c, 0, 69, 66
3, 194556, Note_on_c, 0, 69, 0
3, 194640, Note_on_c, 0, 69, 63
3, 194796, Note_on_c, 0, 69, 0
3, 195360, Note_on_c, 0, 67, 65
3, 195516, Note_on_c, 0, 67, 0
3, 195600, Note_on_c, 0, 67, 66
3, 195756, Note_on_c, 0, 67, 0
3, 196320, Note_on_c, 0, 67, 65
3, 196476, Note_on_c, 0, 67, 0
3, 196560, Note_on_c, 0, 67, 63
3, 196716, Note_on_c, 0, 67, 0
3, 197280, Note_on_c, 0, 67, 71
3, 197436, Note_on_c, 0, 67, 0
3, 197520, Note_on_c, 0, 67, 73
3, 197676, Note_on_c, 0, 67, 0
3, 198960, Note_on_c, 0, 60, 69
3, 199200, Note_on_c, 0, 60, 0
3, 199200, Note_on_c, 0, 59, 67
3, 199440, Note_on_c, 0, 59, 0
3, 199440, Note_on_c, 0, 59, 65
3, 199680, Note_on_c, 0, 59, 0
3, 199680, Note_on_c, 0, 59, 63
3, 200160, Note_on_c, 0, 59, 0
3, 200160, Note_on_c, 0, 55, 58
3, 200400, Note_on_c, 0, 55, 0
3, 201120, Note_on_c, 0, 60, 68
3, 201600, Note_on_c, 0, 60, 0
3, 201600, Note_on_c, 0, 62, 72
3, 202080, Note_on_c, 0, 62, 0
3, 202080, Note_on_c, 0, 65, 67
3, 202320, Note_on_c, 0, 65, 0
3, 203040, Note_on_c, 0, 60, 64
3, 203520, Note_on_c, 0, 60, 0
3, 203520, Note_on_c, 0, 62, 67
3, 204000, Note_on_c, 0, 62, 0
3, 204000, Note_on_c, 0, 55, 61
3, 204240, Note_on_c, 0, 55, 0
3, 204480, Note_on_c, 0, 63, 61
3, 204840, Note_on_c, 0, 63, 0
3, 204840, Note_on_c, 0, 60, 64
3, 204960, Note_on_c, 0, 60, 0
3, 204960, Note_on_c, 0, 63, 65
3, 205080, Note_on_c, 0, 63, 0
3, 205080, Note_on_c, 0, 60, 65
3, 205200, Note_on_c, 0, 60, 0
3, 205200, Note_on_c, 0, 63, 66
3, 205320, Note_on_c, 0, 63, 0
3, 205320, Note_on_c, 0, 60, 67
3, 205440, Note_on_c, 0, 60, 0
3, 205440, Note_on_c, 0, 59, 68
3, 205920, Note_on_c, 0, 59, 0
3, 205920, Note_on_c, 0, 62, 60
3, 206160, Note_on_c, 0, 62, 0
3, 206400, Note_on_c, 0, 63, 61
3, 206760, Note_on_c, 0, 63, 0
3, 206760, Note_on_c, 0, 60, 63
3, 206880, Note_on_c, 0, 60, 0
3, 206880, Note_on_c, 0, 67, 63
3, 207000, Note_on_c, 0, 67, 0
3, 207000, Note_on_c, 0, 63, 63
3, 207120, Note_on_c, 0, 63, 0
3, 207120, Note_on_c, 0, 67, 64
3, 207240, Note_on_c, 0, 67, 0
3, 207240, Note_on_c, 0, 63, 64
3, 207360, Note_on_c, 0, 63, 0
3, 207360, Note_on_c, 0, 62, 57
3, 208800, Note_on_c, 0, 62, 0
3, 210240, Note_on_c, 0, 62, 67
3, 210400, Note_on_c, 0, 62, 0
3, 210400, Note_on_c, 0, 63, 64
3, 210504, Note_on_c, 0, 63, 0
3, 210560, Note_on_c, 0, 63, 65
3, 210664, Note_on_c, 0, 63, 0
3, 210720, Note_on_c, 0, 64, 71
3, 210877, Note_on_c, 0, 64, 0
3, 210880, Note_on_c, 0, 65, 67
3, 210984, Note_on_c, 0, 65, 0
3, 211040, Note_on_c, 0, 65, 67
3, 211144, Note_on_c, 0, 65, 0
3, 211200, Note_on_c, 0, 65, 75
3, 211520, Note_on_c, 0, 64, 68
3, 211522, Note_on_c, 0, 65, 0
3, 211635, Note_on_c, 0, 64, 0
3, 211680, Note_on_c, 0, 64, 71
3, 211784, Note_on_c, 0, 64, 0
3, 211840, Note_on_c, 0, 62, 66
3, 211944, Note_on_c, 0, 62, 0
3, 212000, Note_on_c, 0, 62, 65
3, 212104, Note_on_c, 0, 62, 0
3, 212160, Note_on_c, 0, 62, 71
3, 212475, Note_on_c, 0, 62, 0
3, 212480, Note_on_c, 0, 60, 62
3, 212610, Note_on_c, 0, 60, 0
3, 212640, Note_on_c, 0, 60, 67
3, 212800, Note_on_c, 0, 60, 0
3, 212800, Note_on_c, 0, 59, 59
3, 212904, Note_on_c, 0, 59, 0
3, 212960, Note_on_c, 0, 59, 58
3, 213064, Note_on_c, 0, 59, 0
3, 213120, Note_on_c, 0, 59, 61
3, 213224, Note_on_c, 0, 59, 0
3, 213280, Note_on_c, 0, 64, 56
3, 213384, Note_on_c, 0, 64, 0
3, 213440, Note_on_c, 0, 62, 51
3, 213544, Note_on_c, 0, 62, 0
3, 214560, Note_on_c, 0, 67, 62
3, 214716, Note_on_c, 0, 67, 0
3, 214800, Note_on_c, 0, 67, 64
3, 214956, Note_on_c, 0, 67, 0
3, 215520, Note_on_c, 0, 67, 63
3, 215676, Note_on_c, 0, 67, 0
3, 215760, Note_on_c, 0, 67, 61
3, 215916, Note_on_c, 0, 67, 0
3, 217440, Note_on_c, 0, 67, 66
3, 217600, Note_on_c, 0, 67, 0
3, 217600, Note_on_c, 0, 69, 63
3, 217704, Note_on_c, 0, 69, 0
3, 217760, Note_on_c, 0, 65, 65
3, 217864, Note_on_c, 0, 65, 0
3, 217920, Note_on_c, 0, 64, 67
3, 218160, Note_on_c, 0, 64, 0
3, 218400, Note_on_c, 0, 67, 71
3, 218640, Note_on_c, 0, 67, 0
3, 218640, Note_on_c, 0, 67, 73
3, 218880, Note_on_c, 0, 67, 0
3, 219360, Note_on_c, 0, 69, 73
3, 219600, Note_on_c, 0, 69, 0
3, 219600, Note_on_c, 0, 69, 71
3, 219840, Note_on_c, 0, 69, 0
3, 219840, Note_on_c, 0, 67, 69
3, 220080, Note_on_c, 0, 67, 0
3, 220080, Note_on_c, 0, 67, 67
3, 220320, Note_on_c, 0, 67, 0
3, 220320, Note_on_c, 0, 65, 64
3, 220560, Note_on_c, 0, 65, 0
3, 220560, Note_on_c, 0, 65, 62
3, 220800, Note_on_c, 0, 65, 0
3, 220800, Note_on_c, 0, 65, 60
3, 221280, Note_on_c, 0, 65, 0
3, 221280, Note_on_c, 0, 64, 55
3, 221436, Note_on_c, 0, 64, 0
3, 221760, Note_on_c, 0, 63, 57
3, 222120, Note_on_c, 0, 63, 0
3, 222240, Note_on_c, 0, 63, 61
3, 222600, Note_on_c, 0, 63, 0
3, 222720, Note_on_c, 0, 62, 64
3, 223080, Note_on_c, 0, 62, 0
3, 223200, Note_on_c, 0, 62, 62
3, 223560, Note_on_c, 0, 62, 0
3, 223680, Note_on_c, 0, 63, 62
3, 224040, Note_on_c, 0, 63, 0
3, 224040, Note_on_c, 0, 65, 65
3, 224160, Note_on_c, 0, 65, 0
3, 224160, Note_on_c, 0, 66, 66
3, 224520, Note_on_c, 0, 66, 0
3, 224520, Note_on_c, 0, 67, 70
3, 224640, Note_on_c, 0, 67, 0
3, 224640, Note_on_c, 0, 62, 71
3, 225600, Note_on_c, 0, 62, 0
3, 225600, Note_on_c, 0, 64, 64
3, 225960, Note_on_c, 0, 64, 0
3, 226080, Note_on_c, 0, 64, 68
3, 226440, Note_on_c, 0, 64, 0
3, 226560, Note_on_c, 0, 67, 72
3, 227040, Note_on_c, 0, 67, 0
3, 227040, Note_on_c, 0, 65, 69
3, 227280, Note_on_c, 0, 65, 0
3, 227520, Note_on_c, 0, 63, 63
3, 227880, Note_on_c, 0, 63, 0
3, 227880, Note_on_c, 0, 62, 66
3, 228000, Note_on_c, 0, 62, 0
3, 228000, Note_on_c, 0, 61, 66
3, 228360, Note_on_c, 0, 61, 0
3, 228360, Note_on_c, 0, 62, 69
3, 228480, Note_on_c, 0, 62, 0
3, 228480, Note_on_c, 0, 65, 73
3, 228960, Note_on_c, 0, 65, 0
3, 228960, Note_on_c, 0, 63, 67
3, 229200, Note_on_c, 0, 63, 0
3, 229440, Note_on_c, 0, 67, 81
3, 229800, Note_on_c, 0, 67, 0
3, 229800, Note_on_c, 0, 63, 77
3, 229920, Note_on_c, 0, 63, 0
3, 229920, Note_on_c, 0, 67, 85
3, 230280, Note_on_c, 0, 67, 0
3, 230280, Note_on_c, 0, 63, 82
3, 230400, Note_on_c, 0, 63, 0
3, 230400, Note_on_c, 0, 63, 88
3, 230640, Note_on_c, 0, 63, 0
3, 230640, Note_on_c, 0, 61, 86
3, 230880, Note_on_c, 0, 61, 0
3, 230880, Note_on_c, 0, 65, 84
3, 231120, Note_on_c, 0, 65, 0
3, 231120, Note_on_c, 0, 61, 81
3, 231360, Note_on_c, 0, 61, 0
3, 231360, Note_on_c, 0, 61, 79
3, 231600, Note_on_c, 0, 61, 0
3, 231600, Note_on_c, 0, 60, 77
3, 231840, Note_on_c, 0, 60, 0
3, 231840, Note_on_c, 0, 60, 75
3, 232080, Note_on_c, 0, 60, 0
3, 232080, Note_on_c, 0, 59, 73
3, 232320, Note_on_c, 0, 59, 0
3, 232320, Note_on_c, 0, 62, 70
3, 232800, Note_on_c, 0, 62, 0
3, 232800, Note_on_c, 0, 60, 59
3, 232992, Note_on_c, 0, 60, 0
3, 233280, Note_on_c, 0, 63, 61
3, 233640, Note_on_c, 0, 63, 0
3, 233760, Note_on_c, 0, 63, 63
3, 234120, Note_on_c, 0, 63, 0
3, 234240, Note_on_c, 0, 62, 65
3, 234600, Note_on_c, 0, 62, 0
3, 234720, Note_on_c, 0, 62, 67
3, 235080, Note_on_c, 0, 62, 0
3, 235200, Note_on_c, 0, 63, 70
3, 235560, Note_on_c, 0, 63, 0
3, 235560, Note_on_c, 0, 62, 73
3, 235680, Note_on_c, 0, 62, 0
3, 235680, Note_on_c, 0, 63, 75
3, 236040, Note_on_c, 0, 63, 0
3, 236040, Note_on_c, 0, 67, 78
3, 236160, Note_on_c, 0, 67, 0
3, 236160, Note_on_c, 0, 62, 85
3, 237120, Note_on_c, 0, 62, 0
3, 237120, Note_on_c, 0, 63, 49
3, 237480, Note_on_c, 0, 63, 0
3, 237600, Note_on_c, 0, 63, 50
3, 237960, Note_on_c, 0, 63, 0
3, 238080, Note_on_c, 0, 62, 51
3, 238440, Note_on_c, 0, 62, 0
3, 238560, Note_on_c, 0, 62, 53
3, 239040, Note_on_c, 0, 62, 0
3, 239040, Note_on_c, 0, 63, 54
3, 239400, Note_on_c, 0, 63, 0
3, 239400, Note_on_c, 0, 62, 55
3, 239520, Note_on_c, 0, 62, 0
3, 239520, Note_on_c, 0, 63, 56
3, 239880, Note_on_c, 0, 63, 0
3, 239880, Note_on_c, 0, 67, 55
3, 240000, Note_on_c, 0, 67, 0
3, 240000, Note_on_c, 0, 62, 61
3, 240960, Note_on_c, 0, 62, 0
3, 240960, Note_on_c, 0, 63, 67
3, 241320, Note_on_c, 0, 63, 0
3, 241440, Note_on_c, 0, 63, 70
3, 241800, Note_on_c, 0, 63, 0
3, 241920, Note_on_c, 0, 62, 74
3, 242280, Note_on_c, 0, 62, 0
3, 242400, Note_on_c, 0, 62, 78
3, 242880, Note_on_c, 0, 62, 0
3, 242880, Note_on_c, 0, 63, 81
3, 243240, Note_on_c, 0, 63, 0
3, 243240, Note_on_c, 0, 65, 84
3, 243360, Note_on_c, 0, 65, 0
3, 243360, Note_on_c, 0, 66, 85
3, 243720, Note_on_c, 0, 66, 0
3, 243720, Note_on_c, 0, 67, 88
3, 243840, Note_on_c, 0, 67, 0
3, 243840, Note_on_c, 0, 62, 99
3, 244800, Note_on_c, 0, 62, 0
3, 244800, Note_on_c, 0, 67, 93
3, 245160, Note_on_c, 0, 67, 0
3, 245160, Note_on_c, 0, 63, 86
3, 245280, Note_on_c, 0, 63, 0
3, 245280, Note_on_c, 0, 67, 99
3, 245640, Note_on_c, 0, 67, 0
3, 245640, Note_on_c, 0, 63, 92
3, 245760, Note_on_c, 0, 63, 0
3, 245760, Note_on_c, 0, 63, 107
3, 246000, Note_on_c, 0, 63, 0
3, 246000, Note_on_c, 0, 61, 87
3, 246240, Note_on_c, 0, 61, 0
3, 246240, Note_on_c, 0, 65, 79
3, 246480, Note_on_c, 0, 65, 0
3, 246480, Note_on_c, 0, 61, 72
3, 246720, Note_on_c, 0, 61, 0
3, 246720, Note_on_c, 0, 61, 65
3, 246960, Note_on_c, 0, 61, 0
3, 246960, Note_on_c, 0, 60, 61
3, 247200, Note_on_c, 0, 60, 0
3, 247200, Note_on_c, 0, 60, 58
3, 247440, Note_on_c, 0, 60, 0
3, 247440, Note_on_c, 0, 59, 55
3, 247680, Note_on_c, 0, 59, 0
3, 247680, Note_on_c, 0, 62, 51
3, 248160, Note_on_c, 0, 62, 0
3, 248160, Note_on_c, 0, 60, 45
3, 248400, Note_on_c, 0, 60, 0
3, 250080, Note_on_c, 0, 61, 78
3, 250560, Note_on_c, 0, 61, 0
3, 250560, Note_on_c, 0, 60, 81
3, 250920, Note_on_c, 0, 60, 0
3, 251040, Note_on_c, 0, 60, 77
3, 251520, Note_on_c, 0, 60, 0
3, 251520, Note_on_c, 0, 61, 73
3, 251880, Note_on_c, 0, 61, 0
3, 256480, Note_on_c, 0, 63, 69
3, 256640, Note_on_c, 0, 63, 0
3, 256640, Note_on_c, 0, 68, 67
3, 256800, Note_on_c, 0, 68, 0
3, 256800, Note_on_c, 0, 60, 65
3, 256960, Note_on_c, 0, 63, 65
3, 256961, Note_on_c, 0, 60, 0
3, 257120, Note_on_c, 0, 63, 0
3, 257120, Note_on_c, 0, 68, 62
3, 257280, Note_on_c, 0, 68, 0
3, 257280, Note_on_c, 0, 60, 71
3, 257440, Note_on_c, 0, 63, 64
3, 257600, Note_on_c, 0, 63, 0
3, 257600, Note_on_c, 0, 68, 65
3, 257729, Note_on_c, 0, 60, 0
3, 257760, Note_on_c, 0, 68, 0
3, 257760, Note_on_c, 0, 60, 66
3, 257920, Note_on_c, 0, 63, 67
3, 258080, Note_on_c, 0, 63, 0
3, 258080, Note_on_c, 0, 68, 67
3, 258209, Note_on_c, 0, 60, 0
3, 258240, Note_on_c, 0, 68, 0
3, 258240, Note_on_c, 0, 61, 68
3, 258400, Note_on_c, 0, 63, 67
3, 258560, Note_on_c, 0, 63, 0
3, 258560, Note_on_c, 0, 67, 66
3, 258689, Note_on_c, 0, 61, 0
3, 258720, Note_on_c, 0, 67, 0
3, 258720, Note_on_c, 0, 61, 65
3, 258880, Note_on_c, 0, 63, 63
3, 259040, Note_on_c, 0, 63, 0
3, 259040, Note_on_c, 0, 67, 62
3, 259169, Note_on_c, 0, 61, 0
3, 259200, Note_on_c, 0, 67, 0
3, 259200, Note_on_c, 0, 60, 63
3, 259360, Note_on_c, 0, 63, 64
3, 259520, Note_on_c, 0, 63, 0
3, 259520, Note_on_c, 0, 68, 65
3, 259649, Note_on_c, 0, 60, 0
3, 259680, Note_on_c, 0, 68, 0
3, 259680, Note_on_c, 0, 60, 67
3, 259840, Note_on_c, 0, 63, 68
3, 260000, Note_on_c, 0, 63, 0
3, 260000, Note_on_c, 0, 68, 69
3, 260129, Note_on_c, 0, 60, 0
3, 260160, Note_on_c, 0, 68, 0
3, 260160, Note_on_c, 0, 58, 70
3, 260320, Note_on_c, 0, 63, 68
3, 260480, Note_on_c, 0, 63, 0
3, 260480, Note_on_c, 0, 67, 67
3, 260609, Note_on_c, 0, 58, 0
3, 260640, Note_on_c, 0, 67, 0
3, 260640, Note_on_c, 0, 59, 65
3, 260800, Note_on_c, 0, 63, 64
3, 260960, Note_on_c, 0, 63, 0
3, 260960, Note_on_c, 0, 67, 62
3, 261089, Note_on_c, 0, 59, 0
3, 261120, Note_on_c, 0, 67, 0
3, 261280, Note_on_c, 0, 60, 65
3, 261440, Note_on_c, 0, 60, 0
3, 261440, Note_on_c, 0, 63, 66
3, 261600, Note_on_c, 0, 63, 0
3, 261600, Note_on_c, 0, 56, 68
3, 261760, Note_on_c, 0, 60, 67
3, 261920, Note_on_c, 0, 60, 0
3, 261920, Note_on_c, 0, 65, 67
3, 262049, Note_on_c, 0, 56, 0
3, 262080, Note_on_c, 0, 65, 0
3, 262080, Note_on_c, 0, 55, 71
3, 262240, Note_on_c, 0, 62, 71
3, 262400, Note_on_c, 0, 62, 0
3, 262400, Note_on_c, 0, 65, 73
3, 262512, Note_on_c, 0, 55, 0
3, 262560, Note_on_c, 0, 65, 0
3, 262560, Note_on_c, 0, 55, 74
3, 262720, Note_on_c, 0, 62, 76
3, 262880, Note_on_c, 0, 62, 0
3, 262880, Note_on_c, 0, 65, 71
3, 262992, Note_on_c, 0, 55, 0
3, 263040, Note_on_c, 0, 65, 0
3, 263040, Note_on_c, 0, 56, 77
3, 263200, Note_on_c, 0, 60, 80
3, 263360, Note_on_c, 0, 60, 0
3, 263360, Note_on_c, 0, 65, 82
3, 263472, Note_on_c, 0, 56, 0
3, 263520, Note_on_c, 0, 65, 0
3, 263520, Note_on_c, 0, 60, 87
3, 263520, Note_on_c, 0, 66, 87
3, 264960, Note_on_c, 0, 66, 0
3, 264960, Note_on_c, 0, 60, 0
3, 277200, Note_on_c, 0, 67, 63
3, 277356, Note_on_c, 0, 67, 0
3, 277440, Note_on_c, 0, 67, 65
3, 277596, Note_on_c, 0, 67, 0
3, 277680, Note_on_c, 0, 67, 67
3, 277836, Note_on_c, 0, 67, 0
3, 277920, Note_on_c, 0, 67, 68
3, 278076, Note_on_c, 0, 67, 0
3, 278160, Note_on_c, 0, 67, 67
3, 278316, Note_on_c, 0, 67, 0
3, 278400, Note_on_c, 0, 67, 65
3, 278556, Note_on_c, 0, 67, 0
3, 278640, Note_on_c, 0, 67, 63
3, 278796, Note_on_c, 0, 67, 0
3, 278880, Note_on_c, 0, 67, 65
3, 279036, Note_on_c, 0, 67, 0
3, 279120, Note_on_c, 0, 67, 67
3, 279276, Note_on_c, 0, 67, 0
3, 279360, Note_on_c, 0, 67, 68
3, 279516, Note_on_c, 0, 67, 0
3, 279600, Note_on_c, 0, 67, 67
3, 279756, Note_on_c, 0, 67, 0
3, 279840, Note_on_c, 0, 67, 65
3, 279996, Note_on_c, 0, 67, 0
3, 280080, Note_on_c, 0, 67, 69
3, 280236, Note_on_c, 0, 67, 0
3, 280320, Note_on_c, 0, 67, 72
3, 280476, Note_on_c, 0, 67, 0
3, 280560, Note_on_c, 0, 69, 75
3, 280716, Note_on_c, 0, 69, 0
3, 280800, Note_on_c, 0, 69, 78
3, 280956, Note_on_c, 0, 69, 0
3, 281040, Note_on_c, 0, 69, 74
3, 281196, Note_on_c, 0, 69, 0
3, 281280, Note_on_c, 0, 69, 71
3, 281436, Note_on_c, 0, 69, 0
3, 281520, Note_on_c, 0, 67, 71
3, 281676, Note_on_c, 0, 67, 0
3, 281760, Note_on_c, 0, 67, 73
3, 281916, Note_on_c, 0, 67, 0
3, 282000, Note_on_c, 0, 67, 74
3, 282156, Note_on_c, 0, 67, 0
3, 282240, Note_on_c, 0, 67, 82
3, 282396, Note_on_c, 0, 67, 0
3, 282480, Note_on_c, 0, 67, 79
3, 282636, Note_on_c, 0, 67, 0
3, 282720, Note_on_c, 0, 67, 76
3, 282876, Note_on_c, 0, 67, 0
3, 282960, Note_on_c, 0, 67, 86
3, 283116, Note_on_c, 0, 67, 0
3, 283200, Note_on_c, 0, 67, 84
3, 283356, Note_on_c, 0, 67, 0
3, 283440, Note_on_c, 0, 67, 82
3, 283596, Note_on_c, 0, 67, 0
3, 283680, Note_on_c, 0, 69, 80
3, 283836, Note_on_c, 0, 69, 0
3, 283920, Note_on_c, 0, 69, 78
3, 284076, Note_on_c, 0, 69, 0
3, 284160, Note_on_c, 0, 65, 76
3, 284316, Note_on_c, 0, 65, 0
3, 284400, Note_on_c, 0, 67, 75
3, 284640, Note_on_c, 0, 67, 0
3, 284640, Note_on_c, 0, 64, 73
3, 284796, Note_on_c, 0, 64, 0
3, 284880, Note_on_c, 0, 65, 71
3, 285036, Note_on_c, 0, 65, 0
3, 285120, Note_on_c, 0, 65, 71
3, 285360, Note_on_c, 0, 65, 0
3, 285360, Note_on_c, 0, 64, 65
3, 285516, Note_on_c, 0, 64, 0
3, 285840, Note_on_c, 0, 72, 64
3, 285960, Note_on_c, 0, 72, 0
3, 285960, Note_on_c, 0, 67, 65
3, 286080, Note_on_c, 0, 67, 0
3, 286080, Note_on_c, 0, 66, 66
3, 286200, Note_on_c, 0, 66, 0
3, 286200, Note_on_c, 0, 67, 67
3, 286320, Note_on_c, 0, 67, 0
3, 286320, Note_on_c, 0, 72, 68
3, 286440, Note_on_c, 0, 72, 0
3, 286440, Note_on_c, 0, 67, 69
3, 286560, Note_on_c, 0, 67, 0
3, 286560, Note_on_c, 0, 71, 70
3, 286680, Note_on_c, 0, 71, 0
3, 286680, Note_on_c, 0, 67, 69
3, 286800, Note_on_c, 0, 67, 0
3, 286800, Note_on_c, 0, 66, 68
3, 286920, Note_on_c, 0, 66, 0
3, 286920, Note_on_c, 0, 67, 67
3, 287040, Note_on_c, 0, 67, 0
3, 287040, Note_on_c, 0, 71, 66
3, 287160, Note_on_c, 0, 71, 0
3, 287160, Note_on_c, 0, 67, 64
3, 287280, Note_on_c, 0, 67, 0
3, 287280, Note_on_c, 0, 72, 61
3, 287400, Note_on_c, 0, 72, 0
3, 287400, Note_on_c, 0, 67, 62
3, 287520, Note_on_c, 0, 67, 0
3, 287520, Note_on_c, 0, 66, 63
3, 287640, Note_on_c, 0, 66, 0
3, 287640, Note_on_c, 0, 67, 63
3, 287760, Note_on_c, 0, 67, 0
3, 287760, Note_on_c, 0, 72, 64
3, 287880, Note_on_c, 0, 72, 0
3, 287880, Note_on_c, 0, 67, 65
3, 288000, Note_on_c, 0, 67, 0
3, 288000, Note_on_c, 0, 71, 66
3, 288120, Note_on_c, 0, 71, 0
3, 288120, Note_on_c, 0, 67, 64
3, 288240, Note_on_c, 0, 67, 0
3, 288240, Note_on_c, 0, 66, 61
3, 288360, Note_on_c, 0, 66, 0
3, 288360, Note_on_c, 0, 67, 59
3, 288480, Note_on_c, 0, 67, 0
3, 288480, Note_on_c, 0, 69, 57
3, 288600, Note_on_c, 0, 69, 0
3, 288600, Note_on_c, 0, 67, 55
3, 288720, Note_on_c, 0, 67, 0
3, 288720, Note_on_c, 0, 75, 95
3, 288720, Note_on_c, 0, 63, 95
3, 289080, Note_on_c, 0, 63, 0
3, 289080, Note_on_c, 0, 75, 0
3, 289200, Note_on_c, 0, 75, 99
3, 289200, Note_on_c, 0, 63, 99
3, 289440, Note_on_c, 0, 63, 0
3, 289440, Note_on_c, 0, 75, 0
3, 289440, Note_on_c, 0, 74, 102
3, 289440, Note_on_c, 0, 62, 102
3, 289800, Note_on_c, 0, 62, 0
3, 289800, Note_on_c, 0, 74, 0
3, 289920, Note_on_c, 0, 74, 94
3, 289920, Note_on_c, 0, 62, 94
3, 290160, Note_on_c, 0, 62, 0
3, 290160, Note_on_c, 0, 74, 0
3, 290160, Note_on_c, 0, 75, 91
3, 290160, Note_on_c, 0, 63, 91
3, 290520, Note_on_c, 0, 63, 0
3, 290520, Note_on_c, 0, 75, 0
3, 290640, Note_on_c, 0, 75, 95
3, 290640, Note_on_c, 0, 63, 95
3, 290880, Note_on_c, 0, 63, 0
3, 290880, Note_on_c, 0, 75, 0
3, 290880, Note_on_c, 0, 74, 94
3, 290880, Note_on_c, 0, 62, 94
3, 291240, Note_on_c, 0, 62, 0
3, 291240, Note_on_c, 0, 74, 0
3, 300960, Note_on_c, 0, 61, 61
3, 300960, Note_on_c, 0, 69, 61
3, 301440, Note_on_c, 0, 69, 0
3, 301440, Note_on_c, 0, 61, 0
3, 301440, Note_on_c, 0, 62, 65
3, 301440, Note_on_c, 0, 69, 65
3, 301800, Note_on_c, 0, 69, 0
3, 301800, Note_on_c, 0, 62, 0
3, 301800, Note_on_c, 0, 73, 61
3, 301920, Note_on_c, 0, 73, 0
3, 301920, Note_on_c, 0, 74, 60
3, 302112, Note_on_c, 0, 74, 0
3, 303840, Note_on_c, 0, 67, 63
3, 303840, Note_on_c, 0, 59, 63
3, 304320, Note_on_c, 0, 59, 0
3, 304320, Note_on_c, 0, 67, 0
3, 304320, Note_on_c, 0, 60, 66
3, 304320, Note_on_c, 0, 67, 66
3, 304680, Note_on_c, 0, 67, 0
3, 304680, Note_on_c, 0, 60, 0
3, 304680, Note_on_c, 0, 71, 61
3, 304800, Note_on_c, 0, 71, 0
3, 304800, Note_on_c, 0, 72, 59
3, 304992, Note_on_c, 0, 72, 0
3, 306720, Note_on_c, 0, 64, 67
3, 306720, Note_on_c, 0, 72, 67
3, 307080, Note_on_c, 0, 72, 0
3, 307080, Note_on_c, 0, 73, 69
3, 307200, Note_on_c, 0, 73, 0
3, 307200, Note_on_c, 0, 64, 0
3, 307200, Note_on_c, 0, 69, 70
3, 307200, Note_on_c, 0, 65, 70
3, 307560, Note_on_c, 0, 73, 64
3, 307680, Note_on_c, 0, 73, 0
3, 307920, Note_on_c, 0, 65, 0
3, 307920, Note_on_c, 0, 69, 0
3, 309120, Note_on_c, 0, 64, 62
3, 309600, Note_on_c, 0, 64, 0
3, 309600, Note_on_c, 0, 60, 70
3, 310080, Note_on_c, 0, 60, 0
3, 310080, Note_on_c, 0, 66, 67
3, 310560, Note_on_c, 0, 66, 0
3, 310560, Note_on_c, 0, 60, 75
3, 311040, Note_on_c, 0, 60, 0
3, 311040, Note_on_c, 0, 67, 72
3, 311520, Note_on_c, 0, 67, 0
3, 311520, Note_on_c, 0, 60, 75
3, 312000, Note_on_c, 0, 60, 0
3, 312000, Note_on_c, 0, 66, 67
3, 312480, Note_on_c, 0, 66, 0
3, 312480, Note_on_c, 0, 60, 70
3, 312960, Note_on_c, 0, 60, 0
3, 312960, Note_on_c, 0, 67, 61
3, 313440, Note_on_c, 0, 67, 0
3, 315840, Note_on_c, 0, 65, 70
3, 315900, Note_on_c, 0, 67, 66
3, 315945, Note_on_c, 0, 65, 0
3, 315960, Note_on_c, 0, 65, 66
3, 315990, Note_on_c, 0, 67, 0
3, 316020, Note_on_c, 0, 67, 66
3, 316069, Note_on_c, 0, 65, 0
3, 316080, Note_on_c, 0, 65, 66
3, 316129, Note_on_c, 0, 67, 0
3, 316140, Note_on_c, 0, 67, 68
3, 316189, Note_on_c, 0, 65, 0
3, 316200, Note_on_c, 0, 65, 68
3, 316249, Note_on_c, 0, 67, 0
3, 316260, Note_on_c, 0, 67, 67
3, 316309, Note_on_c, 0, 65, 0
3, 316320, Note_on_c, 0, 65, 66
3, 316369, Note_on_c, 0, 67, 0
3, 316400, Note_on_c, 0, 67, 66
3, 316429, Note_on_c, 0, 65, 0
3, 316480, Note_on_c, 0, 65, 65
3, 316560, Note_on_c, 0, 67, 0
3, 316560, Note_on_c, 0, 64, 64
3, 316635, Note_on_c, 0, 65, 0
3, 316680, Note_on_c, 0, 65, 64
3, 316747, Note_on_c, 0, 64, 0
3, 317287, Note_on_c, 0, 65, 0
3, 325440, Note_on_c, 0, 80, 64
3, 325560, Note_on_c, 0, 80, 0
3, 325560, Note_on_c, 0, 81, 61
3, 325638, Note_on_c, 0, 81, 0
3, 325680, Note_on_c, 0, 78, 62
3, 325800, Note_on_c, 0, 78, 0
3, 325800, Note_on_c, 0, 79, 59
3, 325878, Note_on_c, 0, 79, 0
3, 325920, Note_on_c, 0, 76, 61
3, 326040, Note_on_c, 0, 76, 0
3, 326040, Note_on_c, 0, 77, 58
3, 326118, Note_on_c, 0, 77, 0
3, 326160, Note_on_c, 0, 75, 59
3, 326280, Note_on_c, 0, 75, 0
3, 326280, Note_on_c, 0, 76, 56
3, 326358, Note_on_c, 0, 76, 0
3, 326400, Note_on_c, 0, 74, 57
3, 326556, Note_on_c, 0, 74, 0
3, 328320, Note_on_c, 0, 78, 68
3, 328440, Note_on_c, 0, 78, 0
3, 328440, Note_on_c, 0, 79, 65
3, 328518, Note_on_c, 0, 79, 0
3, 328560, Note_on_c, 0, 76, 67
3, 328680, Note_on_c, 0, 76, 0
3, 328680, Note_on_c, 0, 77, 64
3, 328758, Note_on_c, 0, 77, 0
3, 328800, Note_on_c, 0, 75, 66
3, 328920, Note_on_c, 0, 75, 0
3, 328920, Note_on_c, 0, 76, 63
3, 328998, Note_on_c, 0, 76, 0
3, 329040, Note_on_c, 0, 73, 65
3, 329160, Note_on_c, 0, 73, 0
3, 329160, Note_on_c, 0, 74, 62
3, 329238, Note_on_c, 0, 74, 0
3, 329280, Note_on_c, 0, 72, 63
3, 329358, Note_on_c, 0, 72, 0
3, 330960, Note_on_c, 0, 80, 66
3, 331080, Note_on_c, 0, 80, 0
3, 331080, Note_on_c, 0, 81, 63
3, 331158, Note_on_c, 0, 81, 0
3, 331200, Note_on_c, 0, 76, 64
3, 331320, Note_on_c, 0, 76, 0
3, 331320, Note_on_c, 0, 77, 61
3, 331398, Note_on_c, 0, 77, 0
3, 331440, Note_on_c, 0, 73, 61
3, 331560, Note_on_c, 0, 73, 0
3, 331560, Note_on_c, 0, 74, 58
3, 331680, Note_on_c, 0, 74, 0
3, 336480, Note_on_c, 0, 63, 65
3, 336636, Note_on_c, 0, 63, 0
3, 336720, Note_on_c, 0, 67, 64
3, 336876, Note_on_c, 0, 67, 0
3, 337440, Note_on_c, 0, 62, 62
3, 337596, Note_on_c, 0, 62, 0
3, 337680, Note_on_c, 0, 67, 62
3, 337836, Note_on_c, 0, 67, 0
3, 338400, Note_on_c, 0, 63, 59
3, 338556, Note_on_c, 0, 63, 0
3, 338640, Note_on_c, 0, 67, 59
3, 338796, Note_on_c, 0, 67, 0
3, 339360, Note_on_c, 0, 62, 57
3, 339516, Note_on_c, 0, 62, 0
3, 339600, Note_on_c, 0, 67, 56
3, 339756, Note_on_c, 0, 67, 0
3, 340320, Note_on_c, 0, 63, 54
3, 340320, Note_on_c, 0, 67, 54
3, 340680, Note_on_c, 0, 67, 0
3, 340680, Note_on_c, 0, 63, 0
3, 341280, Note_on_c, 0, 67, 51
3, 341280, Note_on_c, 0, 62, 51
3, 341640, Note_on_c, 0, 62, 0
3, 341640, Note_on_c, 0, 67, 0
3, 342240, Note_on_c, 0, 63, 48
3, 342240, Note_on_c, 0, 67, 48
3, 342600, Note_on_c, 0, 67, 0
3, 342600, Note_on_c, 0, 63, 0
3, 342720, Note_on_c, 0, 67, 47
3, 342720, Note_on_c, 0, 62, 47
3, 343080, Note_on_c, 0, 62, 0
3, 343080, Note_on_c, 0, 67, 0
3, 344400, Note_on_c, 0, 60, 61
3, 344760, Note_on_c, 0, 60, 0
3, 344880, Note_on_c, 0, 60, 64
3, 345120, Note_on_c, 0, 60, 0
3, 345120, Note_on_c, 0, 59, 66
3, 345480, Note_on_c, 0, 59, 0
3, 345600, Note_on_c, 0, 59, 62
3, 345840, Note_on_c, 0, 59, 0
3, 345840, Note_on_c, 0, 60, 59
3, 345996, Note_on_c, 0, 60, 0
3, 346080, Note_on_c, 0, 62, 61
3, 346236, Note_on_c, 0, 62, 0
3, 346320, Note_on_c, 0, 64, 62
3, 346476, Note_on_c, 0, 64, 0
3, 346560, Note_on_c, 0, 59, 64
3, 346920, Note_on_c, 0, 59, 0
3, 356400, Note_on_c, 0, 55, 67
3, 356556, Note_on_c, 0, 55, 0
3, 356640, Note_on_c, 0, 58, 75
3, 357120, Note_on_c, 0, 58, 0
3, 357360, Note_on_c, 0, 57, 57
3, 357516, Note_on_c, 0, 57, 0
3, 357840, Note_on_c, 0, 54, 62
3, 357996, Note_on_c, 0, 54, 0
3, 358080, Note_on_c, 0, 57, 71
3, 358560, Note_on_c, 0, 57, 0
3, 358560, Note_on_c, 0, 55, 60
3, 358716, Note_on_c, 0, 55, 0
3, 358800, Note_on_c, 0, 59, 59
3, 359040, Note_on_c, 0, 59, 0
3, 359280, Note_on_c, 0, 52, 62
3, 359436, Note_on_c, 0, 52, 0
3, 359520, Note_on_c, 0, 52, 64
3, 359760, Note_on_c, 0, 52, 0
3, 359760, Note_on_c, 0, 53, 65
3, 359916, Note_on_c, 0, 53, 0
3, 360000, Note_on_c, 0, 55, 67
3, 360156, Note_on_c, 0, 55, 0
3, 360240, Note_on_c, 0, 56, 70
3, 360480, Note_on_c, 0, 56, 0
3, 360480, Note_on_c, 0, 57, 68
3, 360636, Note_on_c, 0, 57, 0
3, 360720, Note_on_c, 0, 59, 67
3, 360876, Note_on_c, 0, 59, 0
3, 360960, Note_on_c, 0, 60, 65
3, 361440, Note_on_c, 0, 60, 0
3, 361680, Note_on_c, 0, 78, 81
3, 361680, Note_on_c, 0, 63, 81
3, 361800, Note_on_c, 0, 63, 0
3, 361800, Note_on_c, 0, 78, 0
3, 361800, Note_on_c, 0, 79, 83
3, 361800, Note_on_c, 0, 64, 83
3, 361920, Note_on_c, 0, 64, 0
3, 361920, Note_on_c, 0, 79, 0
3, 361920, Note_on_c, 0, 78, 84
3, 361920, Note_on_c, 0, 63, 84
3, 362040, Note_on_c, 0, 63, 0
3, 362040, Note_on_c, 0, 78, 0
3, 362040, Note_on_c, 0, 79, 85
3, 362040, Note_on_c, 0, 64, 85
3, 362160, Note_on_c, 0, 64, 0
3, 362160, Note_on_c, 0, 79, 0
3, 362160, Note_on_c, 0, 78, 86
3, 362160, Note_on_c, 0, 63, 86
3, 362280, Note_on_c, 0, 63, 0
3, 362280, Note_on_c, 0, 78, 0
3, 362280, Note_on_c, 0, 79, 87
3, 362280, Note_on_c, 0, 64, 87
3, 362400, Note_on_c, 0, 64, 0
3, 362400, Note_on_c, 0, 79, 0
3, 362400, Note_on_c, 0, 80, 88
3, 362400, Note_on_c, 0, 64, 88
3, 362880, Note_on_c, 0, 64, 0
3, 362880, Note_on_c, 0, 80, 0
3, 362880, Note_on_c, 0, 81, 82
3, 362880, Note_on_c, 0, 65, 82
3, 363036, Note_on_c, 0, 65, 0
3, 363036, Note_on_c, 0, 81, 0
3, 363120, Note_on_c, 0, 79, 84
3, 363120, Note_on_c, 0, 64, 84
3, 363240, Note_on_c, 0, 64, 0
3, 363240, Note_on_c, 0, 79, 0
3, 363240, Note_on_c, 0, 77, 85
3, 363240, Note_on_c, 0, 62, 85
3, 363360, Note_on_c, 0, 62, 0
3, 363360, Note_on_c, 0, 77, 0
3, 363360, Note_on_c, 0, 79, 86
3, 363360, Note_on_c, 0, 64, 86
3, 363480, Note_on_c, 0, 64, 0
3, 363480, Note_on_c, 0, 79, 0
3, 363480, Note_on_c, 0, 77, 87
3, 363480, Note_on_c, 0, 62, 87
3, 363600, Note_on_c, 0, 62, 0
3, 363600, Note_on_c, 0, 77, 0
3, 363600, Note_on_c, 0, 79, 89
3, 363600, Note_on_c, 0, 64, 89
3, 363720, Note_on_c, 0, 64, 0
3, 363720, Note_on_c, 0, 79, 0
3, 363720, Note_on_c, 0, 77, 90
3, 363720, Note_on_c, 0, 62, 90
3, 363840, Note_on_c, 0, 62, 0
3, 363840, Note_on_c, 0, 77, 0
3, 363840, Note_on_c, 0, 81, 91
3, 363840, Note_on_c, 0, 65, 91
3, 364320, Note_on_c, 0, 65, 0
3, 364320, Note_on_c, 0, 81, 0
3, 364320, Note_on_c, 0, 79, 88
3, 364320, Note_on_c, 0, 64, 88
3, 364476, Note_on_c, 0, 64, 0
3, 364476, Note_on_c, 0, 79, 0
3, 364560, Note_on_c, 0, 78, 89
3, 364560, Note_on_c, 0, 63, 89
3, 364680, Note_on_c, 0, 63, 0
3, 364680, Note_on_c, 0, 78, 0
3, 364680, Note_on_c, 0, 79, 89
3, 364680, Note_on_c, 0, 64, 89
3, 364800, Note_on_c, 0, 64, 0
3, 364800, Note_on_c, 0, 79, 0
3, 364800, Note_on_c, 0, 78, 90
3, 364800, Note_on_c, 0, 63, 90
3, 364920, Note_on_c, 0, 63, 0
3, 364920, Note_on_c, 0, 78, 0
3, 364920, Note_on_c, 0, 79, 90
3, 364920, Note_on_c, 0, 64, 90
3, 365040, Note_on_c, 0, 64, 0
3, 365040, Note_on_c, 0, 79, 0
3, 365040, Note_on_c, 0, 78, 91
3, 365040, Note_on_c, 0, 63, 91
3, 365160, Note_on_c, 0, 63, 0
3, 365160, Note_on_c, 0, 78, 0
3, 365160, Note_on_c, 0, 79, 92
3, 365160, Note_on_c, 0, 64, 92
3, 365280, Note_on_c, 0, 64, 0
3, 365280, Note_on_c, 0, 79, 0
3, 365280, Note_on_c, 0, 80, 92
3, 365280, Note_on_c, 0, 64, 92
3, 365400, Note_on_c, 0, 64, 0
3, 365400, Note_on_c, 0, 80, 0
3, 365400, Note_on_c, 0, 81, 93
3, 365400, Note_on_c, 0, 65, 93
3, 365520, Note_on_c, 0, 65, 0
3, 365520, Note_on_c, 0, 81, 0
3, 365520, Note_on_c, 0, 80, 93
3, 365520, Note_on_c, 0, 64, 93
3, 365640, Note_on_c, 0, 64, 0
3, 365640, Note_on_c, 0, 80, 0
3, 365640, Note_on_c, 0, 81, 94
3, 365640, Note_on_c, 0, 65, 94
3, 365760, Note_on_c, 0, 65, 0
3, 365760, Note_on_c, 0, 81, 0
3, 365760, Note_on_c, 0, 80, 94
3, 365760, Note_on_c, 0, 64, 94
3, 365880, Note_on_c, 0, 64, 0
3, 365880, Note_on_c, 0, 80, 0
3, 365880, Note_on_c, 0, 81, 95
3, 365880, Note_on_c, 0, 65, 95
3, 366000, Note_on_c, 0, 65, 0
3, 366000, Note_on_c, 0, 81, 0
3, 366000, Note_on_c, 0, 79, 95
3, 366000, Note_on_c, 0, 64, 95
3, 366120, Note_on_c, 0, 64, 0
3, 366120, Note_on_c, 0, 79, 0
3, 366120, Note_on_c, 0, 77, 96
3, 366120, Note_on_c, 0, 62, 96
3, 366240, Note_on_c, 0, 62, 0
3, 366240, Note_on_c, 0, 77, 0
3, 366240, Note_on_c, 0, 79, 96
3, 366240, Note_on_c, 0, 64, 96
3, 366360, Note_on_c, 0, 64, 0
3, 366360, Note_on_c, 0, 79, 0
3, 366360, Note_on_c, 0, 77, 97
3, 366360, Note_on_c, 0, 62, 97
3, 366480, Note_on_c, 0, 62, 0
3, 366480, Note_on_c, 0, 77, 0
3, 366480, Note_on_c, 0, 79, 97
3, 366480, Note_on_c, 0, 64, 97
3, 366600, Note_on_c, 0, 64, 0
3, 366600, Note_on_c, 0, 79, 0
3, 366600, Note_on_c, 0, 77, 98
3, 366600, Note_on_c, 0, 62, 98
3, 366720, Note_on_c, 0, 62, 0
3, 366720, Note_on_c, 0, 77, 0
3, 366720, Note_on_c, 0, 81, 105
3, 366720, Note_on_c, 0, 65, 105
3, 367200, Note_on_c, 0, 65, 0
3, 367200, Note_on_c, 0, 81, 0
3, 367200, Note_on_c, 0, 79, 100
3, 367200, Note_on_c, 0, 64, 100
3, 367356, Note_on_c, 0, 64, 0
3, 367356, Note_on_c, 0, 79, 0
3, 367440, Note_on_c, 0, 78, 101
3, 367440, Note_on_c, 0, 63, 101
3, 367560, Note_on_c, 0, 63, 0
3, 367560, Note_on_c, 0, 78, 0
3, 367560, Note_on_c, 0, 79, 102
3, 367560, Note_on_c, 0, 64, 102
3, 367680, Note_on_c, 0, 64, 0
3, 367680, Note_on_c, 0, 79, 0
3, 367680, Note_on_c, 0, 78, 102
3, 367680, Note_on_c, 0, 63, 102
3, 367800, Note_on_c, 0, 63, 0
3, 367800, Note_on_c, 0, 78, 0
3, 367800, Note_on_c, 0, 79, 103
3, 367800, Note_on_c, 0, 64, 103
3, 367920, Note_on_c, 0, 64, 0
3, 367920, Note_on_c, 0, 79, 0
3, 367920, Note_on_c, 0, 78, 103
3, 367920, Note_on_c, 0, 63, 103
3, 368040, Note_on_c, 0, 63, 0
3, 368040, Note_on_c, 0, 78, 0
3, 368040, Note_on_c, 0, 79, 104
3, 368040, Note_on_c, 0, 64, 104
3, 368160, Note_on_c, 0, 64, 0
3, 368160, Note_on_c, 0, 79, 0
3, 368160, Note_on_c, 0, 80, 104
3, 368160, Note_on_c, 0, 64, 104
3, 368280, Note_on_c, 0, 64, 0
3, 368280, Note_on_c, 0, 80, 0
3, 368280, Note_on_c, 0, 81, 105
3, 368280, Note_on_c, 0, 65, 105
3, 368400, Note_on_c, 0, 65, 0
3, 368400, Note_on_c, 0, 81, 0
3, 368400, Note_on_c, 0, 80, 105
3, 368400, Note_on_c, 0, 64, 105
3, 368520, Note_on_c, 0, 64, 0
3, 368520, Note_on_c, 0, 80, 0
3, 368520, Note_on_c, 0, 81, 106
3, 368520, Note_on_c, 0, 65, 106
3, 368640, Note_on_c, 0, 65, 0
3, 368640, Note_on_c, 0, 81, 0
3, 368640, Note_on_c, 0, 80, 106
3, 368640, Note_on_c, 0, 64, 106
3, 368760, Note_on_c, 0, 64, 0
3, 368760, Note_on_c, 0, 80, 0
3, 368760, Note_on_c, 0, 81, 107
3, 368760, Note_on_c, 0, 65, 107
3, 368880, Note_on_c, 0, 65, 0
3, 368880, Note_on_c, 0, 81, 0
3, 368880, Note_on_c, 0, 79, 107
3, 368880, Note_on_c, 0, 64, 107
3, 369000, Note_on_c, 0, 64, 0
3, 369000, Note_on_c, 0, 79, 0
3, 369000, Note_on_c, 0, 77, 108
3, 369000, Note_on_c, 0, 62, 108
3, 369120, Note_on_c, 0, 62, 0
3, 369120, Note_on_c, 0, 77, 0
3, 369120, Note_on_c, 0, 79, 108
3, 369120, Note_on_c, 0, 64, 108
3, 369240, Note_on_c, 0, 64, 0
3, 369240, Note_on_c, 0, 79, 0
3, 369240, Note_on_c, 0, 77, 109
3, 369240, Note_on_c, 0, 62, 109
3, 369360, Note_on_c, 0, 62, 0
3, 369360, Note_on_c, 0, 77, 0
3, 369360, Note_on_c, 0, 79, 110
3, 369360, Note_on_c, 0, 64, 110
3, 369480, Note_on_c, 0, 64, 0
3, 369480, Note_on_c, 0, 79, 0
3, 369480, Note_on_c, 0, 77, 110
3, 369480, Note_on_c, 0, 62, 110
3, 369600, Note_on_c, 0, 62, 0
3, 369600, Note_on_c, 0, 77, 0
3, 369600, Note_on_c, 0, 79, 120
3, 369756, Note_on_c, 0, 79, 0
3, 369840, Note_on_c, 0, 67, 120
3, 369996, Note_on_c, 0, 67, 0
3, 370560, Note_on_c, 0, 67, 117
3, 370716, Note_on_c, 0, 67, 0
3, 371280, Note_on_c, 0, 67, 115
3, 371436, Note_on_c, 0, 67, 0
3, 371520, Note_on_c, 0, 71, 114
3, 371600, Note_on_c, 0, 71, 0
3, 371600, Note_on_c, 0, 69, 113
3, 371680, Note_on_c, 0, 69, 0
3, 371680, Note_on_c, 0, 67, 113
3, 371760, Note_on_c, 0, 67, 0
3, 371760, Note_on_c, 0, 66, 113
3, 371916, Note_on_c, 0, 66, 0
3, 372240, Note_on_c, 0, 65, 111
3, 372320, Note_on_c, 0, 65, 0
3, 372320, Note_on_c, 0, 64, 111
3, 372400, Note_on_c, 0, 64, 0
3, 372400, Note_on_c, 0, 62, 110
3, 372480, Note_on_c, 0, 62, 0
3, 372480, Note_on_c, 0, 60, 110
3, 372636, Note_on_c, 0, 60, 0
3, 372960, Note_on_c, 0, 59, 104
3, 373040, Note_on_c, 0, 59, 0
3, 373040, Note_on_c, 0, 57, 103
3, 373120, Note_on_c, 0, 57, 0
3, 373120, Note_on_c, 0, 55, 103
3, 373200, Note_on_c, 0, 55, 0
3, 373200, Note_on_c, 0, 54, 103
3, 373356, Note_on_c, 0, 54, 0
3, 373680, Note_on_c, 0, 53, 101
3, 373760, Note_on_c, 0, 53, 0
3, 373760, Note_on_c, 0, 52, 100
3, 373840, Note_on_c, 0, 52, 0
3, 373840, Note_on_c, 0, 50, 100
3, 373920, Note_on_c, 0, 50, 0
3, 374640, Note_on_c, 0, 79, 107
3, 374640, Note_on_c, 0, 74, 107
3, 374640, Note_on_c, 0, 71, 107
3, 374640, Note_on_c, 0, 77, 107
3, 374640, Note_on_c, 0, 62, 107
3, 374640, Note_on_c, 0, 67, 107
3, 374640, Note_on_c, 0, 65, 107
3, 375360, Note_on_c, 0, 65, 0
3, 375360, Note_on_c, 0, 62, 0
3, 375360, Note_on_c, 0, 74, 0
3, 375360, Note_on_c, 0, 71, 0
3, 375360, Note_on_c, 0, 79, 0
3, 375360, Note_on_c, 0, 67, 0
3, 375360, Note_on_c, 0, 77, 0
3, 376080, Note_on_c, 0, 77, 114
3, 376080, Note_on_c, 0, 83, 114
3, 376080, Note_on_c, 0, 71, 114
3, 376080, Note_on_c, 0, 74, 114
3, 376080, Note_on_c, 0, 79, 114
3, 376080, Note_on_c, 0, 65, 114
3, 376080, Note_on_c, 0, 67, 114
3, 376800, Note_on_c, 0, 67, 0
3, 376800, Note_on_c, 0, 79, 0
3, 376800, Note_on_c, 0, 83, 0
3, 376800, Note_on_c, 0, 71, 0
3, 376800, Note_on_c, 0, 77, 0
3, 376800, Note_on_c, 0, 65, 0
3, 376800, Note_on_c, 0, 74, 0
3, 377520, Note_on_c, 0, 86, 121
3, 377520, Note_on_c, 0, 83, 121
3, 377520, Note_on_c, 0, 79, 121
3, 377520, Note_on_c, 0, 77, 121
3, 377520, Note_on_c, 0, 67, 121
3, 377520, Note_on_c, 0, 71, 121
3, 377520, Note_on_c, 0, 74, 121
3, 378000, Note_on_c, 0, 74, 0
3, 378000, Note_on_c, 0, 67, 0
3, 378000, Note_on_c, 0, 83, 0
3, 378000, Note_on_c, 0, 79, 0
3, 378000, Note_on_c, 0, 86, 0
3, 378000, Note_on_c, 0, 71, 0
3, 378000, Note_on_c, 0, 77, 0
3, 378240, Note_on_c, 0, 86, 125
3, 378240, Note_on_c, 0, 67, 125
3, 378240, Note_on_c, 0, 79, 125
3, 378240, Note_on_c, 0, 74, 125
3, 378240, Note_on_c, 0, 77, 125
3, 378240, Note_on_c, 0, 83, 125
3, 378240, Note_on_c, 0, 71, 125
3, 378720, Note_on_c, 0, 71, 0
3, 378720, Note_on_c, 0, 77, 0
3, 378720, Note_on_c, 0, 67, 0
3, 378720, Note_on_c, 0, 79, 0
3, 378720, Note_on_c, 0, 86, 0
3, 378720, Note_on_c, 0, 83, 0
3, 378720, Note_on_c, 0, 74, 0
3, 378960, Note_on_c, 0, 86, 127
3, 378960, Note_on_c, 0, 79, 127
3, 378960, Note_on_c, 0, 67, 127
3, 378960, Note_on_c, 0, 74, 127
3, 378960, Note_on_c, 0, 77, 127
3, 378960, Note_on_c, 0, 83, 127
3, 378960, Note_on_c, 0, 71, 127
3, 379440, Note_on_c, 0, 71, 0
3, 379440, Note_on_c, 0, 77, 0
3, 379440, Note_on_c, 0, 79, 0
3, 379440, Note_on_c, 0, 67, 0
3, 379440, Note_on_c, 0, 86, 0
3, 379440, Note_on_c, 0, 83, 0
3, 379440, Note_on_c, 0, 74, 0
3, 379680, Note_on_c, 0, 86, 127
3, 379680, Note_on_c, 0, 74, 127
3, 379680, Note_on_c, 0, 77, 127
3, 379680, Note_on_c, 0, 79, 127
3, 379680, Note_on_c, 0, 83, 127
3, 379680, Note_on_c, 0, 67, 127
3, 379680, Note_on_c, 0, 71, 127
3, 381120, Note_on_c, 0, 71, 0
3, 381120, Note_on_c, 0, 83, 0
3, 381120, Note_on_c, 0, 74, 0
3, 381120, Note_on_c, 0, 77, 0
3, 381120, Note_on_c, 0, 86, 0
3, 381120, Note_on_c, 0, 67, 0
3, 381120, Note_on_c, 0, 79, 0
3, 381120, End_track
4, 0, Start_track
4, 0, Title_t, "Piano"
4, 0, Control_c, 0, 0, 0
4, 0, Control_c, 0, 7, 115
4, 0, Control_c, 0, 10, 54
4, 0, Control_c, 0, 91, 91
4, 0, Control_c, 0, 93, 28
4, 0, Control_c, 0, 64, 0
4, 0, Control_c, 0, 1, 0
4, 0, Pitch_bend_c, 0, 8192
4, 1, Control_c, 0, 32, 0
4, 1, Program_c, 0, 0
4, 960, Note_on_c, 0, 60, 57
4, 1320, Note_on_c, 0, 60, 0
4, 1440, Note_on_c, 0, 60, 59
4, 1800, Note_on_c, 0, 60, 0
4, 1920, Note_on_c, 0, 59, 62
4, 2280, Note_on_c, 0, 59, 0
4, 2400, Note_on_c, 0, 59, 58
4, 2760, Note_on_c, 0, 59, 0
4, 2880, Note_on_c, 0, 60, 59
4, 3240, Note_on_c, 0, 60, 0
4, 3360, Note_on_c, 0, 60, 61
4, 3720, Note_on_c, 0, 60, 0
4, 3840, Note_on_c, 0, 59, 63
4, 3840, Note_on_c, 0, 55, 63
4, 4680, Note_on_c, 0, 55, 0
4, 4680, Note_on_c, 0, 59, 0
4, 4800, Note_on_c, 0, 58, 60
4, 5160, Note_on_c, 0, 58, 0
4, 5280, Note_on_c, 0, 57, 63
4, 5640, Note_on_c, 0, 57, 0
4, 5760, Note_on_c, 0, 64, 65
4, 5760, Note_on_c, 0, 57, 65
4, 6240, Note_on_c, 0, 64, 0
4, 6240, Note_on_c, 0, 62, 55
4, 6432, Note_on_c, 0, 62, 0
4, 6480, Note_on_c, 0, 57, 0
4, 6720, Note_on_c, 0, 56, 61
4, 7080, Note_on_c, 0, 56, 0
4, 7200, Note_on_c, 0, 55, 63
4, 7560, Note_on_c, 0, 55, 0
4, 7680, Note_on_c, 0, 62, 66
4, 7680, Note_on_c, 0, 55, 66
4, 8160, Note_on_c, 0, 62, 0
4, 8160, Note_on_c, 0, 60, 56
4, 8352, Note_on_c, 0, 60, 0
4, 8400, Note_on_c, 0, 55, 0
4, 8640, Note_on_c, 0, 60, 63
4, 9000, Note_on_c, 0, 60, 0
4, 9120, Note_on_c, 0, 61, 66
4, 9480, Note_on_c, 0, 61, 0
4, 9600, Note_on_c, 0, 62, 70
4, 10447, Note_on_c, 0, 62, 0
4, 10560, Note_on_c, 0, 55, 64
4, 10920, Note_on_c, 0, 55, 0
4, 11040, Note_on_c, 0, 55, 61
4, 11040, Note_on_c, 0, 62, 61
4, 11400, Note_on_c, 0, 62, 0
4, 11400, Note_on_c, 0, 55, 0
4, 11520, Note_on_c, 0, 55, 59
4, 11520, Note_on_c, 0, 59, 59
4, 12000, Note_on_c, 0, 59, 0
4, 12000, Note_on_c, 0, 60, 49
4, 12192, Note_on_c, 0, 60, 0
4, 12195, Note_on_c, 0, 55, 0
4, 16320, Note_on_c, 0, 48, 59
4, 16476, Note_on_c, 0, 48, 0
4, 16560, Note_on_c, 0, 55, 61
4, 16716, Note_on_c, 0, 55, 0
4, 16800, Note_on_c, 0, 60, 62
4, 16956, Note_on_c, 0, 60, 0
4, 17040, Note_on_c, 0, 55, 64
4, 17196, Note_on_c, 0, 55, 0
4, 17280, Note_on_c, 0, 59, 65
4, 17436, Note_on_c, 0, 59, 0
4, 17520, Note_on_c, 0, 55, 63
4, 17676, Note_on_c, 0, 55, 0
4, 17760, Note_on_c, 0, 47, 62
4, 17916, Note_on_c, 0, 47, 0
4, 18000, Note_on_c, 0, 55, 60
4, 18156, Note_on_c, 0, 55, 0
4, 18240, Note_on_c, 0, 48, 59
4, 18396, Note_on_c, 0, 48, 0
4, 18480, Note_on_c, 0, 55, 60
4, 18636, Note_on_c, 0, 55, 0
4, 18720, Note_on_c, 0, 60, 61
4, 18876, Note_on_c, 0, 60, 0
4, 18960, Note_on_c, 0, 55, 63
4, 19116, Note_on_c, 0, 55, 0
4, 19200, Note_on_c, 0, 59, 65
4, 19356, Note_on_c, 0, 59, 0
4, 19440, Note_on_c, 0, 55, 63
4, 19680, Note_on_c, 0, 55, 0
4, 19680, Note_on_c, 0, 57, 62
4, 19920, Note_on_c, 0, 57, 0
4, 19920, Note_on_c, 0, 59, 62
4, 20160, Note_on_c, 0, 59, 0
4, 20160, Note_on_c, 0, 60, 65
4, 20400, Note_on_c, 0, 60, 0
4, 20400, Note_on_c, 0, 55, 67
4, 20640, Note_on_c, 0, 55, 0
4, 20640, Note_on_c, 0, 60, 70
4, 20880, Note_on_c, 0, 60, 0
4, 20880, Note_on_c, 0, 55, 72
4, 21120, Note_on_c, 0, 55, 0
4, 21120, Note_on_c, 0, 59, 74
4, 21360, Note_on_c, 0, 59, 0
4, 21360, Note_on_c, 0, 55, 72
4, 21600, Note_on_c, 0, 55, 0
4, 21600, Note_on_c, 0, 53, 70
4, 21840, Note_on_c, 0, 53, 0
4, 21840, Note_on_c, 0, 55, 68
4, 22080, Note_on_c, 0, 55, 0
4, 22080, Note_on_c, 0, 53, 68
4, 22320, Note_on_c, 0, 53, 0
4, 22320, Note_on_c, 0, 55, 69
4, 22560, Note_on_c, 0, 55, 0
4, 22560, Note_on_c, 0, 60, 71
4, 22800, Note_on_c, 0, 60, 0
4, 22800, Note_on_c, 0, 55, 72
4, 23040, Note_on_c, 0, 55, 0
4, 23040, Note_on_c, 0, 59, 76
4, 23280, Note_on_c, 0, 59, 0
4, 23280, Note_on_c, 0, 55, 75
4, 23520, Note_on_c, 0, 55, 0
4, 23520, Note_on_c, 0, 59, 74
4, 23760, Note_on_c, 0, 59, 0
4, 23760, Note_on_c, 0, 55, 73
4, 24000, Note_on_c, 0, 55, 0
4, 24000, Note_on_c, 0, 52, 79
4, 24240, Note_on_c, 0, 52, 0
4, 24240, Note_on_c, 0, 55, 78
4, 24480, Note_on_c, 0, 55, 0
4, 24480, Note_on_c, 0, 52, 83
4, 24480, Note_on_c, 0, 61, 82
4, 24720, Note_on_c, 0, 61, 0
4, 24720, Note_on_c, 0, 52, 0
4, 24720, Note_on_c, 0, 55, 82
4, 24960, Note_on_c, 0, 55, 0
4, 24960, Note_on_c, 0, 62, 86
4, 24960, Note_on_c, 0, 53, 86
4, 25200, Note_on_c, 0, 53, 0
4, 25200, Note_on_c, 0, 62, 0
4, 25200, Note_on_c, 0, 57, 84
4, 25440, Note_on_c, 0, 57, 0
4, 25440, Note_on_c, 0, 50, 82
4, 25680, Note_on_c, 0, 50, 0
4, 25680, Note_on_c, 0, 53, 80
4, 25920, Note_on_c, 0, 53, 0
4, 25920, Note_on_c, 0, 52, 78
4, 26160, Note_on_c, 0, 52, 0
4, 26160, Note_on_c, 0, 55, 76
4, 26400, Note_on_c, 0, 55, 0
4, 26400, Note_on_c, 0, 53, 73
4, 26640, Note_on_c, 0, 53, 0
4, 26640, Note_on_c, 0, 50, 71
4, 26880, Note_on_c, 0, 50, 0
4, 26880, Note_on_c, 0, 55, 69
4, 26880, Note_on_c, 0, 59, 69
4, 27360, Note_on_c, 0, 59, 0
4, 27360, Note_on_c, 0, 55, 0
4, 27360, Note_on_c, 0, 60, 59
4, 27552, Note_on_c, 0, 60, 0
4, 28320, Note_on_c, 0, 60, 58
4, 28800, Note_on_c, 0, 60, 0
4, 28800, Note_on_c, 0, 59, 63
4, 28992, Note_on_c, 0, 59, 0
4, 29280, Note_on_c, 0, 59, 59
4, 29760, Note_on_c, 0, 59, 0
4, 29760, Note_on_c, 0, 60, 59
4, 29952, Note_on_c, 0, 60, 0
4, 30240, Note_on_c, 0, 64, 62
4, 30240, Note_on_c, 0, 60, 62
4, 30720, Note_on_c, 0, 60, 0
4, 30720, Note_on_c, 0, 64, 0
4, 30720, Note_on_c, 0, 62, 61
4, 30720, Note_on_c, 0, 55, 61
4, 30912, Note_on_c, 0, 55, 0
4, 30912, Note_on_c, 0, 62, 0
4, 31200, Note_on_c, 0, 55, 61
4, 31680, Note_on_c, 0, 55, 0
4, 31680, Note_on_c, 0, 60, 60
4, 31872, Note_on_c, 0, 60, 0
4, 32160, Note_on_c, 0, 61, 65
4, 32640, Note_on_c, 0, 61, 0
4, 32640, Note_on_c, 0, 62, 69
4, 32832, Note_on_c, 0, 62, 0
4, 33120, Note_on_c, 0, 53, 65
4, 33600, Note_on_c, 0, 53, 0
4, 33600, Note_on_c, 0, 50, 61
4, 33792, Note_on_c, 0, 50, 0
4, 34080, Note_on_c, 0, 59, 62
4, 34560, Note_on_c, 0, 59, 0
4, 34560, Note_on_c, 0, 60, 66
4, 34752, Note_on_c, 0, 60, 0
4, 35040, Note_on_c, 0, 55, 62
4, 35520, Note_on_c, 0, 55, 0
4, 35520, Note_on_c, 0, 60, 65
4, 35712, Note_on_c, 0, 60, 0
4, 36000, Note_on_c, 0, 61, 70
4, 36000, Note_on_c, 0, 52, 70
4, 36480, Note_on_c, 0, 52, 0
4, 36480, Note_on_c, 0, 61, 0
4, 36480, Note_on_c, 0, 62, 76
4, 36480, Note_on_c, 0, 53, 76
4, 36672, Note_on_c, 0, 53, 0
4, 36672, Note_on_c, 0, 62, 0
4, 36960, Note_on_c, 0, 62, 74
4, 36960, Note_on_c, 0, 53, 74
4, 37440, Note_on_c, 0, 53, 0
4, 37440, Note_on_c, 0, 62, 0
4, 37440, Note_on_c, 0, 60, 69
4, 37440, Note_on_c, 0, 52, 69
4, 37632, Note_on_c, 0, 52, 0
4, 37632, Note_on_c, 0, 60, 0
4, 37920, Note_on_c, 0, 59, 64
4, 37920, Note_on_c, 0, 62, 64
4, 37920, Note_on_c, 0, 50, 64
4, 37920, Note_on_c, 0, 53, 64
4, 38112, Note_on_c, 0, 53, 0
4, 38112, Note_on_c, 0, 59, 0
4, 38112, Note_on_c, 0, 62, 0
4, 38112, Note_on_c, 0, 50, 0
4, 38400, Note_on_c, 0, 60, 59
4, 38400, Note_on_c, 0, 64, 59
4, 38400, Note_on_c, 0, 55, 59
4, 38400, Note_on_c, 0, 52, 59
4, 38592, Note_on_c, 0, 52, 0
4, 38592, Note_on_c, 0, 60, 0
4, 38592, Note_on_c, 0, 64, 0
4, 38592, Note_on_c, 0, 55, 0
4, 38880, Note_on_c, 0, 48, 54
4, 39072, Note_on_c, 0, 48, 0
4, 48480, Note_on_c, 0, 59, 73
4, 48960, Note_on_c, 0, 59, 0
4, 48960, Note_on_c, 0, 60, 70
4, 49152, Note_on_c, 0, 60, 0
4, 49440, Note_on_c, 0, 60, 75
4, 49440, Note_on_c, 0, 64, 75
4, 49920, Note_on_c, 0, 64, 0
4, 49920, Note_on_c, 0, 60, 0
4, 49920, Note_on_c, 0, 55, 74
4, 49920, Note_on_c, 0, 62, 74
4, 50112, Note_on_c, 0, 62, 0
4, 50112, Note_on_c, 0, 55, 0
4, 50400, Note_on_c, 0, 59, 80
4, 50400, Note_on_c, 0, 50, 80
4, 50400, Note_on_c, 0, 55, 80
4, 50880, Note_on_c, 0, 55, 0
4, 50880, Note_on_c, 0, 50, 0
4, 50880, Note_on_c, 0, 59, 0
4, 50880, Note_on_c, 0, 55, 76
4, 50880, Note_on_c, 0, 52, 76
4, 50880, Note_on_c, 0, 60, 76
4, 51072, Note_on_c, 0, 60, 0
4, 51072, Note_on_c, 0, 52, 0
4, 51072, Note_on_c, 0, 55, 0
4, 51360, Note_on_c, 0, 61, 81
4, 51360, Note_on_c, 0, 55, 81
4, 51360, Note_on_c, 0, 52, 81
4, 51840, Note_on_c, 0, 52, 0
4, 51840, Note_on_c, 0, 55, 0
4, 51840, Note_on_c, 0, 61, 0
4, 51840, Note_on_c, 0, 62, 85
4, 51840, Note_on_c, 0, 57, 85
4, 51840, Note_on_c, 0, 53, 85
4, 52032, Note_on_c, 0, 53, 0
4, 52032, Note_on_c, 0, 57, 0
4, 52032, Note_on_c, 0, 62, 0
4, 52320, Note_on_c, 0, 62, 81
4, 52320, Note_on_c, 0, 57, 81
4, 52320, Note_on_c, 0, 53, 81
4, 52800, Note_on_c, 0, 53, 0
4, 52800, Note_on_c, 0, 57, 0
4, 52800, Note_on_c, 0, 62, 0
4, 52800, Note_on_c, 0, 60, 78
4, 52800, Note_on_c, 0, 55, 78
4, 52800, Note_on_c, 0, 52, 78
4, 52992, Note_on_c, 0, 52, 0
4, 52992, Note_on_c, 0, 55, 0
4, 52992, Note_on_c, 0, 60, 0
4, 53280, Note_on_c, 0, 43, 75
4, 53280, Note_on_c, 0, 62, 75
4, 53280, Note_on_c, 0, 59, 75
4, 53280, Note_on_c, 0, 53, 75
4, 53472, Note_on_c, 0, 53, 0
4, 53472, Note_on_c, 0, 43, 0
4, 53472, Note_on_c, 0, 62, 0
4, 53472, Note_on_c, 0, 59, 0
4, 53760, Note_on_c, 0, 48, 71
4, 53760, Note_on_c, 0, 60, 71
4, 53760, Note_on_c, 0, 52, 71
4, 53952, Note_on_c, 0, 52, 0
4, 53952, Note_on_c, 0, 60, 0
4, 53952, Note_on_c, 0, 48, 0
4, 54240, Note_on_c, 0, 48, 68
4, 54432, Note_on_c, 0, 48, 0
4, 55200, Note_on_c, 0, 48, 108
4, 55200, Note_on_c, 0, 65, 108
4, 55278, Note_on_c, 0, 65, 0
4, 55320, Note_on_c, 0, 64, 109
4, 55398, Note_on_c, 0, 64, 0
4, 55440, Note_on_c, 0, 62, 110
4, 55518, Note_on_c, 0, 62, 0
4, 55560, Note_on_c, 0, 60, 111
4, 55638, Note_on_c, 0, 60, 0
4, 55680, Note_on_c, 0, 48, 0
4, 55680, Note_on_c, 0, 59, 112
4, 55758, Note_on_c, 0, 59, 0
4, 55800, Note_on_c, 0, 57, 111
4, 55878, Note_on_c, 0, 57, 0
4, 55920, Note_on_c, 0, 55, 110
4, 55998, Note_on_c, 0, 55, 0
4, 56040, Note_on_c, 0, 53, 108
4, 56118, Note_on_c, 0, 53, 0
4, 56160, Note_on_c, 0, 52, 107
4, 56238, Note_on_c, 0, 52, 0
4, 56280, Note_on_c, 0, 50, 105
4, 56358, Note_on_c, 0, 50, 0
4, 56400, Note_on_c, 0, 48, 104
4, 56478, Note_on_c, 0, 48, 0
4, 56520, Note_on_c, 0, 47, 103
4, 56598, Note_on_c, 0, 47, 0
4, 56640, Note_on_c, 0, 48, 101
4, 56760, Note_on_c, 0, 48, 0
4, 56760, Note_on_c, 0, 50, 101
4, 56838, Note_on_c, 0, 50, 0
4, 56880, Note_on_c, 0, 52, 102
4, 56958, Note_on_c, 0, 52, 0
4, 57000, Note_on_c, 0, 53, 103
4, 57078, Note_on_c, 0, 53, 0
4, 57120, Note_on_c, 0, 55, 103
4, 57198, Note_on_c, 0, 55, 0
4, 57240, Note_on_c, 0, 57, 104
4, 57318, Note_on_c, 0, 57, 0
4, 57360, Note_on_c, 0, 59, 105
4, 57438, Note_on_c, 0, 59, 0
4, 57480, Note_on_c, 0, 60, 105
4, 57558, Note_on_c, 0, 60, 0
4, 57600, Note_on_c, 0, 61, 104
4, 57720, Note_on_c, 0, 61, 0
4, 57720, Note_on_c, 0, 62, 101
4, 57840, Note_on_c, 0, 62, 0
4, 57840, Note_on_c, 0, 61, 98
4, 57960, Note_on_c, 0, 61, 0
4, 57960, Note_on_c, 0, 62, 94
4, 58080, Note_on_c, 0, 62, 0
4, 59040, Note_on_c, 0, 48, 76
4, 60000, Note_on_c, 0, 48, 0
4, 60000, Note_on_c, 0, 53, 66
4, 60480, Note_on_c, 0, 53, 0
4, 60480, Note_on_c, 0, 50, 61
4, 60960, Note_on_c, 0, 50, 0
4, 60960, Note_on_c, 0, 47, 72
4, 61440, Note_on_c, 0, 47, 0
4, 61440, Note_on_c, 0, 48, 77
4, 61920, Note_on_c, 0, 48, 0
4, 62880, Note_on_c, 0, 49, 81
4, 63840, Note_on_c, 0, 49, 0
4, 63840, Note_on_c, 0, 50, 73
4, 64800, Note_on_c, 0, 50, 0
4, 64800, Note_on_c, 0, 47, 68
4, 65280, Note_on_c, 0, 47, 0
4, 73920, Note_on_c, 0, 48, 110
4, 74400, Note_on_c, 0, 48, 0
4, 74400, Note_on_c, 0, 48, 106
4, 74400, Note_on_c, 0, 65, 106
4, 74520, Note_on_c, 0, 65, 0
4, 74520, Note_on_c, 0, 64, 107
4, 74598, Note_on_c, 0, 64, 0
4, 74640, Note_on_c, 0, 62, 108
4, 74718, Note_on_c, 0, 62, 0
4, 74760, Note_on_c, 0, 60, 109
4, 74838, Note_on_c, 0, 60, 0
4, 74880, Note_on_c, 0, 48, 0
4, 74880, Note_on_c, 0, 59, 110
4, 74958, Note_on_c, 0, 59, 0
4, 75000, Note_on_c, 0, 57, 109
4, 75078, Note_on_c, 0, 57, 0
4, 75120, Note_on_c, 0, 55, 107
4, 75198, Note_on_c, 0, 55, 0
4, 75240, Note_on_c, 0, 53, 105
4, 75318, Note_on_c, 0, 53, 0
4, 75360, Note_on_c, 0, 52, 104
4, 75438, Note_on_c, 0, 52, 0
4, 75480, Note_on_c, 0, 50, 102
4, 75558, Note_on_c, 0, 50, 0
4, 75600, Note_on_c, 0, 48, 101
4, 75678, Note_on_c, 0, 48, 0
4, 75720, Note_on_c, 0, 47, 99
4, 75798, Note_on_c, 0, 47, 0
4, 75840, Note_on_c, 0, 48, 111
4, 75960, Note_on_c, 0, 48, 0
4, 75960, Note_on_c, 0, 50, 100
4, 76038, Note_on_c, 0, 50, 0
4, 76080, Note_on_c, 0, 52, 100
4, 76158, Note_on_c, 0, 52, 0
4, 76200, Note_on_c, 0, 53, 101
4, 76278, Note_on_c, 0, 53, 0
4, 76320, Note_on_c, 0, 55, 102
4, 76398, Note_on_c, 0, 55, 0
4, 76440, Note_on_c, 0, 57, 103
4, 76518, Note_on_c, 0, 57, 0
4, 76560, Note_on_c, 0, 59, 103
4, 76638, Note_on_c, 0, 59, 0
4, 76680, Note_on_c, 0, 60, 104
4, 76758, Note_on_c, 0, 60, 0
4, 76800, Note_on_c, 0, 47, 116
4, 76920, Note_on_c, 0, 47, 0
4, 76920, Note_on_c, 0, 48, 103
4, 76998, Note_on_c, 0, 48, 0
4, 77040, Note_on_c, 0, 50, 100
4, 77118, Note_on_c, 0, 50, 0
4, 77160, Note_on_c, 0, 52, 97
4, 77238, Note_on_c, 0, 52, 0
4, 77280, Note_on_c, 0, 53, 94
4, 77358, Note_on_c, 0, 53, 0
4, 77400, Note_on_c, 0, 55, 91
4, 77478, Note_on_c, 0, 55, 0
4, 77520, Note_on_c, 0, 57, 88
4, 77598, Note_on_c, 0, 57, 0
4, 77640, Note_on_c, 0, 59, 85
4, 77718, Note_on_c, 0, 59, 0
4, 78240, Note_on_c, 0, 48, 67
4, 79200, Note_on_c, 0, 50, 71
4, 79207, Note_on_c, 0, 48, 0
4, 79680, Note_on_c, 0, 50, 0
4, 79680, Note_on_c, 0, 52, 67
4, 80160, Note_on_c, 0, 52, 0
4, 80160, Note_on_c, 0, 47, 64
4, 80640, Note_on_c, 0, 47, 0
4, 81840, Note_on_c, 0, 55, 58
4, 82080, Note_on_c, 0, 55, 0
4, 82320, Note_on_c, 0, 55, 62
4, 82560, Note_on_c, 0, 55, 0
4, 82800, Note_on_c, 0, 55, 62
4, 83040, Note_on_c, 0, 55, 0
4, 83280, Note_on_c, 0, 55, 57
4, 83520, Note_on_c, 0, 55, 0
4, 83760, Note_on_c, 0, 55, 57
4, 84000, Note_on_c, 0, 55, 0
4, 84240, Note_on_c, 0, 55, 61
4, 84480, Note_on_c, 0, 55, 0
4, 84720, Note_on_c, 0, 55, 64
4, 84960, Note_on_c, 0, 55, 0
4, 85200, Note_on_c, 0, 55, 60
4, 85440, Note_on_c, 0, 55, 0
4, 85680, Note_on_c, 0, 55, 62
4, 85920, Note_on_c, 0, 55, 0
4, 86160, Note_on_c, 0, 48, 66
4, 86400, Note_on_c, 0, 48, 0
4, 86640, Note_on_c, 0, 48, 65
4, 86880, Note_on_c, 0, 48, 0
4, 87120, Note_on_c, 0, 50, 61
4, 87360, Note_on_c, 0, 50, 0
4, 87600, Note_on_c, 0, 53, 60
4, 87840, Note_on_c, 0, 53, 0
4, 88080, Note_on_c, 0, 53, 62
4, 88320, Note_on_c, 0, 53, 0
4, 88560, Note_on_c, 0, 55, 63
4, 88800, Note_on_c, 0, 55, 0
4, 89040, Note_on_c, 0, 55, 63
4, 89280, Note_on_c, 0, 55, 0
4, 89520, Note_on_c, 0, 55, 67
4, 89760, Note_on_c, 0, 55, 0
4, 90000, Note_on_c, 0, 49, 69
4, 90000, Note_on_c, 0, 55, 71
4, 90240, Note_on_c, 0, 55, 0
4, 90474, Note_on_c, 0, 49, 0
4, 90720, Note_on_c, 0, 53, 74
4, 90960, Note_on_c, 0, 53, 0
4, 91200, Note_on_c, 0, 50, 69
4, 91440, Note_on_c, 0, 50, 0
4, 91680, Note_on_c, 0, 48, 65
4, 91920, Note_on_c, 0, 48, 0
4, 92160, Note_on_c, 0, 53, 58
4, 92640, Note_on_c, 0, 53, 0
4, 92640, Note_on_c, 0, 52, 54
4, 92880, Note_on_c, 0, 52, 0
4, 93360, Note_on_c, 0, 67, 65
4, 93600, Note_on_c, 0, 67, 0
4, 93840, Note_on_c, 0, 67, 61
4, 94080, Note_on_c, 0, 67, 0
4, 94320, Note_on_c, 0, 67, 58
4, 94560, Note_on_c, 0, 67, 0
4, 94800, Note_on_c, 0, 67, 54
4, 95040, Note_on_c, 0, 67, 0
4, 95280, Note_on_c, 0, 67, 56
4, 95520, Note_on_c, 0, 67, 0
4, 95760, Note_on_c, 0, 67, 60
4, 96000, Note_on_c, 0, 67, 0
4, 97200, Note_on_c, 0, 55, 56
4, 97440, Note_on_c, 0, 55, 0
4, 97680, Note_on_c, 0, 55, 54
4, 97920, Note_on_c, 0, 55, 0
4, 98160, Note_on_c, 0, 55, 54
4, 98400, Note_on_c, 0, 55, 0
4, 98640, Note_on_c, 0, 55, 55
4, 98880, Note_on_c, 0, 55, 0
4, 99120, Note_on_c, 0, 55, 57
4, 99360, Note_on_c, 0, 55, 0
4, 99600, Note_on_c, 0, 55, 58
4, 99840, Note_on_c, 0, 55, 0
4, 101040, Note_on_c, 0, 55, 65
4, 101280, Note_on_c, 0, 55, 0
4, 101520, Note_on_c, 0, 55, 68
4, 101760, Note_on_c, 0, 55, 0
4, 102960, Note_on_c, 0, 55, 63
4, 103200, Note_on_c, 0, 55, 0
4, 103440, Note_on_c, 0, 55, 66
4, 103680, Note_on_c, 0, 55, 0
4, 103920, Note_on_c, 0, 55, 67
4, 104160, Note_on_c, 0, 55, 0
4, 104400, Note_on_c, 0, 55, 64
4, 104640, Note_on_c, 0, 55, 0
4, 104880, Note_on_c, 0, 55, 66
4, 105120, Note_on_c, 0, 55, 0
4, 105360, Note_on_c, 0, 48, 71
4, 105600, Note_on_c, 0, 48, 0
4, 105840, Note_on_c, 0, 48, 74
4, 106080, Note_on_c, 0, 48, 0
4, 106320, Note_on_c, 0, 50, 70
4, 106560, Note_on_c, 0, 50, 0
4, 106800, Note_on_c, 0, 48, 67
4, 107040, Note_on_c, 0, 48, 0
4, 107280, Note_on_c, 0, 53, 63
4, 107520, Note_on_c, 0, 53, 0
4, 107520, Note_on_c, 0, 53, 61
4, 108000, Note_on_c, 0, 53, 0
4, 108000, Note_on_c, 0, 52, 57
4, 108240, Note_on_c, 0, 52, 0
4, 108960, Note_on_c, 0, 60, 111
4, 108960, Note_on_c, 0, 55, 111
4, 108960, Note_on_c, 0, 64, 111
4, 109200, Note_on_c, 0, 64, 0
4, 109200, Note_on_c, 0, 55, 0
4, 109200, Note_on_c, 0, 60, 0
4, 109920, Note_on_c, 0, 59, 116
4, 109920, Note_on_c, 0, 62, 116
4, 109920, Note_on_c, 0, 55, 116
4, 110160, Note_on_c, 0, 55, 0
4, 110160, Note_on_c, 0, 62, 0
4, 110160, Note_on_c, 0, 59, 0
4, 110400, Note_on_c, 0, 64, 59
4, 110760, Note_on_c, 0, 64, 0
4, 110760, Note_on_c, 0, 65, 62
4, 110880, Note_on_c, 0, 65, 0
4, 110880, Note_on_c, 0, 67, 63
4, 111000, Note_on_c, 0, 67, 0
4, 111120, Note_on_c, 0, 67, 65
4, 111240, Note_on_c, 0, 67, 0
4, 111360, Note_on_c, 0, 65, 66
4, 111840, Note_on_c, 0, 65, 0
4, 111840, Note_on_c, 0, 62, 59
4, 112032, Note_on_c, 0, 62, 0
4, 112800, Note_on_c, 0, 60, 106
4, 112800, Note_on_c, 0, 55, 106
4, 112800, Note_on_c, 0, 64, 106
4, 112800, Note_on_c, 0, 58, 106
4, 113040, Note_on_c, 0, 58, 0
4, 113040, Note_on_c, 0, 60, 0
4, 113040, Note_on_c, 0, 55, 0
4, 113040, Note_on_c, 0, 64, 0
4, 113760, Note_on_c, 0, 53, 110
4, 113760, Note_on_c, 0, 65, 110
4, 113760, Note_on_c, 0, 57, 110
4, 113760, Note_on_c, 0, 60, 110
4, 114000, Note_on_c, 0, 60, 0
4, 114000, Note_on_c, 0, 53, 0
4, 114000, Note_on_c, 0, 65, 0
4, 114000, Note_on_c, 0, 57, 0
4, 114240, Note_on_c, 0, 59, 57
4, 114600, Note_on_c, 0, 59, 0
4, 114600, Note_on_c, 0, 60, 59
4, 114720, Note_on_c, 0, 60, 0
4, 114720, Note_on_c, 0, 62, 60
4, 114840, Note_on_c, 0, 62, 0
4, 114960, Note_on_c, 0, 62, 61
4, 115080, Note_on_c, 0, 62, 0
4, 115200, Note_on_c, 0, 59, 62
4, 115680, Note_on_c, 0, 59, 0
4, 115680, Note_on_c, 0, 60, 56
4, 115872, Note_on_c, 0, 60, 0
4, 116640, Note_on_c, 0, 57, 110
4, 116640, Note_on_c, 0, 61, 110
4, 116640, Note_on_c, 0, 52, 110
4, 116880, Note_on_c, 0, 52, 0
4, 116880, Note_on_c, 0, 61, 0
4, 116880, Note_on_c, 0, 57, 0
4, 117600, Note_on_c, 0, 62, 115
4, 117600, Note_on_c, 0, 53, 115
4, 117600, Note_on_c, 0, 57, 115
4, 117840, Note_on_c, 0, 57, 0
4, 117840, Note_on_c, 0, 53, 0
4, 117840, Note_on_c, 0, 62, 0
4, 118080, Note_on_c, 0, 59, 60
4, 118440, Note_on_c, 0, 59, 0
4, 118440, Note_on_c, 0, 60, 63
4, 118560, Note_on_c, 0, 60, 0
4, 118560, Note_on_c, 0, 62, 64
4, 118680, Note_on_c, 0, 62, 0
4, 118800, Note_on_c, 0, 62, 66
4, 118920, Note_on_c, 0, 62, 0
4, 119040, Note_on_c, 0, 62, 67
4, 119520, Note_on_c, 0, 62, 0
4, 119520, Note_on_c, 0, 60, 58
4, 119712, Note_on_c, 0, 60, 0
4, 120960, Note_on_c, 0, 77, 74
4, 121920, Note_on_c, 0, 77, 0
4, 121920, Note_on_c, 0, 75, 78
4, 122280, Note_on_c, 0, 75, 0
4, 122280, Note_on_c, 0, 74, 73
4, 122400, Note_on_c, 0, 74, 0
4, 122400, Note_on_c, 0, 72, 71
4, 122520, Note_on_c, 0, 72, 0
4, 122640, Note_on_c, 0, 72, 68
4, 122760, Note_on_c, 0, 72, 0
4, 122880, Note_on_c, 0, 65, 65
4, 123840, Note_on_c, 0, 65, 0
4, 123840, Note_on_c, 0, 63, 68
4, 124200, Note_on_c, 0, 63, 0
4, 124200, Note_on_c, 0, 62, 63
4, 124320, Note_on_c, 0, 62, 0
4, 124320, Note_on_c, 0, 60, 62
4, 124440, Note_on_c, 0, 60, 0
4, 124560, Note_on_c, 0, 60, 58
4, 124680, Note_on_c, 0, 60, 0
4, 124800, Note_on_c, 0, 59, 64
4, 124800, Note_on_c, 0, 50, 64
4, 125160, Note_on_c, 0, 50, 0
4, 125160, Note_on_c, 0, 59, 0
4, 125160, Note_on_c, 0, 48, 60
4, 125160, Note_on_c, 0, 57, 60
4, 125280, Note_on_c, 0, 57, 0
4, 125280, Note_on_c, 0, 48, 0
4, 125280, Note_on_c, 0, 47, 58
4, 125280, Note_on_c, 0, 55, 58
4, 125400, Note_on_c, 0, 55, 0
4, 125400, Note_on_c, 0, 47, 0
4, 125520, Note_on_c, 0, 47, 55
4, 125520, Note_on_c, 0, 55, 55
4, 125640, Note_on_c, 0, 55, 0
4, 125640, Note_on_c, 0, 47, 0
4, 125760, Note_on_c, 0, 57, 62
4, 125760, Note_on_c, 0, 48, 62
4, 126120, Note_on_c, 0, 48, 0
4, 126120, Note_on_c, 0, 57, 0
4, 126120, Note_on_c, 0, 47, 57
4, 126120, Note_on_c, 0, 55, 57
4, 126240, Note_on_c, 0, 55, 0
4, 126240, Note_on_c, 0, 47, 0
4, 126240, Note_on_c, 0, 45, 55
4, 126240, Note_on_c, 0, 54, 55
4, 126360, Note_on_c, 0, 54, 0
4, 126360, Note_on_c, 0, 45, 0
4, 126480, Note_on_c, 0, 54, 51
4, 126480, Note_on_c, 0, 45, 51
4, 126600, Note_on_c, 0, 45, 0
4, 126600, Note_on_c, 0, 54, 0
4, 126720, Note_on_c, 0, 55, 60
4, 126720, Note_on_c, 0, 47, 60
4, 127200, Note_on_c, 0, 47, 0
4, 127200, Note_on_c, 0, 55, 0
4, 128160, Note_on_c, 0, 64, 111
4, 128160, Note_on_c, 0, 55, 111
4, 128160, Note_on_c, 0, 60, 111
4, 128400, Note_on_c, 0, 60, 0
4, 128400, Note_on_c, 0, 55, 0
4, 128400, Note_on_c, 0, 64, 0
4, 129120, Note_on_c, 0, 55, 117
4, 129120, Note_on_c, 0, 62, 117
4, 129120, Note_on_c, 0, 59, 117
4, 129360, Note_on_c, 0, 59, 0
4, 129360, Note_on_c, 0, 62, 0
4, 129360, Note_on_c, 0, 55, 0
4, 129600, Note_on_c, 0, 64, 63
4, 129960, Note_on_c, 0, 64, 0
4, 129960, Note_on_c, 0, 65, 66
4, 130080, Note_on_c, 0, 65, 0
4, 130080, Note_on_c, 0, 67, 66
4, 130200, Note_on_c, 0, 67, 0
4, 130320, Note_on_c, 0, 67, 68
4, 130440, Note_on_c, 0, 67, 0
4, 130560, Note_on_c, 0, 65, 69
4, 131040, Note_on_c, 0, 65, 0
4, 131040, Note_on_c, 0, 62, 62
4, 131232, Note_on_c, 0, 62, 0
4, 132000, Note_on_c, 0, 58, 105
4, 132000, Note_on_c, 0, 64, 105
4, 132000, Note_on_c, 0, 55, 105
4, 132000, Note_on_c, 0, 60, 105
4, 132240, Note_on_c, 0, 60, 0
4, 132240, Note_on_c, 0, 58, 0
4, 132240, Note_on_c, 0, 64, 0
4, 132240, Note_on_c, 0, 55, 0
4, 132960, Note_on_c, 0, 65, 110
4, 132960, Note_on_c, 0, 57, 110
4, 132960, Note_on_c, 0, 60, 110
4, 133200, Note_on_c, 0, 60, 0
4, 133200, Note_on_c, 0, 57, 0
4, 133200, Note_on_c, 0, 65, 0
4, 133440, Note_on_c, 0, 62, 58
4, 133800, Note_on_c, 0, 62, 0
4, 133800, Note_on_c, 0, 60, 61
4, 133920, Note_on_c, 0, 60, 0
4, 133920, Note_on_c, 0, 59, 61
4, 134040, Note_on_c, 0, 59, 0
4, 134160, Note_on_c, 0, 59, 63
4, 134280, Note_on_c, 0, 59, 0
4, 134400, Note_on_c, 0, 55, 65
4, 134400, Note_on_c, 0, 62, 65
4, 134880, Note_on_c, 0, 62, 0
4, 134880, Note_on_c, 0, 60, 57
4, 135072, Note_on_c, 0, 60, 0
4, 135120, Note_on_c, 0, 55, 0
4, 139320, Note_on_c, 0, 58, 63
4, 139440, Note_on_c, 0, 58, 0
4, 139440, Note_on_c, 0, 57, 64
4, 139560, Note_on_c, 0, 57, 0
4, 139560, Note_on_c, 0, 58, 65
4, 139680, Note_on_c, 0, 58, 0
4, 139680, Note_on_c, 0, 60, 66
4, 139800, Note_on_c, 0, 60, 0
4, 139800, Note_on_c, 0, 58, 67
4, 139920, Note_on_c, 0, 58, 0
4, 139920, Note_on_c, 0, 57, 68
4, 140040, Note_on_c, 0, 57, 0
4, 140040, Note_on_c, 0, 58, 69
4, 140160, Note_on_c, 0, 58, 0
4, 140160, Note_on_c, 0, 57, 72
4, 140238, Note_on_c, 0, 57, 0
4, 140280, Note_on_c, 0, 58, 71
4, 140400, Note_on_c, 0, 58, 0
4, 140400, Note_on_c, 0, 59, 69
4, 140520, Note_on_c, 0, 59, 0
4, 140520, Note_on_c, 0, 60, 68
4, 140640, Note_on_c, 0, 60, 0
4, 140640, Note_on_c, 0, 61, 67
4, 140760, Note_on_c, 0, 61, 0
4, 140760, Note_on_c, 0, 62, 65
4, 140880, Note_on_c, 0, 62, 0
4, 140880, Note_on_c, 0, 57, 64
4, 141000, Note_on_c, 0, 57, 0
4, 141000, Note_on_c, 0, 62, 62
4, 141120, Note_on_c, 0, 62, 0
4, 141120, Note_on_c, 0, 60, 61
4, 141198, Note_on_c, 0, 60, 0
4, 141240, Note_on_c, 0, 55, 62
4, 141360, Note_on_c, 0, 55, 0
4, 141360, Note_on_c, 0, 59, 63
4, 141480, Note_on_c, 0, 59, 0
4, 141480, Note_on_c, 0, 55, 64
4, 141600, Note_on_c, 0, 55, 0
4, 141600, Note_on_c, 0, 53, 65
4, 141720, Note_on_c, 0, 53, 0
4, 141720, Note_on_c, 0, 55, 66
4, 141840, Note_on_c, 0, 55, 0
4, 141840, Note_on_c, 0, 59, 67
4, 141960, Note_on_c, 0, 59, 0
4, 141960, Note_on_c, 0, 55, 68
4, 142080, Note_on_c, 0, 55, 0
4, 142080, Note_on_c, 0, 62, 68
4, 142158, Note_on_c, 0, 62, 0
4, 142200, Note_on_c, 0, 55, 67
4, 142320, Note_on_c, 0, 55, 0
4, 142320, Note_on_c, 0, 59, 66
4, 142440, Note_on_c, 0, 59, 0
4, 142440, Note_on_c, 0, 55, 65
4, 142560, Note_on_c, 0, 55, 0
4, 142560, Note_on_c, 0, 60, 64
4, 142680, Note_on_c, 0, 60, 0
4, 142680, Note_on_c, 0, 55, 63
4, 142800, Note_on_c, 0, 55, 0
4, 142800, Note_on_c, 0, 52, 63
4, 142920, Note_on_c, 0, 52, 0
4, 142920, Note_on_c, 0, 48, 66
4, 143040, Note_on_c, 0, 48, 0
4, 143160, Note_on_c, 0, 49, 70
4, 143280, Note_on_c, 0, 49, 0
4, 143280, Note_on_c, 0, 52, 71
4, 143400, Note_on_c, 0, 52, 0
4, 143400, Note_on_c, 0, 55, 73
4, 143520, Note_on_c, 0, 55, 0
4, 143520, Note_on_c, 0, 61, 75
4, 143640, Note_on_c, 0, 61, 0
4, 143640, Note_on_c, 0, 55, 76
4, 143760, Note_on_c, 0, 55, 0
4, 143760, Note_on_c, 0, 52, 78
4, 143880, Note_on_c, 0, 52, 0
4, 143880, Note_on_c, 0, 49, 80
4, 144000, Note_on_c, 0, 49, 0
4, 144000, Note_on_c, 0, 50, 82
4, 144078, Note_on_c, 0, 50, 0
4, 144120, Note_on_c, 0, 53, 77
4, 144240, Note_on_c, 0, 53, 0
4, 144240, Note_on_c, 0, 57, 76
4, 144360, Note_on_c, 0, 57, 0
4, 144360, Note_on_c, 0, 61, 75
4, 144480, Note_on_c, 0, 61, 0
4, 144480, Note_on_c, 0, 62, 74
4, 144600, Note_on_c, 0, 62, 0
4, 144600, Note_on_c, 0, 53, 73
4, 144720, Note_on_c, 0, 53, 0
4, 144720, Note_on_c, 0, 57, 72
4, 144840, Note_on_c, 0, 57, 0
4, 144840, Note_on_c, 0, 53, 71
4, 144960, Note_on_c, 0, 53, 0
4, 144960, Note_on_c, 0, 53, 70
4, 145080, Note_on_c, 0, 53, 0
4, 145080, Note_on_c, 0, 52, 69
4, 145200, Note_on_c, 0, 52, 0
4, 145200, Note_on_c, 0, 55, 68
4, 145320, Note_on_c, 0, 55, 0
4, 145320, Note_on_c, 0, 52, 67
4, 145440, Note_on_c, 0, 52, 0
4, 145440, Note_on_c, 0, 52, 66
4, 145560, Note_on_c, 0, 52, 0
4, 145560, Note_on_c, 0, 50, 65
4, 145680, Note_on_c, 0, 50, 0
4, 145680, Note_on_c, 0, 53, 64
4, 145800, Note_on_c, 0, 53, 0
4, 145800, Note_on_c, 0, 50, 63
4, 145920, Note_on_c, 0, 50, 0
4, 145920, Note_on_c, 0, 53, 62
4, 146400, Note_on_c, 0, 53, 0
4, 146400, Note_on_c, 0, 52, 58
4, 146640, Note_on_c, 0, 52, 0
4, 148800, Note_on_c, 0, 48, 68
4, 149280, Note_on_c, 0, 48, 0
4, 149280, Note_on_c, 0, 55, 70
4, 149760, Note_on_c, 0, 55, 0
4, 149760, Note_on_c, 0, 47, 72
4, 150000, Note_on_c, 0, 47, 0
4, 150240, Note_on_c, 0, 55, 67
4, 150480, Note_on_c, 0, 55, 0
4, 150840, Note_on_c, 0, 48, 67
4, 150960, Note_on_c, 0, 48, 0
4, 150960, Note_on_c, 0, 47, 68
4, 151080, Note_on_c, 0, 47, 0
4, 151080, Note_on_c, 0, 48, 69
4, 151200, Note_on_c, 0, 48, 0
4, 151200, Note_on_c, 0, 50, 70
4, 151320, Note_on_c, 0, 50, 0
4, 151320, Note_on_c, 0, 48, 71
4, 151440, Note_on_c, 0, 48, 0
4, 151440, Note_on_c, 0, 47, 72
4, 151560, Note_on_c, 0, 47, 0
4, 151560, Note_on_c, 0, 48, 72
4, 151680, Note_on_c, 0, 48, 0
4, 151680, Note_on_c, 0, 50, 76
4, 151758, Note_on_c, 0, 50, 0
4, 151800, Note_on_c, 0, 43, 75
4, 151920, Note_on_c, 0, 43, 0
4, 151920, Note_on_c, 0, 45, 74
4, 152040, Note_on_c, 0, 45, 0
4, 152040, Note_on_c, 0, 46, 73
4, 152160, Note_on_c, 0, 46, 0
4, 152160, Note_on_c, 0, 47, 72
4, 152280, Note_on_c, 0, 47, 0
4, 152280, Note_on_c, 0, 48, 71
4, 152400, Note_on_c, 0, 48, 0
4, 152400, Note_on_c, 0, 49, 70
4, 152520, Note_on_c, 0, 49, 0
4, 152520, Note_on_c, 0, 50, 69
4, 152640, Note_on_c, 0, 50, 0
4, 152640, Note_on_c, 0, 51, 95
4, 152640, Note_on_c, 0, 48, 95
4, 152880, Note_on_c, 0, 48, 0
4, 152880, Note_on_c, 0, 51, 0
4, 153120, Note_on_c, 0, 55, 97
4, 153120, Note_on_c, 0, 48, 97
4, 153120, Note_on_c, 0, 51, 97
4, 153360, Note_on_c, 0, 51, 0
4, 153360, Note_on_c, 0, 48, 0
4, 153360, Note_on_c, 0, 55, 0
4, 153600, Note_on_c, 0, 43, 100
4, 153600, Note_on_c, 0, 55, 100
4, 153600, Note_on_c, 0, 47, 100
4, 153600, Note_on_c, 0, 50, 100
4, 154560, Note_on_c, 0, 50, 0
4, 154560, Note_on_c, 0, 43, 0
4, 154560, Note_on_c, 0, 55, 0
4, 154560, Note_on_c, 0, 47, 0
4, 158520, Note_on_c, 0, 48, 67
4, 158640, Note_on_c, 0, 48, 0
4, 158640, Note_on_c, 0, 52, 68
4, 158760, Note_on_c, 0, 52, 0
4, 158760, Note_on_c, 0, 55, 69
4, 158880, Note_on_c, 0, 55, 0
4, 158880, Note_on_c, 0, 60, 70
4, 159000, Note_on_c, 0, 60, 0
4, 159000, Note_on_c, 0, 55, 71
4, 159120, Note_on_c, 0, 55, 0
4, 159120, Note_on_c, 0, 61, 72
4, 159240, Note_on_c, 0, 61, 0
4, 159240, Note_on_c, 0, 55, 73
4, 159360, Note_on_c, 0, 55, 0
4, 159360, Note_on_c, 0, 61, 78
4, 159438, Note_on_c, 0, 61, 0
4, 159480, Note_on_c, 0, 57, 77
4, 159600, Note_on_c, 0, 57, 0
4, 159600, Note_on_c, 0, 62, 76
4, 159720, Note_on_c, 0, 62, 0
4, 159720, Note_on_c, 0, 57, 75
4, 159840, Note_on_c, 0, 57, 0
4, 159840, Note_on_c, 0, 53, 74
4, 159960, Note_on_c, 0, 53, 0
4, 159960, Note_on_c, 0, 57, 73
4, 160080, Note_on_c, 0, 57, 0
4, 160080, Note_on_c, 0, 50, 72
4, 160200, Note_on_c, 0, 50, 0
4, 160200, Note_on_c, 0, 53, 71
4, 160320, Note_on_c, 0, 53, 0
4, 160320, Note_on_c, 0, 52, 70
4, 160440, Note_on_c, 0, 52, 0
4, 160440, Note_on_c, 0, 55, 69
4, 160560, Note_on_c, 0, 55, 0
4, 160560, Note_on_c, 0, 52, 68
4, 160680, Note_on_c, 0, 52, 0
4, 160680, Note_on_c, 0, 55, 67
4, 160800, Note_on_c, 0, 55, 0
4, 160800, Note_on_c, 0, 50, 66
4, 160920, Note_on_c, 0, 50, 0
4, 160920, Note_on_c, 0, 53, 65
4, 161040, Note_on_c, 0, 53, 0
4, 161040, Note_on_c, 0, 50, 63
4, 161160, Note_on_c, 0, 50, 0
4, 161160, Note_on_c, 0, 53, 62
4, 161280, Note_on_c, 0, 53, 0
4, 161280, Note_on_c, 0, 47, 61
4, 161400, Note_on_c, 0, 47, 0
4, 161400, Note_on_c, 0, 55, 60
4, 161520, Note_on_c, 0, 55, 0
4, 161520, Note_on_c, 0, 47, 59
4, 161640, Note_on_c, 0, 47, 0
4, 161640, Note_on_c, 0, 55, 58
4, 161760, Note_on_c, 0, 55, 0
4, 161760, Note_on_c, 0, 48, 57
4, 162000, Note_on_c, 0, 48, 0
4, 162240, Note_on_c, 0, 48, 103
4, 162240, Note_on_c, 0, 55, 103
4, 162240, Note_on_c, 0, 52, 103
4, 162396, Note_on_c, 0, 52, 0
4, 162396, Note_on_c, 0, 55, 0
4, 162396, Note_on_c, 0, 48, 0
4, 162720, Note_on_c, 0, 52, 107
4, 162720, Note_on_c, 0, 48, 107
4, 162720, Note_on_c, 0, 55, 107
4, 162876, Note_on_c, 0, 55, 0
4, 162876, Note_on_c, 0, 48, 0
4, 162876, Note_on_c, 0, 52, 0
4, 163200, Note_on_c, 0, 50, 110
4, 163200, Note_on_c, 0, 47, 110
4, 163200, Note_on_c, 0, 55, 110
4, 163356, Note_on_c, 0, 55, 0
4, 163356, Note_on_c, 0, 47, 0
4, 163356, Note_on_c, 0, 50, 0
4, 163680, Note_on_c, 0, 50, 109
4, 163680, Note_on_c, 0, 47, 109
4, 163680, Note_on_c, 0, 55, 109
4, 163836, Note_on_c, 0, 55, 0
4, 163836, Note_on_c, 0, 47, 0
4, 163836, Note_on_c, 0, 50, 0
4, 164160, Note_on_c, 0, 48, 107
4, 164160, Note_on_c, 0, 52, 107
4, 164160, Note_on_c, 0, 55, 107
4, 164316, Note_on_c, 0, 55, 0
4, 164316, Note_on_c, 0, 52, 0
4, 164316, Note_on_c, 0, 48, 0
4, 164640, Note_on_c, 0, 52, 111
4, 164640, Note_on_c, 0, 48, 111
4, 164640, Note_on_c, 0, 55, 111
4, 164796, Note_on_c, 0, 55, 0
4, 164796, Note_on_c, 0, 48, 0
4, 164796, Note_on_c, 0, 52, 0
4, 165120, Note_on_c, 0, 47, 116
4, 165120, Note_on_c, 0, 50, 116
4, 165120, Note_on_c, 0, 55, 116
4, 165276, Note_on_c, 0, 55, 0
4, 165276, Note_on_c, 0, 50, 0
4, 165276, Note_on_c, 0, 47, 0
4, 166080, Note_on_c, 0, 52, 109
4, 166080, Note_on_c, 0, 55, 109
4, 166080, Note_on_c, 0, 60, 109
4, 166236, Note_on_c, 0, 60, 0
4, 166236, Note_on_c, 0, 55, 0
4, 166236, Note_on_c, 0, 52, 0
4, 166560, Note_on_c, 0, 52, 113
4, 166560, Note_on_c, 0, 55, 113
4, 166560, Note_on_c, 0, 60, 113
4, 166716, Note_on_c, 0, 60, 0
4, 166716, Note_on_c, 0, 55, 0
4, 166716, Note_on_c, 0, 52, 0
4, 167040, Note_on_c, 0, 53, 117
4, 167040, Note_on_c, 0, 57, 117
4, 167040, Note_on_c, 0, 60, 117
4, 167196, Note_on_c, 0, 60, 0
4, 167196, Note_on_c, 0, 57, 0
4, 167196, Note_on_c, 0, 53, 0
4, 167520, Note_on_c, 0, 53, 112
4, 167520, Note_on_c, 0, 60, 112
4, 167676, Note_on_c, 0, 60, 0
4, 167676, Note_on_c, 0, 53, 0
4, 168000, Note_on_c, 0, 53, 107
4, 168000, Note_on_c, 0, 50, 107
4, 168156, Note_on_c, 0, 50, 0
4, 168156, Note_on_c, 0, 53, 0
4, 168480, Note_on_c, 0, 53, 109
4, 168480, Note_on_c, 0, 55, 109
4, 168480, Note_on_c, 0, 59, 109
4, 168480, Note_on_c, 0, 62, 109
4, 168636, Note_on_c, 0, 62, 0
4, 168636, Note_on_c, 0, 53, 0
4, 168636, Note_on_c, 0, 55, 0
4, 168636, Note_on_c, 0, 59, 0
4, 168960, Note_on_c, 0, 48, 109
4, 168960, Note_on_c, 0, 55, 109
4, 168960, Note_on_c, 0, 52, 109
4, 168960, Note_on_c, 0, 64, 109
4, 168960, Note_on_c, 0, 60, 109
4, 169116, Note_on_c, 0, 60, 0
4, 169116, Note_on_c, 0, 52, 0
4, 169116, Note_on_c, 0, 48, 0
4, 169116, Note_on_c, 0, 55, 0
4, 169116, Note_on_c, 0, 64, 0
4, 170400, Note_on_c, 0, 48, 108
4, 170400, Note_on_c, 0, 61, 108
4, 170400, Note_on_c, 0, 67, 108
4, 170400, Note_on_c, 0, 70, 108
4, 170556, Note_on_c, 0, 70, 0
4, 170556, Note_on_c, 0, 48, 0
4, 170556, Note_on_c, 0, 61, 0
4, 170556, Note_on_c, 0, 67, 0
4, 171360, Note_on_c, 0, 52, 112
4, 171360, Note_on_c, 0, 62, 112
4, 171360, Note_on_c, 0, 57, 112
4, 171360, Note_on_c, 0, 74, 112
4, 171360, Note_on_c, 0, 69, 112
4, 171360, Note_on_c, 0, 65, 112
4, 171516, Note_on_c, 0, 65, 0
4, 171516, Note_on_c, 0, 62, 0
4, 171516, Note_on_c, 0, 57, 0
4, 171516, Note_on_c, 0, 52, 0
4, 171516, Note_on_c, 0, 69, 0
4, 171516, Note_on_c, 0, 74, 0
4, 171840, Note_on_c, 0, 55, 114
4, 171996, Note_on_c, 0, 55, 0
4, 172320, Note_on_c, 0, 53, 116
4, 172320, Note_on_c, 0, 65, 116
4, 172320, Note_on_c, 0, 62, 116
4, 172320, Note_on_c, 0, 59, 116
4, 172320, Note_on_c, 0, 67, 116
4, 172320, Note_on_c, 0, 77, 116
4, 172320, Note_on_c, 0, 74, 116
4, 172320, Note_on_c, 0, 71, 116
4, 172476, Note_on_c, 0, 71, 0
4, 172476, Note_on_c, 0, 53, 0
4, 172476, Note_on_c, 0, 67, 0
4, 172476, Note_on_c, 0, 65, 0
4, 172476, Note_on_c, 0, 62, 0
4, 172476, Note_on_c, 0, 59, 0
4, 172476, Note_on_c, 0, 77, 0
4, 172476, Note_on_c, 0, 74, 0
4, 172800, Note_on_c, 0, 60, 108
4, 172800, Note_on_c, 0, 67, 108
4, 172800, Note_on_c, 0, 64, 108
4, 172800, Note_on_c, 0, 76, 108
4, 172800, Note_on_c, 0, 72, 108
4, 172956, Note_on_c, 0, 72, 0
4, 172956, Note_on_c, 0, 64, 0
4, 172956, Note_on_c, 0, 60, 0
4, 172956, Note_on_c, 0, 67, 0
4, 172956, Note_on_c, 0, 76, 0
4, 173280, Note_on_c, 0, 48, 103
4, 173280, Note_on_c, 0, 55, 118
4, 173436, Note_on_c, 0, 55, 0
4, 173436, Note_on_c, 0, 48, 0
4, 181440, Note_on_c, 0, 52, 105
4, 181440, Note_on_c, 0, 55, 105
4, 181440, Note_on_c, 0, 48, 105
4, 181596, Note_on_c, 0, 48, 0
4, 181596, Note_on_c, 0, 55, 0
4, 181596, Note_on_c, 0, 52, 0
4, 181920, Note_on_c, 0, 52, 108
4, 181920, Note_on_c, 0, 48, 108
4, 182076, Note_on_c, 0, 48, 0
4, 182076, Note_on_c, 0, 52, 0
4, 182400, Note_on_c, 0, 50, 112
4, 182400, Note_on_c, 0, 47, 112
4, 182556, Note_on_c, 0, 47, 0
4, 182556, Note_on_c, 0, 50, 0
4, 182880, Note_on_c, 0, 50, 108
4, 182880, Note_on_c, 0, 47, 108
4, 183036, Note_on_c, 0, 47, 0
4, 183036, Note_on_c, 0, 50, 0
4, 183360, Note_on_c, 0, 52, 105
4, 183360, Note_on_c, 0, 48, 105
4, 183516, Note_on_c, 0, 48, 0
4, 183516, Note_on_c, 0, 52, 0
4, 183840, Note_on_c, 0, 52, 110
4, 183840, Note_on_c, 0, 48, 110
4, 183996, Note_on_c, 0, 48, 0
4, 183996, Note_on_c, 0, 52, 0
4, 184320, Note_on_c, 0, 50, 116
4, 184320, Note_on_c, 0, 47, 116
4, 184476, Note_on_c, 0, 47, 0
4, 184476, Note_on_c, 0, 50, 0
4, 185280, Note_on_c, 0, 43, 107
4, 185280, Note_on_c, 0, 48, 107
4, 185436, Note_on_c, 0, 48, 0
4, 185436, Note_on_c, 0, 43, 0
4, 185760, Note_on_c, 0, 55, 112
4, 185916, Note_on_c, 0, 55, 0
4, 186240, Note_on_c, 0, 50, 117
4, 186240, Note_on_c, 0, 45, 117
4, 186396, Note_on_c, 0, 45, 0
4, 186396, Note_on_c, 0, 50, 0
4, 186720, Note_on_c, 0, 53, 110
4, 186876, Note_on_c, 0, 53, 0
4, 187200, Note_on_c, 0, 52, 108
4, 187200, Note_on_c, 0, 48, 108
4, 187200, Note_on_c, 0, 55, 108
4, 187356, Note_on_c, 0, 55, 0
4, 187356, Note_on_c, 0, 48, 0
4, 187356, Note_on_c, 0, 52, 0
4, 187680, Note_on_c, 0, 50, 110
4, 187680, Note_on_c, 0, 55, 110
4, 187680, Note_on_c, 0, 59, 110
4, 187680, Note_on_c, 0, 53, 110
4, 187836, Note_on_c, 0, 53, 0
4, 187836, Note_on_c, 0, 50, 0
4, 187836, Note_on_c, 0, 55, 0
4, 187836, Note_on_c, 0, 59, 0
4, 188160, Note_on_c, 0, 48, 115
4, 188160, Note_on_c, 0, 55, 115
4, 188160, Note_on_c, 0, 52, 115
4, 188316, Note_on_c, 0, 52, 0
4, 188316, Note_on_c, 0, 55, 0
4, 188316, Note_on_c, 0, 48, 0
4, 189120, Note_on_c, 0, 60, 59
4, 189276, Note_on_c, 0, 60, 0
4, 189360, Note_on_c, 0, 60, 60
4, 189516, Note_on_c, 0, 60, 0
4, 189840, Note_on_c, 0, 59, 61
4, 189960, Note_on_c, 0, 59, 0
4, 189960, Note_on_c, 0, 60, 62
4, 190080, Note_on_c, 0, 60, 0
4, 190080, Note_on_c, 0, 59, 62
4, 190236, Note_on_c, 0, 59, 0
4, 190320, Note_on_c, 0, 59, 61
4, 190476, Note_on_c, 0, 59, 0
4, 190800, Note_on_c, 0, 58, 57
4, 190920, Note_on_c, 0, 58, 0
4, 190920, Note_on_c, 0, 59, 56
4, 191040, Note_on_c, 0, 59, 0
4, 191040, Note_on_c, 0, 60, 59
4, 191144, Note_on_c, 0, 60, 0
4, 191200, Note_on_c, 0, 60, 60
4, 191304, Note_on_c, 0, 60, 0
4, 191360, Note_on_c, 0, 62, 62
4, 191464, Note_on_c, 0, 62, 0
4, 191520, Note_on_c, 0, 63, 63
4, 191624, Note_on_c, 0, 63, 0
4, 191680, Note_on_c, 0, 64, 64
4, 191784, Note_on_c, 0, 64, 0
4, 191840, Note_on_c, 0, 65, 65
4, 191944, Note_on_c, 0, 65, 0
4, 192000, Note_on_c, 0, 65, 70
4, 192160, Note_on_c, 0, 65, 0
4, 192160, Note_on_c, 0, 64, 68
4, 192264, Note_on_c, 0, 64, 0
4, 192320, Note_on_c, 0, 60, 66
4, 192424, Note_on_c, 0, 60, 0
4, 192480, Note_on_c, 0, 59, 65
4, 192720, Note_on_c, 0, 59, 0
4, 192960, Note_on_c, 0, 60, 63
4, 193116, Note_on_c, 0, 60, 0
4, 193200, Note_on_c, 0, 60, 65
4, 193356, Note_on_c, 0, 60, 0
4, 193680, Note_on_c, 0, 60, 68
4, 193800, Note_on_c, 0, 60, 0
4, 193800, Note_on_c, 0, 61, 69
4, 193920, Note_on_c, 0, 61, 0
4, 193920, Note_on_c, 0, 62, 70
4, 194076, Note_on_c, 0, 62, 0
4, 194160, Note_on_c, 0, 62, 68
4, 194316, Note_on_c, 0, 62, 0
4, 194640, Note_on_c, 0, 61, 65
4, 194760, Note_on_c, 0, 61, 0
4, 194760, Note_on_c, 0, 62, 64
4, 194880, Note_on_c, 0, 62, 0
4, 194880, Note_on_c, 0, 60, 65
4, 195360, Note_on_c, 0, 60, 0
4, 195360, Note_on_c, 0, 59, 67
4, 195600, Note_on_c, 0, 59, 0
4, 195840, Note_on_c, 0, 62, 70
4, 195960, Note_on_c, 0, 62, 0
4, 195960, Note_on_c, 0, 60, 69
4, 196080, Note_on_c, 0, 60, 0
4, 196080, Note_on_c, 0, 59, 68
4, 196200, Note_on_c, 0, 59, 0
4, 196200, Note_on_c, 0, 60, 67
4, 196320, Note_on_c, 0, 60, 0
4, 196320, Note_on_c, 0, 59, 66
4, 196440, Note_on_c, 0, 59, 0
4, 196440, Note_on_c, 0, 60, 65
4, 196560, Note_on_c, 0, 60, 0
4, 196560, Note_on_c, 0, 62, 64
4, 196680, Note_on_c, 0, 62, 0
4, 196680, Note_on_c, 0, 60, 63
4, 196800, Note_on_c, 0, 60, 0
4, 196800, Note_on_c, 0, 60, 66
4, 196920, Note_on_c, 0, 60, 0
4, 196920, Note_on_c, 0, 55, 67
4, 197040, Note_on_c, 0, 55, 0
4, 197040, Note_on_c, 0, 60, 69
4, 197160, Note_on_c, 0, 60, 0
4, 197160, Note_on_c, 0, 55, 71
4, 197280, Note_on_c, 0, 55, 0
4, 197280, Note_on_c, 0, 61, 73
4, 197400, Note_on_c, 0, 61, 0
4, 197400, Note_on_c, 0, 55, 74
4, 197520, Note_on_c, 0, 55, 0
4, 197520, Note_on_c, 0, 61, 76
4, 197640, Note_on_c, 0, 61, 0
4, 197640, Note_on_c, 0, 55, 78
4, 197760, Note_on_c, 0, 55, 0
4, 197760, Note_on_c, 0, 62, 79
4, 197880, Note_on_c, 0, 62, 0
4, 197880, Note_on_c, 0, 57, 77
4, 198000, Note_on_c, 0, 57, 0
4, 198000, Note_on_c, 0, 62, 76
4, 198120, Note_on_c, 0, 62, 0
4, 198120, Note_on_c, 0, 57, 75
4, 198240, Note_on_c, 0, 57, 0
4, 198240, Note_on_c, 0, 53, 74
4, 198360, Note_on_c, 0, 53, 0
4, 198360, Note_on_c, 0, 57, 72
4, 198480, Note_on_c, 0, 57, 0
4, 198480, Note_on_c, 0, 62, 71
4, 198600, Note_on_c, 0, 62, 0
4, 198600, Note_on_c, 0, 65, 70
4, 198720, Note_on_c, 0, 65, 0
4, 198720, Note_on_c, 0, 52, 69
4, 198840, Note_on_c, 0, 52, 0
4, 198840, Note_on_c, 0, 55, 68
4, 198960, Note_on_c, 0, 55, 0
4, 198960, Note_on_c, 0, 52, 67
4, 199080, Note_on_c, 0, 52, 0
4, 199080, Note_on_c, 0, 55, 66
4, 199200, Note_on_c, 0, 55, 0
4, 199200, Note_on_c, 0, 50, 65
4, 199320, Note_on_c, 0, 50, 0
4, 199320, Note_on_c, 0, 55, 64
4, 199440, Note_on_c, 0, 55, 0
4, 199440, Note_on_c, 0, 53, 63
4, 199560, Note_on_c, 0, 53, 0
4, 199560, Note_on_c, 0, 55, 62
4, 199680, Note_on_c, 0, 55, 0
4, 199680, Note_on_c, 0, 53, 60
4, 200160, Note_on_c, 0, 53, 0
4, 200160, Note_on_c, 0, 52, 56
4, 200400, Note_on_c, 0, 52, 0
4, 200640, Note_on_c, 0, 67, 65
4, 200880, Note_on_c, 0, 67, 0
4, 200880, Note_on_c, 0, 67, 66
4, 201120, Note_on_c, 0, 67, 0
4, 201120, Note_on_c, 0, 67, 68
4, 201360, Note_on_c, 0, 67, 0
4, 201360, Note_on_c, 0, 67, 69
4, 201600, Note_on_c, 0, 67, 0
4, 201600, Note_on_c, 0, 67, 72
4, 201840, Note_on_c, 0, 67, 0
4, 201840, Note_on_c, 0, 67, 70
4, 202080, Note_on_c, 0, 67, 0
4, 202080, Note_on_c, 0, 67, 68
4, 202320, Note_on_c, 0, 67, 0
4, 202320, Note_on_c, 0, 67, 65
4, 202560, Note_on_c, 0, 67, 0
4, 202560, Note_on_c, 0, 67, 63
4, 202800, Note_on_c, 0, 67, 0
4, 202800, Note_on_c, 0, 67, 65
4, 203040, Note_on_c, 0, 67, 0
4, 203040, Note_on_c, 0, 67, 66
4, 203280, Note_on_c, 0, 67, 0
4, 203280, Note_on_c, 0, 67, 68
4, 203520, Note_on_c, 0, 67, 0
4, 203520, Note_on_c, 0, 67, 72
4, 203760, Note_on_c, 0, 67, 0
4, 203760, Note_on_c, 0, 67, 70
4, 204000, Note_on_c, 0, 67, 0
4, 204000, Note_on_c, 0, 67, 67
4, 204240, Note_on_c, 0, 67, 0
4, 204240, Note_on_c, 0, 67, 65
4, 204480, Note_on_c, 0, 67, 0
4, 204480, Note_on_c, 0, 55, 59
4, 204720, Note_on_c, 0, 55, 0
4, 204720, Note_on_c, 0, 55, 61
4, 204960, Note_on_c, 0, 55, 0
4, 204960, Note_on_c, 0, 55, 63
4, 205200, Note_on_c, 0, 55, 0
4, 205200, Note_on_c, 0, 55, 64
4, 205440, Note_on_c, 0, 55, 0
4, 205440, Note_on_c, 0, 55, 68
4, 205680, Note_on_c, 0, 55, 0
4, 205680, Note_on_c, 0, 55, 65
4, 205920, Note_on_c, 0, 55, 0
4, 205920, Note_on_c, 0, 55, 63
4, 206160, Note_on_c, 0, 55, 0
4, 206160, Note_on_c, 0, 55, 60
4, 206400, Note_on_c, 0, 55, 0
4, 206400, Note_on_c, 0, 55, 57
4, 206640, Note_on_c, 0, 55, 0
4, 206640, Note_on_c, 0, 55, 59
4, 206880, Note_on_c, 0, 55, 0
4, 206880, Note_on_c, 0, 55, 60
4, 207120, Note_on_c, 0, 55, 0
4, 207120, Note_on_c, 0, 55, 61
4, 207360, Note_on_c, 0, 55, 0
4, 207360, Note_on_c, 0, 55, 58
4, 208800, Note_on_c, 0, 55, 0
4, 214080, Note_on_c, 0, 60, 59
4, 214236, Note_on_c, 0, 60, 0
4, 214320, Note_on_c, 0, 60, 60
4, 214476, Note_on_c, 0, 60, 0
4, 214800, Note_on_c, 0, 59, 63
4, 214920, Note_on_c, 0, 59, 0
4, 214920, Note_on_c, 0, 60, 63
4, 215040, Note_on_c, 0, 60, 0
4, 215040, Note_on_c, 0, 59, 64
4, 215196, Note_on_c, 0, 59, 0
4, 215280, Note_on_c, 0, 59, 63
4, 215436, Note_on_c, 0, 59, 0
4, 215760, Note_on_c, 0, 58, 61
4, 215880, Note_on_c, 0, 58, 0
4, 215880, Note_on_c, 0, 59, 60
4, 216000, Note_on_c, 0, 59, 0
4, 216000, Note_on_c, 0, 60, 61
4, 216104, Note_on_c, 0, 60, 0
4, 216160, Note_on_c, 0, 60, 63
4, 216264, Note_on_c, 0, 60, 0
4, 216320, Note_on_c, 0, 62, 64
4, 216424, Note_on_c, 0, 62, 0
4, 216480, Note_on_c, 0, 63, 65
4, 216584, Note_on_c, 0, 63, 0
4, 216640, Note_on_c, 0, 64, 66
4, 216744, Note_on_c, 0, 64, 0
4, 216800, Note_on_c, 0, 65, 67
4, 216904, Note_on_c, 0, 65, 0
4, 216960, Note_on_c, 0, 65, 73
4, 217120, Note_on_c, 0, 65, 0
4, 217120, Note_on_c, 0, 64, 70
4, 217224, Note_on_c, 0, 64, 0
4, 217280, Note_on_c, 0, 60, 67
4, 217384, Note_on_c, 0, 60, 0
4, 217440, Note_on_c, 0, 59, 63
4, 217596, Note_on_c, 0, 59, 0
4, 217920, Note_on_c, 0, 60, 65
4, 217998, Note_on_c, 0, 60, 0
4, 218040, Note_on_c, 0, 60, 66
4, 218160, Note_on_c, 0, 60, 0
4, 218160, Note_on_c, 0, 59, 68
4, 218280, Note_on_c, 0, 59, 0
4, 218280, Note_on_c, 0, 60, 69
4, 218400, Note_on_c, 0, 60, 0
4, 218400, Note_on_c, 0, 62, 70
4, 218520, Note_on_c, 0, 62, 0
4, 218520, Note_on_c, 0, 60, 72
4, 218640, Note_on_c, 0, 60, 0
4, 218640, Note_on_c, 0, 64, 73
4, 218760, Note_on_c, 0, 64, 0
4, 218760, Note_on_c, 0, 60, 74
4, 218880, Note_on_c, 0, 60, 0
4, 218880, Note_on_c, 0, 64, 76
4, 219000, Note_on_c, 0, 64, 0
4, 219000, Note_on_c, 0, 62, 75
4, 219120, Note_on_c, 0, 62, 0
4, 219120, Note_on_c, 0, 61, 74
4, 219240, Note_on_c, 0, 61, 0
4, 219240, Note_on_c, 0, 62, 73
4, 219360, Note_on_c, 0, 62, 0
4, 219360, Note_on_c, 0, 64, 72
4, 219480, Note_on_c, 0, 64, 0
4, 219480, Note_on_c, 0, 62, 71
4, 219600, Note_on_c, 0, 62, 0
4, 219600, Note_on_c, 0, 65, 70
4, 219720, Note_on_c, 0, 65, 0
4, 219720, Note_on_c, 0, 62, 69
4, 219840, Note_on_c, 0, 62, 0
4, 219840, Note_on_c, 0, 62, 68
4, 219960, Note_on_c, 0, 62, 0
4, 219960, Note_on_c, 0, 60, 67
4, 220080, Note_on_c, 0, 60, 0
4, 220080, Note_on_c, 0, 62, 66
4, 220200, Note_on_c, 0, 62, 0
4, 220200, Note_on_c, 0, 60, 65
4, 220320, Note_on_c, 0, 60, 0
4, 220320, Note_on_c, 0, 60, 64
4, 220440, Note_on_c, 0, 60, 0
4, 220440, Note_on_c, 0, 59, 63
4, 220560, Note_on_c, 0, 59, 0
4, 220560, Note_on_c, 0, 60, 62
4, 220680, Note_on_c, 0, 60, 0
4, 220680, Note_on_c, 0, 59, 61
4, 220800, Note_on_c, 0, 59, 0
4, 220800, Note_on_c, 0, 55, 60
4, 220800, Note_on_c, 0, 59, 60
4, 221280, Note_on_c, 0, 59, 0
4, 221280, Note_on_c, 0, 60, 56
4, 221436, Note_on_c, 0, 60, 0
4, 221520, Note_on_c, 0, 55, 0
4, 221920, Note_on_c, 0, 60, 52
4, 221920, Note_on_c, 0, 55, 52
4, 222080, Note_on_c, 0, 55, 0
4, 222080, Note_on_c, 0, 60, 0
4, 222080, Note_on_c, 0, 60, 54
4, 222080, Note_on_c, 0, 55, 54
4, 222240, Note_on_c, 0, 55, 0
4, 222240, Note_on_c, 0, 60, 0
4, 222240, Note_on_c, 0, 55, 55
4, 222240, Note_on_c, 0, 60, 55
4, 222400, Note_on_c, 0, 60, 0
4, 222400, Note_on_c, 0, 55, 0
4, 222400, Note_on_c, 0, 60, 57
4, 222400, Note_on_c, 0, 55, 57
4, 222560, Note_on_c, 0, 55, 0
4, 222560, Note_on_c, 0, 60, 0
4, 222560, Note_on_c, 0, 60, 58
4, 222560, Note_on_c, 0, 55, 58
4, 222720, Note_on_c, 0, 55, 0
4, 222720, Note_on_c, 0, 60, 0
4, 222720, Note_on_c, 0, 55, 60
4, 222720, Note_on_c, 0, 60, 60
4, 222880, Note_on_c, 0, 60, 0
4, 222880, Note_on_c, 0, 55, 0
4, 222880, Note_on_c, 0, 60, 60
4, 222880, Note_on_c, 0, 55, 60
4, 223040, Note_on_c, 0, 55, 0
4, 223040, Note_on_c, 0, 60, 0
4, 223040, Note_on_c, 0, 55, 59
4, 223040, Note_on_c, 0, 60, 59
4, 223200, Note_on_c, 0, 60, 0
4, 223200, Note_on_c, 0, 55, 0
4, 223200, Note_on_c, 0, 59, 58
4, 223200, Note_on_c, 0, 55, 58
4, 223360, Note_on_c, 0, 55, 0
4, 223360, Note_on_c, 0, 59, 0
4, 223360, Note_on_c, 0, 55, 57
4, 223360, Note_on_c, 0, 59, 57
4, 223520, Note_on_c, 0, 59, 0
4, 223520, Note_on_c, 0, 55, 0
4, 223520, Note_on_c, 0, 55, 56
4, 223520, Note_on_c, 0, 59, 56
4, 223680, Note_on_c, 0, 59, 0
4, 223680, Note_on_c, 0, 55, 0
4, 223680, Note_on_c, 0, 55, 53
4, 223680, Note_on_c, 0, 60, 53
4, 223840, Note_on_c, 0, 60, 0
4, 223840, Note_on_c, 0, 55, 0
4, 223840, Note_on_c, 0, 60, 55
4, 223840, Note_on_c, 0, 55, 55
4, 224000, Note_on_c, 0, 55, 0
4, 224000, Note_on_c, 0, 60, 0
4, 224000, Note_on_c, 0, 55, 57
4, 224000, Note_on_c, 0, 60, 57
4, 224160, Note_on_c, 0, 60, 0
4, 224160, Note_on_c, 0, 55, 0
4, 224160, Note_on_c, 0, 55, 59
4, 224160, Note_on_c, 0, 60, 59
4, 224320, Note_on_c, 0, 60, 0
4, 224320, Note_on_c, 0, 55, 0
4, 224320, Note_on_c, 0, 55, 60
4, 224320, Note_on_c, 0, 60, 60
4, 224480, Note_on_c, 0, 60, 0
4, 224480, Note_on_c, 0, 55, 0
4, 224480, Note_on_c, 0, 55, 62
4, 224480, Note_on_c, 0, 60, 62
4, 224640, Note_on_c, 0, 60, 0
4, 224640, Note_on_c, 0, 55, 0
4, 224640, Note_on_c, 0, 55, 64
4, 224640, Note_on_c, 0, 59, 64
4, 224800, Note_on_c, 0, 59, 0
4, 224800, Note_on_c, 0, 55, 0
4, 224800, Note_on_c, 0, 59, 62
4, 224800, Note_on_c, 0, 55, 62
4, 224960, Note_on_c, 0, 55, 0
4, 224960, Note_on_c, 0, 59, 0
4, 224960, Note_on_c, 0, 55, 60
4, 224960, Note_on_c, 0, 59, 60
4, 225120, Note_on_c, 0, 59, 0
4, 225120, Note_on_c, 0, 55, 0
4, 225120, Note_on_c, 0, 55, 58
4, 225120, Note_on_c, 0, 59, 58
4, 225280, Note_on_c, 0, 59, 0
4, 225280, Note_on_c, 0, 55, 0
4, 225280, Note_on_c, 0, 55, 56
4, 225280, Note_on_c, 0, 59, 56
4, 225440, Note_on_c, 0, 59, 0
4, 225440, Note_on_c, 0, 55, 0
4, 225440, Note_on_c, 0, 55, 54
4, 225440, Note_on_c, 0, 59, 54
4, 225600, Note_on_c, 0, 59, 0
4, 225600, Note_on_c, 0, 55, 0
4, 225760, Note_on_c, 0, 58, 59
4, 225760, Note_on_c, 0, 55, 59
4, 225760, Note_on_c, 0, 60, 59
4, 225920, Note_on_c, 0, 60, 0
4, 225920, Note_on_c, 0, 55, 0
4, 225920, Note_on_c, 0, 58, 0
4, 225920, Note_on_c, 0, 55, 61
4, 225920, Note_on_c, 0, 60, 61
4, 225920, Note_on_c, 0, 58, 61
4, 226080, Note_on_c, 0, 58, 0
4, 226080, Note_on_c, 0, 60, 0
4, 226080, Note_on_c, 0, 55, 0
4, 226240, Note_on_c, 0, 55, 64
4, 226240, Note_on_c, 0, 58, 64
4, 226240, Note_on_c, 0, 60, 64
4, 226400, Note_on_c, 0, 60, 0
4, 226400, Note_on_c, 0, 58, 0
4, 226400, Note_on_c, 0, 55, 0
4, 226400, Note_on_c, 0, 58, 66
4, 226400, Note_on_c, 0, 55, 66
4, 226400, Note_on_c, 0, 60, 66
4, 226560, Note_on_c, 0, 60, 0
4, 226560, Note_on_c, 0, 55, 0
4, 226560, Note_on_c, 0, 58, 0
4, 226720, Note_on_c, 0, 56, 69
4, 226720, Note_on_c, 0, 53, 69
4, 226720, Note_on_c, 0, 60, 69
4, 226880, Note_on_c, 0, 60, 0
4, 226880, Note_on_c, 0, 53, 0
4, 226880, Note_on_c, 0, 56, 0
4, 226880, Note_on_c, 0, 53, 68
4, 226880, Note_on_c, 0, 56, 68
4, 226880, Note_on_c, 0, 60, 68
4, 227040, Note_on_c, 0, 60, 0
4, 227040, Note_on_c, 0, 56, 0
4, 227040, Note_on_c, 0, 53, 0
4, 227200, Note_on_c, 0, 56, 65
4, 227200, Note_on_c, 0, 60, 65
4, 227200, Note_on_c, 0, 53, 65
4, 227360, Note_on_c, 0, 53, 0
4, 227360, Note_on_c, 0, 60, 0
4, 227360, Note_on_c, 0, 56, 0
4, 227360, Note_on_c, 0, 53, 64
4, 227360, Note_on_c, 0, 56, 64
4, 227360, Note_on_c, 0, 60, 64
4, 227520, Note_on_c, 0, 60, 0
4, 227520, Note_on_c, 0, 56, 0
4, 227520, Note_on_c, 0, 53, 0
4, 227680, Note_on_c, 0, 56, 64
4, 227680, Note_on_c, 0, 59, 64
4, 227680, Note_on_c, 0, 53, 64
4, 227840, Note_on_c, 0, 53, 0
4, 227840, Note_on_c, 0, 59, 0
4, 227840, Note_on_c, 0, 56, 0
4, 227840, Note_on_c, 0, 53, 64
4, 227840, Note_on_c, 0, 59, 64
4, 227840, Note_on_c, 0, 56, 64
4, 228000, Note_on_c, 0, 56, 0
4, 228000, Note_on_c, 0, 59, 0
4, 228000, Note_on_c, 0, 53, 0
4, 228160, Note_on_c, 0, 53, 66
4, 228160, Note_on_c, 0, 56, 66
4, 228160, Note_on_c, 0, 59, 66
4, 228320, Note_on_c, 0, 59, 0
4, 228320, Note_on_c, 0, 56, 0
4, 228320, Note_on_c, 0, 53, 0
4, 228320, Note_on_c, 0, 56, 67
4, 228320, Note_on_c, 0, 53, 67
4, 228320, Note_on_c, 0, 59, 67
4, 228480, Note_on_c, 0, 59, 0
4, 228480, Note_on_c, 0, 53, 0
4, 228480, Note_on_c, 0, 56, 0
4, 228640, Note_on_c, 0, 51, 68
4, 228640, Note_on_c, 0, 60, 68
4, 228640, Note_on_c, 0, 55, 68
4, 228800, Note_on_c, 0, 55, 0
4, 228800, Note_on_c, 0, 60, 0
4, 228800, Note_on_c, 0, 51, 0
4, 228800, Note_on_c, 0, 51, 67
4, 228800, Note_on_c, 0, 55, 67
4, 228800, Note_on_c, 0, 60, 67
4, 228960, Note_on_c, 0, 60, 0
4, 228960, Note_on_c, 0, 55, 0
4, 228960, Note_on_c, 0, 51, 0
4, 229120, Note_on_c, 0, 51, 66
4, 229120, Note_on_c, 0, 55, 66
4, 229120, Note_on_c, 0, 60, 66
4, 229280, Note_on_c, 0, 60, 0
4, 229280, Note_on_c, 0, 55, 0
4, 229280, Note_on_c, 0, 51, 0
4, 229280, Note_on_c, 0, 51, 65
4, 229280, Note_on_c, 0, 60, 65
4, 229280, Note_on_c, 0, 55, 65
4, 229440, Note_on_c, 0, 55, 0
4, 229440, Note_on_c, 0, 60, 0
4, 229440, Note_on_c, 0, 51, 0
4, 229440, Note_on_c, 0, 59, 71
4, 229440, Note_on_c, 0, 53, 71
4, 229440, Note_on_c, 0, 55, 71
4, 229600, Note_on_c, 0, 55, 0
4, 229600, Note_on_c, 0, 53, 0
4, 229600, Note_on_c, 0, 59, 0
4, 229600, Note_on_c, 0, 59, 70
4, 229600, Note_on_c, 0, 53, 70
4, 229600, Note_on_c, 0, 55, 70
4, 229760, Note_on_c, 0, 55, 0
4, 229760, Note_on_c, 0, 53, 0
4, 229760, Note_on_c, 0, 59, 0
4, 229760, Note_on_c, 0, 59, 71
4, 229760, Note_on_c, 0, 53, 71
4, 229760, Note_on_c, 0, 55, 71
4, 229920, Note_on_c, 0, 55, 0
4, 229920, Note_on_c, 0, 53, 0
4, 229920, Note_on_c, 0, 59, 0
4, 229920, Note_on_c, 0, 55, 79
4, 229920, Note_on_c, 0, 60, 79
4, 230080, Note_on_c, 0, 60, 0
4, 230080, Note_on_c, 0, 55, 0
4, 230080, Note_on_c, 0, 55, 75
4, 230080, Note_on_c, 0, 60, 75
4, 230240, Note_on_c, 0, 60, 0
4, 230240, Note_on_c, 0, 55, 0
4, 230240, Note_on_c, 0, 55, 77
4, 230240, Note_on_c, 0, 60, 77
4, 230400, Note_on_c, 0, 60, 0
4, 230400, Note_on_c, 0, 55, 0
4, 230400, Note_on_c, 0, 56, 80
4, 230560, Note_on_c, 0, 56, 0
4, 230560, Note_on_c, 0, 56, 76
4, 230560, Note_on_c, 0, 53, 76
4, 230720, Note_on_c, 0, 53, 0
4, 230720, Note_on_c, 0, 56, 0
4, 230720, Note_on_c, 0, 53, 76
4, 230720, Note_on_c, 0, 56, 76
4, 230880, Note_on_c, 0, 56, 0
4, 230880, Note_on_c, 0, 53, 0
4, 230880, Note_on_c, 0, 53, 75
4, 230880, Note_on_c, 0, 56, 75
4, 231040, Note_on_c, 0, 56, 0
4, 231040, Note_on_c, 0, 53, 0
4, 231040, Note_on_c, 0, 53, 75
4, 231040, Note_on_c, 0, 56, 75
4, 231200, Note_on_c, 0, 56, 0
4, 231200, Note_on_c, 0, 53, 0
4, 231200, Note_on_c, 0, 53, 74
4, 231200, Note_on_c, 0, 56, 74
4, 231360, Note_on_c, 0, 56, 0
4, 231360, Note_on_c, 0, 53, 0
4, 231360, Note_on_c, 0, 48, 74
4, 231360, Note_on_c, 0, 54, 74
4, 231520, Note_on_c, 0, 54, 0
4, 231520, Note_on_c, 0, 48, 0
4, 231520, Note_on_c, 0, 48, 73
4, 231520, Note_on_c, 0, 54, 73
4, 231680, Note_on_c, 0, 54, 0
4, 231680, Note_on_c, 0, 48, 0
4, 231680, Note_on_c, 0, 48, 73
4, 231680, Note_on_c, 0, 54, 73
4, 231840, Note_on_c, 0, 54, 0
4, 231840, Note_on_c, 0, 48, 0
4, 231840, Note_on_c, 0, 55, 73
4, 231840, Note_on_c, 0, 50, 73
4, 232000, Note_on_c, 0, 50, 0
4, 232000, Note_on_c, 0, 55, 0
4, 232000, Note_on_c, 0, 55, 72
4, 232000, Note_on_c, 0, 50, 72
4, 232160, Note_on_c, 0, 50, 0
4, 232160, Note_on_c, 0, 55, 0
4, 232160, Note_on_c, 0, 50, 72
4, 232160, Note_on_c, 0, 55, 72
4, 232320, Note_on_c, 0, 55, 0
4, 232320, Note_on_c, 0, 50, 0
4, 232320, Note_on_c, 0, 59, 74
4, 232320, Note_on_c, 0, 55, 74
4, 232320, Note_on_c, 0, 53, 74
4, 232480, Note_on_c, 0, 53, 0
4, 232480, Note_on_c, 0, 55, 0
4, 232480, Note_on_c, 0, 59, 0
4, 232480, Note_on_c, 0, 55, 71
4, 232480, Note_on_c, 0, 59, 71
4, 232480, Note_on_c, 0, 53, 71
4, 232640, Note_on_c, 0, 53, 0
4, 232640, Note_on_c, 0, 59, 0
4, 232640, Note_on_c, 0, 55, 0
4, 232640, Note_on_c, 0, 59, 68
4, 232640, Note_on_c, 0, 53, 68
4, 232640, Note_on_c, 0, 55, 68
4, 232800, Note_on_c, 0, 55, 0
4, 232800, Note_on_c, 0, 53, 0
4, 232800, Note_on_c, 0, 59, 0
4, 232800, Note_on_c, 0, 55, 66
4, 232800, Note_on_c, 0, 51, 66
4, 232992, Note_on_c, 0, 51, 0
4, 232992, Note_on_c, 0, 55, 0
4, 233440, Note_on_c, 0, 60, 56
4, 233440, Note_on_c, 0, 53, 56
4, 233600, Note_on_c, 0, 53, 0
4, 233600, Note_on_c, 0, 60, 0
4, 233600, Note_on_c, 0, 60, 57
4, 233600, Note_on_c, 0, 53, 57
4, 233760, Note_on_c, 0, 53, 0
4, 233760, Note_on_c, 0, 60, 0
4, 233760, Note_on_c, 0, 60, 59
4, 233760, Note_on_c, 0, 53, 59
4, 233920, Note_on_c, 0, 53, 0
4, 233920, Note_on_c, 0, 60, 0
4, 233920, Note_on_c, 0, 60, 60
4, 233920, Note_on_c, 0, 53, 60
4, 234080, Note_on_c, 0, 53, 0
4, 234080, Note_on_c, 0, 60, 0
4, 234080, Note_on_c, 0, 53, 61
4, 234080, Note_on_c, 0, 60, 61
4, 234240, Note_on_c, 0, 60, 0
4, 234240, Note_on_c, 0, 53, 0
4, 234240, Note_on_c, 0, 53, 62
4, 234240, Note_on_c, 0, 58, 62
4, 234400, Note_on_c, 0, 58, 0
4, 234400, Note_on_c, 0, 53, 0
4, 234400, Note_on_c, 0, 58, 63
4, 234400, Note_on_c, 0, 53, 63
4, 234560, Note_on_c, 0, 53, 0
4, 234560, Note_on_c, 0, 58, 0
4, 234560, Note_on_c, 0, 58, 64
4, 234560, Note_on_c, 0, 53, 64
4, 234720, Note_on_c, 0, 53, 0
4, 234720, Note_on_c, 0, 58, 0
4, 234720, Note_on_c, 0, 53, 65
4, 234720, Note_on_c, 0, 55, 65
4, 234880, Note_on_c, 0, 55, 0
4, 234880, Note_on_c, 0, 53, 0
4, 234880, Note_on_c, 0, 55, 66
4, 234880, Note_on_c, 0, 53, 66
4, 235040, Note_on_c, 0, 53, 0
4, 235040, Note_on_c, 0, 55, 0
4, 235040, Note_on_c, 0, 53, 67
4, 235040, Note_on_c, 0, 55, 67
4, 235200, Note_on_c, 0, 55, 0
4, 235200, Note_on_c, 0, 53, 0
4, 235200, Note_on_c, 0, 51, 69
4, 235200, Note_on_c, 0, 55, 69
4, 235360, Note_on_c, 0, 55, 0
4, 235360, Note_on_c, 0, 51, 0
4, 235360, Note_on_c, 0, 55, 70
4, 235360, Note_on_c, 0, 60, 70
4, 235520, Note_on_c, 0, 60, 0
4, 235520, Note_on_c, 0, 55, 0
4, 235520, Note_on_c, 0, 55, 71
4, 235520, Note_on_c, 0, 60, 71
4, 235680, Note_on_c, 0, 60, 0
4, 235680, Note_on_c, 0, 55, 0
4, 235680, Note_on_c, 0, 55, 72
4, 235680, Note_on_c, 0, 60, 72
4, 235840, Note_on_c, 0, 60, 0
4, 235840, Note_on_c, 0, 55, 0
4, 235840, Note_on_c, 0, 55, 73
4, 235840, Note_on_c, 0, 60, 73
4, 236000, Note_on_c, 0, 60, 0
4, 236000, Note_on_c, 0, 55, 0
4, 236000, Note_on_c, 0, 55, 74
4, 236000, Note_on_c, 0, 60, 74
4, 236160, Note_on_c, 0, 60, 0
4, 236160, Note_on_c, 0, 55, 0
4, 236160, Note_on_c, 0, 59, 84
4, 236320, Note_on_c, 0, 59, 0
4, 236320, Note_on_c, 0, 59, 72
4, 236320, Note_on_c, 0, 55, 72
4, 236480, Note_on_c, 0, 55, 0
4, 236480, Note_on_c, 0, 59, 0
4, 236480, Note_on_c, 0, 55, 63
4, 236480, Note_on_c, 0, 59, 63
4, 236640, Note_on_c, 0, 59, 0
4, 236640, Note_on_c, 0, 55, 0
4, 236640, Note_on_c, 0, 55, 57
4, 236640, Note_on_c, 0, 59, 57
4, 236800, Note_on_c, 0, 59, 0
4, 236800, Note_on_c, 0, 55, 0
4, 236800, Note_on_c, 0, 55, 52
4, 236800, Note_on_c, 0, 59, 52
4, 236960, Note_on_c, 0, 59, 0
4, 236960, Note_on_c, 0, 55, 0
4, 236960, Note_on_c, 0, 55, 48
4, 236960, Note_on_c, 0, 59, 48
4, 237120, Note_on_c, 0, 59, 0
4, 237120, Note_on_c, 0, 55, 0
4, 237120, Note_on_c, 0, 60, 45
4, 237120, Note_on_c, 0, 55, 45
4, 237280, Note_on_c, 0, 55, 0
4, 237280, Note_on_c, 0, 60, 0
4, 237280, Note_on_c, 0, 55, 46
4, 237280, Note_on_c, 0, 60, 46
4, 237440, Note_on_c, 0, 60, 0
4, 237440, Note_on_c, 0, 55, 0
4, 237440, Note_on_c, 0, 55, 46
4, 237440, Note_on_c, 0, 60, 46
4, 237600, Note_on_c, 0, 60, 0
4, 237600, Note_on_c, 0, 55, 0
4, 237600, Note_on_c, 0, 54, 47
4, 237600, Note_on_c, 0, 60, 47
4, 237760, Note_on_c, 0, 60, 0
4, 237760, Note_on_c, 0, 54, 0
4, 237760, Note_on_c, 0, 54, 47
4, 237760, Note_on_c, 0, 60, 47
4, 237920, Note_on_c, 0, 60, 0
4, 237920, Note_on_c, 0, 54, 0
4, 237920, Note_on_c, 0, 54, 48
4, 237920, Note_on_c, 0, 60, 48
4, 238080, Note_on_c, 0, 60, 0
4, 238080, Note_on_c, 0, 54, 0
4, 238080, Note_on_c, 0, 53, 49
4, 238080, Note_on_c, 0, 60, 49
4, 238240, Note_on_c, 0, 60, 0
4, 238240, Note_on_c, 0, 53, 0
4, 238240, Note_on_c, 0, 60, 49
4, 238240, Note_on_c, 0, 53, 49
4, 238400, Note_on_c, 0, 53, 0
4, 238400, Note_on_c, 0, 60, 0
4, 238400, Note_on_c, 0, 60, 50
4, 238400, Note_on_c, 0, 53, 50
4, 238560, Note_on_c, 0, 53, 0
4, 238560, Note_on_c, 0, 60, 0
4, 238560, Note_on_c, 0, 53, 50
4, 238560, Note_on_c, 0, 59, 50
4, 238720, Note_on_c, 0, 59, 0
4, 238720, Note_on_c, 0, 53, 0
4, 238720, Note_on_c, 0, 53, 51
4, 238720, Note_on_c, 0, 59, 51
4, 238880, Note_on_c, 0, 59, 0
4, 238880, Note_on_c, 0, 53, 0
4, 238880, Note_on_c, 0, 53, 52
4, 238880, Note_on_c, 0, 59, 52
4, 239040, Note_on_c, 0, 59, 0
4, 239040, Note_on_c, 0, 53, 0
4, 239040, Note_on_c, 0, 60, 52
4, 239040, Note_on_c, 0, 55, 52
4, 239200, Note_on_c, 0, 55, 0
4, 239200, Note_on_c, 0, 60, 0
4, 239200, Note_on_c, 0, 55, 53
4, 239200, Note_on_c, 0, 60, 53
4, 239360, Note_on_c, 0, 60, 0
4, 239360, Note_on_c, 0, 55, 0
4, 239360, Note_on_c, 0, 55, 54
4, 239360, Note_on_c, 0, 60, 54
4, 239520, Note_on_c, 0, 60, 0
4, 239520, Note_on_c, 0, 55, 0
4, 239520, Note_on_c, 0, 55, 54
4, 239520, Note_on_c, 0, 60, 54
4, 239680, Note_on_c, 0, 60, 0
4, 239680, Note_on_c, 0, 55, 0
4, 239680, Note_on_c, 0, 55, 55
4, 239680, Note_on_c, 0, 60, 55
4, 239840, Note_on_c, 0, 60, 0
4, 239840, Note_on_c, 0, 55, 0
4, 239840, Note_on_c, 0, 60, 55
4, 239840, Note_on_c, 0, 55, 55
4, 240000, Note_on_c, 0, 55, 0
4, 240000, Note_on_c, 0, 60, 0
4, 240000, Note_on_c, 0, 57, 68
4, 240000, Note_on_c, 0, 60, 68
4, 240160, Note_on_c, 0, 60, 0
4, 240160, Note_on_c, 0, 57, 0
4, 240160, Note_on_c, 0, 57, 60
4, 240160, Note_on_c, 0, 60, 60
4, 240320, Note_on_c, 0, 60, 0
4, 240320, Note_on_c, 0, 57, 0
4, 240320, Note_on_c, 0, 57, 54
4, 240320, Note_on_c, 0, 60, 54
4, 240480, Note_on_c, 0, 60, 0
4, 240480, Note_on_c, 0, 57, 0
4, 240480, Note_on_c, 0, 57, 52
4, 240480, Note_on_c, 0, 60, 52
4, 240640, Note_on_c, 0, 60, 0
4, 240640, Note_on_c, 0, 57, 0
4, 240640, Note_on_c, 0, 57, 50
4, 240640, Note_on_c, 0, 60, 50
4, 240800, Note_on_c, 0, 60, 0
4, 240800, Note_on_c, 0, 57, 0
4, 240800, Note_on_c, 0, 57, 48
4, 240800, Note_on_c, 0, 60, 48
4, 240960, Note_on_c, 0, 60, 0
4, 240960, Note_on_c, 0, 57, 0
4, 240960, Note_on_c, 0, 60, 65
4, 240960, Note_on_c, 0, 55, 65
4, 241120, Note_on_c, 0, 55, 0
4, 241120, Note_on_c, 0, 60, 0
4, 241120, Note_on_c, 0, 55, 66
4, 241120, Note_on_c, 0, 60, 66
4, 241280, Note_on_c, 0, 60, 0
4, 241280, Note_on_c, 0, 55, 0
4, 241280, Note_on_c, 0, 55, 66
4, 241280, Note_on_c, 0, 60, 66
4, 241440, Note_on_c, 0, 60, 0
4, 241440, Note_on_c, 0, 55, 0
4, 241440, Note_on_c, 0, 56, 67
4, 241440, Note_on_c, 0, 60, 67
4, 241600, Note_on_c, 0, 60, 0
4, 241600, Note_on_c, 0, 56, 0
4, 241600, Note_on_c, 0, 56, 68
4, 241600, Note_on_c, 0, 60, 68
4, 241760, Note_on_c, 0, 60, 0
4, 241760, Note_on_c, 0, 56, 0
4, 241760, Note_on_c, 0, 56, 68
4, 241760, Note_on_c, 0, 60, 68
4, 241920, Note_on_c, 0, 60, 0
4, 241920, Note_on_c, 0, 56, 0
4, 241920, Note_on_c, 0, 56, 69
4, 241920, Note_on_c, 0, 60, 69
4, 242080, Note_on_c, 0, 60, 0
4, 242080, Note_on_c, 0, 56, 0
4, 242080, Note_on_c, 0, 56, 70
4, 242080, Note_on_c, 0, 60, 70
4, 242240, Note_on_c, 0, 60, 0
4, 242240, Note_on_c, 0, 56, 0
4, 242240, Note_on_c, 0, 56, 71
4, 242240, Note_on_c, 0, 60, 71
4, 242400, Note_on_c, 0, 60, 0
4, 242400, Note_on_c, 0, 56, 0
4, 242400, Note_on_c, 0, 59, 71
4, 242400, Note_on_c, 0, 55, 71
4, 242560, Note_on_c, 0, 55, 0
4, 242560, Note_on_c, 0, 59, 0
4, 242560, Note_on_c, 0, 55, 72
4, 242560, Note_on_c, 0, 59, 72
4, 242720, Note_on_c, 0, 59, 0
4, 242720, Note_on_c, 0, 55, 0
4, 242720, Note_on_c, 0, 55, 73
4, 242720, Note_on_c, 0, 59, 73
4, 242880, Note_on_c, 0, 59, 0
4, 242880, Note_on_c, 0, 55, 0
4, 242880, Note_on_c, 0, 60, 73
4, 242880, Note_on_c, 0, 55, 73
4, 243040, Note_on_c, 0, 55, 0
4, 243040, Note_on_c, 0, 60, 0
4, 243040, Note_on_c, 0, 55, 74
4, 243040, Note_on_c, 0, 60, 74
4, 243200, Note_on_c, 0, 60, 0
4, 243200, Note_on_c, 0, 55, 0
4, 243200, Note_on_c, 0, 60, 75
4, 243200, Note_on_c, 0, 55, 75
4, 243360, Note_on_c, 0, 55, 0
4, 243360, Note_on_c, 0, 60, 0
4, 243360, Note_on_c, 0, 55, 76
4, 243360, Note_on_c, 0, 60, 76
4, 243520, Note_on_c, 0, 60, 0
4, 243520, Note_on_c, 0, 55, 0
4, 243520, Note_on_c, 0, 55, 76
4, 243520, Note_on_c, 0, 60, 76
4, 243680, Note_on_c, 0, 60, 0
4, 243680, Note_on_c, 0, 55, 0
4, 243680, Note_on_c, 0, 55, 77
4, 243680, Note_on_c, 0, 60, 77
4, 243840, Note_on_c, 0, 60, 0
4, 243840, Note_on_c, 0, 55, 0
4, 243840, Note_on_c, 0, 59, 90
4, 244000, Note_on_c, 0, 59, 0
4, 244000, Note_on_c, 0, 55, 80
4, 244000, Note_on_c, 0, 59, 80
4, 244160, Note_on_c, 0, 59, 0
4, 244160, Note_on_c, 0, 55, 0
4, 244160, Note_on_c, 0, 55, 79
4, 244160, Note_on_c, 0, 59, 79
4, 244320, Note_on_c, 0, 59, 0
4, 244320, Note_on_c, 0, 55, 0
4, 244320, Note_on_c, 0, 55, 78
4, 244320, Note_on_c, 0, 59, 78
4, 244480, Note_on_c, 0, 59, 0
4, 244480, Note_on_c, 0, 55, 0
4, 244480, Note_on_c, 0, 55, 77
4, 244480, Note_on_c, 0, 59, 77
4, 244640, Note_on_c, 0, 59, 0
4, 244640, Note_on_c, 0, 55, 0
4, 244640, Note_on_c, 0, 55, 76
4, 244640, Note_on_c, 0, 59, 76
4, 244800, Note_on_c, 0, 59, 0
4, 244800, Note_on_c, 0, 55, 0
4, 244800, Note_on_c, 0, 53, 87
4, 244800, Note_on_c, 0, 59, 87
4, 244960, Note_on_c, 0, 59, 0
4, 244960, Note_on_c, 0, 53, 0
4, 244960, Note_on_c, 0, 53, 85
4, 244960, Note_on_c, 0, 59, 85
4, 245120, Note_on_c, 0, 59, 0
4, 245120, Note_on_c, 0, 53, 0
4, 245120, Note_on_c, 0, 53, 87
4, 245120, Note_on_c, 0, 59, 87
4, 245280, Note_on_c, 0, 59, 0
4, 245280, Note_on_c, 0, 53, 0
4, 245280, Note_on_c, 0, 60, 95
4, 245280, Note_on_c, 0, 55, 95
4, 245440, Note_on_c, 0, 55, 0
4, 245440, Note_on_c, 0, 60, 0
4, 245440, Note_on_c, 0, 60, 92
4, 245440, Note_on_c, 0, 55, 92
4, 245600, Note_on_c, 0, 55, 0
4, 245600, Note_on_c, 0, 60, 0
4, 245600, Note_on_c, 0, 60, 95
4, 245600, Note_on_c, 0, 55, 95
4, 245760, Note_on_c, 0, 55, 0
4, 245760, Note_on_c, 0, 60, 0
4, 245760, Note_on_c, 0, 56, 103
4, 245920, Note_on_c, 0, 56, 0
4, 245920, Note_on_c, 0, 56, 89
4, 245920, Note_on_c, 0, 53, 89
4, 246080, Note_on_c, 0, 53, 0
4, 246080, Note_on_c, 0, 56, 0
4, 246080, Note_on_c, 0, 56, 82
4, 246080, Note_on_c, 0, 53, 82
4, 246240, Note_on_c, 0, 53, 0
4, 246240, Note_on_c, 0, 56, 0
4, 246240, Note_on_c, 0, 56, 76
4, 246240, Note_on_c, 0, 53, 76
4, 246400, Note_on_c, 0, 53, 0
4, 246400, Note_on_c, 0, 56, 0
4, 246400, Note_on_c, 0, 53, 69
4, 246400, Note_on_c, 0, 56, 69
4, 246560, Note_on_c, 0, 56, 0
4, 246560, Note_on_c, 0, 53, 0
4, 246560, Note_on_c, 0, 53, 63
4, 246560, Note_on_c, 0, 56, 63
4, 246720, Note_on_c, 0, 56, 0
4, 246720, Note_on_c, 0, 53, 0
4, 246720, Note_on_c, 0, 48, 61
4, 246720, Note_on_c, 0, 54, 61
4, 246880, Note_on_c, 0, 54, 0
4, 246880, Note_on_c, 0, 48, 0
4, 246880, Note_on_c, 0, 48, 59
4, 246880, Note_on_c, 0, 54, 59
4, 247040, Note_on_c, 0, 54, 0
4, 247040, Note_on_c, 0, 48, 0
4, 247040, Note_on_c, 0, 48, 56
4, 247040, Note_on_c, 0, 54, 56
4, 247200, Note_on_c, 0, 54, 0
4, 247200, Note_on_c, 0, 48, 0
4, 247200, Note_on_c, 0, 50, 54
4, 247200, Note_on_c, 0, 55, 54
4, 247360, Note_on_c, 0, 55, 0
4, 247360, Note_on_c, 0, 50, 0
4, 247360, Note_on_c, 0, 50, 52
4, 247360, Note_on_c, 0, 55, 52
4, 247520, Note_on_c, 0, 55, 0
4, 247520, Note_on_c, 0, 50, 0
4, 247520, Note_on_c, 0, 50, 49
4, 247520, Note_on_c, 0, 55, 49
4, 247680, Note_on_c, 0, 55, 0
4, 247680, Note_on_c, 0, 50, 0
4, 247680, Note_on_c, 0, 53, 47
4, 247680, Note_on_c, 0, 55, 47
4, 248160, Note_on_c, 0, 55, 0
4, 248160, Note_on_c, 0, 53, 0
4, 248160, Note_on_c, 0, 51, 40
4, 248160, Note_on_c, 0, 55, 40
4, 248400, Note_on_c, 0, 55, 0
4, 248400, Note_on_c, 0, 51, 0
4, 249760, Note_on_c, 0, 56, 64
4, 249920, Note_on_c, 0, 56, 0
4, 249920, Note_on_c, 0, 44, 65
4, 250080, Note_on_c, 0, 44, 0
4, 250240, Note_on_c, 0, 56, 68
4, 250400, Note_on_c, 0, 56, 0
4, 250400, Note_on_c, 0, 44, 69
4, 250560, Note_on_c, 0, 44, 0
4, 250720, Note_on_c, 0, 56, 69
4, 250880, Note_on_c, 0, 56, 0
4, 250880, Note_on_c, 0, 44, 68
4, 251040, Note_on_c, 0, 44, 0
4, 251200, Note_on_c, 0, 56, 66
4, 251360, Note_on_c, 0, 56, 0
4, 251360, Note_on_c, 0, 44, 65
4, 251520, Note_on_c, 0, 44, 0
4, 251680, Note_on_c, 0, 56, 64
4, 251840, Note_on_c, 0, 56, 0
4, 251840, Note_on_c, 0, 44, 65
4, 252000, Note_on_c, 0, 44, 0
4, 252160, Note_on_c, 0, 56, 67
4, 252320, Note_on_c, 0, 56, 0
4, 252320, Note_on_c, 0, 44, 68
4, 252480, Note_on_c, 0, 44, 0
4, 252640, Note_on_c, 0, 56, 70
4, 252800, Note_on_c, 0, 56, 0
4, 252800, Note_on_c, 0, 44, 70
4, 252960, Note_on_c, 0, 44, 0
4, 253120, Note_on_c, 0, 56, 68
4, 253280, Note_on_c, 0, 56, 0
4, 253280, Note_on_c, 0, 44, 67
4, 253440, Note_on_c, 0, 44, 0
4, 253600, Note_on_c, 0, 56, 65
4, 253760, Note_on_c, 0, 56, 0
4, 253760, Note_on_c, 0, 44, 66
4, 253920, Note_on_c, 0, 44, 0
4, 254080, Note_on_c, 0, 56, 67
4, 254240, Note_on_c, 0, 56, 0
4, 254240, Note_on_c, 0, 44, 68
4, 254400, Note_on_c, 0, 44, 0
4, 254560, Note_on_c, 0, 49, 69
4, 254720, Note_on_c, 0, 49, 0
4, 254720, Note_on_c, 0, 55, 69
4, 254880, Note_on_c, 0, 55, 0
4, 255040, Note_on_c, 0, 49, 71
4, 255200, Note_on_c, 0, 49, 0
4, 255200, Note_on_c, 0, 55, 71
4, 255360, Note_on_c, 0, 55, 0
4, 255520, Note_on_c, 0, 51, 72
4, 255680, Note_on_c, 0, 51, 0
4, 255680, Note_on_c, 0, 55, 71
4, 255840, Note_on_c, 0, 55, 0
4, 256000, Note_on_c, 0, 51, 68
4, 256160, Note_on_c, 0, 51, 0
4, 256160, Note_on_c, 0, 55, 67
4, 256320, Note_on_c, 0, 55, 0
4, 256320, Note_on_c, 0, 56, 66
4, 256800, Note_on_c, 0, 56, 0
4, 257280, Note_on_c, 0, 56, 61
4, 257640, Note_on_c, 0, 56, 0
4, 257760, Note_on_c, 0, 56, 64
4, 258240, Note_on_c, 0, 56, 0
4, 258240, Note_on_c, 0, 55, 66
4, 258600, Note_on_c, 0, 55, 0
4, 258720, Note_on_c, 0, 55, 64
4, 259200, Note_on_c, 0, 55, 0
4, 259200, Note_on_c, 0, 56, 61
4, 259560, Note_on_c, 0, 56, 0
4, 259680, Note_on_c, 0, 56, 65
4, 260040, Note_on_c, 0, 56, 0
4, 260160, Note_on_c, 0, 55, 68
4, 261120, Note_on_c, 0, 55, 0
4, 261120, Note_on_c, 0, 56, 62
4, 261600, Note_on_c, 0, 56, 0
4, 262560, Note_on_c, 0, 50, 64
4, 262560, Note_on_c, 0, 53, 64
4, 263040, Note_on_c, 0, 53, 0
4, 263040, Note_on_c, 0, 50, 0
4, 263040, Note_on_c, 0, 48, 68
4, 263040, Note_on_c, 0, 53, 68
4, 263520, Note_on_c, 0, 53, 0
4, 263520, Note_on_c, 0, 48, 0
4, 263520, Note_on_c, 0, 48, 71
4, 263520, Note_on_c, 0, 54, 71
4, 264960, Note_on_c, 0, 54, 0
4, 264960, Note_on_c, 0, 48, 0
4, 267840, Control_c, 0, 64, 0
4, 267840, Note_on_c, 0, 47, 62
4, 267840, Note_on_c, 0, 55, 62
4, 267840, Note_on_c, 0, 50, 62
4, 267900, Control_c, 0, 64, 127
4, 269280, Note_on_c, 0, 50, 0
4, 269280, Note_on_c, 0, 55, 0
4, 269280, Note_on_c, 0, 47, 0
4, 277200, Control_c, 0, 64, 0
4, 277200, Note_on_c, 0, 60, 59
4, 277560, Note_on_c, 0, 60, 0
4, 277680, Note_on_c, 0, 60, 63
4, 277836, Note_on_c, 0, 60, 0
4, 277920, Note_on_c, 0, 59, 65
4, 278280, Note_on_c, 0, 59, 0
4, 278400, Note_on_c, 0, 59, 62
4, 278640, Note_on_c, 0, 59, 0
4, 278640, Note_on_c, 0, 60, 61
4, 278796, Note_on_c, 0, 60, 0
4, 278880, Note_on_c, 0, 62, 63
4, 279036, Note_on_c, 0, 62, 0
4, 279120, Note_on_c, 0, 64, 64
4, 279276, Note_on_c, 0, 64, 0
4, 279360, Note_on_c, 0, 59, 65
4, 279720, Note_on_c, 0, 59, 0
4, 280080, Note_on_c, 0, 60, 64
4, 280314, Note_on_c, 0, 60, 0
4, 280560, Note_on_c, 0, 61, 66
4, 280716, Note_on_c, 0, 61, 0
4, 280800, Note_on_c, 0, 64, 70
4, 281280, Note_on_c, 0, 64, 0
4, 281280, Note_on_c, 0, 62, 67
4, 281436, Note_on_c, 0, 62, 0
4, 281460, Note_on_c, 0, 60, 66
4, 281520, Note_on_c, 0, 60, 0
4, 281520, Note_on_c, 0, 59, 65
4, 281676, Note_on_c, 0, 59, 0
4, 282000, Note_on_c, 0, 59, 72
4, 282156, Note_on_c, 0, 59, 0
4, 282240, Note_on_c, 0, 62, 75
4, 282720, Note_on_c, 0, 62, 0
4, 282720, Note_on_c, 0, 60, 73
4, 282876, Note_on_c, 0, 60, 0
4, 282960, Note_on_c, 0, 60, 82
4, 283440, Note_on_c, 0, 60, 0
4, 283440, Note_on_c, 0, 61, 78
4, 283596, Note_on_c, 0, 61, 0
4, 283680, Note_on_c, 0, 62, 77
4, 283920, Note_on_c, 0, 62, 0
4, 284160, Note_on_c, 0, 57, 73
4, 284316, Note_on_c, 0, 57, 0
4, 284400, Note_on_c, 0, 52, 72
4, 284640, Note_on_c, 0, 52, 0
4, 284640, Note_on_c, 0, 55, 70
4, 284796, Note_on_c, 0, 55, 0
4, 284880, Note_on_c, 0, 50, 68
4, 285036, Note_on_c, 0, 50, 0
4, 285120, Note_on_c, 0, 59, 72
4, 285360, Note_on_c, 0, 59, 0
4, 285360, Note_on_c, 0, 60, 66
4, 285516, Note_on_c, 0, 60, 0
4, 286320, Note_on_c, 0, 60, 65
4, 286320, Note_on_c, 0, 63, 65
4, 286560, Note_on_c, 0, 63, 0
4, 286560, Note_on_c, 0, 60, 0
4, 286560, Note_on_c, 0, 62, 67
4, 286920, Note_on_c, 0, 62, 0
4, 287040, Note_on_c, 0, 62, 62
4, 287280, Note_on_c, 0, 62, 0
4, 287280, Note_on_c, 0, 63, 59
4, 287280, Note_on_c, 0, 60, 59
4, 287640, Note_on_c, 0, 60, 0
4, 287640, Note_on_c, 0, 63, 0
4, 287760, Note_on_c, 0, 63, 61
4, 287760, Note_on_c, 0, 60, 61
4, 288000, Note_on_c, 0, 60, 0
4, 288000, Note_on_c, 0, 63, 0
4, 288000, Note_on_c, 0, 62, 62
4, 288360, Note_on_c, 0, 62, 0
4, 288720, Note_on_c, 0, 60, 92
4, 288840, Note_on_c, 0, 60, 0
4, 288840, Note_on_c, 0, 55, 93
4, 288960, Note_on_c, 0, 55, 0
4, 288960, Note_on_c, 0, 54, 94
4, 289080, Note_on_c, 0, 54, 0
4, 289080, Note_on_c, 0, 55, 96
4, 289200, Note_on_c, 0, 55, 0
4, 289200, Note_on_c, 0, 60, 97
4, 289320, Note_on_c, 0, 60, 0
4, 289320, Note_on_c, 0, 55, 98
4, 289440, Note_on_c, 0, 55, 0
4, 289440, Note_on_c, 0, 59, 100
4, 289560, Note_on_c, 0, 59, 0
4, 289560, Note_on_c, 0, 55, 97
4, 289680, Note_on_c, 0, 55, 0
4, 289680, Note_on_c, 0, 54, 96
4, 289800, Note_on_c, 0, 54, 0
4, 289800, Note_on_c, 0, 55, 94
4, 289920, Note_on_c, 0, 55, 0
4, 289920, Note_on_c, 0, 59, 92
4, 290040, Note_on_c, 0, 59, 0
4, 290040, Note_on_c, 0, 55, 90
4, 290160, Note_on_c, 0, 55, 0
4, 290160, Note_on_c, 0, 60, 87
4, 290280, Note_on_c, 0, 60, 0
4, 290280, Note_on_c, 0, 55, 88
4, 290400, Note_on_c, 0, 55, 0
4, 290400, Note_on_c, 0, 54, 89
4, 290520, Note_on_c, 0, 54, 0
4, 290520, Note_on_c, 0, 55, 90
4, 290640, Note_on_c, 0, 55, 0
4, 290640, Note_on_c, 0, 60, 92
4, 290760, Note_on_c, 0, 60, 0
4, 290760, Note_on_c, 0, 55, 93
4, 290880, Note_on_c, 0, 55, 0
4, 290880, Note_on_c, 0, 59, 94
4, 291000, Note_on_c, 0, 59, 0
4, 291000, Note_on_c, 0, 55, 93
4, 291120, Note_on_c, 0, 55, 0
4, 291120, Note_on_c, 0, 54, 91
4, 291240, Note_on_c, 0, 54, 0
4, 291240, Note_on_c, 0, 55, 90
4, 291360, Note_on_c, 0, 55, 0
4, 291360, Note_on_c, 0, 53, 89
4, 291480, Note_on_c, 0, 53, 0
4, 291480, Note_on_c, 0, 55, 87
4, 291600, Note_on_c, 0, 55, 0
4, 291600, Note_on_c, 0, 72, 99
4, 291600, Note_on_c, 0, 48, 99
4, 291600, Note_on_c, 0, 52, 99
4, 291720, Note_on_c, 0, 52, 0
4, 291720, Note_on_c, 0, 72, 0
4, 291720, Note_on_c, 0, 67, 100
4, 291720, Note_on_c, 0, 55, 100
4, 291840, Note_on_c, 0, 55, 0
4, 291840, Note_on_c, 0, 67, 0
4, 291840, Note_on_c, 0, 72, 101
4, 291840, Note_on_c, 0, 60, 101
4, 291960, Note_on_c, 0, 60, 0
4, 291960, Note_on_c, 0, 72, 0
4, 291960, Note_on_c, 0, 48, 0
4, 291960, Note_on_c, 0, 67, 102
4, 291960, Note_on_c, 0, 55, 102
4, 292080, Note_on_c, 0, 55, 0
4, 292080, Note_on_c, 0, 67, 0
4, 292080, Note_on_c, 0, 72, 103
4, 292080, Note_on_c, 0, 48, 103
4, 292080, Note_on_c, 0, 60, 103
4, 292200, Note_on_c, 0, 60, 0
4, 292200, Note_on_c, 0, 72, 0
4, 292200, Note_on_c, 0, 67, 104
4, 292200, Note_on_c, 0, 55, 104
4, 292320, Note_on_c, 0, 55, 0
4, 292320, Note_on_c, 0, 67, 0
4, 292320, Note_on_c, 0, 48, 0
4, 292320, Note_on_c, 0, 71, 106
4, 292320, Note_on_c, 0, 53, 106
4, 292320, Note_on_c, 0, 59, 106
4, 292440, Note_on_c, 0, 59, 0
4, 292440, Note_on_c, 0, 71, 0
4, 292440, Note_on_c, 0, 67, 105
4, 292440, Note_on_c, 0, 55, 105
4, 292560, Note_on_c, 0, 55, 0
4, 292560, Note_on_c, 0, 67, 0
4, 292560, Note_on_c, 0, 71, 104
4, 292560, Note_on_c, 0, 59, 104
4, 292680, Note_on_c, 0, 59, 0
4, 292680, Note_on_c, 0, 71, 0
4, 292680, Note_on_c, 0, 53, 0
4, 292680, Note_on_c, 0, 67, 102
4, 292680, Note_on_c, 0, 55, 102
4, 292800, Note_on_c, 0, 55, 0
4, 292800, Note_on_c, 0, 67, 0
4, 292800, Note_on_c, 0, 71, 101
4, 292800, Note_on_c, 0, 53, 101
4, 292800, Note_on_c, 0, 59, 101
4, 292920, Note_on_c, 0, 59, 0
4, 292920, Note_on_c, 0, 71, 0
4, 292920, Note_on_c, 0, 67, 100
4, 292920, Note_on_c, 0, 55, 100
4, 293040, Note_on_c, 0, 55, 0
4, 293040, Note_on_c, 0, 67, 0
4, 293040, Note_on_c, 0, 53, 0
4, 293040, Note_on_c, 0, 72, 98
4, 293040, Note_on_c, 0, 52, 98
4, 293040, Note_on_c, 0, 60, 98
4, 293160, Note_on_c, 0, 60, 0
4, 293160, Note_on_c, 0, 72, 0
4, 293160, Note_on_c, 0, 67, 99
4, 293160, Note_on_c, 0, 55, 99
4, 293196, Note_on_c, 0, 52, 0
4, 293280, Note_on_c, 0, 55, 0
4, 293280, Note_on_c, 0, 67, 0
4, 293280, Note_on_c, 0, 74, 100
4, 293280, Note_on_c, 0, 50, 100
4, 293280, Note_on_c, 0, 62, 100
4, 293400, Note_on_c, 0, 62, 0
4, 293400, Note_on_c, 0, 74, 0
4, 293400, Note_on_c, 0, 67, 101
4, 293400, Note_on_c, 0, 55, 101
4, 293436, Note_on_c, 0, 50, 0
4, 293520, Note_on_c, 0, 55, 0
4, 293520, Note_on_c, 0, 67, 0
4, 293520, Note_on_c, 0, 76, 102
4, 293520, Note_on_c, 0, 48, 102
4, 293520, Note_on_c, 0, 64, 102
4, 293640, Note_on_c, 0, 64, 0
4, 293640, Note_on_c, 0, 76, 0
4, 293640, Note_on_c, 0, 67, 103
4, 293640, Note_on_c, 0, 55, 103
4, 293676, Note_on_c, 0, 48, 0
4, 293760, Note_on_c, 0, 55, 0
4, 293760, Note_on_c, 0, 67, 0
4, 293760, Note_on_c, 0, 71, 104
4, 293760, Note_on_c, 0, 59, 104
4, 293880, Note_on_c, 0, 59, 0
4, 293880, Note_on_c, 0, 71, 0
4, 293880, Note_on_c, 0, 67, 104
4, 293880, Note_on_c, 0, 55, 104
4, 294000, Note_on_c, 0, 55, 0
4, 294000, Note_on_c, 0, 67, 0
4, 294000, Note_on_c, 0, 66, 103
4, 294000, Note_on_c, 0, 54, 103
4, 294120, Note_on_c, 0, 54, 0
4, 294120, Note_on_c, 0, 66, 0
4, 294120, Note_on_c, 0, 67, 102
4, 294120, Note_on_c, 0, 55, 102
4, 294240, Note_on_c, 0, 55, 0
4, 294240, Note_on_c, 0, 67, 0
4, 294240, Note_on_c, 0, 69, 101
4, 294240, Note_on_c, 0, 57, 101
4, 294360, Note_on_c, 0, 57, 0
4, 294360, Note_on_c, 0, 69, 0
4, 294360, Note_on_c, 0, 67, 100
4, 294360, Note_on_c, 0, 55, 100
4, 294480, Note_on_c, 0, 55, 0
4, 294480, Note_on_c, 0, 67, 0
4, 294480, Note_on_c, 0, 67, 99
4, 294480, Note_on_c, 0, 60, 99
4, 294600, Note_on_c, 0, 60, 0
4, 294600, Note_on_c, 0, 67, 0
4, 294600, Note_on_c, 0, 72, 97
4, 294600, Note_on_c, 0, 52, 97
4, 294600, Note_on_c, 0, 55, 97
4, 294720, Note_on_c, 0, 55, 0
4, 294720, Note_on_c, 0, 52, 0
4, 294720, Note_on_c, 0, 72, 0
4, 294720, Note_on_c, 0, 67, 99
4, 294720, Note_on_c, 0, 60, 99
4, 294840, Note_on_c, 0, 60, 0
4, 294840, Note_on_c, 0, 67, 0
4, 294840, Note_on_c, 0, 72, 101
4, 294840, Note_on_c, 0, 52, 101
4, 294840, Note_on_c, 0, 55, 101
4, 294960, Note_on_c, 0, 55, 0
4, 294960, Note_on_c, 0, 52, 0
4, 294960, Note_on_c, 0, 72, 0
4, 294960, Note_on_c, 0, 67, 102
4, 294960, Note_on_c, 0, 61, 102
4, 295080, Note_on_c, 0, 61, 0
4, 295080, Note_on_c, 0, 67, 0
4, 295080, Note_on_c, 0, 73, 104
4, 295080, Note_on_c, 0, 52, 104
4, 295080, Note_on_c, 0, 55, 104
4, 295200, Note_on_c, 0, 55, 0
4, 295200, Note_on_c, 0, 52, 0
4, 295200, Note_on_c, 0, 73, 0
4, 295200, Note_on_c, 0, 65, 104
4, 295200, Note_on_c, 0, 57, 104
4, 295320, Note_on_c, 0, 57, 0
4, 295320, Note_on_c, 0, 65, 0
4, 295320, Note_on_c, 0, 69, 104
4, 295320, Note_on_c, 0, 62, 104
4, 295440, Note_on_c, 0, 62, 0
4, 295440, Note_on_c, 0, 69, 0
4, 295440, Note_on_c, 0, 65, 103
4, 295440, Note_on_c, 0, 57, 103
4, 295560, Note_on_c, 0, 57, 0
4, 295560, Note_on_c, 0, 65, 0
4, 295560, Note_on_c, 0, 69, 103
4, 295560, Note_on_c, 0, 53, 103
4, 295680, Note_on_c, 0, 53, 0
4, 295680, Note_on_c, 0, 69, 0
4, 295680, Note_on_c, 0, 65, 102
4, 295680, Note_on_c, 0, 50, 102
4, 295800, Note_on_c, 0, 50, 0
4, 295800, Note_on_c, 0, 65, 0
4, 295800, Note_on_c, 0, 69, 102
4, 295800, Note_on_c, 0, 53, 102
4, 295920, Note_on_c, 0, 53, 0
4, 295920, Note_on_c, 0, 69, 0
4, 295920, Note_on_c, 0, 64, 102
4, 295920, Note_on_c, 0, 55, 102
4, 296040, Note_on_c, 0, 55, 0
4, 296040, Note_on_c, 0, 64, 0
4, 296040, Note_on_c, 0, 67, 101
4, 296040, Note_on_c, 0, 52, 101
4, 296160, Note_on_c, 0, 52, 0
4, 296160, Note_on_c, 0, 67, 0
4, 296160, Note_on_c, 0, 64, 101
4, 296160, Note_on_c, 0, 55, 101
4, 296280, Note_on_c, 0, 55, 0
4, 296280, Note_on_c, 0, 64, 0
4, 296280, Note_on_c, 0, 67, 100
4, 296280, Note_on_c, 0, 52, 100
4, 296400, Note_on_c, 0, 52, 0
4, 296400, Note_on_c, 0, 67, 0
4, 296400, Note_on_c, 0, 62, 100
4, 296400, Note_on_c, 0, 53, 100
4, 296520, Note_on_c, 0, 53, 0
4, 296520, Note_on_c, 0, 62, 0
4, 296520, Note_on_c, 0, 67, 99
4, 296520, Note_on_c, 0, 55, 99
4, 296640, Note_on_c, 0, 55, 0
4, 296640, Note_on_c, 0, 67, 0
4, 296640, Note_on_c, 0, 65, 99
4, 296640, Note_on_c, 0, 48, 99
4, 296640, Note_on_c, 0, 59, 99
4, 296760, Note_on_c, 0, 59, 0
4, 296760, Note_on_c, 0, 65, 0
4, 296760, Note_on_c, 0, 67, 99
4, 296760, Note_on_c, 0, 55, 99
4, 296796, Note_on_c, 0, 48, 0
4, 296880, Note_on_c, 0, 55, 0
4, 296880, Note_on_c, 0, 67, 0
4, 296880, Note_on_c, 0, 65, 100
4, 296880, Note_on_c, 0, 59, 100
4, 297000, Note_on_c, 0, 59, 0
4, 297000, Note_on_c, 0, 65, 0
4, 297000, Note_on_c, 0, 67, 101
4, 297000, Note_on_c, 0, 55, 101
4, 297120, Note_on_c, 0, 55, 0
4, 297120, Note_on_c, 0, 67, 0
4, 297120, Note_on_c, 0, 64, 102
4, 297120, Note_on_c, 0, 60, 102
4, 297240, Note_on_c, 0, 60, 0
4, 297240, Note_on_c, 0, 64, 0
4, 297240, Note_on_c, 0, 67, 103
4, 297240, Note_on_c, 0, 55, 103
4, 297360, Note_on_c, 0, 55, 0
4, 297360, Note_on_c, 0, 67, 0
4, 297360, Note_on_c, 0, 67, 104
4, 297360, Note_on_c, 0, 60, 104
4, 297480, Note_on_c, 0, 60, 0
4, 297480, Note_on_c, 0, 67, 0
4, 297480, Note_on_c, 0, 72, 105
4, 297480, Note_on_c, 0, 52, 105
4, 297480, Note_on_c, 0, 55, 105
4, 297600, Note_on_c, 0, 55, 0
4, 297600, Note_on_c, 0, 52, 0
4, 297600, Note_on_c, 0, 72, 0
4, 297600, Note_on_c, 0, 67, 106
4, 297600, Note_on_c, 0, 60, 106
4, 297720, Note_on_c, 0, 60, 0
4, 297720, Note_on_c, 0, 67, 0
4, 297720, Note_on_c, 0, 72, 107
4, 297720, Note_on_c, 0, 52, 107
4, 297720, Note_on_c, 0, 55, 107
4, 297840, Note_on_c, 0, 55, 0
4, 297840, Note_on_c, 0, 52, 0
4, 297840, Note_on_c, 0, 72, 0
4, 297840, Note_on_c, 0, 67, 108
4, 297840, Note_on_c, 0, 61, 108
4, 297960, Note_on_c, 0, 61, 0
4, 297960, Note_on_c, 0, 67, 0
4, 297960, Note_on_c, 0, 73, 108
4, 297960, Note_on_c, 0, 52, 108
4, 297960, Note_on_c, 0, 55, 108
4, 298080, Note_on_c, 0, 55, 0
4, 298080, Note_on_c, 0, 52, 0
4, 298080, Note_on_c, 0, 73, 0
4, 298080, Note_on_c, 0, 65, 107
4, 298080, Note_on_c, 0, 57, 107
4, 298200, Note_on_c, 0, 57, 0
4, 298200, Note_on_c, 0, 65, 0
4, 298200, Note_on_c, 0, 69, 107
4, 298200, Note_on_c, 0, 62, 107
4, 298320, Note_on_c, 0, 62, 0
4, 298320, Note_on_c, 0, 69, 0
4, 298320, Note_on_c, 0, 65, 106
4, 298320, Note_on_c, 0, 57, 106
4, 298440, Note_on_c, 0, 57, 0
4, 298440, Note_on_c, 0, 65, 0
4, 298440, Note_on_c, 0, 69, 105
4, 298440, Note_on_c, 0, 53, 105
4, 298560, Note_on_c, 0, 53, 0
4, 298560, Note_on_c, 0, 69, 0
4, 298560, Note_on_c, 0, 65, 104
4, 298560, Note_on_c, 0, 50, 104
4, 298680, Note_on_c, 0, 50, 0
4, 298680, Note_on_c, 0, 65, 0
4, 298680, Note_on_c, 0, 69, 103
4, 298680, Note_on_c, 0, 53, 103
4, 298800, Note_on_c, 0, 53, 0
4, 298800, Note_on_c, 0, 69, 0
4, 298800, Note_on_c, 0, 64, 102
4, 298800, Note_on_c, 0, 55, 102
4, 298920, Note_on_c, 0, 55, 0
4, 298920, Note_on_c, 0, 64, 0
4, 298920, Note_on_c, 0, 67, 101
4, 298920, Note_on_c, 0, 52, 101
4, 299040, Note_on_c, 0, 52, 0
4, 299040, Note_on_c, 0, 67, 0
4, 299040, Note_on_c, 0, 64, 101
4, 299040, Note_on_c, 0, 55, 101
4, 299160, Note_on_c, 0, 55, 0
4, 299160, Note_on_c, 0, 64, 0
4, 299160, Note_on_c, 0, 67, 99
4, 299160, Note_on_c, 0, 52, 99
4, 299280, Note_on_c, 0, 52, 0
4, 299280, Note_on_c, 0, 67, 0
4, 299280, Note_on_c, 0, 62, 97
4, 299280, Note_on_c, 0, 53, 97
4, 299400, Note_on_c, 0, 53, 0
4, 299400, Note_on_c, 0, 62, 0
4, 299400, Note_on_c, 0, 67, 95
4, 299400, Note_on_c, 0, 50, 95
4, 299520, Note_on_c, 0, 50, 0
4, 299520, Note_on_c, 0, 67, 0
4, 299520, Note_on_c, 0, 60, 92
4, 299520, Note_on_c, 0, 48, 92
4, 299880, Note_on_c, 0, 48, 0
4, 299880, Note_on_c, 0, 60, 0
4, 317520, Note_on_c, 0, 64, 90
4, 317520, Note_on_c, 0, 60, 90
4, 317640, Note_on_c, 0, 60, 0
4, 317640, Note_on_c, 0, 64, 0
4, 317640, Note_on_c, 0, 67, 91
4, 317640, Note_on_c, 0, 55, 91
4, 317760, Note_on_c, 0, 55, 0
4, 317760, Note_on_c, 0, 67, 0
4, 317760, Note_on_c, 0, 64, 92
4, 317760, Note_on_c, 0, 60, 92
4, 317880, Note_on_c, 0, 60, 0
4, 317880, Note_on_c, 0, 64, 0
4, 317880, Note_on_c, 0, 67, 93
4, 317880, Note_on_c, 0, 55, 93
4, 318000, Note_on_c, 0, 55, 0
4, 318000, Note_on_c, 0, 67, 0
4, 318000, Note_on_c, 0, 64, 94
4, 318000, Note_on_c, 0, 60, 94
4, 318120, Note_on_c, 0, 60, 0
4, 318120, Note_on_c, 0, 64, 0
4, 318120, Note_on_c, 0, 67, 95
4, 318120, Note_on_c, 0, 55, 95
4, 318240, Note_on_c, 0, 55, 0
4, 318240, Note_on_c, 0, 67, 0
4, 318240, Note_on_c, 0, 62, 94
4, 318240, Note_on_c, 0, 59, 94
4, 318360, Note_on_c, 0, 59, 0
4, 318360, Note_on_c, 0, 62, 0
4, 318360, Note_on_c, 0, 67, 93
4, 318360, Note_on_c, 0, 55, 93
4, 318480, Note_on_c, 0, 55, 0
4, 318480, Note_on_c, 0, 67, 0
4, 318480, Note_on_c, 0, 62, 91
4, 318480, Note_on_c, 0, 59, 91
4, 318600, Note_on_c, 0, 59, 0
4, 318600, Note_on_c, 0, 62, 0
4, 318600, Note_on_c, 0, 67, 90
4, 318600, Note_on_c, 0, 55, 90
4, 318720, Note_on_c, 0, 55, 0
4, 318720, Note_on_c, 0, 67, 0
4, 318720, Note_on_c, 0, 62, 89
4, 318720, Note_on_c, 0, 59, 89
4, 318840, Note_on_c, 0, 59, 0
4, 318840, Note_on_c, 0, 62, 0
4, 318840, Note_on_c, 0, 67, 87
4, 318840, Note_on_c, 0, 55, 87
4, 318960, Note_on_c, 0, 55, 0
4, 318960, Note_on_c, 0, 67, 0
4, 318960, Note_on_c, 0, 64, 85
4, 318960, Note_on_c, 0, 60, 85
4, 319080, Note_on_c, 0, 60, 0
4, 319080, Note_on_c, 0, 64, 0
4, 319080, Note_on_c, 0, 67, 86
4, 319080, Note_on_c, 0, 55, 86
4, 319200, Note_on_c, 0, 55, 0
4, 319200, Note_on_c, 0, 67, 0
4, 319200, Note_on_c, 0, 72, 87
4, 319200, Note_on_c, 0, 60, 87
4, 319320, Note_on_c, 0, 60, 0
4, 319320, Note_on_c, 0, 72, 0
4, 319320, Note_on_c, 0, 67, 88
4, 319320, Note_on_c, 0, 55, 88
4, 319440, Note_on_c, 0, 55, 0
4, 319440, Note_on_c, 0, 67, 0
4, 319440, Note_on_c, 0, 72, 90
4, 319440, Note_on_c, 0, 60, 90
4, 319560, Note_on_c, 0, 60, 0
4, 319560, Note_on_c, 0, 72, 0
4, 319560, Note_on_c, 0, 67, 91
4, 319560, Note_on_c, 0, 55, 91
4, 319680, Note_on_c, 0, 55, 0
4, 319680, Note_on_c, 0, 67, 0
4, 319680, Note_on_c, 0, 71, 92
4, 319680, Note_on_c, 0, 59, 92
4, 319800, Note_on_c, 0, 59, 0
4, 319800, Note_on_c, 0, 71, 0
4, 319800, Note_on_c, 0, 67, 91
4, 319800, Note_on_c, 0, 55, 91
4, 319920, Note_on_c, 0, 55, 0
4, 319920, Note_on_c, 0, 67, 0
4, 319920, Note_on_c, 0, 66, 89
4, 319920, Note_on_c, 0, 54, 89
4, 320040, Note_on_c, 0, 54, 0
4, 320040, Note_on_c, 0, 66, 0
4, 320040, Note_on_c, 0, 67, 88
4, 320040, Note_on_c, 0, 55, 88
4, 320160, Note_on_c, 0, 55, 0
4, 320160, Note_on_c, 0, 67, 0
4, 320160, Note_on_c, 0, 69, 87
4, 320160, Note_on_c, 0, 60, 87
4, 320280, Note_on_c, 0, 60, 0
4, 320280, Note_on_c, 0, 69, 0
4, 320280, Note_on_c, 0, 55, 85
4, 320280, Note_on_c, 0, 72, 85
4, 320400, Note_on_c, 0, 72, 0
4, 320400, Note_on_c, 0, 55, 0
4, 320400, Note_on_c, 0, 67, 86
4, 320400, Note_on_c, 0, 60, 86
4, 320520, Note_on_c, 0, 60, 0
4, 320520, Note_on_c, 0, 67, 0
4, 320520, Note_on_c, 0, 72, 87
4, 320520, Note_on_c, 0, 55, 87
4, 320640, Note_on_c, 0, 55, 0
4, 320640, Note_on_c, 0, 72, 0
4, 320640, Note_on_c, 0, 67, 89
4, 320640, Note_on_c, 0, 60, 89
4, 320760, Note_on_c, 0, 60, 0
4, 320760, Note_on_c, 0, 67, 0
4, 320760, Note_on_c, 0, 72, 90
4, 320760, Note_on_c, 0, 55, 90
4, 320880, Note_on_c, 0, 55, 0
4, 320880, Note_on_c, 0, 72, 0
4, 320880, Note_on_c, 0, 67, 92
4, 320880, Note_on_c, 0, 61, 92
4, 321000, Note_on_c, 0, 61, 0
4, 321000, Note_on_c, 0, 67, 0
4, 321000, Note_on_c, 0, 73, 93
4, 321000, Note_on_c, 0, 55, 93
4, 321120, Note_on_c, 0, 55, 0
4, 321120, Note_on_c, 0, 73, 0
4, 321120, Note_on_c, 0, 65, 96
4, 321120, Note_on_c, 0, 57, 96
4, 321240, Note_on_c, 0, 57, 0
4, 321240, Note_on_c, 0, 65, 0
4, 321240, Note_on_c, 0, 69, 95
4, 321240, Note_on_c, 0, 62, 95
4, 321360, Note_on_c, 0, 62, 0
4, 321360, Note_on_c, 0, 69, 0
4, 321360, Note_on_c, 0, 65, 94
4, 321360, Note_on_c, 0, 57, 94
4, 321480, Note_on_c, 0, 57, 0
4, 321480, Note_on_c, 0, 65, 0
4, 321480, Note_on_c, 0, 69, 93
4, 321480, Note_on_c, 0, 53, 93
4, 321600, Note_on_c, 0, 53, 0
4, 321600, Note_on_c, 0, 69, 0
4, 321600, Note_on_c, 0, 65, 92
4, 321600, Note_on_c, 0, 50, 92
4, 321720, Note_on_c, 0, 50, 0
4, 321720, Note_on_c, 0, 65, 0
4, 321720, Note_on_c, 0, 69, 91
4, 321720, Note_on_c, 0, 53, 91
4, 321840, Note_on_c, 0, 53, 0
4, 321840, Note_on_c, 0, 69, 0
4, 321840, Note_on_c, 0, 64, 90
4, 321840, Note_on_c, 0, 55, 90
4, 321960, Note_on_c, 0, 55, 0
4, 321960, Note_on_c, 0, 64, 0
4, 321960, Note_on_c, 0, 67, 89
4, 321960, Note_on_c, 0, 52, 89
4, 322080, Note_on_c, 0, 52, 0
4, 322080, Note_on_c, 0, 67, 0
4, 322080, Note_on_c, 0, 64, 88
4, 322080, Note_on_c, 0, 55, 88
4, 322200, Note_on_c, 0, 55, 0
4, 322200, Note_on_c, 0, 64, 0
4, 322200, Note_on_c, 0, 67, 87
4, 322200, Note_on_c, 0, 52, 87
4, 322320, Note_on_c, 0, 52, 0
4, 322320, Note_on_c, 0, 67, 0
4, 322320, Note_on_c, 0, 62, 86
4, 322320, Note_on_c, 0, 53, 86
4, 322440, Note_on_c, 0, 53, 0
4, 322440, Note_on_c, 0, 62, 0
4, 322440, Note_on_c, 0, 67, 84
4, 322440, Note_on_c, 0, 55, 84
4, 322560, Note_on_c, 0, 55, 0
4, 322560, Note_on_c, 0, 67, 0
4, 322560, Note_on_c, 0, 60, 83
4, 322560, Note_on_c, 0, 52, 83
4, 322920, Note_on_c, 0, 52, 0
4, 322920, Note_on_c, 0, 60, 0
4, 324000, Note_on_c, 0, 57, 62
4, 324480, Note_on_c, 0, 57, 0
4, 324480, Note_on_c, 0, 57, 64
4, 324840, Note_on_c, 0, 57, 0
4, 324840, Note_on_c, 0, 61, 61
4, 324960, Note_on_c, 0, 61, 0
4, 324960, Note_on_c, 0, 62, 60
4, 325116, Note_on_c, 0, 62, 0
4, 326880, Note_on_c, 0, 55, 61
4, 327360, Note_on_c, 0, 55, 0
4, 327360, Note_on_c, 0, 55, 65
4, 327720, Note_on_c, 0, 55, 0
4, 327720, Note_on_c, 0, 59, 62
4, 327840, Note_on_c, 0, 59, 0
4, 327840, Note_on_c, 0, 60, 60
4, 327996, Note_on_c, 0, 60, 0
4, 329760, Note_on_c, 0, 60, 66
4, 330120, Note_on_c, 0, 60, 0
4, 330120, Note_on_c, 0, 61, 68
4, 330240, Note_on_c, 0, 61, 0
4, 330240, Note_on_c, 0, 57, 70
4, 330600, Note_on_c, 0, 61, 65
4, 330720, Note_on_c, 0, 61, 0
4, 330720, Note_on_c, 0, 62, 63
4, 330876, Note_on_c, 0, 62, 0
4, 330960, Note_on_c, 0, 57, 0
4, 332160, Note_on_c, 0, 52, 68
4, 334080, Note_on_c, 0, 52, 0
4, 335040, Note_on_c, 0, 53, 68
4, 335120, Note_on_c, 0, 55, 67
4, 335126, Note_on_c, 0, 53, 0
4, 335200, Note_on_c, 0, 53, 66
4, 335206, Note_on_c, 0, 55, 0
4, 335280, Note_on_c, 0, 55, 66
4, 335286, Note_on_c, 0, 53, 0
4, 335360, Note_on_c, 0, 53, 65
4, 335366, Note_on_c, 0, 55, 0
4, 335440, Note_on_c, 0, 55, 64
4, 335446, Note_on_c, 0, 53, 0
4, 335520, Note_on_c, 0, 53, 63
4, 335526, Note_on_c, 0, 55, 0
4, 335600, Note_on_c, 0, 55, 62
4, 335606, Note_on_c, 0, 53, 0
4, 335680, Note_on_c, 0, 53, 61
4, 335686, Note_on_c, 0, 55, 0
4, 335760, Note_on_c, 0, 52, 61
4, 335767, Note_on_c, 0, 53, 0
4, 335880, Note_on_c, 0, 53, 59
4, 335887, Note_on_c, 0, 52, 0
4, 336000, Note_on_c, 0, 60, 64
4, 336007, Note_on_c, 0, 53, 0
4, 336156, Note_on_c, 0, 60, 0
4, 336240, Note_on_c, 0, 55, 64
4, 336396, Note_on_c, 0, 55, 0
4, 336480, Note_on_c, 0, 60, 63
4, 336636, Note_on_c, 0, 60, 0
4, 336720, Note_on_c, 0, 55, 63
4, 336876, Note_on_c, 0, 55, 0
4, 336960, Note_on_c, 0, 59, 62
4, 337116, Note_on_c, 0, 59, 0
4, 337200, Note_on_c, 0, 55, 62
4, 337356, Note_on_c, 0, 55, 0
4, 337440, Note_on_c, 0, 59, 61
4, 337596, Note_on_c, 0, 59, 0
4, 337680, Note_on_c, 0, 55, 61
4, 337836, Note_on_c, 0, 55, 0
4, 337920, Note_on_c, 0, 60, 60
4, 338076, Note_on_c, 0, 60, 0
4, 338160, Note_on_c, 0, 55, 59
4, 338316, Note_on_c, 0, 55, 0
4, 338400, Note_on_c, 0, 60, 59
4, 338556, Note_on_c, 0, 60, 0
4, 338640, Note_on_c, 0, 55, 58
4, 338796, Note_on_c, 0, 55, 0
4, 338880, Note_on_c, 0, 59, 58
4, 339036, Note_on_c, 0, 59, 0
4, 339120, Note_on_c, 0, 55, 57
4, 339276, Note_on_c, 0, 55, 0
4, 339360, Note_on_c, 0, 59, 57
4, 339516, Note_on_c, 0, 59, 0
4, 339600, Note_on_c, 0, 55, 56
4, 339756, Note_on_c, 0, 55, 0
4, 339840, Note_on_c, 0, 60, 56
4, 339996, Note_on_c, 0, 60, 0
4, 340080, Note_on_c, 0, 55, 55
4, 340236, Note_on_c, 0, 55, 0
4, 340320, Note_on_c, 0, 60, 54
4, 340476, Note_on_c, 0, 60, 0
4, 340560, Note_on_c, 0, 55, 54
4, 340716, Note_on_c, 0, 55, 0
4, 340800, Note_on_c, 0, 59, 53
4, 340956, Note_on_c, 0, 59, 0
4, 341040, Note_on_c, 0, 55, 53
4, 341196, Note_on_c, 0, 55, 0
4, 341280, Note_on_c, 0, 59, 52
4, 341436, Note_on_c, 0, 59, 0
4, 341520, Note_on_c, 0, 55, 52
4, 341676, Note_on_c, 0, 55, 0
4, 341760, Note_on_c, 0, 60, 51
4, 341916, Note_on_c, 0, 60, 0
4, 342000, Note_on_c, 0, 55, 51
4, 342156, Note_on_c, 0, 55, 0
4, 342240, Note_on_c, 0, 60, 50
4, 342396, Note_on_c, 0, 60, 0
4, 342480, Note_on_c, 0, 55, 50
4, 342636, Note_on_c, 0, 55, 0
4, 342720, Note_on_c, 0, 59, 49
4, 343680, Note_on_c, 0, 59, 0
4, 344520, Note_on_c, 0, 55, 59
4, 344640, Note_on_c, 0, 55, 0
4, 344760, Note_on_c, 0, 55, 61
4, 344880, Note_on_c, 0, 55, 0
4, 345000, Note_on_c, 0, 55, 63
4, 345120, Note_on_c, 0, 55, 0
4, 345240, Note_on_c, 0, 55, 63
4, 345360, Note_on_c, 0, 55, 0
4, 345480, Note_on_c, 0, 55, 61
4, 345600, Note_on_c, 0, 55, 0
4, 345720, Note_on_c, 0, 55, 58
4, 345840, Note_on_c, 0, 55, 0
4, 345960, Note_on_c, 0, 55, 57
4, 346080, Note_on_c, 0, 55, 0
4, 346200, Note_on_c, 0, 55, 59
4, 346320, Note_on_c, 0, 55, 0
4, 346440, Note_on_c, 0, 55, 60
4, 346560, Note_on_c, 0, 55, 0
4, 346680, Note_on_c, 0, 55, 62
4, 346800, Note_on_c, 0, 55, 0
4, 346920, Note_on_c, 0, 55, 61
4, 347040, Note_on_c, 0, 55, 0
4, 347160, Note_on_c, 0, 55, 60
4, 347280, Note_on_c, 0, 55, 0
4, 347400, Note_on_c, 0, 55, 61
4, 347520, Note_on_c, 0, 55, 0
4, 347640, Note_on_c, 0, 55, 62
4, 347760, Note_on_c, 0, 55, 0
4, 347880, Note_on_c, 0, 57, 63
4, 348000, Note_on_c, 0, 57, 0
4, 348120, Note_on_c, 0, 57, 64
4, 348240, Note_on_c, 0, 57, 0
4, 348360, Note_on_c, 0, 57, 63
4, 348480, Note_on_c, 0, 57, 0
4, 348600, Note_on_c, 0, 57, 62
4, 348720, Note_on_c, 0, 57, 0
4, 348840, Note_on_c, 0, 55, 61
4, 348960, Note_on_c, 0, 55, 0
4, 349080, Note_on_c, 0, 55, 60
4, 349200, Note_on_c, 0, 55, 0
4, 349320, Note_on_c, 0, 55, 60
4, 349440, Note_on_c, 0, 55, 0
4, 349560, Note_on_c, 0, 55, 59
4, 349680, Note_on_c, 0, 55, 0
4, 349800, Note_on_c, 0, 55, 58
4, 349920, Note_on_c, 0, 55, 0
4, 350040, Note_on_c, 0, 55, 59
4, 350160, Note_on_c, 0, 55, 0
4, 350280, Note_on_c, 0, 48, 61
4, 350400, Note_on_c, 0, 48, 0
4, 350520, Note_on_c, 0, 48, 64
4, 350640, Note_on_c, 0, 48, 0
4, 350760, Note_on_c, 0, 48, 66
4, 350880, Note_on_c, 0, 48, 0
4, 351000, Note_on_c, 0, 50, 70
4, 351120, Note_on_c, 0, 50, 0
4, 351240, Note_on_c, 0, 50, 68
4, 351360, Note_on_c, 0, 50, 0
4, 351480, Note_on_c, 0, 50, 67
4, 351600, Note_on_c, 0, 50, 0
4, 351720, Note_on_c, 0, 52, 65
4, 351840, Note_on_c, 0, 52, 0
4, 351960, Note_on_c, 0, 52, 64
4, 352080, Note_on_c, 0, 52, 0
4, 352200, Note_on_c, 0, 53, 63
4, 352320, Note_on_c, 0, 53, 0
4, 352440, Note_on_c, 0, 52, 61
4, 352560, Note_on_c, 0, 52, 0
4, 352680, Note_on_c, 0, 52, 60
4, 352800, Note_on_c, 0, 52, 0
4, 352920, Note_on_c, 0, 52, 62
4, 353040, Note_on_c, 0, 52, 0
4, 353040, Note_on_c, 0, 67, 103
4, 353040, Note_on_c, 0, 60, 103
4, 353160, Note_on_c, 0, 67, 0
4, 353160, Note_on_c, 0, 72, 104
4, 353160, Note_on_c, 0, 55, 104
4, 353160, Note_on_c, 0, 52, 104
4, 353272, Note_on_c, 0, 60, 0
4, 353280, Note_on_c, 0, 72, 0
4, 353280, Note_on_c, 0, 55, 0
4, 353280, Note_on_c, 0, 52, 0
4, 353280, Note_on_c, 0, 67, 105
4, 353280, Note_on_c, 0, 60, 105
4, 353400, Note_on_c, 0, 67, 0
4, 353400, Note_on_c, 0, 72, 106
4, 353400, Note_on_c, 0, 55, 106
4, 353400, Note_on_c, 0, 52, 106
4, 353512, Note_on_c, 0, 60, 0
4, 353520, Note_on_c, 0, 72, 0
4, 353520, Note_on_c, 0, 55, 0
4, 353520, Note_on_c, 0, 52, 0
4, 353520, Note_on_c, 0, 67, 107
4, 353520, Note_on_c, 0, 61, 107
4, 353640, Note_on_c, 0, 67, 0
4, 353640, Note_on_c, 0, 73, 108
4, 353640, Note_on_c, 0, 55, 108
4, 353640, Note_on_c, 0, 52, 108
4, 353752, Note_on_c, 0, 61, 0
4, 353760, Note_on_c, 0, 73, 0
4, 353760, Note_on_c, 0, 55, 0
4, 353760, Note_on_c, 0, 52, 0
4, 353760, Note_on_c, 0, 65, 109
4, 353760, Note_on_c, 0, 57, 109
4, 353880, Note_on_c, 0, 57, 0
4, 353880, Note_on_c, 0, 65, 0
4, 353880, Note_on_c, 0, 69, 110
4, 353880, Note_on_c, 0, 62, 110
4, 354000, Note_on_c, 0, 62, 0
4, 354000, Note_on_c, 0, 69, 0
4, 354000, Note_on_c, 0, 65, 109
4, 354000, Note_on_c, 0, 57, 109
4, 354120, Note_on_c, 0, 57, 0
4, 354120, Note_on_c, 0, 65, 0
4, 354120, Note_on_c, 0, 69, 109
4, 354120, Note_on_c, 0, 53, 109
4, 354240, Note_on_c, 0, 53, 0
4, 354240, Note_on_c, 0, 69, 0
4, 354240, Note_on_c, 0, 65, 108
4, 354240, Note_on_c, 0, 50, 108
4, 354360, Note_on_c, 0, 50, 0
4, 354360, Note_on_c, 0, 65, 0
4, 354360, Note_on_c, 0, 69, 107
4, 354360, Note_on_c, 0, 53, 107
4, 354480, Note_on_c, 0, 53, 0
4, 354480, Note_on_c, 0, 69, 0
4, 354480, Note_on_c, 0, 64, 107
4, 354480, Note_on_c, 0, 55, 107
4, 354600, Note_on_c, 0, 55, 0
4, 354600, Note_on_c, 0, 64, 0
4, 354600, Note_on_c, 0, 67, 106
4, 354600, Note_on_c, 0, 52, 106
4, 354720, Note_on_c, 0, 52, 0
4, 354720, Note_on_c, 0, 67, 0
4, 354720, Note_on_c, 0, 64, 105
4, 354720, Note_on_c, 0, 55, 105
4, 354840, Note_on_c, 0, 55, 0
4, 354840, Note_on_c, 0, 64, 0
4, 354840, Note_on_c, 0, 67, 105
4, 354840, Note_on_c, 0, 52, 105
4, 354960, Note_on_c, 0, 52, 0
4, 354960, Note_on_c, 0, 67, 0
4, 354960, Note_on_c, 0, 62, 104
4, 354960, Note_on_c, 0, 71, 104
4, 354960, Note_on_c, 0, 55, 104
4, 355080, Note_on_c, 0, 55, 0
4, 355080, Note_on_c, 0, 62, 0
4, 355080, Note_on_c, 0, 67, 103
4, 355080, Note_on_c, 0, 53, 103
4, 355116, Note_on_c, 0, 71, 0
4, 355200, Note_on_c, 0, 53, 0
4, 355200, Note_on_c, 0, 67, 0
4, 355200, Note_on_c, 0, 60, 103
4, 355200, Note_on_c, 0, 52, 103
4, 355320, Note_on_c, 0, 48, 102
4, 355440, Note_on_c, 0, 48, 0
4, 355560, Note_on_c, 0, 52, 0
4, 355560, Note_on_c, 0, 60, 0
4, 355560, Note_on_c, 0, 48, 100
4, 355680, Note_on_c, 0, 48, 0
4, 355800, Note_on_c, 0, 48, 99
4, 355920, Note_on_c, 0, 48, 0
4, 356040, Note_on_c, 0, 48, 63
4, 356160, Note_on_c, 0, 48, 0
4, 356280, Note_on_c, 0, 48, 65
4, 356400, Note_on_c, 0, 48, 0
4, 356520, Note_on_c, 0, 48, 68
4, 356640, Note_on_c, 0, 48, 0
4, 356760, Note_on_c, 0, 48, 67
4, 356880, Note_on_c, 0, 48, 0
4, 357000, Note_on_c, 0, 48, 63
4, 357120, Note_on_c, 0, 48, 0
4, 357240, Note_on_c, 0, 48, 59
4, 357360, Note_on_c, 0, 48, 0
4, 357480, Note_on_c, 0, 48, 58
4, 357600, Note_on_c, 0, 48, 0
4, 357720, Note_on_c, 0, 48, 60
4, 357840, Note_on_c, 0, 48, 0
4, 357960, Note_on_c, 0, 48, 63
4, 358080, Note_on_c, 0, 48, 0
4, 358200, Note_on_c, 0, 48, 64
4, 358320, Note_on_c, 0, 48, 0
4, 358440, Note_on_c, 0, 48, 61
4, 358560, Note_on_c, 0, 48, 0
4, 358680, Note_on_c, 0, 48, 58
4, 358800, Note_on_c, 0, 48, 0
4, 358920, Note_on_c, 0, 48, 60
4, 359040, Note_on_c, 0, 48, 0
4, 359160, Note_on_c, 0, 48, 61
4, 359280, Note_on_c, 0, 48, 0
4, 359400, Note_on_c, 0, 48, 63
4, 359520, Note_on_c, 0, 48, 0
4, 359640, Note_on_c, 0, 48, 64
4, 359760, Note_on_c, 0, 48, 0
4, 359880, Note_on_c, 0, 48, 66
4, 360000, Note_on_c, 0, 48, 0
4, 360120, Note_on_c, 0, 48, 68
4, 360240, Note_on_c, 0, 48, 0
4, 360360, Note_on_c, 0, 48, 69
4, 360480, Note_on_c, 0, 48, 0
4, 360600, Note_on_c, 0, 48, 68
4, 360720, Note_on_c, 0, 48, 0
4, 360840, Note_on_c, 0, 48, 66
4, 360960, Note_on_c, 0, 48, 0
4, 361560, Note_on_c, 0, 60, 61
4, 361680, Note_on_c, 0, 60, 0
4, 361800, Note_on_c, 0, 60, 76
4, 361920, Note_on_c, 0, 60, 0
4, 362040, Note_on_c, 0, 60, 81
4, 362160, Note_on_c, 0, 60, 0
4, 362280, Note_on_c, 0, 60, 85
4, 362400, Note_on_c, 0, 60, 0
4, 362520, Note_on_c, 0, 60, 85
4, 362640, Note_on_c, 0, 60, 0
4, 362760, Note_on_c, 0, 60, 84
4, 362880, Note_on_c, 0, 60, 0
4, 363000, Note_on_c, 0, 60, 82
4, 363120, Note_on_c, 0, 60, 0
4, 363240, Note_on_c, 0, 60, 83
4, 363360, Note_on_c, 0, 60, 0
4, 363480, Note_on_c, 0, 60, 87
4, 363600, Note_on_c, 0, 60, 0
4, 363720, Note_on_c, 0, 60, 91
4, 363840, Note_on_c, 0, 60, 0
4, 363960, Note_on_c, 0, 60, 94
4, 364080, Note_on_c, 0, 60, 0
4, 364200, Note_on_c, 0, 60, 92
4, 364320, Note_on_c, 0, 60, 0
4, 364440, Note_on_c, 0, 60, 90
4, 364560, Note_on_c, 0, 60, 0
4, 364680, Note_on_c, 0, 60, 88
4, 364800, Note_on_c, 0, 60, 0
4, 364920, Note_on_c, 0, 60, 89
4, 365040, Note_on_c, 0, 60, 0
4, 365160, Note_on_c, 0, 60, 91
4, 365280, Note_on_c, 0, 60, 0
4, 365400, Note_on_c, 0, 60, 93
4, 365520, Note_on_c, 0, 60, 0
4, 365640, Note_on_c, 0, 60, 94
4, 365760, Note_on_c, 0, 60, 0
4, 365880, Note_on_c, 0, 60, 96
4, 366000, Note_on_c, 0, 60, 0
4, 366120, Note_on_c, 0, 60, 97
4, 366240, Note_on_c, 0, 60, 0
4, 366360, Note_on_c, 0, 60, 99
4, 366480, Note_on_c, 0, 60, 0
4, 366600, Note_on_c, 0, 60, 100
4, 366720, Note_on_c, 0, 60, 0
4, 366840, Note_on_c, 0, 60, 102
4, 366960, Note_on_c, 0, 60, 0
4, 367080, Note_on_c, 0, 60, 100
4, 367200, Note_on_c, 0, 60, 0
4, 367320, Note_on_c, 0, 60, 98
4, 367440, Note_on_c, 0, 60, 0
4, 367560, Note_on_c, 0, 60, 100
4, 367680, Note_on_c, 0, 60, 0
4, 367800, Note_on_c, 0, 60, 101
4, 367920, Note_on_c, 0, 60, 0
4, 368040, Note_on_c, 0, 60, 102
4, 368160, Note_on_c, 0, 60, 0
4, 368280, Note_on_c, 0, 60, 104
4, 368400, Note_on_c, 0, 60, 0
4, 368520, Note_on_c, 0, 60, 105
4, 368640, Note_on_c, 0, 60, 0
4, 368760, Note_on_c, 0, 60, 106
4, 368880, Note_on_c, 0, 60, 0
4, 369000, Note_on_c, 0, 60, 108
4, 369120, Note_on_c, 0, 60, 0
4, 369240, Note_on_c, 0, 60, 109
4, 369360, Note_on_c, 0, 60, 0
4, 369480, Note_on_c, 0, 60, 110
4, 369600, Note_on_c, 0, 60, 0
4, 369600, Note_on_c, 0, 60, 118
4, 369600, Note_on_c, 0, 64, 118
4, 369756, Note_on_c, 0, 64, 0
4, 369756, Note_on_c, 0, 60, 0
4, 369840, Note_on_c, 0, 60, 117
4, 369840, Note_on_c, 0, 55, 117
4, 369840, Note_on_c, 0, 64, 117
4, 369996, Note_on_c, 0, 64, 0
4, 369996, Note_on_c, 0, 55, 0
4, 369996, Note_on_c, 0, 60, 0
4, 370560, Note_on_c, 0, 65, 114
4, 370560, Note_on_c, 0, 59, 114
4, 370560, Note_on_c, 0, 55, 114
4, 370560, Note_on_c, 0, 62, 114
4, 370716, Note_on_c, 0, 62, 0
4, 370716, Note_on_c, 0, 65, 0
4, 370716, Note_on_c, 0, 59, 0
4, 370716, Note_on_c, 0, 55, 0
4, 371280, Note_on_c, 0, 64, 111
4, 371280, Note_on_c, 0, 55, 111
4, 371280, Note_on_c, 0, 60, 111
4, 371436, Note_on_c, 0, 60, 0
4, 371436, Note_on_c, 0, 55, 0
4, 371436, Note_on_c, 0, 64, 0
4, 372000, Note_on_c, 0, 59, 108
4, 372000, Note_on_c, 0, 50, 108
4, 372000, Note_on_c, 0, 55, 108
4, 372000, Note_on_c, 0, 53, 108
4, 372156, Note_on_c, 0, 53, 0
4, 372156, Note_on_c, 0, 59, 0
4, 372156, Note_on_c, 0, 50, 0
4, 372156, Note_on_c, 0, 55, 0
4, 372600, Note_on_c, 0, 48, 105
4, 372720, Note_on_c, 0, 48, 0
4, 372840, Note_on_c, 0, 48, 104
4, 372960, Note_on_c, 0, 48, 0
4, 373080, Note_on_c, 0, 48, 103
4, 373200, Note_on_c, 0, 48, 0
4, 373320, Note_on_c, 0, 43, 102
4, 373440, Note_on_c, 0, 43, 0
4, 373560, Note_on_c, 0, 43, 101
4, 373680, Note_on_c, 0, 43, 0
4, 373800, Note_on_c, 0, 43, 100
4, 373920, Note_on_c, 0, 43, 0
4, 373920, Note_on_c, 0, 48, 99
4, 374160, Note_on_c, 0, 48, 0
4, 374640, Note_on_c, 0, 50, 109
4, 374640, Note_on_c, 0, 55, 109
4, 374640, Note_on_c, 0, 59, 109
4, 374640, Note_on_c, 0, 53, 109
4, 375360, Note_on_c, 0, 53, 0
4, 375360, Note_on_c, 0, 50, 0
4, 375360, Note_on_c, 0, 55, 0
4, 375360, Note_on_c, 0, 59, 0
4, 376080, Note_on_c, 0, 62, 113
4, 376080, Note_on_c, 0, 53, 113
4, 376080, Note_on_c, 0, 65, 113
4, 376080, Note_on_c, 0, 55, 113
4, 376080, Note_on_c, 0, 59, 113
4, 376800, Note_on_c, 0, 59, 0
4, 376800, Note_on_c, 0, 65, 0
4, 376800, Note_on_c, 0, 62, 0
4, 376800, Note_on_c, 0, 53, 0
4, 376800, Note_on_c, 0, 55, 0
4, 377520, Note_on_c, 0, 55, 118
4, 377520, Note_on_c, 0, 62, 118
4, 377520, Note_on_c, 0, 65, 118
4, 377520, Note_on_c, 0, 59, 118
4, 378000, Note_on_c, 0, 59, 0
4, 378000, Note_on_c, 0, 55, 0
4, 378000, Note_on_c, 0, 62, 0
4, 378000, Note_on_c, 0, 65, 0
4, 378240, Note_on_c, 0, 55, 120
4, 378240, Note_on_c, 0, 62, 120
4, 378240, Note_on_c, 0, 59, 120
4, 378240, Note_on_c, 0, 65, 120
4, 378720, Note_on_c, 0, 65, 0
4, 378720, Note_on_c, 0, 55, 0
4, 378720, Note_on_c, 0, 62, 0
4, 378720, Note_on_c, 0, 59, 0
4, 378960, Note_on_c, 0, 55, 122
4, 378960, Note_on_c, 0, 62, 122
4, 378960, Note_on_c, 0, 65, 122
4, 378960, Note_on_c, 0, 59, 122
4, 379440, Note_on_c, 0, 59, 0
4, 379440, Note_on_c, 0, 55, 0
4, 379440, Note_on_c, 0, 62, 0
4, 379440, Note_on_c, 0, 65, 0
4, 379680, Note_on_c, 0, 55, 124
4, 379680, Note_on_c, 0, 62, 124
4, 379680, Note_on_c, 0, 65, 124
4, 379680, Note_on_c, 0, 59, 124
4, 381120, Note_on_c, 0, 59, 0
4, 381120, Note_on_c, 0, 55, 0
4, 381120, Note_on_c, 0, 62, 0
4, 381120, Note_on_c, 0, 65, 0
4, 381120, Note_on_c, 0, 76, 81
4, 381120, Note_on_c, 0, 72, 81
4, 381120, Note_on_c, 0, 67, 81
4, 381120, Note_on_c, 0, 79, 81
4, 381120, Note_on_c, 0, 84, 81
4, 381120, Note_on_c, 0, 48, 77
4, 381120, Note_on_c, 0, 55, 77
4, 381120, Note_on_c, 0, 60, 77
4, 381120, Note_on_c, 0, 64, 77
4, 381360, Note_on_c, 0, 64, 0
4, 381360, Note_on_c, 0, 79, 0
4, 381360, Note_on_c, 0, 76, 0
4, 381360, Note_on_c, 0, 84, 0
4, 381360, Note_on_c, 0, 72, 0
4, 381360, Note_on_c, 0, 67, 0
4, 381360, Note_on_c, 0, 55, 0
4, 381360, Note_on_c, 0, 48, 0
4, 381360, Note_on_c, 0, 60, 0
4, 381840, Note_on_c, 0, 79, 76
4, 381840, Note_on_c, 0, 77, 76
4, 381840, Note_on_c, 0, 55, 74
4, 381840, Note_on_c, 0, 59, 74
4, 382080, Note_on_c, 0, 59, 0
4, 382080, Note_on_c, 0, 79, 0
4, 382080, Note_on_c, 0, 77, 0
4, 382080, Note_on_c, 0, 55, 0
4, 382560, Note_on_c, 0, 76, 72
4, 382560, Note_on_c, 0, 79, 72
4, 382560, Note_on_c, 0, 48, 71
4, 382560, Note_on_c, 0, 60, 71
4, 382800, Note_on_c, 0, 60, 0
4, 382800, Note_on_c, 0, 76, 0
4, 382800, Note_on_c, 0, 79, 0
4, 382800, Note_on_c, 0, 48, 0
4, 382800, End_track
5, 0, Start_track
5, 0, Title_t, "Piano"
5, 0, Control_c, 0, 0, 0
5, 0, Control_c, 0, 7, 115
5, 0, Control_c, 0, 10, 44
5, 0, Control_c, 0, 91, 91
5, 0, Control_c, 0, 93, 28
5, 0, Control_c, 0, 64, 0
5, 0, Control_c, 0, 1, 0
5, 0, Pitch_bend_c, 0, 8192
5, 1, Control_c, 0, 32, 0
5, 1, Program_c, 0, 0
5, 480, Control_c, 0, 64, 0
5, 960, Note_on_c, 0, 48, 57
5, 1320, Note_on_c, 0, 48, 0
5, 1440, Note_on_c, 0, 48, 59
5, 1800, Note_on_c, 0, 48, 0
5, 1920, Note_on_c, 0, 53, 62
5, 2280, Note_on_c, 0, 53, 0
5, 2400, Note_on_c, 0, 53, 58
5, 2760, Note_on_c, 0, 53, 0
5, 2880, Note_on_c, 0, 52, 59
5, 3240, Note_on_c, 0, 52, 0
5, 3360, Note_on_c, 0, 48, 61
5, 3720, Note_on_c, 0, 48, 0
5, 3840, Note_on_c, 0, 43, 63
5, 4680, Note_on_c, 0, 43, 0
5, 4800, Note_on_c, 0, 49, 60
5, 5160, Note_on_c, 0, 49, 0
5, 5280, Note_on_c, 0, 49, 63
5, 5640, Note_on_c, 0, 49, 0
5, 5760, Note_on_c, 0, 50, 65
5, 6480, Note_on_c, 0, 50, 0
5, 6720, Note_on_c, 0, 47, 61
5, 7080, Note_on_c, 0, 47, 0
5, 7200, Note_on_c, 0, 47, 63
5, 7560, Note_on_c, 0, 47, 0
5, 7680, Note_on_c, 0, 48, 66
5, 8392, Note_on_c, 0, 48, 0
5, 8640, Note_on_c, 0, 52, 63
5, 9000, Note_on_c, 0, 52, 0
5, 9120, Note_on_c, 0, 52, 66
5, 9480, Note_on_c, 0, 52, 0
5, 9600, Note_on_c, 0, 53, 70
5, 9960, Note_on_c, 0, 53, 0
5, 10080, Note_on_c, 0, 41, 66
5, 10440, Note_on_c, 0, 41, 0
5, 10560, Note_on_c, 0, 43, 64
5, 10920, Note_on_c, 0, 43, 0
5, 11040, Note_on_c, 0, 43, 61
5, 11400, Note_on_c, 0, 43, 0
5, 11520, Note_on_c, 0, 36, 59
5, 12000, Note_on_c, 0, 36, 0
5, 12000, Note_on_c, 0, 48, 49
5, 12192, Note_on_c, 0, 48, 0
5, 16320, Note_on_c, 0, 36, 59
5, 16800, Note_on_c, 0, 36, 0
5, 16800, Note_on_c, 0, 39, 62
5, 17280, Note_on_c, 0, 39, 0
5, 17280, Note_on_c, 0, 43, 65
5, 18240, Note_on_c, 0, 43, 0
5, 18240, Note_on_c, 0, 36, 59
5, 18720, Note_on_c, 0, 36, 0
5, 18720, Note_on_c, 0, 39, 61
5, 19200, Note_on_c, 0, 39, 0
5, 19200, Note_on_c, 0, 43, 65
5, 20160, Note_on_c, 0, 43, 0
5, 20160, Note_on_c, 0, 36, 65
5, 20640, Note_on_c, 0, 36, 0
5, 20640, Note_on_c, 0, 40, 70
5, 21120, Note_on_c, 0, 40, 0
5, 21120, Note_on_c, 0, 43, 74
5, 21600, Note_on_c, 0, 43, 0
5, 21600, Note_on_c, 0, 47, 70
5, 22080, Note_on_c, 0, 47, 0
5, 22080, Note_on_c, 0, 48, 68
5, 22560, Note_on_c, 0, 52, 71
5, 22576, Note_on_c, 0, 48, 0
5, 23040, Note_on_c, 0, 52, 0
5, 23040, Note_on_c, 0, 43, 76
5, 23760, Note_on_c, 0, 43, 0
5, 23760, Note_on_c, 0, 41, 78
5, 24000, Note_on_c, 0, 41, 0
5, 24000, Note_on_c, 0, 40, 79
5, 24480, Note_on_c, 0, 40, 0
5, 24480, Note_on_c, 0, 40, 83
5, 24960, Note_on_c, 0, 40, 0
5, 24960, Note_on_c, 0, 41, 86
5, 25440, Note_on_c, 0, 41, 0
5, 25440, Note_on_c, 0, 41, 82
5, 25920, Note_on_c, 0, 41, 0
5, 25920, Note_on_c, 0, 43, 78
5, 26400, Note_on_c, 0, 43, 0
5, 26400, Note_on_c, 0, 43, 73
5, 26880, Note_on_c, 0, 43, 0
5, 26880, Note_on_c, 0, 36, 69
5, 27360, Note_on_c, 0, 36, 0
5, 27360, Note_on_c, 0, 48, 59
5, 27552, Note_on_c, 0, 48, 0
5, 27840, Control_c, 0, 64, 0
5, 29280, Note_on_c, 0, 43, 59
5, 29760, Note_on_c, 0, 43, 0
5, 29760, Note_on_c, 0, 48, 59
5, 29952, Note_on_c, 0, 48, 0
5, 31200, Note_on_c, 0, 43, 61
5, 31680, Note_on_c, 0, 43, 0
5, 31680, Note_on_c, 0, 36, 60
5, 31872, Note_on_c, 0, 36, 0
5, 33120, Note_on_c, 0, 38, 65
5, 33600, Note_on_c, 0, 38, 0
5, 33600, Note_on_c, 0, 35, 61
5, 33792, Note_on_c, 0, 35, 0
5, 35040, Note_on_c, 0, 48, 62
5, 35520, Note_on_c, 0, 48, 0
5, 35520, Note_on_c, 0, 40, 65
5, 35712, Note_on_c, 0, 40, 0
5, 36960, Note_on_c, 0, 41, 74
5, 37440, Note_on_c, 0, 41, 0
5, 37440, Note_on_c, 0, 43, 69
5, 37632, Note_on_c, 0, 43, 0
5, 37920, Note_on_c, 0, 43, 64
5, 38112, Note_on_c, 0, 43, 0
5, 38400, Note_on_c, 0, 48, 59
5, 38592, Note_on_c, 0, 48, 0
5, 38880, Note_on_c, 0, 36, 54
5, 39072, Note_on_c, 0, 36, 0
5, 39600, Note_on_c, 0, 48, 66
5, 39720, Note_on_c, 0, 48, 0
5, 39720, Note_on_c, 0, 47, 66
5, 39840, Note_on_c, 0, 47, 0
5, 39840, Note_on_c, 0, 48, 67
5, 39936, Note_on_c, 0, 48, 0
5, 40080, Note_on_c, 0, 51, 69
5, 40176, Note_on_c, 0, 51, 0
5, 40560, Note_on_c, 0, 43, 69
5, 40680, Note_on_c, 0, 43, 0
5, 40680, Note_on_c, 0, 42, 67
5, 40800, Note_on_c, 0, 42, 0
5, 40800, Note_on_c, 0, 43, 66
5, 40896, Note_on_c, 0, 43, 0
5, 41040, Note_on_c, 0, 47, 63
5, 41136, Note_on_c, 0, 47, 0
5, 41520, Note_on_c, 0, 36, 63
5, 41640, Note_on_c, 0, 36, 0
5, 41640, Note_on_c, 0, 35, 63
5, 41760, Note_on_c, 0, 35, 0
5, 41760, Note_on_c, 0, 36, 64
5, 41856, Note_on_c, 0, 36, 0
5, 42000, Note_on_c, 0, 39, 66
5, 42096, Note_on_c, 0, 39, 0
5, 42480, Note_on_c, 0, 42, 64
5, 42720, Note_on_c, 0, 42, 0
5, 42720, Note_on_c, 0, 43, 61
5, 42840, Note_on_c, 0, 43, 0
5, 43200, Note_on_c, 0, 48, 59
5, 43200, Note_on_c, 0, 36, 59
5, 43680, Note_on_c, 0, 63, 63
5, 43680, Note_on_c, 0, 60, 63
5, 43920, Note_on_c, 0, 60, 0
5, 43920, Note_on_c, 0, 63, 0
5, 44160, Note_on_c, 0, 36, 0
5, 44160, Note_on_c, 0, 48, 0
5, 44160, Note_on_c, 0, 55, 70
5, 44160, Note_on_c, 0, 43, 70
5, 44640, Note_on_c, 0, 59, 66
5, 44640, Note_on_c, 0, 62, 66
5, 44880, Note_on_c, 0, 62, 0
5, 44880, Note_on_c, 0, 59, 0
5, 45120, Note_on_c, 0, 43, 0
5, 45120, Note_on_c, 0, 55, 0
5, 45120, Note_on_c, 0, 48, 68
5, 45360, Note_on_c, 0, 48, 0
5, 45360, Note_on_c, 0, 51, 70
5, 45600, Note_on_c, 0, 51, 0
5, 45600, Note_on_c, 0, 55, 74
5, 45600, Note_on_c, 0, 39, 74
5, 45600, Note_on_c, 0, 60, 74
5, 45600, Note_on_c, 0, 63, 74
5, 45840, Note_on_c, 0, 63, 0
5, 45840, Note_on_c, 0, 55, 0
5, 45840, Note_on_c, 0, 39, 0
5, 45840, Note_on_c, 0, 60, 0
5, 45840, Note_on_c, 0, 48, 78
5, 45840, Note_on_c, 0, 36, 78
5, 46080, Note_on_c, 0, 36, 0
5, 46080, Note_on_c, 0, 48, 0
5, 46080, Note_on_c, 0, 55, 76
5, 46080, Note_on_c, 0, 43, 76
5, 46080, Note_on_c, 0, 62, 76
5, 46080, Note_on_c, 0, 59, 76
5, 46320, Note_on_c, 0, 59, 0
5, 46320, Note_on_c, 0, 55, 0
5, 46320, Note_on_c, 0, 43, 0
5, 46320, Note_on_c, 0, 62, 0
5, 47040, Note_on_c, 0, 60, 67
5, 47232, Note_on_c, 0, 60, 0
5, 47520, Note_on_c, 0, 60, 71
5, 48000, Note_on_c, 0, 60, 0
5, 48000, Note_on_c, 0, 59, 78
5, 48192, Note_on_c, 0, 59, 0
5, 48480, Note_on_c, 0, 43, 73
5, 48960, Note_on_c, 0, 43, 0
5, 48960, Note_on_c, 0, 48, 70
5, 49152, Note_on_c, 0, 48, 0
5, 50400, Note_on_c, 0, 41, 80
5, 50880, Note_on_c, 0, 41, 0
5, 50880, Note_on_c, 0, 40, 76
5, 51072, Note_on_c, 0, 40, 0
5, 51360, Note_on_c, 0, 40, 81
5, 51840, Note_on_c, 0, 40, 0
5, 51840, Note_on_c, 0, 41, 85
5, 52032, Note_on_c, 0, 41, 0
5, 52320, Note_on_c, 0, 41, 81
5, 52800, Note_on_c, 0, 41, 0
5, 52800, Note_on_c, 0, 43, 78
5, 52992, Note_on_c, 0, 43, 0
5, 53280, Note_on_c, 0, 31, 75
5, 53472, Note_on_c, 0, 31, 0
5, 53760, Note_on_c, 0, 36, 71
5, 53952, Note_on_c, 0, 36, 0
5, 54240, Note_on_c, 0, 36, 68
5, 54432, Note_on_c, 0, 36, 0
5, 54720, Control_c, 0, 64, 0
5, 55200, Note_on_c, 0, 36, 108
5, 55680, Note_on_c, 0, 36, 0
5, 55680, Note_on_c, 0, 43, 112
5, 56796, Note_on_c, 0, 43, 0
5, 56880, Note_on_c, 0, 43, 102
5, 57036, Note_on_c, 0, 43, 0
5, 57120, Note_on_c, 0, 40, 103
5, 57276, Note_on_c, 0, 40, 0
5, 57360, Note_on_c, 0, 36, 105
5, 57516, Note_on_c, 0, 36, 0
5, 57600, Note_on_c, 0, 43, 104
5, 58320, Note_on_c, 0, 43, 0
5, 58320, Note_on_c, 0, 41, 84
5, 58560, Note_on_c, 0, 41, 0
5, 58560, Note_on_c, 0, 40, 70
5, 59520, Note_on_c, 0, 40, 0
5, 59520, Note_on_c, 0, 41, 81
5, 60480, Note_on_c, 0, 41, 0
5, 60480, Note_on_c, 0, 43, 68
5, 61440, Note_on_c, 0, 43, 0
5, 61920, Note_on_c, 0, 36, 72
5, 62400, Note_on_c, 0, 36, 0
5, 62400, Note_on_c, 0, 40, 77
5, 63360, Note_on_c, 0, 40, 0
5, 63360, Note_on_c, 0, 41, 85
5, 64320, Note_on_c, 0, 41, 0
5, 64320, Note_on_c, 0, 43, 74
5, 65280, Note_on_c, 0, 43, 0
5, 65400, Note_on_c, 0, 43, 63
5, 65478, Note_on_c, 0, 43, 0
5, 65520, Note_on_c, 0, 40, 60
5, 65598, Note_on_c, 0, 40, 0
5, 65640, Note_on_c, 0, 43, 57
5, 65718, Note_on_c, 0, 43, 0
5, 65760, Note_on_c, 0, 36, 53
5, 65916, Note_on_c, 0, 36, 0
5, 66480, Note_on_c, 0, 68, 70
5, 66600, Note_on_c, 0, 68, 0
5, 66600, Note_on_c, 0, 67, 68
5, 66720, Note_on_c, 0, 67, 0
5, 66720, Note_on_c, 0, 66, 66
5, 66840, Note_on_c, 0, 66, 0
5, 66840, Note_on_c, 0, 67, 64
5, 66960, Note_on_c, 0, 67, 0
5, 66960, Note_on_c, 0, 55, 61
5, 67200, Note_on_c, 0, 55, 0
5, 67440, Note_on_c, 0, 68, 68
5, 67560, Note_on_c, 0, 68, 0
5, 67560, Note_on_c, 0, 67, 66
5, 67680, Note_on_c, 0, 67, 0
5, 67680, Note_on_c, 0, 66, 64
5, 67800, Note_on_c, 0, 66, 0
5, 67800, Note_on_c, 0, 67, 62
5, 67920, Note_on_c, 0, 67, 0
5, 67920, Note_on_c, 0, 55, 60
5, 68160, Note_on_c, 0, 55, 0
5, 68400, Note_on_c, 0, 68, 64
5, 68520, Note_on_c, 0, 68, 0
5, 68520, Note_on_c, 0, 67, 62
5, 68640, Note_on_c, 0, 67, 0
5, 68640, Note_on_c, 0, 66, 60
5, 68760, Note_on_c, 0, 66, 0
5, 68760, Note_on_c, 0, 67, 58
5, 68880, Note_on_c, 0, 67, 0
5, 68880, Note_on_c, 0, 55, 56
5, 69120, Note_on_c, 0, 55, 0
5, 69360, Note_on_c, 0, 66, 55
5, 69600, Note_on_c, 0, 66, 0
5, 69600, Note_on_c, 0, 67, 53
5, 69840, Note_on_c, 0, 67, 0
5, 70320, Note_on_c, 0, 43, 63
5, 70440, Note_on_c, 0, 43, 0
5, 70440, Note_on_c, 0, 55, 61
5, 70560, Note_on_c, 0, 55, 0
5, 70560, Note_on_c, 0, 56, 60
5, 70680, Note_on_c, 0, 56, 0
5, 70680, Note_on_c, 0, 54, 58
5, 70800, Note_on_c, 0, 54, 0
5, 70800, Note_on_c, 0, 55, 56
5, 71040, Note_on_c, 0, 55, 0
5, 71280, Note_on_c, 0, 43, 60
5, 71400, Note_on_c, 0, 43, 0
5, 71400, Note_on_c, 0, 55, 59
5, 71520, Note_on_c, 0, 55, 0
5, 71520, Note_on_c, 0, 56, 57
5, 71640, Note_on_c, 0, 56, 0
5, 71640, Note_on_c, 0, 54, 55
5, 71760, Note_on_c, 0, 54, 0
5, 71760, Note_on_c, 0, 55, 53
5, 72000, Note_on_c, 0, 55, 0
5, 72240, Note_on_c, 0, 43, 56
5, 72360, Note_on_c, 0, 43, 0
5, 72360, Note_on_c, 0, 55, 55
5, 72480, Note_on_c, 0, 55, 0
5, 72480, Note_on_c, 0, 56, 54
5, 72600, Note_on_c, 0, 56, 0
5, 72600, Note_on_c, 0, 54, 53
5, 72720, Note_on_c, 0, 54, 0
5, 72720, Note_on_c, 0, 55, 51
5, 72960, Note_on_c, 0, 55, 0
5, 72960, Note_on_c, 0, 43, 51
5, 73200, Note_on_c, 0, 43, 0
5, 73920, Note_on_c, 0, 36, 110
5, 74400, Note_on_c, 0, 36, 0
5, 74400, Note_on_c, 0, 36, 106
5, 74880, Note_on_c, 0, 36, 0
5, 74880, Note_on_c, 0, 43, 110
5, 74880, Note_on_c, 0, 31, 110
5, 75840, Note_on_c, 0, 31, 0
5, 75840, Note_on_c, 0, 43, 0
5, 75840, Note_on_c, 0, 36, 111
5, 75960, Note_on_c, 0, 36, 0
5, 75960, Note_on_c, 0, 38, 100
5, 76038, Note_on_c, 0, 38, 0
5, 76080, Note_on_c, 0, 40, 100
5, 76158, Note_on_c, 0, 40, 0
5, 76200, Note_on_c, 0, 41, 101
5, 76278, Note_on_c, 0, 41, 0
5, 76320, Note_on_c, 0, 43, 102
5, 76398, Note_on_c, 0, 43, 0
5, 76440, Note_on_c, 0, 45, 103
5, 76518, Note_on_c, 0, 45, 0
5, 76560, Note_on_c, 0, 47, 103
5, 76638, Note_on_c, 0, 47, 0
5, 76680, Note_on_c, 0, 48, 104
5, 76758, Note_on_c, 0, 48, 0
5, 76800, Note_on_c, 0, 35, 116
5, 76920, Note_on_c, 0, 35, 0
5, 76920, Note_on_c, 0, 36, 103
5, 76998, Note_on_c, 0, 36, 0
5, 77040, Note_on_c, 0, 38, 100
5, 77118, Note_on_c, 0, 38, 0
5, 77160, Note_on_c, 0, 40, 97
5, 77238, Note_on_c, 0, 40, 0
5, 77280, Note_on_c, 0, 41, 94
5, 77358, Note_on_c, 0, 41, 0
5, 77400, Note_on_c, 0, 43, 91
5, 77478, Note_on_c, 0, 43, 0
5, 77520, Note_on_c, 0, 45, 88
5, 77598, Note_on_c, 0, 45, 0
5, 77640, Note_on_c, 0, 47, 85
5, 77718, Note_on_c, 0, 47, 0
5, 78240, Note_on_c, 0, 40, 67
5, 78720, Note_on_c, 0, 40, 0
5, 78720, Note_on_c, 0, 41, 74
5, 79200, Note_on_c, 0, 41, 0
5, 79200, Note_on_c, 0, 41, 71
5, 79680, Note_on_c, 0, 41, 0
5, 79680, Note_on_c, 0, 43, 67
5, 80160, Note_on_c, 0, 43, 0
5, 80160, Note_on_c, 0, 43, 64
5, 80640, Note_on_c, 0, 43, 0
5, 80760, Note_on_c, 0, 43, 62
5, 80880, Note_on_c, 0, 43, 0
5, 80880, Note_on_c, 0, 40, 59
5, 81000, Note_on_c, 0, 40, 0
5, 81000, Note_on_c, 0, 43, 57
5, 81120, Note_on_c, 0, 43, 0
5, 81120, Note_on_c, 0, 36, 54
5, 81240, Note_on_c, 0, 36, 0
5, 81600, Control_c, 0, 64, 0
5, 81600, Note_on_c, 0, 48, 59
5, 82080, Note_on_c, 0, 48, 0
5, 82080, Note_on_c, 0, 60, 60
5, 82560, Note_on_c, 0, 60, 0
5, 82560, Note_on_c, 0, 59, 64
5, 83040, Note_on_c, 0, 59, 0
5, 83040, Note_on_c, 0, 53, 60
5, 83520, Note_on_c, 0, 53, 0
5, 83520, Note_on_c, 0, 52, 55
5, 84000, Note_on_c, 0, 52, 0
5, 84000, Note_on_c, 0, 48, 59
5, 84480, Note_on_c, 0, 48, 0
5, 84480, Note_on_c, 0, 47, 66
5, 84960, Note_on_c, 0, 47, 0
5, 84960, Note_on_c, 0, 43, 62
5, 85440, Note_on_c, 0, 43, 0
5, 85440, Note_on_c, 0, 48, 60
5, 85920, Note_on_c, 0, 48, 0
5, 85920, Note_on_c, 0, 46, 64
5, 86400, Note_on_c, 0, 46, 0
5, 86400, Note_on_c, 0, 45, 68
5, 86880, Note_on_c, 0, 45, 0
5, 86880, Note_on_c, 0, 41, 63
5, 87360, Note_on_c, 0, 41, 0
5, 87360, Note_on_c, 0, 43, 59
5, 87840, Note_on_c, 0, 43, 0
5, 87840, Note_on_c, 0, 47, 61
5, 88320, Note_on_c, 0, 47, 0
5, 88320, Note_on_c, 0, 48, 64
5, 88800, Note_on_c, 0, 48, 0
5, 88800, Note_on_c, 0, 52, 62
5, 89280, Note_on_c, 0, 52, 0
5, 89280, Note_on_c, 0, 48, 65
5, 89760, Note_on_c, 0, 48, 0
5, 89760, Note_on_c, 0, 45, 69
5, 90240, Note_on_c, 0, 45, 0
5, 90240, Note_on_c, 0, 50, 76
5, 90720, Note_on_c, 0, 50, 0
5, 90720, Note_on_c, 0, 41, 72
5, 91200, Note_on_c, 0, 41, 0
5, 91200, Note_on_c, 0, 43, 67
5, 91680, Note_on_c, 0, 43, 0
5, 91680, Note_on_c, 0, 43, 63
5, 92160, Note_on_c, 0, 43, 0
5, 92160, Note_on_c, 0, 48, 58
5, 92880, Note_on_c, 0, 48, 0
5, 93120, Note_on_c, 0, 72, 66
5, 93600, Note_on_c, 0, 72, 0
5, 93600, Note_on_c, 0, 75, 63
5, 94080, Note_on_c, 0, 75, 0
5, 94080, Note_on_c, 0, 74, 60
5, 94560, Note_on_c, 0, 74, 0
5, 94560, Note_on_c, 0, 77, 56
5, 95040, Note_on_c, 0, 77, 0
5, 95040, Note_on_c, 0, 75, 54
5, 95520, Note_on_c, 0, 75, 0
5, 95520, Note_on_c, 0, 72, 58
5, 96000, Note_on_c, 0, 72, 0
5, 96000, Note_on_c, 0, 74, 62
5, 96240, Note_on_c, 0, 67, 61
5, 96456, Note_on_c, 0, 74, 0
5, 96480, Note_on_c, 0, 67, 0
5, 96480, Note_on_c, 0, 66, 60
5, 96720, Note_on_c, 0, 66, 0
5, 96720, Note_on_c, 0, 67, 59
5, 96960, Note_on_c, 0, 67, 0
5, 96960, Note_on_c, 0, 48, 58
5, 97440, Note_on_c, 0, 48, 0
5, 97440, Note_on_c, 0, 43, 55
5, 97920, Note_on_c, 0, 43, 0
5, 97920, Note_on_c, 0, 50, 53
5, 98400, Note_on_c, 0, 50, 0
5, 98400, Note_on_c, 0, 43, 54
5, 98880, Note_on_c, 0, 43, 0
5, 98880, Note_on_c, 0, 51, 56
5, 99360, Note_on_c, 0, 51, 0
5, 99360, Note_on_c, 0, 48, 58
5, 99840, Note_on_c, 0, 48, 0
5, 99840, Note_on_c, 0, 43, 59
5, 100800, Note_on_c, 0, 43, 0
5, 100800, Note_on_c, 0, 48, 63
5, 101280, Note_on_c, 0, 48, 0
5, 101280, Note_on_c, 0, 60, 66
5, 101760, Note_on_c, 0, 60, 0
5, 101760, Note_on_c, 0, 59, 69
5, 102000, Note_on_c, 0, 55, 66
5, 102240, Note_on_c, 0, 55, 0
5, 102240, Note_on_c, 0, 59, 0
5, 102240, Note_on_c, 0, 53, 64
5, 102480, Note_on_c, 0, 55, 62
5, 102720, Note_on_c, 0, 55, 0
5, 102720, Note_on_c, 0, 53, 0
5, 102720, Note_on_c, 0, 52, 61
5, 103200, Note_on_c, 0, 52, 0
5, 103200, Note_on_c, 0, 48, 64
5, 103680, Note_on_c, 0, 48, 0
5, 103680, Note_on_c, 0, 47, 68
5, 104160, Note_on_c, 0, 47, 0
5, 104160, Note_on_c, 0, 43, 65
5, 104640, Note_on_c, 0, 43, 0
5, 104640, Note_on_c, 0, 48, 63
5, 105120, Note_on_c, 0, 48, 0
5, 105120, Note_on_c, 0, 46, 68
5, 105600, Note_on_c, 0, 46, 0
5, 105600, Note_on_c, 0, 45, 76
5, 106080, Note_on_c, 0, 45, 0
5, 106080, Note_on_c, 0, 41, 72
5, 106560, Note_on_c, 0, 41, 0
5, 106560, Note_on_c, 0, 43, 68
5, 107040, Note_on_c, 0, 43, 0
5, 107040, Note_on_c, 0, 43, 65
5, 107520, Note_on_c, 0, 43, 0
5, 107520, Note_on_c, 0, 48, 61
5, 108240, Note_on_c, 0, 48, 0
5, 108240, Control_c, 0, 64, 0
5, 108960, Note_on_c, 0, 48, 111
5, 108960, Note_on_c, 0, 36, 111
5, 109200, Note_on_c, 0, 36, 0
5, 109200, Note_on_c, 0, 48, 0
5, 109920, Note_on_c, 0, 43, 116
5, 109920, Note_on_c, 0, 31, 116
5, 110160, Note_on_c, 0, 31, 0
5, 110160, Note_on_c, 0, 43, 0
5, 110400, Note_on_c, 0, 60, 59
5, 110760, Note_on_c, 0, 60, 0
5, 110760, Note_on_c, 0, 62, 62
5, 110880, Note_on_c, 0, 62, 0
5, 110880, Note_on_c, 0, 64, 63
5, 111000, Note_on_c, 0, 64, 0
5, 111120, Note_on_c, 0, 64, 65
5, 111240, Note_on_c, 0, 64, 0
5, 111360, Note_on_c, 0, 62, 66
5, 111840, Note_on_c, 0, 62, 0
5, 111840, Note_on_c, 0, 55, 59
5, 112032, Note_on_c, 0, 55, 0
5, 112800, Note_on_c, 0, 48, 106
5, 112800, Note_on_c, 0, 36, 106
5, 113040, Note_on_c, 0, 36, 0
5, 113040, Note_on_c, 0, 48, 0
5, 113760, Note_on_c, 0, 45, 110
5, 113760, Note_on_c, 0, 33, 110
5, 114000, Note_on_c, 0, 33, 0
5, 114000, Note_on_c, 0, 45, 0
5, 114720, Note_on_c, 0, 47, 60
5, 114840, Note_on_c, 0, 47, 0
5, 114960, Note_on_c, 0, 55, 61
5, 115080, Note_on_c, 0, 55, 0
5, 115200, Note_on_c, 0, 48, 62
5, 115680, Note_on_c, 0, 48, 0
5, 116640, Note_on_c, 0, 45, 110
5, 116640, Note_on_c, 0, 33, 110
5, 116880, Note_on_c, 0, 33, 0
5, 116880, Note_on_c, 0, 45, 0
5, 117600, Note_on_c, 0, 41, 115
5, 117600, Note_on_c, 0, 29, 115
5, 117840, Note_on_c, 0, 29, 0
5, 117840, Note_on_c, 0, 41, 0
5, 118080, Note_on_c, 0, 50, 60
5, 118440, Note_on_c, 0, 50, 0
5, 118440, Note_on_c, 0, 52, 63
5, 118560, Note_on_c, 0, 52, 0
5, 118560, Note_on_c, 0, 53, 64
5, 118680, Note_on_c, 0, 53, 0
5, 118800, Note_on_c, 0, 53, 66
5, 118920, Note_on_c, 0, 53, 0
5, 119040, Note_on_c, 0, 53, 67
5, 119520, Note_on_c, 0, 53, 0
5, 119520, Note_on_c, 0, 52, 58
5, 119712, Note_on_c, 0, 52, 0
5, 120960, Note_on_c, 0, 74, 74
5, 121920, Note_on_c, 0, 74, 0
5, 121920, Note_on_c, 0, 72, 78
5, 122280, Note_on_c, 0, 72, 0
5, 122880, Note_on_c, 0, 62, 65
5, 123840, Note_on_c, 0, 62, 0
5, 123840, Note_on_c, 0, 60, 68
5, 124200, Note_on_c, 0, 60, 0
5, 124800, Note_on_c, 0, 43, 64
5, 125760, Note_on_c, 0, 43, 0
5, 125760, Note_on_c, 0, 43, 62
5, 126720, Note_on_c, 0, 43, 0
5, 126720, Note_on_c, 0, 43, 60
5, 127200, Note_on_c, 0, 43, 0
5, 127320, Note_on_c, 0, 55, 53
5, 127440, Note_on_c, 0, 55, 0
5, 127440, Note_on_c, 0, 57, 52
5, 127560, Note_on_c, 0, 57, 0
5, 127560, Note_on_c, 0, 59, 51
5, 127680, Note_on_c, 0, 59, 0
5, 127680, Note_on_c, 0, 60, 50
5, 127920, Note_on_c, 0, 60, 0
5, 128160, Note_on_c, 0, 36, 111
5, 128160, Note_on_c, 0, 48, 111
5, 128400, Note_on_c, 0, 48, 0
5, 128400, Note_on_c, 0, 36, 0
5, 129120, Note_on_c, 0, 31, 117
5, 129120, Note_on_c, 0, 43, 117
5, 129360, Note_on_c, 0, 43, 0
5, 129360, Note_on_c, 0, 31, 0
5, 129600, Note_on_c, 0, 60, 63
5, 129960, Note_on_c, 0, 60, 0
5, 129960, Note_on_c, 0, 62, 66
5, 130080, Note_on_c, 0, 62, 0
5, 130080, Note_on_c, 0, 64, 66
5, 130200, Note_on_c, 0, 64, 0
5, 130320, Note_on_c, 0, 64, 68
5, 130440, Note_on_c, 0, 64, 0
5, 130560, Note_on_c, 0, 62, 69
5, 131040, Note_on_c, 0, 62, 0
5, 131040, Note_on_c, 0, 55, 62
5, 131232, Note_on_c, 0, 55, 0
5, 132000, Note_on_c, 0, 36, 105
5, 132000, Note_on_c, 0, 48, 105
5, 132240, Note_on_c, 0, 48, 0
5, 132240, Note_on_c, 0, 36, 0
5, 132960, Note_on_c, 0, 41, 110
5, 132960, Note_on_c, 0, 29, 110
5, 133200, Note_on_c, 0, 29, 0
5, 133200, Note_on_c, 0, 41, 0
5, 133920, Note_on_c, 0, 43, 61
5, 134040, Note_on_c, 0, 43, 0
5, 134160, Note_on_c, 0, 43, 63
5, 134280, Note_on_c, 0, 43, 0
5, 134400, Note_on_c, 0, 36, 65
5, 134880, Note_on_c, 0, 36, 0
5, 134880, Note_on_c, 0, 48, 57
5, 135072, Note_on_c, 0, 48, 0
5, 135360, Control_c, 0, 64, 0
5, 135360, Note_on_c, 0, 60, 57
5, 135480, Note_on_c, 0, 60, 0
5, 135480, Note_on_c, 0, 62, 58
5, 135600, Note_on_c, 0, 62, 0
5, 135600, Note_on_c, 0, 63, 58
5, 135720, Note_on_c, 0, 63, 0
5, 135720, Note_on_c, 0, 64, 59
5, 135840, Note_on_c, 0, 64, 0
5, 135840, Note_on_c, 0, 65, 59
5, 135960, Note_on_c, 0, 65, 0
5, 135960, Note_on_c, 0, 66, 60
5, 136080, Note_on_c, 0, 66, 0
5, 136080, Note_on_c, 0, 67, 60
5, 136200, Note_on_c, 0, 67, 0
5, 136200, Note_on_c, 0, 68, 61
5, 136320, Note_on_c, 0, 68, 0
5, 136320, Note_on_c, 0, 69, 62
5, 136398, Note_on_c, 0, 69, 0
5, 136440, Note_on_c, 0, 64, 62
5, 136560, Note_on_c, 0, 64, 0
5, 136560, Note_on_c, 0, 65, 61
5, 136680, Note_on_c, 0, 65, 0
5, 136680, Note_on_c, 0, 66, 60
5, 136800, Note_on_c, 0, 66, 0
5, 136800, Note_on_c, 0, 67, 60
5, 136920, Note_on_c, 0, 67, 0
5, 136920, Note_on_c, 0, 65, 59
5, 137040, Note_on_c, 0, 65, 0
5, 137040, Note_on_c, 0, 64, 59
5, 137160, Note_on_c, 0, 64, 0
5, 137160, Note_on_c, 0, 62, 58
5, 137280, Note_on_c, 0, 62, 0
5, 137280, Note_on_c, 0, 60, 57
5, 137358, Note_on_c, 0, 60, 0
5, 137400, Note_on_c, 0, 72, 59
5, 137520, Note_on_c, 0, 72, 0
5, 137520, Note_on_c, 0, 71, 60
5, 137640, Note_on_c, 0, 71, 0
5, 137640, Note_on_c, 0, 72, 61
5, 137760, Note_on_c, 0, 72, 0
5, 137760, Note_on_c, 0, 69, 62
5, 137880, Note_on_c, 0, 69, 0
5, 137880, Note_on_c, 0, 72, 63
5, 138000, Note_on_c, 0, 72, 0
5, 138000, Note_on_c, 0, 68, 65
5, 138120, Note_on_c, 0, 68, 0
5, 138120, Note_on_c, 0, 72, 66
5, 138240, Note_on_c, 0, 72, 0
5, 138240, Note_on_c, 0, 67, 68
5, 138318, Note_on_c, 0, 67, 0
5, 138360, Note_on_c, 0, 72, 67
5, 138480, Note_on_c, 0, 72, 0
5, 138480, Note_on_c, 0, 71, 66
5, 138600, Note_on_c, 0, 71, 0
5, 138600, Note_on_c, 0, 74, 65
5, 138720, Note_on_c, 0, 74, 0
5, 138720, Note_on_c, 0, 72, 64
5, 138840, Note_on_c, 0, 72, 0
5, 138840, Note_on_c, 0, 71, 63
5, 138960, Note_on_c, 0, 71, 0
5, 138960, Note_on_c, 0, 69, 61
5, 139080, Note_on_c, 0, 69, 0
5, 139080, Note_on_c, 0, 67, 61
5, 139200, Note_on_c, 0, 67, 0
5, 139200, Note_on_c, 0, 48, 67
5, 140160, Note_on_c, 0, 48, 0
5, 140160, Note_on_c, 0, 41, 77
5, 141120, Note_on_c, 0, 41, 0
5, 141120, Note_on_c, 0, 43, 66
5, 142080, Note_on_c, 0, 43, 0
5, 142080, Note_on_c, 0, 36, 73
5, 143040, Note_on_c, 0, 36, 0
5, 143040, Note_on_c, 0, 40, 73
5, 144000, Note_on_c, 0, 40, 0
5, 144000, Note_on_c, 0, 41, 87
5, 144960, Note_on_c, 0, 41, 0
5, 144960, Note_on_c, 0, 43, 75
5, 145440, Note_on_c, 0, 43, 0
5, 145440, Note_on_c, 0, 43, 71
5, 145920, Note_on_c, 0, 43, 0
5, 145920, Note_on_c, 0, 36, 67
5, 146400, Note_on_c, 0, 36, 0
5, 146400, Note_on_c, 0, 48, 58
5, 146640, Note_on_c, 0, 48, 0
5, 148800, Note_on_c, 0, 36, 68
5, 149280, Note_on_c, 0, 36, 0
5, 149280, Note_on_c, 0, 43, 70
5, 149760, Note_on_c, 0, 43, 0
5, 149760, Note_on_c, 0, 35, 72
5, 150000, Note_on_c, 0, 35, 0
5, 150240, Note_on_c, 0, 43, 64
5, 150480, Note_on_c, 0, 43, 0
5, 150720, Note_on_c, 0, 36, 67
5, 151680, Note_on_c, 0, 36, 0
5, 151680, Note_on_c, 0, 31, 76
5, 152640, Note_on_c, 0, 31, 0
5, 152640, Note_on_c, 0, 36, 95
5, 152880, Note_on_c, 0, 36, 0
5, 153120, Note_on_c, 0, 36, 97
5, 153360, Note_on_c, 0, 36, 0
5, 153600, Note_on_c, 0, 31, 100
5, 154560, Note_on_c, 0, 31, 0
5, 154560, Note_on_c, 0, 60, 59
5, 154680, Note_on_c, 0, 60, 0
5, 154680, Note_on_c, 0, 62, 60
5, 154800, Note_on_c, 0, 62, 0
5, 154800, Note_on_c, 0, 63, 61
5, 154920, Note_on_c, 0, 63, 0
5, 154920, Note_on_c, 0, 64, 62
5, 155040, Note_on_c, 0, 64, 0
5, 155040, Note_on_c, 0, 65, 63
5, 155160, Note_on_c, 0, 65, 0
5, 155160, Note_on_c, 0, 66, 64
5, 155280, Note_on_c, 0, 66, 0
5, 155280, Note_on_c, 0, 67, 65
5, 155400, Note_on_c, 0, 67, 0
5, 155400, Note_on_c, 0, 68, 65
5, 155520, Note_on_c, 0, 68, 0
5, 155520, Note_on_c, 0, 69, 68
5, 155598, Note_on_c, 0, 69, 0
5, 155640, Note_on_c, 0, 64, 67
5, 155760, Note_on_c, 0, 64, 0
5, 155760, Note_on_c, 0, 65, 66
5, 155880, Note_on_c, 0, 65, 0
5, 155880, Note_on_c, 0, 66, 65
5, 156000, Note_on_c, 0, 66, 0
5, 156000, Note_on_c, 0, 67, 64
5, 156120, Note_on_c, 0, 67, 0
5, 156120, Note_on_c, 0, 65, 63
5, 156240, Note_on_c, 0, 65, 0
5, 156240, Note_on_c, 0, 64, 61
5, 156360, Note_on_c, 0, 64, 0
5, 156360, Note_on_c, 0, 62, 60
5, 156480, Note_on_c, 0, 62, 0
5, 156480, Note_on_c, 0, 60, 61
5, 156558, Note_on_c, 0, 60, 0
5, 156600, Note_on_c, 0, 72, 62
5, 156720, Note_on_c, 0, 72, 0
5, 156720, Note_on_c, 0, 71, 63
5, 156840, Note_on_c, 0, 71, 0
5, 156840, Note_on_c, 0, 72, 64
5, 156960, Note_on_c, 0, 72, 0
5, 156960, Note_on_c, 0, 69, 65
5, 157080, Note_on_c, 0, 69, 0
5, 157080, Note_on_c, 0, 72, 66
5, 157200, Note_on_c, 0, 72, 0
5, 157200, Note_on_c, 0, 68, 66
5, 157320, Note_on_c, 0, 68, 0
5, 157320, Note_on_c, 0, 72, 67
5, 157440, Note_on_c, 0, 72, 0
5, 157440, Note_on_c, 0, 67, 70
5, 157518, Note_on_c, 0, 67, 0
5, 157560, Note_on_c, 0, 72, 69
5, 157680, Note_on_c, 0, 72, 0
5, 157680, Note_on_c, 0, 71, 69
5, 157800, Note_on_c, 0, 71, 0
5, 157800, Note_on_c, 0, 74, 68
5, 157920, Note_on_c, 0, 74, 0
5, 157920, Note_on_c, 0, 72, 67
5, 158040, Note_on_c, 0, 72, 0
5, 158040, Note_on_c, 0, 71, 67
5, 158160, Note_on_c, 0, 71, 0
5, 158160, Note_on_c, 0, 69, 66
5, 158280, Note_on_c, 0, 69, 0
5, 158280, Note_on_c, 0, 67, 65
5, 158400, Note_on_c, 0, 67, 0
5, 158400, Note_on_c, 0, 40, 71
5, 158880, Note_on_c, 0, 40, 0
5, 158880, Note_on_c, 0, 52, 75
5, 159360, Note_on_c, 0, 52, 0
5, 159360, Note_on_c, 0, 41, 83
5, 160320, Note_on_c, 0, 41, 0
5, 160320, Note_on_c, 0, 43, 75
5, 160800, Note_on_c, 0, 43, 0
5, 160800, Note_on_c, 0, 43, 76
5, 161280, Note_on_c, 0, 43, 0
5, 161280, Note_on_c, 0, 36, 66
5, 162005, Note_on_c, 0, 36, 0
5, 162240, Control_c, 0, 64, 0
5, 162240, Note_on_c, 0, 36, 103
5, 162396, Note_on_c, 0, 36, 0
5, 162720, Note_on_c, 0, 40, 107
5, 162876, Note_on_c, 0, 40, 0
5, 163200, Note_on_c, 0, 43, 110
5, 163356, Note_on_c, 0, 43, 0
5, 163680, Note_on_c, 0, 41, 109
5, 163836, Note_on_c, 0, 41, 0
5, 164160, Note_on_c, 0, 40, 107
5, 164316, Note_on_c, 0, 40, 0
5, 164640, Note_on_c, 0, 36, 111
5, 164796, Note_on_c, 0, 36, 0
5, 165120, Note_on_c, 0, 43, 116
5, 165276, Note_on_c, 0, 43, 0
5, 166080, Note_on_c, 0, 48, 109
5, 166236, Note_on_c, 0, 48, 0
5, 166560, Note_on_c, 0, 46, 113
5, 166716, Note_on_c, 0, 46, 0
5, 167040, Note_on_c, 0, 45, 117
5, 167196, Note_on_c, 0, 45, 0
5, 167520, Note_on_c, 0, 45, 112
5, 167676, Note_on_c, 0, 45, 0
5, 168000, Note_on_c, 0, 47, 107
5, 168156, Note_on_c, 0, 47, 0
5, 168480, Note_on_c, 0, 43, 109
5, 168636, Note_on_c, 0, 43, 0
5, 168960, Note_on_c, 0, 36, 112
5, 169116, Note_on_c, 0, 36, 0
5, 169920, Note_on_c, 0, 40, 118
5, 170076, Note_on_c, 0, 40, 0
5, 170400, Note_on_c, 0, 52, 123
5, 170556, Note_on_c, 0, 52, 0
5, 170880, Note_on_c, 0, 41, 127
5, 171036, Note_on_c, 0, 41, 0
5, 171360, Note_on_c, 0, 53, 123
5, 171516, Note_on_c, 0, 53, 0
5, 171840, Note_on_c, 0, 43, 118
5, 171996, Note_on_c, 0, 43, 0
5, 172320, Note_on_c, 0, 55, 113
5, 172476, Note_on_c, 0, 55, 0
5, 172800, Note_on_c, 0, 48, 108
5, 172956, Note_on_c, 0, 48, 0
5, 173280, Note_on_c, 0, 36, 103
5, 173436, Note_on_c, 0, 36, 0
5, 174000, Note_on_c, 0, 55, 70
5, 174240, Note_on_c, 0, 55, 0
5, 174960, Note_on_c, 0, 42, 74
5, 175200, Note_on_c, 0, 42, 0
5, 175200, Note_on_c, 0, 43, 71
5, 175440, Note_on_c, 0, 43, 0
5, 175440, Note_on_c, 0, 54, 69
5, 175680, Note_on_c, 0, 54, 0
5, 175680, Note_on_c, 0, 55, 65
5, 176640, Note_on_c, 0, 55, 0
5, 176880, Note_on_c, 0, 42, 70
5, 177120, Note_on_c, 0, 42, 0
5, 177120, Note_on_c, 0, 43, 67
5, 177360, Note_on_c, 0, 43, 0
5, 177360, Note_on_c, 0, 54, 64
5, 177600, Note_on_c, 0, 54, 0
5, 177600, Note_on_c, 0, 55, 63
5, 177840, Note_on_c, 0, 55, 0
5, 178800, Note_on_c, 0, 42, 69
5, 179040, Note_on_c, 0, 42, 0
5, 179040, Note_on_c, 0, 43, 67
5, 179280, Note_on_c, 0, 43, 0
5, 179280, Note_on_c, 0, 41, 66
5, 179520, Note_on_c, 0, 41, 0
5, 179520, Note_on_c, 0, 39, 65
5, 179760, Note_on_c, 0, 39, 0
5, 179760, Note_on_c, 0, 38, 63
5, 180000, Note_on_c, 0, 38, 0
5, 180000, Note_on_c, 0, 36, 62
5, 180240, Note_on_c, 0, 36, 0
5, 180240, Note_on_c, 0, 39, 60
5, 180480, Note_on_c, 0, 39, 0
5, 180480, Note_on_c, 0, 43, 59
5, 180720, Note_on_c, 0, 43, 0
5, 180720, Note_on_c, 0, 41, 62
5, 180960, Note_on_c, 0, 41, 0
5, 180960, Note_on_c, 0, 40, 58
5, 181200, Note_on_c, 0, 40, 0
5, 181200, Note_on_c, 0, 38, 54
5, 181440, Note_on_c, 0, 38, 0
5, 181440, Note_on_c, 0, 36, 105
5, 181596, Note_on_c, 0, 36, 0
5, 181920, Note_on_c, 0, 40, 108
5, 182076, Note_on_c, 0, 40, 0
5, 182400, Note_on_c, 0, 43, 112
5, 182556, Note_on_c, 0, 43, 0
5, 182880, Note_on_c, 0, 41, 108
5, 183036, Note_on_c, 0, 41, 0
5, 183360, Note_on_c, 0, 40, 105
5, 183516, Note_on_c, 0, 40, 0
5, 183840, Note_on_c, 0, 36, 110
5, 183996, Note_on_c, 0, 36, 0
5, 184320, Note_on_c, 0, 43, 116
5, 184476, Note_on_c, 0, 43, 0
5, 185280, Note_on_c, 0, 40, 107
5, 185436, Note_on_c, 0, 40, 0
5, 185760, Note_on_c, 0, 52, 112
5, 185916, Note_on_c, 0, 52, 0
5, 186240, Note_on_c, 0, 41, 117
5, 186396, Note_on_c, 0, 41, 0
5, 186720, Note_on_c, 0, 41, 110
5, 186876, Note_on_c, 0, 41, 0
5, 187200, Note_on_c, 0, 43, 108
5, 187356, Note_on_c, 0, 43, 0
5, 187680, Note_on_c, 0, 43, 114
5, 187836, Note_on_c, 0, 43, 0
5, 188160, Note_on_c, 0, 36, 120
5, 188316, Note_on_c, 0, 36, 0
5, 189120, Control_c, 0, 64, 0
5, 189120, Note_on_c, 0, 48, 59
5, 189600, Note_on_c, 0, 48, 0
5, 189600, Note_on_c, 0, 55, 60
5, 189756, Note_on_c, 0, 55, 0
5, 189840, Note_on_c, 0, 55, 61
5, 189996, Note_on_c, 0, 55, 0
5, 190080, Note_on_c, 0, 43, 62
5, 190560, Note_on_c, 0, 43, 0
5, 190560, Note_on_c, 0, 55, 59
5, 190716, Note_on_c, 0, 55, 0
5, 190800, Note_on_c, 0, 55, 57
5, 190956, Note_on_c, 0, 55, 0
5, 191040, Note_on_c, 0, 48, 59
5, 191520, Note_on_c, 0, 48, 0
5, 191520, Note_on_c, 0, 36, 63
5, 192000, Note_on_c, 0, 36, 0
5, 192000, Note_on_c, 0, 41, 70
5, 192480, Note_on_c, 0, 41, 0
5, 192960, Note_on_c, 0, 48, 63
5, 193440, Note_on_c, 0, 48, 0
5, 193440, Note_on_c, 0, 45, 67
5, 193920, Note_on_c, 0, 45, 0
5, 193920, Note_on_c, 0, 50, 70
5, 194400, Note_on_c, 0, 50, 0
5, 194400, Note_on_c, 0, 38, 67
5, 194880, Note_on_c, 0, 38, 0
5, 194880, Note_on_c, 0, 43, 65
5, 195120, Note_on_c, 0, 43, 0
5, 195120, Note_on_c, 0, 43, 66
5, 195360, Note_on_c, 0, 43, 0
5, 195600, Note_on_c, 0, 43, 68
5, 195840, Note_on_c, 0, 43, 0
5, 195840, Note_on_c, 0, 48, 70
5, 196080, Note_on_c, 0, 48, 0
5, 196080, Note_on_c, 0, 48, 68
5, 196320, Note_on_c, 0, 48, 0
5, 196560, Note_on_c, 0, 48, 64
5, 196800, Note_on_c, 0, 48, 0
5, 196800, Note_on_c, 0, 40, 66
5, 197040, Note_on_c, 0, 40, 0
5, 197040, Note_on_c, 0, 40, 69
5, 197280, Note_on_c, 0, 40, 0
5, 197520, Note_on_c, 0, 52, 76
5, 197760, Note_on_c, 0, 52, 0
5, 197760, Note_on_c, 0, 41, 79
5, 198000, Note_on_c, 0, 41, 0
5, 198000, Note_on_c, 0, 41, 76
5, 198240, Note_on_c, 0, 41, 0
5, 198480, Note_on_c, 0, 41, 71
5, 198720, Note_on_c, 0, 41, 0
5, 198720, Note_on_c, 0, 43, 69
5, 198960, Note_on_c, 0, 43, 0
5, 198960, Note_on_c, 0, 43, 67
5, 199200, Note_on_c, 0, 43, 0
5, 199200, Note_on_c, 0, 31, 65
5, 199440, Note_on_c, 0, 31, 0
5, 199440, Note_on_c, 0, 43, 63
5, 199680, Note_on_c, 0, 43, 0
5, 199920, Note_on_c, 0, 36, 58
5, 200160, Note_on_c, 0, 36, 0
5, 200160, Note_on_c, 0, 48, 56
5, 200400, Note_on_c, 0, 48, 0
5, 204960, Note_on_c, 0, 48, 65
5, 205200, Note_on_c, 0, 48, 0
5, 205440, Note_on_c, 0, 43, 68
5, 205680, Note_on_c, 0, 43, 0
5, 206880, Note_on_c, 0, 48, 63
5, 207120, Note_on_c, 0, 48, 0
5, 207360, Note_on_c, 0, 43, 57
5, 208800, Note_on_c, 0, 43, 0
5, 214080, Note_on_c, 0, 48, 59
5, 214560, Note_on_c, 0, 48, 0
5, 214560, Note_on_c, 0, 52, 61
5, 215040, Note_on_c, 0, 52, 0
5, 215040, Note_on_c, 0, 55, 64
5, 215520, Note_on_c, 0, 55, 0
5, 215520, Note_on_c, 0, 43, 62
5, 216000, Note_on_c, 0, 43, 0
5, 216000, Note_on_c, 0, 48, 61
5, 216480, Note_on_c, 0, 48, 0
5, 216480, Note_on_c, 0, 36, 65
5, 216960, Note_on_c, 0, 36, 0
5, 216960, Note_on_c, 0, 41, 73
5, 217440, Note_on_c, 0, 41, 0
5, 217920, Note_on_c, 0, 48, 65
5, 218160, Note_on_c, 0, 48, 0
5, 218160, Note_on_c, 0, 48, 68
5, 218400, Note_on_c, 0, 48, 0
5, 218880, Note_on_c, 0, 41, 76
5, 219120, Note_on_c, 0, 41, 0
5, 219120, Note_on_c, 0, 41, 74
5, 219360, Note_on_c, 0, 41, 0
5, 219840, Note_on_c, 0, 43, 68
5, 220080, Note_on_c, 0, 43, 0
5, 220080, Note_on_c, 0, 43, 66
5, 220320, Note_on_c, 0, 43, 0
5, 220320, Note_on_c, 0, 31, 64
5, 220560, Note_on_c, 0, 31, 0
5, 220560, Note_on_c, 0, 43, 62
5, 220800, Note_on_c, 0, 43, 0
5, 221040, Note_on_c, 0, 36, 58
5, 221280, Note_on_c, 0, 36, 0
5, 221280, Note_on_c, 0, 48, 56
5, 221436, Note_on_c, 0, 48, 0
5, 221760, Control_c, 0, 64, 0
5, 221760, Note_on_c, 0, 48, 66
5, 222720, Note_on_c, 0, 48, 0
5, 222720, Note_on_c, 0, 43, 67
5, 223680, Note_on_c, 0, 43, 0
5, 223680, Note_on_c, 0, 51, 62
5, 223680, Note_on_c, 0, 39, 62
5, 224160, Note_on_c, 0, 39, 0
5, 224160, Note_on_c, 0, 51, 0
5, 224160, Note_on_c, 0, 48, 66
5, 224160, Note_on_c, 0, 36, 66
5, 224640, Note_on_c, 0, 36, 0
5, 224640, Note_on_c, 0, 48, 0
5, 224640, Note_on_c, 0, 43, 71
5, 224640, Note_on_c, 0, 31, 71
5, 225600, Note_on_c, 0, 31, 0
5, 225600, Note_on_c, 0, 43, 0
5, 225600, Note_on_c, 0, 36, 64
5, 226080, Note_on_c, 0, 48, 69
5, 226560, Note_on_c, 0, 48, 0
5, 226560, Note_on_c, 0, 36, 0
5, 226560, Note_on_c, 0, 36, 75
5, 227040, Note_on_c, 0, 48, 71
5, 227520, Note_on_c, 0, 48, 0
5, 227520, Note_on_c, 0, 36, 0
5, 227520, Note_on_c, 0, 36, 72
5, 228000, Note_on_c, 0, 48, 70
5, 228480, Note_on_c, 0, 48, 0
5, 228480, Note_on_c, 0, 36, 0
5, 228480, Note_on_c, 0, 36, 73
5, 228960, Note_on_c, 0, 48, 72
5, 229440, Note_on_c, 0, 48, 0
5, 229440, Note_on_c, 0, 36, 0
5, 229440, Note_on_c, 0, 50, 74
5, 229440, Note_on_c, 0, 38, 74
5, 229920, Note_on_c, 0, 38, 0
5, 229920, Note_on_c, 0, 50, 0
5, 229920, Note_on_c, 0, 51, 81
5, 229920, Note_on_c, 0, 39, 81
5, 230400, Note_on_c, 0, 39, 0
5, 230400, Note_on_c, 0, 51, 0
5, 230400, Note_on_c, 0, 41, 85
5, 231360, Note_on_c, 0, 41, 0
5, 231360, Note_on_c, 0, 44, 82
5, 231840, Note_on_c, 0, 44, 0
5, 231840, Note_on_c, 0, 43, 80
5, 232320, Note_on_c, 0, 43, 0
5, 232320, Note_on_c, 0, 36, 77
5, 232800, Note_on_c, 0, 36, 0
5, 232800, Note_on_c, 0, 48, 71
5, 233040, Note_on_c, 0, 48, 0
5, 233280, Note_on_c, 0, 45, 60
5, 233280, Note_on_c, 0, 33, 60
5, 234240, Note_on_c, 0, 33, 0
5, 234240, Note_on_c, 0, 45, 0
5, 234240, Note_on_c, 0, 46, 67
5, 234240, Note_on_c, 0, 34, 67
5, 234720, Note_on_c, 0, 34, 0
5, 234720, Note_on_c, 0, 46, 0
5, 234720, Note_on_c, 0, 47, 70
5, 234720, Note_on_c, 0, 35, 70
5, 235200, Note_on_c, 0, 35, 0
5, 235200, Note_on_c, 0, 47, 0
5, 235200, Note_on_c, 0, 36, 74
5, 235200, Note_on_c, 0, 48, 74
5, 235680, Note_on_c, 0, 48, 0
5, 235680, Note_on_c, 0, 36, 0
5, 235680, Note_on_c, 0, 48, 77
5, 235680, Note_on_c, 0, 36, 77
5, 236160, Note_on_c, 0, 36, 0
5, 236160, Note_on_c, 0, 48, 0
5, 236160, Note_on_c, 0, 55, 88
5, 236160, Note_on_c, 0, 43, 88
5, 237120, Note_on_c, 0, 43, 0
5, 237120, Note_on_c, 0, 55, 0
5, 237120, Note_on_c, 0, 48, 50
5, 237120, Note_on_c, 0, 36, 50
5, 237600, Note_on_c, 0, 36, 0
5, 237600, Note_on_c, 0, 48, 0
5, 237600, Note_on_c, 0, 45, 52
5, 237600, Note_on_c, 0, 33, 52
5, 238080, Note_on_c, 0, 33, 0
5, 238080, Note_on_c, 0, 45, 0
5, 238080, Note_on_c, 0, 44, 54
5, 238080, Note_on_c, 0, 32, 54
5, 238560, Note_on_c, 0, 32, 0
5, 238560, Note_on_c, 0, 44, 0
5, 238560, Note_on_c, 0, 43, 59
5, 238560, Note_on_c, 0, 31, 59
5, 239520, Note_on_c, 0, 31, 0
5, 239520, Note_on_c, 0, 43, 0
5, 239520, Note_on_c, 0, 43, 59
5, 239520, Note_on_c, 0, 31, 59
5, 240000, Note_on_c, 0, 31, 0
5, 240000, Note_on_c, 0, 43, 0
5, 240000, Note_on_c, 0, 42, 73
5, 240000, Note_on_c, 0, 30, 73
5, 240960, Note_on_c, 0, 30, 0
5, 240960, Note_on_c, 0, 42, 0
5, 240960, Note_on_c, 0, 43, 70
5, 240960, Note_on_c, 0, 31, 70
5, 241440, Note_on_c, 0, 31, 0
5, 241440, Note_on_c, 0, 43, 0
5, 241440, Note_on_c, 0, 44, 72
5, 241440, Note_on_c, 0, 32, 72
5, 241920, Note_on_c, 0, 32, 0
5, 241920, Note_on_c, 0, 44, 0
5, 241920, Note_on_c, 0, 41, 74
5, 241920, Note_on_c, 0, 29, 74
5, 242400, Note_on_c, 0, 29, 0
5, 242400, Note_on_c, 0, 41, 0
5, 242400, Note_on_c, 0, 31, 76
5, 242400, Note_on_c, 0, 43, 76
5, 242880, Note_on_c, 0, 43, 0
5, 242880, Note_on_c, 0, 31, 0
5, 242880, Note_on_c, 0, 48, 78
5, 242880, Note_on_c, 0, 36, 78
5, 243360, Note_on_c, 0, 36, 0
5, 243360, Note_on_c, 0, 48, 0
5, 243360, Note_on_c, 0, 51, 81
5, 243360, Note_on_c, 0, 39, 81
5, 243840, Note_on_c, 0, 39, 0
5, 243840, Note_on_c, 0, 51, 0
5, 243840, Note_on_c, 0, 55, 100
5, 243840, Note_on_c, 0, 43, 100
5, 244800, Note_on_c, 0, 43, 0
5, 244800, Note_on_c, 0, 55, 0
5, 244800, Note_on_c, 0, 50, 87
5, 244800, Note_on_c, 0, 38, 87
5, 245280, Note_on_c, 0, 38, 0
5, 245280, Note_on_c, 0, 50, 0
5, 245280, Note_on_c, 0, 51, 95
5, 245280, Note_on_c, 0, 39, 95
5, 245760, Note_on_c, 0, 39, 0
5, 245760, Note_on_c, 0, 51, 0
5, 245760, Note_on_c, 0, 53, 108
5, 245760, Note_on_c, 0, 41, 108
5, 246720, Note_on_c, 0, 41, 0
5, 246720, Note_on_c, 0, 53, 0
5, 246720, Note_on_c, 0, 44, 66
5, 247200, Note_on_c, 0, 44, 0
5, 247200, Note_on_c, 0, 43, 59
5, 247680, Note_on_c, 0, 43, 0
5, 247680, Note_on_c, 0, 36, 52
5, 248160, Note_on_c, 0, 36, 0
5, 248160, Note_on_c, 0, 48, 45
5, 248400, Note_on_c, 0, 48, 0
5, 249120, Note_on_c, 0, 44, 71
5, 249600, Note_on_c, 0, 44, 0
5, 249600, Note_on_c, 0, 49, 77
5, 250080, Note_on_c, 0, 49, 0
5, 250080, Note_on_c, 0, 49, 79
5, 250560, Note_on_c, 0, 49, 0
5, 250560, Note_on_c, 0, 54, 79
5, 251040, Note_on_c, 0, 54, 0
5, 251040, Note_on_c, 0, 54, 77
5, 251520, Note_on_c, 0, 54, 0
5, 251520, Note_on_c, 0, 53, 76
5, 252000, Note_on_c, 0, 53, 0
5, 252000, Note_on_c, 0, 49, 79
5, 252480, Note_on_c, 0, 49, 0
5, 252480, Note_on_c, 0, 48, 83
5, 252960, Note_on_c, 0, 48, 0
5, 252960, Note_on_c, 0, 48, 81
5, 253440, Note_on_c, 0, 48, 0
5, 253440, Note_on_c, 0, 49, 76
5, 253920, Note_on_c, 0, 49, 0
5, 253920, Note_on_c, 0, 49, 79
5, 254400, Note_on_c, 0, 49, 0
5, 254400, Note_on_c, 0, 46, 82
5, 254880, Note_on_c, 0, 46, 0
5, 254880, Note_on_c, 0, 46, 83
5, 255360, Note_on_c, 0, 46, 0
5, 255360, Note_on_c, 0, 46, 87
5, 255840, Note_on_c, 0, 46, 0
5, 255840, Note_on_c, 0, 46, 81
5, 256320, Note_on_c, 0, 46, 0
5, 256320, Note_on_c, 0, 44, 75
5, 256800, Note_on_c, 0, 44, 0
5, 257760, Note_on_c, 0, 44, 69
5, 258240, Note_on_c, 0, 44, 0
5, 258240, Note_on_c, 0, 51, 71
5, 258720, Note_on_c, 0, 51, 0
5, 258720, Note_on_c, 0, 51, 69
5, 259200, Note_on_c, 0, 51, 0
5, 259200, Note_on_c, 0, 48, 66
5, 259680, Note_on_c, 0, 48, 0
5, 259680, Note_on_c, 0, 44, 70
5, 260160, Note_on_c, 0, 44, 0
5, 260160, Note_on_c, 0, 51, 73
5, 261120, Note_on_c, 0, 51, 0
5, 261120, Note_on_c, 0, 44, 67
5, 261600, Note_on_c, 0, 44, 0
5, 262560, Note_on_c, 0, 43, 69
5, 263040, Note_on_c, 0, 43, 0
5, 263040, Note_on_c, 0, 44, 73
5, 263520, Note_on_c, 0, 44, 0
5, 263520, Control_c, 0, 64, 0
5, 263520, Note_on_c, 0, 44, 76
5, 263580, Control_c, 0, 64, 127
5, 264960, Note_on_c, 0, 44, 0
5, 267840, Control_c, 0, 64, 0
5, 267840, Note_on_c, 0, 43, 62
5, 267900, Control_c, 0, 64, 127
5, 269280, Note_on_c, 0, 43, 0
5, 277200, Control_c, 0, 64, 0
5, 277200, Note_on_c, 0, 48, 59
5, 277560, Note_on_c, 0, 48, 0
5, 277680, Note_on_c, 0, 48, 63
5, 277836, Note_on_c, 0, 48, 0
5, 277920, Note_on_c, 0, 53, 65
5, 278280, Note_on_c, 0, 53, 0
5, 278400, Note_on_c, 0, 53, 62
5, 278640, Note_on_c, 0, 53, 0
5, 278640, Note_on_c, 0, 52, 61
5, 278796, Note_on_c, 0, 52, 0
5, 278880, Note_on_c, 0, 50, 63
5, 279036, Note_on_c, 0, 50, 0
5, 279120, Note_on_c, 0, 48, 64
5, 279276, Note_on_c, 0, 48, 0
5, 279360, Note_on_c, 0, 55, 65
5, 279720, Note_on_c, 0, 55, 0
5, 280560, Note_on_c, 0, 45, 66
5, 280716, Note_on_c, 0, 45, 0
5, 280800, Note_on_c, 0, 50, 70
5, 281034, Note_on_c, 0, 50, 0
5, 281760, Note_on_c, 0, 58, 69
5, 281916, Note_on_c, 0, 58, 0
5, 282000, Note_on_c, 0, 43, 72
5, 282156, Note_on_c, 0, 43, 0
5, 282240, Note_on_c, 0, 48, 75
5, 282474, Note_on_c, 0, 48, 0
5, 282960, Note_on_c, 0, 52, 82
5, 283596, Note_on_c, 0, 52, 0
5, 283680, Note_on_c, 0, 53, 77
5, 283920, Note_on_c, 0, 53, 0
5, 283920, Note_on_c, 0, 53, 75
5, 284076, Note_on_c, 0, 53, 0
5, 284160, Note_on_c, 0, 41, 73
5, 284316, Note_on_c, 0, 41, 0
5, 284400, Note_on_c, 0, 43, 72
5, 284640, Note_on_c, 0, 43, 0
5, 284880, Note_on_c, 0, 43, 68
5, 285036, Note_on_c, 0, 43, 0
5, 285360, Note_on_c, 0, 48, 66
5, 285516, Note_on_c, 0, 48, 0
5, 285600, Note_on_c, 0, 36, 59
5, 285756, Note_on_c, 0, 36, 0
5, 286560, Note_on_c, 0, 55, 67
5, 286920, Note_on_c, 0, 55, 0
5, 287040, Note_on_c, 0, 55, 62
5, 287280, Note_on_c, 0, 55, 0
5, 288000, Note_on_c, 0, 55, 62
5, 288360, Note_on_c, 0, 55, 0
5, 288720, Note_on_c, 0, 48, 92
5, 289080, Note_on_c, 0, 48, 0
5, 289200, Note_on_c, 0, 48, 97
5, 289440, Note_on_c, 0, 48, 0
5, 289440, Note_on_c, 0, 43, 100
5, 289800, Note_on_c, 0, 43, 0
5, 289920, Note_on_c, 0, 43, 92
5, 290160, Note_on_c, 0, 43, 0
5, 290160, Note_on_c, 0, 48, 87
5, 290520, Note_on_c, 0, 48, 0
5, 290640, Note_on_c, 0, 48, 92
5, 290880, Note_on_c, 0, 48, 0
5, 290880, Note_on_c, 0, 43, 94
5, 291240, Note_on_c, 0, 43, 0
5, 291600, Note_on_c, 0, 36, 103
5, 291960, Note_on_c, 0, 36, 0
5, 292080, Note_on_c, 0, 36, 107
5, 292320, Note_on_c, 0, 36, 0
5, 292320, Note_on_c, 0, 41, 110
5, 292680, Note_on_c, 0, 41, 0
5, 292800, Note_on_c, 0, 41, 103
5, 293040, Note_on_c, 0, 41, 0
5, 293040, Note_on_c, 0, 40, 101
5, 293196, Note_on_c, 0, 40, 0
5, 293280, Note_on_c, 0, 38, 103
5, 293436, Note_on_c, 0, 38, 0
5, 293520, Note_on_c, 0, 36, 104
5, 293676, Note_on_c, 0, 36, 0
5, 293760, Note_on_c, 0, 43, 106
5, 294120, Note_on_c, 0, 43, 0
5, 294480, Note_on_c, 0, 40, 99
5, 294600, Note_on_c, 0, 40, 0
5, 294720, Note_on_c, 0, 40, 101
5, 294840, Note_on_c, 0, 40, 0
5, 294960, Note_on_c, 0, 40, 103
5, 295080, Note_on_c, 0, 40, 0
5, 295200, Note_on_c, 0, 41, 106
5, 295560, Note_on_c, 0, 41, 0
5, 295680, Note_on_c, 0, 41, 104
5, 295920, Note_on_c, 0, 41, 0
5, 295920, Note_on_c, 0, 43, 103
5, 296280, Note_on_c, 0, 43, 0
5, 296400, Note_on_c, 0, 43, 102
5, 296640, Note_on_c, 0, 43, 0
5, 296880, Note_on_c, 0, 36, 104
5, 297036, Note_on_c, 0, 36, 0
5, 297360, Note_on_c, 0, 40, 107
5, 297480, Note_on_c, 0, 40, 0
5, 297600, Note_on_c, 0, 40, 108
5, 297720, Note_on_c, 0, 40, 0
5, 297840, Note_on_c, 0, 40, 109
5, 297960, Note_on_c, 0, 40, 0
5, 298080, Note_on_c, 0, 41, 110
5, 298440, Note_on_c, 0, 41, 0
5, 298560, Note_on_c, 0, 41, 107
5, 298800, Note_on_c, 0, 41, 0
5, 298800, Note_on_c, 0, 43, 106
5, 298956, Note_on_c, 0, 43, 0
5, 299040, Note_on_c, 0, 43, 104
5, 299196, Note_on_c, 0, 43, 0
5, 299280, Note_on_c, 0, 43, 102
5, 299436, Note_on_c, 0, 43, 0
5, 299520, Note_on_c, 0, 36, 101
5, 299880, Note_on_c, 0, 36, 0
5, 309120, Note_on_c, 0, 55, 62
5, 310080, Note_on_c, 0, 55, 0
5, 310080, Note_on_c, 0, 56, 62
5, 311040, Note_on_c, 0, 56, 0
5, 311040, Note_on_c, 0, 43, 62
5, 311040, Note_on_c, 0, 55, 62
5, 312000, Note_on_c, 0, 55, 0
5, 312000, Note_on_c, 0, 43, 0
5, 312000, Note_on_c, 0, 56, 62
5, 312000, Note_on_c, 0, 44, 62
5, 312960, Note_on_c, 0, 44, 0
5, 312960, Note_on_c, 0, 56, 0
5, 312960, Note_on_c, 0, 55, 62
5, 312960, Note_on_c, 0, 43, 62
5, 313440, Note_on_c, 0, 43, 0
5, 313440, Note_on_c, 0, 55, 0
5, 313800, Note_on_c, 0, 64, 62
5, 313920, Note_on_c, 0, 64, 0
5, 313920, Note_on_c, 0, 63, 62
5, 314040, Note_on_c, 0, 63, 0
5, 314040, Note_on_c, 0, 64, 62
5, 314160, Note_on_c, 0, 64, 0
5, 314160, Note_on_c, 0, 67, 62
5, 314280, Note_on_c, 0, 67, 0
5, 314280, Note_on_c, 0, 64, 62
5, 314400, Note_on_c, 0, 64, 0
5, 314400, Note_on_c, 0, 63, 62
5, 314520, Note_on_c, 0, 63, 0
5, 314520, Note_on_c, 0, 64, 62
5, 314640, Note_on_c, 0, 64, 0
5, 314640, Note_on_c, 0, 67, 62
5, 314760, Note_on_c, 0, 67, 0
5, 314760, Note_on_c, 0, 64, 62
5, 314880, Note_on_c, 0, 64, 0
5, 314880, Note_on_c, 0, 62, 62
5, 314880, Note_on_c, 0, 43, 62
5, 314940, Note_on_c, 0, 64, 62
5, 314970, Note_on_c, 0, 62, 0
5, 315000, Note_on_c, 0, 62, 66
5, 315037, Note_on_c, 0, 64, 0
5, 315060, Note_on_c, 0, 64, 66
5, 315109, Note_on_c, 0, 62, 0
5, 315120, Note_on_c, 0, 62, 62
5, 315169, Note_on_c, 0, 64, 0
5, 315180, Note_on_c, 0, 64, 62
5, 315223, Note_on_c, 0, 62, 0
5, 315240, Note_on_c, 0, 62, 62
5, 315283, Note_on_c, 0, 64, 0
5, 315300, Note_on_c, 0, 64, 62
5, 315343, Note_on_c, 0, 62, 0
5, 315360, Note_on_c, 0, 62, 62
5, 315403, Note_on_c, 0, 64, 0
5, 315420, Note_on_c, 0, 64, 62
5, 315463, Note_on_c, 0, 62, 0
5, 315480, Note_on_c, 0, 62, 62
5, 315523, Note_on_c, 0, 64, 0
5, 315540, Note_on_c, 0, 64, 62
5, 315583, Note_on_c, 0, 62, 0
5, 315600, Note_on_c, 0, 62, 62
5, 315643, Note_on_c, 0, 64, 0
5, 315660, Note_on_c, 0, 64, 62
5, 315705, Note_on_c, 0, 62, 0
5, 315720, Note_on_c, 0, 62, 66
5, 315745, Note_on_c, 0, 64, 0
5, 315780, Note_on_c, 0, 64, 62
5, 315829, Note_on_c, 0, 62, 0
5, 315840, Note_on_c, 0, 55, 62
5, 315840, Note_on_c, 0, 62, 62
5, 315877, Note_on_c, 0, 64, 0
5, 315900, Note_on_c, 0, 64, 62
5, 315937, Note_on_c, 0, 62, 0
5, 315960, Note_on_c, 0, 62, 62
5, 315997, Note_on_c, 0, 64, 0
5, 316020, Note_on_c, 0, 64, 62
5, 316057, Note_on_c, 0, 62, 0
5, 316080, Note_on_c, 0, 62, 62
5, 316117, Note_on_c, 0, 64, 0
5, 316140, Note_on_c, 0, 64, 62
5, 316177, Note_on_c, 0, 62, 0
5, 316200, Note_on_c, 0, 62, 62
5, 316237, Note_on_c, 0, 64, 0
5, 316260, Note_on_c, 0, 64, 62
5, 316297, Note_on_c, 0, 62, 0
5, 316320, Note_on_c, 0, 62, 62
5, 316357, Note_on_c, 0, 64, 0
5, 316400, Note_on_c, 0, 64, 62
5, 316417, Note_on_c, 0, 62, 0
5, 316480, Note_on_c, 0, 62, 62
5, 316552, Note_on_c, 0, 64, 0
5, 316560, Note_on_c, 0, 60, 62
5, 316627, Note_on_c, 0, 62, 0
5, 316680, Note_on_c, 0, 62, 62
5, 316732, Note_on_c, 0, 60, 0
5, 317287, Note_on_c, 0, 43, 0
5, 317295, Note_on_c, 0, 55, 0
5, 317302, Note_on_c, 0, 62, 0
5, 317520, Note_on_c, 0, 48, 95
5, 317520, Note_on_c, 0, 36, 95
5, 317880, Note_on_c, 0, 36, 0
5, 317880, Note_on_c, 0, 48, 0
5, 318000, Note_on_c, 0, 48, 98
5, 318000, Note_on_c, 0, 36, 98
5, 318240, Note_on_c, 0, 36, 0
5, 318240, Note_on_c, 0, 48, 0
5, 318240, Note_on_c, 0, 53, 100
5, 318240, Note_on_c, 0, 41, 100
5, 318600, Note_on_c, 0, 41, 0
5, 318600, Note_on_c, 0, 53, 0
5, 318720, Note_on_c, 0, 53, 94
5, 318720, Note_on_c, 0, 41, 94
5, 318960, Note_on_c, 0, 41, 0
5, 318960, Note_on_c, 0, 53, 0
5, 318960, Note_on_c, 0, 52, 93
5, 318960, Note_on_c, 0, 40, 93
5, 319116, Note_on_c, 0, 40, 0
5, 319116, Note_on_c, 0, 52, 0
5, 319200, Note_on_c, 0, 50, 95
5, 319200, Note_on_c, 0, 38, 95
5, 319356, Note_on_c, 0, 38, 0
5, 319356, Note_on_c, 0, 50, 0
5, 319440, Note_on_c, 0, 48, 96
5, 319440, Note_on_c, 0, 36, 96
5, 319596, Note_on_c, 0, 36, 0
5, 319596, Note_on_c, 0, 48, 0
5, 319680, Note_on_c, 0, 43, 98
5, 320040, Note_on_c, 0, 43, 0
5, 320400, Note_on_c, 0, 40, 94
5, 320520, Note_on_c, 0, 40, 0
5, 320520, Note_on_c, 0, 52, 95
5, 320640, Note_on_c, 0, 52, 0
5, 320640, Note_on_c, 0, 40, 96
5, 320760, Note_on_c, 0, 40, 0
5, 320760, Note_on_c, 0, 52, 97
5, 320880, Note_on_c, 0, 52, 0
5, 320880, Note_on_c, 0, 40, 98
5, 321000, Note_on_c, 0, 40, 0
5, 321000, Note_on_c, 0, 52, 99
5, 321120, Note_on_c, 0, 52, 0
5, 321120, Note_on_c, 0, 41, 104
5, 321480, Note_on_c, 0, 41, 0
5, 321600, Note_on_c, 0, 41, 100
5, 321756, Note_on_c, 0, 41, 0
5, 321840, Note_on_c, 0, 43, 98
5, 321996, Note_on_c, 0, 43, 0
5, 322080, Note_on_c, 0, 43, 96
5, 322236, Note_on_c, 0, 43, 0
5, 322320, Note_on_c, 0, 43, 94
5, 322476, Note_on_c, 0, 43, 0
5, 322560, Note_on_c, 0, 36, 91
5, 322560, Note_on_c, 0, 48, 91
5, 322920, Note_on_c, 0, 48, 0
5, 322920, Note_on_c, 0, 36, 0
5, 323520, Control_c, 0, 64, 0
5, 324000, Note_on_c, 0, 49, 62
5, 324480, Note_on_c, 0, 49, 0
5, 324480, Note_on_c, 0, 50, 62
5, 324840, Note_on_c, 0, 50, 0
5, 326880, Note_on_c, 0, 47, 61
5, 327360, Note_on_c, 0, 47, 0
5, 327360, Note_on_c, 0, 48, 65
5, 327720, Note_on_c, 0, 48, 0
5, 329760, Note_on_c, 0, 52, 66
5, 330240, Note_on_c, 0, 52, 0
5, 330240, Note_on_c, 0, 53, 70
5, 330960, Note_on_c, 0, 53, 0
5, 332160, Note_on_c, 0, 43, 68
5, 334080, Note_on_c, 0, 43, 0
5, 334080, Note_on_c, 0, 43, 57
5, 336000, Note_on_c, 0, 43, 0
5, 336480, Note_on_c, 0, 48, 63
5, 336840, Note_on_c, 0, 48, 0
5, 337440, Note_on_c, 0, 43, 61
5, 337800, Note_on_c, 0, 43, 0
5, 338400, Note_on_c, 0, 36, 59
5, 338760, Note_on_c, 0, 36, 0
5, 339360, Note_on_c, 0, 43, 57
5, 339720, Note_on_c, 0, 43, 0
5, 340320, Note_on_c, 0, 36, 54
5, 340320, Note_on_c, 0, 48, 54
5, 340680, Note_on_c, 0, 48, 0
5, 340680, Note_on_c, 0, 36, 0
5, 341280, Note_on_c, 0, 43, 52
5, 341280, Note_on_c, 0, 31, 52
5, 341640, Note_on_c, 0, 31, 0
5, 341640, Note_on_c, 0, 43, 0
5, 342240, Note_on_c, 0, 36, 50
5, 342240, Note_on_c, 0, 48, 50
5, 342600, Note_on_c, 0, 48, 0
5, 342600, Note_on_c, 0, 36, 0
5, 342720, Control_c, 0, 64, 127
5, 342720, Note_on_c, 0, 31, 49
5, 342720, Note_on_c, 0, 43, 49
5, 343680, Note_on_c, 0, 43, 0
5, 343680, Note_on_c, 0, 31, 0
5, 344400, Control_c, 0, 64, 0
5, 344400, Note_on_c, 0, 48, 58
5, 344640, Note_on_c, 0, 48, 0
5, 344640, Note_on_c, 0, 54, 60
5, 344880, Note_on_c, 0, 54, 0
5, 344880, Note_on_c, 0, 54, 62
5, 345120, Note_on_c, 0, 54, 0
5, 345120, Note_on_c, 0, 53, 64
5, 345360, Note_on_c, 0, 53, 0
5, 345360, Note_on_c, 0, 54, 62
5, 345600, Note_on_c, 0, 54, 0
5, 345600, Note_on_c, 0, 53, 59
5, 345840, Note_on_c, 0, 53, 0
5, 345840, Note_on_c, 0, 52, 57
5, 346080, Note_on_c, 0, 52, 0
5, 346080, Note_on_c, 0, 50, 58
5, 346320, Note_on_c, 0, 50, 0
5, 346320, Note_on_c, 0, 48, 59
5, 346560, Note_on_c, 0, 48, 0
5, 346560, Note_on_c, 0, 47, 62
5, 346800, Note_on_c, 0, 47, 0
5, 346800, Note_on_c, 0, 54, 61
5, 347040, Note_on_c, 0, 54, 0
5, 347040, Note_on_c, 0, 54, 60
5, 347280, Note_on_c, 0, 54, 0
5, 347280, Note_on_c, 0, 48, 61
5, 347520, Note_on_c, 0, 48, 0
5, 347520, Note_on_c, 0, 48, 62
5, 347760, Note_on_c, 0, 48, 0
5, 347760, Note_on_c, 0, 49, 63
5, 348000, Note_on_c, 0, 49, 0
5, 348000, Note_on_c, 0, 50, 64
5, 348240, Note_on_c, 0, 50, 0
5, 348240, Note_on_c, 0, 49, 64
5, 348480, Note_on_c, 0, 49, 0
5, 348480, Note_on_c, 0, 50, 63
5, 348720, Note_on_c, 0, 50, 0
5, 348720, Note_on_c, 0, 47, 62
5, 348960, Note_on_c, 0, 47, 0
5, 348960, Note_on_c, 0, 47, 61
5, 349200, Note_on_c, 0, 47, 0
5, 349200, Note_on_c, 0, 47, 60
5, 349440, Note_on_c, 0, 47, 0
5, 349440, Note_on_c, 0, 48, 59
5, 349680, Note_on_c, 0, 48, 0
5, 349680, Note_on_c, 0, 47, 58
5, 349920, Note_on_c, 0, 47, 0
5, 349920, Note_on_c, 0, 48, 57
5, 350160, Note_on_c, 0, 48, 0
5, 350400, Note_on_c, 0, 40, 63
5, 350640, Note_on_c, 0, 40, 0
5, 350640, Note_on_c, 0, 40, 65
5, 350880, Note_on_c, 0, 40, 0
5, 350880, Note_on_c, 0, 41, 70
5, 351120, Note_on_c, 0, 41, 0
5, 351120, Note_on_c, 0, 41, 69
5, 351360, Note_on_c, 0, 41, 0
5, 351360, Note_on_c, 0, 41, 67
5, 351600, Note_on_c, 0, 41, 0
5, 351600, Note_on_c, 0, 43, 66
5, 351840, Note_on_c, 0, 43, 0
5, 351840, Note_on_c, 0, 43, 65
5, 352080, Note_on_c, 0, 43, 0
5, 352080, Note_on_c, 0, 43, 63
5, 352320, Note_on_c, 0, 43, 0
5, 352320, Note_on_c, 0, 48, 62
5, 353040, Note_on_c, 0, 40, 107
5, 353280, Note_on_c, 0, 40, 0
5, 353280, Note_on_c, 0, 48, 0
5, 353280, Note_on_c, 0, 40, 108
5, 353520, Note_on_c, 0, 40, 0
5, 353520, Note_on_c, 0, 40, 110
5, 353760, Note_on_c, 0, 40, 0
5, 353760, Note_on_c, 0, 41, 112
5, 354480, Note_on_c, 0, 43, 111
5, 354720, Note_on_c, 0, 43, 0
5, 354720, Note_on_c, 0, 41, 0
5, 354720, Note_on_c, 0, 43, 109
5, 354960, Note_on_c, 0, 43, 0
5, 354960, Note_on_c, 0, 43, 108
5, 355200, Note_on_c, 0, 43, 0
5, 355200, Note_on_c, 0, 36, 106
5, 355440, Note_on_c, 0, 36, 0
5, 355440, Note_on_c, 0, 36, 105
5, 355680, Note_on_c, 0, 36, 0
5, 355680, Note_on_c, 0, 36, 104
5, 355920, Note_on_c, 0, 36, 0
5, 355920, Note_on_c, 0, 36, 61
5, 356160, Note_on_c, 0, 36, 0
5, 356160, Note_on_c, 0, 36, 64
5, 356400, Note_on_c, 0, 36, 0
5, 356400, Note_on_c, 0, 36, 67
5, 356640, Note_on_c, 0, 36, 0
5, 356640, Note_on_c, 0, 36, 70
5, 356880, Note_on_c, 0, 36, 0
5, 356880, Note_on_c, 0, 36, 65
5, 357120, Note_on_c, 0, 36, 0
5, 357120, Note_on_c, 0, 36, 61
5, 357360, Note_on_c, 0, 36, 0
5, 357360, Note_on_c, 0, 36, 57
5, 357600, Note_on_c, 0, 36, 0
5, 357600, Note_on_c, 0, 36, 59
5, 357840, Note_on_c, 0, 36, 0
5, 357840, Note_on_c, 0, 36, 62
5, 358080, Note_on_c, 0, 36, 0
5, 358080, Note_on_c, 0, 36, 66
5, 358320, Note_on_c, 0, 36, 0
5, 358320, Note_on_c, 0, 36, 63
5, 358560, Note_on_c, 0, 36, 0
5, 358560, Note_on_c, 0, 36, 60
5, 358800, Note_on_c, 0, 36, 0
5, 358800, Note_on_c, 0, 36, 59
5, 359040, Note_on_c, 0, 36, 0
5, 359040, Note_on_c, 0, 36, 61
5, 359280, Note_on_c, 0, 36, 0
5, 359280, Note_on_c, 0, 36, 62
5, 359520, Note_on_c, 0, 36, 0
5, 359520, Note_on_c, 0, 36, 64
5, 359760, Note_on_c, 0, 36, 0
5, 359760, Note_on_c, 0, 36, 65
5, 360000, Note_on_c, 0, 36, 0
5, 360000, Note_on_c, 0, 36, 67
5, 360240, Note_on_c, 0, 36, 0
5, 360240, Note_on_c, 0, 36, 70
5, 360480, Note_on_c, 0, 36, 0
5, 360480, Note_on_c, 0, 36, 68
5, 360720, Note_on_c, 0, 36, 0
5, 360720, Note_on_c, 0, 36, 67
5, 360960, Note_on_c, 0, 36, 0
5, 360960, Note_on_c, 0, 36, 65
5, 361200, Note_on_c, 0, 36, 0
5, 361200, Note_on_c, 0, 48, 63
5, 361440, Note_on_c, 0, 48, 0
5, 361440, Note_on_c, 0, 48, 62
5, 361680, Note_on_c, 0, 48, 0
5, 361680, Note_on_c, 0, 48, 74
5, 361920, Note_on_c, 0, 48, 0
5, 361920, Note_on_c, 0, 48, 78
5, 362160, Note_on_c, 0, 48, 0
5, 362160, Note_on_c, 0, 48, 83
5, 362400, Note_on_c, 0, 48, 0
5, 362400, Note_on_c, 0, 48, 87
5, 362640, Note_on_c, 0, 48, 0
5, 362640, Note_on_c, 0, 48, 84
5, 362880, Note_on_c, 0, 48, 0
5, 362880, Note_on_c, 0, 48, 83
5, 363120, Note_on_c, 0, 48, 0
5, 363120, Note_on_c, 0, 48, 81
5, 363360, Note_on_c, 0, 48, 0
5, 363360, Note_on_c, 0, 48, 85
5, 363600, Note_on_c, 0, 48, 0
5, 363600, Note_on_c, 0, 48, 89
5, 363840, Note_on_c, 0, 48, 0
5, 363840, Note_on_c, 0, 48, 93
5, 364080, Note_on_c, 0, 48, 0
5, 364080, Note_on_c, 0, 48, 93
5, 364320, Note_on_c, 0, 48, 0
5, 364320, Note_on_c, 0, 48, 91
5, 364560, Note_on_c, 0, 48, 0
5, 364560, Note_on_c, 0, 48, 87
5, 364800, Note_on_c, 0, 48, 0
5, 364800, Note_on_c, 0, 48, 89
5, 365040, Note_on_c, 0, 48, 0
5, 365040, Note_on_c, 0, 48, 90
5, 365280, Note_on_c, 0, 48, 0
5, 365280, Note_on_c, 0, 48, 92
5, 365520, Note_on_c, 0, 48, 0
5, 365520, Note_on_c, 0, 48, 93
5, 365760, Note_on_c, 0, 48, 0
5, 365760, Note_on_c, 0, 48, 95
5, 366000, Note_on_c, 0, 48, 0
5, 366000, Note_on_c, 0, 48, 97
5, 366240, Note_on_c, 0, 48, 0
5, 366240, Note_on_c, 0, 48, 98
5, 366480, Note_on_c, 0, 48, 0
5, 366480, Note_on_c, 0, 48, 100
5, 366720, Note_on_c, 0, 48, 0
5, 366720, Note_on_c, 0, 48, 103
5, 366960, Note_on_c, 0, 48, 0
5, 366960, Note_on_c, 0, 48, 101
5, 367200, Note_on_c, 0, 48, 0
5, 367200, Note_on_c, 0, 48, 99
5, 367440, Note_on_c, 0, 48, 0
5, 367440, Note_on_c, 0, 48, 99
5, 367680, Note_on_c, 0, 48, 0
5, 367680, Note_on_c, 0, 48, 100
5, 367920, Note_on_c, 0, 48, 0
5, 367920, Note_on_c, 0, 48, 102
5, 368160, Note_on_c, 0, 48, 0
5, 368160, Note_on_c, 0, 48, 103
5, 368400, Note_on_c, 0, 48, 0
5, 368400, Note_on_c, 0, 48, 104
5, 368640, Note_on_c, 0, 48, 0
5, 368640, Note_on_c, 0, 48, 106
5, 368880, Note_on_c, 0, 48, 0
5, 368880, Note_on_c, 0, 48, 107
5, 369120, Note_on_c, 0, 48, 0
5, 369120, Note_on_c, 0, 48, 108
5, 369360, Note_on_c, 0, 48, 0
5, 369360, Note_on_c, 0, 48, 110
5, 369600, Note_on_c, 0, 48, 0
5, 369600, Note_on_c, 0, 48, 118
5, 369756, Note_on_c, 0, 48, 0
5, 369840, Note_on_c, 0, 48, 117
5, 369996, Note_on_c, 0, 48, 0
5, 370320, Note_on_c, 0, 43, 115
5, 370476, Note_on_c, 0, 43, 0
5, 371040, Note_on_c, 0, 36, 112
5, 371196, Note_on_c, 0, 36, 0
5, 371280, Note_on_c, 0, 48, 111
5, 371436, Note_on_c, 0, 48, 0
5, 371760, Note_on_c, 0, 31, 109
5, 371916, Note_on_c, 0, 31, 0
5, 372000, Note_on_c, 0, 43, 108
5, 372156, Note_on_c, 0, 43, 0
5, 372480, Note_on_c, 0, 36, 106
5, 372600, Note_on_c, 0, 36, 0
5, 372720, Note_on_c, 0, 36, 105
5, 372840, Note_on_c, 0, 36, 0
5, 372960, Note_on_c, 0, 36, 104
5, 373080, Note_on_c, 0, 36, 0
5, 373200, Note_on_c, 0, 31, 103
5, 373320, Note_on_c, 0, 31, 0
5, 373440, Note_on_c, 0, 31, 102
5, 373560, Note_on_c, 0, 31, 0
5, 373680, Note_on_c, 0, 31, 101
5, 373800, Note_on_c, 0, 31, 0
5, 373920, Note_on_c, 0, 36, 99
5, 374160, Note_on_c, 0, 36, 0
5, 374640, Note_on_c, 0, 43, 109
5, 374640, Note_on_c, 0, 31, 109
5, 375360, Note_on_c, 0, 31, 0
5, 375360, Note_on_c, 0, 43, 0
5, 376080, Note_on_c, 0, 43, 113
5, 376080, Note_on_c, 0, 31, 113
5, 376800, Note_on_c, 0, 31, 0
5, 376800, Note_on_c, 0, 43, 0
5, 377520, Note_on_c, 0, 50, 118
5, 377520, Note_on_c, 0, 38, 118
5, 378000, Note_on_c, 0, 38, 0
5, 378000, Note_on_c, 0, 50, 0
5, 378240, Note_on_c, 0, 47, 120
5, 378240, Note_on_c, 0, 35, 120
5, 378720, Note_on_c, 0, 35, 0
5, 378720, Note_on_c, 0, 47, 0
5, 378960, Note_on_c, 0, 45, 122
5, 378960, Note_on_c, 0, 33, 122
5, 379440, Note_on_c, 0, 33, 0
5, 379440, Note_on_c, 0, 45, 0
5, 379680, Note_on_c, 0, 43, 124
5, 379680, Note_on_c, 0, 31, 124
5, 381120, Note_on_c, 0, 31, 0
5, 381120, Note_on_c, 0, 43, 0
5, 381120, Note_on_c, 0, 36, 77
5, 381360, Note_on_c, 0, 36, 0
5, 381840, Note_on_c, 0, 43, 74
5, 382080, Note_on_c, 0, 43, 0
5, 382560, Note_on_c, 0, 36, 71
5, 382800, Note_on_c, 0, 36, 0
5, 382800, End_track
0, 0, End_of_file
