0, 0, Header, 1, 7, 480
1, 0, Start_track
1, 0, Title_t, "Seq-1"
1, 0, SMPTE_offset, 96, 0, 0, 0, 0
1, 0, Time_signature, 4, 2, 24, 8
1, 0, Tempo, 512820
1, 0, End_track
2, 0, Start_track
2, 0, Title_t, "Ludwig Van Beethoven"
2, 0, Control_c, 0, 7, 100
2, 1058, Note_on_c, 0, 72, 54
2, 1059, Control_c, 0, 64, 96
2, 1070, Note_on_c, 0, 65, 42
2, 1083, Note_on_c, 0, 60, 40
2, 1086, Note_on_c, 0, 57, 36
2, 1665, Note_on_c, 0, 74, 60
2, 1672, Note_off_c, 0, 72, 53
2, 1700, Note_off_c, 0, 65, 50
2, 1724, Note_off_c, 0, 60, 50
2, 1817, Note_on_c, 0, 72, 72
2, 1826, Note_on_c, 0, 67, 46
2, 1831, Note_on_c, 0, 52, 35
2, 1841, Note_on_c, 0, 60, 40
2, 1848, Control_c, 0, 64, 20
2, 1851, Note_off_c, 0, 57, 49
2, 1868, Note_off_c, 0, 74, 55
2, 2093, Control_c, 0, 64, 96
2, 2702, Note_off_c, 0, 72, 58
2, 2704, Note_on_c, 0, 70, 54
2, 3175, Note_off_c, 0, 60, 50
2, 3423, Note_off_c, 0, 67, 51
2, 3573, Note_on_c, 0, 69, 60
2, 3590, Note_on_c, 0, 53, 33
2, 3592, Note_on_c, 0, 57, 36
2, 3595, Note_on_c, 0, 60, 40
2, 3620, Note_off_c, 0, 70, 53
2, 3634, Note_off_c, 0, 52, 48
2, 3650, Control_c, 0, 64, 20
2, 3825, Control_c, 0, 64, 96
2, 4136, Note_off_c, 0, 60, 50
2, 4149, Note_off_c, 0, 57, 49
2, 4221, Note_on_c, 0, 70, 67
2, 4255, Note_off_c, 0, 69, 55
2, 4379, Note_on_c, 0, 69, 69
2, 4381, Note_on_c, 0, 57, 47
2, 4390, Note_on_c, 0, 49, 44
2, 4397, Note_on_c, 0, 64, 46
2, 4410, Note_off_c, 0, 53, 48
2, 4429, Control_c, 0, 64, 20
2, 4461, Note_off_c, 0, 70, 57
2, 4636, Control_c, 0, 64, 96
2, 5364, Note_on_c, 0, 67, 53
2, 5428, Note_off_c, 0, 69, 57
2, 5757, Note_off_c, 0, 64, 51
2, 6038, Note_off_c, 0, 57, 51
2, 6306, Note_on_c, 0, 65, 54
2, 6329, Note_on_c, 0, 62, 42
2, 6331, Note_on_c, 0, 57, 31
2, 6337, Note_on_c, 0, 50, 45
2, 6345, Control_c, 0, 64, 20
2, 6359, Note_off_c, 0, 67, 53
2, 6387, Note_off_c, 0, 49, 51
2, 6542, Control_c, 0, 64, 96
2, 6703, Note_off_c, 0, 57, 47
2, 6796, Note_off_c, 0, 62, 50
2, 6885, Note_on_c, 0, 66, 44
2, 6886, Note_off_c, 0, 65, 53
2, 6908, Note_on_c, 0, 48, 37
2, 6914, Note_off_c, 0, 50, 51
2, 6914, Note_on_c, 0, 62, 34
2, 6915, Note_on_c, 0, 57, 33
2, 7023, Note_off_c, 0, 62, 48
2, 7030, Note_off_c, 0, 48, 49
2, 7048, Note_off_c, 0, 57, 48
2, 7057, Note_off_c, 0, 66, 51
2, 7123, Note_on_c, 0, 67, 46
2, 7147, Note_on_c, 0, 62, 37
2, 7148, Note_on_c, 0, 46, 34
2, 7151, Note_on_c, 0, 58, 38
2, 7163, Control_c, 0, 64, 20
2, 7359, Control_c, 0, 64, 96
2, 7369, Note_on_c, 0, 69, 53
2, 7370, Note_off_c, 0, 67, 51
2, 7479, Note_on_c, 0, 67, 55
2, 7522, Note_off_c, 0, 69, 53
2, 7606, Note_on_c, 0, 66, 58
2, 7632, Note_off_c, 0, 67, 53
2, 7752, Note_on_c, 0, 67, 61
2, 7760, Note_off_c, 0, 66, 54
2, 8326, Note_off_c, 0, 46, 48
2, 8330, Note_off_c, 0, 67, 55
2, 8367, Note_off_c, 0, 58, 49
2, 8393, Note_off_c, 0, 62, 49
2, 8419, Note_on_c, 0, 69, 69
2, 8427, Note_on_c, 0, 60, 61
2, 8438, Note_on_c, 0, 57, 54
2, 8439, Note_on_c, 0, 66, 46
2, 8440, Note_on_c, 0, 45, 50
2, 8496, Control_c, 0, 64, 20
2, 8555, Note_off_c, 0, 57, 53
2, 8564, Note_on_c, 0, 72, 73
2, 8566, Note_off_c, 0, 69, 57
2, 8571, Note_off_c, 0, 60, 55
2, 8574, Note_off_c, 0, 45, 52
2, 8577, Note_on_c, 0, 55, 52
2, 8580, Note_on_c, 0, 67, 56
2, 8582, Note_on_c, 0, 43, 47
2, 8585, Note_off_c, 0, 66, 51
2, 8586, Note_on_c, 0, 62, 61
2, 8683, Control_c, 0, 64, 96
2, 8700, Note_on_c, 0, 70, 80
2, 8759, Note_off_c, 0, 72, 58
2, 9019, Note_off_c, 0, 62, 55
2, 9084, Note_off_c, 0, 67, 54
2, 9087, Note_off_c, 0, 70, 60
2, 9149, Note_off_c, 0, 55, 53
2, 9189, Note_off_c, 0, 43, 51
2, 9216, Note_on_c, 0, 62, 62
2, 9218, Note_on_c, 0, 67, 75
2, 9219, Note_on_c, 0, 46, 59
2, 9219, Note_on_c, 0, 58, 67
2, 9340, Note_off_c, 0, 67, 59
2, 9360, Note_off_c, 0, 46, 54
2, 9361, Note_off_c, 0, 58, 57
2, 9365, Note_off_c, 0, 62, 55
2, 9454, Note_on_c, 0, 65, 50
2, 9465, Note_on_c, 0, 60, 38
2, 9466, Note_on_c, 0, 57, 42
2, 9467, Note_on_c, 0, 48, 36
2, 9477, Control_c, 0, 64, 20
2, 9689, Control_c, 0, 64, 96
2, 10360, Note_on_c, 0, 64, 33
2, 10367, Note_off_c, 0, 48, 49
2, 10369, Note_off_c, 0, 57, 50
2, 10372, Note_on_c, 0, 55, 26
2, 10374, Note_on_c, 0, 36, 30
2, 10378, Control_c, 0, 64, 20
2, 10415, Note_off_c, 0, 65, 52
2, 10592, Control_c, 0, 64, 96
2, 10794, Note_off_c, 0, 64, 48
2, 10802, Note_off_c, 0, 60, 49
2, 10804, Note_off_c, 0, 55, 46
2, 10804, Note_off_c, 0, 36, 47
2, 11240, Note_on_c, 0, 72, 50
2, 11247, Note_on_c, 0, 65, 40
2, 11251, Note_on_c, 0, 57, 38
2, 11254, Control_c, 0, 64, 20
2, 11264, Note_on_c, 0, 60, 36
2, 11459, Control_c, 0, 64, 96
2, 11768, Note_off_c, 0, 60, 49
2, 11857, Note_on_c, 0, 74, 54
2, 11877, Note_off_c, 0, 72, 52
2, 11894, Note_off_c, 0, 65, 50
2, 12007, Note_on_c, 0, 72, 60
2, 12022, Note_on_c, 0, 52, 40
2, 12023, Note_on_c, 0, 67, 36
2, 12026, Note_on_c, 0, 60, 49
2, 12029, Note_off_c, 0, 74, 53
2, 12059, Note_off_c, 0, 57, 49
2, 12121, Control_c, 0, 64, 20
2, 12329, Control_c, 0, 64, 96
2, 12931, Note_on_c, 0, 70, 54
2, 12973, Note_off_c, 0, 72, 55
2, 13529, Note_off_c, 0, 67, 49
2, 13549, Note_off_c, 0, 60, 52
2, 13841, Note_on_c, 0, 69, 60
2, 13855, Note_on_c, 0, 57, 42
2, 13857, Note_on_c, 0, 60, 46
2, 13862, Note_on_c, 0, 53, 51
2, 13875, Control_c, 0, 64, 20
2, 13886, Note_off_c, 0, 52, 50
2, 13895, Note_off_c, 0, 70, 53
2, 14061, Control_c, 0, 64, 96
2, 14414, Note_off_c, 0, 60, 51
2, 14427, Note_off_c, 0, 57, 50
2, 14477, Note_on_c, 0, 70, 64
2, 14514, Note_off_c, 0, 69, 55
2, 14636, Note_on_c, 0, 69, 66
2, 14649, Note_on_c, 0, 64, 52
2, 14657, Note_on_c, 0, 57, 42
2, 14658, Note_on_c, 0, 49, 46
2, 14669, Note_off_c, 0, 70, 56
2, 14670, Note_off_c, 0, 53, 52
2, 14673, Control_c, 0, 64, 20
2, 14860, Control_c, 0, 64, 96
2, 15551, Note_on_c, 0, 67, 54
2, 15633, Note_off_c, 0, 69, 56
2, 16152, Note_off_c, 0, 64, 53
2, 16172, Note_off_c, 0, 57, 50
2, 16425, Note_on_c, 0, 65, 72
2, 16432, Note_on_c, 0, 50, 60
2, 16444, Note_on_c, 0, 57, 54
2, 16445, Note_on_c, 0, 62, 58
2, 16455, Note_off_c, 0, 49, 51
2, 16455, Control_c, 0, 64, 20
2, 16480, Note_off_c, 0, 67, 53
2, 16649, Control_c, 0, 64, 96
2, 16817, Note_off_c, 0, 57, 53
2, 16896, Note_off_c, 0, 62, 54
2, 17017, Note_off_c, 0, 65, 58
2, 17025, Note_on_c, 0, 67, 81
2, 17031, Note_on_c, 0, 46, 73
2, 17043, Note_on_c, 0, 62, 65
2, 17046, Note_on_c, 0, 58, 69
2, 17052, Note_off_c, 0, 50, 55
2, 17139, Note_off_c, 0, 62, 56
2, 17148, Note_off_c, 0, 46, 58
2, 17155, Note_off_c, 0, 67, 60
2, 17174, Note_off_c, 0, 58, 57
2, 17207, Note_on_c, 0, 69, 90
2, 17218, Note_on_c, 0, 65, 70
2, 17232, Note_on_c, 0, 48, 72
2, 17233, Note_on_c, 0, 60, 66
2, 17237, Control_c, 0, 64, 20
2, 17440, Control_c, 0, 64, 96
2, 18139, Note_on_c, 0, 36, 54
2, 18641, Note_off_c, 0, 60, 56
2, 18692, Note_off_c, 0, 36, 53
2, 19027, Note_on_c, 0, 70, 72
2, 19028, Note_off_c, 0, 65, 57
2, 19053, Note_on_c, 0, 58, 51
2, 19058, Note_on_c, 0, 36, 42
2, 19060, Note_on_c, 0, 64, 54
2, 19066, Control_c, 0, 64, 20
2, 19113, Note_off_c, 0, 69, 62
2, 19304, Control_c, 0, 64, 96
2, 19603, Note_off_c, 0, 64, 53
2, 19607, Note_off_c, 0, 36, 50
2, 19614, Note_off_c, 0, 58, 52
2, 19623, Note_off_c, 0, 48, 58
2, 19737, Note_on_c, 0, 67, 59
2, 19786, Note_off_c, 0, 70, 58
2, 19881, Note_off_c, 0, 67, 54
2, 19888, Note_on_c, 0, 65, 42
2, 19891, Note_on_c, 0, 41, 26
2, 19892, Note_on_c, 0, 57, 30
2, 19930, Control_c, 0, 64, 20
2, 20139, Control_c, 0, 64, 96
2, 20418, Note_off_c, 0, 41, 46
2, 20951, Note_off_c, 0, 57, 47
2, 20951, Note_off_c, 0, 65, 50
2, 20953, Note_on_c, 0, 29, 30
2, 21000, Control_c, 0, 64, 20
2, 21217, Control_c, 0, 64, 96
2, 21483, Note_off_c, 0, 29, 47
2, 21978, Note_on_c, 0, 72, 66
2, 22018, Note_on_c, 0, 57, 45
2, 22019, Note_on_c, 0, 53, 38
2, 22036, Control_c, 0, 64, 20
2, 22228, Control_c, 0, 64, 96
2, 22379, Note_on_c, 0, 60, 48
2, 22420, Note_off_c, 0, 57, 52
2, 22482, Note_off_c, 0, 53, 51
2, 22581, Note_on_c, 0, 69, 64
2, 22613, Note_off_c, 0, 72, 56
2, 22721, Note_on_c, 0, 70, 62
2, 22734, Note_on_c, 0, 58, 44
2, 22743, Note_on_c, 0, 55, 40
2, 22765, Control_c, 0, 64, 20
2, 22769, Note_off_c, 0, 60, 52
2, 22775, Note_off_c, 0, 69, 56
2, 22973, Control_c, 0, 64, 96
2, 23149, Note_on_c, 0, 60, 40
2, 23242, Note_off_c, 0, 58, 51
2, 23274, Note_off_c, 0, 55, 50
2, 23566, Note_on_c, 0, 67, 54
2, 23578, Note_on_c, 0, 48, 40
2, 23585, Control_c, 0, 64, 20
2, 23613, Note_off_c, 0, 60, 50
2, 23682, Note_off_c, 0, 70, 55
2, 23777, Control_c, 0, 64, 96
2, 23963, Note_on_c, 0, 60, 36
2, 23965, Note_off_c, 0, 67, 53
2, 23997, Note_off_c, 0, 48, 50
2, 24239, Note_off_c, 0, 60, 49
2, 24337, Note_on_c, 0, 79, 66
2, 24347, Note_on_c, 0, 58, 44
2, 24352, Note_on_c, 0, 64, 48
2, 24356, Control_c, 0, 64, 96
2, 24561, Control_c, 0, 64, 96
2, 24713, Note_on_c, 0, 60, 48
2, 24765, Note_off_c, 0, 58, 51
2, 24915, Note_off_c, 0, 79, 56
2, 24918, Note_on_c, 0, 76, 63
2, 25075, Note_on_c, 0, 77, 60
2, 25085, Note_off_c, 0, 64, 52
2, 25085, Note_on_c, 0, 65, 40
2, 25086, Note_on_c, 0, 57, 45
2, 25091, Control_c, 0, 64, 20
2, 25113, Note_off_c, 0, 60, 52
2, 25144, Note_off_c, 0, 76, 55
2, 25312, Control_c, 0, 64, 96
2, 25481, Note_on_c, 0, 60, 40
2, 25505, Note_off_c, 0, 57, 51
2, 25506, Note_off_c, 0, 65, 50
2, 25761, Note_off_c, 0, 60, 50
2, 25894, Note_on_c, 0, 72, 54
2, 25903, Note_on_c, 0, 60, 37
2, 25915, Control_c, 0, 64, 20
2, 26043, Note_off_c, 0, 77, 55
2, 26142, Control_c, 0, 64, 96
2, 26143, Note_off_c, 0, 60, 49
2, 26207, Note_off_c, 0, 72, 53
2, 26313, Note_on_c, 0, 60, 34
2, 26639, Note_off_c, 0, 60, 48
2, 26721, Note_on_c, 0, 72, 58
2, 26740, Note_on_c, 0, 57, 41
2, 26742, Note_on_c, 0, 53, 36
2, 26789, Control_c, 0, 64, 20
2, 26896, Note_on_c, 0, 69, 60
2, 26927, Note_off_c, 0, 72, 54
2, 26993, Control_c, 0, 64, 96
2, 27072, Note_on_c, 0, 72, 62
2, 27086, Note_off_c, 0, 53, 49
2, 27087, Note_on_c, 0, 60, 36
2, 27129, Note_off_c, 0, 69, 55
2, 27212, Note_off_c, 0, 57, 50
2, 27260, Note_on_c, 0, 69, 64
2, 27279, Note_off_c, 0, 72, 55
2, 27438, Note_on_c, 0, 70, 66
2, 27454, Note_on_c, 0, 55, 48
2, 27460, Note_on_c, 0, 58, 44
2, 27467, Note_off_c, 0, 69, 56
2, 27471, Control_c, 0, 64, 20
2, 27552, Note_off_c, 0, 60, 49
2, 27690, Control_c, 0, 64, 96
2, 27841, Note_on_c, 0, 60, 40
2, 27926, Note_off_c, 0, 55, 52
2, 27970, Note_off_c, 0, 58, 51
2, 28236, Note_off_c, 0, 70, 56
2, 28241, Note_on_c, 0, 67, 55
2, 28251, Note_on_c, 0, 48, 43
2, 28258, Control_c, 0, 64, 20
2, 28346, Note_off_c, 0, 60, 50
2, 28488, Control_c, 0, 64, 96
2, 28559, Note_off_c, 0, 67, 53
2, 28640, Note_off_c, 0, 48, 50
2, 28644, Note_on_c, 0, 60, 48
2, 28940, Note_off_c, 0, 60, 52
2, 29040, Note_on_c, 0, 79, 58
2, 29052, Note_on_c, 0, 58, 40
2, 29053, Note_on_c, 0, 64, 44
2, 29071, Control_c, 0, 64, 20
2, 29215, Note_on_c, 0, 76, 60
2, 29244, Note_off_c, 0, 79, 54
2, 29283, Control_c, 0, 64, 96
2, 29390, Note_on_c, 0, 79, 62
2, 29397, Note_off_c, 0, 58, 50
2, 29399, Note_on_c, 0, 60, 42
2, 29412, Note_off_c, 0, 76, 55
2, 29580, Note_on_c, 0, 76, 64
2, 29613, Note_off_c, 0, 79, 55
2, 29755, Note_on_c, 0, 77, 66
2, 29757, Note_off_c, 0, 76, 56
2, 29762, Note_off_c, 0, 64, 51
2, 29763, Note_off_c, 0, 60, 50
2, 29766, Note_on_c, 0, 57, 42
2, 29767, Note_on_c, 0, 65, 52
2, 29771, Control_c, 0, 64, 20
2, 29979, Control_c, 0, 64, 96
2, 30129, Note_on_c, 0, 60, 38
2, 30403, Note_off_c, 0, 60, 49
2, 30506, Note_on_c, 0, 72, 54
2, 30516, Note_on_c, 0, 60, 40
2, 30523, Control_c, 0, 64, 20
2, 30589, Note_off_c, 0, 77, 56
2, 30720, Control_c, 0, 64, 96
2, 30772, Note_off_c, 0, 60, 50
2, 30785, Note_off_c, 0, 72, 53
2, 30865, Note_off_c, 0, 57, 50
2, 30866, Note_off_c, 0, 65, 53
2, 30873, Note_on_c, 0, 79, 57
2, 30887, Note_on_c, 0, 67, 40
2, 30890, Note_on_c, 0, 58, 37
2, 30894, Note_on_c, 0, 60, 43
2, 31048, Note_on_c, 0, 76, 56
2, 31121, Note_off_c, 0, 60, 50
2, 31130, Note_off_c, 0, 67, 50
2, 31136, Note_off_c, 0, 79, 54
2, 31148, Note_off_c, 0, 58, 49
2, 31247, Note_on_c, 0, 77, 58
2, 31256, Note_on_c, 0, 57, 42
2, 31262, Note_on_c, 0, 60, 36
2, 31266, Note_on_c, 0, 65, 40
2, 31270, Control_c, 0, 64, 20
2, 31276, Note_off_c, 0, 76, 54
2, 31451, Control_c, 0, 64, 96
2, 31488, Note_off_c, 0, 60, 49
2, 31523, Note_off_c, 0, 57, 50
2, 31565, Note_off_c, 0, 65, 50
2, 31600, Note_on_c, 0, 79, 62
2, 31618, Note_on_c, 0, 60, 48
2, 31619, Note_on_c, 0, 67, 44
2, 31622, Note_on_c, 0, 58, 48
2, 31631, Note_off_c, 0, 77, 54
2, 31778, Note_on_c, 0, 76, 64
2, 31803, Note_off_c, 0, 79, 55
2, 31823, Note_off_c, 0, 60, 52
2, 31870, Note_off_c, 0, 58, 52
2, 31903, Note_off_c, 0, 67, 51
2, 31979, Note_on_c, 0, 77, 66
2, 31998, Note_on_c, 0, 57, 42
2, 32001, Note_on_c, 0, 65, 42
2, 32002, Control_c, 0, 64, 20
2, 32010, Note_off_c, 0, 76, 56
2, 32223, Control_c, 0, 64, 96
2, 32370, Note_on_c, 0, 60, 42
2, 32635, Note_off_c, 0, 60, 50
2, 32748, Note_on_c, 0, 72, 42
2, 32770, Note_on_c, 0, 60, 31
2, 32779, Note_off_c, 0, 77, 56
2, 32915, Control_c, 0, 64, 20
2, 32975, Note_off_c, 0, 60, 47
2, 33029, Note_off_c, 0, 72, 50
2, 33082, Note_off_c, 0, 65, 50
2, 33099, Note_off_c, 0, 57, 50
2, 33110, Note_on_c, 0, 79, 46
2, 33120, Control_c, 0, 64, 96
2, 33137, Note_on_c, 0, 60, 28
2, 33140, Note_on_c, 0, 58, 23
2, 33141, Note_on_c, 0, 67, 28
2, 33292, Note_on_c, 0, 76, 44
2, 33383, Note_off_c, 0, 60, 47
2, 33388, Note_off_c, 0, 79, 51
2, 33403, Note_off_c, 0, 58, 45
2, 33409, Note_off_c, 0, 67, 47
2, 33489, Note_on_c, 0, 77, 47
2, 33515, Note_on_c, 0, 65, 30
2, 33518, Note_on_c, 0, 60, 30
2, 33521, Note_on_c, 0, 57, 18
2, 33526, Note_off_c, 0, 76, 51
2, 33609, Control_c, 0, 64, 20
2, 33767, Note_off_c, 0, 60, 47
2, 33800, Note_off_c, 0, 65, 47
2, 33811, Control_c, 0, 64, 96
2, 33832, Note_off_c, 0, 57, 44
2, 33869, Note_on_c, 0, 79, 52
2, 33895, Note_on_c, 0, 67, 30
2, 33898, Note_on_c, 0, 60, 30
2, 33899, Note_on_c, 0, 58, 26
2, 33909, Note_off_c, 0, 77, 51
2, 34068, Note_on_c, 0, 76, 54
2, 34120, Note_off_c, 0, 60, 47
2, 34149, Note_off_c, 0, 79, 53
2, 34178, Note_off_c, 0, 67, 47
2, 34196, Note_off_c, 0, 58, 46
2, 34249, Note_on_c, 0, 77, 57
2, 34266, Note_off_c, 0, 76, 53
2, 34276, Note_on_c, 0, 60, 32
2, 34277, Note_on_c, 0, 65, 40
2, 34279, Note_on_c, 0, 57, 20
2, 34309, Control_c, 0, 64, 20
2, 34512, Control_c, 0, 64, 96
2, 34560, Note_off_c, 0, 57, 45
2, 34561, Note_off_c, 0, 60, 48
2, 34583, Note_off_c, 0, 65, 50
2, 34645, Note_on_c, 0, 79, 62
2, 34666, Note_on_c, 0, 58, 25
2, 34672, Note_on_c, 0, 60, 36
2, 34673, Note_on_c, 0, 67, 43
2, 34725, Note_off_c, 0, 77, 54
2, 34846, Note_on_c, 0, 76, 65
2, 34934, Note_off_c, 0, 60, 49
2, 34947, Note_off_c, 0, 58, 46
2, 34955, Note_off_c, 0, 79, 55
2, 34989, Note_off_c, 0, 67, 50
2, 35052, Note_on_c, 0, 77, 67
2, 35070, Note_on_c, 0, 65, 49
2, 35072, Note_on_c, 0, 57, 28
2, 35074, Note_on_c, 0, 60, 40
2, 35079, Control_c, 0, 64, 20
2, 35096, Note_off_c, 0, 76, 56
2, 35281, Control_c, 0, 64, 96
2, 35345, Note_off_c, 0, 65, 52
2, 35347, Note_off_c, 0, 60, 50
2, 35441, Note_off_c, 0, 57, 47
2, 35469, Note_on_c, 0, 79, 72
2, 35488, Note_on_c, 0, 67, 45
2, 35490, Note_on_c, 0, 60, 46
2, 35491, Note_on_c, 0, 58, 29
2, 35538, Note_off_c, 0, 77, 57
2, 35669, Note_on_c, 0, 76, 75
2, 35717, Note_off_c, 0, 79, 58
2, 35740, Note_off_c, 0, 60, 51
2, 35769, Note_off_c, 0, 67, 51
2, 35818, Note_off_c, 0, 58, 47
2, 35895, Note_on_c, 0, 65, 50
2, 35896, Note_on_c, 0, 77, 78
2, 35897, Control_c, 0, 64, 20
2, 35898, Note_on_c, 0, 60, 42
2, 35899, Note_on_c, 0, 57, 40
2, 35939, Note_off_c, 0, 76, 59
2, 36098, Control_c, 0, 64, 96
2, 36197, Note_off_c, 0, 60, 50
2, 36291, Note_off_c, 0, 65, 52
2, 36293, Note_off_c, 0, 57, 50
2, 36326, Note_on_c, 0, 79, 78
2, 36328, Note_on_c, 0, 58, 36
2, 36336, Note_on_c, 0, 60, 41
2, 36338, Note_on_c, 0, 67, 60
2, 36364, Note_off_c, 0, 77, 59
2, 36527, Note_on_c, 0, 76, 78
2, 36562, Note_off_c, 0, 79, 59
2, 36608, Note_off_c, 0, 60, 50
2, 36683, Note_off_c, 0, 67, 55
2, 36718, Note_off_c, 0, 58, 49
2, 36747, Note_on_c, 0, 65, 50
2, 36748, Note_on_c, 0, 77, 76
2, 36751, Note_on_c, 0, 60, 50
2, 36756, Note_on_c, 0, 57, 36
2, 36762, Control_c, 0, 64, 20
2, 36781, Note_off_c, 0, 76, 59
2, 36964, Control_c, 0, 64, 96
2, 37177, Note_on_c, 0, 79, 70
2, 37214, Note_off_c, 0, 77, 59
2, 37291, Note_off_c, 0, 60, 52
2, 37394, Note_on_c, 0, 76, 67
2, 37431, Note_off_c, 0, 79, 57
2, 37447, Note_off_c, 0, 57, 49
2, 37522, Note_off_c, 0, 65, 52
2, 37614, Note_on_c, 0, 77, 65
2, 37638, Control_c, 0, 64, 20
2, 37645, Note_off_c, 0, 76, 57
2, 37840, Control_c, 0, 64, 96
2, 38045, Note_on_c, 0, 79, 59
2, 38080, Note_off_c, 0, 77, 56
2, 38262, Note_on_c, 0, 76, 56
2, 38299, Note_off_c, 0, 79, 54
2, 38461, Note_on_c, 0, 77, 54
2, 38468, Control_c, 0, 64, 20
2, 38496, Note_off_c, 0, 76, 54
2, 38654, Control_c, 0, 64, 96
2, 38895, Note_on_c, 0, 79, 48
2, 38930, Note_off_c, 0, 77, 53
2, 39094, Note_on_c, 0, 76, 45
2, 39129, Note_off_c, 0, 79, 52
2, 39291, Note_off_c, 0, 76, 51
2, 39292, Note_on_c, 0, 77, 42
2, 39304, Control_c, 0, 64, 20
2, 39490, Control_c, 0, 64, 96
2, 39708, Note_off_c, 0, 77, 50
2, 40105, Note_on_c, 0, 77, 44
2, 40502, Note_off_c, 0, 77, 51
2, 40881, Note_on_c, 0, 77, 49
2, 41278, Note_off_c, 0, 77, 52
2, 41549, Control_c, 0, 64, 20
2, 41658, Note_on_c, 0, 77, 54
2, 41660, Note_on_c, 0, 37, 22
2, 41670, Note_on_c, 0, 73, 43
2, 41724, Control_c, 0, 64, 96
2, 41850, Note_off_c, 0, 37, 45
2, 42417, Note_on_c, 0, 37, 24
2, 42424, Control_c, 0, 64, 20
2, 42608, Control_c, 0, 64, 96
2, 42616, Note_off_c, 0, 37, 46
2, 42910, Note_off_c, 0, 73, 50
2, 43214, Note_off_c, 0, 77, 53
2, 43214, Note_on_c, 0, 75, 42
2, 43215, Note_on_c, 0, 37, 26
2, 43226, Note_on_c, 0, 68, 31
2, 43229, Control_c, 0, 64, 20
2, 43409, Note_off_c, 0, 37, 46
2, 43415, Control_c, 0, 64, 96
2, 43857, Note_off_c, 0, 68, 47
2, 44008, Note_off_c, 0, 75, 50
2, 44010, Note_on_c, 0, 73, 42
2, 44013, Note_on_c, 0, 37, 28
2, 44019, Note_on_c, 0, 65, 31
2, 44024, Control_c, 0, 64, 20
2, 44162, Note_off_c, 0, 37, 47
2, 44210, Control_c, 0, 64, 96
2, 44802, Note_on_c, 0, 37, 31
2, 44809, Control_c, 0, 64, 20
2, 44972, Note_off_c, 0, 37, 47
2, 44995, Control_c, 0, 64, 96
2, 45357, Note_off_c, 0, 65, 47
2, 45380, Note_off_c, 0, 73, 50
2, 45413, Note_on_c, 0, 75, 49
2, 45422, Note_on_c, 0, 68, 43
2, 45554, Note_on_c, 0, 73, 50
2, 45564, Note_on_c, 0, 65, 47
2, 45567, Note_on_c, 0, 37, 33
2, 45568, Control_c, 0, 64, 20
2, 45591, Note_off_c, 0, 75, 52
2, 45599, Note_off_c, 0, 68, 50
2, 45753, Control_c, 0, 64, 96
2, 45789, Note_off_c, 0, 37, 48
2, 46166, Note_off_c, 0, 65, 51
2, 46172, Note_on_c, 0, 75, 53
2, 46181, Note_on_c, 0, 68, 48
2, 46207, Note_off_c, 0, 73, 52
2, 46341, Note_on_c, 0, 77, 54
2, 46342, Note_on_c, 0, 37, 36
2, 46352, Note_on_c, 0, 73, 45
2, 46355, Control_c, 0, 64, 20
2, 46364, Note_off_c, 0, 68, 52
2, 46367, Note_off_c, 0, 75, 53
2, 46476, Note_off_c, 0, 37, 49
2, 46540, Control_c, 0, 64, 96
2, 46597, Note_off_c, 0, 73, 51
2, 46627, Note_off_c, 0, 77, 53
2, 47114, Note_on_c, 0, 77, 54
2, 47117, Note_on_c, 0, 37, 36
2, 47127, Note_on_c, 0, 73, 45
2, 47137, Control_c, 0, 64, 20
2, 47321, Control_c, 0, 64, 96
2, 47323, Note_off_c, 0, 37, 49
2, 47325, Note_off_c, 0, 73, 51
2, 47498, Note_off_c, 0, 77, 53
2, 47930, Note_on_c, 0, 75, 48
2, 47931, Note_on_c, 0, 37, 44
2, 47940, Note_on_c, 0, 68, 36
2, 47947, Control_c, 0, 64, 20
2, 48092, Note_off_c, 0, 37, 51
2, 48134, Control_c, 0, 64, 96
2, 48249, Note_off_c, 0, 68, 49
2, 48279, Note_off_c, 0, 75, 52
2, 48741, Note_on_c, 0, 73, 42
2, 48744, Note_on_c, 0, 37, 40
2, 48753, Note_on_c, 0, 65, 31
2, 48759, Control_c, 0, 64, 20
2, 48899, Note_off_c, 0, 37, 50
2, 48944, Control_c, 0, 64, 96
2, 49556, Note_on_c, 0, 37, 36
2, 49564, Control_c, 0, 64, 20
2, 49749, Control_c, 0, 64, 96
2, 49771, Note_off_c, 0, 37, 49
2, 50188, Note_off_c, 0, 65, 47
2, 50350, Note_off_c, 0, 73, 50
2, 50375, Note_on_c, 0, 61, 54
2, 50389, Note_on_c, 0, 37, 42
2, 50389, Note_on_c, 0, 49, 40
2, 50395, Control_c, 0, 64, 20
2, 50580, Control_c, 0, 64, 96
2, 50630, Note_off_c, 0, 37, 50
2, 50986, Note_on_c, 0, 60, 54
2, 50988, Note_on_c, 0, 48, 46
2, 51015, Note_off_c, 0, 49, 50
2, 51029, Note_off_c, 0, 61, 53
2, 51131, Note_off_c, 0, 60, 53
2, 51137, Note_off_c, 0, 48, 51
2, 51196, Note_on_c, 0, 60, 51
2, 51237, Note_on_c, 0, 37, 48
2, 51247, Note_on_c, 0, 53, 56
2, 51249, Note_on_c, 0, 47, 41
2, 51258, Control_c, 0, 64, 20
2, 51294, Note_on_c, 0, 59, 56
2, 51348, Note_off_c, 0, 60, 52
2, 51435, Note_off_c, 0, 37, 52
2, 51444, Control_c, 0, 64, 96
2, 51664, Note_off_c, 0, 47, 50
2, 51681, Note_off_c, 0, 53, 54
2, 51871, Note_off_c, 0, 59, 54
2, 52039, Note_on_c, 0, 59, 67
2, 52050, Note_on_c, 0, 53, 55
2, 52053, Note_on_c, 0, 37, 46
2, 52057, Note_on_c, 0, 47, 51
2, 52078, Control_c, 0, 64, 20
2, 52282, Control_c, 0, 64, 96
2, 52284, Note_off_c, 0, 37, 51
2, 52467, Note_off_c, 0, 53, 53
2, 52556, Note_off_c, 0, 47, 52
2, 52635, Note_off_c, 0, 59, 57
2, 52835, Note_on_c, 0, 59, 78
2, 52842, Note_on_c, 0, 47, 60
2, 52846, Note_on_c, 0, 37, 56
2, 52848, Note_on_c, 0, 53, 65
2, 52895, Control_c, 0, 64, 20
2, 53120, Control_c, 0, 64, 96
2, 53159, Note_off_c, 0, 37, 54
2, 53204, Note_off_c, 0, 47, 55
2, 53299, Note_off_c, 0, 53, 56
2, 53447, Note_off_c, 0, 59, 59
2, 53650, Note_on_c, 0, 60, 78
2, 53662, Note_on_c, 0, 52, 64
2, 53663, Note_on_c, 0, 36, 59
2, 53713, Control_c, 0, 64, 20
2, 53927, Control_c, 0, 64, 96
2, 54181, Note_off_c, 0, 52, 56
2, 54478, Note_off_c, 0, 60, 59
2, 54489, Note_on_c, 0, 48, 70
2, 55302, Note_off_c, 0, 36, 54
2, 55302, Note_on_c, 0, 72, 56
2, 55315, Note_on_c, 0, 45, 42
2, 55316, Note_on_c, 0, 65, 46
2, 55343, Control_c, 0, 64, 20
2, 55566, Control_c, 0, 64, 96
2, 55906, Note_off_c, 0, 72, 54
2, 55911, Note_on_c, 0, 74, 60
2, 55944, Note_off_c, 0, 65, 51
2, 56053, Note_on_c, 0, 72, 66
2, 56069, Note_on_c, 0, 67, 53
2, 56072, Note_on_c, 0, 40, 42
2, 56102, Control_c, 0, 64, 20
2, 56125, Note_off_c, 0, 74, 55
2, 56163, Note_off_c, 0, 45, 50
2, 56326, Control_c, 0, 64, 96
2, 56901, Note_on_c, 0, 70, 54
2, 56957, Note_off_c, 0, 72, 56
2, 57403, Note_off_c, 0, 48, 59
2, 57551, Note_off_c, 0, 67, 53
2, 57730, Note_on_c, 0, 69, 58
2, 57746, Note_on_c, 0, 48, 42
2, 57751, Note_on_c, 0, 41, 48
2, 57753, Note_on_c, 0, 65, 46
2, 57788, Note_off_c, 0, 70, 53
2, 57795, Control_c, 0, 64, 20
2, 57834, Note_off_c, 0, 40, 50
2, 58001, Control_c, 0, 64, 96
2, 58371, Note_off_c, 0, 65, 51
2, 58384, Note_on_c, 0, 70, 66
2, 58426, Note_off_c, 0, 69, 54
2, 58432, Note_off_c, 0, 41, 52
2, 58557, Note_on_c, 0, 69, 54
2, 58562, Note_on_c, 0, 65, 38
2, 58568, Note_on_c, 0, 36, 46
2, 58593, Control_c, 0, 64, 20
2, 58626, Note_off_c, 0, 70, 56
2, 58797, Control_c, 0, 64, 96
2, 59410, Note_off_c, 0, 65, 49
2, 59432, Note_off_c, 0, 48, 50
2, 59441, Note_off_c, 0, 36, 51
2, 59472, Note_on_c, 0, 67, 54
2, 59476, Note_off_c, 0, 69, 53
2, 59486, Note_on_c, 0, 64, 40
2, 59489, Note_on_c, 0, 37, 42
2, 59490, Note_on_c, 0, 58, 44
2, 59493, Note_on_c, 0, 49, 46
2, 59498, Control_c, 0, 64, 20
2, 59693, Control_c, 0, 64, 96
2, 60119, Note_off_c, 0, 37, 50
2, 60137, Note_off_c, 0, 58, 51
2, 60175, Note_off_c, 0, 49, 51
2, 60231, Note_off_c, 0, 64, 50
2, 60352, Note_off_c, 0, 67, 53
2, 60369, Note_on_c, 0, 65, 58
2, 60376, Note_on_c, 0, 38, 48
2, 60383, Note_on_c, 0, 57, 41
2, 60384, Note_on_c, 0, 50, 44
2, 60385, Note_on_c, 0, 62, 46
2, 60404, Control_c, 0, 64, 20
2, 60588, Control_c, 0, 64, 96
2, 60796, Note_off_c, 0, 62, 51
2, 60830, Note_off_c, 0, 38, 52
2, 60843, Note_off_c, 0, 50, 51
2, 60905, Note_off_c, 0, 57, 50
2, 60975, Note_on_c, 0, 66, 59
2, 60984, Note_on_c, 0, 57, 40
2, 60986, Note_off_c, 0, 65, 54
2, 60992, Note_on_c, 0, 48, 44
2, 60993, Note_on_c, 0, 62, 46
2, 60997, Note_on_c, 0, 36, 47
2, 61064, Control_c, 0, 64, 20
2, 61091, Note_off_c, 0, 62, 51
2, 61103, Note_off_c, 0, 36, 51
2, 61111, Note_off_c, 0, 57, 50
2, 61117, Note_off_c, 0, 48, 51
2, 61125, Note_off_c, 0, 66, 54
2, 61133, Note_on_c, 0, 67, 62
2, 61154, Note_on_c, 0, 62, 50
2, 61155, Note_on_c, 0, 34, 52
2, 61156, Note_on_c, 0, 46, 48
2, 61270, Control_c, 0, 64, 96
2, 61508, Note_off_c, 0, 67, 55
2, 61517, Note_on_c, 0, 69, 54
2, 61643, Note_off_c, 0, 69, 53
2, 61645, Note_on_c, 0, 67, 57
2, 61770, Note_off_c, 0, 67, 54
2, 61771, Note_on_c, 0, 66, 60
2, 61896, Note_off_c, 0, 66, 55
2, 61897, Note_on_c, 0, 67, 64
2, 61994, Note_off_c, 0, 46, 52
2, 62047, Note_off_c, 0, 62, 52
2, 62145, Note_off_c, 0, 34, 53
2, 62427, Control_c, 0, 64, 20
2, 62508, Note_on_c, 0, 69, 79
2, 62512, Note_off_c, 0, 67, 56
2, 62524, Note_on_c, 0, 60, 62
2, 62525, Note_on_c, 0, 66, 65
2, 62529, Note_on_c, 0, 45, 54
2, 62530, Note_on_c, 0, 33, 56
2, 62660, Control_c, 0, 64, 96
2, 62685, Note_off_c, 0, 33, 54
2, 62696, Note_off_c, 0, 60, 55
2, 62704, Note_on_c, 0, 72, 81
2, 62707, Note_off_c, 0, 45, 53
2, 62707, Note_off_c, 0, 66, 56
2, 62719, Note_on_c, 0, 43, 58
2, 62722, Note_on_c, 0, 62, 53
2, 62725, Note_on_c, 0, 67, 63
2, 62730, Note_off_c, 0, 69, 60
2, 62730, Note_on_c, 0, 31, 51
2, 62816, Note_on_c, 0, 70, 87
2, 62862, Note_off_c, 0, 72, 60
2, 63089, Note_off_c, 0, 62, 53
2, 63155, Note_off_c, 0, 67, 55
2, 63161, Note_off_c, 0, 43, 54
2, 63165, Note_off_c, 0, 31, 52
2, 63207, Note_off_c, 0, 70, 61
2, 63230, Note_on_c, 0, 67, 66
2, 63241, Note_on_c, 0, 46, 51
2, 63243, Note_on_c, 0, 58, 46
2, 63245, Note_on_c, 0, 34, 48
2, 63246, Note_on_c, 0, 62, 54
2, 63361, Control_c, 0, 64, 20
2, 63372, Note_off_c, 0, 67, 56
2, 63395, Note_off_c, 0, 58, 51
2, 63400, Note_on_c, 0, 65, 56
2, 63402, Note_off_c, 0, 46, 52
2, 63409, Note_off_c, 0, 34, 52
2, 63418, Note_off_c, 0, 62, 53
2, 63421, Note_on_c, 0, 48, 36
2, 63423, Note_on_c, 0, 60, 46
2, 63428, Note_on_c, 0, 57, 42
2, 63432, Note_on_c, 0, 36, 42
2, 63585, Control_c, 0, 64, 96
2, 64252, Note_off_c, 0, 36, 50
2, 64287, Note_off_c, 0, 48, 49
2, 64311, Note_off_c, 0, 57, 50
2, 64390, Note_on_c, 0, 64, 46
2, 64410, Note_on_c, 0, 55, 36
2, 64418, Note_on_c, 0, 36, 32
2, 64426, Note_off_c, 0, 65, 54
2, 64432, Control_c, 0, 64, 20
2, 64645, Control_c, 0, 64, 96
2, 64875, Note_off_c, 0, 60, 51
2, 64932, Note_off_c, 0, 64, 51
2, 65110, Note_off_c, 0, 36, 48
2, 65178, Note_off_c, 0, 55, 49
2, 65318, Note_on_c, 0, 74, 66
2, 65346, Control_c, 0, 64, 20
2, 65386, Note_on_c, 0, 72, 66
2, 65388, Note_on_c, 0, 45, 37
2, 65392, Note_on_c, 0, 65, 51
2, 65396, Note_on_c, 0, 57, 45
2, 65399, Note_on_c, 0, 48, 41
2, 65457, Note_off_c, 0, 74, 56
2, 65570, Control_c, 0, 64, 96
2, 65583, Note_on_c, 0, 71, 66
2, 65586, Note_off_c, 0, 72, 56
2, 65766, Note_on_c, 0, 72, 70
2, 65800, Note_off_c, 0, 71, 56
2, 65962, Note_on_c, 0, 74, 74
2, 65994, Note_off_c, 0, 72, 57
2, 66010, Note_off_c, 0, 57, 51
2, 66057, Note_off_c, 0, 65, 52
2, 66069, Note_off_c, 0, 48, 50
2, 66142, Note_off_c, 0, 74, 59
2, 66147, Note_on_c, 0, 72, 78
2, 66149, Note_on_c, 0, 40, 44
2, 66153, Note_on_c, 0, 48, 51
2, 66156, Note_on_c, 0, 52, 46
2, 66160, Note_on_c, 0, 67, 64
2, 66164, Control_c, 0, 64, 20
2, 66208, Note_off_c, 0, 45, 49
2, 66378, Control_c, 0, 64, 96
2, 67067, Note_on_c, 0, 70, 66
2, 67130, Note_off_c, 0, 72, 59
2, 67476, Note_off_c, 0, 67, 56
2, 67805, Note_off_c, 0, 70, 56
2, 67857, Note_off_c, 0, 48, 52
2, 67893, Note_on_c, 0, 70, 54
2, 67986, Note_on_c, 0, 69, 56
2, 67991, Note_on_c, 0, 60, 45
2, 67993, Note_off_c, 0, 52, 51
2, 67996, Note_on_c, 0, 53, 41
2, 67998, Note_on_c, 0, 41, 38
2, 68000, Note_on_c, 0, 48, 46
2, 68003, Control_c, 0, 64, 20
2, 68047, Note_off_c, 0, 40, 51
2, 68060, Note_off_c, 0, 70, 53
2, 68187, Note_on_c, 0, 68, 54
2, 68201, Note_off_c, 0, 69, 54
2, 68207, Control_c, 0, 64, 96
2, 68384, Note_on_c, 0, 69, 66
2, 68393, Note_off_c, 0, 68, 53
2, 68467, Note_off_c, 0, 53, 50
2, 68486, Note_off_c, 0, 60, 51
2, 68550, Note_off_c, 0, 41, 49
2, 68582, Note_off_c, 0, 48, 51
2, 68589, Note_on_c, 0, 70, 78
2, 68611, Note_off_c, 0, 69, 56
2, 68783, Note_on_c, 0, 69, 78
2, 68791, Note_on_c, 0, 49, 45
2, 68792, Note_on_c, 0, 64, 56
2, 68793, Note_on_c, 0, 45, 38
2, 68799, Note_on_c, 0, 37, 45
2, 68801, Control_c, 0, 64, 20
2, 68814, Note_off_c, 0, 70, 59
2, 68995, Control_c, 0, 64, 96
2, 69722, Note_on_c, 0, 67, 66
2, 69770, Note_off_c, 0, 69, 59
2, 70197, Note_off_c, 0, 37, 51
2, 70363, Note_off_c, 0, 64, 54
2, 70371, Note_off_c, 0, 49, 51
2, 70406, Note_off_c, 0, 45, 49
2, 70684, Note_on_c, 0, 65, 66
2, 70685, Note_on_c, 0, 57, 61
2, 70693, Note_on_c, 0, 50, 46
2, 70696, Note_on_c, 0, 62, 51
2, 70697, Note_on_c, 0, 38, 43
2, 70708, Control_c, 0, 64, 20
2, 70728, Note_off_c, 0, 67, 56
2, 70903, Control_c, 0, 64, 96
2, 71145, Note_off_c, 0, 38, 50
2, 71204, Note_off_c, 0, 62, 52
2, 71214, Note_off_c, 0, 50, 51
2, 71265, Note_off_c, 0, 57, 55
2, 71270, Note_on_c, 0, 67, 84
2, 71286, Note_on_c, 0, 62, 73
2, 71288, Note_on_c, 0, 34, 57
2, 71289, Note_on_c, 0, 46, 61
2, 71290, Note_on_c, 0, 58, 66
2, 71296, Note_off_c, 0, 65, 56
2, 71400, Note_off_c, 0, 34, 54
2, 71406, Note_off_c, 0, 62, 58
2, 71407, Note_off_c, 0, 58, 56
2, 71408, Note_off_c, 0, 67, 61
2, 71422, Note_off_c, 0, 46, 55
2, 71448, Note_on_c, 0, 69, 88
2, 71457, Note_on_c, 0, 36, 55
2, 71458, Note_on_c, 0, 48, 60
2, 71459, Note_on_c, 0, 65, 68
2, 71460, Note_on_c, 0, 60, 76
2, 71467, Control_c, 0, 64, 20
2, 71662, Control_c, 0, 64, 96
2, 72029, Note_off_c, 0, 36, 53
2, 72379, Note_on_c, 0, 36, 48
2, 72704, Note_off_c, 0, 48, 55
2, 73079, Note_off_c, 0, 36, 52
2, 73084, Note_off_c, 0, 65, 57
2, 73112, Note_off_c, 0, 60, 59
2, 73342, Note_on_c, 0, 70, 58
2, 73352, Note_on_c, 0, 36, 30
2, 73353, Note_on_c, 0, 64, 38
2, 73354, Note_on_c, 0, 48, 40
2, 73354, Note_on_c, 0, 58, 46
2, 73356, Control_c, 0, 64, 20
2, 73409, Note_off_c, 0, 69, 62
2, 73540, Control_c, 0, 64, 96
2, 74017, Note_on_c, 0, 67, 48
2, 74098, Note_off_c, 0, 58, 51
2, 74109, Note_off_c, 0, 70, 54
2, 74140, Note_off_c, 0, 36, 47
2, 74166, Note_off_c, 0, 48, 50
2, 74175, Note_off_c, 0, 67, 52
2, 74207, Note_on_c, 0, 65, 42
2, 74215, Note_off_c, 0, 64, 49
2, 74218, Note_on_c, 0, 41, 36
2, 74227, Note_on_c, 0, 57, 26
2, 74240, Control_c, 0, 64, 20
2, 74425, Control_c, 0, 64, 96
2, 74737, Note_off_c, 0, 41, 49
2, 75158, Note_off_c, 0, 57, 46
2, 75249, Note_off_c, 0, 65, 50
2, 75253, Note_on_c, 0, 29, 30
2, 75773, Note_off_c, 0, 29, 47
2, 76089, Control_c, 0, 64, 20
2, 76249, Note_on_c, 0, 50, 54
2, 76300, Note_on_c, 0, 48, 54
2, 76375, Note_off_c, 0, 50, 53
2, 76480, Note_on_c, 0, 47, 54
2, 76508, Note_off_c, 0, 48, 53
2, 76679, Note_on_c, 0, 48, 58
2, 76728, Note_off_c, 0, 47, 53
2, 76859, Note_on_c, 0, 50, 62
2, 76914, Note_off_c, 0, 48, 54
2, 77003, Note_off_c, 0, 50, 55
2, 77057, Note_on_c, 0, 48, 66
2, 77239, Note_on_c, 0, 57, 46
2, 77328, Note_off_c, 0, 57, 51
2, 77419, Note_on_c, 0, 60, 51
2, 77526, Note_off_c, 0, 60, 52
2, 77618, Note_on_c, 0, 65, 55
2, 77709, Note_off_c, 0, 65, 53
2, 77798, Note_on_c, 0, 69, 60
2, 77912, Note_off_c, 0, 69, 55
2, 77998, Note_on_c, 0, 72, 64
2, 78094, Note_off_c, 0, 72, 56
2, 78178, Note_on_c, 0, 77, 69
2, 78297, Note_off_c, 0, 77, 57
2, 78377, Note_on_c, 0, 79, 74
2, 78475, Note_off_c, 0, 79, 59
2, 78557, Note_on_c, 0, 81, 74
2, 78559, Note_on_c, 0, 41, 62
2, 78757, Note_off_c, 0, 81, 59
2, 79201, Note_on_c, 0, 57, 66
2, 79381, Note_on_c, 0, 60, 71
2, 79396, Note_on_c, 0, 52, 56
2, 79399, Note_on_c, 0, 43, 49
2, 79419, Note_off_c, 0, 57, 56
2, 79475, Control_c, 0, 64, 96
2, 79476, Note_off_c, 0, 41, 55
2, 80183, Note_off_c, 0, 43, 52
2, 80257, Note_on_c, 0, 58, 54
2, 80259, Note_on_c, 0, 36, 42
2, 80294, Control_c, 0, 64, 20
2, 80324, Note_off_c, 0, 60, 58
2, 80546, Control_c, 0, 64, 96
2, 80555, Note_off_c, 0, 52, 54
2, 80581, Note_off_c, 0, 58, 53
2, 80996, Note_off_c, 0, 48, 56
2, 80998, Note_off_c, 0, 36, 50
2, 81042, Control_c, 0, 64, 20
2, 81047, Note_on_c, 0, 50, 54
2, 81125, Note_on_c, 0, 48, 54
2, 81182, Note_off_c, 0, 50, 53
2, 81322, Note_on_c, 0, 47, 54
2, 81366, Note_off_c, 0, 48, 53
2, 81504, Note_on_c, 0, 48, 58
2, 81519, Note_off_c, 0, 47, 53
2, 81702, Note_on_c, 0, 50, 62
2, 81721, Note_off_c, 0, 48, 54
2, 81827, Note_off_c, 0, 50, 55
2, 81881, Note_on_c, 0, 48, 66
2, 82064, Note_on_c, 0, 58, 54
2, 82162, Note_off_c, 0, 58, 53
2, 82261, Note_on_c, 0, 64, 54
2, 82343, Note_off_c, 0, 64, 53
2, 82443, Note_on_c, 0, 67, 58
2, 82563, Note_off_c, 0, 67, 54
2, 82641, Note_on_c, 0, 70, 62
2, 82736, Note_off_c, 0, 70, 55
2, 82823, Note_on_c, 0, 76, 66
2, 82938, Note_off_c, 0, 76, 56
2, 83020, Note_on_c, 0, 79, 70
2, 83101, Note_off_c, 0, 79, 57
2, 83220, Note_on_c, 0, 81, 75
2, 83310, Note_off_c, 0, 81, 59
2, 83419, Note_on_c, 0, 43, 62
2, 83420, Note_on_c, 0, 82, 75
2, 83617, Note_off_c, 0, 82, 59
2, 84080, Note_on_c, 0, 58, 66
2, 84278, Note_on_c, 0, 62, 64
2, 84290, Note_on_c, 0, 53, 46
2, 84291, Note_on_c, 0, 45, 52
2, 84314, Note_off_c, 0, 58, 56
2, 84366, Note_off_c, 0, 43, 55
2, 84396, Control_c, 0, 64, 96
2, 85200, Note_on_c, 0, 60, 54
2, 85208, Note_off_c, 0, 45, 53
2, 85210, Note_on_c, 0, 36, 42
2, 85214, Control_c, 0, 64, 20
2, 85243, Note_off_c, 0, 62, 56
2, 85419, Control_c, 0, 64, 96
2, 85552, Note_off_c, 0, 53, 51
2, 85561, Note_off_c, 0, 60, 53
2, 85964, Control_c, 0, 64, 20
2, 86003, Note_off_c, 0, 36, 50
2, 86003, Note_off_c, 0, 48, 56
2, 86064, Note_on_c, 0, 50, 54
2, 86129, Note_on_c, 0, 48, 54
2, 86209, Note_off_c, 0, 50, 53
2, 86311, Note_on_c, 0, 47, 54
2, 86340, Note_off_c, 0, 48, 53
2, 86508, Note_on_c, 0, 48, 58
2, 86527, Note_off_c, 0, 47, 53
2, 86691, Note_on_c, 0, 50, 62
2, 86716, Note_off_c, 0, 48, 54
2, 86833, Note_off_c, 0, 50, 55
2, 86889, Note_on_c, 0, 48, 66
2, 87069, Note_on_c, 0, 65, 57
2, 87159, Note_off_c, 0, 65, 54
2, 87267, Note_on_c, 0, 69, 61
2, 87354, Note_off_c, 0, 69, 55
2, 87447, Note_on_c, 0, 72, 64
2, 87542, Note_off_c, 0, 72, 56
2, 87648, Note_on_c, 0, 45, 65
2, 87649, Note_on_c, 0, 77, 68
2, 87730, Note_off_c, 0, 77, 57
2, 87828, Note_on_c, 0, 81, 71
2, 87908, Note_off_c, 0, 81, 58
2, 88026, Note_on_c, 0, 84, 75
2, 88115, Note_off_c, 0, 84, 59
2, 88206, Note_on_c, 0, 89, 75
2, 88212, Control_c, 0, 64, 96
2, 88407, Note_off_c, 0, 45, 56
2, 88408, Note_on_c, 0, 43, 54
2, 88809, Note_off_c, 0, 48, 56
2, 88841, Note_on_c, 0, 88, 54
2, 88909, Note_off_c, 0, 89, 59
2, 89022, Control_c, 0, 64, 20
2, 89165, Note_off_c, 0, 88, 53
2, 89237, Note_off_c, 0, 43, 53
2, 89274, Note_on_c, 0, 48, 60
2, 89453, Note_on_c, 0, 62, 48
2, 89548, Note_off_c, 0, 62, 52
2, 89654, Note_on_c, 0, 65, 52
2, 89750, Note_off_c, 0, 65, 53
2, 89833, Note_on_c, 0, 69, 57
2, 89934, Note_off_c, 0, 69, 54
2, 90033, Note_on_c, 0, 41, 58
2, 90034, Note_on_c, 0, 74, 62
2, 90128, Note_off_c, 0, 74, 55
2, 90212, Note_on_c, 0, 77, 67
2, 90310, Note_off_c, 0, 77, 57
2, 90395, Note_on_c, 0, 81, 72
2, 90513, Note_off_c, 0, 81, 58
2, 90591, Note_on_c, 0, 86, 72
2, 90598, Control_c, 0, 64, 96
2, 90771, Note_off_c, 0, 41, 54
2, 90774, Note_on_c, 0, 40, 48
2, 91207, Note_on_c, 0, 84, 60
2, 91316, Note_off_c, 0, 86, 58
2, 91326, Control_c, 0, 64, 20
2, 91622, Note_off_c, 0, 40, 52
2, 91625, Note_on_c, 0, 41, 48
2, 91821, Note_on_c, 0, 83, 62
2, 91858, Note_off_c, 0, 84, 55
2, 92001, Note_off_c, 0, 48, 55
2, 92003, Note_on_c, 0, 49, 52
2, 92202, Note_on_c, 0, 81, 66
2, 92222, Note_off_c, 0, 83, 55
2, 92381, Note_off_c, 0, 49, 53
2, 92383, Note_on_c, 0, 50, 56
2, 92581, Note_off_c, 0, 81, 56
2, 92582, Note_on_c, 0, 79, 70
2, 92760, Note_off_c, 0, 50, 54
2, 92762, Note_on_c, 0, 52, 60
2, 92961, Note_off_c, 0, 79, 57
2, 92962, Note_on_c, 0, 77, 74
2, 93140, Note_off_c, 0, 52, 55
2, 93142, Note_on_c, 0, 53, 64
2, 93339, Note_off_c, 0, 77, 59
2, 93340, Note_on_c, 0, 76, 78
2, 93519, Note_off_c, 0, 53, 56
2, 93521, Note_off_c, 0, 41, 52
2, 93522, Note_on_c, 0, 42, 53
2, 93523, Note_on_c, 0, 54, 68
2, 93720, Note_off_c, 0, 76, 59
2, 93721, Note_on_c, 0, 74, 64
2, 93891, Note_on_c, 0, 72, 70
2, 93900, Note_off_c, 0, 74, 56
2, 93901, Note_off_c, 0, 42, 53
2, 93902, Note_off_c, 0, 54, 57
2, 93904, Note_on_c, 0, 64, 50
2, 93905, Note_on_c, 0, 43, 55
2, 93906, Note_on_c, 0, 55, 53
2, 94028, Control_c, 0, 64, 96
2, 94742, Note_on_c, 0, 71, 50
2, 94748, Note_off_c, 0, 64, 52
2, 94752, Note_on_c, 0, 62, 35
2, 94759, Control_c, 0, 64, 20
2, 94785, Note_off_c, 0, 72, 57
2, 94981, Control_c, 0, 64, 96
2, 95056, Note_off_c, 0, 62, 48
2, 95091, Note_off_c, 0, 71, 52
2, 95452, Note_off_c, 0, 55, 53
2, 95454, Note_off_c, 0, 43, 53
2, 95533, Note_on_c, 0, 69, 46
2, 95536, Control_c, 0, 64, 20
2, 95581, Note_on_c, 0, 67, 46
2, 95657, Note_off_c, 0, 69, 51
2, 95778, Note_on_c, 0, 66, 47
2, 95816, Note_off_c, 0, 67, 51
2, 95961, Note_on_c, 0, 67, 48
2, 95996, Note_off_c, 0, 66, 51
2, 96158, Note_on_c, 0, 69, 49
2, 96164, Note_off_c, 0, 67, 52
2, 96302, Note_off_c, 0, 69, 52
2, 96338, Note_on_c, 0, 67, 50
2, 96527, Note_on_c, 0, 71, 51
2, 96536, Note_on_c, 0, 63, 34
2, 96709, Note_on_c, 0, 74, 52
2, 96721, Note_on_c, 0, 65, 34
2, 96728, Note_off_c, 0, 63, 48
2, 96732, Note_off_c, 0, 71, 52
2, 96895, Note_off_c, 0, 74, 53
2, 96910, Note_on_c, 0, 72, 53
2, 96919, Note_on_c, 0, 64, 36
2, 96936, Note_off_c, 0, 65, 48
2, 97089, Note_on_c, 0, 76, 54
2, 97097, Note_off_c, 0, 64, 49
2, 97101, Note_on_c, 0, 60, 38
2, 97113, Note_off_c, 0, 72, 53
2, 97282, Note_off_c, 0, 60, 49
2, 97289, Note_on_c, 0, 74, 55
2, 97298, Note_on_c, 0, 59, 40
2, 97302, Note_off_c, 0, 76, 53
2, 97468, Note_off_c, 0, 74, 53
2, 97470, Note_on_c, 0, 77, 56
2, 97481, Note_on_c, 0, 62, 42
2, 97508, Note_off_c, 0, 59, 50
2, 97669, Note_on_c, 0, 76, 58
2, 97678, Note_on_c, 0, 60, 44
2, 97683, Note_off_c, 0, 62, 50
2, 97687, Note_off_c, 0, 77, 54
2, 97765, Note_off_c, 0, 67, 52
2, 97844, Note_off_c, 0, 76, 54
2, 97862, Note_on_c, 0, 79, 58
2, 97867, Note_off_c, 0, 60, 51
2, 97876, Note_on_c, 0, 67, 42
2, 97877, Note_on_c, 0, 64, 46
2, 98059, Note_off_c, 0, 64, 51
2, 98063, Note_off_c, 0, 79, 54
2, 98065, Note_on_c, 0, 78, 58
2, 98075, Note_on_c, 0, 63, 46
2, 98274, Note_off_c, 0, 78, 54
2, 98281, Note_on_c, 0, 79, 57
2, 98293, Note_on_c, 0, 64, 45
2, 98297, Note_off_c, 0, 63, 51
2, 98481, Note_on_c, 0, 76, 55
2, 98493, Note_on_c, 0, 60, 43
2, 98496, Note_off_c, 0, 64, 51
2, 98498, Note_off_c, 0, 79, 54
2, 98609, Note_off_c, 0, 67, 50
2, 98698, Note_on_c, 0, 73, 55
2, 98710, Note_on_c, 0, 67, 30
2, 98719, Note_on_c, 0, 58, 41
2, 98727, Control_c, 0, 64, 96
2, 98729, Note_off_c, 0, 76, 53
2, 98735, Note_off_c, 0, 60, 50
2, 99568, Note_on_c, 0, 74, 46
2, 99575, Note_on_c, 0, 59, 34
2, 99586, Control_c, 0, 64, 20
2, 99644, Note_off_c, 0, 73, 53
2, 99658, Note_off_c, 0, 58, 50
2, 99784, Control_c, 0, 64, 96
2, 99888, Note_off_c, 0, 74, 51
2, 99899, Note_off_c, 0, 59, 48
2, 100005, Note_off_c, 0, 67, 47
2, 100271, Control_c, 0, 64, 20
2, 100373, Note_on_c, 0, 69, 50
2, 100440, Note_on_c, 0, 67, 50
2, 100499, Note_off_c, 0, 69, 52
2, 100641, Note_on_c, 0, 66, 53
2, 100702, Note_off_c, 0, 67, 52
2, 100820, Note_on_c, 0, 67, 55
2, 100844, Note_off_c, 0, 66, 53
2, 101020, Note_on_c, 0, 69, 58
2, 101034, Note_off_c, 0, 67, 53
2, 101161, Note_off_c, 0, 69, 54
2, 101200, Note_on_c, 0, 67, 60
2, 101268, Control_c, 0, 64, 96
2, 101397, Note_on_c, 0, 73, 62
2, 101400, Note_on_c, 0, 64, 46
2, 101499, Note_off_c, 0, 67, 55
2, 101579, Note_off_c, 0, 64, 51
2, 101583, Note_on_c, 0, 67, 50
2, 101584, Note_on_c, 0, 76, 65
2, 101607, Note_off_c, 0, 73, 55
2, 101763, Control_c, 0, 64, 20
2, 101771, Note_off_c, 0, 76, 56
2, 101779, Note_on_c, 0, 74, 67
2, 101781, Note_on_c, 0, 65, 54
2, 101959, Note_off_c, 0, 65, 53
2, 101960, Note_on_c, 0, 77, 70
2, 101961, Note_on_c, 0, 62, 58
2, 101963, Note_off_c, 0, 67, 52
2, 101967, Note_off_c, 0, 74, 57
2, 102092, Control_c, 0, 64, 96
2, 102159, Note_off_c, 0, 62, 54
2, 102160, Note_on_c, 0, 61, 58
2, 102161, Note_on_c, 0, 76, 70
2, 102190, Note_off_c, 0, 77, 57
2, 102338, Note_off_c, 0, 61, 54
2, 102339, Note_off_c, 0, 76, 57
2, 102342, Note_on_c, 0, 64, 58
2, 102343, Note_on_c, 0, 79, 68
2, 102539, Note_off_c, 0, 64, 54
2, 102539, Note_on_c, 0, 62, 56
2, 102540, Note_on_c, 0, 77, 66
2, 102541, Note_off_c, 0, 79, 57
2, 102717, Note_off_c, 0, 62, 54
2, 102721, Note_on_c, 0, 81, 64
2, 102727, Note_on_c, 0, 65, 52
2, 102729, Note_on_c, 0, 67, 54
2, 102737, Note_off_c, 0, 77, 56
2, 102755, Control_c, 0, 64, 20
2, 102928, Note_on_c, 0, 80, 62
2, 102930, Note_on_c, 0, 64, 51
2, 102934, Note_off_c, 0, 65, 53
2, 102940, Note_off_c, 0, 81, 56
2, 102981, Control_c, 0, 64, 96
2, 103134, Note_off_c, 0, 64, 52
2, 103136, Note_on_c, 0, 65, 49
2, 103137, Note_on_c, 0, 81, 60
2, 103153, Note_off_c, 0, 80, 55
2, 103341, Note_off_c, 0, 65, 52
2, 103342, Note_on_c, 0, 77, 57
2, 103343, Note_on_c, 0, 62, 46
2, 103376, Note_off_c, 0, 81, 55
2, 103476, Note_off_c, 0, 67, 53
2, 103549, Note_off_c, 0, 62, 51
2, 103575, Note_off_c, 0, 77, 54
2, 103577, Note_on_c, 0, 75, 55
2, 103587, Note_on_c, 0, 67, 38
2, 103590, Note_on_c, 0, 59, 44
2, 103591, Control_c, 0, 64, 20
2, 103829, Control_c, 0, 64, 96
2, 104522, Note_on_c, 0, 76, 46
2, 104532, Note_on_c, 0, 60, 34
2, 104543, Control_c, 0, 64, 20
2, 104580, Note_off_c, 0, 75, 53
2, 104621, Note_off_c, 0, 59, 51
2, 104782, Control_c, 0, 64, 96
2, 104887, Note_off_c, 0, 60, 48
2, 104940, Note_off_c, 0, 76, 51
2, 104981, Note_off_c, 0, 67, 49
2, 105303, Control_c, 0, 64, 20
2, 105355, Note_on_c, 0, 77, 60
2, 105426, Note_on_c, 0, 76, 60
2, 105481, Note_off_c, 0, 77, 55
2, 105624, Note_on_c, 0, 74, 63
2, 105675, Note_off_c, 0, 76, 55
2, 105806, Note_on_c, 0, 76, 66
2, 105838, Note_off_c, 0, 74, 55
2, 106004, Note_on_c, 0, 77, 66
2, 106027, Note_off_c, 0, 76, 56
2, 106139, Note_off_c, 0, 77, 56
2, 106182, Note_on_c, 0, 79, 54
2, 106185, Note_on_c, 0, 36, 54
2, 106291, Note_off_c, 0, 79, 53
2, 106386, Note_on_c, 0, 64, 54
2, 106393, Note_on_c, 0, 60, 45
2, 106480, Note_off_c, 0, 64, 53
2, 106481, Note_off_c, 0, 60, 51
2, 106583, Note_on_c, 0, 62, 46
2, 106587, Note_on_c, 0, 65, 55
2, 106679, Note_off_c, 0, 62, 51
2, 106688, Note_off_c, 0, 65, 53
2, 106786, Note_on_c, 0, 67, 57
2, 106789, Note_on_c, 0, 64, 49
2, 106873, Note_off_c, 0, 67, 54
2, 106883, Note_off_c, 0, 64, 52
2, 106982, Note_on_c, 0, 65, 51
2, 106987, Note_on_c, 0, 69, 59
2, 107080, Note_off_c, 0, 65, 52
2, 107091, Note_off_c, 0, 69, 54
2, 107175, Note_on_c, 0, 67, 54
2, 107185, Note_on_c, 0, 71, 60
2, 107268, Note_off_c, 0, 67, 53
2, 107290, Note_off_c, 0, 71, 55
2, 107384, Note_on_c, 0, 72, 62
2, 107386, Note_on_c, 0, 69, 53
2, 107459, Note_off_c, 0, 69, 53
2, 107467, Note_off_c, 0, 72, 55
2, 107580, Note_on_c, 0, 71, 59
2, 107583, Note_on_c, 0, 74, 64
2, 107664, Note_off_c, 0, 71, 54
2, 107669, Note_off_c, 0, 74, 56
2, 107759, Note_on_c, 0, 76, 66
2, 107759, Note_on_c, 0, 72, 58
2, 107850, Note_off_c, 0, 72, 54
2, 107858, Note_off_c, 0, 76, 56
2, 107953, Note_off_c, 0, 36, 53
2, 107963, Note_on_c, 0, 76, 67
2, 107965, Note_on_c, 0, 72, 56
2, 107967, Note_on_c, 0, 48, 58
2, 108046, Note_off_c, 0, 76, 57
2, 108050, Note_off_c, 0, 48, 54
2, 108051, Note_off_c, 0, 72, 54
2, 108139, Note_on_c, 0, 47, 60
2, 108140, Note_on_c, 0, 74, 66
2, 108142, Note_on_c, 0, 77, 69
2, 108226, Note_off_c, 0, 47, 55
2, 108233, Note_off_c, 0, 77, 57
2, 108240, Note_off_c, 0, 74, 56
2, 108338, Note_on_c, 0, 79, 71
2, 108342, Note_on_c, 0, 45, 61
2, 108348, Note_on_c, 0, 76, 66
2, 108411, Note_off_c, 0, 79, 58
2, 108414, Note_off_c, 0, 45, 55
2, 108427, Note_off_c, 0, 76, 56
2, 108526, Note_on_c, 0, 43, 62
2, 108527, Note_on_c, 0, 77, 64
2, 108529, Note_on_c, 0, 81, 72
2, 108611, Note_off_c, 0, 77, 56
2, 108614, Note_off_c, 0, 43, 55
2, 108618, Note_off_c, 0, 81, 58
2, 108713, Note_on_c, 0, 41, 63
2, 108722, Note_on_c, 0, 79, 56
2, 108724, Note_on_c, 0, 83, 74
2, 108792, Note_off_c, 0, 41, 55
2, 108797, Note_off_c, 0, 83, 59
2, 108800, Note_off_c, 0, 79, 54
2, 108897, Note_on_c, 0, 81, 69
2, 108904, Note_on_c, 0, 40, 64
2, 108906, Note_on_c, 0, 84, 76
2, 108980, Note_off_c, 0, 84, 59
2, 108987, Note_off_c, 0, 81, 57
2, 108988, Note_off_c, 0, 40, 56
2, 109077, Note_on_c, 0, 38, 63
2, 109078, Note_on_c, 0, 83, 66
2, 109084, Note_on_c, 0, 86, 78
2, 109170, Note_off_c, 0, 86, 59
2, 109172, Note_off_c, 0, 83, 56
2, 109173, Note_off_c, 0, 38, 55
2, 109278, Note_on_c, 0, 88, 78
2, 109280, Note_on_c, 0, 84, 71
2, 109287, Note_on_c, 0, 36, 66
2, 109350, Note_off_c, 0, 88, 59
2, 109364, Note_off_c, 0, 84, 58
2, 109366, Note_off_c, 0, 36, 56
2, 109460, Note_on_c, 0, 86, 78
2, 109464, Note_on_c, 0, 38, 66
2, 109467, Note_on_c, 0, 83, 71
2, 109542, Note_off_c, 0, 83, 58
2, 109543, Note_off_c, 0, 86, 59
2, 109551, Note_off_c, 0, 38, 56
2, 109637, Note_on_c, 0, 81, 69
2, 109639, Note_on_c, 0, 84, 76
2, 109645, Note_on_c, 0, 40, 65
2, 109726, Note_off_c, 0, 84, 59
2, 109735, Note_off_c, 0, 81, 57
2, 109743, Note_off_c, 0, 40, 56
2, 109840, Note_on_c, 0, 79, 56
2, 109842, Note_on_c, 0, 41, 64
2, 109843, Note_on_c, 0, 83, 73
2, 109921, Note_off_c, 0, 79, 54
2, 109921, Note_off_c, 0, 41, 56
2, 109929, Note_off_c, 0, 83, 58
2, 110032, Note_on_c, 0, 81, 70
2, 110039, Note_on_c, 0, 77, 65
2, 110041, Note_on_c, 0, 43, 62
2, 110112, Note_off_c, 0, 81, 57
2, 110115, Note_off_c, 0, 43, 55
2, 110120, Note_off_c, 0, 77, 56
2, 110236, Note_on_c, 0, 45, 61
2, 110242, Note_on_c, 0, 76, 65
2, 110244, Note_on_c, 0, 79, 68
2, 110312, Note_off_c, 0, 76, 56
2, 110319, Note_off_c, 0, 45, 55
2, 110328, Note_off_c, 0, 79, 57
2, 110438, Note_on_c, 0, 47, 60
2, 110441, Note_on_c, 0, 74, 56
2, 110442, Note_on_c, 0, 77, 65
2, 110524, Note_off_c, 0, 47, 55
2, 110529, Note_off_c, 0, 77, 56
2, 110530, Note_off_c, 0, 74, 54
2, 110635, Note_on_c, 0, 76, 62
2, 110636, Note_on_c, 0, 72, 56
2, 110637, Note_on_c, 0, 48, 58
2, 110715, Note_off_c, 0, 76, 55
2, 110717, Note_off_c, 0, 48, 54
2, 110721, Note_off_c, 0, 72, 54
2, 110799, Control_c, 0, 64, 96
2, 110822, Note_on_c, 0, 79, 60
2, 110833, Note_on_c, 0, 70, 45
2, 110834, Note_on_c, 0, 49, 50
2, 110835, Note_on_c, 0, 41, 55
2, 111046, Note_on_c, 0, 50, 45
2, 111047, Note_on_c, 0, 69, 50
2, 111048, Note_on_c, 0, 77, 57
2, 111071, Note_off_c, 0, 70, 51
2, 111132, Note_off_c, 0, 79, 55
2, 111143, Note_off_c, 0, 49, 52
2, 111188, Note_off_c, 0, 50, 51
2, 111212, Note_off_c, 0, 69, 52
2, 111225, Note_off_c, 0, 77, 54
2, 111247, Control_c, 0, 64, 20
2, 111273, Note_on_c, 0, 52, 35
2, 111274, Note_on_c, 0, 67, 40
2, 111275, Note_on_c, 0, 76, 54
2, 111368, Note_off_c, 0, 52, 48
2, 111377, Note_off_c, 0, 67, 50
2, 111399, Note_off_c, 0, 76, 53
2, 111503, Note_on_c, 0, 65, 34
2, 111504, Note_on_c, 0, 53, 46
2, 111505, Note_on_c, 0, 74, 54
2, 111581, Note_off_c, 0, 41, 53
2, 111611, Note_off_c, 0, 53, 51
2, 111613, Note_off_c, 0, 65, 48
2, 111629, Note_off_c, 0, 74, 53
2, 111732, Note_on_c, 0, 72, 58
2, 111735, Control_c, 0, 64, 96
2, 111739, Note_on_c, 0, 43, 30
2, 111749, Note_on_c, 0, 64, 38
2, 111750, Note_on_c, 0, 55, 46
2, 112475, Note_off_c, 0, 64, 49
2, 112535, Note_off_c, 0, 72, 54
2, 112566, Note_off_c, 0, 55, 51
2, 112605, Note_on_c, 0, 71, 73
2, 112614, Control_c, 0, 64, 20
2, 112637, Note_on_c, 0, 65, 54
2, 112639, Note_on_c, 0, 56, 49
2, 112641, Note_on_c, 0, 62, 40
2, 112645, Note_on_c, 0, 44, 58
2, 112755, Note_off_c, 0, 43, 47
2, 112846, Control_c, 0, 64, 96
2, 113338, Note_off_c, 0, 62, 49
2, 113351, Note_off_c, 0, 56, 51
2, 113482, Note_off_c, 0, 71, 56
2, 113495, Note_off_c, 0, 65, 52
2, 113505, Note_on_c, 0, 45, 66
2, 113506, Note_on_c, 0, 74, 79
2, 113516, Note_on_c, 0, 57, 55
2, 113517, Control_c, 0, 64, 20
2, 113551, Note_off_c, 0, 44, 53
2, 113678, Note_on_c, 0, 72, 71
2, 113696, Note_off_c, 0, 74, 56
2, 113706, Control_c, 0, 64, 96
2, 113773, Note_off_c, 0, 57, 51
2, 113774, Note_off_c, 0, 45, 53
2, 113885, Note_on_c, 0, 60, 55
2, 113886, Note_on_c, 0, 57, 58
2, 113887, Note_on_c, 0, 71, 76
2, 113914, Note_off_c, 0, 72, 54
2, 114060, Note_on_c, 0, 69, 68
2, 114095, Note_off_c, 0, 71, 54
2, 114207, Note_off_c, 0, 69, 53
2, 114271, Note_on_c, 0, 62, 44
2, 114272, Note_on_c, 0, 59, 52
2, 114273, Note_on_c, 0, 67, 71
2, 114302, Note_off_c, 0, 60, 50
2, 114350, Control_c, 0, 64, 20
2, 114394, Note_off_c, 0, 57, 51
2, 114614, Control_c, 0, 64, 96
2, 114673, Note_on_c, 0, 55, 58
2, 114674, Note_on_c, 0, 65, 78
2, 114677, Note_off_c, 0, 67, 53
2, 114735, Note_off_c, 0, 59, 49
2, 114759, Note_off_c, 0, 62, 48
2, 115091, Note_on_c, 0, 60, 72
2, 115142, Note_off_c, 0, 55, 50
2, 115516, Note_on_c, 0, 48, 26
2, 115517, Note_on_c, 0, 64, 36
2, 115521, Control_c, 0, 64, 20
2, 115574, Note_off_c, 0, 65, 54
2, 115606, Note_off_c, 0, 60, 54
2, 115742, Control_c, 0, 64, 96
2, 115841, Note_off_c, 0, 48, 48
2, 115985, Note_on_c, 0, 53, 30
2, 115986, Note_on_c, 0, 57, 36
2, 116073, Note_on_c, 0, 62, 48
2, 116076, Note_off_c, 0, 64, 50
2, 116147, Note_off_c, 0, 62, 53
2, 116274, Control_c, 0, 64, 20
2, 116275, Note_off_c, 0, 53, 49
2, 116284, Note_off_c, 0, 57, 50
2, 116356, Note_on_c, 0, 61, 49
2, 116466, Note_on_c, 0, 62, 50
2, 116539, Note_off_c, 0, 62, 54
2, 116550, Note_off_c, 0, 61, 53
2, 116754, Note_on_c, 0, 64, 52
2, 116853, Note_on_c, 0, 65, 53
2, 116915, Note_off_c, 0, 64, 54
2, 116924, Note_off_c, 0, 65, 54
2, 117139, Note_on_c, 0, 68, 54
2, 117236, Note_on_c, 0, 69, 54
2, 117309, Note_off_c, 0, 69, 55
2, 117310, Note_off_c, 0, 68, 55
2, 117525, Note_on_c, 0, 41, 24
2, 117525, Note_on_c, 0, 45, 29
2, 117526, Note_on_c, 0, 50, 36
2, 117538, Note_on_c, 0, 67, 52
2, 117652, Note_on_c, 0, 65, 51
2, 117706, Note_off_c, 0, 65, 54
2, 117708, Note_off_c, 0, 67, 54
2, 117854, Note_off_c, 0, 45, 48
2, 117865, Note_off_c, 0, 41, 47
2, 117869, Note_off_c, 0, 50, 50
2, 117934, Note_on_c, 0, 64, 49
2, 118068, Note_on_c, 0, 62, 48
2, 118105, Note_off_c, 0, 64, 53
2, 118140, Note_off_c, 0, 62, 53
2, 118358, Note_on_c, 0, 60, 48
2, 118376, Note_on_c, 0, 55, 28
2, 118377, Note_on_c, 0, 52, 40
2, 118388, Control_c, 0, 64, 96
2, 119246, Note_on_c, 0, 43, 36
2, 119359, Note_off_c, 0, 55, 47
2, 119496, Note_off_c, 0, 52, 50
2, 119675, Note_off_c, 0, 60, 52
2, 119677, Note_on_c, 0, 62, 43
2, 119784, Note_on_c, 0, 60, 45
2, 119787, Note_off_c, 0, 43, 49
2, 119840, Note_off_c, 0, 62, 50
2, 119894, Note_on_c, 0, 59, 44
2, 119924, Note_off_c, 0, 60, 51
2, 120020, Note_on_c, 0, 60, 43
2, 120042, Note_off_c, 0, 59, 51
2, 120109, Note_off_c, 0, 60, 50
2, 120131, Note_on_c, 0, 62, 36
2, 120151, Note_on_c, 0, 31, 20
2, 120152, Note_on_c, 0, 43, 26
2, 120153, Note_on_c, 0, 55, 28
2, 120154, Note_on_c, 0, 53, 36
2, 120156, Control_c, 0, 64, 20
2, 120364, Control_c, 0, 64, 96
2, 120656, Note_off_c, 0, 43, 46
2, 120738, Note_off_c, 0, 31, 45
2, 120740, Note_off_c, 0, 55, 47
2, 120742, Note_off_c, 0, 53, 49
2, 120852, Note_off_c, 0, 62, 49
2, 120891, Note_on_c, 0, 59, 44
2, 121106, Note_off_c, 0, 59, 51
2, 121107, Note_on_c, 0, 60, 47
2, 121117, Note_on_c, 0, 36, 23
2, 121118, Note_on_c, 0, 52, 28
2, 121119, Note_on_c, 0, 55, 34
2, 121123, Control_c, 0, 64, 20
2, 121332, Control_c, 0, 64, 96
2, 121759, Note_off_c, 0, 52, 47
2, 121854, Note_off_c, 0, 55, 48
2, 122083, Note_off_c, 0, 60, 51
2, 122083, Note_on_c, 0, 48, 55
2, 122279, Control_c, 0, 64, 20
2, 123067, Note_off_c, 0, 36, 45
2, 123067, Note_on_c, 0, 72, 66
2, 123077, Note_on_c, 0, 68, 46
2, 123078, Note_on_c, 0, 65, 54
2, 123081, Control_c, 0, 64, 96
2, 123572, Note_off_c, 0, 68, 51
2, 123617, Note_off_c, 0, 65, 53
2, 123674, Note_on_c, 0, 73, 66
2, 123710, Note_off_c, 0, 72, 56
2, 123769, Control_c, 0, 64, 20
2, 123818, Note_on_c, 0, 36, 40
2, 123819, Note_on_c, 0, 72, 64
2, 123836, Note_on_c, 0, 67, 44
2, 123837, Note_on_c, 0, 64, 58
2, 123857, Note_off_c, 0, 73, 56
2, 124016, Control_c, 0, 64, 96
2, 124222, Note_off_c, 0, 48, 53
2, 124642, Note_on_c, 0, 70, 54
2, 124643, Note_on_c, 0, 48, 56
2, 124645, Control_c, 0, 64, 20
2, 124687, Note_off_c, 0, 72, 56
2, 124847, Note_off_c, 0, 64, 54
2, 124852, Control_c, 0, 64, 96
2, 125057, Note_off_c, 0, 67, 51
2, 125256, Note_off_c, 0, 70, 53
2, 125462, Note_on_c, 0, 68, 78
2, 125471, Note_on_c, 0, 65, 47
2, 125472, Note_on_c, 0, 60, 58
2, 125480, Control_c, 0, 64, 20
2, 125688, Control_c, 0, 64, 96
2, 125934, Note_off_c, 0, 60, 54
2, 125935, Note_off_c, 0, 65, 51
2, 126085, Note_on_c, 0, 70, 63
2, 126087, Note_off_c, 0, 68, 59
2, 126254, Note_on_c, 0, 68, 66
2, 126262, Note_on_c, 0, 60, 42
2, 126266, Control_c, 0, 64, 20
2, 126272, Note_on_c, 0, 64, 54
2, 126300, Note_off_c, 0, 70, 55
2, 126475, Control_c, 0, 64, 96
2, 126548, Note_off_c, 0, 60, 50
2, 126592, Note_off_c, 0, 48, 54
2, 126599, Note_off_c, 0, 36, 50
2, 126704, Note_on_c, 0, 60, 44
2, 127118, Note_on_c, 0, 67, 54
2, 127130, Note_on_c, 0, 59, 44
2, 127132, Control_c, 0, 64, 20
2, 127186, Note_off_c, 0, 68, 56
2, 127199, Note_off_c, 0, 60, 51
2, 127330, Control_c, 0, 64, 96
2, 127545, Note_on_c, 0, 58, 46
2, 127616, Note_off_c, 0, 59, 51
2, 127761, Note_off_c, 0, 67, 53
2, 127766, Note_off_c, 0, 64, 53
2, 127987, Note_on_c, 0, 72, 58
2, 127989, Note_on_c, 0, 57, 48
2, 128000, Control_c, 0, 64, 20
2, 128082, Note_off_c, 0, 58, 51
2, 128208, Control_c, 0, 64, 96
2, 128369, Note_on_c, 0, 54, 50
2, 128428, Note_off_c, 0, 57, 52
2, 128617, Note_on_c, 0, 74, 64
2, 128638, Note_off_c, 0, 72, 54
2, 128726, Control_c, 0, 64, 20
2, 128752, Note_on_c, 0, 72, 66
2, 128761, Note_on_c, 0, 55, 54
2, 128792, Note_off_c, 0, 54, 52
2, 128800, Note_off_c, 0, 74, 56
2, 128946, Control_c, 0, 64, 96
2, 129175, Note_on_c, 0, 54, 52
2, 129250, Note_off_c, 0, 55, 53
2, 129593, Note_on_c, 0, 70, 54
2, 129595, Note_on_c, 0, 55, 53
2, 129604, Control_c, 0, 64, 20
2, 129626, Note_off_c, 0, 72, 56
2, 129627, Note_off_c, 0, 54, 53
2, 129801, Control_c, 0, 64, 96
2, 129982, Note_on_c, 0, 52, 52
2, 130001, Note_off_c, 0, 55, 53
2, 130358, Note_off_c, 0, 52, 53
2, 130372, Note_on_c, 0, 53, 51
2, 130373, Note_on_c, 0, 69, 58
2, 130380, Control_c, 0, 64, 20
2, 130458, Note_off_c, 0, 70, 53
2, 130575, Control_c, 0, 64, 96
2, 130761, Note_on_c, 0, 50, 50
2, 130791, Note_off_c, 0, 53, 52
2, 130987, Note_on_c, 0, 70, 64
2, 131010, Note_off_c, 0, 69, 54
2, 131092, Control_c, 0, 64, 20
2, 131139, Note_on_c, 0, 69, 66
2, 131141, Note_on_c, 0, 52, 48
2, 131195, Note_off_c, 0, 70, 56
2, 131215, Note_off_c, 0, 50, 52
2, 131291, Control_c, 0, 64, 96
2, 131555, Note_on_c, 0, 50, 47
2, 131625, Note_off_c, 0, 52, 52
2, 131995, Note_on_c, 0, 67, 54
2, 131998, Note_on_c, 0, 52, 46
2, 132007, Control_c, 0, 64, 20
2, 132029, Note_off_c, 0, 50, 51
2, 132088, Note_off_c, 0, 69, 56
2, 132213, Control_c, 0, 64, 96
2, 132440, Note_on_c, 0, 49, 45
2, 132518, Note_off_c, 0, 52, 51
2, 132896, Note_on_c, 0, 65, 54
2, 132904, Note_on_c, 0, 50, 44
2, 132906, Control_c, 0, 64, 20
2, 132918, Note_off_c, 0, 49, 51
2, 133070, Note_off_c, 0, 67, 53
2, 133117, Control_c, 0, 64, 96
2, 133287, Note_on_c, 0, 48, 42
2, 133339, Note_off_c, 0, 50, 51
2, 133511, Note_off_c, 0, 65, 53
2, 133520, Note_on_c, 0, 66, 62
2, 133577, Control_c, 0, 64, 20
2, 133650, Note_on_c, 0, 67, 65
2, 133653, Note_on_c, 0, 46, 42
2, 133670, Note_off_c, 0, 66, 55
2, 133726, Note_off_c, 0, 48, 50
2, 133792, Control_c, 0, 64, 96
2, 134037, Note_off_c, 0, 67, 56
2, 134040, Note_on_c, 0, 69, 70
2, 134050, Note_on_c, 0, 50, 52
2, 134079, Note_off_c, 0, 46, 50
2, 134159, Note_on_c, 0, 67, 72
2, 134181, Note_off_c, 0, 69, 57
2, 134275, Note_off_c, 0, 67, 58
2, 134278, Note_on_c, 0, 66, 74
2, 134398, Note_on_c, 0, 67, 76
2, 134411, Note_on_c, 0, 46, 62
2, 134411, Control_c, 0, 64, 20
2, 134442, Note_off_c, 0, 66, 59
2, 134469, Note_off_c, 0, 50, 53
2, 134614, Control_c, 0, 64, 96
2, 134770, Note_on_c, 0, 42, 72
2, 134816, Note_off_c, 0, 46, 55
2, 134969, Note_off_c, 0, 67, 59
2, 135010, Note_on_c, 0, 69, 84
2, 135139, Control_c, 0, 64, 20
2, 135159, Note_off_c, 0, 42, 58
2, 135167, Note_on_c, 0, 43, 78
2, 135195, Note_off_c, 0, 69, 61
2, 135228, Note_on_c, 0, 72, 87
2, 135304, Note_on_c, 0, 70, 90
2, 135343, Note_off_c, 0, 72, 61
2, 135354, Control_c, 0, 64, 96
2, 135557, Note_on_c, 0, 46, 66
2, 135582, Note_off_c, 0, 43, 59
2, 135690, Note_off_c, 0, 70, 62
2, 135746, Note_on_c, 0, 67, 66
2, 135888, Note_off_c, 0, 67, 56
2, 135906, Control_c, 0, 64, 20
2, 135926, Note_on_c, 0, 65, 54
2, 135931, Note_on_c, 0, 48, 42
2, 135978, Note_off_c, 0, 46, 56
2, 136109, Control_c, 0, 64, 96
2, 136343, Note_off_c, 0, 48, 50
2, 136347, Note_on_c, 0, 36, 42
2, 136735, Note_off_c, 0, 65, 53
2, 136737, Note_on_c, 0, 64, 57
2, 136743, Note_on_c, 0, 48, 33
2, 136749, Control_c, 0, 64, 20
2, 136763, Note_off_c, 0, 36, 50
2, 136922, Control_c, 0, 64, 96
2, 137040, Note_off_c, 0, 64, 54
2, 137134, Note_on_c, 0, 46, 36
2, 137195, Note_off_c, 0, 48, 48
2, 137536, Note_on_c, 0, 72, 63
2, 137547, Note_on_c, 0, 45, 39
2, 137548, Note_on_c, 0, 60, 54
2, 137556, Control_c, 0, 64, 20
2, 137584, Note_off_c, 0, 46, 49
2, 137741, Control_c, 0, 64, 96
2, 137925, Note_on_c, 0, 42, 42
2, 137978, Note_off_c, 0, 45, 49
2, 138056, Note_off_c, 0, 60, 53
2, 138098, Note_off_c, 0, 72, 55
2, 138102, Note_on_c, 0, 74, 66
2, 138110, Note_on_c, 0, 62, 58
2, 138267, Note_off_c, 0, 62, 54
2, 138289, Note_off_c, 0, 42, 50
2, 138304, Note_off_c, 0, 74, 56
2, 138306, Note_on_c, 0, 72, 54
2, 138315, Note_on_c, 0, 60, 46
2, 138319, Note_on_c, 0, 43, 36
2, 138328, Control_c, 0, 64, 20
2, 138502, Control_c, 0, 64, 96
2, 138701, Note_on_c, 0, 42, 40
2, 138759, Note_off_c, 0, 43, 49
2, 138870, Note_off_c, 0, 60, 51
2, 139078, Note_off_c, 0, 72, 53
2, 139084, Note_off_c, 0, 42, 50
2, 139085, Note_on_c, 0, 70, 57
2, 139093, Note_on_c, 0, 43, 38
2, 139094, Note_on_c, 0, 58, 44
2, 139096, Control_c, 0, 64, 20
2, 139272, Control_c, 0, 64, 96
2, 139495, Note_off_c, 0, 43, 49
2, 139502, Note_on_c, 0, 40, 35
2, 139680, Note_off_c, 0, 70, 54
2, 139693, Note_off_c, 0, 58, 51
2, 139887, Note_on_c, 0, 69, 63
2, 139899, Note_on_c, 0, 41, 33
2, 139900, Note_on_c, 0, 57, 51
2, 139908, Control_c, 0, 64, 20
2, 139934, Note_off_c, 0, 40, 48
2, 140089, Control_c, 0, 64, 96
2, 140272, Note_off_c, 0, 41, 48
2, 140285, Note_on_c, 0, 38, 30
2, 140445, Note_off_c, 0, 57, 52
2, 140484, Note_off_c, 0, 69, 55
2, 140507, Note_on_c, 0, 70, 66
2, 140516, Note_on_c, 0, 58, 51
2, 140663, Note_on_c, 0, 69, 54
2, 140673, Note_on_c, 0, 40, 30
2, 140674, Note_on_c, 0, 57, 43
2, 140680, Control_c, 0, 64, 20
2, 140684, Note_off_c, 0, 58, 52
2, 140702, Note_off_c, 0, 38, 47
2, 140714, Note_off_c, 0, 70, 56
2, 140863, Control_c, 0, 64, 96
2, 141115, Note_on_c, 0, 38, 34
2, 141163, Note_off_c, 0, 40, 47
2, 141431, Note_off_c, 0, 57, 50
2, 141558, Note_on_c, 0, 67, 61
2, 141568, Note_on_c, 0, 40, 38
2, 141569, Note_on_c, 0, 55, 49
2, 141572, Note_off_c, 0, 69, 53
2, 141576, Control_c, 0, 64, 20
2, 141585, Note_off_c, 0, 38, 48
2, 141765, Control_c, 0, 64, 96
2, 142002, Note_on_c, 0, 37, 42
2, 142034, Note_off_c, 0, 40, 49
2, 142181, Note_off_c, 0, 55, 52
2, 142230, Note_off_c, 0, 67, 55
2, 142458, Note_off_c, 0, 37, 50
2, 142459, Note_on_c, 0, 53, 62
2, 142460, Note_on_c, 0, 65, 75
2, 142465, Note_on_c, 0, 38, 46
2, 142467, Control_c, 0, 64, 20
2, 142658, Control_c, 0, 64, 96
2, 142873, Note_off_c, 0, 38, 51
2, 142874, Note_on_c, 0, 34, 50
2, 143023, Note_off_c, 0, 53, 55
2, 143053, Note_off_c, 0, 65, 59
2, 143096, Note_on_c, 0, 55, 72
2, 143096, Note_on_c, 0, 67, 86
2, 143171, Note_off_c, 0, 34, 52
2, 143262, Note_off_c, 0, 55, 58
2, 143271, Note_on_c, 0, 36, 43
2, 143272, Note_on_c, 0, 69, 85
2, 143283, Note_on_c, 0, 60, 65
2, 143284, Note_on_c, 0, 65, 73
2, 143285, Note_on_c, 0, 57, 60
2, 143289, Control_c, 0, 64, 20
2, 143301, Note_off_c, 0, 67, 61
2, 143481, Control_c, 0, 64, 96
2, 143710, Note_on_c, 0, 41, 60
2, 144141, Note_off_c, 0, 41, 56
2, 144142, Note_on_c, 0, 45, 56
2, 144144, Control_c, 0, 64, 20
2, 144324, Control_c, 0, 64, 96
2, 144558, Note_off_c, 0, 45, 55
2, 144558, Note_on_c, 0, 48, 51
2, 144620, Note_off_c, 0, 36, 52
2, 144711, Note_off_c, 0, 57, 55
2, 144840, Note_off_c, 0, 60, 58
2, 144858, Note_off_c, 0, 48, 54
2, 144864, Note_off_c, 0, 65, 56
2, 144949, Note_off_c, 0, 69, 61
2, 144951, Note_on_c, 0, 70, 66
2, 144961, Note_on_c, 0, 36, 52
2, 144964, Note_on_c, 0, 64, 46
2, 144968, Note_on_c, 0, 58, 56
2, 144974, Control_c, 0, 64, 20
2, 145168, Control_c, 0, 64, 96
2, 145313, Note_on_c, 0, 48, 47
2, 145518, Note_off_c, 0, 70, 56
2, 145531, Note_on_c, 0, 67, 60
2, 145552, Note_off_c, 0, 64, 51
2, 145587, Note_off_c, 0, 48, 51
2, 145661, Note_off_c, 0, 58, 54
2, 145676, Note_off_c, 0, 36, 53
2, 145679, Note_on_c, 0, 65, 57
2, 145681, Note_on_c, 0, 41, 42
2, 145685, Note_on_c, 0, 57, 48
2, 145690, Note_off_c, 0, 67, 55
2, 145695, Control_c, 0, 64, 20
2, 145873, Control_c, 0, 64, 96
2, 146078, Note_off_c, 0, 57, 52
2, 146080, Note_off_c, 0, 41, 50
2, 146080, Note_on_c, 0, 60, 42
2, 146426, Note_off_c, 0, 65, 54
2, 146505, Note_off_c, 0, 60, 50
2, 146508, Note_on_c, 0, 57, 46
2, 146512, Control_c, 0, 64, 20
2, 146699, Control_c, 0, 64, 96
2, 146924, Note_off_c, 0, 57, 51
2, 146926, Note_on_c, 0, 53, 50
2, 147343, Note_on_c, 0, 72, 66
2, 147350, Note_off_c, 0, 53, 52
2, 147353, Note_on_c, 0, 48, 54
2, 147358, Control_c, 0, 64, 20
2, 147533, Control_c, 0, 64, 96
2, 147706, Note_off_c, 0, 48, 53
2, 147708, Note_on_c, 0, 60, 54
2, 147886, Note_off_c, 0, 72, 56
2, 147932, Note_on_c, 0, 69, 64
2, 147981, Note_off_c, 0, 60, 53
2, 148058, Note_on_c, 0, 70, 62
2, 148067, Note_on_c, 0, 48, 50
2, 148084, Control_c, 0, 64, 20
2, 148103, Note_off_c, 0, 69, 56
2, 148262, Control_c, 0, 64, 96
2, 148487, Note_on_c, 0, 60, 46
2, 148887, Note_off_c, 0, 70, 55
2, 148889, Note_on_c, 0, 67, 54
2, 148899, Note_on_c, 0, 58, 42
2, 148902, Control_c, 0, 64, 20
2, 148985, Note_off_c, 0, 60, 51
2, 149090, Control_c, 0, 64, 96
2, 149217, Note_off_c, 0, 67, 53
2, 149318, Note_on_c, 0, 55, 48
2, 149353, Note_off_c, 0, 58, 50
2, 149434, Note_off_c, 0, 48, 52
2, 149747, Note_off_c, 0, 55, 52
2, 149755, Note_on_c, 0, 79, 66
2, 149765, Note_on_c, 0, 48, 54
2, 149773, Control_c, 0, 64, 20
2, 149945, Control_c, 0, 64, 96
2, 150135, Note_on_c, 0, 60, 54
2, 150255, Note_off_c, 0, 48, 53
2, 150352, Note_on_c, 0, 76, 64
2, 150411, Note_off_c, 0, 79, 56
2, 150426, Note_off_c, 0, 60, 53
2, 150504, Note_on_c, 0, 77, 62
2, 150512, Note_on_c, 0, 48, 50
2, 150520, Control_c, 0, 64, 20
2, 150543, Note_off_c, 0, 76, 56
2, 150698, Control_c, 0, 64, 96
2, 150950, Note_on_c, 0, 60, 46
2, 151388, Note_on_c, 0, 72, 54
2, 151397, Note_off_c, 0, 60, 51
2, 151399, Note_on_c, 0, 57, 42
2, 151403, Control_c, 0, 64, 20
2, 151476, Note_off_c, 0, 77, 55
2, 151591, Control_c, 0, 64, 96
2, 151716, Note_off_c, 0, 72, 53
2, 151808, Note_off_c, 0, 48, 52
2, 151834, Note_off_c, 0, 57, 50
2, 151836, Note_on_c, 0, 53, 42
2, 152281, Note_off_c, 0, 53, 50
2, 152299, Note_on_c, 0, 72, 58
2, 152301, Note_on_c, 0, 48, 46
2, 152306, Control_c, 0, 64, 20
2, 152469, Note_on_c, 0, 69, 60
2, 152479, Control_c, 0, 64, 96
2, 152494, Note_off_c, 0, 72, 54
2, 152657, Note_on_c, 0, 60, 50
2, 152657, Note_on_c, 0, 72, 62
2, 152684, Note_off_c, 0, 69, 55
2, 152736, Note_off_c, 0, 48, 51
2, 152827, Note_on_c, 0, 69, 64
2, 152876, Note_off_c, 0, 72, 55
2, 152928, Note_off_c, 0, 60, 52
2, 153020, Note_on_c, 0, 48, 54
2, 153021, Note_on_c, 0, 70, 66
2, 153023, Control_c, 0, 64, 20
2, 153035, Note_off_c, 0, 69, 56
2, 153203, Control_c, 0, 64, 96
2, 153420, Note_on_c, 0, 60, 54
2, 153859, Note_on_c, 0, 67, 54
2, 153860, Note_on_c, 0, 58, 53
2, 153862, Control_c, 0, 64, 20
2, 153873, Note_off_c, 0, 60, 53
2, 153921, Note_off_c, 0, 70, 56
2, 154051, Control_c, 0, 64, 96
2, 154170, Note_off_c, 0, 67, 53
2, 154282, Note_on_c, 0, 55, 52
2, 154351, Note_off_c, 0, 58, 53
2, 154366, Note_off_c, 0, 48, 53
2, 154703, Note_on_c, 0, 79, 58
2, 154715, Note_on_c, 0, 48, 51
2, 154719, Control_c, 0, 64, 20
2, 154732, Note_off_c, 0, 55, 53
2, 154890, Note_on_c, 0, 76, 60
2, 154891, Note_off_c, 0, 79, 54
2, 154892, Control_c, 0, 64, 96
2, 155060, Note_off_c, 0, 48, 52
2, 155072, Note_off_c, 0, 76, 55
2, 155078, Note_on_c, 0, 79, 62
2, 155092, Note_on_c, 0, 60, 54
2, 155097, Note_on_c, 0, 58, 50
2, 155265, Note_on_c, 0, 76, 64
2, 155281, Note_off_c, 0, 79, 55
2, 155370, Note_off_c, 0, 60, 53
2, 155422, Note_off_c, 0, 58, 52
2, 155443, Note_off_c, 0, 76, 56
2, 155475, Note_on_c, 0, 77, 66
2, 155493, Note_on_c, 0, 60, 48
2, 155496, Note_on_c, 0, 57, 44
2, 155498, Control_c, 0, 64, 20
2, 155679, Control_c, 0, 64, 96
2, 155842, Note_off_c, 0, 60, 52
2, 155875, Note_on_c, 0, 65, 47
2, 156175, Note_off_c, 0, 65, 51
2, 156269, Note_on_c, 0, 72, 54
2, 156286, Note_on_c, 0, 60, 46
2, 156289, Control_c, 0, 64, 20
2, 156396, Note_off_c, 0, 77, 56
2, 156480, Control_c, 0, 64, 96
2, 156497, Note_off_c, 0, 60, 51
2, 156519, Note_off_c, 0, 57, 51
2, 156545, Note_off_c, 0, 72, 53
2, 156679, Note_on_c, 0, 79, 54
2, 156696, Note_on_c, 0, 60, 45
2, 156697, Note_on_c, 0, 58, 40
2, 156698, Note_on_c, 0, 67, 42
2, 156848, Note_on_c, 0, 76, 56
2, 156855, Note_off_c, 0, 60, 51
2, 156925, Note_off_c, 0, 58, 50
2, 156948, Note_off_c, 0, 79, 53
2, 157004, Note_off_c, 0, 67, 50
2, 157033, Note_on_c, 0, 77, 58
2, 157052, Note_on_c, 0, 57, 40
2, 157053, Note_on_c, 0, 60, 46
2, 157054, Note_on_c, 0, 65, 44
2, 157057, Control_c, 0, 64, 20
2, 157077, Note_off_c, 0, 76, 54
2, 157233, Control_c, 0, 64, 96
2, 157251, Note_off_c, 0, 60, 51
2, 157339, Note_off_c, 0, 57, 50
2, 157347, Note_off_c, 0, 65, 51
2, 157395, Note_on_c, 0, 79, 62
2, 157404, Note_on_c, 0, 67, 46
2, 157409, Note_on_c, 0, 60, 42
2, 157414, Note_on_c, 0, 58, 38
2, 157461, Note_off_c, 0, 77, 54
2, 157580, Note_on_c, 0, 76, 64
2, 157636, Note_off_c, 0, 60, 50
2, 157649, Note_off_c, 0, 79, 55
2, 157675, Note_off_c, 0, 67, 51
2, 157685, Note_off_c, 0, 58, 49
2, 157772, Note_on_c, 0, 77, 66
2, 157774, Note_on_c, 0, 57, 42
2, 157774, Note_on_c, 0, 60, 49
2, 157775, Control_c, 0, 64, 20
2, 157830, Note_off_c, 0, 76, 56
2, 157960, Control_c, 0, 64, 96
2, 158149, Note_off_c, 0, 60, 52
2, 158152, Note_on_c, 0, 65, 43
2, 158552, Note_off_c, 0, 77, 56
2, 158555, Note_off_c, 0, 65, 50
2, 158556, Note_on_c, 0, 72, 44
2, 158558, Note_on_c, 0, 60, 36
2, 158824, Note_off_c, 0, 60, 49
2, 158852, Note_off_c, 0, 72, 51
2, 158929, Note_off_c, 0, 57, 50
2, 158963, Note_on_c, 0, 79, 50
2, 158966, Note_on_c, 0, 58, 32
2, 158972, Note_on_c, 0, 60, 35
2, 158973, Note_on_c, 0, 67, 38
2, 158973, Control_c, 0, 64, 20
2, 159147, Control_c, 0, 64, 96
2, 159149, Note_on_c, 0, 76, 53
2, 159151, Note_off_c, 0, 60, 48
2, 159206, Note_off_c, 0, 79, 52
2, 159267, Note_off_c, 0, 67, 49
2, 159289, Note_off_c, 0, 58, 48
2, 159336, Note_on_c, 0, 77, 56
2, 159342, Note_on_c, 0, 60, 42
2, 159343, Note_on_c, 0, 65, 46
2, 159344, Note_on_c, 0, 57, 34
2, 159345, Control_c, 0, 64, 20
2, 159379, Note_off_c, 0, 76, 53
2, 159518, Control_c, 0, 64, 96
2, 159559, Note_off_c, 0, 60, 50
2, 159633, Note_off_c, 0, 57, 48
2, 159661, Note_off_c, 0, 65, 51
2, 159707, Note_on_c, 0, 79, 54
2, 159709, Note_on_c, 0, 67, 42
2, 159710, Note_off_c, 0, 77, 54
2, 159711, Note_on_c, 0, 60, 35
2, 159712, Note_on_c, 0, 58, 47
2, 159718, Control_c, 0, 64, 20
2, 159891, Control_c, 0, 64, 96
2, 159896, Note_off_c, 0, 60, 48
2, 159910, Note_on_c, 0, 76, 57
2, 159959, Note_off_c, 0, 79, 53
2, 160020, Note_off_c, 0, 67, 50
2, 160069, Note_off_c, 0, 58, 51
2, 160100, Note_on_c, 0, 60, 42
2, 160101, Note_on_c, 0, 77, 60
2, 160102, Note_on_c, 0, 57, 36
2, 160103, Note_on_c, 0, 65, 48
2, 160110, Control_c, 0, 64, 20
2, 160134, Note_off_c, 0, 76, 54
2, 160287, Control_c, 0, 64, 96
2, 160350, Note_off_c, 0, 60, 50
2, 160423, Note_off_c, 0, 65, 52
2, 160440, Note_off_c, 0, 57, 49
2, 160507, Note_on_c, 0, 79, 66
2, 160511, Note_off_c, 0, 77, 55
2, 160513, Note_on_c, 0, 58, 36
2, 160514, Note_on_c, 0, 67, 49
2, 160515, Note_on_c, 0, 60, 42
2, 160516, Control_c, 0, 64, 20
2, 160693, Control_c, 0, 64, 96
2, 160714, Note_on_c, 0, 76, 69
2, 160754, Note_off_c, 0, 79, 56
2, 160761, Note_off_c, 0, 60, 50
2, 160780, Note_off_c, 0, 58, 49
2, 160871, Note_off_c, 0, 67, 52
2, 160905, Note_on_c, 0, 77, 72
2, 160906, Note_on_c, 0, 60, 50
2, 160909, Note_on_c, 0, 65, 57
2, 160914, Note_on_c, 0, 57, 42
2, 160923, Note_off_c, 0, 76, 57
2, 160924, Control_c, 0, 64, 20
2, 161101, Control_c, 0, 64, 96
2, 161158, Note_off_c, 0, 60, 52
2, 161255, Note_off_c, 0, 65, 54
2, 161276, Note_off_c, 0, 57, 50
2, 161327, Note_off_c, 0, 77, 58
2, 161340, Note_on_c, 0, 79, 78
2, 161346, Note_on_c, 0, 67, 52
2, 161348, Note_on_c, 0, 60, 44
2, 161349, Note_on_c, 0, 58, 39
2, 161354, Control_c, 0, 64, 20
2, 161533, Control_c, 0, 64, 96
2, 161552, Note_on_c, 0, 76, 81
2, 161577, Note_off_c, 0, 60, 51
2, 161613, Note_off_c, 0, 79, 59
2, 161694, Note_off_c, 0, 58, 49
2, 161699, Note_off_c, 0, 67, 53
2, 161762, Note_on_c, 0, 77, 84
2, 161767, Note_on_c, 0, 60, 48
2, 161768, Note_on_c, 0, 57, 52
2, 161769, Note_on_c, 0, 65, 64
2, 161779, Control_c, 0, 64, 20
2, 161809, Note_off_c, 0, 76, 60
2, 161958, Control_c, 0, 64, 96
2, 162014, Note_off_c, 0, 60, 52
2, 162102, Note_off_c, 0, 57, 53
2, 162161, Note_off_c, 0, 65, 56
2, 162204, Note_on_c, 0, 79, 90
2, 162208, Note_on_c, 0, 67, 66
2, 162209, Note_off_c, 0, 77, 61
2, 162210, Note_on_c, 0, 60, 54
2, 162211, Note_on_c, 0, 58, 48
2, 162220, Control_c, 0, 64, 20
2, 162405, Control_c, 0, 64, 96
2, 162419, Note_on_c, 0, 76, 90
2, 162444, Note_off_c, 0, 60, 53
2, 162487, Note_off_c, 0, 79, 62
2, 162541, Note_off_c, 0, 67, 56
2, 162607, Note_off_c, 0, 58, 52
2, 162652, Note_on_c, 0, 77, 87
2, 162659, Note_on_c, 0, 65, 62
2, 162668, Note_on_c, 0, 57, 35
2, 162671, Note_on_c, 0, 60, 42
2, 162671, Control_c, 0, 64, 20
2, 162677, Note_off_c, 0, 76, 62
2, 162855, Control_c, 0, 64, 96
2, 163085, Note_on_c, 0, 79, 79
2, 163105, Note_off_c, 0, 77, 61
2, 163287, Note_off_c, 0, 60, 50
2, 163303, Note_on_c, 0, 76, 76
2, 163305, Note_off_c, 0, 65, 55
2, 163381, Note_off_c, 0, 79, 60
2, 163480, Note_off_c, 0, 57, 48
2, 163525, Note_on_c, 0, 77, 72
2, 163534, Control_c, 0, 64, 20
2, 163583, Note_off_c, 0, 76, 59
2, 163722, Control_c, 0, 64, 96
2, 163959, Note_on_c, 0, 79, 65
2, 163983, Note_off_c, 0, 77, 58
2, 164182, Note_on_c, 0, 76, 61
2, 164226, Note_off_c, 0, 79, 56
2, 164389, Note_on_c, 0, 77, 57
2, 164415, Control_c, 0, 64, 20
2, 164458, Note_off_c, 0, 76, 55
2, 164606, Control_c, 0, 64, 96
2, 164817, Note_on_c, 0, 79, 50
2, 164840, Note_off_c, 0, 77, 54
2, 165039, Note_on_c, 0, 76, 46
2, 165105, Note_off_c, 0, 79, 52
2, 165238, Note_on_c, 0, 77, 42
2, 165269, Control_c, 0, 64, 20
2, 165295, Note_off_c, 0, 76, 51
2, 165454, Control_c, 0, 64, 96
2, 165651, Note_off_c, 0, 77, 50
2, 166038, Note_on_c, 0, 77, 44
2, 166403, Note_off_c, 0, 77, 51
2, 166779, Note_on_c, 0, 77, 49
2, 167134, Note_off_c, 0, 77, 52
2, 167475, Note_on_c, 0, 77, 54
2, 167485, Note_on_c, 0, 37, 36
2, 167486, Note_on_c, 0, 73, 48
2, 167496, Control_c, 0, 64, 20
2, 167669, Control_c, 0, 64, 96
2, 167836, Note_on_c, 0, 44, 30
2, 168198, Note_off_c, 0, 44, 47
2, 168200, Note_on_c, 0, 49, 31
2, 168565, Note_off_c, 0, 49, 47
2, 168569, Note_on_c, 0, 44, 32
2, 168866, Note_off_c, 0, 73, 52
2, 168933, Note_off_c, 0, 77, 53
2, 168945, Note_off_c, 0, 44, 48
2, 168948, Note_on_c, 0, 48, 33
2, 168949, Note_on_c, 0, 68, 37
2, 168950, Note_on_c, 0, 75, 48
2, 168954, Control_c, 0, 64, 20
2, 169133, Note_off_c, 0, 37, 49
2, 169142, Control_c, 0, 64, 96
2, 169365, Note_off_c, 0, 48, 48
2, 169367, Note_on_c, 0, 44, 30
2, 169569, Note_off_c, 0, 75, 52
2, 169571, Note_off_c, 0, 68, 49
2, 169682, Note_off_c, 0, 44, 47
2, 169796, Note_on_c, 0, 65, 34
2, 169797, Note_on_c, 0, 73, 46
2, 169798, Note_on_c, 0, 37, 36
2, 169800, Control_c, 0, 64, 20
2, 169992, Control_c, 0, 64, 96
2, 170188, Note_on_c, 0, 44, 37
2, 170571, Note_off_c, 0, 44, 49
2, 170572, Note_on_c, 0, 49, 38
2, 170947, Note_off_c, 0, 49, 49
2, 170948, Note_on_c, 0, 44, 39
2, 171124, Note_off_c, 0, 65, 48
2, 171162, Note_on_c, 0, 75, 53
2, 171164, Note_on_c, 0, 68, 44
2, 171185, Note_off_c, 0, 73, 51
2, 171317, Note_off_c, 0, 44, 49
2, 171318, Note_on_c, 0, 73, 50
2, 171321, Note_on_c, 0, 49, 35
2, 171322, Note_on_c, 0, 65, 38
2, 171324, Control_c, 0, 64, 20
2, 171354, Note_off_c, 0, 68, 51
2, 171355, Note_off_c, 0, 75, 53
2, 171501, Control_c, 0, 64, 96
2, 171636, Note_off_c, 0, 37, 49
2, 171710, Note_off_c, 0, 49, 48
2, 171713, Note_on_c, 0, 44, 42
2, 171914, Note_off_c, 0, 65, 49
2, 171915, Note_off_c, 0, 73, 52
2, 171942, Note_on_c, 0, 75, 53
2, 171952, Note_on_c, 0, 68, 45
2, 172064, Note_off_c, 0, 68, 51
2, 172070, Note_off_c, 0, 75, 53
2, 172080, Note_off_c, 0, 44, 50
2, 172098, Note_on_c, 0, 77, 54
2, 172101, Note_on_c, 0, 37, 42
2, 172101, Note_on_c, 0, 73, 46
2, 172108, Control_c, 0, 64, 20
2, 172281, Control_c, 0, 64, 96
2, 172378, Note_off_c, 0, 73, 51
2, 172380, Note_off_c, 0, 77, 53
2, 172451, Note_on_c, 0, 44, 40
2, 172831, Note_off_c, 0, 44, 50
2, 172832, Note_on_c, 0, 73, 42
2, 172833, Note_on_c, 0, 77, 52
2, 172833, Note_on_c, 0, 49, 38
2, 172838, Control_c, 0, 64, 20
2, 173019, Control_c, 0, 64, 96
2, 173085, Note_off_c, 0, 77, 53
2, 173098, Note_off_c, 0, 73, 50
2, 173198, Note_off_c, 0, 49, 49
2, 173199, Note_on_c, 0, 44, 36
2, 173612, Note_off_c, 0, 44, 49
2, 173613, Note_on_c, 0, 75, 47
2, 173614, Note_on_c, 0, 48, 34
2, 173615, Note_on_c, 0, 68, 36
2, 173623, Control_c, 0, 64, 20
2, 173810, Control_c, 0, 64, 96
2, 173844, Note_off_c, 0, 37, 50
2, 173908, Note_off_c, 0, 68, 49
2, 173911, Note_off_c, 0, 75, 51
2, 174013, Note_off_c, 0, 48, 48
2, 174014, Note_on_c, 0, 44, 32
2, 174348, Note_off_c, 0, 44, 48
2, 174462, Note_on_c, 0, 73, 42
2, 174464, Note_on_c, 0, 37, 28
2, 174465, Note_on_c, 0, 65, 32
2, 174475, Control_c, 0, 64, 20
2, 174648, Control_c, 0, 64, 96
2, 174851, Note_on_c, 0, 44, 30
2, 175246, Note_off_c, 0, 44, 47
2, 175247, Note_on_c, 0, 49, 32
2, 175667, Note_off_c, 0, 49, 48
2, 175669, Note_on_c, 0, 44, 34
2, 175730, Note_off_c, 0, 65, 48
2, 176076, Note_on_c, 0, 61, 48
2, 176083, Note_off_c, 0, 44, 48
2, 176084, Note_off_c, 0, 73, 50
2, 176085, Note_on_c, 0, 41, 38
2, 176103, Control_c, 0, 64, 20
2, 176188, Note_off_c, 0, 37, 47
2, 176291, Control_c, 0, 64, 96
2, 176471, Note_off_c, 0, 41, 49
2, 176472, Note_on_c, 0, 44, 42
2, 176693, Note_on_c, 0, 60, 59
2, 176737, Note_off_c, 0, 61, 52
2, 176767, Note_off_c, 0, 44, 50
2, 176843, Note_off_c, 0, 60, 54
2, 176862, Note_on_c, 0, 60, 62
2, 176960, Note_off_c, 0, 60, 55
2, 176963, Note_on_c, 0, 53, 48
2, 176964, Note_on_c, 0, 59, 62
2, 176965, Note_on_c, 0, 37, 37
2, 176966, Note_on_c, 0, 41, 42
2, 176974, Control_c, 0, 64, 20
2, 177129, Note_off_c, 0, 53, 52
2, 177146, Control_c, 0, 64, 96
2, 177181, Note_off_c, 0, 59, 55
2, 177283, Note_off_c, 0, 41, 50
2, 177285, Note_on_c, 0, 44, 50
2, 177417, Note_off_c, 0, 37, 49
2, 177593, Note_off_c, 0, 44, 52
2, 177610, Note_on_c, 0, 53, 64
2, 177611, Note_on_c, 0, 59, 76
2, 177613, Note_on_c, 0, 41, 54
2, 177614, Note_on_c, 0, 37, 48
2, 177616, Control_c, 0, 64, 20
2, 177796, Control_c, 0, 64, 96
2, 177808, Note_off_c, 0, 59, 59
2, 177818, Note_off_c, 0, 53, 56
2, 177961, Note_off_c, 0, 41, 53
2, 177962, Note_on_c, 0, 44, 58
2, 178090, Note_off_c, 0, 37, 52
2, 178320, Note_off_c, 0, 44, 54
2, 178336, Note_on_c, 0, 53, 74
2, 178337, Note_on_c, 0, 59, 86
2, 178338, Note_on_c, 0, 37, 50
2, 178339, Note_on_c, 0, 41, 54
2, 178347, Control_c, 0, 64, 20
2, 178535, Control_c, 0, 64, 96
2, 178565, Note_off_c, 0, 59, 62
2, 178580, Note_off_c, 0, 53, 59
2, 178719, Note_off_c, 0, 41, 53
2, 178720, Note_on_c, 0, 44, 66
2, 179039, Note_off_c, 0, 37, 55
2, 179139, Note_on_c, 0, 60, 54
2, 179147, Note_off_c, 0, 44, 56
2, 179148, Note_on_c, 0, 52, 37
2, 179150, Note_on_c, 0, 36, 42
2, 179151, Control_c, 0, 64, 20
2, 179324, Control_c, 0, 64, 96
2, 179537, Note_on_c, 0, 48, 42
2, 179613, Note_off_c, 0, 36, 50
2, 179905, Note_off_c, 0, 60, 53
2, 179917, Note_off_c, 0, 52, 49
2, 179919, Note_on_c, 0, 47, 40
2, 179924, Control_c, 0, 64, 20
2, 179980, Note_off_c, 0, 48, 50
2, 180104, Control_c, 0, 64, 96
2, 180323, Note_on_c, 0, 46, 37
2, 180448, Note_off_c, 0, 47, 50
2, 180738, Note_on_c, 0, 72, 60
2, 180741, Note_on_c, 0, 45, 43
2, 180763, Control_c, 0, 64, 20
2, 180804, Note_off_c, 0, 46, 49
2, 180954, Control_c, 0, 64, 96
2, 181127, Note_on_c, 0, 62, 44
2, 181129, Note_on_c, 0, 42, 37
2, 181228, Note_off_c, 0, 45, 50
2, 181356, Note_on_c, 0, 74, 64
2, 181390, Note_off_c, 0, 72, 55
2, 181522, Note_on_c, 0, 43, 45
2, 181523, Note_on_c, 0, 72, 66
2, 181527, Control_c, 0, 64, 20
2, 181559, Note_off_c, 0, 74, 56
2, 181599, Note_off_c, 0, 42, 49
2, 181715, Control_c, 0, 64, 96
2, 181941, Note_on_c, 0, 69, 42
2, 181942, Note_on_c, 0, 42, 46
2, 182035, Note_off_c, 0, 43, 51
2, 182365, Note_on_c, 0, 70, 54
2, 182372, Note_off_c, 0, 69, 50
2, 182374, Note_on_c, 0, 67, 42
2, 182376, Note_on_c, 0, 43, 47
2, 182379, Control_c, 0, 64, 20
2, 182419, Note_off_c, 0, 72, 56
2, 182442, Note_off_c, 0, 42, 51
2, 182523, Note_off_c, 0, 62, 51
2, 182558, Control_c, 0, 64, 96
2, 182778, Note_on_c, 0, 40, 42
2, 182779, Note_on_c, 0, 60, 52
2, 182852, Note_off_c, 0, 43, 51
2, 183163, Note_on_c, 0, 69, 54
2, 183171, Note_off_c, 0, 67, 50
2, 183175, Note_on_c, 0, 65, 42
2, 183176, Note_on_c, 0, 41, 49
2, 183184, Control_c, 0, 64, 20
2, 183235, Note_off_c, 0, 70, 53
2, 183284, Note_off_c, 0, 60, 53
2, 183291, Note_off_c, 0, 40, 50
2, 183358, Control_c, 0, 64, 96
2, 183528, Note_on_c, 0, 38, 42
2, 183529, Note_on_c, 0, 58, 50
2, 183626, Note_off_c, 0, 41, 52
2, 183748, Note_on_c, 0, 70, 63
2, 183775, Note_off_c, 0, 69, 53
2, 183881, Note_off_c, 0, 65, 50
2, 183882, Note_on_c, 0, 69, 66
2, 183885, Note_on_c, 0, 40, 51
2, 183890, Control_c, 0, 64, 20
2, 183916, Note_off_c, 0, 70, 55
2, 183942, Note_off_c, 0, 38, 50
2, 184064, Control_c, 0, 64, 96
2, 184270, Note_on_c, 0, 65, 42
2, 184271, Note_on_c, 0, 38, 52
2, 184315, Note_off_c, 0, 40, 52
2, 184658, Note_on_c, 0, 67, 54
2, 184663, Note_off_c, 0, 65, 50
2, 184667, Note_on_c, 0, 64, 46
2, 184669, Note_on_c, 0, 40, 42
2, 184675, Control_c, 0, 64, 20
2, 184702, Note_off_c, 0, 69, 56
2, 184707, Note_off_c, 0, 38, 53
2, 184795, Note_off_c, 0, 58, 52
2, 184850, Control_c, 0, 64, 96
2, 185046, Note_on_c, 0, 37, 47
2, 185047, Note_on_c, 0, 57, 54
2, 185076, Note_off_c, 0, 40, 50
2, 185447, Note_off_c, 0, 64, 51
2, 185450, Note_on_c, 0, 65, 54
2, 185451, Note_on_c, 0, 38, 44
2, 185452, Control_c, 0, 64, 20
2, 185484, Note_off_c, 0, 67, 53
2, 185523, Note_off_c, 0, 37, 51
2, 185564, Note_off_c, 0, 57, 53
2, 185632, Control_c, 0, 64, 96
2, 185819, Note_on_c, 0, 36, 42
2, 185820, Note_on_c, 0, 62, 56
2, 185883, Note_off_c, 0, 38, 51
2, 186093, Note_on_c, 0, 66, 72
2, 186145, Note_off_c, 0, 65, 53
2, 186195, Note_on_c, 0, 67, 78
2, 186196, Control_c, 0, 64, 20
2, 186197, Note_on_c, 0, 34, 58
2, 186202, Note_off_c, 0, 66, 58
2, 186238, Note_off_c, 0, 36, 50
2, 186379, Control_c, 0, 64, 96
2, 186573, Note_off_c, 0, 67, 59
2, 186575, Note_on_c, 0, 38, 60
2, 186576, Note_on_c, 0, 69, 78
2, 186657, Note_off_c, 0, 34, 54
2, 186700, Note_off_c, 0, 69, 59
2, 186702, Note_on_c, 0, 67, 74
2, 186830, Note_off_c, 0, 67, 59
2, 186831, Note_on_c, 0, 66, 70
2, 186956, Note_off_c, 0, 66, 57
2, 186958, Note_on_c, 0, 34, 52
2, 186959, Note_on_c, 0, 67, 66
2, 186960, Note_off_c, 0, 62, 54
2, 186965, Control_c, 0, 64, 20
2, 187027, Note_off_c, 0, 38, 55
2, 187154, Control_c, 0, 64, 96
2, 187363, Note_on_c, 0, 62, 64
2, 187365, Note_on_c, 0, 30, 64
2, 187430, Note_off_c, 0, 34, 53
2, 187587, Note_off_c, 0, 67, 56
2, 187588, Note_on_c, 0, 69, 69
2, 187642, Note_off_c, 0, 69, 57
2, 187645, Note_on_c, 0, 72, 72
2, 187789, Note_off_c, 0, 72, 58
2, 187791, Note_on_c, 0, 31, 66
2, 187792, Note_on_c, 0, 70, 72
2, 187801, Control_c, 0, 64, 20
2, 187868, Note_off_c, 0, 30, 56
2, 187965, Note_off_c, 0, 62, 56
2, 187986, Control_c, 0, 64, 96
2, 188205, Note_on_c, 0, 62, 55
2, 188206, Note_on_c, 0, 34, 66
2, 188215, Note_off_c, 0, 31, 56
2, 188455, Note_on_c, 0, 67, 78
2, 188502, Note_off_c, 0, 70, 58
2, 188590, Note_off_c, 0, 67, 59
2, 188625, Note_off_c, 0, 62, 53
2, 188626, Note_on_c, 0, 65, 54
2, 188628, Note_on_c, 0, 57, 36
2, 188629, Note_on_c, 0, 60, 42
2, 188631, Control_c, 0, 64, 20
2, 188632, Note_on_c, 0, 36, 44
2, 188652, Note_off_c, 0, 34, 56
2, 188808, Control_c, 0, 64, 96
2, 189032, Note_on_c, 0, 48, 42
2, 189059, Note_off_c, 0, 36, 51
2, 189434, Note_on_c, 0, 55, 46
2, 189435, Note_on_c, 0, 64, 57
2, 189436, Note_on_c, 0, 47, 43
2, 189437, Control_c, 0, 64, 20
2, 189471, Note_off_c, 0, 57, 49
2, 189496, Note_off_c, 0, 65, 53
2, 189609, Control_c, 0, 64, 96
2, 189831, Note_off_c, 0, 64, 54
2, 189833, Note_off_c, 0, 55, 51
2, 189834, Note_off_c, 0, 60, 50
2, 189835, Note_on_c, 0, 46, 45
2, 189861, Note_off_c, 0, 47, 50
2, 190116, Note_off_c, 0, 46, 51
2, 190151, Note_on_c, 0, 74, 63
2, 190232, Note_on_c, 0, 72, 63
2, 190234, Note_on_c, 0, 45, 47
2, 190237, Control_c, 0, 64, 20
2, 190286, Note_off_c, 0, 74, 55
2, 190408, Control_c, 0, 64, 96
2, 190417, Note_on_c, 0, 71, 65
2, 190444, Note_off_c, 0, 72, 55
2, 190585, Note_on_c, 0, 42, 48
2, 190586, Note_on_c, 0, 72, 66
2, 190629, Note_off_c, 0, 71, 56
2, 190673, Note_off_c, 0, 45, 51
2, 190768, Note_on_c, 0, 74, 68
2, 190799, Note_off_c, 0, 72, 56
2, 190952, Note_on_c, 0, 43, 50
2, 190953, Note_on_c, 0, 72, 70
2, 190961, Control_c, 0, 64, 20
2, 190985, Note_off_c, 0, 42, 52
2, 191009, Note_off_c, 0, 74, 57
2, 191118, Note_on_c, 0, 69, 71
2, 191131, Control_c, 0, 64, 96
2, 191160, Note_off_c, 0, 72, 57
2, 191302, Note_on_c, 0, 42, 52
2, 191303, Note_on_c, 0, 70, 73
2, 191329, Note_off_c, 0, 69, 58
2, 191351, Note_off_c, 0, 43, 52
2, 191485, Note_on_c, 0, 72, 74
2, 191536, Note_off_c, 0, 70, 58
2, 191668, Note_on_c, 0, 43, 54
2, 191669, Note_on_c, 0, 76, 76
2, 191678, Control_c, 0, 64, 20
2, 191709, Note_off_c, 0, 72, 59
2, 191760, Note_off_c, 0, 42, 53
2, 191849, Control_c, 0, 64, 96
2, 191851, Note_on_c, 0, 79, 78
2, 191905, Note_off_c, 0, 76, 59
2, 192036, Note_on_c, 0, 40, 53
2, 192037, Note_on_c, 0, 82, 78
2, 192048, Note_off_c, 0, 79, 59
2, 192099, Note_off_c, 0, 43, 53
2, 192249, Note_off_c, 0, 82, 59
2, 192262, Note_on_c, 0, 70, 70
2, 192269, Note_off_c, 0, 40, 53
2, 192270, Note_off_c, 0, 48, 50
2, 192311, Note_off_c, 0, 70, 57
2, 192327, Note_on_c, 0, 70, 66
2, 192367, Control_c, 0, 64, 20
2, 192419, Note_on_c, 0, 45, 49
2, 192420, Note_on_c, 0, 69, 66
2, 192421, Note_on_c, 0, 41, 49
2, 192459, Note_off_c, 0, 70, 56
2, 192540, Control_c, 0, 64, 96
2, 192585, Note_on_c, 0, 68, 67
2, 192596, Note_off_c, 0, 69, 56
2, 192769, Note_on_c, 0, 69, 68
2, 192771, Note_on_c, 0, 38, 46
2, 192782, Note_off_c, 0, 41, 52
2, 192808, Note_off_c, 0, 68, 57
2, 192936, Note_on_c, 0, 70, 70
2, 192958, Note_off_c, 0, 69, 57
2, 193119, Note_on_c, 0, 69, 71
2, 193122, Note_on_c, 0, 40, 42
2, 193125, Control_c, 0, 64, 20
2, 193129, Note_off_c, 0, 70, 57
2, 193174, Note_off_c, 0, 38, 51
2, 193297, Control_c, 0, 64, 96
2, 193301, Note_on_c, 0, 66, 72
2, 193338, Note_off_c, 0, 69, 58
2, 193486, Note_on_c, 0, 67, 74
2, 193488, Note_on_c, 0, 38, 43
2, 193495, Note_off_c, 0, 40, 50
2, 193529, Note_off_c, 0, 66, 58
2, 193670, Note_on_c, 0, 69, 75
2, 193706, Note_off_c, 0, 67, 59
2, 193855, Note_on_c, 0, 40, 45
2, 193856, Note_on_c, 0, 73, 76
2, 193856, Control_c, 0, 64, 20
2, 193887, Note_off_c, 0, 69, 59
2, 193913, Note_off_c, 0, 38, 50
2, 194027, Control_c, 0, 64, 96
2, 194053, Note_on_c, 0, 76, 78
2, 194075, Note_off_c, 0, 73, 59
2, 194237, Note_on_c, 0, 37, 47
2, 194238, Note_on_c, 0, 79, 78
2, 194256, Note_off_c, 0, 76, 59
2, 194269, Note_off_c, 0, 40, 51
2, 194419, Note_off_c, 0, 79, 59
2, 194447, Note_on_c, 0, 67, 76
2, 194483, Control_c, 0, 64, 20
2, 194488, Note_off_c, 0, 37, 51
2, 194513, Note_off_c, 0, 67, 59
2, 194529, Note_on_c, 0, 67, 66
2, 194620, Note_on_c, 0, 38, 49
2, 194621, Note_on_c, 0, 65, 66
2, 194647, Note_off_c, 0, 67, 56
2, 194653, Control_c, 0, 64, 96
2, 194786, Note_on_c, 0, 64, 69
2, 194807, Note_off_c, 0, 65, 56
2, 194971, Note_off_c, 0, 38, 52
2, 194972, Note_off_c, 0, 45, 52
2, 194973, Note_on_c, 0, 34, 51
2, 194974, Note_on_c, 0, 46, 51
2, 194975, Note_on_c, 0, 65, 72
2, 194998, Note_off_c, 0, 64, 57
2, 195136, Note_off_c, 0, 65, 58
2, 195137, Note_on_c, 0, 67, 75
2, 195271, Note_off_c, 0, 67, 59
2, 195318, Note_off_c, 0, 46, 52
2, 195321, Note_off_c, 0, 34, 52
2, 195322, Note_on_c, 0, 69, 78
2, 195323, Note_on_c, 0, 36, 70
2, 195328, Control_c, 0, 64, 20
2, 195487, Note_on_c, 0, 65, 52
2, 195498, Control_c, 0, 64, 96
2, 195672, Note_on_c, 0, 41, 42
2, 195673, Note_on_c, 0, 60, 54
2, 195732, Note_off_c, 0, 65, 53
2, 195837, Note_off_c, 0, 60, 53
2, 195838, Note_on_c, 0, 57, 54
2, 196020, Note_off_c, 0, 57, 53
2, 196022, Note_on_c, 0, 45, 45
2, 196029, Control_c, 0, 64, 20
2, 196096, Note_off_c, 0, 41, 50
2, 196200, Control_c, 0, 64, 96
2, 196204, Note_on_c, 0, 65, 54
2, 196388, Note_off_c, 0, 45, 51
2, 196389, Note_on_c, 0, 60, 54
2, 196391, Note_on_c, 0, 48, 51
2, 196421, Note_off_c, 0, 65, 53
2, 196496, Note_off_c, 0, 36, 57
2, 196587, Note_off_c, 0, 60, 53
2, 196588, Note_on_c, 0, 57, 66
2, 196671, Note_off_c, 0, 48, 52
2, 196755, Note_off_c, 0, 57, 56
2, 196762, Note_on_c, 0, 70, 66
2, 196771, Note_on_c, 0, 36, 54
2, 196779, Control_c, 0, 64, 20
2, 196835, Note_off_c, 0, 69, 59
2, 196952, Control_c, 0, 64, 96
2, 196972, Note_on_c, 0, 64, 54
2, 197197, Note_on_c, 0, 48, 52
2, 197198, Note_on_c, 0, 60, 66
2, 197231, Note_off_c, 0, 64, 53
2, 197402, Note_off_c, 0, 60, 56
2, 197442, Note_on_c, 0, 58, 58
2, 197443, Note_on_c, 0, 67, 66
2, 197465, Note_off_c, 0, 70, 56
2, 197526, Note_off_c, 0, 48, 53
2, 197586, Note_off_c, 0, 67, 56
2, 197588, Note_off_c, 0, 58, 54
2, 197630, Note_off_c, 0, 36, 53
2, 197631, Note_on_c, 0, 65, 54
2, 197632, Note_on_c, 0, 41, 47
2, 197633, Note_on_c, 0, 57, 50
2, 197635, Control_c, 0, 64, 20
2, 197819, Control_c, 0, 64, 96
2, 198116, Note_off_c, 0, 41, 51
2, 198595, Note_off_c, 0, 65, 53
2, 198598, Note_off_c, 0, 57, 52
2, 198599, Note_on_c, 0, 29, 42
2, 198625, Control_c, 0, 64, 20
2, 198819, Control_c, 0, 64, 96
2, 199088, Note_off_c, 0, 29, 50
2, 199333, Note_on_c, 0, 77, 66
2, 199541, Note_on_c, 0, 89, 66
2, 199637, Note_off_c, 0, 77, 56
2, 199824, Note_off_c, 0, 89, 56
2, 200125, Note_on_c, 0, 89, 75
2, 200188, Control_c, 0, 64, 20
2, 200209, Note_off_c, 0, 89, 59
2, 200290, Note_on_c, 0, 89, 78
2, 200298, Note_on_c, 0, 46, 54
2, 200359, Control_c, 0, 64, 96
2, 200446, Note_off_c, 0, 89, 59
2, 200553, Note_off_c, 0, 46, 53
2, 200645, Note_on_c, 0, 58, 46
2, 200651, Note_on_c, 0, 62, 50
2, 200652, Note_on_c, 0, 65, 54
2, 200732, Note_off_c, 0, 65, 53
2, 200739, Note_off_c, 0, 62, 52
2, 200743, Note_off_c, 0, 58, 51
2, 200786, Control_c, 0, 64, 20
2, 200825, Note_on_c, 0, 87, 78
2, 200909, Note_off_c, 0, 87, 59
2, 200956, Control_c, 0, 64, 96
2, 200991, Note_on_c, 0, 86, 77
2, 200992, Note_on_c, 0, 65, 53
2, 200998, Note_on_c, 0, 62, 49
2, 201004, Note_on_c, 0, 58, 45
2, 201088, Note_off_c, 0, 65, 53
2, 201093, Note_off_c, 0, 62, 52
2, 201108, Note_off_c, 0, 58, 51
2, 201145, Note_off_c, 0, 86, 59
2, 201347, Note_on_c, 0, 62, 48
2, 201348, Note_on_c, 0, 65, 52
2, 201353, Note_on_c, 0, 58, 44
2, 201429, Note_off_c, 0, 58, 51
2, 201434, Note_off_c, 0, 62, 52
2, 201443, Note_off_c, 0, 65, 53
2, 201493, Control_c, 0, 64, 20
2, 201526, Note_on_c, 0, 84, 76
2, 201610, Note_off_c, 0, 84, 59
2, 201666, Control_c, 0, 64, 96
2, 201692, Note_on_c, 0, 82, 75
2, 201697, Note_on_c, 0, 65, 51
2, 201699, Note_on_c, 0, 62, 47
2, 201703, Note_on_c, 0, 58, 43
2, 201769, Note_off_c, 0, 62, 51
2, 201781, Note_off_c, 0, 58, 50
2, 201792, Note_off_c, 0, 65, 52
2, 201831, Note_off_c, 0, 82, 59
2, 202047, Note_on_c, 0, 58, 42
2, 202049, Note_on_c, 0, 65, 50
2, 202053, Note_on_c, 0, 62, 46
2, 202133, Note_off_c, 0, 58, 50
2, 202135, Note_off_c, 0, 65, 52
2, 202140, Note_off_c, 0, 62, 51
2, 202216, Control_c, 0, 64, 20
2, 202226, Note_on_c, 0, 81, 74
2, 202310, Note_off_c, 0, 81, 59
2, 202386, Control_c, 0, 64, 96
2, 202397, Note_on_c, 0, 79, 73
2, 202398, Note_on_c, 0, 46, 49
2, 202534, Note_off_c, 0, 79, 58
2, 202663, Note_off_c, 0, 46, 52
2, 202746, Note_on_c, 0, 67, 48
2, 202747, Note_on_c, 0, 63, 44
2, 202748, Note_on_c, 0, 58, 40
2, 202827, Note_off_c, 0, 58, 50
2, 202834, Note_off_c, 0, 63, 51
2, 202845, Note_off_c, 0, 67, 52
2, 202899, Control_c, 0, 64, 20
2, 202927, Note_on_c, 0, 77, 71
2, 203008, Note_off_c, 0, 77, 58
2, 203070, Control_c, 0, 64, 96
2, 203093, Note_on_c, 0, 75, 71
2, 203095, Note_on_c, 0, 67, 46
2, 203099, Note_on_c, 0, 63, 42
2, 203104, Note_on_c, 0, 58, 38
2, 203186, Note_off_c, 0, 63, 50
2, 203191, Note_off_c, 0, 67, 51
2, 203202, Note_off_c, 0, 58, 49
2, 203235, Note_off_c, 0, 75, 58
2, 203444, Note_on_c, 0, 63, 41
2, 203445, Note_on_c, 0, 67, 45
2, 203452, Note_on_c, 0, 58, 37
2, 203531, Note_off_c, 0, 63, 50
2, 203532, Note_off_c, 0, 58, 49
2, 203533, Note_off_c, 0, 67, 51
2, 203628, Note_on_c, 0, 74, 69
2, 203646, Control_c, 0, 64, 20
2, 203709, Note_off_c, 0, 74, 57
2, 203794, Note_on_c, 0, 72, 69
2, 203796, Note_on_c, 0, 58, 36
2, 203798, Note_on_c, 0, 67, 44
2, 203800, Note_on_c, 0, 63, 40
2, 203817, Control_c, 0, 64, 96
2, 203860, Note_off_c, 0, 58, 49
2, 203896, Note_off_c, 0, 67, 51
2, 203901, Note_off_c, 0, 63, 50
2, 203929, Note_off_c, 0, 72, 57
2, 204139, Note_on_c, 0, 67, 43
2, 204144, Note_on_c, 0, 63, 39
2, 204149, Note_on_c, 0, 58, 35
2, 204224, Note_off_c, 0, 67, 50
2, 204239, Note_off_c, 0, 63, 49
2, 204274, Note_off_c, 0, 58, 48
2, 204317, Control_c, 0, 64, 20
2, 204328, Note_on_c, 0, 70, 67
2, 204409, Note_off_c, 0, 70, 57
2, 204488, Control_c, 0, 64, 96
2, 204497, Note_on_c, 0, 69, 66
2, 204504, Note_on_c, 0, 46, 42
2, 204823, Note_off_c, 0, 46, 50
2, 204844, Note_off_c, 0, 69, 56
2, 204845, Note_on_c, 0, 63, 51
2, 204849, Note_on_c, 0, 65, 54
2, 204853, Note_on_c, 0, 60, 48
2, 204854, Note_on_c, 0, 58, 46
2, 204862, Control_c, 0, 64, 20
2, 204942, Note_off_c, 0, 60, 52
2, 204943, Note_off_c, 0, 63, 52
2, 204959, Note_off_c, 0, 58, 51
2, 204973, Note_off_c, 0, 65, 53
2, 205029, Note_on_c, 0, 84, 78
2, 205034, Control_c, 0, 64, 96
2, 205195, Note_on_c, 0, 81, 78
2, 205197, Note_on_c, 0, 60, 47
2, 205200, Note_on_c, 0, 63, 50
2, 205202, Note_on_c, 0, 65, 53
2, 205204, Note_on_c, 0, 58, 45
2, 205211, Control_c, 0, 64, 20
2, 205219, Note_off_c, 0, 84, 59
2, 205286, Note_off_c, 0, 65, 53
2, 205287, Note_off_c, 0, 58, 51
2, 205300, Note_off_c, 0, 63, 52
2, 205306, Note_off_c, 0, 60, 51
2, 205382, Control_c, 0, 64, 96
2, 205529, Note_off_c, 0, 81, 59
2, 205545, Note_on_c, 0, 63, 47
2, 205548, Note_on_c, 0, 60, 44
2, 205551, Note_on_c, 0, 65, 50
2, 205552, Note_on_c, 0, 58, 42
2, 205557, Control_c, 0, 64, 20
2, 205634, Note_off_c, 0, 60, 51
2, 205636, Note_off_c, 0, 65, 52
2, 205655, Note_off_c, 0, 58, 50
2, 205659, Note_off_c, 0, 63, 51
2, 205729, Control_c, 0, 64, 96
2, 205730, Note_on_c, 0, 79, 74
2, 205895, Note_on_c, 0, 77, 72
2, 205896, Note_on_c, 0, 63, 45
2, 205901, Note_on_c, 0, 58, 40
2, 205903, Note_on_c, 0, 60, 42
2, 205904, Note_on_c, 0, 65, 48
2, 205905, Control_c, 0, 64, 20
2, 205923, Note_off_c, 0, 79, 59
2, 205984, Note_off_c, 0, 63, 51
2, 205986, Note_off_c, 0, 58, 50
2, 205995, Note_off_c, 0, 65, 52
2, 206005, Note_off_c, 0, 60, 50
2, 206078, Control_c, 0, 64, 96
2, 206229, Note_off_c, 0, 77, 58
2, 206243, Note_on_c, 0, 63, 42
2, 206244, Note_on_c, 0, 65, 45
2, 206245, Note_on_c, 0, 58, 37
2, 206250, Note_on_c, 0, 60, 39
2, 206255, Control_c, 0, 64, 20
2, 206337, Note_off_c, 0, 63, 50
2, 206344, Note_off_c, 0, 65, 51
2, 206350, Note_off_c, 0, 58, 49
2, 206358, Note_off_c, 0, 60, 49
2, 206428, Control_c, 0, 64, 96
2, 206430, Note_on_c, 0, 75, 68
2, 206578, Note_off_c, 0, 75, 57
2, 206601, Note_on_c, 0, 58, 52
2, 206602, Note_on_c, 0, 74, 66
2, 206603, Note_on_c, 0, 46, 42
2, 206605, Control_c, 0, 64, 20
2, 206742, Note_off_c, 0, 58, 53
2, 206743, Note_off_c, 0, 74, 56
2, 206745, Note_off_c, 0, 46, 50
2, 206772, Note_on_c, 0, 67, 50
2, 206777, Control_c, 0, 64, 96
2, 206782, Note_on_c, 0, 55, 43
2, 206948, Note_on_c, 0, 81, 68
2, 206959, Note_on_c, 0, 69, 60
2, 207064, Note_off_c, 0, 55, 50
2, 207116, Note_off_c, 0, 69, 55
2, 207124, Note_off_c, 0, 67, 52
2, 207125, Note_on_c, 0, 65, 52
2, 207131, Note_off_c, 0, 81, 57
2, 207135, Note_on_c, 0, 53, 44
2, 207143, Control_c, 0, 64, 20
2, 207296, Note_on_c, 0, 82, 73
2, 207307, Note_on_c, 0, 70, 65
2, 207325, Control_c, 0, 64, 96
2, 207391, Note_off_c, 0, 53, 51
2, 207457, Note_off_c, 0, 65, 53
2, 207460, Note_on_c, 0, 63, 54
2, 207463, Note_off_c, 0, 70, 56
2, 207464, Note_off_c, 0, 82, 58
2, 207464, Control_c, 0, 64, 20
2, 207469, Note_on_c, 0, 51, 46
2, 207645, Control_c, 0, 64, 96
2, 207646, Note_on_c, 0, 84, 78
2, 207654, Note_on_c, 0, 72, 70
2, 207722, Note_off_c, 0, 51, 51
2, 207806, Note_off_c, 0, 72, 57
2, 207806, Note_off_c, 0, 63, 53
2, 207808, Note_on_c, 0, 62, 57
2, 207813, Note_off_c, 0, 84, 59
2, 207819, Note_on_c, 0, 50, 49
2, 207823, Control_c, 0, 64, 20
2, 207980, Note_on_c, 0, 86, 82
2, 207988, Note_on_c, 0, 74, 74
2, 208007, Control_c, 0, 64, 96
2, 208097, Note_off_c, 0, 50, 52
2, 208139, Note_off_c, 0, 62, 54
2, 208142, Note_on_c, 0, 60, 59
2, 208147, Note_off_c, 0, 86, 60
2, 208149, Note_off_c, 0, 74, 59
2, 208151, Note_on_c, 0, 48, 51
2, 208159, Control_c, 0, 64, 20
2, 208315, Note_on_c, 0, 87, 87
2, 208322, Note_on_c, 0, 75, 79
2, 208343, Control_c, 0, 64, 96
2, 208400, Note_off_c, 0, 48, 52
2, 208474, Note_off_c, 0, 75, 60
2, 208474, Note_off_c, 0, 60, 54
2, 208479, Note_on_c, 0, 58, 62
2, 208481, Note_off_c, 0, 87, 61
2, 208485, Note_on_c, 0, 89, 96
2, 208487, Note_on_c, 0, 46, 54
2, 208495, Control_c, 0, 64, 20
2, 208502, Note_on_c, 0, 77, 76
2, 208602, Note_off_c, 0, 89, 63
2, 208613, Note_off_c, 0, 77, 59
2, 208649, Note_on_c, 0, 89, 96
2, 208665, Note_on_c, 0, 77, 76
2, 208677, Control_c, 0, 64, 96
2, 208702, Note_off_c, 0, 58, 55
2, 208722, Note_off_c, 0, 46, 53
2, 208775, Note_off_c, 0, 77, 59
2, 208798, Note_off_c, 0, 89, 63
2, 208813, Note_on_c, 0, 58, 48
2, 208817, Note_on_c, 0, 62, 50
2, 208819, Note_on_c, 0, 65, 53
2, 208821, Control_c, 0, 64, 20
2, 208900, Note_off_c, 0, 65, 53
2, 208907, Note_off_c, 0, 62, 52
2, 208913, Note_off_c, 0, 58, 52
2, 208980, Note_on_c, 0, 87, 91
2, 208990, Note_on_c, 0, 75, 79
2, 209004, Control_c, 0, 64, 96
2, 209114, Note_off_c, 0, 75, 60
2, 209132, Note_off_c, 0, 87, 62
2, 209149, Note_on_c, 0, 86, 88
2, 209153, Note_on_c, 0, 58, 45
2, 209155, Note_on_c, 0, 62, 47
2, 209156, Note_on_c, 0, 65, 50
2, 209157, Note_on_c, 0, 74, 76
2, 209163, Control_c, 0, 64, 20
2, 209239, Note_off_c, 0, 58, 51
2, 209255, Note_off_c, 0, 62, 51
2, 209261, Note_off_c, 0, 65, 52
2, 209268, Note_off_c, 0, 86, 62
2, 209277, Note_off_c, 0, 74, 59
2, 209314, Note_on_c, 0, 86, 86
2, 209324, Note_on_c, 0, 74, 74
2, 209345, Control_c, 0, 64, 96
2, 209460, Note_off_c, 0, 74, 59
2, 209466, Note_off_c, 0, 86, 61
2, 209485, Note_on_c, 0, 58, 42
2, 209486, Note_on_c, 0, 62, 44
2, 209487, Note_on_c, 0, 65, 47
2, 209492, Control_c, 0, 64, 20
2, 209568, Note_off_c, 0, 62, 51
2, 209580, Note_off_c, 0, 58, 50
2, 209587, Note_off_c, 0, 65, 51
2, 209648, Note_on_c, 0, 84, 80
2, 209658, Note_on_c, 0, 72, 68
2, 209675, Control_c, 0, 64, 96
2, 209782, Note_off_c, 0, 72, 57
2, 209797, Note_off_c, 0, 84, 60
2, 209816, Note_on_c, 0, 82, 78
2, 209821, Note_on_c, 0, 58, 39
2, 209821, Note_on_c, 0, 62, 41
2, 209822, Note_on_c, 0, 65, 44
2, 209824, Note_on_c, 0, 70, 66
2, 209825, Control_c, 0, 64, 20
2, 209900, Note_off_c, 0, 62, 50
2, 209910, Note_off_c, 0, 65, 51
2, 209915, Note_off_c, 0, 58, 49
2, 209939, Note_off_c, 0, 82, 59
2, 209939, Note_off_c, 0, 70, 56
2, 209983, Note_on_c, 0, 82, 75
2, 209989, Note_on_c, 0, 70, 63
2, 210009, Control_c, 0, 64, 96
2, 210139, Note_off_c, 0, 70, 55
2, 210144, Note_on_c, 0, 50, 54
2, 210149, Note_off_c, 0, 82, 59
2, 210155, Note_on_c, 0, 38, 42
2, 210159, Control_c, 0, 64, 20
2, 210316, Note_on_c, 0, 81, 72
2, 210323, Note_on_c, 0, 69, 60
2, 210343, Control_c, 0, 64, 96
2, 210438, Note_off_c, 0, 38, 50
2, 210461, Note_off_c, 0, 69, 55
2, 210474, Note_off_c, 0, 50, 53
2, 210482, Note_on_c, 0, 51, 66
2, 210484, Note_off_c, 0, 81, 58
2, 210487, Note_on_c, 0, 79, 84
2, 210489, Note_on_c, 0, 39, 54
2, 210494, Note_on_c, 0, 67, 72
2, 210595, Note_off_c, 0, 67, 58
2, 210599, Note_off_c, 0, 79, 61
2, 210650, Note_on_c, 0, 79, 84
2, 210657, Note_on_c, 0, 67, 72
2, 210745, Note_off_c, 0, 39, 53
2, 210788, Note_off_c, 0, 67, 58
2, 210798, Control_c, 0, 64, 20
2, 210810, Note_off_c, 0, 51, 56
2, 210812, Note_on_c, 0, 47, 65
2, 210816, Note_off_c, 0, 79, 61
2, 210820, Note_on_c, 0, 35, 53
2, 210982, Control_c, 0, 64, 96
2, 210984, Note_on_c, 0, 77, 82
2, 210991, Note_on_c, 0, 65, 70
2, 211091, Note_off_c, 0, 35, 53
2, 211135, Note_off_c, 0, 65, 57
2, 211143, Note_off_c, 0, 47, 56
2, 211148, Note_on_c, 0, 48, 62
2, 211150, Note_off_c, 0, 77, 60
2, 211154, Note_on_c, 0, 75, 80
2, 211156, Note_on_c, 0, 36, 50
2, 211163, Note_on_c, 0, 63, 68
2, 211166, Control_c, 0, 64, 20
2, 211258, Note_off_c, 0, 63, 57
2, 211272, Note_off_c, 0, 75, 60
2, 211315, Note_on_c, 0, 75, 79
2, 211326, Note_on_c, 0, 63, 67
2, 211350, Control_c, 0, 64, 96
2, 211424, Note_off_c, 0, 36, 52
2, 211463, Note_off_c, 0, 63, 57
2, 211477, Note_off_c, 0, 48, 55
2, 211478, Note_on_c, 0, 50, 59
2, 211483, Note_off_c, 0, 75, 60
2, 211488, Note_on_c, 0, 38, 47
2, 211491, Control_c, 0, 64, 20
2, 211649, Note_on_c, 0, 74, 76
2, 211659, Note_on_c, 0, 62, 64
2, 211675, Control_c, 0, 64, 96
2, 211780, Note_off_c, 0, 38, 51
2, 211810, Note_off_c, 0, 62, 56
2, 211810, Note_off_c, 0, 50, 54
2, 211814, Note_on_c, 0, 51, 56
2, 211817, Note_off_c, 0, 74, 59
2, 211820, Note_on_c, 0, 72, 75
2, 211825, Note_on_c, 0, 39, 44
2, 211830, Note_on_c, 0, 60, 63
2, 211831, Control_c, 0, 64, 20
2, 211937, Note_off_c, 0, 72, 59
2, 211939, Note_off_c, 0, 60, 55
2, 211984, Note_on_c, 0, 72, 74
2, 211993, Note_on_c, 0, 60, 62
2, 212014, Control_c, 0, 64, 96
2, 212097, Note_off_c, 0, 39, 51
2, 212132, Note_off_c, 0, 60, 55
2, 212143, Note_off_c, 0, 51, 54
2, 212145, Note_on_c, 0, 52, 54
2, 212152, Note_off_c, 0, 72, 59
2, 212157, Note_on_c, 0, 40, 42
2, 212167, Control_c, 0, 64, 20
2, 212318, Note_on_c, 0, 70, 72
2, 212324, Note_on_c, 0, 60, 60
2, 212351, Control_c, 0, 64, 96
2, 212462, Note_off_c, 0, 40, 50
2, 212473, Note_off_c, 0, 60, 55
2, 212478, Note_off_c, 0, 52, 53
2, 212481, Note_on_c, 0, 53, 54
2, 212484, Note_off_c, 0, 70, 58
2, 212488, Note_on_c, 0, 41, 48
2, 212651, Note_on_c, 0, 69, 72
2, 212658, Note_on_c, 0, 60, 54
2, 212659, Note_on_c, 0, 63, 60
2, 212665, Control_c, 0, 64, 20
2, 212712, Note_off_c, 0, 41, 52
2, 212775, Note_off_c, 0, 63, 55
2, 212793, Note_off_c, 0, 60, 53
2, 212796, Note_off_c, 0, 53, 53
2, 212801, Note_off_c, 0, 69, 58
2, 212818, Note_on_c, 0, 41, 46
2, 212848, Control_c, 0, 64, 96
2, 212985, Note_on_c, 0, 67, 77
2, 212993, Note_on_c, 0, 62, 65
2, 212995, Note_on_c, 0, 58, 62
2, 213035, Note_off_c, 0, 41, 51
2, 213118, Note_off_c, 0, 62, 56
2, 213132, Note_off_c, 0, 58, 55
2, 213135, Note_off_c, 0, 67, 59
2, 213151, Note_on_c, 0, 41, 51
2, 213159, Control_c, 0, 64, 20
2, 213335, Note_on_c, 0, 65, 82
2, 213343, Control_c, 0, 64, 96
2, 213344, Note_on_c, 0, 57, 45
2, 213345, Note_on_c, 0, 60, 48
2, 213362, Note_off_c, 0, 41, 52
2, 213467, Note_off_c, 0, 57, 51
2, 213484, Note_off_c, 0, 60, 52
2, 213485, Note_off_c, 0, 65, 60
2, 213502, Note_on_c, 0, 41, 56
2, 213518, Note_on_c, 0, 29, 52
2, 213549, Control_c, 0, 64, 20
2, 213678, Note_on_c, 0, 63, 82
2, 213688, Note_on_c, 0, 55, 54
2, 213689, Note_on_c, 0, 58, 58
2, 213730, Control_c, 0, 64, 96
2, 213740, Note_off_c, 0, 41, 54
2, 213782, Note_off_c, 0, 29, 53
2, 213824, Note_off_c, 0, 55, 53
2, 213844, Note_off_c, 0, 58, 54
2, 213846, Note_off_c, 0, 63, 60
2, 213868, Note_on_c, 0, 41, 52
2, 213886, Note_on_c, 0, 29, 61
2, 213891, Control_c, 0, 64, 20
2, 214061, Note_on_c, 0, 62, 87
2, 214070, Note_on_c, 0, 57, 72
2, 214071, Note_on_c, 0, 53, 63
2, 214074, Control_c, 0, 64, 96
2, 214161, Note_off_c, 0, 41, 53
2, 214164, Note_off_c, 0, 29, 55
2, 214200, Note_off_c, 0, 53, 55
2, 214221, Note_off_c, 0, 57, 58
2, 214227, Note_off_c, 0, 62, 61
2, 214262, Note_on_c, 0, 41, 60
2, 214266, Control_c, 0, 64, 20
2, 214286, Note_on_c, 0, 29, 66
2, 214443, Note_on_c, 0, 60, 82
2, 214447, Control_c, 0, 64, 96
2, 214452, Note_on_c, 0, 53, 66
2, 214468, Note_on_c, 0, 57, 60
2, 214471, Note_on_c, 0, 51, 48
2, 214506, Control_c, 0, 64, 20
2, 214518, Note_off_c, 0, 41, 55
2, 214580, Note_off_c, 0, 29, 56
2, 214655, Note_on_c, 0, 41, 70
2, 214671, Note_on_c, 0, 34, 66
2, 214688, Control_c, 0, 64, 96
2, 215225, Note_off_c, 0, 57, 55
2, 215342, Note_off_c, 0, 53, 56
2, 215344, Note_off_c, 0, 51, 52
2, 215365, Note_off_c, 0, 34, 56
2, 215429, Note_off_c, 0, 60, 60
2, 215437, Note_off_c, 0, 41, 57
2, 215445, Note_on_c, 0, 58, 66
2, 215456, Note_on_c, 0, 53, 54
2, 215461, Note_on_c, 0, 46, 44
2, 215462, Note_on_c, 0, 50, 48
2, 215467, Control_c, 0, 64, 20
2, 215651, Control_c, 0, 64, 96
2, 215660, Note_off_c, 0, 46, 51
2, 215695, Note_off_c, 0, 50, 52
2, 215741, Note_off_c, 0, 53, 53
2, 215783, Note_off_c, 0, 58, 56
2, 216054, Note_on_c, 0, 77, 68
2, 216094, Control_c, 0, 64, 20
2, 216239, Note_on_c, 0, 89, 70
2, 216276, Control_c, 0, 64, 96
2, 216287, Note_off_c, 0, 77, 57
2, 216505, Note_off_c, 0, 89, 57
2, 216704, Control_c, 0, 64, 20
2, 216754, Note_on_c, 0, 89, 76
2, 216855, Note_off_c, 0, 89, 59
2, 216886, Control_c, 0, 64, 96
2, 216937, Note_on_c, 0, 89, 78
2, 216942, Note_on_c, 0, 46, 54
2, 217065, Note_off_c, 0, 89, 59
2, 217124, Note_off_c, 0, 46, 53
2, 217292, Note_on_c, 0, 65, 47
2, 217293, Note_on_c, 0, 62, 42
2, 217297, Note_on_c, 0, 58, 39
2, 217308, Control_c, 0, 64, 20
2, 217404, Note_off_c, 0, 62, 50
2, 217420, Note_off_c, 0, 65, 51
2, 217424, Note_off_c, 0, 58, 49
2, 217455, Note_on_c, 0, 87, 78
2, 217490, Control_c, 0, 64, 96
2, 217555, Note_off_c, 0, 87, 59
2, 217638, Note_on_c, 0, 86, 77
2, 217640, Note_on_c, 0, 62, 41
2, 217641, Note_on_c, 0, 65, 46
2, 217644, Note_on_c, 0, 58, 38
2, 217768, Note_off_c, 0, 58, 49
2, 217771, Note_off_c, 0, 86, 59
2, 217787, Note_off_c, 0, 65, 51
2, 217789, Note_off_c, 0, 62, 50
2, 217981, Control_c, 0, 64, 20
2, 217990, Note_on_c, 0, 65, 45
2, 217991, Note_on_c, 0, 58, 37
2, 217994, Note_on_c, 0, 62, 40
2, 218098, Note_off_c, 0, 65, 51
2, 218119, Note_off_c, 0, 58, 49
2, 218130, Note_off_c, 0, 62, 50
2, 218155, Note_on_c, 0, 84, 76
2, 218165, Control_c, 0, 64, 96
2, 218256, Note_off_c, 0, 84, 59
2, 218338, Note_on_c, 0, 82, 75
2, 218343, Note_on_c, 0, 65, 44
2, 218345, Note_on_c, 0, 62, 39
2, 218346, Note_on_c, 0, 58, 36
2, 218464, Note_off_c, 0, 82, 59
2, 218480, Note_off_c, 0, 62, 49
2, 218482, Note_off_c, 0, 58, 49
2, 218482, Note_off_c, 0, 65, 51
2, 218677, Control_c, 0, 64, 20
2, 218691, Note_on_c, 0, 65, 43
2, 218694, Note_on_c, 0, 58, 35
2, 218697, Note_on_c, 0, 62, 38
2, 218831, Note_off_c, 0, 58, 48
2, 218841, Note_off_c, 0, 62, 49
2, 218857, Note_on_c, 0, 81, 74
2, 218859, Control_c, 0, 64, 96
2, 218862, Note_off_c, 0, 65, 50
2, 218957, Note_off_c, 0, 81, 59
2, 219044, Note_on_c, 0, 79, 73
2, 219046, Note_on_c, 0, 46, 48
2, 219163, Note_off_c, 0, 79, 58
2, 219216, Note_off_c, 0, 46, 52
2, 219392, Note_on_c, 0, 63, 42
2, 219393, Note_on_c, 0, 58, 39
2, 219394, Note_on_c, 0, 67, 47
2, 219396, Control_c, 0, 64, 20
2, 219485, Note_off_c, 0, 58, 49
2, 219487, Note_off_c, 0, 67, 51
2, 219497, Note_off_c, 0, 63, 50
2, 219557, Note_on_c, 0, 77, 71
2, 219578, Control_c, 0, 64, 96
2, 219658, Note_off_c, 0, 77, 58
2, 219739, Note_on_c, 0, 75, 71
2, 219741, Note_on_c, 0, 63, 41
2, 219746, Note_on_c, 0, 58, 38
2, 219747, Note_on_c, 0, 67, 46
2, 219838, Note_off_c, 0, 67, 51
2, 219852, Note_off_c, 0, 58, 49
2, 219858, Note_off_c, 0, 63, 50
2, 219879, Note_off_c, 0, 75, 58
2, 220076, Control_c, 0, 64, 20
2, 220087, Note_on_c, 0, 67, 45
2, 220094, Note_on_c, 0, 58, 37
2, 220095, Note_on_c, 0, 63, 40
2, 220181, Note_off_c, 0, 63, 50
2, 220186, Note_off_c, 0, 58, 49
2, 220192, Note_off_c, 0, 67, 51
2, 220258, Note_on_c, 0, 74, 69
2, 220260, Control_c, 0, 64, 96
2, 220339, Note_off_c, 0, 74, 57
2, 220440, Note_on_c, 0, 72, 69
2, 220441, Note_on_c, 0, 63, 39
2, 220447, Note_on_c, 0, 58, 36
2, 220448, Note_on_c, 0, 67, 44
2, 220531, Note_off_c, 0, 63, 49
2, 220547, Note_off_c, 0, 67, 51
2, 220563, Note_off_c, 0, 58, 49
2, 220579, Note_off_c, 0, 72, 57
2, 220764, Control_c, 0, 64, 20
2, 220793, Note_on_c, 0, 67, 43
2, 220796, Note_on_c, 0, 63, 38
2, 220797, Note_on_c, 0, 58, 35
2, 220884, Note_off_c, 0, 67, 50
2, 220919, Note_off_c, 0, 58, 48
2, 220920, Note_off_c, 0, 63, 49
2, 220948, Control_c, 0, 64, 96
2, 220958, Note_on_c, 0, 70, 67
2, 221040, Note_off_c, 0, 70, 57
2, 221145, Note_on_c, 0, 69, 66
2, 221150, Note_on_c, 0, 46, 42
2, 221153, Control_c, 0, 64, 96
2, 221412, Note_off_c, 0, 46, 50
2, 221490, Note_off_c, 0, 69, 56
2, 221495, Note_on_c, 0, 65, 54
2, 221498, Note_on_c, 0, 58, 43
2, 221499, Note_on_c, 0, 60, 46
2, 221500, Note_on_c, 0, 63, 49
2, 221507, Control_c, 0, 64, 20
2, 221617, Note_off_c, 0, 65, 53
2, 221633, Note_off_c, 0, 60, 51
2, 221646, Note_off_c, 0, 58, 50
2, 221659, Note_off_c, 0, 63, 52
2, 221660, Note_on_c, 0, 84, 78
2, 221692, Control_c, 0, 64, 96
2, 221841, Note_on_c, 0, 81, 78
2, 221845, Note_on_c, 0, 65, 53
2, 221848, Note_on_c, 0, 63, 48
2, 221850, Note_on_c, 0, 58, 42
2, 221851, Note_on_c, 0, 60, 45
2, 221853, Control_c, 0, 64, 20
2, 221860, Note_off_c, 0, 84, 59
2, 221953, Note_off_c, 0, 63, 52
2, 221971, Note_off_c, 0, 65, 53
2, 221974, Note_off_c, 0, 58, 50
2, 221991, Note_off_c, 0, 60, 51
2, 222037, Control_c, 0, 64, 96
2, 222158, Note_off_c, 0, 81, 59
2, 222193, Note_on_c, 0, 65, 50
2, 222198, Note_on_c, 0, 63, 45
2, 222199, Note_on_c, 0, 60, 42
2, 222200, Note_on_c, 0, 58, 39
2, 222208, Control_c, 0, 64, 20
2, 222316, Note_off_c, 0, 60, 50
2, 222322, Note_off_c, 0, 58, 49
2, 222331, Note_off_c, 0, 65, 52
2, 222334, Note_off_c, 0, 63, 51
2, 222359, Note_on_c, 0, 79, 74
2, 222392, Control_c, 0, 64, 96
2, 222541, Note_on_c, 0, 77, 72
2, 222543, Note_on_c, 0, 65, 47
2, 222549, Note_on_c, 0, 60, 39
2, 222550, Note_on_c, 0, 63, 42
2, 222551, Note_on_c, 0, 58, 36
2, 222558, Control_c, 0, 64, 20
2, 222564, Note_off_c, 0, 79, 59
2, 222651, Note_off_c, 0, 60, 49
2, 222657, Note_off_c, 0, 65, 51
2, 222670, Note_off_c, 0, 63, 50
2, 222684, Note_off_c, 0, 58, 49
2, 222741, Control_c, 0, 64, 96
2, 222858, Note_off_c, 0, 77, 58
2, 222895, Note_on_c, 0, 65, 44
2, 222897, Note_on_c, 0, 63, 39
2, 222899, Note_on_c, 0, 58, 33
2, 222900, Note_on_c, 0, 60, 36
2, 222906, Control_c, 0, 64, 20
2, 223025, Note_off_c, 0, 60, 49
2, 223029, Note_off_c, 0, 63, 49
2, 223034, Note_off_c, 0, 65, 51
2, 223037, Note_off_c, 0, 58, 48
2, 223060, Note_on_c, 0, 75, 68
2, 223062, Control_c, 0, 64, 96
2, 223243, Note_on_c, 0, 74, 66
2, 223245, Note_on_c, 0, 58, 39
2, 223245, Note_on_c, 0, 46, 42
2, 223287, Control_c, 0, 64, 20
2, 223298, Note_off_c, 0, 75, 57
2, 223382, Note_off_c, 0, 74, 56
2, 223385, Note_off_c, 0, 58, 49
2, 223385, Note_off_c, 0, 46, 50
2, 223410, Note_on_c, 0, 67, 50
2, 223418, Note_on_c, 0, 55, 38
2, 223443, Control_c, 0, 64, 96
2, 223589, Note_on_c, 0, 81, 74
2, 223597, Note_on_c, 0, 69, 64
2, 223708, Note_off_c, 0, 55, 49
2, 223728, Note_off_c, 0, 69, 56
2, 223752, Note_off_c, 0, 81, 59
2, 223763, Note_off_c, 0, 67, 52
2, 223764, Note_on_c, 0, 65, 54
2, 223773, Note_on_c, 0, 53, 42
2, 223780, Control_c, 0, 64, 20
2, 223918, Note_on_c, 0, 82, 79
2, 223929, Note_on_c, 0, 70, 69
2, 223936, Control_c, 0, 64, 96
2, 224027, Note_off_c, 0, 53, 50
2, 224086, Note_off_c, 0, 70, 57
2, 224101, Note_off_c, 0, 82, 60
2, 224113, Note_off_c, 0, 65, 53
2, 224114, Note_on_c, 0, 63, 58
2, 224123, Note_on_c, 0, 51, 46
2, 224128, Control_c, 0, 64, 20
2, 224268, Note_on_c, 0, 84, 84
2, 224277, Note_on_c, 0, 72, 74
2, 224283, Control_c, 0, 64, 96
2, 224387, Note_off_c, 0, 51, 51
2, 224424, Note_off_c, 0, 72, 59
2, 224452, Note_off_c, 0, 84, 61
2, 224463, Note_off_c, 0, 63, 54
2, 224464, Note_on_c, 0, 62, 63
2, 224473, Note_on_c, 0, 50, 51
2, 224480, Control_c, 0, 64, 20
2, 224618, Note_on_c, 0, 86, 88
2, 224627, Note_on_c, 0, 74, 78
2, 224636, Control_c, 0, 64, 96
2, 224721, Note_off_c, 0, 50, 52
2, 224772, Note_off_c, 0, 74, 59
2, 224786, Note_off_c, 0, 86, 62
2, 224795, Note_off_c, 0, 62, 55
2, 224797, Note_on_c, 0, 60, 67
2, 224806, Note_on_c, 0, 48, 55
2, 224807, Control_c, 0, 64, 20
2, 224963, Control_c, 0, 64, 96
2, 224968, Note_on_c, 0, 87, 93
2, 224977, Note_on_c, 0, 75, 83
2, 225062, Note_off_c, 0, 48, 53
2, 225103, Note_off_c, 0, 75, 60
2, 225136, Note_off_c, 0, 87, 63
2, 225140, Note_on_c, 0, 89, 96
2, 225145, Note_off_c, 0, 60, 57
2, 225150, Note_on_c, 0, 58, 72
2, 225151, Note_on_c, 0, 77, 86
2, 225158, Note_on_c, 0, 46, 60
2, 225159, Control_c, 0, 64, 20
2, 225230, Note_off_c, 0, 77, 61
2, 225255, Note_off_c, 0, 89, 63
2, 225303, Note_on_c, 0, 89, 96
2, 225311, Note_on_c, 0, 77, 86
2, 225314, Control_c, 0, 64, 96
2, 225342, Note_off_c, 0, 58, 58
2, 225426, Note_off_c, 0, 46, 55
2, 225437, Note_off_c, 0, 77, 61
2, 225452, Note_off_c, 0, 89, 63
2, 225478, Note_on_c, 0, 58, 59
2, 225480, Note_on_c, 0, 62, 62
2, 225480, Note_on_c, 0, 65, 65
2, 225481, Control_c, 0, 64, 20
2, 225590, Note_off_c, 0, 58, 54
2, 225628, Note_off_c, 0, 65, 56
2, 225639, Control_c, 0, 64, 96
2, 225640, Note_off_c, 0, 62, 55
2, 225654, Note_on_c, 0, 87, 94
2, 225661, Note_on_c, 0, 75, 84
2, 225786, Note_off_c, 0, 75, 61
2, 225803, Note_off_c, 0, 87, 63
2, 225818, Note_on_c, 0, 86, 93
2, 225830, Note_on_c, 0, 74, 83
2, 225834, Note_on_c, 0, 58, 57
2, 225835, Note_on_c, 0, 65, 63
2, 225836, Note_on_c, 0, 62, 60
2, 225837, Control_c, 0, 64, 20
2, 225926, Note_off_c, 0, 74, 60
2, 225929, Note_off_c, 0, 86, 63
2, 225946, Note_off_c, 0, 58, 54
2, 225960, Note_off_c, 0, 62, 55
2, 225962, Note_off_c, 0, 65, 55
2, 225989, Note_on_c, 0, 86, 92
2, 225992, Control_c, 0, 64, 96
2, 225995, Note_on_c, 0, 74, 82
2, 226118, Note_off_c, 0, 74, 60
2, 226137, Note_off_c, 0, 86, 62
2, 226165, Note_on_c, 0, 58, 54
2, 226166, Note_on_c, 0, 65, 60
2, 226167, Note_on_c, 0, 62, 57
2, 226170, Control_c, 0, 64, 20
2, 226291, Note_off_c, 0, 62, 54
2, 226294, Note_off_c, 0, 58, 53
2, 226302, Note_off_c, 0, 65, 55
2, 226319, Note_on_c, 0, 84, 90
2, 226328, Control_c, 0, 64, 96
2, 226329, Note_on_c, 0, 72, 80
2, 226448, Note_off_c, 0, 72, 60
2, 226471, Note_off_c, 0, 84, 62
2, 226503, Note_on_c, 0, 82, 88
2, 226512, Note_on_c, 0, 65, 58
2, 226514, Note_on_c, 0, 62, 55
2, 226515, Note_on_c, 0, 70, 78
2, 226521, Note_on_c, 0, 58, 52
2, 226523, Control_c, 0, 64, 20
2, 226603, Note_off_c, 0, 70, 59
2, 226617, Note_off_c, 0, 82, 62
2, 226626, Note_off_c, 0, 58, 53
2, 226657, Note_off_c, 0, 62, 53
2, 226661, Note_off_c, 0, 65, 54
2, 226671, Note_on_c, 0, 82, 87
2, 226679, Control_c, 0, 64, 96
2, 226680, Note_on_c, 0, 70, 77
2, 226822, Note_off_c, 0, 70, 59
2, 226837, Note_off_c, 0, 82, 61
2, 226841, Note_on_c, 0, 50, 61
2, 226850, Note_on_c, 0, 38, 50
2, 226859, Control_c, 0, 64, 20
2, 227004, Note_on_c, 0, 81, 85
2, 227014, Note_on_c, 0, 69, 75
2, 227015, Control_c, 0, 64, 96
2, 227120, Note_off_c, 0, 38, 52
2, 227142, Note_off_c, 0, 69, 59
2, 227187, Note_off_c, 0, 81, 61
2, 227190, Note_off_c, 0, 50, 55
2, 227193, Note_on_c, 0, 79, 84
2, 227194, Note_on_c, 0, 51, 58
2, 227201, Note_on_c, 0, 67, 74
2, 227203, Note_on_c, 0, 39, 47
2, 227210, Control_c, 0, 64, 20
2, 227268, Note_off_c, 0, 67, 59
2, 227318, Note_off_c, 0, 79, 61
2, 227354, Note_on_c, 0, 79, 83
2, 227364, Note_on_c, 0, 67, 73
2, 227365, Control_c, 0, 64, 96
2, 227472, Note_off_c, 0, 67, 58
2, 227492, Note_off_c, 0, 39, 51
2, 227521, Note_off_c, 0, 79, 60
2, 227523, Note_off_c, 0, 51, 54
2, 227524, Note_on_c, 0, 47, 56
2, 227534, Note_on_c, 0, 35, 45
2, 227541, Control_c, 0, 64, 20
2, 227687, Note_on_c, 0, 77, 80
2, 227697, Control_c, 0, 64, 96
2, 227698, Note_on_c, 0, 65, 74
2, 227805, Note_off_c, 0, 35, 51
2, 227852, Note_off_c, 0, 65, 59
2, 227872, Note_off_c, 0, 77, 60
2, 227874, Note_off_c, 0, 47, 54
2, 227877, Note_on_c, 0, 75, 79
2, 227877, Note_on_c, 0, 48, 53
2, 227885, Note_on_c, 0, 63, 73
2, 227887, Note_on_c, 0, 36, 42
2, 227900, Control_c, 0, 64, 20
2, 227993, Note_off_c, 0, 63, 58
2, 227997, Note_off_c, 0, 75, 60
2, 228038, Note_on_c, 0, 75, 78
2, 228048, Note_on_c, 0, 63, 72
2, 228056, Control_c, 0, 64, 96
2, 228170, Note_off_c, 0, 36, 50
2, 228184, Note_off_c, 0, 63, 58
2, 228207, Note_off_c, 0, 75, 59
2, 228208, Note_off_c, 0, 48, 53
2, 228210, Note_on_c, 0, 50, 51
2, 228218, Note_on_c, 0, 38, 40
2, 228235, Control_c, 0, 64, 20
2, 228372, Note_on_c, 0, 74, 76
2, 228382, Note_on_c, 0, 62, 70
2, 228391, Control_c, 0, 64, 96
2, 228484, Note_off_c, 0, 38, 50
2, 228530, Note_off_c, 0, 62, 57
2, 228557, Note_off_c, 0, 74, 59
2, 228560, Note_off_c, 0, 50, 52
2, 228561, Note_on_c, 0, 72, 75
2, 228562, Note_on_c, 0, 51, 49
2, 228569, Note_on_c, 0, 60, 69
2, 228571, Note_on_c, 0, 39, 38
2, 228574, Control_c, 0, 64, 20
2, 228678, Note_off_c, 0, 60, 57
2, 228681, Note_off_c, 0, 72, 59
2, 228722, Note_on_c, 0, 72, 74
2, 228730, Note_on_c, 0, 60, 68
2, 228731, Control_c, 0, 64, 96
2, 228821, Note_off_c, 0, 39, 49
2, 228860, Note_off_c, 0, 60, 57
2, 228890, Note_off_c, 0, 72, 59
2, 228891, Note_off_c, 0, 51, 52
2, 228892, Note_on_c, 0, 52, 47
2, 228901, Note_on_c, 0, 40, 36
2, 228909, Control_c, 0, 64, 20
2, 229056, Note_on_c, 0, 70, 72
2, 229064, Note_on_c, 0, 60, 66
2, 229065, Control_c, 0, 64, 96
2, 229203, Note_off_c, 0, 40, 49
2, 229211, Note_off_c, 0, 60, 56
2, 229239, Note_off_c, 0, 70, 58
2, 229240, Note_off_c, 0, 52, 51
2, 229242, Note_on_c, 0, 53, 47
2, 229253, Note_on_c, 0, 41, 36
2, 229254, Control_c, 0, 64, 20
2, 229406, Note_on_c, 0, 69, 72
2, 229410, Control_c, 0, 64, 96
2, 229414, Note_on_c, 0, 63, 66
2, 229416, Note_on_c, 0, 60, 63
2, 229454, Note_off_c, 0, 41, 49
2, 229542, Note_off_c, 0, 63, 56
2, 229552, Note_off_c, 0, 60, 55
2, 229555, Note_off_c, 0, 69, 58
2, 229561, Note_off_c, 0, 53, 51
2, 229574, Note_on_c, 0, 41, 55
2, 229578, Control_c, 0, 64, 20
2, 229735, Control_c, 0, 64, 96
2, 229740, Note_on_c, 0, 67, 77
2, 229749, Note_on_c, 0, 58, 68
2, 229749, Note_on_c, 0, 62, 71
2, 229813, Note_off_c, 0, 41, 53
2, 229876, Note_off_c, 0, 62, 58
2, 229884, Note_off_c, 0, 58, 57
2, 229905, Note_off_c, 0, 67, 59
2, 229924, Note_on_c, 0, 41, 62
2, 229924, Control_c, 0, 64, 20
2, 230079, Control_c, 0, 64, 96
2, 230107, Note_on_c, 0, 65, 82
2, 230115, Note_on_c, 0, 60, 60
2, 230117, Note_on_c, 0, 57, 57
2, 230192, Note_off_c, 0, 41, 55
2, 230234, Note_off_c, 0, 57, 54
2, 230239, Note_off_c, 0, 60, 55
2, 230256, Note_off_c, 0, 65, 60
2, 230290, Note_on_c, 0, 41, 69
2, 230302, Control_c, 0, 64, 20
2, 230307, Note_on_c, 0, 29, 57
2, 230458, Control_c, 0, 64, 96
2, 230473, Note_on_c, 0, 63, 88
2, 230481, Note_on_c, 0, 58, 67
2, 230483, Note_on_c, 0, 55, 64
2, 230538, Note_off_c, 0, 41, 57
2, 230556, Note_off_c, 0, 29, 54
2, 230617, Note_off_c, 0, 58, 57
2, 230638, Note_off_c, 0, 55, 56
2, 230640, Note_off_c, 0, 63, 62
2, 230659, Note_on_c, 0, 41, 76
2, 230671, Control_c, 0, 64, 20
2, 230674, Note_on_c, 0, 29, 64
2, 230826, Control_c, 0, 64, 96
2, 230858, Note_on_c, 0, 62, 93
2, 230867, Note_on_c, 0, 53, 71
2, 230868, Note_on_c, 0, 57, 74
2, 230890, Note_off_c, 0, 29, 56
2, 230891, Note_off_c, 0, 41, 59
2, 230998, Note_off_c, 0, 57, 59
2, 231011, Note_off_c, 0, 53, 58
2, 231025, Note_off_c, 0, 62, 63
2, 231041, Note_on_c, 0, 41, 84
2, 231057, Note_on_c, 0, 29, 72
2, 231065, Control_c, 0, 64, 20
2, 231222, Control_c, 0, 64, 96
2, 231243, Note_on_c, 0, 60, 90
2, 231264, Note_on_c, 0, 51, 66
2, 231265, Note_on_c, 0, 57, 78
2, 231269, Note_on_c, 0, 53, 72
2, 231273, Control_c, 0, 64, 20
2, 231299, Note_off_c, 0, 41, 61
2, 231331, Note_off_c, 0, 29, 58
2, 231430, Control_c, 0, 64, 96
2, 231448, Note_on_c, 0, 41, 80
2, 231450, Note_on_c, 0, 34, 72
2, 231503, Control_c, 0, 64, 20
2, 231659, Control_c, 0, 64, 96
2, 232072, Note_off_c, 0, 34, 58
2, 232103, Note_off_c, 0, 51, 56
2, 232112, Note_off_c, 0, 53, 58
2, 232116, Note_off_c, 0, 41, 60
2, 232175, Note_off_c, 0, 57, 59
2, 232224, Note_off_c, 0, 60, 62
2, 232241, Note_on_c, 0, 58, 66
2, 232252, Note_on_c, 0, 53, 54
2, 232256, Note_on_c, 0, 50, 52
2, 232259, Note_on_c, 0, 46, 47
2, 232266, Control_c, 0, 64, 20
2, 232422, Control_c, 0, 64, 96
2, 232583, Note_off_c, 0, 53, 53
2, 232614, Note_off_c, 0, 46, 51
2, 232634, Note_off_c, 0, 50, 53
2, 232679, Note_off_c, 0, 58, 56
2, 232937, Control_c, 0, 64, 20
2, 233051, Note_on_c, 0, 76, 48
2, 233093, Control_c, 0, 64, 96
2, 233238, Note_on_c, 0, 77, 60
2, 233259, Note_off_c, 0, 76, 52
2, 233408, Note_on_c, 0, 74, 63
2, 233421, Note_off_c, 0, 77, 55
2, 233603, Note_on_c, 0, 70, 54
2, 233642, Note_off_c, 0, 74, 55
2, 233746, Note_off_c, 0, 70, 53
2, 233782, Note_on_c, 0, 60, 56
2, 233783, Note_on_c, 0, 69, 72
2, 233784, Note_on_c, 0, 53, 48
2, 233786, Control_c, 0, 64, 20
2, 233953, Control_c, 0, 64, 96
2, 233979, Note_on_c, 0, 72, 48
2, 234152, Note_on_c, 0, 78, 52
2, 234183, Note_off_c, 0, 72, 52
2, 234343, Note_on_c, 0, 76, 56
2, 234368, Note_off_c, 0, 78, 53
2, 234473, Note_off_c, 0, 60, 54
2, 234477, Note_off_c, 0, 76, 54
2, 234511, Note_on_c, 0, 77, 60
2, 234534, Note_off_c, 0, 69, 58
2, 234567, Control_c, 0, 64, 20
2, 234710, Note_on_c, 0, 69, 48
2, 234711, Note_on_c, 0, 60, 36
2, 234734, Control_c, 0, 64, 96
2, 234889, Note_on_c, 0, 72, 48
2, 234891, Note_on_c, 0, 63, 36
2, 234903, Note_off_c, 0, 60, 49
2, 234920, Note_off_c, 0, 69, 52
2, 235080, Note_on_c, 0, 69, 48
2, 235083, Control_c, 0, 64, 20
2, 235084, Note_on_c, 0, 60, 36
2, 235086, Note_off_c, 0, 63, 49
2, 235115, Note_off_c, 0, 72, 52
2, 235256, Control_c, 0, 64, 96
2, 235260, Note_on_c, 0, 70, 48
2, 235260, Note_on_c, 0, 62, 36
2, 235270, Note_off_c, 0, 69, 52
2, 235279, Note_off_c, 0, 60, 49
2, 235445, Note_on_c, 0, 74, 48
2, 235449, Note_on_c, 0, 65, 36
2, 235458, Note_off_c, 0, 62, 49
2, 235474, Note_off_c, 0, 70, 52
2, 235614, Note_off_c, 0, 77, 55
2, 235617, Note_on_c, 0, 70, 48
2, 235619, Note_on_c, 0, 62, 36
2, 235634, Note_off_c, 0, 74, 52
2, 235652, Note_off_c, 0, 65, 49
2, 235674, Note_off_c, 0, 53, 52
2, 235801, Note_on_c, 0, 74, 48
2, 235801, Note_on_c, 0, 65, 36
2, 235809, Note_off_c, 0, 62, 49
2, 235829, Note_off_c, 0, 70, 52
2, 235934, Note_off_c, 0, 65, 49
2, 235936, Note_off_c, 0, 74, 52
2, 235968, Control_c, 0, 64, 20
2, 235970, Control_c, 0, 64, 96
2, 235971, Note_on_c, 0, 72, 54
2, 235972, Note_on_c, 0, 57, 42
2, 235973, Note_on_c, 0, 53, 46
2, 236162, Note_on_c, 0, 75, 51
2, 236339, Note_on_c, 0, 79, 54
2, 236374, Note_off_c, 0, 75, 52
2, 236528, Control_c, 0, 64, 20
2, 236530, Note_on_c, 0, 76, 57
2, 236531, Note_off_c, 0, 79, 53
2, 236642, Note_off_c, 0, 57, 50
2, 236644, Note_off_c, 0, 72, 53
2, 236663, Note_off_c, 0, 76, 54
2, 236694, Control_c, 0, 64, 96
2, 236695, Note_on_c, 0, 77, 60
2, 236879, Note_on_c, 0, 72, 48
2, 236882, Note_on_c, 0, 57, 36
2, 237050, Note_off_c, 0, 72, 52
2, 237050, Note_off_c, 0, 57, 49
2, 237054, Note_on_c, 0, 60, 32
2, 237055, Note_on_c, 0, 75, 42
2, 237240, Note_on_c, 0, 72, 49
2, 237241, Control_c, 0, 64, 20
2, 237244, Note_on_c, 0, 57, 37
2, 237264, Note_off_c, 0, 75, 50
2, 237271, Note_off_c, 0, 60, 48
2, 237410, Note_on_c, 0, 74, 56
2, 237413, Control_c, 0, 64, 96
2, 237418, Note_on_c, 0, 58, 42
2, 237429, Note_off_c, 0, 72, 52
2, 237448, Note_off_c, 0, 57, 49
2, 237605, Note_on_c, 0, 70, 64
2, 237606, Note_on_c, 0, 62, 48
2, 237622, Note_off_c, 0, 74, 54
2, 237640, Note_off_c, 0, 58, 50
2, 237777, Note_off_c, 0, 77, 55
2, 237782, Note_on_c, 0, 74, 72
2, 237787, Note_off_c, 0, 70, 56
2, 237788, Note_on_c, 0, 58, 53
2, 237789, Note_off_c, 0, 62, 52
2, 237908, Note_off_c, 0, 53, 51
2, 237979, Note_on_c, 0, 70, 79
2, 237980, Note_on_c, 0, 62, 58
2, 237981, Note_off_c, 0, 58, 53
2, 237996, Note_off_c, 0, 74, 58
2, 238111, Note_off_c, 0, 62, 54
2, 238117, Note_off_c, 0, 70, 60
2, 238158, Note_on_c, 0, 60, 42
2, 238159, Note_on_c, 0, 69, 78
2, 238160, Note_on_c, 0, 53, 42
2, 238170, Control_c, 0, 64, 20
2, 238347, Control_c, 0, 64, 96
2, 238349, Note_on_c, 0, 72, 57
2, 238527, Note_on_c, 0, 78, 60
2, 238557, Note_off_c, 0, 72, 54
2, 238717, Note_on_c, 0, 76, 63
2, 238744, Note_off_c, 0, 78, 55
2, 238832, Note_off_c, 0, 76, 55
2, 238885, Note_on_c, 0, 77, 66
2, 238892, Control_c, 0, 64, 20
2, 238911, Note_off_c, 0, 69, 59
2, 238935, Note_off_c, 0, 60, 50
2, 239069, Control_c, 0, 64, 96
2, 239080, Note_on_c, 0, 69, 54
2, 239082, Note_on_c, 0, 60, 49
2, 239261, Note_off_c, 0, 60, 52
2, 239262, Note_off_c, 0, 69, 53
2, 239263, Note_on_c, 0, 63, 51
2, 239264, Note_on_c, 0, 72, 54
2, 239457, Note_off_c, 0, 72, 53
2, 239459, Note_off_c, 0, 63, 52
2, 239459, Note_on_c, 0, 69, 54
2, 239460, Note_on_c, 0, 60, 52
2, 239636, Note_off_c, 0, 60, 53
2, 239637, Note_off_c, 0, 69, 53
2, 239639, Note_on_c, 0, 70, 54
2, 239641, Note_on_c, 0, 62, 54
2, 239648, Control_c, 0, 64, 20
2, 239821, Control_c, 0, 64, 96
2, 239828, Note_off_c, 0, 70, 53
2, 239830, Note_off_c, 0, 62, 53
2, 239831, Note_on_c, 0, 74, 54
2, 239832, Note_on_c, 0, 65, 55
2, 240004, Note_off_c, 0, 74, 53
2, 240008, Note_off_c, 0, 65, 53
2, 240009, Note_on_c, 0, 70, 54
2, 240010, Note_on_c, 0, 62, 57
2, 240179, Note_off_c, 0, 70, 53
2, 240180, Note_off_c, 0, 62, 54
2, 240181, Note_on_c, 0, 74, 54
2, 240183, Note_on_c, 0, 65, 58
2, 240319, Note_off_c, 0, 74, 53
2, 240322, Note_off_c, 0, 65, 54
2, 240376, Note_on_c, 0, 71, 54
2, 240377, Note_on_c, 0, 62, 60
2, 240390, Control_c, 0, 64, 20
2, 240510, Note_off_c, 0, 62, 55
2, 240544, Note_off_c, 0, 71, 53
2, 240547, Note_on_c, 0, 74, 57
2, 240548, Note_on_c, 0, 65, 61
2, 240560, Control_c, 0, 64, 96
2, 240734, Note_off_c, 0, 74, 54
2, 240735, Note_off_c, 0, 65, 55
2, 240737, Note_on_c, 0, 62, 63
2, 240738, Note_on_c, 0, 71, 60
2, 240906, Note_off_c, 0, 62, 55
2, 240906, Note_off_c, 0, 71, 55
2, 240907, Note_on_c, 0, 74, 63
2, 240909, Note_on_c, 0, 65, 64
2, 241096, Note_off_c, 0, 65, 56
2, 241097, Note_off_c, 0, 74, 55
2, 241098, Note_on_c, 0, 63, 66
2, 241099, Note_on_c, 0, 72, 66
2, 241106, Control_c, 0, 64, 20
2, 241265, Note_off_c, 0, 72, 56
2, 241266, Note_off_c, 0, 63, 56
2, 241267, Note_on_c, 0, 65, 67
2, 241268, Note_on_c, 0, 75, 69
2, 241273, Control_c, 0, 64, 96
2, 241451, Note_off_c, 0, 65, 57
2, 241452, Note_off_c, 0, 75, 57
2, 241453, Note_off_c, 0, 53, 50
2, 241454, Note_on_c, 0, 63, 69
2, 241455, Note_on_c, 0, 72, 72
2, 241618, Note_off_c, 0, 72, 58
2, 241620, Note_off_c, 0, 63, 57
2, 241621, Note_on_c, 0, 75, 75
2, 241621, Note_on_c, 0, 65, 70
2, 241804, Note_off_c, 0, 65, 57
2, 241805, Note_off_c, 0, 75, 59
2, 241807, Note_on_c, 0, 53, 72
2, 241808, Note_on_c, 0, 60, 72
2, 241809, Note_on_c, 0, 69, 78
2, 241812, Control_c, 0, 64, 20
2, 241916, Note_off_c, 0, 77, 56
2, 241938, Note_off_c, 0, 60, 58
2, 241972, Note_on_c, 0, 77, 81
2, 241973, Note_on_c, 0, 63, 73
2, 241998, Control_c, 0, 64, 96
2, 242072, Note_off_c, 0, 53, 58
2, 242155, Note_off_c, 0, 63, 58
2, 242159, Note_on_c, 0, 53, 75
2, 242160, Note_on_c, 0, 60, 75
2, 242161, Note_on_c, 0, 89, 84
2, 242227, Note_off_c, 0, 77, 60
2, 242288, Note_off_c, 0, 89, 61
2, 242322, Note_off_c, 0, 69, 59
2, 242325, Note_off_c, 0, 60, 59
2, 242325, Note_on_c, 0, 63, 76
2, 242326, Note_on_c, 0, 89, 87
2, 242396, Note_off_c, 0, 89, 61
2, 242499, Note_on_c, 0, 89, 96
2, 242505, Note_off_c, 0, 63, 59
2, 242506, Note_off_c, 0, 53, 59
2, 242507, Control_c, 0, 64, 20
2, 242508, Note_on_c, 0, 58, 78
2, 242509, Note_on_c, 0, 77, 90
2, 242510, Note_on_c, 0, 46, 78
2, 242582, Note_off_c, 0, 77, 62
2, 242613, Note_off_c, 0, 89, 63
2, 242663, Control_c, 0, 64, 96
2, 242664, Note_on_c, 0, 89, 60
2, 242673, Note_on_c, 0, 77, 48
2, 242719, Note_off_c, 0, 46, 59
2, 242731, Note_off_c, 0, 58, 59
2, 242783, Note_off_c, 0, 77, 52
2, 242812, Note_off_c, 0, 89, 55
2, 242838, Note_on_c, 0, 58, 36
2, 242844, Note_on_c, 0, 65, 42
2, 242845, Note_on_c, 0, 62, 39
2, 242852, Control_c, 0, 64, 20
2, 242965, Note_off_c, 0, 58, 49
2, 242976, Note_off_c, 0, 65, 50
2, 242996, Note_off_c, 0, 62, 49
2, 242997, Note_on_c, 0, 87, 72
2, 243006, Note_on_c, 0, 75, 60
2, 243009, Control_c, 0, 64, 96
2, 243123, Note_off_c, 0, 75, 55
2, 243146, Note_off_c, 0, 87, 58
2, 243163, Note_on_c, 0, 86, 72
2, 243174, Note_on_c, 0, 74, 60
2, 243177, Note_on_c, 0, 65, 42
2, 243178, Note_on_c, 0, 58, 36
2, 243181, Note_on_c, 0, 62, 39
2, 243189, Control_c, 0, 64, 20
2, 243258, Note_off_c, 0, 74, 55
2, 243279, Note_off_c, 0, 86, 58
2, 243294, Note_off_c, 0, 62, 49
2, 243303, Note_off_c, 0, 58, 49
2, 243308, Note_off_c, 0, 65, 50
2, 243331, Note_on_c, 0, 86, 72
2, 243339, Note_on_c, 0, 74, 60
2, 243345, Control_c, 0, 64, 96
2, 243463, Note_off_c, 0, 74, 55
2, 243481, Note_off_c, 0, 86, 58
2, 243506, Note_on_c, 0, 62, 37
2, 243507, Note_on_c, 0, 65, 40
2, 243512, Note_on_c, 0, 58, 34
2, 243520, Control_c, 0, 64, 20
2, 243621, Note_off_c, 0, 62, 49
2, 243636, Note_off_c, 0, 58, 48
2, 243645, Note_off_c, 0, 65, 50
2, 243665, Note_on_c, 0, 84, 71
2, 243672, Note_on_c, 0, 72, 59
2, 243677, Control_c, 0, 64, 96
2, 243792, Note_off_c, 0, 72, 54
2, 243815, Note_off_c, 0, 84, 58
2, 243831, Note_on_c, 0, 82, 70
2, 243841, Note_on_c, 0, 62, 36
2, 243842, Note_on_c, 0, 70, 58
2, 243845, Note_on_c, 0, 65, 39
2, 243846, Note_on_c, 0, 58, 33
2, 243850, Control_c, 0, 64, 20
2, 243926, Note_off_c, 0, 70, 54
2, 243945, Note_off_c, 0, 82, 57
2, 243966, Note_off_c, 0, 62, 49
2, 243972, Note_off_c, 0, 65, 49
2, 243977, Note_off_c, 0, 58, 48
2, 243999, Note_on_c, 0, 82, 69
2, 244006, Control_c, 0, 64, 96
2, 244007, Note_on_c, 0, 70, 57
2, 244132, Note_off_c, 0, 70, 54
2, 244165, Note_off_c, 0, 82, 57
2, 244169, Note_on_c, 0, 50, 56
2, 244175, Control_c, 0, 64, 20
2, 244179, Note_on_c, 0, 38, 45
2, 244330, Note_on_c, 0, 81, 68
2, 244331, Control_c, 0, 64, 96
2, 244342, Note_on_c, 0, 69, 56
2, 244454, Note_off_c, 0, 38, 51
2, 244475, Note_off_c, 0, 69, 54
2, 244499, Note_off_c, 0, 81, 57
2, 244500, Note_off_c, 0, 50, 54
2, 244504, Note_on_c, 0, 51, 54
2, 244505, Note_on_c, 0, 79, 67
2, 244512, Note_on_c, 0, 67, 55
2, 244515, Note_on_c, 0, 39, 43
2, 244517, Control_c, 0, 64, 20
2, 244607, Note_off_c, 0, 67, 53
2, 244628, Note_off_c, 0, 79, 57
2, 244664, Note_on_c, 0, 79, 67
2, 244674, Control_c, 0, 64, 96
2, 244676, Note_on_c, 0, 67, 55
2, 244793, Note_off_c, 0, 39, 50
2, 244806, Note_off_c, 0, 67, 53
2, 244832, Note_off_c, 0, 79, 57
2, 244834, Note_off_c, 0, 51, 53
2, 244836, Note_on_c, 0, 47, 53
2, 244845, Note_on_c, 0, 35, 42
2, 244853, Control_c, 0, 64, 20
2, 244998, Note_on_c, 0, 77, 66
2, 245008, Note_on_c, 0, 65, 54
2, 245010, Control_c, 0, 64, 96
2, 245127, Note_off_c, 0, 65, 53
2, 245133, Note_off_c, 0, 35, 50
2, 245166, Note_off_c, 0, 77, 56
2, 245167, Note_off_c, 0, 47, 53
2, 245169, Note_on_c, 0, 75, 65
2, 245171, Note_on_c, 0, 48, 52
2, 245179, Note_on_c, 0, 36, 41
2, 245180, Note_on_c, 0, 63, 53
2, 245181, Control_c, 0, 64, 20
2, 245269, Note_off_c, 0, 63, 53
2, 245278, Note_off_c, 0, 75, 56
2, 245333, Note_on_c, 0, 75, 64
2, 245337, Control_c, 0, 64, 96
2, 245342, Note_on_c, 0, 63, 52
2, 245465, Note_off_c, 0, 36, 50
2, 245475, Note_off_c, 0, 63, 53
2, 245498, Note_off_c, 0, 75, 56
2, 245501, Note_off_c, 0, 48, 53
2, 245503, Note_on_c, 0, 50, 50
2, 245510, Note_on_c, 0, 38, 39
2, 245517, Control_c, 0, 64, 20
2, 245666, Note_on_c, 0, 74, 63
2, 245673, Control_c, 0, 64, 96
2, 245674, Note_on_c, 0, 62, 51
2, 245759, Note_off_c, 0, 38, 49
2, 245808, Note_off_c, 0, 62, 52
2, 245832, Note_off_c, 0, 74, 55
2, 245834, Note_off_c, 0, 50, 52
2, 245837, Note_on_c, 0, 72, 62
2, 245839, Note_on_c, 0, 51, 49
2, 245845, Note_on_c, 0, 60, 50
2, 245848, Note_on_c, 0, 39, 38
2, 245857, Control_c, 0, 64, 20
2, 245945, Note_off_c, 0, 60, 52
2, 245959, Note_off_c, 0, 72, 55
2, 246000, Note_on_c, 0, 72, 62
2, 246007, Note_on_c, 0, 60, 50
2, 246013, Control_c, 0, 64, 96
2, 246131, Note_off_c, 0, 39, 49
2, 246133, Note_off_c, 0, 60, 52
2, 246166, Note_off_c, 0, 72, 55
2, 246168, Note_off_c, 0, 51, 52
2, 246170, Note_on_c, 0, 52, 48
2, 246180, Note_on_c, 0, 40, 37
2, 246182, Control_c, 0, 64, 20
2, 246334, Note_on_c, 0, 70, 60
2, 246337, Control_c, 0, 64, 96
2, 246343, Note_on_c, 0, 60, 48
2, 246433, Note_off_c, 0, 40, 49
2, 246471, Note_off_c, 0, 60, 52
2, 246500, Note_off_c, 0, 70, 55
2, 246501, Note_off_c, 0, 52, 52
2, 246504, Note_on_c, 0, 53, 48
2, 246514, Note_on_c, 0, 41, 37
2, 246520, Control_c, 0, 64, 20
2, 246665, Note_on_c, 0, 69, 59
2, 246678, Control_c, 0, 64, 96
2, 246679, Note_on_c, 0, 60, 46
2, 246679, Note_on_c, 0, 63, 49
2, 246755, Note_off_c, 0, 41, 49
2, 246797, Note_off_c, 0, 63, 52
2, 246797, Note_off_c, 0, 60, 51
2, 246817, Note_off_c, 0, 69, 54
2, 246819, Note_off_c, 0, 53, 52
2, 246841, Note_on_c, 0, 41, 49
2, 246843, Control_c, 0, 64, 20
2, 247000, Note_on_c, 0, 67, 67
2, 247000, Control_c, 0, 64, 96
2, 247011, Note_on_c, 0, 58, 54
2, 247012, Note_on_c, 0, 62, 57
2, 247077, Note_off_c, 0, 41, 52
2, 247130, Note_off_c, 0, 58, 53
2, 247152, Note_off_c, 0, 62, 54
2, 247167, Note_off_c, 0, 67, 57
2, 247192, Note_on_c, 0, 41, 56
2, 247201, Control_c, 0, 64, 20
2, 247356, Control_c, 0, 64, 96
2, 247366, Note_on_c, 0, 65, 75
2, 247378, Note_on_c, 0, 57, 52
2, 247379, Note_on_c, 0, 60, 55
2, 247392, Note_off_c, 0, 41, 54
2, 247497, Note_off_c, 0, 57, 53
2, 247506, Note_off_c, 0, 60, 53
2, 247518, Note_off_c, 0, 65, 59
2, 247560, Note_on_c, 0, 41, 68
2, 247567, Note_on_c, 0, 29, 63
2, 247571, Control_c, 0, 64, 20
2, 247726, Control_c, 0, 64, 96
2, 247732, Note_on_c, 0, 63, 83
2, 247745, Note_on_c, 0, 55, 59
2, 247746, Note_on_c, 0, 58, 62
2, 247748, Note_off_c, 0, 29, 55
2, 247807, Note_off_c, 0, 41, 57
2, 247885, Note_off_c, 0, 58, 55
2, 247887, Note_off_c, 0, 55, 54
2, 247900, Note_off_c, 0, 63, 60
2, 247927, Note_on_c, 0, 41, 75
2, 247934, Note_on_c, 0, 29, 70
2, 247943, Control_c, 0, 64, 20
2, 248099, Control_c, 0, 64, 96
2, 248102, Note_on_c, 0, 62, 91
2, 248111, Note_on_c, 0, 53, 66
2, 248112, Note_on_c, 0, 57, 69
2, 248151, Note_off_c, 0, 41, 59
2, 248161, Note_off_c, 0, 29, 57
2, 248248, Note_off_c, 0, 57, 57
2, 248268, Note_off_c, 0, 53, 56
2, 248284, Note_off_c, 0, 62, 62
2, 248308, Note_on_c, 0, 41, 83
2, 248319, Note_on_c, 0, 29, 78
2, 248330, Control_c, 0, 64, 20
2, 248485, Control_c, 0, 64, 96
2, 248502, Note_on_c, 0, 60, 100
2, 248507, Note_off_c, 0, 29, 59
2, 248518, Note_on_c, 0, 51, 70
2, 248519, Note_on_c, 0, 57, 73
2, 248526, Note_on_c, 0, 53, 70
2, 248532, Control_c, 0, 64, 20
2, 248564, Note_off_c, 0, 41, 60
2, 248688, Control_c, 0, 64, 96
2, 248711, Note_on_c, 0, 34, 78
2, 248711, Note_on_c, 0, 41, 83
2, 248967, Control_c, 0, 64, 20
2, 249122, Control_c, 0, 64, 96
2, 249305, Note_off_c, 0, 51, 57
2, 249305, Note_off_c, 0, 41, 60
2, 249331, Note_off_c, 0, 34, 59
2, 249346, Note_off_c, 0, 57, 58
2, 249374, Note_off_c, 0, 53, 57
2, 249484, Note_off_c, 0, 60, 65
2, 249503, Note_on_c, 0, 58, 66
2, 249519, Note_on_c, 0, 50, 48
2, 249520, Note_on_c, 0, 53, 51
2, 249522, Note_on_c, 0, 46, 44
2, 249531, Control_c, 0, 64, 20
2, 249686, Control_c, 0, 64, 96
2, 249849, Note_off_c, 0, 53, 52
2, 249851, Note_off_c, 0, 46, 51
2, 249860, Note_off_c, 0, 50, 52
2, 249893, Note_off_c, 0, 58, 56
2, 250110, Control_c, 0, 64, 20
2, 250310, Note_on_c, 0, 76, 56
2, 250375, Control_c, 0, 64, 96
2, 250498, Note_on_c, 0, 77, 60
2, 250540, Note_off_c, 0, 76, 54
2, 250671, Note_on_c, 0, 74, 63
2, 250704, Note_off_c, 0, 77, 55
2, 250862, Note_on_c, 0, 70, 59
2, 250889, Note_off_c, 0, 74, 55
2, 251004, Note_off_c, 0, 70, 54
2, 251040, Note_on_c, 0, 69, 72
2, 251043, Note_on_c, 0, 60, 48
2, 251044, Note_on_c, 0, 53, 56
2, 251045, Control_c, 0, 64, 20
2, 251212, Control_c, 0, 64, 96
2, 251239, Note_on_c, 0, 72, 48
2, 251415, Note_on_c, 0, 78, 52
2, 251456, Note_off_c, 0, 72, 52
2, 251603, Note_on_c, 0, 76, 56
2, 251650, Note_off_c, 0, 78, 53
2, 251736, Note_off_c, 0, 76, 54
2, 251763, Note_off_c, 0, 69, 58
2, 251772, Note_on_c, 0, 77, 60
2, 251776, Control_c, 0, 64, 20
2, 251782, Note_off_c, 0, 60, 52
2, 251934, Control_c, 0, 64, 96
2, 251957, Note_on_c, 0, 60, 32
2, 251958, Note_on_c, 0, 69, 42
2, 252126, Note_off_c, 0, 69, 50
2, 252127, Note_off_c, 0, 60, 48
2, 252129, Note_on_c, 0, 72, 49
2, 252131, Note_on_c, 0, 63, 37
2, 252316, Control_c, 0, 64, 20
2, 252317, Note_off_c, 0, 63, 49
2, 252318, Note_off_c, 0, 72, 52
2, 252319, Note_on_c, 0, 69, 57
2, 252320, Note_on_c, 0, 60, 42
2, 252488, Note_off_c, 0, 69, 54
2, 252490, Note_off_c, 0, 60, 50
2, 252492, Note_on_c, 0, 70, 64
2, 252495, Note_on_c, 0, 62, 47
2, 252508, Control_c, 0, 64, 96
2, 252682, Note_off_c, 0, 70, 56
2, 252684, Note_off_c, 0, 62, 51
2, 252685, Note_on_c, 0, 74, 72
2, 252686, Note_off_c, 0, 53, 54
2, 252687, Note_on_c, 0, 65, 53
2, 252857, Note_off_c, 0, 77, 55
2, 252861, Note_off_c, 0, 74, 58
2, 252862, Note_on_c, 0, 62, 58
2, 252864, Note_off_c, 0, 65, 53
2, 252864, Note_on_c, 0, 70, 79
2, 253055, Note_off_c, 0, 62, 54
2, 253055, Note_off_c, 0, 70, 60
2, 253057, Note_on_c, 0, 65, 36
2, 253058, Note_on_c, 0, 74, 48
2, 253181, Note_off_c, 0, 65, 49
2, 253182, Note_off_c, 0, 74, 52
2, 253238, Control_c, 0, 64, 20
2, 253240, Note_on_c, 0, 53, 34
2, 253241, Note_on_c, 0, 57, 39
2, 253242, Note_on_c, 0, 72, 48
2, 253411, Control_c, 0, 64, 96
2, 253432, Note_on_c, 0, 75, 51
2, 253609, Note_on_c, 0, 79, 54
2, 253638, Note_off_c, 0, 75, 52
2, 253796, Note_on_c, 0, 76, 57
2, 253834, Note_off_c, 0, 79, 53
2, 253885, Note_off_c, 0, 72, 52
2, 253913, Note_off_c, 0, 76, 54
2, 253964, Note_on_c, 0, 77, 60
2, 253980, Control_c, 0, 64, 20
2, 253994, Note_off_c, 0, 57, 49
2, 254141, Control_c, 0, 64, 96
2, 254148, Note_on_c, 0, 57, 32
2, 254149, Note_on_c, 0, 72, 42
2, 254318, Note_on_c, 0, 75, 48
2, 254321, Note_on_c, 0, 60, 36
2, 254326, Note_off_c, 0, 72, 50
2, 254343, Note_off_c, 0, 57, 48
2, 254508, Note_on_c, 0, 72, 54
2, 254510, Note_on_c, 0, 57, 41
2, 254524, Note_off_c, 0, 60, 49
2, 254525, Note_off_c, 0, 75, 52
2, 254533, Control_c, 0, 64, 20
2, 254682, Note_on_c, 0, 58, 45
2, 254683, Note_on_c, 0, 74, 61
2, 254685, Note_off_c, 0, 72, 53
2, 254698, Control_c, 0, 64, 96
2, 254702, Note_off_c, 0, 57, 50
2, 254872, Note_on_c, 0, 62, 50
2, 254873, Note_on_c, 0, 70, 67
2, 254879, Note_off_c, 0, 74, 55
2, 254894, Note_off_c, 0, 58, 51
2, 255047, Note_off_c, 0, 53, 48
2, 255048, Note_off_c, 0, 70, 57
2, 255049, Note_off_c, 0, 77, 55
2, 255050, Note_off_c, 0, 62, 52
2, 255052, Note_on_c, 0, 58, 54
2, 255053, Note_on_c, 0, 74, 73
2, 255228, Note_on_c, 0, 62, 58
2, 255229, Note_on_c, 0, 70, 79
2, 255258, Note_off_c, 0, 58, 53
2, 255260, Note_off_c, 0, 74, 58
2, 255379, Note_off_c, 0, 70, 60
2, 255383, Note_off_c, 0, 62, 54
2, 255423, Note_on_c, 0, 69, 66
2, 255426, Note_on_c, 0, 53, 36
2, 255427, Note_on_c, 0, 60, 36
2, 255433, Control_c, 0, 64, 20
2, 255598, Control_c, 0, 64, 96
2, 255601, Note_on_c, 0, 72, 49
2, 255794, Note_on_c, 0, 78, 52
2, 255799, Note_off_c, 0, 72, 52
2, 255965, Note_on_c, 0, 76, 55
2, 255981, Note_off_c, 0, 78, 53
2, 256072, Note_off_c, 0, 69, 56
2, 256100, Note_off_c, 0, 76, 53
2, 256120, Note_off_c, 0, 60, 49
2, 256151, Note_on_c, 0, 77, 59
2, 256159, Control_c, 0, 64, 20
2, 256315, Control_c, 0, 64, 96
2, 256317, Note_on_c, 0, 60, 44
2, 256318, Note_on_c, 0, 69, 49
2, 256498, Note_off_c, 0, 69, 52
2, 256500, Note_off_c, 0, 60, 51
2, 256504, Note_on_c, 0, 72, 49
2, 256506, Note_on_c, 0, 63, 46
2, 256667, Note_on_c, 0, 69, 50
2, 256672, Note_on_c, 0, 60, 48
2, 256677, Note_off_c, 0, 63, 51
2, 256700, Note_off_c, 0, 72, 52
2, 256848, Note_off_c, 0, 69, 52
2, 256854, Note_on_c, 0, 70, 50
2, 256857, Note_on_c, 0, 62, 51
2, 256858, Note_off_c, 0, 60, 52
2, 256860, Control_c, 0, 64, 20
2, 257016, Control_c, 0, 64, 96
2, 257019, Note_on_c, 0, 74, 51
2, 257022, Note_on_c, 0, 65, 52
2, 257032, Note_off_c, 0, 62, 52
2, 257034, Note_off_c, 0, 70, 52
2, 257199, Note_off_c, 0, 77, 54
2, 257205, Note_on_c, 0, 70, 52
2, 257206, Note_on_c, 0, 62, 55
2, 257212, Note_off_c, 0, 74, 52
2, 257222, Note_off_c, 0, 65, 53
2, 257371, Note_on_c, 0, 65, 56
2, 257372, Note_off_c, 0, 70, 53
2, 257373, Note_on_c, 0, 74, 52
2, 257400, Note_off_c, 0, 62, 53
2, 257509, Note_off_c, 0, 74, 53
2, 257515, Note_off_c, 0, 65, 54
2, 257549, Control_c, 0, 64, 20
2, 257553, Note_on_c, 0, 71, 53
2, 257555, Note_on_c, 0, 62, 59
2, 257690, Note_off_c, 0, 62, 54
2, 257714, Control_c, 0, 64, 96
2, 257721, Note_on_c, 0, 74, 56
2, 257722, Note_on_c, 0, 65, 60
2, 257748, Note_off_c, 0, 71, 53
2, 257902, Note_on_c, 0, 71, 60
2, 257907, Note_on_c, 0, 62, 63
2, 257918, Note_off_c, 0, 65, 55
2, 257933, Note_off_c, 0, 74, 54
2, 258070, Note_on_c, 0, 74, 64
2, 258075, Note_on_c, 0, 65, 65
2, 258076, Note_on_c, 0, 65, 65
2, 258077, Note_off_c, 0, 71, 55
2, 258090, Note_off_c, 0, 62, 55
2, 258251, Note_off_c, 0, 74, 56
2, 258252, Note_on_c, 0, 72, 67
2, 258258, Note_on_c, 0, 63, 67
2, 258258, Control_c, 0, 64, 20
2, 258282, Note_off_c, 0, 65, 56
2, 258287, Note_off_c, 0, 65, 56
2, 258418, Control_c, 0, 64, 96
2, 258424, Note_on_c, 0, 65, 70
2, 258425, Note_on_c, 0, 75, 72
2, 258431, Note_off_c, 0, 72, 57
2, 258440, Note_off_c, 0, 63, 57
2, 258603, Note_off_c, 0, 53, 49
2, 258607, Note_on_c, 0, 72, 76
2, 258609, Note_off_c, 0, 75, 58
2, 258609, Note_on_c, 0, 63, 72
2, 258635, Note_off_c, 0, 65, 57
2, 258773, Note_off_c, 0, 63, 58
2, 258773, Note_on_c, 0, 75, 80
2, 258774, Note_on_c, 0, 65, 74
2, 258775, Note_on_c, 0, 65, 74
2, 258777, Note_off_c, 0, 72, 59
2, 258953, Note_on_c, 0, 69, 83
2, 258954, Note_on_c, 0, 60, 71
2, 258957, Note_on_c, 0, 53, 66
2, 258960, Control_c, 0, 64, 20
2, 258968, Note_off_c, 0, 75, 60
2, 258985, Note_off_c, 0, 65, 59
2, 258989, Note_off_c, 0, 65, 59
2, 259113, Note_off_c, 0, 60, 58
2, 259116, Control_c, 0, 64, 96
2, 259121, Note_on_c, 0, 63, 79
2, 259121, Note_on_c, 0, 77, 87
2, 259218, Note_off_c, 0, 53, 56
2, 259304, Note_off_c, 0, 63, 60
2, 259304, Note_on_c, 0, 60, 82
2, 259305, Note_on_c, 0, 89, 92
2, 259307, Note_on_c, 0, 53, 76
2, 259348, Note_off_c, 0, 77, 61
2, 259435, Note_off_c, 0, 89, 62
2, 259470, Note_off_c, 0, 60, 60
2, 259472, Note_on_c, 0, 63, 84
2, 259473, Note_on_c, 0, 89, 96
2, 259496, Note_off_c, 0, 69, 60
2, 259547, Control_c, 0, 64, 20
2, 259552, Note_off_c, 0, 89, 63
2, 259646, Note_on_c, 0, 89, 100
2, 259651, Note_off_c, 0, 63, 61
2, 259653, Note_off_c, 0, 53, 59
2, 259654, Note_on_c, 0, 77, 93
2, 259657, Note_on_c, 0, 58, 87
2, 259664, Note_on_c, 0, 46, 80
2, 259704, Control_c, 0, 64, 96
2, 259739, Note_off_c, 0, 77, 63
2, 259760, Note_off_c, 0, 89, 66
2, 259811, Note_on_c, 0, 89, 60
2, 259821, Note_on_c, 0, 77, 48
2, 259839, Note_off_c, 0, 46, 60
2, 259891, Note_off_c, 0, 58, 61
2, 259916, Note_off_c, 0, 77, 52
2, 259944, Note_off_c, 0, 89, 55
2, 259985, Note_on_c, 0, 62, 45
2, 259986, Note_on_c, 0, 58, 42
2, 259989, Note_on_c, 0, 65, 48
2, 259998, Control_c, 0, 64, 20
2, 260109, Note_off_c, 0, 62, 51
2, 260126, Note_off_c, 0, 58, 50
2, 260135, Note_off_c, 0, 65, 52
2, 260143, Note_on_c, 0, 87, 72
2, 260153, Note_on_c, 0, 75, 60
2, 260155, Control_c, 0, 64, 96
2, 260264, Note_off_c, 0, 75, 55
2, 260279, Note_off_c, 0, 87, 58
2, 260311, Note_on_c, 0, 86, 72
2, 260319, Note_on_c, 0, 74, 60
2, 260322, Note_on_c, 0, 65, 48
2, 260325, Note_on_c, 0, 58, 42
2, 260326, Note_on_c, 0, 62, 45
2, 260327, Control_c, 0, 64, 20
2, 260416, Note_off_c, 0, 74, 55
2, 260427, Note_off_c, 0, 86, 58
2, 260458, Note_off_c, 0, 58, 50
2, 260469, Note_off_c, 0, 62, 51
2, 260477, Note_on_c, 0, 86, 72
2, 260484, Control_c, 0, 64, 96
2, 260487, Note_on_c, 0, 74, 60
2, 260494, Note_off_c, 0, 65, 52
2, 260598, Note_off_c, 0, 74, 55
2, 260610, Note_off_c, 0, 86, 58
2, 260652, Note_on_c, 0, 58, 40
2, 260656, Note_on_c, 0, 62, 43
2, 260657, Note_on_c, 0, 65, 46
2, 260659, Control_c, 0, 64, 20
2, 260784, Note_off_c, 0, 58, 50
2, 260799, Note_off_c, 0, 62, 50
2, 260801, Note_off_c, 0, 65, 51
2, 260811, Note_on_c, 0, 84, 71
2, 260816, Control_c, 0, 64, 96
2, 260821, Note_on_c, 0, 72, 59
2, 260920, Note_off_c, 0, 72, 54
2, 260944, Note_off_c, 0, 84, 58
2, 260979, Note_on_c, 0, 82, 70
2, 260986, Note_on_c, 0, 62, 42
2, 260988, Note_on_c, 0, 70, 58
2, 260992, Note_on_c, 0, 65, 45
2, 260995, Note_on_c, 0, 58, 39
2, 261003, Control_c, 0, 64, 20
2, 261081, Note_off_c, 0, 82, 57
2, 261092, Note_off_c, 0, 70, 54
2, 261135, Note_off_c, 0, 58, 49
2, 261138, Note_off_c, 0, 62, 50
2, 261145, Note_on_c, 0, 82, 69
2, 261153, Note_on_c, 0, 70, 57
2, 261159, Control_c, 0, 64, 96
2, 261196, Note_off_c, 0, 65, 51
2, 261280, Note_off_c, 0, 70, 54
2, 261311, Note_off_c, 0, 82, 57
2, 261324, Note_on_c, 0, 50, 44
2, 261332, Control_c, 0, 64, 20
2, 261334, Note_on_c, 0, 38, 56
2, 261478, Note_on_c, 0, 81, 68
2, 261487, Note_on_c, 0, 69, 56
2, 261489, Control_c, 0, 64, 96
2, 261575, Note_off_c, 0, 38, 54
2, 261611, Note_off_c, 0, 69, 54
2, 261645, Note_off_c, 0, 81, 57
2, 261650, Note_on_c, 0, 79, 67
2, 261655, Note_off_c, 0, 50, 51
2, 261659, Note_on_c, 0, 67, 55
2, 261661, Note_on_c, 0, 51, 42
2, 261667, Note_on_c, 0, 39, 54
2, 261668, Control_c, 0, 64, 20
2, 261753, Note_off_c, 0, 79, 57
2, 261756, Note_off_c, 0, 67, 53
2, 261812, Note_on_c, 0, 79, 67
2, 261822, Note_on_c, 0, 67, 55
2, 261825, Control_c, 0, 64, 96
2, 261926, Note_off_c, 0, 39, 53
2, 261953, Note_off_c, 0, 67, 53
2, 261978, Note_off_c, 0, 79, 57
2, 261989, Note_off_c, 0, 51, 50
2, 261992, Note_on_c, 0, 47, 41
2, 262000, Note_on_c, 0, 35, 53
2, 262001, Control_c, 0, 64, 20
2, 262147, Note_on_c, 0, 77, 66
2, 262156, Note_on_c, 0, 65, 54
2, 262159, Control_c, 0, 64, 96
2, 262255, Note_off_c, 0, 35, 53
2, 262295, Note_off_c, 0, 65, 53
2, 262312, Note_off_c, 0, 77, 56
2, 262317, Note_on_c, 0, 75, 65
2, 262324, Note_off_c, 0, 47, 50
2, 262326, Note_on_c, 0, 48, 40
2, 262327, Note_on_c, 0, 63, 53
2, 262336, Note_on_c, 0, 36, 52
2, 262343, Control_c, 0, 64, 20
2, 262425, Note_off_c, 0, 63, 53
2, 262445, Note_off_c, 0, 75, 56
2, 262479, Note_on_c, 0, 75, 64
2, 262488, Note_on_c, 0, 63, 52
2, 262499, Control_c, 0, 64, 96
2, 262620, Note_off_c, 0, 36, 53
2, 262632, Note_off_c, 0, 63, 53
2, 262647, Note_off_c, 0, 75, 56
2, 262657, Note_off_c, 0, 48, 50
2, 262660, Note_on_c, 0, 50, 38
2, 262667, Note_on_c, 0, 38, 50
2, 262670, Control_c, 0, 64, 20
2, 262813, Note_on_c, 0, 74, 63
2, 262822, Note_on_c, 0, 62, 51
2, 262826, Control_c, 0, 64, 96
2, 262955, Note_off_c, 0, 38, 52
2, 262956, Note_off_c, 0, 62, 52
2, 262981, Note_off_c, 0, 74, 55
2, 262982, Note_on_c, 0, 72, 62
2, 262989, Note_off_c, 0, 50, 49
2, 262994, Note_on_c, 0, 51, 37
2, 262995, Note_on_c, 0, 60, 50
2, 263001, Note_on_c, 0, 39, 49
2, 263009, Control_c, 0, 64, 20
2, 263093, Note_off_c, 0, 60, 52
2, 263113, Note_off_c, 0, 72, 55
2, 263146, Note_on_c, 0, 72, 62
2, 263156, Note_on_c, 0, 60, 50
2, 263165, Control_c, 0, 64, 96
2, 263272, Note_off_c, 0, 39, 52
2, 263283, Note_off_c, 0, 60, 52
2, 263314, Note_off_c, 0, 72, 55
2, 263323, Note_off_c, 0, 51, 49
2, 263326, Note_on_c, 0, 52, 36
2, 263335, Note_on_c, 0, 40, 48
2, 263338, Control_c, 0, 64, 20
2, 263480, Note_on_c, 0, 70, 60
2, 263488, Note_on_c, 0, 60, 48
2, 263494, Control_c, 0, 64, 96
2, 263616, Note_off_c, 0, 40, 52
2, 263618, Note_off_c, 0, 60, 52
2, 263646, Note_off_c, 0, 70, 55
2, 263655, Note_off_c, 0, 52, 49
2, 263659, Note_on_c, 0, 53, 36
2, 263667, Note_on_c, 0, 41, 48
2, 263669, Control_c, 0, 64, 20
2, 263807, Note_on_c, 0, 69, 60
2, 263822, Note_on_c, 0, 63, 48
2, 263826, Control_c, 0, 64, 96
2, 263827, Note_on_c, 0, 60, 45
2, 263901, Note_off_c, 0, 41, 52
2, 263964, Note_off_c, 0, 69, 55
2, 263971, Note_off_c, 0, 63, 52
2, 263976, Note_off_c, 0, 60, 51
2, 263976, Note_off_c, 0, 53, 49
2, 263989, Note_on_c, 0, 41, 49
2, 263996, Control_c, 0, 64, 20
2, 264141, Note_on_c, 0, 67, 68
2, 264152, Control_c, 0, 64, 96
2, 264157, Note_on_c, 0, 62, 56
2, 264159, Note_on_c, 0, 58, 53
2, 264241, Note_off_c, 0, 41, 52
2, 264265, Note_off_c, 0, 58, 53
2, 264321, Note_off_c, 0, 62, 54
2, 264333, Note_off_c, 0, 67, 57
2, 264340, Note_on_c, 0, 41, 56
2, 264342, Control_c, 0, 64, 20
2, 264491, Note_on_c, 0, 65, 76
2, 264499, Control_c, 0, 64, 96
2, 264508, Note_on_c, 0, 57, 51
2, 264509, Note_on_c, 0, 60, 54
2, 264601, Note_off_c, 0, 41, 54
2, 264624, Note_off_c, 0, 60, 53
2, 264638, Note_off_c, 0, 57, 52
2, 264677, Note_off_c, 0, 65, 59
2, 264690, Note_on_c, 0, 41, 63
2, 264699, Note_on_c, 0, 29, 69
2, 264706, Control_c, 0, 64, 20
2, 264861, Control_c, 0, 64, 96
2, 264873, Note_on_c, 0, 63, 84
2, 264886, Note_off_c, 0, 29, 57
2, 264889, Note_on_c, 0, 58, 61
2, 264893, Note_on_c, 0, 55, 58
2, 264912, Note_off_c, 0, 41, 55
2, 265017, Note_off_c, 0, 55, 54
2, 265028, Note_off_c, 0, 58, 55
2, 265052, Note_off_c, 0, 63, 61
2, 265071, Note_on_c, 0, 41, 70
2, 265082, Note_on_c, 0, 29, 76
2, 265085, Control_c, 0, 64, 20
2, 265240, Note_on_c, 0, 62, 92
2, 265241, Control_c, 0, 64, 96
2, 265256, Note_on_c, 0, 57, 68
2, 265258, Note_on_c, 0, 53, 65
2, 265297, Note_off_c, 0, 41, 57
2, 265309, Note_off_c, 0, 29, 59
2, 265395, Note_off_c, 0, 57, 57
2, 265400, Note_off_c, 0, 53, 56
2, 265444, Note_off_c, 0, 62, 62
2, 265457, Note_on_c, 0, 41, 78
2, 265465, Note_on_c, 0, 29, 84
2, 265472, Control_c, 0, 64, 20
2, 265628, Control_c, 0, 64, 96
2, 265647, Note_on_c, 0, 60, 95
2, 265659, Note_on_c, 0, 53, 78
2, 265660, Note_on_c, 0, 57, 82
2, 265661, Note_on_c, 0, 51, 72
2, 265667, Note_off_c, 0, 41, 59
2, 265671, Note_off_c, 0, 29, 61
2, 265675, Control_c, 0, 64, 20
2, 265831, Control_c, 0, 64, 96
2, 265843, Note_on_c, 0, 41, 78
2, 265850, Note_on_c, 0, 34, 84
2, 265939, Control_c, 0, 64, 20
2, 266095, Control_c, 0, 64, 96
2, 266399, Note_off_c, 0, 53, 59
2, 266400, Note_off_c, 0, 57, 60
2, 266406, Note_off_c, 0, 51, 58
2, 266458, Note_off_c, 0, 60, 63
2, 266519, Note_off_c, 0, 41, 59
2, 266534, Note_on_c, 0, 58, 66
2, 266547, Note_on_c, 0, 53, 54
2, 266548, Note_off_c, 0, 34, 61
2, 266549, Note_on_c, 0, 50, 47
2, 266551, Note_on_c, 0, 46, 42
2, 266554, Control_c, 0, 64, 20
2, 266710, Control_c, 0, 64, 96
2, 266778, Note_off_c, 0, 53, 53
2, 266798, Note_off_c, 0, 58, 56
2, 266800, Note_off_c, 0, 46, 50
2, 266805, Note_off_c, 0, 50, 51
2, 267015, Control_c, 0, 64, 20
2, 267233, Note_on_c, 0, 74, 60
2, 267251, Note_on_c, 0, 67, 48
2, 267253, Note_on_c, 0, 62, 42
2, 267254, Note_on_c, 0, 58, 54
2, 267281, Control_c, 0, 64, 96
2, 267699, Note_off_c, 0, 62, 50
2, 267829, Note_on_c, 0, 75, 54
2, 267852, Note_off_c, 0, 74, 55
2, 267899, Note_off_c, 0, 58, 53
2, 267905, Note_off_c, 0, 67, 52
2, 267985, Note_on_c, 0, 74, 78
2, 267993, Note_on_c, 0, 69, 62
2, 268006, Note_off_c, 0, 75, 53
2, 268007, Note_on_c, 0, 62, 47
2, 268012, Note_on_c, 0, 54, 54
2, 268018, Control_c, 0, 64, 20
2, 268188, Control_c, 0, 64, 96
2, 268833, Note_on_c, 0, 72, 54
2, 268907, Note_off_c, 0, 74, 59
2, 269582, Note_off_c, 0, 54, 53
2, 269637, Note_off_c, 0, 62, 51
2, 269638, Note_off_c, 0, 69, 55
2, 269736, Note_off_c, 0, 72, 53
2, 269869, Note_on_c, 0, 58, 70
2, 269875, Note_on_c, 0, 55, 54
2, 269877, Note_on_c, 0, 43, 48
2, 269885, Note_on_c, 0, 50, 42
2, 269891, Control_c, 0, 64, 20
2, 270061, Control_c, 0, 64, 96
2, 270426, Note_off_c, 0, 50, 50
2, 270495, Note_on_c, 0, 60, 64
2, 270501, Note_off_c, 0, 43, 52
2, 270512, Note_off_c, 0, 58, 57
2, 270521, Note_off_c, 0, 55, 53
2, 270638, Note_on_c, 0, 58, 62
2, 270661, Note_off_c, 0, 60, 56
2, 270664, Note_on_c, 0, 38, 54
2, 270666, Note_on_c, 0, 50, 42
2, 270671, Note_on_c, 0, 54, 50
2, 270680, Control_c, 0, 64, 20
2, 270857, Control_c, 0, 64, 96
2, 271564, Note_on_c, 0, 57, 54
2, 271645, Note_off_c, 0, 58, 55
2, 272231, Note_off_c, 0, 38, 53
2, 272410, Note_off_c, 0, 54, 52
2, 272527, Note_off_c, 0, 57, 53
2, 272531, Note_off_c, 0, 50, 50
2, 272668, Note_on_c, 0, 74, 54
2, 272679, Note_on_c, 0, 62, 37
2, 272681, Note_on_c, 0, 58, 47
2, 272682, Note_on_c, 0, 67, 42
2, 272688, Control_c, 0, 64, 20
2, 272852, Control_c, 0, 64, 96
2, 273228, Note_off_c, 0, 62, 49
2, 273268, Note_on_c, 0, 75, 60
2, 273312, Note_off_c, 0, 74, 53
2, 273370, Note_off_c, 0, 58, 51
2, 273399, Note_off_c, 0, 67, 50
2, 273429, Note_on_c, 0, 74, 62
2, 273434, Note_on_c, 0, 62, 42
2, 273441, Note_on_c, 0, 69, 50
2, 273449, Note_off_c, 0, 75, 55
2, 273460, Note_on_c, 0, 54, 52
2, 273469, Control_c, 0, 64, 20
2, 273639, Control_c, 0, 64, 96
2, 274424, Note_off_c, 0, 74, 55
2, 274425, Note_on_c, 0, 72, 58
2, 275194, Note_off_c, 0, 62, 50
2, 275232, Note_off_c, 0, 54, 53
2, 275267, Note_off_c, 0, 69, 52
2, 275441, Note_off_c, 0, 72, 54
2, 275466, Note_on_c, 0, 70, 78
2, 275469, Note_on_c, 0, 67, 66
2, 275474, Note_on_c, 0, 62, 60
2, 275478, Note_on_c, 0, 55, 53
2, 275480, Control_c, 0, 64, 20
2, 275673, Control_c, 0, 64, 96
2, 276082, Note_off_c, 0, 62, 55
2, 276277, Note_off_c, 0, 67, 56
2, 276308, Note_off_c, 0, 55, 53
2, 276538, Note_off_c, 0, 70, 59
2, 276552, Note_on_c, 0, 71, 90
2, 276558, Note_on_c, 0, 68, 78
2, 276563, Note_on_c, 0, 62, 62
2, 276565, Control_c, 0, 64, 20
2, 276570, Note_on_c, 0, 53, 50
2, 276759, Control_c, 0, 64, 96
2, 277221, Note_off_c, 0, 53, 56
2, 277292, Note_off_c, 0, 62, 55
2, 277352, Note_off_c, 0, 68, 59
2, 277397, Note_on_c, 0, 72, 68
2, 277408, Note_on_c, 0, 67, 54
2, 277410, Note_off_c, 0, 71, 62
2, 277412, Note_on_c, 0, 52, 42
2, 277414, Note_on_c, 0, 64, 48
2, 277425, Control_c, 0, 64, 20
2, 277618, Control_c, 0, 64, 96
2, 277633, Note_off_c, 0, 52, 50
2, 277634, Note_on_c, 0, 48, 45
2, 277635, Note_off_c, 0, 64, 52
2, 277838, Note_on_c, 0, 60, 43
2, 277875, Note_off_c, 0, 48, 51
2, 278054, Note_off_c, 0, 72, 57
2, 278064, Note_off_c, 0, 67, 53
2, 278070, Note_on_c, 0, 58, 41
2, 278101, Note_off_c, 0, 60, 50
2, 278263, Note_on_c, 0, 72, 66
2, 278272, Note_on_c, 0, 57, 39
2, 278279, Control_c, 0, 64, 20
2, 278296, Note_off_c, 0, 58, 50
2, 278396, Control_c, 0, 64, 96
2, 278455, Note_on_c, 0, 55, 37
2, 278504, Note_off_c, 0, 57, 49
2, 278624, Note_on_c, 0, 57, 35
2, 278657, Note_off_c, 0, 55, 49
2, 278800, Note_off_c, 0, 72, 56
2, 278814, Note_on_c, 0, 54, 33
2, 278822, Note_off_c, 0, 57, 48
2, 278840, Note_on_c, 0, 74, 75
2, 278975, Note_on_c, 0, 72, 78
2, 278984, Note_on_c, 0, 55, 33
2, 278990, Control_c, 0, 64, 20
2, 279008, Note_off_c, 0, 74, 59
2, 279027, Note_off_c, 0, 54, 48
2, 279109, Control_c, 0, 64, 96
2, 279169, Note_on_c, 0, 53, 36
2, 279190, Note_off_c, 0, 55, 48
2, 279342, Note_on_c, 0, 51, 39
2, 279386, Note_off_c, 0, 53, 49
2, 279536, Note_on_c, 0, 50, 42
2, 279544, Note_off_c, 0, 51, 49
2, 279699, Note_off_c, 0, 72, 59
2, 279702, Note_on_c, 0, 70, 66
2, 279713, Note_on_c, 0, 52, 45
2, 279735, Control_c, 0, 64, 20
2, 279769, Note_off_c, 0, 50, 50
2, 279859, Control_c, 0, 64, 96
2, 279902, Note_on_c, 0, 48, 33
2, 279974, Note_off_c, 0, 52, 51
2, 280083, Note_on_c, 0, 50, 33
2, 280125, Note_off_c, 0, 48, 48
2, 280280, Note_on_c, 0, 52, 35
2, 280297, Note_off_c, 0, 50, 48
2, 280446, Note_off_c, 0, 70, 56
2, 280452, Note_on_c, 0, 69, 68
2, 280460, Note_on_c, 0, 53, 37
2, 280472, Control_c, 0, 64, 20
2, 280506, Note_off_c, 0, 52, 48
2, 280600, Control_c, 0, 64, 96
2, 280642, Note_on_c, 0, 52, 39
2, 280683, Note_off_c, 0, 53, 49
2, 280812, Note_on_c, 0, 53, 41
2, 280848, Note_off_c, 0, 52, 49
2, 280988, Note_off_c, 0, 69, 57
2, 280997, Note_on_c, 0, 50, 43
2, 281009, Note_off_c, 0, 53, 50
2, 281026, Note_on_c, 0, 70, 75
2, 281163, Note_on_c, 0, 69, 78
2, 281170, Note_on_c, 0, 52, 45
2, 281177, Note_off_c, 0, 50, 50
2, 281186, Control_c, 0, 64, 20
2, 281194, Note_off_c, 0, 70, 59
2, 281315, Control_c, 0, 64, 96
2, 281357, Note_on_c, 0, 50, 45
2, 281401, Note_off_c, 0, 52, 51
2, 281530, Note_on_c, 0, 49, 41
2, 281552, Note_off_c, 0, 50, 51
2, 281724, Note_on_c, 0, 47, 37
2, 281764, Note_off_c, 0, 49, 50
2, 281887, Note_off_c, 0, 69, 59
2, 281889, Note_on_c, 0, 67, 77
2, 281899, Note_on_c, 0, 49, 33
2, 281913, Control_c, 0, 64, 20
2, 281922, Note_off_c, 0, 47, 49
2, 282046, Control_c, 0, 64, 96
2, 282090, Note_on_c, 0, 45, 33
2, 282137, Note_off_c, 0, 49, 48
2, 282270, Note_on_c, 0, 47, 37
2, 282319, Note_off_c, 0, 45, 48
2, 282450, Note_on_c, 0, 49, 41
2, 282471, Note_off_c, 0, 47, 49
2, 282634, Note_off_c, 0, 67, 59
2, 282646, Note_on_c, 0, 65, 64
2, 282648, Note_on_c, 0, 50, 45
2, 282654, Note_off_c, 0, 49, 50
2, 282660, Control_c, 0, 64, 20
2, 282796, Control_c, 0, 64, 96
2, 282823, Note_on_c, 0, 49, 45
2, 282873, Note_off_c, 0, 50, 51
2, 283020, Note_on_c, 0, 50, 41
2, 283035, Note_off_c, 0, 49, 51
2, 283196, Note_on_c, 0, 48, 37
2, 283232, Note_on_c, 0, 66, 60
2, 283256, Note_off_c, 0, 50, 50
2, 283266, Note_off_c, 0, 65, 56
2, 283368, Note_off_c, 0, 66, 55
2, 283384, Note_on_c, 0, 46, 33
2, 283385, Note_on_c, 0, 67, 60
2, 283392, Control_c, 0, 64, 20
2, 283407, Note_off_c, 0, 48, 49
2, 283520, Control_c, 0, 64, 96
2, 283552, Note_on_c, 0, 48, 33
2, 283599, Note_off_c, 0, 46, 48
2, 283740, Note_on_c, 0, 50, 34
2, 283741, Note_on_c, 0, 69, 64
2, 283753, Note_off_c, 0, 48, 48
2, 283756, Note_off_c, 0, 67, 55
2, 283864, Note_off_c, 0, 69, 56
2, 283865, Note_on_c, 0, 67, 66
2, 283917, Note_on_c, 0, 48, 35
2, 283934, Note_off_c, 0, 50, 48
2, 283987, Note_off_c, 0, 67, 56
2, 283989, Note_on_c, 0, 66, 68
2, 284110, Note_off_c, 0, 66, 57
2, 284113, Note_on_c, 0, 67, 69
2, 284115, Note_on_c, 0, 46, 37
2, 284128, Note_off_c, 0, 48, 48
2, 284130, Control_c, 0, 64, 20
2, 284253, Control_c, 0, 64, 96
2, 284288, Note_on_c, 0, 45, 38
2, 284307, Note_off_c, 0, 46, 49
2, 284478, Note_on_c, 0, 43, 39
2, 284550, Note_off_c, 0, 45, 49
2, 284646, Note_off_c, 0, 67, 57
2, 284647, Note_on_c, 0, 69, 76
2, 284649, Note_on_c, 0, 42, 41
2, 284680, Note_off_c, 0, 43, 49
2, 284713, Note_off_c, 0, 69, 59
2, 284715, Note_on_c, 0, 72, 79
2, 284830, Note_off_c, 0, 72, 60
2, 284833, Note_on_c, 0, 43, 42
2, 284834, Note_on_c, 0, 70, 79
2, 284841, Control_c, 0, 64, 20
2, 284900, Note_off_c, 0, 42, 50
2, 284968, Control_c, 0, 64, 96
2, 285000, Note_on_c, 0, 45, 43
2, 285096, Note_off_c, 0, 43, 50
2, 285187, Note_on_c, 0, 46, 45
2, 285203, Note_off_c, 0, 45, 50
2, 285353, Note_off_c, 0, 70, 60
2, 285357, Note_off_c, 0, 46, 51
2, 285358, Note_on_c, 0, 47, 45
2, 285390, Note_on_c, 0, 67, 84
2, 285529, Note_off_c, 0, 67, 61
2, 285544, Note_on_c, 0, 36, 33
2, 285545, Note_on_c, 0, 65, 60
2, 285552, Note_off_c, 0, 47, 51
2, 285554, Control_c, 0, 64, 20
2, 285678, Control_c, 0, 64, 96
2, 285698, Note_off_c, 0, 36, 48
2, 285715, Note_on_c, 0, 48, 33
2, 285905, Note_on_c, 0, 47, 34
2, 285906, Note_off_c, 0, 48, 48
2, 286078, Note_on_c, 0, 48, 35
2, 286113, Note_off_c, 0, 47, 48
2, 286270, Note_off_c, 0, 65, 55
2, 286273, Note_on_c, 0, 64, 61
2, 286275, Note_on_c, 0, 50, 36
2, 286287, Control_c, 0, 64, 20
2, 286306, Note_off_c, 0, 48, 48
2, 286413, Control_c, 0, 64, 96
2, 286446, Note_on_c, 0, 48, 37
2, 286486, Note_off_c, 0, 50, 49
2, 286532, Note_off_c, 0, 64, 55
2, 286642, Note_on_c, 0, 47, 39
2, 286653, Note_off_c, 0, 48, 49
2, 286822, Note_on_c, 0, 46, 40
2, 286834, Note_off_c, 0, 47, 49
2, 287011, Note_on_c, 0, 72, 71
2, 287020, Note_on_c, 0, 60, 58
2, 287022, Note_on_c, 0, 45, 41
2, 287033, Note_off_c, 0, 46, 50
2, 287035, Control_c, 0, 64, 20
2, 287159, Control_c, 0, 64, 96
2, 287196, Note_on_c, 0, 44, 42
2, 287207, Note_off_c, 0, 45, 50
2, 287385, Note_on_c, 0, 45, 43
2, 287394, Note_off_c, 0, 44, 50
2, 287395, Note_off_c, 0, 60, 54
2, 287548, Note_off_c, 0, 72, 58
2, 287561, Note_on_c, 0, 42, 45
2, 287579, Note_off_c, 0, 45, 50
2, 287586, Note_on_c, 0, 74, 75
2, 287594, Note_on_c, 0, 62, 62
2, 287735, Note_on_c, 0, 72, 75
2, 287744, Note_on_c, 0, 60, 62
2, 287747, Note_off_c, 0, 62, 55
2, 287747, Note_on_c, 0, 43, 45
2, 287752, Note_off_c, 0, 42, 51
2, 287767, Note_off_c, 0, 74, 59
2, 287770, Control_c, 0, 64, 20
2, 287893, Control_c, 0, 64, 96
2, 287910, Note_on_c, 0, 41, 45
2, 287927, Note_off_c, 0, 43, 51
2, 288096, Note_on_c, 0, 40, 45
2, 288115, Note_off_c, 0, 41, 51
2, 288269, Note_on_c, 0, 38, 45
2, 288291, Note_off_c, 0, 40, 51
2, 288365, Note_off_c, 0, 60, 55
2, 288449, Note_off_c, 0, 72, 59
2, 288454, Note_on_c, 0, 70, 69
2, 288463, Note_on_c, 0, 40, 45
2, 288463, Note_on_c, 0, 58, 56
2, 288492, Note_off_c, 0, 38, 51
2, 288501, Control_c, 0, 64, 20
2, 288634, Note_off_c, 0, 40, 51
2, 288635, Note_on_c, 0, 36, 45
2, 288696, Control_c, 0, 64, 96
2, 288827, Note_on_c, 0, 38, 45
2, 288835, Note_off_c, 0, 36, 51
2, 288974, Note_off_c, 0, 58, 54
2, 289007, Note_on_c, 0, 40, 45
2, 289014, Note_off_c, 0, 38, 51
2, 289194, Note_off_c, 0, 70, 57
2, 289199, Note_on_c, 0, 69, 63
2, 289207, Note_on_c, 0, 41, 45
2, 289208, Note_on_c, 0, 57, 50
2, 289211, Note_off_c, 0, 40, 51
2, 289244, Control_c, 0, 64, 20
2, 289372, Note_on_c, 0, 40, 45
2, 289377, Note_off_c, 0, 41, 51
2, 289431, Control_c, 0, 64, 96
2, 289554, Note_off_c, 0, 40, 51
2, 289556, Note_on_c, 0, 41, 45
2, 289625, Note_off_c, 0, 57, 52
2, 289716, Note_off_c, 0, 69, 55
2, 289732, Note_on_c, 0, 38, 45
2, 289744, Note_off_c, 0, 41, 51
2, 289758, Note_on_c, 0, 70, 65
2, 289766, Note_on_c, 0, 58, 52
2, 289903, Note_off_c, 0, 58, 53
2, 289909, Note_on_c, 0, 69, 68
2, 289916, Note_off_c, 0, 38, 51
2, 289919, Note_on_c, 0, 40, 45
2, 289920, Note_on_c, 0, 57, 55
2, 289928, Control_c, 0, 64, 20
2, 289943, Note_off_c, 0, 70, 56
2, 290087, Note_on_c, 0, 38, 45
2, 290088, Control_c, 0, 64, 96
2, 290090, Note_off_c, 0, 40, 51
2, 290276, Note_on_c, 0, 37, 45
2, 290294, Note_off_c, 0, 38, 51
2, 290453, Note_on_c, 0, 35, 45
2, 290455, Note_off_c, 0, 37, 51
2, 290527, Note_off_c, 0, 57, 53
2, 290636, Note_off_c, 0, 69, 57
2, 290640, Note_on_c, 0, 67, 78
2, 290650, Note_on_c, 0, 37, 45
2, 290651, Note_on_c, 0, 55, 65
2, 290652, Control_c, 0, 64, 20
2, 290667, Note_off_c, 0, 35, 51
2, 290818, Control_c, 0, 64, 96
2, 290825, Note_on_c, 0, 33, 46
2, 290835, Note_off_c, 0, 37, 51
2, 291003, Note_on_c, 0, 35, 48
2, 291021, Note_off_c, 0, 33, 51
2, 291097, Note_off_c, 0, 55, 56
2, 291189, Note_off_c, 0, 67, 59
2, 291203, Note_on_c, 0, 37, 49
2, 291236, Note_off_c, 0, 35, 52
2, 291378, Note_on_c, 0, 65, 85
2, 291380, Note_off_c, 0, 37, 52
2, 291383, Note_on_c, 0, 38, 51
2, 291389, Note_on_c, 0, 53, 73
2, 291394, Control_c, 0, 64, 20
2, 291561, Control_c, 0, 64, 96
2, 291577, Note_on_c, 0, 37, 52
2, 291611, Note_off_c, 0, 38, 52
2, 291754, Note_on_c, 0, 38, 54
2, 291762, Note_off_c, 0, 37, 53
2, 291896, Note_off_c, 0, 53, 58
2, 291946, Note_off_c, 0, 65, 61
2, 291951, Note_on_c, 0, 34, 43
2, 291978, Note_off_c, 0, 38, 53
2, 291990, Note_on_c, 0, 67, 93
2, 291997, Note_on_c, 0, 55, 81
2, 292098, Note_off_c, 0, 55, 60
2, 292104, Note_off_c, 0, 67, 63
2, 292126, Note_on_c, 0, 69, 82
2, 292131, Note_on_c, 0, 36, 51
2, 292136, Note_on_c, 0, 57, 54
2, 292141, Note_on_c, 0, 65, 70
2, 292154, Note_on_c, 0, 60, 64
2, 292156, Control_c, 0, 64, 20
2, 292158, Note_off_c, 0, 34, 50
2, 292317, Note_on_c, 0, 41, 51
2, 292321, Control_c, 0, 64, 96
2, 292460, Note_off_c, 0, 36, 52
2, 292485, Note_on_c, 0, 45, 50
2, 292531, Note_off_c, 0, 41, 52
2, 292668, Note_off_c, 0, 45, 52
2, 292672, Note_on_c, 0, 48, 49
2, 292839, Note_off_c, 0, 48, 52
2, 292839, Note_on_c, 0, 36, 48
2, 292864, Control_c, 0, 64, 20
2, 293025, Control_c, 0, 64, 96
2, 293027, Note_on_c, 0, 41, 47
2, 293174, Note_off_c, 0, 36, 52
2, 293199, Note_on_c, 0, 45, 46
2, 293246, Note_off_c, 0, 41, 51
2, 293301, Note_off_c, 0, 65, 57
2, 293333, Note_off_c, 0, 57, 53
2, 293386, Note_off_c, 0, 45, 51
2, 293389, Note_on_c, 0, 48, 45
2, 293524, Note_off_c, 0, 60, 56
2, 293557, Note_on_c, 0, 70, 78
2, 293562, Note_off_c, 0, 69, 60
2, 293564, Note_off_c, 0, 48, 51
2, 293567, Note_on_c, 0, 58, 53
2, 293568, Note_on_c, 0, 36, 44
2, 293577, Note_on_c, 0, 64, 62
2, 293585, Control_c, 0, 64, 20
2, 293749, Control_c, 0, 64, 96
2, 293756, Note_on_c, 0, 43, 43
2, 293905, Note_off_c, 0, 36, 51
2, 293931, Note_on_c, 0, 46, 42
2, 293992, Note_off_c, 0, 43, 50
2, 294126, Note_off_c, 0, 46, 50
2, 294129, Note_on_c, 0, 48, 41
2, 294164, Note_on_c, 0, 67, 66
2, 294192, Note_off_c, 0, 70, 59
2, 294273, Note_off_c, 0, 64, 55
2, 294297, Note_off_c, 0, 58, 53
2, 294298, Note_on_c, 0, 65, 60
2, 294307, Note_off_c, 0, 48, 50
2, 294309, Note_on_c, 0, 41, 27
2, 294310, Note_on_c, 0, 57, 46
2, 294316, Control_c, 0, 64, 20
2, 294343, Note_off_c, 0, 67, 56
2, 294484, Control_c, 0, 64, 96
2, 294487, Note_off_c, 0, 57, 51
2, 294500, Note_off_c, 0, 41, 46
2, 294502, Note_on_c, 0, 60, 48
2, 294685, Note_on_c, 0, 57, 49
2, 294704, Note_off_c, 0, 60, 52
2, 294871, Note_off_c, 0, 65, 55
2, 294882, Note_off_c, 0, 57, 52
2, 294882, Note_on_c, 0, 53, 50
2, 295064, Note_off_c, 0, 53, 52
2, 295072, Note_on_c, 0, 48, 42
2, 295082, Control_c, 0, 64, 20
2, 295252, Control_c, 0, 64, 96
2, 295262, Note_on_c, 0, 53, 43
2, 295439, Note_on_c, 0, 57, 45
2, 295490, Note_off_c, 0, 48, 50
2, 295503, Note_off_c, 0, 53, 50
2, 295628, Note_off_c, 0, 57, 51
2, 295630, Note_on_c, 0, 60, 46
2, 295783, Note_off_c, 0, 60, 51
2, 295789, Note_on_c, 0, 72, 84
2, 295806, Note_on_c, 0, 48, 47
2, 295811, Control_c, 0, 64, 20
2, 295967, Control_c, 0, 64, 96
2, 295983, Note_on_c, 0, 53, 48
2, 296153, Note_on_c, 0, 57, 49
2, 296217, Note_off_c, 0, 53, 52
2, 296281, Note_off_c, 0, 48, 51
2, 296341, Note_off_c, 0, 57, 52
2, 296343, Note_on_c, 0, 60, 51
2, 296369, Note_on_c, 0, 69, 76
2, 296373, Note_off_c, 0, 72, 61
2, 296495, Note_off_c, 0, 60, 52
2, 296503, Note_on_c, 0, 70, 72
2, 296520, Note_on_c, 0, 48, 39
2, 296523, Control_c, 0, 64, 20
2, 296567, Note_off_c, 0, 69, 59
2, 296686, Control_c, 0, 64, 96
2, 296701, Note_on_c, 0, 60, 39
2, 296878, Note_on_c, 0, 58, 40
2, 296931, Note_off_c, 0, 60, 49
2, 296999, Note_off_c, 0, 48, 49
2, 297070, Note_off_c, 0, 58, 50
2, 297072, Note_on_c, 0, 55, 41
2, 297233, Note_off_c, 0, 55, 50
2, 297250, Note_on_c, 0, 67, 60
2, 297259, Note_on_c, 0, 48, 42
2, 297265, Control_c, 0, 64, 20
2, 297269, Note_off_c, 0, 70, 58
2, 297432, Control_c, 0, 64, 96
2, 297446, Note_on_c, 0, 55, 43
2, 297535, Note_off_c, 0, 67, 55
2, 297630, Note_on_c, 0, 58, 45
2, 297651, Note_off_c, 0, 48, 50
2, 297716, Note_off_c, 0, 55, 50
2, 297828, Note_off_c, 0, 58, 51
2, 297831, Note_on_c, 0, 60, 46
2, 297996, Note_off_c, 0, 60, 51
2, 298012, Note_on_c, 0, 79, 84
2, 298022, Note_on_c, 0, 48, 47
2, 298031, Control_c, 0, 64, 20
2, 298187, Control_c, 0, 64, 96
2, 298197, Note_on_c, 0, 55, 48
2, 298367, Note_on_c, 0, 58, 49
2, 298464, Note_off_c, 0, 48, 51
2, 298470, Note_off_c, 0, 55, 52
2, 298557, Note_off_c, 0, 58, 52
2, 298558, Note_on_c, 0, 60, 51
2, 298594, Note_on_c, 0, 76, 80
2, 298636, Note_off_c, 0, 79, 61
2, 298727, Note_off_c, 0, 60, 52
2, 298730, Note_on_c, 0, 77, 75
2, 298739, Note_on_c, 0, 48, 39
2, 298746, Control_c, 0, 64, 20
2, 298850, Note_off_c, 0, 76, 60
2, 298911, Control_c, 0, 64, 96
2, 298919, Note_on_c, 0, 60, 39
2, 299096, Note_on_c, 0, 57, 40
2, 299146, Note_off_c, 0, 60, 49
2, 299209, Note_off_c, 0, 48, 49
2, 299291, Note_off_c, 0, 57, 50
2, 299293, Note_on_c, 0, 53, 41
2, 299454, Note_off_c, 0, 53, 50
2, 299472, Note_on_c, 0, 72, 54
2, 299480, Note_on_c, 0, 48, 42
2, 299487, Control_c, 0, 64, 20
2, 299540, Note_off_c, 0, 77, 59
2, 299653, Note_on_c, 0, 53, 43
2, 299657, Control_c, 0, 64, 96
2, 299761, Note_off_c, 0, 72, 53
2, 299855, Note_on_c, 0, 57, 45
2, 299879, Note_off_c, 0, 48, 50
2, 299938, Note_off_c, 0, 53, 50
2, 300038, Note_off_c, 0, 57, 51
2, 300039, Note_on_c, 0, 60, 46
2, 300221, Note_off_c, 0, 60, 51
2, 300241, Note_on_c, 0, 72, 58
2, 300247, Control_c, 0, 64, 20
2, 300250, Note_on_c, 0, 48, 47
2, 300405, Control_c, 0, 64, 96
2, 300409, Note_off_c, 0, 72, 54
2, 300411, Note_on_c, 0, 69, 60
2, 300411, Note_on_c, 0, 53, 48
2, 300600, Note_off_c, 0, 69, 55
2, 300601, Note_on_c, 0, 72, 62
2, 300603, Note_on_c, 0, 57, 49
2, 300658, Note_off_c, 0, 53, 52
2, 300747, Note_off_c, 0, 48, 51
2, 300777, Note_off_c, 0, 57, 52
2, 300778, Note_off_c, 0, 72, 55
2, 300780, Note_on_c, 0, 60, 51
2, 300781, Note_on_c, 0, 69, 64
2, 300956, Note_off_c, 0, 69, 56
2, 300960, Note_off_c, 0, 60, 52
2, 300977, Note_on_c, 0, 70, 66
2, 300986, Note_on_c, 0, 48, 51
2, 300993, Control_c, 0, 64, 20
2, 301161, Note_on_c, 0, 60, 50
2, 301164, Control_c, 0, 64, 96
2, 301364, Note_on_c, 0, 58, 48
2, 301410, Note_off_c, 0, 60, 52
2, 301544, Note_off_c, 0, 48, 52
2, 301546, Note_off_c, 0, 58, 52
2, 301547, Note_on_c, 0, 55, 47
2, 301729, Note_off_c, 0, 70, 56
2, 301731, Note_off_c, 0, 55, 51
2, 301749, Note_on_c, 0, 67, 54
2, 301756, Note_on_c, 0, 48, 45
2, 301767, Control_c, 0, 64, 20
2, 301917, Note_on_c, 0, 55, 44
2, 301925, Control_c, 0, 64, 96
2, 302020, Note_off_c, 0, 67, 53
2, 302109, Note_on_c, 0, 58, 42
2, 302193, Note_off_c, 0, 55, 51
2, 302286, Note_off_c, 0, 58, 50
2, 302287, Note_on_c, 0, 60, 41
2, 302429, Note_off_c, 0, 48, 51
2, 302431, Note_off_c, 0, 60, 50
2, 302487, Note_on_c, 0, 58, 33
2, 302488, Note_on_c, 0, 79, 54
2, 302493, Control_c, 0, 64, 20
2, 302662, Control_c, 0, 64, 96
2, 302667, Note_on_c, 0, 76, 57
2, 302669, Note_on_c, 0, 60, 39
2, 302702, Note_off_c, 0, 79, 53
2, 302864, Note_on_c, 0, 79, 60
2, 302865, Note_on_c, 0, 64, 43
2, 302896, Note_off_c, 0, 76, 54
2, 302951, Note_off_c, 0, 60, 49
2, 303035, Note_off_c, 0, 64, 50
2, 303039, Note_on_c, 0, 67, 43
2, 303039, Note_on_c, 0, 76, 63
2, 303069, Note_off_c, 0, 79, 55
2, 303172, Note_off_c, 0, 67, 50
2, 303223, Note_off_c, 0, 58, 48
2, 303224, Note_on_c, 0, 77, 66
2, 303225, Control_c, 0, 64, 20
2, 303235, Note_on_c, 0, 57, 47
2, 303255, Note_off_c, 0, 76, 55
2, 303382, Control_c, 0, 64, 96
2, 303391, Note_on_c, 0, 69, 51
2, 303580, Note_on_c, 0, 65, 50
2, 303680, Note_off_c, 0, 69, 52
2, 303754, Note_off_c, 0, 65, 52
2, 303755, Note_on_c, 0, 60, 49
2, 303786, Note_off_c, 0, 57, 51
2, 303929, Note_off_c, 0, 77, 56
2, 303933, Note_off_c, 0, 60, 52
2, 303949, Note_on_c, 0, 57, 44
2, 303950, Note_on_c, 0, 72, 65
2, 303959, Control_c, 0, 64, 20
2, 304128, Control_c, 0, 64, 96
2, 304129, Note_on_c, 0, 65, 49
2, 304220, Note_off_c, 0, 72, 56
2, 304330, Note_off_c, 0, 65, 52
2, 304331, Note_off_c, 0, 57, 51
2, 304332, Note_on_c, 0, 79, 62
2, 304334, Note_on_c, 0, 58, 27
2, 304335, Note_on_c, 0, 60, 35
2, 304339, Control_c, 0, 64, 20
2, 304496, Control_c, 0, 64, 96
2, 304499, Note_off_c, 0, 60, 48
2, 304501, Note_on_c, 0, 67, 39
2, 304501, Note_on_c, 0, 76, 61
2, 304555, Note_off_c, 0, 79, 55
2, 304685, Note_off_c, 0, 67, 49
2, 304686, Note_off_c, 0, 58, 46
2, 304688, Note_on_c, 0, 60, 27
2, 304689, Note_on_c, 0, 77, 60
2, 304690, Note_on_c, 0, 57, 31
2, 304695, Control_c, 0, 64, 20
2, 304742, Note_off_c, 0, 76, 55
2, 304856, Control_c, 0, 64, 96
2, 304857, Note_off_c, 0, 60, 46
2, 304858, Note_on_c, 0, 65, 43
2, 305045, Note_off_c, 0, 65, 50
2, 305047, Note_off_c, 0, 57, 47
2, 305049, Note_on_c, 0, 60, 29
2, 305050, Note_on_c, 0, 79, 57
2, 305051, Note_on_c, 0, 58, 46
2, 305057, Control_c, 0, 64, 20
2, 305101, Note_off_c, 0, 77, 55
2, 305220, Control_c, 0, 64, 96
2, 305221, Note_off_c, 0, 60, 47
2, 305222, Note_on_c, 0, 67, 29
2, 305223, Note_on_c, 0, 76, 56
2, 305278, Note_off_c, 0, 79, 54
2, 305413, Note_off_c, 0, 67, 47
2, 305414, Note_off_c, 0, 58, 51
2, 305416, Note_on_c, 0, 57, 32
2, 305417, Note_on_c, 0, 77, 54
2, 305425, Control_c, 0, 64, 20
2, 305472, Note_off_c, 0, 76, 54
2, 305591, Note_on_c, 0, 69, 39
2, 305592, Control_c, 0, 64, 96
2, 305786, Note_off_c, 0, 69, 49
2, 305788, Note_on_c, 0, 65, 39
2, 305969, Note_off_c, 0, 65, 49
2, 305970, Note_on_c, 0, 60, 40
2, 306133, Note_off_c, 0, 77, 53
2, 306135, Note_off_c, 0, 60, 50
2, 306136, Note_off_c, 0, 57, 48
2, 306168, Note_on_c, 0, 72, 55
2, 306170, Note_on_c, 0, 57, 33
2, 306175, Control_c, 0, 64, 20
2, 306347, Control_c, 0, 64, 96
2, 306355, Note_on_c, 0, 65, 41
2, 306446, Note_off_c, 0, 72, 53
2, 306553, Note_off_c, 0, 65, 50
2, 306556, Note_off_c, 0, 57, 48
2, 306557, Note_on_c, 0, 79, 57
2, 306560, Note_on_c, 0, 60, 27
2, 306561, Note_on_c, 0, 58, 41
2, 306563, Control_c, 0, 64, 20
2, 306720, Control_c, 0, 64, 96
2, 306725, Note_off_c, 0, 60, 46
2, 306726, Note_on_c, 0, 67, 35
2, 306727, Note_on_c, 0, 76, 58
2, 306748, Note_off_c, 0, 79, 54
2, 306910, Note_off_c, 0, 67, 48
2, 306912, Note_off_c, 0, 58, 50
2, 306913, Note_on_c, 0, 60, 27
2, 306914, Note_on_c, 0, 57, 42
2, 306914, Note_on_c, 0, 77, 60
2, 306915, Control_c, 0, 64, 20
2, 306931, Note_off_c, 0, 76, 54
2, 307074, Control_c, 0, 64, 96
2, 307080, Note_off_c, 0, 60, 46
2, 307080, Note_on_c, 0, 65, 43
2, 307264, Note_off_c, 0, 65, 50
2, 307266, Note_off_c, 0, 57, 50
2, 307268, Control_c, 0, 64, 20
2, 307269, Note_on_c, 0, 60, 37
2, 307270, Note_on_c, 0, 58, 43
2, 307271, Note_on_c, 0, 79, 62
2, 307285, Note_off_c, 0, 77, 55
2, 307426, Control_c, 0, 64, 96
2, 307434, Note_off_c, 0, 60, 49
2, 307436, Note_on_c, 0, 67, 44
2, 307437, Note_on_c, 0, 76, 63
2, 307459, Note_off_c, 0, 79, 55
2, 307625, Note_off_c, 0, 67, 51
2, 307626, Note_off_c, 0, 58, 50
2, 307628, Note_on_c, 0, 60, 32
2, 307629, Note_on_c, 0, 77, 64
2, 307630, Note_on_c, 0, 57, 45
2, 307632, Control_c, 0, 64, 20
2, 307647, Note_off_c, 0, 76, 55
2, 307791, Control_c, 0, 64, 96
2, 307797, Note_off_c, 0, 60, 48
2, 307798, Note_on_c, 0, 65, 39
2, 307985, Note_off_c, 0, 65, 49
2, 307986, Note_off_c, 0, 57, 51
2, 307988, Note_on_c, 0, 60, 37
2, 307989, Note_on_c, 0, 58, 46
2, 307990, Note_on_c, 0, 79, 67
2, 307997, Control_c, 0, 64, 20
2, 308007, Note_off_c, 0, 77, 56
2, 308157, Note_off_c, 0, 60, 49
2, 308160, Control_c, 0, 64, 96
2, 308161, Note_on_c, 0, 67, 46
2, 308162, Note_on_c, 0, 76, 68
2, 308183, Note_off_c, 0, 79, 57
2, 308351, Note_off_c, 0, 67, 51
2, 308352, Note_off_c, 0, 58, 51
2, 308354, Note_on_c, 0, 60, 37
2, 308355, Note_on_c, 0, 57, 47
2, 308356, Note_on_c, 0, 77, 69
2, 308357, Control_c, 0, 64, 20
2, 308373, Note_off_c, 0, 76, 57
2, 308522, Control_c, 0, 64, 96
2, 308526, Note_off_c, 0, 60, 49
2, 308527, Note_on_c, 0, 65, 47
2, 308703, Note_off_c, 0, 65, 51
2, 308704, Note_off_c, 0, 57, 51
2, 308705, Note_on_c, 0, 60, 44
2, 308706, Note_on_c, 0, 58, 48
2, 308707, Note_on_c, 0, 79, 72
2, 308709, Control_c, 0, 64, 20
2, 308725, Note_off_c, 0, 77, 57
2, 308873, Control_c, 0, 64, 96
2, 308896, Note_off_c, 0, 60, 51
2, 308898, Note_on_c, 0, 67, 48
2, 308899, Note_on_c, 0, 76, 73
2, 308921, Note_off_c, 0, 79, 58
2, 309076, Note_off_c, 0, 67, 52
2, 309077, Note_off_c, 0, 58, 52
2, 309077, Note_on_c, 0, 60, 42
2, 309078, Note_on_c, 0, 57, 49
2, 309079, Note_on_c, 0, 77, 74
2, 309084, Control_c, 0, 64, 20
2, 309099, Note_off_c, 0, 76, 58
2, 309253, Control_c, 0, 64, 96
2, 309271, Note_off_c, 0, 60, 50
2, 309272, Note_on_c, 0, 65, 49
2, 309452, Note_off_c, 0, 57, 52
2, 309452, Note_off_c, 0, 65, 52
2, 309454, Note_on_c, 0, 60, 46
2, 309455, Note_on_c, 0, 58, 50
2, 309456, Note_on_c, 0, 79, 76
2, 309463, Control_c, 0, 64, 20
2, 309474, Note_off_c, 0, 77, 59
2, 309630, Control_c, 0, 64, 96
2, 309648, Note_off_c, 0, 60, 51
2, 309649, Note_on_c, 0, 67, 51
2, 309650, Note_on_c, 0, 76, 78
2, 309673, Note_off_c, 0, 79, 59
2, 309832, Note_off_c, 0, 67, 52
2, 309833, Note_off_c, 0, 58, 52
2, 309835, Note_on_c, 0, 60, 47
2, 309836, Note_on_c, 0, 65, 62
2, 309837, Note_on_c, 0, 77, 78
2, 309838, Note_on_c, 0, 57, 54
2, 309843, Control_c, 0, 64, 20
2, 309853, Note_off_c, 0, 76, 59
2, 310014, Control_c, 0, 64, 96
2, 310215, Note_on_c, 0, 79, 77
2, 310237, Note_off_c, 0, 77, 59
2, 310413, Note_on_c, 0, 76, 72
2, 310440, Note_off_c, 0, 79, 59
2, 310596, Note_off_c, 0, 60, 51
2, 310597, Note_off_c, 0, 65, 55
2, 310598, Note_off_c, 0, 57, 53
2, 310598, Note_on_c, 0, 77, 76
2, 310612, Control_c, 0, 64, 20
2, 310619, Note_off_c, 0, 76, 58
2, 310783, Control_c, 0, 64, 96
2, 310975, Note_on_c, 0, 79, 75
2, 310997, Note_off_c, 0, 77, 59
2, 311170, Note_on_c, 0, 76, 75
2, 311196, Note_off_c, 0, 79, 59
2, 311350, Note_on_c, 0, 77, 74
2, 311371, Note_off_c, 0, 76, 59
2, 311376, Control_c, 0, 64, 20
2, 311540, Control_c, 0, 64, 96
2, 311719, Note_on_c, 0, 79, 73
2, 311739, Note_off_c, 0, 77, 59
2, 311911, Note_on_c, 0, 76, 69
2, 311934, Note_off_c, 0, 79, 58
2, 312049, Note_off_c, 0, 76, 57
2, 312081, Note_on_c, 0, 77, 72
2, 312119, Control_c, 0, 64, 20
2, 312280, Control_c, 0, 64, 96
2, 312441, Note_off_c, 0, 77, 58
2, 312798, Note_on_c, 0, 77, 70
2, 313151, Note_off_c, 0, 77, 57
2, 313502, Note_on_c, 0, 77, 68
2, 313852, Note_off_c, 0, 77, 57
2, 314202, Note_on_c, 0, 77, 54
2, 314206, Note_on_c, 0, 37, 27
2, 314207, Note_on_c, 0, 73, 40
2, 314215, Control_c, 0, 64, 20
2, 314372, Control_c, 0, 64, 96
2, 314389, Note_on_c, 0, 44, 28
2, 314557, Note_off_c, 0, 44, 47
2, 314559, Note_on_c, 0, 49, 30
2, 314746, Note_off_c, 0, 49, 47
2, 314747, Note_on_c, 0, 44, 32
2, 314916, Note_off_c, 0, 44, 48
2, 314918, Note_on_c, 0, 49, 35
2, 315106, Note_off_c, 0, 49, 48
2, 315107, Note_on_c, 0, 44, 32
2, 315280, Note_off_c, 0, 44, 48
2, 315281, Note_on_c, 0, 49, 29
2, 315474, Note_off_c, 0, 49, 47
2, 315475, Note_on_c, 0, 44, 27
2, 315650, Note_off_c, 0, 73, 50
2, 315651, Note_off_c, 0, 77, 53
2, 315652, Note_off_c, 0, 44, 46
2, 315653, Note_on_c, 0, 75, 54
2, 315654, Note_on_c, 0, 48, 28
2, 315655, Note_on_c, 0, 68, 42
2, 315663, Control_c, 0, 64, 20
2, 315832, Control_c, 0, 64, 96
2, 315849, Note_off_c, 0, 48, 47
2, 315849, Note_on_c, 0, 44, 29
2, 315989, Note_off_c, 0, 37, 46
2, 316025, Note_off_c, 0, 44, 47
2, 316026, Note_on_c, 0, 48, 31
2, 316227, Note_off_c, 0, 48, 47
2, 316228, Note_on_c, 0, 44, 33
2, 316408, Note_off_c, 0, 68, 50
2, 316409, Note_off_c, 0, 75, 53
2, 316410, Note_off_c, 0, 44, 48
2, 316413, Note_on_c, 0, 65, 40
2, 316414, Note_on_c, 0, 73, 54
2, 316415, Note_on_c, 0, 37, 30
2, 316420, Control_c, 0, 64, 20
2, 316578, Control_c, 0, 64, 96
2, 316595, Note_on_c, 0, 44, 29
2, 316762, Note_off_c, 0, 44, 47
2, 316763, Note_on_c, 0, 49, 31
2, 316951, Note_off_c, 0, 49, 47
2, 316952, Note_on_c, 0, 44, 34
2, 317122, Note_off_c, 0, 44, 48
2, 317123, Note_on_c, 0, 49, 36
2, 317294, Note_off_c, 0, 49, 49
2, 317295, Note_on_c, 0, 44, 34
2, 317485, Note_off_c, 0, 44, 48
2, 317486, Note_on_c, 0, 49, 29
2, 317662, Note_off_c, 0, 49, 47
2, 317668, Note_on_c, 0, 44, 36
2, 317703, Note_on_c, 0, 68, 40
2, 317703, Note_on_c, 0, 75, 54
2, 317714, Note_off_c, 0, 65, 50
2, 317715, Note_off_c, 0, 73, 53
2, 317859, Note_off_c, 0, 44, 49
2, 317860, Note_on_c, 0, 73, 54
2, 317861, Note_off_c, 0, 68, 50
2, 317862, Note_on_c, 0, 49, 30
2, 317863, Note_on_c, 0, 65, 42
2, 317865, Control_c, 0, 64, 20
2, 317868, Note_off_c, 0, 75, 53
2, 318034, Control_c, 0, 64, 96
2, 318035, Note_off_c, 0, 49, 47
2, 318036, Note_on_c, 0, 44, 36
2, 318067, Note_off_c, 0, 37, 47
2, 318233, Note_off_c, 0, 44, 49
2, 318233, Note_on_c, 0, 49, 37
2, 318415, Note_off_c, 0, 73, 53
2, 318416, Note_off_c, 0, 49, 49
2, 318418, Note_off_c, 0, 65, 50
2, 318420, Note_on_c, 0, 68, 42
2, 318420, Note_on_c, 0, 75, 54
2, 318421, Note_on_c, 0, 44, 29
2, 318563, Note_off_c, 0, 68, 50
2, 318563, Note_off_c, 0, 75, 53
2, 318598, Note_off_c, 0, 44, 47
2, 318615, Note_on_c, 0, 73, 51
2, 318616, Note_on_c, 0, 77, 64
2, 318618, Note_on_c, 0, 37, 39
2, 318621, Control_c, 0, 64, 20
2, 318779, Control_c, 0, 64, 96
2, 318784, Note_on_c, 0, 44, 34
2, 318824, Note_off_c, 0, 73, 52
2, 318845, Note_off_c, 0, 77, 56
2, 318970, Note_off_c, 0, 44, 48
2, 318971, Note_on_c, 0, 49, 37
2, 319141, Note_off_c, 0, 49, 49
2, 319144, Note_on_c, 0, 44, 39
2, 319330, Note_off_c, 0, 44, 49
2, 319331, Note_on_c, 0, 77, 60
2, 319332, Note_on_c, 0, 49, 39
2, 319333, Note_on_c, 0, 73, 46
2, 319337, Control_c, 0, 64, 20
2, 319498, Control_c, 0, 64, 96
2, 319501, Note_off_c, 0, 49, 49
2, 319503, Note_on_c, 0, 44, 37
2, 319524, Note_off_c, 0, 73, 51
2, 319554, Note_off_c, 0, 77, 55
2, 319694, Note_off_c, 0, 44, 49
2, 319695, Note_on_c, 0, 49, 39
2, 319855, Note_off_c, 0, 37, 49
2, 319871, Note_off_c, 0, 49, 49
2, 319874, Note_on_c, 0, 44, 36
2, 320050, Note_off_c, 0, 44, 49
2, 320068, Note_on_c, 0, 68, 42
2, 320069, Note_on_c, 0, 75, 56
2, 320070, Note_on_c, 0, 37, 27
2, 320071, Note_on_c, 0, 48, 39
2, 320079, Control_c, 0, 64, 20
2, 320246, Note_off_c, 0, 48, 49
2, 320247, Control_c, 0, 64, 96
2, 320248, Note_on_c, 0, 44, 39
2, 320266, Note_off_c, 0, 75, 54
2, 320316, Note_off_c, 0, 68, 50
2, 320446, Note_off_c, 0, 44, 49
2, 320447, Note_on_c, 0, 48, 39
2, 320629, Note_off_c, 0, 37, 46
2, 320630, Note_off_c, 0, 48, 49
2, 320633, Note_on_c, 0, 44, 39
2, 320831, Note_off_c, 0, 44, 49
2, 320833, Note_on_c, 0, 73, 54
2, 320836, Note_on_c, 0, 37, 27
2, 320838, Control_c, 0, 64, 20
2, 320843, Note_on_c, 0, 65, 44
2, 321011, Control_c, 0, 64, 96
2, 321013, Note_on_c, 0, 44, 42
2, 321217, Note_off_c, 0, 44, 50
2, 321218, Note_on_c, 0, 49, 40
2, 321400, Note_off_c, 0, 49, 50
2, 321402, Note_on_c, 0, 44, 39
2, 321603, Note_off_c, 0, 44, 49
2, 321604, Note_on_c, 0, 49, 38
2, 321786, Note_off_c, 0, 49, 49
2, 321787, Note_on_c, 0, 44, 37
2, 321988, Note_off_c, 0, 44, 49
2, 321989, Note_on_c, 0, 49, 35
2, 322172, Note_off_c, 0, 49, 48
2, 322174, Note_on_c, 0, 44, 34
2, 322181, Control_c, 0, 64, 20
2, 322186, Note_off_c, 0, 65, 51
2, 322353, Control_c, 0, 64, 96
2, 322375, Note_off_c, 0, 73, 53
2, 322377, Note_off_c, 0, 44, 48
2, 322378, Note_on_c, 0, 61, 66
2, 322380, Note_on_c, 0, 41, 33
2, 322558, Note_off_c, 0, 41, 48
2, 322559, Note_on_c, 0, 44, 32
2, 322760, Note_off_c, 0, 44, 48
2, 322762, Note_on_c, 0, 41, 31
2, 322945, Note_off_c, 0, 41, 47
2, 322946, Note_on_c, 0, 60, 54
2, 322948, Note_on_c, 0, 44, 30
2, 322997, Note_off_c, 0, 61, 56
2, 323036, Note_off_c, 0, 37, 46
2, 323092, Note_off_c, 0, 60, 53
2, 323146, Note_off_c, 0, 44, 47
2, 323219, Note_on_c, 0, 60, 54
2, 323258, Note_on_c, 0, 37, 42
2, 323259, Note_on_c, 0, 53, 44
2, 323265, Control_c, 0, 64, 20
2, 323295, Note_on_c, 0, 59, 54
2, 323344, Note_off_c, 0, 60, 53
2, 323438, Control_c, 0, 64, 96
2, 323440, Note_off_c, 0, 37, 50
2, 323440, Note_on_c, 0, 44, 43
2, 323461, Note_off_c, 0, 53, 51
2, 323503, Note_off_c, 0, 59, 53
2, 323640, Note_off_c, 0, 44, 50
2, 323641, Note_on_c, 0, 41, 44
2, 323825, Note_off_c, 0, 41, 51
2, 323829, Note_on_c, 0, 44, 38
2, 324027, Note_off_c, 0, 44, 49
2, 324028, Note_on_c, 0, 59, 55
2, 324030, Note_on_c, 0, 37, 43
2, 324031, Note_on_c, 0, 53, 45
2, 324032, Control_c, 0, 64, 20
2, 324203, Control_c, 0, 64, 96
2, 324211, Note_off_c, 0, 37, 50
2, 324213, Note_on_c, 0, 44, 47
2, 324228, Note_off_c, 0, 53, 51
2, 324243, Note_off_c, 0, 59, 53
2, 324412, Note_off_c, 0, 44, 51
2, 324414, Note_on_c, 0, 41, 52
2, 324599, Note_off_c, 0, 41, 53
2, 324601, Note_on_c, 0, 44, 57
2, 324799, Note_off_c, 0, 44, 54
2, 324800, Note_on_c, 0, 59, 75
2, 324801, Note_on_c, 0, 37, 55
2, 324802, Note_on_c, 0, 53, 62
2, 324809, Control_c, 0, 64, 20
2, 324981, Control_c, 0, 64, 96
2, 324983, Note_off_c, 0, 37, 53
2, 324984, Note_on_c, 0, 44, 60
2, 325032, Note_off_c, 0, 59, 59
2, 325075, Note_off_c, 0, 53, 55
2, 325184, Note_off_c, 0, 44, 55
2, 325185, Note_on_c, 0, 41, 66
2, 325369, Note_off_c, 0, 41, 56
2, 325372, Note_on_c, 0, 44, 71
2, 325570, Note_off_c, 0, 44, 58
2, 325571, Note_on_c, 0, 60, 60
2, 325573, Note_on_c, 0, 36, 36
2, 325574, Note_on_c, 0, 52, 46
2, 325580, Control_c, 0, 64, 20
2, 325752, Control_c, 0, 64, 96
2, 325754, Note_off_c, 0, 36, 49
2, 325757, Note_on_c, 0, 48, 51
2, 325956, Note_off_c, 0, 48, 52
2, 325957, Note_on_c, 0, 47, 50
2, 326140, Note_off_c, 0, 47, 52
2, 326141, Note_on_c, 0, 48, 49
2, 326325, Note_off_c, 0, 52, 51
2, 326325, Note_off_c, 0, 60, 55
2, 326326, Note_off_c, 0, 48, 52
2, 326328, Note_on_c, 0, 50, 48
2, 326331, Control_c, 0, 64, 20
2, 326504, Control_c, 0, 64, 96
2, 326526, Note_off_c, 0, 50, 52
2, 326527, Note_on_c, 0, 48, 47
2, 326710, Note_off_c, 0, 48, 51
2, 326711, Note_on_c, 0, 47, 45
2, 326910, Note_off_c, 0, 47, 51
2, 326913, Note_on_c, 0, 46, 44
2, 327097, Note_off_c, 0, 46, 51
2, 327100, Note_on_c, 0, 45, 43
2, 327101, Note_on_c, 0, 72, 78
2, 327106, Control_c, 0, 64, 20
2, 327265, Control_c, 0, 64, 96
2, 327280, Note_off_c, 0, 45, 50
2, 327282, Note_on_c, 0, 44, 42
2, 327450, Note_off_c, 0, 44, 50
2, 327452, Note_on_c, 0, 45, 41
2, 327453, Note_on_c, 0, 62, 54
2, 327637, Note_off_c, 0, 45, 50
2, 327639, Note_on_c, 0, 42, 39
2, 327675, Note_on_c, 0, 74, 54
2, 327683, Note_off_c, 0, 72, 59
2, 327806, Note_off_c, 0, 42, 49
2, 327809, Note_on_c, 0, 43, 39
2, 327810, Note_on_c, 0, 72, 66
2, 327813, Control_c, 0, 64, 20
2, 327847, Note_off_c, 0, 74, 53
2, 327973, Control_c, 0, 64, 96
2, 327993, Note_off_c, 0, 43, 49
2, 327996, Note_on_c, 0, 41, 39
2, 328169, Note_off_c, 0, 41, 49
2, 328171, Note_off_c, 0, 62, 53
2, 328171, Note_on_c, 0, 40, 39
2, 328172, Note_on_c, 0, 67, 54
2, 328360, Note_off_c, 0, 40, 49
2, 328362, Note_on_c, 0, 38, 39
2, 328535, Note_off_c, 0, 38, 49
2, 328537, Note_off_c, 0, 72, 56
2, 328540, Note_on_c, 0, 40, 39
2, 328541, Note_on_c, 0, 70, 66
2, 328549, Control_c, 0, 64, 20
2, 328713, Control_c, 0, 64, 96
2, 328727, Note_off_c, 0, 40, 49
2, 328729, Note_on_c, 0, 36, 39
2, 328908, Note_off_c, 0, 36, 49
2, 328909, Note_off_c, 0, 67, 53
2, 328911, Note_on_c, 0, 38, 39
2, 328912, Note_on_c, 0, 60, 54
2, 329104, Note_off_c, 0, 38, 49
2, 329106, Note_on_c, 0, 40, 39
2, 329284, Note_off_c, 0, 70, 56
2, 329284, Note_off_c, 0, 40, 49
2, 329285, Control_c, 0, 64, 20
2, 329286, Note_on_c, 0, 41, 39
2, 329287, Note_on_c, 0, 69, 54
2, 329444, Control_c, 0, 64, 96
2, 329468, Note_off_c, 0, 41, 49
2, 329470, Note_on_c, 0, 40, 39
2, 329639, Note_off_c, 0, 60, 53
2, 329639, Note_off_c, 0, 40, 49
2, 329640, Note_on_c, 0, 41, 39
2, 329641, Note_on_c, 0, 58, 56
2, 329825, Note_off_c, 0, 41, 49
2, 329826, Note_off_c, 0, 69, 53
2, 329827, Note_on_c, 0, 38, 39
2, 329862, Note_on_c, 0, 70, 57
2, 329996, Note_off_c, 0, 38, 49
2, 329998, Note_on_c, 0, 40, 39
2, 329999, Note_on_c, 0, 69, 58
2, 330007, Control_c, 0, 64, 20
2, 330033, Note_off_c, 0, 70, 54
2, 330168, Control_c, 0, 64, 96
2, 330183, Note_off_c, 0, 40, 49
2, 330187, Note_on_c, 0, 38, 39
2, 330361, Note_off_c, 0, 38, 49
2, 330362, Note_off_c, 0, 58, 54
2, 330363, Note_on_c, 0, 37, 39
2, 330364, Note_on_c, 0, 64, 60
2, 330551, Note_off_c, 0, 37, 49
2, 330554, Note_on_c, 0, 35, 39
2, 330732, Note_off_c, 0, 35, 49
2, 330734, Note_off_c, 0, 69, 54
2, 330734, Note_on_c, 0, 37, 39
2, 330735, Note_on_c, 0, 67, 62
2, 330736, Control_c, 0, 64, 20
2, 330901, Control_c, 0, 64, 96
2, 330925, Note_off_c, 0, 37, 49
2, 330928, Note_on_c, 0, 33, 39
2, 331107, Note_off_c, 0, 33, 49
2, 331111, Note_off_c, 0, 64, 55
2, 331112, Note_on_c, 0, 35, 39
2, 331112, Note_on_c, 0, 57, 64
2, 331305, Note_off_c, 0, 35, 49
2, 331308, Note_on_c, 0, 37, 39
2, 331489, Note_off_c, 0, 37, 49
2, 331491, Note_off_c, 0, 67, 55
2, 331491, Note_on_c, 0, 38, 39
2, 331492, Note_on_c, 0, 65, 66
2, 331497, Control_c, 0, 64, 20
2, 331667, Control_c, 0, 64, 96
2, 331686, Note_off_c, 0, 38, 49
2, 331689, Note_on_c, 0, 37, 39
2, 331871, Note_off_c, 0, 37, 49
2, 331872, Note_off_c, 0, 57, 56
2, 331873, Note_on_c, 0, 38, 33
2, 331874, Note_on_c, 0, 62, 54
2, 332065, Note_off_c, 0, 38, 48
2, 332069, Note_off_c, 0, 65, 56
2, 332070, Note_on_c, 0, 36, 28
2, 332071, Note_on_c, 0, 66, 54
2, 332209, Note_off_c, 0, 66, 53
2, 332247, Note_off_c, 0, 36, 47
2, 332248, Note_on_c, 0, 34, 27
2, 332249, Note_on_c, 0, 67, 54
2, 332250, Control_c, 0, 64, 20
2, 332414, Control_c, 0, 64, 96
2, 332439, Note_off_c, 0, 34, 46
2, 332441, Note_on_c, 0, 36, 40
2, 332616, Note_off_c, 0, 36, 50
2, 332617, Note_off_c, 0, 67, 53
2, 332617, Note_on_c, 0, 38, 33
2, 332618, Note_on_c, 0, 69, 58
2, 332737, Note_on_c, 0, 67, 59
2, 332739, Note_off_c, 0, 69, 54
2, 332804, Note_off_c, 0, 38, 48
2, 332806, Note_on_c, 0, 36, 42
2, 332857, Note_off_c, 0, 67, 54
2, 332858, Note_on_c, 0, 66, 61
2, 332978, Note_off_c, 0, 66, 55
2, 332979, Note_off_c, 0, 36, 50
2, 332980, Note_on_c, 0, 34, 43
2, 332981, Note_on_c, 0, 67, 62
2, 332982, Control_c, 0, 64, 20
2, 333059, Note_off_c, 0, 62, 53
2, 333141, Control_c, 0, 64, 96
2, 333165, Note_off_c, 0, 34, 50
2, 333167, Note_on_c, 0, 33, 44
2, 333319, Note_off_c, 0, 33, 51
2, 333335, Note_on_c, 0, 31, 45
2, 333336, Note_on_c, 0, 62, 67
2, 333519, Note_off_c, 0, 31, 51
2, 333521, Note_off_c, 0, 67, 55
2, 333522, Note_on_c, 0, 30, 46
2, 333522, Note_on_c, 0, 69, 69
2, 333689, Note_off_c, 0, 30, 51
2, 333689, Note_off_c, 0, 69, 57
2, 333690, Note_on_c, 0, 31, 47
2, 333691, Note_on_c, 0, 70, 71
2, 333693, Control_c, 0, 64, 20
2, 333853, Control_c, 0, 64, 96
2, 333867, Note_off_c, 0, 62, 57
2, 333874, Note_off_c, 0, 31, 51
2, 333875, Note_on_c, 0, 33, 48
2, 334031, Note_off_c, 0, 33, 52
2, 334049, Note_on_c, 0, 34, 49
2, 334049, Note_on_c, 0, 62, 75
2, 334239, Note_off_c, 0, 34, 52
2, 334240, Note_off_c, 0, 70, 58
2, 334241, Note_on_c, 0, 35, 51
2, 334242, Note_on_c, 0, 67, 78
2, 334416, Note_off_c, 0, 35, 52
2, 334417, Note_off_c, 0, 67, 59
2, 334418, Note_off_c, 0, 62, 59
2, 334419, Note_on_c, 0, 36, 21
2, 334420, Note_on_c, 0, 60, 40
2, 334421, Note_on_c, 0, 57, 50
2, 334422, Note_on_c, 0, 65, 54
2, 334423, Control_c, 0, 64, 20
2, 334590, Control_c, 0, 64, 96
2, 334610, Note_off_c, 0, 36, 45
2, 334611, Note_on_c, 0, 48, 38
2, 334790, Note_off_c, 0, 48, 46
2, 334791, Note_on_c, 0, 47, 41
2, 334971, Note_off_c, 0, 47, 46
2, 334971, Note_on_c, 0, 48, 45
2, 335171, Note_off_c, 0, 65, 53
2, 335172, Note_off_c, 0, 48, 46
2, 335172, Note_off_c, 0, 57, 52
2, 335175, Note_on_c, 0, 55, 50
2, 335176, Note_on_c, 0, 64, 57
2, 335177, Note_on_c, 0, 50, 49
2, 335184, Control_c, 0, 64, 20
2, 335353, Note_off_c, 0, 50, 46
2, 335355, Note_on_c, 0, 48, 48
2, 335357, Control_c, 0, 64, 96
2, 335556, Note_off_c, 0, 64, 54
2, 335558, Note_off_c, 0, 55, 52
2, 335559, Note_off_c, 0, 60, 50
2, 335560, Note_on_c, 0, 47, 44
2, 335736, Note_off_c, 0, 47, 46
2, 335737, Note_on_c, 0, 46, 42
2, 335930, Note_off_c, 0, 46, 46
2, 335933, Note_on_c, 0, 72, 59
2, 335934, Note_on_c, 0, 84, 69
2, 335935, Note_on_c, 0, 45, 38
2, 335935, Control_c, 0, 64, 20
2, 336097, Control_c, 0, 64, 96
2, 336108, Note_off_c, 0, 45, 46
2, 336109, Note_off_c, 0, 72, 54
2, 336110, Note_off_c, 0, 84, 57
2, 336110, Note_on_c, 0, 71, 62
2, 336111, Note_on_c, 0, 83, 72
2, 336111, Note_on_c, 0, 44, 36
2, 336294, Note_off_c, 0, 71, 55
2, 336295, Note_off_c, 0, 83, 58
2, 336296, Note_off_c, 0, 44, 46
2, 336299, Note_on_c, 0, 72, 65
2, 336300, Note_on_c, 0, 84, 75
2, 336300, Note_on_c, 0, 45, 48
2, 336466, Note_off_c, 0, 72, 56
2, 336467, Note_off_c, 0, 45, 46
2, 336467, Note_off_c, 0, 84, 59
2, 336469, Note_on_c, 0, 74, 68
2, 336470, Note_on_c, 0, 86, 78
2, 336471, Note_on_c, 0, 42, 46
2, 336472, Control_c, 0, 64, 20
2, 336627, Control_c, 0, 64, 96
2, 336652, Note_off_c, 0, 74, 57
2, 336653, Note_off_c, 0, 86, 59
2, 336654, Note_off_c, 0, 42, 46
2, 336656, Note_on_c, 0, 43, 44
2, 336657, Note_on_c, 0, 72, 68
2, 336658, Note_on_c, 0, 84, 78
2, 336819, Note_off_c, 0, 43, 46
2, 336822, Note_on_c, 0, 70, 64
2, 336823, Note_on_c, 0, 82, 74
2, 336824, Note_on_c, 0, 41, 42
2, 336861, Note_off_c, 0, 72, 57
2, 336862, Note_off_c, 0, 84, 59
2, 336950, Note_off_c, 0, 70, 56
2, 336952, Note_off_c, 0, 82, 59
2, 336978, Control_c, 0, 64, 20
2, 336999, Note_off_c, 0, 41, 46
2, 337002, Note_on_c, 0, 70, 60
2, 337003, Note_on_c, 0, 82, 70
2, 337004, Note_on_c, 0, 40, 41
2, 337069, Note_off_c, 0, 82, 57
2, 337073, Note_off_c, 0, 70, 55
2, 337165, Note_off_c, 0, 40, 46
2, 337170, Note_on_c, 0, 70, 56
2, 337171, Note_on_c, 0, 82, 66
2, 337172, Note_on_c, 0, 38, 39
2, 337247, Note_off_c, 0, 70, 54
2, 337253, Note_off_c, 0, 82, 56
2, 337349, Note_off_c, 0, 38, 46
2, 337353, Note_on_c, 0, 70, 52
2, 337353, Note_on_c, 0, 82, 62
2, 337354, Note_on_c, 0, 40, 37
2, 337466, Note_off_c, 0, 70, 53
2, 337466, Note_off_c, 0, 82, 55
2, 337501, Note_off_c, 0, 40, 46
2, 337520, Note_on_c, 0, 70, 48
2, 337521, Note_on_c, 0, 82, 58
2, 337522, Note_on_c, 0, 36, 36
2, 337648, Note_off_c, 0, 82, 54
2, 337650, Note_off_c, 0, 70, 52
2, 337685, Note_off_c, 0, 36, 46
2, 337702, Note_on_c, 0, 70, 44
2, 337703, Note_on_c, 0, 82, 54
2, 337704, Note_on_c, 0, 38, 40
2, 337814, Note_off_c, 0, 70, 51
2, 337817, Note_off_c, 0, 82, 53
2, 337854, Note_off_c, 0, 38, 46
2, 337870, Note_on_c, 0, 70, 44
2, 337871, Note_on_c, 0, 82, 54
2, 337872, Note_on_c, 0, 40, 43
2, 337873, Control_c, 0, 64, 96
2, 338051, Note_off_c, 0, 82, 53
2, 338052, Note_off_c, 0, 70, 51
2, 338052, Note_off_c, 0, 48, 46
2, 338055, Note_off_c, 0, 40, 46
2, 338057, Note_on_c, 0, 69, 46
2, 338058, Note_on_c, 0, 81, 56
2, 338059, Note_on_c, 0, 41, 47
2, 338059, Note_on_c, 0, 45, 47
2, 338220, Note_off_c, 0, 69, 51
2, 338221, Note_off_c, 0, 81, 54
2, 338222, Note_off_c, 0, 41, 46
2, 338223, Note_on_c, 0, 68, 48
2, 338224, Note_on_c, 0, 80, 58
2, 338225, Note_on_c, 0, 40, 48
2, 338230, Control_c, 0, 64, 20
2, 338386, Control_c, 0, 64, 96
2, 338401, Note_off_c, 0, 80, 54
2, 338402, Note_off_c, 0, 40, 46
2, 338403, Note_off_c, 0, 68, 52
2, 338406, Note_on_c, 0, 69, 51
2, 338406, Note_on_c, 0, 81, 61
2, 338407, Note_on_c, 0, 41, 46
2, 338569, Note_off_c, 0, 69, 52
2, 338569, Note_off_c, 0, 81, 55
2, 338572, Note_off_c, 0, 41, 46
2, 338573, Note_on_c, 0, 70, 53
2, 338574, Note_on_c, 0, 82, 63
2, 338575, Note_on_c, 0, 38, 44
2, 338751, Note_off_c, 0, 82, 55
2, 338752, Note_off_c, 0, 38, 46
2, 338754, Note_off_c, 0, 70, 53
2, 338756, Note_on_c, 0, 69, 56
2, 338756, Note_on_c, 0, 81, 66
2, 338757, Note_on_c, 0, 40, 43
2, 338758, Control_c, 0, 64, 20
2, 338914, Control_c, 0, 64, 96
2, 338921, Note_off_c, 0, 40, 46
2, 338922, Note_on_c, 0, 67, 56
2, 338923, Note_on_c, 0, 79, 66
2, 338924, Note_on_c, 0, 38, 41
2, 338964, Note_off_c, 0, 69, 54
2, 338964, Note_off_c, 0, 81, 56
2, 339054, Note_off_c, 0, 67, 54
2, 339055, Note_off_c, 0, 79, 56
2, 339084, Control_c, 0, 64, 20
2, 339099, Note_off_c, 0, 38, 46
2, 339105, Note_on_c, 0, 67, 54
2, 339106, Note_on_c, 0, 79, 64
2, 339107, Note_on_c, 0, 37, 40
2, 339169, Note_off_c, 0, 79, 56
2, 339171, Note_off_c, 0, 67, 53
2, 339268, Note_off_c, 0, 37, 46
2, 339271, Note_on_c, 0, 67, 52
2, 339272, Note_on_c, 0, 79, 62
2, 339273, Note_on_c, 0, 35, 39
2, 339330, Note_off_c, 0, 67, 53
2, 339335, Note_off_c, 0, 79, 55
2, 339451, Note_off_c, 0, 35, 46
2, 339455, Note_on_c, 0, 67, 49
2, 339456, Note_on_c, 0, 79, 59
2, 339457, Note_on_c, 0, 37, 37
2, 339465, Control_c, 0, 64, 96
2, 339587, Note_off_c, 0, 67, 52
2, 339588, Note_off_c, 0, 79, 54
2, 339601, Note_off_c, 0, 37, 46
2, 339621, Note_on_c, 0, 67, 47
2, 339622, Note_on_c, 0, 79, 57
2, 339623, Note_on_c, 0, 33, 36
2, 339752, Note_off_c, 0, 67, 51
2, 339753, Note_off_c, 0, 79, 54
2, 339770, Note_off_c, 0, 33, 46
2, 339804, Note_on_c, 0, 67, 44
2, 339805, Note_on_c, 0, 79, 54
2, 339806, Note_on_c, 0, 35, 39
2, 339807, Control_c, 0, 64, 20
2, 339935, Note_off_c, 0, 67, 51
2, 339936, Note_off_c, 0, 79, 53
2, 339953, Note_off_c, 0, 35, 46
2, 339961, Control_c, 0, 64, 96
2, 339972, Note_on_c, 0, 67, 44
2, 339973, Note_on_c, 0, 79, 54
2, 339974, Note_on_c, 0, 37, 43
2, 340120, Note_off_c, 0, 67, 51
2, 340121, Note_off_c, 0, 79, 53
2, 340122, Note_off_c, 0, 37, 46
2, 340123, Note_off_c, 0, 45, 47
2, 340154, Note_on_c, 0, 67, 51
2, 340155, Note_on_c, 0, 79, 61
2, 340210, Note_on_c, 0, 65, 51
2, 340211, Note_on_c, 0, 77, 61
2, 340212, Note_on_c, 0, 38, 48
2, 340213, Control_c, 0, 64, 20
2, 340271, Note_off_c, 0, 67, 52
2, 340272, Note_off_c, 0, 79, 55
2, 340369, Control_c, 0, 64, 96
2, 340374, Note_off_c, 0, 65, 52
2, 340376, Note_off_c, 0, 38, 46
2, 340377, Note_off_c, 0, 77, 55
2, 340386, Note_on_c, 0, 64, 58
2, 340387, Note_on_c, 0, 76, 68
2, 340388, Note_on_c, 0, 37, 44
2, 340566, Note_off_c, 0, 76, 57
2, 340567, Note_off_c, 0, 37, 49
2, 340568, Note_off_c, 0, 64, 54
2, 340570, Note_on_c, 0, 65, 65
2, 340571, Note_on_c, 0, 77, 75
2, 340572, Note_on_c, 0, 38, 40
2, 340574, Control_c, 0, 64, 20
2, 340730, Control_c, 0, 64, 96
2, 340733, Note_off_c, 0, 65, 56
2, 340734, Note_off_c, 0, 77, 59
2, 340735, Note_off_c, 0, 38, 51
2, 340736, Note_on_c, 0, 67, 72
2, 340737, Note_on_c, 0, 79, 82
2, 340738, Note_on_c, 0, 34, 37
2, 340916, Note_off_c, 0, 79, 60
2, 340917, Note_off_c, 0, 34, 53
2, 340918, Note_off_c, 0, 67, 58
2, 340920, Note_on_c, 0, 36, 63
2, 340921, Note_on_c, 0, 68, 80
2, 340922, Note_on_c, 0, 80, 90
2, 341084, Note_off_c, 0, 68, 60
2, 341085, Note_off_c, 0, 80, 62
2, 341086, Note_on_c, 0, 41, 63
2, 341087, Note_on_c, 0, 69, 80
2, 341088, Note_on_c, 0, 81, 90
2, 341207, Control_c, 0, 64, 20
2, 341216, Note_off_c, 0, 69, 60
2, 341217, Note_off_c, 0, 81, 62
2, 341266, Note_off_c, 0, 41, 55
2, 341269, Note_on_c, 0, 45, 60
2, 341270, Note_on_c, 0, 69, 78
2, 341271, Note_on_c, 0, 81, 88
2, 341351, Note_off_c, 0, 69, 59
2, 341352, Note_off_c, 0, 81, 62
2, 341377, Note_off_c, 0, 36, 55
2, 341433, Note_off_c, 0, 45, 55
2, 341436, Note_on_c, 0, 48, 57
2, 341437, Note_on_c, 0, 69, 76
2, 341438, Note_on_c, 0, 81, 86
2, 341518, Note_off_c, 0, 69, 59
2, 341519, Note_off_c, 0, 81, 61
2, 341583, Note_off_c, 0, 48, 54
2, 341619, Note_on_c, 0, 36, 54
2, 341620, Note_on_c, 0, 68, 74
2, 341621, Note_on_c, 0, 80, 84
2, 341623, Control_c, 0, 64, 96
2, 341786, Note_on_c, 0, 41, 50
2, 341787, Note_on_c, 0, 69, 72
2, 341788, Note_on_c, 0, 81, 82
2, 341819, Note_off_c, 0, 68, 59
2, 341821, Note_off_c, 0, 80, 61
2, 341917, Note_off_c, 0, 69, 58
2, 341918, Note_off_c, 0, 81, 60
2, 341941, Control_c, 0, 64, 20
2, 341966, Note_off_c, 0, 41, 52
2, 341970, Note_on_c, 0, 45, 47
2, 341971, Note_on_c, 0, 69, 70
2, 341972, Note_on_c, 0, 81, 80
2, 342035, Note_off_c, 0, 69, 57
2, 342036, Note_off_c, 0, 81, 60
2, 342079, Note_off_c, 0, 36, 53
2, 342133, Note_off_c, 0, 45, 51
2, 342136, Note_on_c, 0, 48, 44
2, 342137, Note_on_c, 0, 69, 67
2, 342138, Note_on_c, 0, 81, 77
2, 342200, Note_off_c, 0, 81, 59
2, 342202, Note_off_c, 0, 69, 57
2, 342283, Note_off_c, 0, 48, 51
2, 342319, Note_on_c, 0, 36, 56
2, 342320, Note_on_c, 0, 69, 65
2, 342321, Note_on_c, 0, 81, 75
2, 342322, Control_c, 0, 64, 96
2, 342487, Note_off_c, 0, 36, 54
2, 342488, Note_on_c, 0, 48, 52
2, 342489, Note_on_c, 0, 70, 63
2, 342490, Note_on_c, 0, 82, 73
2, 342541, Note_off_c, 0, 69, 56
2, 342543, Note_off_c, 0, 81, 59
2, 342618, Note_off_c, 0, 70, 55
2, 342619, Note_off_c, 0, 82, 58
2, 342637, Control_c, 0, 64, 20
2, 342664, Note_off_c, 0, 48, 53
2, 342669, Note_on_c, 0, 50, 49
2, 342670, Note_on_c, 0, 70, 61
2, 342671, Note_on_c, 0, 82, 71
2, 342733, Note_off_c, 0, 70, 55
2, 342734, Note_off_c, 0, 82, 58
2, 342836, Note_off_c, 0, 50, 52
2, 342836, Note_on_c, 0, 52, 46
2, 342837, Note_on_c, 0, 67, 59
2, 342838, Note_on_c, 0, 79, 69
2, 342900, Note_off_c, 0, 67, 54
2, 342901, Note_off_c, 0, 79, 57
2, 343015, Note_off_c, 0, 52, 51
2, 343021, Note_on_c, 0, 41, 42
2, 343022, Note_on_c, 0, 65, 56
2, 343023, Note_on_c, 0, 77, 66
2, 343026, Control_c, 0, 64, 96
2, 343186, Note_off_c, 0, 41, 50
2, 343351, Note_on_c, 0, 45, 33
2, 343353, Note_on_c, 0, 48, 36
2, 343354, Note_on_c, 0, 53, 42
2, 343358, Control_c, 0, 64, 20
2, 343487, Note_off_c, 0, 53, 50
2, 343492, Note_off_c, 0, 48, 49
2, 343493, Note_off_c, 0, 45, 48
2, 343686, Note_off_c, 0, 65, 54
2, 343687, Note_off_c, 0, 77, 56
2, 343699, Note_on_c, 0, 45, 33
2, 343700, Note_on_c, 0, 53, 42
2, 343706, Note_on_c, 0, 48, 36
2, 343853, Note_off_c, 0, 53, 50
2, 343858, Note_off_c, 0, 48, 49
2, 343858, Note_off_c, 0, 45, 48
2, 344052, Note_on_c, 0, 48, 36
2, 344055, Note_on_c, 0, 45, 33
2, 344056, Note_on_c, 0, 53, 42
2, 344208, Note_off_c, 0, 45, 48
2, 344226, Note_off_c, 0, 53, 50
2, 344234, Note_off_c, 0, 48, 49
2, 344403, Note_on_c, 0, 48, 36
2, 344404, Note_on_c, 0, 53, 42
2, 344405, Note_on_c, 0, 45, 33
2, 344554, Note_off_c, 0, 53, 50
2, 344556, Note_off_c, 0, 45, 48
2, 344570, Note_off_c, 0, 48, 49
2, 344751, Note_on_c, 0, 48, 36
2, 344751, Note_on_c, 0, 53, 42
2, 344752, Note_on_c, 0, 45, 33
2, 344904, Note_off_c, 0, 53, 50
2, 344905, Note_off_c, 0, 45, 48
2, 344905, Note_off_c, 0, 48, 49
2, 345105, Note_on_c, 0, 41, 42
2, 345273, Note_off_c, 0, 41, 50
2, 345453, Note_on_c, 0, 48, 36
2, 345454, Note_on_c, 0, 53, 42
2, 345455, Note_on_c, 0, 77, 66
2, 345456, Note_on_c, 0, 89, 78
2, 345457, Control_c, 0, 64, 96
2, 345460, Note_on_c, 0, 45, 33
2, 345601, Note_off_c, 0, 53, 50
2, 345619, Note_off_c, 0, 48, 49
2, 345628, Note_off_c, 0, 45, 48
2, 345640, Note_on_c, 0, 76, 66
2, 345641, Note_on_c, 0, 88, 78
2, 345690, Note_off_c, 0, 77, 56
2, 345693, Note_off_c, 0, 89, 59
2, 345771, Note_off_c, 0, 76, 56
2, 345772, Note_off_c, 0, 88, 59
2, 345776, Control_c, 0, 64, 20
2, 345806, Note_on_c, 0, 48, 36
2, 345807, Note_on_c, 0, 77, 63
2, 345808, Note_on_c, 0, 89, 75
2, 345808, Note_on_c, 0, 45, 33
2, 345809, Note_on_c, 0, 53, 42
2, 345905, Note_off_c, 0, 77, 55
2, 345906, Note_off_c, 0, 89, 59
2, 345955, Note_off_c, 0, 45, 48
2, 345964, Note_off_c, 0, 53, 50
2, 345966, Note_off_c, 0, 48, 49
2, 345988, Note_on_c, 0, 76, 60
2, 345989, Note_on_c, 0, 88, 72
2, 346069, Note_off_c, 0, 88, 58
2, 346071, Note_off_c, 0, 76, 55
2, 346152, Note_on_c, 0, 53, 42
2, 346153, Note_on_c, 0, 48, 36
2, 346154, Note_on_c, 0, 45, 33
2, 346155, Note_on_c, 0, 74, 57
2, 346156, Note_on_c, 0, 86, 69
2, 346256, Note_off_c, 0, 74, 54
2, 346257, Note_off_c, 0, 86, 57
2, 346277, Note_off_c, 0, 48, 49
2, 346287, Note_off_c, 0, 45, 48
2, 346301, Note_off_c, 0, 53, 50
2, 346338, Note_on_c, 0, 72, 54
2, 346339, Note_on_c, 0, 84, 66
2, 346420, Note_off_c, 0, 84, 56
2, 346421, Note_off_c, 0, 72, 53
2, 346502, Note_on_c, 0, 45, 33
2, 346503, Note_on_c, 0, 53, 42
2, 346504, Note_on_c, 0, 48, 36
2, 346505, Note_on_c, 0, 70, 51
2, 346506, Note_on_c, 0, 82, 63
2, 346606, Note_off_c, 0, 70, 52
2, 346607, Note_off_c, 0, 82, 55
2, 346638, Note_off_c, 0, 53, 50
2, 346657, Note_off_c, 0, 45, 48
2, 346663, Note_off_c, 0, 48, 49
2, 346689, Note_on_c, 0, 69, 48
2, 346690, Note_on_c, 0, 81, 60
2, 346771, Note_off_c, 0, 81, 55
2, 346772, Note_off_c, 0, 69, 52
2, 346855, Note_on_c, 0, 53, 42
2, 346856, Note_on_c, 0, 67, 45
2, 346856, Note_on_c, 0, 79, 57
2, 346857, Note_on_c, 0, 48, 36
2, 346858, Note_on_c, 0, 45, 33
2, 346957, Note_off_c, 0, 67, 51
2, 346957, Note_off_c, 0, 79, 54
2, 346982, Note_off_c, 0, 45, 48
2, 347019, Note_off_c, 0, 48, 49
2, 347023, Note_off_c, 0, 53, 50
2, 347039, Note_on_c, 0, 65, 42
2, 347040, Note_on_c, 0, 77, 54
2, 347121, Note_off_c, 0, 77, 53
2, 347122, Note_off_c, 0, 65, 50
2, 347207, Note_on_c, 0, 41, 36
2, 347208, Note_on_c, 0, 64, 42
2, 347209, Note_on_c, 0, 76, 54
2, 347304, Note_off_c, 0, 64, 50
2, 347306, Note_off_c, 0, 76, 53
2, 347368, Note_off_c, 0, 41, 49
2, 347389, Note_on_c, 0, 65, 50
2, 347390, Note_on_c, 0, 77, 62
2, 347471, Note_off_c, 0, 77, 55
2, 347472, Note_off_c, 0, 65, 52
2, 347558, Note_on_c, 0, 67, 58
2, 347558, Note_on_c, 0, 79, 70
2, 347559, Note_on_c, 0, 52, 36
2, 347560, Note_on_c, 0, 55, 42
2, 347561, Note_on_c, 0, 48, 33
2, 347639, Note_off_c, 0, 67, 54
2, 347640, Note_off_c, 0, 79, 57
2, 347700, Note_off_c, 0, 48, 48
2, 347701, Note_off_c, 0, 52, 49
2, 347737, Note_off_c, 0, 55, 50
2, 347739, Note_on_c, 0, 69, 66
2, 347740, Note_on_c, 0, 81, 78
2, 347821, Note_off_c, 0, 81, 59
2, 347822, Note_off_c, 0, 69, 56
2, 347903, Note_on_c, 0, 55, 42
2, 347905, Note_on_c, 0, 48, 33
2, 347908, Note_on_c, 0, 70, 66
2, 347908, Note_on_c, 0, 82, 78
2, 347909, Note_on_c, 0, 52, 36
2, 347910, Control_c, 0, 64, 96
2, 348084, Note_off_c, 0, 55, 50
2, 348124, Note_off_c, 0, 48, 48
2, 348148, Note_off_c, 0, 52, 49
2, 348228, Control_c, 0, 64, 20
2, 348347, Note_on_c, 0, 52, 36
2, 348348, Note_on_c, 0, 55, 42
2, 348352, Note_on_c, 0, 48, 33
2, 348482, Note_off_c, 0, 52, 49
2, 348501, Note_off_c, 0, 48, 48
2, 348504, Note_off_c, 0, 55, 50
2, 348695, Note_on_c, 0, 52, 36
2, 348698, Note_on_c, 0, 48, 33
2, 348701, Note_on_c, 0, 55, 42
2, 348827, Note_off_c, 0, 55, 50
2, 348830, Note_off_c, 0, 48, 48
2, 348846, Note_off_c, 0, 52, 49
2, 349046, Note_on_c, 0, 55, 42
2, 349047, Note_on_c, 0, 52, 36
2, 349051, Note_on_c, 0, 48, 33
2, 349204, Note_off_c, 0, 52, 49
2, 349206, Note_off_c, 0, 55, 50
2, 349220, Note_off_c, 0, 48, 48
2, 349426, Note_off_c, 0, 70, 56
2, 349426, Note_off_c, 0, 82, 59
2, 349428, Note_on_c, 0, 41, 42
2, 349580, Note_off_c, 0, 41, 50
2, 349774, Note_on_c, 0, 55, 42
2, 349776, Note_on_c, 0, 52, 36
2, 349777, Control_c, 0, 64, 96
2, 349778, Note_on_c, 0, 48, 33
2, 349779, Note_on_c, 0, 70, 62
2, 349780, Note_on_c, 0, 82, 74
2, 349909, Note_off_c, 0, 48, 48
2, 349928, Note_off_c, 0, 55, 50
2, 349960, Note_off_c, 0, 52, 49
2, 349961, Note_on_c, 0, 69, 60
2, 349962, Note_on_c, 0, 81, 72
2, 349998, Note_off_c, 0, 70, 55
2, 350000, Note_off_c, 0, 82, 59
2, 350074, Note_off_c, 0, 69, 55
2, 350076, Note_off_c, 0, 81, 58
2, 350096, Control_c, 0, 64, 20
2, 350124, Note_on_c, 0, 52, 36
2, 350125, Note_on_c, 0, 55, 42
2, 350126, Note_on_c, 0, 70, 58
2, 350127, Note_on_c, 0, 82, 70
2, 350129, Note_on_c, 0, 48, 33
2, 350210, Note_off_c, 0, 70, 54
2, 350211, Note_off_c, 0, 82, 57
2, 350244, Note_off_c, 0, 48, 48
2, 350288, Note_off_c, 0, 55, 50
2, 350299, Note_off_c, 0, 52, 49
2, 350308, Note_on_c, 0, 69, 56
2, 350309, Note_on_c, 0, 81, 68
2, 350390, Note_off_c, 0, 81, 57
2, 350391, Note_off_c, 0, 69, 54
2, 350474, Note_on_c, 0, 48, 33
2, 350476, Note_on_c, 0, 52, 36
2, 350477, Note_on_c, 0, 67, 53
2, 350478, Note_on_c, 0, 79, 65
2, 350479, Note_on_c, 0, 55, 42
2, 350560, Note_off_c, 0, 67, 53
2, 350561, Note_off_c, 0, 79, 56
2, 350595, Note_off_c, 0, 52, 49
2, 350603, Note_off_c, 0, 55, 50
2, 350635, Note_off_c, 0, 48, 48
2, 350658, Note_on_c, 0, 65, 51
2, 350659, Note_on_c, 0, 77, 63
2, 350739, Note_off_c, 0, 77, 55
2, 350741, Note_off_c, 0, 65, 52
2, 350822, Note_on_c, 0, 48, 33
2, 350823, Note_on_c, 0, 52, 36
2, 350826, Note_on_c, 0, 64, 49
2, 350827, Note_on_c, 0, 76, 61
2, 350828, Note_on_c, 0, 55, 42
2, 350911, Note_off_c, 0, 64, 52
2, 350912, Note_off_c, 0, 76, 55
2, 350962, Note_off_c, 0, 55, 50
2, 350975, Note_off_c, 0, 48, 48
2, 350977, Note_off_c, 0, 52, 49
2, 351008, Note_on_c, 0, 62, 47
2, 351009, Note_on_c, 0, 74, 59
2, 351092, Note_off_c, 0, 62, 51
2, 351093, Note_off_c, 0, 74, 54
2, 351175, Note_on_c, 0, 55, 42
2, 351176, Note_on_c, 0, 52, 36
2, 351177, Note_on_c, 0, 60, 45
2, 351178, Note_on_c, 0, 72, 57
2, 351179, Note_on_c, 0, 48, 33
2, 351261, Note_off_c, 0, 60, 51
2, 351262, Note_off_c, 0, 72, 54
2, 351326, Note_off_c, 0, 55, 50
2, 351343, Note_off_c, 0, 48, 48
2, 351355, Note_off_c, 0, 52, 49
2, 351360, Note_on_c, 0, 58, 42
2, 351360, Note_on_c, 0, 70, 54
2, 351441, Note_off_c, 0, 70, 53
2, 351443, Note_off_c, 0, 58, 50
2, 351528, Note_on_c, 0, 57, 42
2, 351529, Note_on_c, 0, 41, 42
2, 351530, Note_on_c, 0, 69, 54
2, 351608, Note_off_c, 0, 57, 50
2, 351611, Note_off_c, 0, 69, 53
2, 351692, Note_on_c, 0, 58, 48
2, 351693, Note_on_c, 0, 70, 60
2, 351714, Note_off_c, 0, 41, 50
2, 351793, Note_off_c, 0, 58, 52
2, 351794, Note_off_c, 0, 70, 55
2, 351878, Note_on_c, 0, 53, 39
2, 351879, Note_on_c, 0, 57, 42
2, 351880, Note_on_c, 0, 60, 54
2, 351880, Note_on_c, 0, 72, 66
2, 351960, Note_off_c, 0, 60, 53
2, 351961, Note_off_c, 0, 72, 56
2, 352041, Note_off_c, 0, 57, 50
2, 352044, Note_on_c, 0, 62, 60
2, 352045, Note_on_c, 0, 74, 72
2, 352064, Note_off_c, 0, 53, 49
2, 352144, Note_off_c, 0, 62, 55
2, 352145, Note_off_c, 0, 74, 58
2, 352202, Control_c, 0, 64, 96
2, 352223, Note_on_c, 0, 53, 33
2, 352225, Note_on_c, 0, 57, 36
2, 352227, Note_on_c, 0, 63, 66
2, 352228, Note_on_c, 0, 75, 78
2, 352230, Note_on_c, 0, 60, 42
2, 352456, Note_off_c, 0, 57, 49
2, 352481, Note_off_c, 0, 53, 48
2, 352483, Note_off_c, 0, 60, 50
2, 352523, Control_c, 0, 64, 20
2, 352660, Note_on_c, 0, 57, 36
2, 352661, Note_on_c, 0, 53, 33
2, 352664, Note_on_c, 0, 60, 42
2, 352824, Note_off_c, 0, 57, 49
2, 352836, Note_off_c, 0, 60, 50
2, 352855, Note_off_c, 0, 53, 48
2, 353011, Note_on_c, 0, 57, 36
2, 353012, Note_on_c, 0, 53, 33
2, 353014, Note_on_c, 0, 60, 42
2, 353165, Note_off_c, 0, 60, 50
2, 353166, Note_off_c, 0, 53, 48
2, 353169, Note_off_c, 0, 57, 49
2, 353358, Note_on_c, 0, 57, 36
2, 353359, Note_on_c, 0, 60, 42
2, 353360, Note_on_c, 0, 53, 33
2, 353512, Note_off_c, 0, 57, 49
2, 353529, Note_off_c, 0, 53, 48
2, 353537, Note_off_c, 0, 60, 50
2, 353745, Note_off_c, 0, 63, 56
2, 353746, Note_off_c, 0, 75, 59
2, 353748, Note_on_c, 0, 41, 42
2, 353920, Note_off_c, 0, 41, 50
2, 354094, Note_on_c, 0, 57, 33
2, 354096, Note_on_c, 0, 63, 42
2, 354097, Note_on_c, 0, 75, 63
2, 354098, Note_on_c, 0, 87, 74
2, 354099, Note_on_c, 0, 60, 36
2, 354100, Note_on_c, 0, 53, 30
2, 354106, Control_c, 0, 64, 96
2, 354265, Note_on_c, 0, 74, 61
2, 354266, Note_off_c, 0, 57, 48
2, 354266, Note_on_c, 0, 86, 72
2, 354272, Note_off_c, 0, 63, 50
2, 354288, Note_off_c, 0, 75, 55
2, 354289, Note_off_c, 0, 87, 59
2, 354293, Note_off_c, 0, 60, 49
2, 354294, Note_off_c, 0, 53, 47
2, 354395, Note_off_c, 0, 74, 55
2, 354396, Note_off_c, 0, 86, 58
2, 354426, Control_c, 0, 64, 20
2, 354443, Note_on_c, 0, 53, 30
2, 354446, Note_on_c, 0, 57, 33
2, 354447, Note_on_c, 0, 75, 59
2, 354448, Note_on_c, 0, 87, 70
2, 354449, Note_on_c, 0, 63, 42
2, 354450, Note_on_c, 0, 60, 36
2, 354530, Note_off_c, 0, 75, 54
2, 354531, Note_off_c, 0, 87, 57
2, 354600, Note_off_c, 0, 63, 50
2, 354611, Note_on_c, 0, 74, 57
2, 354612, Note_on_c, 0, 86, 68
2, 354622, Note_off_c, 0, 53, 47
2, 354635, Note_off_c, 0, 60, 49
2, 354636, Note_off_c, 0, 57, 48
2, 354711, Note_off_c, 0, 74, 54
2, 354712, Note_off_c, 0, 86, 57
2, 354795, Note_on_c, 0, 53, 30
2, 354795, Note_on_c, 0, 63, 42
2, 354796, Note_on_c, 0, 72, 55
2, 354797, Note_on_c, 0, 84, 66
2, 354798, Note_on_c, 0, 57, 33
2, 354799, Note_on_c, 0, 60, 36
2, 354881, Note_off_c, 0, 72, 53
2, 354882, Note_off_c, 0, 84, 56
2, 354933, Note_off_c, 0, 57, 48
2, 354941, Note_off_c, 0, 60, 49
2, 354949, Note_off_c, 0, 53, 47
2, 354961, Note_on_c, 0, 70, 53
2, 354962, Note_on_c, 0, 82, 64
2, 354966, Note_off_c, 0, 63, 50
2, 355061, Note_off_c, 0, 70, 53
2, 355062, Note_off_c, 0, 82, 56
2, 355145, Note_on_c, 0, 60, 36
2, 355145, Note_on_c, 0, 63, 42
2, 355146, Note_on_c, 0, 53, 30
2, 355147, Note_on_c, 0, 69, 51
2, 355148, Note_on_c, 0, 81, 62
2, 355151, Note_on_c, 0, 57, 33
2, 355231, Note_off_c, 0, 69, 52
2, 355232, Note_off_c, 0, 81, 55
2, 355283, Note_off_c, 0, 60, 49
2, 355311, Note_off_c, 0, 53, 47
2, 355312, Note_off_c, 0, 63, 50
2, 355313, Note_on_c, 0, 67, 49
2, 355314, Note_on_c, 0, 79, 60
2, 355319, Note_off_c, 0, 57, 48
2, 355411, Note_off_c, 0, 67, 52
2, 355412, Note_off_c, 0, 79, 55
2, 355494, Note_on_c, 0, 57, 36
2, 355495, Note_on_c, 0, 53, 33
2, 355496, Note_on_c, 0, 65, 47
2, 355497, Note_on_c, 0, 77, 58
2, 355499, Note_on_c, 0, 60, 39
2, 355581, Note_off_c, 0, 65, 51
2, 355582, Note_off_c, 0, 77, 54
2, 355639, Note_off_c, 0, 60, 49
2, 355641, Note_off_c, 0, 53, 48
2, 355643, Note_off_c, 0, 57, 49
2, 355662, Note_on_c, 0, 63, 45
2, 355663, Note_on_c, 0, 75, 56
2, 355761, Note_off_c, 0, 63, 51
2, 355763, Note_off_c, 0, 75, 54
2, 355846, Note_on_c, 0, 54, 33
2, 355847, Note_on_c, 0, 57, 36
2, 355847, Note_on_c, 0, 62, 37
2, 355848, Note_on_c, 0, 74, 54
2, 355849, Note_on_c, 0, 60, 42
2, 356031, Note_off_c, 0, 62, 49
2, 356036, Note_off_c, 0, 74, 53
2, 356104, Note_off_c, 0, 54, 48
2, 356109, Note_off_c, 0, 57, 49
2, 356109, Note_off_c, 0, 60, 50
2, 356179, Control_c, 0, 64, 96
2, 356193, Note_on_c, 0, 74, 54
2, 356196, Note_on_c, 0, 48, 57
2, 356198, Note_on_c, 0, 60, 66
2, 356200, Note_on_c, 0, 69, 36
2, 356202, Note_on_c, 0, 62, 48
2, 356203, Note_on_c, 0, 66, 42
2, 356364, Note_on_c, 0, 59, 66
2, 356368, Note_on_c, 0, 47, 57
2, 356372, Note_off_c, 0, 62, 52
2, 356378, Note_off_c, 0, 74, 53
2, 356401, Note_off_c, 0, 48, 54
2, 356403, Note_off_c, 0, 66, 50
2, 356403, Note_off_c, 0, 60, 56
2, 356412, Note_off_c, 0, 69, 49
2, 356495, Note_off_c, 0, 59, 56
2, 356499, Control_c, 0, 64, 20
2, 356503, Note_off_c, 0, 47, 54
2, 356542, Note_on_c, 0, 62, 48
2, 356544, Note_on_c, 0, 48, 58
2, 356545, Note_on_c, 0, 69, 36
2, 356546, Note_on_c, 0, 66, 42
2, 356547, Note_on_c, 0, 60, 67
2, 356550, Note_on_c, 0, 74, 54
2, 356625, Note_off_c, 0, 48, 54
2, 356629, Note_off_c, 0, 60, 57
2, 356711, Note_on_c, 0, 59, 68
2, 356716, Note_on_c, 0, 47, 59
2, 356722, Note_off_c, 0, 66, 50
2, 356730, Note_off_c, 0, 69, 49
2, 356741, Note_off_c, 0, 74, 53
2, 356749, Note_off_c, 0, 62, 52
2, 356793, Note_off_c, 0, 59, 57
2, 356797, Note_off_c, 0, 47, 54
2, 356892, Note_on_c, 0, 62, 48
2, 356893, Note_on_c, 0, 57, 70
2, 356894, Note_on_c, 0, 74, 54
2, 356896, Note_on_c, 0, 45, 61
2, 356897, Note_on_c, 0, 66, 42
2, 356898, Note_on_c, 0, 69, 36
2, 356974, Note_off_c, 0, 57, 57
2, 356976, Note_off_c, 0, 45, 55
2, 357064, Note_on_c, 0, 43, 62
2, 357068, Note_on_c, 0, 55, 71
2, 357081, Note_off_c, 0, 66, 50
2, 357082, Note_off_c, 0, 74, 53
2, 357099, Note_off_c, 0, 62, 52
2, 357102, Note_off_c, 0, 69, 49
2, 357145, Note_off_c, 0, 43, 55
2, 357151, Note_off_c, 0, 55, 58
2, 357242, Note_on_c, 0, 74, 54
2, 357243, Note_on_c, 0, 62, 48
2, 357251, Note_on_c, 0, 66, 42
2, 357253, Note_on_c, 0, 54, 72
2, 357254, Note_on_c, 0, 42, 63
2, 357255, Note_on_c, 0, 69, 36
2, 357333, Note_off_c, 0, 42, 55
2, 357334, Note_off_c, 0, 54, 58
2, 357410, Note_on_c, 0, 40, 65
2, 357415, Note_off_c, 0, 74, 53
2, 357417, Note_on_c, 0, 52, 74
2, 357461, Note_off_c, 0, 62, 52
2, 357474, Note_off_c, 0, 66, 50
2, 357475, Note_off_c, 0, 69, 49
2, 357491, Note_off_c, 0, 40, 56
2, 357500, Note_off_c, 0, 52, 59
2, 357593, Note_on_c, 0, 74, 54
2, 357595, Note_on_c, 0, 50, 75
2, 357596, Note_on_c, 0, 62, 48
2, 357597, Note_on_c, 0, 66, 42
2, 357598, Note_on_c, 0, 69, 36
2, 357599, Note_on_c, 0, 38, 66
2, 357675, Note_off_c, 0, 50, 59
2, 357679, Note_off_c, 0, 38, 56
2, 357758, Note_on_c, 0, 36, 67
2, 357765, Note_on_c, 0, 48, 76
2, 357800, Note_off_c, 0, 66, 50
2, 357825, Note_off_c, 0, 69, 49
2, 357839, Note_off_c, 0, 62, 52
2, 357840, Note_off_c, 0, 36, 57
2, 357848, Note_off_c, 0, 48, 59
2, 357849, Note_off_c, 0, 74, 53
2, 357938, Control_c, 0, 64, 96
2, 357954, Note_on_c, 0, 35, 69
2, 357956, Note_on_c, 0, 47, 78
2, 358177, Control_c, 0, 64, 20
2, 358296, Note_on_c, 0, 71, 42
2, 358300, Note_off_c, 0, 35, 57
2, 358300, Note_on_c, 0, 67, 48
2, 358303, Note_off_c, 0, 47, 59
2, 358303, Note_on_c, 0, 74, 35
2, 358304, Note_on_c, 0, 53, 60
2, 358305, Note_on_c, 0, 79, 54
2, 358306, Note_on_c, 0, 65, 72
2, 358319, Control_c, 0, 64, 96
2, 358460, Note_on_c, 0, 64, 72
2, 358470, Note_on_c, 0, 52, 60
2, 358482, Note_off_c, 0, 67, 52
2, 358500, Note_off_c, 0, 79, 53
2, 358505, Note_off_c, 0, 74, 48
2, 358521, Note_off_c, 0, 53, 53
2, 358522, Note_off_c, 0, 71, 50
2, 358523, Note_off_c, 0, 65, 56
2, 358591, Note_off_c, 0, 64, 56
2, 358604, Note_off_c, 0, 52, 53
2, 358638, Control_c, 0, 64, 20
2, 358643, Note_on_c, 0, 79, 54
2, 358644, Note_on_c, 0, 74, 35
2, 358645, Note_on_c, 0, 65, 74
2, 358648, Note_on_c, 0, 53, 62
2, 358651, Note_on_c, 0, 71, 42
2, 358655, Note_on_c, 0, 67, 48
2, 358723, Note_off_c, 0, 65, 57
2, 358728, Note_off_c, 0, 53, 54
2, 358810, Note_on_c, 0, 52, 65
2, 358811, Note_on_c, 0, 64, 77
2, 358825, Note_off_c, 0, 79, 53
2, 358827, Note_off_c, 0, 74, 48
2, 358837, Note_off_c, 0, 67, 52
2, 358839, Note_off_c, 0, 71, 50
2, 358891, Note_off_c, 0, 52, 54
2, 358895, Note_off_c, 0, 64, 58
2, 358997, Note_on_c, 0, 79, 54
2, 358998, Note_on_c, 0, 67, 48
2, 358999, Note_on_c, 0, 62, 80
2, 359000, Note_on_c, 0, 50, 68
2, 359005, Note_on_c, 0, 71, 42
2, 359008, Note_on_c, 0, 74, 35
2, 359078, Note_off_c, 0, 62, 59
2, 359080, Note_off_c, 0, 50, 55
2, 359168, Note_on_c, 0, 60, 82
2, 359169, Note_on_c, 0, 48, 70
2, 359184, Note_off_c, 0, 67, 52
2, 359191, Note_off_c, 0, 79, 53
2, 359210, Note_off_c, 0, 74, 48
2, 359232, Note_off_c, 0, 71, 50
2, 359250, Note_off_c, 0, 48, 56
2, 359250, Note_off_c, 0, 60, 59
2, 359347, Note_on_c, 0, 79, 54
2, 359348, Note_on_c, 0, 74, 35
2, 359353, Note_on_c, 0, 59, 85
2, 359354, Note_on_c, 0, 67, 48
2, 359355, Note_on_c, 0, 71, 42
2, 359356, Note_on_c, 0, 47, 73
2, 359433, Note_off_c, 0, 59, 60
2, 359435, Note_off_c, 0, 47, 57
2, 359517, Note_on_c, 0, 45, 76
2, 359518, Note_on_c, 0, 57, 88
2, 359535, Note_off_c, 0, 79, 53
2, 359553, Note_off_c, 0, 67, 52
2, 359563, Note_off_c, 0, 71, 50
2, 359567, Note_off_c, 0, 74, 48
2, 359598, Note_off_c, 0, 45, 57
2, 359600, Note_off_c, 0, 57, 60
2, 359696, Note_on_c, 0, 67, 48
2, 359697, Note_on_c, 0, 71, 42
2, 359698, Note_on_c, 0, 74, 35
2, 359701, Note_on_c, 0, 55, 90
2, 359702, Note_on_c, 0, 43, 78
2, 359703, Note_on_c, 0, 79, 54
2, 359780, Note_off_c, 0, 55, 61
2, 359781, Note_off_c, 0, 43, 58
2, 359870, Note_on_c, 0, 41, 81
2, 359871, Note_on_c, 0, 53, 93
2, 359880, Note_off_c, 0, 71, 50
2, 359893, Note_off_c, 0, 79, 53
2, 359899, Note_off_c, 0, 67, 52
2, 359911, Note_off_c, 0, 74, 48
2, 359950, Note_off_c, 0, 41, 59
2, 359953, Note_off_c, 0, 53, 61
2, 360022, Control_c, 0, 64, 96
2, 360032, Note_on_c, 0, 40, 84
2, 360037, Note_on_c, 0, 52, 96
2, 360270, Control_c, 0, 64, 20
2, 360378, Note_off_c, 0, 40, 59
2, 360380, Note_on_c, 0, 72, 54
2, 360385, Note_off_c, 0, 52, 62
2, 360386, Note_on_c, 0, 64, 42
2, 360387, Note_on_c, 0, 46, 78
2, 360388, Note_on_c, 0, 60, 47
2, 360389, Note_on_c, 0, 67, 34
2, 360390, Note_on_c, 0, 58, 90
2, 360407, Control_c, 0, 64, 96
2, 360560, Note_off_c, 0, 72, 53
2, 360565, Note_on_c, 0, 57, 89
2, 360566, Note_on_c, 0, 45, 77
2, 360593, Note_off_c, 0, 46, 59
2, 360595, Note_off_c, 0, 58, 62
2, 360607, Note_off_c, 0, 67, 48
2, 360608, Note_off_c, 0, 60, 51
2, 360620, Note_off_c, 0, 64, 50
2, 360696, Note_off_c, 0, 57, 62
2, 360699, Note_off_c, 0, 45, 59
2, 360727, Control_c, 0, 64, 20
2, 360730, Note_on_c, 0, 60, 47
2, 360732, Note_on_c, 0, 58, 88
2, 360738, Note_on_c, 0, 64, 42
2, 360739, Note_on_c, 0, 72, 54
2, 360740, Note_on_c, 0, 46, 76
2, 360745, Note_on_c, 0, 67, 34
2, 360827, Note_off_c, 0, 58, 62
2, 360836, Note_off_c, 0, 46, 59
2, 360910, Note_on_c, 0, 45, 74
2, 360915, Note_on_c, 0, 57, 86
2, 360927, Note_off_c, 0, 60, 51
2, 360945, Note_off_c, 0, 72, 53
2, 360957, Note_off_c, 0, 67, 48
2, 360973, Note_off_c, 0, 64, 50
2, 360992, Note_off_c, 0, 45, 59
2, 360999, Note_off_c, 0, 57, 61
2, 361080, Note_on_c, 0, 43, 73
2, 361081, Note_on_c, 0, 55, 85
2, 361083, Note_on_c, 0, 64, 42
2, 361085, Note_on_c, 0, 67, 34
2, 361086, Note_on_c, 0, 72, 54
2, 361087, Note_on_c, 0, 60, 47
2, 361177, Note_off_c, 0, 43, 58
2, 361178, Note_off_c, 0, 55, 61
2, 361261, Note_on_c, 0, 53, 84
2, 361262, Note_on_c, 0, 41, 72
2, 361278, Note_off_c, 0, 64, 50
2, 361284, Note_off_c, 0, 60, 51
2, 361298, Note_off_c, 0, 72, 53
2, 361320, Note_off_c, 0, 67, 48
2, 361344, Note_off_c, 0, 53, 61
2, 361345, Note_off_c, 0, 41, 58
2, 361429, Note_on_c, 0, 60, 47
2, 361433, Note_on_c, 0, 67, 34
2, 361434, Note_on_c, 0, 64, 42
2, 361435, Note_on_c, 0, 40, 70
2, 361438, Note_on_c, 0, 52, 82
2, 361441, Note_on_c, 0, 72, 54
2, 361531, Note_off_c, 0, 40, 57
2, 361533, Note_off_c, 0, 52, 60
2, 361613, Note_on_c, 0, 38, 69
2, 361618, Note_on_c, 0, 50, 81
2, 361637, Note_off_c, 0, 60, 51
2, 361655, Note_off_c, 0, 64, 50
2, 361661, Note_off_c, 0, 67, 48
2, 361683, Note_off_c, 0, 72, 53
2, 361697, Note_off_c, 0, 38, 57
2, 361702, Note_off_c, 0, 50, 60
2, 361782, Note_on_c, 0, 67, 34
2, 361789, Note_on_c, 0, 48, 80
2, 361790, Note_on_c, 0, 72, 54
2, 361791, Note_on_c, 0, 36, 68
2, 361792, Note_on_c, 0, 64, 42
2, 361793, Note_on_c, 0, 60, 47
2, 361886, Note_off_c, 0, 48, 60
2, 361887, Note_off_c, 0, 36, 57
2, 361961, Note_on_c, 0, 34, 66
2, 361966, Note_on_c, 0, 46, 78
2, 362003, Note_off_c, 0, 60, 51
2, 362008, Note_off_c, 0, 64, 50
2, 362019, Note_off_c, 0, 72, 53
2, 362032, Note_off_c, 0, 67, 48
2, 362043, Note_off_c, 0, 34, 56
2, 362049, Note_off_c, 0, 46, 59
2, 362111, Control_c, 0, 64, 96
2, 362134, Note_on_c, 0, 45, 66
2, 362142, Note_on_c, 0, 33, 54
2, 362368, Control_c, 0, 64, 20
2, 362482, Note_off_c, 0, 45, 56
2, 362484, Note_on_c, 0, 72, 38
2, 362485, Control_c, 0, 64, 96
2, 362487, Note_on_c, 0, 65, 48
2, 362489, Note_off_c, 0, 33, 53
2, 362490, Note_on_c, 0, 77, 54
2, 362491, Note_on_c, 0, 51, 62
2, 362492, Note_on_c, 0, 69, 42
2, 362493, Note_on_c, 0, 63, 72
2, 362634, Note_off_c, 0, 65, 52
2, 362651, Note_off_c, 0, 69, 50
2, 362655, Note_off_c, 0, 72, 49
2, 362669, Note_off_c, 0, 77, 53
2, 362672, Note_on_c, 0, 50, 64
2, 362674, Note_on_c, 0, 62, 74
2, 362721, Note_off_c, 0, 51, 54
2, 362724, Note_off_c, 0, 63, 56
2, 362804, Control_c, 0, 64, 20
2, 362805, Note_off_c, 0, 62, 57
2, 362806, Note_off_c, 0, 50, 54
2, 362833, Note_on_c, 0, 63, 71
2, 362835, Note_on_c, 0, 65, 48
2, 362836, Note_on_c, 0, 77, 54
2, 362838, Note_on_c, 0, 69, 42
2, 362839, Note_on_c, 0, 51, 61
2, 362840, Note_on_c, 0, 72, 38
2, 362928, Note_off_c, 0, 63, 58
2, 362934, Note_off_c, 0, 51, 55
2, 362987, Note_off_c, 0, 69, 50
2, 363005, Note_off_c, 0, 77, 53
2, 363008, Note_off_c, 0, 72, 49
2, 363010, Note_off_c, 0, 65, 52
2, 363017, Note_on_c, 0, 50, 64
2, 363019, Note_on_c, 0, 62, 74
2, 363099, Note_off_c, 0, 50, 56
2, 363103, Note_off_c, 0, 62, 59
2, 363187, Note_on_c, 0, 65, 48
2, 363188, Note_on_c, 0, 48, 66
2, 363189, Note_on_c, 0, 60, 76
2, 363190, Note_on_c, 0, 69, 42
2, 363191, Note_on_c, 0, 77, 54
2, 363192, Note_on_c, 0, 72, 38
2, 363282, Note_off_c, 0, 60, 59
2, 363284, Note_off_c, 0, 48, 56
2, 363341, Note_off_c, 0, 77, 53
2, 363349, Note_off_c, 0, 69, 50
2, 363355, Note_off_c, 0, 72, 49
2, 363367, Note_off_c, 0, 65, 52
2, 363370, Note_on_c, 0, 58, 79
2, 363371, Note_on_c, 0, 46, 69
2, 363453, Note_off_c, 0, 58, 60
2, 363454, Note_off_c, 0, 46, 57
2, 363529, Note_on_c, 0, 65, 48
2, 363531, Note_on_c, 0, 45, 72
2, 363532, Note_on_c, 0, 57, 82
2, 363533, Note_on_c, 0, 77, 54
2, 363535, Note_on_c, 0, 72, 38
2, 363537, Note_on_c, 0, 69, 42
2, 363628, Note_off_c, 0, 45, 58
2, 363628, Note_off_c, 0, 57, 60
2, 363682, Note_off_c, 0, 69, 50
2, 363700, Note_off_c, 0, 77, 53
2, 363714, Note_on_c, 0, 43, 74
2, 363717, Note_on_c, 0, 55, 84
2, 363722, Note_off_c, 0, 65, 52
2, 363723, Note_off_c, 0, 72, 49
2, 363797, Note_off_c, 0, 43, 59
2, 363799, Note_off_c, 0, 55, 61
2, 363882, Note_on_c, 0, 53, 87
2, 363883, Note_on_c, 0, 69, 42
2, 363888, Note_on_c, 0, 77, 54
2, 363890, Note_on_c, 0, 41, 77
2, 363891, Note_on_c, 0, 65, 48
2, 363892, Note_on_c, 0, 72, 38
2, 363977, Note_off_c, 0, 53, 61
2, 363987, Note_off_c, 0, 41, 59
2, 364020, Note_off_c, 0, 72, 49
2, 364031, Note_off_c, 0, 69, 50
2, 364044, Note_off_c, 0, 77, 53
2, 364048, Note_off_c, 0, 65, 52
2, 364071, Note_on_c, 0, 39, 80
2, 364072, Note_on_c, 0, 51, 90
2, 364154, Note_off_c, 0, 39, 60
2, 364155, Note_off_c, 0, 51, 62
2, 364212, Control_c, 0, 64, 96
2, 364239, Note_on_c, 0, 65, 51
2, 364239, Note_on_c, 0, 70, 54
2, 364240, Note_on_c, 0, 74, 60
2, 364241, Note_on_c, 0, 77, 66
2, 364242, Note_on_c, 0, 41, 36
2, 364242, Note_on_c, 0, 38, 42
2, 364243, Note_on_c, 0, 50, 48
2, 364320, Note_off_c, 0, 65, 52
2, 364321, Note_off_c, 0, 70, 53
2, 364322, Note_off_c, 0, 74, 55
2, 364323, Note_off_c, 0, 77, 56
2, 364418, Note_on_c, 0, 77, 79
2, 364419, Note_on_c, 0, 89, 90
2, 364502, Note_off_c, 0, 77, 60
2, 364503, Note_off_c, 0, 89, 62
2, 364532, Control_c, 0, 64, 20
2, 364587, Note_on_c, 0, 75, 79
2, 364588, Note_on_c, 0, 87, 90
2, 364671, Note_off_c, 0, 75, 60
2, 364672, Note_off_c, 0, 87, 62
2, 364768, Note_on_c, 0, 74, 75
2, 364769, Note_on_c, 0, 86, 86
2, 364852, Note_off_c, 0, 74, 59
2, 364853, Note_off_c, 0, 86, 61
2, 364937, Note_on_c, 0, 72, 70
2, 364938, Note_on_c, 0, 84, 81
2, 365021, Note_off_c, 0, 72, 57
2, 365022, Note_off_c, 0, 84, 60
2, 365118, Note_on_c, 0, 70, 65
2, 365119, Note_on_c, 0, 82, 76
2, 365203, Note_off_c, 0, 70, 56
2, 365204, Note_off_c, 0, 82, 59
2, 365287, Note_on_c, 0, 69, 60
2, 365288, Note_on_c, 0, 81, 71
2, 365316, Note_off_c, 0, 41, 50
2, 365371, Note_off_c, 0, 69, 55
2, 365372, Note_off_c, 0, 81, 58
2, 365469, Note_on_c, 0, 70, 55
2, 365470, Note_on_c, 0, 82, 66
2, 365553, Note_off_c, 0, 70, 53
2, 365554, Note_off_c, 0, 82, 56
2, 365617, Note_off_c, 0, 50, 53
2, 365618, Note_off_c, 0, 38, 52
2, 365639, Note_on_c, 0, 72, 55
2, 365640, Note_on_c, 0, 84, 90
2, 365641, Note_on_c, 0, 41, 36
2, 365641, Note_on_c, 0, 39, 42
2, 365642, Note_on_c, 0, 51, 72
2, 365643, Control_c, 0, 64, 96
2, 365720, Note_off_c, 0, 72, 53
2, 365722, Note_off_c, 0, 84, 62
2, 365819, Note_on_c, 0, 65, 55
2, 365820, Note_on_c, 0, 77, 66
2, 365903, Note_off_c, 0, 65, 53
2, 365904, Note_off_c, 0, 77, 56
2, 365962, Control_c, 0, 64, 20
2, 365988, Note_on_c, 0, 67, 59
2, 365989, Note_on_c, 0, 79, 70
2, 366072, Note_off_c, 0, 67, 54
2, 366073, Note_off_c, 0, 79, 57
2, 366165, Note_off_c, 0, 41, 50
2, 366169, Note_on_c, 0, 69, 63
2, 366170, Note_on_c, 0, 81, 74
2, 366253, Note_off_c, 0, 69, 55
2, 366254, Note_off_c, 0, 81, 59
2, 366327, Control_c, 0, 64, 96
2, 366336, Note_off_c, 0, 39, 52
2, 366337, Note_off_c, 0, 51, 59
2, 366342, Note_on_c, 0, 70, 67
2, 366343, Note_on_c, 0, 82, 78
2, 366344, Note_on_c, 0, 41, 36
2, 366345, Note_on_c, 0, 38, 42
2, 366345, Note_on_c, 0, 50, 48
2, 366421, Note_off_c, 0, 70, 57
2, 366422, Note_off_c, 0, 82, 59
2, 366520, Note_on_c, 0, 77, 67
2, 366521, Note_on_c, 0, 89, 78
2, 366603, Note_off_c, 0, 77, 57
2, 366604, Note_off_c, 0, 89, 59
2, 366647, Control_c, 0, 64, 20
2, 366688, Note_on_c, 0, 75, 67
2, 366689, Note_on_c, 0, 87, 78
2, 366770, Note_off_c, 0, 75, 57
2, 366771, Note_off_c, 0, 87, 59
2, 366871, Note_on_c, 0, 74, 63
2, 366871, Note_on_c, 0, 86, 74
2, 366955, Note_off_c, 0, 74, 55
2, 366955, Note_off_c, 0, 86, 59
2, 367038, Note_on_c, 0, 72, 59
2, 367039, Note_on_c, 0, 84, 70
2, 367120, Note_off_c, 0, 72, 54
2, 367122, Note_off_c, 0, 84, 57
2, 367221, Note_on_c, 0, 70, 55
2, 367222, Note_on_c, 0, 82, 66
2, 367305, Note_off_c, 0, 70, 53
2, 367306, Note_off_c, 0, 82, 56
2, 367345, Note_off_c, 0, 41, 50
2, 367389, Note_on_c, 0, 69, 51
2, 367390, Note_on_c, 0, 81, 62
2, 367470, Note_off_c, 0, 69, 52
2, 367472, Note_off_c, 0, 81, 55
2, 367571, Note_on_c, 0, 70, 47
2, 367572, Note_on_c, 0, 82, 58
2, 367655, Note_off_c, 0, 70, 51
2, 367656, Note_off_c, 0, 82, 54
2, 367721, Note_off_c, 0, 50, 53
2, 367722, Note_off_c, 0, 38, 52
2, 367740, Note_on_c, 0, 72, 43
2, 367741, Note_on_c, 0, 84, 78
2, 367742, Note_on_c, 0, 41, 36
2, 367743, Note_on_c, 0, 39, 42
2, 367744, Note_on_c, 0, 51, 72
2, 367745, Control_c, 0, 64, 96
2, 367821, Note_off_c, 0, 72, 50
2, 367824, Note_off_c, 0, 84, 59
2, 367922, Note_on_c, 0, 65, 43
2, 367923, Note_on_c, 0, 77, 54
2, 368005, Note_off_c, 0, 65, 50
2, 368006, Note_off_c, 0, 77, 53
2, 368061, Control_c, 0, 64, 20
2, 368089, Note_on_c, 0, 67, 46
2, 368090, Note_on_c, 0, 79, 57
2, 368171, Note_off_c, 0, 67, 51
2, 368173, Note_off_c, 0, 79, 54
2, 368272, Note_off_c, 0, 41, 50
2, 368273, Note_on_c, 0, 69, 49
2, 368274, Note_on_c, 0, 81, 60
2, 368356, Note_off_c, 0, 69, 52
2, 368357, Note_off_c, 0, 81, 55
2, 368422, Note_off_c, 0, 39, 52
2, 368423, Note_off_c, 0, 51, 59
2, 368441, Note_on_c, 0, 70, 53
2, 368442, Note_on_c, 0, 82, 64
2, 368443, Note_on_c, 0, 41, 36
2, 368443, Note_on_c, 0, 38, 42
2, 368444, Note_on_c, 0, 50, 48
2, 368448, Control_c, 0, 64, 96
2, 368522, Note_off_c, 0, 70, 53
2, 368524, Note_off_c, 0, 82, 56
2, 368606, Note_on_c, 0, 69, 56
2, 368607, Note_on_c, 0, 81, 67
2, 368706, Note_off_c, 0, 69, 54
2, 368707, Note_off_c, 0, 81, 57
2, 368768, Control_c, 0, 64, 20
2, 368790, Note_on_c, 0, 70, 60
2, 368791, Note_on_c, 0, 82, 71
2, 368871, Note_off_c, 0, 70, 55
2, 368873, Note_off_c, 0, 82, 58
2, 368956, Note_on_c, 0, 72, 63
2, 368957, Note_on_c, 0, 84, 74
2, 369031, Note_off_c, 0, 50, 53
2, 369056, Note_off_c, 0, 72, 55
2, 369057, Note_off_c, 0, 84, 59
2, 369123, Note_off_c, 0, 41, 50
2, 369123, Note_off_c, 0, 38, 52
2, 369132, Control_c, 0, 64, 96
2, 369140, Note_on_c, 0, 74, 67
2, 369141, Note_on_c, 0, 86, 78
2, 369142, Note_on_c, 0, 48, 48
2, 369143, Note_on_c, 0, 50, 54
2, 369221, Note_off_c, 0, 74, 57
2, 369224, Note_off_c, 0, 86, 59
2, 369306, Note_on_c, 0, 62, 55
2, 369307, Note_on_c, 0, 74, 66
2, 369406, Note_off_c, 0, 62, 53
2, 369407, Note_off_c, 0, 74, 56
2, 369452, Control_c, 0, 64, 20
2, 369490, Note_on_c, 0, 64, 55
2, 369491, Note_on_c, 0, 76, 66
2, 369572, Note_off_c, 0, 64, 53
2, 369574, Note_off_c, 0, 76, 56
2, 369657, Note_on_c, 0, 66, 59
2, 369658, Note_on_c, 0, 78, 70
2, 369729, Note_off_c, 0, 50, 55
2, 369756, Note_off_c, 0, 66, 54
2, 369757, Note_off_c, 0, 78, 57
2, 369822, Note_off_c, 0, 48, 53
2, 369834, Control_c, 0, 64, 96
2, 369841, Note_on_c, 0, 67, 64
2, 369842, Note_on_c, 0, 79, 75
2, 369843, Note_on_c, 0, 46, 54
2, 369844, Note_on_c, 0, 50, 60
2, 369922, Note_off_c, 0, 67, 56
2, 369924, Note_off_c, 0, 79, 59
2, 370007, Note_on_c, 0, 66, 69
2, 370008, Note_on_c, 0, 78, 80
2, 370107, Note_off_c, 0, 66, 57
2, 370108, Note_off_c, 0, 78, 60
2, 370154, Control_c, 0, 64, 20
2, 370191, Note_on_c, 0, 67, 74
2, 370192, Note_on_c, 0, 79, 85
2, 370272, Note_off_c, 0, 67, 59
2, 370274, Note_off_c, 0, 79, 61
2, 370357, Note_on_c, 0, 69, 79
2, 370358, Note_on_c, 0, 81, 90
2, 370446, Note_off_c, 0, 50, 56
2, 370457, Note_off_c, 0, 69, 60
2, 370458, Note_off_c, 0, 81, 62
2, 370530, Control_c, 0, 64, 96
2, 370539, Note_off_c, 0, 46, 55
2, 370544, Note_on_c, 0, 65, 79
2, 370545, Note_on_c, 0, 77, 90
2, 370546, Note_on_c, 0, 47, 42
2, 370547, Note_on_c, 0, 50, 48
2, 370623, Note_off_c, 0, 65, 60
2, 370625, Note_off_c, 0, 77, 62
2, 370707, Note_on_c, 0, 64, 75
2, 370708, Note_on_c, 0, 76, 86
2, 370808, Note_off_c, 0, 64, 59
2, 370809, Note_off_c, 0, 76, 61
2, 370850, Control_c, 0, 64, 20
2, 370892, Note_on_c, 0, 65, 71
2, 370892, Note_on_c, 0, 77, 82
2, 370974, Note_off_c, 0, 65, 58
2, 370975, Note_off_c, 0, 77, 60
2, 371058, Note_on_c, 0, 67, 67
2, 371059, Note_on_c, 0, 79, 78
2, 371158, Note_off_c, 0, 67, 57
2, 371159, Note_off_c, 0, 79, 59
2, 371238, Note_off_c, 0, 50, 53
2, 371239, Control_c, 0, 64, 96
2, 371242, Note_off_c, 0, 47, 52
2, 371244, Note_on_c, 0, 64, 67
2, 371245, Note_on_c, 0, 76, 78
2, 371246, Note_on_c, 0, 48, 42
2, 371247, Note_on_c, 0, 55, 48
2, 371324, Note_off_c, 0, 64, 57
2, 371326, Note_off_c, 0, 76, 59
2, 371408, Note_on_c, 0, 63, 64
2, 371409, Note_on_c, 0, 75, 74
2, 371508, Note_off_c, 0, 63, 56
2, 371509, Note_off_c, 0, 75, 59
2, 371560, Control_c, 0, 64, 20
2, 371593, Note_on_c, 0, 64, 60
2, 371594, Note_on_c, 0, 76, 70
2, 371674, Note_off_c, 0, 64, 55
2, 371676, Note_off_c, 0, 76, 57
2, 371758, Note_on_c, 0, 65, 56
2, 371759, Note_on_c, 0, 77, 66
2, 371761, Note_off_c, 0, 48, 52
2, 371782, Note_off_c, 0, 55, 53
2, 371858, Note_off_c, 0, 65, 54
2, 371859, Note_off_c, 0, 77, 56
2, 371936, Control_c, 0, 64, 96
2, 371944, Note_on_c, 0, 62, 56
2, 371945, Note_on_c, 0, 74, 66
2, 371945, Note_on_c, 0, 48, 36
2, 371946, Note_on_c, 0, 53, 42
2, 371947, Note_on_c, 0, 55, 48
2, 372025, Note_off_c, 0, 62, 54
2, 372028, Note_off_c, 0, 74, 56
2, 372109, Note_on_c, 0, 61, 60
2, 372110, Note_on_c, 0, 73, 70
2, 372209, Note_off_c, 0, 61, 55
2, 372210, Note_off_c, 0, 73, 57
2, 372256, Control_c, 0, 64, 20
2, 372293, Note_on_c, 0, 62, 64
2, 372294, Note_on_c, 0, 74, 74
2, 372375, Note_off_c, 0, 62, 56
2, 372377, Note_off_c, 0, 74, 59
2, 372454, Note_off_c, 0, 48, 50
2, 372459, Note_on_c, 0, 64, 68
2, 372460, Note_on_c, 0, 76, 78
2, 372524, Note_off_c, 0, 55, 53
2, 372541, Note_off_c, 0, 76, 59
2, 372542, Note_off_c, 0, 64, 57
2, 372606, Note_off_c, 0, 53, 52
2, 372645, Note_on_c, 0, 48, 42
2, 372646, Note_on_c, 0, 52, 48
2, 372647, Note_on_c, 0, 55, 54
2, 372647, Note_on_c, 0, 60, 56
2, 372647, Note_on_c, 0, 72, 66
2, 372648, Control_c, 0, 64, 96
2, 372726, Note_off_c, 0, 60, 54
2, 372727, Note_off_c, 0, 72, 56
2, 372809, Note_on_c, 0, 67, 80
2, 372810, Note_on_c, 0, 79, 90
2, 372890, Note_off_c, 0, 79, 62
2, 372892, Note_off_c, 0, 67, 60
2, 372966, Control_c, 0, 64, 20
2, 372994, Note_on_c, 0, 65, 80
2, 372995, Note_on_c, 0, 77, 90
2, 373075, Note_off_c, 0, 65, 60
2, 373077, Note_off_c, 0, 77, 62
2, 373159, Note_on_c, 0, 64, 72
2, 373160, Note_on_c, 0, 76, 82
2, 373241, Note_off_c, 0, 76, 60
2, 373242, Note_off_c, 0, 64, 58
2, 373344, Note_on_c, 0, 62, 64
2, 373345, Note_on_c, 0, 74, 74
2, 373426, Note_off_c, 0, 62, 56
2, 373427, Note_off_c, 0, 74, 59
2, 373510, Note_on_c, 0, 60, 56
2, 373511, Note_on_c, 0, 72, 66
2, 373592, Note_off_c, 0, 72, 56
2, 373593, Note_off_c, 0, 60, 54
2, 373695, Note_on_c, 0, 59, 56
2, 373696, Note_on_c, 0, 71, 66
2, 373755, Note_off_c, 0, 48, 50
2, 373775, Note_off_c, 0, 59, 54
2, 373778, Note_off_c, 0, 71, 56
2, 373860, Note_on_c, 0, 60, 56
2, 373861, Note_on_c, 0, 72, 66
2, 373941, Note_off_c, 0, 72, 56
2, 373943, Note_off_c, 0, 60, 54
2, 374008, Note_off_c, 0, 52, 52
2, 374011, Note_off_c, 0, 55, 53
2, 374026, Control_c, 0, 64, 96
2, 374045, Note_on_c, 0, 62, 60
2, 374046, Note_on_c, 0, 74, 70
2, 374047, Note_on_c, 0, 48, 66
2, 374048, Note_on_c, 0, 53, 72
2, 374126, Note_off_c, 0, 62, 55
2, 374128, Note_off_c, 0, 74, 57
2, 374211, Note_on_c, 0, 55, 64
2, 374211, Note_on_c, 0, 67, 74
2, 374292, Note_off_c, 0, 67, 59
2, 374294, Note_off_c, 0, 55, 56
2, 374345, Control_c, 0, 64, 20
2, 374395, Note_on_c, 0, 57, 68
2, 374396, Note_on_c, 0, 69, 78
2, 374476, Note_off_c, 0, 57, 57
2, 374478, Note_off_c, 0, 69, 59
2, 374550, Note_off_c, 0, 48, 59
2, 374561, Note_on_c, 0, 59, 68
2, 374561, Note_on_c, 0, 71, 78
2, 374642, Note_off_c, 0, 71, 59
2, 374645, Note_off_c, 0, 59, 57
2, 374742, Note_off_c, 0, 53, 60
2, 374748, Control_c, 0, 64, 96
2, 374749, Note_on_c, 0, 60, 56
2, 374750, Note_on_c, 0, 72, 66
2, 374751, Note_on_c, 0, 48, 40
2, 374751, Note_on_c, 0, 52, 46
2, 374830, Note_off_c, 0, 60, 54
2, 374831, Note_off_c, 0, 72, 56
2, 374912, Note_on_c, 0, 67, 80
2, 374912, Note_on_c, 0, 79, 90
2, 374993, Note_off_c, 0, 79, 62
2, 374995, Note_off_c, 0, 67, 60
2, 375068, Control_c, 0, 64, 20
2, 375095, Note_on_c, 0, 65, 80
2, 375096, Note_on_c, 0, 77, 90
2, 375177, Note_off_c, 0, 65, 60
2, 375179, Note_off_c, 0, 77, 62
2, 375262, Note_on_c, 0, 64, 74
2, 375263, Note_on_c, 0, 76, 84
2, 375343, Note_off_c, 0, 76, 61
2, 375345, Note_off_c, 0, 64, 59
2, 375446, Note_on_c, 0, 62, 68
2, 375447, Note_on_c, 0, 74, 78
2, 375527, Note_off_c, 0, 62, 57
2, 375530, Note_off_c, 0, 74, 59
2, 375612, Note_on_c, 0, 60, 62
2, 375613, Note_on_c, 0, 72, 72
2, 375694, Note_off_c, 0, 72, 58
2, 375695, Note_off_c, 0, 60, 55
2, 375792, Note_off_c, 0, 48, 52
2, 375796, Note_on_c, 0, 59, 56
2, 375797, Note_on_c, 0, 71, 66
2, 375877, Note_off_c, 0, 59, 54
2, 375879, Note_off_c, 0, 71, 56
2, 375962, Note_on_c, 0, 60, 56
2, 375963, Note_on_c, 0, 72, 66
2, 376045, Note_off_c, 0, 60, 54
2, 376045, Note_off_c, 0, 72, 56
2, 376110, Note_off_c, 0, 52, 53
2, 376127, Control_c, 0, 64, 96
2, 376146, Note_on_c, 0, 62, 58
2, 376147, Note_on_c, 0, 74, 68
2, 376148, Note_on_c, 0, 48, 64
2, 376149, Note_on_c, 0, 53, 70
2, 376228, Note_off_c, 0, 62, 54
2, 376230, Note_off_c, 0, 74, 57
2, 376313, Note_on_c, 0, 55, 60
2, 376314, Note_on_c, 0, 67, 70
2, 376395, Note_off_c, 0, 67, 57
2, 376396, Note_off_c, 0, 55, 55
2, 376447, Control_c, 0, 64, 20
2, 376497, Note_on_c, 0, 57, 63
2, 376498, Note_on_c, 0, 69, 73
2, 376578, Note_off_c, 0, 57, 55
2, 376580, Note_off_c, 0, 69, 58
2, 376663, Note_on_c, 0, 59, 65
2, 376664, Note_on_c, 0, 71, 75
2, 376707, Note_off_c, 0, 48, 58
2, 376745, Note_off_c, 0, 71, 59
2, 376746, Note_off_c, 0, 59, 56
2, 376812, Note_off_c, 0, 53, 59
2, 376831, Note_on_c, 0, 60, 68
2, 376832, Note_on_c, 0, 72, 78
2, 376833, Note_on_c, 0, 48, 40
2, 376833, Note_on_c, 0, 52, 46
2, 376834, Control_c, 0, 64, 96
2, 376931, Note_off_c, 0, 60, 57
2, 376932, Note_off_c, 0, 72, 59
2, 377013, Note_on_c, 0, 59, 56
2, 377014, Note_on_c, 0, 71, 66
2, 377094, Note_off_c, 0, 71, 56
2, 377096, Note_off_c, 0, 59, 54
2, 377151, Control_c, 0, 64, 20
2, 377178, Note_on_c, 0, 60, 56
2, 377179, Note_on_c, 0, 72, 66
2, 377278, Note_off_c, 0, 60, 54
2, 377279, Note_off_c, 0, 72, 56
2, 377363, Note_on_c, 0, 64, 58
2, 377364, Note_on_c, 0, 76, 68
2, 377445, Note_off_c, 0, 76, 57
2, 377446, Note_off_c, 0, 64, 54
2, 377528, Note_off_c, 0, 52, 53
2, 377531, Note_on_c, 0, 59, 55
2, 377532, Note_on_c, 0, 62, 60
2, 377533, Note_on_c, 0, 74, 70
2, 377534, Control_c, 0, 64, 96
2, 377629, Note_off_c, 0, 62, 55
2, 377630, Note_off_c, 0, 74, 57
2, 377714, Note_on_c, 0, 61, 63
2, 377715, Note_on_c, 0, 73, 73
2, 377795, Note_off_c, 0, 73, 58
2, 377797, Note_off_c, 0, 61, 55
2, 377851, Control_c, 0, 64, 20
2, 377880, Note_on_c, 0, 62, 65
2, 377880, Note_on_c, 0, 74, 75
2, 377980, Note_off_c, 0, 62, 56
2, 377980, Note_off_c, 0, 74, 59
2, 378064, Note_on_c, 0, 65, 68
2, 378065, Note_on_c, 0, 77, 78
2, 378146, Note_off_c, 0, 77, 59
2, 378147, Note_off_c, 0, 65, 57
2, 378227, Note_off_c, 0, 59, 53
2, 378229, Control_c, 0, 64, 96
2, 378231, Note_on_c, 0, 58, 58
2, 378232, Note_on_c, 0, 64, 56
2, 378233, Note_on_c, 0, 76, 66
2, 378329, Note_off_c, 0, 64, 54
2, 378331, Note_off_c, 0, 76, 56
2, 378414, Note_on_c, 0, 63, 56
2, 378415, Note_on_c, 0, 75, 66
2, 378495, Note_off_c, 0, 75, 56
2, 378497, Note_off_c, 0, 63, 54
2, 378550, Control_c, 0, 64, 20
2, 378580, Note_on_c, 0, 64, 58
2, 378581, Note_on_c, 0, 76, 68
2, 378680, Note_off_c, 0, 64, 54
2, 378681, Note_off_c, 0, 76, 57
2, 378764, Note_on_c, 0, 72, 60
2, 378765, Note_on_c, 0, 84, 70
2, 378846, Note_off_c, 0, 84, 57
2, 378847, Note_off_c, 0, 72, 55
2, 378928, Note_off_c, 0, 58, 54
2, 378932, Note_on_c, 0, 57, 60
2, 378933, Note_on_c, 0, 65, 63
2, 378934, Note_on_c, 0, 77, 73
2, 378938, Control_c, 0, 64, 96
2, 379030, Note_off_c, 0, 65, 55
2, 379032, Note_off_c, 0, 77, 58
2, 379115, Note_on_c, 0, 64, 65
2, 379116, Note_on_c, 0, 76, 75
2, 379197, Note_off_c, 0, 76, 59
2, 379198, Note_off_c, 0, 64, 56
2, 379257, Control_c, 0, 64, 20
2, 379281, Note_on_c, 0, 65, 68
2, 379282, Note_on_c, 0, 77, 78
2, 379381, Note_off_c, 0, 65, 57
2, 379382, Note_off_c, 0, 77, 59
2, 379465, Note_on_c, 0, 72, 68
2, 379466, Note_on_c, 0, 84, 78
2, 379547, Note_off_c, 0, 72, 57
2, 379548, Note_off_c, 0, 84, 59
2, 379628, Note_off_c, 0, 57, 55
2, 379634, Note_on_c, 0, 55, 63
2, 379634, Note_on_c, 0, 67, 68
2, 379635, Note_on_c, 0, 79, 78
2, 379730, Note_off_c, 0, 67, 57
2, 379732, Note_off_c, 0, 79, 59
2, 379796, Control_c, 0, 64, 96
2, 379815, Note_on_c, 0, 66, 56
2, 379816, Note_on_c, 0, 78, 66
2, 379983, Note_on_c, 0, 67, 56
2, 379984, Note_on_c, 0, 79, 66
2, 380032, Note_off_c, 0, 66, 54
2, 380035, Note_off_c, 0, 78, 56
2, 380081, Note_off_c, 0, 67, 54
2, 380082, Note_off_c, 0, 79, 56
2, 380117, Control_c, 0, 64, 20
2, 380165, Note_on_c, 0, 72, 68
2, 380166, Note_on_c, 0, 84, 78
2, 380248, Note_off_c, 0, 72, 57
2, 380249, Note_off_c, 0, 84, 59
2, 380319, Control_c, 0, 64, 96
2, 380330, Note_off_c, 0, 55, 55
2, 380334, Note_on_c, 0, 53, 66
2, 380335, Note_on_c, 0, 69, 68
2, 380336, Note_on_c, 0, 81, 78
2, 380432, Note_off_c, 0, 69, 57
2, 380434, Note_off_c, 0, 81, 59
2, 380516, Note_on_c, 0, 68, 62
2, 380517, Note_on_c, 0, 80, 72
2, 380598, Note_off_c, 0, 68, 55
2, 380599, Note_off_c, 0, 80, 58
2, 380638, Control_c, 0, 64, 20
2, 380682, Note_on_c, 0, 69, 56
2, 380683, Note_on_c, 0, 81, 66
2, 380782, Note_off_c, 0, 69, 54
2, 380783, Note_off_c, 0, 81, 56
2, 380866, Note_on_c, 0, 72, 56
2, 380867, Note_on_c, 0, 84, 66
2, 380918, Note_off_c, 0, 53, 56
2, 380948, Note_off_c, 0, 72, 54
2, 380949, Note_off_c, 0, 84, 56
2, 381027, Control_c, 0, 64, 96
2, 381035, Note_on_c, 0, 52, 54
2, 381036, Note_on_c, 0, 70, 56
2, 381037, Note_on_c, 0, 82, 66
2, 381117, Note_off_c, 0, 70, 54
2, 381118, Note_off_c, 0, 82, 56
2, 381216, Note_on_c, 0, 69, 56
2, 381217, Note_on_c, 0, 81, 66
2, 381299, Note_off_c, 0, 69, 54
2, 381300, Note_off_c, 0, 81, 56
2, 381347, Control_c, 0, 64, 20
2, 381382, Note_on_c, 0, 70, 56
2, 381383, Note_on_c, 0, 82, 66
2, 381467, Note_off_c, 0, 70, 54
2, 381468, Note_off_c, 0, 82, 56
2, 381566, Note_on_c, 0, 74, 56
2, 381567, Note_on_c, 0, 86, 66
2, 381649, Note_off_c, 0, 74, 54
2, 381650, Note_off_c, 0, 86, 56
2, 381732, Note_on_c, 0, 70, 56
2, 381733, Note_on_c, 0, 82, 66
2, 381816, Note_off_c, 0, 70, 54
2, 381817, Note_off_c, 0, 82, 56
2, 381917, Note_on_c, 0, 74, 56
2, 381918, Note_on_c, 0, 86, 66
2, 381998, Note_off_c, 0, 74, 54
2, 382000, Note_off_c, 0, 86, 56
2, 382055, Control_c, 0, 64, 96
2, 382081, Note_off_c, 0, 52, 53
2, 382085, Note_on_c, 0, 58, 54
2, 382086, Note_on_c, 0, 67, 56
2, 382087, Note_on_c, 0, 79, 66
2, 382167, Note_off_c, 0, 67, 54
2, 382169, Note_off_c, 0, 79, 56
2, 382267, Note_on_c, 0, 70, 56
2, 382268, Note_on_c, 0, 82, 66
2, 382349, Note_off_c, 0, 70, 54
2, 382350, Note_off_c, 0, 82, 56
2, 382373, Control_c, 0, 64, 20
2, 382393, Note_off_c, 0, 58, 53
2, 382434, Note_on_c, 0, 58, 54
2, 382435, Note_on_c, 0, 67, 56
2, 382436, Note_on_c, 0, 79, 66
2, 382518, Note_off_c, 0, 67, 54
2, 382519, Note_off_c, 0, 79, 56
2, 382617, Note_on_c, 0, 70, 56
2, 382618, Note_on_c, 0, 82, 66
2, 382700, Note_off_c, 0, 70, 54
2, 382701, Note_off_c, 0, 82, 56
2, 382703, Note_off_c, 0, 48, 52
2, 382781, Note_off_c, 0, 58, 53
2, 382786, Note_on_c, 0, 54, 54
2, 382787, Note_on_c, 0, 69, 56
2, 382788, Note_on_c, 0, 81, 66
2, 382868, Note_off_c, 0, 69, 54
2, 382869, Note_off_c, 0, 81, 56
2, 382968, Note_on_c, 0, 72, 56
2, 382968, Note_on_c, 0, 84, 66
2, 383051, Note_off_c, 0, 72, 54
2, 383051, Note_off_c, 0, 84, 56
2, 383129, Control_c, 0, 64, 96
2, 383132, Note_off_c, 0, 54, 53
2, 383137, Note_on_c, 0, 55, 54
2, 383138, Note_on_c, 0, 48, 50
2, 383139, Note_on_c, 0, 70, 56
2, 383140, Note_on_c, 0, 82, 66
2, 383219, Note_off_c, 0, 70, 54
2, 383220, Note_off_c, 0, 82, 56
2, 383319, Note_on_c, 0, 69, 56
2, 383319, Note_on_c, 0, 81, 66
2, 383400, Note_off_c, 0, 69, 54
2, 383401, Note_off_c, 0, 81, 56
2, 383449, Control_c, 0, 64, 20
2, 383484, Note_on_c, 0, 70, 56
2, 383485, Note_on_c, 0, 82, 66
2, 383568, Note_off_c, 0, 70, 54
2, 383569, Note_off_c, 0, 82, 56
2, 383669, Note_on_c, 0, 74, 56
2, 383669, Note_on_c, 0, 86, 66
2, 383750, Note_off_c, 0, 74, 54
2, 383751, Note_off_c, 0, 86, 56
2, 383834, Note_on_c, 0, 70, 56
2, 383835, Note_on_c, 0, 82, 66
2, 383918, Note_off_c, 0, 70, 54
2, 383919, Note_off_c, 0, 82, 56
2, 384019, Note_on_c, 0, 74, 56
2, 384020, Note_on_c, 0, 86, 66
2, 384100, Note_off_c, 0, 74, 54
2, 384102, Note_off_c, 0, 86, 56
2, 384183, Note_off_c, 0, 55, 53
2, 384187, Note_on_c, 0, 58, 54
2, 384188, Note_on_c, 0, 67, 56
2, 384189, Note_on_c, 0, 79, 66
2, 384269, Note_off_c, 0, 67, 54
2, 384270, Note_off_c, 0, 79, 56
2, 384369, Note_on_c, 0, 70, 56
2, 384370, Note_on_c, 0, 82, 66
2, 384451, Note_off_c, 0, 70, 54
2, 384453, Note_off_c, 0, 82, 56
2, 384481, Note_off_c, 0, 58, 53
2, 384535, Note_on_c, 0, 58, 54
2, 384536, Note_on_c, 0, 67, 56
2, 384537, Note_on_c, 0, 79, 66
2, 384617, Note_off_c, 0, 79, 56
2, 384619, Note_off_c, 0, 67, 54
2, 384720, Note_on_c, 0, 70, 56
2, 384721, Note_on_c, 0, 82, 66
2, 384801, Note_off_c, 0, 70, 54
2, 384803, Note_off_c, 0, 82, 56
2, 384853, Note_off_c, 0, 48, 52
2, 384882, Note_off_c, 0, 58, 53
2, 384887, Note_on_c, 0, 54, 54
2, 384888, Note_on_c, 0, 69, 56
2, 384889, Note_on_c, 0, 81, 66
2, 384969, Note_off_c, 0, 69, 54
2, 384970, Note_off_c, 0, 81, 56
2, 385052, Note_on_c, 0, 72, 56
2, 385053, Note_on_c, 0, 84, 66
2, 385151, Note_off_c, 0, 72, 54
2, 385153, Note_off_c, 0, 84, 56
2, 385205, Control_c, 0, 64, 96
2, 385218, Note_off_c, 0, 54, 53
2, 385238, Note_on_c, 0, 55, 54
2, 385239, Note_on_c, 0, 48, 54
2, 385240, Note_on_c, 0, 70, 56
2, 385241, Note_on_c, 0, 82, 66
2, 385320, Note_off_c, 0, 82, 56
2, 385321, Note_off_c, 0, 70, 54
2, 385404, Note_on_c, 0, 69, 56
2, 385405, Note_on_c, 0, 81, 66
2, 385504, Note_off_c, 0, 69, 54
2, 385506, Note_off_c, 0, 81, 56
2, 385528, Control_c, 0, 64, 20
2, 385589, Note_on_c, 0, 70, 56
2, 385590, Note_on_c, 0, 82, 66
2, 385672, Note_off_c, 0, 82, 56
2, 385674, Note_off_c, 0, 70, 54
2, 385759, Note_on_c, 0, 74, 56
2, 385760, Note_on_c, 0, 86, 66
2, 385858, Note_off_c, 0, 74, 54
2, 385859, Note_off_c, 0, 86, 56
2, 385943, Note_off_c, 0, 55, 53
2, 385946, Note_on_c, 0, 57, 54
2, 385947, Note_on_c, 0, 69, 56
2, 385948, Note_on_c, 0, 81, 66
2, 386029, Note_off_c, 0, 69, 54
2, 386030, Note_off_c, 0, 81, 56
2, 386114, Note_on_c, 0, 68, 56
2, 386115, Note_on_c, 0, 80, 66
2, 386216, Note_off_c, 0, 68, 54
2, 386218, Note_off_c, 0, 80, 56
2, 386303, Note_on_c, 0, 69, 56
2, 386304, Note_on_c, 0, 81, 66
2, 386387, Note_off_c, 0, 81, 56
2, 386391, Note_off_c, 0, 69, 54
2, 386476, Note_on_c, 0, 72, 56
2, 386476, Note_on_c, 0, 84, 66
2, 386579, Note_off_c, 0, 72, 54
2, 386580, Note_off_c, 0, 84, 56
2, 386663, Note_off_c, 0, 57, 53
2, 386666, Note_on_c, 0, 58, 54
2, 386666, Note_on_c, 0, 67, 56
2, 386667, Note_on_c, 0, 79, 66
2, 386750, Note_off_c, 0, 79, 56
2, 386752, Note_off_c, 0, 67, 54
2, 386840, Note_on_c, 0, 66, 56
2, 386841, Note_on_c, 0, 78, 66
2, 386882, Note_off_c, 0, 48, 53
2, 386943, Note_off_c, 0, 66, 54
2, 386945, Note_off_c, 0, 78, 56
2, 387032, Note_on_c, 0, 67, 56
2, 387033, Note_on_c, 0, 79, 66
2, 387117, Note_off_c, 0, 79, 56
2, 387120, Note_off_c, 0, 67, 54
2, 387208, Note_on_c, 0, 70, 56
2, 387209, Note_on_c, 0, 82, 66
2, 387311, Note_off_c, 0, 70, 54
2, 387313, Note_off_c, 0, 82, 56
2, 387383, Control_c, 0, 64, 96
2, 387399, Note_off_c, 0, 58, 53
2, 387403, Note_on_c, 0, 48, 48
2, 387404, Note_on_c, 0, 59, 54
2, 387405, Note_on_c, 0, 65, 56
2, 387405, Note_on_c, 0, 77, 66
2, 387489, Note_off_c, 0, 77, 56
2, 387492, Note_off_c, 0, 65, 54
2, 387578, Note_on_c, 0, 64, 56
2, 387579, Note_on_c, 0, 76, 66
2, 387686, Note_off_c, 0, 64, 54
2, 387687, Note_off_c, 0, 76, 56
2, 387725, Control_c, 0, 64, 20
2, 387777, Note_on_c, 0, 65, 56
2, 387778, Note_on_c, 0, 77, 66
2, 387863, Note_off_c, 0, 77, 56
2, 387866, Note_off_c, 0, 65, 54
2, 387955, Note_on_c, 0, 69, 56
2, 387956, Note_on_c, 0, 81, 66
2, 388061, Note_off_c, 0, 69, 54
2, 388063, Note_off_c, 0, 81, 56
2, 388150, Note_off_c, 0, 59, 53
2, 388154, Note_on_c, 0, 60, 54
2, 388155, Note_on_c, 0, 64, 56
2, 388156, Note_on_c, 0, 76, 66
2, 388244, Note_off_c, 0, 64, 54
2, 388245, Note_off_c, 0, 76, 56
2, 388333, Note_on_c, 0, 63, 56
2, 388334, Note_on_c, 0, 75, 66
2, 388443, Note_off_c, 0, 63, 54
2, 388444, Note_off_c, 0, 75, 56
2, 388536, Note_on_c, 0, 64, 56
2, 388537, Note_on_c, 0, 76, 66
2, 388624, Note_off_c, 0, 76, 56
2, 388627, Note_off_c, 0, 64, 54
2, 388717, Note_on_c, 0, 67, 56
2, 388718, Note_on_c, 0, 79, 66
2, 388827, Note_off_c, 0, 67, 54
2, 388828, Note_off_c, 0, 79, 56
2, 388919, Note_off_c, 0, 60, 53
2, 388920, Note_on_c, 0, 62, 54
2, 388921, Note_on_c, 0, 74, 66
2, 389030, Control_c, 0, 64, 96
2, 389105, Note_on_c, 0, 73, 66
2, 389107, Note_off_c, 0, 74, 56
2, 389311, Note_off_c, 0, 73, 56
2, 389312, Note_on_c, 0, 74, 66
2, 389495, Note_off_c, 0, 62, 53
2, 389496, Note_off_c, 0, 74, 56
2, 389497, Note_on_c, 0, 77, 66
2, 389699, Note_off_c, 0, 48, 52
2, 389701, Note_off_c, 0, 77, 56
2, 389704, Note_on_c, 0, 60, 48
2, 389705, Note_on_c, 0, 64, 54
2, 389706, Note_on_c, 0, 72, 66
2, 389707, Control_c, 0, 64, 20
2, 389887, Note_on_c, 0, 71, 66
2, 389890, Note_off_c, 0, 72, 56
2, 389895, Control_c, 0, 64, 96
2, 390094, Note_off_c, 0, 71, 56
2, 390095, Note_on_c, 0, 72, 66
2, 390279, Note_off_c, 0, 72, 56
2, 390280, Note_on_c, 0, 76, 65
2, 390484, Note_off_c, 0, 64, 53
2, 390485, Note_off_c, 0, 76, 56
2, 390487, Note_on_c, 0, 65, 54
2, 390488, Note_on_c, 0, 72, 64
2, 390502, Control_c, 0, 64, 20
2, 390668, Note_on_c, 0, 71, 63
2, 390670, Note_off_c, 0, 72, 56
2, 390686, Control_c, 0, 64, 96
2, 390869, Note_off_c, 0, 71, 55
2, 390870, Note_on_c, 0, 72, 62
2, 391052, Note_off_c, 0, 72, 55
2, 391053, Note_on_c, 0, 74, 62
2, 391252, Note_off_c, 0, 65, 53
2, 391253, Note_off_c, 0, 74, 55
2, 391254, Note_on_c, 0, 66, 51
2, 391255, Note_on_c, 0, 72, 61
2, 391256, Control_c, 0, 64, 20
2, 391430, Note_on_c, 0, 71, 60
2, 391432, Note_off_c, 0, 72, 55
2, 391435, Control_c, 0, 64, 96
2, 391628, Note_off_c, 0, 71, 55
2, 391629, Note_on_c, 0, 72, 59
2, 391807, Note_off_c, 0, 72, 54
2, 391808, Note_on_c, 0, 74, 58
2, 392002, Note_off_c, 0, 66, 52
2, 392004, Note_off_c, 0, 74, 54
2, 392004, Note_on_c, 0, 67, 48
2, 392005, Note_on_c, 0, 72, 58
2, 392006, Control_c, 0, 64, 20
2, 392177, Note_on_c, 0, 71, 57
2, 392178, Note_off_c, 0, 72, 54
2, 392183, Control_c, 0, 64, 96
2, 392373, Note_off_c, 0, 71, 54
2, 392373, Note_on_c, 0, 72, 56
2, 392547, Note_off_c, 0, 72, 54
2, 392548, Note_on_c, 0, 74, 55
2, 392737, Note_off_c, 0, 67, 52
2, 392738, Note_off_c, 0, 74, 53
2, 392739, Note_on_c, 0, 68, 45
2, 392740, Note_on_c, 0, 72, 54
2, 392754, Control_c, 0, 64, 20
2, 392910, Note_on_c, 0, 71, 54
2, 392911, Note_off_c, 0, 72, 53
2, 392927, Control_c, 0, 64, 96
2, 393100, Note_off_c, 0, 71, 53
2, 393100, Note_on_c, 0, 72, 55
2, 393271, Note_off_c, 0, 72, 53
2, 393273, Note_on_c, 0, 74, 57
2, 393459, Note_off_c, 0, 68, 51
2, 393460, Note_off_c, 0, 74, 54
2, 393461, Note_on_c, 0, 69, 42
2, 393462, Note_on_c, 0, 72, 59
2, 393465, Control_c, 0, 64, 20
2, 393626, Note_on_c, 0, 71, 61
2, 393629, Note_off_c, 0, 72, 54
2, 393634, Control_c, 0, 64, 96
2, 393730, Note_off_c, 0, 60, 52
2, 393812, Note_off_c, 0, 71, 55
2, 393814, Note_on_c, 0, 72, 63
2, 393983, Note_off_c, 0, 72, 55
2, 393983, Note_on_c, 0, 74, 65
2, 394131, Note_off_c, 0, 74, 56
2, 394133, Note_off_c, 0, 69, 50
2, 394150, Note_on_c, 0, 60, 46
2, 394151, Note_on_c, 0, 70, 54
2, 394152, Note_on_c, 0, 72, 66
2, 394154, Control_c, 0, 64, 20
2, 394334, Control_c, 0, 64, 96
2, 394346, Note_on_c, 0, 71, 68
2, 394349, Note_off_c, 0, 72, 56
2, 394523, Note_off_c, 0, 71, 57
2, 394526, Note_on_c, 0, 72, 70
2, 394722, Note_off_c, 0, 72, 57
2, 394722, Note_on_c, 0, 74, 72
2, 394899, Note_off_c, 0, 74, 58
2, 394902, Note_on_c, 0, 72, 74
2, 394911, Control_c, 0, 64, 20
2, 395088, Control_c, 0, 64, 96
2, 395098, Note_off_c, 0, 72, 59
2, 395099, Note_on_c, 0, 71, 76
2, 395270, Note_off_c, 0, 71, 59
2, 395273, Note_on_c, 0, 72, 78
2, 395465, Note_off_c, 0, 72, 59
2, 395466, Note_on_c, 0, 74, 78
2, 395640, Note_off_c, 0, 74, 59
2, 395642, Note_on_c, 0, 72, 78
2, 395646, Control_c, 0, 64, 20
2, 395821, Control_c, 0, 64, 96
2, 395834, Note_off_c, 0, 72, 59
2, 395834, Note_on_c, 0, 71, 69
2, 396005, Note_off_c, 0, 71, 57
2, 396009, Note_on_c, 0, 72, 60
2, 396198, Note_off_c, 0, 72, 55
2, 396199, Note_on_c, 0, 74, 51
2, 396368, Note_off_c, 0, 74, 52
2, 396370, Note_on_c, 0, 76, 42
2, 396382, Control_c, 0, 64, 20
2, 396554, Control_c, 0, 64, 96
2, 396558, Note_off_c, 0, 76, 50
2, 396559, Note_on_c, 0, 77, 42
2, 396728, Note_off_c, 0, 77, 50
2, 396731, Note_on_c, 0, 78, 45
2, 396918, Note_off_c, 0, 78, 51
2, 396919, Note_on_c, 0, 79, 48
2, 397085, Note_off_c, 0, 79, 52
2, 397088, Note_on_c, 0, 80, 52
2, 397092, Control_c, 0, 64, 20
2, 397262, Control_c, 0, 64, 96
2, 397272, Note_off_c, 0, 80, 53
2, 397273, Note_on_c, 0, 81, 55
2, 397440, Note_off_c, 0, 81, 53
2, 397443, Note_off_c, 0, 60, 51
2, 397444, Note_off_c, 0, 70, 53
2, 397444, Note_on_c, 0, 58, 54
2, 397445, Note_on_c, 0, 82, 59
2, 397627, Note_off_c, 0, 82, 54
2, 397628, Note_on_c, 0, 83, 62
2, 397793, Note_off_c, 0, 83, 55
2, 397794, Note_off_c, 0, 58, 53
2, 397797, Note_on_c, 0, 84, 66
2, 397802, Note_on_c, 0, 60, 54
2, 397804, Note_on_c, 0, 77, 46
2, 397807, Control_c, 0, 64, 20
2, 397808, Note_on_c, 0, 57, 50
2, 397975, Control_c, 0, 64, 96
2, 398334, Note_on_c, 0, 86, 70
2, 398336, Note_off_c, 0, 84, 56
2, 398382, Note_off_c, 0, 60, 53
2, 398486, Note_off_c, 0, 86, 57
2, 398496, Note_off_c, 0, 77, 51
2, 398500, Note_off_c, 0, 57, 52
2, 398508, Note_on_c, 0, 52, 45
2, 398509, Note_on_c, 0, 79, 46
2, 398509, Note_on_c, 0, 60, 54
2, 398510, Note_on_c, 0, 84, 66
2, 398512, Control_c, 0, 64, 20
2, 398684, Control_c, 0, 64, 96
2, 399236, Note_on_c, 0, 82, 62
2, 399301, Note_off_c, 0, 84, 56
2, 399648, Note_off_c, 0, 60, 53
2, 399803, Note_off_c, 0, 82, 55
2, 399963, Note_off_c, 0, 52, 51
2, 399964, Note_off_c, 0, 79, 51
2, 400100, Note_on_c, 0, 69, 66
2, 400102, Control_c, 0, 64, 20
2, 400104, Note_on_c, 0, 65, 44
2, 400105, Note_on_c, 0, 53, 54
2, 400111, Note_on_c, 0, 41, 42
2, 400112, Note_on_c, 0, 60, 56
2, 400271, Control_c, 0, 64, 96
2, 400637, Note_on_c, 0, 70, 66
2, 400641, Note_off_c, 0, 69, 56
2, 400645, Note_off_c, 0, 41, 50
2, 400651, Note_off_c, 0, 53, 53
2, 400695, Note_off_c, 0, 60, 54
2, 400718, Note_off_c, 0, 65, 51
2, 400807, Note_off_c, 0, 70, 56
2, 400815, Note_on_c, 0, 69, 66
2, 400821, Note_on_c, 0, 57, 54
2, 400822, Control_c, 0, 64, 20
2, 400823, Note_on_c, 0, 37, 36
2, 400826, Note_on_c, 0, 49, 50
2, 400827, Note_on_c, 0, 64, 46
2, 400995, Control_c, 0, 64, 96
2, 401539, Note_off_c, 0, 69, 56
2, 401539, Note_on_c, 0, 67, 66
2, 401994, Note_off_c, 0, 49, 52
2, 401995, Note_off_c, 0, 37, 49
2, 401999, Note_off_c, 0, 57, 53
2, 402105, Note_off_c, 0, 67, 56
2, 402105, Note_off_c, 0, 64, 51
2, 402405, Note_on_c, 0, 77, 66
2, 402412, Control_c, 0, 64, 20
2, 402417, Note_on_c, 0, 69, 46
2, 402418, Note_on_c, 0, 62, 54
2, 402590, Control_c, 0, 64, 96
2, 402900, Note_off_c, 0, 62, 53
2, 402954, Note_on_c, 0, 78, 66
2, 402955, Note_off_c, 0, 77, 56
2, 402961, Note_on_c, 0, 60, 54
2, 402977, Note_off_c, 0, 69, 51
2, 403116, Note_off_c, 0, 60, 53
2, 403145, Note_off_c, 0, 78, 56
2, 403152, Note_on_c, 0, 79, 66
2, 403157, Control_c, 0, 64, 20
2, 403159, Note_on_c, 0, 74, 40
2, 403160, Note_on_c, 0, 62, 54
2, 403162, Note_on_c, 0, 58, 50
2, 403333, Control_c, 0, 64, 96
2, 403514, Note_off_c, 0, 79, 56
2, 403516, Note_on_c, 0, 81, 68
2, 403633, Note_off_c, 0, 81, 57
2, 403636, Note_on_c, 0, 79, 68
2, 403753, Note_off_c, 0, 79, 57
2, 403756, Note_on_c, 0, 78, 69
2, 403874, Note_off_c, 0, 78, 57
2, 403875, Note_on_c, 0, 79, 70
2, 404058, Note_off_c, 0, 58, 52
2, 404090, Note_off_c, 0, 62, 53
2, 404147, Note_off_c, 0, 74, 50
2, 404399, Note_off_c, 0, 79, 57
2, 404402, Note_on_c, 0, 57, 60
2, 404403, Note_on_c, 0, 66, 69
2, 404404, Note_on_c, 0, 81, 73
2, 404466, Note_off_c, 0, 57, 55
2, 404467, Note_off_c, 0, 81, 58
2, 404469, Note_off_c, 0, 66, 57
2, 404472, Note_on_c, 0, 84, 74
2, 404584, Note_off_c, 0, 84, 59
2, 404586, Note_on_c, 0, 82, 74
2, 404593, Control_c, 0, 64, 20
2, 404594, Note_on_c, 0, 74, 54
2, 404595, Note_on_c, 0, 55, 71
2, 404600, Note_on_c, 0, 67, 62
2, 404761, Control_c, 0, 64, 96
2, 405034, Note_off_c, 0, 67, 55
2, 405067, Note_off_c, 0, 55, 58
2, 405076, Note_off_c, 0, 74, 53
2, 405112, Note_off_c, 0, 82, 59
2, 405115, Note_on_c, 0, 79, 78
2, 405123, Note_on_c, 0, 62, 66
2, 405125, Note_on_c, 0, 58, 70
2, 405126, Note_on_c, 0, 70, 60
2, 405270, Note_off_c, 0, 62, 56
2, 405284, Note_off_c, 0, 58, 57
2, 405294, Note_off_c, 0, 70, 55
2, 405300, Note_off_c, 0, 79, 59
2, 405306, Note_on_c, 0, 77, 54
2, 405307, Control_c, 0, 64, 20
2, 405313, Note_on_c, 0, 69, 34
2, 405314, Note_on_c, 0, 60, 42
2, 405481, Control_c, 0, 64, 96
2, 405901, Note_off_c, 0, 69, 48
2, 405954, Note_off_c, 0, 60, 50
2, 406036, Note_off_c, 0, 77, 53
2, 406039, Note_on_c, 0, 76, 54
2, 406043, Control_c, 0, 64, 20
2, 406046, Note_on_c, 0, 67, 39
2, 406053, Note_on_c, 0, 48, 42
2, 406223, Control_c, 0, 64, 96
2, 406362, Note_off_c, 0, 48, 50
2, 406384, Note_off_c, 0, 67, 49
2, 406412, Note_off_c, 0, 76, 53
2, 406908, Note_on_c, 0, 72, 66
2, 406922, Control_c, 0, 64, 20
2, 406923, Note_on_c, 0, 65, 46
2, 406926, Note_on_c, 0, 48, 40
2, 406927, Note_on_c, 0, 45, 36
2, 406930, Note_on_c, 0, 57, 54
2, 407091, Control_c, 0, 64, 96
2, 407350, Note_off_c, 0, 45, 49
2, 407435, Note_off_c, 0, 48, 50
2, 407455, Note_off_c, 0, 57, 53
2, 407457, Note_off_c, 0, 65, 51
2, 407465, Note_off_c, 0, 72, 56
2, 407468, Note_on_c, 0, 74, 75
2, 407622, Note_on_c, 0, 72, 78
2, 407629, Note_on_c, 0, 60, 66
2, 407630, Note_on_c, 0, 48, 60
2, 407632, Note_on_c, 0, 67, 58
2, 407633, Note_on_c, 0, 40, 66
2, 407635, Note_on_c, 0, 52, 70
2, 407641, Control_c, 0, 64, 20
2, 407651, Note_off_c, 0, 74, 59
2, 407808, Control_c, 0, 64, 96
2, 408330, Note_on_c, 0, 70, 78
2, 408331, Note_off_c, 0, 72, 59
2, 410301, Note_off_c, 0, 67, 54
2, 410585, Note_off_c, 0, 52, 57
2, 410606, Note_off_c, 0, 60, 56
2, 410616, Note_off_c, 0, 48, 55
2, 410663, Note_off_c, 0, 40, 56
2, 411281, Note_off_c, 0, 70, 59
2, 411290, Note_on_c, 0, 69, 54
2, 411299, Note_on_c, 0, 53, 50
2, 411300, Note_on_c, 0, 41, 36
2, 411301, Note_on_c, 0, 65, 34
2, 411304, Note_on_c, 0, 60, 42
2, 411305, Note_on_c, 0, 48, 40
2, 411306, Control_c, 0, 64, 20
2, 411854, Note_off_c, 0, 41, 49
2, 411872, Note_off_c, 0, 65, 48
2, 411889, Note_on_c, 0, 70, 54
2, 411891, Note_off_c, 0, 48, 50
2, 411900, Note_off_c, 0, 60, 50
2, 411912, Note_off_c, 0, 69, 53
2, 411929, Note_off_c, 0, 53, 52
2, 412052, Note_on_c, 0, 69, 54
2, 412060, Note_on_c, 0, 37, 42
2, 412061, Note_on_c, 0, 49, 50
2, 412063, Note_on_c, 0, 64, 34
2, 412066, Note_on_c, 0, 45, 46
2, 412067, Note_on_c, 0, 57, 42
2, 412072, Note_off_c, 0, 70, 53
2, 412102, Control_c, 0, 64, 96
2, 412836, Note_on_c, 0, 67, 58
2, 412839, Note_off_c, 0, 69, 53
2, 415053, Note_off_c, 0, 45, 51
2, 415130, Note_off_c, 0, 49, 52
2, 415296, Note_off_c, 0, 37, 50
2, 415403, Note_off_c, 0, 64, 48
2, 415576, Note_off_c, 0, 57, 50
2, 416126, Note_off_c, 0, 67, 54
2, 416142, Note_on_c, 0, 62, 54
2, 416146, Note_on_c, 0, 53, 70
2, 416148, Note_on_c, 0, 50, 63
2, 416149, Note_on_c, 0, 65, 74
2, 416150, Note_on_c, 0, 57, 62
2, 416156, Control_c, 0, 64, 20
2, 416349, Control_c, 0, 64, 96
2, 416468, Note_off_c, 0, 57, 55
2, 416473, Note_off_c, 0, 65, 59
2, 416517, Note_off_c, 0, 62, 53
2, 416517, Note_off_c, 0, 50, 55
2, 416519, Note_off_c, 0, 53, 57
2, 416733, Note_on_c, 0, 58, 65
2, 416734, Note_on_c, 0, 67, 77
2, 416735, Note_on_c, 0, 62, 57
2, 416736, Note_on_c, 0, 55, 70
2, 416736, Note_on_c, 0, 50, 65
2, 416739, Note_on_c, 0, 46, 60
2, 416846, Note_off_c, 0, 55, 57
2, 416851, Note_off_c, 0, 67, 59
2, 416852, Note_off_c, 0, 50, 56
2, 416865, Note_off_c, 0, 58, 56
2, 416866, Note_off_c, 0, 62, 54
2, 416867, Note_off_c, 0, 46, 55
2, 416926, Note_on_c, 0, 69, 84
2, 416931, Control_c, 0, 64, 20
2, 416936, Note_on_c, 0, 53, 64
2, 416937, Note_on_c, 0, 57, 76
2, 416938, Note_on_c, 0, 65, 64
2, 416941, Note_on_c, 0, 48, 60
2, 416943, Note_on_c, 0, 60, 72
2, 417124, Control_c, 0, 64, 96
2, 418342, Note_off_c, 0, 57, 60
2, 418346, Note_off_c, 0, 69, 62
2, 418354, Note_off_c, 0, 48, 56
2, 418446, Note_off_c, 0, 65, 57
2, 418486, Note_off_c, 0, 60, 59
2, 418499, Note_off_c, 0, 53, 57
2, 419205, Control_c, 0, 64, 20
2, 419236, Note_on_c, 0, 70, 90
2, 419238, Note_on_c, 0, 48, 54
2, 419242, Note_on_c, 0, 58, 70
2, 419245, Note_on_c, 0, 67, 70
2, 419247, Note_on_c, 0, 55, 65
2, 419250, Note_on_c, 0, 52, 60
2, 419251, Note_on_c, 0, 64, 78
2, 419252, Note_on_c, 0, 60, 80
2, 419425, Control_c, 0, 64, 96
2, 420553, Note_off_c, 0, 70, 62
2, 420591, Note_off_c, 0, 48, 55
2, 420608, Note_off_c, 0, 58, 57
2, 420664, Note_off_c, 0, 67, 57
2, 420697, Note_off_c, 0, 52, 59
2, 420817, Note_off_c, 0, 55, 56
2, 420899, Note_off_c, 0, 60, 60
2, 420940, Note_off_c, 0, 64, 59
2, 421433, Control_c, 0, 64, 20
2, 421538, Note_on_c, 0, 49, 45
2, 421539, Note_on_c, 0, 69, 66
2, 421548, Note_on_c, 0, 52, 36
2, 421681, Control_c, 0, 64, 96
2, 421730, Note_on_c, 0, 57, 36
2, 421732, Note_off_c, 0, 52, 49
2, 421933, Note_off_c, 0, 57, 49
2, 421934, Note_on_c, 0, 52, 37
2, 422117, Note_off_c, 0, 52, 49
2, 422119, Note_on_c, 0, 57, 38
2, 422319, Note_off_c, 0, 57, 49
2, 422320, Note_on_c, 0, 52, 38
2, 422386, Note_off_c, 0, 49, 51
2, 422503, Note_off_c, 0, 52, 49
2, 422503, Note_on_c, 0, 57, 39
2, 422675, Note_off_c, 0, 69, 56
2, 422686, Note_off_c, 0, 57, 49
2, 422706, Note_on_c, 0, 52, 40
2, 422707, Note_on_c, 0, 49, 54
2, 422708, Note_on_c, 0, 81, 66
2, 422710, Control_c, 0, 64, 20
2, 422879, Note_off_c, 0, 52, 50
2, 422881, Note_on_c, 0, 57, 40
2, 422882, Note_on_c, 0, 79, 66
2, 422886, Control_c, 0, 64, 96
2, 422920, Note_off_c, 0, 81, 56
2, 423000, Note_off_c, 0, 79, 56
2, 423077, Note_off_c, 0, 57, 50
2, 423080, Note_on_c, 0, 53, 41
2, 423081, Note_on_c, 0, 50, 54
2, 423082, Note_on_c, 0, 79, 66
2, 423087, Control_c, 0, 64, 20
2, 423100, Note_off_c, 0, 49, 53
2, 423257, Note_off_c, 0, 53, 50
2, 423261, Note_on_c, 0, 57, 42
2, 423261, Note_on_c, 0, 77, 66
2, 423270, Control_c, 0, 64, 96
2, 423303, Note_off_c, 0, 79, 56
2, 423463, Note_off_c, 0, 57, 50
2, 423467, Note_on_c, 0, 52, 43
2, 423468, Note_on_c, 0, 49, 54
2, 423469, Note_on_c, 0, 81, 66
2, 423475, Control_c, 0, 64, 20
2, 423486, Note_off_c, 0, 50, 53
2, 423503, Note_off_c, 0, 77, 56
2, 423638, Note_off_c, 0, 52, 50
2, 423640, Note_on_c, 0, 57, 43
2, 423641, Note_on_c, 0, 79, 66
2, 423652, Control_c, 0, 64, 96
2, 423680, Note_off_c, 0, 81, 56
2, 423750, Note_off_c, 0, 79, 56
2, 423835, Note_off_c, 0, 57, 50
2, 423837, Note_on_c, 0, 53, 44
2, 423838, Note_on_c, 0, 50, 54
2, 423839, Note_on_c, 0, 79, 66
2, 423840, Control_c, 0, 64, 20
2, 423857, Note_off_c, 0, 49, 53
2, 424016, Note_off_c, 0, 53, 51
2, 424019, Note_on_c, 0, 57, 45
2, 424020, Note_on_c, 0, 77, 66
2, 424021, Control_c, 0, 64, 96
2, 424061, Note_off_c, 0, 79, 56
2, 424222, Note_off_c, 0, 57, 51
2, 424225, Note_on_c, 0, 52, 45
2, 424226, Note_on_c, 0, 49, 54
2, 424227, Note_on_c, 0, 81, 66
2, 424231, Control_c, 0, 64, 20
2, 424247, Note_off_c, 0, 50, 53
2, 424261, Note_off_c, 0, 77, 56
2, 424396, Note_off_c, 0, 52, 51
2, 424399, Note_on_c, 0, 57, 46
2, 424400, Note_on_c, 0, 79, 66
2, 424406, Control_c, 0, 64, 96
2, 424437, Note_off_c, 0, 81, 56
2, 424513, Note_off_c, 0, 79, 56
2, 424589, Note_off_c, 0, 57, 51
2, 424591, Note_on_c, 0, 53, 47
2, 424592, Note_on_c, 0, 50, 54
2, 424593, Note_on_c, 0, 79, 66
2, 424597, Control_c, 0, 64, 20
2, 424612, Note_off_c, 0, 49, 53
2, 424763, Note_off_c, 0, 53, 51
2, 424766, Note_on_c, 0, 57, 48
2, 424766, Note_on_c, 0, 77, 66
2, 424773, Control_c, 0, 64, 96
2, 424807, Note_off_c, 0, 79, 56
2, 424878, Note_off_c, 0, 77, 56
2, 424962, Note_off_c, 0, 57, 52
2, 424965, Note_on_c, 0, 48, 48
2, 424966, Note_on_c, 0, 45, 54
2, 424967, Note_on_c, 0, 77, 66
2, 424968, Control_c, 0, 64, 20
2, 424983, Note_off_c, 0, 50, 53
2, 425137, Note_off_c, 0, 48, 52
2, 425142, Note_on_c, 0, 53, 48
2, 425143, Note_on_c, 0, 75, 66
2, 425147, Control_c, 0, 64, 96
2, 425182, Note_off_c, 0, 77, 56
2, 425253, Note_off_c, 0, 75, 56
2, 425336, Note_off_c, 0, 53, 52
2, 425338, Note_on_c, 0, 50, 49
2, 425339, Note_on_c, 0, 46, 54
2, 425340, Note_on_c, 0, 75, 66
2, 425341, Control_c, 0, 64, 20
2, 425360, Note_off_c, 0, 45, 53
2, 425517, Note_off_c, 0, 50, 52
2, 425520, Note_on_c, 0, 53, 50
2, 425521, Note_on_c, 0, 74, 66
2, 425522, Control_c, 0, 64, 96
2, 425562, Note_off_c, 0, 75, 56
2, 425640, Note_off_c, 0, 74, 56
2, 425719, Note_off_c, 0, 53, 52
2, 425721, Note_on_c, 0, 50, 51
2, 425722, Note_on_c, 0, 42, 54
2, 425723, Note_on_c, 0, 74, 66
2, 425724, Control_c, 0, 64, 20
2, 425742, Note_off_c, 0, 46, 53
2, 425901, Note_off_c, 0, 50, 52
2, 425903, Note_on_c, 0, 54, 52
2, 425904, Note_on_c, 0, 72, 66
2, 425907, Control_c, 0, 64, 96
2, 425947, Note_off_c, 0, 74, 56
2, 426018, Note_off_c, 0, 72, 56
2, 426106, Note_off_c, 0, 54, 53
2, 426109, Note_on_c, 0, 43, 54
2, 426110, Note_on_c, 0, 50, 53
2, 426111, Note_on_c, 0, 72, 66
2, 426118, Control_c, 0, 64, 20
2, 426132, Note_off_c, 0, 42, 53
2, 426292, Note_off_c, 0, 50, 53
2, 426294, Note_on_c, 0, 55, 54
2, 426295, Note_on_c, 0, 70, 66
2, 426303, Control_c, 0, 64, 96
2, 426323, Note_off_c, 0, 72, 56
2, 426498, Note_off_c, 0, 55, 53
2, 426504, Note_on_c, 0, 41, 55
2, 426505, Note_on_c, 0, 50, 55
2, 426506, Note_on_c, 0, 62, 59
2, 426506, Note_on_c, 0, 72, 67
2, 426507, Control_c, 0, 64, 20
2, 426523, Note_off_c, 0, 43, 53
2, 426527, Note_off_c, 0, 70, 56
2, 426686, Note_off_c, 0, 50, 53
2, 426687, Note_off_c, 0, 62, 54
2, 426688, Note_on_c, 0, 53, 55
2, 426689, Note_on_c, 0, 67, 59
2, 426690, Note_on_c, 0, 71, 67
2, 426693, Control_c, 0, 64, 96
2, 426714, Note_off_c, 0, 72, 57
2, 426889, Note_off_c, 0, 53, 53
2, 426890, Note_off_c, 0, 67, 54
2, 426895, Control_c, 0, 64, 20
2, 426896, Note_on_c, 0, 40, 56
2, 426897, Note_on_c, 0, 64, 60
2, 426898, Note_on_c, 0, 74, 68
2, 426918, Note_off_c, 0, 41, 53
2, 426919, Note_off_c, 0, 71, 57
2, 427076, Note_off_c, 0, 64, 55
2, 427078, Note_on_c, 0, 52, 56
2, 427079, Note_on_c, 0, 67, 60
2, 427080, Note_on_c, 0, 72, 68
2, 427081, Control_c, 0, 64, 96
2, 427104, Note_off_c, 0, 74, 57
2, 427274, Note_off_c, 0, 52, 54
2, 427277, Note_off_c, 0, 67, 55
2, 427281, Note_on_c, 0, 38, 57
2, 427282, Note_on_c, 0, 65, 61
2, 427283, Note_on_c, 0, 76, 69
2, 427284, Control_c, 0, 64, 20
2, 427302, Note_off_c, 0, 40, 54
2, 427304, Note_off_c, 0, 72, 57
2, 427456, Note_off_c, 0, 65, 55
2, 427461, Note_on_c, 0, 50, 57
2, 427462, Note_on_c, 0, 71, 61
2, 427463, Note_on_c, 0, 74, 69
2, 427465, Control_c, 0, 64, 96
2, 427486, Note_off_c, 0, 76, 57
2, 427654, Note_off_c, 0, 50, 54
2, 427657, Note_off_c, 0, 71, 55
2, 427660, Note_on_c, 0, 36, 58
2, 427661, Note_on_c, 0, 67, 62
2, 427661, Note_on_c, 0, 77, 70
2, 427669, Control_c, 0, 64, 20
2, 427683, Note_off_c, 0, 38, 54
2, 427684, Note_off_c, 0, 74, 57
2, 427835, Note_off_c, 0, 67, 55
2, 427837, Note_on_c, 0, 48, 58
2, 427838, Note_on_c, 0, 72, 62
2, 427839, Note_on_c, 0, 75, 70
2, 427849, Control_c, 0, 64, 96
2, 427863, Note_off_c, 0, 77, 57
2, 428028, Note_off_c, 0, 48, 54
2, 428030, Note_off_c, 0, 72, 55
2, 428033, Note_on_c, 0, 34, 59
2, 428034, Note_on_c, 0, 67, 63
2, 428035, Note_on_c, 0, 77, 71
2, 428044, Control_c, 0, 64, 20
2, 428055, Note_off_c, 0, 75, 57
2, 428055, Note_off_c, 0, 36, 54
2, 428203, Note_off_c, 0, 67, 55
2, 428208, Note_on_c, 0, 46, 60
2, 428209, Note_on_c, 0, 72, 64
2, 428210, Note_on_c, 0, 76, 72
2, 428219, Control_c, 0, 64, 96
2, 428233, Note_off_c, 0, 77, 58
2, 428397, Note_off_c, 0, 46, 55
2, 428399, Note_off_c, 0, 72, 56
2, 428402, Note_on_c, 0, 33, 60
2, 428403, Note_on_c, 0, 69, 64
2, 428404, Note_on_c, 0, 79, 72
2, 428407, Control_c, 0, 64, 20
2, 428423, Note_off_c, 0, 34, 54
2, 428424, Note_off_c, 0, 76, 58
2, 428573, Note_off_c, 0, 69, 56
2, 428577, Note_on_c, 0, 45, 61
2, 428578, Note_on_c, 0, 72, 65
2, 428579, Note_on_c, 0, 77, 73
2, 428582, Control_c, 0, 64, 96
2, 428599, Note_off_c, 0, 33, 55
2, 428601, Note_off_c, 0, 79, 58
2, 428765, Note_off_c, 0, 72, 56
2, 428769, Note_on_c, 0, 34, 61
2, 428770, Note_on_c, 0, 65, 65
2, 428771, Note_on_c, 0, 76, 73
2, 428773, Control_c, 0, 64, 20
2, 428789, Note_off_c, 0, 45, 55
2, 428794, Note_off_c, 0, 77, 58
2, 428941, Note_off_c, 0, 65, 56
2, 428945, Note_on_c, 0, 46, 62
2, 428946, Note_on_c, 0, 70, 66
2, 428947, Note_on_c, 0, 74, 74
2, 428949, Control_c, 0, 64, 96
2, 428967, Note_off_c, 0, 34, 55
2, 428969, Note_off_c, 0, 76, 58
2, 429087, Note_off_c, 0, 74, 59
2, 429102, Note_off_c, 0, 70, 56
2, 429127, Note_off_c, 0, 46, 55
2, 429138, Note_on_c, 0, 36, 62
2, 429138, Note_on_c, 0, 65, 66
2, 429139, Note_on_c, 0, 74, 74
2, 429146, Control_c, 0, 64, 20
2, 429314, Note_off_c, 0, 65, 56
2, 429320, Note_on_c, 0, 48, 63
2, 429321, Note_on_c, 0, 69, 67
2, 429322, Note_on_c, 0, 72, 75
2, 429325, Control_c, 0, 64, 96
2, 429341, Note_off_c, 0, 36, 55
2, 429345, Note_off_c, 0, 74, 59
2, 429513, Note_off_c, 0, 69, 57
2, 429518, Note_on_c, 0, 36, 63
2, 429519, Note_on_c, 0, 65, 67
2, 429520, Note_on_c, 0, 74, 75
2, 429537, Note_off_c, 0, 48, 55
2, 429542, Note_off_c, 0, 72, 59
2, 429695, Note_off_c, 0, 65, 57
2, 429700, Note_on_c, 0, 48, 64
2, 429701, Note_on_c, 0, 69, 68
2, 429702, Note_on_c, 0, 72, 76
2, 429722, Note_off_c, 0, 36, 55
2, 429724, Note_off_c, 0, 74, 59
2, 429845, Note_off_c, 0, 72, 59
2, 429859, Note_off_c, 0, 69, 57
2, 429885, Note_off_c, 0, 48, 56
2, 429897, Note_on_c, 0, 36, 64
2, 429898, Note_on_c, 0, 64, 68
2, 429898, Note_on_c, 0, 72, 76
2, 429904, Control_c, 0, 64, 20
2, 430080, Note_off_c, 0, 64, 57
2, 430084, Note_on_c, 0, 48, 65
2, 430085, Note_on_c, 0, 67, 69
2, 430086, Note_on_c, 0, 70, 77
2, 430088, Control_c, 0, 64, 96
2, 430107, Note_off_c, 0, 36, 56
2, 430110, Note_off_c, 0, 72, 59
2, 430268, Note_off_c, 0, 67, 57
2, 430271, Note_on_c, 0, 36, 66
2, 430272, Note_on_c, 0, 64, 70
2, 430273, Note_on_c, 0, 72, 78
2, 430291, Note_off_c, 0, 48, 56
2, 430296, Note_off_c, 0, 70, 59
2, 430471, Note_off_c, 0, 64, 57
2, 430474, Note_on_c, 0, 48, 66
2, 430475, Note_on_c, 0, 67, 70
2, 430476, Note_on_c, 0, 70, 78
2, 430499, Note_off_c, 0, 36, 56
2, 430501, Note_off_c, 0, 72, 59
2, 430600, Note_off_c, 0, 67, 57
2, 430621, Note_off_c, 0, 48, 56
2, 430622, Note_off_c, 0, 70, 59
2, 430651, Note_on_c, 0, 69, 54
2, 430660, Note_on_c, 0, 64, 38
2, 430661, Note_on_c, 0, 37, 42
2, 430662, Note_on_c, 0, 67, 46
2, 430671, Control_c, 0, 64, 20
2, 430858, Control_c, 0, 64, 96
2, 430864, Note_on_c, 0, 45, 42
2, 431048, Note_off_c, 0, 45, 50
2, 431050, Note_on_c, 0, 49, 42
2, 431249, Note_off_c, 0, 49, 50
2, 431250, Note_on_c, 0, 45, 42
2, 431426, Note_off_c, 0, 45, 50
2, 431430, Note_on_c, 0, 49, 42
2, 431623, Note_off_c, 0, 49, 50
2, 431623, Note_on_c, 0, 45, 42
2, 431636, Note_off_c, 0, 37, 50
2, 431638, Note_off_c, 0, 69, 53
2, 431779, Note_off_c, 0, 67, 51
2, 431781, Note_off_c, 0, 45, 50
2, 431782, Note_off_c, 0, 64, 49
2, 431800, Note_on_c, 0, 69, 44
2, 431801, Note_on_c, 0, 81, 54
2, 431802, Control_c, 0, 64, 20
2, 431803, Note_on_c, 0, 37, 36
2, 431804, Note_on_c, 0, 49, 42
2, 431978, Control_c, 0, 64, 96
2, 431991, Note_off_c, 0, 69, 51
2, 431992, Note_on_c, 0, 79, 54
2, 431996, Note_on_c, 0, 76, 44
2, 431998, Note_on_c, 0, 45, 42
2, 432033, Note_off_c, 0, 49, 50
2, 432065, Note_off_c, 0, 81, 53
2, 432093, Note_off_c, 0, 79, 53
2, 432136, Note_off_c, 0, 76, 51
2, 432169, Note_on_c, 0, 79, 54
2, 432170, Note_on_c, 0, 50, 42
2, 432171, Note_on_c, 0, 38, 36
2, 432174, Note_off_c, 0, 37, 49
2, 432176, Note_on_c, 0, 69, 44
2, 432180, Control_c, 0, 64, 20
2, 432207, Note_off_c, 0, 45, 50
2, 432363, Control_c, 0, 64, 96
2, 432368, Note_on_c, 0, 77, 54
2, 432369, Note_on_c, 0, 74, 44
2, 432374, Note_on_c, 0, 45, 42
2, 432376, Note_off_c, 0, 69, 51
2, 432404, Note_off_c, 0, 50, 50
2, 432424, Note_off_c, 0, 79, 53
2, 432554, Note_off_c, 0, 38, 49
2, 432555, Note_off_c, 0, 74, 51
2, 432557, Note_on_c, 0, 69, 44
2, 432560, Note_on_c, 0, 37, 36
2, 432566, Note_on_c, 0, 49, 42
2, 432567, Note_on_c, 0, 81, 54
2, 432569, Control_c, 0, 64, 20
2, 432592, Note_off_c, 0, 45, 50
2, 432604, Note_off_c, 0, 77, 53
2, 432744, Control_c, 0, 64, 96
2, 432745, Note_off_c, 0, 69, 51
2, 432748, Note_on_c, 0, 79, 54
2, 432750, Note_on_c, 0, 45, 42
2, 432755, Note_on_c, 0, 76, 44
2, 432790, Note_off_c, 0, 49, 50
2, 432809, Note_off_c, 0, 81, 53
2, 432872, Note_off_c, 0, 79, 53
2, 432895, Note_off_c, 0, 76, 51
2, 432925, Note_on_c, 0, 50, 42
2, 432927, Note_off_c, 0, 37, 49
2, 432930, Note_on_c, 0, 69, 44
2, 432933, Control_c, 0, 64, 20
2, 432934, Note_on_c, 0, 79, 54
2, 432935, Note_on_c, 0, 38, 36
2, 432960, Note_off_c, 0, 45, 50
2, 433115, Control_c, 0, 64, 96
2, 433127, Note_on_c, 0, 74, 44
2, 433128, Note_off_c, 0, 69, 51
2, 433128, Note_on_c, 0, 45, 42
2, 433130, Note_on_c, 0, 77, 54
2, 433162, Note_off_c, 0, 50, 50
2, 433170, Note_off_c, 0, 79, 53
2, 433310, Note_off_c, 0, 74, 51
2, 433313, Note_on_c, 0, 37, 36
2, 433318, Note_off_c, 0, 38, 49
2, 433320, Note_on_c, 0, 81, 54
2, 433321, Control_c, 0, 64, 20
2, 433322, Note_on_c, 0, 49, 42
2, 433323, Note_on_c, 0, 69, 44
2, 433344, Note_off_c, 0, 45, 50
2, 433350, Note_off_c, 0, 77, 53
2, 433495, Control_c, 0, 64, 96
2, 433507, Note_on_c, 0, 79, 54
2, 433511, Note_on_c, 0, 45, 42
2, 433512, Note_off_c, 0, 69, 51
2, 433514, Note_on_c, 0, 76, 44
2, 433544, Note_off_c, 0, 81, 53
2, 433545, Note_off_c, 0, 49, 50
2, 433619, Note_off_c, 0, 79, 53
2, 433652, Note_off_c, 0, 76, 51
2, 433679, Note_off_c, 0, 37, 49
2, 433685, Note_on_c, 0, 79, 54
2, 433691, Note_on_c, 0, 69, 44
2, 433692, Note_on_c, 0, 50, 42
2, 433693, Note_on_c, 0, 38, 36
2, 433696, Control_c, 0, 64, 20
2, 433719, Note_off_c, 0, 45, 50
2, 433875, Control_c, 0, 64, 96
2, 433880, Note_on_c, 0, 77, 54
2, 433886, Note_on_c, 0, 74, 44
2, 433888, Note_off_c, 0, 69, 51
2, 433889, Note_on_c, 0, 45, 42
2, 433922, Note_off_c, 0, 50, 50
2, 433932, Note_off_c, 0, 79, 53
2, 433997, Note_off_c, 0, 77, 53
2, 434022, Note_off_c, 0, 45, 50
2, 434030, Note_off_c, 0, 74, 51
2, 434049, Note_off_c, 0, 38, 49
2, 434061, Note_on_c, 0, 33, 36
2, 434063, Note_on_c, 0, 45, 42
2, 434064, Note_on_c, 0, 65, 44
2, 434065, Note_on_c, 0, 77, 54
2, 434069, Control_c, 0, 64, 20
2, 434256, Control_c, 0, 64, 96
2, 434267, Note_off_c, 0, 65, 51
2, 434273, Note_on_c, 0, 72, 44
2, 434274, Note_on_c, 0, 41, 42
2, 434277, Note_on_c, 0, 75, 54
2, 434311, Note_off_c, 0, 45, 50
2, 434333, Note_off_c, 0, 77, 53
2, 434406, Note_off_c, 0, 75, 53
2, 434422, Note_off_c, 0, 72, 51
2, 434452, Note_off_c, 0, 33, 49
2, 434459, Note_on_c, 0, 34, 36
2, 434462, Note_on_c, 0, 75, 54
2, 434464, Note_on_c, 0, 65, 44
2, 434467, Control_c, 0, 64, 20
2, 434468, Note_on_c, 0, 46, 42
2, 434496, Note_off_c, 0, 41, 50
2, 434642, Control_c, 0, 64, 96
2, 434649, Note_on_c, 0, 41, 42
2, 434652, Note_on_c, 0, 70, 44
2, 434656, Note_on_c, 0, 74, 54
2, 434657, Note_off_c, 0, 65, 51
2, 434696, Note_off_c, 0, 46, 50
2, 434709, Note_off_c, 0, 75, 53
2, 434761, Note_off_c, 0, 74, 53
2, 434790, Note_off_c, 0, 70, 51
2, 434827, Note_off_c, 0, 34, 49
2, 434827, Note_on_c, 0, 42, 42
2, 434829, Note_on_c, 0, 30, 36
2, 434829, Note_on_c, 0, 74, 54
2, 434834, Control_c, 0, 64, 20
2, 434836, Note_on_c, 0, 62, 44
2, 434861, Note_off_c, 0, 41, 50
2, 435014, Control_c, 0, 64, 96
2, 435025, Note_on_c, 0, 69, 44
2, 435026, Note_on_c, 0, 38, 42
2, 435028, Note_on_c, 0, 72, 54
2, 435032, Note_off_c, 0, 62, 51
2, 435062, Note_off_c, 0, 42, 50
2, 435066, Note_off_c, 0, 74, 53
2, 435144, Note_off_c, 0, 72, 53
2, 435167, Note_off_c, 0, 69, 51
2, 435202, Note_off_c, 0, 30, 49
2, 435205, Note_on_c, 0, 72, 54
2, 435209, Note_on_c, 0, 62, 44
2, 435211, Note_on_c, 0, 31, 42
2, 435218, Control_c, 0, 64, 20
2, 435243, Note_off_c, 0, 38, 50
2, 435403, Control_c, 0, 64, 96
2, 435410, Note_off_c, 0, 62, 51
2, 435412, Note_on_c, 0, 70, 55
2, 435413, Note_on_c, 0, 67, 45
2, 435414, Note_on_c, 0, 43, 43
2, 435448, Note_off_c, 0, 72, 53
2, 435476, Note_off_c, 0, 31, 50
2, 435595, Note_off_c, 0, 67, 51
2, 435597, Note_on_c, 0, 62, 47
2, 435598, Note_on_c, 0, 72, 57
2, 435599, Note_on_c, 0, 29, 45
2, 435602, Control_c, 0, 64, 20
2, 435637, Note_off_c, 0, 70, 53
2, 435646, Note_off_c, 0, 43, 50
2, 435789, Control_c, 0, 64, 96
2, 435796, Note_off_c, 0, 62, 51
2, 435798, Note_on_c, 0, 67, 48
2, 435799, Note_on_c, 0, 41, 46
2, 435805, Note_on_c, 0, 71, 58
2, 435842, Note_off_c, 0, 72, 54
2, 435849, Note_off_c, 0, 29, 51
2, 435981, Note_off_c, 0, 67, 52
2, 435985, Note_on_c, 0, 74, 60
2, 435986, Note_on_c, 0, 64, 50
2, 435988, Note_on_c, 0, 40, 48
2, 435992, Control_c, 0, 64, 20
2, 436027, Note_off_c, 0, 71, 54
2, 436028, Note_off_c, 0, 41, 51
2, 436176, Control_c, 0, 64, 96
2, 436185, Note_off_c, 0, 64, 52
2, 436190, Note_on_c, 0, 67, 51
2, 436193, Note_on_c, 0, 52, 49
2, 436195, Note_on_c, 0, 72, 61
2, 436229, Note_off_c, 0, 74, 55
2, 436239, Note_off_c, 0, 40, 52
2, 436371, Note_off_c, 0, 67, 52
2, 436372, Note_on_c, 0, 38, 51
2, 436373, Note_on_c, 0, 76, 63
2, 436379, Control_c, 0, 64, 20
2, 436380, Note_on_c, 0, 65, 53
2, 436417, Note_off_c, 0, 72, 55
2, 436422, Note_off_c, 0, 52, 52
2, 436560, Control_c, 0, 64, 96
2, 436571, Note_on_c, 0, 50, 52
2, 436572, Note_on_c, 0, 71, 54
2, 436574, Note_off_c, 0, 65, 53
2, 436579, Note_on_c, 0, 74, 64
2, 436612, Note_off_c, 0, 76, 55
2, 436617, Note_off_c, 0, 38, 52
2, 436749, Note_off_c, 0, 71, 53
2, 436755, Note_on_c, 0, 67, 56
2, 436756, Note_on_c, 0, 77, 66
2, 436757, Note_on_c, 0, 36, 54
2, 436760, Control_c, 0, 64, 20
2, 436798, Note_off_c, 0, 50, 53
2, 436799, Note_off_c, 0, 74, 56
2, 436940, Control_c, 0, 64, 96
2, 436950, Note_off_c, 0, 67, 54
2, 436955, Note_on_c, 0, 48, 55
2, 436957, Note_on_c, 0, 75, 67
2, 436958, Note_on_c, 0, 72, 57
2, 436996, Note_off_c, 0, 77, 56
2, 437002, Note_off_c, 0, 36, 53
2, 437132, Note_on_c, 0, 34, 57
2, 437134, Note_off_c, 0, 72, 54
2, 437136, Control_c, 0, 64, 20
2, 437137, Note_on_c, 0, 67, 59
2, 437138, Note_on_c, 0, 77, 69
2, 437173, Note_off_c, 0, 75, 57
2, 437179, Note_off_c, 0, 48, 53
2, 437313, Control_c, 0, 64, 96
2, 437325, Note_on_c, 0, 72, 60
2, 437328, Note_off_c, 0, 67, 54
2, 437329, Note_on_c, 0, 76, 70
2, 437332, Note_on_c, 0, 46, 58
2, 437373, Note_off_c, 0, 34, 54
2, 437373, Note_off_c, 0, 77, 57
2, 437499, Note_off_c, 0, 72, 55
2, 437508, Note_on_c, 0, 79, 72
2, 437512, Note_on_c, 0, 33, 60
2, 437515, Note_on_c, 0, 69, 62
2, 437515, Control_c, 0, 64, 20
2, 437544, Note_off_c, 0, 76, 57
2, 437554, Note_off_c, 0, 46, 54
2, 437691, Control_c, 0, 64, 96
2, 437702, Note_on_c, 0, 45, 61
2, 437703, Note_on_c, 0, 77, 73
2, 437704, Note_on_c, 0, 72, 63
2, 437705, Note_off_c, 0, 69, 55
2, 437743, Note_off_c, 0, 79, 58
2, 437753, Note_off_c, 0, 33, 55
2, 437876, Note_off_c, 0, 72, 55
2, 437877, Note_on_c, 0, 70, 65
2, 437879, Note_on_c, 0, 81, 75
2, 437881, Note_on_c, 0, 31, 63
2, 437886, Control_c, 0, 64, 20
2, 437912, Note_off_c, 0, 77, 58
2, 437919, Note_off_c, 0, 45, 55
2, 438063, Control_c, 0, 64, 96
2, 438064, Note_off_c, 0, 70, 56
2, 438069, Note_on_c, 0, 79, 76
2, 438071, Note_on_c, 0, 43, 64
2, 438075, Note_on_c, 0, 76, 66
2, 438107, Note_off_c, 0, 81, 59
2, 438117, Note_off_c, 0, 31, 55
2, 438241, Note_on_c, 0, 82, 78
2, 438243, Note_on_c, 0, 72, 68
2, 438244, Note_on_c, 0, 29, 66
2, 438246, Note_off_c, 0, 76, 56
2, 438253, Control_c, 0, 64, 20
2, 438281, Note_off_c, 0, 79, 59
2, 438290, Note_off_c, 0, 43, 56
2, 438427, Control_c, 0, 64, 96
2, 438430, Note_off_c, 0, 72, 57
2, 438435, Note_on_c, 0, 41, 67
2, 438436, Note_on_c, 0, 77, 69
2, 438439, Note_on_c, 0, 81, 79
2, 438470, Note_off_c, 0, 82, 59
2, 438479, Note_off_c, 0, 29, 56
2, 438603, Note_off_c, 0, 77, 57
2, 438604, Note_on_c, 0, 82, 81
2, 438606, Note_on_c, 0, 72, 71
2, 438607, Note_on_c, 0, 39, 69
2, 438614, Control_c, 0, 64, 20
2, 438647, Note_off_c, 0, 81, 60
2, 438649, Note_off_c, 0, 41, 57
2, 438785, Control_c, 0, 64, 96
2, 438790, Note_off_c, 0, 72, 58
2, 438794, Note_on_c, 0, 51, 70
2, 438796, Note_on_c, 0, 77, 72
2, 438799, Note_on_c, 0, 81, 82
2, 438829, Note_off_c, 0, 82, 60
2, 438838, Note_off_c, 0, 39, 57
2, 438963, Note_on_c, 0, 38, 72
2, 438965, Note_off_c, 0, 77, 58
2, 438972, Control_c, 0, 64, 20
2, 438974, Note_on_c, 0, 74, 74
2, 438975, Note_on_c, 0, 84, 84
2, 439007, Note_off_c, 0, 81, 60
2, 439008, Note_off_c, 0, 51, 57
2, 439135, Note_on_c, 0, 82, 85
2, 439139, Note_on_c, 0, 50, 73
2, 439140, Note_on_c, 0, 77, 75
2, 439141, Note_off_c, 0, 74, 59
2, 439142, Control_c, 0, 64, 96
2, 439176, Note_off_c, 0, 38, 58
2, 439179, Note_off_c, 0, 84, 61
2, 439320, Note_on_c, 0, 36, 75
2, 439321, Note_off_c, 0, 77, 59
2, 439322, Note_on_c, 0, 86, 87
2, 439323, Note_on_c, 0, 75, 77
2, 439334, Control_c, 0, 64, 20
2, 439355, Note_off_c, 0, 82, 61
2, 439367, Note_off_c, 0, 50, 58
2, 439486, Note_off_c, 0, 75, 59
2, 439490, Note_on_c, 0, 84, 88
2, 439493, Note_on_c, 0, 48, 76
2, 439497, Note_on_c, 0, 81, 78
2, 439503, Control_c, 0, 64, 96
2, 439525, Note_off_c, 0, 86, 61
2, 439529, Note_off_c, 0, 36, 59
2, 439673, Note_on_c, 0, 87, 84
2, 439674, Note_on_c, 0, 46, 88
2, 439675, Note_off_c, 0, 48, 59
2, 439677, Note_off_c, 0, 81, 59
2, 439678, Note_on_c, 0, 77, 74
2, 439686, Note_on_c, 0, 34, 78
2, 439692, Control_c, 0, 64, 20
2, 439709, Note_off_c, 0, 84, 62
2, 439844, Note_off_c, 0, 77, 59
2, 439844, Note_on_c, 0, 82, 74
2, 439845, Note_on_c, 0, 86, 84
2, 439861, Control_c, 0, 64, 96
2, 439876, Note_off_c, 0, 87, 61
2, 440027, Note_off_c, 0, 82, 59
2, 440031, Note_on_c, 0, 87, 84
2, 440032, Note_on_c, 0, 77, 74
2, 440069, Note_off_c, 0, 86, 61
2, 440204, Note_off_c, 0, 77, 59
2, 440207, Note_on_c, 0, 86, 84
2, 440208, Note_on_c, 0, 82, 74
2, 440239, Note_off_c, 0, 87, 61
2, 440390, Note_on_c, 0, 87, 84
2, 440392, Note_on_c, 0, 77, 74
2, 440393, Note_off_c, 0, 82, 59
2, 440435, Note_off_c, 0, 86, 61
2, 440568, Note_off_c, 0, 77, 59
2, 440569, Note_on_c, 0, 86, 84
2, 440571, Note_on_c, 0, 82, 74
2, 440604, Note_off_c, 0, 87, 61
2, 440764, Note_off_c, 0, 82, 59
2, 440768, Note_on_c, 0, 77, 74
2, 440772, Note_on_c, 0, 87, 84
2, 440803, Note_off_c, 0, 86, 61
2, 440948, Note_on_c, 0, 82, 74
2, 440950, Note_on_c, 0, 86, 84
2, 440951, Note_off_c, 0, 77, 59
2, 440992, Note_off_c, 0, 87, 61
2, 441146, Note_off_c, 0, 82, 59
2, 441149, Note_on_c, 0, 77, 74
2, 441155, Note_on_c, 0, 87, 84
2, 441191, Note_off_c, 0, 86, 61
2, 441334, Note_off_c, 0, 77, 59
2, 441345, Note_on_c, 0, 86, 84
2, 441346, Note_on_c, 0, 82, 74
2, 441380, Note_off_c, 0, 34, 59
2, 441380, Note_off_c, 0, 87, 61
2, 441548, Note_off_c, 0, 82, 59
2, 441549, Note_on_c, 0, 77, 74
2, 441551, Note_on_c, 0, 87, 84
2, 441593, Note_off_c, 0, 86, 61
2, 441739, Note_off_c, 0, 77, 59
2, 441741, Note_on_c, 0, 82, 74
2, 441744, Note_on_c, 0, 86, 84
2, 441784, Note_off_c, 0, 87, 61
2, 441949, Note_off_c, 0, 46, 62
2, 441950, Note_off_c, 0, 82, 59
2, 441954, Note_on_c, 0, 47, 88
2, 441959, Note_on_c, 0, 88, 84
2, 441960, Note_on_c, 0, 77, 74
2, 441972, Note_on_c, 0, 35, 78
2, 441974, Control_c, 0, 64, 20
2, 441996, Note_off_c, 0, 86, 61
2, 442127, Note_on_c, 0, 86, 84
2, 442131, Note_off_c, 0, 77, 59
2, 442134, Note_on_c, 0, 80, 74
2, 442150, Control_c, 0, 64, 96
2, 442168, Note_off_c, 0, 88, 61
2, 442323, Note_off_c, 0, 80, 59
2, 442324, Note_on_c, 0, 88, 84
2, 442325, Note_on_c, 0, 77, 74
2, 442358, Note_off_c, 0, 86, 61
2, 442503, Note_off_c, 0, 77, 59
2, 442503, Note_on_c, 0, 80, 74
2, 442505, Note_on_c, 0, 86, 84
2, 442538, Note_off_c, 0, 88, 61
2, 442696, Note_off_c, 0, 80, 59
2, 442699, Note_on_c, 0, 88, 84
2, 442703, Note_on_c, 0, 77, 74
2, 442742, Note_off_c, 0, 86, 61
2, 442885, Note_off_c, 0, 77, 59
2, 442885, Note_on_c, 0, 86, 80
2, 442886, Note_on_c, 0, 80, 70
2, 442919, Note_off_c, 0, 88, 61
2, 443082, Note_on_c, 0, 77, 65
2, 443083, Note_on_c, 0, 88, 75
2, 443084, Note_off_c, 0, 80, 57
2, 443127, Note_off_c, 0, 86, 60
2, 443131, Note_off_c, 0, 35, 59
2, 443248, Note_off_c, 0, 47, 62
2, 443266, Note_off_c, 0, 77, 56
2, 443269, Note_on_c, 0, 86, 71
2, 443271, Note_on_c, 0, 80, 61
2, 443306, Note_off_c, 0, 88, 59
2, 443472, Note_off_c, 0, 80, 55
2, 443473, Note_on_c, 0, 77, 56
2, 443479, Note_on_c, 0, 88, 66
2, 443481, Note_on_c, 0, 35, 66
2, 443486, Control_c, 0, 64, 20
2, 443516, Note_off_c, 0, 86, 58
2, 443661, Note_off_c, 0, 77, 54
2, 443668, Note_on_c, 0, 86, 62
2, 443670, Note_on_c, 0, 80, 52
2, 443675, Control_c, 0, 64, 96
2, 443708, Note_off_c, 0, 88, 56
2, 443874, Note_on_c, 0, 77, 47
2, 443875, Note_on_c, 0, 88, 57
2, 443878, Note_off_c, 0, 80, 53
2, 443921, Note_off_c, 0, 86, 55
2, 444066, Note_off_c, 0, 77, 51
2, 444071, Note_on_c, 0, 86, 53
2, 444072, Note_on_c, 0, 80, 43
2, 444109, Note_off_c, 0, 88, 54
2, 444235, Note_off_c, 0, 86, 53
2, 444244, Note_off_c, 0, 80, 50
2, 444251, Note_off_c, 0, 35, 56
2, 444285, Note_on_c, 0, 86, 54
2, 444286, Note_on_c, 0, 36, 45
2, 444287, Note_on_c, 0, 77, 44
2, 444292, Control_c, 0, 64, 20
2, 444460, Note_on_c, 0, 84, 54
2, 444461, Note_on_c, 0, 81, 44
2, 444465, Note_off_c, 0, 77, 51
2, 444469, Control_c, 0, 64, 96
2, 444480, Note_off_c, 0, 86, 53
2, 444651, Note_off_c, 0, 81, 51
2, 444653, Note_on_c, 0, 77, 44
2, 444658, Note_on_c, 0, 86, 54
2, 444672, Note_off_c, 0, 84, 53
2, 444831, Note_off_c, 0, 77, 51
2, 444832, Note_on_c, 0, 81, 44
2, 444833, Note_on_c, 0, 84, 54
2, 444855, Note_off_c, 0, 86, 53
2, 445025, Note_off_c, 0, 81, 51
2, 445027, Note_on_c, 0, 72, 44
2, 445029, Note_on_c, 0, 82, 54
2, 445039, Control_c, 0, 64, 20
2, 445048, Note_off_c, 0, 84, 53
2, 445207, Note_on_c, 0, 81, 54
2, 445209, Note_off_c, 0, 72, 51
2, 445212, Note_on_c, 0, 77, 44
2, 445222, Control_c, 0, 64, 96
2, 445229, Note_off_c, 0, 82, 53
2, 445409, Note_off_c, 0, 77, 51
2, 445410, Note_on_c, 0, 38, 51
2, 445412, Note_on_c, 0, 82, 54
2, 445414, Note_on_c, 0, 72, 44
2, 445429, Note_off_c, 0, 81, 53
2, 445449, Note_off_c, 0, 36, 51
2, 445597, Note_off_c, 0, 72, 51
2, 445598, Note_on_c, 0, 81, 54
2, 445599, Note_on_c, 0, 40, 51
2, 445606, Note_on_c, 0, 77, 44
2, 445616, Note_off_c, 0, 82, 53
2, 445629, Note_off_c, 0, 38, 52
2, 445805, Note_on_c, 0, 79, 54
2, 445807, Note_off_c, 0, 77, 51
2, 445809, Note_on_c, 0, 41, 53
2, 445810, Note_on_c, 0, 69, 44
2, 445818, Control_c, 0, 64, 20
2, 445822, Note_off_c, 0, 81, 53
2, 445840, Note_off_c, 0, 40, 52
2, 445996, Note_off_c, 0, 69, 51
2, 445997, Note_on_c, 0, 72, 44
2, 445998, Note_on_c, 0, 43, 53
2, 446000, Note_on_c, 0, 77, 54
2, 446006, Control_c, 0, 64, 96
2, 446015, Note_off_c, 0, 79, 53
2, 446031, Note_off_c, 0, 41, 53
2, 446201, Note_off_c, 0, 72, 51
2, 446205, Note_on_c, 0, 79, 54
2, 446206, Note_on_c, 0, 45, 55
2, 446209, Note_on_c, 0, 69, 44
2, 446229, Note_off_c, 0, 77, 53
2, 446245, Note_off_c, 0, 43, 53
2, 446398, Note_on_c, 0, 72, 44
2, 446401, Note_off_c, 0, 69, 51
2, 446402, Note_on_c, 0, 77, 54
2, 446403, Note_on_c, 0, 47, 57
2, 446417, Note_off_c, 0, 79, 53
2, 446433, Note_off_c, 0, 45, 53
2, 446552, Note_off_c, 0, 47, 54
2, 446606, Note_on_c, 0, 84, 54
2, 446609, Note_off_c, 0, 72, 51
2, 446610, Note_on_c, 0, 76, 44
2, 446616, Note_on_c, 0, 48, 50
2, 446623, Control_c, 0, 64, 20
2, 446630, Note_off_c, 0, 77, 53
2, 446784, Note_on_c, 0, 82, 54
2, 446785, Note_on_c, 0, 79, 44
2, 446786, Note_off_c, 0, 76, 51
2, 446799, Control_c, 0, 64, 96
2, 446822, Note_off_c, 0, 84, 53
2, 446971, Note_on_c, 0, 84, 54
2, 446972, Note_off_c, 0, 79, 51
2, 446982, Note_on_c, 0, 76, 44
2, 447020, Note_off_c, 0, 82, 53
2, 447145, Note_on_c, 0, 82, 54
2, 447159, Note_off_c, 0, 76, 51
2, 447162, Note_on_c, 0, 79, 44
2, 447190, Note_off_c, 0, 84, 53
2, 447344, Note_on_c, 0, 81, 54
2, 447353, Note_off_c, 0, 79, 51
2, 447360, Note_on_c, 0, 70, 44
2, 447362, Control_c, 0, 64, 20
2, 447386, Note_off_c, 0, 82, 53
2, 447526, Note_on_c, 0, 79, 54
2, 447533, Note_on_c, 0, 76, 44
2, 447543, Note_off_c, 0, 70, 51
2, 447544, Note_on_c, 0, 50, 45
2, 447545, Control_c, 0, 64, 96
2, 447570, Note_off_c, 0, 81, 53
2, 447731, Note_off_c, 0, 76, 51
2, 447732, Note_on_c, 0, 81, 54
2, 447738, Note_on_c, 0, 52, 47
2, 447743, Note_on_c, 0, 70, 44
2, 447760, Note_off_c, 0, 50, 51
2, 447773, Note_off_c, 0, 79, 53
2, 447918, Note_on_c, 0, 79, 54
2, 447925, Note_on_c, 0, 76, 44
2, 447927, Note_off_c, 0, 70, 51
2, 447932, Note_on_c, 0, 53, 49
2, 447939, Note_off_c, 0, 52, 51
2, 447962, Note_off_c, 0, 81, 53
2, 448023, Note_off_c, 0, 48, 52
2, 448106, Note_on_c, 0, 77, 54
2, 448108, Note_off_c, 0, 76, 51
2, 448113, Note_on_c, 0, 67, 44
2, 448116, Note_on_c, 0, 55, 51
2, 448118, Note_on_c, 0, 48, 48
2, 448126, Control_c, 0, 64, 20
2, 448137, Note_off_c, 0, 53, 52
2, 448149, Note_off_c, 0, 79, 53
2, 448308, Note_on_c, 0, 76, 54
2, 448316, Control_c, 0, 64, 96
2, 448321, Note_off_c, 0, 67, 51
2, 448324, Note_on_c, 0, 72, 44
2, 448328, Note_on_c, 0, 57, 53
2, 448341, Note_off_c, 0, 55, 52
2, 448359, Note_off_c, 0, 77, 53
2, 448498, Note_on_c, 0, 77, 54
2, 448511, Note_off_c, 0, 72, 51
2, 448514, Note_on_c, 0, 58, 56
2, 448516, Note_on_c, 0, 67, 44
2, 448537, Note_off_c, 0, 57, 53
2, 448546, Note_off_c, 0, 76, 53
2, 448719, Note_on_c, 0, 76, 54
2, 448724, Note_on_c, 0, 55, 48
2, 448727, Note_off_c, 0, 67, 51
2, 448730, Note_on_c, 0, 72, 44
2, 448742, Note_off_c, 0, 58, 54
2, 448756, Note_off_c, 0, 77, 53
2, 448873, Note_off_c, 0, 55, 52
2, 448921, Note_off_c, 0, 72, 51
2, 448922, Note_on_c, 0, 69, 44
2, 448923, Note_on_c, 0, 77, 54
2, 448924, Note_on_c, 0, 41, 41
2, 448925, Note_off_c, 0, 48, 52
2, 448930, Control_c, 0, 64, 20
2, 448960, Note_off_c, 0, 76, 53
2, 449125, Control_c, 0, 64, 96
2, 449130, Note_off_c, 0, 41, 51
2, 449135, Note_on_c, 0, 48, 41
2, 449328, Note_off_c, 0, 48, 51
2, 449328, Note_on_c, 0, 53, 41
2, 449537, Note_off_c, 0, 77, 53
2, 449539, Note_off_c, 0, 53, 51
2, 449540, Note_on_c, 0, 48, 41
2, 449541, Note_off_c, 0, 69, 51
2, 449728, Note_off_c, 0, 48, 51
2, 449729, Note_on_c, 0, 41, 41
2, 449730, Control_c, 0, 64, 20
2, 449917, Control_c, 0, 64, 96
2, 449932, Note_off_c, 0, 41, 51
2, 449936, Note_on_c, 0, 48, 40
2, 450119, Note_off_c, 0, 48, 51
2, 450120, Note_on_c, 0, 57, 40
2, 450319, Note_off_c, 0, 57, 51
2, 450323, Note_on_c, 0, 48, 40
2, 450504, Note_off_c, 0, 48, 51
2, 450505, Note_on_c, 0, 72, 53
2, 450506, Note_on_c, 0, 41, 40
2, 450513, Control_c, 0, 64, 20
2, 450695, Control_c, 0, 64, 96
2, 450701, Note_off_c, 0, 41, 51
2, 450704, Note_on_c, 0, 48, 40
2, 450883, Note_off_c, 0, 48, 51
2, 450884, Note_on_c, 0, 53, 39
2, 451083, Note_off_c, 0, 53, 51
2, 451084, Note_on_c, 0, 48, 39
2, 451123, Note_on_c, 0, 69, 63
2, 451131, Note_off_c, 0, 72, 53
2, 451261, Note_off_c, 0, 48, 51
2, 451265, Note_on_c, 0, 70, 66
2, 451266, Note_on_c, 0, 41, 39
2, 451267, Control_c, 0, 64, 20
2, 451303, Note_off_c, 0, 69, 55
2, 451448, Control_c, 0, 64, 96
2, 451459, Note_off_c, 0, 41, 51
2, 451463, Note_on_c, 0, 48, 39
2, 451642, Note_off_c, 0, 48, 51
2, 451643, Note_on_c, 0, 55, 39
2, 451839, Note_off_c, 0, 55, 51
2, 451842, Note_on_c, 0, 48, 38
2, 452022, Note_off_c, 0, 48, 51
2, 452024, Note_on_c, 0, 67, 54
2, 452025, Note_on_c, 0, 41, 38
2, 452029, Control_c, 0, 64, 20
2, 452062, Note_off_c, 0, 70, 56
2, 452211, Control_c, 0, 64, 96
2, 452219, Note_off_c, 0, 41, 51
2, 452223, Note_on_c, 0, 48, 38
2, 452311, Note_off_c, 0, 67, 53
2, 452401, Note_off_c, 0, 48, 51
2, 452401, Note_on_c, 0, 52, 38
2, 452598, Note_off_c, 0, 52, 51
2, 452601, Note_on_c, 0, 48, 38
2, 452781, Note_off_c, 0, 48, 51
2, 452781, Note_on_c, 0, 79, 53
2, 452782, Note_on_c, 0, 41, 37
2, 452783, Control_c, 0, 64, 20
2, 452965, Control_c, 0, 64, 96
2, 452978, Note_off_c, 0, 41, 50
2, 452982, Note_on_c, 0, 48, 37
2, 453160, Note_off_c, 0, 48, 50
2, 453160, Note_on_c, 0, 58, 37
2, 453359, Note_off_c, 0, 58, 50
2, 453361, Note_on_c, 0, 48, 37
2, 453381, Note_off_c, 0, 79, 53
2, 453399, Note_on_c, 0, 76, 65
2, 453540, Note_off_c, 0, 48, 50
2, 453542, Note_on_c, 0, 77, 68
2, 453543, Note_on_c, 0, 41, 37
2, 453547, Control_c, 0, 64, 20
2, 453579, Note_off_c, 0, 76, 56
2, 453729, Control_c, 0, 64, 96
2, 453735, Note_off_c, 0, 41, 50
2, 453740, Note_on_c, 0, 48, 36
2, 453919, Note_off_c, 0, 48, 50
2, 453919, Note_on_c, 0, 57, 36
2, 454116, Note_off_c, 0, 57, 50
2, 454117, Note_on_c, 0, 48, 36
2, 454299, Note_off_c, 0, 48, 50
2, 454300, Note_on_c, 0, 72, 54
2, 454301, Note_on_c, 0, 41, 36
2, 454302, Control_c, 0, 64, 20
2, 454406, Note_off_c, 0, 77, 57
2, 454483, Control_c, 0, 64, 96
2, 454494, Note_off_c, 0, 41, 50
2, 454499, Note_on_c, 0, 48, 35
2, 454588, Note_off_c, 0, 72, 53
2, 454678, Note_off_c, 0, 48, 50
2, 454679, Note_on_c, 0, 53, 35
2, 454876, Note_off_c, 0, 53, 50
2, 454876, Note_on_c, 0, 48, 35
2, 455058, Note_off_c, 0, 48, 50
2, 455059, Note_on_c, 0, 72, 53
2, 455059, Note_on_c, 0, 41, 35
2, 455060, Control_c, 0, 64, 20
2, 455239, Control_c, 0, 64, 96
2, 455254, Note_off_c, 0, 41, 50
2, 455258, Note_on_c, 0, 69, 56
2, 455259, Note_on_c, 0, 48, 35
2, 455296, Note_off_c, 0, 72, 53
2, 455437, Note_off_c, 0, 48, 50
2, 455439, Note_on_c, 0, 72, 60
2, 455439, Note_on_c, 0, 53, 34
2, 455476, Note_off_c, 0, 69, 54
2, 455634, Note_off_c, 0, 53, 50
2, 455637, Note_on_c, 0, 69, 64
2, 455638, Note_on_c, 0, 48, 34
2, 455677, Note_off_c, 0, 72, 55
2, 455817, Note_off_c, 0, 48, 50
2, 455819, Note_on_c, 0, 70, 68
2, 455820, Note_on_c, 0, 41, 34
2, 455820, Control_c, 0, 64, 20
2, 455856, Note_off_c, 0, 69, 56
2, 456001, Control_c, 0, 64, 96
2, 456013, Note_off_c, 0, 41, 50
2, 456015, Note_on_c, 0, 48, 34
2, 456196, Note_off_c, 0, 48, 50
2, 456197, Note_on_c, 0, 55, 34
2, 456394, Note_off_c, 0, 55, 50
2, 456394, Note_on_c, 0, 48, 33
2, 456576, Note_off_c, 0, 48, 49
2, 456578, Note_on_c, 0, 67, 54
2, 456579, Note_on_c, 0, 41, 33
2, 456580, Control_c, 0, 64, 20
2, 456616, Note_off_c, 0, 70, 57
2, 456760, Control_c, 0, 64, 96
2, 456772, Note_off_c, 0, 41, 49
2, 456774, Note_on_c, 0, 48, 33
2, 456866, Note_off_c, 0, 67, 53
2, 456954, Note_off_c, 0, 48, 49
2, 456956, Note_on_c, 0, 52, 33
2, 457153, Note_off_c, 0, 52, 49
2, 457153, Note_on_c, 0, 48, 33
2, 457332, Note_off_c, 0, 48, 49
2, 457334, Note_on_c, 0, 79, 50
2, 457335, Note_on_c, 0, 41, 32
2, 457341, Control_c, 0, 64, 20
2, 457515, Note_off_c, 0, 41, 49
2, 457516, Note_on_c, 0, 76, 54
2, 457517, Note_on_c, 0, 48, 32
2, 457524, Control_c, 0, 64, 96
2, 457540, Note_off_c, 0, 79, 52
2, 457713, Note_off_c, 0, 48, 49
2, 457716, Note_on_c, 0, 79, 59
2, 457717, Note_on_c, 0, 58, 32
2, 457738, Note_off_c, 0, 76, 53
2, 457893, Note_off_c, 0, 58, 49
2, 457896, Note_on_c, 0, 76, 63
2, 457896, Note_on_c, 0, 48, 32
2, 457923, Note_off_c, 0, 79, 54
2, 458093, Note_off_c, 0, 48, 49
2, 458096, Note_on_c, 0, 77, 68
2, 458097, Note_on_c, 0, 41, 32
2, 458103, Control_c, 0, 64, 20
2, 458118, Note_off_c, 0, 76, 55
2, 458273, Note_off_c, 0, 41, 49
2, 458274, Note_on_c, 0, 48, 31
2, 458286, Control_c, 0, 64, 96
2, 458472, Note_off_c, 0, 48, 49
2, 458474, Note_on_c, 0, 57, 31
2, 458653, Note_off_c, 0, 57, 49
2, 458654, Note_on_c, 0, 48, 31
2, 458853, Note_off_c, 0, 48, 49
2, 458855, Note_on_c, 0, 72, 54
2, 458856, Note_on_c, 0, 41, 31
2, 458861, Control_c, 0, 64, 20
2, 458879, Note_off_c, 0, 77, 57
2, 459032, Note_off_c, 0, 41, 49
2, 459033, Note_on_c, 0, 48, 31
2, 459042, Control_c, 0, 64, 96
2, 459143, Note_off_c, 0, 72, 53
2, 459230, Note_off_c, 0, 48, 49
2, 459233, Note_on_c, 0, 57, 30
2, 459412, Note_off_c, 0, 57, 49
2, 459413, Note_on_c, 0, 48, 30
2, 459610, Note_off_c, 0, 48, 49
2, 459611, Note_on_c, 0, 79, 50
2, 459612, Note_on_c, 0, 41, 30
2, 459616, Control_c, 0, 64, 20
2, 459791, Note_off_c, 0, 41, 49
2, 459794, Note_on_c, 0, 76, 54
2, 459795, Note_on_c, 0, 48, 30
2, 459796, Control_c, 0, 64, 96
2, 459831, Note_off_c, 0, 79, 52
2, 459991, Note_off_c, 0, 48, 49
2, 459992, Note_on_c, 0, 79, 59
2, 459993, Note_on_c, 0, 58, 29
2, 460030, Note_off_c, 0, 76, 53
2, 460169, Note_off_c, 0, 58, 48
2, 460173, Note_on_c, 0, 76, 63
2, 460174, Note_on_c, 0, 48, 29
2, 460212, Note_off_c, 0, 79, 54
2, 460371, Note_off_c, 0, 48, 48
2, 460372, Note_on_c, 0, 77, 68
2, 460373, Note_on_c, 0, 41, 29
2, 460380, Control_c, 0, 64, 20
2, 460408, Note_off_c, 0, 76, 55
2, 460550, Note_off_c, 0, 41, 48
2, 460551, Note_on_c, 0, 48, 29
2, 460559, Control_c, 0, 64, 96
2, 460748, Note_off_c, 0, 48, 48
2, 460750, Note_on_c, 0, 57, 29
2, 460930, Note_off_c, 0, 57, 48
2, 460931, Note_on_c, 0, 48, 28
2, 461129, Note_off_c, 0, 48, 48
2, 461131, Note_on_c, 0, 72, 54
2, 461132, Note_on_c, 0, 41, 28
2, 461137, Control_c, 0, 64, 20
2, 461169, Note_off_c, 0, 77, 57
2, 461309, Note_off_c, 0, 41, 48
2, 461310, Note_on_c, 0, 48, 28
2, 461318, Control_c, 0, 64, 96
2, 461420, Note_off_c, 0, 72, 53
2, 461507, Note_off_c, 0, 48, 48
2, 461509, Note_on_c, 0, 57, 28
2, 461689, Note_off_c, 0, 57, 48
2, 461690, Note_on_c, 0, 48, 28
2, 461884, Control_c, 0, 64, 20
2, 461886, Note_off_c, 0, 48, 48
2, 461888, Note_on_c, 0, 79, 50
2, 461889, Note_on_c, 0, 41, 27
2, 462066, Control_c, 0, 64, 96
2, 462068, Note_off_c, 0, 41, 48
2, 462070, Note_on_c, 0, 76, 54
2, 462071, Note_on_c, 0, 48, 27
2, 462115, Note_off_c, 0, 79, 52
2, 462268, Note_off_c, 0, 48, 48
2, 462269, Note_on_c, 0, 79, 59
2, 462270, Note_on_c, 0, 58, 27
2, 462312, Note_off_c, 0, 76, 53
2, 462446, Note_off_c, 0, 58, 48
2, 462449, Note_on_c, 0, 76, 63
2, 462450, Note_on_c, 0, 48, 27
2, 462496, Note_off_c, 0, 79, 54
2, 462648, Note_off_c, 0, 48, 48
2, 462650, Note_on_c, 0, 77, 67
2, 462651, Note_on_c, 0, 41, 27
2, 462671, Control_c, 0, 64, 20
2, 462691, Note_off_c, 0, 76, 55
2, 462827, Note_off_c, 0, 41, 48
2, 462828, Note_on_c, 0, 48, 26
2, 462852, Control_c, 0, 64, 96
2, 463026, Note_off_c, 0, 48, 48
2, 463027, Note_on_c, 0, 57, 26
2, 463206, Note_off_c, 0, 57, 48
2, 463207, Note_on_c, 0, 48, 26
2, 463406, Note_off_c, 0, 48, 48
2, 463408, Note_on_c, 0, 72, 54
2, 463409, Note_on_c, 0, 41, 26
2, 463450, Note_off_c, 0, 77, 57
2, 463586, Note_off_c, 0, 41, 48
2, 463587, Note_on_c, 0, 48, 26
2, 463677, Note_off_c, 0, 72, 53
2, 463785, Note_off_c, 0, 48, 48
2, 463787, Note_on_c, 0, 53, 25
2, 463966, Note_off_c, 0, 53, 47
2, 463966, Note_on_c, 0, 48, 25
2, 464163, Note_off_c, 0, 48, 47
2, 464165, Note_on_c, 0, 41, 31
2, 464166, Note_on_c, 0, 81, 50
2, 464324, Note_off_c, 0, 41, 47
2, 464347, Note_on_c, 0, 45, 31
2, 464348, Note_on_c, 0, 77, 54
2, 464392, Note_off_c, 0, 81, 52
2, 464522, Note_off_c, 0, 45, 47
2, 464547, Note_on_c, 0, 48, 31
2, 464548, Note_on_c, 0, 81, 59
2, 464588, Note_off_c, 0, 77, 53
2, 464696, Note_off_c, 0, 48, 47
2, 464726, Note_on_c, 0, 45, 30
2, 464727, Note_on_c, 0, 77, 63
2, 464773, Note_off_c, 0, 81, 54
2, 464905, Note_off_c, 0, 45, 47
2, 464927, Note_on_c, 0, 41, 30
2, 464928, Note_on_c, 0, 81, 68
2, 464969, Note_off_c, 0, 77, 55
2, 465075, Note_off_c, 0, 41, 47
2, 465104, Note_on_c, 0, 45, 30
2, 465290, Note_off_c, 0, 45, 47
2, 465303, Note_on_c, 0, 48, 30
2, 465447, Note_off_c, 0, 48, 47
2, 465484, Note_on_c, 0, 45, 30
2, 465665, Note_off_c, 0, 45, 47
2, 465686, Note_on_c, 0, 36, 42
2, 465687, Note_on_c, 0, 77, 54
2, 465729, Note_off_c, 0, 81, 57
2, 465842, Note_off_c, 0, 36, 50
2, 465863, Note_on_c, 0, 41, 42
2, 465955, Note_off_c, 0, 77, 53
2, 466019, Note_off_c, 0, 41, 50
2, 466062, Note_on_c, 0, 45, 42
2, 466206, Note_off_c, 0, 45, 50
2, 466244, Note_on_c, 0, 41, 42
2, 466260, Control_c, 0, 64, 20
2, 466383, Note_off_c, 0, 41, 50
2, 466424, Note_on_c, 0, 33, 42
2, 466425, Note_on_c, 0, 84, 50
2, 466440, Control_c, 0, 64, 96
2, 466607, Note_off_c, 0, 33, 50
2, 466623, Note_on_c, 0, 36, 42
2, 466624, Note_on_c, 0, 81, 54
2, 466650, Note_off_c, 0, 84, 52
2, 466772, Note_off_c, 0, 36, 50
2, 466804, Note_on_c, 0, 41, 42
2, 466805, Note_on_c, 0, 84, 58
2, 466831, Note_off_c, 0, 81, 53
2, 466980, Note_off_c, 0, 41, 50
2, 467004, Note_on_c, 0, 36, 42
2, 467004, Note_on_c, 0, 81, 63
2, 467031, Note_off_c, 0, 84, 54
2, 467150, Note_off_c, 0, 36, 50
2, 467185, Note_on_c, 0, 29, 47
2, 467186, Note_on_c, 0, 89, 68
2, 467208, Note_off_c, 0, 81, 55
2, 467345, Note_off_c, 0, 29, 51
2, 467381, Note_on_c, 0, 33, 47
2, 467547, Note_off_c, 0, 33, 51
2, 467560, Note_on_c, 0, 36, 46
2, 467726, Note_off_c, 0, 36, 51
2, 467761, Note_on_c, 0, 33, 45
2, 467900, Note_off_c, 0, 33, 51
2, 467942, Note_on_c, 0, 29, 45
2, 467943, Note_on_c, 0, 84, 53
2, 467969, Note_off_c, 0, 89, 57
2, 468097, Note_off_c, 0, 29, 51
2, 468140, Note_on_c, 0, 33, 44
2, 468228, Note_off_c, 0, 84, 53
2, 468294, Note_off_c, 0, 33, 51
2, 468296, Control_c, 0, 67, 127
2, 468320, Note_on_c, 0, 36, 44
2, 468476, Note_off_c, 0, 36, 51
2, 468520, Note_on_c, 0, 33, 43
2, 468671, Note_off_c, 0, 33, 50
2, 468700, Note_on_c, 0, 29, 42
2, 468701, Note_on_c, 0, 89, 50
2, 468875, Note_off_c, 0, 29, 50
2, 468902, Note_on_c, 0, 33, 41
2, 468903, Note_on_c, 0, 84, 54
2, 468938, Note_off_c, 0, 89, 52
2, 469054, Note_off_c, 0, 33, 50
2, 469081, Note_on_c, 0, 36, 41
2, 469082, Note_on_c, 0, 89, 59
2, 469116, Note_off_c, 0, 84, 53
2, 469247, Note_off_c, 0, 36, 50
2, 469281, Note_on_c, 0, 33, 40
2, 469282, Note_on_c, 0, 84, 63
2, 469317, Note_off_c, 0, 89, 54
2, 469435, Note_off_c, 0, 33, 50
2, 469461, Note_on_c, 0, 29, 40
2, 469461, Note_on_c, 0, 89, 67
2, 469495, Note_off_c, 0, 84, 55
2, 469640, Note_off_c, 0, 29, 50
2, 469658, Note_on_c, 0, 33, 39
2, 469812, Note_off_c, 0, 33, 49
2, 469838, Note_on_c, 0, 36, 38
2, 470009, Note_off_c, 0, 36, 49
2, 470037, Note_on_c, 0, 33, 37
2, 470191, Note_off_c, 0, 33, 49
2, 470220, Note_on_c, 0, 29, 37
2, 470220, Note_on_c, 0, 84, 48
2, 470254, Note_off_c, 0, 89, 57
2, 470399, Note_off_c, 0, 29, 49
2, 470417, Note_on_c, 0, 33, 36
2, 470505, Note_off_c, 0, 84, 52
2, 470578, Note_off_c, 0, 33, 49
2, 470597, Note_on_c, 0, 36, 36
2, 470767, Note_off_c, 0, 36, 49
2, 470796, Note_on_c, 0, 33, 35
2, 470964, Note_off_c, 0, 33, 48
2, 470978, Note_on_c, 0, 29, 34
2, 470979, Note_on_c, 0, 89, 47
2, 471153, Note_off_c, 0, 29, 48
2, 471177, Note_on_c, 0, 33, 33
2, 471178, Note_on_c, 0, 84, 46
2, 471216, Note_off_c, 0, 89, 51
2, 471335, Note_off_c, 0, 33, 48
2, 471358, Note_on_c, 0, 36, 33
2, 471359, Note_on_c, 0, 89, 46
2, 471393, Note_off_c, 0, 84, 51
2, 471527, Note_off_c, 0, 36, 48
2, 471557, Note_on_c, 0, 33, 32
2, 471558, Note_on_c, 0, 84, 46
2, 471593, Note_off_c, 0, 89, 51
2, 471722, Note_off_c, 0, 33, 48
2, 471738, Note_on_c, 0, 29, 32
2, 471739, Note_on_c, 0, 89, 45
2, 471772, Note_off_c, 0, 84, 51
2, 471921, Note_off_c, 0, 29, 48
2, 471934, Note_on_c, 0, 33, 31
2, 472065, Note_off_c, 0, 89, 51
2, 472088, Note_off_c, 0, 33, 47
2, 472115, Note_on_c, 0, 36, 30
2, 472288, Note_off_c, 0, 36, 47
2, 472314, Note_on_c, 0, 33, 29
2, 472454, Note_off_c, 0, 33, 47
2, 472494, Note_on_c, 0, 29, 29
2, 472495, Note_on_c, 0, 89, 44
2, 472666, Note_off_c, 0, 29, 47
2, 472694, Note_on_c, 0, 33, 28
2, 472774, Note_off_c, 0, 89, 51
2, 472852, Note_off_c, 0, 33, 47
2, 472874, Note_on_c, 0, 36, 28
2, 473056, Note_off_c, 0, 36, 47
2, 473073, Note_on_c, 0, 33, 27
2, 473228, Note_off_c, 0, 33, 46
2, 473254, Note_on_c, 0, 29, 26
2, 473255, Note_on_c, 0, 89, 42
2, 473427, Note_off_c, 0, 29, 46
2, 473452, Note_on_c, 0, 33, 25
2, 473554, Note_off_c, 0, 89, 50
2, 473620, Note_off_c, 0, 33, 46
2, 473632, Note_on_c, 0, 36, 25
2, 473820, Note_off_c, 0, 36, 46
2, 473832, Note_on_c, 0, 33, 24
2, 473995, Note_off_c, 0, 33, 46
2, 474013, Note_on_c, 0, 29, 24
2, 474014, Note_on_c, 0, 89, 40
2, 474177, Note_off_c, 0, 29, 46
2, 474212, Note_on_c, 0, 33, 23
2, 474364, Note_off_c, 0, 33, 45
2, 474391, Note_on_c, 0, 36, 22
2, 474576, Note_off_c, 0, 36, 45
2, 474592, Note_on_c, 0, 33, 21
2, 474754, Note_off_c, 0, 33, 45
2, 474772, Note_off_c, 0, 89, 50
2, 474774, Note_on_c, 0, 29, 21
2, 474936, Note_off_c, 0, 29, 45
2, 474971, Note_on_c, 0, 33, 20
2, 475121, Note_off_c, 0, 33, 45
2, 475150, Note_on_c, 0, 36, 20
2, 475315, Note_off_c, 0, 36, 45
2, 475333, Note_on_c, 0, 33, 19
2, 475503, Note_off_c, 0, 33, 45
2, 475529, Note_on_c, 0, 29, 18
2, 475671, Note_off_c, 0, 29, 44
2, 475712, Note_on_c, 0, 33, 18
2, 475877, Note_off_c, 0, 33, 44
2, 475909, Note_on_c, 0, 36, 17
2, 476056, Note_off_c, 0, 36, 44
2, 476092, Note_on_c, 0, 33, 16
2, 476264, Note_off_c, 0, 33, 44
2, 476291, Note_on_c, 0, 29, 16
2, 476591, Note_off_c, 0, 29, 44
2, 476690, Control_c, 0, 67, 0
2, 476914, Control_c, 0, 64, 20
2, 477049, Note_on_c, 0, 53, 34
2, 477059, Note_on_c, 0, 29, 24
2, 477060, Note_on_c, 0, 41, 29
2, 477096, Control_c, 0, 64, 96
2, 477608, Note_off_c, 0, 53, 48
2, 477617, Note_off_c, 0, 29, 46
2, 477622, Note_off_c, 0, 41, 47
2, 477809, Note_on_c, 0, 53, 43
2, 477817, Note_on_c, 0, 29, 32
2, 477818, Note_on_c, 0, 41, 38
2, 477823, Control_c, 0, 64, 20
2, 478002, Control_c, 0, 64, 96
2, 478367, Note_off_c, 0, 53, 50
2, 478376, Note_off_c, 0, 29, 48
2, 478381, Note_off_c, 0, 41, 49
2, 478568, Note_on_c, 0, 53, 54
2, 478576, Note_on_c, 0, 29, 43
2, 478577, Note_on_c, 0, 41, 49
2, 478584, Control_c, 0, 64, 20
2, 478765, Control_c, 0, 64, 96
2, 479126, Note_off_c, 0, 53, 53
2, 479135, Note_off_c, 0, 29, 50
2, 479140, Note_off_c, 0, 41, 52
2, 479326, Note_on_c, 0, 53, 65
2, 479335, Note_on_c, 0, 29, 53
2, 479336, Note_on_c, 0, 41, 61
2, 479345, Control_c, 0, 64, 20
2, 479527, Control_c, 0, 64, 96
2, 479885, Note_off_c, 0, 53, 56
2, 479894, Note_off_c, 0, 29, 53
2, 479898, Note_off_c, 0, 41, 55
2, 480085, Note_on_c, 0, 53, 76
2, 480094, Note_on_c, 0, 29, 66
2, 480095, Note_on_c, 0, 41, 75
2, 480102, Control_c, 0, 64, 20
2, 480283, Control_c, 0, 64, 96
2, 480853, Note_off_c, 0, 29, 56
2, 480854, Note_off_c, 0, 41, 59
2, 480934, Note_off_c, 0, 53, 59
2, 481139, Note_on_c, 0, 54, 54
2, 481147, Note_on_c, 0, 30, 36
2, 481148, Note_on_c, 0, 42, 42
2, 481159, Control_c, 0, 64, 20
2, 481339, Control_c, 0, 64, 96
2, 482273, Note_off_c, 0, 54, 53
2, 482643, Note_on_c, 0, 73, 54
2, 482650, Note_on_c, 0, 70, 40
2, 482655, Note_on_c, 0, 66, 34
2, 482661, Control_c, 0, 64, 20
2, 482808, Note_off_c, 0, 30, 49
2, 482844, Control_c, 0, 64, 96
2, 483094, Note_off_c, 0, 42, 50
2, 483260, Note_on_c, 0, 75, 56
2, 483272, Note_off_c, 0, 70, 50
2, 483288, Note_off_c, 0, 73, 53
2, 483292, Note_off_c, 0, 66, 48
2, 483416, Note_on_c, 0, 73, 54
2, 483423, Note_on_c, 0, 68, 40
2, 483424, Note_on_c, 0, 65, 36
2, 483427, Note_on_c, 0, 30, 35
2, 483428, Note_on_c, 0, 42, 50
2, 483434, Control_c, 0, 64, 20
2, 483458, Note_off_c, 0, 75, 54
2, 483616, Control_c, 0, 64, 96
2, 484188, Note_on_c, 0, 71, 50
2, 484230, Note_off_c, 0, 73, 53
2, 484455, Note_off_c, 0, 68, 50
2, 484484, Note_off_c, 0, 65, 49
2, 484765, Note_off_c, 0, 71, 52
2, 484943, Note_on_c, 0, 71, 54
2, 484953, Control_c, 0, 64, 20
2, 484954, Note_on_c, 0, 65, 36
2, 484955, Note_on_c, 0, 68, 42
2, 485139, Control_c, 0, 64, 96
2, 485164, Note_off_c, 0, 42, 52
2, 485383, Note_off_c, 0, 30, 48
2, 485532, Note_off_c, 0, 65, 49
2, 485544, Note_off_c, 0, 68, 50
2, 485592, Note_on_c, 0, 73, 54
2, 485603, Note_off_c, 0, 71, 53
2, 485730, Note_on_c, 0, 71, 54
2, 485736, Note_on_c, 0, 61, 42
2, 485739, Note_on_c, 0, 30, 40
2, 485740, Note_on_c, 0, 42, 50
2, 485743, Control_c, 0, 64, 20
2, 485744, Note_on_c, 0, 66, 34
2, 485758, Note_off_c, 0, 73, 53
2, 485933, Control_c, 0, 64, 96
2, 486537, Note_on_c, 0, 70, 52
2, 486580, Note_off_c, 0, 71, 53
2, 486907, Note_off_c, 0, 61, 50
2, 486916, Note_off_c, 0, 30, 50
2, 487077, Note_off_c, 0, 66, 48
2, 487137, Note_off_c, 0, 42, 52
2, 487146, Note_off_c, 0, 70, 53
2, 487338, Note_on_c, 0, 70, 54
2, 487348, Note_on_c, 0, 52, 50
2, 487351, Control_c, 0, 64, 20
2, 487356, Note_on_c, 0, 67, 34
2, 487357, Note_on_c, 0, 60, 42
2, 487358, Note_on_c, 0, 40, 40
2, 487546, Control_c, 0, 64, 96
2, 487823, Note_off_c, 0, 60, 50
2, 487936, Note_off_c, 0, 40, 50
2, 487995, Note_off_c, 0, 52, 52
2, 488004, Note_on_c, 0, 72, 54
2, 488019, Note_off_c, 0, 70, 53
2, 488032, Note_off_c, 0, 67, 48
2, 488159, Note_on_c, 0, 53, 50
2, 488159, Note_on_c, 0, 70, 54
2, 488163, Control_c, 0, 64, 20
2, 488166, Note_on_c, 0, 65, 34
2, 488168, Note_on_c, 0, 41, 40
2, 488169, Note_on_c, 0, 60, 42
2, 488177, Note_off_c, 0, 72, 53
2, 488357, Control_c, 0, 64, 96
2, 488983, Note_on_c, 0, 69, 52
2, 489088, Note_off_c, 0, 70, 53
2, 489107, Note_off_c, 0, 65, 48
2, 489324, Note_off_c, 0, 41, 50
2, 489487, Note_off_c, 0, 60, 50
2, 489616, Note_off_c, 0, 69, 53
2, 489644, Note_off_c, 0, 53, 52
2, 489817, Note_on_c, 0, 50, 45
2, 489818, Note_on_c, 0, 69, 50
2, 489826, Control_c, 0, 64, 20
2, 489827, Note_on_c, 0, 38, 35
2, 489828, Note_on_c, 0, 62, 38
2, 489830, Note_on_c, 0, 65, 30
2, 490027, Control_c, 0, 64, 96
2, 490317, Note_off_c, 0, 62, 49
2, 490347, Note_off_c, 0, 65, 47
2, 490410, Note_off_c, 0, 38, 48
2, 490491, Note_off_c, 0, 50, 51
2, 490503, Note_on_c, 0, 70, 49
2, 490519, Note_off_c, 0, 69, 52
2, 490663, Note_on_c, 0, 46, 41
2, 490664, Note_on_c, 0, 69, 48
2, 490667, Control_c, 0, 64, 20
2, 490670, Note_on_c, 0, 62, 36
2, 490674, Note_on_c, 0, 34, 30
2, 490676, Note_on_c, 0, 65, 30
2, 490683, Note_off_c, 0, 70, 52
2, 490870, Control_c, 0, 64, 96
2, 491514, Note_on_c, 0, 67, 46
2, 491607, Note_off_c, 0, 69, 52
2, 491986, Note_off_c, 0, 34, 47
2, 492068, Note_off_c, 0, 62, 49
2, 492122, Note_off_c, 0, 65, 47
2, 492169, Note_off_c, 0, 67, 51
2, 492219, Note_off_c, 0, 46, 50
2, 492371, Note_on_c, 0, 67, 44
2, 492383, Note_on_c, 0, 48, 33
2, 492384, Note_on_c, 0, 64, 33
2, 492385, Note_on_c, 0, 58, 36
2, 492390, Control_c, 0, 64, 20
2, 492395, Note_on_c, 0, 36, 26
2, 492598, Control_c, 0, 64, 96
2, 492974, Note_off_c, 0, 36, 46
2, 493081, Note_on_c, 0, 69, 43
2, 493089, Note_off_c, 0, 48, 48
2, 493116, Note_off_c, 0, 67, 51
2, 493226, Note_off_c, 0, 69, 50
2, 493245, Note_off_c, 0, 64, 48
2, 493246, Note_off_c, 0, 58, 49
2, 493250, Note_on_c, 0, 29, 30
2, 493251, Note_on_c, 0, 41, 36
2, 493252, Note_on_c, 0, 65, 42
2, 493253, Control_c, 0, 64, 20
2, 493260, Note_on_c, 0, 57, 30
2, 493457, Control_c, 0, 64, 96
2, 494398, Note_off_c, 0, 29, 47
2, 494508, Note_off_c, 0, 41, 49
2, 494846, Note_off_c, 0, 57, 47
2, 494956, Note_off_c, 0, 65, 50
2, 494980, Note_on_c, 0, 76, 84
2, 494983, Control_c, 0, 64, 20
2, 494985, Note_on_c, 0, 29, 69
2, 494991, Note_on_c, 0, 41, 74
2, 494994, Note_on_c, 0, 67, 72
2, 494995, Note_on_c, 0, 70, 64
2, 495164, Control_c, 0, 64, 96
2, 495517, Note_off_c, 0, 41, 59
2, 495559, Note_off_c, 0, 29, 57
2, 495587, Note_on_c, 0, 72, 82
2, 495620, Note_off_c, 0, 70, 56
2, 495753, Note_off_c, 0, 76, 61
2, 495758, Note_on_c, 0, 77, 84
2, 495761, Control_c, 0, 64, 20
2, 495762, Note_on_c, 0, 65, 72
2, 495763, Note_on_c, 0, 29, 66
2, 495764, Note_on_c, 0, 69, 64
2, 495765, Note_on_c, 0, 41, 76
2, 495767, Note_off_c, 0, 67, 58
2, 495792, Note_off_c, 0, 72, 60
2, 495950, Control_c, 0, 64, 96
2, 496554, Note_on_c, 0, 72, 80
2, 496605, Note_off_c, 0, 69, 56
2, 496743, Note_off_c, 0, 41, 59
2, 496867, Note_off_c, 0, 72, 60
2, 496909, Note_off_c, 0, 29, 56
2, 497359, Note_off_c, 0, 77, 61
2, 497361, Note_off_c, 0, 65, 58
2, 497458, Control_c, 0, 67, 127
2, 497498, Note_on_c, 0, 82, 66
2, 497507, Note_on_c, 0, 79, 46
2, 497508, Control_c, 0, 64, 20
2, 497509, Note_on_c, 0, 29, 43
2, 497510, Note_on_c, 0, 41, 50
2, 497511, Note_on_c, 0, 76, 54
2, 497706, Control_c, 0, 64, 96
2, 498031, Note_off_c, 0, 41, 52
2, 498133, Note_off_c, 0, 29, 50
2, 498159, Note_on_c, 0, 84, 66
2, 498184, Note_off_c, 0, 82, 56
2, 498194, Note_off_c, 0, 79, 51
2, 498233, Note_off_c, 0, 76, 53
2, 498336, Note_on_c, 0, 29, 42
2, 498337, Note_on_c, 0, 41, 54
2, 498338, Note_on_c, 0, 81, 66
2, 498339, Control_c, 0, 64, 20
2, 498346, Note_on_c, 0, 77, 50
2, 498347, Note_on_c, 0, 72, 45
2, 498355, Note_off_c, 0, 84, 56
2, 498537, Control_c, 0, 64, 96
2, 499387, Note_off_c, 0, 72, 51
2, 499391, Note_off_c, 0, 41, 53
2, 499436, Note_off_c, 0, 77, 52
2, 499578, Note_off_c, 0, 29, 50
2, 499579, Note_off_c, 0, 81, 56
2, 499989, Note_on_c, 0, 88, 90
2, 499993, Note_on_c, 0, 82, 70
2, 499999, Control_c, 0, 64, 20
2, 500000, Note_on_c, 0, 41, 82
2, 500003, Note_on_c, 0, 29, 74
2, 500004, Note_on_c, 0, 76, 78
2, 500181, Control_c, 0, 64, 96
2, 500352, Note_off_c, 0, 41, 60
2, 500430, Note_off_c, 0, 29, 59
2, 500646, Note_on_c, 0, 84, 90
2, 500648, Note_off_c, 0, 82, 57
2, 500727, Note_off_c, 0, 88, 62
2, 500739, Note_off_c, 0, 76, 59
2, 500765, Note_on_c, 0, 89, 90
2, 500767, Control_c, 0, 64, 20
2, 500768, Note_on_c, 0, 41, 80
2, 500776, Note_on_c, 0, 77, 77
2, 500777, Note_on_c, 0, 29, 70
2, 500778, Note_on_c, 0, 81, 70
2, 500815, Note_off_c, 0, 84, 62
2, 500954, Control_c, 0, 64, 96
2, 501570, Note_on_c, 0, 84, 90
2, 501635, Note_off_c, 0, 81, 57
2, 501876, Note_off_c, 0, 84, 62
2, 502108, Note_off_c, 0, 41, 60
2, 502165, Note_off_c, 0, 29, 57
2, 502350, Note_off_c, 0, 89, 62
2, 502362, Note_off_c, 0, 77, 59
2, 502517, Note_on_c, 0, 79, 36
2, 502518, Note_on_c, 0, 82, 42
2, 502519, Note_on_c, 0, 88, 54
2, 502520, Note_on_c, 0, 41, 54
2, 502528, Note_on_c, 0, 29, 42
2, 502538, Control_c, 0, 64, 20
2, 502734, Control_c, 0, 64, 96
2, 502898, Note_off_c, 0, 29, 50
2, 502964, Note_off_c, 0, 41, 53
2, 503121, Note_off_c, 0, 82, 50
2, 503163, Note_on_c, 0, 84, 54
2, 503294, Note_off_c, 0, 79, 49
2, 503296, Note_off_c, 0, 88, 53
2, 503334, Note_on_c, 0, 77, 36
2, 503335, Note_on_c, 0, 81, 42
2, 503336, Note_on_c, 0, 41, 54
2, 503336, Note_on_c, 0, 89, 54
2, 503338, Note_off_c, 0, 84, 53
2, 503344, Note_on_c, 0, 29, 42
2, 503352, Control_c, 0, 64, 20
2, 503543, Control_c, 0, 64, 96
2, 503730, Note_off_c, 0, 41, 53
2, 503763, Note_off_c, 0, 89, 53
2, 503799, Note_off_c, 0, 77, 49
2, 503808, Note_off_c, 0, 29, 50
2, 503925, Note_off_c, 0, 81, 50
2, 503964, Note_on_c, 0, 84, 57
2, 504132, Note_on_c, 0, 77, 40
2, 504133, Note_on_c, 0, 81, 46
2, 504134, Note_on_c, 0, 41, 58
2, 504135, Note_off_c, 0, 84, 54
2, 504135, Note_on_c, 0, 89, 58
2, 504141, Note_on_c, 0, 29, 46
2, 504150, Control_c, 0, 64, 20
2, 504338, Control_c, 0, 64, 96
2, 504459, Note_off_c, 0, 29, 51
2, 504506, Note_off_c, 0, 41, 54
2, 504590, Note_off_c, 0, 77, 50
2, 504612, Note_off_c, 0, 89, 54
2, 504707, Note_off_c, 0, 81, 51
2, 504747, Note_on_c, 0, 84, 62
2, 504891, Note_on_c, 0, 77, 45
2, 504892, Note_on_c, 0, 81, 51
2, 504893, Note_on_c, 0, 41, 63
2, 504894, Note_on_c, 0, 89, 63
2, 504900, Note_on_c, 0, 29, 51
2, 504906, Control_c, 0, 64, 20
2, 504915, Note_off_c, 0, 84, 55
2, 505091, Control_c, 0, 64, 96
2, 505249, Note_off_c, 0, 41, 55
2, 505264, Note_off_c, 0, 29, 52
2, 505372, Note_off_c, 0, 89, 55
2, 505379, Note_off_c, 0, 77, 51
2, 505473, Note_off_c, 0, 81, 52
2, 505514, Note_on_c, 0, 84, 67
2, 505662, Note_on_c, 0, 77, 50
2, 505663, Note_on_c, 0, 81, 56
2, 505664, Note_on_c, 0, 41, 66
2, 505665, Note_on_c, 0, 89, 68
2, 505674, Note_on_c, 0, 29, 56
2, 505676, Control_c, 0, 64, 20
2, 505697, Note_off_c, 0, 84, 57
2, 505858, Control_c, 0, 64, 96
2, 506008, Note_off_c, 0, 41, 56
2, 506104, Note_off_c, 0, 29, 54
2, 506106, Note_off_c, 0, 89, 57
2, 506140, Note_off_c, 0, 77, 52
2, 506245, Note_off_c, 0, 81, 54
2, 506286, Note_on_c, 0, 84, 72
2, 506431, Note_on_c, 0, 77, 55
2, 506432, Note_on_c, 0, 81, 61
2, 506433, Note_on_c, 0, 41, 73
2, 506434, Note_on_c, 0, 89, 73
2, 506441, Note_on_c, 0, 29, 61
2, 506447, Control_c, 0, 64, 20
2, 506454, Note_off_c, 0, 84, 58
2, 506634, Control_c, 0, 64, 96
2, 506832, Note_off_c, 0, 29, 55
2, 506834, Note_off_c, 0, 41, 58
2, 506931, Note_off_c, 0, 77, 53
2, 506933, Note_off_c, 0, 89, 58
2, 507033, Note_off_c, 0, 81, 55
2, 507078, Note_on_c, 0, 84, 76
2, 507229, Note_on_c, 0, 41, 72
2, 507230, Note_on_c, 0, 77, 60
2, 507231, Note_on_c, 0, 81, 66
2, 507232, Note_on_c, 0, 89, 78
2, 507239, Note_on_c, 0, 29, 60
2, 507251, Control_c, 0, 64, 20
2, 507253, Note_off_c, 0, 84, 59
2, 507446, Control_c, 0, 64, 96
2, 507626, Note_off_c, 0, 29, 56
2, 507681, Note_off_c, 0, 41, 59
2, 507754, Note_off_c, 0, 89, 59
2, 507815, Note_off_c, 0, 77, 55
2, 507850, Note_off_c, 0, 81, 56
2, 507928, Note_on_c, 0, 84, 66
2, 508085, Note_off_c, 0, 84, 56
2, 508186, Note_on_c, 0, 77, 36
2, 508187, Note_on_c, 0, 81, 42
2, 508188, Note_on_c, 0, 41, 54
2, 508188, Note_on_c, 0, 89, 54
2, 508191, Control_c, 0, 64, 20
2, 508196, Note_on_c, 0, 29, 42
2, 508395, Control_c, 0, 64, 96
2, 508631, Note_off_c, 0, 41, 53
2, 508676, Note_off_c, 0, 29, 50
2, 508684, Note_off_c, 0, 77, 49
2, 508742, Note_off_c, 0, 89, 53
2, 509032, Note_off_c, 0, 81, 50
2, 509900, Note_on_c, 0, 72, 54
2, 509911, Note_on_c, 0, 57, 40
2, 509912, Note_on_c, 0, 60, 46
2, 509913, Note_on_c, 0, 69, 48
2, 509923, Control_c, 0, 64, 20
2, 510129, Control_c, 0, 64, 96
2, 510227, Note_off_c, 0, 57, 50
2, 510250, Note_off_c, 0, 69, 52
2, 510284, Note_off_c, 0, 60, 51
2, 510333, Note_off_c, 0, 72, 53
2, 510768, Note_on_c, 0, 69, 42
2, 510778, Note_on_c, 0, 53, 37
2, 510780, Note_on_c, 0, 65, 36
2, 510781, Note_on_c, 0, 57, 41
2, 511096, Note_off_c, 0, 65, 49
2, 511137, Note_off_c, 0, 57, 50
2, 511143, Note_off_c, 0, 53, 49
2, 511201, Note_off_c, 0, 69, 50
2, 511848, Control_c, 0, 64, 20
2, 511995, Control_c, 0, 67, 0
2, 511995, End_track
3, 0, Start_track
3, 0, Title_t, "Andante Favori, in F, WoO 57"
3, 0, Channel_prefix, 1
3, 0, End_track
4, 0, Start_track
4, 0, Title_t, "Sequence by Richard Carlson"
4, 0, Channel_prefix, 3
4, 0, End_track
5, 0, Start_track
5, 0, Title_t, "http://geocities.com/lionheart2251"
5, 0, Channel_prefix, 4
5, 0, End_track
6, 0, Start_track
6, 0, Title_t, "lionheart2251@yahoo.com"
6, 0, Channel_prefix, 5
6, 0, End_track
7, 0, Start_track
7, 0, Title_t, "Copyright  2004"
7, 0, Channel_prefix, 6
7, 0, End_track
0, 0, End_of_file
