0, 0, Header, 0, 1, 384
1, 0, Start_track
1, 0, Title_t, "Song of Spring Op-62 No-06"
1, 0, Time_signature, 4, 2, 24, 8
1, 0, Key_signature, 0, "major"
1, 0, Tempo, 512821
1, 0, Control_c, 0, 7, 115
1, 0, Control_c, 0, 64, 127
1, 0, Control_c, 0, 64, 0
1, 0, Note_on_c, 0, 73, 59
1, 16, Control_c, 0, 64, 127
1, 24, Note_on_c, 0, 33, 28
1, 41, Note_on_c, 0, 45, 17
1, 106, Note_on_c, 0, 33, 0
1, 122, Note_on_c, 0, 45, 0
1, 270, Note_on_c, 0, 61, 31
1, 331, Note_on_c, 0, 61, 0
1, 353, Note_on_c, 0, 64, 29
1, 378, Note_on_c, 0, 69, 33
1, 423, Note_on_c, 0, 64, 0
1, 495, Note_on_c, 0, 52, 37
1, 520, Note_on_c, 0, 69, 0
1, 545, Note_on_c, 0, 52, 0
1, 559, Note_on_c, 0, 57, 20
1, 581, Note_on_c, 0, 73, 0
1, 599, Note_on_c, 0, 61, 36
1, 640, Note_on_c, 0, 57, 0
1, 657, Note_on_c, 0, 64, 39
1, 677, Note_on_c, 0, 61, 0
1, 701, Note_on_c, 0, 64, 0
1, 790, Note_on_c, 0, 74, 69
1, 830, Note_on_c, 0, 74, 0
1, 899, Note_on_c, 0, 75, 61
1, 991, Note_on_c, 0, 75, 0
1, 1011, Note_on_c, 0, 76, 78
1, 1094, Control_c, 0, 64, 0
1, 1105, Note_on_c, 0, 76, 0
1, 1105, Note_on_c, 0, 37, 35
1, 1114, Note_on_c, 0, 49, 28
1, 1175, Note_on_c, 0, 81, 69
1, 1250, Note_on_c, 0, 81, 0
1, 1250, Control_c, 0, 64, 127
1, 1258, Note_on_c, 0, 37, 0
1, 1278, Note_on_c, 0, 49, 0
1, 1359, Note_on_c, 0, 69, 44
1, 1411, Note_on_c, 0, 69, 0
1, 1415, Note_on_c, 0, 73, 45
1, 1457, Note_on_c, 0, 76, 74
1, 1467, Note_on_c, 0, 73, 0
1, 1557, Note_on_c, 0, 57, 31
1, 1592, Note_on_c, 0, 61, 40
1, 1609, Note_on_c, 0, 57, 0
1, 1643, Note_on_c, 0, 61, 0
1, 1654, Note_on_c, 0, 64, 32
1, 1701, Note_on_c, 0, 64, 0
1, 1701, Note_on_c, 0, 74, 85
1, 1707, Note_on_c, 0, 69, 34
1, 1757, Note_on_c, 0, 69, 0
1, 1824, Note_on_c, 0, 76, 0
1, 1946, Note_on_c, 0, 73, 84
1, 1969, Note_on_c, 0, 74, 0
1, 2024, Note_on_c, 0, 73, 0
1, 2173, Control_c, 0, 64, 0
1, 2181, Note_on_c, 0, 71, 92
1, 2201, Note_on_c, 0, 38, 18
1, 2208, Note_on_c, 0, 50, 31
1, 2318, Note_on_c, 0, 38, 0
1, 2340, Control_c, 0, 64, 127
1, 2340, Note_on_c, 0, 59, 38
1, 2347, Note_on_c, 0, 50, 0
1, 2393, Note_on_c, 0, 59, 0
1, 2412, Note_on_c, 0, 62, 34
1, 2437, Note_on_c, 0, 66, 32
1, 2462, Note_on_c, 0, 62, 0
1, 2509, Note_on_c, 0, 66, 0
1, 2549, Note_on_c, 0, 54, 54
1, 2630, Note_on_c, 0, 54, 0
1, 2637, Note_on_c, 0, 59, 27
1, 2674, Note_on_c, 0, 62, 52
1, 2677, Note_on_c, 0, 71, 0
1, 2708, Note_on_c, 0, 59, 0
1, 2727, Note_on_c, 0, 62, 0
1, 2916, Note_on_c, 0, 74, 69
1, 3144, Control_c, 0, 64, 0
1, 3186, Note_on_c, 0, 74, 0
1, 3190, Note_on_c, 0, 78, 60
1, 3203, Note_on_c, 0, 35, 38
1, 3214, Note_on_c, 0, 47, 30
1, 3292, Note_on_c, 0, 35, 0
1, 3303, Note_on_c, 0, 47, 0
1, 3336, Control_c, 0, 64, 127
1, 3356, Note_on_c, 0, 66, 21
1, 3409, Note_on_c, 0, 66, 0
1, 3456, Note_on_c, 0, 74, 41
1, 3479, Note_on_c, 0, 71, 2
1, 3513, Note_on_c, 0, 74, 0
1, 3537, Note_on_c, 0, 71, 0
1, 3596, Note_on_c, 0, 59, 15
1, 3646, Note_on_c, 0, 62, 17
1, 3663, Note_on_c, 0, 59, 0
1, 3685, Note_on_c, 0, 66, 26
1, 3741, Note_on_c, 0, 62, 0
1, 3771, Note_on_c, 0, 71, 36
1, 3818, Note_on_c, 0, 71, 0
1, 3844, Note_on_c, 0, 66, 0
1, 3916, Note_on_c, 0, 78, 0
1, 4058, Note_on_c, 0, 74, 69
1, 4342, Control_c, 0, 64, 0
1, 4375, Note_on_c, 0, 71, 87
1, 4396, Note_on_c, 0, 32, 16
1, 4396, Note_on_c, 0, 44, 26
1, 4401, Note_on_c, 0, 74, 0
1, 4506, Note_on_c, 0, 32, 0
1, 4532, Note_on_c, 0, 44, 0
1, 4540, Control_c, 0, 64, 127
1, 4591, Note_on_c, 0, 62, 39
1, 4640, Note_on_c, 0, 62, 0
1, 4657, Note_on_c, 0, 64, 40
1, 4671, Note_on_c, 0, 68, 39
1, 4719, Note_on_c, 0, 64, 0
1, 4789, Note_on_c, 0, 52, 41
1, 4793, Note_on_c, 0, 68, 0
1, 4835, Note_on_c, 0, 52, 0
1, 4843, Note_on_c, 0, 59, 32
1, 4894, Note_on_c, 0, 59, 0
1, 4894, Note_on_c, 0, 62, 40
1, 4938, Note_on_c, 0, 62, 0
1, 4955, Note_on_c, 0, 64, 77
1, 4986, Note_on_c, 0, 64, 0
1, 5061, Note_on_c, 0, 71, 0
1, 5069, Note_on_c, 0, 70, 72
1, 5181, Note_on_c, 0, 70, 0
1, 5194, Note_on_c, 0, 71, 94
1, 5312, Note_on_c, 0, 71, 0
1, 5312, Note_on_c, 0, 72, 81
1, 5396, Control_c, 0, 64, 0
1, 5417, Note_on_c, 0, 72, 0
1, 5421, Note_on_c, 0, 45, 32
1, 5429, Note_on_c, 0, 33, 31
1, 5442, Note_on_c, 0, 73, 71
1, 5545, Note_on_c, 0, 33, 0
1, 5577, Control_c, 0, 64, 127
1, 5587, Note_on_c, 0, 45, 0
1, 5604, Note_on_c, 0, 73, 0
1, 5612, Note_on_c, 0, 64, 41
1, 5657, Note_on_c, 0, 64, 0
1, 5671, Note_on_c, 0, 69, 17
1, 5683, Note_on_c, 0, 73, 33
1, 5746, Note_on_c, 0, 69, 0
1, 5755, Note_on_c, 0, 76, 72
1, 5804, Note_on_c, 0, 73, 0
1, 5875, Note_on_c, 0, 57, 34
1, 5911, Note_on_c, 0, 61, 32
1, 5938, Note_on_c, 0, 57, 0
1, 5964, Note_on_c, 0, 61, 0
1, 5972, Note_on_c, 0, 64, 46
1, 6005, Note_on_c, 0, 74, 82
1, 6031, Note_on_c, 0, 69, 36
1, 6038, Note_on_c, 0, 64, 0
1, 6086, Note_on_c, 0, 69, 0
1, 6144, Note_on_c, 0, 76, 0
1, 6259, Note_on_c, 0, 73, 84
1, 6282, Note_on_c, 0, 74, 0
1, 6300, Note_on_c, 0, 73, 0
1, 6506, Note_on_c, 0, 54, 39
1, 6515, Note_on_c, 0, 71, 73
1, 6515, Note_on_c, 0, 42, 33
1, 6524, Control_c, 0, 64, 0
1, 6633, Note_on_c, 0, 59, 35
1, 6657, Note_on_c, 0, 42, 0
1, 6679, Control_c, 0, 64, 127
1, 6683, Note_on_c, 0, 54, 0
1, 6683, Note_on_c, 0, 63, 55
1, 6702, Note_on_c, 0, 59, 0
1, 6729, Note_on_c, 0, 63, 0
1, 6743, Note_on_c, 0, 66, 27
1, 6782, Note_on_c, 0, 69, 71
1, 6800, Note_on_c, 0, 66, 0
1, 6889, Note_on_c, 0, 54, 42
1, 6899, Note_on_c, 0, 71, 0
1, 6947, Note_on_c, 0, 54, 0
1, 6955, Note_on_c, 0, 57, 27
1, 7015, Note_on_c, 0, 59, 31
1, 7036, Note_on_c, 0, 68, 70
1, 7051, Note_on_c, 0, 57, 0
1, 7076, Note_on_c, 0, 63, 46
1, 7087, Note_on_c, 0, 69, 0
1, 7087, Note_on_c, 0, 59, 0
1, 7117, Note_on_c, 0, 63, 0
1, 7318, Note_on_c, 0, 69, 61
1, 7362, Note_on_c, 0, 68, 0
1, 7543, Control_c, 0, 64, 0
1, 7593, Note_on_c, 0, 73, 47
1, 7597, Note_on_c, 0, 40, 25
1, 7605, Note_on_c, 0, 52, 27
1, 7627, Note_on_c, 0, 69, 0
1, 7730, Note_on_c, 0, 40, 0
1, 7746, Control_c, 0, 64, 127
1, 7763, Note_on_c, 0, 52, 0
1, 7763, Note_on_c, 0, 61, 32
1, 7817, Note_on_c, 0, 61, 0
1, 7936, Note_on_c, 0, 69, 11
1, 8008, Note_on_c, 0, 69, 0
1, 8061, Note_on_c, 0, 59, 17
1, 8117, Note_on_c, 0, 62, 34
1, 8200, Note_on_c, 0, 62, 0
1, 8206, Note_on_c, 0, 64, 32
1, 8214, Control_c, 0, 64, 0
1, 8245, Note_on_c, 0, 71, 44
1, 8281, Note_on_c, 0, 68, 34
1, 8290, Note_on_c, 0, 73, 0
1, 8312, Note_on_c, 0, 64, 0
1, 8356, Note_on_c, 0, 68, 0
1, 8381, Control_c, 0, 64, 127
1, 8385, Note_on_c, 0, 71, 0
1, 8404, Note_on_c, 0, 59, 0
1, 8524, Note_on_c, 0, 64, 71
1, 8849, Control_c, 0, 64, 0
1, 8864, Note_on_c, 0, 73, 60
1, 8875, Note_on_c, 0, 64, 0
1, 8883, Note_on_c, 0, 33, 20
1, 8883, Note_on_c, 0, 45, 21
1, 8992, Note_on_c, 0, 33, 0
1, 9020, Note_on_c, 0, 45, 0
1, 9028, Control_c, 0, 64, 127
1, 9037, Note_on_c, 0, 61, 45
1, 9090, Note_on_c, 0, 61, 0
1, 9136, Note_on_c, 0, 64, 42
1, 9142, Note_on_c, 0, 69, 34
1, 9193, Note_on_c, 0, 64, 0
1, 9259, Note_on_c, 0, 69, 0
1, 9301, Note_on_c, 0, 57, 24
1, 9315, Note_on_c, 0, 73, 0
1, 9342, Note_on_c, 0, 61, 33
1, 9374, Note_on_c, 0, 57, 0
1, 9398, Note_on_c, 0, 64, 63
1, 9431, Note_on_c, 0, 64, 0
1, 9448, Note_on_c, 0, 61, 0
1, 9512, Note_on_c, 0, 74, 66
1, 9554, Note_on_c, 0, 74, 0
1, 9625, Note_on_c, 0, 75, 74
1, 9730, Note_on_c, 0, 75, 0
1, 9738, Note_on_c, 0, 76, 79
1, 9819, Control_c, 0, 64, 0
1, 9828, Note_on_c, 0, 49, 28
1, 9839, Note_on_c, 0, 37, 27
1, 9853, Note_on_c, 0, 76, 0
1, 9905, Note_on_c, 0, 81, 78
1, 9966, Note_on_c, 0, 81, 0
1, 9966, Note_on_c, 0, 37, 0
1, 9975, Note_on_c, 0, 49, 0
1, 9975, Control_c, 0, 64, 127
1, 10075, Note_on_c, 0, 64, 55
1, 10115, Note_on_c, 0, 64, 0
1, 10137, Note_on_c, 0, 69, 30
1, 10165, Note_on_c, 0, 73, 42
1, 10198, Note_on_c, 0, 69, 0
1, 10198, Note_on_c, 0, 76, 74
1, 10273, Note_on_c, 0, 73, 0
1, 10304, Note_on_c, 0, 57, 43
1, 10349, Note_on_c, 0, 57, 0
1, 10352, Note_on_c, 0, 61, 44
1, 10398, Note_on_c, 0, 61, 0
1, 10415, Note_on_c, 0, 64, 43
1, 10426, Note_on_c, 0, 74, 82
1, 10455, Note_on_c, 0, 64, 0
1, 10474, Note_on_c, 0, 69, 45
1, 10519, Note_on_c, 0, 69, 0
1, 10529, Note_on_c, 0, 76, 0
1, 10666, Note_on_c, 0, 73, 82
1, 10671, Note_on_c, 0, 74, 0
1, 10711, Note_on_c, 0, 73, 0
1, 10911, Control_c, 0, 64, 0
1, 10919, Note_on_c, 0, 71, 84
1, 10948, Note_on_c, 0, 38, 23
1, 10955, Note_on_c, 0, 50, 19
1, 11033, Note_on_c, 0, 38, 0
1, 11059, Note_on_c, 0, 50, 0
1, 11059, Note_on_c, 0, 59, 46
1, 11065, Control_c, 0, 64, 127
1, 11107, Note_on_c, 0, 59, 0
1, 11142, Note_on_c, 0, 62, 19
1, 11145, Note_on_c, 0, 66, 40
1, 11196, Note_on_c, 0, 62, 0
1, 11249, Note_on_c, 0, 50, 51
1, 11274, Note_on_c, 0, 66, 0
1, 11293, Note_on_c, 0, 50, 0
1, 11309, Note_on_c, 0, 54, 51
1, 11348, Note_on_c, 0, 59, 51
1, 11351, Note_on_c, 0, 54, 0
1, 11360, Note_on_c, 0, 71, 0
1, 11420, Note_on_c, 0, 59, 0
1, 11420, Note_on_c, 0, 62, 63
1, 11455, Note_on_c, 0, 62, 0
1, 11632, Note_on_c, 0, 74, 86
1, 11881, Control_c, 0, 64, 0
1, 11892, Note_on_c, 0, 78, 75
1, 11914, Note_on_c, 0, 34, 30
1, 11914, Note_on_c, 0, 46, 21
1, 11919, Note_on_c, 0, 74, 0
1, 11989, Note_on_c, 0, 34, 0
1, 12015, Note_on_c, 0, 46, 0
1, 12029, Note_on_c, 0, 66, 40
1, 12036, Control_c, 0, 64, 127
1, 12109, Note_on_c, 0, 66, 0
1, 12109, Note_on_c, 0, 70, 32
1, 12134, Note_on_c, 0, 73, 41
1, 12212, Note_on_c, 0, 70, 0
1, 12226, Note_on_c, 0, 54, 28
1, 12277, Note_on_c, 0, 61, 35
1, 12281, Note_on_c, 0, 54, 0
1, 12326, Note_on_c, 0, 61, 0
1, 12326, Note_on_c, 0, 73, 0
1, 12366, Note_on_c, 0, 64, 29
1, 12418, Note_on_c, 0, 64, 0
1, 12426, Note_on_c, 0, 66, 18
1, 12488, Note_on_c, 0, 66, 0
1, 12575, Note_on_c, 0, 78, 0
1, 12697, Note_on_c, 0, 76, 61
1, 12995, Control_c, 0, 64, 0
1, 13004, Note_on_c, 0, 35, 24
1, 13007, Note_on_c, 0, 47, 14
1, 13059, Note_on_c, 0, 75, 56
1, 13089, Note_on_c, 0, 76, 0
1, 13107, Note_on_c, 0, 35, 0
1, 13128, Control_c, 0, 64, 127
1, 13135, Note_on_c, 0, 75, 0
1, 13145, Note_on_c, 0, 47, 0
1, 13234, Note_on_c, 0, 62, 27
1, 13287, Note_on_c, 0, 62, 0
1, 13287, Note_on_c, 0, 66, 22
1, 13326, Note_on_c, 0, 71, 44
1, 13345, Note_on_c, 0, 74, 47
1, 13349, Note_on_c, 0, 66, 0
1, 13387, Note_on_c, 0, 71, 0
1, 13437, Note_on_c, 0, 54, 39
1, 13496, Note_on_c, 0, 54, 0
1, 13538, Note_on_c, 0, 59, 5
1, 13569, Note_on_c, 0, 62, 23
1, 13572, Note_on_c, 0, 73, 68
1, 13597, Note_on_c, 0, 74, 0
1, 13618, Note_on_c, 0, 66, 34
1, 13639, Note_on_c, 0, 59, 0
1, 13639, Note_on_c, 0, 62, 0
1, 13663, Note_on_c, 0, 66, 0
1, 13717, Note_on_c, 0, 73, 0
1, 13814, Note_on_c, 0, 71, 93
1, 13850, Note_on_c, 0, 71, 0
1, 14037, Note_on_c, 0, 40, 47
1, 14053, Note_on_c, 0, 69, 71
1, 14068, Note_on_c, 0, 52, 35
1, 14075, Control_c, 0, 64, 0
1, 14159, Note_on_c, 0, 40, 0
1, 14162, Note_on_c, 0, 59, 42
1, 14192, Control_c, 0, 64, 127
1, 14201, Note_on_c, 0, 52, 0
1, 14215, Note_on_c, 0, 59, 0
1, 14245, Note_on_c, 0, 62, 18
1, 14268, Note_on_c, 0, 64, 59
1, 14291, Note_on_c, 0, 62, 0
1, 14291, Note_on_c, 0, 69, 0
1, 14304, Note_on_c, 0, 68, 73
1, 14326, Note_on_c, 0, 64, 0
1, 14360, Note_on_c, 0, 52, 49
1, 14402, Note_on_c, 0, 52, 0
1, 14402, Note_on_c, 0, 56, 57
1, 14441, Note_on_c, 0, 56, 0
1, 14474, Note_on_c, 0, 68, 0
1, 14480, Note_on_c, 0, 62, 31
1, 14532, Note_on_c, 0, 62, 0
1, 14546, Note_on_c, 0, 73, 72
1, 14566, Note_on_c, 0, 64, 57
1, 14603, Note_on_c, 0, 64, 0
1, 14791, Note_on_c, 0, 73, 0
1, 14811, Note_on_c, 0, 71, 81
1, 14967, Note_on_c, 0, 71, 0
1, 15065, Note_on_c, 0, 33, 31
1, 15087, Note_on_c, 0, 45, 17
1, 15093, Control_c, 0, 64, 0
1, 15109, Note_on_c, 0, 71, 68
1, 15254, Note_on_c, 0, 33, 0
1, 15266, Control_c, 0, 64, 127
1, 15290, Note_on_c, 0, 62, 36
1, 15299, Note_on_c, 0, 45, 0
1, 15354, Note_on_c, 0, 62, 0
1, 15358, Note_on_c, 0, 64, 32
1, 15388, Note_on_c, 0, 68, 39
1, 15416, Note_on_c, 0, 64, 0
1, 15527, Note_on_c, 0, 68, 0
1, 15532, Note_on_c, 0, 52, 48
1, 15614, Note_on_c, 0, 57, 17
1, 15681, Note_on_c, 0, 61, 47
1, 15689, Note_on_c, 0, 52, 0
1, 15731, Note_on_c, 0, 69, 48
1, 15745, Note_on_c, 0, 61, 0
1, 15752, Control_c, 0, 64, 0
1, 15784, Note_on_c, 0, 71, 0
1, 15803, Note_on_c, 0, 64, 32
1, 15908, Control_c, 0, 64, 127
1, 15917, Note_on_c, 0, 64, 0
1, 15962, Note_on_c, 0, 69, 0
1, 15975, Note_on_c, 0, 57, 0
1, 16084, Note_on_c, 0, 64, 84
1, 16369, Note_on_c, 0, 37, 32
1, 16383, Note_on_c, 0, 64, 0
1, 16411, Control_c, 0, 64, 0
1, 16411, Note_on_c, 0, 76, 91
1, 16416, Note_on_c, 0, 45, 28
1, 16474, Note_on_c, 0, 52, 52
1, 16516, Note_on_c, 0, 37, 0
1, 16568, Control_c, 0, 64, 127
1, 16575, Note_on_c, 0, 52, 0
1, 16580, Note_on_c, 0, 45, 0
1, 16658, Note_on_c, 0, 64, 53
1, 16700, Note_on_c, 0, 64, 0
1, 16713, Note_on_c, 0, 69, 42
1, 16750, Note_on_c, 0, 73, 48
1, 16762, Note_on_c, 0, 69, 0
1, 16831, Note_on_c, 0, 73, 0
1, 16848, Note_on_c, 0, 57, 55
1, 16890, Note_on_c, 0, 57, 0
1, 16898, Note_on_c, 0, 61, 47
1, 16939, Note_on_c, 0, 64, 46
1, 16943, Note_on_c, 0, 61, 0
1, 16968, Note_on_c, 0, 69, 52
1, 16981, Note_on_c, 0, 64, 0
1, 17011, Note_on_c, 0, 69, 0
1, 17076, Note_on_c, 0, 75, 72
1, 17099, Note_on_c, 0, 76, 0
1, 17198, Note_on_c, 0, 75, 0
1, 17198, Note_on_c, 0, 74, 82
1, 17299, Note_on_c, 0, 74, 0
1, 17313, Note_on_c, 0, 73, 73
1, 17351, Note_on_c, 0, 73, 0
1, 17383, Note_on_c, 0, 38, 49
1, 17435, Note_on_c, 0, 71, 80
1, 17454, Control_c, 0, 64, 0
1, 17458, Note_on_c, 0, 52, 43
1, 17549, Note_on_c, 0, 59, 42
1, 17560, Note_on_c, 0, 38, 0
1, 17596, Note_on_c, 0, 59, 0
1, 17610, Note_on_c, 0, 52, 0
1, 17610, Control_c, 0, 64, 127
1, 17616, Note_on_c, 0, 64, 54
1, 17669, Note_on_c, 0, 64, 0
1, 17669, Note_on_c, 0, 68, 77
1, 17745, Note_on_c, 0, 71, 0
1, 17781, Note_on_c, 0, 50, 52
1, 17786, Note_on_c, 0, 68, 0
1, 17825, Note_on_c, 0, 50, 0
1, 17828, Note_on_c, 0, 52, 59
1, 17833, Note_on_c, 0, 68, 71
1, 17851, Note_on_c, 0, 56, 52
1, 17873, Note_on_c, 0, 52, 0
1, 17883, Note_on_c, 0, 66, 75
1, 17908, Note_on_c, 0, 59, 60
1, 17945, Note_on_c, 0, 59, 0
1, 17945, Note_on_c, 0, 56, 0
1, 17950, Note_on_c, 0, 68, 0
1, 18163, Note_on_c, 0, 64, 92
1, 18223, Note_on_c, 0, 66, 0
1, 18399, Note_on_c, 0, 37, 39
1, 18449, Control_c, 0, 64, 0
1, 18468, Note_on_c, 0, 45, 41
1, 18481, Note_on_c, 0, 64, 0
1, 18493, Note_on_c, 0, 76, 91
1, 18560, Note_on_c, 0, 37, 0
1, 18591, Note_on_c, 0, 52, 54
1, 18595, Note_on_c, 0, 45, 0
1, 18628, Control_c, 0, 64, 127
1, 18639, Note_on_c, 0, 52, 0
1, 18714, Note_on_c, 0, 64, 35
1, 18761, Note_on_c, 0, 64, 0
1, 18761, Note_on_c, 0, 69, 40
1, 18800, Note_on_c, 0, 73, 47
1, 18879, Note_on_c, 0, 69, 0
1, 18917, Note_on_c, 0, 73, 0
1, 18929, Note_on_c, 0, 57, 40
1, 18971, Note_on_c, 0, 57, 0
1, 18971, Note_on_c, 0, 61, 40
1, 19010, Note_on_c, 0, 64, 51
1, 19021, Note_on_c, 0, 61, 0
1, 19063, Note_on_c, 0, 69, 36
1, 19076, Note_on_c, 0, 64, 0
1, 19118, Note_on_c, 0, 69, 0
1, 19202, Note_on_c, 0, 75, 61
1, 19234, Note_on_c, 0, 76, 0
1, 19360, Note_on_c, 0, 75, 0
1, 19374, Note_on_c, 0, 74, 64
1, 19496, Note_on_c, 0, 74, 0
1, 19511, Note_on_c, 0, 73, 53
1, 19549, Note_on_c, 0, 73, 0
1, 19570, Note_on_c, 0, 38, 31
1, 19653, Note_on_c, 0, 52, 47
1, 19656, Note_on_c, 0, 71, 56
1, 19670, Control_c, 0, 64, 0
1, 19780, Note_on_c, 0, 59, 28
1, 19803, Note_on_c, 0, 38, 0
1, 19826, Control_c, 0, 64, 127
1, 19836, Note_on_c, 0, 59, 0
1, 19854, Note_on_c, 0, 52, 0
1, 19854, Note_on_c, 0, 64, 39
1, 19890, Note_on_c, 0, 68, 57
1, 19926, Note_on_c, 0, 64, 0
1, 20012, Note_on_c, 0, 68, 0
1, 20042, Note_on_c, 0, 50, 35
1, 20070, Note_on_c, 0, 68, 49
1, 20098, Note_on_c, 0, 52, 34
1, 20113, Note_on_c, 0, 56, 30
1, 20145, Note_on_c, 0, 50, 0
1, 20151, Note_on_c, 0, 59, 41
1, 20151, Note_on_c, 0, 66, 60
1, 20166, Note_on_c, 0, 71, 0
1, 20187, Note_on_c, 0, 52, 0
1, 20227, Note_on_c, 0, 68, 0
1, 20252, Note_on_c, 0, 59, 0
1, 20271, Note_on_c, 0, 56, 0
1, 20452, Note_on_c, 0, 64, 75
1, 20483, Note_on_c, 0, 66, 0
1, 20691, Note_on_c, 0, 64, 0
1, 20719, Note_on_c, 0, 68, 73
1, 20737, Note_on_c, 0, 49, 26
1, 20737, Control_c, 0, 64, 0
1, 20740, Note_on_c, 0, 37, 27
1, 20857, Note_on_c, 0, 37, 0
1, 20857, Note_on_c, 0, 61, 59
1, 20890, Note_on_c, 0, 49, 0
1, 20904, Control_c, 0, 64, 127
1, 20909, Note_on_c, 0, 61, 0
1, 20940, Note_on_c, 0, 64, 55
1, 20979, Note_on_c, 0, 69, 79
1, 20987, Note_on_c, 0, 64, 0
1, 21026, Note_on_c, 0, 68, 0
1, 21102, Note_on_c, 0, 52, 55
1, 21138, Note_on_c, 0, 57, 26
1, 21204, Note_on_c, 0, 61, 29
1, 21258, Note_on_c, 0, 76, 80
1, 21265, Control_c, 0, 64, 0
1, 21282, Note_on_c, 0, 61, 0
1, 21282, Note_on_c, 0, 69, 0
1, 21297, Note_on_c, 0, 64, 41
1, 21393, Note_on_c, 0, 64, 0
1, 21408, Control_c, 0, 64, 127
1, 21430, Note_on_c, 0, 57, 0
1, 21471, Note_on_c, 0, 52, 0
1, 21564, Note_on_c, 0, 69, 56
1, 21578, Note_on_c, 0, 76, 0
1, 21620, Note_on_c, 0, 69, 0
1, 21831, Note_on_c, 0, 68, 50
1, 21840, Control_c, 0, 64, 0
1, 21847, Note_on_c, 0, 47, 19
1, 21850, Note_on_c, 0, 35, 31
1, 21990, Note_on_c, 0, 56, 34
1, 21994, Note_on_c, 0, 35, 0
1, 21994, Control_c, 0, 64, 127
1, 22027, Note_on_c, 0, 47, 0
1, 22040, Note_on_c, 0, 56, 0
1, 22095, Note_on_c, 0, 59, 35
1, 22120, Note_on_c, 0, 64, 42
1, 22149, Note_on_c, 0, 59, 0
1, 22240, Note_on_c, 0, 64, 0
1, 22240, Note_on_c, 0, 52, 62
1, 22296, Note_on_c, 0, 52, 0
1, 22296, Note_on_c, 0, 56, 45
1, 22354, Note_on_c, 0, 56, 0
1, 22354, Note_on_c, 0, 59, 57
1, 22391, Note_on_c, 0, 59, 0
1, 22419, Note_on_c, 0, 68, 0
1, 22577, Note_on_c, 0, 68, 77
1, 22839, Note_on_c, 0, 66, 64
1, 22839, Note_on_c, 0, 35, 37
1, 22839, Note_on_c, 0, 47, 25
1, 22845, Note_on_c, 0, 68, 0
1, 22895, Control_c, 0, 64, 0
1, 22968, Note_on_c, 0, 35, 0
1, 23003, Note_on_c, 0, 47, 0
1, 23003, Note_on_c, 0, 59, 41
1, 23015, Control_c, 0, 64, 127
1, 23048, Note_on_c, 0, 59, 0
1, 23080, Note_on_c, 0, 64, 53
1, 23115, Note_on_c, 0, 67, 72
1, 23120, Note_on_c, 0, 64, 0
1, 23140, Note_on_c, 0, 66, 0
1, 23266, Note_on_c, 0, 52, 26
1, 23293, Note_on_c, 0, 55, 36
1, 23374, Note_on_c, 0, 59, 20
1, 23450, Note_on_c, 0, 76, 56
1, 23453, Note_on_c, 0, 67, 0
1, 23481, Control_c, 0, 64, 0
1, 23544, Note_on_c, 0, 64, 21
1, 23626, Control_c, 0, 64, 127
1, 23636, Note_on_c, 0, 64, 0
1, 23676, Note_on_c, 0, 59, 0
1, 23690, Note_on_c, 0, 55, 0
1, 23723, Note_on_c, 0, 52, 0
1, 23789, Note_on_c, 0, 67, 46
1, 23798, Note_on_c, 0, 76, 0
1, 23856, Note_on_c, 0, 67, 0
1, 24074, Note_on_c, 0, 46, 14
1, 24080, Note_on_c, 0, 34, 19
1, 24087, Note_on_c, 0, 66, 45
1, 24141, Control_c, 0, 64, 0
1, 24261, Note_on_c, 0, 54, 39
1, 24274, Note_on_c, 0, 34, 0
1, 24291, Note_on_c, 0, 46, 0
1, 24297, Control_c, 0, 64, 127
1, 24311, Note_on_c, 0, 54, 0
1, 24330, Note_on_c, 0, 61, 40
1, 24388, Note_on_c, 0, 64, 48
1, 24489, Note_on_c, 0, 61, 0
1, 24514, Note_on_c, 0, 64, 0
1, 24514, Note_on_c, 0, 52, 32
1, 24566, Note_on_c, 0, 54, 52
1, 24605, Note_on_c, 0, 52, 0
1, 24605, Note_on_c, 0, 61, 53
1, 24670, Note_on_c, 0, 54, 0
1, 24679, Note_on_c, 0, 61, 0
1, 24733, Note_on_c, 0, 66, 0
1, 24843, Note_on_c, 0, 66, 66
1, 24945, Note_on_c, 0, 66, 0
1, 24998, Note_on_c, 0, 66, 60
1, 25057, Note_on_c, 0, 69, 45
1, 25076, Control_c, 0, 64, 0
1, 25094, Note_on_c, 0, 68, 69
1, 25110, Note_on_c, 0, 69, 0
1, 25110, Note_on_c, 0, 45, 32
1, 25123, Note_on_c, 0, 66, 0
1, 25123, Note_on_c, 0, 33, 29
1, 25235, Note_on_c, 0, 33, 0
1, 25255, Control_c, 0, 64, 127
1, 25274, Note_on_c, 0, 45, 0
1, 25381, Note_on_c, 0, 68, 0
1, 25394, Note_on_c, 0, 66, 59
1, 25413, Note_on_c, 0, 63, 41
1, 25417, Note_on_c, 0, 57, 32
1, 25424, Note_on_c, 0, 59, 11
1, 25470, Note_on_c, 0, 57, 0
1, 25492, Note_on_c, 0, 63, 0
1, 25495, Note_on_c, 0, 59, 0
1, 25573, Note_on_c, 0, 66, 0
1, 25642, Note_on_c, 0, 68, 76
1, 25654, Note_on_c, 0, 57, 43
1, 25657, Note_on_c, 0, 59, 56
1, 25662, Note_on_c, 0, 63, 54
1, 25708, Note_on_c, 0, 59, 0
1, 25708, Note_on_c, 0, 57, 0
1, 25715, Note_on_c, 0, 63, 0
1, 25818, Note_on_c, 0, 68, 0
1, 25890, Note_on_c, 0, 69, 74
1, 25898, Note_on_c, 0, 57, 55
1, 25904, Note_on_c, 0, 63, 59
1, 25915, Note_on_c, 0, 59, 48
1, 25940, Note_on_c, 0, 57, 0
1, 25960, Note_on_c, 0, 59, 0
1, 25999, Note_on_c, 0, 63, 0
1, 26057, Note_on_c, 0, 69, 0
1, 26155, Note_on_c, 0, 71, 80
1, 26160, Note_on_c, 0, 32, 37
1, 26166, Control_c, 0, 64, 0
1, 26170, Note_on_c, 0, 44, 37
1, 26310, Note_on_c, 0, 32, 0
1, 26317, Note_on_c, 0, 59, 41
1, 26324, Note_on_c, 0, 44, 0
1, 26335, Control_c, 0, 64, 127
1, 26374, Note_on_c, 0, 64, 46
1, 26378, Note_on_c, 0, 59, 0
1, 26410, Note_on_c, 0, 68, 49
1, 26430, Note_on_c, 0, 64, 0
1, 26547, Note_on_c, 0, 68, 0
1, 26551, Note_on_c, 0, 52, 24
1, 26567, Note_on_c, 0, 56, 62
1, 26600, Note_on_c, 0, 52, 0
1, 26614, Note_on_c, 0, 56, 0
1, 26631, Note_on_c, 0, 59, 45
1, 26647, Note_on_c, 0, 71, 0
1, 26675, Note_on_c, 0, 59, 0
1, 26678, Note_on_c, 0, 64, 78
1, 26726, Note_on_c, 0, 64, 0
1, 26895, Note_on_c, 0, 71, 100
1, 27202, Note_on_c, 0, 76, 83
1, 27208, Note_on_c, 0, 31, 60
1, 27208, Control_c, 0, 64, 0
1, 27216, Note_on_c, 0, 43, 38
1, 27241, Note_on_c, 0, 71, 0
1, 27321, Note_on_c, 0, 31, 0
1, 27346, Note_on_c, 0, 43, 0
1, 27377, Control_c, 0, 64, 127
1, 27409, Note_on_c, 0, 76, 0
1, 27503, Note_on_c, 0, 74, 82
1, 27520, Note_on_c, 0, 64, 40
1, 27548, Note_on_c, 0, 59, 21
1, 27576, Note_on_c, 0, 64, 0
1, 27594, Note_on_c, 0, 55, 2
1, 27597, Note_on_c, 0, 59, 0
1, 27643, Note_on_c, 0, 55, 0
1, 27723, Note_on_c, 0, 74, 0
1, 27764, Note_on_c, 0, 73, 80
1, 27796, Note_on_c, 0, 64, 34
1, 27804, Note_on_c, 0, 55, 29
1, 27804, Note_on_c, 0, 59, 41
1, 27845, Note_on_c, 0, 64, 0
1, 27849, Note_on_c, 0, 59, 0
1, 27856, Note_on_c, 0, 55, 0
1, 27976, Note_on_c, 0, 73, 0
1, 28013, Note_on_c, 0, 71, 99
1, 28038, Note_on_c, 0, 64, 67
1, 28041, Note_on_c, 0, 59, 31
1, 28041, Note_on_c, 0, 55, 60
1, 28080, Note_on_c, 0, 55, 0
1, 28090, Note_on_c, 0, 71, 0
1, 28094, Note_on_c, 0, 59, 0
1, 28140, Note_on_c, 0, 64, 0
1, 28280, Note_on_c, 0, 71, 99
1, 28288, Note_on_c, 0, 42, 56
1, 28292, Note_on_c, 0, 30, 58
1, 28324, Control_c, 0, 64, 0
1, 28394, Note_on_c, 0, 61, 60
1, 28413, Note_on_c, 0, 30, 0
1, 28428, Note_on_c, 0, 42, 0
1, 28467, Control_c, 0, 64, 127
1, 28471, Note_on_c, 0, 61, 0
1, 28494, Note_on_c, 0, 64, 52
1, 28528, Note_on_c, 0, 67, 78
1, 28537, Note_on_c, 0, 64, 0
1, 28636, Note_on_c, 0, 67, 0
1, 28703, Note_on_c, 0, 61, 71
1, 28793, Note_on_c, 0, 61, 0
1, 28804, Note_on_c, 0, 64, 69
1, 28840, Note_on_c, 0, 70, 76
1, 28909, Note_on_c, 0, 66, 66
1, 28921, Note_on_c, 0, 71, 0
1, 28930, Note_on_c, 0, 64, 0
1, 28948, Note_on_c, 0, 70, 0
1, 29005, Note_on_c, 0, 66, 0
1, 29099, Note_on_c, 0, 73, 87
1, 29414, Control_c, 0, 64, 0
1, 29428, Note_on_c, 0, 78, 90
1, 29433, Note_on_c, 0, 51, 56
1, 29438, Note_on_c, 0, 39, 54
1, 29469, Note_on_c, 0, 73, 0
1, 29550, Note_on_c, 0, 39, 0
1, 29558, Control_c, 0, 64, 127
1, 29572, Note_on_c, 0, 51, 0
1, 29586, Note_on_c, 0, 78, 0
1, 29595, Note_on_c, 0, 66, 38
1, 29648, Note_on_c, 0, 66, 0
1, 29670, Note_on_c, 0, 69, 28
1, 29709, Note_on_c, 0, 71, 75
1, 29732, Note_on_c, 0, 69, 0
1, 29732, Note_on_c, 0, 75, 88
1, 29806, Note_on_c, 0, 71, 0
1, 29840, Note_on_c, 0, 57, 47
1, 29876, Note_on_c, 0, 59, 60
1, 29884, Note_on_c, 0, 57, 0
1, 29918, Note_on_c, 0, 59, 0
1, 29944, Note_on_c, 0, 63, 42
1, 29965, Note_on_c, 0, 73, 87
1, 29974, Note_on_c, 0, 75, 0
1, 29974, Note_on_c, 0, 66, 68
1, 29991, Note_on_c, 0, 63, 0
1, 30013, Note_on_c, 0, 66, 0
1, 30041, Note_on_c, 0, 73, 0
1, 30115, Note_on_c, 0, 63, 64
1, 30157, Note_on_c, 0, 63, 0
1, 30193, Note_on_c, 0, 66, 41
1, 30213, Note_on_c, 0, 71, 99
1, 30224, Note_on_c, 0, 69, 51
1, 30252, Note_on_c, 0, 66, 0
1, 30267, Note_on_c, 0, 69, 0
1, 30289, Note_on_c, 0, 71, 0
1, 30494, Control_c, 0, 64, 0
1, 30494, Note_on_c, 0, 80, 92
1, 30514, Note_on_c, 0, 52, 44
1, 30520, Note_on_c, 0, 40, 59
1, 30601, Note_on_c, 0, 40, 0
1, 30637, Note_on_c, 0, 52, 0
1, 30637, Control_c, 0, 64, 127
1, 30654, Note_on_c, 0, 80, 0
1, 30682, Note_on_c, 0, 68, 33
1, 30776, Note_on_c, 0, 68, 0
1, 30782, Note_on_c, 0, 71, 56
1, 30796, Note_on_c, 0, 76, 79
1, 30826, Note_on_c, 0, 71, 0
1, 30862, Note_on_c, 0, 56, 42
1, 30913, Note_on_c, 0, 56, 0
1, 30944, Note_on_c, 0, 59, 32
1, 31004, Note_on_c, 0, 64, 16
1, 31012, Note_on_c, 0, 59, 0
1, 31035, Note_on_c, 0, 68, 45
1, 31044, Note_on_c, 0, 75, 71
1, 31055, Note_on_c, 0, 76, 0
1, 31072, Note_on_c, 0, 64, 0
1, 31077, Note_on_c, 0, 68, 0
1, 31077, Note_on_c, 0, 75, 0
1, 31183, Note_on_c, 0, 64, 62
1, 31228, Note_on_c, 0, 64, 0
1, 31244, Note_on_c, 0, 68, 49
1, 31291, Note_on_c, 0, 73, 72
1, 31310, Note_on_c, 0, 68, 0
1, 31486, Note_on_c, 0, 47, 37
1, 31489, Note_on_c, 0, 35, 49
1, 31500, Control_c, 0, 64, 0
1, 31556, Note_on_c, 0, 71, 91
1, 31572, Note_on_c, 0, 73, 0
1, 31615, Note_on_c, 0, 35, 0
1, 31643, Control_c, 0, 64, 127
1, 31654, Note_on_c, 0, 47, 0
1, 31662, Note_on_c, 0, 71, 0
1, 31742, Note_on_c, 0, 59, 44
1, 31773, Note_on_c, 0, 63, 56
1, 31787, Note_on_c, 0, 59, 0
1, 31809, Note_on_c, 0, 66, 65
1, 31829, Note_on_c, 0, 63, 0
1, 31927, Note_on_c, 0, 54, 36
1, 31966, Note_on_c, 0, 57, 53
1, 31979, Note_on_c, 0, 54, 0
1, 32022, Note_on_c, 0, 57, 0
1, 32030, Note_on_c, 0, 68, 64
1, 32057, Note_on_c, 0, 59, 33
1, 32071, Note_on_c, 0, 66, 0
1, 32077, Note_on_c, 0, 63, 32
1, 32102, Note_on_c, 0, 59, 0
1, 32130, Note_on_c, 0, 63, 0
1, 32160, Note_on_c, 0, 59, 55
1, 32216, Note_on_c, 0, 63, 34
1, 32221, Note_on_c, 0, 59, 0
1, 32228, Note_on_c, 0, 68, 0
1, 32281, Note_on_c, 0, 71, 55
1, 32325, Note_on_c, 0, 63, 0
1, 32334, Note_on_c, 0, 69, 68
1, 32344, Note_on_c, 0, 71, 0
1, 32395, Note_on_c, 0, 69, 0
1, 32543, Control_c, 0, 64, 0
1, 32550, Note_on_c, 0, 40, 48
1, 32561, Note_on_c, 0, 52, 36
1, 32606, Note_on_c, 0, 68, 65
1, 32639, Note_on_c, 0, 40, 0
1, 32665, Note_on_c, 0, 52, 0
1, 32685, Control_c, 0, 64, 127
1, 32709, Note_on_c, 0, 68, 0
1, 32757, Note_on_c, 0, 56, 30
1, 32827, Note_on_c, 0, 56, 0
1, 32831, Note_on_c, 0, 59, 41
1, 32882, Note_on_c, 0, 59, 0
1, 32893, Note_on_c, 0, 64, 32
1, 32940, Note_on_c, 0, 64, 0
1, 33163, Note_on_c, 0, 56, 53
1, 33252, Note_on_c, 0, 59, 41
1, 33277, Note_on_c, 0, 56, 0
1, 33299, Note_on_c, 0, 59, 0
1, 33567, Note_on_c, 0, 71, 69
1, 33816, Note_on_c, 0, 71, 0
1, 34303, Note_on_c, 0, 78, 54
1, 34316, Control_c, 0, 64, 0
1, 34342, Note_on_c, 0, 39, 26
1, 34348, Note_on_c, 0, 51, 13
1, 34473, Note_on_c, 0, 66, 28
1, 34484, Control_c, 0, 64, 127
1, 34501, Note_on_c, 0, 39, 0
1, 34511, Note_on_c, 0, 78, 0
1, 34537, Note_on_c, 0, 51, 0
1, 34567, Note_on_c, 0, 69, 7
1, 34592, Note_on_c, 0, 66, 0
1, 34617, Note_on_c, 0, 71, 46
1, 34648, Note_on_c, 0, 69, 0
1, 34679, Note_on_c, 0, 75, 40
1, 34688, Note_on_c, 0, 71, 0
1, 34863, Note_on_c, 0, 59, 30
1, 34919, Note_on_c, 0, 73, 53
1, 34929, Note_on_c, 0, 63, 20
1, 34935, Note_on_c, 0, 75, 0
1, 34947, Note_on_c, 0, 59, 0
1, 34958, Note_on_c, 0, 73, 0
1, 34963, Note_on_c, 0, 66, 27
1, 34985, Note_on_c, 0, 63, 0
1, 35016, Note_on_c, 0, 66, 0
1, 35088, Note_on_c, 0, 63, 22
1, 35131, Note_on_c, 0, 63, 0
1, 35177, Note_on_c, 0, 66, 19
1, 35216, Note_on_c, 0, 71, 67
1, 35244, Note_on_c, 0, 66, 0
1, 35528, Note_on_c, 0, 71, 0
1, 35551, Control_c, 0, 64, 0
1, 35551, Note_on_c, 0, 52, 34
1, 35551, Note_on_c, 0, 80, 56
1, 35556, Note_on_c, 0, 40, 43
1, 35670, Note_on_c, 0, 40, 0
1, 35682, Control_c, 0, 64, 127
1, 35686, Note_on_c, 0, 80, 0
1, 35698, Note_on_c, 0, 52, 0
1, 35751, Note_on_c, 0, 68, 29
1, 35860, Note_on_c, 0, 68, 0
1, 35860, Note_on_c, 0, 71, 17
1, 35893, Note_on_c, 0, 76, 66
1, 35930, Note_on_c, 0, 71, 0
1, 36053, Note_on_c, 0, 58, 22
1, 36091, Note_on_c, 0, 61, 24
1, 36127, Control_c, 0, 64, 0
1, 36155, Note_on_c, 0, 64, 17
1, 36174, Note_on_c, 0, 75, 53
1, 36197, Note_on_c, 0, 76, 0
1, 36211, Note_on_c, 0, 75, 0
1, 36211, Note_on_c, 0, 67, 35
1, 36233, Note_on_c, 0, 64, 0
1, 36233, Control_c, 0, 64, 127
1, 36264, Note_on_c, 0, 67, 0
1, 36269, Note_on_c, 0, 61, 0
1, 36314, Note_on_c, 0, 58, 0
1, 36375, Note_on_c, 0, 64, 37
1, 36422, Note_on_c, 0, 67, 28
1, 36434, Note_on_c, 0, 64, 0
1, 36475, Note_on_c, 0, 70, 32
1, 36490, Note_on_c, 0, 67, 0
1, 36517, Note_on_c, 0, 73, 49
1, 36537, Note_on_c, 0, 70, 0
1, 36734, Note_on_c, 0, 35, 38
1, 36738, Control_c, 0, 64, 0
1, 36738, Note_on_c, 0, 47, 21
1, 36832, Note_on_c, 0, 71, 66
1, 36841, Note_on_c, 0, 73, 0
1, 36880, Control_c, 0, 64, 127
1, 36897, Note_on_c, 0, 71, 0
1, 37041, Note_on_c, 0, 57, 36
1, 37100, Note_on_c, 0, 59, 29
1, 37103, Note_on_c, 0, 57, 0
1, 37130, Note_on_c, 0, 63, 54
1, 37156, Note_on_c, 0, 59, 0
1, 37160, Note_on_c, 0, 66, 54
1, 37177, Note_on_c, 0, 63, 0
1, 37431, Note_on_c, 0, 69, 55
1, 37525, Note_on_c, 0, 66, 0
1, 37827, Note_on_c, 0, 63, 61
1, 37840, Note_on_c, 0, 69, 0
1, 37890, Note_on_c, 0, 47, 0
1, 37932, Note_on_c, 0, 35, 0
1, 37988, Note_on_c, 0, 63, 0
1, 38275, Note_on_c, 0, 64, 64
1, 38312, Note_on_c, 0, 40, 43
1, 38317, Note_on_c, 0, 28, 14
1, 38317, Control_c, 0, 64, 0
1, 38490, Note_on_c, 0, 28, 0
1, 38503, Note_on_c, 0, 52, 35
1, 38510, Control_c, 0, 64, 127
1, 38528, Note_on_c, 0, 40, 0
1, 38554, Note_on_c, 0, 52, 0
1, 38554, Note_on_c, 0, 56, 36
1, 38601, Note_on_c, 0, 59, 35
1, 38613, Note_on_c, 0, 56, 0
1, 38696, Note_on_c, 0, 59, 0
1, 38796, Note_on_c, 0, 56, 45
1, 38838, Note_on_c, 0, 64, 0
1, 38844, Note_on_c, 0, 56, 0
1, 38857, Note_on_c, 0, 59, 47
1, 38899, Note_on_c, 0, 62, 71
1, 38907, Note_on_c, 0, 59, 0
1, 38944, Note_on_c, 0, 62, 0
1, 39113, Note_on_c, 0, 65, 76
1, 39367, Note_on_c, 0, 66, 72
1, 39372, Note_on_c, 0, 65, 0
1, 39386, Control_c, 0, 64, 0
1, 39389, Note_on_c, 0, 28, 31
1, 39393, Note_on_c, 0, 40, 64
1, 39500, Note_on_c, 0, 28, 0
1, 39509, Note_on_c, 0, 54, 67
1, 39529, Control_c, 0, 64, 127
1, 39535, Note_on_c, 0, 40, 0
1, 39553, Note_on_c, 0, 54, 0
1, 39576, Note_on_c, 0, 57, 37
1, 39609, Note_on_c, 0, 61, 69
1, 39624, Note_on_c, 0, 57, 0
1, 39710, Note_on_c, 0, 61, 0
1, 39776, Note_on_c, 0, 59, 73
1, 39841, Control_c, 0, 64, 0
1, 39849, Note_on_c, 0, 62, 72
1, 39904, Note_on_c, 0, 65, 77
1, 39925, Note_on_c, 0, 66, 0
1, 39957, Note_on_c, 0, 62, 0
1, 39974, Control_c, 0, 64, 127
1, 40010, Note_on_c, 0, 65, 0
1, 40027, Note_on_c, 0, 59, 0
1, 40111, Note_on_c, 0, 68, 87
1, 40357, Note_on_c, 0, 69, 85
1, 40368, Control_c, 0, 64, 0
1, 40378, Note_on_c, 0, 28, 39
1, 40384, Note_on_c, 0, 68, 0
1, 40384, Note_on_c, 0, 40, 57
1, 40467, Note_on_c, 0, 28, 0
1, 40487, Note_on_c, 0, 40, 0
1, 40487, Note_on_c, 0, 57, 64
1, 40512, Control_c, 0, 64, 127
1, 40548, Note_on_c, 0, 57, 0
1, 40557, Note_on_c, 0, 61, 44
1, 40584, Note_on_c, 0, 64, 80
1, 40604, Note_on_c, 0, 61, 0
1, 40671, Note_on_c, 0, 64, 0
1, 40746, Note_on_c, 0, 61, 61
1, 40810, Note_on_c, 0, 64, 66
1, 40813, Control_c, 0, 64, 0
1, 40861, Note_on_c, 0, 67, 73
1, 40897, Note_on_c, 0, 64, 0
1, 40932, Control_c, 0, 64, 127
1, 40935, Note_on_c, 0, 69, 0
1, 40952, Note_on_c, 0, 67, 0
1, 40989, Note_on_c, 0, 61, 0
1, 41064, Note_on_c, 0, 70, 72
1, 41303, Control_c, 0, 64, 0
1, 41332, Note_on_c, 0, 73, 56
1, 41343, Note_on_c, 0, 35, 30
1, 41347, Note_on_c, 0, 47, 25
1, 41368, Note_on_c, 0, 70, 0
1, 41449, Note_on_c, 0, 63, 33
1, 41457, Note_on_c, 0, 35, 0
1, 41481, Note_on_c, 0, 47, 0
1, 41484, Control_c, 0, 64, 127
1, 41548, Note_on_c, 0, 63, 0
1, 41573, Note_on_c, 0, 66, 29
1, 41640, Note_on_c, 0, 66, 0
1, 41659, Note_on_c, 0, 71, 64
1, 41763, Note_on_c, 0, 73, 0
1, 41786, Note_on_c, 0, 54, 18
1, 41821, Note_on_c, 0, 57, 23
1, 41899, Note_on_c, 0, 59, 26
1, 41932, Note_on_c, 0, 69, 33
1, 41957, Note_on_c, 0, 63, 38
1, 41978, Note_on_c, 0, 59, 0
1, 41994, Note_on_c, 0, 71, 0
1, 42011, Note_on_c, 0, 63, 0
1, 42022, Note_on_c, 0, 54, 0
1, 42045, Note_on_c, 0, 57, 0
1, 42201, Note_on_c, 0, 69, 0
1, 42214, Note_on_c, 0, 66, 39
1, 42258, Note_on_c, 0, 66, 0
1, 42459, Note_on_c, 0, 64, 59
1, 42478, Note_on_c, 0, 40, 43
1, 42478, Control_c, 0, 64, 0
1, 42623, Note_on_c, 0, 52, 49
1, 42627, Note_on_c, 0, 40, 0
1, 42646, Control_c, 0, 64, 127
1, 42666, Note_on_c, 0, 52, 0
1, 42666, Note_on_c, 0, 56, 49
1, 42721, Note_on_c, 0, 56, 0
1, 42726, Note_on_c, 0, 59, 48
1, 42810, Note_on_c, 0, 59, 0
1, 42868, Note_on_c, 0, 64, 0
1, 42868, Note_on_c, 0, 56, 53
1, 42921, Note_on_c, 0, 56, 0
1, 42936, Note_on_c, 0, 59, 46
1, 42983, Note_on_c, 0, 59, 0
1, 42991, Note_on_c, 0, 62, 67
1, 43027, Note_on_c, 0, 62, 0
1, 43278, Note_on_c, 0, 65, 68
1, 43278, Note_on_c, 0, 56, 54
1, 43292, Note_on_c, 0, 47, 49
1, 43292, Note_on_c, 0, 61, 40
1, 43305, Note_on_c, 0, 35, 53
1, 43305, Control_c, 0, 64, 0
1, 43424, Control_c, 0, 64, 127
1, 43435, Note_on_c, 0, 47, 0
1, 43448, Note_on_c, 0, 35, 0
1, 43482, Note_on_c, 0, 61, 0
1, 43495, Note_on_c, 0, 65, 0
1, 43509, Note_on_c, 0, 56, 0
1, 43529, Note_on_c, 0, 66, 69
1, 43545, Control_c, 0, 64, 0
1, 43548, Note_on_c, 0, 45, 56
1, 43560, Note_on_c, 0, 33, 54
1, 43643, Note_on_c, 0, 33, 0
1, 43658, Note_on_c, 0, 45, 0
1, 43658, Note_on_c, 0, 54, 74
1, 43688, Control_c, 0, 64, 127
1, 43707, Note_on_c, 0, 54, 0
1, 43719, Note_on_c, 0, 57, 39
1, 43765, Note_on_c, 0, 61, 76
1, 43769, Note_on_c, 0, 57, 0
1, 43835, Note_on_c, 0, 61, 0
1, 43919, Note_on_c, 0, 59, 69
1, 43952, Control_c, 0, 64, 0
1, 43966, Note_on_c, 0, 62, 68
1, 44003, Note_on_c, 0, 65, 79
1, 44052, Note_on_c, 0, 66, 0
1, 44063, Note_on_c, 0, 62, 0
1, 44066, Note_on_c, 0, 65, 0
1, 44084, Control_c, 0, 64, 127
1, 44089, Note_on_c, 0, 59, 0
1, 44222, Note_on_c, 0, 68, 92
1, 44228, Note_on_c, 0, 50, 69
1, 44228, Note_on_c, 0, 38, 74
1, 44234, Note_on_c, 0, 59, 69
1, 44250, Note_on_c, 0, 64, 57
1, 44287, Note_on_c, 0, 59, 0
1, 44315, Note_on_c, 0, 64, 0
1, 44351, Note_on_c, 0, 38, 0
1, 44351, Note_on_c, 0, 50, 0
1, 44468, Note_on_c, 0, 69, 83
1, 44477, Note_on_c, 0, 49, 76
1, 44480, Control_c, 0, 64, 0
1, 44484, Note_on_c, 0, 37, 75
1, 44526, Note_on_c, 0, 68, 0
1, 44585, Note_on_c, 0, 37, 0
1, 44590, Note_on_c, 0, 57, 56
1, 44612, Note_on_c, 0, 49, 0
1, 44646, Note_on_c, 0, 61, 62
1, 44646, Control_c, 0, 64, 127
1, 44672, Note_on_c, 0, 57, 0
1, 44672, Note_on_c, 0, 64, 87
1, 44693, Note_on_c, 0, 61, 0
1, 44760, Note_on_c, 0, 64, 0
1, 44830, Note_on_c, 0, 61, 76
1, 44869, Note_on_c, 0, 69, 0
1, 44886, Note_on_c, 0, 64, 75
1, 44928, Note_on_c, 0, 67, 87
1, 44935, Note_on_c, 0, 61, 0
1, 44969, Note_on_c, 0, 67, 0
1, 44981, Note_on_c, 0, 64, 0
1, 45144, Note_on_c, 0, 70, 88
1, 45150, Note_on_c, 0, 61, 75
1, 45161, Note_on_c, 0, 52, 90
1, 45161, Note_on_c, 0, 66, 52
1, 45165, Note_on_c, 0, 40, 89
1, 45175, Control_c, 0, 64, 0
1, 45318, Note_on_c, 0, 40, 0
1, 45318, Note_on_c, 0, 52, 0
1, 45318, Control_c, 0, 64, 127
1, 45348, Note_on_c, 0, 61, 0
1, 45370, Note_on_c, 0, 66, 0
1, 45401, Note_on_c, 0, 71, 102
1, 45415, Note_on_c, 0, 50, 87
1, 45421, Note_on_c, 0, 38, 80
1, 45438, Control_c, 0, 64, 0
1, 45460, Note_on_c, 0, 70, 0
1, 45523, Note_on_c, 0, 38, 0
1, 45544, Note_on_c, 0, 59, 63
1, 45560, Note_on_c, 0, 50, 0
1, 45594, Control_c, 0, 64, 127
1, 45604, Note_on_c, 0, 62, 68
1, 45608, Note_on_c, 0, 59, 0
1, 45633, Note_on_c, 0, 66, 79
1, 45683, Note_on_c, 0, 62, 0
1, 45702, Note_on_c, 0, 66, 0
1, 45785, Note_on_c, 0, 64, 81
1, 45794, Note_on_c, 0, 71, 0
1, 45832, Note_on_c, 0, 67, 74
1, 45858, Control_c, 0, 64, 0
1, 45874, Note_on_c, 0, 70, 84
1, 45969, Note_on_c, 0, 67, 0
1, 45975, Note_on_c, 0, 70, 0
1, 45975, Control_c, 0, 64, 127
1, 45989, Note_on_c, 0, 64, 0
1, 46105, Note_on_c, 0, 73, 96
1, 46119, Note_on_c, 0, 55, 60
1, 46119, Note_on_c, 0, 43, 69
1, 46133, Note_on_c, 0, 64, 59
1, 46133, Note_on_c, 0, 69, 39
1, 46243, Note_on_c, 0, 64, 0
1, 46265, Note_on_c, 0, 55, 0
1, 46286, Note_on_c, 0, 43, 0
1, 46315, Note_on_c, 0, 69, 0
1, 46417, Note_on_c, 0, 74, 104
1, 46438, Note_on_c, 0, 54, 88
1, 46441, Note_on_c, 0, 42, 77
1, 46445, Control_c, 0, 64, 0
1, 46493, Note_on_c, 0, 73, 0
1, 46576, Note_on_c, 0, 42, 0
1, 46583, Note_on_c, 0, 54, 0
1, 46583, Note_on_c, 0, 62, 45
1, 46613, Control_c, 0, 64, 127
1, 46637, Note_on_c, 0, 66, 52
1, 46643, Note_on_c, 0, 62, 0
1, 46669, Note_on_c, 0, 69, 67
1, 46693, Note_on_c, 0, 66, 0
1, 46754, Note_on_c, 0, 54, 79
1, 46764, Note_on_c, 0, 69, 0
1, 46808, Note_on_c, 0, 57, 67
1, 46821, Note_on_c, 0, 54, 0
1, 46853, Note_on_c, 0, 62, 69
1, 46856, Note_on_c, 0, 57, 0
1, 46886, Note_on_c, 0, 66, 81
1, 46936, Note_on_c, 0, 62, 0
1, 46972, Note_on_c, 0, 66, 0
1, 46988, Note_on_c, 0, 73, 91
1, 47003, Note_on_c, 0, 74, 0
1, 47109, Note_on_c, 0, 74, 105
1, 47134, Note_on_c, 0, 73, 0
1, 47220, Note_on_c, 0, 76, 98
1, 47270, Note_on_c, 0, 74, 0
1, 47320, Control_c, 0, 64, 0
1, 47339, Note_on_c, 0, 78, 96
1, 47362, Note_on_c, 0, 50, 58
1, 47362, Note_on_c, 0, 38, 54
1, 47373, Note_on_c, 0, 76, 0
1, 47451, Note_on_c, 0, 38, 0
1, 47476, Control_c, 0, 64, 127
1, 47487, Note_on_c, 0, 50, 0
1, 47499, Note_on_c, 0, 66, 36
1, 47544, Note_on_c, 0, 66, 0
1, 47560, Note_on_c, 0, 69, 56
1, 47608, Note_on_c, 0, 74, 69
1, 47616, Note_on_c, 0, 69, 0
1, 47707, Note_on_c, 0, 74, 0
1, 47724, Note_on_c, 0, 57, 31
1, 47780, Note_on_c, 0, 62, 30
1, 47828, Note_on_c, 0, 57, 0
1, 47828, Note_on_c, 0, 66, 52
1, 47874, Note_on_c, 0, 62, 0
1, 47908, Note_on_c, 0, 69, 58
1, 47924, Note_on_c, 0, 66, 0
1, 47956, Note_on_c, 0, 69, 0
1, 48034, Note_on_c, 0, 73, 73
1, 48094, Note_on_c, 0, 78, 0
1, 48151, Note_on_c, 0, 74, 88
1, 48173, Note_on_c, 0, 73, 0
1, 48265, Note_on_c, 0, 76, 85
1, 48281, Note_on_c, 0, 74, 0
1, 48349, Control_c, 0, 64, 0
1, 48385, Note_on_c, 0, 47, 35
1, 48393, Note_on_c, 0, 78, 83
1, 48399, Note_on_c, 0, 35, 44
1, 48418, Note_on_c, 0, 76, 0
1, 48491, Note_on_c, 0, 35, 0
1, 48524, Note_on_c, 0, 47, 0
1, 48524, Control_c, 0, 64, 127
1, 48540, Note_on_c, 0, 66, 12
1, 48591, Note_on_c, 0, 66, 0
1, 48597, Note_on_c, 0, 71, 56
1, 48641, Note_on_c, 0, 71, 0
1, 48641, Note_on_c, 0, 74, 64
1, 48781, Note_on_c, 0, 59, 31
1, 48810, Note_on_c, 0, 74, 0
1, 48810, Note_on_c, 0, 62, 24
1, 48844, Note_on_c, 0, 59, 0
1, 48853, Note_on_c, 0, 66, 35
1, 48900, Note_on_c, 0, 71, 63
1, 48903, Note_on_c, 0, 62, 0
1, 48945, Note_on_c, 0, 71, 0
1, 48989, Note_on_c, 0, 66, 0
1, 49039, Note_on_c, 0, 70, 62
1, 49070, Note_on_c, 0, 78, 0
1, 49173, Note_on_c, 0, 71, 62
1, 49181, Note_on_c, 0, 70, 0
1, 49290, Note_on_c, 0, 73, 69
1, 49307, Note_on_c, 0, 71, 0
1, 49452, Note_on_c, 0, 74, 75
1, 49452, Control_c, 0, 64, 0
1, 49468, Note_on_c, 0, 73, 0
1, 49468, Note_on_c, 0, 45, 25
1, 49480, Note_on_c, 0, 33, 20
1, 49596, Note_on_c, 0, 33, 0
1, 49615, Note_on_c, 0, 62, 45
1, 49621, Control_c, 0, 64, 127
1, 49627, Note_on_c, 0, 45, 0
1, 49674, Note_on_c, 0, 62, 0
1, 49685, Note_on_c, 0, 65, 30
1, 49747, Note_on_c, 0, 71, 64
1, 49794, Note_on_c, 0, 65, 0
1, 49881, Note_on_c, 0, 53, 67
1, 49885, Note_on_c, 0, 71, 0
1, 49937, Note_on_c, 0, 53, 0
1, 49956, Note_on_c, 0, 59, 31
1, 50003, Note_on_c, 0, 62, 46
1, 50064, Note_on_c, 0, 65, 46
1, 50081, Note_on_c, 0, 59, 0
1, 50122, Note_on_c, 0, 62, 0
1, 50151, Note_on_c, 0, 65, 0
1, 50198, Note_on_c, 0, 70, 59
1, 50366, Note_on_c, 0, 70, 0
1, 50385, Note_on_c, 0, 71, 68
1, 50396, Note_on_c, 0, 74, 0
1, 50549, Note_on_c, 0, 73, 52
1, 50574, Note_on_c, 0, 71, 0
1, 50688, Control_c, 0, 64, 0
1, 50705, Note_on_c, 0, 74, 61
1, 50710, Note_on_c, 0, 32, 40
1, 50710, Note_on_c, 0, 44, 41
1, 50724, Note_on_c, 0, 73, 0
1, 50836, Note_on_c, 0, 32, 0
1, 50839, Note_on_c, 0, 70, 58
1, 50855, Note_on_c, 0, 44, 0
1, 50855, Control_c, 0, 64, 127
1, 50947, Note_on_c, 0, 70, 0
1, 50970, Note_on_c, 0, 71, 73
1, 50978, Note_on_c, 0, 74, 0
1, 50986, Note_on_c, 0, 62, 44
1, 50986, Note_on_c, 0, 64, 38
1, 51039, Note_on_c, 0, 62, 0
1, 51054, Note_on_c, 0, 64, 0
1, 51100, Note_on_c, 0, 73, 74
1, 51128, Note_on_c, 0, 52, 57
1, 51159, Note_on_c, 0, 71, 0
1, 51164, Note_on_c, 0, 59, 47
1, 51234, Note_on_c, 0, 74, 86
1, 51271, Note_on_c, 0, 73, 0
1, 51271, Note_on_c, 0, 64, 40
1, 51274, Note_on_c, 0, 62, 38
1, 51357, Note_on_c, 0, 70, 78
1, 51399, Note_on_c, 0, 74, 0
1, 51497, Note_on_c, 0, 71, 102
1, 51522, Note_on_c, 0, 70, 0
1, 51599, Note_on_c, 0, 64, 0
1, 51616, Note_on_c, 0, 62, 0
1, 51625, Note_on_c, 0, 73, 89
1, 51628, Note_on_c, 0, 52, 0
1, 51635, Note_on_c, 0, 59, 0
1, 51644, Note_on_c, 0, 71, 0
1, 51758, Note_on_c, 0, 74, 95
1, 51783, Note_on_c, 0, 73, 0
1, 51789, Control_c, 0, 64, 0
1, 51880, Note_on_c, 0, 75, 78
1, 51936, Note_on_c, 0, 74, 0
1, 52015, Note_on_c, 0, 76, 82
1, 52043, Note_on_c, 0, 75, 0
1, 52142, Note_on_c, 0, 77, 74
1, 52185, Note_on_c, 0, 76, 0
1, 52284, Note_on_c, 0, 80, 54
1, 52299, Note_on_c, 0, 77, 0
1, 52435, Note_on_c, 0, 78, 60
1, 52493, Note_on_c, 0, 80, 0
1, 52582, Note_on_c, 0, 71, 62
1, 52594, Note_on_c, 0, 78, 0
1, 52713, Note_on_c, 0, 73, 46
1, 52741, Note_on_c, 0, 71, 0
1, 52861, Note_on_c, 0, 76, 50
1, 52884, Note_on_c, 0, 73, 0
1, 53008, Note_on_c, 0, 74, 52
1, 53134, Note_on_c, 0, 76, 0
1, 53138, Note_on_c, 0, 68, 47
1, 53174, Note_on_c, 0, 74, 0
1, 53302, Note_on_c, 0, 69, 34
1, 53316, Note_on_c, 0, 68, 0
1, 53479, Note_on_c, 0, 73, 27
1, 53497, Note_on_c, 0, 69, 0
1, 53694, Note_on_c, 0, 71, 37
1, 53730, Note_on_c, 0, 73, 0
1, 53866, Note_on_c, 0, 68, 32
1, 53898, Note_on_c, 0, 71, 0
1, 54078, Note_on_c, 0, 68, 0
1, 54078, Control_c, 0, 64, 127
1, 54112, Note_on_c, 0, 64, 2
1, 54226, Note_on_c, 0, 64, 0
1, 54290, Note_on_c, 0, 64, 46
1, 54511, Note_on_c, 0, 33, 19
1, 54518, Note_on_c, 0, 45, 8
1, 54558, Control_c, 0, 64, 0
1, 54720, Note_on_c, 0, 64, 0
1, 54736, Note_on_c, 0, 73, 42
1, 54880, Note_on_c, 0, 33, 0
1, 54906, Control_c, 0, 64, 127
1, 54928, Note_on_c, 0, 45, 0
1, 55007, Note_on_c, 0, 61, 25
1, 55064, Note_on_c, 0, 61, 0
1, 55109, Note_on_c, 0, 64, 28
1, 55156, Note_on_c, 0, 69, 13
1, 55216, Note_on_c, 0, 64, 0
1, 55260, Note_on_c, 0, 69, 0
1, 55326, Note_on_c, 0, 52, 14
1, 55374, Note_on_c, 0, 73, 0
1, 55388, Note_on_c, 0, 52, 0
1, 55433, Note_on_c, 0, 61, 20
1, 55497, Note_on_c, 0, 64, 47
1, 55508, Note_on_c, 0, 61, 0
1, 55536, Note_on_c, 0, 64, 0
1, 55630, Note_on_c, 0, 74, 47
1, 55680, Note_on_c, 0, 74, 0
1, 55753, Note_on_c, 0, 75, 58
1, 55816, Note_on_c, 0, 75, 0
1, 55864, Note_on_c, 0, 76, 58
1, 55972, Note_on_c, 0, 76, 0
1, 55981, Note_on_c, 0, 49, 22
1, 55997, Control_c, 0, 64, 0
1, 56007, Note_on_c, 0, 37, 15
1, 56043, Note_on_c, 0, 81, 57
1, 56128, Control_c, 0, 64, 127
1, 56134, Note_on_c, 0, 81, 0
1, 56142, Note_on_c, 0, 37, 0
1, 56157, Note_on_c, 0, 49, 0
1, 56240, Note_on_c, 0, 69, 14
1, 56280, Note_on_c, 0, 73, 40
1, 56318, Note_on_c, 0, 69, 0
1, 56337, Note_on_c, 0, 73, 0
1, 56337, Note_on_c, 0, 76, 55
1, 56452, Note_on_c, 0, 57, 26
1, 56497, Note_on_c, 0, 61, 31
1, 56508, Note_on_c, 0, 57, 0
1, 56560, Note_on_c, 0, 61, 0
1, 56560, Note_on_c, 0, 64, 12
1, 56575, Note_on_c, 0, 74, 62
1, 56608, Note_on_c, 0, 69, 26
1, 56639, Note_on_c, 0, 64, 0
1, 56667, Note_on_c, 0, 69, 0
1, 56686, Note_on_c, 0, 76, 0
1, 56826, Note_on_c, 0, 73, 65
1, 56848, Note_on_c, 0, 74, 0
1, 56873, Note_on_c, 0, 73, 0
1, 57078, Note_on_c, 0, 71, 73
1, 57099, Control_c, 0, 64, 0
1, 57102, Note_on_c, 0, 50, 21
1, 57117, Note_on_c, 0, 38, 19
1, 57205, Note_on_c, 0, 59, 33
1, 57213, Note_on_c, 0, 38, 0
1, 57221, Note_on_c, 0, 50, 0
1, 57255, Control_c, 0, 64, 127
1, 57260, Note_on_c, 0, 59, 0
1, 57277, Note_on_c, 0, 62, 29
1, 57310, Note_on_c, 0, 66, 40
1, 57344, Note_on_c, 0, 62, 0
1, 57427, Note_on_c, 0, 66, 0
1, 57464, Note_on_c, 0, 54, 39
1, 57499, Note_on_c, 0, 71, 0
1, 57532, Note_on_c, 0, 59, 43
1, 57567, Note_on_c, 0, 54, 0
1, 57594, Note_on_c, 0, 62, 42
1, 57622, Note_on_c, 0, 59, 0
1, 57645, Note_on_c, 0, 62, 0
1, 57798, Note_on_c, 0, 74, 68
1, 58045, Control_c, 0, 64, 0
1, 58059, Note_on_c, 0, 74, 0
1, 58065, Note_on_c, 0, 78, 57
1, 58079, Note_on_c, 0, 35, 45
1, 58085, Note_on_c, 0, 47, 17
1, 58165, Note_on_c, 0, 35, 0
1, 58193, Note_on_c, 0, 47, 0
1, 58224, Note_on_c, 0, 66, 21
1, 58224, Control_c, 0, 64, 127
1, 58282, Note_on_c, 0, 66, 0
1, 58301, Note_on_c, 0, 71, 33
1, 58365, Note_on_c, 0, 74, 32
1, 58372, Note_on_c, 0, 71, 0
1, 58438, Note_on_c, 0, 74, 0
1, 58517, Note_on_c, 0, 59, 21
1, 58567, Note_on_c, 0, 62, 22
1, 58581, Note_on_c, 0, 78, 0
1, 58589, Note_on_c, 0, 59, 0
1, 58609, Note_on_c, 0, 66, 24
1, 58680, Note_on_c, 0, 71, 37
1, 58702, Note_on_c, 0, 62, 0
1, 58736, Note_on_c, 0, 71, 0
1, 58767, Note_on_c, 0, 66, 0
1, 58932, Note_on_c, 0, 74, 63
1, 59244, Control_c, 0, 64, 0
1, 59265, Note_on_c, 0, 71, 73
1, 59265, Note_on_c, 0, 32, 31
1, 59269, Note_on_c, 0, 44, 37
1, 59277, Note_on_c, 0, 74, 0
1, 59382, Note_on_c, 0, 32, 0
1, 59407, Note_on_c, 0, 44, 0
1, 59424, Control_c, 0, 64, 127
1, 59460, Note_on_c, 0, 62, 12
1, 59494, Note_on_c, 0, 64, 51
1, 59514, Note_on_c, 0, 62, 0
1, 59527, Note_on_c, 0, 68, 42
1, 59541, Note_on_c, 0, 64, 0
1, 59630, Note_on_c, 0, 68, 0
1, 59653, Note_on_c, 0, 52, 30
1, 59701, Note_on_c, 0, 59, 24
1, 59706, Note_on_c, 0, 52, 0
1, 59736, Note_on_c, 0, 62, 45
1, 59751, Note_on_c, 0, 59, 0
1, 59778, Note_on_c, 0, 62, 0
1, 59815, Note_on_c, 0, 64, 64
1, 59851, Note_on_c, 0, 64, 0
1, 59925, Note_on_c, 0, 71, 0
1, 59925, Note_on_c, 0, 70, 51
1, 59987, Note_on_c, 0, 70, 0
1, 60043, Note_on_c, 0, 71, 84
1, 60087, Note_on_c, 0, 71, 0
1, 60148, Note_on_c, 0, 72, 84
1, 60233, Note_on_c, 0, 72, 0
1, 60263, Control_c, 0, 64, 0
1, 60274, Note_on_c, 0, 33, 36
1, 60277, Note_on_c, 0, 45, 29
1, 60277, Note_on_c, 0, 73, 67
1, 60369, Note_on_c, 0, 33, 0
1, 60396, Note_on_c, 0, 45, 0
1, 60402, Note_on_c, 0, 73, 0
1, 60419, Control_c, 0, 64, 127
1, 60419, Note_on_c, 0, 64, 44
1, 60464, Note_on_c, 0, 64, 0
1, 60471, Note_on_c, 0, 69, 26
1, 60471, Note_on_c, 0, 73, 31
1, 60522, Note_on_c, 0, 76, 59
1, 60538, Note_on_c, 0, 69, 0
1, 60589, Note_on_c, 0, 73, 0
1, 60661, Note_on_c, 0, 57, 26
1, 60697, Note_on_c, 0, 61, 15
1, 60730, Note_on_c, 0, 57, 0
1, 60750, Note_on_c, 0, 64, 34
1, 60769, Note_on_c, 0, 61, 0
1, 60804, Note_on_c, 0, 64, 0
1, 60804, Note_on_c, 0, 74, 62
1, 60828, Note_on_c, 0, 69, 11
1, 60884, Note_on_c, 0, 69, 0
1, 60903, Note_on_c, 0, 76, 0
1, 61066, Note_on_c, 0, 73, 62
1, 61090, Note_on_c, 0, 74, 0
1, 61115, Note_on_c, 0, 73, 0
1, 61311, Note_on_c, 0, 54, 29
1, 61314, Note_on_c, 0, 71, 64
1, 61318, Control_c, 0, 64, 0
1, 61321, Note_on_c, 0, 42, 21
1, 61430, Note_on_c, 0, 59, 29
1, 61455, Note_on_c, 0, 42, 0
1, 61466, Note_on_c, 0, 54, 0
1, 61474, Control_c, 0, 64, 127
1, 61483, Note_on_c, 0, 63, 42
1, 61489, Note_on_c, 0, 59, 0
1, 61525, Note_on_c, 0, 66, 30
1, 61533, Note_on_c, 0, 63, 0
1, 61589, Note_on_c, 0, 69, 56
1, 61630, Note_on_c, 0, 66, 0
1, 61681, Note_on_c, 0, 54, 51
1, 61690, Note_on_c, 0, 71, 0
1, 61744, Note_on_c, 0, 54, 0
1, 61754, Note_on_c, 0, 57, 26
1, 61829, Note_on_c, 0, 68, 65
1, 61847, Note_on_c, 0, 59, 6
1, 61862, Note_on_c, 0, 63, 39
1, 61876, Note_on_c, 0, 69, 0
1, 61900, Note_on_c, 0, 57, 0
1, 61912, Note_on_c, 0, 63, 0
1, 61926, Note_on_c, 0, 59, 0
1, 62006, Note_on_c, 0, 68, 0
1, 62098, Note_on_c, 0, 69, 49
1, 62324, Control_c, 0, 64, 0
1, 62360, Note_on_c, 0, 73, 51
1, 62368, Note_on_c, 0, 69, 0
1, 62378, Note_on_c, 0, 40, 39
1, 62503, Control_c, 0, 64, 127
1, 62506, Note_on_c, 0, 40, 0
1, 62522, Note_on_c, 0, 61, 37
1, 62570, Note_on_c, 0, 61, 0
1, 62606, Note_on_c, 0, 64, 42
1, 62655, Note_on_c, 0, 64, 0
1, 62659, Note_on_c, 0, 69, 29
1, 62728, Note_on_c, 0, 69, 0
1, 62857, Note_on_c, 0, 59, 21
1, 62929, Note_on_c, 0, 62, 8
1, 62948, Control_c, 0, 64, 0
1, 62988, Note_on_c, 0, 71, 42
1, 63002, Note_on_c, 0, 64, 7
1, 63013, Note_on_c, 0, 68, 35
1, 63046, Note_on_c, 0, 73, 0
1, 63105, Note_on_c, 0, 68, 0
1, 63123, Note_on_c, 0, 59, 0
1, 63127, Control_c, 0, 64, 127
1, 63134, Note_on_c, 0, 64, 0
1, 63141, Note_on_c, 0, 71, 0
1, 63154, Note_on_c, 0, 62, 0
1, 63269, Note_on_c, 0, 64, 70
1, 63559, Control_c, 0, 64, 0
1, 63564, Note_on_c, 0, 73, 60
1, 63572, Note_on_c, 0, 64, 0
1, 63580, Note_on_c, 0, 33, 37
1, 63672, Note_on_c, 0, 33, 0
1, 63701, Note_on_c, 0, 61, 45
1, 63714, Control_c, 0, 64, 127
1, 63759, Note_on_c, 0, 61, 0
1, 63790, Note_on_c, 0, 64, 34
1, 63843, Note_on_c, 0, 67, 30
1, 63853, Note_on_c, 0, 64, 0
1, 63948, Note_on_c, 0, 69, 35
1, 63999, Note_on_c, 0, 67, 0
1, 64052, Note_on_c, 0, 55, 26
1, 64071, Note_on_c, 0, 69, 0
1, 64107, Note_on_c, 0, 57, 35
1, 64127, Note_on_c, 0, 73, 0
1, 64138, Note_on_c, 0, 55, 0
1, 64179, Note_on_c, 0, 61, 21
1, 64218, Note_on_c, 0, 57, 0
1, 64233, Note_on_c, 0, 64, 35
1, 64264, Note_on_c, 0, 61, 0
1, 64277, Note_on_c, 0, 64, 0
1, 64335, Note_on_c, 0, 74, 51
1, 64381, Note_on_c, 0, 74, 0
1, 64469, Note_on_c, 0, 75, 54
1, 64576, Note_on_c, 0, 75, 0
1, 64587, Note_on_c, 0, 76, 61
1, 64689, Note_on_c, 0, 76, 0
1, 64693, Note_on_c, 0, 45, 15
1, 64697, Note_on_c, 0, 33, 25
1, 64732, Control_c, 0, 64, 0
1, 64792, Note_on_c, 0, 81, 58
1, 64860, Note_on_c, 0, 33, 0
1, 64876, Note_on_c, 0, 81, 0
1, 64876, Control_c, 0, 64, 127
1, 64899, Note_on_c, 0, 45, 0
1, 65002, Note_on_c, 0, 64, 43
1, 65044, Note_on_c, 0, 64, 0
1, 65062, Note_on_c, 0, 67, 42
1, 65112, Note_on_c, 0, 67, 0
1, 65112, Note_on_c, 0, 69, 15
1, 65130, Note_on_c, 0, 76, 70
1, 65160, Note_on_c, 0, 69, 0
1, 65218, Note_on_c, 0, 55, 32
1, 65263, Note_on_c, 0, 57, 41
1, 65361, Note_on_c, 0, 55, 0
1, 65374, Note_on_c, 0, 64, 47
1, 65386, Note_on_c, 0, 74, 73
1, 65397, Note_on_c, 0, 57, 0
1, 65425, Note_on_c, 0, 64, 0
1, 65492, Note_on_c, 0, 76, 0
1, 65644, Note_on_c, 0, 73, 74
1, 65653, Note_on_c, 0, 74, 0
1, 65690, Note_on_c, 0, 73, 0
1, 65898, Note_on_c, 0, 71, 76
1, 65904, Note_on_c, 0, 38, 28
1, 65904, Control_c, 0, 64, 0
1, 65909, Note_on_c, 0, 50, 17
1, 66024, Note_on_c, 0, 38, 0
1, 66037, Note_on_c, 0, 59, 27
1, 66062, Note_on_c, 0, 50, 0
1, 66076, Control_c, 0, 64, 127
1, 66093, Note_on_c, 0, 59, 0
1, 66093, Note_on_c, 0, 62, 54
1, 66135, Note_on_c, 0, 66, 35
1, 66146, Note_on_c, 0, 62, 0
1, 66239, Note_on_c, 0, 66, 0
1, 66288, Note_on_c, 0, 54, 55
1, 66347, Note_on_c, 0, 59, 50
1, 66352, Note_on_c, 0, 54, 0
1, 66364, Note_on_c, 0, 71, 0
1, 66410, Note_on_c, 0, 59, 0
1, 66410, Note_on_c, 0, 62, 56
1, 66450, Note_on_c, 0, 62, 0
1, 66636, Note_on_c, 0, 74, 81
1, 66890, Control_c, 0, 64, 0
1, 66895, Note_on_c, 0, 78, 73
1, 66902, Note_on_c, 0, 74, 0
1, 66907, Note_on_c, 0, 38, 28
1, 66920, Note_on_c, 0, 50, 23
1, 66977, Note_on_c, 0, 38, 0
1, 66993, Note_on_c, 0, 50, 0
1, 67023, Control_c, 0, 64, 127
1, 67026, Note_on_c, 0, 66, 33
1, 67072, Note_on_c, 0, 66, 0
1, 67091, Note_on_c, 0, 71, 43
1, 67149, Note_on_c, 0, 71, 0
1, 67152, Note_on_c, 0, 74, 53
1, 67255, Note_on_c, 0, 74, 0
1, 67275, Note_on_c, 0, 59, 25
1, 67310, Note_on_c, 0, 62, 43
1, 67317, Note_on_c, 0, 78, 0
1, 67335, Note_on_c, 0, 59, 0
1, 67350, Note_on_c, 0, 66, 36
1, 67417, Note_on_c, 0, 62, 0
1, 67420, Note_on_c, 0, 71, 41
1, 67428, Note_on_c, 0, 66, 0
1, 67466, Note_on_c, 0, 71, 0
1, 67737, Note_on_c, 0, 74, 71
1, 67857, Note_on_c, 0, 74, 0
1, 68029, Note_on_c, 0, 71, 89
1, 68041, Control_c, 0, 64, 0
1, 68048, Note_on_c, 0, 51, 32
1, 68054, Note_on_c, 0, 39, 23
1, 68177, Note_on_c, 0, 39, 0
1, 68202, Note_on_c, 0, 51, 0
1, 68208, Control_c, 0, 64, 127
1, 68208, Note_on_c, 0, 59, 44
1, 68250, Note_on_c, 0, 59, 0
1, 68260, Note_on_c, 0, 66, 32
1, 68303, Note_on_c, 0, 69, 49
1, 68333, Note_on_c, 0, 66, 0
1, 68411, Note_on_c, 0, 69, 0
1, 68433, Note_on_c, 0, 57, 39
1, 68501, Note_on_c, 0, 59, 44
1, 68506, Note_on_c, 0, 57, 0
1, 68548, Note_on_c, 0, 66, 61
1, 68597, Note_on_c, 0, 66, 0
1, 68611, Note_on_c, 0, 59, 0
1, 68774, Note_on_c, 0, 75, 79
1, 68788, Note_on_c, 0, 71, 0
1, 69016, Note_on_c, 0, 75, 0
1, 69024, Control_c, 0, 64, 0
1, 69030, Note_on_c, 0, 78, 72
1, 69030, Note_on_c, 0, 47, 38
1, 69052, Note_on_c, 0, 35, 59
1, 69099, Note_on_c, 0, 35, 0
1, 69138, Note_on_c, 0, 66, 55
1, 69144, Note_on_c, 0, 47, 0
1, 69168, Control_c, 0, 64, 127
1, 69182, Note_on_c, 0, 66, 0
1, 69214, Note_on_c, 0, 69, 30
1, 69239, Note_on_c, 0, 71, 64
1, 69277, Note_on_c, 0, 69, 0
1, 69294, Note_on_c, 0, 71, 0
1, 69299, Note_on_c, 0, 75, 62
1, 69388, Note_on_c, 0, 75, 0
1, 69402, Note_on_c, 0, 63, 61
1, 69444, Note_on_c, 0, 66, 30
1, 69461, Note_on_c, 0, 63, 0
1, 69470, Note_on_c, 0, 69, 51
1, 69503, Note_on_c, 0, 66, 0
1, 69517, Note_on_c, 0, 71, 83
1, 69534, Note_on_c, 0, 69, 0
1, 69558, Note_on_c, 0, 71, 0
1, 69743, Note_on_c, 0, 78, 0
1, 69765, Note_on_c, 0, 71, 107
1, 70040, Note_on_c, 0, 71, 0
1, 70066, Control_c, 0, 64, 0
1, 70071, Note_on_c, 0, 81, 100
1, 70074, Note_on_c, 0, 40, 42
1, 70074, Note_on_c, 0, 52, 45
1, 70180, Note_on_c, 0, 40, 0
1, 70214, Note_on_c, 0, 52, 0
1, 70222, Control_c, 0, 64, 127
1, 70238, Note_on_c, 0, 71, 55
1, 70327, Note_on_c, 0, 74, 54
1, 70336, Note_on_c, 0, 71, 0
1, 70364, Note_on_c, 0, 74, 0
1, 70364, Note_on_c, 0, 76, 31
1, 70400, Note_on_c, 0, 80, 92
1, 70455, Note_on_c, 0, 76, 0
1, 70470, Note_on_c, 0, 81, 0
1, 70526, Note_on_c, 0, 62, 56
1, 70533, Note_on_c, 0, 80, 0
1, 70584, Note_on_c, 0, 62, 0
1, 70584, Note_on_c, 0, 64, 46
1, 70612, Note_on_c, 0, 68, 47
1, 70642, Note_on_c, 0, 64, 0
1, 70642, Note_on_c, 0, 78, 97
1, 70660, Note_on_c, 0, 71, 76
1, 70676, Note_on_c, 0, 68, 0
1, 70693, Note_on_c, 0, 71, 0
1, 70760, Note_on_c, 0, 68, 59
1, 70782, Note_on_c, 0, 78, 0
1, 70832, Note_on_c, 0, 68, 0
1, 70846, Note_on_c, 0, 71, 51
1, 70877, Note_on_c, 0, 74, 77
1, 70893, Note_on_c, 0, 71, 0
1, 70899, Note_on_c, 0, 76, 97
1, 70948, Note_on_c, 0, 74, 0
1, 71105, Note_on_c, 0, 40, 52
1, 71118, Note_on_c, 0, 52, 51
1, 71182, Control_c, 0, 64, 0
1, 71200, Note_on_c, 0, 76, 0
1, 71200, Note_on_c, 0, 85, 98
1, 71286, Note_on_c, 0, 40, 0
1, 71333, Note_on_c, 0, 52, 0
1, 71333, Control_c, 0, 64, 127
1, 71345, Note_on_c, 0, 85, 0
1, 71433, Note_on_c, 0, 73, 30
1, 71479, Note_on_c, 0, 73, 0
1, 71490, Note_on_c, 0, 76, 44
1, 71518, Note_on_c, 0, 81, 88
1, 71536, Note_on_c, 0, 76, 0
1, 71614, Note_on_c, 0, 61, 44
1, 71671, Note_on_c, 0, 61, 0
1, 71676, Note_on_c, 0, 64, 53
1, 71749, Note_on_c, 0, 69, 8
1, 71768, Note_on_c, 0, 80, 90
1, 71781, Note_on_c, 0, 73, 50
1, 71795, Note_on_c, 0, 81, 0
1, 71820, Note_on_c, 0, 73, 0
1, 71837, Note_on_c, 0, 80, 0
1, 71837, Note_on_c, 0, 69, 0
1, 71866, Note_on_c, 0, 64, 0
1, 71913, Note_on_c, 0, 69, 48
1, 71974, Note_on_c, 0, 73, 49
1, 72004, Note_on_c, 0, 69, 0
1, 72016, Note_on_c, 0, 78, 90
1, 72057, Note_on_c, 0, 73, 0
1, 72185, Note_on_c, 0, 40, 53
1, 72188, Control_c, 0, 64, 0
1, 72194, Note_on_c, 0, 52, 45
1, 72267, Note_on_c, 0, 76, 84
1, 72305, Note_on_c, 0, 40, 0
1, 72316, Note_on_c, 0, 78, 0
1, 72316, Control_c, 0, 64, 127
1, 72337, Note_on_c, 0, 52, 0
1, 72352, Note_on_c, 0, 76, 0
1, 72419, Note_on_c, 0, 64, 58
1, 72464, Note_on_c, 0, 64, 0
1, 72479, Note_on_c, 0, 68, 52
1, 72501, Note_on_c, 0, 71, 86
1, 72534, Note_on_c, 0, 68, 0
1, 72615, Note_on_c, 0, 59, 25
1, 72660, Note_on_c, 0, 62, 42
1, 72707, Note_on_c, 0, 73, 80
1, 72712, Note_on_c, 0, 71, 0
1, 72718, Note_on_c, 0, 64, 31
1, 72743, Note_on_c, 0, 59, 0
1, 72748, Note_on_c, 0, 68, 50
1, 72784, Note_on_c, 0, 64, 0
1, 72804, Note_on_c, 0, 68, 0
1, 72823, Note_on_c, 0, 62, 0
1, 72865, Note_on_c, 0, 68, 49
1, 72893, Note_on_c, 0, 73, 0
1, 72913, Note_on_c, 0, 68, 0
1, 72913, Note_on_c, 0, 71, 75
1, 72963, Note_on_c, 0, 76, 66
1, 73011, Note_on_c, 0, 71, 0
1, 73024, Note_on_c, 0, 74, 92
1, 73061, Note_on_c, 0, 76, 0
1, 73178, Note_on_c, 0, 74, 0
1, 73247, Note_on_c, 0, 45, 36
1, 73253, Note_on_c, 0, 33, 35
1, 73300, Note_on_c, 0, 73, 73
1, 73300, Control_c, 0, 64, 0
1, 73400, Note_on_c, 0, 33, 0
1, 73400, Note_on_c, 0, 61, 64
1, 73439, Note_on_c, 0, 45, 0
1, 73444, Note_on_c, 0, 61, 0
1, 73458, Control_c, 0, 64, 127
1, 73487, Note_on_c, 0, 64, 55
1, 73529, Note_on_c, 0, 69, 44
1, 73540, Note_on_c, 0, 64, 0
1, 73639, Note_on_c, 0, 69, 0
1, 73659, Note_on_c, 0, 52, 46
1, 73696, Note_on_c, 0, 57, 31
1, 73723, Note_on_c, 0, 52, 0
1, 73745, Note_on_c, 0, 61, 46
1, 73785, Note_on_c, 0, 64, 60
1, 73804, Note_on_c, 0, 57, 0
1, 73821, Note_on_c, 0, 64, 0
1, 73854, Note_on_c, 0, 61, 0
1, 73894, Note_on_c, 0, 73, 0
1, 73927, Note_on_c, 0, 64, 32
1, 73980, Note_on_c, 0, 69, 40
1, 73983, Note_on_c, 0, 64, 0
1, 74008, Note_on_c, 0, 73, 71
1, 74036, Note_on_c, 0, 69, 0
1, 74036, Note_on_c, 0, 76, 92
1, 74107, Note_on_c, 0, 73, 0
1, 74295, Note_on_c, 0, 52, 52
1, 74308, Note_on_c, 0, 40, 46
1, 74320, Control_c, 0, 64, 0
1, 74350, Note_on_c, 0, 81, 79
1, 74372, Note_on_c, 0, 76, 0
1, 74426, Note_on_c, 0, 40, 0
1, 74473, Note_on_c, 0, 52, 0
1, 74473, Control_c, 0, 64, 127
1, 74529, Note_on_c, 0, 71, 26
1, 74548, Note_on_c, 0, 81, 0
1, 74556, Note_on_c, 0, 74, 52
1, 74593, Note_on_c, 0, 76, 53
1, 74598, Note_on_c, 0, 71, 0
1, 74606, Note_on_c, 0, 74, 0
1, 74626, Note_on_c, 0, 80, 91
1, 74692, Note_on_c, 0, 76, 0
1, 74741, Note_on_c, 0, 62, 45
1, 74779, Note_on_c, 0, 64, 60
1, 74785, Note_on_c, 0, 62, 0
1, 74823, Note_on_c, 0, 68, 38
1, 74826, Note_on_c, 0, 64, 0
1, 74855, Note_on_c, 0, 78, 90
1, 74868, Note_on_c, 0, 71, 78
1, 74882, Note_on_c, 0, 68, 0
1, 74896, Note_on_c, 0, 80, 0
1, 74905, Note_on_c, 0, 71, 0
1, 74930, Note_on_c, 0, 78, 0
1, 74994, Note_on_c, 0, 68, 61
1, 75046, Note_on_c, 0, 68, 0
1, 75082, Note_on_c, 0, 71, 29
1, 75094, Note_on_c, 0, 76, 91
1, 75125, Note_on_c, 0, 74, 49
1, 75131, Note_on_c, 0, 71, 0
1, 75161, Note_on_c, 0, 74, 0
1, 75523, Note_on_c, 0, 85, 70
1, 75531, Control_c, 0, 64, 0
1, 75536, Note_on_c, 0, 76, 0
1, 75539, Note_on_c, 0, 49, 33
1, 75545, Note_on_c, 0, 37, 36
1, 75699, Control_c, 0, 64, 127
1, 75704, Note_on_c, 0, 37, 0
1, 75727, Note_on_c, 0, 49, 0
1, 75738, Note_on_c, 0, 85, 0
1, 75770, Note_on_c, 0, 73, 41
1, 75832, Note_on_c, 0, 73, 0
1, 75872, Note_on_c, 0, 76, 29
1, 75929, Note_on_c, 0, 81, 67
1, 75932, Note_on_c, 0, 76, 0
1, 76069, Note_on_c, 0, 51, 29
1, 76108, Note_on_c, 0, 54, 42
1, 76166, Control_c, 0, 64, 0
1, 76195, Note_on_c, 0, 57, 19
1, 76244, Note_on_c, 0, 80, 60
1, 76272, Note_on_c, 0, 60, 33
1, 76283, Note_on_c, 0, 81, 0
1, 76406, Control_c, 0, 64, 127
1, 76470, Note_on_c, 0, 69, 18
1, 76487, Note_on_c, 0, 60, 0
1, 76525, Note_on_c, 0, 57, 0
1, 76529, Note_on_c, 0, 72, 34
1, 76571, Note_on_c, 0, 54, 0
1, 76598, Note_on_c, 0, 69, 0
1, 76598, Note_on_c, 0, 75, 47
1, 76607, Note_on_c, 0, 80, 0
1, 76627, Note_on_c, 0, 72, 0
1, 76627, Note_on_c, 0, 51, 0
1, 76668, Note_on_c, 0, 78, 65
1, 76752, Note_on_c, 0, 75, 0
1, 76816, Note_on_c, 0, 78, 0
1, 76983, Note_on_c, 0, 76, 62
1, 76993, Note_on_c, 0, 40, 43
1, 77007, Note_on_c, 0, 52, 20
1, 77058, Note_on_c, 0, 76, 0
1, 77219, Note_on_c, 0, 62, 5
1, 77255, Note_on_c, 0, 64, 23
1, 77284, Note_on_c, 0, 68, 43
1, 77348, Note_on_c, 0, 71, 48
1, 77353, Control_c, 0, 64, 0
1, 77471, Note_on_c, 0, 64, 0
1, 77495, Note_on_c, 0, 68, 0
1, 77509, Control_c, 0, 64, 127
1, 77516, Note_on_c, 0, 71, 0
1, 77553, Note_on_c, 0, 62, 0
1, 77607, Note_on_c, 0, 52, 0
1, 77623, Note_on_c, 0, 74, 51
1, 77704, Note_on_c, 0, 40, 0
1, 77849, Note_on_c, 0, 74, 0
1, 77908, Note_on_c, 0, 68, 49
1, 78035, Note_on_c, 0, 68, 0
1, 78345, Note_on_c, 0, 69, 31
1, 78370, Note_on_c, 0, 33, 13
1, 78370, Control_c, 0, 64, 0
1, 78384, Note_on_c, 0, 45, 7
1, 78588, Control_c, 0, 64, 127
1, 78591, Note_on_c, 0, 33, 0
1, 78594, Note_on_c, 0, 57, 26
1, 78638, Note_on_c, 0, 45, 0
1, 78665, Note_on_c, 0, 61, 33
1, 78673, Note_on_c, 0, 57, 0
1, 78732, Note_on_c, 0, 61, 0
1, 78732, Note_on_c, 0, 64, 33
1, 78826, Note_on_c, 0, 64, 0
1, 78953, Note_on_c, 0, 61, 23
1, 79016, Note_on_c, 0, 64, 30
1, 79084, Note_on_c, 0, 67, 41
1, 79088, Note_on_c, 0, 64, 0
1, 79152, Note_on_c, 0, 69, 0
1, 79158, Note_on_c, 0, 67, 0
1, 79233, Note_on_c, 0, 61, 0
1, 79364, Note_on_c, 0, 70, 47
1, 79648, Note_on_c, 0, 70, 0
1, 79652, Note_on_c, 0, 71, 73
1, 79655, Control_c, 0, 64, 0
1, 79674, Note_on_c, 0, 33, 15
1, 79684, Note_on_c, 0, 45, 13
1, 79783, Note_on_c, 0, 33, 0
1, 79794, Note_on_c, 0, 45, 0
1, 79810, Control_c, 0, 64, 127
1, 79813, Note_on_c, 0, 59, 35
1, 79875, Note_on_c, 0, 59, 0
1, 79893, Note_on_c, 0, 62, 37
1, 79919, Note_on_c, 0, 66, 42
1, 79952, Note_on_c, 0, 62, 0
1, 79977, Note_on_c, 0, 66, 0
1, 80095, Note_on_c, 0, 64, 59
1, 80123, Note_on_c, 0, 71, 0
1, 80150, Note_on_c, 0, 67, 51
1, 80195, Note_on_c, 0, 70, 68
1, 80242, Control_c, 0, 64, 0
1, 80323, Note_on_c, 0, 67, 0
1, 80333, Note_on_c, 0, 70, 0
1, 80350, Control_c, 0, 64, 127
1, 80361, Note_on_c, 0, 64, 0
1, 80435, Note_on_c, 0, 73, 81
1, 80693, Note_on_c, 0, 74, 93
1, 80698, Control_c, 0, 64, 0
1, 80701, Note_on_c, 0, 45, 27
1, 80704, Note_on_c, 0, 33, 33
1, 80740, Note_on_c, 0, 73, 0
1, 80793, Note_on_c, 0, 33, 0
1, 80819, Note_on_c, 0, 45, 0
1, 80819, Note_on_c, 0, 62, 52
1, 80841, Control_c, 0, 64, 127
1, 80888, Note_on_c, 0, 62, 0
1, 80888, Note_on_c, 0, 66, 46
1, 80924, Note_on_c, 0, 69, 62
1, 80944, Note_on_c, 0, 66, 0
1, 81016, Note_on_c, 0, 69, 0
1, 81100, Note_on_c, 0, 66, 53
1, 81142, Note_on_c, 0, 69, 53
1, 81176, Control_c, 0, 64, 0
1, 81212, Note_on_c, 0, 72, 66
1, 81297, Note_on_c, 0, 74, 0
1, 81297, Control_c, 0, 64, 127
1, 81301, Note_on_c, 0, 72, 0
1, 81301, Note_on_c, 0, 69, 0
1, 81340, Note_on_c, 0, 66, 0
1, 81431, Note_on_c, 0, 75, 84
1, 81691, Control_c, 0, 64, 0
1, 81695, Note_on_c, 0, 40, 35
1, 81702, Note_on_c, 0, 52, 29
1, 81702, Note_on_c, 0, 78, 66
1, 81735, Note_on_c, 0, 75, 0
1, 81822, Note_on_c, 0, 40, 0
1, 81822, Note_on_c, 0, 68, 26
1, 81854, Note_on_c, 0, 52, 0
1, 81860, Control_c, 0, 64, 127
1, 81941, Note_on_c, 0, 78, 0
1, 81981, Note_on_c, 0, 68, 0
1, 81981, Note_on_c, 0, 71, 14
1, 82042, Note_on_c, 0, 76, 56
1, 82053, Note_on_c, 0, 71, 0
1, 82176, Note_on_c, 0, 59, 23
1, 82223, Note_on_c, 0, 62, 18
1, 82303, Note_on_c, 0, 64, 15
1, 82317, Note_on_c, 0, 74, 52
1, 82336, Note_on_c, 0, 68, 29
1, 82353, Note_on_c, 0, 59, 0
1, 82384, Note_on_c, 0, 64, 0
1, 82389, Note_on_c, 0, 68, 0
1, 82407, Note_on_c, 0, 76, 0
1, 82448, Note_on_c, 0, 62, 0
1, 82566, Note_on_c, 0, 74, 0
1, 82577, Note_on_c, 0, 71, 65
1, 82616, Note_on_c, 0, 71, 0
1, 82819, Note_on_c, 0, 69, 57
1, 82830, Control_c, 0, 64, 0
1, 82833, Note_on_c, 0, 33, 28
1, 82838, Note_on_c, 0, 45, 22
1, 82941, Note_on_c, 0, 57, 35
1, 82952, Note_on_c, 0, 33, 0
1, 82983, Note_on_c, 0, 45, 0
1, 82983, Control_c, 0, 64, 127
1, 83006, Note_on_c, 0, 57, 0
1, 83006, Note_on_c, 0, 61, 51
1, 83058, Note_on_c, 0, 61, 0
1, 83058, Note_on_c, 0, 64, 62
1, 83147, Note_on_c, 0, 64, 0
1, 83194, Note_on_c, 0, 61, 57
1, 83267, Note_on_c, 0, 64, 58
1, 83301, Note_on_c, 0, 67, 71
1, 83312, Note_on_c, 0, 69, 0
1, 83317, Note_on_c, 0, 64, 0
1, 83337, Note_on_c, 0, 61, 0
1, 83337, Note_on_c, 0, 67, 0
1, 83530, Note_on_c, 0, 70, 75
1, 83538, Note_on_c, 0, 40, 86
1, 83543, Note_on_c, 0, 61, 57
1, 83543, Note_on_c, 0, 52, 64
1, 83562, Note_on_c, 0, 66, 36
1, 83682, Note_on_c, 0, 61, 0
1, 83730, Note_on_c, 0, 52, 0
1, 83730, Note_on_c, 0, 40, 0
1, 83811, Note_on_c, 0, 66, 0
1, 83822, Note_on_c, 0, 71, 92
1, 83822, Note_on_c, 0, 50, 70
1, 83833, Note_on_c, 0, 38, 71
1, 83849, Control_c, 0, 64, 0
1, 83869, Note_on_c, 0, 70, 0
1, 83978, Note_on_c, 0, 38, 0
1, 83982, Note_on_c, 0, 59, 57
1, 84009, Note_on_c, 0, 50, 0
1, 84017, Control_c, 0, 64, 127
1, 84039, Note_on_c, 0, 62, 64
1, 84044, Note_on_c, 0, 59, 0
1, 84061, Note_on_c, 0, 66, 57
1, 84109, Note_on_c, 0, 62, 0
1, 84148, Note_on_c, 0, 66, 0
1, 84212, Note_on_c, 0, 64, 79
1, 84256, Control_c, 0, 64, 0
1, 84260, Note_on_c, 0, 67, 76
1, 84307, Note_on_c, 0, 71, 0
1, 84311, Note_on_c, 0, 70, 87
1, 84371, Note_on_c, 0, 67, 0
1, 84376, Control_c, 0, 64, 127
1, 84398, Note_on_c, 0, 70, 0
1, 84410, Note_on_c, 0, 64, 0
1, 84555, Note_on_c, 0, 73, 93
1, 84573, Note_on_c, 0, 55, 79
1, 84577, Note_on_c, 0, 43, 69
1, 84582, Note_on_c, 0, 64, 62
1, 84588, Note_on_c, 0, 69, 39
1, 84640, Control_c, 0, 64, 0
1, 84688, Control_c, 0, 64, 127
1, 84711, Note_on_c, 0, 55, 0
1, 84727, Note_on_c, 0, 43, 0
1, 84733, Note_on_c, 0, 64, 0
1, 84754, Note_on_c, 0, 69, 0
1, 84808, Note_on_c, 0, 74, 100
1, 84816, Note_on_c, 0, 54, 84
1, 84819, Control_c, 0, 64, 0
1, 84822, Note_on_c, 0, 42, 65
1, 84872, Note_on_c, 0, 73, 0
1, 84939, Note_on_c, 0, 42, 0
1, 84939, Note_on_c, 0, 62, 69
1, 84964, Note_on_c, 0, 54, 0
1, 84988, Control_c, 0, 64, 127
1, 84992, Note_on_c, 0, 66, 53
1, 85013, Note_on_c, 0, 62, 0
1, 85030, Note_on_c, 0, 69, 76
1, 85059, Note_on_c, 0, 66, 0
1, 85122, Note_on_c, 0, 69, 0
1, 85220, Note_on_c, 0, 66, 48
1, 85264, Control_c, 0, 64, 0
1, 85275, Note_on_c, 0, 69, 64
1, 85329, Note_on_c, 0, 72, 79
1, 85339, Note_on_c, 0, 74, 0
1, 85387, Note_on_c, 0, 69, 0
1, 85395, Control_c, 0, 64, 127
1, 85399, Note_on_c, 0, 72, 0
1, 85457, Note_on_c, 0, 66, 0
1, 85601, Note_on_c, 0, 75, 84
1, 85619, Note_on_c, 0, 66, 14
1, 85629, Note_on_c, 0, 59, 38
1, 85635, Note_on_c, 0, 47, 34
1, 85639, Note_on_c, 0, 71, 35
1, 85646, Control_c, 0, 64, 0
1, 85655, Note_on_c, 0, 69, 6
1, 85702, Note_on_c, 0, 71, 0
1, 85748, Note_on_c, 0, 59, 0
1, 85753, Note_on_c, 0, 47, 0
1, 85764, Note_on_c, 0, 69, 0
1, 85778, Control_c, 0, 64, 127
1, 85877, Note_on_c, 0, 66, 0
1, 85967, Note_on_c, 0, 78, 62
1, 86005, Note_on_c, 0, 75, 0
1, 86009, Note_on_c, 0, 40, 33
1, 86012, Note_on_c, 0, 52, 31
1, 86030, Control_c, 0, 64, 0
1, 86084, Note_on_c, 0, 68, 31
1, 86151, Note_on_c, 0, 40, 0
1, 86186, Control_c, 0, 64, 127
1, 86192, Note_on_c, 0, 52, 0
1, 86192, Note_on_c, 0, 71, 37
1, 86226, Note_on_c, 0, 68, 0
1, 86301, Note_on_c, 0, 71, 0
1, 86306, Note_on_c, 0, 76, 59
1, 86353, Note_on_c, 0, 78, 0
1, 86398, Note_on_c, 0, 76, 0
1, 86432, Note_on_c, 0, 59, 35
1, 86480, Note_on_c, 0, 62, 19
1, 86505, Note_on_c, 0, 59, 0
1, 86530, Note_on_c, 0, 74, 68
1, 86546, Note_on_c, 0, 68, 54
1, 86577, Note_on_c, 0, 74, 0
1, 86588, Note_on_c, 0, 68, 0
1, 86616, Note_on_c, 0, 62, 0
1, 86694, Note_on_c, 0, 62, 47
1, 86744, Note_on_c, 0, 62, 0
1, 86744, Note_on_c, 0, 64, 52
1, 86758, Note_on_c, 0, 68, 52
1, 86775, Note_on_c, 0, 71, 94
1, 86799, Note_on_c, 0, 64, 0
1, 86817, Note_on_c, 0, 68, 0
1, 86980, Note_on_c, 0, 71, 0
1, 87011, Note_on_c, 0, 69, 72
1, 87022, Note_on_c, 0, 33, 35
1, 87022, Control_c, 0, 64, 0
1, 87022, Note_on_c, 0, 45, 25
1, 87108, Note_on_c, 0, 33, 0
1, 87126, Note_on_c, 0, 61, 50
1, 87142, Note_on_c, 0, 45, 0
1, 87157, Control_c, 0, 64, 127
1, 87176, Note_on_c, 0, 61, 0
1, 87189, Note_on_c, 0, 64, 47
1, 87236, Note_on_c, 0, 64, 0
1, 87243, Note_on_c, 0, 73, 85
1, 87293, Note_on_c, 0, 69, 0
1, 87332, Note_on_c, 0, 73, 0
1, 87406, Note_on_c, 0, 57, 34
1, 87460, Note_on_c, 0, 61, 33
1, 87479, Note_on_c, 0, 76, 78
1, 87487, Note_on_c, 0, 57, 0
1, 87499, Note_on_c, 0, 64, 56
1, 87535, Note_on_c, 0, 64, 0
1, 87535, Note_on_c, 0, 61, 0
1, 87571, Note_on_c, 0, 76, 0
1, 87599, Note_on_c, 0, 69, 41
1, 87647, Note_on_c, 0, 73, 50
1, 87654, Note_on_c, 0, 69, 0
1, 87689, Note_on_c, 0, 73, 0
1, 87707, Note_on_c, 0, 76, 39
1, 87725, Note_on_c, 0, 81, 77
1, 87794, Note_on_c, 0, 76, 0
1, 87827, Note_on_c, 0, 81, 0
1, 87941, Note_on_c, 0, 40, 39
1, 87958, Note_on_c, 0, 52, 26
1, 87958, Control_c, 0, 64, 0
1, 87986, Note_on_c, 0, 80, 78
1, 88062, Note_on_c, 0, 40, 0
1, 88069, Note_on_c, 0, 80, 0
1, 88092, Control_c, 0, 64, 127
1, 88100, Note_on_c, 0, 52, 0
1, 88172, Note_on_c, 0, 64, 29
1, 88201, Note_on_c, 0, 68, 33
1, 88223, Note_on_c, 0, 64, 0
1, 88246, Note_on_c, 0, 71, 46
1, 88253, Note_on_c, 0, 68, 0
1, 88253, Note_on_c, 0, 76, 63
1, 88299, Note_on_c, 0, 71, 0
1, 88401, Note_on_c, 0, 76, 0
1, 88413, Note_on_c, 0, 56, 23
1, 88482, Note_on_c, 0, 59, 26
1, 88499, Note_on_c, 0, 74, 64
1, 88523, Note_on_c, 0, 62, 27
1, 88533, Note_on_c, 0, 74, 0
1, 88561, Note_on_c, 0, 59, 0
1, 88572, Note_on_c, 0, 64, 26
1, 88588, Note_on_c, 0, 62, 0
1, 88624, Note_on_c, 0, 64, 0
1, 88668, Note_on_c, 0, 56, 0
1, 88678, Note_on_c, 0, 62, 42
1, 88711, Note_on_c, 0, 64, 23
1, 88730, Note_on_c, 0, 62, 0
1, 88746, Note_on_c, 0, 68, 17
1, 88761, Note_on_c, 0, 71, 71
1, 88772, Note_on_c, 0, 64, 0
1, 88814, Note_on_c, 0, 68, 0
1, 88864, Note_on_c, 0, 71, 0
1, 89000, Note_on_c, 0, 69, 61
1, 89000, Control_c, 0, 64, 0
1, 89011, Note_on_c, 0, 33, 25
1, 89017, Note_on_c, 0, 45, 29
1, 89092, Note_on_c, 0, 33, 0
1, 89092, Note_on_c, 0, 69, 0
1, 89112, Note_on_c, 0, 61, 39
1, 89122, Note_on_c, 0, 45, 0
1, 89122, Control_c, 0, 64, 127
1, 89162, Note_on_c, 0, 61, 0
1, 89198, Note_on_c, 0, 64, 18
1, 89209, Note_on_c, 0, 69, 17
1, 89220, Note_on_c, 0, 73, 65
1, 89245, Note_on_c, 0, 64, 0
1, 89274, Note_on_c, 0, 69, 0
1, 89309, Note_on_c, 0, 73, 0
1, 89391, Note_on_c, 0, 52, 30
1, 89413, Note_on_c, 0, 57, 28
1, 89443, Note_on_c, 0, 52, 0
1, 89468, Note_on_c, 0, 76, 63
1, 89482, Note_on_c, 0, 61, 39
1, 89515, Note_on_c, 0, 76, 0
1, 89515, Note_on_c, 0, 57, 0
1, 89527, Note_on_c, 0, 64, 44
1, 89554, Note_on_c, 0, 61, 0
1, 89569, Note_on_c, 0, 64, 0
1, 89622, Note_on_c, 0, 69, 38
1, 89663, Note_on_c, 0, 73, 44
1, 89674, Note_on_c, 0, 69, 0
1, 89708, Note_on_c, 0, 76, 37
1, 89724, Note_on_c, 0, 73, 0
1, 89728, Note_on_c, 0, 81, 70
1, 89783, Note_on_c, 0, 76, 0
1, 89831, Note_on_c, 0, 81, 0
1, 89997, Control_c, 0, 64, 0
1, 90015, Note_on_c, 0, 80, 63
1, 90019, Note_on_c, 0, 40, 37
1, 90031, Note_on_c, 0, 52, 27
1, 90131, Note_on_c, 0, 80, 0
1, 90134, Note_on_c, 0, 40, 0
1, 90140, Control_c, 0, 64, 127
1, 90165, Note_on_c, 0, 52, 0
1, 90257, Note_on_c, 0, 64, 8
1, 90299, Note_on_c, 0, 64, 0
1, 90306, Note_on_c, 0, 71, 20
1, 90354, Note_on_c, 0, 76, 57
1, 90413, Note_on_c, 0, 71, 0
1, 90518, Note_on_c, 0, 56, 18
1, 90591, Note_on_c, 0, 59, 9
1, 90599, Note_on_c, 0, 76, 0
1, 90639, Note_on_c, 0, 74, 49
1, 90647, Note_on_c, 0, 62, 12
1, 90678, Note_on_c, 0, 74, 0
1, 90682, Note_on_c, 0, 59, 0
1, 90717, Note_on_c, 0, 64, 6
1, 90724, Note_on_c, 0, 62, 0
1, 90755, Note_on_c, 0, 64, 0
1, 90755, Note_on_c, 0, 56, 0
1, 90883, Note_on_c, 0, 62, 7
1, 90934, Note_on_c, 0, 62, 0
1, 90937, Note_on_c, 0, 68, 32
1, 90976, Note_on_c, 0, 71, 56
1, 91134, Note_on_c, 0, 71, 0
1, 91209, Note_on_c, 0, 68, 0
1, 91371, Note_on_c, 0, 73, 64
1, 91387, Control_c, 0, 64, 0
1, 91394, Note_on_c, 0, 33, 19
1, 91405, Note_on_c, 0, 45, 10
1, 91538, Note_on_c, 0, 33, 0
1, 91555, Control_c, 0, 64, 127
1, 91566, Note_on_c, 0, 45, 0
1, 91594, Note_on_c, 0, 61, 14
1, 91686, Note_on_c, 0, 61, 0
1, 91722, Note_on_c, 0, 64, 32
1, 91758, Note_on_c, 0, 69, 23
1, 91786, Note_on_c, 0, 64, 0
1, 91901, Note_on_c, 0, 69, 0
1, 91917, Note_on_c, 0, 57, 12
1, 91950, Note_on_c, 0, 73, 0
1, 91958, Note_on_c, 0, 61, 38
1, 92031, Note_on_c, 0, 64, 35
1, 92047, Note_on_c, 0, 57, 0
1, 92076, Note_on_c, 0, 64, 0
1, 92092, Note_on_c, 0, 61, 0
1, 92142, Note_on_c, 0, 74, 43
1, 92192, Note_on_c, 0, 74, 0
1, 92249, Note_on_c, 0, 75, 45
1, 92315, Note_on_c, 0, 75, 0
1, 92357, Note_on_c, 0, 76, 34
1, 92466, Note_on_c, 0, 76, 0
1, 92466, Control_c, 0, 64, 0
1, 92476, Note_on_c, 0, 81, 49
1, 92480, Note_on_c, 0, 33, 37
1, 92490, Note_on_c, 0, 45, 17
1, 92580, Note_on_c, 0, 33, 0
1, 92608, Note_on_c, 0, 45, 0
1, 92608, Control_c, 0, 64, 127
1, 92678, Note_on_c, 0, 69, 6
1, 92714, Note_on_c, 0, 73, 37
1, 92738, Note_on_c, 0, 69, 0
1, 92780, Note_on_c, 0, 76, 33
1, 92800, Note_on_c, 0, 73, 0
1, 92914, Note_on_c, 0, 81, 0
1, 92936, Note_on_c, 0, 76, 0
1, 92939, Note_on_c, 0, 61, 32
1, 93023, Note_on_c, 0, 64, 27
1, 93068, Note_on_c, 0, 69, 40
1, 93135, Note_on_c, 0, 69, 0
1, 93167, Note_on_c, 0, 64, 0
1, 93204, Note_on_c, 0, 61, 0
1, 93212, Note_on_c, 0, 71, 52
1, 93279, Note_on_c, 0, 71, 0
1, 93324, Note_on_c, 0, 72, 48
1, 93385, Note_on_c, 0, 72, 0
1, 93438, Note_on_c, 0, 73, 50
1, 93533, Control_c, 0, 64, 0
1, 93550, Note_on_c, 0, 73, 0
1, 93564, Note_on_c, 0, 76, 55
1, 93571, Note_on_c, 0, 33, 24
1, 93574, Note_on_c, 0, 45, 16
1, 93667, Note_on_c, 0, 33, 0
1, 93683, Note_on_c, 0, 45, 0
1, 93688, Control_c, 0, 64, 127
1, 93724, Note_on_c, 0, 64, 33
1, 93781, Note_on_c, 0, 64, 0
1, 93794, Note_on_c, 0, 69, 24
1, 93836, Note_on_c, 0, 73, 28
1, 93890, Note_on_c, 0, 69, 0
1, 93936, Note_on_c, 0, 76, 0
1, 93976, Note_on_c, 0, 57, 20
1, 93987, Note_on_c, 0, 73, 0
1, 94017, Note_on_c, 0, 61, 30
1, 94050, Note_on_c, 0, 57, 0
1, 94092, Note_on_c, 0, 64, 41
1, 94124, Note_on_c, 0, 61, 0
1, 94134, Note_on_c, 0, 64, 0
1, 94177, Note_on_c, 0, 66, 30
1, 94252, Note_on_c, 0, 66, 0
1, 94291, Note_on_c, 0, 68, 36
1, 94379, Note_on_c, 0, 68, 0
1, 94421, Note_on_c, 0, 69, 37
1, 94507, Note_on_c, 0, 69, 0
1, 94527, Control_c, 0, 64, 0
1, 94550, Note_on_c, 0, 73, 40
1, 94564, Note_on_c, 0, 45, 17
1, 94564, Note_on_c, 0, 33, 20
1, 94674, Note_on_c, 0, 61, 44
1, 94681, Note_on_c, 0, 33, 0
1, 94706, Note_on_c, 0, 45, 0
1, 94719, Control_c, 0, 64, 127
1, 94727, Note_on_c, 0, 61, 0
1, 94783, Note_on_c, 0, 64, 37
1, 94841, Note_on_c, 0, 64, 0
1, 94853, Note_on_c, 0, 69, 24
1, 94931, Note_on_c, 0, 69, 0
1, 94981, Note_on_c, 0, 73, 0
1, 94996, Note_on_c, 0, 52, 36
1, 95071, Note_on_c, 0, 57, 17
1, 95146, Note_on_c, 0, 61, 36
1, 95167, Note_on_c, 0, 57, 0
1, 95204, Note_on_c, 0, 61, 0
1, 95351, Note_on_c, 0, 62, 23
1, 95416, Note_on_c, 0, 62, 0
1, 95489, Note_on_c, 0, 63, 19
1, 95585, Note_on_c, 0, 63, 0
1, 95628, Note_on_c, 0, 64, 19
1, 95674, Note_on_c, 0, 52, 0
1, 95815, Note_on_c, 0, 64, 0
1, 95862, Note_on_c, 0, 69, 19
1, 96134, Note_on_c, 0, 57, 25
1, 96190, Note_on_c, 0, 61, 36
1, 96216, Control_c, 0, 64, 0
1, 96220, Note_on_c, 0, 49, 23
1, 96248, Note_on_c, 0, 52, 40
1, 96274, Note_on_c, 0, 57, 0
1, 96274, Note_on_c, 0, 64, 41
1, 96322, Note_on_c, 0, 52, 0
1, 96338, Control_c, 0, 64, 127
1, 96347, Note_on_c, 0, 64, 0
1, 96347, Note_on_c, 0, 61, 0
1, 96391, Note_on_c, 0, 69, 0
1, 96397, Note_on_c, 0, 49, 0
1, 96429, Note_on_c, 0, 61, 22
1, 96485, Note_on_c, 0, 64, 34
1, 96496, Note_on_c, 0, 61, 0
1, 96510, Note_on_c, 0, 57, 32
1, 96519, Note_on_c, 0, 52, 38
1, 96527, Note_on_c, 0, 69, 53
1, 96533, Note_on_c, 0, 64, 0
1, 96564, Note_on_c, 0, 52, 0
1, 96569, Note_on_c, 0, 69, 0
1, 96580, Note_on_c, 0, 57, 0
1, 96681, Note_on_c, 0, 64, 44
1, 96725, Note_on_c, 0, 64, 0
1, 96736, Note_on_c, 0, 69, 53
1, 96761, Note_on_c, 0, 61, 23
1, 96766, Note_on_c, 0, 73, 57
1, 96781, Note_on_c, 0, 69, 0
1, 96808, Note_on_c, 0, 73, 0
1, 96814, Note_on_c, 0, 61, 0
1, 96911, Note_on_c, 0, 69, 46
1, 96951, Note_on_c, 0, 73, 51
1, 96964, Note_on_c, 0, 61, 29
1, 96975, Note_on_c, 0, 69, 0
1, 96984, Note_on_c, 0, 64, 40
1, 96984, Note_on_c, 0, 76, 65
1, 96996, Control_c, 0, 64, 0
1, 97003, Note_on_c, 0, 73, 0
1, 97024, Note_on_c, 0, 64, 0
1, 97032, Note_on_c, 0, 76, 0
1, 97092, Control_c, 0, 64, 127
1, 97096, Note_on_c, 0, 61, 0
1, 97112, Note_on_c, 0, 73, 37
1, 97156, Note_on_c, 0, 73, 0
1, 97156, Note_on_c, 0, 76, 55
1, 97177, Note_on_c, 0, 64, 42
1, 97177, Note_on_c, 0, 69, 35
1, 97196, Note_on_c, 0, 76, 0
1, 97201, Note_on_c, 0, 81, 60
1, 97221, Note_on_c, 0, 64, 0
1, 97229, Note_on_c, 0, 69, 0
1, 97235, Note_on_c, 0, 81, 0
1, 97322, Note_on_c, 0, 76, 52
1, 97366, Note_on_c, 0, 76, 0
1, 97372, Note_on_c, 0, 73, 25
1, 97382, Note_on_c, 0, 81, 44
1, 97382, Note_on_c, 0, 69, 30
1, 97410, Note_on_c, 0, 85, 60
1, 97422, Note_on_c, 0, 81, 0
1, 97450, Note_on_c, 0, 73, 0
1, 97450, Note_on_c, 0, 69, 0
1, 97450, Note_on_c, 0, 85, 0
1, 97567, Note_on_c, 0, 81, 44
1, 97585, Control_c, 0, 64, 0
1, 97602, Note_on_c, 0, 85, 40
1, 97613, Note_on_c, 0, 73, 16
1, 97613, Note_on_c, 0, 76, 43
1, 97622, Note_on_c, 0, 81, 0
1, 97636, Note_on_c, 0, 88, 48
1, 97652, Note_on_c, 0, 85, 0
1, 97658, Note_on_c, 0, 76, 0
1, 97684, Note_on_c, 0, 88, 0
1, 97716, Control_c, 0, 64, 127
1, 97731, Note_on_c, 0, 73, 0
1, 97809, Note_on_c, 0, 85, 34
1, 97858, Note_on_c, 0, 85, 0
1, 97873, Note_on_c, 0, 88, 37
1, 97932, Note_on_c, 0, 73, 21
1, 97940, Note_on_c, 0, 81, 22
1, 97951, Note_on_c, 0, 93, 46
1, 97967, Note_on_c, 0, 76, 11
1, 97982, Note_on_c, 0, 88, 0
1, 98000, Note_on_c, 0, 93, 0
1, 98009, Note_on_c, 0, 81, 0
1, 98026, Note_on_c, 0, 76, 0
1, 98074, Note_on_c, 0, 73, 0
1, 98399, Control_c, 0, 64, 0
1, 98494, Note_on_c, 0, 76, 30
1, 98494, Note_on_c, 0, 61, 26
1, 98503, Note_on_c, 0, 69, 15
1, 98503, Note_on_c, 0, 57, 26
1, 98508, Note_on_c, 0, 64, 15
1, 98575, Note_on_c, 0, 57, 0
1, 98578, Control_c, 0, 64, 127
1, 98602, Note_on_c, 0, 61, 0
1, 98602, Note_on_c, 0, 64, 0
1, 98636, Note_on_c, 0, 76, 0
1, 98645, Note_on_c, 0, 69, 0
1, 99021, Control_c, 0, 64, 0
1, 99215, Note_on_c, 0, 33, 27
1, 99215, Note_on_c, 0, 69, 13
1, 99215, Note_on_c, 0, 45, 21
1, 99219, Note_on_c, 0, 61, 22
1, 99219, Note_on_c, 0, 64, 19
1, 99310, Note_on_c, 0, 45, 0
1, 99333, Note_on_c, 0, 33, 0
1, 99355, Note_on_c, 0, 61, 0
1, 99369, Control_c, 0, 64, 127
1, 99375, Note_on_c, 0, 64, 0
1, 99425, Note_on_c, 0, 69, 0
1, 100340, Control_c, 0, 64, 0
1, 101837, Control_c, 0, 64, 0
1, 101837, End_track
0, 0, End_of_file
