0, 0, Header, 1, 7, 192
1, 0, Start_track
1, 0, Title_t, "63515A"
1, 0, Text_t, "Roll expression/accent tracks, where present, converted to MIDI velocties.\012"
1, 0, Time_signature, 4, 2, 24, 8
1, 0, Key_signature, 0, "major"
1, 0, Tempo, 500000
1, 0, Marker_t, "Standard MIDI:LPI 124:Tempo  85: 08-07-2003"
1, 0, End_track
2, 0, Start_track
2, 0, Title_t, "On The Wings Of Song"
2, 0, Control_c, 0, 7, 115
2, 3, Control_c, 0, 67, 127
2, 11, Control_c, 0, 64, 127
2, 273, Note_on_c, 0, 44, 51
2, 433, Note_on_c, 0, 51, 50
2, 549, Note_on_c, 0, 60, 50
2, 654, Note_on_c, 0, 63, 48
2, 752, Note_on_c, 0, 68, 48
2, 860, Note_on_c, 0, 72, 52
2, 912, Note_on_c, 0, 44, 0
2, 953, Note_on_c, 0, 44, 52
2, 1036, Note_on_c, 0, 51, 0
2, 1067, Note_on_c, 0, 51, 51
2, 1128, Note_on_c, 0, 60, 0
2, 1175, Note_on_c, 0, 60, 49
2, 1185, Control_c, 0, 64, 0
2, 1248, Note_on_c, 0, 63, 0
2, 1259, Control_c, 0, 64, 127
2, 1286, Note_on_c, 0, 63, 52
2, 1355, Note_on_c, 0, 68, 0
2, 1402, Note_on_c, 0, 68, 53
2, 1464, Note_on_c, 0, 72, 0
2, 1510, Note_on_c, 0, 72, 46
2, 1559, Note_on_c, 0, 44, 0
2, 1603, Note_on_c, 0, 44, 48
2, 1686, Note_on_c, 0, 51, 0
2, 1728, Note_on_c, 0, 51, 52
2, 1785, Note_on_c, 0, 60, 0
2, 1829, Note_on_c, 0, 60, 50
2, 1880, Note_on_c, 0, 63, 0
2, 1922, Note_on_c, 0, 63, 48
2, 1981, Note_on_c, 0, 68, 0
2, 2025, Note_on_c, 0, 68, 51
2, 2090, Note_on_c, 0, 72, 0
2, 2135, Note_on_c, 0, 72, 48
2, 2216, Note_on_c, 0, 44, 0
2, 2258, Note_on_c, 0, 44, 52
2, 2328, Note_on_c, 0, 51, 0
2, 2373, Note_on_c, 0, 51, 53
2, 2440, Note_on_c, 0, 60, 0
2, 2487, Note_on_c, 0, 60, 47
2, 2554, Note_on_c, 0, 63, 0
2, 2598, Note_on_c, 0, 63, 53
2, 2640, Note_on_c, 0, 51, 0
2, 2706, Note_on_c, 0, 68, 0
2, 2742, Note_on_c, 0, 51, 70
2, 2748, Note_on_c, 0, 68, 53
2, 2825, Note_on_c, 0, 72, 0
2, 2865, Note_on_c, 0, 72, 46
2, 2922, Note_on_c, 0, 44, 0
2, 2969, Note_on_c, 0, 44, 46
2, 3011, Note_on_c, 0, 60, 0
2, 3038, Control_c, 0, 64, 0
2, 3067, Note_on_c, 0, 60, 76
2, 3077, Control_c, 0, 64, 127
2, 3132, Note_on_c, 0, 51, 0
2, 3181, Note_on_c, 0, 51, 46
2, 3268, Note_on_c, 0, 60, 0
2, 3303, Note_on_c, 0, 60, 49
2, 3352, Note_on_c, 0, 63, 0
2, 3408, Note_on_c, 0, 63, 53
2, 3423, Note_on_c, 0, 60, 0
2, 3478, Note_on_c, 0, 68, 0
2, 3549, Note_on_c, 0, 68, 48
2, 3557, Note_on_c, 0, 60, 71
2, 3634, Note_on_c, 0, 72, 0
2, 3685, Note_on_c, 0, 72, 51
2, 3748, Note_on_c, 0, 60, 0
2, 3767, Note_on_c, 0, 44, 0
2, 3811, Note_on_c, 0, 44, 51
2, 3841, Note_on_c, 0, 60, 72
2, 3921, Note_on_c, 0, 51, 0
2, 3966, Note_on_c, 0, 51, 47
2, 4074, Note_on_c, 0, 61, 71
2, 4098, Note_on_c, 0, 60, 0
2, 4132, Note_on_c, 0, 63, 0
2, 4177, Note_on_c, 0, 63, 49
2, 4230, Note_on_c, 0, 63, 0
2, 4241, Note_on_c, 0, 68, 0
2, 4279, Note_on_c, 0, 63, 76
2, 4279, Note_on_c, 0, 68, 49
2, 4332, Note_on_c, 0, 72, 0
2, 4377, Note_on_c, 0, 72, 53
2, 4392, Note_on_c, 0, 63, 0
2, 4457, Control_c, 0, 64, 0
2, 4481, Note_on_c, 0, 63, 51
2, 4499, Note_on_c, 0, 46, 49
2, 4513, Note_on_c, 0, 51, 0
2, 4519, Note_on_c, 0, 61, 0
2, 4523, Note_on_c, 0, 44, 0
2, 4525, Note_on_c, 0, 68, 0
2, 4525, Note_on_c, 0, 72, 0
2, 4651, Note_on_c, 0, 51, 46
2, 4661, Control_c, 0, 64, 127
2, 4765, Note_on_c, 0, 61, 50
2, 4814, Note_on_c, 0, 63, 0
2, 4881, Note_on_c, 0, 63, 49
2, 5007, Note_on_c, 0, 67, 51
2, 5122, Note_on_c, 0, 73, 50
2, 5240, Note_on_c, 0, 46, 0
2, 5275, Note_on_c, 0, 55, 49
2, 5283, Note_on_c, 0, 46, 48
2, 5391, Note_on_c, 0, 51, 0
2, 5427, Note_on_c, 0, 51, 48
2, 5500, Note_on_c, 0, 61, 0
2, 5545, Note_on_c, 0, 61, 47
2, 5629, Note_on_c, 0, 63, 0
2, 5667, Note_on_c, 0, 63, 46
2, 5747, Note_on_c, 0, 51, 0
2, 5758, Note_on_c, 0, 67, 0
2, 5798, Note_on_c, 0, 67, 49
2, 5800, Note_on_c, 0, 51, 65
2, 5875, Note_on_c, 0, 73, 0
2, 5904, Note_on_c, 0, 73, 48
2, 5946, Note_on_c, 0, 43, 51
2, 6019, Control_c, 0, 64, 0
2, 6023, Note_on_c, 0, 58, 74
2, 6088, Note_on_c, 0, 67, 0
2, 6088, Note_on_c, 0, 55, 0
2, 6088, Note_on_c, 0, 51, 0
2, 6088, Note_on_c, 0, 61, 0
2, 6090, Note_on_c, 0, 46, 0
2, 6223, Note_on_c, 0, 61, 46
2, 6241, Control_c, 0, 64, 127
2, 6298, Note_on_c, 0, 63, 0
2, 6351, Note_on_c, 0, 63, 49
2, 6409, Note_on_c, 0, 58, 0
2, 6460, Note_on_c, 0, 58, 74
2, 6460, Note_on_c, 0, 70, 52
2, 6482, Note_on_c, 0, 61, 0
2, 6521, Note_on_c, 0, 73, 0
2, 6537, Note_on_c, 0, 43, 0
2, 6572, Note_on_c, 0, 73, 46
2, 6590, Note_on_c, 0, 43, 48
2, 6634, Note_on_c, 0, 58, 0
2, 6683, Note_on_c, 0, 58, 70
2, 6774, Note_on_c, 0, 51, 50
2, 6898, Note_on_c, 0, 60, 75
2, 6969, Note_on_c, 0, 63, 0
2, 7030, Note_on_c, 0, 63, 52
2, 7104, Note_on_c, 0, 70, 0
2, 7150, Control_c, 0, 64, 0
2, 7157, Note_on_c, 0, 61, 65
2, 7157, Note_on_c, 0, 70, 51
2, 7179, Note_on_c, 0, 63, 0
2, 7194, Note_on_c, 0, 60, 0
2, 7261, Note_on_c, 0, 73, 0
2, 7301, Control_c, 0, 64, 127
2, 7318, Note_on_c, 0, 73, 51
2, 7449, Control_c, 0, 64, 0
2, 7465, Note_on_c, 0, 60, 65
2, 7482, Note_on_c, 0, 44, 50
2, 7494, Note_on_c, 0, 73, 0
2, 7494, Note_on_c, 0, 58, 0
2, 7494, Note_on_c, 0, 70, 0
2, 7494, Note_on_c, 0, 61, 0
2, 7496, Note_on_c, 0, 51, 0
2, 7518, Note_on_c, 0, 43, 0
2, 7615, Control_c, 0, 64, 127
2, 7637, Note_on_c, 0, 51, 48
2, 7710, Note_on_c, 0, 60, 0
2, 7755, Note_on_c, 0, 60, 50
2, 7861, Note_on_c, 0, 63, 47
2, 7956, Note_on_c, 0, 68, 53
2, 8062, Note_on_c, 0, 72, 46
2, 8127, Note_on_c, 0, 44, 0
2, 8161, Note_on_c, 0, 44, 48
2, 8245, Note_on_c, 0, 51, 0
2, 8274, Note_on_c, 0, 51, 52
2, 8349, Note_on_c, 0, 60, 0
2, 8387, Note_on_c, 0, 60, 51
2, 8454, Note_on_c, 0, 63, 0
2, 8489, Note_on_c, 0, 63, 46
2, 8542, Note_on_c, 0, 68, 0
2, 8594, Note_on_c, 0, 68, 48
2, 8653, Note_on_c, 0, 72, 0
2, 8708, Note_on_c, 0, 72, 48
2, 8752, Control_c, 0, 67, 0
2, 8770, Note_on_c, 0, 44, 0
2, 8819, Note_on_c, 0, 60, 0
2, 8821, Note_on_c, 0, 44, 48
2, 8825, Control_c, 0, 64, 0
2, 8870, Note_on_c, 0, 60, 60
2, 8950, Note_on_c, 0, 51, 0
2, 8982, Control_c, 0, 64, 127
2, 8995, Note_on_c, 0, 60, 0
2, 9000, Note_on_c, 0, 51, 47
2, 9134, Note_on_c, 0, 60, 70
2, 9176, Note_on_c, 0, 63, 0
2, 9231, Note_on_c, 0, 63, 52
2, 9247, Note_on_c, 0, 60, 0
2, 9284, Note_on_c, 0, 68, 0
2, 9328, Note_on_c, 0, 68, 50
2, 9336, Note_on_c, 0, 60, 64
2, 9369, Note_on_c, 0, 72, 0
2, 9413, Note_on_c, 0, 72, 49
2, 9415, Note_on_c, 0, 60, 0
2, 9492, Note_on_c, 0, 44, 0
2, 9519, Note_on_c, 0, 60, 53
2, 9528, Note_on_c, 0, 44, 50
2, 9580, Note_on_c, 0, 51, 0
2, 9637, Note_on_c, 0, 51, 47
2, 9726, Note_on_c, 0, 61, 73
2, 9741, Note_on_c, 0, 60, 0
2, 9785, Note_on_c, 0, 63, 0
2, 9829, Note_on_c, 0, 63, 47
2, 9886, Note_on_c, 0, 63, 0
2, 9900, Note_on_c, 0, 68, 0
2, 9936, Note_on_c, 0, 63, 74
2, 9945, Note_on_c, 0, 68, 53
2, 10012, Note_on_c, 0, 72, 0
2, 10051, Note_on_c, 0, 72, 49
2, 10128, Note_on_c, 0, 63, 0
2, 10153, Note_on_c, 0, 44, 0
2, 10179, Note_on_c, 0, 63, 51
2, 10185, Control_c, 0, 64, 0
2, 10196, Note_on_c, 0, 51, 0
2, 10198, Note_on_c, 0, 44, 53
2, 10201, Note_on_c, 0, 72, 0
2, 10201, Note_on_c, 0, 68, 0
2, 10203, Note_on_c, 0, 61, 0
2, 10344, Note_on_c, 0, 53, 51
2, 10368, Control_c, 0, 64, 127
2, 10439, Note_on_c, 0, 60, 47
2, 10489, Note_on_c, 0, 63, 0
2, 10542, Note_on_c, 0, 63, 50
2, 10646, Note_on_c, 0, 68, 52
2, 10764, Note_on_c, 0, 72, 50
2, 10879, Note_on_c, 0, 32, 49
2, 11005, Note_on_c, 0, 44, 0
2, 11041, Note_on_c, 0, 44, 47
2, 11114, Note_on_c, 0, 53, 0
2, 11226, Note_on_c, 0, 60, 0
2, 11234, Note_on_c, 0, 53, 69
2, 11255, Note_on_c, 0, 60, 53
2, 11388, Note_on_c, 0, 63, 0
2, 11424, Note_on_c, 0, 63, 48
2, 11530, Note_on_c, 0, 68, 0
2, 11574, Note_on_c, 0, 68, 47
2, 11596, Note_on_c, 0, 53, 0
2, 11691, Note_on_c, 0, 72, 0
2, 11730, Note_on_c, 0, 53, 68
2, 11750, Note_on_c, 0, 72, 48
2, 11799, Control_c, 0, 64, 0
2, 11915, Note_on_c, 0, 34, 53
2, 11946, Note_on_c, 0, 58, 73
2, 11962, Note_on_c, 0, 72, 0
2, 11962, Note_on_c, 0, 68, 0
2, 11964, Note_on_c, 0, 60, 0
2, 11964, Note_on_c, 0, 53, 0
2, 11964, Note_on_c, 0, 44, 0
2, 11964, Note_on_c, 0, 63, 0
2, 11966, Note_on_c, 0, 32, 0
2, 12059, Control_c, 0, 64, 127
2, 12101, Note_on_c, 0, 46, 47
2, 12211, Note_on_c, 0, 53, 71
2, 12311, Note_on_c, 0, 62, 46
2, 12406, Note_on_c, 0, 55, 64
2, 12436, Note_on_c, 0, 68, 52
2, 12533, Note_on_c, 0, 70, 49
2, 12560, Control_c, 0, 64, 0
2, 12604, Note_on_c, 0, 34, 0
2, 12631, Note_on_c, 0, 56, 64
2, 12637, Note_on_c, 0, 70, 0
2, 12637, Note_on_c, 0, 68, 0
2, 12639, Note_on_c, 0, 62, 0
2, 12639, Note_on_c, 0, 58, 0
2, 12639, Note_on_c, 0, 55, 0
2, 12641, Note_on_c, 0, 53, 0
2, 12648, Note_on_c, 0, 34, 47
2, 12707, Note_on_c, 0, 46, 0
2, 12733, Control_c, 0, 64, 127
2, 12755, Note_on_c, 0, 46, 51
2, 12866, Note_on_c, 0, 58, 52
2, 13029, Note_on_c, 0, 62, 49
2, 13163, Note_on_c, 0, 56, 0
2, 13214, Note_on_c, 0, 56, 63
2, 13226, Note_on_c, 0, 65, 46
2, 13429, Note_on_c, 0, 70, 51
2, 13431, Note_on_c, 0, 55, 63
2, 13451, Note_on_c, 0, 56, 0
2, 13506, Note_on_c, 0, 55, 0
2, 13553, Control_c, 0, 64, 0
2, 13573, Note_on_c, 0, 46, 0
2, 13573, Note_on_c, 0, 55, 48
2, 13575, Note_on_c, 0, 34, 0
2, 13589, Note_on_c, 0, 39, 52
2, 13595, Note_on_c, 0, 65, 0
2, 13595, Note_on_c, 0, 70, 0
2, 13597, Note_on_c, 0, 62, 0
2, 13597, Note_on_c, 0, 58, 0
2, 13670, Control_c, 0, 67, 127
2, 13755, Note_on_c, 0, 46, 48
2, 13776, Control_c, 0, 64, 127
2, 13857, Note_on_c, 0, 58, 49
2, 13959, Note_on_c, 0, 63, 53
2, 14052, Note_on_c, 0, 67, 46
2, 14143, Note_on_c, 0, 70, 51
2, 14222, Note_on_c, 0, 39, 0
2, 14273, Note_on_c, 0, 39, 46
2, 14368, Note_on_c, 0, 55, 0
2, 14372, Note_on_c, 0, 46, 0
2, 14421, Note_on_c, 0, 55, 49
2, 14423, Note_on_c, 0, 46, 53
2, 14486, Note_on_c, 0, 58, 0
2, 14533, Control_c, 0, 67, 0
2, 14545, Note_on_c, 0, 58, 49
2, 14629, Note_on_c, 0, 63, 0
2, 14667, Note_on_c, 0, 63, 47
2, 14775, Note_on_c, 0, 63, 0
2, 14791, Note_on_c, 0, 67, 0
2, 14830, Note_on_c, 0, 63, 72
2, 14830, Note_on_c, 0, 67, 50
2, 14903, Note_on_c, 0, 70, 0
2, 14953, Note_on_c, 0, 70, 50
2, 14979, Note_on_c, 0, 63, 0
2, 14987, Note_on_c, 0, 39, 0
2, 15013, Control_c, 0, 64, 0
2, 15040, Note_on_c, 0, 39, 53
2, 15060, Note_on_c, 0, 55, 0
2, 15060, Note_on_c, 0, 58, 0
2, 15062, Note_on_c, 0, 46, 0
2, 15074, Note_on_c, 0, 63, 70
2, 15080, Note_on_c, 0, 67, 0
2, 15080, Note_on_c, 0, 70, 0
2, 15193, Note_on_c, 0, 46, 49
2, 15202, Note_on_c, 0, 54, 47
2, 15233, Control_c, 0, 64, 127
2, 15304, Note_on_c, 0, 58, 65
2, 15348, Note_on_c, 0, 63, 0
2, 15401, Note_on_c, 0, 63, 52
2, 15445, Note_on_c, 0, 58, 0
2, 15496, Note_on_c, 0, 58, 68
2, 15504, Note_on_c, 0, 66, 52
2, 15595, Note_on_c, 0, 70, 52
2, 15613, Note_on_c, 0, 39, 0
2, 15657, Note_on_c, 0, 39, 59
2, 15663, Note_on_c, 0, 61, 58
2, 15669, Control_c, 0, 64, 0
2, 15687, Note_on_c, 0, 58, 0
2, 15687, Note_on_c, 0, 54, 0
2, 15687, Note_on_c, 0, 63, 0
2, 15687, Note_on_c, 0, 46, 0
2, 15687, Note_on_c, 0, 66, 0
2, 15695, Note_on_c, 0, 60, 71
2, 15709, Note_on_c, 0, 61, 0
2, 15794, Note_on_c, 0, 46, 51
2, 15794, Note_on_c, 0, 54, 49
2, 15837, Control_c, 0, 64, 127
2, 15884, Note_on_c, 0, 58, 64
2, 15973, Note_on_c, 0, 63, 47
2, 16024, Note_on_c, 0, 60, 0
2, 16073, Note_on_c, 0, 66, 50
2, 16075, Note_on_c, 0, 60, 67
2, 16117, Note_on_c, 0, 70, 0
2, 16168, Note_on_c, 0, 70, 48
2, 16190, Note_on_c, 0, 46, 0
2, 16223, Control_c, 0, 64, 0
2, 16241, Note_on_c, 0, 46, 52
2, 16251, Note_on_c, 0, 66, 0
2, 16251, Note_on_c, 0, 63, 0
2, 16253, Note_on_c, 0, 54, 0
2, 16253, Note_on_c, 0, 58, 0
2, 16261, Note_on_c, 0, 70, 0
2, 16267, Note_on_c, 0, 60, 0
2, 16267, Note_on_c, 0, 61, 71
2, 16271, Note_on_c, 0, 39, 0
2, 16321, Control_c, 0, 67, 127
2, 16387, Note_on_c, 0, 53, 47
2, 16427, Control_c, 0, 64, 127
2, 16472, Note_on_c, 0, 58, 53
2, 16517, Note_on_c, 0, 61, 0
2, 16568, Note_on_c, 0, 61, 48
2, 16668, Note_on_c, 0, 65, 49
2, 16776, Note_on_c, 0, 70, 52
2, 16832, Note_on_c, 0, 46, 0
2, 16879, Note_on_c, 0, 46, 53
2, 16923, Note_on_c, 0, 65, 0
2, 16970, Note_on_c, 0, 65, 66
2, 17087, Note_on_c, 0, 53, 0
2, 17121, Note_on_c, 0, 53, 48
2, 17194, Note_on_c, 0, 58, 0
2, 17241, Note_on_c, 0, 58, 47
2, 17318, Note_on_c, 0, 61, 0
2, 17362, Note_on_c, 0, 61, 46
2, 17442, Note_on_c, 0, 58, 0
2, 17464, Note_on_c, 0, 65, 0
2, 17495, Note_on_c, 0, 58, 66
2, 17509, Note_on_c, 0, 65, 51
2, 17558, Note_on_c, 0, 70, 0
2, 17594, Note_on_c, 0, 70, 52
2, 17639, Control_c, 0, 64, 0
2, 17681, Note_on_c, 0, 39, 51
2, 17710, Note_on_c, 0, 58, 0
2, 17710, Note_on_c, 0, 53, 0
2, 17710, Note_on_c, 0, 61, 0
2, 17712, Note_on_c, 0, 46, 0
2, 17715, Note_on_c, 0, 63, 75
2, 17732, Note_on_c, 0, 65, 0
2, 17732, Note_on_c, 0, 70, 0
2, 17868, Control_c, 0, 64, 127
2, 17910, Note_on_c, 0, 54, 47
2, 17919, Note_on_c, 0, 46, 50
2, 18023, Note_on_c, 0, 58, 53
2, 18096, Note_on_c, 0, 63, 0
2, 18141, Note_on_c, 0, 63, 53
2, 18214, Note_on_c, 0, 58, 0
2, 18272, Note_on_c, 0, 58, 71
2, 18280, Note_on_c, 0, 66, 51
2, 18371, Note_on_c, 0, 70, 50
2, 18397, Note_on_c, 0, 39, 0
2, 18442, Control_c, 0, 64, 0
2, 18444, Note_on_c, 0, 61, 56
2, 18453, Note_on_c, 0, 39, 53
2, 18456, Note_on_c, 0, 63, 0
2, 18477, Note_on_c, 0, 60, 64
2, 18513, Note_on_c, 0, 61, 0
2, 18535, Note_on_c, 0, 54, 0
2, 18537, Note_on_c, 0, 46, 0
2, 18577, Note_on_c, 0, 66, 0
2, 18579, Note_on_c, 0, 58, 0
2, 18587, Note_on_c, 0, 54, 50
2, 18589, Note_on_c, 0, 46, 48
2, 18605, Control_c, 0, 64, 127
2, 18721, Note_on_c, 0, 58, 68
2, 18838, Note_on_c, 0, 63, 47
2, 18909, Note_on_c, 0, 60, 0
2, 18971, Note_on_c, 0, 60, 71
2, 18971, Note_on_c, 0, 66, 46
2, 19022, Note_on_c, 0, 70, 0
2, 19091, Note_on_c, 0, 70, 53
2, 19138, Control_c, 0, 64, 0
2, 19187, Note_on_c, 0, 46, 0
2, 19216, Note_on_c, 0, 61, 53
2, 19224, Note_on_c, 0, 46, 52
2, 19230, Note_on_c, 0, 66, 0
2, 19230, Note_on_c, 0, 60, 0
2, 19230, Note_on_c, 0, 63, 0
2, 19232, Note_on_c, 0, 54, 0
2, 19232, Note_on_c, 0, 58, 0
2, 19234, Note_on_c, 0, 39, 0
2, 19252, Note_on_c, 0, 70, 0
2, 19370, Control_c, 0, 64, 127
2, 19376, Note_on_c, 0, 53, 49
2, 19467, Note_on_c, 0, 58, 47
2, 19518, Note_on_c, 0, 61, 0
2, 19562, Note_on_c, 0, 61, 46
2, 19662, Note_on_c, 0, 65, 47
2, 19759, Note_on_c, 0, 70, 51
2, 19872, Note_on_c, 0, 56, 50
2, 19940, Note_on_c, 0, 58, 0
2, 20002, Note_on_c, 0, 58, 53
2, 20053, Note_on_c, 0, 58, 0
2, 20108, Note_on_c, 0, 58, 46
2, 20152, Note_on_c, 0, 61, 0
2, 20207, Note_on_c, 0, 61, 48
2, 20283, Note_on_c, 0, 65, 0
2, 20289, Note_on_c, 0, 61, 0
2, 20328, Note_on_c, 0, 61, 76
2, 20328, Note_on_c, 0, 65, 47
2, 20400, Note_on_c, 0, 70, 0
2, 20475, Note_on_c, 0, 70, 46
2, 20539, Note_on_c, 0, 61, 0
2, 20590, Note_on_c, 0, 58, 0
2, 20590, Note_on_c, 0, 56, 0
2, 20590, Note_on_c, 0, 65, 0
2, 20595, Control_c, 0, 64, 0
2, 20597, Note_on_c, 0, 61, 76
2, 20612, Note_on_c, 0, 53, 0
2, 20612, Note_on_c, 0, 70, 0
2, 20612, Note_on_c, 0, 55, 51
2, 20614, Note_on_c, 0, 46, 0
2, 20717, Note_on_c, 0, 58, 46
2, 20719, Note_on_c, 0, 61, 0
2, 20760, Control_c, 0, 64, 127
2, 20814, Note_on_c, 0, 61, 52
2, 20905, Note_on_c, 0, 67, 52
2, 20966, Note_on_c, 0, 61, 0
2, 21019, Note_on_c, 0, 70, 49
2, 21021, Note_on_c, 0, 61, 74
2, 21120, Note_on_c, 0, 73, 52
2, 21202, Control_c, 0, 64, 0
2, 21242, Note_on_c, 0, 53, 50
2, 21242, Note_on_c, 0, 65, 71
2, 21250, Note_on_c, 0, 73, 0
2, 21258, Note_on_c, 0, 67, 0
2, 21266, Note_on_c, 0, 70, 0
2, 21279, Note_on_c, 0, 61, 0
2, 21281, Note_on_c, 0, 58, 0
2, 21295, Note_on_c, 0, 55, 0
2, 21362, Control_c, 0, 64, 127
2, 21459, Note_on_c, 0, 58, 50
2, 21569, Note_on_c, 0, 63, 64
2, 21622, Note_on_c, 0, 65, 0
2, 21687, Note_on_c, 0, 67, 47
2, 21699, Control_c, 0, 67, 0
2, 21797, Note_on_c, 0, 70, 53
2, 21801, Note_on_c, 0, 61, 71
2, 21821, Note_on_c, 0, 63, 0
2, 21909, Note_on_c, 0, 73, 52
2, 21960, Control_c, 0, 64, 0
2, 22055, Note_on_c, 0, 60, 49
2, 22063, Note_on_c, 0, 73, 0
2, 22063, Note_on_c, 0, 67, 0
2, 22063, Note_on_c, 0, 61, 0
2, 22063, Note_on_c, 0, 70, 0
2, 22065, Note_on_c, 0, 52, 51
2, 22081, Note_on_c, 0, 53, 0
2, 22081, Note_on_c, 0, 58, 0
2, 22138, Control_c, 0, 64, 127
2, 22235, Note_on_c, 0, 58, 51
2, 22273, Note_on_c, 0, 60, 0
2, 22368, Note_on_c, 0, 60, 46
2, 22502, Note_on_c, 0, 67, 48
2, 22624, Note_on_c, 0, 63, 67
2, 22624, Note_on_c, 0, 70, 50
2, 22726, Note_on_c, 0, 61, 60
2, 22744, Note_on_c, 0, 72, 48
2, 22754, Note_on_c, 0, 60, 0
2, 22760, Note_on_c, 0, 63, 0
2, 22786, Control_c, 0, 64, 0
2, 22819, Note_on_c, 0, 67, 0
2, 22819, Note_on_c, 0, 58, 0
2, 22819, Note_on_c, 0, 70, 0
2, 22826, Note_on_c, 0, 72, 0
2, 22828, Note_on_c, 0, 60, 51
2, 22839, Note_on_c, 0, 61, 0
2, 22841, Note_on_c, 0, 55, 49
2, 22863, Note_on_c, 0, 52, 0
2, 22946, Control_c, 0, 64, 127
2, 22965, Note_on_c, 0, 58, 51
2, 23032, Note_on_c, 0, 60, 0
2, 23090, Note_on_c, 0, 60, 47
2, 23225, Note_on_c, 0, 64, 50
2, 23332, Note_on_c, 0, 60, 0
2, 23381, Note_on_c, 0, 60, 73
2, 23381, Note_on_c, 0, 67, 53
2, 23485, Note_on_c, 0, 72, 48
2, 23521, Control_c, 0, 64, 0
2, 23548, Note_on_c, 0, 60, 0
2, 23601, Note_on_c, 0, 60, 53
2, 23609, Note_on_c, 0, 55, 0
2, 23616, Note_on_c, 0, 58, 0
2, 23616, Note_on_c, 0, 67, 0
2, 23616, Note_on_c, 0, 64, 0
2, 23616, Note_on_c, 0, 72, 0
2, 23616, Note_on_c, 0, 53, 48
2, 23710, Control_c, 0, 64, 127
2, 23722, Note_on_c, 0, 56, 50
2, 23781, Note_on_c, 0, 60, 0
2, 23826, Note_on_c, 0, 60, 48
2, 23928, Note_on_c, 0, 65, 50
2, 23991, Note_on_c, 0, 60, 0
2, 24042, Note_on_c, 0, 60, 76
2, 24042, Note_on_c, 0, 68, 46
2, 24169, Note_on_c, 0, 72, 50
2, 24255, Control_c, 0, 64, 0
2, 24302, Note_on_c, 0, 63, 49
2, 24314, Note_on_c, 0, 72, 0
2, 24314, Note_on_c, 0, 60, 0
2, 24314, Note_on_c, 0, 56, 0
2, 24314, Note_on_c, 0, 65, 0
2, 24314, Note_on_c, 0, 68, 0
2, 24314, Note_on_c, 0, 51, 46
2, 24347, Note_on_c, 0, 53, 0
2, 24396, Control_c, 0, 64, 127
2, 24540, Note_on_c, 0, 56, 56
2, 24690, Note_on_c, 0, 61, 62
2, 24748, Note_on_c, 0, 63, 0
2, 24807, Note_on_c, 0, 65, 46
2, 24938, Note_on_c, 0, 65, 0
2, 24944, Note_on_c, 0, 60, 60
2, 24944, Note_on_c, 0, 68, 46
2, 24981, Note_on_c, 0, 61, 0
2, 25088, Note_on_c, 0, 72, 49
2, 25196, Control_c, 0, 64, 0
2, 25258, Note_on_c, 0, 58, 50
2, 25272, Note_on_c, 0, 72, 0
2, 25272, Note_on_c, 0, 60, 0
2, 25272, Note_on_c, 0, 68, 0
2, 25272, Note_on_c, 0, 56, 0
2, 25274, Note_on_c, 0, 49, 46
2, 25296, Note_on_c, 0, 51, 0
2, 25349, Control_c, 0, 67, 127
2, 25353, Control_c, 0, 64, 127
2, 25444, Note_on_c, 0, 56, 50
2, 25505, Note_on_c, 0, 58, 0
2, 25560, Note_on_c, 0, 58, 50
2, 25669, Note_on_c, 0, 65, 48
2, 25764, Note_on_c, 0, 68, 53
2, 25884, Note_on_c, 0, 70, 52
2, 25969, Control_c, 0, 64, 0
2, 25988, Note_on_c, 0, 68, 0
2, 25988, Note_on_c, 0, 65, 0
2, 26002, Note_on_c, 0, 51, 51
2, 26010, Note_on_c, 0, 56, 0
2, 26010, Note_on_c, 0, 70, 0
2, 26034, Note_on_c, 0, 49, 0
2, 26147, Note_on_c, 0, 55, 52
2, 26149, Control_c, 0, 64, 127
2, 26264, Note_on_c, 0, 61, 53
2, 26406, Note_on_c, 0, 63, 48
2, 26503, Note_on_c, 0, 51, 0
2, 26545, Note_on_c, 0, 70, 52
2, 26554, Note_on_c, 0, 51, 58
2, 26667, Note_on_c, 0, 73, 52
2, 26730, Control_c, 0, 64, 0
2, 26759, Note_on_c, 0, 44, 49
2, 26824, Note_on_c, 0, 70, 0
2, 26824, Note_on_c, 0, 61, 0
2, 26824, Note_on_c, 0, 63, 0
2, 26826, Note_on_c, 0, 58, 0
2, 26826, Note_on_c, 0, 55, 0
2, 26832, Note_on_c, 0, 60, 64
2, 26846, Note_on_c, 0, 73, 0
2, 26941, Control_c, 0, 64, 127
2, 27000, Note_on_c, 0, 51, 0
2, 27044, Note_on_c, 0, 51, 46
2, 27182, Note_on_c, 0, 60, 0
2, 27182, Note_on_c, 0, 63, 46
2, 27289, Note_on_c, 0, 68, 48
2, 27291, Note_on_c, 0, 60, 62
2, 27389, Note_on_c, 0, 60, 0
2, 27389, Note_on_c, 0, 72, 46
2, 27497, Note_on_c, 0, 60, 46
2, 27511, Note_on_c, 0, 39, 50
2, 27578, Note_on_c, 0, 51, 0
2, 27629, Note_on_c, 0, 51, 49
2, 27744, Note_on_c, 0, 61, 68
2, 27785, Note_on_c, 0, 60, 0
2, 27797, Note_on_c, 0, 63, 0
2, 27850, Note_on_c, 0, 63, 48
2, 27927, Note_on_c, 0, 63, 0
2, 27943, Note_on_c, 0, 68, 0
2, 27982, Note_on_c, 0, 63, 68
2, 27982, Note_on_c, 0, 68, 52
2, 28056, Note_on_c, 0, 72, 0
2, 28093, Note_on_c, 0, 72, 51
2, 28109, Note_on_c, 0, 63, 0
2, 28188, Control_c, 0, 64, 0
2, 28199, Note_on_c, 0, 63, 49
2, 28213, Note_on_c, 0, 61, 0
2, 28215, Note_on_c, 0, 51, 0
2, 28215, Note_on_c, 0, 44, 0
2, 28215, Note_on_c, 0, 46, 51
2, 28217, Note_on_c, 0, 39, 0
2, 28244, Note_on_c, 0, 72, 0
2, 28244, Note_on_c, 0, 68, 0
2, 28337, Note_on_c, 0, 51, 47
2, 28363, Control_c, 0, 64, 127
2, 28425, Note_on_c, 0, 61, 53
2, 28467, Note_on_c, 0, 63, 0
2, 28518, Note_on_c, 0, 63, 47
2, 28611, Note_on_c, 0, 67, 47
2, 28711, Note_on_c, 0, 73, 47
2, 28795, Note_on_c, 0, 39, 53
2, 28853, Note_on_c, 0, 51, 0
2, 28897, Note_on_c, 0, 51, 48
2, 28942, Note_on_c, 0, 61, 0
2, 28987, Note_on_c, 0, 61, 51
2, 29032, Note_on_c, 0, 63, 0
2, 29076, Note_on_c, 0, 63, 52
2, 29120, Note_on_c, 0, 67, 0
2, 29165, Note_on_c, 0, 67, 52
2, 29224, Note_on_c, 0, 73, 0
2, 29240, Note_on_c, 0, 46, 0
2, 29260, Note_on_c, 0, 73, 47
2, 29360, Note_on_c, 0, 46, 54
2, 29419, Note_on_c, 0, 51, 0
2, 29463, Note_on_c, 0, 51, 54
2, 29521, Note_on_c, 0, 61, 0
2, 29566, Note_on_c, 0, 61, 56
2, 29633, Note_on_c, 0, 63, 0
2, 29675, Note_on_c, 0, 63, 54
2, 29740, Note_on_c, 0, 67, 0
2, 29785, Note_on_c, 0, 67, 58
2, 29891, Note_on_c, 0, 73, 0
2, 29936, Note_on_c, 0, 73, 51
2, 30190, Note_on_c, 0, 55, 67
2, 30206, Note_on_c, 0, 73, 0
2, 31018, Control_c, 0, 64, 0
2, 31158, Note_on_c, 0, 39, 0
2, 31166, Note_on_c, 0, 46, 0
2, 31170, Note_on_c, 0, 67, 0
2, 31172, Note_on_c, 0, 63, 0
2, 31172, Note_on_c, 0, 61, 0
2, 31179, Note_on_c, 0, 51, 0
2, 31234, Note_on_c, 0, 55, 0
2, 31234, Note_on_c, 0, 57, 46
2, 31240, Note_on_c, 0, 63, 51
2, 31240, Note_on_c, 0, 66, 53
2, 31240, Note_on_c, 0, 69, 48
2, 31248, Note_on_c, 0, 48, 46
2, 31289, Control_c, 0, 64, 127
2, 31471, Control_c, 0, 64, 0
2, 31473, Note_on_c, 0, 58, 61
2, 31479, Note_on_c, 0, 65, 52
2, 31479, Note_on_c, 0, 70, 48
2, 31489, Note_on_c, 0, 49, 49
2, 31493, Note_on_c, 0, 69, 0
2, 31493, Note_on_c, 0, 66, 0
2, 31493, Note_on_c, 0, 63, 0
2, 31495, Note_on_c, 0, 57, 0
2, 31495, Note_on_c, 0, 48, 0
2, 31648, Control_c, 0, 64, 127
2, 31865, Note_on_c, 0, 58, 0
2, 32027, Note_on_c, 0, 58, 52
2, 32185, Note_on_c, 0, 51, 53
2, 32236, Note_on_c, 0, 61, 66
2, 32244, Control_c, 0, 64, 0
2, 32275, Note_on_c, 0, 58, 0
2, 32275, Note_on_c, 0, 65, 0
2, 32275, Note_on_c, 0, 63, 48
2, 32277, Note_on_c, 0, 49, 0
2, 32322, Note_on_c, 0, 70, 0
2, 32328, Note_on_c, 0, 67, 47
2, 32457, Control_c, 0, 64, 127
2, 33107, Note_on_c, 0, 60, 48
2, 33120, Control_c, 0, 64, 0
2, 33187, Note_on_c, 0, 61, 0
2, 33287, Control_c, 0, 64, 127
2, 33520, Control_c, 0, 64, 0
2, 33562, Note_on_c, 0, 56, 49
2, 33564, Note_on_c, 0, 51, 0
2, 33576, Note_on_c, 0, 67, 0
2, 33576, Note_on_c, 0, 63, 0
2, 33578, Note_on_c, 0, 44, 48
2, 33599, Note_on_c, 0, 60, 0
2, 33724, Control_c, 0, 64, 127
2, 33795, Note_on_c, 0, 51, 48
2, 33917, Note_on_c, 0, 60, 52
2, 34023, Note_on_c, 0, 63, 51
2, 34121, Note_on_c, 0, 68, 53
2, 34190, Control_c, 0, 67, 0
2, 34232, Note_on_c, 0, 72, 52
2, 34330, Note_on_c, 0, 54, 68
2, 34412, Note_on_c, 0, 56, 0
2, 34420, Control_c, 0, 67, 127
2, 34449, Note_on_c, 0, 56, 47
2, 34500, Note_on_c, 0, 63, 0
2, 34547, Note_on_c, 0, 63, 48
2, 34600, Note_on_c, 0, 68, 0
2, 34645, Note_on_c, 0, 68, 50
2, 34707, Note_on_c, 0, 72, 0
2, 34752, Note_on_c, 0, 72, 51
2, 34824, Control_c, 0, 67, 0
2, 34848, Note_on_c, 0, 75, 51
2, 34872, Control_c, 0, 64, 0
2, 34944, Note_on_c, 0, 44, 0
2, 34944, Note_on_c, 0, 51, 0
2, 34949, Note_on_c, 0, 53, 68
2, 34964, Note_on_c, 0, 72, 0
2, 34966, Note_on_c, 0, 68, 0
2, 34966, Note_on_c, 0, 75, 0
2, 34966, Note_on_c, 0, 54, 0
2, 34966, Note_on_c, 0, 60, 0
2, 34966, Note_on_c, 0, 63, 0
2, 35028, Note_on_c, 0, 56, 0
2, 35061, Control_c, 0, 64, 127
2, 35071, Note_on_c, 0, 56, 50
2, 35112, Control_c, 0, 67, 127
2, 35175, Note_on_c, 0, 62, 49
2, 35254, Note_on_c, 0, 65, 46
2, 35341, Note_on_c, 0, 68, 49
2, 35436, Note_on_c, 0, 74, 47
2, 35448, Control_c, 0, 67, 0
2, 35509, Control_c, 0, 64, 0
2, 35542, Note_on_c, 0, 52, 75
2, 35562, Note_on_c, 0, 74, 0
2, 35562, Note_on_c, 0, 68, 0
2, 35564, Note_on_c, 0, 65, 0
2, 35564, Note_on_c, 0, 62, 0
2, 35564, Note_on_c, 0, 56, 0
2, 35566, Note_on_c, 0, 53, 0
2, 35655, Control_c, 0, 67, 127
2, 35679, Control_c, 0, 64, 127
2, 35683, Note_on_c, 0, 61, 49
2, 35786, Note_on_c, 0, 68, 49
2, 35874, Note_on_c, 0, 73, 48
2, 35976, Note_on_c, 0, 76, 51
2, 36048, Control_c, 0, 67, 0
2, 36093, Note_on_c, 0, 80, 47
2, 36149, Control_c, 0, 64, 0
2, 36210, Note_on_c, 0, 76, 0
2, 36212, Note_on_c, 0, 51, 71
2, 36217, Note_on_c, 0, 73, 0
2, 36217, Note_on_c, 0, 80, 0
2, 36225, Note_on_c, 0, 68, 0
2, 36225, Note_on_c, 0, 61, 0
2, 36249, Note_on_c, 0, 52, 0
2, 36310, Control_c, 0, 64, 127
2, 36330, Note_on_c, 0, 58, 47
2, 36336, Control_c, 0, 67, 127
2, 36417, Note_on_c, 0, 67, 49
2, 36508, Note_on_c, 0, 70, 52
2, 36596, Note_on_c, 0, 73, 52
2, 36679, Control_c, 0, 67, 0
2, 36716, Note_on_c, 0, 79, 49
2, 36748, Control_c, 0, 64, 0
2, 36832, Note_on_c, 0, 79, 0
2, 36832, Note_on_c, 0, 70, 0
2, 36832, Note_on_c, 0, 67, 0
2, 36832, Note_on_c, 0, 73, 0
2, 36834, Note_on_c, 0, 58, 0
2, 36842, Note_on_c, 0, 48, 62
2, 36881, Note_on_c, 0, 51, 0
2, 36917, Control_c, 0, 67, 127
2, 36939, Control_c, 0, 64, 127
2, 36976, Note_on_c, 0, 56, 46
2, 37089, Note_on_c, 0, 63, 51
2, 37184, Note_on_c, 0, 68, 48
2, 37296, Note_on_c, 0, 72, 46
2, 37356, Control_c, 0, 67, 0
2, 37400, Note_on_c, 0, 75, 48
2, 37431, Control_c, 0, 64, 0
2, 37510, Note_on_c, 0, 46, 59
2, 37530, Note_on_c, 0, 75, 0
2, 37530, Note_on_c, 0, 68, 0
2, 37530, Note_on_c, 0, 56, 0
2, 37530, Note_on_c, 0, 63, 0
2, 37530, Note_on_c, 0, 72, 0
2, 37570, Note_on_c, 0, 48, 0
2, 37631, Note_on_c, 0, 53, 47
2, 37636, Control_c, 0, 67, 127
2, 37642, Control_c, 0, 64, 127
2, 37742, Note_on_c, 0, 61, 49
2, 37855, Note_on_c, 0, 65, 50
2, 37967, Note_on_c, 0, 68, 47
2, 38078, Note_on_c, 0, 73, 51
2, 38133, Control_c, 0, 64, 0
2, 38212, Note_on_c, 0, 39, 56
2, 38225, Note_on_c, 0, 73, 0
2, 38225, Note_on_c, 0, 65, 0
2, 38225, Note_on_c, 0, 61, 0
2, 38225, Note_on_c, 0, 68, 0
2, 38227, Note_on_c, 0, 53, 0
2, 38256, Note_on_c, 0, 46, 0
2, 38316, Control_c, 0, 64, 127
2, 38365, Note_on_c, 0, 55, 50
2, 38467, Note_on_c, 0, 58, 48
2, 38567, Note_on_c, 0, 61, 52
2, 38668, Note_on_c, 0, 63, 53
2, 38774, Note_on_c, 0, 70, 50
2, 38801, Control_c, 0, 64, 0
2, 38921, Note_on_c, 0, 44, 49
2, 38927, Note_on_c, 0, 58, 0
2, 38934, Note_on_c, 0, 63, 0
2, 38934, Note_on_c, 0, 61, 0
2, 38934, Note_on_c, 0, 55, 0
2, 38951, Note_on_c, 0, 70, 0
2, 38961, Note_on_c, 0, 39, 0
2, 39048, Note_on_c, 0, 51, 47
2, 39132, Control_c, 0, 64, 127
2, 39165, Note_on_c, 0, 56, 53
2, 39262, Note_on_c, 0, 60, 47
2, 39363, Note_on_c, 0, 63, 50
2, 39473, Note_on_c, 0, 68, 50
2, 39570, Note_on_c, 0, 44, 0
2, 39606, Note_on_c, 0, 44, 51
2, 39699, Note_on_c, 0, 51, 0
2, 39736, Note_on_c, 0, 51, 46
2, 39817, Note_on_c, 0, 56, 0
2, 39856, Note_on_c, 0, 56, 52
2, 39954, Note_on_c, 0, 60, 0
2, 39974, Control_c, 0, 67, 0
2, 39998, Note_on_c, 0, 60, 51
2, 40045, Note_on_c, 0, 63, 0
2, 40142, Note_on_c, 0, 51, 0
2, 40195, Note_on_c, 0, 51, 67
2, 40195, Note_on_c, 0, 63, 70
2, 40270, Note_on_c, 0, 68, 0
2, 40322, Note_on_c, 0, 68, 51
2, 40339, Note_on_c, 0, 44, 0
2, 40339, Note_on_c, 0, 60, 0
2, 40392, Note_on_c, 0, 60, 53
2, 40404, Note_on_c, 0, 44, 53
2, 40481, Note_on_c, 0, 72, 70
2, 40562, Note_on_c, 0, 51, 0
2, 40597, Note_on_c, 0, 51, 51
2, 40662, Note_on_c, 0, 56, 0
2, 40711, Note_on_c, 0, 56, 47
2, 40776, Note_on_c, 0, 63, 0
2, 40776, Note_on_c, 0, 68, 0
2, 40825, Note_on_c, 0, 68, 52
2, 40827, Note_on_c, 0, 63, 48
2, 40955, Note_on_c, 0, 72, 0
2, 40971, Note_on_c, 0, 60, 0
2, 41022, Note_on_c, 0, 60, 58
2, 41022, Note_on_c, 0, 72, 66
2, 41146, Note_on_c, 0, 87, 49
2, 41168, Note_on_c, 0, 72, 0
2, 41170, Note_on_c, 0, 60, 0
2, 41227, Note_on_c, 0, 44, 0
2, 41254, Note_on_c, 0, 72, 69
2, 41262, Note_on_c, 0, 60, 62
2, 41279, Note_on_c, 0, 44, 50
2, 41307, Note_on_c, 0, 87, 0
2, 41378, Note_on_c, 0, 51, 0
2, 41415, Note_on_c, 0, 51, 48
2, 41498, Note_on_c, 0, 56, 0
2, 41543, Note_on_c, 0, 61, 60
2, 41543, Note_on_c, 0, 73, 66
2, 41559, Note_on_c, 0, 56, 48
2, 41581, Note_on_c, 0, 72, 0
2, 41587, Note_on_c, 0, 60, 0
2, 41609, Note_on_c, 0, 68, 0
2, 41609, Note_on_c, 0, 63, 0
2, 41653, Note_on_c, 0, 63, 48
2, 41653, Note_on_c, 0, 68, 50
2, 41688, Note_on_c, 0, 63, 0
2, 41740, Note_on_c, 0, 63, 65
2, 41740, Note_on_c, 0, 75, 71
2, 41835, Note_on_c, 0, 87, 47
2, 41864, Note_on_c, 0, 75, 0
2, 41919, Control_c, 0, 64, 0
2, 41929, Note_on_c, 0, 63, 0
2, 41955, Note_on_c, 0, 46, 50
2, 41968, Note_on_c, 0, 63, 64
2, 41968, Note_on_c, 0, 75, 68
2, 42004, Note_on_c, 0, 87, 0
2, 42004, Note_on_c, 0, 73, 0
2, 42004, Note_on_c, 0, 61, 0
2, 42004, Note_on_c, 0, 68, 0
2, 42006, Note_on_c, 0, 56, 0
2, 42006, Note_on_c, 0, 51, 0
2, 42008, Note_on_c, 0, 44, 0
2, 42012, Control_c, 0, 67, 127
2, 42083, Note_on_c, 0, 51, 51
2, 42099, Control_c, 0, 64, 127
2, 42199, Note_on_c, 0, 61, 51
2, 42207, Note_on_c, 0, 55, 52
2, 42335, Note_on_c, 0, 67, 49
2, 42335, Note_on_c, 0, 73, 46
2, 42413, Note_on_c, 0, 75, 0
2, 42472, Note_on_c, 0, 75, 50
2, 42596, Note_on_c, 0, 87, 46
2, 42634, Note_on_c, 0, 67, 0
2, 42658, Note_on_c, 0, 46, 0
2, 42687, Note_on_c, 0, 55, 0
2, 42707, Note_on_c, 0, 46, 48
2, 42745, Note_on_c, 0, 55, 65
2, 42751, Note_on_c, 0, 67, 50
2, 42883, Note_on_c, 0, 51, 0
2, 42934, Note_on_c, 0, 51, 49
2, 43013, Note_on_c, 0, 55, 0
2, 43057, Note_on_c, 0, 55, 46
2, 43145, Note_on_c, 0, 61, 0
2, 43145, Note_on_c, 0, 63, 0
2, 43165, Control_c, 0, 67, 0
2, 43187, Note_on_c, 0, 63, 53
2, 43189, Note_on_c, 0, 61, 48
2, 43339, Note_on_c, 0, 75, 0
2, 43341, Note_on_c, 0, 63, 0
2, 43392, Note_on_c, 0, 63, 66
2, 43392, Note_on_c, 0, 75, 50
2, 43446, Control_c, 0, 64, 0
2, 43461, Note_on_c, 0, 87, 0
2, 43515, Note_on_c, 0, 87, 48
2, 43625, Note_on_c, 0, 43, 46
2, 43659, Note_on_c, 0, 55, 0
2, 43661, Note_on_c, 0, 51, 0
2, 43661, Note_on_c, 0, 46, 0
2, 43667, Note_on_c, 0, 70, 65
2, 43675, Note_on_c, 0, 58, 67
2, 43682, Note_on_c, 0, 63, 0
2, 43682, Note_on_c, 0, 61, 0
2, 43682, Note_on_c, 0, 67, 0
2, 43701, Control_c, 0, 64, 127
2, 43704, Note_on_c, 0, 75, 0
2, 43704, Note_on_c, 0, 73, 0
2, 43801, Note_on_c, 0, 51, 47
2, 43816, Note_on_c, 0, 70, 0
2, 43847, Note_on_c, 0, 58, 0
2, 43896, Note_on_c, 0, 70, 65
2, 43897, Note_on_c, 0, 58, 58
2, 43989, Note_on_c, 0, 61, 51
2, 43994, Note_on_c, 0, 63, 52
2, 44003, Note_on_c, 0, 70, 0
2, 44041, Note_on_c, 0, 58, 0
2, 44094, Note_on_c, 0, 58, 71
2, 44102, Note_on_c, 0, 70, 68
2, 44153, Note_on_c, 0, 87, 0
2, 44206, Note_on_c, 0, 87, 51
2, 44222, Note_on_c, 0, 70, 0
2, 44260, Note_on_c, 0, 58, 0
2, 44279, Note_on_c, 0, 43, 0
2, 44313, Note_on_c, 0, 70, 67
2, 44317, Note_on_c, 0, 58, 61
2, 44333, Note_on_c, 0, 43, 47
2, 44386, Note_on_c, 0, 51, 0
2, 44437, Note_on_c, 0, 51, 47
2, 44522, Note_on_c, 0, 61, 0
2, 44526, Note_on_c, 0, 72, 68
2, 44535, Note_on_c, 0, 60, 50
2, 44580, Note_on_c, 0, 63, 0
2, 44633, Note_on_c, 0, 63, 46
2, 44773, Note_on_c, 0, 61, 48
2, 44781, Note_on_c, 0, 73, 58
2, 44803, Note_on_c, 0, 63, 0
2, 44808, Note_on_c, 0, 72, 0
2, 44810, Note_on_c, 0, 60, 0
2, 44896, Note_on_c, 0, 87, 0
2, 44947, Note_on_c, 0, 87, 53
2, 45056, Control_c, 0, 64, 0
2, 45095, Note_on_c, 0, 72, 53
2, 45103, Note_on_c, 0, 44, 49
2, 45103, Note_on_c, 0, 60, 48
2, 45136, Note_on_c, 0, 70, 0
2, 45136, Note_on_c, 0, 73, 0
2, 45138, Note_on_c, 0, 61, 0
2, 45138, Note_on_c, 0, 51, 0
2, 45138, Note_on_c, 0, 58, 0
2, 45140, Note_on_c, 0, 43, 0
2, 45150, Note_on_c, 0, 87, 0
2, 45216, Control_c, 0, 64, 127
2, 45223, Control_c, 0, 67, 127
2, 45280, Note_on_c, 0, 51, 52
2, 45336, Note_on_c, 0, 60, 0
2, 45397, Note_on_c, 0, 60, 47
2, 45405, Note_on_c, 0, 56, 53
2, 45496, Note_on_c, 0, 63, 49
2, 45496, Note_on_c, 0, 68, 51
2, 45549, Note_on_c, 0, 72, 0
2, 45609, Note_on_c, 0, 72, 47
2, 45729, Note_on_c, 0, 87, 50
2, 45731, Note_on_c, 0, 75, 50
2, 45815, Note_on_c, 0, 44, 0
2, 45859, Note_on_c, 0, 44, 51
2, 45926, Note_on_c, 0, 51, 0
2, 45970, Note_on_c, 0, 51, 46
2, 46049, Note_on_c, 0, 60, 0
2, 46049, Note_on_c, 0, 56, 0
2, 46087, Note_on_c, 0, 56, 46
2, 46087, Note_on_c, 0, 60, 50
2, 46162, Note_on_c, 0, 68, 0
2, 46162, Note_on_c, 0, 63, 0
2, 46199, Note_on_c, 0, 63, 48
2, 46199, Note_on_c, 0, 68, 53
2, 46275, Note_on_c, 0, 72, 0
2, 46336, Note_on_c, 0, 72, 47
2, 46372, Note_on_c, 0, 75, 0
2, 46433, Note_on_c, 0, 87, 0
2, 46460, Control_c, 0, 67, 0
2, 46482, Note_on_c, 0, 87, 47
2, 46565, Note_on_c, 0, 44, 0
2, 46584, Note_on_c, 0, 72, 0
2, 46585, Note_on_c, 0, 60, 0
2, 46611, Note_on_c, 0, 44, 53
2, 46638, Note_on_c, 0, 60, 53
2, 46644, Note_on_c, 0, 72, 57
2, 46728, Note_on_c, 0, 51, 0
2, 46780, Note_on_c, 0, 51, 53
2, 46784, Note_on_c, 0, 72, 0
2, 46837, Note_on_c, 0, 60, 0
2, 46853, Note_on_c, 0, 56, 0
2, 46886, Note_on_c, 0, 72, 59
2, 46890, Note_on_c, 0, 60, 53
2, 46902, Note_on_c, 0, 56, 50
2, 46947, Note_on_c, 0, 63, 0
2, 46947, Note_on_c, 0, 68, 0
2, 46992, Note_on_c, 0, 63, 53
2, 46992, Note_on_c, 0, 68, 50
2, 47016, Note_on_c, 0, 72, 0
2, 47044, Note_on_c, 0, 60, 0
2, 47095, Note_on_c, 0, 72, 61
2, 47097, Note_on_c, 0, 60, 64
2, 47148, Note_on_c, 0, 87, 0
2, 47201, Note_on_c, 0, 87, 49
2, 47203, Note_on_c, 0, 72, 0
2, 47239, Note_on_c, 0, 60, 0
2, 47263, Note_on_c, 0, 44, 0
2, 47289, Note_on_c, 0, 72, 67
2, 47291, Note_on_c, 0, 60, 48
2, 47307, Note_on_c, 0, 44, 51
2, 47358, Note_on_c, 0, 51, 0
2, 47407, Note_on_c, 0, 51, 49
2, 47460, Note_on_c, 0, 56, 0
2, 47487, Note_on_c, 0, 73, 71
2, 47496, Note_on_c, 0, 61, 66
2, 47510, Note_on_c, 0, 56, 46
2, 47522, Note_on_c, 0, 72, 0
2, 47524, Note_on_c, 0, 60, 0
2, 47532, Note_on_c, 0, 68, 0
2, 47532, Note_on_c, 0, 63, 0
2, 47583, Note_on_c, 0, 63, 52
2, 47583, Note_on_c, 0, 68, 53
2, 47636, Note_on_c, 0, 63, 0
2, 47687, Note_on_c, 0, 63, 67
2, 47687, Note_on_c, 0, 75, 77
2, 47754, Note_on_c, 0, 87, 0
2, 47805, Note_on_c, 0, 87, 50
2, 47849, Note_on_c, 0, 44, 0
2, 47887, Note_on_c, 0, 75, 0
2, 47889, Note_on_c, 0, 63, 0
2, 47900, Note_on_c, 0, 44, 52
2, 47932, Control_c, 0, 64, 0
2, 47940, Note_on_c, 0, 75, 75
2, 47942, Note_on_c, 0, 63, 65
2, 47954, Note_on_c, 0, 87, 0
2, 47954, Note_on_c, 0, 73, 0
2, 47956, Note_on_c, 0, 68, 0
2, 47956, Note_on_c, 0, 61, 0
2, 47956, Note_on_c, 0, 56, 0
2, 47958, Note_on_c, 0, 51, 0
2, 48037, Control_c, 0, 67, 127
2, 48081, Note_on_c, 0, 53, 52
2, 48094, Control_c, 0, 64, 127
2, 48193, Note_on_c, 0, 60, 49
2, 48303, Note_on_c, 0, 68, 51
2, 48305, Note_on_c, 0, 65, 50
2, 48384, Note_on_c, 0, 75, 0
2, 48437, Note_on_c, 0, 75, 48
2, 48559, Note_on_c, 0, 87, 49
2, 48679, Note_on_c, 0, 32, 53
2, 48714, Note_on_c, 0, 53, 0
2, 48714, Note_on_c, 0, 65, 0
2, 48765, Note_on_c, 0, 53, 71
2, 48765, Note_on_c, 0, 65, 68
2, 48785, Note_on_c, 0, 87, 0
2, 48785, Note_on_c, 0, 75, 0
2, 48787, Note_on_c, 0, 68, 0
2, 48880, Note_on_c, 0, 44, 0
2, 48935, Note_on_c, 0, 44, 46
2, 48977, Note_on_c, 0, 60, 0
2, 49030, Note_on_c, 0, 60, 50
2, 49095, Note_on_c, 0, 63, 0
2, 49122, Control_c, 0, 67, 0
2, 49146, Note_on_c, 0, 63, 52
2, 49237, Note_on_c, 0, 65, 0
2, 49237, Note_on_c, 0, 53, 0
2, 49290, Note_on_c, 0, 53, 52
2, 49290, Note_on_c, 0, 65, 64
2, 49410, Note_on_c, 0, 77, 47
2, 49473, Note_on_c, 0, 34, 48
2, 49475, Control_c, 0, 64, 0
2, 49528, Note_on_c, 0, 77, 0
2, 49528, Note_on_c, 0, 63, 0
2, 49530, Note_on_c, 0, 53, 0
2, 49530, Note_on_c, 0, 44, 0
2, 49530, Note_on_c, 0, 60, 0
2, 49530, Note_on_c, 0, 65, 0
2, 49534, Note_on_c, 0, 32, 0
2, 49537, Note_on_c, 0, 58, 65
2, 49537, Note_on_c, 0, 70, 65
2, 49649, Note_on_c, 0, 46, 50
2, 49669, Control_c, 0, 64, 127
2, 49746, Note_on_c, 0, 65, 50
2, 49760, Note_on_c, 0, 53, 52
2, 49760, Note_on_c, 0, 62, 46
2, 49840, Note_on_c, 0, 68, 47
2, 49905, Note_on_c, 0, 70, 0
2, 49956, Note_on_c, 0, 67, 73
2, 49965, Note_on_c, 0, 55, 66
2, 49977, Note_on_c, 0, 70, 52
2, 49993, Note_on_c, 0, 68, 0
2, 50073, Note_on_c, 0, 82, 53
2, 50124, Control_c, 0, 64, 0
2, 50153, Note_on_c, 0, 34, 0
2, 50171, Note_on_c, 0, 68, 76
2, 50175, Note_on_c, 0, 56, 52
2, 50189, Note_on_c, 0, 34, 50
2, 50218, Note_on_c, 0, 55, 0
2, 50218, Note_on_c, 0, 82, 0
2, 50218, Note_on_c, 0, 67, 0
2, 50218, Note_on_c, 0, 65, 0
2, 50218, Note_on_c, 0, 70, 0
2, 50218, Note_on_c, 0, 58, 0
2, 50218, Note_on_c, 0, 62, 0
2, 50218, Note_on_c, 0, 53, 0
2, 50220, Note_on_c, 0, 46, 0
2, 50304, Note_on_c, 0, 46, 49
2, 50314, Control_c, 0, 64, 127
2, 50462, Note_on_c, 0, 62, 49
2, 50471, Note_on_c, 0, 53, 52
2, 50471, Note_on_c, 0, 58, 46
2, 50631, Note_on_c, 0, 65, 53
2, 50764, Note_on_c, 0, 68, 0
2, 50766, Note_on_c, 0, 56, 0
2, 50815, Note_on_c, 0, 68, 64
2, 50817, Note_on_c, 0, 56, 58
2, 50830, Note_on_c, 0, 58, 0
2, 50830, Note_on_c, 0, 70, 51
2, 51024, Note_on_c, 0, 67, 60
2, 51026, Note_on_c, 0, 55, 64
2, 51039, Note_on_c, 0, 68, 0
2, 51039, Note_on_c, 0, 82, 47
2, 51055, Note_on_c, 0, 56, 0
2, 51114, Note_on_c, 0, 67, 0
2, 51116, Note_on_c, 0, 55, 0
2, 51167, Control_c, 0, 64, 0
2, 51174, Note_on_c, 0, 67, 64
2, 51176, Note_on_c, 0, 55, 65
2, 51184, Note_on_c, 0, 70, 0
2, 51184, Note_on_c, 0, 82, 0
2, 51186, Note_on_c, 0, 62, 0
2, 51186, Note_on_c, 0, 53, 0
2, 51186, Note_on_c, 0, 46, 0
2, 51186, Note_on_c, 0, 65, 0
2, 51188, Note_on_c, 0, 34, 0
2, 51195, Note_on_c, 0, 39, 48
2, 51323, Note_on_c, 0, 46, 50
2, 51339, Control_c, 0, 64, 127
2, 51370, Control_c, 0, 67, 127
2, 51381, Note_on_c, 0, 55, 0
2, 51433, Note_on_c, 0, 51, 52
2, 51433, Note_on_c, 0, 55, 49
2, 51528, Note_on_c, 0, 58, 50
2, 51528, Note_on_c, 0, 63, 49
2, 51638, Note_on_c, 0, 70, 47
2, 51742, Note_on_c, 0, 82, 51
2, 51804, Note_on_c, 0, 39, 0
2, 51846, Note_on_c, 0, 39, 47
2, 51926, Note_on_c, 0, 46, 0
2, 51970, Note_on_c, 0, 46, 49
2, 52043, Note_on_c, 0, 51, 0
2, 52043, Note_on_c, 0, 55, 0
2, 52081, Note_on_c, 0, 51, 49
2, 52081, Note_on_c, 0, 55, 52
2, 52163, Note_on_c, 0, 70, 0
2, 52163, Note_on_c, 0, 58, 0
2, 52190, Control_c, 0, 67, 0
2, 52216, Note_on_c, 0, 58, 48
2, 52216, Note_on_c, 0, 70, 46
2, 52382, Note_on_c, 0, 63, 0
2, 52435, Note_on_c, 0, 63, 74
2, 52514, Note_on_c, 0, 75, 51
2, 52520, Note_on_c, 0, 87, 48
2, 52579, Note_on_c, 0, 39, 0
2, 52630, Note_on_c, 0, 39, 47
2, 52632, Control_c, 0, 64, 0
2, 52642, Note_on_c, 0, 75, 0
2, 52650, Note_on_c, 0, 63, 0
2, 52688, Note_on_c, 0, 58, 0
2, 52688, Note_on_c, 0, 55, 0
2, 52688, Note_on_c, 0, 70, 0
2, 52688, Note_on_c, 0, 82, 0
2, 52688, Note_on_c, 0, 87, 0
2, 52688, Note_on_c, 0, 67, 0
2, 52690, Note_on_c, 0, 46, 0
2, 52690, Note_on_c, 0, 51, 0
2, 52694, Note_on_c, 0, 75, 74
2, 52696, Note_on_c, 0, 63, 70
2, 52781, Note_on_c, 0, 46, 51
2, 52834, Control_c, 0, 64, 127
2, 52905, Note_on_c, 0, 58, 71
2, 52905, Note_on_c, 0, 70, 70
2, 52921, Note_on_c, 0, 51, 52
2, 52921, Note_on_c, 0, 54, 46
2, 52966, Note_on_c, 0, 63, 0
2, 53016, Note_on_c, 0, 63, 53
2, 53016, Note_on_c, 0, 66, 51
2, 53055, Note_on_c, 0, 63, 0
2, 53055, Note_on_c, 0, 58, 0
2, 53055, Note_on_c, 0, 70, 0
2, 53106, Note_on_c, 0, 70, 77
2, 53108, Note_on_c, 0, 58, 51
2, 53113, Note_on_c, 0, 63, 53
2, 53211, Note_on_c, 0, 82, 47
2, 53237, Note_on_c, 0, 39, 0
2, 53281, Note_on_c, 0, 73, 54
2, 53283, Note_on_c, 0, 61, 46
2, 53291, Note_on_c, 0, 39, 48
2, 53302, Control_c, 0, 64, 0
2, 53318, Note_on_c, 0, 72, 77
2, 53320, Note_on_c, 0, 60, 65
2, 53349, Note_on_c, 0, 61, 0
2, 53349, Note_on_c, 0, 73, 0
2, 53365, Note_on_c, 0, 54, 0
2, 53365, Note_on_c, 0, 46, 0
2, 53365, Note_on_c, 0, 51, 0
2, 53418, Note_on_c, 0, 46, 47
2, 53418, Note_on_c, 0, 51, 46
2, 53418, Note_on_c, 0, 54, 50
2, 53432, Control_c, 0, 64, 127
2, 53445, Note_on_c, 0, 58, 0
2, 53445, Note_on_c, 0, 70, 0
2, 53497, Note_on_c, 0, 58, 67
2, 53497, Note_on_c, 0, 70, 77
2, 53528, Note_on_c, 0, 66, 0
2, 53528, Note_on_c, 0, 63, 0
2, 53581, Note_on_c, 0, 63, 50
2, 53581, Note_on_c, 0, 66, 47
2, 53617, Note_on_c, 0, 60, 0
2, 53617, Note_on_c, 0, 72, 0
2, 53668, Note_on_c, 0, 60, 64
2, 53668, Note_on_c, 0, 72, 77
2, 53737, Control_c, 0, 64, 0
2, 53763, Note_on_c, 0, 84, 51
2, 53789, Note_on_c, 0, 46, 0
2, 53840, Note_on_c, 0, 46, 49
2, 53853, Note_on_c, 0, 66, 0
2, 53853, Note_on_c, 0, 82, 0
2, 53853, Note_on_c, 0, 63, 0
2, 53853, Note_on_c, 0, 84, 0
2, 53853, Note_on_c, 0, 70, 0
2, 53853, Note_on_c, 0, 75, 0
2, 53855, Note_on_c, 0, 58, 0
2, 53855, Note_on_c, 0, 39, 0
2, 53855, Note_on_c, 0, 54, 0
2, 53855, Note_on_c, 0, 51, 0
2, 53860, Note_on_c, 0, 61, 70
2, 53860, Note_on_c, 0, 73, 72
2, 53877, Note_on_c, 0, 72, 0
2, 53877, Note_on_c, 0, 60, 0
2, 53926, Control_c, 0, 67, 127
2, 53942, Control_c, 0, 64, 127
2, 53962, Note_on_c, 0, 53, 57
2, 53991, Note_on_c, 0, 61, 0
2, 54044, Note_on_c, 0, 58, 58
2, 54044, Note_on_c, 0, 61, 54
2, 54139, Note_on_c, 0, 65, 53
2, 54139, Note_on_c, 0, 70, 59
2, 54177, Note_on_c, 0, 73, 0
2, 54230, Note_on_c, 0, 73, 52
2, 54341, Note_on_c, 0, 85, 50
2, 54367, Note_on_c, 0, 46, 0
2, 54418, Note_on_c, 0, 46, 53
2, 54432, Note_on_c, 0, 65, 0
2, 54483, Note_on_c, 0, 65, 66
2, 54483, Note_on_c, 0, 77, 65
2, 54556, Note_on_c, 0, 53, 0
2, 54609, Note_on_c, 0, 53, 53
2, 54653, Note_on_c, 0, 61, 0
2, 54655, Note_on_c, 0, 58, 0
2, 54708, Note_on_c, 0, 58, 50
2, 54708, Note_on_c, 0, 61, 53
2, 54773, Note_on_c, 0, 70, 0
2, 54773, Note_on_c, 0, 73, 0
2, 54786, Control_c, 0, 67, 0
2, 54822, Note_on_c, 0, 70, 50
2, 54822, Note_on_c, 0, 73, 52
2, 54863, Note_on_c, 0, 70, 0
2, 54875, Note_on_c, 0, 58, 0
2, 54883, Note_on_c, 0, 77, 0
2, 54934, Note_on_c, 0, 58, 68
2, 54934, Note_on_c, 0, 70, 64
2, 54939, Control_c, 0, 64, 0
2, 54950, Note_on_c, 0, 77, 46
2, 55068, Note_on_c, 0, 89, 52
2, 55139, Note_on_c, 0, 39, 53
2, 55165, Note_on_c, 0, 75, 64
2, 55173, Note_on_c, 0, 63, 69
2, 55191, Note_on_c, 0, 58, 0
2, 55191, Note_on_c, 0, 53, 0
2, 55191, Note_on_c, 0, 73, 0
2, 55191, Note_on_c, 0, 46, 0
2, 55191, Note_on_c, 0, 65, 0
2, 55191, Note_on_c, 0, 61, 0
2, 55199, Note_on_c, 0, 89, 0
2, 55199, Note_on_c, 0, 85, 0
2, 55206, Note_on_c, 0, 70, 0
2, 55206, Note_on_c, 0, 77, 0
2, 55232, Control_c, 0, 64, 127
2, 55311, Note_on_c, 0, 46, 53
2, 55418, Note_on_c, 0, 51, 49
2, 55418, Note_on_c, 0, 54, 51
2, 55510, Note_on_c, 0, 66, 46
2, 55510, Note_on_c, 0, 70, 46
2, 55555, Note_on_c, 0, 70, 0
2, 55599, Note_on_c, 0, 58, 65
2, 55599, Note_on_c, 0, 70, 71
2, 55650, Note_on_c, 0, 78, 49
2, 55747, Note_on_c, 0, 90, 47
2, 55800, Note_on_c, 0, 39, 0
2, 55825, Note_on_c, 0, 73, 58
2, 55827, Note_on_c, 0, 61, 52
2, 55836, Note_on_c, 0, 39, 48
2, 55863, Note_on_c, 0, 60, 66
2, 55863, Note_on_c, 0, 72, 76
2, 55899, Note_on_c, 0, 90, 0
2, 55899, Note_on_c, 0, 78, 0
2, 55899, Note_on_c, 0, 75, 0
2, 55923, Note_on_c, 0, 46, 0
2, 55929, Note_on_c, 0, 73, 0
2, 55929, Note_on_c, 0, 61, 0
2, 55971, Note_on_c, 0, 46, 46
2, 55986, Note_on_c, 0, 70, 0
2, 55986, Note_on_c, 0, 58, 0
2, 55992, Note_on_c, 0, 51, 0
2, 55992, Note_on_c, 0, 54, 0
2, 56044, Note_on_c, 0, 58, 69
2, 56044, Note_on_c, 0, 70, 69
2, 56052, Note_on_c, 0, 54, 47
2, 56061, Note_on_c, 0, 51, 46
2, 56075, Note_on_c, 0, 60, 0
2, 56081, Note_on_c, 0, 66, 0
2, 56081, Note_on_c, 0, 63, 0
2, 56134, Note_on_c, 0, 63, 47
2, 56134, Note_on_c, 0, 66, 51
2, 56172, Note_on_c, 0, 72, 0
2, 56223, Note_on_c, 0, 72, 66
2, 56232, Note_on_c, 0, 60, 66
2, 56264, Control_c, 0, 64, 0
2, 56329, Note_on_c, 0, 84, 52
2, 56368, Note_on_c, 0, 46, 0
2, 56421, Note_on_c, 0, 46, 49
2, 56449, Note_on_c, 0, 84, 0
2, 56449, Note_on_c, 0, 66, 0
2, 56449, Note_on_c, 0, 73, 68
2, 56451, Note_on_c, 0, 63, 0
2, 56451, Note_on_c, 0, 51, 0
2, 56451, Note_on_c, 0, 54, 0
2, 56451, Note_on_c, 0, 70, 0
2, 56451, Note_on_c, 0, 58, 0
2, 56451, Note_on_c, 0, 39, 0
2, 56457, Note_on_c, 0, 61, 64
2, 56459, Note_on_c, 0, 72, 0
2, 56459, Note_on_c, 0, 60, 0
2, 56538, Control_c, 0, 64, 127
2, 56580, Note_on_c, 0, 53, 46
2, 56616, Note_on_c, 0, 61, 0
2, 56662, Note_on_c, 0, 58, 46
2, 56662, Note_on_c, 0, 61, 51
2, 56740, Note_on_c, 0, 70, 48
2, 56742, Note_on_c, 0, 65, 53
2, 56771, Note_on_c, 0, 73, 0
2, 56833, Note_on_c, 0, 73, 50
2, 56923, Note_on_c, 0, 85, 49
2, 57020, Note_on_c, 0, 44, 65
2, 57030, Control_c, 0, 64, 0
2, 57063, Note_on_c, 0, 53, 0
2, 57079, Note_on_c, 0, 46, 0
2, 57114, Note_on_c, 0, 53, 52
2, 57143, Note_on_c, 0, 58, 0
2, 57143, Note_on_c, 0, 61, 0
2, 57193, Note_on_c, 0, 58, 50
2, 57193, Note_on_c, 0, 61, 52
2, 57242, Note_on_c, 0, 65, 0
2, 57242, Note_on_c, 0, 70, 0
2, 57281, Note_on_c, 0, 65, 54
2, 57281, Note_on_c, 0, 70, 58
2, 57330, Control_c, 0, 64, 127
2, 57334, Note_on_c, 0, 73, 0
2, 57342, Note_on_c, 0, 61, 0
2, 57393, Note_on_c, 0, 73, 74
2, 57395, Note_on_c, 0, 61, 54
2, 57433, Note_on_c, 0, 85, 0
2, 57492, Note_on_c, 0, 85, 48
2, 57563, Note_on_c, 0, 61, 0
2, 57563, Note_on_c, 0, 73, 0
2, 57574, Control_c, 0, 64, 0
2, 57579, Note_on_c, 0, 43, 66
2, 57603, Note_on_c, 0, 44, 0
2, 57607, Note_on_c, 0, 85, 0
2, 57609, Note_on_c, 0, 53, 0
2, 57609, Note_on_c, 0, 58, 0
2, 57609, Note_on_c, 0, 70, 0
2, 57609, Note_on_c, 0, 65, 0
2, 57617, Note_on_c, 0, 61, 80
2, 57617, Note_on_c, 0, 73, 66
2, 57704, Note_on_c, 0, 49, 57
2, 57713, Control_c, 0, 64, 127
2, 57804, Note_on_c, 0, 58, 56
2, 57806, Note_on_c, 0, 55, 56
2, 57908, Note_on_c, 0, 67, 52
2, 57908, Note_on_c, 0, 70, 53
2, 57964, Note_on_c, 0, 73, 0
2, 57964, Note_on_c, 0, 61, 0
2, 58015, Note_on_c, 0, 61, 69
2, 58015, Note_on_c, 0, 73, 76
2, 58123, Note_on_c, 0, 85, 48
2, 58190, Control_c, 0, 64, 0
2, 58232, Note_on_c, 0, 41, 52
2, 58259, Note_on_c, 0, 65, 76
2, 58259, Note_on_c, 0, 77, 73
2, 58303, Note_on_c, 0, 85, 0
2, 58303, Note_on_c, 0, 73, 0
2, 58303, Note_on_c, 0, 61, 0
2, 58303, Note_on_c, 0, 58, 0
2, 58303, Note_on_c, 0, 70, 0
2, 58303, Note_on_c, 0, 67, 0
2, 58305, Note_on_c, 0, 43, 0
2, 58305, Note_on_c, 0, 49, 0
2, 58305, Note_on_c, 0, 55, 0
2, 58354, Control_c, 0, 64, 127
2, 58396, Note_on_c, 0, 49, 48
2, 58488, Note_on_c, 0, 63, 47
2, 58488, Note_on_c, 0, 75, 65
2, 58502, Note_on_c, 0, 58, 47
2, 58504, Note_on_c, 0, 55, 47
2, 58516, Note_on_c, 0, 65, 0
2, 58516, Note_on_c, 0, 77, 0
2, 58582, Note_on_c, 0, 67, 49
2, 58582, Note_on_c, 0, 70, 48
2, 58680, Note_on_c, 0, 73, 69
2, 58681, Note_on_c, 0, 61, 65
2, 58710, Note_on_c, 0, 63, 0
2, 58710, Note_on_c, 0, 75, 0
2, 58769, Note_on_c, 0, 85, 46
2, 58862, Note_on_c, 0, 40, 53
2, 58872, Note_on_c, 0, 85, 0
2, 58895, Note_on_c, 0, 70, 0
2, 58895, Note_on_c, 0, 67, 0
2, 58896, Note_on_c, 0, 58, 0
2, 58896, Note_on_c, 0, 55, 0
2, 58896, Note_on_c, 0, 49, 0
2, 58898, Note_on_c, 0, 41, 0
2, 58902, Note_on_c, 0, 60, 60
2, 58902, Note_on_c, 0, 72, 70
2, 58919, Note_on_c, 0, 73, 0
2, 58919, Note_on_c, 0, 61, 0
2, 58924, Control_c, 0, 64, 0
2, 58975, Control_c, 0, 67, 127
2, 59016, Note_on_c, 0, 48, 47
2, 59070, Control_c, 0, 64, 127
2, 59147, Note_on_c, 0, 55, 47
2, 59147, Note_on_c, 0, 58, 47
2, 59324, Note_on_c, 0, 67, 53
2, 59324, Note_on_c, 0, 70, 46
2, 59480, Note_on_c, 0, 72, 0
2, 59486, Note_on_c, 0, 71, 63
2, 59495, Note_on_c, 0, 59, 54
2, 59502, Note_on_c, 0, 58, 0
2, 59502, Note_on_c, 0, 60, 0
2, 59517, Note_on_c, 0, 70, 0
2, 59545, Note_on_c, 0, 72, 62
2, 59549, Note_on_c, 0, 60, 60
2, 59569, Note_on_c, 0, 71, 0
2, 59580, Note_on_c, 0, 59, 0
2, 59600, Note_on_c, 0, 75, 59
2, 59602, Note_on_c, 0, 63, 58
2, 59649, Note_on_c, 0, 61, 57
2, 59653, Note_on_c, 0, 73, 58
2, 59662, Note_on_c, 0, 63, 0
2, 59664, Note_on_c, 0, 60, 0
2, 59671, Note_on_c, 0, 72, 0
2, 59686, Note_on_c, 0, 75, 0
2, 59712, Control_c, 0, 64, 0
2, 59714, Note_on_c, 0, 61, 0
2, 59722, Note_on_c, 0, 72, 64
2, 59724, Note_on_c, 0, 60, 54
2, 59726, Note_on_c, 0, 43, 57
2, 59740, Note_on_c, 0, 73, 0
2, 59815, Note_on_c, 0, 67, 0
2, 59817, Note_on_c, 0, 55, 0
2, 59819, Note_on_c, 0, 40, 0
2, 59819, Note_on_c, 0, 48, 0
2, 59880, Note_on_c, 0, 48, 55
2, 59936, Control_c, 0, 64, 127
2, 59991, Note_on_c, 0, 58, 53
2, 59993, Note_on_c, 0, 52, 49
2, 60100, Note_on_c, 0, 64, 52
2, 60100, Note_on_c, 0, 67, 51
2, 60135, Control_c, 0, 67, 0
2, 60190, Note_on_c, 0, 60, 0
2, 60197, Note_on_c, 0, 72, 0
2, 60246, Note_on_c, 0, 72, 69
2, 60248, Note_on_c, 0, 60, 53
2, 60350, Note_on_c, 0, 84, 52
2, 60417, Note_on_c, 0, 60, 0
2, 60417, Note_on_c, 0, 72, 0
2, 60430, Control_c, 0, 64, 0
2, 60433, Note_on_c, 0, 41, 48
2, 60452, Note_on_c, 0, 84, 0
2, 60452, Note_on_c, 0, 67, 0
2, 60452, Note_on_c, 0, 64, 0
2, 60454, Note_on_c, 0, 58, 0
2, 60456, Note_on_c, 0, 43, 0
2, 60456, Note_on_c, 0, 48, 0
2, 60457, Note_on_c, 0, 72, 70
2, 60461, Note_on_c, 0, 60, 63
2, 60463, Note_on_c, 0, 52, 0
2, 60551, Note_on_c, 0, 48, 49
2, 60644, Control_c, 0, 64, 127
2, 60654, Note_on_c, 0, 53, 46
2, 60654, Note_on_c, 0, 56, 51
2, 60744, Note_on_c, 0, 65, 52
2, 60744, Note_on_c, 0, 68, 49
2, 60818, Note_on_c, 0, 60, 0
2, 60818, Note_on_c, 0, 72, 0
2, 60867, Note_on_c, 0, 72, 68
2, 60871, Note_on_c, 0, 60, 64
2, 60987, Note_on_c, 0, 84, 48
2, 61091, Note_on_c, 0, 39, 48
2, 61109, Control_c, 0, 64, 0
2, 61138, Note_on_c, 0, 63, 62
2, 61138, Note_on_c, 0, 75, 66
2, 61183, Note_on_c, 0, 84, 0
2, 61183, Note_on_c, 0, 60, 0
2, 61183, Note_on_c, 0, 72, 0
2, 61183, Note_on_c, 0, 68, 0
2, 61183, Note_on_c, 0, 65, 0
2, 61185, Note_on_c, 0, 53, 0
2, 61185, Note_on_c, 0, 41, 0
2, 61185, Note_on_c, 0, 48, 0
2, 61185, Note_on_c, 0, 56, 0
2, 61287, Note_on_c, 0, 48, 48
2, 61291, Control_c, 0, 64, 127
2, 61400, Note_on_c, 0, 73, 69
2, 61404, Note_on_c, 0, 61, 60
2, 61418, Note_on_c, 0, 53, 53
2, 61418, Note_on_c, 0, 56, 53
2, 61439, Note_on_c, 0, 75, 0
2, 61439, Note_on_c, 0, 63, 0
2, 61518, Note_on_c, 0, 65, 47
2, 61518, Note_on_c, 0, 68, 53
2, 61634, Note_on_c, 0, 60, 64
2, 61634, Note_on_c, 0, 72, 70
2, 61656, Note_on_c, 0, 73, 0
2, 61656, Note_on_c, 0, 61, 0
2, 61758, Note_on_c, 0, 84, 49
2, 61919, Note_on_c, 0, 70, 71
2, 61920, Note_on_c, 0, 58, 47
2, 61928, Control_c, 0, 64, 0
2, 61941, Note_on_c, 0, 37, 49
2, 61944, Note_on_c, 0, 84, 0
2, 61944, Note_on_c, 0, 68, 0
2, 61944, Note_on_c, 0, 53, 0
2, 61944, Note_on_c, 0, 56, 0
2, 61944, Note_on_c, 0, 65, 0
2, 61946, Note_on_c, 0, 48, 0
2, 61968, Note_on_c, 0, 60, 0
2, 61968, Note_on_c, 0, 72, 0
2, 61985, Control_c, 0, 67, 127
2, 61995, Note_on_c, 0, 39, 0
2, 62036, Control_c, 0, 64, 127
2, 62085, Note_on_c, 0, 46, 47
2, 62192, Note_on_c, 0, 53, 52
2, 62192, Note_on_c, 0, 56, 53
2, 62290, Note_on_c, 0, 65, 52
2, 62290, Note_on_c, 0, 68, 49
2, 62339, Note_on_c, 0, 70, 0
2, 62392, Note_on_c, 0, 70, 48
2, 62479, Note_on_c, 0, 82, 46
2, 62599, Note_on_c, 0, 39, 48
2, 62608, Control_c, 0, 64, 0
2, 62610, Note_on_c, 0, 82, 0
2, 62612, Note_on_c, 0, 68, 0
2, 62612, Note_on_c, 0, 53, 0
2, 62612, Note_on_c, 0, 65, 0
2, 62612, Note_on_c, 0, 56, 0
2, 62614, Note_on_c, 0, 46, 0
2, 62614, Note_on_c, 0, 37, 0
2, 62707, Note_on_c, 0, 46, 49
2, 62754, Control_c, 0, 64, 127
2, 62810, Note_on_c, 0, 51, 50
2, 62810, Note_on_c, 0, 55, 51
2, 62944, Note_on_c, 0, 61, 53
2, 62944, Note_on_c, 0, 67, 46
2, 63151, Note_on_c, 0, 63, 68
2, 63157, Note_on_c, 0, 75, 46
2, 63261, Note_on_c, 0, 87, 50
2, 63362, Note_on_c, 0, 60, 53
2, 63373, Note_on_c, 0, 44, 49
2, 63387, Note_on_c, 0, 61, 0
2, 63398, Control_c, 0, 64, 0
2, 63434, Note_on_c, 0, 87, 0
2, 63436, Note_on_c, 0, 67, 0
2, 63436, Note_on_c, 0, 75, 0
2, 63436, Note_on_c, 0, 63, 0
2, 63436, Note_on_c, 0, 58, 0
2, 63436, Note_on_c, 0, 70, 0
2, 63438, Note_on_c, 0, 39, 0
2, 63438, Note_on_c, 0, 51, 0
2, 63438, Note_on_c, 0, 46, 0
2, 63438, Note_on_c, 0, 55, 0
2, 63442, Note_on_c, 0, 72, 71
2, 63582, Note_on_c, 0, 51, 49
2, 63629, Control_c, 0, 64, 127
2, 63690, Note_on_c, 0, 56, 53
2, 63769, Note_on_c, 0, 63, 46
2, 63773, Note_on_c, 0, 68, 53
2, 63832, Note_on_c, 0, 72, 0
2, 63840, Note_on_c, 0, 60, 0
2, 63885, Note_on_c, 0, 72, 65
2, 63890, Note_on_c, 0, 60, 67
2, 63998, Note_on_c, 0, 87, 51
2, 64053, Note_on_c, 0, 72, 0
2, 64069, Note_on_c, 0, 60, 0
2, 64077, Note_on_c, 0, 39, 47
2, 64089, Control_c, 0, 64, 0
2, 64105, Note_on_c, 0, 72, 69
2, 64114, Note_on_c, 0, 60, 58
2, 64122, Note_on_c, 0, 44, 0
2, 64176, Note_on_c, 0, 51, 0
2, 64229, Note_on_c, 0, 51, 61
2, 64256, Control_c, 0, 64, 127
2, 64278, Note_on_c, 0, 56, 0
2, 64307, Note_on_c, 0, 63, 0
2, 64316, Note_on_c, 0, 68, 0
2, 64323, Note_on_c, 0, 73, 66
2, 64331, Note_on_c, 0, 61, 46
2, 64347, Note_on_c, 0, 56, 53
2, 64355, Note_on_c, 0, 72, 0
2, 64363, Note_on_c, 0, 60, 0
2, 64430, Note_on_c, 0, 68, 46
2, 64432, Note_on_c, 0, 63, 50
2, 64470, Note_on_c, 0, 63, 0
2, 64529, Note_on_c, 0, 63, 49
2, 64529, Note_on_c, 0, 75, 68
2, 64582, Note_on_c, 0, 87, 0
2, 64629, Note_on_c, 0, 87, 51
2, 64681, Note_on_c, 0, 75, 0
2, 64681, Note_on_c, 0, 63, 0
2, 64692, Control_c, 0, 64, 0
2, 64704, Note_on_c, 0, 46, 52
2, 64715, Note_on_c, 0, 87, 0
2, 64715, Note_on_c, 0, 68, 0
2, 64717, Note_on_c, 0, 73, 0
2, 64726, Note_on_c, 0, 56, 0
2, 64726, Note_on_c, 0, 51, 0
2, 64726, Note_on_c, 0, 61, 0
2, 64728, Note_on_c, 0, 39, 0
2, 64731, Note_on_c, 0, 63, 70
2, 64731, Note_on_c, 0, 75, 76
2, 64806, Note_on_c, 0, 51, 51
2, 64861, Control_c, 0, 64, 127
2, 64896, Note_on_c, 0, 55, 48
2, 64896, Note_on_c, 0, 61, 49
2, 64983, Note_on_c, 0, 73, 50
2, 64985, Note_on_c, 0, 67, 46
2, 65030, Note_on_c, 0, 75, 0
2, 65083, Note_on_c, 0, 75, 53
2, 65166, Note_on_c, 0, 87, 54
2, 65245, Note_on_c, 0, 39, 53
2, 65274, Note_on_c, 0, 51, 0
2, 65336, Note_on_c, 0, 51, 47
2, 65360, Note_on_c, 0, 55, 0
2, 65360, Note_on_c, 0, 61, 0
2, 65405, Note_on_c, 0, 63, 0
2, 65420, Note_on_c, 0, 55, 46
2, 65420, Note_on_c, 0, 61, 49
2, 65499, Note_on_c, 0, 75, 0
2, 65499, Note_on_c, 0, 63, 48
2, 65572, Note_on_c, 0, 75, 54
2, 65601, Note_on_c, 0, 75, 0
2, 65652, Note_on_c, 0, 75, 57
2, 65676, Note_on_c, 0, 87, 0
2, 65733, Note_on_c, 0, 87, 54
2, 65761, Note_on_c, 0, 87, 0
2, 65824, Note_on_c, 0, 87, 56
2, 65919, Note_on_c, 0, 99, 47
2, 65963, Note_on_c, 0, 87, 0
2, 66022, Note_on_c, 0, 87, 49
2, 66087, Note_on_c, 0, 87, 0
2, 66138, Note_on_c, 0, 87, 53
2, 66168, Note_on_c, 0, 99, 0
2, 66205, Control_c, 0, 67, 0
2, 66221, Note_on_c, 0, 75, 0
2, 66268, Note_on_c, 0, 87, 0
2, 66274, Note_on_c, 0, 75, 48
2, 66285, Note_on_c, 0, 46, 0
2, 66330, Note_on_c, 0, 55, 0
2, 66337, Note_on_c, 0, 46, 52
2, 66383, Note_on_c, 0, 61, 0
2, 66383, Note_on_c, 0, 55, 51
2, 66425, Control_c, 0, 64, 0
2, 66427, Note_on_c, 0, 67, 0
2, 66429, Note_on_c, 0, 63, 0
2, 66434, Note_on_c, 0, 61, 47
2, 66481, Note_on_c, 0, 63, 48
2, 66528, Note_on_c, 0, 75, 0
2, 66528, Note_on_c, 0, 73, 0
2, 66534, Note_on_c, 0, 67, 77
2, 66629, Control_c, 0, 64, 127
2, 67514, Control_c, 0, 64, 0
2, 67541, Note_on_c, 0, 39, 0
2, 67541, Note_on_c, 0, 51, 0
2, 67549, Note_on_c, 0, 55, 0
2, 67551, Note_on_c, 0, 46, 0
2, 67557, Note_on_c, 0, 61, 0
2, 67571, Note_on_c, 0, 63, 0
2, 67609, Note_on_c, 0, 48, 48
2, 67609, Note_on_c, 0, 57, 50
2, 67609, Note_on_c, 0, 69, 46
2, 67617, Note_on_c, 0, 67, 0
2, 67623, Note_on_c, 0, 63, 49
2, 67623, Note_on_c, 0, 66, 50
2, 67672, Control_c, 0, 64, 127
2, 67805, Control_c, 0, 64, 0
2, 67824, Note_on_c, 0, 70, 59
2, 67829, Note_on_c, 0, 58, 47
2, 67831, Note_on_c, 0, 49, 50
2, 67839, Note_on_c, 0, 48, 0
2, 67839, Note_on_c, 0, 57, 0
2, 67839, Note_on_c, 0, 65, 53
2, 67855, Note_on_c, 0, 66, 0
2, 67855, Note_on_c, 0, 69, 0
2, 67855, Note_on_c, 0, 63, 0
2, 67952, Control_c, 0, 64, 127
2, 68281, Note_on_c, 0, 69, 61
2, 68305, Note_on_c, 0, 70, 0
2, 68400, Note_on_c, 0, 70, 61
2, 68427, Note_on_c, 0, 69, 0
2, 68470, Note_on_c, 0, 72, 64
2, 68486, Note_on_c, 0, 70, 0
2, 68537, Note_on_c, 0, 70, 57
2, 68573, Note_on_c, 0, 72, 0
2, 68599, Note_on_c, 0, 69, 53
2, 68623, Note_on_c, 0, 70, 0
2, 68638, Note_on_c, 0, 58, 0
2, 68662, Note_on_c, 0, 51, 46
2, 68676, Note_on_c, 0, 70, 54
2, 68700, Note_on_c, 0, 58, 50
2, 68708, Note_on_c, 0, 69, 0
2, 68734, Note_on_c, 0, 49, 0
2, 68741, Note_on_c, 0, 61, 50
2, 68743, Control_c, 0, 64, 0
2, 68745, Note_on_c, 0, 67, 48
2, 68756, Note_on_c, 0, 65, 0
2, 68792, Note_on_c, 0, 73, 55
2, 68832, Note_on_c, 0, 70, 0
2, 68954, Control_c, 0, 64, 127
2, 69169, Control_c, 0, 67, 127
2, 69819, Note_on_c, 0, 72, 60
2, 69866, Note_on_c, 0, 73, 0
2, 70128, Note_on_c, 0, 44, 48
2, 70134, Note_on_c, 0, 61, 0
2, 70136, Control_c, 0, 64, 0
2, 70142, Note_on_c, 0, 51, 0
2, 70144, Note_on_c, 0, 60, 48
2, 70152, Note_on_c, 0, 58, 0
2, 70199, Note_on_c, 0, 68, 59
2, 70259, Note_on_c, 0, 72, 0
2, 70259, Note_on_c, 0, 67, 0
2, 70332, Control_c, 0, 64, 127
2, 70419, Note_on_c, 0, 51, 53
2, 70492, Note_on_c, 0, 60, 0
2, 70543, Note_on_c, 0, 56, 50
2, 70543, Note_on_c, 0, 60, 48
2, 70596, Note_on_c, 0, 68, 0
2, 70665, Note_on_c, 0, 68, 46
2, 70665, Note_on_c, 0, 72, 52
2, 70722, Note_on_c, 0, 72, 0
2, 70722, Note_on_c, 0, 68, 0
2, 70780, Note_on_c, 0, 63, 48
2, 70780, Note_on_c, 0, 68, 46
2, 70780, Note_on_c, 0, 72, 53
2, 70848, Control_c, 0, 67, 0
2, 70908, Note_on_c, 0, 75, 50
2, 70908, Note_on_c, 0, 80, 48
2, 70908, Note_on_c, 0, 84, 49
2, 71074, Note_on_c, 0, 54, 60
2, 71137, Control_c, 0, 67, 127
2, 71161, Note_on_c, 0, 56, 0
2, 71220, Note_on_c, 0, 56, 51
2, 71265, Note_on_c, 0, 63, 0
2, 71267, Note_on_c, 0, 60, 0
2, 71311, Note_on_c, 0, 60, 46
2, 71311, Note_on_c, 0, 63, 49
2, 71348, Note_on_c, 0, 75, 0
2, 71348, Note_on_c, 0, 68, 0
2, 71399, Note_on_c, 0, 72, 0
2, 71406, Note_on_c, 0, 66, 52
2, 71406, Note_on_c, 0, 68, 51
2, 71406, Note_on_c, 0, 75, 52
2, 71445, Note_on_c, 0, 75, 0
2, 71445, Note_on_c, 0, 68, 0
2, 71445, Note_on_c, 0, 66, 0
2, 71505, Note_on_c, 0, 66, 53
2, 71505, Note_on_c, 0, 68, 52
2, 71505, Note_on_c, 0, 75, 47
2, 71574, Note_on_c, 0, 80, 0
2, 71580, Control_c, 0, 67, 0
2, 71618, Note_on_c, 0, 78, 51
2, 71618, Note_on_c, 0, 80, 53
2, 71618, Note_on_c, 0, 87, 50
2, 71624, Control_c, 0, 64, 0
2, 71756, Note_on_c, 0, 53, 68
2, 71792, Note_on_c, 0, 87, 0
2, 71792, Note_on_c, 0, 84, 0
2, 71792, Note_on_c, 0, 75, 0
2, 71792, Note_on_c, 0, 68, 0
2, 71792, Note_on_c, 0, 80, 0
2, 71792, Note_on_c, 0, 78, 0
2, 71794, Note_on_c, 0, 54, 0
2, 71794, Note_on_c, 0, 51, 0
2, 71794, Note_on_c, 0, 44, 0
2, 71794, Note_on_c, 0, 66, 0
2, 71794, Note_on_c, 0, 60, 0
2, 71794, Note_on_c, 0, 63, 0
2, 71841, Note_on_c, 0, 56, 0
2, 71868, Control_c, 0, 67, 127
2, 71877, Note_on_c, 0, 56, 50
2, 71891, Control_c, 0, 64, 127
2, 71970, Note_on_c, 0, 62, 49
2, 72073, Note_on_c, 0, 74, 49
2, 72075, Note_on_c, 0, 65, 51
2, 72075, Note_on_c, 0, 68, 51
2, 72112, Note_on_c, 0, 68, 0
2, 72112, Note_on_c, 0, 74, 0
2, 72114, Note_on_c, 0, 65, 0
2, 72170, Note_on_c, 0, 74, 53
2, 72172, Note_on_c, 0, 65, 48
2, 72172, Note_on_c, 0, 68, 49
2, 72236, Control_c, 0, 64, 0
2, 72258, Control_c, 0, 67, 0
2, 72282, Note_on_c, 0, 77, 53
2, 72282, Note_on_c, 0, 80, 50
2, 72282, Note_on_c, 0, 86, 49
2, 72369, Note_on_c, 0, 86, 0
2, 72369, Note_on_c, 0, 74, 0
2, 72369, Note_on_c, 0, 80, 0
2, 72369, Note_on_c, 0, 65, 0
2, 72369, Note_on_c, 0, 77, 0
2, 72369, Note_on_c, 0, 68, 0
2, 72371, Note_on_c, 0, 56, 0
2, 72371, Note_on_c, 0, 62, 0
2, 72379, Note_on_c, 0, 52, 74
2, 72441, Note_on_c, 0, 53, 0
2, 72476, Control_c, 0, 67, 127
2, 72496, Control_c, 0, 64, 127
2, 72506, Note_on_c, 0, 61, 51
2, 72594, Note_on_c, 0, 68, 48
2, 72673, Note_on_c, 0, 76, 51
2, 72679, Note_on_c, 0, 73, 52
2, 72679, Note_on_c, 0, 80, 48
2, 72712, Note_on_c, 0, 80, 0
2, 72712, Note_on_c, 0, 76, 0
2, 72712, Note_on_c, 0, 73, 0
2, 72768, Note_on_c, 0, 73, 48
2, 72768, Note_on_c, 0, 76, 50
2, 72768, Note_on_c, 0, 80, 48
2, 72841, Control_c, 0, 67, 0
2, 72878, Note_on_c, 0, 85, 49
2, 72878, Note_on_c, 0, 88, 53
2, 72878, Note_on_c, 0, 92, 48
2, 72980, Control_c, 0, 64, 0
2, 73000, Note_on_c, 0, 51, 65
2, 73032, Note_on_c, 0, 92, 0
2, 73032, Note_on_c, 0, 88, 0
2, 73032, Note_on_c, 0, 85, 0
2, 73032, Note_on_c, 0, 73, 0
2, 73032, Note_on_c, 0, 76, 0
2, 73032, Note_on_c, 0, 68, 0
2, 73032, Note_on_c, 0, 80, 0
2, 73034, Note_on_c, 0, 61, 0
2, 73045, Note_on_c, 0, 52, 0
2, 73090, Control_c, 0, 67, 127
2, 73117, Note_on_c, 0, 58, 51
2, 73143, Control_c, 0, 64, 127
2, 73223, Note_on_c, 0, 61, 50
2, 73223, Note_on_c, 0, 67, 47
2, 73334, Note_on_c, 0, 70, 46
2, 73334, Note_on_c, 0, 73, 51
2, 73334, Note_on_c, 0, 79, 47
2, 73379, Note_on_c, 0, 79, 0
2, 73379, Note_on_c, 0, 70, 0
2, 73379, Note_on_c, 0, 73, 0
2, 73436, Note_on_c, 0, 70, 47
2, 73436, Note_on_c, 0, 73, 49
2, 73436, Note_on_c, 0, 79, 51
2, 73525, Control_c, 0, 67, 0
2, 73569, Note_on_c, 0, 91, 51
2, 73571, Note_on_c, 0, 85, 49
2, 73573, Note_on_c, 0, 82, 48
2, 73581, Control_c, 0, 64, 0
2, 73696, Note_on_c, 0, 48, 69
2, 73706, Note_on_c, 0, 85, 0
2, 73706, Note_on_c, 0, 91, 0
2, 73708, Note_on_c, 0, 79, 0
2, 73708, Note_on_c, 0, 82, 0
2, 73708, Note_on_c, 0, 73, 0
2, 73708, Note_on_c, 0, 70, 0
2, 73710, Note_on_c, 0, 61, 0
2, 73710, Note_on_c, 0, 67, 0
2, 73710, Note_on_c, 0, 58, 0
2, 73759, Control_c, 0, 64, 127
2, 73763, Note_on_c, 0, 51, 0
2, 73787, Control_c, 0, 67, 127
2, 73822, Note_on_c, 0, 56, 46
2, 73925, Note_on_c, 0, 60, 51
2, 73925, Note_on_c, 0, 63, 52
2, 74013, Note_on_c, 0, 72, 48
2, 74015, Note_on_c, 0, 68, 47
2, 74015, Note_on_c, 0, 75, 51
2, 74059, Note_on_c, 0, 75, 0
2, 74059, Note_on_c, 0, 72, 0
2, 74061, Note_on_c, 0, 68, 0
2, 74128, Note_on_c, 0, 68, 47
2, 74128, Note_on_c, 0, 72, 53
2, 74128, Note_on_c, 0, 75, 52
2, 74203, Control_c, 0, 67, 0
2, 74248, Note_on_c, 0, 80, 47
2, 74248, Note_on_c, 0, 84, 46
2, 74248, Note_on_c, 0, 87, 46
2, 74256, Control_c, 0, 64, 0
2, 74378, Note_on_c, 0, 46, 59
2, 74389, Note_on_c, 0, 87, 0
2, 74391, Note_on_c, 0, 84, 0
2, 74391, Note_on_c, 0, 63, 0
2, 74391, Note_on_c, 0, 75, 0
2, 74391, Note_on_c, 0, 60, 0
2, 74391, Note_on_c, 0, 68, 0
2, 74391, Note_on_c, 0, 80, 0
2, 74391, Note_on_c, 0, 72, 0
2, 74393, Note_on_c, 0, 56, 0
2, 74438, Note_on_c, 0, 48, 0
2, 74465, Control_c, 0, 64, 127
2, 74494, Control_c, 0, 67, 127
2, 74520, Note_on_c, 0, 53, 50
2, 74616, Note_on_c, 0, 56, 53
2, 74616, Note_on_c, 0, 61, 49
2, 74726, Note_on_c, 0, 73, 47
2, 74728, Note_on_c, 0, 65, 53
2, 74728, Note_on_c, 0, 68, 48
2, 74770, Note_on_c, 0, 68, 0
2, 74770, Note_on_c, 0, 73, 0
2, 74770, Note_on_c, 0, 65, 0
2, 74833, Note_on_c, 0, 73, 52
2, 74835, Note_on_c, 0, 65, 46
2, 74835, Note_on_c, 0, 68, 47
2, 74972, Note_on_c, 0, 77, 52
2, 74972, Note_on_c, 0, 85, 46
2, 74977, Note_on_c, 0, 80, 47
2, 74994, Control_c, 0, 64, 0
2, 75134, Note_on_c, 0, 39, 52
2, 75189, Note_on_c, 0, 80, 0
2, 75189, Note_on_c, 0, 85, 0
2, 75189, Note_on_c, 0, 73, 0
2, 75189, Note_on_c, 0, 77, 0
2, 75191, Note_on_c, 0, 56, 0
2, 75191, Note_on_c, 0, 65, 0
2, 75191, Note_on_c, 0, 53, 0
2, 75191, Note_on_c, 0, 61, 0
2, 75191, Note_on_c, 0, 68, 0
2, 75194, Note_on_c, 0, 46, 0
2, 75241, Control_c, 0, 64, 127
2, 75296, Note_on_c, 0, 51, 48
2, 75411, Note_on_c, 0, 58, 50
2, 75417, Note_on_c, 0, 55, 53
2, 75543, Note_on_c, 0, 61, 53
2, 75543, Note_on_c, 0, 63, 51
2, 75543, Note_on_c, 0, 70, 48
2, 75647, Note_on_c, 0, 63, 0
2, 75705, Note_on_c, 0, 63, 68
2, 75821, Note_on_c, 0, 75, 46
2, 75821, Note_on_c, 0, 82, 48
2, 75827, Note_on_c, 0, 73, 48
2, 75867, Control_c, 0, 64, 0
2, 76006, Note_on_c, 0, 44, 53
2, 76026, Note_on_c, 0, 60, 70
2, 76026, Note_on_c, 0, 72, 65
2, 76053, Note_on_c, 0, 82, 0
2, 76053, Note_on_c, 0, 75, 0
2, 76055, Note_on_c, 0, 63, 0
2, 76055, Note_on_c, 0, 55, 0
2, 76055, Note_on_c, 0, 73, 0
2, 76055, Note_on_c, 0, 58, 0
2, 76055, Note_on_c, 0, 61, 0
2, 76055, Note_on_c, 0, 70, 0
2, 76056, Note_on_c, 0, 51, 0
2, 76058, Note_on_c, 0, 39, 0
2, 76142, Control_c, 0, 64, 127
2, 76193, Note_on_c, 0, 51, 47
2, 76220, Note_on_c, 0, 72, 0
2, 76250, Note_on_c, 0, 60, 0
2, 76296, Note_on_c, 0, 72, 66
2, 76306, Note_on_c, 0, 60, 67
2, 76320, Note_on_c, 0, 56, 48
2, 76420, Note_on_c, 0, 63, 53
2, 76420, Note_on_c, 0, 68, 51
2, 76469, Note_on_c, 0, 72, 0
2, 76471, Note_on_c, 0, 60, 0
2, 76530, Note_on_c, 0, 72, 67
2, 76532, Note_on_c, 0, 60, 67
2, 76639, Note_on_c, 0, 87, 53
2, 76690, Note_on_c, 0, 72, 0
2, 76692, Note_on_c, 0, 60, 0
2, 76723, Note_on_c, 0, 51, 0
2, 76730, Note_on_c, 0, 39, 53
2, 76751, Note_on_c, 0, 72, 70
2, 76752, Note_on_c, 0, 60, 63
2, 76758, Note_on_c, 0, 51, 65
2, 76769, Note_on_c, 0, 44, 0
2, 76834, Note_on_c, 0, 51, 0
2, 76883, Note_on_c, 0, 51, 53
2, 76950, Note_on_c, 0, 56, 0
2, 76977, Note_on_c, 0, 73, 67
2, 76979, Note_on_c, 0, 68, 0
2, 76979, Note_on_c, 0, 63, 0
2, 76981, Note_on_c, 0, 61, 67
2, 76993, Note_on_c, 0, 56, 51
2, 76999, Note_on_c, 0, 72, 0
2, 77001, Note_on_c, 0, 60, 0
2, 77081, Note_on_c, 0, 68, 52
2, 77183, Note_on_c, 0, 75, 70
2, 77184, Note_on_c, 0, 63, 50
2, 77245, Note_on_c, 0, 87, 0
2, 77310, Note_on_c, 0, 87, 46
2, 77373, Note_on_c, 0, 75, 0
2, 77413, Note_on_c, 0, 63, 0
2, 77424, Control_c, 0, 64, 0
2, 77444, Note_on_c, 0, 46, 48
2, 77452, Note_on_c, 0, 87, 0
2, 77454, Note_on_c, 0, 73, 0
2, 77454, Note_on_c, 0, 68, 0
2, 77460, Note_on_c, 0, 63, 69
2, 77460, Note_on_c, 0, 75, 70
2, 77478, Note_on_c, 0, 61, 0
2, 77480, Note_on_c, 0, 51, 0
2, 77480, Note_on_c, 0, 56, 0
2, 77482, Note_on_c, 0, 39, 0
2, 77549, Control_c, 0, 64, 127
2, 77671, Note_on_c, 0, 55, 51
2, 77720, Note_on_c, 0, 75, 0
2, 77773, Note_on_c, 0, 61, 51
2, 77773, Note_on_c, 0, 75, 53
2, 77773, Note_on_c, 0, 79, 53
2, 77781, Note_on_c, 0, 87, 51
2, 77826, Note_on_c, 0, 63, 0
2, 77882, Note_on_c, 0, 63, 52
2, 77919, Note_on_c, 0, 79, 0
2, 77919, Note_on_c, 0, 75, 0
2, 77919, Note_on_c, 0, 87, 0
2, 77984, Note_on_c, 0, 75, 50
2, 77984, Note_on_c, 0, 79, 48
2, 77984, Note_on_c, 0, 87, 48
2, 77995, Note_on_c, 0, 67, 48
2, 78080, Note_on_c, 0, 73, 49
2, 78098, Note_on_c, 0, 75, 0
2, 78143, Note_on_c, 0, 79, 0
2, 78171, Note_on_c, 0, 87, 0
2, 78186, Control_c, 0, 64, 0
2, 78194, Note_on_c, 0, 79, 51
2, 78227, Note_on_c, 0, 39, 51
2, 78227, Note_on_c, 0, 87, 52
2, 78258, Note_on_c, 0, 46, 0
2, 78361, Note_on_c, 0, 51, 46
2, 78387, Control_c, 0, 64, 127
2, 78411, Note_on_c, 0, 73, 0
2, 78411, Note_on_c, 0, 79, 0
2, 78413, Note_on_c, 0, 55, 0
2, 78462, Note_on_c, 0, 85, 50
2, 78464, Note_on_c, 0, 55, 52
2, 78464, Note_on_c, 0, 73, 50
2, 78470, Note_on_c, 0, 75, 52
2, 78470, Note_on_c, 0, 79, 48
2, 78484, Note_on_c, 0, 87, 0
2, 78557, Note_on_c, 0, 61, 0
2, 78612, Note_on_c, 0, 61, 51
2, 78639, Note_on_c, 0, 73, 0
2, 78639, Note_on_c, 0, 63, 0
2, 78677, Note_on_c, 0, 75, 0
2, 78692, Note_on_c, 0, 63, 49
2, 78692, Note_on_c, 0, 73, 48
2, 78699, Note_on_c, 0, 79, 0
2, 78707, Note_on_c, 0, 75, 52
2, 78736, Note_on_c, 0, 79, 50
2, 78738, Note_on_c, 0, 67, 0
2, 78765, Note_on_c, 0, 84, 53
2, 78772, Note_on_c, 0, 85, 0
2, 78938, Note_on_c, 0, 73, 0
2, 78977, Note_on_c, 0, 75, 0
2, 78991, Note_on_c, 0, 73, 50
2, 78997, Control_c, 0, 64, 0
2, 79028, Note_on_c, 0, 75, 47
2, 79036, Note_on_c, 0, 43, 52
2, 79058, Note_on_c, 0, 79, 0
2, 79064, Note_on_c, 0, 82, 62
2, 79077, Note_on_c, 0, 39, 0
2, 79080, Note_on_c, 0, 84, 0
2, 79159, Control_c, 0, 64, 127
2, 79179, Note_on_c, 0, 51, 0
2, 79228, Note_on_c, 0, 51, 49
2, 79294, Note_on_c, 0, 61, 0
2, 79297, Control_c, 0, 67, 0
2, 79301, Note_on_c, 0, 55, 0
2, 79305, Note_on_c, 0, 51, 0
2, 79305, Note_on_c, 0, 63, 0
2, 79305, Note_on_c, 0, 82, 0
2, 79305, Note_on_c, 0, 75, 0
2, 79314, Note_on_c, 0, 73, 0
2, 79314, Note_on_c, 0, 43, 0
2, 79383, Note_on_c, 0, 43, 70
2, 79392, Note_on_c, 0, 58, 64
2, 79392, Note_on_c, 0, 63, 69
2, 79392, Note_on_c, 0, 70, 69
2, 79393, Note_on_c, 0, 51, 65
2, 79393, Control_c, 0, 67, 127
2, 79397, Note_on_c, 0, 61, 49
2, 79441, Note_on_c, 0, 61, 0
2, 79441, Note_on_c, 0, 63, 0
2, 79494, Note_on_c, 0, 63, 53
2, 79498, Note_on_c, 0, 61, 49
2, 79535, Note_on_c, 0, 70, 0
2, 79563, Note_on_c, 0, 58, 0
2, 79616, Note_on_c, 0, 58, 70
2, 79616, Note_on_c, 0, 70, 70
2, 79718, Note_on_c, 0, 82, 47
2, 79762, Note_on_c, 0, 70, 0
2, 79770, Note_on_c, 0, 51, 0
2, 79777, Note_on_c, 0, 58, 0
2, 79838, Note_on_c, 0, 70, 75
2, 79840, Note_on_c, 0, 58, 46
2, 79854, Note_on_c, 0, 51, 52
2, 79856, Note_on_c, 0, 39, 50
2, 79898, Note_on_c, 0, 51, 0
2, 79949, Note_on_c, 0, 51, 53
2, 80086, Note_on_c, 0, 72, 75
2, 80088, Note_on_c, 0, 61, 0
2, 80096, Note_on_c, 0, 60, 47
2, 80107, Note_on_c, 0, 70, 0
2, 80109, Note_on_c, 0, 55, 52
2, 80176, Note_on_c, 0, 63, 0
2, 80220, Note_on_c, 0, 63, 51
2, 80360, Note_on_c, 0, 61, 58
2, 80360, Note_on_c, 0, 73, 66
2, 80382, Note_on_c, 0, 72, 0
2, 80391, Note_on_c, 0, 63, 0
2, 80391, Note_on_c, 0, 60, 0
2, 80478, Control_c, 0, 64, 0
2, 80531, Note_on_c, 0, 87, 52
2, 80677, Note_on_c, 0, 43, 0
2, 80677, Note_on_c, 0, 60, 53
2, 80688, Note_on_c, 0, 44, 47
2, 80708, Note_on_c, 0, 61, 0
2, 80738, Note_on_c, 0, 51, 0
2, 80738, Note_on_c, 0, 55, 0
2, 80738, Note_on_c, 0, 58, 0
2, 80742, Note_on_c, 0, 39, 0
2, 80746, Note_on_c, 0, 72, 62
2, 80762, Note_on_c, 0, 87, 0
2, 80762, Note_on_c, 0, 73, 0
2, 80762, Note_on_c, 0, 82, 0
2, 80830, Control_c, 0, 64, 127
2, 80959, Note_on_c, 0, 51, 50
2, 81079, Note_on_c, 0, 56, 53
2, 81085, Note_on_c, 0, 75, 52
2, 81093, Note_on_c, 0, 80, 51
2, 81093, Note_on_c, 0, 84, 50
2, 81142, Note_on_c, 0, 60, 0
2, 81192, Note_on_c, 0, 60, 46
2, 81237, Note_on_c, 0, 84, 0
2, 81237, Note_on_c, 0, 80, 0
2, 81237, Note_on_c, 0, 75, 0
2, 81289, Note_on_c, 0, 75, 51
2, 81291, Note_on_c, 0, 63, 51
2, 81291, Note_on_c, 0, 80, 53
2, 81291, Note_on_c, 0, 84, 49
2, 81407, Note_on_c, 0, 68, 46
2, 81474, Note_on_c, 0, 84, 0
2, 81474, Note_on_c, 0, 80, 0
2, 81474, Note_on_c, 0, 75, 0
2, 81474, Note_on_c, 0, 72, 0
2, 81525, Note_on_c, 0, 72, 48
2, 81525, Note_on_c, 0, 75, 46
2, 81525, Note_on_c, 0, 80, 51
2, 81525, Note_on_c, 0, 84, 52
2, 81592, Note_on_c, 0, 68, 0
2, 81643, Note_on_c, 0, 68, 52
2, 81673, Note_on_c, 0, 75, 0
2, 81710, Note_on_c, 0, 63, 0
2, 81712, Note_on_c, 0, 80, 0
2, 81724, Note_on_c, 0, 75, 51
2, 81763, Note_on_c, 0, 80, 47
2, 81765, Note_on_c, 0, 63, 47
2, 81777, Note_on_c, 0, 85, 52
2, 81808, Note_on_c, 0, 84, 0
2, 81837, Note_on_c, 0, 60, 0
2, 81889, Note_on_c, 0, 60, 52
2, 81920, Note_on_c, 0, 72, 0
2, 81971, Note_on_c, 0, 80, 0
2, 81975, Note_on_c, 0, 72, 48
2, 81977, Note_on_c, 0, 56, 0
2, 82022, Note_on_c, 0, 80, 52
2, 82028, Note_on_c, 0, 56, 52
2, 82073, Note_on_c, 0, 87, 50
2, 82173, Note_on_c, 0, 51, 0
2, 82229, Note_on_c, 0, 51, 46
2, 82371, Control_c, 0, 64, 0
2, 82428, Note_on_c, 0, 41, 48
2, 82463, Note_on_c, 0, 73, 72
2, 82471, Note_on_c, 0, 61, 70
2, 82484, Note_on_c, 0, 72, 0
2, 82484, Note_on_c, 0, 63, 0
2, 82484, Note_on_c, 0, 68, 0
2, 82486, Note_on_c, 0, 51, 0
2, 82486, Note_on_c, 0, 87, 0
2, 82486, Note_on_c, 0, 60, 0
2, 82486, Note_on_c, 0, 75, 0
2, 82486, Note_on_c, 0, 80, 0
2, 82486, Note_on_c, 0, 44, 0
2, 82486, Note_on_c, 0, 56, 0
2, 82486, Note_on_c, 0, 85, 0
2, 82585, Note_on_c, 0, 49, 52
2, 82609, Control_c, 0, 64, 127
2, 82728, Note_on_c, 0, 56, 53
2, 82827, Note_on_c, 0, 53, 46
2, 82888, Note_on_c, 0, 65, 49
2, 82888, Note_on_c, 0, 68, 51
2, 82968, Note_on_c, 0, 73, 0
2, 83002, Note_on_c, 0, 61, 0
2, 83051, Note_on_c, 0, 73, 77
2, 83055, Note_on_c, 0, 61, 69
2, 83184, Note_on_c, 0, 85, 51
2, 83288, Note_on_c, 0, 43, 77
2, 83297, Control_c, 0, 64, 0
2, 83303, Note_on_c, 0, 65, 0
2, 83348, Note_on_c, 0, 77, 76
2, 83355, Note_on_c, 0, 65, 72
2, 83432, Note_on_c, 0, 85, 0
2, 83432, Note_on_c, 0, 61, 0
2, 83432, Note_on_c, 0, 56, 0
2, 83432, Note_on_c, 0, 68, 0
2, 83432, Note_on_c, 0, 73, 0
2, 83434, Note_on_c, 0, 41, 0
2, 83434, Note_on_c, 0, 49, 0
2, 83434, Note_on_c, 0, 53, 0
2, 83523, Control_c, 0, 64, 127
2, 83545, Note_on_c, 0, 49, 46
2, 83695, Note_on_c, 0, 63, 51
2, 83697, Note_on_c, 0, 75, 77
2, 83710, Note_on_c, 0, 55, 53
2, 83710, Note_on_c, 0, 58, 51
2, 83744, Note_on_c, 0, 77, 0
2, 83752, Note_on_c, 0, 65, 0
2, 83837, Note_on_c, 0, 67, 48
2, 83837, Note_on_c, 0, 70, 51
2, 84001, Note_on_c, 0, 63, 0
2, 84001, Note_on_c, 0, 61, 76
2, 84001, Note_on_c, 0, 73, 75
2, 84016, Note_on_c, 0, 75, 0
2, 84150, Note_on_c, 0, 85, 51
2, 84309, Note_on_c, 0, 40, 48
2, 84317, Control_c, 0, 64, 0
2, 84321, Note_on_c, 0, 72, 64
2, 84323, Note_on_c, 0, 60, 69
2, 84347, Note_on_c, 0, 61, 0
2, 84367, Note_on_c, 0, 73, 0
2, 84402, Note_on_c, 0, 85, 0
2, 84402, Note_on_c, 0, 55, 0
2, 84402, Note_on_c, 0, 70, 0
2, 84402, Note_on_c, 0, 58, 0
2, 84402, Note_on_c, 0, 67, 0
2, 84404, Note_on_c, 0, 49, 0
2, 84404, Note_on_c, 0, 43, 0
2, 84517, Control_c, 0, 64, 127
2, 84555, Note_on_c, 0, 48, 55
2, 84630, Note_on_c, 0, 72, 0
2, 84683, Note_on_c, 0, 55, 54
2, 84683, Note_on_c, 0, 72, 46
2, 84683, Note_on_c, 0, 79, 48
2, 84683, Note_on_c, 0, 84, 50
2, 84685, Note_on_c, 0, 82, 52
2, 84815, Note_on_c, 0, 58, 52
2, 84841, Note_on_c, 0, 82, 0
2, 84841, Note_on_c, 0, 84, 0
2, 84841, Note_on_c, 0, 79, 0
2, 84841, Note_on_c, 0, 72, 0
2, 84865, Note_on_c, 0, 60, 0
2, 84894, Note_on_c, 0, 72, 58
2, 84894, Note_on_c, 0, 79, 56
2, 84894, Note_on_c, 0, 82, 55
2, 84894, Note_on_c, 0, 84, 58
2, 84923, Note_on_c, 0, 60, 57
2, 85025, Note_on_c, 0, 67, 47
2, 85039, Note_on_c, 0, 72, 0
2, 85106, Note_on_c, 0, 72, 48
2, 85128, Note_on_c, 0, 79, 0
2, 85137, Note_on_c, 0, 77, 52
2, 85139, Control_c, 0, 64, 0
2, 85152, Note_on_c, 0, 80, 51
2, 85168, Note_on_c, 0, 40, 0
2, 85176, Note_on_c, 0, 41, 55
2, 85188, Note_on_c, 0, 60, 0
2, 85188, Note_on_c, 0, 58, 0
2, 85188, Note_on_c, 0, 84, 0
2, 85188, Note_on_c, 0, 67, 0
2, 85188, Note_on_c, 0, 48, 0
2, 85188, Note_on_c, 0, 82, 0
2, 85188, Note_on_c, 0, 55, 0
2, 85194, Note_on_c, 0, 87, 64
2, 85342, Note_on_c, 0, 48, 53
2, 85344, Control_c, 0, 64, 127
2, 85402, Note_on_c, 0, 72, 0
2, 85416, Note_on_c, 0, 77, 0
2, 85424, Note_on_c, 0, 80, 0
2, 85455, Note_on_c, 0, 56, 47
2, 85455, Note_on_c, 0, 72, 48
2, 85469, Note_on_c, 0, 77, 53
2, 85478, Note_on_c, 0, 80, 51
2, 85492, Note_on_c, 0, 85, 49
2, 85509, Note_on_c, 0, 87, 0
2, 85588, Note_on_c, 0, 60, 52
2, 85685, Note_on_c, 0, 72, 0
2, 85685, Note_on_c, 0, 80, 0
2, 85685, Note_on_c, 0, 77, 0
2, 85740, Note_on_c, 0, 72, 46
2, 85740, Note_on_c, 0, 77, 50
2, 85740, Note_on_c, 0, 84, 53
2, 85748, Note_on_c, 0, 80, 46
2, 85764, Note_on_c, 0, 65, 46
2, 85786, Note_on_c, 0, 85, 0
2, 85946, Note_on_c, 0, 68, 51
2, 86109, Control_c, 0, 64, 0
2, 86192, Note_on_c, 0, 58, 76
2, 86192, Note_on_c, 0, 70, 74
2, 86207, Note_on_c, 0, 68, 0
2, 86207, Note_on_c, 0, 60, 0
2, 86207, Note_on_c, 0, 77, 0
2, 86207, Note_on_c, 0, 72, 0
2, 86208, Note_on_c, 0, 84, 0
2, 86208, Note_on_c, 0, 80, 0
2, 86208, Note_on_c, 0, 48, 0
2, 86208, Note_on_c, 0, 41, 0
2, 86208, Note_on_c, 0, 56, 0
2, 86208, Note_on_c, 0, 65, 0
2, 86208, Note_on_c, 0, 37, 50
2, 86310, Control_c, 0, 64, 127
2, 86400, Note_on_c, 0, 46, 46
2, 86505, Note_on_c, 0, 53, 46
2, 86505, Note_on_c, 0, 56, 49
2, 86616, Note_on_c, 0, 65, 52
2, 86616, Note_on_c, 0, 68, 50
2, 86645, Note_on_c, 0, 70, 0
2, 86680, Note_on_c, 0, 58, 0
2, 86733, Note_on_c, 0, 58, 50
2, 86733, Note_on_c, 0, 70, 74
2, 86844, Note_on_c, 0, 82, 47
2, 86911, Control_c, 0, 64, 0
2, 86946, Note_on_c, 0, 39, 58
2, 86997, Note_on_c, 0, 61, 75
2, 86997, Note_on_c, 0, 73, 81
2, 87009, Note_on_c, 0, 68, 0
2, 87009, Note_on_c, 0, 65, 0
2, 87011, Note_on_c, 0, 82, 0
2, 87011, Note_on_c, 0, 70, 0
2, 87011, Note_on_c, 0, 46, 0
2, 87011, Note_on_c, 0, 56, 0
2, 87011, Note_on_c, 0, 53, 0
2, 87011, Note_on_c, 0, 58, 0
2, 87013, Note_on_c, 0, 37, 0
2, 87078, Control_c, 0, 64, 127
2, 87115, Note_on_c, 0, 46, 47
2, 87210, Note_on_c, 0, 60, 51
2, 87210, Note_on_c, 0, 72, 73
2, 87230, Note_on_c, 0, 55, 46
2, 87234, Note_on_c, 0, 49, 53
2, 87254, Note_on_c, 0, 61, 0
2, 87254, Note_on_c, 0, 73, 0
2, 87312, Note_on_c, 0, 63, 51
2, 87312, Note_on_c, 0, 67, 51
2, 87420, Note_on_c, 0, 58, 69
2, 87420, Note_on_c, 0, 70, 74
2, 87440, Note_on_c, 0, 72, 0
2, 87444, Note_on_c, 0, 60, 0
2, 87491, Control_c, 0, 64, 0
2, 87509, Note_on_c, 0, 82, 52
2, 87564, Note_on_c, 0, 63, 0
2, 87580, Note_on_c, 0, 36, 67
2, 87617, Note_on_c, 0, 67, 0
2, 87617, Note_on_c, 0, 82, 0
2, 87617, Note_on_c, 0, 58, 0
2, 87617, Note_on_c, 0, 70, 0
2, 87619, Note_on_c, 0, 39, 0
2, 87619, Note_on_c, 0, 55, 0
2, 87619, Note_on_c, 0, 49, 0
2, 87619, Note_on_c, 0, 46, 0
2, 87621, Control_c, 0, 67, 0
2, 87623, Note_on_c, 0, 63, 77
2, 87623, Note_on_c, 0, 75, 73
2, 87704, Control_c, 0, 64, 127
2, 87773, Note_on_c, 0, 44, 58
2, 87824, Note_on_c, 0, 75, 0
2, 87877, Note_on_c, 0, 75, 64
2, 87877, Note_on_c, 0, 80, 63
2, 87877, Note_on_c, 0, 84, 58
2, 87877, Note_on_c, 0, 87, 62
2, 87885, Note_on_c, 0, 51, 52
2, 87932, Note_on_c, 0, 51, 0
2, 87976, Note_on_c, 0, 51, 57
2, 88027, Note_on_c, 0, 87, 0
2, 88029, Note_on_c, 0, 75, 0
2, 88029, Note_on_c, 0, 80, 0
2, 88029, Note_on_c, 0, 84, 0
2, 88080, Note_on_c, 0, 84, 63
2, 88080, Note_on_c, 0, 87, 64
2, 88081, Note_on_c, 0, 75, 63
2, 88081, Note_on_c, 0, 80, 60
2, 88083, Note_on_c, 0, 60, 53
2, 88175, Note_on_c, 0, 68, 48
2, 88235, Note_on_c, 0, 80, 0
2, 88235, Note_on_c, 0, 84, 0
2, 88282, Note_on_c, 0, 42, 73
2, 88284, Note_on_c, 0, 90, 67
2, 88286, Note_on_c, 0, 78, 68
2, 88286, Note_on_c, 0, 80, 68
2, 88286, Note_on_c, 0, 84, 70
2, 88300, Note_on_c, 0, 87, 0
2, 88306, Note_on_c, 0, 44, 0
2, 88306, Note_on_c, 0, 36, 0
2, 88341, Note_on_c, 0, 60, 0
2, 88341, Note_on_c, 0, 51, 0
2, 88346, Note_on_c, 0, 68, 0
2, 88346, Note_on_c, 0, 75, 0
2, 88361, Note_on_c, 0, 63, 0
2, 88414, Note_on_c, 0, 48, 47
2, 88414, Note_on_c, 0, 51, 49
2, 88481, Note_on_c, 0, 78, 0
2, 88481, Note_on_c, 0, 80, 0
2, 88534, Note_on_c, 0, 89, 65
2, 88536, Note_on_c, 0, 78, 64
2, 88536, Note_on_c, 0, 80, 65
2, 88537, Note_on_c, 0, 56, 52
2, 88568, Note_on_c, 0, 90, 0
2, 88629, Note_on_c, 0, 63, 49
2, 88629, Note_on_c, 0, 75, 50
2, 88665, Note_on_c, 0, 80, 0
2, 88665, Note_on_c, 0, 84, 0
2, 88665, Note_on_c, 0, 78, 0
2, 88716, Note_on_c, 0, 80, 65
2, 88716, Note_on_c, 0, 84, 59
2, 88716, Note_on_c, 0, 87, 65
2, 88718, Note_on_c, 0, 78, 61
2, 88730, Note_on_c, 0, 72, 47
2, 88734, Note_on_c, 0, 68, 52
2, 88747, Note_on_c, 0, 89, 0
2, 88761, Note_on_c, 0, 63, 0
2, 88820, Note_on_c, 0, 63, 50
2, 88907, Control_c, 0, 64, 0
2, 88916, Note_on_c, 0, 83, 69
2, 88930, Note_on_c, 0, 86, 74
2, 88946, Note_on_c, 0, 41, 73
2, 88952, Note_on_c, 0, 63, 0
2, 88952, Note_on_c, 0, 80, 0
2, 88952, Note_on_c, 0, 78, 0
2, 88952, Note_on_c, 0, 75, 0
2, 88952, Note_on_c, 0, 72, 0
2, 88952, Note_on_c, 0, 87, 0
2, 88952, Note_on_c, 0, 84, 0
2, 88952, Note_on_c, 0, 68, 0
2, 88954, Note_on_c, 0, 56, 0
2, 88954, Note_on_c, 0, 51, 0
2, 88956, Note_on_c, 0, 48, 0
2, 88956, Note_on_c, 0, 42, 0
2, 88958, Note_on_c, 0, 95, 73
2, 89089, Note_on_c, 0, 47, 61
2, 89098, Note_on_c, 0, 50, 61
2, 89116, Control_c, 0, 64, 127
2, 89160, Note_on_c, 0, 86, 0
2, 89205, Note_on_c, 0, 56, 67
2, 89207, Note_on_c, 0, 86, 72
2, 89207, Note_on_c, 0, 94, 79
2, 89215, Note_on_c, 0, 82, 72
2, 89242, Note_on_c, 0, 95, 0
2, 89244, Note_on_c, 0, 83, 0
2, 89297, Note_on_c, 0, 74, 57
2, 89299, Note_on_c, 0, 62, 65
2, 89346, Note_on_c, 0, 86, 0
2, 89390, Note_on_c, 0, 92, 78
2, 89392, Note_on_c, 0, 80, 50
2, 89392, Note_on_c, 0, 86, 48
2, 89408, Note_on_c, 0, 68, 47
2, 89408, Note_on_c, 0, 71, 54
2, 89419, Note_on_c, 0, 94, 0
2, 89421, Note_on_c, 0, 82, 0
2, 89435, Note_on_c, 0, 62, 0
2, 89486, Note_on_c, 0, 62, 60
2, 89555, Note_on_c, 0, 83, 71
2, 89557, Control_c, 0, 64, 0
2, 89579, Note_on_c, 0, 85, 72
2, 89619, Note_on_c, 0, 40, 71
2, 89621, Note_on_c, 0, 86, 0
2, 89621, Note_on_c, 0, 95, 83
2, 89638, Note_on_c, 0, 92, 0
2, 89640, Note_on_c, 0, 74, 0
2, 89640, Note_on_c, 0, 56, 0
2, 89640, Note_on_c, 0, 62, 0
2, 89640, Note_on_c, 0, 80, 0
2, 89640, Note_on_c, 0, 71, 0
2, 89640, Note_on_c, 0, 68, 0
2, 89641, Note_on_c, 0, 50, 0
2, 89641, Note_on_c, 0, 47, 0
2, 89643, Note_on_c, 0, 41, 0
2, 89731, Control_c, 0, 64, 127
2, 89794, Note_on_c, 0, 46, 65
2, 89794, Note_on_c, 0, 49, 67
2, 89851, Note_on_c, 0, 85, 0
2, 89904, Note_on_c, 0, 82, 72
2, 89904, Note_on_c, 0, 85, 79
2, 89904, Note_on_c, 0, 94, 78
2, 89905, Note_on_c, 0, 56, 61
2, 89954, Note_on_c, 0, 95, 0
2, 89958, Note_on_c, 0, 83, 0
2, 89993, Note_on_c, 0, 73, 64
2, 89997, Note_on_c, 0, 61, 60
2, 90031, Note_on_c, 0, 85, 0
2, 90090, Note_on_c, 0, 92, 78
2, 90092, Note_on_c, 0, 80, 48
2, 90092, Note_on_c, 0, 85, 50
2, 90108, Note_on_c, 0, 68, 53
2, 90108, Note_on_c, 0, 70, 50
2, 90119, Note_on_c, 0, 94, 0
2, 90124, Note_on_c, 0, 82, 0
2, 90144, Note_on_c, 0, 61, 0
2, 90201, Note_on_c, 0, 61, 59
2, 90221, Note_on_c, 0, 80, 0
2, 90272, Note_on_c, 0, 80, 68
2, 90280, Note_on_c, 0, 92, 0
2, 90282, Note_on_c, 0, 85, 0
2, 90304, Note_on_c, 0, 82, 72
2, 90328, Note_on_c, 0, 85, 72
2, 90340, Note_on_c, 0, 39, 66
2, 90348, Note_on_c, 0, 92, 77
2, 90350, Control_c, 0, 64, 0
2, 90415, Note_on_c, 0, 73, 0
2, 90417, Note_on_c, 0, 56, 0
2, 90417, Note_on_c, 0, 61, 0
2, 90417, Note_on_c, 0, 68, 0
2, 90417, Note_on_c, 0, 70, 0
2, 90419, Note_on_c, 0, 46, 0
2, 90419, Note_on_c, 0, 40, 0
2, 90419, Note_on_c, 0, 49, 0
2, 90488, Note_on_c, 0, 46, 55
2, 90488, Note_on_c, 0, 49, 54
2, 90553, Control_c, 0, 64, 127
2, 90616, Note_on_c, 0, 91, 69
2, 90618, Note_on_c, 0, 79, 69
2, 90620, Note_on_c, 0, 55, 55
2, 90646, Note_on_c, 0, 92, 0
2, 90653, Note_on_c, 0, 80, 0
2, 90735, Note_on_c, 0, 70, 58
2, 90737, Note_on_c, 0, 58, 59
2, 90852, Note_on_c, 0, 89, 50
2, 90854, Note_on_c, 0, 77, 47
2, 90872, Note_on_c, 0, 61, 54
2, 90874, Note_on_c, 0, 91, 0
2, 90876, Note_on_c, 0, 79, 0
2, 90885, Note_on_c, 0, 67, 48
2, 90907, Note_on_c, 0, 58, 0
2, 90986, Note_on_c, 0, 58, 54
2, 91023, Note_on_c, 0, 77, 0
2, 91072, Note_on_c, 0, 77, 56
2, 91074, Note_on_c, 0, 89, 0
2, 91096, Control_c, 0, 64, 0
2, 91096, Note_on_c, 0, 80, 57
2, 91116, Note_on_c, 0, 84, 70
2, 91130, Note_on_c, 0, 36, 58
2, 91132, Note_on_c, 0, 89, 68
2, 91169, Note_on_c, 0, 85, 0
2, 91171, Note_on_c, 0, 70, 0
2, 91171, Note_on_c, 0, 82, 0
2, 91171, Note_on_c, 0, 67, 0
2, 91173, Note_on_c, 0, 58, 0
2, 91173, Note_on_c, 0, 61, 0
2, 91173, Note_on_c, 0, 46, 0
2, 91173, Note_on_c, 0, 55, 0
2, 91173, Note_on_c, 0, 49, 0
2, 91175, Note_on_c, 0, 39, 0
2, 91260, Control_c, 0, 64, 127
2, 91295, Note_on_c, 0, 44, 51
2, 91404, Note_on_c, 0, 75, 62
2, 91404, Note_on_c, 0, 87, 64
2, 91424, Note_on_c, 0, 48, 49
2, 91424, Note_on_c, 0, 51, 49
2, 91450, Note_on_c, 0, 77, 0
2, 91458, Note_on_c, 0, 89, 0
2, 91541, Note_on_c, 0, 72, 47
2, 91543, Note_on_c, 0, 60, 46
2, 91576, Note_on_c, 0, 75, 0
2, 91590, Note_on_c, 0, 84, 0
2, 91592, Note_on_c, 0, 72, 0
2, 91649, Note_on_c, 0, 72, 64
2, 91649, Note_on_c, 0, 84, 58
2, 91651, Note_on_c, 0, 63, 48
2, 91663, Note_on_c, 0, 68, 51
2, 91687, Note_on_c, 0, 87, 0
2, 91728, Note_on_c, 0, 60, 0
2, 91795, Note_on_c, 0, 60, 51
2, 91800, Control_c, 0, 64, 0
2, 91859, Note_on_c, 0, 75, 52
2, 91888, Note_on_c, 0, 77, 49
2, 91926, Note_on_c, 0, 34, 49
2, 91935, Note_on_c, 0, 87, 53
2, 91988, Note_on_c, 0, 60, 0
2, 91988, Note_on_c, 0, 63, 0
2, 91988, Note_on_c, 0, 72, 0
2, 91988, Note_on_c, 0, 68, 0
2, 91992, Note_on_c, 0, 36, 0
2, 91997, Note_on_c, 0, 51, 0
2, 91997, Note_on_c, 0, 44, 0
2, 91997, Note_on_c, 0, 48, 0
2, 92001, Note_on_c, 0, 80, 0
2, 92010, Note_on_c, 0, 84, 0
2, 92016, Control_c, 0, 64, 127
2, 92066, Note_on_c, 0, 41, 53
2, 92188, Note_on_c, 0, 73, 63
2, 92188, Note_on_c, 0, 85, 64
2, 92192, Note_on_c, 0, 46, 50
2, 92200, Note_on_c, 0, 49, 51
2, 92227, Note_on_c, 0, 75, 0
2, 92241, Note_on_c, 0, 87, 0
2, 92325, Note_on_c, 0, 65, 49
2, 92328, Note_on_c, 0, 53, 46
2, 92400, Note_on_c, 0, 77, 0
2, 92401, Note_on_c, 0, 65, 0
2, 92450, Note_on_c, 0, 77, 55
2, 92452, Note_on_c, 0, 73, 0
2, 92454, Note_on_c, 0, 65, 58
2, 92463, Note_on_c, 0, 58, 46
2, 92469, Note_on_c, 0, 61, 53
2, 92474, Note_on_c, 0, 85, 0
2, 92538, Note_on_c, 0, 53, 0
2, 92600, Note_on_c, 0, 53, 50
2, 92728, Control_c, 0, 64, 0
2, 92746, Note_on_c, 0, 79, 67
2, 92750, Note_on_c, 0, 67, 67
2, 92752, Note_on_c, 0, 39, 46
2, 92814, Note_on_c, 0, 77, 0
2, 92816, Note_on_c, 0, 58, 0
2, 92816, Note_on_c, 0, 65, 0
2, 92816, Note_on_c, 0, 61, 0
2, 92818, Note_on_c, 0, 41, 0
2, 92818, Note_on_c, 0, 53, 0
2, 92818, Note_on_c, 0, 49, 0
2, 92818, Note_on_c, 0, 46, 0
2, 92820, Note_on_c, 0, 34, 0
2, 92909, Note_on_c, 0, 51, 47
2, 92915, Note_on_c, 0, 49, 50
2, 92966, Control_c, 0, 64, 127
2, 93049, Note_on_c, 0, 72, 54
2, 93049, Note_on_c, 0, 84, 55
2, 93068, Note_on_c, 0, 55, 53
2, 93166, Note_on_c, 0, 67, 0
2, 93168, Note_on_c, 0, 55, 0
2, 93200, Note_on_c, 0, 67, 50
2, 93204, Note_on_c, 0, 55, 47
2, 93372, Note_on_c, 0, 82, 54
2, 93374, Note_on_c, 0, 61, 53
2, 93374, Note_on_c, 0, 70, 53
2, 93382, Note_on_c, 0, 63, 50
2, 93396, Note_on_c, 0, 72, 0
2, 93418, Note_on_c, 0, 84, 0
2, 93502, Note_on_c, 0, 55, 0
2, 93560, Note_on_c, 0, 55, 52
2, 93733, Control_c, 0, 64, 0
2, 93768, Note_on_c, 0, 67, 0
2, 93775, Note_on_c, 0, 68, 52
2, 93775, Note_on_c, 0, 80, 46
2, 93779, Note_on_c, 0, 44, 49
2, 93792, Note_on_c, 0, 61, 0
2, 93792, Note_on_c, 0, 82, 0
2, 93792, Note_on_c, 0, 79, 0
2, 93792, Note_on_c, 0, 70, 0
2, 93792, Note_on_c, 0, 63, 0
2, 93793, Note_on_c, 0, 51, 0
2, 93793, Note_on_c, 0, 55, 0
2, 93793, Note_on_c, 0, 49, 0
2, 93795, Note_on_c, 0, 39, 0
2, 93915, Control_c, 0, 67, 127
2, 93952, Control_c, 0, 64, 127
2, 93984, Note_on_c, 0, 51, 48
2, 94119, Note_on_c, 0, 56, 50
2, 94119, Note_on_c, 0, 60, 48
2, 94226, Note_on_c, 0, 63, 46
2, 94297, Note_on_c, 0, 68, 0
2, 94346, Note_on_c, 0, 68, 48
2, 94352, Note_on_c, 0, 72, 46
2, 94425, Note_on_c, 0, 80, 0
2, 94476, Note_on_c, 0, 80, 49
2, 94591, Note_on_c, 0, 39, 47
2, 94703, Note_on_c, 0, 51, 0
2, 94741, Note_on_c, 0, 51, 52
2, 94830, Note_on_c, 0, 56, 0
2, 94830, Note_on_c, 0, 60, 0
2, 94875, Note_on_c, 0, 56, 50
2, 94883, Note_on_c, 0, 60, 47
2, 94960, Note_on_c, 0, 63, 0
2, 95007, Note_on_c, 0, 63, 50
2, 95125, Note_on_c, 0, 68, 0
2, 95131, Note_on_c, 0, 72, 0
2, 95169, Note_on_c, 0, 68, 48
2, 95177, Note_on_c, 0, 72, 48
2, 95308, Note_on_c, 0, 80, 0
2, 95363, Note_on_c, 0, 80, 52
2, 95653, Note_on_c, 0, 43, 48
2, 95673, Control_c, 0, 64, 0
2, 95730, Note_on_c, 0, 75, 86
2, 95811, Note_on_c, 0, 68, 0
2, 95813, Note_on_c, 0, 80, 0
2, 95813, Note_on_c, 0, 56, 0
2, 95813, Note_on_c, 0, 63, 0
2, 95813, Note_on_c, 0, 72, 0
2, 95813, Note_on_c, 0, 44, 0
2, 95813, Note_on_c, 0, 51, 0
2, 95813, Note_on_c, 0, 60, 0
2, 95815, Note_on_c, 0, 39, 0
2, 95925, Control_c, 0, 64, 127
2, 96014, Note_on_c, 0, 51, 46
2, 96172, Note_on_c, 0, 61, 51
2, 96181, Note_on_c, 0, 58, 48
2, 96288, Note_on_c, 0, 63, 53
2, 96427, Note_on_c, 0, 73, 47
2, 96432, Note_on_c, 0, 70, 51
2, 96571, Note_on_c, 0, 87, 52
2, 96680, Note_on_c, 0, 39, 48
2, 96717, Note_on_c, 0, 43, 0
2, 96788, Note_on_c, 0, 51, 0
2, 96839, Note_on_c, 0, 51, 49
2, 96912, Note_on_c, 0, 61, 0
2, 96959, Note_on_c, 0, 58, 0
2, 96983, Note_on_c, 0, 55, 53
2, 96983, Note_on_c, 0, 61, 48
2, 97025, Note_on_c, 0, 63, 0
2, 97102, Note_on_c, 0, 63, 53
2, 97211, Note_on_c, 0, 70, 0
2, 97213, Note_on_c, 0, 73, 0
2, 97275, Note_on_c, 0, 70, 48
2, 97275, Note_on_c, 0, 73, 49
2, 97460, Note_on_c, 0, 87, 0
2, 97525, Note_on_c, 0, 87, 52
2, 97824, Note_on_c, 0, 63, 0
2, 97871, Control_c, 0, 64, 0
2, 97874, Note_on_c, 0, 63, 73
2, 97898, Note_on_c, 0, 44, 49
2, 97909, Note_on_c, 0, 39, 0
2, 97951, Note_on_c, 0, 87, 0
2, 97951, Note_on_c, 0, 70, 0
2, 97951, Note_on_c, 0, 51, 0
2, 97951, Note_on_c, 0, 75, 0
2, 97951, Note_on_c, 0, 61, 0
2, 97951, Note_on_c, 0, 55, 0
2, 97951, Note_on_c, 0, 73, 0
2, 98108, Control_c, 0, 64, 127
2, 98108, Note_on_c, 0, 51, 49
2, 98246, Note_on_c, 0, 56, 53
2, 98246, Note_on_c, 0, 60, 49
2, 98295, Note_on_c, 0, 63, 0
2, 98368, Note_on_c, 0, 63, 47
2, 98494, Note_on_c, 0, 68, 49
2, 98494, Note_on_c, 0, 72, 52
2, 98641, Note_on_c, 0, 84, 48
2, 98771, Note_on_c, 0, 39, 46
2, 98880, Note_on_c, 0, 51, 0
2, 98917, Note_on_c, 0, 51, 48
2, 99015, Note_on_c, 0, 60, 0
2, 99015, Note_on_c, 0, 56, 0
2, 99064, Note_on_c, 0, 56, 51
2, 99064, Note_on_c, 0, 60, 49
2, 99137, Note_on_c, 0, 63, 0
2, 99197, Note_on_c, 0, 63, 48
2, 99327, Note_on_c, 0, 68, 0
2, 99327, Note_on_c, 0, 72, 0
2, 99371, Note_on_c, 0, 68, 47
2, 99371, Note_on_c, 0, 72, 47
2, 99588, Note_on_c, 0, 80, 48
2, 99604, Note_on_c, 0, 84, 0
2, 99870, Note_on_c, 0, 63, 0
2, 99872, Control_c, 0, 64, 0
2, 99901, Note_on_c, 0, 43, 53
2, 99956, Note_on_c, 0, 63, 59
2, 99956, Note_on_c, 0, 75, 71
2, 99970, Note_on_c, 0, 68, 0
2, 99972, Note_on_c, 0, 72, 0
2, 99972, Note_on_c, 0, 80, 0
2, 99972, Note_on_c, 0, 60, 0
2, 99974, Note_on_c, 0, 39, 0
2, 99974, Note_on_c, 0, 56, 0
2, 99974, Note_on_c, 0, 44, 0
2, 99974, Note_on_c, 0, 51, 0
2, 100081, Control_c, 0, 64, 127
2, 100268, Note_on_c, 0, 51, 49
2, 100434, Note_on_c, 0, 58, 49
2, 100434, Note_on_c, 0, 61, 53
2, 100523, Note_on_c, 0, 63, 0
2, 100572, Note_on_c, 0, 63, 52
2, 100734, Note_on_c, 0, 70, 47
2, 100734, Note_on_c, 0, 73, 53
2, 101008, Note_on_c, 0, 87, 52
2, 101254, Note_on_c, 0, 61, 0
2, 101372, Note_on_c, 0, 61, 47
2, 101386, Note_on_c, 0, 39, 51
2, 101410, Note_on_c, 0, 43, 0
2, 101570, Note_on_c, 0, 51, 0
2, 101623, Note_on_c, 0, 51, 46
2, 101738, Note_on_c, 0, 63, 0
2, 101784, Note_on_c, 0, 58, 0
2, 101804, Note_on_c, 0, 63, 51
2, 101806, Note_on_c, 0, 55, 48
2, 101929, Note_on_c, 0, 63, 0
2, 101980, Note_on_c, 0, 63, 53
2, 102153, Note_on_c, 0, 73, 0
2, 102155, Note_on_c, 0, 70, 0
2, 102195, Note_on_c, 0, 73, 52
2, 102197, Note_on_c, 0, 70, 51
2, 102212, Note_on_c, 0, 75, 0
2, 102469, Note_on_c, 0, 87, 0
2, 102567, Note_on_c, 0, 87, 53
2, 103707, Note_on_c, 0, 87, 0
2, 103709, Note_on_c, 0, 70, 0
2, 103709, Note_on_c, 0, 73, 0
2, 103709, Note_on_c, 0, 63, 0
2, 103718, Note_on_c, 0, 60, 64
2, 103752, Note_on_c, 0, 61, 0
2, 103931, Note_on_c, 0, 60, 0
2, 103984, Note_on_c, 0, 60, 57
2, 103996, Control_c, 0, 64, 0
2, 104000, Note_on_c, 0, 51, 0
2, 104000, Note_on_c, 0, 55, 0
2, 104000, Note_on_c, 0, 44, 47
2, 104002, Note_on_c, 0, 39, 0
2, 104177, Control_c, 0, 64, 127
2, 104260, Note_on_c, 0, 51, 52
2, 104353, Note_on_c, 0, 60, 0
2, 104419, Note_on_c, 0, 56, 46
2, 104419, Note_on_c, 0, 60, 51
2, 104539, Note_on_c, 0, 63, 46
2, 104539, Note_on_c, 0, 68, 49
2, 104673, Note_on_c, 0, 72, 53
2, 104803, Note_on_c, 0, 75, 48
2, 104803, Note_on_c, 0, 87, 48
2, 104892, Note_on_c, 0, 44, 0
2, 104928, Note_on_c, 0, 44, 50
2, 105005, Note_on_c, 0, 51, 0
2, 105050, Note_on_c, 0, 51, 46
2, 105111, Note_on_c, 0, 60, 0
2, 105111, Note_on_c, 0, 56, 0
2, 105164, Note_on_c, 0, 56, 48
2, 105164, Note_on_c, 0, 60, 47
2, 105227, Note_on_c, 0, 68, 0
2, 105229, Note_on_c, 0, 63, 0
2, 105278, Note_on_c, 0, 68, 46
2, 105280, Note_on_c, 0, 63, 48
2, 105353, Note_on_c, 0, 72, 0
2, 105393, Note_on_c, 0, 75, 0
2, 105404, Note_on_c, 0, 72, 53
2, 105519, Note_on_c, 0, 87, 0
2, 105535, Note_on_c, 0, 80, 53
2, 105535, Note_on_c, 0, 92, 49
2, 105584, Note_on_c, 0, 44, 0
2, 105635, Note_on_c, 0, 44, 48
2, 105786, Note_on_c, 0, 60, 0
2, 105788, Note_on_c, 0, 56, 0
2, 105832, Note_on_c, 0, 56, 53
2, 105840, Note_on_c, 0, 60, 49
2, 105896, Note_on_c, 0, 68, 0
2, 105900, Note_on_c, 0, 63, 0
2, 105951, Note_on_c, 0, 63, 49
2, 105959, Note_on_c, 0, 68, 49
2, 106042, Note_on_c, 0, 72, 0
2, 106103, Note_on_c, 0, 72, 47
2, 106275, Note_on_c, 0, 84, 52
2, 106275, Note_on_c, 0, 96, 49
2, 106304, Note_on_c, 0, 92, 0
2, 106306, Note_on_c, 0, 80, 0
2, 106371, Note_on_c, 0, 44, 0
2, 106416, Note_on_c, 0, 44, 53
2, 106495, Note_on_c, 0, 51, 0
2, 106537, Note_on_c, 0, 51, 46
2, 106629, Note_on_c, 0, 60, 0
2, 106631, Note_on_c, 0, 56, 0
2, 106680, Note_on_c, 0, 60, 47
2, 106690, Note_on_c, 0, 56, 49
2, 106765, Note_on_c, 0, 68, 0
2, 106769, Note_on_c, 0, 63, 0
2, 106811, Note_on_c, 0, 68, 48
2, 106819, Note_on_c, 0, 63, 46
2, 106953, Note_on_c, 0, 72, 0
2, 107006, Note_on_c, 0, 72, 47
2, 107257, Note_on_c, 0, 99, 53
2, 107261, Note_on_c, 0, 87, 53
2, 107340, Note_on_c, 0, 96, 0
2, 107342, Note_on_c, 0, 84, 0
2, 107435, Control_c, 0, 64, 0
2, 107479, Note_on_c, 0, 32, 48
2, 107530, Note_on_c, 0, 68, 0
2, 107532, Note_on_c, 0, 63, 0
2, 107550, Note_on_c, 0, 99, 0
2, 107552, Note_on_c, 0, 87, 0
2, 107554, Note_on_c, 0, 56, 0
2, 107554, Note_on_c, 0, 60, 0
2, 107556, Note_on_c, 0, 51, 0
2, 107558, Note_on_c, 0, 44, 0
2, 107598, Note_on_c, 0, 72, 0
2, 107832, Control_c, 0, 64, 127
2, 108576, Note_on_c, 0, 72, 54
2, 108578, Note_on_c, 0, 56, 53
2, 108578, Note_on_c, 0, 63, 51
2, 108580, Note_on_c, 0, 44, 52
2, 108586, Note_on_c, 0, 60, 51
2, 108588, Note_on_c, 0, 51, 47
2, 109717, Note_on_c, 0, 51, 0
2, 109717, Note_on_c, 0, 63, 0
2, 109717, Note_on_c, 0, 56, 0
2, 109717, Note_on_c, 0, 60, 0
2, 109728, Note_on_c, 0, 44, 0
2, 109753, Control_c, 0, 64, 0
2, 109761, Note_on_c, 0, 60, 49
2, 109761, Note_on_c, 0, 63, 50
2, 109761, Note_on_c, 0, 68, 56
2, 109763, Note_on_c, 0, 51, 48
2, 109763, Note_on_c, 0, 56, 52
2, 109772, Note_on_c, 0, 44, 49
2, 109790, Note_on_c, 0, 32, 0
2, 109812, Note_on_c, 0, 72, 0
2, 109909, Control_c, 0, 64, 127
2, 111368, Control_c, 0, 67, 0
2, 112800, Note_on_c, 0, 51, 0
2, 112800, Note_on_c, 0, 60, 0
2, 112800, Note_on_c, 0, 68, 0
2, 112800, Note_on_c, 0, 44, 0
2, 112800, Note_on_c, 0, 56, 0
2, 112800, Note_on_c, 0, 63, 0
2, 113051, Control_c, 0, 64, 0
2, 113051, End_track
3, 0, Start_track
3, 0, Title_t, "c/b Mendelssohn-Liszt"
3, 0, End_track
4, 0, Start_track
4, 0, Title_t, "p/b Josef Lhevinne"
4, 0, End_track
5, 0, Start_track
5, 0, Title_t, "Ampico # 63515"
5, 0, End_track
6, 0, Start_track
6, 0, Title_t, "Scan of a player piano roll"
6, 0, End_track
7, 0, Start_track
7, 0, Title_t, "by Terry Smythe, Winnipeg, Canada"
7, 0, End_track
0, 0, End_of_file
