0, 0, Header, 1, 2, 192
1, 0, Start_track
1, 0, Title_t, "Lost Illusions - 66388D"
1, 0, Text_t, "Terry Smythe\012"
1, 0, Text_t, "Roll expression tracks converted to MIDI velocities\012"
1, 0, Text_t, "/music_category: Piano_Roll\012"
1, 0, Text_t, "/title: Lost Illusions\012"
1, 0, Text_t, "/subtitle: \012"
1, 0, Text_t, "/roll_type: Duo-Art\012"
1, 0, Text_t, "/roll_manufacturer: Aeolian\012"
1, 0, Text_t, "/roll_class: \012"
1, 0, Text_t, "/roll_number: 66388\012"
1, 0, Text_t, "/performer: Ballon, Ellen\012"
1, 0, Text_t, "/composer: Mendelssohn-Bartholdy\012"
1, 0, Text_t, "/lyricist: \012"
1, 0, Text_t, "/roll_tempo: \012"
1, 0, Text_t, "/song_type: \012"
1, 0, Text_t, "/key: \012"
1, 0, Text_t, "/meter: \012"
1, 0, Text_t, "/roll_copyright: \012"
1, 0, Text_t, "/roll_date: \012"
1, 0, Text_t, "/roll_city: \012"
1, 0, Text_t, "/scanned_by: Ross Chapman, Australia\012"
1, 0, Text_t, "/scan system: Stibbons Mk3a\012"
1, 0, Text_t, "/date_scanned: \012"
1, 0, Text_t, "/owner: Ross Chapman\012"
1, 0, Time_signature, 4, 2, 24, 8
1, 0, Key_signature, 0, "major"
1, 0, Tempo, 500000
1, 0, Marker_t, "Standard MIDI:Duo-Art:LPI 180:Tempo  70: 07-15-2004"
1, 0, End_track
2, 0, Start_track
2, 0, Title_t, "Lost Illusions"
2, 0, Program_c, 0, 0
2, 0, Control_c, 0, 7, 115
2, 717, Note_on_c, 0, 42, 43
2, 800, Note_on_c, 0, 42, 0
2, 808, Note_on_c, 0, 61, 43
2, 810, Note_on_c, 0, 54, 43
2, 836, Note_on_c, 0, 54, 0
2, 836, Note_on_c, 0, 61, 0
2, 878, Note_on_c, 0, 66, 43
2, 878, Note_on_c, 0, 57, 43
2, 903, Note_on_c, 0, 57, 0
2, 903, Note_on_c, 0, 66, 0
2, 932, Note_on_c, 0, 69, 53
2, 932, Note_on_c, 0, 61, 53
2, 958, Note_on_c, 0, 61, 0
2, 958, Note_on_c, 0, 69, 0
2, 986, Note_on_c, 0, 66, 53
2, 986, Note_on_c, 0, 57, 53
2, 1009, Note_on_c, 0, 66, 0
2, 1010, Note_on_c, 0, 57, 0
2, 1028, Note_on_c, 0, 61, 53
2, 1028, Note_on_c, 0, 54, 53
2, 1052, Note_on_c, 0, 54, 0
2, 1052, Note_on_c, 0, 61, 0
2, 1093, Note_on_c, 0, 62, 58
2, 1095, Note_on_c, 0, 54, 58
2, 1096, Note_on_c, 0, 47, 57
2, 1119, Note_on_c, 0, 54, 0
2, 1119, Note_on_c, 0, 62, 0
2, 1121, Note_on_c, 0, 47, 0
2, 1150, Note_on_c, 0, 66, 57
2, 1150, Note_on_c, 0, 59, 57
2, 1176, Note_on_c, 0, 59, 0
2, 1176, Note_on_c, 0, 66, 0
2, 1204, Note_on_c, 0, 71, 57
2, 1206, Note_on_c, 0, 62, 57
2, 1230, Note_on_c, 0, 62, 0
2, 1241, Note_on_c, 0, 71, 0
2, 1302, Note_on_c, 0, 71, 57
2, 1302, Note_on_c, 0, 74, 57
2, 1302, Note_on_c, 0, 66, 57
2, 1340, Control_c, 0, 64, 127
2, 1461, Note_on_c, 0, 74, 0
2, 1462, Note_on_c, 0, 66, 0
2, 1462, Note_on_c, 0, 71, 0
2, 1492, Control_c, 0, 64, 0
2, 1532, Note_on_c, 0, 40, 43
2, 1588, Note_on_c, 0, 40, 0
2, 1593, Note_on_c, 0, 59, 50
2, 1594, Note_on_c, 0, 52, 50
2, 1619, Note_on_c, 0, 52, 0
2, 1619, Note_on_c, 0, 59, 0
2, 1645, Note_on_c, 0, 64, 49
2, 1645, Note_on_c, 0, 56, 49
2, 1669, Note_on_c, 0, 64, 0
2, 1671, Note_on_c, 0, 56, 0
2, 1700, Note_on_c, 0, 68, 53
2, 1702, Note_on_c, 0, 62, 53
2, 1702, Note_on_c, 0, 59, 53
2, 1726, Note_on_c, 0, 59, 0
2, 1726, Note_on_c, 0, 62, 0
2, 1726, Note_on_c, 0, 68, 0
2, 1756, Note_on_c, 0, 64, 53
2, 1756, Note_on_c, 0, 56, 53
2, 1782, Note_on_c, 0, 64, 0
2, 1783, Note_on_c, 0, 56, 0
2, 1812, Note_on_c, 0, 59, 53
2, 1812, Note_on_c, 0, 52, 53
2, 1840, Note_on_c, 0, 52, 0
2, 1840, Note_on_c, 0, 59, 0
2, 1858, Note_on_c, 0, 45, 53
2, 1868, Note_on_c, 0, 61, 53
2, 1869, Note_on_c, 0, 52, 53
2, 1886, Note_on_c, 0, 45, 0
2, 1894, Note_on_c, 0, 61, 0
2, 1895, Note_on_c, 0, 52, 0
2, 1922, Note_on_c, 0, 64, 53
2, 1922, Note_on_c, 0, 57, 53
2, 1946, Note_on_c, 0, 57, 0
2, 1946, Note_on_c, 0, 64, 0
2, 1974, Note_on_c, 0, 69, 57
2, 1974, Note_on_c, 0, 61, 57
2, 1998, Note_on_c, 0, 69, 0
2, 2000, Note_on_c, 0, 61, 0
2, 2063, Note_on_c, 0, 69, 57
2, 2063, Note_on_c, 0, 73, 57
2, 2063, Note_on_c, 0, 64, 57
2, 2128, Control_c, 0, 64, 127
2, 2211, Note_on_c, 0, 64, 0
2, 2232, Note_on_c, 0, 73, 0
2, 2232, Note_on_c, 0, 69, 0
2, 2286, Note_on_c, 0, 38, 49
2, 2304, Control_c, 0, 64, 0
2, 2332, Note_on_c, 0, 38, 0
2, 2335, Note_on_c, 0, 57, 49
2, 2336, Note_on_c, 0, 50, 49
2, 2361, Note_on_c, 0, 57, 0
2, 2362, Note_on_c, 0, 50, 0
2, 2380, Note_on_c, 0, 62, 53
2, 2380, Note_on_c, 0, 54, 53
2, 2405, Note_on_c, 0, 62, 0
2, 2406, Note_on_c, 0, 54, 0
2, 2436, Note_on_c, 0, 66, 53
2, 2436, Note_on_c, 0, 57, 53
2, 2465, Note_on_c, 0, 57, 0
2, 2465, Note_on_c, 0, 66, 0
2, 2494, Note_on_c, 0, 62, 53
2, 2496, Note_on_c, 0, 54, 53
2, 2518, Note_on_c, 0, 62, 0
2, 2520, Note_on_c, 0, 54, 0
2, 2546, Note_on_c, 0, 57, 60
2, 2548, Note_on_c, 0, 50, 60
2, 2572, Note_on_c, 0, 50, 0
2, 2572, Note_on_c, 0, 57, 0
2, 2600, Note_on_c, 0, 59, 57
2, 2602, Note_on_c, 0, 47, 57
2, 2623, Note_on_c, 0, 59, 0
2, 2626, Note_on_c, 0, 47, 0
2, 2654, Note_on_c, 0, 62, 57
2, 2654, Note_on_c, 0, 54, 57
2, 2681, Note_on_c, 0, 62, 0
2, 2683, Note_on_c, 0, 54, 0
2, 2720, Note_on_c, 0, 66, 63
2, 2720, Note_on_c, 0, 59, 63
2, 2746, Note_on_c, 0, 66, 0
2, 2748, Note_on_c, 0, 59, 0
2, 2812, Note_on_c, 0, 66, 65
2, 2812, Note_on_c, 0, 71, 65
2, 2812, Note_on_c, 0, 62, 65
2, 2894, Control_c, 0, 64, 127
2, 2976, Note_on_c, 0, 62, 0
2, 2997, Note_on_c, 0, 71, 0
2, 2998, Note_on_c, 0, 66, 0
2, 3041, Note_on_c, 0, 47, 53
2, 3070, Note_on_c, 0, 47, 0
2, 3114, Note_on_c, 0, 62, 53
2, 3114, Note_on_c, 0, 54, 53
2, 3138, Note_on_c, 0, 62, 0
2, 3140, Note_on_c, 0, 54, 0
2, 3202, Note_on_c, 0, 66, 49
2, 3204, Note_on_c, 0, 59, 49
2, 3226, Note_on_c, 0, 66, 0
2, 3230, Note_on_c, 0, 59, 0
2, 3300, Control_c, 0, 64, 0
2, 3321, Note_on_c, 0, 68, 49
2, 3321, Note_on_c, 0, 66, 49
2, 3322, Note_on_c, 0, 62, 49
2, 3464, Control_c, 0, 64, 127
2, 3554, Note_on_c, 0, 62, 0
2, 3583, Control_c, 0, 64, 0
2, 3618, Note_on_c, 0, 68, 0
2, 3620, Note_on_c, 0, 66, 0
2, 3620, Note_on_c, 0, 37, 43
2, 3710, Control_c, 0, 64, 127
2, 3724, Note_on_c, 0, 59, 43
2, 3726, Note_on_c, 0, 49, 43
2, 3734, Note_on_c, 0, 37, 0
2, 3752, Note_on_c, 0, 59, 0
2, 3754, Note_on_c, 0, 49, 0
2, 3836, Note_on_c, 0, 61, 43
2, 3846, Note_on_c, 0, 56, 43
2, 3861, Note_on_c, 0, 61, 0
2, 3871, Note_on_c, 0, 56, 0
2, 3994, Note_on_c, 0, 65, 43
2, 3996, Note_on_c, 0, 59, 43
2, 4007, Note_on_c, 0, 61, 43
2, 4217, Note_on_c, 0, 59, 0
2, 4290, Note_on_c, 0, 61, 0
2, 4334, Note_on_c, 0, 65, 0
2, 4520, Control_c, 0, 64, 0
2, 4526, Note_on_c, 0, 69, 73
2, 4543, Note_on_c, 0, 42, 43
2, 4666, Control_c, 0, 64, 127
2, 4679, Note_on_c, 0, 61, 43
2, 4680, Note_on_c, 0, 54, 43
2, 4699, Note_on_c, 0, 42, 0
2, 4706, Note_on_c, 0, 61, 0
2, 4707, Note_on_c, 0, 54, 0
2, 4770, Note_on_c, 0, 66, 43
2, 4772, Note_on_c, 0, 57, 43
2, 4784, Note_on_c, 0, 69, 0
2, 4796, Note_on_c, 0, 57, 0
2, 4816, Note_on_c, 0, 66, 0
2, 4842, Note_on_c, 0, 69, 64
2, 4852, Note_on_c, 0, 61, 43
2, 4888, Note_on_c, 0, 61, 0
2, 4945, Note_on_c, 0, 71, 62
2, 4958, Note_on_c, 0, 57, 43
2, 4959, Note_on_c, 0, 69, 0
2, 4984, Note_on_c, 0, 57, 0
2, 5031, Note_on_c, 0, 73, 65
2, 5032, Note_on_c, 0, 61, 43
2, 5036, Note_on_c, 0, 54, 43
2, 5044, Note_on_c, 0, 71, 0
2, 5060, Note_on_c, 0, 61, 0
2, 5062, Note_on_c, 0, 54, 0
2, 5102, Control_c, 0, 64, 0
2, 5112, Note_on_c, 0, 73, 0
2, 5119, Note_on_c, 0, 74, 43
2, 5125, Note_on_c, 0, 47, 43
2, 5216, Note_on_c, 0, 62, 43
2, 5218, Note_on_c, 0, 54, 43
2, 5249, Control_c, 0, 64, 127
2, 5265, Note_on_c, 0, 54, 0
2, 5267, Note_on_c, 0, 47, 0
2, 5283, Note_on_c, 0, 62, 0
2, 5290, Note_on_c, 0, 66, 43
2, 5293, Note_on_c, 0, 59, 43
2, 5319, Note_on_c, 0, 66, 0
2, 5320, Note_on_c, 0, 59, 0
2, 5379, Note_on_c, 0, 71, 43
2, 5381, Note_on_c, 0, 66, 43
2, 5381, Note_on_c, 0, 62, 43
2, 5405, Note_on_c, 0, 62, 0
2, 5405, Note_on_c, 0, 66, 0
2, 5416, Note_on_c, 0, 71, 0
2, 5537, Note_on_c, 0, 73, 58
2, 5550, Note_on_c, 0, 74, 0
2, 5563, Note_on_c, 0, 73, 0
2, 5615, Note_on_c, 0, 73, 58
2, 5618, Control_c, 0, 64, 0
2, 5633, Note_on_c, 0, 40, 43
2, 5718, Note_on_c, 0, 62, 43
2, 5721, Note_on_c, 0, 52, 43
2, 5730, Note_on_c, 0, 73, 0
2, 5748, Control_c, 0, 64, 127
2, 5779, Note_on_c, 0, 71, 49
2, 5782, Note_on_c, 0, 56, 43
2, 5784, Note_on_c, 0, 62, 0
2, 5799, Note_on_c, 0, 40, 0
2, 5807, Note_on_c, 0, 56, 0
2, 5808, Note_on_c, 0, 52, 0
2, 5841, Note_on_c, 0, 69, 70
2, 5856, Note_on_c, 0, 71, 0
2, 5856, Note_on_c, 0, 62, 43
2, 5880, Note_on_c, 0, 62, 0
2, 5916, Note_on_c, 0, 64, 43
2, 5918, Note_on_c, 0, 56, 43
2, 5942, Note_on_c, 0, 64, 0
2, 5944, Note_on_c, 0, 56, 0
2, 5980, Note_on_c, 0, 71, 65
2, 5986, Note_on_c, 0, 69, 0
2, 5994, Note_on_c, 0, 62, 43
2, 5997, Note_on_c, 0, 52, 43
2, 6022, Note_on_c, 0, 62, 0
2, 6023, Note_on_c, 0, 52, 0
2, 6062, Control_c, 0, 64, 0
2, 6069, Note_on_c, 0, 73, 49
2, 6074, Note_on_c, 0, 45, 43
2, 6095, Note_on_c, 0, 71, 0
2, 6175, Note_on_c, 0, 61, 49
2, 6178, Note_on_c, 0, 52, 49
2, 6196, Control_c, 0, 64, 127
2, 6250, Note_on_c, 0, 45, 0
2, 6253, Note_on_c, 0, 57, 49
2, 6256, Note_on_c, 0, 61, 0
2, 6259, Note_on_c, 0, 52, 0
2, 6264, Note_on_c, 0, 64, 49
2, 6282, Note_on_c, 0, 57, 0
2, 6290, Note_on_c, 0, 64, 0
2, 6357, Note_on_c, 0, 61, 49
2, 6365, Note_on_c, 0, 69, 49
2, 6365, Note_on_c, 0, 64, 49
2, 6381, Note_on_c, 0, 61, 0
2, 6391, Note_on_c, 0, 64, 0
2, 6401, Note_on_c, 0, 69, 0
2, 6645, Note_on_c, 0, 66, 62
2, 6646, Control_c, 0, 64, 0
2, 6660, Note_on_c, 0, 38, 49
2, 6668, Note_on_c, 0, 73, 0
2, 6772, Note_on_c, 0, 57, 49
2, 6774, Note_on_c, 0, 50, 49
2, 6791, Control_c, 0, 64, 127
2, 6827, Note_on_c, 0, 57, 0
2, 6829, Note_on_c, 0, 50, 0
2, 6830, Note_on_c, 0, 38, 0
2, 6844, Note_on_c, 0, 62, 49
2, 6845, Note_on_c, 0, 66, 0
2, 6845, Note_on_c, 0, 54, 49
2, 6870, Note_on_c, 0, 54, 0
2, 6891, Note_on_c, 0, 62, 0
2, 6896, Note_on_c, 0, 66, 70
2, 6899, Note_on_c, 0, 57, 49
2, 6923, Note_on_c, 0, 57, 0
2, 6998, Note_on_c, 0, 68, 70
2, 7000, Note_on_c, 0, 54, 49
2, 7000, Note_on_c, 0, 62, 49
2, 7013, Note_on_c, 0, 66, 0
2, 7024, Note_on_c, 0, 62, 0
2, 7026, Note_on_c, 0, 54, 0
2, 7032, Note_on_c, 0, 68, 0
2, 7060, Note_on_c, 0, 69, 69
2, 7063, Note_on_c, 0, 57, 49
2, 7063, Note_on_c, 0, 50, 49
2, 7086, Note_on_c, 0, 57, 0
2, 7088, Note_on_c, 0, 50, 0
2, 7122, Note_on_c, 0, 73, 54
2, 7123, Control_c, 0, 64, 0
2, 7136, Note_on_c, 0, 69, 0
2, 7148, Note_on_c, 0, 47, 49
2, 7242, Note_on_c, 0, 62, 49
2, 7242, Note_on_c, 0, 54, 49
2, 7270, Control_c, 0, 64, 127
2, 7298, Note_on_c, 0, 62, 0
2, 7307, Note_on_c, 0, 66, 49
2, 7307, Note_on_c, 0, 59, 49
2, 7312, Note_on_c, 0, 54, 0
2, 7314, Note_on_c, 0, 47, 0
2, 7332, Note_on_c, 0, 59, 0
2, 7343, Note_on_c, 0, 66, 0
2, 7369, Note_on_c, 0, 71, 54
2, 7371, Note_on_c, 0, 66, 54
2, 7371, Note_on_c, 0, 62, 49
2, 7372, Note_on_c, 0, 73, 0
2, 7394, Note_on_c, 0, 66, 0
2, 7395, Note_on_c, 0, 62, 0
2, 7553, Note_on_c, 0, 69, 61
2, 7579, Note_on_c, 0, 71, 0
2, 7639, Note_on_c, 0, 73, 62
2, 7639, Control_c, 0, 64, 0
2, 7665, Note_on_c, 0, 69, 0
2, 7665, Note_on_c, 0, 47, 49
2, 7769, Note_on_c, 0, 62, 49
2, 7769, Note_on_c, 0, 54, 49
2, 7784, Control_c, 0, 64, 127
2, 7810, Note_on_c, 0, 73, 0
2, 7815, Note_on_c, 0, 47, 0
2, 7833, Note_on_c, 0, 62, 0
2, 7839, Note_on_c, 0, 71, 49
2, 7851, Note_on_c, 0, 66, 49
2, 7851, Note_on_c, 0, 56, 49
2, 7856, Note_on_c, 0, 54, 0
2, 7865, Note_on_c, 0, 71, 0
2, 7875, Note_on_c, 0, 66, 0
2, 7908, Note_on_c, 0, 71, 69
2, 7924, Note_on_c, 0, 56, 0
2, 7930, Note_on_c, 0, 66, 62
2, 7940, Note_on_c, 0, 69, 62
2, 7940, Control_c, 0, 64, 0
2, 7952, Note_on_c, 0, 62, 49
2, 7953, Note_on_c, 0, 71, 0
2, 8018, Control_c, 0, 64, 127
2, 8069, Note_on_c, 0, 66, 0
2, 8069, Note_on_c, 0, 62, 0
2, 8129, Note_on_c, 0, 68, 69
2, 8153, Note_on_c, 0, 69, 0
2, 8204, Note_on_c, 0, 66, 54
2, 8204, Control_c, 0, 64, 0
2, 8217, Note_on_c, 0, 68, 0
2, 8218, Note_on_c, 0, 37, 49
2, 8293, Note_on_c, 0, 59, 49
2, 8296, Note_on_c, 0, 49, 49
2, 8331, Control_c, 0, 64, 127
2, 8360, Note_on_c, 0, 59, 0
2, 8366, Note_on_c, 0, 61, 50
2, 8366, Note_on_c, 0, 56, 50
2, 8380, Note_on_c, 0, 49, 0
2, 8381, Note_on_c, 0, 37, 0
2, 8388, Note_on_c, 0, 61, 0
2, 8389, Note_on_c, 0, 56, 0
2, 8417, Control_c, 0, 64, 0
2, 8420, Note_on_c, 0, 66, 0
2, 8428, Note_on_c, 0, 65, 49
2, 8428, Note_on_c, 0, 59, 43
2, 8488, Control_c, 0, 64, 127
2, 8493, Note_on_c, 0, 61, 43
2, 8495, Note_on_c, 0, 56, 43
2, 8510, Note_on_c, 0, 59, 0
2, 8560, Note_on_c, 0, 59, 43
2, 8562, Note_on_c, 0, 49, 43
2, 8563, Note_on_c, 0, 61, 0
2, 8586, Note_on_c, 0, 56, 0
2, 8586, Note_on_c, 0, 49, 0
2, 8620, Note_on_c, 0, 69, 54
2, 8622, Control_c, 0, 64, 0
2, 8627, Note_on_c, 0, 59, 0
2, 8636, Note_on_c, 0, 65, 0
2, 8636, Note_on_c, 0, 42, 43
2, 8718, Note_on_c, 0, 61, 49
2, 8718, Note_on_c, 0, 54, 49
2, 8775, Control_c, 0, 64, 127
2, 8780, Note_on_c, 0, 66, 49
2, 8781, Note_on_c, 0, 57, 49
2, 8804, Note_on_c, 0, 69, 0
2, 8806, Note_on_c, 0, 57, 0
2, 8816, Note_on_c, 0, 61, 0
2, 8817, Note_on_c, 0, 54, 0
2, 8819, Note_on_c, 0, 42, 0
2, 8827, Note_on_c, 0, 66, 0
2, 8856, Note_on_c, 0, 69, 60
2, 8869, Note_on_c, 0, 61, 49
2, 8869, Note_on_c, 0, 57, 49
2, 8871, Note_on_c, 0, 54, 49
2, 8947, Note_on_c, 0, 57, 0
2, 8952, Note_on_c, 0, 71, 89
2, 8956, Note_on_c, 0, 61, 0
2, 8967, Note_on_c, 0, 54, 0
2, 8983, Note_on_c, 0, 69, 0
2, 9030, Note_on_c, 0, 73, 73
2, 9055, Note_on_c, 0, 71, 0
2, 9095, Control_c, 0, 64, 0
2, 9108, Note_on_c, 0, 73, 0
2, 9120, Note_on_c, 0, 47, 49
2, 9125, Note_on_c, 0, 74, 49
2, 9216, Note_on_c, 0, 62, 49
2, 9216, Note_on_c, 0, 54, 49
2, 9255, Control_c, 0, 64, 127
2, 9289, Note_on_c, 0, 66, 49
2, 9289, Note_on_c, 0, 59, 49
2, 9294, Note_on_c, 0, 62, 0
2, 9305, Note_on_c, 0, 54, 0
2, 9307, Note_on_c, 0, 47, 0
2, 9314, Note_on_c, 0, 59, 0
2, 9314, Note_on_c, 0, 66, 0
2, 9370, Note_on_c, 0, 71, 49
2, 9370, Note_on_c, 0, 66, 49
2, 9372, Note_on_c, 0, 59, 49
2, 9372, Note_on_c, 0, 62, 49
2, 9372, Note_on_c, 0, 54, 49
2, 9395, Note_on_c, 0, 62, 0
2, 9395, Note_on_c, 0, 66, 0
2, 9395, Note_on_c, 0, 71, 0
2, 9396, Note_on_c, 0, 54, 0
2, 9396, Note_on_c, 0, 59, 0
2, 9528, Note_on_c, 0, 74, 0
2, 9546, Note_on_c, 0, 73, 51
2, 9572, Note_on_c, 0, 73, 0
2, 9611, Control_c, 0, 64, 0
2, 9622, Note_on_c, 0, 73, 54
2, 9636, Note_on_c, 0, 44, 43
2, 9720, Note_on_c, 0, 73, 0
2, 9728, Note_on_c, 0, 71, 40
2, 9730, Note_on_c, 0, 62, 43
2, 9741, Note_on_c, 0, 52, 43
2, 9768, Control_c, 0, 64, 127
2, 9823, Note_on_c, 0, 52, 0
2, 9823, Note_on_c, 0, 44, 0
2, 9831, Note_on_c, 0, 71, 0
2, 9832, Note_on_c, 0, 62, 0
2, 9837, Note_on_c, 0, 74, 58
2, 9839, Note_on_c, 0, 59, 43
2, 9863, Note_on_c, 0, 59, 0
2, 9930, Control_c, 0, 64, 0
2, 9946, Note_on_c, 0, 78, 65
2, 9969, Note_on_c, 0, 64, 43
2, 9969, Note_on_c, 0, 62, 43
2, 9971, Note_on_c, 0, 59, 43
2, 9972, Note_on_c, 0, 52, 43
2, 9992, Note_on_c, 0, 74, 0
2, 10044, Control_c, 0, 64, 127
2, 10075, Note_on_c, 0, 64, 0
2, 10085, Note_on_c, 0, 62, 0
2, 10091, Note_on_c, 0, 74, 53
2, 10099, Note_on_c, 0, 59, 0
2, 10106, Note_on_c, 0, 78, 0
2, 10111, Note_on_c, 0, 52, 0
2, 10164, Note_on_c, 0, 71, 52
2, 10179, Note_on_c, 0, 74, 0
2, 10218, Control_c, 0, 64, 0
2, 10238, Note_on_c, 0, 73, 58
2, 10242, Note_on_c, 0, 45, 43
2, 10244, Note_on_c, 0, 71, 0
2, 10322, Note_on_c, 0, 61, 43
2, 10326, Note_on_c, 0, 52, 43
2, 10384, Control_c, 0, 64, 127
2, 10400, Note_on_c, 0, 57, 43
2, 10410, Note_on_c, 0, 64, 43
2, 10423, Note_on_c, 0, 61, 0
2, 10425, Note_on_c, 0, 57, 0
2, 10426, Note_on_c, 0, 45, 0
2, 10434, Note_on_c, 0, 64, 0
2, 10448, Note_on_c, 0, 52, 0
2, 10509, Note_on_c, 0, 61, 53
2, 10511, Note_on_c, 0, 57, 53
2, 10511, Note_on_c, 0, 52, 53
2, 10519, Note_on_c, 0, 69, 53
2, 10521, Note_on_c, 0, 64, 53
2, 10535, Note_on_c, 0, 57, 0
2, 10535, Note_on_c, 0, 61, 0
2, 10536, Note_on_c, 0, 52, 0
2, 10544, Note_on_c, 0, 69, 0
2, 10544, Note_on_c, 0, 64, 0
2, 10708, Note_on_c, 0, 66, 58
2, 10721, Note_on_c, 0, 73, 0
2, 10742, Control_c, 0, 64, 0
2, 10784, Note_on_c, 0, 69, 58
2, 10799, Note_on_c, 0, 66, 0
2, 10810, Note_on_c, 0, 42, 43
2, 10859, Note_on_c, 0, 61, 43
2, 10861, Note_on_c, 0, 54, 43
2, 10866, Control_c, 0, 64, 127
2, 10884, Note_on_c, 0, 61, 0
2, 10885, Note_on_c, 0, 54, 0
2, 10887, Note_on_c, 0, 42, 0
2, 10921, Control_c, 0, 64, 0
2, 10923, Note_on_c, 0, 57, 43
2, 10924, Note_on_c, 0, 69, 0
2, 10932, Note_on_c, 0, 68, 68
2, 10947, Note_on_c, 0, 57, 0
2, 10983, Note_on_c, 0, 66, 66
2, 10996, Note_on_c, 0, 68, 0
2, 10996, Note_on_c, 0, 47, 43
2, 11043, Control_c, 0, 64, 127
2, 11059, Note_on_c, 0, 62, 43
2, 11061, Note_on_c, 0, 54, 43
2, 11077, Note_on_c, 0, 47, 0
2, 11088, Note_on_c, 0, 54, 0
2, 11105, Control_c, 0, 64, 0
2, 11110, Note_on_c, 0, 62, 0
2, 11126, Note_on_c, 0, 74, 67
2, 11128, Note_on_c, 0, 59, 43
2, 11131, Note_on_c, 0, 66, 0
2, 11154, Note_on_c, 0, 59, 0
2, 11188, Note_on_c, 0, 68, 70
2, 11191, Note_on_c, 0, 74, 0
2, 11193, Note_on_c, 0, 41, 43
2, 11225, Control_c, 0, 64, 127
2, 11240, Note_on_c, 0, 59, 44
2, 11253, Note_on_c, 0, 49, 46
2, 11269, Note_on_c, 0, 41, 0
2, 11277, Note_on_c, 0, 59, 0
2, 11279, Note_on_c, 0, 49, 0
2, 11292, Control_c, 0, 64, 0
2, 11303, Note_on_c, 0, 61, 49
2, 11304, Note_on_c, 0, 56, 49
2, 11328, Note_on_c, 0, 56, 0
2, 11336, Note_on_c, 0, 68, 0
2, 11365, Note_on_c, 0, 69, 66
2, 11368, Note_on_c, 0, 42, 49
2, 11380, Note_on_c, 0, 61, 0
2, 11404, Control_c, 0, 64, 127
2, 11424, Note_on_c, 0, 49, 49
2, 11434, Note_on_c, 0, 57, 49
2, 11458, Note_on_c, 0, 69, 0
2, 11461, Note_on_c, 0, 49, 0
2, 11463, Note_on_c, 0, 42, 0
2, 11489, Control_c, 0, 64, 0
2, 11499, Note_on_c, 0, 61, 49
2, 11499, Note_on_c, 0, 66, 66
2, 11499, Note_on_c, 0, 54, 49
2, 11504, Note_on_c, 0, 57, 0
2, 11523, Note_on_c, 0, 61, 0
2, 11525, Note_on_c, 0, 54, 0
2, 11551, Note_on_c, 0, 69, 66
2, 11554, Note_on_c, 0, 42, 49
2, 11565, Note_on_c, 0, 66, 0
2, 11598, Control_c, 0, 64, 127
2, 11601, Note_on_c, 0, 61, 49
2, 11601, Note_on_c, 0, 54, 49
2, 11629, Note_on_c, 0, 54, 0
2, 11630, Note_on_c, 0, 42, 0
2, 11637, Note_on_c, 0, 61, 0
2, 11653, Control_c, 0, 64, 0
2, 11658, Note_on_c, 0, 69, 0
2, 11664, Note_on_c, 0, 68, 70
2, 11665, Note_on_c, 0, 57, 49
2, 11691, Note_on_c, 0, 57, 0
2, 11731, Note_on_c, 0, 66, 70
2, 11734, Note_on_c, 0, 47, 49
2, 11746, Note_on_c, 0, 68, 0
2, 11784, Control_c, 0, 64, 127
2, 11788, Note_on_c, 0, 62, 51
2, 11788, Note_on_c, 0, 54, 51
2, 11803, Note_on_c, 0, 66, 0
2, 11814, Note_on_c, 0, 54, 0
2, 11816, Note_on_c, 0, 47, 0
2, 11842, Note_on_c, 0, 59, 53
2, 11842, Control_c, 0, 64, 0
2, 11850, Note_on_c, 0, 74, 66
2, 11866, Note_on_c, 0, 59, 0
2, 11874, Note_on_c, 0, 62, 0
2, 11900, Note_on_c, 0, 68, 66
2, 11904, Note_on_c, 0, 74, 0
2, 11904, Note_on_c, 0, 41, 53
2, 11959, Control_c, 0, 64, 127
2, 11962, Note_on_c, 0, 59, 53
2, 11964, Note_on_c, 0, 49, 53
2, 12000, Note_on_c, 0, 49, 0
2, 12002, Note_on_c, 0, 41, 0
2, 12018, Note_on_c, 0, 61, 53
2, 12018, Note_on_c, 0, 56, 53
2, 12044, Note_on_c, 0, 68, 0
2, 12045, Note_on_c, 0, 59, 0
2, 12045, Note_on_c, 0, 56, 0
2, 12050, Control_c, 0, 64, 0
2, 12083, Note_on_c, 0, 69, 73
2, 12086, Note_on_c, 0, 42, 53
2, 12096, Note_on_c, 0, 61, 0
2, 12158, Note_on_c, 0, 57, 53
2, 12158, Note_on_c, 0, 49, 53
2, 12159, Note_on_c, 0, 69, 0
2, 12172, Control_c, 0, 64, 127
2, 12184, Note_on_c, 0, 49, 0
2, 12200, Note_on_c, 0, 57, 0
2, 12203, Note_on_c, 0, 42, 0
2, 12216, Note_on_c, 0, 66, 66
2, 12216, Note_on_c, 0, 61, 53
2, 12218, Note_on_c, 0, 54, 53
2, 12226, Control_c, 0, 64, 0
2, 12241, Note_on_c, 0, 54, 0
2, 12250, Note_on_c, 0, 61, 0
2, 12265, Note_on_c, 0, 69, 66
2, 12280, Note_on_c, 0, 42, 53
2, 12291, Note_on_c, 0, 66, 0
2, 12342, Note_on_c, 0, 61, 53
2, 12343, Note_on_c, 0, 54, 53
2, 12350, Control_c, 0, 64, 127
2, 12368, Note_on_c, 0, 61, 0
2, 12369, Note_on_c, 0, 54, 0
2, 12397, Note_on_c, 0, 42, 0
2, 12403, Note_on_c, 0, 69, 0
2, 12410, Note_on_c, 0, 68, 73
2, 12410, Note_on_c, 0, 57, 53
2, 12434, Note_on_c, 0, 57, 0
2, 12452, Control_c, 0, 64, 0
2, 12486, Note_on_c, 0, 68, 0
2, 12494, Note_on_c, 0, 66, 72
2, 12496, Note_on_c, 0, 42, 53
2, 12571, Control_c, 0, 64, 127
2, 12576, Note_on_c, 0, 64, 53
2, 12578, Note_on_c, 0, 54, 53
2, 12600, Note_on_c, 0, 64, 0
2, 12600, Note_on_c, 0, 66, 0
2, 12602, Note_on_c, 0, 54, 0
2, 12604, Note_on_c, 0, 42, 0
2, 12668, Note_on_c, 0, 78, 72
2, 12672, Note_on_c, 0, 58, 53
2, 12709, Note_on_c, 0, 58, 0
2, 12727, Note_on_c, 0, 78, 0
2, 12768, Control_c, 0, 64, 0
2, 12789, Note_on_c, 0, 78, 81
2, 12794, Note_on_c, 0, 47, 53
2, 12914, Note_on_c, 0, 54, 49
2, 12944, Control_c, 0, 64, 127
2, 12978, Note_on_c, 0, 54, 0
2, 12979, Note_on_c, 0, 47, 0
2, 13038, Note_on_c, 0, 59, 49
2, 13062, Note_on_c, 0, 59, 0
2, 13188, Control_c, 0, 64, 0
2, 13199, Note_on_c, 0, 68, 49
2, 13207, Note_on_c, 0, 66, 49
2, 13207, Note_on_c, 0, 62, 49
2, 13227, Note_on_c, 0, 78, 0
2, 13344, Control_c, 0, 64, 127
2, 13448, Note_on_c, 0, 68, 0
2, 13450, Note_on_c, 0, 62, 0
2, 13502, Note_on_c, 0, 66, 0
2, 13550, Note_on_c, 0, 68, 49
2, 13645, Control_c, 0, 64, 0
2, 13666, Note_on_c, 0, 73, 54
2, 13680, Note_on_c, 0, 65, 43
2, 13680, Note_on_c, 0, 61, 43
2, 13682, Note_on_c, 0, 37, 43
2, 13692, Note_on_c, 0, 49, 43
2, 13790, Control_c, 0, 64, 127
2, 13806, Note_on_c, 0, 53, 43
2, 13826, Note_on_c, 0, 65, 0
2, 13826, Note_on_c, 0, 68, 0
2, 13827, Note_on_c, 0, 61, 0
2, 13827, Note_on_c, 0, 53, 0
2, 13829, Note_on_c, 0, 49, 0
2, 13829, Note_on_c, 0, 37, 0
2, 13910, Note_on_c, 0, 73, 0
2, 13920, Note_on_c, 0, 61, 58
2, 13920, Note_on_c, 0, 56, 58
2, 13954, Note_on_c, 0, 56, 0
2, 14048, Note_on_c, 0, 64, 58
2, 14052, Note_on_c, 0, 61, 0
2, 14058, Control_c, 0, 64, 0
2, 14073, Note_on_c, 0, 64, 0
2, 14079, Note_on_c, 0, 59, 58
2, 14081, Note_on_c, 0, 56, 58
2, 14081, Note_on_c, 0, 62, 58
2, 14081, Note_on_c, 0, 53, 58
2, 14230, Control_c, 0, 64, 127
2, 14283, Note_on_c, 0, 56, 0
2, 14283, Note_on_c, 0, 59, 0
2, 14284, Note_on_c, 0, 53, 0
2, 14370, Note_on_c, 0, 62, 0
2, 14376, Note_on_c, 0, 61, 47
2, 14449, Control_c, 0, 64, 0
2, 14454, Note_on_c, 0, 61, 0
2, 14471, Note_on_c, 0, 66, 81
2, 14472, Note_on_c, 0, 42, 45
2, 14498, Note_on_c, 0, 42, 0
2, 14533, Note_on_c, 0, 57, 49
2, 14536, Note_on_c, 0, 49, 49
2, 14559, Note_on_c, 0, 57, 0
2, 14561, Note_on_c, 0, 49, 0
2, 14595, Note_on_c, 0, 61, 49
2, 14597, Note_on_c, 0, 54, 49
2, 14623, Note_on_c, 0, 61, 0
2, 14624, Note_on_c, 0, 54, 0
2, 14654, Note_on_c, 0, 69, 49
2, 14654, Note_on_c, 0, 57, 49
2, 14678, Note_on_c, 0, 57, 0
2, 14698, Note_on_c, 0, 69, 0
2, 14707, Note_on_c, 0, 61, 49
2, 14707, Note_on_c, 0, 54, 49
2, 14732, Note_on_c, 0, 61, 0
2, 14733, Note_on_c, 0, 54, 0
2, 14751, Note_on_c, 0, 49, 49
2, 14760, Note_on_c, 0, 57, 49
2, 14784, Note_on_c, 0, 57, 0
2, 14784, Note_on_c, 0, 49, 0
2, 14812, Note_on_c, 0, 59, 53
2, 14812, Note_on_c, 0, 50, 53
2, 14813, Note_on_c, 0, 47, 53
2, 14836, Note_on_c, 0, 50, 0
2, 14836, Note_on_c, 0, 59, 0
2, 14838, Note_on_c, 0, 47, 0
2, 14854, Note_on_c, 0, 62, 53
2, 14864, Note_on_c, 0, 54, 53
2, 14876, Note_on_c, 0, 62, 0
2, 14888, Note_on_c, 0, 54, 0
2, 14916, Note_on_c, 0, 59, 53
2, 14942, Note_on_c, 0, 59, 0
2, 14979, Note_on_c, 0, 71, 53
2, 14981, Note_on_c, 0, 62, 53
2, 15008, Note_on_c, 0, 62, 0
2, 15041, Note_on_c, 0, 71, 0
2, 15176, Note_on_c, 0, 42, 43
2, 15200, Note_on_c, 0, 42, 0
2, 15216, Note_on_c, 0, 57, 43
2, 15230, Note_on_c, 0, 49, 43
2, 15243, Note_on_c, 0, 57, 0
2, 15257, Note_on_c, 0, 49, 0
2, 15282, Note_on_c, 0, 61, 48
2, 15282, Note_on_c, 0, 54, 48
2, 15306, Note_on_c, 0, 61, 0
2, 15308, Note_on_c, 0, 54, 0
2, 15335, Note_on_c, 0, 69, 53
2, 15335, Note_on_c, 0, 57, 53
2, 15360, Note_on_c, 0, 57, 0
2, 15378, Note_on_c, 0, 61, 53
2, 15378, Note_on_c, 0, 54, 53
2, 15389, Note_on_c, 0, 69, 0
2, 15400, Note_on_c, 0, 61, 0
2, 15402, Note_on_c, 0, 54, 0
2, 15430, Note_on_c, 0, 57, 53
2, 15432, Note_on_c, 0, 49, 53
2, 15454, Note_on_c, 0, 57, 0
2, 15456, Note_on_c, 0, 49, 0
2, 15488, Note_on_c, 0, 60, 53
2, 15490, Note_on_c, 0, 51, 53
2, 15492, Note_on_c, 0, 42, 53
2, 15513, Note_on_c, 0, 60, 0
2, 15514, Note_on_c, 0, 51, 0
2, 15516, Note_on_c, 0, 42, 0
2, 15542, Note_on_c, 0, 63, 64
2, 15544, Note_on_c, 0, 54, 64
2, 15570, Note_on_c, 0, 63, 0
2, 15571, Note_on_c, 0, 54, 0
2, 15586, Note_on_c, 0, 69, 57
2, 15588, Note_on_c, 0, 60, 57
2, 15612, Note_on_c, 0, 69, 0
2, 15615, Note_on_c, 0, 60, 0
2, 15632, Note_on_c, 0, 63, 57
2, 15641, Note_on_c, 0, 72, 57
2, 15659, Control_c, 0, 64, 127
2, 15669, Note_on_c, 0, 63, 0
2, 15750, Note_on_c, 0, 72, 0
2, 15768, Control_c, 0, 64, 0
2, 15806, Note_on_c, 0, 44, 74
2, 15807, Note_on_c, 0, 32, 73
2, 15877, Note_on_c, 0, 59, 72
2, 15892, Control_c, 0, 64, 127
2, 15912, Note_on_c, 0, 59, 0
2, 15921, Note_on_c, 0, 66, 0
2, 15939, Note_on_c, 0, 62, 72
2, 15967, Note_on_c, 0, 62, 0
2, 16006, Note_on_c, 0, 71, 72
2, 16034, Note_on_c, 0, 32, 0
2, 16040, Note_on_c, 0, 71, 0
2, 16043, Note_on_c, 0, 44, 0
2, 16068, Note_on_c, 0, 62, 72
2, 16092, Note_on_c, 0, 62, 0
2, 16130, Note_on_c, 0, 59, 72
2, 16162, Control_c, 0, 64, 0
2, 16190, Note_on_c, 0, 59, 0
2, 16204, Control_c, 0, 67, 127
2, 16204, Note_on_c, 0, 64, 61
2, 16219, Note_on_c, 0, 44, 61
2, 16305, Note_on_c, 0, 59, 47
2, 16318, Note_on_c, 0, 50, 45
2, 16333, Note_on_c, 0, 44, 0
2, 16341, Note_on_c, 0, 59, 0
2, 16342, Note_on_c, 0, 50, 0
2, 16352, Control_c, 0, 64, 127
2, 16391, Note_on_c, 0, 62, 44
2, 16392, Note_on_c, 0, 52, 44
2, 16414, Note_on_c, 0, 62, 0
2, 16416, Note_on_c, 0, 52, 0
2, 16450, Note_on_c, 0, 62, 44
2, 16450, Note_on_c, 0, 59, 44
2, 16474, Note_on_c, 0, 59, 0
2, 16496, Note_on_c, 0, 62, 0
2, 16514, Note_on_c, 0, 66, 61
2, 16517, Note_on_c, 0, 64, 0
2, 16580, Note_on_c, 0, 64, 60
2, 16593, Note_on_c, 0, 66, 0
2, 16603, Note_on_c, 0, 64, 0
2, 16630, Note_on_c, 0, 64, 53
2, 16632, Control_c, 0, 67, 0
2, 16632, Note_on_c, 0, 42, 53
2, 16650, Control_c, 0, 64, 0
2, 16692, Note_on_c, 0, 57, 53
2, 16694, Note_on_c, 0, 50, 53
2, 16749, Note_on_c, 0, 50, 0
2, 16753, Note_on_c, 0, 62, 53
2, 16754, Note_on_c, 0, 52, 53
2, 16777, Note_on_c, 0, 62, 0
2, 16777, Note_on_c, 0, 57, 0
2, 16779, Control_c, 0, 64, 127
2, 16803, Note_on_c, 0, 62, 53
2, 16808, Note_on_c, 0, 52, 0
2, 16810, Note_on_c, 0, 42, 0
2, 16814, Note_on_c, 0, 57, 53
2, 16816, Note_on_c, 0, 64, 0
2, 16839, Note_on_c, 0, 57, 0
2, 16868, Note_on_c, 0, 63, 61
2, 16871, Note_on_c, 0, 62, 0
2, 16933, Note_on_c, 0, 64, 73
2, 16938, Note_on_c, 0, 63, 0
2, 16959, Note_on_c, 0, 64, 0
2, 16976, Control_c, 0, 64, 0
2, 16987, Note_on_c, 0, 64, 73
2, 17000, Note_on_c, 0, 40, 57
2, 17050, Note_on_c, 0, 56, 57
2, 17052, Note_on_c, 0, 50, 57
2, 17093, Note_on_c, 0, 64, 0
2, 17107, Note_on_c, 0, 50, 0
2, 17107, Control_c, 0, 64, 127
2, 17112, Note_on_c, 0, 62, 57
2, 17114, Note_on_c, 0, 52, 57
2, 17128, Note_on_c, 0, 56, 0
2, 17130, Note_on_c, 0, 40, 0
2, 17137, Note_on_c, 0, 62, 0
2, 17159, Note_on_c, 0, 52, 0
2, 17176, Note_on_c, 0, 62, 57
2, 17177, Note_on_c, 0, 59, 57
2, 17177, Note_on_c, 0, 56, 57
2, 17202, Note_on_c, 0, 56, 0
2, 17203, Note_on_c, 0, 59, 0
2, 17242, Note_on_c, 0, 66, 76
2, 17259, Note_on_c, 0, 62, 0
2, 17301, Note_on_c, 0, 66, 0
2, 17317, Note_on_c, 0, 64, 75
2, 17342, Note_on_c, 0, 64, 0
2, 17358, Control_c, 0, 64, 0
2, 17368, Note_on_c, 0, 73, 73
2, 17378, Note_on_c, 0, 64, 57
2, 17379, Note_on_c, 0, 61, 57
2, 17382, Note_on_c, 0, 45, 57
2, 17462, Note_on_c, 0, 57, 57
2, 17475, Note_on_c, 0, 61, 0
2, 17500, Control_c, 0, 64, 127
2, 17527, Note_on_c, 0, 61, 57
2, 17542, Note_on_c, 0, 64, 0
2, 17544, Note_on_c, 0, 45, 0
2, 17552, Note_on_c, 0, 61, 0
2, 17552, Note_on_c, 0, 57, 0
2, 17590, Note_on_c, 0, 67, 57
2, 17600, Note_on_c, 0, 64, 57
2, 17625, Note_on_c, 0, 64, 0
2, 17625, Note_on_c, 0, 67, 0
2, 17674, Note_on_c, 0, 71, 66
2, 17675, Note_on_c, 0, 61, 57
2, 17677, Note_on_c, 0, 73, 0
2, 17700, Note_on_c, 0, 61, 0
2, 17755, Note_on_c, 0, 73, 99
2, 17756, Note_on_c, 0, 57, 57
2, 17779, Note_on_c, 0, 71, 0
2, 17781, Note_on_c, 0, 57, 0
2, 17797, Control_c, 0, 64, 0
2, 17841, Note_on_c, 0, 74, 81
2, 17846, Note_on_c, 0, 73, 0
2, 17927, Control_c, 0, 64, 127
2, 17940, Note_on_c, 0, 69, 57
2, 17942, Note_on_c, 0, 66, 57
2, 17942, Note_on_c, 0, 57, 57
2, 17965, Note_on_c, 0, 57, 0
2, 17965, Note_on_c, 0, 66, 0
2, 17965, Note_on_c, 0, 69, 0
2, 18022, Note_on_c, 0, 66, 57
2, 18022, Note_on_c, 0, 69, 57
2, 18022, Note_on_c, 0, 57, 57
2, 18044, Note_on_c, 0, 69, 0
2, 18044, Note_on_c, 0, 66, 0
2, 18046, Note_on_c, 0, 57, 0
2, 18051, Control_c, 0, 64, 0
2, 18079, Note_on_c, 0, 73, 70
2, 18093, Note_on_c, 0, 74, 0
2, 18154, Note_on_c, 0, 69, 57
2, 18154, Note_on_c, 0, 64, 57
2, 18155, Note_on_c, 0, 57, 57
2, 18170, Control_c, 0, 64, 127
2, 18180, Note_on_c, 0, 64, 0
2, 18180, Note_on_c, 0, 69, 0
2, 18181, Note_on_c, 0, 57, 0
2, 18220, Note_on_c, 0, 69, 57
2, 18222, Note_on_c, 0, 57, 57
2, 18233, Note_on_c, 0, 64, 57
2, 18246, Note_on_c, 0, 57, 0
2, 18246, Note_on_c, 0, 69, 0
2, 18258, Note_on_c, 0, 64, 0
2, 18305, Note_on_c, 0, 71, 81
2, 18313, Control_c, 0, 64, 0
2, 18318, Note_on_c, 0, 73, 0
2, 18375, Note_on_c, 0, 66, 49
2, 18375, Note_on_c, 0, 63, 49
2, 18376, Note_on_c, 0, 57, 49
2, 18434, Note_on_c, 0, 66, 0
2, 18437, Control_c, 0, 64, 127
2, 18446, Note_on_c, 0, 57, 0
2, 18446, Note_on_c, 0, 63, 0
2, 18482, Note_on_c, 0, 66, 49
2, 18484, Note_on_c, 0, 63, 49
2, 18484, Note_on_c, 0, 57, 49
2, 18498, Note_on_c, 0, 71, 0
2, 18508, Note_on_c, 0, 66, 0
2, 18508, Note_on_c, 0, 63, 0
2, 18508, Note_on_c, 0, 57, 0
2, 18524, Note_on_c, 0, 68, 70
2, 18547, Note_on_c, 0, 71, 70
2, 18552, Note_on_c, 0, 68, 0
2, 18568, Note_on_c, 0, 69, 70
2, 18570, Control_c, 0, 64, 0
2, 18604, Note_on_c, 0, 71, 0
2, 18684, Note_on_c, 0, 65, 49
2, 18684, Note_on_c, 0, 62, 49
2, 18686, Note_on_c, 0, 57, 49
2, 18700, Control_c, 0, 64, 127
2, 18728, Note_on_c, 0, 62, 0
2, 18738, Note_on_c, 0, 65, 0
2, 18739, Note_on_c, 0, 57, 0
2, 18788, Note_on_c, 0, 65, 49
2, 18788, Note_on_c, 0, 62, 49
2, 18790, Note_on_c, 0, 57, 49
2, 18812, Note_on_c, 0, 62, 0
2, 18812, Note_on_c, 0, 65, 0
2, 18814, Note_on_c, 0, 57, 0
2, 18830, Note_on_c, 0, 68, 58
2, 18835, Note_on_c, 0, 69, 0
2, 18852, Control_c, 0, 64, 0
2, 18866, Note_on_c, 0, 68, 0
2, 18874, Note_on_c, 0, 69, 58
2, 18970, Note_on_c, 0, 61, 43
2, 18970, Note_on_c, 0, 57, 43
2, 18977, Control_c, 0, 64, 127
2, 18982, Note_on_c, 0, 64, 43
2, 18995, Note_on_c, 0, 57, 0
2, 18995, Note_on_c, 0, 61, 0
2, 19004, Note_on_c, 0, 64, 0
2, 19062, Note_on_c, 0, 61, 43
2, 19063, Note_on_c, 0, 57, 43
2, 19073, Note_on_c, 0, 64, 43
2, 19088, Note_on_c, 0, 57, 0
2, 19088, Note_on_c, 0, 61, 0
2, 19099, Note_on_c, 0, 64, 0
2, 19114, Control_c, 0, 64, 0
2, 19138, Note_on_c, 0, 67, 58
2, 19166, Note_on_c, 0, 69, 0
2, 19219, Note_on_c, 0, 61, 43
2, 19221, Note_on_c, 0, 57, 43
2, 19229, Note_on_c, 0, 64, 43
2, 19247, Control_c, 0, 64, 127
2, 19252, Note_on_c, 0, 64, 0
2, 19254, Note_on_c, 0, 57, 0
2, 19254, Note_on_c, 0, 61, 0
2, 19284, Note_on_c, 0, 67, 0
2, 19299, Note_on_c, 0, 61, 43
2, 19299, Note_on_c, 0, 64, 43
2, 19299, Note_on_c, 0, 57, 43
2, 19324, Note_on_c, 0, 57, 0
2, 19324, Note_on_c, 0, 61, 0
2, 19333, Note_on_c, 0, 64, 0
2, 19350, Control_c, 0, 64, 0
2, 19359, Note_on_c, 0, 67, 73
2, 19442, Note_on_c, 0, 61, 43
2, 19442, Note_on_c, 0, 64, 43
2, 19442, Note_on_c, 0, 58, 43
2, 19460, Control_c, 0, 64, 127
2, 19467, Note_on_c, 0, 64, 0
2, 19468, Note_on_c, 0, 58, 0
2, 19468, Note_on_c, 0, 61, 0
2, 19519, Note_on_c, 0, 61, 43
2, 19519, Note_on_c, 0, 64, 43
2, 19519, Note_on_c, 0, 58, 43
2, 19543, Note_on_c, 0, 58, 0
2, 19543, Note_on_c, 0, 64, 0
2, 19543, Note_on_c, 0, 61, 0
2, 19574, Note_on_c, 0, 67, 0
2, 19582, Note_on_c, 0, 66, 62
2, 19642, Note_on_c, 0, 64, 43
2, 19642, Note_on_c, 0, 61, 43
2, 19644, Note_on_c, 0, 58, 43
2, 19665, Note_on_c, 0, 58, 0
2, 19665, Note_on_c, 0, 61, 0
2, 19665, Note_on_c, 0, 64, 0
2, 19714, Note_on_c, 0, 64, 43
2, 19716, Note_on_c, 0, 61, 43
2, 19716, Note_on_c, 0, 58, 43
2, 19717, Note_on_c, 0, 66, 0
2, 19756, Control_c, 0, 64, 0
2, 19769, Note_on_c, 0, 66, 58
2, 19774, Note_on_c, 0, 64, 0
2, 19782, Note_on_c, 0, 40, 43
2, 19784, Note_on_c, 0, 61, 0
2, 19786, Note_on_c, 0, 58, 0
2, 19857, Note_on_c, 0, 58, 39
2, 19868, Note_on_c, 0, 52, 41
2, 19893, Note_on_c, 0, 52, 0
2, 19904, Control_c, 0, 64, 127
2, 19927, Note_on_c, 0, 40, 0
2, 19930, Note_on_c, 0, 61, 53
2, 19932, Note_on_c, 0, 54, 53
2, 19945, Note_on_c, 0, 58, 0
2, 19955, Note_on_c, 0, 54, 0
2, 19955, Note_on_c, 0, 61, 0
2, 19984, Note_on_c, 0, 66, 0
2, 19990, Note_on_c, 0, 61, 53
2, 19992, Note_on_c, 0, 58, 53
2, 19992, Note_on_c, 0, 54, 53
2, 20013, Note_on_c, 0, 54, 0
2, 20015, Note_on_c, 0, 58, 0
2, 20022, Note_on_c, 0, 61, 0
2, 20051, Note_on_c, 0, 67, 58
2, 20104, Note_on_c, 0, 66, 57
2, 20111, Note_on_c, 0, 67, 0
2, 20134, Note_on_c, 0, 66, 0
2, 20150, Control_c, 0, 64, 0
2, 20173, Note_on_c, 0, 66, 73
2, 20178, Note_on_c, 0, 38, 53
2, 20248, Note_on_c, 0, 59, 53
2, 20248, Note_on_c, 0, 50, 53
2, 20304, Control_c, 0, 64, 127
2, 20308, Note_on_c, 0, 62, 53
2, 20308, Note_on_c, 0, 54, 53
2, 20332, Note_on_c, 0, 54, 0
2, 20332, Note_on_c, 0, 62, 0
2, 20334, Note_on_c, 0, 59, 0
2, 20345, Note_on_c, 0, 50, 0
2, 20345, Note_on_c, 0, 38, 0
2, 20368, Note_on_c, 0, 62, 59
2, 20370, Note_on_c, 0, 54, 59
2, 20380, Note_on_c, 0, 59, 57
2, 20381, Note_on_c, 0, 66, 0
2, 20404, Note_on_c, 0, 59, 0
2, 20404, Note_on_c, 0, 54, 0
2, 20432, Note_on_c, 0, 65, 76
2, 20458, Note_on_c, 0, 62, 0
2, 20497, Note_on_c, 0, 66, 76
2, 20500, Note_on_c, 0, 65, 0
2, 20521, Note_on_c, 0, 66, 0
2, 20540, Control_c, 0, 64, 0
2, 20562, Note_on_c, 0, 66, 86
2, 20563, Note_on_c, 0, 46, 57
2, 20575, Note_on_c, 0, 34, 57
2, 20628, Note_on_c, 0, 61, 57
2, 20640, Note_on_c, 0, 52, 57
2, 20656, Control_c, 0, 64, 127
2, 20685, Note_on_c, 0, 66, 0
2, 20698, Note_on_c, 0, 46, 0
2, 20700, Note_on_c, 0, 34, 0
2, 20710, Note_on_c, 0, 52, 0
2, 20713, Note_on_c, 0, 64, 57
2, 20715, Note_on_c, 0, 54, 57
2, 20728, Note_on_c, 0, 61, 0
2, 20738, Note_on_c, 0, 64, 0
2, 20739, Note_on_c, 0, 54, 0
2, 20776, Note_on_c, 0, 64, 57
2, 20776, Note_on_c, 0, 61, 57
2, 20778, Note_on_c, 0, 54, 57
2, 20804, Note_on_c, 0, 61, 0
2, 20816, Note_on_c, 0, 54, 0
2, 20834, Note_on_c, 0, 64, 0
2, 20851, Note_on_c, 0, 67, 76
2, 20928, Note_on_c, 0, 67, 0
2, 20933, Note_on_c, 0, 66, 75
2, 20956, Note_on_c, 0, 66, 0
2, 20980, Control_c, 0, 64, 0
2, 21000, Note_on_c, 0, 74, 100
2, 21001, Note_on_c, 0, 66, 100
2, 21003, Note_on_c, 0, 62, 57
2, 21006, Note_on_c, 0, 47, 57
2, 21008, Note_on_c, 0, 35, 57
2, 21100, Note_on_c, 0, 54, 57
2, 21105, Control_c, 0, 64, 127
2, 21136, Note_on_c, 0, 54, 0
2, 21144, Note_on_c, 0, 66, 0
2, 21144, Note_on_c, 0, 62, 0
2, 21148, Note_on_c, 0, 47, 0
2, 21149, Note_on_c, 0, 35, 0
2, 21185, Note_on_c, 0, 59, 61
2, 21208, Note_on_c, 0, 59, 0
2, 21276, Note_on_c, 0, 59, 61
2, 21276, Note_on_c, 0, 62, 61
2, 21276, Note_on_c, 0, 54, 61
2, 21299, Note_on_c, 0, 54, 0
2, 21299, Note_on_c, 0, 62, 0
2, 21299, Note_on_c, 0, 59, 0
2, 21336, Note_on_c, 0, 74, 0
2, 21340, Note_on_c, 0, 73, 70
2, 21450, Note_on_c, 0, 74, 85
2, 21455, Note_on_c, 0, 73, 0
2, 21525, Control_c, 0, 64, 0
2, 21543, Note_on_c, 0, 78, 76
2, 21556, Note_on_c, 0, 74, 0
2, 21636, Note_on_c, 0, 71, 61
2, 21637, Note_on_c, 0, 59, 61
2, 21649, Note_on_c, 0, 62, 67
2, 21662, Note_on_c, 0, 71, 0
2, 21663, Note_on_c, 0, 59, 0
2, 21672, Note_on_c, 0, 62, 0
2, 21710, Note_on_c, 0, 71, 57
2, 21712, Note_on_c, 0, 62, 57
2, 21714, Note_on_c, 0, 59, 57
2, 21736, Note_on_c, 0, 59, 0
2, 21736, Note_on_c, 0, 62, 0
2, 21754, Note_on_c, 0, 78, 0
2, 21776, Note_on_c, 0, 76, 66
2, 21792, Note_on_c, 0, 71, 0
2, 21852, Note_on_c, 0, 70, 53
2, 21852, Note_on_c, 0, 67, 53
2, 21854, Note_on_c, 0, 59, 53
2, 21865, Note_on_c, 0, 67, 0
2, 21865, Note_on_c, 0, 70, 0
2, 21867, Note_on_c, 0, 59, 0
2, 21906, Note_on_c, 0, 67, 49
2, 21906, Note_on_c, 0, 70, 49
2, 21906, Note_on_c, 0, 59, 49
2, 21927, Note_on_c, 0, 67, 0
2, 21928, Note_on_c, 0, 59, 0
2, 21936, Note_on_c, 0, 70, 0
2, 21956, Note_on_c, 0, 76, 0
2, 21963, Note_on_c, 0, 74, 62
2, 22018, Note_on_c, 0, 66, 49
2, 22020, Note_on_c, 0, 59, 49
2, 22029, Note_on_c, 0, 71, 49
2, 22044, Note_on_c, 0, 66, 0
2, 22046, Note_on_c, 0, 59, 0
2, 22055, Note_on_c, 0, 71, 0
2, 22093, Note_on_c, 0, 71, 49
2, 22093, Note_on_c, 0, 66, 49
2, 22094, Note_on_c, 0, 59, 49
2, 22117, Note_on_c, 0, 66, 0
2, 22117, Note_on_c, 0, 71, 0
2, 22119, Note_on_c, 0, 59, 0
2, 22143, Note_on_c, 0, 73, 66
2, 22148, Note_on_c, 0, 74, 0
2, 22216, Note_on_c, 0, 70, 49
2, 22216, Note_on_c, 0, 67, 49
2, 22218, Note_on_c, 0, 64, 49
2, 22241, Note_on_c, 0, 64, 0
2, 22241, Note_on_c, 0, 67, 0
2, 22249, Note_on_c, 0, 70, 0
2, 22285, Note_on_c, 0, 70, 49
2, 22286, Note_on_c, 0, 67, 49
2, 22286, Note_on_c, 0, 64, 49
2, 22311, Note_on_c, 0, 64, 0
2, 22358, Note_on_c, 0, 71, 73
2, 22361, Note_on_c, 0, 70, 0
2, 22384, Note_on_c, 0, 73, 0
2, 22386, Note_on_c, 0, 67, 0
2, 22456, Note_on_c, 0, 66, 49
2, 22457, Note_on_c, 0, 62, 49
2, 22482, Note_on_c, 0, 62, 0
2, 22501, Note_on_c, 0, 66, 0
2, 22550, Note_on_c, 0, 66, 49
2, 22552, Note_on_c, 0, 62, 49
2, 22584, Note_on_c, 0, 62, 0
2, 22596, Note_on_c, 0, 66, 0
2, 22628, Note_on_c, 0, 69, 66
2, 22643, Note_on_c, 0, 71, 0
2, 22724, Note_on_c, 0, 66, 49
2, 22724, Note_on_c, 0, 62, 49
2, 22752, Note_on_c, 0, 62, 0
2, 22804, Note_on_c, 0, 66, 0
2, 22840, Note_on_c, 0, 71, 72
2, 22840, Note_on_c, 0, 66, 72
2, 22841, Note_on_c, 0, 62, 49
2, 22853, Note_on_c, 0, 69, 0
2, 22884, Note_on_c, 0, 62, 0
2, 22884, Note_on_c, 0, 66, 0
2, 22931, Note_on_c, 0, 69, 81
2, 22957, Note_on_c, 0, 71, 0
2, 23038, Note_on_c, 0, 66, 49
2, 23038, Note_on_c, 0, 60, 49
2, 23040, Note_on_c, 0, 63, 49
2, 23097, Note_on_c, 0, 60, 0
2, 23097, Note_on_c, 0, 66, 0
2, 23108, Note_on_c, 0, 63, 0
2, 23157, Note_on_c, 0, 66, 49
2, 23158, Note_on_c, 0, 63, 49
2, 23158, Note_on_c, 0, 60, 49
2, 23202, Note_on_c, 0, 66, 0
2, 23238, Note_on_c, 0, 68, 58
2, 23242, Note_on_c, 0, 69, 0
2, 23242, Note_on_c, 0, 63, 0
2, 23243, Note_on_c, 0, 60, 0
2, 23347, Note_on_c, 0, 66, 43
2, 23349, Note_on_c, 0, 60, 43
2, 23354, Control_c, 0, 64, 127
2, 23357, Note_on_c, 0, 63, 43
2, 23373, Note_on_c, 0, 60, 0
2, 23383, Note_on_c, 0, 63, 0
2, 23393, Note_on_c, 0, 66, 0
2, 23464, Note_on_c, 0, 66, 43
2, 23464, Note_on_c, 0, 63, 43
2, 23466, Note_on_c, 0, 60, 43
2, 23468, Note_on_c, 0, 68, 0
2, 23533, Control_c, 0, 64, 0
2, 23534, Note_on_c, 0, 68, 66
2, 23539, Note_on_c, 0, 60, 0
2, 23548, Note_on_c, 0, 66, 0
2, 23557, Note_on_c, 0, 44, 64
2, 23559, Note_on_c, 0, 63, 0
2, 23655, Control_c, 0, 64, 127
2, 23670, Note_on_c, 0, 60, 45
2, 23670, Note_on_c, 0, 51, 45
2, 23696, Note_on_c, 0, 60, 0
2, 23697, Note_on_c, 0, 51, 0
2, 23710, Note_on_c, 0, 44, 0
2, 23766, Note_on_c, 0, 63, 43
2, 23767, Note_on_c, 0, 56, 43
2, 23790, Note_on_c, 0, 56, 0
2, 23790, Note_on_c, 0, 63, 0
2, 23878, Note_on_c, 0, 63, 48
2, 23878, Note_on_c, 0, 66, 48
2, 23878, Note_on_c, 0, 60, 48
2, 23889, Note_on_c, 0, 56, 51
2, 23889, Note_on_c, 0, 51, 51
2, 23904, Note_on_c, 0, 60, 0
2, 23914, Note_on_c, 0, 56, 0
2, 23914, Note_on_c, 0, 51, 0
2, 23974, Note_on_c, 0, 63, 0
2, 23988, Note_on_c, 0, 69, 58
2, 23993, Note_on_c, 0, 66, 0
2, 23993, Note_on_c, 0, 68, 0
2, 24099, Note_on_c, 0, 69, 0
2, 24117, Note_on_c, 0, 68, 89
2, 24188, Control_c, 0, 64, 0
2, 24216, Note_on_c, 0, 77, 73
2, 24229, Note_on_c, 0, 49, 61
2, 24232, Note_on_c, 0, 68, 0
2, 24232, Note_on_c, 0, 37, 61
2, 24307, Control_c, 0, 64, 127
2, 24324, Note_on_c, 0, 65, 48
2, 24324, Note_on_c, 0, 56, 48
2, 24340, Note_on_c, 0, 49, 0
2, 24346, Note_on_c, 0, 65, 0
2, 24346, Note_on_c, 0, 56, 0
2, 24350, Note_on_c, 0, 37, 0
2, 24386, Note_on_c, 0, 68, 52
2, 24386, Note_on_c, 0, 61, 52
2, 24410, Note_on_c, 0, 61, 0
2, 24410, Note_on_c, 0, 68, 0
2, 24416, Control_c, 0, 64, 0
2, 24436, Note_on_c, 0, 73, 57
2, 24450, Note_on_c, 0, 65, 49
2, 24462, Note_on_c, 0, 77, 0
2, 24473, Note_on_c, 0, 65, 0
2, 24502, Note_on_c, 0, 68, 49
2, 24502, Note_on_c, 0, 61, 49
2, 24525, Note_on_c, 0, 61, 0
2, 24525, Note_on_c, 0, 68, 0
2, 24551, Note_on_c, 0, 65, 53
2, 24552, Note_on_c, 0, 56, 53
2, 24576, Note_on_c, 0, 56, 0
2, 24576, Note_on_c, 0, 65, 0
2, 24600, Note_on_c, 0, 72, 70
2, 24604, Note_on_c, 0, 44, 53
2, 24605, Note_on_c, 0, 73, 0
2, 24639, Control_c, 0, 64, 127
2, 24667, Note_on_c, 0, 66, 53
2, 24668, Note_on_c, 0, 56, 53
2, 24674, Note_on_c, 0, 44, 0
2, 24693, Note_on_c, 0, 56, 0
2, 24693, Note_on_c, 0, 66, 0
2, 24742, Note_on_c, 0, 68, 53
2, 24742, Note_on_c, 0, 63, 53
2, 24766, Note_on_c, 0, 63, 0
2, 24784, Note_on_c, 0, 72, 0
2, 24786, Note_on_c, 0, 68, 0
2, 24812, Note_on_c, 0, 68, 53
2, 24812, Note_on_c, 0, 72, 53
2, 24812, Note_on_c, 0, 66, 53
2, 24813, Note_on_c, 0, 63, 53
2, 24830, Note_on_c, 0, 78, 73
2, 24843, Note_on_c, 0, 72, 0
2, 24844, Note_on_c, 0, 68, 0
2, 24844, Note_on_c, 0, 66, 0
2, 24856, Note_on_c, 0, 63, 0
2, 25033, Note_on_c, 0, 78, 0
2, 25041, Note_on_c, 0, 77, 73
2, 25043, Control_c, 0, 64, 0
2, 25056, Note_on_c, 0, 49, 53
2, 25147, Note_on_c, 0, 65, 53
2, 25155, Note_on_c, 0, 56, 53
2, 25188, Note_on_c, 0, 65, 0
2, 25192, Control_c, 0, 64, 127
2, 25215, Note_on_c, 0, 68, 53
2, 25217, Note_on_c, 0, 61, 53
2, 25223, Note_on_c, 0, 49, 0
2, 25233, Note_on_c, 0, 56, 0
2, 25241, Note_on_c, 0, 68, 0
2, 25241, Note_on_c, 0, 61, 0
2, 25272, Note_on_c, 0, 77, 0
2, 25276, Note_on_c, 0, 73, 38
2, 25277, Note_on_c, 0, 65, 38
2, 25302, Note_on_c, 0, 65, 0
2, 25350, Note_on_c, 0, 68, 53
2, 25352, Note_on_c, 0, 61, 53
2, 25376, Note_on_c, 0, 61, 0
2, 25386, Note_on_c, 0, 68, 0
2, 25415, Note_on_c, 0, 56, 49
2, 25425, Note_on_c, 0, 65, 49
2, 25440, Note_on_c, 0, 56, 0
2, 25487, Note_on_c, 0, 65, 0
2, 25487, Note_on_c, 0, 48, 49
2, 25490, Note_on_c, 0, 68, 62
2, 25502, Control_c, 0, 64, 0
2, 25505, Note_on_c, 0, 73, 0
2, 25586, Note_on_c, 0, 63, 49
2, 25598, Note_on_c, 0, 56, 49
2, 25625, Control_c, 0, 64, 127
2, 25634, Note_on_c, 0, 63, 0
2, 25668, Note_on_c, 0, 48, 0
2, 25672, Note_on_c, 0, 66, 49
2, 25672, Note_on_c, 0, 63, 49
2, 25677, Note_on_c, 0, 56, 0
2, 25697, Note_on_c, 0, 63, 0
2, 25697, Note_on_c, 0, 66, 0
2, 25754, Note_on_c, 0, 66, 49
2, 25756, Note_on_c, 0, 63, 49
2, 25756, Note_on_c, 0, 56, 49
2, 25778, Note_on_c, 0, 56, 0
2, 25778, Note_on_c, 0, 63, 0
2, 25809, Note_on_c, 0, 66, 0
2, 25830, Note_on_c, 0, 68, 0
2, 25837, Note_on_c, 0, 69, 49
2, 25913, Note_on_c, 0, 69, 0
2, 25920, Note_on_c, 0, 68, 80
2, 26024, Note_on_c, 0, 77, 73
2, 26045, Control_c, 0, 64, 0
2, 26048, Note_on_c, 0, 49, 49
2, 26050, Note_on_c, 0, 68, 0
2, 26149, Note_on_c, 0, 65, 49
2, 26151, Note_on_c, 0, 56, 49
2, 26177, Control_c, 0, 64, 127
2, 26208, Note_on_c, 0, 68, 49
2, 26210, Note_on_c, 0, 61, 49
2, 26224, Note_on_c, 0, 65, 0
2, 26232, Note_on_c, 0, 68, 0
2, 26236, Note_on_c, 0, 49, 0
2, 26245, Note_on_c, 0, 56, 0
2, 26256, Note_on_c, 0, 61, 0
2, 26271, Note_on_c, 0, 73, 62
2, 26273, Note_on_c, 0, 65, 62
2, 26299, Note_on_c, 0, 65, 0
2, 26307, Note_on_c, 0, 77, 0
2, 26328, Note_on_c, 0, 61, 49
2, 26336, Note_on_c, 0, 68, 49
2, 26353, Note_on_c, 0, 61, 0
2, 26374, Note_on_c, 0, 68, 0
2, 26402, Note_on_c, 0, 65, 49
2, 26402, Note_on_c, 0, 56, 49
2, 26424, Note_on_c, 0, 56, 0
2, 26436, Note_on_c, 0, 65, 0
2, 26440, Control_c, 0, 64, 0
2, 26450, Note_on_c, 0, 72, 58
2, 26454, Note_on_c, 0, 51, 49
2, 26466, Note_on_c, 0, 73, 0
2, 26524, Note_on_c, 0, 66, 53
2, 26525, Note_on_c, 0, 56, 53
2, 26571, Note_on_c, 0, 56, 0
2, 26571, Note_on_c, 0, 66, 0
2, 26587, Note_on_c, 0, 68, 53
2, 26595, Control_c, 0, 64, 127
2, 26610, Note_on_c, 0, 60, 53
2, 26626, Note_on_c, 0, 51, 0
2, 26673, Note_on_c, 0, 72, 0
2, 26684, Note_on_c, 0, 68, 0
2, 26698, Note_on_c, 0, 78, 73
2, 26701, Note_on_c, 0, 72, 73
2, 26704, Note_on_c, 0, 60, 0
2, 26710, Note_on_c, 0, 68, 53
2, 26710, Note_on_c, 0, 66, 53
2, 26754, Note_on_c, 0, 66, 0
2, 26821, Note_on_c, 0, 68, 0
2, 27028, Control_c, 0, 64, 0
2, 27038, Note_on_c, 0, 80, 49
2, 27039, Note_on_c, 0, 71, 49
2, 27041, Note_on_c, 0, 53, 49
2, 27042, Note_on_c, 0, 72, 0
2, 27042, Note_on_c, 0, 41, 49
2, 27049, Note_on_c, 0, 78, 0
2, 27168, Control_c, 0, 64, 127
2, 27220, Note_on_c, 0, 41, 0
2, 27228, Note_on_c, 0, 71, 0
2, 27230, Note_on_c, 0, 53, 0
2, 27236, Note_on_c, 0, 56, 43
2, 27272, Note_on_c, 0, 56, 0
2, 27362, Note_on_c, 0, 61, 43
2, 27386, Note_on_c, 0, 61, 0
2, 27496, Note_on_c, 0, 80, 0
2, 27505, Note_on_c, 0, 71, 38
2, 27505, Note_on_c, 0, 68, 38
2, 27706, Note_on_c, 0, 68, 0
2, 27990, Note_on_c, 0, 71, 0
2, 27996, Control_c, 0, 64, 0
2, 28016, Note_on_c, 0, 69, 38
2, 28019, Note_on_c, 0, 42, 43
2, 28027, Note_on_c, 0, 66, 43
2, 28160, Control_c, 0, 64, 127
2, 28190, Note_on_c, 0, 66, 0
2, 28193, Note_on_c, 0, 42, 0
2, 28199, Note_on_c, 0, 61, 43
2, 28200, Note_on_c, 0, 54, 43
2, 28224, Note_on_c, 0, 61, 0
2, 28226, Note_on_c, 0, 54, 0
2, 28284, Note_on_c, 0, 57, 43
2, 28295, Note_on_c, 0, 66, 43
2, 28308, Note_on_c, 0, 57, 0
2, 28318, Note_on_c, 0, 69, 0
2, 28328, Note_on_c, 0, 66, 0
2, 28374, Note_on_c, 0, 69, 49
2, 28385, Note_on_c, 0, 66, 43
2, 28386, Note_on_c, 0, 61, 43
2, 28429, Note_on_c, 0, 61, 0
2, 28429, Note_on_c, 0, 66, 0
2, 28470, Note_on_c, 0, 69, 0
2, 28474, Note_on_c, 0, 68, 54
2, 28474, Note_on_c, 0, 71, 54
2, 28474, Note_on_c, 0, 66, 54
2, 28486, Note_on_c, 0, 57, 43
2, 28510, Note_on_c, 0, 57, 0
2, 28510, Note_on_c, 0, 68, 0
2, 28510, Note_on_c, 0, 71, 0
2, 28510, Note_on_c, 0, 66, 0
2, 28548, Note_on_c, 0, 73, 69
2, 28559, Note_on_c, 0, 69, 50
2, 28560, Note_on_c, 0, 61, 50
2, 28561, Note_on_c, 0, 54, 49
2, 28584, Note_on_c, 0, 54, 0
2, 28584, Note_on_c, 0, 61, 0
2, 28610, Control_c, 0, 64, 0
2, 28614, Note_on_c, 0, 73, 0
2, 28632, Note_on_c, 0, 74, 62
2, 28632, Note_on_c, 0, 71, 62
2, 28634, Note_on_c, 0, 47, 49
2, 28645, Note_on_c, 0, 69, 0
2, 28752, Note_on_c, 0, 62, 49
2, 28752, Note_on_c, 0, 54, 49
2, 28756, Control_c, 0, 64, 127
2, 28785, Note_on_c, 0, 71, 0
2, 28819, Note_on_c, 0, 47, 0
2, 28834, Note_on_c, 0, 66, 49
2, 28834, Note_on_c, 0, 59, 49
2, 28849, Note_on_c, 0, 62, 0
2, 28862, Note_on_c, 0, 54, 0
2, 28892, Note_on_c, 0, 66, 0
2, 28894, Note_on_c, 0, 59, 0
2, 28930, Note_on_c, 0, 71, 49
2, 28930, Note_on_c, 0, 62, 49
2, 28954, Note_on_c, 0, 71, 0
2, 28956, Note_on_c, 0, 62, 0
2, 29102, Note_on_c, 0, 73, 46
2, 29106, Note_on_c, 0, 74, 0
2, 29114, Note_on_c, 0, 69, 49
2, 29137, Note_on_c, 0, 73, 0
2, 29138, Note_on_c, 0, 69, 0
2, 29166, Control_c, 0, 64, 0
2, 29190, Note_on_c, 0, 73, 54
2, 29202, Note_on_c, 0, 69, 49
2, 29215, Note_on_c, 0, 40, 49
2, 29276, Control_c, 0, 64, 127
2, 29280, Note_on_c, 0, 62, 49
2, 29282, Note_on_c, 0, 52, 49
2, 29322, Note_on_c, 0, 73, 0
2, 29324, Note_on_c, 0, 62, 0
2, 29350, Note_on_c, 0, 68, 64
2, 29350, Note_on_c, 0, 71, 64
2, 29350, Note_on_c, 0, 64, 64
2, 29352, Note_on_c, 0, 69, 0
2, 29361, Note_on_c, 0, 56, 49
2, 29374, Note_on_c, 0, 68, 0
2, 29374, Note_on_c, 0, 64, 0
2, 29376, Note_on_c, 0, 40, 0
2, 29384, Note_on_c, 0, 52, 0
2, 29384, Note_on_c, 0, 56, 0
2, 29408, Note_on_c, 0, 69, 66
2, 29420, Note_on_c, 0, 66, 49
2, 29420, Note_on_c, 0, 62, 49
2, 29433, Note_on_c, 0, 71, 0
2, 29442, Note_on_c, 0, 62, 0
2, 29452, Note_on_c, 0, 66, 0
2, 29482, Note_on_c, 0, 56, 49
2, 29491, Note_on_c, 0, 64, 49
2, 29506, Note_on_c, 0, 56, 0
2, 29519, Note_on_c, 0, 64, 0
2, 29544, Note_on_c, 0, 71, 72
2, 29555, Note_on_c, 0, 68, 49
2, 29556, Note_on_c, 0, 62, 49
2, 29558, Note_on_c, 0, 52, 49
2, 29560, Note_on_c, 0, 69, 0
2, 29582, Note_on_c, 0, 52, 0
2, 29599, Note_on_c, 0, 68, 0
2, 29615, Control_c, 0, 64, 0
2, 29620, Note_on_c, 0, 62, 0
2, 29625, Note_on_c, 0, 73, 38
2, 29636, Note_on_c, 0, 69, 49
2, 29639, Note_on_c, 0, 45, 49
2, 29660, Note_on_c, 0, 71, 0
2, 29732, Control_c, 0, 64, 127
2, 29737, Note_on_c, 0, 61, 49
2, 29737, Note_on_c, 0, 52, 49
2, 29773, Note_on_c, 0, 69, 0
2, 29809, Note_on_c, 0, 64, 49
2, 29810, Note_on_c, 0, 57, 49
2, 29825, Note_on_c, 0, 61, 0
2, 29826, Note_on_c, 0, 52, 0
2, 29828, Note_on_c, 0, 45, 0
2, 29833, Note_on_c, 0, 64, 0
2, 29833, Note_on_c, 0, 57, 0
2, 29914, Note_on_c, 0, 69, 49
2, 29916, Note_on_c, 0, 61, 49
2, 29939, Note_on_c, 0, 61, 0
2, 29978, Note_on_c, 0, 69, 0
2, 30222, Control_c, 0, 64, 0
2, 30233, Note_on_c, 0, 66, 58
2, 30245, Note_on_c, 0, 62, 49
2, 30246, Note_on_c, 0, 73, 0
2, 30246, Note_on_c, 0, 38, 49
2, 30347, Note_on_c, 0, 50, 49
2, 30360, Control_c, 0, 64, 127
2, 30408, Note_on_c, 0, 62, 0
2, 30416, Note_on_c, 0, 54, 49
2, 30420, Note_on_c, 0, 50, 0
2, 30430, Note_on_c, 0, 66, 0
2, 30432, Note_on_c, 0, 38, 0
2, 30442, Note_on_c, 0, 54, 0
2, 30480, Note_on_c, 0, 66, 69
2, 30480, Note_on_c, 0, 62, 49
2, 30490, Note_on_c, 0, 57, 49
2, 30507, Note_on_c, 0, 62, 0
2, 30518, Note_on_c, 0, 57, 0
2, 30573, Note_on_c, 0, 65, 70
2, 30573, Note_on_c, 0, 68, 70
2, 30573, Note_on_c, 0, 54, 49
2, 30576, Note_on_c, 0, 66, 0
2, 30606, Note_on_c, 0, 54, 0
2, 30616, Note_on_c, 0, 68, 0
2, 30635, Note_on_c, 0, 65, 0
2, 30640, Note_on_c, 0, 69, 38
2, 30642, Note_on_c, 0, 66, 39
2, 30643, Note_on_c, 0, 50, 49
2, 30664, Note_on_c, 0, 69, 0
2, 30668, Note_on_c, 0, 50, 0
2, 30674, Note_on_c, 0, 66, 0
2, 30679, Control_c, 0, 64, 0
2, 30700, Note_on_c, 0, 73, 73
2, 30702, Note_on_c, 0, 69, 73
2, 30715, Note_on_c, 0, 47, 49
2, 30783, Note_on_c, 0, 54, 49
2, 30811, Control_c, 0, 64, 127
2, 30850, Note_on_c, 0, 73, 0
2, 30853, Note_on_c, 0, 54, 0
2, 30855, Note_on_c, 0, 47, 0
2, 30860, Note_on_c, 0, 59, 49
2, 30884, Note_on_c, 0, 59, 0
2, 30918, Note_on_c, 0, 71, 58
2, 30918, Note_on_c, 0, 68, 58
2, 30920, Note_on_c, 0, 62, 49
2, 30922, Note_on_c, 0, 69, 0
2, 30941, Note_on_c, 0, 62, 0
2, 31094, Note_on_c, 0, 71, 0
2, 31112, Note_on_c, 0, 69, 99
2, 31112, Note_on_c, 0, 66, 99
2, 31117, Note_on_c, 0, 68, 0
2, 31149, Note_on_c, 0, 66, 0
2, 31164, Control_c, 0, 64, 0
2, 31205, Note_on_c, 0, 73, 81
2, 31205, Note_on_c, 0, 64, 81
2, 31208, Note_on_c, 0, 47, 49
2, 31210, Note_on_c, 0, 69, 0
2, 31210, Note_on_c, 0, 35, 49
2, 31306, Note_on_c, 0, 50, 49
2, 31310, Control_c, 0, 64, 127
2, 31350, Note_on_c, 0, 35, 0
2, 31359, Note_on_c, 0, 47, 0
2, 31366, Note_on_c, 0, 73, 0
2, 31368, Note_on_c, 0, 50, 0
2, 31376, Note_on_c, 0, 64, 0
2, 31384, Note_on_c, 0, 71, 73
2, 31385, Note_on_c, 0, 62, 49
2, 31394, Note_on_c, 0, 54, 49
2, 31418, Note_on_c, 0, 71, 0
2, 31420, Note_on_c, 0, 54, 0
2, 31478, Note_on_c, 0, 71, 76
2, 31499, Note_on_c, 0, 61, 53
2, 31499, Control_c, 0, 64, 0
2, 31509, Note_on_c, 0, 69, 76
2, 31512, Note_on_c, 0, 62, 0
2, 31522, Note_on_c, 0, 71, 0
2, 31605, Control_c, 0, 64, 127
2, 31693, Note_on_c, 0, 61, 0
2, 31730, Note_on_c, 0, 68, 72
2, 31742, Note_on_c, 0, 59, 53
2, 31755, Note_on_c, 0, 69, 0
2, 31766, Note_on_c, 0, 59, 0
2, 31839, Note_on_c, 0, 62, 49
2, 31839, Control_c, 0, 64, 0
2, 31847, Note_on_c, 0, 66, 73
2, 31860, Note_on_c, 0, 37, 49
2, 31880, Note_on_c, 0, 68, 0
2, 31960, Control_c, 0, 64, 127
2, 31978, Note_on_c, 0, 49, 49
2, 32000, Note_on_c, 0, 49, 0
2, 32013, Note_on_c, 0, 37, 0
2, 32067, Note_on_c, 0, 56, 49
2, 32092, Note_on_c, 0, 56, 0
2, 32130, Control_c, 0, 64, 0
2, 32140, Note_on_c, 0, 65, 58
2, 32152, Note_on_c, 0, 61, 53
2, 32153, Note_on_c, 0, 59, 53
2, 32156, Note_on_c, 0, 62, 0
2, 32165, Note_on_c, 0, 66, 0
2, 32230, Control_c, 0, 64, 127
2, 32235, Note_on_c, 0, 56, 49
2, 32258, Note_on_c, 0, 56, 0
2, 32269, Note_on_c, 0, 59, 0
2, 32304, Note_on_c, 0, 49, 49
2, 32305, Note_on_c, 0, 61, 0
2, 32328, Note_on_c, 0, 49, 0
2, 32332, Control_c, 0, 64, 0
2, 32363, Note_on_c, 0, 69, 66
2, 32365, Note_on_c, 0, 61, 49
2, 32376, Note_on_c, 0, 42, 49
2, 32391, Note_on_c, 0, 65, 0
2, 32446, Control_c, 0, 64, 127
2, 32472, Note_on_c, 0, 63, 53
2, 32472, Note_on_c, 0, 54, 53
2, 32495, Note_on_c, 0, 61, 0
2, 32503, Note_on_c, 0, 54, 0
2, 32505, Note_on_c, 0, 42, 0
2, 32521, Note_on_c, 0, 63, 0
2, 32539, Note_on_c, 0, 57, 53
2, 32542, Note_on_c, 0, 69, 0
2, 32547, Note_on_c, 0, 65, 53
2, 32562, Note_on_c, 0, 57, 0
2, 32606, Note_on_c, 0, 69, 70
2, 32606, Note_on_c, 0, 66, 70
2, 32607, Note_on_c, 0, 57, 53
2, 32607, Note_on_c, 0, 54, 53
2, 32610, Note_on_c, 0, 65, 0
2, 32616, Note_on_c, 0, 61, 53
2, 32658, Note_on_c, 0, 61, 0
2, 32658, Note_on_c, 0, 57, 0
2, 32658, Note_on_c, 0, 66, 0
2, 32669, Note_on_c, 0, 54, 0
2, 32674, Note_on_c, 0, 71, 57
2, 32685, Note_on_c, 0, 68, 53
2, 32698, Note_on_c, 0, 71, 0
2, 32708, Note_on_c, 0, 69, 0
2, 32710, Note_on_c, 0, 68, 0
2, 32736, Note_on_c, 0, 73, 73
2, 32749, Note_on_c, 0, 69, 49
2, 32781, Control_c, 0, 64, 0
2, 32785, Note_on_c, 0, 69, 0
2, 32785, Note_on_c, 0, 73, 0
2, 32802, Note_on_c, 0, 74, 81
2, 32802, Note_on_c, 0, 71, 81
2, 32804, Note_on_c, 0, 50, 49
2, 32806, Note_on_c, 0, 38, 49
2, 32872, Note_on_c, 0, 62, 49
2, 32872, Note_on_c, 0, 54, 49
2, 32904, Note_on_c, 0, 62, 0
2, 32905, Note_on_c, 0, 54, 0
2, 32905, Control_c, 0, 64, 127
2, 32931, Note_on_c, 0, 66, 49
2, 32933, Note_on_c, 0, 59, 49
2, 32946, Note_on_c, 0, 71, 0
2, 32954, Note_on_c, 0, 66, 0
2, 32956, Note_on_c, 0, 59, 0
2, 32970, Note_on_c, 0, 38, 0
2, 32977, Note_on_c, 0, 50, 0
2, 32991, Note_on_c, 0, 71, 49
2, 32993, Note_on_c, 0, 62, 49
2, 33017, Note_on_c, 0, 62, 0
2, 33017, Note_on_c, 0, 71, 0
2, 33133, Note_on_c, 0, 74, 0
2, 33141, Note_on_c, 0, 73, 70
2, 33141, Note_on_c, 0, 69, 70
2, 33164, Note_on_c, 0, 73, 0
2, 33168, Control_c, 0, 64, 0
2, 33172, Note_on_c, 0, 69, 0
2, 33208, Note_on_c, 0, 73, 80
2, 33218, Note_on_c, 0, 69, 53
2, 33219, Note_on_c, 0, 52, 53
2, 33221, Note_on_c, 0, 40, 53
2, 33282, Control_c, 0, 64, 127
2, 33297, Note_on_c, 0, 71, 73
2, 33300, Note_on_c, 0, 69, 0
2, 33308, Note_on_c, 0, 68, 53
2, 33308, Note_on_c, 0, 62, 53
2, 33320, Note_on_c, 0, 73, 0
2, 33331, Note_on_c, 0, 62, 0
2, 33333, Note_on_c, 0, 52, 0
2, 33334, Note_on_c, 0, 40, 0
2, 33341, Note_on_c, 0, 71, 0
2, 33388, Note_on_c, 0, 74, 73
2, 33390, Note_on_c, 0, 71, 73
2, 33401, Note_on_c, 0, 64, 53
2, 33424, Note_on_c, 0, 64, 0
2, 33432, Note_on_c, 0, 74, 0
2, 33444, Note_on_c, 0, 68, 0
2, 33489, Note_on_c, 0, 78, 72
2, 33491, Note_on_c, 0, 74, 72
2, 33491, Control_c, 0, 64, 0
2, 33502, Note_on_c, 0, 68, 53
2, 33515, Note_on_c, 0, 71, 0
2, 33577, Control_c, 0, 64, 127
2, 33592, Note_on_c, 0, 74, 0
2, 33603, Note_on_c, 0, 68, 0
2, 33619, Note_on_c, 0, 74, 69
2, 33621, Note_on_c, 0, 71, 69
2, 33644, Note_on_c, 0, 78, 0
2, 33655, Note_on_c, 0, 71, 0
2, 33718, Note_on_c, 0, 71, 61
2, 33718, Note_on_c, 0, 68, 61
2, 33720, Note_on_c, 0, 74, 0
2, 33743, Note_on_c, 0, 68, 0
2, 33768, Control_c, 0, 64, 0
2, 33771, Note_on_c, 0, 71, 0
2, 33777, Note_on_c, 0, 73, 58
2, 33777, Note_on_c, 0, 69, 58
2, 33792, Note_on_c, 0, 45, 53
2, 33876, Note_on_c, 0, 61, 53
2, 33876, Note_on_c, 0, 52, 53
2, 33881, Control_c, 0, 64, 127
2, 33919, Note_on_c, 0, 61, 0
2, 33942, Note_on_c, 0, 64, 53
2, 33942, Note_on_c, 0, 57, 53
2, 33946, Note_on_c, 0, 69, 0
2, 33950, Note_on_c, 0, 52, 0
2, 33964, Note_on_c, 0, 64, 0
2, 33964, Note_on_c, 0, 57, 0
2, 33968, Note_on_c, 0, 45, 0
2, 34047, Note_on_c, 0, 69, 53
2, 34057, Note_on_c, 0, 61, 53
2, 34082, Note_on_c, 0, 61, 0
2, 34093, Note_on_c, 0, 69, 0
2, 34280, Note_on_c, 0, 66, 38
2, 34293, Note_on_c, 0, 73, 0
2, 34320, Control_c, 0, 64, 0
2, 34386, Note_on_c, 0, 69, 54
2, 34399, Note_on_c, 0, 66, 0
2, 34399, Note_on_c, 0, 42, 49
2, 34423, Note_on_c, 0, 42, 0
2, 34443, Control_c, 0, 64, 127
2, 34459, Note_on_c, 0, 49, 49
2, 34482, Note_on_c, 0, 49, 0
2, 34514, Control_c, 0, 64, 0
2, 34526, Note_on_c, 0, 54, 49
2, 34526, Note_on_c, 0, 57, 49
2, 34535, Note_on_c, 0, 68, 45
2, 34539, Note_on_c, 0, 69, 0
2, 34547, Note_on_c, 0, 57, 0
2, 34548, Note_on_c, 0, 54, 0
2, 34596, Note_on_c, 0, 66, 62
2, 34599, Note_on_c, 0, 68, 0
2, 34607, Note_on_c, 0, 62, 49
2, 34608, Note_on_c, 0, 47, 49
2, 34632, Note_on_c, 0, 47, 0
2, 34666, Control_c, 0, 64, 127
2, 34670, Note_on_c, 0, 50, 49
2, 34674, Note_on_c, 0, 62, 0
2, 34696, Note_on_c, 0, 50, 0
2, 34710, Control_c, 0, 64, 0
2, 34729, Note_on_c, 0, 74, 66
2, 34731, Note_on_c, 0, 59, 49
2, 34731, Note_on_c, 0, 54, 49
2, 34754, Note_on_c, 0, 74, 0
2, 34755, Note_on_c, 0, 54, 0
2, 34755, Note_on_c, 0, 59, 0
2, 34783, Note_on_c, 0, 41, 49
2, 34791, Note_on_c, 0, 68, 70
2, 34791, Note_on_c, 0, 61, 49
2, 34804, Note_on_c, 0, 66, 0
2, 34806, Control_c, 0, 64, 127
2, 34825, Note_on_c, 0, 41, 0
2, 34853, Note_on_c, 0, 49, 49
2, 34876, Note_on_c, 0, 49, 0
2, 34908, Control_c, 0, 64, 0
2, 34910, Note_on_c, 0, 59, 49
2, 34910, Note_on_c, 0, 56, 49
2, 34934, Note_on_c, 0, 56, 0
2, 34934, Note_on_c, 0, 59, 0
2, 34965, Note_on_c, 0, 68, 0
2, 34972, Note_on_c, 0, 69, 73
2, 34975, Note_on_c, 0, 42, 49
2, 35002, Note_on_c, 0, 42, 0
2, 35010, Note_on_c, 0, 61, 0
2, 35035, Control_c, 0, 64, 127
2, 35042, Note_on_c, 0, 49, 49
2, 35064, Note_on_c, 0, 49, 0
2, 35098, Note_on_c, 0, 57, 49
2, 35098, Note_on_c, 0, 66, 49
2, 35098, Note_on_c, 0, 54, 49
2, 35102, Note_on_c, 0, 69, 0
2, 35116, Control_c, 0, 64, 0
2, 35121, Note_on_c, 0, 57, 0
2, 35121, Note_on_c, 0, 54, 0
2, 35146, Note_on_c, 0, 69, 76
2, 35160, Note_on_c, 0, 42, 49
2, 35170, Note_on_c, 0, 66, 0
2, 35181, Note_on_c, 0, 42, 0
2, 35211, Control_c, 0, 64, 127
2, 35219, Note_on_c, 0, 49, 49
2, 35253, Note_on_c, 0, 49, 0
2, 35269, Note_on_c, 0, 69, 0
2, 35276, Note_on_c, 0, 68, 85
2, 35276, Note_on_c, 0, 57, 49
2, 35277, Note_on_c, 0, 54, 49
2, 35284, Control_c, 0, 64, 0
2, 35300, Note_on_c, 0, 54, 0
2, 35300, Note_on_c, 0, 57, 0
2, 35336, Note_on_c, 0, 66, 86
2, 35338, Note_on_c, 0, 62, 49
2, 35339, Note_on_c, 0, 47, 49
2, 35350, Note_on_c, 0, 68, 0
2, 35364, Note_on_c, 0, 47, 0
2, 35394, Control_c, 0, 64, 127
2, 35400, Note_on_c, 0, 50, 49
2, 35422, Note_on_c, 0, 62, 0
2, 35424, Note_on_c, 0, 50, 0
2, 35455, Note_on_c, 0, 74, 74
2, 35458, Note_on_c, 0, 59, 49
2, 35458, Note_on_c, 0, 54, 49
2, 35479, Note_on_c, 0, 59, 0
2, 35479, Note_on_c, 0, 74, 0
2, 35481, Note_on_c, 0, 54, 0
2, 35484, Control_c, 0, 64, 0
2, 35508, Note_on_c, 0, 66, 0
2, 35515, Note_on_c, 0, 68, 90
2, 35515, Note_on_c, 0, 61, 53
2, 35518, Note_on_c, 0, 41, 53
2, 35541, Note_on_c, 0, 41, 0
2, 35582, Note_on_c, 0, 49, 53
2, 35606, Note_on_c, 0, 49, 0
2, 35616, Control_c, 0, 64, 127
2, 35642, Note_on_c, 0, 59, 53
2, 35642, Note_on_c, 0, 56, 53
2, 35661, Control_c, 0, 64, 0
2, 35666, Note_on_c, 0, 56, 0
2, 35666, Note_on_c, 0, 59, 0
2, 35697, Note_on_c, 0, 68, 0
2, 35704, Note_on_c, 0, 69, 72
2, 35707, Note_on_c, 0, 42, 60
2, 35717, Note_on_c, 0, 61, 0
2, 35740, Note_on_c, 0, 42, 0
2, 35759, Control_c, 0, 64, 127
2, 35774, Note_on_c, 0, 49, 57
2, 35798, Note_on_c, 0, 49, 0
2, 35832, Note_on_c, 0, 66, 58
2, 35842, Note_on_c, 0, 57, 57
2, 35842, Note_on_c, 0, 54, 57
2, 35844, Note_on_c, 0, 69, 0
2, 35863, Note_on_c, 0, 54, 0
2, 35863, Note_on_c, 0, 57, 0
2, 35878, Control_c, 0, 64, 0
2, 35900, Note_on_c, 0, 69, 81
2, 35904, Note_on_c, 0, 42, 57
2, 35925, Note_on_c, 0, 66, 0
2, 35976, Note_on_c, 0, 49, 57
2, 36011, Control_c, 0, 64, 127
2, 36045, Note_on_c, 0, 68, 77
2, 36047, Note_on_c, 0, 54, 57
2, 36057, Note_on_c, 0, 57, 57
2, 36058, Note_on_c, 0, 69, 0
2, 36062, Note_on_c, 0, 49, 0
2, 36072, Note_on_c, 0, 42, 0
2, 36080, Note_on_c, 0, 54, 0
2, 36080, Note_on_c, 0, 57, 0
2, 36115, Control_c, 0, 64, 0
2, 36125, Note_on_c, 0, 66, 81
2, 36136, Note_on_c, 0, 64, 57
2, 36138, Note_on_c, 0, 42, 57
2, 36159, Note_on_c, 0, 68, 0
2, 36228, Note_on_c, 0, 49, 57
2, 36231, Control_c, 0, 64, 127
2, 36260, Note_on_c, 0, 66, 0
2, 36260, Note_on_c, 0, 64, 0
2, 36262, Note_on_c, 0, 49, 0
2, 36284, Note_on_c, 0, 42, 0
2, 36320, Note_on_c, 0, 78, 90
2, 36324, Note_on_c, 0, 58, 57
2, 36335, Note_on_c, 0, 54, 57
2, 36366, Note_on_c, 0, 54, 0
2, 36368, Note_on_c, 0, 58, 0
2, 36384, Note_on_c, 0, 78, 0
2, 36429, Control_c, 0, 64, 0
2, 36439, Note_on_c, 0, 78, 104
2, 36454, Note_on_c, 0, 47, 57
2, 36555, Control_c, 0, 64, 127
2, 36572, Note_on_c, 0, 54, 57
2, 36626, Note_on_c, 0, 54, 0
2, 36628, Note_on_c, 0, 47, 0
2, 36719, Note_on_c, 0, 59, 57
2, 36742, Note_on_c, 0, 59, 0
2, 36864, Note_on_c, 0, 78, 0
2, 36874, Control_c, 0, 64, 0
2, 36895, Note_on_c, 0, 68, 58
2, 36909, Note_on_c, 0, 62, 53
2, 37043, Control_c, 0, 64, 127
2, 37150, Note_on_c, 0, 68, 0
2, 37181, Note_on_c, 0, 62, 0
2, 37284, Note_on_c, 0, 68, 38
2, 37381, Control_c, 0, 64, 0
2, 37393, Note_on_c, 0, 73, 66
2, 37393, Note_on_c, 0, 61, 49
2, 37406, Note_on_c, 0, 49, 49
2, 37406, Note_on_c, 0, 37, 49
2, 37416, Note_on_c, 0, 68, 0
2, 37518, Control_c, 0, 64, 127
2, 37534, Note_on_c, 0, 53, 49
2, 37546, Note_on_c, 0, 61, 0
2, 37557, Note_on_c, 0, 53, 0
2, 37558, Note_on_c, 0, 37, 0
2, 37558, Note_on_c, 0, 49, 0
2, 37651, Note_on_c, 0, 73, 0
2, 37669, Note_on_c, 0, 61, 38
2, 37669, Note_on_c, 0, 56, 38
2, 37692, Note_on_c, 0, 56, 0
2, 37768, Note_on_c, 0, 61, 0
2, 37791, Control_c, 0, 64, 0
2, 37793, Note_on_c, 0, 64, 66
2, 37804, Note_on_c, 0, 53, 49
2, 37816, Note_on_c, 0, 59, 49
2, 37816, Note_on_c, 0, 56, 49
2, 37824, Note_on_c, 0, 62, 66
2, 37827, Note_on_c, 0, 64, 0
2, 37952, Control_c, 0, 64, 127
2, 37970, Note_on_c, 0, 56, 0
2, 37970, Note_on_c, 0, 59, 0
2, 38053, Note_on_c, 0, 53, 0
2, 38138, Note_on_c, 0, 62, 0
2, 38146, Note_on_c, 0, 61, 54
2, 38169, Note_on_c, 0, 61, 0
2, 38239, Control_c, 0, 64, 0
2, 38271, Note_on_c, 0, 66, 49
2, 38273, Note_on_c, 0, 57, 43
2, 38274, Note_on_c, 0, 42, 43
2, 38351, Note_on_c, 0, 49, 43
2, 38352, Note_on_c, 0, 57, 0
2, 38354, Note_on_c, 0, 42, 0
2, 38374, Note_on_c, 0, 49, 0
2, 38398, Note_on_c, 0, 54, 43
2, 38422, Note_on_c, 0, 54, 0
2, 38448, Note_on_c, 0, 57, 43
2, 38470, Note_on_c, 0, 57, 0
2, 38507, Note_on_c, 0, 54, 52
2, 38532, Note_on_c, 0, 54, 0
2, 38543, Note_on_c, 0, 66, 0
2, 38562, Note_on_c, 0, 49, 49
2, 38587, Note_on_c, 0, 49, 0
2, 38616, Control_c, 0, 64, 127
2, 38623, Note_on_c, 0, 66, 54
2, 38623, Note_on_c, 0, 58, 49
2, 38626, Note_on_c, 0, 42, 49
2, 38647, Note_on_c, 0, 42, 0
2, 38676, Note_on_c, 0, 58, 0
2, 38683, Note_on_c, 0, 49, 49
2, 38706, Note_on_c, 0, 49, 0
2, 38738, Note_on_c, 0, 52, 53
2, 38764, Note_on_c, 0, 52, 0
2, 38779, Control_c, 0, 64, 0
2, 38802, Note_on_c, 0, 52, 53
2, 38802, Note_on_c, 0, 54, 53
2, 38802, Note_on_c, 0, 49, 53
2, 38828, Note_on_c, 0, 52, 0
2, 38836, Note_on_c, 0, 54, 0
2, 38846, Note_on_c, 0, 66, 0
2, 38847, Note_on_c, 0, 49, 0
2, 38855, Note_on_c, 0, 67, 66
2, 38855, Note_on_c, 0, 59, 53
2, 38888, Note_on_c, 0, 59, 0
2, 38906, Note_on_c, 0, 61, 49
2, 38916, Note_on_c, 0, 66, 66
2, 38919, Note_on_c, 0, 67, 0
2, 38929, Note_on_c, 0, 61, 0
2, 38930, Note_on_c, 0, 66, 0
2, 38966, Note_on_c, 0, 66, 66
2, 38969, Note_on_c, 0, 35, 49
2, 38969, Note_on_c, 0, 47, 49
2, 38971, Control_c, 0, 64, 127
2, 38976, Note_on_c, 0, 62, 49
2, 39012, Note_on_c, 0, 35, 0
2, 39020, Note_on_c, 0, 47, 0
2, 39025, Note_on_c, 0, 50, 49
2, 39057, Note_on_c, 0, 50, 0
2, 39082, Note_on_c, 0, 54, 49
2, 39094, Note_on_c, 0, 66, 0
2, 39106, Note_on_c, 0, 54, 0
2, 39120, Control_c, 0, 64, 0
2, 39143, Note_on_c, 0, 54, 53
2, 39143, Note_on_c, 0, 59, 53
2, 39143, Note_on_c, 0, 50, 53
2, 39166, Note_on_c, 0, 59, 0
2, 39166, Note_on_c, 0, 62, 0
2, 39179, Note_on_c, 0, 54, 0
2, 39179, Note_on_c, 0, 50, 0
2, 39184, Note_on_c, 0, 61, 53
2, 39192, Note_on_c, 0, 65, 89
2, 39243, Note_on_c, 0, 66, 74
2, 39244, Note_on_c, 0, 59, 53
2, 39267, Note_on_c, 0, 59, 0
2, 39267, Note_on_c, 0, 61, 0
2, 39267, Note_on_c, 0, 65, 0
2, 39267, Note_on_c, 0, 66, 0
2, 39303, Note_on_c, 0, 66, 81
2, 39304, Note_on_c, 0, 58, 53
2, 39306, Note_on_c, 0, 42, 53
2, 39337, Control_c, 0, 64, 127
2, 39363, Note_on_c, 0, 49, 54
2, 39386, Note_on_c, 0, 58, 0
2, 39388, Note_on_c, 0, 49, 0
2, 39388, Note_on_c, 0, 42, 0
2, 39423, Note_on_c, 0, 52, 57
2, 39446, Note_on_c, 0, 52, 0
2, 39475, Note_on_c, 0, 66, 0
2, 39495, Note_on_c, 0, 52, 57
2, 39495, Note_on_c, 0, 54, 57
2, 39495, Note_on_c, 0, 49, 57
2, 39521, Note_on_c, 0, 54, 0
2, 39521, Note_on_c, 0, 52, 0
2, 39531, Note_on_c, 0, 49, 0
2, 39548, Note_on_c, 0, 67, 70
2, 39548, Note_on_c, 0, 59, 57
2, 39581, Note_on_c, 0, 67, 0
2, 39592, Note_on_c, 0, 59, 0
2, 39617, Note_on_c, 0, 66, 103
2, 39617, Note_on_c, 0, 61, 57
2, 39640, Note_on_c, 0, 61, 0
2, 39646, Control_c, 0, 64, 0
2, 39648, Note_on_c, 0, 66, 0
2, 39693, Note_on_c, 0, 74, 100
2, 39695, Note_on_c, 0, 66, 100
2, 39695, Note_on_c, 0, 62, 57
2, 39696, Note_on_c, 0, 47, 57
2, 39697, Note_on_c, 0, 35, 57
2, 39765, Control_c, 0, 64, 127
2, 39770, Note_on_c, 0, 50, 57
2, 39833, Note_on_c, 0, 50, 0
2, 39835, Note_on_c, 0, 47, 0
2, 39835, Note_on_c, 0, 35, 0
2, 39842, Note_on_c, 0, 66, 0
2, 39842, Note_on_c, 0, 62, 0
2, 39848, Note_on_c, 0, 54, 57
2, 39887, Note_on_c, 0, 54, 0
2, 39934, Note_on_c, 0, 59, 57
2, 39936, Note_on_c, 0, 50, 57
2, 39942, Note_on_c, 0, 54, 57
2, 39957, Note_on_c, 0, 59, 0
2, 39967, Note_on_c, 0, 54, 0
2, 39967, Note_on_c, 0, 50, 0
2, 40030, Note_on_c, 0, 70, 70
2, 40032, Note_on_c, 0, 74, 0
2, 40113, Note_on_c, 0, 70, 0
2, 40120, Note_on_c, 0, 71, 99
2, 40201, Control_c, 0, 64, 0
2, 40204, Note_on_c, 0, 71, 0
2, 40211, Note_on_c, 0, 74, 57
2, 40281, Note_on_c, 0, 65, 57
2, 40281, Note_on_c, 0, 71, 57
2, 40281, Note_on_c, 0, 59, 57
2, 40292, Note_on_c, 0, 56, 57
2, 40292, Note_on_c, 0, 54, 57
2, 40304, Note_on_c, 0, 71, 0
2, 40304, Note_on_c, 0, 65, 0
2, 40305, Note_on_c, 0, 59, 0
2, 40315, Note_on_c, 0, 56, 0
2, 40315, Note_on_c, 0, 54, 0
2, 40349, Note_on_c, 0, 65, 57
2, 40349, Note_on_c, 0, 71, 57
2, 40349, Note_on_c, 0, 59, 57
2, 40359, Note_on_c, 0, 56, 57
2, 40359, Note_on_c, 0, 54, 57
2, 40370, Note_on_c, 0, 59, 0
2, 40370, Note_on_c, 0, 71, 0
2, 40370, Note_on_c, 0, 65, 0
2, 40382, Note_on_c, 0, 54, 0
2, 40382, Note_on_c, 0, 56, 0
2, 40400, Note_on_c, 0, 74, 0
2, 40418, Note_on_c, 0, 73, 57
2, 40460, Note_on_c, 0, 69, 57
2, 40460, Note_on_c, 0, 66, 57
2, 40461, Note_on_c, 0, 61, 57
2, 40461, Note_on_c, 0, 54, 57
2, 40461, Note_on_c, 0, 57, 57
2, 40486, Note_on_c, 0, 66, 0
2, 40486, Note_on_c, 0, 69, 0
2, 40487, Note_on_c, 0, 61, 0
2, 40487, Note_on_c, 0, 54, 0
2, 40487, Note_on_c, 0, 57, 0
2, 40522, Note_on_c, 0, 69, 57
2, 40522, Note_on_c, 0, 66, 57
2, 40523, Note_on_c, 0, 57, 57
2, 40523, Note_on_c, 0, 61, 57
2, 40523, Note_on_c, 0, 54, 57
2, 40546, Note_on_c, 0, 61, 0
2, 40546, Note_on_c, 0, 57, 0
2, 40546, Note_on_c, 0, 66, 0
2, 40546, Note_on_c, 0, 69, 0
2, 40548, Note_on_c, 0, 54, 0
2, 40564, Note_on_c, 0, 73, 0
2, 40582, Note_on_c, 0, 71, 81
2, 40642, Note_on_c, 0, 62, 52
2, 40642, Note_on_c, 0, 65, 52
2, 40642, Note_on_c, 0, 68, 52
2, 40642, Note_on_c, 0, 54, 52
2, 40665, Note_on_c, 0, 68, 0
2, 40665, Note_on_c, 0, 65, 0
2, 40665, Note_on_c, 0, 62, 0
2, 40666, Note_on_c, 0, 54, 0
2, 40700, Note_on_c, 0, 68, 53
2, 40702, Note_on_c, 0, 62, 53
2, 40702, Note_on_c, 0, 65, 53
2, 40702, Note_on_c, 0, 54, 53
2, 40722, Note_on_c, 0, 62, 0
2, 40723, Note_on_c, 0, 54, 0
2, 40733, Note_on_c, 0, 68, 0
2, 40752, Note_on_c, 0, 65, 0
2, 40759, Note_on_c, 0, 69, 81
2, 40782, Note_on_c, 0, 71, 0
2, 40845, Note_on_c, 0, 66, 49
2, 40855, Note_on_c, 0, 61, 49
2, 40855, Note_on_c, 0, 54, 49
2, 40870, Note_on_c, 0, 66, 0
2, 40878, Note_on_c, 0, 61, 0
2, 40880, Note_on_c, 0, 54, 0
2, 40922, Note_on_c, 0, 66, 49
2, 40933, Note_on_c, 0, 61, 49
2, 40933, Note_on_c, 0, 54, 49
2, 40945, Note_on_c, 0, 66, 0
2, 40956, Note_on_c, 0, 54, 0
2, 40956, Note_on_c, 0, 61, 0
2, 41002, Note_on_c, 0, 69, 0
2, 41010, Note_on_c, 0, 68, 70
2, 41142, Note_on_c, 0, 62, 49
2, 41143, Note_on_c, 0, 54, 49
2, 41153, Note_on_c, 0, 59, 49
2, 41177, Note_on_c, 0, 59, 0
2, 41177, Note_on_c, 0, 62, 0
2, 41186, Note_on_c, 0, 54, 0
2, 41187, Control_c, 0, 64, 127
2, 41275, Note_on_c, 0, 59, 49
2, 41275, Note_on_c, 0, 62, 49
2, 41275, Note_on_c, 0, 54, 49
2, 41296, Note_on_c, 0, 62, 0
2, 41296, Note_on_c, 0, 68, 0
2, 41298, Note_on_c, 0, 59, 0
2, 41298, Note_on_c, 0, 54, 0
2, 41322, Note_on_c, 0, 65, 58
2, 41340, Note_on_c, 0, 68, 58
2, 41364, Note_on_c, 0, 65, 0
2, 41369, Control_c, 0, 64, 0
2, 41371, Note_on_c, 0, 66, 58
2, 41395, Note_on_c, 0, 68, 0
2, 41472, Control_c, 0, 64, 127
2, 41488, Note_on_c, 0, 61, 49
2, 41498, Note_on_c, 0, 59, 49
2, 41498, Note_on_c, 0, 54, 49
2, 41521, Note_on_c, 0, 59, 0
2, 41529, Note_on_c, 0, 61, 0
2, 41530, Note_on_c, 0, 54, 0
2, 41594, Note_on_c, 0, 61, 49
2, 41605, Note_on_c, 0, 59, 49
2, 41605, Note_on_c, 0, 54, 49
2, 41617, Note_on_c, 0, 61, 0
2, 41628, Note_on_c, 0, 54, 0
2, 41628, Note_on_c, 0, 59, 0
2, 41643, Note_on_c, 0, 65, 62
2, 41646, Note_on_c, 0, 66, 0
2, 41666, Note_on_c, 0, 65, 0
2, 41682, Control_c, 0, 64, 0
2, 41690, Note_on_c, 0, 65, 62
2, 41796, Note_on_c, 0, 61, 49
2, 41797, Note_on_c, 0, 54, 49
2, 41802, Control_c, 0, 64, 127
2, 41808, Note_on_c, 0, 57, 49
2, 41831, Note_on_c, 0, 61, 0
2, 41841, Note_on_c, 0, 57, 0
2, 41841, Note_on_c, 0, 54, 0
2, 41898, Note_on_c, 0, 57, 49
2, 41898, Note_on_c, 0, 61, 49
2, 41898, Note_on_c, 0, 54, 49
2, 41921, Note_on_c, 0, 54, 0
2, 41921, Note_on_c, 0, 61, 0
2, 41921, Note_on_c, 0, 57, 0
2, 41945, Control_c, 0, 64, 0
2, 41970, Note_on_c, 0, 65, 0
2, 41974, Note_on_c, 0, 66, 58
2, 42056, Note_on_c, 0, 57, 49
2, 42056, Note_on_c, 0, 61, 49
2, 42056, Note_on_c, 0, 54, 49
2, 42061, Control_c, 0, 64, 127
2, 42079, Note_on_c, 0, 61, 0
2, 42079, Note_on_c, 0, 57, 0
2, 42080, Note_on_c, 0, 54, 0
2, 42128, Note_on_c, 0, 57, 49
2, 42128, Note_on_c, 0, 61, 49
2, 42128, Note_on_c, 0, 54, 49
2, 42131, Note_on_c, 0, 66, 0
2, 42154, Note_on_c, 0, 57, 0
2, 42155, Note_on_c, 0, 54, 0
2, 42168, Control_c, 0, 64, 0
2, 42189, Note_on_c, 0, 66, 38
2, 42191, Note_on_c, 0, 58, 49
2, 42193, Note_on_c, 0, 61, 0
2, 42201, Note_on_c, 0, 42, 49
2, 42259, Note_on_c, 0, 49, 49
2, 42282, Control_c, 0, 64, 127
2, 42310, Note_on_c, 0, 49, 0
2, 42321, Note_on_c, 0, 42, 0
2, 42326, Note_on_c, 0, 52, 49
2, 42339, Note_on_c, 0, 58, 0
2, 42349, Note_on_c, 0, 52, 0
2, 42388, Note_on_c, 0, 54, 50
2, 42388, Note_on_c, 0, 52, 50
2, 42390, Note_on_c, 0, 49, 50
2, 42409, Note_on_c, 0, 66, 0
2, 42411, Note_on_c, 0, 54, 0
2, 42411, Note_on_c, 0, 52, 0
2, 42417, Note_on_c, 0, 67, 64
2, 42422, Note_on_c, 0, 49, 0
2, 42428, Note_on_c, 0, 59, 54
2, 42490, Note_on_c, 0, 67, 0
2, 42497, Note_on_c, 0, 66, 89
2, 42497, Note_on_c, 0, 61, 69
2, 42510, Note_on_c, 0, 59, 0
2, 42520, Note_on_c, 0, 66, 0
2, 42526, Control_c, 0, 64, 0
2, 42550, Note_on_c, 0, 61, 0
2, 42559, Note_on_c, 0, 47, 62
2, 42559, Note_on_c, 0, 35, 62
2, 42565, Note_on_c, 0, 66, 73
2, 42565, Note_on_c, 0, 62, 61
2, 42624, Note_on_c, 0, 50, 53
2, 42646, Control_c, 0, 64, 127
2, 42682, Note_on_c, 0, 54, 53
2, 42696, Note_on_c, 0, 66, 0
2, 42697, Note_on_c, 0, 50, 0
2, 42697, Note_on_c, 0, 47, 0
2, 42699, Note_on_c, 0, 35, 0
2, 42720, Note_on_c, 0, 54, 0
2, 42746, Note_on_c, 0, 59, 53
2, 42746, Note_on_c, 0, 54, 53
2, 42748, Note_on_c, 0, 50, 53
2, 42770, Note_on_c, 0, 54, 0
2, 42770, Note_on_c, 0, 59, 0
2, 42790, Note_on_c, 0, 62, 0
2, 42792, Note_on_c, 0, 50, 0
2, 42804, Note_on_c, 0, 65, 66
2, 42804, Note_on_c, 0, 61, 60
2, 42855, Note_on_c, 0, 61, 0
2, 42861, Note_on_c, 0, 66, 39
2, 42863, Note_on_c, 0, 59, 69
2, 42884, Note_on_c, 0, 66, 0
2, 42894, Note_on_c, 0, 59, 0
2, 42908, Control_c, 0, 64, 0
2, 42918, Note_on_c, 0, 66, 73
2, 42918, Note_on_c, 0, 58, 57
2, 42922, Note_on_c, 0, 65, 0
2, 42931, Note_on_c, 0, 42, 57
2, 42987, Note_on_c, 0, 49, 57
2, 43040, Control_c, 0, 64, 127
2, 43052, Note_on_c, 0, 49, 0
2, 43057, Note_on_c, 0, 52, 57
2, 43060, Note_on_c, 0, 42, 0
2, 43083, Note_on_c, 0, 58, 0
2, 43092, Note_on_c, 0, 52, 0
2, 43128, Note_on_c, 0, 54, 57
2, 43130, Note_on_c, 0, 52, 57
2, 43130, Note_on_c, 0, 49, 57
2, 43152, Note_on_c, 0, 66, 0
2, 43172, Note_on_c, 0, 52, 0
2, 43182, Note_on_c, 0, 54, 0
2, 43196, Note_on_c, 0, 67, 89
2, 43198, Note_on_c, 0, 59, 65
2, 43202, Note_on_c, 0, 49, 0
2, 43229, Note_on_c, 0, 67, 0
2, 43258, Note_on_c, 0, 59, 0
2, 43273, Note_on_c, 0, 66, 73
2, 43273, Note_on_c, 0, 61, 65
2, 43296, Note_on_c, 0, 61, 0
2, 43296, Note_on_c, 0, 66, 0
2, 43372, Control_c, 0, 64, 0
2, 43382, Note_on_c, 0, 78, 90
2, 43385, Note_on_c, 0, 66, 90
2, 43392, Note_on_c, 0, 74, 90
2, 43397, Note_on_c, 0, 47, 61
2, 43397, Note_on_c, 0, 35, 61
2, 43493, Note_on_c, 0, 50, 61
2, 43516, Control_c, 0, 64, 127
2, 43545, Note_on_c, 0, 35, 0
2, 43550, Note_on_c, 0, 74, 0
2, 43551, Note_on_c, 0, 66, 0
2, 43553, Note_on_c, 0, 50, 0
2, 43554, Note_on_c, 0, 47, 0
2, 43558, Note_on_c, 0, 54, 65
2, 43587, Note_on_c, 0, 54, 0
2, 43634, Note_on_c, 0, 59, 65
2, 43634, Note_on_c, 0, 54, 65
2, 43636, Note_on_c, 0, 50, 65
2, 43680, Note_on_c, 0, 50, 0
2, 43680, Note_on_c, 0, 54, 0
2, 43680, Note_on_c, 0, 59, 0
2, 43737, Note_on_c, 0, 74, 38
2, 43740, Note_on_c, 0, 78, 0
2, 43838, Note_on_c, 0, 71, 71
2, 43890, Note_on_c, 0, 74, 0
2, 43924, Note_on_c, 0, 80, 100
2, 43924, Control_c, 0, 64, 0
2, 43937, Note_on_c, 0, 71, 0
2, 44025, Note_on_c, 0, 74, 53
2, 44026, Note_on_c, 0, 71, 53
2, 44026, Note_on_c, 0, 65, 53
2, 44028, Note_on_c, 0, 54, 53
2, 44049, Note_on_c, 0, 71, 0
2, 44049, Note_on_c, 0, 74, 0
2, 44051, Note_on_c, 0, 54, 0
2, 44051, Note_on_c, 0, 65, 0
2, 44095, Note_on_c, 0, 74, 53
2, 44096, Note_on_c, 0, 71, 53
2, 44096, Note_on_c, 0, 65, 53
2, 44098, Note_on_c, 0, 54, 53
2, 44118, Note_on_c, 0, 80, 0
2, 44119, Note_on_c, 0, 65, 0
2, 44121, Note_on_c, 0, 54, 0
2, 44137, Note_on_c, 0, 74, 0
2, 44152, Note_on_c, 0, 78, 73
2, 44166, Note_on_c, 0, 71, 0
2, 44220, Note_on_c, 0, 69, 53
2, 44220, Note_on_c, 0, 73, 53
2, 44220, Note_on_c, 0, 66, 53
2, 44222, Note_on_c, 0, 54, 53
2, 44243, Note_on_c, 0, 66, 0
2, 44243, Note_on_c, 0, 73, 0
2, 44243, Note_on_c, 0, 69, 0
2, 44244, Note_on_c, 0, 54, 0
2, 44270, Note_on_c, 0, 69, 53
2, 44270, Note_on_c, 0, 73, 53
2, 44270, Note_on_c, 0, 66, 53
2, 44272, Note_on_c, 0, 54, 53
2, 44280, Note_on_c, 0, 78, 0
2, 44292, Note_on_c, 0, 66, 0
2, 44292, Note_on_c, 0, 54, 0
2, 44311, Note_on_c, 0, 69, 0
2, 44316, Note_on_c, 0, 77, 81
2, 44331, Note_on_c, 0, 73, 0
2, 44391, Note_on_c, 0, 71, 53
2, 44391, Note_on_c, 0, 68, 53
2, 44392, Note_on_c, 0, 54, 53
2, 44414, Note_on_c, 0, 68, 0
2, 44414, Note_on_c, 0, 71, 0
2, 44415, Note_on_c, 0, 54, 0
2, 44440, Note_on_c, 0, 71, 53
2, 44440, Note_on_c, 0, 68, 53
2, 44441, Note_on_c, 0, 54, 53
2, 44462, Note_on_c, 0, 77, 0
2, 44464, Note_on_c, 0, 54, 0
2, 44472, Note_on_c, 0, 71, 0
2, 44488, Note_on_c, 0, 74, 76
2, 44502, Note_on_c, 0, 68, 0
2, 44544, Note_on_c, 0, 71, 57
2, 44546, Note_on_c, 0, 66, 57
2, 44546, Note_on_c, 0, 68, 57
2, 44546, Note_on_c, 0, 54, 57
2, 44568, Note_on_c, 0, 68, 0
2, 44568, Note_on_c, 0, 66, 0
2, 44568, Note_on_c, 0, 71, 0
2, 44570, Note_on_c, 0, 54, 0
2, 44606, Note_on_c, 0, 71, 57
2, 44607, Note_on_c, 0, 66, 57
2, 44609, Note_on_c, 0, 54, 57
2, 44610, Note_on_c, 0, 74, 0
2, 44633, Note_on_c, 0, 66, 0
2, 44635, Note_on_c, 0, 54, 0
2, 44642, Note_on_c, 0, 71, 0
2, 44645, Control_c, 0, 64, 127
2, 44658, Note_on_c, 0, 73, 57
2, 44697, Control_c, 0, 64, 0
2, 44706, Note_on_c, 0, 71, 57
2, 44708, Note_on_c, 0, 68, 57
2, 44708, Note_on_c, 0, 65, 57
2, 44710, Note_on_c, 0, 54, 57
2, 44729, Note_on_c, 0, 71, 0
2, 44731, Note_on_c, 0, 65, 0
2, 44731, Note_on_c, 0, 68, 0
2, 44732, Note_on_c, 0, 54, 0
2, 44765, Note_on_c, 0, 71, 57
2, 44765, Note_on_c, 0, 65, 57
2, 44767, Note_on_c, 0, 54, 57
2, 44776, Note_on_c, 0, 68, 57
2, 44780, Note_on_c, 0, 73, 0
2, 44790, Note_on_c, 0, 65, 0
2, 44791, Note_on_c, 0, 54, 0
2, 44809, Note_on_c, 0, 68, 0
2, 44809, Note_on_c, 0, 71, 0
2, 44814, Note_on_c, 0, 74, 72
2, 44832, Control_c, 0, 64, 127
2, 44864, Note_on_c, 0, 68, 57
2, 44864, Note_on_c, 0, 66, 57
2, 44866, Note_on_c, 0, 59, 57
2, 44866, Note_on_c, 0, 54, 57
2, 44874, Note_on_c, 0, 56, 57
2, 44881, Control_c, 0, 64, 0
2, 44884, Note_on_c, 0, 66, 0
2, 44884, Note_on_c, 0, 68, 0
2, 44886, Note_on_c, 0, 59, 0
2, 44886, Note_on_c, 0, 54, 0
2, 44895, Note_on_c, 0, 56, 0
2, 44912, Note_on_c, 0, 66, 57
2, 44913, Note_on_c, 0, 59, 57
2, 44913, Note_on_c, 0, 54, 57
2, 44921, Note_on_c, 0, 68, 57
2, 44923, Note_on_c, 0, 56, 57
2, 44934, Note_on_c, 0, 59, 0
2, 44934, Note_on_c, 0, 66, 0
2, 44936, Note_on_c, 0, 54, 0
2, 44944, Note_on_c, 0, 68, 0
2, 44946, Note_on_c, 0, 56, 0
2, 44954, Note_on_c, 0, 74, 0
2, 44960, Note_on_c, 0, 73, 86
2, 44991, Control_c, 0, 64, 127
2, 45024, Note_on_c, 0, 59, 57
2, 45024, Note_on_c, 0, 65, 57
2, 45024, Note_on_c, 0, 68, 57
2, 45024, Note_on_c, 0, 54, 57
2, 45034, Control_c, 0, 64, 0
2, 45035, Note_on_c, 0, 56, 57
2, 45046, Note_on_c, 0, 68, 0
2, 45048, Note_on_c, 0, 54, 0
2, 45048, Note_on_c, 0, 65, 0
2, 45048, Note_on_c, 0, 59, 0
2, 45058, Note_on_c, 0, 56, 0
2, 45073, Note_on_c, 0, 68, 57
2, 45073, Note_on_c, 0, 65, 57
2, 45074, Note_on_c, 0, 59, 57
2, 45074, Note_on_c, 0, 54, 57
2, 45086, Note_on_c, 0, 73, 0
2, 45086, Note_on_c, 0, 56, 57
2, 45097, Note_on_c, 0, 59, 0
2, 45097, Note_on_c, 0, 54, 0
2, 45107, Note_on_c, 0, 56, 0
2, 45116, Note_on_c, 0, 65, 0
2, 45128, Control_c, 0, 64, 127
2, 45130, Note_on_c, 0, 74, 81
2, 45136, Note_on_c, 0, 68, 0
2, 45182, Control_c, 0, 64, 0
2, 45192, Note_on_c, 0, 68, 57
2, 45192, Note_on_c, 0, 66, 57
2, 45193, Note_on_c, 0, 56, 57
2, 45193, Note_on_c, 0, 59, 57
2, 45193, Note_on_c, 0, 54, 57
2, 45214, Note_on_c, 0, 66, 0
2, 45216, Note_on_c, 0, 68, 0
2, 45216, Note_on_c, 0, 56, 0
2, 45216, Note_on_c, 0, 59, 0
2, 45216, Note_on_c, 0, 54, 0
2, 45240, Note_on_c, 0, 68, 57
2, 45240, Note_on_c, 0, 66, 57
2, 45240, Note_on_c, 0, 56, 57
2, 45240, Note_on_c, 0, 59, 57
2, 45240, Note_on_c, 0, 54, 57
2, 45263, Note_on_c, 0, 66, 0
2, 45264, Note_on_c, 0, 59, 0
2, 45264, Note_on_c, 0, 56, 0
2, 45264, Note_on_c, 0, 54, 0
2, 45273, Note_on_c, 0, 68, 0
2, 45291, Note_on_c, 0, 74, 0
2, 45296, Note_on_c, 0, 73, 86
2, 45296, Control_c, 0, 64, 127
2, 45361, Note_on_c, 0, 68, 57
2, 45361, Note_on_c, 0, 65, 57
2, 45362, Note_on_c, 0, 59, 57
2, 45362, Note_on_c, 0, 54, 57
2, 45372, Note_on_c, 0, 56, 57
2, 45385, Note_on_c, 0, 54, 0
2, 45385, Note_on_c, 0, 59, 0
2, 45393, Note_on_c, 0, 65, 0
2, 45393, Note_on_c, 0, 68, 0
2, 45395, Note_on_c, 0, 56, 0
2, 45430, Note_on_c, 0, 68, 57
2, 45439, Note_on_c, 0, 65, 57
2, 45440, Note_on_c, 0, 56, 57
2, 45440, Note_on_c, 0, 59, 57
2, 45440, Note_on_c, 0, 54, 57
2, 45442, Note_on_c, 0, 73, 0
2, 45462, Note_on_c, 0, 59, 0
2, 45462, Note_on_c, 0, 56, 0
2, 45462, Note_on_c, 0, 54, 0
2, 45494, Control_c, 0, 64, 0
2, 45541, Note_on_c, 0, 76, 104
2, 45576, Note_on_c, 0, 68, 0
2, 45596, Note_on_c, 0, 65, 0
2, 45610, Control_c, 0, 64, 127
2, 45614, Note_on_c, 0, 59, 57
2, 45614, Note_on_c, 0, 66, 57
2, 45614, Note_on_c, 0, 54, 57
2, 45622, Note_on_c, 0, 68, 57
2, 45624, Note_on_c, 0, 56, 57
2, 45637, Note_on_c, 0, 54, 0
2, 45637, Note_on_c, 0, 59, 0
2, 45648, Note_on_c, 0, 56, 0
2, 45684, Note_on_c, 0, 76, 0
2, 45706, Note_on_c, 0, 68, 0
2, 45706, Note_on_c, 0, 66, 0
2, 45732, Note_on_c, 0, 68, 43
2, 45732, Note_on_c, 0, 74, 43
2, 45732, Note_on_c, 0, 66, 43
2, 45733, Note_on_c, 0, 56, 57
2, 45733, Note_on_c, 0, 59, 57
2, 45733, Note_on_c, 0, 54, 57
2, 45754, Note_on_c, 0, 56, 0
2, 45756, Note_on_c, 0, 59, 0
2, 45756, Note_on_c, 0, 54, 0
2, 45764, Note_on_c, 0, 66, 0
2, 45782, Note_on_c, 0, 74, 0
2, 45836, Control_c, 0, 64, 0
2, 45854, Note_on_c, 0, 74, 86
2, 45860, Note_on_c, 0, 42, 89
2, 45868, Note_on_c, 0, 68, 0
2, 45956, Control_c, 0, 64, 127
2, 45995, Note_on_c, 0, 42, 0
2, 46008, Note_on_c, 0, 62, 80
2, 46008, Note_on_c, 0, 56, 80
2, 46032, Note_on_c, 0, 56, 0
2, 46041, Note_on_c, 0, 62, 0
2, 46076, Note_on_c, 0, 65, 69
2, 46078, Note_on_c, 0, 59, 69
2, 46101, Note_on_c, 0, 59, 0
2, 46101, Note_on_c, 0, 65, 0
2, 46135, Note_on_c, 0, 68, 65
2, 46137, Note_on_c, 0, 62, 65
2, 46138, Note_on_c, 0, 74, 0
2, 46158, Note_on_c, 0, 68, 0
2, 46160, Note_on_c, 0, 62, 0
2, 46182, Note_on_c, 0, 65, 65
2, 46182, Note_on_c, 0, 59, 65
2, 46205, Note_on_c, 0, 65, 0
2, 46207, Note_on_c, 0, 59, 0
2, 46224, Note_on_c, 0, 62, 65
2, 46225, Note_on_c, 0, 56, 65
2, 46247, Note_on_c, 0, 62, 0
2, 46248, Note_on_c, 0, 56, 0
2, 46264, Note_on_c, 0, 65, 59
2, 46265, Note_on_c, 0, 59, 59
2, 46301, Note_on_c, 0, 65, 0
2, 46308, Note_on_c, 0, 68, 62
2, 46312, Note_on_c, 0, 59, 0
2, 46319, Note_on_c, 0, 62, 50
2, 46330, Note_on_c, 0, 68, 0
2, 46342, Note_on_c, 0, 62, 0
2, 46356, Note_on_c, 0, 71, 64
2, 46358, Note_on_c, 0, 65, 65
2, 46379, Note_on_c, 0, 71, 0
2, 46381, Note_on_c, 0, 65, 0
2, 46405, Note_on_c, 0, 74, 78
2, 46407, Note_on_c, 0, 68, 77
2, 46428, Note_on_c, 0, 74, 0
2, 46430, Note_on_c, 0, 68, 0
2, 46443, Note_on_c, 0, 77, 99
2, 46452, Note_on_c, 0, 71, 99
2, 46474, Note_on_c, 0, 77, 0
2, 46482, Note_on_c, 0, 80, 99
2, 46482, Note_on_c, 0, 74, 99
2, 46485, Note_on_c, 0, 71, 0
2, 46506, Note_on_c, 0, 74, 0
2, 46506, Note_on_c, 0, 80, 0
2, 46568, Note_on_c, 0, 83, 96
2, 46570, Note_on_c, 0, 77, 95
2, 46579, Note_on_c, 0, 80, 94
2, 46588, Note_on_c, 0, 89, 88
2, 46588, Note_on_c, 0, 86, 88
2, 46607, Note_on_c, 0, 95, 104
2, 46608, Note_on_c, 0, 92, 104
2, 46880, Note_on_c, 0, 95, 0
2, 46902, Note_on_c, 0, 80, 0
2, 46920, Note_on_c, 0, 86, 0
2, 46921, Note_on_c, 0, 77, 0
2, 46929, Note_on_c, 0, 92, 0
2, 46929, Note_on_c, 0, 89, 0
2, 46949, Note_on_c, 0, 83, 0
2, 47398, Control_c, 0, 64, 0
2, 47930, Note_on_c, 0, 74, 81
2, 47987, Control_c, 0, 64, 127
2, 48168, Note_on_c, 0, 74, 0
2, 48473, Control_c, 0, 64, 0
2, 48501, Note_on_c, 0, 73, 73
2, 48639, Control_c, 0, 64, 127
2, 48800, Note_on_c, 0, 73, 0
2, 49137, Control_c, 0, 64, 0
2, 49170, Note_on_c, 0, 71, 100
2, 49296, Control_c, 0, 64, 127
2, 49532, Note_on_c, 0, 71, 0
2, 49790, Control_c, 0, 64, 0
2, 49800, Note_on_c, 0, 69, 81
2, 49824, Note_on_c, 0, 42, 43
2, 49952, Note_on_c, 0, 61, 43
2, 49952, Note_on_c, 0, 54, 43
2, 49957, Note_on_c, 0, 42, 0
2, 49974, Note_on_c, 0, 54, 0
2, 49974, Note_on_c, 0, 61, 0
2, 50018, Note_on_c, 0, 66, 49
2, 50018, Note_on_c, 0, 57, 49
2, 50038, Note_on_c, 0, 66, 0
2, 50040, Note_on_c, 0, 57, 0
2, 50076, Note_on_c, 0, 61, 49
2, 50099, Note_on_c, 0, 61, 0
2, 50128, Note_on_c, 0, 66, 49
2, 50138, Note_on_c, 0, 57, 49
2, 50160, Note_on_c, 0, 57, 0
2, 50160, Note_on_c, 0, 66, 0
2, 50177, Note_on_c, 0, 61, 49
2, 50178, Note_on_c, 0, 54, 49
2, 50200, Note_on_c, 0, 61, 0
2, 50201, Note_on_c, 0, 54, 0
2, 50237, Note_on_c, 0, 62, 53
2, 50237, Note_on_c, 0, 54, 53
2, 50240, Note_on_c, 0, 47, 53
2, 50255, Note_on_c, 0, 47, 0
2, 50260, Note_on_c, 0, 62, 0
2, 50262, Note_on_c, 0, 54, 0
2, 50297, Note_on_c, 0, 66, 53
2, 50299, Note_on_c, 0, 59, 53
2, 50320, Note_on_c, 0, 59, 0
2, 50320, Note_on_c, 0, 66, 0
2, 50343, Note_on_c, 0, 71, 53
2, 50344, Note_on_c, 0, 62, 53
2, 50366, Note_on_c, 0, 62, 0
2, 50375, Note_on_c, 0, 71, 0
2, 50429, Note_on_c, 0, 74, 49
2, 50429, Note_on_c, 0, 66, 49
2, 50454, Note_on_c, 0, 66, 0
2, 50454, Note_on_c, 0, 74, 0
2, 50702, Note_on_c, 0, 69, 0
2, 50709, Note_on_c, 0, 68, 94
2, 50730, Note_on_c, 0, 40, 49
2, 50761, Note_on_c, 0, 40, 0
2, 50805, Note_on_c, 0, 59, 49
2, 50806, Note_on_c, 0, 52, 49
2, 50831, Note_on_c, 0, 59, 0
2, 50832, Note_on_c, 0, 52, 0
2, 50868, Note_on_c, 0, 62, 49
2, 50870, Note_on_c, 0, 56, 49
2, 50890, Note_on_c, 0, 62, 0
2, 50891, Note_on_c, 0, 56, 0
2, 50928, Note_on_c, 0, 59, 49
2, 50937, Note_on_c, 0, 64, 49
2, 50951, Note_on_c, 0, 59, 0
2, 50960, Note_on_c, 0, 64, 0
2, 50976, Note_on_c, 0, 62, 49
2, 50976, Note_on_c, 0, 56, 49
2, 50998, Note_on_c, 0, 56, 0
2, 50998, Note_on_c, 0, 62, 0
2, 51024, Note_on_c, 0, 59, 50
2, 51024, Note_on_c, 0, 52, 50
2, 51046, Note_on_c, 0, 59, 0
2, 51047, Note_on_c, 0, 52, 0
2, 51082, Note_on_c, 0, 61, 53
2, 51083, Note_on_c, 0, 52, 53
2, 51083, Note_on_c, 0, 45, 53
2, 51103, Note_on_c, 0, 52, 0
2, 51103, Note_on_c, 0, 61, 0
2, 51104, Note_on_c, 0, 45, 0
2, 51138, Note_on_c, 0, 64, 53
2, 51138, Note_on_c, 0, 57, 53
2, 51163, Note_on_c, 0, 57, 0
2, 51163, Note_on_c, 0, 64, 0
2, 51197, Note_on_c, 0, 69, 49
2, 51199, Note_on_c, 0, 61, 49
2, 51222, Note_on_c, 0, 61, 0
2, 51222, Note_on_c, 0, 69, 0
2, 51286, Note_on_c, 0, 73, 49
2, 51286, Note_on_c, 0, 64, 49
2, 51308, Note_on_c, 0, 64, 0
2, 51314, Note_on_c, 0, 73, 0
2, 51519, Note_on_c, 0, 66, 100
2, 51524, Note_on_c, 0, 38, 62
2, 51532, Note_on_c, 0, 68, 0
2, 51547, Note_on_c, 0, 38, 0
2, 51607, Note_on_c, 0, 57, 49
2, 51609, Note_on_c, 0, 50, 49
2, 51628, Note_on_c, 0, 57, 0
2, 51632, Note_on_c, 0, 50, 0
2, 51664, Note_on_c, 0, 62, 49
2, 51666, Note_on_c, 0, 54, 49
2, 51688, Note_on_c, 0, 62, 0
2, 51697, Note_on_c, 0, 54, 0
2, 51713, Note_on_c, 0, 69, 49
2, 51713, Note_on_c, 0, 57, 49
2, 51736, Note_on_c, 0, 57, 0
2, 51755, Note_on_c, 0, 69, 0
2, 51765, Note_on_c, 0, 62, 49
2, 51765, Note_on_c, 0, 54, 49
2, 51789, Note_on_c, 0, 54, 0
2, 51789, Note_on_c, 0, 62, 0
2, 51816, Note_on_c, 0, 57, 49
2, 51816, Note_on_c, 0, 50, 49
2, 51840, Note_on_c, 0, 50, 0
2, 51840, Note_on_c, 0, 57, 0
2, 51864, Note_on_c, 0, 59, 49
2, 51868, Note_on_c, 0, 47, 49
2, 51889, Note_on_c, 0, 47, 0
2, 51889, Note_on_c, 0, 59, 0
2, 51924, Note_on_c, 0, 62, 49
2, 51924, Note_on_c, 0, 54, 49
2, 51946, Note_on_c, 0, 54, 0
2, 51946, Note_on_c, 0, 62, 0
2, 51983, Note_on_c, 0, 68, 49
2, 51983, Note_on_c, 0, 59, 49
2, 52004, Note_on_c, 0, 68, 0
2, 52006, Note_on_c, 0, 59, 0
2, 52038, Note_on_c, 0, 71, 49
2, 52038, Note_on_c, 0, 62, 49
2, 52061, Note_on_c, 0, 62, 0
2, 52061, Note_on_c, 0, 71, 0
2, 52248, Note_on_c, 0, 59, 49
2, 52250, Note_on_c, 0, 47, 49
2, 52272, Note_on_c, 0, 59, 0
2, 52282, Note_on_c, 0, 47, 0
2, 52316, Note_on_c, 0, 62, 49
2, 52316, Note_on_c, 0, 54, 49
2, 52339, Note_on_c, 0, 62, 0
2, 52341, Note_on_c, 0, 54, 0
2, 52374, Note_on_c, 0, 68, 49
2, 52377, Note_on_c, 0, 59, 49
2, 52398, Note_on_c, 0, 59, 0
2, 52398, Note_on_c, 0, 68, 0
2, 52474, Note_on_c, 0, 71, 49
2, 52476, Note_on_c, 0, 62, 49
2, 52497, Note_on_c, 0, 62, 0
2, 52497, Note_on_c, 0, 71, 0
2, 52657, Note_on_c, 0, 66, 0
2, 52692, Note_on_c, 0, 65, 58
2, 52704, Note_on_c, 0, 59, 49
2, 52704, Note_on_c, 0, 47, 49
2, 52726, Note_on_c, 0, 59, 0
2, 52728, Note_on_c, 0, 47, 0
2, 52793, Note_on_c, 0, 62, 49
2, 52793, Note_on_c, 0, 54, 49
2, 52816, Note_on_c, 0, 62, 0
2, 52818, Note_on_c, 0, 54, 0
2, 52872, Note_on_c, 0, 68, 49
2, 52883, Note_on_c, 0, 59, 49
2, 52896, Note_on_c, 0, 68, 0
2, 52906, Note_on_c, 0, 59, 0
2, 53006, Note_on_c, 0, 71, 49
2, 53008, Note_on_c, 0, 62, 49
2, 53029, Note_on_c, 0, 62, 0
2, 53029, Note_on_c, 0, 71, 0
2, 53348, Note_on_c, 0, 65, 0
2, 53355, Note_on_c, 0, 66, 49
2, 53356, Note_on_c, 0, 42, 49
2, 53356, Note_on_c, 0, 30, 49
2, 53418, Control_c, 0, 64, 127
2, 53441, Note_on_c, 0, 42, 0
2, 53442, Note_on_c, 0, 30, 0
2, 53512, Note_on_c, 0, 57, 49
2, 53514, Note_on_c, 0, 49, 49
2, 53535, Note_on_c, 0, 49, 0
2, 53535, Note_on_c, 0, 57, 0
2, 53578, Note_on_c, 0, 61, 49
2, 53578, Note_on_c, 0, 54, 49
2, 53597, Note_on_c, 0, 61, 0
2, 53599, Note_on_c, 0, 54, 0
2, 53641, Note_on_c, 0, 69, 49
2, 53643, Note_on_c, 0, 57, 49
2, 53666, Note_on_c, 0, 57, 0
2, 53666, Note_on_c, 0, 69, 0
2, 53703, Note_on_c, 0, 61, 49
2, 53704, Note_on_c, 0, 54, 49
2, 53727, Note_on_c, 0, 54, 0
2, 53727, Note_on_c, 0, 61, 0
2, 53765, Note_on_c, 0, 57, 49
2, 53765, Note_on_c, 0, 49, 49
2, 53786, Note_on_c, 0, 57, 0
2, 53788, Note_on_c, 0, 49, 0
2, 53826, Note_on_c, 0, 42, 49
2, 53848, Note_on_c, 0, 42, 0
2, 53882, Note_on_c, 0, 57, 49
2, 53882, Note_on_c, 0, 49, 49
2, 53904, Note_on_c, 0, 57, 0
2, 53905, Note_on_c, 0, 49, 0
2, 53928, Note_on_c, 0, 61, 49
2, 53929, Note_on_c, 0, 54, 49
2, 53952, Note_on_c, 0, 54, 0
2, 53952, Note_on_c, 0, 61, 0
2, 53976, Note_on_c, 0, 69, 49
2, 53976, Note_on_c, 0, 57, 49
2, 54000, Note_on_c, 0, 57, 0
2, 54020, Note_on_c, 0, 69, 0
2, 54038, Note_on_c, 0, 61, 49
2, 54038, Note_on_c, 0, 54, 49
2, 54062, Note_on_c, 0, 61, 0
2, 54064, Note_on_c, 0, 54, 0
2, 54072, Note_on_c, 0, 66, 0
2, 54098, Note_on_c, 0, 57, 49
2, 54100, Note_on_c, 0, 49, 49
2, 54119, Note_on_c, 0, 57, 0
2, 54120, Note_on_c, 0, 49, 0
2, 54155, Note_on_c, 0, 42, 49
2, 54178, Note_on_c, 0, 42, 0
2, 54199, Note_on_c, 0, 57, 49
2, 54201, Note_on_c, 0, 49, 49
2, 54222, Note_on_c, 0, 57, 0
2, 54224, Note_on_c, 0, 49, 0
2, 54258, Note_on_c, 0, 61, 49
2, 54258, Note_on_c, 0, 54, 49
2, 54280, Note_on_c, 0, 61, 0
2, 54282, Note_on_c, 0, 54, 0
2, 54305, Note_on_c, 0, 66, 53
2, 54305, Note_on_c, 0, 57, 53
2, 54328, Note_on_c, 0, 57, 0
2, 54328, Note_on_c, 0, 66, 0
2, 54352, Note_on_c, 0, 69, 53
2, 54352, Note_on_c, 0, 61, 53
2, 54375, Note_on_c, 0, 61, 0
2, 54386, Note_on_c, 0, 69, 0
2, 54412, Note_on_c, 0, 73, 53
2, 54414, Note_on_c, 0, 66, 53
2, 54435, Note_on_c, 0, 73, 0
2, 54437, Note_on_c, 0, 66, 0
2, 54472, Note_on_c, 0, 78, 53
2, 54474, Note_on_c, 0, 69, 53
2, 54504, Note_on_c, 0, 69, 0
2, 54504, Note_on_c, 0, 78, 0
2, 54530, Note_on_c, 0, 73, 53
2, 54530, Note_on_c, 0, 66, 53
2, 54552, Note_on_c, 0, 66, 0
2, 54552, Note_on_c, 0, 73, 0
2, 54598, Note_on_c, 0, 69, 53
2, 54599, Note_on_c, 0, 61, 53
2, 54622, Note_on_c, 0, 61, 0
2, 54622, Note_on_c, 0, 69, 0
2, 54656, Note_on_c, 0, 73, 50
2, 54658, Note_on_c, 0, 66, 50
2, 54681, Note_on_c, 0, 66, 0
2, 54681, Note_on_c, 0, 73, 0
2, 54712, Note_on_c, 0, 78, 49
2, 54713, Note_on_c, 0, 69, 49
2, 54736, Note_on_c, 0, 78, 0
2, 54738, Note_on_c, 0, 69, 0
2, 54782, Note_on_c, 0, 81, 49
2, 54783, Note_on_c, 0, 73, 49
2, 54806, Note_on_c, 0, 81, 0
2, 54808, Note_on_c, 0, 73, 0
2, 54850, Note_on_c, 0, 78, 49
2, 54852, Note_on_c, 0, 85, 49
2, 54871, Note_on_c, 0, 78, 0
2, 54873, Note_on_c, 0, 85, 0
2, 54914, Note_on_c, 0, 81, 49
2, 54915, Note_on_c, 0, 73, 49
2, 54936, Note_on_c, 0, 81, 0
2, 54948, Note_on_c, 0, 73, 0
2, 54995, Note_on_c, 0, 85, 38
2, 54995, Note_on_c, 0, 78, 38
2, 55019, Note_on_c, 0, 85, 0
2, 55030, Note_on_c, 0, 78, 0
2, 55115, Note_on_c, 0, 90, 37
2, 55117, Note_on_c, 0, 81, 37
2, 55140, Note_on_c, 0, 81, 0
2, 55148, Note_on_c, 0, 90, 0
2, 55484, Control_c, 0, 67, 127
2, 55724, Note_on_c, 0, 61, 44
2, 55734, Note_on_c, 0, 57, 44
2, 55734, Note_on_c, 0, 54, 44
2, 55735, Note_on_c, 0, 42, 44
2, 55737, Note_on_c, 0, 30, 44
2, 55804, Note_on_c, 0, 54, 0
2, 55804, Note_on_c, 0, 57, 0
2, 55821, Note_on_c, 0, 61, 0
2, 55824, Note_on_c, 0, 30, 0
2, 55824, Note_on_c, 0, 42, 0
2, 56096, Control_c, 0, 64, 0
2, 56137, Note_on_c, 0, 66, 48
2, 56147, Note_on_c, 0, 57, 48
2, 56147, Note_on_c, 0, 54, 48
2, 56150, Note_on_c, 0, 42, 48
2, 56150, Note_on_c, 0, 30, 48
2, 56156, Note_on_c, 0, 61, 48
2, 56259, Control_c, 0, 64, 127
2, 56339, Note_on_c, 0, 57, 0
2, 56370, Note_on_c, 0, 54, 0
2, 56453, Note_on_c, 0, 66, 0
2, 56485, Note_on_c, 0, 42, 0
2, 56511, Control_c, 0, 67, 0
2, 56521, Note_on_c, 0, 61, 0
2, 56526, Note_on_c, 0, 30, 0
2, 57152, Control_c, 0, 64, 0
2, 57152, End_track
0, 0, End_of_file
