0, 0, Header, 0, 1, 384
1, 0, Start_track
1, 0, Title_t, "Lieder ohne Worte - Trauermarsch"
1, 0, Time_signature, 4, 2, 24, 8
1, 0, Key_signature, 0, "major"
1, 0, Tempo, 512821
1, 0, Program_c, 0, 0
1, 0, Control_c, 0, 7, 115
1, 0, Control_c, 0, 91, 127
1, 3, Program_c, 0, 0
1, 3, Control_c, 0, 64, 0
1, 1210, Note_on_c, 0, 59, 76
1, 1210, Note_on_c, 0, 64, 86
1, 1210, Note_on_c, 0, 52, 60
1, 1213, Note_on_c, 0, 55, 69
1, 1260, Note_on_c, 0, 55, 0
1, 1260, Note_on_c, 0, 59, 0
1, 1260, Note_on_c, 0, 64, 0
1, 1263, Note_on_c, 0, 52, 0
1, 1310, Note_on_c, 0, 59, 76
1, 1310, Note_on_c, 0, 64, 86
1, 1310, Note_on_c, 0, 52, 60
1, 1313, Note_on_c, 0, 55, 69
1, 1359, Note_on_c, 0, 55, 0
1, 1359, Note_on_c, 0, 59, 0
1, 1359, Note_on_c, 0, 64, 0
1, 1362, Note_on_c, 0, 52, 0
1, 1409, Note_on_c, 0, 59, 76
1, 1409, Note_on_c, 0, 64, 86
1, 1409, Note_on_c, 0, 52, 60
1, 1412, Note_on_c, 0, 55, 69
1, 1459, Note_on_c, 0, 55, 0
1, 1459, Note_on_c, 0, 59, 0
1, 1459, Note_on_c, 0, 64, 0
1, 1462, Note_on_c, 0, 52, 0
1, 1509, Note_on_c, 0, 59, 80
1, 1509, Note_on_c, 0, 64, 90
1, 1509, Note_on_c, 0, 52, 63
1, 1512, Note_on_c, 0, 55, 73
1, 2473, Note_on_c, 0, 64, 0
1, 2473, Note_on_c, 0, 59, 0
1, 2473, Note_on_c, 0, 59, 76
1, 2476, Note_on_c, 0, 52, 0
1, 2476, Note_on_c, 0, 55, 0
1, 2476, Note_on_c, 0, 64, 86
1, 2479, Note_on_c, 0, 52, 60
1, 2479, Note_on_c, 0, 55, 69
1, 2523, Note_on_c, 0, 55, 0
1, 2523, Note_on_c, 0, 59, 0
1, 2523, Note_on_c, 0, 64, 0
1, 2526, Note_on_c, 0, 52, 0
1, 2573, Note_on_c, 0, 59, 76
1, 2573, Note_on_c, 0, 64, 86
1, 2573, Note_on_c, 0, 52, 60
1, 2576, Note_on_c, 0, 55, 69
1, 2623, Note_on_c, 0, 55, 0
1, 2623, Note_on_c, 0, 59, 0
1, 2623, Note_on_c, 0, 64, 0
1, 2626, Note_on_c, 0, 52, 0
1, 2674, Note_on_c, 0, 59, 76
1, 2674, Note_on_c, 0, 64, 86
1, 2674, Note_on_c, 0, 52, 60
1, 2677, Note_on_c, 0, 55, 69
1, 2724, Note_on_c, 0, 55, 0
1, 2724, Note_on_c, 0, 59, 0
1, 2724, Note_on_c, 0, 64, 0
1, 2727, Note_on_c, 0, 52, 0
1, 2774, Note_on_c, 0, 59, 80
1, 2774, Note_on_c, 0, 64, 90
1, 2774, Note_on_c, 0, 52, 63
1, 2777, Note_on_c, 0, 55, 73
1, 3738, Note_on_c, 0, 64, 0
1, 3738, Note_on_c, 0, 59, 0
1, 3738, Note_on_c, 0, 59, 76
1, 3741, Note_on_c, 0, 52, 0
1, 3741, Note_on_c, 0, 55, 0
1, 3741, Note_on_c, 0, 64, 86
1, 3744, Note_on_c, 0, 52, 60
1, 3744, Note_on_c, 0, 55, 69
1, 3787, Note_on_c, 0, 55, 0
1, 3787, Note_on_c, 0, 59, 0
1, 3787, Note_on_c, 0, 64, 0
1, 3790, Note_on_c, 0, 52, 0
1, 3837, Note_on_c, 0, 59, 76
1, 3837, Note_on_c, 0, 64, 86
1, 3837, Note_on_c, 0, 52, 60
1, 3840, Note_on_c, 0, 55, 69
1, 3887, Note_on_c, 0, 55, 0
1, 3887, Note_on_c, 0, 59, 0
1, 3887, Note_on_c, 0, 64, 0
1, 3890, Note_on_c, 0, 52, 0
1, 3936, Note_on_c, 0, 59, 76
1, 3936, Note_on_c, 0, 64, 86
1, 3936, Note_on_c, 0, 52, 60
1, 3939, Note_on_c, 0, 55, 69
1, 3986, Note_on_c, 0, 55, 0
1, 3986, Note_on_c, 0, 59, 0
1, 3986, Note_on_c, 0, 64, 0
1, 3989, Note_on_c, 0, 52, 0
1, 4035, Note_on_c, 0, 59, 80
1, 4035, Note_on_c, 0, 64, 80
1, 4035, Note_on_c, 0, 67, 90
1, 4038, Note_on_c, 0, 40, 63
1, 4038, Note_on_c, 0, 52, 73
1, 4393, Control_c, 0, 64, 127
1, 5320, Note_on_c, 0, 67, 0
1, 5320, Note_on_c, 0, 59, 0
1, 5320, Note_on_c, 0, 64, 0
1, 5323, Note_on_c, 0, 55, 72
1, 5323, Note_on_c, 0, 59, 72
1, 5323, Note_on_c, 0, 64, 82
1, 5690, Control_c, 0, 64, 0
1, 5986, Note_on_c, 0, 64, 0
1, 5986, Note_on_c, 0, 55, 0
1, 5986, Note_on_c, 0, 59, 0
1, 5989, Note_on_c, 0, 40, 0
1, 5989, Note_on_c, 0, 52, 0
1, 6319, Note_on_c, 0, 76, 82
1, 6319, Note_on_c, 0, 71, 82
1, 6319, Note_on_c, 0, 83, 93
1, 6322, Note_on_c, 0, 64, 65
1, 6322, Note_on_c, 0, 67, 74
1, 6369, Note_on_c, 0, 83, 0
1, 6369, Note_on_c, 0, 76, 0
1, 6369, Note_on_c, 0, 71, 0
1, 6372, Note_on_c, 0, 64, 0
1, 6372, Note_on_c, 0, 67, 0
1, 6419, Note_on_c, 0, 76, 82
1, 6419, Note_on_c, 0, 71, 82
1, 6419, Note_on_c, 0, 83, 93
1, 6422, Note_on_c, 0, 64, 65
1, 6422, Note_on_c, 0, 67, 74
1, 6469, Note_on_c, 0, 83, 0
1, 6469, Note_on_c, 0, 76, 0
1, 6469, Note_on_c, 0, 71, 0
1, 6472, Note_on_c, 0, 64, 0
1, 6472, Note_on_c, 0, 67, 0
1, 6519, Note_on_c, 0, 76, 82
1, 6519, Note_on_c, 0, 71, 82
1, 6519, Note_on_c, 0, 83, 93
1, 6522, Note_on_c, 0, 64, 65
1, 6522, Note_on_c, 0, 67, 74
1, 6569, Note_on_c, 0, 83, 0
1, 6569, Note_on_c, 0, 76, 0
1, 6569, Note_on_c, 0, 71, 0
1, 6572, Note_on_c, 0, 64, 0
1, 6572, Note_on_c, 0, 67, 0
1, 6618, Note_on_c, 0, 75, 87
1, 6618, Note_on_c, 0, 71, 87
1, 6618, Note_on_c, 0, 83, 98
1, 6621, Note_on_c, 0, 59, 68
1, 6621, Note_on_c, 0, 66, 79
1, 7582, Note_on_c, 0, 83, 0
1, 7582, Note_on_c, 0, 75, 0
1, 7582, Note_on_c, 0, 71, 0
1, 7585, Note_on_c, 0, 76, 82
1, 7585, Note_on_c, 0, 71, 82
1, 7585, Note_on_c, 0, 83, 93
1, 7588, Note_on_c, 0, 59, 0
1, 7588, Note_on_c, 0, 66, 0
1, 7588, Note_on_c, 0, 64, 65
1, 7591, Note_on_c, 0, 67, 74
1, 7632, Note_on_c, 0, 71, 0
1, 7632, Note_on_c, 0, 83, 0
1, 7632, Note_on_c, 0, 76, 0
1, 7635, Note_on_c, 0, 64, 0
1, 7635, Note_on_c, 0, 67, 0
1, 7682, Note_on_c, 0, 76, 82
1, 7682, Note_on_c, 0, 71, 82
1, 7682, Note_on_c, 0, 83, 93
1, 7685, Note_on_c, 0, 64, 65
1, 7685, Note_on_c, 0, 67, 74
1, 7733, Note_on_c, 0, 83, 0
1, 7733, Note_on_c, 0, 76, 0
1, 7733, Note_on_c, 0, 71, 0
1, 7736, Note_on_c, 0, 64, 0
1, 7736, Note_on_c, 0, 67, 0
1, 7783, Note_on_c, 0, 76, 82
1, 7783, Note_on_c, 0, 71, 82
1, 7783, Note_on_c, 0, 83, 93
1, 7786, Note_on_c, 0, 64, 65
1, 7786, Note_on_c, 0, 67, 74
1, 7833, Note_on_c, 0, 83, 0
1, 7833, Note_on_c, 0, 76, 0
1, 7833, Note_on_c, 0, 71, 0
1, 7836, Note_on_c, 0, 64, 0
1, 7836, Note_on_c, 0, 67, 0
1, 7883, Note_on_c, 0, 75, 87
1, 7883, Note_on_c, 0, 71, 87
1, 7883, Note_on_c, 0, 83, 98
1, 7886, Note_on_c, 0, 59, 68
1, 7886, Note_on_c, 0, 66, 79
1, 8847, Note_on_c, 0, 83, 0
1, 8847, Note_on_c, 0, 75, 0
1, 8847, Note_on_c, 0, 71, 0
1, 8850, Note_on_c, 0, 76, 82
1, 8850, Note_on_c, 0, 71, 82
1, 8850, Note_on_c, 0, 83, 93
1, 8853, Note_on_c, 0, 59, 0
1, 8853, Note_on_c, 0, 66, 0
1, 8853, Note_on_c, 0, 64, 65
1, 8856, Note_on_c, 0, 67, 74
1, 8896, Note_on_c, 0, 71, 0
1, 8896, Note_on_c, 0, 83, 0
1, 8896, Note_on_c, 0, 76, 0
1, 8899, Note_on_c, 0, 64, 0
1, 8899, Note_on_c, 0, 67, 0
1, 8946, Note_on_c, 0, 76, 82
1, 8946, Note_on_c, 0, 71, 82
1, 8946, Note_on_c, 0, 83, 93
1, 8949, Note_on_c, 0, 64, 65
1, 8949, Note_on_c, 0, 67, 74
1, 8996, Note_on_c, 0, 83, 0
1, 8996, Note_on_c, 0, 76, 0
1, 8996, Note_on_c, 0, 71, 0
1, 8999, Note_on_c, 0, 64, 0
1, 8999, Note_on_c, 0, 67, 0
1, 9045, Note_on_c, 0, 76, 82
1, 9045, Note_on_c, 0, 71, 82
1, 9045, Note_on_c, 0, 83, 93
1, 9048, Note_on_c, 0, 64, 65
1, 9048, Note_on_c, 0, 67, 74
1, 9095, Note_on_c, 0, 83, 0
1, 9095, Note_on_c, 0, 76, 0
1, 9095, Note_on_c, 0, 71, 0
1, 9098, Note_on_c, 0, 64, 0
1, 9098, Note_on_c, 0, 67, 0
1, 9145, Note_on_c, 0, 75, 87
1, 9145, Note_on_c, 0, 78, 87
1, 9145, Note_on_c, 0, 87, 98
1, 9148, Note_on_c, 0, 59, 68
1, 9148, Note_on_c, 0, 63, 68
1, 9148, Note_on_c, 0, 66, 68
1, 9151, Note_on_c, 0, 71, 79
1, 9502, Control_c, 0, 64, 127
1, 10429, Note_on_c, 0, 87, 0
1, 10429, Note_on_c, 0, 75, 0
1, 10429, Note_on_c, 0, 78, 0
1, 10432, Note_on_c, 0, 78, 71
1, 10432, Note_on_c, 0, 90, 81
1, 10799, Control_c, 0, 64, 0
1, 11092, Note_on_c, 0, 59, 0
1, 11095, Note_on_c, 0, 78, 0
1, 11095, Note_on_c, 0, 90, 0
1, 11095, Note_on_c, 0, 57, 67
1, 11098, Note_on_c, 0, 66, 0
1, 11098, Note_on_c, 0, 63, 0
1, 11098, Note_on_c, 0, 59, 78
1, 11101, Note_on_c, 0, 71, 0
1, 11761, Note_on_c, 0, 59, 0
1, 11761, Note_on_c, 0, 57, 0
1, 11761, Note_on_c, 0, 55, 69
1, 11764, Note_on_c, 0, 59, 69
1, 11764, Note_on_c, 0, 64, 80
1, 11764, Note_on_c, 0, 28, 62
1, 11767, Note_on_c, 0, 40, 72
1, 12408, Note_on_c, 0, 64, 0
1, 12408, Note_on_c, 0, 55, 0
1, 12408, Note_on_c, 0, 59, 0
1, 12411, Note_on_c, 0, 55, 69
1, 12411, Note_on_c, 0, 59, 69
1, 12411, Note_on_c, 0, 64, 80
1, 13074, Note_on_c, 0, 64, 0
1, 13074, Note_on_c, 0, 55, 0
1, 13074, Note_on_c, 0, 59, 0
1, 13077, Note_on_c, 0, 59, 70
1, 13077, Note_on_c, 0, 64, 70
1, 13077, Note_on_c, 0, 67, 81
1, 13721, Note_on_c, 0, 67, 0
1, 13721, Note_on_c, 0, 59, 0
1, 13721, Note_on_c, 0, 64, 0
1, 13724, Note_on_c, 0, 59, 70
1, 13724, Note_on_c, 0, 66, 70
1, 13724, Note_on_c, 0, 69, 81
1, 14387, Note_on_c, 0, 69, 0
1, 14387, Note_on_c, 0, 59, 0
1, 14387, Note_on_c, 0, 66, 0
1, 14390, Note_on_c, 0, 59, 71
1, 14390, Note_on_c, 0, 64, 71
1, 14390, Note_on_c, 0, 67, 71
1, 14393, Note_on_c, 0, 28, 0
1, 14393, Note_on_c, 0, 40, 0
1, 14393, Note_on_c, 0, 71, 82
1, 14396, Note_on_c, 0, 40, 60
1, 14396, Note_on_c, 0, 52, 69
1, 15053, Note_on_c, 0, 71, 0
1, 15053, Note_on_c, 0, 64, 0
1, 15053, Note_on_c, 0, 59, 0
1, 15056, Note_on_c, 0, 67, 0
1, 15056, Note_on_c, 0, 64, 68
1, 15056, Note_on_c, 0, 66, 68
1, 15059, Note_on_c, 0, 69, 79
1, 15163, Note_on_c, 0, 69, 0
1, 15163, Note_on_c, 0, 64, 0
1, 15163, Note_on_c, 0, 66, 0
1, 15273, Note_on_c, 0, 64, 68
1, 15273, Note_on_c, 0, 67, 68
1, 15273, Note_on_c, 0, 71, 79
1, 15383, Note_on_c, 0, 71, 0
1, 15383, Note_on_c, 0, 64, 0
1, 15383, Note_on_c, 0, 67, 0
1, 15489, Note_on_c, 0, 64, 68
1, 15489, Note_on_c, 0, 69, 68
1, 15489, Note_on_c, 0, 72, 79
1, 15594, Note_on_c, 0, 72, 0
1, 15594, Note_on_c, 0, 64, 0
1, 15594, Note_on_c, 0, 69, 0
1, 15700, Note_on_c, 0, 64, 72
1, 15700, Note_on_c, 0, 67, 72
1, 15700, Note_on_c, 0, 71, 83
1, 16356, Note_on_c, 0, 71, 0
1, 16356, Note_on_c, 0, 64, 0
1, 16356, Note_on_c, 0, 67, 0
1, 16359, Note_on_c, 0, 59, 67
1, 16359, Note_on_c, 0, 64, 67
1, 16359, Note_on_c, 0, 67, 78
1, 16848, Note_on_c, 0, 67, 0
1, 16848, Note_on_c, 0, 59, 0
1, 16848, Note_on_c, 0, 64, 0
1, 16851, Note_on_c, 0, 66, 71
1, 16851, Note_on_c, 0, 69, 82
1, 17012, Note_on_c, 0, 69, 0
1, 17012, Note_on_c, 0, 66, 0
1, 17012, Note_on_c, 0, 64, 71
1, 17015, Note_on_c, 0, 52, 0
1, 17015, Note_on_c, 0, 67, 71
1, 17015, Note_on_c, 0, 71, 82
1, 17018, Note_on_c, 0, 40, 0
1, 17018, Note_on_c, 0, 40, 60
1, 17018, Note_on_c, 0, 52, 69
1, 17655, Note_on_c, 0, 64, 0
1, 17655, Note_on_c, 0, 71, 0
1, 17655, Note_on_c, 0, 67, 0
1, 17658, Note_on_c, 0, 64, 69
1, 17658, Note_on_c, 0, 67, 69
1, 17658, Note_on_c, 0, 71, 81
1, 18326, Note_on_c, 0, 71, 0
1, 18326, Note_on_c, 0, 64, 0
1, 18326, Note_on_c, 0, 67, 0
1, 18329, Note_on_c, 0, 69, 76
1, 18329, Note_on_c, 0, 72, 76
1, 18329, Note_on_c, 0, 79, 88
1, 18332, Note_on_c, 0, 40, 0
1, 18332, Note_on_c, 0, 52, 0
1, 18332, Note_on_c, 0, 33, 63
1, 18335, Note_on_c, 0, 45, 73
1, 19002, Note_on_c, 0, 72, 0
1, 19002, Note_on_c, 0, 79, 0
1, 19002, Note_on_c, 0, 69, 0
1, 19005, Note_on_c, 0, 69, 71
1, 19005, Note_on_c, 0, 72, 71
1, 19005, Note_on_c, 0, 78, 83
1, 19699, Note_on_c, 0, 78, 0
1, 19699, Note_on_c, 0, 69, 0
1, 19699, Note_on_c, 0, 72, 0
1, 19702, Note_on_c, 0, 67, 65
1, 19702, Note_on_c, 0, 71, 65
1, 19702, Note_on_c, 0, 76, 75
1, 19705, Note_on_c, 0, 33, 0
1, 19705, Note_on_c, 0, 45, 0
1, 19705, Note_on_c, 0, 35, 60
1, 19708, Note_on_c, 0, 47, 69
1, 21093, Note_on_c, 0, 71, 0
1, 21093, Note_on_c, 0, 76, 0
1, 21093, Note_on_c, 0, 67, 0
1, 21096, Note_on_c, 0, 66, 55
1, 21096, Note_on_c, 0, 71, 55
1, 21096, Note_on_c, 0, 75, 64
1, 21790, Note_on_c, 0, 75, 0
1, 21790, Note_on_c, 0, 66, 0
1, 21790, Note_on_c, 0, 71, 0
1, 21793, Note_on_c, 0, 35, 0
1, 21793, Note_on_c, 0, 47, 0
1, 21793, Note_on_c, 0, 66, 59
1, 21796, Note_on_c, 0, 59, 54
1, 22461, Note_on_c, 0, 59, 0
1, 22461, Note_on_c, 0, 66, 0
1, 22461, Note_on_c, 0, 67, 63
1, 22464, Note_on_c, 0, 64, 58
1, 23108, Note_on_c, 0, 67, 0
1, 23108, Note_on_c, 0, 66, 55
1, 23108, Note_on_c, 0, 67, 64
1, 23111, Note_on_c, 0, 64, 0
1, 23111, Note_on_c, 0, 62, 58
1, 23774, Note_on_c, 0, 67, 0
1, 23774, Note_on_c, 0, 66, 0
1, 23774, Note_on_c, 0, 64, 55
1, 23777, Note_on_c, 0, 62, 0
1, 23777, Note_on_c, 0, 67, 64
1, 23777, Note_on_c, 0, 60, 58
1, 24421, Note_on_c, 0, 67, 0
1, 24421, Note_on_c, 0, 64, 0
1, 24421, Note_on_c, 0, 62, 55
1, 24424, Note_on_c, 0, 60, 0
1, 24424, Note_on_c, 0, 67, 63
1, 24424, Note_on_c, 0, 59, 58
1, 25003, Note_on_c, 0, 64, 10
1, 25003, Note_on_c, 0, 64, 0
1, 25087, Note_on_c, 0, 62, 0
1, 25087, Note_on_c, 0, 67, 0
1, 25087, Note_on_c, 0, 64, 10
1, 25087, Note_on_c, 0, 64, 0
1, 25090, Note_on_c, 0, 59, 0
1, 25090, Note_on_c, 0, 60, 55
1, 25090, Note_on_c, 0, 67, 64
1, 25093, Note_on_c, 0, 57, 58
1, 25753, Note_on_c, 0, 67, 0
1, 25753, Note_on_c, 0, 60, 0
1, 25753, Note_on_c, 0, 62, 53
1, 25756, Note_on_c, 0, 57, 0
1, 25756, Note_on_c, 0, 66, 61
1, 25756, Note_on_c, 0, 45, 57
1, 25889, Control_c, 0, 64, 127
1, 25973, Note_on_c, 0, 66, 0
1, 25973, Note_on_c, 0, 69, 61
1, 26189, Note_on_c, 0, 69, 0
1, 26189, Note_on_c, 0, 72, 60
1, 26400, Note_on_c, 0, 72, 0
1, 26400, Note_on_c, 0, 62, 0
1, 26400, Note_on_c, 0, 67, 59
1, 26403, Note_on_c, 0, 45, 0
1, 26403, Note_on_c, 0, 62, 55
1, 26403, Note_on_c, 0, 71, 64
1, 26406, Control_c, 0, 64, 0
1, 26406, Note_on_c, 0, 55, 58
1, 27086, Note_on_c, 0, 71, 0
1, 27086, Note_on_c, 0, 67, 0
1, 27086, Note_on_c, 0, 62, 0
1, 27089, Note_on_c, 0, 59, 55
1, 27089, Note_on_c, 0, 63, 55
1, 27089, Note_on_c, 0, 67, 63
1, 27092, Note_on_c, 0, 55, 0
1, 27092, Note_on_c, 0, 43, 52
1, 27163, Control_c, 0, 64, 127
1, 27578, Note_on_c, 0, 67, 0
1, 27578, Note_on_c, 0, 66, 59
1, 27742, Note_on_c, 0, 66, 0
1, 27742, Note_on_c, 0, 59, 0
1, 27742, Note_on_c, 0, 63, 0
1, 27745, Note_on_c, 0, 43, 0
1, 27745, Note_on_c, 0, 60, 54
1, 27745, Note_on_c, 0, 64, 62
1, 27748, Note_on_c, 0, 48, 51
1, 27756, Control_c, 0, 64, 0
1, 27863, Control_c, 0, 64, 127
1, 28413, Note_on_c, 0, 64, 0
1, 28413, Note_on_c, 0, 60, 0
1, 28413, Note_on_c, 0, 60, 52
1, 28416, Note_on_c, 0, 48, 0
1, 28416, Note_on_c, 0, 64, 60
1, 28416, Note_on_c, 0, 45, 44
1, 28419, Note_on_c, 0, 52, 51
1, 29105, Note_on_c, 0, 64, 0
1, 29105, Note_on_c, 0, 60, 0
1, 29105, Note_on_c, 0, 59, 52
1, 29108, Note_on_c, 0, 45, 0
1, 29108, Note_on_c, 0, 52, 0
1, 29108, Note_on_c, 0, 64, 60
1, 29111, Note_on_c, 0, 43, 44
1, 29111, Note_on_c, 0, 52, 50
1, 29146, Control_c, 0, 64, 0
1, 29776, Note_on_c, 0, 64, 0
1, 29776, Note_on_c, 0, 59, 0
1, 29776, Note_on_c, 0, 54, 52
1, 29779, Note_on_c, 0, 57, 52
1, 29779, Note_on_c, 0, 60, 52
1, 29779, Note_on_c, 0, 66, 60
1, 29782, Note_on_c, 0, 43, 0
1, 29782, Note_on_c, 0, 52, 0
1, 29782, Note_on_c, 0, 45, 41
1, 29785, Note_on_c, 0, 52, 47
1, 29918, Control_c, 0, 64, 127
1, 30303, Note_on_c, 0, 66, 0
1, 30303, Note_on_c, 0, 63, 55
1, 30506, Note_on_c, 0, 63, 0
1, 30506, Note_on_c, 0, 60, 0
1, 30506, Note_on_c, 0, 57, 0
1, 30509, Note_on_c, 0, 54, 0
1, 30509, Note_on_c, 0, 54, 48
1, 30509, Note_on_c, 0, 57, 51
1, 30512, Note_on_c, 0, 52, 0
1, 30512, Note_on_c, 0, 60, 51
1, 30512, Note_on_c, 0, 63, 59
1, 30515, Note_on_c, 0, 45, 0
1, 30515, Control_c, 0, 64, 0
1, 30515, Note_on_c, 0, 40, 38
1, 30518, Note_on_c, 0, 52, 44
1, 31249, Note_on_c, 0, 57, 0
1, 31249, Note_on_c, 0, 63, 0
1, 31249, Note_on_c, 0, 54, 0
1, 31252, Note_on_c, 0, 60, 0
1, 31252, Note_on_c, 0, 55, 45
1, 31252, Note_on_c, 0, 59, 45
1, 31255, Note_on_c, 0, 64, 52
1, 32735, Note_on_c, 0, 64, 0
1, 32735, Note_on_c, 0, 55, 0
1, 32735, Note_on_c, 0, 59, 0
1, 32738, Note_on_c, 0, 40, 0
1, 32738, Note_on_c, 0, 52, 0
1, 32738, Note_on_c, 0, 59, 78
1, 32741, Note_on_c, 0, 47, 67
1, 33398, Note_on_c, 0, 47, 0
1, 33401, Note_on_c, 0, 59, 0
1, 33401, Note_on_c, 0, 52, 69
1, 33401, Note_on_c, 0, 55, 69
1, 33404, Note_on_c, 0, 59, 69
1, 33404, Note_on_c, 0, 64, 80
1, 33404, Note_on_c, 0, 28, 62
1, 33407, Note_on_c, 0, 40, 72
1, 34048, Note_on_c, 0, 64, 0
1, 34048, Note_on_c, 0, 55, 0
1, 34048, Note_on_c, 0, 52, 0
1, 34051, Note_on_c, 0, 59, 0
1, 34051, Note_on_c, 0, 52, 69
1, 34051, Note_on_c, 0, 55, 69
1, 34054, Note_on_c, 0, 59, 69
1, 34054, Note_on_c, 0, 64, 80
1, 34714, Note_on_c, 0, 64, 0
1, 34714, Note_on_c, 0, 52, 0
1, 34714, Note_on_c, 0, 55, 0
1, 34717, Note_on_c, 0, 59, 0
1, 34717, Note_on_c, 0, 55, 70
1, 34717, Note_on_c, 0, 59, 70
1, 34720, Note_on_c, 0, 40, 0
1, 34720, Note_on_c, 0, 64, 70
1, 34720, Note_on_c, 0, 67, 81
1, 34723, Note_on_c, 0, 28, 0
1, 34723, Note_on_c, 0, 35, 62
1, 34723, Note_on_c, 0, 47, 72
1, 35361, Note_on_c, 0, 59, 0
1, 35361, Note_on_c, 0, 67, 0
1, 35361, Note_on_c, 0, 55, 0
1, 35364, Note_on_c, 0, 64, 0
1, 35364, Note_on_c, 0, 57, 70
1, 35364, Note_on_c, 0, 59, 70
1, 35367, Note_on_c, 0, 66, 70
1, 35367, Note_on_c, 0, 69, 81
1, 36027, Note_on_c, 0, 69, 0
1, 36027, Note_on_c, 0, 57, 0
1, 36027, Note_on_c, 0, 59, 0
1, 36030, Note_on_c, 0, 66, 0
1, 36030, Note_on_c, 0, 59, 71
1, 36030, Note_on_c, 0, 64, 71
1, 36033, Note_on_c, 0, 47, 0
1, 36033, Note_on_c, 0, 67, 71
1, 36033, Note_on_c, 0, 71, 82
1, 36036, Note_on_c, 0, 35, 0
1, 36036, Note_on_c, 0, 40, 60
1, 36036, Note_on_c, 0, 52, 69
1, 36693, Note_on_c, 0, 64, 0
1, 36693, Note_on_c, 0, 71, 0
1, 36693, Note_on_c, 0, 59, 0
1, 36696, Note_on_c, 0, 67, 0
1, 36696, Note_on_c, 0, 57, 68
1, 36696, Note_on_c, 0, 64, 68
1, 36699, Note_on_c, 0, 66, 68
1, 36699, Note_on_c, 0, 69, 79
1, 36803, Note_on_c, 0, 69, 0
1, 36803, Note_on_c, 0, 57, 0
1, 36803, Note_on_c, 0, 64, 0
1, 36806, Note_on_c, 0, 66, 0
1, 36913, Note_on_c, 0, 59, 68
1, 36913, Note_on_c, 0, 64, 68
1, 36913, Note_on_c, 0, 67, 68
1, 36916, Note_on_c, 0, 71, 79
1, 37023, Note_on_c, 0, 71, 0
1, 37023, Note_on_c, 0, 59, 0
1, 37023, Note_on_c, 0, 64, 0
1, 37026, Note_on_c, 0, 67, 0
1, 37129, Note_on_c, 0, 60, 68
1, 37129, Note_on_c, 0, 64, 68
1, 37129, Note_on_c, 0, 69, 68
1, 37132, Note_on_c, 0, 72, 79
1, 37234, Note_on_c, 0, 72, 0
1, 37234, Note_on_c, 0, 60, 0
1, 37234, Note_on_c, 0, 64, 0
1, 37237, Note_on_c, 0, 69, 0
1, 37340, Note_on_c, 0, 59, 72
1, 37340, Note_on_c, 0, 64, 72
1, 37340, Note_on_c, 0, 67, 72
1, 37343, Note_on_c, 0, 71, 83
1, 37996, Note_on_c, 0, 71, 0
1, 37996, Note_on_c, 0, 59, 0
1, 37996, Note_on_c, 0, 64, 0
1, 37999, Note_on_c, 0, 67, 0
1, 37999, Note_on_c, 0, 55, 67
1, 37999, Note_on_c, 0, 59, 67
1, 38002, Note_on_c, 0, 52, 0
1, 38002, Note_on_c, 0, 64, 67
1, 38002, Note_on_c, 0, 67, 78
1, 38005, Note_on_c, 0, 40, 0
1, 38005, Note_on_c, 0, 35, 64
1, 38005, Note_on_c, 0, 47, 67
1, 38488, Note_on_c, 0, 59, 0
1, 38488, Note_on_c, 0, 67, 0
1, 38488, Note_on_c, 0, 55, 0
1, 38491, Note_on_c, 0, 64, 0
1, 38491, Note_on_c, 0, 57, 71
1, 38491, Note_on_c, 0, 66, 71
1, 38494, Note_on_c, 0, 69, 82
1, 38652, Note_on_c, 0, 69, 0
1, 38652, Note_on_c, 0, 57, 0
1, 38652, Note_on_c, 0, 66, 0
1, 38655, Note_on_c, 0, 59, 71
1, 38655, Note_on_c, 0, 64, 71
1, 38655, Note_on_c, 0, 67, 71
1, 38658, Note_on_c, 0, 35, 0
1, 38658, Note_on_c, 0, 47, 0
1, 38658, Note_on_c, 0, 71, 82
1, 38661, Note_on_c, 0, 40, 60
1, 38661, Note_on_c, 0, 52, 69
1, 38821, Control_c, 0, 64, 127
1, 39294, Note_on_c, 0, 71, 0
1, 39294, Note_on_c, 0, 64, 0
1, 39294, Note_on_c, 0, 59, 0
1, 39297, Note_on_c, 0, 67, 0
1, 39297, Note_on_c, 0, 59, 69
1, 39297, Note_on_c, 0, 64, 69
1, 39300, Note_on_c, 0, 67, 69
1, 39300, Note_on_c, 0, 71, 81
1, 39966, Note_on_c, 0, 71, 0
1, 39966, Note_on_c, 0, 59, 0
1, 39966, Note_on_c, 0, 64, 0
1, 39969, Note_on_c, 0, 67, 0
1, 39969, Note_on_c, 0, 71, 76
1, 39969, Note_on_c, 0, 72, 78
1, 39972, Note_on_c, 0, 40, 0
1, 39972, Note_on_c, 0, 52, 0
1, 39972, Note_on_c, 0, 79, 90
1, 39975, Note_on_c, 0, 45, 69
1, 39975, Note_on_c, 0, 57, 75
1, 39980, Control_c, 0, 64, 0
1, 40322, Control_c, 0, 64, 127
1, 40642, Note_on_c, 0, 79, 0
1, 40642, Note_on_c, 0, 72, 0
1, 40642, Note_on_c, 0, 71, 0
1, 40645, Note_on_c, 0, 69, 71
1, 40645, Note_on_c, 0, 72, 71
1, 40645, Note_on_c, 0, 78, 83
1, 40656, Control_c, 0, 64, 0
1, 41009, Control_c, 0, 64, 127
1, 41339, Note_on_c, 0, 78, 0
1, 41339, Note_on_c, 0, 69, 0
1, 41339, Note_on_c, 0, 72, 0
1, 41342, Note_on_c, 0, 67, 65
1, 41342, Note_on_c, 0, 71, 65
1, 41342, Note_on_c, 0, 76, 75
1, 41345, Note_on_c, 0, 45, 0
1, 41345, Note_on_c, 0, 57, 0
1, 41345, Note_on_c, 0, 47, 60
1, 41348, Note_on_c, 0, 59, 69
1, 41353, Control_c, 0, 64, 0
1, 42733, Note_on_c, 0, 71, 0
1, 42733, Note_on_c, 0, 76, 0
1, 42733, Note_on_c, 0, 67, 0
1, 42736, Note_on_c, 0, 66, 55
1, 42736, Note_on_c, 0, 71, 55
1, 42736, Note_on_c, 0, 75, 64
1, 43430, Note_on_c, 0, 75, 0
1, 43430, Note_on_c, 0, 66, 0
1, 43430, Note_on_c, 0, 71, 0
1, 43433, Note_on_c, 0, 47, 0
1, 43433, Note_on_c, 0, 59, 0
1, 43433, Note_on_c, 0, 66, 59
1, 43436, Note_on_c, 0, 59, 54
1, 44101, Note_on_c, 0, 59, 0
1, 44101, Note_on_c, 0, 66, 0
1, 44101, Note_on_c, 0, 67, 63
1, 44104, Note_on_c, 0, 64, 58
1, 44748, Note_on_c, 0, 67, 0
1, 44748, Note_on_c, 0, 66, 55
1, 44748, Note_on_c, 0, 67, 64
1, 44751, Note_on_c, 0, 64, 0
1, 44751, Note_on_c, 0, 62, 58
1, 45414, Note_on_c, 0, 67, 0
1, 45414, Note_on_c, 0, 66, 0
1, 45414, Note_on_c, 0, 64, 55
1, 45417, Note_on_c, 0, 62, 0
1, 45417, Note_on_c, 0, 67, 64
1, 45417, Note_on_c, 0, 60, 58
1, 46061, Note_on_c, 0, 67, 0
1, 46061, Note_on_c, 0, 64, 0
1, 46061, Note_on_c, 0, 62, 55
1, 46064, Note_on_c, 0, 60, 0
1, 46064, Note_on_c, 0, 67, 63
1, 46064, Note_on_c, 0, 59, 58
1, 46727, Note_on_c, 0, 67, 0
1, 46727, Note_on_c, 0, 62, 0
1, 46727, Note_on_c, 0, 61, 55
1, 46730, Note_on_c, 0, 59, 0
1, 46730, Note_on_c, 0, 67, 64
1, 46730, Note_on_c, 0, 57, 58
1, 47392, Note_on_c, 0, 67, 0
1, 47392, Note_on_c, 0, 61, 0
1, 47392, Note_on_c, 0, 62, 53
1, 47395, Note_on_c, 0, 57, 0
1, 47395, Note_on_c, 0, 66, 61
1, 47395, Note_on_c, 0, 50, 57
1, 47448, Control_c, 0, 64, 127
1, 47613, Note_on_c, 0, 66, 0
1, 47613, Note_on_c, 0, 69, 61
1, 47829, Note_on_c, 0, 69, 0
1, 47829, Note_on_c, 0, 72, 60
1, 48040, Note_on_c, 0, 72, 0
1, 48040, Note_on_c, 0, 62, 0
1, 48040, Note_on_c, 0, 67, 59
1, 48043, Note_on_c, 0, 50, 0
1, 48043, Note_on_c, 0, 62, 55
1, 48043, Note_on_c, 0, 71, 64
1, 48046, Note_on_c, 0, 55, 58
1, 48054, Control_c, 0, 64, 0
1, 48742, Note_on_c, 0, 71, 0
1, 48742, Note_on_c, 0, 67, 0
1, 48742, Note_on_c, 0, 62, 0
1, 48745, Note_on_c, 0, 59, 55
1, 48745, Note_on_c, 0, 62, 55
1, 48745, Note_on_c, 0, 67, 63
1, 48748, Note_on_c, 0, 55, 0
1, 48748, Note_on_c, 0, 43, 52
1, 48797, Control_c, 0, 64, 127
1, 49234, Note_on_c, 0, 67, 0
1, 49234, Note_on_c, 0, 65, 59
1, 49411, Note_on_c, 0, 65, 0
1, 49411, Note_on_c, 0, 59, 0
1, 49411, Note_on_c, 0, 62, 0
1, 49414, Note_on_c, 0, 43, 0
1, 49414, Note_on_c, 0, 60, 54
1, 49414, Note_on_c, 0, 64, 62
1, 49417, Note_on_c, 0, 48, 51
1, 49417, Control_c, 0, 64, 0
1, 49591, Control_c, 0, 64, 127
1, 50098, Note_on_c, 0, 64, 0
1, 50098, Note_on_c, 0, 60, 0
1, 50098, Note_on_c, 0, 60, 52
1, 50101, Note_on_c, 0, 48, 0
1, 50101, Note_on_c, 0, 64, 60
1, 50101, Note_on_c, 0, 45, 44
1, 50104, Note_on_c, 0, 52, 51
1, 50806, Note_on_c, 0, 64, 0
1, 50806, Note_on_c, 0, 60, 0
1, 50806, Note_on_c, 0, 59, 52
1, 50809, Note_on_c, 0, 45, 0
1, 50809, Note_on_c, 0, 52, 0
1, 50809, Note_on_c, 0, 64, 60
1, 50812, Note_on_c, 0, 43, 44
1, 50812, Note_on_c, 0, 52, 50
1, 50863, Control_c, 0, 64, 0
1, 51492, Note_on_c, 0, 64, 0
1, 51492, Note_on_c, 0, 59, 0
1, 51492, Note_on_c, 0, 54, 52
1, 51495, Note_on_c, 0, 57, 52
1, 51495, Note_on_c, 0, 60, 52
1, 51495, Note_on_c, 0, 66, 60
1, 51498, Note_on_c, 0, 43, 0
1, 51498, Note_on_c, 0, 52, 0
1, 51498, Note_on_c, 0, 45, 41
1, 51501, Note_on_c, 0, 52, 47
1, 51652, Control_c, 0, 64, 127
1, 52019, Note_on_c, 0, 66, 0
1, 52019, Note_on_c, 0, 63, 55
1, 52222, Note_on_c, 0, 63, 0
1, 52222, Note_on_c, 0, 60, 0
1, 52222, Note_on_c, 0, 57, 0
1, 52225, Note_on_c, 0, 54, 0
1, 52225, Note_on_c, 0, 54, 48
1, 52225, Note_on_c, 0, 57, 51
1, 52228, Note_on_c, 0, 52, 0
1, 52228, Note_on_c, 0, 60, 51
1, 52228, Note_on_c, 0, 63, 59
1, 52231, Note_on_c, 0, 45, 0
1, 52231, Control_c, 0, 64, 0
1, 52231, Note_on_c, 0, 40, 38
1, 52234, Note_on_c, 0, 52, 44
1, 52965, Note_on_c, 0, 57, 0
1, 52965, Note_on_c, 0, 63, 0
1, 52965, Note_on_c, 0, 54, 0
1, 52968, Note_on_c, 0, 60, 0
1, 52968, Note_on_c, 0, 55, 45
1, 52968, Note_on_c, 0, 59, 45
1, 52971, Note_on_c, 0, 64, 52
1, 54451, Note_on_c, 0, 64, 0
1, 54451, Note_on_c, 0, 55, 0
1, 54451, Note_on_c, 0, 59, 0
1, 54454, Note_on_c, 0, 40, 0
1, 54454, Note_on_c, 0, 52, 0
1, 54454, Note_on_c, 0, 59, 67
1, 55117, Note_on_c, 0, 59, 0
1, 55117, Note_on_c, 0, 54, 61
1, 55117, Note_on_c, 0, 59, 61
1, 55120, Note_on_c, 0, 63, 70
1, 55120, Note_on_c, 0, 35, 55
1, 55120, Note_on_c, 0, 47, 63
1, 55207, Control_c, 0, 64, 127
1, 55764, Note_on_c, 0, 63, 0
1, 55764, Note_on_c, 0, 54, 0
1, 55764, Note_on_c, 0, 59, 0
1, 55767, Note_on_c, 0, 54, 62
1, 55767, Note_on_c, 0, 59, 62
1, 55767, Note_on_c, 0, 63, 72
1, 56411, Note_on_c, 0, 63, 0
1, 56411, Note_on_c, 0, 54, 0
1, 56411, Note_on_c, 0, 59, 0
1, 56414, Note_on_c, 0, 55, 64
1, 56414, Note_on_c, 0, 59, 64
1, 56414, Note_on_c, 0, 61, 64
1, 56417, Note_on_c, 0, 35, 0
1, 56417, Note_on_c, 0, 47, 0
1, 56417, Note_on_c, 0, 64, 74
1, 56420, Note_on_c, 0, 35, 52
1, 56420, Note_on_c, 0, 47, 60
1, 56420, Control_c, 0, 64, 0
1, 57058, Note_on_c, 0, 64, 0
1, 57058, Note_on_c, 0, 59, 0
1, 57058, Note_on_c, 0, 55, 0
1, 57061, Note_on_c, 0, 61, 0
1, 57061, Note_on_c, 0, 55, 64
1, 57061, Note_on_c, 0, 61, 64
1, 57064, Note_on_c, 0, 64, 75
1, 57162, Note_on_c, 0, 64, 0
1, 57162, Note_on_c, 0, 55, 0
1, 57162, Note_on_c, 0, 61, 0
1, 57267, Note_on_c, 0, 57, 63
1, 57267, Note_on_c, 0, 63, 63
1, 57267, Note_on_c, 0, 66, 73
1, 57372, Note_on_c, 0, 66, 0
1, 57372, Note_on_c, 0, 57, 0
1, 57372, Note_on_c, 0, 63, 0
1, 57477, Note_on_c, 0, 59, 63
1, 57477, Note_on_c, 0, 64, 63
1, 57477, Note_on_c, 0, 67, 73
1, 57582, Note_on_c, 0, 67, 0
1, 57582, Note_on_c, 0, 59, 0
1, 57582, Note_on_c, 0, 64, 0
1, 57686, Note_on_c, 0, 57, 67
1, 57686, Note_on_c, 0, 63, 67
1, 57686, Note_on_c, 0, 66, 77
1, 57689, Note_on_c, 0, 35, 0
1, 57689, Note_on_c, 0, 47, 0
1, 57689, Note_on_c, 0, 35, 58
1, 57692, Note_on_c, 0, 47, 68
1, 57791, Control_c, 0, 64, 127
1, 58333, Note_on_c, 0, 63, 0
1, 58333, Note_on_c, 0, 66, 0
1, 58333, Note_on_c, 0, 57, 0
1, 58336, Note_on_c, 0, 57, 68
1, 58336, Note_on_c, 0, 63, 68
1, 58336, Note_on_c, 0, 66, 79
1, 58339, Note_on_c, 0, 47, 0
1, 58339, Note_on_c, 0, 47, 65
1, 58980, Note_on_c, 0, 63, 0
1, 58980, Note_on_c, 0, 66, 0
1, 58980, Note_on_c, 0, 57, 0
1, 58983, Note_on_c, 0, 59, 70
1, 58983, Note_on_c, 0, 64, 70
1, 58983, Note_on_c, 0, 67, 82
1, 58986, Note_on_c, 0, 35, 0
1, 58986, Note_on_c, 0, 47, 0
1, 58986, Note_on_c, 0, 35, 61
1, 58989, Note_on_c, 0, 47, 71
1, 58989, Control_c, 0, 64, 0
1, 59627, Note_on_c, 0, 64, 0
1, 59627, Note_on_c, 0, 67, 0
1, 59627, Note_on_c, 0, 59, 0
1, 59630, Note_on_c, 0, 59, 72
1, 59630, Note_on_c, 0, 64, 72
1, 59630, Note_on_c, 0, 67, 83
1, 59633, Note_on_c, 0, 47, 0
1, 59633, Note_on_c, 0, 47, 66
1, 59732, Note_on_c, 0, 64, 0
1, 59732, Note_on_c, 0, 67, 0
1, 59732, Note_on_c, 0, 59, 0
1, 59837, Note_on_c, 0, 59, 71
1, 59837, Note_on_c, 0, 66, 71
1, 59837, Note_on_c, 0, 69, 82
1, 59941, Note_on_c, 0, 69, 0
1, 59941, Note_on_c, 0, 59, 0
1, 59941, Note_on_c, 0, 66, 0
1, 60046, Note_on_c, 0, 59, 71
1, 60046, Note_on_c, 0, 67, 71
1, 60046, Note_on_c, 0, 71, 82
1, 60151, Note_on_c, 0, 71, 0
1, 60151, Note_on_c, 0, 59, 0
1, 60151, Note_on_c, 0, 67, 0
1, 60256, Note_on_c, 0, 60, 65
1, 60256, Note_on_c, 0, 64, 67
1, 60256, Note_on_c, 0, 66, 73
1, 60259, Note_on_c, 0, 35, 0
1, 60259, Note_on_c, 0, 47, 0
1, 60259, Note_on_c, 0, 69, 85
1, 60262, Note_on_c, 0, 35, 65
1, 60262, Note_on_c, 0, 47, 76
1, 60903, Note_on_c, 0, 69, 0
1, 60903, Note_on_c, 0, 64, 0
1, 60903, Note_on_c, 0, 60, 0
1, 60906, Note_on_c, 0, 66, 0
1, 60906, Note_on_c, 0, 60, 70
1, 60906, Note_on_c, 0, 64, 74
1, 60909, Note_on_c, 0, 47, 0
1, 60909, Note_on_c, 0, 66, 76
1, 60909, Note_on_c, 0, 69, 87
1, 60912, Note_on_c, 0, 35, 0
1, 60912, Note_on_c, 0, 35, 63
1, 60912, Note_on_c, 0, 47, 73
1, 61007, Note_on_c, 0, 64, 0
1, 61007, Note_on_c, 0, 69, 0
1, 61007, Note_on_c, 0, 60, 0
1, 61010, Note_on_c, 0, 66, 0
1, 61112, Note_on_c, 0, 67, 74
1, 61112, Note_on_c, 0, 64, 74
1, 61112, Note_on_c, 0, 71, 86
1, 61217, Note_on_c, 0, 71, 0
1, 61217, Note_on_c, 0, 67, 0
1, 61217, Note_on_c, 0, 64, 0
1, 61322, Note_on_c, 0, 64, 74
1, 61322, Note_on_c, 0, 72, 87
1, 61322, Note_on_c, 0, 69, 74
1, 61427, Note_on_c, 0, 69, 0
1, 61427, Note_on_c, 0, 64, 0
1, 61427, Note_on_c, 0, 72, 0
1, 61531, Note_on_c, 0, 67, 77
1, 61531, Note_on_c, 0, 64, 77
1, 61531, Note_on_c, 0, 71, 89
1, 61534, Note_on_c, 0, 35, 0
1, 61534, Note_on_c, 0, 47, 0
1, 61534, Note_on_c, 0, 35, 67
1, 61537, Note_on_c, 0, 47, 77
1, 62174, Note_on_c, 0, 64, 0
1, 62174, Note_on_c, 0, 71, 0
1, 62174, Note_on_c, 0, 67, 0
1, 62177, Note_on_c, 0, 64, 81
1, 62177, Note_on_c, 0, 71, 93
1, 62177, Note_on_c, 0, 67, 81
1, 62180, Note_on_c, 0, 35, 0
1, 62180, Note_on_c, 0, 47, 0
1, 62180, Note_on_c, 0, 35, 65
1, 62183, Note_on_c, 0, 47, 75
1, 62278, Note_on_c, 0, 71, 0
1, 62278, Note_on_c, 0, 67, 0
1, 62278, Note_on_c, 0, 64, 0
1, 62383, Note_on_c, 0, 66, 77
1, 62383, Note_on_c, 0, 75, 90
1, 62383, Note_on_c, 0, 69, 77
1, 62488, Note_on_c, 0, 69, 0
1, 62488, Note_on_c, 0, 66, 0
1, 62488, Note_on_c, 0, 75, 0
1, 62593, Note_on_c, 0, 76, 91
1, 62593, Note_on_c, 0, 67, 78
1, 62593, Note_on_c, 0, 71, 78
1, 62698, Note_on_c, 0, 71, 0
1, 62698, Note_on_c, 0, 76, 0
1, 62698, Note_on_c, 0, 67, 0
1, 62802, Note_on_c, 0, 66, 79
1, 62802, Note_on_c, 0, 69, 79
1, 62802, Note_on_c, 0, 75, 92
1, 62805, Note_on_c, 0, 35, 0
1, 62805, Note_on_c, 0, 47, 0
1, 62805, Note_on_c, 0, 35, 69
1, 62808, Note_on_c, 0, 47, 80
1, 63449, Note_on_c, 0, 69, 0
1, 63449, Note_on_c, 0, 75, 0
1, 63449, Note_on_c, 0, 66, 0
1, 63452, Note_on_c, 0, 66, 85
1, 63452, Note_on_c, 0, 69, 85
1, 63452, Note_on_c, 0, 75, 99
1, 63455, Note_on_c, 0, 35, 0
1, 63455, Note_on_c, 0, 47, 0
1, 63455, Note_on_c, 0, 35, 71
1, 63458, Note_on_c, 0, 47, 83
1, 63554, Note_on_c, 0, 69, 0
1, 63554, Note_on_c, 0, 75, 0
1, 63554, Note_on_c, 0, 66, 0
1, 63557, Note_on_c, 0, 35, 0
1, 63557, Note_on_c, 0, 47, 0
1, 63659, Note_on_c, 0, 71, 82
1, 63659, Note_on_c, 0, 67, 82
1, 63659, Note_on_c, 0, 76, 95
1, 63662, Note_on_c, 0, 35, 68
1, 63662, Note_on_c, 0, 47, 79
1, 63764, Note_on_c, 0, 76, 0
1, 63764, Note_on_c, 0, 71, 0
1, 63764, Note_on_c, 0, 67, 0
1, 63767, Note_on_c, 0, 35, 0
1, 63767, Note_on_c, 0, 47, 0
1, 63868, Note_on_c, 0, 69, 84
1, 63868, Note_on_c, 0, 78, 97
1, 63868, Note_on_c, 0, 72, 84
1, 63871, Note_on_c, 0, 35, 69
1, 63871, Note_on_c, 0, 47, 80
1, 63973, Note_on_c, 0, 72, 0
1, 63973, Note_on_c, 0, 69, 0
1, 63973, Note_on_c, 0, 78, 0
1, 63976, Note_on_c, 0, 35, 0
1, 63976, Note_on_c, 0, 47, 0
1, 64078, Note_on_c, 0, 71, 84
1, 64078, Note_on_c, 0, 67, 84
1, 64078, Note_on_c, 0, 76, 97
1, 64081, Note_on_c, 0, 35, 64
1, 64081, Note_on_c, 0, 47, 86
1, 64716, Note_on_c, 0, 76, 0
1, 64716, Note_on_c, 0, 71, 0
1, 64716, Note_on_c, 0, 67, 0
1, 64719, Note_on_c, 0, 67, 89
1, 64719, Note_on_c, 0, 76, 104
1, 64719, Note_on_c, 0, 71, 89
1, 64722, Note_on_c, 0, 35, 0
1, 64722, Note_on_c, 0, 47, 0
1, 64722, Note_on_c, 0, 35, 75
1, 64725, Note_on_c, 0, 47, 88
1, 64820, Note_on_c, 0, 76, 0
1, 64820, Note_on_c, 0, 71, 0
1, 64820, Note_on_c, 0, 67, 0
1, 64823, Note_on_c, 0, 35, 0
1, 64823, Note_on_c, 0, 47, 0
1, 64924, Note_on_c, 0, 67, 85
1, 64924, Note_on_c, 0, 78, 99
1, 64924, Note_on_c, 0, 71, 85
1, 64927, Note_on_c, 0, 35, 71
1, 64927, Note_on_c, 0, 47, 83
1, 65028, Note_on_c, 0, 71, 0
1, 65028, Note_on_c, 0, 67, 0
1, 65028, Note_on_c, 0, 78, 0
1, 65031, Note_on_c, 0, 35, 0
1, 65031, Note_on_c, 0, 47, 0
1, 65132, Note_on_c, 0, 79, 100
1, 65132, Note_on_c, 0, 67, 86
1, 65132, Note_on_c, 0, 71, 86
1, 65135, Note_on_c, 0, 35, 72
1, 65135, Note_on_c, 0, 47, 83
1, 65236, Note_on_c, 0, 71, 0
1, 65236, Note_on_c, 0, 79, 0
1, 65236, Note_on_c, 0, 67, 0
1, 65239, Note_on_c, 0, 35, 0
1, 65239, Note_on_c, 0, 47, 0
1, 65340, Note_on_c, 0, 76, 90
1, 65340, Note_on_c, 0, 81, 104
1, 65340, Note_on_c, 0, 48, 77
1, 65343, Note_on_c, 0, 60, 89
1, 65442, Control_c, 0, 64, 127
1, 65984, Note_on_c, 0, 81, 0
1, 65984, Note_on_c, 0, 76, 0
1, 65984, Note_on_c, 0, 74, 90
1, 65987, Note_on_c, 0, 60, 0
1, 65987, Note_on_c, 0, 79, 104
1, 65987, Note_on_c, 0, 81, 104
1, 65990, Note_on_c, 0, 48, 0
1, 65990, Note_on_c, 0, 47, 74
1, 65990, Note_on_c, 0, 59, 87
1, 65993, Control_c, 0, 64, 0
1, 66154, Control_c, 0, 64, 127
1, 66634, Note_on_c, 0, 74, 0
1, 66634, Note_on_c, 0, 81, 0
1, 66634, Note_on_c, 0, 79, 0
1, 66637, Note_on_c, 0, 72, 90
1, 66637, Note_on_c, 0, 78, 104
1, 66637, Note_on_c, 0, 81, 104
1, 66640, Note_on_c, 0, 47, 0
1, 66640, Note_on_c, 0, 59, 0
1, 66640, Note_on_c, 0, 45, 72
1, 66643, Note_on_c, 0, 57, 84
1, 66647, Control_c, 0, 64, 0
1, 66850, Control_c, 0, 64, 127
1, 67292, Note_on_c, 0, 78, 0
1, 67292, Note_on_c, 0, 81, 0
1, 67292, Note_on_c, 0, 72, 0
1, 67295, Note_on_c, 0, 71, 90
1, 67295, Note_on_c, 0, 76, 104
1, 67295, Note_on_c, 0, 81, 104
1, 67298, Note_on_c, 0, 45, 0
1, 67298, Note_on_c, 0, 57, 0
1, 67298, Note_on_c, 0, 43, 73
1, 67301, Note_on_c, 0, 55, 85
1, 67301, Control_c, 0, 64, 0
1, 67396, Control_c, 0, 64, 127
1, 67956, Note_on_c, 0, 76, 0
1, 67956, Note_on_c, 0, 81, 0
1, 67956, Note_on_c, 0, 71, 0
1, 67959, Note_on_c, 0, 69, 90
1, 67959, Note_on_c, 0, 74, 104
1, 67959, Note_on_c, 0, 81, 104
1, 67962, Note_on_c, 0, 43, 0
1, 67962, Note_on_c, 0, 55, 0
1, 67962, Note_on_c, 0, 42, 74
1, 67965, Note_on_c, 0, 54, 87
1, 67965, Control_c, 0, 64, 0
1, 68023, Control_c, 0, 64, 127
1, 68648, Note_on_c, 0, 74, 0
1, 68648, Note_on_c, 0, 81, 0
1, 68648, Note_on_c, 0, 69, 0
1, 68651, Note_on_c, 0, 67, 84
1, 68651, Note_on_c, 0, 72, 100
1, 68651, Note_on_c, 0, 81, 102
1, 68654, Note_on_c, 0, 42, 0
1, 68654, Note_on_c, 0, 54, 0
1, 68654, Note_on_c, 0, 40, 74
1, 68657, Note_on_c, 0, 52, 87
1, 68660, Control_c, 0, 64, 0
1, 69167, Note_on_c, 0, 72, 0
1, 69167, Note_on_c, 0, 81, 0
1, 69167, Note_on_c, 0, 67, 0
1, 69170, Note_on_c, 0, 66, 85
1, 69253, Note_on_c, 0, 71, 100
1, 69340, Note_on_c, 0, 40, 0
1, 69340, Note_on_c, 0, 52, 0
1, 69340, Note_on_c, 0, 81, 100
1, 69343, Note_on_c, 0, 39, 74
1, 69343, Note_on_c, 0, 51, 87
1, 70031, Note_on_c, 0, 81, 0
1, 70031, Note_on_c, 0, 71, 0
1, 70031, Note_on_c, 0, 66, 0
1, 70034, Note_on_c, 0, 63, 89
1, 70034, Note_on_c, 0, 71, 105
1, 70034, Note_on_c, 0, 69, 89
1, 70037, Note_on_c, 0, 39, 0
1, 70037, Note_on_c, 0, 51, 0
1, 70037, Note_on_c, 0, 35, 76
1, 70040, Note_on_c, 0, 47, 88
1, 70135, Note_on_c, 0, 71, 0
1, 70135, Note_on_c, 0, 69, 0
1, 70135, Note_on_c, 0, 63, 0
1, 70138, Note_on_c, 0, 35, 0
1, 70138, Note_on_c, 0, 47, 0
1, 70239, Note_on_c, 0, 64, 85
1, 70239, Note_on_c, 0, 73, 100
1, 70239, Note_on_c, 0, 69, 85
1, 70242, Note_on_c, 0, 35, 70
1, 70242, Note_on_c, 0, 47, 83
1, 70343, Note_on_c, 0, 69, 0
1, 70343, Note_on_c, 0, 64, 0
1, 70343, Note_on_c, 0, 73, 0
1, 70346, Note_on_c, 0, 35, 0
1, 70346, Note_on_c, 0, 47, 0
1, 70448, Note_on_c, 0, 75, 101
1, 70448, Note_on_c, 0, 66, 86
1, 70448, Note_on_c, 0, 69, 86
1, 70451, Note_on_c, 0, 35, 71
1, 70451, Note_on_c, 0, 47, 83
1, 70552, Note_on_c, 0, 69, 0
1, 70552, Note_on_c, 0, 75, 0
1, 70552, Note_on_c, 0, 66, 0
1, 70555, Note_on_c, 0, 35, 0
1, 70555, Note_on_c, 0, 47, 0
1, 70656, Note_on_c, 0, 64, 89
1, 70656, Note_on_c, 0, 67, 89
1, 70656, Note_on_c, 0, 76, 104
1, 70659, Note_on_c, 0, 36, 77
1, 70659, Note_on_c, 0, 48, 88
1, 70791, Control_c, 0, 64, 127
1, 71299, Note_on_c, 0, 76, 0
1, 71299, Note_on_c, 0, 64, 0
1, 71299, Note_on_c, 0, 67, 0
1, 71302, Note_on_c, 0, 69, 89
1, 71302, Note_on_c, 0, 66, 89
1, 71302, Note_on_c, 0, 74, 104
1, 71305, Note_on_c, 0, 36, 0
1, 71305, Note_on_c, 0, 48, 0
1, 71305, Note_on_c, 0, 76, 104
1, 71308, Note_on_c, 0, 36, 74
1, 71308, Note_on_c, 0, 48, 86
1, 71313, Control_c, 0, 64, 0
1, 71538, Control_c, 0, 64, 127
1, 71949, Note_on_c, 0, 76, 0
1, 71949, Note_on_c, 0, 66, 0
1, 71949, Note_on_c, 0, 69, 0
1, 71952, Note_on_c, 0, 74, 0
1, 71952, Note_on_c, 0, 64, 89
1, 71952, Note_on_c, 0, 67, 89
1, 71955, Note_on_c, 0, 48, 0
1, 71955, Note_on_c, 0, 72, 104
1, 71955, Note_on_c, 0, 76, 104
1, 71958, Note_on_c, 0, 36, 0
1, 71958, Note_on_c, 0, 36, 71
1, 71958, Note_on_c, 0, 48, 84
1, 71963, Control_c, 0, 64, 0
1, 72191, Control_c, 0, 64, 127
1, 72607, Note_on_c, 0, 67, 0
1, 72607, Note_on_c, 0, 76, 0
1, 72607, Note_on_c, 0, 64, 0
1, 72610, Note_on_c, 0, 72, 0
1, 72610, Note_on_c, 0, 62, 89
1, 72610, Note_on_c, 0, 66, 89
1, 72613, Note_on_c, 0, 48, 0
1, 72613, Note_on_c, 0, 71, 104
1, 72613, Note_on_c, 0, 76, 104
1, 72616, Note_on_c, 0, 36, 0
1, 72616, Note_on_c, 0, 36, 73
1, 72616, Note_on_c, 0, 48, 85
1, 72621, Control_c, 0, 64, 0
1, 72886, Control_c, 0, 64, 127
1, 73272, Note_on_c, 0, 66, 0
1, 73272, Note_on_c, 0, 76, 0
1, 73272, Note_on_c, 0, 62, 0
1, 73275, Note_on_c, 0, 71, 0
1, 73275, Note_on_c, 0, 64, 89
1, 73275, Note_on_c, 0, 69, 104
1, 73278, Note_on_c, 0, 36, 0
1, 73278, Note_on_c, 0, 48, 0
1, 73278, Note_on_c, 0, 76, 104
1, 73281, Note_on_c, 0, 48, 74
1, 73281, Note_on_c, 0, 60, 86
1, 73281, Control_c, 0, 64, 0
1, 73399, Control_c, 0, 64, 127
1, 73964, Note_on_c, 0, 76, 0
1, 73964, Note_on_c, 0, 69, 0
1, 73964, Note_on_c, 0, 64, 0
1, 73967, Note_on_c, 0, 62, 84
1, 73967, Note_on_c, 0, 67, 100
1, 73967, Note_on_c, 0, 76, 102
1, 73970, Note_on_c, 0, 48, 0
1, 73970, Note_on_c, 0, 60, 0
1, 73970, Note_on_c, 0, 48, 74
1, 73973, Note_on_c, 0, 59, 86
1, 73978, Control_c, 0, 64, 0
1, 74020, Control_c, 0, 64, 127
1, 74655, Note_on_c, 0, 67, 0
1, 74655, Note_on_c, 0, 76, 0
1, 74655, Note_on_c, 0, 62, 0
1, 74658, Note_on_c, 0, 59, 0
1, 74658, Note_on_c, 0, 66, 101
1, 74658, Note_on_c, 0, 76, 103
1, 74661, Note_on_c, 0, 48, 0
1, 74661, Note_on_c, 0, 48, 74
1, 74661, Note_on_c, 0, 57, 74
1, 74664, Note_on_c, 0, 60, 86
1, 74664, Control_c, 0, 64, 0
1, 74782, Control_c, 0, 64, 127
1, 75344, Note_on_c, 0, 57, 0
1, 75347, Note_on_c, 0, 76, 0
1, 75347, Note_on_c, 0, 66, 0
1, 75347, Note_on_c, 0, 57, 96
1, 75350, Note_on_c, 0, 48, 0
1, 75350, Note_on_c, 0, 60, 0
1, 75350, Note_on_c, 0, 64, 96
1, 75353, Note_on_c, 0, 36, 83
1, 75353, Note_on_c, 0, 48, 83
1, 75362, Control_c, 0, 64, 0
1, 75760, Note_on_c, 0, 54, 85
1, 75760, Note_on_c, 0, 66, 97
1, 75810, Note_on_c, 0, 66, 0
1, 75810, Note_on_c, 0, 54, 0
1, 75859, Note_on_c, 0, 54, 85
1, 75859, Note_on_c, 0, 66, 97
1, 75909, Note_on_c, 0, 66, 0
1, 75909, Note_on_c, 0, 54, 0
1, 75959, Note_on_c, 0, 54, 85
1, 75959, Note_on_c, 0, 66, 97
1, 76009, Note_on_c, 0, 66, 0
1, 76009, Note_on_c, 0, 54, 0
1, 76059, Note_on_c, 0, 57, 0
1, 76059, Note_on_c, 0, 64, 0
1, 76059, Note_on_c, 0, 54, 78
1, 76062, Note_on_c, 0, 63, 90
1, 76062, Note_on_c, 0, 59, 90
1, 76062, Note_on_c, 0, 66, 102
1, 76065, Note_on_c, 0, 36, 0
1, 76065, Note_on_c, 0, 48, 0
1, 76065, Note_on_c, 0, 35, 70
1, 76068, Note_on_c, 0, 47, 82
1, 76701, Note_on_c, 0, 47, 0
1, 76701, Note_on_c, 0, 35, 0
1, 77023, Note_on_c, 0, 63, 0
1, 77023, Note_on_c, 0, 54, 0
1, 77023, Note_on_c, 0, 66, 0
1, 77026, Note_on_c, 0, 59, 0
1, 77026, Note_on_c, 0, 54, 85
1, 77026, Note_on_c, 0, 66, 97
1, 77073, Note_on_c, 0, 66, 0
1, 77073, Note_on_c, 0, 54, 0
1, 77123, Note_on_c, 0, 54, 85
1, 77123, Note_on_c, 0, 66, 97
1, 77173, Note_on_c, 0, 66, 0
1, 77173, Note_on_c, 0, 54, 0
1, 77224, Note_on_c, 0, 54, 85
1, 77224, Note_on_c, 0, 66, 97
1, 77274, Note_on_c, 0, 66, 0
1, 77274, Note_on_c, 0, 54, 0
1, 77324, Note_on_c, 0, 54, 90
1, 77324, Note_on_c, 0, 66, 102
1, 78266, Note_on_c, 0, 66, 0
1, 78266, Note_on_c, 0, 54, 0
1, 78266, Note_on_c, 0, 54, 85
1, 78269, Note_on_c, 0, 66, 97
1, 78316, Note_on_c, 0, 66, 0
1, 78316, Note_on_c, 0, 54, 0
1, 78365, Note_on_c, 0, 54, 85
1, 78365, Note_on_c, 0, 66, 97
1, 78415, Note_on_c, 0, 66, 0
1, 78415, Note_on_c, 0, 54, 0
1, 78465, Note_on_c, 0, 54, 85
1, 78465, Note_on_c, 0, 66, 97
1, 78514, Note_on_c, 0, 66, 0
1, 78514, Note_on_c, 0, 54, 0
1, 78564, Note_on_c, 0, 57, 90
1, 78564, Note_on_c, 0, 69, 102
1, 78921, Control_c, 0, 64, 127
1, 79848, Note_on_c, 0, 69, 0
1, 79848, Note_on_c, 0, 57, 0
1, 79848, Note_on_c, 0, 54, 81
1, 79851, Note_on_c, 0, 66, 92
1, 80219, Control_c, 0, 64, 0
1, 80514, Note_on_c, 0, 66, 0
1, 80514, Note_on_c, 0, 54, 0
1, 80847, Note_on_c, 0, 78, 92
1, 80847, Note_on_c, 0, 76, 92
1, 80847, Note_on_c, 0, 72, 79
1, 80850, Note_on_c, 0, 81, 105
1, 80850, Note_on_c, 0, 66, 73
1, 80850, Note_on_c, 0, 69, 83
1, 80897, Note_on_c, 0, 81, 0
1, 80897, Note_on_c, 0, 76, 0
1, 80897, Note_on_c, 0, 78, 0
1, 80900, Note_on_c, 0, 72, 0
1, 80900, Note_on_c, 0, 69, 0
1, 80900, Note_on_c, 0, 66, 0
1, 80947, Note_on_c, 0, 78, 92
1, 80947, Note_on_c, 0, 76, 92
1, 80947, Note_on_c, 0, 72, 79
1, 80950, Note_on_c, 0, 81, 105
1, 80950, Note_on_c, 0, 66, 73
1, 80950, Note_on_c, 0, 69, 83
1, 80997, Note_on_c, 0, 81, 0
1, 80997, Note_on_c, 0, 76, 0
1, 80997, Note_on_c, 0, 78, 0
1, 81000, Note_on_c, 0, 72, 0
1, 81000, Note_on_c, 0, 69, 0
1, 81000, Note_on_c, 0, 66, 0
1, 81047, Note_on_c, 0, 78, 92
1, 81047, Note_on_c, 0, 76, 92
1, 81047, Note_on_c, 0, 72, 79
1, 81050, Note_on_c, 0, 81, 105
1, 81050, Note_on_c, 0, 66, 73
1, 81050, Note_on_c, 0, 69, 83
1, 81097, Note_on_c, 0, 81, 0
1, 81097, Note_on_c, 0, 76, 0
1, 81097, Note_on_c, 0, 78, 0
1, 81100, Note_on_c, 0, 72, 0
1, 81100, Note_on_c, 0, 69, 0
1, 81100, Note_on_c, 0, 66, 0
1, 81147, Note_on_c, 0, 78, 98
1, 81147, Note_on_c, 0, 75, 98
1, 81147, Note_on_c, 0, 71, 84
1, 81150, Note_on_c, 0, 81, 111
1, 81150, Note_on_c, 0, 59, 76
1, 81150, Note_on_c, 0, 66, 89
1, 82110, Note_on_c, 0, 81, 0
1, 82110, Note_on_c, 0, 75, 0
1, 82110, Note_on_c, 0, 78, 0
1, 82113, Note_on_c, 0, 71, 0
1, 82113, Note_on_c, 0, 78, 92
1, 82113, Note_on_c, 0, 76, 92
1, 82116, Note_on_c, 0, 66, 0
1, 82116, Note_on_c, 0, 71, 79
1, 82116, Note_on_c, 0, 81, 105
1, 82119, Note_on_c, 0, 59, 0
1, 82119, Note_on_c, 0, 66, 73
1, 82119, Note_on_c, 0, 69, 83
1, 82161, Note_on_c, 0, 76, 0
1, 82161, Note_on_c, 0, 81, 0
1, 82161, Note_on_c, 0, 78, 0
1, 82164, Note_on_c, 0, 71, 0
1, 82164, Note_on_c, 0, 66, 0
1, 82164, Note_on_c, 0, 69, 0
1, 82211, Note_on_c, 0, 78, 92
1, 82211, Note_on_c, 0, 76, 92
1, 82211, Note_on_c, 0, 71, 79
1, 82214, Note_on_c, 0, 81, 105
1, 82214, Note_on_c, 0, 66, 73
1, 82214, Note_on_c, 0, 69, 83
1, 82261, Note_on_c, 0, 81, 0
1, 82261, Note_on_c, 0, 76, 0
1, 82261, Note_on_c, 0, 78, 0
1, 82264, Note_on_c, 0, 71, 0
1, 82264, Note_on_c, 0, 69, 0
1, 82264, Note_on_c, 0, 66, 0
1, 82311, Note_on_c, 0, 78, 92
1, 82311, Note_on_c, 0, 76, 92
1, 82311, Note_on_c, 0, 71, 79
1, 82314, Note_on_c, 0, 81, 105
1, 82314, Note_on_c, 0, 66, 73
1, 82314, Note_on_c, 0, 69, 83
1, 82362, Note_on_c, 0, 81, 0
1, 82362, Note_on_c, 0, 76, 0
1, 82362, Note_on_c, 0, 78, 0
1, 82365, Note_on_c, 0, 71, 0
1, 82365, Note_on_c, 0, 69, 0
1, 82365, Note_on_c, 0, 66, 0
1, 82412, Note_on_c, 0, 78, 98
1, 82412, Note_on_c, 0, 75, 98
1, 82412, Note_on_c, 0, 71, 84
1, 82415, Note_on_c, 0, 81, 111
1, 82415, Note_on_c, 0, 59, 76
1, 82415, Note_on_c, 0, 66, 89
1, 83375, Note_on_c, 0, 81, 0
1, 83375, Note_on_c, 0, 75, 0
1, 83375, Note_on_c, 0, 78, 0
1, 83378, Note_on_c, 0, 71, 0
1, 83378, Note_on_c, 0, 78, 92
1, 83378, Note_on_c, 0, 76, 92
1, 83381, Note_on_c, 0, 66, 0
1, 83381, Note_on_c, 0, 71, 79
1, 83381, Note_on_c, 0, 81, 105
1, 83384, Note_on_c, 0, 59, 0
1, 83384, Note_on_c, 0, 66, 73
1, 83384, Note_on_c, 0, 69, 83
1, 83425, Note_on_c, 0, 76, 0
1, 83425, Note_on_c, 0, 81, 0
1, 83425, Note_on_c, 0, 78, 0
1, 83428, Note_on_c, 0, 71, 0
1, 83428, Note_on_c, 0, 66, 0
1, 83428, Note_on_c, 0, 69, 0
1, 83475, Note_on_c, 0, 78, 92
1, 83475, Note_on_c, 0, 76, 92
1, 83475, Note_on_c, 0, 71, 79
1, 83478, Note_on_c, 0, 81, 105
1, 83478, Note_on_c, 0, 66, 73
1, 83478, Note_on_c, 0, 69, 83
1, 83524, Note_on_c, 0, 81, 0
1, 83524, Note_on_c, 0, 76, 0
1, 83524, Note_on_c, 0, 78, 0
1, 83527, Note_on_c, 0, 71, 0
1, 83527, Note_on_c, 0, 69, 0
1, 83527, Note_on_c, 0, 66, 0
1, 83574, Note_on_c, 0, 78, 92
1, 83574, Note_on_c, 0, 76, 92
1, 83574, Note_on_c, 0, 71, 79
1, 83577, Note_on_c, 0, 81, 105
1, 83577, Note_on_c, 0, 66, 73
1, 83577, Note_on_c, 0, 69, 83
1, 83623, Note_on_c, 0, 81, 0
1, 83623, Note_on_c, 0, 76, 0
1, 83623, Note_on_c, 0, 78, 0
1, 83626, Note_on_c, 0, 71, 0
1, 83626, Note_on_c, 0, 69, 0
1, 83626, Note_on_c, 0, 66, 0
1, 83673, Note_on_c, 0, 75, 98
1, 83673, Note_on_c, 0, 81, 98
1, 83673, Note_on_c, 0, 87, 111
1, 83676, Note_on_c, 0, 59, 76
1, 83676, Note_on_c, 0, 66, 76
1, 83676, Note_on_c, 0, 69, 76
1, 83679, Note_on_c, 0, 71, 89
1, 84030, Control_c, 0, 64, 127
1, 84957, Note_on_c, 0, 87, 0
1, 84957, Note_on_c, 0, 75, 0
1, 84957, Note_on_c, 0, 81, 0
1, 84960, Note_on_c, 0, 78, 80
1, 84960, Note_on_c, 0, 90, 91
1, 85328, Control_c, 0, 64, 0
1, 85621, Note_on_c, 0, 90, 0
1, 85621, Note_on_c, 0, 69, 0
1, 85621, Note_on_c, 0, 71, 0
1, 85621, Note_on_c, 0, 59, 0
1, 85621, Note_on_c, 0, 78, 0
1, 85621, Note_on_c, 0, 66, 0
1, 85621, Note_on_c, 0, 57, 84
1, 85621, Note_on_c, 0, 59, 99
1, 85621, Note_on_c, 0, 35, 77
1, 85621, Note_on_c, 0, 47, 84
1, 86289, Note_on_c, 0, 59, 0
1, 86289, Note_on_c, 0, 57, 0
1, 86289, Note_on_c, 0, 52, 75
1, 86292, Note_on_c, 0, 55, 87
1, 86292, Note_on_c, 0, 59, 87
1, 86292, Note_on_c, 0, 64, 102
1, 86295, Note_on_c, 0, 35, 0
1, 86295, Note_on_c, 0, 47, 0
1, 86295, Note_on_c, 0, 28, 77
1, 86298, Note_on_c, 0, 40, 91
1, 86361, Control_c, 0, 64, 127
1, 86936, Note_on_c, 0, 52, 0
1, 86936, Note_on_c, 0, 55, 0
1, 86936, Note_on_c, 0, 64, 0
1, 86939, Note_on_c, 0, 59, 0
1, 86939, Note_on_c, 0, 52, 75
1, 86939, Note_on_c, 0, 55, 87
1, 86942, Note_on_c, 0, 59, 87
1, 86942, Note_on_c, 0, 64, 102
1, 87602, Note_on_c, 0, 64, 0
1, 87602, Note_on_c, 0, 52, 0
1, 87602, Note_on_c, 0, 55, 0
1, 87605, Note_on_c, 0, 59, 0
1, 87605, Note_on_c, 0, 55, 77
1, 87605, Note_on_c, 0, 59, 89
1, 87608, Note_on_c, 0, 40, 0
1, 87608, Note_on_c, 0, 62, 89
1, 87608, Note_on_c, 0, 67, 103
1, 87611, Note_on_c, 0, 28, 0
1, 87611, Note_on_c, 0, 26, 77
1, 87611, Note_on_c, 0, 38, 91
1, 87614, Control_c, 0, 64, 0
1, 87782, Control_c, 0, 64, 127
1, 88249, Note_on_c, 0, 59, 0
1, 88249, Note_on_c, 0, 67, 0
1, 88249, Note_on_c, 0, 55, 0
1, 88252, Note_on_c, 0, 62, 0
1, 88252, Note_on_c, 0, 62, 88
1, 88252, Note_on_c, 0, 57, 72
1, 88255, Note_on_c, 0, 66, 89
1, 88255, Note_on_c, 0, 69, 103
1, 88255, Control_c, 0, 64, 0
1, 88502, Control_c, 0, 64, 127
1, 88915, Note_on_c, 0, 69, 0
1, 88915, Note_on_c, 0, 62, 0
1, 88915, Note_on_c, 0, 57, 0
1, 88918, Note_on_c, 0, 66, 0
1, 88918, Note_on_c, 0, 59, 78
1, 88918, Note_on_c, 0, 62, 90
1, 88921, Note_on_c, 0, 38, 0
1, 88921, Note_on_c, 0, 67, 90
1, 88921, Note_on_c, 0, 71, 104
1, 88924, Note_on_c, 0, 26, 0
1, 88924, Note_on_c, 0, 31, 75
1, 88924, Note_on_c, 0, 43, 87
1, 88927, Control_c, 0, 64, 0
1, 88979, Control_c, 0, 64, 127
1, 89581, Note_on_c, 0, 62, 0
1, 89581, Note_on_c, 0, 71, 0
1, 89581, Note_on_c, 0, 59, 0
1, 89584, Note_on_c, 0, 67, 0
1, 89584, Note_on_c, 0, 57, 73
1, 89584, Note_on_c, 0, 62, 85
1, 89587, Note_on_c, 0, 66, 85
1, 89587, Note_on_c, 0, 69, 100
1, 89600, Control_c, 0, 64, 0
1, 89691, Note_on_c, 0, 69, 0
1, 89691, Note_on_c, 0, 57, 0
1, 89691, Note_on_c, 0, 62, 0
1, 89694, Note_on_c, 0, 66, 0
1, 89802, Note_on_c, 0, 59, 71
1, 89802, Note_on_c, 0, 62, 82
1, 89802, Note_on_c, 0, 67, 82
1, 89805, Note_on_c, 0, 71, 97
1, 89912, Note_on_c, 0, 71, 0
1, 89912, Note_on_c, 0, 59, 0
1, 89912, Note_on_c, 0, 62, 0
1, 89915, Note_on_c, 0, 67, 0
1, 90017, Note_on_c, 0, 60, 71
1, 90017, Note_on_c, 0, 62, 82
1, 90017, Note_on_c, 0, 69, 82
1, 90020, Note_on_c, 0, 72, 97
1, 90123, Note_on_c, 0, 72, 0
1, 90123, Note_on_c, 0, 60, 0
1, 90123, Note_on_c, 0, 62, 0
1, 90126, Note_on_c, 0, 69, 0
1, 90228, Note_on_c, 0, 59, 78
1, 90228, Note_on_c, 0, 62, 91
1, 90228, Note_on_c, 0, 67, 91
1, 90231, Note_on_c, 0, 71, 105
1, 90885, Note_on_c, 0, 71, 0
1, 90885, Note_on_c, 0, 59, 0
1, 90885, Note_on_c, 0, 62, 0
1, 90888, Note_on_c, 0, 67, 0
1, 90888, Note_on_c, 0, 55, 72
1, 90888, Note_on_c, 0, 59, 84
1, 90891, Note_on_c, 0, 43, 0
1, 90891, Note_on_c, 0, 62, 84
1, 90891, Note_on_c, 0, 67, 99
1, 90894, Note_on_c, 0, 31, 0
1, 90894, Note_on_c, 0, 26, 75
1, 90894, Note_on_c, 0, 38, 87
1, 91377, Note_on_c, 0, 59, 0
1, 91377, Note_on_c, 0, 67, 0
1, 91377, Note_on_c, 0, 55, 0
1, 91380, Note_on_c, 0, 62, 0
1, 91380, Note_on_c, 0, 57, 75
1, 91380, Note_on_c, 0, 62, 87
1, 91383, Note_on_c, 0, 66, 87
1, 91383, Note_on_c, 0, 69, 101
1, 91541, Note_on_c, 0, 69, 0
1, 91541, Note_on_c, 0, 57, 0
1, 91541, Note_on_c, 0, 62, 0
1, 91544, Note_on_c, 0, 66, 0
1, 91544, Note_on_c, 0, 59, 78
1, 91544, Note_on_c, 0, 62, 90
1, 91547, Note_on_c, 0, 38, 0
1, 91547, Note_on_c, 0, 67, 90
1, 91547, Note_on_c, 0, 71, 104
1, 91550, Note_on_c, 0, 26, 0
1, 91550, Note_on_c, 0, 31, 75
1, 91550, Note_on_c, 0, 43, 87
1, 91740, Control_c, 0, 64, 127
1, 92183, Note_on_c, 0, 62, 0
1, 92183, Note_on_c, 0, 71, 0
1, 92183, Note_on_c, 0, 59, 0
1, 92186, Note_on_c, 0, 67, 0
1, 92186, Note_on_c, 0, 59, 75
1, 92186, Note_on_c, 0, 62, 87
1, 92189, Note_on_c, 0, 67, 87
1, 92189, Note_on_c, 0, 71, 103
1, 92854, Note_on_c, 0, 71, 0
1, 92854, Note_on_c, 0, 59, 0
1, 92854, Note_on_c, 0, 62, 0
1, 92857, Note_on_c, 0, 67, 0
1, 92857, Note_on_c, 0, 67, 83
1, 92857, Note_on_c, 0, 76, 96
1, 92860, Note_on_c, 0, 70, 96
1, 92860, Note_on_c, 0, 73, 96
1, 92860, Note_on_c, 0, 79, 112
1, 92863, Note_on_c, 0, 31, 0
1, 92863, Note_on_c, 0, 43, 0
1, 92863, Note_on_c, 0, 30, 79
1, 92866, Note_on_c, 0, 42, 92
1, 92866, Control_c, 0, 64, 0
1, 93022, Control_c, 0, 64, 127
1, 93530, Note_on_c, 0, 67, 0
1, 93530, Note_on_c, 0, 70, 0
1, 93530, Note_on_c, 0, 79, 0
1, 93533, Note_on_c, 0, 73, 0
1, 93533, Note_on_c, 0, 76, 0
1, 93533, Note_on_c, 0, 66, 78
1, 93536, Note_on_c, 0, 70, 90
1, 93536, Note_on_c, 0, 73, 90
1, 93536, Note_on_c, 0, 78, 105
1, 93540, Control_c, 0, 64, 0
1, 93771, Control_c, 0, 64, 127
1, 94227, Note_on_c, 0, 78, 0
1, 94227, Note_on_c, 0, 66, 0
1, 94227, Note_on_c, 0, 70, 0
1, 94230, Note_on_c, 0, 73, 0
1, 94230, Note_on_c, 0, 64, 71
1, 94230, Note_on_c, 0, 67, 82
1, 94233, Note_on_c, 0, 42, 0
1, 94233, Note_on_c, 0, 71, 82
1, 94233, Note_on_c, 0, 76, 95
1, 94236, Note_on_c, 0, 30, 0
1, 94236, Control_c, 0, 64, 0
1, 94236, Note_on_c, 0, 35, 75
1, 94239, Note_on_c, 0, 47, 87
1, 94442, Control_c, 0, 64, 127
1, 95621, Note_on_c, 0, 67, 0
1, 95621, Note_on_c, 0, 76, 0
1, 95621, Note_on_c, 0, 64, 0
1, 95624, Note_on_c, 0, 71, 0
1, 95624, Note_on_c, 0, 63, 59
1, 95624, Note_on_c, 0, 66, 68
1, 95627, Note_on_c, 0, 71, 68
1, 95627, Note_on_c, 0, 75, 81
1, 95627, Control_c, 0, 64, 0
1, 96318, Note_on_c, 0, 75, 0
1, 96318, Note_on_c, 0, 63, 0
1, 96318, Note_on_c, 0, 66, 0
1, 96321, Note_on_c, 0, 71, 0
1, 96321, Note_on_c, 0, 54, 53
1, 96321, Note_on_c, 0, 59, 53
1, 96324, Note_on_c, 0, 47, 0
1, 96324, Note_on_c, 0, 63, 53
1, 96324, Note_on_c, 0, 66, 59
1, 96327, Note_on_c, 0, 35, 0
1, 96327, Note_on_c, 0, 35, 52
1, 96327, Note_on_c, 0, 47, 54
1, 96486, Note_on_c, 0, 47, 0
1, 96486, Note_on_c, 0, 35, 0
1, 96989, Note_on_c, 0, 66, 0
1, 96989, Note_on_c, 0, 59, 0
1, 96989, Note_on_c, 0, 54, 0
1, 96992, Note_on_c, 0, 63, 0
1, 96992, Note_on_c, 0, 55, 55
1, 96992, Note_on_c, 0, 59, 55
1, 96995, Note_on_c, 0, 67, 63
1, 96995, Note_on_c, 0, 40, 50
1, 96995, Note_on_c, 0, 52, 58
1, 97151, Note_on_c, 0, 52, 0
1, 97151, Note_on_c, 0, 40, 0
1, 97636, Note_on_c, 0, 55, 0
1, 97636, Note_on_c, 0, 59, 0
1, 97636, Note_on_c, 0, 67, 0
1, 97639, Note_on_c, 0, 55, 55
1, 97639, Note_on_c, 0, 59, 55
1, 97639, Note_on_c, 0, 65, 55
1, 97642, Note_on_c, 0, 67, 64
1, 97642, Note_on_c, 0, 38, 50
1, 97642, Note_on_c, 0, 50, 58
1, 97803, Note_on_c, 0, 50, 0
1, 97803, Note_on_c, 0, 38, 0
1, 98302, Note_on_c, 0, 59, 0
1, 98302, Note_on_c, 0, 55, 0
1, 98302, Note_on_c, 0, 67, 0
1, 98305, Note_on_c, 0, 65, 0
1, 98305, Note_on_c, 0, 55, 55
1, 98305, Note_on_c, 0, 60, 55
1, 98308, Note_on_c, 0, 64, 55
1, 98308, Note_on_c, 0, 67, 64
1, 98308, Note_on_c, 0, 36, 50
1, 98311, Note_on_c, 0, 48, 58
1, 98464, Note_on_c, 0, 48, 0
1, 98464, Note_on_c, 0, 36, 0
1, 98949, Note_on_c, 0, 60, 0
1, 98949, Note_on_c, 0, 55, 0
1, 98949, Note_on_c, 0, 67, 0
1, 98952, Note_on_c, 0, 64, 0
1, 98952, Note_on_c, 0, 55, 55
1, 98952, Note_on_c, 0, 62, 55
1, 98955, Note_on_c, 0, 67, 63
1, 98955, Note_on_c, 0, 34, 50
1, 98955, Note_on_c, 0, 46, 58
1, 99116, Note_on_c, 0, 46, 0
1, 99116, Note_on_c, 0, 34, 0
1, 99615, Note_on_c, 0, 55, 0
1, 99615, Note_on_c, 0, 62, 0
1, 99615, Note_on_c, 0, 67, 0
1, 99618, Note_on_c, 0, 57, 55
1, 99618, Note_on_c, 0, 64, 55
1, 99618, Note_on_c, 0, 61, 55
1, 99621, Note_on_c, 0, 67, 64
1, 99621, Note_on_c, 0, 33, 50
1, 99621, Note_on_c, 0, 45, 58
1, 99782, Note_on_c, 0, 45, 0
1, 99782, Note_on_c, 0, 33, 0
1, 100281, Note_on_c, 0, 64, 0
1, 100281, Note_on_c, 0, 57, 0
1, 100281, Note_on_c, 0, 67, 0
1, 100284, Note_on_c, 0, 61, 0
1, 100284, Note_on_c, 0, 60, 53
1, 100284, Note_on_c, 0, 62, 53
1, 100287, Note_on_c, 0, 66, 61
1, 100287, Note_on_c, 0, 38, 49
1, 100287, Note_on_c, 0, 50, 57
1, 100446, Note_on_c, 0, 50, 0
1, 100446, Note_on_c, 0, 38, 0
1, 100501, Note_on_c, 0, 66, 0
1, 100501, Note_on_c, 0, 69, 61
1, 100717, Note_on_c, 0, 69, 0
1, 100717, Note_on_c, 0, 72, 60
1, 100928, Note_on_c, 0, 72, 0
1, 100928, Note_on_c, 0, 62, 0
1, 100928, Note_on_c, 0, 60, 0
1, 100931, Note_on_c, 0, 59, 55
1, 100931, Note_on_c, 0, 67, 59
1, 100931, Note_on_c, 0, 62, 55
1, 100934, Note_on_c, 0, 71, 64
1, 100934, Note_on_c, 0, 43, 50
1, 100934, Note_on_c, 0, 55, 58
1, 101100, Note_on_c, 0, 55, 0
1, 101100, Note_on_c, 0, 43, 0
1, 101615, Note_on_c, 0, 67, 0
1, 101615, Note_on_c, 0, 59, 0
1, 101615, Note_on_c, 0, 71, 0
1, 101618, Note_on_c, 0, 62, 0
1, 101618, Note_on_c, 0, 59, 55
1, 101618, Note_on_c, 0, 63, 55
1, 101621, Note_on_c, 0, 67, 63
1, 101621, Note_on_c, 0, 31, 45
1, 101621, Note_on_c, 0, 43, 52
1, 101779, Note_on_c, 0, 43, 0
1, 101779, Note_on_c, 0, 31, 0
1, 102107, Note_on_c, 0, 67, 0
1, 102107, Note_on_c, 0, 66, 59
1, 102271, Note_on_c, 0, 66, 0
1, 102271, Note_on_c, 0, 63, 0
1, 102271, Note_on_c, 0, 59, 0
1, 102274, Note_on_c, 0, 60, 54
1, 102274, Note_on_c, 0, 64, 62
1, 102274, Note_on_c, 0, 36, 44
1, 102277, Note_on_c, 0, 48, 51
1, 102439, Note_on_c, 0, 48, 0
1, 102439, Note_on_c, 0, 36, 0
1, 102942, Note_on_c, 0, 64, 0
1, 102942, Note_on_c, 0, 60, 0
1, 102942, Note_on_c, 0, 57, 52
1, 102945, Note_on_c, 0, 64, 60
1, 102945, Note_on_c, 0, 36, 44
1, 102945, Note_on_c, 0, 48, 51
1, 103115, Note_on_c, 0, 48, 0
1, 103115, Note_on_c, 0, 36, 0
1, 103634, Note_on_c, 0, 64, 0
1, 103634, Note_on_c, 0, 57, 0
1, 103634, Note_on_c, 0, 56, 52
1, 103637, Note_on_c, 0, 59, 52
1, 103637, Note_on_c, 0, 64, 60
1, 103637, Note_on_c, 0, 35, 44
1, 103640, Note_on_c, 0, 47, 50
1, 103801, Note_on_c, 0, 47, 0
1, 103801, Note_on_c, 0, 35, 0
1, 104305, Note_on_c, 0, 56, 0
1, 104305, Note_on_c, 0, 59, 0
1, 104305, Note_on_c, 0, 64, 0
1, 104308, Note_on_c, 0, 57, 52
1, 104308, Note_on_c, 0, 60, 52
1, 104308, Note_on_c, 0, 64, 60
1, 104311, Note_on_c, 0, 33, 41
1, 104311, Note_on_c, 0, 45, 47
1, 104480, Note_on_c, 0, 45, 0
1, 104480, Note_on_c, 0, 33, 0
1, 104656, Note_on_c, 0, 52, 51
1, 104714, Note_on_c, 0, 52, 0
1, 104773, Note_on_c, 0, 52, 51
1, 104832, Note_on_c, 0, 52, 0
1, 104899, Note_on_c, 0, 52, 51
1, 104967, Note_on_c, 0, 52, 0
1, 105034, Note_on_c, 0, 64, 0
1, 105034, Note_on_c, 0, 60, 0
1, 105034, Note_on_c, 0, 57, 0
1, 105037, Note_on_c, 0, 59, 51
1, 105037, Note_on_c, 0, 62, 51
1, 105037, Note_on_c, 0, 64, 59
1, 105040, Note_on_c, 0, 52, 51
1, 105040, Note_on_c, 0, 32, 38
1, 105040, Note_on_c, 0, 44, 44
1, 106149, Note_on_c, 0, 52, 0
1, 106149, Note_on_c, 0, 52, 51
1, 106208, Note_on_c, 0, 52, 0
1, 106267, Note_on_c, 0, 52, 51
1, 106326, Note_on_c, 0, 52, 0
1, 106393, Note_on_c, 0, 52, 51
1, 106461, Note_on_c, 0, 52, 0
1, 106528, Note_on_c, 0, 52, 51
1, 107271, Note_on_c, 0, 62, 0
1, 107271, Note_on_c, 0, 59, 0
1, 107271, Note_on_c, 0, 64, 0
1, 107274, Note_on_c, 0, 44, 0
1, 107274, Note_on_c, 0, 32, 0
1, 107274, Note_on_c, 0, 67, 63
1, 107599, Note_on_c, 0, 52, 0
1, 107764, Note_on_c, 0, 67, 0
1, 107764, Note_on_c, 0, 65, 59
1, 107928, Note_on_c, 0, 65, 0
1, 107928, Note_on_c, 0, 64, 62
1, 108599, Note_on_c, 0, 64, 0
1, 108599, Note_on_c, 0, 57, 52
1, 108599, Note_on_c, 0, 64, 60
1, 108602, Note_on_c, 0, 36, 44
1, 108602, Note_on_c, 0, 48, 51
1, 108772, Note_on_c, 0, 48, 0
1, 108772, Note_on_c, 0, 36, 0
1, 109290, Note_on_c, 0, 64, 0
1, 109290, Note_on_c, 0, 57, 0
1, 109290, Note_on_c, 0, 56, 52
1, 109293, Note_on_c, 0, 59, 52
1, 109293, Note_on_c, 0, 64, 60
1, 109293, Note_on_c, 0, 35, 44
1, 109296, Note_on_c, 0, 47, 50
1, 109458, Note_on_c, 0, 47, 0
1, 109458, Note_on_c, 0, 35, 0
1, 109961, Note_on_c, 0, 56, 0
1, 109961, Note_on_c, 0, 59, 0
1, 109961, Note_on_c, 0, 64, 0
1, 109964, Note_on_c, 0, 57, 52
1, 109964, Note_on_c, 0, 60, 52
1, 109964, Note_on_c, 0, 64, 60
1, 109967, Note_on_c, 0, 33, 41
1, 109967, Note_on_c, 0, 45, 47
1, 110137, Note_on_c, 0, 45, 0
1, 110137, Note_on_c, 0, 33, 0
1, 110313, Note_on_c, 0, 52, 51
1, 110371, Note_on_c, 0, 52, 0
1, 110430, Note_on_c, 0, 52, 51
1, 110488, Note_on_c, 0, 52, 0
1, 110556, Note_on_c, 0, 52, 51
1, 110623, Note_on_c, 0, 52, 0
1, 110691, Note_on_c, 0, 64, 0
1, 110691, Note_on_c, 0, 60, 0
1, 110691, Note_on_c, 0, 57, 0
1, 110694, Note_on_c, 0, 59, 51
1, 110694, Note_on_c, 0, 62, 51
1, 110694, Note_on_c, 0, 64, 59
1, 110697, Note_on_c, 0, 52, 51
1, 110697, Note_on_c, 0, 32, 38
1, 110697, Note_on_c, 0, 44, 44
1, 111805, Note_on_c, 0, 52, 0
1, 111805, Note_on_c, 0, 52, 51
1, 111864, Note_on_c, 0, 52, 0
1, 111923, Note_on_c, 0, 52, 51
1, 111982, Note_on_c, 0, 52, 0
1, 112050, Note_on_c, 0, 52, 51
1, 112117, Note_on_c, 0, 52, 0
1, 112185, Note_on_c, 0, 52, 51
1, 112899, Note_on_c, 0, 62, 0
1, 112899, Note_on_c, 0, 59, 0
1, 112899, Note_on_c, 0, 64, 0
1, 112902, Note_on_c, 0, 44, 0
1, 112902, Note_on_c, 0, 32, 0
1, 112902, Note_on_c, 0, 67, 63
1, 113234, Note_on_c, 0, 52, 0
1, 113402, Note_on_c, 0, 67, 0
1, 113402, Note_on_c, 0, 65, 59
1, 113570, Note_on_c, 0, 65, 0
1, 113570, Note_on_c, 0, 64, 62
1, 114261, Note_on_c, 0, 64, 0
1, 114261, Note_on_c, 0, 60, 47
1, 114261, Note_on_c, 0, 57, 47
1, 114264, Note_on_c, 0, 64, 55
1, 114264, Note_on_c, 0, 33, 40
1, 114264, Note_on_c, 0, 45, 46
1, 114440, Note_on_c, 0, 45, 0
1, 114440, Note_on_c, 0, 33, 0
1, 114975, Note_on_c, 0, 60, 0
1, 114975, Note_on_c, 0, 57, 0
1, 114975, Note_on_c, 0, 64, 0
1, 114978, Note_on_c, 0, 57, 46
1, 114978, Note_on_c, 0, 60, 46
1, 114978, Note_on_c, 0, 64, 53
1, 114981, Note_on_c, 0, 36, 39
1, 114981, Note_on_c, 0, 48, 44
1, 115153, Note_on_c, 0, 48, 0
1, 115153, Note_on_c, 0, 36, 0
1, 115688, Note_on_c, 0, 57, 0
1, 115688, Note_on_c, 0, 60, 0
1, 115688, Note_on_c, 0, 64, 0
1, 115691, Note_on_c, 0, 54, 40
1, 115691, Note_on_c, 0, 57, 42
1, 115691, Note_on_c, 0, 60, 44
1, 115694, Note_on_c, 0, 66, 51
1, 115694, Note_on_c, 0, 33, 36
1, 115694, Note_on_c, 0, 45, 41
1, 115860, Note_on_c, 0, 45, 0
1, 115860, Note_on_c, 0, 33, 0
1, 116203, Note_on_c, 0, 66, 0
1, 116203, Note_on_c, 0, 63, 49
1, 116387, Note_on_c, 0, 63, 0
1, 116387, Note_on_c, 0, 60, 0
1, 116387, Note_on_c, 0, 57, 0
1, 116390, Note_on_c, 0, 54, 0
1, 116390, Note_on_c, 0, 54, 43
1, 116390, Note_on_c, 0, 57, 43
1, 116393, Note_on_c, 0, 60, 43
1, 116393, Note_on_c, 0, 63, 49
1, 116393, Note_on_c, 0, 28, 36
1, 116396, Note_on_c, 0, 40, 41
1, 117861, Note_on_c, 0, 63, 0
1, 117861, Note_on_c, 0, 57, 0
1, 117861, Note_on_c, 0, 54, 0
1, 117864, Note_on_c, 0, 60, 0
1, 117864, Note_on_c, 0, 55, 43
1, 117864, Note_on_c, 0, 59, 43
1, 117867, Note_on_c, 0, 64, 49
1, 118062, Control_c, 0, 64, 127
1, 118967, Note_on_c, 0, 52, 51
1, 119025, Note_on_c, 0, 52, 0
1, 119083, Note_on_c, 0, 52, 51
1, 119141, Note_on_c, 0, 52, 0
1, 119199, Note_on_c, 0, 52, 51
1, 119257, Note_on_c, 0, 52, 0
1, 119315, Note_on_c, 0, 52, 51
1, 120377, Note_on_c, 0, 52, 0
1, 120377, Note_on_c, 0, 52, 51
1, 120436, Note_on_c, 0, 52, 0
1, 120494, Note_on_c, 0, 52, 51
1, 120553, Note_on_c, 0, 52, 0
1, 120611, Note_on_c, 0, 52, 51
1, 120670, Note_on_c, 0, 52, 0
1, 120728, Note_on_c, 0, 52, 51
1, 121825, Note_on_c, 0, 52, 0
1, 121825, Note_on_c, 0, 52, 51
1, 121885, Note_on_c, 0, 52, 0
1, 121947, Note_on_c, 0, 52, 51
1, 122010, Note_on_c, 0, 52, 0
1, 122074, Note_on_c, 0, 52, 51
1, 122141, Note_on_c, 0, 52, 0
1, 122209, Note_on_c, 0, 59, 0
1, 122209, Note_on_c, 0, 55, 0
1, 122209, Note_on_c, 0, 64, 0
1, 122212, Note_on_c, 0, 28, 0
1, 122212, Note_on_c, 0, 40, 0
1, 122212, Note_on_c, 0, 55, 51
1, 123695, Note_on_c, 0, 55, 0
1, 123695, Note_on_c, 0, 52, 47
1, 124438, Note_on_c, 0, 52, 0
1, 124827, Note_on_c, 0, 71, 42
1, 124827, Note_on_c, 0, 76, 42
1, 124827, Note_on_c, 0, 83, 48
1, 124830, Note_on_c, 0, 67, 41
1, 124830, Note_on_c, 0, 64, 36
1, 124830, Note_on_c, 0, 59, 36
1, 124892, Note_on_c, 0, 83, 0
1, 124892, Note_on_c, 0, 71, 0
1, 124892, Note_on_c, 0, 76, 0
1, 124895, Note_on_c, 0, 67, 0
1, 124895, Note_on_c, 0, 64, 0
1, 124895, Note_on_c, 0, 59, 0
1, 124957, Note_on_c, 0, 71, 42
1, 124957, Note_on_c, 0, 76, 42
1, 124957, Note_on_c, 0, 83, 48
1, 124960, Note_on_c, 0, 67, 41
1, 124960, Note_on_c, 0, 64, 36
1, 124960, Note_on_c, 0, 59, 36
1, 125022, Note_on_c, 0, 83, 0
1, 125022, Note_on_c, 0, 71, 0
1, 125022, Note_on_c, 0, 76, 0
1, 125025, Note_on_c, 0, 67, 0
1, 125025, Note_on_c, 0, 64, 0
1, 125025, Note_on_c, 0, 59, 0
1, 125087, Note_on_c, 0, 71, 42
1, 125087, Note_on_c, 0, 76, 42
1, 125087, Note_on_c, 0, 83, 48
1, 125090, Note_on_c, 0, 67, 41
1, 125090, Note_on_c, 0, 64, 36
1, 125090, Note_on_c, 0, 59, 36
1, 125152, Note_on_c, 0, 83, 0
1, 125152, Note_on_c, 0, 71, 0
1, 125152, Note_on_c, 0, 76, 0
1, 125155, Note_on_c, 0, 67, 0
1, 125155, Note_on_c, 0, 64, 0
1, 125155, Note_on_c, 0, 59, 0
1, 125217, Note_on_c, 0, 71, 44
1, 125217, Note_on_c, 0, 76, 44
1, 125217, Note_on_c, 0, 83, 51
1, 125220, Note_on_c, 0, 67, 44
1, 125220, Note_on_c, 0, 64, 38
1, 125220, Note_on_c, 0, 59, 38
1, 126428, Note_on_c, 0, 83, 0
1, 126428, Note_on_c, 0, 71, 0
1, 126428, Note_on_c, 0, 76, 0
1, 126431, Note_on_c, 0, 71, 42
1, 126431, Note_on_c, 0, 76, 42
1, 126431, Note_on_c, 0, 83, 48
1, 126434, Note_on_c, 0, 67, 0
1, 126434, Note_on_c, 0, 59, 0
1, 126434, Note_on_c, 0, 64, 0
1, 126437, Note_on_c, 0, 67, 41
1, 126437, Note_on_c, 0, 64, 36
1, 126437, Note_on_c, 0, 59, 36
1, 126440, Note_on_c, 0, 55, 36
1, 126492, Note_on_c, 0, 71, 0
1, 126492, Note_on_c, 0, 83, 0
1, 126492, Note_on_c, 0, 76, 0
1, 126495, Note_on_c, 0, 64, 0
1, 126495, Note_on_c, 0, 67, 0
1, 126495, Note_on_c, 0, 55, 0
1, 126498, Note_on_c, 0, 59, 0
1, 126555, Note_on_c, 0, 71, 42
1, 126555, Note_on_c, 0, 76, 42
1, 126555, Note_on_c, 0, 83, 48
1, 126558, Note_on_c, 0, 67, 41
1, 126558, Note_on_c, 0, 64, 36
1, 126558, Note_on_c, 0, 59, 36
1, 126561, Note_on_c, 0, 55, 36
1, 126618, Note_on_c, 0, 83, 0
1, 126618, Note_on_c, 0, 71, 0
1, 126618, Note_on_c, 0, 76, 0
1, 126621, Note_on_c, 0, 64, 0
1, 126621, Note_on_c, 0, 67, 0
1, 126621, Note_on_c, 0, 55, 0
1, 126624, Note_on_c, 0, 59, 0
1, 126681, Note_on_c, 0, 71, 42
1, 126681, Note_on_c, 0, 76, 42
1, 126681, Note_on_c, 0, 83, 48
1, 126684, Note_on_c, 0, 67, 41
1, 126684, Note_on_c, 0, 64, 36
1, 126684, Note_on_c, 0, 59, 36
1, 126687, Note_on_c, 0, 55, 36
1, 126744, Note_on_c, 0, 83, 0
1, 126744, Note_on_c, 0, 71, 0
1, 126744, Note_on_c, 0, 76, 0
1, 126747, Note_on_c, 0, 64, 0
1, 126747, Note_on_c, 0, 67, 0
1, 126747, Note_on_c, 0, 55, 0
1, 126750, Note_on_c, 0, 59, 0
1, 126807, Note_on_c, 0, 71, 44
1, 126807, Note_on_c, 0, 76, 44
1, 126807, Note_on_c, 0, 83, 51
1, 126810, Note_on_c, 0, 67, 43
1, 126810, Note_on_c, 0, 64, 38
1, 126810, Note_on_c, 0, 59, 38
1, 126813, Note_on_c, 0, 55, 38
1, 128030, Note_on_c, 0, 83, 0
1, 128030, Note_on_c, 0, 71, 0
1, 128030, Note_on_c, 0, 76, 0
1, 128033, Note_on_c, 0, 76, 42
1, 128033, Note_on_c, 0, 79, 42
1, 128033, Note_on_c, 0, 83, 48
1, 128036, Note_on_c, 0, 64, 0
1, 128036, Note_on_c, 0, 55, 0
1, 128036, Note_on_c, 0, 67, 0
1, 128039, Note_on_c, 0, 59, 0
1, 128039, Note_on_c, 0, 40, 36
1, 128039, Note_on_c, 0, 52, 41
1, 128104, Note_on_c, 0, 83, 0
1, 128104, Note_on_c, 0, 79, 0
1, 128104, Note_on_c, 0, 76, 0
1, 128107, Note_on_c, 0, 40, 0
1, 128107, Note_on_c, 0, 52, 0
1, 128177, Note_on_c, 0, 76, 42
1, 128177, Note_on_c, 0, 79, 42
1, 128177, Note_on_c, 0, 83, 48
1, 128180, Note_on_c, 0, 40, 36
1, 128180, Note_on_c, 0, 52, 41
1, 128251, Note_on_c, 0, 83, 0
1, 128251, Note_on_c, 0, 76, 0
1, 128251, Note_on_c, 0, 79, 0
1, 128254, Note_on_c, 0, 40, 0
1, 128254, Note_on_c, 0, 52, 0
1, 128324, Note_on_c, 0, 76, 42
1, 128324, Note_on_c, 0, 79, 42
1, 128324, Note_on_c, 0, 83, 48
1, 128327, Note_on_c, 0, 40, 36
1, 128327, Note_on_c, 0, 52, 41
1, 128398, Note_on_c, 0, 83, 0
1, 128398, Note_on_c, 0, 76, 0
1, 128398, Note_on_c, 0, 79, 0
1, 128401, Note_on_c, 0, 40, 0
1, 128401, Note_on_c, 0, 52, 0
1, 128471, Note_on_c, 0, 76, 44
1, 128471, Note_on_c, 0, 79, 44
1, 128471, Note_on_c, 0, 83, 51
1, 128474, Note_on_c, 0, 40, 38
1, 128474, Note_on_c, 0, 52, 43
1, 130235, Note_on_c, 0, 83, 0
1, 130235, Note_on_c, 0, 76, 0
1, 130235, Note_on_c, 0, 79, 0
1, 130238, Note_on_c, 0, 40, 0
1, 130238, Note_on_c, 0, 52, 0
1, 130238, Note_on_c, 0, 88, 51
1, 130241, Note_on_c, 0, 28, 34
1, 132483, Note_on_c, 0, 28, 0
1, 132483, Note_on_c, 0, 88, 0
1, 136979, Control_c, 0, 64, 0
1, 136979, End_track
0, 0, End_of_file
