0, 0, Header, 1, 5, 480
1, 0, Start_track
1, 0, Title_t, "mendelssohn sechs praeludien und fugen op35 no5b fuga"
1, 0, Copyright_t, "sequenced by Segundo G. Yogore,  2007,  dody@pldtdsl.net"
1, 0, Time_signature, 2, 3, 12, 8
1, 0, Key_signature, -4, "major"
1, 0, Tempo, 500000
1, 480, Time_signature, 6, 3, 12, 8
1, 192000, Time_signature, 8, 3, 12, 8
1, 193920, Time_signature, 6, 3, 12, 8
1, 240000, Time_signature, 6, 2, 24, 8
1, 240000, End_track
2, 0, Start_track
2, 0, Title_t, "Grand Piano"
2, 0, Program_c, 0, 0
2, 0, Control_c, 0, 7, 115
2, 0, Control_c, 0, 10, 86
2, 240, Note_on_c, 0, 60, 88
2, 480, Note_on_c, 0, 60, 0
2, 480, Note_on_c, 0, 72, 88
2, 720, Note_on_c, 0, 72, 0
2, 720, Note_on_c, 0, 72, 88
2, 767, Note_on_c, 0, 72, 0
2, 960, Note_on_c, 0, 72, 88
2, 1007, Note_on_c, 0, 72, 0
2, 1200, Note_on_c, 0, 72, 88
2, 1247, Note_on_c, 0, 72, 0
2, 1440, Note_on_c, 0, 72, 88
2, 1487, Note_on_c, 0, 72, 0
2, 1680, Note_on_c, 0, 72, 88
2, 1727, Note_on_c, 0, 72, 0
2, 1920, Control_c, 0, 64, 127
2, 1920, Note_on_c, 0, 73, 88
2, 2040, Note_on_c, 0, 73, 0
2, 2040, Note_on_c, 0, 72, 88
2, 2160, Note_on_c, 0, 72, 0
2, 2160, Note_on_c, 0, 70, 88
2, 2280, Note_on_c, 0, 70, 0
2, 2280, Note_on_c, 0, 68, 88
2, 2400, Note_on_c, 0, 68, 0
2, 2400, Note_on_c, 0, 67, 88
2, 2520, Note_on_c, 0, 67, 0
2, 2520, Note_on_c, 0, 65, 88
2, 2640, Note_on_c, 0, 65, 0
2, 2640, Note_on_c, 0, 64, 88
2, 2760, Note_on_c, 0, 64, 0
2, 2760, Note_on_c, 0, 67, 88
2, 2880, Note_on_c, 0, 67, 0
2, 2880, Note_on_c, 0, 70, 88
2, 3000, Note_on_c, 0, 70, 0
2, 3000, Note_on_c, 0, 73, 88
2, 3120, Note_on_c, 0, 73, 0
2, 3120, Note_on_c, 0, 72, 88
2, 3240, Note_on_c, 0, 72, 0
2, 3240, Control_c, 0, 64, 0
2, 3240, Note_on_c, 0, 70, 88
2, 3360, Note_on_c, 0, 70, 0
2, 3360, Control_c, 0, 64, 127
2, 3360, Note_on_c, 0, 68, 88
2, 3480, Note_on_c, 0, 68, 0
2, 3480, Note_on_c, 0, 67, 88
2, 3600, Note_on_c, 0, 67, 0
2, 3600, Note_on_c, 0, 65, 88
2, 3720, Note_on_c, 0, 65, 0
2, 3720, Note_on_c, 0, 68, 88
2, 3840, Note_on_c, 0, 68, 0
2, 3840, Note_on_c, 0, 67, 88
2, 3960, Note_on_c, 0, 67, 0
2, 3960, Note_on_c, 0, 65, 88
2, 4080, Note_on_c, 0, 65, 0
2, 4080, Note_on_c, 0, 70, 88
2, 4200, Note_on_c, 0, 70, 0
2, 4200, Note_on_c, 0, 68, 88
2, 4320, Note_on_c, 0, 68, 0
2, 4320, Note_on_c, 0, 67, 88
2, 4440, Note_on_c, 0, 67, 0
2, 4440, Note_on_c, 0, 70, 88
2, 4560, Note_on_c, 0, 70, 0
2, 4560, Note_on_c, 0, 68, 88
2, 4680, Note_on_c, 0, 68, 0
2, 4680, Note_on_c, 0, 67, 88
2, 4800, Note_on_c, 0, 67, 0
2, 4800, Note_on_c, 0, 72, 88
2, 4920, Note_on_c, 0, 72, 0
2, 4920, Note_on_c, 0, 70, 88
2, 5040, Note_on_c, 0, 70, 0
2, 5040, Note_on_c, 0, 68, 88
2, 5160, Note_on_c, 0, 68, 0
2, 5160, Note_on_c, 0, 72, 88
2, 5280, Note_on_c, 0, 72, 0
2, 5280, Note_on_c, 0, 70, 88
2, 5400, Note_on_c, 0, 70, 0
2, 5400, Note_on_c, 0, 68, 88
2, 5520, Note_on_c, 0, 68, 0
2, 5520, Note_on_c, 0, 73, 88
2, 5640, Note_on_c, 0, 73, 0
2, 5640, Note_on_c, 0, 72, 88
2, 5760, Note_on_c, 0, 72, 0
2, 5760, Note_on_c, 0, 70, 88
2, 5880, Note_on_c, 0, 70, 0
2, 5880, Note_on_c, 0, 73, 88
2, 6000, Note_on_c, 0, 73, 0
2, 6000, Note_on_c, 0, 72, 88
2, 6120, Note_on_c, 0, 72, 0
2, 6120, Control_c, 0, 64, 0
2, 6120, Note_on_c, 0, 70, 88
2, 6240, Note_on_c, 0, 70, 0
2, 6240, Note_on_c, 0, 68, 88
2, 6287, Note_on_c, 0, 68, 0
2, 6480, Control_c, 0, 64, 127
2, 6480, Note_on_c, 0, 65, 88
2, 6600, Note_on_c, 0, 65, 0
2, 6600, Note_on_c, 0, 67, 88
2, 6720, Note_on_c, 0, 67, 0
2, 6720, Note_on_c, 0, 68, 88
2, 6840, Note_on_c, 0, 68, 0
2, 6840, Note_on_c, 0, 70, 88
2, 6960, Note_on_c, 0, 70, 0
2, 6960, Control_c, 0, 64, 0
2, 6960, Note_on_c, 0, 72, 88
2, 7007, Note_on_c, 0, 72, 0
2, 7200, Control_c, 0, 64, 127
2, 7200, Note_on_c, 0, 71, 88
2, 7320, Note_on_c, 0, 71, 0
2, 7320, Note_on_c, 0, 72, 88
2, 7440, Note_on_c, 0, 72, 0
2, 7440, Note_on_c, 0, 74, 88
2, 7560, Note_on_c, 0, 74, 0
2, 7560, Note_on_c, 0, 76, 88
2, 7680, Note_on_c, 0, 76, 0
2, 7680, Control_c, 0, 64, 0
2, 7680, Note_on_c, 0, 77, 88
2, 8640, Note_on_c, 0, 77, 0
2, 8640, Note_on_c, 0, 74, 88
2, 8880, Note_on_c, 0, 74, 0
2, 8880, Note_on_c, 0, 71, 88
2, 9120, Note_on_c, 0, 71, 0
2, 9120, Note_on_c, 0, 72, 88
2, 9360, Note_on_c, 0, 72, 0
2, 9360, Note_on_c, 0, 84, 88
2, 9407, Note_on_c, 0, 84, 0
2, 9600, Note_on_c, 0, 84, 88
2, 9647, Note_on_c, 0, 84, 0
2, 9840, Note_on_c, 0, 84, 88
2, 10080, Note_on_c, 0, 84, 0
2, 10080, Note_on_c, 0, 83, 88
2, 10320, Note_on_c, 0, 83, 0
2, 10320, Note_on_c, 0, 83, 88
2, 10367, Note_on_c, 0, 83, 0
2, 10800, Note_on_c, 0, 82, 88
2, 10847, Note_on_c, 0, 82, 0
2, 11040, Note_on_c, 0, 82, 88
2, 11087, Note_on_c, 0, 82, 0
2, 11280, Note_on_c, 0, 82, 88
2, 11520, Note_on_c, 0, 82, 0
2, 11520, Note_on_c, 0, 80, 88
2, 11760, Note_on_c, 0, 80, 0
2, 11760, Note_on_c, 0, 80, 88
2, 12120, Note_on_c, 0, 80, 0
2, 12120, Control_c, 0, 64, 127
2, 12120, Note_on_c, 0, 79, 88
2, 12240, Note_on_c, 0, 79, 0
2, 12240, Note_on_c, 0, 85, 88
2, 12360, Note_on_c, 0, 85, 0
2, 12360, Note_on_c, 0, 84, 88
2, 12480, Note_on_c, 0, 84, 0
2, 12480, Note_on_c, 0, 82, 88
2, 12600, Note_on_c, 0, 82, 0
2, 12600, Note_on_c, 0, 80, 88
2, 12720, Note_on_c, 0, 80, 0
2, 12720, Note_on_c, 0, 79, 88
2, 12840, Note_on_c, 0, 79, 0
2, 12840, Note_on_c, 0, 80, 88
2, 12960, Note_on_c, 0, 80, 0
2, 12960, Note_on_c, 0, 82, 88
2, 13080, Note_on_c, 0, 82, 0
2, 13080, Note_on_c, 0, 80, 88
2, 13200, Note_on_c, 0, 80, 0
2, 13200, Note_on_c, 0, 79, 88
2, 13320, Note_on_c, 0, 79, 0
2, 13320, Note_on_c, 0, 77, 88
2, 13440, Note_on_c, 0, 77, 0
2, 13440, Note_on_c, 0, 76, 88
2, 13560, Note_on_c, 0, 76, 0
2, 13560, Note_on_c, 0, 77, 88
2, 13680, Note_on_c, 0, 77, 0
2, 13680, Note_on_c, 0, 79, 88
2, 13800, Note_on_c, 0, 79, 0
2, 13800, Note_on_c, 0, 80, 88
2, 13920, Note_on_c, 0, 80, 0
2, 13920, Note_on_c, 0, 79, 88
2, 14040, Note_on_c, 0, 79, 0
2, 14040, Note_on_c, 0, 77, 88
2, 14160, Note_on_c, 0, 77, 0
2, 14160, Note_on_c, 0, 76, 88
2, 14280, Note_on_c, 0, 76, 0
2, 14280, Note_on_c, 0, 77, 88
2, 14400, Note_on_c, 0, 77, 0
2, 14400, Control_c, 0, 64, 0
2, 14400, Note_on_c, 0, 79, 88
2, 14760, Note_on_c, 0, 79, 0
2, 14760, Note_on_c, 0, 79, 88
2, 14880, Note_on_c, 0, 79, 0
2, 15120, Note_on_c, 0, 79, 88
2, 15480, Note_on_c, 0, 79, 0
2, 15480, Note_on_c, 0, 77, 88
2, 15600, Note_on_c, 0, 77, 0
2, 15840, Note_on_c, 0, 77, 88
2, 16200, Note_on_c, 0, 77, 0
2, 16200, Note_on_c, 0, 76, 88
2, 16320, Note_on_c, 0, 76, 0
2, 16560, Note_on_c, 0, 76, 88
2, 16800, Note_on_c, 0, 76, 0
2, 16800, Note_on_c, 0, 77, 88
2, 17040, Note_on_c, 0, 77, 0
2, 17040, Note_on_c, 0, 79, 88
2, 17280, Note_on_c, 0, 79, 0
2, 17280, Note_on_c, 0, 67, 88
2, 17520, Note_on_c, 0, 67, 0
2, 17520, Note_on_c, 0, 73, 88
2, 17760, Note_on_c, 0, 73, 0
2, 17760, Note_on_c, 0, 65, 88
2, 18000, Note_on_c, 0, 65, 0
2, 18000, Note_on_c, 0, 77, 88
2, 18047, Note_on_c, 0, 77, 0
2, 18240, Note_on_c, 0, 77, 88
2, 18287, Note_on_c, 0, 77, 0
2, 18480, Note_on_c, 0, 77, 88
2, 18720, Note_on_c, 0, 77, 0
2, 18720, Note_on_c, 0, 76, 88
2, 18960, Note_on_c, 0, 76, 0
2, 18960, Note_on_c, 0, 76, 88
2, 19007, Note_on_c, 0, 76, 0
2, 19440, Note_on_c, 0, 75, 88
2, 19487, Note_on_c, 0, 75, 0
2, 19680, Note_on_c, 0, 75, 88
2, 19727, Note_on_c, 0, 75, 0
2, 19920, Note_on_c, 0, 75, 88
2, 20160, Note_on_c, 0, 75, 0
2, 20160, Note_on_c, 0, 73, 88
2, 20400, Note_on_c, 0, 73, 0
2, 20400, Note_on_c, 0, 73, 88
2, 20447, Note_on_c, 0, 73, 0
2, 21360, Note_on_c, 0, 60, 88
2, 21407, Note_on_c, 0, 60, 0
2, 21600, Control_c, 0, 64, 127
2, 21600, Note_on_c, 0, 59, 88
2, 21720, Note_on_c, 0, 59, 0
2, 21720, Note_on_c, 0, 60, 88
2, 21840, Note_on_c, 0, 60, 0
2, 21840, Note_on_c, 0, 62, 88
2, 21960, Note_on_c, 0, 62, 0
2, 21960, Note_on_c, 0, 64, 88
2, 22080, Note_on_c, 0, 64, 0
2, 22080, Control_c, 0, 64, 0
2, 22080, Note_on_c, 0, 65, 88
2, 22320, Note_on_c, 0, 65, 0
2, 22320, Control_c, 0, 64, 127
2, 22320, Note_on_c, 0, 80, 88
2, 22440, Note_on_c, 0, 80, 0
2, 22440, Note_on_c, 0, 79, 88
2, 22560, Note_on_c, 0, 79, 0
2, 22560, Note_on_c, 0, 77, 88
2, 22680, Note_on_c, 0, 77, 0
2, 22680, Note_on_c, 0, 75, 88
2, 22800, Note_on_c, 0, 75, 0
2, 22800, Control_c, 0, 64, 0
2, 22800, Note_on_c, 0, 74, 88
2, 23040, Note_on_c, 0, 74, 0
2, 23040, Control_c, 0, 64, 127
2, 23040, Note_on_c, 0, 77, 88
2, 23160, Note_on_c, 0, 77, 0
2, 23160, Note_on_c, 0, 75, 88
2, 23280, Note_on_c, 0, 75, 0
2, 23280, Note_on_c, 0, 74, 88
2, 23400, Note_on_c, 0, 74, 0
2, 23400, Control_c, 0, 64, 0
2, 23400, Note_on_c, 0, 72, 88
2, 23520, Note_on_c, 0, 72, 0
2, 23520, Note_on_c, 0, 71, 88
2, 23760, Note_on_c, 0, 71, 0
2, 23760, Note_on_c, 0, 71, 88
2, 24000, Note_on_c, 0, 71, 0
2, 24000, Note_on_c, 0, 72, 88
2, 24240, Note_on_c, 0, 72, 0
2, 24240, Note_on_c, 0, 74, 88
2, 24720, Note_on_c, 0, 74, 0
2, 24960, Note_on_c, 0, 60, 88
2, 25200, Note_on_c, 0, 60, 0
2, 25200, Note_on_c, 0, 72, 88
2, 25440, Note_on_c, 0, 72, 0
2, 25440, Note_on_c, 0, 72, 88
2, 25487, Note_on_c, 0, 72, 0
2, 25680, Note_on_c, 0, 72, 88
2, 25920, Note_on_c, 0, 72, 0
2, 25920, Note_on_c, 0, 71, 88
2, 26160, Note_on_c, 0, 71, 0
2, 26160, Note_on_c, 0, 71, 88
2, 26207, Note_on_c, 0, 71, 0
2, 26640, Note_on_c, 0, 67, 88
2, 26640, Note_on_c, 0, 70, 88
2, 26687, Note_on_c, 0, 70, 0
2, 26687, Note_on_c, 0, 67, 0
2, 26880, Note_on_c, 0, 67, 88
2, 26880, Note_on_c, 0, 70, 88
2, 26927, Note_on_c, 0, 70, 0
2, 26927, Note_on_c, 0, 67, 0
2, 27120, Note_on_c, 0, 67, 88
2, 27120, Note_on_c, 0, 70, 88
2, 27360, Note_on_c, 0, 70, 0
2, 27360, Note_on_c, 0, 67, 0
2, 27360, Note_on_c, 0, 68, 88
2, 27600, Note_on_c, 0, 68, 0
2, 27600, Note_on_c, 0, 68, 88
2, 27647, Note_on_c, 0, 68, 0
2, 27840, Note_on_c, 0, 73, 88
2, 29280, Note_on_c, 0, 73, 0
2, 29280, Note_on_c, 0, 75, 88
2, 29520, Note_on_c, 0, 75, 0
2, 29520, Note_on_c, 0, 75, 88
2, 29567, Note_on_c, 0, 75, 0
2, 29760, Note_on_c, 0, 75, 88
2, 29807, Note_on_c, 0, 75, 0
2, 30000, Note_on_c, 0, 75, 88
2, 30047, Note_on_c, 0, 75, 0
2, 30240, Note_on_c, 0, 75, 88
2, 30287, Note_on_c, 0, 75, 0
2, 30480, Note_on_c, 0, 75, 88
2, 30527, Note_on_c, 0, 75, 0
2, 30720, Control_c, 0, 64, 127
2, 30720, Note_on_c, 0, 65, 88
2, 30720, Note_on_c, 0, 77, 88
2, 30840, Note_on_c, 0, 77, 0
2, 30840, Note_on_c, 0, 65, 0
2, 30840, Note_on_c, 0, 75, 88
2, 30960, Note_on_c, 0, 75, 0
2, 30960, Note_on_c, 0, 73, 88
2, 31080, Note_on_c, 0, 73, 0
2, 31080, Note_on_c, 0, 72, 88
2, 31200, Note_on_c, 0, 72, 0
2, 31200, Note_on_c, 0, 70, 88
2, 31320, Note_on_c, 0, 70, 0
2, 31320, Note_on_c, 0, 68, 88
2, 31440, Note_on_c, 0, 68, 0
2, 31440, Note_on_c, 0, 67, 88
2, 31560, Note_on_c, 0, 67, 0
2, 31560, Note_on_c, 0, 70, 88
2, 31680, Note_on_c, 0, 70, 0
2, 31680, Note_on_c, 0, 73, 88
2, 31800, Note_on_c, 0, 73, 0
2, 31800, Note_on_c, 0, 77, 88
2, 31920, Note_on_c, 0, 77, 0
2, 31920, Note_on_c, 0, 75, 88
2, 32040, Note_on_c, 0, 75, 0
2, 32040, Control_c, 0, 64, 0
2, 32040, Note_on_c, 0, 73, 88
2, 32160, Note_on_c, 0, 73, 0
2, 32160, Note_on_c, 0, 77, 88
2, 32207, Note_on_c, 0, 77, 0
2, 32400, Note_on_c, 0, 77, 88
2, 32447, Note_on_c, 0, 77, 0
2, 32640, Note_on_c, 0, 77, 88
2, 32687, Note_on_c, 0, 77, 0
2, 32880, Note_on_c, 0, 77, 88
2, 32927, Note_on_c, 0, 77, 0
2, 33120, Note_on_c, 0, 77, 88
2, 33167, Note_on_c, 0, 77, 0
2, 33360, Note_on_c, 0, 77, 88
2, 33407, Note_on_c, 0, 77, 0
2, 33600, Control_c, 0, 64, 127
2, 33600, Note_on_c, 0, 78, 88
2, 33720, Note_on_c, 0, 78, 0
2, 33720, Note_on_c, 0, 77, 88
2, 33840, Note_on_c, 0, 77, 0
2, 33840, Note_on_c, 0, 75, 88
2, 33960, Note_on_c, 0, 75, 0
2, 33960, Note_on_c, 0, 73, 88
2, 34080, Note_on_c, 0, 73, 0
2, 34080, Note_on_c, 0, 72, 88
2, 34200, Note_on_c, 0, 72, 0
2, 34200, Note_on_c, 0, 70, 88
2, 34320, Note_on_c, 0, 70, 0
2, 34320, Note_on_c, 0, 69, 88
2, 34440, Note_on_c, 0, 69, 0
2, 34440, Note_on_c, 0, 72, 88
2, 34560, Note_on_c, 0, 72, 0
2, 34560, Note_on_c, 0, 75, 88
2, 34680, Note_on_c, 0, 75, 0
2, 34680, Note_on_c, 0, 78, 88
2, 34800, Note_on_c, 0, 78, 0
2, 34800, Note_on_c, 0, 77, 88
2, 34920, Note_on_c, 0, 77, 0
2, 34920, Control_c, 0, 64, 0
2, 34920, Note_on_c, 0, 75, 88
2, 35040, Note_on_c, 0, 75, 0
2, 35040, Control_c, 0, 64, 127
2, 35040, Note_on_c, 0, 73, 88
2, 35160, Note_on_c, 0, 73, 0
2, 35160, Note_on_c, 0, 72, 88
2, 35280, Note_on_c, 0, 72, 0
2, 35280, Note_on_c, 0, 70, 88
2, 35400, Note_on_c, 0, 70, 0
2, 35400, Note_on_c, 0, 73, 88
2, 35520, Note_on_c, 0, 73, 0
2, 35520, Note_on_c, 0, 72, 88
2, 35640, Note_on_c, 0, 72, 0
2, 35640, Note_on_c, 0, 70, 88
2, 35760, Note_on_c, 0, 70, 0
2, 35760, Note_on_c, 0, 80, 88
2, 35880, Note_on_c, 0, 80, 0
2, 35880, Note_on_c, 0, 79, 88
2, 36000, Note_on_c, 0, 79, 0
2, 36000, Note_on_c, 0, 77, 88
2, 36120, Note_on_c, 0, 77, 0
2, 36120, Note_on_c, 0, 80, 88
2, 36240, Note_on_c, 0, 80, 0
2, 36240, Note_on_c, 0, 79, 88
2, 36360, Note_on_c, 0, 79, 0
2, 36360, Note_on_c, 0, 77, 88
2, 36480, Note_on_c, 0, 77, 0
2, 36480, Control_c, 0, 64, 0
2, 36480, Note_on_c, 0, 75, 88
2, 37920, Note_on_c, 0, 63, 88
2, 37920, Note_on_c, 0, 68, 88
2, 38160, Note_on_c, 0, 68, 0
2, 38160, Note_on_c, 0, 63, 0
2, 38160, Note_on_c, 0, 75, 0
2, 38160, Note_on_c, 0, 65, 62
2, 38160, Note_on_c, 0, 72, 62
2, 38160, Note_on_c, 0, 75, 62
2, 38207, Note_on_c, 0, 75, 0
2, 38207, Note_on_c, 0, 72, 0
2, 38207, Note_on_c, 0, 65, 0
2, 38400, Note_on_c, 0, 65, 62
2, 38400, Note_on_c, 0, 72, 62
2, 38400, Note_on_c, 0, 75, 62
2, 38447, Note_on_c, 0, 75, 0
2, 38447, Note_on_c, 0, 72, 0
2, 38447, Note_on_c, 0, 65, 0
2, 38640, Note_on_c, 0, 65, 62
2, 38640, Note_on_c, 0, 72, 62
2, 38640, Note_on_c, 0, 75, 62
2, 38880, Note_on_c, 0, 75, 0
2, 38880, Note_on_c, 0, 72, 0
2, 38880, Note_on_c, 0, 65, 0
2, 38880, Note_on_c, 0, 67, 62
2, 38880, Note_on_c, 0, 70, 62
2, 38880, Note_on_c, 0, 73, 62
2, 39120, Note_on_c, 0, 73, 0
2, 39120, Note_on_c, 0, 70, 0
2, 39120, Note_on_c, 0, 67, 0
2, 39120, Note_on_c, 0, 67, 75
2, 39120, Note_on_c, 0, 70, 75
2, 39120, Note_on_c, 0, 73, 75
2, 39167, Note_on_c, 0, 73, 0
2, 39167, Note_on_c, 0, 70, 0
2, 39167, Note_on_c, 0, 67, 0
2, 39360, Note_on_c, 0, 67, 75
2, 39360, Note_on_c, 0, 70, 75
2, 39360, Note_on_c, 0, 73, 75
2, 39600, Note_on_c, 0, 73, 0
2, 39600, Note_on_c, 0, 70, 0
2, 39600, Note_on_c, 0, 67, 0
2, 39600, Note_on_c, 0, 68, 75
2, 39600, Note_on_c, 0, 72, 75
2, 39840, Note_on_c, 0, 72, 0
2, 39840, Note_on_c, 0, 68, 0
2, 39840, Note_on_c, 0, 68, 75
2, 39840, Note_on_c, 0, 72, 75
2, 39887, Note_on_c, 0, 72, 0
2, 39887, Note_on_c, 0, 68, 0
2, 40080, Note_on_c, 0, 65, 75
2, 40080, Note_on_c, 0, 68, 75
2, 40080, Note_on_c, 0, 72, 75
2, 40560, Note_on_c, 0, 72, 0
2, 40560, Note_on_c, 0, 68, 0
2, 40560, Note_on_c, 0, 65, 0
2, 40560, Note_on_c, 0, 70, 75
2, 40800, Note_on_c, 0, 70, 0
2, 40800, Note_on_c, 0, 70, 75
2, 41040, Note_on_c, 0, 70, 0
2, 41040, Note_on_c, 0, 77, 75
2, 41040, Note_on_c, 0, 80, 75
2, 41280, Note_on_c, 0, 80, 0
2, 41280, Note_on_c, 0, 77, 0
2, 41280, Note_on_c, 0, 70, 75
2, 41280, Note_on_c, 0, 77, 75
2, 41280, Note_on_c, 0, 80, 75
2, 41327, Note_on_c, 0, 80, 0
2, 41327, Note_on_c, 0, 77, 0
2, 41327, Note_on_c, 0, 70, 0
2, 41520, Note_on_c, 0, 70, 75
2, 41520, Note_on_c, 0, 77, 75
2, 41520, Note_on_c, 0, 80, 75
2, 41760, Note_on_c, 0, 80, 0
2, 41760, Note_on_c, 0, 77, 0
2, 41760, Note_on_c, 0, 70, 0
2, 41760, Note_on_c, 0, 75, 75
2, 41760, Note_on_c, 0, 79, 75
2, 42000, Note_on_c, 0, 79, 0
2, 42000, Note_on_c, 0, 75, 0
2, 42000, Note_on_c, 0, 70, 75
2, 42000, Note_on_c, 0, 75, 75
2, 42000, Note_on_c, 0, 79, 75
2, 42047, Note_on_c, 0, 79, 0
2, 42047, Note_on_c, 0, 75, 0
2, 42047, Note_on_c, 0, 70, 0
2, 42240, Note_on_c, 0, 71, 75
2, 42240, Note_on_c, 0, 75, 75
2, 42240, Note_on_c, 0, 79, 75
2, 42480, Note_on_c, 0, 79, 0
2, 42480, Note_on_c, 0, 75, 0
2, 42480, Note_on_c, 0, 71, 0
2, 42480, Note_on_c, 0, 74, 75
2, 42480, Note_on_c, 0, 77, 75
2, 42720, Note_on_c, 0, 77, 0
2, 42720, Note_on_c, 0, 74, 0
2, 42720, Note_on_c, 0, 71, 75
2, 42720, Note_on_c, 0, 74, 75
2, 42720, Note_on_c, 0, 77, 75
2, 42767, Note_on_c, 0, 77, 0
2, 42767, Note_on_c, 0, 74, 0
2, 42767, Note_on_c, 0, 71, 0
2, 42960, Note_on_c, 0, 77, 75
2, 43200, Note_on_c, 0, 77, 0
2, 43200, Note_on_c, 0, 75, 75
2, 43440, Note_on_c, 0, 75, 0
2, 43440, Note_on_c, 0, 63, 75
2, 43680, Note_on_c, 0, 63, 0
2, 43680, Note_on_c, 0, 75, 88
2, 43920, Note_on_c, 0, 75, 0
2, 43920, Note_on_c, 0, 75, 88
2, 44160, Note_on_c, 0, 75, 0
2, 44160, Note_on_c, 0, 75, 88
2, 44400, Note_on_c, 0, 75, 0
2, 44400, Note_on_c, 0, 75, 88
2, 44640, Note_on_c, 0, 75, 0
2, 44640, Note_on_c, 0, 75, 88
2, 44880, Note_on_c, 0, 75, 0
2, 44880, Note_on_c, 0, 75, 88
2, 45120, Note_on_c, 0, 75, 0
2, 45120, Control_c, 0, 64, 127
2, 45120, Note_on_c, 0, 65, 88
2, 45120, Note_on_c, 0, 73, 88
2, 45120, Note_on_c, 0, 77, 88
2, 45240, Note_on_c, 0, 77, 0
2, 45240, Note_on_c, 0, 73, 0
2, 45240, Note_on_c, 0, 65, 0
2, 45240, Note_on_c, 0, 75, 88
2, 45360, Note_on_c, 0, 75, 0
2, 45360, Note_on_c, 0, 73, 88
2, 45480, Note_on_c, 0, 73, 0
2, 45480, Note_on_c, 0, 77, 88
2, 45600, Note_on_c, 0, 77, 0
2, 45600, Note_on_c, 0, 75, 88
2, 45720, Note_on_c, 0, 75, 0
2, 45720, Control_c, 0, 64, 0
2, 45720, Note_on_c, 0, 73, 88
2, 45840, Note_on_c, 0, 73, 0
2, 45840, Control_c, 0, 64, 127
2, 45840, Note_on_c, 0, 73, 88
2, 45960, Note_on_c, 0, 73, 0
2, 45960, Note_on_c, 0, 72, 88
2, 46080, Note_on_c, 0, 72, 0
2, 46080, Note_on_c, 0, 70, 88
2, 46200, Note_on_c, 0, 70, 0
2, 46200, Note_on_c, 0, 73, 88
2, 46320, Note_on_c, 0, 73, 0
2, 46320, Note_on_c, 0, 72, 88
2, 46440, Note_on_c, 0, 72, 0
2, 46440, Note_on_c, 0, 70, 88
2, 46560, Control_c, 0, 64, 0
2, 46560, Note_on_c, 0, 79, 88
2, 46800, Note_on_c, 0, 79, 0
2, 46800, Note_on_c, 0, 70, 0
2, 46800, Note_on_c, 0, 70, 88
2, 46800, Note_on_c, 0, 79, 88
2, 46847, Note_on_c, 0, 79, 0
2, 46847, Note_on_c, 0, 70, 0
2, 47040, Note_on_c, 0, 70, 88
2, 47040, Note_on_c, 0, 79, 88
2, 47087, Note_on_c, 0, 79, 0
2, 47087, Note_on_c, 0, 70, 0
2, 47280, Note_on_c, 0, 70, 88
2, 47280, Note_on_c, 0, 79, 88
2, 47327, Note_on_c, 0, 79, 0
2, 47327, Note_on_c, 0, 70, 0
2, 47520, Note_on_c, 0, 70, 88
2, 47520, Note_on_c, 0, 79, 88
2, 47567, Note_on_c, 0, 79, 0
2, 47567, Note_on_c, 0, 70, 0
2, 47760, Note_on_c, 0, 70, 88
2, 47760, Note_on_c, 0, 79, 88
2, 47807, Note_on_c, 0, 79, 0
2, 47807, Note_on_c, 0, 70, 0
2, 48000, Control_c, 0, 64, 127
2, 48000, Note_on_c, 0, 68, 88
2, 48000, Note_on_c, 0, 80, 88
2, 48120, Note_on_c, 0, 80, 0
2, 48120, Note_on_c, 0, 68, 0
2, 48120, Note_on_c, 0, 79, 88
2, 48240, Note_on_c, 0, 79, 0
2, 48240, Note_on_c, 0, 77, 88
2, 48360, Note_on_c, 0, 77, 0
2, 48360, Note_on_c, 0, 80, 88
2, 48480, Note_on_c, 0, 80, 0
2, 48480, Note_on_c, 0, 79, 88
2, 48600, Note_on_c, 0, 79, 0
2, 48600, Control_c, 0, 64, 0
2, 48600, Note_on_c, 0, 77, 88
2, 48720, Note_on_c, 0, 77, 0
2, 48720, Control_c, 0, 64, 127
2, 48720, Note_on_c, 0, 77, 88
2, 48840, Note_on_c, 0, 77, 0
2, 48840, Note_on_c, 0, 75, 88
2, 48960, Note_on_c, 0, 75, 0
2, 48960, Note_on_c, 0, 73, 88
2, 49080, Note_on_c, 0, 73, 0
2, 49080, Note_on_c, 0, 77, 88
2, 49200, Note_on_c, 0, 77, 0
2, 49200, Note_on_c, 0, 75, 88
2, 49320, Note_on_c, 0, 75, 0
2, 49320, Note_on_c, 0, 73, 88
2, 49440, Control_c, 0, 64, 0
2, 49440, Note_on_c, 0, 82, 88
2, 49680, Note_on_c, 0, 82, 0
2, 49680, Note_on_c, 0, 73, 0
2, 49680, Note_on_c, 0, 73, 88
2, 49680, Note_on_c, 0, 82, 88
2, 49727, Note_on_c, 0, 82, 0
2, 49727, Note_on_c, 0, 73, 0
2, 49920, Note_on_c, 0, 73, 88
2, 49920, Note_on_c, 0, 82, 88
2, 49967, Note_on_c, 0, 82, 0
2, 49967, Note_on_c, 0, 73, 0
2, 50160, Note_on_c, 0, 73, 88
2, 50160, Note_on_c, 0, 82, 88
2, 50207, Note_on_c, 0, 82, 0
2, 50207, Note_on_c, 0, 73, 0
2, 50400, Note_on_c, 0, 73, 88
2, 50400, Note_on_c, 0, 82, 88
2, 50447, Note_on_c, 0, 82, 0
2, 50447, Note_on_c, 0, 73, 0
2, 50640, Note_on_c, 0, 73, 88
2, 50640, Note_on_c, 0, 82, 88
2, 50687, Note_on_c, 0, 82, 0
2, 50687, Note_on_c, 0, 73, 0
2, 50880, Control_c, 0, 64, 127
2, 50880, Note_on_c, 0, 72, 88
2, 50880, Note_on_c, 0, 84, 88
2, 51000, Note_on_c, 0, 84, 0
2, 51000, Note_on_c, 0, 72, 0
2, 51000, Note_on_c, 0, 82, 88
2, 51120, Note_on_c, 0, 82, 0
2, 51120, Note_on_c, 0, 80, 88
2, 51240, Note_on_c, 0, 80, 0
2, 51240, Note_on_c, 0, 79, 88
2, 51360, Note_on_c, 0, 79, 0
2, 51360, Note_on_c, 0, 77, 88
2, 51480, Note_on_c, 0, 77, 0
2, 51480, Note_on_c, 0, 75, 88
2, 51600, Note_on_c, 0, 75, 0
2, 51600, Note_on_c, 0, 74, 88
2, 51720, Note_on_c, 0, 74, 0
2, 51720, Note_on_c, 0, 77, 88
2, 51840, Note_on_c, 0, 77, 0
2, 51840, Note_on_c, 0, 80, 88
2, 51960, Note_on_c, 0, 80, 0
2, 51960, Note_on_c, 0, 84, 88
2, 52080, Note_on_c, 0, 84, 0
2, 52080, Note_on_c, 0, 82, 88
2, 52200, Note_on_c, 0, 82, 0
2, 52200, Control_c, 0, 64, 0
2, 52200, Note_on_c, 0, 80, 88
2, 52320, Note_on_c, 0, 80, 0
2, 52320, Control_c, 0, 64, 127
2, 52320, Note_on_c, 0, 79, 88
2, 52440, Note_on_c, 0, 79, 0
2, 52440, Note_on_c, 0, 77, 88
2, 52560, Note_on_c, 0, 77, 0
2, 52560, Note_on_c, 0, 75, 88
2, 52680, Note_on_c, 0, 75, 0
2, 52680, Note_on_c, 0, 79, 88
2, 52800, Note_on_c, 0, 79, 0
2, 52800, Note_on_c, 0, 77, 88
2, 52920, Note_on_c, 0, 77, 0
2, 52920, Note_on_c, 0, 75, 88
2, 53040, Note_on_c, 0, 75, 0
2, 53040, Note_on_c, 0, 80, 88
2, 53160, Note_on_c, 0, 80, 0
2, 53160, Note_on_c, 0, 79, 88
2, 53280, Note_on_c, 0, 79, 0
2, 53280, Note_on_c, 0, 77, 88
2, 53400, Note_on_c, 0, 77, 0
2, 53400, Note_on_c, 0, 80, 88
2, 53520, Note_on_c, 0, 80, 0
2, 53520, Note_on_c, 0, 79, 88
2, 53640, Note_on_c, 0, 79, 0
2, 53640, Note_on_c, 0, 77, 88
2, 53760, Note_on_c, 0, 77, 0
2, 53760, Note_on_c, 0, 82, 88
2, 53880, Note_on_c, 0, 82, 0
2, 53880, Note_on_c, 0, 80, 88
2, 54000, Note_on_c, 0, 80, 0
2, 54000, Note_on_c, 0, 79, 88
2, 54120, Note_on_c, 0, 79, 0
2, 54120, Note_on_c, 0, 82, 88
2, 54240, Note_on_c, 0, 82, 0
2, 54240, Note_on_c, 0, 80, 88
2, 54360, Note_on_c, 0, 80, 0
2, 54360, Note_on_c, 0, 79, 88
2, 54480, Note_on_c, 0, 79, 0
2, 54480, Note_on_c, 0, 84, 88
2, 54600, Note_on_c, 0, 84, 0
2, 54600, Note_on_c, 0, 82, 88
2, 54720, Note_on_c, 0, 82, 0
2, 54720, Note_on_c, 0, 80, 88
2, 54840, Note_on_c, 0, 80, 0
2, 54840, Note_on_c, 0, 84, 88
2, 54960, Note_on_c, 0, 84, 0
2, 54960, Note_on_c, 0, 82, 88
2, 55080, Note_on_c, 0, 82, 0
2, 55080, Note_on_c, 0, 80, 88
2, 55200, Note_on_c, 0, 80, 0
2, 55200, Control_c, 0, 64, 0
2, 55200, Note_on_c, 0, 79, 88
2, 55200, Note_on_c, 0, 85, 88
2, 55440, Note_on_c, 0, 85, 0
2, 55440, Note_on_c, 0, 79, 0
2, 55440, Note_on_c, 0, 79, 88
2, 55440, Note_on_c, 0, 85, 88
2, 55680, Note_on_c, 0, 85, 0
2, 55680, Note_on_c, 0, 79, 0
2, 55680, Note_on_c, 0, 79, 88
2, 55680, Note_on_c, 0, 85, 88
2, 55920, Note_on_c, 0, 85, 0
2, 55920, Note_on_c, 0, 79, 0
2, 55920, Note_on_c, 0, 76, 88
2, 55920, Note_on_c, 0, 80, 88
2, 55920, Note_on_c, 0, 85, 88
2, 56160, Note_on_c, 0, 85, 0
2, 56160, Note_on_c, 0, 80, 0
2, 56160, Note_on_c, 0, 76, 0
2, 56160, Note_on_c, 0, 76, 88
2, 56160, Note_on_c, 0, 80, 88
2, 56160, Note_on_c, 0, 85, 88
2, 56400, Note_on_c, 0, 85, 0
2, 56400, Note_on_c, 0, 80, 0
2, 56400, Note_on_c, 0, 76, 0
2, 56400, Note_on_c, 0, 76, 88
2, 56400, Note_on_c, 0, 80, 88
2, 56400, Note_on_c, 0, 85, 88
2, 56640, Note_on_c, 0, 85, 0
2, 56640, Note_on_c, 0, 80, 0
2, 56640, Note_on_c, 0, 76, 0
2, 56640, Note_on_c, 0, 75, 101
2, 56640, Note_on_c, 0, 82, 101
2, 56640, Note_on_c, 0, 85, 101
2, 57360, Note_on_c, 0, 85, 0
2, 57360, Note_on_c, 0, 82, 0
2, 57360, Note_on_c, 0, 75, 0
2, 57360, Note_on_c, 0, 74, 101
2, 57360, Note_on_c, 0, 77, 101
2, 57360, Note_on_c, 0, 80, 101
2, 57360, Note_on_c, 0, 83, 101
2, 58320, Note_on_c, 0, 83, 0
2, 58320, Note_on_c, 0, 74, 0
2, 58320, Note_on_c, 0, 77, 0
2, 58320, Note_on_c, 0, 80, 0
2, 58320, Note_on_c, 0, 82, 88
2, 58367, Note_on_c, 0, 82, 0
2, 58560, Note_on_c, 0, 80, 88
2, 58607, Note_on_c, 0, 80, 0
2, 58800, Note_on_c, 0, 73, 88
2, 58800, Note_on_c, 0, 75, 88
2, 58800, Note_on_c, 0, 79, 88
2, 58847, Note_on_c, 0, 79, 0
2, 58847, Note_on_c, 0, 75, 0
2, 58847, Note_on_c, 0, 73, 0
2, 59040, Note_on_c, 0, 77, 88
2, 59087, Note_on_c, 0, 77, 0
2, 59280, Note_on_c, 0, 79, 88
2, 59327, Note_on_c, 0, 79, 0
2, 59520, Note_on_c, 0, 72, 75
2, 59520, Note_on_c, 0, 75, 75
2, 59520, Note_on_c, 0, 80, 75
2, 59760, Note_on_c, 0, 80, 0
2, 59760, Note_on_c, 0, 75, 0
2, 59760, Note_on_c, 0, 72, 0
2, 61200, Control_c, 0, 64, 127
2, 61200, Note_on_c, 0, 64, 75
2, 61320, Note_on_c, 0, 64, 0
2, 61320, Note_on_c, 0, 65, 75
2, 61440, Note_on_c, 0, 65, 0
2, 61440, Note_on_c, 0, 67, 75
2, 61560, Note_on_c, 0, 67, 0
2, 61560, Note_on_c, 0, 68, 75
2, 61680, Note_on_c, 0, 68, 0
2, 61680, Control_c, 0, 64, 0
2, 61680, Note_on_c, 0, 70, 75
2, 62640, Note_on_c, 0, 70, 0
2, 62640, Control_c, 0, 64, 127
2, 62640, Note_on_c, 0, 64, 75
2, 62760, Note_on_c, 0, 64, 0
2, 62760, Note_on_c, 0, 65, 75
2, 62880, Note_on_c, 0, 65, 0
2, 62880, Note_on_c, 0, 67, 75
2, 63000, Note_on_c, 0, 67, 0
2, 63000, Note_on_c, 0, 68, 75
2, 63120, Note_on_c, 0, 68, 0
2, 63120, Control_c, 0, 64, 0
2, 63120, Note_on_c, 0, 70, 75
2, 64080, Note_on_c, 0, 70, 0
2, 64080, Note_on_c, 0, 68, 75
2, 64320, Note_on_c, 0, 68, 0
2, 64320, Note_on_c, 0, 67, 75
2, 64560, Note_on_c, 0, 67, 0
2, 65040, Note_on_c, 0, 72, 75
2, 65280, Note_on_c, 0, 72, 0
2, 65280, Note_on_c, 0, 77, 75
2, 65520, Note_on_c, 0, 77, 0
2, 65520, Note_on_c, 0, 77, 75
2, 65567, Note_on_c, 0, 77, 0
2, 65760, Note_on_c, 0, 77, 75
2, 65807, Note_on_c, 0, 77, 0
2, 66000, Note_on_c, 0, 77, 75
2, 66047, Note_on_c, 0, 77, 0
2, 66240, Note_on_c, 0, 77, 75
2, 66287, Note_on_c, 0, 77, 0
2, 66480, Note_on_c, 0, 77, 75
2, 66527, Note_on_c, 0, 77, 0
2, 66720, Note_on_c, 0, 78, 101
2, 67680, Note_on_c, 0, 78, 0
2, 67680, Control_c, 0, 64, 127
2, 67680, Note_on_c, 0, 72, 75
2, 67800, Note_on_c, 0, 72, 0
2, 67800, Note_on_c, 0, 73, 75
2, 67920, Note_on_c, 0, 73, 0
2, 67920, Note_on_c, 0, 75, 75
2, 68040, Note_on_c, 0, 75, 0
2, 68040, Note_on_c, 0, 77, 75
2, 68160, Note_on_c, 0, 77, 0
2, 68160, Control_c, 0, 64, 0
2, 68160, Note_on_c, 0, 78, 101
2, 69120, Note_on_c, 0, 78, 0
2, 69120, Control_c, 0, 64, 127
2, 69120, Note_on_c, 0, 72, 75
2, 69240, Note_on_c, 0, 72, 0
2, 69240, Note_on_c, 0, 73, 75
2, 69360, Note_on_c, 0, 73, 0
2, 69360, Note_on_c, 0, 75, 75
2, 69480, Note_on_c, 0, 75, 0
2, 69480, Note_on_c, 0, 77, 75
2, 69600, Note_on_c, 0, 77, 0
2, 69600, Control_c, 0, 64, 0
2, 69600, Note_on_c, 0, 75, 75
2, 69600, Note_on_c, 0, 78, 75
2, 69840, Note_on_c, 0, 78, 0
2, 69840, Note_on_c, 0, 75, 0
2, 69840, Note_on_c, 0, 73, 75
2, 69840, Note_on_c, 0, 77, 75
2, 70080, Note_on_c, 0, 77, 0
2, 70080, Note_on_c, 0, 73, 0
2, 70080, Note_on_c, 0, 72, 75
2, 70080, Note_on_c, 0, 75, 75
2, 70320, Note_on_c, 0, 75, 0
2, 70320, Note_on_c, 0, 72, 0
2, 70320, Note_on_c, 0, 75, 75
2, 70320, Note_on_c, 0, 78, 75
2, 70560, Note_on_c, 0, 78, 0
2, 70560, Note_on_c, 0, 75, 0
2, 70560, Note_on_c, 0, 73, 75
2, 70560, Note_on_c, 0, 77, 75
2, 70800, Note_on_c, 0, 77, 0
2, 70800, Note_on_c, 0, 73, 0
2, 70800, Note_on_c, 0, 72, 75
2, 70800, Note_on_c, 0, 75, 75
2, 71040, Note_on_c, 0, 75, 0
2, 71040, Note_on_c, 0, 72, 0
2, 71040, Note_on_c, 0, 73, 75
2, 71520, Note_on_c, 0, 73, 0
2, 71520, Note_on_c, 0, 72, 75
2, 71760, Note_on_c, 0, 72, 0
2, 71760, Note_on_c, 0, 70, 75
2, 72240, Note_on_c, 0, 70, 0
2, 72240, Note_on_c, 0, 69, 75
2, 72480, Note_on_c, 0, 69, 0
2, 72480, Note_on_c, 0, 68, 75
2, 73440, Note_on_c, 0, 68, 0
2, 73440, Control_c, 0, 64, 127
2, 73440, Note_on_c, 0, 62, 75
2, 73560, Note_on_c, 0, 62, 0
2, 73560, Note_on_c, 0, 63, 75
2, 73680, Note_on_c, 0, 63, 0
2, 73680, Note_on_c, 0, 65, 75
2, 73800, Note_on_c, 0, 65, 0
2, 73800, Note_on_c, 0, 67, 75
2, 73920, Note_on_c, 0, 67, 0
2, 73920, Control_c, 0, 64, 0
2, 73920, Note_on_c, 0, 68, 75
2, 74880, Note_on_c, 0, 68, 0
2, 74880, Control_c, 0, 64, 127
2, 74880, Note_on_c, 0, 62, 75
2, 75000, Note_on_c, 0, 62, 0
2, 75000, Note_on_c, 0, 63, 75
2, 75120, Note_on_c, 0, 63, 0
2, 75120, Note_on_c, 0, 65, 75
2, 75240, Note_on_c, 0, 65, 0
2, 75240, Note_on_c, 0, 67, 75
2, 75360, Note_on_c, 0, 67, 0
2, 75360, Control_c, 0, 64, 0
2, 75360, Note_on_c, 0, 65, 75
2, 75360, Note_on_c, 0, 68, 75
2, 75600, Note_on_c, 0, 68, 0
2, 75600, Note_on_c, 0, 65, 0
2, 75600, Note_on_c, 0, 63, 75
2, 75600, Note_on_c, 0, 67, 75
2, 75840, Note_on_c, 0, 67, 0
2, 75840, Note_on_c, 0, 63, 0
2, 75840, Note_on_c, 0, 62, 75
2, 75840, Note_on_c, 0, 65, 75
2, 76080, Note_on_c, 0, 65, 0
2, 76080, Note_on_c, 0, 62, 0
2, 76080, Note_on_c, 0, 65, 75
2, 76080, Note_on_c, 0, 68, 75
2, 76320, Note_on_c, 0, 68, 0
2, 76320, Note_on_c, 0, 65, 0
2, 76320, Note_on_c, 0, 63, 75
2, 76320, Note_on_c, 0, 67, 75
2, 76560, Note_on_c, 0, 67, 0
2, 76560, Note_on_c, 0, 63, 0
2, 76560, Note_on_c, 0, 62, 75
2, 76560, Note_on_c, 0, 67, 75
2, 76800, Note_on_c, 0, 67, 0
2, 76800, Note_on_c, 0, 62, 0
2, 76800, Note_on_c, 0, 72, 75
2, 77040, Note_on_c, 0, 72, 0
2, 77040, Note_on_c, 0, 72, 75
2, 77087, Note_on_c, 0, 72, 0
2, 77280, Note_on_c, 0, 72, 75
2, 77327, Note_on_c, 0, 72, 0
2, 77520, Note_on_c, 0, 72, 75
2, 77567, Note_on_c, 0, 72, 0
2, 77760, Note_on_c, 0, 72, 75
2, 77807, Note_on_c, 0, 72, 0
2, 78000, Note_on_c, 0, 72, 75
2, 78047, Note_on_c, 0, 72, 0
2, 78240, Note_on_c, 0, 73, 75
2, 78960, Note_on_c, 0, 73, 0
2, 78960, Note_on_c, 0, 74, 75
2, 79680, Note_on_c, 0, 74, 0
2, 79680, Note_on_c, 0, 75, 75
2, 79727, Note_on_c, 0, 75, 0
2, 79920, Note_on_c, 0, 75, 75
2, 79967, Note_on_c, 0, 75, 0
2, 80160, Note_on_c, 0, 75, 75
2, 80207, Note_on_c, 0, 75, 0
2, 80400, Note_on_c, 0, 76, 75
2, 80447, Note_on_c, 0, 76, 0
2, 80640, Note_on_c, 0, 76, 75
2, 80687, Note_on_c, 0, 76, 0
2, 80880, Note_on_c, 0, 76, 75
2, 80927, Note_on_c, 0, 76, 0
2, 81120, Note_on_c, 0, 77, 75
2, 81840, Note_on_c, 0, 77, 0
2, 81840, Note_on_c, 0, 78, 75
2, 82320, Note_on_c, 0, 78, 0
2, 82320, Note_on_c, 0, 67, 75
2, 82560, Note_on_c, 0, 67, 0
2, 82560, Note_on_c, 0, 75, 75
2, 82560, Note_on_c, 0, 79, 75
2, 82800, Note_on_c, 0, 79, 0
2, 82800, Note_on_c, 0, 75, 0
2, 82800, Note_on_c, 0, 75, 75
2, 82800, Note_on_c, 0, 79, 75
2, 82847, Note_on_c, 0, 79, 0
2, 82847, Note_on_c, 0, 75, 0
2, 83040, Note_on_c, 0, 74, 75
2, 83040, Note_on_c, 0, 79, 75
2, 83087, Note_on_c, 0, 79, 0
2, 83087, Note_on_c, 0, 74, 0
2, 83280, Note_on_c, 0, 72, 75
2, 83280, Note_on_c, 0, 79, 75
2, 83327, Note_on_c, 0, 79, 0
2, 83327, Note_on_c, 0, 72, 0
2, 83520, Note_on_c, 0, 74, 75
2, 83520, Note_on_c, 0, 79, 75
2, 83567, Note_on_c, 0, 79, 0
2, 83567, Note_on_c, 0, 74, 0
2, 83760, Note_on_c, 0, 75, 75
2, 83760, Note_on_c, 0, 79, 75
2, 83807, Note_on_c, 0, 79, 0
2, 83807, Note_on_c, 0, 75, 0
2, 84000, Control_c, 0, 64, 127
2, 84000, Note_on_c, 0, 77, 75
2, 84000, Note_on_c, 0, 80, 75
2, 84120, Note_on_c, 0, 80, 0
2, 84120, Note_on_c, 0, 77, 0
2, 84120, Note_on_c, 0, 79, 75
2, 84240, Note_on_c, 0, 79, 0
2, 84240, Note_on_c, 0, 77, 75
2, 84360, Note_on_c, 0, 77, 0
2, 84360, Note_on_c, 0, 75, 75
2, 84480, Note_on_c, 0, 75, 0
2, 84480, Note_on_c, 0, 74, 75
2, 84600, Note_on_c, 0, 74, 0
2, 84600, Note_on_c, 0, 72, 75
2, 84720, Note_on_c, 0, 72, 0
2, 84720, Note_on_c, 0, 71, 75
2, 84840, Note_on_c, 0, 71, 0
2, 84840, Note_on_c, 0, 74, 75
2, 84960, Note_on_c, 0, 74, 0
2, 84960, Note_on_c, 0, 77, 75
2, 85080, Note_on_c, 0, 77, 0
2, 85080, Note_on_c, 0, 80, 75
2, 85200, Note_on_c, 0, 80, 0
2, 85200, Note_on_c, 0, 79, 75
2, 85320, Note_on_c, 0, 79, 0
2, 85320, Control_c, 0, 64, 0
2, 85320, Note_on_c, 0, 77, 75
2, 85440, Note_on_c, 0, 77, 0
2, 85440, Control_c, 0, 64, 127
2, 85440, Note_on_c, 0, 75, 75
2, 85560, Note_on_c, 0, 75, 0
2, 85560, Note_on_c, 0, 74, 75
2, 85680, Note_on_c, 0, 74, 0
2, 85680, Note_on_c, 0, 72, 75
2, 85800, Note_on_c, 0, 72, 0
2, 85800, Note_on_c, 0, 75, 75
2, 85920, Note_on_c, 0, 75, 0
2, 85920, Note_on_c, 0, 74, 75
2, 86040, Note_on_c, 0, 74, 0
2, 86040, Note_on_c, 0, 72, 75
2, 86160, Note_on_c, 0, 72, 0
2, 86160, Note_on_c, 0, 77, 75
2, 86280, Note_on_c, 0, 77, 0
2, 86280, Note_on_c, 0, 75, 75
2, 86400, Note_on_c, 0, 75, 0
2, 86400, Note_on_c, 0, 74, 75
2, 86520, Note_on_c, 0, 74, 0
2, 86520, Note_on_c, 0, 77, 75
2, 86640, Note_on_c, 0, 77, 0
2, 86640, Note_on_c, 0, 75, 75
2, 86760, Note_on_c, 0, 75, 0
2, 86760, Note_on_c, 0, 74, 75
2, 86880, Note_on_c, 0, 74, 0
2, 86880, Note_on_c, 0, 79, 75
2, 87000, Note_on_c, 0, 79, 0
2, 87000, Note_on_c, 0, 77, 75
2, 87120, Note_on_c, 0, 77, 0
2, 87120, Note_on_c, 0, 76, 75
2, 87240, Note_on_c, 0, 76, 0
2, 87240, Note_on_c, 0, 79, 75
2, 87360, Note_on_c, 0, 79, 0
2, 87360, Note_on_c, 0, 77, 75
2, 87480, Note_on_c, 0, 77, 0
2, 87480, Note_on_c, 0, 76, 75
2, 87600, Note_on_c, 0, 76, 0
2, 87600, Note_on_c, 0, 80, 75
2, 87720, Note_on_c, 0, 80, 0
2, 87720, Note_on_c, 0, 79, 75
2, 87840, Note_on_c, 0, 79, 0
2, 87840, Note_on_c, 0, 77, 75
2, 87960, Note_on_c, 0, 77, 0
2, 87960, Note_on_c, 0, 80, 75
2, 88080, Note_on_c, 0, 80, 0
2, 88080, Note_on_c, 0, 79, 75
2, 88200, Note_on_c, 0, 79, 0
2, 88200, Control_c, 0, 64, 0
2, 88200, Note_on_c, 0, 77, 75
2, 88320, Note_on_c, 0, 77, 0
2, 88320, Note_on_c, 0, 75, 75
2, 88560, Note_on_c, 0, 75, 0
2, 88560, Note_on_c, 0, 79, 75
2, 88800, Note_on_c, 0, 79, 0
2, 88800, Note_on_c, 0, 84, 75
2, 89040, Note_on_c, 0, 84, 0
2, 89040, Note_on_c, 0, 82, 75
2, 89280, Note_on_c, 0, 82, 0
2, 89280, Note_on_c, 0, 81, 75
2, 89520, Note_on_c, 0, 81, 0
2, 89520, Note_on_c, 0, 79, 75
2, 89760, Note_on_c, 0, 79, 0
2, 89760, Note_on_c, 0, 78, 75
2, 90480, Note_on_c, 0, 78, 0
2, 90480, Note_on_c, 0, 81, 75
2, 91200, Note_on_c, 0, 81, 0
2, 91200, Control_c, 0, 64, 127
2, 91200, Note_on_c, 0, 71, 75
2, 91320, Note_on_c, 0, 71, 0
2, 91320, Note_on_c, 0, 69, 75
2, 91440, Note_on_c, 0, 69, 0
2, 91440, Note_on_c, 0, 67, 75
2, 91560, Note_on_c, 0, 67, 0
2, 91560, Note_on_c, 0, 71, 75
2, 91680, Note_on_c, 0, 71, 0
2, 91680, Note_on_c, 0, 69, 75
2, 91800, Note_on_c, 0, 69, 0
2, 91800, Note_on_c, 0, 67, 75
2, 91920, Note_on_c, 0, 67, 0
2, 91920, Note_on_c, 0, 72, 75
2, 92040, Note_on_c, 0, 72, 0
2, 92040, Note_on_c, 0, 71, 75
2, 92160, Note_on_c, 0, 71, 0
2, 92160, Note_on_c, 0, 69, 75
2, 92280, Note_on_c, 0, 69, 0
2, 92280, Note_on_c, 0, 72, 75
2, 92400, Note_on_c, 0, 72, 0
2, 92400, Note_on_c, 0, 71, 75
2, 92520, Note_on_c, 0, 71, 0
2, 92520, Note_on_c, 0, 69, 75
2, 92640, Note_on_c, 0, 69, 0
2, 92640, Note_on_c, 0, 74, 75
2, 92760, Note_on_c, 0, 74, 0
2, 92760, Note_on_c, 0, 72, 75
2, 92880, Note_on_c, 0, 72, 0
2, 92880, Note_on_c, 0, 71, 75
2, 93000, Note_on_c, 0, 71, 0
2, 93000, Note_on_c, 0, 74, 75
2, 93120, Note_on_c, 0, 74, 0
2, 93120, Note_on_c, 0, 72, 75
2, 93240, Note_on_c, 0, 72, 0
2, 93240, Note_on_c, 0, 71, 75
2, 93360, Note_on_c, 0, 71, 0
2, 93360, Note_on_c, 0, 75, 75
2, 93480, Note_on_c, 0, 75, 0
2, 93480, Note_on_c, 0, 74, 75
2, 93600, Note_on_c, 0, 74, 0
2, 93600, Note_on_c, 0, 72, 75
2, 93720, Note_on_c, 0, 72, 0
2, 93720, Note_on_c, 0, 75, 75
2, 93840, Note_on_c, 0, 75, 0
2, 93840, Note_on_c, 0, 74, 75
2, 93960, Note_on_c, 0, 74, 0
2, 93960, Note_on_c, 0, 72, 75
2, 94080, Note_on_c, 0, 72, 0
2, 94080, Note_on_c, 0, 77, 62
2, 94200, Note_on_c, 0, 77, 0
2, 94200, Note_on_c, 0, 75, 62
2, 94320, Note_on_c, 0, 75, 0
2, 94320, Note_on_c, 0, 73, 62
2, 94440, Note_on_c, 0, 73, 0
2, 94440, Note_on_c, 0, 77, 62
2, 94560, Note_on_c, 0, 77, 0
2, 94560, Note_on_c, 0, 75, 62
2, 94680, Note_on_c, 0, 75, 0
2, 94680, Control_c, 0, 64, 0
2, 94680, Note_on_c, 0, 73, 62
2, 94800, Note_on_c, 0, 82, 62
2, 95520, Note_on_c, 0, 73, 0
2, 96240, Note_on_c, 0, 82, 0
2, 96240, Note_on_c, 0, 80, 62
2, 97680, Note_on_c, 0, 80, 0
2, 97680, Note_on_c, 0, 79, 62
2, 99120, Note_on_c, 0, 79, 0
2, 99120, Note_on_c, 0, 77, 62
2, 100560, Note_on_c, 0, 77, 0
2, 101280, Note_on_c, 0, 78, 62
2, 102000, Note_on_c, 0, 78, 0
2, 102000, Note_on_c, 0, 79, 62
2, 102240, Note_on_c, 0, 79, 0
2, 102720, Note_on_c, 0, 66, 75
2, 102720, Note_on_c, 0, 69, 75
2, 103200, Note_on_c, 0, 69, 0
2, 103200, Note_on_c, 0, 66, 0
2, 103200, Note_on_c, 0, 67, 75
2, 103200, Note_on_c, 0, 70, 75
2, 103440, Note_on_c, 0, 70, 0
2, 103440, Note_on_c, 0, 67, 0
2, 103440, Note_on_c, 0, 69, 75
2, 103440, Note_on_c, 0, 72, 75
2, 103920, Note_on_c, 0, 72, 0
2, 103920, Note_on_c, 0, 69, 0
2, 103920, Note_on_c, 0, 66, 75
2, 104160, Note_on_c, 0, 66, 0
2, 104160, Note_on_c, 0, 67, 75
2, 104400, Note_on_c, 0, 67, 0
2, 104400, Note_on_c, 0, 75, 75
2, 104640, Note_on_c, 0, 75, 0
2, 104640, Note_on_c, 0, 75, 75
2, 104687, Note_on_c, 0, 75, 0
2, 104880, Note_on_c, 0, 75, 75
2, 105120, Note_on_c, 0, 75, 0
2, 105120, Note_on_c, 0, 74, 75
2, 105360, Note_on_c, 0, 74, 0
2, 105360, Note_on_c, 0, 74, 75
2, 105407, Note_on_c, 0, 74, 0
2, 105840, Note_on_c, 0, 74, 75
2, 106080, Note_on_c, 0, 74, 0
2, 106080, Note_on_c, 0, 74, 75
2, 106320, Note_on_c, 0, 74, 0
2, 106320, Note_on_c, 0, 74, 75
2, 106800, Note_on_c, 0, 74, 0
2, 106800, Note_on_c, 0, 72, 75
2, 107040, Note_on_c, 0, 72, 0
2, 107040, Note_on_c, 0, 71, 75
2, 107280, Note_on_c, 0, 71, 0
2, 107280, Note_on_c, 0, 77, 75
2, 107280, Note_on_c, 0, 80, 75
2, 107520, Note_on_c, 0, 80, 0
2, 107520, Note_on_c, 0, 77, 0
2, 107520, Note_on_c, 0, 77, 75
2, 107520, Note_on_c, 0, 80, 75
2, 107567, Note_on_c, 0, 80, 0
2, 107567, Note_on_c, 0, 77, 0
2, 107760, Note_on_c, 0, 77, 75
2, 107760, Note_on_c, 0, 80, 75
2, 108000, Note_on_c, 0, 80, 0
2, 108000, Note_on_c, 0, 77, 0
2, 108000, Note_on_c, 0, 75, 75
2, 108000, Note_on_c, 0, 79, 75
2, 108240, Note_on_c, 0, 79, 0
2, 108240, Note_on_c, 0, 75, 0
2, 108240, Note_on_c, 0, 75, 75
2, 108240, Note_on_c, 0, 79, 75
2, 108287, Note_on_c, 0, 79, 0
2, 108287, Note_on_c, 0, 75, 0
2, 108720, Note_on_c, 0, 71, 75
2, 108720, Note_on_c, 0, 77, 75
2, 108960, Note_on_c, 0, 77, 0
2, 108960, Note_on_c, 0, 71, 0
2, 108960, Note_on_c, 0, 71, 75
2, 108960, Note_on_c, 0, 77, 75
2, 109200, Note_on_c, 0, 77, 0
2, 109200, Note_on_c, 0, 71, 0
2, 109200, Note_on_c, 0, 71, 75
2, 109200, Note_on_c, 0, 77, 75
2, 109680, Note_on_c, 0, 77, 0
2, 109680, Note_on_c, 0, 71, 0
2, 109680, Note_on_c, 0, 72, 75
2, 109680, Note_on_c, 0, 75, 75
2, 109920, Note_on_c, 0, 75, 0
2, 109920, Note_on_c, 0, 72, 0
2, 110160, Note_on_c, 0, 83, 88
2, 110400, Note_on_c, 0, 83, 0
2, 110400, Note_on_c, 0, 83, 88
2, 110640, Note_on_c, 0, 83, 0
2, 110640, Note_on_c, 0, 83, 88
2, 110880, Note_on_c, 0, 83, 0
2, 110880, Note_on_c, 0, 84, 88
2, 111120, Note_on_c, 0, 84, 0
2, 111120, Note_on_c, 0, 84, 88
2, 111167, Note_on_c, 0, 84, 0
2, 111360, Note_on_c, 0, 86, 88
2, 111600, Note_on_c, 0, 86, 0
2, 111600, Note_on_c, 0, 79, 88
2, 111840, Note_on_c, 0, 79, 0
2, 111840, Note_on_c, 0, 79, 88
2, 111887, Note_on_c, 0, 79, 0
2, 112080, Note_on_c, 0, 79, 88
2, 112127, Note_on_c, 0, 79, 0
2, 112320, Note_on_c, 0, 79, 88
2, 112367, Note_on_c, 0, 79, 0
2, 112560, Note_on_c, 0, 79, 88
2, 112607, Note_on_c, 0, 79, 0
2, 112800, Control_c, 0, 64, 127
2, 112800, Note_on_c, 0, 80, 88
2, 112920, Note_on_c, 0, 80, 0
2, 112920, Note_on_c, 0, 79, 88
2, 113040, Note_on_c, 0, 79, 0
2, 113040, Note_on_c, 0, 77, 88
2, 113160, Note_on_c, 0, 77, 0
2, 113160, Note_on_c, 0, 75, 88
2, 113280, Note_on_c, 0, 75, 0
2, 113280, Note_on_c, 0, 74, 88
2, 113400, Note_on_c, 0, 74, 0
2, 113400, Note_on_c, 0, 72, 88
2, 113520, Note_on_c, 0, 72, 0
2, 113520, Note_on_c, 0, 71, 88
2, 113640, Note_on_c, 0, 71, 0
2, 113640, Note_on_c, 0, 74, 88
2, 113760, Note_on_c, 0, 74, 0
2, 113760, Note_on_c, 0, 77, 88
2, 113880, Note_on_c, 0, 77, 0
2, 113880, Note_on_c, 0, 80, 88
2, 114000, Note_on_c, 0, 80, 0
2, 114000, Note_on_c, 0, 79, 88
2, 114120, Note_on_c, 0, 79, 0
2, 114120, Note_on_c, 0, 77, 88
2, 114240, Note_on_c, 0, 77, 0
2, 114240, Note_on_c, 0, 79, 88
2, 114360, Note_on_c, 0, 79, 0
2, 114360, Note_on_c, 0, 77, 88
2, 114480, Note_on_c, 0, 77, 0
2, 114480, Note_on_c, 0, 75, 88
2, 114600, Note_on_c, 0, 75, 0
2, 114600, Note_on_c, 0, 74, 88
2, 114720, Note_on_c, 0, 74, 0
2, 114720, Note_on_c, 0, 72, 88
2, 114840, Note_on_c, 0, 72, 0
2, 114840, Note_on_c, 0, 70, 88
2, 114960, Note_on_c, 0, 70, 0
2, 114960, Note_on_c, 0, 69, 88
2, 115080, Note_on_c, 0, 69, 0
2, 115080, Note_on_c, 0, 72, 88
2, 115200, Note_on_c, 0, 72, 0
2, 115200, Note_on_c, 0, 75, 88
2, 115320, Note_on_c, 0, 75, 0
2, 115320, Note_on_c, 0, 79, 88
2, 115440, Note_on_c, 0, 79, 0
2, 115440, Note_on_c, 0, 77, 88
2, 115560, Note_on_c, 0, 77, 0
2, 115560, Control_c, 0, 64, 0
2, 115560, Note_on_c, 0, 75, 88
2, 115680, Note_on_c, 0, 75, 0
2, 115680, Control_c, 0, 64, 127
2, 115680, Note_on_c, 0, 77, 88
2, 115800, Note_on_c, 0, 77, 0
2, 115800, Note_on_c, 0, 75, 88
2, 115920, Note_on_c, 0, 75, 0
2, 115920, Note_on_c, 0, 74, 88
2, 116040, Note_on_c, 0, 74, 0
2, 116040, Note_on_c, 0, 72, 88
2, 116160, Note_on_c, 0, 72, 0
2, 116160, Note_on_c, 0, 71, 88
2, 116280, Note_on_c, 0, 71, 0
2, 116280, Note_on_c, 0, 68, 88
2, 116400, Note_on_c, 0, 68, 0
2, 116400, Note_on_c, 0, 67, 88
2, 116520, Note_on_c, 0, 67, 0
2, 116520, Note_on_c, 0, 71, 88
2, 116640, Note_on_c, 0, 71, 0
2, 116640, Note_on_c, 0, 74, 88
2, 116760, Note_on_c, 0, 74, 0
2, 116760, Note_on_c, 0, 77, 88
2, 116880, Note_on_c, 0, 77, 0
2, 116880, Note_on_c, 0, 75, 88
2, 117000, Note_on_c, 0, 75, 0
2, 117000, Note_on_c, 0, 74, 88
2, 117120, Note_on_c, 0, 74, 0
2, 117120, Note_on_c, 0, 75, 88
2, 117240, Note_on_c, 0, 75, 0
2, 117240, Note_on_c, 0, 74, 88
2, 117360, Note_on_c, 0, 74, 0
2, 117360, Note_on_c, 0, 72, 88
2, 117480, Note_on_c, 0, 72, 0
2, 117480, Note_on_c, 0, 70, 88
2, 117600, Note_on_c, 0, 70, 0
2, 117600, Note_on_c, 0, 68, 88
2, 117720, Note_on_c, 0, 68, 0
2, 117720, Note_on_c, 0, 67, 88
2, 117840, Note_on_c, 0, 67, 0
2, 117840, Note_on_c, 0, 66, 88
2, 117960, Note_on_c, 0, 66, 0
2, 117960, Note_on_c, 0, 68, 88
2, 118080, Note_on_c, 0, 68, 0
2, 118080, Note_on_c, 0, 72, 88
2, 118200, Note_on_c, 0, 72, 0
2, 118200, Note_on_c, 0, 75, 88
2, 118320, Note_on_c, 0, 75, 0
2, 118320, Note_on_c, 0, 74, 88
2, 118440, Note_on_c, 0, 74, 0
2, 118440, Control_c, 0, 64, 0
2, 118440, Note_on_c, 0, 72, 88
2, 118560, Note_on_c, 0, 72, 0
2, 118560, Control_c, 0, 64, 127
2, 118560, Note_on_c, 0, 75, 88
2, 118680, Note_on_c, 0, 75, 0
2, 118680, Note_on_c, 0, 74, 88
2, 118800, Note_on_c, 0, 74, 0
2, 118800, Note_on_c, 0, 72, 88
2, 118920, Note_on_c, 0, 72, 0
2, 118920, Note_on_c, 0, 70, 88
2, 119040, Note_on_c, 0, 70, 0
2, 119040, Note_on_c, 0, 68, 88
2, 119160, Note_on_c, 0, 68, 0
2, 119160, Note_on_c, 0, 67, 88
2, 119280, Note_on_c, 0, 67, 0
2, 119280, Note_on_c, 0, 66, 88
2, 119400, Note_on_c, 0, 66, 0
2, 119400, Note_on_c, 0, 68, 88
2, 119520, Note_on_c, 0, 68, 0
2, 119520, Note_on_c, 0, 72, 88
2, 119640, Note_on_c, 0, 72, 0
2, 119640, Note_on_c, 0, 75, 88
2, 119760, Note_on_c, 0, 75, 0
2, 119760, Note_on_c, 0, 74, 88
2, 119880, Note_on_c, 0, 74, 0
2, 119880, Control_c, 0, 64, 0
2, 119880, Note_on_c, 0, 72, 88
2, 120000, Note_on_c, 0, 72, 0
2, 120000, Control_c, 0, 64, 127
2, 120000, Note_on_c, 0, 75, 88
2, 120120, Note_on_c, 0, 75, 0
2, 120120, Note_on_c, 0, 74, 88
2, 120240, Note_on_c, 0, 74, 0
2, 120240, Note_on_c, 0, 72, 88
2, 120360, Note_on_c, 0, 72, 0
2, 120360, Note_on_c, 0, 75, 88
2, 120480, Note_on_c, 0, 75, 0
2, 120480, Note_on_c, 0, 74, 88
2, 120600, Note_on_c, 0, 74, 0
2, 120600, Note_on_c, 0, 72, 88
2, 120720, Note_on_c, 0, 72, 0
2, 120720, Note_on_c, 0, 75, 88
2, 120840, Note_on_c, 0, 75, 0
2, 120840, Note_on_c, 0, 74, 88
2, 120960, Note_on_c, 0, 74, 0
2, 120960, Note_on_c, 0, 72, 88
2, 121080, Note_on_c, 0, 72, 0
2, 121080, Note_on_c, 0, 75, 88
2, 121200, Note_on_c, 0, 75, 0
2, 121200, Note_on_c, 0, 74, 88
2, 121320, Note_on_c, 0, 74, 0
2, 121320, Note_on_c, 0, 72, 88
2, 121440, Note_on_c, 0, 72, 0
2, 121440, Note_on_c, 0, 75, 88
2, 121560, Note_on_c, 0, 75, 0
2, 121560, Note_on_c, 0, 74, 88
2, 121680, Note_on_c, 0, 74, 0
2, 121680, Note_on_c, 0, 72, 88
2, 121800, Note_on_c, 0, 72, 0
2, 121800, Note_on_c, 0, 75, 88
2, 121920, Note_on_c, 0, 75, 0
2, 121920, Note_on_c, 0, 74, 88
2, 122040, Note_on_c, 0, 74, 0
2, 122040, Note_on_c, 0, 72, 88
2, 122160, Note_on_c, 0, 72, 0
2, 122160, Control_c, 0, 64, 0
2, 122160, Note_on_c, 0, 71, 88
2, 122160, Note_on_c, 0, 74, 88
2, 122160, Note_on_c, 0, 79, 88
2, 122207, Note_on_c, 0, 79, 0
2, 122207, Note_on_c, 0, 74, 0
2, 122207, Note_on_c, 0, 71, 0
2, 122400, Note_on_c, 0, 67, 88
2, 122447, Note_on_c, 0, 67, 0
2, 122640, Note_on_c, 0, 65, 88
2, 122640, Note_on_c, 0, 71, 88
2, 122687, Note_on_c, 0, 71, 0
2, 122687, Note_on_c, 0, 65, 0
2, 122880, Note_on_c, 0, 67, 75
2, 122880, Note_on_c, 0, 72, 75
2, 123120, Note_on_c, 0, 72, 0
2, 123120, Note_on_c, 0, 67, 0
2, 124560, Control_c, 0, 64, 127
2, 124560, Note_on_c, 0, 67, 75
2, 124680, Note_on_c, 0, 67, 0
2, 124680, Note_on_c, 0, 68, 75
2, 124800, Note_on_c, 0, 68, 0
2, 124800, Note_on_c, 0, 70, 75
2, 124920, Note_on_c, 0, 70, 0
2, 124920, Note_on_c, 0, 72, 75
2, 125040, Note_on_c, 0, 72, 0
2, 125040, Control_c, 0, 64, 0
2, 125040, Note_on_c, 0, 73, 75
2, 126000, Note_on_c, 0, 73, 0
2, 126000, Control_c, 0, 64, 127
2, 126000, Note_on_c, 0, 67, 75
2, 126120, Note_on_c, 0, 67, 0
2, 126120, Note_on_c, 0, 68, 75
2, 126240, Note_on_c, 0, 68, 0
2, 126240, Note_on_c, 0, 70, 75
2, 126360, Note_on_c, 0, 70, 0
2, 126360, Note_on_c, 0, 72, 75
2, 126480, Note_on_c, 0, 72, 0
2, 126480, Control_c, 0, 64, 0
2, 126480, Note_on_c, 0, 73, 75
2, 127440, Note_on_c, 0, 73, 0
2, 127440, Note_on_c, 0, 72, 75
2, 127680, Note_on_c, 0, 72, 0
2, 127680, Note_on_c, 0, 70, 75
2, 127920, Note_on_c, 0, 70, 0
2, 127920, Note_on_c, 0, 73, 75
2, 128160, Note_on_c, 0, 73, 0
2, 128160, Note_on_c, 0, 72, 75
2, 128400, Note_on_c, 0, 72, 0
2, 128400, Note_on_c, 0, 70, 75
2, 128640, Note_on_c, 0, 70, 0
2, 128640, Note_on_c, 0, 75, 75
2, 128880, Note_on_c, 0, 75, 0
2, 128880, Note_on_c, 0, 75, 75
2, 128927, Note_on_c, 0, 75, 0
2, 129120, Note_on_c, 0, 75, 75
2, 129167, Note_on_c, 0, 75, 0
2, 129360, Note_on_c, 0, 75, 75
2, 129407, Note_on_c, 0, 75, 0
2, 129600, Note_on_c, 0, 75, 75
2, 129647, Note_on_c, 0, 75, 0
2, 129840, Note_on_c, 0, 75, 75
2, 129887, Note_on_c, 0, 75, 0
2, 130080, Note_on_c, 0, 73, 101
2, 130080, Note_on_c, 0, 76, 101
2, 131040, Note_on_c, 0, 76, 0
2, 131040, Note_on_c, 0, 73, 0
2, 131040, Control_c, 0, 64, 127
2, 131040, Note_on_c, 0, 70, 75
2, 131160, Note_on_c, 0, 70, 0
2, 131160, Note_on_c, 0, 72, 75
2, 131280, Note_on_c, 0, 72, 0
2, 131280, Note_on_c, 0, 73, 75
2, 131400, Note_on_c, 0, 73, 0
2, 131400, Note_on_c, 0, 75, 75
2, 131520, Note_on_c, 0, 75, 0
2, 131520, Control_c, 0, 64, 0
2, 131520, Note_on_c, 0, 73, 101
2, 131520, Note_on_c, 0, 76, 101
2, 132480, Note_on_c, 0, 76, 0
2, 132480, Note_on_c, 0, 73, 0
2, 132480, Control_c, 0, 64, 127
2, 132480, Note_on_c, 0, 70, 75
2, 132600, Note_on_c, 0, 70, 0
2, 132600, Note_on_c, 0, 72, 75
2, 132720, Note_on_c, 0, 72, 0
2, 132720, Note_on_c, 0, 73, 75
2, 132840, Note_on_c, 0, 73, 0
2, 132840, Note_on_c, 0, 75, 75
2, 132960, Note_on_c, 0, 75, 0
2, 132960, Control_c, 0, 64, 0
2, 132960, Note_on_c, 0, 73, 75
2, 132960, Note_on_c, 0, 76, 75
2, 133200, Note_on_c, 0, 76, 0
2, 133200, Note_on_c, 0, 73, 0
2, 133200, Note_on_c, 0, 72, 75
2, 133200, Note_on_c, 0, 75, 75
2, 133440, Note_on_c, 0, 75, 0
2, 133440, Note_on_c, 0, 72, 0
2, 133440, Note_on_c, 0, 73, 75
2, 133680, Note_on_c, 0, 73, 0
2, 133680, Note_on_c, 0, 76, 75
2, 133920, Note_on_c, 0, 76, 0
2, 133920, Note_on_c, 0, 75, 75
2, 134160, Note_on_c, 0, 75, 0
2, 134160, Note_on_c, 0, 73, 75
2, 134400, Note_on_c, 0, 73, 0
2, 134400, Note_on_c, 0, 68, 75
2, 134400, Note_on_c, 0, 72, 75
2, 135120, Note_on_c, 0, 72, 0
2, 135120, Note_on_c, 0, 68, 0
2, 135120, Note_on_c, 0, 72, 75
2, 135120, Note_on_c, 0, 80, 75
2, 135840, Note_on_c, 0, 80, 0
2, 135840, Note_on_c, 0, 72, 0
2, 135840, Note_on_c, 0, 70, 75
2, 135840, Note_on_c, 0, 75, 75
2, 135840, Note_on_c, 0, 79, 75
2, 136560, Note_on_c, 0, 79, 0
2, 136560, Note_on_c, 0, 75, 0
2, 136560, Note_on_c, 0, 70, 0
2, 136560, Note_on_c, 0, 68, 75
2, 136560, Note_on_c, 0, 75, 75
2, 136560, Note_on_c, 0, 78, 75
2, 137040, Note_on_c, 0, 78, 0
2, 137040, Note_on_c, 0, 75, 0
2, 137040, Note_on_c, 0, 68, 0
2, 137040, Note_on_c, 0, 68, 75
2, 137280, Note_on_c, 0, 68, 0
2, 137280, Note_on_c, 0, 68, 75
2, 137280, Note_on_c, 0, 80, 75
2, 137520, Note_on_c, 0, 80, 0
2, 137520, Note_on_c, 0, 68, 0
2, 137520, Note_on_c, 0, 73, 75
2, 137520, Note_on_c, 0, 80, 75
2, 137567, Note_on_c, 0, 80, 0
2, 137567, Note_on_c, 0, 73, 0
2, 137760, Note_on_c, 0, 72, 75
2, 137760, Note_on_c, 0, 80, 75
2, 137807, Note_on_c, 0, 80, 0
2, 137807, Note_on_c, 0, 72, 0
2, 138000, Note_on_c, 0, 73, 75
2, 138000, Note_on_c, 0, 80, 75
2, 138047, Note_on_c, 0, 80, 0
2, 138047, Note_on_c, 0, 73, 0
2, 138240, Note_on_c, 0, 73, 75
2, 138240, Note_on_c, 0, 80, 75
2, 138287, Note_on_c, 0, 80, 0
2, 138287, Note_on_c, 0, 73, 0
2, 138480, Note_on_c, 0, 73, 75
2, 138480, Note_on_c, 0, 80, 75
2, 138527, Note_on_c, 0, 80, 0
2, 138527, Note_on_c, 0, 73, 0
2, 138720, Control_c, 0, 64, 127
2, 138720, Note_on_c, 0, 73, 75
2, 138720, Note_on_c, 0, 82, 75
2, 138840, Note_on_c, 0, 82, 0
2, 138840, Note_on_c, 0, 73, 0
2, 138840, Note_on_c, 0, 80, 75
2, 138960, Note_on_c, 0, 80, 0
2, 138960, Note_on_c, 0, 79, 75
2, 139080, Note_on_c, 0, 79, 0
2, 139080, Note_on_c, 0, 77, 75
2, 139200, Note_on_c, 0, 77, 0
2, 139200, Note_on_c, 0, 75, 75
2, 139320, Note_on_c, 0, 75, 0
2, 139320, Note_on_c, 0, 73, 75
2, 139440, Note_on_c, 0, 73, 0
2, 139440, Note_on_c, 0, 72, 75
2, 139560, Note_on_c, 0, 72, 0
2, 139560, Note_on_c, 0, 75, 75
2, 139680, Note_on_c, 0, 75, 0
2, 139680, Note_on_c, 0, 78, 75
2, 139800, Note_on_c, 0, 78, 0
2, 139800, Note_on_c, 0, 82, 75
2, 139920, Note_on_c, 0, 82, 0
2, 139920, Note_on_c, 0, 80, 75
2, 140040, Note_on_c, 0, 80, 0
2, 140040, Note_on_c, 0, 78, 75
2, 140160, Note_on_c, 0, 78, 0
2, 140160, Control_c, 0, 64, 0
2, 140160, Note_on_c, 0, 77, 75
2, 140400, Note_on_c, 0, 77, 0
2, 140880, Note_on_c, 0, 70, 75
2, 140880, Note_on_c, 0, 77, 75
2, 141600, Note_on_c, 0, 77, 0
2, 141600, Note_on_c, 0, 70, 0
2, 141600, Note_on_c, 0, 72, 75
2, 141600, Note_on_c, 0, 76, 75
2, 142320, Note_on_c, 0, 76, 0
2, 142320, Note_on_c, 0, 72, 0
2, 142320, Note_on_c, 0, 72, 75
2, 142320, Note_on_c, 0, 75, 75
2, 142800, Note_on_c, 0, 75, 0
2, 142800, Note_on_c, 0, 72, 0
2, 142800, Note_on_c, 0, 65, 75
2, 143040, Note_on_c, 0, 65, 0
2, 143040, Note_on_c, 0, 77, 75
2, 143280, Note_on_c, 0, 77, 0
2, 143280, Note_on_c, 0, 77, 75
2, 143327, Note_on_c, 0, 77, 0
2, 143520, Note_on_c, 0, 77, 75
2, 143567, Note_on_c, 0, 77, 0
2, 143760, Note_on_c, 0, 77, 75
2, 143807, Note_on_c, 0, 77, 0
2, 144000, Note_on_c, 0, 77, 75
2, 144047, Note_on_c, 0, 77, 0
2, 144240, Note_on_c, 0, 77, 75
2, 144287, Note_on_c, 0, 77, 0
2, 144480, Control_c, 0, 64, 127
2, 144480, Note_on_c, 0, 70, 75
2, 144480, Note_on_c, 0, 78, 75
2, 144600, Note_on_c, 0, 78, 0
2, 144600, Note_on_c, 0, 70, 0
2, 144600, Note_on_c, 0, 77, 75
2, 144720, Note_on_c, 0, 77, 0
2, 144720, Note_on_c, 0, 75, 75
2, 144840, Note_on_c, 0, 75, 0
2, 144840, Note_on_c, 0, 73, 75
2, 144960, Note_on_c, 0, 73, 0
2, 144960, Note_on_c, 0, 72, 75
2, 145080, Note_on_c, 0, 72, 0
2, 145080, Note_on_c, 0, 70, 75
2, 145200, Note_on_c, 0, 70, 0
2, 145200, Note_on_c, 0, 69, 75
2, 145320, Note_on_c, 0, 69, 0
2, 145320, Note_on_c, 0, 72, 75
2, 145440, Note_on_c, 0, 72, 0
2, 145440, Note_on_c, 0, 75, 75
2, 145560, Note_on_c, 0, 75, 0
2, 145560, Note_on_c, 0, 78, 75
2, 145680, Note_on_c, 0, 78, 0
2, 145680, Note_on_c, 0, 77, 75
2, 145800, Note_on_c, 0, 77, 0
2, 145800, Note_on_c, 0, 75, 75
2, 145920, Note_on_c, 0, 75, 0
2, 145920, Control_c, 0, 64, 0
2, 145920, Note_on_c, 0, 73, 75
2, 146400, Note_on_c, 0, 73, 0
2, 146400, Note_on_c, 0, 70, 75
2, 146400, Note_on_c, 0, 73, 75
2, 146640, Note_on_c, 0, 73, 0
2, 146640, Note_on_c, 0, 70, 0
2, 146640, Note_on_c, 0, 73, 75
2, 146640, Note_on_c, 0, 77, 75
2, 147120, Note_on_c, 0, 77, 0
2, 147120, Note_on_c, 0, 73, 0
2, 147120, Note_on_c, 0, 75, 75
2, 147360, Note_on_c, 0, 75, 0
2, 147360, Note_on_c, 0, 68, 75
2, 147360, Note_on_c, 0, 73, 75
2, 148320, Note_on_c, 0, 73, 0
2, 148320, Note_on_c, 0, 68, 0
2, 148560, Note_on_c, 0, 62, 75
2, 148800, Note_on_c, 0, 62, 0
2, 148800, Note_on_c, 0, 74, 75
2, 149040, Note_on_c, 0, 74, 0
2, 149040, Note_on_c, 0, 74, 75
2, 149087, Note_on_c, 0, 74, 0
2, 149280, Note_on_c, 0, 74, 75
2, 149327, Note_on_c, 0, 74, 0
2, 149520, Note_on_c, 0, 74, 75
2, 149567, Note_on_c, 0, 74, 0
2, 149760, Note_on_c, 0, 74, 75
2, 149807, Note_on_c, 0, 74, 0
2, 150000, Note_on_c, 0, 74, 75
2, 150047, Note_on_c, 0, 74, 0
2, 150240, Note_on_c, 0, 67, 75
2, 150240, Note_on_c, 0, 75, 75
2, 150720, Note_on_c, 0, 75, 0
2, 150720, Note_on_c, 0, 67, 0
2, 150720, Note_on_c, 0, 67, 75
2, 150720, Note_on_c, 0, 70, 75
2, 150720, Note_on_c, 0, 75, 75
2, 150960, Note_on_c, 0, 75, 0
2, 150960, Note_on_c, 0, 70, 0
2, 150960, Note_on_c, 0, 67, 0
2, 150960, Note_on_c, 0, 70, 75
2, 150960, Note_on_c, 0, 75, 75
2, 150960, Note_on_c, 0, 79, 75
2, 151440, Note_on_c, 0, 79, 0
2, 151440, Note_on_c, 0, 75, 0
2, 151440, Note_on_c, 0, 70, 0
2, 151440, Note_on_c, 0, 77, 75
2, 151680, Note_on_c, 0, 77, 0
2, 151680, Note_on_c, 0, 70, 75
2, 151680, Note_on_c, 0, 75, 75
2, 152640, Note_on_c, 0, 75, 0
2, 152640, Note_on_c, 0, 70, 0
2, 152880, Note_on_c, 0, 64, 75
2, 153120, Note_on_c, 0, 64, 0
2, 153120, Note_on_c, 0, 76, 75
2, 153360, Note_on_c, 0, 76, 0
2, 153360, Note_on_c, 0, 76, 75
2, 153407, Note_on_c, 0, 76, 0
2, 153600, Note_on_c, 0, 76, 75
2, 153647, Note_on_c, 0, 76, 0
2, 153840, Note_on_c, 0, 76, 75
2, 153887, Note_on_c, 0, 76, 0
2, 154080, Note_on_c, 0, 76, 75
2, 154127, Note_on_c, 0, 76, 0
2, 154320, Note_on_c, 0, 76, 75
2, 154367, Note_on_c, 0, 76, 0
2, 154560, Note_on_c, 0, 84, 75
2, 154800, Note_on_c, 0, 84, 0
2, 154800, Note_on_c, 0, 84, 75
2, 154847, Note_on_c, 0, 84, 0
2, 155040, Note_on_c, 0, 84, 75
2, 155087, Note_on_c, 0, 84, 0
2, 155280, Note_on_c, 0, 84, 75
2, 155327, Note_on_c, 0, 84, 0
2, 155520, Note_on_c, 0, 84, 75
2, 155567, Note_on_c, 0, 84, 0
2, 155760, Note_on_c, 0, 84, 75
2, 155807, Note_on_c, 0, 84, 0
2, 156000, Note_on_c, 0, 74, 75
2, 156000, Note_on_c, 0, 77, 75
2, 156000, Note_on_c, 0, 83, 75
2, 156240, Note_on_c, 0, 83, 0
2, 156240, Note_on_c, 0, 77, 0
2, 156240, Note_on_c, 0, 74, 0
2, 156240, Note_on_c, 0, 71, 75
2, 156240, Note_on_c, 0, 77, 75
2, 156240, Note_on_c, 0, 79, 75
2, 156480, Note_on_c, 0, 79, 0
2, 156480, Note_on_c, 0, 77, 0
2, 156480, Note_on_c, 0, 71, 0
2, 156480, Note_on_c, 0, 72, 75
2, 156480, Note_on_c, 0, 77, 75
2, 156480, Note_on_c, 0, 80, 75
2, 156720, Note_on_c, 0, 80, 0
2, 156720, Note_on_c, 0, 77, 0
2, 156720, Note_on_c, 0, 72, 0
2, 156720, Note_on_c, 0, 71, 75
2, 156720, Note_on_c, 0, 79, 75
2, 157200, Note_on_c, 0, 79, 0
2, 157200, Note_on_c, 0, 71, 0
2, 157200, Note_on_c, 0, 70, 75
2, 157440, Note_on_c, 0, 70, 0
2, 157440, Note_on_c, 0, 82, 75
2, 157680, Note_on_c, 0, 82, 0
2, 157680, Note_on_c, 0, 82, 75
2, 157727, Note_on_c, 0, 82, 0
2, 157920, Note_on_c, 0, 82, 75
2, 157967, Note_on_c, 0, 82, 0
2, 158160, Note_on_c, 0, 82, 75
2, 158207, Note_on_c, 0, 82, 0
2, 158400, Note_on_c, 0, 82, 75
2, 158447, Note_on_c, 0, 82, 0
2, 158640, Note_on_c, 0, 82, 88
2, 158687, Note_on_c, 0, 82, 0
2, 158880, Note_on_c, 0, 72, 88
2, 158880, Note_on_c, 0, 75, 88
2, 158880, Note_on_c, 0, 81, 88
2, 159120, Note_on_c, 0, 81, 0
2, 159120, Note_on_c, 0, 75, 0
2, 159120, Note_on_c, 0, 72, 0
2, 159120, Note_on_c, 0, 69, 88
2, 159120, Note_on_c, 0, 75, 88
2, 159120, Note_on_c, 0, 77, 88
2, 159360, Note_on_c, 0, 77, 0
2, 159360, Note_on_c, 0, 75, 0
2, 159360, Note_on_c, 0, 69, 0
2, 159360, Note_on_c, 0, 70, 88
2, 159360, Note_on_c, 0, 75, 88
2, 159360, Note_on_c, 0, 78, 88
2, 159600, Note_on_c, 0, 78, 0
2, 159600, Note_on_c, 0, 75, 0
2, 159600, Note_on_c, 0, 70, 0
2, 159600, Note_on_c, 0, 69, 88
2, 159600, Note_on_c, 0, 75, 88
2, 159600, Note_on_c, 0, 77, 88
2, 159840, Note_on_c, 0, 77, 0
2, 159840, Note_on_c, 0, 75, 0
2, 159840, Note_on_c, 0, 69, 0
2, 160080, Note_on_c, 0, 68, 88
2, 160320, Note_on_c, 0, 68, 0
2, 160320, Note_on_c, 0, 71, 88
2, 160320, Note_on_c, 0, 74, 88
2, 160320, Note_on_c, 0, 80, 88
2, 160560, Note_on_c, 0, 80, 0
2, 160560, Note_on_c, 0, 74, 0
2, 160560, Note_on_c, 0, 71, 0
2, 160560, Note_on_c, 0, 71, 88
2, 160560, Note_on_c, 0, 74, 88
2, 160560, Note_on_c, 0, 80, 88
2, 160607, Note_on_c, 0, 80, 0
2, 160607, Note_on_c, 0, 74, 0
2, 160607, Note_on_c, 0, 71, 0
2, 160800, Note_on_c, 0, 71, 88
2, 160800, Note_on_c, 0, 74, 88
2, 160800, Note_on_c, 0, 80, 88
2, 160847, Note_on_c, 0, 80, 0
2, 160847, Note_on_c, 0, 74, 0
2, 160847, Note_on_c, 0, 71, 0
2, 161040, Note_on_c, 0, 71, 88
2, 161040, Note_on_c, 0, 74, 88
2, 161040, Note_on_c, 0, 80, 88
2, 161087, Note_on_c, 0, 80, 0
2, 161087, Note_on_c, 0, 74, 0
2, 161087, Note_on_c, 0, 71, 0
2, 161280, Note_on_c, 0, 71, 88
2, 161280, Note_on_c, 0, 74, 88
2, 161280, Note_on_c, 0, 80, 88
2, 161327, Note_on_c, 0, 80, 0
2, 161327, Note_on_c, 0, 74, 0
2, 161327, Note_on_c, 0, 71, 0
2, 161520, Note_on_c, 0, 71, 88
2, 161520, Note_on_c, 0, 74, 88
2, 161520, Note_on_c, 0, 80, 88
2, 161567, Note_on_c, 0, 80, 0
2, 161567, Note_on_c, 0, 74, 0
2, 161567, Note_on_c, 0, 71, 0
2, 161760, Note_on_c, 0, 70, 88
2, 161760, Note_on_c, 0, 76, 88
2, 161760, Note_on_c, 0, 79, 88
2, 162240, Note_on_c, 0, 79, 0
2, 162240, Note_on_c, 0, 76, 0
2, 162240, Note_on_c, 0, 70, 0
2, 162960, Note_on_c, 0, 66, 88
2, 163200, Note_on_c, 0, 66, 0
2, 163200, Note_on_c, 0, 69, 88
2, 163200, Note_on_c, 0, 75, 88
2, 163200, Note_on_c, 0, 78, 88
2, 163440, Note_on_c, 0, 78, 0
2, 163440, Note_on_c, 0, 75, 0
2, 163440, Note_on_c, 0, 69, 0
2, 163440, Note_on_c, 0, 69, 88
2, 163440, Note_on_c, 0, 75, 88
2, 163440, Note_on_c, 0, 78, 88
2, 163487, Note_on_c, 0, 78, 0
2, 163487, Note_on_c, 0, 75, 0
2, 163487, Note_on_c, 0, 69, 0
2, 163680, Note_on_c, 0, 69, 88
2, 163680, Note_on_c, 0, 75, 88
2, 163680, Note_on_c, 0, 78, 88
2, 163727, Note_on_c, 0, 78, 0
2, 163727, Note_on_c, 0, 75, 0
2, 163727, Note_on_c, 0, 69, 0
2, 163920, Note_on_c, 0, 69, 88
2, 163920, Note_on_c, 0, 75, 88
2, 163920, Note_on_c, 0, 78, 88
2, 163967, Note_on_c, 0, 78, 0
2, 163967, Note_on_c, 0, 75, 0
2, 163967, Note_on_c, 0, 69, 0
2, 164160, Note_on_c, 0, 69, 88
2, 164160, Note_on_c, 0, 75, 88
2, 164160, Note_on_c, 0, 78, 88
2, 164207, Note_on_c, 0, 78, 0
2, 164207, Note_on_c, 0, 75, 0
2, 164207, Note_on_c, 0, 69, 0
2, 164400, Note_on_c, 0, 69, 88
2, 164400, Note_on_c, 0, 75, 88
2, 164400, Note_on_c, 0, 78, 88
2, 164447, Note_on_c, 0, 78, 0
2, 164447, Note_on_c, 0, 75, 0
2, 164447, Note_on_c, 0, 69, 0
2, 164640, Note_on_c, 0, 70, 75
2, 164640, Note_on_c, 0, 73, 75
2, 164640, Note_on_c, 0, 77, 75
2, 165120, Note_on_c, 0, 77, 0
2, 165120, Note_on_c, 0, 73, 0
2, 165120, Note_on_c, 0, 70, 0
2, 167280, Note_on_c, 0, 58, 62
2, 167280, Note_on_c, 0, 60, 62
2, 167520, Note_on_c, 0, 60, 0
2, 167520, Note_on_c, 0, 58, 0
2, 167520, Note_on_c, 0, 70, 62
2, 167520, Note_on_c, 0, 72, 62
2, 167760, Note_on_c, 0, 72, 0
2, 167760, Note_on_c, 0, 70, 0
2, 167760, Note_on_c, 0, 70, 62
2, 167760, Note_on_c, 0, 72, 62
2, 167807, Note_on_c, 0, 72, 0
2, 167807, Note_on_c, 0, 70, 0
2, 168000, Note_on_c, 0, 70, 62
2, 168000, Note_on_c, 0, 72, 62
2, 168047, Note_on_c, 0, 72, 0
2, 168047, Note_on_c, 0, 70, 0
2, 168240, Note_on_c, 0, 70, 62
2, 168240, Note_on_c, 0, 72, 62
2, 168287, Note_on_c, 0, 72, 0
2, 168287, Note_on_c, 0, 70, 0
2, 168480, Note_on_c, 0, 70, 62
2, 168480, Note_on_c, 0, 72, 62
2, 168527, Note_on_c, 0, 72, 0
2, 168527, Note_on_c, 0, 70, 0
2, 168720, Note_on_c, 0, 70, 62
2, 168720, Note_on_c, 0, 72, 62
2, 168767, Note_on_c, 0, 72, 0
2, 168767, Note_on_c, 0, 70, 0
2, 168960, Control_c, 0, 64, 127
2, 168960, Note_on_c, 0, 70, 62
2, 168960, Note_on_c, 0, 73, 62
2, 169080, Note_on_c, 0, 73, 0
2, 169080, Note_on_c, 0, 70, 0
2, 169080, Note_on_c, 0, 72, 62
2, 169200, Note_on_c, 0, 72, 0
2, 169200, Note_on_c, 0, 70, 62
2, 169320, Note_on_c, 0, 70, 0
2, 169320, Note_on_c, 0, 68, 62
2, 169440, Note_on_c, 0, 68, 0
2, 169440, Note_on_c, 0, 67, 62
2, 169560, Note_on_c, 0, 67, 0
2, 169560, Note_on_c, 0, 65, 62
2, 169680, Note_on_c, 0, 65, 0
2, 169680, Note_on_c, 0, 64, 62
2, 169800, Note_on_c, 0, 64, 0
2, 169800, Note_on_c, 0, 67, 62
2, 169920, Note_on_c, 0, 67, 0
2, 169920, Note_on_c, 0, 70, 62
2, 170040, Note_on_c, 0, 70, 0
2, 170040, Note_on_c, 0, 73, 62
2, 170160, Note_on_c, 0, 73, 0
2, 170160, Note_on_c, 0, 72, 62
2, 170280, Note_on_c, 0, 72, 0
2, 170280, Control_c, 0, 64, 0
2, 170280, Note_on_c, 0, 70, 62
2, 170400, Note_on_c, 0, 70, 0
2, 170400, Control_c, 0, 64, 127
2, 170400, Note_on_c, 0, 68, 62
2, 170520, Note_on_c, 0, 68, 0
2, 170520, Note_on_c, 0, 67, 62
2, 170640, Note_on_c, 0, 67, 0
2, 170640, Note_on_c, 0, 65, 62
2, 170760, Note_on_c, 0, 65, 0
2, 170760, Note_on_c, 0, 68, 62
2, 170880, Note_on_c, 0, 68, 0
2, 170880, Note_on_c, 0, 67, 62
2, 171000, Note_on_c, 0, 67, 0
2, 171000, Note_on_c, 0, 65, 62
2, 171120, Note_on_c, 0, 65, 0
2, 171120, Note_on_c, 0, 70, 62
2, 171240, Note_on_c, 0, 70, 0
2, 171240, Note_on_c, 0, 68, 62
2, 171360, Note_on_c, 0, 68, 0
2, 171360, Note_on_c, 0, 67, 62
2, 171480, Note_on_c, 0, 67, 0
2, 171480, Note_on_c, 0, 70, 62
2, 171600, Note_on_c, 0, 70, 0
2, 171600, Note_on_c, 0, 68, 62
2, 171720, Note_on_c, 0, 68, 0
2, 171720, Note_on_c, 0, 67, 62
2, 171840, Note_on_c, 0, 67, 0
2, 171840, Note_on_c, 0, 72, 62
2, 171960, Note_on_c, 0, 72, 0
2, 171960, Note_on_c, 0, 70, 62
2, 172080, Note_on_c, 0, 70, 0
2, 172080, Note_on_c, 0, 68, 62
2, 172200, Note_on_c, 0, 68, 0
2, 172200, Note_on_c, 0, 72, 62
2, 172320, Note_on_c, 0, 72, 0
2, 172320, Note_on_c, 0, 70, 62
2, 172440, Note_on_c, 0, 70, 0
2, 172440, Note_on_c, 0, 68, 62
2, 172560, Note_on_c, 0, 68, 0
2, 172560, Control_c, 0, 64, 0
2, 172560, Note_on_c, 0, 76, 62
2, 173280, Note_on_c, 0, 76, 0
2, 173280, Note_on_c, 0, 77, 62
2, 173520, Note_on_c, 0, 77, 0
2, 174000, Control_c, 0, 64, 127
2, 174000, Note_on_c, 0, 70, 62
2, 174120, Note_on_c, 0, 70, 0
2, 174120, Note_on_c, 0, 68, 62
2, 174240, Note_on_c, 0, 68, 0
2, 174240, Note_on_c, 0, 67, 62
2, 174360, Note_on_c, 0, 67, 0
2, 174360, Note_on_c, 0, 70, 62
2, 174480, Note_on_c, 0, 70, 0
2, 174480, Note_on_c, 0, 68, 62
2, 174600, Note_on_c, 0, 68, 0
2, 174600, Note_on_c, 0, 67, 62
2, 174720, Note_on_c, 0, 67, 0
2, 174720, Note_on_c, 0, 72, 62
2, 174840, Note_on_c, 0, 72, 0
2, 174840, Note_on_c, 0, 70, 62
2, 174960, Note_on_c, 0, 70, 0
2, 174960, Note_on_c, 0, 68, 62
2, 175080, Note_on_c, 0, 68, 0
2, 175080, Note_on_c, 0, 72, 62
2, 175200, Note_on_c, 0, 72, 0
2, 175200, Note_on_c, 0, 70, 62
2, 175320, Note_on_c, 0, 70, 0
2, 175320, Note_on_c, 0, 68, 62
2, 175440, Note_on_c, 0, 68, 0
2, 175440, Control_c, 0, 64, 0
2, 175440, Note_on_c, 0, 76, 62
2, 176160, Note_on_c, 0, 76, 0
2, 176160, Note_on_c, 0, 77, 75
2, 176400, Note_on_c, 0, 77, 0
2, 176880, Control_c, 0, 64, 127
2, 176880, Note_on_c, 0, 76, 75
2, 177000, Note_on_c, 0, 76, 0
2, 177000, Note_on_c, 0, 74, 75
2, 177120, Note_on_c, 0, 74, 0
2, 177120, Note_on_c, 0, 72, 75
2, 177240, Note_on_c, 0, 72, 0
2, 177240, Note_on_c, 0, 76, 75
2, 177360, Note_on_c, 0, 76, 0
2, 177360, Note_on_c, 0, 74, 75
2, 177480, Note_on_c, 0, 74, 0
2, 177480, Control_c, 0, 64, 0
2, 177480, Note_on_c, 0, 72, 75
2, 177600, Note_on_c, 0, 72, 0
2, 177600, Control_c, 0, 64, 127
2, 177600, Note_on_c, 0, 77, 75
2, 177720, Note_on_c, 0, 77, 0
2, 177720, Note_on_c, 0, 75, 75
2, 177840, Note_on_c, 0, 75, 0
2, 177840, Note_on_c, 0, 74, 75
2, 177960, Note_on_c, 0, 74, 0
2, 177960, Note_on_c, 0, 77, 75
2, 178080, Note_on_c, 0, 77, 0
2, 178080, Note_on_c, 0, 75, 75
2, 178200, Note_on_c, 0, 75, 0
2, 178200, Note_on_c, 0, 74, 75
2, 178320, Note_on_c, 0, 74, 0
2, 178320, Note_on_c, 0, 79, 75
2, 178440, Note_on_c, 0, 79, 0
2, 178440, Note_on_c, 0, 77, 75
2, 178560, Note_on_c, 0, 77, 0
2, 178560, Note_on_c, 0, 76, 75
2, 178680, Note_on_c, 0, 76, 0
2, 178680, Note_on_c, 0, 79, 75
2, 178800, Note_on_c, 0, 79, 0
2, 178800, Note_on_c, 0, 77, 75
2, 178920, Note_on_c, 0, 77, 0
2, 178920, Note_on_c, 0, 76, 75
2, 179040, Note_on_c, 0, 76, 0
2, 179040, Note_on_c, 0, 80, 75
2, 179160, Note_on_c, 0, 80, 0
2, 179160, Note_on_c, 0, 79, 75
2, 179280, Note_on_c, 0, 79, 0
2, 179280, Note_on_c, 0, 77, 75
2, 179400, Note_on_c, 0, 77, 0
2, 179400, Note_on_c, 0, 80, 75
2, 179520, Note_on_c, 0, 80, 0
2, 179520, Note_on_c, 0, 79, 75
2, 179640, Note_on_c, 0, 79, 0
2, 179640, Note_on_c, 0, 77, 75
2, 179760, Note_on_c, 0, 77, 0
2, 179760, Note_on_c, 0, 81, 75
2, 179880, Note_on_c, 0, 81, 0
2, 179880, Note_on_c, 0, 78, 75
2, 180000, Note_on_c, 0, 78, 0
2, 180000, Note_on_c, 0, 77, 75
2, 180120, Note_on_c, 0, 77, 0
2, 180120, Note_on_c, 0, 81, 75
2, 180240, Note_on_c, 0, 81, 0
2, 180240, Note_on_c, 0, 78, 75
2, 180360, Note_on_c, 0, 78, 0
2, 180360, Note_on_c, 0, 77, 75
2, 180480, Note_on_c, 0, 77, 0
2, 180480, Note_on_c, 0, 82, 75
2, 180600, Note_on_c, 0, 82, 0
2, 180600, Note_on_c, 0, 78, 75
2, 180720, Note_on_c, 0, 78, 0
2, 180720, Note_on_c, 0, 77, 75
2, 180840, Note_on_c, 0, 77, 0
2, 180840, Note_on_c, 0, 82, 75
2, 180960, Note_on_c, 0, 82, 0
2, 180960, Note_on_c, 0, 78, 75
2, 181080, Note_on_c, 0, 78, 0
2, 181080, Note_on_c, 0, 77, 75
2, 181200, Note_on_c, 0, 77, 0
2, 181200, Note_on_c, 0, 84, 75
2, 181320, Note_on_c, 0, 84, 0
2, 181320, Note_on_c, 0, 78, 75
2, 181440, Note_on_c, 0, 78, 0
2, 181440, Note_on_c, 0, 77, 75
2, 181560, Note_on_c, 0, 77, 0
2, 181560, Note_on_c, 0, 84, 75
2, 181680, Note_on_c, 0, 84, 0
2, 181680, Note_on_c, 0, 78, 75
2, 181800, Note_on_c, 0, 78, 0
2, 181800, Control_c, 0, 64, 0
2, 181800, Note_on_c, 0, 77, 75
2, 181920, Note_on_c, 0, 77, 0
2, 181920, Note_on_c, 0, 85, 75
2, 182400, Note_on_c, 0, 85, 0
2, 183120, Note_on_c, 0, 61, 88
2, 183120, Note_on_c, 0, 73, 88
2, 183360, Note_on_c, 0, 73, 0
2, 183360, Note_on_c, 0, 61, 0
2, 183360, Note_on_c, 0, 73, 88
2, 183360, Note_on_c, 0, 76, 88
2, 183360, Note_on_c, 0, 82, 88
2, 183360, Note_on_c, 0, 85, 88
2, 183600, Note_on_c, 0, 85, 0
2, 183600, Note_on_c, 0, 73, 0
2, 183600, Note_on_c, 0, 76, 0
2, 183600, Note_on_c, 0, 82, 0
2, 183600, Note_on_c, 0, 73, 88
2, 183600, Note_on_c, 0, 76, 88
2, 183600, Note_on_c, 0, 82, 88
2, 183600, Note_on_c, 0, 85, 88
2, 183647, Note_on_c, 0, 85, 0
2, 183647, Note_on_c, 0, 73, 0
2, 183647, Note_on_c, 0, 76, 0
2, 183647, Note_on_c, 0, 82, 0
2, 183840, Note_on_c, 0, 73, 88
2, 183840, Note_on_c, 0, 76, 88
2, 183840, Note_on_c, 0, 82, 88
2, 183840, Note_on_c, 0, 85, 88
2, 183887, Note_on_c, 0, 85, 0
2, 183887, Note_on_c, 0, 73, 0
2, 183887, Note_on_c, 0, 76, 0
2, 183887, Note_on_c, 0, 82, 0
2, 184080, Note_on_c, 0, 73, 88
2, 184080, Note_on_c, 0, 77, 88
2, 184080, Note_on_c, 0, 82, 88
2, 184080, Note_on_c, 0, 85, 88
2, 184127, Note_on_c, 0, 85, 0
2, 184127, Note_on_c, 0, 73, 0
2, 184127, Note_on_c, 0, 77, 0
2, 184127, Note_on_c, 0, 82, 0
2, 184320, Note_on_c, 0, 73, 88
2, 184320, Note_on_c, 0, 77, 88
2, 184320, Note_on_c, 0, 82, 88
2, 184320, Note_on_c, 0, 85, 88
2, 184367, Note_on_c, 0, 85, 0
2, 184367, Note_on_c, 0, 73, 0
2, 184367, Note_on_c, 0, 77, 0
2, 184367, Note_on_c, 0, 82, 0
2, 184560, Note_on_c, 0, 73, 88
2, 184560, Note_on_c, 0, 77, 88
2, 184560, Note_on_c, 0, 82, 88
2, 184560, Note_on_c, 0, 85, 88
2, 184607, Note_on_c, 0, 85, 0
2, 184607, Note_on_c, 0, 73, 0
2, 184607, Note_on_c, 0, 77, 0
2, 184607, Note_on_c, 0, 82, 0
2, 184800, Control_c, 0, 64, 127
2, 184800, Note_on_c, 0, 79, 101
2, 184800, Note_on_c, 0, 82, 101
2, 184800, Note_on_c, 0, 85, 101
2, 184920, Note_on_c, 0, 85, 0
2, 184920, Note_on_c, 0, 82, 0
2, 184920, Note_on_c, 0, 79, 0
2, 184920, Note_on_c, 0, 84, 101
2, 185040, Note_on_c, 0, 84, 0
2, 185040, Note_on_c, 0, 82, 101
2, 185160, Note_on_c, 0, 82, 0
2, 185160, Note_on_c, 0, 80, 101
2, 185280, Note_on_c, 0, 80, 0
2, 185280, Note_on_c, 0, 79, 101
2, 185400, Note_on_c, 0, 79, 0
2, 185400, Note_on_c, 0, 77, 101
2, 185520, Note_on_c, 0, 77, 0
2, 185520, Note_on_c, 0, 76, 101
2, 185640, Note_on_c, 0, 76, 0
2, 185640, Note_on_c, 0, 79, 101
2, 185760, Note_on_c, 0, 79, 0
2, 185760, Note_on_c, 0, 82, 101
2, 185880, Note_on_c, 0, 82, 0
2, 185880, Note_on_c, 0, 85, 101
2, 186000, Note_on_c, 0, 85, 0
2, 186000, Note_on_c, 0, 82, 101
2, 186120, Note_on_c, 0, 82, 0
2, 186120, Note_on_c, 0, 79, 101
2, 186240, Note_on_c, 0, 79, 0
2, 186240, Note_on_c, 0, 76, 101
2, 186360, Note_on_c, 0, 76, 0
2, 186360, Note_on_c, 0, 73, 101
2, 186480, Note_on_c, 0, 73, 0
2, 186480, Note_on_c, 0, 70, 101
2, 186600, Note_on_c, 0, 70, 0
2, 186600, Note_on_c, 0, 67, 101
2, 186720, Note_on_c, 0, 67, 0
2, 186720, Note_on_c, 0, 64, 101
2, 186840, Note_on_c, 0, 64, 0
2, 186840, Note_on_c, 0, 67, 101
2, 186960, Note_on_c, 0, 67, 0
2, 186960, Note_on_c, 0, 70, 101
2, 187080, Note_on_c, 0, 70, 0
2, 187080, Note_on_c, 0, 73, 101
2, 187200, Note_on_c, 0, 73, 0
2, 187200, Note_on_c, 0, 70, 101
2, 187320, Note_on_c, 0, 70, 0
2, 187320, Note_on_c, 0, 67, 101
2, 187440, Note_on_c, 0, 67, 0
2, 187440, Note_on_c, 0, 64, 101
2, 187560, Note_on_c, 0, 64, 0
2, 187560, Control_c, 0, 64, 0
2, 187560, Note_on_c, 0, 61, 101
2, 187680, Note_on_c, 0, 61, 0
2, 187680, Control_c, 0, 64, 127
2, 187680, Note_on_c, 0, 58, 101
2, 187800, Note_on_c, 0, 58, 0
2, 187800, Note_on_c, 0, 55, 101
2, 187920, Note_on_c, 0, 55, 0
2, 187920, Note_on_c, 0, 52, 101
2, 188040, Note_on_c, 0, 52, 0
2, 188040, Note_on_c, 0, 55, 101
2, 188160, Note_on_c, 0, 55, 0
2, 188160, Note_on_c, 0, 58, 101
2, 188280, Note_on_c, 0, 58, 0
2, 188280, Note_on_c, 0, 61, 101
2, 188400, Note_on_c, 0, 61, 0
2, 188400, Note_on_c, 0, 64, 101
2, 188520, Note_on_c, 0, 64, 0
2, 188520, Note_on_c, 0, 67, 101
2, 188640, Note_on_c, 0, 67, 0
2, 188640, Note_on_c, 0, 70, 101
2, 188760, Note_on_c, 0, 70, 0
2, 188760, Note_on_c, 0, 73, 101
2, 188880, Note_on_c, 0, 73, 0
2, 188880, Note_on_c, 0, 76, 101
2, 189000, Note_on_c, 0, 76, 0
2, 189000, Note_on_c, 0, 79, 101
2, 189060, Note_on_c, 0, 79, 0
2, 189060, Note_on_c, 0, 82, 101
2, 189120, Note_on_c, 0, 82, 0
2, 189120, Control_c, 0, 64, 0
2, 189120, Note_on_c, 0, 85, 101
2, 189360, Note_on_c, 0, 85, 0
2, 189840, Note_on_c, 0, 67, 101
2, 189840, Note_on_c, 0, 72, 101
2, 189840, Note_on_c, 0, 76, 101
2, 189840, Note_on_c, 0, 79, 101
2, 190080, Note_on_c, 0, 79, 0
2, 190080, Note_on_c, 0, 67, 0
2, 190080, Note_on_c, 0, 72, 0
2, 190080, Note_on_c, 0, 76, 0
2, 190560, Note_on_c, 0, 68, 101
2, 190560, Note_on_c, 0, 72, 101
2, 190560, Note_on_c, 0, 77, 101
2, 190560, Note_on_c, 0, 80, 101
2, 190800, Note_on_c, 0, 80, 0
2, 190800, Note_on_c, 0, 68, 0
2, 190800, Note_on_c, 0, 72, 0
2, 190800, Note_on_c, 0, 77, 0
2, 191280, Note_on_c, 0, 70, 101
2, 191280, Note_on_c, 0, 73, 101
2, 191280, Note_on_c, 0, 79, 101
2, 191280, Note_on_c, 0, 82, 101
2, 191520, Note_on_c, 0, 82, 0
2, 191520, Note_on_c, 0, 70, 0
2, 191520, Note_on_c, 0, 73, 0
2, 191520, Note_on_c, 0, 79, 0
2, 192000, Note_on_c, 0, 67, 101
2, 192000, Note_on_c, 0, 72, 101
2, 192000, Note_on_c, 0, 76, 101
2, 192000, Note_on_c, 0, 79, 101
2, 193200, Note_on_c, 0, 79, 0
2, 193200, Note_on_c, 0, 67, 0
2, 193200, Note_on_c, 0, 72, 0
2, 193200, Note_on_c, 0, 76, 0
2, 193200, Note_on_c, 0, 53, 49
2, 193200, Note_on_c, 0, 57, 49
2, 193200, Note_on_c, 0, 60, 49
2, 193440, Note_on_c, 0, 60, 0
2, 193440, Note_on_c, 0, 57, 0
2, 193440, Note_on_c, 0, 53, 0
2, 193920, Note_on_c, 0, 53, 49
2, 193920, Note_on_c, 0, 58, 49
2, 193920, Note_on_c, 0, 61, 49
2, 194160, Note_on_c, 0, 61, 0
2, 194160, Note_on_c, 0, 58, 0
2, 194160, Note_on_c, 0, 53, 0
2, 194640, Note_on_c, 0, 54, 49
2, 194640, Note_on_c, 0, 60, 49
2, 194640, Note_on_c, 0, 63, 49
2, 194880, Note_on_c, 0, 63, 0
2, 194880, Note_on_c, 0, 60, 0
2, 194880, Note_on_c, 0, 54, 0
2, 195120, Note_on_c, 0, 53, 49
2, 195360, Note_on_c, 0, 53, 0
2, 195360, Note_on_c, 0, 65, 49
2, 195600, Note_on_c, 0, 65, 0
2, 195600, Note_on_c, 0, 65, 49
2, 195647, Note_on_c, 0, 65, 0
2, 195840, Note_on_c, 0, 65, 49
2, 195887, Note_on_c, 0, 65, 0
2, 196080, Note_on_c, 0, 65, 49
2, 196127, Note_on_c, 0, 65, 0
2, 196320, Note_on_c, 0, 65, 49
2, 196367, Note_on_c, 0, 65, 0
2, 196560, Note_on_c, 0, 65, 49
2, 196607, Note_on_c, 0, 65, 0
2, 196800, Control_c, 0, 64, 127
2, 196800, Note_on_c, 0, 66, 49
2, 196920, Note_on_c, 0, 66, 0
2, 196920, Note_on_c, 0, 65, 49
2, 197040, Note_on_c, 0, 65, 0
2, 197040, Note_on_c, 0, 63, 49
2, 197160, Note_on_c, 0, 63, 0
2, 197160, Note_on_c, 0, 61, 49
2, 197280, Note_on_c, 0, 61, 0
2, 197280, Note_on_c, 0, 60, 49
2, 197400, Note_on_c, 0, 60, 0
2, 197400, Note_on_c, 0, 58, 49
2, 197520, Note_on_c, 0, 58, 0
2, 197520, Control_c, 0, 64, 0
2, 197520, Note_on_c, 0, 63, 49
2, 197760, Note_on_c, 0, 63, 0
2, 198240, Control_c, 0, 64, 127
2, 198240, Note_on_c, 0, 61, 49
2, 198360, Note_on_c, 0, 61, 0
2, 198360, Note_on_c, 0, 60, 49
2, 198480, Note_on_c, 0, 60, 0
2, 198480, Note_on_c, 0, 58, 49
2, 198600, Note_on_c, 0, 58, 0
2, 198600, Note_on_c, 0, 61, 49
2, 198720, Note_on_c, 0, 61, 0
2, 198720, Note_on_c, 0, 60, 49
2, 198840, Note_on_c, 0, 60, 0
2, 198840, Note_on_c, 0, 58, 49
2, 198960, Note_on_c, 0, 58, 0
2, 198960, Note_on_c, 0, 63, 49
2, 199080, Note_on_c, 0, 63, 0
2, 199080, Note_on_c, 0, 61, 49
2, 199200, Note_on_c, 0, 61, 0
2, 199200, Note_on_c, 0, 60, 49
2, 199320, Note_on_c, 0, 60, 0
2, 199320, Note_on_c, 0, 63, 49
2, 199440, Note_on_c, 0, 63, 0
2, 199440, Note_on_c, 0, 61, 49
2, 199560, Note_on_c, 0, 61, 0
2, 199560, Note_on_c, 0, 60, 49
2, 199680, Note_on_c, 0, 60, 0
2, 199680, Control_c, 0, 64, 0
2, 199680, Note_on_c, 0, 57, 49
2, 199920, Note_on_c, 0, 57, 0
2, 201840, Note_on_c, 0, 53, 49
2, 201840, Note_on_c, 0, 57, 49
2, 201840, Note_on_c, 0, 60, 49
2, 202080, Note_on_c, 0, 60, 0
2, 202080, Note_on_c, 0, 57, 0
2, 202080, Note_on_c, 0, 53, 0
2, 202560, Note_on_c, 0, 53, 49
2, 202560, Note_on_c, 0, 58, 49
2, 202560, Note_on_c, 0, 61, 49
2, 202800, Note_on_c, 0, 61, 0
2, 202800, Note_on_c, 0, 58, 0
2, 202800, Note_on_c, 0, 53, 0
2, 203280, Note_on_c, 0, 58, 49
2, 203280, Note_on_c, 0, 65, 49
2, 203280, Note_on_c, 0, 70, 49
2, 203520, Note_on_c, 0, 70, 0
2, 203520, Note_on_c, 0, 65, 0
2, 203520, Note_on_c, 0, 58, 0
2, 203760, Note_on_c, 0, 60, 49
2, 204000, Note_on_c, 0, 60, 0
2, 204000, Note_on_c, 0, 72, 49
2, 204240, Note_on_c, 0, 72, 0
2, 204240, Note_on_c, 0, 72, 49
2, 204287, Note_on_c, 0, 72, 0
2, 204480, Note_on_c, 0, 72, 49
2, 204527, Note_on_c, 0, 72, 0
2, 204720, Note_on_c, 0, 72, 49
2, 204767, Note_on_c, 0, 72, 0
2, 204960, Note_on_c, 0, 72, 49
2, 205007, Note_on_c, 0, 72, 0
2, 205200, Note_on_c, 0, 72, 49
2, 205247, Note_on_c, 0, 72, 0
2, 205440, Control_c, 0, 64, 127
2, 205440, Note_on_c, 0, 73, 49
2, 205560, Note_on_c, 0, 73, 0
2, 205560, Note_on_c, 0, 72, 49
2, 205680, Note_on_c, 0, 72, 0
2, 205680, Note_on_c, 0, 70, 49
2, 205800, Note_on_c, 0, 70, 0
2, 205800, Note_on_c, 0, 68, 49
2, 205920, Note_on_c, 0, 68, 0
2, 205920, Note_on_c, 0, 67, 49
2, 206040, Note_on_c, 0, 67, 0
2, 206040, Note_on_c, 0, 65, 49
2, 206160, Note_on_c, 0, 65, 0
2, 206160, Note_on_c, 0, 64, 49
2, 206280, Note_on_c, 0, 64, 0
2, 206280, Note_on_c, 0, 67, 49
2, 206400, Note_on_c, 0, 67, 0
2, 206400, Note_on_c, 0, 70, 49
2, 206520, Note_on_c, 0, 70, 0
2, 206520, Note_on_c, 0, 73, 49
2, 206640, Note_on_c, 0, 73, 0
2, 206640, Note_on_c, 0, 72, 49
2, 206760, Note_on_c, 0, 72, 0
2, 206760, Control_c, 0, 64, 0
2, 206760, Note_on_c, 0, 70, 49
2, 206880, Note_on_c, 0, 70, 0
2, 206880, Control_c, 0, 64, 127
2, 206880, Note_on_c, 0, 68, 49
2, 207000, Note_on_c, 0, 68, 0
2, 207000, Note_on_c, 0, 67, 49
2, 207120, Note_on_c, 0, 67, 0
2, 207120, Note_on_c, 0, 65, 49
2, 207240, Note_on_c, 0, 65, 0
2, 207240, Note_on_c, 0, 68, 49
2, 207360, Note_on_c, 0, 68, 0
2, 207360, Note_on_c, 0, 67, 49
2, 207480, Note_on_c, 0, 67, 0
2, 207480, Note_on_c, 0, 65, 49
2, 207600, Note_on_c, 0, 65, 0
2, 207600, Note_on_c, 0, 70, 49
2, 207720, Note_on_c, 0, 70, 0
2, 207720, Note_on_c, 0, 68, 49
2, 207840, Note_on_c, 0, 68, 0
2, 207840, Note_on_c, 0, 67, 49
2, 207960, Note_on_c, 0, 67, 0
2, 207960, Note_on_c, 0, 70, 49
2, 208080, Note_on_c, 0, 70, 0
2, 208080, Note_on_c, 0, 68, 49
2, 208200, Note_on_c, 0, 68, 0
2, 208200, Note_on_c, 0, 67, 49
2, 208320, Note_on_c, 0, 67, 0
2, 208320, Control_c, 0, 64, 0
2, 208320, Note_on_c, 0, 64, 49
2, 208560, Note_on_c, 0, 64, 0
2, 209040, Note_on_c, 0, 67, 49
2, 209040, Note_on_c, 0, 70, 49
2, 209280, Note_on_c, 0, 70, 0
2, 209280, Note_on_c, 0, 67, 0
2, 209760, Note_on_c, 0, 65, 49
2, 209760, Note_on_c, 0, 68, 49
2, 210000, Note_on_c, 0, 68, 0
2, 210000, Note_on_c, 0, 65, 0
2, 210480, Note_on_c, 0, 67, 49
2, 210480, Note_on_c, 0, 70, 49
2, 210720, Note_on_c, 0, 70, 0
2, 210720, Note_on_c, 0, 67, 0
2, 211200, Note_on_c, 0, 68, 49
2, 211200, Note_on_c, 0, 72, 49
2, 211440, Note_on_c, 0, 72, 0
2, 211440, Note_on_c, 0, 68, 0
2, 211920, Note_on_c, 0, 67, 49
2, 211920, Note_on_c, 0, 70, 49
2, 212160, Note_on_c, 0, 70, 0
2, 212160, Note_on_c, 0, 67, 0
2, 212640, Note_on_c, 0, 68, 49
2, 212640, Note_on_c, 0, 72, 49
2, 212880, Note_on_c, 0, 72, 0
2, 212880, Note_on_c, 0, 68, 0
2, 213360, Note_on_c, 0, 69, 49
2, 213360, Note_on_c, 0, 72, 49
2, 213600, Note_on_c, 0, 72, 0
2, 213600, Note_on_c, 0, 69, 0
2, 214080, Note_on_c, 0, 70, 49
2, 214080, Note_on_c, 0, 73, 49
2, 214320, Note_on_c, 0, 73, 0
2, 214320, Note_on_c, 0, 70, 0
2, 214800, Note_on_c, 0, 69, 49
2, 214800, Note_on_c, 0, 72, 49
2, 215040, Note_on_c, 0, 72, 0
2, 215040, Note_on_c, 0, 69, 0
2, 215520, Note_on_c, 0, 70, 49
2, 215520, Note_on_c, 0, 73, 49
2, 215760, Note_on_c, 0, 73, 0
2, 215760, Note_on_c, 0, 70, 0
2, 216240, Control_c, 0, 64, 127
2, 216240, Note_on_c, 0, 70, 49
2, 216360, Note_on_c, 0, 70, 0
2, 216360, Note_on_c, 0, 68, 49
2, 216480, Note_on_c, 0, 68, 0
2, 216480, Note_on_c, 0, 67, 49
2, 216600, Note_on_c, 0, 67, 0
2, 216600, Note_on_c, 0, 65, 49
2, 216720, Note_on_c, 0, 65, 0
2, 216720, Note_on_c, 0, 64, 49
2, 216840, Note_on_c, 0, 64, 0
2, 216840, Control_c, 0, 64, 0
2, 216840, Note_on_c, 0, 65, 49
2, 216960, Note_on_c, 0, 65, 0
2, 216960, Control_c, 0, 64, 127
2, 216960, Note_on_c, 0, 73, 49
2, 217080, Note_on_c, 0, 73, 0
2, 217080, Note_on_c, 0, 72, 49
2, 217200, Note_on_c, 0, 72, 0
2, 217200, Note_on_c, 0, 70, 49
2, 217320, Note_on_c, 0, 70, 0
2, 217320, Note_on_c, 0, 68, 49
2, 217440, Note_on_c, 0, 68, 0
2, 217440, Note_on_c, 0, 67, 49
2, 217560, Note_on_c, 0, 67, 0
2, 217560, Note_on_c, 0, 65, 49
2, 217680, Note_on_c, 0, 65, 0
2, 217680, Note_on_c, 0, 64, 49
2, 217800, Note_on_c, 0, 64, 0
2, 217800, Note_on_c, 0, 67, 49
2, 217920, Note_on_c, 0, 67, 0
2, 217920, Note_on_c, 0, 70, 49
2, 218040, Note_on_c, 0, 70, 0
2, 218040, Note_on_c, 0, 73, 49
2, 218160, Note_on_c, 0, 73, 0
2, 218160, Note_on_c, 0, 72, 49
2, 218280, Note_on_c, 0, 72, 0
2, 218280, Control_c, 0, 64, 0
2, 218280, Note_on_c, 0, 70, 49
2, 218400, Note_on_c, 0, 70, 0
2, 218400, Control_c, 0, 64, 127
2, 218400, Note_on_c, 0, 68, 49
2, 218520, Note_on_c, 0, 68, 0
2, 218520, Note_on_c, 0, 67, 49
2, 218640, Note_on_c, 0, 67, 0
2, 218640, Note_on_c, 0, 65, 49
2, 218760, Note_on_c, 0, 65, 0
2, 218760, Note_on_c, 0, 68, 49
2, 218880, Note_on_c, 0, 68, 0
2, 218880, Note_on_c, 0, 67, 49
2, 219000, Note_on_c, 0, 67, 0
2, 219000, Note_on_c, 0, 65, 49
2, 219120, Note_on_c, 0, 65, 0
2, 219120, Note_on_c, 0, 70, 49
2, 219240, Note_on_c, 0, 70, 0
2, 219240, Note_on_c, 0, 68, 49
2, 219360, Note_on_c, 0, 68, 0
2, 219360, Note_on_c, 0, 67, 49
2, 219480, Note_on_c, 0, 67, 0
2, 219480, Note_on_c, 0, 70, 49
2, 219600, Note_on_c, 0, 70, 0
2, 219600, Note_on_c, 0, 68, 49
2, 219720, Note_on_c, 0, 68, 0
2, 219720, Note_on_c, 0, 67, 49
2, 219840, Note_on_c, 0, 67, 0
2, 219840, Note_on_c, 0, 72, 62
2, 219960, Note_on_c, 0, 72, 0
2, 219960, Note_on_c, 0, 70, 62
2, 220080, Note_on_c, 0, 70, 0
2, 220080, Note_on_c, 0, 68, 62
2, 220200, Note_on_c, 0, 68, 0
2, 220200, Note_on_c, 0, 72, 62
2, 220320, Note_on_c, 0, 72, 0
2, 220320, Note_on_c, 0, 70, 62
2, 220440, Note_on_c, 0, 70, 0
2, 220440, Control_c, 0, 64, 0
2, 220440, Note_on_c, 0, 68, 62
2, 220560, Note_on_c, 0, 68, 0
2, 220560, Note_on_c, 0, 76, 62
2, 221280, Note_on_c, 0, 76, 0
2, 221280, Note_on_c, 0, 77, 62
2, 221520, Note_on_c, 0, 77, 0
2, 222000, Control_c, 0, 64, 127
2, 222000, Note_on_c, 0, 70, 62
2, 222120, Note_on_c, 0, 70, 0
2, 222120, Note_on_c, 0, 68, 62
2, 222240, Note_on_c, 0, 68, 0
2, 222240, Note_on_c, 0, 67, 62
2, 222360, Note_on_c, 0, 67, 0
2, 222360, Note_on_c, 0, 70, 62
2, 222480, Note_on_c, 0, 70, 0
2, 222480, Note_on_c, 0, 68, 62
2, 222600, Note_on_c, 0, 68, 0
2, 222600, Control_c, 0, 64, 0
2, 222600, Note_on_c, 0, 67, 62
2, 222720, Note_on_c, 0, 67, 0
2, 222720, Control_c, 0, 64, 127
2, 222720, Note_on_c, 0, 72, 62
2, 222840, Note_on_c, 0, 72, 0
2, 222840, Note_on_c, 0, 70, 62
2, 222960, Note_on_c, 0, 70, 0
2, 222960, Note_on_c, 0, 68, 62
2, 223080, Note_on_c, 0, 68, 0
2, 223080, Note_on_c, 0, 72, 62
2, 223200, Note_on_c, 0, 72, 0
2, 223200, Note_on_c, 0, 70, 62
2, 223320, Note_on_c, 0, 70, 0
2, 223320, Note_on_c, 0, 68, 62
2, 223440, Note_on_c, 0, 68, 0
2, 223440, Control_c, 0, 64, 0
2, 223440, Note_on_c, 0, 76, 62
2, 224160, Note_on_c, 0, 76, 0
2, 224160, Note_on_c, 0, 77, 75
2, 224400, Note_on_c, 0, 77, 0
2, 224880, Control_c, 0, 64, 127
2, 224880, Note_on_c, 0, 76, 75
2, 225000, Note_on_c, 0, 76, 0
2, 225000, Note_on_c, 0, 74, 75
2, 225120, Note_on_c, 0, 74, 0
2, 225120, Note_on_c, 0, 72, 75
2, 225240, Note_on_c, 0, 72, 0
2, 225240, Note_on_c, 0, 76, 75
2, 225360, Note_on_c, 0, 76, 0
2, 225360, Note_on_c, 0, 74, 75
2, 225480, Note_on_c, 0, 74, 0
2, 225480, Control_c, 0, 64, 0
2, 225480, Note_on_c, 0, 72, 75
2, 225600, Note_on_c, 0, 72, 0
2, 225600, Control_c, 0, 64, 127
2, 225600, Note_on_c, 0, 77, 75
2, 225720, Note_on_c, 0, 77, 0
2, 225720, Note_on_c, 0, 75, 75
2, 225840, Note_on_c, 0, 75, 0
2, 225840, Note_on_c, 0, 74, 75
2, 225960, Note_on_c, 0, 74, 0
2, 225960, Note_on_c, 0, 77, 75
2, 226080, Note_on_c, 0, 77, 0
2, 226080, Note_on_c, 0, 75, 75
2, 226200, Note_on_c, 0, 75, 0
2, 226200, Note_on_c, 0, 74, 75
2, 226320, Note_on_c, 0, 74, 0
2, 226320, Note_on_c, 0, 79, 75
2, 226440, Note_on_c, 0, 79, 0
2, 226440, Note_on_c, 0, 77, 75
2, 226560, Note_on_c, 0, 77, 0
2, 226560, Note_on_c, 0, 76, 75
2, 226680, Note_on_c, 0, 76, 0
2, 226680, Note_on_c, 0, 79, 75
2, 226800, Note_on_c, 0, 79, 0
2, 226800, Note_on_c, 0, 77, 75
2, 226920, Note_on_c, 0, 77, 0
2, 226920, Note_on_c, 0, 76, 75
2, 227040, Note_on_c, 0, 76, 0
2, 227040, Control_c, 0, 64, 0
2, 227040, Note_on_c, 0, 77, 75
2, 227040, Note_on_c, 0, 80, 75
2, 227520, Note_on_c, 0, 80, 0
2, 227520, Note_on_c, 0, 77, 0
2, 228240, Note_on_c, 0, 61, 75
2, 228240, Note_on_c, 0, 73, 75
2, 228480, Note_on_c, 0, 73, 0
2, 228480, Note_on_c, 0, 61, 0
2, 228480, Note_on_c, 0, 73, 88
2, 228480, Note_on_c, 0, 82, 88
2, 228480, Note_on_c, 0, 85, 88
2, 228720, Note_on_c, 0, 85, 0
2, 228720, Note_on_c, 0, 82, 0
2, 228720, Note_on_c, 0, 73, 0
2, 228720, Note_on_c, 0, 73, 88
2, 228720, Note_on_c, 0, 82, 88
2, 228720, Note_on_c, 0, 85, 88
2, 228767, Note_on_c, 0, 85, 0
2, 228767, Note_on_c, 0, 82, 0
2, 228767, Note_on_c, 0, 73, 0
2, 228960, Note_on_c, 0, 73, 88
2, 228960, Note_on_c, 0, 82, 88
2, 228960, Note_on_c, 0, 85, 88
2, 229007, Note_on_c, 0, 85, 0
2, 229007, Note_on_c, 0, 82, 0
2, 229007, Note_on_c, 0, 73, 0
2, 229200, Note_on_c, 0, 73, 88
2, 229200, Note_on_c, 0, 82, 88
2, 229200, Note_on_c, 0, 85, 88
2, 229247, Note_on_c, 0, 85, 0
2, 229247, Note_on_c, 0, 82, 0
2, 229247, Note_on_c, 0, 73, 0
2, 229440, Note_on_c, 0, 73, 88
2, 229440, Note_on_c, 0, 82, 88
2, 229440, Note_on_c, 0, 85, 88
2, 229487, Note_on_c, 0, 85, 0
2, 229487, Note_on_c, 0, 82, 0
2, 229487, Note_on_c, 0, 73, 0
2, 229680, Note_on_c, 0, 73, 88
2, 229680, Note_on_c, 0, 82, 88
2, 229680, Note_on_c, 0, 85, 88
2, 229727, Note_on_c, 0, 85, 0
2, 229727, Note_on_c, 0, 82, 0
2, 229727, Note_on_c, 0, 73, 0
2, 229920, Control_c, 0, 64, 127
2, 229920, Note_on_c, 0, 73, 88
2, 229920, Note_on_c, 0, 82, 88
2, 229920, Note_on_c, 0, 85, 88
2, 230040, Note_on_c, 0, 85, 0
2, 230040, Note_on_c, 0, 82, 0
2, 230040, Note_on_c, 0, 73, 0
2, 230040, Note_on_c, 0, 84, 88
2, 230160, Note_on_c, 0, 84, 0
2, 230160, Note_on_c, 0, 82, 88
2, 230280, Note_on_c, 0, 82, 0
2, 230280, Note_on_c, 0, 80, 88
2, 230400, Note_on_c, 0, 80, 0
2, 230400, Note_on_c, 0, 79, 88
2, 230520, Note_on_c, 0, 79, 0
2, 230520, Note_on_c, 0, 77, 88
2, 230640, Note_on_c, 0, 77, 0
2, 230640, Note_on_c, 0, 76, 88
2, 230760, Note_on_c, 0, 76, 0
2, 230760, Note_on_c, 0, 79, 88
2, 230880, Note_on_c, 0, 79, 0
2, 230880, Note_on_c, 0, 82, 88
2, 231000, Note_on_c, 0, 82, 0
2, 231000, Note_on_c, 0, 85, 88
2, 231120, Note_on_c, 0, 85, 0
2, 231120, Note_on_c, 0, 84, 88
2, 231240, Note_on_c, 0, 84, 0
2, 231240, Note_on_c, 0, 82, 88
2, 231360, Note_on_c, 0, 82, 0
2, 231360, Control_c, 0, 64, 0
2, 231360, Note_on_c, 0, 80, 88
2, 231600, Note_on_c, 0, 80, 0
2, 231600, Control_c, 0, 64, 127
2, 231600, Note_on_c, 0, 65, 88
2, 231720, Note_on_c, 0, 65, 0
2, 231720, Note_on_c, 0, 68, 88
2, 231840, Note_on_c, 0, 68, 0
2, 231840, Note_on_c, 0, 67, 88
2, 231960, Note_on_c, 0, 67, 0
2, 231960, Note_on_c, 0, 65, 88
2, 232080, Note_on_c, 0, 65, 0
2, 232080, Note_on_c, 0, 70, 88
2, 232200, Note_on_c, 0, 70, 0
2, 232200, Note_on_c, 0, 68, 88
2, 232320, Note_on_c, 0, 68, 0
2, 232320, Note_on_c, 0, 67, 88
2, 232440, Note_on_c, 0, 67, 0
2, 232440, Note_on_c, 0, 70, 88
2, 232560, Note_on_c, 0, 70, 0
2, 232560, Note_on_c, 0, 68, 88
2, 232680, Note_on_c, 0, 68, 0
2, 232680, Note_on_c, 0, 67, 88
2, 232800, Note_on_c, 0, 67, 0
2, 232800, Note_on_c, 0, 72, 88
2, 232920, Note_on_c, 0, 72, 0
2, 232920, Note_on_c, 0, 70, 88
2, 233040, Note_on_c, 0, 70, 0
2, 233040, Note_on_c, 0, 69, 88
2, 233160, Note_on_c, 0, 69, 0
2, 233160, Note_on_c, 0, 72, 88
2, 233280, Note_on_c, 0, 72, 0
2, 233280, Note_on_c, 0, 70, 88
2, 233400, Note_on_c, 0, 70, 0
2, 233400, Note_on_c, 0, 69, 88
2, 233520, Note_on_c, 0, 69, 0
2, 233520, Note_on_c, 0, 73, 88
2, 233640, Note_on_c, 0, 73, 0
2, 233640, Note_on_c, 0, 72, 88
2, 233760, Note_on_c, 0, 72, 0
2, 233760, Note_on_c, 0, 70, 88
2, 233880, Note_on_c, 0, 70, 0
2, 233880, Note_on_c, 0, 73, 88
2, 234000, Note_on_c, 0, 73, 0
2, 234000, Note_on_c, 0, 72, 88
2, 234120, Note_on_c, 0, 72, 0
2, 234120, Control_c, 0, 64, 0
2, 234120, Note_on_c, 0, 70, 88
2, 234240, Note_on_c, 0, 70, 0
2, 234240, Control_c, 0, 64, 127
2, 234240, Note_on_c, 0, 76, 88
2, 234360, Note_on_c, 0, 76, 0
2, 234360, Note_on_c, 0, 74, 88
2, 234480, Note_on_c, 0, 74, 0
2, 234480, Note_on_c, 0, 72, 88
2, 234600, Note_on_c, 0, 72, 0
2, 234600, Note_on_c, 0, 76, 88
2, 234720, Note_on_c, 0, 76, 0
2, 234720, Note_on_c, 0, 74, 88
2, 234840, Note_on_c, 0, 74, 0
2, 234840, Note_on_c, 0, 72, 88
2, 234960, Note_on_c, 0, 72, 0
2, 234960, Note_on_c, 0, 77, 88
2, 235080, Note_on_c, 0, 77, 0
2, 235080, Note_on_c, 0, 76, 88
2, 235200, Note_on_c, 0, 76, 0
2, 235200, Note_on_c, 0, 74, 88
2, 235320, Note_on_c, 0, 74, 0
2, 235320, Note_on_c, 0, 77, 88
2, 235440, Note_on_c, 0, 77, 0
2, 235440, Note_on_c, 0, 76, 88
2, 235560, Note_on_c, 0, 76, 0
2, 235560, Note_on_c, 0, 74, 88
2, 235680, Note_on_c, 0, 74, 0
2, 235680, Note_on_c, 0, 79, 88
2, 235800, Note_on_c, 0, 79, 0
2, 235800, Note_on_c, 0, 77, 88
2, 235920, Note_on_c, 0, 77, 0
2, 235920, Note_on_c, 0, 76, 88
2, 236040, Note_on_c, 0, 76, 0
2, 236040, Note_on_c, 0, 79, 88
2, 236160, Note_on_c, 0, 79, 0
2, 236160, Note_on_c, 0, 77, 88
2, 236280, Note_on_c, 0, 77, 0
2, 236280, Note_on_c, 0, 76, 88
2, 236400, Note_on_c, 0, 76, 0
2, 236400, Note_on_c, 0, 80, 101
2, 236520, Note_on_c, 0, 80, 0
2, 236520, Note_on_c, 0, 79, 101
2, 236640, Note_on_c, 0, 79, 0
2, 236640, Note_on_c, 0, 77, 101
2, 236760, Note_on_c, 0, 77, 0
2, 236760, Note_on_c, 0, 80, 101
2, 236880, Note_on_c, 0, 80, 0
2, 236880, Note_on_c, 0, 79, 101
2, 237000, Note_on_c, 0, 79, 0
2, 237000, Note_on_c, 0, 77, 101
2, 237120, Note_on_c, 0, 77, 0
2, 237120, Note_on_c, 0, 80, 101
2, 237240, Note_on_c, 0, 80, 0
2, 237240, Note_on_c, 0, 79, 101
2, 237360, Note_on_c, 0, 79, 0
2, 237360, Note_on_c, 0, 77, 101
2, 237480, Note_on_c, 0, 77, 0
2, 237480, Note_on_c, 0, 80, 101
2, 237600, Note_on_c, 0, 80, 0
2, 237600, Note_on_c, 0, 79, 101
2, 237720, Note_on_c, 0, 79, 0
2, 237720, Note_on_c, 0, 77, 101
2, 237840, Note_on_c, 0, 77, 0
2, 237840, Note_on_c, 0, 80, 101
2, 237960, Note_on_c, 0, 80, 0
2, 237960, Note_on_c, 0, 79, 101
2, 238080, Note_on_c, 0, 79, 0
2, 238080, Note_on_c, 0, 77, 101
2, 238200, Note_on_c, 0, 77, 0
2, 238200, Note_on_c, 0, 80, 101
2, 238320, Note_on_c, 0, 80, 0
2, 238320, Note_on_c, 0, 79, 101
2, 238440, Note_on_c, 0, 79, 0
2, 238440, Note_on_c, 0, 77, 101
2, 238560, Note_on_c, 0, 77, 0
2, 238560, Control_c, 0, 64, 0
2, 238560, Note_on_c, 0, 92, 127
2, 238607, Note_on_c, 0, 92, 0
2, 239280, Note_on_c, 0, 67, 101
2, 239280, Note_on_c, 0, 70, 101
2, 239280, Note_on_c, 0, 72, 101
2, 239280, Note_on_c, 0, 76, 101
2, 239327, Note_on_c, 0, 76, 0
2, 239327, Note_on_c, 0, 67, 0
2, 239327, Note_on_c, 0, 70, 0
2, 239327, Note_on_c, 0, 72, 0
2, 240000, Note_on_c, 0, 65, 101
2, 240000, Note_on_c, 0, 68, 101
2, 240000, Note_on_c, 0, 72, 101
2, 240000, Note_on_c, 0, 77, 101
2, 240047, Note_on_c, 0, 77, 0
2, 240047, Note_on_c, 0, 65, 0
2, 240047, Note_on_c, 0, 68, 0
2, 240047, Note_on_c, 0, 72, 0
2, 240240, Control_c, 0, 64, 127
2, 242400, Control_c, 0, 64, 0
2, 242400, End_track
3, 0, Start_track
3, 0, Title_t, "Grand Piano"
3, 0, Program_c, 0, 0
3, 0, Control_c, 0, 7, 115
3, 0, Control_c, 0, 10, 79
3, 17760, Note_on_c, 0, 72, 64
3, 18480, Note_on_c, 0, 72, 0
3, 18480, Note_on_c, 0, 73, 64
3, 19200, Note_on_c, 0, 73, 0
3, 19200, Note_on_c, 0, 72, 64
3, 19920, Note_on_c, 0, 72, 0
3, 19920, Note_on_c, 0, 70, 64
3, 20640, Note_on_c, 0, 70, 0
3, 20640, Note_on_c, 0, 68, 90
3, 20640, Note_on_c, 0, 72, 90
3, 20663, Note_on_c, 0, 72, 0
3, 20663, Note_on_c, 0, 68, 0
3, 20760, Control_c, 0, 64, 127
3, 20760, Note_on_c, 0, 60, 64
3, 20880, Note_on_c, 0, 60, 0
3, 20880, Note_on_c, 0, 62, 64
3, 21000, Note_on_c, 0, 62, 0
3, 21000, Note_on_c, 0, 64, 64
3, 21120, Note_on_c, 0, 64, 0
3, 21120, Note_on_c, 0, 65, 64
3, 21240, Note_on_c, 0, 65, 0
3, 21240, Note_on_c, 0, 67, 64
3, 21360, Note_on_c, 0, 67, 0
3, 21360, Control_c, 0, 64, 0
3, 21360, Note_on_c, 0, 68, 64
3, 22800, Note_on_c, 0, 68, 0
3, 22800, Note_on_c, 0, 68, 64
3, 23520, Note_on_c, 0, 68, 0
3, 23520, Note_on_c, 0, 62, 75
3, 23520, Note_on_c, 0, 65, 75
3, 23760, Note_on_c, 0, 65, 0
3, 23760, Note_on_c, 0, 62, 0
3, 23760, Note_on_c, 0, 62, 75
3, 23760, Note_on_c, 0, 65, 75
3, 24000, Note_on_c, 0, 65, 0
3, 24000, Note_on_c, 0, 62, 0
3, 24000, Note_on_c, 0, 65, 75
3, 24000, Note_on_c, 0, 68, 75
3, 24240, Note_on_c, 0, 68, 0
3, 24240, Note_on_c, 0, 65, 0
3, 24240, Note_on_c, 0, 65, 75
3, 24240, Note_on_c, 0, 67, 75
3, 24480, Note_on_c, 0, 67, 0
3, 24480, Note_on_c, 0, 65, 0
3, 24480, Note_on_c, 0, 62, 75
3, 24720, Note_on_c, 0, 62, 0
3, 24720, Note_on_c, 0, 59, 75
3, 24960, Note_on_c, 0, 59, 0
3, 24960, Note_on_c, 0, 67, 75
3, 25680, Note_on_c, 0, 67, 0
3, 25680, Note_on_c, 0, 65, 75
3, 25680, Note_on_c, 0, 68, 75
3, 26400, Note_on_c, 0, 68, 0
3, 26400, Note_on_c, 0, 65, 0
3, 26400, Note_on_c, 0, 64, 75
3, 27360, Note_on_c, 0, 64, 0
3, 27360, Note_on_c, 0, 65, 75
3, 27600, Note_on_c, 0, 65, 0
3, 27600, Note_on_c, 0, 65, 75
3, 27840, Note_on_c, 0, 65, 0
3, 27840, Note_on_c, 0, 65, 75
3, 28320, Note_on_c, 0, 65, 0
3, 28320, Note_on_c, 0, 72, 75
3, 28560, Note_on_c, 0, 72, 0
3, 28560, Note_on_c, 0, 70, 75
3, 29040, Note_on_c, 0, 70, 0
3, 29040, Note_on_c, 0, 63, 75
3, 29280, Note_on_c, 0, 63, 0
3, 29280, Note_on_c, 0, 70, 75
3, 29280, Note_on_c, 0, 73, 75
3, 29520, Note_on_c, 0, 73, 0
3, 29520, Note_on_c, 0, 70, 0
3, 29520, Note_on_c, 0, 70, 75
3, 29520, Note_on_c, 0, 73, 75
3, 29760, Note_on_c, 0, 73, 0
3, 29760, Note_on_c, 0, 70, 0
3, 29760, Note_on_c, 0, 67, 75
3, 29760, Note_on_c, 0, 70, 75
3, 30000, Note_on_c, 0, 70, 0
3, 30000, Note_on_c, 0, 67, 0
3, 30000, Note_on_c, 0, 68, 75
3, 30480, Note_on_c, 0, 68, 0
3, 30480, Note_on_c, 0, 66, 75
3, 30720, Note_on_c, 0, 66, 0
3, 32160, Note_on_c, 0, 72, 75
3, 32880, Note_on_c, 0, 72, 0
3, 32880, Note_on_c, 0, 70, 75
3, 33600, Note_on_c, 0, 70, 0
3, 36960, Note_on_c, 0, 67, 75
3, 36960, Note_on_c, 0, 70, 75
3, 37200, Note_on_c, 0, 70, 0
3, 37200, Note_on_c, 0, 67, 0
3, 37200, Note_on_c, 0, 70, 75
3, 37200, Note_on_c, 0, 73, 75
3, 37680, Note_on_c, 0, 73, 0
3, 37680, Note_on_c, 0, 70, 0
3, 37680, Note_on_c, 0, 63, 75
3, 37680, Note_on_c, 0, 67, 75
3, 37920, Note_on_c, 0, 67, 0
3, 37920, Note_on_c, 0, 63, 0
3, 42960, Note_on_c, 0, 73, 75
3, 43440, Note_on_c, 0, 73, 0
3, 43680, Control_c, 0, 64, 127
3, 43680, Note_on_c, 0, 72, 75
3, 43800, Note_on_c, 0, 72, 0
3, 43800, Note_on_c, 0, 70, 75
3, 43920, Note_on_c, 0, 70, 0
3, 43920, Note_on_c, 0, 72, 75
3, 44040, Note_on_c, 0, 72, 0
3, 44040, Note_on_c, 0, 68, 75
3, 44160, Note_on_c, 0, 68, 0
3, 44160, Note_on_c, 0, 72, 75
3, 44280, Note_on_c, 0, 72, 0
3, 44280, Note_on_c, 0, 67, 75
3, 44400, Note_on_c, 0, 67, 0
3, 44400, Note_on_c, 0, 72, 75
3, 44520, Note_on_c, 0, 72, 0
3, 44520, Note_on_c, 0, 66, 75
3, 44640, Note_on_c, 0, 66, 0
3, 44640, Note_on_c, 0, 72, 75
3, 44760, Note_on_c, 0, 72, 0
3, 44760, Note_on_c, 0, 65, 75
3, 44880, Note_on_c, 0, 65, 0
3, 44880, Note_on_c, 0, 72, 75
3, 45000, Note_on_c, 0, 72, 0
3, 45000, Control_c, 0, 64, 0
3, 45000, Note_on_c, 0, 66, 75
3, 45120, Note_on_c, 0, 66, 0
3, 64560, Note_on_c, 0, 70, 62
3, 64800, Note_on_c, 0, 70, 0
3, 64800, Note_on_c, 0, 68, 62
3, 65040, Note_on_c, 0, 68, 0
3, 65040, Note_on_c, 0, 67, 62
3, 65280, Note_on_c, 0, 67, 0
3, 65280, Note_on_c, 0, 65, 62
3, 65520, Note_on_c, 0, 65, 0
3, 65520, Note_on_c, 0, 77, 62
3, 65760, Note_on_c, 0, 77, 0
3, 65760, Note_on_c, 0, 75, 62
3, 66000, Note_on_c, 0, 75, 0
3, 66000, Note_on_c, 0, 73, 62
3, 66240, Note_on_c, 0, 73, 0
3, 66240, Note_on_c, 0, 72, 62
3, 66480, Note_on_c, 0, 72, 0
3, 66480, Note_on_c, 0, 70, 62
3, 66720, Note_on_c, 0, 70, 0
3, 66960, Control_c, 0, 64, 127
3, 66960, Note_on_c, 0, 69, 62
3, 67080, Note_on_c, 0, 69, 0
3, 67080, Note_on_c, 0, 70, 62
3, 67200, Note_on_c, 0, 70, 0
3, 67200, Note_on_c, 0, 72, 62
3, 67320, Note_on_c, 0, 72, 0
3, 67320, Note_on_c, 0, 73, 62
3, 67440, Note_on_c, 0, 73, 0
3, 67440, Control_c, 0, 64, 0
3, 67440, Note_on_c, 0, 75, 62
3, 67920, Note_on_c, 0, 75, 0
3, 68400, Control_c, 0, 64, 127
3, 68400, Note_on_c, 0, 69, 62
3, 68520, Note_on_c, 0, 69, 0
3, 68520, Note_on_c, 0, 70, 62
3, 68640, Note_on_c, 0, 70, 0
3, 68640, Note_on_c, 0, 72, 62
3, 68760, Note_on_c, 0, 72, 0
3, 68760, Note_on_c, 0, 73, 62
3, 68880, Note_on_c, 0, 73, 0
3, 68880, Control_c, 0, 64, 0
3, 68880, Note_on_c, 0, 75, 62
3, 69360, Note_on_c, 0, 75, 0
3, 69600, Note_on_c, 0, 69, 62
3, 69840, Note_on_c, 0, 69, 0
3, 69840, Note_on_c, 0, 69, 62
3, 69887, Note_on_c, 0, 69, 0
3, 70080, Note_on_c, 0, 69, 62
3, 70127, Note_on_c, 0, 69, 0
3, 70320, Note_on_c, 0, 69, 62
3, 70367, Note_on_c, 0, 69, 0
3, 70560, Note_on_c, 0, 69, 62
3, 70607, Note_on_c, 0, 69, 0
3, 70800, Note_on_c, 0, 69, 62
3, 70847, Note_on_c, 0, 69, 0
3, 71040, Note_on_c, 0, 70, 62
3, 71520, Note_on_c, 0, 70, 0
3, 71520, Note_on_c, 0, 63, 62
3, 71520, Note_on_c, 0, 69, 62
3, 71760, Note_on_c, 0, 69, 0
3, 71760, Note_on_c, 0, 63, 0
3, 71760, Note_on_c, 0, 61, 62
3, 71760, Note_on_c, 0, 65, 62
3, 72240, Note_on_c, 0, 65, 0
3, 72240, Note_on_c, 0, 61, 0
3, 72240, Note_on_c, 0, 60, 62
3, 72240, Note_on_c, 0, 63, 62
3, 72480, Note_on_c, 0, 63, 0
3, 72480, Note_on_c, 0, 60, 0
3, 72480, Note_on_c, 0, 62, 62
3, 72480, Note_on_c, 0, 65, 62
3, 72720, Note_on_c, 0, 65, 0
3, 72720, Note_on_c, 0, 62, 0
3, 72720, Control_c, 0, 64, 127
3, 72720, Note_on_c, 0, 59, 62
3, 72840, Note_on_c, 0, 59, 0
3, 72840, Note_on_c, 0, 60, 62
3, 72960, Note_on_c, 0, 60, 0
3, 72960, Note_on_c, 0, 62, 62
3, 73080, Note_on_c, 0, 62, 0
3, 73080, Note_on_c, 0, 63, 62
3, 73200, Note_on_c, 0, 63, 0
3, 73200, Control_c, 0, 64, 0
3, 73200, Note_on_c, 0, 65, 62
3, 73680, Note_on_c, 0, 65, 0
3, 74160, Control_c, 0, 64, 127
3, 74160, Note_on_c, 0, 59, 62
3, 74280, Note_on_c, 0, 59, 0
3, 74280, Note_on_c, 0, 60, 62
3, 74400, Note_on_c, 0, 60, 0
3, 74400, Note_on_c, 0, 62, 62
3, 74520, Note_on_c, 0, 62, 0
3, 74520, Note_on_c, 0, 63, 62
3, 74640, Note_on_c, 0, 63, 0
3, 74640, Control_c, 0, 64, 0
3, 74640, Note_on_c, 0, 65, 62
3, 75120, Note_on_c, 0, 65, 0
3, 76080, Note_on_c, 0, 59, 62
3, 76800, Note_on_c, 0, 59, 0
3, 76800, Note_on_c, 0, 60, 62
3, 77520, Note_on_c, 0, 60, 0
3, 77520, Note_on_c, 0, 67, 62
3, 78000, Note_on_c, 0, 67, 0
3, 78000, Note_on_c, 0, 70, 62
3, 78240, Note_on_c, 0, 70, 0
3, 78240, Note_on_c, 0, 68, 62
3, 79680, Note_on_c, 0, 68, 0
3, 79680, Note_on_c, 0, 67, 62
3, 80160, Note_on_c, 0, 67, 0
3, 80160, Note_on_c, 0, 68, 62
3, 80400, Note_on_c, 0, 68, 0
3, 80400, Note_on_c, 0, 70, 62
3, 80640, Note_on_c, 0, 70, 0
3, 80640, Note_on_c, 0, 68, 62
3, 80880, Note_on_c, 0, 68, 0
3, 80880, Note_on_c, 0, 67, 62
3, 81120, Note_on_c, 0, 67, 0
3, 81120, Note_on_c, 0, 72, 62
3, 81840, Note_on_c, 0, 72, 0
3, 81840, Note_on_c, 0, 74, 62
3, 82560, Note_on_c, 0, 74, 0
3, 88320, Note_on_c, 0, 72, 62
3, 88560, Note_on_c, 0, 72, 0
3, 88560, Note_on_c, 0, 72, 62
3, 88800, Note_on_c, 0, 72, 0
3, 88800, Note_on_c, 0, 72, 62
3, 89040, Note_on_c, 0, 72, 0
3, 89040, Note_on_c, 0, 72, 62
3, 89280, Note_on_c, 0, 72, 0
3, 89280, Note_on_c, 0, 72, 62
3, 89520, Note_on_c, 0, 72, 0
3, 89520, Note_on_c, 0, 72, 62
3, 89760, Note_on_c, 0, 72, 0
3, 89760, Control_c, 0, 64, 127
3, 89760, Note_on_c, 0, 75, 62
3, 89880, Note_on_c, 0, 75, 0
3, 89880, Note_on_c, 0, 74, 62
3, 90000, Note_on_c, 0, 74, 0
3, 90000, Note_on_c, 0, 72, 62
3, 90120, Note_on_c, 0, 72, 0
3, 90120, Note_on_c, 0, 70, 62
3, 90240, Note_on_c, 0, 70, 0
3, 90240, Note_on_c, 0, 69, 62
3, 90360, Note_on_c, 0, 69, 0
3, 90360, Note_on_c, 0, 67, 62
3, 90480, Note_on_c, 0, 67, 0
3, 90480, Note_on_c, 0, 66, 62
3, 90600, Note_on_c, 0, 66, 0
3, 90600, Note_on_c, 0, 69, 62
3, 90720, Note_on_c, 0, 69, 0
3, 90720, Note_on_c, 0, 72, 62
3, 90840, Note_on_c, 0, 72, 0
3, 90840, Note_on_c, 0, 75, 62
3, 90960, Note_on_c, 0, 75, 0
3, 90960, Note_on_c, 0, 74, 62
3, 91080, Note_on_c, 0, 74, 0
3, 91080, Control_c, 0, 64, 0
3, 91080, Note_on_c, 0, 72, 62
3, 91200, Note_on_c, 0, 72, 0
3, 95520, Control_c, 0, 64, 127
3, 95520, Note_on_c, 0, 72, 62
3, 95640, Note_on_c, 0, 72, 0
3, 95640, Note_on_c, 0, 73, 62
3, 95760, Note_on_c, 0, 73, 0
3, 95760, Note_on_c, 0, 75, 62
3, 95880, Note_on_c, 0, 75, 0
3, 95880, Note_on_c, 0, 72, 62
3, 96000, Note_on_c, 0, 72, 0
3, 96000, Note_on_c, 0, 73, 62
3, 96120, Note_on_c, 0, 73, 0
3, 96120, Control_c, 0, 64, 0
3, 96120, Note_on_c, 0, 75, 62
3, 96240, Note_on_c, 0, 75, 0
3, 96960, Control_c, 0, 64, 127
3, 96960, Note_on_c, 0, 73, 62
3, 97080, Note_on_c, 0, 73, 0
3, 97080, Note_on_c, 0, 72, 62
3, 97200, Note_on_c, 0, 72, 0
3, 97200, Note_on_c, 0, 70, 62
3, 97320, Note_on_c, 0, 70, 0
3, 97320, Note_on_c, 0, 73, 62
3, 97440, Note_on_c, 0, 73, 0
3, 97440, Note_on_c, 0, 72, 62
3, 97560, Note_on_c, 0, 72, 0
3, 97560, Note_on_c, 0, 70, 62
3, 97680, Control_c, 0, 64, 0
3, 98400, Note_on_c, 0, 70, 0
3, 98400, Control_c, 0, 64, 127
3, 98400, Note_on_c, 0, 68, 62
3, 98520, Note_on_c, 0, 68, 0
3, 98520, Note_on_c, 0, 70, 62
3, 98640, Note_on_c, 0, 70, 0
3, 98640, Note_on_c, 0, 72, 62
3, 98760, Note_on_c, 0, 72, 0
3, 98760, Note_on_c, 0, 68, 62
3, 98880, Note_on_c, 0, 68, 0
3, 98880, Note_on_c, 0, 70, 62
3, 99000, Note_on_c, 0, 70, 0
3, 99000, Control_c, 0, 64, 0
3, 99000, Note_on_c, 0, 72, 62
3, 99120, Note_on_c, 0, 72, 0
3, 99840, Note_on_c, 0, 74, 62
3, 100560, Note_on_c, 0, 74, 0
3, 100560, Control_c, 0, 64, 127
3, 100560, Note_on_c, 0, 75, 62
3, 100680, Note_on_c, 0, 75, 0
3, 100680, Note_on_c, 0, 74, 62
3, 100800, Note_on_c, 0, 74, 0
3, 100800, Note_on_c, 0, 72, 62
3, 100920, Note_on_c, 0, 72, 0
3, 100920, Note_on_c, 0, 75, 62
3, 101040, Note_on_c, 0, 75, 0
3, 101040, Note_on_c, 0, 74, 62
3, 101160, Note_on_c, 0, 74, 0
3, 101160, Control_c, 0, 64, 0
3, 101160, Note_on_c, 0, 72, 62
3, 101280, Note_on_c, 0, 72, 0
3, 101280, Control_c, 0, 64, 127
3, 101280, Note_on_c, 0, 75, 62
3, 101400, Note_on_c, 0, 75, 0
3, 101400, Note_on_c, 0, 74, 62
3, 101520, Note_on_c, 0, 74, 0
3, 101520, Note_on_c, 0, 72, 62
3, 101640, Note_on_c, 0, 72, 0
3, 101640, Note_on_c, 0, 75, 62
3, 101760, Note_on_c, 0, 75, 0
3, 101760, Note_on_c, 0, 74, 62
3, 101880, Note_on_c, 0, 74, 0
3, 101880, Note_on_c, 0, 72, 62
3, 102000, Note_on_c, 0, 72, 0
3, 102000, Note_on_c, 0, 70, 62
3, 102120, Note_on_c, 0, 70, 0
3, 102120, Note_on_c, 0, 69, 62
3, 102240, Note_on_c, 0, 69, 0
3, 102240, Note_on_c, 0, 67, 62
3, 102360, Note_on_c, 0, 67, 0
3, 102360, Note_on_c, 0, 70, 62
3, 102480, Note_on_c, 0, 70, 0
3, 102480, Note_on_c, 0, 69, 62
3, 102600, Note_on_c, 0, 69, 0
3, 102600, Control_c, 0, 64, 0
3, 102600, Note_on_c, 0, 67, 62
3, 102720, Note_on_c, 0, 67, 0
3, 104160, Note_on_c, 0, 67, 62
3, 104880, Note_on_c, 0, 67, 0
3, 104880, Note_on_c, 0, 66, 62
3, 105600, Note_on_c, 0, 66, 0
3, 105600, Note_on_c, 0, 65, 62
3, 106320, Note_on_c, 0, 65, 0
3, 106320, Note_on_c, 0, 63, 62
3, 106800, Note_on_c, 0, 63, 0
3, 109920, Note_on_c, 0, 79, 75
3, 110640, Note_on_c, 0, 79, 0
3, 110640, Note_on_c, 0, 78, 75
3, 111360, Note_on_c, 0, 78, 0
3, 111360, Note_on_c, 0, 77, 75
3, 112080, Note_on_c, 0, 77, 0
3, 112320, Note_on_c, 0, 75, 75
3, 112560, Note_on_c, 0, 75, 0
3, 112560, Note_on_c, 0, 72, 75
3, 112800, Note_on_c, 0, 72, 0
3, 120720, Note_on_c, 0, 80, 75
3, 121440, Note_on_c, 0, 80, 0
3, 121440, Note_on_c, 0, 79, 75
3, 122160, Note_on_c, 0, 79, 0
3, 122880, Note_on_c, 0, 63, 62
3, 123120, Note_on_c, 0, 63, 0
3, 123120, Note_on_c, 0, 63, 62
3, 123167, Note_on_c, 0, 63, 0
3, 123360, Note_on_c, 0, 63, 62
3, 123407, Note_on_c, 0, 63, 0
3, 123600, Note_on_c, 0, 63, 62
3, 123647, Note_on_c, 0, 63, 0
3, 123840, Note_on_c, 0, 63, 62
3, 123887, Note_on_c, 0, 63, 0
3, 124080, Note_on_c, 0, 63, 62
3, 124127, Note_on_c, 0, 63, 0
3, 124320, Note_on_c, 0, 65, 88
3, 125280, Note_on_c, 0, 65, 0
3, 125280, Control_c, 0, 64, 127
3, 125280, Note_on_c, 0, 58, 62
3, 125400, Note_on_c, 0, 58, 0
3, 125400, Note_on_c, 0, 60, 62
3, 125520, Note_on_c, 0, 60, 0
3, 125520, Note_on_c, 0, 61, 62
3, 125640, Note_on_c, 0, 61, 0
3, 125640, Control_c, 0, 64, 0
3, 125640, Note_on_c, 0, 63, 62
3, 125760, Note_on_c, 0, 63, 0
3, 125760, Note_on_c, 0, 64, 88
3, 126720, Note_on_c, 0, 64, 0
3, 126720, Control_c, 0, 64, 127
3, 126720, Note_on_c, 0, 58, 62
3, 126840, Note_on_c, 0, 58, 0
3, 126840, Note_on_c, 0, 60, 62
3, 126960, Note_on_c, 0, 60, 0
3, 126960, Note_on_c, 0, 61, 62
3, 127080, Note_on_c, 0, 61, 0
3, 127080, Note_on_c, 0, 63, 62
3, 127200, Note_on_c, 0, 63, 0
3, 127200, Control_c, 0, 64, 0
3, 127200, Note_on_c, 0, 64, 88
3, 127920, Note_on_c, 0, 64, 0
3, 127920, Note_on_c, 0, 63, 62
3, 128400, Note_on_c, 0, 63, 0
3, 128400, Note_on_c, 0, 61, 62
3, 128400, Note_on_c, 0, 63, 62
3, 128640, Note_on_c, 0, 63, 0
3, 128640, Note_on_c, 0, 61, 0
3, 128880, Note_on_c, 0, 68, 62
3, 129120, Note_on_c, 0, 68, 0
3, 129120, Note_on_c, 0, 67, 62
3, 129360, Note_on_c, 0, 67, 0
3, 129360, Note_on_c, 0, 68, 62
3, 129600, Note_on_c, 0, 68, 0
3, 129600, Note_on_c, 0, 70, 62
3, 129840, Note_on_c, 0, 70, 0
3, 129840, Note_on_c, 0, 72, 62
3, 130080, Note_on_c, 0, 72, 0
3, 133680, Note_on_c, 0, 67, 62
3, 134400, Note_on_c, 0, 67, 0
3, 143040, Note_on_c, 0, 61, 62
3, 143280, Note_on_c, 0, 61, 0
3, 143280, Note_on_c, 0, 73, 62
3, 143520, Note_on_c, 0, 73, 0
3, 143520, Note_on_c, 0, 72, 62
3, 143760, Note_on_c, 0, 72, 0
3, 143760, Note_on_c, 0, 70, 62
3, 144000, Note_on_c, 0, 70, 0
3, 144000, Note_on_c, 0, 69, 62
3, 144240, Note_on_c, 0, 69, 0
3, 144240, Note_on_c, 0, 70, 62
3, 144480, Note_on_c, 0, 70, 0
3, 148800, Note_on_c, 0, 68, 62
3, 148800, Note_on_c, 0, 71, 62
3, 149280, Note_on_c, 0, 71, 0
3, 149280, Note_on_c, 0, 68, 0
3, 149280, Note_on_c, 0, 68, 62
3, 149280, Note_on_c, 0, 71, 62
3, 149520, Note_on_c, 0, 71, 0
3, 149520, Note_on_c, 0, 68, 0
3, 149520, Note_on_c, 0, 67, 62
3, 149520, Note_on_c, 0, 70, 62
3, 150000, Note_on_c, 0, 70, 0
3, 150000, Note_on_c, 0, 67, 0
3, 150000, Note_on_c, 0, 65, 62
3, 150000, Note_on_c, 0, 68, 62
3, 150240, Note_on_c, 0, 68, 0
3, 150240, Note_on_c, 0, 65, 0
3, 153120, Note_on_c, 0, 70, 62
3, 153120, Note_on_c, 0, 73, 62
3, 153600, Note_on_c, 0, 73, 0
3, 153600, Note_on_c, 0, 70, 0
3, 153600, Note_on_c, 0, 70, 62
3, 153600, Note_on_c, 0, 73, 62
3, 153840, Note_on_c, 0, 73, 0
3, 153840, Note_on_c, 0, 70, 0
3, 153840, Note_on_c, 0, 68, 62
3, 153840, Note_on_c, 0, 72, 62
3, 154320, Note_on_c, 0, 72, 0
3, 154320, Note_on_c, 0, 68, 0
3, 154320, Note_on_c, 0, 72, 62
3, 154560, Note_on_c, 0, 72, 0
3, 154560, Note_on_c, 0, 76, 62
3, 154800, Note_on_c, 0, 76, 0
3, 154800, Note_on_c, 0, 77, 62
3, 155040, Note_on_c, 0, 77, 0
3, 155040, Note_on_c, 0, 79, 62
3, 155280, Note_on_c, 0, 79, 0
3, 155280, Note_on_c, 0, 77, 62
3, 155760, Note_on_c, 0, 77, 0
3, 156720, Note_on_c, 0, 77, 62
3, 157680, Note_on_c, 0, 77, 0
3, 157680, Note_on_c, 0, 76, 62
3, 157920, Note_on_c, 0, 76, 0
3, 157920, Note_on_c, 0, 73, 62
3, 158160, Note_on_c, 0, 73, 0
3, 158160, Note_on_c, 0, 72, 62
3, 158640, Note_on_c, 0, 72, 0
3, 172560, Control_c, 0, 64, 127
3, 172560, Note_on_c, 0, 73, 49
3, 172680, Note_on_c, 0, 73, 0
3, 172680, Note_on_c, 0, 72, 49
3, 172800, Note_on_c, 0, 72, 0
3, 172800, Note_on_c, 0, 70, 49
3, 172920, Note_on_c, 0, 70, 0
3, 172920, Note_on_c, 0, 73, 49
3, 173040, Note_on_c, 0, 73, 0
3, 173040, Note_on_c, 0, 72, 49
3, 173160, Note_on_c, 0, 72, 0
3, 173160, Control_c, 0, 64, 0
3, 173160, Note_on_c, 0, 70, 49
3, 173280, Note_on_c, 0, 70, 0
3, 173280, Control_c, 0, 64, 127
3, 173280, Note_on_c, 0, 68, 49
3, 173400, Note_on_c, 0, 68, 0
3, 173400, Note_on_c, 0, 67, 49
3, 173520, Note_on_c, 0, 67, 0
3, 173520, Note_on_c, 0, 65, 49
3, 173640, Note_on_c, 0, 65, 0
3, 173640, Note_on_c, 0, 68, 49
3, 173760, Note_on_c, 0, 68, 0
3, 173760, Note_on_c, 0, 67, 49
3, 173880, Note_on_c, 0, 67, 0
3, 173880, Control_c, 0, 64, 0
3, 173880, Note_on_c, 0, 65, 49
3, 174000, Note_on_c, 0, 65, 0
3, 175440, Control_c, 0, 64, 127
3, 175440, Note_on_c, 0, 73, 49
3, 175560, Note_on_c, 0, 73, 0
3, 175560, Note_on_c, 0, 72, 49
3, 175680, Note_on_c, 0, 72, 0
3, 175680, Note_on_c, 0, 70, 49
3, 175800, Note_on_c, 0, 70, 0
3, 175800, Note_on_c, 0, 73, 49
3, 175920, Note_on_c, 0, 73, 0
3, 175920, Note_on_c, 0, 72, 49
3, 176040, Note_on_c, 0, 72, 0
3, 176040, Control_c, 0, 64, 0
3, 176040, Note_on_c, 0, 70, 49
3, 176160, Note_on_c, 0, 70, 0
3, 176160, Control_c, 0, 64, 127
3, 176160, Note_on_c, 0, 74, 62
3, 176280, Note_on_c, 0, 74, 0
3, 176280, Note_on_c, 0, 72, 62
3, 176400, Note_on_c, 0, 72, 0
3, 176400, Note_on_c, 0, 71, 62
3, 176520, Note_on_c, 0, 71, 0
3, 176520, Note_on_c, 0, 74, 62
3, 176640, Note_on_c, 0, 74, 0
3, 176640, Note_on_c, 0, 72, 62
3, 176760, Note_on_c, 0, 72, 0
3, 176760, Control_c, 0, 64, 0
3, 176760, Note_on_c, 0, 71, 62
3, 176880, Note_on_c, 0, 71, 0
3, 197520, Control_c, 0, 64, 127
3, 197520, Note_on_c, 0, 57, 49
3, 197640, Note_on_c, 0, 57, 0
3, 197640, Note_on_c, 0, 60, 49
3, 197760, Note_on_c, 0, 60, 0
3, 197760, Note_on_c, 0, 63, 49
3, 197880, Note_on_c, 0, 63, 0
3, 197880, Note_on_c, 0, 66, 49
3, 198000, Note_on_c, 0, 66, 0
3, 198000, Note_on_c, 0, 65, 49
3, 198120, Note_on_c, 0, 65, 0
3, 198120, Note_on_c, 0, 63, 49
3, 198240, Note_on_c, 0, 63, 0
3, 198240, Control_c, 0, 64, 0
3, 198240, Note_on_c, 0, 61, 49
3, 198480, Note_on_c, 0, 61, 0
3, 198960, Note_on_c, 0, 54, 49
3, 199200, Note_on_c, 0, 54, 0
3, 204000, Note_on_c, 0, 64, 49
3, 204000, Note_on_c, 0, 67, 49
3, 204240, Note_on_c, 0, 67, 0
3, 204240, Note_on_c, 0, 64, 0
3, 204720, Note_on_c, 0, 67, 49
3, 204720, Note_on_c, 0, 70, 49
3, 204960, Note_on_c, 0, 70, 0
3, 204960, Note_on_c, 0, 67, 0
3, 205440, Note_on_c, 0, 65, 49
3, 205440, Note_on_c, 0, 68, 49
3, 205680, Note_on_c, 0, 68, 0
3, 205680, Note_on_c, 0, 65, 0
3, 206160, Note_on_c, 0, 70, 49
3, 206400, Note_on_c, 0, 70, 0
3, 206880, Note_on_c, 0, 68, 49
3, 207120, Note_on_c, 0, 68, 0
3, 207600, Note_on_c, 0, 61, 49
3, 207840, Note_on_c, 0, 61, 0
3, 211200, Note_on_c, 0, 63, 49
3, 211247, Note_on_c, 0, 63, 0
3, 211440, Note_on_c, 0, 63, 49
3, 211487, Note_on_c, 0, 63, 0
3, 211680, Note_on_c, 0, 63, 49
3, 211727, Note_on_c, 0, 63, 0
3, 211920, Note_on_c, 0, 63, 49
3, 211967, Note_on_c, 0, 63, 0
3, 212160, Note_on_c, 0, 63, 49
3, 212207, Note_on_c, 0, 63, 0
3, 212400, Note_on_c, 0, 63, 49
3, 212447, Note_on_c, 0, 63, 0
3, 212640, Control_c, 0, 64, 127
3, 212640, Note_on_c, 0, 66, 49
3, 212760, Note_on_c, 0, 66, 0
3, 212760, Note_on_c, 0, 65, 49
3, 212880, Note_on_c, 0, 65, 0
3, 212880, Note_on_c, 0, 63, 49
3, 213000, Note_on_c, 0, 63, 0
3, 213000, Note_on_c, 0, 61, 49
3, 213120, Note_on_c, 0, 61, 0
3, 213120, Note_on_c, 0, 60, 49
3, 213240, Note_on_c, 0, 60, 0
3, 213240, Note_on_c, 0, 58, 49
3, 213360, Note_on_c, 0, 58, 0
3, 213360, Note_on_c, 0, 57, 49
3, 213480, Note_on_c, 0, 57, 0
3, 213480, Note_on_c, 0, 60, 49
3, 213600, Note_on_c, 0, 60, 0
3, 213600, Note_on_c, 0, 63, 49
3, 213720, Note_on_c, 0, 63, 0
3, 213720, Note_on_c, 0, 66, 49
3, 213840, Note_on_c, 0, 66, 0
3, 213840, Note_on_c, 0, 65, 49
3, 213960, Note_on_c, 0, 65, 0
3, 213960, Control_c, 0, 64, 0
3, 213960, Note_on_c, 0, 63, 49
3, 214080, Note_on_c, 0, 63, 0
3, 214080, Note_on_c, 0, 65, 49
3, 214127, Note_on_c, 0, 65, 0
3, 214320, Note_on_c, 0, 65, 49
3, 214367, Note_on_c, 0, 65, 0
3, 214560, Note_on_c, 0, 65, 49
3, 214607, Note_on_c, 0, 65, 0
3, 214800, Note_on_c, 0, 65, 49
3, 214847, Note_on_c, 0, 65, 0
3, 215040, Note_on_c, 0, 65, 49
3, 215087, Note_on_c, 0, 65, 0
3, 215280, Note_on_c, 0, 65, 49
3, 215327, Note_on_c, 0, 65, 0
3, 215520, Note_on_c, 0, 68, 49
3, 215640, Note_on_c, 0, 68, 0
3, 215640, Note_on_c, 0, 67, 49
3, 215760, Note_on_c, 0, 67, 0
3, 215760, Note_on_c, 0, 65, 49
3, 215880, Note_on_c, 0, 65, 0
3, 215880, Note_on_c, 0, 63, 49
3, 216000, Note_on_c, 0, 63, 0
3, 216000, Note_on_c, 0, 61, 49
3, 216120, Note_on_c, 0, 61, 0
3, 216120, Note_on_c, 0, 60, 49
3, 216240, Note_on_c, 0, 60, 0
3, 220560, Control_c, 0, 64, 127
3, 220560, Note_on_c, 0, 73, 49
3, 220680, Note_on_c, 0, 73, 0
3, 220680, Note_on_c, 0, 72, 49
3, 220800, Note_on_c, 0, 72, 0
3, 220800, Note_on_c, 0, 70, 49
3, 220920, Note_on_c, 0, 70, 0
3, 220920, Note_on_c, 0, 73, 49
3, 221040, Note_on_c, 0, 73, 0
3, 221040, Note_on_c, 0, 72, 49
3, 221160, Note_on_c, 0, 72, 0
3, 221160, Control_c, 0, 64, 0
3, 221160, Note_on_c, 0, 70, 49
3, 221280, Note_on_c, 0, 70, 0
3, 221280, Control_c, 0, 64, 127
3, 221280, Note_on_c, 0, 68, 49
3, 221400, Note_on_c, 0, 68, 0
3, 221400, Note_on_c, 0, 67, 49
3, 221520, Note_on_c, 0, 67, 0
3, 221520, Note_on_c, 0, 65, 49
3, 221640, Note_on_c, 0, 65, 0
3, 221640, Note_on_c, 0, 68, 49
3, 221760, Note_on_c, 0, 68, 0
3, 221760, Note_on_c, 0, 67, 49
3, 221880, Note_on_c, 0, 67, 0
3, 221880, Control_c, 0, 64, 0
3, 221880, Note_on_c, 0, 65, 49
3, 222000, Note_on_c, 0, 65, 0
3, 223440, Control_c, 0, 64, 127
3, 223440, Note_on_c, 0, 73, 49
3, 223560, Note_on_c, 0, 73, 0
3, 223560, Note_on_c, 0, 72, 49
3, 223680, Note_on_c, 0, 72, 0
3, 223680, Note_on_c, 0, 70, 49
3, 223800, Note_on_c, 0, 70, 0
3, 223800, Note_on_c, 0, 73, 49
3, 223920, Note_on_c, 0, 73, 0
3, 223920, Note_on_c, 0, 72, 49
3, 224040, Note_on_c, 0, 72, 0
3, 224040, Note_on_c, 0, 70, 49
3, 224160, Note_on_c, 0, 70, 0
3, 224160, Note_on_c, 0, 74, 62
3, 224280, Note_on_c, 0, 74, 0
3, 224280, Note_on_c, 0, 72, 62
3, 224400, Note_on_c, 0, 72, 0
3, 224400, Note_on_c, 0, 71, 62
3, 224520, Note_on_c, 0, 71, 0
3, 224520, Note_on_c, 0, 74, 62
3, 224640, Note_on_c, 0, 74, 0
3, 224640, Note_on_c, 0, 72, 62
3, 224760, Note_on_c, 0, 72, 0
3, 224760, Control_c, 0, 64, 0
3, 224760, Note_on_c, 0, 71, 62
3, 224880, Note_on_c, 0, 71, 0
3, 232080, Note_on_c, 0, 61, 101
3, 232800, Note_on_c, 0, 61, 0
3, 232800, Note_on_c, 0, 66, 101
3, 233520, Note_on_c, 0, 66, 0
3, 233520, Note_on_c, 0, 65, 101
3, 234240, Note_on_c, 0, 65, 0
3, 234240, Note_on_c, 0, 67, 101
3, 234960, Note_on_c, 0, 67, 0
3, 234960, Note_on_c, 0, 68, 101
3, 235680, Note_on_c, 0, 68, 0
3, 235680, Note_on_c, 0, 73, 101
3, 236400, Note_on_c, 0, 73, 0
3, 236400, Note_on_c, 0, 72, 114
3, 237120, Note_on_c, 0, 72, 0
3, 237120, End_track
4, 0, Start_track
4, 0, Title_t, "Grand Piano"
4, 0, Program_c, 0, 0
4, 0, Control_c, 0, 7, 115
4, 0, Control_c, 0, 10, 41
4, 6000, Note_on_c, 0, 53, 88
4, 6240, Note_on_c, 0, 53, 0
4, 6240, Note_on_c, 0, 65, 88
4, 6480, Note_on_c, 0, 65, 0
4, 6480, Note_on_c, 0, 65, 88
4, 6527, Note_on_c, 0, 65, 0
4, 6720, Note_on_c, 0, 65, 88
4, 6767, Note_on_c, 0, 65, 0
4, 6960, Note_on_c, 0, 65, 88
4, 7007, Note_on_c, 0, 65, 0
4, 7200, Note_on_c, 0, 65, 88
4, 7247, Note_on_c, 0, 65, 0
4, 7440, Note_on_c, 0, 65, 88
4, 7487, Note_on_c, 0, 65, 0
4, 7680, Control_c, 0, 64, 127
4, 7680, Note_on_c, 0, 68, 88
4, 7800, Note_on_c, 0, 68, 0
4, 7800, Note_on_c, 0, 67, 88
4, 7920, Note_on_c, 0, 67, 0
4, 7920, Note_on_c, 0, 65, 88
4, 8040, Note_on_c, 0, 65, 0
4, 8040, Note_on_c, 0, 63, 88
4, 8160, Note_on_c, 0, 63, 0
4, 8160, Note_on_c, 0, 62, 88
4, 8280, Note_on_c, 0, 62, 0
4, 8280, Note_on_c, 0, 60, 88
4, 8400, Note_on_c, 0, 60, 0
4, 8400, Note_on_c, 0, 59, 88
4, 8520, Note_on_c, 0, 59, 0
4, 8520, Note_on_c, 0, 62, 88
4, 8640, Note_on_c, 0, 62, 0
4, 8640, Note_on_c, 0, 65, 88
4, 8760, Note_on_c, 0, 65, 0
4, 8760, Note_on_c, 0, 68, 88
4, 8880, Note_on_c, 0, 68, 0
4, 8880, Note_on_c, 0, 67, 88
4, 9000, Note_on_c, 0, 67, 0
4, 9000, Control_c, 0, 64, 0
4, 9000, Note_on_c, 0, 65, 88
4, 9120, Note_on_c, 0, 65, 0
4, 9120, Control_c, 0, 64, 127
4, 9120, Note_on_c, 0, 63, 88
4, 9240, Note_on_c, 0, 63, 0
4, 9240, Note_on_c, 0, 62, 88
4, 9360, Note_on_c, 0, 62, 0
4, 9360, Note_on_c, 0, 60, 88
4, 9480, Note_on_c, 0, 60, 0
4, 9480, Note_on_c, 0, 63, 88
4, 9600, Note_on_c, 0, 63, 0
4, 9600, Note_on_c, 0, 62, 88
4, 9720, Note_on_c, 0, 62, 0
4, 9720, Note_on_c, 0, 60, 88
4, 9840, Note_on_c, 0, 60, 0
4, 9840, Note_on_c, 0, 65, 88
4, 9960, Note_on_c, 0, 65, 0
4, 9960, Note_on_c, 0, 63, 88
4, 10080, Note_on_c, 0, 63, 0
4, 10080, Note_on_c, 0, 62, 88
4, 10200, Note_on_c, 0, 62, 0
4, 10200, Note_on_c, 0, 65, 88
4, 10320, Note_on_c, 0, 65, 0
4, 10320, Note_on_c, 0, 63, 88
4, 10440, Note_on_c, 0, 63, 0
4, 10440, Note_on_c, 0, 62, 88
4, 10560, Note_on_c, 0, 62, 0
4, 10560, Note_on_c, 0, 67, 88
4, 10680, Note_on_c, 0, 67, 0
4, 10680, Note_on_c, 0, 65, 88
4, 10800, Note_on_c, 0, 65, 0
4, 10800, Note_on_c, 0, 64, 88
4, 10920, Note_on_c, 0, 64, 0
4, 10920, Note_on_c, 0, 67, 88
4, 11040, Note_on_c, 0, 67, 0
4, 11040, Note_on_c, 0, 65, 88
4, 11160, Note_on_c, 0, 65, 0
4, 11160, Note_on_c, 0, 64, 88
4, 11280, Note_on_c, 0, 64, 0
4, 11280, Note_on_c, 0, 68, 88
4, 11400, Note_on_c, 0, 68, 0
4, 11400, Note_on_c, 0, 67, 88
4, 11520, Note_on_c, 0, 67, 0
4, 11520, Note_on_c, 0, 65, 88
4, 11640, Note_on_c, 0, 65, 0
4, 11640, Note_on_c, 0, 68, 88
4, 11760, Note_on_c, 0, 68, 0
4, 11760, Note_on_c, 0, 67, 88
4, 11880, Note_on_c, 0, 67, 0
4, 11880, Control_c, 0, 64, 0
4, 11880, Note_on_c, 0, 65, 88
4, 12000, Note_on_c, 0, 65, 0
4, 12000, Note_on_c, 0, 70, 88
4, 12240, Note_on_c, 0, 70, 0
4, 12240, Control_c, 0, 64, 127
4, 12240, Note_on_c, 0, 64, 88
4, 12360, Note_on_c, 0, 64, 0
4, 12360, Note_on_c, 0, 65, 88
4, 12480, Note_on_c, 0, 65, 0
4, 12480, Note_on_c, 0, 67, 88
4, 12600, Note_on_c, 0, 67, 0
4, 12600, Note_on_c, 0, 68, 88
4, 12720, Note_on_c, 0, 68, 0
4, 12720, Control_c, 0, 64, 0
4, 12720, Note_on_c, 0, 70, 88
4, 12767, Note_on_c, 0, 70, 0
4, 12960, Control_c, 0, 64, 127
4, 12960, Note_on_c, 0, 67, 88
4, 13080, Note_on_c, 0, 67, 0
4, 13080, Note_on_c, 0, 68, 88
4, 13200, Note_on_c, 0, 68, 0
4, 13200, Note_on_c, 0, 70, 88
4, 13320, Note_on_c, 0, 70, 0
4, 13320, Note_on_c, 0, 72, 88
4, 13440, Note_on_c, 0, 72, 0
4, 13440, Control_c, 0, 64, 0
4, 13440, Note_on_c, 0, 73, 88
4, 14520, Note_on_c, 0, 73, 0
4, 14520, Note_on_c, 0, 72, 88
4, 14640, Note_on_c, 0, 72, 0
4, 14640, Note_on_c, 0, 70, 75
4, 14880, Note_on_c, 0, 70, 0
4, 14880, Note_on_c, 0, 68, 75
4, 15000, Note_on_c, 0, 68, 0
4, 15000, Note_on_c, 0, 72, 75
4, 15120, Note_on_c, 0, 72, 0
4, 15120, Note_on_c, 0, 79, 75
4, 15240, Note_on_c, 0, 79, 0
4, 15240, Note_on_c, 0, 72, 75
4, 15360, Note_on_c, 0, 72, 0
4, 15360, Note_on_c, 0, 68, 75
4, 15480, Note_on_c, 0, 68, 0
4, 15480, Note_on_c, 0, 77, 75
4, 15600, Note_on_c, 0, 77, 0
4, 15600, Note_on_c, 0, 67, 75
4, 15720, Note_on_c, 0, 67, 0
4, 15720, Note_on_c, 0, 70, 75
4, 15840, Note_on_c, 0, 70, 0
4, 15840, Note_on_c, 0, 77, 75
4, 15960, Note_on_c, 0, 77, 0
4, 15960, Note_on_c, 0, 70, 75
4, 16080, Note_on_c, 0, 70, 0
4, 16080, Note_on_c, 0, 67, 75
4, 16200, Note_on_c, 0, 67, 0
4, 16200, Note_on_c, 0, 76, 75
4, 16320, Note_on_c, 0, 76, 0
4, 16320, Note_on_c, 0, 70, 75
4, 17280, Note_on_c, 0, 70, 0
4, 17280, Note_on_c, 0, 67, 75
4, 17520, Note_on_c, 0, 67, 0
4, 17520, Note_on_c, 0, 64, 75
4, 17760, Note_on_c, 0, 64, 0
4, 17760, Control_c, 0, 64, 127
4, 17760, Note_on_c, 0, 56, 88
4, 17880, Note_on_c, 0, 56, 0
4, 17880, Note_on_c, 0, 55, 88
4, 18000, Note_on_c, 0, 55, 0
4, 18000, Note_on_c, 0, 53, 88
4, 18120, Note_on_c, 0, 53, 0
4, 18120, Note_on_c, 0, 56, 88
4, 18240, Note_on_c, 0, 56, 0
4, 18240, Note_on_c, 0, 55, 88
4, 18360, Note_on_c, 0, 55, 0
4, 18360, Note_on_c, 0, 53, 88
4, 18480, Note_on_c, 0, 53, 0
4, 18480, Note_on_c, 0, 58, 88
4, 18600, Note_on_c, 0, 58, 0
4, 18600, Note_on_c, 0, 56, 88
4, 18720, Note_on_c, 0, 56, 0
4, 18720, Note_on_c, 0, 55, 88
4, 18840, Note_on_c, 0, 55, 0
4, 18840, Note_on_c, 0, 58, 88
4, 18960, Note_on_c, 0, 58, 0
4, 18960, Note_on_c, 0, 56, 88
4, 19080, Note_on_c, 0, 56, 0
4, 19080, Note_on_c, 0, 55, 88
4, 19200, Note_on_c, 0, 55, 0
4, 19200, Note_on_c, 0, 60, 88
4, 19320, Note_on_c, 0, 60, 0
4, 19320, Note_on_c, 0, 58, 88
4, 19440, Note_on_c, 0, 58, 0
4, 19440, Note_on_c, 0, 57, 88
4, 19560, Note_on_c, 0, 57, 0
4, 19560, Note_on_c, 0, 60, 88
4, 19680, Note_on_c, 0, 60, 0
4, 19680, Note_on_c, 0, 58, 88
4, 19800, Note_on_c, 0, 58, 0
4, 19800, Note_on_c, 0, 57, 88
4, 19920, Note_on_c, 0, 57, 0
4, 19920, Note_on_c, 0, 61, 88
4, 20040, Note_on_c, 0, 61, 0
4, 20040, Note_on_c, 0, 60, 88
4, 20160, Note_on_c, 0, 60, 0
4, 20160, Note_on_c, 0, 58, 88
4, 20280, Note_on_c, 0, 58, 0
4, 20280, Note_on_c, 0, 61, 88
4, 20400, Note_on_c, 0, 61, 0
4, 20400, Note_on_c, 0, 60, 88
4, 20520, Note_on_c, 0, 60, 0
4, 20520, Note_on_c, 0, 58, 88
4, 20640, Note_on_c, 0, 58, 0
4, 20640, Control_c, 0, 64, 0
4, 20640, Note_on_c, 0, 65, 88
4, 20687, Note_on_c, 0, 65, 0
4, 20880, Note_on_c, 0, 53, 88
4, 21000, Note_on_c, 0, 53, 0
4, 21000, Note_on_c, 0, 55, 88
4, 21120, Note_on_c, 0, 55, 0
4, 21120, Note_on_c, 0, 56, 88
4, 21240, Note_on_c, 0, 56, 0
4, 21240, Note_on_c, 0, 58, 88
4, 21360, Note_on_c, 0, 58, 0
4, 22560, Note_on_c, 0, 60, 75
4, 22800, Note_on_c, 0, 60, 0
4, 22800, Note_on_c, 0, 59, 75
4, 23280, Note_on_c, 0, 59, 0
4, 23280, Note_on_c, 0, 62, 75
4, 23520, Note_on_c, 0, 62, 0
4, 23520, Control_c, 0, 64, 127
4, 23520, Note_on_c, 0, 56, 75
4, 23640, Note_on_c, 0, 56, 0
4, 23640, Note_on_c, 0, 55, 75
4, 23760, Note_on_c, 0, 55, 0
4, 23760, Note_on_c, 0, 53, 75
4, 23880, Note_on_c, 0, 53, 0
4, 23880, Note_on_c, 0, 51, 75
4, 24000, Note_on_c, 0, 51, 0
4, 24000, Note_on_c, 0, 50, 75
4, 24120, Note_on_c, 0, 50, 0
4, 24120, Note_on_c, 0, 48, 75
4, 24240, Note_on_c, 0, 48, 0
4, 24240, Note_on_c, 0, 47, 75
4, 24360, Note_on_c, 0, 47, 0
4, 24360, Note_on_c, 0, 50, 75
4, 24480, Note_on_c, 0, 50, 0
4, 24480, Note_on_c, 0, 53, 75
4, 24600, Note_on_c, 0, 53, 0
4, 24600, Note_on_c, 0, 56, 75
4, 24720, Note_on_c, 0, 56, 0
4, 24720, Note_on_c, 0, 55, 75
4, 24840, Note_on_c, 0, 55, 0
4, 24840, Control_c, 0, 64, 0
4, 24840, Note_on_c, 0, 53, 75
4, 24960, Note_on_c, 0, 53, 0
4, 24960, Control_c, 0, 64, 127
4, 24960, Note_on_c, 0, 51, 75
4, 25080, Note_on_c, 0, 51, 0
4, 25080, Note_on_c, 0, 50, 75
4, 25200, Note_on_c, 0, 50, 0
4, 25200, Note_on_c, 0, 48, 75
4, 25320, Note_on_c, 0, 48, 0
4, 25320, Note_on_c, 0, 51, 75
4, 25440, Note_on_c, 0, 51, 0
4, 25440, Note_on_c, 0, 50, 75
4, 25560, Note_on_c, 0, 50, 0
4, 25560, Note_on_c, 0, 48, 75
4, 25680, Note_on_c, 0, 48, 0
4, 25680, Note_on_c, 0, 53, 75
4, 25800, Note_on_c, 0, 53, 0
4, 25800, Note_on_c, 0, 51, 75
4, 25920, Note_on_c, 0, 51, 0
4, 25920, Note_on_c, 0, 50, 75
4, 26040, Note_on_c, 0, 50, 0
4, 26040, Note_on_c, 0, 53, 75
4, 26160, Note_on_c, 0, 53, 0
4, 26160, Note_on_c, 0, 51, 75
4, 26280, Note_on_c, 0, 51, 0
4, 26280, Note_on_c, 0, 50, 75
4, 26400, Note_on_c, 0, 50, 0
4, 26400, Note_on_c, 0, 55, 75
4, 26520, Note_on_c, 0, 55, 0
4, 26520, Note_on_c, 0, 53, 75
4, 26640, Note_on_c, 0, 53, 0
4, 26640, Note_on_c, 0, 52, 75
4, 26760, Note_on_c, 0, 52, 0
4, 26760, Note_on_c, 0, 55, 75
4, 26880, Note_on_c, 0, 55, 0
4, 26880, Note_on_c, 0, 53, 75
4, 27000, Note_on_c, 0, 53, 0
4, 27000, Note_on_c, 0, 52, 75
4, 27120, Note_on_c, 0, 52, 0
4, 27120, Note_on_c, 0, 56, 75
4, 27240, Note_on_c, 0, 56, 0
4, 27240, Note_on_c, 0, 55, 75
4, 27360, Note_on_c, 0, 55, 0
4, 27360, Note_on_c, 0, 53, 75
4, 27480, Note_on_c, 0, 53, 0
4, 27480, Note_on_c, 0, 56, 75
4, 27600, Note_on_c, 0, 56, 0
4, 27600, Note_on_c, 0, 55, 75
4, 27720, Note_on_c, 0, 55, 0
4, 27720, Control_c, 0, 64, 0
4, 27720, Note_on_c, 0, 53, 75
4, 27840, Note_on_c, 0, 53, 0
4, 27840, Control_c, 0, 64, 127
4, 27840, Note_on_c, 0, 58, 75
4, 27960, Note_on_c, 0, 58, 0
4, 27960, Note_on_c, 0, 60, 75
4, 28080, Note_on_c, 0, 60, 0
4, 28080, Note_on_c, 0, 61, 75
4, 28200, Note_on_c, 0, 61, 0
4, 28200, Note_on_c, 0, 60, 75
4, 28320, Note_on_c, 0, 60, 0
4, 28320, Note_on_c, 0, 58, 75
4, 28440, Note_on_c, 0, 58, 0
4, 28440, Note_on_c, 0, 56, 75
4, 28560, Note_on_c, 0, 56, 0
4, 28560, Note_on_c, 0, 55, 75
4, 28680, Note_on_c, 0, 55, 0
4, 28680, Note_on_c, 0, 56, 75
4, 28800, Note_on_c, 0, 56, 0
4, 28800, Note_on_c, 0, 58, 75
4, 28920, Note_on_c, 0, 58, 0
4, 28920, Note_on_c, 0, 56, 75
4, 29040, Note_on_c, 0, 56, 0
4, 29040, Note_on_c, 0, 55, 75
4, 29160, Note_on_c, 0, 55, 0
4, 29160, Control_c, 0, 64, 0
4, 29160, Note_on_c, 0, 53, 75
4, 29280, Note_on_c, 0, 53, 0
4, 29280, Control_c, 0, 64, 127
4, 29280, Note_on_c, 0, 51, 75
4, 29400, Note_on_c, 0, 51, 0
4, 29400, Note_on_c, 0, 53, 75
4, 29520, Note_on_c, 0, 53, 0
4, 29520, Note_on_c, 0, 55, 75
4, 29640, Note_on_c, 0, 55, 0
4, 29640, Note_on_c, 0, 53, 75
4, 29760, Note_on_c, 0, 53, 0
4, 29760, Note_on_c, 0, 51, 75
4, 29880, Note_on_c, 0, 51, 0
4, 29880, Note_on_c, 0, 49, 75
4, 30000, Note_on_c, 0, 49, 0
4, 30000, Note_on_c, 0, 48, 75
4, 30120, Note_on_c, 0, 48, 0
4, 30120, Note_on_c, 0, 46, 75
4, 30240, Note_on_c, 0, 46, 0
4, 30240, Note_on_c, 0, 44, 75
4, 30360, Note_on_c, 0, 44, 0
4, 30360, Note_on_c, 0, 43, 75
4, 30480, Note_on_c, 0, 43, 0
4, 30480, Note_on_c, 0, 41, 75
4, 30600, Note_on_c, 0, 41, 0
4, 30600, Note_on_c, 0, 39, 75
4, 30720, Note_on_c, 0, 39, 0
4, 30720, Control_c, 0, 64, 0
4, 30720, Note_on_c, 0, 37, 75
4, 31200, Note_on_c, 0, 37, 0
4, 31200, Note_on_c, 0, 58, 75
4, 31200, Note_on_c, 0, 61, 75
4, 31680, Note_on_c, 0, 61, 0
4, 31680, Note_on_c, 0, 58, 0
4, 31680, Note_on_c, 0, 56, 75
4, 31680, Note_on_c, 0, 60, 75
4, 31920, Note_on_c, 0, 60, 0
4, 31920, Note_on_c, 0, 56, 0
4, 31920, Note_on_c, 0, 55, 75
4, 31920, Note_on_c, 0, 58, 75
4, 32160, Note_on_c, 0, 58, 0
4, 32160, Note_on_c, 0, 55, 0
4, 32160, Note_on_c, 0, 57, 75
4, 32280, Note_on_c, 0, 57, 0
4, 32280, Note_on_c, 0, 58, 75
4, 32400, Note_on_c, 0, 58, 0
4, 32400, Note_on_c, 0, 60, 75
4, 32520, Note_on_c, 0, 60, 0
4, 32520, Note_on_c, 0, 57, 75
4, 32640, Note_on_c, 0, 57, 0
4, 32640, Note_on_c, 0, 58, 75
4, 32760, Note_on_c, 0, 58, 0
4, 32760, Note_on_c, 0, 60, 75
4, 32880, Note_on_c, 0, 60, 0
4, 32880, Note_on_c, 0, 53, 75
4, 33000, Note_on_c, 0, 53, 0
4, 33000, Note_on_c, 0, 58, 75
4, 33120, Note_on_c, 0, 58, 0
4, 33120, Note_on_c, 0, 61, 75
4, 33240, Note_on_c, 0, 61, 0
4, 33240, Note_on_c, 0, 53, 75
4, 33360, Note_on_c, 0, 53, 0
4, 33360, Note_on_c, 0, 58, 75
4, 33480, Note_on_c, 0, 58, 0
4, 33480, Note_on_c, 0, 61, 75
4, 33600, Note_on_c, 0, 61, 0
4, 33600, Note_on_c, 0, 48, 88
4, 33600, Note_on_c, 0, 51, 88
4, 33840, Note_on_c, 0, 51, 0
4, 33840, Note_on_c, 0, 48, 0
4, 33840, Note_on_c, 0, 49, 88
4, 33840, Note_on_c, 0, 53, 88
4, 34080, Note_on_c, 0, 53, 0
4, 34080, Note_on_c, 0, 49, 0
4, 34080, Note_on_c, 0, 51, 88
4, 34080, Note_on_c, 0, 54, 88
4, 34320, Note_on_c, 0, 54, 0
4, 34320, Note_on_c, 0, 51, 0
4, 34320, Note_on_c, 0, 53, 88
4, 34560, Note_on_c, 0, 53, 0
4, 34800, Note_on_c, 0, 46, 88
4, 35040, Note_on_c, 0, 46, 0
4, 35040, Note_on_c, 0, 58, 88
4, 35280, Note_on_c, 0, 58, 0
4, 35280, Note_on_c, 0, 58, 88
4, 35327, Note_on_c, 0, 58, 0
4, 35520, Note_on_c, 0, 58, 88
4, 35567, Note_on_c, 0, 58, 0
4, 35760, Note_on_c, 0, 58, 88
4, 35807, Note_on_c, 0, 58, 0
4, 36000, Note_on_c, 0, 58, 88
4, 36047, Note_on_c, 0, 58, 0
4, 36240, Note_on_c, 0, 58, 88
4, 36287, Note_on_c, 0, 58, 0
4, 36480, Control_c, 0, 64, 127
4, 36480, Note_on_c, 0, 61, 88
4, 36600, Note_on_c, 0, 61, 0
4, 36600, Note_on_c, 0, 60, 88
4, 36720, Note_on_c, 0, 60, 0
4, 36720, Note_on_c, 0, 58, 88
4, 36840, Note_on_c, 0, 58, 0
4, 36840, Note_on_c, 0, 56, 88
4, 36960, Note_on_c, 0, 56, 0
4, 36960, Note_on_c, 0, 55, 88
4, 37080, Note_on_c, 0, 55, 0
4, 37080, Note_on_c, 0, 53, 88
4, 37200, Note_on_c, 0, 53, 0
4, 37200, Note_on_c, 0, 51, 88
4, 37320, Note_on_c, 0, 51, 0
4, 37320, Note_on_c, 0, 55, 88
4, 37440, Note_on_c, 0, 55, 0
4, 37440, Note_on_c, 0, 58, 88
4, 37560, Note_on_c, 0, 58, 0
4, 37560, Note_on_c, 0, 61, 88
4, 37680, Note_on_c, 0, 61, 0
4, 37680, Note_on_c, 0, 60, 88
4, 37800, Note_on_c, 0, 60, 0
4, 37800, Control_c, 0, 64, 0
4, 37800, Note_on_c, 0, 58, 88
4, 37920, Note_on_c, 0, 58, 0
4, 37920, Control_c, 0, 64, 127
4, 37920, Note_on_c, 0, 56, 88
4, 38040, Note_on_c, 0, 56, 0
4, 38040, Note_on_c, 0, 55, 88
4, 38160, Note_on_c, 0, 55, 0
4, 38160, Note_on_c, 0, 53, 62
4, 38280, Note_on_c, 0, 53, 0
4, 38280, Note_on_c, 0, 56, 62
4, 38400, Note_on_c, 0, 56, 0
4, 38400, Note_on_c, 0, 55, 62
4, 38520, Note_on_c, 0, 55, 0
4, 38520, Note_on_c, 0, 53, 62
4, 38640, Note_on_c, 0, 53, 0
4, 38640, Note_on_c, 0, 58, 62
4, 38760, Note_on_c, 0, 58, 0
4, 38760, Note_on_c, 0, 56, 62
4, 38880, Note_on_c, 0, 56, 0
4, 38880, Note_on_c, 0, 55, 62
4, 39000, Note_on_c, 0, 55, 0
4, 39000, Note_on_c, 0, 58, 62
4, 39120, Note_on_c, 0, 58, 0
4, 39120, Note_on_c, 0, 56, 75
4, 39240, Note_on_c, 0, 56, 0
4, 39240, Note_on_c, 0, 55, 75
4, 39360, Note_on_c, 0, 55, 0
4, 39360, Note_on_c, 0, 60, 75
4, 39480, Note_on_c, 0, 60, 0
4, 39480, Note_on_c, 0, 58, 75
4, 39600, Note_on_c, 0, 58, 0
4, 39600, Note_on_c, 0, 56, 75
4, 39720, Note_on_c, 0, 56, 0
4, 39720, Note_on_c, 0, 60, 75
4, 39840, Note_on_c, 0, 60, 0
4, 39840, Note_on_c, 0, 58, 75
4, 39960, Note_on_c, 0, 58, 0
4, 39960, Note_on_c, 0, 56, 75
4, 40080, Note_on_c, 0, 56, 0
4, 40080, Note_on_c, 0, 61, 75
4, 40200, Note_on_c, 0, 61, 0
4, 40200, Note_on_c, 0, 60, 75
4, 40320, Note_on_c, 0, 60, 0
4, 40320, Note_on_c, 0, 58, 75
4, 40440, Note_on_c, 0, 58, 0
4, 40440, Note_on_c, 0, 61, 75
4, 40560, Note_on_c, 0, 61, 0
4, 40560, Note_on_c, 0, 60, 75
4, 40680, Note_on_c, 0, 60, 0
4, 40680, Control_c, 0, 64, 0
4, 40680, Note_on_c, 0, 58, 75
4, 40800, Note_on_c, 0, 58, 0
4, 40800, Control_c, 0, 64, 127
4, 40800, Note_on_c, 0, 62, 75
4, 40920, Note_on_c, 0, 62, 0
4, 40920, Note_on_c, 0, 60, 75
4, 41040, Note_on_c, 0, 60, 0
4, 41040, Note_on_c, 0, 58, 75
4, 41160, Note_on_c, 0, 58, 0
4, 41160, Note_on_c, 0, 62, 75
4, 41280, Note_on_c, 0, 62, 0
4, 41280, Note_on_c, 0, 60, 75
4, 41400, Note_on_c, 0, 60, 0
4, 41400, Note_on_c, 0, 58, 75
4, 41520, Note_on_c, 0, 58, 0
4, 41520, Note_on_c, 0, 67, 75
4, 41640, Note_on_c, 0, 67, 0
4, 41640, Note_on_c, 0, 65, 75
4, 41760, Note_on_c, 0, 65, 0
4, 41760, Note_on_c, 0, 63, 75
4, 41880, Note_on_c, 0, 63, 0
4, 41880, Note_on_c, 0, 67, 75
4, 42000, Note_on_c, 0, 67, 0
4, 42000, Note_on_c, 0, 65, 75
4, 42120, Note_on_c, 0, 65, 0
4, 42120, Note_on_c, 0, 63, 75
4, 42240, Note_on_c, 0, 63, 0
4, 42240, Note_on_c, 0, 68, 75
4, 42360, Note_on_c, 0, 68, 0
4, 42360, Note_on_c, 0, 67, 75
4, 42480, Note_on_c, 0, 67, 0
4, 42480, Note_on_c, 0, 65, 75
4, 42600, Note_on_c, 0, 65, 0
4, 42600, Note_on_c, 0, 68, 75
4, 42720, Note_on_c, 0, 68, 0
4, 42720, Note_on_c, 0, 67, 75
4, 42840, Note_on_c, 0, 67, 0
4, 42840, Note_on_c, 0, 65, 75
4, 42960, Note_on_c, 0, 65, 0
4, 42960, Note_on_c, 0, 70, 75
4, 43080, Note_on_c, 0, 70, 0
4, 43080, Note_on_c, 0, 68, 75
4, 43200, Note_on_c, 0, 68, 0
4, 43200, Note_on_c, 0, 67, 75
4, 43320, Note_on_c, 0, 67, 0
4, 43320, Note_on_c, 0, 70, 75
4, 43440, Note_on_c, 0, 70, 0
4, 43440, Note_on_c, 0, 68, 75
4, 43560, Note_on_c, 0, 68, 0
4, 43560, Control_c, 0, 64, 0
4, 43560, Note_on_c, 0, 67, 75
4, 43680, Note_on_c, 0, 67, 0
4, 44880, Note_on_c, 0, 44, 88
4, 44880, Note_on_c, 0, 56, 88
4, 45120, Note_on_c, 0, 56, 0
4, 45120, Note_on_c, 0, 44, 0
4, 45120, Note_on_c, 0, 49, 88
4, 45120, Note_on_c, 0, 61, 88
4, 45360, Note_on_c, 0, 61, 0
4, 45360, Note_on_c, 0, 49, 0
4, 45360, Note_on_c, 0, 49, 88
4, 45360, Note_on_c, 0, 61, 88
4, 45600, Note_on_c, 0, 61, 0
4, 45600, Note_on_c, 0, 49, 0
4, 45600, Note_on_c, 0, 49, 88
4, 45600, Note_on_c, 0, 61, 88
4, 45840, Note_on_c, 0, 61, 0
4, 45840, Note_on_c, 0, 49, 0
4, 45840, Note_on_c, 0, 49, 88
4, 45840, Note_on_c, 0, 61, 88
4, 46080, Note_on_c, 0, 61, 0
4, 46080, Note_on_c, 0, 49, 0
4, 46080, Note_on_c, 0, 49, 88
4, 46080, Note_on_c, 0, 61, 88
4, 46320, Note_on_c, 0, 61, 0
4, 46320, Note_on_c, 0, 49, 0
4, 46320, Note_on_c, 0, 49, 88
4, 46320, Note_on_c, 0, 61, 88
4, 46560, Note_on_c, 0, 61, 0
4, 46560, Note_on_c, 0, 49, 0
4, 46560, Control_c, 0, 64, 127
4, 46560, Note_on_c, 0, 51, 88
4, 46560, Note_on_c, 0, 61, 88
4, 46680, Note_on_c, 0, 61, 0
4, 46680, Note_on_c, 0, 51, 0
4, 46680, Note_on_c, 0, 60, 88
4, 46800, Note_on_c, 0, 60, 0
4, 46800, Note_on_c, 0, 58, 88
4, 46920, Note_on_c, 0, 58, 0
4, 46920, Note_on_c, 0, 61, 88
4, 47040, Note_on_c, 0, 61, 0
4, 47040, Note_on_c, 0, 60, 88
4, 47160, Note_on_c, 0, 60, 0
4, 47160, Control_c, 0, 64, 0
4, 47160, Note_on_c, 0, 58, 88
4, 47280, Note_on_c, 0, 58, 0
4, 47280, Control_c, 0, 64, 127
4, 47280, Note_on_c, 0, 58, 88
4, 47400, Note_on_c, 0, 58, 0
4, 47400, Note_on_c, 0, 56, 88
4, 47520, Note_on_c, 0, 56, 0
4, 47520, Note_on_c, 0, 55, 88
4, 47640, Note_on_c, 0, 55, 0
4, 47640, Note_on_c, 0, 58, 88
4, 47760, Note_on_c, 0, 58, 0
4, 47760, Note_on_c, 0, 56, 88
4, 47880, Note_on_c, 0, 56, 0
4, 47880, Control_c, 0, 64, 0
4, 47880, Note_on_c, 0, 55, 88
4, 48000, Note_on_c, 0, 55, 0
4, 48000, Note_on_c, 0, 53, 88
4, 48000, Note_on_c, 0, 56, 88
4, 48000, Note_on_c, 0, 65, 88
4, 48240, Note_on_c, 0, 65, 0
4, 48240, Note_on_c, 0, 56, 0
4, 48240, Note_on_c, 0, 53, 0
4, 48240, Note_on_c, 0, 53, 88
4, 48240, Note_on_c, 0, 56, 88
4, 48240, Note_on_c, 0, 65, 88
4, 48480, Note_on_c, 0, 65, 0
4, 48480, Note_on_c, 0, 56, 0
4, 48480, Note_on_c, 0, 53, 0
4, 48480, Note_on_c, 0, 53, 88
4, 48480, Note_on_c, 0, 56, 88
4, 48480, Note_on_c, 0, 65, 88
4, 48720, Note_on_c, 0, 65, 0
4, 48720, Note_on_c, 0, 56, 0
4, 48720, Note_on_c, 0, 53, 0
4, 48720, Note_on_c, 0, 53, 88
4, 48720, Note_on_c, 0, 56, 88
4, 48720, Note_on_c, 0, 65, 88
4, 48960, Note_on_c, 0, 65, 0
4, 48960, Note_on_c, 0, 56, 0
4, 48960, Note_on_c, 0, 53, 0
4, 48960, Note_on_c, 0, 53, 88
4, 48960, Note_on_c, 0, 56, 88
4, 48960, Note_on_c, 0, 65, 88
4, 49200, Note_on_c, 0, 65, 0
4, 49200, Note_on_c, 0, 56, 0
4, 49200, Note_on_c, 0, 53, 0
4, 49200, Note_on_c, 0, 53, 88
4, 49200, Note_on_c, 0, 56, 88
4, 49200, Note_on_c, 0, 65, 88
4, 49440, Note_on_c, 0, 65, 0
4, 49440, Note_on_c, 0, 56, 0
4, 49440, Note_on_c, 0, 53, 0
4, 49440, Control_c, 0, 64, 127
4, 49440, Note_on_c, 0, 55, 88
4, 49440, Note_on_c, 0, 65, 88
4, 49560, Note_on_c, 0, 65, 0
4, 49560, Note_on_c, 0, 55, 0
4, 49560, Note_on_c, 0, 63, 88
4, 49680, Note_on_c, 0, 63, 0
4, 49680, Note_on_c, 0, 61, 88
4, 49800, Note_on_c, 0, 61, 0
4, 49800, Note_on_c, 0, 65, 88
4, 49920, Note_on_c, 0, 65, 0
4, 49920, Note_on_c, 0, 63, 88
4, 50040, Note_on_c, 0, 63, 0
4, 50040, Control_c, 0, 64, 0
4, 50040, Note_on_c, 0, 61, 88
4, 50160, Note_on_c, 0, 61, 0
4, 50160, Control_c, 0, 64, 127
4, 50160, Note_on_c, 0, 61, 88
4, 50280, Note_on_c, 0, 61, 0
4, 50280, Note_on_c, 0, 60, 88
4, 50400, Note_on_c, 0, 60, 0
4, 50400, Note_on_c, 0, 58, 88
4, 50520, Note_on_c, 0, 58, 0
4, 50520, Note_on_c, 0, 61, 88
4, 50640, Note_on_c, 0, 61, 0
4, 50640, Note_on_c, 0, 60, 88
4, 50760, Note_on_c, 0, 60, 0
4, 50760, Control_c, 0, 64, 0
4, 50760, Note_on_c, 0, 58, 88
4, 50880, Note_on_c, 0, 58, 0
4, 50880, Note_on_c, 0, 56, 88
4, 50927, Note_on_c, 0, 56, 0
4, 51120, Note_on_c, 0, 53, 88
4, 51120, Note_on_c, 0, 56, 88
4, 51167, Note_on_c, 0, 56, 0
4, 51167, Note_on_c, 0, 53, 0
4, 51360, Note_on_c, 0, 53, 88
4, 51360, Note_on_c, 0, 56, 88
4, 51407, Note_on_c, 0, 56, 0
4, 51407, Note_on_c, 0, 53, 0
4, 51600, Note_on_c, 0, 53, 88
4, 51600, Note_on_c, 0, 56, 88
4, 51840, Note_on_c, 0, 56, 0
4, 51840, Note_on_c, 0, 53, 0
4, 51840, Note_on_c, 0, 51, 88
4, 51840, Note_on_c, 0, 55, 88
4, 52080, Note_on_c, 0, 55, 0
4, 52080, Note_on_c, 0, 51, 0
4, 52080, Note_on_c, 0, 50, 88
4, 52080, Note_on_c, 0, 53, 88
4, 52320, Note_on_c, 0, 53, 0
4, 52320, Note_on_c, 0, 50, 0
4, 52320, Note_on_c, 0, 51, 75
4, 52560, Note_on_c, 0, 51, 0
4, 52560, Note_on_c, 0, 63, 75
4, 52607, Note_on_c, 0, 63, 0
4, 52800, Note_on_c, 0, 63, 75
4, 52847, Note_on_c, 0, 63, 0
4, 53040, Note_on_c, 0, 63, 75
4, 53280, Note_on_c, 0, 63, 0
4, 53280, Note_on_c, 0, 62, 75
4, 53520, Note_on_c, 0, 62, 0
4, 53520, Note_on_c, 0, 62, 75
4, 53567, Note_on_c, 0, 62, 0
4, 54000, Note_on_c, 0, 61, 75
4, 54047, Note_on_c, 0, 61, 0
4, 54240, Note_on_c, 0, 61, 75
4, 54287, Note_on_c, 0, 61, 0
4, 54480, Note_on_c, 0, 61, 75
4, 54720, Note_on_c, 0, 61, 0
4, 54720, Note_on_c, 0, 60, 75
4, 54960, Note_on_c, 0, 60, 0
4, 54960, Note_on_c, 0, 60, 75
4, 55007, Note_on_c, 0, 60, 0
4, 55200, Control_c, 0, 64, 127
4, 55200, Note_on_c, 0, 58, 88
4, 55320, Note_on_c, 0, 58, 0
4, 55320, Note_on_c, 0, 60, 88
4, 55440, Note_on_c, 0, 60, 0
4, 55440, Note_on_c, 0, 61, 88
4, 55560, Note_on_c, 0, 61, 0
4, 55560, Note_on_c, 0, 58, 88
4, 55680, Note_on_c, 0, 58, 0
4, 55680, Note_on_c, 0, 60, 88
4, 55800, Note_on_c, 0, 60, 0
4, 55800, Note_on_c, 0, 61, 88
4, 55920, Note_on_c, 0, 61, 0
4, 55920, Note_on_c, 0, 56, 88
4, 56040, Note_on_c, 0, 56, 0
4, 56040, Note_on_c, 0, 58, 88
4, 56160, Note_on_c, 0, 58, 0
4, 56160, Note_on_c, 0, 59, 88
4, 56280, Note_on_c, 0, 59, 0
4, 56280, Note_on_c, 0, 56, 88
4, 56400, Note_on_c, 0, 56, 0
4, 56400, Note_on_c, 0, 58, 88
4, 56520, Note_on_c, 0, 58, 0
4, 56520, Control_c, 0, 64, 0
4, 56520, Note_on_c, 0, 59, 88
4, 56640, Note_on_c, 0, 59, 0
4, 56640, Control_c, 0, 64, 127
4, 56640, Note_on_c, 0, 55, 88
4, 56760, Note_on_c, 0, 55, 0
4, 56760, Note_on_c, 0, 56, 88
4, 56880, Note_on_c, 0, 56, 0
4, 56880, Note_on_c, 0, 58, 88
4, 57000, Note_on_c, 0, 58, 0
4, 57000, Note_on_c, 0, 55, 88
4, 57120, Note_on_c, 0, 55, 0
4, 57120, Note_on_c, 0, 56, 88
4, 57240, Note_on_c, 0, 56, 0
4, 57240, Note_on_c, 0, 58, 88
4, 57360, Note_on_c, 0, 58, 0
4, 57360, Note_on_c, 0, 56, 88
4, 57480, Note_on_c, 0, 56, 0
4, 57480, Note_on_c, 0, 58, 88
4, 57600, Note_on_c, 0, 58, 0
4, 57600, Note_on_c, 0, 59, 88
4, 57720, Note_on_c, 0, 59, 0
4, 57720, Note_on_c, 0, 56, 88
4, 57840, Note_on_c, 0, 56, 0
4, 57840, Note_on_c, 0, 58, 88
4, 57960, Note_on_c, 0, 58, 0
4, 57960, Note_on_c, 0, 59, 88
4, 58080, Note_on_c, 0, 59, 0
4, 58080, Control_c, 0, 64, 0
4, 58080, Note_on_c, 0, 51, 88
4, 58800, Note_on_c, 0, 51, 0
4, 58800, Note_on_c, 0, 39, 88
4, 59280, Note_on_c, 0, 39, 0
4, 59280, Note_on_c, 0, 51, 88
4, 59520, Note_on_c, 0, 51, 0
4, 59520, Note_on_c, 0, 60, 62
4, 59760, Note_on_c, 0, 60, 0
4, 59760, Note_on_c, 0, 60, 62
4, 59807, Note_on_c, 0, 60, 0
4, 60000, Note_on_c, 0, 60, 62
4, 60047, Note_on_c, 0, 60, 0
4, 60240, Note_on_c, 0, 60, 62
4, 60287, Note_on_c, 0, 60, 0
4, 60480, Note_on_c, 0, 60, 62
4, 60527, Note_on_c, 0, 60, 0
4, 60720, Note_on_c, 0, 60, 62
4, 60767, Note_on_c, 0, 60, 0
4, 60960, Note_on_c, 0, 61, 88
4, 61920, Note_on_c, 0, 61, 0
4, 61920, Control_c, 0, 64, 127
4, 61920, Note_on_c, 0, 55, 75
4, 62040, Note_on_c, 0, 55, 0
4, 62040, Note_on_c, 0, 56, 75
4, 62160, Note_on_c, 0, 56, 0
4, 62160, Note_on_c, 0, 58, 75
4, 62280, Note_on_c, 0, 58, 0
4, 62280, Note_on_c, 0, 60, 75
4, 62400, Note_on_c, 0, 60, 0
4, 62400, Control_c, 0, 64, 0
4, 62400, Note_on_c, 0, 61, 101
4, 63360, Note_on_c, 0, 61, 0
4, 63360, Control_c, 0, 64, 127
4, 63360, Note_on_c, 0, 55, 75
4, 63480, Note_on_c, 0, 55, 0
4, 63480, Note_on_c, 0, 56, 75
4, 63600, Note_on_c, 0, 56, 0
4, 63600, Note_on_c, 0, 58, 75
4, 63720, Note_on_c, 0, 58, 0
4, 63720, Note_on_c, 0, 60, 75
4, 63840, Note_on_c, 0, 60, 0
4, 63840, Control_c, 0, 64, 0
4, 63840, Note_on_c, 0, 61, 101
4, 64560, Note_on_c, 0, 61, 0
4, 64560, Note_on_c, 0, 60, 75
4, 65040, Note_on_c, 0, 60, 0
4, 65040, Note_on_c, 0, 58, 75
4, 65280, Note_on_c, 0, 58, 0
4, 65280, Note_on_c, 0, 57, 75
4, 65760, Note_on_c, 0, 57, 0
4, 65760, Note_on_c, 0, 57, 75
4, 66000, Note_on_c, 0, 57, 0
4, 66000, Note_on_c, 0, 58, 75
4, 66240, Note_on_c, 0, 58, 0
4, 66240, Note_on_c, 0, 60, 75
4, 66480, Note_on_c, 0, 60, 0
4, 66480, Note_on_c, 0, 61, 75
4, 66720, Note_on_c, 0, 61, 0
4, 66720, Note_on_c, 0, 63, 75
4, 66960, Note_on_c, 0, 63, 0
4, 66960, Note_on_c, 0, 63, 75
4, 67080, Note_on_c, 0, 63, 0
4, 67080, Note_on_c, 0, 61, 75
4, 67200, Note_on_c, 0, 61, 0
4, 67200, Note_on_c, 0, 60, 75
4, 67320, Note_on_c, 0, 60, 0
4, 67320, Note_on_c, 0, 58, 75
4, 67440, Note_on_c, 0, 58, 0
4, 67440, Note_on_c, 0, 57, 75
4, 68400, Note_on_c, 0, 57, 0
4, 68400, Note_on_c, 0, 63, 75
4, 68520, Note_on_c, 0, 63, 0
4, 68520, Note_on_c, 0, 61, 75
4, 68640, Note_on_c, 0, 61, 0
4, 68640, Note_on_c, 0, 60, 75
4, 68760, Note_on_c, 0, 60, 0
4, 68760, Note_on_c, 0, 58, 75
4, 68880, Note_on_c, 0, 58, 0
4, 68880, Note_on_c, 0, 57, 75
4, 69360, Note_on_c, 0, 57, 0
4, 69360, Note_on_c, 0, 57, 75
4, 69600, Note_on_c, 0, 57, 0
4, 70800, Note_on_c, 0, 41, 75
4, 71040, Note_on_c, 0, 41, 0
4, 71040, Note_on_c, 0, 46, 75
4, 71280, Note_on_c, 0, 46, 0
4, 71280, Note_on_c, 0, 46, 75
4, 71327, Note_on_c, 0, 46, 0
4, 71520, Note_on_c, 0, 46, 75
4, 71567, Note_on_c, 0, 46, 0
4, 71760, Note_on_c, 0, 46, 75
4, 71807, Note_on_c, 0, 46, 0
4, 72000, Note_on_c, 0, 46, 75
4, 72047, Note_on_c, 0, 46, 0
4, 72240, Note_on_c, 0, 46, 75
4, 72287, Note_on_c, 0, 46, 0
4, 72720, Note_on_c, 0, 50, 62
4, 72840, Note_on_c, 0, 50, 0
4, 72840, Note_on_c, 0, 51, 62
4, 72960, Note_on_c, 0, 51, 0
4, 72960, Note_on_c, 0, 53, 62
4, 73080, Note_on_c, 0, 53, 0
4, 73080, Note_on_c, 0, 55, 62
4, 73200, Note_on_c, 0, 55, 0
4, 73200, Note_on_c, 0, 56, 62
4, 73920, Note_on_c, 0, 56, 0
4, 74160, Note_on_c, 0, 50, 62
4, 74280, Note_on_c, 0, 50, 0
4, 74280, Note_on_c, 0, 51, 62
4, 74400, Note_on_c, 0, 51, 0
4, 74400, Note_on_c, 0, 53, 62
4, 74520, Note_on_c, 0, 53, 0
4, 74520, Note_on_c, 0, 55, 62
4, 74640, Note_on_c, 0, 55, 0
4, 74640, Note_on_c, 0, 56, 62
4, 75360, Note_on_c, 0, 56, 0
4, 75360, Note_on_c, 0, 47, 75
4, 75600, Note_on_c, 0, 47, 0
4, 75600, Note_on_c, 0, 48, 75
4, 75840, Note_on_c, 0, 48, 0
4, 75840, Note_on_c, 0, 50, 75
4, 76080, Note_on_c, 0, 50, 0
4, 76080, Note_on_c, 0, 43, 75
4, 76560, Note_on_c, 0, 43, 0
4, 76560, Note_on_c, 0, 53, 75
4, 76800, Note_on_c, 0, 53, 0
4, 78000, Note_on_c, 0, 48, 75
4, 78240, Note_on_c, 0, 48, 0
4, 78240, Note_on_c, 0, 60, 75
4, 78480, Note_on_c, 0, 60, 0
4, 78480, Note_on_c, 0, 60, 75
4, 78527, Note_on_c, 0, 60, 0
4, 78720, Note_on_c, 0, 60, 75
4, 78767, Note_on_c, 0, 60, 0
4, 78960, Note_on_c, 0, 60, 75
4, 79007, Note_on_c, 0, 60, 0
4, 79200, Note_on_c, 0, 60, 75
4, 79247, Note_on_c, 0, 60, 0
4, 79440, Note_on_c, 0, 60, 75
4, 79487, Note_on_c, 0, 60, 0
4, 79680, Note_on_c, 0, 60, 62
4, 80400, Note_on_c, 0, 60, 0
4, 80880, Note_on_c, 0, 48, 62
4, 81120, Note_on_c, 0, 48, 0
4, 81120, Note_on_c, 0, 60, 62
4, 81360, Note_on_c, 0, 60, 0
4, 81360, Note_on_c, 0, 60, 62
4, 81407, Note_on_c, 0, 60, 0
4, 81600, Note_on_c, 0, 60, 62
4, 81647, Note_on_c, 0, 60, 0
4, 81840, Note_on_c, 0, 60, 62
4, 81887, Note_on_c, 0, 60, 0
4, 82080, Note_on_c, 0, 60, 62
4, 82127, Note_on_c, 0, 60, 0
4, 82320, Note_on_c, 0, 60, 62
4, 82367, Note_on_c, 0, 60, 0
4, 82560, Note_on_c, 0, 60, 62
4, 83040, Note_on_c, 0, 60, 0
4, 83040, Note_on_c, 0, 62, 62
4, 83280, Note_on_c, 0, 62, 0
4, 83280, Note_on_c, 0, 63, 62
4, 83520, Note_on_c, 0, 63, 0
4, 83520, Note_on_c, 0, 62, 62
4, 83760, Note_on_c, 0, 62, 0
4, 83760, Note_on_c, 0, 60, 62
4, 84000, Note_on_c, 0, 60, 0
4, 84000, Note_on_c, 0, 59, 62
4, 84480, Note_on_c, 0, 59, 0
4, 84480, Note_on_c, 0, 62, 62
4, 84720, Note_on_c, 0, 62, 0
4, 84720, Note_on_c, 0, 67, 62
4, 86160, Note_on_c, 0, 67, 0
4, 86160, Note_on_c, 0, 67, 62
4, 86880, Note_on_c, 0, 67, 0
4, 86880, Note_on_c, 0, 60, 62
4, 88080, Note_on_c, 0, 60, 0
4, 88080, Note_on_c, 0, 60, 62
4, 88320, Note_on_c, 0, 60, 0
4, 88320, Note_on_c, 0, 55, 62
4, 88560, Note_on_c, 0, 55, 0
4, 88560, Note_on_c, 0, 60, 62
4, 88800, Note_on_c, 0, 60, 0
4, 88800, Note_on_c, 0, 63, 62
4, 89040, Note_on_c, 0, 63, 0
4, 89040, Note_on_c, 0, 67, 62
4, 89280, Note_on_c, 0, 67, 0
4, 89280, Note_on_c, 0, 66, 62
4, 89520, Note_on_c, 0, 66, 0
4, 89520, Note_on_c, 0, 67, 62
4, 89760, Note_on_c, 0, 67, 0
4, 89760, Note_on_c, 0, 62, 62
4, 91200, Control_c, 0, 64, 127
4, 91320, Note_on_c, 0, 62, 0
4, 91320, Note_on_c, 0, 60, 62
4, 91440, Note_on_c, 0, 60, 0
4, 91440, Note_on_c, 0, 59, 62
4, 91560, Note_on_c, 0, 59, 0
4, 91560, Note_on_c, 0, 62, 62
4, 91680, Note_on_c, 0, 62, 0
4, 91680, Note_on_c, 0, 60, 62
4, 91800, Note_on_c, 0, 60, 0
4, 91800, Note_on_c, 0, 59, 62
4, 91920, Note_on_c, 0, 59, 0
4, 91920, Note_on_c, 0, 63, 62
4, 92040, Note_on_c, 0, 63, 0
4, 92040, Note_on_c, 0, 62, 62
4, 92160, Note_on_c, 0, 62, 0
4, 92160, Note_on_c, 0, 60, 62
4, 92280, Note_on_c, 0, 60, 0
4, 92280, Note_on_c, 0, 63, 62
4, 92400, Note_on_c, 0, 63, 0
4, 92400, Note_on_c, 0, 62, 62
4, 92520, Note_on_c, 0, 62, 0
4, 92520, Note_on_c, 0, 60, 62
4, 92640, Note_on_c, 0, 60, 0
4, 92640, Note_on_c, 0, 65, 62
4, 92760, Note_on_c, 0, 65, 0
4, 92760, Note_on_c, 0, 63, 62
4, 92880, Note_on_c, 0, 63, 0
4, 92880, Note_on_c, 0, 62, 62
4, 93000, Note_on_c, 0, 62, 0
4, 93000, Note_on_c, 0, 65, 62
4, 93120, Note_on_c, 0, 65, 0
4, 93120, Note_on_c, 0, 63, 62
4, 93240, Note_on_c, 0, 63, 0
4, 93240, Note_on_c, 0, 62, 62
4, 93360, Note_on_c, 0, 62, 0
4, 93360, Control_c, 0, 64, 0
4, 93360, Note_on_c, 0, 67, 62
4, 94800, Control_c, 0, 64, 127
4, 94920, Note_on_c, 0, 67, 0
4, 94920, Note_on_c, 0, 65, 49
4, 95040, Note_on_c, 0, 65, 0
4, 95040, Note_on_c, 0, 63, 49
4, 95160, Note_on_c, 0, 63, 0
4, 95160, Note_on_c, 0, 67, 49
4, 95280, Note_on_c, 0, 67, 0
4, 95280, Note_on_c, 0, 65, 49
4, 95400, Note_on_c, 0, 65, 0
4, 95400, Note_on_c, 0, 63, 49
4, 95520, Note_on_c, 0, 63, 0
4, 95520, Control_c, 0, 64, 0
4, 95520, Note_on_c, 0, 68, 49
4, 96240, Control_c, 0, 64, 127
4, 96360, Note_on_c, 0, 68, 0
4, 96360, Note_on_c, 0, 70, 49
4, 96480, Note_on_c, 0, 70, 0
4, 96480, Note_on_c, 0, 72, 49
4, 96600, Note_on_c, 0, 72, 0
4, 96600, Note_on_c, 0, 68, 49
4, 96720, Note_on_c, 0, 68, 0
4, 96720, Note_on_c, 0, 70, 49
4, 96840, Note_on_c, 0, 70, 0
4, 96840, Note_on_c, 0, 72, 49
4, 96960, Note_on_c, 0, 72, 0
4, 96960, Control_c, 0, 64, 0
4, 96960, Note_on_c, 0, 64, 49
4, 97680, Control_c, 0, 64, 127
4, 97800, Note_on_c, 0, 64, 0
4, 97800, Note_on_c, 0, 62, 49
4, 97920, Note_on_c, 0, 62, 0
4, 97920, Note_on_c, 0, 60, 49
4, 98040, Note_on_c, 0, 60, 0
4, 98040, Note_on_c, 0, 64, 49
4, 98160, Note_on_c, 0, 64, 0
4, 98160, Note_on_c, 0, 62, 49
4, 98280, Note_on_c, 0, 62, 0
4, 98280, Note_on_c, 0, 60, 49
4, 98400, Note_on_c, 0, 60, 0
4, 98400, Control_c, 0, 64, 0
4, 98400, Note_on_c, 0, 65, 49
4, 99240, Note_on_c, 0, 65, 0
4, 99240, Control_c, 0, 64, 127
4, 99240, Note_on_c, 0, 67, 49
4, 99360, Note_on_c, 0, 67, 0
4, 99360, Note_on_c, 0, 68, 49
4, 99480, Note_on_c, 0, 68, 0
4, 99480, Note_on_c, 0, 65, 49
4, 99600, Note_on_c, 0, 65, 0
4, 99600, Note_on_c, 0, 67, 49
4, 99720, Note_on_c, 0, 67, 0
4, 99720, Note_on_c, 0, 68, 49
4, 99840, Note_on_c, 0, 68, 0
4, 99840, Note_on_c, 0, 67, 49
4, 99960, Note_on_c, 0, 67, 0
4, 99960, Note_on_c, 0, 69, 49
4, 100080, Note_on_c, 0, 69, 0
4, 100080, Note_on_c, 0, 71, 49
4, 100200, Note_on_c, 0, 71, 0
4, 100200, Note_on_c, 0, 67, 49
4, 100320, Note_on_c, 0, 67, 0
4, 100320, Note_on_c, 0, 69, 49
4, 100440, Note_on_c, 0, 69, 0
4, 100440, Note_on_c, 0, 71, 49
4, 100560, Note_on_c, 0, 71, 0
4, 100560, Control_c, 0, 64, 0
4, 100560, Note_on_c, 0, 72, 49
4, 100800, Note_on_c, 0, 72, 0
4, 101040, Note_on_c, 0, 50, 88
4, 101280, Note_on_c, 0, 50, 0
4, 101280, Note_on_c, 0, 62, 88
4, 101520, Note_on_c, 0, 62, 0
4, 101520, Note_on_c, 0, 62, 88
4, 101567, Note_on_c, 0, 62, 0
4, 101760, Note_on_c, 0, 62, 88
4, 101807, Note_on_c, 0, 62, 0
4, 102000, Note_on_c, 0, 62, 88
4, 102047, Note_on_c, 0, 62, 0
4, 102240, Note_on_c, 0, 62, 88
4, 102287, Note_on_c, 0, 62, 0
4, 102480, Note_on_c, 0, 62, 88
4, 102527, Note_on_c, 0, 62, 0
4, 102720, Control_c, 0, 64, 127
4, 102720, Note_on_c, 0, 63, 75
4, 102840, Note_on_c, 0, 63, 0
4, 102840, Note_on_c, 0, 62, 75
4, 102960, Note_on_c, 0, 62, 0
4, 102960, Note_on_c, 0, 60, 75
4, 103080, Note_on_c, 0, 60, 0
4, 103080, Note_on_c, 0, 58, 75
4, 103200, Note_on_c, 0, 58, 0
4, 103200, Note_on_c, 0, 57, 75
4, 103320, Note_on_c, 0, 57, 0
4, 103320, Note_on_c, 0, 55, 75
4, 103440, Note_on_c, 0, 55, 0
4, 103440, Note_on_c, 0, 54, 75
4, 103560, Note_on_c, 0, 54, 0
4, 103560, Note_on_c, 0, 57, 75
4, 103680, Note_on_c, 0, 57, 0
4, 103680, Note_on_c, 0, 60, 75
4, 103800, Note_on_c, 0, 60, 0
4, 103800, Note_on_c, 0, 63, 75
4, 103920, Note_on_c, 0, 63, 0
4, 103920, Note_on_c, 0, 62, 75
4, 104040, Note_on_c, 0, 62, 0
4, 104040, Control_c, 0, 64, 0
4, 104040, Note_on_c, 0, 60, 75
4, 104160, Note_on_c, 0, 60, 0
4, 104160, Control_c, 0, 64, 127
4, 104160, Note_on_c, 0, 59, 75
4, 104280, Note_on_c, 0, 59, 0
4, 104280, Note_on_c, 0, 57, 75
4, 104400, Note_on_c, 0, 57, 0
4, 104400, Note_on_c, 0, 55, 75
4, 104520, Note_on_c, 0, 55, 0
4, 104520, Note_on_c, 0, 59, 75
4, 104640, Note_on_c, 0, 59, 0
4, 104640, Note_on_c, 0, 57, 75
4, 104760, Note_on_c, 0, 57, 0
4, 104760, Note_on_c, 0, 55, 75
4, 104880, Note_on_c, 0, 55, 0
4, 104880, Note_on_c, 0, 60, 75
4, 105000, Note_on_c, 0, 60, 0
4, 105000, Note_on_c, 0, 59, 75
4, 105120, Note_on_c, 0, 59, 0
4, 105120, Note_on_c, 0, 57, 75
4, 105240, Note_on_c, 0, 57, 0
4, 105240, Note_on_c, 0, 60, 75
4, 105360, Note_on_c, 0, 60, 0
4, 105360, Note_on_c, 0, 59, 75
4, 105480, Note_on_c, 0, 59, 0
4, 105480, Note_on_c, 0, 57, 75
4, 105600, Note_on_c, 0, 57, 0
4, 105600, Note_on_c, 0, 62, 75
4, 105720, Note_on_c, 0, 62, 0
4, 105720, Note_on_c, 0, 60, 75
4, 105840, Note_on_c, 0, 60, 0
4, 105840, Note_on_c, 0, 59, 75
4, 105960, Note_on_c, 0, 59, 0
4, 105960, Note_on_c, 0, 62, 75
4, 106080, Note_on_c, 0, 62, 0
4, 106080, Note_on_c, 0, 60, 75
4, 106200, Note_on_c, 0, 60, 0
4, 106200, Note_on_c, 0, 59, 75
4, 106320, Note_on_c, 0, 59, 0
4, 106320, Note_on_c, 0, 63, 75
4, 106440, Note_on_c, 0, 63, 0
4, 106440, Note_on_c, 0, 62, 75
4, 106560, Note_on_c, 0, 62, 0
4, 106560, Note_on_c, 0, 60, 75
4, 106680, Note_on_c, 0, 60, 0
4, 106680, Note_on_c, 0, 63, 75
4, 106800, Note_on_c, 0, 63, 0
4, 106800, Note_on_c, 0, 62, 75
4, 106920, Note_on_c, 0, 62, 0
4, 106920, Control_c, 0, 64, 0
4, 106920, Note_on_c, 0, 60, 75
4, 107040, Note_on_c, 0, 60, 0
4, 107040, Control_c, 0, 64, 127
4, 107040, Note_on_c, 0, 62, 75
4, 107160, Note_on_c, 0, 62, 0
4, 107160, Note_on_c, 0, 60, 75
4, 107280, Note_on_c, 0, 60, 0
4, 107280, Note_on_c, 0, 59, 75
4, 107400, Note_on_c, 0, 59, 0
4, 107400, Note_on_c, 0, 62, 75
4, 107520, Note_on_c, 0, 62, 0
4, 107520, Note_on_c, 0, 60, 75
4, 107640, Note_on_c, 0, 60, 0
4, 107640, Note_on_c, 0, 59, 75
4, 107760, Note_on_c, 0, 59, 0
4, 107760, Note_on_c, 0, 63, 75
4, 107880, Note_on_c, 0, 63, 0
4, 107880, Note_on_c, 0, 62, 75
4, 108000, Note_on_c, 0, 62, 0
4, 108000, Note_on_c, 0, 60, 75
4, 108120, Note_on_c, 0, 60, 0
4, 108120, Note_on_c, 0, 63, 75
4, 108240, Note_on_c, 0, 63, 0
4, 108240, Note_on_c, 0, 62, 75
4, 108360, Note_on_c, 0, 62, 0
4, 108360, Note_on_c, 0, 60, 75
4, 108480, Note_on_c, 0, 60, 0
4, 108480, Note_on_c, 0, 65, 75
4, 108600, Note_on_c, 0, 65, 0
4, 108600, Note_on_c, 0, 63, 75
4, 108720, Note_on_c, 0, 63, 0
4, 108720, Note_on_c, 0, 62, 75
4, 108840, Note_on_c, 0, 62, 0
4, 108840, Note_on_c, 0, 65, 75
4, 108960, Note_on_c, 0, 65, 0
4, 108960, Note_on_c, 0, 63, 75
4, 109080, Note_on_c, 0, 63, 0
4, 109080, Note_on_c, 0, 62, 75
4, 109200, Note_on_c, 0, 62, 0
4, 109200, Note_on_c, 0, 67, 75
4, 109320, Note_on_c, 0, 67, 0
4, 109320, Note_on_c, 0, 65, 75
4, 109440, Note_on_c, 0, 65, 0
4, 109440, Note_on_c, 0, 63, 75
4, 109560, Note_on_c, 0, 63, 0
4, 109560, Note_on_c, 0, 67, 75
4, 109680, Note_on_c, 0, 67, 0
4, 109680, Note_on_c, 0, 65, 75
4, 109800, Note_on_c, 0, 65, 0
4, 109800, Control_c, 0, 64, 0
4, 109800, Note_on_c, 0, 63, 75
4, 109920, Note_on_c, 0, 63, 0
4, 109920, Control_c, 0, 64, 127
4, 109920, Note_on_c, 0, 62, 75
4, 110040, Note_on_c, 0, 62, 0
4, 110040, Note_on_c, 0, 63, 75
4, 110160, Note_on_c, 0, 63, 0
4, 110160, Note_on_c, 0, 65, 75
4, 110280, Note_on_c, 0, 65, 0
4, 110280, Note_on_c, 0, 62, 75
4, 110400, Note_on_c, 0, 62, 0
4, 110400, Note_on_c, 0, 63, 75
4, 110520, Note_on_c, 0, 63, 0
4, 110520, Control_c, 0, 64, 0
4, 110520, Note_on_c, 0, 65, 75
4, 110640, Note_on_c, 0, 65, 0
4, 110640, Control_c, 0, 64, 127
4, 110640, Note_on_c, 0, 60, 75
4, 110760, Note_on_c, 0, 60, 0
4, 110760, Note_on_c, 0, 62, 75
4, 110880, Note_on_c, 0, 62, 0
4, 110880, Note_on_c, 0, 63, 75
4, 111000, Note_on_c, 0, 63, 0
4, 111000, Note_on_c, 0, 60, 75
4, 111120, Note_on_c, 0, 60, 0
4, 111120, Note_on_c, 0, 62, 75
4, 111240, Note_on_c, 0, 62, 0
4, 111240, Control_c, 0, 64, 0
4, 111240, Note_on_c, 0, 63, 75
4, 111360, Note_on_c, 0, 63, 0
4, 111360, Control_c, 0, 64, 127
4, 111360, Note_on_c, 0, 59, 75
4, 111480, Note_on_c, 0, 59, 0
4, 111480, Note_on_c, 0, 60, 75
4, 111600, Note_on_c, 0, 60, 0
4, 111600, Note_on_c, 0, 62, 75
4, 111720, Note_on_c, 0, 62, 0
4, 111720, Note_on_c, 0, 59, 75
4, 111840, Note_on_c, 0, 59, 0
4, 111840, Note_on_c, 0, 60, 75
4, 111960, Note_on_c, 0, 60, 0
4, 111960, Control_c, 0, 64, 0
4, 111960, Note_on_c, 0, 62, 75
4, 112080, Note_on_c, 0, 62, 0
4, 112080, Control_c, 0, 64, 127
4, 112080, Note_on_c, 0, 60, 75
4, 112200, Note_on_c, 0, 60, 0
4, 112200, Note_on_c, 0, 62, 75
4, 112320, Note_on_c, 0, 62, 0
4, 112320, Note_on_c, 0, 63, 75
4, 112440, Note_on_c, 0, 63, 0
4, 112440, Note_on_c, 0, 60, 75
4, 112560, Note_on_c, 0, 60, 0
4, 112560, Note_on_c, 0, 62, 75
4, 112680, Note_on_c, 0, 62, 0
4, 112680, Control_c, 0, 64, 0
4, 112680, Note_on_c, 0, 63, 75
4, 112800, Note_on_c, 0, 63, 0
4, 112800, Note_on_c, 0, 53, 75
4, 112800, Note_on_c, 0, 56, 75
4, 113040, Note_on_c, 0, 56, 0
4, 113040, Note_on_c, 0, 53, 0
4, 113040, Note_on_c, 0, 53, 75
4, 113040, Note_on_c, 0, 56, 75
4, 113280, Note_on_c, 0, 56, 0
4, 113280, Note_on_c, 0, 53, 0
4, 113280, Note_on_c, 0, 53, 75
4, 113280, Note_on_c, 0, 56, 75
4, 113520, Note_on_c, 0, 56, 0
4, 113520, Note_on_c, 0, 53, 0
4, 113520, Note_on_c, 0, 65, 75
4, 113520, Note_on_c, 0, 68, 75
4, 114000, Note_on_c, 0, 68, 0
4, 114000, Note_on_c, 0, 65, 0
4, 114000, Note_on_c, 0, 65, 75
4, 114000, Note_on_c, 0, 71, 75
4, 114240, Note_on_c, 0, 71, 0
4, 114240, Note_on_c, 0, 65, 0
4, 114240, Note_on_c, 0, 63, 75
4, 114240, Note_on_c, 0, 72, 75
4, 114720, Note_on_c, 0, 72, 0
4, 114720, Note_on_c, 0, 63, 0
4, 115440, Note_on_c, 0, 51, 75
4, 115440, Note_on_c, 0, 55, 75
4, 115680, Note_on_c, 0, 55, 0
4, 115680, Note_on_c, 0, 51, 0
4, 115680, Note_on_c, 0, 50, 75
4, 115680, Note_on_c, 0, 53, 75
4, 115920, Note_on_c, 0, 53, 0
4, 115920, Note_on_c, 0, 50, 0
4, 115920, Note_on_c, 0, 50, 75
4, 115920, Note_on_c, 0, 53, 75
4, 116160, Note_on_c, 0, 53, 0
4, 116160, Note_on_c, 0, 50, 0
4, 116160, Note_on_c, 0, 50, 75
4, 116160, Note_on_c, 0, 53, 75
4, 116400, Note_on_c, 0, 53, 0
4, 116400, Note_on_c, 0, 50, 0
4, 116400, Note_on_c, 0, 62, 75
4, 116400, Note_on_c, 0, 65, 75
4, 116880, Note_on_c, 0, 65, 0
4, 116880, Note_on_c, 0, 62, 0
4, 116880, Note_on_c, 0, 55, 75
4, 116880, Note_on_c, 0, 59, 75
4, 116880, Note_on_c, 0, 67, 75
4, 117120, Note_on_c, 0, 67, 0
4, 117120, Note_on_c, 0, 59, 0
4, 117120, Note_on_c, 0, 55, 0
4, 117120, Note_on_c, 0, 60, 75
4, 117120, Note_on_c, 0, 63, 75
4, 117360, Note_on_c, 0, 63, 0
4, 117360, Note_on_c, 0, 60, 0
4, 117360, Note_on_c, 0, 60, 75
4, 117360, Note_on_c, 0, 63, 75
4, 117600, Note_on_c, 0, 63, 0
4, 117600, Note_on_c, 0, 60, 0
4, 117600, Note_on_c, 0, 60, 75
4, 117600, Note_on_c, 0, 63, 75
4, 117840, Note_on_c, 0, 63, 0
4, 117840, Note_on_c, 0, 60, 0
4, 117840, Note_on_c, 0, 60, 75
4, 117840, Note_on_c, 0, 63, 75
4, 118080, Note_on_c, 0, 63, 0
4, 118080, Note_on_c, 0, 60, 0
4, 118080, Note_on_c, 0, 60, 75
4, 118080, Note_on_c, 0, 63, 75
4, 118320, Note_on_c, 0, 63, 0
4, 118320, Note_on_c, 0, 60, 0
4, 118320, Note_on_c, 0, 60, 75
4, 118320, Note_on_c, 0, 63, 75
4, 118560, Note_on_c, 0, 63, 0
4, 118560, Note_on_c, 0, 60, 0
4, 118560, Note_on_c, 0, 60, 75
4, 118560, Note_on_c, 0, 63, 75
4, 119040, Note_on_c, 0, 63, 0
4, 119040, Note_on_c, 0, 60, 0
4, 119040, Note_on_c, 0, 60, 75
4, 119040, Note_on_c, 0, 63, 75
4, 119280, Note_on_c, 0, 63, 0
4, 119280, Note_on_c, 0, 60, 0
4, 119280, Note_on_c, 0, 60, 75
4, 119280, Note_on_c, 0, 63, 75
4, 119327, Note_on_c, 0, 63, 0
4, 119327, Note_on_c, 0, 60, 0
4, 119520, Note_on_c, 0, 60, 75
4, 119520, Note_on_c, 0, 63, 75
4, 119567, Note_on_c, 0, 63, 0
4, 119567, Note_on_c, 0, 60, 0
4, 119760, Note_on_c, 0, 60, 75
4, 119760, Note_on_c, 0, 63, 75
4, 119807, Note_on_c, 0, 63, 0
4, 119807, Note_on_c, 0, 60, 0
4, 120000, Note_on_c, 0, 55, 75
4, 120000, Note_on_c, 0, 60, 75
4, 120000, Note_on_c, 0, 63, 75
4, 120720, Note_on_c, 0, 63, 0
4, 120720, Note_on_c, 0, 60, 0
4, 120720, Note_on_c, 0, 55, 0
4, 120720, Note_on_c, 0, 54, 75
4, 120720, Note_on_c, 0, 60, 75
4, 120720, Note_on_c, 0, 63, 75
4, 121440, Note_on_c, 0, 63, 0
4, 121440, Note_on_c, 0, 60, 0
4, 121440, Note_on_c, 0, 54, 0
4, 121440, Note_on_c, 0, 55, 75
4, 121440, Note_on_c, 0, 60, 75
4, 121440, Note_on_c, 0, 63, 75
4, 122160, Note_on_c, 0, 63, 0
4, 122160, Note_on_c, 0, 60, 0
4, 122160, Note_on_c, 0, 55, 0
4, 122640, Note_on_c, 0, 55, 75
4, 122880, Note_on_c, 0, 55, 0
4, 122880, Note_on_c, 0, 36, 75
4, 123360, Note_on_c, 0, 36, 0
4, 128640, Note_on_c, 0, 60, 75
4, 129120, Note_on_c, 0, 60, 0
4, 129120, Note_on_c, 0, 61, 75
4, 129360, Note_on_c, 0, 61, 0
4, 129360, Note_on_c, 0, 60, 75
4, 129600, Note_on_c, 0, 60, 0
4, 129600, Note_on_c, 0, 58, 75
4, 129840, Note_on_c, 0, 58, 0
4, 129840, Note_on_c, 0, 56, 75
4, 130080, Note_on_c, 0, 56, 0
4, 130080, Note_on_c, 0, 55, 75
4, 130320, Note_on_c, 0, 55, 0
4, 130320, Control_c, 0, 64, 127
4, 130320, Note_on_c, 0, 61, 75
4, 130440, Note_on_c, 0, 61, 0
4, 130440, Note_on_c, 0, 60, 75
4, 130560, Note_on_c, 0, 60, 0
4, 130560, Note_on_c, 0, 58, 75
4, 130680, Note_on_c, 0, 58, 0
4, 130680, Note_on_c, 0, 56, 75
4, 130800, Note_on_c, 0, 56, 0
4, 130800, Control_c, 0, 64, 0
4, 130800, Note_on_c, 0, 55, 75
4, 131760, Note_on_c, 0, 55, 0
4, 131760, Control_c, 0, 64, 127
4, 131760, Note_on_c, 0, 61, 75
4, 131880, Note_on_c, 0, 61, 0
4, 131880, Note_on_c, 0, 60, 75
4, 132000, Note_on_c, 0, 60, 0
4, 132000, Note_on_c, 0, 58, 75
4, 132120, Note_on_c, 0, 58, 0
4, 132120, Note_on_c, 0, 56, 75
4, 132240, Note_on_c, 0, 56, 0
4, 132240, Control_c, 0, 64, 0
4, 132240, Note_on_c, 0, 55, 75
4, 132960, Note_on_c, 0, 55, 0
4, 132960, Note_on_c, 0, 56, 75
4, 133680, Note_on_c, 0, 56, 0
4, 133680, Note_on_c, 0, 58, 75
4, 134400, Note_on_c, 0, 58, 0
4, 134400, Note_on_c, 0, 60, 75
4, 135120, Note_on_c, 0, 60, 0
4, 135120, Note_on_c, 0, 63, 75
4, 135840, Note_on_c, 0, 63, 0
4, 135840, Control_c, 0, 64, 127
4, 135840, Note_on_c, 0, 58, 75
4, 135960, Note_on_c, 0, 58, 0
4, 135960, Note_on_c, 0, 56, 75
4, 136080, Note_on_c, 0, 56, 0
4, 136080, Note_on_c, 0, 55, 75
4, 136200, Note_on_c, 0, 55, 0
4, 136200, Note_on_c, 0, 53, 75
4, 136320, Note_on_c, 0, 53, 0
4, 136320, Note_on_c, 0, 51, 75
4, 136440, Note_on_c, 0, 51, 0
4, 136440, Note_on_c, 0, 49, 75
4, 136560, Note_on_c, 0, 49, 0
4, 136560, Note_on_c, 0, 48, 75
4, 136680, Note_on_c, 0, 48, 0
4, 136680, Note_on_c, 0, 51, 75
4, 136800, Note_on_c, 0, 51, 0
4, 136800, Note_on_c, 0, 54, 75
4, 136920, Note_on_c, 0, 54, 0
4, 136920, Note_on_c, 0, 58, 75
4, 137040, Note_on_c, 0, 58, 0
4, 137040, Note_on_c, 0, 56, 75
4, 137160, Note_on_c, 0, 56, 0
4, 137160, Note_on_c, 0, 54, 75
4, 137280, Note_on_c, 0, 54, 0
4, 137280, Control_c, 0, 64, 0
4, 137280, Note_on_c, 0, 53, 75
4, 137760, Note_on_c, 0, 53, 0
4, 138000, Note_on_c, 0, 53, 75
4, 138000, Note_on_c, 0, 56, 75
4, 138720, Note_on_c, 0, 56, 0
4, 138720, Note_on_c, 0, 53, 0
4, 138720, Note_on_c, 0, 51, 75
4, 138720, Note_on_c, 0, 55, 75
4, 139440, Note_on_c, 0, 55, 0
4, 139440, Note_on_c, 0, 51, 0
4, 139440, Note_on_c, 0, 44, 75
4, 139440, Note_on_c, 0, 51, 75
4, 139440, Note_on_c, 0, 54, 75
4, 139920, Note_on_c, 0, 54, 0
4, 139920, Note_on_c, 0, 51, 0
4, 139920, Note_on_c, 0, 44, 0
4, 139920, Note_on_c, 0, 53, 75
4, 140160, Note_on_c, 0, 53, 0
4, 140160, Note_on_c, 0, 65, 75
4, 140400, Note_on_c, 0, 65, 0
4, 140400, Note_on_c, 0, 65, 75
4, 140447, Note_on_c, 0, 65, 0
4, 140640, Note_on_c, 0, 65, 75
4, 140687, Note_on_c, 0, 65, 0
4, 140880, Note_on_c, 0, 65, 75
4, 140927, Note_on_c, 0, 65, 0
4, 141120, Note_on_c, 0, 65, 75
4, 141167, Note_on_c, 0, 65, 0
4, 141360, Note_on_c, 0, 65, 75
4, 141407, Note_on_c, 0, 65, 0
4, 141600, Control_c, 0, 64, 127
4, 141600, Note_on_c, 0, 67, 75
4, 141720, Note_on_c, 0, 67, 0
4, 141720, Note_on_c, 0, 65, 75
4, 141840, Note_on_c, 0, 65, 0
4, 141840, Note_on_c, 0, 64, 75
4, 141960, Note_on_c, 0, 64, 0
4, 141960, Note_on_c, 0, 61, 75
4, 142080, Note_on_c, 0, 61, 0
4, 142080, Note_on_c, 0, 60, 75
4, 142200, Note_on_c, 0, 60, 0
4, 142200, Note_on_c, 0, 58, 75
4, 142320, Note_on_c, 0, 58, 0
4, 142320, Note_on_c, 0, 57, 75
4, 142440, Note_on_c, 0, 57, 0
4, 142440, Note_on_c, 0, 60, 75
4, 142560, Note_on_c, 0, 60, 0
4, 142560, Note_on_c, 0, 63, 75
4, 142680, Note_on_c, 0, 63, 0
4, 142680, Note_on_c, 0, 66, 75
4, 142800, Note_on_c, 0, 66, 0
4, 142800, Note_on_c, 0, 65, 75
4, 142920, Note_on_c, 0, 65, 0
4, 142920, Control_c, 0, 64, 0
4, 142920, Note_on_c, 0, 63, 75
4, 143040, Note_on_c, 0, 63, 0
4, 143760, Note_on_c, 0, 61, 75
4, 143760, Note_on_c, 0, 65, 75
4, 144480, Note_on_c, 0, 65, 0
4, 144480, Note_on_c, 0, 61, 0
4, 144480, Note_on_c, 0, 60, 75
4, 144480, Note_on_c, 0, 63, 75
4, 145200, Note_on_c, 0, 63, 0
4, 145200, Note_on_c, 0, 60, 0
4, 145200, Note_on_c, 0, 53, 75
4, 145200, Note_on_c, 0, 60, 75
4, 145200, Note_on_c, 0, 63, 75
4, 145680, Note_on_c, 0, 63, 0
4, 145680, Note_on_c, 0, 60, 0
4, 145680, Note_on_c, 0, 53, 0
4, 145680, Note_on_c, 0, 46, 75
4, 145920, Note_on_c, 0, 46, 0
4, 145920, Note_on_c, 0, 58, 75
4, 146160, Note_on_c, 0, 58, 0
4, 146160, Note_on_c, 0, 58, 75
4, 146207, Note_on_c, 0, 58, 0
4, 146400, Note_on_c, 0, 58, 75
4, 146447, Note_on_c, 0, 58, 0
4, 146640, Note_on_c, 0, 58, 75
4, 146687, Note_on_c, 0, 58, 0
4, 146880, Note_on_c, 0, 58, 75
4, 146927, Note_on_c, 0, 58, 0
4, 147120, Note_on_c, 0, 58, 75
4, 147167, Note_on_c, 0, 58, 0
4, 147360, Note_on_c, 0, 65, 75
4, 147600, Note_on_c, 0, 65, 0
4, 147600, Note_on_c, 0, 65, 75
4, 147647, Note_on_c, 0, 65, 0
4, 147840, Note_on_c, 0, 65, 75
4, 147887, Note_on_c, 0, 65, 0
4, 148080, Note_on_c, 0, 65, 75
4, 148127, Note_on_c, 0, 65, 0
4, 148320, Note_on_c, 0, 65, 75
4, 148367, Note_on_c, 0, 65, 0
4, 148560, Note_on_c, 0, 65, 75
4, 148607, Note_on_c, 0, 65, 0
4, 148800, Note_on_c, 0, 58, 75
4, 150000, Note_on_c, 0, 58, 0
4, 150000, Note_on_c, 0, 46, 75
4, 150240, Note_on_c, 0, 46, 0
4, 150240, Note_on_c, 0, 58, 75
4, 150480, Note_on_c, 0, 58, 0
4, 150480, Note_on_c, 0, 58, 75
4, 150527, Note_on_c, 0, 58, 0
4, 150720, Note_on_c, 0, 58, 75
4, 150767, Note_on_c, 0, 58, 0
4, 150960, Note_on_c, 0, 58, 75
4, 151007, Note_on_c, 0, 58, 0
4, 151200, Note_on_c, 0, 58, 75
4, 151247, Note_on_c, 0, 58, 0
4, 151440, Note_on_c, 0, 58, 75
4, 151487, Note_on_c, 0, 58, 0
4, 151680, Note_on_c, 0, 67, 75
4, 151920, Note_on_c, 0, 67, 0
4, 151920, Note_on_c, 0, 67, 75
4, 151967, Note_on_c, 0, 67, 0
4, 152160, Note_on_c, 0, 67, 75
4, 152207, Note_on_c, 0, 67, 0
4, 152400, Note_on_c, 0, 67, 75
4, 152447, Note_on_c, 0, 67, 0
4, 152640, Note_on_c, 0, 67, 75
4, 152687, Note_on_c, 0, 67, 0
4, 152880, Note_on_c, 0, 67, 75
4, 152927, Note_on_c, 0, 67, 0
4, 153120, Note_on_c, 0, 60, 75
4, 154320, Note_on_c, 0, 60, 0
4, 154320, Note_on_c, 0, 58, 75
4, 154320, Note_on_c, 0, 67, 75
4, 154560, Note_on_c, 0, 58, 0
4, 154800, Note_on_c, 0, 67, 0
4, 154800, Note_on_c, 0, 65, 75
4, 155040, Note_on_c, 0, 65, 0
4, 155040, Note_on_c, 0, 64, 75
4, 155280, Note_on_c, 0, 64, 0
4, 155280, Note_on_c, 0, 65, 75
4, 155760, Note_on_c, 0, 65, 0
4, 155760, Note_on_c, 0, 55, 75
4, 156000, Note_on_c, 0, 55, 0
4, 156000, Note_on_c, 0, 67, 75
4, 156240, Note_on_c, 0, 67, 0
4, 156240, Note_on_c, 0, 67, 75
4, 156287, Note_on_c, 0, 67, 0
4, 156480, Note_on_c, 0, 67, 75
4, 156527, Note_on_c, 0, 67, 0
4, 156720, Note_on_c, 0, 67, 75
4, 156767, Note_on_c, 0, 67, 0
4, 156960, Note_on_c, 0, 67, 75
4, 157007, Note_on_c, 0, 67, 0
4, 157200, Note_on_c, 0, 67, 75
4, 157247, Note_on_c, 0, 67, 0
4, 157440, Note_on_c, 0, 68, 75
4, 157680, Note_on_c, 0, 68, 0
4, 157680, Note_on_c, 0, 67, 75
4, 157920, Note_on_c, 0, 67, 0
4, 157920, Note_on_c, 0, 65, 75
4, 158160, Note_on_c, 0, 65, 0
4, 158160, Note_on_c, 0, 64, 75
4, 158640, Note_on_c, 0, 64, 0
4, 158640, Note_on_c, 0, 29, 88
4, 158640, Note_on_c, 0, 41, 88
4, 158880, Note_on_c, 0, 41, 0
4, 158880, Note_on_c, 0, 29, 0
4, 158880, Note_on_c, 0, 41, 88
4, 158880, Note_on_c, 0, 53, 88
4, 159120, Note_on_c, 0, 53, 0
4, 159120, Note_on_c, 0, 41, 0
4, 159120, Note_on_c, 0, 41, 88
4, 159120, Note_on_c, 0, 53, 88
4, 159167, Note_on_c, 0, 53, 0
4, 159167, Note_on_c, 0, 41, 0
4, 159360, Note_on_c, 0, 41, 88
4, 159360, Note_on_c, 0, 53, 88
4, 159407, Note_on_c, 0, 53, 0
4, 159407, Note_on_c, 0, 41, 0
4, 159600, Note_on_c, 0, 41, 88
4, 159600, Note_on_c, 0, 53, 88
4, 159647, Note_on_c, 0, 53, 0
4, 159647, Note_on_c, 0, 41, 0
4, 159840, Note_on_c, 0, 41, 88
4, 159840, Note_on_c, 0, 53, 88
4, 159887, Note_on_c, 0, 53, 0
4, 159887, Note_on_c, 0, 41, 0
4, 160080, Note_on_c, 0, 41, 88
4, 160080, Note_on_c, 0, 53, 88
4, 160127, Note_on_c, 0, 53, 0
4, 160127, Note_on_c, 0, 41, 0
4, 160320, Note_on_c, 0, 41, 88
4, 160320, Note_on_c, 0, 53, 88
4, 160800, Note_on_c, 0, 53, 0
4, 160800, Note_on_c, 0, 41, 0
4, 161520, Note_on_c, 0, 29, 88
4, 161520, Note_on_c, 0, 41, 88
4, 161760, Note_on_c, 0, 41, 0
4, 161760, Note_on_c, 0, 29, 0
4, 161760, Note_on_c, 0, 41, 88
4, 161760, Note_on_c, 0, 53, 88
4, 162000, Note_on_c, 0, 53, 0
4, 162000, Note_on_c, 0, 41, 0
4, 162000, Note_on_c, 0, 41, 88
4, 162000, Note_on_c, 0, 53, 88
4, 162047, Note_on_c, 0, 53, 0
4, 162047, Note_on_c, 0, 41, 0
4, 162240, Note_on_c, 0, 41, 88
4, 162240, Note_on_c, 0, 53, 88
4, 162287, Note_on_c, 0, 53, 0
4, 162287, Note_on_c, 0, 41, 0
4, 162480, Note_on_c, 0, 41, 88
4, 162480, Note_on_c, 0, 53, 88
4, 162527, Note_on_c, 0, 53, 0
4, 162527, Note_on_c, 0, 41, 0
4, 162720, Note_on_c, 0, 41, 88
4, 162720, Note_on_c, 0, 53, 88
4, 162767, Note_on_c, 0, 53, 0
4, 162767, Note_on_c, 0, 41, 0
4, 162960, Note_on_c, 0, 41, 88
4, 162960, Note_on_c, 0, 53, 88
4, 163007, Note_on_c, 0, 53, 0
4, 163007, Note_on_c, 0, 41, 0
4, 163200, Note_on_c, 0, 41, 88
4, 163200, Note_on_c, 0, 53, 88
4, 163680, Note_on_c, 0, 53, 0
4, 163680, Note_on_c, 0, 41, 0
4, 164400, Note_on_c, 0, 41, 88
4, 164640, Note_on_c, 0, 41, 0
4, 164640, Note_on_c, 0, 53, 75
4, 164880, Note_on_c, 0, 53, 0
4, 164880, Note_on_c, 0, 53, 75
4, 164927, Note_on_c, 0, 53, 0
4, 165120, Note_on_c, 0, 53, 75
4, 165167, Note_on_c, 0, 53, 0
4, 165360, Note_on_c, 0, 53, 75
4, 165407, Note_on_c, 0, 53, 0
4, 165600, Note_on_c, 0, 53, 75
4, 165647, Note_on_c, 0, 53, 0
4, 165840, Note_on_c, 0, 53, 75
4, 165840, Note_on_c, 0, 55, 75
4, 166080, Note_on_c, 0, 55, 0
4, 166080, Note_on_c, 0, 53, 0
4, 166080, Note_on_c, 0, 65, 75
4, 166080, Note_on_c, 0, 67, 75
4, 166320, Note_on_c, 0, 67, 0
4, 166320, Note_on_c, 0, 65, 0
4, 166320, Note_on_c, 0, 65, 75
4, 166320, Note_on_c, 0, 67, 75
4, 166367, Note_on_c, 0, 67, 0
4, 166367, Note_on_c, 0, 65, 0
4, 166560, Note_on_c, 0, 65, 75
4, 166560, Note_on_c, 0, 67, 75
4, 166607, Note_on_c, 0, 67, 0
4, 166607, Note_on_c, 0, 65, 0
4, 166800, Note_on_c, 0, 65, 75
4, 166800, Note_on_c, 0, 67, 75
4, 166847, Note_on_c, 0, 67, 0
4, 166847, Note_on_c, 0, 65, 0
4, 167040, Note_on_c, 0, 65, 75
4, 167040, Note_on_c, 0, 67, 75
4, 167087, Note_on_c, 0, 67, 0
4, 167087, Note_on_c, 0, 65, 0
4, 167280, Note_on_c, 0, 65, 62
4, 167280, Note_on_c, 0, 67, 62
4, 167327, Note_on_c, 0, 67, 0
4, 167327, Note_on_c, 0, 65, 0
4, 167520, Note_on_c, 0, 64, 62
4, 167520, Note_on_c, 0, 67, 62
4, 167567, Note_on_c, 0, 67, 0
4, 167567, Note_on_c, 0, 64, 0
4, 167760, Note_on_c, 0, 64, 62
4, 167760, Note_on_c, 0, 67, 62
4, 167807, Note_on_c, 0, 67, 0
4, 167807, Note_on_c, 0, 64, 0
4, 168000, Note_on_c, 0, 64, 62
4, 168000, Note_on_c, 0, 67, 62
4, 168047, Note_on_c, 0, 67, 0
4, 168047, Note_on_c, 0, 64, 0
4, 168240, Note_on_c, 0, 64, 62
4, 168240, Note_on_c, 0, 67, 62
4, 168287, Note_on_c, 0, 67, 0
4, 168287, Note_on_c, 0, 64, 0
4, 168480, Note_on_c, 0, 64, 62
4, 168480, Note_on_c, 0, 67, 62
4, 168527, Note_on_c, 0, 67, 0
4, 168527, Note_on_c, 0, 64, 0
4, 168720, Note_on_c, 0, 64, 62
4, 168720, Note_on_c, 0, 67, 62
4, 168767, Note_on_c, 0, 67, 0
4, 168767, Note_on_c, 0, 64, 0
4, 168960, Note_on_c, 0, 64, 62
4, 168960, Note_on_c, 0, 67, 62
4, 169200, Note_on_c, 0, 67, 0
4, 169200, Note_on_c, 0, 64, 0
4, 170160, Note_on_c, 0, 36, 62
4, 170160, Note_on_c, 0, 48, 62
4, 170400, Note_on_c, 0, 48, 0
4, 170400, Note_on_c, 0, 36, 0
4, 170400, Note_on_c, 0, 60, 62
4, 170447, Note_on_c, 0, 60, 0
4, 170640, Note_on_c, 0, 60, 62
4, 170687, Note_on_c, 0, 60, 0
4, 170880, Note_on_c, 0, 60, 62
4, 170927, Note_on_c, 0, 60, 0
4, 171120, Note_on_c, 0, 60, 62
4, 171360, Note_on_c, 0, 60, 0
4, 171360, Note_on_c, 0, 58, 62
4, 171600, Note_on_c, 0, 58, 0
4, 171600, Note_on_c, 0, 58, 62
4, 171647, Note_on_c, 0, 58, 0
4, 172080, Note_on_c, 0, 56, 62
4, 172127, Note_on_c, 0, 56, 0
4, 172320, Note_on_c, 0, 56, 62
4, 172367, Note_on_c, 0, 56, 0
4, 172560, Note_on_c, 0, 56, 62
4, 172800, Note_on_c, 0, 56, 0
4, 172800, Note_on_c, 0, 55, 62
4, 173040, Note_on_c, 0, 55, 0
4, 173040, Note_on_c, 0, 55, 62
4, 173087, Note_on_c, 0, 55, 0
4, 173520, Note_on_c, 0, 60, 62
4, 173567, Note_on_c, 0, 60, 0
4, 173760, Note_on_c, 0, 60, 62
4, 173807, Note_on_c, 0, 60, 0
4, 174000, Note_on_c, 0, 60, 62
4, 174240, Note_on_c, 0, 60, 0
4, 174240, Note_on_c, 0, 58, 62
4, 174480, Note_on_c, 0, 58, 0
4, 174480, Note_on_c, 0, 58, 62
4, 174527, Note_on_c, 0, 58, 0
4, 174960, Note_on_c, 0, 56, 62
4, 175007, Note_on_c, 0, 56, 0
4, 175200, Note_on_c, 0, 56, 62
4, 175247, Note_on_c, 0, 56, 0
4, 175440, Note_on_c, 0, 56, 62
4, 175680, Note_on_c, 0, 56, 0
4, 175680, Note_on_c, 0, 55, 62
4, 175920, Note_on_c, 0, 55, 0
4, 175920, Note_on_c, 0, 55, 62
4, 175967, Note_on_c, 0, 55, 0
4, 176400, Note_on_c, 0, 56, 62
4, 176400, Note_on_c, 0, 59, 62
4, 176447, Note_on_c, 0, 59, 0
4, 176447, Note_on_c, 0, 56, 0
4, 176640, Note_on_c, 0, 56, 62
4, 176640, Note_on_c, 0, 59, 62
4, 176687, Note_on_c, 0, 59, 0
4, 176687, Note_on_c, 0, 56, 0
4, 176880, Note_on_c, 0, 56, 62
4, 176880, Note_on_c, 0, 59, 62
4, 177120, Note_on_c, 0, 59, 0
4, 177120, Note_on_c, 0, 56, 0
4, 177120, Note_on_c, 0, 55, 62
4, 177120, Note_on_c, 0, 58, 62
4, 177360, Note_on_c, 0, 58, 0
4, 177360, Note_on_c, 0, 55, 0
4, 177360, Note_on_c, 0, 55, 62
4, 177360, Note_on_c, 0, 58, 62
4, 177407, Note_on_c, 0, 58, 0
4, 177407, Note_on_c, 0, 55, 0
4, 177840, Note_on_c, 0, 53, 62
4, 177840, Note_on_c, 0, 56, 62
4, 177887, Note_on_c, 0, 56, 0
4, 177887, Note_on_c, 0, 53, 0
4, 178080, Note_on_c, 0, 53, 62
4, 178080, Note_on_c, 0, 56, 62
4, 178127, Note_on_c, 0, 56, 0
4, 178127, Note_on_c, 0, 53, 0
4, 178320, Note_on_c, 0, 53, 62
4, 178320, Note_on_c, 0, 56, 62
4, 178560, Note_on_c, 0, 56, 0
4, 178560, Note_on_c, 0, 53, 0
4, 178560, Note_on_c, 0, 55, 62
4, 178800, Note_on_c, 0, 55, 0
4, 178800, Note_on_c, 0, 55, 62
4, 178847, Note_on_c, 0, 55, 0
4, 179280, Note_on_c, 0, 61, 62
4, 179327, Note_on_c, 0, 61, 0
4, 179520, Note_on_c, 0, 61, 62
4, 179567, Note_on_c, 0, 61, 0
4, 179760, Note_on_c, 0, 61, 62
4, 180000, Note_on_c, 0, 61, 0
4, 180000, Note_on_c, 0, 60, 62
4, 180240, Note_on_c, 0, 60, 0
4, 180240, Note_on_c, 0, 60, 62
4, 180287, Note_on_c, 0, 60, 0
4, 180720, Note_on_c, 0, 53, 62
4, 180767, Note_on_c, 0, 53, 0
4, 180960, Note_on_c, 0, 53, 62
4, 181007, Note_on_c, 0, 53, 0
4, 181200, Note_on_c, 0, 53, 62
4, 181440, Note_on_c, 0, 53, 0
4, 181440, Note_on_c, 0, 51, 62
4, 181680, Note_on_c, 0, 51, 0
4, 181680, Note_on_c, 0, 51, 62
4, 181727, Note_on_c, 0, 51, 0
4, 181920, Control_c, 0, 64, 127
4, 181920, Note_on_c, 0, 46, 62
4, 182040, Note_on_c, 0, 46, 0
4, 182040, Note_on_c, 0, 48, 62
4, 182160, Note_on_c, 0, 48, 0
4, 182160, Note_on_c, 0, 49, 62
4, 182280, Note_on_c, 0, 49, 0
4, 182280, Note_on_c, 0, 46, 62
4, 182400, Note_on_c, 0, 46, 0
4, 182400, Note_on_c, 0, 48, 62
4, 182520, Note_on_c, 0, 48, 0
4, 182520, Note_on_c, 0, 49, 62
4, 182640, Note_on_c, 0, 49, 0
4, 182640, Note_on_c, 0, 44, 62
4, 182760, Note_on_c, 0, 44, 0
4, 182760, Note_on_c, 0, 46, 62
4, 182880, Note_on_c, 0, 46, 0
4, 182880, Note_on_c, 0, 48, 62
4, 183000, Note_on_c, 0, 48, 0
4, 183000, Note_on_c, 0, 44, 88
4, 183120, Note_on_c, 0, 44, 0
4, 183120, Note_on_c, 0, 46, 88
4, 183240, Note_on_c, 0, 46, 0
4, 183240, Note_on_c, 0, 48, 88
4, 183360, Note_on_c, 0, 48, 0
4, 183360, Note_on_c, 0, 43, 88
4, 183480, Note_on_c, 0, 43, 0
4, 183480, Note_on_c, 0, 44, 88
4, 183600, Note_on_c, 0, 44, 0
4, 183600, Note_on_c, 0, 46, 88
4, 183720, Note_on_c, 0, 46, 0
4, 183720, Note_on_c, 0, 43, 88
4, 183840, Note_on_c, 0, 43, 0
4, 183840, Note_on_c, 0, 44, 88
4, 183960, Note_on_c, 0, 44, 0
4, 183960, Note_on_c, 0, 46, 88
4, 184080, Note_on_c, 0, 46, 0
4, 184080, Note_on_c, 0, 41, 88
4, 184200, Note_on_c, 0, 41, 0
4, 184200, Note_on_c, 0, 43, 88
4, 184320, Note_on_c, 0, 43, 0
4, 184320, Note_on_c, 0, 44, 88
4, 184440, Note_on_c, 0, 44, 0
4, 184440, Note_on_c, 0, 41, 88
4, 184560, Note_on_c, 0, 41, 0
4, 184560, Note_on_c, 0, 43, 88
4, 184680, Note_on_c, 0, 43, 0
4, 184680, Note_on_c, 0, 44, 88
4, 184800, Note_on_c, 0, 44, 0
4, 184800, Control_c, 0, 64, 0
4, 184800, Note_on_c, 0, 40, 101
4, 185040, Note_on_c, 0, 40, 0
4, 185520, Control_c, 0, 64, 127
4, 185520, Note_on_c, 0, 64, 101
4, 185640, Note_on_c, 0, 64, 0
4, 185640, Note_on_c, 0, 67, 101
4, 185760, Note_on_c, 0, 67, 0
4, 185760, Note_on_c, 0, 70, 101
4, 185880, Note_on_c, 0, 70, 0
4, 185880, Note_on_c, 0, 73, 101
4, 186000, Note_on_c, 0, 73, 0
4, 186000, Note_on_c, 0, 70, 101
4, 186120, Note_on_c, 0, 70, 0
4, 186120, Note_on_c, 0, 67, 101
4, 186240, Note_on_c, 0, 67, 0
4, 186240, Note_on_c, 0, 64, 101
4, 186360, Note_on_c, 0, 64, 0
4, 186360, Note_on_c, 0, 61, 101
4, 186480, Note_on_c, 0, 61, 0
4, 186480, Note_on_c, 0, 58, 101
4, 186600, Note_on_c, 0, 58, 0
4, 186600, Note_on_c, 0, 55, 101
4, 186720, Note_on_c, 0, 55, 0
4, 186720, Note_on_c, 0, 52, 101
4, 186840, Note_on_c, 0, 52, 0
4, 186840, Note_on_c, 0, 55, 101
4, 186960, Note_on_c, 0, 55, 0
4, 186960, Note_on_c, 0, 58, 101
4, 187080, Note_on_c, 0, 58, 0
4, 187080, Note_on_c, 0, 61, 101
4, 187200, Note_on_c, 0, 61, 0
4, 187200, Note_on_c, 0, 58, 101
4, 187320, Note_on_c, 0, 58, 0
4, 187320, Note_on_c, 0, 55, 101
4, 187440, Note_on_c, 0, 55, 0
4, 187440, Note_on_c, 0, 52, 101
4, 187560, Note_on_c, 0, 52, 0
4, 187560, Control_c, 0, 64, 0
4, 187560, Note_on_c, 0, 49, 101
4, 187680, Note_on_c, 0, 49, 0
4, 187680, Control_c, 0, 64, 127
4, 187680, Note_on_c, 0, 46, 101
4, 187800, Note_on_c, 0, 46, 0
4, 187800, Note_on_c, 0, 43, 101
4, 187920, Note_on_c, 0, 43, 0
4, 187920, Note_on_c, 0, 40, 101
4, 188040, Note_on_c, 0, 40, 0
4, 188040, Note_on_c, 0, 43, 101
4, 188160, Note_on_c, 0, 43, 0
4, 188160, Note_on_c, 0, 46, 101
4, 188280, Note_on_c, 0, 46, 0
4, 188280, Note_on_c, 0, 49, 101
4, 188400, Note_on_c, 0, 49, 0
4, 188400, Note_on_c, 0, 52, 101
4, 188520, Note_on_c, 0, 52, 0
4, 188520, Note_on_c, 0, 55, 101
4, 188640, Note_on_c, 0, 55, 0
4, 188640, Note_on_c, 0, 58, 101
4, 188760, Note_on_c, 0, 58, 0
4, 188760, Note_on_c, 0, 61, 101
4, 188880, Note_on_c, 0, 61, 0
4, 188880, Note_on_c, 0, 64, 101
4, 189000, Note_on_c, 0, 64, 0
4, 189000, Note_on_c, 0, 67, 101
4, 189060, Note_on_c, 0, 67, 0
4, 189060, Note_on_c, 0, 70, 101
4, 189120, Note_on_c, 0, 70, 0
4, 189120, Control_c, 0, 64, 0
4, 189120, Note_on_c, 0, 73, 101
4, 189360, Note_on_c, 0, 73, 0
4, 189840, Note_on_c, 0, 48, 101
4, 189840, Note_on_c, 0, 60, 101
4, 190080, Note_on_c, 0, 60, 0
4, 190080, Note_on_c, 0, 48, 0
4, 190560, Note_on_c, 0, 53, 101
4, 190560, Note_on_c, 0, 65, 101
4, 190800, Note_on_c, 0, 65, 0
4, 190800, Note_on_c, 0, 53, 0
4, 191280, Note_on_c, 0, 46, 101
4, 191280, Note_on_c, 0, 58, 101
4, 191520, Note_on_c, 0, 58, 0
4, 191520, Note_on_c, 0, 46, 0
4, 192000, Note_on_c, 0, 48, 101
4, 192000, Note_on_c, 0, 60, 101
4, 193200, Note_on_c, 0, 60, 0
4, 193200, Note_on_c, 0, 48, 0
4, 193200, Note_on_c, 0, 29, 49
4, 193200, Note_on_c, 0, 41, 49
4, 193440, Note_on_c, 0, 41, 0
4, 193440, Note_on_c, 0, 29, 0
4, 193920, Note_on_c, 0, 34, 49
4, 193920, Note_on_c, 0, 46, 49
4, 194160, Note_on_c, 0, 46, 0
4, 194160, Note_on_c, 0, 34, 0
4, 194640, Note_on_c, 0, 39, 49
4, 194880, Note_on_c, 0, 39, 0
4, 195360, Note_on_c, 0, 29, 49
4, 195360, Note_on_c, 0, 41, 49
4, 195360, Note_on_c, 0, 57, 49
4, 195360, Note_on_c, 0, 60, 49
4, 195600, Note_on_c, 0, 60, 0
4, 195600, Note_on_c, 0, 29, 0
4, 195600, Note_on_c, 0, 41, 0
4, 195600, Note_on_c, 0, 57, 0
4, 197520, Note_on_c, 0, 29, 49
4, 197520, Note_on_c, 0, 41, 49
4, 197760, Note_on_c, 0, 41, 0
4, 197760, Note_on_c, 0, 29, 0
4, 198240, Note_on_c, 0, 34, 49
4, 198240, Note_on_c, 0, 46, 49
4, 198480, Note_on_c, 0, 46, 0
4, 198480, Note_on_c, 0, 34, 0
4, 198960, Note_on_c, 0, 39, 49
4, 199200, Note_on_c, 0, 39, 0
4, 199440, Note_on_c, 0, 41, 49
4, 199680, Note_on_c, 0, 53, 49
4, 199920, Note_on_c, 0, 53, 0
4, 199920, Note_on_c, 0, 41, 0
4, 199920, Note_on_c, 0, 53, 49
4, 199967, Note_on_c, 0, 53, 0
4, 200160, Note_on_c, 0, 53, 49
4, 200207, Note_on_c, 0, 53, 0
4, 200400, Note_on_c, 0, 53, 49
4, 200447, Note_on_c, 0, 53, 0
4, 200640, Note_on_c, 0, 53, 49
4, 200687, Note_on_c, 0, 53, 0
4, 200880, Note_on_c, 0, 53, 49
4, 200927, Note_on_c, 0, 53, 0
4, 201120, Control_c, 0, 64, 127
4, 201120, Note_on_c, 0, 54, 49
4, 201240, Note_on_c, 0, 54, 0
4, 201240, Note_on_c, 0, 53, 49
4, 201360, Note_on_c, 0, 53, 0
4, 201360, Note_on_c, 0, 51, 49
4, 201480, Note_on_c, 0, 51, 0
4, 201480, Note_on_c, 0, 49, 49
4, 201600, Note_on_c, 0, 49, 0
4, 201600, Note_on_c, 0, 48, 49
4, 201720, Note_on_c, 0, 48, 0
4, 201720, Note_on_c, 0, 46, 49
4, 201840, Note_on_c, 0, 46, 0
4, 201840, Note_on_c, 0, 45, 49
4, 201960, Note_on_c, 0, 45, 0
4, 201960, Note_on_c, 0, 48, 49
4, 202080, Note_on_c, 0, 48, 0
4, 202080, Note_on_c, 0, 51, 49
4, 202200, Note_on_c, 0, 51, 0
4, 202200, Note_on_c, 0, 54, 49
4, 202320, Note_on_c, 0, 54, 0
4, 202320, Note_on_c, 0, 53, 49
4, 202440, Note_on_c, 0, 53, 0
4, 202440, Control_c, 0, 64, 0
4, 202440, Note_on_c, 0, 51, 49
4, 202560, Note_on_c, 0, 51, 0
4, 202560, Control_c, 0, 64, 127
4, 202560, Note_on_c, 0, 49, 49
4, 202680, Note_on_c, 0, 49, 0
4, 202680, Note_on_c, 0, 48, 49
4, 202800, Note_on_c, 0, 48, 0
4, 202800, Note_on_c, 0, 46, 49
4, 202920, Note_on_c, 0, 46, 0
4, 202920, Note_on_c, 0, 49, 49
4, 203040, Note_on_c, 0, 49, 0
4, 203040, Note_on_c, 0, 48, 49
4, 203160, Note_on_c, 0, 48, 0
4, 203160, Note_on_c, 0, 46, 49
4, 203280, Note_on_c, 0, 46, 0
4, 203280, Note_on_c, 0, 53, 49
4, 203400, Note_on_c, 0, 53, 0
4, 203400, Note_on_c, 0, 51, 49
4, 203520, Note_on_c, 0, 51, 0
4, 203520, Note_on_c, 0, 49, 49
4, 203640, Note_on_c, 0, 49, 0
4, 203640, Note_on_c, 0, 53, 49
4, 203760, Note_on_c, 0, 53, 0
4, 203760, Note_on_c, 0, 51, 49
4, 203880, Note_on_c, 0, 51, 0
4, 203880, Note_on_c, 0, 49, 49
4, 204000, Note_on_c, 0, 49, 0
4, 204000, Control_c, 0, 64, 0
4, 204000, Note_on_c, 0, 48, 49
4, 204240, Note_on_c, 0, 48, 0
4, 204720, Note_on_c, 0, 52, 49
4, 204960, Note_on_c, 0, 52, 0
4, 205440, Note_on_c, 0, 53, 49
4, 205680, Note_on_c, 0, 53, 0
4, 206160, Note_on_c, 0, 36, 49
4, 206160, Note_on_c, 0, 48, 49
4, 206400, Note_on_c, 0, 48, 0
4, 206400, Note_on_c, 0, 36, 0
4, 206880, Note_on_c, 0, 37, 49
4, 206880, Note_on_c, 0, 49, 49
4, 207120, Note_on_c, 0, 49, 0
4, 207120, Note_on_c, 0, 37, 0
4, 207600, Note_on_c, 0, 34, 49
4, 207600, Note_on_c, 0, 46, 49
4, 207840, Note_on_c, 0, 46, 0
4, 207840, Note_on_c, 0, 34, 0
4, 208080, Note_on_c, 0, 48, 49
4, 208320, Note_on_c, 0, 36, 49
4, 208320, Note_on_c, 0, 60, 49
4, 208560, Note_on_c, 0, 60, 0
4, 208560, Note_on_c, 0, 36, 0
4, 208560, Note_on_c, 0, 48, 0
4, 208560, Note_on_c, 0, 60, 49
4, 208607, Note_on_c, 0, 60, 0
4, 208800, Note_on_c, 0, 60, 49
4, 208847, Note_on_c, 0, 60, 0
4, 209040, Note_on_c, 0, 60, 49
4, 209087, Note_on_c, 0, 60, 0
4, 209280, Note_on_c, 0, 60, 49
4, 209327, Note_on_c, 0, 60, 0
4, 209520, Note_on_c, 0, 60, 49
4, 209567, Note_on_c, 0, 60, 0
4, 209760, Control_c, 0, 64, 127
4, 209760, Note_on_c, 0, 61, 49
4, 209880, Note_on_c, 0, 61, 0
4, 209880, Note_on_c, 0, 60, 49
4, 210000, Note_on_c, 0, 60, 0
4, 210000, Note_on_c, 0, 58, 49
4, 210120, Note_on_c, 0, 58, 0
4, 210120, Note_on_c, 0, 56, 49
4, 210240, Note_on_c, 0, 56, 0
4, 210240, Note_on_c, 0, 55, 49
4, 210360, Note_on_c, 0, 55, 0
4, 210360, Note_on_c, 0, 53, 49
4, 210480, Note_on_c, 0, 53, 0
4, 210480, Note_on_c, 0, 51, 49
4, 210600, Note_on_c, 0, 51, 0
4, 210600, Note_on_c, 0, 55, 49
4, 210720, Note_on_c, 0, 55, 0
4, 210720, Note_on_c, 0, 58, 49
4, 210840, Note_on_c, 0, 58, 0
4, 210840, Note_on_c, 0, 61, 49
4, 210960, Note_on_c, 0, 61, 0
4, 210960, Note_on_c, 0, 60, 49
4, 211080, Note_on_c, 0, 60, 0
4, 211080, Note_on_c, 0, 58, 49
4, 211200, Note_on_c, 0, 58, 0
4, 211200, Control_c, 0, 64, 0
4, 211200, Note_on_c, 0, 56, 49
4, 211440, Note_on_c, 0, 56, 0
4, 211920, Note_on_c, 0, 51, 49
4, 212160, Note_on_c, 0, 51, 0
4, 212640, Note_on_c, 0, 56, 49
4, 212880, Note_on_c, 0, 56, 0
4, 213360, Note_on_c, 0, 53, 49
4, 213600, Note_on_c, 0, 53, 0
4, 214080, Note_on_c, 0, 58, 49
4, 214080, Note_on_c, 0, 61, 49
4, 214320, Note_on_c, 0, 61, 0
4, 214320, Note_on_c, 0, 58, 0
4, 214800, Note_on_c, 0, 53, 49
4, 214800, Note_on_c, 0, 63, 49
4, 215040, Note_on_c, 0, 63, 0
4, 215040, Note_on_c, 0, 53, 0
4, 215520, Note_on_c, 0, 58, 49
4, 215760, Note_on_c, 0, 58, 0
4, 216240, Note_on_c, 0, 58, 49
4, 216480, Note_on_c, 0, 58, 0
4, 216720, Note_on_c, 0, 36, 49
4, 216720, Note_on_c, 0, 48, 49
4, 216960, Note_on_c, 0, 48, 0
4, 216960, Note_on_c, 0, 36, 0
4, 216960, Note_on_c, 0, 48, 49
4, 216960, Note_on_c, 0, 60, 49
4, 217200, Note_on_c, 0, 60, 0
4, 217200, Note_on_c, 0, 48, 0
4, 217200, Note_on_c, 0, 48, 49
4, 217200, Note_on_c, 0, 60, 49
4, 217247, Note_on_c, 0, 60, 0
4, 217247, Note_on_c, 0, 48, 0
4, 217440, Note_on_c, 0, 48, 49
4, 217440, Note_on_c, 0, 60, 49
4, 217487, Note_on_c, 0, 60, 0
4, 217487, Note_on_c, 0, 48, 0
4, 217680, Note_on_c, 0, 48, 49
4, 217680, Note_on_c, 0, 60, 49
4, 217920, Note_on_c, 0, 60, 0
4, 217920, Note_on_c, 0, 48, 0
4, 218160, Note_on_c, 0, 36, 62
4, 218160, Note_on_c, 0, 48, 62
4, 218400, Note_on_c, 0, 48, 0
4, 218400, Note_on_c, 0, 36, 0
4, 218400, Note_on_c, 0, 60, 62
4, 218640, Note_on_c, 0, 60, 0
4, 218640, Note_on_c, 0, 60, 62
4, 218687, Note_on_c, 0, 60, 0
4, 218880, Note_on_c, 0, 60, 62
4, 218927, Note_on_c, 0, 60, 0
4, 219120, Note_on_c, 0, 60, 62
4, 219360, Note_on_c, 0, 60, 0
4, 219360, Note_on_c, 0, 58, 62
4, 219600, Note_on_c, 0, 58, 0
4, 219600, Note_on_c, 0, 58, 62
4, 219647, Note_on_c, 0, 58, 0
4, 220080, Note_on_c, 0, 56, 62
4, 220127, Note_on_c, 0, 56, 0
4, 220320, Note_on_c, 0, 56, 62
4, 220367, Note_on_c, 0, 56, 0
4, 220560, Note_on_c, 0, 56, 62
4, 220800, Note_on_c, 0, 56, 0
4, 220800, Note_on_c, 0, 55, 62
4, 221040, Note_on_c, 0, 55, 0
4, 221040, Note_on_c, 0, 55, 62
4, 221087, Note_on_c, 0, 55, 0
4, 221520, Note_on_c, 0, 60, 62
4, 221567, Note_on_c, 0, 60, 0
4, 221760, Note_on_c, 0, 60, 62
4, 221807, Note_on_c, 0, 60, 0
4, 222000, Note_on_c, 0, 60, 62
4, 222240, Note_on_c, 0, 60, 0
4, 222240, Note_on_c, 0, 58, 62
4, 222480, Note_on_c, 0, 58, 0
4, 222480, Note_on_c, 0, 58, 62
4, 222527, Note_on_c, 0, 58, 0
4, 222960, Note_on_c, 0, 56, 62
4, 223007, Note_on_c, 0, 56, 0
4, 223200, Note_on_c, 0, 56, 62
4, 223247, Note_on_c, 0, 56, 0
4, 223440, Note_on_c, 0, 56, 62
4, 223680, Note_on_c, 0, 56, 0
4, 223680, Note_on_c, 0, 55, 62
4, 223920, Note_on_c, 0, 55, 0
4, 223920, Note_on_c, 0, 55, 62
4, 223967, Note_on_c, 0, 55, 0
4, 224400, Note_on_c, 0, 56, 75
4, 224400, Note_on_c, 0, 59, 75
4, 224447, Note_on_c, 0, 59, 0
4, 224447, Note_on_c, 0, 56, 0
4, 224640, Note_on_c, 0, 56, 75
4, 224640, Note_on_c, 0, 59, 75
4, 224687, Note_on_c, 0, 59, 0
4, 224687, Note_on_c, 0, 56, 0
4, 224880, Note_on_c, 0, 56, 75
4, 224880, Note_on_c, 0, 59, 75
4, 225120, Note_on_c, 0, 59, 0
4, 225120, Note_on_c, 0, 56, 0
4, 225120, Note_on_c, 0, 55, 75
4, 225120, Note_on_c, 0, 58, 75
4, 225360, Note_on_c, 0, 58, 0
4, 225360, Note_on_c, 0, 55, 0
4, 225360, Note_on_c, 0, 55, 75
4, 225360, Note_on_c, 0, 58, 75
4, 225407, Note_on_c, 0, 58, 0
4, 225407, Note_on_c, 0, 55, 0
4, 225840, Note_on_c, 0, 53, 75
4, 225840, Note_on_c, 0, 56, 75
4, 225887, Note_on_c, 0, 56, 0
4, 225887, Note_on_c, 0, 53, 0
4, 226080, Note_on_c, 0, 53, 75
4, 226080, Note_on_c, 0, 56, 75
4, 226127, Note_on_c, 0, 56, 0
4, 226127, Note_on_c, 0, 53, 0
4, 226320, Note_on_c, 0, 53, 75
4, 226320, Note_on_c, 0, 56, 75
4, 226560, Note_on_c, 0, 56, 0
4, 226560, Note_on_c, 0, 53, 0
4, 226560, Note_on_c, 0, 55, 75
4, 226800, Note_on_c, 0, 55, 0
4, 226800, Note_on_c, 0, 55, 75
4, 226847, Note_on_c, 0, 55, 0
4, 227040, Control_c, 0, 64, 127
4, 227040, Note_on_c, 0, 53, 88
4, 227160, Note_on_c, 0, 53, 0
4, 227160, Note_on_c, 0, 55, 88
4, 227280, Note_on_c, 0, 55, 0
4, 227280, Note_on_c, 0, 56, 88
4, 227400, Note_on_c, 0, 56, 0
4, 227400, Note_on_c, 0, 53, 88
4, 227520, Note_on_c, 0, 53, 0
4, 227520, Note_on_c, 0, 55, 88
4, 227640, Note_on_c, 0, 55, 0
4, 227640, Note_on_c, 0, 56, 88
4, 227760, Note_on_c, 0, 56, 0
4, 227760, Note_on_c, 0, 49, 88
4, 227880, Note_on_c, 0, 49, 0
4, 227880, Note_on_c, 0, 51, 88
4, 228000, Note_on_c, 0, 51, 0
4, 228000, Note_on_c, 0, 53, 88
4, 228120, Note_on_c, 0, 53, 0
4, 228120, Note_on_c, 0, 49, 88
4, 228240, Note_on_c, 0, 49, 0
4, 228240, Note_on_c, 0, 51, 88
4, 228360, Note_on_c, 0, 51, 0
4, 228360, Control_c, 0, 64, 0
4, 228360, Note_on_c, 0, 53, 88
4, 228480, Note_on_c, 0, 53, 0
4, 228480, Control_c, 0, 64, 127
4, 228480, Note_on_c, 0, 46, 88
4, 228600, Note_on_c, 0, 46, 0
4, 228600, Note_on_c, 0, 48, 88
4, 228720, Note_on_c, 0, 48, 0
4, 228720, Note_on_c, 0, 49, 88
4, 228840, Note_on_c, 0, 49, 0
4, 228840, Note_on_c, 0, 46, 88
4, 228960, Note_on_c, 0, 46, 0
4, 228960, Note_on_c, 0, 48, 88
4, 229080, Note_on_c, 0, 48, 0
4, 229080, Note_on_c, 0, 49, 88
4, 229200, Note_on_c, 0, 49, 0
4, 229200, Note_on_c, 0, 43, 88
4, 229320, Note_on_c, 0, 43, 0
4, 229320, Note_on_c, 0, 44, 88
4, 229440, Note_on_c, 0, 44, 0
4, 229440, Note_on_c, 0, 46, 88
4, 229560, Note_on_c, 0, 46, 0
4, 229560, Note_on_c, 0, 43, 88
4, 229680, Note_on_c, 0, 43, 0
4, 229680, Note_on_c, 0, 44, 88
4, 229800, Note_on_c, 0, 44, 0
4, 229800, Note_on_c, 0, 46, 88
4, 229920, Note_on_c, 0, 46, 0
4, 229920, Note_on_c, 0, 40, 88
4, 230040, Note_on_c, 0, 40, 0
4, 230040, Note_on_c, 0, 41, 88
4, 230160, Note_on_c, 0, 41, 0
4, 230160, Note_on_c, 0, 43, 88
4, 230280, Note_on_c, 0, 43, 0
4, 230280, Note_on_c, 0, 40, 88
4, 230400, Note_on_c, 0, 40, 0
4, 230400, Note_on_c, 0, 41, 88
4, 230520, Note_on_c, 0, 41, 0
4, 230520, Control_c, 0, 64, 0
4, 230520, Note_on_c, 0, 43, 88
4, 230640, Note_on_c, 0, 43, 0
4, 230640, Note_on_c, 0, 36, 88
4, 231120, Note_on_c, 0, 36, 0
4, 231120, Note_on_c, 0, 36, 88
4, 231120, Note_on_c, 0, 48, 88
4, 231360, Note_on_c, 0, 48, 0
4, 231360, Note_on_c, 0, 36, 0
4, 231360, Note_on_c, 0, 41, 88
4, 231360, Note_on_c, 0, 53, 88
4, 231600, Note_on_c, 0, 53, 0
4, 231600, Note_on_c, 0, 41, 0
4, 231600, Note_on_c, 0, 41, 88
4, 231600, Note_on_c, 0, 53, 88
4, 231647, Note_on_c, 0, 53, 0
4, 231647, Note_on_c, 0, 41, 0
4, 231840, Note_on_c, 0, 41, 88
4, 231840, Note_on_c, 0, 53, 88
4, 231887, Note_on_c, 0, 53, 0
4, 231887, Note_on_c, 0, 41, 0
4, 232080, Note_on_c, 0, 41, 88
4, 232080, Note_on_c, 0, 53, 88
4, 232320, Note_on_c, 0, 53, 0
4, 232320, Note_on_c, 0, 41, 0
4, 232320, Note_on_c, 0, 40, 88
4, 232320, Note_on_c, 0, 52, 88
4, 232560, Note_on_c, 0, 52, 0
4, 232560, Note_on_c, 0, 40, 0
4, 232560, Note_on_c, 0, 40, 88
4, 232560, Note_on_c, 0, 52, 88
4, 232607, Note_on_c, 0, 52, 0
4, 232607, Note_on_c, 0, 40, 0
4, 233040, Note_on_c, 0, 39, 88
4, 233040, Note_on_c, 0, 51, 88
4, 233087, Note_on_c, 0, 51, 0
4, 233087, Note_on_c, 0, 39, 0
4, 233280, Note_on_c, 0, 39, 88
4, 233280, Note_on_c, 0, 51, 88
4, 233327, Note_on_c, 0, 51, 0
4, 233327, Note_on_c, 0, 39, 0
4, 233520, Note_on_c, 0, 39, 88
4, 233520, Note_on_c, 0, 51, 88
4, 233760, Note_on_c, 0, 51, 0
4, 233760, Note_on_c, 0, 39, 0
4, 233760, Note_on_c, 0, 37, 88
4, 233760, Note_on_c, 0, 49, 88
4, 234000, Note_on_c, 0, 49, 0
4, 234000, Note_on_c, 0, 37, 0
4, 234000, Note_on_c, 0, 37, 88
4, 234000, Note_on_c, 0, 49, 88
4, 234047, Note_on_c, 0, 49, 0
4, 234047, Note_on_c, 0, 37, 0
4, 234480, Note_on_c, 0, 36, 88
4, 234480, Note_on_c, 0, 48, 88
4, 234527, Note_on_c, 0, 48, 0
4, 234527, Note_on_c, 0, 36, 0
4, 234720, Note_on_c, 0, 36, 88
4, 234720, Note_on_c, 0, 48, 88
4, 234767, Note_on_c, 0, 48, 0
4, 234767, Note_on_c, 0, 36, 0
4, 234960, Note_on_c, 0, 36, 88
4, 234960, Note_on_c, 0, 48, 88
4, 235200, Note_on_c, 0, 48, 0
4, 235200, Note_on_c, 0, 36, 0
4, 235200, Note_on_c, 0, 35, 88
4, 235200, Note_on_c, 0, 47, 88
4, 235440, Note_on_c, 0, 47, 0
4, 235440, Note_on_c, 0, 35, 0
4, 235440, Note_on_c, 0, 35, 88
4, 235440, Note_on_c, 0, 47, 88
4, 235487, Note_on_c, 0, 47, 0
4, 235487, Note_on_c, 0, 35, 0
4, 235920, Note_on_c, 0, 34, 88
4, 235920, Note_on_c, 0, 46, 88
4, 235967, Note_on_c, 0, 46, 0
4, 235967, Note_on_c, 0, 34, 0
4, 236160, Note_on_c, 0, 34, 88
4, 236160, Note_on_c, 0, 46, 88
4, 236207, Note_on_c, 0, 46, 0
4, 236207, Note_on_c, 0, 34, 0
4, 236400, Note_on_c, 0, 34, 101
4, 236400, Note_on_c, 0, 46, 101
4, 236640, Note_on_c, 0, 46, 0
4, 236640, Note_on_c, 0, 34, 0
4, 236640, Note_on_c, 0, 32, 101
4, 236640, Note_on_c, 0, 44, 101
4, 236880, Note_on_c, 0, 44, 0
4, 236880, Note_on_c, 0, 32, 0
4, 236880, Note_on_c, 0, 32, 101
4, 236880, Note_on_c, 0, 44, 101
4, 236927, Note_on_c, 0, 44, 0
4, 236927, Note_on_c, 0, 32, 0
4, 237120, Note_on_c, 0, 37, 101
4, 237120, Note_on_c, 0, 49, 101
4, 237167, Note_on_c, 0, 49, 0
4, 237167, Note_on_c, 0, 37, 0
4, 237360, Note_on_c, 0, 37, 101
4, 237360, Note_on_c, 0, 49, 101
4, 237407, Note_on_c, 0, 49, 0
4, 237407, Note_on_c, 0, 37, 0
4, 237600, Note_on_c, 0, 37, 101
4, 237600, Note_on_c, 0, 49, 101
4, 237647, Note_on_c, 0, 49, 0
4, 237647, Note_on_c, 0, 37, 0
4, 237840, Note_on_c, 0, 35, 101
4, 237840, Note_on_c, 0, 47, 101
4, 237887, Note_on_c, 0, 47, 0
4, 237887, Note_on_c, 0, 35, 0
4, 238080, Note_on_c, 0, 35, 101
4, 238080, Note_on_c, 0, 47, 101
4, 238127, Note_on_c, 0, 47, 0
4, 238127, Note_on_c, 0, 35, 0
4, 238320, Note_on_c, 0, 35, 101
4, 238320, Note_on_c, 0, 47, 101
4, 238367, Note_on_c, 0, 47, 0
4, 238367, Note_on_c, 0, 35, 0
4, 238560, Note_on_c, 0, 36, 101
4, 238560, Note_on_c, 0, 48, 101
4, 238607, Note_on_c, 0, 48, 0
4, 238607, Note_on_c, 0, 36, 0
4, 239280, Note_on_c, 0, 36, 101
4, 239280, Note_on_c, 0, 48, 101
4, 239327, Note_on_c, 0, 48, 0
4, 239327, Note_on_c, 0, 36, 0
4, 240000, Note_on_c, 0, 29, 101
4, 240000, Note_on_c, 0, 41, 101
4, 240047, Note_on_c, 0, 41, 0
4, 240047, Note_on_c, 0, 29, 0
4, 240047, End_track
5, 0, Start_track
5, 0, Title_t, "Grand Piano"
5, 0, Program_c, 0, 0
5, 0, Control_c, 0, 7, 115
5, 0, Control_c, 0, 10, 48
5, 14640, Note_on_c, 0, 48, 88
5, 14880, Note_on_c, 0, 48, 0
5, 14880, Note_on_c, 0, 60, 88
5, 15120, Note_on_c, 0, 60, 0
5, 15120, Note_on_c, 0, 60, 88
5, 15167, Note_on_c, 0, 60, 0
5, 15360, Note_on_c, 0, 60, 88
5, 15407, Note_on_c, 0, 60, 0
5, 15600, Note_on_c, 0, 60, 88
5, 15647, Note_on_c, 0, 60, 0
5, 15840, Note_on_c, 0, 60, 88
5, 15887, Note_on_c, 0, 60, 0
5, 16080, Note_on_c, 0, 60, 88
5, 16127, Note_on_c, 0, 60, 0
5, 16320, Control_c, 0, 64, 127
5, 16320, Note_on_c, 0, 61, 88
5, 16440, Note_on_c, 0, 61, 0
5, 16440, Note_on_c, 0, 60, 88
5, 16560, Note_on_c, 0, 60, 0
5, 16560, Note_on_c, 0, 58, 88
5, 16680, Note_on_c, 0, 58, 0
5, 16680, Note_on_c, 0, 56, 88
5, 16800, Note_on_c, 0, 56, 0
5, 16800, Note_on_c, 0, 55, 88
5, 16920, Note_on_c, 0, 55, 0
5, 16920, Note_on_c, 0, 53, 88
5, 17040, Note_on_c, 0, 53, 0
5, 17040, Note_on_c, 0, 52, 88
5, 17160, Note_on_c, 0, 52, 0
5, 17160, Note_on_c, 0, 55, 88
5, 17280, Note_on_c, 0, 55, 0
5, 17280, Note_on_c, 0, 58, 88
5, 17400, Note_on_c, 0, 58, 0
5, 17400, Note_on_c, 0, 61, 88
5, 17520, Note_on_c, 0, 61, 0
5, 17520, Note_on_c, 0, 60, 88
5, 17640, Note_on_c, 0, 60, 0
5, 17640, Control_c, 0, 64, 0
5, 17640, Note_on_c, 0, 58, 88
5, 17760, Note_on_c, 0, 58, 0
5, 21840, Note_on_c, 0, 41, 88
5, 22080, Note_on_c, 0, 41, 0
5, 22080, Note_on_c, 0, 53, 88
5, 22320, Note_on_c, 0, 53, 0
5, 22320, Note_on_c, 0, 53, 88
5, 22367, Note_on_c, 0, 53, 0
5, 22560, Note_on_c, 0, 53, 88
5, 22607, Note_on_c, 0, 53, 0
5, 22800, Note_on_c, 0, 53, 88
5, 22847, Note_on_c, 0, 53, 0
5, 23040, Note_on_c, 0, 53, 88
5, 23087, Note_on_c, 0, 53, 0
5, 23280, Note_on_c, 0, 53, 88
5, 23327, Note_on_c, 0, 53, 0
5, 31440, Note_on_c, 0, 51, 88
5, 32880, Note_on_c, 0, 51, 0
5, 32880, Note_on_c, 0, 49, 88
5, 33600, Note_on_c, 0, 49, 0
5, 52320, Note_on_c, 0, 51, 88
5, 53040, Note_on_c, 0, 51, 0
5, 53040, Note_on_c, 0, 51, 88
5, 53760, Note_on_c, 0, 51, 0
5, 53760, Note_on_c, 0, 51, 88
5, 54480, Note_on_c, 0, 51, 0
5, 54480, Note_on_c, 0, 51, 88
5, 55200, Note_on_c, 0, 51, 0
5, 58800, Note_on_c, 0, 39, 88
5, 59520, Note_on_c, 0, 39, 0
5, 59520, Note_on_c, 0, 44, 75
5, 60000, Note_on_c, 0, 44, 0
5, 72480, Note_on_c, 0, 47, 101
5, 73440, Note_on_c, 0, 47, 0
5, 73440, Note_on_c, 0, 53, 75
5, 73560, Note_on_c, 0, 53, 0
5, 73560, Note_on_c, 0, 51, 75
5, 73680, Note_on_c, 0, 51, 0
5, 73680, Note_on_c, 0, 50, 75
5, 73800, Note_on_c, 0, 50, 0
5, 73800, Note_on_c, 0, 48, 75
5, 73920, Note_on_c, 0, 48, 0
5, 73920, Note_on_c, 0, 47, 101
5, 74880, Note_on_c, 0, 47, 0
5, 74880, Note_on_c, 0, 53, 75
5, 75000, Note_on_c, 0, 53, 0
5, 75000, Note_on_c, 0, 51, 75
5, 75120, Note_on_c, 0, 51, 0
5, 75120, Note_on_c, 0, 50, 75
5, 75240, Note_on_c, 0, 50, 0
5, 75240, Note_on_c, 0, 48, 75
5, 75360, Note_on_c, 0, 48, 0
5, 76800, Note_on_c, 0, 51, 75
5, 77520, Note_on_c, 0, 51, 0
5, 77520, Note_on_c, 0, 52, 75
5, 78240, Note_on_c, 0, 52, 0
5, 78240, Note_on_c, 0, 53, 75
5, 79680, Note_on_c, 0, 53, 0
5, 79680, Note_on_c, 0, 55, 75
5, 80400, Note_on_c, 0, 55, 0
5, 80400, Note_on_c, 0, 55, 75
5, 81120, Note_on_c, 0, 55, 0
5, 81120, Note_on_c, 0, 56, 75
5, 81840, Note_on_c, 0, 56, 0
5, 81840, Note_on_c, 0, 57, 75
5, 82560, Note_on_c, 0, 57, 0
5, 82560, Note_on_c, 0, 55, 75
5, 84000, Note_on_c, 0, 55, 0
5, 84000, Note_on_c, 0, 55, 75
5, 84480, Note_on_c, 0, 55, 0
5, 85200, Note_on_c, 0, 55, 75
5, 85440, Note_on_c, 0, 55, 0
5, 85440, Note_on_c, 0, 60, 75
5, 85680, Note_on_c, 0, 60, 0
5, 85680, Note_on_c, 0, 60, 75
5, 85727, Note_on_c, 0, 60, 0
5, 85920, Note_on_c, 0, 60, 75
5, 85967, Note_on_c, 0, 60, 0
5, 86160, Note_on_c, 0, 60, 75
5, 86400, Note_on_c, 0, 60, 0
5, 86400, Note_on_c, 0, 59, 75
5, 86640, Note_on_c, 0, 59, 0
5, 86640, Note_on_c, 0, 59, 75
5, 86687, Note_on_c, 0, 59, 0
5, 87120, Note_on_c, 0, 58, 75
5, 87360, Note_on_c, 0, 58, 0
5, 87360, Note_on_c, 0, 58, 75
5, 87407, Note_on_c, 0, 58, 0
5, 87600, Note_on_c, 0, 58, 75
5, 87647, Note_on_c, 0, 58, 0
5, 87840, Note_on_c, 0, 56, 75
5, 88080, Note_on_c, 0, 56, 0
5, 88080, Note_on_c, 0, 56, 75
5, 88127, Note_on_c, 0, 56, 0
5, 91200, Note_on_c, 0, 55, 75
5, 94080, Note_on_c, 0, 55, 0
5, 107040, Note_on_c, 0, 55, 75
5, 109920, Note_on_c, 0, 55, 0
5, 109920, Note_on_c, 0, 55, 88
5, 110640, Note_on_c, 0, 55, 0
5, 110640, Note_on_c, 0, 57, 88
5, 111360, Note_on_c, 0, 57, 0
5, 111360, Note_on_c, 0, 59, 88
5, 112080, Note_on_c, 0, 59, 0
5, 112080, Note_on_c, 0, 60, 88
5, 112800, Note_on_c, 0, 60, 0
5, 117840, Note_on_c, 0, 56, 88
5, 118560, Note_on_c, 0, 56, 0
5, 118560, Note_on_c, 0, 55, 88
5, 119280, Note_on_c, 0, 55, 0
5, 119280, Note_on_c, 0, 56, 88
5, 120000, Note_on_c, 0, 56, 0
5, 122160, Note_on_c, 0, 43, 88
5, 122880, Note_on_c, 0, 43, 0
5, 134160, Note_on_c, 0, 51, 88
5, 134400, Note_on_c, 0, 51, 0
5, 134400, Note_on_c, 0, 56, 88
5, 134640, Note_on_c, 0, 56, 0
5, 134640, Note_on_c, 0, 56, 88
5, 134687, Note_on_c, 0, 56, 0
5, 134880, Note_on_c, 0, 56, 88
5, 134927, Note_on_c, 0, 56, 0
5, 135120, Note_on_c, 0, 56, 88
5, 135167, Note_on_c, 0, 56, 0
5, 135360, Note_on_c, 0, 56, 88
5, 135407, Note_on_c, 0, 56, 0
5, 135600, Note_on_c, 0, 56, 88
5, 135647, Note_on_c, 0, 56, 0
5, 140880, Note_on_c, 0, 61, 88
5, 141600, Note_on_c, 0, 61, 0
5, 141600, Note_on_c, 0, 60, 88
5, 142080, Note_on_c, 0, 60, 0
5, 147120, Note_on_c, 0, 53, 88
5, 147360, Note_on_c, 0, 53, 0
5, 147360, Note_on_c, 0, 59, 88
5, 148800, Note_on_c, 0, 59, 0
5, 151440, Note_on_c, 0, 55, 88
5, 151680, Note_on_c, 0, 55, 0
5, 151680, Note_on_c, 0, 61, 88
5, 153120, Note_on_c, 0, 61, 0
5, 154560, Note_on_c, 0, 56, 88
5, 155760, Note_on_c, 0, 56, 0
5, 157440, Note_on_c, 0, 60, 88
5, 158640, Note_on_c, 0, 60, 0
5, 170400, Note_on_c, 0, 48, 62
5, 171840, Note_on_c, 0, 48, 0
5, 171840, Note_on_c, 0, 48, 62
5, 173280, Note_on_c, 0, 48, 0
5, 173280, Note_on_c, 0, 48, 62
5, 174720, Note_on_c, 0, 48, 0
5, 174720, Note_on_c, 0, 48, 62
5, 176160, Note_on_c, 0, 48, 0
5, 176160, Note_on_c, 0, 48, 75
5, 177600, Note_on_c, 0, 48, 0
5, 177600, Note_on_c, 0, 48, 75
5, 179040, Note_on_c, 0, 48, 0
5, 179040, Note_on_c, 0, 53, 75
5, 179760, Note_on_c, 0, 53, 0
5, 179760, Note_on_c, 0, 51, 75
5, 180480, Note_on_c, 0, 51, 0
5, 180480, Note_on_c, 0, 49, 75
5, 181200, Note_on_c, 0, 49, 0
5, 181200, Note_on_c, 0, 45, 75
5, 181920, Note_on_c, 0, 45, 0
5, 201840, Note_on_c, 0, 41, 49
5, 202080, Note_on_c, 0, 41, 0
5, 209040, Note_on_c, 0, 52, 49
5, 209280, Note_on_c, 0, 52, 0
5, 209760, Note_on_c, 0, 53, 49
5, 210000, Note_on_c, 0, 53, 0
5, 210480, Note_on_c, 0, 51, 49
5, 210720, Note_on_c, 0, 51, 0
5, 218400, Note_on_c, 0, 48, 62
5, 219840, Note_on_c, 0, 48, 0
5, 219840, Note_on_c, 0, 48, 62
5, 221280, Note_on_c, 0, 48, 0
5, 221280, Note_on_c, 0, 48, 62
5, 222000, Note_on_c, 0, 48, 0
5, 222000, Note_on_c, 0, 48, 62
5, 222720, Note_on_c, 0, 48, 0
5, 222720, Note_on_c, 0, 48, 62
5, 223440, Note_on_c, 0, 48, 0
5, 223440, Note_on_c, 0, 48, 62
5, 224160, Note_on_c, 0, 48, 0
5, 224160, Note_on_c, 0, 48, 75
5, 225600, Note_on_c, 0, 48, 0
5, 225600, Note_on_c, 0, 48, 75
5, 227040, Note_on_c, 0, 48, 0
5, 227040, End_track
0, 0, End_of_file
