0, 0, Header, 1, 4, 480
1, 0, Start_track
1, 0, Title_t, "mendelssohn sechs praeludien und fugen op35 no6a praeludium"
1, 0, Copyright_t, "sequenced by Segundo G. Yogore,  2007,  dody@pldtdsl.net"
1, 0, Time_signature, 6, 2, 24, 8
1, 0, Key_signature, -2, "major"
1, 0, Tempo, 631579
1, 41520, Tempo, 652174
1, 41760, Tempo, 674157
1, 42000, Tempo, 697674
1, 42240, Tempo, 731707
1, 42480, Tempo, 759494
1, 42720, Tempo, 789474
1, 42960, Tempo, 821918
1, 43200, Tempo, 659341
1, 76080, Tempo, 681818
1, 76320, Tempo, 705882
1, 76560, Tempo, 731707
1, 76800, Tempo, 769231
1, 77040, Tempo, 800000
1, 77280, Tempo, 833333
1, 77520, Tempo, 869565
1, 77760, Tempo, 659341
1, 113520, Tempo, 681818
1, 113760, Tempo, 705882
1, 114000, Tempo, 731707
1, 114240, Tempo, 769231
1, 114480, Tempo, 800000
1, 114720, Tempo, 833333
1, 114960, Tempo, 869565
1, 115200, Tempo, 659341
1, 123600, Tempo, 681818
1, 123840, Tempo, 705882
1, 124080, Tempo, 731707
1, 124320, Tempo, 769231
1, 124560, Tempo, 800000
1, 124800, Tempo, 833333
1, 125040, Tempo, 869565
1, 125280, Tempo, 659341
1, 135120, Tempo, 681818
1, 135360, Time_signature, 11, 2, 24, 8
1, 135360, End_track
2, 0, Start_track
2, 0, Title_t, "Grand Piano"
2, 0, Program_c, 0, 0
2, 0, Control_c, 0, 7, 115
2, 0, Control_c, 0, 10, 86
2, 0, Note_on_c, 0, 65, 88
2, 0, Note_on_c, 0, 70, 88
2, 0, Note_on_c, 0, 74, 88
2, 0, Note_on_c, 0, 77, 88
2, 1440, Note_on_c, 0, 77, 0
2, 1440, Note_on_c, 0, 65, 0
2, 1440, Note_on_c, 0, 70, 0
2, 1440, Note_on_c, 0, 74, 0
2, 1440, Note_on_c, 0, 65, 88
2, 1440, Note_on_c, 0, 70, 88
2, 1440, Note_on_c, 0, 74, 88
2, 1440, Note_on_c, 0, 77, 88
2, 2880, Note_on_c, 0, 77, 0
2, 2880, Note_on_c, 0, 65, 0
2, 2880, Note_on_c, 0, 70, 0
2, 2880, Note_on_c, 0, 74, 0
2, 2880, Note_on_c, 0, 82, 88
2, 3360, Note_on_c, 0, 82, 0
2, 3360, Note_on_c, 0, 79, 88
2, 3840, Note_on_c, 0, 79, 0
2, 3840, Note_on_c, 0, 70, 88
2, 3840, Note_on_c, 0, 74, 88
2, 3840, Note_on_c, 0, 77, 88
2, 4320, Note_on_c, 0, 77, 0
2, 4320, Note_on_c, 0, 74, 0
2, 4320, Note_on_c, 0, 70, 0
2, 4320, Note_on_c, 0, 75, 88
2, 5680, Note_on_c, 0, 75, 88
2, 5720, Note_on_c, 0, 79, 88
2, 5760, Note_on_c, 0, 75, 0
2, 5760, Note_on_c, 0, 87, 88
2, 6240, Note_on_c, 0, 87, 0
2, 6240, Note_on_c, 0, 79, 0
2, 6240, Note_on_c, 0, 75, 0
2, 6240, Note_on_c, 0, 84, 88
2, 6720, Note_on_c, 0, 84, 0
2, 6720, Note_on_c, 0, 75, 88
2, 6720, Note_on_c, 0, 79, 88
2, 6720, Note_on_c, 0, 82, 88
2, 7200, Note_on_c, 0, 82, 0
2, 7200, Note_on_c, 0, 79, 0
2, 7200, Note_on_c, 0, 75, 0
2, 7200, Note_on_c, 0, 81, 88
2, 7680, Note_on_c, 0, 81, 0
2, 7680, Note_on_c, 0, 82, 88
2, 8160, Note_on_c, 0, 82, 0
2, 8160, Note_on_c, 0, 84, 88
2, 8640, Note_on_c, 0, 84, 0
2, 8640, Note_on_c, 0, 65, 88
2, 8640, Note_on_c, 0, 72, 88
2, 8640, Note_on_c, 0, 75, 88
2, 8640, Note_on_c, 0, 77, 88
2, 9360, Note_on_c, 0, 77, 0
2, 9360, Note_on_c, 0, 65, 0
2, 9360, Note_on_c, 0, 72, 0
2, 9360, Note_on_c, 0, 75, 0
2, 9360, Note_on_c, 0, 65, 88
2, 9360, Note_on_c, 0, 72, 88
2, 9360, Note_on_c, 0, 75, 88
2, 9360, Note_on_c, 0, 77, 88
2, 9600, Note_on_c, 0, 77, 0
2, 9600, Note_on_c, 0, 65, 0
2, 9600, Note_on_c, 0, 72, 0
2, 9600, Note_on_c, 0, 75, 0
2, 9600, Note_on_c, 0, 65, 88
2, 9600, Note_on_c, 0, 72, 88
2, 9600, Note_on_c, 0, 75, 88
2, 9600, Note_on_c, 0, 77, 88
2, 10080, Note_on_c, 0, 77, 0
2, 10080, Note_on_c, 0, 65, 0
2, 10080, Note_on_c, 0, 72, 0
2, 10080, Note_on_c, 0, 75, 0
2, 10080, Note_on_c, 0, 65, 88
2, 10080, Note_on_c, 0, 70, 88
2, 10080, Note_on_c, 0, 74, 88
2, 10080, Note_on_c, 0, 77, 88
2, 11520, Note_on_c, 0, 77, 0
2, 11520, Note_on_c, 0, 65, 0
2, 11520, Note_on_c, 0, 70, 0
2, 11520, Note_on_c, 0, 74, 0
2, 11520, Note_on_c, 0, 62, 88
2, 11520, Note_on_c, 0, 65, 88
2, 11520, Note_on_c, 0, 70, 88
2, 11520, Note_on_c, 0, 74, 88
2, 12960, Note_on_c, 0, 74, 0
2, 12960, Note_on_c, 0, 62, 0
2, 12960, Note_on_c, 0, 65, 0
2, 12960, Note_on_c, 0, 70, 0
2, 12960, Note_on_c, 0, 62, 88
2, 12960, Note_on_c, 0, 67, 88
2, 12960, Note_on_c, 0, 70, 88
2, 12960, Note_on_c, 0, 74, 88
2, 14400, Note_on_c, 0, 74, 0
2, 14400, Note_on_c, 0, 62, 0
2, 14400, Note_on_c, 0, 67, 0
2, 14400, Note_on_c, 0, 70, 0
2, 14400, Note_on_c, 0, 70, 88
2, 14400, Note_on_c, 0, 82, 88
2, 14880, Note_on_c, 0, 82, 0
2, 14880, Note_on_c, 0, 70, 0
2, 14880, Note_on_c, 0, 69, 88
2, 14880, Note_on_c, 0, 81, 88
2, 15360, Note_on_c, 0, 81, 0
2, 15360, Note_on_c, 0, 69, 0
2, 15360, Note_on_c, 0, 67, 88
2, 15360, Note_on_c, 0, 79, 88
2, 15840, Note_on_c, 0, 79, 0
2, 15840, Note_on_c, 0, 67, 0
2, 15840, Note_on_c, 0, 66, 88
2, 15840, Note_on_c, 0, 69, 88
2, 15840, Note_on_c, 0, 74, 88
2, 15840, Note_on_c, 0, 78, 88
2, 17280, Note_on_c, 0, 78, 0
2, 17280, Note_on_c, 0, 66, 0
2, 17280, Note_on_c, 0, 69, 0
2, 17280, Note_on_c, 0, 74, 0
2, 17280, Note_on_c, 0, 67, 75
2, 17280, Note_on_c, 0, 70, 75
2, 17280, Note_on_c, 0, 74, 75
2, 17280, Note_on_c, 0, 79, 75
2, 17760, Note_on_c, 0, 79, 0
2, 17760, Note_on_c, 0, 67, 0
2, 17760, Note_on_c, 0, 70, 0
2, 17760, Note_on_c, 0, 74, 0
2, 17760, Note_on_c, 0, 62, 75
2, 17760, Note_on_c, 0, 74, 75
2, 18240, Note_on_c, 0, 74, 0
2, 18240, Note_on_c, 0, 62, 0
2, 18240, Note_on_c, 0, 64, 75
2, 18240, Note_on_c, 0, 73, 75
2, 18240, Note_on_c, 0, 76, 75
2, 18720, Note_on_c, 0, 76, 0
2, 18720, Note_on_c, 0, 73, 0
2, 18720, Note_on_c, 0, 64, 0
2, 18720, Note_on_c, 0, 65, 75
2, 18720, Note_on_c, 0, 72, 75
2, 18720, Note_on_c, 0, 77, 75
2, 19680, Note_on_c, 0, 77, 0
2, 19680, Note_on_c, 0, 72, 0
2, 19680, Note_on_c, 0, 65, 0
2, 19680, Note_on_c, 0, 72, 75
2, 20160, Note_on_c, 0, 72, 0
2, 20160, Note_on_c, 0, 60, 75
2, 20160, Note_on_c, 0, 65, 75
2, 20160, Note_on_c, 0, 68, 75
2, 20160, Note_on_c, 0, 72, 75
2, 20640, Note_on_c, 0, 72, 0
2, 20640, Note_on_c, 0, 60, 0
2, 20640, Note_on_c, 0, 65, 0
2, 20640, Note_on_c, 0, 68, 0
2, 20640, Note_on_c, 0, 60, 75
2, 20640, Note_on_c, 0, 65, 75
2, 20640, Note_on_c, 0, 68, 75
2, 20640, Note_on_c, 0, 72, 75
2, 21120, Note_on_c, 0, 72, 0
2, 21120, Note_on_c, 0, 60, 0
2, 21120, Note_on_c, 0, 65, 0
2, 21120, Note_on_c, 0, 68, 0
2, 21120, Note_on_c, 0, 62, 75
2, 21120, Note_on_c, 0, 68, 75
2, 21120, Note_on_c, 0, 74, 75
2, 21600, Note_on_c, 0, 74, 0
2, 21600, Note_on_c, 0, 68, 0
2, 21600, Note_on_c, 0, 62, 0
2, 21600, Note_on_c, 0, 60, 75
2, 21600, Note_on_c, 0, 65, 75
2, 21600, Note_on_c, 0, 72, 75
2, 22560, Note_on_c, 0, 72, 0
2, 22560, Note_on_c, 0, 65, 0
2, 22560, Note_on_c, 0, 60, 0
2, 22560, Note_on_c, 0, 59, 75
2, 22560, Note_on_c, 0, 71, 75
2, 23040, Note_on_c, 0, 71, 0
2, 23040, Note_on_c, 0, 59, 0
2, 23040, Note_on_c, 0, 58, 75
2, 23040, Note_on_c, 0, 67, 75
2, 23040, Note_on_c, 0, 70, 75
2, 23520, Note_on_c, 0, 70, 0
2, 23520, Note_on_c, 0, 67, 0
2, 23520, Note_on_c, 0, 58, 0
2, 23520, Note_on_c, 0, 58, 75
2, 23520, Note_on_c, 0, 67, 75
2, 23520, Note_on_c, 0, 70, 75
2, 24000, Note_on_c, 0, 70, 0
2, 24000, Note_on_c, 0, 67, 0
2, 24000, Note_on_c, 0, 58, 0
2, 24000, Note_on_c, 0, 58, 75
2, 24000, Note_on_c, 0, 67, 75
2, 24000, Note_on_c, 0, 70, 75
2, 24480, Note_on_c, 0, 70, 0
2, 24480, Note_on_c, 0, 67, 0
2, 24480, Note_on_c, 0, 58, 0
2, 24480, Note_on_c, 0, 70, 88
2, 24480, Note_on_c, 0, 76, 88
2, 24480, Note_on_c, 0, 79, 88
2, 24480, Note_on_c, 0, 82, 88
2, 25440, Note_on_c, 0, 82, 0
2, 25440, Note_on_c, 0, 70, 0
2, 25440, Note_on_c, 0, 76, 0
2, 25440, Note_on_c, 0, 79, 0
2, 25440, Note_on_c, 0, 69, 88
2, 25440, Note_on_c, 0, 77, 88
2, 25440, Note_on_c, 0, 81, 88
2, 25920, Note_on_c, 0, 81, 0
2, 25920, Note_on_c, 0, 77, 0
2, 25920, Note_on_c, 0, 69, 0
2, 25920, Note_on_c, 0, 67, 88
2, 25920, Note_on_c, 0, 70, 88
2, 25920, Note_on_c, 0, 74, 88
2, 25920, Note_on_c, 0, 79, 88
2, 26400, Note_on_c, 0, 79, 0
2, 26400, Note_on_c, 0, 67, 0
2, 26400, Note_on_c, 0, 70, 0
2, 26400, Note_on_c, 0, 74, 0
2, 26400, Note_on_c, 0, 62, 88
2, 26400, Note_on_c, 0, 74, 88
2, 27120, Note_on_c, 0, 74, 0
2, 27120, Note_on_c, 0, 62, 0
2, 27120, Note_on_c, 0, 79, 88
2, 27360, Note_on_c, 0, 79, 0
2, 27360, Note_on_c, 0, 65, 88
2, 27360, Note_on_c, 0, 77, 88
2, 28320, Note_on_c, 0, 77, 0
2, 28320, Note_on_c, 0, 65, 0
2, 28320, Note_on_c, 0, 64, 88
2, 28320, Note_on_c, 0, 76, 88
2, 28800, Note_on_c, 0, 76, 0
2, 28800, Note_on_c, 0, 64, 0
2, 28800, Control_c, 0, 64, 127
2, 28800, Note_on_c, 0, 65, 88
2, 28800, Note_on_c, 0, 77, 88
2, 29040, Note_on_c, 0, 77, 0
2, 29040, Note_on_c, 0, 65, 0
2, 29040, Note_on_c, 0, 57, 75
2, 29040, Note_on_c, 0, 60, 75
2, 29040, Note_on_c, 0, 65, 75
2, 29280, Note_on_c, 0, 65, 0
2, 29280, Note_on_c, 0, 60, 0
2, 29280, Note_on_c, 0, 57, 0
2, 29280, Note_on_c, 0, 60, 75
2, 29280, Note_on_c, 0, 65, 75
2, 29280, Note_on_c, 0, 69, 75
2, 29520, Note_on_c, 0, 69, 0
2, 29520, Note_on_c, 0, 65, 0
2, 29520, Note_on_c, 0, 60, 0
2, 29520, Note_on_c, 0, 65, 75
2, 29520, Note_on_c, 0, 69, 75
2, 29520, Note_on_c, 0, 72, 75
2, 29760, Note_on_c, 0, 72, 0
2, 29760, Note_on_c, 0, 69, 0
2, 29760, Note_on_c, 0, 65, 0
2, 29760, Note_on_c, 0, 69, 75
2, 29760, Note_on_c, 0, 72, 75
2, 29760, Note_on_c, 0, 77, 75
2, 30000, Note_on_c, 0, 77, 0
2, 30000, Note_on_c, 0, 72, 0
2, 30000, Note_on_c, 0, 69, 0
2, 30000, Control_c, 0, 64, 0
2, 30000, Note_on_c, 0, 72, 75
2, 30000, Note_on_c, 0, 77, 75
2, 30000, Note_on_c, 0, 81, 75
2, 30240, Note_on_c, 0, 81, 0
2, 30240, Note_on_c, 0, 77, 0
2, 30240, Note_on_c, 0, 72, 0
2, 30480, Control_c, 0, 64, 127
2, 30480, Note_on_c, 0, 57, 75
2, 30480, Note_on_c, 0, 62, 75
2, 30480, Note_on_c, 0, 65, 75
2, 30720, Note_on_c, 0, 65, 0
2, 30720, Note_on_c, 0, 62, 0
2, 30720, Note_on_c, 0, 57, 0
2, 30720, Note_on_c, 0, 62, 75
2, 30720, Note_on_c, 0, 65, 75
2, 30720, Note_on_c, 0, 69, 75
2, 30960, Note_on_c, 0, 69, 0
2, 30960, Note_on_c, 0, 65, 0
2, 30960, Note_on_c, 0, 62, 0
2, 30960, Note_on_c, 0, 65, 75
2, 30960, Note_on_c, 0, 69, 75
2, 30960, Note_on_c, 0, 74, 75
2, 31200, Note_on_c, 0, 74, 0
2, 31200, Note_on_c, 0, 69, 0
2, 31200, Note_on_c, 0, 65, 0
2, 31200, Note_on_c, 0, 69, 75
2, 31200, Note_on_c, 0, 74, 75
2, 31200, Note_on_c, 0, 77, 75
2, 31440, Note_on_c, 0, 77, 0
2, 31440, Note_on_c, 0, 74, 0
2, 31440, Note_on_c, 0, 69, 0
2, 31440, Control_c, 0, 64, 0
2, 31440, Note_on_c, 0, 74, 75
2, 31440, Note_on_c, 0, 77, 75
2, 31440, Note_on_c, 0, 81, 75
2, 31680, Note_on_c, 0, 81, 0
2, 31680, Note_on_c, 0, 77, 0
2, 31680, Note_on_c, 0, 74, 0
2, 31920, Control_c, 0, 64, 127
2, 31920, Note_on_c, 0, 57, 75
2, 31920, Note_on_c, 0, 60, 75
2, 31920, Note_on_c, 0, 65, 75
2, 32160, Note_on_c, 0, 65, 0
2, 32160, Note_on_c, 0, 60, 0
2, 32160, Note_on_c, 0, 57, 0
2, 32160, Note_on_c, 0, 60, 75
2, 32160, Note_on_c, 0, 65, 75
2, 32160, Note_on_c, 0, 69, 75
2, 32400, Note_on_c, 0, 69, 0
2, 32400, Note_on_c, 0, 65, 0
2, 32400, Note_on_c, 0, 60, 0
2, 32400, Note_on_c, 0, 65, 75
2, 32400, Note_on_c, 0, 69, 75
2, 32400, Note_on_c, 0, 72, 75
2, 32640, Note_on_c, 0, 72, 0
2, 32640, Note_on_c, 0, 69, 0
2, 32640, Note_on_c, 0, 65, 0
2, 32640, Note_on_c, 0, 69, 75
2, 32640, Note_on_c, 0, 72, 75
2, 32640, Note_on_c, 0, 77, 75
2, 32880, Note_on_c, 0, 77, 0
2, 32880, Note_on_c, 0, 72, 0
2, 32880, Note_on_c, 0, 69, 0
2, 32880, Control_c, 0, 64, 0
2, 32880, Note_on_c, 0, 72, 75
2, 32880, Note_on_c, 0, 77, 75
2, 32880, Note_on_c, 0, 81, 75
2, 33120, Note_on_c, 0, 81, 0
2, 33120, Note_on_c, 0, 77, 0
2, 33120, Note_on_c, 0, 72, 0
2, 33360, Control_c, 0, 64, 127
2, 33360, Note_on_c, 0, 57, 75
2, 33360, Note_on_c, 0, 59, 75
2, 33360, Note_on_c, 0, 65, 75
2, 33600, Note_on_c, 0, 65, 0
2, 33600, Note_on_c, 0, 59, 0
2, 33600, Note_on_c, 0, 57, 0
2, 33600, Note_on_c, 0, 59, 75
2, 33600, Note_on_c, 0, 65, 75
2, 33600, Note_on_c, 0, 69, 75
2, 33840, Note_on_c, 0, 69, 0
2, 33840, Note_on_c, 0, 65, 0
2, 33840, Note_on_c, 0, 59, 0
2, 33840, Note_on_c, 0, 65, 75
2, 33840, Note_on_c, 0, 69, 75
2, 33840, Note_on_c, 0, 71, 75
2, 34080, Note_on_c, 0, 71, 0
2, 34080, Note_on_c, 0, 69, 0
2, 34080, Note_on_c, 0, 65, 0
2, 34080, Note_on_c, 0, 69, 75
2, 34080, Note_on_c, 0, 71, 75
2, 34080, Note_on_c, 0, 77, 75
2, 34320, Note_on_c, 0, 77, 0
2, 34320, Note_on_c, 0, 71, 0
2, 34320, Note_on_c, 0, 69, 0
2, 34320, Control_c, 0, 64, 0
2, 34320, Note_on_c, 0, 71, 75
2, 34320, Note_on_c, 0, 77, 75
2, 34320, Note_on_c, 0, 81, 75
2, 34560, Note_on_c, 0, 81, 0
2, 34560, Note_on_c, 0, 77, 0
2, 34560, Note_on_c, 0, 71, 0
2, 34800, Control_c, 0, 64, 127
2, 34800, Note_on_c, 0, 57, 75
2, 34800, Note_on_c, 0, 60, 75
2, 34800, Note_on_c, 0, 64, 75
2, 35040, Note_on_c, 0, 64, 0
2, 35040, Note_on_c, 0, 60, 0
2, 35040, Note_on_c, 0, 57, 0
2, 35040, Note_on_c, 0, 60, 75
2, 35040, Note_on_c, 0, 64, 75
2, 35040, Note_on_c, 0, 69, 75
2, 35280, Note_on_c, 0, 69, 0
2, 35280, Note_on_c, 0, 64, 0
2, 35280, Note_on_c, 0, 60, 0
2, 35280, Note_on_c, 0, 64, 75
2, 35280, Note_on_c, 0, 69, 75
2, 35280, Note_on_c, 0, 72, 75
2, 35520, Note_on_c, 0, 72, 0
2, 35520, Note_on_c, 0, 69, 0
2, 35520, Note_on_c, 0, 64, 0
2, 35520, Note_on_c, 0, 69, 75
2, 35520, Note_on_c, 0, 72, 75
2, 35520, Note_on_c, 0, 76, 75
2, 35760, Note_on_c, 0, 76, 0
2, 35760, Note_on_c, 0, 72, 0
2, 35760, Note_on_c, 0, 69, 0
2, 35760, Control_c, 0, 64, 0
2, 35760, Note_on_c, 0, 72, 75
2, 35760, Note_on_c, 0, 76, 75
2, 35760, Note_on_c, 0, 81, 75
2, 36000, Note_on_c, 0, 81, 0
2, 36000, Note_on_c, 0, 76, 0
2, 36000, Note_on_c, 0, 72, 0
2, 36000, Control_c, 0, 64, 127
2, 36000, Note_on_c, 0, 70, 75
2, 36000, Note_on_c, 0, 72, 75
2, 36000, Note_on_c, 0, 79, 75
2, 36240, Note_on_c, 0, 79, 0
2, 36240, Note_on_c, 0, 72, 0
2, 36240, Note_on_c, 0, 70, 0
2, 36240, Note_on_c, 0, 67, 75
2, 36240, Note_on_c, 0, 72, 75
2, 36240, Note_on_c, 0, 76, 75
2, 36480, Note_on_c, 0, 76, 0
2, 36480, Note_on_c, 0, 72, 0
2, 36480, Note_on_c, 0, 67, 0
2, 36480, Note_on_c, 0, 64, 75
2, 36480, Note_on_c, 0, 67, 75
2, 36480, Note_on_c, 0, 72, 75
2, 36720, Note_on_c, 0, 72, 0
2, 36720, Note_on_c, 0, 67, 0
2, 36720, Note_on_c, 0, 64, 0
2, 36720, Note_on_c, 0, 60, 75
2, 36720, Note_on_c, 0, 67, 75
2, 36720, Note_on_c, 0, 70, 75
2, 36960, Note_on_c, 0, 70, 0
2, 36960, Note_on_c, 0, 67, 0
2, 36960, Note_on_c, 0, 60, 0
2, 36960, Note_on_c, 0, 60, 75
2, 36960, Note_on_c, 0, 65, 75
2, 36960, Note_on_c, 0, 69, 75
2, 37200, Note_on_c, 0, 69, 0
2, 37200, Note_on_c, 0, 65, 0
2, 37200, Note_on_c, 0, 60, 0
2, 37200, Control_c, 0, 64, 0
2, 37200, Note_on_c, 0, 57, 75
2, 37200, Note_on_c, 0, 60, 75
2, 37200, Note_on_c, 0, 65, 75
2, 37440, Note_on_c, 0, 65, 0
2, 37440, Note_on_c, 0, 60, 0
2, 37440, Note_on_c, 0, 57, 0
2, 37440, Control_c, 0, 64, 127
2, 37440, Note_on_c, 0, 58, 75
2, 37440, Note_on_c, 0, 64, 75
2, 37680, Note_on_c, 0, 64, 0
2, 37680, Note_on_c, 0, 58, 0
2, 37680, Note_on_c, 0, 64, 75
2, 37680, Note_on_c, 0, 70, 75
2, 37680, Note_on_c, 0, 74, 75
2, 37920, Note_on_c, 0, 74, 0
2, 37920, Note_on_c, 0, 70, 0
2, 37920, Note_on_c, 0, 64, 0
2, 37920, Note_on_c, 0, 65, 75
2, 37920, Note_on_c, 0, 69, 75
2, 37920, Note_on_c, 0, 72, 75
2, 38160, Note_on_c, 0, 72, 0
2, 38160, Note_on_c, 0, 69, 0
2, 38160, Note_on_c, 0, 65, 0
2, 38160, Note_on_c, 0, 60, 75
2, 38160, Note_on_c, 0, 65, 75
2, 38160, Note_on_c, 0, 69, 75
2, 38400, Note_on_c, 0, 69, 0
2, 38400, Note_on_c, 0, 65, 0
2, 38400, Note_on_c, 0, 60, 0
2, 38400, Note_on_c, 0, 62, 75
2, 38400, Note_on_c, 0, 65, 75
2, 38400, Note_on_c, 0, 67, 75
2, 38640, Note_on_c, 0, 67, 0
2, 38640, Note_on_c, 0, 65, 0
2, 38640, Note_on_c, 0, 62, 0
2, 38640, Control_c, 0, 64, 0
2, 38640, Note_on_c, 0, 67, 75
2, 38640, Note_on_c, 0, 74, 75
2, 38640, Note_on_c, 0, 77, 75
2, 38880, Note_on_c, 0, 77, 0
2, 38880, Note_on_c, 0, 74, 0
2, 38880, Note_on_c, 0, 67, 0
2, 38880, Note_on_c, 0, 69, 88
2, 38880, Note_on_c, 0, 72, 88
2, 38880, Note_on_c, 0, 77, 88
2, 39840, Note_on_c, 0, 77, 0
2, 39840, Note_on_c, 0, 72, 0
2, 39840, Note_on_c, 0, 69, 0
2, 39840, Note_on_c, 0, 60, 88
2, 39840, Note_on_c, 0, 65, 88
2, 39840, Note_on_c, 0, 69, 88
2, 39840, Note_on_c, 0, 72, 88
2, 40680, Note_on_c, 0, 72, 0
2, 40680, Note_on_c, 0, 60, 0
2, 40680, Note_on_c, 0, 65, 0
2, 40680, Note_on_c, 0, 69, 0
2, 40680, Note_on_c, 0, 65, 88
2, 40800, Note_on_c, 0, 60, 88
2, 40800, Note_on_c, 0, 69, 88
2, 41280, Note_on_c, 0, 69, 0
2, 41280, Note_on_c, 0, 60, 0
2, 41280, Note_on_c, 0, 65, 0
2, 41280, Note_on_c, 0, 60, 88
2, 41280, Note_on_c, 0, 64, 88
2, 41280, Note_on_c, 0, 67, 88
2, 41760, Note_on_c, 0, 67, 0
2, 41760, Note_on_c, 0, 64, 0
2, 41760, Note_on_c, 0, 60, 0
2, 41760, Note_on_c, 0, 60, 75
2, 41760, Note_on_c, 0, 65, 75
2, 41760, Note_on_c, 0, 69, 75
2, 41760, Note_on_c, 0, 72, 75
2, 43200, Note_on_c, 0, 72, 0
2, 43200, Note_on_c, 0, 60, 0
2, 43200, Note_on_c, 0, 65, 0
2, 43200, Note_on_c, 0, 69, 0
2, 43200, Note_on_c, 0, 60, 75
2, 43200, Note_on_c, 0, 65, 75
2, 43200, Note_on_c, 0, 69, 75
2, 43200, Note_on_c, 0, 72, 75
2, 44640, Note_on_c, 0, 72, 0
2, 44640, Note_on_c, 0, 60, 0
2, 44640, Note_on_c, 0, 65, 0
2, 44640, Note_on_c, 0, 69, 0
2, 44640, Note_on_c, 0, 77, 75
2, 45120, Note_on_c, 0, 77, 0
2, 45120, Note_on_c, 0, 74, 75
2, 45600, Note_on_c, 0, 74, 0
2, 45600, Note_on_c, 0, 72, 75
2, 46080, Note_on_c, 0, 72, 0
2, 46080, Note_on_c, 0, 65, 75
2, 46080, Note_on_c, 0, 71, 75
2, 47520, Note_on_c, 0, 71, 0
2, 47520, Note_on_c, 0, 65, 0
2, 47520, Note_on_c, 0, 67, 88
2, 47520, Note_on_c, 0, 72, 88
2, 47520, Note_on_c, 0, 75, 88
2, 47520, Note_on_c, 0, 79, 88
2, 48960, Note_on_c, 0, 79, 0
2, 48960, Note_on_c, 0, 67, 0
2, 48960, Note_on_c, 0, 72, 0
2, 48960, Note_on_c, 0, 75, 0
2, 48960, Control_c, 0, 64, 127
2, 48960, Note_on_c, 0, 67, 88
2, 48960, Note_on_c, 0, 72, 88
2, 48960, Note_on_c, 0, 75, 88
2, 48960, Note_on_c, 0, 79, 88
2, 50310, Note_on_c, 0, 72, 88
2, 50340, Note_on_c, 0, 75, 88
2, 50370, Note_on_c, 0, 80, 88
2, 50400, Note_on_c, 0, 79, 0
2, 50400, Note_on_c, 0, 75, 0
2, 50400, Note_on_c, 0, 67, 0
2, 50400, Note_on_c, 0, 72, 0
2, 50400, Note_on_c, 0, 87, 101
2, 50880, Note_on_c, 0, 87, 0
2, 50880, Note_on_c, 0, 75, 0
2, 50880, Note_on_c, 0, 72, 0
2, 50880, Note_on_c, 0, 80, 0
2, 50880, Note_on_c, 0, 84, 101
2, 51360, Note_on_c, 0, 84, 0
2, 51360, Control_c, 0, 64, 0
2, 51360, Note_on_c, 0, 82, 101
2, 51840, Note_on_c, 0, 82, 0
2, 51840, Note_on_c, 0, 68, 101
2, 51840, Note_on_c, 0, 72, 101
2, 51840, Note_on_c, 0, 75, 101
2, 51840, Note_on_c, 0, 80, 101
2, 53280, Note_on_c, 0, 80, 0
2, 53280, Note_on_c, 0, 68, 0
2, 53280, Note_on_c, 0, 72, 0
2, 53280, Note_on_c, 0, 75, 0
2, 53280, Note_on_c, 0, 73, 101
2, 53280, Note_on_c, 0, 77, 101
2, 53280, Note_on_c, 0, 80, 101
2, 53280, Note_on_c, 0, 85, 101
2, 53760, Note_on_c, 0, 85, 0
2, 53760, Note_on_c, 0, 73, 0
2, 53760, Note_on_c, 0, 77, 0
2, 53760, Note_on_c, 0, 80, 0
2, 53760, Note_on_c, 0, 82, 101
2, 54240, Note_on_c, 0, 82, 0
2, 54240, Note_on_c, 0, 80, 101
2, 54720, Note_on_c, 0, 80, 0
2, 54720, Note_on_c, 0, 79, 101
2, 55200, Note_on_c, 0, 79, 0
2, 55200, Note_on_c, 0, 80, 101
2, 55680, Note_on_c, 0, 80, 0
2, 55680, Note_on_c, 0, 82, 101
2, 56160, Note_on_c, 0, 82, 0
2, 56160, Note_on_c, 0, 63, 101
2, 56160, Note_on_c, 0, 70, 101
2, 56160, Note_on_c, 0, 73, 101
2, 56160, Note_on_c, 0, 75, 101
2, 56880, Note_on_c, 0, 75, 0
2, 56880, Note_on_c, 0, 63, 0
2, 56880, Note_on_c, 0, 70, 0
2, 56880, Note_on_c, 0, 73, 0
2, 56880, Note_on_c, 0, 63, 101
2, 56880, Note_on_c, 0, 70, 101
2, 56880, Note_on_c, 0, 73, 101
2, 56880, Note_on_c, 0, 75, 101
2, 57120, Note_on_c, 0, 75, 0
2, 57120, Note_on_c, 0, 63, 0
2, 57120, Note_on_c, 0, 70, 0
2, 57120, Note_on_c, 0, 73, 0
2, 57120, Note_on_c, 0, 63, 101
2, 57120, Note_on_c, 0, 70, 101
2, 57120, Note_on_c, 0, 73, 101
2, 57120, Note_on_c, 0, 75, 101
2, 57600, Note_on_c, 0, 75, 0
2, 57600, Note_on_c, 0, 63, 0
2, 57600, Note_on_c, 0, 70, 0
2, 57600, Note_on_c, 0, 73, 0
2, 57600, Note_on_c, 0, 63, 101
2, 57600, Note_on_c, 0, 68, 101
2, 57600, Note_on_c, 0, 72, 101
2, 57600, Note_on_c, 0, 75, 101
2, 59040, Note_on_c, 0, 75, 0
2, 59040, Note_on_c, 0, 63, 0
2, 59040, Note_on_c, 0, 68, 0
2, 59040, Note_on_c, 0, 72, 0
2, 59280, Control_c, 0, 64, 127
2, 59280, Note_on_c, 0, 56, 62
2, 59280, Note_on_c, 0, 60, 62
2, 59280, Note_on_c, 0, 63, 62
2, 59520, Note_on_c, 0, 63, 0
2, 59520, Note_on_c, 0, 60, 0
2, 59520, Note_on_c, 0, 56, 0
2, 59520, Note_on_c, 0, 60, 62
2, 59520, Note_on_c, 0, 63, 62
2, 59520, Note_on_c, 0, 68, 62
2, 59760, Note_on_c, 0, 68, 0
2, 59760, Note_on_c, 0, 63, 0
2, 59760, Note_on_c, 0, 60, 0
2, 59760, Note_on_c, 0, 63, 62
2, 59760, Note_on_c, 0, 68, 62
2, 59760, Note_on_c, 0, 72, 62
2, 60000, Note_on_c, 0, 72, 0
2, 60000, Note_on_c, 0, 68, 0
2, 60000, Note_on_c, 0, 63, 0
2, 60000, Note_on_c, 0, 68, 62
2, 60000, Note_on_c, 0, 72, 62
2, 60000, Note_on_c, 0, 75, 62
2, 60240, Note_on_c, 0, 75, 0
2, 60240, Note_on_c, 0, 72, 0
2, 60240, Note_on_c, 0, 68, 0
2, 60240, Control_c, 0, 64, 0
2, 60240, Note_on_c, 0, 72, 62
2, 60240, Note_on_c, 0, 75, 62
2, 60240, Note_on_c, 0, 80, 62
2, 60480, Note_on_c, 0, 80, 0
2, 60480, Note_on_c, 0, 75, 0
2, 60480, Note_on_c, 0, 72, 0
2, 60720, Control_c, 0, 64, 127
2, 60720, Note_on_c, 0, 65, 49
2, 60720, Note_on_c, 0, 68, 49
2, 60720, Note_on_c, 0, 70, 49
2, 60960, Note_on_c, 0, 70, 0
2, 60960, Note_on_c, 0, 68, 0
2, 60960, Note_on_c, 0, 65, 0
2, 60960, Note_on_c, 0, 68, 49
2, 60960, Note_on_c, 0, 70, 49
2, 60960, Note_on_c, 0, 77, 49
2, 61200, Note_on_c, 0, 77, 0
2, 61200, Note_on_c, 0, 70, 0
2, 61200, Note_on_c, 0, 68, 0
2, 61200, Note_on_c, 0, 65, 49
2, 61200, Note_on_c, 0, 68, 49
2, 61200, Note_on_c, 0, 70, 49
2, 61440, Note_on_c, 0, 70, 0
2, 61440, Note_on_c, 0, 68, 0
2, 61440, Note_on_c, 0, 65, 0
2, 61440, Note_on_c, 0, 68, 49
2, 61440, Note_on_c, 0, 70, 49
2, 61440, Note_on_c, 0, 77, 49
2, 61680, Note_on_c, 0, 77, 0
2, 61680, Note_on_c, 0, 70, 0
2, 61680, Note_on_c, 0, 68, 0
2, 61680, Control_c, 0, 64, 0
2, 61680, Note_on_c, 0, 65, 49
2, 61680, Note_on_c, 0, 68, 49
2, 61680, Note_on_c, 0, 70, 49
2, 61920, Note_on_c, 0, 70, 0
2, 61920, Note_on_c, 0, 68, 0
2, 61920, Note_on_c, 0, 65, 0
2, 62160, Control_c, 0, 64, 127
2, 62160, Note_on_c, 0, 55, 49
2, 62160, Note_on_c, 0, 58, 49
2, 62160, Note_on_c, 0, 60, 49
2, 62400, Note_on_c, 0, 60, 0
2, 62400, Note_on_c, 0, 58, 0
2, 62400, Note_on_c, 0, 55, 0
2, 62400, Note_on_c, 0, 58, 49
2, 62400, Note_on_c, 0, 60, 49
2, 62400, Note_on_c, 0, 67, 49
2, 62640, Note_on_c, 0, 67, 0
2, 62640, Note_on_c, 0, 60, 0
2, 62640, Note_on_c, 0, 58, 0
2, 62640, Note_on_c, 0, 60, 49
2, 62640, Note_on_c, 0, 67, 49
2, 62640, Note_on_c, 0, 70, 49
2, 62880, Note_on_c, 0, 70, 0
2, 62880, Note_on_c, 0, 67, 0
2, 62880, Note_on_c, 0, 60, 0
2, 62880, Note_on_c, 0, 67, 49
2, 62880, Note_on_c, 0, 70, 49
2, 62880, Note_on_c, 0, 72, 49
2, 63120, Note_on_c, 0, 72, 0
2, 63120, Note_on_c, 0, 70, 0
2, 63120, Note_on_c, 0, 67, 0
2, 63120, Control_c, 0, 64, 0
2, 63120, Note_on_c, 0, 70, 49
2, 63120, Note_on_c, 0, 72, 49
2, 63120, Note_on_c, 0, 79, 49
2, 63360, Note_on_c, 0, 79, 0
2, 63360, Note_on_c, 0, 72, 0
2, 63360, Note_on_c, 0, 70, 0
2, 63600, Control_c, 0, 64, 127
2, 63600, Note_on_c, 0, 60, 49
2, 63600, Note_on_c, 0, 67, 49
2, 63600, Note_on_c, 0, 68, 49
2, 63840, Note_on_c, 0, 68, 0
2, 63840, Note_on_c, 0, 67, 0
2, 63840, Note_on_c, 0, 60, 0
2, 63840, Note_on_c, 0, 67, 49
2, 63840, Note_on_c, 0, 68, 49
2, 63840, Note_on_c, 0, 72, 49
2, 64080, Note_on_c, 0, 72, 0
2, 64080, Note_on_c, 0, 68, 0
2, 64080, Note_on_c, 0, 67, 0
2, 64080, Note_on_c, 0, 60, 49
2, 64080, Note_on_c, 0, 67, 49
2, 64080, Note_on_c, 0, 68, 49
2, 64320, Note_on_c, 0, 68, 0
2, 64320, Note_on_c, 0, 67, 0
2, 64320, Note_on_c, 0, 60, 0
2, 64320, Note_on_c, 0, 67, 49
2, 64320, Note_on_c, 0, 68, 49
2, 64320, Note_on_c, 0, 72, 49
2, 64560, Note_on_c, 0, 72, 0
2, 64560, Note_on_c, 0, 68, 0
2, 64560, Note_on_c, 0, 67, 0
2, 64560, Control_c, 0, 64, 0
2, 64560, Note_on_c, 0, 60, 49
2, 64560, Note_on_c, 0, 67, 49
2, 64560, Note_on_c, 0, 68, 49
2, 64800, Note_on_c, 0, 68, 0
2, 64800, Note_on_c, 0, 67, 0
2, 64800, Note_on_c, 0, 60, 0
2, 65040, Control_c, 0, 64, 127
2, 65040, Note_on_c, 0, 56, 49
2, 65040, Note_on_c, 0, 60, 49
2, 65280, Note_on_c, 0, 60, 0
2, 65280, Note_on_c, 0, 56, 0
2, 65280, Note_on_c, 0, 56, 49
2, 65280, Note_on_c, 0, 60, 49
2, 65280, Note_on_c, 0, 65, 49
2, 65520, Note_on_c, 0, 65, 0
2, 65520, Note_on_c, 0, 60, 0
2, 65520, Note_on_c, 0, 56, 0
2, 65520, Note_on_c, 0, 60, 49
2, 65520, Note_on_c, 0, 65, 49
2, 65520, Note_on_c, 0, 68, 49
2, 65760, Note_on_c, 0, 68, 0
2, 65760, Note_on_c, 0, 65, 0
2, 65760, Note_on_c, 0, 60, 0
2, 65760, Note_on_c, 0, 65, 49
2, 65760, Note_on_c, 0, 68, 49
2, 65760, Note_on_c, 0, 72, 49
2, 66000, Note_on_c, 0, 72, 0
2, 66000, Note_on_c, 0, 68, 0
2, 66000, Note_on_c, 0, 65, 0
2, 66000, Control_c, 0, 64, 0
2, 66000, Note_on_c, 0, 68, 49
2, 66000, Note_on_c, 0, 72, 49
2, 66000, Note_on_c, 0, 77, 49
2, 66240, Note_on_c, 0, 77, 0
2, 66240, Note_on_c, 0, 72, 0
2, 66240, Note_on_c, 0, 68, 0
2, 66480, Control_c, 0, 64, 127
2, 66480, Note_on_c, 0, 61, 49
2, 66480, Note_on_c, 0, 65, 49
2, 66480, Note_on_c, 0, 67, 49
2, 66720, Note_on_c, 0, 67, 0
2, 66720, Note_on_c, 0, 65, 0
2, 66720, Note_on_c, 0, 61, 0
2, 66720, Note_on_c, 0, 65, 49
2, 66720, Note_on_c, 0, 67, 49
2, 66720, Note_on_c, 0, 73, 49
2, 66960, Note_on_c, 0, 73, 0
2, 66960, Note_on_c, 0, 67, 0
2, 66960, Note_on_c, 0, 65, 0
2, 66960, Note_on_c, 0, 61, 49
2, 66960, Note_on_c, 0, 65, 49
2, 66960, Note_on_c, 0, 67, 49
2, 67200, Note_on_c, 0, 67, 0
2, 67200, Note_on_c, 0, 65, 0
2, 67200, Note_on_c, 0, 61, 0
2, 67200, Note_on_c, 0, 65, 49
2, 67200, Note_on_c, 0, 67, 49
2, 67200, Note_on_c, 0, 73, 49
2, 67440, Note_on_c, 0, 73, 0
2, 67440, Note_on_c, 0, 67, 0
2, 67440, Note_on_c, 0, 65, 0
2, 67440, Control_c, 0, 64, 0
2, 67440, Note_on_c, 0, 61, 49
2, 67440, Note_on_c, 0, 65, 49
2, 67440, Note_on_c, 0, 67, 49
2, 67680, Note_on_c, 0, 67, 0
2, 67680, Note_on_c, 0, 65, 0
2, 67680, Note_on_c, 0, 61, 0
2, 67920, Control_c, 0, 64, 127
2, 67920, Note_on_c, 0, 54, 49
2, 67920, Note_on_c, 0, 56, 49
2, 68160, Note_on_c, 0, 56, 0
2, 68160, Note_on_c, 0, 54, 0
2, 68160, Note_on_c, 0, 54, 49
2, 68160, Note_on_c, 0, 56, 49
2, 68160, Note_on_c, 0, 63, 49
2, 68400, Note_on_c, 0, 63, 0
2, 68400, Note_on_c, 0, 56, 0
2, 68400, Note_on_c, 0, 54, 0
2, 68400, Note_on_c, 0, 56, 49
2, 68400, Note_on_c, 0, 63, 49
2, 68400, Note_on_c, 0, 66, 49
2, 68640, Note_on_c, 0, 66, 0
2, 68640, Note_on_c, 0, 63, 0
2, 68640, Note_on_c, 0, 56, 0
2, 68640, Note_on_c, 0, 63, 49
2, 68640, Note_on_c, 0, 66, 49
2, 68640, Note_on_c, 0, 68, 49
2, 68880, Note_on_c, 0, 68, 0
2, 68880, Note_on_c, 0, 66, 0
2, 68880, Note_on_c, 0, 63, 0
2, 68880, Control_c, 0, 64, 0
2, 68880, Note_on_c, 0, 66, 49
2, 68880, Note_on_c, 0, 68, 49
2, 68880, Note_on_c, 0, 75, 49
2, 69120, Note_on_c, 0, 75, 0
2, 69120, Note_on_c, 0, 68, 0
2, 69120, Note_on_c, 0, 66, 0
2, 69360, Control_c, 0, 64, 127
2, 69360, Note_on_c, 0, 56, 49
2, 69360, Note_on_c, 0, 63, 49
2, 69360, Note_on_c, 0, 65, 49
2, 69600, Note_on_c, 0, 65, 0
2, 69600, Note_on_c, 0, 63, 0
2, 69600, Note_on_c, 0, 56, 0
2, 69600, Note_on_c, 0, 63, 49
2, 69600, Note_on_c, 0, 65, 49
2, 69600, Note_on_c, 0, 68, 49
2, 69840, Note_on_c, 0, 68, 0
2, 69840, Note_on_c, 0, 65, 0
2, 69840, Note_on_c, 0, 63, 0
2, 69840, Note_on_c, 0, 56, 49
2, 69840, Note_on_c, 0, 63, 49
2, 69840, Note_on_c, 0, 65, 49
2, 70080, Note_on_c, 0, 65, 0
2, 70080, Note_on_c, 0, 63, 0
2, 70080, Note_on_c, 0, 56, 0
2, 70080, Note_on_c, 0, 61, 49
2, 70080, Note_on_c, 0, 65, 49
2, 70080, Note_on_c, 0, 68, 49
2, 70320, Note_on_c, 0, 68, 0
2, 70320, Note_on_c, 0, 65, 0
2, 70320, Note_on_c, 0, 61, 0
2, 70320, Control_c, 0, 64, 0
2, 70320, Note_on_c, 0, 56, 49
2, 70320, Note_on_c, 0, 61, 49
2, 70320, Note_on_c, 0, 65, 49
2, 70560, Note_on_c, 0, 65, 0
2, 70560, Note_on_c, 0, 61, 0
2, 70560, Note_on_c, 0, 56, 0
2, 70800, Control_c, 0, 64, 127
2, 70800, Note_on_c, 0, 68, 49
2, 70800, Note_on_c, 0, 71, 49
2, 71040, Note_on_c, 0, 71, 0
2, 71040, Note_on_c, 0, 68, 0
2, 71040, Note_on_c, 0, 61, 49
2, 71040, Note_on_c, 0, 68, 49
2, 71280, Note_on_c, 0, 68, 0
2, 71280, Note_on_c, 0, 61, 0
2, 71280, Note_on_c, 0, 68, 49
2, 71280, Note_on_c, 0, 71, 49
2, 71520, Note_on_c, 0, 71, 0
2, 71520, Note_on_c, 0, 68, 0
2, 71520, Note_on_c, 0, 71, 49
2, 71520, Note_on_c, 0, 73, 49
2, 71760, Note_on_c, 0, 73, 0
2, 71760, Note_on_c, 0, 71, 0
2, 71760, Control_c, 0, 64, 0
2, 71760, Note_on_c, 0, 68, 49
2, 71760, Note_on_c, 0, 71, 49
2, 72000, Note_on_c, 0, 71, 0
2, 72000, Note_on_c, 0, 68, 0
2, 72240, Control_c, 0, 64, 127
2, 72240, Note_on_c, 0, 66, 62
2, 72240, Note_on_c, 0, 70, 62
2, 72240, Note_on_c, 0, 73, 62
2, 72480, Note_on_c, 0, 73, 0
2, 72480, Note_on_c, 0, 70, 0
2, 72480, Note_on_c, 0, 66, 0
2, 72480, Note_on_c, 0, 66, 62
2, 72480, Note_on_c, 0, 70, 62
2, 72720, Note_on_c, 0, 70, 0
2, 72720, Note_on_c, 0, 66, 0
2, 72720, Note_on_c, 0, 66, 62
2, 72720, Note_on_c, 0, 70, 62
2, 72720, Note_on_c, 0, 73, 62
2, 72960, Note_on_c, 0, 73, 0
2, 72960, Note_on_c, 0, 70, 0
2, 72960, Note_on_c, 0, 66, 0
2, 72960, Note_on_c, 0, 66, 62
2, 72960, Note_on_c, 0, 70, 62
2, 72960, Note_on_c, 0, 74, 62
2, 73200, Note_on_c, 0, 74, 0
2, 73200, Note_on_c, 0, 70, 0
2, 73200, Note_on_c, 0, 66, 0
2, 73200, Control_c, 0, 64, 0
2, 73200, Note_on_c, 0, 62, 62
2, 73200, Note_on_c, 0, 66, 62
2, 73200, Note_on_c, 0, 70, 62
2, 73440, Note_on_c, 0, 70, 0
2, 73440, Note_on_c, 0, 66, 0
2, 73440, Note_on_c, 0, 62, 0
2, 73680, Control_c, 0, 64, 127
2, 73680, Note_on_c, 0, 66, 62
2, 73680, Note_on_c, 0, 70, 62
2, 73680, Note_on_c, 0, 74, 62
2, 73920, Note_on_c, 0, 74, 0
2, 73920, Note_on_c, 0, 70, 0
2, 73920, Note_on_c, 0, 66, 0
2, 73920, Note_on_c, 0, 62, 62
2, 73920, Note_on_c, 0, 66, 62
2, 73920, Note_on_c, 0, 70, 62
2, 74160, Note_on_c, 0, 70, 0
2, 74160, Note_on_c, 0, 66, 0
2, 74160, Note_on_c, 0, 62, 0
2, 74160, Note_on_c, 0, 66, 62
2, 74160, Note_on_c, 0, 70, 62
2, 74160, Note_on_c, 0, 74, 62
2, 74400, Note_on_c, 0, 74, 0
2, 74400, Note_on_c, 0, 70, 0
2, 74400, Note_on_c, 0, 66, 0
2, 74400, Note_on_c, 0, 66, 62
2, 74400, Note_on_c, 0, 70, 62
2, 74400, Note_on_c, 0, 75, 62
2, 74640, Note_on_c, 0, 75, 0
2, 74640, Note_on_c, 0, 70, 0
2, 74640, Note_on_c, 0, 66, 0
2, 74640, Control_c, 0, 64, 0
2, 74640, Note_on_c, 0, 63, 62
2, 74640, Note_on_c, 0, 66, 62
2, 74640, Note_on_c, 0, 70, 62
2, 74880, Note_on_c, 0, 70, 0
2, 74880, Note_on_c, 0, 66, 0
2, 74880, Note_on_c, 0, 63, 0
2, 75120, Control_c, 0, 64, 127
2, 75120, Note_on_c, 0, 67, 75
2, 75120, Note_on_c, 0, 70, 75
2, 75120, Note_on_c, 0, 75, 75
2, 75360, Note_on_c, 0, 75, 0
2, 75360, Note_on_c, 0, 70, 0
2, 75360, Note_on_c, 0, 67, 0
2, 75360, Note_on_c, 0, 63, 75
2, 75360, Note_on_c, 0, 67, 75
2, 75360, Note_on_c, 0, 70, 75
2, 75600, Note_on_c, 0, 70, 0
2, 75600, Note_on_c, 0, 67, 0
2, 75600, Note_on_c, 0, 63, 0
2, 75600, Note_on_c, 0, 67, 75
2, 75600, Note_on_c, 0, 70, 75
2, 75600, Note_on_c, 0, 75, 75
2, 75840, Note_on_c, 0, 75, 0
2, 75840, Note_on_c, 0, 70, 0
2, 75840, Note_on_c, 0, 67, 0
2, 75840, Note_on_c, 0, 70, 75
2, 75840, Note_on_c, 0, 73, 75
2, 75840, Note_on_c, 0, 76, 75
2, 76080, Note_on_c, 0, 76, 0
2, 76080, Note_on_c, 0, 73, 0
2, 76080, Note_on_c, 0, 70, 0
2, 76080, Control_c, 0, 64, 0
2, 76080, Note_on_c, 0, 64, 75
2, 76080, Note_on_c, 0, 70, 75
2, 76080, Note_on_c, 0, 73, 75
2, 76320, Note_on_c, 0, 73, 0
2, 76320, Note_on_c, 0, 70, 0
2, 76320, Note_on_c, 0, 64, 0
2, 76560, Control_c, 0, 64, 127
2, 76560, Note_on_c, 0, 61, 75
2, 76560, Note_on_c, 0, 64, 75
2, 76800, Note_on_c, 0, 64, 0
2, 76800, Note_on_c, 0, 61, 0
2, 76800, Note_on_c, 0, 64, 75
2, 76800, Note_on_c, 0, 67, 75
2, 77040, Note_on_c, 0, 67, 0
2, 77040, Note_on_c, 0, 64, 0
2, 77040, Note_on_c, 0, 67, 75
2, 77040, Note_on_c, 0, 70, 75
2, 77280, Note_on_c, 0, 70, 0
2, 77280, Note_on_c, 0, 67, 0
2, 77280, Note_on_c, 0, 70, 75
2, 77280, Note_on_c, 0, 73, 75
2, 77520, Note_on_c, 0, 73, 0
2, 77520, Note_on_c, 0, 70, 0
2, 77520, Note_on_c, 0, 73, 75
2, 77520, Note_on_c, 0, 76, 75
2, 77760, Note_on_c, 0, 76, 0
2, 77760, Note_on_c, 0, 73, 0
2, 77760, Control_c, 0, 64, 0
2, 77760, Note_on_c, 0, 65, 88
2, 77760, Note_on_c, 0, 70, 88
2, 77760, Note_on_c, 0, 74, 88
2, 77760, Note_on_c, 0, 77, 88
2, 79200, Note_on_c, 0, 77, 0
2, 79200, Note_on_c, 0, 65, 0
2, 79200, Note_on_c, 0, 70, 0
2, 79200, Note_on_c, 0, 74, 0
2, 79200, Note_on_c, 0, 65, 88
2, 79200, Note_on_c, 0, 70, 88
2, 79200, Note_on_c, 0, 74, 88
2, 79200, Note_on_c, 0, 77, 88
2, 80640, Note_on_c, 0, 77, 0
2, 80640, Note_on_c, 0, 65, 0
2, 80640, Note_on_c, 0, 70, 0
2, 80640, Note_on_c, 0, 74, 0
2, 80640, Note_on_c, 0, 82, 88
2, 81120, Note_on_c, 0, 82, 0
2, 81120, Note_on_c, 0, 79, 88
2, 81600, Note_on_c, 0, 79, 0
2, 81600, Note_on_c, 0, 70, 88
2, 81600, Note_on_c, 0, 74, 88
2, 81600, Note_on_c, 0, 77, 88
2, 82080, Note_on_c, 0, 77, 0
2, 82080, Note_on_c, 0, 74, 0
2, 82080, Note_on_c, 0, 70, 0
2, 82080, Note_on_c, 0, 75, 88
2, 83440, Note_on_c, 0, 75, 88
2, 83480, Note_on_c, 0, 79, 88
2, 83520, Note_on_c, 0, 75, 0
2, 83520, Note_on_c, 0, 87, 88
2, 84000, Note_on_c, 0, 87, 0
2, 84000, Note_on_c, 0, 79, 0
2, 84000, Note_on_c, 0, 75, 0
2, 84000, Note_on_c, 0, 84, 88
2, 84480, Note_on_c, 0, 84, 0
2, 84480, Note_on_c, 0, 75, 88
2, 84480, Note_on_c, 0, 79, 88
2, 84480, Note_on_c, 0, 82, 88
2, 84960, Note_on_c, 0, 82, 0
2, 84960, Note_on_c, 0, 79, 0
2, 84960, Note_on_c, 0, 75, 0
2, 84960, Note_on_c, 0, 81, 88
2, 85440, Note_on_c, 0, 81, 0
2, 85440, Note_on_c, 0, 82, 88
2, 85920, Note_on_c, 0, 82, 0
2, 85920, Note_on_c, 0, 84, 88
2, 86400, Note_on_c, 0, 84, 0
2, 86400, Note_on_c, 0, 65, 88
2, 86400, Note_on_c, 0, 69, 88
2, 86400, Note_on_c, 0, 72, 88
2, 86400, Note_on_c, 0, 77, 88
2, 87120, Note_on_c, 0, 77, 0
2, 87120, Note_on_c, 0, 65, 0
2, 87120, Note_on_c, 0, 69, 0
2, 87120, Note_on_c, 0, 72, 0
2, 87120, Note_on_c, 0, 65, 88
2, 87120, Note_on_c, 0, 69, 88
2, 87120, Note_on_c, 0, 72, 88
2, 87120, Note_on_c, 0, 77, 88
2, 87360, Note_on_c, 0, 77, 0
2, 87360, Note_on_c, 0, 65, 0
2, 87360, Note_on_c, 0, 69, 0
2, 87360, Note_on_c, 0, 72, 0
2, 87360, Note_on_c, 0, 65, 88
2, 87360, Note_on_c, 0, 69, 88
2, 87360, Note_on_c, 0, 72, 88
2, 87360, Note_on_c, 0, 77, 88
2, 87840, Note_on_c, 0, 77, 0
2, 87840, Note_on_c, 0, 65, 0
2, 87840, Note_on_c, 0, 69, 0
2, 87840, Note_on_c, 0, 72, 0
2, 87840, Note_on_c, 0, 65, 88
2, 87840, Note_on_c, 0, 70, 88
2, 87840, Note_on_c, 0, 74, 88
2, 87840, Note_on_c, 0, 77, 88
2, 88800, Note_on_c, 0, 77, 0
2, 88800, Note_on_c, 0, 65, 0
2, 88800, Note_on_c, 0, 70, 0
2, 88800, Note_on_c, 0, 74, 0
2, 88800, Note_on_c, 0, 74, 88
2, 88800, Note_on_c, 0, 86, 88
2, 89280, Note_on_c, 0, 86, 0
2, 89280, Note_on_c, 0, 74, 0
2, 89280, Note_on_c, 0, 72, 75
2, 89280, Note_on_c, 0, 84, 75
2, 89760, Note_on_c, 0, 84, 0
2, 89760, Note_on_c, 0, 72, 0
2, 89760, Note_on_c, 0, 67, 75
2, 89760, Note_on_c, 0, 79, 75
2, 90240, Note_on_c, 0, 79, 0
2, 90240, Note_on_c, 0, 67, 0
2, 90240, Note_on_c, 0, 69, 75
2, 90240, Note_on_c, 0, 81, 75
2, 90720, Note_on_c, 0, 81, 0
2, 90720, Note_on_c, 0, 69, 0
2, 90720, Note_on_c, 0, 70, 75
2, 90720, Note_on_c, 0, 82, 75
2, 91680, Note_on_c, 0, 82, 0
2, 91680, Note_on_c, 0, 70, 0
2, 91680, Note_on_c, 0, 77, 75
2, 92160, Note_on_c, 0, 77, 0
2, 92160, Note_on_c, 0, 65, 75
2, 92160, Note_on_c, 0, 77, 75
2, 92640, Note_on_c, 0, 77, 0
2, 92640, Note_on_c, 0, 65, 0
2, 92640, Note_on_c, 0, 65, 75
2, 92640, Note_on_c, 0, 77, 75
2, 93120, Note_on_c, 0, 77, 0
2, 93120, Note_on_c, 0, 65, 0
2, 93120, Note_on_c, 0, 67, 75
2, 93120, Note_on_c, 0, 79, 75
2, 93600, Note_on_c, 0, 79, 0
2, 93600, Note_on_c, 0, 67, 0
2, 93600, Note_on_c, 0, 65, 75
2, 93600, Note_on_c, 0, 77, 75
2, 94560, Note_on_c, 0, 77, 0
2, 94560, Note_on_c, 0, 65, 0
2, 94560, Note_on_c, 0, 64, 75
2, 94560, Note_on_c, 0, 76, 75
2, 95040, Note_on_c, 0, 76, 0
2, 95040, Note_on_c, 0, 64, 0
2, 95040, Note_on_c, 0, 63, 75
2, 95040, Note_on_c, 0, 75, 75
2, 95520, Note_on_c, 0, 75, 0
2, 95520, Note_on_c, 0, 63, 0
2, 95520, Note_on_c, 0, 63, 75
2, 95520, Note_on_c, 0, 75, 75
2, 96000, Note_on_c, 0, 75, 0
2, 96000, Note_on_c, 0, 63, 0
2, 96000, Note_on_c, 0, 63, 75
2, 96000, Note_on_c, 0, 75, 75
2, 96480, Note_on_c, 0, 75, 0
2, 96480, Note_on_c, 0, 63, 0
2, 96480, Note_on_c, 0, 75, 75
2, 96480, Note_on_c, 0, 81, 75
2, 96480, Note_on_c, 0, 84, 75
2, 96480, Note_on_c, 0, 87, 75
2, 97440, Note_on_c, 0, 87, 0
2, 97440, Note_on_c, 0, 75, 0
2, 97440, Note_on_c, 0, 81, 0
2, 97440, Note_on_c, 0, 84, 0
2, 97440, Note_on_c, 0, 74, 75
2, 97440, Note_on_c, 0, 82, 75
2, 97440, Note_on_c, 0, 86, 75
2, 97920, Note_on_c, 0, 86, 0
2, 97920, Note_on_c, 0, 82, 0
2, 97920, Note_on_c, 0, 74, 0
2, 97920, Note_on_c, 0, 72, 75
2, 97920, Note_on_c, 0, 75, 75
2, 97920, Note_on_c, 0, 79, 75
2, 97920, Note_on_c, 0, 84, 75
2, 98400, Note_on_c, 0, 84, 0
2, 98400, Note_on_c, 0, 72, 0
2, 98400, Note_on_c, 0, 75, 0
2, 98400, Note_on_c, 0, 79, 0
2, 98400, Note_on_c, 0, 67, 75
2, 98400, Note_on_c, 0, 79, 75
2, 99120, Note_on_c, 0, 79, 0
2, 99120, Note_on_c, 0, 67, 0
2, 99120, Note_on_c, 0, 72, 75
2, 99120, Note_on_c, 0, 84, 75
2, 99360, Note_on_c, 0, 84, 0
2, 99360, Note_on_c, 0, 72, 0
2, 99360, Note_on_c, 0, 70, 75
2, 99360, Note_on_c, 0, 72, 75
2, 99360, Note_on_c, 0, 75, 75
2, 99360, Note_on_c, 0, 82, 75
2, 100320, Note_on_c, 0, 82, 0
2, 100320, Note_on_c, 0, 70, 0
2, 100320, Note_on_c, 0, 72, 0
2, 100320, Note_on_c, 0, 75, 0
2, 100320, Note_on_c, 0, 69, 75
2, 100320, Note_on_c, 0, 81, 75
2, 100800, Note_on_c, 0, 81, 0
2, 100800, Note_on_c, 0, 69, 0
2, 100800, Control_c, 0, 64, 127
2, 100800, Note_on_c, 0, 70, 75
2, 100800, Note_on_c, 0, 82, 75
2, 101040, Note_on_c, 0, 82, 0
2, 101040, Note_on_c, 0, 70, 0
2, 101040, Note_on_c, 0, 62, 62
2, 101040, Note_on_c, 0, 65, 62
2, 101040, Note_on_c, 0, 70, 62
2, 101280, Note_on_c, 0, 70, 0
2, 101280, Note_on_c, 0, 65, 0
2, 101280, Note_on_c, 0, 62, 0
2, 101280, Note_on_c, 0, 65, 62
2, 101280, Note_on_c, 0, 70, 62
2, 101280, Note_on_c, 0, 74, 62
2, 101520, Note_on_c, 0, 74, 0
2, 101520, Note_on_c, 0, 70, 0
2, 101520, Note_on_c, 0, 65, 0
2, 101520, Note_on_c, 0, 70, 62
2, 101520, Note_on_c, 0, 74, 62
2, 101520, Note_on_c, 0, 77, 62
2, 101760, Note_on_c, 0, 77, 0
2, 101760, Note_on_c, 0, 74, 0
2, 101760, Note_on_c, 0, 70, 0
2, 101760, Note_on_c, 0, 74, 62
2, 101760, Note_on_c, 0, 77, 62
2, 101760, Note_on_c, 0, 82, 62
2, 102000, Note_on_c, 0, 82, 0
2, 102000, Note_on_c, 0, 77, 0
2, 102000, Note_on_c, 0, 74, 0
2, 102000, Control_c, 0, 64, 0
2, 102000, Note_on_c, 0, 77, 62
2, 102000, Note_on_c, 0, 82, 62
2, 102000, Note_on_c, 0, 86, 62
2, 102240, Note_on_c, 0, 86, 0
2, 102240, Note_on_c, 0, 82, 0
2, 102240, Note_on_c, 0, 77, 0
2, 102480, Control_c, 0, 64, 127
2, 102480, Note_on_c, 0, 79, 62
2, 102480, Note_on_c, 0, 82, 62
2, 102480, Note_on_c, 0, 86, 62
2, 102720, Note_on_c, 0, 86, 0
2, 102720, Note_on_c, 0, 82, 0
2, 102720, Note_on_c, 0, 79, 0
2, 102720, Note_on_c, 0, 74, 62
2, 102720, Note_on_c, 0, 79, 62
2, 102720, Note_on_c, 0, 82, 62
2, 102960, Note_on_c, 0, 82, 0
2, 102960, Note_on_c, 0, 79, 0
2, 102960, Note_on_c, 0, 74, 0
2, 102960, Note_on_c, 0, 70, 62
2, 102960, Note_on_c, 0, 74, 62
2, 102960, Note_on_c, 0, 79, 62
2, 103200, Note_on_c, 0, 79, 0
2, 103200, Note_on_c, 0, 74, 0
2, 103200, Note_on_c, 0, 70, 0
2, 103200, Note_on_c, 0, 67, 62
2, 103200, Note_on_c, 0, 70, 62
2, 103200, Note_on_c, 0, 74, 62
2, 103440, Note_on_c, 0, 74, 0
2, 103440, Note_on_c, 0, 70, 0
2, 103440, Note_on_c, 0, 67, 0
2, 103440, Control_c, 0, 64, 0
2, 103440, Note_on_c, 0, 62, 62
2, 103440, Note_on_c, 0, 67, 62
2, 103440, Note_on_c, 0, 70, 62
2, 103680, Note_on_c, 0, 70, 0
2, 103680, Note_on_c, 0, 67, 0
2, 103680, Note_on_c, 0, 62, 0
2, 103920, Control_c, 0, 64, 127
2, 103920, Note_on_c, 0, 62, 62
2, 103920, Note_on_c, 0, 65, 62
2, 103920, Note_on_c, 0, 70, 62
2, 104160, Note_on_c, 0, 70, 0
2, 104160, Note_on_c, 0, 65, 0
2, 104160, Note_on_c, 0, 62, 0
2, 104160, Note_on_c, 0, 65, 62
2, 104160, Note_on_c, 0, 70, 62
2, 104160, Note_on_c, 0, 74, 62
2, 104400, Note_on_c, 0, 74, 0
2, 104400, Note_on_c, 0, 70, 0
2, 104400, Note_on_c, 0, 65, 0
2, 104400, Note_on_c, 0, 70, 62
2, 104400, Note_on_c, 0, 74, 62
2, 104400, Note_on_c, 0, 77, 62
2, 104640, Note_on_c, 0, 77, 0
2, 104640, Note_on_c, 0, 74, 0
2, 104640, Note_on_c, 0, 70, 0
2, 104640, Note_on_c, 0, 74, 62
2, 104640, Note_on_c, 0, 77, 62
2, 104640, Note_on_c, 0, 82, 62
2, 104880, Note_on_c, 0, 82, 0
2, 104880, Note_on_c, 0, 77, 0
2, 104880, Note_on_c, 0, 74, 0
2, 104880, Control_c, 0, 64, 0
2, 104880, Note_on_c, 0, 77, 62
2, 104880, Note_on_c, 0, 82, 62
2, 104880, Note_on_c, 0, 86, 62
2, 105120, Note_on_c, 0, 86, 0
2, 105120, Note_on_c, 0, 82, 0
2, 105120, Note_on_c, 0, 77, 0
2, 105360, Control_c, 0, 64, 127
2, 105360, Note_on_c, 0, 76, 62
2, 105360, Note_on_c, 0, 82, 62
2, 105360, Note_on_c, 0, 86, 62
2, 105600, Note_on_c, 0, 86, 0
2, 105600, Note_on_c, 0, 82, 0
2, 105600, Note_on_c, 0, 76, 0
2, 105600, Note_on_c, 0, 74, 62
2, 105600, Note_on_c, 0, 76, 62
2, 105600, Note_on_c, 0, 82, 62
2, 105840, Note_on_c, 0, 82, 0
2, 105840, Note_on_c, 0, 76, 0
2, 105840, Note_on_c, 0, 74, 0
2, 105840, Note_on_c, 0, 70, 62
2, 105840, Note_on_c, 0, 74, 62
2, 105840, Note_on_c, 0, 76, 62
2, 106080, Note_on_c, 0, 76, 0
2, 106080, Note_on_c, 0, 74, 0
2, 106080, Note_on_c, 0, 70, 0
2, 106080, Note_on_c, 0, 64, 62
2, 106080, Note_on_c, 0, 70, 62
2, 106080, Note_on_c, 0, 74, 62
2, 106320, Note_on_c, 0, 74, 0
2, 106320, Note_on_c, 0, 70, 0
2, 106320, Note_on_c, 0, 64, 0
2, 106320, Control_c, 0, 64, 0
2, 106320, Note_on_c, 0, 62, 62
2, 106320, Note_on_c, 0, 64, 62
2, 106320, Note_on_c, 0, 70, 62
2, 106560, Note_on_c, 0, 70, 0
2, 106560, Note_on_c, 0, 64, 0
2, 106560, Note_on_c, 0, 62, 0
2, 106800, Control_c, 0, 64, 127
2, 106800, Note_on_c, 0, 62, 75
2, 106800, Note_on_c, 0, 65, 75
2, 106800, Note_on_c, 0, 69, 75
2, 107040, Note_on_c, 0, 69, 0
2, 107040, Note_on_c, 0, 65, 0
2, 107040, Note_on_c, 0, 62, 0
2, 107040, Note_on_c, 0, 65, 75
2, 107040, Note_on_c, 0, 69, 75
2, 107040, Note_on_c, 0, 74, 75
2, 107280, Note_on_c, 0, 74, 0
2, 107280, Note_on_c, 0, 69, 0
2, 107280, Note_on_c, 0, 65, 0
2, 107280, Note_on_c, 0, 69, 75
2, 107280, Note_on_c, 0, 74, 75
2, 107280, Note_on_c, 0, 77, 75
2, 107520, Note_on_c, 0, 77, 0
2, 107520, Note_on_c, 0, 74, 0
2, 107520, Note_on_c, 0, 69, 0
2, 107520, Note_on_c, 0, 74, 75
2, 107520, Note_on_c, 0, 77, 75
2, 107520, Note_on_c, 0, 81, 75
2, 107760, Note_on_c, 0, 81, 0
2, 107760, Note_on_c, 0, 77, 0
2, 107760, Note_on_c, 0, 74, 0
2, 107760, Control_c, 0, 64, 0
2, 107760, Note_on_c, 0, 77, 75
2, 107760, Note_on_c, 0, 81, 75
2, 107760, Note_on_c, 0, 86, 75
2, 108000, Note_on_c, 0, 86, 0
2, 108000, Note_on_c, 0, 81, 0
2, 108000, Note_on_c, 0, 77, 0
2, 108000, Control_c, 0, 64, 127
2, 108000, Note_on_c, 0, 77, 75
2, 108000, Note_on_c, 0, 84, 75
2, 108000, Note_on_c, 0, 87, 75
2, 108240, Note_on_c, 0, 87, 0
2, 108240, Note_on_c, 0, 84, 0
2, 108240, Note_on_c, 0, 77, 0
2, 108240, Note_on_c, 0, 75, 75
2, 108240, Note_on_c, 0, 77, 75
2, 108240, Note_on_c, 0, 84, 75
2, 108480, Note_on_c, 0, 84, 0
2, 108480, Note_on_c, 0, 77, 0
2, 108480, Note_on_c, 0, 75, 0
2, 108480, Note_on_c, 0, 72, 75
2, 108480, Note_on_c, 0, 75, 75
2, 108480, Note_on_c, 0, 77, 75
2, 108720, Note_on_c, 0, 77, 0
2, 108720, Note_on_c, 0, 75, 0
2, 108720, Note_on_c, 0, 72, 0
2, 108720, Note_on_c, 0, 65, 75
2, 108720, Note_on_c, 0, 72, 75
2, 108720, Note_on_c, 0, 75, 75
2, 108960, Note_on_c, 0, 75, 0
2, 108960, Note_on_c, 0, 72, 0
2, 108960, Note_on_c, 0, 65, 0
2, 108960, Note_on_c, 0, 65, 75
2, 108960, Note_on_c, 0, 70, 75
2, 108960, Note_on_c, 0, 74, 75
2, 109200, Note_on_c, 0, 74, 0
2, 109200, Note_on_c, 0, 70, 0
2, 109200, Note_on_c, 0, 65, 0
2, 109200, Control_c, 0, 64, 0
2, 109200, Note_on_c, 0, 62, 75
2, 109200, Note_on_c, 0, 65, 75
2, 109200, Note_on_c, 0, 70, 75
2, 109440, Note_on_c, 0, 70, 0
2, 109440, Note_on_c, 0, 65, 0
2, 109440, Note_on_c, 0, 62, 0
2, 109440, Control_c, 0, 64, 127
2, 109440, Note_on_c, 0, 63, 75
2, 109440, Note_on_c, 0, 69, 75
2, 109680, Note_on_c, 0, 69, 0
2, 109680, Note_on_c, 0, 63, 0
2, 109680, Note_on_c, 0, 69, 75
2, 109680, Note_on_c, 0, 75, 75
2, 109680, Note_on_c, 0, 79, 75
2, 109920, Note_on_c, 0, 79, 0
2, 109920, Note_on_c, 0, 75, 0
2, 109920, Note_on_c, 0, 69, 0
2, 109920, Note_on_c, 0, 70, 75
2, 109920, Note_on_c, 0, 74, 75
2, 109920, Note_on_c, 0, 77, 75
2, 110160, Note_on_c, 0, 77, 0
2, 110160, Note_on_c, 0, 74, 0
2, 110160, Note_on_c, 0, 70, 0
2, 110160, Note_on_c, 0, 65, 75
2, 110160, Note_on_c, 0, 70, 75
2, 110160, Note_on_c, 0, 74, 75
2, 110400, Note_on_c, 0, 74, 0
2, 110400, Note_on_c, 0, 70, 0
2, 110400, Note_on_c, 0, 65, 0
2, 110400, Note_on_c, 0, 67, 75
2, 110400, Note_on_c, 0, 70, 75
2, 110400, Note_on_c, 0, 72, 75
2, 110640, Note_on_c, 0, 72, 0
2, 110640, Note_on_c, 0, 70, 0
2, 110640, Note_on_c, 0, 67, 0
2, 110640, Control_c, 0, 64, 0
2, 110640, Note_on_c, 0, 72, 75
2, 110640, Note_on_c, 0, 79, 75
2, 110640, Note_on_c, 0, 82, 75
2, 110880, Note_on_c, 0, 82, 0
2, 110880, Note_on_c, 0, 79, 0
2, 110880, Note_on_c, 0, 72, 0
2, 110880, Note_on_c, 0, 74, 75
2, 110880, Note_on_c, 0, 77, 75
2, 110880, Note_on_c, 0, 82, 75
2, 111840, Note_on_c, 0, 82, 0
2, 111840, Note_on_c, 0, 77, 0
2, 111840, Note_on_c, 0, 74, 0
2, 111840, Note_on_c, 0, 65, 75
2, 111840, Note_on_c, 0, 70, 75
2, 111840, Note_on_c, 0, 74, 75
2, 111840, Note_on_c, 0, 77, 75
2, 112680, Note_on_c, 0, 77, 0
2, 112680, Note_on_c, 0, 65, 0
2, 112680, Note_on_c, 0, 70, 0
2, 112680, Note_on_c, 0, 74, 0
2, 112680, Note_on_c, 0, 70, 75
2, 112800, Note_on_c, 0, 65, 75
2, 112800, Note_on_c, 0, 74, 75
2, 113280, Note_on_c, 0, 74, 0
2, 113280, Note_on_c, 0, 65, 0
2, 113280, Note_on_c, 0, 70, 0
2, 113280, Note_on_c, 0, 65, 75
2, 113280, Note_on_c, 0, 69, 75
2, 113280, Note_on_c, 0, 72, 75
2, 113760, Note_on_c, 0, 72, 0
2, 113760, Note_on_c, 0, 69, 0
2, 113760, Note_on_c, 0, 65, 0
2, 113760, Note_on_c, 0, 65, 62
2, 113760, Note_on_c, 0, 68, 62
2, 113760, Note_on_c, 0, 72, 62
2, 113760, Note_on_c, 0, 77, 62
2, 115200, Note_on_c, 0, 77, 0
2, 115200, Note_on_c, 0, 65, 0
2, 115200, Note_on_c, 0, 68, 0
2, 115200, Note_on_c, 0, 72, 0
2, 115200, Note_on_c, 0, 65, 62
2, 115200, Note_on_c, 0, 67, 62
2, 115200, Note_on_c, 0, 71, 62
2, 115200, Note_on_c, 0, 77, 62
2, 116640, Note_on_c, 0, 77, 0
2, 116640, Note_on_c, 0, 65, 0
2, 116640, Note_on_c, 0, 67, 0
2, 116640, Note_on_c, 0, 71, 0
2, 116640, Note_on_c, 0, 76, 62
2, 117120, Note_on_c, 0, 76, 0
2, 117120, Note_on_c, 0, 72, 62
2, 117600, Note_on_c, 0, 72, 0
2, 117600, Note_on_c, 0, 70, 62
2, 118080, Note_on_c, 0, 70, 0
2, 118080, Note_on_c, 0, 70, 62
2, 119040, Note_on_c, 0, 70, 0
2, 119040, Note_on_c, 0, 69, 62
2, 119520, Note_on_c, 0, 69, 0
2, 119520, Note_on_c, 0, 65, 75
2, 119520, Note_on_c, 0, 68, 75
2, 119520, Note_on_c, 0, 74, 75
2, 119520, Note_on_c, 0, 77, 75
2, 120960, Note_on_c, 0, 77, 0
2, 120960, Note_on_c, 0, 65, 0
2, 120960, Note_on_c, 0, 68, 0
2, 120960, Note_on_c, 0, 74, 0
2, 120960, Note_on_c, 0, 67, 75
2, 120960, Note_on_c, 0, 71, 75
2, 120960, Note_on_c, 0, 74, 75
2, 120960, Note_on_c, 0, 77, 75
2, 120960, Note_on_c, 0, 79, 75
2, 122400, Note_on_c, 0, 79, 0
2, 122400, Note_on_c, 0, 74, 0
2, 122400, Note_on_c, 0, 67, 0
2, 122400, Note_on_c, 0, 71, 0
2, 122400, Note_on_c, 0, 77, 0
2, 122400, Note_on_c, 0, 67, 75
2, 122400, Note_on_c, 0, 76, 75
2, 122400, Note_on_c, 0, 79, 75
2, 122880, Note_on_c, 0, 79, 0
2, 122880, Note_on_c, 0, 76, 0
2, 122880, Note_on_c, 0, 67, 0
2, 122880, Note_on_c, 0, 69, 75
2, 122880, Note_on_c, 0, 81, 75
2, 123360, Note_on_c, 0, 81, 0
2, 123360, Note_on_c, 0, 69, 0
2, 123360, Note_on_c, 0, 70, 75
2, 123360, Note_on_c, 0, 82, 75
2, 123840, Note_on_c, 0, 82, 0
2, 123840, Note_on_c, 0, 70, 0
2, 123840, Note_on_c, 0, 70, 75
2, 123840, Note_on_c, 0, 72, 75
2, 123840, Note_on_c, 0, 75, 75
2, 123840, Note_on_c, 0, 82, 75
2, 124800, Note_on_c, 0, 82, 0
2, 124800, Note_on_c, 0, 70, 0
2, 124800, Note_on_c, 0, 72, 0
2, 124800, Note_on_c, 0, 75, 0
2, 124800, Note_on_c, 0, 69, 75
2, 124800, Note_on_c, 0, 81, 75
2, 125280, Note_on_c, 0, 81, 0
2, 125280, Note_on_c, 0, 69, 0
2, 125280, Note_on_c, 0, 77, 88
2, 125280, Note_on_c, 0, 82, 88
2, 125280, Note_on_c, 0, 86, 88
2, 125280, Note_on_c, 0, 89, 88
2, 125760, Note_on_c, 0, 89, 0
2, 125760, Note_on_c, 0, 77, 0
2, 125760, Note_on_c, 0, 82, 0
2, 125760, Note_on_c, 0, 86, 0
2, 125760, Note_on_c, 0, 82, 88
2, 125760, Note_on_c, 0, 86, 88
2, 126240, Note_on_c, 0, 86, 0
2, 126240, Note_on_c, 0, 82, 0
2, 126240, Note_on_c, 0, 77, 88
2, 126240, Note_on_c, 0, 82, 88
2, 126720, Note_on_c, 0, 82, 0
2, 126720, Note_on_c, 0, 77, 0
2, 126720, Note_on_c, 0, 74, 88
2, 126720, Note_on_c, 0, 77, 88
2, 126720, Note_on_c, 0, 82, 88
2, 128160, Note_on_c, 0, 82, 0
2, 128160, Note_on_c, 0, 77, 0
2, 128160, Note_on_c, 0, 74, 0
2, 128160, Note_on_c, 0, 74, 88
2, 128160, Note_on_c, 0, 77, 88
2, 128160, Note_on_c, 0, 82, 88
2, 128160, Note_on_c, 0, 86, 88
2, 128640, Note_on_c, 0, 86, 0
2, 128640, Note_on_c, 0, 74, 0
2, 128640, Note_on_c, 0, 77, 0
2, 128640, Note_on_c, 0, 82, 0
2, 128640, Note_on_c, 0, 77, 88
2, 128640, Note_on_c, 0, 82, 88
2, 129120, Note_on_c, 0, 82, 0
2, 129120, Note_on_c, 0, 77, 0
2, 129120, Note_on_c, 0, 74, 88
2, 129120, Note_on_c, 0, 77, 88
2, 129600, Note_on_c, 0, 77, 0
2, 129600, Note_on_c, 0, 74, 0
2, 129600, Note_on_c, 0, 74, 88
2, 129600, Note_on_c, 0, 77, 88
2, 131040, Note_on_c, 0, 77, 0
2, 131040, Note_on_c, 0, 74, 0
2, 131040, Control_c, 0, 64, 127
2, 131040, Note_on_c, 0, 74, 75
2, 131040, Note_on_c, 0, 77, 75
2, 131040, Note_on_c, 0, 82, 75
2, 131040, Note_on_c, 0, 86, 75
2, 131280, Note_on_c, 0, 86, 0
2, 131280, Note_on_c, 0, 74, 0
2, 131280, Note_on_c, 0, 77, 0
2, 131280, Note_on_c, 0, 82, 0
2, 131280, Note_on_c, 0, 74, 75
2, 131280, Note_on_c, 0, 77, 75
2, 131280, Note_on_c, 0, 82, 75
2, 131520, Note_on_c, 0, 82, 0
2, 131520, Note_on_c, 0, 77, 0
2, 131520, Note_on_c, 0, 74, 0
2, 131520, Note_on_c, 0, 70, 75
2, 131520, Note_on_c, 0, 74, 75
2, 131520, Note_on_c, 0, 77, 75
2, 131760, Note_on_c, 0, 77, 0
2, 131760, Note_on_c, 0, 74, 0
2, 131760, Note_on_c, 0, 70, 0
2, 131760, Note_on_c, 0, 65, 75
2, 131760, Note_on_c, 0, 70, 75
2, 131760, Note_on_c, 0, 74, 75
2, 132000, Note_on_c, 0, 74, 0
2, 132000, Note_on_c, 0, 70, 0
2, 132000, Note_on_c, 0, 65, 0
2, 132000, Note_on_c, 0, 62, 75
2, 132000, Note_on_c, 0, 65, 75
2, 132000, Note_on_c, 0, 70, 75
2, 132240, Note_on_c, 0, 70, 0
2, 132240, Note_on_c, 0, 65, 0
2, 132240, Note_on_c, 0, 62, 0
2, 132240, Note_on_c, 0, 74, 75
2, 132240, Note_on_c, 0, 77, 75
2, 132240, Note_on_c, 0, 82, 75
2, 132480, Note_on_c, 0, 82, 0
2, 132480, Note_on_c, 0, 77, 0
2, 132480, Note_on_c, 0, 74, 0
2, 132480, Note_on_c, 0, 74, 75
2, 132480, Note_on_c, 0, 77, 75
2, 132480, Note_on_c, 0, 82, 75
2, 132720, Note_on_c, 0, 82, 0
2, 132720, Note_on_c, 0, 77, 0
2, 132720, Note_on_c, 0, 74, 0
2, 132720, Note_on_c, 0, 70, 75
2, 132720, Note_on_c, 0, 74, 75
2, 132720, Note_on_c, 0, 77, 75
2, 132960, Note_on_c, 0, 77, 0
2, 132960, Note_on_c, 0, 74, 0
2, 132960, Note_on_c, 0, 70, 0
2, 132960, Note_on_c, 0, 65, 75
2, 132960, Note_on_c, 0, 70, 75
2, 132960, Note_on_c, 0, 74, 75
2, 133200, Note_on_c, 0, 74, 0
2, 133200, Note_on_c, 0, 70, 0
2, 133200, Note_on_c, 0, 65, 0
2, 133200, Note_on_c, 0, 62, 75
2, 133200, Note_on_c, 0, 65, 75
2, 133200, Note_on_c, 0, 70, 75
2, 133440, Note_on_c, 0, 70, 0
2, 133440, Note_on_c, 0, 65, 0
2, 133440, Note_on_c, 0, 62, 0
2, 133440, Note_on_c, 0, 58, 75
2, 133440, Note_on_c, 0, 62, 75
2, 133440, Note_on_c, 0, 65, 75
2, 133680, Note_on_c, 0, 65, 0
2, 133680, Note_on_c, 0, 62, 0
2, 133680, Note_on_c, 0, 58, 0
2, 133680, Note_on_c, 0, 70, 75
2, 133680, Note_on_c, 0, 74, 75
2, 133680, Note_on_c, 0, 77, 75
2, 133920, Note_on_c, 0, 77, 0
2, 133920, Note_on_c, 0, 74, 0
2, 133920, Note_on_c, 0, 70, 0
2, 133920, Note_on_c, 0, 70, 75
2, 133920, Note_on_c, 0, 74, 75
2, 133920, Note_on_c, 0, 77, 75
2, 134160, Note_on_c, 0, 77, 0
2, 134160, Note_on_c, 0, 74, 0
2, 134160, Note_on_c, 0, 70, 0
2, 134160, Note_on_c, 0, 65, 75
2, 134160, Note_on_c, 0, 70, 75
2, 134160, Note_on_c, 0, 74, 75
2, 134400, Note_on_c, 0, 74, 0
2, 134400, Note_on_c, 0, 70, 0
2, 134400, Note_on_c, 0, 65, 0
2, 134400, Note_on_c, 0, 62, 75
2, 134400, Note_on_c, 0, 65, 75
2, 134400, Note_on_c, 0, 70, 75
2, 134640, Note_on_c, 0, 70, 0
2, 134640, Note_on_c, 0, 65, 0
2, 134640, Note_on_c, 0, 62, 0
2, 134640, Note_on_c, 0, 58, 75
2, 134640, Note_on_c, 0, 62, 75
2, 134640, Note_on_c, 0, 65, 75
2, 134880, Note_on_c, 0, 65, 0
2, 134880, Note_on_c, 0, 62, 0
2, 134880, Note_on_c, 0, 58, 0
2, 134880, Note_on_c, 0, 53, 75
2, 134880, Note_on_c, 0, 58, 75
2, 134880, Note_on_c, 0, 62, 75
2, 135120, Note_on_c, 0, 62, 0
2, 135120, Note_on_c, 0, 58, 0
2, 135120, Note_on_c, 0, 53, 0
2, 135120, Note_on_c, 0, 65, 62
2, 135120, Note_on_c, 0, 70, 62
2, 135120, Note_on_c, 0, 74, 62
2, 135360, Note_on_c, 0, 74, 0
2, 135360, Note_on_c, 0, 70, 0
2, 135360, Note_on_c, 0, 65, 0
2, 135360, Note_on_c, 0, 65, 62
2, 135360, Note_on_c, 0, 70, 62
2, 135360, Note_on_c, 0, 74, 62
2, 135600, Note_on_c, 0, 74, 0
2, 135600, Note_on_c, 0, 70, 0
2, 135600, Note_on_c, 0, 65, 0
2, 135600, Note_on_c, 0, 62, 62
2, 135600, Note_on_c, 0, 65, 62
2, 135600, Note_on_c, 0, 70, 62
2, 135840, Note_on_c, 0, 70, 0
2, 135840, Note_on_c, 0, 65, 0
2, 135840, Note_on_c, 0, 62, 0
2, 135840, Note_on_c, 0, 58, 62
2, 135840, Note_on_c, 0, 62, 62
2, 135840, Note_on_c, 0, 65, 62
2, 136080, Note_on_c, 0, 65, 0
2, 136080, Note_on_c, 0, 62, 0
2, 136080, Note_on_c, 0, 58, 0
2, 136080, Note_on_c, 0, 53, 62
2, 136080, Note_on_c, 0, 58, 62
2, 136080, Note_on_c, 0, 62, 62
2, 136320, Note_on_c, 0, 62, 0
2, 136320, Note_on_c, 0, 58, 0
2, 136320, Note_on_c, 0, 53, 0
2, 136320, Note_on_c, 0, 50, 62
2, 136320, Note_on_c, 0, 53, 62
2, 136320, Note_on_c, 0, 58, 62
2, 136560, Note_on_c, 0, 58, 0
2, 136560, Note_on_c, 0, 53, 0
2, 136560, Note_on_c, 0, 50, 0
2, 136560, Note_on_c, 0, 62, 49
2, 136560, Note_on_c, 0, 65, 49
2, 136560, Note_on_c, 0, 70, 49
2, 136800, Note_on_c, 0, 70, 0
2, 136800, Note_on_c, 0, 65, 0
2, 136800, Note_on_c, 0, 62, 0
2, 136800, Control_c, 0, 64, 0
2, 136800, Note_on_c, 0, 62, 49
2, 136800, Note_on_c, 0, 65, 49
2, 136800, Note_on_c, 0, 70, 49
2, 137280, Note_on_c, 0, 70, 0
2, 137280, Note_on_c, 0, 65, 0
2, 137280, Note_on_c, 0, 62, 0
2, 137280, Control_c, 0, 64, 127
2, 140160, Control_c, 0, 64, 0
2, 140160, End_track
3, 0, Start_track
3, 0, Title_t, "Grand Piano"
3, 0, Program_c, 0, 0
3, 0, Control_c, 0, 7, 115
3, 0, Control_c, 0, 10, 64
3, 2880, Note_on_c, 0, 70, 75
3, 2880, Note_on_c, 0, 74, 75
3, 3840, Note_on_c, 0, 74, 0
3, 3840, Note_on_c, 0, 70, 0
3, 4320, Note_on_c, 0, 70, 75
3, 4320, Note_on_c, 0, 74, 75
3, 5280, Note_on_c, 0, 74, 0
3, 5280, Note_on_c, 0, 70, 0
3, 5280, Note_on_c, 0, 72, 75
3, 5760, Note_on_c, 0, 72, 0
3, 7200, Note_on_c, 0, 72, 75
3, 7200, Note_on_c, 0, 75, 75
3, 7200, Note_on_c, 0, 77, 75
3, 8640, Note_on_c, 0, 77, 0
3, 8640, Note_on_c, 0, 75, 0
3, 8640, Note_on_c, 0, 72, 0
3, 14400, Note_on_c, 0, 73, 75
3, 15840, Note_on_c, 0, 73, 0
3, 44640, Note_on_c, 0, 65, 62
3, 44640, Note_on_c, 0, 68, 62
3, 46080, Note_on_c, 0, 68, 0
3, 46080, Note_on_c, 0, 65, 0
3, 46080, Note_on_c, 0, 68, 62
3, 47040, Note_on_c, 0, 68, 0
3, 47040, Note_on_c, 0, 67, 62
3, 47520, Note_on_c, 0, 67, 0
3, 54720, Note_on_c, 0, 70, 88
3, 54720, Note_on_c, 0, 73, 88
3, 54720, Note_on_c, 0, 75, 88
3, 56160, Note_on_c, 0, 75, 0
3, 56160, Note_on_c, 0, 73, 0
3, 56160, Note_on_c, 0, 70, 0
3, 80640, Note_on_c, 0, 70, 75
3, 80640, Note_on_c, 0, 74, 75
3, 81600, Note_on_c, 0, 74, 0
3, 81600, Note_on_c, 0, 70, 0
3, 82080, Note_on_c, 0, 70, 75
3, 82080, Note_on_c, 0, 74, 75
3, 83040, Note_on_c, 0, 74, 0
3, 83040, Note_on_c, 0, 70, 0
3, 83040, Note_on_c, 0, 72, 75
3, 83520, Note_on_c, 0, 72, 0
3, 84960, Note_on_c, 0, 72, 75
3, 84960, Note_on_c, 0, 75, 75
3, 84960, Note_on_c, 0, 77, 75
3, 86400, Note_on_c, 0, 77, 0
3, 86400, Note_on_c, 0, 75, 0
3, 86400, Note_on_c, 0, 72, 0
3, 116640, Note_on_c, 0, 64, 49
3, 116640, Note_on_c, 0, 67, 49
3, 118080, Note_on_c, 0, 67, 0
3, 118080, Note_on_c, 0, 64, 0
3, 118080, Note_on_c, 0, 63, 49
3, 118080, Note_on_c, 0, 65, 49
3, 119520, Note_on_c, 0, 65, 0
3, 119520, Note_on_c, 0, 63, 0
3, 119520, End_track
4, 0, Start_track
4, 0, Title_t, "Grand Piano"
4, 0, Program_c, 0, 0
4, 0, Control_c, 0, 7, 115
4, 0, Control_c, 0, 10, 41
4, 0, Control_c, 0, 64, 127
4, 0, Note_on_c, 0, 34, 75
4, 0, Note_on_c, 0, 46, 75
4, 240, Note_on_c, 0, 46, 0
4, 240, Note_on_c, 0, 34, 0
4, 240, Note_on_c, 0, 50, 75
4, 240, Note_on_c, 0, 53, 75
4, 480, Note_on_c, 0, 53, 0
4, 480, Note_on_c, 0, 50, 0
4, 480, Note_on_c, 0, 53, 75
4, 480, Note_on_c, 0, 58, 75
4, 720, Note_on_c, 0, 58, 0
4, 720, Note_on_c, 0, 53, 0
4, 720, Note_on_c, 0, 58, 75
4, 720, Note_on_c, 0, 62, 75
4, 960, Note_on_c, 0, 62, 0
4, 960, Note_on_c, 0, 58, 0
4, 960, Note_on_c, 0, 62, 75
4, 960, Note_on_c, 0, 65, 75
4, 1200, Note_on_c, 0, 65, 0
4, 1200, Note_on_c, 0, 62, 0
4, 1200, Note_on_c, 0, 65, 75
4, 1200, Note_on_c, 0, 70, 75
4, 1440, Note_on_c, 0, 70, 0
4, 1440, Note_on_c, 0, 65, 0
4, 1440, Note_on_c, 0, 33, 75
4, 1440, Note_on_c, 0, 45, 75
4, 1680, Note_on_c, 0, 45, 0
4, 1680, Note_on_c, 0, 33, 0
4, 1680, Note_on_c, 0, 50, 75
4, 1680, Note_on_c, 0, 53, 75
4, 1920, Note_on_c, 0, 53, 0
4, 1920, Note_on_c, 0, 50, 0
4, 1920, Note_on_c, 0, 53, 75
4, 1920, Note_on_c, 0, 58, 75
4, 2160, Note_on_c, 0, 58, 0
4, 2160, Note_on_c, 0, 53, 0
4, 2160, Note_on_c, 0, 58, 75
4, 2160, Note_on_c, 0, 62, 75
4, 2400, Note_on_c, 0, 62, 0
4, 2400, Note_on_c, 0, 58, 0
4, 2400, Note_on_c, 0, 62, 75
4, 2400, Note_on_c, 0, 65, 75
4, 2640, Note_on_c, 0, 65, 0
4, 2640, Note_on_c, 0, 62, 0
4, 2640, Control_c, 0, 64, 0
4, 2640, Note_on_c, 0, 65, 75
4, 2640, Note_on_c, 0, 70, 75
4, 2880, Note_on_c, 0, 70, 0
4, 2880, Note_on_c, 0, 65, 0
4, 2880, Control_c, 0, 64, 127
4, 2880, Note_on_c, 0, 31, 75
4, 2880, Note_on_c, 0, 43, 75
4, 3120, Note_on_c, 0, 43, 0
4, 3120, Note_on_c, 0, 31, 0
4, 3120, Note_on_c, 0, 46, 75
4, 3120, Note_on_c, 0, 50, 75
4, 3360, Note_on_c, 0, 50, 0
4, 3360, Note_on_c, 0, 46, 0
4, 3360, Note_on_c, 0, 50, 75
4, 3360, Note_on_c, 0, 55, 75
4, 3600, Note_on_c, 0, 55, 0
4, 3600, Note_on_c, 0, 50, 0
4, 3600, Note_on_c, 0, 55, 75
4, 3600, Note_on_c, 0, 58, 75
4, 3840, Note_on_c, 0, 58, 0
4, 3840, Note_on_c, 0, 55, 0
4, 3840, Note_on_c, 0, 58, 75
4, 3840, Note_on_c, 0, 62, 75
4, 4080, Note_on_c, 0, 62, 0
4, 4080, Note_on_c, 0, 58, 0
4, 4080, Control_c, 0, 64, 0
4, 4080, Note_on_c, 0, 62, 75
4, 4080, Note_on_c, 0, 67, 75
4, 4320, Note_on_c, 0, 67, 0
4, 4320, Note_on_c, 0, 62, 0
4, 4320, Control_c, 0, 64, 127
4, 4320, Note_on_c, 0, 36, 75
4, 4320, Note_on_c, 0, 48, 75
4, 4560, Note_on_c, 0, 48, 0
4, 4560, Note_on_c, 0, 36, 0
4, 4560, Note_on_c, 0, 48, 75
4, 4560, Note_on_c, 0, 51, 75
4, 4800, Note_on_c, 0, 51, 0
4, 4800, Note_on_c, 0, 48, 0
4, 4800, Note_on_c, 0, 51, 75
4, 4800, Note_on_c, 0, 55, 75
4, 5040, Note_on_c, 0, 55, 0
4, 5040, Note_on_c, 0, 51, 0
4, 5040, Note_on_c, 0, 55, 75
4, 5040, Note_on_c, 0, 60, 75
4, 5280, Note_on_c, 0, 60, 0
4, 5280, Note_on_c, 0, 55, 0
4, 5280, Note_on_c, 0, 60, 75
4, 5280, Note_on_c, 0, 63, 75
4, 5520, Note_on_c, 0, 63, 0
4, 5520, Note_on_c, 0, 60, 0
4, 5520, Control_c, 0, 64, 0
4, 5520, Note_on_c, 0, 63, 75
4, 5520, Note_on_c, 0, 67, 75
4, 5760, Note_on_c, 0, 67, 0
4, 5760, Note_on_c, 0, 63, 0
4, 5760, Control_c, 0, 64, 127
4, 5760, Note_on_c, 0, 39, 75
4, 5760, Note_on_c, 0, 51, 75
4, 6000, Note_on_c, 0, 51, 0
4, 6000, Note_on_c, 0, 39, 0
4, 6000, Note_on_c, 0, 51, 75
4, 6000, Note_on_c, 0, 55, 75
4, 6240, Note_on_c, 0, 55, 0
4, 6240, Note_on_c, 0, 51, 0
4, 6240, Note_on_c, 0, 55, 75
4, 6240, Note_on_c, 0, 60, 75
4, 6480, Note_on_c, 0, 60, 0
4, 6480, Note_on_c, 0, 55, 0
4, 6480, Note_on_c, 0, 60, 75
4, 6480, Note_on_c, 0, 63, 75
4, 6720, Note_on_c, 0, 63, 0
4, 6720, Note_on_c, 0, 60, 0
4, 6720, Note_on_c, 0, 63, 75
4, 6720, Note_on_c, 0, 67, 75
4, 6960, Note_on_c, 0, 67, 0
4, 6960, Note_on_c, 0, 63, 0
4, 6960, Control_c, 0, 64, 0
4, 6960, Note_on_c, 0, 67, 75
4, 6960, Note_on_c, 0, 72, 75
4, 7200, Note_on_c, 0, 72, 0
4, 7200, Note_on_c, 0, 67, 0
4, 7200, Control_c, 0, 64, 127
4, 7200, Note_on_c, 0, 41, 75
4, 7200, Note_on_c, 0, 53, 75
4, 7440, Note_on_c, 0, 53, 0
4, 7440, Note_on_c, 0, 41, 0
4, 7440, Note_on_c, 0, 48, 75
4, 7440, Note_on_c, 0, 51, 75
4, 7680, Note_on_c, 0, 51, 0
4, 7680, Note_on_c, 0, 48, 0
4, 7680, Note_on_c, 0, 51, 75
4, 7680, Note_on_c, 0, 53, 75
4, 7920, Note_on_c, 0, 53, 0
4, 7920, Note_on_c, 0, 51, 0
4, 7920, Note_on_c, 0, 53, 75
4, 7920, Note_on_c, 0, 57, 75
4, 8160, Note_on_c, 0, 57, 0
4, 8160, Note_on_c, 0, 53, 0
4, 8160, Note_on_c, 0, 57, 75
4, 8160, Note_on_c, 0, 60, 75
4, 8400, Note_on_c, 0, 60, 0
4, 8400, Note_on_c, 0, 57, 0
4, 8400, Control_c, 0, 64, 0
4, 8400, Note_on_c, 0, 60, 75
4, 8400, Note_on_c, 0, 63, 75
4, 8640, Note_on_c, 0, 63, 0
4, 8640, Note_on_c, 0, 60, 0
4, 8640, Control_c, 0, 64, 127
4, 8640, Note_on_c, 0, 33, 75
4, 8640, Note_on_c, 0, 45, 75
4, 8880, Note_on_c, 0, 45, 0
4, 8880, Note_on_c, 0, 33, 0
4, 8880, Note_on_c, 0, 45, 75
4, 8880, Note_on_c, 0, 48, 75
4, 9120, Note_on_c, 0, 48, 0
4, 9120, Note_on_c, 0, 45, 0
4, 9120, Note_on_c, 0, 48, 75
4, 9120, Note_on_c, 0, 53, 75
4, 9360, Note_on_c, 0, 53, 0
4, 9360, Note_on_c, 0, 48, 0
4, 9360, Note_on_c, 0, 53, 75
4, 9360, Note_on_c, 0, 57, 75
4, 9600, Note_on_c, 0, 57, 0
4, 9600, Note_on_c, 0, 53, 0
4, 9600, Note_on_c, 0, 57, 75
4, 9600, Note_on_c, 0, 60, 75
4, 9840, Note_on_c, 0, 60, 0
4, 9840, Note_on_c, 0, 57, 0
4, 9840, Control_c, 0, 64, 0
4, 9840, Note_on_c, 0, 60, 75
4, 9840, Note_on_c, 0, 63, 75
4, 10080, Note_on_c, 0, 63, 0
4, 10080, Note_on_c, 0, 60, 0
4, 10080, Control_c, 0, 64, 127
4, 10080, Note_on_c, 0, 34, 75
4, 10080, Note_on_c, 0, 46, 75
4, 10320, Note_on_c, 0, 46, 0
4, 10320, Note_on_c, 0, 34, 0
4, 10320, Note_on_c, 0, 46, 75
4, 10320, Note_on_c, 0, 50, 75
4, 10560, Note_on_c, 0, 50, 0
4, 10560, Note_on_c, 0, 46, 0
4, 10560, Note_on_c, 0, 50, 75
4, 10560, Note_on_c, 0, 53, 75
4, 10800, Note_on_c, 0, 53, 0
4, 10800, Note_on_c, 0, 50, 0
4, 10800, Note_on_c, 0, 53, 75
4, 10800, Note_on_c, 0, 58, 75
4, 11040, Note_on_c, 0, 58, 0
4, 11040, Note_on_c, 0, 53, 0
4, 11040, Note_on_c, 0, 58, 75
4, 11040, Note_on_c, 0, 62, 75
4, 11280, Note_on_c, 0, 62, 0
4, 11280, Note_on_c, 0, 58, 0
4, 11280, Control_c, 0, 64, 0
4, 11280, Note_on_c, 0, 62, 75
4, 11280, Note_on_c, 0, 65, 75
4, 11520, Note_on_c, 0, 65, 0
4, 11520, Note_on_c, 0, 62, 0
4, 11520, Control_c, 0, 64, 127
4, 11520, Note_on_c, 0, 33, 75
4, 11520, Note_on_c, 0, 45, 75
4, 11760, Note_on_c, 0, 45, 0
4, 11760, Note_on_c, 0, 33, 0
4, 11760, Note_on_c, 0, 46, 75
4, 11760, Note_on_c, 0, 50, 75
4, 12000, Note_on_c, 0, 50, 0
4, 12000, Note_on_c, 0, 46, 0
4, 12000, Note_on_c, 0, 50, 75
4, 12000, Note_on_c, 0, 53, 75
4, 12240, Note_on_c, 0, 53, 0
4, 12240, Note_on_c, 0, 50, 0
4, 12240, Note_on_c, 0, 53, 75
4, 12240, Note_on_c, 0, 58, 75
4, 12480, Note_on_c, 0, 58, 0
4, 12480, Note_on_c, 0, 53, 0
4, 12480, Note_on_c, 0, 58, 75
4, 12480, Note_on_c, 0, 62, 75
4, 12720, Note_on_c, 0, 62, 0
4, 12720, Note_on_c, 0, 58, 0
4, 12720, Control_c, 0, 64, 0
4, 12720, Note_on_c, 0, 62, 75
4, 12720, Note_on_c, 0, 65, 75
4, 12960, Note_on_c, 0, 65, 0
4, 12960, Note_on_c, 0, 62, 0
4, 12960, Control_c, 0, 64, 127
4, 12960, Note_on_c, 0, 31, 75
4, 12960, Note_on_c, 0, 43, 75
4, 13200, Note_on_c, 0, 43, 0
4, 13200, Note_on_c, 0, 31, 0
4, 13200, Note_on_c, 0, 46, 75
4, 13200, Note_on_c, 0, 50, 75
4, 13440, Note_on_c, 0, 50, 0
4, 13440, Note_on_c, 0, 46, 0
4, 13440, Note_on_c, 0, 50, 75
4, 13440, Note_on_c, 0, 55, 75
4, 13680, Note_on_c, 0, 55, 0
4, 13680, Note_on_c, 0, 50, 0
4, 13680, Note_on_c, 0, 55, 75
4, 13680, Note_on_c, 0, 58, 75
4, 13920, Note_on_c, 0, 58, 0
4, 13920, Note_on_c, 0, 55, 0
4, 13920, Note_on_c, 0, 58, 75
4, 13920, Note_on_c, 0, 62, 75
4, 14160, Note_on_c, 0, 62, 0
4, 14160, Note_on_c, 0, 58, 0
4, 14160, Control_c, 0, 64, 0
4, 14160, Note_on_c, 0, 62, 75
4, 14160, Note_on_c, 0, 67, 75
4, 14400, Note_on_c, 0, 67, 0
4, 14400, Note_on_c, 0, 62, 0
4, 14400, Control_c, 0, 64, 127
4, 14400, Note_on_c, 0, 39, 75
4, 14400, Note_on_c, 0, 51, 75
4, 14640, Note_on_c, 0, 51, 0
4, 14640, Note_on_c, 0, 39, 0
4, 14640, Note_on_c, 0, 46, 75
4, 14640, Note_on_c, 0, 51, 75
4, 14880, Note_on_c, 0, 51, 0
4, 14880, Note_on_c, 0, 46, 0
4, 14880, Note_on_c, 0, 51, 75
4, 14880, Note_on_c, 0, 55, 75
4, 15120, Note_on_c, 0, 55, 0
4, 15120, Note_on_c, 0, 51, 0
4, 15120, Note_on_c, 0, 55, 75
4, 15120, Note_on_c, 0, 58, 75
4, 15360, Note_on_c, 0, 58, 0
4, 15360, Note_on_c, 0, 55, 0
4, 15360, Note_on_c, 0, 58, 75
4, 15360, Note_on_c, 0, 63, 75
4, 15600, Note_on_c, 0, 63, 0
4, 15600, Note_on_c, 0, 58, 0
4, 15600, Control_c, 0, 64, 0
4, 15600, Note_on_c, 0, 63, 75
4, 15600, Note_on_c, 0, 67, 75
4, 15840, Note_on_c, 0, 67, 0
4, 15840, Note_on_c, 0, 63, 0
4, 15840, Control_c, 0, 64, 127
4, 15840, Note_on_c, 0, 38, 75
4, 15840, Note_on_c, 0, 50, 75
4, 16080, Note_on_c, 0, 50, 0
4, 16080, Note_on_c, 0, 38, 0
4, 16080, Note_on_c, 0, 42, 75
4, 16080, Note_on_c, 0, 45, 75
4, 16320, Note_on_c, 0, 45, 0
4, 16320, Note_on_c, 0, 42, 0
4, 16320, Note_on_c, 0, 45, 75
4, 16320, Note_on_c, 0, 50, 75
4, 16560, Note_on_c, 0, 50, 0
4, 16560, Note_on_c, 0, 45, 0
4, 16560, Note_on_c, 0, 50, 75
4, 16560, Note_on_c, 0, 54, 75
4, 16800, Note_on_c, 0, 54, 0
4, 16800, Note_on_c, 0, 50, 0
4, 16800, Note_on_c, 0, 54, 75
4, 16800, Note_on_c, 0, 57, 75
4, 17040, Note_on_c, 0, 57, 0
4, 17040, Note_on_c, 0, 54, 0
4, 17040, Control_c, 0, 64, 0
4, 17040, Note_on_c, 0, 57, 75
4, 17040, Note_on_c, 0, 62, 75
4, 17280, Note_on_c, 0, 62, 0
4, 17280, Note_on_c, 0, 57, 0
4, 17280, Control_c, 0, 64, 127
4, 17280, Note_on_c, 0, 34, 62
4, 17280, Note_on_c, 0, 46, 62
4, 17520, Note_on_c, 0, 46, 0
4, 17520, Note_on_c, 0, 34, 0
4, 17520, Note_on_c, 0, 50, 62
4, 17760, Note_on_c, 0, 50, 0
4, 17760, Note_on_c, 0, 55, 62
4, 18000, Note_on_c, 0, 55, 0
4, 18000, Note_on_c, 0, 58, 62
4, 18240, Note_on_c, 0, 58, 0
4, 18240, Note_on_c, 0, 61, 62
4, 18480, Note_on_c, 0, 61, 0
4, 18480, Control_c, 0, 64, 0
4, 18480, Note_on_c, 0, 67, 62
4, 18720, Note_on_c, 0, 67, 0
4, 18720, Control_c, 0, 64, 127
4, 18720, Note_on_c, 0, 33, 62
4, 18720, Note_on_c, 0, 45, 62
4, 18960, Note_on_c, 0, 45, 0
4, 18960, Note_on_c, 0, 33, 0
4, 18960, Note_on_c, 0, 48, 62
4, 19200, Note_on_c, 0, 48, 0
4, 19200, Note_on_c, 0, 53, 62
4, 19440, Note_on_c, 0, 53, 0
4, 19440, Note_on_c, 0, 57, 62
4, 19680, Note_on_c, 0, 57, 0
4, 19680, Note_on_c, 0, 60, 62
4, 19920, Note_on_c, 0, 60, 0
4, 19920, Control_c, 0, 64, 0
4, 19920, Note_on_c, 0, 65, 62
4, 20160, Note_on_c, 0, 65, 0
4, 20160, Control_c, 0, 64, 127
4, 20160, Note_on_c, 0, 32, 62
4, 20160, Note_on_c, 0, 44, 62
4, 20400, Note_on_c, 0, 44, 0
4, 20400, Note_on_c, 0, 32, 0
4, 20400, Note_on_c, 0, 48, 62
4, 20640, Note_on_c, 0, 48, 0
4, 20640, Note_on_c, 0, 53, 62
4, 20880, Note_on_c, 0, 53, 0
4, 20880, Note_on_c, 0, 56, 62
4, 21120, Note_on_c, 0, 56, 0
4, 21120, Note_on_c, 0, 60, 62
4, 21360, Note_on_c, 0, 60, 0
4, 21360, Control_c, 0, 64, 0
4, 21360, Note_on_c, 0, 65, 62
4, 21600, Note_on_c, 0, 65, 0
4, 21600, Control_c, 0, 64, 127
4, 21600, Note_on_c, 0, 31, 62
4, 21600, Note_on_c, 0, 43, 62
4, 21840, Note_on_c, 0, 43, 0
4, 21840, Note_on_c, 0, 31, 0
4, 21840, Note_on_c, 0, 50, 62
4, 22080, Note_on_c, 0, 50, 0
4, 22080, Note_on_c, 0, 53, 62
4, 22320, Note_on_c, 0, 53, 0
4, 22320, Note_on_c, 0, 55, 62
4, 22560, Note_on_c, 0, 55, 0
4, 22560, Note_on_c, 0, 59, 62
4, 22800, Note_on_c, 0, 59, 0
4, 22800, Control_c, 0, 64, 0
4, 22800, Note_on_c, 0, 62, 62
4, 23040, Note_on_c, 0, 62, 0
4, 23040, Control_c, 0, 64, 127
4, 23040, Note_on_c, 0, 40, 62
4, 23280, Note_on_c, 0, 40, 0
4, 23280, Note_on_c, 0, 48, 62
4, 23520, Note_on_c, 0, 48, 0
4, 23520, Note_on_c, 0, 52, 62
4, 23760, Note_on_c, 0, 52, 0
4, 23760, Note_on_c, 0, 55, 62
4, 24000, Note_on_c, 0, 55, 0
4, 24000, Note_on_c, 0, 60, 62
4, 24240, Note_on_c, 0, 60, 0
4, 24240, Control_c, 0, 64, 0
4, 24240, Note_on_c, 0, 64, 62
4, 24480, Note_on_c, 0, 64, 0
4, 24480, Control_c, 0, 64, 127
4, 24480, Note_on_c, 0, 37, 75
4, 24480, Note_on_c, 0, 49, 75
4, 24720, Note_on_c, 0, 49, 0
4, 24720, Note_on_c, 0, 37, 0
4, 24720, Note_on_c, 0, 52, 75
4, 24720, Note_on_c, 0, 55, 75
4, 24960, Note_on_c, 0, 55, 0
4, 24960, Note_on_c, 0, 52, 0
4, 24960, Note_on_c, 0, 55, 75
4, 24960, Note_on_c, 0, 58, 75
4, 25200, Note_on_c, 0, 58, 0
4, 25200, Note_on_c, 0, 55, 0
4, 25200, Note_on_c, 0, 58, 75
4, 25200, Note_on_c, 0, 64, 75
4, 25440, Note_on_c, 0, 64, 0
4, 25440, Note_on_c, 0, 58, 0
4, 25440, Note_on_c, 0, 38, 75
4, 25440, Note_on_c, 0, 50, 75
4, 25680, Note_on_c, 0, 50, 0
4, 25680, Note_on_c, 0, 38, 0
4, 25680, Control_c, 0, 64, 0
4, 25680, Note_on_c, 0, 53, 75
4, 25680, Note_on_c, 0, 62, 75
4, 25920, Note_on_c, 0, 62, 0
4, 25920, Note_on_c, 0, 53, 0
4, 25920, Control_c, 0, 64, 127
4, 25920, Note_on_c, 0, 34, 75
4, 25920, Note_on_c, 0, 46, 75
4, 26160, Note_on_c, 0, 46, 0
4, 26160, Note_on_c, 0, 34, 0
4, 26160, Note_on_c, 0, 43, 75
4, 26160, Note_on_c, 0, 46, 75
4, 26160, Note_on_c, 0, 50, 75
4, 26400, Note_on_c, 0, 50, 0
4, 26400, Note_on_c, 0, 46, 0
4, 26400, Note_on_c, 0, 43, 0
4, 26400, Note_on_c, 0, 46, 75
4, 26400, Note_on_c, 0, 50, 75
4, 26400, Note_on_c, 0, 55, 75
4, 26640, Note_on_c, 0, 55, 0
4, 26640, Note_on_c, 0, 50, 0
4, 26640, Note_on_c, 0, 46, 0
4, 26640, Note_on_c, 0, 50, 75
4, 26640, Note_on_c, 0, 55, 75
4, 26640, Note_on_c, 0, 58, 75
4, 26880, Note_on_c, 0, 58, 0
4, 26880, Note_on_c, 0, 55, 0
4, 26880, Note_on_c, 0, 50, 0
4, 26880, Note_on_c, 0, 55, 75
4, 26880, Note_on_c, 0, 58, 75
4, 26880, Note_on_c, 0, 62, 75
4, 27120, Note_on_c, 0, 62, 0
4, 27120, Note_on_c, 0, 58, 0
4, 27120, Note_on_c, 0, 55, 0
4, 27120, Control_c, 0, 64, 0
4, 27120, Note_on_c, 0, 58, 75
4, 27120, Note_on_c, 0, 62, 75
4, 27120, Note_on_c, 0, 67, 75
4, 27360, Note_on_c, 0, 67, 0
4, 27360, Note_on_c, 0, 62, 0
4, 27360, Note_on_c, 0, 58, 0
4, 27360, Control_c, 0, 64, 127
4, 27360, Note_on_c, 0, 36, 75
4, 27360, Note_on_c, 0, 48, 75
4, 27600, Note_on_c, 0, 48, 0
4, 27600, Note_on_c, 0, 36, 0
4, 27600, Note_on_c, 0, 43, 75
4, 27600, Note_on_c, 0, 46, 75
4, 27600, Note_on_c, 0, 48, 75
4, 27840, Note_on_c, 0, 48, 0
4, 27840, Note_on_c, 0, 46, 0
4, 27840, Note_on_c, 0, 43, 0
4, 27840, Note_on_c, 0, 46, 75
4, 27840, Note_on_c, 0, 48, 75
4, 27840, Note_on_c, 0, 55, 75
4, 28080, Note_on_c, 0, 55, 0
4, 28080, Note_on_c, 0, 48, 0
4, 28080, Note_on_c, 0, 46, 0
4, 28080, Note_on_c, 0, 48, 75
4, 28080, Note_on_c, 0, 55, 75
4, 28080, Note_on_c, 0, 58, 75
4, 28320, Note_on_c, 0, 58, 0
4, 28320, Note_on_c, 0, 55, 0
4, 28320, Note_on_c, 0, 48, 0
4, 28320, Note_on_c, 0, 55, 75
4, 28320, Note_on_c, 0, 58, 75
4, 28320, Note_on_c, 0, 60, 75
4, 28560, Note_on_c, 0, 60, 0
4, 28560, Note_on_c, 0, 58, 0
4, 28560, Note_on_c, 0, 55, 0
4, 28560, Control_c, 0, 64, 0
4, 28560, Note_on_c, 0, 58, 75
4, 28560, Note_on_c, 0, 60, 75
4, 28560, Note_on_c, 0, 67, 75
4, 28800, Note_on_c, 0, 67, 0
4, 28800, Note_on_c, 0, 60, 0
4, 28800, Note_on_c, 0, 58, 0
4, 28800, Note_on_c, 0, 33, 88
4, 28800, Note_on_c, 0, 45, 88
4, 30240, Note_on_c, 0, 45, 0
4, 30240, Note_on_c, 0, 33, 0
4, 30240, Note_on_c, 0, 34, 88
4, 30240, Note_on_c, 0, 46, 88
4, 31680, Note_on_c, 0, 46, 0
4, 31680, Note_on_c, 0, 34, 0
4, 31680, Note_on_c, 0, 36, 88
4, 31680, Note_on_c, 0, 48, 88
4, 32160, Note_on_c, 0, 48, 0
4, 32160, Note_on_c, 0, 36, 0
4, 32160, Note_on_c, 0, 36, 88
4, 32160, Note_on_c, 0, 48, 88
4, 32640, Note_on_c, 0, 48, 0
4, 32640, Note_on_c, 0, 36, 0
4, 32640, Note_on_c, 0, 36, 88
4, 32640, Note_on_c, 0, 48, 88
4, 33120, Note_on_c, 0, 48, 0
4, 33120, Note_on_c, 0, 36, 0
4, 33120, Note_on_c, 0, 38, 88
4, 33120, Note_on_c, 0, 50, 88
4, 34560, Note_on_c, 0, 50, 0
4, 34560, Note_on_c, 0, 38, 0
4, 34560, Note_on_c, 0, 40, 88
4, 34560, Note_on_c, 0, 52, 88
4, 36000, Note_on_c, 0, 52, 0
4, 36000, Note_on_c, 0, 40, 0
4, 36000, Note_on_c, 0, 40, 88
4, 36000, Note_on_c, 0, 52, 88
4, 36960, Note_on_c, 0, 52, 0
4, 36960, Note_on_c, 0, 40, 0
4, 36960, Note_on_c, 0, 41, 88
4, 36960, Note_on_c, 0, 53, 88
4, 37440, Note_on_c, 0, 53, 0
4, 37440, Note_on_c, 0, 41, 0
4, 37440, Note_on_c, 0, 43, 88
4, 37440, Note_on_c, 0, 55, 88
4, 37920, Note_on_c, 0, 55, 0
4, 37920, Note_on_c, 0, 43, 0
4, 37920, Note_on_c, 0, 45, 88
4, 37920, Note_on_c, 0, 57, 88
4, 38400, Note_on_c, 0, 57, 0
4, 38400, Note_on_c, 0, 45, 0
4, 38400, Note_on_c, 0, 46, 88
4, 38400, Note_on_c, 0, 58, 88
4, 38640, Note_on_c, 0, 58, 0
4, 38640, Note_on_c, 0, 46, 0
4, 38640, Note_on_c, 0, 43, 88
4, 38640, Note_on_c, 0, 55, 88
4, 38880, Note_on_c, 0, 55, 0
4, 38880, Note_on_c, 0, 43, 0
4, 38880, Control_c, 0, 64, 127
4, 38880, Note_on_c, 0, 48, 75
4, 38880, Note_on_c, 0, 60, 75
4, 39120, Note_on_c, 0, 60, 0
4, 39120, Note_on_c, 0, 48, 0
4, 39120, Note_on_c, 0, 45, 75
4, 39120, Note_on_c, 0, 57, 75
4, 39360, Note_on_c, 0, 57, 0
4, 39360, Note_on_c, 0, 45, 0
4, 39360, Note_on_c, 0, 41, 75
4, 39360, Note_on_c, 0, 53, 75
4, 39600, Note_on_c, 0, 53, 0
4, 39600, Note_on_c, 0, 41, 0
4, 39600, Note_on_c, 0, 36, 75
4, 39600, Note_on_c, 0, 48, 75
4, 39840, Note_on_c, 0, 48, 0
4, 39840, Note_on_c, 0, 36, 0
4, 39840, Note_on_c, 0, 33, 75
4, 39840, Note_on_c, 0, 45, 75
4, 40080, Note_on_c, 0, 45, 0
4, 40080, Note_on_c, 0, 33, 0
4, 40080, Note_on_c, 0, 29, 75
4, 40080, Note_on_c, 0, 41, 75
4, 40320, Note_on_c, 0, 41, 0
4, 40320, Note_on_c, 0, 29, 0
4, 40320, Control_c, 0, 64, 0
4, 40320, Note_on_c, 0, 36, 88
4, 41280, Note_on_c, 0, 36, 0
4, 41280, Note_on_c, 0, 36, 88
4, 41280, Note_on_c, 0, 48, 88
4, 41760, Note_on_c, 0, 48, 0
4, 41760, Note_on_c, 0, 36, 0
4, 41760, Control_c, 0, 64, 127
4, 41760, Note_on_c, 0, 29, 62
4, 41760, Note_on_c, 0, 41, 62
4, 42000, Note_on_c, 0, 41, 0
4, 42000, Note_on_c, 0, 29, 0
4, 42000, Note_on_c, 0, 45, 62
4, 42000, Note_on_c, 0, 48, 62
4, 42240, Note_on_c, 0, 48, 0
4, 42240, Note_on_c, 0, 45, 0
4, 42240, Note_on_c, 0, 48, 62
4, 42240, Note_on_c, 0, 53, 62
4, 42480, Note_on_c, 0, 53, 0
4, 42480, Note_on_c, 0, 48, 0
4, 42480, Note_on_c, 0, 53, 62
4, 42480, Note_on_c, 0, 57, 62
4, 42720, Note_on_c, 0, 57, 0
4, 42720, Note_on_c, 0, 53, 0
4, 42720, Note_on_c, 0, 57, 62
4, 42720, Note_on_c, 0, 60, 62
4, 42960, Note_on_c, 0, 60, 0
4, 42960, Note_on_c, 0, 57, 0
4, 42960, Control_c, 0, 64, 0
4, 42960, Note_on_c, 0, 60, 62
4, 42960, Note_on_c, 0, 65, 62
4, 43200, Note_on_c, 0, 65, 0
4, 43200, Note_on_c, 0, 60, 0
4, 43200, Control_c, 0, 64, 127
4, 43200, Note_on_c, 0, 39, 62
4, 43440, Note_on_c, 0, 39, 0
4, 43440, Note_on_c, 0, 45, 62
4, 43440, Note_on_c, 0, 48, 62
4, 43680, Note_on_c, 0, 48, 0
4, 43680, Note_on_c, 0, 45, 0
4, 43680, Note_on_c, 0, 48, 62
4, 43680, Note_on_c, 0, 53, 62
4, 43920, Note_on_c, 0, 53, 0
4, 43920, Note_on_c, 0, 48, 0
4, 43920, Note_on_c, 0, 53, 62
4, 43920, Note_on_c, 0, 57, 62
4, 44160, Note_on_c, 0, 57, 0
4, 44160, Note_on_c, 0, 53, 0
4, 44160, Note_on_c, 0, 57, 62
4, 44160, Note_on_c, 0, 60, 62
4, 44400, Note_on_c, 0, 60, 0
4, 44400, Note_on_c, 0, 57, 0
4, 44400, Control_c, 0, 64, 0
4, 44400, Note_on_c, 0, 60, 62
4, 44400, Note_on_c, 0, 65, 62
4, 44640, Note_on_c, 0, 65, 0
4, 44640, Note_on_c, 0, 60, 0
4, 44640, Control_c, 0, 64, 127
4, 44640, Note_on_c, 0, 38, 62
4, 44880, Note_on_c, 0, 38, 0
4, 44880, Note_on_c, 0, 41, 62
4, 44880, Note_on_c, 0, 44, 62
4, 45120, Note_on_c, 0, 44, 0
4, 45120, Note_on_c, 0, 41, 0
4, 45120, Note_on_c, 0, 44, 62
4, 45120, Note_on_c, 0, 50, 62
4, 45360, Note_on_c, 0, 50, 0
4, 45360, Note_on_c, 0, 44, 0
4, 45360, Note_on_c, 0, 50, 62
4, 45360, Note_on_c, 0, 53, 62
4, 45600, Note_on_c, 0, 53, 0
4, 45600, Note_on_c, 0, 50, 0
4, 45600, Note_on_c, 0, 53, 62
4, 45600, Note_on_c, 0, 56, 62
4, 45840, Note_on_c, 0, 56, 0
4, 45840, Note_on_c, 0, 53, 0
4, 45840, Control_c, 0, 64, 0
4, 45840, Note_on_c, 0, 56, 62
4, 45840, Note_on_c, 0, 62, 62
4, 46080, Note_on_c, 0, 62, 0
4, 46080, Note_on_c, 0, 56, 0
4, 46080, Control_c, 0, 64, 127
4, 46080, Note_on_c, 0, 31, 62
4, 46080, Note_on_c, 0, 43, 62
4, 46320, Note_on_c, 0, 43, 0
4, 46320, Note_on_c, 0, 31, 0
4, 46320, Note_on_c, 0, 43, 62
4, 46320, Note_on_c, 0, 47, 62
4, 46560, Note_on_c, 0, 47, 0
4, 46560, Note_on_c, 0, 43, 0
4, 46560, Note_on_c, 0, 47, 62
4, 46560, Note_on_c, 0, 50, 62
4, 46800, Note_on_c, 0, 50, 0
4, 46800, Note_on_c, 0, 47, 0
4, 46800, Note_on_c, 0, 50, 62
4, 46800, Note_on_c, 0, 53, 62
4, 47040, Note_on_c, 0, 53, 0
4, 47040, Note_on_c, 0, 50, 0
4, 47040, Note_on_c, 0, 53, 62
4, 47040, Note_on_c, 0, 55, 62
4, 47280, Note_on_c, 0, 55, 0
4, 47280, Note_on_c, 0, 53, 0
4, 47280, Control_c, 0, 64, 0
4, 47280, Note_on_c, 0, 55, 62
4, 47280, Note_on_c, 0, 59, 62
4, 47520, Note_on_c, 0, 59, 0
4, 47520, Note_on_c, 0, 55, 0
4, 47520, Control_c, 0, 64, 127
4, 47520, Note_on_c, 0, 36, 75
4, 47520, Note_on_c, 0, 48, 75
4, 47760, Note_on_c, 0, 48, 0
4, 47760, Note_on_c, 0, 36, 0
4, 47760, Note_on_c, 0, 48, 75
4, 47760, Note_on_c, 0, 51, 75
4, 48000, Note_on_c, 0, 51, 0
4, 48000, Note_on_c, 0, 48, 0
4, 48000, Note_on_c, 0, 51, 75
4, 48000, Note_on_c, 0, 55, 75
4, 48240, Note_on_c, 0, 55, 0
4, 48240, Note_on_c, 0, 51, 0
4, 48240, Note_on_c, 0, 55, 75
4, 48240, Note_on_c, 0, 60, 75
4, 48480, Note_on_c, 0, 60, 0
4, 48480, Note_on_c, 0, 55, 0
4, 48480, Note_on_c, 0, 60, 75
4, 48480, Note_on_c, 0, 63, 75
4, 48720, Note_on_c, 0, 63, 0
4, 48720, Note_on_c, 0, 60, 0
4, 48720, Control_c, 0, 64, 0
4, 48720, Note_on_c, 0, 63, 75
4, 48720, Note_on_c, 0, 67, 75
4, 48960, Note_on_c, 0, 67, 0
4, 48960, Note_on_c, 0, 63, 0
4, 48960, Control_c, 0, 64, 127
4, 48960, Note_on_c, 0, 34, 75
4, 48960, Note_on_c, 0, 46, 75
4, 49200, Note_on_c, 0, 46, 0
4, 49200, Note_on_c, 0, 34, 0
4, 49200, Note_on_c, 0, 48, 75
4, 49200, Note_on_c, 0, 51, 75
4, 49440, Note_on_c, 0, 51, 0
4, 49440, Note_on_c, 0, 48, 0
4, 49440, Note_on_c, 0, 51, 75
4, 49440, Note_on_c, 0, 55, 75
4, 49680, Note_on_c, 0, 55, 0
4, 49680, Note_on_c, 0, 51, 0
4, 49680, Note_on_c, 0, 55, 75
4, 49680, Note_on_c, 0, 60, 75
4, 49920, Note_on_c, 0, 60, 0
4, 49920, Note_on_c, 0, 55, 0
4, 49920, Note_on_c, 0, 60, 75
4, 49920, Note_on_c, 0, 63, 75
4, 50160, Note_on_c, 0, 63, 0
4, 50160, Note_on_c, 0, 60, 0
4, 50160, Control_c, 0, 64, 0
4, 50160, Note_on_c, 0, 63, 75
4, 50160, Note_on_c, 0, 67, 75
4, 50400, Note_on_c, 0, 67, 0
4, 50400, Note_on_c, 0, 63, 0
4, 50400, Control_c, 0, 64, 127
4, 50400, Note_on_c, 0, 32, 88
4, 50400, Note_on_c, 0, 44, 88
4, 50640, Note_on_c, 0, 44, 0
4, 50640, Note_on_c, 0, 32, 0
4, 50640, Note_on_c, 0, 44, 88
4, 50640, Note_on_c, 0, 48, 88
4, 50640, Note_on_c, 0, 51, 88
4, 50880, Note_on_c, 0, 51, 0
4, 50880, Note_on_c, 0, 48, 0
4, 50880, Note_on_c, 0, 44, 0
4, 50880, Note_on_c, 0, 48, 88
4, 50880, Note_on_c, 0, 51, 88
4, 50880, Note_on_c, 0, 56, 88
4, 51120, Note_on_c, 0, 56, 0
4, 51120, Note_on_c, 0, 51, 0
4, 51120, Note_on_c, 0, 48, 0
4, 51120, Note_on_c, 0, 51, 88
4, 51120, Note_on_c, 0, 56, 88
4, 51120, Note_on_c, 0, 60, 88
4, 51360, Note_on_c, 0, 60, 0
4, 51360, Note_on_c, 0, 56, 0
4, 51360, Note_on_c, 0, 51, 0
4, 51360, Note_on_c, 0, 56, 88
4, 51360, Note_on_c, 0, 60, 88
4, 51360, Note_on_c, 0, 63, 88
4, 51600, Note_on_c, 0, 63, 0
4, 51600, Note_on_c, 0, 60, 0
4, 51600, Note_on_c, 0, 56, 0
4, 51600, Control_c, 0, 64, 0
4, 51600, Note_on_c, 0, 60, 88
4, 51600, Note_on_c, 0, 63, 88
4, 51600, Note_on_c, 0, 68, 88
4, 51840, Note_on_c, 0, 68, 0
4, 51840, Note_on_c, 0, 63, 0
4, 51840, Note_on_c, 0, 60, 0
4, 51840, Control_c, 0, 64, 127
4, 51840, Note_on_c, 0, 41, 88
4, 52080, Note_on_c, 0, 41, 0
4, 52080, Note_on_c, 0, 44, 88
4, 52080, Note_on_c, 0, 48, 88
4, 52320, Note_on_c, 0, 48, 0
4, 52320, Note_on_c, 0, 44, 0
4, 52320, Note_on_c, 0, 48, 88
4, 52320, Note_on_c, 0, 53, 88
4, 52560, Note_on_c, 0, 53, 0
4, 52560, Note_on_c, 0, 48, 0
4, 52560, Note_on_c, 0, 53, 88
4, 52560, Note_on_c, 0, 56, 88
4, 52800, Note_on_c, 0, 56, 0
4, 52800, Note_on_c, 0, 53, 0
4, 52800, Note_on_c, 0, 56, 88
4, 52800, Note_on_c, 0, 60, 88
4, 53040, Note_on_c, 0, 60, 0
4, 53040, Note_on_c, 0, 56, 0
4, 53040, Control_c, 0, 64, 0
4, 53040, Note_on_c, 0, 60, 88
4, 53040, Note_on_c, 0, 65, 88
4, 53280, Note_on_c, 0, 65, 0
4, 53280, Note_on_c, 0, 60, 0
4, 53280, Control_c, 0, 64, 127
4, 53280, Note_on_c, 0, 34, 88
4, 53280, Note_on_c, 0, 46, 88
4, 53520, Note_on_c, 0, 46, 0
4, 53520, Note_on_c, 0, 34, 0
4, 53520, Note_on_c, 0, 46, 88
4, 53520, Note_on_c, 0, 49, 88
4, 53760, Note_on_c, 0, 49, 0
4, 53760, Note_on_c, 0, 46, 0
4, 53760, Note_on_c, 0, 49, 88
4, 53760, Note_on_c, 0, 53, 88
4, 54000, Note_on_c, 0, 53, 0
4, 54000, Note_on_c, 0, 49, 0
4, 54000, Note_on_c, 0, 53, 88
4, 54000, Note_on_c, 0, 58, 88
4, 54240, Note_on_c, 0, 58, 0
4, 54240, Note_on_c, 0, 53, 0
4, 54240, Note_on_c, 0, 58, 88
4, 54240, Note_on_c, 0, 61, 88
4, 54480, Note_on_c, 0, 61, 0
4, 54480, Note_on_c, 0, 58, 0
4, 54480, Control_c, 0, 64, 0
4, 54480, Note_on_c, 0, 61, 88
4, 54480, Note_on_c, 0, 65, 88
4, 54720, Note_on_c, 0, 65, 0
4, 54720, Note_on_c, 0, 61, 0
4, 54720, Control_c, 0, 64, 127
4, 54720, Note_on_c, 0, 39, 88
4, 54960, Note_on_c, 0, 39, 0
4, 54960, Note_on_c, 0, 39, 88
4, 54960, Note_on_c, 0, 43, 88
4, 54960, Note_on_c, 0, 46, 88
4, 55200, Note_on_c, 0, 46, 0
4, 55200, Note_on_c, 0, 43, 0
4, 55200, Note_on_c, 0, 39, 0
4, 55200, Note_on_c, 0, 43, 88
4, 55200, Note_on_c, 0, 46, 88
4, 55200, Note_on_c, 0, 51, 88
4, 55440, Note_on_c, 0, 51, 0
4, 55440, Note_on_c, 0, 46, 0
4, 55440, Note_on_c, 0, 43, 0
4, 55440, Note_on_c, 0, 46, 88
4, 55440, Note_on_c, 0, 51, 88
4, 55440, Note_on_c, 0, 55, 88
4, 55680, Note_on_c, 0, 55, 0
4, 55680, Note_on_c, 0, 51, 0
4, 55680, Note_on_c, 0, 46, 0
4, 55680, Note_on_c, 0, 51, 88
4, 55680, Note_on_c, 0, 55, 88
4, 55680, Note_on_c, 0, 58, 88
4, 55920, Note_on_c, 0, 58, 0
4, 55920, Note_on_c, 0, 55, 0
4, 55920, Note_on_c, 0, 51, 0
4, 55920, Control_c, 0, 64, 0
4, 55920, Note_on_c, 0, 55, 88
4, 55920, Note_on_c, 0, 58, 88
4, 55920, Note_on_c, 0, 63, 88
4, 56160, Note_on_c, 0, 63, 0
4, 56160, Note_on_c, 0, 58, 0
4, 56160, Note_on_c, 0, 55, 0
4, 56160, Control_c, 0, 64, 127
4, 56160, Note_on_c, 0, 31, 88
4, 56160, Note_on_c, 0, 43, 88
4, 56400, Note_on_c, 0, 43, 0
4, 56400, Note_on_c, 0, 31, 0
4, 56400, Note_on_c, 0, 43, 88
4, 56400, Note_on_c, 0, 46, 88
4, 56640, Note_on_c, 0, 46, 0
4, 56640, Note_on_c, 0, 43, 0
4, 56640, Note_on_c, 0, 46, 88
4, 56640, Note_on_c, 0, 51, 88
4, 56880, Note_on_c, 0, 51, 0
4, 56880, Note_on_c, 0, 46, 0
4, 56880, Note_on_c, 0, 51, 88
4, 56880, Note_on_c, 0, 55, 88
4, 57120, Note_on_c, 0, 55, 0
4, 57120, Note_on_c, 0, 51, 0
4, 57120, Note_on_c, 0, 55, 88
4, 57120, Note_on_c, 0, 58, 88
4, 57360, Note_on_c, 0, 58, 0
4, 57360, Note_on_c, 0, 55, 0
4, 57360, Control_c, 0, 64, 0
4, 57360, Note_on_c, 0, 58, 88
4, 57360, Note_on_c, 0, 61, 88
4, 57600, Note_on_c, 0, 61, 0
4, 57600, Note_on_c, 0, 58, 0
4, 57600, Control_c, 0, 64, 127
4, 57600, Note_on_c, 0, 32, 88
4, 57600, Note_on_c, 0, 44, 88
4, 57840, Note_on_c, 0, 44, 0
4, 57840, Note_on_c, 0, 32, 0
4, 57840, Note_on_c, 0, 44, 88
4, 57840, Note_on_c, 0, 48, 88
4, 58080, Note_on_c, 0, 48, 0
4, 58080, Note_on_c, 0, 44, 0
4, 58080, Note_on_c, 0, 48, 88
4, 58080, Note_on_c, 0, 51, 88
4, 58320, Note_on_c, 0, 51, 0
4, 58320, Note_on_c, 0, 48, 0
4, 58320, Note_on_c, 0, 51, 88
4, 58320, Note_on_c, 0, 56, 88
4, 58560, Note_on_c, 0, 56, 0
4, 58560, Note_on_c, 0, 51, 0
4, 58560, Note_on_c, 0, 56, 88
4, 58560, Note_on_c, 0, 60, 88
4, 58800, Note_on_c, 0, 60, 0
4, 58800, Note_on_c, 0, 56, 0
4, 58800, Note_on_c, 0, 60, 88
4, 58800, Note_on_c, 0, 63, 88
4, 59040, Note_on_c, 0, 63, 0
4, 59040, Note_on_c, 0, 60, 0
4, 59040, Control_c, 0, 64, 0
4, 59040, Note_on_c, 0, 36, 88
4, 59040, Note_on_c, 0, 48, 88
4, 60480, Note_on_c, 0, 48, 0
4, 60480, Note_on_c, 0, 36, 0
4, 60480, Note_on_c, 0, 38, 62
4, 60480, Note_on_c, 0, 50, 62
4, 61920, Note_on_c, 0, 50, 0
4, 61920, Note_on_c, 0, 38, 0
4, 61920, Note_on_c, 0, 40, 62
4, 61920, Note_on_c, 0, 52, 62
4, 62400, Note_on_c, 0, 52, 0
4, 62400, Note_on_c, 0, 40, 0
4, 62400, Note_on_c, 0, 40, 62
4, 62400, Note_on_c, 0, 52, 62
4, 62880, Note_on_c, 0, 52, 0
4, 62880, Note_on_c, 0, 40, 0
4, 62880, Note_on_c, 0, 40, 62
4, 62880, Note_on_c, 0, 52, 62
4, 63360, Note_on_c, 0, 52, 0
4, 63360, Note_on_c, 0, 40, 0
4, 63360, Note_on_c, 0, 41, 62
4, 63360, Note_on_c, 0, 53, 62
4, 64800, Note_on_c, 0, 53, 0
4, 64800, Note_on_c, 0, 41, 0
4, 64800, Note_on_c, 0, 32, 62
4, 64800, Note_on_c, 0, 44, 62
4, 66240, Note_on_c, 0, 44, 0
4, 66240, Note_on_c, 0, 32, 0
4, 66240, Note_on_c, 0, 34, 62
4, 66240, Note_on_c, 0, 46, 62
4, 67680, Note_on_c, 0, 46, 0
4, 67680, Note_on_c, 0, 34, 0
4, 67680, Note_on_c, 0, 36, 62
4, 67680, Note_on_c, 0, 48, 62
4, 68160, Note_on_c, 0, 48, 0
4, 68160, Note_on_c, 0, 36, 0
4, 68160, Note_on_c, 0, 36, 62
4, 68160, Note_on_c, 0, 48, 62
4, 68640, Note_on_c, 0, 48, 0
4, 68640, Note_on_c, 0, 36, 0
4, 68640, Note_on_c, 0, 36, 62
4, 68640, Note_on_c, 0, 48, 62
4, 69120, Note_on_c, 0, 48, 0
4, 69120, Note_on_c, 0, 36, 0
4, 69120, Note_on_c, 0, 37, 62
4, 69120, Note_on_c, 0, 49, 62
4, 70560, Note_on_c, 0, 49, 0
4, 70560, Note_on_c, 0, 37, 0
4, 70560, Note_on_c, 0, 41, 62
4, 70560, Note_on_c, 0, 53, 62
4, 71040, Note_on_c, 0, 53, 0
4, 71040, Note_on_c, 0, 41, 0
4, 71040, Note_on_c, 0, 41, 62
4, 71040, Note_on_c, 0, 53, 62
4, 71520, Note_on_c, 0, 53, 0
4, 71520, Note_on_c, 0, 41, 0
4, 71520, Note_on_c, 0, 41, 62
4, 71520, Note_on_c, 0, 53, 62
4, 72000, Note_on_c, 0, 53, 0
4, 72000, Note_on_c, 0, 41, 0
4, 72000, Note_on_c, 0, 42, 62
4, 72000, Note_on_c, 0, 54, 62
4, 73440, Note_on_c, 0, 54, 0
4, 73440, Note_on_c, 0, 42, 0
4, 73440, Note_on_c, 0, 42, 62
4, 73440, Note_on_c, 0, 54, 62
4, 73920, Note_on_c, 0, 54, 0
4, 73920, Note_on_c, 0, 42, 0
4, 73920, Note_on_c, 0, 42, 75
4, 73920, Note_on_c, 0, 54, 75
4, 74400, Note_on_c, 0, 54, 0
4, 74400, Note_on_c, 0, 42, 0
4, 74400, Note_on_c, 0, 42, 75
4, 74400, Note_on_c, 0, 54, 75
4, 74880, Note_on_c, 0, 54, 0
4, 74880, Note_on_c, 0, 42, 0
4, 74880, Note_on_c, 0, 43, 75
4, 74880, Note_on_c, 0, 55, 75
4, 76320, Note_on_c, 0, 55, 0
4, 76320, Note_on_c, 0, 43, 0
4, 76320, Note_on_c, 0, 43, 75
4, 76320, Note_on_c, 0, 55, 75
4, 76800, Note_on_c, 0, 55, 0
4, 76800, Note_on_c, 0, 43, 0
4, 76800, Note_on_c, 0, 43, 88
4, 76800, Note_on_c, 0, 55, 88
4, 77280, Note_on_c, 0, 55, 0
4, 77280, Note_on_c, 0, 43, 0
4, 77280, Note_on_c, 0, 43, 88
4, 77280, Note_on_c, 0, 55, 88
4, 77760, Note_on_c, 0, 55, 0
4, 77760, Note_on_c, 0, 43, 0
4, 77760, Control_c, 0, 64, 127
4, 77760, Note_on_c, 0, 29, 75
4, 77760, Note_on_c, 0, 41, 75
4, 78000, Note_on_c, 0, 41, 0
4, 78000, Note_on_c, 0, 29, 0
4, 78000, Note_on_c, 0, 50, 75
4, 78000, Note_on_c, 0, 53, 75
4, 78240, Note_on_c, 0, 53, 0
4, 78240, Note_on_c, 0, 50, 0
4, 78240, Note_on_c, 0, 53, 75
4, 78240, Note_on_c, 0, 58, 75
4, 78480, Note_on_c, 0, 58, 0
4, 78480, Note_on_c, 0, 53, 0
4, 78480, Note_on_c, 0, 58, 75
4, 78480, Note_on_c, 0, 62, 75
4, 78720, Note_on_c, 0, 62, 0
4, 78720, Note_on_c, 0, 58, 0
4, 78720, Note_on_c, 0, 62, 75
4, 78720, Note_on_c, 0, 65, 75
4, 78960, Note_on_c, 0, 65, 0
4, 78960, Note_on_c, 0, 62, 0
4, 78960, Control_c, 0, 64, 0
4, 78960, Note_on_c, 0, 65, 75
4, 78960, Note_on_c, 0, 70, 75
4, 79200, Note_on_c, 0, 70, 0
4, 79200, Note_on_c, 0, 65, 0
4, 79200, Control_c, 0, 64, 127
4, 79200, Note_on_c, 0, 29, 75
4, 79200, Note_on_c, 0, 41, 75
4, 79440, Note_on_c, 0, 41, 0
4, 79440, Note_on_c, 0, 29, 0
4, 79440, Note_on_c, 0, 50, 75
4, 79440, Note_on_c, 0, 53, 75
4, 79680, Note_on_c, 0, 53, 0
4, 79680, Note_on_c, 0, 50, 0
4, 79680, Note_on_c, 0, 53, 75
4, 79680, Note_on_c, 0, 58, 75
4, 79920, Note_on_c, 0, 58, 0
4, 79920, Note_on_c, 0, 53, 0
4, 79920, Note_on_c, 0, 58, 75
4, 79920, Note_on_c, 0, 62, 75
4, 80160, Note_on_c, 0, 62, 0
4, 80160, Note_on_c, 0, 58, 0
4, 80160, Note_on_c, 0, 62, 75
4, 80160, Note_on_c, 0, 65, 75
4, 80400, Note_on_c, 0, 65, 0
4, 80400, Note_on_c, 0, 62, 0
4, 80400, Control_c, 0, 64, 0
4, 80400, Note_on_c, 0, 65, 75
4, 80400, Note_on_c, 0, 70, 75
4, 80640, Note_on_c, 0, 70, 0
4, 80640, Note_on_c, 0, 65, 0
4, 80640, Control_c, 0, 64, 127
4, 80640, Note_on_c, 0, 41, 75
4, 80640, Note_on_c, 0, 53, 75
4, 80880, Note_on_c, 0, 53, 0
4, 80880, Note_on_c, 0, 41, 0
4, 80880, Note_on_c, 0, 46, 75
4, 80880, Note_on_c, 0, 50, 75
4, 81120, Note_on_c, 0, 50, 0
4, 81120, Note_on_c, 0, 46, 0
4, 81120, Note_on_c, 0, 50, 75
4, 81120, Note_on_c, 0, 55, 75
4, 81360, Note_on_c, 0, 55, 0
4, 81360, Note_on_c, 0, 50, 0
4, 81360, Note_on_c, 0, 55, 75
4, 81360, Note_on_c, 0, 58, 75
4, 81600, Note_on_c, 0, 58, 0
4, 81600, Note_on_c, 0, 55, 0
4, 81600, Note_on_c, 0, 58, 75
4, 81600, Note_on_c, 0, 62, 75
4, 81840, Note_on_c, 0, 62, 0
4, 81840, Note_on_c, 0, 58, 0
4, 81840, Control_c, 0, 64, 0
4, 81840, Note_on_c, 0, 62, 75
4, 81840, Note_on_c, 0, 67, 75
4, 82080, Note_on_c, 0, 67, 0
4, 82080, Note_on_c, 0, 62, 0
4, 82080, Control_c, 0, 64, 127
4, 82080, Note_on_c, 0, 41, 75
4, 82080, Note_on_c, 0, 53, 75
4, 82320, Note_on_c, 0, 53, 0
4, 82320, Note_on_c, 0, 41, 0
4, 82320, Note_on_c, 0, 48, 75
4, 82320, Note_on_c, 0, 51, 75
4, 82560, Note_on_c, 0, 51, 0
4, 82560, Note_on_c, 0, 48, 0
4, 82560, Note_on_c, 0, 51, 75
4, 82560, Note_on_c, 0, 55, 75
4, 82800, Note_on_c, 0, 55, 0
4, 82800, Note_on_c, 0, 51, 0
4, 82800, Note_on_c, 0, 55, 75
4, 82800, Note_on_c, 0, 60, 75
4, 83040, Note_on_c, 0, 60, 0
4, 83040, Note_on_c, 0, 55, 0
4, 83040, Note_on_c, 0, 60, 75
4, 83040, Note_on_c, 0, 63, 75
4, 83280, Note_on_c, 0, 63, 0
4, 83280, Note_on_c, 0, 60, 0
4, 83280, Control_c, 0, 64, 0
4, 83280, Note_on_c, 0, 63, 75
4, 83280, Note_on_c, 0, 67, 75
4, 83520, Note_on_c, 0, 67, 0
4, 83520, Note_on_c, 0, 63, 0
4, 83520, Control_c, 0, 64, 127
4, 83520, Note_on_c, 0, 41, 75
4, 83520, Note_on_c, 0, 53, 75
4, 83760, Note_on_c, 0, 53, 0
4, 83760, Note_on_c, 0, 41, 0
4, 83760, Note_on_c, 0, 51, 75
4, 83760, Note_on_c, 0, 55, 75
4, 84000, Note_on_c, 0, 55, 0
4, 84000, Note_on_c, 0, 51, 0
4, 84000, Note_on_c, 0, 55, 75
4, 84000, Note_on_c, 0, 60, 75
4, 84240, Note_on_c, 0, 60, 0
4, 84240, Note_on_c, 0, 55, 0
4, 84240, Note_on_c, 0, 60, 75
4, 84240, Note_on_c, 0, 63, 75
4, 84480, Note_on_c, 0, 63, 0
4, 84480, Note_on_c, 0, 60, 0
4, 84480, Note_on_c, 0, 63, 75
4, 84480, Note_on_c, 0, 67, 75
4, 84720, Note_on_c, 0, 67, 0
4, 84720, Note_on_c, 0, 63, 0
4, 84720, Control_c, 0, 64, 0
4, 84720, Note_on_c, 0, 67, 75
4, 84720, Note_on_c, 0, 72, 75
4, 84960, Note_on_c, 0, 72, 0
4, 84960, Note_on_c, 0, 67, 0
4, 84960, Control_c, 0, 64, 127
4, 84960, Note_on_c, 0, 41, 75
4, 84960, Note_on_c, 0, 53, 75
4, 85200, Note_on_c, 0, 53, 0
4, 85200, Note_on_c, 0, 41, 0
4, 85200, Note_on_c, 0, 48, 75
4, 85200, Note_on_c, 0, 51, 75
4, 85440, Note_on_c, 0, 51, 0
4, 85440, Note_on_c, 0, 48, 0
4, 85440, Note_on_c, 0, 51, 75
4, 85440, Note_on_c, 0, 53, 75
4, 85680, Note_on_c, 0, 53, 0
4, 85680, Note_on_c, 0, 51, 0
4, 85680, Note_on_c, 0, 53, 75
4, 85680, Note_on_c, 0, 57, 75
4, 85920, Note_on_c, 0, 57, 0
4, 85920, Note_on_c, 0, 53, 0
4, 85920, Note_on_c, 0, 57, 75
4, 85920, Note_on_c, 0, 60, 75
4, 86160, Note_on_c, 0, 60, 0
4, 86160, Note_on_c, 0, 57, 0
4, 86160, Control_c, 0, 64, 0
4, 86160, Note_on_c, 0, 60, 75
4, 86160, Note_on_c, 0, 63, 75
4, 86400, Note_on_c, 0, 63, 0
4, 86400, Note_on_c, 0, 60, 0
4, 86400, Control_c, 0, 64, 127
4, 86400, Note_on_c, 0, 39, 75
4, 86640, Note_on_c, 0, 39, 0
4, 86640, Note_on_c, 0, 41, 75
4, 86640, Note_on_c, 0, 45, 75
4, 86880, Note_on_c, 0, 45, 0
4, 86880, Note_on_c, 0, 41, 0
4, 86880, Note_on_c, 0, 45, 75
4, 86880, Note_on_c, 0, 48, 75
4, 87120, Note_on_c, 0, 48, 0
4, 87120, Note_on_c, 0, 45, 0
4, 87120, Note_on_c, 0, 48, 75
4, 87120, Note_on_c, 0, 53, 75
4, 87360, Note_on_c, 0, 53, 0
4, 87360, Note_on_c, 0, 48, 0
4, 87360, Note_on_c, 0, 53, 75
4, 87360, Note_on_c, 0, 57, 75
4, 87600, Note_on_c, 0, 57, 0
4, 87600, Note_on_c, 0, 53, 0
4, 87600, Control_c, 0, 64, 0
4, 87600, Note_on_c, 0, 57, 75
4, 87600, Note_on_c, 0, 60, 75
4, 87840, Note_on_c, 0, 60, 0
4, 87840, Note_on_c, 0, 57, 0
4, 87840, Control_c, 0, 64, 127
4, 87840, Note_on_c, 0, 38, 75
4, 88080, Note_on_c, 0, 38, 0
4, 88080, Note_on_c, 0, 41, 75
4, 88080, Note_on_c, 0, 46, 75
4, 88320, Note_on_c, 0, 46, 0
4, 88320, Note_on_c, 0, 41, 0
4, 88320, Note_on_c, 0, 46, 75
4, 88320, Note_on_c, 0, 50, 75
4, 88560, Note_on_c, 0, 50, 0
4, 88560, Note_on_c, 0, 46, 0
4, 88560, Note_on_c, 0, 50, 75
4, 88560, Note_on_c, 0, 53, 75
4, 88800, Note_on_c, 0, 53, 0
4, 88800, Note_on_c, 0, 50, 0
4, 88800, Note_on_c, 0, 53, 75
4, 88800, Note_on_c, 0, 58, 75
4, 89040, Note_on_c, 0, 58, 0
4, 89040, Note_on_c, 0, 53, 0
4, 89040, Control_c, 0, 64, 0
4, 89040, Note_on_c, 0, 58, 75
4, 89040, Note_on_c, 0, 62, 75
4, 89280, Note_on_c, 0, 62, 0
4, 89280, Note_on_c, 0, 58, 0
4, 89280, Control_c, 0, 64, 127
4, 89280, Note_on_c, 0, 39, 62
4, 89280, Note_on_c, 0, 51, 62
4, 89520, Note_on_c, 0, 51, 0
4, 89520, Note_on_c, 0, 39, 0
4, 89520, Note_on_c, 0, 55, 62
4, 89760, Note_on_c, 0, 55, 0
4, 89760, Note_on_c, 0, 60, 62
4, 90000, Note_on_c, 0, 60, 0
4, 90000, Note_on_c, 0, 63, 62
4, 90240, Note_on_c, 0, 63, 0
4, 90240, Note_on_c, 0, 66, 62
4, 90480, Note_on_c, 0, 66, 0
4, 90480, Control_c, 0, 64, 0
4, 90480, Note_on_c, 0, 72, 62
4, 90720, Note_on_c, 0, 72, 0
4, 90720, Control_c, 0, 64, 127
4, 90720, Note_on_c, 0, 38, 62
4, 90720, Note_on_c, 0, 50, 62
4, 90960, Note_on_c, 0, 50, 0
4, 90960, Note_on_c, 0, 38, 0
4, 90960, Note_on_c, 0, 53, 62
4, 91200, Note_on_c, 0, 53, 0
4, 91200, Note_on_c, 0, 58, 62
4, 91440, Note_on_c, 0, 58, 0
4, 91440, Note_on_c, 0, 62, 62
4, 91680, Note_on_c, 0, 62, 0
4, 91680, Note_on_c, 0, 65, 62
4, 91920, Note_on_c, 0, 65, 0
4, 91920, Control_c, 0, 64, 0
4, 91920, Note_on_c, 0, 70, 62
4, 92160, Note_on_c, 0, 70, 0
4, 92160, Control_c, 0, 64, 127
4, 92160, Note_on_c, 0, 37, 62
4, 92160, Note_on_c, 0, 49, 62
4, 92400, Note_on_c, 0, 49, 0
4, 92400, Note_on_c, 0, 37, 0
4, 92400, Note_on_c, 0, 53, 62
4, 92640, Note_on_c, 0, 53, 0
4, 92640, Note_on_c, 0, 58, 62
4, 92880, Note_on_c, 0, 58, 0
4, 92880, Note_on_c, 0, 61, 62
4, 93120, Note_on_c, 0, 61, 0
4, 93120, Note_on_c, 0, 65, 62
4, 93360, Note_on_c, 0, 65, 0
4, 93360, Control_c, 0, 64, 0
4, 93360, Note_on_c, 0, 70, 62
4, 93600, Note_on_c, 0, 70, 0
4, 93600, Control_c, 0, 64, 127
4, 93600, Note_on_c, 0, 36, 62
4, 93600, Note_on_c, 0, 48, 62
4, 93840, Note_on_c, 0, 48, 0
4, 93840, Note_on_c, 0, 36, 0
4, 93840, Note_on_c, 0, 55, 62
4, 94080, Note_on_c, 0, 55, 0
4, 94080, Note_on_c, 0, 58, 62
4, 94320, Note_on_c, 0, 58, 0
4, 94320, Note_on_c, 0, 60, 62
4, 94560, Note_on_c, 0, 60, 0
4, 94560, Note_on_c, 0, 67, 62
4, 94800, Note_on_c, 0, 67, 0
4, 94800, Control_c, 0, 64, 0
4, 94800, Note_on_c, 0, 70, 62
4, 95040, Note_on_c, 0, 70, 0
4, 95040, Control_c, 0, 64, 127
4, 95040, Note_on_c, 0, 33, 62
4, 95040, Note_on_c, 0, 45, 62
4, 95280, Note_on_c, 0, 45, 0
4, 95280, Note_on_c, 0, 33, 0
4, 95280, Note_on_c, 0, 48, 62
4, 95520, Note_on_c, 0, 48, 0
4, 95520, Note_on_c, 0, 53, 62
4, 95760, Note_on_c, 0, 53, 0
4, 95760, Note_on_c, 0, 57, 62
4, 96000, Note_on_c, 0, 57, 0
4, 96000, Note_on_c, 0, 60, 62
4, 96240, Note_on_c, 0, 60, 0
4, 96240, Control_c, 0, 64, 0
4, 96240, Note_on_c, 0, 65, 62
4, 96480, Note_on_c, 0, 65, 0
4, 96480, Control_c, 0, 64, 127
4, 96480, Note_on_c, 0, 42, 62
4, 96720, Note_on_c, 0, 42, 0
4, 96720, Note_on_c, 0, 57, 62
4, 96960, Note_on_c, 0, 57, 0
4, 96960, Note_on_c, 0, 60, 62
4, 97200, Note_on_c, 0, 60, 0
4, 97200, Note_on_c, 0, 63, 62
4, 97440, Note_on_c, 0, 63, 0
4, 97440, Note_on_c, 0, 43, 62
4, 97680, Note_on_c, 0, 43, 0
4, 97680, Control_c, 0, 64, 0
4, 97680, Note_on_c, 0, 58, 62
4, 97680, Note_on_c, 0, 62, 62
4, 97920, Note_on_c, 0, 62, 0
4, 97920, Note_on_c, 0, 58, 0
4, 97920, Control_c, 0, 64, 127
4, 97920, Note_on_c, 0, 39, 62
4, 98160, Note_on_c, 0, 39, 0
4, 98160, Note_on_c, 0, 51, 62
4, 98400, Note_on_c, 0, 51, 0
4, 98400, Note_on_c, 0, 55, 62
4, 98640, Note_on_c, 0, 55, 0
4, 98640, Note_on_c, 0, 60, 62
4, 98880, Note_on_c, 0, 60, 0
4, 98880, Note_on_c, 0, 63, 62
4, 99120, Note_on_c, 0, 63, 0
4, 99120, Control_c, 0, 64, 0
4, 99120, Note_on_c, 0, 67, 62
4, 99360, Note_on_c, 0, 67, 0
4, 99360, Control_c, 0, 64, 127
4, 99360, Note_on_c, 0, 41, 62
4, 99600, Note_on_c, 0, 41, 0
4, 99600, Note_on_c, 0, 53, 62
4, 99840, Note_on_c, 0, 53, 0
4, 99840, Note_on_c, 0, 60, 62
4, 100080, Note_on_c, 0, 60, 0
4, 100080, Note_on_c, 0, 63, 62
4, 100320, Note_on_c, 0, 63, 0
4, 100320, Note_on_c, 0, 65, 62
4, 100560, Note_on_c, 0, 65, 0
4, 100560, Control_c, 0, 64, 0
4, 100560, Note_on_c, 0, 69, 62
4, 100800, Note_on_c, 0, 69, 0
4, 100800, Note_on_c, 0, 38, 62
4, 100800, Note_on_c, 0, 50, 62
4, 102240, Note_on_c, 0, 50, 0
4, 102240, Note_on_c, 0, 38, 0
4, 102240, Note_on_c, 0, 39, 62
4, 102240, Note_on_c, 0, 51, 62
4, 103680, Note_on_c, 0, 51, 0
4, 103680, Note_on_c, 0, 39, 0
4, 103680, Note_on_c, 0, 41, 62
4, 103680, Note_on_c, 0, 53, 62
4, 104160, Note_on_c, 0, 53, 0
4, 104160, Note_on_c, 0, 41, 0
4, 104160, Note_on_c, 0, 41, 62
4, 104160, Note_on_c, 0, 53, 62
4, 104640, Note_on_c, 0, 53, 0
4, 104640, Note_on_c, 0, 41, 0
4, 104640, Note_on_c, 0, 41, 62
4, 104640, Note_on_c, 0, 53, 62
4, 105120, Note_on_c, 0, 53, 0
4, 105120, Note_on_c, 0, 41, 0
4, 105120, Note_on_c, 0, 43, 62
4, 105120, Note_on_c, 0, 55, 62
4, 106560, Note_on_c, 0, 55, 0
4, 106560, Note_on_c, 0, 43, 0
4, 106560, Note_on_c, 0, 45, 88
4, 106560, Note_on_c, 0, 57, 88
4, 107040, Note_on_c, 0, 57, 0
4, 107040, Note_on_c, 0, 45, 0
4, 107040, Note_on_c, 0, 45, 88
4, 107040, Note_on_c, 0, 57, 88
4, 107520, Note_on_c, 0, 57, 0
4, 107520, Note_on_c, 0, 45, 0
4, 107520, Note_on_c, 0, 45, 88
4, 107520, Note_on_c, 0, 57, 88
4, 108000, Note_on_c, 0, 57, 0
4, 108000, Note_on_c, 0, 45, 0
4, 108000, Note_on_c, 0, 45, 88
4, 108000, Note_on_c, 0, 57, 88
4, 108960, Note_on_c, 0, 57, 0
4, 108960, Note_on_c, 0, 45, 0
4, 108960, Note_on_c, 0, 46, 88
4, 108960, Note_on_c, 0, 58, 88
4, 109440, Note_on_c, 0, 58, 0
4, 109440, Note_on_c, 0, 46, 0
4, 109440, Control_c, 0, 64, 127
4, 109440, Note_on_c, 0, 48, 88
4, 109440, Note_on_c, 0, 60, 88
4, 109920, Note_on_c, 0, 60, 0
4, 109920, Note_on_c, 0, 48, 0
4, 109920, Note_on_c, 0, 50, 88
4, 109920, Note_on_c, 0, 62, 88
4, 110400, Note_on_c, 0, 62, 0
4, 110400, Note_on_c, 0, 50, 0
4, 110400, Note_on_c, 0, 51, 88
4, 110400, Note_on_c, 0, 63, 88
4, 110640, Note_on_c, 0, 63, 0
4, 110640, Note_on_c, 0, 51, 0
4, 110640, Control_c, 0, 64, 0
4, 110640, Note_on_c, 0, 48, 88
4, 110640, Note_on_c, 0, 60, 88
4, 110880, Note_on_c, 0, 60, 0
4, 110880, Note_on_c, 0, 48, 0
4, 110880, Control_c, 0, 64, 127
4, 110880, Note_on_c, 0, 53, 88
4, 110880, Note_on_c, 0, 65, 88
4, 111120, Note_on_c, 0, 65, 0
4, 111120, Note_on_c, 0, 53, 0
4, 111120, Note_on_c, 0, 50, 88
4, 111120, Note_on_c, 0, 62, 88
4, 111360, Note_on_c, 0, 62, 0
4, 111360, Note_on_c, 0, 50, 0
4, 111360, Note_on_c, 0, 46, 88
4, 111360, Note_on_c, 0, 58, 88
4, 111600, Note_on_c, 0, 58, 0
4, 111600, Note_on_c, 0, 46, 0
4, 111600, Note_on_c, 0, 41, 88
4, 111600, Note_on_c, 0, 53, 88
4, 111840, Note_on_c, 0, 53, 0
4, 111840, Note_on_c, 0, 41, 0
4, 111840, Note_on_c, 0, 38, 88
4, 111840, Note_on_c, 0, 50, 88
4, 112080, Note_on_c, 0, 50, 0
4, 112080, Note_on_c, 0, 38, 0
4, 112080, Note_on_c, 0, 34, 88
4, 112080, Note_on_c, 0, 46, 88
4, 112320, Note_on_c, 0, 46, 0
4, 112320, Note_on_c, 0, 34, 0
4, 112320, Control_c, 0, 64, 0
4, 112320, Note_on_c, 0, 29, 88
4, 112320, Note_on_c, 0, 41, 88
4, 113280, Note_on_c, 0, 41, 0
4, 113280, Note_on_c, 0, 29, 0
4, 113280, Note_on_c, 0, 39, 88
4, 113280, Note_on_c, 0, 51, 88
4, 113760, Note_on_c, 0, 51, 0
4, 113760, Note_on_c, 0, 39, 0
4, 113760, Control_c, 0, 64, 127
4, 113760, Note_on_c, 0, 38, 62
4, 114000, Note_on_c, 0, 38, 0
4, 114000, Note_on_c, 0, 50, 62
4, 114240, Note_on_c, 0, 50, 0
4, 114240, Note_on_c, 0, 53, 62
4, 114480, Note_on_c, 0, 53, 0
4, 114480, Note_on_c, 0, 56, 62
4, 114720, Note_on_c, 0, 56, 0
4, 114720, Note_on_c, 0, 62, 62
4, 114960, Note_on_c, 0, 62, 0
4, 114960, Control_c, 0, 64, 0
4, 114960, Note_on_c, 0, 65, 62
4, 115200, Note_on_c, 0, 65, 0
4, 115200, Control_c, 0, 64, 127
4, 115200, Note_on_c, 0, 31, 62
4, 115200, Note_on_c, 0, 43, 62
4, 115440, Note_on_c, 0, 43, 0
4, 115440, Note_on_c, 0, 31, 0
4, 115440, Note_on_c, 0, 47, 62
4, 115680, Note_on_c, 0, 47, 0
4, 115680, Note_on_c, 0, 50, 62
4, 115920, Note_on_c, 0, 50, 0
4, 115920, Note_on_c, 0, 55, 62
4, 116160, Note_on_c, 0, 55, 0
4, 116160, Note_on_c, 0, 59, 62
4, 116400, Note_on_c, 0, 59, 0
4, 116400, Control_c, 0, 64, 0
4, 116400, Note_on_c, 0, 62, 62
4, 116640, Note_on_c, 0, 62, 0
4, 116640, Control_c, 0, 64, 127
4, 116640, Note_on_c, 0, 36, 62
4, 116880, Note_on_c, 0, 36, 0
4, 116880, Note_on_c, 0, 48, 62
4, 117120, Note_on_c, 0, 48, 0
4, 117120, Note_on_c, 0, 52, 62
4, 117360, Note_on_c, 0, 52, 0
4, 117360, Note_on_c, 0, 55, 62
4, 117600, Note_on_c, 0, 55, 0
4, 117600, Note_on_c, 0, 60, 62
4, 117840, Note_on_c, 0, 60, 0
4, 117840, Control_c, 0, 64, 0
4, 117840, Note_on_c, 0, 64, 62
4, 118080, Note_on_c, 0, 64, 0
4, 118080, Control_c, 0, 64, 127
4, 118080, Note_on_c, 0, 29, 62
4, 118320, Note_on_c, 0, 29, 0
4, 118320, Note_on_c, 0, 41, 62
4, 118560, Note_on_c, 0, 41, 0
4, 118560, Note_on_c, 0, 48, 62
4, 118800, Note_on_c, 0, 48, 0
4, 118800, Note_on_c, 0, 51, 62
4, 119040, Note_on_c, 0, 51, 0
4, 119040, Note_on_c, 0, 53, 62
4, 119280, Note_on_c, 0, 53, 0
4, 119280, Control_c, 0, 64, 0
4, 119280, Note_on_c, 0, 60, 62
4, 119520, Note_on_c, 0, 60, 0
4, 119520, Control_c, 0, 64, 127
4, 119520, Note_on_c, 0, 38, 75
4, 119760, Note_on_c, 0, 38, 0
4, 119760, Note_on_c, 0, 50, 75
4, 119760, Note_on_c, 0, 53, 75
4, 120000, Note_on_c, 0, 53, 0
4, 120000, Note_on_c, 0, 50, 0
4, 120000, Note_on_c, 0, 53, 75
4, 120000, Note_on_c, 0, 56, 75
4, 120240, Note_on_c, 0, 56, 0
4, 120240, Note_on_c, 0, 53, 0
4, 120240, Note_on_c, 0, 56, 75
4, 120240, Note_on_c, 0, 62, 75
4, 120480, Note_on_c, 0, 62, 0
4, 120480, Note_on_c, 0, 56, 0
4, 120480, Note_on_c, 0, 62, 75
4, 120480, Note_on_c, 0, 65, 75
4, 120720, Note_on_c, 0, 65, 0
4, 120720, Note_on_c, 0, 62, 0
4, 120720, Control_c, 0, 64, 0
4, 120720, Note_on_c, 0, 65, 75
4, 120720, Note_on_c, 0, 68, 75
4, 120960, Note_on_c, 0, 68, 0
4, 120960, Note_on_c, 0, 65, 0
4, 120960, Control_c, 0, 64, 127
4, 120960, Note_on_c, 0, 31, 75
4, 120960, Note_on_c, 0, 43, 75
4, 121200, Note_on_c, 0, 43, 0
4, 121200, Note_on_c, 0, 31, 0
4, 121200, Note_on_c, 0, 47, 75
4, 121200, Note_on_c, 0, 50, 75
4, 121440, Note_on_c, 0, 50, 0
4, 121440, Note_on_c, 0, 47, 0
4, 121440, Note_on_c, 0, 50, 75
4, 121440, Note_on_c, 0, 55, 75
4, 121680, Note_on_c, 0, 55, 0
4, 121680, Note_on_c, 0, 50, 0
4, 121680, Note_on_c, 0, 55, 75
4, 121680, Note_on_c, 0, 59, 75
4, 121920, Note_on_c, 0, 59, 0
4, 121920, Note_on_c, 0, 55, 0
4, 121920, Note_on_c, 0, 59, 75
4, 121920, Note_on_c, 0, 62, 75
4, 122160, Note_on_c, 0, 62, 0
4, 122160, Note_on_c, 0, 59, 0
4, 122160, Control_c, 0, 64, 0
4, 122160, Note_on_c, 0, 62, 75
4, 122160, Note_on_c, 0, 65, 75
4, 122400, Note_on_c, 0, 65, 0
4, 122400, Note_on_c, 0, 62, 0
4, 122400, Control_c, 0, 64, 127
4, 122400, Note_on_c, 0, 36, 75
4, 122400, Note_on_c, 0, 48, 75
4, 122640, Note_on_c, 0, 48, 0
4, 122640, Note_on_c, 0, 36, 0
4, 122640, Note_on_c, 0, 48, 75
4, 122640, Note_on_c, 0, 52, 75
4, 122880, Note_on_c, 0, 52, 0
4, 122880, Note_on_c, 0, 48, 0
4, 122880, Note_on_c, 0, 52, 75
4, 122880, Note_on_c, 0, 55, 75
4, 123120, Note_on_c, 0, 55, 0
4, 123120, Note_on_c, 0, 52, 0
4, 123120, Note_on_c, 0, 55, 75
4, 123120, Note_on_c, 0, 60, 75
4, 123360, Note_on_c, 0, 60, 0
4, 123360, Note_on_c, 0, 55, 0
4, 123360, Note_on_c, 0, 60, 75
4, 123360, Note_on_c, 0, 64, 75
4, 123600, Note_on_c, 0, 64, 0
4, 123600, Note_on_c, 0, 60, 0
4, 123600, Control_c, 0, 64, 0
4, 123600, Note_on_c, 0, 64, 75
4, 123600, Note_on_c, 0, 67, 75
4, 123840, Note_on_c, 0, 67, 0
4, 123840, Note_on_c, 0, 64, 0
4, 123840, Control_c, 0, 64, 127
4, 123840, Note_on_c, 0, 41, 75
4, 123840, Note_on_c, 0, 53, 75
4, 124080, Note_on_c, 0, 53, 0
4, 124080, Note_on_c, 0, 41, 0
4, 124080, Note_on_c, 0, 48, 75
4, 124080, Note_on_c, 0, 51, 75
4, 124320, Note_on_c, 0, 51, 0
4, 124320, Note_on_c, 0, 48, 0
4, 124320, Note_on_c, 0, 51, 75
4, 124320, Note_on_c, 0, 53, 75
4, 124560, Note_on_c, 0, 53, 0
4, 124560, Note_on_c, 0, 51, 0
4, 124560, Note_on_c, 0, 53, 75
4, 124560, Note_on_c, 0, 60, 75
4, 124800, Note_on_c, 0, 60, 0
4, 124800, Note_on_c, 0, 53, 0
4, 124800, Note_on_c, 0, 60, 75
4, 124800, Note_on_c, 0, 63, 75
4, 125040, Note_on_c, 0, 63, 0
4, 125040, Note_on_c, 0, 60, 0
4, 125040, Control_c, 0, 64, 0
4, 125040, Note_on_c, 0, 63, 75
4, 125040, Note_on_c, 0, 65, 75
4, 125280, Note_on_c, 0, 65, 0
4, 125280, Note_on_c, 0, 63, 0
4, 125280, Control_c, 0, 64, 127
4, 125280, Note_on_c, 0, 34, 75
4, 125280, Note_on_c, 0, 46, 75
4, 125520, Note_on_c, 0, 46, 0
4, 125520, Note_on_c, 0, 34, 0
4, 125520, Note_on_c, 0, 41, 75
4, 125520, Note_on_c, 0, 46, 75
4, 125760, Note_on_c, 0, 46, 0
4, 125760, Note_on_c, 0, 41, 0
4, 125760, Note_on_c, 0, 46, 75
4, 125760, Note_on_c, 0, 50, 75
4, 126000, Note_on_c, 0, 50, 0
4, 126000, Note_on_c, 0, 46, 0
4, 126000, Note_on_c, 0, 50, 75
4, 126000, Note_on_c, 0, 53, 75
4, 126240, Note_on_c, 0, 53, 0
4, 126240, Note_on_c, 0, 50, 0
4, 126240, Note_on_c, 0, 53, 75
4, 126240, Note_on_c, 0, 58, 75
4, 126480, Note_on_c, 0, 58, 0
4, 126480, Note_on_c, 0, 53, 0
4, 126480, Control_c, 0, 64, 0
4, 126480, Note_on_c, 0, 58, 75
4, 126480, Note_on_c, 0, 62, 75
4, 126720, Note_on_c, 0, 62, 0
4, 126720, Note_on_c, 0, 58, 0
4, 126720, Control_c, 0, 64, 127
4, 126720, Note_on_c, 0, 62, 75
4, 126720, Note_on_c, 0, 65, 75
4, 126960, Note_on_c, 0, 65, 0
4, 126960, Note_on_c, 0, 62, 0
4, 126960, Note_on_c, 0, 58, 75
4, 126960, Note_on_c, 0, 62, 75
4, 127200, Note_on_c, 0, 62, 0
4, 127200, Note_on_c, 0, 58, 0
4, 127200, Note_on_c, 0, 53, 75
4, 127200, Note_on_c, 0, 58, 75
4, 127440, Note_on_c, 0, 58, 0
4, 127440, Note_on_c, 0, 53, 0
4, 127440, Note_on_c, 0, 50, 75
4, 127440, Note_on_c, 0, 53, 75
4, 127680, Note_on_c, 0, 53, 0
4, 127680, Note_on_c, 0, 50, 0
4, 127680, Note_on_c, 0, 46, 75
4, 127680, Note_on_c, 0, 50, 75
4, 127920, Note_on_c, 0, 50, 0
4, 127920, Note_on_c, 0, 46, 0
4, 127920, Note_on_c, 0, 41, 75
4, 127920, Note_on_c, 0, 46, 75
4, 128160, Note_on_c, 0, 46, 0
4, 128160, Note_on_c, 0, 41, 0
4, 128160, Note_on_c, 0, 34, 75
4, 128160, Note_on_c, 0, 46, 75
4, 128400, Note_on_c, 0, 46, 0
4, 128400, Note_on_c, 0, 34, 0
4, 128400, Note_on_c, 0, 46, 75
4, 128400, Note_on_c, 0, 50, 75
4, 128640, Note_on_c, 0, 50, 0
4, 128640, Note_on_c, 0, 46, 0
4, 128640, Note_on_c, 0, 50, 75
4, 128640, Note_on_c, 0, 53, 75
4, 128880, Note_on_c, 0, 53, 0
4, 128880, Note_on_c, 0, 50, 0
4, 128880, Note_on_c, 0, 53, 75
4, 128880, Note_on_c, 0, 58, 75
4, 129120, Note_on_c, 0, 58, 0
4, 129120, Note_on_c, 0, 53, 0
4, 129120, Note_on_c, 0, 58, 75
4, 129120, Note_on_c, 0, 62, 75
4, 129360, Note_on_c, 0, 62, 0
4, 129360, Note_on_c, 0, 58, 0
4, 129360, Note_on_c, 0, 62, 75
4, 129360, Note_on_c, 0, 65, 75
4, 129600, Note_on_c, 0, 65, 0
4, 129600, Note_on_c, 0, 62, 0
4, 129600, Note_on_c, 0, 65, 75
4, 129600, Note_on_c, 0, 70, 75
4, 129840, Note_on_c, 0, 70, 0
4, 129840, Note_on_c, 0, 65, 0
4, 129840, Note_on_c, 0, 62, 75
4, 129840, Note_on_c, 0, 65, 75
4, 130080, Note_on_c, 0, 65, 0
4, 130080, Note_on_c, 0, 62, 0
4, 130080, Note_on_c, 0, 58, 75
4, 130080, Note_on_c, 0, 62, 75
4, 130320, Note_on_c, 0, 62, 0
4, 130320, Note_on_c, 0, 58, 0
4, 130320, Note_on_c, 0, 53, 75
4, 130320, Note_on_c, 0, 58, 75
4, 130560, Note_on_c, 0, 58, 0
4, 130560, Note_on_c, 0, 53, 0
4, 130560, Note_on_c, 0, 50, 75
4, 130560, Note_on_c, 0, 53, 75
4, 130800, Note_on_c, 0, 53, 0
4, 130800, Note_on_c, 0, 50, 0
4, 130800, Note_on_c, 0, 46, 75
4, 130800, Note_on_c, 0, 50, 75
4, 131040, Note_on_c, 0, 50, 0
4, 131040, Note_on_c, 0, 46, 0
4, 131040, Control_c, 0, 64, 0
4, 131040, Note_on_c, 0, 46, 88
4, 131040, Note_on_c, 0, 58, 88
4, 131520, Note_on_c, 0, 58, 0
4, 131520, Note_on_c, 0, 46, 0
4, 131520, Note_on_c, 0, 50, 88
4, 131520, Note_on_c, 0, 53, 88
4, 132000, Note_on_c, 0, 53, 0
4, 132000, Note_on_c, 0, 50, 0
4, 132000, Note_on_c, 0, 46, 88
4, 132000, Note_on_c, 0, 50, 88
4, 132480, Note_on_c, 0, 50, 0
4, 132480, Note_on_c, 0, 46, 0
4, 132480, Note_on_c, 0, 46, 88
4, 132480, Note_on_c, 0, 50, 88
4, 133920, Note_on_c, 0, 50, 0
4, 133920, Note_on_c, 0, 46, 0
4, 136800, Note_on_c, 0, 34, 49
4, 136800, Note_on_c, 0, 46, 49
4, 137280, Note_on_c, 0, 46, 0
4, 137280, Note_on_c, 0, 34, 0
4, 137280, End_track
0, 0, End_of_file
