0, 0, Header, 1, 2, 240
1, 0, Start_track
1, 0, Title_t, "MENDELSSOHN, ""VENETIANISCHES GONDELLIED"", Op-62-5, No-3"
1, 0, Text_t, "CVS Ver5.05 Created\012"
1, 0, Text_t, "Op.62-5\012"
1, 0, Text_t, "MENDELSSOHN\012"
1, 0, Text_t, """VENETIANISCHES GONDELLIED""\012"
1, 0, Text_t, "No.3    ( 2' 40"")\012"
1, 0, Text_t, "BY KATSUHIRO OGURI\012"
1, 0, System_exclusive, 10, 65, 16, 66, 18, 64, 0, 127, 0, 65, 247
1, 1, System_exclusive, 10, 65, 16, 66, 18, 64, 0, 4, 100, 88, 247
1, 2, System_exclusive, 10, 65, 16, 66, 18, 64, 1, 48, 3, 12, 247
1, 2, System_exclusive, 10, 65, 16, 66, 18, 64, 1, 51, 60, 80, 247
1, 2, System_exclusive, 10, 65, 16, 66, 18, 64, 1, 52, 60, 79, 247
1, 2, Time_signature, 4, 2, 24, 8
1, 2, Key_signature, 0, "major"
1, 2, Tempo, 500000
1, 2, End_track
2, 0, Start_track
2, 0, Title_t, "Grand Piano"
2, 96, Text_t, "<Master Reverve>"
2, 241, Program_c, 0, 0
2, 241, Control_c, 0, 7, 115
2, 241, Control_c, 0, 10, 64
2, 241, Control_c, 0, 91, 90
2, 486, Control_c, 0, 11, 127
2, 678, Control_c, 0, 1, 0
2, 678, Text_t, "<part reverve>"
2, 727, Control_c, 0, 99, 1
2, 728, Control_c, 0, 98, 32
2, 729, Control_c, 0, 6, 62
2, 730, Control_c, 0, 38, 0
2, 733, Control_c, 0, 99, 1
2, 734, Control_c, 0, 98, 33
2, 735, Control_c, 0, 6, 54
2, 736, Control_c, 0, 38, 0
2, 739, Control_c, 0, 99, 1
2, 740, Control_c, 0, 98, 99
2, 741, Control_c, 0, 6, 62
2, 742, Control_c, 0, 38, 0
2, 745, Control_c, 0, 99, 1
2, 746, Control_c, 0, 98, 100
2, 747, Control_c, 0, 6, 60
2, 748, Control_c, 0, 38, 0
2, 751, Control_c, 0, 99, 1
2, 752, Control_c, 0, 98, 102
2, 753, Control_c, 0, 6, 70
2, 754, Control_c, 0, 38, 0
2, 2073, Control_c, 0, 67, 127
2, 2526, Control_c, 0, 64, 63
2, 2540, Control_c, 0, 64, 127
2, 2769, Note_on_c, 0, 52, 19
2, 3071, Note_on_c, 0, 57, 31
2, 3076, Note_on_c, 0, 60, 29
2, 3350, Note_on_c, 0, 45, 25
2, 3444, Note_on_c, 0, 52, 0
2, 3562, Note_on_c, 0, 52, 37
2, 3625, Note_on_c, 0, 57, 0
2, 3676, Note_on_c, 0, 60, 0
2, 3755, Note_on_c, 0, 60, 45
2, 3771, Note_on_c, 0, 57, 25
2, 3800, Note_on_c, 0, 45, 0
2, 3964, Note_on_c, 0, 45, 28
2, 4041, Note_on_c, 0, 52, 0
2, 4129, Note_on_c, 0, 60, 0
2, 4192, Note_on_c, 0, 57, 0
2, 4199, Note_on_c, 0, 52, 45
2, 4233, Note_on_c, 0, 45, 0
2, 4287, Note_on_c, 0, 52, 0
2, 4466, Note_on_c, 0, 57, 12
2, 4473, Note_on_c, 0, 60, 30
2, 4474, Note_on_c, 0, 69, 106
2, 4577, Note_on_c, 0, 57, 0
2, 4589, Note_on_c, 0, 60, 0
2, 4771, Note_on_c, 0, 45, 28
2, 4990, Note_on_c, 0, 52, 33
2, 5040, Note_on_c, 0, 45, 0
2, 5088, Note_on_c, 0, 52, 0
2, 5226, Note_on_c, 0, 57, 29
2, 5226, Note_on_c, 0, 60, 50
2, 5233, Note_on_c, 0, 64, 100
2, 5266, Note_on_c, 0, 69, 0
2, 5308, Note_on_c, 0, 57, 0
2, 5329, Note_on_c, 0, 60, 0
2, 5518, Note_on_c, 0, 45, 18
2, 5717, Note_on_c, 0, 52, 35
2, 5751, Note_on_c, 0, 45, 0
2, 5780, Note_on_c, 0, 52, 0
2, 5926, Note_on_c, 0, 57, 23
2, 5930, Note_on_c, 0, 60, 57
2, 5976, Note_on_c, 0, 57, 0
2, 5982, Note_on_c, 0, 60, 0
2, 6117, Note_on_c, 0, 45, 47
2, 6304, Note_on_c, 0, 64, 0
2, 6310, Note_on_c, 0, 45, 0
2, 6321, Note_on_c, 0, 52, 32
2, 6527, Note_on_c, 0, 52, 0
2, 6565, Note_on_c, 0, 60, 44
2, 6572, Note_on_c, 0, 57, 111
2, 6622, Note_on_c, 0, 60, 0
2, 6788, Note_on_c, 0, 45, 55
2, 6981, Note_on_c, 0, 45, 0
2, 6986, Note_on_c, 0, 52, 33
2, 7007, Note_on_c, 0, 57, 0
2, 7034, Note_on_c, 0, 52, 0
2, 7212, Note_on_c, 0, 57, 26
2, 7226, Note_on_c, 0, 60, 34
2, 7232, Note_on_c, 0, 52, 97
2, 7277, Note_on_c, 0, 57, 0
2, 7310, Note_on_c, 0, 60, 0
2, 7417, Note_on_c, 0, 52, 0
2, 7583, Note_on_c, 0, 45, 6
2, 7743, Note_on_c, 0, 52, 32
2, 7778, Note_on_c, 0, 45, 0
2, 7813, Note_on_c, 0, 52, 0
2, 8023, Note_on_c, 0, 60, 26
2, 8025, Note_on_c, 0, 57, 25
2, 8052, Note_on_c, 0, 76, 51
2, 8071, Note_on_c, 0, 72, 50
2, 8095, Note_on_c, 0, 57, 0
2, 8102, Note_on_c, 0, 60, 0
2, 8345, Note_on_c, 0, 40, 38
2, 8389, Note_on_c, 0, 72, 0
2, 8475, Note_on_c, 0, 76, 0
2, 8573, Note_on_c, 0, 40, 0
2, 8596, Note_on_c, 0, 72, 78
2, 8600, Note_on_c, 0, 52, 48
2, 8605, Note_on_c, 0, 69, 52
2, 8651, Note_on_c, 0, 52, 0
2, 8717, Note_on_c, 0, 69, 0
2, 8836, Note_on_c, 0, 69, 77
2, 8849, Note_on_c, 0, 60, 38
2, 8850, Note_on_c, 0, 72, 0
2, 8854, Note_on_c, 0, 64, 54
2, 8857, Note_on_c, 0, 57, 30
2, 8877, Control_c, 0, 64, 63
2, 8887, Control_c, 0, 64, 0
2, 8911, Control_c, 0, 64, 63
2, 8925, Control_c, 0, 64, 127
2, 8955, Note_on_c, 0, 60, 0
2, 8960, Note_on_c, 0, 57, 0
2, 9142, Note_on_c, 0, 33, 30
2, 9174, Note_on_c, 0, 33, 0
2, 9356, Note_on_c, 0, 69, 0
2, 9398, Note_on_c, 0, 64, 0
2, 9434, Note_on_c, 0, 68, 54
2, 9434, Note_on_c, 0, 71, 71
2, 9439, Note_on_c, 0, 52, 29
2, 9482, Note_on_c, 0, 68, 0
2, 9497, Note_on_c, 0, 71, 0
2, 9509, Note_on_c, 0, 52, 0
2, 9668, Note_on_c, 0, 72, 83
2, 9674, Note_on_c, 0, 69, 57
2, 9675, Note_on_c, 0, 60, 51
2, 9678, Note_on_c, 0, 57, 36
2, 9721, Note_on_c, 0, 57, 0
2, 9727, Note_on_c, 0, 60, 0
2, 9861, Note_on_c, 0, 72, 0
2, 9865, Note_on_c, 0, 69, 0
2, 9877, Note_on_c, 0, 74, 88
2, 9885, Note_on_c, 0, 45, 50
2, 9885, Note_on_c, 0, 71, 63
2, 10018, Note_on_c, 0, 71, 0
2, 10039, Note_on_c, 0, 45, 0
2, 10042, Note_on_c, 0, 74, 0
2, 10059, Note_on_c, 0, 52, 68
2, 10063, Note_on_c, 0, 76, 99
2, 10066, Note_on_c, 0, 72, 84
2, 10087, Note_on_c, 0, 72, 0
2, 10109, Note_on_c, 0, 52, 0
2, 10114, Note_on_c, 0, 76, 0
2, 10263, Note_on_c, 0, 57, 36
2, 10275, Note_on_c, 0, 62, 46
2, 10277, Note_on_c, 0, 79, 88
2, 10288, Note_on_c, 0, 74, 63
2, 10327, Control_c, 0, 64, 63
2, 10333, Control_c, 0, 64, 0
2, 10354, Control_c, 0, 64, 63
2, 10366, Control_c, 0, 64, 127
2, 10418, Note_on_c, 0, 57, 0
2, 10435, Note_on_c, 0, 62, 0
2, 10528, Note_on_c, 0, 45, 65
2, 10614, Note_on_c, 0, 74, 0
2, 10721, Note_on_c, 0, 45, 0
2, 10729, Note_on_c, 0, 77, 104
2, 10733, Note_on_c, 0, 74, 94
2, 10734, Note_on_c, 0, 53, 50
2, 10746, Note_on_c, 0, 79, 0
2, 10765, Note_on_c, 0, 53, 0
2, 10910, Note_on_c, 0, 62, 84
2, 10913, Note_on_c, 0, 57, 64
2, 10949, Note_on_c, 0, 74, 0
2, 10953, Note_on_c, 0, 57, 0
2, 10960, Note_on_c, 0, 62, 0
2, 11096, Note_on_c, 0, 76, 96
2, 11100, Note_on_c, 0, 45, 61
2, 11102, Note_on_c, 0, 72, 91
2, 11103, Note_on_c, 0, 77, 0
2, 11148, Control_c, 0, 64, 63
2, 11214, Control_c, 0, 64, 127
2, 11278, Note_on_c, 0, 72, 0
2, 11290, Note_on_c, 0, 74, 98
2, 11296, Note_on_c, 0, 71, 85
2, 11301, Note_on_c, 0, 53, 63
2, 11308, Note_on_c, 0, 45, 0
2, 11329, Note_on_c, 0, 76, 0
2, 11348, Note_on_c, 0, 53, 0
2, 11351, Note_on_c, 0, 74, 0
2, 11484, Note_on_c, 0, 57, 47
2, 11488, Note_on_c, 0, 60, 60
2, 11499, Note_on_c, 0, 72, 80
2, 11500, Note_on_c, 0, 76, 80
2, 11502, Control_c, 0, 64, 63
2, 11512, Control_c, 0, 64, 0
2, 11520, Note_on_c, 0, 71, 0
2, 11551, Control_c, 0, 64, 63
2, 11562, Control_c, 0, 64, 127
2, 11596, Note_on_c, 0, 57, 0
2, 11632, Note_on_c, 0, 60, 0
2, 11727, Note_on_c, 0, 72, 0
2, 11727, Note_on_c, 0, 45, 58
2, 11770, Note_on_c, 0, 76, 0
2, 11918, Note_on_c, 0, 72, 88
2, 11922, Note_on_c, 0, 69, 72
2, 11922, Note_on_c, 0, 52, 63
2, 11929, Note_on_c, 0, 45, 0
2, 11950, Note_on_c, 0, 69, 0
2, 11957, Note_on_c, 0, 72, 0
2, 11964, Note_on_c, 0, 52, 0
2, 12081, Note_on_c, 0, 63, 82
2, 12121, Note_on_c, 0, 66, 78
2, 12145, Note_on_c, 0, 68, 76
2, 12151, Note_on_c, 0, 57, 17
2, 12155, Note_on_c, 0, 60, 33
2, 12156, Note_on_c, 0, 63, 0
2, 12178, Note_on_c, 0, 71, 65
2, 12199, Note_on_c, 0, 68, 0
2, 12208, Note_on_c, 0, 57, 0
2, 12210, Note_on_c, 0, 60, 0
2, 12227, Note_on_c, 0, 69, 86
2, 12231, Note_on_c, 0, 71, 0
2, 12297, Note_on_c, 0, 63, 5
2, 12404, Note_on_c, 0, 63, 0
2, 12441, Note_on_c, 0, 66, 0
2, 12444, Note_on_c, 0, 45, 59
2, 12445, Note_on_c, 0, 68, 104
2, 12462, Note_on_c, 0, 69, 0
2, 12467, Note_on_c, 0, 64, 63
2, 12624, Note_on_c, 0, 64, 0
2, 12629, Note_on_c, 0, 69, 102
2, 12630, Control_c, 0, 64, 63
2, 12634, Note_on_c, 0, 66, 100
2, 12638, Control_c, 0, 64, 0
2, 12649, Note_on_c, 0, 52, 76
2, 12657, Control_c, 0, 64, 63
2, 12658, Note_on_c, 0, 68, 0
2, 12673, Control_c, 0, 64, 127
2, 12726, Note_on_c, 0, 45, 0
2, 12756, Note_on_c, 0, 52, 0
2, 12841, Note_on_c, 0, 66, 0
2, 12855, Note_on_c, 0, 69, 0
2, 12859, Note_on_c, 0, 71, 96
2, 12860, Note_on_c, 0, 68, 74
2, 12866, Note_on_c, 0, 56, 60
2, 12874, Note_on_c, 0, 59, 48
2, 12892, Control_c, 0, 64, 63
2, 12931, Control_c, 0, 64, 127
2, 12964, Note_on_c, 0, 56, 0
2, 12981, Note_on_c, 0, 59, 0
2, 13116, Note_on_c, 0, 40, 74
2, 13294, Note_on_c, 0, 71, 0
2, 13297, Note_on_c, 0, 68, 0
2, 13302, Note_on_c, 0, 40, 0
2, 13305, Note_on_c, 0, 52, 85
2, 13347, Note_on_c, 0, 52, 0
2, 13572, Note_on_c, 0, 62, 68
2, 13574, Note_on_c, 0, 59, 57
2, 13576, Note_on_c, 0, 76, 98
2, 13586, Note_on_c, 0, 68, 88
2, 13605, Note_on_c, 0, 59, 0
2, 13608, Note_on_c, 0, 68, 0
2, 13610, Note_on_c, 0, 62, 0
2, 13796, Note_on_c, 0, 76, 0
2, 13853, Note_on_c, 0, 40, 76
2, 14035, Note_on_c, 0, 40, 0
2, 14070, Note_on_c, 0, 52, 60
2, 14071, Note_on_c, 0, 72, 94
2, 14116, Note_on_c, 0, 52, 0
2, 14258, Note_on_c, 0, 72, 0
2, 14262, Note_on_c, 0, 69, 93
2, 14269, Note_on_c, 0, 60, 61
2, 14275, Note_on_c, 0, 57, 56
2, 14282, Note_on_c, 0, 64, 69
2, 14284, Control_c, 0, 64, 63
2, 14289, Control_c, 0, 64, 0
2, 14317, Control_c, 0, 64, 63
2, 14329, Control_c, 0, 64, 127
2, 14335, Note_on_c, 0, 57, 0
2, 14362, Note_on_c, 0, 60, 0
2, 14464, Note_on_c, 0, 45, 74
2, 14517, Note_on_c, 0, 69, 0
2, 14602, Note_on_c, 0, 64, 0
2, 14645, Note_on_c, 0, 71, 103
2, 14654, Note_on_c, 0, 52, 69
2, 14655, Note_on_c, 0, 68, 92
2, 14668, Note_on_c, 0, 45, 0
2, 14673, Note_on_c, 0, 68, 0
2, 14686, Note_on_c, 0, 71, 0
2, 14693, Note_on_c, 0, 52, 0
2, 14837, Note_on_c, 0, 72, 111
2, 14848, Note_on_c, 0, 69, 85
2, 14849, Note_on_c, 0, 57, 58
2, 14850, Note_on_c, 0, 60, 69
2, 14861, Control_c, 0, 64, 63
2, 14884, Control_c, 0, 64, 127
2, 14922, Note_on_c, 0, 57, 0
2, 14965, Note_on_c, 0, 60, 0
2, 15021, Note_on_c, 0, 69, 0
2, 15036, Note_on_c, 0, 74, 104
2, 15039, Note_on_c, 0, 71, 96
2, 15048, Note_on_c, 0, 45, 68
2, 15057, Note_on_c, 0, 72, 0
2, 15101, Control_c, 0, 64, 63
2, 15116, Control_c, 0, 64, 0
2, 15145, Control_c, 0, 64, 63
2, 15163, Control_c, 0, 64, 127
2, 15246, Note_on_c, 0, 71, 0
2, 15251, Note_on_c, 0, 76, 102
2, 15253, Note_on_c, 0, 52, 88
2, 15255, Note_on_c, 0, 72, 98
2, 15276, Note_on_c, 0, 45, 0
2, 15282, Note_on_c, 0, 74, 0
2, 15298, Note_on_c, 0, 72, 0
2, 15305, Note_on_c, 0, 52, 0
2, 15312, Note_on_c, 0, 76, 0
2, 15487, Note_on_c, 0, 62, 72
2, 15487, Note_on_c, 0, 59, 59
2, 15498, Note_on_c, 0, 79, 106
2, 15509, Note_on_c, 0, 74, 84
2, 15552, Control_c, 0, 64, 63
2, 15561, Control_c, 0, 64, 0
2, 15576, Control_c, 0, 64, 63
2, 15593, Control_c, 0, 64, 127
2, 15623, Note_on_c, 0, 59, 0
2, 15665, Note_on_c, 0, 62, 0
2, 15769, Note_on_c, 0, 76, 106
2, 15774, Note_on_c, 0, 47, 61
2, 15791, Note_on_c, 0, 74, 0
2, 15942, Note_on_c, 0, 76, 0
2, 15963, Note_on_c, 0, 47, 0
2, 15966, Note_on_c, 0, 77, 100
2, 15969, Note_on_c, 0, 55, 44
2, 16001, Note_on_c, 0, 55, 0
2, 16140, Control_c, 0, 64, 63
2, 16149, Control_c, 0, 64, 0
2, 16156, Note_on_c, 0, 76, 98
2, 16162, Note_on_c, 0, 60, 68
2, 16164, Note_on_c, 0, 64, 53
2, 16164, Control_c, 0, 64, 63
2, 16180, Control_c, 0, 64, 127
2, 16181, Note_on_c, 0, 77, 0
2, 16222, Note_on_c, 0, 60, 0
2, 16244, Note_on_c, 0, 64, 0
2, 16248, Note_on_c, 0, 79, 0
2, 16275, Note_on_c, 0, 76, 0
2, 16410, Note_on_c, 0, 48, 38
2, 16412, Note_on_c, 0, 77, 100
2, 16419, Note_on_c, 0, 74, 78
2, 16610, Note_on_c, 0, 74, 0
2, 16635, Note_on_c, 0, 77, 0
2, 16669, Note_on_c, 0, 55, 57
2, 16693, Note_on_c, 0, 48, 0
2, 16706, Note_on_c, 0, 55, 0
2, 16752, Note_on_c, 0, 76, 93
2, 16761, Note_on_c, 0, 72, 76
2, 16788, Note_on_c, 0, 72, 0
2, 16803, Note_on_c, 0, 76, 0
2, 16830, Control_c, 0, 64, 63
2, 16835, Note_on_c, 0, 76, 76
2, 16836, Control_c, 0, 64, 0
2, 16842, Note_on_c, 0, 72, 70
2, 16856, Note_on_c, 0, 65, 55
2, 16856, Note_on_c, 0, 62, 63
2, 16862, Control_c, 0, 64, 63
2, 16873, Control_c, 0, 64, 127
2, 16903, Note_on_c, 0, 62, 0
2, 16918, Note_on_c, 0, 65, 0
2, 16939, Note_on_c, 0, 76, 0
2, 16950, Note_on_c, 0, 72, 0
2, 17049, Note_on_c, 0, 74, 89
2, 17052, Note_on_c, 0, 50, 59
2, 17055, Note_on_c, 0, 71, 77
2, 17200, Control_c, 0, 64, 63
2, 17221, Control_c, 0, 64, 127
2, 17259, Note_on_c, 0, 57, 60
2, 17293, Note_on_c, 0, 50, 0
2, 17306, Note_on_c, 0, 71, 0
2, 17341, Note_on_c, 0, 72, 81
2, 17347, Note_on_c, 0, 69, 66
2, 17351, Note_on_c, 0, 74, 0
2, 17394, Note_on_c, 0, 72, 0
2, 17416, Note_on_c, 0, 69, 0
2, 17428, Note_on_c, 0, 57, 0
2, 17467, Note_on_c, 0, 72, 80
2, 17468, Note_on_c, 0, 64, 47
2, 17478, Note_on_c, 0, 69, 69
2, 17482, Control_c, 0, 64, 63
2, 17495, Control_c, 0, 64, 0
2, 17507, Control_c, 0, 64, 63
2, 17527, Control_c, 0, 64, 127
2, 17616, Note_on_c, 0, 72, 0
2, 17637, Note_on_c, 0, 69, 0
2, 17671, Note_on_c, 0, 64, 0
2, 17711, Note_on_c, 0, 71, 75
2, 17722, Note_on_c, 0, 52, 44
2, 17729, Note_on_c, 0, 68, 51
2, 17766, Control_c, 0, 64, 63
2, 17779, Control_c, 0, 64, 0
2, 17826, Control_c, 0, 64, 63
2, 17838, Control_c, 0, 64, 127
2, 17991, Note_on_c, 0, 62, 54
2, 17998, Control_c, 0, 64, 63
2, 18016, Control_c, 0, 64, 0
2, 18042, Control_c, 0, 64, 63
2, 18058, Control_c, 0, 64, 127
2, 18142, Note_on_c, 0, 69, 74
2, 18178, Note_on_c, 0, 71, 0
2, 18183, Note_on_c, 0, 62, 0
2, 18191, Note_on_c, 0, 68, 0
2, 18260, Note_on_c, 0, 52, 0
2, 18275, Note_on_c, 0, 69, 0
2, 18323, Note_on_c, 0, 69, 69
2, 18328, Note_on_c, 0, 60, 31
2, 18337, Note_on_c, 0, 57, 22
2, 18365, Control_c, 0, 64, 63
2, 18374, Control_c, 0, 64, 0
2, 18393, Control_c, 0, 64, 63
2, 18410, Control_c, 0, 64, 127
2, 18472, Note_on_c, 0, 57, 0
2, 18506, Note_on_c, 0, 60, 0
2, 18630, Note_on_c, 0, 45, 42
2, 18723, Note_on_c, 0, 69, 0
2, 18820, Note_on_c, 0, 45, 0
2, 18857, Note_on_c, 0, 52, 50
2, 19039, Note_on_c, 0, 52, 0
2, 19127, Note_on_c, 0, 57, 113
2, 19137, Note_on_c, 0, 60, 45
2, 19177, Note_on_c, 0, 60, 0
2, 19365, Note_on_c, 0, 45, 47
2, 19407, Note_on_c, 0, 57, 0
2, 19570, Note_on_c, 0, 45, 0
2, 19583, Note_on_c, 0, 52, 34
2, 19617, Note_on_c, 0, 52, 0
2, 19815, Note_on_c, 0, 52, 101
2, 19816, Note_on_c, 0, 57, 37
2, 19817, Note_on_c, 0, 60, 54
2, 19854, Note_on_c, 0, 57, 0
2, 19874, Note_on_c, 0, 60, 0
2, 19983, Note_on_c, 0, 52, 0
2, 20056, Note_on_c, 0, 45, 52
2, 20287, Note_on_c, 0, 52, 48
2, 20308, Note_on_c, 0, 45, 0
2, 20349, Note_on_c, 0, 52, 0
2, 20562, Note_on_c, 0, 57, 33
2, 20562, Note_on_c, 0, 60, 36
2, 20568, Note_on_c, 0, 76, 50
2, 20570, Note_on_c, 0, 88, 70
2, 20573, Note_on_c, 0, 84, 49
2, 20601, Note_on_c, 0, 57, 0
2, 20602, Note_on_c, 0, 60, 0
2, 20844, Note_on_c, 0, 40, 47
2, 20861, Note_on_c, 0, 88, 0
2, 20874, Note_on_c, 0, 84, 0
2, 20892, Note_on_c, 0, 76, 0
2, 21016, Note_on_c, 0, 40, 0
2, 21101, Note_on_c, 0, 52, 46
2, 21105, Note_on_c, 0, 84, 67
2, 21118, Note_on_c, 0, 72, 15
2, 21123, Note_on_c, 0, 81, 24
2, 21148, Note_on_c, 0, 81, 0
2, 21148, Note_on_c, 0, 72, 0
2, 21149, Note_on_c, 0, 52, 0
2, 21151, Note_on_c, 0, 84, 0
2, 21417, Note_on_c, 0, 81, 68
2, 21421, Note_on_c, 0, 60, 29
2, 21423, Note_on_c, 0, 76, 47
2, 21427, Note_on_c, 0, 69, 22
2, 21429, Note_on_c, 0, 57, 27
2, 21460, Control_c, 0, 64, 63
2, 21466, Control_c, 0, 64, 0
2, 21480, Control_c, 0, 64, 63
2, 21492, Control_c, 0, 64, 127
2, 21537, Note_on_c, 0, 60, 0
2, 21549, Note_on_c, 0, 57, 0
2, 21732, Note_on_c, 0, 69, 0
2, 21743, Note_on_c, 0, 33, 47
2, 21803, Note_on_c, 0, 81, 0
2, 21806, Note_on_c, 0, 33, 0
2, 21862, Note_on_c, 0, 76, 0
2, 21976, Note_on_c, 0, 52, 55
2, 21989, Note_on_c, 0, 83, 63
2, 21992, Note_on_c, 0, 71, 54
2, 21999, Note_on_c, 0, 80, 71
2, 22036, Note_on_c, 0, 71, 0
2, 22044, Note_on_c, 0, 52, 0
2, 22057, Note_on_c, 0, 80, 0
2, 22064, Note_on_c, 0, 83, 0
2, 22198, Note_on_c, 0, 84, 79
2, 22203, Note_on_c, 0, 81, 68
2, 22205, Note_on_c, 0, 60, 46
2, 22206, Note_on_c, 0, 72, 51
2, 22209, Note_on_c, 0, 57, 16
2, 22242, Note_on_c, 0, 57, 0
2, 22247, Note_on_c, 0, 72, 0
2, 22256, Note_on_c, 0, 81, 0
2, 22270, Note_on_c, 0, 84, 0
2, 22272, Note_on_c, 0, 60, 0
2, 22395, Note_on_c, 0, 86, 94
2, 22396, Note_on_c, 0, 45, 79
2, 22396, Note_on_c, 0, 83, 74
2, 22405, Note_on_c, 0, 74, 63
2, 22434, Note_on_c, 0, 74, 0
2, 22455, Note_on_c, 0, 86, 0
2, 22456, Note_on_c, 0, 83, 0
2, 22581, Note_on_c, 0, 84, 87
2, 22581, Note_on_c, 0, 88, 94
2, 22583, Note_on_c, 0, 52, 76
2, 22583, Note_on_c, 0, 76, 81
2, 22602, Note_on_c, 0, 45, 0
2, 22615, Note_on_c, 0, 76, 0
2, 22627, Note_on_c, 0, 84, 0
2, 22634, Note_on_c, 0, 52, 0
2, 22638, Note_on_c, 0, 88, 0
2, 22805, Note_on_c, 0, 57, 29
2, 22808, Note_on_c, 0, 62, 55
2, 22818, Note_on_c, 0, 88, 75
2, 22818, Note_on_c, 0, 91, 91
2, 22819, Note_on_c, 0, 79, 79
2, 22855, Control_c, 0, 64, 63
2, 22863, Control_c, 0, 64, 0
2, 22872, Control_c, 0, 64, 63
2, 22885, Control_c, 0, 64, 127
2, 22925, Note_on_c, 0, 57, 0
2, 22946, Note_on_c, 0, 62, 0
2, 23032, Note_on_c, 0, 91, 0
2, 23049, Note_on_c, 0, 45, 59
2, 23075, Note_on_c, 0, 79, 0
2, 23187, Note_on_c, 0, 88, 0
2, 23203, Note_on_c, 0, 45, 0
2, 23230, Note_on_c, 0, 89, 86
2, 23234, Note_on_c, 0, 86, 73
2, 23234, Note_on_c, 0, 53, 50
2, 23236, Note_on_c, 0, 77, 57
2, 23266, Note_on_c, 0, 53, 0
2, 23421, Note_on_c, 0, 62, 66
2, 23423, Note_on_c, 0, 57, 43
2, 23426, Note_on_c, 0, 86, 0
2, 23431, Note_on_c, 0, 89, 0
2, 23453, Note_on_c, 0, 57, 0
2, 23459, Note_on_c, 0, 77, 0
2, 23467, Note_on_c, 0, 62, 0
2, 23616, Note_on_c, 0, 88, 85
2, 23616, Note_on_c, 0, 45, 57
2, 23620, Note_on_c, 0, 76, 71
2, 23624, Note_on_c, 0, 84, 80
2, 23678, Note_on_c, 0, 84, 0
2, 23679, Note_on_c, 0, 76, 0
2, 23679, Note_on_c, 0, 88, 0
2, 23792, Note_on_c, 0, 45, 0
2, 23801, Note_on_c, 0, 86, 90
2, 23804, Note_on_c, 0, 53, 70
2, 23804, Note_on_c, 0, 74, 78
2, 23807, Note_on_c, 0, 83, 81
2, 23841, Note_on_c, 0, 74, 0
2, 23845, Note_on_c, 0, 53, 0
2, 23861, Note_on_c, 0, 86, 0
2, 23872, Note_on_c, 0, 83, 0
2, 23995, Note_on_c, 0, 57, 48
2, 23996, Control_c, 0, 64, 63
2, 23999, Note_on_c, 0, 60, 57
2, 24000, Note_on_c, 0, 84, 77
2, 24000, Note_on_c, 0, 88, 90
2, 24006, Note_on_c, 0, 76, 74
2, 24025, Control_c, 0, 64, 127
2, 24074, Note_on_c, 0, 57, 0
2, 24118, Note_on_c, 0, 60, 0
2, 24126, Note_on_c, 0, 88, 0
2, 24146, Note_on_c, 0, 84, 0
2, 24165, Note_on_c, 0, 76, 0
2, 24216, Note_on_c, 0, 45, 66
2, 24417, Note_on_c, 0, 84, 79
2, 24421, Note_on_c, 0, 81, 74
2, 24426, Note_on_c, 0, 52, 60
2, 24431, Note_on_c, 0, 72, 40
2, 24436, Note_on_c, 0, 45, 0
2, 24446, Note_on_c, 0, 81, 0
2, 24454, Note_on_c, 0, 84, 0
2, 24461, Note_on_c, 0, 52, 0
2, 24464, Note_on_c, 0, 72, 0
2, 24551, Note_on_c, 0, 69, 41
2, 24592, Note_on_c, 0, 69, 0
2, 24594, Note_on_c, 0, 75, 91
2, 24620, Note_on_c, 0, 78, 76
2, 24635, Note_on_c, 0, 75, 0
2, 24652, Note_on_c, 0, 83, 80
2, 24664, Note_on_c, 0, 78, 0
2, 24692, Note_on_c, 0, 60, 44
2, 24696, Note_on_c, 0, 57, 43
2, 24707, Note_on_c, 0, 81, 96
2, 24733, Note_on_c, 0, 83, 0
2, 24762, Note_on_c, 0, 57, 0
2, 24764, Note_on_c, 0, 81, 0
2, 24770, Note_on_c, 0, 60, 0
2, 24942, Note_on_c, 0, 45, 55
2, 24946, Note_on_c, 0, 80, 107
2, 24952, Note_on_c, 0, 68, 84
2, 24970, Note_on_c, 0, 68, 0
2, 24999, Note_on_c, 0, 80, 0
2, 25149, Note_on_c, 0, 81, 107
2, 25151, Note_on_c, 0, 69, 98
2, 25153, Note_on_c, 0, 52, 86
2, 25170, Note_on_c, 0, 45, 0
2, 25185, Note_on_c, 0, 69, 0
2, 25197, Note_on_c, 0, 52, 0
2, 25203, Note_on_c, 0, 81, 0
2, 25337, Note_on_c, 0, 56, 76
2, 25345, Note_on_c, 0, 83, 99
2, 25347, Note_on_c, 0, 59, 68
2, 25349, Note_on_c, 0, 80, 87
2, 25349, Note_on_c, 0, 71, 90
2, 25355, Control_c, 0, 64, 63
2, 25362, Control_c, 0, 64, 0
2, 25385, Control_c, 0, 64, 63
2, 25397, Control_c, 0, 64, 127
2, 25401, Note_on_c, 0, 56, 0
2, 25430, Note_on_c, 0, 59, 0
2, 25552, Note_on_c, 0, 40, 96
2, 25584, Note_on_c, 0, 71, 0
2, 25643, Note_on_c, 0, 83, 0
2, 25663, Note_on_c, 0, 80, 0
2, 25728, Note_on_c, 0, 52, 98
2, 25731, Note_on_c, 0, 40, 0
2, 25779, Note_on_c, 0, 52, 0
2, 25939, Note_on_c, 0, 62, 88
2, 25943, Note_on_c, 0, 88, 108
2, 25945, Note_on_c, 0, 59, 78
2, 25946, Note_on_c, 0, 80, 98
2, 25949, Note_on_c, 0, 76, 84
2, 25969, Note_on_c, 0, 59, 0
2, 25975, Note_on_c, 0, 62, 0
2, 26019, Note_on_c, 0, 76, 0
2, 26100, Note_on_c, 0, 88, 0
2, 26101, Note_on_c, 0, 80, 0
2, 26174, Note_on_c, 0, 40, 99
2, 26390, Note_on_c, 0, 40, 0
2, 26399, Note_on_c, 0, 84, 99
2, 26403, Note_on_c, 0, 72, 76
2, 26405, Note_on_c, 0, 52, 65
2, 26438, Note_on_c, 0, 84, 0
2, 26445, Note_on_c, 0, 72, 0
2, 26457, Note_on_c, 0, 52, 0
2, 26649, Note_on_c, 0, 81, 86
2, 26654, Note_on_c, 0, 76, 71
2, 26655, Note_on_c, 0, 69, 59
2, 26657, Note_on_c, 0, 60, 51
2, 26658, Note_on_c, 0, 57, 52
2, 26683, Control_c, 0, 64, 63
2, 26688, Control_c, 0, 64, 0
2, 26714, Control_c, 0, 64, 63
2, 26724, Control_c, 0, 64, 127
2, 26754, Note_on_c, 0, 57, 0
2, 26792, Note_on_c, 0, 60, 0
2, 26875, Note_on_c, 0, 69, 0
2, 26894, Note_on_c, 0, 81, 0
2, 26899, Note_on_c, 0, 76, 0
2, 26901, Note_on_c, 0, 45, 82
2, 27086, Note_on_c, 0, 52, 60
2, 27087, Note_on_c, 0, 83, 92
2, 27088, Note_on_c, 0, 45, 0
2, 27089, Note_on_c, 0, 71, 89
2, 27091, Note_on_c, 0, 80, 88
2, 27114, Note_on_c, 0, 52, 0
2, 27117, Note_on_c, 0, 71, 0
2, 27133, Note_on_c, 0, 80, 0
2, 27138, Note_on_c, 0, 83, 0
2, 27262, Note_on_c, 0, 84, 101
2, 27266, Note_on_c, 0, 81, 91
2, 27266, Note_on_c, 0, 72, 96
2, 27270, Note_on_c, 0, 60, 84
2, 27271, Note_on_c, 0, 57, 74
2, 27299, Note_on_c, 0, 72, 0
2, 27302, Note_on_c, 0, 57, 0
2, 27307, Note_on_c, 0, 81, 0
2, 27315, Note_on_c, 0, 84, 0
2, 27315, Note_on_c, 0, 60, 0
2, 27450, Note_on_c, 0, 83, 90
2, 27452, Note_on_c, 0, 86, 97
2, 27454, Note_on_c, 0, 74, 88
2, 27454, Note_on_c, 0, 45, 93
2, 27479, Note_on_c, 0, 74, 0
2, 27492, Note_on_c, 0, 83, 0
2, 27494, Note_on_c, 0, 86, 0
2, 27649, Note_on_c, 0, 84, 97
2, 27650, Note_on_c, 0, 88, 92
2, 27651, Note_on_c, 0, 76, 90
2, 27656, Note_on_c, 0, 52, 96
2, 27675, Note_on_c, 0, 45, 0
2, 27677, Note_on_c, 0, 76, 0
2, 27686, Note_on_c, 0, 84, 0
2, 27698, Note_on_c, 0, 88, 0
2, 27698, Note_on_c, 0, 52, 0
2, 27890, Note_on_c, 0, 59, 72
2, 27898, Note_on_c, 0, 62, 76
2, 27911, Note_on_c, 0, 91, 99
2, 27913, Note_on_c, 0, 79, 86
2, 27915, Note_on_c, 0, 86, 90
2, 27959, Control_c, 0, 64, 63
2, 27967, Control_c, 0, 64, 0
2, 27983, Control_c, 0, 64, 63
2, 27995, Control_c, 0, 64, 127
2, 28053, Note_on_c, 0, 59, 0
2, 28100, Note_on_c, 0, 91, 0
2, 28101, Note_on_c, 0, 62, 0
2, 28127, Note_on_c, 0, 79, 0
2, 28185, Note_on_c, 0, 77, 96
2, 28195, Note_on_c, 0, 47, 32
2, 28421, Note_on_c, 0, 55, 83
2, 28429, Note_on_c, 0, 77, 0
2, 28456, Note_on_c, 0, 47, 0
2, 28505, Note_on_c, 0, 55, 0
2, 28507, Note_on_c, 0, 76, 106
2, 28579, Note_on_c, 0, 76, 0
2, 28616, Note_on_c, 0, 76, 99
2, 28621, Note_on_c, 0, 64, 72
2, 28622, Note_on_c, 0, 60, 58
2, 28645, Control_c, 0, 64, 63
2, 28650, Control_c, 0, 64, 0
2, 28666, Control_c, 0, 64, 63
2, 28677, Control_c, 0, 64, 127
2, 28697, Note_on_c, 0, 60, 0
2, 28708, Note_on_c, 0, 86, 0
2, 28727, Note_on_c, 0, 64, 0
2, 28878, Note_on_c, 0, 48, 65
2, 28886, Note_on_c, 0, 89, 87
2, 28895, Note_on_c, 0, 86, 65
2, 28935, Note_on_c, 0, 76, 0
2, 29037, Note_on_c, 0, 86, 0
2, 29049, Note_on_c, 0, 89, 0
2, 29103, Note_on_c, 0, 55, 84
2, 29119, Note_on_c, 0, 48, 0
2, 29147, Note_on_c, 0, 55, 0
2, 29176, Note_on_c, 0, 88, 103
2, 29179, Note_on_c, 0, 84, 97
2, 29189, Note_on_c, 0, 76, 5
2, 29245, Note_on_c, 0, 84, 0
2, 29247, Note_on_c, 0, 88, 0
2, 29258, Note_on_c, 0, 76, 0
2, 29279, Note_on_c, 0, 88, 102
2, 29283, Note_on_c, 0, 84, 86
2, 29287, Note_on_c, 0, 65, 71
2, 29288, Note_on_c, 0, 62, 76
2, 29291, Note_on_c, 0, 76, 22
2, 29321, Note_on_c, 0, 62, 0
2, 29334, Note_on_c, 0, 84, 0
2, 29339, Note_on_c, 0, 65, 0
2, 29340, Note_on_c, 0, 88, 0
2, 29354, Note_on_c, 0, 76, 0
2, 29478, Note_on_c, 0, 86, 102
2, 29480, Note_on_c, 0, 74, 92
2, 29481, Note_on_c, 0, 50, 71
2, 29482, Note_on_c, 0, 83, 85
2, 29493, Control_c, 0, 64, 63
2, 29501, Control_c, 0, 64, 0
2, 29514, Control_c, 0, 64, 63
2, 29531, Control_c, 0, 64, 127
2, 29618, Note_on_c, 0, 86, 0
2, 29622, Note_on_c, 0, 83, 0
2, 29659, Note_on_c, 0, 74, 0
2, 29710, Note_on_c, 0, 57, 81
2, 29724, Note_on_c, 0, 50, 0
2, 29767, Note_on_c, 0, 57, 0
2, 29809, Note_on_c, 0, 84, 91
2, 29812, Note_on_c, 0, 72, 80
2, 29813, Note_on_c, 0, 81, 83
2, 29891, Note_on_c, 0, 72, 0
2, 29892, Note_on_c, 0, 84, 0
2, 29899, Note_on_c, 0, 81, 0
2, 29936, Control_c, 0, 64, 63
2, 29936, Note_on_c, 0, 84, 81
2, 29939, Note_on_c, 0, 81, 68
2, 29943, Note_on_c, 0, 72, 63
2, 29944, Note_on_c, 0, 64, 54
2, 29969, Control_c, 0, 64, 127
2, 30036, Note_on_c, 0, 84, 0
2, 30045, Note_on_c, 0, 81, 0
2, 30054, Note_on_c, 0, 72, 0
2, 30134, Note_on_c, 0, 64, 0
2, 30180, Note_on_c, 0, 52, 47
2, 30185, Note_on_c, 0, 80, 72
2, 30189, Note_on_c, 0, 83, 64
2, 30194, Note_on_c, 0, 71, 51
2, 30224, Control_c, 0, 64, 63
2, 30256, Control_c, 0, 64, 127
2, 30401, Note_on_c, 0, 83, 0
2, 30426, Note_on_c, 0, 80, 0
2, 30439, Note_on_c, 0, 71, 0
2, 30474, Note_on_c, 0, 62, 52
2, 30485, Note_on_c, 0, 52, 0
2, 30546, Note_on_c, 0, 62, 0
2, 30593, Note_on_c, 0, 81, 66
2, 30602, Note_on_c, 0, 69, 34
2, 30658, Note_on_c, 0, 69, 0
2, 30665, Note_on_c, 0, 81, 0
2, 30757, Note_on_c, 0, 81, 71
2, 30766, Note_on_c, 0, 69, 36
2, 30776, Note_on_c, 0, 57, 35
2, 30778, Note_on_c, 0, 60, 33
2, 30790, Control_c, 0, 64, 63
2, 30801, Control_c, 0, 64, 0
2, 30810, Control_c, 0, 64, 63
2, 30825, Control_c, 0, 64, 127
2, 30889, Note_on_c, 0, 57, 0
2, 30924, Note_on_c, 0, 60, 0
2, 31081, Note_on_c, 0, 45, 30
2, 31117, Note_on_c, 0, 69, 0
2, 31208, Note_on_c, 0, 81, 0
2, 31318, Note_on_c, 0, 52, 43
2, 31385, Note_on_c, 0, 45, 0
2, 31460, Note_on_c, 0, 52, 0
2, 31584, Note_on_c, 0, 66, 72
2, 31584, Note_on_c, 0, 63, 51
2, 31588, Note_on_c, 0, 57, 33
2, 31591, Note_on_c, 0, 60, 44
2, 31649, Note_on_c, 0, 57, 0
2, 31652, Note_on_c, 0, 60, 0
2, 31685, Note_on_c, 0, 63, 0
2, 31790, Note_on_c, 0, 66, 0
2, 31819, Note_on_c, 0, 68, 92
2, 31826, Note_on_c, 0, 45, 54
2, 31835, Note_on_c, 0, 64, 54
2, 31892, Note_on_c, 0, 64, 0
2, 31964, Note_on_c, 0, 68, 0
2, 31966, Note_on_c, 0, 45, 0
2, 31990, Note_on_c, 0, 69, 98
2, 31997, Note_on_c, 0, 52, 61
2, 31999, Note_on_c, 0, 66, 90
2, 32017, Note_on_c, 0, 66, 0
2, 32029, Note_on_c, 0, 52, 0
2, 32035, Note_on_c, 0, 69, 0
2, 32174, Note_on_c, 0, 71, 87
2, 32178, Control_c, 0, 64, 63
2, 32180, Note_on_c, 0, 56, 67
2, 32186, Note_on_c, 0, 68, 65
2, 32187, Note_on_c, 0, 59, 55
2, 32207, Control_c, 0, 64, 127
2, 32241, Note_on_c, 0, 56, 0
2, 32257, Note_on_c, 0, 59, 0
2, 32398, Note_on_c, 0, 40, 36
2, 32400, Note_on_c, 0, 76, 81
2, 32434, Note_on_c, 0, 71, 0
2, 32461, Note_on_c, 0, 68, 0
2, 32581, Note_on_c, 0, 40, 0
2, 32587, Note_on_c, 0, 71, 87
2, 32588, Note_on_c, 0, 76, 0
2, 32593, Note_on_c, 0, 68, 73
2, 32595, Note_on_c, 0, 52, 55
2, 32616, Note_on_c, 0, 71, 0
2, 32631, Note_on_c, 0, 52, 0
2, 32635, Note_on_c, 0, 68, 0
2, 32750, Note_on_c, 0, 71, 65
2, 32754, Note_on_c, 0, 68, 70
2, 32794, Note_on_c, 0, 57, 38
2, 32798, Note_on_c, 0, 60, 54
2, 32801, Note_on_c, 0, 69, 76
2, 32810, Note_on_c, 0, 66, 70
2, 32811, Note_on_c, 0, 68, 0
2, 32822, Note_on_c, 0, 71, 0
2, 32824, Control_c, 0, 64, 63
2, 32849, Control_c, 0, 64, 127
2, 32892, Note_on_c, 0, 57, 0
2, 32900, Note_on_c, 0, 60, 0
2, 33032, Note_on_c, 0, 66, 0
2, 33034, Note_on_c, 0, 68, 87
2, 33043, Note_on_c, 0, 40, 51
2, 33045, Note_on_c, 0, 64, 59
2, 33071, Note_on_c, 0, 69, 0
2, 33112, Note_on_c, 0, 68, 0
2, 33203, Note_on_c, 0, 40, 0
2, 33210, Note_on_c, 0, 66, 105
2, 33215, Note_on_c, 0, 52, 69
2, 33217, Note_on_c, 0, 63, 91
2, 33225, Note_on_c, 0, 64, 0
2, 33245, Note_on_c, 0, 63, 0
2, 33245, Note_on_c, 0, 52, 0
2, 33259, Note_on_c, 0, 66, 0
2, 33402, Note_on_c, 0, 71, 84
2, 33406, Note_on_c, 0, 68, 80
2, 33410, Note_on_c, 0, 56, 61
2, 33417, Note_on_c, 0, 59, 34
2, 33422, Control_c, 0, 64, 63
2, 33447, Control_c, 0, 64, 127
2, 33472, Note_on_c, 0, 56, 0
2, 33500, Note_on_c, 0, 59, 0
2, 33602, Note_on_c, 0, 40, 74
2, 33656, Note_on_c, 0, 68, 0
2, 33768, Note_on_c, 0, 40, 0
2, 33782, Note_on_c, 0, 68, 86
2, 33790, Note_on_c, 0, 52, 49
2, 33795, Note_on_c, 0, 64, 44
2, 33798, Note_on_c, 0, 71, 0
2, 33836, Note_on_c, 0, 52, 0
2, 33845, Note_on_c, 0, 64, 0
2, 33856, Note_on_c, 0, 68, 0
2, 33991, Note_on_c, 0, 66, 74
2, 33993, Note_on_c, 0, 63, 60
2, 33997, Note_on_c, 0, 60, 55
2, 34002, Control_c, 0, 64, 63
2, 34003, Note_on_c, 0, 57, 34
2, 34034, Control_c, 0, 64, 127
2, 34092, Note_on_c, 0, 57, 0
2, 34110, Note_on_c, 0, 60, 0
2, 34170, Note_on_c, 0, 63, 0
2, 34221, Note_on_c, 0, 66, 0
2, 34223, Note_on_c, 0, 68, 76
2, 34233, Note_on_c, 0, 45, 57
2, 34238, Note_on_c, 0, 64, 53
2, 34423, Note_on_c, 0, 69, 87
2, 34423, Note_on_c, 0, 66, 80
2, 34427, Note_on_c, 0, 52, 70
2, 34431, Note_on_c, 0, 64, 0
2, 34442, Note_on_c, 0, 68, 0
2, 34442, Control_c, 0, 64, 63
2, 34454, Control_c, 0, 64, 127
2, 34461, Note_on_c, 0, 45, 0
2, 34501, Note_on_c, 0, 52, 0
2, 34569, Note_on_c, 0, 66, 0
2, 34591, Note_on_c, 0, 69, 0
2, 34594, Note_on_c, 0, 71, 90
2, 34594, Control_c, 0, 64, 63
2, 34601, Note_on_c, 0, 68, 80
2, 34607, Note_on_c, 0, 56, 59
2, 34609, Note_on_c, 0, 59, 59
2, 34614, Control_c, 0, 64, 127
2, 34651, Note_on_c, 0, 68, 0
2, 34652, Note_on_c, 0, 71, 0
2, 34664, Note_on_c, 0, 56, 0
2, 34682, Note_on_c, 0, 59, 0
2, 34787, Note_on_c, 0, 76, 91
2, 34798, Note_on_c, 0, 40, 71
2, 34832, Note_on_c, 0, 76, 0
2, 34977, Note_on_c, 0, 40, 0
2, 34990, Note_on_c, 0, 71, 84
2, 34996, Note_on_c, 0, 68, 73
2, 35001, Note_on_c, 0, 52, 47
2, 35017, Note_on_c, 0, 68, 0
2, 35023, Note_on_c, 0, 71, 0
2, 35036, Note_on_c, 0, 52, 0
2, 35174, Note_on_c, 0, 71, 77
2, 35184, Note_on_c, 0, 68, 56
2, 35209, Note_on_c, 0, 60, 43
2, 35213, Note_on_c, 0, 57, 41
2, 35215, Note_on_c, 0, 68, 0
2, 35218, Control_c, 0, 64, 63
2, 35221, Note_on_c, 0, 69, 77
2, 35225, Control_c, 0, 64, 0
2, 35226, Note_on_c, 0, 71, 0
2, 35228, Note_on_c, 0, 66, 61
2, 35239, Control_c, 0, 64, 63
2, 35253, Control_c, 0, 64, 127
2, 35293, Note_on_c, 0, 57, 0
2, 35305, Note_on_c, 0, 60, 0
2, 35453, Note_on_c, 0, 66, 0
2, 35456, Note_on_c, 0, 68, 84
2, 35460, Note_on_c, 0, 40, 60
2, 35466, Note_on_c, 0, 64, 47
2, 35493, Note_on_c, 0, 69, 0
2, 35520, Note_on_c, 0, 64, 0
2, 35624, Note_on_c, 0, 40, 0
2, 35635, Note_on_c, 0, 66, 103
2, 35641, Note_on_c, 0, 68, 0
2, 35643, Note_on_c, 0, 52, 58
2, 35648, Note_on_c, 0, 63, 72
2, 35670, Note_on_c, 0, 52, 0
2, 35693, Note_on_c, 0, 63, 0
2, 35704, Note_on_c, 0, 66, 0
2, 35832, Note_on_c, 0, 71, 81
2, 35833, Note_on_c, 0, 59, 60
2, 35833, Note_on_c, 0, 56, 67
2, 35836, Note_on_c, 0, 68, 83
2, 35846, Control_c, 0, 64, 63
2, 35875, Control_c, 0, 64, 127
2, 35881, Note_on_c, 0, 56, 0
2, 35902, Note_on_c, 0, 59, 0
2, 36068, Note_on_c, 0, 40, 56
2, 36226, Note_on_c, 0, 40, 0
2, 36236, Note_on_c, 0, 52, 76
2, 36270, Note_on_c, 0, 52, 0
2, 36405, Note_on_c, 0, 59, 76
2, 36407, Note_on_c, 0, 56, 76
2, 36434, Note_on_c, 0, 56, 0
2, 36445, Note_on_c, 0, 59, 0
2, 36590, Note_on_c, 0, 40, 89
2, 36674, Note_on_c, 0, 71, 0
2, 36719, Note_on_c, 0, 68, 0
2, 36779, Note_on_c, 0, 40, 0
2, 36779, Note_on_c, 0, 52, 83
2, 36823, Note_on_c, 0, 52, 0
2, 36910, Control_c, 0, 67, 0
2, 37033, Note_on_c, 0, 57, 47
2, 37034, Note_on_c, 0, 73, 80
2, 37038, Note_on_c, 0, 61, 52
2, 37043, Note_on_c, 0, 67, 50
2, 37053, Control_c, 0, 64, 63
2, 37062, Control_c, 0, 64, 0
2, 37069, Control_c, 0, 64, 63
2, 37083, Control_c, 0, 64, 127
2, 37140, Note_on_c, 0, 57, 0
2, 37145, Note_on_c, 0, 61, 0
2, 37290, Note_on_c, 0, 45, 56
2, 37350, Note_on_c, 0, 45, 0
2, 37366, Note_on_c, 0, 67, 0
2, 37470, Note_on_c, 0, 73, 0
2, 37499, Note_on_c, 0, 52, 77
2, 37538, Note_on_c, 0, 52, 0
2, 37728, Note_on_c, 0, 74, 91
2, 37733, Note_on_c, 0, 66, 81
2, 37733, Note_on_c, 0, 62, 57
2, 37735, Note_on_c, 0, 57, 44
2, 37787, Control_c, 0, 64, 63
2, 37798, Control_c, 0, 64, 0
2, 37809, Control_c, 0, 64, 63
2, 37828, Control_c, 0, 64, 127
2, 37888, Note_on_c, 0, 57, 0
2, 37908, Note_on_c, 0, 62, 0
2, 37942, Note_on_c, 0, 50, 83
2, 38009, Note_on_c, 0, 50, 0
2, 38041, Note_on_c, 0, 66, 0
2, 38081, Note_on_c, 0, 74, 0
2, 38116, Note_on_c, 0, 54, 93
2, 38160, Note_on_c, 0, 54, 0
2, 38314, Note_on_c, 0, 59, 66
2, 38316, Note_on_c, 0, 63, 80
2, 38317, Control_c, 0, 64, 63
2, 38319, Note_on_c, 0, 75, 110
2, 38324, Note_on_c, 0, 69, 81
2, 38343, Control_c, 0, 64, 127
2, 38383, Note_on_c, 0, 63, 0
2, 38393, Note_on_c, 0, 59, 0
2, 38531, Note_on_c, 0, 47, 87
2, 38691, Note_on_c, 0, 54, 104
2, 38704, Note_on_c, 0, 47, 0
2, 38705, Note_on_c, 0, 69, 0
2, 38717, Note_on_c, 0, 75, 0
2, 38734, Note_on_c, 0, 54, 0
2, 38864, Note_on_c, 0, 76, 114
2, 38868, Note_on_c, 0, 72, 104
2, 38872, Control_c, 0, 64, 63
2, 38872, Note_on_c, 0, 69, 92
2, 38873, Note_on_c, 0, 60, 86
2, 38876, Note_on_c, 0, 64, 84
2, 38879, Control_c, 0, 64, 0
2, 38888, Control_c, 0, 64, 63
2, 38900, Control_c, 0, 64, 127
2, 38916, Note_on_c, 0, 60, 0
2, 38938, Note_on_c, 0, 64, 0
2, 39050, Note_on_c, 0, 48, 101
2, 39196, Note_on_c, 0, 69, 0
2, 39200, Note_on_c, 0, 72, 0
2, 39220, Note_on_c, 0, 76, 0
2, 39222, Note_on_c, 0, 57, 109
2, 39241, Note_on_c, 0, 48, 0
2, 39268, Note_on_c, 0, 57, 0
2, 39419, Note_on_c, 0, 79, 104
2, 39424, Note_on_c, 0, 76, 102
2, 39427, Note_on_c, 0, 61, 105
2, 39427, Note_on_c, 0, 64, 99
2, 39428, Note_on_c, 0, 70, 112
2, 39434, Control_c, 0, 64, 63
2, 39457, Control_c, 0, 64, 127
2, 39498, Note_on_c, 0, 61, 0
2, 39501, Note_on_c, 0, 64, 0
2, 39628, Note_on_c, 0, 49, 107
2, 39818, Note_on_c, 0, 58, 119
2, 39844, Note_on_c, 0, 49, 0
2, 39856, Note_on_c, 0, 79, 0
2, 39871, Note_on_c, 0, 58, 0
2, 39877, Note_on_c, 0, 70, 0
2, 39882, Note_on_c, 0, 76, 0
2, 40014, Note_on_c, 0, 77, 112
2, 40016, Note_on_c, 0, 74, 108
2, 40017, Note_on_c, 0, 70, 110
2, 40020, Note_on_c, 0, 65, 103
2, 40021, Note_on_c, 0, 62, 102
2, 40030, Control_c, 0, 64, 63
2, 40035, Control_c, 0, 64, 0
2, 40057, Control_c, 0, 64, 63
2, 40064, Control_c, 0, 64, 127
2, 40071, Note_on_c, 0, 62, 0
2, 40081, Note_on_c, 0, 65, 0
2, 40224, Note_on_c, 0, 50, 112
2, 40461, Note_on_c, 0, 74, 0
2, 40465, Note_on_c, 0, 70, 0
2, 40468, Note_on_c, 0, 58, 118
2, 40478, Note_on_c, 0, 77, 0
2, 40494, Note_on_c, 0, 50, 0
2, 40519, Note_on_c, 0, 58, 0
2, 40797, Note_on_c, 0, 81, 117
2, 40799, Note_on_c, 0, 78, 107
2, 40801, Note_on_c, 0, 69, 112
2, 40801, Note_on_c, 0, 75, 114
2, 40802, Note_on_c, 0, 72, 112
2, 40802, Note_on_c, 0, 66, 109
2, 40803, Note_on_c, 0, 63, 110
2, 40827, Control_c, 0, 64, 63
2, 40834, Control_c, 0, 64, 0
2, 40849, Control_c, 0, 64, 63
2, 40862, Control_c, 0, 64, 127
2, 40950, Note_on_c, 0, 63, 0
2, 40994, Note_on_c, 0, 66, 0
2, 41122, Note_on_c, 0, 72, 0
2, 41126, Note_on_c, 0, 69, 0
2, 41138, Note_on_c, 0, 81, 0
2, 41143, Note_on_c, 0, 51, 116
2, 41152, Note_on_c, 0, 75, 0
2, 41155, Note_on_c, 0, 78, 0
2, 41394, Note_on_c, 0, 60, 104
2, 41401, Note_on_c, 0, 51, 0
2, 41489, Note_on_c, 0, 60, 0
2, 41632, Note_on_c, 0, 63, 104
2, 41633, Note_on_c, 0, 66, 104
2, 41681, Note_on_c, 0, 63, 0
2, 41696, Note_on_c, 0, 66, 0
2, 41840, Note_on_c, 0, 51, 106
2, 41972, Note_on_c, 0, 51, 0
2, 42026, Note_on_c, 0, 60, 93
2, 42077, Note_on_c, 0, 60, 0
2, 42275, Note_on_c, 0, 45, 120
2, 42281, Note_on_c, 0, 63, 87
2, 42283, Note_on_c, 0, 66, 86
2, 42302, Note_on_c, 0, 45, 0
2, 42333, Note_on_c, 0, 63, 0
2, 42341, Note_on_c, 0, 66, 0
2, 42492, Note_on_c, 0, 51, 93
2, 42550, Note_on_c, 0, 51, 0
2, 42711, Note_on_c, 0, 60, 98
2, 42760, Note_on_c, 0, 60, 0
2, 42970, Note_on_c, 0, 39, 127
2, 42976, Note_on_c, 0, 66, 93
2, 42977, Note_on_c, 0, 63, 94
2, 43026, Note_on_c, 0, 63, 0
2, 43028, Note_on_c, 0, 66, 0
2, 43029, Note_on_c, 0, 39, 0
2, 43217, Note_on_c, 0, 51, 88
2, 43410, Note_on_c, 0, 51, 0
2, 43416, Note_on_c, 0, 60, 58
2, 43465, Note_on_c, 0, 60, 0
2, 43658, Note_on_c, 0, 63, 67
2, 43667, Note_on_c, 0, 66, 63
2, 43710, Note_on_c, 0, 63, 0
2, 43732, Note_on_c, 0, 66, 0
2, 43904, Note_on_c, 0, 51, 57
2, 43997, Note_on_c, 0, 51, 0
2, 44188, Note_on_c, 0, 60, 35
2, 44298, Note_on_c, 0, 60, 0
2, 44563, Note_on_c, 0, 52, 41
2, 44573, Note_on_c, 0, 76, 56
2, 44588, Note_on_c, 0, 72, 46
2, 44592, Control_c, 0, 67, 127
2, 44612, Control_c, 0, 64, 63
2, 44620, Control_c, 0, 64, 0
2, 44654, Control_c, 0, 64, 63
2, 44667, Control_c, 0, 64, 127
2, 44894, Note_on_c, 0, 52, 0
2, 44934, Note_on_c, 0, 40, 50
2, 44957, Note_on_c, 0, 72, 0
2, 45016, Note_on_c, 0, 76, 0
2, 45109, Note_on_c, 0, 40, 0
2, 45178, Note_on_c, 0, 52, 36
2, 45183, Note_on_c, 0, 72, 79
2, 45188, Note_on_c, 0, 69, 67
2, 45201, Note_on_c, 0, 52, 0
2, 45221, Note_on_c, 0, 69, 0
2, 45230, Note_on_c, 0, 72, 0
2, 45403, Note_on_c, 0, 69, 84
2, 45411, Note_on_c, 0, 57, 43
2, 45413, Note_on_c, 0, 60, 52
2, 45415, Note_on_c, 0, 64, 65
2, 45467, Note_on_c, 0, 57, 0
2, 45470, Note_on_c, 0, 60, 0
2, 45596, Note_on_c, 0, 40, 67
2, 45713, Note_on_c, 0, 69, 0
2, 45740, Note_on_c, 0, 64, 0
2, 45760, Note_on_c, 0, 40, 0
2, 45765, Note_on_c, 0, 71, 93
2, 45767, Note_on_c, 0, 52, 80
2, 45769, Note_on_c, 0, 68, 83
2, 45793, Note_on_c, 0, 68, 0
2, 45801, Note_on_c, 0, 52, 0
2, 45805, Note_on_c, 0, 71, 0
2, 45959, Note_on_c, 0, 72, 93
2, 45963, Note_on_c, 0, 64, 54
2, 45964, Note_on_c, 0, 69, 73
2, 45966, Note_on_c, 0, 60, 47
2, 45971, Note_on_c, 0, 57, 39
2, 45993, Note_on_c, 0, 60, 0
2, 45998, Note_on_c, 0, 64, 0
2, 46022, Note_on_c, 0, 57, 0
2, 46138, Note_on_c, 0, 69, 0
2, 46139, Note_on_c, 0, 74, 97
2, 46143, Note_on_c, 0, 72, 0
2, 46143, Note_on_c, 0, 71, 81
2, 46153, Note_on_c, 0, 40, 29
2, 46275, Control_c, 0, 64, 63
2, 46292, Control_c, 0, 64, 127
2, 46329, Note_on_c, 0, 71, 0
2, 46337, Note_on_c, 0, 52, 48
2, 46341, Note_on_c, 0, 76, 87
2, 46344, Note_on_c, 0, 72, 63
2, 46356, Note_on_c, 0, 40, 0
2, 46368, Note_on_c, 0, 74, 0
2, 46401, Note_on_c, 0, 72, 0
2, 46415, Note_on_c, 0, 76, 0
2, 46419, Note_on_c, 0, 52, 0
2, 46571, Note_on_c, 0, 69, 71
2, 46580, Note_on_c, 0, 64, 52
2, 46584, Note_on_c, 0, 57, 35
2, 46602, Note_on_c, 0, 60, 22
2, 46613, Control_c, 0, 64, 63
2, 46628, Control_c, 0, 64, 127
2, 46672, Note_on_c, 0, 57, 0
2, 46681, Note_on_c, 0, 60, 0
2, 46794, Note_on_c, 0, 40, 48
2, 46935, Note_on_c, 0, 69, 0
2, 46964, Note_on_c, 0, 64, 0
2, 46965, Note_on_c, 0, 40, 0
2, 46974, Note_on_c, 0, 68, 79
2, 46975, Note_on_c, 0, 71, 84
2, 46980, Note_on_c, 0, 52, 71
2, 47008, Note_on_c, 0, 68, 0
2, 47012, Note_on_c, 0, 52, 0
2, 47020, Note_on_c, 0, 71, 0
2, 47158, Note_on_c, 0, 72, 93
2, 47160, Note_on_c, 0, 64, 71
2, 47164, Note_on_c, 0, 69, 69
2, 47164, Note_on_c, 0, 60, 65
2, 47179, Note_on_c, 0, 57, 28
2, 47188, Note_on_c, 0, 60, 0
2, 47191, Note_on_c, 0, 64, 0
2, 47214, Note_on_c, 0, 57, 0
2, 47287, Note_on_c, 0, 69, 0
2, 47339, Note_on_c, 0, 72, 0
2, 47361, Note_on_c, 0, 74, 98
2, 47368, Note_on_c, 0, 71, 87
2, 47384, Note_on_c, 0, 40, 50
2, 47588, Note_on_c, 0, 76, 103
2, 47590, Note_on_c, 0, 72, 90
2, 47590, Note_on_c, 0, 52, 65
2, 47595, Note_on_c, 0, 71, 0
2, 47602, Note_on_c, 0, 74, 0
2, 47607, Control_c, 0, 64, 63
2, 47618, Control_c, 0, 64, 127
2, 47659, Note_on_c, 0, 40, 0
2, 47695, Note_on_c, 0, 52, 0
2, 47857, Note_on_c, 0, 65, 78
2, 47902, Control_c, 0, 64, 63
2, 47918, Control_c, 0, 64, 127
2, 48124, Note_on_c, 0, 72, 0
2, 48150, Note_on_c, 0, 76, 0
2, 48151, Note_on_c, 0, 65, 0
2, 48160, Note_on_c, 0, 74, 79
2, 48161, Note_on_c, 0, 52, 49
2, 48162, Note_on_c, 0, 71, 71
2, 48299, Note_on_c, 0, 74, 0
2, 48308, Note_on_c, 0, 71, 0
2, 48361, Note_on_c, 0, 57, 79
2, 48447, Note_on_c, 0, 72, 100
2, 48452, Note_on_c, 0, 69, 84
2, 48518, Note_on_c, 0, 69, 0
2, 48525, Note_on_c, 0, 72, 0
2, 48558, Note_on_c, 0, 72, 80
2, 48561, Note_on_c, 0, 64, 62
2, 48563, Note_on_c, 0, 69, 68
2, 48564, Note_on_c, 0, 57, 0
2, 48605, Note_on_c, 0, 52, 0
2, 48616, Control_c, 0, 64, 63
2, 48651, Control_c, 0, 64, 127
2, 48757, Note_on_c, 0, 69, 0
2, 48799, Note_on_c, 0, 72, 0
2, 48809, Note_on_c, 0, 71, 70
2, 48809, Note_on_c, 0, 52, 46
2, 48813, Note_on_c, 0, 68, 59
2, 48839, Control_c, 0, 64, 63
2, 48881, Control_c, 0, 64, 127
2, 48981, Note_on_c, 0, 64, 0
2, 49088, Note_on_c, 0, 62, 63
2, 49159, Control_c, 0, 64, 63
2, 49189, Control_c, 0, 64, 127
2, 49254, Note_on_c, 0, 69, 63
2, 49286, Note_on_c, 0, 68, 0
2, 49308, Note_on_c, 0, 71, 0
2, 49363, Note_on_c, 0, 62, 0
2, 49387, Note_on_c, 0, 69, 0
2, 49420, Note_on_c, 0, 52, 0
2, 49433, Note_on_c, 0, 69, 54
2, 49450, Note_on_c, 0, 60, 36
2, 49456, Note_on_c, 0, 57, 22
2, 49500, Control_c, 0, 64, 63
2, 49535, Control_c, 0, 64, 127
2, 49596, Note_on_c, 0, 57, 0
2, 49627, Note_on_c, 0, 60, 0
2, 49757, Note_on_c, 0, 45, 47
2, 49876, Note_on_c, 0, 69, 0
2, 49996, Note_on_c, 0, 52, 41
2, 50020, Note_on_c, 0, 45, 0
2, 50064, Note_on_c, 0, 52, 0
2, 50277, Note_on_c, 0, 66, 67
2, 50279, Note_on_c, 0, 60, 24
2, 50284, Note_on_c, 0, 63, 33
2, 50286, Note_on_c, 0, 57, 27
2, 50341, Note_on_c, 0, 60, 0
2, 50342, Note_on_c, 0, 57, 0
2, 50464, Note_on_c, 0, 63, 0
2, 50465, Note_on_c, 0, 64, 28
2, 50571, Note_on_c, 0, 45, 25
2, 50574, Note_on_c, 0, 68, 74
2, 50579, Note_on_c, 0, 66, 0
2, 50626, Note_on_c, 0, 64, 0
2, 50705, Note_on_c, 0, 68, 0
2, 50711, Note_on_c, 0, 64, 27
2, 50803, Note_on_c, 0, 64, 0
2, 50808, Note_on_c, 0, 69, 72
2, 50811, Note_on_c, 0, 45, 0
2, 50818, Note_on_c, 0, 66, 55
2, 50918, Note_on_c, 0, 64, 55
2, 50929, Note_on_c, 0, 66, 0
2, 51005, Note_on_c, 0, 71, 84
2, 51006, Control_c, 0, 64, 63
2, 51007, Note_on_c, 0, 69, 0
2, 51008, Note_on_c, 0, 56, 66
2, 51010, Note_on_c, 0, 68, 82
2, 51019, Note_on_c, 0, 59, 47
2, 51028, Control_c, 0, 64, 127
2, 51057, Note_on_c, 0, 64, 0
2, 51062, Note_on_c, 0, 56, 0
2, 51075, Note_on_c, 0, 59, 0
2, 51087, Note_on_c, 0, 71, 0
2, 51094, Note_on_c, 0, 68, 0
2, 51192, Note_on_c, 0, 40, 62
2, 51210, Note_on_c, 0, 76, 88
2, 51259, Note_on_c, 0, 76, 0
2, 51277, Note_on_c, 0, 64, 65
2, 51352, Note_on_c, 0, 40, 0
2, 51389, Note_on_c, 0, 52, 59
2, 51391, Note_on_c, 0, 71, 86
2, 51393, Note_on_c, 0, 68, 85
2, 51419, Note_on_c, 0, 64, 0
2, 51422, Note_on_c, 0, 52, 0
2, 51449, Note_on_c, 0, 71, 0
2, 51453, Note_on_c, 0, 68, 0
2, 51514, Note_on_c, 0, 68, 71
2, 51515, Note_on_c, 0, 71, 77
2, 51578, Note_on_c, 0, 68, 0
2, 51588, Note_on_c, 0, 60, 46
2, 51591, Note_on_c, 0, 57, 45
2, 51597, Note_on_c, 0, 69, 81
2, 51601, Note_on_c, 0, 71, 0
2, 51604, Note_on_c, 0, 66, 63
2, 51638, Control_c, 0, 64, 63
2, 51649, Control_c, 0, 64, 127
2, 51668, Note_on_c, 0, 60, 0
2, 51672, Note_on_c, 0, 57, 0
2, 51714, Note_on_c, 0, 64, 57
2, 51762, Note_on_c, 0, 66, 0
2, 51813, Note_on_c, 0, 68, 90
2, 51816, Note_on_c, 0, 40, 48
2, 51836, Note_on_c, 0, 69, 0
2, 51856, Note_on_c, 0, 64, 0
2, 51902, Note_on_c, 0, 64, 60
2, 51906, Note_on_c, 0, 68, 0
2, 51974, Note_on_c, 0, 64, 0
2, 51992, Note_on_c, 0, 66, 101
2, 51999, Note_on_c, 0, 63, 87
2, 52000, Note_on_c, 0, 40, 0
2, 52005, Note_on_c, 0, 52, 49
2, 52040, Note_on_c, 0, 52, 0
2, 52076, Note_on_c, 0, 66, 0
2, 52080, Note_on_c, 0, 64, 85
2, 52087, Note_on_c, 0, 63, 0
2, 52163, Note_on_c, 0, 56, 65
2, 52169, Note_on_c, 0, 59, 65
2, 52178, Note_on_c, 0, 71, 88
2, 52179, Note_on_c, 0, 68, 82
2, 52184, Control_c, 0, 64, 63
2, 52193, Control_c, 0, 64, 0
2, 52206, Control_c, 0, 64, 63
2, 52209, Note_on_c, 0, 64, 0
2, 52218, Control_c, 0, 64, 127
2, 52248, Note_on_c, 0, 56, 0
2, 52259, Note_on_c, 0, 59, 0
2, 52298, Note_on_c, 0, 64, 31
2, 52370, Note_on_c, 0, 40, 60
2, 52397, Note_on_c, 0, 64, 0
2, 52463, Note_on_c, 0, 64, 63
2, 52517, Note_on_c, 0, 68, 0
2, 52534, Note_on_c, 0, 64, 0
2, 52550, Note_on_c, 0, 40, 0
2, 52566, Note_on_c, 0, 52, 57
2, 52572, Note_on_c, 0, 68, 91
2, 52581, Note_on_c, 0, 64, 46
2, 52597, Note_on_c, 0, 71, 0
2, 52611, Note_on_c, 0, 52, 0
2, 52621, Note_on_c, 0, 64, 0
2, 52668, Note_on_c, 0, 64, 47
2, 52678, Note_on_c, 0, 68, 0
2, 52784, Note_on_c, 0, 64, 0
2, 52805, Note_on_c, 0, 57, 35
2, 52807, Note_on_c, 0, 60, 47
2, 52813, Note_on_c, 0, 66, 80
2, 52817, Note_on_c, 0, 63, 73
2, 52825, Control_c, 0, 64, 63
2, 52850, Control_c, 0, 64, 127
2, 52916, Note_on_c, 0, 57, 0
2, 52917, Note_on_c, 0, 60, 0
2, 52970, Note_on_c, 0, 64, 46
2, 52994, Note_on_c, 0, 63, 0
2, 53001, Note_on_c, 0, 66, 0
2, 53059, Note_on_c, 0, 64, 0
2, 53083, Note_on_c, 0, 45, 55
2, 53089, Note_on_c, 0, 68, 88
2, 53188, Note_on_c, 0, 64, 60
2, 53220, Note_on_c, 0, 68, 0
2, 53270, Note_on_c, 0, 64, 0
2, 53275, Note_on_c, 0, 52, 68
2, 53280, Note_on_c, 0, 69, 84
2, 53282, Note_on_c, 0, 45, 0
2, 53282, Note_on_c, 0, 66, 85
2, 53319, Note_on_c, 0, 52, 0
2, 53358, Note_on_c, 0, 66, 0
2, 53365, Note_on_c, 0, 64, 78
2, 53373, Note_on_c, 0, 69, 0
2, 53438, Control_c, 0, 64, 63
2, 53446, Control_c, 0, 64, 0
2, 53451, Note_on_c, 0, 56, 80
2, 53452, Note_on_c, 0, 71, 94
2, 53454, Note_on_c, 0, 68, 85
2, 53456, Control_c, 0, 64, 63
2, 53456, Note_on_c, 0, 59, 72
2, 53457, Note_on_c, 0, 64, 0
2, 53468, Control_c, 0, 64, 127
2, 53497, Note_on_c, 0, 56, 0
2, 53501, Note_on_c, 0, 59, 0
2, 53518, Note_on_c, 0, 71, 0
2, 53529, Note_on_c, 0, 68, 0
2, 53539, Note_on_c, 0, 64, 61
2, 53624, Note_on_c, 0, 40, 65
2, 53625, Note_on_c, 0, 64, 0
2, 53635, Note_on_c, 0, 76, 94
2, 53688, Note_on_c, 0, 76, 0
2, 53714, Note_on_c, 0, 64, 60
2, 53800, Note_on_c, 0, 64, 0
2, 53801, Note_on_c, 0, 40, 0
2, 53812, Note_on_c, 0, 52, 66
2, 53817, Note_on_c, 0, 71, 84
2, 53818, Note_on_c, 0, 68, 81
2, 53841, Note_on_c, 0, 52, 0
2, 53897, Note_on_c, 0, 64, 60
2, 53898, Note_on_c, 0, 68, 0
2, 53905, Note_on_c, 0, 71, 0
2, 53967, Note_on_c, 0, 64, 0
2, 53968, Note_on_c, 0, 71, 91
2, 53969, Note_on_c, 0, 68, 87
2, 54025, Note_on_c, 0, 69, 83
2, 54026, Note_on_c, 0, 60, 55
2, 54037, Note_on_c, 0, 66, 90
2, 54037, Note_on_c, 0, 57, 46
2, 54038, Control_c, 0, 64, 63
2, 54039, Note_on_c, 0, 68, 0
2, 54042, Note_on_c, 0, 71, 0
2, 54064, Control_c, 0, 64, 127
2, 54135, Note_on_c, 0, 57, 0
2, 54138, Note_on_c, 0, 60, 0
2, 54155, Note_on_c, 0, 64, 61
2, 54167, Note_on_c, 0, 66, 0
2, 54258, Note_on_c, 0, 40, 65
2, 54260, Note_on_c, 0, 68, 97
2, 54284, Note_on_c, 0, 64, 0
2, 54292, Note_on_c, 0, 69, 0
2, 54342, Note_on_c, 0, 64, 75
2, 54355, Note_on_c, 0, 68, 0
2, 54427, Note_on_c, 0, 40, 0
2, 54435, Note_on_c, 0, 52, 70
2, 54437, Note_on_c, 0, 66, 105
2, 54441, Note_on_c, 0, 63, 98
2, 54450, Note_on_c, 0, 64, 0
2, 54476, Note_on_c, 0, 52, 0
2, 54516, Note_on_c, 0, 66, 0
2, 54518, Note_on_c, 0, 64, 88
2, 54521, Note_on_c, 0, 63, 0
2, 54606, Note_on_c, 0, 56, 72
2, 54610, Note_on_c, 0, 59, 70
2, 54627, Note_on_c, 0, 71, 92
2, 54634, Control_c, 0, 64, 63
2, 54635, Note_on_c, 0, 68, 76
2, 54644, Control_c, 0, 64, 0
2, 54657, Note_on_c, 0, 64, 0
2, 54661, Control_c, 0, 64, 63
2, 54679, Control_c, 0, 64, 127
2, 54702, Note_on_c, 0, 56, 0
2, 54723, Note_on_c, 0, 59, 0
2, 54739, Note_on_c, 0, 64, 62
2, 54835, Note_on_c, 0, 40, 76
2, 54846, Note_on_c, 0, 64, 0
2, 54913, Note_on_c, 0, 64, 59
2, 54962, Note_on_c, 0, 64, 0
2, 54991, Note_on_c, 0, 40, 0
2, 54992, Note_on_c, 0, 52, 81
2, 55034, Note_on_c, 0, 52, 0
2, 55074, Note_on_c, 0, 64, 75
2, 55150, Note_on_c, 0, 64, 0
2, 55166, Note_on_c, 0, 59, 87
2, 55170, Note_on_c, 0, 56, 81
2, 55203, Note_on_c, 0, 59, 0
2, 55204, Note_on_c, 0, 56, 0
2, 55252, Note_on_c, 0, 64, 72
2, 55313, Note_on_c, 0, 64, 0
2, 55338, Note_on_c, 0, 40, 99
2, 55421, Note_on_c, 0, 64, 59
2, 55474, Note_on_c, 0, 64, 0
2, 55535, Note_on_c, 0, 52, 99
2, 55540, Note_on_c, 0, 40, 0
2, 55583, Note_on_c, 0, 52, 0
2, 55616, Note_on_c, 0, 64, 81
2, 55621, Note_on_c, 0, 71, 0
2, 55646, Note_on_c, 0, 68, 0
2, 55683, Note_on_c, 0, 64, 0
2, 55766, Note_on_c, 0, 61, 87
2, 55774, Note_on_c, 0, 57, 60
2, 55775, Note_on_c, 0, 73, 110
2, 55778, Control_c, 0, 64, 63
2, 55781, Note_on_c, 0, 67, 87
2, 55784, Control_c, 0, 64, 0
2, 55812, Control_c, 0, 64, 63
2, 55822, Control_c, 0, 64, 127
2, 55864, Note_on_c, 0, 61, 0
2, 55865, Note_on_c, 0, 57, 0
2, 55904, Note_on_c, 0, 64, 63
2, 55971, Note_on_c, 0, 64, 0
2, 56015, Note_on_c, 0, 45, 75
2, 56123, Note_on_c, 0, 64, 54
2, 56156, Control_c, 0, 67, 0
2, 56180, Note_on_c, 0, 64, 0
2, 56221, Note_on_c, 0, 52, 78
2, 56251, Note_on_c, 0, 45, 0
2, 56266, Note_on_c, 0, 52, 0
2, 56312, Note_on_c, 0, 64, 71
2, 56336, Note_on_c, 0, 67, 0
2, 56356, Note_on_c, 0, 73, 0
2, 56372, Note_on_c, 0, 64, 0
2, 56420, Note_on_c, 0, 69, 73
2, 56421, Note_on_c, 0, 74, 82
2, 56423, Note_on_c, 0, 62, 54
2, 56430, Note_on_c, 0, 57, 34
2, 56438, Control_c, 0, 64, 63
2, 56453, Control_c, 0, 64, 127
2, 56521, Note_on_c, 0, 66, 85
2, 56612, Note_on_c, 0, 50, 84
2, 56632, Note_on_c, 0, 66, 0
2, 56693, Note_on_c, 0, 66, 79
2, 56712, Note_on_c, 0, 62, 0
2, 56730, Note_on_c, 0, 57, 0
2, 56773, Note_on_c, 0, 66, 0
2, 56783, Note_on_c, 0, 54, 99
2, 56807, Note_on_c, 0, 50, 0
2, 56831, Note_on_c, 0, 74, 0
2, 56845, Note_on_c, 0, 66, 90
2, 56871, Note_on_c, 0, 69, 0
2, 56889, Note_on_c, 0, 66, 0
2, 56907, Note_on_c, 0, 54, 0
2, 57007, Note_on_c, 0, 63, 87
2, 57016, Note_on_c, 0, 75, 101
2, 57017, Note_on_c, 0, 69, 87
2, 57028, Control_c, 0, 64, 63
2, 57063, Control_c, 0, 64, 127
2, 57131, Note_on_c, 0, 66, 78
2, 57133, Note_on_c, 0, 63, 0
2, 57221, Note_on_c, 0, 66, 0
2, 57237, Note_on_c, 0, 47, 78
2, 57322, Note_on_c, 0, 66, 72
2, 57369, Note_on_c, 0, 66, 0
2, 57406, Note_on_c, 0, 54, 92
2, 57410, Note_on_c, 0, 47, 0
2, 57446, Note_on_c, 0, 54, 0
2, 57461, Note_on_c, 0, 66, 90
2, 57465, Note_on_c, 0, 69, 0
2, 57483, Note_on_c, 0, 75, 0
2, 57509, Note_on_c, 0, 66, 0
2, 57569, Note_on_c, 0, 64, 80
2, 57571, Note_on_c, 0, 60, 84
2, 57576, Note_on_c, 0, 76, 96
2, 57582, Note_on_c, 0, 72, 89
2, 57587, Control_c, 0, 64, 63
2, 57610, Control_c, 0, 64, 127
2, 57624, Note_on_c, 0, 60, 0
2, 57636, Note_on_c, 0, 64, 0
2, 57678, Note_on_c, 0, 69, 56
2, 57763, Note_on_c, 0, 48, 102
2, 57767, Note_on_c, 0, 69, 0
2, 57850, Note_on_c, 0, 69, 72
2, 57902, Note_on_c, 0, 69, 0
2, 57930, Note_on_c, 0, 57, 101
2, 57949, Note_on_c, 0, 48, 0
2, 57975, Note_on_c, 0, 57, 0
2, 57996, Note_on_c, 0, 72, 0
2, 58003, Note_on_c, 0, 69, 88
2, 58004, Note_on_c, 0, 76, 0
2, 58043, Note_on_c, 0, 69, 0
2, 58116, Note_on_c, 0, 76, 106
2, 58118, Note_on_c, 0, 79, 106
2, 58119, Control_c, 0, 64, 63
2, 58122, Note_on_c, 0, 61, 106
2, 58123, Note_on_c, 0, 64, 103
2, 58143, Control_c, 0, 64, 127
2, 58169, Note_on_c, 0, 61, 0
2, 58182, Note_on_c, 0, 64, 0
2, 58222, Note_on_c, 0, 70, 87
2, 58296, Note_on_c, 0, 70, 0
2, 58310, Note_on_c, 0, 49, 105
2, 58393, Note_on_c, 0, 70, 80
2, 58440, Note_on_c, 0, 70, 0
2, 58485, Note_on_c, 0, 58, 108
2, 58494, Note_on_c, 0, 49, 0
2, 58534, Note_on_c, 0, 58, 0
2, 58569, Note_on_c, 0, 70, 92
2, 58610, Note_on_c, 0, 76, 0
2, 58631, Note_on_c, 0, 70, 0
2, 58650, Note_on_c, 0, 79, 0
2, 58679, Note_on_c, 0, 65, 106
2, 58679, Note_on_c, 0, 77, 112
2, 58679, Note_on_c, 0, 62, 107
2, 58681, Control_c, 0, 64, 63
2, 58682, Note_on_c, 0, 74, 106
2, 58688, Control_c, 0, 64, 0
2, 58702, Control_c, 0, 64, 63
2, 58714, Control_c, 0, 64, 127
2, 58741, Note_on_c, 0, 62, 0
2, 58746, Note_on_c, 0, 65, 0
2, 58809, Note_on_c, 0, 70, 104
2, 58881, Note_on_c, 0, 70, 0
2, 58910, Note_on_c, 0, 50, 108
2, 59002, Note_on_c, 0, 70, 100
2, 59086, Note_on_c, 0, 70, 0
2, 59124, Note_on_c, 0, 58, 118
2, 59148, Note_on_c, 0, 50, 0
2, 59206, Note_on_c, 0, 58, 0
2, 59241, Note_on_c, 0, 70, 106
2, 59263, Note_on_c, 0, 74, 0
2, 59273, Note_on_c, 0, 77, 0
2, 59288, Note_on_c, 0, 70, 0
2, 59455, Note_on_c, 0, 81, 111
2, 59457, Note_on_c, 0, 63, 114
2, 59458, Note_on_c, 0, 75, 114
2, 59458, Note_on_c, 0, 66, 115
2, 59459, Note_on_c, 0, 69, 103
2, 59463, Note_on_c, 0, 78, 101
2, 59474, Control_c, 0, 64, 63
2, 59479, Control_c, 0, 64, 0
2, 59505, Control_c, 0, 64, 63
2, 59513, Control_c, 0, 64, 127
2, 59601, Note_on_c, 0, 63, 0
2, 59611, Note_on_c, 0, 66, 0
2, 59771, Note_on_c, 0, 51, 115
2, 59895, Note_on_c, 0, 51, 0
2, 59998, Note_on_c, 0, 60, 116
2, 60042, Note_on_c, 0, 60, 0
2, 60205, Note_on_c, 0, 66, 115
2, 60206, Note_on_c, 0, 63, 114
2, 60241, Note_on_c, 0, 63, 0
2, 60244, Note_on_c, 0, 66, 0
2, 60386, Note_on_c, 0, 51, 110
2, 60555, Note_on_c, 0, 81, 0
2, 60562, Note_on_c, 0, 60, 103
2, 60563, Note_on_c, 0, 69, 0
2, 60569, Note_on_c, 0, 75, 0
2, 60572, Note_on_c, 0, 78, 0
2, 60577, Note_on_c, 0, 51, 0
2, 60604, Note_on_c, 0, 60, 0
2, 60814, Note_on_c, 0, 45, 125
2, 60816, Note_on_c, 0, 63, 100
2, 60817, Note_on_c, 0, 66, 105
2, 60850, Note_on_c, 0, 45, 0
2, 60867, Note_on_c, 0, 63, 0
2, 60882, Note_on_c, 0, 66, 0
2, 61049, Note_on_c, 0, 51, 105
2, 61159, Note_on_c, 0, 51, 0
2, 61251, Note_on_c, 0, 60, 113
2, 61300, Note_on_c, 0, 60, 0
2, 61527, Note_on_c, 0, 39, 127
2, 61529, Note_on_c, 0, 66, 103
2, 61531, Note_on_c, 0, 63, 99
2, 61602, Note_on_c, 0, 63, 0
2, 61631, Note_on_c, 0, 66, 0
2, 61797, Note_on_c, 0, 51, 98
2, 62013, Note_on_c, 0, 51, 0
2, 62014, Note_on_c, 0, 60, 84
2, 62057, Note_on_c, 0, 60, 0
2, 62228, Note_on_c, 0, 66, 73
2, 62231, Note_on_c, 0, 63, 75
2, 62255, Note_on_c, 0, 63, 0
2, 62270, Note_on_c, 0, 66, 0
2, 62328, Note_on_c, 0, 39, 0
2, 62466, Note_on_c, 0, 51, 54
2, 62605, Note_on_c, 0, 51, 0
2, 62757, Note_on_c, 0, 60, 50
2, 62883, Note_on_c, 0, 60, 0
2, 63115, Note_on_c, 0, 52, 42
2, 63132, Note_on_c, 0, 76, 62
2, 63137, Note_on_c, 0, 72, 25
2, 63169, Control_c, 0, 64, 63
2, 63186, Control_c, 0, 64, 0
2, 63191, Control_c, 0, 67, 127
2, 63204, Control_c, 0, 64, 63
2, 63226, Control_c, 0, 64, 127
2, 63318, Note_on_c, 0, 64, 37
2, 63449, Note_on_c, 0, 40, 59
2, 63478, Note_on_c, 0, 64, 0
2, 63509, Note_on_c, 0, 52, 0
2, 63560, Note_on_c, 0, 64, 43
2, 63581, Note_on_c, 0, 72, 0
2, 63623, Note_on_c, 0, 76, 0
2, 63645, Note_on_c, 0, 40, 0
2, 63676, Note_on_c, 0, 52, 40
2, 63688, Note_on_c, 0, 72, 78
2, 63694, Note_on_c, 0, 64, 0
2, 63696, Note_on_c, 0, 69, 54
2, 63708, Note_on_c, 0, 52, 0
2, 63805, Note_on_c, 0, 64, 50
2, 63806, Note_on_c, 0, 69, 0
2, 63826, Note_on_c, 0, 72, 0
2, 63894, Note_on_c, 0, 60, 63
2, 63896, Note_on_c, 0, 69, 78
2, 63897, Note_on_c, 0, 64, 0
2, 63897, Note_on_c, 0, 57, 52
2, 63938, Note_on_c, 0, 60, 0
2, 63939, Note_on_c, 0, 57, 0
2, 64004, Note_on_c, 0, 64, 43
2, 64078, Note_on_c, 0, 64, 0
2, 64087, Note_on_c, 0, 40, 57
2, 64172, Note_on_c, 0, 64, 52
2, 64240, Note_on_c, 0, 40, 0
2, 64250, Note_on_c, 0, 64, 0
2, 64254, Note_on_c, 0, 69, 0
2, 64260, Note_on_c, 0, 52, 62
2, 64274, Note_on_c, 0, 71, 87
2, 64277, Note_on_c, 0, 68, 79
2, 64292, Note_on_c, 0, 52, 0
2, 64354, Note_on_c, 0, 68, 0
2, 64358, Note_on_c, 0, 64, 54
2, 64433, Note_on_c, 0, 64, 0
2, 64433, Note_on_c, 0, 71, 0
2, 64448, Note_on_c, 0, 72, 90
2, 64450, Note_on_c, 0, 60, 61
2, 64453, Note_on_c, 0, 57, 52
2, 64455, Note_on_c, 0, 69, 74
2, 64475, Note_on_c, 0, 60, 0
2, 64481, Note_on_c, 0, 57, 0
2, 64514, Note_on_c, 0, 69, 0
2, 64522, Note_on_c, 0, 72, 0
2, 64528, Note_on_c, 0, 64, 52
2, 64612, Note_on_c, 0, 64, 0
2, 64626, Note_on_c, 0, 74, 103
2, 64627, Note_on_c, 0, 40, 68
2, 64630, Note_on_c, 0, 71, 86
2, 64697, Note_on_c, 0, 71, 0
2, 64699, Note_on_c, 0, 74, 0
2, 64702, Note_on_c, 0, 64, 68
2, 64796, Note_on_c, 0, 40, 0
2, 64808, Note_on_c, 0, 52, 71
2, 64814, Note_on_c, 0, 76, 99
2, 64822, Note_on_c, 0, 72, 84
2, 64845, Note_on_c, 0, 64, 0
2, 64849, Note_on_c, 0, 52, 0
2, 64884, Note_on_c, 0, 72, 0
2, 64900, Note_on_c, 0, 64, 73
2, 64902, Note_on_c, 0, 76, 0
2, 64995, Note_on_c, 0, 64, 0
2, 65019, Note_on_c, 0, 69, 92
2, 65019, Note_on_c, 0, 60, 61
2, 65020, Note_on_c, 0, 57, 45
2, 65034, Control_c, 0, 64, 63
2, 65061, Control_c, 0, 64, 127
2, 65093, Note_on_c, 0, 57, 0
2, 65097, Note_on_c, 0, 60, 0
2, 65131, Note_on_c, 0, 64, 49
2, 65203, Note_on_c, 0, 64, 0
2, 65219, Note_on_c, 0, 40, 57
2, 65304, Note_on_c, 0, 64, 59
2, 65365, Note_on_c, 0, 40, 0
2, 65379, Note_on_c, 0, 64, 0
2, 65381, Note_on_c, 0, 69, 0
2, 65384, Note_on_c, 0, 52, 65
2, 65396, Note_on_c, 0, 68, 70
2, 65399, Note_on_c, 0, 71, 81
2, 65418, Note_on_c, 0, 52, 0
2, 65474, Note_on_c, 0, 68, 0
2, 65478, Note_on_c, 0, 64, 50
2, 65541, Note_on_c, 0, 71, 0
2, 65545, Control_c, 0, 64, 63
2, 65551, Note_on_c, 0, 64, 0
2, 65556, Control_c, 0, 64, 127
2, 65560, Note_on_c, 0, 60, 84
2, 65561, Note_on_c, 0, 72, 91
2, 65565, Note_on_c, 0, 69, 80
2, 65566, Note_on_c, 0, 57, 67
2, 65598, Note_on_c, 0, 57, 0
2, 65599, Note_on_c, 0, 60, 0
2, 65639, Note_on_c, 0, 64, 68
2, 65640, Note_on_c, 0, 69, 0
2, 65646, Note_on_c, 0, 72, 0
2, 65738, Note_on_c, 0, 64, 0
2, 65746, Note_on_c, 0, 74, 99
2, 65750, Note_on_c, 0, 71, 87
2, 65750, Note_on_c, 0, 40, 89
2, 65823, Note_on_c, 0, 64, 68
2, 65830, Note_on_c, 0, 71, 0
2, 65835, Note_on_c, 0, 74, 0
2, 65954, Note_on_c, 0, 40, 0
2, 65956, Note_on_c, 0, 76, 99
2, 65958, Note_on_c, 0, 52, 83
2, 65960, Note_on_c, 0, 72, 93
2, 65989, Note_on_c, 0, 64, 0
2, 65993, Note_on_c, 0, 52, 0
2, 66064, Note_on_c, 0, 64, 46
2, 66222, Control_c, 0, 64, 63
2, 66230, Note_on_c, 0, 65, 100
2, 66247, Control_c, 0, 64, 127
2, 66259, Note_on_c, 0, 64, 0
2, 66368, Note_on_c, 0, 65, 0
2, 66375, Note_on_c, 0, 64, 54
2, 66415, Note_on_c, 0, 72, 0
2, 66421, Note_on_c, 0, 76, 0
2, 66524, Note_on_c, 0, 74, 92
2, 66527, Note_on_c, 0, 52, 48
2, 66531, Note_on_c, 0, 71, 79
2, 66547, Note_on_c, 0, 64, 0
2, 66654, Note_on_c, 0, 64, 61
2, 66779, Note_on_c, 0, 57, 65
2, 66850, Note_on_c, 0, 71, 0
2, 66870, Note_on_c, 0, 64, 0
2, 66875, Note_on_c, 0, 72, 97
2, 66877, Note_on_c, 0, 69, 82
2, 66885, Note_on_c, 0, 74, 0
2, 66961, Note_on_c, 0, 69, 0
2, 66970, Note_on_c, 0, 72, 0
2, 67013, Note_on_c, 0, 64, 40
2, 67014, Note_on_c, 0, 72, 61
2, 67014, Note_on_c, 0, 69, 66
2, 67015, Note_on_c, 0, 57, 0
2, 67072, Control_c, 0, 64, 63
2, 67090, Note_on_c, 0, 52, 0
2, 67105, Control_c, 0, 64, 127
2, 67244, Note_on_c, 0, 69, 0
2, 67253, Note_on_c, 0, 72, 0
2, 67256, Note_on_c, 0, 52, 51
2, 67258, Note_on_c, 0, 71, 77
2, 67267, Note_on_c, 0, 68, 66
2, 67301, Control_c, 0, 64, 63
2, 67328, Control_c, 0, 64, 127
2, 67422, Note_on_c, 0, 64, 0
2, 67535, Note_on_c, 0, 62, 68
2, 67582, Control_c, 0, 64, 63
2, 67604, Control_c, 0, 64, 127
2, 67678, Note_on_c, 0, 69, 71
2, 67707, Note_on_c, 0, 71, 0
2, 67708, Note_on_c, 0, 68, 0
2, 67730, Note_on_c, 0, 62, 0
2, 67813, Note_on_c, 0, 69, 0
2, 67861, Note_on_c, 0, 52, 0
2, 67886, Note_on_c, 0, 69, 60
2, 67886, Note_on_c, 0, 57, 39
2, 67887, Note_on_c, 0, 61, 61
2, 67939, Control_c, 0, 64, 63
2, 67948, Control_c, 0, 64, 0
2, 67966, Control_c, 0, 64, 63
2, 67980, Control_c, 0, 64, 127
2, 68052, Note_on_c, 0, 57, 0
2, 68061, Note_on_c, 0, 61, 0
2, 68244, Note_on_c, 0, 45, 55
2, 68343, Note_on_c, 0, 69, 0
2, 68485, Note_on_c, 0, 45, 0
2, 68495, Note_on_c, 0, 57, 32
2, 68542, Note_on_c, 0, 57, 0
2, 68799, Note_on_c, 0, 71, 55
2, 68805, Note_on_c, 0, 68, 35
2, 68815, Note_on_c, 0, 62, 32
2, 68821, Note_on_c, 0, 65, 25
2, 68832, Control_c, 0, 64, 63
2, 68847, Control_c, 0, 64, 127
2, 68915, Note_on_c, 0, 62, 0
2, 68923, Note_on_c, 0, 65, 0
2, 68973, Note_on_c, 0, 68, 0
2, 69065, Note_on_c, 0, 71, 0
2, 69095, Note_on_c, 0, 45, 41
2, 69098, Note_on_c, 0, 73, 76
2, 69117, Note_on_c, 0, 69, 29
2, 69262, Note_on_c, 0, 69, 0
2, 69267, Note_on_c, 0, 45, 0
2, 69282, Note_on_c, 0, 73, 0
2, 69295, Note_on_c, 0, 74, 87
2, 69296, Note_on_c, 0, 57, 41
2, 69303, Note_on_c, 0, 71, 60
2, 69326, Note_on_c, 0, 71, 0
2, 69327, Note_on_c, 0, 57, 0
2, 69340, Note_on_c, 0, 74, 0
2, 69483, Note_on_c, 0, 76, 82
2, 69484, Note_on_c, 0, 73, 72
2, 69489, Note_on_c, 0, 61, 60
2, 69491, Note_on_c, 0, 64, 52
2, 69491, Control_c, 0, 64, 63
2, 69505, Control_c, 0, 64, 127
2, 69538, Note_on_c, 0, 61, 0
2, 69563, Note_on_c, 0, 64, 0
2, 69695, Note_on_c, 0, 81, 72
2, 69696, Note_on_c, 0, 45, 46
2, 69767, Note_on_c, 0, 76, 0
2, 69776, Note_on_c, 0, 81, 0
2, 69796, Note_on_c, 0, 73, 0
2, 69904, Note_on_c, 0, 45, 0
2, 69909, Note_on_c, 0, 76, 77
2, 69912, Note_on_c, 0, 73, 74
2, 69921, Note_on_c, 0, 57, 38
2, 69949, Note_on_c, 0, 73, 0
2, 69953, Note_on_c, 0, 57, 0
2, 69963, Note_on_c, 0, 76, 0
2, 70063, Note_on_c, 0, 76, 74
2, 70068, Note_on_c, 0, 73, 67
2, 70108, Control_c, 0, 64, 63
2, 70108, Note_on_c, 0, 65, 45
2, 70110, Note_on_c, 0, 62, 50
2, 70111, Note_on_c, 0, 74, 85
2, 70112, Note_on_c, 0, 73, 0
2, 70114, Note_on_c, 0, 76, 0
2, 70114, Note_on_c, 0, 71, 76
2, 70134, Control_c, 0, 64, 127
2, 70165, Note_on_c, 0, 65, 0
2, 70170, Note_on_c, 0, 62, 0
2, 70311, Note_on_c, 0, 71, 0
2, 70323, Note_on_c, 0, 73, 91
2, 70325, Note_on_c, 0, 38, 85
2, 70331, Note_on_c, 0, 69, 59
2, 70353, Note_on_c, 0, 74, 0
2, 70391, Note_on_c, 0, 73, 0
2, 70411, Note_on_c, 0, 38, 0
2, 70502, Note_on_c, 0, 69, 0
2, 70543, Note_on_c, 0, 71, 68
2, 70548, Note_on_c, 0, 68, 68
2, 70558, Note_on_c, 0, 57, 59
2, 70601, Note_on_c, 0, 68, 0
2, 70604, Note_on_c, 0, 71, 0
2, 70608, Note_on_c, 0, 57, 0
2, 70808, Note_on_c, 0, 73, 78
2, 70813, Note_on_c, 0, 76, 75
2, 70813, Note_on_c, 0, 61, 51
2, 70820, Note_on_c, 0, 64, 27
2, 70848, Control_c, 0, 64, 63
2, 70858, Control_c, 0, 64, 0
2, 70860, Control_c, 0, 64, 63
2, 70875, Control_c, 0, 64, 127
2, 70927, Note_on_c, 0, 61, 0
2, 70943, Note_on_c, 0, 64, 0
2, 71051, Note_on_c, 0, 45, 63
2, 71090, Note_on_c, 0, 73, 0
2, 71188, Note_on_c, 0, 45, 0
2, 71224, Note_on_c, 0, 57, 61
2, 71231, Note_on_c, 0, 73, 90
2, 71235, Note_on_c, 0, 69, 65
2, 71245, Note_on_c, 0, 76, 0
2, 71251, Note_on_c, 0, 57, 0
2, 71282, Note_on_c, 0, 69, 0
2, 71303, Note_on_c, 0, 73, 0
2, 71406, Control_c, 0, 64, 63
2, 71409, Note_on_c, 0, 71, 84
2, 71413, Note_on_c, 0, 65, 71
2, 71414, Note_on_c, 0, 68, 78
2, 71423, Note_on_c, 0, 62, 71
2, 71438, Control_c, 0, 64, 127
2, 71470, Note_on_c, 0, 62, 0
2, 71475, Note_on_c, 0, 65, 0
2, 71546, Note_on_c, 0, 68, 0
2, 71596, Note_on_c, 0, 71, 0
2, 71600, Note_on_c, 0, 45, 71
2, 71605, Note_on_c, 0, 73, 91
2, 71617, Note_on_c, 0, 69, 53
2, 71730, Note_on_c, 0, 45, 0
2, 71752, Note_on_c, 0, 73, 0
2, 71758, Note_on_c, 0, 69, 0
2, 71780, Note_on_c, 0, 74, 97
2, 71781, Note_on_c, 0, 57, 82
2, 71784, Note_on_c, 0, 71, 82
2, 71803, Note_on_c, 0, 71, 0
2, 71803, Note_on_c, 0, 57, 0
2, 71820, Note_on_c, 0, 74, 0
2, 71968, Note_on_c, 0, 76, 84
2, 71969, Control_c, 0, 64, 63
2, 71970, Note_on_c, 0, 64, 74
2, 71975, Note_on_c, 0, 73, 75
2, 71979, Note_on_c, 0, 61, 68
2, 71984, Control_c, 0, 64, 127
2, 72032, Note_on_c, 0, 61, 0
2, 72053, Note_on_c, 0, 64, 0
2, 72162, Note_on_c, 0, 81, 88
2, 72169, Note_on_c, 0, 45, 62
2, 72189, Note_on_c, 0, 76, 0
2, 72206, Note_on_c, 0, 81, 0
2, 72221, Note_on_c, 0, 73, 0
2, 72335, Note_on_c, 0, 45, 0
2, 72352, Note_on_c, 0, 76, 84
2, 72355, Note_on_c, 0, 57, 59
2, 72358, Note_on_c, 0, 73, 78
2, 72396, Note_on_c, 0, 73, 0
2, 72401, Note_on_c, 0, 76, 0
2, 72403, Note_on_c, 0, 57, 0
2, 72523, Note_on_c, 0, 76, 74
2, 72533, Note_on_c, 0, 73, 61
2, 72558, Note_on_c, 0, 65, 54
2, 72563, Note_on_c, 0, 62, 51
2, 72568, Control_c, 0, 64, 63
2, 72572, Note_on_c, 0, 74, 79
2, 72576, Note_on_c, 0, 73, 0
2, 72578, Note_on_c, 0, 76, 0
2, 72580, Note_on_c, 0, 71, 69
2, 72594, Control_c, 0, 64, 127
2, 72636, Note_on_c, 0, 62, 0
2, 72636, Note_on_c, 0, 65, 0
2, 72790, Note_on_c, 0, 71, 0
2, 72806, Note_on_c, 0, 73, 79
2, 72814, Note_on_c, 0, 38, 75
2, 72818, Note_on_c, 0, 69, 35
2, 72837, Note_on_c, 0, 74, 0
2, 72903, Note_on_c, 0, 38, 0
2, 72928, Note_on_c, 0, 69, 0
2, 72988, Note_on_c, 0, 73, 0
2, 73060, Note_on_c, 0, 71, 69
2, 73062, Note_on_c, 0, 57, 48
2, 73063, Note_on_c, 0, 68, 59
2, 73124, Note_on_c, 0, 57, 0
2, 73142, Note_on_c, 0, 71, 0
2, 73159, Note_on_c, 0, 68, 0
2, 73367, Note_on_c, 0, 73, 66
2, 73370, Note_on_c, 0, 61, 45
2, 73370, Note_on_c, 0, 76, 60
2, 73382, Note_on_c, 0, 64, 33
2, 73401, Control_c, 0, 64, 63
2, 73419, Control_c, 0, 64, 127
2, 73517, Note_on_c, 0, 61, 0
2, 73526, Note_on_c, 0, 64, 0
2, 73647, Note_on_c, 0, 76, 0
2, 73696, Note_on_c, 0, 73, 0
2, 73712, Note_on_c, 0, 45, 60
2, 73963, Note_on_c, 0, 52, 30
2, 73976, Note_on_c, 0, 45, 0
2, 73992, Note_on_c, 0, 52, 0
2, 74197, Note_on_c, 0, 61, 49
2, 74204, Note_on_c, 0, 57, 16
2, 74246, Note_on_c, 0, 61, 0
2, 74266, Note_on_c, 0, 57, 0
2, 74342, Note_on_c, 0, 64, 54
2, 74472, Note_on_c, 0, 45, 35
2, 74481, Note_on_c, 0, 64, 0
2, 74485, Note_on_c, 0, 69, 38
2, 74590, Note_on_c, 0, 69, 0
2, 74596, Note_on_c, 0, 71, 51
2, 74686, Note_on_c, 0, 71, 0
2, 74686, Note_on_c, 0, 45, 0
2, 74691, Note_on_c, 0, 52, 59
2, 74708, Note_on_c, 0, 69, 46
2, 74724, Note_on_c, 0, 52, 0
2, 74788, Note_on_c, 0, 69, 0
2, 74789, Note_on_c, 0, 71, 57
2, 74874, Note_on_c, 0, 57, 45
2, 74876, Note_on_c, 0, 61, 58
2, 74882, Note_on_c, 0, 73, 74
2, 74886, Note_on_c, 0, 71, 0
2, 74903, Note_on_c, 0, 61, 0
2, 74918, Note_on_c, 0, 57, 0
2, 74976, Note_on_c, 0, 73, 0
2, 74979, Note_on_c, 0, 76, 58
2, 75056, Note_on_c, 0, 76, 0
2, 75059, Note_on_c, 0, 45, 45
2, 75062, Note_on_c, 0, 73, 74
2, 75144, Note_on_c, 0, 74, 71
2, 75148, Note_on_c, 0, 73, 0
2, 75223, Note_on_c, 0, 52, 63
2, 75226, Note_on_c, 0, 73, 86
2, 75228, Note_on_c, 0, 45, 0
2, 75246, Note_on_c, 0, 74, 0
2, 75250, Note_on_c, 0, 52, 0
2, 75289, Note_on_c, 0, 74, 76
2, 75299, Note_on_c, 0, 73, 0
2, 75340, Note_on_c, 0, 74, 0
2, 75381, Note_on_c, 0, 57, 65
2, 75384, Note_on_c, 0, 76, 82
2, 75388, Note_on_c, 0, 61, 65
2, 75420, Note_on_c, 0, 61, 0
2, 75426, Note_on_c, 0, 57, 0
2, 75468, Note_on_c, 0, 81, 70
2, 75469, Note_on_c, 0, 76, 0
2, 75549, Note_on_c, 0, 76, 71
2, 75554, Note_on_c, 0, 81, 0
2, 75562, Note_on_c, 0, 45, 41
2, 75620, Note_on_c, 0, 80, 81
2, 75635, Note_on_c, 0, 76, 0
2, 75702, Note_on_c, 0, 52, 75
2, 75708, Note_on_c, 0, 45, 0
2, 75708, Note_on_c, 0, 76, 81
2, 75720, Note_on_c, 0, 80, 0
2, 75725, Note_on_c, 0, 52, 0
2, 75771, Note_on_c, 0, 80, 91
2, 75779, Note_on_c, 0, 76, 0
2, 75819, Note_on_c, 0, 80, 0
2, 75866, Note_on_c, 0, 81, 84
2, 75868, Note_on_c, 0, 57, 56
2, 75872, Note_on_c, 0, 61, 70
2, 75914, Note_on_c, 0, 61, 0
2, 75919, Note_on_c, 0, 57, 0
2, 75948, Note_on_c, 0, 85, 93
2, 75976, Note_on_c, 0, 81, 0
2, 76032, Note_on_c, 0, 81, 86
2, 76037, Note_on_c, 0, 45, 76
2, 76058, Note_on_c, 0, 85, 0
2, 76095, Note_on_c, 0, 83, 85
2, 76113, Note_on_c, 0, 81, 0
2, 76177, Note_on_c, 0, 81, 86
2, 76180, Note_on_c, 0, 52, 84
2, 76189, Note_on_c, 0, 45, 0
2, 76191, Note_on_c, 0, 83, 0
2, 76209, Note_on_c, 0, 52, 0
2, 76249, Note_on_c, 0, 83, 90
2, 76259, Note_on_c, 0, 81, 0
2, 76355, Note_on_c, 0, 83, 0
2, 76356, Note_on_c, 0, 57, 71
2, 76362, Note_on_c, 0, 85, 87
2, 76364, Note_on_c, 0, 61, 83
2, 76392, Note_on_c, 0, 85, 0
2, 76505, Note_on_c, 0, 88, 70
2, 76605, Note_on_c, 0, 93, 62
2, 76623, Note_on_c, 0, 88, 0
2, 76695, Note_on_c, 0, 97, 83
2, 76712, Note_on_c, 0, 93, 0
2, 76780, Note_on_c, 0, 57, 0
2, 76793, Note_on_c, 0, 100, 73
2, 76795, Note_on_c, 0, 97, 0
2, 76800, Note_on_c, 0, 61, 0
2, 76867, Note_on_c, 0, 100, 0
2, 76887, Note_on_c, 0, 97, 68
2, 76992, Note_on_c, 0, 69, 91
2, 77003, Note_on_c, 0, 97, 0
2, 77010, Note_on_c, 0, 93, 60
2, 77078, Note_on_c, 0, 93, 0
2, 77104, Note_on_c, 0, 88, 60
2, 77205, Note_on_c, 0, 88, 0
2, 77230, Note_on_c, 0, 64, 103
2, 77250, Note_on_c, 0, 85, 70
2, 77335, Note_on_c, 0, 85, 0
2, 77338, Note_on_c, 0, 81, 55
2, 77425, Note_on_c, 0, 81, 0
2, 77440, Note_on_c, 0, 76, 71
2, 77500, Note_on_c, 0, 76, 0
2, 77518, Note_on_c, 0, 81, 68
2, 77595, Note_on_c, 0, 85, 92
2, 77605, Note_on_c, 0, 81, 0
2, 77605, Note_on_c, 0, 69, 0
2, 77670, Note_on_c, 0, 88, 77
2, 77672, Note_on_c, 0, 85, 0
2, 77738, Note_on_c, 0, 88, 0
2, 77749, Note_on_c, 0, 85, 76
2, 77783, Note_on_c, 0, 64, 0
2, 77821, Note_on_c, 0, 85, 0
2, 77829, Note_on_c, 0, 81, 76
2, 77880, Note_on_c, 0, 81, 0
2, 77913, Note_on_c, 0, 76, 73
2, 77951, Note_on_c, 0, 76, 0
2, 77997, Note_on_c, 0, 73, 70
2, 78044, Note_on_c, 0, 73, 0
2, 78079, Note_on_c, 0, 69, 71
2, 78086, Note_on_c, 0, 57, 104
2, 78136, Note_on_c, 0, 57, 0
2, 78151, Note_on_c, 0, 69, 0
2, 78174, Note_on_c, 0, 64, 36
2, 78289, Note_on_c, 0, 64, 0
2, 78296, Note_on_c, 0, 52, 104
2, 78303, Note_on_c, 0, 69, 68
2, 78388, Note_on_c, 0, 69, 0
2, 78391, Note_on_c, 0, 73, 82
2, 78479, Note_on_c, 0, 73, 0
2, 78484, Note_on_c, 0, 76, 64
2, 78540, Note_on_c, 0, 76, 0
2, 78546, Note_on_c, 0, 73, 92
2, 78611, Note_on_c, 0, 73, 0
2, 78632, Note_on_c, 0, 69, 61
2, 78692, Note_on_c, 0, 69, 0
2, 78706, Note_on_c, 0, 64, 77
2, 78730, Note_on_c, 0, 52, 0
2, 78747, Note_on_c, 0, 64, 0
2, 78797, Note_on_c, 0, 61, 70
2, 78850, Note_on_c, 0, 61, 0
2, 78873, Note_on_c, 0, 57, 68
2, 78926, Note_on_c, 0, 57, 0
2, 78976, Note_on_c, 0, 52, 70
2, 79033, Note_on_c, 0, 52, 0
2, 79066, Note_on_c, 0, 49, 60
2, 79102, Note_on_c, 0, 49, 0
2, 79191, Note_on_c, 0, 45, 81
2, 79197, Note_on_c, 0, 33, 72
2, 79675, Note_on_c, 0, 33, 0
2, 79687, Note_on_c, 0, 45, 0
2, 79725, Control_c, 0, 64, 63
2, 79788, Control_c, 0, 64, 0
2, 80025, Control_c, 0, 64, 63
2, 80042, Control_c, 0, 64, 127
2, 80072, Note_on_c, 0, 73, 53
2, 80081, Note_on_c, 0, 64, 44
2, 80086, Note_on_c, 0, 33, 28
2, 80088, Note_on_c, 0, 45, 24
2, 80091, Note_on_c, 0, 61, 10
2, 80144, Note_on_c, 0, 45, 0
2, 80145, Note_on_c, 0, 33, 0
2, 80532, Note_on_c, 0, 61, 0
2, 80543, Note_on_c, 0, 73, 0
2, 80549, Note_on_c, 0, 64, 0
2, 80579, Control_c, 0, 64, 63
2, 80608, Control_c, 0, 64, 0
2, 81038, Control_c, 0, 64, 63
2, 81074, Control_c, 0, 64, 127
2, 81111, Note_on_c, 0, 33, 30
2, 81112, Note_on_c, 0, 69, 26
2, 81112, Note_on_c, 0, 64, 30
2, 81113, Note_on_c, 0, 61, 30
2, 81123, Note_on_c, 0, 45, 18
2, 81234, Note_on_c, 0, 45, 0
2, 81254, Note_on_c, 0, 33, 0
2, 81543, Note_on_c, 0, 61, 0
2, 81560, Note_on_c, 0, 64, 0
2, 81586, Note_on_c, 0, 69, 0
2, 81792, Control_c, 0, 64, 63
2, 81832, Control_c, 0, 64, 0
2, 82069, Control_c, 0, 67, 0
2, 82069, End_track
0, 0, End_of_file
