0, 0, Header, 0, 1, 384
1, 0, Start_track
1, 0, Title_t, "Wedding March"
1, 0, Time_signature, 4, 2, 24, 8
1, 0, Key_signature, 0, "major"
1, 0, Tempo, 512821
1, 0, Program_c, 0, 0
1, 0, Control_c, 0, 7, 115
1, 0, Note_on_c, 0, 60, 83
1, 67, Note_on_c, 0, 60, 0
1, 116, Note_on_c, 0, 60, 79
1, 150, Note_on_c, 0, 60, 0
1, 200, Note_on_c, 0, 60, 76
1, 262, Note_on_c, 0, 60, 0
1, 317, Note_on_c, 0, 60, 103
1, 400, Note_on_c, 0, 60, 0
1, 400, Control_c, 0, 64, 127
1, 1049, Control_c, 0, 64, 0
1, 1392, Note_on_c, 0, 60, 83
1, 1450, Note_on_c, 0, 60, 0
1, 1496, Note_on_c, 0, 60, 81
1, 1531, Note_on_c, 0, 60, 0
1, 1595, Note_on_c, 0, 60, 62
1, 1669, Note_on_c, 0, 60, 0
1, 1712, Note_on_c, 0, 60, 103
1, 1815, Control_c, 0, 64, 127
1, 1824, Note_on_c, 0, 60, 0
1, 2474, Control_c, 0, 64, 0
1, 2821, Note_on_c, 0, 60, 68
1, 2860, Note_on_c, 0, 60, 0
1, 2903, Note_on_c, 0, 60, 81
1, 2960, Note_on_c, 0, 60, 0
1, 3014, Note_on_c, 0, 60, 81
1, 3067, Note_on_c, 0, 60, 0
1, 3139, Note_on_c, 0, 60, 91
1, 3142, Note_on_c, 0, 64, 102
1, 3230, Control_c, 0, 64, 127
1, 3270, Note_on_c, 0, 60, 0
1, 3293, Note_on_c, 0, 64, 0
1, 3540, Control_c, 0, 64, 0
1, 3557, Note_on_c, 0, 60, 80
1, 3562, Note_on_c, 0, 64, 76
1, 3596, Note_on_c, 0, 64, 0
1, 3596, Note_on_c, 0, 60, 0
1, 3655, Note_on_c, 0, 60, 71
1, 3659, Note_on_c, 0, 64, 71
1, 3716, Note_on_c, 0, 60, 0
1, 3722, Note_on_c, 0, 64, 0
1, 3760, Note_on_c, 0, 60, 88
1, 3772, Note_on_c, 0, 64, 94
1, 3815, Note_on_c, 0, 64, 0
1, 3838, Note_on_c, 0, 60, 0
1, 3883, Note_on_c, 0, 60, 102
1, 3889, Note_on_c, 0, 64, 96
1, 4020, Control_c, 0, 64, 127
1, 4028, Note_on_c, 0, 60, 0
1, 4050, Note_on_c, 0, 64, 0
1, 4251, Note_on_c, 0, 64, 92
1, 4251, Note_on_c, 0, 60, 81
1, 4261, Control_c, 0, 64, 0
1, 4293, Note_on_c, 0, 60, 0
1, 4297, Note_on_c, 0, 64, 0
1, 4348, Note_on_c, 0, 64, 97
1, 4348, Note_on_c, 0, 60, 78
1, 4414, Note_on_c, 0, 60, 0
1, 4417, Note_on_c, 0, 64, 0
1, 4459, Note_on_c, 0, 60, 95
1, 4459, Note_on_c, 0, 64, 103
1, 4534, Note_on_c, 0, 64, 0
1, 4534, Note_on_c, 0, 60, 0
1, 4585, Note_on_c, 0, 64, 99
1, 4585, Note_on_c, 0, 60, 94
1, 4591, Note_on_c, 0, 67, 104
1, 4691, Control_c, 0, 64, 127
1, 4871, Note_on_c, 0, 60, 0
1, 4886, Note_on_c, 0, 67, 0
1, 4889, Note_on_c, 0, 64, 0
1, 4974, Note_on_c, 0, 60, 102
1, 4974, Note_on_c, 0, 67, 94
1, 4978, Note_on_c, 0, 64, 90
1, 5011, Note_on_c, 0, 64, 0
1, 5016, Control_c, 0, 64, 0
1, 5052, Note_on_c, 0, 60, 0
1, 5056, Note_on_c, 0, 67, 0
1, 5089, Note_on_c, 0, 64, 88
1, 5089, Note_on_c, 0, 60, 102
1, 5092, Note_on_c, 0, 67, 95
1, 5145, Note_on_c, 0, 67, 0
1, 5145, Note_on_c, 0, 64, 0
1, 5150, Note_on_c, 0, 60, 0
1, 5189, Note_on_c, 0, 67, 104
1, 5194, Note_on_c, 0, 64, 96
1, 5194, Note_on_c, 0, 60, 96
1, 5254, Note_on_c, 0, 60, 0
1, 5268, Note_on_c, 0, 64, 0
1, 5276, Note_on_c, 0, 67, 0
1, 5311, Note_on_c, 0, 64, 115
1, 5311, Note_on_c, 0, 67, 107
1, 5315, Note_on_c, 0, 60, 100
1, 5423, Control_c, 0, 64, 127
1, 5496, Note_on_c, 0, 60, 0
1, 5541, Note_on_c, 0, 67, 0
1, 5544, Note_on_c, 0, 64, 0
1, 5666, Note_on_c, 0, 67, 98
1, 5669, Note_on_c, 0, 64, 100
1, 5674, Note_on_c, 0, 60, 81
1, 5700, Note_on_c, 0, 64, 0
1, 5722, Note_on_c, 0, 60, 0
1, 5722, Control_c, 0, 64, 0
1, 5754, Note_on_c, 0, 67, 0
1, 5777, Note_on_c, 0, 64, 94
1, 5777, Note_on_c, 0, 60, 85
1, 5783, Note_on_c, 0, 67, 72
1, 5822, Note_on_c, 0, 67, 0
1, 5827, Note_on_c, 0, 60, 0
1, 5830, Note_on_c, 0, 64, 0
1, 5886, Note_on_c, 0, 67, 91
1, 5886, Note_on_c, 0, 64, 96
1, 5889, Note_on_c, 0, 60, 83
1, 5914, Control_c, 0, 64, 127
1, 5917, Note_on_c, 0, 60, 0
1, 5917, Note_on_c, 0, 64, 0
1, 5967, Note_on_c, 0, 67, 0
1, 6123, Note_on_c, 0, 78, 104
1, 6126, Note_on_c, 0, 84, 117
1, 6126, Note_on_c, 0, 76, 103
1, 6126, Note_on_c, 0, 72, 106
1, 6129, Note_on_c, 0, 45, 101
1, 6129, Note_on_c, 0, 33, 98
1, 6237, Control_c, 0, 64, 0
1, 6789, Control_c, 0, 64, 127
1, 6814, Note_on_c, 0, 84, 0
1, 6828, Note_on_c, 0, 76, 0
1, 6847, Note_on_c, 0, 72, 0
1, 6853, Note_on_c, 0, 33, 0
1, 6863, Note_on_c, 0, 45, 0
1, 6978, Note_on_c, 0, 78, 0
1, 7008, Note_on_c, 0, 83, 127
1, 7008, Note_on_c, 0, 71, 112
1, 7014, Note_on_c, 0, 35, 106
1, 7014, Note_on_c, 0, 75, 90
1, 7017, Note_on_c, 0, 78, 93
1, 7017, Note_on_c, 0, 69, 101
1, 7017, Note_on_c, 0, 47, 106
1, 7268, Control_c, 0, 64, 0
1, 7437, Control_c, 0, 64, 127
1, 7477, Note_on_c, 0, 83, 0
1, 7485, Note_on_c, 0, 47, 0
1, 7490, Note_on_c, 0, 35, 0
1, 7496, Note_on_c, 0, 75, 0
1, 7499, Note_on_c, 0, 78, 0
1, 7502, Note_on_c, 0, 69, 0
1, 7502, Note_on_c, 0, 71, 0
1, 7672, Note_on_c, 0, 78, 99
1, 7672, Note_on_c, 0, 69, 85
1, 7672, Note_on_c, 0, 71, 101
1, 7672, Note_on_c, 0, 75, 91
1, 7677, Note_on_c, 0, 47, 103
1, 7682, Note_on_c, 0, 35, 101
1, 7710, Note_on_c, 0, 35, 0
1, 7747, Note_on_c, 0, 71, 0
1, 7750, Note_on_c, 0, 47, 0
1, 7757, Note_on_c, 0, 75, 0
1, 7764, Note_on_c, 0, 69, 0
1, 7774, Note_on_c, 0, 78, 0
1, 7808, Control_c, 0, 64, 0
1, 7814, Note_on_c, 0, 75, 82
1, 7814, Note_on_c, 0, 69, 84
1, 7814, Note_on_c, 0, 78, 93
1, 7817, Note_on_c, 0, 71, 108
1, 7817, Note_on_c, 0, 81, 109
1, 7825, Note_on_c, 0, 52, 110
1, 7830, Note_on_c, 0, 40, 113
1, 8041, Note_on_c, 0, 81, 0
1, 8041, Control_c, 0, 64, 127
1, 8048, Note_on_c, 0, 71, 0
1, 8064, Note_on_c, 0, 69, 0
1, 8109, Note_on_c, 0, 75, 0
1, 8140, Note_on_c, 0, 78, 0
1, 8154, Control_c, 0, 64, 0
1, 8186, Note_on_c, 0, 76, 92
1, 8186, Note_on_c, 0, 67, 91
1, 8186, Note_on_c, 0, 79, 109
1, 8195, Note_on_c, 0, 69, 37
1, 8335, Note_on_c, 0, 76, 0
1, 8335, Control_c, 0, 64, 127
1, 8356, Note_on_c, 0, 79, 0
1, 8382, Note_on_c, 0, 69, 0
1, 8393, Note_on_c, 0, 40, 0
1, 8404, Note_on_c, 0, 67, 0
1, 8431, Note_on_c, 0, 52, 0
1, 8515, Control_c, 0, 64, 0
1, 8544, Note_on_c, 0, 77, 108
1, 8548, Note_on_c, 0, 69, 79
1, 8548, Note_on_c, 0, 65, 95
1, 8548, Note_on_c, 0, 74, 89
1, 8557, Note_on_c, 0, 53, 111
1, 8557, Note_on_c, 0, 41, 94
1, 8663, Note_on_c, 0, 53, 0
1, 8663, Note_on_c, 0, 77, 0
1, 8682, Note_on_c, 0, 74, 0
1, 8682, Note_on_c, 0, 65, 0
1, 8682, Note_on_c, 0, 41, 0
1, 8694, Note_on_c, 0, 69, 0
1, 8694, Control_c, 0, 64, 127
1, 8802, Control_c, 0, 64, 0
1, 8888, Note_on_c, 0, 74, 106
1, 8894, Note_on_c, 0, 65, 92
1, 8894, Note_on_c, 0, 69, 80
1, 8899, Note_on_c, 0, 53, 113
1, 8899, Note_on_c, 0, 41, 97
1, 8938, Note_on_c, 0, 53, 0
1, 8944, Note_on_c, 0, 41, 0
1, 8981, Note_on_c, 0, 65, 0
1, 8989, Note_on_c, 0, 69, 0
1, 9001, Control_c, 0, 64, 127
1, 9036, Note_on_c, 0, 74, 0
1, 9101, Control_c, 0, 64, 0
1, 9134, Note_on_c, 0, 64, 78
1, 9186, Note_on_c, 0, 67, 88
1, 9218, Note_on_c, 0, 64, 0
1, 9234, Note_on_c, 0, 72, 92
1, 9240, Note_on_c, 0, 31, 98
1, 9240, Note_on_c, 0, 43, 92
1, 9274, Note_on_c, 0, 31, 0
1, 9277, Note_on_c, 0, 67, 0
1, 9281, Control_c, 0, 64, 127
1, 9298, Note_on_c, 0, 43, 0
1, 9298, Note_on_c, 0, 74, 93
1, 9326, Note_on_c, 0, 74, 0
1, 9326, Note_on_c, 0, 72, 0
1, 9363, Note_on_c, 0, 72, 95
1, 9432, Note_on_c, 0, 74, 80
1, 9440, Note_on_c, 0, 72, 0
1, 9468, Note_on_c, 0, 74, 0
1, 9484, Note_on_c, 0, 72, 80
1, 9538, Note_on_c, 0, 74, 78
1, 9558, Note_on_c, 0, 72, 0
1, 9604, Note_on_c, 0, 72, 85
1, 9611, Note_on_c, 0, 74, 0
1, 9661, Note_on_c, 0, 72, 0
1, 9661, Note_on_c, 0, 74, 91
1, 9719, Note_on_c, 0, 72, 76
1, 9775, Note_on_c, 0, 74, 0
1, 9788, Note_on_c, 0, 71, 98
1, 9824, Note_on_c, 0, 72, 0
1, 9864, Note_on_c, 0, 72, 90
1, 9930, Note_on_c, 0, 71, 0
1, 9941, Control_c, 0, 64, 0
1, 9941, Note_on_c, 0, 74, 113
1, 9948, Note_on_c, 0, 55, 84
1, 9948, Note_on_c, 0, 65, 95
1, 9953, Note_on_c, 0, 43, 77
1, 9958, Note_on_c, 0, 67, 92
1, 9994, Note_on_c, 0, 72, 0
1, 10089, Note_on_c, 0, 55, 0
1, 10093, Note_on_c, 0, 65, 0
1, 10093, Note_on_c, 0, 67, 0
1, 10104, Note_on_c, 0, 43, 0
1, 10109, Control_c, 0, 64, 127
1, 10120, Note_on_c, 0, 74, 0
1, 10228, Control_c, 0, 64, 0
1, 10285, Note_on_c, 0, 67, 102
1, 10285, Note_on_c, 0, 65, 94
1, 10293, Note_on_c, 0, 55, 90
1, 10299, Note_on_c, 0, 43, 88
1, 10368, Note_on_c, 0, 43, 0
1, 10373, Note_on_c, 0, 55, 0
1, 10396, Control_c, 0, 64, 127
1, 10462, Note_on_c, 0, 67, 0
1, 10476, Note_on_c, 0, 65, 0
1, 10538, Note_on_c, 0, 74, 83
1, 10566, Note_on_c, 0, 74, 0
1, 10576, Control_c, 0, 64, 0
1, 10624, Note_on_c, 0, 76, 111
1, 10632, Note_on_c, 0, 67, 94
1, 10635, Note_on_c, 0, 64, 95
1, 10639, Note_on_c, 0, 48, 89
1, 10643, Note_on_c, 0, 36, 95
1, 10711, Note_on_c, 0, 36, 0
1, 10755, Control_c, 0, 64, 127
1, 10759, Note_on_c, 0, 48, 0
1, 10766, Note_on_c, 0, 76, 0
1, 10785, Note_on_c, 0, 67, 0
1, 10816, Note_on_c, 0, 64, 0
1, 10964, Note_on_c, 0, 60, 81
1, 10964, Note_on_c, 0, 48, 70
1, 11008, Control_c, 0, 64, 0
1, 11034, Note_on_c, 0, 60, 0
1, 11079, Note_on_c, 0, 48, 0
1, 11125, Note_on_c, 0, 64, 94
1, 11125, Note_on_c, 0, 52, 101
1, 11206, Note_on_c, 0, 64, 0
1, 11209, Note_on_c, 0, 52, 0
1, 11284, Note_on_c, 0, 67, 95
1, 11284, Note_on_c, 0, 55, 102
1, 11331, Note_on_c, 0, 67, 0
1, 11370, Note_on_c, 0, 55, 0
1, 11430, Note_on_c, 0, 60, 92
1, 11437, Note_on_c, 0, 72, 90
1, 11529, Note_on_c, 0, 72, 0
1, 11535, Note_on_c, 0, 60, 0
1, 11577, Note_on_c, 0, 76, 95
1, 11582, Note_on_c, 0, 64, 104
1, 11654, Note_on_c, 0, 64, 0
1, 11654, Note_on_c, 0, 76, 0
1, 11738, Note_on_c, 0, 79, 114
1, 11738, Note_on_c, 0, 67, 108
1, 11771, Note_on_c, 0, 67, 0
1, 11805, Note_on_c, 0, 79, 0
1, 11969, Note_on_c, 0, 84, 117
1, 11969, Note_on_c, 0, 72, 114
1, 11969, Note_on_c, 0, 78, 102
1, 11972, Note_on_c, 0, 76, 99
1, 11972, Note_on_c, 0, 45, 108
1, 11976, Note_on_c, 0, 33, 104
1, 12026, Control_c, 0, 64, 127
1, 12033, Note_on_c, 0, 45, 0
1, 12048, Note_on_c, 0, 33, 0
1, 12334, Note_on_c, 0, 72, 0
1, 12343, Note_on_c, 0, 76, 0
1, 12343, Note_on_c, 0, 78, 0
1, 12382, Note_on_c, 0, 84, 0
1, 12775, Note_on_c, 0, 83, 127
1, 12778, Note_on_c, 0, 71, 112
1, 12781, Note_on_c, 0, 69, 97
1, 12781, Note_on_c, 0, 78, 95
1, 12781, Note_on_c, 0, 75, 90
1, 12784, Note_on_c, 0, 47, 103
1, 12784, Note_on_c, 0, 35, 106
1, 12830, Control_c, 0, 64, 0
1, 13092, Control_c, 0, 64, 127
1, 13096, Note_on_c, 0, 47, 0
1, 13096, Note_on_c, 0, 83, 0
1, 13103, Note_on_c, 0, 35, 0
1, 13135, Note_on_c, 0, 75, 0
1, 13139, Note_on_c, 0, 78, 0
1, 13206, Note_on_c, 0, 69, 0
1, 13206, Note_on_c, 0, 71, 0
1, 13357, Note_on_c, 0, 78, 93
1, 13357, Note_on_c, 0, 75, 86
1, 13357, Note_on_c, 0, 71, 88
1, 13357, Note_on_c, 0, 69, 76
1, 13362, Note_on_c, 0, 47, 93
1, 13362, Note_on_c, 0, 35, 94
1, 13391, Note_on_c, 0, 35, 0
1, 13407, Note_on_c, 0, 71, 0
1, 13424, Note_on_c, 0, 69, 0
1, 13433, Note_on_c, 0, 47, 0
1, 13441, Note_on_c, 0, 75, 0
1, 13454, Note_on_c, 0, 78, 0
1, 13465, Control_c, 0, 64, 0
1, 13499, Note_on_c, 0, 75, 84
1, 13504, Note_on_c, 0, 81, 108
1, 13508, Note_on_c, 0, 78, 78
1, 13508, Note_on_c, 0, 69, 98
1, 13508, Note_on_c, 0, 71, 106
1, 13515, Note_on_c, 0, 52, 109
1, 13519, Note_on_c, 0, 40, 111
1, 13716, Control_c, 0, 64, 127
1, 13719, Note_on_c, 0, 81, 0
1, 13727, Note_on_c, 0, 78, 0
1, 13735, Note_on_c, 0, 71, 0
1, 13743, Note_on_c, 0, 69, 0
1, 13836, Note_on_c, 0, 75, 0
1, 13836, Control_c, 0, 64, 0
1, 13855, Note_on_c, 0, 79, 109
1, 13855, Note_on_c, 0, 71, 92
1, 13855, Note_on_c, 0, 67, 103
1, 13858, Note_on_c, 0, 76, 85
1, 13990, Note_on_c, 0, 79, 0
1, 13998, Note_on_c, 0, 71, 0
1, 14003, Note_on_c, 0, 76, 0
1, 14003, Control_c, 0, 64, 127
1, 14042, Note_on_c, 0, 40, 0
1, 14061, Note_on_c, 0, 67, 0
1, 14068, Note_on_c, 0, 52, 0
1, 14159, Control_c, 0, 64, 0
1, 14176, Note_on_c, 0, 77, 103
1, 14176, Note_on_c, 0, 65, 97
1, 14181, Note_on_c, 0, 69, 82
1, 14181, Note_on_c, 0, 74, 98
1, 14188, Note_on_c, 0, 53, 113
1, 14195, Note_on_c, 0, 41, 92
1, 14260, Note_on_c, 0, 65, 0
1, 14266, Note_on_c, 0, 53, 0
1, 14276, Note_on_c, 0, 77, 0
1, 14279, Note_on_c, 0, 41, 0
1, 14293, Note_on_c, 0, 74, 0
1, 14305, Note_on_c, 0, 69, 0
1, 14505, Note_on_c, 0, 74, 108
1, 14513, Note_on_c, 0, 69, 85
1, 14513, Note_on_c, 0, 65, 94
1, 14518, Note_on_c, 0, 53, 113
1, 14525, Note_on_c, 0, 41, 92
1, 14561, Note_on_c, 0, 53, 0
1, 14585, Note_on_c, 0, 65, 0
1, 14585, Note_on_c, 0, 41, 0
1, 14591, Control_c, 0, 64, 127
1, 14608, Note_on_c, 0, 69, 0
1, 14628, Note_on_c, 0, 74, 0
1, 14686, Control_c, 0, 64, 0
1, 14727, Note_on_c, 0, 64, 86
1, 14775, Note_on_c, 0, 67, 87
1, 14811, Note_on_c, 0, 64, 0
1, 14837, Note_on_c, 0, 72, 95
1, 14845, Note_on_c, 0, 43, 98
1, 14848, Note_on_c, 0, 31, 96
1, 14861, Note_on_c, 0, 67, 0
1, 14875, Note_on_c, 0, 31, 0
1, 14878, Control_c, 0, 64, 127
1, 14889, Note_on_c, 0, 74, 94
1, 14912, Note_on_c, 0, 43, 0
1, 14926, Note_on_c, 0, 72, 0
1, 14934, Note_on_c, 0, 74, 0
1, 14965, Note_on_c, 0, 72, 95
1, 15022, Note_on_c, 0, 74, 82
1, 15047, Note_on_c, 0, 72, 0
1, 15089, Note_on_c, 0, 72, 79
1, 15093, Note_on_c, 0, 74, 0
1, 15132, Note_on_c, 0, 72, 0
1, 15140, Note_on_c, 0, 74, 98
1, 15202, Note_on_c, 0, 72, 73
1, 15212, Note_on_c, 0, 74, 0
1, 15259, Note_on_c, 0, 72, 0
1, 15259, Note_on_c, 0, 74, 94
1, 15312, Note_on_c, 0, 72, 77
1, 15363, Note_on_c, 0, 74, 0
1, 15388, Note_on_c, 0, 71, 101
1, 15412, Note_on_c, 0, 72, 0
1, 15458, Note_on_c, 0, 72, 90
1, 15490, Note_on_c, 0, 71, 0
1, 15530, Note_on_c, 0, 55, 102
1, 15530, Note_on_c, 0, 76, 108
1, 15539, Note_on_c, 0, 43, 83
1, 15588, Note_on_c, 0, 72, 0
1, 15596, Note_on_c, 0, 55, 0
1, 15627, Note_on_c, 0, 43, 0
1, 15630, Note_on_c, 0, 76, 0
1, 15789, Control_c, 0, 64, 0
1, 15873, Note_on_c, 0, 67, 94
1, 15876, Note_on_c, 0, 65, 91
1, 15876, Note_on_c, 0, 74, 105
1, 15876, Note_on_c, 0, 71, 100
1, 15876, Note_on_c, 0, 43, 86
1, 15880, Note_on_c, 0, 31, 94
1, 15947, Note_on_c, 0, 31, 0
1, 15958, Note_on_c, 0, 67, 0
1, 15965, Note_on_c, 0, 43, 0
1, 15972, Note_on_c, 0, 65, 0
1, 15989, Note_on_c, 0, 71, 0
1, 15993, Control_c, 0, 64, 127
1, 16015, Note_on_c, 0, 74, 0
1, 16174, Note_on_c, 0, 76, 95
1, 16221, Control_c, 0, 64, 0
1, 16259, Note_on_c, 0, 76, 0
1, 16273, Note_on_c, 0, 74, 107
1, 16273, Note_on_c, 0, 67, 102
1, 16273, Note_on_c, 0, 65, 96
1, 16277, Note_on_c, 0, 71, 95
1, 16277, Note_on_c, 0, 31, 91
1, 16280, Note_on_c, 0, 43, 88
1, 16606, Note_on_c, 0, 31, 0
1, 16616, Control_c, 0, 64, 127
1, 16642, Note_on_c, 0, 71, 0
1, 16723, Note_on_c, 0, 43, 0
1, 16736, Note_on_c, 0, 67, 0
1, 16789, Note_on_c, 0, 65, 0
1, 17071, Note_on_c, 0, 72, 90
1, 17071, Control_c, 0, 64, 0
1, 17074, Note_on_c, 0, 64, 86
1, 17078, Note_on_c, 0, 48, 70
1, 17081, Note_on_c, 0, 36, 68
1, 17103, Note_on_c, 0, 74, 0
1, 17221, Note_on_c, 0, 36, 0
1, 17263, Note_on_c, 0, 48, 0
1, 17276, Control_c, 0, 64, 127
1, 17388, Note_on_c, 0, 64, 0
1, 17479, Note_on_c, 0, 60, 81
1, 17504, Note_on_c, 0, 72, 0
1, 17504, Control_c, 0, 64, 0
1, 17538, Note_on_c, 0, 60, 0
1, 17586, Note_on_c, 0, 60, 87
1, 17635, Note_on_c, 0, 60, 0
1, 17695, Note_on_c, 0, 60, 85
1, 17773, Note_on_c, 0, 60, 0
1, 17812, Note_on_c, 0, 60, 107
1, 17911, Control_c, 0, 64, 127
1, 18001, Note_on_c, 0, 60, 0
1, 18202, Note_on_c, 0, 60, 86
1, 18291, Note_on_c, 0, 60, 0
1, 18312, Note_on_c, 0, 64, 97
1, 18411, Note_on_c, 0, 67, 92
1, 18415, Note_on_c, 0, 64, 0
1, 18494, Note_on_c, 0, 67, 0
1, 18519, Note_on_c, 0, 72, 104
1, 18904, Note_on_c, 0, 60, 91
1, 18962, Note_on_c, 0, 60, 0
1, 19009, Note_on_c, 0, 60, 94
1, 19078, Note_on_c, 0, 60, 0
1, 19129, Note_on_c, 0, 60, 95
1, 19143, Note_on_c, 0, 72, 0
1, 19198, Note_on_c, 0, 60, 0
1, 19246, Note_on_c, 0, 60, 106
1, 19603, Note_on_c, 0, 60, 0
1, 19620, Note_on_c, 0, 64, 98
1, 19722, Note_on_c, 0, 67, 94
1, 19750, Note_on_c, 0, 64, 0
1, 19825, Note_on_c, 0, 67, 0
1, 19829, Note_on_c, 0, 72, 98
1, 19897, Note_on_c, 0, 72, 0
1, 19948, Note_on_c, 0, 72, 90
1, 19948, Note_on_c, 0, 76, 107
1, 20296, Note_on_c, 0, 60, 93
1, 20349, Note_on_c, 0, 60, 0
1, 20396, Note_on_c, 0, 60, 95
1, 20477, Note_on_c, 0, 60, 0
1, 20508, Note_on_c, 0, 72, 0
1, 20513, Note_on_c, 0, 60, 103
1, 20581, Note_on_c, 0, 60, 0
1, 20642, Note_on_c, 0, 60, 97
1, 20647, Note_on_c, 0, 64, 102
1, 20711, Note_on_c, 0, 76, 0
1, 20722, Note_on_c, 0, 64, 0
1, 20755, Note_on_c, 0, 60, 0
1, 20981, Note_on_c, 0, 64, 96
1, 20984, Note_on_c, 0, 60, 94
1, 21020, Note_on_c, 0, 60, 0
1, 21056, Note_on_c, 0, 64, 0
1, 21077, Note_on_c, 0, 67, 99
1, 21090, Note_on_c, 0, 60, 77
1, 21148, Note_on_c, 0, 60, 0
1, 21174, Note_on_c, 0, 67, 0
1, 21185, Note_on_c, 0, 72, 97
1, 21199, Note_on_c, 0, 60, 88
1, 21266, Note_on_c, 0, 60, 0
1, 21277, Note_on_c, 0, 72, 0
1, 21305, Note_on_c, 0, 76, 108
1, 21308, Note_on_c, 0, 72, 112
1, 21318, Note_on_c, 0, 60, 103
1, 21318, Note_on_c, 0, 64, 111
1, 21385, Note_on_c, 0, 60, 0
1, 21402, Note_on_c, 0, 64, 0
1, 21428, Note_on_c, 0, 72, 0
1, 21466, Note_on_c, 0, 76, 0
1, 21639, Note_on_c, 0, 60, 106
1, 21643, Note_on_c, 0, 67, 91
1, 21687, Note_on_c, 0, 60, 0
1, 21720, Note_on_c, 0, 67, 0
1, 21740, Note_on_c, 0, 72, 99
1, 21745, Note_on_c, 0, 60, 96
1, 21758, Note_on_c, 0, 64, 86
1, 21787, Note_on_c, 0, 64, 0
1, 21792, Note_on_c, 0, 60, 0
1, 21831, Note_on_c, 0, 72, 0
1, 21842, Note_on_c, 0, 76, 101
1, 21861, Note_on_c, 0, 64, 82
1, 21861, Note_on_c, 0, 60, 87
1, 21903, Note_on_c, 0, 60, 0
1, 21914, Note_on_c, 0, 76, 0
1, 21918, Note_on_c, 0, 64, 0
1, 21956, Note_on_c, 0, 76, 92
1, 21956, Note_on_c, 0, 79, 114
1, 21960, Note_on_c, 0, 72, 104
1, 21960, Note_on_c, 0, 67, 113
1, 21976, Note_on_c, 0, 64, 104
1, 21976, Note_on_c, 0, 60, 98
1, 22017, Note_on_c, 0, 60, 0
1, 22045, Note_on_c, 0, 64, 0
1, 22063, Note_on_c, 0, 67, 0
1, 22115, Note_on_c, 0, 72, 0
1, 22138, Note_on_c, 0, 79, 0
1, 22165, Note_on_c, 0, 76, 0
1, 22307, Note_on_c, 0, 67, 103
1, 22310, Note_on_c, 0, 64, 96
1, 22310, Note_on_c, 0, 60, 95
1, 22338, Note_on_c, 0, 64, 0
1, 22343, Note_on_c, 0, 60, 0
1, 22391, Note_on_c, 0, 67, 0
1, 22411, Note_on_c, 0, 72, 103
1, 22424, Note_on_c, 0, 64, 85
1, 22424, Note_on_c, 0, 60, 71
1, 22458, Note_on_c, 0, 60, 0
1, 22458, Note_on_c, 0, 64, 0
1, 22477, Note_on_c, 0, 72, 0
1, 22530, Note_on_c, 0, 76, 96
1, 22544, Note_on_c, 0, 64, 93
1, 22544, Note_on_c, 0, 60, 74
1, 22559, Note_on_c, 0, 72, 22
1, 22583, Note_on_c, 0, 60, 0
1, 22583, Note_on_c, 0, 64, 0
1, 22606, Note_on_c, 0, 76, 0
1, 22614, Note_on_c, 0, 72, 0
1, 22656, Note_on_c, 0, 76, 93
1, 22656, Note_on_c, 0, 79, 115
1, 22659, Note_on_c, 0, 72, 98
1, 22659, Note_on_c, 0, 67, 114
1, 22675, Note_on_c, 0, 64, 110
1, 22681, Note_on_c, 0, 60, 103
1, 22737, Note_on_c, 0, 60, 0
1, 22740, Note_on_c, 0, 64, 0
1, 22772, Note_on_c, 0, 67, 0
1, 22783, Note_on_c, 0, 72, 0
1, 22815, Note_on_c, 0, 76, 0
1, 22836, Note_on_c, 0, 79, 0
1, 23006, Note_on_c, 0, 72, 103
1, 23010, Note_on_c, 0, 67, 88
1, 23017, Note_on_c, 0, 60, 83
1, 23017, Note_on_c, 0, 64, 87
1, 23054, Note_on_c, 0, 64, 0
1, 23060, Note_on_c, 0, 67, 0
1, 23076, Note_on_c, 0, 60, 0
1, 23104, Note_on_c, 0, 72, 0
1, 23113, Note_on_c, 0, 76, 102
1, 23113, Note_on_c, 0, 67, 87
1, 23126, Note_on_c, 0, 64, 70
1, 23126, Note_on_c, 0, 60, 79
1, 23177, Note_on_c, 0, 64, 0
1, 23177, Note_on_c, 0, 67, 0
1, 23182, Note_on_c, 0, 76, 0
1, 23187, Note_on_c, 0, 60, 0
1, 23229, Note_on_c, 0, 67, 87
1, 23233, Note_on_c, 0, 79, 111
1, 23233, Note_on_c, 0, 64, 85
1, 23237, Note_on_c, 0, 60, 91
1, 23258, Note_on_c, 0, 67, 0
1, 23265, Note_on_c, 0, 64, 0
1, 23300, Note_on_c, 0, 60, 0
1, 23329, Note_on_c, 0, 79, 0
1, 23492, Note_on_c, 0, 78, 100
1, 23495, Note_on_c, 0, 84, 116
1, 23495, Note_on_c, 0, 45, 113
1, 23495, Note_on_c, 0, 76, 98
1, 23495, Note_on_c, 0, 72, 113
1, 23500, Note_on_c, 0, 33, 100
1, 23795, Control_c, 0, 64, 0
1, 24166, Control_c, 0, 64, 127
1, 24196, Note_on_c, 0, 72, 0
1, 24196, Note_on_c, 0, 84, 0
1, 24261, Note_on_c, 0, 76, 0
1, 24266, Note_on_c, 0, 45, 0
1, 24266, Note_on_c, 0, 33, 0
1, 24299, Note_on_c, 0, 78, 0
1, 24321, Note_on_c, 0, 83, 127
1, 24325, Note_on_c, 0, 71, 118
1, 24325, Note_on_c, 0, 75, 94
1, 24328, Note_on_c, 0, 69, 103
1, 24328, Note_on_c, 0, 78, 82
1, 24331, Note_on_c, 0, 47, 104
1, 24331, Note_on_c, 0, 35, 109
1, 24562, Control_c, 0, 64, 0
1, 24778, Control_c, 0, 64, 127
1, 24782, Note_on_c, 0, 83, 0
1, 24793, Note_on_c, 0, 47, 0
1, 24793, Note_on_c, 0, 35, 0
1, 24803, Note_on_c, 0, 69, 0
1, 24803, Note_on_c, 0, 71, 0
1, 24821, Note_on_c, 0, 75, 0
1, 24825, Note_on_c, 0, 78, 0
1, 24938, Note_on_c, 0, 78, 96
1, 24938, Note_on_c, 0, 75, 94
1, 24938, Note_on_c, 0, 69, 88
1, 24943, Note_on_c, 0, 71, 106
1, 24949, Note_on_c, 0, 47, 104
1, 24952, Note_on_c, 0, 35, 106
1, 24977, Note_on_c, 0, 35, 0
1, 25027, Note_on_c, 0, 69, 0
1, 25030, Note_on_c, 0, 71, 0
1, 25030, Note_on_c, 0, 47, 0
1, 25040, Note_on_c, 0, 75, 0
1, 25052, Note_on_c, 0, 78, 0
1, 25074, Note_on_c, 0, 71, 109
1, 25074, Note_on_c, 0, 69, 88
1, 25077, Note_on_c, 0, 81, 108
1, 25080, Note_on_c, 0, 75, 98
1, 25087, Note_on_c, 0, 52, 112
1, 25087, Note_on_c, 0, 78, 100
1, 25087, Note_on_c, 0, 40, 116
1, 25333, Note_on_c, 0, 75, 0
1, 25333, Note_on_c, 0, 81, 0
1, 25343, Note_on_c, 0, 71, 0
1, 25346, Note_on_c, 0, 69, 0
1, 25403, Note_on_c, 0, 78, 0
1, 25444, Note_on_c, 0, 67, 106
1, 25444, Note_on_c, 0, 79, 112
1, 25444, Note_on_c, 0, 76, 98
1, 25484, Control_c, 0, 64, 0
1, 25615, Control_c, 0, 64, 127
1, 25619, Note_on_c, 0, 76, 0
1, 25640, Note_on_c, 0, 79, 0
1, 25695, Note_on_c, 0, 40, 0
1, 25712, Note_on_c, 0, 67, 0
1, 25731, Note_on_c, 0, 52, 0
1, 25795, Note_on_c, 0, 77, 107
1, 25795, Note_on_c, 0, 74, 90
1, 25795, Note_on_c, 0, 65, 95
1, 25795, Note_on_c, 0, 69, 76
1, 25800, Note_on_c, 0, 53, 110
1, 25803, Note_on_c, 0, 41, 97
1, 25881, Control_c, 0, 64, 0
1, 26001, Note_on_c, 0, 77, 0
1, 26009, Note_on_c, 0, 69, 0
1, 26024, Note_on_c, 0, 74, 0
1, 26037, Control_c, 0, 64, 127
1, 26043, Note_on_c, 0, 65, 0
1, 26069, Note_on_c, 0, 41, 0
1, 26079, Note_on_c, 0, 53, 0
1, 26169, Note_on_c, 0, 74, 110
1, 26172, Note_on_c, 0, 65, 93
1, 26172, Note_on_c, 0, 69, 88
1, 26180, Control_c, 0, 64, 0
1, 26183, Note_on_c, 0, 53, 113
1, 26186, Note_on_c, 0, 41, 97
1, 26293, Note_on_c, 0, 65, 0
1, 26300, Note_on_c, 0, 53, 0
1, 26300, Note_on_c, 0, 69, 0
1, 26311, Control_c, 0, 64, 127
1, 26364, Note_on_c, 0, 41, 0
1, 26436, Note_on_c, 0, 64, 63
1, 26441, Note_on_c, 0, 74, 0
1, 26495, Note_on_c, 0, 67, 83
1, 26539, Note_on_c, 0, 55, 103
1, 26545, Note_on_c, 0, 43, 94
1, 26555, Note_on_c, 0, 72, 101
1, 26564, Control_c, 0, 64, 0
1, 26614, Note_on_c, 0, 67, 0
1, 26651, Note_on_c, 0, 74, 98
1, 26692, Note_on_c, 0, 72, 0
1, 26695, Note_on_c, 0, 64, 0
1, 26718, Control_c, 0, 64, 127
1, 26729, Note_on_c, 0, 74, 0
1, 26732, Note_on_c, 0, 72, 88
1, 26804, Note_on_c, 0, 74, 78
1, 26817, Note_on_c, 0, 72, 0
1, 26860, Note_on_c, 0, 72, 87
1, 26888, Note_on_c, 0, 74, 0
1, 26932, Note_on_c, 0, 74, 94
1, 26940, Note_on_c, 0, 72, 0
1, 26973, Note_on_c, 0, 43, 0
1, 26991, Note_on_c, 0, 72, 72
1, 27010, Note_on_c, 0, 55, 0
1, 27057, Note_on_c, 0, 71, 100
1, 27065, Note_on_c, 0, 74, 0
1, 27087, Note_on_c, 0, 72, 0
1, 27132, Note_on_c, 0, 72, 88
1, 27207, Note_on_c, 0, 71, 0
1, 27211, Note_on_c, 0, 74, 115
1, 27211, Note_on_c, 0, 55, 92
1, 27211, Note_on_c, 0, 43, 87
1, 27218, Note_on_c, 0, 65, 94
1, 27218, Note_on_c, 0, 67, 96
1, 27222, Control_c, 0, 64, 0
1, 27275, Note_on_c, 0, 72, 0
1, 27370, Note_on_c, 0, 67, 0
1, 27378, Note_on_c, 0, 43, 0
1, 27378, Control_c, 0, 64, 127
1, 27389, Note_on_c, 0, 55, 0
1, 27392, Note_on_c, 0, 65, 0
1, 27445, Note_on_c, 0, 74, 0
1, 27553, Note_on_c, 0, 67, 101
1, 27553, Note_on_c, 0, 65, 97
1, 27559, Note_on_c, 0, 55, 95
1, 27562, Note_on_c, 0, 43, 86
1, 27639, Note_on_c, 0, 55, 0
1, 27678, Note_on_c, 0, 67, 0
1, 27681, Note_on_c, 0, 43, 0
1, 27709, Note_on_c, 0, 65, 0
1, 27801, Note_on_c, 0, 74, 85
1, 27834, Note_on_c, 0, 74, 0
1, 27870, Control_c, 0, 64, 0
1, 27895, Note_on_c, 0, 76, 111
1, 27898, Note_on_c, 0, 67, 95
1, 27906, Note_on_c, 0, 64, 104
1, 27906, Note_on_c, 0, 48, 98
1, 27910, Note_on_c, 0, 36, 96
1, 28015, Note_on_c, 0, 36, 0
1, 28057, Note_on_c, 0, 48, 0
1, 28057, Control_c, 0, 64, 127
1, 28062, Note_on_c, 0, 76, 0
1, 28083, Note_on_c, 0, 67, 0
1, 28116, Note_on_c, 0, 64, 0
1, 28239, Note_on_c, 0, 60, 84
1, 28246, Note_on_c, 0, 48, 74
1, 28325, Note_on_c, 0, 60, 0
1, 28364, Note_on_c, 0, 48, 0
1, 28405, Note_on_c, 0, 64, 97
1, 28405, Note_on_c, 0, 52, 105
1, 28536, Note_on_c, 0, 64, 0
1, 28553, Note_on_c, 0, 52, 0
1, 28569, Note_on_c, 0, 67, 95
1, 28569, Note_on_c, 0, 55, 101
1, 28612, Note_on_c, 0, 67, 0
1, 28684, Note_on_c, 0, 55, 0
1, 28717, Note_on_c, 0, 60, 91
1, 28717, Note_on_c, 0, 72, 94
1, 28813, Note_on_c, 0, 72, 0
1, 28829, Note_on_c, 0, 60, 0
1, 28871, Note_on_c, 0, 76, 95
1, 28874, Note_on_c, 0, 64, 106
1, 28932, Note_on_c, 0, 64, 0
1, 28957, Note_on_c, 0, 76, 0
1, 29032, Note_on_c, 0, 79, 115
1, 29032, Note_on_c, 0, 67, 108
1, 29063, Note_on_c, 0, 67, 0
1, 29093, Note_on_c, 0, 79, 0
1, 29269, Note_on_c, 0, 84, 116
1, 29269, Note_on_c, 0, 72, 111
1, 29272, Note_on_c, 0, 78, 98
1, 29275, Note_on_c, 0, 76, 97
1, 29275, Note_on_c, 0, 45, 100
1, 29280, Note_on_c, 0, 33, 106
1, 29308, Control_c, 0, 64, 0
1, 29728, Control_c, 0, 64, 127
1, 29784, Note_on_c, 0, 84, 0
1, 29806, Note_on_c, 0, 78, 0
1, 29809, Note_on_c, 0, 76, 0
1, 29823, Note_on_c, 0, 33, 0
1, 29842, Note_on_c, 0, 72, 0
1, 29863, Note_on_c, 0, 45, 0
1, 29966, Note_on_c, 0, 83, 126
1, 29971, Note_on_c, 0, 71, 112
1, 29971, Note_on_c, 0, 75, 93
1, 29974, Note_on_c, 0, 47, 104
1, 29974, Note_on_c, 0, 69, 100
1, 29974, Note_on_c, 0, 35, 107
1, 29974, Note_on_c, 0, 78, 91
1, 30063, Control_c, 0, 64, 0
1, 30327, Control_c, 0, 64, 127
1, 30344, Note_on_c, 0, 83, 0
1, 30350, Note_on_c, 0, 78, 0
1, 30364, Note_on_c, 0, 35, 0
1, 30372, Note_on_c, 0, 47, 0
1, 30372, Note_on_c, 0, 75, 0
1, 30391, Note_on_c, 0, 71, 0
1, 30391, Note_on_c, 0, 69, 0
1, 30540, Note_on_c, 0, 78, 103
1, 30540, Note_on_c, 0, 47, 103
1, 30545, Note_on_c, 0, 75, 91
1, 30545, Note_on_c, 0, 71, 103
1, 30545, Note_on_c, 0, 35, 105
1, 30545, Note_on_c, 0, 69, 90
1, 30575, Note_on_c, 0, 35, 0
1, 30611, Note_on_c, 0, 47, 0
1, 30618, Note_on_c, 0, 71, 0
1, 30631, Note_on_c, 0, 75, 0
1, 30637, Note_on_c, 0, 69, 0
1, 30650, Control_c, 0, 64, 0
1, 30659, Note_on_c, 0, 78, 0
1, 30681, Note_on_c, 0, 75, 90
1, 30681, Note_on_c, 0, 52, 115
1, 30681, Note_on_c, 0, 71, 112
1, 30685, Note_on_c, 0, 69, 88
1, 30685, Note_on_c, 0, 81, 108
1, 30685, Note_on_c, 0, 40, 112
1, 30685, Note_on_c, 0, 78, 99
1, 30890, Control_c, 0, 64, 127
1, 30905, Note_on_c, 0, 78, 0
1, 30910, Note_on_c, 0, 81, 0
1, 30923, Note_on_c, 0, 75, 0
1, 30934, Note_on_c, 0, 71, 0
1, 30940, Note_on_c, 0, 69, 0
1, 31049, Note_on_c, 0, 79, 109
1, 31049, Note_on_c, 0, 76, 93
1, 31053, Note_on_c, 0, 67, 97
1, 31081, Control_c, 0, 64, 0
1, 31211, Note_on_c, 0, 79, 0
1, 31221, Note_on_c, 0, 76, 0
1, 31225, Control_c, 0, 64, 127
1, 31256, Note_on_c, 0, 40, 0
1, 31278, Note_on_c, 0, 67, 0
1, 31289, Note_on_c, 0, 52, 0
1, 31369, Control_c, 0, 64, 0
1, 31380, Note_on_c, 0, 77, 105
1, 31383, Note_on_c, 0, 74, 96
1, 31383, Note_on_c, 0, 65, 100
1, 31383, Note_on_c, 0, 69, 77
1, 31392, Note_on_c, 0, 53, 111
1, 31392, Note_on_c, 0, 41, 96
1, 31495, Note_on_c, 0, 65, 0
1, 31511, Note_on_c, 0, 77, 0
1, 31511, Note_on_c, 0, 53, 0
1, 31511, Note_on_c, 0, 41, 0
1, 31537, Note_on_c, 0, 74, 0
1, 31537, Control_c, 0, 64, 127
1, 31544, Note_on_c, 0, 69, 0
1, 31721, Note_on_c, 0, 74, 107
1, 31729, Note_on_c, 0, 53, 111
1, 31729, Note_on_c, 0, 65, 93
1, 31732, Note_on_c, 0, 69, 80
1, 31735, Note_on_c, 0, 41, 98
1, 31773, Note_on_c, 0, 41, 0
1, 31773, Note_on_c, 0, 65, 0
1, 31779, Note_on_c, 0, 69, 0
1, 31779, Note_on_c, 0, 53, 0
1, 31852, Note_on_c, 0, 74, 0
1, 31957, Note_on_c, 0, 64, 68
1, 32016, Note_on_c, 0, 67, 84
1, 32047, Note_on_c, 0, 64, 0
1, 32052, Control_c, 0, 64, 0
1, 32085, Note_on_c, 0, 43, 106
1, 32089, Note_on_c, 0, 31, 108
1, 32093, Note_on_c, 0, 72, 101
1, 32152, Note_on_c, 0, 67, 0
1, 32194, Note_on_c, 0, 74, 88
1, 32194, Control_c, 0, 64, 127
1, 32214, Note_on_c, 0, 31, 0
1, 32225, Note_on_c, 0, 72, 0
1, 32225, Note_on_c, 0, 43, 0
1, 32231, Note_on_c, 0, 74, 0
1, 32266, Note_on_c, 0, 72, 89
1, 32342, Note_on_c, 0, 74, 82
1, 32346, Note_on_c, 0, 72, 0
1, 32383, Note_on_c, 0, 74, 0
1, 32394, Note_on_c, 0, 72, 82
1, 32458, Note_on_c, 0, 72, 0
1, 32464, Note_on_c, 0, 74, 84
1, 32514, Note_on_c, 0, 72, 74
1, 32545, Note_on_c, 0, 74, 0
1, 32561, Note_on_c, 0, 72, 0
1, 32587, Note_on_c, 0, 74, 84
1, 32623, Note_on_c, 0, 72, 70
1, 32667, Note_on_c, 0, 74, 0
1, 32689, Note_on_c, 0, 71, 99
1, 32703, Note_on_c, 0, 72, 0
1, 32752, Note_on_c, 0, 72, 80
1, 32791, Note_on_c, 0, 71, 0
1, 32804, Note_on_c, 0, 76, 109
1, 32804, Note_on_c, 0, 55, 108
1, 32810, Note_on_c, 0, 43, 90
1, 32820, Control_c, 0, 64, 0
1, 32824, Note_on_c, 0, 52, 87
1, 32824, Note_on_c, 0, 48, 57
1, 32868, Note_on_c, 0, 48, 0
1, 32868, Note_on_c, 0, 72, 0
1, 32874, Note_on_c, 0, 52, 0
1, 32896, Note_on_c, 0, 55, 0
1, 32904, Note_on_c, 0, 43, 0
1, 32927, Control_c, 0, 64, 127
1, 32993, Note_on_c, 0, 76, 0
1, 33172, Note_on_c, 0, 65, 83
1, 33172, Note_on_c, 0, 74, 106
1, 33172, Note_on_c, 0, 67, 101
1, 33172, Note_on_c, 0, 71, 103
1, 33177, Note_on_c, 0, 43, 95
1, 33177, Note_on_c, 0, 31, 101
1, 33291, Note_on_c, 0, 31, 0
1, 33319, Note_on_c, 0, 71, 0
1, 33341, Note_on_c, 0, 67, 0
1, 33341, Note_on_c, 0, 43, 0
1, 33347, Note_on_c, 0, 65, 0
1, 33384, Note_on_c, 0, 74, 0
1, 33500, Note_on_c, 0, 76, 90
1, 33550, Control_c, 0, 64, 0
1, 33595, Note_on_c, 0, 71, 104
1, 33595, Note_on_c, 0, 74, 109
1, 33595, Note_on_c, 0, 67, 97
1, 33595, Note_on_c, 0, 43, 104
1, 33600, Note_on_c, 0, 65, 102
1, 33600, Note_on_c, 0, 31, 103
1, 33662, Note_on_c, 0, 76, 0
1, 33958, Note_on_c, 0, 67, 0
1, 33982, Control_c, 0, 64, 127
1, 34007, Note_on_c, 0, 65, 0
1, 34007, Note_on_c, 0, 31, 0
1, 34114, Note_on_c, 0, 71, 0
1, 34177, Note_on_c, 0, 43, 0
1, 34394, Note_on_c, 0, 72, 99
1, 34394, Note_on_c, 0, 64, 96
1, 34398, Note_on_c, 0, 67, 90
1, 34398, Note_on_c, 0, 36, 84
1, 34398, Note_on_c, 0, 48, 75
1, 34401, Control_c, 0, 64, 0
1, 34444, Note_on_c, 0, 74, 0
1, 34489, Note_on_c, 0, 36, 0
1, 34520, Note_on_c, 0, 48, 0
1, 34532, Control_c, 0, 64, 127
1, 34676, Note_on_c, 0, 67, 0
1, 34681, Note_on_c, 0, 64, 0
1, 34798, Note_on_c, 0, 60, 86
1, 34838, Note_on_c, 0, 72, 0
1, 34848, Note_on_c, 0, 60, 0
1, 34910, Note_on_c, 0, 60, 88
1, 34983, Note_on_c, 0, 60, 0
1, 35024, Note_on_c, 0, 60, 100
1, 35066, Note_on_c, 0, 60, 0
1, 35192, Control_c, 0, 64, 0
1, 35192, Note_on_c, 0, 72, 107
1, 35192, Note_on_c, 0, 60, 107
1, 35192, Note_on_c, 0, 48, 97
1, 35197, Note_on_c, 0, 64, 103
1, 35197, Note_on_c, 0, 36, 98
1, 35197, Note_on_c, 0, 67, 97
1, 35612, Control_c, 0, 64, 127
1, 35653, Note_on_c, 0, 36, 0
1, 35670, Note_on_c, 0, 64, 0
1, 35677, Note_on_c, 0, 67, 0
1, 35695, Note_on_c, 0, 72, 0
1, 35695, Note_on_c, 0, 48, 0
1, 35716, Note_on_c, 0, 60, 0
1, 35899, Note_on_c, 0, 72, 106
1, 35899, Note_on_c, 0, 60, 106
1, 35904, Note_on_c, 0, 64, 102
1, 35904, Note_on_c, 0, 67, 98
1, 35908, Note_on_c, 0, 48, 88
1, 35911, Note_on_c, 0, 36, 93
1, 35947, Control_c, 0, 64, 0
1, 36078, Control_c, 0, 64, 127
1, 36138, Note_on_c, 0, 64, 0
1, 36149, Note_on_c, 0, 60, 0
1, 36155, Note_on_c, 0, 67, 0
1, 36184, Note_on_c, 0, 36, 0
1, 36191, Note_on_c, 0, 48, 0
1, 36195, Note_on_c, 0, 72, 0
1, 36414, Note_on_c, 0, 72, 94
1, 36417, Note_on_c, 0, 36, 81
1, 36417, Note_on_c, 0, 64, 94
1, 36417, Note_on_c, 0, 48, 54
1, 36417, Note_on_c, 0, 67, 89
1, 36447, Note_on_c, 0, 36, 0
1, 36461, Note_on_c, 0, 48, 0
1, 36461, Note_on_c, 0, 64, 0
1, 36484, Note_on_c, 0, 67, 0
1, 36504, Note_on_c, 0, 72, 0
1, 36604, Note_on_c, 0, 72, 97
1, 36604, Note_on_c, 0, 76, 101
1, 36604, Note_on_c, 0, 64, 104
1, 36604, Note_on_c, 0, 67, 95
1, 36612, Note_on_c, 0, 31, 100
1, 36612, Note_on_c, 0, 43, 91
1, 36826, Note_on_c, 0, 76, 0
1, 36844, Note_on_c, 0, 64, 0
1, 36872, Note_on_c, 0, 67, 0
1, 36918, Control_c, 0, 64, 0
1, 36944, Note_on_c, 0, 72, 0
1, 36969, Note_on_c, 0, 74, 100
1, 36972, Note_on_c, 0, 65, 98
1, 36972, Note_on_c, 0, 71, 90
1, 37103, Note_on_c, 0, 74, 0
1, 37103, Control_c, 0, 64, 127
1, 37116, Note_on_c, 0, 71, 0
1, 37160, Note_on_c, 0, 65, 0
1, 37266, Control_c, 0, 64, 0
1, 37317, Note_on_c, 0, 71, 104
1, 37320, Note_on_c, 0, 62, 89
1, 37333, Note_on_c, 0, 65, 67
1, 37422, Note_on_c, 0, 65, 0
1, 37422, Control_c, 0, 64, 127
1, 37431, Note_on_c, 0, 43, 0
1, 37434, Note_on_c, 0, 62, 0
1, 37437, Note_on_c, 0, 31, 0
1, 37443, Note_on_c, 0, 71, 0
1, 37613, Control_c, 0, 64, 0
1, 37657, Note_on_c, 0, 67, 97
1, 37660, Note_on_c, 0, 59, 93
1, 37663, Note_on_c, 0, 65, 86
1, 37668, Note_on_c, 0, 31, 93
1, 37668, Note_on_c, 0, 43, 90
1, 37702, Note_on_c, 0, 31, 0
1, 37713, Note_on_c, 0, 43, 0
1, 37757, Control_c, 0, 64, 127
1, 37807, Note_on_c, 0, 67, 0
1, 37837, Note_on_c, 0, 59, 0
1, 37851, Note_on_c, 0, 65, 0
1, 38008, Control_c, 0, 64, 0
1, 38008, Note_on_c, 0, 67, 101
1, 38013, Note_on_c, 0, 60, 94
1, 38013, Note_on_c, 0, 64, 95
1, 38017, Note_on_c, 0, 48, 87
1, 38021, Note_on_c, 0, 36, 93
1, 38225, Control_c, 0, 64, 127
1, 38266, Note_on_c, 0, 64, 0
1, 38276, Note_on_c, 0, 48, 0
1, 38276, Note_on_c, 0, 36, 0
1, 38303, Note_on_c, 0, 67, 0
1, 38308, Note_on_c, 0, 60, 0
1, 38401, Note_on_c, 0, 48, 90
1, 38411, Note_on_c, 0, 36, 90
1, 38493, Note_on_c, 0, 36, 0
1, 38524, Note_on_c, 0, 48, 0
1, 38567, Note_on_c, 0, 72, 95
1, 38570, Note_on_c, 0, 60, 91
1, 38570, Note_on_c, 0, 67, 81
1, 38574, Note_on_c, 0, 64, 84
1, 38673, Note_on_c, 0, 60, 0
1, 38679, Note_on_c, 0, 64, 0
1, 38682, Note_on_c, 0, 67, 0
1, 38688, Note_on_c, 0, 72, 0
1, 38715, Control_c, 0, 64, 0
1, 38743, Note_on_c, 0, 67, 75
1, 38743, Note_on_c, 0, 72, 87
1, 38748, Note_on_c, 0, 64, 76
1, 38751, Note_on_c, 0, 60, 88
1, 38758, Note_on_c, 0, 52, 100
1, 38765, Note_on_c, 0, 40, 98
1, 38896, Control_c, 0, 64, 127
1, 38908, Note_on_c, 0, 52, 0
1, 38922, Note_on_c, 0, 40, 0
1, 38946, Note_on_c, 0, 64, 0
1, 38955, Note_on_c, 0, 60, 0
1, 38972, Note_on_c, 0, 67, 0
1, 39025, Note_on_c, 0, 72, 0
1, 39113, Note_on_c, 0, 48, 94
1, 39113, Note_on_c, 0, 36, 96
1, 39211, Note_on_c, 0, 48, 0
1, 39219, Note_on_c, 0, 36, 0
1, 39281, Note_on_c, 0, 76, 96
1, 39285, Note_on_c, 0, 64, 94
1, 39285, Note_on_c, 0, 67, 86
1, 39285, Note_on_c, 0, 72, 73
1, 39373, Note_on_c, 0, 64, 0
1, 39378, Note_on_c, 0, 67, 0
1, 39387, Note_on_c, 0, 76, 0
1, 39417, Note_on_c, 0, 72, 0
1, 39423, Control_c, 0, 64, 0
1, 39453, Note_on_c, 0, 76, 83
1, 39453, Note_on_c, 0, 67, 76
1, 39460, Note_on_c, 0, 64, 98
1, 39460, Note_on_c, 0, 72, 94
1, 39460, Note_on_c, 0, 43, 97
1, 39464, Note_on_c, 0, 31, 97
1, 39615, Control_c, 0, 64, 127
1, 39621, Note_on_c, 0, 76, 0
1, 39631, Note_on_c, 0, 72, 0
1, 39643, Note_on_c, 0, 64, 0
1, 39758, Control_c, 0, 64, 0
1, 39787, Note_on_c, 0, 67, 0
1, 39808, Note_on_c, 0, 74, 100
1, 39811, Note_on_c, 0, 65, 94
1, 39815, Note_on_c, 0, 71, 95
1, 39914, Control_c, 0, 64, 127
1, 39936, Note_on_c, 0, 74, 0
1, 39966, Note_on_c, 0, 71, 0
1, 39978, Note_on_c, 0, 65, 0
1, 40119, Control_c, 0, 64, 0
1, 40172, Note_on_c, 0, 71, 103
1, 40177, Note_on_c, 0, 62, 94
1, 40183, Note_on_c, 0, 65, 82
1, 40211, Note_on_c, 0, 31, 0
1, 40250, Control_c, 0, 64, 127
1, 40256, Note_on_c, 0, 43, 0
1, 40278, Note_on_c, 0, 62, 0
1, 40281, Note_on_c, 0, 65, 0
1, 40289, Note_on_c, 0, 71, 0
1, 40513, Control_c, 0, 64, 0
1, 40521, Note_on_c, 0, 67, 94
1, 40526, Note_on_c, 0, 59, 86
1, 40529, Note_on_c, 0, 65, 81
1, 40534, Note_on_c, 0, 55, 83
1, 40538, Note_on_c, 0, 43, 75
1, 40666, Note_on_c, 0, 43, 0
1, 40669, Note_on_c, 0, 59, 0
1, 40669, Control_c, 0, 64, 127
1, 40690, Note_on_c, 0, 67, 0
1, 40708, Note_on_c, 0, 55, 0
1, 40811, Note_on_c, 0, 65, 0
1, 40825, Control_c, 0, 64, 0
1, 40883, Note_on_c, 0, 67, 98
1, 40883, Note_on_c, 0, 64, 97
1, 40897, Note_on_c, 0, 60, 102
1, 40902, Note_on_c, 0, 48, 85
1, 41013, Note_on_c, 0, 60, 0
1, 41017, Control_c, 0, 64, 127
1, 41035, Note_on_c, 0, 48, 0
1, 41072, Note_on_c, 0, 64, 0
1, 41089, Note_on_c, 0, 67, 0
1, 41255, Note_on_c, 0, 55, 104
1, 41264, Note_on_c, 0, 43, 91
1, 41381, Note_on_c, 0, 55, 0
1, 41398, Note_on_c, 0, 43, 0
1, 41415, Note_on_c, 0, 76, 94
1, 41415, Note_on_c, 0, 72, 80
1, 41418, Note_on_c, 0, 64, 92
1, 41418, Note_on_c, 0, 67, 83
1, 41513, Note_on_c, 0, 64, 0
1, 41520, Note_on_c, 0, 76, 0
1, 41524, Note_on_c, 0, 67, 0
1, 41548, Note_on_c, 0, 72, 0
1, 41591, Note_on_c, 0, 67, 82
1, 41591, Note_on_c, 0, 72, 90
1, 41594, Note_on_c, 0, 76, 87
1, 41594, Note_on_c, 0, 64, 99
1, 41599, Note_on_c, 0, 52, 108
1, 41606, Note_on_c, 0, 40, 104
1, 41685, Note_on_c, 0, 52, 0
1, 41698, Note_on_c, 0, 40, 0
1, 41712, Note_on_c, 0, 64, 0
1, 41732, Note_on_c, 0, 67, 0
1, 41772, Note_on_c, 0, 72, 0
1, 41804, Note_on_c, 0, 76, 0
1, 41958, Note_on_c, 0, 48, 101
1, 41963, Note_on_c, 0, 36, 102
1, 42050, Note_on_c, 0, 48, 0
1, 42092, Note_on_c, 0, 36, 0
1, 42150, Note_on_c, 0, 79, 104
1, 42153, Note_on_c, 0, 76, 86
1, 42153, Note_on_c, 0, 67, 100
1, 42158, Note_on_c, 0, 72, 84
1, 42268, Note_on_c, 0, 67, 0
1, 42276, Note_on_c, 0, 72, 0
1, 42290, Note_on_c, 0, 79, 0
1, 42295, Note_on_c, 0, 76, 0
1, 42357, Note_on_c, 0, 79, 101
1, 42360, Note_on_c, 0, 69, 101
1, 42360, Note_on_c, 0, 76, 92
1, 42365, Note_on_c, 0, 72, 101
1, 42368, Note_on_c, 0, 41, 111
1, 42368, Note_on_c, 0, 29, 109
1, 42502, Control_c, 0, 64, 0
1, 42850, Control_c, 0, 64, 127
1, 42999, Note_on_c, 0, 79, 0
1, 43005, Note_on_c, 0, 72, 0
1, 43028, Note_on_c, 0, 69, 0
1, 43100, Note_on_c, 0, 76, 0
1, 43100, Note_on_c, 0, 29, 0
1, 43130, Note_on_c, 0, 77, 103
1, 43130, Note_on_c, 0, 74, 101
1, 43133, Note_on_c, 0, 69, 91
1, 43156, Note_on_c, 0, 41, 0
1, 43273, Note_on_c, 0, 69, 0
1, 43284, Note_on_c, 0, 74, 0
1, 43350, Note_on_c, 0, 77, 0
1, 43504, Note_on_c, 0, 76, 100
1, 43504, Note_on_c, 0, 69, 90
1, 43504, Note_on_c, 0, 72, 93
1, 43509, Note_on_c, 0, 64, 100
1, 43512, Note_on_c, 0, 57, 70
1, 43512, Note_on_c, 0, 60, 79
1, 43512, Note_on_c, 0, 53, 87
1, 43651, Note_on_c, 0, 57, 0
1, 43655, Note_on_c, 0, 53, 0
1, 43671, Note_on_c, 0, 60, 0
1, 43676, Note_on_c, 0, 72, 0
1, 43680, Note_on_c, 0, 64, 0
1, 43696, Note_on_c, 0, 76, 0
1, 43699, Note_on_c, 0, 69, 0
1, 43846, Control_c, 0, 64, 0
1, 43874, Note_on_c, 0, 74, 108
1, 43877, Note_on_c, 0, 69, 94
1, 43877, Note_on_c, 0, 72, 100
1, 43882, Note_on_c, 0, 62, 100
1, 43882, Note_on_c, 0, 53, 95
1, 43882, Note_on_c, 0, 60, 84
1, 43885, Note_on_c, 0, 57, 78
1, 43980, Note_on_c, 0, 60, 0
1, 43983, Note_on_c, 0, 57, 0
1, 44002, Note_on_c, 0, 62, 0
1, 44013, Control_c, 0, 64, 127
1, 44016, Note_on_c, 0, 53, 0
1, 44066, Note_on_c, 0, 72, 0
1, 44072, Note_on_c, 0, 69, 0
1, 44087, Note_on_c, 0, 74, 0
1, 44239, Note_on_c, 0, 73, 99
1, 44243, Note_on_c, 0, 69, 89
1, 44243, Note_on_c, 0, 53, 116
1, 44248, Note_on_c, 0, 41, 97
1, 44253, Control_c, 0, 64, 0
1, 44384, Control_c, 0, 64, 127
1, 44401, Note_on_c, 0, 69, 0
1, 44449, Note_on_c, 0, 41, 0
1, 44449, Note_on_c, 0, 53, 0
1, 44463, Note_on_c, 0, 73, 0
1, 44526, Note_on_c, 0, 76, 67
1, 44526, Control_c, 0, 64, 0
1, 44594, Note_on_c, 0, 72, 100
1, 44597, Note_on_c, 0, 74, 104
1, 44597, Note_on_c, 0, 69, 84
1, 44604, Note_on_c, 0, 54, 103
1, 44610, Note_on_c, 0, 42, 86
1, 44641, Note_on_c, 0, 76, 0
1, 44672, Note_on_c, 0, 72, 0
1, 44683, Control_c, 0, 64, 127
1, 44686, Note_on_c, 0, 54, 0
1, 44690, Note_on_c, 0, 74, 0
1, 44690, Note_on_c, 0, 42, 0
1, 44697, Note_on_c, 0, 69, 0
1, 44939, Note_on_c, 0, 69, 93
1, 44939, Note_on_c, 0, 62, 91
1, 44939, Note_on_c, 0, 60, 94
1, 44945, Note_on_c, 0, 42, 91
1, 44945, Note_on_c, 0, 30, 87
1, 45047, Note_on_c, 0, 30, 0
1, 45047, Note_on_c, 0, 42, 0
1, 45080, Note_on_c, 0, 62, 0
1, 45087, Note_on_c, 0, 60, 0
1, 45087, Note_on_c, 0, 69, 0
1, 45189, Note_on_c, 0, 72, 60
1, 45228, Note_on_c, 0, 72, 0
1, 45271, Control_c, 0, 64, 0
1, 45320, Note_on_c, 0, 67, 90
1, 45323, Note_on_c, 0, 71, 113
1, 45323, Note_on_c, 0, 59, 106
1, 45326, Note_on_c, 0, 62, 88
1, 45329, Note_on_c, 0, 31, 108
1, 45329, Note_on_c, 0, 43, 107
1, 45365, Note_on_c, 0, 31, 0
1, 45388, Note_on_c, 0, 43, 0
1, 45445, Note_on_c, 0, 59, 0
1, 45476, Note_on_c, 0, 62, 0
1, 45476, Control_c, 0, 64, 127
1, 45513, Note_on_c, 0, 67, 0
1, 45538, Note_on_c, 0, 71, 0
1, 45798, Note_on_c, 0, 79, 109
1, 45798, Note_on_c, 0, 67, 100
1, 45993, Control_c, 0, 64, 127
1, 46074, Note_on_c, 0, 67, 0
1, 46088, Note_on_c, 0, 79, 0
1, 46172, Note_on_c, 0, 81, 110
1, 46172, Note_on_c, 0, 69, 92
1, 46233, Control_c, 0, 64, 0
1, 46413, Control_c, 0, 64, 127
1, 46466, Note_on_c, 0, 69, 0
1, 46503, Note_on_c, 0, 81, 0
1, 46567, Note_on_c, 0, 83, 126
1, 46570, Note_on_c, 0, 71, 111
1, 46824, Note_on_c, 0, 71, 0
1, 46848, Note_on_c, 0, 83, 0
1, 47009, Note_on_c, 0, 84, 115
1, 47009, Note_on_c, 0, 78, 99
1, 47009, Note_on_c, 0, 76, 95
1, 47009, Note_on_c, 0, 72, 109
1, 47024, Note_on_c, 0, 45, 95
1, 47024, Note_on_c, 0, 33, 98
1, 47049, Control_c, 0, 64, 0
1, 47539, Control_c, 0, 64, 127
1, 47572, Note_on_c, 0, 72, 0
1, 47575, Note_on_c, 0, 84, 0
1, 47611, Note_on_c, 0, 78, 0
1, 47611, Note_on_c, 0, 76, 0
1, 47623, Note_on_c, 0, 33, 0
1, 47673, Note_on_c, 0, 45, 0
1, 47803, Note_on_c, 0, 83, 125
1, 47803, Note_on_c, 0, 71, 111
1, 47807, Note_on_c, 0, 78, 94
1, 47807, Note_on_c, 0, 69, 94
1, 47807, Note_on_c, 0, 75, 89
1, 47810, Note_on_c, 0, 47, 95
1, 47814, Note_on_c, 0, 35, 98
1, 47828, Control_c, 0, 64, 0
1, 48115, Control_c, 0, 64, 127
1, 48158, Note_on_c, 0, 78, 0
1, 48158, Note_on_c, 0, 83, 0
1, 48162, Note_on_c, 0, 35, 0
1, 48166, Note_on_c, 0, 75, 0
1, 48211, Note_on_c, 0, 71, 0
1, 48211, Note_on_c, 0, 69, 0
1, 48222, Note_on_c, 0, 47, 0
1, 48389, Note_on_c, 0, 78, 103
1, 48392, Note_on_c, 0, 75, 93
1, 48392, Note_on_c, 0, 69, 88
1, 48395, Note_on_c, 0, 35, 103
1, 48395, Note_on_c, 0, 71, 102
1, 48395, Note_on_c, 0, 47, 90
1, 48425, Note_on_c, 0, 35, 0
1, 48475, Note_on_c, 0, 47, 0
1, 48500, Note_on_c, 0, 69, 0
1, 48500, Note_on_c, 0, 71, 0
1, 48511, Note_on_c, 0, 75, 0
1, 48511, Control_c, 0, 64, 0
1, 48530, Note_on_c, 0, 78, 0
1, 48547, Note_on_c, 0, 69, 82
1, 48547, Note_on_c, 0, 71, 103
1, 48551, Note_on_c, 0, 75, 98
1, 48551, Note_on_c, 0, 81, 106
1, 48555, Note_on_c, 0, 52, 109
1, 48555, Note_on_c, 0, 78, 84
1, 48558, Note_on_c, 0, 40, 111
1, 48750, Control_c, 0, 64, 127
1, 48756, Note_on_c, 0, 75, 0
1, 48764, Note_on_c, 0, 78, 0
1, 48779, Note_on_c, 0, 81, 0
1, 48790, Note_on_c, 0, 71, 0
1, 48795, Note_on_c, 0, 69, 0
1, 48909, Note_on_c, 0, 76, 91
1, 48909, Note_on_c, 0, 79, 109
1, 48909, Note_on_c, 0, 67, 100
1, 48930, Control_c, 0, 64, 0
1, 49076, Note_on_c, 0, 79, 0
1, 49076, Note_on_c, 0, 76, 0
1, 49086, Control_c, 0, 64, 127
1, 49105, Note_on_c, 0, 40, 0
1, 49146, Note_on_c, 0, 67, 0
1, 49193, Note_on_c, 0, 52, 0
1, 49263, Note_on_c, 0, 77, 104
1, 49263, Note_on_c, 0, 65, 94
1, 49263, Note_on_c, 0, 74, 94
1, 49263, Note_on_c, 0, 69, 79
1, 49268, Control_c, 0, 64, 0
1, 49275, Note_on_c, 0, 53, 106
1, 49278, Note_on_c, 0, 41, 89
1, 49383, Note_on_c, 0, 53, 0
1, 49398, Note_on_c, 0, 65, 0
1, 49398, Note_on_c, 0, 77, 0
1, 49406, Note_on_c, 0, 41, 0
1, 49420, Note_on_c, 0, 69, 0
1, 49420, Note_on_c, 0, 74, 0
1, 49420, Control_c, 0, 64, 127
1, 49530, Control_c, 0, 64, 0
1, 49612, Note_on_c, 0, 74, 106
1, 49617, Note_on_c, 0, 69, 85
1, 49617, Note_on_c, 0, 65, 94
1, 49620, Note_on_c, 0, 53, 109
1, 49625, Note_on_c, 0, 41, 95
1, 49668, Note_on_c, 0, 53, 0
1, 49700, Note_on_c, 0, 41, 0
1, 49703, Note_on_c, 0, 65, 0
1, 49709, Control_c, 0, 64, 127
1, 49720, Note_on_c, 0, 69, 0
1, 49804, Note_on_c, 0, 74, 0
1, 49829, Control_c, 0, 64, 0
1, 49842, Note_on_c, 0, 64, 78
1, 49901, Note_on_c, 0, 67, 89
1, 49937, Note_on_c, 0, 64, 0
1, 49962, Note_on_c, 0, 43, 95
1, 49962, Note_on_c, 0, 31, 100
1, 49966, Note_on_c, 0, 72, 97
1, 50021, Note_on_c, 0, 67, 0
1, 50021, Control_c, 0, 64, 127
1, 50052, Note_on_c, 0, 74, 89
1, 50079, Note_on_c, 0, 31, 0
1, 50085, Note_on_c, 0, 72, 0
1, 50094, Note_on_c, 0, 43, 0
1, 50094, Note_on_c, 0, 74, 0
1, 50122, Note_on_c, 0, 72, 96
1, 50207, Note_on_c, 0, 74, 77
1, 50219, Note_on_c, 0, 72, 0
1, 50244, Note_on_c, 0, 74, 0
1, 50261, Note_on_c, 0, 72, 85
1, 50316, Note_on_c, 0, 72, 0
1, 50316, Note_on_c, 0, 74, 83
1, 50389, Note_on_c, 0, 72, 74
1, 50422, Note_on_c, 0, 74, 0
1, 50472, Note_on_c, 0, 71, 96
1, 50490, Note_on_c, 0, 72, 0
1, 50553, Note_on_c, 0, 72, 87
1, 50579, Note_on_c, 0, 71, 0
1, 50632, Control_c, 0, 64, 0
1, 50640, Note_on_c, 0, 55, 94
1, 50643, Note_on_c, 0, 43, 83
1, 50646, Note_on_c, 0, 74, 111
1, 50651, Note_on_c, 0, 65, 98
1, 50656, Note_on_c, 0, 67, 92
1, 50701, Note_on_c, 0, 72, 0
1, 50813, Note_on_c, 0, 67, 0
1, 50835, Control_c, 0, 64, 127
1, 50841, Note_on_c, 0, 65, 0
1, 50865, Note_on_c, 0, 55, 0
1, 50865, Note_on_c, 0, 43, 0
1, 50898, Note_on_c, 0, 74, 0
1, 50943, Control_c, 0, 64, 0
1, 50980, Note_on_c, 0, 67, 103
1, 50988, Note_on_c, 0, 65, 93
1, 51001, Note_on_c, 0, 55, 89
1, 51004, Note_on_c, 0, 43, 83
1, 51082, Note_on_c, 0, 55, 0
1, 51111, Control_c, 0, 64, 127
1, 51124, Note_on_c, 0, 43, 0
1, 51156, Note_on_c, 0, 67, 0
1, 51166, Note_on_c, 0, 65, 0
1, 51217, Note_on_c, 0, 74, 93
1, 51255, Control_c, 0, 64, 0
1, 51264, Note_on_c, 0, 74, 0
1, 51316, Note_on_c, 0, 76, 112
1, 51324, Note_on_c, 0, 64, 102
1, 51327, Note_on_c, 0, 48, 86
1, 51327, Note_on_c, 0, 67, 103
1, 51331, Note_on_c, 0, 36, 91
1, 51409, Note_on_c, 0, 36, 0
1, 51441, Note_on_c, 0, 48, 0
1, 51447, Control_c, 0, 64, 127
1, 51461, Note_on_c, 0, 76, 0
1, 51467, Note_on_c, 0, 67, 0
1, 51506, Note_on_c, 0, 64, 0
1, 51645, Note_on_c, 0, 60, 83
1, 51659, Note_on_c, 0, 48, 75
1, 51659, Control_c, 0, 64, 0
1, 51732, Note_on_c, 0, 60, 0
1, 51776, Note_on_c, 0, 48, 0
1, 51807, Note_on_c, 0, 64, 93
1, 51813, Note_on_c, 0, 52, 99
1, 51899, Note_on_c, 0, 64, 0
1, 51915, Note_on_c, 0, 52, 0
1, 51965, Note_on_c, 0, 67, 95
1, 51965, Note_on_c, 0, 55, 100
1, 52001, Note_on_c, 0, 67, 0
1, 52071, Note_on_c, 0, 55, 0
1, 52111, Note_on_c, 0, 72, 96
1, 52119, Note_on_c, 0, 60, 88
1, 52210, Note_on_c, 0, 72, 0
1, 52221, Note_on_c, 0, 60, 0
1, 52261, Note_on_c, 0, 76, 97
1, 52269, Note_on_c, 0, 64, 104
1, 52333, Note_on_c, 0, 64, 0
1, 52359, Note_on_c, 0, 76, 0
1, 52422, Note_on_c, 0, 79, 116
1, 52422, Note_on_c, 0, 67, 101
1, 52461, Note_on_c, 0, 67, 0
1, 52479, Note_on_c, 0, 79, 0
1, 52648, Note_on_c, 0, 84, 116
1, 52648, Note_on_c, 0, 72, 109
1, 52651, Note_on_c, 0, 78, 98
1, 52651, Note_on_c, 0, 76, 97
1, 52660, Note_on_c, 0, 45, 97
1, 52801, Control_c, 0, 64, 127
1, 52818, Note_on_c, 0, 45, 0
1, 53019, Note_on_c, 0, 54, 109
1, 53025, Note_on_c, 0, 42, 87
1, 53122, Note_on_c, 0, 42, 0
1, 53149, Note_on_c, 0, 84, 0
1, 53152, Note_on_c, 0, 54, 0
1, 53157, Note_on_c, 0, 76, 0
1, 53161, Note_on_c, 0, 78, 0
1, 53208, Note_on_c, 0, 72, 0
1, 53316, Control_c, 0, 64, 0
1, 53359, Note_on_c, 0, 83, 127
1, 53364, Note_on_c, 0, 59, 101
1, 53364, Note_on_c, 0, 78, 91
1, 53364, Note_on_c, 0, 71, 110
1, 53364, Note_on_c, 0, 69, 93
1, 53369, Note_on_c, 0, 75, 86
1, 53369, Note_on_c, 0, 47, 88
1, 53487, Note_on_c, 0, 59, 0
1, 53497, Control_c, 0, 64, 127
1, 53525, Note_on_c, 0, 47, 0
1, 53637, Note_on_c, 0, 69, 0
1, 53637, Note_on_c, 0, 71, 0
1, 53640, Note_on_c, 0, 83, 0
1, 53651, Note_on_c, 0, 78, 0
1, 53684, Note_on_c, 0, 75, 0
1, 53729, Note_on_c, 0, 51, 100
1, 53732, Note_on_c, 0, 39, 95
1, 53843, Note_on_c, 0, 51, 0
1, 53851, Note_on_c, 0, 39, 0
1, 53891, Note_on_c, 0, 78, 101
1, 53896, Note_on_c, 0, 71, 97
1, 53896, Note_on_c, 0, 69, 74
1, 53988, Control_c, 0, 64, 0
1, 53997, Note_on_c, 0, 69, 0
1, 53997, Note_on_c, 0, 71, 0
1, 54021, Note_on_c, 0, 78, 0
1, 54066, Note_on_c, 0, 71, 105
1, 54066, Note_on_c, 0, 81, 110
1, 54066, Note_on_c, 0, 69, 84
1, 54066, Note_on_c, 0, 78, 83
1, 54074, Note_on_c, 0, 52, 108
1, 54077, Note_on_c, 0, 40, 112
1, 54178, Note_on_c, 0, 52, 0
1, 54178, Control_c, 0, 64, 127
1, 54199, Note_on_c, 0, 40, 0
1, 54210, Note_on_c, 0, 78, 0
1, 54219, Note_on_c, 0, 81, 0
1, 54247, Note_on_c, 0, 71, 0
1, 54261, Note_on_c, 0, 69, 0
1, 54372, Control_c, 0, 64, 0
1, 54405, Note_on_c, 0, 79, 111
1, 54405, Note_on_c, 0, 70, 87
1, 54405, Note_on_c, 0, 67, 97
1, 54411, Note_on_c, 0, 76, 88
1, 54419, Note_on_c, 0, 49, 91
1, 54426, Note_on_c, 0, 37, 83
1, 54542, Note_on_c, 0, 76, 0
1, 54542, Note_on_c, 0, 79, 0
1, 54562, Control_c, 0, 64, 127
1, 54603, Note_on_c, 0, 49, 0
1, 54603, Note_on_c, 0, 37, 0
1, 54607, Note_on_c, 0, 70, 0
1, 54614, Note_on_c, 0, 67, 0
1, 54695, Control_c, 0, 64, 0
1, 54737, Note_on_c, 0, 77, 104
1, 54737, Note_on_c, 0, 65, 95
1, 54737, Note_on_c, 0, 74, 96
1, 54737, Note_on_c, 0, 69, 78
1, 54746, Note_on_c, 0, 50, 99
1, 54752, Note_on_c, 0, 38, 84
1, 54846, Note_on_c, 0, 50, 0
1, 54874, Control_c, 0, 64, 127
1, 54885, Note_on_c, 0, 77, 0
1, 54885, Note_on_c, 0, 38, 0
1, 54896, Note_on_c, 0, 69, 0
1, 54905, Note_on_c, 0, 74, 0
1, 54926, Note_on_c, 0, 65, 0
1, 55088, Note_on_c, 0, 74, 108
1, 55088, Control_c, 0, 64, 0
1, 55094, Note_on_c, 0, 69, 84
1, 55094, Note_on_c, 0, 65, 95
1, 55099, Note_on_c, 0, 41, 91
1, 55099, Note_on_c, 0, 29, 87
1, 55185, Note_on_c, 0, 29, 0
1, 55222, Note_on_c, 0, 69, 0
1, 55230, Note_on_c, 0, 65, 0
1, 55252, Note_on_c, 0, 41, 0
1, 55258, Control_c, 0, 64, 127
1, 55312, Note_on_c, 0, 64, 82
1, 55331, Note_on_c, 0, 74, 0
1, 55394, Note_on_c, 0, 67, 70
1, 55426, Control_c, 0, 64, 0
1, 55448, Note_on_c, 0, 43, 100
1, 55456, Note_on_c, 0, 31, 101
1, 55456, Note_on_c, 0, 72, 101
1, 55517, Note_on_c, 0, 67, 0
1, 55567, Note_on_c, 0, 64, 0
1, 55581, Note_on_c, 0, 31, 0
1, 55581, Note_on_c, 0, 74, 87
1, 55581, Control_c, 0, 64, 127
1, 55603, Note_on_c, 0, 43, 0
1, 55609, Note_on_c, 0, 72, 0
1, 55614, Note_on_c, 0, 74, 0
1, 55648, Note_on_c, 0, 72, 91
1, 55734, Note_on_c, 0, 74, 87
1, 55743, Note_on_c, 0, 72, 0
1, 55787, Note_on_c, 0, 72, 86
1, 55791, Note_on_c, 0, 74, 0
1, 55857, Note_on_c, 0, 74, 91
1, 55879, Note_on_c, 0, 72, 0
1, 55918, Note_on_c, 0, 72, 91
1, 55966, Note_on_c, 0, 74, 0
1, 56005, Note_on_c, 0, 71, 100
1, 56021, Note_on_c, 0, 72, 0
1, 56077, Note_on_c, 0, 72, 79
1, 56128, Note_on_c, 0, 71, 0
1, 56156, Note_on_c, 0, 55, 103
1, 56156, Note_on_c, 0, 76, 109
1, 56170, Note_on_c, 0, 43, 69
1, 56170, Note_on_c, 0, 52, 89
1, 56175, Note_on_c, 0, 48, 64
1, 56200, Note_on_c, 0, 52, 0
1, 56205, Note_on_c, 0, 72, 0
1, 56213, Note_on_c, 0, 48, 0
1, 56234, Note_on_c, 0, 43, 0
1, 56239, Note_on_c, 0, 55, 0
1, 56355, Note_on_c, 0, 76, 0
1, 56498, Control_c, 0, 64, 0
1, 56532, Note_on_c, 0, 74, 107
1, 56532, Note_on_c, 0, 67, 95
1, 56535, Note_on_c, 0, 43, 93
1, 56535, Note_on_c, 0, 65, 96
1, 56535, Note_on_c, 0, 71, 102
1, 56535, Note_on_c, 0, 31, 98
1, 56631, Note_on_c, 0, 31, 0
1, 56631, Note_on_c, 0, 43, 0
1, 56662, Note_on_c, 0, 67, 0
1, 56671, Note_on_c, 0, 65, 0
1, 56671, Control_c, 0, 64, 127
1, 56709, Note_on_c, 0, 71, 0
1, 56738, Note_on_c, 0, 74, 0
1, 56880, Note_on_c, 0, 76, 100
1, 56996, Control_c, 0, 64, 0
1, 57010, Note_on_c, 0, 74, 110
1, 57010, Note_on_c, 0, 65, 97
1, 57010, Note_on_c, 0, 71, 104
1, 57010, Note_on_c, 0, 31, 102
1, 57014, Note_on_c, 0, 67, 104
1, 57014, Note_on_c, 0, 43, 94
1, 57066, Note_on_c, 0, 76, 0
1, 57367, Note_on_c, 0, 31, 0
1, 57367, Control_c, 0, 64, 127
1, 57471, Note_on_c, 0, 67, 0
1, 57629, Note_on_c, 0, 65, 0
1, 57812, Note_on_c, 0, 64, 99
1, 57812, Note_on_c, 0, 72, 100
1, 57815, Note_on_c, 0, 48, 82
1, 57819, Note_on_c, 0, 36, 87
1, 57841, Note_on_c, 0, 43, 0
1, 57858, Control_c, 0, 64, 0
1, 57877, Note_on_c, 0, 71, 0
1, 57897, Note_on_c, 0, 74, 0
1, 58095, Note_on_c, 0, 36, 0
1, 58120, Note_on_c, 0, 48, 0
1, 58120, Control_c, 0, 64, 127
1, 58123, Note_on_c, 0, 72, 0
1, 58134, Note_on_c, 0, 64, 0
1, 58266, Control_c, 0, 64, 0
1, 58573, Note_on_c, 0, 47, 61
1, 58576, Note_on_c, 0, 62, 67
1, 58576, Note_on_c, 0, 67, 66
1, 58579, Note_on_c, 0, 55, 62
1, 58610, Note_on_c, 0, 62, 0
1, 58610, Note_on_c, 0, 47, 0
1, 58613, Note_on_c, 0, 67, 0
1, 58617, Note_on_c, 0, 55, 0
1, 58662, Note_on_c, 0, 62, 79
1, 58662, Note_on_c, 0, 67, 68
1, 58665, Note_on_c, 0, 55, 81
1, 58665, Note_on_c, 0, 47, 64
1, 58877, Control_c, 0, 64, 127
1, 58932, Note_on_c, 0, 55, 0
1, 58939, Note_on_c, 0, 62, 0
1, 58972, Note_on_c, 0, 59, 52
1, 59010, Note_on_c, 0, 59, 0
1, 59025, Note_on_c, 0, 47, 0
1, 59072, Note_on_c, 0, 59, 58
1, 59113, Note_on_c, 0, 59, 0
1, 59122, Note_on_c, 0, 67, 0
1, 59331, Note_on_c, 0, 71, 81
1, 59331, Note_on_c, 0, 67, 72
1, 59334, Note_on_c, 0, 59, 65
1, 59337, Note_on_c, 0, 55, 68
1, 59364, Note_on_c, 0, 71, 0
1, 59367, Note_on_c, 0, 67, 0
1, 59367, Control_c, 0, 64, 0
1, 59370, Note_on_c, 0, 59, 0
1, 59373, Note_on_c, 0, 55, 0
1, 59414, Note_on_c, 0, 67, 79
1, 59414, Note_on_c, 0, 71, 87
1, 59422, Note_on_c, 0, 59, 74
1, 59428, Note_on_c, 0, 55, 62
1, 59609, Control_c, 0, 64, 127
1, 59676, Note_on_c, 0, 67, 0
1, 59702, Note_on_c, 0, 62, 66
1, 59713, Note_on_c, 0, 59, 0
1, 59738, Note_on_c, 0, 62, 0
1, 59785, Note_on_c, 0, 55, 0
1, 59799, Note_on_c, 0, 62, 68
1, 59875, Note_on_c, 0, 71, 0
1, 59880, Note_on_c, 0, 62, 0
1, 60044, Note_on_c, 0, 74, 87
1, 60048, Note_on_c, 0, 71, 90
1, 60055, Note_on_c, 0, 62, 72
1, 60055, Note_on_c, 0, 59, 75
1, 60080, Note_on_c, 0, 71, 0
1, 60080, Note_on_c, 0, 74, 0
1, 60089, Note_on_c, 0, 62, 0
1, 60089, Note_on_c, 0, 59, 0
1, 60139, Note_on_c, 0, 71, 95
1, 60139, Note_on_c, 0, 74, 95
1, 60139, Note_on_c, 0, 62, 79
1, 60147, Note_on_c, 0, 59, 74
1, 60322, Note_on_c, 0, 62, 0
1, 60367, Note_on_c, 0, 71, 0
1, 60406, Note_on_c, 0, 67, 73
1, 60426, Note_on_c, 0, 59, 0
1, 60442, Note_on_c, 0, 67, 0
1, 60471, Note_on_c, 0, 74, 0
1, 60507, Note_on_c, 0, 67, 69
1, 60584, Note_on_c, 0, 67, 0
1, 60760, Note_on_c, 0, 76, 91
1, 60760, Note_on_c, 0, 79, 101
1, 60763, Note_on_c, 0, 67, 83
1, 60763, Note_on_c, 0, 64, 91
1, 60794, Note_on_c, 0, 64, 0
1, 60799, Note_on_c, 0, 67, 0
1, 60810, Note_on_c, 0, 76, 0
1, 60813, Note_on_c, 0, 79, 0
1, 60830, Control_c, 0, 64, 0
1, 60852, Note_on_c, 0, 79, 116
1, 60856, Note_on_c, 0, 67, 84
1, 60856, Note_on_c, 0, 76, 99
1, 60863, Note_on_c, 0, 64, 86
1, 61010, Control_c, 0, 64, 127
1, 61030, Note_on_c, 0, 67, 0
1, 61103, Note_on_c, 0, 67, 65
1, 61137, Note_on_c, 0, 64, 0
1, 61148, Note_on_c, 0, 67, 0
1, 61230, Note_on_c, 0, 67, 66
1, 61236, Note_on_c, 0, 79, 0
1, 61270, Note_on_c, 0, 76, 0
1, 61415, Note_on_c, 0, 67, 0
1, 61487, Note_on_c, 0, 76, 83
1, 61487, Note_on_c, 0, 72, 79
1, 61495, Note_on_c, 0, 64, 85
1, 61498, Note_on_c, 0, 60, 74
1, 61540, Note_on_c, 0, 60, 0
1, 61540, Note_on_c, 0, 72, 0
1, 61563, Note_on_c, 0, 64, 0
1, 61584, Note_on_c, 0, 71, 95
1, 61587, Note_on_c, 0, 74, 95
1, 61598, Control_c, 0, 64, 0
1, 61602, Note_on_c, 0, 62, 90
1, 61610, Note_on_c, 0, 59, 72
1, 61644, Note_on_c, 0, 76, 0
1, 61790, Control_c, 0, 64, 127
1, 61838, Note_on_c, 0, 62, 0
1, 61852, Note_on_c, 0, 59, 0
1, 61858, Note_on_c, 0, 67, 70
1, 61900, Note_on_c, 0, 67, 0
1, 61933, Note_on_c, 0, 71, 0
1, 61972, Note_on_c, 0, 67, 66
1, 61981, Note_on_c, 0, 74, 0
1, 62069, Note_on_c, 0, 67, 0
1, 62217, Note_on_c, 0, 79, 94
1, 62222, Note_on_c, 0, 72, 88
1, 62222, Note_on_c, 0, 76, 77
1, 62225, Note_on_c, 0, 64, 90
1, 62229, Note_on_c, 0, 60, 77
1, 62251, Note_on_c, 0, 76, 0
1, 62251, Note_on_c, 0, 72, 0
1, 62261, Note_on_c, 0, 79, 0
1, 62264, Note_on_c, 0, 60, 0
1, 62264, Note_on_c, 0, 64, 0
1, 62293, Control_c, 0, 64, 0
1, 62307, Note_on_c, 0, 79, 109
1, 62307, Note_on_c, 0, 72, 92
1, 62314, Note_on_c, 0, 76, 67
1, 62317, Note_on_c, 0, 64, 104
1, 62320, Note_on_c, 0, 60, 78
1, 62473, Control_c, 0, 64, 127
1, 62568, Note_on_c, 0, 60, 0
1, 62568, Note_on_c, 0, 64, 0
1, 62568, Note_on_c, 0, 67, 69
1, 62580, Note_on_c, 0, 79, 0
1, 62613, Note_on_c, 0, 67, 0
1, 62652, Note_on_c, 0, 72, 0
1, 62682, Note_on_c, 0, 67, 72
1, 62705, Note_on_c, 0, 76, 0
1, 62830, Note_on_c, 0, 67, 0
1, 62914, Note_on_c, 0, 72, 78
1, 62924, Note_on_c, 0, 60, 82
1, 62930, Note_on_c, 0, 57, 62
1, 62938, Note_on_c, 0, 69, 19
1, 62944, Note_on_c, 0, 72, 0
1, 62966, Note_on_c, 0, 60, 0
1, 62969, Note_on_c, 0, 57, 0
1, 62985, Note_on_c, 0, 69, 0
1, 63013, Control_c, 0, 64, 0
1, 63025, Note_on_c, 0, 71, 104
1, 63025, Note_on_c, 0, 79, 116
1, 63028, Note_on_c, 0, 67, 100
1, 63028, Note_on_c, 0, 59, 94
1, 63031, Note_on_c, 0, 55, 88
1, 63176, Note_on_c, 0, 67, 0
1, 63228, Control_c, 0, 64, 127
1, 63264, Note_on_c, 0, 59, 0
1, 63270, Note_on_c, 0, 55, 0
1, 63270, Note_on_c, 0, 67, 73
1, 63321, Note_on_c, 0, 67, 0
1, 63404, Note_on_c, 0, 67, 76
1, 63414, Note_on_c, 0, 79, 0
1, 63434, Note_on_c, 0, 71, 0
1, 63498, Note_on_c, 0, 67, 0
1, 63652, Note_on_c, 0, 31, 79
1, 63655, Note_on_c, 0, 74, 82
1, 63655, Note_on_c, 0, 43, 73
1, 63655, Note_on_c, 0, 67, 88
1, 63658, Note_on_c, 0, 71, 87
1, 63687, Note_on_c, 0, 71, 0
1, 63687, Note_on_c, 0, 74, 0
1, 63687, Note_on_c, 0, 31, 0
1, 63687, Note_on_c, 0, 67, 0
1, 63701, Note_on_c, 0, 43, 0
1, 63741, Note_on_c, 0, 74, 96
1, 63741, Note_on_c, 0, 67, 72
1, 63744, Note_on_c, 0, 71, 90
1, 63752, Note_on_c, 0, 43, 89
1, 63760, Note_on_c, 0, 31, 86
1, 63844, Note_on_c, 0, 31, 0
1, 63844, Note_on_c, 0, 43, 0
1, 63983, Note_on_c, 0, 62, 71
1, 64028, Note_on_c, 0, 62, 0
1, 64033, Note_on_c, 0, 67, 0
1, 64062, Note_on_c, 0, 71, 0
1, 64111, Note_on_c, 0, 62, 72
1, 64247, Note_on_c, 0, 62, 0
1, 64301, Note_on_c, 0, 74, 0
1, 64340, Note_on_c, 0, 47, 91
1, 64343, Note_on_c, 0, 35, 92
1, 64348, Note_on_c, 0, 71, 90
1, 64348, Note_on_c, 0, 67, 75
1, 64373, Note_on_c, 0, 35, 0
1, 64381, Note_on_c, 0, 67, 0
1, 64390, Note_on_c, 0, 47, 0
1, 64442, Note_on_c, 0, 69, 92
1, 64449, Note_on_c, 0, 66, 82
1, 64462, Note_on_c, 0, 50, 102
1, 64462, Control_c, 0, 64, 0
1, 64468, Note_on_c, 0, 38, 97
1, 64493, Note_on_c, 0, 71, 0
1, 64710, Note_on_c, 0, 62, 79
1, 64744, Note_on_c, 0, 62, 0
1, 64768, Note_on_c, 0, 50, 0
1, 64785, Control_c, 0, 64, 127
1, 64813, Note_on_c, 0, 62, 72
1, 64822, Note_on_c, 0, 38, 0
1, 64892, Note_on_c, 0, 66, 0
1, 64952, Note_on_c, 0, 62, 0
1, 64988, Note_on_c, 0, 69, 0
1, 65075, Note_on_c, 0, 74, 87
1, 65078, Note_on_c, 0, 67, 87
1, 65078, Note_on_c, 0, 71, 85
1, 65078, Note_on_c, 0, 31, 95
1, 65078, Note_on_c, 0, 43, 96
1, 65112, Note_on_c, 0, 67, 0
1, 65115, Note_on_c, 0, 31, 0
1, 65115, Note_on_c, 0, 71, 0
1, 65125, Note_on_c, 0, 74, 0
1, 65136, Note_on_c, 0, 43, 0
1, 65172, Note_on_c, 0, 67, 92
1, 65172, Note_on_c, 0, 74, 106
1, 65172, Note_on_c, 0, 71, 98
1, 65178, Note_on_c, 0, 43, 99
1, 65181, Control_c, 0, 64, 0
1, 65186, Note_on_c, 0, 31, 95
1, 65371, Note_on_c, 0, 31, 0
1, 65385, Control_c, 0, 64, 127
1, 65415, Note_on_c, 0, 43, 0
1, 65429, Note_on_c, 0, 62, 65
1, 65465, Note_on_c, 0, 62, 0
1, 65465, Note_on_c, 0, 67, 0
1, 65537, Note_on_c, 0, 71, 0
1, 65544, Note_on_c, 0, 62, 67
1, 65677, Note_on_c, 0, 62, 0
1, 65716, Note_on_c, 0, 74, 0
1, 65771, Note_on_c, 0, 47, 83
1, 65775, Note_on_c, 0, 67, 74
1, 65780, Note_on_c, 0, 35, 74
1, 65780, Note_on_c, 0, 71, 87
1, 65811, Note_on_c, 0, 35, 0
1, 65811, Note_on_c, 0, 47, 0
1, 65816, Note_on_c, 0, 67, 0
1, 65874, Note_on_c, 0, 69, 88
1, 65874, Note_on_c, 0, 50, 101
1, 65878, Note_on_c, 0, 38, 94
1, 65885, Note_on_c, 0, 66, 86
1, 65888, Note_on_c, 0, 71, 0
1, 65888, Control_c, 0, 64, 0
1, 66128, Control_c, 0, 64, 127
1, 66145, Note_on_c, 0, 62, 70
1, 66183, Note_on_c, 0, 62, 0
1, 66212, Control_c, 0, 64, 0
1, 66242, Note_on_c, 0, 62, 78
1, 66368, Control_c, 0, 64, 127
1, 66406, Note_on_c, 0, 62, 0
1, 66513, Note_on_c, 0, 62, 79
1, 66546, Note_on_c, 0, 62, 0
1, 66608, Note_on_c, 0, 62, 82
1, 66643, Control_c, 0, 64, 0
1, 66782, Note_on_c, 0, 38, 0
1, 66860, Note_on_c, 0, 69, 0
1, 66860, Note_on_c, 0, 50, 0
1, 66860, Control_c, 0, 64, 127
1, 66877, Note_on_c, 0, 66, 0
1, 66936, Note_on_c, 0, 62, 0
1, 67100, Control_c, 0, 64, 0
1, 67139, Note_on_c, 0, 66, 84
1, 67145, Note_on_c, 0, 64, 97
1, 67150, Note_on_c, 0, 54, 82
1, 67150, Note_on_c, 0, 42, 67
1, 67253, Control_c, 0, 64, 127
1, 67262, Note_on_c, 0, 54, 0
1, 67295, Note_on_c, 0, 42, 0
1, 67306, Note_on_c, 0, 64, 0
1, 67338, Note_on_c, 0, 66, 0
1, 67541, Note_on_c, 0, 71, 113
1, 67546, Note_on_c, 0, 66, 89
1, 67549, Note_on_c, 0, 63, 97
1, 67552, Control_c, 0, 64, 0
1, 67560, Note_on_c, 0, 47, 103
1, 67560, Note_on_c, 0, 35, 106
1, 67707, Note_on_c, 0, 35, 0
1, 67732, Control_c, 0, 64, 127
1, 67771, Note_on_c, 0, 47, 0
1, 67788, Note_on_c, 0, 66, 0
1, 67810, Note_on_c, 0, 59, 62
1, 67845, Note_on_c, 0, 59, 0
1, 67880, Note_on_c, 0, 66, 7
1, 67902, Note_on_c, 0, 59, 76
1, 67905, Note_on_c, 0, 63, 0
1, 67911, Note_on_c, 0, 71, 0
1, 67938, Note_on_c, 0, 59, 0
1, 67944, Note_on_c, 0, 66, 0
1, 68139, Note_on_c, 0, 75, 86
1, 68145, Note_on_c, 0, 71, 86
1, 68150, Note_on_c, 0, 63, 69
1, 68154, Note_on_c, 0, 59, 64
1, 68176, Note_on_c, 0, 71, 0
1, 68181, Note_on_c, 0, 63, 0
1, 68187, Note_on_c, 0, 59, 0
1, 68196, Note_on_c, 0, 75, 0
1, 68221, Note_on_c, 0, 71, 91
1, 68221, Note_on_c, 0, 75, 83
1, 68231, Note_on_c, 0, 63, 91
1, 68234, Note_on_c, 0, 59, 92
1, 68426, Note_on_c, 0, 71, 0
1, 68443, Note_on_c, 0, 63, 0
1, 68454, Note_on_c, 0, 59, 0
1, 68487, Note_on_c, 0, 66, 73
1, 68523, Note_on_c, 0, 66, 0
1, 68583, Note_on_c, 0, 66, 69
1, 68647, Note_on_c, 0, 75, 0
1, 68668, Note_on_c, 0, 66, 0
1, 68825, Note_on_c, 0, 78, 90
1, 68825, Note_on_c, 0, 75, 86
1, 68828, Note_on_c, 0, 66, 85
1, 68835, Note_on_c, 0, 63, 85
1, 68859, Note_on_c, 0, 75, 0
1, 68863, Note_on_c, 0, 63, 0
1, 68866, Note_on_c, 0, 66, 0
1, 68866, Note_on_c, 0, 78, 0
1, 68914, Note_on_c, 0, 78, 100
1, 68914, Note_on_c, 0, 75, 90
1, 68930, Note_on_c, 0, 66, 89
1, 68934, Note_on_c, 0, 63, 80
1, 69059, Note_on_c, 0, 63, 0
1, 69086, Note_on_c, 0, 66, 0
1, 69156, Note_on_c, 0, 71, 82
1, 69200, Note_on_c, 0, 71, 0
1, 69265, Note_on_c, 0, 71, 93
1, 69271, Note_on_c, 0, 78, 0
1, 69371, Note_on_c, 0, 71, 0
1, 69376, Note_on_c, 0, 75, 0
1, 69483, Note_on_c, 0, 83, 115
1, 69487, Note_on_c, 0, 71, 94
1, 69487, Note_on_c, 0, 79, 95
1, 69490, Note_on_c, 0, 67, 86
1, 69516, Control_c, 0, 64, 0
1, 69520, Note_on_c, 0, 67, 0
1, 69520, Note_on_c, 0, 79, 0
1, 69523, Note_on_c, 0, 71, 0
1, 69544, Note_on_c, 0, 83, 0
1, 69580, Note_on_c, 0, 79, 103
1, 69580, Note_on_c, 0, 83, 127
1, 69583, Note_on_c, 0, 71, 102
1, 69583, Note_on_c, 0, 67, 71
1, 69742, Note_on_c, 0, 71, 0
1, 69756, Control_c, 0, 64, 127
1, 69819, Note_on_c, 0, 67, 0
1, 69819, Note_on_c, 0, 71, 57
1, 69861, Note_on_c, 0, 71, 0
1, 69942, Note_on_c, 0, 71, 71
1, 69964, Note_on_c, 0, 83, 0
1, 69995, Note_on_c, 0, 79, 0
1, 70165, Note_on_c, 0, 79, 90
1, 70168, Note_on_c, 0, 71, 0
1, 70171, Note_on_c, 0, 67, 72
1, 70176, Note_on_c, 0, 76, 58
1, 70184, Note_on_c, 0, 64, 60
1, 70210, Note_on_c, 0, 76, 0
1, 70221, Note_on_c, 0, 64, 0
1, 70276, Note_on_c, 0, 75, 80
1, 70281, Note_on_c, 0, 78, 93
1, 70281, Note_on_c, 0, 66, 78
1, 70290, Note_on_c, 0, 63, 74
1, 70296, Note_on_c, 0, 67, 0
1, 70296, Control_c, 0, 64, 0
1, 70320, Note_on_c, 0, 79, 0
1, 70488, Control_c, 0, 64, 127
1, 70519, Note_on_c, 0, 71, 72
1, 70544, Note_on_c, 0, 66, 0
1, 70555, Note_on_c, 0, 63, 0
1, 70558, Note_on_c, 0, 71, 0
1, 70599, Note_on_c, 0, 75, 0
1, 70624, Note_on_c, 0, 71, 71
1, 70753, Note_on_c, 0, 71, 0
1, 70774, Note_on_c, 0, 78, 0
1, 70867, Note_on_c, 0, 67, 82
1, 70873, Note_on_c, 0, 79, 92
1, 70873, Note_on_c, 0, 76, 89
1, 70873, Note_on_c, 0, 64, 77
1, 70903, Note_on_c, 0, 64, 0
1, 70903, Note_on_c, 0, 76, 0
1, 70917, Note_on_c, 0, 79, 0
1, 70917, Note_on_c, 0, 67, 0
1, 70967, Note_on_c, 0, 79, 109
1, 70972, Note_on_c, 0, 76, 77
1, 70972, Note_on_c, 0, 67, 91
1, 70980, Note_on_c, 0, 64, 66
1, 70980, Control_c, 0, 64, 0
1, 71184, Control_c, 0, 64, 127
1, 71209, Note_on_c, 0, 71, 70
1, 71232, Note_on_c, 0, 67, 0
1, 71242, Note_on_c, 0, 64, 0
1, 71248, Note_on_c, 0, 71, 0
1, 71292, Note_on_c, 0, 76, 0
1, 71327, Note_on_c, 0, 71, 60
1, 71362, Note_on_c, 0, 79, 0
1, 71513, Note_on_c, 0, 71, 0
1, 71560, Note_on_c, 0, 64, 72
1, 71560, Note_on_c, 0, 76, 78
1, 71566, Note_on_c, 0, 60, 63
1, 71619, Note_on_c, 0, 60, 0
1, 71660, Note_on_c, 0, 64, 0
1, 71660, Note_on_c, 0, 75, 85
1, 71669, Note_on_c, 0, 63, 79
1, 71672, Note_on_c, 0, 76, 0
1, 71678, Note_on_c, 0, 59, 58
1, 71686, Control_c, 0, 64, 0
1, 71900, Note_on_c, 0, 71, 78
1, 71900, Control_c, 0, 64, 127
1, 71940, Note_on_c, 0, 71, 0
1, 71945, Note_on_c, 0, 63, 0
1, 71961, Note_on_c, 0, 59, 0
1, 72006, Note_on_c, 0, 71, 79
1, 72125, Note_on_c, 0, 75, 0
1, 72237, Note_on_c, 0, 75, 79
1, 72237, Note_on_c, 0, 78, 76
1, 72242, Note_on_c, 0, 66, 67
1, 72251, Note_on_c, 0, 63, 71
1, 72277, Note_on_c, 0, 78, 0
1, 72277, Note_on_c, 0, 75, 0
1, 72282, Note_on_c, 0, 63, 0
1, 72282, Note_on_c, 0, 66, 0
1, 72337, Note_on_c, 0, 78, 88
1, 72343, Note_on_c, 0, 66, 82
1, 72343, Note_on_c, 0, 75, 79
1, 72349, Note_on_c, 0, 63, 70
1, 72404, Note_on_c, 0, 71, 0
1, 72407, Note_on_c, 0, 66, 0
1, 72427, Note_on_c, 0, 63, 0
1, 72441, Note_on_c, 0, 75, 0
1, 72441, Note_on_c, 0, 78, 0
1, 72747, Note_on_c, 0, 60, 100
1, 72751, Note_on_c, 0, 62, 106
1, 72751, Control_c, 0, 64, 0
1, 72755, Note_on_c, 0, 50, 108
1, 72758, Note_on_c, 0, 38, 94
1, 72912, Note_on_c, 0, 50, 0
1, 72920, Control_c, 0, 64, 127
1, 72964, Note_on_c, 0, 38, 0
1, 72964, Note_on_c, 0, 62, 0
1, 73051, Note_on_c, 0, 60, 0
1, 73137, Note_on_c, 0, 67, 104
1, 73137, Note_on_c, 0, 62, 106
1, 73143, Note_on_c, 0, 59, 91
1, 73146, Note_on_c, 0, 43, 101
1, 73146, Note_on_c, 0, 31, 103
1, 73149, Control_c, 0, 64, 0
1, 73352, Control_c, 0, 64, 127
1, 73382, Note_on_c, 0, 31, 0
1, 73407, Note_on_c, 0, 55, 88
1, 73437, Note_on_c, 0, 43, 0
1, 73444, Note_on_c, 0, 55, 0
1, 73457, Note_on_c, 0, 59, 0
1, 73499, Note_on_c, 0, 55, 82
1, 73543, Note_on_c, 0, 62, 0
1, 73552, Note_on_c, 0, 67, 0
1, 73561, Note_on_c, 0, 55, 0
1, 73778, Note_on_c, 0, 71, 96
1, 73778, Note_on_c, 0, 67, 94
1, 73778, Note_on_c, 0, 55, 90
1, 73784, Note_on_c, 0, 59, 80
1, 73814, Note_on_c, 0, 59, 0
1, 73814, Note_on_c, 0, 71, 0
1, 73814, Note_on_c, 0, 67, 0
1, 73814, Note_on_c, 0, 55, 0
1, 73866, Note_on_c, 0, 71, 113
1, 73866, Note_on_c, 0, 67, 98
1, 73876, Note_on_c, 0, 59, 88
1, 73876, Note_on_c, 0, 55, 100
1, 74140, Note_on_c, 0, 62, 82
1, 74174, Note_on_c, 0, 62, 0
1, 74243, Note_on_c, 0, 62, 87
1, 74252, Note_on_c, 0, 59, 0
1, 74335, Note_on_c, 0, 62, 0
1, 74335, Note_on_c, 0, 67, 0
1, 74354, Note_on_c, 0, 71, 0
1, 74504, Note_on_c, 0, 74, 97
1, 74504, Note_on_c, 0, 71, 107
1, 74510, Note_on_c, 0, 62, 82
1, 74514, Note_on_c, 0, 59, 80
1, 74544, Note_on_c, 0, 59, 0
1, 74544, Note_on_c, 0, 62, 0
1, 74549, Note_on_c, 0, 71, 0
1, 74569, Note_on_c, 0, 74, 0
1, 74599, Note_on_c, 0, 71, 114
1, 74599, Note_on_c, 0, 62, 95
1, 74599, Note_on_c, 0, 59, 87
1, 74599, Note_on_c, 0, 74, 113
1, 74611, Control_c, 0, 64, 0
1, 74767, Control_c, 0, 64, 127
1, 74823, Note_on_c, 0, 62, 0
1, 74848, Note_on_c, 0, 67, 88
1, 74869, Note_on_c, 0, 59, 0
1, 74887, Note_on_c, 0, 67, 0
1, 74892, Note_on_c, 0, 55, 0
1, 74951, Note_on_c, 0, 67, 87
1, 74993, Note_on_c, 0, 71, 0
1, 75000, Note_on_c, 0, 74, 0
1, 75098, Note_on_c, 0, 67, 0
1, 75190, Note_on_c, 0, 79, 97
1, 75196, Note_on_c, 0, 72, 71
1, 75204, Note_on_c, 0, 76, 46
1, 75212, Note_on_c, 0, 74, 67
1, 75231, Note_on_c, 0, 72, 0
1, 75241, Note_on_c, 0, 74, 0
1, 75241, Note_on_c, 0, 76, 0
1, 75257, Note_on_c, 0, 79, 0
1, 75288, Note_on_c, 0, 72, 88
1, 75291, Note_on_c, 0, 76, 85
1, 75291, Note_on_c, 0, 79, 120
1, 75294, Control_c, 0, 64, 0
1, 75294, Note_on_c, 0, 48, 101
1, 75298, Note_on_c, 0, 36, 99
1, 75544, Note_on_c, 0, 67, 69
1, 75594, Control_c, 0, 64, 127
1, 75600, Note_on_c, 0, 67, 0
1, 75645, Note_on_c, 0, 72, 0
1, 75675, Note_on_c, 0, 79, 0
1, 75678, Note_on_c, 0, 67, 72
1, 75689, Note_on_c, 0, 76, 0
1, 75756, Note_on_c, 0, 36, 0
1, 75823, Note_on_c, 0, 48, 0
1, 75911, Note_on_c, 0, 67, 0
1, 75934, Note_on_c, 0, 76, 72
1, 75934, Note_on_c, 0, 72, 70
1, 75956, Note_on_c, 0, 67, 13
1, 75970, Note_on_c, 0, 76, 0
1, 75992, Note_on_c, 0, 72, 0
1, 76017, Note_on_c, 0, 67, 0
1, 76043, Note_on_c, 0, 74, 108
1, 76043, Note_on_c, 0, 71, 108
1, 76054, Note_on_c, 0, 50, 106
1, 76060, Note_on_c, 0, 38, 97
1, 76085, Control_c, 0, 64, 0
1, 76277, Note_on_c, 0, 62, 75
1, 76329, Note_on_c, 0, 62, 0
1, 76340, Note_on_c, 0, 38, 0
1, 76351, Note_on_c, 0, 50, 0
1, 76360, Control_c, 0, 64, 127
1, 76393, Note_on_c, 0, 62, 83
1, 76514, Note_on_c, 0, 62, 0
1, 76514, Note_on_c, 0, 74, 0
1, 76583, Note_on_c, 0, 71, 0
1, 76652, Note_on_c, 0, 72, 90
1, 76652, Note_on_c, 0, 76, 85
1, 76689, Note_on_c, 0, 76, 0
1, 76708, Control_c, 0, 64, 0
1, 76719, Note_on_c, 0, 72, 0
1, 76750, Note_on_c, 0, 76, 98
1, 76755, Note_on_c, 0, 72, 110
1, 76758, Note_on_c, 0, 50, 103
1, 76764, Note_on_c, 0, 38, 94
1, 76900, Control_c, 0, 64, 127
1, 76947, Note_on_c, 0, 76, 0
1, 76990, Note_on_c, 0, 72, 0
1, 77017, Note_on_c, 0, 62, 61
1, 77059, Note_on_c, 0, 62, 0
1, 77064, Note_on_c, 0, 50, 0
1, 77092, Note_on_c, 0, 38, 0
1, 77126, Note_on_c, 0, 62, 73
1, 77277, Note_on_c, 0, 62, 0
1, 77343, Note_on_c, 0, 72, 86
1, 77343, Note_on_c, 0, 66, 76
1, 77352, Note_on_c, 0, 69, 62
1, 77385, Note_on_c, 0, 69, 0
1, 77388, Note_on_c, 0, 66, 0
1, 77413, Note_on_c, 0, 72, 0
1, 77446, Note_on_c, 0, 71, 113
1, 77450, Note_on_c, 0, 31, 90
1, 77450, Note_on_c, 0, 43, 88
1, 77450, Note_on_c, 0, 67, 100
1, 77475, Control_c, 0, 64, 0
1, 77649, Note_on_c, 0, 31, 0
1, 77691, Control_c, 0, 64, 127
1, 77691, Note_on_c, 0, 62, 82
1, 77717, Note_on_c, 0, 43, 0
1, 77733, Note_on_c, 0, 62, 0
1, 77814, Note_on_c, 0, 62, 77
1, 78056, Note_on_c, 0, 59, 72
1, 78063, Note_on_c, 0, 55, 66
1, 78090, Note_on_c, 0, 59, 0
1, 78099, Note_on_c, 0, 55, 0
1, 78157, Note_on_c, 0, 55, 72
1, 78157, Note_on_c, 0, 59, 81
1, 78160, Note_on_c, 0, 62, 0
1, 78238, Note_on_c, 0, 55, 0
1, 78241, Note_on_c, 0, 67, 0
1, 78251, Note_on_c, 0, 71, 0
1, 78254, Note_on_c, 0, 59, 0
1, 78446, Control_c, 0, 64, 0
1, 78561, Note_on_c, 0, 67, 100
1, 78624, Note_on_c, 0, 67, 0
1, 78650, Control_c, 0, 64, 127
1, 78678, Note_on_c, 0, 67, 87
1, 78739, Note_on_c, 0, 67, 0
1, 78812, Note_on_c, 0, 67, 84
1, 78865, Note_on_c, 0, 67, 0
1, 79028, Note_on_c, 0, 78, 102
1, 79028, Note_on_c, 0, 84, 116
1, 79031, Note_on_c, 0, 76, 98
1, 79031, Note_on_c, 0, 72, 104
1, 79031, Note_on_c, 0, 45, 100
1, 79034, Note_on_c, 0, 33, 97
1, 79262, Control_c, 0, 64, 0
1, 79549, Control_c, 0, 64, 127
1, 79583, Note_on_c, 0, 84, 0
1, 79589, Note_on_c, 0, 45, 0
1, 79589, Note_on_c, 0, 33, 0
1, 79620, Note_on_c, 0, 76, 0
1, 79620, Note_on_c, 0, 78, 0
1, 79648, Note_on_c, 0, 72, 0
1, 79839, Note_on_c, 0, 83, 126
1, 79839, Note_on_c, 0, 78, 86
1, 79843, Note_on_c, 0, 71, 106
1, 79843, Note_on_c, 0, 75, 87
1, 79843, Note_on_c, 0, 69, 96
1, 79847, Note_on_c, 0, 47, 98
1, 79847, Note_on_c, 0, 35, 104
1, 80208, Control_c, 0, 64, 0
1, 80313, Note_on_c, 0, 83, 0
1, 80335, Note_on_c, 0, 47, 0
1, 80335, Note_on_c, 0, 35, 0
1, 80344, Control_c, 0, 64, 127
1, 80349, Note_on_c, 0, 69, 0
1, 80349, Note_on_c, 0, 71, 0
1, 80369, Note_on_c, 0, 78, 0
1, 80369, Note_on_c, 0, 75, 0
1, 80449, Note_on_c, 0, 47, 99
1, 80449, Note_on_c, 0, 78, 97
1, 80452, Note_on_c, 0, 75, 86
1, 80452, Note_on_c, 0, 71, 98
1, 80452, Note_on_c, 0, 35, 100
1, 80457, Note_on_c, 0, 69, 81
1, 80485, Note_on_c, 0, 35, 0
1, 80513, Note_on_c, 0, 71, 0
1, 80524, Note_on_c, 0, 47, 0
1, 80536, Note_on_c, 0, 69, 0
1, 80544, Note_on_c, 0, 75, 0
1, 80544, Control_c, 0, 64, 0
1, 80558, Note_on_c, 0, 78, 0
1, 80588, Note_on_c, 0, 75, 95
1, 80591, Note_on_c, 0, 78, 106
1, 80591, Note_on_c, 0, 69, 77
1, 80591, Note_on_c, 0, 71, 109
1, 80600, Note_on_c, 0, 52, 111
1, 80605, Note_on_c, 0, 40, 113
1, 80605, Note_on_c, 0, 81, 103
1, 80814, Note_on_c, 0, 81, 0
1, 80828, Control_c, 0, 64, 127
1, 80851, Note_on_c, 0, 69, 0
1, 80851, Note_on_c, 0, 71, 0
1, 80923, Note_on_c, 0, 75, 0
1, 80940, Note_on_c, 0, 78, 0
1, 80951, Control_c, 0, 64, 0
1, 80976, Note_on_c, 0, 67, 90
1, 80976, Note_on_c, 0, 79, 109
1, 80981, Note_on_c, 0, 76, 92
1, 81134, Note_on_c, 0, 76, 0
1, 81149, Note_on_c, 0, 79, 0
1, 81155, Control_c, 0, 64, 127
1, 81190, Note_on_c, 0, 40, 0
1, 81215, Note_on_c, 0, 67, 0
1, 81232, Note_on_c, 0, 52, 0
1, 81286, Control_c, 0, 64, 0
1, 81332, Note_on_c, 0, 77, 106
1, 81335, Note_on_c, 0, 65, 98
1, 81338, Note_on_c, 0, 69, 81
1, 81338, Note_on_c, 0, 74, 88
1, 81343, Note_on_c, 0, 53, 109
1, 81346, Note_on_c, 0, 41, 90
1, 81444, Note_on_c, 0, 65, 0
1, 81448, Note_on_c, 0, 53, 0
1, 81453, Note_on_c, 0, 77, 0
1, 81458, Note_on_c, 0, 41, 0
1, 81474, Note_on_c, 0, 74, 0
1, 81474, Note_on_c, 0, 69, 0
1, 81483, Control_c, 0, 64, 127
1, 81563, Control_c, 0, 64, 0
1, 81684, Note_on_c, 0, 74, 108
1, 81690, Note_on_c, 0, 69, 87
1, 81690, Note_on_c, 0, 65, 94
1, 81694, Note_on_c, 0, 53, 113
1, 81697, Note_on_c, 0, 41, 98
1, 81762, Note_on_c, 0, 53, 0
1, 81778, Control_c, 0, 64, 127
1, 81781, Note_on_c, 0, 65, 0
1, 81781, Note_on_c, 0, 69, 0
1, 81806, Note_on_c, 0, 41, 0
1, 81820, Note_on_c, 0, 74, 0
1, 81898, Control_c, 0, 64, 0
1, 81915, Note_on_c, 0, 64, 78
1, 81993, Note_on_c, 0, 67, 90
1, 82027, Note_on_c, 0, 64, 0
1, 82048, Note_on_c, 0, 43, 97
1, 82048, Note_on_c, 0, 31, 103
1, 82063, Note_on_c, 0, 72, 97
1, 82101, Control_c, 0, 64, 127
1, 82118, Note_on_c, 0, 67, 0
1, 82132, Note_on_c, 0, 31, 0
1, 82158, Note_on_c, 0, 43, 0
1, 82173, Note_on_c, 0, 74, 81
1, 82193, Note_on_c, 0, 72, 0
1, 82230, Note_on_c, 0, 72, 97
1, 82235, Note_on_c, 0, 74, 0
1, 82307, Note_on_c, 0, 74, 75
1, 82318, Note_on_c, 0, 72, 0
1, 82358, Note_on_c, 0, 72, 89
1, 82368, Note_on_c, 0, 74, 0
1, 82424, Note_on_c, 0, 74, 93
1, 82435, Note_on_c, 0, 72, 0
1, 82485, Note_on_c, 0, 72, 79
1, 82550, Note_on_c, 0, 74, 0
1, 82564, Note_on_c, 0, 71, 103
1, 82591, Note_on_c, 0, 72, 0
1, 82647, Note_on_c, 0, 72, 84
1, 82700, Note_on_c, 0, 71, 0
1, 82734, Note_on_c, 0, 65, 91
1, 82734, Note_on_c, 0, 74, 108
1, 82737, Control_c, 0, 64, 0
1, 82737, Note_on_c, 0, 55, 84
1, 82742, Note_on_c, 0, 67, 84
1, 82745, Note_on_c, 0, 43, 71
1, 82778, Note_on_c, 0, 72, 0
1, 82896, Note_on_c, 0, 55, 0
1, 82899, Note_on_c, 0, 43, 0
1, 82912, Note_on_c, 0, 65, 0
1, 82928, Note_on_c, 0, 67, 0
1, 82928, Control_c, 0, 64, 127
1, 82953, Note_on_c, 0, 74, 0
1, 83060, Control_c, 0, 64, 0
1, 83098, Note_on_c, 0, 67, 103
1, 83104, Note_on_c, 0, 65, 85
1, 83107, Note_on_c, 0, 43, 78
1, 83107, Note_on_c, 0, 55, 81
1, 83191, Note_on_c, 0, 55, 0
1, 83204, Control_c, 0, 64, 127
1, 83229, Note_on_c, 0, 43, 0
1, 83263, Note_on_c, 0, 65, 0
1, 83269, Note_on_c, 0, 67, 0
1, 83343, Note_on_c, 0, 74, 92
1, 83380, Note_on_c, 0, 74, 0
1, 83396, Control_c, 0, 64, 0
1, 83431, Note_on_c, 0, 76, 111
1, 83438, Note_on_c, 0, 67, 95
1, 83444, Note_on_c, 0, 64, 94
1, 83444, Note_on_c, 0, 48, 86
1, 83444, Note_on_c, 0, 36, 91
1, 83553, Note_on_c, 0, 36, 0
1, 83587, Control_c, 0, 64, 127
1, 83594, Note_on_c, 0, 48, 0
1, 83598, Note_on_c, 0, 76, 0
1, 83605, Note_on_c, 0, 67, 0
1, 83630, Note_on_c, 0, 64, 0
1, 83775, Note_on_c, 0, 60, 74
1, 83786, Note_on_c, 0, 48, 71
1, 83868, Note_on_c, 0, 60, 0
1, 83943, Note_on_c, 0, 52, 98
1, 83943, Note_on_c, 0, 64, 88
1, 83996, Note_on_c, 0, 48, 0
1, 84034, Note_on_c, 0, 64, 0
1, 84099, Note_on_c, 0, 67, 89
1, 84105, Note_on_c, 0, 55, 98
1, 84118, Note_on_c, 0, 52, 0
1, 84130, Note_on_c, 0, 67, 0
1, 84244, Note_on_c, 0, 55, 0
1, 84249, Note_on_c, 0, 72, 83
1, 84257, Note_on_c, 0, 60, 88
1, 84369, Note_on_c, 0, 60, 0
1, 84380, Note_on_c, 0, 72, 0
1, 84402, Note_on_c, 0, 64, 103
1, 84405, Note_on_c, 0, 76, 94
1, 84459, Note_on_c, 0, 64, 0
1, 84502, Note_on_c, 0, 76, 0
1, 84564, Note_on_c, 0, 67, 98
1, 84564, Note_on_c, 0, 79, 113
1, 84597, Note_on_c, 0, 67, 0
1, 84636, Note_on_c, 0, 79, 0
1, 84750, Control_c, 0, 64, 0
1, 84765, Note_on_c, 0, 84, 114
1, 84765, Note_on_c, 0, 78, 99
1, 84768, Note_on_c, 0, 72, 106
1, 84768, Note_on_c, 0, 57, 103
1, 84771, Note_on_c, 0, 76, 94
1, 84775, Note_on_c, 0, 45, 90
1, 84995, Note_on_c, 0, 57, 0
1, 85002, Control_c, 0, 64, 127
1, 85023, Note_on_c, 0, 45, 0
1, 85133, Control_c, 0, 64, 0
1, 85165, Note_on_c, 0, 54, 108
1, 85168, Note_on_c, 0, 42, 98
1, 85261, Note_on_c, 0, 78, 0
1, 85289, Control_c, 0, 64, 127
1, 85300, Note_on_c, 0, 84, 0
1, 85303, Note_on_c, 0, 42, 0
1, 85314, Note_on_c, 0, 54, 0
1, 85321, Note_on_c, 0, 76, 0
1, 85341, Note_on_c, 0, 72, 0
1, 85481, Control_c, 0, 64, 0
1, 85509, Note_on_c, 0, 83, 127
1, 85514, Note_on_c, 0, 71, 108
1, 85517, Note_on_c, 0, 69, 94
1, 85517, Note_on_c, 0, 75, 85
1, 85517, Note_on_c, 0, 78, 86
1, 85517, Note_on_c, 0, 59, 103
1, 85523, Note_on_c, 0, 47, 91
1, 85697, Control_c, 0, 64, 127
1, 85715, Note_on_c, 0, 59, 0
1, 85761, Note_on_c, 0, 78, 0
1, 85764, Note_on_c, 0, 47, 0
1, 85823, Note_on_c, 0, 75, 0
1, 85831, Note_on_c, 0, 83, 0
1, 85845, Note_on_c, 0, 69, 0
1, 85851, Note_on_c, 0, 71, 0
1, 85863, Note_on_c, 0, 51, 101
1, 85868, Note_on_c, 0, 39, 97
1, 86030, Note_on_c, 0, 39, 0
1, 86030, Note_on_c, 0, 78, 106
1, 86030, Note_on_c, 0, 69, 85
1, 86034, Note_on_c, 0, 71, 106
1, 86055, Note_on_c, 0, 51, 0
1, 86141, Note_on_c, 0, 71, 0
1, 86141, Control_c, 0, 64, 0
1, 86151, Note_on_c, 0, 69, 0
1, 86166, Note_on_c, 0, 78, 0
1, 86213, Note_on_c, 0, 81, 111
1, 86213, Note_on_c, 0, 71, 112
1, 86213, Note_on_c, 0, 78, 83
1, 86216, Note_on_c, 0, 69, 88
1, 86216, Note_on_c, 0, 52, 108
1, 86216, Note_on_c, 0, 40, 106
1, 86344, Control_c, 0, 64, 127
1, 86352, Note_on_c, 0, 52, 0
1, 86369, Note_on_c, 0, 78, 0
1, 86369, Note_on_c, 0, 81, 0
1, 86377, Note_on_c, 0, 40, 0
1, 86377, Note_on_c, 0, 71, 0
1, 86413, Note_on_c, 0, 69, 0
1, 86586, Note_on_c, 0, 79, 109
1, 86586, Note_on_c, 0, 70, 81
1, 86586, Note_on_c, 0, 67, 95
1, 86589, Note_on_c, 0, 76, 86
1, 86597, Note_on_c, 0, 49, 88
1, 86600, Note_on_c, 0, 37, 95
1, 86703, Control_c, 0, 64, 0
1, 86798, Note_on_c, 0, 76, 0
1, 86802, Note_on_c, 0, 79, 0
1, 86834, Note_on_c, 0, 67, 0
1, 86834, Control_c, 0, 64, 127
1, 86840, Note_on_c, 0, 70, 0
1, 86848, Note_on_c, 0, 37, 0
1, 86881, Note_on_c, 0, 49, 0
1, 86931, Control_c, 0, 64, 0
1, 86955, Note_on_c, 0, 77, 103
1, 86955, Note_on_c, 0, 74, 95
1, 86955, Note_on_c, 0, 69, 72
1, 86959, Note_on_c, 0, 65, 97
1, 86963, Note_on_c, 0, 50, 97
1, 86968, Note_on_c, 0, 38, 91
1, 87068, Note_on_c, 0, 50, 0
1, 87097, Note_on_c, 0, 77, 0
1, 87097, Control_c, 0, 64, 127
1, 87105, Note_on_c, 0, 38, 0
1, 87108, Note_on_c, 0, 69, 0
1, 87111, Note_on_c, 0, 74, 0
1, 87127, Note_on_c, 0, 65, 0
1, 87266, Control_c, 0, 64, 0
1, 87305, Note_on_c, 0, 74, 109
1, 87313, Note_on_c, 0, 69, 84
1, 87313, Note_on_c, 0, 65, 90
1, 87319, Note_on_c, 0, 41, 95
1, 87319, Note_on_c, 0, 29, 95
1, 87417, Note_on_c, 0, 29, 0
1, 87417, Note_on_c, 0, 41, 0
1, 87427, Note_on_c, 0, 65, 0
1, 87444, Note_on_c, 0, 69, 0
1, 87447, Control_c, 0, 64, 127
1, 87511, Note_on_c, 0, 74, 0
1, 87575, Note_on_c, 0, 64, 72
1, 87603, Control_c, 0, 64, 0
1, 87661, Note_on_c, 0, 67, 99
1, 87681, Note_on_c, 0, 43, 97
1, 87687, Note_on_c, 0, 31, 97
1, 87715, Note_on_c, 0, 64, 0
1, 87731, Note_on_c, 0, 72, 91
1, 87770, Control_c, 0, 64, 127
1, 87776, Note_on_c, 0, 67, 0
1, 87785, Note_on_c, 0, 31, 0
1, 87785, Note_on_c, 0, 43, 0
1, 87826, Note_on_c, 0, 74, 77
1, 87851, Note_on_c, 0, 72, 0
1, 87859, Note_on_c, 0, 74, 0
1, 87890, Note_on_c, 0, 72, 98
1, 87966, Note_on_c, 0, 74, 91
1, 87969, Note_on_c, 0, 72, 0
1, 88015, Note_on_c, 0, 72, 83
1, 88029, Note_on_c, 0, 74, 0
1, 88083, Note_on_c, 0, 74, 95
1, 88104, Note_on_c, 0, 72, 0
1, 88144, Note_on_c, 0, 72, 90
1, 88196, Note_on_c, 0, 74, 0
1, 88232, Note_on_c, 0, 71, 103
1, 88257, Note_on_c, 0, 72, 0
1, 88311, Note_on_c, 0, 72, 91
1, 88374, Note_on_c, 0, 71, 0
1, 88389, Note_on_c, 0, 76, 108
1, 88389, Note_on_c, 0, 55, 98
1, 88402, Note_on_c, 0, 43, 78
1, 88405, Note_on_c, 0, 52, 87
1, 88408, Note_on_c, 0, 48, 60
1, 88434, Note_on_c, 0, 72, 0
1, 88462, Note_on_c, 0, 52, 0
1, 88462, Note_on_c, 0, 55, 0
1, 88469, Note_on_c, 0, 48, 0
1, 88512, Note_on_c, 0, 43, 0
1, 88598, Note_on_c, 0, 76, 0
1, 88753, Control_c, 0, 64, 0
1, 88759, Note_on_c, 0, 74, 104
1, 88759, Note_on_c, 0, 67, 88
1, 88759, Note_on_c, 0, 65, 86
1, 88764, Note_on_c, 0, 71, 95
1, 88764, Note_on_c, 0, 43, 94
1, 88767, Note_on_c, 0, 31, 94
1, 88856, Note_on_c, 0, 31, 0
1, 88868, Note_on_c, 0, 67, 0
1, 88871, Note_on_c, 0, 43, 0
1, 88879, Note_on_c, 0, 65, 0
1, 88921, Control_c, 0, 64, 127
1, 88927, Note_on_c, 0, 71, 0
1, 88943, Note_on_c, 0, 74, 0
1, 89051, Note_on_c, 0, 76, 96
1, 89065, Control_c, 0, 64, 0
1, 89141, Note_on_c, 0, 76, 0
1, 89154, Note_on_c, 0, 74, 106
1, 89154, Note_on_c, 0, 65, 92
1, 89154, Note_on_c, 0, 71, 101
1, 89154, Note_on_c, 0, 67, 101
1, 89160, Note_on_c, 0, 43, 95
1, 89164, Note_on_c, 0, 31, 93
1, 89497, Note_on_c, 0, 31, 0
1, 89531, Control_c, 0, 64, 127
1, 89548, Note_on_c, 0, 71, 0
1, 89575, Note_on_c, 0, 43, 0
1, 89714, Note_on_c, 0, 67, 0
1, 89739, Note_on_c, 0, 65, 0
1, 89940, Control_c, 0, 64, 0
1, 89946, Note_on_c, 0, 48, 59
1, 89946, Note_on_c, 0, 72, 88
1, 89951, Note_on_c, 0, 64, 77
1, 89951, Note_on_c, 0, 36, 65
1, 89990, Note_on_c, 0, 74, 0
1, 90086, Note_on_c, 0, 36, 0
1, 90119, Control_c, 0, 64, 127
1, 90138, Note_on_c, 0, 48, 0
1, 90150, Note_on_c, 0, 64, 0
1, 90172, Note_on_c, 0, 72, 0
1, 90239, Control_c, 0, 64, 0
1, 90377, Note_on_c, 0, 60, 53
1, 90377, Note_on_c, 0, 48, 47
1, 90377, Note_on_c, 0, 69, 35
1, 90377, Note_on_c, 0, 72, 57
1, 90422, Note_on_c, 0, 48, 0
1, 90478, Control_c, 0, 64, 127
1, 90500, Note_on_c, 0, 72, 0
1, 90515, Note_on_c, 0, 69, 0
1, 90558, Note_on_c, 0, 60, 0
1, 90568, Note_on_c, 0, 48, 43
1, 90620, Note_on_c, 0, 48, 0
1, 90731, Control_c, 0, 64, 0
1, 90754, Note_on_c, 0, 67, 68
1, 90754, Note_on_c, 0, 64, 41
1, 90765, Note_on_c, 0, 55, 38
1, 90765, Note_on_c, 0, 48, 43
1, 90785, Note_on_c, 0, 36, 46
1, 90834, Note_on_c, 0, 36, 0
1, 90859, Note_on_c, 0, 48, 0
1, 90885, Control_c, 0, 64, 127
1, 90935, Note_on_c, 0, 55, 0
1, 90943, Note_on_c, 0, 48, 42
1, 90969, Note_on_c, 0, 67, 0
1, 90993, Note_on_c, 0, 48, 0
1, 91107, Note_on_c, 0, 64, 0
1, 91118, Note_on_c, 0, 69, 68
1, 91118, Note_on_c, 0, 57, 66
1, 91125, Note_on_c, 0, 53, 76
1, 91125, Note_on_c, 0, 48, 41
1, 91133, Note_on_c, 0, 65, 46
1, 91172, Note_on_c, 0, 53, 0
1, 91181, Note_on_c, 0, 48, 0
1, 91230, Note_on_c, 0, 57, 0
1, 91245, Note_on_c, 0, 65, 0
1, 91250, Note_on_c, 0, 69, 0
1, 91314, Note_on_c, 0, 48, 38
1, 91327, Note_on_c, 0, 53, 65
1, 91364, Note_on_c, 0, 48, 0
1, 91370, Note_on_c, 0, 53, 0
1, 91514, Note_on_c, 0, 55, 65
1, 91514, Note_on_c, 0, 58, 77
1, 91517, Note_on_c, 0, 70, 77
1, 91525, Note_on_c, 0, 67, 73
1, 91529, Note_on_c, 0, 48, 48
1, 91545, Control_c, 0, 64, 0
1, 91592, Note_on_c, 0, 48, 0
1, 91712, Note_on_c, 0, 67, 0
1, 91712, Control_c, 0, 64, 127
1, 91721, Note_on_c, 0, 48, 47
1, 91760, Note_on_c, 0, 58, 0
1, 91774, Note_on_c, 0, 48, 0
1, 91785, Note_on_c, 0, 70, 0
1, 91807, Note_on_c, 0, 55, 0
1, 91868, Control_c, 0, 64, 0
1, 91884, Note_on_c, 0, 71, 97
1, 91884, Note_on_c, 0, 59, 88
1, 91887, Note_on_c, 0, 68, 68
1, 91887, Note_on_c, 0, 56, 62
1, 91898, Note_on_c, 0, 48, 51
1, 91955, Note_on_c, 0, 56, 0
1, 91962, Note_on_c, 0, 48, 0
1, 92013, Control_c, 0, 64, 127
1, 92033, Note_on_c, 0, 59, 0
1, 92044, Note_on_c, 0, 68, 0
1, 92052, Note_on_c, 0, 71, 0
1, 92068, Note_on_c, 0, 48, 62
1, 92075, Note_on_c, 0, 56, 36
1, 92102, Note_on_c, 0, 48, 0
1, 92133, Note_on_c, 0, 56, 0
1, 92228, Control_c, 0, 64, 0
1, 92252, Note_on_c, 0, 72, 96
1, 92252, Note_on_c, 0, 60, 94
1, 92263, Note_on_c, 0, 69, 66
1, 92270, Note_on_c, 0, 36, 74
1, 92270, Note_on_c, 0, 48, 61
1, 92301, Note_on_c, 0, 36, 0
1, 92319, Note_on_c, 0, 48, 0
1, 92347, Note_on_c, 0, 60, 0
1, 92347, Control_c, 0, 64, 127
1, 92359, Note_on_c, 0, 69, 0
1, 92398, Note_on_c, 0, 72, 0
1, 92450, Note_on_c, 0, 48, 46
1, 92454, Note_on_c, 0, 53, 62
1, 92503, Note_on_c, 0, 53, 0
1, 92506, Note_on_c, 0, 48, 0
1, 92618, Note_on_c, 0, 77, 102
1, 92623, Note_on_c, 0, 65, 86
1, 92628, Note_on_c, 0, 57, 47
1, 92643, Note_on_c, 0, 53, 42
1, 92649, Note_on_c, 0, 48, 9
1, 92676, Note_on_c, 0, 57, 0
1, 92692, Note_on_c, 0, 53, 0
1, 92692, Note_on_c, 0, 48, 0
1, 92748, Note_on_c, 0, 65, 0
1, 92793, Note_on_c, 0, 53, 39
1, 92796, Note_on_c, 0, 57, 39
1, 92805, Note_on_c, 0, 48, 13
1, 92846, Note_on_c, 0, 57, 0
1, 92852, Note_on_c, 0, 53, 0
1, 92868, Note_on_c, 0, 48, 0
1, 92983, Control_c, 0, 64, 0
1, 92983, Note_on_c, 0, 81, 88
1, 92993, Note_on_c, 0, 69, 58
1, 92993, Note_on_c, 0, 57, 45
1, 93013, Note_on_c, 0, 48, 37
1, 93013, Note_on_c, 0, 53, 53
1, 93032, Note_on_c, 0, 77, 0
1, 93057, Note_on_c, 0, 57, 0
1, 93060, Note_on_c, 0, 53, 0
1, 93068, Note_on_c, 0, 48, 0
1, 93127, Control_c, 0, 64, 127
1, 93172, Note_on_c, 0, 57, 32
1, 93180, Note_on_c, 0, 81, 0
1, 93180, Note_on_c, 0, 48, 13
1, 93186, Note_on_c, 0, 53, 32
1, 93233, Note_on_c, 0, 57, 0
1, 93233, Note_on_c, 0, 69, 0
1, 93239, Note_on_c, 0, 53, 0
1, 93244, Note_on_c, 0, 48, 0
1, 93345, Note_on_c, 0, 77, 85
1, 93350, Note_on_c, 0, 65, 62
1, 93366, Note_on_c, 0, 57, 34
1, 93384, Note_on_c, 0, 53, 18
1, 93389, Note_on_c, 0, 48, 9
1, 93417, Note_on_c, 0, 57, 0
1, 93431, Note_on_c, 0, 53, 0
1, 93439, Note_on_c, 0, 48, 0
1, 93497, Note_on_c, 0, 77, 0
1, 93525, Note_on_c, 0, 53, 45
1, 93525, Note_on_c, 0, 48, 27
1, 93525, Note_on_c, 0, 57, 34
1, 93564, Note_on_c, 0, 65, 0
1, 93568, Note_on_c, 0, 53, 0
1, 93575, Note_on_c, 0, 48, 0
1, 93578, Note_on_c, 0, 57, 0
1, 93707, Note_on_c, 0, 76, 78
1, 93712, Note_on_c, 0, 64, 66
1, 93715, Control_c, 0, 64, 0
1, 93721, Note_on_c, 0, 71, 61
1, 93721, Note_on_c, 0, 48, 41
1, 93726, Note_on_c, 0, 36, 40
1, 93790, Note_on_c, 0, 48, 0
1, 93882, Control_c, 0, 64, 127
1, 93893, Note_on_c, 0, 76, 0
1, 93893, Note_on_c, 0, 36, 0
1, 93908, Note_on_c, 0, 48, 39
1, 93941, Note_on_c, 0, 64, 0
1, 93961, Note_on_c, 0, 48, 0
1, 94002, Note_on_c, 0, 71, 0
1, 94071, Note_on_c, 0, 74, 79
1, 94082, Note_on_c, 0, 56, 40
1, 94082, Note_on_c, 0, 62, 43
1, 94088, Note_on_c, 0, 48, 15
1, 94092, Note_on_c, 0, 53, 38
1, 94141, Note_on_c, 0, 56, 0
1, 94144, Note_on_c, 0, 53, 0
1, 94150, Note_on_c, 0, 48, 0
1, 94231, Note_on_c, 0, 53, 73
1, 94231, Note_on_c, 0, 48, 36
1, 94239, Note_on_c, 0, 56, 38
1, 94259, Note_on_c, 0, 74, 0
1, 94273, Note_on_c, 0, 53, 0
1, 94297, Note_on_c, 0, 62, 0
1, 94303, Note_on_c, 0, 56, 0
1, 94308, Note_on_c, 0, 48, 0
1, 94406, Note_on_c, 0, 72, 81
1, 94415, Note_on_c, 0, 60, 52
1, 94420, Note_on_c, 0, 56, 49
1, 94433, Control_c, 0, 64, 0
1, 94433, Note_on_c, 0, 53, 55
1, 94436, Note_on_c, 0, 48, 30
1, 94478, Note_on_c, 0, 53, 0
1, 94498, Note_on_c, 0, 56, 0
1, 94498, Note_on_c, 0, 48, 0
1, 94565, Control_c, 0, 64, 127
1, 94576, Note_on_c, 0, 56, 45
1, 94580, Note_on_c, 0, 48, 30
1, 94584, Note_on_c, 0, 53, 49
1, 94604, Note_on_c, 0, 72, 0
1, 94638, Note_on_c, 0, 60, 0
1, 94643, Note_on_c, 0, 53, 0
1, 94646, Note_on_c, 0, 48, 0
1, 94649, Note_on_c, 0, 56, 0
1, 94757, Note_on_c, 0, 71, 90
1, 94766, Note_on_c, 0, 56, 37
1, 94766, Note_on_c, 0, 59, 54
1, 94787, Note_on_c, 0, 48, 22
1, 94830, Note_on_c, 0, 56, 0
1, 94849, Note_on_c, 0, 48, 0
1, 94896, Note_on_c, 0, 59, 0
1, 94910, Note_on_c, 0, 71, 0
1, 94944, Note_on_c, 0, 53, 50
1, 94944, Note_on_c, 0, 56, 44
1, 94955, Note_on_c, 0, 48, 23
1, 94985, Note_on_c, 0, 53, 0
1, 94989, Note_on_c, 0, 56, 0
1, 95005, Note_on_c, 0, 48, 0
1, 95116, Control_c, 0, 64, 0
1, 95130, Note_on_c, 0, 71, 92
1, 95139, Note_on_c, 0, 59, 71
1, 95142, Note_on_c, 0, 62, 57
1, 95145, Note_on_c, 0, 36, 72
1, 95149, Note_on_c, 0, 65, 55
1, 95158, Note_on_c, 0, 48, 23
1, 95177, Note_on_c, 0, 36, 0
1, 95209, Note_on_c, 0, 48, 0
1, 95248, Control_c, 0, 64, 127
1, 95336, Note_on_c, 0, 56, 52
1, 95345, Note_on_c, 0, 53, 28
1, 95345, Note_on_c, 0, 48, 48
1, 95390, Note_on_c, 0, 53, 0
1, 95397, Note_on_c, 0, 56, 0
1, 95397, Note_on_c, 0, 48, 0
1, 95492, Note_on_c, 0, 62, 0
1, 95529, Note_on_c, 0, 56, 39
1, 95532, Note_on_c, 0, 59, 0
1, 95537, Note_on_c, 0, 48, 32
1, 95543, Note_on_c, 0, 53, 30
1, 95553, Note_on_c, 0, 65, 0
1, 95587, Note_on_c, 0, 56, 0
1, 95598, Note_on_c, 0, 48, 0
1, 95598, Note_on_c, 0, 53, 0
1, 95743, Note_on_c, 0, 56, 23
1, 95762, Note_on_c, 0, 71, 0
1, 95805, Note_on_c, 0, 56, 0
1, 95936, Note_on_c, 0, 72, 54
1, 95940, Note_on_c, 0, 55, 44
1, 95944, Control_c, 0, 64, 0
1, 95944, Note_on_c, 0, 60, 32
1, 95955, Note_on_c, 0, 52, 40
1, 95960, Note_on_c, 0, 48, 25
1, 95960, Note_on_c, 0, 64, 28
1, 95996, Note_on_c, 0, 55, 0
1, 96007, Note_on_c, 0, 52, 0
1, 96018, Note_on_c, 0, 48, 0
1, 96099, Control_c, 0, 64, 127
1, 96099, Note_on_c, 0, 55, 37
1, 96102, Note_on_c, 0, 48, 27
1, 96111, Note_on_c, 0, 52, 12
1, 96114, Note_on_c, 0, 64, 0
1, 96144, Note_on_c, 0, 60, 0
1, 96144, Note_on_c, 0, 72, 0
1, 96147, Note_on_c, 0, 55, 0
1, 96155, Note_on_c, 0, 52, 0
1, 96161, Note_on_c, 0, 48, 0
1, 96322, Note_on_c, 0, 72, 84
1, 96330, Note_on_c, 0, 60, 68
1, 96339, Note_on_c, 0, 55, 42
1, 96347, Note_on_c, 0, 64, 53
1, 96354, Note_on_c, 0, 52, 36
1, 96354, Note_on_c, 0, 46, 42
1, 96358, Note_on_c, 0, 48, 6
1, 96393, Note_on_c, 0, 55, 0
1, 96398, Note_on_c, 0, 64, 0
1, 96401, Note_on_c, 0, 52, 0
1, 96401, Note_on_c, 0, 48, 0
1, 96409, Note_on_c, 0, 46, 0
1, 96415, Note_on_c, 0, 60, 0
1, 96481, Note_on_c, 0, 72, 0
1, 96522, Note_on_c, 0, 48, 26
1, 96526, Note_on_c, 0, 46, 48
1, 96535, Note_on_c, 0, 55, 36
1, 96570, Note_on_c, 0, 46, 0
1, 96578, Note_on_c, 0, 48, 0
1, 96592, Note_on_c, 0, 55, 0
1, 96723, Control_c, 0, 64, 0
1, 96740, Note_on_c, 0, 77, 92
1, 96740, Note_on_c, 0, 45, 43
1, 96748, Note_on_c, 0, 65, 61
1, 96752, Note_on_c, 0, 57, 35
1, 96758, Note_on_c, 0, 72, 56
1, 96766, Note_on_c, 0, 48, 29
1, 96769, Note_on_c, 0, 53, 58
1, 96821, Note_on_c, 0, 53, 0
1, 96821, Note_on_c, 0, 57, 0
1, 96824, Note_on_c, 0, 48, 0
1, 96890, Control_c, 0, 64, 127
1, 96950, Note_on_c, 0, 57, 21
1, 96963, Note_on_c, 0, 53, 19
1, 96969, Note_on_c, 0, 48, 27
1, 96985, Note_on_c, 0, 45, 0
1, 97011, Note_on_c, 0, 57, 0
1, 97011, Note_on_c, 0, 53, 0
1, 97025, Note_on_c, 0, 48, 0
1, 97060, Note_on_c, 0, 77, 0
1, 97069, Note_on_c, 0, 72, 0
1, 97110, Note_on_c, 0, 57, 23
1, 97110, Note_on_c, 0, 48, 14
1, 97122, Note_on_c, 0, 53, 31
1, 97166, Note_on_c, 0, 65, 0
1, 97175, Note_on_c, 0, 57, 0
1, 97175, Note_on_c, 0, 53, 0
1, 97202, Note_on_c, 0, 48, 0
1, 97315, Note_on_c, 0, 57, 25
1, 97320, Note_on_c, 0, 48, 15
1, 97342, Note_on_c, 0, 53, 25
1, 97375, Note_on_c, 0, 57, 0
1, 97387, Note_on_c, 0, 53, 0
1, 97387, Note_on_c, 0, 48, 0
1, 97493, Note_on_c, 0, 72, 76
1, 97493, Note_on_c, 0, 57, 31
1, 97496, Note_on_c, 0, 60, 63
1, 97496, Note_on_c, 0, 53, 30
1, 97509, Note_on_c, 0, 48, 21
1, 97520, Note_on_c, 0, 69, 35
1, 97551, Note_on_c, 0, 57, 0
1, 97557, Note_on_c, 0, 53, 0
1, 97570, Note_on_c, 0, 48, 0
1, 97582, Note_on_c, 0, 60, 0
1, 97582, Note_on_c, 0, 69, 0
1, 97601, Note_on_c, 0, 72, 0
1, 97671, Note_on_c, 0, 57, 49
1, 97685, Note_on_c, 0, 53, 48
1, 97696, Note_on_c, 0, 48, 21
1, 97718, Note_on_c, 0, 57, 0
1, 97727, Note_on_c, 0, 53, 0
1, 97760, Note_on_c, 0, 48, 0
1, 97855, Note_on_c, 0, 57, 66
1, 97855, Note_on_c, 0, 69, 78
1, 97866, Note_on_c, 0, 53, 83
1, 97874, Note_on_c, 0, 65, 35
1, 97879, Note_on_c, 0, 48, 49
1, 97913, Note_on_c, 0, 53, 0
1, 97924, Note_on_c, 0, 48, 0
1, 97935, Note_on_c, 0, 57, 0
1, 97944, Note_on_c, 0, 65, 0
1, 97999, Note_on_c, 0, 69, 0
1, 98055, Note_on_c, 0, 53, 66
1, 98060, Note_on_c, 0, 48, 39
1, 98106, Note_on_c, 0, 48, 0
1, 98153, Note_on_c, 0, 53, 0
1, 98220, Control_c, 0, 64, 0
1, 98231, Note_on_c, 0, 41, 44
1, 98250, Note_on_c, 0, 72, 93
1, 98258, Note_on_c, 0, 60, 74
1, 98281, Note_on_c, 0, 69, 40
1, 98340, Note_on_c, 0, 41, 0
1, 98378, Control_c, 0, 64, 127
1, 98460, Note_on_c, 0, 57, 40
1, 98460, Note_on_c, 0, 48, 45
1, 98479, Note_on_c, 0, 53, 66
1, 98517, Note_on_c, 0, 53, 0
1, 98517, Note_on_c, 0, 57, 0
1, 98521, Note_on_c, 0, 48, 0
1, 98637, Note_on_c, 0, 72, 0
1, 98649, Note_on_c, 0, 69, 0
1, 98649, Note_on_c, 0, 57, 45
1, 98662, Note_on_c, 0, 48, 29
1, 98670, Note_on_c, 0, 53, 42
1, 98699, Note_on_c, 0, 57, 0
1, 98715, Note_on_c, 0, 53, 0
1, 98723, Note_on_c, 0, 48, 0
1, 98751, Note_on_c, 0, 60, 0
1, 98827, Note_on_c, 0, 57, 45
1, 98830, Note_on_c, 0, 48, 29
1, 98835, Note_on_c, 0, 53, 27
1, 98869, Note_on_c, 0, 57, 0
1, 98885, Note_on_c, 0, 53, 0
1, 98890, Note_on_c, 0, 48, 0
1, 99000, Note_on_c, 0, 69, 68
1, 99003, Note_on_c, 0, 57, 52
1, 99010, Note_on_c, 0, 48, 37
1, 99017, Note_on_c, 0, 53, 70
1, 99030, Note_on_c, 0, 65, 24
1, 99056, Note_on_c, 0, 53, 0
1, 99056, Note_on_c, 0, 48, 0
1, 99092, Note_on_c, 0, 57, 0
1, 99103, Note_on_c, 0, 65, 0
1, 99109, Note_on_c, 0, 69, 0
1, 99195, Note_on_c, 0, 48, 36
1, 99206, Note_on_c, 0, 53, 60
1, 99247, Note_on_c, 0, 53, 0
1, 99247, Note_on_c, 0, 48, 0
1, 99368, Note_on_c, 0, 65, 86
1, 99372, Note_on_c, 0, 60, 71
1, 99372, Note_on_c, 0, 48, 60
1, 99372, Note_on_c, 0, 53, 91
1, 99412, Note_on_c, 0, 53, 0
1, 99412, Note_on_c, 0, 48, 0
1, 99445, Note_on_c, 0, 60, 0
1, 99490, Note_on_c, 0, 65, 0
1, 99528, Note_on_c, 0, 48, 38
1, 99570, Note_on_c, 0, 48, 0
1, 99743, Control_c, 0, 64, 0
1, 99757, Note_on_c, 0, 69, 78
1, 99766, Note_on_c, 0, 48, 38
1, 99766, Note_on_c, 0, 57, 59
1, 99774, Note_on_c, 0, 65, 57
1, 99777, Note_on_c, 0, 36, 59
1, 99808, Note_on_c, 0, 48, 0
1, 99844, Note_on_c, 0, 36, 0
1, 99886, Control_c, 0, 64, 127
1, 99896, Note_on_c, 0, 57, 0
1, 99927, Note_on_c, 0, 65, 0
1, 99934, Note_on_c, 0, 48, 38
1, 99976, Note_on_c, 0, 48, 0
1, 100100, Note_on_c, 0, 58, 41
1, 100105, Note_on_c, 0, 55, 44
1, 100105, Note_on_c, 0, 67, 81
1, 100114, Note_on_c, 0, 64, 71
1, 100150, Note_on_c, 0, 55, 0
1, 100150, Note_on_c, 0, 69, 0
1, 100164, Note_on_c, 0, 58, 0
1, 100194, Note_on_c, 0, 64, 0
1, 100254, Note_on_c, 0, 58, 41
1, 100270, Note_on_c, 0, 48, 35
1, 100279, Note_on_c, 0, 55, 18
1, 100326, Note_on_c, 0, 48, 0
1, 100331, Note_on_c, 0, 55, 0
1, 100339, Note_on_c, 0, 58, 0
1, 100448, Note_on_c, 0, 69, 70
1, 100448, Note_on_c, 0, 57, 60
1, 100453, Note_on_c, 0, 65, 67
1, 100456, Note_on_c, 0, 48, 57
1, 100462, Control_c, 0, 64, 0
1, 100462, Note_on_c, 0, 53, 74
1, 100476, Note_on_c, 0, 67, 0
1, 100501, Note_on_c, 0, 53, 0
1, 100507, Note_on_c, 0, 57, 0
1, 100515, Note_on_c, 0, 48, 0
1, 100582, Control_c, 0, 64, 127
1, 100629, Note_on_c, 0, 57, 44
1, 100637, Note_on_c, 0, 48, 35
1, 100657, Note_on_c, 0, 53, 54
1, 100674, Note_on_c, 0, 57, 0
1, 100683, Note_on_c, 0, 69, 0
1, 100691, Note_on_c, 0, 48, 0
1, 100702, Note_on_c, 0, 53, 0
1, 100808, Control_c, 0, 64, 0
1, 100815, Note_on_c, 0, 48, 62
1, 100821, Note_on_c, 0, 55, 51
1, 100821, Note_on_c, 0, 70, 56
1, 100830, Note_on_c, 0, 52, 42
1, 100835, Note_on_c, 0, 67, 58
1, 100866, Note_on_c, 0, 65, 0
1, 100872, Note_on_c, 0, 52, 0
1, 100883, Note_on_c, 0, 55, 0
1, 100897, Note_on_c, 0, 48, 0
1, 100966, Control_c, 0, 64, 127
1, 101017, Note_on_c, 0, 55, 39
1, 101020, Note_on_c, 0, 52, 41
1, 101020, Note_on_c, 0, 48, 17
1, 101025, Note_on_c, 0, 70, 0
1, 101064, Note_on_c, 0, 52, 0
1, 101064, Note_on_c, 0, 55, 0
1, 101078, Note_on_c, 0, 48, 0
1, 101116, Note_on_c, 0, 67, 0
1, 101181, Control_c, 0, 64, 0
1, 101200, Note_on_c, 0, 41, 55
1, 101204, Note_on_c, 0, 69, 56
1, 101204, Note_on_c, 0, 57, 44
1, 101212, Note_on_c, 0, 65, 38
1, 101314, Note_on_c, 0, 57, 0
1, 101348, Control_c, 0, 64, 127
1, 101390, Note_on_c, 0, 48, 52
1, 101395, Note_on_c, 0, 41, 0
1, 101395, Note_on_c, 0, 53, 45
1, 101429, Note_on_c, 0, 48, 0
1, 101442, Note_on_c, 0, 53, 0
1, 101576, Note_on_c, 0, 48, 30
1, 101587, Note_on_c, 0, 57, 22
1, 101591, Note_on_c, 0, 65, 0
1, 101591, Note_on_c, 0, 53, 66
1, 101632, Note_on_c, 0, 53, 0
1, 101640, Note_on_c, 0, 48, 0
1, 101646, Note_on_c, 0, 57, 0
1, 101757, Note_on_c, 0, 57, 36
1, 101757, Note_on_c, 0, 53, 66
1, 101768, Note_on_c, 0, 48, 18
1, 101798, Note_on_c, 0, 53, 0
1, 101813, Note_on_c, 0, 57, 0
1, 101824, Note_on_c, 0, 48, 0
1, 101931, Note_on_c, 0, 48, 18
1, 101941, Note_on_c, 0, 57, 41
1, 101949, Note_on_c, 0, 69, 0
1, 101955, Note_on_c, 0, 53, 27
1, 102000, Note_on_c, 0, 57, 0
1, 102008, Note_on_c, 0, 53, 0
1, 102011, Note_on_c, 0, 48, 0
1, 102131, Note_on_c, 0, 57, 32
1, 102142, Note_on_c, 0, 53, 34
1, 102147, Note_on_c, 0, 48, 17
1, 102194, Note_on_c, 0, 53, 0
1, 102194, Note_on_c, 0, 57, 0
1, 102211, Note_on_c, 0, 48, 0
1, 102311, Note_on_c, 0, 60, 73
1, 102311, Note_on_c, 0, 48, 12
1, 102315, Note_on_c, 0, 57, 21
1, 102329, Note_on_c, 0, 53, 34
1, 102378, Note_on_c, 0, 53, 0
1, 102378, Note_on_c, 0, 57, 0
1, 102388, Note_on_c, 0, 48, 0
1, 102473, Note_on_c, 0, 48, 12
1, 102476, Note_on_c, 0, 57, 21
1, 102490, Note_on_c, 0, 53, 34
1, 102538, Note_on_c, 0, 53, 0
1, 102541, Note_on_c, 0, 57, 0
1, 102548, Note_on_c, 0, 48, 0
1, 102557, Note_on_c, 0, 60, 0
1, 102679, Control_c, 0, 64, 0
1, 102702, Note_on_c, 0, 72, 76
1, 102708, Note_on_c, 0, 60, 66
1, 102719, Note_on_c, 0, 33, 64
1, 102735, Note_on_c, 0, 45, 34
1, 102758, Note_on_c, 0, 33, 0
1, 102789, Note_on_c, 0, 45, 0
1, 102819, Control_c, 0, 64, 127
1, 102877, Note_on_c, 0, 72, 0
1, 102919, Note_on_c, 0, 48, 32
1, 102919, Note_on_c, 0, 45, 18
1, 102949, Note_on_c, 0, 60, 0
1, 102970, Note_on_c, 0, 48, 0
1, 102983, Note_on_c, 0, 45, 0
1, 103073, Note_on_c, 0, 69, 68
1, 103073, Note_on_c, 0, 57, 52
1, 103080, Note_on_c, 0, 48, 18
1, 103083, Note_on_c, 0, 45, 19
1, 103134, Note_on_c, 0, 48, 0
1, 103147, Note_on_c, 0, 45, 0
1, 103190, Note_on_c, 0, 69, 0
1, 103248, Note_on_c, 0, 57, 0
1, 103254, Note_on_c, 0, 48, 36
1, 103265, Note_on_c, 0, 45, 25
1, 103307, Note_on_c, 0, 48, 0
1, 103325, Note_on_c, 0, 45, 0
1, 103426, Note_on_c, 0, 52, 78
1, 103426, Note_on_c, 0, 64, 72
1, 103446, Note_on_c, 0, 48, 38
1, 103446, Note_on_c, 0, 45, 25
1, 103501, Note_on_c, 0, 48, 0
1, 103507, Note_on_c, 0, 45, 0
1, 103607, Note_on_c, 0, 45, 26
1, 103613, Note_on_c, 0, 48, 26
1, 103658, Note_on_c, 0, 52, 0
1, 103671, Note_on_c, 0, 45, 0
1, 103680, Note_on_c, 0, 64, 0
1, 103683, Note_on_c, 0, 48, 0
1, 103785, Note_on_c, 0, 53, 108
1, 103788, Note_on_c, 0, 65, 85
1, 103802, Note_on_c, 0, 45, 43
1, 103811, Note_on_c, 0, 48, 32
1, 103858, Note_on_c, 0, 45, 0
1, 103866, Note_on_c, 0, 48, 0
1, 103942, Note_on_c, 0, 53, 0
1, 103970, Note_on_c, 0, 65, 0
1, 103992, Note_on_c, 0, 48, 35
1, 103995, Note_on_c, 0, 45, 39
1, 104066, Note_on_c, 0, 45, 0
1, 104066, Note_on_c, 0, 48, 0
1, 104240, Note_on_c, 0, 57, 79
1, 104245, Note_on_c, 0, 69, 70
1, 104248, Control_c, 0, 64, 0
1, 104254, Note_on_c, 0, 64, 62
1, 104254, Note_on_c, 0, 61, 48
1, 104259, Note_on_c, 0, 34, 59
1, 104417, Control_c, 0, 64, 127
1, 104426, Note_on_c, 0, 34, 0
1, 104509, Note_on_c, 0, 49, 50
1, 104527, Note_on_c, 0, 46, 45
1, 104576, Note_on_c, 0, 46, 0
1, 104576, Note_on_c, 0, 49, 0
1, 104700, Note_on_c, 0, 69, 0
1, 104715, Note_on_c, 0, 49, 46
1, 104729, Note_on_c, 0, 46, 36
1, 104760, Note_on_c, 0, 57, 0
1, 104780, Note_on_c, 0, 49, 0
1, 104785, Note_on_c, 0, 46, 0
1, 104855, Note_on_c, 0, 64, 0
1, 104891, Note_on_c, 0, 67, 70
1, 104891, Note_on_c, 0, 55, 67
1, 104896, Note_on_c, 0, 61, 0
1, 104902, Note_on_c, 0, 49, 51
1, 104906, Note_on_c, 0, 46, 37
1, 104963, Note_on_c, 0, 46, 0
1, 104963, Note_on_c, 0, 49, 0
1, 104978, Note_on_c, 0, 55, 0
1, 104978, Note_on_c, 0, 67, 0
1, 105081, Note_on_c, 0, 43, 76
1, 105086, Note_on_c, 0, 65, 86
1, 105086, Note_on_c, 0, 53, 103
1, 105086, Note_on_c, 0, 49, 50
1, 105106, Note_on_c, 0, 46, 17
1, 105159, Note_on_c, 0, 46, 0
1, 105175, Note_on_c, 0, 49, 0
1, 105257, Note_on_c, 0, 49, 47
1, 105257, Note_on_c, 0, 46, 34
1, 105301, Note_on_c, 0, 65, 0
1, 105309, Note_on_c, 0, 43, 0
1, 105318, Note_on_c, 0, 53, 0
1, 105339, Note_on_c, 0, 46, 0
1, 105343, Note_on_c, 0, 49, 0
1, 105435, Note_on_c, 0, 64, 93
1, 105438, Note_on_c, 0, 52, 95
1, 105438, Note_on_c, 0, 49, 53
1, 105459, Note_on_c, 0, 46, 48
1, 105477, Note_on_c, 0, 52, 0
1, 105504, Note_on_c, 0, 46, 0
1, 105519, Note_on_c, 0, 49, 0
1, 105546, Note_on_c, 0, 64, 0
1, 105604, Note_on_c, 0, 49, 41
1, 105613, Note_on_c, 0, 46, 50
1, 105651, Note_on_c, 0, 46, 0
1, 105655, Note_on_c, 0, 49, 0
1, 105783, Control_c, 0, 64, 0
1, 105800, Note_on_c, 0, 72, 91
1, 105800, Note_on_c, 0, 60, 86
1, 105814, Note_on_c, 0, 45, 61
1, 105814, Note_on_c, 0, 33, 77
1, 105899, Note_on_c, 0, 33, 0
1, 105914, Note_on_c, 0, 45, 0
1, 105939, Control_c, 0, 64, 127
1, 105983, Note_on_c, 0, 72, 0
1, 106002, Note_on_c, 0, 45, 32
1, 106002, Note_on_c, 0, 48, 51
1, 106037, Note_on_c, 0, 60, 0
1, 106059, Note_on_c, 0, 48, 0
1, 106076, Note_on_c, 0, 45, 0
1, 106192, Note_on_c, 0, 69, 74
1, 106192, Note_on_c, 0, 57, 70
1, 106195, Note_on_c, 0, 48, 48
1, 106207, Note_on_c, 0, 45, 39
1, 106264, Note_on_c, 0, 45, 0
1, 106264, Note_on_c, 0, 48, 0
1, 106368, Note_on_c, 0, 69, 0
1, 106392, Note_on_c, 0, 45, 44
1, 106392, Note_on_c, 0, 48, 52
1, 106398, Note_on_c, 0, 57, 0
1, 106443, Note_on_c, 0, 48, 0
1, 106452, Note_on_c, 0, 45, 0
1, 106546, Note_on_c, 0, 52, 86
1, 106546, Note_on_c, 0, 64, 91
1, 106569, Note_on_c, 0, 48, 48
1, 106580, Note_on_c, 0, 45, 40
1, 106633, Note_on_c, 0, 45, 0
1, 106633, Note_on_c, 0, 48, 0
1, 106746, Note_on_c, 0, 52, 0
1, 106757, Note_on_c, 0, 48, 48
1, 106760, Note_on_c, 0, 45, 49
1, 106805, Note_on_c, 0, 64, 0
1, 106813, Note_on_c, 0, 45, 0
1, 106813, Note_on_c, 0, 48, 0
1, 106903, Note_on_c, 0, 65, 95
1, 106908, Note_on_c, 0, 53, 103
1, 106934, Note_on_c, 0, 48, 48
1, 106939, Note_on_c, 0, 45, 44
1, 106991, Note_on_c, 0, 48, 0
1, 106994, Note_on_c, 0, 45, 0
1, 106998, Note_on_c, 0, 53, 0
1, 107058, Note_on_c, 0, 65, 0
1, 107115, Note_on_c, 0, 48, 48
1, 107123, Note_on_c, 0, 45, 54
1, 107161, Note_on_c, 0, 45, 0
1, 107161, Note_on_c, 0, 48, 0
1, 107293, Control_c, 0, 64, 0
1, 107301, Note_on_c, 0, 69, 82
1, 107301, Note_on_c, 0, 57, 84
1, 107309, Note_on_c, 0, 64, 78
1, 107309, Note_on_c, 0, 61, 59
1, 107323, Note_on_c, 0, 34, 68
1, 107460, Note_on_c, 0, 34, 0
1, 107460, Control_c, 0, 64, 127
1, 107544, Note_on_c, 0, 49, 56
1, 107557, Note_on_c, 0, 46, 44
1, 107611, Note_on_c, 0, 46, 0
1, 107611, Note_on_c, 0, 49, 0
1, 107738, Note_on_c, 0, 49, 47
1, 107744, Note_on_c, 0, 57, 0
1, 107749, Note_on_c, 0, 69, 0
1, 107749, Note_on_c, 0, 46, 37
1, 107808, Note_on_c, 0, 46, 0
1, 107825, Note_on_c, 0, 49, 0
1, 107872, Note_on_c, 0, 64, 0
1, 107911, Note_on_c, 0, 67, 72
1, 107914, Note_on_c, 0, 55, 68
1, 107939, Note_on_c, 0, 49, 30
1, 107942, Note_on_c, 0, 61, 0
1, 107947, Note_on_c, 0, 46, 21
1, 107997, Note_on_c, 0, 49, 0
1, 107997, Note_on_c, 0, 55, 0
1, 108003, Note_on_c, 0, 67, 0
1, 108008, Note_on_c, 0, 46, 0
1, 108115, Note_on_c, 0, 65, 79
1, 108122, Note_on_c, 0, 53, 91
1, 108125, Note_on_c, 0, 49, 36
1, 108129, Note_on_c, 0, 46, 29
1, 108182, Note_on_c, 0, 49, 0
1, 108187, Note_on_c, 0, 46, 0
1, 108295, Note_on_c, 0, 49, 41
1, 108306, Note_on_c, 0, 46, 38
1, 108313, Note_on_c, 0, 65, 0
1, 108335, Note_on_c, 0, 53, 0
1, 108357, Note_on_c, 0, 46, 0
1, 108362, Note_on_c, 0, 49, 0
1, 108466, Note_on_c, 0, 64, 89
1, 108471, Note_on_c, 0, 52, 73
1, 108471, Note_on_c, 0, 46, 50
1, 108476, Note_on_c, 0, 49, 48
1, 108505, Note_on_c, 0, 52, 0
1, 108527, Note_on_c, 0, 46, 0
1, 108537, Note_on_c, 0, 49, 0
1, 108544, Note_on_c, 0, 64, 0
1, 108655, Note_on_c, 0, 46, 35
1, 108655, Note_on_c, 0, 49, 50
1, 108705, Note_on_c, 0, 49, 0
1, 108705, Note_on_c, 0, 46, 0
1, 108839, Control_c, 0, 64, 0
1, 108866, Note_on_c, 0, 79, 114
1, 108870, Note_on_c, 0, 67, 103
1, 108877, Note_on_c, 0, 35, 105
1, 108877, Note_on_c, 0, 47, 88
1, 108922, Note_on_c, 0, 35, 0
1, 108936, Note_on_c, 0, 47, 0
1, 108983, Control_c, 0, 64, 127
1, 109076, Note_on_c, 0, 55, 74
1, 109083, Note_on_c, 0, 53, 78
1, 109086, Note_on_c, 0, 47, 57
1, 109128, Note_on_c, 0, 55, 0
1, 109134, Note_on_c, 0, 53, 0
1, 109164, Note_on_c, 0, 47, 0
1, 109265, Note_on_c, 0, 47, 45
1, 109268, Note_on_c, 0, 55, 60
1, 109274, Note_on_c, 0, 53, 86
1, 109301, Note_on_c, 0, 79, 0
1, 109331, Note_on_c, 0, 55, 0
1, 109331, Note_on_c, 0, 67, 0
1, 109337, Note_on_c, 0, 53, 0
1, 109356, Note_on_c, 0, 47, 0
1, 109440, Note_on_c, 0, 77, 100
1, 109446, Note_on_c, 0, 65, 92
1, 109451, Note_on_c, 0, 55, 67
1, 109463, Note_on_c, 0, 47, 47
1, 109473, Note_on_c, 0, 53, 88
1, 109510, Note_on_c, 0, 53, 0
1, 109521, Note_on_c, 0, 55, 0
1, 109521, Note_on_c, 0, 47, 0
1, 109541, Note_on_c, 0, 65, 0
1, 109557, Note_on_c, 0, 77, 0
1, 109624, Note_on_c, 0, 76, 100
1, 109630, Note_on_c, 0, 64, 100
1, 109636, Note_on_c, 0, 55, 71
1, 109647, Note_on_c, 0, 47, 56
1, 109655, Note_on_c, 0, 53, 76
1, 109692, Note_on_c, 0, 53, 0
1, 109692, Note_on_c, 0, 55, 0
1, 109705, Note_on_c, 0, 47, 0
1, 109809, Note_on_c, 0, 55, 60
1, 109814, Note_on_c, 0, 47, 42
1, 109830, Note_on_c, 0, 53, 73
1, 109847, Note_on_c, 0, 76, 0
1, 109866, Note_on_c, 0, 64, 0
1, 109866, Note_on_c, 0, 53, 0
1, 109866, Note_on_c, 0, 55, 0
1, 109877, Note_on_c, 0, 47, 0
1, 109975, Note_on_c, 0, 74, 104
1, 109981, Note_on_c, 0, 62, 99
1, 109981, Note_on_c, 0, 55, 63
1, 110000, Note_on_c, 0, 47, 55
1, 110006, Note_on_c, 0, 53, 83
1, 110045, Note_on_c, 0, 53, 0
1, 110050, Note_on_c, 0, 47, 0
1, 110054, Note_on_c, 0, 55, 0
1, 110153, Note_on_c, 0, 55, 58
1, 110165, Note_on_c, 0, 47, 53
1, 110170, Note_on_c, 0, 62, 0
1, 110179, Note_on_c, 0, 53, 77
1, 110184, Note_on_c, 0, 74, 0
1, 110215, Note_on_c, 0, 47, 0
1, 110215, Note_on_c, 0, 53, 0
1, 110224, Note_on_c, 0, 55, 0
1, 110343, Note_on_c, 0, 73, 95
1, 110349, Note_on_c, 0, 61, 93
1, 110349, Note_on_c, 0, 55, 66
1, 110349, Control_c, 0, 64, 0
1, 110352, Note_on_c, 0, 47, 58
1, 110362, Note_on_c, 0, 53, 74
1, 110418, Note_on_c, 0, 53, 0
1, 110443, Note_on_c, 0, 55, 0
1, 110454, Note_on_c, 0, 47, 0
1, 110493, Control_c, 0, 64, 127
1, 110515, Note_on_c, 0, 55, 52
1, 110518, Note_on_c, 0, 47, 58
1, 110535, Note_on_c, 0, 53, 82
1, 110585, Note_on_c, 0, 53, 0
1, 110607, Note_on_c, 0, 55, 0
1, 110614, Note_on_c, 0, 47, 0
1, 110618, Note_on_c, 0, 61, 0
1, 110632, Note_on_c, 0, 73, 0
1, 110697, Note_on_c, 0, 74, 109
1, 110702, Note_on_c, 0, 62, 95
1, 110716, Note_on_c, 0, 55, 57
1, 110722, Note_on_c, 0, 47, 42
1, 110722, Note_on_c, 0, 53, 77
1, 110766, Note_on_c, 0, 53, 0
1, 110772, Note_on_c, 0, 55, 0
1, 110777, Note_on_c, 0, 47, 0
1, 110797, Note_on_c, 0, 62, 0
1, 110856, Note_on_c, 0, 74, 0
1, 110889, Note_on_c, 0, 55, 60
1, 110903, Note_on_c, 0, 47, 36
1, 110917, Note_on_c, 0, 53, 71
1, 110955, Note_on_c, 0, 53, 0
1, 110961, Note_on_c, 0, 55, 0
1, 110967, Note_on_c, 0, 47, 0
1, 111067, Note_on_c, 0, 77, 99
1, 111067, Control_c, 0, 64, 0
1, 111075, Note_on_c, 0, 65, 69
1, 111079, Note_on_c, 0, 68, 57
1, 111082, Note_on_c, 0, 56, 59
1, 111087, Note_on_c, 0, 47, 41
1, 111101, Note_on_c, 0, 53, 82
1, 111154, Note_on_c, 0, 53, 0
1, 111178, Note_on_c, 0, 56, 0
1, 111178, Note_on_c, 0, 47, 0
1, 111224, Control_c, 0, 64, 127
1, 111259, Note_on_c, 0, 56, 36
1, 111262, Note_on_c, 0, 47, 33
1, 111274, Note_on_c, 0, 77, 0
1, 111290, Note_on_c, 0, 53, 62
1, 111326, Note_on_c, 0, 65, 0
1, 111326, Note_on_c, 0, 47, 0
1, 111335, Note_on_c, 0, 53, 0
1, 111343, Note_on_c, 0, 56, 0
1, 111458, Note_on_c, 0, 74, 94
1, 111458, Note_on_c, 0, 56, 43
1, 111466, Note_on_c, 0, 62, 71
1, 111469, Note_on_c, 0, 47, 29
1, 111496, Note_on_c, 0, 53, 46
1, 111513, Note_on_c, 0, 68, 0
1, 111521, Note_on_c, 0, 56, 0
1, 111529, Note_on_c, 0, 47, 0
1, 111544, Note_on_c, 0, 53, 0
1, 111566, Note_on_c, 0, 62, 0
1, 111586, Note_on_c, 0, 74, 0
1, 111622, Note_on_c, 0, 47, 37
1, 111622, Note_on_c, 0, 53, 48
1, 111628, Note_on_c, 0, 56, 48
1, 111664, Note_on_c, 0, 53, 0
1, 111671, Note_on_c, 0, 56, 0
1, 111675, Note_on_c, 0, 47, 0
1, 111823, Control_c, 0, 64, 0
1, 111839, Note_on_c, 0, 60, 76
1, 111842, Note_on_c, 0, 72, 81
1, 111850, Note_on_c, 0, 69, 50
1, 111875, Note_on_c, 0, 48, 33
1, 111880, Note_on_c, 0, 36, 41
1, 111939, Note_on_c, 0, 48, 0
1, 111979, Control_c, 0, 64, 127
1, 112040, Note_on_c, 0, 48, 29
1, 112043, Note_on_c, 0, 69, 0
1, 112043, Note_on_c, 0, 36, 0
1, 112089, Note_on_c, 0, 48, 0
1, 112218, Note_on_c, 0, 69, 68
1, 112223, Note_on_c, 0, 57, 34
1, 112226, Note_on_c, 0, 65, 52
1, 112226, Note_on_c, 0, 53, 39
1, 112231, Note_on_c, 0, 48, 28
1, 112282, Note_on_c, 0, 57, 0
1, 112291, Note_on_c, 0, 53, 0
1, 112291, Note_on_c, 0, 48, 0
1, 112295, Note_on_c, 0, 72, 0
1, 112379, Note_on_c, 0, 65, 0
1, 112388, Note_on_c, 0, 53, 54
1, 112398, Note_on_c, 0, 57, 44
1, 112424, Note_on_c, 0, 53, 0
1, 112424, Note_on_c, 0, 48, 17
1, 112440, Note_on_c, 0, 57, 0
1, 112479, Note_on_c, 0, 48, 0
1, 112578, Control_c, 0, 64, 0
1, 112578, Note_on_c, 0, 48, 12
1, 112585, Note_on_c, 0, 67, 69
1, 112588, Note_on_c, 0, 69, 0
1, 112588, Note_on_c, 0, 58, 44
1, 112593, Note_on_c, 0, 64, 64
1, 112608, Note_on_c, 0, 55, 45
1, 112663, Note_on_c, 0, 55, 0
1, 112663, Note_on_c, 0, 58, 0
1, 112703, Note_on_c, 0, 48, 0
1, 112734, Control_c, 0, 64, 127
1, 112780, Note_on_c, 0, 58, 42
1, 112792, Note_on_c, 0, 48, 37
1, 112798, Note_on_c, 0, 67, 0
1, 112803, Note_on_c, 0, 55, 33
1, 112847, Note_on_c, 0, 58, 0
1, 112847, Note_on_c, 0, 48, 0
1, 112850, Note_on_c, 0, 55, 0
1, 112956, Note_on_c, 0, 70, 59
1, 112964, Note_on_c, 0, 64, 0
1, 112970, Note_on_c, 0, 67, 55
1, 112973, Note_on_c, 0, 48, 32
1, 112973, Note_on_c, 0, 55, 49
1, 113007, Note_on_c, 0, 52, 16
1, 113020, Note_on_c, 0, 55, 0
1, 113028, Note_on_c, 0, 48, 0
1, 113028, Note_on_c, 0, 67, 0
1, 113051, Note_on_c, 0, 60, 0
1, 113057, Note_on_c, 0, 52, 0
1, 113084, Note_on_c, 0, 70, 0
1, 113126, Note_on_c, 0, 52, 58
1, 113162, Note_on_c, 0, 52, 0
1, 113310, Control_c, 0, 64, 0
1, 113334, Note_on_c, 0, 69, 59
1, 113341, Note_on_c, 0, 41, 41
1, 113341, Note_on_c, 0, 57, 51
1, 113348, Note_on_c, 0, 65, 37
1, 113348, Note_on_c, 0, 53, 49
1, 113408, Note_on_c, 0, 53, 0
1, 113421, Note_on_c, 0, 41, 0
1, 113438, Note_on_c, 0, 57, 0
1, 113441, Control_c, 0, 64, 127
1, 113452, Note_on_c, 0, 69, 0
1, 113479, Note_on_c, 0, 65, 0
1, 113533, Note_on_c, 0, 48, 29
1, 113538, Note_on_c, 0, 53, 31
1, 113589, Note_on_c, 0, 53, 0
1, 113597, Note_on_c, 0, 48, 0
1, 113767, Note_on_c, 0, 48, 29
1, 113767, Note_on_c, 0, 53, 45
1, 113767, Note_on_c, 0, 57, 35
1, 113820, Note_on_c, 0, 53, 0
1, 113826, Note_on_c, 0, 57, 0
1, 113831, Note_on_c, 0, 48, 0
1, 113940, Note_on_c, 0, 48, 29
1, 113951, Note_on_c, 0, 53, 45
1, 113958, Note_on_c, 0, 57, 12
1, 114004, Note_on_c, 0, 53, 0
1, 114004, Note_on_c, 0, 48, 0
1, 114021, Note_on_c, 0, 57, 0
1, 114137, Note_on_c, 0, 57, 13
1, 114137, Note_on_c, 0, 48, 36
1, 114151, Note_on_c, 0, 53, 34
1, 114204, Note_on_c, 0, 53, 0
1, 114204, Note_on_c, 0, 48, 0
1, 114212, Note_on_c, 0, 57, 0
1, 114348, Note_on_c, 0, 48, 32
1, 114377, Note_on_c, 0, 53, 35
1, 114383, Note_on_c, 0, 57, 7
1, 114432, Note_on_c, 0, 48, 0
1, 114440, Note_on_c, 0, 57, 0
1, 114440, Note_on_c, 0, 53, 0
1, 114533, Note_on_c, 0, 69, 60
1, 114550, Note_on_c, 0, 57, 30
1, 114566, Note_on_c, 0, 53, 52
1, 114566, Note_on_c, 0, 48, 35
1, 114614, Note_on_c, 0, 53, 0
1, 114623, Note_on_c, 0, 48, 0
1, 114716, Note_on_c, 0, 57, 0
1, 114716, Note_on_c, 0, 53, 49
1, 114728, Note_on_c, 0, 69, 0
1, 114738, Note_on_c, 0, 48, 35
1, 114786, Note_on_c, 0, 53, 0
1, 114794, Note_on_c, 0, 48, 0
1, 114889, Control_c, 0, 64, 0
1, 114931, Note_on_c, 0, 69, 69
1, 114931, Note_on_c, 0, 57, 59
1, 114937, Note_on_c, 0, 64, 54
1, 114937, Note_on_c, 0, 67, 50
1, 114956, Note_on_c, 0, 49, 50
1, 114956, Note_on_c, 0, 37, 55
1, 115029, Note_on_c, 0, 49, 0
1, 115043, Note_on_c, 0, 37, 0
1, 115056, Control_c, 0, 64, 127
1, 115171, Note_on_c, 0, 57, 0
1, 115176, Note_on_c, 0, 55, 55
1, 115176, Note_on_c, 0, 52, 52
1, 115187, Note_on_c, 0, 49, 28
1, 115223, Note_on_c, 0, 55, 0
1, 115226, Note_on_c, 0, 52, 0
1, 115238, Note_on_c, 0, 49, 0
1, 115263, Note_on_c, 0, 67, 0
1, 115263, Note_on_c, 0, 69, 0
1, 115347, Note_on_c, 0, 49, 38
1, 115360, Note_on_c, 0, 55, 38
1, 115396, Note_on_c, 0, 49, 0
1, 115413, Note_on_c, 0, 55, 0
1, 115489, Note_on_c, 0, 70, 64
1, 115497, Note_on_c, 0, 58, 49
1, 115505, Note_on_c, 0, 52, 47
1, 115505, Note_on_c, 0, 55, 41
1, 115539, Note_on_c, 0, 49, 25
1, 115560, Note_on_c, 0, 55, 0
1, 115560, Note_on_c, 0, 52, 0
1, 115569, Note_on_c, 0, 64, 0
1, 115589, Note_on_c, 0, 58, 0
1, 115592, Note_on_c, 0, 49, 0
1, 115617, Note_on_c, 0, 70, 0
1, 115666, Note_on_c, 0, 69, 84
1, 115669, Note_on_c, 0, 57, 80
1, 115678, Note_on_c, 0, 49, 36
1, 115683, Note_on_c, 0, 55, 57
1, 115713, Note_on_c, 0, 52, 45
1, 115736, Note_on_c, 0, 55, 0
1, 115741, Note_on_c, 0, 49, 0
1, 115756, Note_on_c, 0, 52, 0
1, 115847, Note_on_c, 0, 52, 36
1, 115856, Note_on_c, 0, 55, 48
1, 115862, Note_on_c, 0, 49, 43
1, 115869, Note_on_c, 0, 69, 0
1, 115875, Note_on_c, 0, 57, 0
1, 115904, Note_on_c, 0, 55, 0
1, 115909, Note_on_c, 0, 49, 0
1, 115914, Note_on_c, 0, 52, 0
1, 116009, Note_on_c, 0, 69, 94
1, 116015, Note_on_c, 0, 57, 84
1, 116031, Note_on_c, 0, 55, 62
1, 116031, Note_on_c, 0, 49, 56
1, 116035, Note_on_c, 0, 52, 43
1, 116046, Note_on_c, 0, 57, 0
1, 116078, Note_on_c, 0, 55, 0
1, 116082, Note_on_c, 0, 52, 0
1, 116085, Note_on_c, 0, 49, 0
1, 116103, Note_on_c, 0, 69, 0
1, 116209, Note_on_c, 0, 55, 47
1, 116213, Note_on_c, 0, 49, 42
1, 116227, Note_on_c, 0, 52, 35
1, 116252, Note_on_c, 0, 55, 0
1, 116271, Note_on_c, 0, 49, 0
1, 116276, Note_on_c, 0, 52, 0
1, 116351, Control_c, 0, 64, 0
1, 116374, Note_on_c, 0, 81, 99
1, 116382, Note_on_c, 0, 69, 76
1, 116393, Note_on_c, 0, 53, 83
1, 116397, Note_on_c, 0, 50, 60
1, 116444, Note_on_c, 0, 53, 0
1, 116449, Note_on_c, 0, 50, 0
1, 116530, Control_c, 0, 64, 127
1, 116541, Note_on_c, 0, 53, 73
1, 116558, Note_on_c, 0, 50, 46
1, 116610, Note_on_c, 0, 50, 0
1, 116617, Note_on_c, 0, 53, 0
1, 116717, Note_on_c, 0, 53, 59
1, 116722, Note_on_c, 0, 81, 0
1, 116741, Note_on_c, 0, 50, 39
1, 116778, Note_on_c, 0, 53, 0
1, 116790, Note_on_c, 0, 50, 0
1, 116845, Note_on_c, 0, 69, 0
1, 116915, Note_on_c, 0, 53, 61
1, 116931, Note_on_c, 0, 50, 32
1, 116965, Note_on_c, 0, 53, 0
1, 116989, Note_on_c, 0, 50, 0
1, 117115, Note_on_c, 0, 77, 73
1, 117115, Note_on_c, 0, 53, 64
1, 117120, Note_on_c, 0, 65, 44
1, 117120, Note_on_c, 0, 50, 21
1, 117149, Note_on_c, 0, 77, 0
1, 117162, Note_on_c, 0, 53, 0
1, 117179, Note_on_c, 0, 50, 0
1, 117198, Note_on_c, 0, 65, 0
1, 117319, Note_on_c, 0, 53, 54
1, 117319, Note_on_c, 0, 50, 28
1, 117365, Note_on_c, 0, 53, 0
1, 117379, Note_on_c, 0, 50, 0
1, 117478, Note_on_c, 0, 69, 80
1, 117489, Note_on_c, 0, 57, 58
1, 117492, Note_on_c, 0, 50, 41
1, 117507, Note_on_c, 0, 53, 48
1, 117549, Note_on_c, 0, 53, 0
1, 117549, Note_on_c, 0, 50, 0
1, 117656, Note_on_c, 0, 53, 50
1, 117659, Note_on_c, 0, 69, 0
1, 117667, Note_on_c, 0, 50, 49
1, 117709, Note_on_c, 0, 53, 0
1, 117716, Note_on_c, 0, 50, 0
1, 117730, Note_on_c, 0, 57, 0
1, 117825, Control_c, 0, 64, 0
1, 117843, Note_on_c, 0, 69, 69
1, 117843, Note_on_c, 0, 55, 62
1, 117843, Note_on_c, 0, 57, 69
1, 117848, Note_on_c, 0, 61, 56
1, 117853, Note_on_c, 0, 43, 53
1, 117856, Note_on_c, 0, 64, 67
1, 117932, Note_on_c, 0, 55, 0
1, 117953, Note_on_c, 0, 57, 0
1, 117981, Control_c, 0, 64, 127
1, 118014, Note_on_c, 0, 43, 0
1, 118017, Note_on_c, 0, 55, 50
1, 118048, Note_on_c, 0, 61, 0
1, 118048, Note_on_c, 0, 64, 0
1, 118084, Note_on_c, 0, 55, 0
1, 118184, Note_on_c, 0, 55, 53
1, 118252, Note_on_c, 0, 55, 0
1, 118293, Note_on_c, 0, 69, 0
1, 118342, Note_on_c, 0, 55, 53
1, 118347, Note_on_c, 0, 70, 71
1, 118411, Note_on_c, 0, 55, 0
1, 118511, Note_on_c, 0, 70, 0
1, 118519, Note_on_c, 0, 61, 65
1, 118530, Note_on_c, 0, 69, 82
1, 118545, Note_on_c, 0, 57, 43
1, 118556, Note_on_c, 0, 55, 35
1, 118597, Note_on_c, 0, 57, 0
1, 118603, Note_on_c, 0, 61, 0
1, 118606, Note_on_c, 0, 55, 0
1, 118666, Note_on_c, 0, 69, 0
1, 118701, Note_on_c, 0, 55, 30
1, 118704, Note_on_c, 0, 61, 46
1, 118704, Note_on_c, 0, 57, 34
1, 118759, Note_on_c, 0, 55, 0
1, 118763, Note_on_c, 0, 57, 0
1, 118763, Note_on_c, 0, 61, 0
1, 118864, Note_on_c, 0, 69, 91
1, 118873, Note_on_c, 0, 61, 58
1, 118873, Note_on_c, 0, 55, 48
1, 118893, Note_on_c, 0, 57, 40
1, 118923, Note_on_c, 0, 55, 0
1, 118934, Note_on_c, 0, 61, 0
1, 118940, Note_on_c, 0, 57, 0
1, 118998, Note_on_c, 0, 69, 0
1, 119056, Note_on_c, 0, 61, 63
1, 119063, Note_on_c, 0, 55, 48
1, 119073, Note_on_c, 0, 57, 23
1, 119095, Note_on_c, 0, 61, 0
1, 119112, Note_on_c, 0, 55, 0
1, 119126, Note_on_c, 0, 57, 0
1, 119204, Control_c, 0, 64, 0
1, 119223, Note_on_c, 0, 81, 101
1, 119229, Note_on_c, 0, 69, 75
1, 119237, Note_on_c, 0, 62, 51
1, 119246, Note_on_c, 0, 53, 68
1, 119252, Note_on_c, 0, 57, 26
1, 119299, Note_on_c, 0, 53, 0
1, 119310, Note_on_c, 0, 57, 0
1, 119316, Note_on_c, 0, 62, 0
1, 119382, Control_c, 0, 64, 127
1, 119405, Note_on_c, 0, 62, 55
1, 119418, Note_on_c, 0, 53, 67
1, 119425, Note_on_c, 0, 57, 29
1, 119471, Note_on_c, 0, 53, 0
1, 119477, Note_on_c, 0, 57, 0
1, 119497, Note_on_c, 0, 62, 0
1, 119575, Note_on_c, 0, 62, 50
1, 119603, Note_on_c, 0, 81, 0
1, 119603, Note_on_c, 0, 57, 41
1, 119608, Note_on_c, 0, 53, 41
1, 119645, Note_on_c, 0, 62, 0
1, 119655, Note_on_c, 0, 57, 0
1, 119658, Note_on_c, 0, 53, 0
1, 119720, Note_on_c, 0, 69, 0
1, 119770, Note_on_c, 0, 62, 55
1, 119787, Note_on_c, 0, 53, 24
1, 119790, Note_on_c, 0, 57, 39
1, 119817, Note_on_c, 0, 62, 0
1, 119837, Note_on_c, 0, 57, 0
1, 119851, Note_on_c, 0, 53, 0
1, 119951, Note_on_c, 0, 53, 39
1, 119960, Note_on_c, 0, 62, 45
1, 119960, Note_on_c, 0, 77, 77
1, 119968, Note_on_c, 0, 57, 23
1, 119971, Note_on_c, 0, 65, 42
1, 120009, Note_on_c, 0, 62, 0
1, 120018, Note_on_c, 0, 57, 0
1, 120027, Note_on_c, 0, 53, 0
1, 120077, Note_on_c, 0, 77, 0
1, 120132, Note_on_c, 0, 65, 0
1, 120141, Note_on_c, 0, 57, 51
1, 120155, Note_on_c, 0, 53, 58
1, 120199, Note_on_c, 0, 53, 0
1, 120199, Note_on_c, 0, 57, 0
1, 120333, Note_on_c, 0, 74, 91
1, 120339, Note_on_c, 0, 57, 43
1, 120339, Note_on_c, 0, 62, 69
1, 120346, Note_on_c, 0, 53, 69
1, 120399, Note_on_c, 0, 53, 0
1, 120399, Note_on_c, 0, 57, 0
1, 120513, Note_on_c, 0, 57, 41
1, 120525, Note_on_c, 0, 53, 58
1, 120530, Note_on_c, 0, 62, 0
1, 120561, Note_on_c, 0, 53, 0
1, 120561, Note_on_c, 0, 57, 0
1, 120578, Note_on_c, 0, 74, 0
1, 120653, Control_c, 0, 64, 0
1, 120664, Note_on_c, 0, 76, 94
1, 120670, Note_on_c, 0, 70, 64
1, 120673, Note_on_c, 0, 67, 58
1, 120673, Note_on_c, 0, 64, 79
1, 120676, Note_on_c, 0, 43, 83
1, 120684, Note_on_c, 0, 55, 76
1, 120737, Note_on_c, 0, 43, 0
1, 120740, Note_on_c, 0, 55, 0
1, 120786, Control_c, 0, 64, 127
1, 120875, Note_on_c, 0, 58, 38
1, 120923, Note_on_c, 0, 58, 0
1, 121018, Note_on_c, 0, 76, 0
1, 121031, Note_on_c, 0, 58, 60
1, 121039, Note_on_c, 0, 55, 46
1, 121051, Note_on_c, 0, 67, 0
1, 121070, Note_on_c, 0, 64, 0
1, 121091, Note_on_c, 0, 58, 0
1, 121091, Note_on_c, 0, 55, 0
1, 121180, Note_on_c, 0, 70, 0
1, 121201, Note_on_c, 0, 74, 92
1, 121205, Note_on_c, 0, 58, 48
1, 121210, Note_on_c, 0, 62, 81
1, 121224, Note_on_c, 0, 55, 45
1, 121247, Note_on_c, 0, 58, 0
1, 121255, Note_on_c, 0, 62, 0
1, 121274, Note_on_c, 0, 55, 0
1, 121294, Note_on_c, 0, 74, 0
1, 121375, Note_on_c, 0, 74, 86
1, 121380, Note_on_c, 0, 62, 85
1, 121380, Note_on_c, 0, 45, 64
1, 121385, Note_on_c, 0, 69, 59
1, 121385, Control_c, 0, 64, 0
1, 121385, Note_on_c, 0, 57, 57
1, 121392, Note_on_c, 0, 65, 74
1, 121485, Note_on_c, 0, 57, 0
1, 121539, Note_on_c, 0, 45, 0
1, 121552, Control_c, 0, 64, 127
1, 121552, Note_on_c, 0, 57, 51
1, 121592, Note_on_c, 0, 65, 0
1, 121612, Note_on_c, 0, 74, 0
1, 121622, Note_on_c, 0, 62, 0
1, 121625, Note_on_c, 0, 57, 0
1, 121656, Note_on_c, 0, 69, 0
1, 121717, Note_on_c, 0, 57, 49
1, 121722, Note_on_c, 0, 74, 107
1, 121729, Note_on_c, 0, 62, 90
1, 121779, Note_on_c, 0, 57, 0
1, 121859, Note_on_c, 0, 62, 0
1, 121899, Note_on_c, 0, 57, 70
1, 121940, Note_on_c, 0, 74, 0
1, 121970, Note_on_c, 0, 57, 0
1, 122091, Control_c, 0, 64, 0
1, 122104, Note_on_c, 0, 76, 95
1, 122112, Note_on_c, 0, 64, 84
1, 122112, Note_on_c, 0, 67, 65
1, 122119, Note_on_c, 0, 58, 65
1, 122127, Note_on_c, 0, 46, 60
1, 122258, Note_on_c, 0, 58, 0
1, 122268, Note_on_c, 0, 46, 0
1, 122271, Control_c, 0, 64, 127
1, 122336, Note_on_c, 0, 58, 30
1, 122396, Note_on_c, 0, 58, 0
1, 122441, Note_on_c, 0, 67, 0
1, 122452, Note_on_c, 0, 76, 0
1, 122494, Note_on_c, 0, 64, 0
1, 122513, Note_on_c, 0, 58, 51
1, 122575, Note_on_c, 0, 58, 0
1, 122676, Note_on_c, 0, 74, 83
1, 122687, Note_on_c, 0, 62, 58
1, 122690, Note_on_c, 0, 58, 40
1, 122737, Note_on_c, 0, 58, 0
1, 122764, Note_on_c, 0, 62, 0
1, 122793, Note_on_c, 0, 74, 0
1, 122846, Control_c, 0, 64, 0
1, 122878, Note_on_c, 0, 62, 71
1, 122878, Note_on_c, 0, 74, 57
1, 122885, Note_on_c, 0, 65, 58
1, 122889, Note_on_c, 0, 69, 43
1, 122892, Note_on_c, 0, 41, 55
1, 122895, Note_on_c, 0, 53, 72
1, 122949, Note_on_c, 0, 41, 0
1, 122963, Note_on_c, 0, 53, 0
1, 122990, Control_c, 0, 64, 127
1, 123054, Note_on_c, 0, 65, 0
1, 123074, Note_on_c, 0, 57, 55
1, 123085, Note_on_c, 0, 74, 0
1, 123093, Note_on_c, 0, 53, 68
1, 123105, Note_on_c, 0, 62, 0
1, 123124, Note_on_c, 0, 57, 0
1, 123130, Note_on_c, 0, 69, 0
1, 123130, Note_on_c, 0, 53, 0
1, 123227, Note_on_c, 0, 74, 105
1, 123227, Note_on_c, 0, 62, 92
1, 123240, Note_on_c, 0, 57, 59
1, 123257, Note_on_c, 0, 53, 54
1, 123289, Note_on_c, 0, 57, 0
1, 123289, Note_on_c, 0, 62, 0
1, 123299, Note_on_c, 0, 53, 0
1, 123339, Note_on_c, 0, 74, 0
1, 123410, Note_on_c, 0, 57, 53
1, 123410, Note_on_c, 0, 53, 70
1, 123449, Note_on_c, 0, 53, 0
1, 123453, Note_on_c, 0, 57, 0
1, 123541, Control_c, 0, 64, 0
1, 123562, Note_on_c, 0, 77, 100
1, 123562, Note_on_c, 0, 65, 88
1, 123567, Note_on_c, 0, 70, 60
1, 123575, Note_on_c, 0, 55, 81
1, 123578, Note_on_c, 0, 43, 79
1, 123628, Note_on_c, 0, 43, 0
1, 123662, Note_on_c, 0, 55, 0
1, 123686, Control_c, 0, 64, 127
1, 123751, Note_on_c, 0, 58, 51
1, 123765, Note_on_c, 0, 55, 33
1, 123771, Note_on_c, 0, 65, 0
1, 123778, Note_on_c, 0, 77, 0
1, 123820, Note_on_c, 0, 58, 0
1, 123820, Note_on_c, 0, 55, 0
1, 123910, Note_on_c, 0, 76, 94
1, 123917, Note_on_c, 0, 64, 89
1, 123931, Note_on_c, 0, 58, 58
1, 123946, Note_on_c, 0, 55, 50
1, 123960, Note_on_c, 0, 70, 0
1, 123981, Note_on_c, 0, 58, 0
1, 123988, Note_on_c, 0, 55, 0
1, 124030, Note_on_c, 0, 76, 0
1, 124082, Note_on_c, 0, 64, 0
1, 124088, Note_on_c, 0, 55, 45
1, 124107, Note_on_c, 0, 58, 23
1, 124130, Note_on_c, 0, 55, 0
1, 124158, Note_on_c, 0, 58, 0
1, 124255, Note_on_c, 0, 74, 96
1, 124264, Note_on_c, 0, 62, 71
1, 124274, Note_on_c, 0, 55, 21
1, 124274, Note_on_c, 0, 58, 26
1, 124285, Control_c, 0, 64, 0
1, 124285, Note_on_c, 0, 46, 40
1, 124353, Note_on_c, 0, 58, 0
1, 124377, Note_on_c, 0, 55, 0
1, 124428, Control_c, 0, 64, 127
1, 124450, Note_on_c, 0, 58, 38
1, 124455, Note_on_c, 0, 55, 38
1, 124477, Note_on_c, 0, 62, 0
1, 124503, Note_on_c, 0, 46, 0
1, 124506, Note_on_c, 0, 58, 0
1, 124512, Note_on_c, 0, 74, 0
1, 124512, Note_on_c, 0, 55, 0
1, 124611, Note_on_c, 0, 76, 81
1, 124622, Note_on_c, 0, 64, 55
1, 124628, Note_on_c, 0, 58, 39
1, 124654, Note_on_c, 0, 55, 47
1, 124683, Note_on_c, 0, 58, 0
1, 124698, Note_on_c, 0, 55, 0
1, 124793, Note_on_c, 0, 76, 0
1, 124793, Note_on_c, 0, 58, 44
1, 124803, Note_on_c, 0, 55, 25
1, 124846, Note_on_c, 0, 58, 0
1, 124849, Note_on_c, 0, 55, 0
1, 124861, Note_on_c, 0, 64, 0
1, 125015, Control_c, 0, 64, 0
1, 125015, Note_on_c, 0, 62, 47
1, 125019, Note_on_c, 0, 74, 68
1, 125029, Note_on_c, 0, 57, 12
1, 125034, Note_on_c, 0, 55, 17
1, 125034, Note_on_c, 0, 45, 27
1, 125038, Note_on_c, 0, 52, 40
1, 125090, Note_on_c, 0, 55, 0
1, 125119, Note_on_c, 0, 57, 0
1, 125133, Note_on_c, 0, 52, 0
1, 125183, Control_c, 0, 64, 127
1, 125245, Note_on_c, 0, 57, 12
1, 125250, Note_on_c, 0, 55, 17
1, 125250, Note_on_c, 0, 52, 21
1, 125302, Note_on_c, 0, 52, 0
1, 125306, Note_on_c, 0, 55, 0
1, 125335, Note_on_c, 0, 57, 0
1, 125413, Note_on_c, 0, 57, 32
1, 125413, Note_on_c, 0, 55, 22
1, 125427, Note_on_c, 0, 52, 18
1, 125473, Note_on_c, 0, 55, 0
1, 125473, Note_on_c, 0, 57, 0
1, 125476, Note_on_c, 0, 52, 0
1, 125502, Note_on_c, 0, 62, 0
1, 125604, Note_on_c, 0, 57, 12
1, 125604, Note_on_c, 0, 52, 18
1, 125608, Note_on_c, 0, 55, 17
1, 125659, Note_on_c, 0, 52, 0
1, 125665, Note_on_c, 0, 55, 0
1, 125694, Note_on_c, 0, 57, 0
1, 125764, Note_on_c, 0, 57, 23
1, 125770, Note_on_c, 0, 55, 16
1, 125770, Note_on_c, 0, 73, 49
1, 125770, Note_on_c, 0, 61, 42
1, 125779, Note_on_c, 0, 52, 16
1, 125814, Note_on_c, 0, 74, 0
1, 125834, Note_on_c, 0, 52, 0
1, 125838, Note_on_c, 0, 55, 0
1, 125843, Note_on_c, 0, 57, 0
1, 125893, Note_on_c, 0, 73, 0
1, 125951, Note_on_c, 0, 61, 0
1, 125971, Note_on_c, 0, 57, 30
1, 125971, Note_on_c, 0, 52, 40
1, 125980, Note_on_c, 0, 55, 13
1, 126018, Note_on_c, 0, 55, 0
1, 126018, Note_on_c, 0, 52, 0
1, 126021, Note_on_c, 0, 57, 0
1, 126027, Note_on_c, 0, 45, 0
1, 126160, Note_on_c, 0, 69, 54
1, 126165, Note_on_c, 0, 57, 38
1, 126174, Note_on_c, 0, 43, 44
1, 126174, Note_on_c, 0, 55, 36
1, 126188, Note_on_c, 0, 52, 29
1, 126225, Note_on_c, 0, 55, 0
1, 126236, Note_on_c, 0, 52, 0
1, 126257, Note_on_c, 0, 57, 0
1, 126291, Note_on_c, 0, 69, 0
1, 126353, Note_on_c, 0, 43, 0
1, 126367, Note_on_c, 0, 71, 76
1, 126375, Note_on_c, 0, 52, 52
1, 126378, Note_on_c, 0, 55, 44
1, 126384, Note_on_c, 0, 59, 49
1, 126419, Note_on_c, 0, 52, 0
1, 126423, Note_on_c, 0, 55, 0
1, 126455, Note_on_c, 0, 59, 0
1, 126508, Note_on_c, 0, 71, 0
1, 126586, Control_c, 0, 64, 0
1, 126600, Note_on_c, 0, 72, 73
1, 126604, Note_on_c, 0, 42, 61
1, 126608, Note_on_c, 0, 60, 53
1, 126620, Note_on_c, 0, 50, 50
1, 126620, Note_on_c, 0, 48, 40
1, 126689, Note_on_c, 0, 50, 0
1, 126707, Note_on_c, 0, 42, 0
1, 126707, Note_on_c, 0, 48, 0
1, 126740, Control_c, 0, 64, 127
1, 126799, Note_on_c, 0, 42, 41
1, 126799, Note_on_c, 0, 48, 33
1, 126810, Note_on_c, 0, 50, 48
1, 126859, Note_on_c, 0, 50, 0
1, 126865, Note_on_c, 0, 42, 0
1, 126865, Note_on_c, 0, 48, 0
1, 126938, Note_on_c, 0, 60, 0
1, 126988, Note_on_c, 0, 50, 60
1, 126993, Note_on_c, 0, 42, 47
1, 126998, Note_on_c, 0, 48, 42
1, 127037, Note_on_c, 0, 42, 0
1, 127037, Note_on_c, 0, 72, 0
1, 127037, Note_on_c, 0, 50, 0
1, 127049, Note_on_c, 0, 48, 0
1, 127154, Note_on_c, 0, 74, 90
1, 127158, Note_on_c, 0, 62, 72
1, 127168, Note_on_c, 0, 50, 48
1, 127172, Note_on_c, 0, 42, 39
1, 127175, Note_on_c, 0, 48, 37
1, 127219, Note_on_c, 0, 42, 0
1, 127219, Note_on_c, 0, 62, 0
1, 127222, Note_on_c, 0, 50, 0
1, 127227, Note_on_c, 0, 48, 0
1, 127236, Note_on_c, 0, 74, 0
1, 127328, Note_on_c, 0, 72, 83
1, 127339, Note_on_c, 0, 60, 75
1, 127345, Note_on_c, 0, 50, 52
1, 127348, Note_on_c, 0, 42, 46
1, 127353, Note_on_c, 0, 48, 39
1, 127403, Note_on_c, 0, 42, 0
1, 127403, Note_on_c, 0, 50, 0
1, 127411, Note_on_c, 0, 48, 0
1, 127506, Note_on_c, 0, 50, 54
1, 127511, Note_on_c, 0, 48, 37
1, 127511, Note_on_c, 0, 42, 54
1, 127550, Note_on_c, 0, 72, 0
1, 127564, Note_on_c, 0, 60, 0
1, 127564, Note_on_c, 0, 50, 0
1, 127570, Note_on_c, 0, 48, 0
1, 127570, Note_on_c, 0, 42, 0
1, 127684, Note_on_c, 0, 72, 95
1, 127684, Note_on_c, 0, 60, 79
1, 127689, Note_on_c, 0, 50, 60
1, 127693, Note_on_c, 0, 42, 57
1, 127703, Note_on_c, 0, 48, 49
1, 127721, Note_on_c, 0, 60, 0
1, 127745, Note_on_c, 0, 50, 0
1, 127749, Note_on_c, 0, 48, 0
1, 127764, Note_on_c, 0, 72, 0
1, 127773, Note_on_c, 0, 42, 0
1, 127866, Note_on_c, 0, 42, 51
1, 127871, Note_on_c, 0, 48, 33
1, 127874, Note_on_c, 0, 50, 61
1, 127918, Note_on_c, 0, 48, 0
1, 127923, Note_on_c, 0, 50, 0
1, 127940, Note_on_c, 0, 42, 0
1, 128108, Control_c, 0, 64, 0
1, 128111, Note_on_c, 0, 84, 100
1, 128116, Note_on_c, 0, 72, 81
1, 128116, Note_on_c, 0, 79, 77
1, 128124, Note_on_c, 0, 55, 48
1, 128124, Note_on_c, 0, 48, 39
1, 128124, Note_on_c, 0, 43, 45
1, 128135, Note_on_c, 0, 50, 52
1, 128216, Note_on_c, 0, 55, 0
1, 128221, Note_on_c, 0, 50, 0
1, 128242, Note_on_c, 0, 43, 0
1, 128247, Note_on_c, 0, 48, 0
1, 128263, Control_c, 0, 64, 127
1, 128313, Note_on_c, 0, 43, 40
1, 128319, Note_on_c, 0, 48, 35
1, 128322, Note_on_c, 0, 55, 42
1, 128339, Note_on_c, 0, 50, 36
1, 128388, Note_on_c, 0, 48, 0
1, 128391, Note_on_c, 0, 55, 0
1, 128391, Note_on_c, 0, 50, 0
1, 128395, Note_on_c, 0, 43, 0
1, 128456, Note_on_c, 0, 84, 0
1, 128472, Note_on_c, 0, 79, 0
1, 128500, Note_on_c, 0, 55, 53
1, 128517, Note_on_c, 0, 43, 28
1, 128517, Note_on_c, 0, 48, 43
1, 128526, Note_on_c, 0, 50, 38
1, 128565, Note_on_c, 0, 48, 0
1, 128565, Note_on_c, 0, 55, 0
1, 128572, Note_on_c, 0, 72, 0
1, 128572, Note_on_c, 0, 43, 0
1, 128572, Note_on_c, 0, 50, 0
1, 128683, Note_on_c, 0, 55, 57
1, 128693, Note_on_c, 0, 43, 26
1, 128698, Note_on_c, 0, 48, 35
1, 128698, Note_on_c, 0, 50, 30
1, 128748, Note_on_c, 0, 50, 0
1, 128748, Note_on_c, 0, 55, 0
1, 128748, Note_on_c, 0, 43, 0
1, 128748, Note_on_c, 0, 48, 0
1, 128848, Note_on_c, 0, 55, 54
1, 128859, Note_on_c, 0, 79, 84
1, 128862, Note_on_c, 0, 67, 68
1, 128862, Note_on_c, 0, 43, 32
1, 128874, Note_on_c, 0, 48, 25
1, 128877, Note_on_c, 0, 50, 29
1, 128918, Note_on_c, 0, 55, 0
1, 128924, Note_on_c, 0, 43, 0
1, 128927, Note_on_c, 0, 48, 0
1, 128927, Note_on_c, 0, 79, 0
1, 128932, Note_on_c, 0, 50, 0
1, 128948, Note_on_c, 0, 67, 0
1, 129036, Note_on_c, 0, 55, 73
1, 129049, Note_on_c, 0, 43, 38
1, 129055, Note_on_c, 0, 50, 34
1, 129058, Note_on_c, 0, 48, 36
1, 129099, Note_on_c, 0, 55, 0
1, 129105, Note_on_c, 0, 43, 0
1, 129105, Note_on_c, 0, 50, 0
1, 129105, Note_on_c, 0, 48, 0
1, 129210, Note_on_c, 0, 72, 88
1, 129210, Note_on_c, 0, 60, 87
1, 129210, Note_on_c, 0, 43, 48
1, 129214, Note_on_c, 0, 55, 67
1, 129230, Note_on_c, 0, 48, 32
1, 129241, Note_on_c, 0, 50, 30
1, 129263, Note_on_c, 0, 55, 0
1, 129277, Note_on_c, 0, 48, 0
1, 129289, Note_on_c, 0, 50, 0
1, 129294, Note_on_c, 0, 43, 0
1, 129358, Note_on_c, 0, 60, 0
1, 129367, Note_on_c, 0, 43, 50
1, 129377, Note_on_c, 0, 55, 66
1, 129377, Note_on_c, 0, 48, 26
1, 129384, Note_on_c, 0, 50, 17
1, 129389, Note_on_c, 0, 72, 0
1, 129430, Note_on_c, 0, 55, 0
1, 129450, Note_on_c, 0, 43, 0
1, 129453, Note_on_c, 0, 50, 0
1, 129464, Note_on_c, 0, 48, 0
1, 129534, Control_c, 0, 64, 0
1, 129550, Note_on_c, 0, 72, 83
1, 129554, Note_on_c, 0, 45, 62
1, 129558, Note_on_c, 0, 54, 65
1, 129558, Note_on_c, 0, 60, 74
1, 129561, Note_on_c, 0, 66, 61
1, 129561, Note_on_c, 0, 48, 33
1, 129582, Note_on_c, 0, 50, 53
1, 129637, Note_on_c, 0, 54, 0
1, 129643, Note_on_c, 0, 50, 0
1, 129662, Note_on_c, 0, 45, 0
1, 129662, Note_on_c, 0, 48, 0
1, 129701, Control_c, 0, 64, 127
1, 129714, Note_on_c, 0, 45, 60
1, 129721, Note_on_c, 0, 54, 51
1, 129728, Note_on_c, 0, 48, 51
1, 129749, Note_on_c, 0, 50, 38
1, 129810, Note_on_c, 0, 45, 0
1, 129813, Note_on_c, 0, 50, 0
1, 129820, Note_on_c, 0, 54, 0
1, 129829, Note_on_c, 0, 48, 0
1, 129899, Note_on_c, 0, 45, 43
1, 129899, Note_on_c, 0, 54, 68
1, 129913, Note_on_c, 0, 48, 26
1, 129927, Note_on_c, 0, 50, 43
1, 129951, Note_on_c, 0, 60, 0
1, 129982, Note_on_c, 0, 72, 0
1, 129987, Note_on_c, 0, 50, 0
1, 129991, Note_on_c, 0, 54, 0
1, 129991, Note_on_c, 0, 45, 0
1, 130001, Note_on_c, 0, 48, 0
1, 130069, Note_on_c, 0, 74, 94
1, 130074, Note_on_c, 0, 54, 62
1, 130074, Note_on_c, 0, 45, 44
1, 130074, Note_on_c, 0, 62, 76
1, 130083, Note_on_c, 0, 48, 32
1, 130097, Note_on_c, 0, 50, 40
1, 130138, Note_on_c, 0, 45, 0
1, 130150, Note_on_c, 0, 62, 0
1, 130153, Note_on_c, 0, 50, 0
1, 130163, Note_on_c, 0, 54, 0
1, 130174, Note_on_c, 0, 48, 0
1, 130183, Note_on_c, 0, 74, 0
1, 130236, Note_on_c, 0, 54, 71
1, 130244, Note_on_c, 0, 72, 94
1, 130252, Note_on_c, 0, 45, 61
1, 130252, Note_on_c, 0, 48, 29
1, 130252, Note_on_c, 0, 60, 84
1, 130264, Note_on_c, 0, 50, 43
1, 130311, Note_on_c, 0, 45, 0
1, 130311, Note_on_c, 0, 66, 0
1, 130323, Note_on_c, 0, 50, 0
1, 130331, Note_on_c, 0, 54, 0
1, 130339, Note_on_c, 0, 48, 0
1, 130411, Note_on_c, 0, 54, 67
1, 130425, Note_on_c, 0, 48, 29
1, 130431, Note_on_c, 0, 45, 55
1, 130437, Note_on_c, 0, 50, 51
1, 130448, Note_on_c, 0, 72, 0
1, 130448, Note_on_c, 0, 60, 0
1, 130486, Note_on_c, 0, 45, 0
1, 130486, Note_on_c, 0, 50, 0
1, 130494, Note_on_c, 0, 48, 0
1, 130509, Note_on_c, 0, 54, 0
1, 130581, Note_on_c, 0, 72, 98
1, 130585, Note_on_c, 0, 54, 65
1, 130590, Note_on_c, 0, 45, 66
1, 130590, Note_on_c, 0, 60, 74
1, 130628, Note_on_c, 0, 60, 0
1, 130628, Note_on_c, 0, 50, 25
1, 130628, Note_on_c, 0, 48, 21
1, 130668, Note_on_c, 0, 45, 0
1, 130668, Note_on_c, 0, 54, 0
1, 130692, Note_on_c, 0, 72, 0
1, 130692, Note_on_c, 0, 50, 0
1, 130692, Note_on_c, 0, 48, 0
1, 130757, Note_on_c, 0, 45, 46
1, 130757, Note_on_c, 0, 54, 62
1, 130760, Note_on_c, 0, 48, 35
1, 130765, Note_on_c, 0, 50, 37
1, 130830, Note_on_c, 0, 50, 0
1, 130835, Note_on_c, 0, 45, 0
1, 130840, Note_on_c, 0, 48, 0
1, 130854, Note_on_c, 0, 54, 0
1, 130924, Control_c, 0, 64, 0
1, 130940, Note_on_c, 0, 84, 107
1, 130944, Note_on_c, 0, 72, 95
1, 130947, Note_on_c, 0, 79, 95
1, 130951, Note_on_c, 0, 43, 82
1, 130951, Note_on_c, 0, 55, 81
1, 130957, Note_on_c, 0, 48, 63
1, 130957, Note_on_c, 0, 50, 68
1, 131035, Note_on_c, 0, 48, 0
1, 131035, Note_on_c, 0, 55, 0
1, 131040, Note_on_c, 0, 43, 0
1, 131040, Note_on_c, 0, 50, 0
1, 131080, Control_c, 0, 64, 127
1, 131105, Note_on_c, 0, 43, 57
1, 131111, Note_on_c, 0, 55, 54
1, 131121, Note_on_c, 0, 48, 38
1, 131127, Note_on_c, 0, 50, 38
1, 131181, Note_on_c, 0, 50, 0
1, 131186, Note_on_c, 0, 48, 0
1, 131196, Note_on_c, 0, 55, 0
1, 131200, Note_on_c, 0, 43, 0
1, 131291, Note_on_c, 0, 55, 51
1, 131291, Note_on_c, 0, 43, 48
1, 131294, Note_on_c, 0, 84, 0
1, 131302, Note_on_c, 0, 48, 44
1, 131311, Note_on_c, 0, 50, 52
1, 131333, Note_on_c, 0, 79, 0
1, 131358, Note_on_c, 0, 48, 0
1, 131358, Note_on_c, 0, 50, 0
1, 131369, Note_on_c, 0, 43, 0
1, 131380, Note_on_c, 0, 55, 0
1, 131408, Note_on_c, 0, 72, 0
1, 131478, Note_on_c, 0, 55, 55
1, 131486, Note_on_c, 0, 48, 47
1, 131495, Note_on_c, 0, 50, 48
1, 131495, Note_on_c, 0, 43, 50
1, 131545, Note_on_c, 0, 43, 0
1, 131545, Note_on_c, 0, 50, 0
1, 131551, Note_on_c, 0, 48, 0
1, 131567, Note_on_c, 0, 55, 0
1, 131665, Note_on_c, 0, 55, 56
1, 131668, Note_on_c, 0, 79, 93
1, 131673, Note_on_c, 0, 67, 74
1, 131673, Note_on_c, 0, 43, 52
1, 131684, Note_on_c, 0, 48, 51
1, 131690, Note_on_c, 0, 50, 44
1, 131732, Note_on_c, 0, 48, 0
1, 131735, Note_on_c, 0, 43, 0
1, 131738, Note_on_c, 0, 50, 0
1, 131742, Note_on_c, 0, 79, 0
1, 131756, Note_on_c, 0, 67, 0
1, 131756, Note_on_c, 0, 55, 0
1, 131857, Note_on_c, 0, 55, 58
1, 131857, Note_on_c, 0, 43, 62
1, 131857, Note_on_c, 0, 48, 46
1, 131879, Note_on_c, 0, 50, 54
1, 131922, Note_on_c, 0, 43, 0
1, 131926, Note_on_c, 0, 50, 0
1, 131929, Note_on_c, 0, 48, 0
1, 131933, Note_on_c, 0, 55, 0
1, 132032, Note_on_c, 0, 55, 73
1, 132038, Note_on_c, 0, 72, 92
1, 132038, Note_on_c, 0, 60, 84
1, 132038, Note_on_c, 0, 43, 69
1, 132069, Note_on_c, 0, 48, 33
1, 132069, Note_on_c, 0, 50, 36
1, 132078, Note_on_c, 0, 60, 0
1, 132078, Note_on_c, 0, 55, 0
1, 132081, Note_on_c, 0, 43, 0
1, 132081, Note_on_c, 0, 72, 0
1, 132124, Note_on_c, 0, 50, 0
1, 132124, Note_on_c, 0, 48, 0
1, 132139, Note_on_c, 0, 72, 79
1, 132146, Note_on_c, 0, 60, 60
1, 132161, Note_on_c, 0, 55, 71
1, 132174, Note_on_c, 0, 43, 40
1, 132191, Note_on_c, 0, 72, 0
1, 132191, Note_on_c, 0, 48, 24
1, 132191, Note_on_c, 0, 50, 43
1, 132200, Note_on_c, 0, 60, 0
1, 132203, Note_on_c, 0, 55, 0
1, 132225, Note_on_c, 0, 43, 0
1, 132242, Note_on_c, 0, 48, 0
1, 132247, Note_on_c, 0, 50, 0
1, 132266, Note_on_c, 0, 72, 78
1, 132269, Note_on_c, 0, 60, 76
1, 132345, Note_on_c, 0, 60, 0
1, 132359, Note_on_c, 0, 72, 0
1, 132445, Control_c, 0, 64, 0
1, 132449, Note_on_c, 0, 64, 98
1, 132449, Note_on_c, 0, 72, 89
1, 132452, Note_on_c, 0, 60, 92
1, 132459, Note_on_c, 0, 54, 69
1, 132475, Note_on_c, 0, 57, 57
1, 132515, Note_on_c, 0, 54, 0
1, 132537, Note_on_c, 0, 57, 0
1, 132626, Control_c, 0, 64, 127
1, 132657, Note_on_c, 0, 54, 43
1, 132660, Note_on_c, 0, 57, 47
1, 132721, Note_on_c, 0, 57, 0
1, 132729, Note_on_c, 0, 54, 0
1, 132855, Note_on_c, 0, 57, 38
1, 132855, Note_on_c, 0, 54, 58
1, 132888, Note_on_c, 0, 64, 0
1, 132893, Note_on_c, 0, 60, 0
1, 132908, Note_on_c, 0, 54, 0
1, 132908, Note_on_c, 0, 57, 0
1, 133005, Note_on_c, 0, 62, 87
1, 133024, Note_on_c, 0, 54, 76
1, 133032, Note_on_c, 0, 57, 61
1, 133061, Note_on_c, 0, 72, 0
1, 133068, Note_on_c, 0, 54, 0
1, 133075, Note_on_c, 0, 57, 0
1, 133086, Note_on_c, 0, 62, 0
1, 133177, Note_on_c, 0, 64, 109
1, 133188, Note_on_c, 0, 54, 82
1, 133194, Note_on_c, 0, 57, 68
1, 133272, Note_on_c, 0, 54, 0
1, 133300, Note_on_c, 0, 57, 0
1, 133355, Note_on_c, 0, 57, 58
1, 133365, Note_on_c, 0, 54, 57
1, 133422, Note_on_c, 0, 64, 0
1, 133453, Note_on_c, 0, 57, 0
1, 133459, Note_on_c, 0, 54, 0
1, 133550, Note_on_c, 0, 72, 101
1, 133550, Note_on_c, 0, 60, 102
1, 133553, Note_on_c, 0, 62, 90
1, 133584, Note_on_c, 0, 54, 49
1, 133592, Note_on_c, 0, 57, 34
1, 133615, Note_on_c, 0, 60, 0
1, 133615, Note_on_c, 0, 72, 0
1, 133628, Note_on_c, 0, 54, 0
1, 133643, Note_on_c, 0, 57, 0
1, 133656, Note_on_c, 0, 62, 0
1, 133679, Note_on_c, 0, 72, 69
1, 133684, Note_on_c, 0, 60, 69
1, 133712, Note_on_c, 0, 57, 43
1, 133724, Note_on_c, 0, 54, 57
1, 133737, Note_on_c, 0, 60, 0
1, 133746, Note_on_c, 0, 72, 0
1, 133771, Note_on_c, 0, 54, 0
1, 133798, Note_on_c, 0, 72, 86
1, 133801, Note_on_c, 0, 57, 0
1, 133801, Note_on_c, 0, 60, 77
1, 133872, Note_on_c, 0, 60, 0
1, 133880, Note_on_c, 0, 72, 0
1, 133908, Control_c, 0, 64, 0
1, 133921, Note_on_c, 0, 64, 109
1, 133921, Note_on_c, 0, 72, 95
1, 133925, Note_on_c, 0, 54, 86
1, 133925, Note_on_c, 0, 57, 61
1, 133925, Note_on_c, 0, 60, 82
1, 134010, Note_on_c, 0, 54, 0
1, 134027, Note_on_c, 0, 57, 0
1, 134064, Control_c, 0, 64, 127
1, 134091, Note_on_c, 0, 57, 52
1, 134097, Note_on_c, 0, 54, 62
1, 134191, Note_on_c, 0, 57, 0
1, 134191, Note_on_c, 0, 64, 0
1, 134195, Note_on_c, 0, 54, 0
1, 134236, Note_on_c, 0, 60, 0
1, 134267, Note_on_c, 0, 57, 54
1, 134267, Note_on_c, 0, 62, 92
1, 134267, Note_on_c, 0, 54, 71
1, 134359, Note_on_c, 0, 54, 0
1, 134375, Note_on_c, 0, 57, 0
1, 134436, Note_on_c, 0, 57, 51
1, 134447, Note_on_c, 0, 54, 58
1, 134493, Note_on_c, 0, 62, 0
1, 134504, Note_on_c, 0, 54, 0
1, 134523, Note_on_c, 0, 57, 0
1, 134587, Note_on_c, 0, 72, 0
1, 134606, Note_on_c, 0, 64, 113
1, 134617, Note_on_c, 0, 54, 83
1, 134621, Note_on_c, 0, 57, 55
1, 134695, Note_on_c, 0, 54, 0
1, 134724, Note_on_c, 0, 57, 0
1, 134779, Note_on_c, 0, 57, 62
1, 134796, Note_on_c, 0, 54, 63
1, 134841, Note_on_c, 0, 54, 0
1, 134852, Note_on_c, 0, 64, 0
1, 134874, Note_on_c, 0, 57, 0
1, 134949, Note_on_c, 0, 60, 95
1, 134949, Note_on_c, 0, 72, 94
1, 134949, Note_on_c, 0, 62, 84
1, 134957, Note_on_c, 0, 57, 41
1, 134972, Note_on_c, 0, 54, 51
1, 135013, Note_on_c, 0, 54, 0
1, 135016, Note_on_c, 0, 57, 0
1, 135022, Note_on_c, 0, 60, 0
1, 135022, Note_on_c, 0, 72, 0
1, 135066, Note_on_c, 0, 72, 94
1, 135066, Note_on_c, 0, 60, 94
1, 135113, Note_on_c, 0, 62, 0
1, 135113, Note_on_c, 0, 54, 59
1, 135120, Note_on_c, 0, 57, 40
1, 135138, Note_on_c, 0, 60, 0
1, 135142, Note_on_c, 0, 72, 0
1, 135164, Note_on_c, 0, 54, 0
1, 135164, Note_on_c, 0, 57, 0
1, 135186, Note_on_c, 0, 60, 85
1, 135186, Note_on_c, 0, 72, 94
1, 135287, Note_on_c, 0, 60, 0
1, 135298, Note_on_c, 0, 72, 0
1, 135311, Control_c, 0, 64, 0
1, 135331, Note_on_c, 0, 64, 111
1, 135335, Note_on_c, 0, 72, 101
1, 135339, Note_on_c, 0, 66, 82
1, 135339, Note_on_c, 0, 60, 90
1, 135344, Note_on_c, 0, 57, 93
1, 135454, Note_on_c, 0, 57, 0
1, 135478, Control_c, 0, 64, 127
1, 135548, Note_on_c, 0, 57, 42
1, 135607, Note_on_c, 0, 72, 0
1, 135610, Note_on_c, 0, 60, 0
1, 135621, Note_on_c, 0, 64, 0
1, 135626, Note_on_c, 0, 57, 0
1, 135643, Note_on_c, 0, 66, 0
1, 135723, Note_on_c, 0, 72, 87
1, 135723, Note_on_c, 0, 62, 86
1, 135727, Note_on_c, 0, 60, 86
1, 135740, Note_on_c, 0, 57, 60
1, 135763, Note_on_c, 0, 60, 0
1, 135763, Note_on_c, 0, 72, 0
1, 135779, Note_on_c, 0, 57, 0
1, 135793, Note_on_c, 0, 62, 0
1, 135838, Note_on_c, 0, 72, 76
1, 135838, Note_on_c, 0, 60, 65
1, 135861, Note_on_c, 0, 57, 51
1, 135872, Note_on_c, 0, 72, 0
1, 135872, Note_on_c, 0, 62, 43
1, 135883, Note_on_c, 0, 60, 0
1, 135908, Note_on_c, 0, 57, 0
1, 135916, Note_on_c, 0, 62, 0
1, 135957, Note_on_c, 0, 60, 77
1, 135957, Note_on_c, 0, 72, 77
1, 136013, Note_on_c, 0, 72, 0
1, 136028, Note_on_c, 0, 60, 0
1, 136066, Control_c, 0, 64, 0
1, 136083, Note_on_c, 0, 64, 111
1, 136083, Note_on_c, 0, 72, 95
1, 136086, Note_on_c, 0, 57, 96
1, 136091, Note_on_c, 0, 60, 86
1, 136091, Note_on_c, 0, 66, 82
1, 136191, Note_on_c, 0, 57, 0
1, 136220, Control_c, 0, 64, 127
1, 136272, Note_on_c, 0, 57, 49
1, 136319, Note_on_c, 0, 60, 0
1, 136319, Note_on_c, 0, 72, 0
1, 136334, Note_on_c, 0, 64, 0
1, 136334, Note_on_c, 0, 66, 0
1, 136340, Note_on_c, 0, 57, 0
1, 136436, Note_on_c, 0, 72, 94
1, 136436, Note_on_c, 0, 60, 98
1, 136442, Note_on_c, 0, 66, 71
1, 136442, Note_on_c, 0, 62, 96
1, 136453, Note_on_c, 0, 57, 75
1, 136482, Note_on_c, 0, 66, 0
1, 136490, Note_on_c, 0, 57, 0
1, 136493, Note_on_c, 0, 72, 0
1, 136501, Note_on_c, 0, 60, 0
1, 136526, Note_on_c, 0, 62, 0
1, 136553, Note_on_c, 0, 72, 82
1, 136556, Note_on_c, 0, 60, 81
1, 136598, Note_on_c, 0, 72, 0
1, 136607, Note_on_c, 0, 57, 64
1, 136613, Note_on_c, 0, 60, 0
1, 136646, Note_on_c, 0, 57, 0
1, 136668, Note_on_c, 0, 72, 84
1, 136668, Note_on_c, 0, 60, 88
1, 136740, Note_on_c, 0, 60, 0
1, 136740, Note_on_c, 0, 72, 0
1, 136794, Note_on_c, 0, 64, 113
1, 136794, Note_on_c, 0, 72, 88
1, 136799, Note_on_c, 0, 57, 98
1, 136799, Note_on_c, 0, 60, 87
1, 136799, Note_on_c, 0, 66, 89
1, 136894, Note_on_c, 0, 57, 0
1, 136975, Note_on_c, 0, 57, 63
1, 137022, Note_on_c, 0, 64, 0
1, 137033, Note_on_c, 0, 72, 0
1, 137038, Note_on_c, 0, 60, 0
1, 137049, Note_on_c, 0, 66, 0
1, 137064, Note_on_c, 0, 57, 0
1, 137147, Note_on_c, 0, 72, 97
1, 137147, Note_on_c, 0, 60, 103
1, 137150, Note_on_c, 0, 62, 100
1, 137155, Note_on_c, 0, 66, 76
1, 137158, Note_on_c, 0, 57, 69
1, 137202, Note_on_c, 0, 57, 0
1, 137211, Note_on_c, 0, 66, 0
1, 137222, Note_on_c, 0, 62, 0
1, 137222, Note_on_c, 0, 60, 0
1, 137236, Note_on_c, 0, 72, 0
1, 137270, Note_on_c, 0, 60, 90
1, 137276, Note_on_c, 0, 72, 96
1, 137312, Note_on_c, 0, 72, 0
1, 137326, Note_on_c, 0, 57, 66
1, 137339, Note_on_c, 0, 60, 0
1, 137364, Note_on_c, 0, 57, 0
1, 137390, Note_on_c, 0, 60, 88
1, 137390, Note_on_c, 0, 72, 86
1, 137453, Note_on_c, 0, 72, 0
1, 137467, Note_on_c, 0, 60, 0
1, 137509, Note_on_c, 0, 72, 101
1, 137509, Note_on_c, 0, 64, 111
1, 137512, Note_on_c, 0, 60, 107
1, 137515, Note_on_c, 0, 66, 92
1, 137515, Note_on_c, 0, 57, 98
1, 137579, Note_on_c, 0, 57, 0
1, 137690, Note_on_c, 0, 57, 79
1, 137705, Note_on_c, 0, 66, 0
1, 137743, Note_on_c, 0, 64, 0
1, 137751, Note_on_c, 0, 60, 0
1, 137760, Note_on_c, 0, 72, 0
1, 137779, Note_on_c, 0, 57, 0
1, 137882, Note_on_c, 0, 72, 101
1, 137882, Note_on_c, 0, 60, 106
1, 137882, Note_on_c, 0, 62, 99
1, 137888, Note_on_c, 0, 57, 87
1, 137928, Note_on_c, 0, 57, 0
1, 137946, Note_on_c, 0, 72, 0
1, 137946, Note_on_c, 0, 60, 0
1, 137967, Note_on_c, 0, 62, 0
1, 138008, Note_on_c, 0, 72, 77
1, 138008, Note_on_c, 0, 60, 83
1, 138075, Note_on_c, 0, 57, 88
1, 138080, Note_on_c, 0, 60, 0
1, 138088, Note_on_c, 0, 72, 0
1, 138128, Note_on_c, 0, 72, 101
1, 138128, Note_on_c, 0, 60, 90
1, 138150, Note_on_c, 0, 57, 0
1, 138166, Note_on_c, 0, 60, 0
1, 138191, Note_on_c, 0, 72, 0
1, 138421, Note_on_c, 0, 84, 115
1, 138421, Note_on_c, 0, 78, 100
1, 138425, Note_on_c, 0, 76, 97
1, 138425, Note_on_c, 0, 72, 112
1, 138431, Note_on_c, 0, 33, 111
1, 138435, Note_on_c, 0, 45, 87
1, 138607, Control_c, 0, 64, 0
1, 138918, Control_c, 0, 64, 127
1, 139005, Note_on_c, 0, 72, 0
1, 139025, Note_on_c, 0, 84, 0
1, 139033, Note_on_c, 0, 78, 0
1, 139045, Note_on_c, 0, 76, 0
1, 139120, Note_on_c, 0, 33, 0
1, 139137, Note_on_c, 0, 45, 0
1, 139191, Note_on_c, 0, 83, 126
1, 139191, Note_on_c, 0, 78, 37
1, 139195, Note_on_c, 0, 71, 111
1, 139195, Note_on_c, 0, 75, 91
1, 139195, Note_on_c, 0, 69, 96
1, 139203, Note_on_c, 0, 35, 103
1, 139203, Note_on_c, 0, 47, 105
1, 139613, Control_c, 0, 64, 0
1, 139755, Note_on_c, 0, 47, 0
1, 139755, Note_on_c, 0, 83, 0
1, 139755, Control_c, 0, 64, 127
1, 139760, Note_on_c, 0, 35, 0
1, 139765, Note_on_c, 0, 69, 0
1, 139765, Note_on_c, 0, 71, 0
1, 139786, Note_on_c, 0, 75, 0
1, 139789, Note_on_c, 0, 78, 0
1, 139857, Note_on_c, 0, 78, 91
1, 139860, Note_on_c, 0, 75, 79
1, 139863, Note_on_c, 0, 47, 103
1, 139863, Note_on_c, 0, 69, 78
1, 139866, Note_on_c, 0, 71, 104
1, 139866, Note_on_c, 0, 35, 107
1, 139899, Note_on_c, 0, 35, 0
1, 139928, Note_on_c, 0, 71, 0
1, 139931, Note_on_c, 0, 47, 0
1, 139939, Note_on_c, 0, 69, 0
1, 139953, Note_on_c, 0, 75, 0
1, 139975, Note_on_c, 0, 78, 0
1, 139999, Note_on_c, 0, 75, 89
1, 139999, Note_on_c, 0, 71, 112
1, 139999, Note_on_c, 0, 69, 86
1, 139999, Note_on_c, 0, 81, 109
1, 140006, Note_on_c, 0, 78, 103
1, 140006, Note_on_c, 0, 52, 111
1, 140010, Note_on_c, 0, 40, 113
1, 140242, Note_on_c, 0, 81, 0
1, 140281, Note_on_c, 0, 71, 0
1, 140287, Note_on_c, 0, 69, 0
1, 140354, Note_on_c, 0, 75, 0
1, 140364, Note_on_c, 0, 78, 0
1, 140398, Note_on_c, 0, 67, 111
1, 140398, Note_on_c, 0, 79, 109
1, 140398, Note_on_c, 0, 76, 95
1, 140404, Control_c, 0, 64, 0
1, 140560, Control_c, 0, 64, 127
1, 140563, Note_on_c, 0, 76, 0
1, 140588, Note_on_c, 0, 79, 0
1, 140641, Note_on_c, 0, 40, 0
1, 140677, Note_on_c, 0, 67, 0
1, 140694, Note_on_c, 0, 52, 0
1, 140755, Note_on_c, 0, 77, 103
1, 140758, Note_on_c, 0, 65, 102
1, 140758, Note_on_c, 0, 74, 92
1, 140761, Note_on_c, 0, 69, 82
1, 140761, Note_on_c, 0, 53, 108
1, 140765, Note_on_c, 0, 41, 93
1, 140775, Control_c, 0, 64, 0
1, 140889, Note_on_c, 0, 53, 0
1, 140889, Note_on_c, 0, 65, 0
1, 140900, Note_on_c, 0, 77, 0
1, 140908, Note_on_c, 0, 41, 0
1, 140919, Control_c, 0, 64, 127
1, 140925, Note_on_c, 0, 69, 0
1, 140925, Note_on_c, 0, 74, 0
1, 141126, Note_on_c, 0, 74, 107
1, 141133, Note_on_c, 0, 65, 95
1, 141133, Note_on_c, 0, 69, 87
1, 141139, Note_on_c, 0, 53, 109
1, 141142, Note_on_c, 0, 41, 92
1, 141159, Control_c, 0, 64, 0
1, 141237, Note_on_c, 0, 53, 0
1, 141267, Note_on_c, 0, 69, 0
1, 141267, Note_on_c, 0, 65, 0
1, 141267, Control_c, 0, 64, 127
1, 141281, Note_on_c, 0, 41, 0
1, 141398, Note_on_c, 0, 74, 0
1, 141398, Note_on_c, 0, 64, 66
1, 141446, Control_c, 0, 64, 0
1, 141482, Note_on_c, 0, 67, 80
1, 141510, Note_on_c, 0, 43, 101
1, 141513, Note_on_c, 0, 31, 106
1, 141527, Note_on_c, 0, 72, 95
1, 141571, Note_on_c, 0, 64, 0
1, 141599, Note_on_c, 0, 67, 0
1, 141599, Control_c, 0, 64, 127
1, 141643, Note_on_c, 0, 74, 85
1, 141652, Note_on_c, 0, 31, 0
1, 141660, Note_on_c, 0, 43, 0
1, 141672, Note_on_c, 0, 72, 0
1, 141677, Note_on_c, 0, 74, 0
1, 141710, Note_on_c, 0, 72, 93
1, 141791, Note_on_c, 0, 74, 73
1, 141794, Note_on_c, 0, 72, 0
1, 141839, Note_on_c, 0, 74, 0
1, 141839, Note_on_c, 0, 72, 86
1, 141916, Note_on_c, 0, 74, 80
1, 141921, Note_on_c, 0, 72, 0
1, 141972, Note_on_c, 0, 72, 73
1, 142023, Note_on_c, 0, 74, 0
1, 142073, Note_on_c, 0, 71, 94
1, 142095, Note_on_c, 0, 72, 0
1, 142147, Note_on_c, 0, 72, 82
1, 142184, Note_on_c, 0, 71, 0
1, 142226, Control_c, 0, 64, 0
1, 142236, Note_on_c, 0, 74, 110
1, 142240, Note_on_c, 0, 43, 86
1, 142240, Note_on_c, 0, 67, 91
1, 142240, Note_on_c, 0, 55, 97
1, 142244, Note_on_c, 0, 65, 98
1, 142281, Note_on_c, 0, 72, 0
1, 142370, Control_c, 0, 64, 127
1, 142410, Note_on_c, 0, 67, 0
1, 142417, Note_on_c, 0, 55, 0
1, 142417, Note_on_c, 0, 65, 0
1, 142463, Note_on_c, 0, 43, 0
1, 142512, Note_on_c, 0, 74, 0
1, 142593, Note_on_c, 0, 67, 102
1, 142593, Note_on_c, 0, 65, 91
1, 142598, Note_on_c, 0, 55, 94
1, 142598, Note_on_c, 0, 43, 85
1, 142644, Note_on_c, 0, 55, 0
1, 142697, Note_on_c, 0, 43, 0
1, 142710, Note_on_c, 0, 65, 0
1, 142719, Note_on_c, 0, 67, 0
1, 142838, Note_on_c, 0, 74, 79
1, 142869, Note_on_c, 0, 74, 0
1, 142908, Control_c, 0, 64, 0
1, 142928, Note_on_c, 0, 76, 110
1, 142928, Note_on_c, 0, 67, 100
1, 142935, Note_on_c, 0, 64, 107
1, 142939, Note_on_c, 0, 48, 84
1, 142944, Note_on_c, 0, 36, 88
1, 143037, Note_on_c, 0, 36, 0
1, 143075, Note_on_c, 0, 48, 0
1, 143075, Control_c, 0, 64, 127
1, 143087, Note_on_c, 0, 76, 0
1, 143106, Note_on_c, 0, 67, 0
1, 143139, Note_on_c, 0, 64, 0
1, 143284, Note_on_c, 0, 55, 85
1, 143287, Note_on_c, 0, 60, 91
1, 143290, Note_on_c, 0, 43, 73
1, 143328, Note_on_c, 0, 55, 0
1, 143351, Note_on_c, 0, 43, 0
1, 143381, Note_on_c, 0, 60, 0
1, 143442, Note_on_c, 0, 64, 97
1, 143579, Note_on_c, 0, 64, 0
1, 143610, Note_on_c, 0, 67, 93
1, 143621, Note_on_c, 0, 52, 104
1, 143627, Note_on_c, 0, 40, 105
1, 143688, Note_on_c, 0, 52, 0
1, 143708, Note_on_c, 0, 40, 0
1, 143722, Note_on_c, 0, 67, 0
1, 143768, Note_on_c, 0, 60, 87
1, 143771, Note_on_c, 0, 72, 91
1, 143805, Note_on_c, 0, 60, 0
1, 143822, Note_on_c, 0, 72, 0
1, 143936, Note_on_c, 0, 76, 97
1, 143936, Note_on_c, 0, 48, 90
1, 143936, Note_on_c, 0, 64, 94
1, 143944, Note_on_c, 0, 36, 94
1, 143964, Note_on_c, 0, 76, 0
1, 143967, Note_on_c, 0, 64, 0
1, 144033, Note_on_c, 0, 48, 0
1, 144056, Note_on_c, 0, 36, 0
1, 144101, Note_on_c, 0, 79, 106
1, 144104, Note_on_c, 0, 67, 92
1, 144129, Note_on_c, 0, 79, 0
1, 144132, Note_on_c, 0, 67, 0
1, 144303, Note_on_c, 0, 84, 118
1, 144303, Note_on_c, 0, 78, 100
1, 144303, Note_on_c, 0, 76, 98
1, 144303, Note_on_c, 0, 72, 111
1, 144307, Note_on_c, 0, 45, 102
1, 144312, Control_c, 0, 64, 0
1, 144312, Note_on_c, 0, 33, 101
1, 144838, Control_c, 0, 64, 127
1, 144885, Note_on_c, 0, 72, 0
1, 144903, Note_on_c, 0, 78, 0
1, 144924, Note_on_c, 0, 84, 0
1, 144936, Note_on_c, 0, 76, 0
1, 144936, Note_on_c, 0, 33, 0
1, 145039, Note_on_c, 0, 45, 0
1, 145117, Note_on_c, 0, 83, 127
1, 145117, Note_on_c, 0, 78, 97
1, 145122, Note_on_c, 0, 71, 111
1, 145122, Note_on_c, 0, 75, 92
1, 145122, Note_on_c, 0, 69, 98
1, 145122, Note_on_c, 0, 47, 103
1, 145128, Note_on_c, 0, 35, 107
1, 145401, Control_c, 0, 64, 0
1, 145557, Note_on_c, 0, 83, 0
1, 145557, Control_c, 0, 64, 127
1, 145579, Note_on_c, 0, 35, 0
1, 145593, Note_on_c, 0, 69, 0
1, 145593, Note_on_c, 0, 71, 0
1, 145604, Note_on_c, 0, 47, 0
1, 145613, Note_on_c, 0, 75, 0
1, 145613, Note_on_c, 0, 78, 0
1, 145733, Note_on_c, 0, 75, 94
1, 145733, Note_on_c, 0, 78, 100
1, 145733, Note_on_c, 0, 47, 101
1, 145737, Note_on_c, 0, 71, 99
1, 145737, Note_on_c, 0, 35, 106
1, 145737, Note_on_c, 0, 69, 91
1, 145767, Note_on_c, 0, 35, 0
1, 145816, Note_on_c, 0, 47, 0
1, 145825, Note_on_c, 0, 69, 0
1, 145833, Note_on_c, 0, 71, 0
1, 145850, Note_on_c, 0, 75, 0
1, 145858, Note_on_c, 0, 78, 0
1, 145888, Note_on_c, 0, 81, 109
1, 145888, Note_on_c, 0, 69, 78
1, 145888, Note_on_c, 0, 75, 95
1, 145888, Note_on_c, 0, 71, 101
1, 145894, Note_on_c, 0, 52, 113
1, 145894, Note_on_c, 0, 78, 104
1, 145899, Note_on_c, 0, 40, 113
1, 146151, Note_on_c, 0, 81, 0
1, 146162, Note_on_c, 0, 71, 0
1, 146173, Note_on_c, 0, 69, 0
1, 146232, Note_on_c, 0, 75, 0
1, 146232, Note_on_c, 0, 78, 0
1, 146257, Note_on_c, 0, 79, 106
1, 146262, Note_on_c, 0, 67, 102
1, 146262, Note_on_c, 0, 76, 86
1, 146265, Control_c, 0, 64, 0
1, 146420, Control_c, 0, 64, 127
1, 146424, Note_on_c, 0, 76, 0
1, 146448, Note_on_c, 0, 79, 0
1, 146513, Note_on_c, 0, 67, 0
1, 146527, Note_on_c, 0, 40, 0
1, 146557, Note_on_c, 0, 52, 0
1, 146611, Control_c, 0, 64, 0
1, 146611, Note_on_c, 0, 77, 100
1, 146615, Note_on_c, 0, 65, 92
1, 146621, Note_on_c, 0, 74, 87
1, 146621, Note_on_c, 0, 69, 68
1, 146621, Note_on_c, 0, 53, 108
1, 146629, Note_on_c, 0, 41, 91
1, 146746, Note_on_c, 0, 53, 0
1, 146750, Note_on_c, 0, 65, 0
1, 146750, Note_on_c, 0, 77, 0
1, 146755, Control_c, 0, 64, 127
1, 146758, Note_on_c, 0, 41, 0
1, 146771, Note_on_c, 0, 74, 0
1, 146775, Note_on_c, 0, 69, 0
1, 146913, Control_c, 0, 64, 0
1, 146962, Note_on_c, 0, 74, 106
1, 146970, Note_on_c, 0, 65, 92
1, 146970, Note_on_c, 0, 53, 109
1, 146970, Note_on_c, 0, 69, 82
1, 146976, Note_on_c, 0, 41, 94
1, 147037, Note_on_c, 0, 53, 0
1, 147054, Control_c, 0, 64, 127
1, 147061, Note_on_c, 0, 41, 0
1, 147067, Note_on_c, 0, 65, 0
1, 147076, Note_on_c, 0, 69, 0
1, 147157, Note_on_c, 0, 74, 0
1, 147195, Note_on_c, 0, 64, 74
1, 147279, Note_on_c, 0, 67, 79
1, 147312, Note_on_c, 0, 64, 0
1, 147329, Note_on_c, 0, 43, 100
1, 147332, Note_on_c, 0, 31, 103
1, 147335, Note_on_c, 0, 72, 101
1, 147391, Note_on_c, 0, 67, 0
1, 147391, Control_c, 0, 64, 0
1, 147446, Note_on_c, 0, 74, 87
1, 147487, Note_on_c, 0, 72, 0
1, 147487, Control_c, 0, 64, 127
1, 147527, Note_on_c, 0, 74, 0
1, 147527, Note_on_c, 0, 72, 91
1, 147574, Note_on_c, 0, 31, 0
1, 147594, Note_on_c, 0, 74, 73
1, 147608, Note_on_c, 0, 72, 0
1, 147638, Note_on_c, 0, 43, 0
1, 147660, Note_on_c, 0, 72, 77
1, 147680, Note_on_c, 0, 74, 0
1, 147724, Note_on_c, 0, 74, 101
1, 147742, Note_on_c, 0, 72, 0
1, 147785, Note_on_c, 0, 72, 91
1, 147831, Note_on_c, 0, 74, 0
1, 147872, Note_on_c, 0, 71, 102
1, 147889, Note_on_c, 0, 72, 0
1, 147950, Note_on_c, 0, 72, 79
1, 148011, Note_on_c, 0, 71, 0
1, 148033, Note_on_c, 0, 76, 105
1, 148033, Note_on_c, 0, 55, 100
1, 148044, Note_on_c, 0, 43, 84
1, 148048, Note_on_c, 0, 48, 77
1, 148051, Note_on_c, 0, 52, 92
1, 148084, Note_on_c, 0, 72, 0
1, 148090, Note_on_c, 0, 52, 0
1, 148103, Note_on_c, 0, 48, 0
1, 148111, Note_on_c, 0, 55, 0
1, 148142, Note_on_c, 0, 43, 0
1, 148298, Note_on_c, 0, 76, 0
1, 148385, Control_c, 0, 64, 0
1, 148402, Note_on_c, 0, 67, 97
1, 148402, Note_on_c, 0, 65, 82
1, 148405, Note_on_c, 0, 74, 104
1, 148410, Note_on_c, 0, 71, 95
1, 148418, Note_on_c, 0, 43, 83
1, 148418, Note_on_c, 0, 31, 90
1, 148527, Note_on_c, 0, 43, 0
1, 148530, Control_c, 0, 64, 127
1, 148540, Note_on_c, 0, 31, 0
1, 148555, Note_on_c, 0, 71, 0
1, 148560, Note_on_c, 0, 67, 0
1, 148566, Note_on_c, 0, 65, 0
1, 148605, Note_on_c, 0, 74, 0
1, 148710, Note_on_c, 0, 76, 82
1, 148758, Control_c, 0, 64, 0
1, 148802, Note_on_c, 0, 65, 98
1, 148802, Note_on_c, 0, 71, 106
1, 148802, Note_on_c, 0, 74, 108
1, 148806, Note_on_c, 0, 43, 98
1, 148806, Note_on_c, 0, 67, 104
1, 148809, Note_on_c, 0, 31, 101
1, 148861, Note_on_c, 0, 76, 0
1, 149073, Note_on_c, 0, 31, 0
1, 149117, Control_c, 0, 64, 127
1, 149187, Note_on_c, 0, 67, 0
1, 149371, Note_on_c, 0, 65, 0
1, 149596, Note_on_c, 0, 72, 92
1, 149596, Note_on_c, 0, 64, 86
1, 149602, Note_on_c, 0, 48, 69
1, 149610, Note_on_c, 0, 36, 71
1, 149650, Note_on_c, 0, 43, 0
1, 149657, Note_on_c, 0, 74, 0
1, 149657, Control_c, 0, 64, 0
1, 149733, Note_on_c, 0, 71, 0
1, 149884, Control_c, 0, 64, 127
1, 149922, Note_on_c, 0, 36, 0
1, 149945, Note_on_c, 0, 48, 0
1, 149955, Note_on_c, 0, 64, 0
1, 149972, Note_on_c, 0, 72, 0
1, 150051, Control_c, 0, 64, 0
1, 150349, Note_on_c, 0, 72, 98
1, 150349, Note_on_c, 0, 60, 98
1, 150353, Note_on_c, 0, 48, 100
1, 150353, Note_on_c, 0, 64, 95
1, 150353, Note_on_c, 0, 67, 92
1, 150359, Note_on_c, 0, 36, 100
1, 150458, Control_c, 0, 64, 127
1, 150672, Note_on_c, 0, 36, 0
1, 150672, Note_on_c, 0, 48, 0
1, 150791, Note_on_c, 0, 48, 100
1, 150795, Note_on_c, 0, 36, 103
1, 150898, Note_on_c, 0, 64, 0
1, 150903, Note_on_c, 0, 48, 0
1, 150909, Note_on_c, 0, 67, 0
1, 150909, Note_on_c, 0, 36, 0
1, 150919, Note_on_c, 0, 72, 0
1, 150950, Note_on_c, 0, 60, 0
1, 151042, Note_on_c, 0, 48, 95
1, 151047, Note_on_c, 0, 36, 94
1, 151073, Note_on_c, 0, 36, 0
1, 151095, Note_on_c, 0, 48, 0
1, 151118, Control_c, 0, 64, 0
1, 151137, Note_on_c, 0, 72, 101
1, 151137, Note_on_c, 0, 60, 106
1, 151142, Note_on_c, 0, 67, 96
1, 151145, Note_on_c, 0, 64, 96
1, 151156, Note_on_c, 0, 52, 112
1, 151160, Note_on_c, 0, 40, 108
1, 151323, Control_c, 0, 64, 127
1, 151379, Note_on_c, 0, 64, 0
1, 151396, Note_on_c, 0, 60, 0
1, 151399, Note_on_c, 0, 67, 0
1, 151413, Note_on_c, 0, 52, 0
1, 151444, Note_on_c, 0, 40, 0
1, 151458, Note_on_c, 0, 72, 0
1, 151524, Note_on_c, 0, 48, 98
1, 151527, Note_on_c, 0, 36, 100
1, 151671, Note_on_c, 0, 48, 0
1, 151697, Note_on_c, 0, 36, 0
1, 151697, Note_on_c, 0, 72, 95
1, 151702, Note_on_c, 0, 67, 88
1, 151702, Note_on_c, 0, 64, 94
1, 151797, Note_on_c, 0, 64, 0
1, 151808, Note_on_c, 0, 67, 0
1, 151837, Note_on_c, 0, 72, 0
1, 151884, Control_c, 0, 64, 0
1, 151892, Note_on_c, 0, 72, 79
1, 151892, Note_on_c, 0, 76, 106
1, 151897, Note_on_c, 0, 64, 102
1, 151900, Note_on_c, 0, 43, 97
1, 151900, Note_on_c, 0, 67, 90
1, 151900, Note_on_c, 0, 31, 98
1, 152101, Control_c, 0, 64, 127
1, 152107, Note_on_c, 0, 76, 0
1, 152165, Note_on_c, 0, 67, 0
1, 152181, Note_on_c, 0, 64, 0
1, 152240, Note_on_c, 0, 72, 0
1, 152245, Control_c, 0, 64, 0
1, 152285, Note_on_c, 0, 74, 97
1, 152288, Note_on_c, 0, 71, 94
1, 152288, Note_on_c, 0, 65, 77
1, 152401, Control_c, 0, 64, 127
1, 152429, Note_on_c, 0, 71, 0
1, 152438, Note_on_c, 0, 74, 0
1, 152468, Note_on_c, 0, 65, 0
1, 152580, Control_c, 0, 64, 0
1, 152647, Note_on_c, 0, 71, 102
1, 152652, Note_on_c, 0, 62, 92
1, 152658, Note_on_c, 0, 65, 85
1, 152719, Note_on_c, 0, 62, 0
1, 152731, Note_on_c, 0, 65, 0
1, 152736, Note_on_c, 0, 71, 0
1, 152736, Control_c, 0, 64, 127
1, 152845, Note_on_c, 0, 43, 0
1, 152858, Note_on_c, 0, 31, 0
1, 152928, Control_c, 0, 64, 0
1, 153006, Note_on_c, 0, 67, 91
1, 153006, Note_on_c, 0, 59, 90
1, 153006, Note_on_c, 0, 65, 84
1, 153011, Note_on_c, 0, 43, 100
1, 153011, Note_on_c, 0, 31, 100
1, 153045, Note_on_c, 0, 31, 0
1, 153095, Note_on_c, 0, 43, 0
1, 153095, Control_c, 0, 64, 127
1, 153157, Note_on_c, 0, 67, 0
1, 153206, Note_on_c, 0, 59, 0
1, 153377, Note_on_c, 0, 65, 0
1, 153385, Note_on_c, 0, 67, 97
1, 153385, Note_on_c, 0, 64, 90
1, 153385, Note_on_c, 0, 48, 92
1, 153388, Note_on_c, 0, 36, 100
1, 153388, Note_on_c, 0, 60, 87
1, 153468, Control_c, 0, 64, 0
1, 153670, Control_c, 0, 64, 127
1, 153703, Note_on_c, 0, 36, 0
1, 153711, Note_on_c, 0, 48, 0
1, 153742, Note_on_c, 0, 67, 0
1, 153742, Note_on_c, 0, 64, 0
1, 153783, Note_on_c, 0, 60, 0
1, 153787, Note_on_c, 0, 48, 79
1, 153795, Note_on_c, 0, 36, 94
1, 153965, Note_on_c, 0, 72, 98
1, 153965, Note_on_c, 0, 67, 90
1, 153968, Note_on_c, 0, 60, 93
1, 153973, Note_on_c, 0, 64, 83
1, 154032, Note_on_c, 0, 36, 0
1, 154062, Note_on_c, 0, 48, 0
1, 154082, Note_on_c, 0, 64, 0
1, 154095, Note_on_c, 0, 60, 0
1, 154098, Note_on_c, 0, 72, 0
1, 154098, Note_on_c, 0, 67, 0
1, 154171, Note_on_c, 0, 72, 90
1, 154177, Note_on_c, 0, 67, 82
1, 154181, Note_on_c, 0, 60, 90
1, 154185, Note_on_c, 0, 52, 106
1, 154185, Note_on_c, 0, 64, 87
1, 154190, Note_on_c, 0, 40, 105
1, 154199, Control_c, 0, 64, 0
1, 154366, Control_c, 0, 64, 127
1, 154446, Note_on_c, 0, 64, 0
1, 154460, Note_on_c, 0, 60, 0
1, 154464, Note_on_c, 0, 52, 0
1, 154464, Note_on_c, 0, 67, 0
1, 154485, Note_on_c, 0, 40, 0
1, 154521, Note_on_c, 0, 72, 0
1, 154569, Note_on_c, 0, 36, 94
1, 154569, Note_on_c, 0, 48, 78
1, 154736, Note_on_c, 0, 48, 0
1, 154744, Note_on_c, 0, 76, 92
1, 154744, Note_on_c, 0, 67, 83
1, 154744, Note_on_c, 0, 64, 91
1, 154744, Note_on_c, 0, 72, 77
1, 154803, Note_on_c, 0, 36, 0
1, 154842, Note_on_c, 0, 64, 0
1, 154848, Note_on_c, 0, 67, 0
1, 154872, Note_on_c, 0, 76, 0
1, 154879, Note_on_c, 0, 72, 0
1, 154939, Note_on_c, 0, 76, 86
1, 154943, Note_on_c, 0, 72, 72
1, 154943, Note_on_c, 0, 64, 100
1, 154947, Note_on_c, 0, 67, 94
1, 154950, Note_on_c, 0, 31, 102
1, 154950, Note_on_c, 0, 43, 92
1, 155134, Note_on_c, 0, 67, 0
1, 155134, Note_on_c, 0, 76, 0
1, 155163, Note_on_c, 0, 64, 0
1, 155274, Note_on_c, 0, 72, 0
1, 155301, Control_c, 0, 64, 0
1, 155315, Note_on_c, 0, 74, 97
1, 155319, Note_on_c, 0, 65, 89
1, 155319, Note_on_c, 0, 71, 95
1, 155455, Note_on_c, 0, 74, 0
1, 155455, Control_c, 0, 64, 127
1, 155466, Note_on_c, 0, 71, 0
1, 155505, Note_on_c, 0, 65, 0
1, 155667, Note_on_c, 0, 31, 0
1, 155673, Note_on_c, 0, 71, 103
1, 155680, Note_on_c, 0, 62, 92
1, 155680, Note_on_c, 0, 65, 85
1, 155712, Note_on_c, 0, 43, 0
1, 155719, Note_on_c, 0, 71, 0
1, 155719, Note_on_c, 0, 62, 0
1, 155719, Note_on_c, 0, 65, 0
1, 156035, Note_on_c, 0, 67, 96
1, 156039, Note_on_c, 0, 55, 95
1, 156039, Note_on_c, 0, 43, 87
1, 156042, Note_on_c, 0, 65, 85
1, 156042, Note_on_c, 0, 59, 82
1, 156093, Note_on_c, 0, 59, 0
1, 156120, Note_on_c, 0, 43, 0
1, 156138, Note_on_c, 0, 55, 0
1, 156177, Note_on_c, 0, 67, 0
1, 156219, Note_on_c, 0, 65, 0
1, 156368, Control_c, 0, 64, 0
1, 156413, Note_on_c, 0, 67, 101
1, 156413, Note_on_c, 0, 60, 109
1, 156418, Note_on_c, 0, 64, 95
1, 156422, Note_on_c, 0, 48, 87
1, 156522, Control_c, 0, 64, 127
1, 156553, Note_on_c, 0, 48, 0
1, 156575, Note_on_c, 0, 60, 0
1, 156578, Note_on_c, 0, 64, 0
1, 156613, Note_on_c, 0, 67, 0
1, 156780, Note_on_c, 0, 55, 101
1, 156784, Note_on_c, 0, 43, 94
1, 156884, Note_on_c, 0, 55, 0
1, 156906, Note_on_c, 0, 43, 0
1, 156945, Note_on_c, 0, 67, 84
1, 156945, Note_on_c, 0, 76, 94
1, 156949, Note_on_c, 0, 72, 78
1, 156949, Note_on_c, 0, 64, 92
1, 157057, Note_on_c, 0, 76, 0
1, 157073, Note_on_c, 0, 67, 0
1, 157073, Note_on_c, 0, 64, 0
1, 157092, Note_on_c, 0, 72, 0
1, 157143, Note_on_c, 0, 67, 79
1, 157146, Note_on_c, 0, 72, 75
1, 157146, Note_on_c, 0, 76, 97
1, 157146, Note_on_c, 0, 64, 96
1, 157151, Note_on_c, 0, 52, 106
1, 157155, Note_on_c, 0, 40, 104
1, 157272, Note_on_c, 0, 40, 0
1, 157272, Note_on_c, 0, 52, 0
1, 157279, Note_on_c, 0, 64, 0
1, 157294, Note_on_c, 0, 67, 0
1, 157347, Note_on_c, 0, 72, 0
1, 157380, Note_on_c, 0, 76, 0
1, 157522, Note_on_c, 0, 48, 97
1, 157528, Note_on_c, 0, 36, 99
1, 157625, Note_on_c, 0, 48, 0
1, 157666, Note_on_c, 0, 36, 0
1, 157722, Note_on_c, 0, 76, 89
1, 157722, Note_on_c, 0, 79, 106
1, 157722, Note_on_c, 0, 67, 100
1, 157728, Note_on_c, 0, 72, 91
1, 157822, Note_on_c, 0, 67, 0
1, 157842, Note_on_c, 0, 72, 0
1, 157862, Note_on_c, 0, 79, 0
1, 157862, Note_on_c, 0, 76, 0
1, 157954, Note_on_c, 0, 69, 103
1, 157954, Note_on_c, 0, 72, 107
1, 157954, Note_on_c, 0, 79, 118
1, 157957, Note_on_c, 0, 76, 106
1, 157957, Note_on_c, 0, 41, 114
1, 157962, Note_on_c, 0, 29, 111
1, 158045, Control_c, 0, 64, 0
1, 158393, Control_c, 0, 64, 127
1, 158556, Note_on_c, 0, 72, 0
1, 158559, Note_on_c, 0, 79, 0
1, 158602, Note_on_c, 0, 69, 0
1, 158667, Note_on_c, 0, 76, 0
1, 158687, Note_on_c, 0, 29, 0
1, 158701, Note_on_c, 0, 77, 104
1, 158701, Note_on_c, 0, 74, 102
1, 158706, Note_on_c, 0, 69, 81
1, 158730, Note_on_c, 0, 41, 0
1, 158742, Note_on_c, 0, 69, 0
1, 158751, Note_on_c, 0, 74, 0
1, 158795, Note_on_c, 0, 77, 0
1, 159056, Note_on_c, 0, 76, 104
1, 159060, Note_on_c, 0, 53, 99
1, 159063, Note_on_c, 0, 57, 67
1, 159063, Note_on_c, 0, 60, 74
1, 159063, Note_on_c, 0, 64, 103
1, 159066, Note_on_c, 0, 69, 87
1, 159066, Note_on_c, 0, 72, 88
1, 159154, Note_on_c, 0, 57, 0
1, 159165, Note_on_c, 0, 69, 0
1, 159171, Note_on_c, 0, 60, 0
1, 159171, Note_on_c, 0, 53, 0
1, 159177, Note_on_c, 0, 64, 0
1, 159182, Note_on_c, 0, 72, 0
1, 159274, Note_on_c, 0, 76, 0
1, 159433, Note_on_c, 0, 74, 110
1, 159433, Note_on_c, 0, 60, 87
1, 159436, Note_on_c, 0, 57, 76
1, 159441, Note_on_c, 0, 69, 86
1, 159441, Note_on_c, 0, 62, 103
1, 159441, Note_on_c, 0, 72, 93
1, 159444, Note_on_c, 0, 53, 92
1, 159460, Control_c, 0, 64, 0
1, 159555, Note_on_c, 0, 60, 0
1, 159561, Note_on_c, 0, 57, 0
1, 159573, Note_on_c, 0, 62, 0
1, 159578, Note_on_c, 0, 72, 0
1, 159588, Note_on_c, 0, 53, 0
1, 159602, Note_on_c, 0, 69, 0
1, 159602, Control_c, 0, 64, 127
1, 159661, Note_on_c, 0, 74, 0
1, 159781, Note_on_c, 0, 73, 99
1, 159781, Note_on_c, 0, 53, 113
1, 159781, Note_on_c, 0, 41, 96
1, 159789, Note_on_c, 0, 69, 87
1, 159895, Note_on_c, 0, 69, 0
1, 159900, Note_on_c, 0, 53, 0
1, 159906, Note_on_c, 0, 41, 0
1, 159985, Note_on_c, 0, 73, 0
1, 160082, Note_on_c, 0, 76, 69
1, 160095, Control_c, 0, 64, 0
1, 160138, Note_on_c, 0, 69, 90
1, 160138, Note_on_c, 0, 74, 108
1, 160138, Note_on_c, 0, 72, 96
1, 160141, Note_on_c, 0, 54, 109
1, 160149, Note_on_c, 0, 42, 95
1, 160210, Note_on_c, 0, 76, 0
1, 160216, Note_on_c, 0, 54, 0
1, 160226, Note_on_c, 0, 72, 0
1, 160251, Note_on_c, 0, 74, 0
1, 160251, Control_c, 0, 64, 127
1, 160255, Note_on_c, 0, 42, 0
1, 160258, Note_on_c, 0, 69, 0
1, 160492, Note_on_c, 0, 69, 92
1, 160495, Note_on_c, 0, 62, 90
1, 160495, Note_on_c, 0, 60, 94
1, 160495, Note_on_c, 0, 42, 93
1, 160499, Note_on_c, 0, 30, 89
1, 160578, Note_on_c, 0, 30, 0
1, 160602, Note_on_c, 0, 62, 0
1, 160608, Note_on_c, 0, 42, 0
1, 160611, Note_on_c, 0, 60, 0
1, 160611, Note_on_c, 0, 69, 0
1, 160695, Note_on_c, 0, 72, 82
1, 160737, Note_on_c, 0, 72, 0
1, 160790, Control_c, 0, 64, 0
1, 160828, Note_on_c, 0, 68, 93
1, 160839, Note_on_c, 0, 59, 108
1, 160839, Note_on_c, 0, 43, 109
1, 160839, Note_on_c, 0, 31, 104
1, 160842, Note_on_c, 0, 62, 100
1, 160842, Note_on_c, 0, 71, 109
1, 160871, Note_on_c, 0, 31, 0
1, 160887, Note_on_c, 0, 68, 0
1, 160918, Note_on_c, 0, 62, 0
1, 160918, Note_on_c, 0, 59, 0
1, 160931, Note_on_c, 0, 43, 0
1, 160945, Control_c, 0, 64, 127
1, 160956, Note_on_c, 0, 71, 0
1, 161162, Control_c, 0, 64, 0
1, 161169, Note_on_c, 0, 79, 109
1, 161174, Note_on_c, 0, 67, 101
1, 161174, Note_on_c, 0, 55, 108
1, 161179, Note_on_c, 0, 43, 101
1, 161254, Note_on_c, 0, 43, 0
1, 161265, Note_on_c, 0, 55, 0
1, 161360, Note_on_c, 0, 53, 118
1, 161364, Note_on_c, 0, 41, 112
1, 161427, Note_on_c, 0, 67, 0
1, 161430, Note_on_c, 0, 41, 0
1, 161439, Note_on_c, 0, 53, 0
1, 161456, Note_on_c, 0, 79, 0
1, 161531, Note_on_c, 0, 81, 112
1, 161534, Note_on_c, 0, 69, 100
1, 161534, Note_on_c, 0, 52, 116
1, 161539, Note_on_c, 0, 40, 116
1, 161601, Note_on_c, 0, 40, 0
1, 161617, Note_on_c, 0, 52, 0
1, 161711, Note_on_c, 0, 50, 114
1, 161714, Note_on_c, 0, 38, 113
1, 161781, Note_on_c, 0, 69, 0
1, 161806, Note_on_c, 0, 38, 0
1, 161812, Note_on_c, 0, 50, 0
1, 161815, Note_on_c, 0, 81, 0
1, 161882, Note_on_c, 0, 83, 126
1, 161885, Note_on_c, 0, 71, 113
1, 161892, Note_on_c, 0, 48, 108
1, 161892, Note_on_c, 0, 36, 112
1, 161970, Note_on_c, 0, 36, 0
1, 161981, Note_on_c, 0, 48, 0
1, 162069, Note_on_c, 0, 47, 109
1, 162074, Note_on_c, 0, 35, 115
1, 162137, Note_on_c, 0, 71, 0
1, 162144, Note_on_c, 0, 83, 0
1, 162163, Note_on_c, 0, 47, 0
1, 162168, Note_on_c, 0, 35, 0
1, 162249, Note_on_c, 0, 84, 119
1, 162253, Note_on_c, 0, 72, 114
1, 162253, Note_on_c, 0, 78, 98
1, 162253, Note_on_c, 0, 76, 96
1, 162259, Note_on_c, 0, 45, 111
1, 162259, Note_on_c, 0, 33, 104
1, 162285, Note_on_c, 0, 33, 0
1, 162322, Note_on_c, 0, 45, 0
1, 162360, Control_c, 0, 64, 127
1, 162441, Note_on_c, 0, 48, 95
1, 162578, Note_on_c, 0, 48, 0
1, 162623, Control_c, 0, 64, 0
1, 162630, Note_on_c, 0, 52, 111
1, 162717, Note_on_c, 0, 52, 0
1, 162767, Control_c, 0, 64, 127
1, 162800, Note_on_c, 0, 78, 0
1, 162807, Note_on_c, 0, 76, 0
1, 162807, Note_on_c, 0, 45, 88
1, 162814, Note_on_c, 0, 84, 0
1, 162840, Note_on_c, 0, 45, 0
1, 162851, Note_on_c, 0, 72, 0
1, 162935, Control_c, 0, 64, 0
1, 162984, Note_on_c, 0, 83, 127
1, 162988, Note_on_c, 0, 78, 97
1, 162988, Note_on_c, 0, 75, 92
1, 162991, Note_on_c, 0, 71, 110
1, 162991, Note_on_c, 0, 69, 100
1, 162999, Note_on_c, 0, 47, 104
1, 162999, Note_on_c, 0, 35, 108
1, 163030, Note_on_c, 0, 35, 0
1, 163066, Note_on_c, 0, 47, 0
1, 163091, Control_c, 0, 64, 127
1, 163161, Note_on_c, 0, 51, 86
1, 163254, Note_on_c, 0, 51, 0
1, 163316, Note_on_c, 0, 69, 0
1, 163338, Note_on_c, 0, 71, 0
1, 163342, Note_on_c, 0, 78, 0
1, 163342, Note_on_c, 0, 54, 99
1, 163355, Note_on_c, 0, 75, 0
1, 163403, Note_on_c, 0, 83, 0
1, 163417, Note_on_c, 0, 54, 0
1, 163438, Control_c, 0, 64, 0
1, 163512, Note_on_c, 0, 78, 102
1, 163512, Note_on_c, 0, 71, 99
1, 163515, Note_on_c, 0, 75, 91
1, 163515, Note_on_c, 0, 69, 84
1, 163515, Note_on_c, 0, 47, 95
1, 163547, Control_c, 0, 64, 127
1, 163575, Note_on_c, 0, 47, 0
1, 163608, Note_on_c, 0, 71, 0
1, 163614, Note_on_c, 0, 69, 0
1, 163619, Control_c, 0, 64, 0
1, 163633, Note_on_c, 0, 75, 0
1, 163658, Note_on_c, 0, 78, 0
1, 163698, Note_on_c, 0, 81, 111
1, 163698, Note_on_c, 0, 52, 110
1, 163702, Note_on_c, 0, 78, 87
1, 163702, Note_on_c, 0, 71, 104
1, 163702, Note_on_c, 0, 40, 112
1, 163702, Note_on_c, 0, 75, 69
1, 163706, Note_on_c, 0, 69, 95
1, 163729, Note_on_c, 0, 40, 0
1, 163756, Note_on_c, 0, 52, 0
1, 163834, Control_c, 0, 64, 127
1, 163895, Note_on_c, 0, 47, 94
1, 163923, Note_on_c, 0, 71, 0
1, 163927, Note_on_c, 0, 75, 0
1, 163927, Note_on_c, 0, 69, 0
1, 163938, Note_on_c, 0, 81, 0
1, 163954, Note_on_c, 0, 47, 0
1, 164026, Control_c, 0, 64, 0
1, 164030, Note_on_c, 0, 78, 0
1, 164068, Note_on_c, 0, 79, 109
1, 164068, Note_on_c, 0, 76, 89
1, 164068, Note_on_c, 0, 67, 94
1, 164074, Note_on_c, 0, 52, 101
1, 164116, Note_on_c, 0, 52, 0
1, 164233, Note_on_c, 0, 76, 0
1, 164252, Note_on_c, 0, 40, 104
1, 164266, Control_c, 0, 64, 127
1, 164278, Note_on_c, 0, 79, 0
1, 164307, Note_on_c, 0, 40, 0
1, 164317, Note_on_c, 0, 67, 0
1, 164409, Control_c, 0, 64, 0
1, 164424, Note_on_c, 0, 77, 106
1, 164427, Note_on_c, 0, 74, 86
1, 164431, Note_on_c, 0, 41, 90
1, 164431, Note_on_c, 0, 65, 86
1, 164431, Note_on_c, 0, 69, 69
1, 164506, Note_on_c, 0, 41, 0
1, 164589, Control_c, 0, 64, 127
1, 164601, Note_on_c, 0, 45, 85
1, 164604, Note_on_c, 0, 69, 0
1, 164604, Note_on_c, 0, 74, 0
1, 164637, Note_on_c, 0, 65, 0
1, 164673, Note_on_c, 0, 45, 0
1, 164692, Note_on_c, 0, 77, 0
1, 164732, Control_c, 0, 64, 0
1, 164771, Note_on_c, 0, 74, 106
1, 164771, Note_on_c, 0, 65, 97
1, 164775, Note_on_c, 0, 50, 83
1, 164779, Note_on_c, 0, 69, 74
1, 164842, Note_on_c, 0, 50, 0
1, 164863, Note_on_c, 0, 65, 0
1, 164888, Control_c, 0, 64, 127
1, 164892, Note_on_c, 0, 69, 0
1, 164896, Note_on_c, 0, 74, 0
1, 164918, Note_on_c, 0, 41, 87
1, 164945, Note_on_c, 0, 41, 0
1, 164985, Note_on_c, 0, 64, 83
1, 165052, Note_on_c, 0, 67, 81
1, 165068, Control_c, 0, 64, 0
1, 165085, Note_on_c, 0, 64, 0
1, 165104, Note_on_c, 0, 72, 92
1, 165119, Note_on_c, 0, 43, 97
1, 165127, Note_on_c, 0, 31, 99
1, 165157, Note_on_c, 0, 67, 0
1, 165179, Note_on_c, 0, 31, 0
1, 165188, Note_on_c, 0, 74, 91
1, 165221, Note_on_c, 0, 74, 0
1, 165221, Note_on_c, 0, 72, 0
1, 165221, Control_c, 0, 64, 127
1, 165243, Note_on_c, 0, 43, 0
1, 165263, Note_on_c, 0, 72, 91
1, 165283, Note_on_c, 0, 40, 104
1, 165328, Note_on_c, 0, 74, 88
1, 165336, Note_on_c, 0, 72, 0
1, 165360, Note_on_c, 0, 40, 0
1, 165364, Note_on_c, 0, 74, 0
1, 165383, Note_on_c, 0, 72, 74
1, 165446, Note_on_c, 0, 74, 92
1, 165453, Note_on_c, 0, 72, 0
1, 165462, Note_on_c, 0, 36, 90
1, 165505, Note_on_c, 0, 72, 83
1, 165551, Note_on_c, 0, 74, 0
1, 165592, Note_on_c, 0, 71, 98
1, 165612, Note_on_c, 0, 72, 0
1, 165625, Note_on_c, 0, 36, 0
1, 165631, Note_on_c, 0, 40, 98
1, 165656, Note_on_c, 0, 72, 91
1, 165696, Note_on_c, 0, 71, 0
1, 165712, Note_on_c, 0, 40, 0
1, 165764, Control_c, 0, 64, 0
1, 165785, Note_on_c, 0, 74, 110
1, 165795, Note_on_c, 0, 67, 94
1, 165795, Note_on_c, 0, 65, 89
1, 165795, Note_on_c, 0, 43, 103
1, 165801, Note_on_c, 0, 31, 103
1, 165809, Note_on_c, 0, 72, 0
1, 165912, Note_on_c, 0, 43, 0
1, 165927, Note_on_c, 0, 31, 0
1, 165980, Note_on_c, 0, 35, 83
1, 165987, Note_on_c, 0, 67, 0
1, 165987, Note_on_c, 0, 65, 0
1, 165991, Control_c, 0, 64, 127
1, 166077, Note_on_c, 0, 35, 0
1, 166130, Note_on_c, 0, 38, 92
1, 166138, Note_on_c, 0, 67, 105
1, 166143, Note_on_c, 0, 65, 94
1, 166147, Note_on_c, 0, 74, 0
1, 166224, Note_on_c, 0, 38, 0
1, 166297, Note_on_c, 0, 43, 78
1, 166306, Note_on_c, 0, 67, 0
1, 166344, Note_on_c, 0, 43, 0
1, 166353, Note_on_c, 0, 65, 0
1, 166381, Note_on_c, 0, 74, 95
1, 166417, Note_on_c, 0, 74, 0
1, 166434, Control_c, 0, 64, 0
1, 166473, Note_on_c, 0, 48, 92
1, 166473, Note_on_c, 0, 36, 100
1, 166477, Note_on_c, 0, 76, 109
1, 166480, Note_on_c, 0, 67, 97
1, 166484, Note_on_c, 0, 64, 103
1, 166550, Note_on_c, 0, 36, 0
1, 166614, Note_on_c, 0, 48, 0
1, 166626, Control_c, 0, 64, 127
1, 166629, Note_on_c, 0, 67, 0
1, 166632, Note_on_c, 0, 76, 0
1, 166662, Note_on_c, 0, 52, 100
1, 166671, Note_on_c, 0, 64, 0
1, 166757, Note_on_c, 0, 52, 0
1, 166831, Note_on_c, 0, 55, 91
1, 166835, Note_on_c, 0, 60, 96
1, 166926, Note_on_c, 0, 55, 0
1, 166954, Note_on_c, 0, 60, 0
1, 167010, Note_on_c, 0, 64, 96
1, 167010, Note_on_c, 0, 52, 100
1, 167102, Note_on_c, 0, 52, 0
1, 167102, Note_on_c, 0, 64, 0
1, 167178, Note_on_c, 0, 48, 81
1, 167183, Note_on_c, 0, 67, 95
1, 167211, Note_on_c, 0, 67, 0
1, 167211, Note_on_c, 0, 48, 0
1, 167345, Note_on_c, 0, 43, 84
1, 167348, Note_on_c, 0, 72, 100
1, 167437, Note_on_c, 0, 43, 0
1, 167475, Note_on_c, 0, 72, 0
1, 167511, Note_on_c, 0, 76, 100
1, 167515, Note_on_c, 0, 40, 105
1, 167584, Note_on_c, 0, 40, 0
1, 167607, Note_on_c, 0, 76, 0
1, 167675, Note_on_c, 0, 48, 78
1, 167675, Note_on_c, 0, 67, 97
1, 167675, Note_on_c, 0, 79, 113
1, 167679, Note_on_c, 0, 36, 91
1, 167709, Note_on_c, 0, 36, 0
1, 167709, Note_on_c, 0, 48, 0
1, 167709, Note_on_c, 0, 67, 0
1, 167753, Note_on_c, 0, 79, 0
1, 167824, Control_c, 0, 64, 0
1, 167871, Note_on_c, 0, 84, 117
1, 167874, Note_on_c, 0, 33, 105
1, 167874, Note_on_c, 0, 45, 109
1, 167874, Note_on_c, 0, 72, 110
1, 167877, Note_on_c, 0, 78, 98
1, 167877, Note_on_c, 0, 76, 94
1, 167954, Note_on_c, 0, 33, 0
1, 167958, Note_on_c, 0, 45, 0
1, 167980, Control_c, 0, 64, 127
1, 168060, Note_on_c, 0, 48, 99
1, 168105, Note_on_c, 0, 48, 0
1, 168235, Note_on_c, 0, 54, 106
1, 168241, Note_on_c, 0, 42, 89
1, 168281, Note_on_c, 0, 42, 0
1, 168309, Note_on_c, 0, 54, 0
1, 168408, Note_on_c, 0, 57, 95
1, 168426, Note_on_c, 0, 72, 0
1, 168426, Note_on_c, 0, 84, 0
1, 168431, Note_on_c, 0, 76, 0
1, 168439, Note_on_c, 0, 78, 0
1, 168484, Note_on_c, 0, 57, 0
1, 168556, Control_c, 0, 64, 0
1, 168584, Note_on_c, 0, 83, 125
1, 168588, Note_on_c, 0, 59, 106
1, 168588, Note_on_c, 0, 71, 109
1, 168592, Note_on_c, 0, 69, 98
1, 168592, Note_on_c, 0, 75, 85
1, 168592, Note_on_c, 0, 78, 91
1, 168597, Note_on_c, 0, 47, 95
1, 168749, Note_on_c, 0, 47, 0
1, 168749, Note_on_c, 0, 59, 0
1, 168760, Control_c, 0, 64, 127
1, 168771, Note_on_c, 0, 54, 97
1, 168821, Note_on_c, 0, 54, 0
1, 168838, Note_on_c, 0, 69, 0
1, 168843, Note_on_c, 0, 83, 0
1, 168843, Note_on_c, 0, 71, 0
1, 168860, Note_on_c, 0, 78, 0
1, 168868, Note_on_c, 0, 75, 0
1, 168929, Note_on_c, 0, 51, 95
1, 168937, Note_on_c, 0, 39, 83
1, 168990, Note_on_c, 0, 39, 0
1, 169021, Note_on_c, 0, 51, 0
1, 169100, Note_on_c, 0, 78, 100
1, 169100, Note_on_c, 0, 69, 78
1, 169105, Note_on_c, 0, 71, 103
1, 169105, Note_on_c, 0, 75, 86
1, 169113, Note_on_c, 0, 47, 93
1, 169182, Note_on_c, 0, 47, 0
1, 169203, Note_on_c, 0, 71, 0
1, 169208, Note_on_c, 0, 75, 0
1, 169208, Note_on_c, 0, 69, 0
1, 169227, Control_c, 0, 64, 0
1, 169233, Note_on_c, 0, 78, 0
1, 169272, Note_on_c, 0, 69, 81
1, 169272, Note_on_c, 0, 78, 91
1, 169275, Note_on_c, 0, 71, 105
1, 169275, Note_on_c, 0, 81, 109
1, 169275, Note_on_c, 0, 52, 111
1, 169280, Note_on_c, 0, 40, 113
1, 169373, Note_on_c, 0, 52, 0
1, 169387, Note_on_c, 0, 40, 0
1, 169419, Control_c, 0, 64, 127
1, 169436, Note_on_c, 0, 81, 0
1, 169450, Note_on_c, 0, 78, 0
1, 169458, Note_on_c, 0, 71, 0
1, 169462, Note_on_c, 0, 47, 89
1, 169479, Note_on_c, 0, 69, 0
1, 169500, Note_on_c, 0, 47, 0
1, 169598, Control_c, 0, 64, 0
1, 169626, Note_on_c, 0, 79, 108
1, 169626, Note_on_c, 0, 67, 99
1, 169626, Note_on_c, 0, 70, 78
1, 169631, Note_on_c, 0, 76, 81
1, 169639, Note_on_c, 0, 49, 102
1, 169643, Note_on_c, 0, 37, 97
1, 169679, Note_on_c, 0, 37, 0
1, 169707, Note_on_c, 0, 49, 0
1, 169767, Control_c, 0, 64, 127
1, 169787, Note_on_c, 0, 79, 0
1, 169798, Note_on_c, 0, 76, 0
1, 169813, Note_on_c, 0, 52, 95
1, 169829, Note_on_c, 0, 70, 0
1, 169854, Note_on_c, 0, 67, 0
1, 169896, Note_on_c, 0, 52, 0
1, 169935, Control_c, 0, 64, 0
1, 169976, Note_on_c, 0, 65, 100
1, 169976, Note_on_c, 0, 77, 106
1, 169979, Note_on_c, 0, 74, 97
1, 169979, Note_on_c, 0, 69, 80
1, 169983, Note_on_c, 0, 50, 103
1, 169993, Note_on_c, 0, 38, 95
1, 170074, Note_on_c, 0, 50, 0
1, 170083, Note_on_c, 0, 38, 0
1, 170102, Control_c, 0, 64, 127
1, 170121, Note_on_c, 0, 77, 0
1, 170139, Note_on_c, 0, 74, 0
1, 170149, Note_on_c, 0, 69, 0
1, 170163, Note_on_c, 0, 45, 86
1, 170191, Note_on_c, 0, 65, 0
1, 170202, Note_on_c, 0, 45, 0
1, 170333, Note_on_c, 0, 74, 105
1, 170337, Note_on_c, 0, 69, 81
1, 170337, Note_on_c, 0, 41, 106
1, 170337, Note_on_c, 0, 65, 91
1, 170344, Note_on_c, 0, 29, 100
1, 170369, Note_on_c, 0, 29, 0
1, 170417, Note_on_c, 0, 41, 0
1, 170479, Note_on_c, 0, 69, 0
1, 170489, Note_on_c, 0, 45, 80
1, 170501, Note_on_c, 0, 65, 0
1, 170520, Note_on_c, 0, 74, 0
1, 170525, Note_on_c, 0, 45, 0
1, 170667, Note_on_c, 0, 64, 87
1, 170678, Control_c, 0, 64, 0
1, 170696, Note_on_c, 0, 31, 109
1, 170696, Note_on_c, 0, 67, 94
1, 170727, Note_on_c, 0, 72, 86
1, 170781, Note_on_c, 0, 64, 0
1, 170788, Note_on_c, 0, 43, 97
1, 170810, Note_on_c, 0, 67, 0
1, 170820, Note_on_c, 0, 31, 0
1, 170857, Control_c, 0, 64, 127
1, 170865, Note_on_c, 0, 74, 71
1, 170869, Note_on_c, 0, 43, 0
1, 170879, Note_on_c, 0, 72, 0
1, 170905, Note_on_c, 0, 74, 0
1, 170918, Note_on_c, 0, 72, 94
1, 170929, Note_on_c, 0, 48, 92
1, 170935, Note_on_c, 0, 43, 69
1, 171000, Note_on_c, 0, 74, 82
1, 171015, Note_on_c, 0, 48, 0
1, 171015, Note_on_c, 0, 72, 0
1, 171033, Note_on_c, 0, 43, 0
1, 171063, Note_on_c, 0, 72, 81
1, 171063, Note_on_c, 0, 48, 74
1, 171074, Note_on_c, 0, 74, 0
1, 171080, Note_on_c, 0, 52, 100
1, 171124, Note_on_c, 0, 74, 99
1, 171147, Note_on_c, 0, 72, 0
1, 171169, Note_on_c, 0, 52, 0
1, 171180, Note_on_c, 0, 48, 0
1, 171191, Note_on_c, 0, 72, 93
1, 171220, Note_on_c, 0, 55, 84
1, 171224, Note_on_c, 0, 52, 88
1, 171239, Note_on_c, 0, 74, 0
1, 171250, Note_on_c, 0, 52, 0
1, 171266, Note_on_c, 0, 71, 100
1, 171280, Note_on_c, 0, 72, 0
1, 171295, Note_on_c, 0, 55, 0
1, 171339, Note_on_c, 0, 72, 81
1, 171387, Note_on_c, 0, 71, 0
1, 171405, Note_on_c, 0, 76, 109
1, 171411, Note_on_c, 0, 64, 100
1, 171411, Note_on_c, 0, 55, 87
1, 171415, Note_on_c, 0, 60, 73
1, 171445, Note_on_c, 0, 64, 0
1, 171451, Note_on_c, 0, 55, 0
1, 171462, Note_on_c, 0, 72, 0
1, 171475, Note_on_c, 0, 60, 0
1, 171693, Note_on_c, 0, 76, 0
1, 171790, Note_on_c, 0, 67, 91
1, 171790, Note_on_c, 0, 74, 108
1, 171795, Note_on_c, 0, 31, 94
1, 171795, Note_on_c, 0, 65, 96
1, 171795, Note_on_c, 0, 43, 92
1, 171798, Note_on_c, 0, 71, 99
1, 171804, Control_c, 0, 64, 0
1, 171816, Note_on_c, 0, 38, 81
1, 171896, Note_on_c, 0, 31, 0
1, 171910, Note_on_c, 0, 43, 0
1, 171932, Note_on_c, 0, 38, 0
1, 171971, Control_c, 0, 64, 127
1, 171982, Note_on_c, 0, 71, 0
1, 171982, Note_on_c, 0, 67, 0
1, 171986, Note_on_c, 0, 65, 0
1, 172013, Note_on_c, 0, 74, 0
1, 172102, Note_on_c, 0, 76, 86
1, 172206, Note_on_c, 0, 74, 111
1, 172206, Note_on_c, 0, 43, 100
1, 172209, Note_on_c, 0, 71, 105
1, 172209, Note_on_c, 0, 31, 95
1, 172209, Note_on_c, 0, 67, 98
1, 172213, Note_on_c, 0, 65, 101
1, 172258, Note_on_c, 0, 76, 0
1, 172534, Note_on_c, 0, 31, 0
1, 172589, Note_on_c, 0, 67, 0
1, 172606, Note_on_c, 0, 71, 0
1, 172631, Note_on_c, 0, 65, 0
1, 172907, Control_c, 0, 64, 0
1, 172911, Note_on_c, 0, 72, 98
1, 172915, Note_on_c, 0, 64, 101
1, 172915, Note_on_c, 0, 67, 93
1, 172915, Note_on_c, 0, 48, 87
1, 172918, Note_on_c, 0, 36, 94
1, 172941, Note_on_c, 0, 43, 0
1, 172949, Note_on_c, 0, 74, 0
1, 173058, Note_on_c, 0, 36, 0
1, 173099, Control_c, 0, 64, 127
1, 173111, Note_on_c, 0, 48, 0
1, 173362, Note_on_c, 0, 60, 93
1, 173447, Note_on_c, 0, 60, 0
1, 173484, Note_on_c, 0, 60, 87
1, 173492, Note_on_c, 0, 67, 0
1, 173539, Note_on_c, 0, 64, 0
1, 173539, Note_on_c, 0, 60, 0
1, 173589, Note_on_c, 0, 60, 93
1, 173657, Note_on_c, 0, 60, 0
1, 173677, Note_on_c, 0, 72, 0
1, 173713, Note_on_c, 0, 60, 100
1, 173865, Control_c, 0, 64, 0
1, 174008, Control_c, 0, 64, 127
1, 174030, Note_on_c, 0, 60, 0
1, 174124, Note_on_c, 0, 60, 88
1, 174239, Note_on_c, 0, 64, 92
1, 174344, Note_on_c, 0, 67, 94
1, 174358, Note_on_c, 0, 60, 0
1, 174384, Note_on_c, 0, 64, 0
1, 174473, Note_on_c, 0, 72, 104
1, 174500, Control_c, 0, 64, 0
1, 174506, Note_on_c, 0, 67, 0
1, 174643, Control_c, 0, 64, 127
1, 174860, Note_on_c, 0, 60, 97
1, 174947, Note_on_c, 0, 60, 0
1, 174988, Note_on_c, 0, 60, 88
1, 175042, Note_on_c, 0, 60, 0
1, 175091, Note_on_c, 0, 60, 90
1, 175163, Note_on_c, 0, 60, 0
1, 175167, Note_on_c, 0, 72, 0
1, 175212, Note_on_c, 0, 60, 99
1, 175420, Note_on_c, 0, 60, 0
1, 175587, Note_on_c, 0, 64, 87
1, 175679, Note_on_c, 0, 64, 0
1, 175699, Note_on_c, 0, 67, 91
1, 175804, Note_on_c, 0, 72, 92
1, 175807, Note_on_c, 0, 67, 0
1, 175880, Note_on_c, 0, 72, 0
1, 175930, Note_on_c, 0, 76, 106
1, 175930, Note_on_c, 0, 72, 88
1, 176312, Note_on_c, 0, 60, 90
1, 176398, Note_on_c, 0, 60, 0
1, 176437, Note_on_c, 0, 60, 95
1, 176468, Note_on_c, 0, 72, 0
1, 176484, Note_on_c, 0, 60, 0
1, 176531, Note_on_c, 0, 60, 67
1, 176610, Note_on_c, 0, 60, 0
1, 176680, Note_on_c, 0, 60, 92
1, 176680, Note_on_c, 0, 64, 105
1, 176799, Note_on_c, 0, 64, 0
1, 176882, Note_on_c, 0, 76, 0
1, 176932, Note_on_c, 0, 60, 0
1, 177072, Note_on_c, 0, 60, 96
1, 177075, Note_on_c, 0, 64, 95
1, 177113, Note_on_c, 0, 60, 0
1, 177162, Note_on_c, 0, 64, 0
1, 177184, Note_on_c, 0, 67, 94
1, 177192, Note_on_c, 0, 60, 70
1, 177244, Note_on_c, 0, 60, 0
1, 177279, Note_on_c, 0, 67, 0
1, 177301, Note_on_c, 0, 72, 96
1, 177315, Note_on_c, 0, 60, 72
1, 177361, Note_on_c, 0, 60, 0
1, 177373, Note_on_c, 0, 72, 0
1, 177432, Note_on_c, 0, 76, 107
1, 177432, Note_on_c, 0, 72, 84
1, 177439, Note_on_c, 0, 64, 101
1, 177439, Note_on_c, 0, 60, 90
1, 177634, Note_on_c, 0, 72, 0
1, 177662, Note_on_c, 0, 76, 0
1, 177682, Note_on_c, 0, 60, 0
1, 177687, Note_on_c, 0, 64, 0
1, 177818, Note_on_c, 0, 64, 90
1, 177818, Note_on_c, 0, 60, 80
1, 177824, Note_on_c, 0, 67, 91
1, 177855, Note_on_c, 0, 64, 0
1, 177866, Note_on_c, 0, 60, 0
1, 177913, Note_on_c, 0, 67, 0
1, 177935, Note_on_c, 0, 72, 98
1, 177950, Note_on_c, 0, 60, 55
1, 177957, Note_on_c, 0, 64, 61
1, 177994, Note_on_c, 0, 64, 0
1, 177994, Note_on_c, 0, 60, 0
1, 178020, Note_on_c, 0, 72, 0
1, 178042, Note_on_c, 0, 76, 100
1, 178050, Note_on_c, 0, 64, 83
1, 178053, Note_on_c, 0, 60, 71
1, 178102, Note_on_c, 0, 64, 0
1, 178106, Note_on_c, 0, 60, 0
1, 178113, Note_on_c, 0, 76, 0
1, 178164, Note_on_c, 0, 76, 85
1, 178164, Note_on_c, 0, 60, 72
1, 178167, Note_on_c, 0, 64, 93
1, 178167, Note_on_c, 0, 79, 114
1, 178172, Note_on_c, 0, 67, 109
1, 178172, Note_on_c, 0, 72, 96
1, 178362, Note_on_c, 0, 72, 0
1, 178422, Note_on_c, 0, 64, 0
1, 178425, Note_on_c, 0, 79, 0
1, 178431, Note_on_c, 0, 60, 0
1, 178435, Note_on_c, 0, 67, 0
1, 178471, Note_on_c, 0, 76, 0
1, 178529, Note_on_c, 0, 72, 96
1, 178532, Note_on_c, 0, 60, 72
1, 178535, Note_on_c, 0, 64, 86
1, 178535, Note_on_c, 0, 67, 90
1, 178582, Note_on_c, 0, 64, 0
1, 178587, Note_on_c, 0, 60, 0
1, 178596, Note_on_c, 0, 67, 0
1, 178613, Note_on_c, 0, 72, 0
1, 178641, Note_on_c, 0, 64, 91
1, 178644, Note_on_c, 0, 60, 76
1, 178648, Note_on_c, 0, 72, 101
1, 178659, Note_on_c, 0, 67, 20
1, 178707, Note_on_c, 0, 60, 0
1, 178719, Note_on_c, 0, 64, 0
1, 178719, Note_on_c, 0, 67, 0
1, 178726, Note_on_c, 0, 72, 0
1, 178751, Note_on_c, 0, 76, 95
1, 178758, Note_on_c, 0, 60, 87
1, 178763, Note_on_c, 0, 64, 101
1, 178827, Note_on_c, 0, 64, 0
1, 178832, Note_on_c, 0, 76, 0
1, 178841, Note_on_c, 0, 60, 0
1, 178875, Note_on_c, 0, 76, 94
1, 178878, Note_on_c, 0, 79, 115
1, 178882, Note_on_c, 0, 67, 113
1, 178882, Note_on_c, 0, 72, 103
1, 178893, Note_on_c, 0, 60, 92
1, 178893, Note_on_c, 0, 64, 103
1, 179055, Note_on_c, 0, 60, 0
1, 179055, Note_on_c, 0, 67, 0
1, 179067, Note_on_c, 0, 64, 0
1, 179070, Note_on_c, 0, 72, 0
1, 179094, Note_on_c, 0, 76, 0
1, 179114, Note_on_c, 0, 79, 0
1, 179261, Note_on_c, 0, 67, 89
1, 179261, Note_on_c, 0, 72, 105
1, 179265, Note_on_c, 0, 64, 88
1, 179270, Note_on_c, 0, 60, 81
1, 179304, Note_on_c, 0, 64, 0
1, 179314, Note_on_c, 0, 60, 0
1, 179334, Note_on_c, 0, 67, 0
1, 179361, Note_on_c, 0, 72, 0
1, 179373, Note_on_c, 0, 60, 77
1, 179373, Note_on_c, 0, 64, 76
1, 179373, Note_on_c, 0, 76, 99
1, 179379, Note_on_c, 0, 67, 92
1, 179428, Note_on_c, 0, 67, 0
1, 179434, Note_on_c, 0, 64, 0
1, 179445, Note_on_c, 0, 60, 0
1, 179449, Note_on_c, 0, 76, 0
1, 179490, Note_on_c, 0, 67, 81
1, 179493, Note_on_c, 0, 79, 112
1, 179496, Note_on_c, 0, 64, 75
1, 179499, Note_on_c, 0, 60, 84
1, 179560, Note_on_c, 0, 79, 0
1, 179593, Note_on_c, 0, 60, 0
1, 179596, Note_on_c, 0, 67, 0
1, 179621, Note_on_c, 0, 64, 0
1, 179724, Note_on_c, 0, 67, 110
1, 179724, Note_on_c, 0, 84, 116
1, 179729, Note_on_c, 0, 60, 100
1, 179729, Note_on_c, 0, 58, 86
1, 179953, Control_c, 0, 64, 0
1, 180009, Note_on_c, 0, 86, 98
1, 180041, Note_on_c, 0, 84, 0
1, 180074, Control_c, 0, 64, 127
1, 180100, Note_on_c, 0, 84, 94
1, 180122, Note_on_c, 0, 86, 0
1, 180181, Note_on_c, 0, 86, 79
1, 180192, Note_on_c, 0, 84, 0
1, 180242, Note_on_c, 0, 84, 91
1, 180268, Note_on_c, 0, 86, 0
1, 180278, Note_on_c, 0, 60, 0
1, 180314, Note_on_c, 0, 84, 0
1, 180320, Note_on_c, 0, 86, 83
1, 180353, Note_on_c, 0, 67, 0
1, 180385, Note_on_c, 0, 86, 0
1, 180385, Note_on_c, 0, 58, 0
1, 180385, Note_on_c, 0, 84, 82
1, 180420, Note_on_c, 0, 65, 110
1, 180431, Note_on_c, 0, 60, 88
1, 180431, Note_on_c, 0, 57, 89
1, 180460, Note_on_c, 0, 86, 84
1, 180468, Note_on_c, 0, 84, 0
1, 180532, Note_on_c, 0, 84, 78
1, 180557, Note_on_c, 0, 86, 0
1, 180604, Note_on_c, 0, 86, 91
1, 180612, Control_c, 0, 64, 0
1, 180616, Note_on_c, 0, 84, 0
1, 180672, Note_on_c, 0, 84, 83
1, 180685, Note_on_c, 0, 86, 0
1, 180744, Control_c, 0, 64, 127
1, 180744, Note_on_c, 0, 86, 83
1, 180750, Note_on_c, 0, 84, 0
1, 180807, Note_on_c, 0, 57, 0
1, 180811, Note_on_c, 0, 60, 0
1, 180811, Note_on_c, 0, 84, 80
1, 180828, Note_on_c, 0, 86, 0
1, 180836, Note_on_c, 0, 65, 0
1, 180888, Note_on_c, 0, 84, 0
1, 180888, Note_on_c, 0, 86, 81
1, 180956, Note_on_c, 0, 84, 77
1, 180960, Note_on_c, 0, 56, 82
1, 180960, Note_on_c, 0, 64, 103
1, 180969, Note_on_c, 0, 86, 0
1, 180969, Note_on_c, 0, 60, 80
1, 181020, Note_on_c, 0, 60, 0
1, 181020, Note_on_c, 0, 56, 0
1, 181030, Note_on_c, 0, 86, 82
1, 181034, Note_on_c, 0, 84, 0
1, 181041, Note_on_c, 0, 64, 0
1, 181084, Note_on_c, 0, 64, 106
1, 181084, Note_on_c, 0, 60, 78
1, 181095, Note_on_c, 0, 84, 80
1, 181095, Note_on_c, 0, 56, 68
1, 181103, Note_on_c, 0, 86, 0
1, 181173, Note_on_c, 0, 84, 0
1, 181173, Note_on_c, 0, 86, 81
1, 181229, Note_on_c, 0, 86, 0
1, 181247, Note_on_c, 0, 84, 75
1, 181323, Note_on_c, 0, 86, 85
1, 181329, Note_on_c, 0, 84, 0
1, 181390, Note_on_c, 0, 86, 0
1, 181390, Note_on_c, 0, 84, 85
1, 181463, Control_c, 0, 64, 0
1, 181473, Note_on_c, 0, 86, 86
1, 181476, Note_on_c, 0, 84, 0
1, 181538, Note_on_c, 0, 84, 87
1, 181568, Note_on_c, 0, 86, 0
1, 181584, Control_c, 0, 64, 127
1, 181618, Note_on_c, 0, 86, 91
1, 181630, Note_on_c, 0, 60, 0
1, 181635, Note_on_c, 0, 84, 0
1, 181690, Note_on_c, 0, 84, 90
1, 181705, Note_on_c, 0, 64, 0
1, 181705, Note_on_c, 0, 86, 0
1, 181755, Note_on_c, 0, 56, 0
1, 181764, Note_on_c, 0, 86, 83
1, 181775, Note_on_c, 0, 65, 106
1, 181785, Note_on_c, 0, 84, 0
1, 181785, Note_on_c, 0, 57, 95
1, 181785, Note_on_c, 0, 60, 87
1, 181841, Note_on_c, 0, 84, 94
1, 181853, Note_on_c, 0, 86, 0
1, 181917, Note_on_c, 0, 86, 83
1, 181928, Note_on_c, 0, 84, 0
1, 181942, Control_c, 0, 64, 0
1, 181981, Note_on_c, 0, 84, 95
1, 182003, Note_on_c, 0, 86, 0
1, 182048, Note_on_c, 0, 84, 0
1, 182053, Note_on_c, 0, 86, 88
1, 182098, Control_c, 0, 64, 127
1, 182103, Note_on_c, 0, 57, 0
1, 182112, Note_on_c, 0, 65, 0
1, 182136, Note_on_c, 0, 84, 87
1, 182144, Note_on_c, 0, 60, 0
1, 182144, Note_on_c, 0, 86, 0
1, 182198, Note_on_c, 0, 86, 81
1, 182217, Note_on_c, 0, 84, 0
1, 182264, Note_on_c, 0, 86, 0
1, 182264, Note_on_c, 0, 84, 90
1, 182331, Note_on_c, 0, 86, 82
1, 182346, Note_on_c, 0, 84, 0
1, 182406, Note_on_c, 0, 84, 81
1, 182421, Note_on_c, 0, 86, 0
1, 182476, Note_on_c, 0, 86, 81
1, 182485, Note_on_c, 0, 48, 64
1, 182485, Note_on_c, 0, 45, 65
1, 182485, Note_on_c, 0, 53, 109
1, 182490, Note_on_c, 0, 84, 0
1, 182538, Note_on_c, 0, 84, 87
1, 182544, Note_on_c, 0, 86, 0
1, 182613, Note_on_c, 0, 86, 82
1, 182626, Note_on_c, 0, 84, 0
1, 182626, Control_c, 0, 64, 0
1, 182694, Note_on_c, 0, 84, 76
1, 182700, Note_on_c, 0, 86, 0
1, 182760, Note_on_c, 0, 86, 84
1, 182783, Note_on_c, 0, 84, 0
1, 182828, Note_on_c, 0, 84, 92
1, 182828, Control_c, 0, 64, 127
1, 182832, Note_on_c, 0, 86, 0
1, 182900, Note_on_c, 0, 86, 86
1, 182903, Note_on_c, 0, 84, 0
1, 182986, Note_on_c, 0, 86, 0
1, 182986, Note_on_c, 0, 84, 66
1, 183048, Note_on_c, 0, 48, 0
1, 183055, Note_on_c, 0, 86, 78
1, 183075, Note_on_c, 0, 84, 0
1, 183106, Note_on_c, 0, 86, 0
1, 183123, Note_on_c, 0, 84, 91
1, 183164, Note_on_c, 0, 53, 0
1, 183181, Note_on_c, 0, 84, 0
1, 183200, Note_on_c, 0, 45, 0
1, 183203, Note_on_c, 0, 86, 83
1, 183257, Note_on_c, 0, 86, 0
1, 183270, Note_on_c, 0, 52, 103
1, 183270, Note_on_c, 0, 84, 91
1, 183270, Note_on_c, 0, 48, 70
1, 183278, Note_on_c, 0, 43, 62
1, 183342, Note_on_c, 0, 86, 91
1, 183354, Note_on_c, 0, 84, 0
1, 183381, Control_c, 0, 64, 0
1, 183401, Note_on_c, 0, 86, 0
1, 183404, Note_on_c, 0, 84, 87
1, 183477, Note_on_c, 0, 86, 80
1, 183488, Note_on_c, 0, 48, 0
1, 183491, Note_on_c, 0, 84, 0
1, 183498, Note_on_c, 0, 52, 0
1, 183512, Note_on_c, 0, 43, 0
1, 183512, Control_c, 0, 64, 127
1, 183548, Note_on_c, 0, 84, 78
1, 183562, Note_on_c, 0, 86, 0
1, 183619, Note_on_c, 0, 86, 77
1, 183638, Note_on_c, 0, 84, 0
1, 183685, Note_on_c, 0, 86, 0
1, 183685, Note_on_c, 0, 84, 88
1, 183747, Note_on_c, 0, 84, 0
1, 183763, Note_on_c, 0, 86, 66
1, 183813, Note_on_c, 0, 86, 0
1, 183849, Note_on_c, 0, 84, 77
1, 183849, Note_on_c, 0, 51, 93
1, 183853, Note_on_c, 0, 42, 75
1, 183860, Note_on_c, 0, 48, 71
1, 183906, Note_on_c, 0, 42, 0
1, 183913, Note_on_c, 0, 48, 0
1, 183913, Note_on_c, 0, 84, 0
1, 183916, Note_on_c, 0, 86, 80
1, 183934, Note_on_c, 0, 51, 0
1, 183959, Note_on_c, 0, 86, 0
1, 183983, Note_on_c, 0, 84, 74
1, 183998, Note_on_c, 0, 51, 86
1, 184014, Note_on_c, 0, 48, 78
1, 184014, Note_on_c, 0, 42, 83
1, 184028, Control_c, 0, 64, 0
1, 184059, Note_on_c, 0, 84, 0
1, 184059, Note_on_c, 0, 86, 84
1, 184104, Note_on_c, 0, 86, 0
1, 184126, Note_on_c, 0, 84, 74
1, 184204, Note_on_c, 0, 86, 89
1, 184215, Note_on_c, 0, 84, 0
1, 184245, Note_on_c, 0, 86, 0
1, 184245, Control_c, 0, 64, 127
1, 184267, Note_on_c, 0, 84, 82
1, 184338, Note_on_c, 0, 84, 0
1, 184346, Note_on_c, 0, 86, 84
1, 184392, Note_on_c, 0, 86, 0
1, 184392, Note_on_c, 0, 48, 0
1, 184424, Note_on_c, 0, 84, 68
1, 184474, Note_on_c, 0, 84, 0
1, 184493, Note_on_c, 0, 86, 75
1, 184544, Note_on_c, 0, 86, 0
1, 184560, Note_on_c, 0, 84, 72
1, 184615, Note_on_c, 0, 84, 0
1, 184635, Note_on_c, 0, 42, 0
1, 184635, Note_on_c, 0, 86, 78
1, 184658, Note_on_c, 0, 51, 0
1, 184689, Note_on_c, 0, 86, 0
1, 184711, Note_on_c, 0, 84, 77
1, 184736, Note_on_c, 0, 52, 92
1, 184746, Note_on_c, 0, 43, 63
1, 184746, Note_on_c, 0, 48, 64
1, 184746, Control_c, 0, 64, 0
1, 184769, Note_on_c, 0, 84, 0
1, 184785, Note_on_c, 0, 86, 81
1, 184839, Note_on_c, 0, 86, 0
1, 184850, Note_on_c, 0, 84, 70
1, 184911, Note_on_c, 0, 84, 0
1, 184923, Note_on_c, 0, 86, 73
1, 184952, Control_c, 0, 64, 127
1, 184975, Note_on_c, 0, 86, 0
1, 184981, Note_on_c, 0, 84, 65
1, 185000, Note_on_c, 0, 48, 0
1, 185005, Note_on_c, 0, 43, 0
1, 185044, Note_on_c, 0, 52, 0
1, 185048, Note_on_c, 0, 86, 73
1, 185055, Note_on_c, 0, 84, 0
1, 185115, Note_on_c, 0, 84, 72
1, 185125, Note_on_c, 0, 86, 0
1, 185178, Note_on_c, 0, 86, 75
1, 185187, Note_on_c, 0, 84, 0
1, 185246, Note_on_c, 0, 84, 73
1, 185264, Note_on_c, 0, 86, 0
1, 185309, Note_on_c, 0, 84, 0
1, 185410, Note_on_c, 0, 76, 95
1, 185424, Note_on_c, 0, 64, 85
1, 185424, Note_on_c, 0, 72, 54
1, 185432, Note_on_c, 0, 67, 66
1, 185438, Note_on_c, 0, 55, 68
1, 185482, Note_on_c, 0, 55, 0
1, 185482, Note_on_c, 0, 67, 0
1, 185546, Note_on_c, 0, 57, 43
1, 185582, Control_c, 0, 64, 0
1, 185593, Note_on_c, 0, 57, 0
1, 185605, Note_on_c, 0, 55, 70
1, 185610, Note_on_c, 0, 67, 6
1, 185660, Note_on_c, 0, 55, 0
1, 185677, Control_c, 0, 64, 127
1, 185680, Note_on_c, 0, 57, 32
1, 185730, Note_on_c, 0, 57, 0
1, 185730, Note_on_c, 0, 67, 0
1, 185741, Note_on_c, 0, 55, 62
1, 185760, Note_on_c, 0, 72, 0
1, 185771, Note_on_c, 0, 76, 0
1, 185777, Note_on_c, 0, 64, 0
1, 185794, Note_on_c, 0, 55, 0
1, 185808, Note_on_c, 0, 57, 42
1, 185863, Note_on_c, 0, 57, 0
1, 185884, Note_on_c, 0, 55, 63
1, 185931, Note_on_c, 0, 55, 0
1, 185953, Note_on_c, 0, 57, 56
1, 185997, Note_on_c, 0, 57, 0
1, 186015, Note_on_c, 0, 55, 59
1, 186062, Note_on_c, 0, 55, 0
1, 186084, Note_on_c, 0, 57, 48
1, 186109, Note_on_c, 0, 74, 104
1, 186118, Note_on_c, 0, 65, 70
1, 186118, Note_on_c, 0, 67, 72
1, 186132, Note_on_c, 0, 57, 0
1, 186145, Note_on_c, 0, 55, 57
1, 186145, Control_c, 0, 64, 0
1, 186168, Note_on_c, 0, 67, 0
1, 186193, Note_on_c, 0, 55, 0
1, 186223, Note_on_c, 0, 57, 48
1, 186268, Note_on_c, 0, 57, 0
1, 186276, Note_on_c, 0, 55, 61
1, 186301, Control_c, 0, 64, 127
1, 186304, Note_on_c, 0, 65, 0
1, 186329, Note_on_c, 0, 55, 0
1, 186351, Note_on_c, 0, 57, 44
1, 186356, Note_on_c, 0, 74, 0
1, 186402, Note_on_c, 0, 57, 0
1, 186409, Note_on_c, 0, 55, 57
1, 186457, Note_on_c, 0, 55, 0
1, 186479, Note_on_c, 0, 57, 48
1, 186532, Note_on_c, 0, 57, 0
1, 186543, Note_on_c, 0, 55, 52
1, 186596, Note_on_c, 0, 55, 0
1, 186615, Note_on_c, 0, 57, 51
1, 186641, Note_on_c, 0, 72, 95
1, 186654, Note_on_c, 0, 64, 74
1, 186654, Note_on_c, 0, 67, 71
1, 186668, Note_on_c, 0, 57, 0
1, 186689, Note_on_c, 0, 64, 0
1, 186689, Note_on_c, 0, 55, 56
1, 186699, Note_on_c, 0, 67, 0
1, 186727, Note_on_c, 0, 72, 0
1, 186733, Note_on_c, 0, 55, 0
1, 186753, Note_on_c, 0, 57, 49
1, 186783, Note_on_c, 0, 72, 65
1, 186788, Note_on_c, 0, 76, 105
1, 186788, Note_on_c, 0, 64, 89
1, 186791, Note_on_c, 0, 67, 82
1, 186791, Control_c, 0, 64, 0
1, 186806, Note_on_c, 0, 57, 0
1, 186825, Note_on_c, 0, 55, 63
1, 186886, Note_on_c, 0, 55, 0
1, 186902, Note_on_c, 0, 57, 50
1, 186931, Note_on_c, 0, 64, 0
1, 186951, Note_on_c, 0, 57, 0
1, 186961, Control_c, 0, 64, 127
1, 186969, Note_on_c, 0, 76, 0
1, 186976, Note_on_c, 0, 67, 0
1, 186976, Note_on_c, 0, 55, 55
1, 187005, Note_on_c, 0, 72, 0
1, 187033, Note_on_c, 0, 55, 0
1, 187059, Note_on_c, 0, 57, 39
1, 187106, Note_on_c, 0, 57, 0
1, 187117, Note_on_c, 0, 55, 51
1, 187168, Note_on_c, 0, 55, 0
1, 187184, Note_on_c, 0, 57, 38
1, 187234, Note_on_c, 0, 57, 0
1, 187246, Note_on_c, 0, 55, 56
1, 187299, Note_on_c, 0, 55, 0
1, 187318, Note_on_c, 0, 57, 47
1, 187363, Note_on_c, 0, 57, 0
1, 187384, Note_on_c, 0, 55, 66
1, 187432, Note_on_c, 0, 55, 0
1, 187451, Note_on_c, 0, 57, 55
1, 187477, Note_on_c, 0, 74, 101
1, 187490, Note_on_c, 0, 65, 72
1, 187493, Note_on_c, 0, 67, 71
1, 187497, Note_on_c, 0, 57, 0
1, 187530, Note_on_c, 0, 55, 68
1, 187575, Note_on_c, 0, 55, 0
1, 187600, Note_on_c, 0, 57, 59
1, 187644, Note_on_c, 0, 57, 0
1, 187669, Note_on_c, 0, 55, 62
1, 187682, Note_on_c, 0, 67, 0
1, 187716, Note_on_c, 0, 55, 0
1, 187741, Note_on_c, 0, 57, 58
1, 187755, Note_on_c, 0, 65, 0
1, 187761, Note_on_c, 0, 74, 0
1, 187785, Note_on_c, 0, 57, 0
1, 187806, Note_on_c, 0, 55, 68
1, 187861, Note_on_c, 0, 55, 0
1, 187880, Note_on_c, 0, 57, 59
1, 187934, Note_on_c, 0, 57, 0
1, 187947, Note_on_c, 0, 55, 61
1, 188011, Note_on_c, 0, 72, 84
1, 188019, Note_on_c, 0, 55, 0
1, 188019, Note_on_c, 0, 64, 84
1, 188019, Note_on_c, 0, 67, 81
1, 188034, Note_on_c, 0, 57, 61
1, 188051, Note_on_c, 0, 67, 0
1, 188056, Note_on_c, 0, 64, 0
1, 188081, Note_on_c, 0, 57, 0
1, 188103, Note_on_c, 0, 72, 0
1, 188103, Note_on_c, 0, 55, 61
1, 188111, Control_c, 0, 64, 0
1, 188139, Note_on_c, 0, 72, 107
1, 188150, Note_on_c, 0, 62, 95
1, 188150, Note_on_c, 0, 65, 83
1, 188153, Note_on_c, 0, 67, 83
1, 188182, Note_on_c, 0, 62, 0
1, 188185, Note_on_c, 0, 65, 0
1, 188185, Note_on_c, 0, 55, 0
1, 188192, Note_on_c, 0, 57, 64
1, 188204, Note_on_c, 0, 67, 0
1, 188248, Note_on_c, 0, 57, 0
1, 188253, Note_on_c, 0, 55, 66
1, 188267, Note_on_c, 0, 72, 0
1, 188267, Control_c, 0, 64, 127
1, 188340, Note_on_c, 0, 55, 0
1, 188340, Note_on_c, 0, 57, 58
1, 188393, Note_on_c, 0, 57, 0
1, 188402, Note_on_c, 0, 55, 67
1, 188433, Control_c, 0, 64, 0
1, 188480, Note_on_c, 0, 55, 0
1, 188484, Note_on_c, 0, 57, 61
1, 188487, Note_on_c, 0, 71, 104
1, 188494, Note_on_c, 0, 62, 84
1, 188497, Note_on_c, 0, 67, 85
1, 188497, Note_on_c, 0, 65, 75
1, 188538, Note_on_c, 0, 62, 0
1, 188538, Note_on_c, 0, 57, 0
1, 188549, Note_on_c, 0, 55, 69
1, 188552, Note_on_c, 0, 65, 0
1, 188579, Control_c, 0, 64, 127
1, 188593, Note_on_c, 0, 71, 0
1, 188613, Note_on_c, 0, 67, 0
1, 188613, Note_on_c, 0, 55, 0
1, 188627, Note_on_c, 0, 57, 52
1, 188678, Note_on_c, 0, 57, 0
1, 188686, Note_on_c, 0, 55, 70
1, 188758, Note_on_c, 0, 55, 0
1, 188758, Control_c, 0, 64, 0
1, 188763, Note_on_c, 0, 57, 55
1, 188816, Note_on_c, 0, 57, 0
1, 188822, Note_on_c, 0, 55, 75
1, 188831, Note_on_c, 0, 69, 90
1, 188836, Note_on_c, 0, 62, 94
1, 188841, Note_on_c, 0, 65, 82
1, 188901, Note_on_c, 0, 57, 61
1, 188905, Note_on_c, 0, 55, 0
1, 188914, Control_c, 0, 64, 127
1, 188933, Note_on_c, 0, 62, 0
1, 188950, Note_on_c, 0, 57, 0
1, 188956, Note_on_c, 0, 65, 0
1, 188964, Note_on_c, 0, 55, 71
1, 188998, Note_on_c, 0, 69, 0
1, 189028, Note_on_c, 0, 55, 0
1, 189040, Note_on_c, 0, 57, 60
1, 189089, Note_on_c, 0, 57, 0
1, 189104, Note_on_c, 0, 55, 61
1, 189117, Control_c, 0, 64, 0
1, 189174, Note_on_c, 0, 55, 0
1, 189192, Note_on_c, 0, 57, 71
1, 189192, Note_on_c, 0, 71, 105
1, 189196, Note_on_c, 0, 67, 88
1, 189203, Note_on_c, 0, 62, 90
1, 189206, Note_on_c, 0, 65, 73
1, 189246, Note_on_c, 0, 65, 0
1, 189254, Note_on_c, 0, 57, 0
1, 189254, Note_on_c, 0, 62, 0
1, 189279, Note_on_c, 0, 55, 65
1, 189296, Control_c, 0, 64, 127
1, 189318, Note_on_c, 0, 71, 0
1, 189324, Note_on_c, 0, 67, 0
1, 189327, Note_on_c, 0, 55, 0
1, 189327, Note_on_c, 0, 57, 47
1, 189416, Note_on_c, 0, 55, 60
1, 189427, Note_on_c, 0, 57, 0
1, 189480, Note_on_c, 0, 55, 0
1, 189490, Note_on_c, 0, 57, 53
1, 189525, Control_c, 0, 64, 0
1, 189536, Note_on_c, 0, 72, 101
1, 189543, Note_on_c, 0, 60, 93
1, 189547, Note_on_c, 0, 67, 89
1, 189547, Note_on_c, 0, 64, 88
1, 189547, Note_on_c, 0, 55, 83
1, 189554, Note_on_c, 0, 48, 71
1, 189558, Note_on_c, 0, 52, 86
1, 189577, Note_on_c, 0, 57, 0
1, 189677, Note_on_c, 0, 55, 0
1, 189702, Note_on_c, 0, 60, 0
1, 189702, Note_on_c, 0, 57, 61
1, 189716, Control_c, 0, 64, 127
1, 189752, Note_on_c, 0, 64, 0
1, 189778, Note_on_c, 0, 57, 0
1, 189789, Note_on_c, 0, 48, 0
1, 189795, Note_on_c, 0, 67, 0
1, 189806, Note_on_c, 0, 55, 61
1, 189825, Note_on_c, 0, 72, 0
1, 189834, Note_on_c, 0, 52, 0
1, 189850, Note_on_c, 0, 55, 0
1, 189876, Note_on_c, 0, 57, 59
1, 189926, Note_on_c, 0, 57, 0
1, 189942, Note_on_c, 0, 55, 70
1, 190012, Note_on_c, 0, 55, 0
1, 190020, Note_on_c, 0, 57, 62
1, 190075, Note_on_c, 0, 55, 79
1, 190081, Note_on_c, 0, 57, 0
1, 190151, Note_on_c, 0, 57, 58
1, 190156, Note_on_c, 0, 55, 0
1, 190209, Note_on_c, 0, 55, 82
1, 190226, Note_on_c, 0, 57, 0
1, 190282, Note_on_c, 0, 55, 0
1, 190282, Note_on_c, 0, 57, 68
1, 190346, Note_on_c, 0, 55, 83
1, 190360, Note_on_c, 0, 57, 0
1, 190418, Note_on_c, 0, 57, 66
1, 190427, Note_on_c, 0, 55, 0
1, 190483, Note_on_c, 0, 55, 82
1, 190497, Note_on_c, 0, 57, 0
1, 190563, Note_on_c, 0, 55, 0
1, 190568, Note_on_c, 0, 57, 56
1, 190627, Note_on_c, 0, 55, 83
1, 190633, Note_on_c, 0, 57, 0
1, 190658, Note_on_c, 0, 55, 0
1, 190855, Note_on_c, 0, 79, 95
1, 190880, Note_on_c, 0, 76, 106
1, 190884, Note_on_c, 0, 67, 103
1, 190884, Note_on_c, 0, 72, 103
1, 190993, Note_on_c, 0, 81, 81
1, 191003, Note_on_c, 0, 79, 0
1, 191046, Note_on_c, 0, 81, 0
1, 191046, Control_c, 0, 64, 0
1, 191071, Note_on_c, 0, 79, 81
1, 191148, Note_on_c, 0, 79, 0
1, 191148, Note_on_c, 0, 81, 91
1, 191179, Control_c, 0, 64, 127
1, 191202, Note_on_c, 0, 81, 0
1, 191226, Note_on_c, 0, 79, 74
1, 191277, Note_on_c, 0, 79, 0
1, 191284, Note_on_c, 0, 67, 0
1, 191287, Note_on_c, 0, 81, 75
1, 191319, Note_on_c, 0, 81, 0
1, 191330, Note_on_c, 0, 72, 0
1, 191340, Note_on_c, 0, 79, 81
1, 191357, Note_on_c, 0, 76, 0
1, 191394, Note_on_c, 0, 79, 0
1, 191410, Note_on_c, 0, 81, 72
1, 191454, Note_on_c, 0, 81, 0
1, 191490, Note_on_c, 0, 79, 78
1, 191533, Note_on_c, 0, 79, 0
1, 191558, Note_on_c, 0, 81, 75
1, 191563, Note_on_c, 0, 74, 109
1, 191574, Note_on_c, 0, 65, 77
1, 191580, Note_on_c, 0, 67, 82
1, 191594, Note_on_c, 0, 81, 0
1, 191600, Note_on_c, 0, 79, 84
1, 191688, Note_on_c, 0, 79, 0
1, 191688, Note_on_c, 0, 81, 70
1, 191728, Note_on_c, 0, 81, 0
1, 191758, Note_on_c, 0, 79, 72
1, 191766, Note_on_c, 0, 65, 0
1, 191780, Note_on_c, 0, 67, 0
1, 191814, Note_on_c, 0, 79, 0
1, 191830, Note_on_c, 0, 81, 67
1, 191845, Note_on_c, 0, 74, 0
1, 191864, Note_on_c, 0, 81, 0
1, 191878, Note_on_c, 0, 79, 84
1, 191953, Note_on_c, 0, 79, 0
1, 191953, Note_on_c, 0, 81, 69
1, 192001, Note_on_c, 0, 81, 0
1, 192043, Note_on_c, 0, 79, 70
1, 192079, Note_on_c, 0, 72, 100
1, 192087, Note_on_c, 0, 79, 0
1, 192087, Note_on_c, 0, 67, 82
1, 192096, Note_on_c, 0, 64, 70
1, 192101, Note_on_c, 0, 81, 66
1, 192120, Note_on_c, 0, 67, 0
1, 192129, Note_on_c, 0, 64, 0
1, 192135, Note_on_c, 0, 81, 0
1, 192149, Note_on_c, 0, 79, 76
1, 192170, Note_on_c, 0, 72, 0
1, 192206, Note_on_c, 0, 79, 0
1, 192224, Note_on_c, 0, 81, 64
1, 192248, Note_on_c, 0, 76, 108
1, 192257, Note_on_c, 0, 67, 92
1, 192262, Note_on_c, 0, 72, 90
1, 192276, Note_on_c, 0, 81, 0
1, 192301, Note_on_c, 0, 79, 79
1, 192329, Control_c, 0, 64, 0
1, 192352, Note_on_c, 0, 79, 0
1, 192366, Note_on_c, 0, 81, 74
1, 192401, Note_on_c, 0, 81, 0
1, 192424, Note_on_c, 0, 79, 78
1, 192489, Note_on_c, 0, 79, 0
1, 192497, Control_c, 0, 64, 127
1, 192502, Note_on_c, 0, 81, 75
1, 192541, Note_on_c, 0, 81, 0
1, 192575, Note_on_c, 0, 79, 69
1, 192625, Note_on_c, 0, 79, 0
1, 192649, Note_on_c, 0, 81, 73
1, 192683, Note_on_c, 0, 81, 0
1, 192699, Note_on_c, 0, 67, 0
1, 192711, Note_on_c, 0, 79, 75
1, 192748, Note_on_c, 0, 76, 0
1, 192751, Note_on_c, 0, 72, 0
1, 192762, Note_on_c, 0, 79, 0
1, 192787, Note_on_c, 0, 81, 58
1, 192833, Note_on_c, 0, 81, 0
1, 192864, Note_on_c, 0, 79, 76
1, 192901, Note_on_c, 0, 79, 0
1, 192928, Note_on_c, 0, 81, 76
1, 192937, Note_on_c, 0, 74, 109
1, 192951, Note_on_c, 0, 67, 86
1, 192951, Note_on_c, 0, 65, 70
1, 192993, Note_on_c, 0, 81, 0
1, 193004, Note_on_c, 0, 79, 86
1, 193051, Note_on_c, 0, 79, 0
1, 193074, Note_on_c, 0, 81, 70
1, 193123, Note_on_c, 0, 65, 0
1, 193123, Note_on_c, 0, 67, 0
1, 193128, Note_on_c, 0, 81, 0
1, 193131, Note_on_c, 0, 74, 0
1, 193156, Note_on_c, 0, 79, 79
1, 193201, Note_on_c, 0, 79, 0
1, 193226, Note_on_c, 0, 81, 64
1, 193274, Note_on_c, 0, 81, 0
1, 193298, Note_on_c, 0, 79, 71
1, 193344, Note_on_c, 0, 79, 0
1, 193376, Note_on_c, 0, 81, 64
1, 193438, Note_on_c, 0, 81, 0
1, 193438, Note_on_c, 0, 72, 74
1, 193449, Note_on_c, 0, 64, 81
1, 193454, Note_on_c, 0, 79, 90
1, 193458, Note_on_c, 0, 67, 66
1, 193497, Note_on_c, 0, 79, 0
1, 193516, Note_on_c, 0, 72, 0
1, 193533, Note_on_c, 0, 64, 0
1, 193533, Note_on_c, 0, 81, 79
1, 193563, Note_on_c, 0, 67, 0
1, 193592, Note_on_c, 0, 81, 0
1, 193605, Note_on_c, 0, 72, 108
1, 193613, Note_on_c, 0, 79, 92
1, 193613, Note_on_c, 0, 67, 79
1, 193620, Note_on_c, 0, 65, 72
1, 193624, Note_on_c, 0, 62, 78
1, 193667, Note_on_c, 0, 65, 0
1, 193667, Note_on_c, 0, 67, 0
1, 193667, Note_on_c, 0, 72, 0
1, 193677, Note_on_c, 0, 81, 77
1, 193706, Note_on_c, 0, 79, 0
1, 193717, Note_on_c, 0, 62, 0
1, 193759, Note_on_c, 0, 79, 68
1, 193766, Note_on_c, 0, 81, 0
1, 193811, Note_on_c, 0, 79, 0
1, 193817, Note_on_c, 0, 81, 84
1, 193861, Note_on_c, 0, 79, 82
1, 193911, Note_on_c, 0, 81, 0
1, 193937, Note_on_c, 0, 79, 0
1, 193940, Note_on_c, 0, 81, 57
1, 193947, Control_c, 0, 64, 0
1, 193956, Note_on_c, 0, 53, 108
1, 193959, Note_on_c, 0, 55, 103
1, 193959, Note_on_c, 0, 50, 43
1, 193965, Note_on_c, 0, 43, 89
1, 193975, Note_on_c, 0, 71, 83
1, 193986, Note_on_c, 0, 79, 101
1, 194007, Note_on_c, 0, 50, 0
1, 194010, Note_on_c, 0, 81, 0
1, 194059, Note_on_c, 0, 53, 0
1, 194059, Note_on_c, 0, 81, 77
1, 194062, Note_on_c, 0, 55, 0
1, 194079, Note_on_c, 0, 79, 0
1, 194079, Control_c, 0, 64, 127
1, 194123, Note_on_c, 0, 79, 86
1, 194146, Note_on_c, 0, 81, 0
1, 194177, Note_on_c, 0, 79, 0
1, 194191, Note_on_c, 0, 43, 0
1, 194191, Note_on_c, 0, 81, 78
1, 194201, Note_on_c, 0, 71, 0
1, 194271, Control_c, 0, 64, 0
1, 194277, Note_on_c, 0, 81, 0
1, 194277, Note_on_c, 0, 69, 94
1, 194283, Note_on_c, 0, 79, 94
1, 194288, Note_on_c, 0, 53, 111
1, 194288, Note_on_c, 0, 55, 97
1, 194291, Note_on_c, 0, 50, 88
1, 194291, Note_on_c, 0, 43, 93
1, 194341, Note_on_c, 0, 81, 62
1, 194369, Note_on_c, 0, 79, 0
1, 194418, Note_on_c, 0, 79, 86
1, 194421, Note_on_c, 0, 53, 0
1, 194425, Note_on_c, 0, 55, 0
1, 194425, Control_c, 0, 64, 127
1, 194435, Note_on_c, 0, 50, 0
1, 194435, Note_on_c, 0, 43, 0
1, 194443, Note_on_c, 0, 81, 0
1, 194497, Note_on_c, 0, 81, 72
1, 194516, Note_on_c, 0, 79, 0
1, 194516, Note_on_c, 0, 69, 0
1, 194583, Control_c, 0, 64, 0
1, 194589, Note_on_c, 0, 81, 0
1, 194595, Note_on_c, 0, 71, 109
1, 194595, Note_on_c, 0, 79, 92
1, 194608, Note_on_c, 0, 53, 108
1, 194611, Note_on_c, 0, 55, 104
1, 194611, Note_on_c, 0, 43, 95
1, 194614, Note_on_c, 0, 50, 89
1, 194675, Note_on_c, 0, 81, 71
1, 194691, Note_on_c, 0, 55, 0
1, 194695, Note_on_c, 0, 53, 0
1, 194695, Note_on_c, 0, 79, 0
1, 194700, Note_on_c, 0, 50, 0
1, 194727, Control_c, 0, 64, 127
1, 194744, Note_on_c, 0, 43, 0
1, 194750, Note_on_c, 0, 79, 84
1, 194773, Note_on_c, 0, 81, 0
1, 194833, Note_on_c, 0, 81, 63
1, 194858, Note_on_c, 0, 71, 0
1, 194864, Note_on_c, 0, 79, 0
1, 194906, Control_c, 0, 64, 0
1, 194937, Note_on_c, 0, 81, 0
1, 194937, Note_on_c, 0, 72, 106
1, 194937, Note_on_c, 0, 79, 94
1, 194941, Note_on_c, 0, 48, 106
1, 194941, Note_on_c, 0, 43, 101
1, 194941, Note_on_c, 0, 36, 106
1, 194948, Note_on_c, 0, 40, 103
1, 195053, Note_on_c, 0, 81, 81
1, 195073, Note_on_c, 0, 43, 0
1, 195073, Control_c, 0, 64, 127
1, 195077, Note_on_c, 0, 79, 0
1, 195082, Note_on_c, 0, 48, 0
1, 195088, Note_on_c, 0, 40, 0
1, 195098, Note_on_c, 0, 36, 0
1, 195118, Note_on_c, 0, 72, 0
1, 195138, Note_on_c, 0, 79, 85
1, 195143, Note_on_c, 0, 81, 0
1, 195213, Note_on_c, 0, 81, 71
1, 195223, Note_on_c, 0, 79, 0
1, 195287, Note_on_c, 0, 79, 77
1, 195310, Note_on_c, 0, 81, 0
1, 195355, Note_on_c, 0, 81, 91
1, 195377, Note_on_c, 0, 79, 0
1, 195430, Note_on_c, 0, 81, 0
1, 195430, Note_on_c, 0, 79, 86
1, 195494, Note_on_c, 0, 81, 83
1, 195510, Note_on_c, 0, 79, 0
1, 195567, Note_on_c, 0, 79, 92
1, 195588, Note_on_c, 0, 81, 0
1, 195634, Note_on_c, 0, 81, 86
1, 195650, Note_on_c, 0, 79, 0
1, 195705, Note_on_c, 0, 79, 84
1, 195714, Note_on_c, 0, 81, 0
1, 195776, Note_on_c, 0, 81, 75
1, 195784, Note_on_c, 0, 79, 0
1, 195845, Note_on_c, 0, 79, 79
1, 195873, Note_on_c, 0, 81, 0
1, 195920, Note_on_c, 0, 79, 0
1, 195920, Note_on_c, 0, 81, 82
1, 195975, Note_on_c, 0, 81, 0
1, 195982, Note_on_c, 0, 79, 74
1, 196059, Note_on_c, 0, 79, 0
1, 196059, Note_on_c, 0, 81, 69
1, 196099, Note_on_c, 0, 81, 0
1, 196106, Note_on_c, 0, 76, 90
1, 196109, Note_on_c, 0, 72, 87
1, 196121, Note_on_c, 0, 79, 84
1, 196146, Note_on_c, 0, 72, 0
1, 196171, Note_on_c, 0, 81, 45
1, 196191, Note_on_c, 0, 79, 0
1, 196194, Note_on_c, 0, 76, 0
1, 196218, Note_on_c, 0, 81, 0
1, 196232, Note_on_c, 0, 76, 104
1, 196235, Note_on_c, 0, 79, 113
1, 196235, Note_on_c, 0, 88, 103
1, 196244, Note_on_c, 0, 72, 100
1, 196248, Note_on_c, 0, 84, 98
1, 196274, Note_on_c, 0, 72, 0
1, 196302, Note_on_c, 0, 76, 0
1, 196310, Note_on_c, 0, 79, 0
1, 196332, Note_on_c, 0, 81, 79
1, 196389, Note_on_c, 0, 81, 0
1, 196400, Note_on_c, 0, 79, 76
1, 196463, Note_on_c, 0, 79, 0
1, 196463, Note_on_c, 0, 81, 70
1, 196511, Note_on_c, 0, 84, 0
1, 196524, Note_on_c, 0, 81, 0
1, 196538, Note_on_c, 0, 79, 70
1, 196592, Note_on_c, 0, 79, 0
1, 196605, Note_on_c, 0, 81, 62
1, 196653, Note_on_c, 0, 81, 0
1, 196677, Note_on_c, 0, 79, 66
1, 196712, Note_on_c, 0, 88, 0
1, 196742, Note_on_c, 0, 79, 0
1, 196755, Note_on_c, 0, 81, 66
1, 196812, Note_on_c, 0, 81, 0
1, 196829, Note_on_c, 0, 79, 62
1, 196865, Note_on_c, 0, 88, 106
1, 196868, Note_on_c, 0, 84, 107
1, 196872, Note_on_c, 0, 76, 103
1, 196879, Note_on_c, 0, 72, 97
1, 196912, Note_on_c, 0, 72, 0
1, 196915, Note_on_c, 0, 79, 0
1, 196935, Note_on_c, 0, 76, 0
1, 196962, Note_on_c, 0, 79, 93
1, 197017, Note_on_c, 0, 81, 79
1, 197024, Note_on_c, 0, 79, 0
1, 197090, Note_on_c, 0, 81, 0
1, 197090, Note_on_c, 0, 79, 78
1, 197140, Note_on_c, 0, 79, 0
1, 197162, Note_on_c, 0, 81, 65
1, 197219, Note_on_c, 0, 84, 0
1, 197232, Note_on_c, 0, 81, 0
1, 197232, Note_on_c, 0, 79, 79
1, 197290, Note_on_c, 0, 79, 0
1, 197310, Note_on_c, 0, 81, 61
1, 197357, Note_on_c, 0, 81, 0
1, 197383, Note_on_c, 0, 88, 0
1, 197386, Note_on_c, 0, 79, 74
1, 197471, Note_on_c, 0, 81, 66
1, 197502, Note_on_c, 0, 79, 0
1, 197506, Note_on_c, 0, 81, 0
1, 197522, Note_on_c, 0, 88, 108
1, 197527, Note_on_c, 0, 76, 101
1, 197527, Note_on_c, 0, 84, 108
1, 197536, Note_on_c, 0, 72, 89
1, 197564, Note_on_c, 0, 72, 0
1, 197581, Note_on_c, 0, 76, 0
1, 197616, Note_on_c, 0, 79, 84
1, 197667, Note_on_c, 0, 81, 83
1, 197673, Note_on_c, 0, 79, 0
1, 197720, Note_on_c, 0, 81, 0
1, 197739, Note_on_c, 0, 79, 74
1, 197786, Note_on_c, 0, 79, 0
1, 197806, Note_on_c, 0, 81, 66
1, 197842, Note_on_c, 0, 84, 0
1, 197856, Note_on_c, 0, 81, 0
1, 197856, Note_on_c, 0, 88, 0
1, 197864, Note_on_c, 0, 79, 72
1, 197907, Note_on_c, 0, 79, 0
1, 197928, Note_on_c, 0, 81, 68
1, 197999, Note_on_c, 0, 81, 0
1, 197999, Note_on_c, 0, 79, 75
1, 198063, Note_on_c, 0, 81, 72
1, 198071, Note_on_c, 0, 79, 0
1, 198118, Note_on_c, 0, 81, 0
1, 198123, Note_on_c, 0, 79, 91
1, 198182, Note_on_c, 0, 79, 0
1, 198190, Note_on_c, 0, 81, 81
1, 198261, Note_on_c, 0, 81, 0
1, 198264, Note_on_c, 0, 79, 72
1, 198321, Note_on_c, 0, 81, 75
1, 198341, Note_on_c, 0, 79, 0
1, 198363, Note_on_c, 0, 81, 0
1, 198394, Note_on_c, 0, 79, 87
1, 198428, Note_on_c, 0, 79, 0
1, 198446, Note_on_c, 0, 81, 79
1, 198489, Note_on_c, 0, 81, 0
1, 198533, Note_on_c, 0, 79, 79
1, 198569, Note_on_c, 0, 79, 0
1, 198597, Note_on_c, 0, 81, 82
1, 198614, Note_on_c, 0, 72, 107
1, 198620, Note_on_c, 0, 67, 90
1, 198623, Note_on_c, 0, 60, 83
1, 198627, Note_on_c, 0, 64, 82
1, 198653, Note_on_c, 0, 81, 0
1, 198658, Note_on_c, 0, 60, 0
1, 198658, Note_on_c, 0, 64, 0
1, 198664, Note_on_c, 0, 67, 0
1, 198669, Note_on_c, 0, 72, 0
1, 198675, Note_on_c, 0, 79, 84
1, 198720, Note_on_c, 0, 72, 108
1, 198725, Note_on_c, 0, 60, 75
1, 198725, Note_on_c, 0, 67, 86
1, 198728, Note_on_c, 0, 64, 75
1, 198733, Note_on_c, 0, 79, 0
1, 198745, Note_on_c, 0, 81, 82
1, 198818, Note_on_c, 0, 79, 78
1, 198825, Note_on_c, 0, 72, 0
1, 198825, Note_on_c, 0, 60, 0
1, 198829, Note_on_c, 0, 67, 0
1, 198832, Note_on_c, 0, 81, 0
1, 198840, Note_on_c, 0, 64, 0
1, 198901, Note_on_c, 0, 79, 0
1, 198907, Note_on_c, 0, 81, 68
1, 198971, Note_on_c, 0, 81, 0
1, 198971, Note_on_c, 0, 79, 67
1, 199051, Note_on_c, 0, 79, 0
1, 199051, Note_on_c, 0, 81, 71
1, 199126, Note_on_c, 0, 81, 0
1, 199126, Note_on_c, 0, 79, 66
1, 199191, Note_on_c, 0, 79, 0
1, 199202, Note_on_c, 0, 81, 68
1, 199261, Note_on_c, 0, 81, 0
1, 199282, Note_on_c, 0, 79, 72
1, 199339, Note_on_c, 0, 79, 0
1, 199363, Note_on_c, 0, 81, 88
1, 199363, Note_on_c, 0, 72, 108
1, 199371, Note_on_c, 0, 64, 90
1, 199371, Note_on_c, 0, 60, 88
1, 199374, Note_on_c, 0, 67, 86
1, 199431, Note_on_c, 0, 79, 83
1, 199444, Note_on_c, 0, 81, 0
1, 199511, Note_on_c, 0, 79, 0
1, 199519, Note_on_c, 0, 81, 63
1, 199595, Note_on_c, 0, 79, 69
1, 199616, Note_on_c, 0, 81, 0
1, 199659, Note_on_c, 0, 79, 0
1, 199665, Note_on_c, 0, 81, 77
1, 199748, Note_on_c, 0, 79, 72
1, 199756, Note_on_c, 0, 81, 0
1, 199798, Note_on_c, 0, 79, 0
1, 199815, Note_on_c, 0, 81, 73
1, 199826, Note_on_c, 0, 67, 0
1, 199878, Note_on_c, 0, 60, 0
1, 199899, Note_on_c, 0, 79, 80
1, 199903, Note_on_c, 0, 81, 0
1, 199907, Note_on_c, 0, 72, 0
1, 199943, Note_on_c, 0, 64, 0
1, 199943, Note_on_c, 0, 79, 0
1, 199963, Note_on_c, 0, 81, 70
1, 200010, Note_on_c, 0, 72, 109
1, 200016, Note_on_c, 0, 64, 84
1, 200016, Note_on_c, 0, 67, 95
1, 200020, Note_on_c, 0, 60, 91
1, 200043, Note_on_c, 0, 79, 87
1, 200052, Note_on_c, 0, 81, 0
1, 200110, Note_on_c, 0, 79, 0
1, 200110, Note_on_c, 0, 81, 75
1, 200177, Note_on_c, 0, 81, 0
1, 200180, Note_on_c, 0, 72, 0
1, 200185, Note_on_c, 0, 79, 77
1, 200215, Note_on_c, 0, 60, 0
1, 200244, Note_on_c, 0, 79, 0
1, 200258, Note_on_c, 0, 81, 78
1, 200261, Note_on_c, 0, 67, 0
1, 200288, Note_on_c, 0, 64, 0
1, 200297, Note_on_c, 0, 81, 0
1, 200318, Note_on_c, 0, 79, 72
1, 200375, Note_on_c, 0, 79, 0
1, 200397, Note_on_c, 0, 81, 75
1, 200430, Note_on_c, 0, 81, 0
1, 200466, Note_on_c, 0, 79, 81
1, 200508, Note_on_c, 0, 79, 0
1, 200530, Note_on_c, 0, 81, 76
1, 200569, Note_on_c, 0, 81, 0
1, 200595, Note_on_c, 0, 79, 85
1, 200642, Note_on_c, 0, 79, 0
1, 200662, Note_on_c, 0, 81, 83
1, 200717, Note_on_c, 0, 81, 0
1, 200723, Note_on_c, 0, 79, 88
1, 200793, Note_on_c, 0, 79, 0
1, 200796, Note_on_c, 0, 81, 79
1, 200854, Note_on_c, 0, 79, 73
1, 200867, Note_on_c, 0, 81, 0
1, 200915, Note_on_c, 0, 79, 0
1, 200926, Note_on_c, 0, 81, 80
1, 201009, Note_on_c, 0, 79, 87
1, 201043, Note_on_c, 0, 81, 0
1, 201082, Note_on_c, 0, 78, 81
1, 201088, Note_on_c, 0, 79, 0
1, 201121, Note_on_c, 0, 48, 85
1, 201127, Note_on_c, 0, 36, 88
1, 201127, Note_on_c, 0, 43, 76
1, 201127, Note_on_c, 0, 40, 92
1, 201146, Note_on_c, 0, 79, 84
1, 201172, Note_on_c, 0, 36, 0
1, 201197, Note_on_c, 0, 40, 0
1, 201205, Note_on_c, 0, 78, 0
1, 201205, Note_on_c, 0, 48, 0
1, 201213, Note_on_c, 0, 43, 0
1, 201254, Note_on_c, 0, 72, 108
1, 201254, Note_on_c, 0, 84, 114
1, 201254, Note_on_c, 0, 76, 93
1, 201254, Note_on_c, 0, 48, 95
1, 201258, Note_on_c, 0, 43, 98
1, 201266, Note_on_c, 0, 40, 98
1, 201266, Note_on_c, 0, 36, 103
1, 201654, Note_on_c, 0, 36, 0
1, 201661, Note_on_c, 0, 79, 0
1, 201667, Note_on_c, 0, 76, 0
1, 201675, Note_on_c, 0, 72, 0
1, 201675, Note_on_c, 0, 84, 0
1, 201683, Note_on_c, 0, 48, 0
1, 201686, Note_on_c, 0, 43, 0
1, 201686, Note_on_c, 0, 40, 0
1, 201882, Note_on_c, 0, 84, 113
1, 201882, Note_on_c, 0, 72, 113
1, 201882, Note_on_c, 0, 79, 108
1, 201885, Note_on_c, 0, 76, 98
1, 201885, Note_on_c, 0, 48, 109
1, 201890, Note_on_c, 0, 36, 102
1, 201890, Note_on_c, 0, 43, 98
1, 201897, Note_on_c, 0, 40, 101
1, 202010, Note_on_c, 0, 36, 0
1, 202010, Note_on_c, 0, 48, 0
1, 202013, Note_on_c, 0, 40, 0
1, 202051, Note_on_c, 0, 43, 0
1, 202197, Note_on_c, 0, 76, 0
1, 202238, Note_on_c, 0, 79, 0
1, 202275, Note_on_c, 0, 84, 0
1, 202307, Note_on_c, 0, 72, 0
1, 202656, Note_on_c, 0, 84, 114
1, 202656, Note_on_c, 0, 76, 99
1, 202656, Note_on_c, 0, 79, 108
1, 202656, Note_on_c, 0, 72, 113
1, 202659, Note_on_c, 0, 48, 114
1, 202659, Note_on_c, 0, 43, 109
1, 202662, Note_on_c, 0, 40, 111
1, 202662, Note_on_c, 0, 36, 113
1, 202795, Note_on_c, 0, 36, 0
1, 202812, Note_on_c, 0, 48, 0
1, 202857, Note_on_c, 0, 36, 65
1, 202907, Note_on_c, 0, 48, 70
1, 202937, Note_on_c, 0, 36, 0
1, 202937, Note_on_c, 0, 43, 0
1, 202943, Note_on_c, 0, 40, 0
1, 202990, Note_on_c, 0, 36, 88
1, 203005, Note_on_c, 0, 48, 0
1, 203035, Note_on_c, 0, 36, 0
1, 203049, Note_on_c, 0, 48, 84
1, 203146, Note_on_c, 0, 36, 45
1, 203161, Note_on_c, 0, 48, 0
1, 203190, Note_on_c, 0, 36, 0
1, 203204, Note_on_c, 0, 48, 86
1, 203263, Note_on_c, 0, 48, 0
1, 203268, Note_on_c, 0, 36, 66
1, 203305, Note_on_c, 0, 36, 0
1, 203322, Note_on_c, 0, 48, 83
1, 203395, Note_on_c, 0, 36, 81
1, 203403, Note_on_c, 0, 48, 0
1, 203445, Note_on_c, 0, 36, 0
1, 203445, Note_on_c, 0, 48, 88
1, 203514, Note_on_c, 0, 36, 87
1, 203526, Note_on_c, 0, 48, 0
1, 203569, Note_on_c, 0, 48, 86
1, 203587, Note_on_c, 0, 36, 0
1, 203634, Note_on_c, 0, 36, 98
1, 203656, Note_on_c, 0, 48, 0
1, 203693, Note_on_c, 0, 48, 94
1, 203701, Note_on_c, 0, 36, 0
1, 203753, Note_on_c, 0, 36, 95
1, 203785, Note_on_c, 0, 48, 0
1, 203821, Note_on_c, 0, 48, 87
1, 203828, Note_on_c, 0, 36, 0
1, 203876, Note_on_c, 0, 36, 94
1, 203915, Note_on_c, 0, 48, 0
1, 203943, Note_on_c, 0, 36, 0
1, 203943, Note_on_c, 0, 48, 70
1, 204001, Note_on_c, 0, 36, 73
1, 204019, Note_on_c, 0, 48, 0
1, 204060, Note_on_c, 0, 48, 94
1, 204065, Note_on_c, 0, 36, 0
1, 204129, Note_on_c, 0, 36, 69
1, 204157, Note_on_c, 0, 48, 0
1, 204186, Note_on_c, 0, 48, 57
1, 204189, Note_on_c, 0, 36, 0
1, 204250, Note_on_c, 0, 36, 71
1, 204278, Note_on_c, 0, 48, 0
1, 204321, Note_on_c, 0, 36, 0
1, 204321, Note_on_c, 0, 48, 85
1, 204380, Note_on_c, 0, 36, 75
1, 204409, Note_on_c, 0, 48, 0
1, 204452, Note_on_c, 0, 48, 88
1, 204462, Note_on_c, 0, 36, 0
1, 204514, Note_on_c, 0, 36, 91
1, 204618, Note_on_c, 0, 36, 0
1, 204664, Note_on_c, 0, 48, 0
1, 204887, Note_on_c, 0, 79, 0
1, 204906, Note_on_c, 0, 84, 0
1, 204951, Note_on_c, 0, 76, 0
1, 204969, Note_on_c, 0, 72, 0
1, 206267, Control_c, 0, 64, 0
1, 206267, End_track
0, 0, End_of_file
