0, 0, Header, 1, 7, 480
1, 0, Start_track
1, 0, Title_t, "Seq-1"
1, 0, SMPTE_offset, 96, 0, 0, 0, 0
1, 0, Time_signature, 4, 2, 24, 8
1, 0, Tempo, 512820
1, 0, End_track
2, 0, Start_track
2, 0, Title_t, "Robert Schumann"
2, 2, Control_c, 0, 7, 127
2, 894, Note_on_c, 0, 67, 38
2, 1157, Note_on_c, 0, 50, 41
2, 1181, Note_on_c, 0, 55, 26
2, 1186, Note_on_c, 0, 71, 40
2, 1203, Control_c, 0, 64, 96
2, 1294, Note_off_c, 0, 67, 49
2, 1300, Note_on_c, 0, 69, 41
2, 1401, Note_off_c, 0, 71, 50
2, 1405, Note_on_c, 0, 59, 31
2, 1585, Note_off_c, 0, 59, 47
2, 1586, Note_on_c, 0, 65, 37
2, 1731, Note_on_c, 0, 67, 47
2, 1798, Note_off_c, 0, 69, 50
2, 1856, Note_on_c, 0, 72, 49
2, 1867, Note_off_c, 0, 65, 49
2, 1869, Note_on_c, 0, 48, 37
2, 1872, Control_c, 0, 64, 20
2, 1897, Note_off_c, 0, 50, 50
2, 1930, Note_off_c, 0, 67, 51
2, 2001, Note_on_c, 0, 60, 31
2, 2046, Control_c, 0, 64, 96
2, 2141, Note_off_c, 0, 60, 47
2, 2143, Note_on_c, 0, 64, 43
2, 2168, Note_off_c, 0, 55, 46
2, 2258, Note_off_c, 0, 72, 52
2, 2284, Note_on_c, 0, 67, 53
2, 2319, Note_off_c, 0, 48, 49
2, 2354, Note_on_c, 0, 50, 45
2, 2365, Note_on_c, 0, 55, 41
2, 2394, Note_off_c, 0, 64, 50
2, 2396, Note_on_c, 0, 71, 55
2, 2399, Control_c, 0, 64, 20
2, 2445, Note_off_c, 0, 67, 53
2, 2455, Note_on_c, 0, 69, 57
2, 2497, Note_off_c, 0, 71, 53
2, 2518, Note_on_c, 0, 59, 46
2, 2558, Control_c, 0, 64, 96
2, 2646, Note_off_c, 0, 59, 51
2, 2649, Note_on_c, 0, 65, 52
2, 2779, Note_on_c, 0, 67, 64
2, 2824, Note_off_c, 0, 69, 54
2, 2907, Note_on_c, 0, 72, 66
2, 2918, Note_off_c, 0, 65, 53
2, 2920, Note_on_c, 0, 48, 41
2, 2927, Control_c, 0, 64, 20
2, 2946, Note_off_c, 0, 50, 51
2, 2966, Note_off_c, 0, 67, 56
2, 3064, Note_on_c, 0, 60, 46
2, 3117, Control_c, 0, 64, 96
2, 3211, Note_off_c, 0, 60, 51
2, 3212, Note_on_c, 0, 64, 21
2, 3288, Note_off_c, 0, 72, 56
2, 3320, Note_off_c, 0, 55, 50
2, 3353, Note_on_c, 0, 72, 63
2, 3395, Note_off_c, 0, 48, 50
2, 3500, Note_on_c, 0, 73, 70
2, 3513, Note_off_c, 0, 64, 45
2, 3515, Note_on_c, 0, 55, 38
2, 3517, Note_on_c, 0, 57, 24
2, 3528, Control_c, 0, 64, 20
2, 3566, Note_off_c, 0, 72, 55
2, 3658, Note_on_c, 0, 61, 30
2, 3717, Control_c, 0, 64, 96
2, 3799, Note_off_c, 0, 61, 47
2, 3801, Note_on_c, 0, 64, 37
2, 3839, Note_off_c, 0, 73, 57
2, 3926, Note_on_c, 0, 73, 39
2, 4060, Note_on_c, 0, 74, 46
2, 4070, Note_off_c, 0, 64, 49
2, 4074, Note_on_c, 0, 53, 55
2, 4098, Control_c, 0, 64, 20
2, 4109, Note_off_c, 0, 73, 49
2, 4111, Note_off_c, 0, 55, 49
2, 4202, Note_on_c, 0, 62, 44
2, 4268, Control_c, 0, 64, 96
2, 4330, Note_off_c, 0, 62, 51
2, 4333, Note_on_c, 0, 65, 46
2, 4359, Note_off_c, 0, 74, 51
2, 4426, Note_off_c, 0, 57, 46
2, 4446, Note_on_c, 0, 74, 52
2, 4566, Note_on_c, 0, 76, 54
2, 4576, Note_off_c, 0, 65, 51
2, 4579, Note_on_c, 0, 57, 43
2, 4581, Note_on_c, 0, 52, 54
2, 4588, Control_c, 0, 64, 20
2, 4604, Note_off_c, 0, 74, 53
2, 4616, Note_off_c, 0, 53, 53
2, 4696, Note_on_c, 0, 61, 50
2, 4743, Control_c, 0, 64, 96
2, 4820, Note_off_c, 0, 61, 52
2, 4822, Note_on_c, 0, 67, 51
2, 4858, Note_off_c, 0, 76, 53
2, 4970, Note_on_c, 0, 76, 47
2, 5142, Note_on_c, 0, 77, 55
2, 5159, Note_off_c, 0, 67, 52
2, 5161, Note_on_c, 0, 50, 38
2, 5173, Control_c, 0, 64, 20
2, 5209, Note_off_c, 0, 76, 51
2, 5216, Note_off_c, 0, 52, 53
2, 5349, Note_on_c, 0, 62, 43
2, 5413, Control_c, 0, 64, 96
2, 5507, Note_off_c, 0, 62, 50
2, 5509, Note_on_c, 0, 65, 55
2, 5597, Note_off_c, 0, 57, 50
2, 5676, Note_off_c, 0, 50, 49
2, 5683, Note_off_c, 0, 77, 53
2, 5685, Note_on_c, 0, 69, 60
2, 5889, Note_off_c, 0, 65, 53
2, 5941, Note_on_c, 0, 72, 53
2, 5945, Note_on_c, 0, 57, 41
2, 5947, Note_on_c, 0, 55, 40
2, 5948, Control_c, 0, 64, 20
2, 5971, Note_off_c, 0, 69, 55
2, 6116, Note_on_c, 0, 70, 55
2, 6130, Note_off_c, 0, 72, 53
2, 6143, Note_on_c, 0, 61, 39
2, 6203, Control_c, 0, 64, 96
2, 6314, Note_off_c, 0, 61, 49
2, 6316, Note_on_c, 0, 67, 45
2, 6458, Note_on_c, 0, 69, 64
2, 6543, Note_off_c, 0, 70, 53
2, 6584, Note_off_c, 0, 67, 51
2, 6586, Note_on_c, 0, 74, 70
2, 6589, Note_on_c, 0, 53, 46
2, 6598, Control_c, 0, 64, 20
2, 6622, Note_off_c, 0, 69, 56
2, 6634, Note_off_c, 0, 55, 50
2, 6706, Note_on_c, 0, 62, 39
2, 6753, Control_c, 0, 64, 96
2, 6823, Note_off_c, 0, 62, 49
2, 6825, Note_on_c, 0, 65, 39
2, 6910, Note_off_c, 0, 74, 57
2, 6913, Note_off_c, 0, 57, 50
2, 6967, Note_on_c, 0, 69, 77
2, 6999, Note_off_c, 0, 53, 51
2, 7073, Note_on_c, 0, 57, 45
2, 7075, Note_on_c, 0, 55, 50
2, 7097, Note_off_c, 0, 65, 49
2, 7098, Note_on_c, 0, 72, 74
2, 7113, Control_c, 0, 64, 20
2, 7156, Note_off_c, 0, 69, 59
2, 7171, Note_on_c, 0, 70, 73
2, 7206, Note_off_c, 0, 72, 59
2, 7241, Note_on_c, 0, 61, 60
2, 7300, Control_c, 0, 64, 96
2, 7378, Note_off_c, 0, 61, 55
2, 7380, Note_on_c, 0, 67, 59
2, 7510, Note_on_c, 0, 69, 66
2, 7544, Note_off_c, 0, 70, 58
2, 7637, Note_off_c, 0, 67, 54
2, 7639, Note_on_c, 0, 74, 67
2, 7641, Note_on_c, 0, 53, 57
2, 7646, Control_c, 0, 64, 20
2, 7667, Note_off_c, 0, 69, 56
2, 7685, Note_off_c, 0, 55, 52
2, 7757, Note_on_c, 0, 62, 56
2, 7803, Control_c, 0, 64, 96
2, 7876, Note_off_c, 0, 62, 54
2, 7877, Note_on_c, 0, 65, 55
2, 7936, Note_off_c, 0, 57, 51
2, 7976, Note_off_c, 0, 74, 57
2, 7997, Note_on_c, 0, 74, 58
2, 8149, Note_off_c, 0, 65, 53
2, 8151, Note_on_c, 0, 52, 46
2, 8153, Note_on_c, 0, 76, 56
2, 8155, Note_on_c, 0, 57, 47
2, 8159, Control_c, 0, 64, 20
2, 8182, Note_off_c, 0, 74, 54
2, 8231, Note_off_c, 0, 53, 54
2, 8296, Note_on_c, 0, 61, 46
2, 8350, Control_c, 0, 64, 96
2, 8437, Note_off_c, 0, 61, 51
2, 8439, Note_on_c, 0, 67, 44
2, 8512, Note_off_c, 0, 76, 54
2, 8575, Note_on_c, 0, 76, 63
2, 8709, Note_off_c, 0, 67, 51
2, 8711, Note_on_c, 0, 50, 48
2, 8713, Note_on_c, 0, 77, 60
2, 8715, Control_c, 0, 64, 20
2, 8755, Note_off_c, 0, 76, 55
2, 8778, Note_off_c, 0, 52, 51
2, 8835, Note_on_c, 0, 62, 47
2, 8877, Control_c, 0, 64, 96
2, 8961, Note_off_c, 0, 62, 51
2, 8963, Note_on_c, 0, 65, 46
2, 9020, Note_off_c, 0, 77, 55
2, 9047, Note_off_c, 0, 57, 51
2, 9084, Note_on_c, 0, 77, 56
2, 9210, Note_off_c, 0, 65, 51
2, 9211, Note_on_c, 0, 48, 42
2, 9213, Note_on_c, 0, 78, 68
2, 9213, Note_on_c, 0, 57, 39
2, 9218, Control_c, 0, 64, 20
2, 9251, Note_off_c, 0, 77, 54
2, 9274, Note_off_c, 0, 50, 52
2, 9328, Note_on_c, 0, 62, 35
2, 9380, Control_c, 0, 64, 96
2, 9452, Note_off_c, 0, 62, 48
2, 9455, Note_on_c, 0, 66, 62
2, 9551, Note_off_c, 0, 78, 57
2, 9635, Note_on_c, 0, 78, 69
2, 9688, Note_off_c, 0, 57, 49
2, 9854, Note_off_c, 0, 66, 55
2, 9857, Note_on_c, 0, 79, 58
2, 9859, Note_on_c, 0, 55, 44
2, 9861, Note_on_c, 0, 47, 46
2, 9913, Control_c, 0, 64, 20
2, 9965, Note_off_c, 0, 78, 57
2, 9995, Note_off_c, 0, 48, 50
2, 10120, Note_on_c, 0, 62, 49
2, 10240, Control_c, 0, 64, 96
2, 10405, Note_off_c, 0, 62, 52
2, 10407, Note_on_c, 0, 65, 49
2, 10662, Note_off_c, 0, 79, 54
2, 10664, Note_off_c, 0, 47, 51
2, 10673, Note_off_c, 0, 55, 51
2, 10699, Note_on_c, 0, 67, 50
2, 10779, Note_off_c, 0, 65, 52
2, 10789, Note_on_c, 0, 50, 42
2, 10797, Note_on_c, 0, 55, 38
2, 10808, Note_on_c, 0, 71, 54
2, 10819, Control_c, 0, 64, 20
2, 10849, Note_off_c, 0, 67, 52
2, 10921, Note_on_c, 0, 69, 56
2, 10928, Note_on_c, 0, 59, 48
2, 10945, Note_off_c, 0, 71, 53
2, 10961, Control_c, 0, 64, 96
2, 11050, Note_off_c, 0, 59, 52
2, 11052, Note_on_c, 0, 65, 47
2, 11174, Note_on_c, 0, 67, 66
2, 11266, Note_off_c, 0, 69, 54
2, 11302, Note_off_c, 0, 65, 51
2, 11305, Note_on_c, 0, 48, 45
2, 11308, Note_on_c, 0, 72, 74
2, 11315, Control_c, 0, 64, 0
2, 11322, Note_off_c, 0, 50, 50
2, 11333, Note_off_c, 0, 67, 56
2, 11421, Note_on_c, 0, 60, 44
2, 11469, Control_c, 0, 64, 96
2, 11541, Note_off_c, 0, 60, 51
2, 11542, Note_on_c, 0, 64, 62
2, 11586, Note_off_c, 0, 72, 59
2, 11590, Note_off_c, 0, 55, 49
2, 11663, Note_on_c, 0, 72, 61
2, 11677, Note_off_c, 0, 48, 51
2, 11784, Note_off_c, 0, 64, 55
2, 11787, Note_on_c, 0, 48, 32
2, 11789, Note_on_c, 0, 40, 44
2, 11791, Note_on_c, 0, 67, 50
2, 11793, Control_c, 0, 64, 20
2, 11827, Note_off_c, 0, 72, 55
2, 11906, Note_on_c, 0, 55, 39
2, 11951, Control_c, 0, 64, 96
2, 11991, Note_off_c, 0, 40, 51
2, 12028, Note_off_c, 0, 55, 49
2, 12030, Note_on_c, 0, 60, 38
2, 12045, Note_off_c, 0, 67, 52
2, 12155, Note_on_c, 0, 67, 58
2, 12284, Note_off_c, 0, 60, 49
2, 12288, Note_on_c, 0, 69, 61
2, 12289, Note_on_c, 0, 41, 48
2, 12295, Control_c, 0, 64, 20
2, 12339, Note_off_c, 0, 67, 54
2, 12400, Control_c, 0, 64, 96
2, 12409, Note_on_c, 0, 57, 39
2, 12495, Note_off_c, 0, 41, 52
2, 12535, Note_off_c, 0, 57, 49
2, 12538, Note_on_c, 0, 60, 39
2, 12588, Note_off_c, 0, 69, 55
2, 12666, Note_on_c, 0, 69, 52
2, 12801, Note_off_c, 0, 60, 49
2, 12802, Note_off_c, 0, 48, 48
2, 12804, Note_on_c, 0, 38, 53
2, 12806, Note_on_c, 0, 65, 68
2, 12811, Control_c, 0, 64, 0
2, 12839, Note_off_c, 0, 69, 53
2, 12935, Note_on_c, 0, 53, 39
2, 12973, Control_c, 0, 64, 127
2, 13028, Note_off_c, 0, 38, 53
2, 13072, Note_off_c, 0, 53, 49
2, 13074, Note_on_c, 0, 60, 39
2, 13112, Note_off_c, 0, 65, 57
2, 13215, Note_on_c, 0, 65, 54
2, 13360, Note_off_c, 0, 60, 49
2, 13362, Note_on_c, 0, 62, 51
2, 13364, Note_on_c, 0, 43, 32
2, 13365, Note_on_c, 0, 48, 33
2, 13373, Control_c, 0, 64, 0
2, 13425, Note_off_c, 0, 65, 53
2, 13509, Note_on_c, 0, 53, 32
2, 13570, Control_c, 0, 64, 127
2, 13613, Note_off_c, 0, 43, 48
2, 13661, Note_off_c, 0, 53, 48
2, 13664, Note_on_c, 0, 60, 31
2, 13750, Note_off_c, 0, 62, 52
2, 13816, Note_on_c, 0, 62, 45
2, 13980, Note_off_c, 0, 60, 47
2, 13981, Note_off_c, 0, 48, 48
2, 13983, Note_on_c, 0, 47, 39
2, 13985, Note_on_c, 0, 67, 62
2, 13987, Note_on_c, 0, 43, 40
2, 13987, Control_c, 0, 64, 0
2, 14014, Note_off_c, 0, 62, 51
2, 14145, Note_on_c, 0, 53, 33
2, 14202, Control_c, 0, 64, 127
2, 14268, Note_off_c, 0, 43, 50
2, 14330, Note_off_c, 0, 53, 48
2, 14333, Note_on_c, 0, 59, 32
2, 14377, Note_off_c, 0, 67, 55
2, 14528, Note_on_c, 0, 67, 34
2, 14749, Note_off_c, 0, 59, 48
2, 14751, Note_off_c, 0, 47, 49
2, 14754, Note_on_c, 0, 43, 35
2, 14755, Note_on_c, 0, 64, 33
2, 14757, Note_on_c, 0, 36, 30
2, 14761, Control_c, 0, 64, 0
2, 14834, Note_off_c, 0, 67, 48
2, 14986, Note_off_c, 0, 43, 48
2, 14988, Note_on_c, 0, 52, 33
2, 15076, Control_c, 0, 64, 127
2, 15160, Note_off_c, 0, 36, 47
2, 15243, Note_off_c, 0, 52, 48
2, 15247, Note_off_c, 0, 64, 48
2, 15249, Note_on_c, 0, 60, 31
2, 15620, Note_on_c, 0, 67, 44
2, 15706, Note_off_c, 0, 60, 47
2, 15748, Note_on_c, 0, 55, 27
2, 15750, Note_on_c, 0, 71, 47
2, 15752, Note_on_c, 0, 50, 22
2, 15757, Control_c, 0, 64, 0
2, 15880, Note_on_c, 0, 69, 50
2, 15886, Note_off_c, 0, 67, 51
2, 15900, Note_off_c, 0, 71, 51
2, 15930, Note_on_c, 0, 59, 29
2, 15973, Control_c, 0, 64, 127
2, 16102, Note_off_c, 0, 59, 47
2, 16103, Note_on_c, 0, 65, 31
2, 16255, Note_on_c, 0, 67, 64
2, 16345, Note_off_c, 0, 69, 52
2, 16397, Note_on_c, 0, 72, 60
2, 16398, Note_off_c, 0, 65, 47
2, 16402, Note_on_c, 0, 48, 43
2, 16405, Control_c, 0, 64, 0
2, 16444, Note_off_c, 0, 67, 56
2, 16532, Note_on_c, 0, 60, 36
2, 16568, Note_off_c, 0, 48, 50
2, 16577, Control_c, 0, 64, 127
2, 16659, Note_off_c, 0, 60, 49
2, 16660, Note_on_c, 0, 64, 36
2, 16729, Note_off_c, 0, 72, 55
2, 16773, Note_on_c, 0, 72, 59
2, 16882, Note_off_c, 0, 64, 49
2, 16884, Note_off_c, 0, 55, 46
2, 16887, Note_off_c, 0, 50, 45
2, 16889, Note_on_c, 0, 48, 41
2, 16891, Note_on_c, 0, 40, 33
2, 16893, Note_on_c, 0, 67, 71
2, 16894, Control_c, 0, 64, 0
2, 16909, Note_off_c, 0, 72, 54
2, 16995, Note_on_c, 0, 55, 36
2, 17032, Control_c, 0, 64, 127
2, 17072, Note_off_c, 0, 40, 48
2, 17107, Note_off_c, 0, 55, 49
2, 17109, Note_on_c, 0, 60, 44
2, 17126, Note_off_c, 0, 67, 58
2, 17222, Note_on_c, 0, 67, 67
2, 17336, Note_on_c, 0, 69, 56
2, 17339, Note_off_c, 0, 60, 51
2, 17341, Note_on_c, 0, 41, 35
2, 17347, Control_c, 0, 64, 0
2, 17381, Note_off_c, 0, 67, 57
2, 17456, Note_on_c, 0, 57, 36
2, 17486, Control_c, 0, 64, 127
2, 17538, Note_off_c, 0, 41, 48
2, 17577, Note_off_c, 0, 57, 49
2, 17580, Note_on_c, 0, 60, 41
2, 17651, Note_off_c, 0, 69, 54
2, 17699, Note_on_c, 0, 69, 52
2, 17824, Note_off_c, 0, 60, 50
2, 17825, Note_off_c, 0, 48, 50
2, 17827, Note_on_c, 0, 65, 59
2, 17829, Note_on_c, 0, 38, 39
2, 17831, Control_c, 0, 64, 0
2, 17842, Note_off_c, 0, 69, 53
2, 17949, Note_on_c, 0, 53, 36
2, 17977, Control_c, 0, 64, 127
2, 18036, Note_off_c, 0, 38, 49
2, 18076, Note_off_c, 0, 53, 49
2, 18078, Note_on_c, 0, 60, 39
2, 18104, Note_off_c, 0, 65, 54
2, 18207, Note_on_c, 0, 65, 57
2, 18340, Note_on_c, 0, 62, 52
2, 18342, Note_off_c, 0, 60, 49
2, 18344, Note_on_c, 0, 43, 40
2, 18346, Note_on_c, 0, 48, 35
2, 18349, Control_c, 0, 64, 0
2, 18404, Note_off_c, 0, 65, 54
2, 18482, Note_on_c, 0, 53, 33
2, 18535, Control_c, 0, 64, 127
2, 18581, Note_off_c, 0, 43, 50
2, 18627, Note_off_c, 0, 53, 48
2, 18630, Note_on_c, 0, 60, 34
2, 18736, Note_off_c, 0, 62, 53
2, 18780, Note_on_c, 0, 62, 40
2, 18890, Note_off_c, 0, 48, 48
2, 18941, Note_off_c, 0, 60, 48
2, 18943, Note_on_c, 0, 47, 28
2, 18946, Note_on_c, 0, 43, 33
2, 18948, Note_on_c, 0, 67, 41
2, 18950, Control_c, 0, 64, 0
2, 18980, Note_off_c, 0, 62, 50
2, 19114, Note_on_c, 0, 53, 26
2, 19175, Control_c, 0, 64, 127
2, 19237, Note_off_c, 0, 43, 48
2, 19297, Note_off_c, 0, 53, 46
2, 19299, Note_on_c, 0, 59, 24
2, 19374, Note_off_c, 0, 67, 50
2, 19496, Note_on_c, 0, 67, 33
2, 19637, Note_off_c, 0, 47, 47
2, 19707, Note_off_c, 0, 59, 46
2, 19708, Note_on_c, 0, 60, 20
2, 19711, Note_on_c, 0, 36, 22
2, 19716, Control_c, 0, 64, 0
2, 19740, Note_on_c, 0, 43, 25
2, 19776, Note_on_c, 0, 52, 22
2, 19913, Note_off_c, 0, 43, 46
2, 19940, Note_off_c, 0, 36, 45
2, 19954, Note_off_c, 0, 52, 45
2, 19987, Control_c, 0, 64, 127
2, 20174, Note_off_c, 0, 60, 45
2, 20179, Note_off_c, 0, 67, 48
2, 20498, Note_on_c, 0, 71, 58
2, 20514, Control_c, 0, 64, 0
2, 20730, Note_on_c, 0, 52, 48
2, 20733, Note_on_c, 0, 59, 40
2, 20737, Note_on_c, 0, 74, 60
2, 20762, Note_off_c, 0, 71, 54
2, 20785, Control_c, 0, 64, 127
2, 20835, Note_on_c, 0, 72, 61
2, 20865, Note_off_c, 0, 74, 55
2, 20935, Note_on_c, 0, 64, 42
2, 21115, Note_off_c, 0, 64, 50
2, 21117, Note_on_c, 0, 67, 45
2, 21276, Note_on_c, 0, 71, 66
2, 21300, Note_off_c, 0, 72, 55
2, 21423, Note_on_c, 0, 78, 68
2, 21424, Note_off_c, 0, 67, 51
2, 21426, Note_off_c, 0, 52, 52
2, 21428, Note_on_c, 0, 51, 45
2, 21431, Control_c, 0, 64, 0
2, 21483, Note_off_c, 0, 71, 56
2, 21557, Note_on_c, 0, 66, 42
2, 21604, Control_c, 0, 64, 127
2, 21684, Note_off_c, 0, 66, 50
2, 21686, Note_on_c, 0, 69, 42
2, 21822, Note_off_c, 0, 78, 57
2, 21830, Note_on_c, 0, 71, 45
2, 21833, Note_off_c, 0, 59, 50
2, 21918, Note_on_c, 0, 74, 49
2, 21933, Note_off_c, 0, 69, 50
2, 21935, Note_off_c, 0, 51, 51
2, 21937, Note_on_c, 0, 59, 41
2, 21939, Note_on_c, 0, 52, 35
2, 21944, Control_c, 0, 64, 0
2, 21987, Note_off_c, 0, 71, 51
2, 21992, Note_on_c, 0, 72, 52
2, 22011, Note_off_c, 0, 74, 52
2, 22104, Control_c, 0, 64, 127
2, 22182, Note_on_c, 0, 67, 42
2, 22315, Note_on_c, 0, 71, 64
2, 22357, Note_off_c, 0, 72, 53
2, 22454, Note_on_c, 0, 76, 68
2, 22456, Note_off_c, 0, 67, 50
2, 22458, Note_off_c, 0, 59, 50
2, 22460, Note_off_c, 0, 52, 48
2, 22462, Note_on_c, 0, 50, 55
2, 22464, Note_on_c, 0, 55, 48
2, 22470, Control_c, 0, 64, 0
2, 22499, Note_off_c, 0, 71, 56
2, 22600, Note_on_c, 0, 59, 40
2, 22664, Control_c, 0, 64, 127
2, 22753, Note_off_c, 0, 59, 50
2, 22756, Note_on_c, 0, 64, 46
2, 22937, Note_on_c, 0, 67, 69
2, 23000, Note_off_c, 0, 55, 52
2, 23002, Note_off_c, 0, 76, 57
2, 23083, Note_off_c, 0, 64, 51
2, 23085, Note_off_c, 0, 50, 53
2, 23087, Note_on_c, 0, 49, 35
2, 23090, Note_on_c, 0, 55, 44
2, 23091, Control_c, 0, 64, 0
2, 23093, Note_on_c, 0, 71, 64
2, 23162, Note_off_c, 0, 67, 57
2, 23194, Note_on_c, 0, 69, 62
2, 23226, Note_off_c, 0, 71, 56
2, 23255, Note_on_c, 0, 57, 42
2, 23311, Control_c, 0, 64, 127
2, 23424, Note_off_c, 0, 57, 50
2, 23426, Note_on_c, 0, 64, 47
2, 23593, Note_on_c, 0, 67, 53
2, 23673, Note_off_c, 0, 69, 55
2, 23761, Note_on_c, 0, 71, 65
2, 23764, Note_off_c, 0, 64, 51
2, 23765, Note_off_c, 0, 49, 48
2, 23767, Note_on_c, 0, 50, 50
2, 23769, Control_c, 0, 64, 0
2, 23815, Note_off_c, 0, 67, 53
2, 23928, Note_on_c, 0, 60, 42
2, 23983, Control_c, 0, 64, 127
2, 24094, Note_off_c, 0, 60, 50
2, 24097, Note_on_c, 0, 62, 45
2, 24188, Note_off_c, 0, 71, 56
2, 24261, Note_off_c, 0, 55, 51
2, 24264, Note_on_c, 0, 71, 52
2, 24313, Note_off_c, 0, 50, 52
2, 24427, Note_off_c, 0, 62, 51
2, 24432, Note_on_c, 0, 69, 50
2, 24434, Note_on_c, 0, 54, 30
2, 24444, Note_on_c, 0, 50, 29
2, 24451, Control_c, 0, 64, 0
2, 24467, Note_off_c, 0, 71, 53
2, 24606, Note_on_c, 0, 60, 36
2, 24685, Control_c, 0, 64, 127
2, 24793, Note_off_c, 0, 60, 49
2, 24795, Note_on_c, 0, 62, 41
2, 24881, Note_off_c, 0, 69, 52
2, 24958, Note_off_c, 0, 50, 47
2, 24987, Note_on_c, 0, 69, 43
2, 25200, Note_off_c, 0, 62, 50
2, 25202, Note_off_c, 0, 54, 47
2, 25207, Note_on_c, 0, 67, 39
2, 25208, Note_on_c, 0, 50, 29
2, 25210, Note_on_c, 0, 43, 25
2, 25213, Control_c, 0, 64, 0
2, 25293, Note_off_c, 0, 69, 50
2, 25422, Note_off_c, 0, 50, 47
2, 25426, Note_on_c, 0, 59, 29
2, 25510, Control_c, 0, 64, 127
2, 25660, Note_off_c, 0, 59, 47
2, 25663, Note_off_c, 0, 67, 49
2, 25665, Note_on_c, 0, 62, 29
2, 26057, Note_on_c, 0, 71, 48
2, 26165, Note_off_c, 0, 62, 47
2, 26167, Note_off_c, 0, 43, 46
2, 26239, Note_on_c, 0, 52, 20
2, 26240, Note_on_c, 0, 59, 30
2, 26242, Note_on_c, 0, 74, 51
2, 26245, Control_c, 0, 64, 0
2, 26336, Note_off_c, 0, 71, 52
2, 26348, Note_on_c, 0, 72, 52
2, 26383, Note_off_c, 0, 74, 52
2, 26443, Note_on_c, 0, 64, 20
2, 26482, Control_c, 0, 64, 127
2, 26617, Note_off_c, 0, 64, 45
2, 26620, Note_on_c, 0, 67, 20
2, 26773, Note_on_c, 0, 71, 60
2, 26801, Note_off_c, 0, 72, 53
2, 26915, Note_on_c, 0, 78, 62
2, 26917, Note_off_c, 0, 67, 45
2, 26919, Note_off_c, 0, 52, 45
2, 26922, Note_on_c, 0, 51, 40
2, 26924, Control_c, 0, 64, 0
2, 26940, Note_off_c, 0, 71, 55
2, 27050, Note_on_c, 0, 66, 20
2, 27099, Control_c, 0, 64, 127
2, 27179, Note_off_c, 0, 66, 45
2, 27182, Note_on_c, 0, 69, 25
2, 27314, Note_off_c, 0, 59, 47
2, 27361, Note_off_c, 0, 78, 55
2, 27415, Note_on_c, 0, 71, 51
2, 27460, Note_off_c, 0, 69, 46
2, 27462, Note_off_c, 0, 51, 50
2, 27465, Note_on_c, 0, 52, 20
2, 27466, Note_on_c, 0, 59, 26
2, 27472, Control_c, 0, 64, 0
2, 27496, Note_on_c, 0, 74, 48
2, 27592, Note_off_c, 0, 74, 52
2, 27593, Note_on_c, 0, 72, 46
2, 27595, Note_off_c, 0, 71, 52
2, 27609, Note_on_c, 0, 64, 26
2, 27665, Control_c, 0, 64, 127
2, 27757, Note_off_c, 0, 64, 46
2, 27759, Note_on_c, 0, 67, 32
2, 27900, Note_on_c, 0, 71, 38
2, 27990, Note_off_c, 0, 72, 51
2, 28045, Note_on_c, 0, 76, 62
2, 28047, Note_off_c, 0, 67, 48
2, 28048, Note_off_c, 0, 59, 46
2, 28051, Note_off_c, 0, 52, 45
2, 28053, Note_on_c, 0, 50, 20
2, 28054, Note_on_c, 0, 55, 40
2, 28057, Control_c, 0, 64, 0
2, 28072, Note_off_c, 0, 71, 49
2, 28189, Note_on_c, 0, 59, 20
2, 28245, Control_c, 0, 64, 127
2, 28330, Note_off_c, 0, 59, 45
2, 28332, Note_on_c, 0, 64, 20
2, 28458, Note_off_c, 0, 76, 55
2, 28504, Note_on_c, 0, 67, 41
2, 28552, Note_off_c, 0, 55, 50
2, 28610, Note_off_c, 0, 64, 45
2, 28613, Note_off_c, 0, 50, 45
2, 28616, Note_on_c, 0, 49, 20
2, 28617, Note_on_c, 0, 55, 26
2, 28619, Note_on_c, 0, 71, 48
2, 28621, Control_c, 0, 64, 0
2, 28672, Note_off_c, 0, 67, 50
2, 28711, Note_off_c, 0, 71, 52
2, 28731, Note_on_c, 0, 69, 46
2, 28758, Note_on_c, 0, 57, 26
2, 28810, Control_c, 0, 64, 127
2, 28910, Note_off_c, 0, 57, 46
2, 28912, Note_on_c, 0, 64, 30
2, 29067, Note_on_c, 0, 67, 42
2, 29142, Note_off_c, 0, 69, 51
2, 29216, Note_on_c, 0, 50, 32
2, 29231, Note_off_c, 0, 64, 47
2, 29233, Note_off_c, 0, 49, 45
2, 29235, Note_on_c, 0, 71, 52
2, 29238, Control_c, 0, 64, 0
2, 29260, Note_off_c, 0, 67, 50
2, 29401, Note_on_c, 0, 60, 26
2, 29467, Control_c, 0, 64, 127
2, 29581, Note_off_c, 0, 60, 46
2, 29584, Note_on_c, 0, 62, 30
2, 29646, Note_off_c, 0, 50, 48
2, 29648, Note_off_c, 0, 71, 53
2, 29743, Note_on_c, 0, 71, 53
2, 29912, Note_off_c, 0, 62, 47
2, 29913, Note_off_c, 0, 55, 46
2, 29916, Note_on_c, 0, 50, 26
2, 29918, Note_on_c, 0, 54, 26
2, 29920, Note_on_c, 0, 69, 50
2, 29921, Control_c, 0, 64, 0
2, 29948, Note_off_c, 0, 71, 53
2, 30083, Note_off_c, 0, 54, 46
2, 30087, Note_on_c, 0, 60, 20
2, 30155, Control_c, 0, 64, 127
2, 30267, Note_off_c, 0, 60, 45
2, 30269, Note_on_c, 0, 62, 23
2, 30352, Note_off_c, 0, 50, 46
2, 30368, Note_off_c, 0, 69, 52
2, 30457, Note_on_c, 0, 69, 44
2, 30655, Note_off_c, 0, 62, 45
2, 30658, Note_on_c, 0, 43, 30
2, 30661, Note_on_c, 0, 67, 41
2, 30663, Note_on_c, 0, 50, 35
2, 30665, Control_c, 0, 64, 0
2, 30731, Note_off_c, 0, 69, 51
2, 30862, Note_off_c, 0, 50, 48
2, 30866, Note_on_c, 0, 59, 29
2, 30935, Control_c, 0, 64, 127
2, 31083, Note_off_c, 0, 59, 47
2, 31086, Note_off_c, 0, 67, 50
2, 31088, Note_on_c, 0, 62, 29
2, 31359, Note_on_c, 0, 67, 52
2, 31556, Note_off_c, 0, 62, 47
2, 31558, Note_off_c, 0, 43, 47
2, 31562, Note_on_c, 0, 71, 50
2, 31564, Note_on_c, 0, 55, 24
2, 31565, Note_on_c, 0, 50, 30
2, 31612, Control_c, 0, 64, 0
2, 31669, Note_on_c, 0, 69, 53
2, 31676, Note_off_c, 0, 67, 53
2, 31732, Note_off_c, 0, 71, 52
2, 31762, Note_on_c, 0, 59, 24
2, 31806, Control_c, 0, 64, 127
2, 31933, Note_off_c, 0, 59, 46
2, 31935, Note_on_c, 0, 65, 24
2, 32085, Note_on_c, 0, 67, 65
2, 32135, Note_off_c, 0, 69, 53
2, 32225, Note_on_c, 0, 72, 69
2, 32227, Note_off_c, 0, 65, 46
2, 32228, Note_off_c, 0, 50, 47
2, 32230, Note_on_c, 0, 48, 30
2, 32233, Control_c, 0, 64, 0
2, 32308, Note_off_c, 0, 67, 56
2, 32354, Note_on_c, 0, 60, 24
2, 32398, Control_c, 0, 64, 127
2, 32479, Note_off_c, 0, 60, 46
2, 32480, Note_on_c, 0, 64, 24
2, 32589, Note_off_c, 0, 55, 46
2, 32628, Note_off_c, 0, 72, 57
2, 32641, Note_on_c, 0, 67, 60
2, 32772, Note_off_c, 0, 64, 46
2, 32774, Note_on_c, 0, 71, 64
2, 32777, Note_off_c, 0, 48, 47
2, 32780, Note_on_c, 0, 55, 38
2, 32781, Note_on_c, 0, 50, 49
2, 32788, Control_c, 0, 64, 0
2, 32852, Note_on_c, 0, 69, 67
2, 32864, Note_off_c, 0, 67, 55
2, 32907, Note_off_c, 0, 71, 56
2, 32932, Note_on_c, 0, 59, 38
2, 32999, Control_c, 0, 64, 127
2, 33091, Note_off_c, 0, 59, 49
2, 33093, Note_on_c, 0, 65, 38
2, 33238, Note_on_c, 0, 67, 79
2, 33287, Note_off_c, 0, 69, 57
2, 33381, Note_on_c, 0, 72, 83
2, 33383, Note_off_c, 0, 65, 49
2, 33387, Note_off_c, 0, 50, 52
2, 33388, Note_on_c, 0, 48, 44
2, 33397, Control_c, 0, 64, 0
2, 33506, Note_off_c, 0, 67, 60
2, 33522, Note_on_c, 0, 60, 44
2, 33578, Control_c, 0, 64, 127
2, 33656, Note_off_c, 0, 60, 51
2, 33657, Note_on_c, 0, 64, 38
2, 33706, Note_off_c, 0, 72, 60
2, 33783, Note_on_c, 0, 72, 44
2, 33800, Note_off_c, 0, 55, 49
2, 33911, Note_off_c, 0, 64, 49
2, 33914, Note_on_c, 0, 73, 46
2, 33917, Note_off_c, 0, 48, 51
2, 33919, Note_on_c, 0, 57, 32
2, 33921, Note_on_c, 0, 55, 27
2, 33924, Control_c, 0, 64, 0
2, 33977, Note_off_c, 0, 72, 51
2, 34041, Note_on_c, 0, 61, 32
2, 34092, Control_c, 0, 64, 127
2, 34171, Note_off_c, 0, 61, 48
2, 34174, Note_on_c, 0, 64, 38
2, 34195, Note_off_c, 0, 73, 51
2, 34303, Note_on_c, 0, 73, 52
2, 34435, Note_off_c, 0, 64, 49
2, 34436, Note_on_c, 0, 74, 54
2, 34438, Note_off_c, 0, 55, 46
2, 34441, Note_on_c, 0, 53, 32
2, 34443, Control_c, 0, 64, 0
2, 34504, Note_off_c, 0, 73, 53
2, 34570, Note_on_c, 0, 62, 36
2, 34618, Control_c, 0, 64, 127
2, 34708, Note_off_c, 0, 62, 49
2, 34710, Note_on_c, 0, 65, 42
2, 34738, Note_off_c, 0, 74, 53
2, 34823, Note_off_c, 0, 57, 48
2, 34844, Note_on_c, 0, 74, 61
2, 34985, Note_off_c, 0, 65, 50
2, 34987, Note_on_c, 0, 76, 63
2, 34988, Note_off_c, 0, 53, 48
2, 34991, Note_on_c, 0, 52, 32
2, 34992, Note_on_c, 0, 57, 43
2, 34997, Control_c, 0, 64, 0
2, 35026, Note_off_c, 0, 74, 55
2, 35128, Note_on_c, 0, 61, 32
2, 35188, Control_c, 0, 64, 127
2, 35281, Note_off_c, 0, 61, 48
2, 35283, Note_on_c, 0, 67, 32
2, 35311, Note_off_c, 0, 76, 55
2, 35438, Note_on_c, 0, 76, 69
2, 35608, Note_off_c, 0, 67, 48
2, 35611, Note_on_c, 0, 77, 71
2, 35614, Note_off_c, 0, 52, 48
2, 35616, Note_on_c, 0, 50, 42
2, 35618, Control_c, 0, 64, 0
2, 35697, Note_off_c, 0, 76, 57
2, 35786, Note_on_c, 0, 62, 32
2, 35849, Control_c, 0, 64, 127
2, 35977, Note_off_c, 0, 62, 48
2, 35980, Note_on_c, 0, 65, 38
2, 36082, Note_off_c, 0, 77, 58
2, 36193, Note_off_c, 0, 57, 50
2, 36208, Note_on_c, 0, 69, 38
2, 36347, Note_off_c, 0, 65, 49
2, 36353, Note_on_c, 0, 72, 51
2, 36355, Note_off_c, 0, 50, 50
2, 36357, Note_on_c, 0, 57, 26
2, 36359, Note_on_c, 0, 55, 29
2, 36364, Control_c, 0, 64, 0
2, 36441, Note_off_c, 0, 69, 49
2, 36495, Note_off_c, 0, 72, 52
2, 36502, Note_on_c, 0, 70, 53
2, 36509, Note_on_c, 0, 61, 26
2, 36573, Control_c, 0, 64, 127
2, 36664, Note_off_c, 0, 61, 46
2, 36665, Note_on_c, 0, 64, 26
2, 36812, Note_on_c, 0, 69, 63
2, 36944, Note_off_c, 0, 70, 53
2, 36953, Note_off_c, 0, 64, 46
2, 36956, Note_on_c, 0, 74, 67
2, 36958, Note_off_c, 0, 55, 47
2, 36961, Note_on_c, 0, 53, 34
2, 36966, Control_c, 0, 64, 0
2, 37010, Note_off_c, 0, 69, 55
2, 37092, Note_on_c, 0, 62, 31
2, 37147, Control_c, 0, 64, 127
2, 37235, Note_off_c, 0, 62, 47
2, 37236, Note_on_c, 0, 65, 36
2, 37319, Note_off_c, 0, 74, 57
2, 37381, Note_on_c, 0, 69, 48
2, 37387, Note_off_c, 0, 57, 46
2, 37499, Control_c, 0, 64, 0
2, 37500, Note_off_c, 0, 65, 49
2, 37502, Note_on_c, 0, 72, 63
2, 37505, Note_off_c, 0, 53, 48
2, 37506, Note_on_c, 0, 55, 41
2, 37508, Note_on_c, 0, 57, 38
2, 37550, Note_off_c, 0, 69, 52
2, 37561, Note_on_c, 0, 70, 65
2, 37608, Note_off_c, 0, 72, 55
2, 37621, Note_on_c, 0, 61, 38
2, 37660, Control_c, 0, 64, 127
2, 37747, Note_off_c, 0, 61, 49
2, 37749, Note_on_c, 0, 64, 38
2, 37875, Note_on_c, 0, 69, 75
2, 37929, Note_off_c, 0, 70, 56
2, 38009, Note_off_c, 0, 64, 49
2, 38010, Note_on_c, 0, 74, 79
2, 38012, Note_off_c, 0, 55, 50
2, 38014, Note_on_c, 0, 53, 52
2, 38023, Control_c, 0, 64, 0
2, 38065, Note_off_c, 0, 69, 59
2, 38146, Note_on_c, 0, 62, 38
2, 38203, Control_c, 0, 64, 127
2, 38287, Note_off_c, 0, 62, 49
2, 38290, Note_on_c, 0, 65, 46
2, 38303, Note_off_c, 0, 57, 49
2, 38354, Note_off_c, 0, 74, 60
2, 38435, Note_on_c, 0, 74, 44
2, 38554, Note_off_c, 0, 65, 51
2, 38556, Note_on_c, 0, 76, 46
2, 38558, Note_off_c, 0, 53, 53
2, 38561, Note_on_c, 0, 52, 40
2, 38562, Note_on_c, 0, 57, 38
2, 38564, Control_c, 0, 64, 0
2, 38595, Note_off_c, 0, 74, 51
2, 38673, Note_on_c, 0, 61, 38
2, 38717, Control_c, 0, 64, 127
2, 38794, Note_off_c, 0, 61, 49
2, 38797, Note_on_c, 0, 67, 42
2, 38849, Note_off_c, 0, 76, 51
2, 38916, Note_on_c, 0, 76, 53
2, 39041, Note_off_c, 0, 67, 50
2, 39042, Note_on_c, 0, 77, 55
2, 39046, Note_off_c, 0, 52, 50
2, 39047, Note_on_c, 0, 50, 40
2, 39050, Control_c, 0, 64, 0
2, 39097, Note_off_c, 0, 76, 53
2, 39167, Note_on_c, 0, 62, 34
2, 39214, Control_c, 0, 64, 127
2, 39297, Note_off_c, 0, 62, 48
2, 39300, Note_on_c, 0, 65, 40
2, 39336, Note_off_c, 0, 77, 53
2, 39393, Note_off_c, 0, 57, 49
2, 39430, Note_on_c, 0, 77, 62
2, 39564, Note_off_c, 0, 65, 50
2, 39566, Note_on_c, 0, 78, 64
2, 39568, Note_off_c, 0, 50, 50
2, 39570, Note_on_c, 0, 57, 44
2, 39572, Control_c, 0, 64, 0
2, 39574, Note_on_c, 0, 48, 40
2, 39638, Note_off_c, 0, 77, 55
2, 39710, Note_on_c, 0, 62, 36
2, 39761, Control_c, 0, 64, 127
2, 39864, Note_off_c, 0, 62, 49
2, 39867, Note_on_c, 0, 66, 42
2, 39889, Note_off_c, 0, 78, 56
2, 40031, Note_on_c, 0, 78, 71
2, 40215, Note_off_c, 0, 66, 50
2, 40217, Note_on_c, 0, 79, 73
2, 40220, Note_off_c, 0, 57, 51
2, 40222, Note_off_c, 0, 48, 50
2, 40223, Note_on_c, 0, 47, 32
2, 40225, Note_on_c, 0, 55, 53
2, 40225, Control_c, 0, 64, 0
2, 40340, Note_off_c, 0, 78, 58
2, 40409, Note_on_c, 0, 62, 38
2, 40462, Control_c, 0, 64, 127
2, 40625, Note_off_c, 0, 62, 49
2, 40627, Note_off_c, 0, 79, 58
2, 40631, Note_on_c, 0, 65, 42
2, 40880, Note_on_c, 0, 67, 44
2, 40921, Note_off_c, 0, 55, 53
2, 40998, Note_off_c, 0, 65, 50
2, 41000, Note_on_c, 0, 71, 54
2, 41003, Note_off_c, 0, 47, 48
2, 41005, Note_on_c, 0, 55, 32
2, 41007, Note_on_c, 0, 50, 27
2, 41013, Control_c, 0, 64, 0
2, 41075, Note_on_c, 0, 69, 56
2, 41120, Note_off_c, 0, 67, 51
2, 41152, Note_on_c, 0, 59, 34
2, 41160, Note_off_c, 0, 71, 53
2, 41198, Control_c, 0, 64, 127
2, 41301, Note_off_c, 0, 59, 48
2, 41302, Note_on_c, 0, 65, 40
2, 41445, Note_on_c, 0, 67, 35
2, 41522, Note_off_c, 0, 69, 54
2, 41588, Note_off_c, 0, 65, 50
2, 41590, Note_on_c, 0, 72, 50
2, 41593, Note_off_c, 0, 50, 46
2, 41595, Note_on_c, 0, 48, 32
2, 41598, Control_c, 0, 64, 0
2, 41663, Note_off_c, 0, 67, 48
2, 41726, Note_on_c, 0, 60, 32
2, 41780, Control_c, 0, 64, 127
2, 41867, Note_off_c, 0, 60, 48
2, 41869, Note_on_c, 0, 64, 46
2, 41944, Note_off_c, 0, 72, 52
2, 42016, Note_on_c, 0, 72, 56
2, 42080, Note_off_c, 0, 48, 48
2, 42165, Note_off_c, 0, 64, 51
2, 42168, Note_on_c, 0, 67, 60
2, 42171, Note_off_c, 0, 55, 48
2, 42173, Control_c, 0, 64, 0
2, 42175, Note_on_c, 0, 40, 40
2, 42177, Note_on_c, 0, 48, 54
2, 42225, Note_off_c, 0, 72, 54
2, 42322, Note_on_c, 0, 55, 32
2, 42374, Control_c, 0, 64, 127
2, 42442, Note_off_c, 0, 40, 50
2, 42477, Note_off_c, 0, 55, 48
2, 42479, Note_on_c, 0, 60, 32
2, 42515, Note_off_c, 0, 67, 55
2, 42632, Note_on_c, 0, 67, 56
2, 42752, Note_off_c, 0, 60, 48
2, 42754, Note_on_c, 0, 41, 50
2, 42756, Note_on_c, 0, 69, 54
2, 42784, Control_c, 0, 64, 0
2, 42811, Note_off_c, 0, 67, 54
2, 42869, Note_on_c, 0, 57, 38
2, 42929, Control_c, 0, 64, 127
2, 42990, Note_off_c, 0, 57, 49
2, 42991, Note_on_c, 0, 60, 43
2, 43015, Note_off_c, 0, 41, 52
2, 43053, Note_off_c, 0, 69, 53
2, 43111, Note_on_c, 0, 69, 49
2, 43234, Note_off_c, 0, 60, 50
2, 43236, Note_on_c, 0, 65, 48
2, 43238, Note_off_c, 0, 48, 53
2, 43240, Note_on_c, 0, 38, 40
2, 43242, Control_c, 0, 64, 0
2, 43289, Note_off_c, 0, 69, 52
2, 43360, Note_on_c, 0, 53, 38
2, 43393, Control_c, 0, 64, 127
2, 43446, Note_off_c, 0, 38, 50
2, 43486, Note_off_c, 0, 53, 49
2, 43487, Note_on_c, 0, 60, 42
2, 43537, Note_off_c, 0, 65, 52
2, 43612, Note_on_c, 0, 65, 43
2, 43743, Note_off_c, 0, 60, 50
2, 43745, Note_on_c, 0, 62, 46
2, 43747, Note_on_c, 0, 43, 43
2, 43749, Note_on_c, 0, 48, 50
2, 43751, Control_c, 0, 64, 0
2, 43799, Note_off_c, 0, 65, 50
2, 43874, Note_on_c, 0, 53, 39
2, 43924, Control_c, 0, 64, 127
2, 44003, Note_off_c, 0, 43, 50
2, 44006, Note_off_c, 0, 53, 49
2, 44009, Note_on_c, 0, 60, 44
2, 44023, Note_off_c, 0, 62, 51
2, 44146, Note_on_c, 0, 62, 46
2, 44290, Note_off_c, 0, 60, 51
2, 44292, Note_on_c, 0, 67, 47
2, 44295, Note_off_c, 0, 48, 52
2, 44297, Note_on_c, 0, 43, 36
2, 44299, Note_on_c, 0, 47, 47
2, 44302, Control_c, 0, 64, 0
2, 44359, Note_off_c, 0, 62, 51
2, 44445, Note_on_c, 0, 53, 32
2, 44508, Control_c, 0, 64, 127
2, 44541, Note_off_c, 0, 43, 49
2, 44608, Note_off_c, 0, 53, 48
2, 44611, Note_on_c, 0, 59, 35
2, 44664, Note_off_c, 0, 67, 51
2, 44784, Note_on_c, 0, 67, 39
2, 44971, Note_off_c, 0, 59, 48
2, 44974, Note_on_c, 0, 64, 36
2, 44975, Note_off_c, 0, 47, 51
2, 44978, Note_on_c, 0, 36, 30
2, 44980, Note_on_c, 0, 43, 37
2, 44983, Control_c, 0, 64, 0
2, 45043, Note_off_c, 0, 67, 49
2, 45171, Note_on_c, 0, 52, 24
2, 45249, Control_c, 0, 64, 127
2, 45312, Note_off_c, 0, 36, 47
2, 45388, Note_off_c, 0, 52, 46
2, 45390, Note_off_c, 0, 64, 49
2, 45395, Note_on_c, 0, 60, 24
2, 45686, Note_on_c, 0, 67, 24
2, 45824, Note_on_c, 0, 71, 45
2, 45835, Note_off_c, 0, 60, 46
2, 45839, Note_off_c, 0, 43, 49
2, 45841, Note_on_c, 0, 55, 36
2, 45844, Note_on_c, 0, 50, 25
2, 45848, Control_c, 0, 64, 0
2, 45914, Note_on_c, 0, 69, 46
2, 45968, Note_off_c, 0, 67, 46
2, 45970, Note_off_c, 0, 71, 51
2, 45990, Note_on_c, 0, 59, 27
2, 46050, Control_c, 0, 64, 127
2, 46141, Note_off_c, 0, 59, 46
2, 46143, Note_on_c, 0, 65, 36
2, 46281, Note_on_c, 0, 67, 56
2, 46342, Note_off_c, 0, 69, 51
2, 46420, Note_off_c, 0, 65, 49
2, 46422, Note_on_c, 0, 72, 60
2, 46426, Note_off_c, 0, 50, 46
2, 46428, Note_on_c, 0, 48, 39
2, 46435, Control_c, 0, 64, 0
2, 46481, Note_off_c, 0, 67, 54
2, 46557, Note_on_c, 0, 60, 37
2, 46613, Control_c, 0, 64, 127
2, 46697, Note_off_c, 0, 60, 49
2, 46699, Note_on_c, 0, 64, 42
2, 46768, Note_off_c, 0, 72, 55
2, 46815, Note_on_c, 0, 72, 58
2, 46836, Note_off_c, 0, 48, 49
2, 46934, Note_off_c, 0, 72, 54
2, 46935, Note_off_c, 0, 64, 50
2, 46939, Note_on_c, 0, 67, 53
2, 46941, Note_off_c, 0, 55, 49
2, 46944, Note_on_c, 0, 48, 42
2, 46945, Note_on_c, 0, 40, 38
2, 46945, Control_c, 0, 64, 0
2, 47053, Note_on_c, 0, 55, 32
2, 47098, Control_c, 0, 64, 127
2, 47175, Note_off_c, 0, 55, 48
2, 47177, Note_on_c, 0, 60, 42
2, 47188, Note_off_c, 0, 40, 49
2, 47238, Note_off_c, 0, 67, 53
2, 47297, Note_on_c, 0, 67, 44
2, 47421, Note_off_c, 0, 60, 50
2, 47423, Note_on_c, 0, 69, 65
2, 47425, Note_on_c, 0, 41, 45
2, 47427, Control_c, 0, 64, 0
2, 47484, Note_off_c, 0, 67, 51
2, 47542, Note_on_c, 0, 57, 32
2, 47575, Control_c, 0, 64, 127
2, 47659, Note_off_c, 0, 41, 51
2, 47668, Note_off_c, 0, 57, 48
2, 47670, Note_on_c, 0, 60, 38
2, 47731, Note_off_c, 0, 69, 56
2, 47794, Note_on_c, 0, 69, 60
2, 47923, Note_off_c, 0, 60, 49
2, 47925, Note_on_c, 0, 65, 59
2, 47929, Note_off_c, 0, 48, 50
2, 47930, Note_on_c, 0, 38, 48
2, 47935, Control_c, 0, 64, 0
2, 47961, Note_off_c, 0, 69, 55
2, 48053, Note_on_c, 0, 53, 34
2, 48092, Control_c, 0, 64, 127
2, 48183, Note_off_c, 0, 53, 48
2, 48185, Note_on_c, 0, 60, 40
2, 48200, Note_off_c, 0, 38, 52
2, 48241, Note_off_c, 0, 65, 54
2, 48316, Note_on_c, 0, 65, 55
2, 48476, Note_off_c, 0, 60, 50
2, 48477, Note_on_c, 0, 62, 47
2, 48480, Note_on_c, 0, 43, 31
2, 48482, Note_on_c, 0, 48, 43
2, 48484, Control_c, 0, 64, 0
2, 48560, Note_off_c, 0, 65, 53
2, 48640, Note_on_c, 0, 53, 38
2, 48696, Control_c, 0, 64, 127
2, 48793, Note_off_c, 0, 43, 47
2, 48812, Note_off_c, 0, 53, 49
2, 48815, Note_on_c, 0, 60, 42
2, 48829, Note_off_c, 0, 62, 51
2, 48993, Note_on_c, 0, 62, 49
2, 49179, Note_off_c, 0, 60, 50
2, 49183, Note_on_c, 0, 67, 37
2, 49184, Note_off_c, 0, 48, 50
2, 49186, Note_on_c, 0, 47, 40
2, 49188, Note_on_c, 0, 43, 29
2, 49190, Control_c, 0, 64, 0
2, 49283, Note_off_c, 0, 62, 52
2, 49382, Note_on_c, 0, 53, 28
2, 49457, Control_c, 0, 64, 127
2, 49580, Note_off_c, 0, 43, 47
2, 49608, Note_off_c, 0, 53, 47
2, 49610, Note_on_c, 0, 59, 34
2, 49648, Note_off_c, 0, 67, 49
2, 49861, Note_on_c, 0, 67, 37
2, 50149, Note_off_c, 0, 59, 48
2, 50150, Note_off_c, 0, 47, 50
2, 50154, Note_on_c, 0, 60, 27
2, 50176, Note_on_c, 0, 36, 14
2, 50202, Control_c, 0, 64, 0
2, 50216, Note_on_c, 0, 43, 24
2, 50296, Note_on_c, 0, 52, 20
2, 50655, Control_c, 0, 64, 127
2, 50839, Note_off_c, 0, 36, 44
2, 50997, Note_off_c, 0, 52, 45
2, 51087, Note_off_c, 0, 43, 46
2, 51781, Note_off_c, 0, 67, 49
2, 51786, Note_off_c, 0, 60, 46
2, 52590, Control_c, 0, 64, 0
2, 53244, Note_on_c, 0, 71, 60
2, 53246, Note_on_c, 0, 67, 40
2, 53247, Note_on_c, 0, 59, 48
2, 53250, Control_c, 0, 64, 127
2, 53252, Note_on_c, 0, 52, 36
2, 53544, Note_on_c, 0, 72, 70
2, 53576, Note_on_c, 0, 60, 58
2, 53614, Note_off_c, 0, 71, 55
2, 53627, Note_off_c, 0, 59, 52
2, 53856, Note_off_c, 0, 52, 49
2, 53913, Note_on_c, 0, 71, 74
2, 53940, Note_on_c, 0, 59, 66
2, 53946, Note_on_c, 0, 69, 54
2, 53951, Note_off_c, 0, 67, 50
2, 53952, Note_on_c, 0, 51, 49
2, 53959, Note_off_c, 0, 72, 57
2, 53966, Control_c, 0, 64, 0
2, 54009, Note_off_c, 0, 60, 54
2, 54221, Control_c, 0, 64, 127
2, 54340, Note_on_c, 0, 78, 78
2, 54378, Note_on_c, 0, 66, 60
2, 54392, Note_off_c, 0, 71, 59
2, 54440, Note_off_c, 0, 59, 56
2, 54756, Note_off_c, 0, 51, 52
2, 54841, Note_on_c, 0, 79, 82
2, 54900, Note_on_c, 0, 71, 62
2, 54902, Note_on_c, 0, 52, 54
2, 54904, Note_off_c, 0, 69, 53
2, 54921, Note_off_c, 0, 78, 59
2, 54953, Control_c, 0, 64, 0
2, 55000, Note_off_c, 0, 66, 55
2, 55011, Note_on_c, 0, 59, 74
2, 55119, Note_on_c, 0, 67, 69
2, 55342, Control_c, 0, 64, 127
2, 55481, Note_on_c, 0, 76, 82
2, 55526, Note_off_c, 0, 67, 57
2, 55530, Note_on_c, 0, 64, 70
2, 55549, Note_off_c, 0, 79, 60
2, 55625, Note_off_c, 0, 59, 59
2, 55941, Note_off_c, 0, 52, 53
2, 56028, Note_on_c, 0, 74, 75
2, 56070, Note_off_c, 0, 71, 55
2, 56072, Note_on_c, 0, 62, 62
2, 56085, Note_off_c, 0, 76, 60
2, 56089, Control_c, 0, 64, 0
2, 56142, Note_off_c, 0, 64, 57
2, 56402, Control_c, 0, 64, 127
2, 56538, Note_on_c, 0, 60, 58
2, 56540, Note_on_c, 0, 72, 69
2, 56554, Note_off_c, 0, 74, 59
2, 56604, Note_off_c, 0, 62, 55
2, 56884, Note_off_c, 0, 72, 57
2, 56911, Note_off_c, 0, 60, 54
2, 56999, Note_on_c, 0, 71, 53
2, 57010, Note_on_c, 0, 52, 33
2, 57015, Note_on_c, 0, 67, 37
2, 57019, Note_on_c, 0, 59, 43
2, 57033, Control_c, 0, 64, 0
2, 57265, Control_c, 0, 64, 127
2, 57357, Note_on_c, 0, 72, 59
2, 57368, Note_on_c, 0, 60, 49
2, 57395, Note_off_c, 0, 71, 53
2, 57418, Note_off_c, 0, 59, 50
2, 57604, Note_off_c, 0, 52, 48
2, 57676, Note_on_c, 0, 71, 66
2, 57681, Note_on_c, 0, 51, 44
2, 57690, Note_off_c, 0, 67, 49
2, 57693, Note_on_c, 0, 59, 59
2, 57700, Note_on_c, 0, 69, 48
2, 57705, Control_c, 0, 64, 0
2, 57717, Note_off_c, 0, 72, 54
2, 57738, Note_off_c, 0, 60, 52
2, 57929, Control_c, 0, 64, 127
2, 58021, Note_on_c, 0, 78, 73
2, 58035, Note_on_c, 0, 66, 56
2, 58065, Note_off_c, 0, 71, 56
2, 58091, Note_off_c, 0, 59, 54
2, 58320, Note_off_c, 0, 51, 51
2, 58416, Note_on_c, 0, 79, 75
2, 58433, Note_on_c, 0, 71, 55
2, 58435, Note_on_c, 0, 52, 47
2, 58447, Note_off_c, 0, 69, 52
2, 58472, Control_c, 0, 64, 0
2, 58475, Note_off_c, 0, 78, 58
2, 58507, Note_off_c, 0, 66, 54
2, 58519, Note_on_c, 0, 59, 68
2, 58603, Note_on_c, 0, 67, 64
2, 58810, Control_c, 0, 64, 127
2, 58929, Note_on_c, 0, 76, 70
2, 58948, Note_off_c, 0, 67, 56
2, 58950, Note_on_c, 0, 64, 58
2, 58983, Note_off_c, 0, 79, 59
2, 59024, Note_off_c, 0, 59, 57
2, 59276, Note_off_c, 0, 52, 51
2, 59368, Note_on_c, 0, 74, 63
2, 59385, Note_off_c, 0, 71, 53
2, 59387, Note_on_c, 0, 62, 50
2, 59403, Control_c, 0, 64, 0
2, 59418, Note_off_c, 0, 76, 57
2, 59446, Note_off_c, 0, 64, 54
2, 59669, Control_c, 0, 64, 127
2, 59776, Note_on_c, 0, 72, 57
2, 59792, Note_on_c, 0, 60, 46
2, 59820, Note_off_c, 0, 74, 55
2, 59846, Note_off_c, 0, 62, 52
2, 60091, Note_off_c, 0, 72, 54
2, 60105, Note_off_c, 0, 60, 51
2, 60202, Note_on_c, 0, 71, 66
2, 60214, Note_on_c, 0, 59, 54
2, 60216, Note_on_c, 0, 67, 46
2, 60217, Note_on_c, 0, 52, 42
2, 60234, Control_c, 0, 64, 0
2, 60468, Control_c, 0, 64, 127
2, 60561, Note_on_c, 0, 72, 71
2, 60580, Note_on_c, 0, 60, 59
2, 60610, Note_off_c, 0, 59, 53
2, 60629, Note_off_c, 0, 71, 56
2, 60887, Note_on_c, 0, 71, 76
2, 60893, Note_on_c, 0, 50, 50
2, 60896, Note_on_c, 0, 68, 56
2, 60898, Note_off_c, 0, 67, 51
2, 60900, Note_off_c, 0, 52, 50
2, 60903, Note_on_c, 0, 59, 64
2, 60910, Control_c, 0, 64, 0
2, 60917, Note_off_c, 0, 72, 58
2, 60947, Note_off_c, 0, 60, 54
2, 61149, Control_c, 0, 64, 127
2, 61249, Note_on_c, 0, 77, 82
2, 61266, Note_on_c, 0, 65, 70
2, 61327, Note_off_c, 0, 59, 56
2, 61331, Note_off_c, 0, 71, 59
2, 61655, Note_on_c, 0, 76, 77
2, 61665, Note_off_c, 0, 50, 52
2, 61668, Note_on_c, 0, 64, 65
2, 61670, Note_off_c, 0, 68, 54
2, 61673, Note_on_c, 0, 69, 57
2, 61675, Note_on_c, 0, 48, 52
2, 61696, Note_off_c, 0, 77, 60
2, 61698, Control_c, 0, 64, 0
2, 61760, Note_off_c, 0, 65, 57
2, 62005, Control_c, 0, 64, 127
2, 62166, Note_on_c, 0, 72, 61
2, 62192, Note_on_c, 0, 60, 49
2, 62204, Note_off_c, 0, 64, 56
2, 62206, Note_off_c, 0, 76, 59
2, 62560, Note_on_c, 0, 71, 56
2, 62574, Note_off_c, 0, 69, 54
2, 62576, Note_off_c, 0, 48, 53
2, 62579, Note_on_c, 0, 59, 44
2, 62580, Control_c, 0, 64, 0
2, 62594, Note_off_c, 0, 72, 55
2, 62602, Note_off_c, 0, 60, 52
2, 62845, Control_c, 0, 64, 127
2, 62969, Note_on_c, 0, 69, 52
2, 62987, Note_on_c, 0, 57, 40
2, 63009, Note_off_c, 0, 71, 54
2, 63011, Note_off_c, 0, 59, 51
2, 63255, Note_off_c, 0, 57, 50
2, 63288, Note_off_c, 0, 69, 53
2, 63475, Note_on_c, 0, 69, 55
2, 63484, Note_on_c, 0, 57, 43
2, 63493, Note_on_c, 0, 64, 35
2, 63511, Note_on_c, 0, 48, 33
2, 63514, Control_c, 0, 64, 0
2, 63744, Control_c, 0, 64, 127
2, 63831, Note_on_c, 0, 71, 59
2, 63846, Note_on_c, 0, 59, 47
2, 63872, Note_off_c, 0, 69, 53
2, 63874, Note_off_c, 0, 57, 50
2, 64033, Note_off_c, 0, 48, 48
2, 64039, Note_off_c, 0, 64, 48
2, 64148, Note_on_c, 0, 67, 64
2, 64157, Note_on_c, 0, 48, 43
2, 64163, Note_on_c, 0, 64, 44
2, 64164, Note_on_c, 0, 55, 52
2, 64175, Control_c, 0, 64, 0
2, 64188, Note_off_c, 0, 71, 54
2, 64200, Note_off_c, 0, 59, 51
2, 64412, Control_c, 0, 64, 127
2, 64504, Note_on_c, 0, 69, 63
2, 64524, Note_on_c, 0, 57, 51
2, 64546, Note_off_c, 0, 67, 56
2, 64558, Note_off_c, 0, 55, 53
2, 64806, Note_off_c, 0, 64, 51
2, 64813, Note_off_c, 0, 48, 50
2, 64826, Note_on_c, 0, 71, 67
2, 64833, Note_on_c, 0, 59, 55
2, 64845, Note_on_c, 0, 63, 47
2, 64847, Note_on_c, 0, 47, 47
2, 64850, Control_c, 0, 64, 0
2, 64871, Note_off_c, 0, 69, 55
2, 64887, Note_off_c, 0, 57, 52
2, 65107, Control_c, 0, 64, 127
2, 65220, Note_on_c, 0, 66, 54
2, 65236, Note_on_c, 0, 54, 43
2, 65271, Note_off_c, 0, 71, 57
2, 65275, Note_off_c, 0, 59, 53
2, 65664, Note_on_c, 0, 52, 29
2, 65666, Note_on_c, 0, 64, 41
2, 65669, Note_off_c, 0, 63, 51
2, 65671, Note_off_c, 0, 47, 51
2, 65684, Control_c, 0, 64, 0
2, 65702, Note_off_c, 0, 66, 53
2, 65713, Note_off_c, 0, 54, 50
2, 65991, Control_c, 0, 64, 127
2, 66132, Note_on_c, 0, 51, 23
2, 66135, Note_on_c, 0, 63, 35
2, 66196, Note_off_c, 0, 64, 50
2, 66198, Note_off_c, 0, 52, 47
2, 66524, Note_off_c, 0, 51, 45
2, 66527, Note_off_c, 0, 63, 48
2, 66687, Note_on_c, 0, 71, 60
2, 66701, Note_on_c, 0, 59, 48
2, 66705, Note_on_c, 0, 52, 36
2, 66712, Note_on_c, 0, 67, 40
2, 66726, Control_c, 0, 64, 0
2, 66960, Control_c, 0, 64, 127
2, 67051, Note_on_c, 0, 72, 70
2, 67065, Note_on_c, 0, 60, 58
2, 67091, Note_off_c, 0, 71, 55
2, 67108, Note_off_c, 0, 59, 52
2, 67300, Note_off_c, 0, 52, 49
2, 67371, Note_on_c, 0, 71, 74
2, 67378, Note_on_c, 0, 59, 66
2, 67380, Note_on_c, 0, 69, 54
2, 67383, Note_on_c, 0, 51, 49
2, 67386, Note_off_c, 0, 67, 50
2, 67400, Control_c, 0, 64, 0
2, 67409, Note_off_c, 0, 72, 57
2, 67431, Note_off_c, 0, 60, 54
2, 67608, Control_c, 0, 64, 127
2, 67712, Note_on_c, 0, 78, 78
2, 67726, Note_on_c, 0, 66, 60
2, 67755, Note_off_c, 0, 71, 59
2, 67775, Note_off_c, 0, 59, 56
2, 68017, Note_off_c, 0, 51, 52
2, 68099, Note_on_c, 0, 79, 82
2, 68115, Note_off_c, 0, 69, 53
2, 68116, Note_on_c, 0, 71, 62
2, 68118, Note_on_c, 0, 52, 54
2, 68155, Note_off_c, 0, 78, 59
2, 68158, Control_c, 0, 64, 0
2, 68186, Note_off_c, 0, 66, 55
2, 68240, Note_on_c, 0, 59, 74
2, 68385, Note_on_c, 0, 67, 69
2, 68458, Control_c, 0, 64, 127
2, 68593, Note_on_c, 0, 76, 82
2, 68616, Note_on_c, 0, 64, 70
2, 68646, Note_off_c, 0, 79, 60
2, 68700, Note_off_c, 0, 67, 57
2, 68720, Note_off_c, 0, 59, 59
2, 68936, Note_off_c, 0, 52, 53
2, 69027, Note_on_c, 0, 74, 75
2, 69047, Note_off_c, 0, 71, 55
2, 69050, Note_on_c, 0, 62, 62
2, 69076, Note_off_c, 0, 76, 60
2, 69104, Note_off_c, 0, 64, 57
2, 69452, Note_on_c, 0, 60, 58
2, 69454, Note_on_c, 0, 72, 69
2, 69480, Note_off_c, 0, 74, 59
2, 69507, Note_off_c, 0, 62, 55
2, 69705, Note_off_c, 0, 72, 57
2, 69730, Note_off_c, 0, 60, 54
2, 69819, Note_on_c, 0, 71, 66
2, 69835, Note_on_c, 0, 59, 54
2, 69837, Note_on_c, 0, 52, 42
2, 69840, Note_on_c, 0, 67, 46
2, 69843, Control_c, 0, 64, 0
2, 70078, Control_c, 0, 64, 127
2, 70182, Note_on_c, 0, 72, 70
2, 70200, Note_on_c, 0, 60, 58
2, 70221, Note_off_c, 0, 71, 56
2, 70244, Note_off_c, 0, 59, 53
2, 70439, Note_off_c, 0, 52, 50
2, 70503, Note_on_c, 0, 71, 74
2, 70511, Note_on_c, 0, 59, 66
2, 70514, Note_on_c, 0, 69, 54
2, 70516, Note_on_c, 0, 51, 49
2, 70519, Note_off_c, 0, 67, 51
2, 70526, Control_c, 0, 64, 0
2, 70540, Note_off_c, 0, 72, 57
2, 70567, Note_off_c, 0, 60, 54
2, 70751, Control_c, 0, 64, 127
2, 70842, Note_on_c, 0, 78, 78
2, 70863, Note_on_c, 0, 66, 60
2, 70886, Note_off_c, 0, 71, 59
2, 70908, Note_off_c, 0, 59, 56
2, 71147, Note_off_c, 0, 51, 52
2, 71232, Note_on_c, 0, 79, 76
2, 71244, Note_off_c, 0, 69, 53
2, 71246, Note_on_c, 0, 71, 56
2, 71248, Note_on_c, 0, 52, 48
2, 71275, Control_c, 0, 64, 0
2, 71286, Note_off_c, 0, 78, 59
2, 71328, Note_off_c, 0, 66, 55
2, 71331, Note_on_c, 0, 59, 68
2, 71415, Note_on_c, 0, 67, 63
2, 71607, Control_c, 0, 64, 127
2, 71735, Note_on_c, 0, 76, 70
2, 71751, Note_off_c, 0, 67, 55
2, 71754, Note_on_c, 0, 64, 58
2, 71786, Note_off_c, 0, 79, 59
2, 71824, Note_off_c, 0, 59, 57
2, 72076, Note_off_c, 0, 52, 52
2, 72165, Note_on_c, 0, 74, 63
2, 72184, Note_off_c, 0, 71, 54
2, 72186, Note_on_c, 0, 62, 50
2, 72216, Note_off_c, 0, 76, 57
2, 72242, Note_off_c, 0, 64, 54
2, 72589, Note_on_c, 0, 60, 46
2, 72591, Note_on_c, 0, 72, 57
2, 72619, Note_off_c, 0, 74, 55
2, 72647, Note_off_c, 0, 62, 52
2, 72906, Note_off_c, 0, 60, 51
2, 72908, Note_off_c, 0, 72, 54
2, 73036, Note_on_c, 0, 71, 66
2, 73052, Note_on_c, 0, 52, 42
2, 73054, Note_on_c, 0, 67, 46
2, 73057, Note_on_c, 0, 59, 54
2, 73061, Control_c, 0, 64, 0
2, 73309, Control_c, 0, 64, 127
2, 73420, Note_on_c, 0, 72, 71
2, 73438, Note_on_c, 0, 60, 59
2, 73477, Note_off_c, 0, 59, 53
2, 73489, Note_off_c, 0, 71, 56
2, 73760, Note_on_c, 0, 71, 76
2, 73770, Note_on_c, 0, 68, 56
2, 73773, Note_off_c, 0, 52, 50
2, 73775, Note_off_c, 0, 67, 51
2, 73779, Note_on_c, 0, 59, 64
2, 73781, Note_on_c, 0, 50, 50
2, 73782, Control_c, 0, 64, 0
2, 73792, Note_off_c, 0, 72, 58
2, 73821, Note_off_c, 0, 60, 54
2, 74024, Control_c, 0, 64, 127
2, 74129, Note_on_c, 0, 77, 82
2, 74147, Note_on_c, 0, 65, 70
2, 74204, Note_off_c, 0, 59, 56
2, 74211, Note_off_c, 0, 71, 59
2, 74525, Note_on_c, 0, 76, 77
2, 74535, Note_on_c, 0, 69, 57
2, 74538, Note_on_c, 0, 64, 65
2, 74540, Note_off_c, 0, 68, 54
2, 74547, Note_off_c, 0, 50, 52
2, 74549, Note_on_c, 0, 48, 52
2, 74566, Note_off_c, 0, 77, 60
2, 74568, Control_c, 0, 64, 0
2, 74629, Note_off_c, 0, 65, 57
2, 74863, Control_c, 0, 64, 127
2, 75014, Note_on_c, 0, 72, 61
2, 75034, Note_on_c, 0, 60, 49
2, 75048, Note_off_c, 0, 64, 56
2, 75051, Note_off_c, 0, 76, 59
2, 75382, Note_on_c, 0, 71, 56
2, 75392, Note_off_c, 0, 69, 54
2, 75399, Note_on_c, 0, 59, 44
2, 75401, Note_off_c, 0, 48, 53
2, 75415, Note_off_c, 0, 72, 55
2, 75417, Note_off_c, 0, 60, 52
2, 75767, Note_on_c, 0, 69, 52
2, 75783, Note_on_c, 0, 57, 40
2, 75802, Note_off_c, 0, 71, 54
2, 75804, Note_off_c, 0, 59, 51
2, 76040, Note_off_c, 0, 57, 50
2, 76061, Note_off_c, 0, 69, 53
2, 76231, Note_on_c, 0, 69, 49
2, 76247, Note_on_c, 0, 57, 37
2, 76248, Note_on_c, 0, 64, 29
2, 76252, Note_on_c, 0, 48, 19
2, 76262, Control_c, 0, 64, 0
2, 76476, Control_c, 0, 64, 127
2, 76583, Note_on_c, 0, 71, 53
2, 76602, Note_on_c, 0, 59, 41
2, 76623, Note_off_c, 0, 69, 52
2, 76630, Note_off_c, 0, 57, 49
2, 76771, Note_off_c, 0, 48, 45
2, 76788, Note_off_c, 0, 64, 47
2, 76895, Note_on_c, 0, 67, 64
2, 76904, Note_on_c, 0, 55, 52
2, 76906, Note_on_c, 0, 64, 44
2, 76913, Note_on_c, 0, 48, 35
2, 76917, Control_c, 0, 64, 0
2, 76937, Note_off_c, 0, 71, 53
2, 76953, Note_off_c, 0, 59, 50
2, 77146, Control_c, 0, 64, 127
2, 77245, Note_on_c, 0, 69, 63
2, 77251, Note_on_c, 0, 57, 51
2, 77282, Note_off_c, 0, 67, 56
2, 77289, Note_off_c, 0, 55, 53
2, 77532, Note_off_c, 0, 64, 51
2, 77549, Note_off_c, 0, 48, 48
2, 77556, Note_on_c, 0, 71, 67
2, 77565, Note_on_c, 0, 63, 47
2, 77567, Note_on_c, 0, 59, 55
2, 77570, Note_on_c, 0, 47, 39
2, 77579, Control_c, 0, 64, 0
2, 77599, Note_off_c, 0, 69, 55
2, 77602, Note_off_c, 0, 57, 52
2, 77827, Control_c, 0, 64, 127
2, 77970, Note_on_c, 0, 66, 52
2, 77980, Note_off_c, 0, 71, 57
2, 77987, Note_off_c, 0, 59, 53
2, 77989, Note_on_c, 0, 54, 41
2, 78405, Note_off_c, 0, 63, 51
2, 78412, Note_off_c, 0, 47, 49
2, 78438, Note_on_c, 0, 64, 45
2, 78457, Note_on_c, 0, 52, 33
2, 78501, Note_off_c, 0, 66, 53
2, 78520, Note_off_c, 0, 54, 50
2, 79011, Note_on_c, 0, 63, 39
2, 79038, Note_on_c, 0, 51, 27
2, 79091, Note_off_c, 0, 64, 51
2, 79128, Note_off_c, 0, 52, 48
2, 79580, Note_off_c, 0, 63, 49
2, 79770, Control_c, 0, 64, 0
2, 79778, Note_off_c, 0, 51, 46
2, 79816, Note_on_c, 0, 66, 42
2, 79830, Note_on_c, 0, 47, 24
2, 79832, Note_on_c, 0, 54, 30
2, 79841, Note_on_c, 0, 63, 22
2, 79975, Control_c, 0, 64, 127
2, 80268, Note_on_c, 0, 68, 46
2, 80280, Note_on_c, 0, 56, 26
2, 80319, Note_off_c, 0, 66, 50
2, 80333, Note_off_c, 0, 54, 47
2, 80684, Note_on_c, 0, 66, 51
2, 80698, Note_off_c, 0, 47, 46
2, 80700, Note_on_c, 0, 46, 24
2, 80708, Note_off_c, 0, 63, 45
2, 80710, Note_on_c, 0, 64, 31
2, 80712, Note_on_c, 0, 54, 39
2, 80714, Control_c, 0, 64, 0
2, 80733, Note_off_c, 0, 68, 51
2, 80744, Note_off_c, 0, 56, 46
2, 80972, Control_c, 0, 64, 127
2, 81081, Note_on_c, 0, 73, 56
2, 81091, Note_on_c, 0, 61, 44
2, 81126, Note_off_c, 0, 66, 52
2, 81438, Note_on_c, 0, 75, 62
2, 81446, Note_on_c, 0, 63, 42
2, 81451, Note_off_c, 0, 46, 46
2, 81454, Note_on_c, 0, 47, 50
2, 81458, Note_off_c, 0, 64, 47
2, 81461, Control_c, 0, 64, 0
2, 81484, Note_off_c, 0, 73, 54
2, 81492, Note_off_c, 0, 61, 51
2, 81708, Control_c, 0, 64, 127
2, 81867, Note_off_c, 0, 75, 55
2, 81889, Note_off_c, 0, 54, 49
2, 81946, Note_on_c, 0, 71, 51
2, 81960, Note_on_c, 0, 59, 39
2, 82232, Note_off_c, 0, 63, 50
2, 82238, Note_off_c, 0, 47, 52
2, 82343, Note_on_c, 0, 70, 42
2, 82361, Note_on_c, 0, 58, 30
2, 82398, Note_off_c, 0, 71, 52
2, 82416, Note_off_c, 0, 59, 49
2, 82790, Note_on_c, 0, 68, 34
2, 82809, Note_on_c, 0, 56, 22
2, 82842, Note_off_c, 0, 70, 50
2, 82860, Note_off_c, 0, 58, 47
2, 83121, Note_off_c, 0, 68, 48
2, 83140, Note_off_c, 0, 56, 45
2, 83218, Note_on_c, 0, 66, 36
2, 83220, Note_on_c, 0, 42, 36
2, 83230, Note_on_c, 0, 59, 24
2, 83231, Note_on_c, 0, 54, 32
2, 83234, Note_on_c, 0, 63, 30
2, 83253, Control_c, 0, 64, 0
2, 83434, Note_off_c, 0, 59, 46
2, 83441, Note_off_c, 0, 66, 49
2, 83460, Note_off_c, 0, 63, 47
2, 83539, Control_c, 0, 64, 127
2, 83656, Note_on_c, 0, 44, 48
2, 83704, Note_off_c, 0, 42, 49
2, 83910, Note_off_c, 0, 54, 48
2, 84060, Note_on_c, 0, 54, 43
2, 84062, Note_on_c, 0, 58, 42
2, 84065, Note_on_c, 0, 66, 61
2, 84067, Note_on_c, 0, 64, 48
2, 84069, Control_c, 0, 64, 0
2, 84070, Note_on_c, 0, 42, 49
2, 84107, Note_off_c, 0, 44, 52
2, 84246, Note_off_c, 0, 58, 50
2, 84284, Note_off_c, 0, 66, 55
2, 84311, Control_c, 0, 64, 127
2, 84342, Note_off_c, 0, 64, 52
2, 84440, Note_on_c, 0, 49, 56
2, 84480, Note_off_c, 0, 42, 52
2, 84712, Note_off_c, 0, 54, 50
2, 84758, Note_on_c, 0, 66, 67
2, 84769, Note_on_c, 0, 51, 54
2, 84771, Note_on_c, 0, 63, 47
2, 84773, Note_on_c, 0, 59, 55
2, 84775, Note_on_c, 0, 42, 40
2, 84787, Control_c, 0, 64, 0
2, 84816, Note_off_c, 0, 49, 54
2, 85022, Control_c, 0, 64, 127
2, 85129, Note_on_c, 0, 47, 49
2, 85172, Note_off_c, 0, 51, 53
2, 85412, Note_off_c, 0, 59, 53
2, 85495, Note_off_c, 0, 63, 51
2, 85519, Note_on_c, 0, 46, 45
2, 85534, Control_c, 0, 64, 0
2, 85556, Note_off_c, 0, 66, 57
2, 85574, Note_off_c, 0, 47, 52
2, 85580, Note_off_c, 0, 42, 50
2, 85834, Control_c, 0, 64, 127
2, 85979, Note_on_c, 0, 44, 36
2, 86025, Note_off_c, 0, 46, 51
2, 86360, Note_on_c, 0, 59, 34
2, 86362, Note_on_c, 0, 66, 42
2, 86365, Note_on_c, 0, 51, 30
2, 86367, Note_on_c, 0, 42, 24
2, 86369, Control_c, 0, 64, 0
2, 86412, Note_off_c, 0, 44, 49
2, 86638, Control_c, 0, 64, 127
2, 86774, Note_on_c, 0, 61, 53
2, 86775, Note_on_c, 0, 52, 41
2, 86826, Note_off_c, 0, 59, 48
2, 86828, Note_off_c, 0, 51, 47
2, 86938, Note_off_c, 0, 42, 46
2, 87011, Note_off_c, 0, 66, 50
2, 87216, Note_on_c, 0, 58, 34
2, 87218, Note_on_c, 0, 66, 42
2, 87220, Note_on_c, 0, 42, 24
2, 87222, Note_on_c, 0, 49, 30
2, 87224, Control_c, 0, 64, 0
2, 87266, Note_off_c, 0, 61, 53
2, 87267, Note_off_c, 0, 52, 50
2, 87480, Control_c, 0, 64, 127
2, 87619, Note_on_c, 0, 61, 51
2, 87621, Note_on_c, 0, 52, 39
2, 87672, Note_off_c, 0, 58, 48
2, 87674, Note_off_c, 0, 49, 47
2, 87913, Note_off_c, 0, 42, 46
2, 87948, Note_off_c, 0, 66, 50
2, 88054, Note_on_c, 0, 47, 24
2, 88056, Note_on_c, 0, 51, 31
2, 88058, Note_on_c, 0, 66, 42
2, 88060, Note_on_c, 0, 59, 27
2, 88067, Control_c, 0, 64, 0
2, 88109, Note_off_c, 0, 61, 52
2, 88111, Note_off_c, 0, 52, 49
2, 88370, Control_c, 0, 64, 127
2, 88515, Note_on_c, 0, 52, 32
2, 88517, Note_on_c, 0, 61, 45
2, 88566, Note_off_c, 0, 51, 47
2, 88568, Note_off_c, 0, 59, 46
2, 88938, Note_on_c, 0, 53, 38
2, 88940, Note_on_c, 0, 62, 52
2, 88949, Control_c, 0, 64, 0
2, 88986, Note_off_c, 0, 52, 48
2, 88989, Note_off_c, 0, 61, 51
2, 89207, Control_c, 0, 64, 127
2, 89331, Note_on_c, 0, 54, 46
2, 89333, Note_on_c, 0, 63, 61
2, 89375, Note_off_c, 0, 53, 49
2, 89378, Note_off_c, 0, 62, 53
2, 89694, Note_off_c, 0, 66, 50
2, 89695, Note_on_c, 0, 55, 47
2, 89698, Note_on_c, 0, 64, 61
2, 89703, Control_c, 0, 64, 0
2, 89736, Note_off_c, 0, 54, 51
2, 89738, Note_off_c, 0, 63, 55
2, 89928, Control_c, 0, 64, 127
2, 90035, Note_on_c, 0, 57, 52
2, 90037, Note_on_c, 0, 66, 66
2, 90080, Note_off_c, 0, 55, 51
2, 90082, Note_off_c, 0, 64, 55
2, 90393, Note_off_c, 0, 47, 46
2, 90395, Note_on_c, 0, 58, 57
2, 90397, Note_on_c, 0, 67, 71
2, 90411, Control_c, 0, 64, 0
2, 90440, Note_off_c, 0, 57, 53
2, 90441, Note_off_c, 0, 66, 56
2, 90661, Control_c, 0, 64, 127
2, 90774, Note_on_c, 0, 55, 34
2, 90776, Note_on_c, 0, 64, 46
2, 90824, Note_off_c, 0, 58, 54
2, 90826, Note_off_c, 0, 67, 58
2, 91182, Note_on_c, 0, 59, 22
2, 91184, Note_on_c, 0, 63, 34
2, 91188, Control_c, 0, 64, 0
2, 91232, Note_off_c, 0, 55, 48
2, 91234, Note_off_c, 0, 64, 51
2, 91474, Control_c, 0, 64, 127
2, 91498, Note_off_c, 0, 63, 48
2, 91514, Note_off_c, 0, 59, 45
2, 91617, Note_on_c, 0, 71, 34
2, 91637, Note_on_c, 0, 63, 32
2, 91640, Note_on_c, 0, 66, 14
2, 91642, Note_on_c, 0, 59, 24
2, 91644, Note_on_c, 0, 57, 30
2, 91846, Note_off_c, 0, 57, 47
2, 91864, Note_off_c, 0, 71, 48
2, 91885, Note_off_c, 0, 66, 44
2, 91906, Note_off_c, 0, 63, 48
2, 91908, Note_off_c, 0, 59, 46
2, 92091, Note_on_c, 0, 71, 38
2, 92113, Note_on_c, 0, 64, 30
2, 92117, Note_on_c, 0, 59, 34
2, 92119, Note_on_c, 0, 67, 18
2, 92121, Note_on_c, 0, 55, 24
2, 92354, Note_off_c, 0, 71, 49
2, 92363, Note_off_c, 0, 64, 47
2, 92369, Note_off_c, 0, 67, 44
2, 92377, Note_off_c, 0, 59, 48
2, 92389, Note_off_c, 0, 55, 46
2, 92608, Note_on_c, 0, 71, 44
2, 92627, Note_on_c, 0, 66, 32
2, 92629, Note_on_c, 0, 69, 24
2, 92632, Note_on_c, 0, 54, 26
2, 92634, Note_on_c, 0, 59, 34
2, 92869, Note_off_c, 0, 71, 51
2, 92873, Note_off_c, 0, 69, 46
2, 92910, Note_off_c, 0, 59, 48
2, 92915, Note_off_c, 0, 66, 48
2, 92920, Note_off_c, 0, 54, 46
2, 93094, Control_c, 0, 64, 0
2, 93109, Note_on_c, 0, 71, 48
2, 93128, Note_on_c, 0, 52, 27
2, 93130, Note_on_c, 0, 59, 35
2, 93133, Note_on_c, 0, 67, 30
2, 93306, Control_c, 0, 64, 127
2, 93651, Note_on_c, 0, 72, 59
2, 93699, Note_on_c, 0, 60, 50
2, 93726, Note_off_c, 0, 71, 52
2, 93747, Note_off_c, 0, 59, 48
2, 93948, Note_off_c, 0, 52, 46
2, 94003, Note_on_c, 0, 71, 75
2, 94032, Note_off_c, 0, 67, 47
2, 94034, Note_on_c, 0, 51, 52
2, 94035, Note_on_c, 0, 69, 57
2, 94037, Note_on_c, 0, 59, 68
2, 94043, Note_off_c, 0, 72, 54
2, 94048, Control_c, 0, 64, 0
2, 94080, Note_off_c, 0, 60, 52
2, 94249, Control_c, 0, 64, 127
2, 94336, Note_on_c, 0, 78, 80
2, 94363, Note_on_c, 0, 66, 62
2, 94377, Note_off_c, 0, 71, 59
2, 94420, Note_off_c, 0, 59, 57
2, 94647, Note_off_c, 0, 51, 53
2, 94710, Note_on_c, 0, 79, 91
2, 94742, Note_off_c, 0, 69, 54
2, 94745, Note_on_c, 0, 52, 61
2, 94746, Note_on_c, 0, 71, 70
2, 94759, Note_off_c, 0, 78, 60
2, 94778, Control_c, 0, 64, 0
2, 94810, Note_off_c, 0, 66, 55
2, 94821, Note_on_c, 0, 59, 84
2, 94899, Note_on_c, 0, 67, 79
2, 95066, Control_c, 0, 64, 127
2, 95177, Note_on_c, 0, 76, 72
2, 95217, Note_off_c, 0, 67, 60
2, 95219, Note_on_c, 0, 64, 60
2, 95231, Note_off_c, 0, 79, 62
2, 95283, Note_off_c, 0, 59, 61
2, 95520, Note_off_c, 0, 52, 55
2, 95589, Note_on_c, 0, 74, 65
2, 95624, Note_off_c, 0, 71, 57
2, 95627, Note_on_c, 0, 62, 52
2, 95638, Note_off_c, 0, 76, 58
2, 95680, Note_off_c, 0, 64, 55
2, 96022, Note_on_c, 0, 60, 48
2, 96024, Note_on_c, 0, 72, 59
2, 96036, Note_off_c, 0, 74, 56
2, 96078, Note_off_c, 0, 62, 53
2, 96342, Note_off_c, 0, 72, 54
2, 96370, Note_off_c, 0, 60, 52
2, 96396, Note_on_c, 0, 71, 47
2, 96410, Note_on_c, 0, 52, 31
2, 96412, Note_on_c, 0, 59, 39
2, 96414, Note_on_c, 0, 67, 34
2, 96422, Control_c, 0, 64, 0
2, 96649, Control_c, 0, 64, 127
2, 96754, Note_on_c, 0, 72, 53
2, 96769, Note_on_c, 0, 60, 44
2, 96792, Note_off_c, 0, 71, 51
2, 96814, Note_off_c, 0, 59, 49
2, 97009, Note_off_c, 0, 52, 47
2, 97077, Note_on_c, 0, 71, 69
2, 97091, Note_off_c, 0, 67, 48
2, 97094, Note_on_c, 0, 51, 48
2, 97095, Note_on_c, 0, 69, 52
2, 97097, Note_on_c, 0, 59, 62
2, 97097, Control_c, 0, 64, 0
2, 97115, Note_off_c, 0, 72, 53
2, 97138, Note_off_c, 0, 60, 51
2, 97320, Control_c, 0, 64, 127
2, 97419, Note_on_c, 0, 78, 76
2, 97432, Note_on_c, 0, 66, 58
2, 97464, Note_off_c, 0, 71, 57
2, 97489, Note_off_c, 0, 59, 55
2, 97729, Note_off_c, 0, 51, 52
2, 97812, Note_on_c, 0, 79, 80
2, 97828, Note_off_c, 0, 69, 53
2, 97830, Note_on_c, 0, 52, 59
2, 97832, Note_on_c, 0, 71, 68
2, 97843, Control_c, 0, 64, 0
2, 97868, Note_off_c, 0, 78, 59
2, 97904, Note_off_c, 0, 66, 54
2, 97913, Note_on_c, 0, 59, 76
2, 97998, Note_on_c, 0, 67, 80
2, 98179, Control_c, 0, 64, 127
2, 98321, Note_on_c, 0, 76, 82
2, 98339, Note_off_c, 0, 67, 60
2, 98343, Note_on_c, 0, 64, 70
2, 98373, Note_off_c, 0, 79, 60
2, 98414, Note_off_c, 0, 59, 59
2, 98665, Note_off_c, 0, 52, 54
2, 98756, Note_on_c, 0, 74, 69
2, 98773, Note_off_c, 0, 71, 57
2, 98775, Note_on_c, 0, 62, 56
2, 98804, Note_off_c, 0, 76, 60
2, 98834, Note_off_c, 0, 64, 57
2, 99186, Note_on_c, 0, 60, 52
2, 99188, Note_on_c, 0, 72, 63
2, 99215, Note_off_c, 0, 74, 57
2, 99241, Note_off_c, 0, 62, 54
2, 99513, Note_off_c, 0, 60, 53
2, 99516, Note_off_c, 0, 72, 55
2, 99567, Note_on_c, 0, 52, 26
2, 99569, Note_on_c, 0, 59, 34
2, 99571, Note_on_c, 0, 67, 29
2, 99573, Note_on_c, 0, 71, 42
2, 99575, Control_c, 0, 64, 0
2, 99780, Control_c, 0, 64, 127
2, 99925, Note_on_c, 0, 60, 45
2, 99927, Note_on_c, 0, 72, 54
2, 99963, Note_off_c, 0, 59, 48
2, 99990, Note_off_c, 0, 71, 50
2, 100242, Note_off_c, 0, 52, 46
2, 100245, Note_off_c, 0, 67, 47
2, 100247, Note_on_c, 0, 59, 62
2, 100249, Note_on_c, 0, 50, 50
2, 100251, Note_on_c, 0, 71, 74
2, 100252, Note_on_c, 0, 68, 56
2, 100274, Note_off_c, 0, 72, 53
2, 100276, Control_c, 0, 64, 0
2, 100284, Note_off_c, 0, 60, 51
2, 100492, Control_c, 0, 64, 127
2, 100603, Note_on_c, 0, 65, 71
2, 100605, Note_on_c, 0, 77, 83
2, 100657, Note_off_c, 0, 59, 55
2, 100683, Note_off_c, 0, 71, 59
2, 100992, Note_off_c, 0, 50, 52
2, 100993, Note_off_c, 0, 68, 54
2, 100996, Note_on_c, 0, 69, 62
2, 100998, Note_on_c, 0, 64, 71
2, 101000, Note_on_c, 0, 76, 79
2, 101000, Note_on_c, 0, 48, 56
2, 101015, Control_c, 0, 64, 0
2, 101036, Note_off_c, 0, 77, 60
2, 101076, Note_off_c, 0, 65, 58
2, 101253, Control_c, 0, 64, 127
2, 101511, Note_off_c, 0, 64, 58
2, 101521, Note_on_c, 0, 60, 49
2, 101524, Note_off_c, 0, 76, 60
2, 101525, Note_on_c, 0, 72, 61
2, 101867, Note_off_c, 0, 48, 54
2, 101869, Note_off_c, 0, 69, 55
2, 101899, Note_on_c, 0, 71, 56
2, 101901, Note_on_c, 0, 59, 44
2, 101918, Note_off_c, 0, 60, 52
2, 101933, Note_off_c, 0, 72, 55
2, 102301, Note_on_c, 0, 57, 40
2, 102303, Note_on_c, 0, 69, 52
2, 102325, Note_off_c, 0, 59, 51
2, 102340, Note_off_c, 0, 71, 54
2, 102506, Note_off_c, 0, 69, 53
2, 102558, Note_off_c, 0, 57, 50
2, 102722, Note_on_c, 0, 69, 55
2, 102732, Note_on_c, 0, 64, 35
2, 102736, Note_on_c, 0, 48, 25
2, 102739, Note_on_c, 0, 57, 43
2, 102744, Control_c, 0, 64, 0
2, 102974, Control_c, 0, 64, 127
2, 103077, Note_on_c, 0, 71, 59
2, 103088, Note_on_c, 0, 59, 47
2, 103118, Note_off_c, 0, 69, 53
2, 103127, Note_off_c, 0, 57, 50
2, 103195, Note_off_c, 0, 48, 46
2, 103197, Note_off_c, 0, 64, 48
2, 103395, Note_on_c, 0, 67, 64
2, 103405, Note_on_c, 0, 48, 35
2, 103408, Note_on_c, 0, 64, 44
2, 103410, Note_on_c, 0, 55, 52
2, 103421, Control_c, 0, 64, 0
2, 103438, Note_off_c, 0, 71, 54
2, 103443, Note_off_c, 0, 59, 51
2, 103658, Control_c, 0, 64, 127
2, 103754, Note_on_c, 0, 69, 63
2, 103765, Note_on_c, 0, 57, 51
2, 103793, Note_off_c, 0, 67, 56
2, 103806, Note_off_c, 0, 55, 53
2, 104055, Note_off_c, 0, 64, 51
2, 104065, Note_off_c, 0, 48, 48
2, 104067, Note_on_c, 0, 71, 67
2, 104088, Note_on_c, 0, 59, 55
2, 104092, Note_on_c, 0, 63, 47
2, 104096, Note_on_c, 0, 47, 39
2, 104104, Control_c, 0, 64, 0
2, 104126, Note_off_c, 0, 69, 55
2, 104132, Note_off_c, 0, 57, 52
2, 104363, Control_c, 0, 64, 127
2, 104500, Note_on_c, 0, 66, 54
2, 104507, Note_off_c, 0, 71, 57
2, 104533, Note_on_c, 0, 54, 43
2, 104535, Note_off_c, 0, 59, 53
2, 104924, Note_off_c, 0, 63, 51
2, 104930, Note_off_c, 0, 47, 49
2, 104950, Note_on_c, 0, 64, 47
2, 104968, Note_on_c, 0, 52, 35
2, 104987, Note_off_c, 0, 66, 53
2, 105020, Note_off_c, 0, 54, 50
2, 105425, Note_on_c, 0, 63, 41
2, 105445, Note_on_c, 0, 51, 29
2, 105477, Note_off_c, 0, 64, 51
2, 105497, Note_off_c, 0, 52, 48
2, 105746, Note_off_c, 0, 63, 50
2, 105764, Note_off_c, 0, 51, 47
2, 105909, Note_on_c, 0, 69, 63
2, 105917, Note_on_c, 0, 64, 43
2, 105922, Note_on_c, 0, 48, 31
2, 105925, Note_on_c, 0, 57, 51
2, 105928, Control_c, 0, 64, 0
2, 106172, Control_c, 0, 64, 127
2, 106325, Note_on_c, 0, 71, 67
2, 106337, Note_on_c, 0, 59, 55
2, 106380, Note_off_c, 0, 69, 55
2, 106385, Note_off_c, 0, 57, 52
2, 106692, Note_on_c, 0, 67, 72
2, 106694, Note_off_c, 0, 64, 50
2, 106707, Note_on_c, 0, 63, 52
2, 106710, Note_on_c, 0, 55, 60
2, 106713, Control_c, 0, 64, 0
2, 106744, Note_off_c, 0, 71, 57
2, 106748, Note_off_c, 0, 59, 53
2, 106979, Control_c, 0, 64, 127
2, 107093, Note_on_c, 0, 69, 76
2, 107102, Note_on_c, 0, 57, 64
2, 107145, Note_off_c, 0, 67, 58
2, 107158, Note_off_c, 0, 55, 55
2, 107446, Note_on_c, 0, 66, 63
2, 107455, Note_on_c, 0, 62, 43
2, 107465, Note_off_c, 0, 63, 53
2, 107468, Note_on_c, 0, 54, 51
2, 107478, Control_c, 0, 64, 0
2, 107503, Note_off_c, 0, 69, 59
2, 107506, Note_off_c, 0, 57, 56
2, 107752, Control_c, 0, 64, 127
2, 107863, Note_on_c, 0, 69, 71
2, 107881, Note_on_c, 0, 57, 59
2, 107919, Note_off_c, 0, 66, 55
2, 107932, Note_off_c, 0, 54, 52
2, 108228, Note_on_c, 0, 76, 80
2, 108240, Note_off_c, 0, 62, 50
2, 108243, Note_off_c, 0, 48, 47
2, 108245, Note_on_c, 0, 64, 68
2, 108260, Control_c, 0, 64, 0
2, 108284, Note_off_c, 0, 69, 58
2, 108292, Note_off_c, 0, 57, 54
2, 108529, Control_c, 0, 64, 127
2, 108637, Note_on_c, 0, 74, 70
2, 108654, Note_on_c, 0, 62, 53
2, 108688, Note_off_c, 0, 76, 60
2, 108706, Note_off_c, 0, 64, 57
2, 109036, Note_off_c, 0, 74, 57
2, 109048, Note_off_c, 0, 62, 53
2, 109132, Note_on_c, 0, 74, 63
2, 109142, Note_on_c, 0, 62, 51
2, 109145, Note_on_c, 0, 47, 29
2, 109147, Note_on_c, 0, 50, 47
2, 109148, Note_on_c, 0, 67, 43
2, 109154, Control_c, 0, 64, 0
2, 109385, Control_c, 0, 64, 127
2, 109488, Note_on_c, 0, 76, 68
2, 109530, Note_off_c, 0, 74, 55
2, 109703, Note_off_c, 0, 62, 52
2, 109784, Note_off_c, 0, 67, 50
2, 109823, Note_on_c, 0, 74, 74
2, 109830, Note_on_c, 0, 60, 62
2, 109832, Note_on_c, 0, 66, 54
2, 109834, Note_on_c, 0, 48, 39
2, 109836, Note_on_c, 0, 45, 34
2, 109853, Control_c, 0, 64, 0
2, 109862, Note_off_c, 0, 76, 57
2, 109872, Note_off_c, 0, 47, 47
2, 109874, Note_off_c, 0, 50, 51
2, 110012, Control_c, 0, 64, 127
2, 110138, Note_on_c, 0, 76, 81
2, 110180, Note_off_c, 0, 74, 59
2, 110406, Note_off_c, 0, 60, 55
2, 110445, Note_off_c, 0, 66, 53
2, 110490, Note_on_c, 0, 74, 74
2, 110499, Note_on_c, 0, 59, 35
2, 110501, Note_on_c, 0, 43, 49
2, 110510, Note_on_c, 0, 67, 54
2, 110512, Note_on_c, 0, 47, 54
2, 110523, Control_c, 0, 64, 0
2, 110534, Note_off_c, 0, 76, 60
2, 110547, Note_off_c, 0, 48, 49
2, 110549, Note_off_c, 0, 45, 48
2, 110717, Control_c, 0, 64, 127
2, 110885, Note_on_c, 0, 62, 48
2, 110955, Note_off_c, 0, 59, 48
2, 111186, Note_off_c, 0, 74, 59
2, 111218, Note_off_c, 0, 43, 52
2, 111256, Note_off_c, 0, 67, 53
2, 111265, Note_off_c, 0, 47, 53
2, 111287, Note_on_c, 0, 71, 61
2, 111369, Note_off_c, 0, 62, 52
2, 111725, Note_on_c, 0, 67, 77
2, 111806, Note_off_c, 0, 71, 55
2, 112114, Note_off_c, 0, 67, 59
2, 112146, Note_on_c, 0, 69, 63
2, 112153, Note_on_c, 0, 48, 31
2, 112157, Note_on_c, 0, 64, 43
2, 112166, Note_on_c, 0, 57, 51
2, 112178, Control_c, 0, 64, 0
2, 112424, Control_c, 0, 64, 127
2, 112525, Note_on_c, 0, 71, 67
2, 112543, Note_on_c, 0, 59, 55
2, 112574, Note_off_c, 0, 69, 55
2, 112583, Note_off_c, 0, 57, 52
2, 112860, Note_on_c, 0, 67, 72
2, 112868, Note_on_c, 0, 55, 60
2, 112871, Note_off_c, 0, 64, 50
2, 112873, Note_on_c, 0, 63, 52
2, 112881, Control_c, 0, 64, 0
2, 112911, Note_off_c, 0, 71, 57
2, 112923, Note_off_c, 0, 59, 53
2, 113128, Control_c, 0, 64, 127
2, 113236, Note_on_c, 0, 69, 76
2, 113248, Note_on_c, 0, 57, 64
2, 113286, Note_off_c, 0, 67, 58
2, 113288, Note_off_c, 0, 55, 55
2, 113571, Note_on_c, 0, 66, 63
2, 113583, Note_off_c, 0, 63, 53
2, 113588, Note_on_c, 0, 54, 51
2, 113589, Note_on_c, 0, 62, 43
2, 113591, Control_c, 0, 64, 0
2, 113625, Note_off_c, 0, 69, 59
2, 113631, Note_off_c, 0, 57, 56
2, 113851, Control_c, 0, 64, 127
2, 113973, Note_on_c, 0, 69, 71
2, 113992, Note_on_c, 0, 57, 59
2, 114025, Note_off_c, 0, 66, 55
2, 114032, Note_off_c, 0, 54, 52
2, 114329, Note_on_c, 0, 76, 80
2, 114338, Note_off_c, 0, 48, 47
2, 114343, Note_on_c, 0, 64, 68
2, 114345, Note_off_c, 0, 62, 50
2, 114350, Control_c, 0, 64, 0
2, 114384, Note_off_c, 0, 69, 58
2, 114396, Note_off_c, 0, 57, 54
2, 114617, Control_c, 0, 64, 127
2, 114750, Note_on_c, 0, 62, 53
2, 114752, Note_on_c, 0, 74, 70
2, 114785, Note_off_c, 0, 76, 60
2, 114799, Note_off_c, 0, 64, 57
2, 115143, Note_off_c, 0, 62, 53
2, 115148, Note_off_c, 0, 74, 57
2, 115285, Note_on_c, 0, 74, 57
2, 115304, Note_on_c, 0, 62, 45
2, 115307, Note_on_c, 0, 50, 41
2, 115309, Note_on_c, 0, 67, 37
2, 115310, Note_on_c, 0, 47, 23
2, 115316, Control_c, 0, 64, 0
2, 115545, Control_c, 0, 64, 127
2, 115642, Note_on_c, 0, 76, 62
2, 115684, Note_off_c, 0, 74, 54
2, 115864, Note_off_c, 0, 62, 51
2, 115941, Note_off_c, 0, 67, 49
2, 115976, Note_on_c, 0, 74, 68
2, 115987, Note_on_c, 0, 66, 48
2, 115990, Note_on_c, 0, 45, 28
2, 115995, Note_on_c, 0, 60, 56
2, 115997, Note_on_c, 0, 48, 33
2, 116006, Control_c, 0, 64, 0
2, 116015, Note_off_c, 0, 76, 55
2, 116030, Note_off_c, 0, 50, 50
2, 116033, Note_off_c, 0, 47, 45
2, 116165, Control_c, 0, 64, 127
2, 116292, Note_on_c, 0, 76, 75
2, 116332, Note_off_c, 0, 74, 57
2, 116570, Note_off_c, 0, 60, 54
2, 116600, Note_off_c, 0, 66, 52
2, 116645, Note_on_c, 0, 74, 68
2, 116653, Note_on_c, 0, 59, 35
2, 116654, Note_on_c, 0, 43, 43
2, 116657, Note_on_c, 0, 47, 48
2, 116663, Note_on_c, 0, 67, 48
2, 116678, Control_c, 0, 64, 0
2, 116688, Note_off_c, 0, 76, 59
2, 116703, Note_off_c, 0, 45, 47
2, 116710, Note_off_c, 0, 48, 48
2, 116868, Control_c, 0, 64, 127
2, 117036, Note_on_c, 0, 62, 49
2, 117106, Note_off_c, 0, 59, 48
2, 117338, Note_off_c, 0, 74, 57
2, 117372, Note_off_c, 0, 43, 50
2, 117410, Note_off_c, 0, 67, 52
2, 117412, Note_off_c, 0, 47, 52
2, 117442, Note_on_c, 0, 71, 63
2, 117507, Note_off_c, 0, 62, 52
2, 117796, Note_on_c, 0, 67, 76
2, 117867, Note_off_c, 0, 71, 55
2, 118132, Note_off_c, 0, 67, 59
2, 118247, Note_on_c, 0, 64, 81
2, 118260, Note_on_c, 0, 52, 67
2, 118262, Note_on_c, 0, 45, 53
2, 118264, Note_on_c, 0, 60, 61
2, 118266, Control_c, 0, 64, 0
2, 118496, Control_c, 0, 64, 127
2, 118601, Note_on_c, 0, 65, 82
2, 118614, Note_on_c, 0, 53, 70
2, 118646, Note_off_c, 0, 52, 57
2, 118661, Note_off_c, 0, 64, 60
2, 118916, Note_on_c, 0, 64, 83
2, 118927, Note_on_c, 0, 52, 71
2, 118929, Note_off_c, 0, 45, 53
2, 118931, Note_off_c, 0, 60, 55
2, 118934, Note_on_c, 0, 44, 58
2, 118936, Note_on_c, 0, 62, 63
2, 118939, Control_c, 0, 64, 0
2, 118964, Note_off_c, 0, 53, 57
2, 118979, Note_off_c, 0, 65, 60
2, 119156, Control_c, 0, 64, 127
2, 119249, Note_on_c, 0, 71, 85
2, 119262, Note_on_c, 0, 59, 73
2, 119296, Note_off_c, 0, 52, 58
2, 119313, Note_off_c, 0, 64, 60
2, 119542, Note_on_c, 0, 45, 58
2, 119601, Note_on_c, 0, 72, 87
2, 119617, Note_on_c, 0, 64, 66
2, 119623, Note_off_c, 0, 44, 54
2, 119625, Note_off_c, 0, 62, 55
2, 119646, Control_c, 0, 64, 0
2, 119654, Note_off_c, 0, 59, 58
2, 119660, Note_on_c, 0, 60, 75
2, 119673, Note_off_c, 0, 71, 61
2, 119837, Control_c, 0, 64, 127
2, 119978, Note_on_c, 0, 69, 77
2, 119995, Note_on_c, 0, 57, 65
2, 120051, Note_off_c, 0, 72, 61
2, 120076, Note_off_c, 0, 60, 59
2, 120299, Note_off_c, 0, 45, 54
2, 120356, Note_on_c, 0, 67, 74
2, 120373, Note_off_c, 0, 64, 56
2, 120375, Note_on_c, 0, 55, 62
2, 120379, Control_c, 0, 64, 0
2, 120411, Note_off_c, 0, 57, 56
2, 120427, Note_off_c, 0, 69, 59
2, 120627, Control_c, 0, 64, 127
2, 120751, Note_on_c, 0, 65, 71
2, 120766, Note_on_c, 0, 53, 59
2, 120790, Note_off_c, 0, 55, 55
2, 120805, Note_off_c, 0, 67, 59
2, 121044, Note_off_c, 0, 65, 58
2, 121062, Note_off_c, 0, 53, 54
2, 121153, Note_on_c, 0, 64, 75
2, 121161, Note_on_c, 0, 60, 55
2, 121171, Note_on_c, 0, 52, 61
2, 121174, Note_on_c, 0, 45, 47
2, 121179, Control_c, 0, 64, 0
2, 121410, Control_c, 0, 64, 127
2, 121507, Note_on_c, 0, 65, 76
2, 121521, Note_on_c, 0, 53, 64
2, 121530, Note_off_c, 0, 64, 59
2, 121558, Note_off_c, 0, 52, 55
2, 121823, Note_on_c, 0, 64, 77
2, 121830, Note_off_c, 0, 60, 53
2, 121835, Note_on_c, 0, 52, 65
2, 121839, Note_on_c, 0, 62, 57
2, 121841, Note_on_c, 0, 44, 52
2, 121843, Note_off_c, 0, 45, 51
2, 121845, Note_off_c, 0, 65, 59
2, 121850, Control_c, 0, 64, 0
2, 121873, Note_off_c, 0, 53, 56
2, 122068, Control_c, 0, 64, 127
2, 122155, Note_on_c, 0, 71, 79
2, 122168, Note_on_c, 0, 59, 67
2, 122178, Note_off_c, 0, 64, 59
2, 122204, Note_off_c, 0, 52, 56
2, 122501, Note_on_c, 0, 45, 52
2, 122510, Note_on_c, 0, 72, 81
2, 122527, Note_off_c, 0, 62, 54
2, 122529, Note_off_c, 0, 44, 53
2, 122534, Note_off_c, 0, 71, 60
2, 122552, Control_c, 0, 64, 0
2, 122562, Note_off_c, 0, 59, 57
2, 122578, Note_on_c, 0, 64, 60
2, 122584, Note_on_c, 0, 60, 69
2, 122727, Control_c, 0, 64, 127
2, 122863, Note_on_c, 0, 69, 71
2, 122876, Note_on_c, 0, 57, 59
2, 122887, Note_off_c, 0, 72, 60
2, 122966, Note_off_c, 0, 60, 57
2, 123167, Note_off_c, 0, 45, 53
2, 123179, Note_on_c, 0, 67, 68
2, 123190, Note_on_c, 0, 55, 56
2, 123199, Control_c, 0, 64, 0
2, 123200, Note_off_c, 0, 69, 58
2, 123218, Note_off_c, 0, 57, 54
2, 123246, Note_off_c, 0, 64, 55
2, 123418, Control_c, 0, 64, 127
2, 123512, Note_on_c, 0, 65, 65
2, 123524, Note_on_c, 0, 53, 53
2, 123536, Note_off_c, 0, 67, 57
2, 123553, Note_off_c, 0, 55, 54
2, 123816, Note_off_c, 0, 53, 53
2, 123827, Note_off_c, 0, 65, 56
2, 124059, Note_on_c, 0, 64, 46
2, 124071, Note_on_c, 0, 52, 39
2, 124072, Note_on_c, 0, 45, 31
2, 124074, Note_on_c, 0, 60, 33
2, 124085, Control_c, 0, 64, 0
2, 124350, Control_c, 0, 64, 127
2, 124461, Note_on_c, 0, 65, 50
2, 124478, Note_on_c, 0, 53, 42
2, 124519, Note_off_c, 0, 64, 51
2, 124534, Note_off_c, 0, 52, 49
2, 124828, Note_off_c, 0, 45, 47
2, 124833, Note_off_c, 0, 60, 48
2, 124841, Note_on_c, 0, 64, 54
2, 124858, Note_on_c, 0, 61, 39
2, 124860, Note_on_c, 0, 46, 36
2, 124862, Control_c, 0, 64, 0
2, 124864, Note_on_c, 0, 52, 45
2, 124894, Note_off_c, 0, 65, 52
2, 124911, Note_off_c, 0, 53, 50
2, 125092, Control_c, 0, 64, 127
2, 125196, Note_on_c, 0, 66, 57
2, 125209, Note_on_c, 0, 54, 48
2, 125247, Note_off_c, 0, 64, 53
2, 125264, Note_off_c, 0, 52, 51
2, 125523, Note_off_c, 0, 61, 49
2, 125525, Note_off_c, 0, 46, 49
2, 125530, Note_on_c, 0, 67, 61
2, 125542, Note_on_c, 0, 64, 45
2, 125544, Note_on_c, 0, 47, 40
2, 125547, Note_on_c, 0, 55, 51
2, 125559, Control_c, 0, 64, 0
2, 125578, Note_off_c, 0, 66, 54
2, 125592, Note_off_c, 0, 54, 52
2, 125764, Control_c, 0, 64, 127
2, 125844, Note_on_c, 0, 69, 64
2, 125858, Note_on_c, 0, 57, 54
2, 125891, Note_off_c, 0, 67, 55
2, 125908, Note_off_c, 0, 55, 52
2, 126097, Note_off_c, 0, 64, 51
2, 126135, Note_off_c, 0, 47, 50
2, 126143, Note_on_c, 0, 67, 68
2, 126153, Note_on_c, 0, 55, 57
2, 126155, Note_on_c, 0, 64, 48
2, 126159, Note_on_c, 0, 48, 51
2, 126166, Control_c, 0, 64, 0
2, 126185, Note_off_c, 0, 69, 56
2, 126199, Note_off_c, 0, 57, 53
2, 126351, Control_c, 0, 64, 127
2, 126426, Note_on_c, 0, 69, 71
2, 126438, Note_on_c, 0, 57, 60
2, 126471, Note_off_c, 0, 67, 57
2, 126482, Note_off_c, 0, 55, 54
2, 126723, Note_on_c, 0, 70, 74
2, 126736, Note_on_c, 0, 58, 63
2, 126745, Control_c, 0, 64, 0
2, 126770, Note_off_c, 0, 69, 58
2, 126787, Note_off_c, 0, 57, 55
2, 126951, Control_c, 0, 64, 127
2, 127037, Note_on_c, 0, 72, 78
2, 127048, Note_on_c, 0, 60, 66
2, 127086, Note_off_c, 0, 70, 59
2, 127102, Note_off_c, 0, 58, 55
2, 127369, Note_on_c, 0, 70, 82
2, 127376, Note_on_c, 0, 50, 53
2, 127379, Note_on_c, 0, 65, 59
2, 127381, Note_off_c, 0, 64, 52
2, 127383, Note_on_c, 0, 58, 70
2, 127389, Note_off_c, 0, 48, 52
2, 127395, Control_c, 0, 64, 0
2, 127421, Note_off_c, 0, 72, 59
2, 127436, Note_off_c, 0, 60, 56
2, 127627, Control_c, 0, 64, 127
2, 127722, Note_on_c, 0, 74, 81
2, 127736, Note_on_c, 0, 62, 65
2, 127779, Note_off_c, 0, 70, 60
2, 127797, Note_off_c, 0, 58, 57
2, 128100, Note_on_c, 0, 72, 79
2, 128115, Note_on_c, 0, 60, 66
2, 128132, Control_c, 0, 64, 0
2, 128134, Note_off_c, 0, 50, 53
2, 128136, Note_off_c, 0, 65, 54
2, 128157, Note_off_c, 0, 74, 60
2, 128178, Note_off_c, 0, 62, 56
2, 128357, Control_c, 0, 64, 127
2, 128520, Note_on_c, 0, 58, 70
2, 128522, Note_on_c, 0, 70, 83
2, 128568, Note_off_c, 0, 72, 60
2, 128589, Note_off_c, 0, 60, 56
2, 128920, Note_off_c, 0, 58, 57
2, 128922, Note_off_c, 0, 70, 60
2, 128955, Note_on_c, 0, 51, 56
2, 128961, Note_on_c, 0, 58, 66
2, 128964, Note_on_c, 0, 66, 59
2, 128967, Note_on_c, 0, 70, 76
2, 129037, Note_on_c, 0, 71, 78
2, 129045, Note_on_c, 0, 59, 71
2, 129086, Control_c, 0, 64, 0
2, 129101, Note_off_c, 0, 58, 56
2, 129119, Note_off_c, 0, 70, 59
2, 129285, Control_c, 0, 64, 127
2, 129322, Note_off_c, 0, 71, 59
2, 129330, Note_off_c, 0, 59, 58
2, 129402, Note_on_c, 0, 69, 76
2, 129404, Note_on_c, 0, 57, 61
2, 129494, Note_off_c, 0, 66, 54
2, 129736, Note_off_c, 0, 69, 59
2, 129738, Note_off_c, 0, 57, 55
2, 129765, Note_off_c, 0, 51, 54
2, 129864, Note_on_c, 0, 71, 78
2, 129866, Note_on_c, 0, 67, 58
2, 129868, Note_on_c, 0, 59, 66
2, 129871, Note_on_c, 0, 55, 54
2, 129873, Note_on_c, 0, 52, 54
2, 129879, Control_c, 0, 64, 0
2, 130095, Control_c, 0, 64, 127
2, 130169, Note_on_c, 0, 72, 82
2, 130200, Note_on_c, 0, 60, 70
2, 130231, Note_off_c, 0, 71, 59
2, 130244, Note_off_c, 0, 59, 56
2, 130426, Note_off_c, 0, 55, 53
2, 130428, Note_off_c, 0, 52, 53
2, 130469, Note_on_c, 0, 71, 86
2, 130491, Note_on_c, 0, 59, 78
2, 130493, Note_on_c, 0, 54, 54
2, 130496, Note_on_c, 0, 69, 66
2, 130498, Note_off_c, 0, 67, 54
2, 130500, Note_on_c, 0, 51, 61
2, 130506, Note_off_c, 0, 72, 60
2, 130510, Control_c, 0, 64, 0
2, 130544, Note_off_c, 0, 60, 57
2, 130700, Control_c, 0, 64, 127
2, 130783, Note_on_c, 0, 78, 90
2, 130810, Note_on_c, 0, 66, 72
2, 130821, Note_off_c, 0, 71, 61
2, 130855, Note_off_c, 0, 59, 59
2, 131072, Note_off_c, 0, 54, 53
2, 131079, Note_off_c, 0, 51, 55
2, 131133, Note_on_c, 0, 79, 94
2, 131164, Note_on_c, 0, 71, 74
2, 131166, Note_off_c, 0, 69, 56
2, 131169, Note_on_c, 0, 67, 81
2, 131173, Note_on_c, 0, 52, 66
2, 131178, Note_off_c, 0, 78, 62
2, 131197, Control_c, 0, 64, 0
2, 131208, Note_on_c, 0, 55, 81
2, 131228, Note_off_c, 0, 66, 58
2, 131270, Note_on_c, 0, 59, 86
2, 131454, Note_off_c, 0, 67, 60
2, 131462, Control_c, 0, 64, 127
2, 131565, Note_on_c, 0, 76, 88
2, 131601, Note_on_c, 0, 64, 76
2, 131610, Note_off_c, 0, 79, 63
2, 131641, Note_off_c, 0, 55, 60
2, 131706, Note_off_c, 0, 59, 61
2, 131873, Note_off_c, 0, 52, 56
2, 131925, Note_on_c, 0, 74, 87
2, 131953, Note_off_c, 0, 71, 59
2, 131956, Note_on_c, 0, 62, 74
2, 131964, Control_c, 0, 64, 0
2, 131967, Note_off_c, 0, 76, 62
2, 132001, Note_off_c, 0, 64, 59
2, 132181, Control_c, 0, 64, 127
2, 132286, Note_on_c, 0, 60, 70
2, 132288, Note_on_c, 0, 72, 81
2, 132297, Note_off_c, 0, 74, 61
2, 132332, Note_off_c, 0, 62, 59
2, 132544, Note_off_c, 0, 72, 60
2, 132565, Note_off_c, 0, 60, 57
2, 132645, Note_on_c, 0, 71, 72
2, 132654, Note_on_c, 0, 55, 48
2, 132656, Note_on_c, 0, 52, 48
2, 132658, Note_on_c, 0, 67, 52
2, 132661, Note_on_c, 0, 59, 60
2, 132671, Control_c, 0, 64, 0
2, 132888, Control_c, 0, 64, 127
2, 132980, Note_on_c, 0, 72, 76
2, 132991, Note_on_c, 0, 60, 64
2, 133014, Note_off_c, 0, 71, 58
2, 133038, Note_off_c, 0, 59, 55
2, 133209, Note_off_c, 0, 55, 52
2, 133210, Note_off_c, 0, 52, 52
2, 133277, Note_on_c, 0, 71, 80
2, 133281, Note_on_c, 0, 51, 55
2, 133289, Note_off_c, 0, 67, 53
2, 133291, Note_on_c, 0, 59, 72
2, 133293, Note_on_c, 0, 54, 48
2, 133298, Note_on_c, 0, 69, 60
2, 133303, Control_c, 0, 64, 0
2, 133315, Note_off_c, 0, 72, 59
2, 133335, Note_off_c, 0, 60, 56
2, 133510, Control_c, 0, 64, 127
2, 133592, Note_on_c, 0, 78, 84
2, 133602, Note_on_c, 0, 66, 66
2, 133631, Note_off_c, 0, 71, 60
2, 133653, Note_off_c, 0, 59, 58
2, 133859, Note_off_c, 0, 51, 53
2, 133868, Note_off_c, 0, 54, 52
2, 133944, Note_on_c, 0, 79, 88
2, 133957, Note_on_c, 0, 52, 60
2, 133959, Note_on_c, 0, 71, 68
2, 133972, Note_off_c, 0, 69, 55
2, 133992, Note_off_c, 0, 78, 61
2, 133995, Note_on_c, 0, 67, 75
2, 133998, Control_c, 0, 64, 0
2, 134012, Note_on_c, 0, 55, 75
2, 134023, Note_off_c, 0, 66, 56
2, 134073, Note_on_c, 0, 59, 80
2, 134288, Control_c, 0, 64, 127
2, 134290, Note_off_c, 0, 67, 59
2, 134384, Note_on_c, 0, 76, 88
2, 134402, Note_on_c, 0, 64, 76
2, 134431, Note_off_c, 0, 79, 62
2, 134451, Note_off_c, 0, 55, 59
2, 134514, Note_off_c, 0, 59, 60
2, 134681, Note_off_c, 0, 52, 55
2, 134760, Note_on_c, 0, 74, 81
2, 134775, Note_off_c, 0, 71, 57
2, 134779, Note_on_c, 0, 62, 68
2, 134780, Control_c, 0, 64, 0
2, 134802, Note_off_c, 0, 76, 62
2, 134828, Note_off_c, 0, 64, 59
2, 135013, Control_c, 0, 64, 127
2, 135115, Note_on_c, 0, 72, 75
2, 135128, Note_on_c, 0, 60, 64
2, 135154, Note_off_c, 0, 74, 60
2, 135176, Note_off_c, 0, 62, 57
2, 135399, Note_off_c, 0, 72, 59
2, 135412, Note_off_c, 0, 60, 56
2, 135503, Note_on_c, 0, 71, 72
2, 135512, Note_on_c, 0, 59, 60
2, 135515, Note_on_c, 0, 67, 52
2, 135517, Note_on_c, 0, 52, 48
2, 135529, Control_c, 0, 64, 0
2, 135762, Control_c, 0, 64, 127
2, 135856, Note_on_c, 0, 72, 77
2, 135875, Note_on_c, 0, 60, 65
2, 135904, Note_off_c, 0, 59, 55
2, 135922, Note_off_c, 0, 71, 58
2, 136173, Note_on_c, 0, 71, 78
2, 136178, Note_on_c, 0, 50, 56
2, 136180, Note_on_c, 0, 68, 62
2, 136182, Note_off_c, 0, 67, 53
2, 136186, Note_off_c, 0, 52, 52
2, 136189, Note_on_c, 0, 59, 70
2, 136192, Control_c, 0, 64, 0
2, 136202, Note_off_c, 0, 72, 59
2, 136231, Note_off_c, 0, 60, 56
2, 136419, Control_c, 0, 64, 127
2, 136519, Note_on_c, 0, 77, 78
2, 136533, Note_on_c, 0, 65, 70
2, 136590, Note_off_c, 0, 59, 57
2, 136596, Note_off_c, 0, 71, 59
2, 136898, Note_on_c, 0, 76, 77
2, 136906, Note_off_c, 0, 50, 54
2, 136910, Note_off_c, 0, 68, 55
2, 136912, Note_on_c, 0, 69, 57
2, 136915, Note_on_c, 0, 48, 52
2, 136935, Note_off_c, 0, 77, 59
2, 136938, Control_c, 0, 64, 0
2, 136947, Note_on_c, 0, 57, 74
2, 136994, Note_off_c, 0, 65, 57
2, 137008, Note_on_c, 0, 64, 65
2, 137218, Control_c, 0, 64, 127
2, 137367, Note_on_c, 0, 72, 73
2, 137390, Note_on_c, 0, 60, 61
2, 137404, Note_off_c, 0, 76, 59
2, 137410, Note_off_c, 0, 64, 56
2, 137439, Note_off_c, 0, 57, 59
2, 137726, Note_on_c, 0, 71, 68
2, 137741, Note_off_c, 0, 69, 54
2, 137743, Note_off_c, 0, 48, 53
2, 137745, Note_on_c, 0, 59, 56
2, 137750, Control_c, 0, 64, 0
2, 137760, Note_off_c, 0, 72, 58
2, 137766, Note_off_c, 0, 60, 55
2, 137998, Control_c, 0, 64, 127
2, 138103, Note_on_c, 0, 69, 64
2, 138116, Note_on_c, 0, 57, 52
2, 138137, Note_off_c, 0, 71, 57
2, 138140, Note_off_c, 0, 59, 54
2, 138395, Note_off_c, 0, 69, 56
2, 138460, Note_off_c, 0, 57, 53
2, 138625, Note_on_c, 0, 69, 64
2, 138633, Note_on_c, 0, 57, 52
2, 138643, Note_on_c, 0, 64, 44
2, 138646, Note_on_c, 0, 48, 34
2, 138648, Control_c, 0, 64, 0
2, 138877, Control_c, 0, 64, 127
2, 138977, Note_on_c, 0, 71, 68
2, 138992, Note_on_c, 0, 59, 56
2, 139016, Note_off_c, 0, 69, 56
2, 139018, Note_off_c, 0, 57, 53
2, 139184, Note_off_c, 0, 48, 48
2, 139186, Note_off_c, 0, 64, 51
2, 139289, Note_on_c, 0, 67, 73
2, 139300, Note_on_c, 0, 48, 44
2, 139304, Note_on_c, 0, 64, 53
2, 139306, Note_on_c, 0, 55, 61
2, 139317, Control_c, 0, 64, 0
2, 139330, Note_off_c, 0, 71, 57
2, 139343, Note_off_c, 0, 59, 54
2, 139545, Control_c, 0, 64, 127
2, 139636, Note_on_c, 0, 69, 72
2, 139655, Note_on_c, 0, 57, 60
2, 139676, Note_off_c, 0, 67, 58
2, 139689, Note_off_c, 0, 55, 55
2, 139930, Note_off_c, 0, 64, 53
2, 139937, Note_off_c, 0, 48, 51
2, 139949, Note_on_c, 0, 71, 64
2, 139956, Note_on_c, 0, 59, 52
2, 139966, Note_on_c, 0, 63, 44
2, 139968, Note_on_c, 0, 47, 36
2, 139979, Control_c, 0, 64, 0
2, 139993, Note_off_c, 0, 69, 58
2, 140009, Note_off_c, 0, 57, 55
2, 140230, Control_c, 0, 64, 127
2, 140330, Note_on_c, 0, 66, 63
2, 140346, Note_on_c, 0, 54, 52
2, 140386, Note_off_c, 0, 59, 53
2, 140771, Note_on_c, 0, 52, 44
2, 140773, Note_on_c, 0, 64, 56
2, 140776, Note_off_c, 0, 63, 51
2, 140807, Note_off_c, 0, 66, 55
2, 140818, Note_off_c, 0, 54, 53
2, 141243, Note_on_c, 0, 51, 38
2, 141245, Note_on_c, 0, 63, 50
2, 141294, Note_off_c, 0, 64, 54
2, 141299, Note_off_c, 0, 52, 51
2, 141488, Control_c, 0, 64, 0
2, 141568, Note_off_c, 0, 51, 49
2, 141570, Note_off_c, 0, 63, 52
2, 141574, Note_off_c, 0, 71, 56
2, 141604, Note_off_c, 0, 47, 49
2, 141762, Note_on_c, 0, 41, 42
2, 141795, Note_on_c, 0, 72, 76
2, 141902, Control_c, 0, 64, 127
2, 141907, Note_on_c, 0, 51, 40
2, 142237, Note_on_c, 0, 57, 36
2, 142715, Note_on_c, 0, 60, 30
2, 143612, Note_on_c, 0, 63, 32
2, 144884, Note_off_c, 0, 63, 48
2, 144886, Note_on_c, 0, 70, 64
2, 144938, Note_off_c, 0, 72, 59
2, 144958, Note_off_c, 0, 57, 49
2, 145326, Note_on_c, 0, 57, 32
2, 145466, Note_off_c, 0, 60, 47
2, 145802, Note_on_c, 0, 60, 30
2, 146244, Note_on_c, 0, 63, 30
2, 146720, Note_off_c, 0, 63, 47
2, 147134, Note_off_c, 0, 70, 56
2, 147136, Note_on_c, 0, 69, 38
2, 147510, Note_off_c, 0, 69, 49
2, 147579, Note_on_c, 0, 69, 36
2, 147695, Note_off_c, 0, 69, 49
2, 147698, Note_on_c, 0, 67, 35
2, 148241, Note_off_c, 0, 41, 50
2, 148274, Note_off_c, 0, 67, 48
2, 148275, Note_on_c, 0, 65, 33
2, 148289, Control_c, 0, 64, 0
2, 148416, Note_off_c, 0, 51, 50
2, 148455, Note_off_c, 0, 65, 48
2, 148493, Note_off_c, 0, 57, 48
2, 148496, Note_on_c, 0, 41, 26
2, 148500, Note_on_c, 0, 65, 32
2, 148502, Note_on_c, 0, 50, 31
2, 148971, Note_on_c, 0, 53, 38
2, 149663, Note_on_c, 0, 70, 43
2, 149794, Note_off_c, 0, 65, 48
2, 150715, Note_off_c, 0, 60, 47
2, 150719, Note_on_c, 0, 62, 30
2, 151531, Note_off_c, 0, 50, 47
2, 151726, Note_on_c, 0, 71, 81
2, 151771, Note_off_c, 0, 62, 47
2, 151773, Note_off_c, 0, 70, 50
2, 151775, Note_off_c, 0, 41, 46
2, 151776, Note_off_c, 0, 53, 49
2, 151779, Note_on_c, 0, 40, 42
2, 151804, Control_c, 0, 64, 127
2, 151879, Note_on_c, 0, 50, 40
2, 152210, Note_on_c, 0, 56, 36
2, 152688, Note_on_c, 0, 59, 30
2, 153586, Note_on_c, 0, 62, 32
2, 154817, Note_off_c, 0, 56, 49
2, 154857, Note_off_c, 0, 62, 48
2, 154860, Note_on_c, 0, 69, 64
2, 154891, Note_off_c, 0, 71, 60
2, 155298, Note_on_c, 0, 56, 32
2, 155326, Note_off_c, 0, 59, 47
2, 155777, Note_on_c, 0, 59, 30
2, 156218, Note_on_c, 0, 62, 30
2, 156694, Note_off_c, 0, 62, 47
2, 157107, Note_on_c, 0, 68, 44
2, 157154, Note_off_c, 0, 69, 56
2, 157549, Note_on_c, 0, 67, 42
2, 157575, Note_off_c, 0, 68, 51
2, 157669, Note_on_c, 0, 65, 41
2, 157702, Note_off_c, 0, 67, 50
2, 158249, Note_on_c, 0, 64, 39
2, 158251, Note_off_c, 0, 40, 50
2, 158262, Control_c, 0, 64, 0
2, 158279, Note_off_c, 0, 65, 50
2, 158390, Note_off_c, 0, 50, 50
2, 158421, Note_off_c, 0, 64, 49
2, 158468, Note_off_c, 0, 56, 48
2, 158471, Note_on_c, 0, 48, 32
2, 158473, Note_on_c, 0, 64, 38
2, 158475, Note_on_c, 0, 40, 22
2, 158944, Note_on_c, 0, 52, 38
2, 159640, Note_on_c, 0, 69, 49
2, 159767, Note_off_c, 0, 64, 49
2, 160691, Note_off_c, 0, 59, 47
2, 160694, Note_on_c, 0, 60, 30
2, 161572, Note_off_c, 0, 69, 52
2, 161745, Note_off_c, 0, 60, 47
2, 161747, Note_off_c, 0, 52, 49
2, 161748, Note_off_c, 0, 48, 48
2, 161750, Note_off_c, 0, 40, 45
2, 161752, Note_on_c, 0, 39, 42
2, 161754, Note_on_c, 0, 69, 74
2, 161779, Control_c, 0, 64, 127
2, 161896, Note_on_c, 0, 51, 40
2, 161924, Note_off_c, 0, 39, 50
2, 162184, Note_on_c, 0, 55, 36
2, 162662, Note_off_c, 0, 55, 49
2, 162664, Note_on_c, 0, 60, 30
2, 163559, Note_on_c, 0, 67, 32
2, 164779, Note_on_c, 0, 36, 32
2, 164830, Note_on_c, 0, 72, 64
2, 164837, Control_c, 0, 64, 0
2, 164885, Note_off_c, 0, 69, 59
2, 164909, Note_off_c, 0, 51, 50
2, 164984, Note_on_c, 0, 48, 30
2, 164994, Note_off_c, 0, 36, 48
2, 165031, Control_c, 0, 64, 127
2, 165274, Note_on_c, 0, 51, 30
2, 165462, Note_off_c, 0, 60, 47
2, 165749, Note_off_c, 0, 51, 47
2, 165751, Note_off_c, 0, 67, 48
2, 165754, Note_on_c, 0, 60, 30
2, 166191, Note_on_c, 0, 67, 30
2, 166669, Note_off_c, 0, 67, 47
2, 167010, Note_off_c, 0, 48, 47
2, 167081, Note_on_c, 0, 36, 44
2, 167084, Note_on_c, 0, 48, 30
2, 167085, Note_on_c, 0, 69, 50
2, 167096, Control_c, 0, 64, 0
2, 167125, Note_off_c, 0, 72, 56
2, 167385, Note_off_c, 0, 36, 51
2, 167525, Note_on_c, 0, 36, 41
2, 167642, Note_on_c, 0, 38, 45
2, 167724, Note_off_c, 0, 36, 50
2, 168220, Note_off_c, 0, 69, 52
2, 168222, Note_on_c, 0, 67, 45
2, 168227, Note_on_c, 0, 39, 42
2, 168260, Note_off_c, 0, 38, 51
2, 168395, Note_off_c, 0, 67, 51
2, 168414, Note_off_c, 0, 39, 50
2, 168443, Note_off_c, 0, 48, 47
2, 168444, Note_on_c, 0, 38, 28
2, 168446, Note_on_c, 0, 67, 44
2, 168455, Control_c, 0, 64, 127
2, 168561, Note_on_c, 0, 48, 38
2, 168918, Note_on_c, 0, 54, 38
2, 169429, Note_off_c, 0, 60, 47
2, 169611, Note_on_c, 0, 60, 30
2, 170664, Note_on_c, 0, 66, 43
2, 170791, Note_off_c, 0, 67, 51
2, 170827, Control_c, 0, 64, 0
2, 171671, Note_off_c, 0, 60, 47
2, 171675, Note_off_c, 0, 38, 47
2, 171677, Note_on_c, 0, 77, 41
2, 171718, Note_off_c, 0, 66, 50
2, 171720, Note_off_c, 0, 54, 49
2, 171722, Note_off_c, 0, 48, 49
2, 171724, Note_on_c, 0, 44, 42
2, 171752, Control_c, 0, 64, 127
2, 171827, Note_on_c, 0, 56, 40
2, 171897, Note_off_c, 0, 44, 50
2, 172158, Note_on_c, 0, 61, 36
2, 172635, Note_off_c, 0, 61, 49
2, 172638, Note_on_c, 0, 65, 30
2, 173533, Note_on_c, 0, 68, 32
2, 174752, Note_on_c, 0, 41, 32
2, 174753, Note_on_c, 0, 80, 64
2, 174811, Control_c, 0, 64, 0
2, 174839, Note_off_c, 0, 77, 50
2, 174841, Note_off_c, 0, 56, 50
2, 174916, Note_on_c, 0, 53, 30
2, 174968, Note_off_c, 0, 41, 48
2, 175005, Control_c, 0, 64, 127
2, 175246, Note_on_c, 0, 61, 30
2, 175436, Note_off_c, 0, 65, 47
2, 175724, Note_off_c, 0, 61, 47
2, 175727, Note_off_c, 0, 68, 48
2, 175730, Note_on_c, 0, 65, 30
2, 176165, Note_on_c, 0, 68, 30
2, 176642, Note_off_c, 0, 68, 47
2, 176686, Note_off_c, 0, 53, 47
2, 177054, Note_on_c, 0, 53, 30
2, 177056, Note_on_c, 0, 77, 50
2, 177058, Note_on_c, 0, 41, 39
2, 177071, Control_c, 0, 64, 0
2, 177080, Note_off_c, 0, 80, 56
2, 177391, Note_off_c, 0, 41, 49
2, 177497, Note_on_c, 0, 41, 35
2, 177615, Note_on_c, 0, 43, 39
2, 177696, Note_off_c, 0, 41, 48
2, 178193, Note_off_c, 0, 77, 52
2, 178196, Note_on_c, 0, 73, 45
2, 178198, Note_on_c, 0, 44, 36
2, 178231, Note_off_c, 0, 43, 49
2, 178369, Note_off_c, 0, 73, 51
2, 178389, Note_off_c, 0, 44, 49
2, 178416, Note_on_c, 0, 43, 28
2, 178417, Note_on_c, 0, 71, 44
2, 178427, Control_c, 0, 64, 127
2, 178589, Note_off_c, 0, 65, 47
2, 178916, Note_on_c, 0, 65, 34
2, 179200, Note_off_c, 0, 71, 51
2, 179452, Note_on_c, 0, 67, 34
2, 179589, Note_off_c, 0, 43, 47
2, 179590, Note_off_c, 0, 53, 47
2, 179719, Note_on_c, 0, 55, 28
2, 179742, Note_on_c, 0, 71, 42
2, 179744, Note_on_c, 0, 50, 32
2, 179746, Control_c, 0, 64, 127
2, 179752, Note_off_c, 0, 65, 48
2, 179799, Note_off_c, 0, 67, 48
2, 179887, Note_on_c, 0, 69, 43
2, 179989, Note_on_c, 0, 59, 33
2, 180007, Note_off_c, 0, 71, 50
2, 180118, Note_off_c, 0, 59, 48
2, 180121, Note_on_c, 0, 65, 39
2, 180251, Note_on_c, 0, 67, 49
2, 180317, Note_off_c, 0, 69, 50
2, 180376, Note_on_c, 0, 72, 51
2, 180386, Note_off_c, 0, 65, 49
2, 180388, Note_on_c, 0, 48, 28
2, 180399, Control_c, 0, 64, 0
2, 180451, Note_off_c, 0, 67, 52
2, 180461, Note_off_c, 0, 50, 48
2, 180521, Note_on_c, 0, 60, 33
2, 180554, Control_c, 0, 64, 127
2, 180660, Note_off_c, 0, 60, 48
2, 180661, Note_on_c, 0, 64, 39
2, 180676, Note_off_c, 0, 72, 52
2, 180685, Note_off_c, 0, 55, 47
2, 180794, Note_on_c, 0, 67, 40
2, 180844, Note_off_c, 0, 48, 47
2, 180902, Note_on_c, 0, 50, 32
2, 180912, Note_on_c, 0, 55, 28
2, 180923, Note_off_c, 0, 64, 49
2, 180926, Note_on_c, 0, 71, 42
2, 180933, Control_c, 0, 64, 0
2, 180966, Note_off_c, 0, 67, 50
2, 180988, Note_on_c, 0, 69, 44
2, 181032, Note_off_c, 0, 71, 50
2, 181052, Note_on_c, 0, 59, 33
2, 181081, Control_c, 0, 64, 127
2, 181185, Note_off_c, 0, 59, 48
2, 181188, Note_on_c, 0, 65, 39
2, 181317, Note_on_c, 0, 67, 51
2, 181359, Note_off_c, 0, 69, 51
2, 181445, Note_on_c, 0, 48, 37
2, 181447, Note_on_c, 0, 72, 35
2, 181450, Note_off_c, 0, 65, 49
2, 181452, Control_c, 0, 64, 0
2, 181487, Note_off_c, 0, 50, 48
2, 181489, Note_off_c, 0, 67, 52
2, 181574, Note_on_c, 0, 60, 33
2, 181595, Control_c, 0, 64, 127
2, 181700, Note_off_c, 0, 60, 48
2, 181704, Note_on_c, 0, 64, 36
2, 181740, Note_off_c, 0, 72, 48
2, 181810, Note_off_c, 0, 55, 47
2, 181820, Note_on_c, 0, 72, 40
2, 181850, Note_off_c, 0, 48, 49
2, 181961, Note_on_c, 0, 57, 31
2, 181962, Note_on_c, 0, 55, 38
2, 181964, Note_off_c, 0, 64, 49
2, 181964, Note_on_c, 0, 73, 45
2, 181970, Control_c, 0, 64, 0
2, 182010, Note_off_c, 0, 72, 50
2, 182095, Note_on_c, 0, 61, 50
2, 182122, Control_c, 0, 64, 127
2, 182232, Note_off_c, 0, 61, 52
2, 182234, Note_on_c, 0, 64, 56
2, 182280, Note_off_c, 0, 73, 51
2, 182355, Note_on_c, 0, 73, 60
2, 182500, Note_on_c, 0, 74, 55
2, 182502, Note_on_c, 0, 53, 65
2, 182505, Note_off_c, 0, 64, 54
2, 182516, Control_c, 0, 64, 0
2, 182544, Note_off_c, 0, 73, 55
2, 182546, Note_off_c, 0, 55, 49
2, 182644, Note_on_c, 0, 62, 69
2, 182676, Control_c, 0, 64, 127
2, 182786, Note_off_c, 0, 62, 57
2, 182788, Note_on_c, 0, 65, 36
2, 182825, Note_off_c, 0, 74, 53
2, 182889, Note_off_c, 0, 57, 47
2, 182915, Note_on_c, 0, 74, 47
2, 183059, Note_on_c, 0, 76, 41
2, 183071, Note_off_c, 0, 65, 49
2, 183073, Note_on_c, 0, 57, 33
2, 183076, Note_on_c, 0, 52, 44
2, 183077, Control_c, 0, 64, 0
2, 183102, Note_off_c, 0, 74, 51
2, 183108, Note_off_c, 0, 53, 56
2, 183217, Note_on_c, 0, 61, 40
2, 183242, Control_c, 0, 64, 127
2, 183364, Note_off_c, 0, 61, 50
2, 183366, Note_on_c, 0, 67, 41
2, 183395, Note_off_c, 0, 76, 50
2, 183497, Note_on_c, 0, 76, 51
2, 183649, Note_on_c, 0, 77, 52
2, 183661, Note_off_c, 0, 67, 50
2, 183663, Note_on_c, 0, 50, 28
2, 183673, Control_c, 0, 64, 0
2, 183705, Note_off_c, 0, 76, 52
2, 183708, Note_off_c, 0, 52, 51
2, 183814, Note_on_c, 0, 62, 33
2, 183847, Control_c, 0, 64, 127
2, 183956, Note_off_c, 0, 77, 53
2, 183968, Note_off_c, 0, 62, 48
2, 183969, Note_on_c, 0, 65, 39
2, 184061, Note_off_c, 0, 57, 48
2, 184114, Note_on_c, 0, 69, 44
2, 184132, Note_off_c, 0, 50, 47
2, 184223, Note_on_c, 0, 72, 47
2, 184231, Note_off_c, 0, 65, 49
2, 184233, Note_on_c, 0, 55, 28
2, 184237, Note_on_c, 0, 57, 35
2, 184241, Control_c, 0, 64, 0
2, 184249, Note_off_c, 0, 69, 51
2, 184290, Note_on_c, 0, 70, 49
2, 184294, Note_off_c, 0, 72, 51
2, 184350, Note_on_c, 0, 61, 33
2, 184377, Control_c, 0, 64, 127
2, 184471, Note_off_c, 0, 61, 48
2, 184472, Note_on_c, 0, 67, 39
2, 184592, Note_on_c, 0, 69, 58
2, 184629, Note_off_c, 0, 70, 52
2, 184715, Note_off_c, 0, 67, 49
2, 184718, Note_on_c, 0, 53, 34
2, 184721, Note_on_c, 0, 74, 64
2, 184725, Control_c, 0, 64, 0
2, 184753, Note_off_c, 0, 69, 54
2, 184764, Note_off_c, 0, 55, 47
2, 184841, Note_on_c, 0, 62, 33
2, 184868, Control_c, 0, 64, 127
2, 184968, Note_off_c, 0, 62, 48
2, 184971, Note_on_c, 0, 65, 39
2, 185012, Note_off_c, 0, 74, 56
2, 185063, Note_off_c, 0, 57, 48
2, 185093, Note_on_c, 0, 69, 61
2, 185132, Note_off_c, 0, 53, 48
2, 185190, Note_on_c, 0, 72, 58
2, 185191, Note_on_c, 0, 57, 29
2, 185193, Note_on_c, 0, 55, 34
2, 185212, Note_off_c, 0, 65, 49
2, 185217, Control_c, 0, 64, 0
2, 185242, Note_off_c, 0, 69, 55
2, 185283, Note_on_c, 0, 70, 57
2, 185290, Note_off_c, 0, 72, 54
2, 185331, Note_on_c, 0, 61, 44
2, 185353, Control_c, 0, 64, 127
2, 185451, Note_off_c, 0, 61, 51
2, 185453, Note_on_c, 0, 67, 43
2, 185573, Note_on_c, 0, 69, 50
2, 185617, Note_off_c, 0, 70, 54
2, 185697, Note_off_c, 0, 67, 50
2, 185699, Note_on_c, 0, 53, 41
2, 185701, Control_c, 0, 64, 0
2, 185702, Note_on_c, 0, 74, 51
2, 185727, Note_off_c, 0, 69, 52
2, 185743, Note_off_c, 0, 55, 48
2, 185821, Note_on_c, 0, 62, 40
2, 185839, Control_c, 0, 64, 127
2, 185948, Note_off_c, 0, 62, 50
2, 185951, Note_on_c, 0, 65, 39
2, 186015, Note_off_c, 0, 57, 47
2, 186022, Note_off_c, 0, 74, 52
2, 186080, Note_on_c, 0, 74, 48
2, 186213, Note_off_c, 0, 65, 49
2, 186216, Note_on_c, 0, 52, 30
2, 186218, Note_on_c, 0, 76, 50
2, 186220, Note_on_c, 0, 57, 37
2, 186225, Control_c, 0, 64, 0
2, 186243, Note_off_c, 0, 74, 52
2, 186289, Note_off_c, 0, 53, 50
2, 186349, Note_on_c, 0, 61, 36
2, 186379, Control_c, 0, 64, 127
2, 186485, Note_off_c, 0, 61, 49
2, 186488, Note_on_c, 0, 67, 34
2, 186557, Note_off_c, 0, 76, 52
2, 186623, Note_on_c, 0, 76, 53
2, 186764, Note_off_c, 0, 67, 48
2, 186765, Note_on_c, 0, 50, 32
2, 186768, Control_c, 0, 64, 0
2, 186770, Note_on_c, 0, 77, 35
2, 186815, Note_off_c, 0, 76, 53
2, 186842, Note_off_c, 0, 52, 47
2, 186904, Note_on_c, 0, 62, 37
2, 186927, Control_c, 0, 64, 127
2, 187046, Note_off_c, 0, 62, 49
2, 187049, Note_on_c, 0, 65, 36
2, 187114, Note_off_c, 0, 77, 48
2, 187147, Note_off_c, 0, 57, 49
2, 187189, Note_on_c, 0, 77, 55
2, 187337, Note_off_c, 0, 65, 49
2, 187339, Note_on_c, 0, 48, 28
2, 187341, Note_on_c, 0, 78, 58
2, 187343, Note_on_c, 0, 57, 40
2, 187346, Control_c, 0, 64, 0
2, 187390, Note_off_c, 0, 77, 53
2, 187415, Note_off_c, 0, 50, 48
2, 187482, Note_on_c, 0, 62, 33
2, 187511, Control_c, 0, 64, 127
2, 187631, Note_off_c, 0, 62, 48
2, 187634, Note_on_c, 0, 66, 32
2, 187717, Note_off_c, 0, 78, 54
2, 187783, Note_on_c, 0, 78, 67
2, 187824, Note_off_c, 0, 57, 50
2, 187936, Note_off_c, 0, 66, 48
2, 187939, Note_on_c, 0, 47, 40
2, 187942, Note_on_c, 0, 79, 71
2, 187943, Note_on_c, 0, 55, 44
2, 187947, Control_c, 0, 64, 0
2, 188003, Note_off_c, 0, 78, 57
2, 188020, Note_off_c, 0, 48, 47
2, 188091, Note_on_c, 0, 62, 33
2, 188158, Control_c, 0, 64, 127
2, 188247, Note_off_c, 0, 62, 48
2, 188248, Note_off_c, 0, 79, 58
2, 188251, Note_on_c, 0, 65, 39
2, 188391, Note_on_c, 0, 67, 46
2, 188396, Note_off_c, 0, 47, 50
2, 188407, Note_off_c, 0, 55, 51
2, 188490, Note_on_c, 0, 50, 38
2, 188498, Note_on_c, 0, 55, 34
2, 188500, Note_on_c, 0, 71, 50
2, 188508, Note_off_c, 0, 65, 49
2, 188518, Control_c, 0, 64, 0
2, 188541, Note_off_c, 0, 67, 51
2, 188589, Note_off_c, 0, 71, 52
2, 188610, Note_on_c, 0, 69, 52
2, 188630, Note_on_c, 0, 59, 44
2, 188662, Control_c, 0, 64, 127
2, 188752, Note_off_c, 0, 59, 51
2, 188754, Note_on_c, 0, 65, 43
2, 188876, Note_on_c, 0, 67, 59
2, 188949, Note_off_c, 0, 69, 53
2, 189001, Note_off_c, 0, 65, 50
2, 189005, Note_on_c, 0, 48, 41
2, 189006, Note_on_c, 0, 72, 77
2, 189010, Control_c, 0, 64, 0
2, 189020, Note_off_c, 0, 50, 49
2, 189035, Note_off_c, 0, 67, 54
2, 189133, Note_on_c, 0, 60, 40
2, 189159, Control_c, 0, 64, 127
2, 189264, Note_off_c, 0, 60, 50
2, 189266, Note_on_c, 0, 64, 38
2, 189313, Note_off_c, 0, 72, 59
2, 189319, Note_off_c, 0, 55, 48
2, 189393, Note_on_c, 0, 72, 62
2, 189456, Note_off_c, 0, 48, 50
2, 189508, Note_off_c, 0, 64, 49
2, 189511, Note_on_c, 0, 40, 34
2, 189513, Note_on_c, 0, 48, 28
2, 189514, Control_c, 0, 64, 0
2, 189516, Note_on_c, 0, 67, 46
2, 189554, Note_off_c, 0, 72, 55
2, 189632, Note_on_c, 0, 55, 35
2, 189647, Control_c, 0, 64, 127
2, 189713, Note_off_c, 0, 40, 48
2, 189754, Note_off_c, 0, 55, 48
2, 189755, Note_on_c, 0, 60, 34
2, 189769, Note_off_c, 0, 67, 51
2, 189879, Note_on_c, 0, 67, 54
2, 190009, Note_off_c, 0, 60, 48
2, 190011, Note_on_c, 0, 41, 38
2, 190014, Note_on_c, 0, 69, 51
2, 190020, Control_c, 0, 64, 0
2, 190066, Note_off_c, 0, 67, 53
2, 190141, Note_on_c, 0, 57, 35
2, 190176, Control_c, 0, 64, 127
2, 190235, Note_off_c, 0, 41, 49
2, 190277, Note_off_c, 0, 57, 48
2, 190280, Note_on_c, 0, 60, 35
2, 190297, Note_off_c, 0, 69, 52
2, 190417, Note_on_c, 0, 69, 61
2, 190562, Note_off_c, 0, 60, 48
2, 190564, Note_off_c, 0, 48, 47
2, 190567, Note_on_c, 0, 65, 64
2, 190569, Note_on_c, 0, 38, 43
2, 190574, Control_c, 0, 64, 0
2, 190604, Note_off_c, 0, 69, 55
2, 190709, Note_on_c, 0, 53, 35
2, 190751, Control_c, 0, 64, 127
2, 190813, Note_off_c, 0, 38, 50
2, 190859, Note_off_c, 0, 53, 48
2, 190861, Note_on_c, 0, 60, 35
2, 190932, Note_off_c, 0, 65, 56
2, 191012, Note_on_c, 0, 65, 56
2, 191166, Note_off_c, 0, 60, 48
2, 191171, Note_on_c, 0, 43, 54
2, 191172, Note_on_c, 0, 48, 45
2, 191174, Note_on_c, 0, 62, 68
2, 191176, Control_c, 0, 64, 0
2, 191236, Note_off_c, 0, 65, 54
2, 191325, Note_on_c, 0, 53, 62
2, 191353, Control_c, 0, 64, 127
2, 191435, Note_off_c, 0, 43, 53
2, 191486, Note_off_c, 0, 53, 55
2, 191488, Note_on_c, 0, 60, 57
2, 191564, Note_off_c, 0, 62, 57
2, 191655, Note_on_c, 0, 62, 51
2, 191828, Note_off_c, 0, 60, 54
2, 191832, Note_off_c, 0, 48, 51
2, 191835, Note_on_c, 0, 43, 37
2, 191837, Note_on_c, 0, 47, 33
2, 191839, Note_on_c, 0, 67, 46
2, 191843, Control_c, 0, 64, 0
2, 191866, Note_off_c, 0, 62, 52
2, 192008, Note_on_c, 0, 53, 42
2, 192048, Control_c, 0, 64, 127
2, 192132, Note_off_c, 0, 43, 49
2, 192192, Note_off_c, 0, 53, 50
2, 192194, Note_on_c, 0, 59, 36
2, 192278, Note_off_c, 0, 67, 51
2, 192383, Note_on_c, 0, 67, 32
2, 192581, Note_off_c, 0, 59, 49
2, 192584, Note_off_c, 0, 47, 48
2, 192587, Note_on_c, 0, 36, 18
2, 192589, Note_on_c, 0, 43, 22
2, 192591, Note_on_c, 0, 64, 28
2, 192598, Control_c, 0, 64, 0
2, 192654, Note_off_c, 0, 67, 48
2, 192788, Note_off_c, 0, 43, 45
2, 192789, Note_on_c, 0, 52, 24
2, 192832, Control_c, 0, 64, 127
2, 192929, Note_off_c, 0, 36, 44
2, 192995, Note_off_c, 0, 52, 46
2, 192998, Note_off_c, 0, 64, 47
2, 193000, Note_on_c, 0, 60, 29
2, 193148, Note_on_c, 0, 67, 32
2, 193277, Note_off_c, 0, 60, 47
2, 193279, Note_on_c, 0, 55, 29
2, 193280, Note_on_c, 0, 71, 37
2, 193282, Note_on_c, 0, 50, 35
2, 193285, Control_c, 0, 64, 0
2, 193318, Note_off_c, 0, 67, 48
2, 193378, Note_off_c, 0, 71, 49
2, 193388, Note_on_c, 0, 69, 37
2, 193402, Note_on_c, 0, 59, 39
2, 193431, Control_c, 0, 64, 127
2, 193522, Note_off_c, 0, 59, 49
2, 193524, Note_on_c, 0, 65, 42
2, 193640, Note_on_c, 0, 67, 45
2, 193729, Note_off_c, 0, 69, 49
2, 193760, Note_off_c, 0, 65, 50
2, 193762, Note_on_c, 0, 48, 37
2, 193765, Note_on_c, 0, 72, 49
2, 193768, Control_c, 0, 64, 0
2, 193800, Note_off_c, 0, 67, 51
2, 193880, Note_on_c, 0, 60, 52
2, 193906, Control_c, 0, 64, 127
2, 193915, Note_off_c, 0, 48, 49
2, 194003, Note_off_c, 0, 60, 53
2, 194004, Note_on_c, 0, 64, 55
2, 194051, Note_off_c, 0, 72, 52
2, 194125, Note_on_c, 0, 72, 59
2, 194252, Note_off_c, 0, 64, 53
2, 194253, Note_off_c, 0, 50, 48
2, 194257, Note_off_c, 0, 55, 47
2, 194258, Note_on_c, 0, 48, 48
2, 194261, Note_on_c, 0, 67, 84
2, 194261, Note_on_c, 0, 40, 38
2, 194262, Control_c, 0, 64, 0
2, 194279, Note_off_c, 0, 72, 54
2, 194378, Note_on_c, 0, 55, 35
2, 194403, Control_c, 0, 64, 127
2, 194468, Note_off_c, 0, 40, 49
2, 194507, Note_off_c, 0, 55, 48
2, 194509, Note_on_c, 0, 60, 43
2, 194530, Note_off_c, 0, 67, 61
2, 194641, Note_on_c, 0, 67, 66
2, 194778, Note_off_c, 0, 60, 50
2, 194780, Note_on_c, 0, 41, 34
2, 194782, Note_on_c, 0, 69, 58
2, 194788, Control_c, 0, 64, 0
2, 194828, Note_off_c, 0, 67, 56
2, 194917, Note_on_c, 0, 57, 35
2, 194951, Control_c, 0, 64, 127
2, 195011, Note_off_c, 0, 41, 48
2, 195054, Note_off_c, 0, 57, 48
2, 195057, Note_on_c, 0, 60, 40
2, 195136, Note_off_c, 0, 69, 54
2, 195195, Note_on_c, 0, 69, 54
2, 195338, Note_off_c, 0, 60, 50
2, 195341, Note_off_c, 0, 48, 52
2, 195344, Note_on_c, 0, 65, 58
2, 195346, Note_on_c, 0, 38, 38
2, 195349, Control_c, 0, 64, 0
2, 195361, Note_off_c, 0, 69, 53
2, 195485, Note_on_c, 0, 53, 35
2, 195520, Control_c, 0, 64, 127
2, 195590, Note_off_c, 0, 38, 49
2, 195637, Note_off_c, 0, 53, 48
2, 195639, Note_on_c, 0, 60, 35
2, 195669, Note_off_c, 0, 65, 54
2, 195792, Note_on_c, 0, 65, 48
2, 195953, Note_off_c, 0, 60, 48
2, 195955, Note_on_c, 0, 43, 33
2, 195957, Note_on_c, 0, 62, 44
2, 195958, Note_on_c, 0, 48, 25
2, 195967, Control_c, 0, 64, 0
2, 196024, Note_off_c, 0, 65, 52
2, 196117, Note_on_c, 0, 53, 36
2, 196152, Control_c, 0, 64, 127
2, 196232, Note_off_c, 0, 43, 48
2, 196286, Note_off_c, 0, 53, 49
2, 196287, Note_on_c, 0, 60, 35
2, 196358, Note_off_c, 0, 62, 51
2, 196457, Note_on_c, 0, 62, 47
2, 196580, Note_off_c, 0, 48, 46
2, 196635, Note_off_c, 0, 60, 48
2, 196638, Note_on_c, 0, 43, 29
2, 196640, Note_on_c, 0, 67, 45
2, 196642, Note_on_c, 0, 47, 24
2, 196647, Control_c, 0, 64, 0
2, 196676, Note_off_c, 0, 62, 51
2, 196820, Note_on_c, 0, 53, 26
2, 196856, Control_c, 0, 64, 127
2, 196948, Note_off_c, 0, 43, 47
2, 197008, Note_off_c, 0, 53, 46
2, 197010, Note_on_c, 0, 59, 23
2, 197082, Note_off_c, 0, 67, 51
2, 197204, Note_on_c, 0, 67, 30
2, 197342, Note_off_c, 0, 47, 46
2, 197403, Note_off_c, 0, 59, 45
2, 197406, Note_on_c, 0, 36, 8
2, 197410, Note_on_c, 0, 60, 17
2, 197422, Control_c, 0, 64, 0
2, 197444, Note_on_c, 0, 43, 11
2, 197543, Note_on_c, 0, 52, 13
2, 197650, Note_off_c, 0, 36, 42
2, 197658, Control_c, 0, 64, 127
2, 197709, Note_off_c, 0, 43, 43
2, 197786, Note_off_c, 0, 60, 44
2, 197790, Note_off_c, 0, 67, 47
2, 197807, Note_off_c, 0, 52, 43
2, 198062, Note_on_c, 0, 71, 51
2, 198070, Control_c, 0, 64, 0
2, 198189, Note_on_c, 0, 52, 41
2, 198191, Note_on_c, 0, 59, 33
2, 198193, Note_on_c, 0, 74, 53
2, 198208, Note_off_c, 0, 71, 52
2, 198218, Control_c, 0, 64, 127
2, 198252, Note_on_c, 0, 72, 54
2, 198271, Note_off_c, 0, 74, 53
2, 198313, Note_on_c, 0, 64, 35
2, 198438, Note_off_c, 0, 64, 48
2, 198440, Note_on_c, 0, 67, 38
2, 198559, Note_on_c, 0, 71, 59
2, 198578, Note_off_c, 0, 72, 53
2, 198681, Note_off_c, 0, 67, 49
2, 198682, Note_off_c, 0, 52, 50
2, 198684, Note_on_c, 0, 78, 70
2, 198686, Note_on_c, 0, 51, 48
2, 198693, Control_c, 0, 64, 0
2, 198732, Note_off_c, 0, 71, 54
2, 198799, Note_on_c, 0, 66, 28
2, 198827, Control_c, 0, 64, 127
2, 198920, Note_off_c, 0, 66, 47
2, 198922, Note_on_c, 0, 69, 33
2, 198961, Note_off_c, 0, 78, 57
2, 199067, Note_off_c, 0, 59, 48
2, 199081, Note_on_c, 0, 71, 59
2, 199179, Note_off_c, 0, 69, 48
2, 199182, Note_off_c, 0, 51, 52
2, 199184, Note_on_c, 0, 74, 56
2, 199186, Note_on_c, 0, 52, 28
2, 199188, Note_on_c, 0, 59, 34
2, 199193, Control_c, 0, 64, 0
2, 199240, Note_off_c, 0, 71, 54
2, 199261, Note_off_c, 0, 74, 54
2, 199277, Note_on_c, 0, 72, 54
2, 199298, Note_on_c, 0, 64, 34
2, 199328, Control_c, 0, 64, 127
2, 199420, Note_off_c, 0, 64, 48
2, 199422, Note_on_c, 0, 67, 40
2, 199544, Note_on_c, 0, 71, 46
2, 199608, Note_off_c, 0, 72, 53
2, 199672, Note_off_c, 0, 67, 50
2, 199675, Note_off_c, 0, 59, 48
2, 199677, Note_off_c, 0, 52, 47
2, 199679, Note_on_c, 0, 50, 48
2, 199681, Note_on_c, 0, 76, 61
2, 199682, Note_on_c, 0, 55, 41
2, 199684, Control_c, 0, 64, 0
2, 199698, Note_off_c, 0, 71, 51
2, 199806, Note_on_c, 0, 59, 33
2, 199836, Control_c, 0, 64, 127
2, 199944, Note_off_c, 0, 59, 48
2, 199946, Note_on_c, 0, 64, 39
2, 200012, Note_off_c, 0, 76, 55
2, 200117, Note_on_c, 0, 67, 62
2, 200124, Note_off_c, 0, 55, 50
2, 200232, Note_off_c, 0, 64, 49
2, 200234, Note_off_c, 0, 50, 52
2, 200237, Note_on_c, 0, 71, 57
2, 200238, Note_on_c, 0, 49, 28
2, 200240, Note_on_c, 0, 55, 37
2, 200240, Control_c, 0, 64, 0
2, 200311, Note_off_c, 0, 67, 55
2, 200355, Note_on_c, 0, 69, 55
2, 200358, Note_off_c, 0, 71, 54
2, 200382, Note_on_c, 0, 57, 35
2, 200412, Control_c, 0, 64, 127
2, 200540, Note_off_c, 0, 57, 48
2, 200543, Note_on_c, 0, 64, 40
2, 200701, Note_on_c, 0, 67, 46
2, 200809, Note_off_c, 0, 69, 53
2, 200870, Note_off_c, 0, 64, 50
2, 200873, Note_off_c, 0, 49, 47
2, 200875, Note_on_c, 0, 71, 58
2, 200877, Note_on_c, 0, 50, 43
2, 200878, Control_c, 0, 64, 0
2, 200927, Note_off_c, 0, 67, 51
2, 201045, Note_on_c, 0, 60, 35
2, 201076, Control_c, 0, 64, 127
2, 201226, Note_off_c, 0, 60, 48
2, 201228, Note_on_c, 0, 62, 38
2, 201274, Note_off_c, 0, 71, 54
2, 201415, Note_off_c, 0, 55, 49
2, 201417, Note_on_c, 0, 71, 51
2, 201479, Note_off_c, 0, 50, 50
2, 201611, Note_off_c, 0, 62, 49
2, 201614, Note_on_c, 0, 50, 28
2, 201617, Note_on_c, 0, 69, 49
2, 201619, Note_on_c, 0, 54, 29
2, 201630, Control_c, 0, 64, 0
2, 201657, Note_off_c, 0, 71, 52
2, 201819, Note_on_c, 0, 60, 35
2, 201865, Control_c, 0, 64, 127
2, 202034, Note_off_c, 0, 60, 48
2, 202035, Note_on_c, 0, 62, 40
2, 202095, Note_off_c, 0, 69, 52
2, 202257, Note_on_c, 0, 69, 42
2, 202411, Note_off_c, 0, 50, 47
2, 202496, Note_off_c, 0, 62, 50
2, 202498, Note_off_c, 0, 54, 47
2, 202501, Note_on_c, 0, 50, 28
2, 202503, Note_on_c, 0, 43, 24
2, 202505, Note_on_c, 0, 67, 38
2, 202516, Control_c, 0, 64, 0
2, 202602, Note_off_c, 0, 69, 50
2, 202742, Note_off_c, 0, 50, 47
2, 202745, Note_on_c, 0, 59, 28
2, 202801, Control_c, 0, 64, 127
2, 203005, Note_off_c, 0, 59, 47
2, 203008, Note_off_c, 0, 67, 49
2, 203010, Note_on_c, 0, 62, 28
2, 203346, Note_on_c, 0, 71, 56
2, 203456, Note_off_c, 0, 62, 47
2, 203458, Note_off_c, 0, 43, 46
2, 203461, Note_on_c, 0, 52, 28
2, 203463, Note_on_c, 0, 59, 38
2, 203464, Control_c, 0, 64, 0
2, 203465, Note_on_c, 0, 74, 59
2, 203513, Note_on_c, 0, 72, 60
2, 203534, Note_off_c, 0, 74, 54
2, 203553, Note_off_c, 0, 71, 54
2, 203572, Note_on_c, 0, 64, 28
2, 203600, Control_c, 0, 64, 127
2, 203694, Note_off_c, 0, 64, 47
2, 203696, Note_on_c, 0, 67, 28
2, 203814, Note_on_c, 0, 71, 68
2, 203836, Note_off_c, 0, 72, 55
2, 203938, Note_off_c, 0, 67, 47
2, 203940, Note_off_c, 0, 52, 47
2, 203943, Note_on_c, 0, 78, 70
2, 203944, Note_on_c, 0, 51, 48
2, 203947, Control_c, 0, 64, 0
2, 203961, Note_off_c, 0, 71, 57
2, 204063, Note_on_c, 0, 66, 28
2, 204092, Control_c, 0, 64, 127
2, 204191, Note_off_c, 0, 66, 47
2, 204193, Note_on_c, 0, 69, 33
2, 204238, Note_off_c, 0, 78, 57
2, 204326, Note_off_c, 0, 59, 49
2, 204370, Note_on_c, 0, 71, 59
2, 204455, Note_off_c, 0, 69, 48
2, 204457, Note_off_c, 0, 51, 52
2, 204459, Note_on_c, 0, 74, 56
2, 204461, Note_on_c, 0, 59, 34
2, 204461, Note_on_c, 0, 52, 28
2, 204467, Control_c, 0, 64, 0
2, 204520, Note_on_c, 0, 72, 54
2, 204527, Note_off_c, 0, 71, 54
2, 204545, Note_off_c, 0, 74, 54
2, 204589, Note_on_c, 0, 64, 34
2, 204621, Control_c, 0, 64, 127
2, 204731, Note_off_c, 0, 64, 48
2, 204733, Note_on_c, 0, 67, 40
2, 204873, Note_on_c, 0, 71, 46
2, 204900, Note_off_c, 0, 72, 53
2, 205021, Note_off_c, 0, 67, 50
2, 205022, Note_off_c, 0, 59, 48
2, 205024, Note_off_c, 0, 52, 47
2, 205026, Note_on_c, 0, 76, 70
2, 205028, Note_on_c, 0, 50, 28
2, 205030, Note_on_c, 0, 55, 48
2, 205030, Control_c, 0, 64, 0
2, 205048, Note_off_c, 0, 71, 51
2, 205171, Note_on_c, 0, 59, 28
2, 205200, Control_c, 0, 64, 127
2, 205327, Note_off_c, 0, 59, 47
2, 205330, Note_on_c, 0, 64, 28
2, 205345, Note_off_c, 0, 76, 57
2, 205488, Note_on_c, 0, 67, 49
2, 205541, Note_off_c, 0, 55, 52
2, 205654, Note_off_c, 0, 64, 47
2, 205657, Note_off_c, 0, 50, 47
2, 205660, Note_on_c, 0, 71, 56
2, 205662, Note_on_c, 0, 49, 28
2, 205663, Note_on_c, 0, 55, 34
2, 205666, Control_c, 0, 64, 0
2, 205685, Note_off_c, 0, 67, 52
2, 205739, Note_on_c, 0, 69, 54
2, 205772, Note_off_c, 0, 71, 54
2, 205826, Note_on_c, 0, 57, 34
2, 205858, Control_c, 0, 64, 127
2, 206001, Note_off_c, 0, 57, 48
2, 206004, Note_on_c, 0, 64, 38
2, 206186, Note_on_c, 0, 67, 50
2, 206221, Note_off_c, 0, 69, 53
2, 206356, Note_on_c, 0, 50, 40
2, 206374, Note_off_c, 0, 64, 49
2, 206376, Note_off_c, 0, 49, 47
2, 206379, Control_c, 0, 64, 0
2, 206380, Note_on_c, 0, 71, 58
2, 206409, Note_off_c, 0, 67, 52
2, 206569, Note_on_c, 0, 60, 34
2, 206600, Control_c, 0, 64, 127
2, 206771, Note_off_c, 0, 60, 48
2, 206773, Note_on_c, 0, 62, 38
2, 206875, Note_off_c, 0, 71, 54
2, 206979, Note_on_c, 0, 71, 46
2, 207057, Note_off_c, 0, 50, 50
2, 207191, Note_off_c, 0, 62, 49
2, 207193, Note_off_c, 0, 55, 48
2, 207197, Note_on_c, 0, 69, 58
2, 207199, Note_on_c, 0, 54, 34
2, 207201, Note_on_c, 0, 50, 34
2, 207208, Control_c, 0, 64, 0
2, 207240, Note_off_c, 0, 71, 51
2, 207410, Note_off_c, 0, 54, 48
2, 207413, Note_on_c, 0, 60, 28
2, 207458, Control_c, 0, 64, 127
2, 207634, Note_off_c, 0, 60, 47
2, 207638, Note_on_c, 0, 62, 28
2, 207795, Note_off_c, 0, 69, 54
2, 207865, Note_on_c, 0, 69, 49
2, 207908, Note_off_c, 0, 50, 48
2, 208107, Note_off_c, 0, 62, 47
2, 208109, Note_on_c, 0, 67, 46
2, 208111, Note_on_c, 0, 43, 29
2, 208113, Note_on_c, 0, 50, 34
2, 208115, Control_c, 0, 64, 0
2, 208196, Note_off_c, 0, 69, 52
2, 208355, Note_off_c, 0, 50, 48
2, 208357, Note_on_c, 0, 59, 28
2, 208395, Control_c, 0, 64, 127
2, 208617, Note_off_c, 0, 59, 47
2, 208619, Note_off_c, 0, 67, 51
2, 208621, Note_on_c, 0, 62, 28
2, 208895, Note_on_c, 0, 67, 50
2, 208977, Note_off_c, 0, 62, 47
2, 208979, Note_off_c, 0, 43, 47
2, 208981, Note_on_c, 0, 50, 28
2, 208982, Note_on_c, 0, 71, 54
2, 208984, Note_on_c, 0, 55, 28
2, 208986, Control_c, 0, 64, 0
2, 209038, Note_on_c, 0, 69, 57
2, 209054, Note_off_c, 0, 67, 52
2, 209077, Note_off_c, 0, 71, 53
2, 209099, Note_on_c, 0, 59, 28
2, 209131, Control_c, 0, 64, 127
2, 209223, Note_off_c, 0, 59, 47
2, 209225, Note_on_c, 0, 65, 28
2, 209349, Note_on_c, 0, 67, 69
2, 209394, Note_off_c, 0, 69, 54
2, 209463, Control_c, 0, 64, 0
2, 209480, Note_off_c, 0, 65, 47
2, 209482, Note_off_c, 0, 50, 47
2, 209486, Note_on_c, 0, 48, 28
2, 209488, Note_on_c, 0, 72, 73
2, 209526, Note_off_c, 0, 67, 57
2, 209615, Note_on_c, 0, 60, 28
2, 209618, Control_c, 0, 64, 127
2, 209755, Note_off_c, 0, 60, 47
2, 209757, Note_on_c, 0, 64, 28
2, 209779, Note_off_c, 0, 72, 58
2, 209880, Note_off_c, 0, 55, 47
2, 209931, Note_on_c, 0, 67, 50
2, 210011, Note_off_c, 0, 64, 47
2, 210014, Note_on_c, 0, 71, 54
2, 210016, Note_off_c, 0, 48, 47
2, 210018, Note_on_c, 0, 55, 28
2, 210020, Note_on_c, 0, 50, 33
2, 210022, Control_c, 0, 64, 0
2, 210072, Note_on_c, 0, 69, 57
2, 210090, Note_off_c, 0, 67, 52
2, 210111, Note_off_c, 0, 71, 53
2, 210133, Note_on_c, 0, 59, 28
2, 210158, Control_c, 0, 64, 127
2, 210257, Note_off_c, 0, 59, 47
2, 210259, Note_on_c, 0, 65, 28
2, 210383, Note_on_c, 0, 67, 69
2, 210427, Note_off_c, 0, 69, 54
2, 210514, Note_off_c, 0, 65, 47
2, 210516, Note_on_c, 0, 72, 73
2, 210519, Note_off_c, 0, 50, 48
2, 210521, Note_on_c, 0, 48, 28
2, 210524, Control_c, 0, 64, 0
2, 210559, Note_off_c, 0, 67, 57
2, 210647, Note_on_c, 0, 60, 34
2, 210675, Control_c, 0, 64, 127
2, 210786, Note_off_c, 0, 60, 48
2, 210788, Note_on_c, 0, 64, 28
2, 210825, Note_off_c, 0, 72, 58
2, 210926, Note_on_c, 0, 72, 40
2, 210940, Note_off_c, 0, 55, 47
2, 211044, Note_off_c, 0, 64, 47
2, 211046, Note_on_c, 0, 73, 42
2, 211048, Note_off_c, 0, 48, 47
2, 211050, Note_on_c, 0, 55, 23
2, 211052, Note_on_c, 0, 57, 28
2, 211054, Control_c, 0, 64, 0
2, 211106, Note_off_c, 0, 72, 50
2, 211163, Note_on_c, 0, 61, 28
2, 211190, Control_c, 0, 64, 127
2, 211289, Note_off_c, 0, 61, 47
2, 211290, Note_on_c, 0, 64, 34
2, 211331, Note_off_c, 0, 73, 50
2, 211415, Note_on_c, 0, 73, 48
2, 211546, Note_off_c, 0, 64, 48
2, 211548, Note_on_c, 0, 74, 50
2, 211550, Note_off_c, 0, 55, 45
2, 211553, Control_c, 0, 64, 0
2, 211554, Note_on_c, 0, 53, 28
2, 211615, Note_off_c, 0, 73, 52
2, 211681, Note_on_c, 0, 62, 32
2, 211705, Control_c, 0, 64, 127
2, 211821, Note_off_c, 0, 62, 48
2, 211823, Note_on_c, 0, 65, 38
2, 211857, Note_off_c, 0, 74, 52
2, 211938, Note_off_c, 0, 57, 47
2, 211962, Note_on_c, 0, 74, 57
2, 212110, Note_off_c, 0, 65, 49
2, 212111, Note_on_c, 0, 76, 59
2, 212116, Note_off_c, 0, 53, 47
2, 212119, Note_on_c, 0, 52, 28
2, 212121, Note_on_c, 0, 57, 39
2, 212121, Control_c, 0, 64, 0
2, 212158, Note_off_c, 0, 74, 54
2, 212264, Note_on_c, 0, 61, 28
2, 212290, Control_c, 0, 64, 127
2, 212421, Note_off_c, 0, 61, 47
2, 212424, Note_on_c, 0, 67, 28
2, 212438, Note_off_c, 0, 76, 54
2, 212587, Note_on_c, 0, 76, 65
2, 212756, Note_off_c, 0, 67, 47
2, 212758, Note_on_c, 0, 77, 67
2, 212760, Note_off_c, 0, 52, 47
2, 212762, Note_on_c, 0, 50, 38
2, 212765, Control_c, 0, 64, 0
2, 212846, Note_off_c, 0, 76, 56
2, 212931, Note_on_c, 0, 62, 28
2, 212964, Control_c, 0, 64, 127
2, 213115, Note_off_c, 0, 62, 47
2, 213118, Note_off_c, 0, 77, 57
2, 213120, Note_on_c, 0, 65, 34
2, 213286, Note_on_c, 0, 69, 40
2, 213296, Note_off_c, 0, 57, 49
2, 213403, Note_off_c, 0, 65, 48
2, 213407, Note_on_c, 0, 72, 53
2, 213409, Note_off_c, 0, 50, 49
2, 213410, Note_on_c, 0, 57, 28
2, 213412, Note_on_c, 0, 55, 23
2, 213415, Control_c, 0, 64, 0
2, 213455, Note_off_c, 0, 69, 50
2, 213464, Note_on_c, 0, 70, 55
2, 213517, Note_off_c, 0, 72, 53
2, 213526, Note_on_c, 0, 61, 28
2, 213555, Control_c, 0, 64, 127
2, 213652, Note_off_c, 0, 61, 47
2, 213653, Note_on_c, 0, 64, 28
2, 213780, Note_on_c, 0, 69, 65
2, 213832, Note_off_c, 0, 70, 53
2, 213911, Note_off_c, 0, 64, 47
2, 213913, Note_on_c, 0, 74, 69
2, 213915, Note_off_c, 0, 55, 45
2, 213917, Note_on_c, 0, 53, 28
2, 213920, Control_c, 0, 64, 0
2, 213968, Note_off_c, 0, 69, 56
2, 214049, Note_on_c, 0, 62, 33
2, 214075, Control_c, 0, 64, 127
2, 214190, Note_off_c, 0, 62, 48
2, 214191, Note_on_c, 0, 65, 38
2, 214271, Note_off_c, 0, 74, 57
2, 214333, Note_off_c, 0, 57, 47
2, 214349, Note_on_c, 0, 69, 50
2, 214447, Note_off_c, 0, 65, 49
2, 214449, Note_on_c, 0, 72, 53
2, 214450, Note_off_c, 0, 53, 47
2, 214453, Note_on_c, 0, 57, 28
2, 214455, Note_on_c, 0, 55, 23
2, 214457, Control_c, 0, 64, 0
2, 214506, Note_on_c, 0, 70, 55
2, 214515, Note_off_c, 0, 69, 52
2, 214558, Note_off_c, 0, 72, 53
2, 214568, Note_on_c, 0, 61, 28
2, 214592, Control_c, 0, 64, 127
2, 214694, Note_off_c, 0, 61, 47
2, 214696, Note_on_c, 0, 64, 28
2, 214821, Note_on_c, 0, 69, 65
2, 214873, Note_off_c, 0, 70, 53
2, 214953, Note_off_c, 0, 64, 47
2, 214954, Note_on_c, 0, 74, 69
2, 214957, Note_off_c, 0, 55, 45
2, 214959, Note_on_c, 0, 53, 34
2, 214966, Control_c, 0, 64, 0
2, 215008, Note_off_c, 0, 69, 56
2, 215090, Note_on_c, 0, 62, 28
2, 215121, Control_c, 0, 64, 127
2, 215232, Note_off_c, 0, 62, 47
2, 215234, Note_on_c, 0, 65, 36
2, 215247, Note_off_c, 0, 57, 47
2, 215296, Note_off_c, 0, 74, 57
2, 215376, Note_on_c, 0, 74, 40
2, 215521, Note_off_c, 0, 65, 49
2, 215523, Note_on_c, 0, 76, 42
2, 215525, Note_off_c, 0, 53, 48
2, 215529, Note_on_c, 0, 52, 28
2, 215531, Note_on_c, 0, 57, 34
2, 215537, Control_c, 0, 64, 0
2, 215578, Note_off_c, 0, 74, 50
2, 215670, Note_on_c, 0, 61, 34
2, 215705, Control_c, 0, 64, 127
2, 215817, Note_off_c, 0, 61, 48
2, 215820, Note_on_c, 0, 67, 38
2, 215883, Note_off_c, 0, 76, 50
2, 215964, Note_on_c, 0, 76, 49
2, 216112, Note_off_c, 0, 67, 49
2, 216115, Note_on_c, 0, 77, 51
2, 216118, Note_off_c, 0, 52, 47
2, 216119, Note_on_c, 0, 50, 28
2, 216121, Control_c, 0, 64, 0
2, 216179, Note_off_c, 0, 76, 52
2, 216262, Note_on_c, 0, 62, 30
2, 216288, Control_c, 0, 64, 127
2, 216410, Note_off_c, 0, 62, 47
2, 216412, Note_on_c, 0, 65, 36
2, 216457, Note_off_c, 0, 77, 52
2, 216524, Note_off_c, 0, 57, 48
2, 216559, Note_on_c, 0, 77, 58
2, 216709, Note_off_c, 0, 65, 49
2, 216712, Note_on_c, 0, 78, 60
2, 216713, Note_off_c, 0, 50, 47
2, 216716, Note_on_c, 0, 48, 28
2, 216718, Note_on_c, 0, 57, 40
2, 216720, Control_c, 0, 64, 0
2, 216787, Note_off_c, 0, 77, 54
2, 216860, Note_on_c, 0, 62, 32
2, 216892, Control_c, 0, 64, 127
2, 217011, Note_off_c, 0, 62, 48
2, 217014, Note_on_c, 0, 66, 38
2, 217034, Note_off_c, 0, 78, 55
2, 217163, Note_on_c, 0, 78, 67
2, 217318, Note_off_c, 0, 66, 49
2, 217320, Note_on_c, 0, 79, 69
2, 217322, Note_off_c, 0, 57, 50
2, 217323, Note_off_c, 0, 48, 47
2, 217326, Note_on_c, 0, 47, 28
2, 217327, Note_on_c, 0, 55, 49
2, 217328, Control_c, 0, 64, 0
2, 217418, Note_off_c, 0, 78, 57
2, 217468, Note_on_c, 0, 62, 34
2, 217507, Control_c, 0, 64, 127
2, 217622, Note_off_c, 0, 62, 48
2, 217626, Note_off_c, 0, 79, 57
2, 217628, Note_on_c, 0, 65, 38
2, 217766, Note_on_c, 0, 67, 40
2, 217827, Note_off_c, 0, 55, 52
2, 217883, Note_off_c, 0, 65, 49
2, 217888, Note_on_c, 0, 71, 50
2, 217890, Note_off_c, 0, 47, 47
2, 217892, Note_on_c, 0, 55, 28
2, 217894, Note_on_c, 0, 50, 23
2, 217897, Control_c, 0, 64, 0
2, 217947, Note_on_c, 0, 69, 52
2, 217951, Note_off_c, 0, 67, 50
2, 218006, Note_on_c, 0, 59, 30
2, 218013, Note_off_c, 0, 71, 52
2, 218045, Control_c, 0, 64, 127
2, 218130, Note_off_c, 0, 59, 47
2, 218132, Note_on_c, 0, 65, 36
2, 218256, Note_on_c, 0, 67, 58
2, 218330, Note_off_c, 0, 69, 53
2, 218389, Note_off_c, 0, 65, 49
2, 218391, Note_on_c, 0, 72, 63
2, 218394, Note_off_c, 0, 50, 45
2, 218395, Note_on_c, 0, 48, 28
2, 218397, Control_c, 0, 64, 0
2, 218463, Note_off_c, 0, 67, 54
2, 218524, Note_on_c, 0, 60, 28
2, 218550, Control_c, 0, 64, 127
2, 218665, Note_off_c, 0, 60, 47
2, 218667, Note_on_c, 0, 64, 28
2, 218740, Note_off_c, 0, 72, 55
2, 218802, Note_on_c, 0, 72, 58
2, 218852, Note_off_c, 0, 48, 47
2, 218917, Note_off_c, 0, 64, 47
2, 218920, Note_on_c, 0, 67, 56
2, 218922, Note_off_c, 0, 55, 47
2, 218925, Note_on_c, 0, 40, 28
2, 218927, Note_on_c, 0, 48, 35
2, 218929, Control_c, 0, 64, 0
2, 218962, Note_off_c, 0, 72, 54
2, 219037, Note_on_c, 0, 55, 28
2, 219055, Control_c, 0, 64, 127
2, 219129, Note_off_c, 0, 40, 47
2, 219156, Note_off_c, 0, 55, 47
2, 219158, Note_on_c, 0, 60, 28
2, 219186, Note_off_c, 0, 67, 54
2, 219278, Note_on_c, 0, 67, 52
2, 219400, Note_off_c, 0, 60, 47
2, 219402, Note_on_c, 0, 69, 50
2, 219404, Note_on_c, 0, 41, 38
2, 219434, Control_c, 0, 64, 0
2, 219464, Note_off_c, 0, 67, 53
2, 219524, Note_on_c, 0, 57, 34
2, 219585, Control_c, 0, 64, 127
2, 219651, Note_off_c, 0, 57, 48
2, 219652, Note_on_c, 0, 60, 39
2, 219678, Note_off_c, 0, 41, 49
2, 219718, Note_off_c, 0, 69, 52
2, 219776, Note_on_c, 0, 69, 45
2, 219907, Note_off_c, 0, 60, 49
2, 219910, Note_on_c, 0, 65, 44
2, 219912, Note_off_c, 0, 48, 48
2, 219914, Note_on_c, 0, 38, 28
2, 219915, Control_c, 0, 64, 0
2, 219964, Note_off_c, 0, 69, 51
2, 220038, Note_on_c, 0, 53, 34
2, 220076, Control_c, 0, 64, 127
2, 220132, Note_off_c, 0, 38, 47
2, 220173, Note_off_c, 0, 53, 48
2, 220176, Note_on_c, 0, 60, 38
2, 220229, Note_off_c, 0, 65, 51
2, 220314, Note_on_c, 0, 65, 39
2, 220457, Note_off_c, 0, 60, 49
2, 220460, Note_on_c, 0, 62, 38
2, 220462, Note_on_c, 0, 43, 28
2, 220464, Note_on_c, 0, 48, 34
2, 220466, Control_c, 0, 64, 0
2, 220525, Note_off_c, 0, 65, 49
2, 220608, Note_on_c, 0, 53, 33
2, 220637, Control_c, 0, 64, 127
2, 220756, Note_off_c, 0, 43, 47
2, 220761, Note_off_c, 0, 53, 48
2, 220764, Note_on_c, 0, 60, 40
2, 220780, Note_off_c, 0, 62, 49
2, 220920, Note_on_c, 0, 62, 46
2, 221080, Note_off_c, 0, 60, 50
2, 221081, Note_on_c, 0, 67, 49
2, 221084, Note_off_c, 0, 48, 48
2, 221086, Note_on_c, 0, 43, 28
2, 221088, Note_on_c, 0, 47, 40
2, 221090, Control_c, 0, 64, 0
2, 221150, Note_off_c, 0, 62, 51
2, 221239, Note_on_c, 0, 53, 34
2, 221266, Control_c, 0, 64, 127
2, 221334, Note_off_c, 0, 43, 47
2, 221399, Note_off_c, 0, 53, 48
2, 221402, Note_on_c, 0, 59, 40
2, 221453, Note_off_c, 0, 67, 52
2, 221561, Note_on_c, 0, 67, 48
2, 221723, Note_off_c, 0, 59, 50
2, 221725, Note_on_c, 0, 64, 49
2, 221728, Note_off_c, 0, 47, 50
2, 221730, Note_on_c, 0, 36, 28
2, 221732, Note_on_c, 0, 43, 38
2, 221734, Control_c, 0, 64, 0
2, 221781, Note_off_c, 0, 67, 52
2, 221887, Note_on_c, 0, 52, 32
2, 221913, Control_c, 0, 64, 127
2, 221993, Note_off_c, 0, 36, 47
2, 222048, Note_off_c, 0, 52, 48
2, 222050, Note_off_c, 0, 64, 52
2, 222053, Note_on_c, 0, 60, 36
2, 222205, Note_on_c, 0, 67, 53
2, 222331, Note_off_c, 0, 60, 49
2, 222334, Note_on_c, 0, 71, 55
2, 222336, Note_off_c, 0, 43, 49
2, 222337, Note_on_c, 0, 55, 43
2, 222339, Note_on_c, 0, 50, 28
2, 222341, Control_c, 0, 64, 0
2, 222384, Note_off_c, 0, 67, 53
2, 222392, Note_on_c, 0, 69, 55
2, 222448, Note_off_c, 0, 71, 53
2, 222454, Note_on_c, 0, 59, 30
2, 222483, Control_c, 0, 64, 127
2, 222577, Note_off_c, 0, 59, 47
2, 222578, Note_on_c, 0, 65, 38
2, 222696, Note_on_c, 0, 67, 59
2, 222750, Note_off_c, 0, 69, 53
2, 222816, Note_off_c, 0, 65, 49
2, 222818, Note_on_c, 0, 72, 61
2, 222820, Note_on_c, 0, 48, 38
2, 222822, Note_off_c, 0, 50, 47
2, 222824, Control_c, 0, 64, 0
2, 222869, Note_off_c, 0, 67, 54
2, 222935, Note_on_c, 0, 60, 34
2, 222958, Control_c, 0, 64, 127
2, 223052, Note_off_c, 0, 60, 48
2, 223054, Note_on_c, 0, 64, 38
2, 223122, Note_off_c, 0, 72, 55
2, 223169, Note_on_c, 0, 72, 52
2, 223187, Note_off_c, 0, 48, 49
2, 223286, Note_off_c, 0, 72, 53
2, 223288, Note_off_c, 0, 64, 49
2, 223289, Note_off_c, 0, 55, 50
2, 223292, Note_on_c, 0, 67, 49
2, 223294, Note_on_c, 0, 48, 38
2, 223295, Note_on_c, 0, 40, 34
2, 223298, Control_c, 0, 64, 0
2, 223405, Note_on_c, 0, 55, 28
2, 223433, Control_c, 0, 64, 127
2, 223527, Note_off_c, 0, 55, 47
2, 223529, Note_on_c, 0, 60, 38
2, 223542, Note_off_c, 0, 40, 48
2, 223590, Note_off_c, 0, 67, 52
2, 223651, Note_on_c, 0, 67, 40
2, 223774, Note_off_c, 0, 60, 49
2, 223777, Note_on_c, 0, 69, 61
2, 223779, Note_on_c, 0, 41, 41
2, 223781, Control_c, 0, 64, 0
2, 223842, Note_off_c, 0, 67, 50
2, 223904, Note_on_c, 0, 57, 28
2, 223938, Control_c, 0, 64, 127
2, 224026, Note_off_c, 0, 41, 50
2, 224036, Note_off_c, 0, 57, 47
2, 224039, Note_on_c, 0, 60, 34
2, 224104, Note_off_c, 0, 69, 55
2, 224173, Note_on_c, 0, 69, 56
2, 224317, Note_off_c, 0, 60, 48
2, 224319, Note_on_c, 0, 65, 55
2, 224322, Note_off_c, 0, 48, 49
2, 224324, Note_on_c, 0, 38, 44
2, 224328, Control_c, 0, 64, 0
2, 224360, Note_off_c, 0, 69, 54
2, 224464, Note_on_c, 0, 53, 30
2, 224509, Control_c, 0, 64, 127
2, 224621, Note_off_c, 0, 53, 47
2, 224624, Note_on_c, 0, 60, 36
2, 224640, Note_off_c, 0, 38, 51
2, 224691, Note_off_c, 0, 65, 53
2, 224783, Note_on_c, 0, 65, 51
2, 224954, Note_off_c, 0, 60, 49
2, 224956, Note_on_c, 0, 62, 39
2, 224958, Note_on_c, 0, 43, 28
2, 224960, Note_on_c, 0, 48, 38
2, 224962, Control_c, 0, 64, 0
2, 225043, Note_off_c, 0, 65, 52
2, 225130, Note_on_c, 0, 53, 34
2, 225160, Control_c, 0, 64, 127
2, 225294, Note_off_c, 0, 43, 47
2, 225315, Note_off_c, 0, 53, 48
2, 225316, Note_on_c, 0, 60, 29
2, 225421, Note_off_c, 0, 62, 49
2, 225509, Note_on_c, 0, 62, 39
2, 225712, Note_off_c, 0, 60, 47
2, 225715, Note_on_c, 0, 67, 38
2, 225717, Note_off_c, 0, 48, 49
2, 225721, Note_on_c, 0, 43, 22
2, 225723, Note_on_c, 0, 47, 32
2, 225726, Control_c, 0, 64, 0
2, 225824, Note_off_c, 0, 62, 49
2, 225927, Note_on_c, 0, 53, 22
2, 225976, Control_c, 0, 64, 127
2, 226129, Note_off_c, 0, 43, 45
2, 226156, Note_off_c, 0, 53, 45
2, 226161, Note_on_c, 0, 59, 28
2, 226297, Note_off_c, 0, 67, 49
2, 226397, Note_on_c, 0, 67, 34
2, 226652, Note_off_c, 0, 59, 47
2, 226655, Note_on_c, 0, 60, 36
2, 226657, Note_off_c, 0, 47, 48
2, 226682, Note_on_c, 0, 36, 16
2, 226706, Control_c, 0, 64, 0
2, 226808, Note_on_c, 0, 43, 26
2, 226904, Note_on_c, 0, 52, 22
2, 226979, Note_off_c, 0, 36, 44
2, 227092, Control_c, 0, 64, 127
2, 227228, Note_off_c, 0, 43, 46
2, 227279, Note_off_c, 0, 52, 45
2, 227338, Note_off_c, 0, 60, 49
2, 227342, Note_off_c, 0, 67, 48
2, 228181, Control_c, 0, 64, 0
2, 228260, Note_on_c, 0, 52, 78
2, 228271, Note_on_c, 0, 64, 88
2, 228369, Note_off_c, 0, 52, 59
2, 228378, Note_on_c, 0, 67, 85
2, 228383, Note_on_c, 0, 55, 75
2, 228400, Note_off_c, 0, 64, 62
2, 228460, Note_on_c, 0, 65, 84
2, 228465, Note_on_c, 0, 53, 74
2, 228491, Note_off_c, 0, 67, 61
2, 228493, Note_off_c, 0, 55, 59
2, 228644, Note_off_c, 0, 65, 61
2, 228651, Note_off_c, 0, 53, 59
2, 228945, Note_on_c, 0, 64, 79
2, 228947, Note_on_c, 0, 52, 72
2, 229058, Note_off_c, 0, 52, 58
2, 229075, Note_off_c, 0, 64, 60
2, 229106, Note_on_c, 0, 68, 48
2, 229109, Note_on_c, 0, 45, 20
2, 229111, Note_on_c, 0, 52, 28
2, 229118, Control_c, 0, 64, 127
2, 229342, Note_off_c, 0, 52, 47
2, 229478, Note_on_c, 0, 57, 53
2, 229520, Control_c, 0, 64, 0
2, 229575, Note_off_c, 0, 45, 45
2, 229576, Note_on_c, 0, 60, 48
2, 229578, Note_on_c, 0, 69, 55
2, 229595, Note_off_c, 0, 57, 53
2, 229606, Note_off_c, 0, 68, 52
2, 229959, Note_on_c, 0, 64, 66
2, 229965, Note_off_c, 0, 60, 52
2, 230061, Note_on_c, 0, 70, 71
2, 230063, Note_on_c, 0, 44, 42
2, 230065, Note_on_c, 0, 52, 56
2, 230085, Note_off_c, 0, 64, 56
2, 230095, Note_off_c, 0, 69, 53
2, 230105, Control_c, 0, 64, 127
2, 230338, Note_off_c, 0, 52, 54
2, 230496, Note_on_c, 0, 59, 59
2, 230615, Note_off_c, 0, 44, 50
2, 230617, Note_on_c, 0, 71, 74
2, 230619, Note_on_c, 0, 62, 54
2, 230629, Control_c, 0, 64, 0
2, 230637, Note_off_c, 0, 59, 54
2, 230646, Note_off_c, 0, 70, 58
2, 231057, Note_on_c, 0, 64, 72
2, 231081, Note_off_c, 0, 62, 53
2, 231176, Note_on_c, 0, 45, 55
2, 231181, Note_on_c, 0, 74, 82
2, 231188, Control_c, 0, 64, 127
2, 231200, Note_off_c, 0, 64, 58
2, 231209, Note_off_c, 0, 71, 59
2, 231252, Note_on_c, 0, 52, 60
2, 231543, Note_off_c, 0, 52, 55
2, 231638, Note_on_c, 0, 60, 65
2, 231767, Note_off_c, 0, 45, 53
2, 231770, Note_on_c, 0, 72, 68
2, 231772, Note_on_c, 0, 64, 52
2, 231780, Control_c, 0, 64, 0
2, 231793, Note_off_c, 0, 60, 56
2, 231806, Note_off_c, 0, 74, 60
2, 232230, Note_on_c, 0, 69, 48
2, 232349, Note_off_c, 0, 69, 52
2, 232351, Note_on_c, 0, 53, 52
2, 232353, Note_on_c, 0, 50, 52
2, 232368, Control_c, 0, 64, 127
2, 232595, Note_off_c, 0, 53, 53
2, 232728, Note_on_c, 0, 59, 52
2, 232864, Note_off_c, 0, 59, 53
2, 232866, Note_off_c, 0, 50, 53
2, 232868, Note_off_c, 0, 64, 53
2, 232869, Note_on_c, 0, 71, 69
2, 232869, Note_on_c, 0, 62, 57
2, 232871, Control_c, 0, 64, 0
2, 232899, Note_off_c, 0, 72, 57
2, 233292, Note_on_c, 0, 65, 65
2, 233442, Note_off_c, 0, 65, 56
2, 233445, Note_on_c, 0, 52, 51
2, 233453, Control_c, 0, 64, 127
2, 233855, Control_c, 0, 64, 0
2, 233858, Note_on_c, 0, 57, 59
2, 233996, Note_off_c, 0, 57, 54
2, 233998, Note_off_c, 0, 52, 52
2, 234000, Note_off_c, 0, 62, 54
2, 234002, Note_off_c, 0, 71, 57
2, 234004, Note_on_c, 0, 69, 58
2, 234004, Note_on_c, 0, 60, 46
2, 234372, Note_on_c, 0, 64, 54
2, 234497, Note_off_c, 0, 64, 53
2, 234498, Note_on_c, 0, 40, 40
2, 234555, Note_on_c, 0, 50, 39
2, 234574, Control_c, 0, 64, 127
2, 234923, Note_on_c, 0, 56, 49
2, 234990, Control_c, 0, 64, 0
2, 235065, Note_off_c, 0, 56, 52
2, 235067, Note_off_c, 0, 40, 50
2, 235069, Note_off_c, 0, 60, 51
2, 235071, Note_off_c, 0, 69, 54
2, 235073, Note_on_c, 0, 59, 35
2, 235075, Note_on_c, 0, 68, 47
2, 235498, Note_on_c, 0, 64, 43
2, 235643, Note_off_c, 0, 50, 49
2, 235657, Note_off_c, 0, 64, 50
2, 235659, Note_on_c, 0, 45, 29
2, 235720, Note_on_c, 0, 48, 28
2, 235741, Control_c, 0, 64, 127
2, 236115, Note_on_c, 0, 57, 38
2, 236210, Control_c, 0, 64, 0
2, 236270, Note_off_c, 0, 57, 49
2, 236272, Note_off_c, 0, 68, 51
2, 236275, Note_off_c, 0, 59, 48
2, 236276, Note_on_c, 0, 69, 37
2, 236277, Note_on_c, 0, 60, 25
2, 236783, Note_on_c, 0, 64, 33
2, 236955, Note_off_c, 0, 64, 48
2, 237276, Note_off_c, 0, 48, 47
2, 237289, Note_off_c, 0, 69, 49
2, 237292, Note_off_c, 0, 60, 46
2, 237295, Note_off_c, 0, 45, 47
2, 237417, Note_on_c, 0, 52, 88
2, 237419, Note_on_c, 0, 64, 88
2, 237552, Note_on_c, 0, 67, 85
2, 237556, Note_on_c, 0, 55, 75
2, 237585, Note_off_c, 0, 52, 62
2, 237586, Note_off_c, 0, 64, 62
2, 237619, Note_on_c, 0, 65, 84
2, 237624, Note_on_c, 0, 53, 74
2, 237648, Note_off_c, 0, 67, 61
2, 237650, Note_off_c, 0, 55, 59
2, 237732, Note_off_c, 0, 65, 61
2, 237735, Note_off_c, 0, 53, 59
2, 237999, Note_on_c, 0, 64, 79
2, 238001, Note_on_c, 0, 52, 72
2, 238107, Note_off_c, 0, 52, 58
2, 238131, Note_off_c, 0, 64, 60
2, 238186, Note_on_c, 0, 68, 48
2, 238188, Note_on_c, 0, 45, 20
2, 238190, Note_on_c, 0, 52, 28
2, 238204, Control_c, 0, 64, 127
2, 238467, Note_off_c, 0, 52, 47
2, 238607, Control_c, 0, 64, 0
2, 238626, Note_on_c, 0, 57, 53
2, 238737, Note_off_c, 0, 45, 45
2, 238739, Note_on_c, 0, 60, 48
2, 238741, Note_on_c, 0, 69, 55
2, 238759, Note_off_c, 0, 57, 53
2, 238768, Note_off_c, 0, 68, 52
2, 239138, Note_on_c, 0, 64, 66
2, 239143, Note_off_c, 0, 60, 52
2, 239239, Note_on_c, 0, 70, 71
2, 239241, Note_on_c, 0, 44, 42
2, 239243, Note_on_c, 0, 52, 56
2, 239257, Control_c, 0, 64, 127
2, 239260, Note_off_c, 0, 64, 56
2, 239267, Note_off_c, 0, 69, 53
2, 239477, Note_off_c, 0, 52, 54
2, 239624, Note_on_c, 0, 59, 59
2, 239674, Control_c, 0, 64, 0
2, 239728, Note_off_c, 0, 44, 50
2, 239730, Note_on_c, 0, 71, 74
2, 239732, Note_on_c, 0, 62, 54
2, 239752, Note_off_c, 0, 59, 54
2, 239760, Note_off_c, 0, 70, 58
2, 240168, Note_on_c, 0, 64, 72
2, 240191, Note_off_c, 0, 62, 53
2, 240266, Note_on_c, 0, 45, 55
2, 240315, Note_on_c, 0, 52, 60
2, 240320, Note_off_c, 0, 64, 58
2, 240329, Note_on_c, 0, 74, 82
2, 240332, Note_off_c, 0, 71, 59
2, 240343, Control_c, 0, 64, 127
2, 240654, Note_off_c, 0, 52, 55
2, 240832, Note_on_c, 0, 60, 65
2, 240949, Note_off_c, 0, 45, 53
2, 240979, Note_on_c, 0, 72, 68
2, 240982, Note_on_c, 0, 64, 52
2, 240998, Control_c, 0, 64, 0
2, 241007, Note_off_c, 0, 60, 56
2, 241060, Note_off_c, 0, 74, 60
2, 241373, Note_on_c, 0, 69, 48
2, 241489, Note_on_c, 0, 53, 52
2, 241492, Note_on_c, 0, 50, 52
2, 241495, Note_off_c, 0, 69, 52
2, 241497, Control_c, 0, 64, 127
2, 241714, Note_off_c, 0, 53, 53
2, 241826, Note_on_c, 0, 59, 52
2, 241937, Note_off_c, 0, 50, 53
2, 241939, Note_off_c, 0, 64, 53
2, 241941, Note_on_c, 0, 62, 57
2, 241943, Note_on_c, 0, 71, 69
2, 241944, Note_off_c, 0, 59, 53
2, 241946, Control_c, 0, 64, 0
2, 241964, Note_off_c, 0, 72, 57
2, 242278, Note_on_c, 0, 65, 65
2, 242395, Note_off_c, 0, 65, 56
2, 242397, Note_on_c, 0, 52, 51
2, 242416, Control_c, 0, 64, 127
2, 242776, Note_on_c, 0, 57, 59
2, 242912, Note_off_c, 0, 57, 54
2, 242914, Note_off_c, 0, 52, 52
2, 242916, Note_off_c, 0, 62, 54
2, 242918, Note_off_c, 0, 71, 57
2, 242919, Note_on_c, 0, 69, 58
2, 242919, Note_on_c, 0, 60, 46
2, 242921, Control_c, 0, 64, 0
2, 243341, Note_on_c, 0, 64, 54
2, 243492, Note_off_c, 0, 64, 53
2, 243494, Control_c, 0, 64, 127
2, 243496, Note_on_c, 0, 40, 40
2, 243513, Note_on_c, 0, 50, 39
2, 243894, Control_c, 0, 64, 0
2, 243907, Note_on_c, 0, 56, 49
2, 244042, Note_off_c, 0, 56, 52
2, 244044, Note_off_c, 0, 40, 50
2, 244046, Note_off_c, 0, 60, 51
2, 244047, Note_off_c, 0, 69, 54
2, 244050, Note_on_c, 0, 59, 35
2, 244051, Note_on_c, 0, 68, 47
2, 244421, Note_on_c, 0, 64, 43
2, 244503, Note_off_c, 0, 50, 49
2, 244545, Note_off_c, 0, 64, 50
2, 244547, Note_on_c, 0, 45, 29
2, 244599, Control_c, 0, 64, 127
2, 244601, Note_on_c, 0, 48, 28
2, 244961, Note_on_c, 0, 57, 38
2, 245001, Control_c, 0, 64, 0
2, 245096, Note_off_c, 0, 57, 49
2, 245097, Note_off_c, 0, 68, 51
2, 245100, Note_off_c, 0, 59, 48
2, 245102, Note_on_c, 0, 60, 25
2, 245103, Note_on_c, 0, 69, 37
2, 245492, Note_on_c, 0, 64, 33
2, 245634, Note_off_c, 0, 64, 48
2, 245891, Note_off_c, 0, 48, 47
2, 245902, Note_off_c, 0, 69, 49
2, 245904, Note_off_c, 0, 60, 46
2, 245907, Note_off_c, 0, 45, 47
2, 246031, Note_on_c, 0, 48, 79
2, 246033, Note_on_c, 0, 60, 83
2, 246159, Note_off_c, 0, 48, 60
2, 246162, Note_off_c, 0, 60, 60
2, 246163, Note_on_c, 0, 64, 90
2, 246165, Note_on_c, 0, 52, 83
2, 246227, Note_off_c, 0, 52, 60
2, 246229, Note_off_c, 0, 64, 62
2, 246232, Note_on_c, 0, 62, 94
2, 246234, Note_on_c, 0, 50, 85
2, 246349, Note_off_c, 0, 62, 63
2, 246352, Note_off_c, 0, 50, 61
2, 246549, Note_on_c, 0, 48, 88
2, 246551, Note_on_c, 0, 60, 96
2, 246671, Note_off_c, 0, 48, 62
2, 246673, Note_off_c, 0, 60, 63
2, 246675, Note_on_c, 0, 57, 94
2, 246677, Note_on_c, 0, 41, 58
2, 246679, Note_on_c, 0, 65, 100
2, 246704, Control_c, 0, 64, 127
2, 247001, Note_off_c, 0, 41, 54
2, 247003, Note_on_c, 0, 43, 71
2, 247045, Control_c, 0, 64, 0
2, 247109, Note_off_c, 0, 43, 58
2, 247111, Note_on_c, 0, 45, 76
2, 247156, Control_c, 0, 64, 127
2, 247418, Note_off_c, 0, 45, 59
2, 247420, Note_on_c, 0, 46, 89
2, 247448, Control_c, 0, 64, 0
2, 247520, Note_off_c, 0, 46, 62
2, 247522, Note_off_c, 0, 57, 63
2, 247525, Note_on_c, 0, 55, 77
2, 247527, Note_on_c, 0, 48, 93
2, 247529, Note_on_c, 0, 64, 87
2, 247529, Note_on_c, 0, 62, 74
2, 247555, Control_c, 0, 64, 127
2, 247572, Note_off_c, 0, 65, 65
2, 247837, Note_off_c, 0, 48, 63
2, 247839, Note_on_c, 0, 50, 64
2, 247875, Control_c, 0, 64, 0
2, 247940, Note_off_c, 0, 50, 56
2, 247942, Note_off_c, 0, 62, 59
2, 247944, Note_on_c, 0, 60, 91
2, 247946, Note_on_c, 0, 52, 66
2, 247984, Control_c, 0, 64, 127
2, 248262, Note_off_c, 0, 52, 56
2, 248265, Note_on_c, 0, 53, 72
2, 248332, Control_c, 0, 64, 0
2, 248337, Note_off_c, 0, 60, 62
2, 248339, Note_off_c, 0, 55, 59
2, 248375, Note_off_c, 0, 53, 58
2, 248379, Note_on_c, 0, 43, 58
2, 248381, Note_on_c, 0, 60, 77
2, 248383, Note_on_c, 0, 62, 87
2, 248383, Note_on_c, 0, 55, 82
2, 248424, Note_off_c, 0, 64, 61
2, 248446, Control_c, 0, 64, 127
2, 248693, Note_off_c, 0, 43, 54
2, 248695, Note_on_c, 0, 45, 73
2, 248737, Control_c, 0, 64, 0
2, 248795, Note_off_c, 0, 45, 58
2, 248798, Note_off_c, 0, 55, 60
2, 248800, Note_off_c, 0, 60, 59
2, 248802, Note_on_c, 0, 58, 86
2, 248804, Note_on_c, 0, 67, 91
2, 248804, Note_on_c, 0, 46, 78
2, 248842, Control_c, 0, 64, 127
2, 249102, Note_off_c, 0, 46, 59
2, 249104, Note_on_c, 0, 48, 93
2, 249137, Control_c, 0, 64, 0
2, 249209, Note_off_c, 0, 48, 63
2, 249212, Note_off_c, 0, 58, 61
2, 249214, Note_on_c, 0, 50, 58
2, 249216, Note_on_c, 0, 57, 77
2, 249250, Control_c, 0, 64, 127
2, 249477, Note_off_c, 0, 62, 61
2, 249521, Note_off_c, 0, 50, 54
2, 249524, Note_on_c, 0, 52, 63
2, 249584, Control_c, 0, 64, 0
2, 249624, Note_off_c, 0, 52, 55
2, 249626, Note_off_c, 0, 57, 59
2, 249628, Note_on_c, 0, 62, 77
2, 249630, Note_on_c, 0, 53, 65
2, 249632, Note_on_c, 0, 65, 88
2, 249676, Note_off_c, 0, 67, 62
2, 249689, Control_c, 0, 64, 127
2, 249891, Note_off_c, 0, 62, 59
2, 249926, Note_off_c, 0, 53, 56
2, 249928, Note_on_c, 0, 55, 71
2, 249985, Control_c, 0, 64, 0
2, 250031, Note_off_c, 0, 55, 58
2, 250035, Note_on_c, 0, 45, 52
2, 250037, Note_on_c, 0, 33, 54
2, 250039, Note_on_c, 0, 64, 84
2, 250041, Note_on_c, 0, 57, 74
2, 250041, Note_on_c, 0, 62, 62
2, 250093, Control_c, 0, 64, 127
2, 250123, Note_off_c, 0, 65, 62
2, 250332, Note_off_c, 0, 33, 53
2, 250335, Note_on_c, 0, 35, 62
2, 250375, Control_c, 0, 64, 0
2, 250431, Note_off_c, 0, 35, 55
2, 250432, Note_off_c, 0, 45, 53
2, 250434, Note_off_c, 0, 62, 55
2, 250437, Note_off_c, 0, 57, 59
2, 250438, Note_on_c, 0, 69, 90
2, 250438, Note_on_c, 0, 36, 65
2, 250440, Note_on_c, 0, 60, 82
2, 250482, Control_c, 0, 64, 127
2, 250740, Note_off_c, 0, 36, 56
2, 250742, Note_on_c, 0, 38, 74
2, 250784, Control_c, 0, 64, 0
2, 250839, Note_off_c, 0, 38, 59
2, 250840, Note_off_c, 0, 60, 60
2, 250842, Note_on_c, 0, 40, 77
2, 250844, Note_on_c, 0, 59, 77
2, 250890, Control_c, 0, 64, 127
2, 251105, Note_off_c, 0, 64, 61
2, 251151, Note_off_c, 0, 40, 59
2, 251154, Note_on_c, 0, 42, 86
2, 251194, Control_c, 0, 64, 0
2, 251253, Note_off_c, 0, 42, 61
2, 251254, Note_off_c, 0, 59, 59
2, 251257, Note_on_c, 0, 64, 62
2, 251259, Note_on_c, 0, 43, 89
2, 251261, Note_on_c, 0, 67, 82
2, 251299, Control_c, 0, 64, 127
2, 251345, Note_off_c, 0, 69, 62
2, 251540, Note_off_c, 0, 64, 55
2, 251554, Note_off_c, 0, 43, 62
2, 251556, Note_on_c, 0, 40, 98
2, 251599, Control_c, 0, 64, 0
2, 251660, Note_off_c, 0, 40, 64
2, 251664, Note_on_c, 0, 64, 91
2, 251666, Note_on_c, 0, 60, 81
2, 251668, Note_on_c, 0, 66, 103
2, 251668, Note_on_c, 0, 57, 86
2, 251706, Control_c, 0, 64, 127
2, 251753, Note_off_c, 0, 67, 60
2, 251930, Note_off_c, 0, 57, 61
2, 251962, Note_on_c, 0, 45, 98
2, 252005, Note_off_c, 0, 60, 60
2, 252007, Control_c, 0, 64, 0
2, 252009, Note_off_c, 0, 64, 62
2, 252059, Note_off_c, 0, 45, 64
2, 252062, Note_off_c, 0, 66, 65
2, 252065, Note_on_c, 0, 63, 97
2, 252066, Note_on_c, 0, 57, 77
2, 252068, Note_on_c, 0, 47, 85
2, 252113, Control_c, 0, 64, 127
2, 252373, Note_on_c, 0, 35, 92
2, 252412, Control_c, 0, 64, 0
2, 252474, Note_off_c, 0, 35, 62
2, 252476, Note_off_c, 0, 47, 61
2, 252481, Note_on_c, 0, 55, 81
2, 252482, Note_on_c, 0, 40, 75
2, 252484, Note_on_c, 0, 64, 91
2, 252516, Control_c, 0, 64, 127
2, 252523, Note_off_c, 0, 57, 59
2, 252537, Note_off_c, 0, 63, 64
2, 252669, Note_off_c, 0, 40, 59
2, 252672, Note_off_c, 0, 55, 60
2, 252674, Note_off_c, 0, 64, 62
2, 252698, Control_c, 0, 64, 0
2, 252797, Note_on_c, 0, 48, 72
2, 252799, Note_on_c, 0, 60, 76
2, 252902, Note_off_c, 0, 48, 58
2, 252904, Note_off_c, 0, 60, 59
2, 252906, Note_on_c, 0, 64, 83
2, 252908, Note_on_c, 0, 52, 76
2, 252961, Note_off_c, 0, 52, 59
2, 252962, Note_off_c, 0, 64, 60
2, 252964, Note_on_c, 0, 62, 87
2, 252966, Note_on_c, 0, 50, 78
2, 253068, Note_off_c, 0, 50, 59
2, 253070, Note_off_c, 0, 62, 61
2, 253307, Note_on_c, 0, 48, 72
2, 253308, Note_on_c, 0, 60, 80
2, 253399, Note_on_c, 0, 41, 48
2, 253401, Note_on_c, 0, 57, 84
2, 253403, Note_on_c, 0, 65, 90
2, 253420, Note_off_c, 0, 48, 58
2, 253421, Note_off_c, 0, 60, 60
2, 253432, Control_c, 0, 64, 127
2, 253732, Note_off_c, 0, 41, 52
2, 253734, Note_on_c, 0, 43, 62
2, 253775, Control_c, 0, 64, 0
2, 253839, Note_off_c, 0, 43, 55
2, 253841, Note_on_c, 0, 45, 66
2, 253888, Control_c, 0, 64, 127
2, 254150, Note_off_c, 0, 45, 56
2, 254152, Note_on_c, 0, 46, 79
2, 254178, Control_c, 0, 64, 0
2, 254250, Note_off_c, 0, 46, 60
2, 254252, Note_off_c, 0, 57, 61
2, 254254, Note_on_c, 0, 48, 83
2, 254256, Note_on_c, 0, 64, 77
2, 254258, Note_on_c, 0, 55, 67
2, 254258, Note_on_c, 0, 62, 64
2, 254286, Control_c, 0, 64, 127
2, 254314, Note_off_c, 0, 65, 62
2, 254568, Note_off_c, 0, 48, 60
2, 254571, Note_on_c, 0, 50, 54
2, 254606, Control_c, 0, 64, 0
2, 254672, Note_off_c, 0, 50, 53
2, 254674, Note_off_c, 0, 62, 56
2, 254676, Note_on_c, 0, 60, 81
2, 254678, Note_on_c, 0, 52, 56
2, 254713, Control_c, 0, 64, 127
2, 254991, Note_off_c, 0, 52, 54
2, 254993, Note_on_c, 0, 53, 62
2, 255012, Note_off_c, 0, 55, 57
2, 255055, Note_off_c, 0, 60, 60
2, 255060, Control_c, 0, 64, 0
2, 255104, Note_off_c, 0, 53, 55
2, 255148, Note_on_c, 0, 60, 67
2, 255150, Note_on_c, 0, 55, 72
2, 255152, Note_on_c, 0, 62, 77
2, 255152, Note_on_c, 0, 43, 48
2, 255165, Note_off_c, 0, 64, 59
2, 255215, Control_c, 0, 64, 127
2, 255463, Note_off_c, 0, 43, 52
2, 255465, Note_on_c, 0, 45, 61
2, 255507, Control_c, 0, 64, 0
2, 255566, Note_off_c, 0, 45, 55
2, 255568, Note_off_c, 0, 55, 58
2, 255570, Note_on_c, 0, 46, 66
2, 255572, Note_on_c, 0, 58, 76
2, 255574, Note_off_c, 0, 60, 57
2, 255574, Note_on_c, 0, 67, 81
2, 255613, Control_c, 0, 64, 127
2, 255873, Note_off_c, 0, 46, 56
2, 255875, Note_on_c, 0, 48, 79
2, 255907, Control_c, 0, 64, 0
2, 255980, Note_off_c, 0, 48, 60
2, 255982, Note_off_c, 0, 58, 59
2, 255984, Note_on_c, 0, 50, 84
2, 255986, Note_on_c, 0, 57, 67
2, 256020, Control_c, 0, 64, 127
2, 256245, Note_off_c, 0, 62, 59
2, 256292, Note_off_c, 0, 50, 61
2, 256295, Note_on_c, 0, 52, 53
2, 256355, Control_c, 0, 64, 0
2, 256396, Note_off_c, 0, 52, 53
2, 256398, Note_off_c, 0, 57, 57
2, 256400, Note_on_c, 0, 62, 67
2, 256402, Note_on_c, 0, 53, 55
2, 256404, Note_on_c, 0, 65, 78
2, 256459, Control_c, 0, 64, 127
2, 256462, Note_off_c, 0, 67, 60
2, 256660, Note_off_c, 0, 62, 57
2, 256695, Note_off_c, 0, 53, 53
2, 256697, Note_on_c, 0, 55, 61
2, 256754, Control_c, 0, 64, 0
2, 256801, Note_off_c, 0, 55, 55
2, 256846, Note_on_c, 0, 45, 42
2, 256848, Note_on_c, 0, 33, 52
2, 256850, Note_on_c, 0, 64, 74
2, 256850, Note_on_c, 0, 62, 52
2, 256852, Note_on_c, 0, 57, 64
2, 256866, Note_off_c, 0, 65, 59
2, 256904, Control_c, 0, 64, 127
2, 257145, Note_off_c, 0, 33, 53
2, 257148, Note_on_c, 0, 35, 61
2, 257187, Control_c, 0, 64, 0
2, 257247, Note_off_c, 0, 35, 55
2, 257248, Note_off_c, 0, 45, 50
2, 257250, Note_off_c, 0, 62, 53
2, 257251, Note_off_c, 0, 57, 56
2, 257252, Note_on_c, 0, 69, 80
2, 257252, Note_on_c, 0, 60, 72
2, 257252, Note_on_c, 0, 36, 64
2, 257292, Control_c, 0, 64, 127
2, 257552, Note_off_c, 0, 36, 56
2, 257554, Note_on_c, 0, 38, 73
2, 257596, Control_c, 0, 64, 0
2, 257651, Note_off_c, 0, 38, 58
2, 257652, Note_off_c, 0, 60, 58
2, 257655, Note_on_c, 0, 40, 71
2, 257657, Note_on_c, 0, 59, 67
2, 257699, Control_c, 0, 64, 127
2, 257899, Note_off_c, 0, 64, 59
2, 257961, Note_off_c, 0, 40, 58
2, 257964, Note_on_c, 0, 42, 80
2, 258004, Control_c, 0, 64, 0
2, 258065, Note_off_c, 0, 42, 60
2, 258067, Note_off_c, 0, 59, 57
2, 258068, Note_on_c, 0, 64, 52
2, 258070, Note_on_c, 0, 43, 83
2, 258072, Note_on_c, 0, 67, 72
2, 258097, Note_off_c, 0, 69, 60
2, 258109, Control_c, 0, 64, 127
2, 258303, Note_off_c, 0, 64, 53
2, 258364, Note_off_c, 0, 43, 60
2, 258367, Note_on_c, 0, 40, 81
2, 258407, Control_c, 0, 64, 0
2, 258472, Note_off_c, 0, 40, 60
2, 258477, Note_on_c, 0, 60, 71
2, 258478, Note_on_c, 0, 57, 76
2, 258480, Note_on_c, 0, 66, 93
2, 258482, Note_on_c, 0, 64, 81
2, 258502, Note_off_c, 0, 67, 58
2, 258517, Control_c, 0, 64, 127
2, 258748, Note_off_c, 0, 57, 59
2, 258767, Note_off_c, 0, 64, 60
2, 258771, Note_on_c, 0, 45, 88
2, 258816, Note_off_c, 0, 60, 58
2, 258817, Control_c, 0, 64, 0
2, 258870, Note_off_c, 0, 45, 62
2, 258872, Note_on_c, 0, 47, 75
2, 258874, Note_on_c, 0, 63, 87
2, 258876, Note_on_c, 0, 57, 67
2, 258877, Note_off_c, 0, 66, 63
2, 258921, Control_c, 0, 64, 127
2, 259183, Note_on_c, 0, 35, 82
2, 259222, Control_c, 0, 64, 0
2, 259283, Note_off_c, 0, 35, 60
2, 259285, Note_off_c, 0, 47, 59
2, 259291, Note_on_c, 0, 64, 81
2, 259293, Note_on_c, 0, 55, 71
2, 259294, Note_on_c, 0, 40, 65
2, 259328, Control_c, 0, 64, 127
2, 259330, Note_off_c, 0, 63, 61
2, 259332, Note_off_c, 0, 57, 57
2, 259480, Note_off_c, 0, 40, 56
2, 259482, Note_off_c, 0, 55, 58
2, 259484, Note_off_c, 0, 64, 60
2, 259508, Control_c, 0, 64, 0
2, 259693, Note_on_c, 0, 59, 79
2, 259694, Note_on_c, 0, 71, 89
2, 259807, Note_off_c, 0, 59, 60
2, 259808, Note_off_c, 0, 71, 62
2, 259812, Note_on_c, 0, 74, 89
2, 259814, Note_on_c, 0, 62, 77
2, 259864, Note_off_c, 0, 62, 59
2, 259865, Note_off_c, 0, 74, 62
2, 259867, Note_on_c, 0, 72, 89
2, 259869, Note_on_c, 0, 60, 79
2, 259949, Note_off_c, 0, 60, 60
2, 259950, Note_off_c, 0, 72, 62
2, 260134, Note_on_c, 0, 59, 75
2, 260138, Note_on_c, 0, 71, 83
2, 260218, Note_off_c, 0, 59, 59
2, 260248, Note_off_c, 0, 71, 60
2, 260308, Note_on_c, 0, 52, 29
2, 260309, Note_on_c, 0, 59, 35
2, 260311, Note_on_c, 0, 75, 45
2, 260315, Control_c, 0, 64, 127
2, 260525, Note_off_c, 0, 59, 48
2, 260631, Note_on_c, 0, 64, 50
2, 260738, Note_off_c, 0, 64, 52
2, 260743, Note_on_c, 0, 67, 41
2, 260745, Note_on_c, 0, 76, 52
2, 260748, Note_off_c, 0, 52, 47
2, 260767, Note_off_c, 0, 75, 51
2, 261075, Note_off_c, 0, 67, 50
2, 261078, Note_on_c, 0, 71, 58
2, 261188, Note_off_c, 0, 71, 54
2, 261189, Note_on_c, 0, 51, 54
2, 261191, Note_on_c, 0, 59, 49
2, 261193, Note_on_c, 0, 77, 60
2, 261200, Control_c, 0, 64, 0
2, 261219, Note_off_c, 0, 76, 53
2, 261381, Control_c, 0, 64, 127
2, 261397, Note_off_c, 0, 59, 52
2, 261512, Note_on_c, 0, 66, 65
2, 261627, Note_off_c, 0, 66, 56
2, 261629, Note_off_c, 0, 51, 53
2, 261631, Note_on_c, 0, 69, 59
2, 261633, Note_on_c, 0, 78, 67
2, 261660, Note_off_c, 0, 77, 55
2, 261954, Note_off_c, 0, 69, 54
2, 261957, Note_on_c, 0, 71, 73
2, 262044, Note_on_c, 0, 52, 63
2, 262060, Note_off_c, 0, 71, 58
2, 262063, Note_on_c, 0, 81, 74
2, 262087, Control_c, 0, 64, 0
2, 262095, Note_off_c, 0, 78, 57
2, 262110, Note_on_c, 0, 59, 59
2, 262270, Control_c, 0, 64, 127
2, 262385, Note_off_c, 0, 59, 54
2, 262475, Note_on_c, 0, 67, 53
2, 262595, Note_off_c, 0, 52, 55
2, 262612, Note_off_c, 0, 67, 53
2, 262614, Note_on_c, 0, 79, 65
2, 262616, Note_on_c, 0, 71, 33
2, 262650, Note_off_c, 0, 81, 59
2, 262988, Note_on_c, 0, 76, 48
2, 263103, Note_off_c, 0, 76, 52
2, 263105, Note_on_c, 0, 57, 33
2, 263107, Note_on_c, 0, 60, 53
2, 263152, Control_c, 0, 64, 0
2, 263323, Note_off_c, 0, 60, 53
2, 263332, Control_c, 0, 64, 127
2, 263430, Note_on_c, 0, 66, 53
2, 263537, Note_off_c, 0, 66, 53
2, 263538, Note_off_c, 0, 57, 48
2, 263540, Note_off_c, 0, 71, 48
2, 263542, Note_on_c, 0, 78, 63
2, 263545, Note_on_c, 0, 69, 41
2, 263599, Note_off_c, 0, 79, 56
2, 263874, Note_on_c, 0, 72, 53
2, 263985, Note_off_c, 0, 72, 53
2, 263987, Note_on_c, 0, 59, 53
2, 263998, Control_c, 0, 64, 0
2, 264179, Control_c, 0, 64, 127
2, 264309, Note_on_c, 0, 64, 53
2, 264425, Note_off_c, 0, 64, 53
2, 264427, Note_off_c, 0, 59, 53
2, 264430, Note_on_c, 0, 76, 59
2, 264435, Note_off_c, 0, 69, 50
2, 264436, Note_on_c, 0, 67, 37
2, 264489, Note_off_c, 0, 78, 55
2, 264752, Note_on_c, 0, 71, 53
2, 264863, Note_off_c, 0, 71, 53
2, 264865, Note_on_c, 0, 47, 35
2, 264874, Control_c, 0, 64, 0
2, 264918, Note_on_c, 0, 57, 33
2, 265067, Control_c, 0, 64, 127
2, 265221, Note_on_c, 0, 63, 29
2, 265342, Note_off_c, 0, 63, 47
2, 265345, Note_off_c, 0, 47, 48
2, 265347, Note_on_c, 0, 75, 55
2, 265351, Note_off_c, 0, 67, 49
2, 265354, Note_on_c, 0, 66, 33
2, 265412, Note_off_c, 0, 76, 54
2, 265705, Note_on_c, 0, 71, 29
2, 265837, Note_off_c, 0, 71, 47
2, 265838, Note_off_c, 0, 57, 48
2, 265840, Note_on_c, 0, 52, 31
2, 265901, Note_on_c, 0, 55, 35
2, 265910, Control_c, 0, 64, 0
2, 266103, Control_c, 0, 64, 127
2, 266224, Note_on_c, 0, 64, 41
2, 266353, Note_off_c, 0, 64, 50
2, 266358, Note_on_c, 0, 76, 41
2, 266364, Note_off_c, 0, 66, 48
2, 266367, Note_on_c, 0, 67, 29
2, 266430, Note_off_c, 0, 75, 53
2, 266777, Note_on_c, 0, 71, 29
2, 266919, Note_off_c, 0, 71, 47
2, 267256, Note_off_c, 0, 67, 47
2, 267269, Note_off_c, 0, 55, 48
2, 267336, Control_c, 0, 64, 0
2, 267357, Note_off_c, 0, 76, 50
2, 267360, Note_on_c, 0, 67, 46
2, 267499, Note_on_c, 0, 50, 38
2, 267511, Note_off_c, 0, 52, 47
2, 267514, Note_on_c, 0, 55, 34
2, 267516, Note_on_c, 0, 71, 48
2, 267528, Control_c, 0, 64, 127
2, 267586, Note_off_c, 0, 67, 51
2, 267589, Note_on_c, 0, 69, 49
2, 267659, Note_off_c, 0, 71, 52
2, 267662, Note_on_c, 0, 59, 39
2, 267808, Note_off_c, 0, 59, 49
2, 267811, Note_on_c, 0, 65, 45
2, 267950, Note_on_c, 0, 67, 55
2, 268020, Note_off_c, 0, 69, 52
2, 268078, Note_on_c, 0, 72, 57
2, 268090, Note_off_c, 0, 65, 51
2, 268092, Note_on_c, 0, 48, 34
2, 268099, Control_c, 0, 64, 0
2, 268122, Note_off_c, 0, 50, 49
2, 268156, Note_off_c, 0, 67, 53
2, 268225, Note_on_c, 0, 60, 39
2, 268252, Control_c, 0, 64, 127
2, 268360, Note_off_c, 0, 60, 49
2, 268363, Note_on_c, 0, 64, 45
2, 268387, Note_off_c, 0, 55, 48
2, 268489, Note_on_c, 0, 67, 46
2, 268491, Note_off_c, 0, 72, 54
2, 268534, Note_off_c, 0, 48, 48
2, 268587, Note_on_c, 0, 50, 38
2, 268596, Note_on_c, 0, 55, 34
2, 268607, Note_off_c, 0, 64, 51
2, 268608, Note_on_c, 0, 71, 48
2, 268611, Control_c, 0, 64, 0
2, 268646, Note_off_c, 0, 67, 51
2, 268665, Note_on_c, 0, 69, 50
2, 268704, Note_off_c, 0, 71, 52
2, 268725, Note_on_c, 0, 59, 39
2, 268744, Control_c, 0, 64, 127
2, 268845, Note_off_c, 0, 59, 49
2, 268847, Note_on_c, 0, 65, 45
2, 268966, Note_on_c, 0, 67, 57
2, 269006, Note_off_c, 0, 69, 52
2, 269078, Note_on_c, 0, 72, 59
2, 269089, Note_off_c, 0, 65, 51
2, 269091, Note_on_c, 0, 48, 34
2, 269096, Control_c, 0, 64, 0
2, 269128, Note_off_c, 0, 50, 49
2, 269130, Note_off_c, 0, 67, 54
2, 269212, Note_on_c, 0, 60, 39
2, 269238, Control_c, 0, 64, 127
2, 269339, Note_off_c, 0, 60, 49
2, 269341, Note_on_c, 0, 64, 45
2, 269408, Note_off_c, 0, 72, 54
2, 269445, Note_off_c, 0, 55, 48
2, 269455, Note_on_c, 0, 72, 46
2, 269490, Note_off_c, 0, 48, 48
2, 269580, Note_on_c, 0, 73, 47
2, 269589, Note_off_c, 0, 64, 51
2, 269591, Note_on_c, 0, 55, 25
2, 269593, Note_on_c, 0, 57, 34
2, 269595, Control_c, 0, 64, 0
2, 269634, Note_off_c, 0, 72, 51
2, 269717, Note_on_c, 0, 61, 35
2, 269738, Control_c, 0, 64, 127
2, 269844, Note_off_c, 0, 61, 48
2, 269847, Note_on_c, 0, 64, 36
2, 269883, Note_off_c, 0, 73, 51
2, 269963, Note_on_c, 0, 73, 51
2, 270092, Note_on_c, 0, 74, 53
2, 270096, Control_c, 0, 64, 0
2, 270104, Note_off_c, 0, 64, 49
2, 270105, Note_on_c, 0, 53, 39
2, 270141, Note_off_c, 0, 73, 52
2, 270145, Note_off_c, 0, 55, 46
2, 270237, Note_on_c, 0, 62, 40
2, 270246, Control_c, 0, 64, 127
2, 270370, Note_off_c, 0, 62, 50
2, 270372, Note_on_c, 0, 65, 42
2, 270402, Note_off_c, 0, 74, 53
2, 270475, Note_off_c, 0, 57, 48
2, 270494, Note_on_c, 0, 74, 57
2, 270631, Note_on_c, 0, 76, 59
2, 270643, Note_off_c, 0, 65, 50
2, 270646, Note_on_c, 0, 57, 39
2, 270648, Note_on_c, 0, 52, 50
2, 270655, Control_c, 0, 64, 0
2, 270672, Note_off_c, 0, 74, 54
2, 270685, Note_off_c, 0, 53, 49
2, 270783, Note_on_c, 0, 61, 46
2, 270815, Control_c, 0, 64, 127
2, 270923, Note_off_c, 0, 61, 51
2, 270925, Note_on_c, 0, 67, 47
2, 270957, Note_off_c, 0, 76, 54
2, 271056, Note_on_c, 0, 76, 63
2, 271198, Note_on_c, 0, 77, 64
2, 271213, Note_off_c, 0, 67, 51
2, 271215, Note_on_c, 0, 50, 34
2, 271222, Control_c, 0, 64, 0
2, 271255, Note_off_c, 0, 76, 55
2, 271258, Note_off_c, 0, 52, 52
2, 271359, Note_on_c, 0, 62, 39
2, 271390, Control_c, 0, 64, 127
2, 271509, Note_off_c, 0, 62, 49
2, 271512, Note_on_c, 0, 65, 45
2, 271554, Note_off_c, 0, 77, 56
2, 271598, Note_off_c, 0, 57, 49
2, 271648, Note_on_c, 0, 69, 50
2, 271669, Note_off_c, 0, 50, 48
2, 271802, Note_off_c, 0, 65, 51
2, 271804, Note_on_c, 0, 55, 34
2, 271806, Note_on_c, 0, 72, 53
2, 271807, Note_on_c, 0, 57, 41
2, 271810, Control_c, 0, 64, 0
2, 271823, Note_off_c, 0, 69, 52
2, 271903, Note_off_c, 0, 72, 53
2, 271918, Note_on_c, 0, 70, 55
2, 271957, Note_on_c, 0, 61, 39
2, 271983, Control_c, 0, 64, 127
2, 272118, Note_off_c, 0, 61, 49
2, 272121, Note_on_c, 0, 67, 45
2, 272281, Note_on_c, 0, 69, 64
2, 272372, Note_off_c, 0, 70, 53
2, 272443, Note_on_c, 0, 74, 70
2, 272448, Note_off_c, 0, 67, 51
2, 272450, Note_on_c, 0, 53, 40
2, 272453, Control_c, 0, 64, 0
2, 272495, Note_off_c, 0, 69, 56
2, 272511, Note_off_c, 0, 55, 48
2, 272612, Note_on_c, 0, 62, 39
2, 272642, Control_c, 0, 64, 127
2, 272783, Note_off_c, 0, 62, 49
2, 272784, Note_on_c, 0, 65, 45
2, 272910, Note_off_c, 0, 57, 50
2, 272950, Note_on_c, 0, 69, 67
2, 273005, Note_off_c, 0, 53, 50
2, 273044, Note_off_c, 0, 74, 57
2, 273079, Note_on_c, 0, 57, 35
2, 273082, Note_on_c, 0, 55, 40
2, 273107, Note_off_c, 0, 65, 51
2, 273109, Note_on_c, 0, 72, 64
2, 273114, Control_c, 0, 64, 0
2, 273148, Note_off_c, 0, 69, 57
2, 273216, Note_on_c, 0, 70, 63
2, 273226, Note_off_c, 0, 72, 56
2, 273264, Note_on_c, 0, 61, 50
2, 273294, Control_c, 0, 64, 127
2, 273425, Note_off_c, 0, 61, 52
2, 273427, Note_on_c, 0, 67, 49
2, 273587, Note_on_c, 0, 69, 56
2, 273661, Note_off_c, 0, 70, 55
2, 273751, Note_off_c, 0, 67, 52
2, 273754, Note_on_c, 0, 53, 47
2, 273757, Note_on_c, 0, 74, 57
2, 273760, Control_c, 0, 64, 0
2, 273786, Note_off_c, 0, 69, 54
2, 273800, Note_off_c, 0, 55, 50
2, 273877, Note_on_c, 0, 62, 46
2, 273901, Control_c, 0, 64, 127
2, 274005, Note_off_c, 0, 62, 51
2, 274007, Note_on_c, 0, 65, 45
2, 274071, Note_off_c, 0, 57, 48
2, 274079, Note_off_c, 0, 74, 54
2, 274137, Note_on_c, 0, 74, 54
2, 274270, Note_off_c, 0, 65, 51
2, 274272, Note_on_c, 0, 52, 36
2, 274275, Note_on_c, 0, 76, 56
2, 274276, Note_on_c, 0, 57, 43
2, 274278, Control_c, 0, 64, 0
2, 274298, Note_off_c, 0, 74, 53
2, 274343, Note_off_c, 0, 53, 51
2, 274403, Note_on_c, 0, 61, 42
2, 274431, Control_c, 0, 64, 127
2, 274542, Note_off_c, 0, 61, 50
2, 274544, Note_on_c, 0, 67, 40
2, 274611, Note_off_c, 0, 76, 54
2, 274675, Note_on_c, 0, 76, 59
2, 274811, Note_off_c, 0, 67, 50
2, 274812, Note_on_c, 0, 50, 38
2, 274814, Note_on_c, 0, 77, 61
2, 274817, Control_c, 0, 64, 0
2, 274864, Note_off_c, 0, 76, 54
2, 274888, Note_off_c, 0, 52, 49
2, 274953, Note_on_c, 0, 62, 43
2, 274978, Control_c, 0, 64, 127
2, 275091, Note_off_c, 0, 62, 50
2, 275094, Note_on_c, 0, 65, 42
2, 275153, Note_off_c, 0, 77, 55
2, 275189, Note_off_c, 0, 57, 50
2, 275232, Note_on_c, 0, 77, 64
2, 275374, Note_off_c, 0, 65, 50
2, 275377, Note_on_c, 0, 48, 34
2, 275379, Note_on_c, 0, 57, 46
2, 275381, Note_on_c, 0, 78, 66
2, 275383, Control_c, 0, 64, 0
2, 275427, Note_off_c, 0, 77, 56
2, 275451, Note_off_c, 0, 50, 49
2, 275519, Note_on_c, 0, 62, 39
2, 275540, Control_c, 0, 64, 127
2, 275662, Note_off_c, 0, 62, 49
2, 275666, Note_on_c, 0, 66, 38
2, 275747, Note_off_c, 0, 78, 56
2, 275809, Note_on_c, 0, 78, 69
2, 275848, Note_off_c, 0, 57, 51
2, 275958, Note_off_c, 0, 66, 49
2, 275962, Note_on_c, 0, 47, 46
2, 275964, Note_on_c, 0, 79, 70
2, 275965, Note_on_c, 0, 55, 50
2, 275968, Control_c, 0, 64, 0
2, 276025, Note_off_c, 0, 78, 57
2, 276042, Note_off_c, 0, 48, 48
2, 276106, Note_on_c, 0, 62, 39
2, 276174, Control_c, 0, 64, 127
2, 276258, Note_off_c, 0, 62, 49
2, 276261, Note_off_c, 0, 79, 57
2, 276265, Note_on_c, 0, 65, 45
2, 276401, Note_on_c, 0, 67, 46
2, 276404, Note_off_c, 0, 47, 51
2, 276415, Note_off_c, 0, 55, 52
2, 276500, Note_on_c, 0, 50, 38
2, 276509, Note_on_c, 0, 55, 34
2, 276521, Note_off_c, 0, 65, 51
2, 276523, Note_on_c, 0, 71, 50
2, 276530, Control_c, 0, 64, 0
2, 276550, Note_off_c, 0, 67, 51
2, 276579, Note_on_c, 0, 69, 52
2, 276611, Note_off_c, 0, 71, 52
2, 276639, Note_on_c, 0, 59, 44
2, 276652, Control_c, 0, 64, 127
2, 276764, Note_off_c, 0, 59, 51
2, 276766, Note_on_c, 0, 65, 43
2, 276885, Note_on_c, 0, 67, 62
2, 276920, Note_off_c, 0, 69, 53
2, 277014, Note_off_c, 0, 65, 50
2, 277017, Note_on_c, 0, 48, 41
2, 277019, Note_on_c, 0, 72, 66
2, 277021, Control_c, 0, 64, 0
2, 277033, Note_off_c, 0, 50, 49
2, 277045, Note_off_c, 0, 67, 55
2, 277143, Note_on_c, 0, 60, 40
2, 277174, Control_c, 0, 64, 127
2, 277277, Note_off_c, 0, 60, 50
2, 277279, Note_on_c, 0, 64, 38
2, 277326, Note_off_c, 0, 72, 56
2, 277330, Note_off_c, 0, 55, 48
2, 277401, Note_on_c, 0, 72, 68
2, 277465, Note_off_c, 0, 48, 50
2, 277520, Note_off_c, 0, 64, 49
2, 277522, Note_on_c, 0, 40, 34
2, 277524, Note_on_c, 0, 67, 46
2, 277526, Note_on_c, 0, 48, 28
2, 277529, Control_c, 0, 64, 0
2, 277562, Note_off_c, 0, 72, 57
2, 277639, Note_on_c, 0, 55, 35
2, 277671, Control_c, 0, 64, 127
2, 277721, Note_off_c, 0, 40, 48
2, 277761, Note_off_c, 0, 55, 48
2, 277762, Note_on_c, 0, 60, 34
2, 277775, Note_off_c, 0, 67, 51
2, 277884, Note_on_c, 0, 67, 54
2, 278010, Note_off_c, 0, 60, 48
2, 278012, Note_on_c, 0, 41, 38
2, 278013, Note_on_c, 0, 69, 57
2, 278020, Control_c, 0, 64, 0
2, 278064, Note_off_c, 0, 67, 53
2, 278135, Note_on_c, 0, 57, 35
2, 278170, Control_c, 0, 64, 127
2, 278224, Note_off_c, 0, 41, 49
2, 278263, Note_off_c, 0, 57, 48
2, 278266, Note_on_c, 0, 60, 35
2, 278280, Note_off_c, 0, 69, 54
2, 278394, Note_on_c, 0, 69, 67
2, 278528, Note_off_c, 0, 60, 48
2, 278530, Note_off_c, 0, 48, 47
2, 278533, Note_on_c, 0, 65, 64
2, 278535, Note_on_c, 0, 38, 43
2, 278540, Control_c, 0, 64, 0
2, 278569, Note_off_c, 0, 69, 57
2, 278664, Note_on_c, 0, 53, 35
2, 278703, Control_c, 0, 64, 127
2, 278760, Note_off_c, 0, 38, 50
2, 278805, Note_off_c, 0, 53, 48
2, 278806, Note_on_c, 0, 60, 35
2, 278873, Note_off_c, 0, 65, 56
2, 278952, Note_on_c, 0, 65, 56
2, 279104, Note_off_c, 0, 60, 48
2, 279108, Note_on_c, 0, 43, 46
2, 279110, Note_on_c, 0, 48, 50
2, 279113, Note_on_c, 0, 62, 72
2, 279113, Control_c, 0, 64, 0
2, 279171, Note_off_c, 0, 65, 54
2, 279259, Note_on_c, 0, 53, 68
2, 279291, Control_c, 0, 64, 127
2, 279368, Note_off_c, 0, 43, 51
2, 279421, Note_off_c, 0, 53, 57
2, 279424, Note_on_c, 0, 60, 65
2, 279500, Note_off_c, 0, 62, 58
2, 279589, Note_on_c, 0, 62, 61
2, 279763, Note_off_c, 0, 60, 56
2, 279768, Note_off_c, 0, 48, 52
2, 279770, Note_on_c, 0, 43, 52
2, 279772, Note_on_c, 0, 47, 45
2, 279773, Note_on_c, 0, 67, 58
2, 279774, Control_c, 0, 64, 0
2, 279805, Note_off_c, 0, 62, 55
2, 279944, Note_on_c, 0, 53, 54
2, 279983, Control_c, 0, 64, 127
2, 280073, Note_off_c, 0, 43, 53
2, 280132, Note_off_c, 0, 53, 53
2, 280135, Note_on_c, 0, 59, 51
2, 280220, Note_off_c, 0, 67, 54
2, 280331, Note_on_c, 0, 67, 47
2, 280535, Note_off_c, 0, 59, 52
2, 280537, Note_off_c, 0, 47, 51
2, 280541, Note_on_c, 0, 36, 36
2, 280543, Note_on_c, 0, 43, 32
2, 280545, Note_on_c, 0, 64, 43
2, 280545, Control_c, 0, 64, 0
2, 280613, Note_off_c, 0, 67, 51
2, 280748, Note_off_c, 0, 43, 48
2, 280751, Note_on_c, 0, 52, 39
2, 280791, Control_c, 0, 64, 127
2, 280897, Note_off_c, 0, 36, 49
2, 280966, Note_off_c, 0, 52, 49
2, 280967, Note_off_c, 0, 64, 50
2, 280971, Note_on_c, 0, 60, 36
2, 281109, Note_on_c, 0, 67, 35
2, 281237, Note_off_c, 0, 60, 49
2, 281241, Note_on_c, 0, 50, 29
2, 281243, Note_on_c, 0, 55, 32
2, 281244, Note_on_c, 0, 71, 40
2, 281247, Control_c, 0, 64, 0
2, 281278, Note_off_c, 0, 67, 48
2, 281340, Note_off_c, 0, 71, 50
2, 281359, Note_on_c, 0, 69, 43
2, 281361, Note_on_c, 0, 59, 46
2, 281392, Control_c, 0, 64, 127
2, 281483, Note_off_c, 0, 59, 51
2, 281485, Note_on_c, 0, 65, 51
2, 281600, Note_on_c, 0, 67, 56
2, 281700, Note_off_c, 0, 69, 50
2, 281719, Note_off_c, 0, 65, 52
2, 281723, Note_on_c, 0, 48, 50
2, 281725, Note_on_c, 0, 72, 62
2, 281727, Control_c, 0, 64, 0
2, 281760, Note_off_c, 0, 67, 54
2, 281841, Note_on_c, 0, 60, 67
2, 281871, Control_c, 0, 64, 127
2, 281875, Note_off_c, 0, 48, 52
2, 281963, Note_off_c, 0, 60, 57
2, 281964, Note_on_c, 0, 64, 72
2, 282011, Note_off_c, 0, 72, 55
2, 282086, Note_on_c, 0, 72, 72
2, 282211, Note_off_c, 0, 64, 58
2, 282215, Note_off_c, 0, 50, 47
2, 282217, Note_off_c, 0, 55, 48
2, 282218, Note_on_c, 0, 40, 32
2, 282220, Control_c, 0, 64, 0
2, 282222, Note_on_c, 0, 67, 70
2, 282224, Note_on_c, 0, 48, 40
2, 282238, Note_off_c, 0, 72, 58
2, 282336, Note_on_c, 0, 55, 35
2, 282367, Control_c, 0, 64, 127
2, 282425, Note_off_c, 0, 40, 48
2, 282464, Note_off_c, 0, 55, 48
2, 282468, Note_on_c, 0, 60, 43
2, 282487, Note_off_c, 0, 67, 57
2, 282596, Note_on_c, 0, 67, 66
2, 282727, Note_off_c, 0, 60, 50
2, 282730, Note_on_c, 0, 41, 34
2, 282732, Note_on_c, 0, 69, 64
2, 282737, Control_c, 0, 64, 0
2, 282774, Note_off_c, 0, 67, 56
2, 282860, Note_on_c, 0, 57, 35
2, 282893, Control_c, 0, 64, 127
2, 282952, Note_off_c, 0, 41, 48
2, 282993, Note_off_c, 0, 57, 48
2, 282996, Note_on_c, 0, 60, 40
2, 283076, Note_off_c, 0, 69, 56
2, 283132, Note_on_c, 0, 69, 67
2, 283271, Note_off_c, 0, 60, 50
2, 283275, Note_off_c, 0, 48, 50
2, 283277, Note_on_c, 0, 38, 52
2, 283278, Note_on_c, 0, 65, 58
2, 283280, Control_c, 0, 64, 0
2, 283290, Note_off_c, 0, 69, 57
2, 283412, Note_on_c, 0, 53, 55
2, 283446, Control_c, 0, 64, 127
2, 283514, Note_off_c, 0, 38, 53
2, 283559, Note_off_c, 0, 53, 53
2, 283562, Note_on_c, 0, 60, 61
2, 283590, Note_off_c, 0, 65, 54
2, 283713, Note_on_c, 0, 65, 58
2, 283867, Note_off_c, 0, 60, 55
2, 283872, Note_on_c, 0, 43, 38
2, 283874, Note_on_c, 0, 48, 42
2, 283875, Note_on_c, 0, 62, 46
2, 283875, Control_c, 0, 64, 0
2, 283940, Note_off_c, 0, 65, 54
2, 284028, Note_on_c, 0, 53, 51
2, 284063, Control_c, 0, 64, 127
2, 284145, Note_off_c, 0, 43, 49
2, 284194, Note_off_c, 0, 53, 52
2, 284197, Note_on_c, 0, 60, 47
2, 284269, Note_off_c, 0, 62, 51
2, 284369, Note_on_c, 0, 62, 43
2, 284490, Note_off_c, 0, 48, 50
2, 284546, Note_off_c, 0, 60, 51
2, 284551, Note_on_c, 0, 43, 29
2, 284552, Note_on_c, 0, 47, 22
2, 284554, Note_on_c, 0, 67, 40
2, 284554, Control_c, 0, 64, 0
2, 284586, Note_off_c, 0, 62, 50
2, 284730, Note_on_c, 0, 53, 36
2, 284774, Control_c, 0, 64, 127
2, 284863, Note_off_c, 0, 43, 47
2, 284921, Note_off_c, 0, 53, 49
2, 284924, Note_on_c, 0, 59, 32
2, 284998, Note_off_c, 0, 67, 50
2, 285121, Note_on_c, 0, 67, 36
2, 285261, Note_off_c, 0, 47, 45
2, 285328, Note_off_c, 0, 59, 48
2, 285332, Note_on_c, 0, 60, 22
2, 285334, Note_on_c, 0, 36, 24
2, 285341, Control_c, 0, 64, 0
2, 285383, Note_on_c, 0, 43, 23
2, 285458, Note_on_c, 0, 52, 22
2, 285597, Control_c, 0, 64, 127
2, 285611, Note_off_c, 0, 36, 46
2, 285638, Note_off_c, 0, 43, 45
2, 285723, Note_off_c, 0, 60, 45
2, 285725, Note_off_c, 0, 67, 49
2, 285731, Note_off_c, 0, 52, 45
2, 285963, Note_on_c, 0, 71, 51
2, 286089, Note_on_c, 0, 52, 41
2, 286091, Note_on_c, 0, 59, 33
2, 286093, Note_on_c, 0, 74, 53
2, 286099, Control_c, 0, 64, 0
2, 286108, Note_off_c, 0, 71, 52
2, 286182, Note_on_c, 0, 72, 54
2, 286215, Note_on_c, 0, 64, 35
2, 286222, Note_off_c, 0, 74, 53
2, 286246, Control_c, 0, 64, 127
2, 286337, Note_off_c, 0, 64, 48
2, 286340, Note_on_c, 0, 67, 38
2, 286461, Note_on_c, 0, 71, 59
2, 286507, Note_off_c, 0, 72, 53
2, 286581, Note_off_c, 0, 67, 49
2, 286583, Note_off_c, 0, 52, 50
2, 286585, Note_on_c, 0, 78, 61
2, 286587, Note_on_c, 0, 51, 38
2, 286592, Control_c, 0, 64, 0
2, 286635, Note_off_c, 0, 71, 54
2, 286702, Note_on_c, 0, 66, 35
2, 286733, Control_c, 0, 64, 127
2, 286818, Note_off_c, 0, 66, 48
2, 286821, Note_on_c, 0, 69, 35
2, 286901, Note_off_c, 0, 78, 55
2, 286941, Note_on_c, 0, 71, 38
2, 286970, Note_off_c, 0, 59, 48
2, 287081, Note_off_c, 0, 69, 48
2, 287084, Note_off_c, 0, 51, 49
2, 287086, Note_on_c, 0, 52, 28
2, 287088, Note_on_c, 0, 59, 34
2, 287090, Note_on_c, 0, 74, 42
2, 287092, Control_c, 0, 64, 0
2, 287116, Note_off_c, 0, 71, 49
2, 287140, Note_on_c, 0, 72, 45
2, 287175, Note_off_c, 0, 74, 50
2, 287228, Control_c, 0, 64, 127
2, 287323, Note_on_c, 0, 67, 35
2, 287446, Note_on_c, 0, 71, 57
2, 287486, Note_off_c, 0, 72, 51
2, 287577, Note_off_c, 0, 67, 48
2, 287580, Note_off_c, 0, 59, 48
2, 287582, Note_off_c, 0, 52, 47
2, 287584, Note_on_c, 0, 50, 48
2, 287586, Note_on_c, 0, 55, 41
2, 287586, Control_c, 0, 64, 0
2, 287587, Note_on_c, 0, 76, 61
2, 287619, Note_off_c, 0, 71, 54
2, 287711, Note_on_c, 0, 59, 33
2, 287743, Control_c, 0, 64, 127
2, 287849, Note_off_c, 0, 59, 48
2, 287851, Note_on_c, 0, 64, 39
2, 287917, Note_off_c, 0, 76, 55
2, 287992, Note_on_c, 0, 67, 62
2, 288104, Note_off_c, 0, 55, 50
2, 288139, Note_off_c, 0, 64, 49
2, 288141, Note_off_c, 0, 50, 52
2, 288144, Note_on_c, 0, 49, 28
2, 288146, Note_on_c, 0, 55, 37
2, 288148, Note_on_c, 0, 71, 57
2, 288150, Control_c, 0, 64, 0
2, 288191, Note_off_c, 0, 67, 55
2, 288293, Note_on_c, 0, 57, 35
2, 288296, Note_on_c, 0, 69, 55
2, 288315, Note_off_c, 0, 71, 54
2, 288331, Control_c, 0, 64, 127
2, 288452, Note_off_c, 0, 57, 48
2, 288454, Note_on_c, 0, 64, 40
2, 288616, Note_on_c, 0, 67, 46
2, 288754, Note_off_c, 0, 69, 53
2, 288787, Note_off_c, 0, 64, 50
2, 288791, Note_off_c, 0, 49, 47
2, 288793, Note_on_c, 0, 50, 43
2, 288795, Note_on_c, 0, 71, 58
2, 288796, Control_c, 0, 64, 0
2, 288846, Note_off_c, 0, 67, 51
2, 288967, Note_on_c, 0, 60, 35
2, 289009, Control_c, 0, 64, 127
2, 289152, Note_off_c, 0, 60, 48
2, 289154, Note_on_c, 0, 62, 38
2, 289201, Note_off_c, 0, 71, 54
2, 289346, Note_off_c, 0, 55, 49
2, 289348, Note_on_c, 0, 71, 51
2, 289408, Note_off_c, 0, 50, 50
2, 289547, Note_off_c, 0, 62, 49
2, 289550, Note_on_c, 0, 50, 28
2, 289553, Note_on_c, 0, 69, 49
2, 289555, Note_on_c, 0, 54, 29
2, 289557, Control_c, 0, 64, 0
2, 289595, Note_off_c, 0, 71, 52
2, 289760, Note_on_c, 0, 60, 35
2, 289807, Control_c, 0, 64, 127
2, 289982, Note_off_c, 0, 60, 48
2, 289984, Note_on_c, 0, 62, 40
2, 290045, Note_off_c, 0, 69, 52
2, 290214, Note_on_c, 0, 69, 42
2, 290373, Note_off_c, 0, 50, 47
2, 290458, Note_off_c, 0, 62, 50
2, 290462, Note_off_c, 0, 54, 47
2, 290464, Note_on_c, 0, 50, 28
2, 290466, Note_on_c, 0, 43, 24
2, 290468, Control_c, 0, 64, 0
2, 290470, Note_on_c, 0, 67, 38
2, 290572, Note_off_c, 0, 69, 50
2, 290717, Note_off_c, 0, 50, 47
2, 290720, Note_on_c, 0, 59, 28
2, 290770, Control_c, 0, 64, 127
2, 290989, Note_off_c, 0, 59, 47
2, 290991, Note_off_c, 0, 67, 49
2, 290993, Note_on_c, 0, 62, 28
2, 291255, Note_on_c, 0, 71, 56
2, 291443, Note_off_c, 0, 62, 47
2, 291444, Note_off_c, 0, 43, 46
2, 291447, Note_on_c, 0, 74, 59
2, 291448, Note_on_c, 0, 52, 28
2, 291450, Note_on_c, 0, 59, 38
2, 291452, Control_c, 0, 64, 0
2, 291464, Note_off_c, 0, 71, 54
2, 291501, Note_on_c, 0, 72, 60
2, 291523, Note_off_c, 0, 74, 54
2, 291559, Note_on_c, 0, 64, 28
2, 291587, Control_c, 0, 64, 127
2, 291679, Note_off_c, 0, 64, 47
2, 291681, Note_on_c, 0, 67, 28
2, 291800, Note_on_c, 0, 71, 68
2, 291823, Note_off_c, 0, 72, 55
2, 291925, Note_off_c, 0, 67, 47
2, 291926, Note_off_c, 0, 52, 47
2, 291929, Note_on_c, 0, 78, 70
2, 291931, Note_on_c, 0, 51, 48
2, 291936, Control_c, 0, 64, 0
2, 291974, Note_off_c, 0, 71, 57
2, 292049, Note_on_c, 0, 66, 28
2, 292085, Control_c, 0, 64, 127
2, 292178, Note_off_c, 0, 66, 47
2, 292180, Note_on_c, 0, 69, 33
2, 292223, Note_off_c, 0, 78, 57
2, 292308, Note_on_c, 0, 71, 59
2, 292312, Note_off_c, 0, 59, 49
2, 292439, Note_off_c, 0, 69, 48
2, 292441, Note_off_c, 0, 51, 52
2, 292443, Note_on_c, 0, 74, 56
2, 292446, Note_on_c, 0, 52, 28
2, 292447, Note_on_c, 0, 59, 34
2, 292449, Control_c, 0, 64, 0
2, 292465, Note_off_c, 0, 71, 54
2, 292506, Note_on_c, 0, 72, 54
2, 292529, Note_off_c, 0, 74, 54
2, 292573, Note_on_c, 0, 64, 34
2, 292610, Control_c, 0, 64, 127
2, 292710, Note_off_c, 0, 64, 48
2, 292713, Note_on_c, 0, 67, 40
2, 292852, Note_on_c, 0, 71, 46
2, 292878, Note_off_c, 0, 72, 53
2, 292998, Note_off_c, 0, 67, 50
2, 292999, Note_off_c, 0, 59, 48
2, 293002, Note_off_c, 0, 52, 47
2, 293004, Note_on_c, 0, 50, 28
2, 293006, Note_on_c, 0, 55, 48
2, 293008, Note_on_c, 0, 76, 70
2, 293008, Control_c, 0, 64, 0
2, 293066, Note_off_c, 0, 71, 51
2, 293147, Note_on_c, 0, 59, 28
2, 293178, Control_c, 0, 64, 127
2, 293302, Note_off_c, 0, 59, 47
2, 293303, Note_on_c, 0, 64, 28
2, 293318, Note_off_c, 0, 76, 57
2, 293459, Note_on_c, 0, 67, 49
2, 293552, Note_off_c, 0, 55, 52
2, 293623, Note_off_c, 0, 64, 47
2, 293625, Note_off_c, 0, 50, 47
2, 293627, Note_on_c, 0, 49, 28
2, 293629, Note_on_c, 0, 55, 34
2, 293631, Note_on_c, 0, 71, 56
2, 293633, Control_c, 0, 64, 0
2, 293653, Note_off_c, 0, 67, 52
2, 293747, Note_on_c, 0, 69, 54
2, 293791, Note_on_c, 0, 57, 34
2, 293798, Note_off_c, 0, 71, 54
2, 293832, Control_c, 0, 64, 127
2, 293966, Note_off_c, 0, 57, 48
2, 293969, Note_on_c, 0, 64, 38
2, 294140, Note_off_c, 0, 69, 53
2, 294145, Note_on_c, 0, 67, 50
2, 294317, Note_on_c, 0, 50, 40
2, 294335, Note_off_c, 0, 64, 49
2, 294336, Note_off_c, 0, 49, 47
2, 294338, Note_on_c, 0, 71, 70
2, 294341, Control_c, 0, 64, 0
2, 294367, Note_off_c, 0, 67, 52
2, 294525, Note_on_c, 0, 60, 34
2, 294572, Control_c, 0, 64, 127
2, 294727, Note_off_c, 0, 60, 48
2, 294729, Note_on_c, 0, 62, 38
2, 294832, Note_off_c, 0, 71, 57
2, 294935, Note_on_c, 0, 71, 71
2, 295015, Note_off_c, 0, 50, 50
2, 295151, Note_off_c, 0, 62, 49
2, 295152, Note_off_c, 0, 55, 48
2, 295154, Note_on_c, 0, 69, 58
2, 295156, Note_on_c, 0, 54, 34
2, 295158, Note_on_c, 0, 50, 34
2, 295160, Control_c, 0, 64, 0
2, 295199, Note_off_c, 0, 71, 58
2, 295373, Note_off_c, 0, 54, 48
2, 295376, Note_on_c, 0, 60, 28
2, 295429, Control_c, 0, 64, 127
2, 295609, Note_off_c, 0, 60, 47
2, 295612, Note_on_c, 0, 62, 28
2, 295777, Note_off_c, 0, 69, 54
2, 295852, Note_on_c, 0, 69, 49
2, 295897, Note_off_c, 0, 50, 48
2, 296106, Note_off_c, 0, 62, 47
2, 296109, Note_on_c, 0, 67, 46
2, 296111, Note_on_c, 0, 50, 34
2, 296113, Note_on_c, 0, 43, 29
2, 296115, Control_c, 0, 64, 0
2, 296203, Note_off_c, 0, 69, 52
2, 296371, Note_off_c, 0, 50, 48
2, 296374, Note_on_c, 0, 59, 28
2, 296430, Control_c, 0, 64, 127
2, 296651, Note_off_c, 0, 59, 47
2, 296654, Note_off_c, 0, 67, 51
2, 296657, Note_on_c, 0, 62, 28
2, 296904, Note_on_c, 0, 67, 50
2, 297025, Note_off_c, 0, 62, 47
2, 297027, Note_off_c, 0, 43, 47
2, 297029, Note_on_c, 0, 55, 28
2, 297031, Note_on_c, 0, 50, 28
2, 297033, Note_on_c, 0, 71, 54
2, 297035, Control_c, 0, 64, 0
2, 297063, Note_off_c, 0, 67, 52
2, 297083, Note_on_c, 0, 69, 57
2, 297125, Note_off_c, 0, 71, 53
2, 297146, Note_on_c, 0, 59, 28
2, 297176, Control_c, 0, 64, 127
2, 297270, Note_off_c, 0, 59, 47
2, 297272, Note_on_c, 0, 65, 28
2, 297398, Note_on_c, 0, 67, 69
2, 297440, Note_off_c, 0, 69, 54
2, 297528, Note_off_c, 0, 65, 47
2, 297530, Note_off_c, 0, 50, 47
2, 297532, Note_on_c, 0, 48, 28
2, 297534, Note_on_c, 0, 72, 73
2, 297542, Control_c, 0, 64, 0
2, 297573, Note_off_c, 0, 67, 57
2, 297663, Note_on_c, 0, 60, 28
2, 297704, Control_c, 0, 64, 127
2, 297802, Note_off_c, 0, 60, 47
2, 297803, Note_on_c, 0, 64, 28
2, 297904, Note_off_c, 0, 72, 58
2, 297927, Note_off_c, 0, 55, 47
2, 297941, Note_on_c, 0, 67, 50
2, 298058, Note_off_c, 0, 64, 47
2, 298061, Note_on_c, 0, 71, 54
2, 298063, Note_off_c, 0, 48, 47
2, 298065, Note_on_c, 0, 50, 33
2, 298067, Control_c, 0, 64, 0
2, 298069, Note_on_c, 0, 55, 28
2, 298098, Note_off_c, 0, 67, 52
2, 298119, Note_on_c, 0, 69, 57
2, 298159, Note_off_c, 0, 71, 53
2, 298180, Note_on_c, 0, 59, 28
2, 298206, Control_c, 0, 64, 127
2, 298304, Note_off_c, 0, 59, 47
2, 298306, Note_on_c, 0, 65, 28
2, 298430, Note_on_c, 0, 67, 69
2, 298474, Note_off_c, 0, 69, 54
2, 298560, Note_off_c, 0, 65, 47
2, 298563, Note_on_c, 0, 72, 73
2, 298566, Note_off_c, 0, 50, 48
2, 298567, Note_on_c, 0, 48, 28
2, 298569, Control_c, 0, 64, 0
2, 298605, Note_off_c, 0, 67, 57
2, 298696, Note_on_c, 0, 60, 34
2, 298725, Control_c, 0, 64, 127
2, 298833, Note_off_c, 0, 60, 48
2, 298835, Note_on_c, 0, 64, 28
2, 298872, Note_off_c, 0, 72, 58
2, 298973, Note_on_c, 0, 72, 40
2, 298987, Note_off_c, 0, 55, 47
2, 299090, Note_off_c, 0, 64, 47
2, 299093, Note_on_c, 0, 73, 42
2, 299094, Note_off_c, 0, 48, 47
2, 299097, Note_on_c, 0, 57, 28
2, 299099, Note_on_c, 0, 55, 23
2, 299101, Control_c, 0, 64, 0
2, 299151, Note_off_c, 0, 72, 50
2, 299209, Note_on_c, 0, 61, 28
2, 299235, Control_c, 0, 64, 127
2, 299331, Note_off_c, 0, 61, 47
2, 299333, Note_on_c, 0, 64, 34
2, 299375, Note_off_c, 0, 73, 50
2, 299456, Note_on_c, 0, 73, 48
2, 299586, Note_off_c, 0, 64, 48
2, 299589, Note_on_c, 0, 74, 50
2, 299591, Note_off_c, 0, 55, 45
2, 299593, Note_on_c, 0, 53, 28
2, 299595, Control_c, 0, 64, 0
2, 299653, Note_off_c, 0, 73, 52
2, 299717, Note_on_c, 0, 62, 32
2, 299752, Control_c, 0, 64, 127
2, 299855, Note_off_c, 0, 62, 48
2, 299857, Note_on_c, 0, 65, 38
2, 299891, Note_off_c, 0, 74, 52
2, 299972, Note_off_c, 0, 57, 47
2, 299997, Note_on_c, 0, 74, 57
2, 300143, Note_off_c, 0, 65, 49
2, 300145, Note_on_c, 0, 76, 59
2, 300148, Note_off_c, 0, 53, 47
2, 300149, Note_on_c, 0, 57, 39
2, 300151, Control_c, 0, 64, 0
2, 300153, Note_on_c, 0, 52, 28
2, 300185, Note_off_c, 0, 74, 54
2, 300293, Note_on_c, 0, 61, 28
2, 300327, Control_c, 0, 64, 127
2, 300448, Note_off_c, 0, 61, 47
2, 300449, Note_on_c, 0, 67, 28
2, 300464, Note_off_c, 0, 76, 54
2, 300609, Note_on_c, 0, 76, 65
2, 300774, Note_off_c, 0, 67, 47
2, 300777, Note_on_c, 0, 77, 67
2, 300779, Note_off_c, 0, 52, 47
2, 300782, Note_on_c, 0, 50, 38
2, 300787, Control_c, 0, 64, 0
2, 300864, Note_off_c, 0, 76, 56
2, 300948, Note_on_c, 0, 62, 28
2, 300995, Control_c, 0, 64, 127
2, 301126, Note_off_c, 0, 62, 47
2, 301129, Note_on_c, 0, 65, 34
2, 301255, Note_off_c, 0, 77, 57
2, 301297, Note_on_c, 0, 69, 40
2, 301306, Note_off_c, 0, 57, 49
2, 301416, Note_off_c, 0, 65, 48
2, 301418, Note_on_c, 0, 72, 53
2, 301420, Note_off_c, 0, 50, 49
2, 301422, Note_on_c, 0, 57, 28
2, 301422, Note_on_c, 0, 55, 23
2, 301424, Control_c, 0, 64, 0
2, 301465, Note_off_c, 0, 69, 50
2, 301476, Note_on_c, 0, 70, 55
2, 301525, Note_off_c, 0, 72, 53
2, 301537, Note_on_c, 0, 61, 28
2, 301567, Control_c, 0, 64, 127
2, 301664, Note_off_c, 0, 61, 47
2, 301666, Note_on_c, 0, 64, 28
2, 301791, Note_on_c, 0, 69, 65
2, 301845, Note_off_c, 0, 70, 53
2, 301923, Note_off_c, 0, 64, 47
2, 301925, Note_on_c, 0, 74, 69
2, 301927, Note_off_c, 0, 55, 45
2, 301929, Note_on_c, 0, 53, 28
2, 301933, Control_c, 0, 64, 0
2, 301979, Note_off_c, 0, 69, 56
2, 302061, Note_on_c, 0, 62, 33
2, 302094, Control_c, 0, 64, 127
2, 302202, Note_off_c, 0, 62, 48
2, 302204, Note_on_c, 0, 65, 38
2, 302282, Note_off_c, 0, 74, 57
2, 302342, Note_on_c, 0, 69, 50
2, 302346, Note_off_c, 0, 57, 47
2, 302461, Note_off_c, 0, 65, 49
2, 302463, Note_on_c, 0, 72, 53
2, 302466, Note_off_c, 0, 53, 47
2, 302467, Note_on_c, 0, 57, 28
2, 302469, Note_on_c, 0, 55, 23
2, 302471, Control_c, 0, 64, 0
2, 302509, Note_off_c, 0, 69, 52
2, 302521, Note_on_c, 0, 70, 55
2, 302569, Note_off_c, 0, 72, 53
2, 302581, Note_on_c, 0, 61, 28
2, 302609, Control_c, 0, 64, 127
2, 302708, Note_off_c, 0, 61, 47
2, 302709, Note_on_c, 0, 64, 28
2, 302834, Note_on_c, 0, 69, 65
2, 302888, Note_off_c, 0, 70, 53
2, 302967, Note_off_c, 0, 64, 47
2, 302969, Note_on_c, 0, 74, 69
2, 302970, Note_off_c, 0, 55, 45
2, 302972, Note_on_c, 0, 53, 34
2, 302976, Control_c, 0, 64, 0
2, 303023, Note_off_c, 0, 69, 56
2, 303103, Note_on_c, 0, 62, 28
2, 303137, Control_c, 0, 64, 127
2, 303243, Note_off_c, 0, 62, 47
2, 303245, Note_on_c, 0, 65, 36
2, 303256, Note_off_c, 0, 57, 47
2, 303308, Note_off_c, 0, 74, 57
2, 303385, Note_on_c, 0, 74, 40
2, 303525, Note_off_c, 0, 65, 49
2, 303528, Note_on_c, 0, 76, 42
2, 303530, Note_off_c, 0, 53, 48
2, 303532, Note_on_c, 0, 52, 28
2, 303534, Note_on_c, 0, 57, 34
2, 303536, Control_c, 0, 64, 0
2, 303577, Note_off_c, 0, 74, 50
2, 303663, Note_on_c, 0, 61, 34
2, 303699, Control_c, 0, 64, 127
2, 303802, Note_off_c, 0, 61, 48
2, 303804, Note_on_c, 0, 67, 38
2, 303865, Note_off_c, 0, 76, 50
2, 303943, Note_on_c, 0, 76, 49
2, 304083, Note_off_c, 0, 67, 49
2, 304085, Note_on_c, 0, 77, 51
2, 304088, Note_off_c, 0, 52, 47
2, 304090, Note_on_c, 0, 50, 28
2, 304092, Control_c, 0, 64, 0
2, 304144, Note_off_c, 0, 76, 52
2, 304224, Note_on_c, 0, 62, 30
2, 304258, Control_c, 0, 64, 127
2, 304366, Note_off_c, 0, 62, 47
2, 304368, Note_on_c, 0, 65, 36
2, 304410, Note_off_c, 0, 77, 52
2, 304475, Note_off_c, 0, 57, 48
2, 304509, Note_on_c, 0, 77, 58
2, 304653, Note_off_c, 0, 65, 49
2, 304656, Note_on_c, 0, 78, 60
2, 304658, Note_off_c, 0, 50, 47
2, 304661, Note_on_c, 0, 48, 28
2, 304663, Note_on_c, 0, 57, 40
2, 304672, Control_c, 0, 64, 0
2, 304729, Note_off_c, 0, 77, 54
2, 304799, Note_on_c, 0, 62, 32
2, 304845, Control_c, 0, 64, 127
2, 304949, Note_off_c, 0, 62, 48
2, 304950, Note_on_c, 0, 66, 38
2, 304969, Note_off_c, 0, 78, 55
2, 305094, Note_on_c, 0, 78, 67
2, 305242, Note_off_c, 0, 66, 49
2, 305245, Note_on_c, 0, 79, 69
2, 305247, Note_off_c, 0, 57, 50
2, 305251, Note_off_c, 0, 48, 47
2, 305252, Note_on_c, 0, 55, 49
2, 305254, Control_c, 0, 64, 0
2, 305256, Note_on_c, 0, 47, 28
2, 305344, Note_off_c, 0, 78, 57
2, 305395, Note_on_c, 0, 62, 34
2, 305434, Control_c, 0, 64, 127
2, 305548, Note_off_c, 0, 62, 48
2, 305549, Note_off_c, 0, 79, 57
2, 305552, Note_on_c, 0, 65, 38
2, 305688, Note_on_c, 0, 67, 40
2, 305749, Note_off_c, 0, 55, 52
2, 305807, Note_off_c, 0, 65, 49
2, 305809, Note_on_c, 0, 71, 50
2, 305812, Note_off_c, 0, 47, 47
2, 305814, Note_on_c, 0, 55, 28
2, 305815, Note_on_c, 0, 50, 23
2, 305817, Control_c, 0, 64, 0
2, 305865, Note_on_c, 0, 69, 52
2, 305873, Note_off_c, 0, 67, 50
2, 305927, Note_on_c, 0, 59, 30
2, 305934, Note_off_c, 0, 71, 52
2, 305963, Control_c, 0, 64, 127
2, 306051, Note_off_c, 0, 59, 47
2, 306053, Note_on_c, 0, 65, 36
2, 306178, Note_on_c, 0, 67, 58
2, 306251, Note_off_c, 0, 69, 53
2, 306313, Note_off_c, 0, 65, 49
2, 306314, Note_on_c, 0, 72, 63
2, 306316, Note_off_c, 0, 50, 45
2, 306318, Note_on_c, 0, 48, 28
2, 306323, Control_c, 0, 64, 0
2, 306385, Note_off_c, 0, 67, 54
2, 306445, Note_on_c, 0, 60, 28
2, 306486, Control_c, 0, 64, 127
2, 306586, Note_off_c, 0, 60, 47
2, 306588, Note_on_c, 0, 64, 28
2, 306661, Note_off_c, 0, 72, 55
2, 306724, Note_on_c, 0, 72, 58
2, 306775, Note_off_c, 0, 48, 47
2, 306838, Note_off_c, 0, 64, 47
2, 306841, Note_on_c, 0, 67, 56
2, 306844, Note_off_c, 0, 55, 47
2, 306845, Note_on_c, 0, 40, 28
2, 306847, Note_on_c, 0, 48, 42
2, 306850, Control_c, 0, 64, 0
2, 306883, Note_off_c, 0, 72, 54
2, 306958, Note_on_c, 0, 55, 28
2, 306991, Control_c, 0, 64, 127
2, 307048, Note_off_c, 0, 40, 47
2, 307077, Note_off_c, 0, 55, 47
2, 307079, Note_on_c, 0, 60, 28
2, 307108, Note_off_c, 0, 67, 54
2, 307199, Note_on_c, 0, 67, 52
2, 307321, Note_off_c, 0, 60, 47
2, 307323, Note_on_c, 0, 69, 50
2, 307324, Note_on_c, 0, 41, 38
2, 307355, Control_c, 0, 64, 0
2, 307385, Note_off_c, 0, 67, 53
2, 307444, Note_on_c, 0, 57, 34
2, 307506, Control_c, 0, 64, 127
2, 307571, Note_off_c, 0, 57, 48
2, 307573, Note_on_c, 0, 60, 39
2, 307596, Note_off_c, 0, 41, 49
2, 307639, Note_off_c, 0, 69, 52
2, 307697, Note_on_c, 0, 69, 45
2, 307826, Note_off_c, 0, 60, 49
2, 307828, Note_on_c, 0, 65, 44
2, 307830, Note_off_c, 0, 48, 50
2, 307832, Note_on_c, 0, 38, 28
2, 307835, Control_c, 0, 64, 0
2, 307885, Note_off_c, 0, 69, 51
2, 307959, Note_on_c, 0, 53, 34
2, 307997, Control_c, 0, 64, 127
2, 308054, Note_off_c, 0, 38, 47
2, 308096, Note_off_c, 0, 53, 48
2, 308098, Note_on_c, 0, 60, 38
2, 308151, Note_off_c, 0, 65, 51
2, 308237, Note_on_c, 0, 65, 39
2, 308383, Note_off_c, 0, 60, 49
2, 308386, Note_on_c, 0, 62, 38
2, 308387, Note_on_c, 0, 43, 28
2, 308389, Note_on_c, 0, 48, 34
2, 308391, Control_c, 0, 64, 0
2, 308448, Note_off_c, 0, 65, 49
2, 308533, Note_on_c, 0, 53, 33
2, 308566, Control_c, 0, 64, 127
2, 308684, Note_off_c, 0, 43, 47
2, 308690, Note_off_c, 0, 53, 48
2, 308691, Note_on_c, 0, 60, 40
2, 308708, Note_off_c, 0, 62, 49
2, 308849, Note_on_c, 0, 62, 46
2, 309011, Note_off_c, 0, 60, 50
2, 309013, Note_on_c, 0, 67, 49
2, 309014, Note_off_c, 0, 48, 48
2, 309017, Note_on_c, 0, 43, 28
2, 309019, Note_on_c, 0, 47, 40
2, 309028, Control_c, 0, 64, 0
2, 309083, Note_off_c, 0, 62, 51
2, 309176, Note_on_c, 0, 53, 34
2, 309223, Control_c, 0, 64, 127
2, 309269, Note_off_c, 0, 43, 47
2, 309340, Note_off_c, 0, 53, 48
2, 309342, Note_on_c, 0, 59, 40
2, 309391, Note_off_c, 0, 67, 52
2, 309503, Note_on_c, 0, 67, 48
2, 309670, Note_off_c, 0, 59, 50
2, 309671, Note_on_c, 0, 64, 49
2, 309674, Note_off_c, 0, 47, 50
2, 309676, Note_on_c, 0, 36, 28
2, 309678, Note_on_c, 0, 43, 38
2, 309680, Control_c, 0, 64, 0
2, 309731, Note_off_c, 0, 67, 52
2, 309837, Note_on_c, 0, 52, 32
2, 309875, Control_c, 0, 64, 127
2, 309948, Note_off_c, 0, 36, 47
2, 310007, Note_off_c, 0, 52, 48
2, 310007, Note_off_c, 0, 64, 52
2, 310011, Note_on_c, 0, 60, 36
2, 310163, Note_on_c, 0, 67, 53
2, 310289, Note_off_c, 0, 60, 49
2, 310292, Note_on_c, 0, 71, 55
2, 310294, Note_off_c, 0, 43, 49
2, 310296, Note_on_c, 0, 55, 43
2, 310298, Note_on_c, 0, 50, 28
2, 310298, Control_c, 0, 64, 0
2, 310344, Note_off_c, 0, 67, 53
2, 310390, Note_on_c, 0, 69, 55
2, 310405, Note_off_c, 0, 71, 53
2, 310413, Note_on_c, 0, 59, 30
2, 310439, Control_c, 0, 64, 127
2, 310535, Note_off_c, 0, 59, 47
2, 310538, Note_on_c, 0, 65, 38
2, 310655, Note_on_c, 0, 67, 59
2, 310673, Note_off_c, 0, 69, 53
2, 310774, Note_off_c, 0, 65, 49
2, 310776, Note_on_c, 0, 72, 61
2, 310779, Note_off_c, 0, 50, 47
2, 310780, Note_on_c, 0, 48, 38
2, 310783, Control_c, 0, 64, 0
2, 310827, Note_off_c, 0, 67, 54
2, 310894, Note_on_c, 0, 60, 34
2, 310921, Control_c, 0, 64, 127
2, 311010, Note_off_c, 0, 60, 48
2, 311012, Note_on_c, 0, 64, 38
2, 311081, Note_off_c, 0, 72, 55
2, 311127, Note_on_c, 0, 72, 48
2, 311146, Note_off_c, 0, 48, 49
2, 311246, Note_off_c, 0, 72, 52
2, 311248, Note_off_c, 0, 64, 49
2, 311251, Note_off_c, 0, 55, 50
2, 311253, Note_on_c, 0, 67, 49
2, 311255, Note_on_c, 0, 48, 38
2, 311255, Note_on_c, 0, 40, 34
2, 311256, Control_c, 0, 64, 0
2, 311365, Note_on_c, 0, 55, 28
2, 311393, Control_c, 0, 64, 127
2, 311487, Note_off_c, 0, 55, 47
2, 311489, Note_on_c, 0, 60, 38
2, 311502, Note_off_c, 0, 40, 48
2, 311549, Note_off_c, 0, 67, 52
2, 311609, Note_on_c, 0, 67, 40
2, 311736, Note_off_c, 0, 60, 49
2, 311737, Note_on_c, 0, 69, 61
2, 311739, Note_on_c, 0, 41, 41
2, 311742, Control_c, 0, 64, 0
2, 311800, Note_off_c, 0, 67, 50
2, 311864, Note_on_c, 0, 57, 28
2, 311897, Control_c, 0, 64, 127
2, 311984, Note_off_c, 0, 41, 50
2, 311992, Note_off_c, 0, 57, 47
2, 311995, Note_on_c, 0, 60, 34
2, 312060, Note_off_c, 0, 69, 55
2, 312128, Note_on_c, 0, 69, 48
2, 312269, Note_off_c, 0, 60, 48
2, 312271, Note_on_c, 0, 65, 55
2, 312273, Note_off_c, 0, 48, 49
2, 312274, Note_on_c, 0, 38, 44
2, 312278, Control_c, 0, 64, 0
2, 312311, Note_off_c, 0, 69, 52
2, 312412, Note_on_c, 0, 53, 30
2, 312454, Control_c, 0, 64, 127
2, 312561, Note_off_c, 0, 53, 47
2, 312563, Note_on_c, 0, 60, 36
2, 312580, Note_off_c, 0, 38, 51
2, 312627, Note_off_c, 0, 65, 53
2, 312713, Note_on_c, 0, 65, 51
2, 312874, Note_off_c, 0, 60, 49
2, 312877, Note_on_c, 0, 62, 49
2, 312879, Note_on_c, 0, 48, 38
2, 312881, Note_on_c, 0, 43, 28
2, 312883, Control_c, 0, 64, 0
2, 312957, Note_off_c, 0, 65, 52
2, 313038, Note_on_c, 0, 53, 34
2, 313074, Control_c, 0, 64, 127
2, 313190, Note_off_c, 0, 43, 47
2, 313207, Note_off_c, 0, 53, 48
2, 313210, Note_on_c, 0, 60, 38
2, 313304, Note_off_c, 0, 62, 52
2, 313384, Note_on_c, 0, 62, 45
2, 313570, Note_off_c, 0, 60, 49
2, 313572, Note_on_c, 0, 67, 44
2, 313575, Note_off_c, 0, 48, 49
2, 313576, Note_on_c, 0, 43, 28
2, 313578, Note_on_c, 0, 47, 38
2, 313586, Control_c, 0, 64, 0
2, 313679, Note_off_c, 0, 62, 51
2, 313787, Note_on_c, 0, 53, 28
2, 313848, Control_c, 0, 64, 127
2, 313983, Note_off_c, 0, 43, 47
2, 314011, Note_off_c, 0, 53, 47
2, 314014, Note_on_c, 0, 59, 34
2, 314149, Note_off_c, 0, 67, 51
2, 314262, Note_on_c, 0, 67, 38
2, 314543, Note_off_c, 0, 59, 48
2, 314545, Note_off_c, 0, 47, 49
2, 314549, Note_on_c, 0, 60, 45
2, 314584, Note_on_c, 0, 36, 13
2, 314618, Note_on_c, 0, 43, 26
2, 314620, Control_c, 0, 64, 0
2, 314690, Note_on_c, 0, 52, 21
2, 315132, Control_c, 0, 64, 127
2, 315162, Note_off_c, 0, 52, 45
2, 315171, Note_off_c, 0, 36, 43
2, 315264, Note_off_c, 0, 43, 46
2, 315961, Note_off_c, 0, 60, 51
2, 316221, Note_off_c, 0, 67, 49
2, 316777, Control_c, 0, 64, 0
2, 317842, Note_on_c, 0, 76, 42
2, 317871, Note_on_c, 0, 60, 46
2, 317888, Note_on_c, 0, 53, 41
2, 317896, Control_c, 0, 64, 127
2, 318213, Note_on_c, 0, 64, 34
2, 318593, Note_on_c, 0, 69, 39
2, 319025, Note_on_c, 0, 72, 45
2, 319491, Note_off_c, 0, 72, 51
2, 319493, Note_off_c, 0, 69, 49
2, 319495, Note_on_c, 0, 74, 50
2, 319596, Note_off_c, 0, 76, 50
2, 319829, Note_off_c, 0, 64, 48
2, 319832, Note_on_c, 0, 62, 34
2, 320209, Note_on_c, 0, 69, 39
2, 320639, Note_on_c, 0, 72, 45
2, 321140, Note_off_c, 0, 72, 51
2, 321143, Note_off_c, 0, 69, 49
2, 321290, Note_off_c, 0, 62, 48
2, 321482, Note_on_c, 0, 62, 34
2, 321860, Note_on_c, 0, 69, 39
2, 322292, Note_on_c, 0, 72, 45
2, 322550, Note_off_c, 0, 53, 50
2, 322581, Note_off_c, 0, 60, 51
2, 322775, Note_on_c, 0, 77, 64
2, 322792, Note_off_c, 0, 72, 51
2, 322795, Note_off_c, 0, 69, 49
2, 322799, Note_off_c, 0, 62, 48
2, 322801, Note_on_c, 0, 53, 28
2, 322803, Note_off_c, 0, 74, 52
2, 322804, Note_on_c, 0, 60, 36
2, 322806, Control_c, 0, 64, 0
2, 323007, Control_c, 0, 64, 127
2, 323133, Note_on_c, 0, 65, 26
2, 323515, Note_on_c, 0, 69, 33
2, 323945, Note_on_c, 0, 72, 40
2, 324445, Note_off_c, 0, 72, 50
2, 324448, Note_off_c, 0, 69, 48
2, 324449, Note_on_c, 0, 76, 42
2, 324462, Note_off_c, 0, 77, 56
2, 324785, Note_off_c, 0, 65, 46
2, 324788, Note_on_c, 0, 64, 26
2, 325166, Note_on_c, 0, 69, 34
2, 325597, Note_on_c, 0, 72, 42
2, 326068, Note_off_c, 0, 72, 50
2, 326069, Note_off_c, 0, 69, 48
2, 326072, Note_on_c, 0, 74, 52
2, 326147, Note_off_c, 0, 76, 50
2, 326407, Note_off_c, 0, 64, 46
2, 326408, Note_on_c, 0, 62, 36
2, 326788, Note_on_c, 0, 69, 36
2, 327209, Note_on_c, 0, 72, 36
2, 327708, Note_off_c, 0, 72, 49
2, 327710, Note_off_c, 0, 69, 49
2, 327826, Note_off_c, 0, 62, 49
2, 328049, Note_on_c, 0, 62, 36
2, 328428, Note_on_c, 0, 69, 36
2, 328844, Note_on_c, 0, 72, 36
2, 329161, Note_off_c, 0, 53, 47
2, 329174, Note_off_c, 0, 60, 49
2, 329242, Note_off_c, 0, 74, 53
2, 329342, Note_off_c, 0, 72, 49
2, 329345, Note_off_c, 0, 69, 49
2, 329348, Note_off_c, 0, 62, 49
2, 329350, Note_on_c, 0, 81, 60
2, 329352, Control_c, 0, 64, 0
2, 329353, Note_on_c, 0, 60, 46
2, 329353, Note_on_c, 0, 53, 34
2, 329550, Control_c, 0, 64, 127
2, 329684, Note_on_c, 0, 69, 16
2, 330020, Note_off_c, 0, 69, 44
2, 330065, Note_on_c, 0, 69, 36
2, 330485, Note_on_c, 0, 65, 36
2, 330487, Note_on_c, 0, 77, 56
2, 330524, Note_off_c, 0, 81, 55
2, 330985, Note_off_c, 0, 69, 49
2, 330986, Note_on_c, 0, 76, 54
2, 331042, Note_off_c, 0, 77, 54
2, 331324, Note_off_c, 0, 65, 49
2, 331327, Note_on_c, 0, 64, 34
2, 331705, Note_on_c, 0, 69, 28
2, 332136, Note_on_c, 0, 72, 22
2, 332635, Note_off_c, 0, 72, 45
2, 332637, Note_off_c, 0, 69, 47
2, 332640, Note_on_c, 0, 74, 50
2, 332725, Note_off_c, 0, 76, 53
2, 332975, Note_off_c, 0, 64, 48
2, 332978, Note_on_c, 0, 62, 34
2, 333357, Note_on_c, 0, 69, 28
2, 333788, Note_on_c, 0, 72, 22
2, 334173, Note_off_c, 0, 74, 52
2, 334253, Note_off_c, 0, 72, 45
2, 334255, Note_off_c, 0, 69, 47
2, 334257, Note_on_c, 0, 74, 46
2, 334266, Control_c, 0, 64, 0
2, 334468, Control_c, 0, 64, 127
2, 334862, Note_off_c, 0, 62, 48
2, 334964, Note_off_c, 0, 74, 51
2, 334967, Note_on_c, 0, 76, 42
2, 335169, Note_on_c, 0, 74, 45
2, 335199, Note_on_c, 0, 62, 36
2, 335208, Note_off_c, 0, 76, 50
2, 335373, Note_on_c, 0, 72, 48
2, 335419, Note_off_c, 0, 74, 51
2, 335535, Note_on_c, 0, 69, 40
2, 335547, Note_off_c, 0, 62, 49
2, 335618, Note_on_c, 0, 74, 52
2, 335619, Note_off_c, 0, 60, 51
2, 335662, Note_off_c, 0, 72, 52
2, 335696, Control_c, 0, 64, 0
2, 335858, Note_off_c, 0, 69, 50
2, 335861, Note_off_c, 0, 53, 48
2, 335863, Note_on_c, 0, 54, 26
2, 335865, Note_on_c, 0, 76, 55
2, 335867, Note_on_c, 0, 60, 31
2, 335892, Note_off_c, 0, 74, 53
2, 335909, Control_c, 0, 64, 127
2, 336323, Note_on_c, 0, 64, 31
2, 336712, Note_on_c, 0, 69, 31
2, 337235, Note_on_c, 0, 72, 36
2, 337283, Note_off_c, 0, 76, 53
2, 337333, Note_off_c, 0, 60, 47
2, 337477, Note_off_c, 0, 54, 46
2, 337482, Note_on_c, 0, 55, 26
2, 337484, Note_on_c, 0, 76, 48
2, 337486, Note_on_c, 0, 60, 34
2, 337487, Control_c, 0, 64, 0
2, 337491, Note_off_c, 0, 69, 47
2, 337493, Note_off_c, 0, 64, 47
2, 337579, Note_off_c, 0, 72, 49
2, 337688, Control_c, 0, 64, 127
2, 337818, Note_on_c, 0, 64, 34
2, 338160, Note_on_c, 0, 67, 40
2, 338539, Note_on_c, 0, 72, 47
2, 338920, Note_off_c, 0, 72, 51
2, 338923, Note_off_c, 0, 67, 50
2, 339135, Note_off_c, 0, 64, 48
2, 339324, Note_on_c, 0, 64, 34
2, 339756, Note_on_c, 0, 67, 28
2, 340228, Note_on_c, 0, 72, 22
2, 340769, Note_off_c, 0, 72, 45
2, 340771, Note_off_c, 0, 67, 47
2, 340773, Note_on_c, 0, 74, 36
2, 340809, Note_off_c, 0, 76, 52
2, 341068, Note_off_c, 0, 64, 48
2, 341199, Note_on_c, 0, 62, 34
2, 341604, Note_on_c, 0, 67, 39
2, 342036, Note_on_c, 0, 72, 45
2, 342538, Note_off_c, 0, 72, 51
2, 342539, Note_off_c, 0, 67, 49
2, 342542, Note_off_c, 0, 74, 49
2, 342544, Note_off_c, 0, 60, 48
2, 342670, Note_off_c, 0, 62, 48
2, 343079, Note_on_c, 0, 62, 22
2, 343669, Note_on_c, 0, 67, 27
2, 344211, Note_on_c, 0, 71, 33
2, 344671, Note_on_c, 0, 77, 62
2, 344711, Note_off_c, 0, 71, 48
2, 344716, Note_off_c, 0, 62, 45
2, 344718, Note_off_c, 0, 55, 46
2, 344720, Note_on_c, 0, 57, 36
2, 344722, Note_on_c, 0, 50, 28
2, 344722, Control_c, 0, 64, 0
2, 344755, Note_off_c, 0, 67, 46
2, 344923, Control_c, 0, 64, 127
2, 345053, Note_on_c, 0, 62, 34
2, 345433, Note_off_c, 0, 62, 48
2, 345434, Note_on_c, 0, 65, 39
2, 345853, Note_on_c, 0, 69, 45
2, 346035, Note_off_c, 0, 57, 49
2, 346311, Note_off_c, 0, 69, 51
2, 346313, Note_off_c, 0, 65, 49
2, 346315, Note_on_c, 0, 74, 44
2, 346317, Note_on_c, 0, 57, 31
2, 346318, Note_off_c, 0, 50, 47
2, 346319, Note_on_c, 0, 53, 26
2, 346443, Note_off_c, 0, 77, 55
2, 346651, Note_on_c, 0, 62, 34
2, 347032, Note_off_c, 0, 62, 48
2, 347033, Note_on_c, 0, 65, 39
2, 347461, Note_on_c, 0, 69, 45
2, 347962, Note_off_c, 0, 69, 51
2, 347963, Note_off_c, 0, 65, 49
2, 348300, Note_on_c, 0, 62, 34
2, 348682, Note_off_c, 0, 62, 48
2, 348684, Note_on_c, 0, 65, 37
2, 349113, Note_on_c, 0, 69, 40
2, 349289, Note_off_c, 0, 53, 46
2, 349608, Note_off_c, 0, 69, 50
2, 349610, Note_off_c, 0, 65, 49
2, 349612, Note_off_c, 0, 57, 47
2, 349614, Note_on_c, 0, 71, 45
2, 349615, Note_on_c, 0, 44, 22
2, 349616, Note_on_c, 0, 53, 26
2, 349622, Control_c, 0, 64, 0
2, 349677, Note_off_c, 0, 74, 51
2, 349811, Control_c, 0, 64, 127
2, 349945, Note_on_c, 0, 59, 34
2, 350317, Note_on_c, 0, 62, 37
2, 350749, Note_on_c, 0, 65, 40
2, 351173, Note_off_c, 0, 71, 51
2, 351243, Note_off_c, 0, 65, 50
2, 351246, Note_off_c, 0, 62, 49
2, 351247, Note_off_c, 0, 59, 48
2, 351249, Note_off_c, 0, 44, 45
2, 351251, Note_on_c, 0, 52, 26
2, 351252, Note_off_c, 0, 53, 46
2, 351253, Note_on_c, 0, 45, 20
2, 351255, Note_on_c, 0, 72, 48
2, 351255, Control_c, 0, 64, 0
2, 351447, Control_c, 0, 64, 127
2, 351582, Note_on_c, 0, 57, 34
2, 351962, Note_off_c, 0, 57, 48
2, 351964, Note_on_c, 0, 60, 28
2, 352394, Note_on_c, 0, 64, 22
2, 352879, Note_off_c, 0, 64, 45
2, 352881, Note_off_c, 0, 60, 47
2, 352883, Note_off_c, 0, 45, 45
2, 352885, Note_off_c, 0, 52, 46
2, 352887, Note_on_c, 0, 67, 34
2, 352889, Note_on_c, 0, 50, 26
2, 352889, Note_on_c, 0, 47, 18
2, 352890, Control_c, 0, 64, 0
2, 353010, Note_off_c, 0, 72, 52
2, 353093, Control_c, 0, 64, 127
2, 353219, Note_on_c, 0, 55, 20
2, 353600, Note_off_c, 0, 55, 45
2, 353602, Note_on_c, 0, 62, 26
2, 354025, Note_on_c, 0, 65, 33
2, 354510, Note_off_c, 0, 65, 48
2, 354511, Note_off_c, 0, 62, 46
2, 354850, Note_on_c, 0, 55, 34
2, 355229, Note_off_c, 0, 55, 48
2, 355232, Note_on_c, 0, 62, 26
2, 355662, Note_on_c, 0, 65, 18
2, 356005, Note_off_c, 0, 67, 48
2, 356162, Note_off_c, 0, 65, 44
2, 356164, Note_off_c, 0, 62, 46
2, 356166, Note_off_c, 0, 50, 46
2, 356168, Note_off_c, 0, 47, 44
2, 356169, Note_on_c, 0, 52, 22
2, 356171, Note_on_c, 0, 67, 48
2, 356171, Note_on_c, 0, 48, 16
2, 356181, Control_c, 0, 64, 0
2, 356383, Control_c, 0, 64, 127
2, 356500, Note_on_c, 0, 55, 21
2, 356887, Note_off_c, 0, 55, 45
2, 356889, Note_on_c, 0, 60, 27
2, 357317, Note_on_c, 0, 64, 33
2, 357789, Note_off_c, 0, 64, 48
2, 357793, Note_off_c, 0, 60, 46
2, 357796, Note_off_c, 0, 52, 45
2, 357798, Note_off_c, 0, 48, 44
2, 357799, Note_off_c, 0, 67, 52
2, 357799, Note_on_c, 0, 69, 54
2, 357799, Note_on_c, 0, 41, 31
2, 357801, Control_c, 0, 64, 0
2, 357803, Note_on_c, 0, 49, 36
2, 357995, Control_c, 0, 64, 127
2, 358128, Note_on_c, 0, 57, 34
2, 358509, Note_on_c, 0, 61, 39
2, 358914, Note_on_c, 0, 64, 45
2, 359346, Note_off_c, 0, 64, 51
2, 359348, Note_off_c, 0, 61, 49
2, 359350, Note_off_c, 0, 49, 49
2, 359750, Note_on_c, 0, 50, 34
2, 360182, Note_on_c, 0, 62, 39
2, 360645, Note_on_c, 0, 65, 45
2, 361146, Note_off_c, 0, 57, 48
2, 361148, Note_off_c, 0, 41, 47
2, 361150, Note_off_c, 0, 69, 53
2, 361152, Note_on_c, 0, 67, 46
2, 361154, Note_on_c, 0, 43, 26
2, 361169, Control_c, 0, 64, 0
2, 361497, Control_c, 0, 64, 127
2, 361687, Note_on_c, 0, 53, 36
2, 362279, Note_off_c, 0, 65, 51
2, 362281, Note_off_c, 0, 62, 49
2, 362283, Note_on_c, 0, 59, 46
2, 362931, Note_off_c, 0, 59, 51
2, 362933, Note_on_c, 0, 62, 36
2, 363659, Note_off_c, 0, 62, 49
2, 363661, Note_on_c, 0, 65, 26
2, 364523, Note_off_c, 0, 67, 51
2, 364712, Note_on_c, 0, 67, 46
2, 365182, Note_on_c, 0, 71, 64
2, 365236, Note_off_c, 0, 67, 51
2, 365418, Note_off_c, 0, 65, 46
2, 365421, Note_on_c, 0, 69, 52
2, 365515, Note_off_c, 0, 71, 56
2, 367185, Note_off_c, 0, 69, 53
2, 367186, Note_on_c, 0, 67, 50
2, 367740, Note_on_c, 0, 76, 74
2, 367854, Note_off_c, 0, 53, 49
2, 367856, Note_off_c, 0, 50, 48
2, 367858, Note_on_c, 0, 36, 36
2, 367861, Control_c, 0, 64, 0
2, 367936, Note_on_c, 0, 52, 36
2, 368065, Control_c, 0, 64, 127
2, 368127, Note_off_c, 0, 67, 52
2, 368192, Note_on_c, 0, 67, 52
2, 368611, Note_on_c, 0, 64, 47
2, 368656, Note_off_c, 0, 67, 53
2, 369056, Note_on_c, 0, 60, 42
2, 369102, Note_off_c, 0, 64, 51
2, 369526, Note_off_c, 0, 52, 49
2, 369528, Note_off_c, 0, 36, 49
2, 369531, Note_on_c, 0, 55, 37
2, 369534, Note_off_c, 0, 43, 46
2, 369578, Note_off_c, 0, 60, 50
2, 370086, Note_off_c, 0, 55, 49
2, 370121, Note_on_c, 0, 52, 32
2, 370727, Note_off_c, 0, 52, 48
2, 370838, Note_on_c, 0, 48, 27
2, 371540, Note_off_c, 0, 48, 46
2, 371643, Note_on_c, 0, 43, 12
2, 372534, Note_off_c, 0, 43, 43
2, 373468, Note_on_c, 0, 36, 11
2, 375845, Note_off_c, 0, 36, 43
2, 379885, Note_off_c, 0, 76, 59
2, 380492, Control_c, 0, 64, 0
2, 380492, End_track
3, 0, Start_track
3, 0, Title_t, "Arabesque Op. 18"
3, 0, Channel_prefix, 1
3, 0, End_track
4, 0, Start_track
4, 0, Title_t, "Sequence by Richard Carlson"
4, 0, Channel_prefix, 2
4, 0, End_track
5, 0, Start_track
5, 0, Title_t, "http://geocities.com/lionheart2251"
5, 0, Channel_prefix, 3
5, 0, End_track
6, 0, Start_track
6, 0, Title_t, "lionheart2251@yahoo.com"
6, 0, Channel_prefix, 4
6, 0, End_track
7, 0, Start_track
7, 0, Title_t, "Copyright  2002"
7, 0, Channel_prefix, 5
7, 0, End_track
0, 0, End_of_file
