0, 0, Header, 1, 3, 384
1, 0, Start_track
1, 0, Sequencer_specific, 3, 0, 0, 65
1, 0, Time_signature, 4, 2, 24, 8
1, 0, Key_signature, 0, "major"
1, 0, Tempo, 500000
1, 34944, Tempo, 535714
1, 35140, Tempo, 512821
1, 35712, Tempo, 504202
1, 36376, Tempo, 495868
1, 52760, Tempo, 495868
1, 52860, Tempo, 504202
1, 52960, Tempo, 504202
1, 53060, Tempo, 517241
1, 53164, Tempo, 517241
1, 53264, Tempo, 521739
1, 53364, Tempo, 521739
1, 53468, Tempo, 495868
1, 53760, Tempo, 495868
1, 60216, Tempo, 535714
1, 61060, Tempo, 495868
1, 67200, Tempo, 500000
1, 67548, Tempo, 500000
1, 67588, Tempo, 504202
1, 67628, Tempo, 508475
1, 67668, Tempo, 512821
1, 67709, Tempo, 517241
1, 67749, Tempo, 521739
1, 67789, Tempo, 526316
1, 67830, Tempo, 530973
1, 67870, Tempo, 535714
1, 67910, Tempo, 540541
1, 67951, Tempo, 545455
1, 67991, Tempo, 550459
1, 68031, Tempo, 555556
1, 68072, Tempo, 560748
1, 68073, Tempo, 500000
1, 92552, Tempo, 444444
1, 104833, Tempo, 472441
1, 184045, Tempo, 483871
1, 184389, Tempo, 472441
1, 189697, Tempo, 512821
1, 233861, Tempo, 535714
1, 302977, Tempo, 437956
1, 378625, Tempo, 472441
1, 543361, Tempo, 451128
1, 564885, Tempo, 461538
1, 566693, Tempo, 451128
1, 580225, Tempo, 428571
1, 617857, Tempo, 521739
1, 680833, Tempo, 480000
1, 751105, Tempo, 461538
1, 767173, Tempo, 472441
1, 773761, Tempo, 461538
1, 778493, Tempo, 472441
1, 781405, Tempo, 461538
1, 785145, Tempo, 472441
1, 786757, Tempo, 483871
1, 788941, Tempo, 472441
1, 804253, Tempo, 413793
1, 849181, Tempo, 428571
1, 856321, Tempo, 422535
1, 859981, Tempo, 444444
1, 863669, Tempo, 422535
1, 867373, Tempo, 437956
1, 870513, Tempo, 454545
1, 871589, Tempo, 437956
1, 874749, Tempo, 454545
1, 875873, Tempo, 437956
1, 879069, Tempo, 451128
1, 880129, Tempo, 437956
1, 883317, Tempo, 451128
1, 884493, Tempo, 419580
1, 890221, Tempo, 431655
1, 893913, Tempo, 431655
1, 898037, Tempo, 444444
1, 906625, Tempo, 472441
1, 950401, Tempo, 454545
1, 959089, Tempo, 472441
1, 959193, Tempo, 465116
1, 959297, Tempo, 465116
1, 961077, Tempo, 451128
1, 964661, Tempo, 441176
1, 971773, Tempo, 422535
1, 979237, Tempo, 422535
1, 979422, Tempo, 425532
1, 979607, Tempo, 428571
1, 979792, Tempo, 431655
1, 979977, Tempo, 434783
1, 980163, Tempo, 437956
1, 980348, Tempo, 441176
1, 980533, Tempo, 444444
1, 980718, Tempo, 447761
1, 980903, Tempo, 451128
1, 981089, Tempo, 454545
1, 981090, Tempo, 454545
1, 985729, Tempo, 461538
1, 1014529, Tempo, 472441
1, 1176192, Tempo, 437956
1, 1189601, Tempo, 444444
1, 1191837, Tempo, 444444
1, 1191878, Tempo, 447761
1, 1191920, Tempo, 451128
1, 1191961, Tempo, 454545
1, 1192003, Tempo, 458015
1, 1192044, Tempo, 461538
1, 1192086, Tempo, 465116
1, 1192127, Tempo, 468750
1, 1192169, Tempo, 472441
1, 1192170, Tempo, 437956
1, 1192904, Tempo, 444444
1, 1217464, Tempo, 454545
1, 1233792, Tempo, 465116
1, 1241180, Tempo, 444444
1, 1282176, Tempo, 451128
1, 1292744, Tempo, 437956
1, 1293988, Tempo, 444444
1, 1299796, Tempo, 451128
1, 1304412, Tempo, 461538
1, 1321844, Tempo, 444444
1, 1325032, Tempo, 454545
1, 1337080, Tempo, 461538
1, 1357664, Tempo, 444444
1, 1357664, End_track
2, 0, Start_track
2, 0, MIDI_port, 0
2, 0, Program_c, 0, 0
2, 0, Control_c, 0, 7, 127
2, 384, Control_c, 0, 91, 127
2, 652, Note_on_c, 0, 63, 83
2, 652, Note_on_c, 0, 75, 92
2, 660, Note_on_c, 0, 68, 77
2, 664, Note_on_c, 0, 60, 73
2, 664, Note_on_c, 0, 56, 58
2, 668, Note_on_c, 0, 48, 69
2, 684, Control_c, 0, 64, 24
2, 696, Control_c, 0, 64, 40
2, 700, Note_on_c, 0, 48, 0
2, 712, Control_c, 0, 64, 56
2, 720, Note_on_c, 0, 63, 0
2, 724, Control_c, 0, 64, 72
2, 728, Note_on_c, 0, 60, 0
2, 740, Control_c, 0, 64, 104
2, 744, Note_on_c, 0, 56, 0
2, 752, Control_c, 0, 64, 127
2, 768, Note_on_c, 0, 68, 0
2, 788, Note_on_c, 0, 75, 0
2, 848, Note_on_c, 0, 77, 103
2, 852, Note_on_c, 0, 68, 77
2, 852, Note_on_c, 0, 65, 86
2, 868, Note_on_c, 0, 56, 71
2, 868, Note_on_c, 0, 61, 72
2, 872, Note_on_c, 0, 49, 65
2, 912, Control_c, 0, 64, 104
2, 924, Control_c, 0, 64, 88
2, 940, Control_c, 0, 64, 72
2, 952, Control_c, 0, 64, 40
2, 968, Control_c, 0, 64, 0
2, 1704, Note_on_c, 0, 77, 0
2, 1720, Control_c, 0, 64, 40
2, 1732, Control_c, 0, 64, 72
2, 1748, Note_on_c, 0, 65, 0
2, 1748, Control_c, 0, 64, 88
2, 1756, Note_on_c, 0, 68, 0
2, 1760, Note_on_c, 0, 56, 0
2, 1760, Control_c, 0, 64, 127
2, 1772, Note_on_c, 0, 49, 0
2, 1776, Note_on_c, 0, 61, 0
2, 2004, Note_on_c, 0, 75, 91
2, 2004, Note_on_c, 0, 63, 85
2, 2008, Note_on_c, 0, 56, 68
2, 2012, Note_on_c, 0, 60, 68
2, 2016, Note_on_c, 0, 68, 60
2, 2024, Note_on_c, 0, 48, 58
2, 2036, Note_on_c, 0, 60, 0
2, 2048, Note_on_c, 0, 68, 0
2, 2052, Note_on_c, 0, 56, 0
2, 2052, Note_on_c, 0, 48, 0
2, 2056, Note_on_c, 0, 63, 0
2, 2064, Note_on_c, 0, 75, 0
2, 2112, Note_on_c, 0, 68, 82
2, 2116, Note_on_c, 0, 77, 105
2, 2120, Note_on_c, 0, 65, 87
2, 2128, Note_on_c, 0, 61, 81
2, 2132, Note_on_c, 0, 49, 74
2, 2132, Note_on_c, 0, 56, 65
2, 2188, Control_c, 0, 64, 88
2, 2204, Control_c, 0, 64, 56
2, 2216, Control_c, 0, 64, 0
2, 2912, Control_c, 0, 64, 24
2, 2924, Note_on_c, 0, 77, 0
2, 2928, Control_c, 0, 64, 40
2, 2940, Note_on_c, 0, 68, 0
2, 2940, Control_c, 0, 64, 56
2, 2952, Note_on_c, 0, 65, 0
2, 2956, Note_on_c, 0, 49, 0
2, 2956, Control_c, 0, 64, 72
2, 2984, Note_on_c, 0, 61, 0
2, 2988, Note_on_c, 0, 56, 0
2, 2996, Control_c, 0, 64, 88
2, 3012, Control_c, 0, 64, 104
2, 3024, Control_c, 0, 64, 127
2, 3148, Note_on_c, 0, 48, 73
2, 3148, Note_on_c, 0, 68, 69
2, 3148, Note_on_c, 0, 75, 93
2, 3148, Note_on_c, 0, 60, 66
2, 3148, Note_on_c, 0, 63, 86
2, 3148, Note_on_c, 0, 56, 70
2, 3172, Note_on_c, 0, 68, 0
2, 3172, Note_on_c, 0, 48, 0
2, 3184, Note_on_c, 0, 60, 0
2, 3208, Note_on_c, 0, 63, 0
2, 3212, Note_on_c, 0, 56, 0
2, 3224, Note_on_c, 0, 75, 0
2, 3252, Control_c, 0, 64, 56
2, 3268, Control_c, 0, 64, 0
2, 3276, Note_on_c, 0, 77, 105
2, 3276, Note_on_c, 0, 68, 81
2, 3276, Note_on_c, 0, 65, 88
2, 3280, Note_on_c, 0, 61, 83
2, 3284, Note_on_c, 0, 49, 82
2, 3284, Note_on_c, 0, 56, 69
2, 3348, Note_on_c, 0, 56, 0
2, 3348, Note_on_c, 0, 49, 0
2, 3352, Note_on_c, 0, 61, 0
2, 3352, Control_c, 0, 64, 72
2, 3368, Note_on_c, 0, 65, 0
2, 3368, Control_c, 0, 64, 127
2, 3372, Note_on_c, 0, 77, 0
2, 3376, Note_on_c, 0, 68, 0
2, 3552, Note_on_c, 0, 56, 76
2, 3564, Note_on_c, 0, 60, 60
2, 3564, Note_on_c, 0, 63, 79
2, 3568, Note_on_c, 0, 75, 85
2, 3572, Note_on_c, 0, 68, 65
2, 3588, Note_on_c, 0, 60, 0
2, 3596, Note_on_c, 0, 68, 0
2, 3604, Note_on_c, 0, 56, 0
2, 3604, Note_on_c, 0, 63, 0
2, 3612, Note_on_c, 0, 75, 0
2, 3624, Control_c, 0, 64, 56
2, 3636, Control_c, 0, 64, 0
2, 3640, Note_on_c, 0, 68, 68
2, 3644, Note_on_c, 0, 56, 67
2, 3648, Note_on_c, 0, 77, 102
2, 3648, Note_on_c, 0, 65, 89
2, 3652, Note_on_c, 0, 61, 76
2, 3652, Note_on_c, 0, 49, 71
2, 3720, Note_on_c, 0, 49, 0
2, 3720, Note_on_c, 0, 65, 0
2, 3720, Note_on_c, 0, 56, 0
2, 3720, Note_on_c, 0, 61, 0
2, 3720, Control_c, 0, 64, 72
2, 3728, Note_on_c, 0, 68, 0
2, 3736, Control_c, 0, 64, 127
2, 3772, Note_on_c, 0, 77, 0
2, 3988, Note_on_c, 0, 79, 103
2, 3996, Note_on_c, 0, 67, 89
2, 3996, Note_on_c, 0, 70, 84
2, 4000, Note_on_c, 0, 75, 75
2, 4004, Note_on_c, 0, 63, 85
2, 4004, Control_c, 0, 64, 40
2, 4012, Note_on_c, 0, 49, 67
2, 4012, Note_on_c, 0, 51, 67
2, 4020, Control_c, 0, 64, 0
2, 4072, Note_on_c, 0, 49, 0
2, 4092, Note_on_c, 0, 70, 0
2, 4096, Note_on_c, 0, 67, 0
2, 4096, Note_on_c, 0, 51, 0
2, 4104, Control_c, 0, 64, 88
2, 4120, Control_c, 0, 64, 127
2, 4124, Note_on_c, 0, 63, 0
2, 4140, Note_on_c, 0, 79, 0
2, 4180, Note_on_c, 0, 75, 0
2, 4288, Note_on_c, 0, 48, 70
2, 4304, Control_c, 0, 64, 72
2, 4312, Note_on_c, 0, 48, 0
2, 4312, Note_on_c, 0, 51, 73
2, 4320, Control_c, 0, 64, 0
2, 4348, Note_on_c, 0, 80, 97
2, 4352, Note_on_c, 0, 75, 85
2, 4356, Note_on_c, 0, 68, 85
2, 4364, Note_on_c, 0, 72, 88
2, 4372, Note_on_c, 0, 63, 74
2, 4388, Control_c, 0, 64, 56
2, 4396, Note_on_c, 0, 51, 0
2, 4404, Control_c, 0, 64, 127
2, 4408, Note_on_c, 0, 63, 0
2, 4444, Note_on_c, 0, 72, 0
2, 4472, Note_on_c, 0, 68, 0
2, 4492, Note_on_c, 0, 80, 0
2, 4508, Note_on_c, 0, 75, 0
2, 4608, Note_on_c, 0, 79, 88
2, 4612, Note_on_c, 0, 67, 77
2, 4616, Note_on_c, 0, 75, 68
2, 4616, Note_on_c, 0, 72, 76
2, 4632, Note_on_c, 0, 79, 0
2, 4640, Note_on_c, 0, 67, 0
2, 4644, Note_on_c, 0, 75, 0
2, 4644, Note_on_c, 0, 72, 0
2, 4688, Note_on_c, 0, 80, 96
2, 4688, Note_on_c, 0, 75, 82
2, 4688, Note_on_c, 0, 68, 88
2, 4696, Note_on_c, 0, 72, 81
2, 4720, Note_on_c, 0, 72, 0
2, 4752, Note_on_c, 0, 68, 0
2, 4776, Note_on_c, 0, 75, 0
2, 4780, Note_on_c, 0, 80, 0
2, 4928, Control_c, 0, 64, 104
2, 4944, Control_c, 0, 64, 72
2, 4960, Control_c, 0, 64, 24
2, 4964, Note_on_c, 0, 46, 68
2, 4972, Control_c, 0, 64, 0
2, 5012, Note_on_c, 0, 51, 73
2, 5032, Note_on_c, 0, 82, 96
2, 5036, Note_on_c, 0, 46, 0
2, 5036, Note_on_c, 0, 70, 92
2, 5036, Note_on_c, 0, 75, 84
2, 5040, Note_on_c, 0, 79, 87
2, 5056, Note_on_c, 0, 61, 78
2, 5072, Control_c, 0, 64, 88
2, 5084, Control_c, 0, 64, 127
2, 5096, Note_on_c, 0, 61, 0
2, 5100, Note_on_c, 0, 51, 0
2, 5100, Note_on_c, 0, 70, 0
2, 5112, Note_on_c, 0, 75, 0
2, 5120, Note_on_c, 0, 79, 0
2, 5136, Note_on_c, 0, 82, 0
2, 5292, Note_on_c, 0, 44, 65
2, 5300, Control_c, 0, 64, 88
2, 5312, Control_c, 0, 64, 24
2, 5328, Control_c, 0, 64, 0
2, 5356, Note_on_c, 0, 44, 0
2, 5356, Note_on_c, 0, 51, 67
2, 5372, Note_on_c, 0, 84, 102
2, 5376, Note_on_c, 0, 75, 86
2, 5376, Note_on_c, 0, 80, 82
2, 5376, Note_on_c, 0, 72, 92
2, 5392, Note_on_c, 0, 60, 79
2, 5412, Control_c, 0, 64, 104
2, 5424, Note_on_c, 0, 60, 0
2, 5424, Note_on_c, 0, 51, 0
2, 5424, Control_c, 0, 64, 127
2, 5436, Note_on_c, 0, 72, 0
2, 5464, Note_on_c, 0, 75, 0
2, 5472, Note_on_c, 0, 84, 0
2, 5556, Note_on_c, 0, 80, 0
2, 5644, Note_on_c, 0, 82, 87
2, 5648, Note_on_c, 0, 70, 92
2, 5652, Note_on_c, 0, 75, 82
2, 5652, Note_on_c, 0, 80, 76
2, 5676, Note_on_c, 0, 80, 0
2, 5676, Note_on_c, 0, 75, 0
2, 5676, Note_on_c, 0, 70, 0
2, 5700, Note_on_c, 0, 82, 0
2, 5740, Note_on_c, 0, 84, 109
2, 5748, Note_on_c, 0, 72, 102
2, 5752, Note_on_c, 0, 75, 80
2, 5752, Note_on_c, 0, 80, 74
2, 5776, Note_on_c, 0, 80, 0
2, 5776, Note_on_c, 0, 75, 0
2, 5780, Note_on_c, 0, 72, 0
2, 5860, Note_on_c, 0, 84, 0
2, 5996, Note_on_c, 0, 41, 74
2, 5996, Control_c, 0, 64, 72
2, 6008, Control_c, 0, 64, 0
2, 6040, Note_on_c, 0, 46, 71
2, 6056, Note_on_c, 0, 41, 0
2, 6084, Note_on_c, 0, 86, 103
2, 6088, Note_on_c, 0, 80, 88
2, 6088, Note_on_c, 0, 74, 102
2, 6092, Note_on_c, 0, 77, 93
2, 6092, Note_on_c, 0, 82, 73
2, 6092, Control_c, 0, 64, 72
2, 6100, Note_on_c, 0, 56, 79
2, 6108, Control_c, 0, 64, 127
2, 6120, Note_on_c, 0, 82, 0
2, 6132, Note_on_c, 0, 74, 0
2, 6140, Note_on_c, 0, 77, 0
2, 6140, Note_on_c, 0, 46, 0
2, 6144, Note_on_c, 0, 80, 0
2, 6144, Note_on_c, 0, 56, 0
2, 6168, Note_on_c, 0, 86, 0
2, 6380, Note_on_c, 0, 39, 70
2, 6380, Control_c, 0, 64, 88
2, 6392, Control_c, 0, 64, 0
2, 6424, Note_on_c, 0, 46, 57
2, 6452, Note_on_c, 0, 39, 0
2, 6468, Note_on_c, 0, 87, 108
2, 6472, Note_on_c, 0, 75, 102
2, 6472, Note_on_c, 0, 82, 87
2, 6476, Note_on_c, 0, 79, 94
2, 6480, Control_c, 0, 64, 127
2, 6484, Note_on_c, 0, 55, 87
2, 6512, Note_on_c, 0, 46, 0
2, 6532, Note_on_c, 0, 75, 0
2, 6536, Note_on_c, 0, 55, 0
2, 6544, Note_on_c, 0, 79, 0
2, 6572, Note_on_c, 0, 87, 0
2, 6580, Note_on_c, 0, 82, 0
2, 6800, Note_on_c, 0, 86, 92
2, 6808, Note_on_c, 0, 82, 71
2, 6812, Note_on_c, 0, 79, 79
2, 6812, Note_on_c, 0, 74, 80
2, 6832, Note_on_c, 0, 39, 64
2, 6836, Note_on_c, 0, 74, 0
2, 6852, Note_on_c, 0, 86, 0
2, 6864, Control_c, 0, 64, 0
2, 6872, Note_on_c, 0, 82, 0
2, 6872, Note_on_c, 0, 46, 65
2, 6876, Note_on_c, 0, 79, 0
2, 6892, Note_on_c, 0, 39, 0
2, 6912, Note_on_c, 0, 87, 102
2, 6912, Note_on_c, 0, 82, 82
2, 6912, Note_on_c, 0, 75, 92
2, 6916, Note_on_c, 0, 79, 96
2, 6932, Note_on_c, 0, 55, 82
2, 6932, Control_c, 0, 64, 88
2, 6948, Control_c, 0, 64, 127
2, 6960, Note_on_c, 0, 46, 0
2, 6964, Note_on_c, 0, 75, 0
2, 6976, Note_on_c, 0, 79, 0
2, 6976, Note_on_c, 0, 55, 0
2, 6988, Note_on_c, 0, 82, 0
2, 6996, Note_on_c, 0, 87, 0
2, 7644, Control_c, 0, 64, 40
2, 7656, Control_c, 0, 64, 0
2, 7756, Control_c, 0, 64, 56
2, 7768, Control_c, 0, 64, 127
2, 7824, Note_on_c, 0, 75, 100
2, 7824, Note_on_c, 0, 63, 90
2, 7824, Note_on_c, 0, 68, 84
2, 7828, Note_on_c, 0, 48, 81
2, 7828, Note_on_c, 0, 56, 75
2, 7836, Note_on_c, 0, 60, 78
2, 7872, Note_on_c, 0, 60, 0
2, 7876, Note_on_c, 0, 48, 0
2, 7880, Note_on_c, 0, 63, 0
2, 7884, Note_on_c, 0, 56, 0
2, 7888, Note_on_c, 0, 68, 0
2, 7932, Note_on_c, 0, 75, 0
2, 8008, Note_on_c, 0, 77, 105
2, 8012, Note_on_c, 0, 68, 81
2, 8016, Note_on_c, 0, 65, 85
2, 8024, Note_on_c, 0, 56, 74
2, 8024, Note_on_c, 0, 49, 80
2, 8028, Note_on_c, 0, 61, 77
2, 8084, Control_c, 0, 64, 72
2, 8096, Control_c, 0, 64, 0
2, 8904, Control_c, 0, 64, 40
2, 8920, Control_c, 0, 64, 88
2, 8936, Control_c, 0, 64, 127
2, 8940, Note_on_c, 0, 77, 0
2, 8960, Note_on_c, 0, 68, 0
2, 8968, Note_on_c, 0, 65, 0
2, 8980, Note_on_c, 0, 56, 0
2, 8980, Note_on_c, 0, 49, 0
2, 8980, Note_on_c, 0, 61, 0
2, 9168, Note_on_c, 0, 56, 67
2, 9168, Note_on_c, 0, 60, 69
2, 9172, Note_on_c, 0, 63, 80
2, 9176, Note_on_c, 0, 75, 90
2, 9180, Note_on_c, 0, 68, 67
2, 9180, Note_on_c, 0, 48, 35
2, 9192, Note_on_c, 0, 60, 0
2, 9196, Note_on_c, 0, 56, 0
2, 9200, Note_on_c, 0, 75, 0
2, 9204, Note_on_c, 0, 68, 0
2, 9208, Note_on_c, 0, 48, 0
2, 9208, Note_on_c, 0, 63, 0
2, 9260, Note_on_c, 0, 68, 77
2, 9260, Note_on_c, 0, 77, 110
2, 9264, Note_on_c, 0, 65, 96
2, 9276, Note_on_c, 0, 61, 80
2, 9276, Note_on_c, 0, 56, 79
2, 9280, Note_on_c, 0, 49, 71
2, 9308, Note_on_c, 0, 65, 0
2, 9316, Note_on_c, 0, 68, 0
2, 9348, Control_c, 0, 64, 88
2, 9360, Control_c, 0, 64, 40
2, 9368, Note_on_c, 0, 68, 37
2, 9372, Note_on_c, 0, 65, 31
2, 9376, Control_c, 0, 64, 0
2, 9956, Control_c, 0, 64, 24
2, 9968, Control_c, 0, 64, 40
2, 9988, Control_c, 0, 64, 56
2, 10000, Control_c, 0, 64, 72
2, 10016, Control_c, 0, 64, 104
2, 10024, Note_on_c, 0, 77, 0
2, 10028, Control_c, 0, 64, 127
2, 10040, Note_on_c, 0, 65, 0
2, 10084, Note_on_c, 0, 56, 0
2, 10084, Note_on_c, 0, 49, 0
2, 10088, Note_on_c, 0, 61, 0
2, 10152, Note_on_c, 0, 68, 0
2, 10260, Note_on_c, 0, 75, 89
2, 10260, Note_on_c, 0, 63, 92
2, 10260, Note_on_c, 0, 56, 76
2, 10264, Note_on_c, 0, 60, 76
2, 10264, Note_on_c, 0, 68, 73
2, 10268, Note_on_c, 0, 48, 76
2, 10292, Note_on_c, 0, 48, 0
2, 10292, Note_on_c, 0, 60, 0
2, 10300, Note_on_c, 0, 63, 0
2, 10316, Note_on_c, 0, 56, 0
2, 10328, Note_on_c, 0, 68, 0
2, 10332, Note_on_c, 0, 75, 0
2, 10368, Note_on_c, 0, 68, 71
2, 10368, Control_c, 0, 64, 88
2, 10372, Note_on_c, 0, 77, 107
2, 10376, Note_on_c, 0, 65, 88
2, 10384, Control_c, 0, 64, 0
2, 10388, Note_on_c, 0, 61, 80
2, 10388, Note_on_c, 0, 56, 65
2, 10392, Note_on_c, 0, 49, 81
2, 10464, Note_on_c, 0, 49, 0
2, 10468, Control_c, 0, 64, 40
2, 10476, Note_on_c, 0, 56, 0
2, 10480, Note_on_c, 0, 61, 0
2, 10484, Control_c, 0, 64, 104
2, 10496, Control_c, 0, 64, 127
2, 10500, Note_on_c, 0, 65, 0
2, 10504, Note_on_c, 0, 77, 0
2, 10560, Note_on_c, 0, 68, 0
2, 10664, Note_on_c, 0, 56, 80
2, 10664, Note_on_c, 0, 75, 82
2, 10668, Note_on_c, 0, 63, 72
2, 10668, Note_on_c, 0, 68, 69
2, 10672, Note_on_c, 0, 60, 70
2, 10672, Note_on_c, 0, 48, 77
2, 10688, Note_on_c, 0, 63, 0
2, 10692, Note_on_c, 0, 68, 0
2, 10696, Note_on_c, 0, 60, 0
2, 10696, Note_on_c, 0, 48, 0
2, 10704, Note_on_c, 0, 75, 0
2, 10712, Note_on_c, 0, 56, 0
2, 10712, Control_c, 0, 64, 104
2, 10724, Control_c, 0, 64, 0
2, 10736, Note_on_c, 0, 68, 78
2, 10740, Note_on_c, 0, 77, 109
2, 10740, Note_on_c, 0, 65, 93
2, 10756, Note_on_c, 0, 56, 73
2, 10764, Note_on_c, 0, 61, 82
2, 10764, Note_on_c, 0, 49, 83
2, 10796, Note_on_c, 0, 65, 0
2, 10796, Control_c, 0, 64, 40
2, 10804, Note_on_c, 0, 68, 0
2, 10804, Note_on_c, 0, 61, 0
2, 10804, Note_on_c, 0, 49, 0
2, 10812, Note_on_c, 0, 56, 0
2, 10812, Control_c, 0, 64, 104
2, 10824, Control_c, 0, 64, 127
2, 10848, Note_on_c, 0, 77, 0
2, 11080, Control_c, 0, 64, 88
2, 11084, Note_on_c, 0, 79, 105
2, 11088, Note_on_c, 0, 67, 96
2, 11092, Note_on_c, 0, 70, 82
2, 11096, Note_on_c, 0, 75, 82
2, 11096, Note_on_c, 0, 63, 88
2, 11096, Control_c, 0, 64, 0
2, 11100, Note_on_c, 0, 51, 78
2, 11104, Note_on_c, 0, 49, 69
2, 11160, Note_on_c, 0, 51, 0
2, 11160, Note_on_c, 0, 63, 0
2, 11164, Note_on_c, 0, 70, 0
2, 11168, Note_on_c, 0, 49, 0
2, 11180, Note_on_c, 0, 67, 0
2, 11180, Control_c, 0, 64, 104
2, 11192, Control_c, 0, 64, 127
2, 11204, Note_on_c, 0, 79, 0
2, 11256, Note_on_c, 0, 75, 0
2, 11340, Note_on_c, 0, 48, 70
2, 11384, Note_on_c, 0, 51, 67
2, 11396, Note_on_c, 0, 48, 0
2, 11408, Control_c, 0, 64, 24
2, 11420, Control_c, 0, 64, 0
2, 11432, Note_on_c, 0, 80, 103
2, 11440, Note_on_c, 0, 68, 87
2, 11444, Note_on_c, 0, 75, 77
2, 11448, Note_on_c, 0, 72, 88
2, 11456, Note_on_c, 0, 63, 81
2, 11472, Note_on_c, 0, 72, 0
2, 11476, Control_c, 0, 64, 56
2, 11492, Control_c, 0, 64, 127
2, 11508, Note_on_c, 0, 63, 0
2, 11520, Note_on_c, 0, 51, 0
2, 11588, Note_on_c, 0, 80, 0
2, 11588, Note_on_c, 0, 68, 0
2, 11588, Note_on_c, 0, 75, 0
2, 11684, Note_on_c, 0, 79, 93
2, 11684, Note_on_c, 0, 75, 71
2, 11688, Note_on_c, 0, 67, 74
2, 11692, Note_on_c, 0, 72, 74
2, 11704, Note_on_c, 0, 79, 0
2, 11712, Note_on_c, 0, 67, 0
2, 11716, Note_on_c, 0, 72, 0
2, 11728, Note_on_c, 0, 75, 0
2, 11764, Note_on_c, 0, 80, 102
2, 11768, Note_on_c, 0, 68, 95
2, 11768, Note_on_c, 0, 75, 85
2, 11776, Note_on_c, 0, 72, 81
2, 11800, Note_on_c, 0, 72, 0
2, 11820, Note_on_c, 0, 68, 0
2, 11840, Note_on_c, 0, 75, 0
2, 11860, Note_on_c, 0, 80, 0
2, 12012, Note_on_c, 0, 46, 67
2, 12016, Control_c, 0, 64, 56
2, 12032, Control_c, 0, 64, 0
2, 12064, Note_on_c, 0, 51, 76
2, 12092, Note_on_c, 0, 46, 0
2, 12096, Note_on_c, 0, 82, 95
2, 12100, Note_on_c, 0, 70, 93
2, 12104, Note_on_c, 0, 79, 90
2, 12104, Note_on_c, 0, 75, 85
2, 12116, Control_c, 0, 64, 40
2, 12120, Note_on_c, 0, 61, 75
2, 12132, Control_c, 0, 64, 127
2, 12160, Note_on_c, 0, 61, 0
2, 12160, Note_on_c, 0, 51, 0
2, 12164, Note_on_c, 0, 70, 0
2, 12188, Note_on_c, 0, 79, 0
2, 12192, Note_on_c, 0, 75, 0
2, 12204, Note_on_c, 0, 82, 0
2, 12348, Note_on_c, 0, 44, 58
2, 12388, Control_c, 0, 64, 56
2, 12400, Control_c, 0, 64, 0
2, 12404, Note_on_c, 0, 51, 71
2, 12420, Note_on_c, 0, 44, 0
2, 12428, Note_on_c, 0, 84, 103
2, 12432, Note_on_c, 0, 75, 95
2, 12436, Note_on_c, 0, 72, 102
2, 12436, Note_on_c, 0, 80, 90
2, 12456, Note_on_c, 0, 60, 77
2, 12472, Control_c, 0, 64, 104
2, 12480, Note_on_c, 0, 51, 0
2, 12488, Note_on_c, 0, 60, 0
2, 12488, Control_c, 0, 64, 127
2, 12536, Note_on_c, 0, 72, 0
2, 12536, Note_on_c, 0, 84, 0
2, 12552, Note_on_c, 0, 75, 0
2, 12576, Note_on_c, 0, 80, 0
2, 12676, Note_on_c, 0, 70, 90
2, 12680, Note_on_c, 0, 82, 73
2, 12680, Note_on_c, 0, 75, 79
2, 12684, Note_on_c, 0, 80, 67
2, 12704, Note_on_c, 0, 75, 0
2, 12704, Note_on_c, 0, 82, 0
2, 12708, Note_on_c, 0, 80, 0
2, 12712, Note_on_c, 0, 70, 0
2, 12760, Note_on_c, 0, 75, 86
2, 12760, Note_on_c, 0, 80, 79
2, 12760, Note_on_c, 0, 72, 109
2, 12764, Note_on_c, 0, 84, 105
2, 12808, Note_on_c, 0, 75, 0
2, 12828, Note_on_c, 0, 72, 0
2, 12868, Note_on_c, 0, 80, 0
2, 12876, Note_on_c, 0, 84, 0
2, 13028, Note_on_c, 0, 41, 65
2, 13028, Control_c, 0, 64, 104
2, 13040, Control_c, 0, 64, 0
2, 13076, Note_on_c, 0, 46, 71
2, 13092, Note_on_c, 0, 41, 0
2, 13092, Note_on_c, 0, 86, 107
2, 13096, Note_on_c, 0, 80, 92
2, 13100, Note_on_c, 0, 74, 103
2, 13104, Note_on_c, 0, 82, 81
2, 13104, Note_on_c, 0, 77, 92
2, 13128, Note_on_c, 0, 56, 78
2, 13140, Control_c, 0, 64, 127
2, 13164, Note_on_c, 0, 56, 0
2, 13164, Note_on_c, 0, 46, 0
2, 13172, Note_on_c, 0, 74, 0
2, 13180, Note_on_c, 0, 77, 0
2, 13204, Note_on_c, 0, 86, 0
2, 13204, Note_on_c, 0, 82, 0
2, 13208, Note_on_c, 0, 80, 0
2, 13376, Note_on_c, 0, 39, 72
2, 13380, Control_c, 0, 64, 104
2, 13396, Control_c, 0, 64, 0
2, 13416, Note_on_c, 0, 46, 59
2, 13436, Note_on_c, 0, 39, 0
2, 13460, Note_on_c, 0, 87, 106
2, 13464, Note_on_c, 0, 75, 99
2, 13464, Note_on_c, 0, 82, 88
2, 13468, Note_on_c, 0, 79, 96
2, 13480, Note_on_c, 0, 55, 82
2, 13480, Control_c, 0, 64, 72
2, 13496, Control_c, 0, 64, 127
2, 13512, Note_on_c, 0, 46, 0
2, 13528, Note_on_c, 0, 55, 0
2, 13576, Note_on_c, 0, 79, 0
2, 13580, Note_on_c, 0, 75, 0
2, 13596, Note_on_c, 0, 87, 0
2, 13612, Note_on_c, 0, 82, 0
2, 13784, Note_on_c, 0, 86, 89
2, 13784, Note_on_c, 0, 82, 73
2, 13784, Note_on_c, 0, 79, 81
2, 13788, Note_on_c, 0, 74, 80
2, 13808, Note_on_c, 0, 74, 0
2, 13816, Note_on_c, 0, 39, 65
2, 13820, Note_on_c, 0, 46, 53
2, 13836, Note_on_c, 0, 86, 0
2, 13848, Note_on_c, 0, 82, 0
2, 13848, Note_on_c, 0, 79, 0
2, 13848, Control_c, 0, 64, 88
2, 13864, Control_c, 0, 64, 0
2, 13876, Note_on_c, 0, 39, 0
2, 13888, Note_on_c, 0, 82, 89
2, 13888, Note_on_c, 0, 87, 103
2, 13888, Note_on_c, 0, 79, 93
2, 13892, Note_on_c, 0, 75, 97
2, 13912, Note_on_c, 0, 55, 77
2, 13936, Control_c, 0, 64, 127
2, 13940, Note_on_c, 0, 75, 0
2, 13944, Note_on_c, 0, 46, 0
2, 13948, Note_on_c, 0, 55, 0
2, 13956, Note_on_c, 0, 79, 0
2, 13960, Note_on_c, 0, 82, 0
2, 13972, Note_on_c, 0, 87, 0
2, 14732, Control_c, 0, 64, 88
2, 14744, Control_c, 0, 64, 0
2, 14860, Note_on_c, 0, 75, 91
2, 14896, Note_on_c, 0, 63, 72
2, 14900, Control_c, 0, 64, 40
2, 14916, Control_c, 0, 64, 88
2, 14924, Note_on_c, 0, 63, 0
2, 14928, Control_c, 0, 64, 127
2, 14960, Note_on_c, 0, 75, 0
2, 15020, Note_on_c, 0, 76, 96
2, 15028, Note_on_c, 0, 64, 72
2, 15072, Control_c, 0, 64, 88
2, 15084, Control_c, 0, 64, 24
2, 15100, Control_c, 0, 64, 0
2, 15200, Control_c, 0, 64, 40
2, 15212, Control_c, 0, 64, 104
2, 15228, Control_c, 0, 64, 127
2, 15424, Note_on_c, 0, 70, 48
2, 15428, Note_on_c, 0, 51, 51
2, 15436, Note_on_c, 0, 61, 40
2, 15436, Note_on_c, 0, 67, 47
2, 15440, Note_on_c, 0, 58, 42
2, 15440, Control_c, 0, 64, 104
2, 15456, Control_c, 0, 64, 24
2, 15468, Control_c, 0, 64, 0
2, 15568, Control_c, 0, 64, 88
2, 15580, Control_c, 0, 64, 127
2, 15612, Note_on_c, 0, 67, 0
2, 15648, Note_on_c, 0, 70, 0
2, 15652, Note_on_c, 0, 76, 0
2, 15660, Note_on_c, 0, 51, 0
2, 15676, Note_on_c, 0, 64, 0
2, 15960, Note_on_c, 0, 61, 0
2, 16048, Note_on_c, 0, 58, 0
2, 16084, Note_on_c, 0, 63, 63
2, 16084, Note_on_c, 0, 75, 83
2, 16144, Note_on_c, 0, 63, 0
2, 16176, Note_on_c, 0, 75, 0
2, 16180, Note_on_c, 0, 76, 90
2, 16196, Note_on_c, 0, 64, 77
2, 16236, Control_c, 0, 64, 56
2, 16248, Control_c, 0, 64, 0
2, 16352, Control_c, 0, 64, 72
2, 16364, Control_c, 0, 64, 127
2, 16580, Note_on_c, 0, 70, 43
2, 16580, Note_on_c, 0, 51, 42
2, 16584, Note_on_c, 0, 67, 39
2, 16584, Note_on_c, 0, 61, 31
2, 16588, Note_on_c, 0, 58, 28
2, 16676, Control_c, 0, 64, 88
2, 16692, Control_c, 0, 64, 24
2, 16704, Control_c, 0, 64, 0
2, 16776, Control_c, 0, 64, 56
2, 16788, Control_c, 0, 64, 127
2, 16808, Note_on_c, 0, 51, 0
2, 16808, Note_on_c, 0, 64, 0
2, 17036, Note_on_c, 0, 61, 0
2, 17052, Note_on_c, 0, 76, 0
2, 17080, Note_on_c, 0, 67, 0
2, 17088, Note_on_c, 0, 70, 0
2, 17108, Note_on_c, 0, 58, 0
2, 17152, Note_on_c, 0, 63, 58
2, 17156, Note_on_c, 0, 75, 80
2, 17208, Note_on_c, 0, 63, 0
2, 17228, Note_on_c, 0, 75, 0
2, 17264, Note_on_c, 0, 76, 99
2, 17272, Control_c, 0, 64, 88
2, 17280, Note_on_c, 0, 61, 47
2, 17280, Note_on_c, 0, 64, 63
2, 17284, Note_on_c, 0, 73, 58
2, 17288, Control_c, 0, 64, 0
2, 17304, Note_on_c, 0, 52, 41
2, 17372, Note_on_c, 0, 73, 0
2, 17372, Control_c, 0, 64, 88
2, 17376, Note_on_c, 0, 76, 0
2, 17384, Note_on_c, 0, 64, 0
2, 17388, Note_on_c, 0, 61, 0
2, 17388, Note_on_c, 0, 52, 0
2, 17388, Control_c, 0, 64, 127
2, 17616, Note_on_c, 0, 75, 86
2, 17616, Note_on_c, 0, 71, 68
2, 17616, Note_on_c, 0, 63, 54
2, 17616, Note_on_c, 0, 51, 63
2, 17644, Note_on_c, 0, 59, 56
2, 17656, Control_c, 0, 64, 56
2, 17668, Control_c, 0, 64, 0
2, 17688, Note_on_c, 0, 63, 0
2, 17696, Note_on_c, 0, 59, 0
2, 17704, Note_on_c, 0, 51, 0
2, 17704, Note_on_c, 0, 71, 0
2, 17728, Control_c, 0, 64, 24
2, 17740, Control_c, 0, 64, 88
2, 17756, Control_c, 0, 64, 127
2, 17880, Note_on_c, 0, 75, 0
2, 17972, Note_on_c, 0, 73, 85
2, 17988, Note_on_c, 0, 61, 44
2, 17992, Note_on_c, 0, 49, 49
2, 17992, Note_on_c, 0, 58, 43
2, 17996, Note_on_c, 0, 70, 44
2, 18000, Control_c, 0, 64, 104
2, 18008, Control_c, 0, 64, 24
2, 18028, Control_c, 0, 64, 0
2, 18084, Control_c, 0, 64, 40
2, 18096, Note_on_c, 0, 61, 0
2, 18096, Control_c, 0, 64, 127
2, 18104, Note_on_c, 0, 58, 0
2, 18104, Note_on_c, 0, 49, 0
2, 18116, Note_on_c, 0, 73, 0
2, 18140, Note_on_c, 0, 70, 0
2, 18324, Note_on_c, 0, 73, 84
2, 18324, Note_on_c, 0, 49, 56
2, 18324, Note_on_c, 0, 61, 47
2, 18336, Note_on_c, 0, 58, 44
2, 18340, Note_on_c, 0, 70, 46
2, 18368, Control_c, 0, 64, 72
2, 18380, Control_c, 0, 64, 0
2, 18424, Control_c, 0, 64, 24
2, 18432, Note_on_c, 0, 70, 0
2, 18436, Control_c, 0, 64, 88
2, 18448, Note_on_c, 0, 58, 0
2, 18452, Control_c, 0, 64, 127
2, 18464, Note_on_c, 0, 61, 0
2, 18464, Note_on_c, 0, 49, 0
2, 18632, Note_on_c, 0, 73, 0
2, 18704, Note_on_c, 0, 71, 75
2, 18712, Note_on_c, 0, 68, 53
2, 18716, Note_on_c, 0, 47, 57
2, 18716, Note_on_c, 0, 56, 55
2, 18720, Note_on_c, 0, 59, 49
2, 18820, Control_c, 0, 64, 56
2, 18836, Control_c, 0, 64, 0
2, 19064, Control_c, 0, 64, 104
2, 19076, Control_c, 0, 64, 127
2, 19084, Note_on_c, 0, 59, 0
2, 19112, Note_on_c, 0, 56, 0
2, 19120, Note_on_c, 0, 47, 0
2, 19124, Note_on_c, 0, 71, 0
2, 19128, Note_on_c, 0, 68, 0
2, 19340, Note_on_c, 0, 78, 96
2, 19340, Note_on_c, 0, 66, 88
2, 19344, Note_on_c, 0, 75, 77
2, 19348, Note_on_c, 0, 71, 82
2, 19352, Note_on_c, 0, 47, 87
2, 19352, Note_on_c, 0, 35, 70
2, 19380, Note_on_c, 0, 35, 0
2, 19396, Note_on_c, 0, 66, 0
2, 19400, Note_on_c, 0, 47, 0
2, 19408, Note_on_c, 0, 71, 0
2, 19420, Note_on_c, 0, 75, 0
2, 19432, Note_on_c, 0, 78, 0
2, 19536, Note_on_c, 0, 80, 100
2, 19544, Note_on_c, 0, 68, 87
2, 19548, Note_on_c, 0, 76, 84
2, 19548, Note_on_c, 0, 71, 86
2, 19556, Note_on_c, 0, 52, 79
2, 19556, Note_on_c, 0, 40, 70
2, 19588, Control_c, 0, 64, 88
2, 19604, Control_c, 0, 64, 0
2, 20356, Control_c, 0, 64, 40
2, 20368, Control_c, 0, 64, 127
2, 20392, Note_on_c, 0, 52, 0
2, 20400, Note_on_c, 0, 80, 0
2, 20400, Note_on_c, 0, 40, 0
2, 20404, Note_on_c, 0, 71, 0
2, 20408, Note_on_c, 0, 76, 0
2, 20444, Note_on_c, 0, 68, 0
2, 20652, Note_on_c, 0, 78, 85
2, 20656, Note_on_c, 0, 66, 82
2, 20660, Note_on_c, 0, 71, 76
2, 20664, Note_on_c, 0, 35, 72
2, 20668, Note_on_c, 0, 47, 77
2, 20688, Note_on_c, 0, 47, 0
2, 20688, Note_on_c, 0, 71, 0
2, 20688, Note_on_c, 0, 35, 0
2, 20688, Note_on_c, 0, 76, 52
2, 20696, Note_on_c, 0, 66, 0
2, 20704, Note_on_c, 0, 78, 0
2, 20712, Note_on_c, 0, 76, 0
2, 20748, Note_on_c, 0, 80, 103
2, 20752, Note_on_c, 0, 68, 93
2, 20752, Note_on_c, 0, 76, 88
2, 20756, Note_on_c, 0, 71, 88
2, 20772, Note_on_c, 0, 52, 92
2, 20780, Note_on_c, 0, 40, 82
2, 20824, Control_c, 0, 64, 56
2, 20836, Control_c, 0, 64, 0
2, 21208, Control_c, 0, 64, 24
2, 21220, Note_on_c, 0, 52, 0
2, 21220, Control_c, 0, 64, 72
2, 21236, Control_c, 0, 64, 104
2, 21248, Control_c, 0, 64, 127
2, 21416, Note_on_c, 0, 80, 0
2, 21428, Note_on_c, 0, 40, 0
2, 21436, Note_on_c, 0, 71, 0
2, 21456, Note_on_c, 0, 76, 0
2, 21476, Note_on_c, 0, 68, 0
2, 21674, Note_on_c, 0, 35, 77
2, 21674, Note_on_c, 0, 71, 78
2, 21674, Note_on_c, 0, 78, 90
2, 21674, Note_on_c, 0, 75, 79
2, 21674, Note_on_c, 0, 66, 89
2, 21674, Note_on_c, 0, 47, 82
2, 21702, Note_on_c, 0, 47, 0
2, 21702, Note_on_c, 0, 35, 0
2, 21722, Note_on_c, 0, 66, 0
2, 21758, Note_on_c, 0, 75, 0
2, 21766, Note_on_c, 0, 78, 0
2, 21774, Note_on_c, 0, 71, 0
2, 21800, Note_on_c, 0, 80, 93
2, 21804, Control_c, 0, 64, 56
2, 21808, Note_on_c, 0, 76, 87
2, 21808, Note_on_c, 0, 68, 83
2, 21808, Note_on_c, 0, 71, 87
2, 21820, Control_c, 0, 64, 0
2, 21828, Note_on_c, 0, 52, 78
2, 21836, Note_on_c, 0, 40, 60
2, 21868, Note_on_c, 0, 40, 0
2, 21880, Note_on_c, 0, 52, 0
2, 21888, Control_c, 0, 64, 88
2, 21904, Control_c, 0, 64, 127
2, 21920, Note_on_c, 0, 80, 0
2, 21924, Note_on_c, 0, 76, 0
2, 21948, Note_on_c, 0, 68, 0
2, 22000, Note_on_c, 0, 71, 0
2, 22072, Note_on_c, 0, 78, 84
2, 22080, Note_on_c, 0, 66, 78
2, 22096, Note_on_c, 0, 54, 88
2, 22096, Note_on_c, 0, 71, 49
2, 22096, Note_on_c, 0, 42, 80
2, 22120, Note_on_c, 0, 66, 0
2, 22124, Note_on_c, 0, 71, 0
2, 22124, Note_on_c, 0, 78, 0
2, 22136, Note_on_c, 0, 54, 0
2, 22140, Note_on_c, 0, 42, 0
2, 22172, Note_on_c, 0, 76, 105
2, 22172, Note_on_c, 0, 64, 94
2, 22172, Control_c, 0, 64, 24
2, 22176, Note_on_c, 0, 71, 90
2, 22188, Control_c, 0, 64, 0
2, 22204, Note_on_c, 0, 56, 81
2, 22216, Note_on_c, 0, 44, 46
2, 22220, Note_on_c, 0, 64, 0
2, 22232, Control_c, 0, 64, 56
2, 22240, Note_on_c, 0, 71, 0
2, 22244, Note_on_c, 0, 44, 0
2, 22244, Control_c, 0, 64, 127
2, 22248, Note_on_c, 0, 56, 0
2, 22260, Note_on_c, 0, 76, 0
2, 22484, Control_c, 0, 64, 104
2, 22500, Control_c, 0, 64, 24
2, 22516, Note_on_c, 0, 75, 93
2, 22516, Control_c, 0, 64, 0
2, 22524, Note_on_c, 0, 63, 91
2, 22528, Note_on_c, 0, 71, 88
2, 22532, Note_on_c, 0, 59, 86
2, 22532, Note_on_c, 0, 47, 84
2, 22584, Note_on_c, 0, 47, 0
2, 22584, Control_c, 0, 64, 72
2, 22596, Note_on_c, 0, 59, 0
2, 22600, Control_c, 0, 64, 127
2, 22620, Note_on_c, 0, 63, 0
2, 22624, Note_on_c, 0, 71, 0
2, 22648, Note_on_c, 0, 75, 0
2, 22856, Control_c, 0, 64, 104
2, 22868, Control_c, 0, 64, 24
2, 22884, Control_c, 0, 64, 0
2, 22888, Note_on_c, 0, 74, 97
2, 22888, Note_on_c, 0, 58, 83
2, 22888, Note_on_c, 0, 70, 81
2, 22892, Note_on_c, 0, 62, 90
2, 22896, Note_on_c, 0, 46, 68
2, 22900, Note_on_c, 0, 44, 62
2, 22928, Note_on_c, 0, 44, 0
2, 22940, Control_c, 0, 64, 56
2, 22952, Note_on_c, 0, 62, 0
2, 22956, Note_on_c, 0, 58, 0
2, 22956, Note_on_c, 0, 46, 0
2, 22956, Control_c, 0, 64, 127
2, 23004, Note_on_c, 0, 74, 0
2, 23008, Note_on_c, 0, 70, 0
2, 23120, Note_on_c, 0, 43, 62
2, 23172, Note_on_c, 0, 46, 71
2, 23196, Note_on_c, 0, 43, 0
2, 23196, Control_c, 0, 64, 72
2, 23208, Control_c, 0, 64, 0
2, 23256, Note_on_c, 0, 75, 96
2, 23260, Note_on_c, 0, 70, 85
2, 23260, Note_on_c, 0, 63, 93
2, 23272, Note_on_c, 0, 58, 85
2, 23296, Control_c, 0, 64, 104
2, 23308, Control_c, 0, 64, 127
2, 23324, Note_on_c, 0, 58, 0
2, 23328, Note_on_c, 0, 46, 0
2, 23328, Note_on_c, 0, 63, 0
2, 23352, Note_on_c, 0, 75, 0
2, 23360, Note_on_c, 0, 70, 0
2, 23760, Control_c, 0, 64, 40
2, 23780, Control_c, 0, 64, 0
2, 23832, Note_on_c, 0, 63, 91
2, 23836, Note_on_c, 0, 75, 95
2, 23836, Note_on_c, 0, 68, 85
2, 23840, Note_on_c, 0, 60, 84
2, 23840, Note_on_c, 0, 56, 77
2, 23848, Note_on_c, 0, 48, 84
2, 23848, Control_c, 0, 64, 127
2, 23872, Note_on_c, 0, 48, 0
2, 23888, Note_on_c, 0, 63, 0
2, 23896, Note_on_c, 0, 60, 0
2, 23896, Note_on_c, 0, 56, 0
2, 23916, Note_on_c, 0, 75, 0
2, 23980, Note_on_c, 0, 68, 0
2, 24004, Control_c, 0, 64, 72
2, 24020, Control_c, 0, 64, 0
2, 24028, Note_on_c, 0, 77, 110
2, 24028, Note_on_c, 0, 68, 80
2, 24032, Note_on_c, 0, 65, 94
2, 24036, Note_on_c, 0, 61, 89
2, 24036, Note_on_c, 0, 56, 81
2, 24040, Note_on_c, 0, 49, 79
2, 24120, Control_c, 0, 64, 127
2, 24124, Note_on_c, 0, 61, 0
2, 24128, Note_on_c, 0, 56, 0
2, 24128, Note_on_c, 0, 77, 0
2, 24136, Note_on_c, 0, 65, 0
2, 24136, Note_on_c, 0, 49, 0
2, 24144, Note_on_c, 0, 68, 0
2, 24428, Note_on_c, 0, 61, 96
2, 24440, Note_on_c, 0, 53, 86
2, 24440, Note_on_c, 0, 56, 77
2, 24448, Note_on_c, 0, 49, 87
2, 24452, Note_on_c, 0, 37, 81
2, 24452, Note_on_c, 0, 44, 74
2, 24476, Control_c, 0, 64, 40
2, 24488, Control_c, 0, 64, 0
2, 24588, Control_c, 0, 64, 127
2, 24692, Note_on_c, 0, 53, 0
2, 24708, Note_on_c, 0, 56, 0
2, 24728, Note_on_c, 0, 37, 0
2, 24744, Note_on_c, 0, 49, 0
2, 24752, Note_on_c, 0, 61, 0
2, 24756, Note_on_c, 0, 44, 0
2, 25140, Note_on_c, 0, 63, 77
2, 25144, Note_on_c, 0, 75, 88
2, 25144, Note_on_c, 0, 56, 83
2, 25148, Note_on_c, 0, 68, 73
2, 25152, Note_on_c, 0, 60, 82
2, 25156, Note_on_c, 0, 48, 74
2, 25164, Note_on_c, 0, 63, 0
2, 25180, Note_on_c, 0, 60, 0
2, 25180, Note_on_c, 0, 68, 0
2, 25180, Note_on_c, 0, 75, 0
2, 25180, Note_on_c, 0, 48, 0
2, 25192, Note_on_c, 0, 56, 0
2, 25228, Control_c, 0, 64, 72
2, 25240, Note_on_c, 0, 68, 93
2, 25240, Note_on_c, 0, 77, 104
2, 25240, Note_on_c, 0, 65, 103
2, 25240, Control_c, 0, 64, 0
2, 25252, Note_on_c, 0, 61, 92
2, 25256, Note_on_c, 0, 49, 87
2, 25256, Note_on_c, 0, 56, 76
2, 25288, Note_on_c, 0, 49, 0
2, 25292, Note_on_c, 0, 61, 0
2, 25292, Note_on_c, 0, 56, 0
2, 25296, Note_on_c, 0, 68, 0
2, 25312, Control_c, 0, 64, 127
2, 25320, Note_on_c, 0, 65, 0
2, 25332, Note_on_c, 0, 77, 0
2, 25660, Note_on_c, 0, 61, 97
2, 25668, Note_on_c, 0, 56, 83
2, 25668, Note_on_c, 0, 53, 89
2, 25676, Note_on_c, 0, 44, 83
2, 25676, Note_on_c, 0, 49, 87
2, 25676, Note_on_c, 0, 37, 80
2, 25724, Control_c, 0, 64, 104
2, 25736, Control_c, 0, 64, 0
2, 25824, Control_c, 0, 64, 127
2, 25840, Note_on_c, 0, 53, 0
2, 25868, Note_on_c, 0, 56, 0
2, 25868, Note_on_c, 0, 37, 0
2, 25876, Note_on_c, 0, 49, 0
2, 25892, Note_on_c, 0, 44, 0
2, 25908, Note_on_c, 0, 61, 0
2, 26344, Note_on_c, 0, 56, 76
2, 26344, Note_on_c, 0, 63, 84
2, 26344, Note_on_c, 0, 60, 82
2, 26348, Note_on_c, 0, 68, 73
2, 26348, Note_on_c, 0, 75, 89
2, 26356, Note_on_c, 0, 48, 70
2, 26372, Note_on_c, 0, 63, 0
2, 26376, Note_on_c, 0, 60, 0
2, 26376, Note_on_c, 0, 48, 0
2, 26388, Note_on_c, 0, 75, 0
2, 26392, Note_on_c, 0, 56, 0
2, 26396, Note_on_c, 0, 68, 0
2, 26456, Note_on_c, 0, 68, 85
2, 26456, Note_on_c, 0, 65, 93
2, 26456, Note_on_c, 0, 77, 95
2, 26468, Note_on_c, 0, 61, 89
2, 26468, Note_on_c, 0, 56, 84
2, 26472, Note_on_c, 0, 49, 86
2, 26476, Control_c, 0, 64, 88
2, 26492, Control_c, 0, 64, 0
2, 26532, Note_on_c, 0, 49, 0
2, 26532, Note_on_c, 0, 56, 0
2, 26536, Note_on_c, 0, 61, 0
2, 26548, Control_c, 0, 64, 104
2, 26564, Control_c, 0, 64, 127
2, 26568, Note_on_c, 0, 65, 0
2, 26572, Note_on_c, 0, 77, 0
2, 26656, Note_on_c, 0, 68, 0
2, 26752, Note_on_c, 0, 75, 94
2, 26752, Note_on_c, 0, 56, 80
2, 26756, Note_on_c, 0, 63, 81
2, 26764, Note_on_c, 0, 68, 74
2, 26768, Note_on_c, 0, 60, 71
2, 26780, Note_on_c, 0, 63, 0
2, 26788, Note_on_c, 0, 68, 0
2, 26792, Note_on_c, 0, 60, 0
2, 26792, Note_on_c, 0, 75, 0
2, 26808, Note_on_c, 0, 56, 0
2, 26844, Note_on_c, 0, 68, 84
2, 26844, Note_on_c, 0, 65, 94
2, 26844, Note_on_c, 0, 77, 109
2, 26848, Note_on_c, 0, 56, 71
2, 26848, Control_c, 0, 64, 0
2, 26860, Note_on_c, 0, 49, 77
2, 26860, Note_on_c, 0, 61, 82
2, 26904, Note_on_c, 0, 49, 0
2, 26908, Note_on_c, 0, 61, 0
2, 26916, Note_on_c, 0, 65, 0
2, 26916, Note_on_c, 0, 56, 0
2, 26916, Control_c, 0, 64, 88
2, 26928, Note_on_c, 0, 68, 0
2, 26932, Control_c, 0, 64, 127
2, 26984, Note_on_c, 0, 77, 0
2, 27164, Note_on_c, 0, 51, 65
2, 27164, Note_on_c, 0, 49, 65
2, 27188, Control_c, 0, 64, 88
2, 27200, Note_on_c, 0, 79, 103
2, 27200, Control_c, 0, 64, 0
2, 27212, Note_on_c, 0, 67, 94
2, 27212, Note_on_c, 0, 70, 87
2, 27212, Note_on_c, 0, 75, 83
2, 27224, Note_on_c, 0, 63, 90
2, 27236, Note_on_c, 0, 49, 0
2, 27248, Note_on_c, 0, 56, 51
2, 27256, Control_c, 0, 64, 40
2, 27264, Note_on_c, 0, 51, 0
2, 27272, Note_on_c, 0, 63, 0
2, 27272, Note_on_c, 0, 56, 0
2, 27272, Control_c, 0, 64, 127
2, 27308, Note_on_c, 0, 70, 0
2, 27308, Note_on_c, 0, 67, 0
2, 27328, Note_on_c, 0, 79, 0
2, 27412, Note_on_c, 0, 75, 0
2, 27476, Note_on_c, 0, 48, 75
2, 27512, Note_on_c, 0, 51, 67
2, 27528, Control_c, 0, 64, 104
2, 27544, Control_c, 0, 64, 0
2, 27548, Note_on_c, 0, 48, 0
2, 27564, Note_on_c, 0, 80, 102
2, 27576, Note_on_c, 0, 75, 84
2, 27576, Note_on_c, 0, 68, 87
2, 27584, Note_on_c, 0, 63, 85
2, 27584, Note_on_c, 0, 72, 89
2, 27600, Control_c, 0, 64, 56
2, 27604, Note_on_c, 0, 51, 0
2, 27612, Control_c, 0, 64, 127
2, 27624, Note_on_c, 0, 63, 0
2, 27700, Note_on_c, 0, 68, 0
2, 27704, Note_on_c, 0, 72, 0
2, 27736, Note_on_c, 0, 80, 0
2, 27748, Note_on_c, 0, 75, 0
2, 27828, Note_on_c, 0, 79, 97
2, 27836, Note_on_c, 0, 75, 69
2, 27840, Note_on_c, 0, 67, 65
2, 27840, Note_on_c, 0, 72, 74
2, 27864, Note_on_c, 0, 67, 0
2, 27868, Note_on_c, 0, 79, 0
2, 27872, Note_on_c, 0, 72, 0
2, 27880, Note_on_c, 0, 75, 0
2, 27916, Note_on_c, 0, 80, 107
2, 27916, Note_on_c, 0, 68, 91
2, 27920, Note_on_c, 0, 75, 89
2, 27924, Note_on_c, 0, 72, 93
2, 27980, Note_on_c, 0, 72, 0
2, 27980, Note_on_c, 0, 68, 0
2, 28000, Note_on_c, 0, 75, 0
2, 28000, Note_on_c, 0, 80, 0
2, 28252, Control_c, 0, 64, 104
2, 28268, Control_c, 0, 64, 0
2, 28280, Note_on_c, 0, 75, 95
2, 28280, Note_on_c, 0, 63, 90
2, 28284, Note_on_c, 0, 68, 83
2, 28300, Note_on_c, 0, 48, 84
2, 28312, Note_on_c, 0, 36, 75
2, 28380, Control_c, 0, 64, 104
2, 28392, Note_on_c, 0, 63, 0
2, 28392, Control_c, 0, 64, 127
2, 28412, Note_on_c, 0, 36, 0
2, 28416, Note_on_c, 0, 68, 0
2, 28428, Note_on_c, 0, 75, 0
2, 28440, Note_on_c, 0, 48, 0
2, 28636, Control_c, 0, 64, 40
2, 28640, Note_on_c, 0, 77, 99
2, 28648, Note_on_c, 0, 65, 92
2, 28648, Note_on_c, 0, 68, 86
2, 28648, Control_c, 0, 64, 0
2, 28652, Note_on_c, 0, 49, 92
2, 28656, Note_on_c, 0, 37, 73
2, 28708, Note_on_c, 0, 49, 0
2, 28708, Control_c, 0, 64, 40
2, 28720, Control_c, 0, 64, 127
2, 28724, Note_on_c, 0, 77, 0
2, 28724, Note_on_c, 0, 37, 0
2, 28732, Note_on_c, 0, 65, 0
2, 28768, Note_on_c, 0, 68, 0
2, 28912, Note_on_c, 0, 48, 74
2, 28916, Note_on_c, 0, 36, 66
2, 28920, Note_on_c, 0, 63, 87
2, 28920, Note_on_c, 0, 75, 78
2, 28924, Note_on_c, 0, 68, 73
2, 28936, Note_on_c, 0, 48, 0
2, 28940, Note_on_c, 0, 36, 0
2, 28960, Note_on_c, 0, 68, 0
2, 28964, Note_on_c, 0, 63, 0
2, 28964, Note_on_c, 0, 75, 0
2, 28992, Control_c, 0, 64, 40
2, 29004, Control_c, 0, 64, 0
2, 29012, Note_on_c, 0, 63, 85
2, 29012, Note_on_c, 0, 73, 92
2, 29012, Note_on_c, 0, 68, 79
2, 29016, Note_on_c, 0, 46, 92
2, 29020, Note_on_c, 0, 34, 81
2, 29048, Control_c, 0, 64, 40
2, 29056, Note_on_c, 0, 34, 0
2, 29056, Note_on_c, 0, 46, 0
2, 29064, Control_c, 0, 64, 127
2, 29084, Note_on_c, 0, 73, 0
2, 29088, Note_on_c, 0, 63, 0
2, 29100, Note_on_c, 0, 68, 0
2, 29204, Control_c, 0, 64, 104
2, 29220, Control_c, 0, 64, 72
2, 29232, Control_c, 0, 64, 24
2, 29248, Control_c, 0, 64, 0
2, 29364, Note_on_c, 0, 73, 90
2, 29364, Note_on_c, 0, 58, 83
2, 29364, Note_on_c, 0, 67, 85
2, 29388, Note_on_c, 0, 51, 93
2, 29388, Note_on_c, 0, 39, 70
2, 29404, Control_c, 0, 64, 88
2, 29416, Control_c, 0, 64, 127
2, 29432, Note_on_c, 0, 58, 0
2, 29436, Note_on_c, 0, 51, 0
2, 29448, Note_on_c, 0, 39, 0
2, 29460, Note_on_c, 0, 67, 0
2, 29488, Note_on_c, 0, 73, 0
2, 29672, Control_c, 0, 64, 104
2, 29688, Control_c, 0, 64, 40
2, 29700, Control_c, 0, 64, 0
2, 29740, Note_on_c, 0, 72, 92
2, 29744, Note_on_c, 0, 60, 92
2, 29744, Note_on_c, 0, 68, 76
2, 29748, Note_on_c, 0, 44, 76
2, 29752, Note_on_c, 0, 32, 73
2, 29784, Control_c, 0, 64, 72
2, 29792, Note_on_c, 0, 60, 0
2, 29800, Control_c, 0, 64, 127
2, 29808, Note_on_c, 0, 44, 0
2, 29812, Note_on_c, 0, 32, 0
2, 29816, Note_on_c, 0, 72, 0
2, 29840, Note_on_c, 0, 68, 0
2, 30000, Note_on_c, 0, 46, 82
2, 30000, Note_on_c, 0, 73, 83
2, 30000, Note_on_c, 0, 61, 77
2, 30000, Note_on_c, 0, 34, 68
2, 30012, Note_on_c, 0, 68, 55
2, 30024, Note_on_c, 0, 46, 0
2, 30028, Note_on_c, 0, 34, 0
2, 30036, Note_on_c, 0, 68, 0
2, 30040, Note_on_c, 0, 61, 0
2, 30040, Note_on_c, 0, 73, 0
2, 30072, Control_c, 0, 64, 24
2, 30084, Control_c, 0, 64, 0
2, 30092, Note_on_c, 0, 75, 95
2, 30096, Note_on_c, 0, 63, 92
2, 30096, Note_on_c, 0, 68, 69
2, 30112, Note_on_c, 0, 73, 39
2, 30116, Control_c, 0, 64, 24
2, 30120, Note_on_c, 0, 48, 81
2, 30124, Control_c, 0, 64, 72
2, 30128, Note_on_c, 0, 36, 65
2, 30136, Note_on_c, 0, 73, 0
2, 30140, Control_c, 0, 64, 127
2, 30144, Note_on_c, 0, 48, 0
2, 30152, Note_on_c, 0, 68, 0
2, 30152, Note_on_c, 0, 63, 0
2, 30152, Note_on_c, 0, 36, 0
2, 30184, Note_on_c, 0, 75, 0
2, 30368, Control_c, 0, 64, 88
2, 30384, Control_c, 0, 64, 40
2, 30396, Control_c, 0, 64, 0
2, 30460, Note_on_c, 0, 63, 97
2, 30460, Note_on_c, 0, 75, 99
2, 30468, Note_on_c, 0, 68, 82
2, 30472, Note_on_c, 0, 48, 84
2, 30476, Note_on_c, 0, 60, 74
2, 30476, Note_on_c, 0, 56, 71
2, 30512, Control_c, 0, 64, 40
2, 30524, Control_c, 0, 64, 104
2, 30540, Note_on_c, 0, 48, 0
2, 30540, Control_c, 0, 64, 127
2, 30552, Note_on_c, 0, 60, 0
2, 30568, Note_on_c, 0, 63, 0
2, 30600, Note_on_c, 0, 56, 0
2, 30608, Note_on_c, 0, 68, 0
2, 30620, Note_on_c, 0, 75, 0
2, 30780, Control_c, 0, 64, 88
2, 30792, Control_c, 0, 64, 0
2, 30824, Note_on_c, 0, 77, 100
2, 30828, Note_on_c, 0, 65, 96
2, 30828, Note_on_c, 0, 49, 80
2, 30828, Note_on_c, 0, 61, 81
2, 30828, Note_on_c, 0, 68, 86
2, 30828, Note_on_c, 0, 56, 73
2, 30868, Control_c, 0, 64, 40
2, 30880, Note_on_c, 0, 61, 0
2, 30880, Control_c, 0, 64, 127
2, 30888, Note_on_c, 0, 49, 0
2, 30896, Note_on_c, 0, 56, 0
2, 30936, Note_on_c, 0, 65, 0
2, 30944, Note_on_c, 0, 77, 0
2, 30988, Note_on_c, 0, 68, 0
2, 31080, Note_on_c, 0, 56, 80
2, 31092, Note_on_c, 0, 63, 88
2, 31092, Note_on_c, 0, 75, 94
2, 31092, Note_on_c, 0, 48, 72
2, 31092, Note_on_c, 0, 60, 60
2, 31096, Note_on_c, 0, 68, 67
2, 31116, Note_on_c, 0, 60, 0
2, 31116, Note_on_c, 0, 48, 0
2, 31120, Note_on_c, 0, 68, 0
2, 31132, Note_on_c, 0, 63, 0
2, 31136, Note_on_c, 0, 75, 0
2, 31136, Note_on_c, 0, 56, 0
2, 31164, Control_c, 0, 64, 56
2, 31180, Note_on_c, 0, 56, 76
2, 31180, Control_c, 0, 64, 0
2, 31184, Note_on_c, 0, 65, 97
2, 31184, Note_on_c, 0, 77, 107
2, 31184, Note_on_c, 0, 68, 83
2, 31188, Note_on_c, 0, 61, 77
2, 31188, Note_on_c, 0, 49, 69
2, 31216, Note_on_c, 0, 49, 0
2, 31220, Control_c, 0, 64, 24
2, 31232, Note_on_c, 0, 61, 0
2, 31236, Control_c, 0, 64, 88
2, 31240, Note_on_c, 0, 56, 0
2, 31240, Note_on_c, 0, 68, 0
2, 31248, Control_c, 0, 64, 127
2, 31256, Note_on_c, 0, 65, 0
2, 31292, Note_on_c, 0, 77, 0
2, 31444, Note_on_c, 0, 49, 65
2, 31452, Note_on_c, 0, 51, 80
2, 31460, Control_c, 0, 64, 104
2, 31476, Control_c, 0, 64, 0
2, 31524, Note_on_c, 0, 49, 0
2, 31536, Note_on_c, 0, 79, 103
2, 31544, Note_on_c, 0, 67, 93
2, 31544, Note_on_c, 0, 70, 85
2, 31544, Note_on_c, 0, 75, 83
2, 31544, Note_on_c, 0, 63, 100
2, 31556, Note_on_c, 0, 56, 54
2, 31564, Control_c, 0, 64, 88
2, 31576, Control_c, 0, 64, 127
2, 31592, Note_on_c, 0, 63, 0
2, 31600, Note_on_c, 0, 51, 0
2, 31600, Note_on_c, 0, 56, 0
2, 31604, Note_on_c, 0, 67, 0
2, 31616, Note_on_c, 0, 70, 0
2, 31640, Note_on_c, 0, 75, 0
2, 31640, Note_on_c, 0, 79, 0
2, 31792, Note_on_c, 0, 48, 79
2, 31820, Note_on_c, 0, 51, 74
2, 31848, Control_c, 0, 64, 24
2, 31856, Note_on_c, 0, 48, 0
2, 31860, Control_c, 0, 64, 0
2, 31912, Note_on_c, 0, 63, 92
2, 31916, Note_on_c, 0, 80, 105
2, 31924, Note_on_c, 0, 51, 0
2, 31924, Note_on_c, 0, 68, 89
2, 31924, Note_on_c, 0, 75, 85
2, 31932, Note_on_c, 0, 72, 86
2, 31932, Control_c, 0, 64, 127
2, 31936, Note_on_c, 0, 56, 54
2, 31952, Note_on_c, 0, 63, 0
2, 31956, Note_on_c, 0, 56, 0
2, 32044, Note_on_c, 0, 72, 0
2, 32064, Note_on_c, 0, 68, 0
2, 32080, Note_on_c, 0, 80, 0
2, 32108, Note_on_c, 0, 75, 0
2, 32184, Note_on_c, 0, 79, 97
2, 32192, Note_on_c, 0, 67, 72
2, 32192, Note_on_c, 0, 75, 65
2, 32200, Note_on_c, 0, 72, 77
2, 32224, Note_on_c, 0, 72, 0
2, 32224, Note_on_c, 0, 67, 0
2, 32232, Note_on_c, 0, 79, 0
2, 32244, Note_on_c, 0, 75, 0
2, 32280, Note_on_c, 0, 80, 107
2, 32280, Note_on_c, 0, 75, 83
2, 32284, Note_on_c, 0, 68, 88
2, 32288, Note_on_c, 0, 72, 84
2, 32340, Note_on_c, 0, 72, 0
2, 32340, Note_on_c, 0, 68, 0
2, 32352, Note_on_c, 0, 75, 0
2, 32368, Note_on_c, 0, 80, 0
2, 32600, Control_c, 0, 64, 88
2, 32612, Control_c, 0, 64, 0
2, 32632, Note_on_c, 0, 63, 95
2, 32636, Note_on_c, 0, 75, 96
2, 32640, Note_on_c, 0, 68, 84
2, 32652, Note_on_c, 0, 48, 100
2, 32656, Note_on_c, 0, 36, 83
2, 32712, Control_c, 0, 64, 88
2, 32728, Control_c, 0, 64, 127
2, 32732, Note_on_c, 0, 63, 0
2, 32748, Note_on_c, 0, 36, 0
2, 32756, Note_on_c, 0, 68, 0
2, 32788, Note_on_c, 0, 48, 0
2, 32872, Note_on_c, 0, 75, 0
2, 32984, Control_c, 0, 64, 104
2, 32988, Note_on_c, 0, 77, 97
2, 32992, Note_on_c, 0, 65, 90
2, 32992, Note_on_c, 0, 68, 86
2, 32996, Note_on_c, 0, 49, 96
2, 32996, Control_c, 0, 64, 0
2, 33000, Note_on_c, 0, 37, 82
2, 33056, Note_on_c, 0, 49, 0
2, 33068, Note_on_c, 0, 37, 0
2, 33068, Control_c, 0, 64, 56
2, 33076, Note_on_c, 0, 77, 0
2, 33080, Control_c, 0, 64, 127
2, 33096, Note_on_c, 0, 65, 0
2, 33120, Note_on_c, 0, 68, 0
2, 33272, Note_on_c, 0, 63, 83
2, 33276, Note_on_c, 0, 75, 90
2, 33280, Note_on_c, 0, 48, 65
2, 33280, Note_on_c, 0, 68, 71
2, 33280, Note_on_c, 0, 36, 43
2, 33296, Control_c, 0, 64, 104
2, 33300, Note_on_c, 0, 48, 0
2, 33304, Note_on_c, 0, 68, 0
2, 33308, Control_c, 0, 64, 0
2, 33312, Note_on_c, 0, 36, 0
2, 33312, Note_on_c, 0, 75, 0
2, 33316, Note_on_c, 0, 63, 0
2, 33336, Control_c, 0, 64, 40
2, 33352, Control_c, 0, 64, 104
2, 33360, Note_on_c, 0, 46, 93
2, 33364, Note_on_c, 0, 63, 86
2, 33364, Note_on_c, 0, 34, 85
2, 33364, Note_on_c, 0, 73, 96
2, 33364, Control_c, 0, 64, 127
2, 33372, Note_on_c, 0, 68, 81
2, 33400, Note_on_c, 0, 34, 0
2, 33400, Note_on_c, 0, 46, 0
2, 33440, Note_on_c, 0, 63, 0
2, 33440, Note_on_c, 0, 73, 0
2, 33456, Note_on_c, 0, 68, 0
2, 33524, Control_c, 0, 64, 88
2, 33536, Control_c, 0, 64, 40
2, 33552, Control_c, 0, 64, 0
2, 33732, Note_on_c, 0, 73, 95
2, 33732, Note_on_c, 0, 58, 86
2, 33736, Note_on_c, 0, 67, 86
2, 33748, Note_on_c, 0, 51, 99
2, 33748, Note_on_c, 0, 39, 73
2, 33748, Control_c, 0, 64, 40
2, 33764, Control_c, 0, 64, 127
2, 33796, Note_on_c, 0, 51, 0
2, 33804, Note_on_c, 0, 39, 0
2, 33820, Note_on_c, 0, 58, 0
2, 33872, Note_on_c, 0, 67, 0
2, 33936, Note_on_c, 0, 73, 0
2, 33948, Control_c, 0, 64, 24
2, 33964, Note_on_c, 0, 32, 77
2, 33964, Control_c, 0, 64, 0
2, 34000, Note_on_c, 0, 44, 85
2, 34020, Control_c, 0, 64, 72
2, 34032, Note_on_c, 0, 32, 0
2, 34032, Control_c, 0, 64, 127
2, 34048, Note_on_c, 0, 44, 0
2, 34180, Note_on_c, 0, 72, 103
2, 34184, Note_on_c, 0, 68, 83
2, 34184, Note_on_c, 0, 60, 96
2, 34200, Note_on_c, 0, 56, 94
2, 34204, Control_c, 0, 64, 104
2, 34220, Control_c, 0, 64, 0
2, 34236, Note_on_c, 0, 56, 0
2, 34260, Control_c, 0, 64, 24
2, 34276, Control_c, 0, 64, 104
2, 34288, Note_on_c, 0, 60, 0
2, 34288, Control_c, 0, 64, 127
2, 34332, Note_on_c, 0, 68, 0
2, 34368, Note_on_c, 0, 72, 0
2, 34856, Control_c, 0, 64, 88
2, 34872, Control_c, 0, 64, 56
2, 34888, Control_c, 0, 64, 24
2, 34900, Control_c, 0, 64, 0
2, 34944, Note_on_c, 0, 75, 82
2, 34944, Note_on_c, 0, 63, 82
2, 34944, Note_on_c, 0, 51, 79
2, 34944, Note_on_c, 0, 39, 60
2, 34944, Control_c, 0, 64, 120
2, 34952, Note_on_c, 0, 39, 0
2, 34956, Note_on_c, 0, 63, 0
2, 34960, Note_on_c, 0, 51, 0
2, 34972, Note_on_c, 0, 75, 0
2, 35140, Note_on_c, 0, 75, 100
2, 35140, Note_on_c, 0, 39, 68
2, 35140, Note_on_c, 0, 51, 80
2, 35140, Note_on_c, 0, 63, 90
2, 35160, Note_on_c, 0, 39, 0
2, 35172, Note_on_c, 0, 63, 0
2, 35172, Note_on_c, 0, 51, 0
2, 35184, Note_on_c, 0, 75, 0
2, 35336, Note_on_c, 0, 87, 95
2, 35336, Note_on_c, 0, 75, 91
2, 35344, Note_on_c, 0, 63, 77
2, 35356, Note_on_c, 0, 51, 62
2, 35376, Note_on_c, 0, 75, 0
2, 35400, Note_on_c, 0, 51, 0
2, 35400, Note_on_c, 0, 63, 0
2, 35408, Note_on_c, 0, 87, 0
2, 35552, Note_on_c, 0, 87, 95
2, 35556, Note_on_c, 0, 75, 89
2, 35556, Note_on_c, 0, 63, 64
2, 35560, Note_on_c, 0, 51, 61
2, 35604, Note_on_c, 0, 51, 0
2, 35604, Note_on_c, 0, 75, 0
2, 35652, Note_on_c, 0, 63, 0
2, 35660, Note_on_c, 0, 87, 0
2, 35760, Note_on_c, 0, 63, 72
2, 35764, Note_on_c, 0, 87, 97
2, 35764, Note_on_c, 0, 75, 85
2, 35804, Note_on_c, 0, 75, 0
2, 35824, Note_on_c, 0, 63, 0
2, 35828, Note_on_c, 0, 87, 0
2, 35864, Note_on_c, 0, 89, 92
2, 35868, Note_on_c, 0, 65, 56
2, 35872, Note_on_c, 0, 77, 81
2, 35904, Note_on_c, 0, 77, 0
2, 35916, Note_on_c, 0, 89, 0
2, 35920, Note_on_c, 0, 65, 0
2, 35968, Note_on_c, 0, 87, 81
2, 35968, Note_on_c, 0, 63, 55
2, 35968, Note_on_c, 0, 75, 82
2, 36004, Note_on_c, 0, 75, 0
2, 36012, Note_on_c, 0, 87, 0
2, 36032, Note_on_c, 0, 63, 0
2, 36060, Note_on_c, 0, 60, 62
2, 36068, Note_on_c, 0, 84, 82
2, 36076, Note_on_c, 0, 72, 70
2, 36092, Note_on_c, 0, 72, 0
2, 36092, Note_on_c, 0, 84, 0
2, 36168, Note_on_c, 0, 80, 85
2, 36172, Note_on_c, 0, 56, 60
2, 36176, Note_on_c, 0, 68, 80
2, 36180, Note_on_c, 0, 60, 0
2, 36204, Note_on_c, 0, 68, 0
2, 36212, Note_on_c, 0, 56, 0
2, 36212, Note_on_c, 0, 80, 0
2, 36376, Note_on_c, 0, 51, 71
2, 36440, Note_on_c, 0, 51, 0
2, 36464, Control_c, 0, 64, 104
2, 36476, Control_c, 0, 64, 88
2, 36480, Note_on_c, 0, 53, 61
2, 36488, Control_c, 0, 64, 72
2, 36496, Control_c, 0, 64, 56
2, 36508, Control_c, 0, 64, 40
2, 36520, Control_c, 0, 64, 24
2, 36532, Control_c, 0, 64, 0
2, 36536, Note_on_c, 0, 53, 0
2, 36576, Note_on_c, 0, 51, 62
2, 36596, Note_on_c, 0, 63, 67
2, 36648, Note_on_c, 0, 51, 0
2, 36672, Note_on_c, 0, 63, 0
2, 36688, Note_on_c, 0, 65, 67
2, 36688, Note_on_c, 0, 48, 64
2, 36752, Note_on_c, 0, 65, 0
2, 36776, Note_on_c, 0, 44, 62
2, 36780, Note_on_c, 0, 48, 0
2, 36780, Note_on_c, 0, 63, 64
2, 36816, Note_on_c, 0, 44, 0
2, 36852, Note_on_c, 0, 63, 0
2, 36884, Note_on_c, 0, 60, 74
2, 36984, Note_on_c, 0, 60, 0
2, 36992, Note_on_c, 0, 56, 72
2, 37008, Note_on_c, 0, 44, 46
2, 37016, Note_on_c, 0, 32, 35
2, 37016, Control_c, 0, 64, 24
2, 37028, Control_c, 0, 64, 72
2, 37036, Note_on_c, 0, 32, 0
2, 37036, Note_on_c, 0, 44, 0
2, 37036, Note_on_c, 0, 56, 0
2, 37040, Control_c, 0, 64, 127
2, 37208, Note_on_c, 0, 75, 74
2, 37212, Note_on_c, 0, 60, 58
2, 37220, Note_on_c, 0, 51, 46
2, 37220, Note_on_c, 0, 56, 40
2, 37236, Note_on_c, 0, 60, 0
2, 37244, Note_on_c, 0, 56, 0
2, 37248, Note_on_c, 0, 51, 0
2, 37272, Note_on_c, 0, 75, 0
2, 37308, Note_on_c, 0, 77, 70
2, 37352, Note_on_c, 0, 77, 0
2, 37356, Control_c, 0, 64, 104
2, 37376, Control_c, 0, 64, 88
2, 37388, Note_on_c, 0, 44, 51
2, 37388, Control_c, 0, 64, 72
2, 37400, Note_on_c, 0, 75, 69
2, 37408, Control_c, 0, 64, 56
2, 37432, Control_c, 0, 64, 40
2, 37440, Note_on_c, 0, 44, 0
2, 37452, Control_c, 0, 64, 24
2, 37472, Note_on_c, 0, 75, 0
2, 37504, Note_on_c, 0, 72, 73
2, 37516, Control_c, 0, 64, 0
2, 37608, Note_on_c, 0, 72, 0
2, 37612, Note_on_c, 0, 68, 74
2, 37624, Note_on_c, 0, 61, 69
2, 37644, Note_on_c, 0, 56, 48
2, 37648, Note_on_c, 0, 53, 53
2, 37660, Note_on_c, 0, 61, 0
2, 37660, Control_c, 0, 64, 56
2, 37664, Note_on_c, 0, 56, 0
2, 37668, Note_on_c, 0, 53, 0
2, 37668, Control_c, 0, 64, 104
2, 37680, Control_c, 0, 64, 127
2, 37716, Note_on_c, 0, 68, 0
2, 37832, Note_on_c, 0, 44, 51
2, 37836, Note_on_c, 0, 80, 69
2, 37868, Note_on_c, 0, 44, 0
2, 37900, Note_on_c, 0, 80, 0
2, 37932, Note_on_c, 0, 82, 73
2, 37984, Note_on_c, 0, 82, 0
2, 38020, Note_on_c, 0, 80, 77
2, 38020, Note_on_c, 0, 61, 42
2, 38044, Note_on_c, 0, 61, 0
2, 38088, Note_on_c, 0, 80, 0
2, 38092, Control_c, 0, 64, 104
2, 38108, Note_on_c, 0, 77, 76
2, 38116, Control_c, 0, 64, 88
2, 38124, Control_c, 0, 64, 72
2, 38136, Control_c, 0, 64, 56
2, 38148, Control_c, 0, 64, 24
2, 38160, Control_c, 0, 64, 0
2, 38192, Note_on_c, 0, 77, 0
2, 38216, Note_on_c, 0, 74, 88
2, 38228, Note_on_c, 0, 44, 42
2, 38244, Control_c, 0, 64, 40
2, 38256, Note_on_c, 0, 74, 0
2, 38256, Control_c, 0, 64, 104
2, 38268, Note_on_c, 0, 44, 0
2, 38268, Control_c, 0, 64, 127
2, 38432, Note_on_c, 0, 75, 74
2, 38432, Note_on_c, 0, 60, 52
2, 38444, Note_on_c, 0, 51, 39
2, 38444, Note_on_c, 0, 56, 40
2, 38456, Note_on_c, 0, 60, 0
2, 38464, Note_on_c, 0, 56, 0
2, 38480, Note_on_c, 0, 51, 0
2, 38492, Note_on_c, 0, 75, 0
2, 38524, Note_on_c, 0, 77, 81
2, 38584, Note_on_c, 0, 77, 0
2, 38592, Note_on_c, 0, 75, 72
2, 38600, Note_on_c, 0, 44, 55
2, 38680, Note_on_c, 0, 72, 74
2, 38696, Note_on_c, 0, 75, 0
2, 38720, Note_on_c, 0, 72, 0
2, 38724, Note_on_c, 0, 44, 0
2, 38764, Control_c, 0, 64, 56
2, 38772, Note_on_c, 0, 72, 66
2, 38776, Control_c, 0, 64, 0
2, 38796, Note_on_c, 0, 51, 56
2, 38816, Note_on_c, 0, 68, 67
2, 38828, Note_on_c, 0, 72, 0
2, 38872, Note_on_c, 0, 51, 0
2, 38872, Control_c, 0, 64, 40
2, 38876, Note_on_c, 0, 68, 0
2, 38884, Control_c, 0, 64, 56
2, 38892, Control_c, 0, 64, 88
2, 38908, Note_on_c, 0, 53, 53
2, 38948, Control_c, 0, 64, 72
2, 38964, Note_on_c, 0, 53, 0
2, 38972, Control_c, 0, 64, 56
2, 38984, Control_c, 0, 64, 40
2, 39000, Note_on_c, 0, 51, 52
2, 39004, Note_on_c, 0, 63, 71
2, 39004, Control_c, 0, 64, 24
2, 39024, Control_c, 0, 64, 0
2, 39072, Note_on_c, 0, 63, 0
2, 39072, Note_on_c, 0, 51, 0
2, 39096, Note_on_c, 0, 65, 79
2, 39108, Note_on_c, 0, 48, 63
2, 39156, Note_on_c, 0, 65, 0
2, 39192, Note_on_c, 0, 48, 0
2, 39192, Note_on_c, 0, 63, 71
2, 39204, Note_on_c, 0, 44, 46
2, 39228, Note_on_c, 0, 44, 0
2, 39264, Note_on_c, 0, 63, 0
2, 39292, Note_on_c, 0, 60, 75
2, 39376, Note_on_c, 0, 60, 0
2, 39396, Note_on_c, 0, 56, 73
2, 39412, Note_on_c, 0, 44, 46
2, 39416, Note_on_c, 0, 32, 42
2, 39424, Control_c, 0, 64, 40
2, 39432, Note_on_c, 0, 32, 0
2, 39432, Note_on_c, 0, 44, 0
2, 39436, Note_on_c, 0, 56, 0
2, 39440, Control_c, 0, 64, 72
2, 39448, Control_c, 0, 64, 104
2, 39460, Control_c, 0, 64, 127
2, 39620, Note_on_c, 0, 75, 77
2, 39632, Note_on_c, 0, 56, 47
2, 39636, Note_on_c, 0, 60, 54
2, 39644, Note_on_c, 0, 51, 39
2, 39652, Note_on_c, 0, 56, 0
2, 39656, Note_on_c, 0, 60, 0
2, 39668, Note_on_c, 0, 51, 0
2, 39676, Control_c, 0, 64, 104
2, 39680, Note_on_c, 0, 75, 0
2, 39708, Note_on_c, 0, 77, 85
2, 39768, Note_on_c, 0, 77, 0
2, 39788, Note_on_c, 0, 75, 74
2, 39796, Control_c, 0, 64, 88
2, 39812, Note_on_c, 0, 44, 58
2, 39856, Note_on_c, 0, 44, 0
2, 39880, Note_on_c, 0, 72, 87
2, 39884, Note_on_c, 0, 75, 0
2, 39912, Note_on_c, 0, 72, 0
2, 39924, Control_c, 0, 64, 72
2, 39968, Control_c, 0, 64, 24
2, 39972, Note_on_c, 0, 72, 76
2, 39980, Control_c, 0, 64, 0
2, 40016, Note_on_c, 0, 61, 43
2, 40024, Note_on_c, 0, 69, 80
2, 40024, Note_on_c, 0, 51, 38
2, 40028, Note_on_c, 0, 54, 43
2, 40032, Note_on_c, 0, 72, 0
2, 40056, Note_on_c, 0, 51, 0
2, 40072, Note_on_c, 0, 61, 0
2, 40076, Control_c, 0, 64, 40
2, 40088, Control_c, 0, 64, 72
2, 40092, Note_on_c, 0, 54, 0
2, 40100, Control_c, 0, 64, 88
2, 40108, Control_c, 0, 64, 104
2, 40152, Note_on_c, 0, 69, 0
2, 40152, Control_c, 0, 64, 127
2, 40244, Note_on_c, 0, 44, 43
2, 40252, Note_on_c, 0, 70, 72
2, 40268, Note_on_c, 0, 44, 0
2, 40312, Note_on_c, 0, 70, 0
2, 40340, Note_on_c, 0, 72, 77
2, 40360, Control_c, 0, 64, 88
2, 40372, Control_c, 0, 64, 56
2, 40380, Control_c, 0, 64, 0
2, 40400, Note_on_c, 0, 72, 0
2, 40428, Note_on_c, 0, 70, 61
2, 40444, Control_c, 0, 64, 24
2, 40448, Note_on_c, 0, 55, 49
2, 40448, Note_on_c, 0, 61, 34
2, 40456, Note_on_c, 0, 51, 35
2, 40456, Control_c, 0, 64, 56
2, 40468, Note_on_c, 0, 61, 0
2, 40468, Note_on_c, 0, 55, 0
2, 40468, Control_c, 0, 64, 88
2, 40480, Note_on_c, 0, 51, 0
2, 40480, Control_c, 0, 64, 104
2, 40492, Control_c, 0, 64, 127
2, 40508, Note_on_c, 0, 70, 0
2, 40528, Note_on_c, 0, 67, 72
2, 40556, Note_on_c, 0, 67, 0
2, 40608, Note_on_c, 0, 67, 70
2, 40620, Control_c, 0, 64, 72
2, 40628, Control_c, 0, 64, 24
2, 40640, Control_c, 0, 64, 0
2, 40668, Note_on_c, 0, 62, 74
2, 40668, Note_on_c, 0, 44, 48
2, 40680, Note_on_c, 0, 67, 0
2, 40720, Note_on_c, 0, 44, 0
2, 40728, Control_c, 0, 64, 40
2, 40740, Control_c, 0, 64, 72
2, 40752, Control_c, 0, 64, 88
2, 40760, Control_c, 0, 64, 104
2, 40772, Control_c, 0, 64, 127
2, 40812, Note_on_c, 0, 62, 0
2, 40824, Control_c, 0, 64, 56
2, 40836, Control_c, 0, 64, 0
2, 40880, Control_c, 0, 64, 24
2, 40888, Note_on_c, 0, 63, 68
2, 40892, Note_on_c, 0, 60, 54
2, 40892, Control_c, 0, 64, 56
2, 40896, Note_on_c, 0, 51, 45
2, 40896, Note_on_c, 0, 56, 35
2, 40900, Control_c, 0, 64, 88
2, 40912, Note_on_c, 0, 60, 0
2, 40912, Control_c, 0, 64, 104
2, 40920, Note_on_c, 0, 56, 0
2, 40920, Note_on_c, 0, 51, 0
2, 40924, Control_c, 0, 64, 127
2, 40952, Note_on_c, 0, 63, 0
2, 40976, Note_on_c, 0, 65, 76
2, 41036, Note_on_c, 0, 65, 0
2, 41076, Note_on_c, 0, 63, 64
2, 41076, Control_c, 0, 64, 104
2, 41088, Note_on_c, 0, 44, 47
2, 41120, Control_c, 0, 64, 88
2, 41140, Note_on_c, 0, 63, 0
2, 41152, Note_on_c, 0, 44, 0
2, 41152, Control_c, 0, 64, 72
2, 41176, Note_on_c, 0, 60, 78
2, 41212, Note_on_c, 0, 60, 0
2, 41248, Control_c, 0, 64, 40
2, 41252, Note_on_c, 0, 60, 76
2, 41260, Control_c, 0, 64, 24
2, 41272, Control_c, 0, 64, 0
2, 41284, Note_on_c, 0, 51, 53
2, 41296, Note_on_c, 0, 56, 65
2, 41308, Note_on_c, 0, 60, 0
2, 41356, Note_on_c, 0, 51, 0
2, 41368, Note_on_c, 0, 56, 0
2, 41368, Control_c, 0, 64, 40
2, 41380, Control_c, 0, 64, 88
2, 41388, Control_c, 0, 64, 127
2, 41396, Note_on_c, 0, 53, 56
2, 41460, Note_on_c, 0, 53, 0
2, 41496, Note_on_c, 0, 51, 60
2, 41500, Control_c, 0, 64, 72
2, 41504, Note_on_c, 0, 63, 72
2, 41508, Control_c, 0, 64, 0
2, 41560, Note_on_c, 0, 51, 0
2, 41584, Control_c, 0, 64, 24
2, 41588, Note_on_c, 0, 63, 0
2, 41592, Note_on_c, 0, 48, 70
2, 41592, Note_on_c, 0, 65, 73
2, 41596, Control_c, 0, 64, 40
2, 41608, Control_c, 0, 64, 56
2, 41616, Control_c, 0, 64, 72
2, 41644, Note_on_c, 0, 65, 0
2, 41672, Control_c, 0, 64, 56
2, 41676, Note_on_c, 0, 48, 0
2, 41676, Note_on_c, 0, 63, 76
2, 41680, Note_on_c, 0, 44, 60
2, 41716, Note_on_c, 0, 44, 0
2, 41716, Control_c, 0, 64, 40
2, 41748, Control_c, 0, 64, 24
2, 41752, Note_on_c, 0, 63, 0
2, 41780, Control_c, 0, 64, 0
2, 41784, Note_on_c, 0, 60, 82
2, 41880, Note_on_c, 0, 60, 0
2, 41892, Note_on_c, 0, 56, 82
2, 41928, Note_on_c, 0, 32, 51
2, 41936, Note_on_c, 0, 56, 0
2, 41944, Control_c, 0, 64, 40
2, 41952, Control_c, 0, 64, 72
2, 41964, Control_c, 0, 64, 88
2, 41976, Control_c, 0, 64, 104
2, 41984, Control_c, 0, 64, 127
2, 41988, Note_on_c, 0, 32, 0
2, 42112, Note_on_c, 0, 75, 76
2, 42136, Note_on_c, 0, 63, 46
2, 42140, Note_on_c, 0, 60, 48
2, 42140, Note_on_c, 0, 56, 39
2, 42160, Note_on_c, 0, 56, 0
2, 42160, Note_on_c, 0, 60, 0
2, 42160, Note_on_c, 0, 63, 0
2, 42172, Note_on_c, 0, 75, 0
2, 42200, Note_on_c, 0, 77, 82
2, 42256, Note_on_c, 0, 77, 0
2, 42288, Note_on_c, 0, 75, 85
2, 42368, Note_on_c, 0, 75, 0
2, 42384, Note_on_c, 0, 72, 86
2, 42452, Control_c, 0, 64, 88
2, 42464, Control_c, 0, 64, 40
2, 42476, Control_c, 0, 64, 0
2, 42488, Note_on_c, 0, 72, 0
2, 42496, Note_on_c, 0, 68, 83
2, 42504, Note_on_c, 0, 61, 58
2, 42512, Note_on_c, 0, 56, 55
2, 42516, Note_on_c, 0, 53, 56
2, 42536, Note_on_c, 0, 53, 0
2, 42544, Note_on_c, 0, 61, 0
2, 42548, Note_on_c, 0, 56, 0
2, 42552, Control_c, 0, 64, 56
2, 42560, Control_c, 0, 64, 127
2, 42580, Note_on_c, 0, 68, 0
2, 42700, Note_on_c, 0, 44, 51
2, 42712, Note_on_c, 0, 80, 73
2, 42736, Note_on_c, 0, 44, 0
2, 42776, Note_on_c, 0, 80, 0
2, 42800, Note_on_c, 0, 82, 73
2, 42856, Note_on_c, 0, 82, 0
2, 42896, Note_on_c, 0, 80, 73
2, 42900, Note_on_c, 0, 61, 52
2, 42912, Note_on_c, 0, 56, 42
2, 42920, Note_on_c, 0, 61, 0
2, 42920, Note_on_c, 0, 53, 42
2, 42932, Note_on_c, 0, 56, 0
2, 42940, Note_on_c, 0, 53, 0
2, 42960, Note_on_c, 0, 80, 0
2, 42960, Control_c, 0, 64, 104
2, 42972, Control_c, 0, 64, 88
2, 42984, Control_c, 0, 64, 72
2, 42988, Note_on_c, 0, 77, 82
2, 42996, Control_c, 0, 64, 56
2, 43008, Control_c, 0, 64, 40
2, 43016, Control_c, 0, 64, 24
2, 43028, Control_c, 0, 64, 0
2, 43080, Note_on_c, 0, 77, 0
2, 43104, Note_on_c, 0, 74, 84
2, 43104, Note_on_c, 0, 44, 58
2, 43124, Control_c, 0, 64, 24
2, 43136, Control_c, 0, 64, 88
2, 43148, Control_c, 0, 64, 127
2, 43152, Note_on_c, 0, 44, 0
2, 43152, Note_on_c, 0, 74, 0
2, 43312, Note_on_c, 0, 75, 73
2, 43320, Note_on_c, 0, 60, 50
2, 43324, Note_on_c, 0, 51, 42
2, 43344, Note_on_c, 0, 60, 0
2, 43352, Note_on_c, 0, 51, 0
2, 43376, Note_on_c, 0, 75, 0
2, 43404, Note_on_c, 0, 77, 76
2, 43472, Note_on_c, 0, 77, 0
2, 43492, Note_on_c, 0, 75, 65
2, 43492, Note_on_c, 0, 44, 45
2, 43584, Note_on_c, 0, 75, 0
2, 43600, Note_on_c, 0, 72, 66
2, 43612, Control_c, 0, 64, 72
2, 43616, Note_on_c, 0, 44, 0
2, 43624, Control_c, 0, 64, 24
2, 43636, Control_c, 0, 64, 0
2, 43648, Note_on_c, 0, 72, 0
2, 43664, Note_on_c, 0, 72, 76
2, 43680, Note_on_c, 0, 51, 55
2, 43708, Note_on_c, 0, 68, 65
2, 43720, Control_c, 0, 64, 40
2, 43724, Note_on_c, 0, 72, 0
2, 43732, Control_c, 0, 64, 88
2, 43744, Control_c, 0, 64, 104
2, 43760, Note_on_c, 0, 68, 0
2, 43760, Note_on_c, 0, 51, 0
2, 43800, Note_on_c, 0, 53, 47
2, 43828, Control_c, 0, 64, 88
2, 43852, Note_on_c, 0, 53, 0
2, 43864, Control_c, 0, 64, 40
2, 43876, Control_c, 0, 64, 0
2, 43892, Note_on_c, 0, 51, 50
2, 43892, Note_on_c, 0, 63, 70
2, 43948, Control_c, 0, 64, 24
2, 43960, Note_on_c, 0, 63, 0
2, 43960, Note_on_c, 0, 51, 0
2, 43960, Control_c, 0, 64, 40
2, 43972, Control_c, 0, 64, 56
2, 43980, Note_on_c, 0, 65, 74
2, 43992, Note_on_c, 0, 48, 66
2, 44040, Note_on_c, 0, 65, 0
2, 44056, Control_c, 0, 64, 40
2, 44076, Note_on_c, 0, 48, 0
2, 44076, Note_on_c, 0, 63, 67
2, 44084, Note_on_c, 0, 44, 51
2, 44104, Note_on_c, 0, 44, 0
2, 44124, Control_c, 0, 64, 0
2, 44148, Note_on_c, 0, 63, 0
2, 44172, Note_on_c, 0, 60, 73
2, 44264, Note_on_c, 0, 60, 0
2, 44284, Note_on_c, 0, 56, 65
2, 44292, Note_on_c, 0, 32, 56
2, 44296, Note_on_c, 0, 44, 48
2, 44296, Control_c, 0, 64, 24
2, 44308, Control_c, 0, 64, 72
2, 44316, Note_on_c, 0, 56, 0
2, 44316, Control_c, 0, 64, 104
2, 44324, Note_on_c, 0, 32, 0
2, 44328, Note_on_c, 0, 44, 0
2, 44328, Control_c, 0, 64, 127
2, 44488, Note_on_c, 0, 75, 73
2, 44504, Control_c, 0, 64, 88
2, 44508, Note_on_c, 0, 60, 55
2, 44512, Note_on_c, 0, 56, 38
2, 44516, Note_on_c, 0, 51, 44
2, 44532, Note_on_c, 0, 56, 0
2, 44532, Note_on_c, 0, 60, 0
2, 44548, Note_on_c, 0, 51, 0
2, 44560, Note_on_c, 0, 75, 0
2, 44580, Note_on_c, 0, 77, 81
2, 44624, Control_c, 0, 64, 72
2, 44648, Note_on_c, 0, 77, 0
2, 44656, Control_c, 0, 64, 56
2, 44660, Note_on_c, 0, 75, 50
2, 44668, Note_on_c, 0, 44, 51
2, 44728, Note_on_c, 0, 44, 0
2, 44744, Note_on_c, 0, 72, 79
2, 44764, Note_on_c, 0, 75, 0
2, 44772, Control_c, 0, 64, 40
2, 44784, Control_c, 0, 64, 24
2, 44788, Note_on_c, 0, 72, 0
2, 44796, Control_c, 0, 64, 0
2, 44836, Note_on_c, 0, 72, 75
2, 44888, Note_on_c, 0, 69, 73
2, 44896, Note_on_c, 0, 51, 57
2, 44896, Note_on_c, 0, 61, 45
2, 44912, Note_on_c, 0, 72, 0
2, 44928, Control_c, 0, 64, 40
2, 44936, Control_c, 0, 64, 72
2, 44948, Control_c, 0, 64, 88
2, 44952, Note_on_c, 0, 61, 0
2, 44956, Note_on_c, 0, 69, 0
2, 44964, Note_on_c, 0, 51, 0
2, 44980, Control_c, 0, 64, 104
2, 45056, Control_c, 0, 64, 88
2, 45084, Note_on_c, 0, 44, 52
2, 45092, Note_on_c, 0, 70, 74
2, 45132, Note_on_c, 0, 44, 0
2, 45132, Control_c, 0, 64, 72
2, 45156, Note_on_c, 0, 70, 0
2, 45176, Control_c, 0, 64, 56
2, 45188, Control_c, 0, 64, 40
2, 45192, Note_on_c, 0, 72, 76
2, 45196, Control_c, 0, 64, 24
2, 45208, Control_c, 0, 64, 0
2, 45244, Note_on_c, 0, 72, 0
2, 45280, Note_on_c, 0, 70, 70
2, 45300, Note_on_c, 0, 61, 39
2, 45304, Note_on_c, 0, 51, 51
2, 45308, Note_on_c, 0, 55, 41
2, 45316, Control_c, 0, 64, 40
2, 45320, Note_on_c, 0, 61, 0
2, 45328, Control_c, 0, 64, 56
2, 45332, Note_on_c, 0, 55, 0
2, 45332, Note_on_c, 0, 51, 0
2, 45336, Control_c, 0, 64, 72
2, 45364, Note_on_c, 0, 70, 0
2, 45372, Note_on_c, 0, 67, 73
2, 45416, Note_on_c, 0, 67, 0
2, 45468, Control_c, 0, 64, 24
2, 45472, Note_on_c, 0, 67, 66
2, 45480, Control_c, 0, 64, 0
2, 45492, Note_on_c, 0, 62, 64
2, 45500, Note_on_c, 0, 44, 50
2, 45548, Note_on_c, 0, 44, 0
2, 45556, Note_on_c, 0, 67, 0
2, 45576, Control_c, 0, 64, 40
2, 45588, Control_c, 0, 64, 72
2, 45600, Note_on_c, 0, 62, 0
2, 45600, Control_c, 0, 64, 104
2, 45608, Control_c, 0, 64, 127
2, 45664, Control_c, 0, 64, 88
2, 45676, Control_c, 0, 64, 72
2, 45684, Control_c, 0, 64, 56
2, 45700, Note_on_c, 0, 63, 75
2, 45700, Note_on_c, 0, 60, 56
2, 45704, Note_on_c, 0, 56, 44
2, 45704, Note_on_c, 0, 51, 48
2, 45716, Control_c, 0, 64, 88
2, 45724, Note_on_c, 0, 60, 0
2, 45728, Note_on_c, 0, 56, 0
2, 45744, Note_on_c, 0, 51, 0
2, 45760, Note_on_c, 0, 63, 0
2, 45760, Control_c, 0, 64, 104
2, 45784, Note_on_c, 0, 65, 82
2, 45824, Control_c, 0, 64, 88
2, 45852, Note_on_c, 0, 65, 0
2, 45872, Note_on_c, 0, 44, 51
2, 45872, Note_on_c, 0, 63, 69
2, 45944, Note_on_c, 0, 63, 0
2, 45964, Note_on_c, 0, 44, 0
2, 45976, Note_on_c, 0, 60, 68
2, 46032, Control_c, 0, 64, 72
2, 46040, Note_on_c, 0, 60, 0
2, 46044, Control_c, 0, 64, 56
2, 46052, Control_c, 0, 64, 40
2, 46064, Control_c, 0, 64, 0
2, 46080, Note_on_c, 0, 49, 70
2, 46080, Note_on_c, 0, 61, 94
2, 46132, Note_on_c, 0, 49, 0
2, 46136, Note_on_c, 0, 61, 0
2, 46140, Control_c, 0, 64, 40
2, 46152, Control_c, 0, 64, 88
2, 46164, Control_c, 0, 64, 127
2, 46304, Control_c, 0, 64, 88
2, 46308, Note_on_c, 0, 85, 92
2, 46308, Note_on_c, 0, 73, 83
2, 46312, Control_c, 0, 64, 0
2, 46328, Note_on_c, 0, 49, 59
2, 46328, Note_on_c, 0, 61, 52
2, 46360, Note_on_c, 0, 73, 0
2, 46368, Control_c, 0, 64, 24
2, 46380, Control_c, 0, 64, 72
2, 46384, Note_on_c, 0, 49, 0
2, 46388, Control_c, 0, 64, 127
2, 46396, Note_on_c, 0, 61, 0
2, 46404, Note_on_c, 0, 85, 0
2, 46500, Control_c, 0, 64, 104
2, 46508, Note_on_c, 0, 85, 95
2, 46508, Control_c, 0, 64, 56
2, 46512, Note_on_c, 0, 73, 85
2, 46520, Control_c, 0, 64, 0
2, 46528, Note_on_c, 0, 49, 71
2, 46528, Note_on_c, 0, 61, 58
2, 46552, Control_c, 0, 64, 56
2, 46560, Note_on_c, 0, 73, 0
2, 46564, Control_c, 0, 64, 88
2, 46572, Control_c, 0, 64, 127
2, 46588, Note_on_c, 0, 49, 0
2, 46600, Note_on_c, 0, 61, 0
2, 46612, Note_on_c, 0, 85, 0
2, 46716, Note_on_c, 0, 61, 64
2, 46720, Note_on_c, 0, 85, 102
2, 46724, Note_on_c, 0, 73, 83
2, 46752, Note_on_c, 0, 61, 0
2, 46764, Note_on_c, 0, 73, 0
2, 46788, Note_on_c, 0, 85, 0
2, 46812, Note_on_c, 0, 87, 82
2, 46820, Note_on_c, 0, 63, 67
2, 46860, Note_on_c, 0, 63, 0
2, 46868, Note_on_c, 0, 87, 0
2, 46916, Note_on_c, 0, 61, 69
2, 46920, Note_on_c, 0, 85, 80
2, 46960, Note_on_c, 0, 85, 0
2, 46976, Note_on_c, 0, 61, 0
2, 47000, Note_on_c, 0, 80, 80
2, 47000, Note_on_c, 0, 56, 63
2, 47080, Note_on_c, 0, 80, 0
2, 47112, Note_on_c, 0, 53, 69
2, 47112, Note_on_c, 0, 77, 81
2, 47124, Note_on_c, 0, 56, 0
2, 47148, Note_on_c, 0, 77, 0
2, 47148, Note_on_c, 0, 53, 0
2, 47312, Control_c, 0, 64, 24
2, 47324, Control_c, 0, 64, 0
2, 47328, Note_on_c, 0, 74, 86
2, 47332, Note_on_c, 0, 34, 67
2, 47332, Note_on_c, 0, 68, 62
2, 47336, Note_on_c, 0, 62, 68
2, 47336, Note_on_c, 0, 65, 63
2, 47340, Note_on_c, 0, 47, 68
2, 47368, Note_on_c, 0, 34, 0
2, 47400, Control_c, 0, 64, 56
2, 47404, Note_on_c, 0, 47, 0
2, 47408, Control_c, 0, 64, 127
2, 47448, Note_on_c, 0, 48, 82
2, 47524, Note_on_c, 0, 48, 0
2, 47528, Note_on_c, 0, 50, 75
2, 47596, Control_c, 0, 64, 104
2, 47604, Control_c, 0, 64, 88
2, 47608, Note_on_c, 0, 50, 0
2, 47616, Control_c, 0, 64, 72
2, 47624, Note_on_c, 0, 51, 71
2, 47624, Control_c, 0, 64, 56
2, 47636, Control_c, 0, 64, 40
2, 47648, Control_c, 0, 64, 24
2, 47660, Control_c, 0, 64, 0
2, 47720, Note_on_c, 0, 51, 0
2, 47736, Note_on_c, 0, 53, 73
2, 47824, Note_on_c, 0, 55, 82
2, 47848, Note_on_c, 0, 53, 0
2, 47916, Note_on_c, 0, 55, 0
2, 47924, Note_on_c, 0, 56, 75
2, 48016, Note_on_c, 0, 56, 0
2, 48024, Note_on_c, 0, 55, 74
2, 48104, Note_on_c, 0, 55, 0
2, 48124, Note_on_c, 0, 53, 72
2, 48160, Control_c, 0, 64, 24
2, 48168, Control_c, 0, 64, 40
2, 48188, Control_c, 0, 64, 56
2, 48200, Note_on_c, 0, 53, 0
2, 48216, Note_on_c, 0, 51, 71
2, 48232, Control_c, 0, 64, 72
2, 48288, Note_on_c, 0, 51, 0
2, 48328, Note_on_c, 0, 50, 61
2, 48404, Note_on_c, 0, 50, 0
2, 48416, Note_on_c, 0, 48, 77
2, 48492, Note_on_c, 0, 48, 0
2, 48504, Control_c, 0, 64, 24
2, 48516, Note_on_c, 0, 47, 76
2, 48516, Control_c, 0, 64, 0
2, 48560, Control_c, 0, 64, 24
2, 48572, Control_c, 0, 64, 56
2, 48580, Control_c, 0, 64, 72
2, 48584, Note_on_c, 0, 47, 0
2, 48584, Note_on_c, 0, 62, 0
2, 48592, Control_c, 0, 64, 88
2, 48604, Note_on_c, 0, 68, 0
2, 48604, Control_c, 0, 64, 104
2, 48612, Note_on_c, 0, 65, 0
2, 48616, Note_on_c, 0, 48, 71
2, 48648, Note_on_c, 0, 74, 0
2, 48696, Note_on_c, 0, 48, 0
2, 48700, Control_c, 0, 64, 72
2, 48712, Control_c, 0, 64, 24
2, 48716, Note_on_c, 0, 74, 79
2, 48720, Note_on_c, 0, 46, 62
2, 48720, Control_c, 0, 64, 0
2, 48724, Note_on_c, 0, 62, 63
2, 48724, Note_on_c, 0, 68, 56
2, 48728, Note_on_c, 0, 65, 55
2, 48756, Control_c, 0, 64, 24
2, 48764, Control_c, 0, 64, 56
2, 48776, Control_c, 0, 64, 88
2, 48780, Note_on_c, 0, 62, 0
2, 48780, Note_on_c, 0, 46, 0
2, 48788, Note_on_c, 0, 65, 0
2, 48788, Control_c, 0, 64, 127
2, 48804, Note_on_c, 0, 68, 0
2, 48804, Note_on_c, 0, 44, 62
2, 48808, Note_on_c, 0, 74, 0
2, 48896, Control_c, 0, 64, 88
2, 48900, Note_on_c, 0, 44, 0
2, 48900, Note_on_c, 0, 74, 89
2, 48900, Note_on_c, 0, 43, 69
2, 48904, Note_on_c, 0, 62, 76
2, 48904, Note_on_c, 0, 68, 70
2, 48904, Control_c, 0, 64, 40
2, 48912, Note_on_c, 0, 65, 64
2, 48916, Control_c, 0, 64, 24
2, 48932, Note_on_c, 0, 65, 0
2, 48948, Control_c, 0, 64, 72
2, 48952, Note_on_c, 0, 62, 0
2, 48960, Control_c, 0, 64, 88
2, 48972, Note_on_c, 0, 74, 0
2, 48972, Control_c, 0, 64, 127
2, 48992, Note_on_c, 0, 68, 0
2, 49000, Note_on_c, 0, 41, 74
2, 49008, Note_on_c, 0, 43, 0
2, 49032, Note_on_c, 0, 41, 0
2, 49100, Control_c, 0, 64, 104
2, 49108, Note_on_c, 0, 75, 88
2, 49112, Note_on_c, 0, 63, 69
2, 49112, Control_c, 0, 64, 40
2, 49116, Note_on_c, 0, 67, 71
2, 49124, Control_c, 0, 64, 0
2, 49132, Note_on_c, 0, 51, 64
2, 49132, Note_on_c, 0, 39, 67
2, 49176, Control_c, 0, 64, 24
2, 49184, Note_on_c, 0, 67, 0
2, 49188, Control_c, 0, 64, 88
2, 49192, Note_on_c, 0, 39, 0
2, 49196, Note_on_c, 0, 63, 0
2, 49200, Note_on_c, 0, 51, 0
2, 49200, Control_c, 0, 64, 127
2, 49204, Note_on_c, 0, 75, 0
2, 49320, Control_c, 0, 64, 104
2, 49328, Note_on_c, 0, 62, 80
2, 49328, Control_c, 0, 64, 24
2, 49340, Note_on_c, 0, 50, 63
2, 49340, Control_c, 0, 64, 0
2, 49344, Note_on_c, 0, 38, 56
2, 49372, Note_on_c, 0, 38, 0
2, 49376, Note_on_c, 0, 50, 0
2, 49396, Control_c, 0, 64, 40
2, 49404, Control_c, 0, 64, 88
2, 49416, Control_c, 0, 64, 127
2, 49492, Control_c, 0, 64, 72
2, 49496, Note_on_c, 0, 62, 0
2, 49500, Control_c, 0, 64, 0
2, 49528, Note_on_c, 0, 61, 84
2, 49544, Note_on_c, 0, 37, 57
2, 49544, Note_on_c, 0, 49, 57
2, 49556, Control_c, 0, 64, 24
2, 49568, Control_c, 0, 64, 72
2, 49576, Note_on_c, 0, 49, 0
2, 49580, Note_on_c, 0, 37, 0
2, 49580, Control_c, 0, 64, 127
2, 49592, Note_on_c, 0, 61, 0
2, 49708, Control_c, 0, 64, 72
2, 49720, Control_c, 0, 64, 0
2, 49732, Note_on_c, 0, 61, 87
2, 49752, Note_on_c, 0, 37, 59
2, 49752, Note_on_c, 0, 49, 60
2, 49772, Note_on_c, 0, 49, 0
2, 49772, Note_on_c, 0, 37, 0
2, 49772, Control_c, 0, 64, 40
2, 49780, Note_on_c, 0, 61, 0
2, 49784, Control_c, 0, 64, 88
2, 49796, Control_c, 0, 64, 127
2, 49960, Note_on_c, 0, 85, 95
2, 49964, Note_on_c, 0, 73, 92
2, 49968, Note_on_c, 0, 61, 72
2, 49976, Note_on_c, 0, 49, 73
2, 50008, Note_on_c, 0, 73, 0
2, 50012, Note_on_c, 0, 61, 0
2, 50016, Note_on_c, 0, 49, 0
2, 50060, Note_on_c, 0, 85, 0
2, 50152, Note_on_c, 0, 85, 95
2, 50160, Note_on_c, 0, 73, 92
2, 50168, Note_on_c, 0, 61, 77
2, 50172, Note_on_c, 0, 49, 82
2, 50216, Note_on_c, 0, 73, 0
2, 50220, Note_on_c, 0, 49, 0
2, 50228, Note_on_c, 0, 61, 0
2, 50256, Note_on_c, 0, 85, 0
2, 50364, Note_on_c, 0, 85, 89
2, 50364, Note_on_c, 0, 73, 91
2, 50368, Note_on_c, 0, 61, 77
2, 50372, Note_on_c, 0, 49, 65
2, 50396, Note_on_c, 0, 49, 0
2, 50404, Note_on_c, 0, 61, 0
2, 50408, Note_on_c, 0, 73, 0
2, 50432, Note_on_c, 0, 85, 0
2, 50456, Note_on_c, 0, 87, 86
2, 50464, Note_on_c, 0, 63, 78
2, 50516, Note_on_c, 0, 63, 0
2, 50516, Note_on_c, 0, 87, 0
2, 50556, Note_on_c, 0, 85, 82
2, 50560, Note_on_c, 0, 61, 62
2, 50608, Note_on_c, 0, 85, 0
2, 50632, Note_on_c, 0, 61, 0
2, 50640, Note_on_c, 0, 56, 65
2, 50648, Note_on_c, 0, 80, 79
2, 50724, Note_on_c, 0, 80, 0
2, 50740, Note_on_c, 0, 77, 75
2, 50744, Note_on_c, 0, 53, 71
2, 50760, Note_on_c, 0, 56, 0
2, 50764, Note_on_c, 0, 77, 0
2, 50776, Note_on_c, 0, 53, 0
2, 50904, Control_c, 0, 64, 72
2, 50912, Control_c, 0, 64, 0
2, 50944, Note_on_c, 0, 74, 83
2, 50948, Note_on_c, 0, 34, 67
2, 50948, Note_on_c, 0, 68, 60
2, 50952, Note_on_c, 0, 62, 62
2, 50956, Note_on_c, 0, 65, 57
2, 50960, Note_on_c, 0, 47, 53
2, 50984, Note_on_c, 0, 34, 0
2, 51000, Control_c, 0, 64, 56
2, 51012, Control_c, 0, 64, 127
2, 51016, Note_on_c, 0, 47, 0
2, 51056, Note_on_c, 0, 48, 81
2, 51144, Note_on_c, 0, 48, 0
2, 51144, Note_on_c, 0, 50, 75
2, 51220, Note_on_c, 0, 50, 0
2, 51232, Note_on_c, 0, 51, 85
2, 51324, Note_on_c, 0, 51, 0
2, 51332, Note_on_c, 0, 53, 79
2, 51392, Control_c, 0, 64, 104
2, 51428, Note_on_c, 0, 55, 92
2, 51432, Control_c, 0, 64, 88
2, 51456, Note_on_c, 0, 53, 0
2, 51468, Control_c, 0, 64, 72
2, 51500, Control_c, 0, 64, 56
2, 51520, Control_c, 0, 64, 24
2, 51528, Note_on_c, 0, 56, 80
2, 51532, Control_c, 0, 64, 0
2, 51544, Note_on_c, 0, 55, 0
2, 51628, Note_on_c, 0, 56, 0
2, 51628, Note_on_c, 0, 55, 74
2, 51708, Note_on_c, 0, 55, 0
2, 51728, Note_on_c, 0, 53, 80
2, 51736, Control_c, 0, 64, 24
2, 51812, Control_c, 0, 64, 40
2, 51824, Note_on_c, 0, 53, 0
2, 51824, Note_on_c, 0, 51, 73
2, 51844, Control_c, 0, 64, 56
2, 51904, Note_on_c, 0, 51, 0
2, 51928, Note_on_c, 0, 50, 74
2, 51976, Control_c, 0, 64, 40
2, 51996, Note_on_c, 0, 50, 0
2, 52016, Note_on_c, 0, 48, 72
2, 52040, Control_c, 0, 64, 72
2, 52084, Control_c, 0, 64, 24
2, 52088, Note_on_c, 0, 48, 0
2, 52112, Note_on_c, 0, 47, 66
2, 52128, Control_c, 0, 64, 40
2, 52140, Control_c, 0, 64, 72
2, 52148, Control_c, 0, 64, 88
2, 52160, Control_c, 0, 64, 104
2, 52172, Control_c, 0, 64, 127
2, 52184, Note_on_c, 0, 47, 0
2, 52192, Note_on_c, 0, 62, 0
2, 52200, Note_on_c, 0, 65, 0
2, 52212, Note_on_c, 0, 48, 73
2, 52216, Note_on_c, 0, 68, 0
2, 52216, Note_on_c, 0, 74, 0
2, 52300, Note_on_c, 0, 48, 0
2, 52312, Control_c, 0, 64, 104
2, 52324, Control_c, 0, 64, 72
2, 52328, Note_on_c, 0, 74, 83
2, 52328, Note_on_c, 0, 68, 58
2, 52328, Note_on_c, 0, 46, 58
2, 52332, Note_on_c, 0, 62, 62
2, 52332, Control_c, 0, 64, 40
2, 52336, Note_on_c, 0, 65, 53
2, 52376, Control_c, 0, 64, 72
2, 52388, Control_c, 0, 64, 104
2, 52400, Control_c, 0, 64, 127
2, 52404, Note_on_c, 0, 46, 0
2, 52408, Note_on_c, 0, 62, 0
2, 52412, Note_on_c, 0, 44, 59
2, 52428, Note_on_c, 0, 65, 0
2, 52432, Note_on_c, 0, 68, 0
2, 52436, Note_on_c, 0, 74, 0
2, 52508, Note_on_c, 0, 44, 0
2, 52516, Control_c, 0, 64, 72
2, 52528, Control_c, 0, 64, 40
2, 52532, Note_on_c, 0, 74, 81
2, 52536, Note_on_c, 0, 43, 59
2, 52536, Note_on_c, 0, 68, 58
2, 52540, Note_on_c, 0, 62, 57
2, 52540, Note_on_c, 0, 65, 51
2, 52540, Control_c, 0, 64, 0
2, 52584, Note_on_c, 0, 65, 0
2, 52584, Note_on_c, 0, 62, 0
2, 52584, Control_c, 0, 64, 56
2, 52592, Control_c, 0, 64, 88
2, 52604, Control_c, 0, 64, 127
2, 52608, Note_on_c, 0, 74, 0
2, 52612, Note_on_c, 0, 43, 0
2, 52616, Note_on_c, 0, 68, 0
2, 52644, Note_on_c, 0, 41, 60
2, 52744, Note_on_c, 0, 41, 0
2, 52748, Control_c, 0, 64, 88
2, 52756, Control_c, 0, 64, 56
2, 52760, Note_on_c, 0, 75, 74
2, 52768, Note_on_c, 0, 63, 53
2, 52768, Control_c, 0, 64, 0
2, 52776, Note_on_c, 0, 39, 46
2, 52780, Note_on_c, 0, 67, 60
2, 52844, Control_c, 0, 64, 72
2, 52852, Control_c, 0, 64, 127
2, 52900, Note_on_c, 0, 63, 0
2, 52952, Note_on_c, 0, 67, 0
2, 52956, Note_on_c, 0, 75, 0
2, 52968, Note_on_c, 0, 39, 0
2, 52984, Control_c, 0, 64, 72
2, 52996, Control_c, 0, 64, 24
2, 53000, Note_on_c, 0, 68, 65
2, 53000, Note_on_c, 0, 41, 53
2, 53008, Control_c, 0, 64, 0
2, 53012, Note_on_c, 0, 62, 52
2, 53048, Control_c, 0, 64, 40
2, 53052, Note_on_c, 0, 62, 0
2, 53060, Control_c, 0, 64, 88
2, 53072, Control_c, 0, 64, 127
2, 53208, Note_on_c, 0, 68, 0
2, 53212, Note_on_c, 0, 41, 0
2, 53224, Control_c, 0, 64, 104
2, 53232, Note_on_c, 0, 70, 69
2, 53236, Note_on_c, 0, 61, 53
2, 53236, Control_c, 0, 64, 40
2, 53244, Control_c, 0, 64, 0
2, 53256, Note_on_c, 0, 43, 48
2, 53300, Control_c, 0, 64, 56
2, 53308, Note_on_c, 0, 43, 0
2, 53312, Control_c, 0, 64, 127
2, 53332, Note_on_c, 0, 70, 0
2, 53336, Note_on_c, 0, 61, 0
2, 53452, Control_c, 0, 64, 72
2, 53464, Control_c, 0, 64, 0
2, 53468, Note_on_c, 0, 68, 67
2, 53480, Note_on_c, 0, 32, 62
2, 53484, Note_on_c, 0, 60, 56
2, 53484, Note_on_c, 0, 44, 49
2, 53516, Control_c, 0, 64, 56
2, 53524, Note_on_c, 0, 44, 0
2, 53524, Note_on_c, 0, 60, 0
2, 53528, Control_c, 0, 64, 104
2, 53540, Note_on_c, 0, 68, 0
2, 53540, Control_c, 0, 64, 127
2, 53560, Note_on_c, 0, 32, 0
2, 53700, Control_c, 0, 64, 72
2, 53712, Note_on_c, 0, 80, 80
2, 53712, Control_c, 0, 64, 40
2, 53724, Note_on_c, 0, 60, 60
2, 53724, Control_c, 0, 64, 24
2, 53728, Note_on_c, 0, 56, 45
2, 53728, Note_on_c, 0, 75, 46
2, 53736, Note_on_c, 0, 51, 39
2, 53744, Control_c, 0, 64, 56
2, 53756, Control_c, 0, 64, 104
2, 53764, Control_c, 0, 64, 127
2, 53792, Note_on_c, 0, 60, 0
2, 53796, Note_on_c, 0, 56, 0
2, 53816, Note_on_c, 0, 51, 0
2, 53824, Note_on_c, 0, 75, 0
2, 53920, Note_on_c, 0, 51, 43
2, 53920, Note_on_c, 0, 60, 46
2, 53920, Note_on_c, 0, 56, 34
2, 53936, Note_on_c, 0, 80, 0
2, 53948, Note_on_c, 0, 56, 0
2, 53948, Note_on_c, 0, 60, 0
2, 53960, Note_on_c, 0, 51, 0
2, 54004, Note_on_c, 0, 80, 77
2, 54004, Control_c, 0, 64, 88
2, 54016, Control_c, 0, 64, 72
2, 54028, Control_c, 0, 64, 40
2, 54036, Control_c, 0, 64, 0
2, 54060, Note_on_c, 0, 80, 0
2, 54100, Control_c, 0, 64, 56
2, 54104, Note_on_c, 0, 80, 74
2, 54112, Control_c, 0, 64, 104
2, 54116, Note_on_c, 0, 75, 60
2, 54120, Note_on_c, 0, 60, 42
2, 54124, Control_c, 0, 64, 127
2, 54132, Note_on_c, 0, 51, 27
2, 54140, Note_on_c, 0, 75, 0
2, 54144, Note_on_c, 0, 60, 0
2, 54152, Note_on_c, 0, 51, 0
2, 54176, Note_on_c, 0, 80, 0
2, 54196, Note_on_c, 0, 82, 73
2, 54256, Note_on_c, 0, 82, 0
2, 54292, Note_on_c, 0, 80, 80
2, 54300, Note_on_c, 0, 44, 51
2, 54340, Note_on_c, 0, 44, 0
2, 54356, Note_on_c, 0, 80, 0
2, 54380, Note_on_c, 0, 75, 73
2, 54464, Note_on_c, 0, 75, 0
2, 54472, Note_on_c, 0, 72, 81
2, 54488, Note_on_c, 0, 60, 56
2, 54492, Note_on_c, 0, 56, 37
2, 54500, Note_on_c, 0, 51, 34
2, 54512, Note_on_c, 0, 60, 0
2, 54516, Note_on_c, 0, 56, 0
2, 54520, Note_on_c, 0, 72, 0
2, 54524, Note_on_c, 0, 51, 0
2, 54576, Note_on_c, 0, 68, 71
2, 54580, Control_c, 0, 64, 104
2, 54600, Control_c, 0, 64, 88
2, 54612, Control_c, 0, 64, 56
2, 54616, Note_on_c, 0, 68, 0
2, 54624, Control_c, 0, 64, 24
2, 54632, Control_c, 0, 64, 0
2, 54680, Note_on_c, 0, 68, 77
2, 54692, Note_on_c, 0, 46, 57
2, 54708, Control_c, 0, 64, 24
2, 54720, Note_on_c, 0, 68, 0
2, 54720, Control_c, 0, 64, 72
2, 54732, Note_on_c, 0, 70, 69
2, 54732, Control_c, 0, 64, 127
2, 54764, Note_on_c, 0, 46, 0
2, 54784, Note_on_c, 0, 68, 72
2, 54788, Note_on_c, 0, 70, 0
2, 54840, Control_c, 0, 64, 88
2, 54848, Control_c, 0, 64, 40
2, 54860, Control_c, 0, 64, 0
2, 54892, Note_on_c, 0, 68, 0
2, 54892, Note_on_c, 0, 67, 79
2, 54896, Note_on_c, 0, 61, 52
2, 54904, Note_on_c, 0, 55, 58
2, 54904, Control_c, 0, 64, 72
2, 54912, Note_on_c, 0, 51, 40
2, 54916, Control_c, 0, 64, 127
2, 54924, Note_on_c, 0, 55, 0
2, 54936, Note_on_c, 0, 51, 0
2, 54940, Note_on_c, 0, 61, 0
2, 55012, Control_c, 0, 64, 104
2, 55024, Control_c, 0, 64, 56
2, 55036, Control_c, 0, 64, 24
2, 55044, Control_c, 0, 64, 0
2, 55088, Note_on_c, 0, 67, 0
2, 55096, Note_on_c, 0, 66, 78
2, 55108, Note_on_c, 0, 61, 44
2, 55112, Note_on_c, 0, 51, 48
2, 55112, Control_c, 0, 64, 24
2, 55120, Note_on_c, 0, 54, 31
2, 55120, Control_c, 0, 64, 56
2, 55132, Note_on_c, 0, 51, 0
2, 55132, Note_on_c, 0, 61, 0
2, 55132, Control_c, 0, 64, 88
2, 55140, Note_on_c, 0, 54, 0
2, 55144, Control_c, 0, 64, 104
2, 55148, Note_on_c, 0, 66, 0
2, 55220, Control_c, 0, 64, 72
2, 55232, Control_c, 0, 64, 24
2, 55240, Control_c, 0, 64, 0
2, 55304, Note_on_c, 0, 66, 83
2, 55316, Control_c, 0, 64, 56
2, 55328, Note_on_c, 0, 61, 42
2, 55328, Control_c, 0, 64, 104
2, 55332, Note_on_c, 0, 51, 46
2, 55336, Note_on_c, 0, 54, 44
2, 55340, Control_c, 0, 64, 127
2, 55356, Note_on_c, 0, 54, 0
2, 55356, Note_on_c, 0, 61, 0
2, 55364, Note_on_c, 0, 51, 0
2, 55368, Note_on_c, 0, 66, 0
2, 55512, Note_on_c, 0, 66, 74
2, 55528, Note_on_c, 0, 46, 56
2, 55588, Note_on_c, 0, 46, 0
2, 55588, Note_on_c, 0, 66, 0
2, 55712, Note_on_c, 0, 66, 72
2, 55716, Note_on_c, 0, 61, 44
2, 55728, Note_on_c, 0, 51, 47
2, 55732, Note_on_c, 0, 54, 42
2, 55744, Note_on_c, 0, 61, 0
2, 55752, Note_on_c, 0, 54, 0
2, 55756, Note_on_c, 0, 51, 0
2, 55768, Note_on_c, 0, 66, 0
2, 55904, Control_c, 0, 64, 104
2, 55912, Note_on_c, 0, 66, 70
2, 55912, Control_c, 0, 64, 40
2, 55924, Control_c, 0, 64, 0
2, 55928, Note_on_c, 0, 46, 61
2, 55956, Control_c, 0, 64, 24
2, 55964, Note_on_c, 0, 66, 0
2, 55968, Control_c, 0, 64, 72
2, 55980, Control_c, 0, 64, 127
2, 55996, Note_on_c, 0, 46, 0
2, 56124, Note_on_c, 0, 78, 92
2, 56132, Note_on_c, 0, 73, 76
2, 56140, Note_on_c, 0, 61, 42
2, 56148, Note_on_c, 0, 54, 38
2, 56152, Note_on_c, 0, 51, 39
2, 56176, Note_on_c, 0, 73, 0
2, 56212, Note_on_c, 0, 51, 0
2, 56216, Note_on_c, 0, 54, 0
2, 56216, Note_on_c, 0, 61, 0
2, 56344, Note_on_c, 0, 61, 32
2, 56344, Note_on_c, 0, 51, 44
2, 56356, Note_on_c, 0, 78, 0
2, 56356, Note_on_c, 0, 54, 26
2, 56380, Note_on_c, 0, 54, 0
2, 56392, Note_on_c, 0, 61, 0
2, 56396, Note_on_c, 0, 51, 0
2, 56420, Note_on_c, 0, 78, 85
2, 56436, Note_on_c, 0, 73, 63
2, 56456, Note_on_c, 0, 73, 0
2, 56480, Note_on_c, 0, 78, 0
2, 56524, Note_on_c, 0, 78, 81
2, 56536, Note_on_c, 0, 61, 52
2, 56536, Note_on_c, 0, 73, 70
2, 56544, Note_on_c, 0, 51, 45
2, 56552, Note_on_c, 0, 54, 30
2, 56572, Note_on_c, 0, 73, 0
2, 56580, Note_on_c, 0, 51, 0
2, 56588, Note_on_c, 0, 78, 0
2, 56596, Note_on_c, 0, 61, 0
2, 56616, Note_on_c, 0, 80, 81
2, 56664, Note_on_c, 0, 54, 0
2, 56680, Note_on_c, 0, 80, 0
2, 56712, Note_on_c, 0, 78, 82
2, 56712, Note_on_c, 0, 46, 54
2, 56784, Note_on_c, 0, 46, 0
2, 56784, Note_on_c, 0, 78, 0
2, 56812, Note_on_c, 0, 73, 78
2, 56884, Note_on_c, 0, 73, 0
2, 56900, Note_on_c, 0, 61, 36
2, 56908, Note_on_c, 0, 51, 33
2, 56908, Note_on_c, 0, 70, 72
2, 56916, Note_on_c, 0, 54, 27
2, 56968, Note_on_c, 0, 54, 0
2, 56976, Note_on_c, 0, 51, 0
2, 56984, Note_on_c, 0, 61, 0
2, 56992, Note_on_c, 0, 70, 0
2, 56996, Note_on_c, 0, 66, 71
2, 57044, Note_on_c, 0, 66, 0
2, 57052, Control_c, 0, 64, 104
2, 57064, Control_c, 0, 64, 40
2, 57076, Control_c, 0, 64, 0
2, 57104, Note_on_c, 0, 66, 61
2, 57112, Note_on_c, 0, 48, 64
2, 57140, Note_on_c, 0, 66, 0
2, 57152, Control_c, 0, 64, 24
2, 57160, Control_c, 0, 64, 72
2, 57164, Note_on_c, 0, 68, 64
2, 57168, Note_on_c, 0, 48, 0
2, 57172, Control_c, 0, 64, 127
2, 57208, Note_on_c, 0, 68, 0
2, 57208, Note_on_c, 0, 66, 73
2, 57224, Control_c, 0, 64, 104
2, 57236, Control_c, 0, 64, 56
2, 57248, Control_c, 0, 64, 0
2, 57288, Note_on_c, 0, 63, 55
2, 57292, Note_on_c, 0, 66, 0
2, 57300, Note_on_c, 0, 65, 80
2, 57308, Note_on_c, 0, 57, 44
2, 57308, Note_on_c, 0, 53, 37
2, 57312, Control_c, 0, 64, 24
2, 57324, Control_c, 0, 64, 40
2, 57332, Note_on_c, 0, 57, 0
2, 57336, Note_on_c, 0, 53, 0
2, 57336, Note_on_c, 0, 63, 0
2, 57336, Control_c, 0, 64, 56
2, 57352, Note_on_c, 0, 65, 0
2, 57368, Control_c, 0, 64, 40
2, 57376, Control_c, 0, 64, 0
2, 57444, Control_c, 0, 64, 24
2, 57452, Control_c, 0, 64, 56
2, 57464, Control_c, 0, 64, 104
2, 57476, Control_c, 0, 64, 127
2, 57496, Note_on_c, 0, 65, 78
2, 57508, Note_on_c, 0, 63, 35
2, 57508, Note_on_c, 0, 53, 46
2, 57524, Note_on_c, 0, 57, 34
2, 57552, Note_on_c, 0, 57, 0
2, 57560, Note_on_c, 0, 65, 0
2, 57568, Note_on_c, 0, 63, 0
2, 57572, Note_on_c, 0, 53, 0
2, 57700, Note_on_c, 0, 65, 82
2, 57708, Note_on_c, 0, 63, 38
2, 57724, Note_on_c, 0, 57, 44
2, 57752, Note_on_c, 0, 65, 0
2, 57764, Note_on_c, 0, 63, 0
2, 57800, Note_on_c, 0, 57, 0
2, 57900, Note_on_c, 0, 65, 86
2, 57900, Control_c, 0, 64, 56
2, 57908, Control_c, 0, 64, 0
2, 57912, Note_on_c, 0, 48, 65
2, 57928, Note_on_c, 0, 48, 0
2, 57940, Control_c, 0, 64, 72
2, 57952, Control_c, 0, 64, 127
2, 57980, Note_on_c, 0, 65, 0
2, 58060, Control_c, 0, 64, 104
2, 58072, Control_c, 0, 64, 56
2, 58084, Control_c, 0, 64, 0
2, 58108, Note_on_c, 0, 77, 90
2, 58112, Note_on_c, 0, 65, 74
2, 58112, Note_on_c, 0, 63, 51
2, 58124, Note_on_c, 0, 57, 44
2, 58128, Control_c, 0, 64, 56
2, 58132, Note_on_c, 0, 53, 43
2, 58136, Control_c, 0, 64, 104
2, 58144, Note_on_c, 0, 57, 0
2, 58148, Control_c, 0, 64, 127
2, 58152, Note_on_c, 0, 63, 0
2, 58156, Note_on_c, 0, 53, 0
2, 58156, Note_on_c, 0, 65, 0
2, 58168, Note_on_c, 0, 77, 0
2, 58320, Control_c, 0, 64, 72
2, 58332, Control_c, 0, 64, 0
2, 58340, Note_on_c, 0, 77, 85
2, 58340, Note_on_c, 0, 46, 58
2, 58344, Note_on_c, 0, 65, 66
2, 58344, Note_on_c, 0, 58, 39
2, 58360, Note_on_c, 0, 65, 0
2, 58376, Control_c, 0, 64, 40
2, 58384, Note_on_c, 0, 46, 0
2, 58388, Note_on_c, 0, 77, 0
2, 58388, Control_c, 0, 64, 104
2, 58396, Note_on_c, 0, 58, 0
2, 58396, Control_c, 0, 64, 127
2, 58556, Note_on_c, 0, 82, 81
2, 58556, Note_on_c, 0, 61, 46
2, 58556, Note_on_c, 0, 58, 46
2, 58560, Note_on_c, 0, 70, 75
2, 58580, Note_on_c, 0, 61, 0
2, 58600, Note_on_c, 0, 58, 0
2, 58604, Note_on_c, 0, 70, 0
2, 58624, Note_on_c, 0, 82, 0
2, 58768, Note_on_c, 0, 82, 78
2, 58776, Note_on_c, 0, 70, 67
2, 58784, Note_on_c, 0, 44, 64
2, 58788, Note_on_c, 0, 56, 61
2, 58788, Control_c, 0, 64, 40
2, 58796, Control_c, 0, 64, 0
2, 58828, Note_on_c, 0, 44, 0
2, 58836, Note_on_c, 0, 56, 0
2, 58844, Control_c, 0, 64, 56
2, 58852, Control_c, 0, 64, 127
2, 58992, Note_on_c, 0, 61, 55
2, 59004, Note_on_c, 0, 58, 33
2, 59016, Note_on_c, 0, 61, 0
2, 59024, Note_on_c, 0, 58, 0
2, 59028, Note_on_c, 0, 70, 0
2, 59036, Note_on_c, 0, 82, 0
2, 59088, Note_on_c, 0, 81, 82
2, 59092, Note_on_c, 0, 69, 75
2, 59120, Note_on_c, 0, 69, 0
2, 59128, Note_on_c, 0, 81, 0
2, 59188, Control_c, 0, 64, 88
2, 59192, Note_on_c, 0, 82, 84
2, 59192, Note_on_c, 0, 70, 83
2, 59200, Control_c, 0, 64, 40
2, 59204, Note_on_c, 0, 43, 65
2, 59212, Note_on_c, 0, 55, 56
2, 59212, Control_c, 0, 64, 24
2, 59220, Control_c, 0, 64, 72
2, 59232, Note_on_c, 0, 70, 0
2, 59232, Control_c, 0, 64, 127
2, 59244, Note_on_c, 0, 82, 0
2, 59244, Note_on_c, 0, 43, 0
2, 59260, Note_on_c, 0, 55, 0
2, 59288, Note_on_c, 0, 84, 94
2, 59292, Note_on_c, 0, 72, 86
2, 59316, Note_on_c, 0, 72, 0
2, 59324, Note_on_c, 0, 84, 0
2, 59388, Note_on_c, 0, 85, 90
2, 59396, Note_on_c, 0, 73, 88
2, 59396, Note_on_c, 0, 61, 65
2, 59396, Control_c, 0, 64, 72
2, 59400, Note_on_c, 0, 58, 62
2, 59420, Note_on_c, 0, 61, 0
2, 59428, Control_c, 0, 64, 127
2, 59432, Note_on_c, 0, 58, 0
2, 59556, Control_c, 0, 64, 56
2, 59568, Control_c, 0, 64, 40
2, 59576, Note_on_c, 0, 85, 0
2, 59576, Note_on_c, 0, 54, 65
2, 59580, Note_on_c, 0, 73, 0
2, 59580, Note_on_c, 0, 42, 66
2, 59580, Control_c, 0, 64, 88
2, 59588, Control_c, 0, 64, 127
2, 59608, Note_on_c, 0, 42, 0
2, 59612, Note_on_c, 0, 54, 0
2, 59684, Note_on_c, 0, 81, 87
2, 59684, Note_on_c, 0, 69, 73
2, 59716, Note_on_c, 0, 69, 0
2, 59724, Note_on_c, 0, 81, 0
2, 59776, Note_on_c, 0, 61, 68
2, 59780, Note_on_c, 0, 58, 67
2, 59784, Note_on_c, 0, 70, 86
2, 59784, Note_on_c, 0, 82, 88
2, 59796, Note_on_c, 0, 61, 0
2, 59804, Note_on_c, 0, 58, 0
2, 59820, Note_on_c, 0, 70, 0
2, 59840, Note_on_c, 0, 82, 0
2, 59888, Note_on_c, 0, 84, 100
2, 59888, Note_on_c, 0, 72, 97
2, 59916, Note_on_c, 0, 84, 0
2, 59920, Note_on_c, 0, 72, 0
2, 59980, Note_on_c, 0, 85, 96
2, 59984, Note_on_c, 0, 73, 97
2, 59992, Note_on_c, 0, 53, 74
2, 59992, Note_on_c, 0, 41, 73
2, 59992, Control_c, 0, 64, 104
2, 60004, Control_c, 0, 64, 24
2, 60012, Note_on_c, 0, 41, 0
2, 60012, Control_c, 0, 64, 0
2, 60020, Note_on_c, 0, 73, 0
2, 60036, Note_on_c, 0, 53, 0
2, 60044, Note_on_c, 0, 85, 0
2, 60044, Control_c, 0, 64, 72
2, 60056, Control_c, 0, 64, 127
2, 60208, Note_on_c, 0, 58, 62
2, 60208, Note_on_c, 0, 61, 59
2, 60216, Note_on_c, 0, 94, 106
2, 60220, Note_on_c, 0, 82, 96
2, 60232, Control_c, 0, 64, 72
2, 60240, Control_c, 0, 64, 0
2, 60248, Note_on_c, 0, 61, 0
2, 60252, Note_on_c, 0, 58, 0
2, 60284, Control_c, 0, 64, 72
2, 60296, Control_c, 0, 64, 127
2, 60360, Control_c, 0, 64, 56
2, 60372, Control_c, 0, 64, 0
2, 60384, Control_c, 0, 64, 24
2, 60392, Control_c, 0, 64, 56
2, 60404, Note_on_c, 0, 40, 73
2, 60404, Control_c, 0, 64, 127
2, 60432, Note_on_c, 0, 52, 66
2, 60448, Note_on_c, 0, 40, 0
2, 60480, Note_on_c, 0, 52, 0
2, 60480, Note_on_c, 0, 94, 0
2, 60504, Note_on_c, 0, 82, 0
2, 60612, Note_on_c, 0, 92, 93
2, 60616, Note_on_c, 0, 80, 85
2, 60616, Note_on_c, 0, 58, 54
2, 60616, Note_on_c, 0, 61, 55
2, 60640, Note_on_c, 0, 61, 0
2, 60652, Note_on_c, 0, 58, 0
2, 60672, Note_on_c, 0, 80, 0
2, 60704, Note_on_c, 0, 92, 0
2, 60816, Control_c, 0, 64, 72
2, 60828, Note_on_c, 0, 91, 85
2, 60828, Control_c, 0, 64, 0
2, 60832, Note_on_c, 0, 39, 61
2, 60832, Note_on_c, 0, 79, 68
2, 60844, Note_on_c, 0, 51, 58
2, 60868, Note_on_c, 0, 91, 0
2, 60868, Control_c, 0, 64, 40
2, 60872, Note_on_c, 0, 39, 0
2, 60872, Note_on_c, 0, 51, 0
2, 60880, Control_c, 0, 64, 88
2, 60884, Note_on_c, 0, 79, 0
2, 60892, Control_c, 0, 64, 127
2, 61024, Control_c, 0, 64, 56
2, 61032, Control_c, 0, 64, 24
2, 61044, Control_c, 0, 64, 40
2, 61056, Control_c, 0, 64, 72
2, 61060, Note_on_c, 0, 82, 71
2, 61060, Note_on_c, 0, 58, 43
2, 61060, Note_on_c, 0, 61, 40
2, 61060, Note_on_c, 0, 70, 64
2, 61064, Control_c, 0, 64, 104
2, 61076, Control_c, 0, 64, 127
2, 61080, Note_on_c, 0, 61, 0
2, 61088, Note_on_c, 0, 58, 0
2, 61104, Note_on_c, 0, 70, 0
2, 61112, Note_on_c, 0, 82, 0
2, 61260, Control_c, 0, 64, 72
2, 61268, Note_on_c, 0, 82, 75
2, 61272, Note_on_c, 0, 70, 64
2, 61272, Control_c, 0, 64, 0
2, 61276, Note_on_c, 0, 56, 54
2, 61276, Note_on_c, 0, 44, 56
2, 61316, Control_c, 0, 64, 40
2, 61320, Note_on_c, 0, 56, 0
2, 61324, Control_c, 0, 64, 88
2, 61328, Note_on_c, 0, 44, 0
2, 61336, Control_c, 0, 64, 127
2, 61472, Note_on_c, 0, 61, 55
2, 61472, Note_on_c, 0, 58, 52
2, 61496, Note_on_c, 0, 61, 0
2, 61504, Note_on_c, 0, 58, 0
2, 61512, Note_on_c, 0, 70, 0
2, 61512, Note_on_c, 0, 82, 0
2, 61560, Note_on_c, 0, 81, 81
2, 61568, Note_on_c, 0, 69, 68
2, 61592, Note_on_c, 0, 69, 0
2, 61604, Note_on_c, 0, 81, 0
2, 61660, Control_c, 0, 64, 88
2, 61664, Note_on_c, 0, 82, 77
2, 61664, Note_on_c, 0, 70, 73
2, 61672, Control_c, 0, 64, 40
2, 61684, Control_c, 0, 64, 24
2, 61688, Note_on_c, 0, 55, 56
2, 61692, Note_on_c, 0, 43, 61
2, 61696, Control_c, 0, 64, 40
2, 61704, Note_on_c, 0, 70, 0
2, 61704, Control_c, 0, 64, 88
2, 61716, Control_c, 0, 64, 127
2, 61720, Note_on_c, 0, 82, 0
2, 61732, Note_on_c, 0, 55, 0
2, 61736, Note_on_c, 0, 43, 0
2, 61764, Note_on_c, 0, 84, 89
2, 61764, Note_on_c, 0, 72, 80
2, 61784, Note_on_c, 0, 72, 0
2, 61796, Note_on_c, 0, 84, 0
2, 61848, Control_c, 0, 64, 72
2, 61856, Control_c, 0, 64, 40
2, 61864, Note_on_c, 0, 85, 84
2, 61872, Note_on_c, 0, 73, 85
2, 61876, Note_on_c, 0, 58, 61
2, 61876, Note_on_c, 0, 61, 62
2, 61880, Control_c, 0, 64, 88
2, 61888, Control_c, 0, 64, 127
2, 61912, Note_on_c, 0, 61, 0
2, 61916, Note_on_c, 0, 58, 0
2, 62036, Note_on_c, 0, 85, 0
2, 62040, Control_c, 0, 64, 72
2, 62048, Note_on_c, 0, 73, 0
2, 62052, Control_c, 0, 64, 56
2, 62064, Note_on_c, 0, 42, 67
2, 62064, Control_c, 0, 64, 88
2, 62068, Note_on_c, 0, 54, 75
2, 62076, Control_c, 0, 64, 127
2, 62100, Note_on_c, 0, 54, 0
2, 62100, Note_on_c, 0, 42, 0
2, 62160, Note_on_c, 0, 81, 77
2, 62168, Note_on_c, 0, 69, 60
2, 62188, Note_on_c, 0, 69, 0
2, 62208, Note_on_c, 0, 81, 0
2, 62252, Note_on_c, 0, 61, 71
2, 62256, Note_on_c, 0, 70, 78
2, 62260, Note_on_c, 0, 82, 84
2, 62260, Note_on_c, 0, 58, 64
2, 62280, Note_on_c, 0, 58, 0
2, 62288, Note_on_c, 0, 61, 0
2, 62292, Note_on_c, 0, 70, 0
2, 62308, Note_on_c, 0, 82, 0
2, 62348, Note_on_c, 0, 84, 99
2, 62352, Note_on_c, 0, 72, 89
2, 62380, Note_on_c, 0, 72, 0
2, 62392, Note_on_c, 0, 84, 0
2, 62452, Note_on_c, 0, 85, 95
2, 62456, Note_on_c, 0, 73, 91
2, 62464, Note_on_c, 0, 53, 71
2, 62464, Control_c, 0, 64, 40
2, 62468, Note_on_c, 0, 41, 66
2, 62476, Control_c, 0, 64, 0
2, 62488, Note_on_c, 0, 41, 0
2, 62492, Note_on_c, 0, 73, 0
2, 62508, Note_on_c, 0, 85, 0
2, 62508, Control_c, 0, 64, 56
2, 62512, Note_on_c, 0, 53, 0
2, 62520, Control_c, 0, 64, 127
2, 62684, Note_on_c, 0, 94, 105
2, 62684, Note_on_c, 0, 82, 88
2, 62688, Note_on_c, 0, 61, 60
2, 62688, Note_on_c, 0, 58, 59
2, 62704, Control_c, 0, 64, 104
2, 62716, Control_c, 0, 64, 24
2, 62724, Note_on_c, 0, 61, 0
2, 62724, Control_c, 0, 64, 0
2, 62732, Note_on_c, 0, 58, 0
2, 62736, Control_c, 0, 64, 40
2, 62748, Control_c, 0, 64, 88
2, 62756, Control_c, 0, 64, 127
2, 62844, Control_c, 0, 64, 56
2, 62856, Control_c, 0, 64, 0
2, 62864, Control_c, 0, 64, 24
2, 62876, Control_c, 0, 64, 72
2, 62884, Note_on_c, 0, 40, 63
2, 62888, Control_c, 0, 64, 127
2, 62908, Note_on_c, 0, 52, 61
2, 62936, Note_on_c, 0, 40, 0
2, 62952, Note_on_c, 0, 52, 0
2, 62968, Note_on_c, 0, 94, 0
2, 62992, Note_on_c, 0, 82, 0
2, 63072, Control_c, 0, 64, 104
2, 63084, Note_on_c, 0, 92, 100
2, 63084, Note_on_c, 0, 61, 55
2, 63084, Control_c, 0, 64, 72
2, 63088, Note_on_c, 0, 80, 87
2, 63088, Note_on_c, 0, 58, 56
2, 63104, Control_c, 0, 64, 104
2, 63108, Note_on_c, 0, 61, 0
2, 63116, Control_c, 0, 64, 127
2, 63120, Note_on_c, 0, 58, 0
2, 63256, Control_c, 0, 64, 88
2, 63268, Control_c, 0, 64, 24
2, 63280, Control_c, 0, 64, 0
2, 63288, Control_c, 0, 64, 24
2, 63296, Note_on_c, 0, 39, 61
2, 63300, Control_c, 0, 64, 56
2, 63312, Control_c, 0, 64, 127
2, 63340, Note_on_c, 0, 39, 0
2, 63400, Note_on_c, 0, 92, 0
2, 63412, Note_on_c, 0, 80, 0
2, 63484, Control_c, 0, 64, 88
2, 63492, Note_on_c, 0, 91, 89
2, 63496, Note_on_c, 0, 79, 76
2, 63496, Note_on_c, 0, 55, 57
2, 63496, Control_c, 0, 64, 24
2, 63500, Note_on_c, 0, 46, 50
2, 63508, Control_c, 0, 64, 0
2, 63516, Control_c, 0, 64, 40
2, 63528, Control_c, 0, 64, 72
2, 63540, Note_on_c, 0, 55, 0
2, 63540, Control_c, 0, 64, 127
2, 63548, Note_on_c, 0, 46, 0
2, 63656, Control_c, 0, 64, 104
2, 63668, Control_c, 0, 64, 56
2, 63680, Control_c, 0, 64, 40
2, 63688, Note_on_c, 0, 39, 64
2, 63688, Control_c, 0, 64, 72
2, 63700, Control_c, 0, 64, 127
2, 63752, Note_on_c, 0, 39, 0
2, 63796, Note_on_c, 0, 79, 0
2, 63796, Note_on_c, 0, 91, 0
2, 63884, Note_on_c, 0, 89, 99
2, 63888, Note_on_c, 0, 77, 86
2, 63888, Note_on_c, 0, 56, 53
2, 63896, Control_c, 0, 64, 56
2, 63908, Control_c, 0, 64, 24
2, 63912, Note_on_c, 0, 47, 33
2, 63916, Control_c, 0, 64, 40
2, 63928, Control_c, 0, 64, 72
2, 63936, Note_on_c, 0, 56, 0
2, 63940, Control_c, 0, 64, 127
2, 63952, Note_on_c, 0, 47, 0
2, 64048, Control_c, 0, 64, 104
2, 64060, Control_c, 0, 64, 56
2, 64072, Control_c, 0, 64, 40
2, 64080, Control_c, 0, 64, 72
2, 64092, Control_c, 0, 64, 104
2, 64096, Note_on_c, 0, 39, 59
2, 64104, Control_c, 0, 64, 127
2, 64136, Note_on_c, 0, 39, 0
2, 64136, Note_on_c, 0, 89, 0
2, 64160, Note_on_c, 0, 77, 0
2, 64304, Note_on_c, 0, 87, 85
2, 64308, Note_on_c, 0, 75, 80
2, 64308, Note_on_c, 0, 48, 64
2, 64308, Control_c, 0, 64, 72
2, 64312, Note_on_c, 0, 57, 54
2, 64320, Note_on_c, 0, 54, 42
2, 64320, Control_c, 0, 64, 24
2, 64340, Note_on_c, 0, 54, 0
2, 64340, Note_on_c, 0, 57, 0
2, 64352, Control_c, 0, 64, 104
2, 64360, Note_on_c, 0, 48, 0
2, 64364, Control_c, 0, 64, 127
2, 64480, Control_c, 0, 64, 72
2, 64492, Control_c, 0, 64, 40
2, 64504, Control_c, 0, 64, 56
2, 64512, Note_on_c, 0, 39, 55
2, 64516, Control_c, 0, 64, 88
2, 64528, Control_c, 0, 64, 127
2, 64540, Note_on_c, 0, 39, 0
2, 64580, Note_on_c, 0, 87, 0
2, 64600, Note_on_c, 0, 75, 0
2, 64708, Control_c, 0, 64, 56
2, 64712, Note_on_c, 0, 85, 80
2, 64716, Note_on_c, 0, 73, 64
2, 64716, Control_c, 0, 64, 0
2, 64728, Note_on_c, 0, 58, 43
2, 64728, Note_on_c, 0, 55, 55
2, 64732, Note_on_c, 0, 49, 51
2, 64752, Note_on_c, 0, 55, 0
2, 64764, Control_c, 0, 64, 40
2, 64768, Note_on_c, 0, 58, 0
2, 64776, Control_c, 0, 64, 104
2, 64784, Note_on_c, 0, 49, 0
2, 64788, Control_c, 0, 64, 127
2, 64840, Control_c, 0, 64, 104
2, 64852, Control_c, 0, 64, 56
2, 64860, Control_c, 0, 64, 40
2, 64884, Control_c, 0, 64, 88
2, 64896, Control_c, 0, 64, 127
2, 64928, Note_on_c, 0, 39, 62
2, 64964, Note_on_c, 0, 39, 0
2, 64992, Note_on_c, 0, 73, 0
2, 64992, Note_on_c, 0, 85, 0
2, 65124, Note_on_c, 0, 84, 78
2, 65124, Control_c, 0, 64, 88
2, 65132, Control_c, 0, 64, 24
2, 65136, Note_on_c, 0, 72, 63
2, 65140, Note_on_c, 0, 60, 51
2, 65144, Note_on_c, 0, 51, 45
2, 65144, Note_on_c, 0, 57, 37
2, 65144, Note_on_c, 0, 54, 43
2, 65144, Control_c, 0, 64, 0
2, 65164, Note_on_c, 0, 60, 0
2, 65164, Control_c, 0, 64, 56
2, 65168, Note_on_c, 0, 57, 0
2, 65172, Note_on_c, 0, 54, 0
2, 65176, Control_c, 0, 64, 104
2, 65188, Note_on_c, 0, 51, 0
2, 65188, Control_c, 0, 64, 127
2, 65304, Note_on_c, 0, 72, 0
2, 65332, Note_on_c, 0, 39, 61
2, 65368, Note_on_c, 0, 39, 0
2, 65452, Note_on_c, 0, 84, 0
2, 65512, Control_c, 0, 64, 88
2, 65524, Control_c, 0, 64, 40
2, 65532, Control_c, 0, 64, 0
2, 65536, Note_on_c, 0, 82, 72
2, 65544, Note_on_c, 0, 70, 61
2, 65548, Note_on_c, 0, 61, 51
2, 65556, Note_on_c, 0, 51, 50
2, 65560, Note_on_c, 0, 55, 54
2, 65568, Control_c, 0, 64, 88
2, 65580, Note_on_c, 0, 55, 0
2, 65580, Note_on_c, 0, 61, 0
2, 65580, Control_c, 0, 64, 127
2, 65600, Note_on_c, 0, 51, 0
2, 65604, Note_on_c, 0, 70, 0
2, 65620, Note_on_c, 0, 82, 0
2, 65708, Control_c, 0, 64, 104
2, 65720, Control_c, 0, 64, 40
2, 65728, Control_c, 0, 64, 0
2, 65760, Note_on_c, 0, 68, 65
2, 65768, Note_on_c, 0, 44, 57
2, 65804, Control_c, 0, 64, 40
2, 65816, Control_c, 0, 64, 104
2, 65828, Control_c, 0, 64, 127
2, 65844, Note_on_c, 0, 44, 0
2, 65868, Note_on_c, 0, 68, 0
2, 65948, Control_c, 0, 64, 56
2, 65956, Control_c, 0, 64, 0
2, 65968, Note_on_c, 0, 80, 77
2, 65984, Note_on_c, 0, 56, 43
2, 65988, Note_on_c, 0, 75, 49
2, 65988, Note_on_c, 0, 60, 47
2, 65988, Note_on_c, 0, 51, 48
2, 66012, Control_c, 0, 64, 24
2, 66020, Control_c, 0, 64, 88
2, 66032, Control_c, 0, 64, 127
2, 66036, Note_on_c, 0, 60, 0
2, 66044, Note_on_c, 0, 51, 0
2, 66052, Note_on_c, 0, 75, 0
2, 66052, Note_on_c, 0, 56, 0
2, 66120, Control_c, 0, 64, 56
2, 66132, Control_c, 0, 64, 0
2, 66164, Note_on_c, 0, 80, 0
2, 66164, Control_c, 0, 64, 40
2, 66176, Note_on_c, 0, 60, 45
2, 66176, Note_on_c, 0, 56, 33
2, 66176, Control_c, 0, 64, 72
2, 66180, Note_on_c, 0, 51, 32
2, 66184, Control_c, 0, 64, 104
2, 66196, Control_c, 0, 64, 127
2, 66204, Note_on_c, 0, 60, 0
2, 66208, Note_on_c, 0, 56, 0
2, 66216, Note_on_c, 0, 51, 0
2, 66252, Note_on_c, 0, 80, 73
2, 66264, Note_on_c, 0, 75, 44
2, 66284, Note_on_c, 0, 75, 0
2, 66292, Control_c, 0, 64, 104
2, 66304, Note_on_c, 0, 80, 0
2, 66304, Control_c, 0, 64, 40
2, 66316, Control_c, 0, 64, 0
2, 66352, Note_on_c, 0, 80, 72
2, 66352, Note_on_c, 0, 75, 60
2, 66360, Note_on_c, 0, 51, 46
2, 66360, Note_on_c, 0, 60, 51
2, 66360, Control_c, 0, 64, 56
2, 66368, Note_on_c, 0, 56, 27
2, 66368, Control_c, 0, 64, 104
2, 66380, Control_c, 0, 64, 127
2, 66384, Note_on_c, 0, 60, 0
2, 66392, Note_on_c, 0, 56, 0
2, 66396, Note_on_c, 0, 51, 0
2, 66412, Note_on_c, 0, 75, 0
2, 66416, Note_on_c, 0, 80, 0
2, 66448, Note_on_c, 0, 82, 67
2, 66504, Note_on_c, 0, 82, 0
2, 66540, Note_on_c, 0, 44, 49
2, 66540, Note_on_c, 0, 80, 73
2, 66584, Note_on_c, 0, 44, 0
2, 66604, Note_on_c, 0, 80, 0
2, 66628, Note_on_c, 0, 75, 75
2, 66712, Note_on_c, 0, 75, 0
2, 66720, Note_on_c, 0, 72, 76
2, 66744, Note_on_c, 0, 60, 53
2, 66756, Note_on_c, 0, 51, 32
2, 66760, Note_on_c, 0, 56, 25
2, 66768, Note_on_c, 0, 60, 0
2, 66776, Note_on_c, 0, 56, 0
2, 66780, Note_on_c, 0, 51, 0
2, 66780, Note_on_c, 0, 72, 0
2, 66816, Note_on_c, 0, 68, 76
2, 66856, Note_on_c, 0, 68, 0
2, 66880, Control_c, 0, 64, 88
2, 66892, Control_c, 0, 64, 40
2, 66900, Control_c, 0, 64, 0
2, 66916, Note_on_c, 0, 68, 72
2, 66928, Note_on_c, 0, 46, 54
2, 66956, Note_on_c, 0, 68, 0
2, 66968, Note_on_c, 0, 70, 71
2, 66976, Note_on_c, 0, 46, 0
2, 66976, Control_c, 0, 64, 40
2, 66988, Control_c, 0, 64, 104
2, 66996, Control_c, 0, 64, 127
2, 67004, Note_on_c, 0, 68, 62
2, 67016, Note_on_c, 0, 70, 0
2, 67052, Control_c, 0, 64, 104
2, 67064, Control_c, 0, 64, 40
2, 67072, Control_c, 0, 64, 0
2, 67124, Note_on_c, 0, 68, 0
2, 67128, Note_on_c, 0, 67, 72
2, 67136, Note_on_c, 0, 61, 42
2, 67156, Note_on_c, 0, 51, 27
2, 67160, Note_on_c, 0, 61, 0
2, 67180, Note_on_c, 0, 51, 0
2, 67188, Note_on_c, 0, 67, 0
2, 67336, Note_on_c, 0, 67, 78
2, 67336, Note_on_c, 0, 61, 37
2, 67336, Control_c, 0, 64, 56
2, 67344, Control_c, 0, 64, 88
2, 67348, Note_on_c, 0, 51, 45
2, 67348, Note_on_c, 0, 55, 47
2, 67356, Control_c, 0, 64, 127
2, 67376, Note_on_c, 0, 55, 0
2, 67388, Note_on_c, 0, 61, 0
2, 67392, Note_on_c, 0, 67, 0
2, 67408, Note_on_c, 0, 51, 0
2, 67528, Note_on_c, 0, 67, 81
2, 67528, Note_on_c, 0, 61, 37
2, 67532, Note_on_c, 0, 51, 40
2, 67548, Note_on_c, 0, 55, 50
2, 67572, Note_on_c, 0, 55, 0
2, 67580, Note_on_c, 0, 61, 0
2, 67632, Note_on_c, 0, 51, 0
2, 67724, Control_c, 0, 64, 88
2, 67736, Control_c, 0, 64, 40
2, 67740, Note_on_c, 0, 46, 51
2, 67748, Note_on_c, 0, 79, 80
2, 67748, Control_c, 0, 64, 0
2, 67780, Control_c, 0, 64, 72
2, 67788, Note_on_c, 0, 67, 0
2, 67792, Control_c, 0, 64, 127
2, 67808, Note_on_c, 0, 46, 0
2, 67972, Note_on_c, 0, 61, 46
2, 67980, Note_on_c, 0, 51, 42
2, 67984, Note_on_c, 0, 55, 34
2, 68000, Note_on_c, 0, 61, 0
2, 68004, Note_on_c, 0, 55, 0
2, 68008, Note_on_c, 0, 51, 0
2, 68020, Note_on_c, 0, 79, 0
2, 68072, Note_on_c, 0, 67, 70
2, 68124, Note_on_c, 0, 67, 0
2, 68136, Control_c, 0, 64, 104
2, 68148, Control_c, 0, 64, 40
2, 68160, Control_c, 0, 64, 0
2, 68192, Note_on_c, 0, 67, 67
2, 68204, Note_on_c, 0, 47, 53
2, 68228, Note_on_c, 0, 47, 0
2, 68236, Control_c, 0, 64, 72
2, 68248, Control_c, 0, 64, 127
2, 68396, Note_on_c, 0, 55, 54
2, 68400, Note_on_c, 0, 62, 35
2, 68416, Note_on_c, 0, 62, 0
2, 68416, Note_on_c, 0, 55, 0
2, 68516, Note_on_c, 0, 67, 0
2, 68544, Note_on_c, 0, 79, 72
2, 68580, Note_on_c, 0, 47, 55
2, 68592, Note_on_c, 0, 67, 71
2, 68592, Control_c, 0, 64, 88
2, 68596, Note_on_c, 0, 79, 0
2, 68600, Note_on_c, 0, 47, 0
2, 68604, Control_c, 0, 64, 56
2, 68612, Control_c, 0, 64, 24
2, 68624, Control_c, 0, 64, 0
2, 68656, Note_on_c, 0, 67, 0
2, 68716, Note_on_c, 0, 79, 84
2, 68776, Note_on_c, 0, 79, 0
2, 68776, Note_on_c, 0, 68, 74
2, 68796, Note_on_c, 0, 48, 63
2, 68816, Note_on_c, 0, 48, 0
2, 68820, Control_c, 0, 64, 56
2, 68832, Control_c, 0, 64, 88
2, 68844, Control_c, 0, 64, 127
2, 68976, Note_on_c, 0, 63, 47
2, 68980, Note_on_c, 0, 55, 60
2, 69012, Note_on_c, 0, 63, 0
2, 69036, Note_on_c, 0, 55, 0
2, 69060, Note_on_c, 0, 68, 0
2, 69084, Note_on_c, 0, 79, 79
2, 69144, Note_on_c, 0, 68, 78
2, 69152, Note_on_c, 0, 48, 66
2, 69156, Control_c, 0, 64, 88
2, 69164, Note_on_c, 0, 79, 0
2, 69168, Control_c, 0, 64, 56
2, 69172, Note_on_c, 0, 48, 0
2, 69180, Control_c, 0, 64, 40
2, 69188, Control_c, 0, 64, 24
2, 69200, Control_c, 0, 64, 0
2, 69224, Note_on_c, 0, 68, 0
2, 69288, Note_on_c, 0, 79, 74
2, 69328, Note_on_c, 0, 69, 74
2, 69340, Note_on_c, 0, 49, 54
2, 69352, Note_on_c, 0, 79, 0
2, 69352, Control_c, 0, 64, 24
2, 69396, Note_on_c, 0, 49, 0
2, 69404, Control_c, 0, 64, 56
2, 69416, Control_c, 0, 64, 72
2, 69428, Control_c, 0, 64, 88
2, 69432, Note_on_c, 0, 69, 0
2, 69436, Control_c, 0, 64, 104
2, 69448, Control_c, 0, 64, 127
2, 69472, Note_on_c, 0, 79, 80
2, 69500, Note_on_c, 0, 64, 71
2, 69528, Note_on_c, 0, 70, 76
2, 69536, Note_on_c, 0, 64, 0
2, 69548, Note_on_c, 0, 79, 0
2, 69600, Control_c, 0, 64, 72
2, 69604, Note_on_c, 0, 70, 0
2, 69612, Control_c, 0, 64, 24
2, 69624, Control_c, 0, 64, 0
2, 69652, Note_on_c, 0, 50, 67
2, 69656, Control_c, 0, 64, 56
2, 69660, Note_on_c, 0, 79, 82
2, 69668, Note_on_c, 0, 50, 0
2, 69668, Control_c, 0, 64, 88
2, 69676, Control_c, 0, 64, 127
2, 69708, Control_c, 0, 64, 72
2, 69720, Note_on_c, 0, 71, 80
2, 69720, Control_c, 0, 64, 40
2, 69732, Note_on_c, 0, 65, 62
2, 69732, Control_c, 0, 64, 0
2, 69736, Note_on_c, 0, 79, 0
2, 69764, Control_c, 0, 64, 40
2, 69768, Note_on_c, 0, 65, 0
2, 69776, Control_c, 0, 64, 72
2, 69784, Control_c, 0, 64, 104
2, 69796, Control_c, 0, 64, 127
2, 69812, Note_on_c, 0, 71, 0
2, 69840, Note_on_c, 0, 79, 80
2, 69840, Control_c, 0, 64, 72
2, 69852, Control_c, 0, 64, 40
2, 69860, Control_c, 0, 64, 0
2, 69912, Note_on_c, 0, 51, 62
2, 69916, Note_on_c, 0, 74, 82
2, 69944, Note_on_c, 0, 79, 0
2, 69968, Note_on_c, 0, 51, 0
2, 69968, Control_c, 0, 64, 24
2, 69980, Control_c, 0, 64, 56
2, 69992, Control_c, 0, 64, 88
2, 70036, Control_c, 0, 64, 0
2, 70088, Control_c, 0, 64, 24
2, 70100, Control_c, 0, 64, 72
2, 70112, Control_c, 0, 64, 104
2, 70116, Note_on_c, 0, 67, 54
2, 70120, Note_on_c, 0, 60, 59
2, 70124, Control_c, 0, 64, 127
2, 70140, Note_on_c, 0, 60, 0
2, 70140, Note_on_c, 0, 67, 0
2, 70308, Note_on_c, 0, 72, 70
2, 70308, Note_on_c, 0, 51, 56
2, 70308, Control_c, 0, 64, 104
2, 70316, Control_c, 0, 64, 88
2, 70328, Note_on_c, 0, 74, 0
2, 70328, Control_c, 0, 64, 72
2, 70340, Control_c, 0, 64, 56
2, 70348, Control_c, 0, 64, 24
2, 70360, Note_on_c, 0, 51, 0
2, 70360, Note_on_c, 0, 72, 0
2, 70360, Control_c, 0, 64, 0
2, 70508, Note_on_c, 0, 72, 77
2, 70528, Control_c, 0, 64, 24
2, 70536, Note_on_c, 0, 52, 49
2, 70540, Control_c, 0, 64, 72
2, 70548, Control_c, 0, 64, 127
2, 70564, Note_on_c, 0, 52, 0
2, 70712, Note_on_c, 0, 67, 36
2, 70716, Note_on_c, 0, 60, 45
2, 70740, Note_on_c, 0, 67, 0
2, 70764, Note_on_c, 0, 60, 0
2, 70808, Note_on_c, 0, 72, 0
2, 70820, Note_on_c, 0, 84, 81
2, 70820, Control_c, 0, 64, 104
2, 70844, Control_c, 0, 64, 88
2, 70852, Control_c, 0, 64, 56
2, 70864, Control_c, 0, 64, 40
2, 70872, Control_c, 0, 64, 0
2, 70884, Note_on_c, 0, 72, 82
2, 70888, Note_on_c, 0, 52, 59
2, 70896, Note_on_c, 0, 84, 0
2, 70904, Note_on_c, 0, 52, 0
2, 70940, Note_on_c, 0, 72, 0
2, 71028, Note_on_c, 0, 84, 74
2, 71080, Note_on_c, 0, 73, 78
2, 71084, Note_on_c, 0, 84, 0
2, 71092, Control_c, 0, 64, 40
2, 71104, Note_on_c, 0, 53, 46
2, 71104, Control_c, 0, 64, 88
2, 71112, Control_c, 0, 64, 104
2, 71124, Control_c, 0, 64, 127
2, 71128, Note_on_c, 0, 53, 0
2, 71256, Control_c, 0, 64, 104
2, 71272, Note_on_c, 0, 68, 28
2, 71276, Note_on_c, 0, 60, 50
2, 71288, Control_c, 0, 64, 88
2, 71332, Note_on_c, 0, 68, 0
2, 71364, Note_on_c, 0, 73, 0
2, 71376, Note_on_c, 0, 84, 81
2, 71384, Control_c, 0, 64, 72
2, 71396, Control_c, 0, 64, 56
2, 71404, Control_c, 0, 64, 40
2, 71416, Control_c, 0, 64, 0
2, 71432, Note_on_c, 0, 60, 0
2, 71432, Note_on_c, 0, 73, 73
2, 71436, Note_on_c, 0, 53, 34
2, 71440, Note_on_c, 0, 84, 0
2, 71464, Note_on_c, 0, 53, 0
2, 71512, Note_on_c, 0, 73, 0
2, 71564, Note_on_c, 0, 84, 81
2, 71612, Note_on_c, 0, 74, 74
2, 71628, Note_on_c, 0, 84, 0
2, 71668, Note_on_c, 0, 54, 34
2, 71716, Note_on_c, 0, 74, 0
2, 71732, Note_on_c, 0, 54, 0
2, 71748, Note_on_c, 0, 84, 82
2, 71796, Note_on_c, 0, 75, 77
2, 71800, Note_on_c, 0, 60, 53
2, 71804, Note_on_c, 0, 69, 50
2, 71808, Note_on_c, 0, 84, 0
2, 71828, Note_on_c, 0, 60, 0
2, 71832, Note_on_c, 0, 69, 0
2, 71888, Note_on_c, 0, 75, 0
2, 71928, Note_on_c, 0, 84, 85
2, 71948, Note_on_c, 0, 55, 63
2, 71968, Note_on_c, 0, 55, 0
2, 71980, Note_on_c, 0, 76, 79
2, 71996, Note_on_c, 0, 84, 0
2, 72060, Note_on_c, 0, 76, 0
2, 72100, Note_on_c, 0, 84, 86
2, 72156, Note_on_c, 0, 56, 61
2, 72164, Note_on_c, 0, 84, 0
2, 72176, Note_on_c, 0, 79, 92
2, 72208, Note_on_c, 0, 56, 0
2, 72220, Control_c, 0, 64, 56
2, 72232, Control_c, 0, 64, 72
2, 72240, Control_c, 0, 64, 88
2, 72252, Control_c, 0, 64, 104
2, 72368, Note_on_c, 0, 72, 50
2, 72376, Note_on_c, 0, 65, 42
2, 72392, Note_on_c, 0, 72, 0
2, 72400, Note_on_c, 0, 65, 0
2, 72540, Note_on_c, 0, 77, 72
2, 72548, Note_on_c, 0, 79, 0
2, 72548, Note_on_c, 0, 56, 46
2, 72576, Note_on_c, 0, 56, 0
2, 72576, Control_c, 0, 64, 72
2, 72588, Control_c, 0, 64, 40
2, 72596, Note_on_c, 0, 77, 0
2, 72600, Control_c, 0, 64, 24
2, 72608, Control_c, 0, 64, 0
2, 72736, Note_on_c, 0, 77, 79
2, 72760, Note_on_c, 0, 57, 53
2, 72764, Control_c, 0, 64, 40
2, 72772, Control_c, 0, 64, 88
2, 72780, Note_on_c, 0, 57, 0
2, 72784, Control_c, 0, 64, 127
2, 72808, Note_on_c, 0, 77, 0
2, 72948, Note_on_c, 0, 89, 89
2, 72960, Note_on_c, 0, 84, 68
2, 72968, Note_on_c, 0, 65, 43
2, 72972, Note_on_c, 0, 63, 30
2, 72976, Note_on_c, 0, 60, 39
2, 72980, Note_on_c, 0, 72, 25
2, 72988, Note_on_c, 0, 84, 0
2, 73008, Note_on_c, 0, 60, 0
2, 73012, Note_on_c, 0, 72, 0
2, 73024, Note_on_c, 0, 63, 0
2, 73028, Note_on_c, 0, 65, 0
2, 73136, Note_on_c, 0, 89, 0
2, 73168, Note_on_c, 0, 60, 36
2, 73168, Note_on_c, 0, 65, 33
2, 73172, Note_on_c, 0, 63, 23
2, 73176, Note_on_c, 0, 72, 24
2, 73208, Note_on_c, 0, 72, 0
2, 73208, Note_on_c, 0, 60, 0
2, 73208, Note_on_c, 0, 65, 0
2, 73208, Note_on_c, 0, 63, 0
2, 73252, Note_on_c, 0, 89, 77
2, 73252, Note_on_c, 0, 84, 66
2, 73276, Note_on_c, 0, 84, 0
2, 73284, Control_c, 0, 64, 88
2, 73292, Note_on_c, 0, 89, 0
2, 73292, Control_c, 0, 64, 40
2, 73304, Control_c, 0, 64, 0
2, 73336, Note_on_c, 0, 89, 78
2, 73348, Note_on_c, 0, 72, 42
2, 73352, Note_on_c, 0, 84, 68
2, 73352, Note_on_c, 0, 60, 31
2, 73356, Note_on_c, 0, 65, 38
2, 73356, Note_on_c, 0, 63, 36
2, 73360, Control_c, 0, 64, 56
2, 73368, Control_c, 0, 64, 127
2, 73372, Note_on_c, 0, 84, 0
2, 73376, Note_on_c, 0, 60, 0
2, 73380, Note_on_c, 0, 72, 0
2, 73384, Note_on_c, 0, 65, 0
2, 73408, Note_on_c, 0, 89, 0
2, 73424, Note_on_c, 0, 63, 0
2, 73432, Note_on_c, 0, 91, 81
2, 73492, Note_on_c, 0, 91, 0
2, 73512, Control_c, 0, 64, 104
2, 73524, Note_on_c, 0, 57, 59
2, 73528, Note_on_c, 0, 89, 78
2, 73544, Note_on_c, 0, 57, 0
2, 73592, Note_on_c, 0, 89, 0
2, 73608, Note_on_c, 0, 84, 79
2, 73688, Note_on_c, 0, 84, 0
2, 73696, Note_on_c, 0, 81, 66
2, 73708, Note_on_c, 0, 72, 41
2, 73712, Note_on_c, 0, 63, 30
2, 73732, Note_on_c, 0, 72, 0
2, 73744, Note_on_c, 0, 81, 0
2, 73752, Note_on_c, 0, 63, 0
2, 73760, Control_c, 0, 64, 88
2, 73772, Control_c, 0, 64, 72
2, 73780, Control_c, 0, 64, 24
2, 73788, Note_on_c, 0, 77, 81
2, 73792, Control_c, 0, 64, 0
2, 73844, Note_on_c, 0, 77, 0
2, 73884, Note_on_c, 0, 82, 73
2, 73892, Note_on_c, 0, 56, 50
2, 73924, Control_c, 0, 64, 72
2, 73932, Control_c, 0, 64, 127
2, 73956, Note_on_c, 0, 82, 0
2, 73972, Note_on_c, 0, 56, 0
2, 73976, Note_on_c, 0, 84, 74
2, 74032, Note_on_c, 0, 84, 0
2, 74068, Note_on_c, 0, 82, 71
2, 74084, Note_on_c, 0, 70, 40
2, 74104, Note_on_c, 0, 62, 42
2, 74112, Note_on_c, 0, 65, 36
2, 74148, Note_on_c, 0, 65, 0
2, 74148, Note_on_c, 0, 82, 0
2, 74164, Note_on_c, 0, 77, 76
2, 74184, Note_on_c, 0, 70, 0
2, 74208, Note_on_c, 0, 62, 0
2, 74236, Note_on_c, 0, 77, 0
2, 74248, Note_on_c, 0, 74, 65
2, 74256, Note_on_c, 0, 56, 46
2, 74296, Note_on_c, 0, 74, 0
2, 74308, Note_on_c, 0, 56, 0
2, 74340, Note_on_c, 0, 70, 73
2, 74380, Control_c, 0, 64, 104
2, 74388, Control_c, 0, 64, 56
2, 74400, Note_on_c, 0, 70, 0
2, 74400, Control_c, 0, 64, 0
2, 74432, Note_on_c, 0, 75, 75
2, 74448, Note_on_c, 0, 55, 51
2, 74500, Note_on_c, 0, 75, 0
2, 74520, Control_c, 0, 64, 88
2, 74524, Note_on_c, 0, 77, 75
2, 74532, Control_c, 0, 64, 127
2, 74580, Note_on_c, 0, 77, 0
2, 74584, Note_on_c, 0, 55, 0
2, 74616, Note_on_c, 0, 75, 73
2, 74624, Note_on_c, 0, 58, 36
2, 74624, Note_on_c, 0, 63, 42
2, 74688, Note_on_c, 0, 75, 0
2, 74704, Note_on_c, 0, 70, 69
2, 74776, Note_on_c, 0, 63, 0
2, 74780, Note_on_c, 0, 70, 0
2, 74788, Note_on_c, 0, 58, 0
2, 74788, Note_on_c, 0, 55, 59
2, 74792, Note_on_c, 0, 67, 68
2, 74808, Note_on_c, 0, 55, 0
2, 74844, Note_on_c, 0, 67, 0
2, 74880, Note_on_c, 0, 63, 70
2, 74908, Control_c, 0, 64, 104
2, 74920, Control_c, 0, 64, 56
2, 74932, Note_on_c, 0, 63, 0
2, 74932, Control_c, 0, 64, 0
2, 74992, Note_on_c, 0, 65, 76
2, 74992, Note_on_c, 0, 45, 60
2, 74996, Control_c, 0, 64, 104
2, 75052, Note_on_c, 0, 65, 0
2, 75056, Note_on_c, 0, 45, 0
2, 75060, Control_c, 0, 64, 127
2, 75212, Note_on_c, 0, 77, 82
2, 75220, Note_on_c, 0, 72, 53
2, 75224, Note_on_c, 0, 48, 45
2, 75224, Control_c, 0, 64, 104
2, 75228, Note_on_c, 0, 53, 42
2, 75232, Note_on_c, 0, 51, 37
2, 75236, Control_c, 0, 64, 0
2, 75240, Note_on_c, 0, 60, 24
2, 75252, Note_on_c, 0, 72, 0
2, 75288, Note_on_c, 0, 60, 0
2, 75288, Control_c, 0, 64, 56
2, 75292, Note_on_c, 0, 48, 0
2, 75296, Note_on_c, 0, 51, 0
2, 75300, Control_c, 0, 64, 127
2, 75304, Note_on_c, 0, 53, 0
2, 75400, Note_on_c, 0, 77, 0
2, 75408, Note_on_c, 0, 60, 37
2, 75412, Note_on_c, 0, 48, 35
2, 75416, Note_on_c, 0, 51, 32
2, 75416, Note_on_c, 0, 53, 33
2, 75460, Note_on_c, 0, 60, 0
2, 75468, Note_on_c, 0, 48, 0
2, 75472, Note_on_c, 0, 51, 0
2, 75476, Note_on_c, 0, 53, 0
2, 75500, Note_on_c, 0, 77, 80
2, 75512, Note_on_c, 0, 72, 54
2, 75536, Note_on_c, 0, 72, 0
2, 75540, Control_c, 0, 64, 72
2, 75548, Note_on_c, 0, 77, 0
2, 75548, Control_c, 0, 64, 0
2, 75584, Note_on_c, 0, 60, 45
2, 75588, Note_on_c, 0, 77, 76
2, 75588, Note_on_c, 0, 48, 38
2, 75588, Note_on_c, 0, 51, 48
2, 75592, Note_on_c, 0, 53, 45
2, 75616, Note_on_c, 0, 48, 0
2, 75616, Control_c, 0, 64, 24
2, 75624, Control_c, 0, 64, 88
2, 75628, Note_on_c, 0, 60, 0
2, 75632, Note_on_c, 0, 53, 0
2, 75636, Control_c, 0, 64, 127
2, 75656, Note_on_c, 0, 77, 0
2, 75684, Note_on_c, 0, 79, 76
2, 75732, Control_c, 0, 64, 40
2, 75736, Note_on_c, 0, 79, 0
2, 75740, Note_on_c, 0, 51, 0
2, 75744, Control_c, 0, 64, 0
2, 75768, Note_on_c, 0, 45, 66
2, 75772, Note_on_c, 0, 77, 80
2, 75800, Control_c, 0, 64, 56
2, 75812, Note_on_c, 0, 45, 0
2, 75812, Control_c, 0, 64, 104
2, 75820, Control_c, 0, 64, 127
2, 75836, Note_on_c, 0, 77, 0
2, 75856, Note_on_c, 0, 72, 80
2, 75896, Control_c, 0, 64, 88
2, 75908, Control_c, 0, 64, 0
2, 75936, Note_on_c, 0, 72, 0
2, 75948, Note_on_c, 0, 69, 68
2, 75956, Note_on_c, 0, 60, 48
2, 75964, Note_on_c, 0, 48, 46
2, 75968, Note_on_c, 0, 51, 29
2, 75972, Control_c, 0, 64, 56
2, 75976, Note_on_c, 0, 53, 25
2, 75984, Note_on_c, 0, 60, 0
2, 75984, Control_c, 0, 64, 72
2, 75988, Note_on_c, 0, 48, 0
2, 75992, Note_on_c, 0, 69, 0
2, 75992, Control_c, 0, 64, 104
2, 75996, Note_on_c, 0, 51, 0
2, 76004, Note_on_c, 0, 53, 0
2, 76004, Control_c, 0, 64, 127
2, 76040, Note_on_c, 0, 65, 73
2, 76080, Control_c, 0, 64, 104
2, 76092, Control_c, 0, 64, 40
2, 76100, Note_on_c, 0, 65, 0
2, 76104, Control_c, 0, 64, 0
2, 76140, Note_on_c, 0, 70, 71
2, 76148, Note_on_c, 0, 44, 64
2, 76200, Control_c, 0, 64, 56
2, 76212, Note_on_c, 0, 70, 0
2, 76212, Control_c, 0, 64, 127
2, 76224, Note_on_c, 0, 44, 0
2, 76228, Note_on_c, 0, 72, 75
2, 76284, Note_on_c, 0, 72, 0
2, 76312, Note_on_c, 0, 70, 68
2, 76324, Note_on_c, 0, 58, 34
2, 76360, Note_on_c, 0, 53, 25
2, 76392, Note_on_c, 0, 70, 0
2, 76408, Note_on_c, 0, 58, 0
2, 76408, Note_on_c, 0, 65, 69
2, 76484, Note_on_c, 0, 65, 0
2, 76496, Note_on_c, 0, 44, 52
2, 76500, Note_on_c, 0, 62, 62
2, 76504, Note_on_c, 0, 53, 0
2, 76548, Note_on_c, 0, 62, 0
2, 76552, Note_on_c, 0, 44, 0
2, 76588, Note_on_c, 0, 58, 64
2, 76612, Control_c, 0, 64, 88
2, 76624, Control_c, 0, 64, 56
2, 76636, Control_c, 0, 64, 0
2, 76648, Note_on_c, 0, 58, 0
2, 76688, Note_on_c, 0, 63, 69
2, 76696, Note_on_c, 0, 43, 58
2, 76720, Control_c, 0, 64, 56
2, 76732, Control_c, 0, 64, 104
2, 76744, Control_c, 0, 64, 127
2, 76756, Note_on_c, 0, 63, 0
2, 76780, Note_on_c, 0, 65, 64
2, 76804, Note_on_c, 0, 43, 0
2, 76828, Note_on_c, 0, 65, 0
2, 76868, Note_on_c, 0, 63, 65
2, 76872, Note_on_c, 0, 46, 44
2, 76880, Note_on_c, 0, 51, 44
2, 76944, Note_on_c, 0, 63, 0
2, 76948, Note_on_c, 0, 51, 0
2, 76956, Note_on_c, 0, 58, 60
2, 77020, Note_on_c, 0, 46, 0
2, 77032, Note_on_c, 0, 58, 0
2, 77040, Note_on_c, 0, 43, 56
2, 77044, Note_on_c, 0, 55, 73
2, 77064, Note_on_c, 0, 43, 0
2, 77096, Note_on_c, 0, 55, 0
2, 77140, Note_on_c, 0, 51, 78
2, 77156, Control_c, 0, 64, 104
2, 77164, Control_c, 0, 64, 72
2, 77176, Control_c, 0, 64, 24
2, 77188, Control_c, 0, 64, 0
2, 77204, Note_on_c, 0, 51, 0
2, 77240, Note_on_c, 0, 48, 71
2, 77244, Note_on_c, 0, 32, 53
2, 77244, Note_on_c, 0, 44, 56
2, 77292, Note_on_c, 0, 48, 0
2, 77312, Note_on_c, 0, 32, 0
2, 77332, Note_on_c, 0, 51, 68
2, 77344, Note_on_c, 0, 44, 0
2, 77392, Note_on_c, 0, 51, 0
2, 77420, Note_on_c, 0, 45, 64
2, 77420, Note_on_c, 0, 33, 55
2, 77424, Note_on_c, 0, 53, 67
2, 77484, Note_on_c, 0, 53, 0
2, 77484, Note_on_c, 0, 45, 0
2, 77496, Note_on_c, 0, 33, 0
2, 77504, Note_on_c, 0, 54, 75
2, 77556, Note_on_c, 0, 54, 0
2, 77588, Note_on_c, 0, 63, 73
2, 77596, Note_on_c, 0, 46, 51
2, 77604, Note_on_c, 0, 34, 45
2, 77656, Note_on_c, 0, 63, 0
2, 77684, Note_on_c, 0, 55, 65
2, 77696, Note_on_c, 0, 34, 0
2, 77704, Note_on_c, 0, 46, 0
2, 77724, Note_on_c, 0, 55, 0
2, 77772, Note_on_c, 0, 58, 62
2, 77772, Note_on_c, 0, 35, 62
2, 77776, Note_on_c, 0, 47, 62
2, 77828, Note_on_c, 0, 35, 0
2, 77836, Note_on_c, 0, 47, 0
2, 77864, Note_on_c, 0, 56, 69
2, 77900, Note_on_c, 0, 58, 0
2, 77940, Note_on_c, 0, 48, 60
2, 77948, Note_on_c, 0, 36, 47
2, 77952, Note_on_c, 0, 55, 74
2, 77968, Note_on_c, 0, 56, 0
2, 77992, Note_on_c, 0, 36, 0
2, 78000, Note_on_c, 0, 48, 0
2, 78020, Note_on_c, 0, 55, 0
2, 78032, Note_on_c, 0, 56, 78
2, 78104, Note_on_c, 0, 56, 0
2, 78124, Note_on_c, 0, 54, 71
2, 78128, Note_on_c, 0, 51, 61
2, 78128, Note_on_c, 0, 39, 51
2, 78160, Note_on_c, 0, 51, 0
2, 78168, Note_on_c, 0, 39, 0
2, 78200, Note_on_c, 0, 54, 0
2, 78212, Note_on_c, 0, 56, 70
2, 78268, Note_on_c, 0, 56, 0
2, 78300, Note_on_c, 0, 49, 56
2, 78300, Note_on_c, 0, 53, 69
2, 78312, Note_on_c, 0, 37, 32
2, 78336, Note_on_c, 0, 37, 0
2, 78364, Note_on_c, 0, 49, 0
2, 78372, Note_on_c, 0, 53, 0
2, 78380, Note_on_c, 0, 56, 69
2, 78468, Note_on_c, 0, 56, 0
2, 78468, Note_on_c, 0, 58, 64
2, 78480, Note_on_c, 0, 50, 58
2, 78480, Note_on_c, 0, 38, 60
2, 78520, Note_on_c, 0, 58, 0
2, 78532, Note_on_c, 0, 38, 0
2, 78536, Note_on_c, 0, 50, 0
2, 78560, Note_on_c, 0, 59, 75
2, 78624, Note_on_c, 0, 59, 0
2, 78640, Note_on_c, 0, 68, 74
2, 78652, Note_on_c, 0, 51, 45
2, 78656, Note_on_c, 0, 39, 43
2, 78716, Note_on_c, 0, 68, 0
2, 78720, Note_on_c, 0, 60, 76
2, 78740, Note_on_c, 0, 51, 0
2, 78748, Note_on_c, 0, 39, 0
2, 78796, Note_on_c, 0, 60, 0
2, 78804, Note_on_c, 0, 63, 78
2, 78808, Note_on_c, 0, 40, 62
2, 78812, Note_on_c, 0, 52, 62
2, 78860, Note_on_c, 0, 40, 0
2, 78864, Note_on_c, 0, 52, 0
2, 78888, Note_on_c, 0, 61, 77
2, 78912, Note_on_c, 0, 63, 0
2, 78976, Note_on_c, 0, 61, 0
2, 78976, Note_on_c, 0, 60, 83
2, 78980, Note_on_c, 0, 41, 54
2, 78984, Note_on_c, 0, 53, 52
2, 79004, Note_on_c, 0, 41, 0
2, 79016, Note_on_c, 0, 53, 0
2, 79064, Note_on_c, 0, 60, 0
2, 79064, Note_on_c, 0, 61, 73
2, 79120, Note_on_c, 0, 61, 0
2, 79148, Note_on_c, 0, 59, 70
2, 79148, Note_on_c, 0, 56, 54
2, 79152, Note_on_c, 0, 44, 51
2, 79200, Note_on_c, 0, 44, 0
2, 79204, Note_on_c, 0, 56, 0
2, 79236, Note_on_c, 0, 59, 0
2, 79240, Note_on_c, 0, 62, 70
2, 79284, Note_on_c, 0, 62, 0
2, 79336, Note_on_c, 0, 43, 66
2, 79384, Control_c, 0, 64, 24
2, 79396, Control_c, 0, 64, 40
2, 79404, Control_c, 0, 64, 56
2, 79416, Control_c, 0, 64, 72
2, 79420, Note_on_c, 0, 58, 64
2, 79496, Note_on_c, 0, 58, 0
2, 79496, Note_on_c, 0, 43, 0
2, 79508, Note_on_c, 0, 51, 51
2, 79512, Note_on_c, 0, 65, 66
2, 79568, Note_on_c, 0, 65, 0
2, 79592, Note_on_c, 0, 70, 73
2, 79656, Note_on_c, 0, 70, 0
2, 79680, Note_on_c, 0, 39, 43
2, 79692, Note_on_c, 0, 63, 67
2, 79724, Note_on_c, 0, 51, 0
2, 79744, Note_on_c, 0, 63, 0
2, 79768, Note_on_c, 0, 61, 70
2, 79820, Note_on_c, 0, 61, 0
2, 79828, Control_c, 0, 64, 0
2, 79836, Note_on_c, 0, 39, 0
2, 79856, Note_on_c, 0, 44, 70
2, 79924, Control_c, 0, 64, 24
2, 79936, Control_c, 0, 64, 56
2, 79948, Note_on_c, 0, 60, 72
2, 79948, Control_c, 0, 64, 88
2, 79960, Control_c, 0, 64, 104
2, 80028, Note_on_c, 0, 60, 0
2, 80032, Note_on_c, 0, 63, 72
2, 80040, Note_on_c, 0, 44, 0
2, 80044, Note_on_c, 0, 51, 60
2, 80120, Note_on_c, 0, 68, 64
2, 80124, Note_on_c, 0, 63, 0
2, 80160, Note_on_c, 0, 68, 0
2, 80192, Note_on_c, 0, 39, 40
2, 80212, Note_on_c, 0, 72, 79
2, 80256, Note_on_c, 0, 72, 0
2, 80280, Note_on_c, 0, 51, 0
2, 80292, Note_on_c, 0, 75, 83
2, 80304, Control_c, 0, 64, 88
2, 80336, Control_c, 0, 64, 56
2, 80348, Control_c, 0, 64, 40
2, 80356, Note_on_c, 0, 39, 0
2, 80360, Control_c, 0, 64, 0
2, 80364, Note_on_c, 0, 75, 0
2, 80392, Note_on_c, 0, 48, 73
2, 80396, Note_on_c, 0, 77, 85
2, 80456, Control_c, 0, 64, 40
2, 80460, Note_on_c, 0, 77, 0
2, 80468, Control_c, 0, 64, 88
2, 80480, Note_on_c, 0, 75, 75
2, 80480, Control_c, 0, 64, 127
2, 80548, Note_on_c, 0, 48, 0
2, 80560, Note_on_c, 0, 75, 0
2, 80572, Note_on_c, 0, 72, 73
2, 80572, Note_on_c, 0, 51, 55
2, 80636, Note_on_c, 0, 72, 0
2, 80656, Note_on_c, 0, 51, 0
2, 80664, Note_on_c, 0, 68, 70
2, 80708, Note_on_c, 0, 39, 42
2, 80728, Note_on_c, 0, 68, 0
2, 80752, Note_on_c, 0, 65, 65
2, 80816, Note_on_c, 0, 65, 0
2, 80820, Note_on_c, 0, 63, 65
2, 80856, Control_c, 0, 64, 88
2, 80868, Control_c, 0, 64, 56
2, 80880, Note_on_c, 0, 63, 0
2, 80880, Control_c, 0, 64, 0
2, 80916, Note_on_c, 0, 47, 71
2, 80916, Note_on_c, 0, 62, 77
2, 80932, Note_on_c, 0, 39, 0
2, 80944, Control_c, 0, 64, 24
2, 80956, Control_c, 0, 64, 72
2, 80968, Control_c, 0, 64, 127
2, 80980, Note_on_c, 0, 62, 0
2, 80996, Note_on_c, 0, 65, 70
2, 81080, Note_on_c, 0, 68, 64
2, 81084, Note_on_c, 0, 65, 0
2, 81100, Note_on_c, 0, 47, 0
2, 81100, Note_on_c, 0, 51, 58
2, 81124, Note_on_c, 0, 68, 0
2, 81184, Note_on_c, 0, 74, 82
2, 81232, Note_on_c, 0, 74, 0
2, 81260, Note_on_c, 0, 44, 50
2, 81268, Note_on_c, 0, 77, 84
2, 81340, Note_on_c, 0, 77, 0
2, 81356, Note_on_c, 0, 80, 77
2, 81408, Note_on_c, 0, 51, 0
2, 81412, Note_on_c, 0, 80, 0
2, 81412, Control_c, 0, 64, 104
2, 81420, Note_on_c, 0, 44, 0
2, 81424, Control_c, 0, 64, 88
2, 81432, Control_c, 0, 64, 72
2, 81444, Control_c, 0, 64, 24
2, 81448, Note_on_c, 0, 43, 71
2, 81456, Control_c, 0, 64, 0
2, 81528, Note_on_c, 0, 70, 67
2, 81544, Control_c, 0, 64, 40
2, 81552, Control_c, 0, 64, 88
2, 81564, Control_c, 0, 64, 127
2, 81592, Note_on_c, 0, 70, 0
2, 81612, Note_on_c, 0, 77, 80
2, 81616, Note_on_c, 0, 43, 0
2, 81624, Note_on_c, 0, 51, 56
2, 81672, Note_on_c, 0, 77, 0
2, 81696, Note_on_c, 0, 82, 77
2, 81760, Note_on_c, 0, 82, 0
2, 81784, Note_on_c, 0, 39, 49
2, 81788, Note_on_c, 0, 75, 77
2, 81848, Note_on_c, 0, 75, 0
2, 81868, Note_on_c, 0, 51, 0
2, 81868, Note_on_c, 0, 73, 73
2, 81900, Control_c, 0, 64, 104
2, 81908, Note_on_c, 0, 39, 0
2, 81920, Note_on_c, 0, 73, 0
2, 81920, Control_c, 0, 64, 72
2, 81932, Control_c, 0, 64, 40
2, 81944, Control_c, 0, 64, 0
2, 81948, Note_on_c, 0, 44, 69
2, 82052, Note_on_c, 0, 72, 71
2, 82064, Control_c, 0, 64, 56
2, 82072, Control_c, 0, 64, 88
2, 82084, Control_c, 0, 64, 104
2, 82096, Control_c, 0, 64, 127
2, 82124, Note_on_c, 0, 75, 77
2, 82128, Note_on_c, 0, 44, 0
2, 82140, Note_on_c, 0, 72, 0
2, 82144, Note_on_c, 0, 51, 59
2, 82216, Note_on_c, 0, 80, 71
2, 82220, Note_on_c, 0, 75, 0
2, 82252, Note_on_c, 0, 80, 0
2, 82280, Note_on_c, 0, 39, 49
2, 82304, Note_on_c, 0, 84, 82
2, 82312, Note_on_c, 0, 51, 0
2, 82340, Note_on_c, 0, 84, 0
2, 82380, Note_on_c, 0, 87, 86
2, 82452, Note_on_c, 0, 87, 0
2, 82452, Control_c, 0, 64, 104
2, 82456, Note_on_c, 0, 39, 0
2, 82464, Control_c, 0, 64, 56
2, 82472, Note_on_c, 0, 48, 87
2, 82476, Control_c, 0, 64, 0
2, 82484, Note_on_c, 0, 89, 79
2, 82540, Note_on_c, 0, 89, 0
2, 82552, Control_c, 0, 64, 40
2, 82560, Control_c, 0, 64, 88
2, 82564, Note_on_c, 0, 87, 68
2, 82572, Control_c, 0, 64, 127
2, 82648, Note_on_c, 0, 87, 0
2, 82648, Note_on_c, 0, 48, 0
2, 82652, Note_on_c, 0, 84, 68
2, 82664, Note_on_c, 0, 51, 52
2, 82724, Note_on_c, 0, 84, 0
2, 82752, Note_on_c, 0, 80, 64
2, 82800, Note_on_c, 0, 80, 0
2, 82824, Note_on_c, 0, 77, 68
2, 82832, Note_on_c, 0, 39, 44
2, 82888, Note_on_c, 0, 77, 0
2, 82900, Note_on_c, 0, 51, 0
2, 82908, Note_on_c, 0, 75, 64
2, 82964, Control_c, 0, 64, 104
2, 82976, Note_on_c, 0, 75, 0
2, 82976, Control_c, 0, 64, 88
2, 82984, Control_c, 0, 64, 40
2, 82996, Note_on_c, 0, 47, 71
2, 82996, Control_c, 0, 64, 0
2, 83012, Note_on_c, 0, 74, 74
2, 83060, Note_on_c, 0, 39, 0
2, 83072, Control_c, 0, 64, 40
2, 83080, Note_on_c, 0, 74, 0
2, 83084, Control_c, 0, 64, 104
2, 83092, Control_c, 0, 64, 127
2, 83092, Note_on_c, 0, 77, 79
2, 83168, Note_on_c, 0, 77, 0
2, 83168, Note_on_c, 0, 80, 67
2, 83200, Note_on_c, 0, 47, 0
2, 83204, Note_on_c, 0, 51, 61
2, 83264, Note_on_c, 0, 86, 71
2, 83284, Note_on_c, 0, 80, 0
2, 83288, Note_on_c, 0, 86, 0
2, 83340, Note_on_c, 0, 44, 52
2, 83356, Note_on_c, 0, 89, 71
2, 83404, Note_on_c, 0, 89, 0
2, 83432, Note_on_c, 0, 92, 83
2, 83476, Note_on_c, 0, 92, 0
2, 83480, Note_on_c, 0, 44, 0
2, 83480, Note_on_c, 0, 51, 0
2, 83496, Control_c, 0, 64, 104
2, 83504, Control_c, 0, 64, 56
2, 83516, Note_on_c, 0, 43, 76
2, 83516, Control_c, 0, 64, 0
2, 83560, Note_on_c, 0, 43, 0
2, 83580, Control_c, 0, 64, 40
2, 83592, Control_c, 0, 64, 104
2, 83604, Note_on_c, 0, 82, 71
2, 83604, Control_c, 0, 64, 127
2, 83672, Note_on_c, 0, 82, 0
2, 83688, Note_on_c, 0, 89, 82
2, 83696, Note_on_c, 0, 58, 55
2, 83700, Note_on_c, 0, 51, 63
2, 83744, Note_on_c, 0, 51, 0
2, 83744, Note_on_c, 0, 58, 0
2, 83752, Note_on_c, 0, 89, 0
2, 83776, Note_on_c, 0, 94, 78
2, 83840, Note_on_c, 0, 94, 0
2, 83840, Control_c, 0, 64, 88
2, 83852, Control_c, 0, 64, 40
2, 83864, Control_c, 0, 64, 0
2, 83868, Note_on_c, 0, 85, 77
2, 83876, Note_on_c, 0, 45, 68
2, 83904, Control_c, 0, 64, 40
2, 83916, Note_on_c, 0, 45, 0
2, 83916, Control_c, 0, 64, 88
2, 83920, Note_on_c, 0, 85, 0
2, 83928, Control_c, 0, 64, 127
2, 83948, Note_on_c, 0, 84, 86
2, 83992, Control_c, 0, 64, 88
2, 84004, Control_c, 0, 64, 24
2, 84016, Control_c, 0, 64, 0
2, 84024, Note_on_c, 0, 84, 0
2, 84040, Note_on_c, 0, 90, 83
2, 84040, Note_on_c, 0, 60, 66
2, 84048, Note_on_c, 0, 51, 56
2, 84048, Note_on_c, 0, 54, 50
2, 84048, Control_c, 0, 64, 24
2, 84060, Control_c, 0, 64, 56
2, 84064, Note_on_c, 0, 60, 0
2, 84068, Control_c, 0, 64, 104
2, 84076, Note_on_c, 0, 54, 0
2, 84080, Control_c, 0, 64, 127
2, 84092, Note_on_c, 0, 51, 0
2, 84112, Note_on_c, 0, 90, 0
2, 84124, Note_on_c, 0, 96, 88
2, 84144, Control_c, 0, 64, 104
2, 84156, Control_c, 0, 64, 72
2, 84168, Control_c, 0, 64, 0
2, 84192, Note_on_c, 0, 96, 0
2, 84212, Note_on_c, 0, 46, 68
2, 84216, Note_on_c, 0, 87, 83
2, 84232, Control_c, 0, 64, 40
2, 84240, Control_c, 0, 64, 72
2, 84244, Note_on_c, 0, 46, 0
2, 84252, Control_c, 0, 64, 104
2, 84264, Control_c, 0, 64, 127
2, 84284, Note_on_c, 0, 87, 0
2, 84296, Note_on_c, 0, 86, 89
2, 84352, Control_c, 0, 64, 88
2, 84360, Control_c, 0, 64, 40
2, 84372, Control_c, 0, 64, 0
2, 84388, Note_on_c, 0, 92, 88
2, 84388, Note_on_c, 0, 62, 69
2, 84392, Note_on_c, 0, 56, 55
2, 84400, Note_on_c, 0, 53, 53
2, 84404, Note_on_c, 0, 86, 0
2, 84404, Control_c, 0, 64, 40
2, 84416, Control_c, 0, 64, 88
2, 84424, Note_on_c, 0, 53, 0
2, 84428, Control_c, 0, 64, 127
2, 84432, Note_on_c, 0, 62, 0
2, 84440, Note_on_c, 0, 56, 0
2, 84456, Note_on_c, 0, 92, 0
2, 84468, Note_on_c, 0, 98, 87
2, 84524, Control_c, 0, 64, 88
2, 84528, Note_on_c, 0, 98, 0
2, 84536, Control_c, 0, 64, 40
2, 84548, Control_c, 0, 64, 0
2, 84556, Note_on_c, 0, 89, 90
2, 84568, Note_on_c, 0, 48, 53
2, 84588, Control_c, 0, 64, 56
2, 84600, Control_c, 0, 64, 88
2, 84612, Note_on_c, 0, 48, 0
2, 84612, Control_c, 0, 64, 127
2, 84616, Note_on_c, 0, 89, 0
2, 84636, Note_on_c, 0, 87, 82
2, 84676, Control_c, 0, 64, 72
2, 84688, Control_c, 0, 64, 0
2, 84696, Note_on_c, 0, 87, 0
2, 84724, Note_on_c, 0, 63, 60
2, 84724, Note_on_c, 0, 93, 84
2, 84728, Note_on_c, 0, 57, 54
2, 84740, Note_on_c, 0, 54, 51
2, 84740, Control_c, 0, 64, 56
2, 84752, Note_on_c, 0, 57, 0
2, 84752, Control_c, 0, 64, 104
2, 84764, Control_c, 0, 64, 127
2, 84776, Note_on_c, 0, 63, 0
2, 84784, Note_on_c, 0, 93, 0
2, 84804, Note_on_c, 0, 99, 83
2, 84852, Note_on_c, 0, 54, 0
2, 84860, Control_c, 0, 64, 72
2, 84868, Note_on_c, 0, 99, 0
2, 84872, Control_c, 0, 64, 24
2, 84876, Note_on_c, 0, 50, 69
2, 84884, Control_c, 0, 64, 0
2, 84896, Note_on_c, 0, 91, 88
2, 84904, Control_c, 0, 64, 40
2, 84916, Control_c, 0, 64, 72
2, 84924, Control_c, 0, 64, 104
2, 84928, Note_on_c, 0, 50, 0
2, 84936, Control_c, 0, 64, 127
2, 84944, Note_on_c, 0, 91, 0
2, 84968, Note_on_c, 0, 89, 88
2, 85024, Control_c, 0, 64, 72
2, 85036, Control_c, 0, 64, 0
2, 85060, Note_on_c, 0, 95, 94
2, 85068, Note_on_c, 0, 59, 56
2, 85072, Note_on_c, 0, 56, 55
2, 85072, Note_on_c, 0, 65, 59
2, 85080, Control_c, 0, 64, 24
2, 85088, Control_c, 0, 64, 72
2, 85100, Control_c, 0, 64, 104
2, 85112, Note_on_c, 0, 65, 0
2, 85112, Control_c, 0, 64, 127
2, 85124, Note_on_c, 0, 95, 0
2, 85144, Note_on_c, 0, 101, 93
2, 85148, Note_on_c, 0, 56, 0
2, 85176, Note_on_c, 0, 89, 0
2, 85200, Note_on_c, 0, 59, 0
2, 85208, Control_c, 0, 64, 88
2, 85220, Control_c, 0, 64, 40
2, 85228, Control_c, 0, 64, 0
2, 85240, Note_on_c, 0, 51, 83
2, 85272, Control_c, 0, 64, 56
2, 85284, Control_c, 0, 64, 88
2, 85296, Control_c, 0, 64, 127
2, 85308, Note_on_c, 0, 51, 0
2, 85372, Control_c, 0, 64, 104
2, 85376, Note_on_c, 0, 101, 0
2, 85380, Control_c, 0, 64, 56
2, 85392, Control_c, 0, 64, 0
2, 85432, Note_on_c, 0, 99, 86
2, 85444, Note_on_c, 0, 68, 60
2, 85448, Note_on_c, 0, 60, 62
2, 85448, Control_c, 0, 64, 40
2, 85452, Note_on_c, 0, 56, 50
2, 85456, Control_c, 0, 64, 88
2, 85468, Control_c, 0, 64, 127
2, 85500, Note_on_c, 0, 99, 0
2, 85508, Note_on_c, 0, 68, 0
2, 85520, Note_on_c, 0, 101, 86
2, 85544, Note_on_c, 0, 56, 0
2, 85556, Note_on_c, 0, 60, 0
2, 85576, Note_on_c, 0, 101, 0
2, 85588, Control_c, 0, 64, 104
2, 85596, Note_on_c, 0, 53, 65
2, 85600, Note_on_c, 0, 99, 84
2, 85600, Control_c, 0, 64, 72
2, 85640, Control_c, 0, 64, 104
2, 85660, Note_on_c, 0, 53, 0
2, 85664, Control_c, 0, 64, 127
2, 85680, Note_on_c, 0, 99, 0
2, 85680, Note_on_c, 0, 96, 80
2, 85728, Control_c, 0, 64, 56
2, 85740, Control_c, 0, 64, 0
2, 85772, Note_on_c, 0, 92, 89
2, 85776, Note_on_c, 0, 96, 0
2, 85792, Note_on_c, 0, 56, 51
2, 85792, Note_on_c, 0, 60, 59
2, 85792, Note_on_c, 0, 68, 59
2, 85804, Control_c, 0, 64, 56
2, 85816, Control_c, 0, 64, 104
2, 85824, Note_on_c, 0, 92, 0
2, 85828, Control_c, 0, 64, 127
2, 85892, Note_on_c, 0, 68, 0
2, 85900, Note_on_c, 0, 56, 0
2, 85924, Note_on_c, 0, 60, 0
2, 85968, Note_on_c, 0, 87, 85
2, 85968, Note_on_c, 0, 54, 60
2, 85968, Control_c, 0, 64, 72
2, 85976, Control_c, 0, 64, 40
2, 85988, Control_c, 0, 64, 0
2, 86028, Note_on_c, 0, 54, 0
2, 86028, Note_on_c, 0, 87, 0
2, 86032, Control_c, 0, 64, 40
2, 86044, Control_c, 0, 64, 56
2, 86048, Note_on_c, 0, 89, 92
2, 86056, Control_c, 0, 64, 88
2, 86096, Control_c, 0, 64, 40
2, 86108, Control_c, 0, 64, 0
2, 86112, Note_on_c, 0, 89, 0
2, 86132, Note_on_c, 0, 87, 85
2, 86148, Note_on_c, 0, 68, 47
2, 86152, Note_on_c, 0, 60, 51
2, 86152, Note_on_c, 0, 56, 48
2, 86196, Control_c, 0, 64, 40
2, 86204, Control_c, 0, 64, 72
2, 86208, Note_on_c, 0, 68, 0
2, 86216, Note_on_c, 0, 87, 0
2, 86216, Note_on_c, 0, 84, 83
2, 86216, Control_c, 0, 64, 88
2, 86248, Control_c, 0, 64, 40
2, 86256, Note_on_c, 0, 60, 0
2, 86260, Control_c, 0, 64, 0
2, 86288, Note_on_c, 0, 56, 0
2, 86316, Note_on_c, 0, 80, 86
2, 86316, Note_on_c, 0, 51, 68
2, 86320, Note_on_c, 0, 84, 0
2, 86336, Control_c, 0, 64, 56
2, 86348, Control_c, 0, 64, 127
2, 86356, Note_on_c, 0, 80, 0
2, 86360, Note_on_c, 0, 51, 0
2, 86500, Note_on_c, 0, 75, 78
2, 86504, Note_on_c, 0, 68, 47
2, 86504, Note_on_c, 0, 60, 55
2, 86508, Note_on_c, 0, 56, 39
2, 86536, Note_on_c, 0, 60, 0
2, 86556, Note_on_c, 0, 75, 0
2, 86568, Note_on_c, 0, 68, 0
2, 86576, Note_on_c, 0, 77, 87
2, 86612, Note_on_c, 0, 56, 0
2, 86632, Note_on_c, 0, 77, 0
2, 86640, Control_c, 0, 64, 40
2, 86652, Control_c, 0, 64, 0
2, 86656, Note_on_c, 0, 75, 85
2, 86660, Note_on_c, 0, 53, 56
2, 86716, Control_c, 0, 64, 24
2, 86720, Note_on_c, 0, 53, 0
2, 86728, Control_c, 0, 64, 56
2, 86740, Note_on_c, 0, 75, 0
2, 86740, Note_on_c, 0, 72, 86
2, 86760, Control_c, 0, 64, 0
2, 86820, Note_on_c, 0, 72, 0
2, 86832, Note_on_c, 0, 56, 58
2, 86836, Note_on_c, 0, 60, 67
2, 86836, Note_on_c, 0, 68, 78
2, 86836, Control_c, 0, 64, 40
2, 86848, Control_c, 0, 64, 88
2, 86856, Control_c, 0, 64, 127
2, 86880, Note_on_c, 0, 68, 0
2, 86884, Note_on_c, 0, 60, 0
2, 86968, Note_on_c, 0, 56, 0
2, 86996, Control_c, 0, 64, 104
2, 87008, Control_c, 0, 64, 72
2, 87020, Control_c, 0, 64, 56
2, 87024, Note_on_c, 0, 63, 68
2, 87024, Note_on_c, 0, 54, 46
2, 87052, Control_c, 0, 64, 72
2, 87060, Control_c, 0, 64, 88
2, 87084, Note_on_c, 0, 63, 0
2, 87084, Control_c, 0, 64, 104
2, 87100, Note_on_c, 0, 65, 75
2, 87104, Note_on_c, 0, 54, 0
2, 87164, Note_on_c, 0, 65, 0
2, 87172, Note_on_c, 0, 56, 52
2, 87188, Note_on_c, 0, 63, 78
2, 87252, Note_on_c, 0, 63, 0
2, 87260, Note_on_c, 0, 56, 0
2, 87268, Note_on_c, 0, 60, 82
2, 87280, Control_c, 0, 64, 127
2, 87320, Control_c, 0, 64, 88
2, 87332, Note_on_c, 0, 60, 0
2, 87336, Control_c, 0, 64, 56
2, 87344, Control_c, 0, 64, 0
2, 87368, Note_on_c, 0, 63, 78
2, 87384, Note_on_c, 0, 53, 58
2, 87416, Note_on_c, 0, 63, 0
2, 87420, Control_c, 0, 64, 56
2, 87432, Control_c, 0, 64, 88
2, 87444, Control_c, 0, 64, 127
2, 87508, Note_on_c, 0, 53, 0
2, 87552, Control_c, 0, 64, 104
2, 87560, Control_c, 0, 64, 56
2, 87564, Note_on_c, 0, 73, 79
2, 87572, Control_c, 0, 64, 0
2, 87576, Note_on_c, 0, 56, 57
2, 87588, Note_on_c, 0, 65, 40
2, 87604, Control_c, 0, 64, 72
2, 87616, Control_c, 0, 64, 88
2, 87624, Note_on_c, 0, 73, 0
2, 87628, Control_c, 0, 64, 127
2, 87648, Note_on_c, 0, 75, 77
2, 87680, Note_on_c, 0, 65, 0
2, 87708, Note_on_c, 0, 75, 0
2, 87728, Note_on_c, 0, 53, 62
2, 87736, Note_on_c, 0, 73, 69
2, 87744, Note_on_c, 0, 56, 0
2, 87776, Note_on_c, 0, 53, 0
2, 87804, Note_on_c, 0, 73, 0
2, 87816, Note_on_c, 0, 61, 62
2, 87844, Control_c, 0, 64, 88
2, 87856, Control_c, 0, 64, 56
2, 87868, Note_on_c, 0, 61, 0
2, 87868, Control_c, 0, 64, 0
2, 87920, Note_on_c, 0, 70, 80
2, 87932, Note_on_c, 0, 52, 58
2, 87940, Control_c, 0, 64, 56
2, 87952, Control_c, 0, 64, 104
2, 87956, Note_on_c, 0, 70, 0
2, 87964, Control_c, 0, 64, 127
2, 88076, Note_on_c, 0, 52, 0
2, 88108, Note_on_c, 0, 80, 86
2, 88108, Note_on_c, 0, 56, 48
2, 88120, Note_on_c, 0, 64, 49
2, 88164, Note_on_c, 0, 80, 0
2, 88192, Note_on_c, 0, 82, 79
2, 88256, Note_on_c, 0, 82, 0
2, 88268, Note_on_c, 0, 52, 67
2, 88284, Note_on_c, 0, 80, 73
2, 88304, Note_on_c, 0, 56, 0
2, 88328, Note_on_c, 0, 52, 0
2, 88344, Note_on_c, 0, 64, 0
2, 88352, Note_on_c, 0, 80, 0
2, 88364, Note_on_c, 0, 68, 82
2, 88396, Control_c, 0, 64, 104
2, 88408, Control_c, 0, 64, 72
2, 88416, Control_c, 0, 64, 24
2, 88424, Note_on_c, 0, 68, 0
2, 88428, Control_c, 0, 64, 0
2, 88464, Note_on_c, 0, 77, 96
2, 88476, Note_on_c, 0, 51, 67
2, 88504, Control_c, 0, 64, 40
2, 88508, Note_on_c, 0, 77, 0
2, 88516, Control_c, 0, 64, 127
2, 88628, Note_on_c, 0, 51, 0
2, 88668, Note_on_c, 0, 87, 90
2, 88680, Note_on_c, 0, 56, 53
2, 88680, Note_on_c, 0, 63, 55
2, 88724, Note_on_c, 0, 87, 0
2, 88764, Note_on_c, 0, 89, 94
2, 88812, Note_on_c, 0, 63, 0
2, 88820, Note_on_c, 0, 89, 0
2, 88860, Note_on_c, 0, 87, 86
2, 88872, Note_on_c, 0, 56, 0
2, 88880, Note_on_c, 0, 51, 68
2, 88916, Note_on_c, 0, 87, 0
2, 88932, Note_on_c, 0, 51, 0
2, 88932, Note_on_c, 0, 75, 86
2, 88992, Note_on_c, 0, 75, 0
2, 89040, Note_on_c, 0, 79, 93
2, 89048, Control_c, 0, 64, 56
2, 89060, Control_c, 0, 64, 0
2, 89076, Note_on_c, 0, 50, 74
2, 89116, Note_on_c, 0, 50, 0
2, 89120, Note_on_c, 0, 79, 0
2, 89124, Control_c, 0, 64, 88
2, 89132, Control_c, 0, 64, 127
2, 89268, Note_on_c, 0, 89, 94
2, 89276, Note_on_c, 0, 65, 52
2, 89280, Note_on_c, 0, 59, 53
2, 89284, Note_on_c, 0, 56, 38
2, 89324, Note_on_c, 0, 65, 0
2, 89340, Note_on_c, 0, 89, 0
2, 89364, Note_on_c, 0, 91, 93
2, 89432, Note_on_c, 0, 56, 0
2, 89436, Note_on_c, 0, 91, 0
2, 89476, Note_on_c, 0, 89, 92
2, 89496, Note_on_c, 0, 50, 64
2, 89516, Note_on_c, 0, 59, 0
2, 89548, Note_on_c, 0, 50, 0
2, 89552, Note_on_c, 0, 89, 0
2, 89580, Note_on_c, 0, 77, 82
2, 89624, Note_on_c, 0, 77, 0
2, 89708, Control_c, 0, 64, 56
2, 89720, Control_c, 0, 64, 0
2, 89724, Note_on_c, 0, 39, 92
2, 89776, Note_on_c, 0, 39, 0
2, 89784, Control_c, 0, 64, 88
2, 89796, Control_c, 0, 64, 127
2, 89952, Note_on_c, 0, 91, 102
2, 89956, Note_on_c, 0, 67, 70
2, 89956, Note_on_c, 0, 82, 77
2, 89956, Note_on_c, 0, 85, 79
2, 89956, Note_on_c, 0, 61, 64
2, 89956, Note_on_c, 0, 79, 85
2, 89956, Control_c, 0, 64, 72
2, 89964, Note_on_c, 0, 56, 49
2, 89968, Note_on_c, 0, 58, 49
2, 89968, Control_c, 0, 64, 127
2, 90048, Note_on_c, 0, 79, 0
2, 90064, Note_on_c, 0, 91, 0
2, 90068, Note_on_c, 0, 67, 0
2, 90160, Note_on_c, 0, 85, 0
2, 90164, Note_on_c, 0, 82, 0
2, 90176, Note_on_c, 0, 89, 103
2, 90176, Note_on_c, 0, 77, 90
2, 90188, Note_on_c, 0, 65, 68
2, 90196, Note_on_c, 0, 82, 44
2, 90212, Note_on_c, 0, 61, 0
2, 90224, Note_on_c, 0, 82, 0
2, 90260, Note_on_c, 0, 77, 0
2, 90272, Note_on_c, 0, 89, 0
2, 90384, Note_on_c, 0, 65, 0
2, 90384, Note_on_c, 0, 87, 99
2, 90392, Note_on_c, 0, 75, 88
2, 90396, Note_on_c, 0, 63, 69
2, 90452, Note_on_c, 0, 58, 0
2, 90460, Note_on_c, 0, 75, 0
2, 90484, Note_on_c, 0, 87, 0
2, 90580, Note_on_c, 0, 63, 0
2, 90588, Note_on_c, 0, 85, 95
2, 90592, Note_on_c, 0, 73, 85
2, 90600, Note_on_c, 0, 61, 61
2, 90700, Note_on_c, 0, 85, 0
2, 90712, Note_on_c, 0, 61, 0
2, 90712, Note_on_c, 0, 73, 0
2, 90804, Note_on_c, 0, 84, 94
2, 90808, Note_on_c, 0, 72, 75
2, 90808, Note_on_c, 0, 60, 71
2, 90876, Note_on_c, 0, 72, 0
2, 90904, Note_on_c, 0, 84, 0
2, 90980, Note_on_c, 0, 60, 0
2, 91008, Note_on_c, 0, 82, 89
2, 91012, Note_on_c, 0, 70, 73
2, 91032, Note_on_c, 0, 58, 54
2, 91076, Note_on_c, 0, 70, 0
2, 91160, Note_on_c, 0, 82, 0
2, 91228, Note_on_c, 0, 84, 99
2, 91228, Note_on_c, 0, 72, 87
2, 91244, Note_on_c, 0, 60, 71
2, 91280, Note_on_c, 0, 58, 0
2, 91284, Note_on_c, 0, 72, 0
2, 91328, Note_on_c, 0, 84, 0
2, 91448, Note_on_c, 0, 85, 96
2, 91452, Note_on_c, 0, 73, 90
2, 91464, Note_on_c, 0, 61, 71
2, 91472, Note_on_c, 0, 60, 0
2, 91492, Note_on_c, 0, 56, 0
2, 91500, Note_on_c, 0, 73, 0
2, 91504, Note_on_c, 0, 61, 0
2, 91544, Note_on_c, 0, 85, 0
2, 91708, Note_on_c, 0, 87, 103
2, 91708, Note_on_c, 0, 75, 93
2, 91708, Control_c, 0, 64, 40
2, 91720, Note_on_c, 0, 55, 73
2, 91720, Control_c, 0, 64, 0
2, 91728, Note_on_c, 0, 51, 65
2, 91728, Note_on_c, 0, 63, 64
2, 91772, Note_on_c, 0, 75, 0
2, 91776, Note_on_c, 0, 87, 0
2, 91784, Control_c, 0, 64, 56
2, 91796, Control_c, 0, 64, 127
2, 91980, Note_on_c, 0, 77, 94
2, 91980, Note_on_c, 0, 65, 83
2, 91992, Note_on_c, 0, 55, 0
2, 92012, Note_on_c, 0, 53, 58
2, 92024, Note_on_c, 0, 65, 0
2, 92052, Note_on_c, 0, 77, 0
2, 92252, Note_on_c, 0, 79, 97
2, 92252, Note_on_c, 0, 67, 87
2, 92272, Note_on_c, 0, 55, 60
2, 92280, Note_on_c, 0, 53, 0
2, 92296, Note_on_c, 0, 67, 0
2, 92300, Note_on_c, 0, 55, 0
2, 92304, Note_on_c, 0, 63, 0
2, 92316, Note_on_c, 0, 51, 0
2, 92328, Note_on_c, 0, 79, 0
2, 92464, Control_c, 0, 64, 72
2, 92476, Control_c, 0, 64, 0
2, 92552, Note_on_c, 0, 80, 91
2, 92552, Note_on_c, 0, 68, 71
2, 92552, Note_on_c, 0, 44, 67
2, 92576, Control_c, 0, 64, 56
2, 92592, Control_c, 0, 64, 127
2, 92604, Note_on_c, 0, 44, 0
2, 92616, Note_on_c, 0, 68, 0
2, 92684, Note_on_c, 0, 80, 0
2, 92716, Note_on_c, 0, 75, 82
2, 92728, Note_on_c, 0, 51, 63
2, 92728, Note_on_c, 0, 56, 53
2, 92728, Note_on_c, 0, 60, 60
2, 92752, Note_on_c, 0, 60, 0
2, 92752, Note_on_c, 0, 56, 0
2, 92760, Note_on_c, 0, 51, 0
2, 92788, Note_on_c, 0, 75, 0
2, 92808, Control_c, 0, 64, 88
2, 92852, Note_on_c, 0, 44, 58
2, 92860, Control_c, 0, 64, 127
2, 92876, Note_on_c, 0, 44, 0
2, 92992, Note_on_c, 0, 77, 83
2, 93000, Note_on_c, 0, 60, 64
2, 93008, Note_on_c, 0, 51, 59
2, 93008, Note_on_c, 0, 56, 39
2, 93024, Note_on_c, 0, 60, 0
2, 93028, Note_on_c, 0, 56, 0
2, 93036, Note_on_c, 0, 51, 0
2, 93132, Note_on_c, 0, 44, 57
2, 93156, Note_on_c, 0, 44, 0
2, 93212, Note_on_c, 0, 77, 0
2, 93260, Note_on_c, 0, 79, 86
2, 93264, Note_on_c, 0, 60, 69
2, 93264, Note_on_c, 0, 51, 70
2, 93292, Note_on_c, 0, 60, 0
2, 93320, Note_on_c, 0, 51, 0
2, 93344, Control_c, 0, 64, 104
2, 93356, Control_c, 0, 64, 40
2, 93368, Control_c, 0, 64, 0
2, 93400, Note_on_c, 0, 44, 73
2, 93448, Note_on_c, 0, 44, 0
2, 93448, Control_c, 0, 64, 40
2, 93456, Control_c, 0, 64, 88
2, 93472, Control_c, 0, 64, 127
2, 93496, Note_on_c, 0, 79, 0
2, 93540, Note_on_c, 0, 80, 89
2, 93548, Note_on_c, 0, 51, 57
2, 93552, Note_on_c, 0, 61, 57
2, 93556, Note_on_c, 0, 55, 66
2, 93580, Note_on_c, 0, 55, 0
2, 93592, Note_on_c, 0, 61, 0
2, 93600, Note_on_c, 0, 51, 0
2, 93676, Note_on_c, 0, 44, 68
2, 93708, Note_on_c, 0, 80, 0
2, 93724, Note_on_c, 0, 44, 0
2, 93820, Note_on_c, 0, 82, 84
2, 93824, Note_on_c, 0, 55, 63
2, 93824, Note_on_c, 0, 51, 54
2, 93824, Note_on_c, 0, 61, 43
2, 93844, Note_on_c, 0, 55, 0
2, 93852, Note_on_c, 0, 61, 0
2, 93872, Note_on_c, 0, 51, 0
2, 93936, Note_on_c, 0, 44, 64
2, 93976, Note_on_c, 0, 44, 0
2, 94040, Note_on_c, 0, 82, 0
2, 94080, Note_on_c, 0, 51, 56
2, 94080, Note_on_c, 0, 61, 58
2, 94088, Note_on_c, 0, 55, 62
2, 94088, Note_on_c, 0, 84, 92
2, 94108, Note_on_c, 0, 55, 0
2, 94120, Note_on_c, 0, 61, 0
2, 94140, Note_on_c, 0, 51, 0
2, 94176, Control_c, 0, 64, 72
2, 94188, Control_c, 0, 64, 0
2, 94204, Note_on_c, 0, 44, 75
2, 94248, Note_on_c, 0, 44, 0
2, 94336, Note_on_c, 0, 84, 0
2, 94340, Control_c, 0, 64, 40
2, 94344, Note_on_c, 0, 82, 79
2, 94344, Note_on_c, 0, 60, 72
2, 94352, Note_on_c, 0, 51, 62
2, 94352, Note_on_c, 0, 56, 44
2, 94356, Control_c, 0, 64, 104
2, 94364, Control_c, 0, 64, 127
2, 94368, Note_on_c, 0, 60, 0
2, 94376, Note_on_c, 0, 56, 0
2, 94388, Note_on_c, 0, 51, 0
2, 94468, Note_on_c, 0, 44, 67
2, 94512, Note_on_c, 0, 44, 0
2, 94584, Note_on_c, 0, 82, 0
2, 94596, Note_on_c, 0, 80, 82
2, 94604, Note_on_c, 0, 60, 70
2, 94616, Note_on_c, 0, 51, 56
2, 94628, Note_on_c, 0, 60, 0
2, 94636, Note_on_c, 0, 51, 0
2, 94668, Note_on_c, 0, 80, 0
2, 94728, Note_on_c, 0, 44, 60
2, 94756, Note_on_c, 0, 44, 0
2, 94856, Note_on_c, 0, 77, 90
2, 94860, Note_on_c, 0, 60, 73
2, 94860, Note_on_c, 0, 51, 65
2, 94884, Note_on_c, 0, 60, 0
2, 94904, Note_on_c, 0, 51, 0
2, 94956, Control_c, 0, 64, 56
2, 94968, Control_c, 0, 64, 0
2, 94992, Note_on_c, 0, 44, 67
2, 95036, Note_on_c, 0, 44, 0
2, 95044, Control_c, 0, 64, 56
2, 95056, Control_c, 0, 64, 127
2, 95084, Note_on_c, 0, 77, 0
2, 95120, Note_on_c, 0, 75, 85
2, 95136, Note_on_c, 0, 61, 51
2, 95140, Note_on_c, 0, 51, 50
2, 95152, Note_on_c, 0, 55, 40
2, 95176, Note_on_c, 0, 55, 0
2, 95184, Note_on_c, 0, 51, 0
2, 95184, Note_on_c, 0, 61, 0
2, 95208, Note_on_c, 0, 75, 0
2, 95252, Note_on_c, 0, 74, 96
2, 95256, Note_on_c, 0, 44, 73
2, 95308, Note_on_c, 0, 44, 0
2, 95320, Note_on_c, 0, 74, 0
2, 95376, Note_on_c, 0, 75, 89
2, 95384, Note_on_c, 0, 61, 59
2, 95384, Note_on_c, 0, 51, 64
2, 95396, Note_on_c, 0, 55, 53
2, 95408, Note_on_c, 0, 61, 0
2, 95420, Note_on_c, 0, 55, 0
2, 95436, Note_on_c, 0, 51, 0
2, 95460, Note_on_c, 0, 75, 0
2, 95508, Note_on_c, 0, 79, 93
2, 95512, Note_on_c, 0, 44, 69
2, 95552, Note_on_c, 0, 44, 0
2, 95588, Note_on_c, 0, 79, 0
2, 95636, Note_on_c, 0, 77, 99
2, 95644, Note_on_c, 0, 51, 61
2, 95644, Note_on_c, 0, 61, 51
2, 95652, Note_on_c, 0, 55, 49
2, 95668, Note_on_c, 0, 61, 0
2, 95676, Note_on_c, 0, 55, 0
2, 95692, Note_on_c, 0, 51, 0
2, 95712, Note_on_c, 0, 77, 0
2, 95752, Note_on_c, 0, 73, 90
2, 95768, Note_on_c, 0, 44, 73
2, 95812, Note_on_c, 0, 44, 0
2, 95836, Note_on_c, 0, 73, 0
2, 95860, Control_c, 0, 64, 40
2, 95876, Control_c, 0, 64, 0
2, 95904, Note_on_c, 0, 72, 93
2, 95912, Note_on_c, 0, 60, 73
2, 95916, Note_on_c, 0, 56, 57
2, 95920, Note_on_c, 0, 51, 64
2, 95940, Note_on_c, 0, 56, 0
2, 95940, Note_on_c, 0, 60, 0
2, 95952, Note_on_c, 0, 51, 0
2, 95964, Control_c, 0, 64, 88
2, 95976, Control_c, 0, 64, 127
2, 95984, Note_on_c, 0, 72, 0
2, 96052, Note_on_c, 0, 44, 71
2, 96056, Note_on_c, 0, 75, 79
2, 96064, Note_on_c, 0, 63, 67
2, 96104, Note_on_c, 0, 44, 0
2, 96120, Note_on_c, 0, 63, 0
2, 96152, Note_on_c, 0, 75, 0
2, 96192, Note_on_c, 0, 60, 59
2, 96196, Note_on_c, 0, 51, 55
2, 96216, Note_on_c, 0, 51, 0
2, 96216, Note_on_c, 0, 60, 0
2, 96320, Note_on_c, 0, 44, 67
2, 96320, Note_on_c, 0, 77, 96
2, 96328, Note_on_c, 0, 65, 81
2, 96368, Note_on_c, 0, 44, 0
2, 96384, Note_on_c, 0, 65, 0
2, 96428, Note_on_c, 0, 77, 0
2, 96448, Note_on_c, 0, 60, 72
2, 96452, Note_on_c, 0, 51, 64
2, 96460, Note_on_c, 0, 56, 28
2, 96468, Note_on_c, 0, 60, 0
2, 96476, Note_on_c, 0, 51, 0
2, 96484, Note_on_c, 0, 56, 0
2, 96572, Note_on_c, 0, 79, 96
2, 96576, Note_on_c, 0, 67, 82
2, 96648, Note_on_c, 0, 67, 0
2, 96656, Control_c, 0, 64, 104
2, 96668, Control_c, 0, 64, 40
2, 96680, Control_c, 0, 64, 0
2, 96716, Note_on_c, 0, 51, 58
2, 96724, Note_on_c, 0, 61, 55
2, 96728, Note_on_c, 0, 55, 59
2, 96752, Note_on_c, 0, 55, 0
2, 96756, Note_on_c, 0, 79, 0
2, 96756, Control_c, 0, 64, 72
2, 96764, Note_on_c, 0, 61, 0
2, 96768, Note_on_c, 0, 51, 0
2, 96772, Control_c, 0, 64, 127
2, 96832, Control_c, 0, 64, 72
2, 96844, Note_on_c, 0, 44, 76
2, 96848, Note_on_c, 0, 80, 92
2, 96848, Control_c, 0, 64, 24
2, 96856, Note_on_c, 0, 68, 84
2, 96860, Control_c, 0, 64, 0
2, 96872, Control_c, 0, 64, 24
2, 96884, Control_c, 0, 64, 56
2, 96896, Note_on_c, 0, 44, 0
2, 96896, Control_c, 0, 64, 88
2, 96908, Control_c, 0, 64, 127
2, 96924, Note_on_c, 0, 68, 0
2, 96968, Note_on_c, 0, 80, 0
2, 96976, Note_on_c, 0, 51, 63
2, 96976, Note_on_c, 0, 61, 56
2, 96988, Note_on_c, 0, 55, 57
2, 97008, Note_on_c, 0, 55, 0
2, 97008, Note_on_c, 0, 61, 0
2, 97032, Note_on_c, 0, 51, 0
2, 97108, Note_on_c, 0, 82, 87
2, 97112, Note_on_c, 0, 70, 81
2, 97112, Note_on_c, 0, 44, 70
2, 97160, Note_on_c, 0, 44, 0
2, 97172, Note_on_c, 0, 70, 0
2, 97240, Note_on_c, 0, 51, 61
2, 97240, Note_on_c, 0, 61, 59
2, 97248, Note_on_c, 0, 55, 59
2, 97268, Note_on_c, 0, 55, 0
2, 97268, Note_on_c, 0, 61, 0
2, 97280, Note_on_c, 0, 82, 0
2, 97288, Note_on_c, 0, 51, 0
2, 97364, Note_on_c, 0, 84, 90
2, 97368, Note_on_c, 0, 72, 82
2, 97372, Note_on_c, 0, 44, 65
2, 97424, Note_on_c, 0, 44, 0
2, 97448, Control_c, 0, 64, 104
2, 97460, Control_c, 0, 64, 40
2, 97472, Control_c, 0, 64, 0
2, 97500, Note_on_c, 0, 60, 78
2, 97504, Note_on_c, 0, 84, 0
2, 97504, Note_on_c, 0, 56, 56
2, 97508, Note_on_c, 0, 51, 62
2, 97512, Note_on_c, 0, 72, 0
2, 97524, Note_on_c, 0, 60, 0
2, 97524, Note_on_c, 0, 56, 0
2, 97532, Note_on_c, 0, 51, 0
2, 97548, Control_c, 0, 64, 56
2, 97560, Control_c, 0, 64, 127
2, 97600, Control_c, 0, 64, 104
2, 97612, Control_c, 0, 64, 72
2, 97624, Note_on_c, 0, 82, 81
2, 97632, Note_on_c, 0, 44, 68
2, 97636, Note_on_c, 0, 70, 70
2, 97648, Control_c, 0, 64, 88
2, 97664, Control_c, 0, 64, 127
2, 97676, Note_on_c, 0, 44, 0
2, 97728, Note_on_c, 0, 70, 0
2, 97752, Note_on_c, 0, 60, 71
2, 97768, Note_on_c, 0, 51, 48
2, 97776, Note_on_c, 0, 60, 0
2, 97788, Note_on_c, 0, 51, 0
2, 97804, Note_on_c, 0, 82, 0
2, 97880, Note_on_c, 0, 80, 87
2, 97880, Note_on_c, 0, 44, 69
2, 97884, Note_on_c, 0, 68, 78
2, 97928, Note_on_c, 0, 44, 0
2, 97940, Note_on_c, 0, 68, 0
2, 97960, Note_on_c, 0, 80, 0
2, 98004, Note_on_c, 0, 60, 71
2, 98012, Note_on_c, 0, 51, 55
2, 98024, Note_on_c, 0, 60, 0
2, 98036, Note_on_c, 0, 51, 0
2, 98124, Note_on_c, 0, 77, 88
2, 98128, Note_on_c, 0, 44, 59
2, 98136, Note_on_c, 0, 65, 66
2, 98160, Note_on_c, 0, 67, 30
2, 98180, Note_on_c, 0, 44, 0
2, 98184, Note_on_c, 0, 67, 0
2, 98208, Note_on_c, 0, 65, 0
2, 98208, Note_on_c, 0, 77, 0
2, 98212, Control_c, 0, 64, 88
2, 98228, Control_c, 0, 64, 24
2, 98240, Control_c, 0, 64, 0
2, 98252, Note_on_c, 0, 51, 58
2, 98264, Note_on_c, 0, 61, 50
2, 98268, Note_on_c, 0, 55, 59
2, 98288, Note_on_c, 0, 55, 0
2, 98288, Note_on_c, 0, 61, 0
2, 98292, Control_c, 0, 64, 24
2, 98304, Control_c, 0, 64, 72
2, 98308, Note_on_c, 0, 51, 0
2, 98316, Control_c, 0, 64, 127
2, 98384, Note_on_c, 0, 63, 77
2, 98384, Note_on_c, 0, 75, 85
2, 98404, Note_on_c, 0, 44, 47
2, 98432, Note_on_c, 0, 44, 0
2, 98440, Note_on_c, 0, 63, 0
2, 98448, Note_on_c, 0, 75, 0
2, 98508, Note_on_c, 0, 61, 52
2, 98512, Note_on_c, 0, 74, 86
2, 98512, Note_on_c, 0, 51, 55
2, 98520, Note_on_c, 0, 62, 78
2, 98532, Note_on_c, 0, 61, 0
2, 98536, Note_on_c, 0, 51, 0
2, 98540, Note_on_c, 0, 62, 0
2, 98552, Note_on_c, 0, 74, 0
2, 98624, Note_on_c, 0, 63, 78
2, 98628, Note_on_c, 0, 75, 84
2, 98632, Note_on_c, 0, 44, 71
2, 98668, Note_on_c, 0, 63, 0
2, 98680, Note_on_c, 0, 44, 0
2, 98692, Note_on_c, 0, 75, 0
2, 98760, Note_on_c, 0, 61, 47
2, 98760, Note_on_c, 0, 79, 90
2, 98764, Note_on_c, 0, 67, 73
2, 98780, Note_on_c, 0, 61, 0
2, 98788, Note_on_c, 0, 67, 0
2, 98804, Note_on_c, 0, 79, 0
2, 98876, Note_on_c, 0, 44, 73
2, 98888, Note_on_c, 0, 77, 91
2, 98888, Note_on_c, 0, 65, 79
2, 98920, Note_on_c, 0, 65, 0
2, 98928, Note_on_c, 0, 44, 0
2, 98932, Note_on_c, 0, 77, 0
2, 99016, Note_on_c, 0, 73, 84
2, 99016, Note_on_c, 0, 61, 68
2, 99036, Note_on_c, 0, 61, 0
2, 99060, Note_on_c, 0, 73, 0
2, 99120, Control_c, 0, 64, 104
2, 99132, Control_c, 0, 64, 40
2, 99144, Note_on_c, 0, 60, 78
2, 99144, Note_on_c, 0, 72, 86
2, 99148, Control_c, 0, 64, 0
2, 99172, Note_on_c, 0, 44, 61
2, 99192, Note_on_c, 0, 60, 0
2, 99208, Note_on_c, 0, 44, 0
2, 99212, Control_c, 0, 64, 72
2, 99224, Control_c, 0, 64, 127
2, 99240, Note_on_c, 0, 72, 0
2, 99304, Note_on_c, 0, 75, 92
2, 99312, Note_on_c, 0, 63, 85
2, 99312, Note_on_c, 0, 60, 70
2, 99312, Note_on_c, 0, 51, 70
2, 99316, Note_on_c, 0, 56, 49
2, 99332, Note_on_c, 0, 60, 0
2, 99336, Note_on_c, 0, 51, 0
2, 99340, Note_on_c, 0, 56, 0
2, 99348, Note_on_c, 0, 63, 0
2, 99376, Note_on_c, 0, 75, 0
2, 99548, Note_on_c, 0, 80, 90
2, 99552, Note_on_c, 0, 68, 83
2, 99560, Note_on_c, 0, 60, 68
2, 99564, Note_on_c, 0, 51, 67
2, 99568, Note_on_c, 0, 56, 38
2, 99584, Note_on_c, 0, 60, 0
2, 99588, Note_on_c, 0, 51, 0
2, 99592, Note_on_c, 0, 56, 0
2, 99596, Note_on_c, 0, 68, 0
2, 99628, Note_on_c, 0, 80, 0
2, 99672, Note_on_c, 0, 44, 73
2, 99720, Note_on_c, 0, 44, 0
2, 99776, Control_c, 0, 64, 72
2, 99788, Control_c, 0, 64, 0
2, 99792, Note_on_c, 0, 82, 87
2, 99800, Note_on_c, 0, 70, 82
2, 99804, Note_on_c, 0, 60, 74
2, 99812, Note_on_c, 0, 51, 61
2, 99812, Note_on_c, 0, 56, 44
2, 99824, Note_on_c, 0, 60, 0
2, 99836, Note_on_c, 0, 51, 0
2, 99836, Note_on_c, 0, 56, 0
2, 99836, Control_c, 0, 64, 24
2, 99844, Note_on_c, 0, 70, 0
2, 99852, Control_c, 0, 64, 72
2, 99864, Control_c, 0, 64, 127
2, 99904, Note_on_c, 0, 82, 0
2, 99916, Note_on_c, 0, 44, 71
2, 99968, Note_on_c, 0, 44, 0
2, 100044, Note_on_c, 0, 84, 100
2, 100044, Note_on_c, 0, 72, 93
2, 100052, Note_on_c, 0, 60, 77
2, 100056, Note_on_c, 0, 51, 69
2, 100064, Note_on_c, 0, 56, 37
2, 100076, Note_on_c, 0, 60, 0
2, 100088, Note_on_c, 0, 56, 0
2, 100088, Note_on_c, 0, 72, 0
2, 100096, Note_on_c, 0, 51, 0
2, 100116, Note_on_c, 0, 84, 0
2, 100168, Note_on_c, 0, 44, 76
2, 100224, Note_on_c, 0, 44, 0
2, 100284, Note_on_c, 0, 87, 93
2, 100288, Note_on_c, 0, 75, 85
2, 100300, Note_on_c, 0, 60, 78
2, 100308, Note_on_c, 0, 51, 67
2, 100312, Note_on_c, 0, 56, 45
2, 100328, Note_on_c, 0, 60, 0
2, 100332, Note_on_c, 0, 56, 0
2, 100332, Note_on_c, 0, 75, 0
2, 100336, Note_on_c, 0, 51, 0
2, 100364, Note_on_c, 0, 87, 0
2, 100416, Note_on_c, 0, 44, 71
2, 100460, Note_on_c, 0, 44, 0
2, 100528, Note_on_c, 0, 92, 96
2, 100528, Note_on_c, 0, 80, 93
2, 100544, Note_on_c, 0, 60, 83
2, 100544, Note_on_c, 0, 51, 74
2, 100548, Note_on_c, 0, 56, 56
2, 100564, Note_on_c, 0, 60, 0
2, 100568, Note_on_c, 0, 56, 0
2, 100584, Note_on_c, 0, 80, 0
2, 100588, Note_on_c, 0, 51, 0
2, 100616, Note_on_c, 0, 92, 0
2, 100652, Note_on_c, 0, 44, 80
2, 100696, Note_on_c, 0, 44, 0
2, 100768, Note_on_c, 0, 94, 95
2, 100772, Note_on_c, 0, 82, 91
2, 100776, Note_on_c, 0, 60, 82
2, 100776, Note_on_c, 0, 51, 77
2, 100780, Note_on_c, 0, 56, 57
2, 100800, Note_on_c, 0, 60, 0
2, 100804, Note_on_c, 0, 56, 0
2, 100816, Note_on_c, 0, 51, 0
2, 100824, Note_on_c, 0, 82, 0
2, 100884, Note_on_c, 0, 44, 78
2, 100928, Note_on_c, 0, 44, 0
2, 100944, Note_on_c, 0, 94, 0
2, 100988, Control_c, 0, 64, 88
2, 101000, Control_c, 0, 64, 0
2, 101024, Note_on_c, 0, 84, 93
2, 101024, Note_on_c, 0, 51, 82
2, 101028, Note_on_c, 0, 96, 105
2, 101028, Note_on_c, 0, 56, 70
2, 101028, Note_on_c, 0, 60, 81
2, 101052, Control_c, 0, 64, 40
2, 101056, Note_on_c, 0, 60, 0
2, 101064, Note_on_c, 0, 51, 0
2, 101064, Note_on_c, 0, 56, 0
2, 101064, Control_c, 0, 64, 127
2, 101076, Note_on_c, 0, 84, 0
2, 101092, Note_on_c, 0, 96, 0
2, 101372, Control_c, 0, 64, 104
2, 101384, Control_c, 0, 64, 88
2, 101396, Control_c, 0, 64, 56
2, 101408, Control_c, 0, 64, 24
2, 101424, Control_c, 0, 64, 0
2, 101524, Control_c, 0, 64, 24
2, 101536, Control_c, 0, 64, 72
2, 101552, Control_c, 0, 64, 104
2, 101564, Control_c, 0, 64, 127
2, 101604, Note_on_c, 0, 68, 96
2, 101608, Note_on_c, 0, 63, 90
2, 101616, Note_on_c, 0, 60, 81
2, 101616, Note_on_c, 0, 56, 75
2, 101660, Note_on_c, 0, 63, 0
2, 101664, Note_on_c, 0, 60, 0
2, 101672, Note_on_c, 0, 56, 0
2, 101700, Note_on_c, 0, 68, 0
2, 101856, Control_c, 0, 64, 104
2, 101872, Control_c, 0, 64, 24
2, 101884, Control_c, 0, 64, 0
2, 101912, Note_on_c, 0, 56, 71
2, 101912, Note_on_c, 0, 63, 74
2, 101912, Note_on_c, 0, 68, 96
2, 101920, Note_on_c, 0, 60, 89
2, 101932, Control_c, 0, 64, 72
2, 101944, Note_on_c, 0, 63, 0
2, 101948, Control_c, 0, 64, 127
2, 101952, Note_on_c, 0, 56, 0
2, 101960, Note_on_c, 0, 60, 0
2, 101996, Note_on_c, 0, 68, 0
2, 102148, Note_on_c, 0, 32, 83
2, 102188, Note_on_c, 0, 32, 0
2, 102412, Note_on_c, 0, 80, 103
2, 102420, Note_on_c, 0, 68, 85
2, 102424, Note_on_c, 0, 72, 94
2, 102428, Note_on_c, 0, 56, 77
2, 102432, Note_on_c, 0, 63, 81
2, 102464, Note_on_c, 0, 68, 0
2, 102472, Note_on_c, 0, 56, 0
2, 102472, Note_on_c, 0, 63, 0
2, 102472, Note_on_c, 0, 72, 0
2, 102504, Note_on_c, 0, 80, 0
2, 103388, Control_c, 0, 64, 104
2, 103404, Control_c, 0, 64, 72
2, 103416, Control_c, 0, 64, 0
2, 104833, Control_c, 0, 64, 24
2, 104849, Control_c, 0, 64, 40
2, 104865, Control_c, 0, 64, 72
2, 104881, Control_c, 0, 64, 88
2, 104897, Control_c, 0, 64, 104
2, 104913, Control_c, 0, 64, 127
2, 104937, Note_on_c, 0, 67, 62
2, 104949, Note_on_c, 0, 55, 49
2, 104961, Note_on_c, 0, 46, 44
2, 105033, Note_on_c, 0, 67, 0
2, 105057, Note_on_c, 0, 55, 0
2, 105113, Note_on_c, 0, 46, 0
2, 105345, Note_on_c, 0, 66, 63
2, 105345, Control_c, 0, 64, 88
2, 105357, Note_on_c, 0, 54, 46
2, 105361, Control_c, 0, 64, 24
2, 105377, Note_on_c, 0, 45, 49
2, 105377, Control_c, 0, 64, 0
2, 105385, Note_on_c, 0, 39, 37
2, 105441, Control_c, 0, 64, 72
2, 105453, Note_on_c, 0, 54, 0
2, 105453, Control_c, 0, 64, 127
2, 105489, Note_on_c, 0, 66, 0
2, 105613, Note_on_c, 0, 45, 0
2, 105757, Note_on_c, 0, 72, 70
2, 105765, Note_on_c, 0, 60, 55
2, 105777, Note_on_c, 0, 51, 49
2, 105857, Note_on_c, 0, 72, 0
2, 105889, Note_on_c, 0, 60, 0
2, 106101, Note_on_c, 0, 51, 0
2, 106157, Note_on_c, 0, 69, 67
2, 106169, Note_on_c, 0, 57, 41
2, 106173, Note_on_c, 0, 48, 49
2, 106261, Note_on_c, 0, 69, 0
2, 106269, Note_on_c, 0, 57, 0
2, 106397, Note_on_c, 0, 48, 0
2, 106565, Note_on_c, 0, 68, 55
2, 106581, Note_on_c, 0, 56, 42
2, 106585, Note_on_c, 0, 47, 42
2, 106649, Control_c, 0, 64, 88
2, 106661, Control_c, 0, 64, 0
2, 106757, Control_c, 0, 64, 72
2, 106773, Control_c, 0, 64, 127
2, 106781, Note_on_c, 0, 56, 0
2, 106797, Note_on_c, 0, 68, 0
2, 106801, Note_on_c, 0, 47, 0
2, 106817, Note_on_c, 0, 39, 0
2, 106997, Note_on_c, 0, 67, 58
2, 107017, Note_on_c, 0, 55, 40
2, 107017, Note_on_c, 0, 39, 45
2, 107017, Control_c, 0, 64, 104
2, 107033, Control_c, 0, 64, 40
2, 107037, Note_on_c, 0, 46, 37
2, 107049, Control_c, 0, 64, 0
2, 107129, Control_c, 0, 64, 56
2, 107141, Control_c, 0, 64, 127
2, 107173, Note_on_c, 0, 67, 0
2, 107189, Note_on_c, 0, 39, 0
2, 107209, Note_on_c, 0, 46, 0
2, 107345, Note_on_c, 0, 55, 0
2, 107385, Note_on_c, 0, 63, 78
2, 107397, Note_on_c, 0, 51, 69
2, 107501, Note_on_c, 0, 51, 0
2, 107529, Note_on_c, 0, 63, 0
2, 107577, Note_on_c, 0, 60, 74
2, 107577, Note_on_c, 0, 48, 66
2, 107693, Note_on_c, 0, 48, 0
2, 107761, Note_on_c, 0, 60, 0
2, 107789, Note_on_c, 0, 58, 73
2, 107805, Note_on_c, 0, 46, 55
2, 107825, Control_c, 0, 64, 104
2, 107841, Control_c, 0, 64, 24
2, 107857, Control_c, 0, 64, 0
2, 107933, Control_c, 0, 64, 40
2, 107949, Control_c, 0, 64, 104
2, 107957, Note_on_c, 0, 46, 0
2, 107965, Control_c, 0, 64, 127
2, 107981, Note_on_c, 0, 58, 0
2, 108293, Note_on_c, 0, 70, 61
2, 108313, Note_on_c, 0, 58, 38
2, 108321, Control_c, 0, 64, 88
2, 108325, Note_on_c, 0, 43, 47
2, 108337, Control_c, 0, 64, 24
2, 108353, Control_c, 0, 64, 0
2, 108429, Control_c, 0, 64, 72
2, 108445, Control_c, 0, 64, 127
2, 108517, Note_on_c, 0, 58, 0
2, 108529, Note_on_c, 0, 70, 0
2, 108545, Note_on_c, 0, 43, 0
2, 108717, Note_on_c, 0, 69, 72
2, 108725, Note_on_c, 0, 42, 50
2, 108729, Note_on_c, 0, 57, 48
2, 108745, Note_on_c, 0, 39, 45
2, 108753, Control_c, 0, 64, 104
2, 108769, Control_c, 0, 64, 0
2, 108853, Note_on_c, 0, 57, 0
2, 108861, Control_c, 0, 64, 127
2, 108893, Note_on_c, 0, 69, 0
2, 109133, Note_on_c, 0, 75, 84
2, 109137, Note_on_c, 0, 63, 63
2, 109157, Note_on_c, 0, 48, 54
2, 109165, Note_on_c, 0, 42, 0
2, 109297, Note_on_c, 0, 63, 0
2, 109301, Note_on_c, 0, 75, 0
2, 109485, Note_on_c, 0, 48, 0
2, 109529, Note_on_c, 0, 72, 78
2, 109537, Note_on_c, 0, 60, 62
2, 109565, Note_on_c, 0, 45, 52
2, 109633, Note_on_c, 0, 72, 0
2, 109673, Note_on_c, 0, 60, 0
2, 109865, Note_on_c, 0, 45, 0
2, 109905, Note_on_c, 0, 71, 70
2, 109917, Note_on_c, 0, 59, 54
2, 109933, Note_on_c, 0, 44, 52
2, 109961, Control_c, 0, 64, 104
2, 109977, Control_c, 0, 64, 24
2, 109993, Control_c, 0, 64, 0
2, 110041, Note_on_c, 0, 71, 0
2, 110053, Note_on_c, 0, 59, 0
2, 110057, Control_c, 0, 64, 40
2, 110069, Control_c, 0, 64, 104
2, 110077, Note_on_c, 0, 44, 0
2, 110085, Control_c, 0, 64, 127
2, 110145, Note_on_c, 0, 39, 0
2, 110305, Note_on_c, 0, 70, 64
2, 110329, Note_on_c, 0, 58, 39
2, 110345, Note_on_c, 0, 39, 34
2, 110349, Control_c, 0, 64, 88
2, 110353, Note_on_c, 0, 43, 36
2, 110365, Control_c, 0, 64, 24
2, 110381, Control_c, 0, 64, 0
2, 110473, Control_c, 0, 64, 88
2, 110489, Control_c, 0, 64, 127
2, 110513, Note_on_c, 0, 70, 0
2, 110533, Note_on_c, 0, 43, 0
2, 110553, Note_on_c, 0, 39, 0
2, 110661, Note_on_c, 0, 58, 0
2, 110721, Note_on_c, 0, 63, 83
2, 110733, Note_on_c, 0, 51, 71
2, 110821, Note_on_c, 0, 51, 0
2, 110865, Note_on_c, 0, 63, 0
2, 110905, Note_on_c, 0, 60, 78
2, 110921, Note_on_c, 0, 48, 66
2, 111017, Note_on_c, 0, 48, 0
2, 111085, Note_on_c, 0, 60, 0
2, 111109, Note_on_c, 0, 58, 75
2, 111141, Note_on_c, 0, 46, 59
2, 111169, Control_c, 0, 64, 88
2, 111185, Control_c, 0, 64, 0
2, 111309, Control_c, 0, 64, 88
2, 111325, Control_c, 0, 64, 127
2, 111333, Note_on_c, 0, 58, 0
2, 111337, Note_on_c, 0, 46, 0
2, 111641, Note_on_c, 0, 67, 59
2, 111665, Control_c, 0, 64, 88
2, 111669, Note_on_c, 0, 55, 38
2, 111669, Note_on_c, 0, 46, 29
2, 111681, Control_c, 0, 64, 24
2, 111697, Control_c, 0, 64, 0
2, 111837, Control_c, 0, 64, 56
2, 111845, Note_on_c, 0, 67, 0
2, 111853, Note_on_c, 0, 55, 0
2, 111853, Control_c, 0, 64, 127
2, 111929, Note_on_c, 0, 46, 0
2, 112057, Note_on_c, 0, 66, 58
2, 112073, Note_on_c, 0, 54, 40
2, 112081, Note_on_c, 0, 45, 42
2, 112089, Note_on_c, 0, 39, 29
2, 112101, Control_c, 0, 64, 40
2, 112117, Control_c, 0, 64, 0
2, 112209, Control_c, 0, 64, 88
2, 112221, Note_on_c, 0, 54, 0
2, 112225, Control_c, 0, 64, 127
2, 112253, Note_on_c, 0, 66, 0
2, 112449, Note_on_c, 0, 45, 0
2, 112469, Note_on_c, 0, 72, 75
2, 112481, Note_on_c, 0, 51, 44
2, 112485, Note_on_c, 0, 60, 60
2, 112585, Note_on_c, 0, 72, 0
2, 112617, Note_on_c, 0, 60, 0
2, 112825, Note_on_c, 0, 51, 0
2, 112861, Note_on_c, 0, 69, 70
2, 112877, Note_on_c, 0, 57, 48
2, 112897, Note_on_c, 0, 48, 48
2, 112985, Note_on_c, 0, 57, 0
2, 112993, Note_on_c, 0, 69, 0
2, 113149, Note_on_c, 0, 48, 0
2, 113257, Note_on_c, 0, 68, 58
2, 113277, Note_on_c, 0, 56, 45
2, 113281, Note_on_c, 0, 47, 48
2, 113325, Control_c, 0, 64, 24
2, 113337, Control_c, 0, 64, 0
2, 113449, Control_c, 0, 64, 88
2, 113461, Note_on_c, 0, 56, 0
2, 113461, Control_c, 0, 64, 127
2, 113469, Note_on_c, 0, 68, 0
2, 113521, Note_on_c, 0, 47, 0
2, 113609, Note_on_c, 0, 39, 0
2, 113665, Control_c, 0, 64, 88
2, 113681, Note_on_c, 0, 67, 62
2, 113681, Control_c, 0, 64, 0
2, 113701, Note_on_c, 0, 55, 42
2, 113717, Note_on_c, 0, 39, 34
2, 113741, Note_on_c, 0, 46, 43
2, 113773, Control_c, 0, 64, 56
2, 113789, Control_c, 0, 64, 127
2, 113885, Note_on_c, 0, 67, 0
2, 113941, Note_on_c, 0, 46, 0
2, 114041, Note_on_c, 0, 55, 0
2, 114081, Note_on_c, 0, 63, 77
2, 114089, Note_on_c, 0, 51, 76
2, 114209, Note_on_c, 0, 51, 0
2, 114233, Note_on_c, 0, 63, 0
2, 114265, Note_on_c, 0, 60, 75
2, 114281, Note_on_c, 0, 48, 69
2, 114413, Note_on_c, 0, 48, 0
2, 114453, Note_on_c, 0, 60, 0
2, 114469, Note_on_c, 0, 58, 75
2, 114489, Note_on_c, 0, 46, 56
2, 114533, Control_c, 0, 64, 56
2, 114545, Control_c, 0, 64, 0
2, 114653, Control_c, 0, 64, 40
2, 114669, Control_c, 0, 64, 104
2, 114685, Control_c, 0, 64, 127
2, 114689, Note_on_c, 0, 46, 0
2, 114689, Note_on_c, 0, 58, 0
2, 114933, Note_on_c, 0, 70, 62
2, 114933, Control_c, 0, 64, 40
2, 114949, Control_c, 0, 64, 0
2, 114953, Note_on_c, 0, 58, 37
2, 114957, Note_on_c, 0, 43, 49
2, 115041, Control_c, 0, 64, 40
2, 115057, Control_c, 0, 64, 104
2, 115073, Control_c, 0, 64, 127
2, 115081, Note_on_c, 0, 39, 0
2, 115121, Note_on_c, 0, 43, 0
2, 115129, Note_on_c, 0, 70, 0
2, 115133, Note_on_c, 0, 58, 0
2, 115321, Note_on_c, 0, 69, 66
2, 115325, Note_on_c, 0, 42, 53
2, 115329, Note_on_c, 0, 39, 48
2, 115341, Note_on_c, 0, 57, 43
2, 115353, Control_c, 0, 64, 88
2, 115365, Control_c, 0, 64, 0
2, 115477, Note_on_c, 0, 57, 0
2, 115493, Control_c, 0, 64, 56
2, 115509, Note_on_c, 0, 69, 0
2, 115509, Control_c, 0, 64, 127
2, 115733, Note_on_c, 0, 75, 75
2, 115737, Note_on_c, 0, 48, 57
2, 115745, Note_on_c, 0, 63, 55
2, 115777, Note_on_c, 0, 42, 0
2, 115869, Note_on_c, 0, 75, 0
2, 115881, Note_on_c, 0, 63, 0
2, 116025, Note_on_c, 0, 48, 0
2, 116125, Note_on_c, 0, 72, 75
2, 116141, Note_on_c, 0, 60, 60
2, 116149, Note_on_c, 0, 45, 58
2, 116261, Note_on_c, 0, 72, 0
2, 116273, Note_on_c, 0, 60, 0
2, 116473, Note_on_c, 0, 45, 0
2, 116509, Note_on_c, 0, 71, 69
2, 116521, Note_on_c, 0, 59, 53
2, 116537, Note_on_c, 0, 44, 44
2, 116589, Control_c, 0, 64, 56
2, 116609, Control_c, 0, 64, 0
2, 116661, Note_on_c, 0, 59, 0
2, 116665, Note_on_c, 0, 71, 0
2, 116685, Control_c, 0, 64, 24
2, 116701, Control_c, 0, 64, 88
2, 116713, Note_on_c, 0, 44, 0
2, 116717, Control_c, 0, 64, 127
2, 116789, Note_on_c, 0, 39, 0
2, 116917, Note_on_c, 0, 70, 60
2, 116937, Note_on_c, 0, 58, 38
2, 116949, Note_on_c, 0, 39, 31
2, 116953, Note_on_c, 0, 43, 42
2, 116961, Control_c, 0, 64, 88
2, 116981, Control_c, 0, 64, 24
2, 116997, Control_c, 0, 64, 0
2, 117057, Control_c, 0, 64, 24
2, 117073, Control_c, 0, 64, 88
2, 117089, Control_c, 0, 64, 127
2, 117145, Note_on_c, 0, 70, 0
2, 117157, Note_on_c, 0, 43, 0
2, 117261, Note_on_c, 0, 58, 0
2, 117285, Note_on_c, 0, 63, 76
2, 117297, Note_on_c, 0, 51, 62
2, 117429, Note_on_c, 0, 51, 0
2, 117449, Note_on_c, 0, 63, 0
2, 117489, Note_on_c, 0, 60, 74
2, 117493, Note_on_c, 0, 48, 69
2, 117633, Note_on_c, 0, 48, 0
2, 117685, Note_on_c, 0, 60, 0
2, 117713, Note_on_c, 0, 58, 64
2, 117745, Note_on_c, 0, 46, 52
2, 117769, Control_c, 0, 64, 88
2, 117785, Control_c, 0, 64, 0
2, 117893, Control_c, 0, 64, 40
2, 117909, Control_c, 0, 64, 127
2, 117929, Note_on_c, 0, 46, 0
2, 117933, Note_on_c, 0, 58, 0
2, 117937, Note_on_c, 0, 39, 0
2, 118277, Note_on_c, 0, 82, 77
2, 118285, Note_on_c, 0, 70, 56
2, 118301, Note_on_c, 0, 75, 56
2, 118309, Note_on_c, 0, 43, 48
2, 118321, Note_on_c, 0, 31, 37
2, 118341, Control_c, 0, 64, 104
2, 118357, Control_c, 0, 64, 24
2, 118373, Control_c, 0, 64, 0
2, 118449, Control_c, 0, 64, 88
2, 118469, Control_c, 0, 64, 127
2, 118481, Note_on_c, 0, 31, 0
2, 118481, Note_on_c, 0, 70, 0
2, 118489, Note_on_c, 0, 43, 0
2, 118493, Note_on_c, 0, 75, 0
2, 118533, Note_on_c, 0, 82, 0
2, 118781, Note_on_c, 0, 84, 75
2, 118789, Note_on_c, 0, 75, 55
2, 118789, Note_on_c, 0, 72, 58
2, 118821, Note_on_c, 0, 44, 32
2, 118821, Note_on_c, 0, 32, 39
2, 118853, Control_c, 0, 64, 56
2, 118869, Control_c, 0, 64, 0
2, 118933, Note_on_c, 0, 84, 0
2, 118945, Control_c, 0, 64, 72
2, 118961, Control_c, 0, 64, 127
2, 118985, Note_on_c, 0, 44, 0
2, 118985, Note_on_c, 0, 32, 0
2, 118989, Note_on_c, 0, 72, 0
2, 118989, Note_on_c, 0, 75, 0
2, 119265, Note_on_c, 0, 77, 73
2, 119281, Note_on_c, 0, 65, 36
2, 119285, Note_on_c, 0, 74, 57
2, 119301, Note_on_c, 0, 34, 37
2, 119305, Note_on_c, 0, 46, 33
2, 119397, Control_c, 0, 64, 88
2, 119409, Control_c, 0, 64, 24
2, 119425, Control_c, 0, 64, 0
2, 119581, Control_c, 0, 64, 24
2, 119597, Control_c, 0, 64, 72
2, 119613, Control_c, 0, 64, 127
2, 119733, Note_on_c, 0, 65, 0
2, 119741, Note_on_c, 0, 77, 0
2, 119789, Note_on_c, 0, 74, 0
2, 119801, Note_on_c, 0, 34, 0
2, 119813, Note_on_c, 0, 46, 0
2, 120093, Note_on_c, 0, 79, 75
2, 120105, Note_on_c, 0, 67, 57
2, 120113, Note_on_c, 0, 74, 61
2, 120121, Note_on_c, 0, 47, 51
2, 120121, Note_on_c, 0, 35, 49
2, 120125, Control_c, 0, 64, 56
2, 120141, Control_c, 0, 64, 0
2, 120201, Control_c, 0, 64, 24
2, 120217, Control_c, 0, 64, 88
2, 120233, Control_c, 0, 64, 127
2, 120245, Note_on_c, 0, 35, 0
2, 120261, Note_on_c, 0, 47, 0
2, 120293, Note_on_c, 0, 74, 0
2, 120297, Note_on_c, 0, 79, 0
2, 120313, Note_on_c, 0, 67, 0
2, 120537, Note_on_c, 0, 48, 45
2, 120537, Note_on_c, 0, 72, 64
2, 120537, Note_on_c, 0, 75, 72
2, 120541, Note_on_c, 0, 67, 42
2, 120557, Control_c, 0, 64, 72
2, 120565, Note_on_c, 0, 36, 42
2, 120573, Control_c, 0, 64, 0
2, 120649, Control_c, 0, 64, 24
2, 120665, Control_c, 0, 64, 88
2, 120669, Note_on_c, 0, 72, 0
2, 120681, Note_on_c, 0, 36, 0
2, 120681, Control_c, 0, 64, 127
2, 120685, Note_on_c, 0, 48, 0
2, 120689, Note_on_c, 0, 67, 0
2, 120701, Note_on_c, 0, 75, 0
2, 120965, Note_on_c, 0, 63, 78
2, 120985, Note_on_c, 0, 69, 65
2, 121001, Note_on_c, 0, 53, 48
2, 121005, Control_c, 0, 64, 40
2, 121013, Note_on_c, 0, 41, 40
2, 121021, Control_c, 0, 64, 0
2, 121101, Control_c, 0, 64, 72
2, 121117, Control_c, 0, 64, 127
2, 121177, Note_on_c, 0, 69, 0
2, 121181, Note_on_c, 0, 60, 82
2, 121209, Note_on_c, 0, 63, 0
2, 121293, Note_on_c, 0, 60, 0
2, 121349, Note_on_c, 0, 53, 0
2, 121405, Note_on_c, 0, 41, 0
2, 121445, Note_on_c, 0, 58, 71
2, 121449, Note_on_c, 0, 53, 11
2, 121473, Note_on_c, 0, 46, 43
2, 121481, Note_on_c, 0, 62, 60
2, 121489, Note_on_c, 0, 70, 50
2, 121517, Control_c, 0, 64, 104
2, 121533, Control_c, 0, 64, 24
2, 121549, Control_c, 0, 64, 0
2, 121657, Control_c, 0, 64, 56
2, 121661, Note_on_c, 0, 53, 0
2, 121673, Note_on_c, 0, 62, 0
2, 121673, Control_c, 0, 64, 127
2, 121677, Note_on_c, 0, 58, 0
2, 121689, Note_on_c, 0, 46, 0
2, 121713, Note_on_c, 0, 70, 0
2, 121989, Note_on_c, 0, 82, 73
2, 122005, Note_on_c, 0, 70, 44
2, 122009, Note_on_c, 0, 75, 58
2, 122025, Note_on_c, 0, 43, 51
2, 122033, Note_on_c, 0, 31, 38
2, 122045, Control_c, 0, 64, 56
2, 122061, Control_c, 0, 64, 0
2, 122137, Control_c, 0, 64, 56
2, 122153, Control_c, 0, 64, 127
2, 122177, Note_on_c, 0, 75, 0
2, 122181, Note_on_c, 0, 70, 0
2, 122193, Note_on_c, 0, 31, 0
2, 122205, Note_on_c, 0, 43, 0
2, 122229, Note_on_c, 0, 82, 0
2, 122429, Note_on_c, 0, 84, 77
2, 122441, Note_on_c, 0, 75, 54
2, 122445, Note_on_c, 0, 72, 55
2, 122449, Note_on_c, 0, 44, 39
2, 122449, Control_c, 0, 64, 104
2, 122457, Note_on_c, 0, 32, 45
2, 122461, Control_c, 0, 64, 40
2, 122477, Control_c, 0, 64, 0
2, 122541, Note_on_c, 0, 84, 0
2, 122541, Control_c, 0, 64, 40
2, 122553, Control_c, 0, 64, 104
2, 122569, Control_c, 0, 64, 127
2, 122585, Note_on_c, 0, 32, 0
2, 122593, Note_on_c, 0, 75, 0
2, 122601, Note_on_c, 0, 44, 0
2, 122605, Note_on_c, 0, 72, 0
2, 122905, Note_on_c, 0, 77, 74
2, 122917, Note_on_c, 0, 65, 51
2, 122921, Note_on_c, 0, 74, 59
2, 122921, Note_on_c, 0, 46, 46
2, 122925, Note_on_c, 0, 34, 39
2, 123037, Control_c, 0, 64, 56
2, 123053, Control_c, 0, 64, 0
2, 123205, Control_c, 0, 64, 40
2, 123221, Control_c, 0, 64, 104
2, 123237, Control_c, 0, 64, 127
2, 123401, Note_on_c, 0, 65, 0
2, 123421, Note_on_c, 0, 77, 0
2, 123445, Note_on_c, 0, 34, 0
2, 123461, Note_on_c, 0, 46, 0
2, 123477, Note_on_c, 0, 74, 0
2, 123681, Note_on_c, 0, 79, 79
2, 123701, Note_on_c, 0, 67, 58
2, 123705, Note_on_c, 0, 74, 63
2, 123729, Note_on_c, 0, 47, 42
2, 123733, Note_on_c, 0, 35, 43
2, 123749, Control_c, 0, 64, 56
2, 123765, Control_c, 0, 64, 0
2, 123825, Control_c, 0, 64, 56
2, 123841, Control_c, 0, 64, 127
2, 123873, Note_on_c, 0, 35, 0
2, 123889, Note_on_c, 0, 74, 0
2, 123905, Note_on_c, 0, 47, 0
2, 123937, Note_on_c, 0, 67, 0
2, 123957, Note_on_c, 0, 79, 0
2, 124133, Note_on_c, 0, 67, 53
2, 124133, Note_on_c, 0, 48, 47
2, 124133, Note_on_c, 0, 72, 59
2, 124133, Note_on_c, 0, 75, 71
2, 124173, Note_on_c, 0, 36, 41
2, 124181, Control_c, 0, 64, 40
2, 124197, Control_c, 0, 64, 0
2, 124261, Note_on_c, 0, 72, 0
2, 124277, Control_c, 0, 64, 72
2, 124289, Control_c, 0, 64, 127
2, 124305, Note_on_c, 0, 75, 0
2, 124305, Note_on_c, 0, 36, 0
2, 124305, Note_on_c, 0, 48, 0
2, 124313, Note_on_c, 0, 67, 0
2, 124605, Note_on_c, 0, 63, 68
2, 124613, Note_on_c, 0, 69, 66
2, 124617, Control_c, 0, 64, 104
2, 124633, Note_on_c, 0, 50, 39
2, 124633, Control_c, 0, 64, 24
2, 124637, Note_on_c, 0, 38, 33
2, 124649, Control_c, 0, 64, 0
2, 124657, Note_on_c, 0, 62, 25
2, 124693, Note_on_c, 0, 62, 0
2, 124709, Note_on_c, 0, 63, 0
2, 124725, Control_c, 0, 64, 56
2, 124741, Control_c, 0, 64, 127
2, 124829, Note_on_c, 0, 60, 80
2, 124953, Note_on_c, 0, 60, 0
2, 124989, Note_on_c, 0, 69, 0
2, 125025, Note_on_c, 0, 50, 0
2, 125045, Note_on_c, 0, 38, 0
2, 125113, Note_on_c, 0, 58, 64
2, 125161, Note_on_c, 0, 43, 40
2, 125173, Note_on_c, 0, 67, 39
2, 125173, Note_on_c, 0, 50, 38
2, 125185, Note_on_c, 0, 62, 19
2, 125205, Control_c, 0, 64, 56
2, 125221, Control_c, 0, 64, 0
2, 125337, Note_on_c, 0, 62, 0
2, 125341, Note_on_c, 0, 50, 0
2, 125345, Control_c, 0, 64, 56
2, 125353, Note_on_c, 0, 58, 0
2, 125361, Note_on_c, 0, 43, 0
2, 125361, Control_c, 0, 64, 104
2, 125377, Note_on_c, 0, 67, 0
2, 125377, Control_c, 0, 64, 127
2, 125681, Note_on_c, 0, 82, 74
2, 125689, Note_on_c, 0, 70, 50
2, 125697, Note_on_c, 0, 75, 54
2, 125717, Control_c, 0, 64, 88
2, 125721, Note_on_c, 0, 43, 44
2, 125733, Note_on_c, 0, 31, 41
2, 125733, Control_c, 0, 64, 0
2, 125825, Control_c, 0, 64, 56
2, 125841, Control_c, 0, 64, 127
2, 125857, Note_on_c, 0, 70, 0
2, 125865, Note_on_c, 0, 75, 0
2, 125877, Note_on_c, 0, 31, 0
2, 125877, Note_on_c, 0, 43, 0
2, 125913, Note_on_c, 0, 82, 0
2, 126129, Note_on_c, 0, 84, 78
2, 126137, Note_on_c, 0, 75, 58
2, 126145, Note_on_c, 0, 72, 63
2, 126161, Note_on_c, 0, 32, 43
2, 126169, Note_on_c, 0, 44, 34
2, 126181, Control_c, 0, 64, 88
2, 126197, Control_c, 0, 64, 24
2, 126213, Control_c, 0, 64, 0
2, 126257, Control_c, 0, 64, 72
2, 126265, Note_on_c, 0, 84, 0
2, 126273, Control_c, 0, 64, 127
2, 126321, Note_on_c, 0, 75, 0
2, 126333, Note_on_c, 0, 72, 0
2, 126369, Note_on_c, 0, 32, 0
2, 126385, Note_on_c, 0, 44, 0
2, 126665, Note_on_c, 0, 77, 68
2, 126673, Note_on_c, 0, 65, 49
2, 126685, Note_on_c, 0, 74, 59
2, 126697, Note_on_c, 0, 46, 35
2, 126697, Note_on_c, 0, 34, 32
2, 126833, Control_c, 0, 64, 88
2, 126849, Control_c, 0, 64, 24
2, 126861, Control_c, 0, 64, 0
2, 126969, Control_c, 0, 64, 72
2, 126985, Control_c, 0, 64, 127
2, 127165, Note_on_c, 0, 65, 0
2, 127181, Note_on_c, 0, 77, 0
2, 127221, Note_on_c, 0, 74, 0
2, 127269, Note_on_c, 0, 34, 0
2, 127281, Note_on_c, 0, 46, 0
2, 127521, Note_on_c, 0, 79, 64
2, 127529, Control_c, 0, 64, 104
2, 127537, Note_on_c, 0, 67, 44
2, 127541, Note_on_c, 0, 74, 58
2, 127545, Control_c, 0, 64, 40
2, 127549, Note_on_c, 0, 47, 45
2, 127549, Note_on_c, 0, 35, 46
2, 127561, Control_c, 0, 64, 0
2, 127637, Control_c, 0, 64, 56
2, 127653, Control_c, 0, 64, 127
2, 127681, Note_on_c, 0, 35, 0
2, 127709, Note_on_c, 0, 74, 0
2, 127709, Note_on_c, 0, 47, 0
2, 127729, Note_on_c, 0, 79, 0
2, 127769, Note_on_c, 0, 67, 0
2, 127961, Note_on_c, 0, 75, 65
2, 127985, Note_on_c, 0, 72, 55
2, 127985, Note_on_c, 0, 67, 42
2, 127989, Note_on_c, 0, 48, 49
2, 127993, Control_c, 0, 64, 72
2, 128001, Note_on_c, 0, 36, 42
2, 128009, Control_c, 0, 64, 0
2, 128085, Control_c, 0, 64, 56
2, 128101, Control_c, 0, 64, 127
2, 128105, Note_on_c, 0, 72, 0
2, 128109, Note_on_c, 0, 75, 0
2, 128113, Note_on_c, 0, 36, 0
2, 128133, Note_on_c, 0, 67, 0
2, 128133, Note_on_c, 0, 48, 0
2, 128397, Note_on_c, 0, 63, 76
2, 128413, Note_on_c, 0, 69, 72
2, 128429, Note_on_c, 0, 53, 51
2, 128437, Note_on_c, 0, 41, 39
2, 128441, Control_c, 0, 64, 40
2, 128457, Control_c, 0, 64, 0
2, 128533, Control_c, 0, 64, 40
2, 128549, Control_c, 0, 64, 104
2, 128569, Control_c, 0, 64, 127
2, 128613, Note_on_c, 0, 69, 0
2, 128617, Note_on_c, 0, 60, 79
2, 128645, Note_on_c, 0, 63, 0
2, 128717, Note_on_c, 0, 60, 0
2, 128833, Note_on_c, 0, 41, 0
2, 128897, Note_on_c, 0, 58, 69
2, 128917, Note_on_c, 0, 46, 44
2, 128925, Note_on_c, 0, 62, 59
2, 128929, Note_on_c, 0, 70, 44
2, 128953, Control_c, 0, 64, 88
2, 128969, Control_c, 0, 64, 0
2, 129093, Control_c, 0, 64, 88
2, 129109, Control_c, 0, 64, 127
2, 129113, Note_on_c, 0, 62, 0
2, 129113, Note_on_c, 0, 53, 0
2, 129117, Note_on_c, 0, 58, 0
2, 129133, Note_on_c, 0, 46, 0
2, 129157, Note_on_c, 0, 70, 0
2, 129393, Note_on_c, 0, 82, 74
2, 129397, Note_on_c, 0, 70, 48
2, 129405, Note_on_c, 0, 75, 55
2, 129417, Control_c, 0, 64, 104
2, 129433, Control_c, 0, 64, 40
2, 129441, Note_on_c, 0, 43, 44
2, 129445, Note_on_c, 0, 31, 39
2, 129449, Control_c, 0, 64, 0
2, 129513, Control_c, 0, 64, 56
2, 129525, Control_c, 0, 64, 127
2, 129573, Note_on_c, 0, 70, 0
2, 129581, Note_on_c, 0, 75, 0
2, 129585, Note_on_c, 0, 31, 0
2, 129585, Note_on_c, 0, 43, 0
2, 129625, Note_on_c, 0, 82, 0
2, 129817, Note_on_c, 0, 84, 80
2, 129829, Note_on_c, 0, 75, 61
2, 129833, Note_on_c, 0, 72, 59
2, 129837, Control_c, 0, 64, 104
2, 129849, Note_on_c, 0, 44, 36
2, 129853, Note_on_c, 0, 32, 42
2, 129853, Control_c, 0, 64, 24
2, 129869, Control_c, 0, 64, 0
2, 129929, Control_c, 0, 64, 40
2, 129945, Control_c, 0, 64, 127
2, 129953, Note_on_c, 0, 84, 0
2, 129997, Note_on_c, 0, 32, 0
2, 130013, Note_on_c, 0, 75, 0
2, 130013, Note_on_c, 0, 44, 0
2, 130017, Note_on_c, 0, 72, 0
2, 130313, Note_on_c, 0, 77, 76
2, 130337, Note_on_c, 0, 65, 44
2, 130341, Note_on_c, 0, 74, 50
2, 130345, Note_on_c, 0, 34, 34
2, 130353, Note_on_c, 0, 46, 30
2, 130505, Control_c, 0, 64, 88
2, 130517, Control_c, 0, 64, 0
2, 130657, Control_c, 0, 64, 72
2, 130673, Control_c, 0, 64, 127
2, 130777, Note_on_c, 0, 65, 0
2, 130777, Note_on_c, 0, 77, 0
2, 130849, Note_on_c, 0, 74, 0
2, 130893, Note_on_c, 0, 34, 0
2, 130921, Note_on_c, 0, 46, 0
2, 131129, Note_on_c, 0, 79, 70
2, 131137, Note_on_c, 0, 67, 54
2, 131149, Note_on_c, 0, 74, 59
2, 131165, Note_on_c, 0, 47, 41
2, 131169, Note_on_c, 0, 35, 44
2, 131169, Control_c, 0, 64, 88
2, 131185, Control_c, 0, 64, 0
2, 131277, Control_c, 0, 64, 56
2, 131293, Control_c, 0, 64, 127
2, 131329, Note_on_c, 0, 35, 0
2, 131333, Note_on_c, 0, 74, 0
2, 131365, Note_on_c, 0, 47, 0
2, 131385, Note_on_c, 0, 67, 0
2, 131397, Note_on_c, 0, 79, 0
2, 131561, Note_on_c, 0, 75, 67
2, 131565, Note_on_c, 0, 67, 45
2, 131565, Note_on_c, 0, 48, 51
2, 131565, Note_on_c, 0, 72, 54
2, 131605, Control_c, 0, 64, 88
2, 131609, Note_on_c, 0, 36, 39
2, 131617, Control_c, 0, 64, 0
2, 131673, Note_on_c, 0, 72, 0
2, 131697, Control_c, 0, 64, 40
2, 131713, Note_on_c, 0, 67, 0
2, 131713, Control_c, 0, 64, 88
2, 131717, Note_on_c, 0, 75, 0
2, 131729, Note_on_c, 0, 48, 0
2, 131729, Control_c, 0, 64, 127
2, 131737, Note_on_c, 0, 36, 0
2, 132017, Note_on_c, 0, 63, 74
2, 132029, Note_on_c, 0, 66, 56
2, 132029, Note_on_c, 0, 69, 71
2, 132041, Note_on_c, 0, 50, 55
2, 132053, Control_c, 0, 64, 56
2, 132061, Note_on_c, 0, 38, 37
2, 132069, Control_c, 0, 64, 0
2, 132145, Control_c, 0, 64, 24
2, 132161, Control_c, 0, 64, 104
2, 132177, Control_c, 0, 64, 127
2, 132217, Note_on_c, 0, 66, 0
2, 132249, Note_on_c, 0, 63, 0
2, 132261, Note_on_c, 0, 60, 77
2, 132341, Note_on_c, 0, 69, 0
2, 132373, Note_on_c, 0, 60, 0
2, 132385, Note_on_c, 0, 38, 0
2, 132573, Note_on_c, 0, 58, 66
2, 132613, Note_on_c, 0, 43, 40
2, 132613, Note_on_c, 0, 67, 47
2, 132621, Note_on_c, 0, 62, 40
2, 132657, Control_c, 0, 64, 104
2, 132673, Control_c, 0, 64, 56
2, 132689, Control_c, 0, 64, 0
2, 132873, Control_c, 0, 64, 40
2, 132889, Control_c, 0, 64, 104
2, 132905, Control_c, 0, 64, 127
2, 132913, Note_on_c, 0, 62, 0
2, 132917, Note_on_c, 0, 67, 0
2, 132933, Note_on_c, 0, 50, 0
2, 132945, Note_on_c, 0, 43, 0
2, 132945, Note_on_c, 0, 58, 0
2, 133229, Note_on_c, 0, 67, 63
2, 133241, Note_on_c, 0, 55, 53
2, 133261, Note_on_c, 0, 46, 37
2, 133293, Control_c, 0, 64, 56
2, 133309, Control_c, 0, 64, 0
2, 133385, Control_c, 0, 64, 24
2, 133401, Control_c, 0, 64, 88
2, 133417, Control_c, 0, 64, 127
2, 133425, Note_on_c, 0, 55, 0
2, 133437, Note_on_c, 0, 67, 0
2, 133541, Note_on_c, 0, 46, 0
2, 133689, Note_on_c, 0, 66, 63
2, 133701, Note_on_c, 0, 54, 48
2, 133713, Note_on_c, 0, 45, 52
2, 133725, Note_on_c, 0, 39, 37
2, 133725, Control_c, 0, 64, 104
2, 133741, Control_c, 0, 64, 24
2, 133757, Control_c, 0, 64, 0
2, 133817, Control_c, 0, 64, 56
2, 133829, Note_on_c, 0, 54, 0
2, 133833, Control_c, 0, 64, 127
2, 133857, Note_on_c, 0, 66, 0
2, 134097, Note_on_c, 0, 72, 73
2, 134113, Note_on_c, 0, 60, 60
2, 134117, Note_on_c, 0, 51, 52
2, 134129, Note_on_c, 0, 45, 0
2, 134185, Note_on_c, 0, 72, 0
2, 134209, Note_on_c, 0, 60, 0
2, 134509, Note_on_c, 0, 48, 54
2, 134509, Note_on_c, 0, 69, 74
2, 134509, Note_on_c, 0, 57, 56
2, 134525, Note_on_c, 0, 51, 0
2, 134593, Note_on_c, 0, 69, 0
2, 134593, Note_on_c, 0, 57, 0
2, 134721, Note_on_c, 0, 48, 0
2, 134861, Note_on_c, 0, 39, 0
2, 134901, Note_on_c, 0, 68, 67
2, 134901, Control_c, 0, 64, 72
2, 134905, Note_on_c, 0, 56, 49
2, 134909, Note_on_c, 0, 47, 49
2, 134921, Control_c, 0, 64, 24
2, 134933, Control_c, 0, 64, 0
2, 134997, Control_c, 0, 64, 24
2, 135013, Control_c, 0, 64, 88
2, 135029, Control_c, 0, 64, 127
2, 135049, Note_on_c, 0, 56, 0
2, 135065, Note_on_c, 0, 68, 0
2, 135113, Note_on_c, 0, 47, 0
2, 135313, Note_on_c, 0, 67, 63
2, 135333, Note_on_c, 0, 55, 47
2, 135337, Note_on_c, 0, 46, 44
2, 135337, Note_on_c, 0, 39, 32
2, 135401, Control_c, 0, 64, 72
2, 135413, Control_c, 0, 64, 0
2, 135509, Control_c, 0, 64, 24
2, 135525, Control_c, 0, 64, 88
2, 135537, Control_c, 0, 64, 127
2, 135601, Note_on_c, 0, 67, 0
2, 135705, Note_on_c, 0, 46, 0
2, 135713, Note_on_c, 0, 63, 79
2, 135733, Note_on_c, 0, 51, 60
2, 135881, Note_on_c, 0, 63, 0
2, 135913, Note_on_c, 0, 60, 75
2, 135941, Note_on_c, 0, 48, 69
2, 135945, Note_on_c, 0, 51, 0
2, 136097, Note_on_c, 0, 48, 0
2, 136121, Note_on_c, 0, 60, 0
2, 136121, Note_on_c, 0, 58, 76
2, 136129, Note_on_c, 0, 55, 0
2, 136141, Note_on_c, 0, 46, 54
2, 136189, Control_c, 0, 64, 88
2, 136205, Control_c, 0, 64, 0
2, 136329, Control_c, 0, 64, 72
2, 136345, Control_c, 0, 64, 127
2, 136353, Note_on_c, 0, 46, 0
2, 136357, Note_on_c, 0, 58, 0
2, 136621, Note_on_c, 0, 70, 67
2, 136641, Note_on_c, 0, 58, 39
2, 136641, Note_on_c, 0, 43, 56
2, 136649, Note_on_c, 0, 39, 0
2, 136653, Control_c, 0, 64, 88
2, 136669, Control_c, 0, 64, 24
2, 136685, Control_c, 0, 64, 0
2, 136761, Control_c, 0, 64, 56
2, 136777, Control_c, 0, 64, 127
2, 136829, Note_on_c, 0, 58, 0
2, 136837, Note_on_c, 0, 43, 0
2, 136841, Note_on_c, 0, 70, 0
2, 137037, Note_on_c, 0, 69, 73
2, 137045, Note_on_c, 0, 57, 52
2, 137053, Note_on_c, 0, 42, 42
2, 137073, Note_on_c, 0, 39, 34
2, 137089, Control_c, 0, 64, 72
2, 137101, Control_c, 0, 64, 0
2, 137185, Note_on_c, 0, 57, 0
2, 137197, Control_c, 0, 64, 88
2, 137213, Control_c, 0, 64, 127
2, 137225, Note_on_c, 0, 69, 0
2, 137441, Note_on_c, 0, 75, 81
2, 137457, Note_on_c, 0, 63, 58
2, 137469, Note_on_c, 0, 48, 58
2, 137525, Note_on_c, 0, 42, 0
2, 137601, Note_on_c, 0, 75, 0
2, 137629, Note_on_c, 0, 63, 0
2, 137793, Note_on_c, 0, 48, 0
2, 137829, Note_on_c, 0, 72, 82
2, 137849, Note_on_c, 0, 60, 65
2, 137869, Note_on_c, 0, 45, 60
2, 137973, Note_on_c, 0, 72, 0
2, 137997, Note_on_c, 0, 60, 0
2, 138205, Note_on_c, 0, 45, 0
2, 138213, Note_on_c, 0, 71, 76
2, 138225, Note_on_c, 0, 59, 59
2, 138237, Note_on_c, 0, 44, 50
2, 138281, Control_c, 0, 64, 88
2, 138293, Control_c, 0, 64, 24
2, 138309, Control_c, 0, 64, 0
2, 138357, Control_c, 0, 64, 24
2, 138373, Control_c, 0, 64, 88
2, 138381, Note_on_c, 0, 71, 0
2, 138389, Note_on_c, 0, 59, 0
2, 138389, Control_c, 0, 64, 127
2, 138449, Note_on_c, 0, 44, 0
2, 138473, Note_on_c, 0, 39, 0
2, 138613, Note_on_c, 0, 70, 70
2, 138629, Note_on_c, 0, 58, 47
2, 138641, Note_on_c, 0, 43, 60
2, 138665, Note_on_c, 0, 39, 31
2, 138681, Control_c, 0, 64, 104
2, 138701, Control_c, 0, 64, 40
2, 138717, Control_c, 0, 64, 0
2, 138809, Control_c, 0, 64, 56
2, 138821, Control_c, 0, 64, 127
2, 138857, Note_on_c, 0, 70, 0
2, 138913, Note_on_c, 0, 43, 0
2, 138965, Note_on_c, 0, 58, 0
2, 138993, Note_on_c, 0, 63, 80
2, 139005, Note_on_c, 0, 51, 61
2, 139157, Note_on_c, 0, 51, 0
2, 139169, Note_on_c, 0, 63, 0
2, 139189, Note_on_c, 0, 60, 78
2, 139213, Note_on_c, 0, 48, 68
2, 139369, Note_on_c, 0, 48, 0
2, 139413, Note_on_c, 0, 60, 0
2, 139413, Note_on_c, 0, 58, 73
2, 139425, Note_on_c, 0, 46, 56
2, 139473, Control_c, 0, 64, 88
2, 139489, Control_c, 0, 64, 0
2, 139581, Control_c, 0, 64, 40
2, 139597, Control_c, 0, 64, 127
2, 139645, Note_on_c, 0, 58, 0
2, 139657, Note_on_c, 0, 46, 0
2, 139705, Note_on_c, 0, 39, 0
2, 139837, Note_on_c, 0, 67, 82
2, 139849, Note_on_c, 0, 55, 66
2, 139857, Note_on_c, 0, 46, 58
2, 139877, Control_c, 0, 64, 72
2, 139893, Control_c, 0, 64, 0
2, 139953, Control_c, 0, 64, 24
2, 139969, Control_c, 0, 64, 88
2, 139985, Control_c, 0, 64, 127
2, 140005, Note_on_c, 0, 55, 0
2, 140013, Note_on_c, 0, 67, 0
2, 140097, Note_on_c, 0, 46, 0
2, 140237, Note_on_c, 0, 66, 85
2, 140245, Note_on_c, 0, 54, 71
2, 140253, Note_on_c, 0, 45, 61
2, 140269, Note_on_c, 0, 39, 37
2, 140281, Control_c, 0, 64, 56
2, 140293, Control_c, 0, 64, 0
2, 140341, Control_c, 0, 64, 24
2, 140357, Control_c, 0, 64, 88
2, 140369, Note_on_c, 0, 54, 0
2, 140373, Control_c, 0, 64, 127
2, 140405, Note_on_c, 0, 66, 0
2, 140637, Note_on_c, 0, 72, 87
2, 140641, Note_on_c, 0, 60, 74
2, 140649, Note_on_c, 0, 45, 0
2, 140649, Note_on_c, 0, 51, 56
2, 140725, Note_on_c, 0, 60, 0
2, 140725, Note_on_c, 0, 72, 0
2, 140977, Note_on_c, 0, 51, 0
2, 141009, Note_on_c, 0, 69, 86
2, 141017, Note_on_c, 0, 57, 67
2, 141025, Note_on_c, 0, 48, 65
2, 141085, Note_on_c, 0, 57, 0
2, 141101, Note_on_c, 0, 69, 0
2, 141257, Note_on_c, 0, 48, 0
2, 141401, Note_on_c, 0, 68, 81
2, 141405, Note_on_c, 0, 56, 76
2, 141409, Note_on_c, 0, 47, 64
2, 141481, Note_on_c, 0, 56, 0
2, 141493, Note_on_c, 0, 39, 0
2, 141505, Note_on_c, 0, 68, 0
2, 141521, Note_on_c, 0, 47, 0
2, 141777, Note_on_c, 0, 67, 85
2, 141781, Note_on_c, 0, 55, 81
2, 141781, Control_c, 0, 64, 104
2, 141785, Note_on_c, 0, 46, 73
2, 141789, Note_on_c, 0, 39, 53
2, 141797, Control_c, 0, 64, 24
2, 141813, Control_c, 0, 64, 0
2, 141905, Control_c, 0, 64, 40
2, 141921, Control_c, 0, 64, 127
2, 142089, Note_on_c, 0, 67, 0
2, 142105, Note_on_c, 0, 46, 0
2, 142161, Note_on_c, 0, 51, 67
2, 142161, Note_on_c, 0, 63, 78
2, 142297, Note_on_c, 0, 51, 0
2, 142313, Note_on_c, 0, 63, 0
2, 142329, Note_on_c, 0, 55, 0
2, 142345, Note_on_c, 0, 60, 87
2, 142373, Note_on_c, 0, 48, 67
2, 142517, Note_on_c, 0, 48, 0
2, 142533, Note_on_c, 0, 60, 0
2, 142553, Note_on_c, 0, 58, 83
2, 142561, Note_on_c, 0, 46, 64
2, 142573, Control_c, 0, 64, 56
2, 142585, Control_c, 0, 64, 0
2, 142665, Note_on_c, 0, 58, 0
2, 142665, Control_c, 0, 64, 56
2, 142681, Control_c, 0, 64, 127
2, 142693, Note_on_c, 0, 46, 0
2, 142929, Control_c, 0, 64, 88
2, 142933, Note_on_c, 0, 70, 89
2, 142945, Note_on_c, 0, 58, 77
2, 142945, Control_c, 0, 64, 0
2, 142949, Note_on_c, 0, 43, 65
2, 143021, Control_c, 0, 64, 40
2, 143025, Note_on_c, 0, 39, 0
2, 143037, Control_c, 0, 64, 127
2, 143053, Note_on_c, 0, 58, 0
2, 143073, Note_on_c, 0, 43, 0
2, 143081, Note_on_c, 0, 70, 0
2, 143317, Note_on_c, 0, 69, 94
2, 143325, Note_on_c, 0, 57, 78
2, 143329, Note_on_c, 0, 42, 61
2, 143357, Note_on_c, 0, 39, 46
2, 143361, Control_c, 0, 64, 24
2, 143377, Control_c, 0, 64, 0
2, 143421, Control_c, 0, 64, 40
2, 143433, Note_on_c, 0, 57, 0
2, 143437, Control_c, 0, 64, 127
2, 143481, Note_on_c, 0, 69, 0
2, 143701, Note_on_c, 0, 75, 96
2, 143701, Note_on_c, 0, 63, 84
2, 143721, Note_on_c, 0, 48, 70
2, 143817, Note_on_c, 0, 42, 0
2, 143821, Note_on_c, 0, 63, 0
2, 143825, Note_on_c, 0, 75, 0
2, 144049, Note_on_c, 0, 48, 0
2, 144085, Note_on_c, 0, 72, 96
2, 144089, Note_on_c, 0, 60, 82
2, 144113, Note_on_c, 0, 45, 64
2, 144177, Note_on_c, 0, 60, 0
2, 144185, Note_on_c, 0, 72, 0
2, 144401, Note_on_c, 0, 45, 0
2, 144441, Note_on_c, 0, 71, 92
2, 144449, Note_on_c, 0, 59, 72
2, 144449, Note_on_c, 0, 44, 59
2, 144529, Note_on_c, 0, 59, 0
2, 144541, Note_on_c, 0, 71, 0
2, 144549, Note_on_c, 0, 39, 0
2, 144601, Note_on_c, 0, 44, 0
2, 144829, Note_on_c, 0, 70, 87
2, 144841, Note_on_c, 0, 58, 77
2, 144849, Note_on_c, 0, 43, 68
2, 144849, Control_c, 0, 64, 104
2, 144865, Note_on_c, 0, 39, 55
2, 144865, Control_c, 0, 64, 0
2, 144973, Control_c, 0, 64, 88
2, 144985, Control_c, 0, 64, 127
2, 145033, Note_on_c, 0, 70, 0
2, 145165, Note_on_c, 0, 58, 0
2, 145177, Note_on_c, 0, 43, 0
2, 145201, Note_on_c, 0, 63, 89
2, 145205, Note_on_c, 0, 51, 64
2, 145321, Note_on_c, 0, 51, 0
2, 145349, Note_on_c, 0, 63, 0
2, 145377, Note_on_c, 0, 48, 78
2, 145381, Note_on_c, 0, 60, 93
2, 145521, Note_on_c, 0, 48, 0
2, 145561, Note_on_c, 0, 60, 0
2, 145577, Control_c, 0, 64, 24
2, 145581, Note_on_c, 0, 58, 87
2, 145589, Note_on_c, 0, 46, 77
2, 145593, Control_c, 0, 64, 0
2, 145653, Note_on_c, 0, 39, 0
2, 145665, Note_on_c, 0, 46, 0
2, 145669, Control_c, 0, 64, 104
2, 145673, Note_on_c, 0, 58, 0
2, 145685, Control_c, 0, 64, 127
2, 145809, Control_c, 0, 64, 104
2, 145821, Control_c, 0, 64, 56
2, 145837, Control_c, 0, 64, 0
2, 145929, Note_on_c, 0, 65, 88
2, 145929, Note_on_c, 0, 58, 67
2, 145937, Note_on_c, 0, 62, 73
2, 145941, Note_on_c, 0, 46, 84
2, 145941, Note_on_c, 0, 53, 69
2, 145945, Note_on_c, 0, 34, 77
2, 145969, Note_on_c, 0, 53, 0
2, 145985, Note_on_c, 0, 46, 0
2, 145993, Note_on_c, 0, 34, 0
2, 146005, Note_on_c, 0, 65, 0
2, 146029, Note_on_c, 0, 58, 0
2, 146033, Note_on_c, 0, 62, 0
2, 146101, Note_on_c, 0, 66, 85
2, 146105, Note_on_c, 0, 62, 72
2, 146105, Note_on_c, 0, 54, 83
2, 146105, Note_on_c, 0, 58, 65
2, 146113, Note_on_c, 0, 46, 86
2, 146113, Note_on_c, 0, 34, 81
2, 146165, Note_on_c, 0, 54, 0
2, 146169, Note_on_c, 0, 46, 0
2, 146169, Note_on_c, 0, 58, 0
2, 146173, Note_on_c, 0, 34, 0
2, 146177, Note_on_c, 0, 62, 0
2, 146225, Note_on_c, 0, 66, 0
2, 146309, Note_on_c, 0, 58, 75
2, 146313, Note_on_c, 0, 67, 93
2, 146313, Note_on_c, 0, 55, 89
2, 146313, Note_on_c, 0, 39, 77
2, 146317, Note_on_c, 0, 46, 80
2, 146321, Note_on_c, 0, 63, 72
2, 146369, Note_on_c, 0, 46, 0
2, 146369, Note_on_c, 0, 55, 0
2, 146369, Control_c, 0, 64, 56
2, 146381, Control_c, 0, 64, 127
2, 146385, Note_on_c, 0, 39, 0
2, 146393, Note_on_c, 0, 58, 0
2, 146409, Note_on_c, 0, 67, 0
2, 146417, Note_on_c, 0, 63, 0
2, 146661, Note_on_c, 0, 75, 87
2, 146669, Note_on_c, 0, 63, 81
2, 146685, Note_on_c, 0, 51, 69
2, 146725, Note_on_c, 0, 63, 0
2, 146745, Note_on_c, 0, 51, 0
2, 146745, Note_on_c, 0, 75, 0
2, 146817, Control_c, 0, 64, 72
2, 146829, Control_c, 0, 64, 40
2, 146833, Note_on_c, 0, 72, 97
2, 146841, Note_on_c, 0, 48, 82
2, 146845, Note_on_c, 0, 60, 82
2, 146845, Control_c, 0, 64, 0
2, 146881, Note_on_c, 0, 60, 0
2, 146901, Note_on_c, 0, 72, 0
2, 146909, Note_on_c, 0, 48, 0
2, 147025, Note_on_c, 0, 58, 87
2, 147025, Note_on_c, 0, 46, 78
2, 147025, Note_on_c, 0, 70, 86
2, 147033, Control_c, 0, 64, 40
2, 147049, Control_c, 0, 64, 104
2, 147065, Control_c, 0, 64, 127
2, 147073, Note_on_c, 0, 58, 0
2, 147081, Note_on_c, 0, 46, 0
2, 147101, Note_on_c, 0, 70, 0
2, 147281, Control_c, 0, 64, 104
2, 147293, Control_c, 0, 64, 40
2, 147313, Control_c, 0, 64, 0
2, 147357, Note_on_c, 0, 77, 93
2, 147365, Note_on_c, 0, 65, 74
2, 147369, Note_on_c, 0, 74, 78
2, 147369, Note_on_c, 0, 70, 65
2, 147385, Note_on_c, 0, 58, 78
2, 147389, Note_on_c, 0, 46, 79
2, 147421, Note_on_c, 0, 65, 0
2, 147441, Note_on_c, 0, 58, 0
2, 147441, Note_on_c, 0, 46, 0
2, 147445, Note_on_c, 0, 77, 0
2, 147453, Note_on_c, 0, 70, 0
2, 147477, Note_on_c, 0, 74, 0
2, 147537, Note_on_c, 0, 66, 84
2, 147537, Note_on_c, 0, 78, 91
2, 147537, Note_on_c, 0, 74, 77
2, 147537, Note_on_c, 0, 58, 80
2, 147537, Note_on_c, 0, 46, 81
2, 147537, Note_on_c, 0, 70, 73
2, 147593, Note_on_c, 0, 46, 0
2, 147597, Note_on_c, 0, 58, 0
2, 147597, Note_on_c, 0, 66, 0
2, 147601, Note_on_c, 0, 74, 0
2, 147609, Note_on_c, 0, 70, 0
2, 147645, Note_on_c, 0, 78, 0
2, 147729, Note_on_c, 0, 70, 85
2, 147737, Note_on_c, 0, 79, 99
2, 147737, Note_on_c, 0, 67, 90
2, 147741, Note_on_c, 0, 75, 77
2, 147745, Note_on_c, 0, 58, 79
2, 147745, Note_on_c, 0, 51, 80
2, 147789, Note_on_c, 0, 67, 0
2, 147797, Note_on_c, 0, 58, 0
2, 147797, Note_on_c, 0, 51, 0
2, 147805, Note_on_c, 0, 70, 0
2, 147809, Control_c, 0, 64, 104
2, 147825, Control_c, 0, 64, 127
2, 147833, Note_on_c, 0, 75, 0
2, 147837, Note_on_c, 0, 79, 0
2, 148077, Note_on_c, 0, 87, 88
2, 148085, Note_on_c, 0, 75, 90
2, 148093, Note_on_c, 0, 63, 64
2, 148141, Note_on_c, 0, 75, 0
2, 148145, Note_on_c, 0, 87, 0
2, 148169, Note_on_c, 0, 63, 0
2, 148245, Note_on_c, 0, 84, 94
2, 148249, Note_on_c, 0, 72, 88
2, 148249, Note_on_c, 0, 60, 67
2, 148281, Note_on_c, 0, 72, 0
2, 148297, Note_on_c, 0, 84, 0
2, 148317, Note_on_c, 0, 60, 0
2, 148365, Control_c, 0, 64, 72
2, 148381, Control_c, 0, 64, 0
2, 148421, Note_on_c, 0, 58, 62
2, 148429, Note_on_c, 0, 82, 93
2, 148433, Note_on_c, 0, 70, 93
2, 148445, Control_c, 0, 64, 56
2, 148457, Control_c, 0, 64, 127
2, 148477, Note_on_c, 0, 70, 0
2, 148481, Note_on_c, 0, 82, 0
2, 148481, Note_on_c, 0, 58, 0
2, 148753, Note_on_c, 0, 79, 93
2, 148765, Note_on_c, 0, 67, 82
2, 148769, Note_on_c, 0, 55, 67
2, 148793, Note_on_c, 0, 67, 0
2, 148809, Note_on_c, 0, 79, 0
2, 148817, Note_on_c, 0, 55, 0
2, 148921, Note_on_c, 0, 75, 93
2, 148925, Note_on_c, 0, 63, 90
2, 148937, Note_on_c, 0, 51, 67
2, 148961, Note_on_c, 0, 51, 0
2, 148977, Note_on_c, 0, 63, 0
2, 148977, Note_on_c, 0, 75, 0
2, 149077, Control_c, 0, 64, 104
2, 149093, Control_c, 0, 64, 40
2, 149109, Control_c, 0, 64, 0
2, 149117, Note_on_c, 0, 72, 90
2, 149125, Note_on_c, 0, 60, 89
2, 149125, Note_on_c, 0, 48, 79
2, 149157, Control_c, 0, 64, 40
2, 149165, Note_on_c, 0, 60, 0
2, 149165, Note_on_c, 0, 72, 0
2, 149173, Control_c, 0, 64, 104
2, 149189, Note_on_c, 0, 48, 0
2, 149189, Control_c, 0, 64, 127
2, 149461, Note_on_c, 0, 70, 88
2, 149461, Note_on_c, 0, 58, 71
2, 149493, Note_on_c, 0, 46, 70
2, 149521, Note_on_c, 0, 58, 0
2, 149529, Note_on_c, 0, 70, 0
2, 149545, Note_on_c, 0, 46, 0
2, 149633, Note_on_c, 0, 67, 85
2, 149633, Note_on_c, 0, 55, 70
2, 149633, Note_on_c, 0, 43, 66
2, 149657, Note_on_c, 0, 67, 0
2, 149665, Note_on_c, 0, 43, 0
2, 149665, Note_on_c, 0, 55, 0
2, 149805, Control_c, 0, 64, 56
2, 149821, Note_on_c, 0, 63, 85
2, 149825, Note_on_c, 0, 51, 91
2, 149825, Control_c, 0, 64, 0
2, 149829, Note_on_c, 0, 39, 53
2, 149885, Control_c, 0, 64, 56
2, 149901, Note_on_c, 0, 63, 0
2, 149901, Control_c, 0, 64, 104
2, 149905, Note_on_c, 0, 51, 0
2, 149909, Note_on_c, 0, 39, 0
2, 149917, Control_c, 0, 64, 127
2, 150177, Control_c, 0, 64, 104
2, 150193, Control_c, 0, 64, 40
2, 150197, Note_on_c, 0, 62, 97
2, 150205, Note_on_c, 0, 50, 92
2, 150209, Note_on_c, 0, 58, 71
2, 150209, Control_c, 0, 64, 0
2, 150213, Note_on_c, 0, 56, 62
2, 150229, Note_on_c, 0, 46, 67
2, 150229, Note_on_c, 0, 34, 70
2, 150297, Note_on_c, 0, 50, 0
2, 150301, Control_c, 0, 64, 72
2, 150317, Control_c, 0, 64, 127
2, 150325, Note_on_c, 0, 46, 0
2, 150329, Note_on_c, 0, 34, 0
2, 150333, Note_on_c, 0, 56, 0
2, 150357, Note_on_c, 0, 58, 0
2, 150357, Note_on_c, 0, 62, 0
2, 150621, Note_on_c, 0, 68, 91
2, 150633, Note_on_c, 0, 56, 70
2, 150637, Note_on_c, 0, 62, 75
2, 150645, Note_on_c, 0, 58, 58
2, 150657, Note_on_c, 0, 46, 60
2, 150657, Note_on_c, 0, 39, 54
2, 150721, Control_c, 0, 64, 72
2, 150737, Control_c, 0, 64, 0
2, 151109, Control_c, 0, 64, 40
2, 151125, Control_c, 0, 64, 72
2, 151141, Control_c, 0, 64, 104
2, 151153, Control_c, 0, 64, 127
2, 151293, Control_c, 0, 64, 104
2, 151309, Control_c, 0, 64, 72
2, 151325, Control_c, 0, 64, 40
2, 151369, Control_c, 0, 64, 88
2, 151389, Control_c, 0, 64, 104
2, 151401, Control_c, 0, 64, 127
2, 151893, Note_on_c, 0, 62, 0
2, 151953, Note_on_c, 0, 56, 0
2, 151969, Note_on_c, 0, 58, 0
2, 152009, Note_on_c, 0, 68, 0
2, 152185, Note_on_c, 0, 67, 58
2, 152201, Note_on_c, 0, 55, 41
2, 152209, Note_on_c, 0, 58, 30
2, 152217, Note_on_c, 0, 63, 33
2, 152317, Control_c, 0, 64, 104
2, 152333, Control_c, 0, 64, 72
2, 152345, Control_c, 0, 64, 24
2, 152361, Control_c, 0, 64, 0
2, 152625, Note_on_c, 0, 55, 0
2, 152625, Control_c, 0, 64, 40
2, 152641, Control_c, 0, 64, 72
2, 152657, Control_c, 0, 64, 127
2, 152673, Note_on_c, 0, 58, 0
2, 152705, Note_on_c, 0, 63, 0
2, 152709, Note_on_c, 0, 46, 0
2, 152737, Note_on_c, 0, 67, 0
2, 152737, Note_on_c, 0, 39, 0
2, 153197, Control_c, 0, 64, 104
2, 153213, Control_c, 0, 64, 24
2, 153229, Control_c, 0, 64, 0
2, 153337, Control_c, 0, 64, 24
2, 153353, Control_c, 0, 64, 72
2, 153369, Control_c, 0, 64, 127
2, 153449, Note_on_c, 0, 82, 62
2, 153469, Note_on_c, 0, 70, 40
2, 153473, Note_on_c, 0, 75, 56
2, 153485, Note_on_c, 0, 43, 31
2, 153501, Note_on_c, 0, 31, 30
2, 153569, Note_on_c, 0, 70, 0
2, 153577, Note_on_c, 0, 31, 0
2, 153585, Note_on_c, 0, 43, 0
2, 153589, Note_on_c, 0, 75, 0
2, 153605, Note_on_c, 0, 82, 0
2, 153893, Note_on_c, 0, 84, 75
2, 153905, Note_on_c, 0, 75, 52
2, 153905, Note_on_c, 0, 72, 52
2, 153913, Note_on_c, 0, 44, 33
2, 153921, Note_on_c, 0, 32, 37
2, 153925, Control_c, 0, 64, 72
2, 153941, Control_c, 0, 64, 0
2, 154005, Control_c, 0, 64, 40
2, 154009, Note_on_c, 0, 84, 0
2, 154021, Control_c, 0, 64, 104
2, 154029, Note_on_c, 0, 32, 0
2, 154037, Control_c, 0, 64, 127
2, 154045, Note_on_c, 0, 44, 0
2, 154053, Note_on_c, 0, 72, 0
2, 154053, Note_on_c, 0, 75, 0
2, 154381, Note_on_c, 0, 77, 68
2, 154385, Note_on_c, 0, 65, 42
2, 154393, Note_on_c, 0, 74, 58
2, 154393, Note_on_c, 0, 46, 37
2, 154397, Note_on_c, 0, 34, 39
2, 154529, Control_c, 0, 64, 88
2, 154545, Control_c, 0, 64, 24
2, 154561, Control_c, 0, 64, 0
2, 154657, Control_c, 0, 64, 72
2, 154669, Control_c, 0, 64, 127
2, 154829, Note_on_c, 0, 65, 0
2, 154861, Note_on_c, 0, 77, 0
2, 154889, Note_on_c, 0, 74, 0
2, 154913, Note_on_c, 0, 34, 0
2, 154961, Note_on_c, 0, 46, 0
2, 155189, Note_on_c, 0, 79, 69
2, 155193, Note_on_c, 0, 67, 58
2, 155197, Note_on_c, 0, 74, 60
2, 155213, Note_on_c, 0, 47, 51
2, 155233, Note_on_c, 0, 35, 42
2, 155245, Control_c, 0, 64, 88
2, 155257, Control_c, 0, 64, 0
2, 155337, Note_on_c, 0, 35, 0
2, 155337, Control_c, 0, 64, 24
2, 155353, Control_c, 0, 64, 88
2, 155357, Note_on_c, 0, 74, 0
2, 155361, Note_on_c, 0, 47, 0
2, 155369, Control_c, 0, 64, 127
2, 155401, Note_on_c, 0, 67, 0
2, 155409, Note_on_c, 0, 79, 0
2, 155633, Note_on_c, 0, 75, 69
2, 155653, Note_on_c, 0, 72, 61
2, 155657, Note_on_c, 0, 67, 47
2, 155661, Control_c, 0, 64, 104
2, 155665, Note_on_c, 0, 48, 54
2, 155677, Control_c, 0, 64, 40
2, 155681, Note_on_c, 0, 36, 37
2, 155693, Control_c, 0, 64, 0
2, 155745, Note_on_c, 0, 36, 0
2, 155753, Note_on_c, 0, 72, 0
2, 155753, Control_c, 0, 64, 56
2, 155769, Note_on_c, 0, 75, 0
2, 155769, Control_c, 0, 64, 127
2, 155777, Note_on_c, 0, 48, 0
2, 155781, Note_on_c, 0, 67, 0
2, 156061, Note_on_c, 0, 63, 73
2, 156085, Note_on_c, 0, 69, 68
2, 156089, Note_on_c, 0, 53, 47
2, 156093, Note_on_c, 0, 41, 45
2, 156093, Control_c, 0, 64, 72
2, 156109, Control_c, 0, 64, 0
2, 156205, Control_c, 0, 64, 72
2, 156221, Control_c, 0, 64, 127
2, 156261, Note_on_c, 0, 69, 0
2, 156265, Note_on_c, 0, 60, 75
2, 156281, Note_on_c, 0, 63, 0
2, 156357, Note_on_c, 0, 60, 0
2, 156381, Note_on_c, 0, 53, 0
2, 156389, Note_on_c, 0, 41, 0
2, 156517, Note_on_c, 0, 58, 67
2, 156545, Note_on_c, 0, 62, 63
2, 156553, Note_on_c, 0, 70, 54
2, 156557, Note_on_c, 0, 46, 43
2, 156565, Note_on_c, 0, 53, 36
2, 156589, Control_c, 0, 64, 72
2, 156605, Control_c, 0, 64, 0
2, 156693, Note_on_c, 0, 53, 0
2, 156701, Control_c, 0, 64, 88
2, 156705, Note_on_c, 0, 58, 0
2, 156705, Note_on_c, 0, 62, 0
2, 156717, Control_c, 0, 64, 127
2, 156729, Note_on_c, 0, 46, 0
2, 156753, Note_on_c, 0, 70, 0
2, 157081, Note_on_c, 0, 82, 77
2, 157089, Control_c, 0, 64, 104
2, 157093, Note_on_c, 0, 70, 51
2, 157097, Note_on_c, 0, 75, 60
2, 157101, Control_c, 0, 64, 24
2, 157109, Note_on_c, 0, 43, 40
2, 157117, Note_on_c, 0, 31, 39
2, 157117, Control_c, 0, 64, 0
2, 157225, Control_c, 0, 64, 72
2, 157241, Control_c, 0, 64, 127
2, 157269, Note_on_c, 0, 70, 0
2, 157285, Note_on_c, 0, 75, 0
2, 157305, Note_on_c, 0, 43, 0
2, 157313, Note_on_c, 0, 82, 0
2, 157325, Note_on_c, 0, 31, 0
2, 157533, Note_on_c, 0, 84, 79
2, 157549, Note_on_c, 0, 72, 55
2, 157553, Note_on_c, 0, 75, 61
2, 157553, Note_on_c, 0, 44, 36
2, 157569, Note_on_c, 0, 32, 38
2, 157597, Control_c, 0, 64, 56
2, 157613, Control_c, 0, 64, 0
2, 157677, Control_c, 0, 64, 56
2, 157689, Note_on_c, 0, 84, 0
2, 157689, Control_c, 0, 64, 127
2, 157749, Note_on_c, 0, 72, 0
2, 157749, Note_on_c, 0, 32, 0
2, 157753, Note_on_c, 0, 75, 0
2, 157757, Note_on_c, 0, 44, 0
2, 158045, Note_on_c, 0, 77, 70
2, 158057, Note_on_c, 0, 65, 42
2, 158061, Note_on_c, 0, 74, 55
2, 158081, Note_on_c, 0, 34, 34
2, 158085, Note_on_c, 0, 46, 28
2, 158217, Control_c, 0, 64, 56
2, 158233, Control_c, 0, 64, 0
2, 158341, Control_c, 0, 64, 24
2, 158357, Control_c, 0, 64, 88
2, 158373, Control_c, 0, 64, 127
2, 158545, Note_on_c, 0, 77, 0
2, 158549, Note_on_c, 0, 65, 0
2, 158605, Note_on_c, 0, 74, 0
2, 158617, Note_on_c, 0, 34, 0
2, 158617, Note_on_c, 0, 46, 0
2, 158865, Note_on_c, 0, 79, 70
2, 158877, Note_on_c, 0, 74, 54
2, 158877, Note_on_c, 0, 67, 56
2, 158901, Control_c, 0, 64, 104
2, 158905, Note_on_c, 0, 47, 46
2, 158905, Note_on_c, 0, 35, 44
2, 158917, Control_c, 0, 64, 40
2, 158929, Control_c, 0, 64, 0
2, 159009, Control_c, 0, 64, 72
2, 159021, Control_c, 0, 64, 127
2, 159033, Note_on_c, 0, 35, 0
2, 159061, Note_on_c, 0, 74, 0
2, 159065, Note_on_c, 0, 47, 0
2, 159077, Note_on_c, 0, 79, 0
2, 159097, Note_on_c, 0, 67, 0
2, 159297, Note_on_c, 0, 75, 72
2, 159317, Note_on_c, 0, 72, 68
2, 159317, Control_c, 0, 64, 104
2, 159321, Note_on_c, 0, 67, 47
2, 159329, Note_on_c, 0, 48, 42
2, 159333, Note_on_c, 0, 36, 44
2, 159333, Control_c, 0, 64, 40
2, 159349, Control_c, 0, 64, 0
2, 159409, Control_c, 0, 64, 56
2, 159417, Note_on_c, 0, 72, 0
2, 159425, Note_on_c, 0, 75, 0
2, 159425, Control_c, 0, 64, 104
2, 159441, Note_on_c, 0, 36, 0
2, 159441, Control_c, 0, 64, 127
2, 159449, Note_on_c, 0, 67, 0
2, 159453, Note_on_c, 0, 48, 0
2, 159737, Note_on_c, 0, 63, 78
2, 159753, Control_c, 0, 64, 104
2, 159757, Note_on_c, 0, 66, 55
2, 159765, Note_on_c, 0, 50, 41
2, 159765, Control_c, 0, 64, 40
2, 159769, Note_on_c, 0, 69, 57
2, 159773, Note_on_c, 0, 38, 39
2, 159781, Control_c, 0, 64, 0
2, 159857, Control_c, 0, 64, 56
2, 159873, Control_c, 0, 64, 127
2, 159937, Note_on_c, 0, 66, 0
2, 159957, Note_on_c, 0, 60, 73
2, 159961, Note_on_c, 0, 63, 0
2, 160025, Note_on_c, 0, 50, 0
2, 160045, Note_on_c, 0, 69, 0
2, 160053, Note_on_c, 0, 60, 0
2, 160125, Note_on_c, 0, 38, 0
2, 160221, Note_on_c, 0, 58, 65
2, 160269, Note_on_c, 0, 50, 40
2, 160269, Note_on_c, 0, 43, 37
2, 160285, Note_on_c, 0, 62, 32
2, 160285, Note_on_c, 0, 67, 47
2, 160309, Control_c, 0, 64, 72
2, 160325, Control_c, 0, 64, 0
2, 160449, Note_on_c, 0, 50, 0
2, 160449, Control_c, 0, 64, 24
2, 160453, Note_on_c, 0, 62, 0
2, 160465, Note_on_c, 0, 58, 0
2, 160465, Control_c, 0, 64, 88
2, 160481, Note_on_c, 0, 43, 0
2, 160481, Control_c, 0, 64, 127
2, 160493, Note_on_c, 0, 67, 0
2, 160765, Note_on_c, 0, 82, 76
2, 160773, Note_on_c, 0, 70, 57
2, 160785, Note_on_c, 0, 75, 55
2, 160801, Note_on_c, 0, 43, 49
2, 160805, Control_c, 0, 64, 40
2, 160809, Note_on_c, 0, 31, 41
2, 160821, Control_c, 0, 64, 0
2, 160881, Control_c, 0, 64, 40
2, 160897, Control_c, 0, 64, 104
2, 160913, Control_c, 0, 64, 127
2, 160929, Note_on_c, 0, 31, 0
2, 160933, Note_on_c, 0, 70, 0
2, 160941, Note_on_c, 0, 43, 0
2, 160941, Note_on_c, 0, 75, 0
2, 160993, Note_on_c, 0, 82, 0
2, 161225, Note_on_c, 0, 84, 75
2, 161229, Note_on_c, 0, 75, 56
2, 161237, Note_on_c, 0, 72, 62
2, 161253, Note_on_c, 0, 44, 38
2, 161253, Control_c, 0, 64, 56
2, 161257, Note_on_c, 0, 32, 39
2, 161269, Control_c, 0, 64, 0
2, 161329, Control_c, 0, 64, 56
2, 161345, Note_on_c, 0, 84, 0
2, 161345, Control_c, 0, 64, 127
2, 161385, Note_on_c, 0, 75, 0
2, 161393, Note_on_c, 0, 72, 0
2, 161401, Note_on_c, 0, 32, 0
2, 161413, Note_on_c, 0, 44, 0
2, 161689, Note_on_c, 0, 77, 71
2, 161701, Note_on_c, 0, 65, 48
2, 161709, Note_on_c, 0, 74, 58
2, 161713, Note_on_c, 0, 46, 45
2, 161717, Note_on_c, 0, 34, 44
2, 161825, Control_c, 0, 64, 104
2, 161841, Control_c, 0, 64, 56
2, 161861, Control_c, 0, 64, 0
2, 161981, Control_c, 0, 64, 56
2, 161997, Control_c, 0, 64, 127
2, 162173, Note_on_c, 0, 65, 0
2, 162205, Note_on_c, 0, 74, 0
2, 162241, Note_on_c, 0, 77, 0
2, 162265, Note_on_c, 0, 46, 0
2, 162297, Note_on_c, 0, 34, 0
2, 162505, Note_on_c, 0, 79, 69
2, 162505, Note_on_c, 0, 67, 60
2, 162521, Note_on_c, 0, 74, 57
2, 162521, Control_c, 0, 64, 72
2, 162529, Note_on_c, 0, 47, 45
2, 162537, Note_on_c, 0, 35, 44
2, 162537, Control_c, 0, 64, 0
2, 162633, Control_c, 0, 64, 72
2, 162649, Control_c, 0, 64, 127
2, 162681, Note_on_c, 0, 35, 0
2, 162701, Note_on_c, 0, 79, 0
2, 162721, Note_on_c, 0, 47, 0
2, 162721, Note_on_c, 0, 74, 0
2, 162749, Note_on_c, 0, 67, 0
2, 162937, Note_on_c, 0, 75, 67
2, 162961, Note_on_c, 0, 72, 56
2, 162969, Note_on_c, 0, 67, 37
2, 162977, Note_on_c, 0, 48, 54
2, 162985, Control_c, 0, 64, 88
2, 162993, Note_on_c, 0, 36, 41
2, 163005, Control_c, 0, 64, 0
2, 163081, Control_c, 0, 64, 40
2, 163097, Control_c, 0, 64, 104
2, 163101, Note_on_c, 0, 36, 0
2, 163105, Note_on_c, 0, 72, 0
2, 163113, Note_on_c, 0, 75, 0
2, 163113, Control_c, 0, 64, 127
2, 163125, Note_on_c, 0, 48, 0
2, 163141, Note_on_c, 0, 67, 0
2, 163377, Note_on_c, 0, 63, 76
2, 163397, Note_on_c, 0, 69, 70
2, 163409, Note_on_c, 0, 53, 48
2, 163409, Control_c, 0, 64, 88
2, 163413, Note_on_c, 0, 41, 43
2, 163425, Control_c, 0, 64, 24
2, 163437, Control_c, 0, 64, 0
2, 163517, Control_c, 0, 64, 88
2, 163529, Control_c, 0, 64, 127
2, 163581, Note_on_c, 0, 69, 0
2, 163581, Note_on_c, 0, 63, 0
2, 163581, Note_on_c, 0, 60, 82
2, 163693, Note_on_c, 0, 60, 0
2, 163729, Note_on_c, 0, 53, 0
2, 163821, Note_on_c, 0, 41, 0
2, 163837, Note_on_c, 0, 58, 71
2, 163877, Note_on_c, 0, 62, 54
2, 163877, Note_on_c, 0, 46, 45
2, 163893, Note_on_c, 0, 53, 33
2, 163897, Note_on_c, 0, 70, 27
2, 163933, Control_c, 0, 64, 88
2, 163949, Control_c, 0, 64, 0
2, 164057, Control_c, 0, 64, 72
2, 164065, Note_on_c, 0, 53, 0
2, 164073, Control_c, 0, 64, 127
2, 164077, Note_on_c, 0, 62, 0
2, 164077, Note_on_c, 0, 58, 0
2, 164113, Note_on_c, 0, 46, 0
2, 164117, Note_on_c, 0, 70, 0
2, 164377, Note_on_c, 0, 82, 86
2, 164389, Note_on_c, 0, 70, 61
2, 164389, Note_on_c, 0, 75, 71
2, 164397, Control_c, 0, 64, 104
2, 164413, Note_on_c, 0, 43, 51
2, 164413, Note_on_c, 0, 31, 46
2, 164417, Control_c, 0, 64, 24
2, 164429, Control_c, 0, 64, 0
2, 164509, Control_c, 0, 64, 104
2, 164525, Control_c, 0, 64, 127
2, 164561, Note_on_c, 0, 31, 0
2, 164569, Note_on_c, 0, 43, 0
2, 164581, Note_on_c, 0, 70, 0
2, 164597, Note_on_c, 0, 75, 0
2, 164653, Note_on_c, 0, 82, 0
2, 164821, Note_on_c, 0, 84, 90
2, 164833, Note_on_c, 0, 75, 71
2, 164837, Note_on_c, 0, 72, 71
2, 164845, Control_c, 0, 64, 40
2, 164853, Note_on_c, 0, 44, 51
2, 164853, Note_on_c, 0, 32, 51
2, 164865, Control_c, 0, 64, 0
2, 164925, Control_c, 0, 64, 40
2, 164941, Control_c, 0, 64, 127
2, 164953, Note_on_c, 0, 84, 0
2, 164993, Note_on_c, 0, 32, 0
2, 164997, Note_on_c, 0, 75, 0
2, 165005, Note_on_c, 0, 44, 0
2, 165009, Note_on_c, 0, 72, 0
2, 165285, Note_on_c, 0, 77, 84
2, 165305, Note_on_c, 0, 65, 53
2, 165313, Note_on_c, 0, 74, 60
2, 165321, Note_on_c, 0, 46, 40
2, 165325, Note_on_c, 0, 34, 44
2, 165405, Control_c, 0, 64, 88
2, 165421, Control_c, 0, 64, 0
2, 165557, Control_c, 0, 64, 88
2, 165573, Control_c, 0, 64, 127
2, 165745, Note_on_c, 0, 65, 0
2, 165769, Note_on_c, 0, 77, 0
2, 165797, Note_on_c, 0, 74, 0
2, 165817, Note_on_c, 0, 34, 0
2, 165901, Note_on_c, 0, 46, 0
2, 166109, Note_on_c, 0, 79, 74
2, 166121, Note_on_c, 0, 67, 55
2, 166133, Note_on_c, 0, 74, 56
2, 166153, Note_on_c, 0, 47, 35
2, 166153, Note_on_c, 0, 35, 38
2, 166165, Control_c, 0, 64, 56
2, 166181, Control_c, 0, 64, 0
2, 166257, Control_c, 0, 64, 56
2, 166273, Control_c, 0, 64, 127
2, 166321, Note_on_c, 0, 35, 0
2, 166337, Note_on_c, 0, 74, 0
2, 166337, Note_on_c, 0, 47, 0
2, 166341, Note_on_c, 0, 79, 0
2, 166377, Note_on_c, 0, 67, 0
2, 166553, Note_on_c, 0, 75, 70
2, 166569, Note_on_c, 0, 67, 56
2, 166573, Note_on_c, 0, 72, 65
2, 166585, Note_on_c, 0, 48, 56
2, 166597, Control_c, 0, 64, 88
2, 166605, Note_on_c, 0, 36, 38
2, 166613, Control_c, 0, 64, 0
2, 166689, Control_c, 0, 64, 40
2, 166701, Note_on_c, 0, 72, 0
2, 166705, Control_c, 0, 64, 104
2, 166709, Note_on_c, 0, 75, 0
2, 166725, Note_on_c, 0, 36, 0
2, 166725, Control_c, 0, 64, 127
2, 166729, Note_on_c, 0, 67, 0
2, 166765, Note_on_c, 0, 48, 0
2, 167009, Note_on_c, 0, 63, 71
2, 167025, Note_on_c, 0, 69, 68
2, 167029, Note_on_c, 0, 66, 50
2, 167029, Control_c, 0, 64, 88
2, 167037, Note_on_c, 0, 50, 55
2, 167045, Note_on_c, 0, 38, 42
2, 167049, Control_c, 0, 64, 0
2, 167141, Control_c, 0, 64, 72
2, 167157, Control_c, 0, 64, 127
2, 167161, Note_on_c, 0, 66, 0
2, 167225, Note_on_c, 0, 63, 0
2, 167245, Note_on_c, 0, 60, 65
2, 167317, Note_on_c, 0, 69, 0
2, 167353, Note_on_c, 0, 60, 0
2, 167417, Note_on_c, 0, 38, 0
2, 167437, Note_on_c, 0, 50, 0
2, 167581, Note_on_c, 0, 58, 53
2, 167617, Note_on_c, 0, 67, 48
2, 167621, Note_on_c, 0, 50, 47
2, 167621, Note_on_c, 0, 62, 40
2, 167625, Note_on_c, 0, 43, 39
2, 167713, Control_c, 0, 64, 72
2, 167729, Control_c, 0, 64, 0
2, 167869, Control_c, 0, 64, 88
2, 167885, Control_c, 0, 64, 127
2, 167909, Note_on_c, 0, 62, 0
2, 167917, Note_on_c, 0, 67, 0
2, 167933, Note_on_c, 0, 50, 0
2, 167937, Note_on_c, 0, 43, 0
2, 167949, Note_on_c, 0, 58, 0
2, 168225, Note_on_c, 0, 67, 63
2, 168229, Note_on_c, 0, 55, 59
2, 168249, Note_on_c, 0, 46, 46
2, 168289, Control_c, 0, 64, 88
2, 168301, Control_c, 0, 64, 0
2, 168413, Control_c, 0, 64, 72
2, 168417, Note_on_c, 0, 67, 0
2, 168421, Note_on_c, 0, 55, 0
2, 168425, Control_c, 0, 64, 127
2, 168525, Note_on_c, 0, 46, 0
2, 168681, Note_on_c, 0, 66, 65
2, 168685, Note_on_c, 0, 54, 55
2, 168701, Note_on_c, 0, 45, 56
2, 168717, Note_on_c, 0, 39, 38
2, 168721, Control_c, 0, 64, 40
2, 168737, Control_c, 0, 64, 0
2, 168813, Control_c, 0, 64, 56
2, 168825, Note_on_c, 0, 54, 0
2, 168829, Control_c, 0, 64, 127
2, 168865, Note_on_c, 0, 66, 0
2, 169089, Note_on_c, 0, 45, 0
2, 169105, Note_on_c, 0, 72, 78
2, 169113, Note_on_c, 0, 60, 64
2, 169117, Note_on_c, 0, 51, 48
2, 169201, Note_on_c, 0, 72, 0
2, 169213, Note_on_c, 0, 60, 0
2, 169461, Note_on_c, 0, 51, 0
2, 169517, Note_on_c, 0, 69, 77
2, 169529, Note_on_c, 0, 57, 56
2, 169541, Note_on_c, 0, 48, 52
2, 169617, Note_on_c, 0, 57, 0
2, 169617, Note_on_c, 0, 69, 0
2, 169785, Note_on_c, 0, 48, 0
2, 169905, Note_on_c, 0, 68, 68
2, 169917, Note_on_c, 0, 56, 54
2, 169925, Note_on_c, 0, 47, 53
2, 170021, Note_on_c, 0, 56, 0
2, 170037, Note_on_c, 0, 68, 0
2, 170041, Note_on_c, 0, 47, 0
2, 170065, Note_on_c, 0, 39, 0
2, 170313, Note_on_c, 0, 67, 72
2, 170329, Note_on_c, 0, 55, 59
2, 170329, Note_on_c, 0, 46, 56
2, 170333, Note_on_c, 0, 39, 42
2, 170345, Control_c, 0, 64, 88
2, 170361, Control_c, 0, 64, 0
2, 170453, Control_c, 0, 64, 40
2, 170469, Control_c, 0, 64, 104
2, 170489, Control_c, 0, 64, 127
2, 170573, Note_on_c, 0, 67, 0
2, 170617, Note_on_c, 0, 46, 0
2, 170693, Note_on_c, 0, 63, 71
2, 170705, Note_on_c, 0, 51, 53
2, 170833, Note_on_c, 0, 55, 0
2, 170837, Note_on_c, 0, 51, 0
2, 170841, Note_on_c, 0, 63, 0
2, 170893, Note_on_c, 0, 60, 80
2, 170909, Note_on_c, 0, 48, 65
2, 171029, Note_on_c, 0, 48, 0
2, 171085, Note_on_c, 0, 60, 0
2, 171101, Note_on_c, 0, 58, 74
2, 171117, Note_on_c, 0, 46, 57
2, 171153, Control_c, 0, 64, 24
2, 171169, Control_c, 0, 64, 0
2, 171261, Control_c, 0, 64, 72
2, 171277, Note_on_c, 0, 46, 0
2, 171277, Note_on_c, 0, 58, 0
2, 171277, Control_c, 0, 64, 127
2, 171509, Note_on_c, 0, 39, 0
2, 171513, Note_on_c, 0, 70, 77
2, 171529, Note_on_c, 0, 58, 55
2, 171529, Note_on_c, 0, 43, 59
2, 171553, Control_c, 0, 64, 56
2, 171569, Control_c, 0, 64, 0
2, 171633, Control_c, 0, 64, 40
2, 171649, Control_c, 0, 64, 127
2, 171709, Note_on_c, 0, 58, 0
2, 171721, Note_on_c, 0, 43, 0
2, 171721, Note_on_c, 0, 70, 0
2, 171913, Note_on_c, 0, 69, 86
2, 171925, Note_on_c, 0, 42, 44
2, 171929, Note_on_c, 0, 57, 59
2, 171941, Note_on_c, 0, 39, 39
2, 171989, Control_c, 0, 64, 72
2, 172005, Control_c, 0, 64, 0
2, 172053, Note_on_c, 0, 57, 0
2, 172081, Control_c, 0, 64, 72
2, 172097, Control_c, 0, 64, 127
2, 172109, Note_on_c, 0, 69, 0
2, 172321, Note_on_c, 0, 75, 91
2, 172325, Note_on_c, 0, 42, 0
2, 172329, Note_on_c, 0, 63, 71
2, 172333, Note_on_c, 0, 48, 52
2, 172457, Note_on_c, 0, 75, 0
2, 172473, Note_on_c, 0, 63, 0
2, 172645, Note_on_c, 0, 48, 0
2, 172697, Note_on_c, 0, 72, 84
2, 172709, Note_on_c, 0, 60, 66
2, 172737, Note_on_c, 0, 45, 45
2, 172813, Note_on_c, 0, 72, 0
2, 172837, Note_on_c, 0, 60, 0
2, 173037, Note_on_c, 0, 45, 0
2, 173085, Note_on_c, 0, 71, 81
2, 173093, Note_on_c, 0, 59, 71
2, 173105, Note_on_c, 0, 44, 47
2, 173177, Note_on_c, 0, 59, 0
2, 173185, Note_on_c, 0, 71, 0
2, 173241, Note_on_c, 0, 44, 0
2, 173253, Note_on_c, 0, 39, 0
2, 173481, Note_on_c, 0, 70, 82
2, 173497, Note_on_c, 0, 58, 69
2, 173517, Note_on_c, 0, 43, 59
2, 173525, Control_c, 0, 64, 24
2, 173537, Control_c, 0, 64, 0
2, 173541, Note_on_c, 0, 39, 36
2, 173629, Control_c, 0, 64, 40
2, 173645, Control_c, 0, 64, 127
2, 173657, Note_on_c, 0, 70, 0
2, 173717, Note_on_c, 0, 43, 0
2, 173817, Note_on_c, 0, 58, 0
2, 173869, Note_on_c, 0, 63, 81
2, 173885, Note_on_c, 0, 51, 62
2, 174001, Note_on_c, 0, 51, 0
2, 174017, Note_on_c, 0, 63, 0
2, 174057, Note_on_c, 0, 60, 84
2, 174077, Note_on_c, 0, 48, 66
2, 174217, Note_on_c, 0, 48, 0
2, 174253, Note_on_c, 0, 60, 0
2, 174265, Note_on_c, 0, 58, 84
2, 174269, Note_on_c, 0, 46, 60
2, 174329, Control_c, 0, 64, 88
2, 174345, Control_c, 0, 64, 0
2, 174405, Control_c, 0, 64, 56
2, 174421, Control_c, 0, 64, 127
2, 174453, Note_on_c, 0, 58, 0
2, 174469, Note_on_c, 0, 46, 0
2, 174493, Note_on_c, 0, 39, 0
2, 174653, Note_on_c, 0, 67, 87
2, 174657, Note_on_c, 0, 55, 83
2, 174673, Note_on_c, 0, 46, 69
2, 174773, Note_on_c, 0, 55, 0
2, 174773, Note_on_c, 0, 67, 0
2, 174841, Note_on_c, 0, 46, 0
2, 175041, Control_c, 0, 64, 88
2, 175049, Note_on_c, 0, 66, 83
2, 175057, Note_on_c, 0, 54, 75
2, 175057, Control_c, 0, 64, 0
2, 175065, Note_on_c, 0, 45, 63
2, 175085, Note_on_c, 0, 39, 35
2, 175133, Control_c, 0, 64, 56
2, 175141, Note_on_c, 0, 54, 0
2, 175149, Control_c, 0, 64, 127
2, 175177, Note_on_c, 0, 66, 0
2, 175361, Note_on_c, 0, 45, 0
2, 175421, Note_on_c, 0, 72, 93
2, 175425, Note_on_c, 0, 60, 80
2, 175437, Note_on_c, 0, 51, 68
2, 175517, Note_on_c, 0, 72, 0
2, 175521, Note_on_c, 0, 60, 0
2, 175741, Note_on_c, 0, 51, 0
2, 175805, Note_on_c, 0, 69, 89
2, 175809, Note_on_c, 0, 57, 76
2, 175817, Note_on_c, 0, 48, 64
2, 175885, Note_on_c, 0, 57, 0
2, 175905, Note_on_c, 0, 69, 0
2, 176077, Note_on_c, 0, 48, 0
2, 176169, Note_on_c, 0, 68, 80
2, 176177, Note_on_c, 0, 56, 75
2, 176189, Note_on_c, 0, 47, 66
2, 176245, Note_on_c, 0, 39, 0
2, 176281, Note_on_c, 0, 56, 0
2, 176285, Note_on_c, 0, 47, 0
2, 176301, Note_on_c, 0, 68, 0
2, 176541, Note_on_c, 0, 67, 88
2, 176545, Control_c, 0, 64, 40
2, 176553, Note_on_c, 0, 55, 80
2, 176561, Note_on_c, 0, 46, 69
2, 176561, Control_c, 0, 64, 0
2, 176573, Note_on_c, 0, 39, 53
2, 176665, Control_c, 0, 64, 88
2, 176681, Control_c, 0, 64, 127
2, 176765, Note_on_c, 0, 67, 0
2, 176805, Note_on_c, 0, 46, 0
2, 176921, Note_on_c, 0, 63, 79
2, 176933, Note_on_c, 0, 51, 67
2, 177053, Note_on_c, 0, 51, 0
2, 177053, Note_on_c, 0, 55, 0
2, 177073, Note_on_c, 0, 63, 0
2, 177101, Note_on_c, 0, 60, 86
2, 177117, Note_on_c, 0, 48, 72
2, 177257, Note_on_c, 0, 48, 0
2, 177281, Note_on_c, 0, 60, 0
2, 177293, Note_on_c, 0, 58, 83
2, 177297, Note_on_c, 0, 46, 65
2, 177317, Control_c, 0, 64, 104
2, 177333, Control_c, 0, 64, 56
2, 177349, Control_c, 0, 64, 40
2, 177365, Control_c, 0, 64, 56
2, 177381, Control_c, 0, 64, 88
2, 177397, Control_c, 0, 64, 127
2, 177417, Note_on_c, 0, 58, 0
2, 177437, Note_on_c, 0, 46, 0
2, 177661, Control_c, 0, 64, 72
2, 177665, Note_on_c, 0, 70, 89
2, 177673, Note_on_c, 0, 58, 79
2, 177673, Control_c, 0, 64, 0
2, 177685, Note_on_c, 0, 43, 70
2, 177753, Control_c, 0, 64, 40
2, 177761, Note_on_c, 0, 39, 0
2, 177765, Control_c, 0, 64, 104
2, 177781, Control_c, 0, 64, 127
2, 177793, Note_on_c, 0, 43, 0
2, 177805, Note_on_c, 0, 58, 0
2, 177829, Note_on_c, 0, 70, 0
2, 178045, Note_on_c, 0, 69, 97
2, 178053, Note_on_c, 0, 57, 79
2, 178061, Note_on_c, 0, 42, 63
2, 178069, Note_on_c, 0, 39, 55
2, 178077, Control_c, 0, 64, 72
2, 178093, Control_c, 0, 64, 0
2, 178165, Note_on_c, 0, 57, 0
2, 178185, Control_c, 0, 64, 104
2, 178201, Control_c, 0, 64, 127
2, 178209, Note_on_c, 0, 69, 0
2, 178429, Note_on_c, 0, 75, 92
2, 178433, Note_on_c, 0, 63, 84
2, 178441, Note_on_c, 0, 48, 71
2, 178493, Note_on_c, 0, 42, 0
2, 178553, Note_on_c, 0, 63, 0
2, 178553, Note_on_c, 0, 75, 0
2, 178761, Note_on_c, 0, 48, 0
2, 178789, Note_on_c, 0, 72, 94
2, 178793, Note_on_c, 0, 60, 84
2, 178813, Note_on_c, 0, 45, 70
2, 178917, Note_on_c, 0, 72, 0
2, 178925, Note_on_c, 0, 60, 0
2, 179085, Note_on_c, 0, 45, 0
2, 179161, Note_on_c, 0, 71, 90
2, 179165, Note_on_c, 0, 44, 57
2, 179165, Note_on_c, 0, 59, 78
2, 179233, Note_on_c, 0, 59, 0
2, 179245, Note_on_c, 0, 71, 0
2, 179249, Note_on_c, 0, 39, 0
2, 179269, Note_on_c, 0, 44, 0
2, 179541, Note_on_c, 0, 70, 87
2, 179549, Control_c, 0, 64, 72
2, 179553, Note_on_c, 0, 58, 80
2, 179557, Note_on_c, 0, 43, 70
2, 179565, Control_c, 0, 64, 0
2, 179573, Note_on_c, 0, 39, 50
2, 179673, Control_c, 0, 64, 104
2, 179689, Control_c, 0, 64, 127
2, 179741, Note_on_c, 0, 70, 0
2, 179861, Note_on_c, 0, 58, 0
2, 179885, Note_on_c, 0, 43, 0
2, 179909, Note_on_c, 0, 63, 81
2, 179917, Note_on_c, 0, 51, 72
2, 180021, Note_on_c, 0, 51, 0
2, 180061, Note_on_c, 0, 63, 0
2, 180085, Note_on_c, 0, 60, 80
2, 180085, Note_on_c, 0, 48, 73
2, 180245, Note_on_c, 0, 48, 0
2, 180257, Note_on_c, 0, 60, 0
2, 180261, Control_c, 0, 64, 56
2, 180273, Note_on_c, 0, 58, 82
2, 180277, Note_on_c, 0, 46, 73
2, 180277, Control_c, 0, 64, 0
2, 180337, Note_on_c, 0, 39, 0
2, 180349, Note_on_c, 0, 46, 0
2, 180353, Control_c, 0, 64, 88
2, 180369, Note_on_c, 0, 58, 0
2, 180369, Control_c, 0, 64, 127
2, 180477, Control_c, 0, 64, 104
2, 180493, Control_c, 0, 64, 56
2, 180509, Control_c, 0, 64, 0
2, 180625, Note_on_c, 0, 65, 85
2, 180629, Note_on_c, 0, 62, 78
2, 180629, Note_on_c, 0, 58, 67
2, 180629, Note_on_c, 0, 53, 79
2, 180637, Note_on_c, 0, 46, 81
2, 180645, Note_on_c, 0, 34, 72
2, 180661, Note_on_c, 0, 53, 0
2, 180673, Note_on_c, 0, 34, 0
2, 180681, Note_on_c, 0, 65, 0
2, 180681, Note_on_c, 0, 46, 0
2, 180713, Note_on_c, 0, 58, 0
2, 180717, Note_on_c, 0, 62, 0
2, 180789, Note_on_c, 0, 66, 82
2, 180789, Note_on_c, 0, 62, 68
2, 180793, Note_on_c, 0, 54, 76
2, 180793, Note_on_c, 0, 58, 60
2, 180801, Note_on_c, 0, 46, 84
2, 180805, Note_on_c, 0, 34, 79
2, 180841, Note_on_c, 0, 54, 0
2, 180845, Note_on_c, 0, 46, 0
2, 180853, Note_on_c, 0, 34, 0
2, 180857, Note_on_c, 0, 58, 0
2, 180861, Note_on_c, 0, 62, 0
2, 180901, Note_on_c, 0, 66, 0
2, 180989, Note_on_c, 0, 58, 72
2, 180989, Note_on_c, 0, 67, 94
2, 180993, Note_on_c, 0, 55, 89
2, 180993, Note_on_c, 0, 46, 86
2, 180997, Note_on_c, 0, 39, 71
2, 181001, Note_on_c, 0, 63, 64
2, 181041, Note_on_c, 0, 46, 0
2, 181041, Note_on_c, 0, 55, 0
2, 181053, Note_on_c, 0, 39, 0
2, 181057, Note_on_c, 0, 58, 0
2, 181069, Control_c, 0, 64, 88
2, 181081, Note_on_c, 0, 63, 0
2, 181081, Control_c, 0, 64, 127
2, 181085, Note_on_c, 0, 67, 0
2, 181337, Note_on_c, 0, 75, 83
2, 181345, Note_on_c, 0, 63, 82
2, 181357, Note_on_c, 0, 51, 71
2, 181361, Control_c, 0, 64, 88
2, 181377, Control_c, 0, 64, 40
2, 181393, Control_c, 0, 64, 0
2, 181397, Note_on_c, 0, 63, 0
2, 181409, Note_on_c, 0, 75, 0
2, 181413, Note_on_c, 0, 51, 0
2, 181501, Note_on_c, 0, 72, 99
2, 181505, Note_on_c, 0, 60, 87
2, 181513, Note_on_c, 0, 48, 81
2, 181549, Note_on_c, 0, 60, 0
2, 181553, Note_on_c, 0, 72, 0
2, 181581, Note_on_c, 0, 48, 0
2, 181669, Control_c, 0, 64, 40
2, 181685, Note_on_c, 0, 58, 88
2, 181685, Note_on_c, 0, 46, 74
2, 181685, Control_c, 0, 64, 127
2, 181689, Note_on_c, 0, 70, 79
2, 181729, Note_on_c, 0, 58, 0
2, 181737, Note_on_c, 0, 46, 0
2, 181749, Note_on_c, 0, 70, 0
2, 181981, Control_c, 0, 64, 88
2, 181997, Control_c, 0, 64, 56
2, 182009, Note_on_c, 0, 77, 92
2, 182013, Control_c, 0, 64, 0
2, 182017, Note_on_c, 0, 65, 77
2, 182021, Note_on_c, 0, 74, 77
2, 182021, Note_on_c, 0, 70, 69
2, 182037, Note_on_c, 0, 58, 77
2, 182041, Note_on_c, 0, 46, 77
2, 182069, Note_on_c, 0, 46, 0
2, 182069, Note_on_c, 0, 65, 0
2, 182085, Note_on_c, 0, 77, 0
2, 182089, Note_on_c, 0, 58, 0
2, 182093, Note_on_c, 0, 70, 0
2, 182113, Note_on_c, 0, 74, 0
2, 182177, Note_on_c, 0, 78, 90
2, 182181, Note_on_c, 0, 66, 88
2, 182181, Note_on_c, 0, 74, 74
2, 182189, Note_on_c, 0, 70, 71
2, 182197, Note_on_c, 0, 58, 77
2, 182197, Note_on_c, 0, 46, 80
2, 182217, Note_on_c, 0, 70, 0
2, 182233, Note_on_c, 0, 66, 0
2, 182249, Note_on_c, 0, 58, 0
2, 182249, Note_on_c, 0, 74, 0
2, 182249, Note_on_c, 0, 46, 0
2, 182289, Note_on_c, 0, 78, 0
2, 182369, Note_on_c, 0, 70, 88
2, 182373, Note_on_c, 0, 79, 103
2, 182377, Note_on_c, 0, 67, 92
2, 182381, Note_on_c, 0, 58, 80
2, 182381, Note_on_c, 0, 75, 74
2, 182381, Note_on_c, 0, 51, 78
2, 182429, Note_on_c, 0, 51, 0
2, 182433, Note_on_c, 0, 67, 0
2, 182433, Note_on_c, 0, 58, 0
2, 182441, Note_on_c, 0, 70, 0
2, 182445, Control_c, 0, 64, 104
2, 182457, Note_on_c, 0, 75, 0
2, 182461, Control_c, 0, 64, 127
2, 182473, Note_on_c, 0, 79, 0
2, 182729, Note_on_c, 0, 87, 91
2, 182733, Note_on_c, 0, 75, 92
2, 182737, Note_on_c, 0, 63, 67
2, 182789, Note_on_c, 0, 75, 0
2, 182797, Note_on_c, 0, 87, 0
2, 182809, Note_on_c, 0, 63, 0
2, 182881, Control_c, 0, 64, 104
2, 182889, Note_on_c, 0, 60, 73
2, 182893, Note_on_c, 0, 84, 96
2, 182897, Note_on_c, 0, 72, 90
2, 182897, Control_c, 0, 64, 72
2, 182909, Control_c, 0, 64, 56
2, 182925, Control_c, 0, 64, 40
2, 182937, Note_on_c, 0, 72, 0
2, 182937, Note_on_c, 0, 84, 0
2, 182941, Control_c, 0, 64, 24
2, 182957, Control_c, 0, 64, 0
2, 182965, Note_on_c, 0, 60, 0
2, 183061, Note_on_c, 0, 58, 65
2, 183073, Note_on_c, 0, 70, 93
2, 183077, Note_on_c, 0, 82, 90
2, 183081, Control_c, 0, 64, 72
2, 183097, Control_c, 0, 64, 127
2, 183113, Note_on_c, 0, 82, 0
2, 183117, Note_on_c, 0, 70, 0
2, 183117, Note_on_c, 0, 58, 0
2, 183377, Note_on_c, 0, 79, 90
2, 183385, Note_on_c, 0, 67, 83
2, 183397, Note_on_c, 0, 55, 69
2, 183437, Note_on_c, 0, 79, 0
2, 183445, Note_on_c, 0, 55, 0
2, 183445, Note_on_c, 0, 67, 0
2, 183545, Note_on_c, 0, 75, 90
2, 183549, Note_on_c, 0, 63, 87
2, 183557, Note_on_c, 0, 51, 60
2, 183597, Note_on_c, 0, 51, 0
2, 183597, Note_on_c, 0, 63, 0
2, 183605, Note_on_c, 0, 75, 0
2, 183701, Control_c, 0, 64, 88
2, 183717, Control_c, 0, 64, 0
2, 183733, Note_on_c, 0, 72, 94
2, 183737, Note_on_c, 0, 60, 86
2, 183737, Note_on_c, 0, 48, 75
2, 183773, Note_on_c, 0, 60, 0
2, 183781, Note_on_c, 0, 72, 0
2, 183793, Control_c, 0, 64, 72
2, 183805, Note_on_c, 0, 48, 0
2, 183809, Control_c, 0, 64, 127
2, 184045, Note_on_c, 0, 70, 88
2, 184049, Note_on_c, 0, 58, 76
2, 184061, Note_on_c, 0, 46, 62
2, 184109, Note_on_c, 0, 58, 0
2, 184113, Note_on_c, 0, 70, 0
2, 184121, Note_on_c, 0, 46, 0
2, 184205, Note_on_c, 0, 43, 62
2, 184213, Note_on_c, 0, 67, 84
2, 184217, Note_on_c, 0, 55, 65
2, 184241, Note_on_c, 0, 67, 0
2, 184245, Note_on_c, 0, 55, 0
2, 184309, Note_on_c, 0, 43, 0
2, 184321, Control_c, 0, 64, 56
2, 184337, Control_c, 0, 64, 0
2, 184377, Note_on_c, 0, 39, 73
2, 184381, Note_on_c, 0, 63, 86
2, 184381, Control_c, 0, 64, 24
2, 184389, Note_on_c, 0, 51, 82
2, 184397, Control_c, 0, 64, 72
2, 184413, Control_c, 0, 64, 127
2, 184417, Note_on_c, 0, 51, 0
2, 184433, Note_on_c, 0, 39, 0
2, 184445, Note_on_c, 0, 63, 0
2, 184629, Control_c, 0, 64, 88
2, 184645, Control_c, 0, 64, 40
2, 184661, Control_c, 0, 64, 0
2, 184753, Note_on_c, 0, 62, 94
2, 184761, Note_on_c, 0, 50, 92
2, 184761, Note_on_c, 0, 58, 72
2, 184765, Note_on_c, 0, 56, 65
2, 184777, Note_on_c, 0, 46, 80
2, 184777, Note_on_c, 0, 34, 71
2, 184785, Control_c, 0, 64, 56
2, 184801, Control_c, 0, 64, 127
2, 184821, Note_on_c, 0, 50, 0
2, 184829, Note_on_c, 0, 46, 0
2, 184829, Note_on_c, 0, 34, 0
2, 184857, Note_on_c, 0, 56, 0
2, 184865, Note_on_c, 0, 62, 0
2, 184877, Note_on_c, 0, 58, 0
2, 185193, Note_on_c, 0, 68, 89
2, 185201, Note_on_c, 0, 56, 81
2, 185205, Note_on_c, 0, 62, 83
2, 185205, Note_on_c, 0, 58, 68
2, 185217, Note_on_c, 0, 39, 62
2, 185221, Note_on_c, 0, 46, 73
2, 185249, Control_c, 0, 64, 104
2, 185265, Control_c, 0, 64, 24
2, 185281, Control_c, 0, 64, 0
2, 185665, Control_c, 0, 64, 40
2, 185681, Control_c, 0, 64, 72
2, 185697, Control_c, 0, 64, 88
2, 185713, Control_c, 0, 64, 104
2, 185917, Control_c, 0, 64, 56
2, 185933, Control_c, 0, 64, 0
2, 186009, Control_c, 0, 64, 24
2, 186025, Control_c, 0, 64, 72
2, 186037, Control_c, 0, 64, 127
2, 186481, Note_on_c, 0, 62, 0
2, 186489, Note_on_c, 0, 56, 0
2, 186577, Note_on_c, 0, 68, 0
2, 186665, Note_on_c, 0, 58, 0
2, 186801, Note_on_c, 0, 67, 66
2, 186817, Note_on_c, 0, 58, 38
2, 186817, Note_on_c, 0, 55, 51
2, 186821, Note_on_c, 0, 63, 48
2, 186905, Control_c, 0, 64, 72
2, 186921, Control_c, 0, 64, 24
2, 186941, Control_c, 0, 64, 0
2, 187137, Control_c, 0, 64, 40
2, 187153, Control_c, 0, 64, 104
2, 187169, Control_c, 0, 64, 127
2, 187205, Note_on_c, 0, 55, 0
2, 187217, Note_on_c, 0, 67, 0
2, 187217, Note_on_c, 0, 46, 0
2, 187229, Note_on_c, 0, 58, 0
2, 187237, Note_on_c, 0, 39, 0
2, 187253, Note_on_c, 0, 63, 0
2, 187897, Control_c, 0, 64, 104
2, 187913, Control_c, 0, 64, 88
2, 187945, Control_c, 0, 64, 72
2, 187961, Control_c, 0, 64, 56
2, 187989, Control_c, 0, 64, 40
2, 188005, Control_c, 0, 64, 24
2, 188037, Control_c, 0, 64, 0
2, 189697, Note_on_c, 0, 69, 61
2, 189737, Note_on_c, 0, 41, 53
2, 189753, Note_on_c, 0, 75, 73
2, 189761, Note_on_c, 0, 41, 0
2, 189773, Note_on_c, 0, 69, 0
2, 189817, Note_on_c, 0, 75, 0
2, 189977, Note_on_c, 0, 72, 68
2, 189981, Note_on_c, 0, 63, 43
2, 189989, Note_on_c, 0, 53, 51
2, 189997, Note_on_c, 0, 57, 41
2, 190005, Control_c, 0, 64, 72
2, 190021, Note_on_c, 0, 53, 0
2, 190021, Control_c, 0, 64, 127
2, 190029, Note_on_c, 0, 57, 0
2, 190085, Note_on_c, 0, 72, 0
2, 190273, Note_on_c, 0, 71, 62
2, 190309, Control_c, 0, 64, 88
2, 190325, Control_c, 0, 64, 40
2, 190329, Note_on_c, 0, 72, 85
2, 190341, Note_on_c, 0, 71, 0
2, 190341, Note_on_c, 0, 57, 52
2, 190341, Note_on_c, 0, 53, 49
2, 190341, Control_c, 0, 64, 0
2, 190365, Note_on_c, 0, 57, 0
2, 190369, Note_on_c, 0, 53, 0
2, 190409, Note_on_c, 0, 72, 0
2, 190513, Note_on_c, 0, 74, 84
2, 190513, Note_on_c, 0, 53, 70
2, 190525, Note_on_c, 0, 57, 49
2, 190549, Note_on_c, 0, 57, 0
2, 190561, Note_on_c, 0, 53, 0
2, 190565, Note_on_c, 0, 63, 0
2, 190585, Note_on_c, 0, 74, 0
2, 190669, Note_on_c, 0, 75, 78
2, 190677, Note_on_c, 0, 57, 64
2, 190681, Note_on_c, 0, 53, 62
2, 190709, Note_on_c, 0, 53, 0
2, 190709, Note_on_c, 0, 57, 0
2, 190721, Note_on_c, 0, 75, 0
2, 190769, Note_on_c, 0, 75, 83
2, 190833, Note_on_c, 0, 75, 0
2, 190909, Note_on_c, 0, 91, 99
2, 190925, Note_on_c, 0, 41, 62
2, 190937, Control_c, 0, 64, 40
2, 190953, Note_on_c, 0, 41, 0
2, 190953, Control_c, 0, 64, 88
2, 190957, Note_on_c, 0, 91, 0
2, 190965, Control_c, 0, 64, 127
2, 191177, Control_c, 0, 64, 88
2, 191185, Note_on_c, 0, 72, 73
2, 191189, Control_c, 0, 64, 0
2, 191197, Note_on_c, 0, 53, 41
2, 191201, Note_on_c, 0, 57, 42
2, 191205, Note_on_c, 0, 63, 39
2, 191285, Control_c, 0, 64, 72
2, 191301, Control_c, 0, 64, 127
2, 191341, Note_on_c, 0, 57, 0
2, 191345, Note_on_c, 0, 53, 0
2, 191381, Note_on_c, 0, 72, 0
2, 191449, Note_on_c, 0, 71, 60
2, 191497, Control_c, 0, 64, 88
2, 191501, Note_on_c, 0, 72, 85
2, 191509, Control_c, 0, 64, 40
2, 191521, Note_on_c, 0, 71, 0
2, 191525, Control_c, 0, 64, 0
2, 191529, Note_on_c, 0, 57, 44
2, 191537, Note_on_c, 0, 53, 35
2, 191553, Note_on_c, 0, 63, 0
2, 191561, Note_on_c, 0, 57, 0
2, 191565, Note_on_c, 0, 53, 0
2, 191589, Note_on_c, 0, 72, 0
2, 191689, Note_on_c, 0, 74, 82
2, 191689, Note_on_c, 0, 63, 54
2, 191693, Note_on_c, 0, 53, 56
2, 191701, Note_on_c, 0, 57, 46
2, 191729, Note_on_c, 0, 57, 0
2, 191733, Note_on_c, 0, 53, 0
2, 191741, Note_on_c, 0, 63, 0
2, 191757, Note_on_c, 0, 74, 0
2, 191841, Note_on_c, 0, 75, 80
2, 191841, Note_on_c, 0, 53, 58
2, 191849, Note_on_c, 0, 57, 49
2, 191869, Note_on_c, 0, 53, 0
2, 191877, Note_on_c, 0, 57, 0
2, 191905, Note_on_c, 0, 75, 0
2, 191953, Note_on_c, 0, 75, 73
2, 192017, Note_on_c, 0, 75, 0
2, 192057, Note_on_c, 0, 82, 79
2, 192069, Note_on_c, 0, 46, 50
2, 192081, Note_on_c, 0, 82, 0
2, 192097, Control_c, 0, 64, 56
2, 192109, Control_c, 0, 64, 104
2, 192125, Control_c, 0, 64, 127
2, 192129, Note_on_c, 0, 46, 0
2, 192289, Control_c, 0, 64, 88
2, 192305, Control_c, 0, 64, 72
2, 192317, Note_on_c, 0, 70, 69
2, 192317, Control_c, 0, 64, 24
2, 192325, Note_on_c, 0, 62, 55
2, 192333, Note_on_c, 0, 58, 37
2, 192333, Control_c, 0, 64, 0
2, 192345, Note_on_c, 0, 53, 44
2, 192429, Control_c, 0, 64, 72
2, 192445, Control_c, 0, 64, 104
2, 192461, Control_c, 0, 64, 127
2, 192485, Note_on_c, 0, 53, 0
2, 192485, Note_on_c, 0, 58, 0
2, 192485, Note_on_c, 0, 70, 0
2, 192581, Note_on_c, 0, 69, 68
2, 192609, Control_c, 0, 64, 88
2, 192629, Note_on_c, 0, 58, 37
2, 192629, Note_on_c, 0, 70, 72
2, 192629, Control_c, 0, 64, 40
2, 192633, Note_on_c, 0, 53, 47
2, 192637, Note_on_c, 0, 69, 0
2, 192637, Control_c, 0, 64, 0
2, 192665, Note_on_c, 0, 53, 0
2, 192669, Note_on_c, 0, 58, 0
2, 192725, Note_on_c, 0, 70, 0
2, 192777, Note_on_c, 0, 72, 70
2, 192825, Note_on_c, 0, 53, 72
2, 192825, Note_on_c, 0, 58, 47
2, 192857, Note_on_c, 0, 53, 0
2, 192861, Note_on_c, 0, 62, 0
2, 192865, Note_on_c, 0, 58, 0
2, 192949, Note_on_c, 0, 74, 75
2, 192949, Note_on_c, 0, 53, 50
2, 192949, Note_on_c, 0, 58, 53
2, 192973, Note_on_c, 0, 74, 0
2, 192977, Note_on_c, 0, 72, 0
2, 193029, Note_on_c, 0, 53, 0
2, 193041, Note_on_c, 0, 74, 87
2, 193105, Note_on_c, 0, 74, 0
2, 193145, Note_on_c, 0, 89, 99
2, 193149, Note_on_c, 0, 58, 0
2, 193153, Note_on_c, 0, 46, 64
2, 193157, Control_c, 0, 64, 56
2, 193165, Note_on_c, 0, 89, 0
2, 193173, Control_c, 0, 64, 72
2, 193185, Control_c, 0, 64, 88
2, 193193, Note_on_c, 0, 46, 0
2, 193257, Control_c, 0, 64, 72
2, 193269, Control_c, 0, 64, 56
2, 193281, Control_c, 0, 64, 24
2, 193297, Control_c, 0, 64, 0
2, 193349, Note_on_c, 0, 65, 86
2, 193369, Note_on_c, 0, 53, 82
2, 193385, Note_on_c, 0, 41, 46
2, 193397, Control_c, 0, 64, 72
2, 193409, Control_c, 0, 64, 127
2, 193413, Note_on_c, 0, 41, 0
2, 193425, Note_on_c, 0, 53, 0
2, 193517, Note_on_c, 0, 65, 0
2, 193597, Note_on_c, 0, 51, 78
2, 193601, Note_on_c, 0, 63, 81
2, 193601, Note_on_c, 0, 39, 71
2, 193617, Control_c, 0, 64, 104
2, 193633, Note_on_c, 0, 39, 0
2, 193633, Note_on_c, 0, 51, 0
2, 193633, Control_c, 0, 64, 72
2, 193645, Control_c, 0, 64, 24
2, 193661, Control_c, 0, 64, 0
2, 193665, Note_on_c, 0, 63, 0
2, 193669, Note_on_c, 0, 62, 100
2, 193689, Note_on_c, 0, 50, 85
2, 193705, Note_on_c, 0, 38, 63
2, 193713, Note_on_c, 0, 50, 0
2, 193729, Note_on_c, 0, 38, 0
2, 193761, Note_on_c, 0, 62, 0
2, 193877, Note_on_c, 0, 60, 92
2, 193877, Note_on_c, 0, 48, 83
2, 193897, Note_on_c, 0, 36, 65
2, 193921, Note_on_c, 0, 36, 0
2, 193925, Note_on_c, 0, 48, 0
2, 194025, Note_on_c, 0, 60, 0
2, 194069, Note_on_c, 0, 58, 83
2, 194077, Note_on_c, 0, 46, 69
2, 194085, Note_on_c, 0, 34, 58
2, 194093, Control_c, 0, 64, 56
2, 194105, Note_on_c, 0, 34, 0
2, 194105, Note_on_c, 0, 46, 0
2, 194105, Control_c, 0, 64, 72
2, 194117, Note_on_c, 0, 58, 0
2, 194189, Control_c, 0, 64, 40
2, 194205, Control_c, 0, 64, 24
2, 194233, Control_c, 0, 64, 0
2, 194345, Note_on_c, 0, 81, 66
2, 194369, Note_on_c, 0, 41, 60
2, 194413, Note_on_c, 0, 81, 0
2, 194421, Note_on_c, 0, 87, 81
2, 194441, Control_c, 0, 64, 40
2, 194445, Note_on_c, 0, 41, 0
2, 194453, Control_c, 0, 64, 56
2, 194469, Control_c, 0, 64, 72
2, 194481, Control_c, 0, 64, 88
2, 194497, Control_c, 0, 64, 104
2, 194501, Note_on_c, 0, 87, 0
2, 194509, Control_c, 0, 64, 127
2, 194593, Control_c, 0, 64, 88
2, 194605, Control_c, 0, 64, 56
2, 194621, Control_c, 0, 64, 24
2, 194637, Control_c, 0, 64, 0
2, 194645, Note_on_c, 0, 84, 68
2, 194657, Note_on_c, 0, 75, 36
2, 194661, Note_on_c, 0, 69, 39
2, 194661, Note_on_c, 0, 65, 39
2, 194733, Control_c, 0, 64, 56
2, 194749, Control_c, 0, 64, 104
2, 194761, Control_c, 0, 64, 127
2, 194857, Note_on_c, 0, 65, 0
2, 194857, Note_on_c, 0, 69, 0
2, 194881, Note_on_c, 0, 84, 0
2, 194897, Note_on_c, 0, 83, 71
2, 194941, Control_c, 0, 64, 104
2, 194957, Control_c, 0, 64, 56
2, 194969, Control_c, 0, 64, 24
2, 194973, Note_on_c, 0, 83, 0
2, 194973, Note_on_c, 0, 84, 83
2, 194985, Control_c, 0, 64, 0
2, 194989, Note_on_c, 0, 65, 49
2, 194993, Note_on_c, 0, 69, 47
2, 195029, Note_on_c, 0, 69, 0
2, 195033, Note_on_c, 0, 65, 0
2, 195065, Note_on_c, 0, 84, 0
2, 195153, Note_on_c, 0, 86, 82
2, 195173, Note_on_c, 0, 69, 37
2, 195173, Note_on_c, 0, 65, 45
2, 195205, Note_on_c, 0, 69, 0
2, 195209, Note_on_c, 0, 65, 0
2, 195237, Note_on_c, 0, 86, 0
2, 195305, Note_on_c, 0, 87, 75
2, 195309, Note_on_c, 0, 75, 0
2, 195313, Note_on_c, 0, 69, 55
2, 195313, Note_on_c, 0, 65, 45
2, 195317, Control_c, 0, 64, 40
2, 195333, Control_c, 0, 64, 72
2, 195337, Note_on_c, 0, 69, 0
2, 195349, Note_on_c, 0, 65, 0
2, 195349, Control_c, 0, 64, 104
2, 195361, Note_on_c, 0, 87, 0
2, 195405, Note_on_c, 0, 87, 88
2, 195405, Control_c, 0, 64, 127
2, 195477, Note_on_c, 0, 87, 0
2, 195485, Control_c, 0, 64, 88
2, 195501, Control_c, 0, 64, 40
2, 195513, Control_c, 0, 64, 0
2, 195549, Note_on_c, 0, 103, 88
2, 195565, Note_on_c, 0, 53, 56
2, 195565, Note_on_c, 0, 60, 55
2, 195585, Control_c, 0, 64, 56
2, 195589, Note_on_c, 0, 103, 0
2, 195593, Note_on_c, 0, 53, 0
2, 195597, Control_c, 0, 64, 127
2, 195645, Note_on_c, 0, 60, 0
2, 195837, Note_on_c, 0, 84, 78
2, 195837, Control_c, 0, 64, 72
2, 195849, Note_on_c, 0, 75, 46
2, 195849, Control_c, 0, 64, 0
2, 195853, Note_on_c, 0, 69, 49
2, 195861, Note_on_c, 0, 65, 39
2, 195921, Control_c, 0, 64, 24
2, 195933, Control_c, 0, 64, 104
2, 195945, Control_c, 0, 64, 127
2, 196009, Note_on_c, 0, 65, 0
2, 196013, Note_on_c, 0, 69, 0
2, 196041, Note_on_c, 0, 84, 0
2, 196073, Note_on_c, 0, 83, 68
2, 196129, Control_c, 0, 64, 104
2, 196137, Note_on_c, 0, 84, 82
2, 196141, Control_c, 0, 64, 56
2, 196153, Note_on_c, 0, 83, 0
2, 196153, Note_on_c, 0, 65, 47
2, 196157, Note_on_c, 0, 69, 49
2, 196157, Control_c, 0, 64, 24
2, 196169, Control_c, 0, 64, 0
2, 196193, Note_on_c, 0, 69, 0
2, 196193, Note_on_c, 0, 75, 0
2, 196205, Note_on_c, 0, 65, 0
2, 196233, Note_on_c, 0, 84, 0
2, 196313, Note_on_c, 0, 86, 83
2, 196321, Note_on_c, 0, 75, 57
2, 196329, Note_on_c, 0, 65, 58
2, 196333, Note_on_c, 0, 69, 55
2, 196369, Note_on_c, 0, 69, 0
2, 196373, Note_on_c, 0, 75, 0
2, 196381, Note_on_c, 0, 65, 0
2, 196393, Note_on_c, 0, 86, 0
2, 196469, Note_on_c, 0, 87, 76
2, 196481, Note_on_c, 0, 69, 53
2, 196489, Note_on_c, 0, 65, 41
2, 196521, Note_on_c, 0, 65, 0
2, 196525, Note_on_c, 0, 69, 0
2, 196545, Note_on_c, 0, 87, 0
2, 196585, Note_on_c, 0, 87, 79
2, 196649, Note_on_c, 0, 87, 0
2, 196677, Note_on_c, 0, 94, 82
2, 196685, Control_c, 0, 64, 24
2, 196689, Note_on_c, 0, 58, 48
2, 196701, Control_c, 0, 64, 72
2, 196713, Control_c, 0, 64, 104
2, 196725, Note_on_c, 0, 58, 0
2, 196729, Note_on_c, 0, 94, 0
2, 196729, Control_c, 0, 64, 127
2, 196841, Control_c, 0, 64, 104
2, 196925, Note_on_c, 0, 82, 63
2, 196925, Control_c, 0, 64, 56
2, 196937, Note_on_c, 0, 74, 57
2, 196937, Control_c, 0, 64, 0
2, 196953, Note_on_c, 0, 70, 35
2, 196965, Note_on_c, 0, 65, 34
2, 197049, Control_c, 0, 64, 72
2, 197061, Control_c, 0, 64, 127
2, 197105, Note_on_c, 0, 70, 0
2, 197113, Note_on_c, 0, 65, 0
2, 197113, Note_on_c, 0, 82, 0
2, 197169, Note_on_c, 0, 81, 75
2, 197217, Control_c, 0, 64, 88
2, 197229, Note_on_c, 0, 82, 70
2, 197229, Control_c, 0, 64, 56
2, 197245, Note_on_c, 0, 70, 46
2, 197245, Control_c, 0, 64, 24
2, 197249, Note_on_c, 0, 65, 53
2, 197257, Note_on_c, 0, 81, 0
2, 197261, Control_c, 0, 64, 0
2, 197285, Note_on_c, 0, 65, 0
2, 197297, Note_on_c, 0, 70, 0
2, 197321, Note_on_c, 0, 82, 0
2, 197333, Note_on_c, 0, 74, 0
2, 197401, Note_on_c, 0, 84, 82
2, 197417, Note_on_c, 0, 70, 60
2, 197421, Note_on_c, 0, 65, 62
2, 197421, Note_on_c, 0, 74, 33
2, 197457, Note_on_c, 0, 74, 0
2, 197457, Note_on_c, 0, 65, 0
2, 197469, Note_on_c, 0, 70, 0
2, 197537, Note_on_c, 0, 84, 0
2, 197565, Note_on_c, 0, 86, 85
2, 197573, Note_on_c, 0, 70, 46
2, 197573, Note_on_c, 0, 65, 50
2, 197609, Note_on_c, 0, 86, 0
2, 197617, Note_on_c, 0, 65, 0
2, 197669, Note_on_c, 0, 86, 93
2, 197729, Note_on_c, 0, 86, 0
2, 197765, Note_on_c, 0, 58, 57
2, 197765, Note_on_c, 0, 101, 100
2, 197765, Note_on_c, 0, 65, 65
2, 197773, Control_c, 0, 64, 40
2, 197785, Note_on_c, 0, 70, 0
2, 197789, Note_on_c, 0, 101, 0
2, 197789, Control_c, 0, 64, 72
2, 197801, Control_c, 0, 64, 104
2, 197805, Note_on_c, 0, 58, 0
2, 197813, Note_on_c, 0, 65, 0
2, 197817, Control_c, 0, 64, 127
2, 197913, Control_c, 0, 64, 104
2, 197925, Control_c, 0, 64, 72
2, 197941, Control_c, 0, 64, 24
2, 197953, Control_c, 0, 64, 0
2, 197985, Note_on_c, 0, 77, 94
2, 198005, Note_on_c, 0, 65, 82
2, 198013, Note_on_c, 0, 53, 68
2, 198053, Control_c, 0, 64, 56
2, 198065, Control_c, 0, 64, 127
2, 198069, Note_on_c, 0, 53, 0
2, 198085, Note_on_c, 0, 65, 0
2, 198161, Note_on_c, 0, 77, 0
2, 198221, Note_on_c, 0, 63, 78
2, 198229, Note_on_c, 0, 51, 83
2, 198237, Note_on_c, 0, 75, 87
2, 198257, Note_on_c, 0, 51, 0
2, 198265, Note_on_c, 0, 63, 0
2, 198273, Control_c, 0, 64, 88
2, 198289, Note_on_c, 0, 75, 0
2, 198289, Control_c, 0, 64, 40
2, 198305, Control_c, 0, 64, 0
2, 198309, Note_on_c, 0, 74, 93
2, 198317, Note_on_c, 0, 62, 82
2, 198333, Note_on_c, 0, 50, 74
2, 198357, Note_on_c, 0, 50, 0
2, 198365, Note_on_c, 0, 62, 0
2, 198389, Note_on_c, 0, 74, 0
2, 198501, Note_on_c, 0, 72, 89
2, 198501, Note_on_c, 0, 48, 65
2, 198509, Note_on_c, 0, 60, 76
2, 198557, Note_on_c, 0, 60, 0
2, 198557, Note_on_c, 0, 48, 0
2, 198625, Note_on_c, 0, 72, 0
2, 198693, Note_on_c, 0, 70, 91
2, 198705, Note_on_c, 0, 58, 73
2, 198705, Note_on_c, 0, 46, 64
2, 198749, Note_on_c, 0, 70, 0
2, 198757, Note_on_c, 0, 58, 0
2, 198765, Note_on_c, 0, 46, 0
2, 198929, Note_on_c, 0, 87, 79
2, 198989, Control_c, 0, 64, 24
2, 198997, Note_on_c, 0, 46, 50
2, 199001, Note_on_c, 0, 34, 61
2, 199001, Control_c, 0, 64, 72
2, 199005, Note_on_c, 0, 87, 0
2, 199009, Note_on_c, 0, 91, 103
2, 199017, Control_c, 0, 64, 127
2, 199029, Note_on_c, 0, 34, 0
2, 199029, Note_on_c, 0, 46, 0
2, 199053, Note_on_c, 0, 91, 0
2, 199237, Control_c, 0, 64, 56
2, 199241, Note_on_c, 0, 82, 93
2, 199245, Note_on_c, 0, 79, 90
2, 199245, Note_on_c, 0, 70, 84
2, 199249, Note_on_c, 0, 58, 64
2, 199249, Note_on_c, 0, 63, 74
2, 199249, Control_c, 0, 64, 0
2, 199269, Note_on_c, 0, 51, 60
2, 199289, Note_on_c, 0, 70, 0
2, 199313, Note_on_c, 0, 51, 0
2, 199321, Control_c, 0, 64, 88
2, 199325, Note_on_c, 0, 58, 0
2, 199337, Control_c, 0, 64, 127
2, 199353, Note_on_c, 0, 63, 0
2, 199361, Note_on_c, 0, 82, 0
2, 199421, Note_on_c, 0, 79, 0
2, 199489, Note_on_c, 0, 81, 86
2, 199493, Note_on_c, 0, 80, 28
2, 199501, Note_on_c, 0, 63, 75
2, 199501, Note_on_c, 0, 57, 74
2, 199513, Note_on_c, 0, 81, 0
2, 199517, Note_on_c, 0, 80, 0
2, 199517, Control_c, 0, 64, 104
2, 199521, Note_on_c, 0, 57, 0
2, 199529, Control_c, 0, 64, 56
2, 199541, Note_on_c, 0, 63, 0
2, 199545, Control_c, 0, 64, 24
2, 199557, Control_c, 0, 64, 0
2, 199561, Note_on_c, 0, 82, 90
2, 199561, Note_on_c, 0, 70, 89
2, 199585, Note_on_c, 0, 63, 72
2, 199589, Note_on_c, 0, 51, 74
2, 199597, Note_on_c, 0, 58, 62
2, 199621, Note_on_c, 0, 70, 0
2, 199645, Note_on_c, 0, 58, 0
2, 199645, Note_on_c, 0, 63, 0
2, 199657, Note_on_c, 0, 51, 0
2, 199705, Note_on_c, 0, 82, 0
2, 199749, Note_on_c, 0, 63, 72
2, 199749, Note_on_c, 0, 51, 64
2, 199749, Note_on_c, 0, 84, 100
2, 199753, Note_on_c, 0, 72, 86
2, 199753, Note_on_c, 0, 58, 60
2, 199805, Note_on_c, 0, 72, 0
2, 199805, Note_on_c, 0, 51, 0
2, 199829, Note_on_c, 0, 58, 0
2, 199829, Note_on_c, 0, 84, 0
2, 199841, Note_on_c, 0, 63, 0
2, 199921, Note_on_c, 0, 85, 88
2, 199925, Note_on_c, 0, 73, 93
2, 199925, Note_on_c, 0, 64, 79
2, 199925, Note_on_c, 0, 58, 62
2, 199933, Note_on_c, 0, 82, 64
2, 199945, Note_on_c, 0, 52, 51
2, 199961, Note_on_c, 0, 82, 0
2, 199969, Note_on_c, 0, 52, 0
2, 199973, Note_on_c, 0, 73, 0
2, 199985, Note_on_c, 0, 58, 0
2, 199985, Note_on_c, 0, 64, 0
2, 200037, Note_on_c, 0, 85, 0
2, 200085, Note_on_c, 0, 74, 82
2, 200093, Note_on_c, 0, 58, 64
2, 200101, Note_on_c, 0, 86, 93
2, 200101, Note_on_c, 0, 65, 78
2, 200113, Note_on_c, 0, 82, 33
2, 200121, Note_on_c, 0, 65, 0
2, 200121, Note_on_c, 0, 53, 56
2, 200129, Control_c, 0, 64, 24
2, 200137, Note_on_c, 0, 74, 0
2, 200137, Note_on_c, 0, 82, 0
2, 200141, Note_on_c, 0, 58, 0
2, 200145, Control_c, 0, 64, 72
2, 200149, Note_on_c, 0, 53, 0
2, 200157, Control_c, 0, 64, 127
2, 200173, Note_on_c, 0, 89, 99
2, 200185, Note_on_c, 0, 86, 0
2, 200209, Note_on_c, 0, 89, 0
2, 200241, Control_c, 0, 64, 72
2, 200253, Control_c, 0, 64, 0
2, 200321, Note_on_c, 0, 65, 93
2, 200333, Note_on_c, 0, 53, 82
2, 200333, Note_on_c, 0, 41, 77
2, 200353, Control_c, 0, 64, 40
2, 200369, Control_c, 0, 64, 104
2, 200377, Note_on_c, 0, 65, 0
2, 200381, Control_c, 0, 64, 127
2, 200389, Note_on_c, 0, 53, 0
2, 200397, Note_on_c, 0, 41, 0
2, 200565, Note_on_c, 0, 51, 83
2, 200565, Note_on_c, 0, 39, 75
2, 200573, Note_on_c, 0, 63, 78
2, 200601, Note_on_c, 0, 51, 0
2, 200613, Note_on_c, 0, 39, 0
2, 200621, Control_c, 0, 64, 72
2, 200633, Control_c, 0, 64, 24
2, 200637, Note_on_c, 0, 63, 0
2, 200649, Note_on_c, 0, 62, 90
2, 200649, Control_c, 0, 64, 0
2, 200661, Note_on_c, 0, 50, 85
2, 200669, Note_on_c, 0, 38, 78
2, 200693, Note_on_c, 0, 38, 0
2, 200701, Note_on_c, 0, 50, 0
2, 200737, Note_on_c, 0, 62, 0
2, 200849, Note_on_c, 0, 60, 86
2, 200853, Note_on_c, 0, 48, 80
2, 200873, Note_on_c, 0, 36, 59
2, 200889, Note_on_c, 0, 48, 0
2, 200897, Note_on_c, 0, 36, 0
2, 200953, Note_on_c, 0, 60, 0
2, 201025, Note_on_c, 0, 58, 85
2, 201041, Note_on_c, 0, 46, 89
2, 201049, Note_on_c, 0, 34, 82
2, 201069, Note_on_c, 0, 58, 0
2, 201085, Note_on_c, 0, 46, 0
2, 201089, Note_on_c, 0, 34, 0
2, 201229, Note_on_c, 0, 87, 77
2, 201281, Note_on_c, 0, 34, 53
2, 201285, Note_on_c, 0, 46, 85
2, 201305, Note_on_c, 0, 91, 103
2, 201309, Note_on_c, 0, 34, 0
2, 201309, Note_on_c, 0, 87, 0
2, 201317, Control_c, 0, 64, 40
2, 201321, Note_on_c, 0, 46, 0
2, 201329, Control_c, 0, 64, 104
2, 201345, Control_c, 0, 64, 127
2, 201353, Note_on_c, 0, 91, 0
2, 201509, Control_c, 0, 64, 88
2, 201525, Control_c, 0, 64, 0
2, 201529, Note_on_c, 0, 82, 88
2, 201529, Note_on_c, 0, 58, 71
2, 201533, Note_on_c, 0, 70, 82
2, 201533, Note_on_c, 0, 79, 85
2, 201533, Note_on_c, 0, 63, 64
2, 201557, Note_on_c, 0, 51, 51
2, 201581, Note_on_c, 0, 51, 0
2, 201585, Note_on_c, 0, 63, 0
2, 201593, Control_c, 0, 64, 40
2, 201597, Note_on_c, 0, 70, 0
2, 201609, Note_on_c, 0, 58, 0
2, 201609, Control_c, 0, 64, 104
2, 201625, Control_c, 0, 64, 127
2, 201645, Note_on_c, 0, 82, 0
2, 201693, Note_on_c, 0, 79, 0
2, 201765, Note_on_c, 0, 81, 84
2, 201765, Note_on_c, 0, 78, 60
2, 201765, Note_on_c, 0, 69, 60
2, 201785, Note_on_c, 0, 57, 67
2, 201785, Note_on_c, 0, 63, 72
2, 201805, Control_c, 0, 64, 88
2, 201809, Note_on_c, 0, 57, 0
2, 201809, Note_on_c, 0, 69, 0
2, 201809, Note_on_c, 0, 78, 0
2, 201813, Note_on_c, 0, 81, 0
2, 201813, Note_on_c, 0, 51, 35
2, 201817, Note_on_c, 0, 63, 0
2, 201821, Control_c, 0, 64, 40
2, 201829, Control_c, 0, 64, 0
2, 201833, Note_on_c, 0, 51, 0
2, 201849, Note_on_c, 0, 82, 97
2, 201849, Note_on_c, 0, 70, 87
2, 201849, Note_on_c, 0, 79, 65
2, 201861, Note_on_c, 0, 63, 72
2, 201861, Note_on_c, 0, 51, 63
2, 201869, Note_on_c, 0, 58, 71
2, 201893, Note_on_c, 0, 79, 0
2, 201893, Note_on_c, 0, 70, 0
2, 201917, Note_on_c, 0, 63, 0
2, 201921, Note_on_c, 0, 51, 0
2, 201929, Note_on_c, 0, 58, 0
2, 201969, Note_on_c, 0, 82, 0
2, 202025, Note_on_c, 0, 51, 69
2, 202029, Note_on_c, 0, 84, 102
2, 202029, Note_on_c, 0, 63, 70
2, 202029, Note_on_c, 0, 58, 57
2, 202029, Note_on_c, 0, 79, 65
2, 202033, Note_on_c, 0, 72, 88
2, 202073, Note_on_c, 0, 79, 0
2, 202081, Note_on_c, 0, 72, 0
2, 202093, Note_on_c, 0, 51, 0
2, 202105, Note_on_c, 0, 84, 0
2, 202105, Note_on_c, 0, 63, 0
2, 202105, Note_on_c, 0, 58, 0
2, 202197, Note_on_c, 0, 58, 72
2, 202197, Note_on_c, 0, 85, 90
2, 202197, Note_on_c, 0, 64, 80
2, 202205, Note_on_c, 0, 73, 92
2, 202205, Note_on_c, 0, 52, 66
2, 202213, Note_on_c, 0, 82, 63
2, 202229, Note_on_c, 0, 52, 0
2, 202237, Note_on_c, 0, 82, 0
2, 202249, Note_on_c, 0, 73, 0
2, 202257, Note_on_c, 0, 64, 0
2, 202281, Note_on_c, 0, 85, 0
2, 202289, Note_on_c, 0, 58, 0
2, 202369, Note_on_c, 0, 74, 74
2, 202369, Note_on_c, 0, 86, 85
2, 202369, Note_on_c, 0, 58, 62
2, 202369, Note_on_c, 0, 82, 65
2, 202373, Note_on_c, 0, 65, 81
2, 202381, Note_on_c, 0, 53, 74
2, 202397, Note_on_c, 0, 65, 0
2, 202413, Note_on_c, 0, 82, 0
2, 202417, Control_c, 0, 64, 56
2, 202421, Note_on_c, 0, 58, 0
2, 202429, Note_on_c, 0, 74, 0
2, 202429, Control_c, 0, 64, 104
2, 202433, Note_on_c, 0, 53, 0
2, 202445, Control_c, 0, 64, 127
2, 202465, Note_on_c, 0, 89, 100
2, 202473, Note_on_c, 0, 86, 0
2, 202501, Note_on_c, 0, 89, 0
2, 202513, Control_c, 0, 64, 104
2, 202529, Control_c, 0, 64, 72
2, 202541, Control_c, 0, 64, 0
2, 202621, Note_on_c, 0, 65, 96
2, 202625, Note_on_c, 0, 53, 82
2, 202629, Note_on_c, 0, 41, 70
2, 202641, Control_c, 0, 64, 88
2, 202657, Control_c, 0, 64, 127
2, 202677, Note_on_c, 0, 53, 0
2, 202685, Note_on_c, 0, 65, 0
2, 202689, Note_on_c, 0, 41, 0
2, 202865, Note_on_c, 0, 51, 77
2, 202869, Note_on_c, 0, 63, 75
2, 202869, Note_on_c, 0, 39, 69
2, 202893, Note_on_c, 0, 39, 0
2, 202893, Note_on_c, 0, 51, 0
2, 202921, Control_c, 0, 64, 104
2, 202933, Control_c, 0, 64, 56
2, 202945, Note_on_c, 0, 63, 0
2, 202949, Note_on_c, 0, 62, 83
2, 202949, Control_c, 0, 64, 24
2, 202957, Note_on_c, 0, 50, 82
2, 202961, Control_c, 0, 64, 0
2, 202969, Note_on_c, 0, 38, 68
2, 202993, Note_on_c, 0, 38, 0
2, 202997, Note_on_c, 0, 50, 0
2, 203025, Note_on_c, 0, 62, 0
2, 203153, Note_on_c, 0, 60, 75
2, 203157, Note_on_c, 0, 48, 76
2, 203173, Note_on_c, 0, 36, 48
2, 203189, Note_on_c, 0, 48, 0
2, 203201, Note_on_c, 0, 36, 0
2, 203237, Note_on_c, 0, 60, 0
2, 203337, Note_on_c, 0, 58, 74
2, 203353, Note_on_c, 0, 46, 79
2, 203361, Note_on_c, 0, 34, 72
2, 203381, Note_on_c, 0, 58, 0
2, 203401, Note_on_c, 0, 46, 0
2, 203409, Note_on_c, 0, 34, 0
2, 203569, Note_on_c, 0, 79, 81
2, 203585, Note_on_c, 0, 34, 46
2, 203589, Note_on_c, 0, 46, 47
2, 203609, Note_on_c, 0, 34, 0
2, 203625, Note_on_c, 0, 46, 0
2, 203633, Control_c, 0, 64, 24
2, 203645, Note_on_c, 0, 79, 0
2, 203645, Control_c, 0, 64, 72
2, 203649, Note_on_c, 0, 82, 80
2, 203661, Control_c, 0, 64, 104
2, 203673, Control_c, 0, 64, 127
2, 203705, Note_on_c, 0, 82, 0
2, 203837, Control_c, 0, 64, 104
2, 203853, Control_c, 0, 64, 56
2, 203857, Note_on_c, 0, 75, 74
2, 203869, Control_c, 0, 64, 0
2, 203877, Note_on_c, 0, 58, 42
2, 203881, Note_on_c, 0, 55, 51
2, 203885, Note_on_c, 0, 63, 40
2, 203937, Note_on_c, 0, 75, 0
2, 203965, Note_on_c, 0, 55, 0
2, 203965, Control_c, 0, 64, 40
2, 203973, Note_on_c, 0, 63, 0
2, 203981, Control_c, 0, 64, 104
2, 203993, Control_c, 0, 64, 127
2, 203997, Note_on_c, 0, 58, 0
2, 204133, Control_c, 0, 64, 104
2, 204149, Control_c, 0, 64, 88
2, 204161, Control_c, 0, 64, 56
2, 204165, Note_on_c, 0, 72, 72
2, 204173, Control_c, 0, 64, 0
2, 204253, Note_on_c, 0, 72, 0
2, 204261, Note_on_c, 0, 70, 71
2, 204281, Note_on_c, 0, 34, 65
2, 204285, Note_on_c, 0, 46, 67
2, 204321, Note_on_c, 0, 34, 0
2, 204329, Note_on_c, 0, 46, 0
2, 204329, Note_on_c, 0, 70, 0
2, 204357, Control_c, 0, 64, 56
2, 204369, Control_c, 0, 64, 104
2, 204377, Note_on_c, 0, 74, 88
2, 204385, Control_c, 0, 64, 127
2, 204441, Note_on_c, 0, 74, 0
2, 204453, Control_c, 0, 64, 104
2, 204469, Control_c, 0, 64, 56
2, 204481, Control_c, 0, 64, 24
2, 204493, Control_c, 0, 64, 0
2, 204565, Note_on_c, 0, 67, 81
2, 204569, Note_on_c, 0, 62, 58
2, 204569, Note_on_c, 0, 53, 55
2, 204577, Note_on_c, 0, 58, 45
2, 204621, Control_c, 0, 64, 56
2, 204629, Note_on_c, 0, 62, 0
2, 204637, Note_on_c, 0, 53, 0
2, 204637, Control_c, 0, 64, 88
2, 204649, Note_on_c, 0, 58, 0
2, 204649, Control_c, 0, 64, 127
2, 204777, Note_on_c, 0, 67, 0
2, 204849, Note_on_c, 0, 65, 58
2, 204881, Note_on_c, 0, 65, 0
2, 204901, Control_c, 0, 64, 88
2, 204913, Control_c, 0, 64, 24
2, 204929, Control_c, 0, 64, 0
2, 204949, Note_on_c, 0, 64, 70
2, 204985, Note_on_c, 0, 31, 63
2, 204993, Note_on_c, 0, 43, 59
2, 205009, Note_on_c, 0, 31, 0
2, 205013, Control_c, 0, 64, 72
2, 205021, Note_on_c, 0, 64, 0
2, 205025, Control_c, 0, 64, 127
2, 205029, Note_on_c, 0, 70, 75
2, 205041, Note_on_c, 0, 43, 0
2, 205081, Control_c, 0, 64, 88
2, 205089, Note_on_c, 0, 70, 0
2, 205097, Control_c, 0, 64, 56
2, 205109, Control_c, 0, 64, 24
2, 205125, Control_c, 0, 64, 0
2, 205277, Note_on_c, 0, 69, 67
2, 205281, Note_on_c, 0, 61, 47
2, 205293, Note_on_c, 0, 52, 57
2, 205345, Control_c, 0, 64, 56
2, 205357, Note_on_c, 0, 52, 0
2, 205361, Note_on_c, 0, 61, 0
2, 205361, Control_c, 0, 64, 104
2, 205373, Control_c, 0, 64, 127
2, 205533, Note_on_c, 0, 69, 0
2, 205613, Note_on_c, 0, 67, 62
2, 205665, Note_on_c, 0, 67, 0
2, 205713, Note_on_c, 0, 66, 62
2, 205721, Control_c, 0, 64, 72
2, 205737, Control_c, 0, 64, 0
2, 205801, Note_on_c, 0, 45, 48
2, 205805, Note_on_c, 0, 33, 42
2, 205813, Note_on_c, 0, 75, 75
2, 205817, Note_on_c, 0, 66, 0
2, 205833, Control_c, 0, 64, 24
2, 205837, Note_on_c, 0, 33, 0
2, 205849, Control_c, 0, 64, 88
2, 205861, Control_c, 0, 64, 127
2, 205873, Note_on_c, 0, 45, 0
2, 205889, Note_on_c, 0, 75, 0
2, 205917, Control_c, 0, 64, 104
2, 205933, Control_c, 0, 64, 72
2, 205945, Control_c, 0, 64, 40
2, 205961, Control_c, 0, 64, 24
2, 205973, Control_c, 0, 64, 0
2, 206121, Note_on_c, 0, 74, 63
2, 206149, Note_on_c, 0, 60, 45
2, 206149, Note_on_c, 0, 54, 34
2, 206165, Note_on_c, 0, 51, 30
2, 206309, Note_on_c, 0, 60, 0
2, 206321, Control_c, 0, 64, 40
2, 206337, Control_c, 0, 64, 72
2, 206349, Note_on_c, 0, 51, 0
2, 206349, Note_on_c, 0, 54, 0
2, 206349, Control_c, 0, 64, 104
2, 206401, Note_on_c, 0, 74, 0
2, 206405, Control_c, 0, 64, 127
2, 206505, Note_on_c, 0, 72, 63
2, 206577, Note_on_c, 0, 72, 0
2, 206685, Control_c, 0, 64, 72
2, 206689, Note_on_c, 0, 69, 58
2, 206697, Control_c, 0, 64, 0
2, 206753, Note_on_c, 0, 41, 48
2, 206765, Note_on_c, 0, 69, 0
2, 206777, Note_on_c, 0, 75, 74
2, 206797, Note_on_c, 0, 41, 0
2, 206797, Control_c, 0, 64, 24
2, 206809, Control_c, 0, 64, 56
2, 206841, Note_on_c, 0, 75, 0
2, 206865, Control_c, 0, 64, 24
2, 206877, Control_c, 0, 64, 0
2, 207045, Note_on_c, 0, 63, 43
2, 207053, Note_on_c, 0, 72, 68
2, 207065, Note_on_c, 0, 57, 43
2, 207065, Note_on_c, 0, 53, 47
2, 207089, Control_c, 0, 64, 40
2, 207101, Control_c, 0, 64, 88
2, 207117, Control_c, 0, 64, 127
2, 207121, Note_on_c, 0, 57, 0
2, 207129, Note_on_c, 0, 53, 0
2, 207241, Note_on_c, 0, 72, 0
2, 207329, Note_on_c, 0, 71, 54
2, 207381, Control_c, 0, 64, 104
2, 207385, Note_on_c, 0, 72, 82
2, 207393, Note_on_c, 0, 71, 0
2, 207397, Control_c, 0, 64, 56
2, 207409, Control_c, 0, 64, 0
2, 207413, Note_on_c, 0, 53, 48
2, 207425, Note_on_c, 0, 57, 33
2, 207441, Note_on_c, 0, 53, 0
2, 207453, Note_on_c, 0, 57, 0
2, 207469, Note_on_c, 0, 72, 0
2, 207593, Note_on_c, 0, 74, 78
2, 207593, Note_on_c, 0, 53, 64
2, 207601, Note_on_c, 0, 57, 48
2, 207633, Note_on_c, 0, 57, 0
2, 207641, Note_on_c, 0, 53, 0
2, 207657, Note_on_c, 0, 63, 0
2, 207685, Note_on_c, 0, 74, 0
2, 207765, Note_on_c, 0, 75, 79
2, 207769, Note_on_c, 0, 57, 51
2, 207797, Note_on_c, 0, 57, 0
2, 207809, Note_on_c, 0, 75, 0
2, 207869, Note_on_c, 0, 75, 87
2, 207917, Note_on_c, 0, 75, 0
2, 208009, Note_on_c, 0, 91, 96
2, 208033, Note_on_c, 0, 41, 52
2, 208053, Note_on_c, 0, 91, 0
2, 208053, Control_c, 0, 64, 56
2, 208065, Control_c, 0, 64, 104
2, 208069, Note_on_c, 0, 41, 0
2, 208077, Control_c, 0, 64, 127
2, 208289, Control_c, 0, 64, 104
2, 208301, Control_c, 0, 64, 56
2, 208317, Control_c, 0, 64, 0
2, 208321, Note_on_c, 0, 72, 74
2, 208321, Note_on_c, 0, 63, 45
2, 208329, Note_on_c, 0, 57, 49
2, 208333, Note_on_c, 0, 53, 45
2, 208373, Control_c, 0, 64, 24
2, 208385, Control_c, 0, 64, 88
2, 208401, Control_c, 0, 64, 127
2, 208413, Note_on_c, 0, 57, 0
2, 208421, Note_on_c, 0, 53, 0
2, 208489, Note_on_c, 0, 72, 0
2, 208565, Note_on_c, 0, 71, 66
2, 208625, Note_on_c, 0, 72, 82
2, 208625, Control_c, 0, 64, 72
2, 208633, Note_on_c, 0, 71, 0
2, 208637, Control_c, 0, 64, 40
2, 208649, Note_on_c, 0, 53, 53
2, 208653, Note_on_c, 0, 57, 44
2, 208653, Control_c, 0, 64, 0
2, 208681, Note_on_c, 0, 57, 0
2, 208681, Note_on_c, 0, 53, 0
2, 208685, Note_on_c, 0, 63, 0
2, 208717, Note_on_c, 0, 72, 0
2, 208805, Note_on_c, 0, 74, 84
2, 208813, Note_on_c, 0, 63, 61
2, 208817, Note_on_c, 0, 53, 63
2, 208821, Note_on_c, 0, 57, 52
2, 208849, Note_on_c, 0, 57, 0
2, 208849, Note_on_c, 0, 53, 0
2, 208857, Note_on_c, 0, 63, 0
2, 208877, Note_on_c, 0, 74, 0
2, 208965, Note_on_c, 0, 75, 79
2, 208973, Note_on_c, 0, 53, 60
2, 208973, Note_on_c, 0, 57, 54
2, 208993, Note_on_c, 0, 53, 0
2, 209001, Note_on_c, 0, 57, 0
2, 209025, Note_on_c, 0, 75, 0
2, 209085, Note_on_c, 0, 75, 74
2, 209137, Note_on_c, 0, 75, 0
2, 209169, Note_on_c, 0, 82, 81
2, 209169, Note_on_c, 0, 46, 60
2, 209201, Note_on_c, 0, 46, 0
2, 209209, Control_c, 0, 64, 56
2, 209213, Note_on_c, 0, 82, 0
2, 209221, Control_c, 0, 64, 88
2, 209237, Control_c, 0, 64, 127
2, 209321, Control_c, 0, 64, 88
2, 209333, Control_c, 0, 64, 72
2, 209349, Control_c, 0, 64, 56
2, 209361, Control_c, 0, 64, 24
2, 209377, Control_c, 0, 64, 0
2, 209417, Note_on_c, 0, 70, 73
2, 209425, Note_on_c, 0, 62, 53
2, 209433, Note_on_c, 0, 58, 35
2, 209445, Note_on_c, 0, 53, 52
2, 209473, Control_c, 0, 64, 40
2, 209485, Control_c, 0, 64, 104
2, 209501, Control_c, 0, 64, 127
2, 209581, Note_on_c, 0, 70, 0
2, 209601, Note_on_c, 0, 58, 0
2, 209605, Note_on_c, 0, 53, 0
2, 209665, Note_on_c, 0, 69, 72
2, 209697, Control_c, 0, 64, 104
2, 209709, Control_c, 0, 64, 56
2, 209717, Note_on_c, 0, 70, 70
2, 209721, Note_on_c, 0, 58, 51
2, 209725, Control_c, 0, 64, 24
2, 209729, Note_on_c, 0, 69, 0
2, 209729, Note_on_c, 0, 53, 62
2, 209737, Control_c, 0, 64, 0
2, 209757, Note_on_c, 0, 53, 0
2, 209777, Note_on_c, 0, 58, 0
2, 209789, Note_on_c, 0, 62, 0
2, 209809, Note_on_c, 0, 70, 0
2, 209885, Note_on_c, 0, 72, 87
2, 209901, Note_on_c, 0, 58, 57
2, 209901, Note_on_c, 0, 62, 55
2, 209905, Note_on_c, 0, 53, 68
2, 209937, Note_on_c, 0, 62, 0
2, 209941, Note_on_c, 0, 53, 0
2, 209953, Note_on_c, 0, 58, 0
2, 210013, Note_on_c, 0, 72, 0
2, 210041, Note_on_c, 0, 74, 88
2, 210053, Note_on_c, 0, 58, 50
2, 210097, Note_on_c, 0, 74, 0
2, 210153, Note_on_c, 0, 74, 96
2, 210201, Note_on_c, 0, 74, 0
2, 210237, Note_on_c, 0, 46, 60
2, 210245, Note_on_c, 0, 89, 100
2, 210257, Note_on_c, 0, 46, 0
2, 210257, Note_on_c, 0, 58, 0
2, 210257, Control_c, 0, 64, 56
2, 210269, Control_c, 0, 64, 88
2, 210281, Control_c, 0, 64, 104
2, 210285, Note_on_c, 0, 89, 0
2, 210353, Control_c, 0, 64, 88
2, 210365, Control_c, 0, 64, 72
2, 210381, Control_c, 0, 64, 40
2, 210393, Control_c, 0, 64, 0
2, 210437, Note_on_c, 0, 65, 103
2, 210469, Note_on_c, 0, 53, 87
2, 210477, Note_on_c, 0, 41, 75
2, 210489, Control_c, 0, 64, 40
2, 210505, Control_c, 0, 64, 104
2, 210521, Control_c, 0, 64, 127
2, 210525, Note_on_c, 0, 53, 0
2, 210541, Note_on_c, 0, 41, 0
2, 210625, Note_on_c, 0, 65, 0
2, 210689, Note_on_c, 0, 63, 85
2, 210693, Note_on_c, 0, 51, 87
2, 210693, Note_on_c, 0, 39, 76
2, 210713, Control_c, 0, 64, 88
2, 210729, Note_on_c, 0, 51, 0
2, 210729, Control_c, 0, 64, 56
2, 210737, Note_on_c, 0, 39, 0
2, 210741, Control_c, 0, 64, 0
2, 210749, Note_on_c, 0, 63, 0
2, 210765, Note_on_c, 0, 62, 100
2, 210781, Note_on_c, 0, 50, 96
2, 210789, Note_on_c, 0, 38, 84
2, 210813, Note_on_c, 0, 38, 0
2, 210829, Note_on_c, 0, 50, 0
2, 210845, Note_on_c, 0, 62, 0
2, 210965, Note_on_c, 0, 60, 94
2, 210965, Note_on_c, 0, 48, 89
2, 210977, Note_on_c, 0, 36, 77
2, 211001, Note_on_c, 0, 36, 0
2, 211009, Note_on_c, 0, 48, 0
2, 211089, Note_on_c, 0, 60, 0
2, 211145, Note_on_c, 0, 58, 82
2, 211153, Note_on_c, 0, 46, 81
2, 211161, Note_on_c, 0, 34, 58
2, 211161, Control_c, 0, 64, 24
2, 211173, Control_c, 0, 64, 40
2, 211177, Note_on_c, 0, 46, 0
2, 211181, Note_on_c, 0, 34, 0
2, 211189, Note_on_c, 0, 58, 0
2, 211261, Control_c, 0, 64, 24
2, 211273, Control_c, 0, 64, 0
2, 211385, Note_on_c, 0, 81, 66
2, 211413, Note_on_c, 0, 41, 59
2, 211421, Note_on_c, 0, 53, 63
2, 211441, Note_on_c, 0, 41, 0
2, 211441, Note_on_c, 0, 87, 86
2, 211441, Control_c, 0, 64, 24
2, 211453, Control_c, 0, 64, 56
2, 211457, Note_on_c, 0, 81, 0
2, 211465, Note_on_c, 0, 53, 0
2, 211509, Control_c, 0, 64, 88
2, 211529, Note_on_c, 0, 87, 0
2, 211537, Control_c, 0, 64, 104
2, 211649, Control_c, 0, 64, 72
2, 211665, Control_c, 0, 64, 40
2, 211677, Control_c, 0, 64, 0
2, 211693, Note_on_c, 0, 84, 78
2, 211697, Note_on_c, 0, 75, 50
2, 211705, Note_on_c, 0, 69, 58
2, 211709, Note_on_c, 0, 65, 56
2, 211789, Control_c, 0, 64, 40
2, 211801, Control_c, 0, 64, 104
2, 211813, Control_c, 0, 64, 127
2, 211917, Note_on_c, 0, 84, 0
2, 211921, Note_on_c, 0, 65, 0
2, 211925, Note_on_c, 0, 69, 0
2, 211949, Note_on_c, 0, 83, 71
2, 212013, Control_c, 0, 64, 72
2, 212017, Note_on_c, 0, 84, 85
2, 212025, Control_c, 0, 64, 24
2, 212037, Note_on_c, 0, 83, 0
2, 212037, Note_on_c, 0, 65, 63
2, 212037, Note_on_c, 0, 69, 60
2, 212041, Control_c, 0, 64, 0
2, 212077, Note_on_c, 0, 69, 0
2, 212089, Note_on_c, 0, 65, 0
2, 212105, Note_on_c, 0, 84, 0
2, 212197, Note_on_c, 0, 86, 76
2, 212201, Note_on_c, 0, 65, 59
2, 212209, Note_on_c, 0, 69, 58
2, 212237, Note_on_c, 0, 69, 0
2, 212237, Note_on_c, 0, 65, 0
2, 212249, Note_on_c, 0, 75, 0
2, 212265, Note_on_c, 0, 86, 0
2, 212337, Note_on_c, 0, 87, 84
2, 212345, Note_on_c, 0, 69, 58
2, 212345, Note_on_c, 0, 65, 45
2, 212345, Control_c, 0, 64, 24
2, 212361, Control_c, 0, 64, 72
2, 212369, Note_on_c, 0, 69, 0
2, 212373, Control_c, 0, 64, 104
2, 212389, Control_c, 0, 64, 127
2, 212393, Note_on_c, 0, 65, 0
2, 212397, Note_on_c, 0, 87, 0
2, 212445, Note_on_c, 0, 87, 89
2, 212505, Note_on_c, 0, 87, 0
2, 212513, Control_c, 0, 64, 88
2, 212529, Control_c, 0, 64, 56
2, 212541, Control_c, 0, 64, 0
2, 212585, Note_on_c, 0, 103, 99
2, 212605, Note_on_c, 0, 60, 53
2, 212621, Note_on_c, 0, 53, 55
2, 212625, Note_on_c, 0, 103, 0
2, 212641, Control_c, 0, 64, 72
2, 212649, Note_on_c, 0, 53, 0
2, 212653, Control_c, 0, 64, 127
2, 212665, Note_on_c, 0, 60, 0
2, 212889, Control_c, 0, 64, 104
2, 212893, Note_on_c, 0, 84, 81
2, 212901, Note_on_c, 0, 75, 44
2, 212901, Control_c, 0, 64, 40
2, 212909, Note_on_c, 0, 69, 45
2, 212913, Note_on_c, 0, 65, 49
2, 212917, Control_c, 0, 64, 0
2, 212989, Control_c, 0, 64, 56
2, 213001, Control_c, 0, 64, 127
2, 213061, Note_on_c, 0, 65, 0
2, 213065, Note_on_c, 0, 69, 0
2, 213109, Note_on_c, 0, 84, 0
2, 213145, Note_on_c, 0, 83, 73
2, 213197, Control_c, 0, 64, 104
2, 213213, Note_on_c, 0, 84, 83
2, 213213, Control_c, 0, 64, 72
2, 213217, Note_on_c, 0, 65, 55
2, 213221, Control_c, 0, 64, 24
2, 213225, Note_on_c, 0, 69, 49
2, 213237, Note_on_c, 0, 83, 0
2, 213241, Control_c, 0, 64, 0
2, 213257, Note_on_c, 0, 69, 0
2, 213265, Note_on_c, 0, 65, 0
2, 213317, Note_on_c, 0, 84, 0
2, 213397, Note_on_c, 0, 86, 88
2, 213405, Note_on_c, 0, 65, 64
2, 213413, Note_on_c, 0, 69, 51
2, 213441, Note_on_c, 0, 69, 0
2, 213445, Note_on_c, 0, 65, 0
2, 213481, Note_on_c, 0, 86, 0
2, 213561, Note_on_c, 0, 75, 0
2, 213561, Note_on_c, 0, 87, 80
2, 213569, Note_on_c, 0, 69, 62
2, 213581, Note_on_c, 0, 65, 39
2, 213605, Note_on_c, 0, 69, 0
2, 213609, Note_on_c, 0, 65, 0
2, 213617, Note_on_c, 0, 87, 0
2, 213665, Note_on_c, 0, 87, 85
2, 213729, Note_on_c, 0, 87, 0
2, 213761, Note_on_c, 0, 94, 88
2, 213769, Control_c, 0, 64, 56
2, 213773, Note_on_c, 0, 58, 46
2, 213781, Control_c, 0, 64, 104
2, 213797, Control_c, 0, 64, 127
2, 213805, Note_on_c, 0, 58, 0
2, 213817, Note_on_c, 0, 94, 0
2, 214005, Control_c, 0, 64, 72
2, 214009, Note_on_c, 0, 82, 77
2, 214021, Control_c, 0, 64, 0
2, 214033, Note_on_c, 0, 70, 45
2, 214037, Note_on_c, 0, 65, 54
2, 214041, Note_on_c, 0, 74, 42
2, 214077, Note_on_c, 0, 74, 0
2, 214105, Note_on_c, 0, 65, 0
2, 214105, Control_c, 0, 64, 72
2, 214117, Control_c, 0, 64, 127
2, 214125, Note_on_c, 0, 70, 0
2, 214189, Note_on_c, 0, 82, 0
2, 214277, Note_on_c, 0, 81, 80
2, 214313, Note_on_c, 0, 70, 49
2, 214313, Control_c, 0, 64, 104
2, 214325, Note_on_c, 0, 65, 52
2, 214325, Control_c, 0, 64, 72
2, 214341, Control_c, 0, 64, 40
2, 214353, Note_on_c, 0, 82, 78
2, 214353, Control_c, 0, 64, 0
2, 214357, Note_on_c, 0, 65, 0
2, 214357, Note_on_c, 0, 81, 0
2, 214373, Note_on_c, 0, 70, 0
2, 214441, Note_on_c, 0, 82, 0
2, 214505, Note_on_c, 0, 84, 71
2, 214521, Note_on_c, 0, 70, 61
2, 214525, Note_on_c, 0, 65, 63
2, 214561, Note_on_c, 0, 65, 0
2, 214577, Note_on_c, 0, 70, 0
2, 214661, Note_on_c, 0, 86, 84
2, 214677, Note_on_c, 0, 70, 62
2, 214697, Note_on_c, 0, 65, 49
2, 214705, Note_on_c, 0, 86, 0
2, 214705, Control_c, 0, 64, 40
2, 214709, Note_on_c, 0, 84, 0
2, 214717, Control_c, 0, 64, 72
2, 214729, Note_on_c, 0, 65, 0
2, 214729, Control_c, 0, 64, 88
2, 214745, Control_c, 0, 64, 104
2, 214773, Note_on_c, 0, 86, 97
2, 214813, Control_c, 0, 64, 24
2, 214829, Control_c, 0, 64, 0
2, 214837, Note_on_c, 0, 86, 0
2, 214865, Note_on_c, 0, 101, 103
2, 214865, Note_on_c, 0, 58, 61
2, 214865, Note_on_c, 0, 65, 65
2, 214885, Control_c, 0, 64, 24
2, 214897, Note_on_c, 0, 101, 0
2, 214897, Note_on_c, 0, 70, 0
2, 214897, Control_c, 0, 64, 72
2, 214913, Note_on_c, 0, 65, 0
2, 214913, Control_c, 0, 64, 127
2, 214917, Note_on_c, 0, 58, 0
2, 215049, Control_c, 0, 64, 56
2, 215065, Control_c, 0, 64, 0
2, 215081, Note_on_c, 0, 77, 105
2, 215097, Note_on_c, 0, 65, 79
2, 215113, Note_on_c, 0, 53, 77
2, 215149, Control_c, 0, 64, 56
2, 215161, Control_c, 0, 64, 127
2, 215169, Note_on_c, 0, 53, 0
2, 215169, Note_on_c, 0, 65, 0
2, 215257, Note_on_c, 0, 77, 0
2, 215313, Note_on_c, 0, 63, 77
2, 215321, Note_on_c, 0, 51, 81
2, 215321, Note_on_c, 0, 75, 87
2, 215341, Note_on_c, 0, 51, 0
2, 215353, Note_on_c, 0, 63, 0
2, 215357, Control_c, 0, 64, 72
2, 215373, Control_c, 0, 64, 24
2, 215385, Note_on_c, 0, 75, 0
2, 215385, Control_c, 0, 64, 0
2, 215397, Note_on_c, 0, 74, 103
2, 215401, Note_on_c, 0, 62, 88
2, 215421, Note_on_c, 0, 50, 81
2, 215445, Note_on_c, 0, 50, 0
2, 215445, Note_on_c, 0, 62, 0
2, 215497, Note_on_c, 0, 74, 0
2, 215589, Note_on_c, 0, 60, 90
2, 215593, Note_on_c, 0, 72, 97
2, 215605, Note_on_c, 0, 48, 82
2, 215629, Note_on_c, 0, 48, 0
2, 215637, Note_on_c, 0, 60, 0
2, 215713, Note_on_c, 0, 72, 0
2, 215789, Control_c, 0, 64, 24
2, 215801, Note_on_c, 0, 70, 93
2, 215805, Note_on_c, 0, 58, 86
2, 215805, Control_c, 0, 64, 72
2, 215813, Note_on_c, 0, 46, 81
2, 215817, Control_c, 0, 64, 127
2, 215841, Note_on_c, 0, 46, 0
2, 215849, Note_on_c, 0, 58, 0
2, 215861, Note_on_c, 0, 70, 0
2, 215957, Control_c, 0, 64, 104
2, 215973, Control_c, 0, 64, 88
2, 216001, Control_c, 0, 64, 72
2, 216009, Control_c, 0, 64, 40
2, 216013, Note_on_c, 0, 87, 84
2, 216029, Control_c, 0, 64, 0
2, 216077, Note_on_c, 0, 87, 0
2, 216089, Note_on_c, 0, 46, 99
2, 216089, Note_on_c, 0, 34, 93
2, 216097, Note_on_c, 0, 91, 98
2, 216125, Note_on_c, 0, 46, 0
2, 216125, Control_c, 0, 64, 56
2, 216133, Note_on_c, 0, 34, 0
2, 216137, Control_c, 0, 64, 127
2, 216145, Note_on_c, 0, 91, 0
2, 216321, Control_c, 0, 64, 72
2, 216333, Note_on_c, 0, 82, 91
2, 216333, Control_c, 0, 64, 0
2, 216337, Note_on_c, 0, 58, 67
2, 216341, Note_on_c, 0, 79, 90
2, 216341, Note_on_c, 0, 63, 74
2, 216349, Note_on_c, 0, 70, 65
2, 216353, Note_on_c, 0, 51, 62
2, 216373, Note_on_c, 0, 70, 0
2, 216393, Note_on_c, 0, 63, 0
2, 216405, Note_on_c, 0, 79, 0
2, 216405, Control_c, 0, 64, 40
2, 216413, Note_on_c, 0, 58, 0
2, 216417, Control_c, 0, 64, 88
2, 216433, Control_c, 0, 64, 127
2, 216437, Note_on_c, 0, 51, 0
2, 216441, Note_on_c, 0, 82, 0
2, 216577, Note_on_c, 0, 81, 74
2, 216577, Note_on_c, 0, 57, 75
2, 216577, Note_on_c, 0, 78, 57
2, 216593, Note_on_c, 0, 63, 67
2, 216601, Note_on_c, 0, 78, 0
2, 216601, Note_on_c, 0, 81, 0
2, 216601, Control_c, 0, 64, 104
2, 216609, Note_on_c, 0, 57, 0
2, 216613, Note_on_c, 0, 63, 0
2, 216613, Control_c, 0, 64, 56
2, 216629, Control_c, 0, 64, 24
2, 216641, Control_c, 0, 64, 0
2, 216645, Note_on_c, 0, 82, 97
2, 216645, Note_on_c, 0, 70, 90
2, 216645, Note_on_c, 0, 79, 60
2, 216653, Note_on_c, 0, 51, 60
2, 216665, Note_on_c, 0, 63, 60
2, 216669, Note_on_c, 0, 58, 71
2, 216693, Note_on_c, 0, 79, 0
2, 216705, Note_on_c, 0, 70, 0
2, 216737, Note_on_c, 0, 51, 0
2, 216741, Note_on_c, 0, 63, 0
2, 216745, Note_on_c, 0, 58, 0
2, 216781, Note_on_c, 0, 82, 0
2, 216825, Note_on_c, 0, 63, 73
2, 216825, Note_on_c, 0, 51, 70
2, 216833, Note_on_c, 0, 58, 62
2, 216833, Note_on_c, 0, 84, 96
2, 216833, Note_on_c, 0, 79, 60
2, 216841, Note_on_c, 0, 72, 82
2, 216877, Note_on_c, 0, 72, 0
2, 216881, Note_on_c, 0, 79, 0
2, 216889, Note_on_c, 0, 51, 0
2, 216905, Note_on_c, 0, 63, 0
2, 216905, Note_on_c, 0, 84, 0
2, 216913, Note_on_c, 0, 58, 0
2, 216997, Note_on_c, 0, 58, 70
2, 217001, Note_on_c, 0, 64, 76
2, 217005, Note_on_c, 0, 85, 86
2, 217005, Note_on_c, 0, 79, 60
2, 217009, Note_on_c, 0, 73, 86
2, 217021, Note_on_c, 0, 52, 28
2, 217053, Note_on_c, 0, 52, 0
2, 217053, Note_on_c, 0, 79, 0
2, 217053, Note_on_c, 0, 73, 0
2, 217061, Note_on_c, 0, 64, 0
2, 217077, Note_on_c, 0, 58, 0
2, 217093, Note_on_c, 0, 85, 0
2, 217169, Note_on_c, 0, 74, 85
2, 217177, Note_on_c, 0, 58, 71
2, 217181, Note_on_c, 0, 86, 82
2, 217185, Note_on_c, 0, 65, 81
2, 217189, Note_on_c, 0, 53, 77
2, 217189, Note_on_c, 0, 82, 54
2, 217213, Control_c, 0, 64, 40
2, 217217, Note_on_c, 0, 74, 0
2, 217225, Note_on_c, 0, 65, 0
2, 217225, Note_on_c, 0, 58, 0
2, 217229, Control_c, 0, 64, 88
2, 217241, Control_c, 0, 64, 127
2, 217245, Note_on_c, 0, 53, 0
2, 217245, Note_on_c, 0, 82, 0
2, 217261, Note_on_c, 0, 89, 92
2, 217269, Note_on_c, 0, 86, 0
2, 217301, Note_on_c, 0, 89, 0
2, 217369, Control_c, 0, 64, 104
2, 217381, Control_c, 0, 64, 40
2, 217393, Control_c, 0, 64, 0
2, 217405, Note_on_c, 0, 65, 103
2, 217421, Note_on_c, 0, 53, 87
2, 217433, Note_on_c, 0, 41, 71
2, 217461, Control_c, 0, 64, 56
2, 217481, Control_c, 0, 64, 127
2, 217485, Note_on_c, 0, 65, 0
2, 217489, Note_on_c, 0, 53, 0
2, 217497, Note_on_c, 0, 41, 0
2, 217657, Note_on_c, 0, 51, 87
2, 217657, Note_on_c, 0, 63, 85
2, 217657, Note_on_c, 0, 39, 72
2, 217689, Control_c, 0, 64, 104
2, 217697, Note_on_c, 0, 51, 0
2, 217701, Note_on_c, 0, 39, 0
2, 217705, Control_c, 0, 64, 56
2, 217713, Control_c, 0, 64, 0
2, 217721, Note_on_c, 0, 63, 0
2, 217745, Note_on_c, 0, 62, 90
2, 217749, Note_on_c, 0, 50, 90
2, 217757, Note_on_c, 0, 38, 81
2, 217789, Note_on_c, 0, 50, 0
2, 217801, Note_on_c, 0, 38, 0
2, 217837, Note_on_c, 0, 62, 0
2, 217929, Note_on_c, 0, 60, 85
2, 217937, Note_on_c, 0, 48, 92
2, 217949, Note_on_c, 0, 36, 78
2, 217973, Note_on_c, 0, 36, 0
2, 217981, Note_on_c, 0, 48, 0
2, 218057, Note_on_c, 0, 60, 0
2, 218101, Note_on_c, 0, 58, 83
2, 218105, Control_c, 0, 64, 24
2, 218121, Control_c, 0, 64, 56
2, 218125, Note_on_c, 0, 46, 89
2, 218129, Note_on_c, 0, 34, 91
2, 218133, Control_c, 0, 64, 88
2, 218145, Note_on_c, 0, 58, 0
2, 218149, Control_c, 0, 64, 104
2, 218161, Note_on_c, 0, 46, 0
2, 218177, Note_on_c, 0, 34, 0
2, 218217, Control_c, 0, 64, 88
2, 218233, Control_c, 0, 64, 72
2, 218245, Control_c, 0, 64, 56
2, 218261, Control_c, 0, 64, 40
2, 218273, Control_c, 0, 64, 24
2, 218285, Control_c, 0, 64, 0
2, 218289, Note_on_c, 0, 87, 73
2, 218357, Note_on_c, 0, 87, 0
2, 218357, Note_on_c, 0, 34, 67
2, 218369, Note_on_c, 0, 46, 80
2, 218377, Note_on_c, 0, 91, 99
2, 218397, Control_c, 0, 64, 72
2, 218401, Note_on_c, 0, 46, 0
2, 218401, Note_on_c, 0, 34, 0
2, 218413, Note_on_c, 0, 91, 0
2, 218413, Control_c, 0, 64, 127
2, 218581, Control_c, 0, 64, 72
2, 218593, Control_c, 0, 64, 0
2, 218605, Note_on_c, 0, 82, 89
2, 218613, Note_on_c, 0, 79, 87
2, 218613, Note_on_c, 0, 70, 77
2, 218613, Note_on_c, 0, 58, 71
2, 218617, Note_on_c, 0, 63, 73
2, 218625, Note_on_c, 0, 51, 70
2, 218665, Note_on_c, 0, 70, 0
2, 218677, Control_c, 0, 64, 40
2, 218693, Control_c, 0, 64, 127
2, 218705, Note_on_c, 0, 58, 0
2, 218713, Note_on_c, 0, 63, 0
2, 218729, Note_on_c, 0, 51, 0
2, 218737, Note_on_c, 0, 82, 0
2, 218773, Note_on_c, 0, 79, 60
2, 218773, Note_on_c, 0, 79, 60
2, 218773, Note_on_c, 0, 79, 60
2, 218785, Note_on_c, 0, 79, 0
2, 218821, Note_on_c, 0, 79, 0
2, 218821, Note_on_c, 0, 79, 0
2, 218821, Note_on_c, 0, 79, 0
2, 218849, Note_on_c, 0, 81, 87
2, 218853, Note_on_c, 0, 57, 78
2, 218853, Note_on_c, 0, 78, 62
2, 218857, Note_on_c, 0, 69, 46
2, 218861, Note_on_c, 0, 63, 75
2, 218873, Note_on_c, 0, 81, 0
2, 218877, Note_on_c, 0, 57, 0
2, 218877, Note_on_c, 0, 78, 0
2, 218885, Note_on_c, 0, 69, 0
2, 218885, Note_on_c, 0, 63, 0
2, 218885, Control_c, 0, 64, 72
2, 218901, Control_c, 0, 64, 24
2, 218917, Control_c, 0, 64, 0
2, 218933, Note_on_c, 0, 82, 95
2, 218933, Note_on_c, 0, 70, 91
2, 218941, Note_on_c, 0, 51, 83
2, 218949, Note_on_c, 0, 63, 78
2, 218949, Note_on_c, 0, 58, 72
2, 218981, Note_on_c, 0, 70, 0
2, 219013, Note_on_c, 0, 63, 0
2, 219017, Note_on_c, 0, 58, 0
2, 219029, Note_on_c, 0, 51, 0
2, 219057, Note_on_c, 0, 82, 0
2, 219101, Note_on_c, 0, 51, 64
2, 219105, Note_on_c, 0, 63, 80
2, 219105, Note_on_c, 0, 84, 102
2, 219105, Note_on_c, 0, 79, 65
2, 219109, Note_on_c, 0, 58, 56
2, 219113, Note_on_c, 0, 72, 81
2, 219137, Note_on_c, 0, 72, 0
2, 219153, Note_on_c, 0, 79, 0
2, 219169, Note_on_c, 0, 51, 0
2, 219177, Note_on_c, 0, 84, 0
2, 219189, Note_on_c, 0, 58, 0
2, 219193, Note_on_c, 0, 63, 0
2, 219261, Note_on_c, 0, 58, 60
2, 219273, Note_on_c, 0, 64, 74
2, 219273, Note_on_c, 0, 85, 86
2, 219273, Note_on_c, 0, 79, 65
2, 219277, Note_on_c, 0, 52, 68
2, 219277, Note_on_c, 0, 73, 90
2, 219301, Note_on_c, 0, 52, 0
2, 219317, Note_on_c, 0, 64, 0
2, 219317, Note_on_c, 0, 73, 0
2, 219321, Note_on_c, 0, 79, 0
2, 219345, Note_on_c, 0, 58, 0
2, 219361, Note_on_c, 0, 85, 0
2, 219425, Note_on_c, 0, 74, 84
2, 219437, Note_on_c, 0, 86, 78
2, 219441, Note_on_c, 0, 58, 65
2, 219449, Note_on_c, 0, 65, 79
2, 219453, Note_on_c, 0, 53, 69
2, 219473, Note_on_c, 0, 65, 0
2, 219473, Note_on_c, 0, 74, 0
2, 219489, Note_on_c, 0, 58, 0
2, 219489, Control_c, 0, 64, 40
2, 219501, Control_c, 0, 64, 88
2, 219505, Note_on_c, 0, 53, 0
2, 219513, Note_on_c, 0, 89, 100
2, 219513, Control_c, 0, 64, 127
2, 219529, Note_on_c, 0, 86, 0
2, 219553, Note_on_c, 0, 89, 0
2, 219653, Control_c, 0, 64, 72
2, 219669, Control_c, 0, 64, 0
2, 219693, Note_on_c, 0, 65, 83
2, 219697, Note_on_c, 0, 53, 89
2, 219701, Note_on_c, 0, 41, 75
2, 219749, Note_on_c, 0, 53, 0
2, 219753, Control_c, 0, 64, 88
2, 219765, Control_c, 0, 64, 127
2, 219769, Note_on_c, 0, 41, 0
2, 219865, Note_on_c, 0, 65, 0
2, 219925, Note_on_c, 0, 51, 82
2, 219929, Note_on_c, 0, 39, 71
2, 219937, Note_on_c, 0, 63, 71
2, 219961, Note_on_c, 0, 51, 0
2, 219973, Control_c, 0, 64, 88
2, 219977, Note_on_c, 0, 39, 0
2, 219989, Control_c, 0, 64, 40
2, 219997, Note_on_c, 0, 63, 0
2, 220001, Control_c, 0, 64, 0
2, 220017, Note_on_c, 0, 62, 90
2, 220025, Note_on_c, 0, 50, 87
2, 220037, Note_on_c, 0, 38, 74
2, 220057, Note_on_c, 0, 38, 0
2, 220069, Note_on_c, 0, 50, 0
2, 220097, Note_on_c, 0, 62, 0
2, 220209, Note_on_c, 0, 48, 90
2, 220209, Note_on_c, 0, 60, 85
2, 220217, Note_on_c, 0, 36, 80
2, 220241, Note_on_c, 0, 36, 0
2, 220257, Note_on_c, 0, 48, 0
2, 220309, Note_on_c, 0, 60, 0
2, 220393, Note_on_c, 0, 58, 74
2, 220413, Note_on_c, 0, 46, 77
2, 220417, Note_on_c, 0, 34, 76
2, 220429, Note_on_c, 0, 58, 0
2, 220437, Control_c, 0, 64, 24
2, 220445, Note_on_c, 0, 34, 0
2, 220457, Note_on_c, 0, 46, 0
2, 220505, Control_c, 0, 64, 0
2, 220629, Note_on_c, 0, 79, 76
2, 220645, Note_on_c, 0, 34, 57
2, 220657, Note_on_c, 0, 46, 52
2, 220677, Note_on_c, 0, 34, 0
2, 220685, Note_on_c, 0, 46, 0
2, 220685, Control_c, 0, 64, 56
2, 220693, Note_on_c, 0, 79, 0
2, 220697, Control_c, 0, 64, 88
2, 220705, Note_on_c, 0, 82, 77
2, 220713, Control_c, 0, 64, 127
2, 220761, Note_on_c, 0, 82, 0
2, 220897, Control_c, 0, 64, 88
2, 220909, Note_on_c, 0, 75, 70
2, 220909, Control_c, 0, 64, 40
2, 220925, Control_c, 0, 64, 0
2, 220933, Note_on_c, 0, 55, 51
2, 220941, Note_on_c, 0, 58, 40
2, 220941, Note_on_c, 0, 63, 43
2, 220993, Note_on_c, 0, 75, 0
2, 221033, Note_on_c, 0, 55, 0
2, 221033, Control_c, 0, 64, 72
2, 221041, Note_on_c, 0, 63, 0
2, 221049, Control_c, 0, 64, 127
2, 221065, Note_on_c, 0, 58, 0
2, 221173, Control_c, 0, 64, 104
2, 221189, Control_c, 0, 64, 88
2, 221201, Control_c, 0, 64, 40
2, 221217, Note_on_c, 0, 72, 64
2, 221217, Control_c, 0, 64, 0
2, 221281, Note_on_c, 0, 72, 0
2, 221345, Note_on_c, 0, 70, 73
2, 221373, Note_on_c, 0, 46, 53
2, 221377, Note_on_c, 0, 34, 47
2, 221385, Control_c, 0, 64, 56
2, 221397, Control_c, 0, 64, 72
2, 221401, Note_on_c, 0, 34, 0
2, 221401, Note_on_c, 0, 46, 0
2, 221413, Control_c, 0, 64, 88
2, 221417, Note_on_c, 0, 70, 0
2, 221425, Note_on_c, 0, 74, 82
2, 221425, Control_c, 0, 64, 104
2, 221469, Control_c, 0, 64, 56
2, 221481, Note_on_c, 0, 74, 0
2, 221481, Control_c, 0, 64, 24
2, 221493, Control_c, 0, 64, 0
2, 221625, Note_on_c, 0, 53, 53
2, 221629, Note_on_c, 0, 67, 70
2, 221629, Note_on_c, 0, 62, 53
2, 221637, Note_on_c, 0, 58, 46
2, 221661, Control_c, 0, 64, 40
2, 221677, Control_c, 0, 64, 88
2, 221689, Control_c, 0, 64, 127
2, 221693, Note_on_c, 0, 53, 0
2, 221697, Note_on_c, 0, 62, 0
2, 221717, Note_on_c, 0, 58, 0
2, 221845, Note_on_c, 0, 67, 0
2, 221913, Control_c, 0, 64, 104
2, 221925, Note_on_c, 0, 65, 62
2, 221929, Control_c, 0, 64, 72
2, 221941, Control_c, 0, 64, 40
2, 221953, Control_c, 0, 64, 0
2, 221989, Note_on_c, 0, 65, 0
2, 222013, Note_on_c, 0, 64, 76
2, 222057, Note_on_c, 0, 31, 59
2, 222073, Note_on_c, 0, 43, 52
2, 222081, Note_on_c, 0, 31, 0
2, 222081, Control_c, 0, 64, 24
2, 222089, Note_on_c, 0, 64, 0
2, 222093, Note_on_c, 0, 70, 75
2, 222113, Note_on_c, 0, 43, 0
2, 222137, Control_c, 0, 64, 0
2, 222157, Note_on_c, 0, 70, 0
2, 222341, Note_on_c, 0, 69, 75
2, 222365, Note_on_c, 0, 61, 46
2, 222373, Note_on_c, 0, 52, 56
2, 222401, Control_c, 0, 64, 56
2, 222409, Note_on_c, 0, 52, 0
2, 222417, Control_c, 0, 64, 104
2, 222425, Note_on_c, 0, 61, 0
2, 222429, Control_c, 0, 64, 127
2, 222581, Note_on_c, 0, 69, 0
2, 222681, Control_c, 0, 64, 104
2, 222693, Control_c, 0, 64, 88
2, 222697, Note_on_c, 0, 67, 58
2, 222709, Control_c, 0, 64, 56
2, 222721, Control_c, 0, 64, 0
2, 222765, Note_on_c, 0, 67, 0
2, 222765, Note_on_c, 0, 66, 60
2, 222853, Note_on_c, 0, 33, 44
2, 222857, Note_on_c, 0, 45, 53
2, 222861, Note_on_c, 0, 75, 77
2, 222861, Control_c, 0, 64, 24
2, 222869, Note_on_c, 0, 66, 0
2, 222877, Control_c, 0, 64, 56
2, 222885, Note_on_c, 0, 33, 0
2, 222909, Note_on_c, 0, 45, 0
2, 222925, Note_on_c, 0, 75, 0
2, 222933, Control_c, 0, 64, 24
2, 222945, Control_c, 0, 64, 0
2, 223173, Note_on_c, 0, 74, 59
2, 223201, Note_on_c, 0, 60, 40
2, 223217, Note_on_c, 0, 54, 27
2, 223221, Note_on_c, 0, 51, 38
2, 223393, Note_on_c, 0, 60, 0
2, 223405, Control_c, 0, 64, 24
2, 223421, Control_c, 0, 64, 56
2, 223425, Note_on_c, 0, 51, 0
2, 223433, Note_on_c, 0, 54, 0
2, 223433, Control_c, 0, 64, 88
2, 223449, Control_c, 0, 64, 104
2, 223461, Control_c, 0, 64, 127
2, 223513, Note_on_c, 0, 74, 0
2, 223653, Note_on_c, 0, 72, 59
2, 223725, Note_on_c, 0, 72, 0
2, 223837, Note_on_c, 0, 69, 51
2, 223837, Control_c, 0, 64, 104
2, 223853, Control_c, 0, 64, 40
2, 223865, Control_c, 0, 64, 0
2, 223893, Note_on_c, 0, 41, 32
2, 223937, Note_on_c, 0, 69, 0
2, 223941, Note_on_c, 0, 75, 69
2, 223949, Control_c, 0, 64, 88
2, 223961, Control_c, 0, 64, 127
2, 223985, Note_on_c, 0, 41, 0
2, 224025, Note_on_c, 0, 75, 0
2, 224061, Control_c, 0, 64, 72
2, 224073, Control_c, 0, 64, 0
2, 224261, Note_on_c, 0, 72, 70
2, 224261, Note_on_c, 0, 63, 33
2, 224265, Note_on_c, 0, 53, 43
2, 224273, Note_on_c, 0, 57, 31
2, 224313, Control_c, 0, 64, 24
2, 224325, Control_c, 0, 64, 72
2, 224341, Control_c, 0, 64, 127
2, 224409, Note_on_c, 0, 57, 0
2, 224497, Note_on_c, 0, 53, 0
2, 224497, Note_on_c, 0, 72, 0
2, 224561, Note_on_c, 0, 71, 62
2, 224637, Note_on_c, 0, 72, 83
2, 224653, Note_on_c, 0, 71, 0
2, 224657, Note_on_c, 0, 57, 53
2, 224661, Note_on_c, 0, 53, 54
2, 224661, Control_c, 0, 64, 56
2, 224673, Control_c, 0, 64, 0
2, 224685, Note_on_c, 0, 57, 0
2, 224693, Note_on_c, 0, 53, 0
2, 224729, Note_on_c, 0, 72, 0
2, 224757, Note_on_c, 0, 63, 0
2, 224813, Note_on_c, 0, 63, 51
2, 224821, Note_on_c, 0, 74, 76
2, 224833, Note_on_c, 0, 53, 65
2, 224837, Note_on_c, 0, 57, 52
2, 224869, Note_on_c, 0, 57, 0
2, 224869, Note_on_c, 0, 53, 0
2, 224881, Note_on_c, 0, 63, 0
2, 224901, Note_on_c, 0, 74, 0
2, 224969, Note_on_c, 0, 63, 57
2, 224973, Note_on_c, 0, 57, 60
2, 224985, Note_on_c, 0, 53, 41
2, 224989, Note_on_c, 0, 75, 62
2, 224993, Control_c, 0, 64, 56
2, 225009, Note_on_c, 0, 57, 0
2, 225009, Control_c, 0, 64, 88
2, 225017, Note_on_c, 0, 53, 0
2, 225021, Control_c, 0, 64, 127
2, 225025, Note_on_c, 0, 63, 0
2, 225053, Note_on_c, 0, 75, 0
2, 225141, Note_on_c, 0, 75, 85
2, 225161, Control_c, 0, 64, 104
2, 225177, Control_c, 0, 64, 72
2, 225189, Control_c, 0, 64, 24
2, 225197, Note_on_c, 0, 75, 0
2, 225205, Control_c, 0, 64, 0
2, 225249, Note_on_c, 0, 41, 63
2, 225257, Note_on_c, 0, 91, 97
2, 225269, Note_on_c, 0, 41, 0
2, 225269, Control_c, 0, 64, 40
2, 225281, Control_c, 0, 64, 104
2, 225297, Control_c, 0, 64, 127
2, 225301, Note_on_c, 0, 91, 0
2, 225517, Control_c, 0, 64, 88
2, 225533, Control_c, 0, 64, 40
2, 225545, Note_on_c, 0, 72, 84
2, 225545, Control_c, 0, 64, 0
2, 225553, Note_on_c, 0, 63, 55
2, 225565, Note_on_c, 0, 57, 43
2, 225569, Note_on_c, 0, 53, 42
2, 225629, Control_c, 0, 64, 88
2, 225645, Control_c, 0, 64, 127
2, 225685, Note_on_c, 0, 57, 0
2, 225701, Note_on_c, 0, 53, 0
2, 225753, Note_on_c, 0, 72, 0
2, 225801, Note_on_c, 0, 71, 66
2, 225853, Control_c, 0, 64, 104
2, 225865, Note_on_c, 0, 53, 60
2, 225865, Note_on_c, 0, 57, 51
2, 225865, Note_on_c, 0, 72, 86
2, 225865, Control_c, 0, 64, 56
2, 225881, Control_c, 0, 64, 24
2, 225893, Note_on_c, 0, 71, 0
2, 225893, Control_c, 0, 64, 0
2, 225905, Note_on_c, 0, 53, 0
2, 225909, Note_on_c, 0, 57, 0
2, 225949, Note_on_c, 0, 63, 0
2, 225973, Note_on_c, 0, 72, 0
2, 226045, Note_on_c, 0, 74, 87
2, 226049, Note_on_c, 0, 63, 53
2, 226053, Note_on_c, 0, 53, 74
2, 226053, Note_on_c, 0, 57, 63
2, 226085, Note_on_c, 0, 53, 0
2, 226089, Note_on_c, 0, 57, 0
2, 226093, Note_on_c, 0, 63, 0
2, 226121, Note_on_c, 0, 74, 0
2, 226209, Note_on_c, 0, 75, 84
2, 226213, Note_on_c, 0, 57, 62
2, 226213, Note_on_c, 0, 53, 64
2, 226237, Note_on_c, 0, 53, 0
2, 226253, Note_on_c, 0, 57, 0
2, 226281, Note_on_c, 0, 75, 0
2, 226337, Note_on_c, 0, 75, 73
2, 226401, Note_on_c, 0, 75, 0
2, 226433, Note_on_c, 0, 46, 55
2, 226441, Note_on_c, 0, 82, 82
2, 226441, Control_c, 0, 64, 24
2, 226453, Control_c, 0, 64, 72
2, 226469, Control_c, 0, 64, 104
2, 226481, Note_on_c, 0, 82, 0
2, 226481, Control_c, 0, 64, 127
2, 226501, Note_on_c, 0, 46, 0
2, 226689, Control_c, 0, 64, 72
2, 226697, Note_on_c, 0, 70, 71
2, 226701, Note_on_c, 0, 62, 54
2, 226705, Control_c, 0, 64, 0
2, 226721, Note_on_c, 0, 58, 37
2, 226729, Note_on_c, 0, 53, 55
2, 226789, Control_c, 0, 64, 24
2, 226801, Control_c, 0, 64, 88
2, 226817, Control_c, 0, 64, 127
2, 226841, Note_on_c, 0, 53, 0
2, 226841, Note_on_c, 0, 70, 0
2, 226865, Note_on_c, 0, 58, 0
2, 226933, Note_on_c, 0, 69, 80
2, 226981, Note_on_c, 0, 58, 50
2, 226981, Control_c, 0, 64, 104
2, 226993, Note_on_c, 0, 70, 77
2, 226993, Note_on_c, 0, 53, 59
2, 226997, Control_c, 0, 64, 72
2, 227009, Control_c, 0, 64, 40
2, 227017, Note_on_c, 0, 69, 0
2, 227021, Note_on_c, 0, 53, 0
2, 227025, Control_c, 0, 64, 0
2, 227037, Note_on_c, 0, 58, 0
2, 227069, Note_on_c, 0, 62, 0
2, 227081, Note_on_c, 0, 70, 0
2, 227153, Note_on_c, 0, 72, 76
2, 227173, Note_on_c, 0, 53, 70
2, 227173, Note_on_c, 0, 58, 51
2, 227177, Note_on_c, 0, 62, 67
2, 227205, Note_on_c, 0, 62, 0
2, 227217, Note_on_c, 0, 58, 0
2, 227221, Note_on_c, 0, 53, 0
2, 227277, Note_on_c, 0, 72, 0
2, 227321, Note_on_c, 0, 74, 89
2, 227325, Note_on_c, 0, 58, 55
2, 227329, Note_on_c, 0, 53, 59
2, 227357, Note_on_c, 0, 53, 0
2, 227381, Note_on_c, 0, 74, 0
2, 227437, Note_on_c, 0, 74, 97
2, 227481, Note_on_c, 0, 74, 0
2, 227505, Note_on_c, 0, 46, 67
2, 227525, Note_on_c, 0, 89, 99
2, 227525, Control_c, 0, 64, 40
2, 227541, Note_on_c, 0, 58, 0
2, 227541, Control_c, 0, 64, 88
2, 227553, Note_on_c, 0, 89, 0
2, 227553, Note_on_c, 0, 46, 0
2, 227553, Control_c, 0, 64, 127
2, 227681, Control_c, 0, 64, 72
2, 227693, Control_c, 0, 64, 0
2, 227713, Note_on_c, 0, 65, 103
2, 227733, Note_on_c, 0, 53, 84
2, 227741, Note_on_c, 0, 41, 74
2, 227777, Control_c, 0, 64, 72
2, 227789, Note_on_c, 0, 53, 0
2, 227793, Control_c, 0, 64, 127
2, 227797, Note_on_c, 0, 41, 0
2, 227797, Note_on_c, 0, 65, 0
2, 227945, Note_on_c, 0, 51, 85
2, 227949, Note_on_c, 0, 39, 77
2, 227953, Note_on_c, 0, 63, 82
2, 227985, Note_on_c, 0, 51, 0
2, 227985, Control_c, 0, 64, 104
2, 227989, Note_on_c, 0, 39, 0
2, 228001, Control_c, 0, 64, 56
2, 228005, Note_on_c, 0, 63, 0
2, 228013, Control_c, 0, 64, 0
2, 228025, Note_on_c, 0, 62, 99
2, 228037, Note_on_c, 0, 50, 96
2, 228045, Note_on_c, 0, 38, 82
2, 228073, Note_on_c, 0, 38, 0
2, 228077, Note_on_c, 0, 50, 0
2, 228113, Note_on_c, 0, 62, 0
2, 228217, Note_on_c, 0, 48, 89
2, 228221, Note_on_c, 0, 60, 92
2, 228229, Note_on_c, 0, 36, 80
2, 228253, Note_on_c, 0, 36, 0
2, 228261, Note_on_c, 0, 48, 0
2, 228321, Note_on_c, 0, 60, 0
2, 228413, Note_on_c, 0, 46, 83
2, 228413, Note_on_c, 0, 58, 85
2, 228421, Note_on_c, 0, 34, 73
2, 228421, Control_c, 0, 64, 24
2, 228433, Control_c, 0, 64, 56
2, 228445, Note_on_c, 0, 34, 0
2, 228449, Control_c, 0, 64, 72
2, 228453, Note_on_c, 0, 46, 0
2, 228461, Note_on_c, 0, 58, 0
2, 228489, Control_c, 0, 64, 40
2, 228501, Control_c, 0, 64, 24
2, 228517, Control_c, 0, 64, 0
2, 228653, Note_on_c, 0, 81, 74
2, 228705, Note_on_c, 0, 41, 56
2, 228717, Note_on_c, 0, 53, 56
2, 228721, Note_on_c, 0, 81, 0
2, 228721, Note_on_c, 0, 87, 87
2, 228725, Control_c, 0, 64, 56
2, 228729, Note_on_c, 0, 41, 0
2, 228737, Control_c, 0, 64, 104
2, 228753, Note_on_c, 0, 53, 0
2, 228753, Control_c, 0, 64, 127
2, 228789, Note_on_c, 0, 87, 0
2, 228893, Control_c, 0, 64, 88
2, 228905, Control_c, 0, 64, 40
2, 228921, Control_c, 0, 64, 0
2, 228961, Note_on_c, 0, 84, 74
2, 228961, Note_on_c, 0, 75, 60
2, 228977, Note_on_c, 0, 69, 57
2, 228977, Note_on_c, 0, 65, 60
2, 228989, Control_c, 0, 64, 24
2, 229005, Control_c, 0, 64, 72
2, 229017, Control_c, 0, 64, 127
2, 229081, Note_on_c, 0, 65, 0
2, 229093, Note_on_c, 0, 69, 0
2, 229161, Note_on_c, 0, 84, 0
2, 229201, Note_on_c, 0, 83, 74
2, 229241, Control_c, 0, 64, 104
2, 229257, Control_c, 0, 64, 56
2, 229269, Control_c, 0, 64, 24
2, 229273, Note_on_c, 0, 84, 87
2, 229277, Note_on_c, 0, 65, 44
2, 229277, Note_on_c, 0, 69, 43
2, 229285, Control_c, 0, 64, 0
2, 229309, Note_on_c, 0, 83, 0
2, 229313, Note_on_c, 0, 69, 0
2, 229317, Note_on_c, 0, 65, 0
2, 229361, Note_on_c, 0, 75, 0
2, 229377, Note_on_c, 0, 84, 0
2, 229441, Note_on_c, 0, 75, 60
2, 229441, Note_on_c, 0, 86, 86
2, 229453, Note_on_c, 0, 65, 64
2, 229465, Note_on_c, 0, 69, 46
2, 229493, Note_on_c, 0, 69, 0
2, 229497, Note_on_c, 0, 65, 0
2, 229501, Note_on_c, 0, 75, 0
2, 229537, Note_on_c, 0, 86, 0
2, 229589, Control_c, 0, 64, 24
2, 229601, Note_on_c, 0, 69, 60
2, 229605, Note_on_c, 0, 87, 83
2, 229605, Control_c, 0, 64, 56
2, 229617, Control_c, 0, 64, 88
2, 229625, Note_on_c, 0, 69, 0
2, 229633, Control_c, 0, 64, 127
2, 229661, Note_on_c, 0, 87, 0
2, 229733, Note_on_c, 0, 87, 82
2, 229801, Control_c, 0, 64, 88
2, 229805, Note_on_c, 0, 87, 0
2, 229813, Control_c, 0, 64, 24
2, 229829, Control_c, 0, 64, 0
2, 229833, Note_on_c, 0, 103, 95
2, 229845, Note_on_c, 0, 53, 69
2, 229845, Note_on_c, 0, 60, 65
2, 229873, Note_on_c, 0, 53, 0
2, 229881, Note_on_c, 0, 103, 0
2, 229881, Control_c, 0, 64, 40
2, 229893, Note_on_c, 0, 60, 0
2, 229897, Control_c, 0, 64, 104
2, 229909, Control_c, 0, 64, 127
2, 230077, Control_c, 0, 64, 88
2, 230089, Note_on_c, 0, 84, 83
2, 230093, Control_c, 0, 64, 24
2, 230105, Note_on_c, 0, 75, 50
2, 230105, Control_c, 0, 64, 0
2, 230109, Note_on_c, 0, 65, 56
2, 230113, Note_on_c, 0, 69, 48
2, 230177, Control_c, 0, 64, 56
2, 230189, Control_c, 0, 64, 127
2, 230237, Note_on_c, 0, 65, 0
2, 230241, Note_on_c, 0, 69, 0
2, 230305, Note_on_c, 0, 84, 0
2, 230321, Note_on_c, 0, 83, 78
2, 230369, Control_c, 0, 64, 104
2, 230385, Control_c, 0, 64, 72
2, 230389, Note_on_c, 0, 69, 53
2, 230389, Note_on_c, 0, 65, 54
2, 230393, Note_on_c, 0, 84, 82
2, 230401, Control_c, 0, 64, 24
2, 230413, Control_c, 0, 64, 0
2, 230425, Note_on_c, 0, 83, 0
2, 230429, Note_on_c, 0, 65, 0
2, 230429, Note_on_c, 0, 69, 0
2, 230505, Note_on_c, 0, 84, 0
2, 230561, Note_on_c, 0, 86, 90
2, 230573, Note_on_c, 0, 65, 72
2, 230585, Note_on_c, 0, 69, 57
2, 230613, Note_on_c, 0, 69, 0
2, 230633, Note_on_c, 0, 65, 0
2, 230653, Note_on_c, 0, 86, 0
2, 230717, Note_on_c, 0, 75, 0
2, 230725, Note_on_c, 0, 87, 85
2, 230733, Note_on_c, 0, 69, 53
2, 230733, Control_c, 0, 64, 24
2, 230737, Note_on_c, 0, 65, 54
2, 230749, Control_c, 0, 64, 40
2, 230761, Control_c, 0, 64, 56
2, 230765, Note_on_c, 0, 65, 0
2, 230777, Control_c, 0, 64, 72
2, 230781, Note_on_c, 0, 87, 0
2, 230805, Note_on_c, 0, 69, 0
2, 230833, Note_on_c, 0, 87, 77
2, 230845, Control_c, 0, 64, 24
2, 230861, Control_c, 0, 64, 0
2, 230889, Note_on_c, 0, 87, 0
2, 230917, Note_on_c, 0, 94, 90
2, 230941, Note_on_c, 0, 58, 55
2, 230945, Control_c, 0, 64, 24
2, 230957, Control_c, 0, 64, 88
2, 230969, Control_c, 0, 64, 127
2, 230973, Note_on_c, 0, 94, 0
2, 230993, Note_on_c, 0, 58, 0
2, 231125, Control_c, 0, 64, 104
2, 231137, Control_c, 0, 64, 88
2, 231153, Control_c, 0, 64, 40
2, 231165, Control_c, 0, 64, 0
2, 231169, Note_on_c, 0, 82, 73
2, 231185, Note_on_c, 0, 74, 53
2, 231193, Note_on_c, 0, 70, 45
2, 231197, Note_on_c, 0, 65, 59
2, 231249, Control_c, 0, 64, 24
2, 231265, Control_c, 0, 64, 88
2, 231277, Control_c, 0, 64, 127
2, 231337, Note_on_c, 0, 65, 0
2, 231337, Note_on_c, 0, 70, 0
2, 231341, Note_on_c, 0, 82, 0
2, 231409, Note_on_c, 0, 81, 75
2, 231461, Control_c, 0, 64, 104
2, 231469, Note_on_c, 0, 70, 55
2, 231473, Note_on_c, 0, 65, 64
2, 231473, Note_on_c, 0, 82, 77
2, 231473, Control_c, 0, 64, 56
2, 231485, Control_c, 0, 64, 24
2, 231497, Note_on_c, 0, 74, 0
2, 231501, Control_c, 0, 64, 0
2, 231505, Note_on_c, 0, 81, 0
2, 231525, Note_on_c, 0, 70, 0
2, 231533, Note_on_c, 0, 65, 0
2, 231577, Note_on_c, 0, 82, 0
2, 231637, Note_on_c, 0, 84, 72
2, 231657, Note_on_c, 0, 65, 68
2, 231657, Note_on_c, 0, 70, 56
2, 231677, Note_on_c, 0, 74, 38
2, 231705, Note_on_c, 0, 74, 0
2, 231705, Note_on_c, 0, 70, 0
2, 231721, Note_on_c, 0, 65, 0
2, 231757, Note_on_c, 0, 84, 0
2, 231801, Note_on_c, 0, 86, 89
2, 231805, Note_on_c, 0, 70, 56
2, 231809, Note_on_c, 0, 65, 59
2, 231837, Control_c, 0, 64, 24
2, 231849, Control_c, 0, 64, 40
2, 231865, Note_on_c, 0, 86, 0
2, 231925, Note_on_c, 0, 86, 97
2, 231949, Control_c, 0, 64, 0
2, 231969, Note_on_c, 0, 86, 0
2, 232013, Note_on_c, 0, 58, 63
2, 232013, Note_on_c, 0, 101, 100
2, 232013, Note_on_c, 0, 65, 65
2, 232017, Control_c, 0, 64, 24
2, 232029, Note_on_c, 0, 70, 0
2, 232029, Control_c, 0, 64, 72
2, 232033, Note_on_c, 0, 65, 0
2, 232037, Note_on_c, 0, 101, 0
2, 232045, Control_c, 0, 64, 127
2, 232061, Note_on_c, 0, 58, 0
2, 232061, Note_on_c, 0, 65, 0
2, 232197, Control_c, 0, 64, 40
2, 232213, Control_c, 0, 64, 0
2, 232217, Note_on_c, 0, 77, 94
2, 232241, Note_on_c, 0, 65, 87
2, 232249, Note_on_c, 0, 53, 83
2, 232281, Control_c, 0, 64, 40
2, 232297, Control_c, 0, 64, 104
2, 232309, Control_c, 0, 64, 127
2, 232313, Note_on_c, 0, 65, 0
2, 232317, Note_on_c, 0, 53, 0
2, 232389, Note_on_c, 0, 77, 0
2, 232473, Note_on_c, 0, 63, 86
2, 232477, Note_on_c, 0, 51, 87
2, 232477, Note_on_c, 0, 75, 91
2, 232505, Control_c, 0, 64, 88
2, 232509, Note_on_c, 0, 63, 0
2, 232517, Note_on_c, 0, 51, 0
2, 232521, Control_c, 0, 64, 40
2, 232529, Note_on_c, 0, 75, 0
2, 232533, Control_c, 0, 64, 0
2, 232561, Note_on_c, 0, 74, 105
2, 232565, Note_on_c, 0, 62, 92
2, 232573, Note_on_c, 0, 50, 83
2, 232609, Note_on_c, 0, 62, 0
2, 232629, Note_on_c, 0, 50, 0
2, 232661, Note_on_c, 0, 74, 0
2, 232785, Control_c, 0, 64, 24
2, 232789, Note_on_c, 0, 60, 93
2, 232789, Note_on_c, 0, 72, 99
2, 232797, Control_c, 0, 64, 56
2, 232805, Note_on_c, 0, 48, 78
2, 232813, Control_c, 0, 64, 104
2, 232825, Note_on_c, 0, 48, 0
2, 232825, Control_c, 0, 64, 127
2, 232837, Note_on_c, 0, 60, 0
2, 232893, Control_c, 0, 64, 104
2, 232905, Note_on_c, 0, 72, 0
2, 232909, Control_c, 0, 64, 72
2, 232921, Control_c, 0, 64, 24
2, 232937, Control_c, 0, 64, 0
2, 233033, Note_on_c, 0, 70, 91
2, 233041, Note_on_c, 0, 58, 85
2, 233045, Note_on_c, 0, 46, 85
2, 233085, Note_on_c, 0, 46, 0
2, 233085, Note_on_c, 0, 58, 0
2, 233089, Control_c, 0, 64, 72
2, 233105, Control_c, 0, 64, 127
2, 233129, Note_on_c, 0, 70, 0
2, 233413, Control_c, 0, 64, 104
2, 233441, Control_c, 0, 64, 88
2, 233469, Control_c, 0, 64, 72
2, 233481, Control_c, 0, 64, 56
2, 233493, Control_c, 0, 64, 40
2, 233509, Control_c, 0, 64, 24
2, 233525, Control_c, 0, 64, 0
2, 233857, Control_c, 0, 64, 104
2, 233861, Note_on_c, 0, 42, 69
2, 233865, Note_on_c, 0, 54, 85
2, 233869, Control_c, 0, 64, 127
2, 233909, Note_on_c, 0, 54, 0
2, 233909, Note_on_c, 0, 42, 0
2, 234137, Note_on_c, 0, 63, 67
2, 234141, Note_on_c, 0, 60, 63
2, 234161, Note_on_c, 0, 57, 45
2, 234193, Note_on_c, 0, 57, 0
2, 234225, Note_on_c, 0, 60, 0
2, 234257, Note_on_c, 0, 81, 87
2, 234257, Note_on_c, 0, 69, 82
2, 234261, Note_on_c, 0, 63, 0
2, 234297, Note_on_c, 0, 69, 0
2, 234325, Note_on_c, 0, 81, 0
2, 234437, Note_on_c, 0, 87, 91
2, 234437, Note_on_c, 0, 63, 56
2, 234441, Note_on_c, 0, 75, 93
2, 234445, Note_on_c, 0, 57, 58
2, 234449, Note_on_c, 0, 60, 53
2, 234473, Note_on_c, 0, 60, 0
2, 234473, Note_on_c, 0, 75, 0
2, 234481, Note_on_c, 0, 87, 0
2, 234485, Note_on_c, 0, 63, 0
2, 234489, Note_on_c, 0, 57, 0
2, 234693, Note_on_c, 0, 83, 89
2, 234693, Note_on_c, 0, 71, 77
2, 234717, Note_on_c, 0, 71, 0
2, 234717, Note_on_c, 0, 83, 0
2, 234785, Note_on_c, 0, 84, 96
2, 234789, Note_on_c, 0, 72, 91
2, 234789, Control_c, 0, 64, 88
2, 234801, Note_on_c, 0, 41, 69
2, 234805, Control_c, 0, 64, 0
2, 234813, Note_on_c, 0, 53, 57
2, 234849, Note_on_c, 0, 41, 0
2, 234869, Note_on_c, 0, 53, 0
2, 234881, Control_c, 0, 64, 127
2, 235001, Note_on_c, 0, 72, 0
2, 235061, Note_on_c, 0, 63, 60
2, 235065, Note_on_c, 0, 60, 63
2, 235073, Note_on_c, 0, 57, 57
2, 235121, Note_on_c, 0, 84, 0
2, 235133, Note_on_c, 0, 60, 0
2, 235153, Note_on_c, 0, 63, 0
2, 235157, Note_on_c, 0, 57, 0
2, 235181, Note_on_c, 0, 74, 85
2, 235185, Note_on_c, 0, 86, 94
2, 235229, Note_on_c, 0, 74, 0
2, 235241, Note_on_c, 0, 86, 0
2, 235301, Note_on_c, 0, 63, 51
2, 235309, Note_on_c, 0, 87, 86
2, 235309, Note_on_c, 0, 75, 87
2, 235317, Note_on_c, 0, 60, 49
2, 235321, Note_on_c, 0, 57, 43
2, 235341, Note_on_c, 0, 60, 0
2, 235345, Note_on_c, 0, 63, 0
2, 235349, Note_on_c, 0, 57, 0
2, 235361, Note_on_c, 0, 75, 0
2, 235365, Note_on_c, 0, 87, 0
2, 235425, Note_on_c, 0, 88, 100
2, 235425, Note_on_c, 0, 76, 93
2, 235469, Note_on_c, 0, 76, 0
2, 235477, Note_on_c, 0, 88, 0
2, 235557, Note_on_c, 0, 89, 102
2, 235557, Note_on_c, 0, 77, 99
2, 235557, Control_c, 0, 64, 56
2, 235569, Control_c, 0, 64, 0
2, 235573, Note_on_c, 0, 39, 70
2, 235573, Note_on_c, 0, 51, 72
2, 235621, Note_on_c, 0, 51, 0
2, 235621, Control_c, 0, 64, 24
2, 235629, Note_on_c, 0, 39, 0
2, 235633, Control_c, 0, 64, 127
2, 235785, Note_on_c, 0, 77, 0
2, 235785, Note_on_c, 0, 65, 70
2, 235785, Note_on_c, 0, 57, 63
2, 235785, Note_on_c, 0, 60, 58
2, 235817, Note_on_c, 0, 89, 0
2, 235857, Note_on_c, 0, 60, 0
2, 235861, Note_on_c, 0, 65, 0
2, 235873, Note_on_c, 0, 57, 0
2, 235901, Note_on_c, 0, 91, 99
2, 235905, Note_on_c, 0, 79, 86
2, 235949, Note_on_c, 0, 79, 0
2, 235957, Note_on_c, 0, 91, 0
2, 236013, Note_on_c, 0, 60, 68
2, 236013, Note_on_c, 0, 65, 62
2, 236025, Note_on_c, 0, 80, 87
2, 236029, Note_on_c, 0, 92, 90
2, 236029, Note_on_c, 0, 57, 52
2, 236045, Note_on_c, 0, 65, 0
2, 236057, Note_on_c, 0, 60, 0
2, 236065, Note_on_c, 0, 57, 0
2, 236077, Note_on_c, 0, 80, 0
2, 236081, Note_on_c, 0, 92, 0
2, 236149, Note_on_c, 0, 93, 109
2, 236149, Note_on_c, 0, 81, 92
2, 236189, Note_on_c, 0, 81, 0
2, 236209, Note_on_c, 0, 93, 0
2, 236305, Note_on_c, 0, 96, 100
2, 236313, Note_on_c, 0, 84, 86
2, 236345, Note_on_c, 0, 38, 66
2, 236349, Control_c, 0, 64, 40
2, 236357, Note_on_c, 0, 50, 71
2, 236361, Control_c, 0, 64, 0
2, 236389, Note_on_c, 0, 38, 0
2, 236417, Note_on_c, 0, 50, 0
2, 236437, Control_c, 0, 64, 127
2, 236597, Note_on_c, 0, 96, 0
2, 236613, Note_on_c, 0, 58, 42
2, 236621, Note_on_c, 0, 65, 53
2, 236625, Note_on_c, 0, 84, 0
2, 236625, Note_on_c, 0, 53, 52
2, 236681, Note_on_c, 0, 53, 0
2, 236685, Note_on_c, 0, 65, 0
2, 236689, Note_on_c, 0, 58, 0
2, 236769, Note_on_c, 0, 94, 78
2, 236773, Note_on_c, 0, 82, 67
2, 236837, Note_on_c, 0, 82, 0
2, 236841, Note_on_c, 0, 94, 0
2, 236905, Note_on_c, 0, 93, 85
2, 236905, Note_on_c, 0, 65, 44
2, 236905, Note_on_c, 0, 58, 40
2, 236913, Note_on_c, 0, 81, 70
2, 236917, Note_on_c, 0, 53, 45
2, 236933, Note_on_c, 0, 65, 0
2, 236961, Note_on_c, 0, 58, 0
2, 236965, Note_on_c, 0, 93, 0
2, 236965, Note_on_c, 0, 81, 0
2, 236973, Note_on_c, 0, 53, 0
2, 237045, Note_on_c, 0, 91, 85
2, 237049, Note_on_c, 0, 79, 73
2, 237089, Note_on_c, 0, 91, 0
2, 237097, Note_on_c, 0, 79, 0
2, 237205, Control_c, 0, 64, 72
2, 237217, Control_c, 0, 64, 0
2, 237229, Note_on_c, 0, 36, 65
2, 237233, Note_on_c, 0, 48, 75
2, 237257, Note_on_c, 0, 36, 0
2, 237281, Control_c, 0, 64, 40
2, 237293, Note_on_c, 0, 48, 0
2, 237293, Control_c, 0, 64, 127
2, 237485, Note_on_c, 0, 63, 62
2, 237497, Note_on_c, 0, 53, 45
2, 237505, Note_on_c, 0, 57, 45
2, 237533, Note_on_c, 0, 53, 0
2, 237537, Note_on_c, 0, 57, 0
2, 237585, Note_on_c, 0, 69, 71
2, 237589, Note_on_c, 0, 81, 82
2, 237593, Note_on_c, 0, 63, 0
2, 237621, Note_on_c, 0, 69, 0
2, 237645, Note_on_c, 0, 81, 0
2, 237725, Note_on_c, 0, 87, 85
2, 237733, Note_on_c, 0, 63, 56
2, 237737, Note_on_c, 0, 75, 74
2, 237745, Note_on_c, 0, 57, 53
2, 237749, Note_on_c, 0, 53, 44
2, 237765, Note_on_c, 0, 75, 0
2, 237765, Note_on_c, 0, 63, 0
2, 237769, Note_on_c, 0, 87, 0
2, 237769, Note_on_c, 0, 57, 0
2, 237785, Note_on_c, 0, 53, 0
2, 237961, Note_on_c, 0, 83, 92
2, 237961, Note_on_c, 0, 71, 80
2, 237989, Note_on_c, 0, 71, 0
2, 237993, Note_on_c, 0, 83, 0
2, 238021, Control_c, 0, 64, 104
2, 238037, Control_c, 0, 64, 0
2, 238045, Note_on_c, 0, 84, 94
2, 238049, Note_on_c, 0, 72, 90
2, 238053, Note_on_c, 0, 34, 70
2, 238061, Note_on_c, 0, 46, 69
2, 238097, Note_on_c, 0, 46, 0
2, 238097, Note_on_c, 0, 34, 0
2, 238113, Control_c, 0, 64, 104
2, 238125, Control_c, 0, 64, 127
2, 238217, Note_on_c, 0, 72, 0
2, 238317, Note_on_c, 0, 63, 64
2, 238329, Note_on_c, 0, 51, 51
2, 238341, Note_on_c, 0, 55, 48
2, 238365, Note_on_c, 0, 55, 0
2, 238389, Note_on_c, 0, 84, 0
2, 238389, Note_on_c, 0, 63, 0
2, 238401, Note_on_c, 0, 51, 0
2, 238437, Note_on_c, 0, 86, 87
2, 238437, Note_on_c, 0, 74, 81
2, 238485, Note_on_c, 0, 74, 0
2, 238489, Note_on_c, 0, 86, 0
2, 238549, Note_on_c, 0, 63, 60
2, 238553, Note_on_c, 0, 75, 79
2, 238553, Note_on_c, 0, 87, 85
2, 238553, Note_on_c, 0, 51, 53
2, 238557, Note_on_c, 0, 55, 55
2, 238577, Note_on_c, 0, 55, 0
2, 238577, Note_on_c, 0, 63, 0
2, 238605, Note_on_c, 0, 75, 0
2, 238605, Note_on_c, 0, 51, 0
2, 238613, Note_on_c, 0, 87, 0
2, 238673, Note_on_c, 0, 88, 100
2, 238677, Note_on_c, 0, 76, 90
2, 238721, Note_on_c, 0, 76, 0
2, 238729, Note_on_c, 0, 88, 0
2, 238821, Note_on_c, 0, 89, 97
2, 238825, Note_on_c, 0, 77, 92
2, 238829, Control_c, 0, 64, 72
2, 238833, Note_on_c, 0, 33, 66
2, 238841, Control_c, 0, 64, 0
2, 238853, Note_on_c, 0, 45, 66
2, 238873, Note_on_c, 0, 33, 0
2, 238905, Note_on_c, 0, 45, 0
2, 238917, Control_c, 0, 64, 88
2, 238929, Control_c, 0, 64, 127
2, 239101, Note_on_c, 0, 63, 65
2, 239105, Note_on_c, 0, 77, 0
2, 239125, Note_on_c, 0, 51, 42
2, 239125, Note_on_c, 0, 53, 38
2, 239133, Note_on_c, 0, 89, 0
2, 239169, Note_on_c, 0, 51, 0
2, 239197, Note_on_c, 0, 63, 0
2, 239205, Note_on_c, 0, 53, 0
2, 239221, Note_on_c, 0, 78, 72
2, 239225, Note_on_c, 0, 90, 78
2, 239281, Note_on_c, 0, 78, 0
2, 239305, Note_on_c, 0, 90, 0
2, 239357, Note_on_c, 0, 63, 45
2, 239361, Note_on_c, 0, 91, 86
2, 239365, Note_on_c, 0, 51, 40
2, 239365, Note_on_c, 0, 79, 74
2, 239373, Note_on_c, 0, 53, 41
2, 239405, Note_on_c, 0, 53, 0
2, 239405, Note_on_c, 0, 91, 0
2, 239405, Note_on_c, 0, 79, 0
2, 239413, Note_on_c, 0, 63, 0
2, 239441, Note_on_c, 0, 51, 0
2, 239497, Note_on_c, 0, 87, 80
2, 239501, Note_on_c, 0, 75, 79
2, 239549, Note_on_c, 0, 75, 0
2, 239557, Note_on_c, 0, 87, 0
2, 239661, Control_c, 0, 64, 88
2, 239665, Note_on_c, 0, 73, 74
2, 239665, Note_on_c, 0, 85, 73
2, 239673, Control_c, 0, 64, 0
2, 239697, Note_on_c, 0, 34, 48
2, 239705, Note_on_c, 0, 46, 43
2, 239729, Note_on_c, 0, 34, 0
2, 239749, Note_on_c, 0, 46, 0
2, 239749, Control_c, 0, 64, 56
2, 239761, Control_c, 0, 64, 127
2, 239869, Note_on_c, 0, 85, 0
2, 239897, Note_on_c, 0, 73, 0
2, 239981, Note_on_c, 0, 86, 67
2, 239993, Note_on_c, 0, 74, 56
2, 240005, Note_on_c, 0, 62, 54
2, 240005, Note_on_c, 0, 53, 43
2, 240017, Note_on_c, 0, 50, 40
2, 240017, Control_c, 0, 64, 72
2, 240029, Control_c, 0, 64, 0
2, 240053, Note_on_c, 0, 74, 0
2, 240053, Control_c, 0, 64, 24
2, 240061, Note_on_c, 0, 50, 0
2, 240069, Note_on_c, 0, 86, 0
2, 240069, Control_c, 0, 64, 72
2, 240081, Control_c, 0, 64, 127
2, 240089, Note_on_c, 0, 62, 0
2, 240105, Note_on_c, 0, 53, 0
2, 240309, Note_on_c, 0, 62, 53
2, 240313, Note_on_c, 0, 53, 44
2, 240325, Note_on_c, 0, 50, 41
2, 240369, Note_on_c, 0, 62, 0
2, 240397, Note_on_c, 0, 50, 0
2, 240397, Note_on_c, 0, 53, 0
2, 240653, Note_on_c, 0, 42, 81
2, 240653, Note_on_c, 0, 54, 89
2, 240657, Control_c, 0, 64, 104
2, 240669, Control_c, 0, 64, 24
2, 240681, Control_c, 0, 64, 0
2, 240729, Note_on_c, 0, 42, 0
2, 240733, Control_c, 0, 64, 40
2, 240745, Control_c, 0, 64, 127
2, 240753, Note_on_c, 0, 54, 0
2, 240937, Note_on_c, 0, 63, 71
2, 240941, Note_on_c, 0, 60, 63
2, 240969, Note_on_c, 0, 60, 0
2, 240969, Note_on_c, 0, 57, 30
2, 241005, Note_on_c, 0, 57, 0
2, 241033, Note_on_c, 0, 63, 0
2, 241061, Note_on_c, 0, 81, 87
2, 241065, Note_on_c, 0, 69, 81
2, 241105, Note_on_c, 0, 69, 0
2, 241121, Note_on_c, 0, 81, 0
2, 241209, Note_on_c, 0, 87, 92
2, 241213, Note_on_c, 0, 75, 88
2, 241213, Note_on_c, 0, 63, 58
2, 241225, Note_on_c, 0, 57, 55
2, 241233, Note_on_c, 0, 60, 49
2, 241249, Note_on_c, 0, 75, 0
2, 241253, Note_on_c, 0, 57, 0
2, 241253, Note_on_c, 0, 87, 0
2, 241253, Note_on_c, 0, 60, 0
2, 241265, Note_on_c, 0, 63, 0
2, 241477, Note_on_c, 0, 83, 86
2, 241477, Note_on_c, 0, 71, 75
2, 241497, Note_on_c, 0, 83, 0
2, 241501, Note_on_c, 0, 71, 0
2, 241549, Control_c, 0, 64, 104
2, 241557, Note_on_c, 0, 84, 90
2, 241565, Note_on_c, 0, 72, 80
2, 241565, Control_c, 0, 64, 0
2, 241569, Note_on_c, 0, 41, 70
2, 241577, Note_on_c, 0, 53, 63
2, 241605, Note_on_c, 0, 41, 0
2, 241625, Control_c, 0, 64, 56
2, 241633, Note_on_c, 0, 53, 0
2, 241641, Control_c, 0, 64, 127
2, 241753, Note_on_c, 0, 72, 0
2, 241805, Note_on_c, 0, 63, 57
2, 241817, Note_on_c, 0, 60, 61
2, 241833, Note_on_c, 0, 57, 44
2, 241849, Note_on_c, 0, 60, 0
2, 241861, Note_on_c, 0, 84, 0
2, 241869, Note_on_c, 0, 57, 0
2, 241897, Note_on_c, 0, 63, 0
2, 241925, Note_on_c, 0, 86, 92
2, 241925, Note_on_c, 0, 74, 79
2, 241969, Note_on_c, 0, 86, 0
2, 241973, Note_on_c, 0, 74, 0
2, 242033, Note_on_c, 0, 63, 44
2, 242049, Note_on_c, 0, 75, 85
2, 242049, Note_on_c, 0, 87, 86
2, 242049, Note_on_c, 0, 57, 47
2, 242069, Note_on_c, 0, 63, 0
2, 242077, Note_on_c, 0, 57, 0
2, 242093, Note_on_c, 0, 75, 0
2, 242101, Note_on_c, 0, 87, 0
2, 242153, Note_on_c, 0, 88, 100
2, 242161, Note_on_c, 0, 76, 94
2, 242201, Note_on_c, 0, 76, 0
2, 242209, Note_on_c, 0, 88, 0
2, 242277, Note_on_c, 0, 89, 102
2, 242277, Control_c, 0, 64, 104
2, 242281, Note_on_c, 0, 77, 94
2, 242293, Note_on_c, 0, 39, 62
2, 242293, Note_on_c, 0, 51, 82
2, 242293, Control_c, 0, 64, 0
2, 242325, Note_on_c, 0, 39, 0
2, 242337, Note_on_c, 0, 51, 0
2, 242341, Control_c, 0, 64, 104
2, 242353, Control_c, 0, 64, 127
2, 242421, Note_on_c, 0, 58, 29
2, 242449, Note_on_c, 0, 58, 0
2, 242501, Note_on_c, 0, 77, 0
2, 242509, Note_on_c, 0, 65, 72
2, 242513, Note_on_c, 0, 57, 62
2, 242517, Note_on_c, 0, 60, 56
2, 242529, Note_on_c, 0, 89, 0
2, 242561, Note_on_c, 0, 60, 0
2, 242569, Note_on_c, 0, 57, 0
2, 242569, Note_on_c, 0, 65, 0
2, 242605, Note_on_c, 0, 91, 94
2, 242609, Note_on_c, 0, 79, 83
2, 242653, Note_on_c, 0, 79, 0
2, 242661, Note_on_c, 0, 91, 0
2, 242713, Note_on_c, 0, 65, 63
2, 242717, Note_on_c, 0, 60, 67
2, 242725, Note_on_c, 0, 80, 86
2, 242729, Note_on_c, 0, 92, 91
2, 242729, Note_on_c, 0, 57, 46
2, 242741, Note_on_c, 0, 65, 0
2, 242757, Note_on_c, 0, 60, 0
2, 242769, Note_on_c, 0, 57, 0
2, 242785, Note_on_c, 0, 80, 0
2, 242789, Note_on_c, 0, 92, 0
2, 242849, Note_on_c, 0, 93, 103
2, 242849, Note_on_c, 0, 81, 92
2, 242901, Note_on_c, 0, 81, 0
2, 242917, Note_on_c, 0, 93, 0
2, 243029, Note_on_c, 0, 84, 82
2, 243029, Note_on_c, 0, 38, 56
2, 243029, Note_on_c, 0, 50, 51
2, 243029, Note_on_c, 0, 96, 93
2, 243069, Control_c, 0, 64, 72
2, 243081, Note_on_c, 0, 38, 0
2, 243085, Control_c, 0, 64, 0
2, 243113, Note_on_c, 0, 50, 0
2, 243149, Control_c, 0, 64, 72
2, 243161, Control_c, 0, 64, 127
2, 243261, Note_on_c, 0, 96, 0
2, 243293, Note_on_c, 0, 84, 0
2, 243333, Note_on_c, 0, 58, 47
2, 243341, Note_on_c, 0, 65, 54
2, 243393, Note_on_c, 0, 65, 0
2, 243405, Note_on_c, 0, 58, 0
2, 243469, Note_on_c, 0, 94, 69
2, 243473, Note_on_c, 0, 82, 57
2, 243549, Note_on_c, 0, 82, 0
2, 243549, Note_on_c, 0, 94, 0
2, 243613, Note_on_c, 0, 58, 40
2, 243617, Note_on_c, 0, 65, 37
2, 243621, Note_on_c, 0, 93, 82
2, 243629, Note_on_c, 0, 81, 61
2, 243657, Note_on_c, 0, 65, 0
2, 243669, Note_on_c, 0, 81, 0
2, 243669, Note_on_c, 0, 93, 0
2, 243689, Note_on_c, 0, 58, 0
2, 243769, Note_on_c, 0, 91, 77
2, 243769, Note_on_c, 0, 79, 73
2, 243805, Note_on_c, 0, 91, 0
2, 243813, Note_on_c, 0, 79, 0
2, 243953, Control_c, 0, 64, 24
2, 243961, Note_on_c, 0, 36, 60
2, 243965, Note_on_c, 0, 48, 68
2, 243965, Control_c, 0, 64, 0
2, 243985, Note_on_c, 0, 36, 0
2, 244005, Control_c, 0, 64, 24
2, 244017, Control_c, 0, 64, 104
2, 244029, Note_on_c, 0, 48, 0
2, 244029, Control_c, 0, 64, 127
2, 244221, Note_on_c, 0, 63, 61
2, 244225, Note_on_c, 0, 53, 55
2, 244253, Note_on_c, 0, 57, 30
2, 244281, Note_on_c, 0, 53, 0
2, 244293, Note_on_c, 0, 57, 0
2, 244317, Note_on_c, 0, 63, 0
2, 244337, Note_on_c, 0, 69, 75
2, 244341, Note_on_c, 0, 81, 84
2, 244385, Note_on_c, 0, 69, 0
2, 244401, Note_on_c, 0, 81, 0
2, 244469, Note_on_c, 0, 63, 50
2, 244485, Note_on_c, 0, 57, 54
2, 244485, Note_on_c, 0, 87, 85
2, 244485, Note_on_c, 0, 75, 77
2, 244501, Note_on_c, 0, 53, 28
2, 244509, Note_on_c, 0, 57, 0
2, 244509, Note_on_c, 0, 63, 0
2, 244521, Note_on_c, 0, 87, 0
2, 244525, Note_on_c, 0, 75, 0
2, 244537, Note_on_c, 0, 53, 0
2, 244709, Note_on_c, 0, 71, 80
2, 244709, Note_on_c, 0, 83, 85
2, 244733, Note_on_c, 0, 83, 0
2, 244741, Note_on_c, 0, 71, 0
2, 244781, Control_c, 0, 64, 56
2, 244789, Note_on_c, 0, 34, 60
2, 244789, Note_on_c, 0, 72, 84
2, 244793, Note_on_c, 0, 84, 87
2, 244797, Note_on_c, 0, 46, 60
2, 244797, Control_c, 0, 64, 0
2, 244829, Note_on_c, 0, 34, 0
2, 244833, Note_on_c, 0, 46, 0
2, 244849, Control_c, 0, 64, 56
2, 244861, Control_c, 0, 64, 127
2, 244973, Note_on_c, 0, 72, 0
2, 245053, Note_on_c, 0, 63, 69
2, 245061, Note_on_c, 0, 55, 60
2, 245065, Note_on_c, 0, 51, 51
2, 245085, Note_on_c, 0, 55, 0
2, 245093, Note_on_c, 0, 51, 0
2, 245109, Note_on_c, 0, 84, 0
2, 245121, Note_on_c, 0, 63, 0
2, 245169, Note_on_c, 0, 86, 88
2, 245169, Note_on_c, 0, 74, 82
2, 245217, Note_on_c, 0, 74, 0
2, 245225, Note_on_c, 0, 86, 0
2, 245273, Note_on_c, 0, 63, 61
2, 245281, Note_on_c, 0, 51, 53
2, 245285, Note_on_c, 0, 55, 57
2, 245289, Note_on_c, 0, 87, 83
2, 245289, Note_on_c, 0, 75, 80
2, 245305, Note_on_c, 0, 55, 0
2, 245309, Note_on_c, 0, 63, 0
2, 245333, Note_on_c, 0, 51, 0
2, 245337, Note_on_c, 0, 75, 0
2, 245345, Note_on_c, 0, 87, 0
2, 245401, Note_on_c, 0, 88, 97
2, 245405, Note_on_c, 0, 76, 90
2, 245445, Note_on_c, 0, 76, 0
2, 245461, Note_on_c, 0, 88, 0
2, 245545, Note_on_c, 0, 89, 94
2, 245549, Note_on_c, 0, 77, 89
2, 245549, Control_c, 0, 64, 104
2, 245561, Note_on_c, 0, 33, 59
2, 245561, Control_c, 0, 64, 0
2, 245577, Note_on_c, 0, 45, 62
2, 245585, Note_on_c, 0, 33, 0
2, 245621, Note_on_c, 0, 45, 0
2, 245641, Control_c, 0, 64, 104
2, 245653, Control_c, 0, 64, 127
2, 245801, Note_on_c, 0, 77, 0
2, 245817, Note_on_c, 0, 63, 67
2, 245841, Note_on_c, 0, 51, 29
2, 245853, Note_on_c, 0, 89, 0
2, 245853, Note_on_c, 0, 53, 30
2, 245877, Note_on_c, 0, 51, 0
2, 245897, Note_on_c, 0, 53, 0
2, 245917, Note_on_c, 0, 63, 0
2, 245933, Note_on_c, 0, 78, 75
2, 245937, Note_on_c, 0, 90, 79
2, 245993, Note_on_c, 0, 78, 0
2, 246013, Note_on_c, 0, 90, 0
2, 246065, Note_on_c, 0, 63, 51
2, 246069, Note_on_c, 0, 91, 87
2, 246069, Note_on_c, 0, 51, 52
2, 246073, Note_on_c, 0, 79, 78
2, 246081, Note_on_c, 0, 53, 52
2, 246105, Note_on_c, 0, 53, 0
2, 246113, Note_on_c, 0, 91, 0
2, 246113, Note_on_c, 0, 79, 0
2, 246121, Note_on_c, 0, 63, 0
2, 246145, Note_on_c, 0, 51, 0
2, 246197, Note_on_c, 0, 87, 85
2, 246205, Note_on_c, 0, 75, 71
2, 246249, Note_on_c, 0, 75, 0
2, 246261, Note_on_c, 0, 87, 0
2, 246341, Control_c, 0, 64, 56
2, 246357, Control_c, 0, 64, 0
2, 246365, Note_on_c, 0, 85, 75
2, 246365, Note_on_c, 0, 73, 76
2, 246397, Note_on_c, 0, 34, 60
2, 246401, Note_on_c, 0, 46, 40
2, 246433, Control_c, 0, 64, 72
2, 246445, Control_c, 0, 64, 127
2, 246449, Note_on_c, 0, 46, 0
2, 246449, Note_on_c, 0, 34, 0
2, 246517, Note_on_c, 0, 85, 0
2, 246529, Note_on_c, 0, 73, 0
2, 246677, Note_on_c, 0, 86, 66
2, 246689, Note_on_c, 0, 74, 52
2, 246709, Note_on_c, 0, 53, 49
2, 246713, Note_on_c, 0, 50, 45
2, 246713, Note_on_c, 0, 62, 42
2, 246725, Control_c, 0, 64, 104
2, 246737, Control_c, 0, 64, 0
2, 246801, Note_on_c, 0, 50, 0
2, 246801, Note_on_c, 0, 74, 0
2, 246801, Control_c, 0, 64, 40
2, 246805, Note_on_c, 0, 86, 0
2, 246813, Note_on_c, 0, 62, 0
2, 246817, Control_c, 0, 64, 127
2, 246821, Note_on_c, 0, 53, 0
2, 247021, Note_on_c, 0, 62, 36
2, 247029, Note_on_c, 0, 50, 42
2, 247029, Note_on_c, 0, 53, 26
2, 247085, Note_on_c, 0, 62, 0
2, 247109, Note_on_c, 0, 53, 0
2, 247113, Note_on_c, 0, 50, 0
2, 247457, Note_on_c, 0, 62, 60
2, 247465, Note_on_c, 0, 57, 44
2, 247481, Control_c, 0, 64, 72
2, 247489, Note_on_c, 0, 60, 36
2, 247493, Control_c, 0, 64, 0
2, 247577, Note_on_c, 0, 57, 0
2, 247581, Control_c, 0, 64, 56
2, 247593, Control_c, 0, 64, 127
2, 247625, Note_on_c, 0, 50, 36
2, 247701, Note_on_c, 0, 62, 0
2, 247721, Note_on_c, 0, 50, 0
2, 247757, Note_on_c, 0, 42, 36
2, 247837, Note_on_c, 0, 42, 0
2, 247877, Note_on_c, 0, 50, 46
2, 247961, Note_on_c, 0, 50, 0
2, 247965, Note_on_c, 0, 60, 0
2, 247993, Note_on_c, 0, 74, 82
2, 248001, Note_on_c, 0, 57, 48
2, 248093, Note_on_c, 0, 57, 0
2, 248093, Note_on_c, 0, 74, 0
2, 248133, Note_on_c, 0, 50, 55
2, 248233, Note_on_c, 0, 50, 0
2, 248269, Note_on_c, 0, 58, 46
2, 248285, Note_on_c, 0, 72, 82
2, 248297, Control_c, 0, 64, 56
2, 248305, Note_on_c, 0, 62, 45
2, 248309, Control_c, 0, 64, 0
2, 248373, Control_c, 0, 64, 40
2, 248389, Control_c, 0, 64, 127
2, 248393, Note_on_c, 0, 58, 0
2, 248401, Note_on_c, 0, 50, 58
2, 248497, Note_on_c, 0, 50, 0
2, 248537, Note_on_c, 0, 43, 44
2, 248581, Note_on_c, 0, 43, 0
2, 248613, Note_on_c, 0, 72, 0
2, 248681, Note_on_c, 0, 70, 70
2, 248689, Note_on_c, 0, 50, 46
2, 248737, Note_on_c, 0, 62, 0
2, 248769, Note_on_c, 0, 50, 0
2, 248809, Note_on_c, 0, 69, 82
2, 248809, Note_on_c, 0, 58, 26
2, 248833, Note_on_c, 0, 70, 0
2, 248893, Note_on_c, 0, 69, 0
2, 248905, Note_on_c, 0, 50, 48
2, 248921, Note_on_c, 0, 58, 0
2, 248925, Note_on_c, 0, 67, 80
2, 248937, Note_on_c, 0, 50, 0
2, 248993, Note_on_c, 0, 67, 0
2, 249077, Note_on_c, 0, 67, 74
2, 249093, Note_on_c, 0, 62, 47
2, 249097, Note_on_c, 0, 65, 55
2, 249101, Control_c, 0, 64, 56
2, 249113, Control_c, 0, 64, 0
2, 249181, Note_on_c, 0, 62, 0
2, 249193, Note_on_c, 0, 55, 61
2, 249193, Control_c, 0, 64, 88
2, 249205, Control_c, 0, 64, 127
2, 249293, Note_on_c, 0, 55, 0
2, 249309, Note_on_c, 0, 67, 0
2, 249341, Note_on_c, 0, 47, 41
2, 249361, Note_on_c, 0, 65, 0
2, 249393, Note_on_c, 0, 47, 0
2, 249437, Note_on_c, 0, 55, 53
2, 249537, Note_on_c, 0, 55, 0
2, 249565, Note_on_c, 0, 79, 81
2, 249573, Note_on_c, 0, 62, 44
2, 249653, Note_on_c, 0, 62, 0
2, 249665, Note_on_c, 0, 79, 0
2, 249693, Note_on_c, 0, 55, 55
2, 249817, Note_on_c, 0, 55, 0
2, 249837, Note_on_c, 0, 77, 70
2, 249837, Note_on_c, 0, 63, 61
2, 249849, Note_on_c, 0, 67, 47
2, 249869, Control_c, 0, 64, 104
2, 249881, Control_c, 0, 64, 24
2, 249897, Control_c, 0, 64, 0
2, 249945, Control_c, 0, 64, 88
2, 249949, Note_on_c, 0, 63, 0
2, 249957, Control_c, 0, 64, 127
2, 249961, Note_on_c, 0, 55, 55
2, 250073, Note_on_c, 0, 55, 0
2, 250109, Note_on_c, 0, 48, 51
2, 250141, Note_on_c, 0, 77, 0
2, 250181, Note_on_c, 0, 48, 0
2, 250217, Note_on_c, 0, 75, 74
2, 250245, Note_on_c, 0, 55, 55
2, 250321, Note_on_c, 0, 67, 0
2, 250325, Note_on_c, 0, 55, 0
2, 250325, Note_on_c, 0, 75, 0
2, 250345, Note_on_c, 0, 74, 76
2, 250357, Note_on_c, 0, 63, 31
2, 250433, Note_on_c, 0, 74, 0
2, 250469, Note_on_c, 0, 72, 83
2, 250473, Note_on_c, 0, 63, 0
2, 250541, Note_on_c, 0, 72, 0
2, 250621, Note_on_c, 0, 74, 74
2, 250629, Note_on_c, 0, 69, 50
2, 250629, Note_on_c, 0, 72, 59
2, 250649, Control_c, 0, 64, 40
2, 250661, Control_c, 0, 64, 0
2, 250697, Note_on_c, 0, 69, 0
2, 250725, Control_c, 0, 64, 72
2, 250737, Control_c, 0, 64, 127
2, 250757, Note_on_c, 0, 62, 52
2, 250837, Note_on_c, 0, 74, 0
2, 250861, Note_on_c, 0, 62, 0
2, 250889, Note_on_c, 0, 72, 0
2, 250893, Note_on_c, 0, 54, 46
2, 250961, Note_on_c, 0, 54, 0
2, 251001, Note_on_c, 0, 62, 50
2, 251105, Note_on_c, 0, 62, 0
2, 251125, Note_on_c, 0, 86, 82
2, 251149, Note_on_c, 0, 69, 44
2, 251233, Note_on_c, 0, 86, 0
2, 251245, Note_on_c, 0, 69, 0
2, 251281, Note_on_c, 0, 62, 45
2, 251389, Note_on_c, 0, 62, 0
2, 251405, Note_on_c, 0, 84, 74
2, 251417, Note_on_c, 0, 70, 46
2, 251429, Note_on_c, 0, 74, 53
2, 251441, Control_c, 0, 64, 88
2, 251453, Control_c, 0, 64, 0
2, 251497, Note_on_c, 0, 70, 0
2, 251517, Control_c, 0, 64, 88
2, 251529, Note_on_c, 0, 62, 52
2, 251529, Control_c, 0, 64, 127
2, 251629, Note_on_c, 0, 62, 0
2, 251633, Note_on_c, 0, 84, 0
2, 251693, Note_on_c, 0, 55, 35
2, 251729, Note_on_c, 0, 55, 0
2, 251813, Note_on_c, 0, 62, 43
2, 251813, Note_on_c, 0, 82, 68
2, 251869, Note_on_c, 0, 62, 0
2, 251901, Note_on_c, 0, 82, 0
2, 251937, Note_on_c, 0, 70, 33
2, 251949, Note_on_c, 0, 81, 69
2, 252029, Note_on_c, 0, 74, 0
2, 252041, Note_on_c, 0, 70, 0
2, 252061, Note_on_c, 0, 81, 0
2, 252073, Note_on_c, 0, 79, 71
2, 252073, Note_on_c, 0, 62, 36
2, 252101, Note_on_c, 0, 62, 0
2, 252113, Note_on_c, 0, 79, 0
2, 252245, Note_on_c, 0, 69, 69
2, 252253, Note_on_c, 0, 64, 40
2, 252261, Note_on_c, 0, 67, 40
2, 252261, Control_c, 0, 64, 72
2, 252273, Control_c, 0, 64, 0
2, 252337, Note_on_c, 0, 64, 0
2, 252337, Control_c, 0, 64, 40
2, 252349, Control_c, 0, 64, 127
2, 252381, Note_on_c, 0, 57, 40
2, 252401, Note_on_c, 0, 69, 0
2, 252469, Note_on_c, 0, 67, 0
2, 252477, Note_on_c, 0, 57, 0
2, 252517, Note_on_c, 0, 49, 42
2, 252573, Note_on_c, 0, 49, 0
2, 252625, Note_on_c, 0, 57, 45
2, 252709, Note_on_c, 0, 57, 0
2, 252757, Note_on_c, 0, 64, 41
2, 252773, Note_on_c, 0, 81, 70
2, 252841, Note_on_c, 0, 81, 0
2, 252857, Note_on_c, 0, 64, 0
2, 252909, Note_on_c, 0, 57, 48
2, 253001, Note_on_c, 0, 57, 0
2, 253057, Note_on_c, 0, 62, 63
2, 253061, Control_c, 0, 64, 40
2, 253065, Note_on_c, 0, 60, 59
2, 253073, Note_on_c, 0, 66, 47
2, 253077, Control_c, 0, 64, 0
2, 253137, Control_c, 0, 64, 104
2, 253145, Note_on_c, 0, 66, 0
2, 253153, Control_c, 0, 64, 127
2, 253161, Note_on_c, 0, 60, 0
2, 253181, Note_on_c, 0, 62, 0
2, 253193, Note_on_c, 0, 57, 42
2, 253273, Note_on_c, 0, 57, 0
2, 253309, Note_on_c, 0, 50, 57
2, 253385, Note_on_c, 0, 50, 0
2, 253457, Note_on_c, 0, 57, 51
2, 253545, Note_on_c, 0, 57, 0
2, 253613, Note_on_c, 0, 66, 44
2, 253629, Note_on_c, 0, 74, 60
2, 253701, Note_on_c, 0, 74, 0
2, 253733, Note_on_c, 0, 66, 0
2, 253781, Note_on_c, 0, 57, 45
2, 253813, Note_on_c, 0, 57, 0
2, 254017, Note_on_c, 0, 57, 41
2, 254021, Note_on_c, 0, 62, 64
2, 254057, Note_on_c, 0, 60, 34
2, 254057, Control_c, 0, 64, 104
2, 254073, Control_c, 0, 64, 24
2, 254085, Control_c, 0, 64, 0
2, 254137, Note_on_c, 0, 57, 0
2, 254149, Control_c, 0, 64, 56
2, 254161, Control_c, 0, 64, 127
2, 254169, Note_on_c, 0, 50, 53
2, 254237, Note_on_c, 0, 62, 0
2, 254269, Note_on_c, 0, 50, 0
2, 254293, Note_on_c, 0, 42, 45
2, 254309, Note_on_c, 0, 60, 0
2, 254389, Note_on_c, 0, 42, 0
2, 254413, Note_on_c, 0, 50, 50
2, 254517, Note_on_c, 0, 50, 0
2, 254529, Note_on_c, 0, 74, 74
2, 254549, Note_on_c, 0, 57, 52
2, 254657, Note_on_c, 0, 57, 0
2, 254677, Note_on_c, 0, 50, 63
2, 254773, Note_on_c, 0, 74, 0
2, 254801, Note_on_c, 0, 50, 0
2, 254809, Note_on_c, 0, 72, 86
2, 254813, Note_on_c, 0, 58, 46
2, 254821, Note_on_c, 0, 62, 55
2, 254877, Control_c, 0, 64, 88
2, 254889, Control_c, 0, 64, 0
2, 254921, Note_on_c, 0, 58, 0
2, 254945, Note_on_c, 0, 50, 51
2, 254965, Control_c, 0, 64, 40
2, 254981, Control_c, 0, 64, 127
2, 255037, Note_on_c, 0, 50, 0
2, 255073, Note_on_c, 0, 43, 62
2, 255113, Note_on_c, 0, 62, 0
2, 255145, Note_on_c, 0, 43, 0
2, 255157, Note_on_c, 0, 72, 0
2, 255193, Note_on_c, 0, 70, 71
2, 255209, Note_on_c, 0, 50, 62
2, 255289, Note_on_c, 0, 70, 0
2, 255293, Note_on_c, 0, 50, 0
2, 255317, Note_on_c, 0, 69, 86
2, 255325, Note_on_c, 0, 58, 42
2, 255409, Note_on_c, 0, 69, 0
2, 255437, Note_on_c, 0, 67, 83
2, 255449, Note_on_c, 0, 50, 51
2, 255477, Note_on_c, 0, 50, 0
2, 255477, Note_on_c, 0, 58, 0
2, 255501, Note_on_c, 0, 67, 0
2, 255617, Note_on_c, 0, 67, 79
2, 255637, Note_on_c, 0, 65, 49
2, 255645, Note_on_c, 0, 62, 48
2, 255645, Control_c, 0, 64, 88
2, 255657, Control_c, 0, 64, 0
2, 255733, Note_on_c, 0, 62, 0
2, 255761, Note_on_c, 0, 55, 56
2, 255797, Control_c, 0, 64, 127
2, 255853, Note_on_c, 0, 55, 0
2, 255881, Note_on_c, 0, 67, 0
2, 255897, Note_on_c, 0, 47, 36
2, 255901, Note_on_c, 0, 65, 0
2, 255973, Note_on_c, 0, 47, 0
2, 256001, Note_on_c, 0, 55, 48
2, 256081, Note_on_c, 0, 55, 0
2, 256109, Note_on_c, 0, 79, 82
2, 256129, Note_on_c, 0, 62, 42
2, 256205, Note_on_c, 0, 62, 0
2, 256229, Note_on_c, 0, 79, 0
2, 256245, Note_on_c, 0, 55, 62
2, 256389, Note_on_c, 0, 55, 0
2, 256389, Note_on_c, 0, 77, 80
2, 256401, Note_on_c, 0, 63, 57
2, 256405, Note_on_c, 0, 67, 48
2, 256437, Control_c, 0, 64, 24
2, 256449, Control_c, 0, 64, 0
2, 256501, Control_c, 0, 64, 40
2, 256513, Note_on_c, 0, 63, 0
2, 256513, Control_c, 0, 64, 127
2, 256521, Note_on_c, 0, 55, 60
2, 256613, Note_on_c, 0, 55, 0
2, 256669, Note_on_c, 0, 48, 56
2, 256705, Note_on_c, 0, 77, 0
2, 256741, Note_on_c, 0, 48, 0
2, 256789, Note_on_c, 0, 75, 78
2, 256809, Note_on_c, 0, 55, 54
2, 256909, Note_on_c, 0, 55, 0
2, 256913, Note_on_c, 0, 74, 82
2, 256945, Note_on_c, 0, 75, 0
2, 256945, Note_on_c, 0, 63, 40
2, 256973, Note_on_c, 0, 67, 0
2, 257005, Note_on_c, 0, 74, 0
2, 257049, Note_on_c, 0, 72, 82
2, 257065, Note_on_c, 0, 63, 0
2, 257121, Note_on_c, 0, 72, 0
2, 257209, Note_on_c, 0, 74, 78
2, 257217, Note_on_c, 0, 72, 60
2, 257225, Note_on_c, 0, 69, 46
2, 257229, Control_c, 0, 64, 24
2, 257241, Control_c, 0, 64, 0
2, 257293, Note_on_c, 0, 69, 0
2, 257317, Control_c, 0, 64, 88
2, 257333, Control_c, 0, 64, 127
2, 257345, Note_on_c, 0, 62, 49
2, 257421, Note_on_c, 0, 74, 0
2, 257441, Note_on_c, 0, 62, 0
2, 257485, Note_on_c, 0, 54, 36
2, 257489, Note_on_c, 0, 72, 0
2, 257581, Note_on_c, 0, 54, 0
2, 257601, Note_on_c, 0, 62, 42
2, 257705, Note_on_c, 0, 62, 0
2, 257717, Note_on_c, 0, 86, 81
2, 257745, Note_on_c, 0, 69, 47
2, 257821, Note_on_c, 0, 69, 0
2, 257845, Note_on_c, 0, 86, 0
2, 257877, Note_on_c, 0, 62, 44
2, 258005, Note_on_c, 0, 62, 0
2, 258025, Note_on_c, 0, 84, 77
2, 258037, Note_on_c, 0, 70, 32
2, 258041, Note_on_c, 0, 74, 59
2, 258073, Control_c, 0, 64, 56
2, 258085, Control_c, 0, 64, 0
2, 258113, Note_on_c, 0, 70, 0
2, 258149, Control_c, 0, 64, 72
2, 258157, Note_on_c, 0, 62, 54
2, 258161, Control_c, 0, 64, 127
2, 258261, Note_on_c, 0, 62, 0
2, 258309, Note_on_c, 0, 55, 47
2, 258349, Note_on_c, 0, 84, 0
2, 258353, Note_on_c, 0, 55, 0
2, 258445, Note_on_c, 0, 62, 52
2, 258453, Note_on_c, 0, 82, 69
2, 258529, Note_on_c, 0, 62, 0
2, 258561, Note_on_c, 0, 82, 0
2, 258589, Note_on_c, 0, 70, 33
2, 258601, Note_on_c, 0, 81, 60
2, 258661, Note_on_c, 0, 74, 0
2, 258697, Note_on_c, 0, 81, 0
2, 258705, Note_on_c, 0, 70, 0
2, 258717, Note_on_c, 0, 62, 46
2, 258721, Note_on_c, 0, 79, 68
2, 258741, Note_on_c, 0, 62, 0
2, 258753, Note_on_c, 0, 79, 0
2, 258905, Note_on_c, 0, 69, 67
2, 258917, Note_on_c, 0, 67, 38
2, 258937, Note_on_c, 0, 64, 33
2, 258941, Control_c, 0, 64, 40
2, 258953, Control_c, 0, 64, 0
2, 258997, Note_on_c, 0, 64, 0
2, 259017, Control_c, 0, 64, 72
2, 259029, Control_c, 0, 64, 127
2, 259049, Note_on_c, 0, 69, 0
2, 259053, Note_on_c, 0, 57, 41
2, 259121, Note_on_c, 0, 57, 0
2, 259121, Note_on_c, 0, 67, 0
2, 259157, Note_on_c, 0, 49, 44
2, 259233, Note_on_c, 0, 49, 0
2, 259285, Note_on_c, 0, 57, 44
2, 259377, Note_on_c, 0, 57, 0
2, 259409, Note_on_c, 0, 81, 70
2, 259409, Note_on_c, 0, 64, 52
2, 259489, Note_on_c, 0, 64, 0
2, 259489, Note_on_c, 0, 81, 0
2, 259557, Note_on_c, 0, 57, 42
2, 259629, Note_on_c, 0, 57, 0
2, 259717, Note_on_c, 0, 66, 51
2, 259721, Note_on_c, 0, 62, 50
2, 259721, Control_c, 0, 64, 56
2, 259733, Control_c, 0, 64, 0
2, 259737, Note_on_c, 0, 60, 39
2, 259797, Control_c, 0, 64, 88
2, 259809, Note_on_c, 0, 66, 0
2, 259809, Control_c, 0, 64, 127
2, 259849, Note_on_c, 0, 57, 44
2, 259865, Note_on_c, 0, 60, 0
2, 259869, Note_on_c, 0, 62, 0
2, 259957, Note_on_c, 0, 57, 0
2, 259993, Note_on_c, 0, 50, 53
2, 260077, Note_on_c, 0, 50, 0
2, 260161, Note_on_c, 0, 57, 44
2, 260261, Note_on_c, 0, 57, 0
2, 260293, Note_on_c, 0, 74, 62
2, 260305, Note_on_c, 0, 66, 43
2, 260373, Note_on_c, 0, 74, 0
2, 260397, Note_on_c, 0, 66, 0
2, 260449, Note_on_c, 0, 57, 47
2, 260549, Note_on_c, 0, 57, 0
2, 260669, Note_on_c, 0, 54, 61
2, 260717, Control_c, 0, 64, 104
2, 260729, Control_c, 0, 64, 24
2, 260741, Control_c, 0, 64, 0
2, 260805, Control_c, 0, 64, 40
2, 260817, Control_c, 0, 64, 104
2, 260833, Control_c, 0, 64, 127
2, 260933, Note_on_c, 0, 63, 46
2, 260941, Note_on_c, 0, 57, 53
2, 260949, Note_on_c, 0, 54, 0
2, 260969, Note_on_c, 0, 57, 0
2, 260981, Note_on_c, 0, 63, 0
2, 261037, Note_on_c, 0, 60, 70
2, 261085, Note_on_c, 0, 60, 0
2, 261209, Note_on_c, 0, 75, 80
2, 261225, Note_on_c, 0, 41, 59
2, 261241, Control_c, 0, 64, 56
2, 261253, Note_on_c, 0, 41, 0
2, 261253, Control_c, 0, 64, 0
2, 261281, Control_c, 0, 64, 56
2, 261293, Note_on_c, 0, 75, 0
2, 261293, Control_c, 0, 64, 104
2, 261305, Control_c, 0, 64, 127
2, 261433, Note_on_c, 0, 71, 66
2, 261497, Note_on_c, 0, 71, 0
2, 261521, Control_c, 0, 64, 104
2, 261525, Note_on_c, 0, 72, 82
2, 261533, Control_c, 0, 64, 0
2, 261553, Note_on_c, 0, 53, 52
2, 261637, Control_c, 0, 64, 72
2, 261649, Control_c, 0, 64, 127
2, 261785, Note_on_c, 0, 63, 65
2, 261805, Note_on_c, 0, 57, 46
2, 261837, Note_on_c, 0, 57, 0
2, 261861, Note_on_c, 0, 72, 0
2, 261909, Note_on_c, 0, 74, 81
2, 261941, Note_on_c, 0, 63, 0
2, 262005, Note_on_c, 0, 74, 0
2, 262021, Note_on_c, 0, 75, 85
2, 262037, Note_on_c, 0, 64, 71
2, 262041, Note_on_c, 0, 57, 1
2, 262109, Note_on_c, 0, 75, 0
2, 262113, Note_on_c, 0, 53, 0
2, 262133, Note_on_c, 0, 76, 90
2, 262185, Note_on_c, 0, 57, 0
2, 262197, Note_on_c, 0, 64, 0
2, 262273, Note_on_c, 0, 76, 0
2, 262273, Note_on_c, 0, 77, 87
2, 262289, Note_on_c, 0, 51, 70
2, 262301, Control_c, 0, 64, 104
2, 262313, Control_c, 0, 64, 24
2, 262329, Control_c, 0, 64, 0
2, 262393, Control_c, 0, 64, 104
2, 262405, Control_c, 0, 64, 127
2, 262465, Note_on_c, 0, 51, 0
2, 262521, Note_on_c, 0, 65, 56
2, 262529, Note_on_c, 0, 60, 42
2, 262533, Note_on_c, 0, 57, 33
2, 262609, Note_on_c, 0, 77, 0
2, 262629, Note_on_c, 0, 57, 0
2, 262629, Note_on_c, 0, 79, 88
2, 262633, Note_on_c, 0, 65, 0
2, 262645, Note_on_c, 0, 60, 0
2, 262729, Note_on_c, 0, 79, 0
2, 262749, Note_on_c, 0, 80, 87
2, 262761, Note_on_c, 0, 65, 58
2, 262773, Note_on_c, 0, 57, 49
2, 262777, Note_on_c, 0, 60, 29
2, 262785, Note_on_c, 0, 65, 0
2, 262801, Note_on_c, 0, 60, 0
2, 262805, Note_on_c, 0, 57, 0
2, 262841, Note_on_c, 0, 80, 0
2, 262881, Note_on_c, 0, 81, 97
2, 262981, Note_on_c, 0, 81, 0
2, 263033, Note_on_c, 0, 50, 58
2, 263109, Control_c, 0, 64, 24
2, 263121, Control_c, 0, 64, 0
2, 263129, Note_on_c, 0, 84, 83
2, 263209, Note_on_c, 0, 50, 0
2, 263221, Control_c, 0, 64, 127
2, 263377, Note_on_c, 0, 58, 46
2, 263381, Note_on_c, 0, 65, 49
2, 263445, Note_on_c, 0, 58, 0
2, 263453, Note_on_c, 0, 65, 0
2, 263461, Note_on_c, 0, 84, 0
2, 263509, Note_on_c, 0, 82, 64
2, 263601, Note_on_c, 0, 82, 0
2, 263645, Note_on_c, 0, 58, 43
2, 263649, Note_on_c, 0, 81, 64
2, 263657, Note_on_c, 0, 65, 35
2, 263689, Note_on_c, 0, 65, 0
2, 263709, Note_on_c, 0, 58, 0
2, 263745, Note_on_c, 0, 81, 0
2, 263781, Note_on_c, 0, 79, 65
2, 263821, Note_on_c, 0, 79, 0
2, 263925, Control_c, 0, 64, 56
2, 263937, Control_c, 0, 64, 0
2, 263949, Note_on_c, 0, 48, 67
2, 264001, Control_c, 0, 64, 40
2, 264013, Control_c, 0, 64, 127
2, 264017, Note_on_c, 0, 48, 0
2, 264197, Note_on_c, 0, 63, 39
2, 264201, Note_on_c, 0, 53, 42
2, 264209, Note_on_c, 0, 57, 37
2, 264245, Note_on_c, 0, 53, 0
2, 264249, Note_on_c, 0, 57, 0
2, 264269, Note_on_c, 0, 63, 0
2, 264301, Note_on_c, 0, 69, 70
2, 264389, Note_on_c, 0, 69, 0
2, 264429, Note_on_c, 0, 75, 79
2, 264429, Note_on_c, 0, 63, 43
2, 264441, Note_on_c, 0, 57, 47
2, 264457, Note_on_c, 0, 53, 42
2, 264465, Note_on_c, 0, 57, 0
2, 264465, Note_on_c, 0, 63, 0
2, 264489, Note_on_c, 0, 53, 0
2, 264501, Note_on_c, 0, 75, 0
2, 264653, Note_on_c, 0, 71, 62
2, 264705, Control_c, 0, 64, 104
2, 264709, Note_on_c, 0, 71, 0
2, 264717, Control_c, 0, 64, 24
2, 264725, Note_on_c, 0, 46, 60
2, 264725, Note_on_c, 0, 72, 84
2, 264729, Control_c, 0, 64, 0
2, 264777, Note_on_c, 0, 46, 0
2, 264805, Control_c, 0, 64, 104
2, 264821, Control_c, 0, 64, 127
2, 264969, Note_on_c, 0, 63, 53
2, 264977, Note_on_c, 0, 51, 48
2, 264989, Note_on_c, 0, 55, 52
2, 265013, Note_on_c, 0, 55, 0
2, 265025, Note_on_c, 0, 51, 0
2, 265041, Note_on_c, 0, 63, 0
2, 265045, Note_on_c, 0, 72, 0
2, 265101, Note_on_c, 0, 74, 85
2, 265189, Note_on_c, 0, 74, 0
2, 265205, Note_on_c, 0, 63, 44
2, 265213, Note_on_c, 0, 75, 79
2, 265221, Note_on_c, 0, 55, 40
2, 265225, Note_on_c, 0, 51, 40
2, 265233, Note_on_c, 0, 63, 0
2, 265249, Note_on_c, 0, 55, 0
2, 265253, Note_on_c, 0, 51, 0
2, 265285, Note_on_c, 0, 75, 0
2, 265317, Note_on_c, 0, 76, 86
2, 265445, Note_on_c, 0, 76, 0
2, 265457, Control_c, 0, 64, 72
2, 265465, Note_on_c, 0, 77, 84
2, 265469, Note_on_c, 0, 45, 64
2, 265469, Control_c, 0, 64, 0
2, 265537, Note_on_c, 0, 45, 0
2, 265545, Control_c, 0, 64, 88
2, 265561, Note_on_c, 0, 77, 0
2, 265561, Control_c, 0, 64, 127
2, 265589, Note_on_c, 0, 78, 86
2, 265693, Note_on_c, 0, 78, 0
2, 265713, Note_on_c, 0, 63, 57
2, 265717, Note_on_c, 0, 79, 88
2, 265729, Note_on_c, 0, 51, 40
2, 265737, Note_on_c, 0, 53, 42
2, 265777, Note_on_c, 0, 53, 0
2, 265785, Note_on_c, 0, 51, 0
2, 265793, Note_on_c, 0, 63, 0
2, 265797, Note_on_c, 0, 79, 0
2, 265845, Note_on_c, 0, 78, 84
2, 265909, Note_on_c, 0, 78, 0
2, 265969, Note_on_c, 0, 63, 43
2, 265973, Note_on_c, 0, 51, 51
2, 265981, Note_on_c, 0, 77, 82
2, 266009, Note_on_c, 0, 63, 0
2, 266037, Note_on_c, 0, 51, 0
2, 266057, Note_on_c, 0, 77, 0
2, 266097, Note_on_c, 0, 75, 77
2, 266189, Note_on_c, 0, 75, 0
2, 266249, Note_on_c, 0, 73, 71
2, 266249, Control_c, 0, 64, 72
2, 266257, Note_on_c, 0, 46, 52
2, 266265, Control_c, 0, 64, 0
2, 266341, Control_c, 0, 64, 72
2, 266349, Note_on_c, 0, 46, 0
2, 266353, Control_c, 0, 64, 127
2, 266465, Note_on_c, 0, 73, 0
2, 266557, Note_on_c, 0, 74, 64
2, 266573, Note_on_c, 0, 62, 52
2, 266585, Note_on_c, 0, 53, 45
2, 266589, Note_on_c, 0, 50, 33
2, 266597, Control_c, 0, 64, 104
2, 266609, Control_c, 0, 64, 24
2, 266621, Control_c, 0, 64, 0
2, 266657, Note_on_c, 0, 62, 0
2, 266661, Control_c, 0, 64, 104
2, 266673, Control_c, 0, 64, 127
2, 266693, Note_on_c, 0, 50, 0
2, 266697, Note_on_c, 0, 53, 0
2, 266741, Note_on_c, 0, 74, 0
2, 266885, Note_on_c, 0, 62, 52
2, 266889, Note_on_c, 0, 50, 42
2, 266893, Note_on_c, 0, 53, 52
2, 266945, Note_on_c, 0, 62, 0
2, 266965, Note_on_c, 0, 50, 0
2, 266973, Note_on_c, 0, 53, 0
2, 267185, Note_on_c, 0, 42, 81
2, 267189, Note_on_c, 0, 54, 90
2, 267209, Control_c, 0, 64, 24
2, 267221, Control_c, 0, 64, 0
2, 267241, Note_on_c, 0, 54, 0
2, 267241, Note_on_c, 0, 42, 0
2, 267261, Control_c, 0, 64, 72
2, 267273, Control_c, 0, 64, 127
2, 267421, Note_on_c, 0, 63, 69
2, 267433, Note_on_c, 0, 60, 68
2, 267445, Note_on_c, 0, 57, 50
2, 267457, Note_on_c, 0, 60, 0
2, 267477, Note_on_c, 0, 57, 0
2, 267541, Note_on_c, 0, 63, 0
2, 267553, Note_on_c, 0, 81, 93
2, 267553, Note_on_c, 0, 69, 81
2, 267601, Note_on_c, 0, 69, 0
2, 267617, Note_on_c, 0, 81, 0
2, 267689, Note_on_c, 0, 63, 63
2, 267697, Note_on_c, 0, 87, 95
2, 267701, Note_on_c, 0, 75, 90
2, 267705, Note_on_c, 0, 57, 59
2, 267709, Note_on_c, 0, 60, 45
2, 267733, Note_on_c, 0, 60, 0
2, 267733, Note_on_c, 0, 57, 0
2, 267737, Note_on_c, 0, 75, 0
2, 267737, Note_on_c, 0, 63, 0
2, 267741, Note_on_c, 0, 87, 0
2, 267933, Note_on_c, 0, 71, 83
2, 267937, Note_on_c, 0, 83, 94
2, 267965, Note_on_c, 0, 71, 0
2, 267969, Note_on_c, 0, 83, 0
2, 268013, Note_on_c, 0, 41, 68
2, 268013, Note_on_c, 0, 84, 95
2, 268013, Control_c, 0, 64, 56
2, 268017, Note_on_c, 0, 72, 75
2, 268025, Note_on_c, 0, 53, 66
2, 268025, Control_c, 0, 64, 0
2, 268053, Note_on_c, 0, 41, 0
2, 268077, Control_c, 0, 64, 56
2, 268085, Note_on_c, 0, 53, 0
2, 268089, Control_c, 0, 64, 127
2, 268229, Note_on_c, 0, 72, 0
2, 268261, Note_on_c, 0, 63, 69
2, 268265, Note_on_c, 0, 60, 70
2, 268273, Note_on_c, 0, 57, 61
2, 268289, Note_on_c, 0, 84, 0
2, 268333, Note_on_c, 0, 60, 0
2, 268353, Note_on_c, 0, 57, 0
2, 268361, Note_on_c, 0, 63, 0
2, 268389, Note_on_c, 0, 86, 94
2, 268393, Note_on_c, 0, 74, 84
2, 268437, Note_on_c, 0, 74, 0
2, 268449, Note_on_c, 0, 86, 0
2, 268509, Note_on_c, 0, 63, 56
2, 268513, Note_on_c, 0, 87, 89
2, 268513, Note_on_c, 0, 60, 61
2, 268513, Note_on_c, 0, 75, 88
2, 268517, Note_on_c, 0, 57, 57
2, 268533, Note_on_c, 0, 60, 0
2, 268541, Note_on_c, 0, 57, 0
2, 268545, Note_on_c, 0, 63, 0
2, 268557, Note_on_c, 0, 75, 0
2, 268573, Note_on_c, 0, 87, 0
2, 268625, Note_on_c, 0, 88, 103
2, 268629, Note_on_c, 0, 76, 97
2, 268669, Note_on_c, 0, 76, 0
2, 268681, Note_on_c, 0, 88, 0
2, 268753, Note_on_c, 0, 89, 102
2, 268757, Note_on_c, 0, 77, 100
2, 268765, Note_on_c, 0, 39, 65
2, 268769, Note_on_c, 0, 51, 81
2, 268769, Control_c, 0, 64, 104
2, 268781, Control_c, 0, 64, 0
2, 268809, Note_on_c, 0, 39, 0
2, 268817, Note_on_c, 0, 51, 0
2, 268833, Control_c, 0, 64, 88
2, 268845, Control_c, 0, 64, 127
2, 268981, Note_on_c, 0, 77, 0
2, 268997, Note_on_c, 0, 65, 68
2, 269001, Note_on_c, 0, 60, 63
2, 269005, Note_on_c, 0, 57, 64
2, 269025, Note_on_c, 0, 89, 0
2, 269065, Note_on_c, 0, 65, 0
2, 269073, Note_on_c, 0, 60, 0
2, 269077, Note_on_c, 0, 57, 0
2, 269101, Note_on_c, 0, 91, 93
2, 269105, Note_on_c, 0, 79, 82
2, 269149, Note_on_c, 0, 79, 0
2, 269161, Note_on_c, 0, 91, 0
2, 269213, Note_on_c, 0, 60, 71
2, 269213, Note_on_c, 0, 65, 64
2, 269225, Note_on_c, 0, 80, 89
2, 269225, Note_on_c, 0, 92, 93
2, 269229, Note_on_c, 0, 57, 59
2, 269237, Note_on_c, 0, 65, 0
2, 269249, Note_on_c, 0, 60, 0
2, 269253, Note_on_c, 0, 57, 0
2, 269273, Note_on_c, 0, 80, 0
2, 269281, Note_on_c, 0, 92, 0
2, 269341, Note_on_c, 0, 93, 112
2, 269349, Note_on_c, 0, 81, 94
2, 269385, Note_on_c, 0, 81, 0
2, 269405, Note_on_c, 0, 93, 0
2, 269497, Note_on_c, 0, 96, 97
2, 269505, Note_on_c, 0, 84, 89
2, 269509, Control_c, 0, 64, 104
2, 269521, Note_on_c, 0, 38, 74
2, 269521, Control_c, 0, 64, 0
2, 269529, Note_on_c, 0, 50, 72
2, 269585, Note_on_c, 0, 50, 0
2, 269585, Note_on_c, 0, 38, 0
2, 269597, Control_c, 0, 64, 127
2, 269765, Note_on_c, 0, 96, 0
2, 269789, Note_on_c, 0, 84, 0
2, 269789, Note_on_c, 0, 65, 60
2, 269793, Note_on_c, 0, 58, 43
2, 269801, Note_on_c, 0, 53, 41
2, 269841, Note_on_c, 0, 53, 0
2, 269853, Note_on_c, 0, 58, 0
2, 269853, Note_on_c, 0, 65, 0
2, 269917, Note_on_c, 0, 94, 77
2, 269925, Note_on_c, 0, 82, 70
2, 269993, Note_on_c, 0, 82, 0
2, 270001, Note_on_c, 0, 94, 0
2, 270049, Note_on_c, 0, 58, 45
2, 270053, Note_on_c, 0, 93, 88
2, 270061, Note_on_c, 0, 65, 31
2, 270061, Note_on_c, 0, 81, 73
2, 270077, Note_on_c, 0, 53, 28
2, 270085, Note_on_c, 0, 65, 0
2, 270105, Note_on_c, 0, 58, 0
2, 270109, Note_on_c, 0, 53, 0
2, 270113, Note_on_c, 0, 81, 0
2, 270117, Note_on_c, 0, 93, 0
2, 270193, Note_on_c, 0, 91, 89
2, 270197, Note_on_c, 0, 79, 78
2, 270245, Note_on_c, 0, 79, 0
2, 270261, Note_on_c, 0, 91, 0
2, 270357, Note_on_c, 0, 90, 85
2, 270361, Note_on_c, 0, 78, 81
2, 270369, Note_on_c, 0, 39, 53
2, 270373, Note_on_c, 0, 51, 58
2, 270377, Control_c, 0, 64, 72
2, 270389, Control_c, 0, 64, 0
2, 270421, Note_on_c, 0, 39, 0
2, 270425, Note_on_c, 0, 51, 0
2, 270457, Control_c, 0, 64, 127
2, 270593, Note_on_c, 0, 78, 0
2, 270597, Note_on_c, 0, 90, 0
2, 270617, Note_on_c, 0, 66, 61
2, 270621, Note_on_c, 0, 58, 54
2, 270621, Note_on_c, 0, 51, 54
2, 270669, Note_on_c, 0, 51, 0
2, 270701, Note_on_c, 0, 58, 0
2, 270709, Note_on_c, 0, 66, 0
2, 270737, Note_on_c, 0, 89, 79
2, 270741, Note_on_c, 0, 77, 72
2, 270797, Note_on_c, 0, 77, 0
2, 270801, Note_on_c, 0, 89, 0
2, 270861, Note_on_c, 0, 66, 49
2, 270865, Note_on_c, 0, 58, 54
2, 270881, Note_on_c, 0, 51, 43
2, 270885, Note_on_c, 0, 66, 0
2, 270893, Note_on_c, 0, 87, 67
2, 270893, Note_on_c, 0, 75, 71
2, 270917, Note_on_c, 0, 58, 0
2, 270925, Note_on_c, 0, 75, 0
2, 270937, Note_on_c, 0, 51, 0
2, 270949, Note_on_c, 0, 87, 0
2, 271017, Note_on_c, 0, 85, 77
2, 271021, Note_on_c, 0, 73, 74
2, 271097, Note_on_c, 0, 73, 0
2, 271117, Note_on_c, 0, 36, 64
2, 271129, Note_on_c, 0, 85, 0
2, 271133, Control_c, 0, 64, 40
2, 271145, Control_c, 0, 64, 0
2, 271169, Note_on_c, 0, 36, 0
2, 271197, Control_c, 0, 64, 56
2, 271209, Control_c, 0, 64, 127
2, 271221, Note_on_c, 0, 84, 82
2, 271229, Note_on_c, 0, 72, 70
2, 271245, Note_on_c, 0, 52, 51
2, 271273, Note_on_c, 0, 52, 0
2, 271393, Note_on_c, 0, 84, 0
2, 271421, Note_on_c, 0, 72, 0
2, 271477, Note_on_c, 0, 48, 60
2, 271501, Note_on_c, 0, 48, 0
2, 271609, Note_on_c, 0, 82, 62
2, 271621, Note_on_c, 0, 70, 51
2, 271673, Note_on_c, 0, 70, 0
2, 271685, Note_on_c, 0, 82, 0
2, 271729, Note_on_c, 0, 64, 33
2, 271737, Note_on_c, 0, 55, 43
2, 271741, Note_on_c, 0, 58, 26
2, 271749, Note_on_c, 0, 81, 79
2, 271753, Note_on_c, 0, 64, 0
2, 271761, Note_on_c, 0, 69, 56
2, 271769, Note_on_c, 0, 58, 0
2, 271773, Note_on_c, 0, 55, 0
2, 271797, Note_on_c, 0, 69, 0
2, 271805, Note_on_c, 0, 81, 0
2, 271889, Note_on_c, 0, 79, 82
2, 271897, Note_on_c, 0, 67, 64
2, 271941, Note_on_c, 0, 67, 0
2, 271941, Note_on_c, 0, 79, 0
2, 272053, Control_c, 0, 64, 104
2, 272065, Control_c, 0, 64, 24
2, 272069, Note_on_c, 0, 77, 81
2, 272077, Note_on_c, 0, 65, 65
2, 272077, Note_on_c, 0, 41, 57
2, 272077, Control_c, 0, 64, 0
2, 272133, Note_on_c, 0, 41, 0
2, 272153, Control_c, 0, 64, 104
2, 272165, Control_c, 0, 64, 127
2, 272289, Note_on_c, 0, 65, 0
2, 272357, Note_on_c, 0, 53, 48
2, 272485, Note_on_c, 0, 67, 67
2, 272565, Note_on_c, 0, 67, 0
2, 272665, Control_c, 0, 64, 104
2, 272669, Note_on_c, 0, 65, 59
2, 272677, Note_on_c, 0, 63, 35
2, 272677, Control_c, 0, 64, 40
2, 272685, Note_on_c, 0, 57, 42
2, 272693, Control_c, 0, 64, 0
2, 272729, Control_c, 0, 64, 24
2, 272741, Control_c, 0, 64, 88
2, 272757, Control_c, 0, 64, 127
2, 272769, Note_on_c, 0, 57, 0
2, 272773, Note_on_c, 0, 63, 0
2, 272801, Note_on_c, 0, 53, 0
2, 272837, Note_on_c, 0, 74, 64
2, 273025, Control_c, 0, 64, 40
2, 273037, Note_on_c, 0, 70, 55
2, 273037, Note_on_c, 0, 46, 51
2, 273037, Control_c, 0, 64, 0
2, 273113, Note_on_c, 0, 46, 0
2, 273113, Control_c, 0, 64, 104
2, 273125, Control_c, 0, 64, 127
2, 273193, Note_on_c, 0, 65, 0
2, 273205, Note_on_c, 0, 77, 0
2, 273217, Note_on_c, 0, 74, 0
2, 273229, Note_on_c, 0, 70, 0
2, 273421, Note_on_c, 0, 62, 31
2, 273429, Note_on_c, 0, 53, 36
2, 273429, Note_on_c, 0, 58, 23
2, 273573, Note_on_c, 0, 53, 0
2, 273581, Note_on_c, 0, 62, 0
2, 273613, Note_on_c, 0, 58, 0
2, 274221, Note_on_c, 0, 62, 63
2, 274233, Note_on_c, 0, 57, 33
2, 274249, Control_c, 0, 64, 72
2, 274261, Note_on_c, 0, 60, 26
2, 274261, Control_c, 0, 64, 0
2, 274341, Note_on_c, 0, 57, 0
2, 274341, Control_c, 0, 64, 88
2, 274353, Control_c, 0, 64, 127
2, 274405, Note_on_c, 0, 50, 31
2, 274457, Note_on_c, 0, 62, 0
2, 274485, Note_on_c, 0, 50, 0
2, 274505, Note_on_c, 0, 60, 0
2, 274513, Note_on_c, 0, 42, 37
2, 274593, Note_on_c, 0, 42, 0
2, 274657, Note_on_c, 0, 50, 36
2, 274745, Note_on_c, 0, 50, 0
2, 274789, Note_on_c, 0, 74, 69
2, 274789, Note_on_c, 0, 57, 45
2, 274913, Note_on_c, 0, 57, 0
2, 274941, Note_on_c, 0, 50, 45
2, 275029, Note_on_c, 0, 74, 0
2, 275033, Note_on_c, 0, 50, 0
2, 275065, Note_on_c, 0, 58, 38
2, 275073, Note_on_c, 0, 72, 79
2, 275093, Note_on_c, 0, 62, 42
2, 275133, Control_c, 0, 64, 104
2, 275145, Control_c, 0, 64, 24
2, 275157, Control_c, 0, 64, 0
2, 275165, Note_on_c, 0, 58, 0
2, 275201, Note_on_c, 0, 50, 45
2, 275209, Control_c, 0, 64, 40
2, 275221, Control_c, 0, 64, 127
2, 275297, Note_on_c, 0, 50, 0
2, 275337, Note_on_c, 0, 43, 48
2, 275409, Note_on_c, 0, 43, 0
2, 275425, Note_on_c, 0, 72, 0
2, 275433, Note_on_c, 0, 62, 0
2, 275465, Note_on_c, 0, 70, 67
2, 275485, Note_on_c, 0, 50, 53
2, 275553, Note_on_c, 0, 50, 0
2, 275557, Note_on_c, 0, 70, 0
2, 275601, Note_on_c, 0, 69, 79
2, 275601, Note_on_c, 0, 58, 26
2, 275685, Note_on_c, 0, 69, 0
2, 275717, Note_on_c, 0, 67, 79
2, 275741, Note_on_c, 0, 58, 0
2, 275785, Note_on_c, 0, 67, 0
2, 275869, Note_on_c, 0, 67, 83
2, 275889, Note_on_c, 0, 62, 55
2, 275893, Note_on_c, 0, 65, 46
2, 275897, Control_c, 0, 64, 88
2, 275909, Control_c, 0, 64, 0
2, 275965, Note_on_c, 0, 62, 0
2, 275985, Control_c, 0, 64, 88
2, 276001, Control_c, 0, 64, 127
2, 276009, Note_on_c, 0, 55, 44
2, 276089, Note_on_c, 0, 55, 0
2, 276141, Note_on_c, 0, 47, 39
2, 276181, Note_on_c, 0, 67, 0
2, 276201, Note_on_c, 0, 47, 0
2, 276249, Note_on_c, 0, 55, 44
2, 276329, Note_on_c, 0, 55, 0
2, 276361, Note_on_c, 0, 62, 50
2, 276381, Note_on_c, 0, 79, 86
2, 276453, Note_on_c, 0, 62, 0
2, 276513, Note_on_c, 0, 55, 47
2, 276545, Note_on_c, 0, 79, 0
2, 276637, Note_on_c, 0, 55, 0
2, 276657, Note_on_c, 0, 77, 81
2, 276657, Note_on_c, 0, 63, 46
2, 276689, Control_c, 0, 64, 104
2, 276705, Control_c, 0, 64, 0
2, 276773, Note_on_c, 0, 63, 0
2, 276773, Note_on_c, 0, 55, 58
2, 276781, Control_c, 0, 64, 88
2, 276789, Note_on_c, 0, 65, 0
2, 276793, Control_c, 0, 64, 127
2, 276893, Note_on_c, 0, 55, 0
2, 276921, Note_on_c, 0, 48, 48
2, 276989, Note_on_c, 0, 48, 0
2, 277041, Note_on_c, 0, 77, 0
2, 277069, Note_on_c, 0, 75, 72
2, 277077, Note_on_c, 0, 55, 48
2, 277141, Note_on_c, 0, 55, 0
2, 277169, Note_on_c, 0, 75, 0
2, 277181, Note_on_c, 0, 63, 35
2, 277193, Note_on_c, 0, 74, 84
2, 277289, Note_on_c, 0, 74, 0
2, 277313, Note_on_c, 0, 72, 84
2, 277329, Note_on_c, 0, 63, 0
2, 277397, Note_on_c, 0, 72, 0
2, 277493, Note_on_c, 0, 74, 80
2, 277513, Note_on_c, 0, 72, 53
2, 277517, Note_on_c, 0, 69, 52
2, 277521, Control_c, 0, 64, 104
2, 277533, Control_c, 0, 64, 24
2, 277545, Control_c, 0, 64, 0
2, 277609, Control_c, 0, 64, 72
2, 277617, Note_on_c, 0, 69, 0
2, 277625, Control_c, 0, 64, 127
2, 277649, Note_on_c, 0, 62, 48
2, 277717, Note_on_c, 0, 74, 0
2, 277741, Note_on_c, 0, 62, 0
2, 277765, Note_on_c, 0, 54, 49
2, 277829, Note_on_c, 0, 72, 0
2, 277841, Note_on_c, 0, 54, 0
2, 277877, Note_on_c, 0, 62, 51
2, 277977, Note_on_c, 0, 62, 0
2, 277989, Note_on_c, 0, 86, 82
2, 278025, Note_on_c, 0, 69, 42
2, 278101, Note_on_c, 0, 69, 0
2, 278125, Note_on_c, 0, 86, 0
2, 278129, Note_on_c, 0, 62, 56
2, 278273, Note_on_c, 0, 62, 0
2, 278289, Note_on_c, 0, 70, 54
2, 278305, Note_on_c, 0, 84, 76
2, 278325, Note_on_c, 0, 74, 46
2, 278341, Control_c, 0, 64, 56
2, 278353, Control_c, 0, 64, 0
2, 278405, Note_on_c, 0, 70, 0
2, 278417, Note_on_c, 0, 62, 58
2, 278417, Control_c, 0, 64, 56
2, 278429, Control_c, 0, 64, 127
2, 278533, Note_on_c, 0, 62, 0
2, 278569, Note_on_c, 0, 84, 0
2, 278569, Note_on_c, 0, 55, 41
2, 278613, Note_on_c, 0, 55, 0
2, 278685, Note_on_c, 0, 82, 68
2, 278701, Note_on_c, 0, 62, 45
2, 278781, Note_on_c, 0, 62, 0
2, 278797, Note_on_c, 0, 82, 0
2, 278821, Note_on_c, 0, 70, 37
2, 278829, Note_on_c, 0, 81, 63
2, 278941, Note_on_c, 0, 70, 0
2, 278949, Note_on_c, 0, 79, 70
2, 278949, Note_on_c, 0, 62, 41
2, 278953, Note_on_c, 0, 74, 0
2, 278957, Note_on_c, 0, 81, 0
2, 278977, Note_on_c, 0, 62, 0
2, 278981, Note_on_c, 0, 79, 0
2, 279121, Note_on_c, 0, 69, 72
2, 279141, Note_on_c, 0, 67, 33
2, 279145, Note_on_c, 0, 64, 38
2, 279169, Control_c, 0, 64, 40
2, 279181, Control_c, 0, 64, 0
2, 279225, Note_on_c, 0, 64, 0
2, 279245, Control_c, 0, 64, 56
2, 279261, Control_c, 0, 64, 127
2, 279269, Note_on_c, 0, 57, 40
2, 279289, Note_on_c, 0, 69, 0
2, 279345, Note_on_c, 0, 57, 0
2, 279397, Note_on_c, 0, 49, 42
2, 279417, Note_on_c, 0, 67, 0
2, 279477, Note_on_c, 0, 49, 0
2, 279521, Note_on_c, 0, 57, 39
2, 279597, Note_on_c, 0, 57, 0
2, 279649, Note_on_c, 0, 64, 29
2, 279661, Note_on_c, 0, 81, 73
2, 279737, Note_on_c, 0, 64, 0
2, 279741, Note_on_c, 0, 81, 0
2, 279785, Note_on_c, 0, 57, 45
2, 279881, Note_on_c, 0, 57, 0
2, 279945, Note_on_c, 0, 62, 58
2, 279957, Note_on_c, 0, 66, 36
2, 279961, Control_c, 0, 64, 104
2, 279969, Note_on_c, 0, 60, 33
2, 279973, Control_c, 0, 64, 40
2, 279985, Control_c, 0, 64, 0
2, 280033, Note_on_c, 0, 66, 0
2, 280053, Control_c, 0, 64, 127
2, 280069, Note_on_c, 0, 57, 48
2, 280101, Note_on_c, 0, 60, 0
2, 280109, Note_on_c, 0, 62, 0
2, 280169, Note_on_c, 0, 57, 0
2, 280197, Note_on_c, 0, 50, 53
2, 280293, Note_on_c, 0, 50, 0
2, 280361, Note_on_c, 0, 57, 36
2, 280469, Note_on_c, 0, 57, 0
2, 280485, Note_on_c, 0, 74, 62
2, 280517, Note_on_c, 0, 66, 38
2, 280605, Note_on_c, 0, 74, 0
2, 280637, Note_on_c, 0, 66, 0
2, 280677, Note_on_c, 0, 57, 30
2, 280701, Note_on_c, 0, 57, 0
2, 280877, Note_on_c, 0, 62, 64
2, 280889, Note_on_c, 0, 57, 44
2, 280905, Note_on_c, 0, 60, 44
2, 280945, Control_c, 0, 64, 104
2, 280957, Control_c, 0, 64, 40
2, 280969, Control_c, 0, 64, 0
2, 281009, Note_on_c, 0, 57, 0
2, 281037, Control_c, 0, 64, 56
2, 281041, Note_on_c, 0, 50, 44
2, 281049, Control_c, 0, 64, 127
2, 281145, Note_on_c, 0, 50, 0
2, 281145, Note_on_c, 0, 62, 0
2, 281181, Note_on_c, 0, 42, 45
2, 281229, Note_on_c, 0, 60, 0
2, 281293, Note_on_c, 0, 42, 0
2, 281313, Note_on_c, 0, 50, 49
2, 281417, Note_on_c, 0, 74, 70
2, 281429, Note_on_c, 0, 50, 0
2, 281441, Note_on_c, 0, 57, 58
2, 281513, Note_on_c, 0, 74, 0
2, 281541, Note_on_c, 0, 57, 0
2, 281557, Note_on_c, 0, 50, 65
2, 281685, Note_on_c, 0, 50, 0
2, 281705, Note_on_c, 0, 58, 56
2, 281721, Note_on_c, 0, 72, 82
2, 281737, Control_c, 0, 64, 72
2, 281745, Note_on_c, 0, 62, 45
2, 281749, Control_c, 0, 64, 0
2, 281777, Note_on_c, 0, 62, 0
2, 281817, Note_on_c, 0, 62, 18
2, 281821, Note_on_c, 0, 58, 0
2, 281841, Note_on_c, 0, 50, 61
2, 281841, Control_c, 0, 64, 104
2, 281853, Control_c, 0, 64, 127
2, 281937, Note_on_c, 0, 50, 0
2, 281993, Note_on_c, 0, 43, 33
2, 282049, Note_on_c, 0, 43, 0
2, 282101, Note_on_c, 0, 50, 60
2, 282105, Note_on_c, 0, 72, 0
2, 282109, Note_on_c, 0, 70, 74
2, 282173, Note_on_c, 0, 62, 0
2, 282197, Note_on_c, 0, 50, 0
2, 282229, Note_on_c, 0, 58, 43
2, 282233, Note_on_c, 0, 69, 83
2, 282253, Note_on_c, 0, 70, 0
2, 282329, Note_on_c, 0, 69, 0
2, 282337, Note_on_c, 0, 50, 64
2, 282349, Note_on_c, 0, 67, 78
2, 282357, Note_on_c, 0, 58, 0
2, 282365, Note_on_c, 0, 50, 0
2, 282429, Note_on_c, 0, 67, 0
2, 282501, Note_on_c, 0, 67, 76
2, 282509, Note_on_c, 0, 62, 73
2, 282529, Note_on_c, 0, 65, 49
2, 282529, Control_c, 0, 64, 40
2, 282541, Control_c, 0, 64, 0
2, 282605, Note_on_c, 0, 62, 0
2, 282605, Control_c, 0, 64, 88
2, 282621, Control_c, 0, 64, 127
2, 282641, Note_on_c, 0, 55, 64
2, 282753, Note_on_c, 0, 55, 0
2, 282761, Note_on_c, 0, 67, 0
2, 282785, Note_on_c, 0, 47, 63
2, 282825, Note_on_c, 0, 65, 0
2, 282865, Note_on_c, 0, 47, 0
2, 282913, Note_on_c, 0, 55, 55
2, 283025, Note_on_c, 0, 55, 0
2, 283065, Note_on_c, 0, 79, 82
2, 283065, Note_on_c, 0, 62, 51
2, 283129, Note_on_c, 0, 62, 0
2, 283177, Note_on_c, 0, 79, 0
2, 283185, Note_on_c, 0, 55, 58
2, 283317, Note_on_c, 0, 55, 0
2, 283337, Note_on_c, 0, 63, 51
2, 283341, Note_on_c, 0, 77, 77
2, 283353, Note_on_c, 0, 67, 54
2, 283361, Control_c, 0, 64, 88
2, 283373, Control_c, 0, 64, 0
2, 283437, Note_on_c, 0, 63, 0
2, 283437, Control_c, 0, 64, 40
2, 283449, Control_c, 0, 64, 104
2, 283461, Note_on_c, 0, 55, 54
2, 283461, Control_c, 0, 64, 127
2, 283573, Note_on_c, 0, 55, 0
2, 283609, Note_on_c, 0, 48, 52
2, 283693, Note_on_c, 0, 48, 0
2, 283693, Note_on_c, 0, 77, 0
2, 283733, Note_on_c, 0, 67, 0
2, 283733, Note_on_c, 0, 75, 67
2, 283741, Note_on_c, 0, 55, 56
2, 283829, Note_on_c, 0, 55, 0
2, 283857, Note_on_c, 0, 75, 0
2, 283873, Note_on_c, 0, 63, 41
2, 283881, Note_on_c, 0, 74, 66
2, 283985, Note_on_c, 0, 74, 0
2, 284001, Note_on_c, 0, 55, 46
2, 284005, Note_on_c, 0, 63, 0
2, 284009, Note_on_c, 0, 72, 75
2, 284025, Note_on_c, 0, 55, 0
2, 284085, Note_on_c, 0, 72, 0
2, 284189, Note_on_c, 0, 74, 79
2, 284197, Note_on_c, 0, 69, 50
2, 284205, Note_on_c, 0, 72, 52
2, 284241, Control_c, 0, 64, 40
2, 284253, Control_c, 0, 64, 0
2, 284285, Note_on_c, 0, 69, 0
2, 284317, Control_c, 0, 64, 127
2, 284325, Note_on_c, 0, 62, 47
2, 284397, Note_on_c, 0, 72, 0
2, 284413, Note_on_c, 0, 62, 0
2, 284429, Note_on_c, 0, 74, 0
2, 284449, Note_on_c, 0, 54, 38
2, 284541, Note_on_c, 0, 54, 0
2, 284577, Note_on_c, 0, 62, 35
2, 284661, Note_on_c, 0, 62, 0
2, 284673, Note_on_c, 0, 86, 84
2, 284701, Note_on_c, 0, 69, 44
2, 284769, Note_on_c, 0, 69, 0
2, 284781, Note_on_c, 0, 86, 0
2, 284821, Note_on_c, 0, 62, 55
2, 284965, Note_on_c, 0, 62, 0
2, 284985, Note_on_c, 0, 84, 78
2, 284989, Note_on_c, 0, 70, 39
2, 285009, Note_on_c, 0, 74, 53
2, 285049, Control_c, 0, 64, 72
2, 285061, Control_c, 0, 64, 0
2, 285069, Note_on_c, 0, 70, 0
2, 285113, Note_on_c, 0, 62, 42
2, 285125, Control_c, 0, 64, 56
2, 285137, Control_c, 0, 64, 127
2, 285217, Note_on_c, 0, 62, 0
2, 285257, Note_on_c, 0, 55, 41
2, 285305, Note_on_c, 0, 84, 0
2, 285333, Note_on_c, 0, 55, 0
2, 285405, Note_on_c, 0, 82, 68
2, 285417, Note_on_c, 0, 62, 44
2, 285497, Note_on_c, 0, 82, 0
2, 285505, Note_on_c, 0, 62, 0
2, 285541, Note_on_c, 0, 70, 41
2, 285545, Note_on_c, 0, 81, 67
2, 285625, Note_on_c, 0, 74, 0
2, 285641, Note_on_c, 0, 81, 0
2, 285657, Note_on_c, 0, 70, 0
2, 285661, Note_on_c, 0, 62, 49
2, 285673, Note_on_c, 0, 79, 64
2, 285689, Note_on_c, 0, 62, 0
2, 285705, Note_on_c, 0, 79, 0
2, 285861, Note_on_c, 0, 67, 42
2, 285861, Note_on_c, 0, 69, 59
2, 285873, Note_on_c, 0, 64, 42
2, 285877, Control_c, 0, 64, 56
2, 285889, Control_c, 0, 64, 0
2, 285957, Note_on_c, 0, 64, 0
2, 285957, Control_c, 0, 64, 72
2, 285969, Control_c, 0, 64, 127
2, 285993, Note_on_c, 0, 67, 0
2, 286017, Note_on_c, 0, 57, 45
2, 286109, Note_on_c, 0, 57, 0
2, 286109, Note_on_c, 0, 69, 0
2, 286153, Note_on_c, 0, 49, 42
2, 286237, Note_on_c, 0, 49, 0
2, 286261, Note_on_c, 0, 57, 42
2, 286337, Note_on_c, 0, 57, 0
2, 286389, Note_on_c, 0, 64, 34
2, 286429, Note_on_c, 0, 81, 72
2, 286461, Note_on_c, 0, 64, 0
2, 286505, Note_on_c, 0, 81, 0
2, 286569, Note_on_c, 0, 57, 30
2, 286665, Note_on_c, 0, 57, 0
2, 286737, Note_on_c, 0, 62, 62
2, 286745, Control_c, 0, 64, 56
2, 286749, Note_on_c, 0, 60, 47
2, 286753, Note_on_c, 0, 66, 39
2, 286757, Control_c, 0, 64, 0
2, 286825, Control_c, 0, 64, 72
2, 286833, Control_c, 0, 64, 127
2, 286841, Note_on_c, 0, 66, 0
2, 286853, Note_on_c, 0, 60, 0
2, 286869, Note_on_c, 0, 62, 0
2, 286881, Note_on_c, 0, 57, 36
2, 286985, Note_on_c, 0, 57, 0
2, 287025, Note_on_c, 0, 50, 46
2, 287105, Note_on_c, 0, 50, 0
2, 287185, Note_on_c, 0, 57, 42
2, 287305, Note_on_c, 0, 57, 0
2, 287349, Note_on_c, 0, 66, 40
2, 287353, Note_on_c, 0, 74, 52
2, 287449, Note_on_c, 0, 66, 0
2, 287505, Note_on_c, 0, 57, 47
2, 287593, Note_on_c, 0, 74, 0
2, 287597, Note_on_c, 0, 57, 0
2, 287721, Note_on_c, 0, 54, 60
2, 287781, Control_c, 0, 64, 104
2, 287793, Control_c, 0, 64, 24
2, 287809, Control_c, 0, 64, 0
2, 287857, Control_c, 0, 64, 56
2, 287873, Control_c, 0, 64, 127
2, 288005, Note_on_c, 0, 63, 35
2, 288009, Note_on_c, 0, 54, 0
2, 288029, Note_on_c, 0, 57, 40
2, 288121, Note_on_c, 0, 57, 0
2, 288121, Note_on_c, 0, 60, 67
2, 288133, Note_on_c, 0, 63, 0
2, 288169, Note_on_c, 0, 60, 0
2, 288293, Note_on_c, 0, 75, 81
2, 288305, Control_c, 0, 64, 40
2, 288317, Control_c, 0, 64, 0
2, 288341, Note_on_c, 0, 41, 56
2, 288357, Control_c, 0, 64, 56
2, 288369, Control_c, 0, 64, 127
2, 288401, Note_on_c, 0, 41, 0
2, 288409, Note_on_c, 0, 75, 0
2, 288577, Note_on_c, 0, 71, 67
2, 288649, Note_on_c, 0, 71, 0
2, 288649, Control_c, 0, 64, 40
2, 288653, Note_on_c, 0, 72, 82
2, 288661, Control_c, 0, 64, 0
2, 288665, Note_on_c, 0, 53, 54
2, 288753, Control_c, 0, 64, 40
2, 288765, Control_c, 0, 64, 127
2, 288925, Note_on_c, 0, 63, 54
2, 288937, Note_on_c, 0, 57, 43
2, 288945, Note_on_c, 0, 53, 0
2, 288989, Note_on_c, 0, 57, 0
2, 288997, Note_on_c, 0, 63, 0
2, 289009, Note_on_c, 0, 72, 0
2, 289045, Note_on_c, 0, 74, 79
2, 289129, Note_on_c, 0, 63, 25
2, 289145, Note_on_c, 0, 74, 0
2, 289169, Note_on_c, 0, 63, 0
2, 289173, Note_on_c, 0, 75, 69
2, 289189, Note_on_c, 0, 64, 48
2, 289253, Note_on_c, 0, 64, 0
2, 289269, Note_on_c, 0, 75, 0
2, 289285, Note_on_c, 0, 76, 84
2, 289425, Note_on_c, 0, 77, 94
2, 289433, Note_on_c, 0, 76, 0
2, 289445, Note_on_c, 0, 51, 54
2, 289457, Control_c, 0, 64, 24
2, 289469, Control_c, 0, 64, 0
2, 289545, Control_c, 0, 64, 104
2, 289557, Control_c, 0, 64, 127
2, 289585, Note_on_c, 0, 51, 0
2, 289665, Note_on_c, 0, 65, 56
2, 289669, Note_on_c, 0, 60, 44
2, 289701, Note_on_c, 0, 57, 31
2, 289705, Note_on_c, 0, 60, 0
2, 289729, Note_on_c, 0, 77, 0
2, 289741, Note_on_c, 0, 65, 0
2, 289741, Note_on_c, 0, 57, 0
2, 289773, Note_on_c, 0, 79, 85
2, 289865, Note_on_c, 0, 79, 0
2, 289897, Note_on_c, 0, 80, 84
2, 289897, Note_on_c, 0, 65, 45
2, 289917, Note_on_c, 0, 57, 38
2, 289925, Note_on_c, 0, 65, 0
2, 289949, Note_on_c, 0, 57, 0
2, 289977, Note_on_c, 0, 80, 0
2, 290021, Note_on_c, 0, 81, 96
2, 290125, Note_on_c, 0, 81, 0
2, 290201, Note_on_c, 0, 50, 58
2, 290241, Note_on_c, 0, 84, 87
2, 290245, Control_c, 0, 64, 72
2, 290257, Control_c, 0, 64, 0
2, 290341, Note_on_c, 0, 50, 0
2, 290349, Control_c, 0, 64, 56
2, 290361, Control_c, 0, 64, 127
2, 290497, Note_on_c, 0, 58, 40
2, 290501, Note_on_c, 0, 65, 47
2, 290553, Note_on_c, 0, 84, 0
2, 290577, Note_on_c, 0, 58, 0
2, 290593, Note_on_c, 0, 65, 0
2, 290633, Note_on_c, 0, 82, 73
2, 290709, Note_on_c, 0, 82, 0
2, 290777, Note_on_c, 0, 58, 39
2, 290781, Note_on_c, 0, 81, 66
2, 290833, Note_on_c, 0, 58, 0
2, 290865, Note_on_c, 0, 81, 0
2, 290917, Note_on_c, 0, 79, 63
2, 290949, Note_on_c, 0, 79, 0
2, 291065, Control_c, 0, 64, 72
2, 291077, Control_c, 0, 64, 0
2, 291097, Note_on_c, 0, 48, 62
2, 291141, Control_c, 0, 64, 40
2, 291149, Note_on_c, 0, 48, 0
2, 291153, Control_c, 0, 64, 127
2, 291353, Note_on_c, 0, 63, 43
2, 291365, Note_on_c, 0, 57, 45
2, 291409, Note_on_c, 0, 57, 0
2, 291425, Note_on_c, 0, 63, 0
2, 291485, Note_on_c, 0, 69, 69
2, 291561, Note_on_c, 0, 69, 0
2, 291597, Note_on_c, 0, 75, 81
2, 291601, Note_on_c, 0, 63, 44
2, 291633, Note_on_c, 0, 63, 0
2, 291637, Note_on_c, 0, 53, 45
2, 291657, Note_on_c, 0, 75, 0
2, 291661, Note_on_c, 0, 53, 0
2, 291829, Note_on_c, 0, 71, 70
2, 291885, Control_c, 0, 64, 104
2, 291893, Note_on_c, 0, 71, 0
2, 291897, Control_c, 0, 64, 0
2, 291905, Note_on_c, 0, 46, 58
2, 291913, Note_on_c, 0, 72, 84
2, 291961, Note_on_c, 0, 46, 0
2, 291985, Control_c, 0, 64, 72
2, 291997, Control_c, 0, 64, 127
2, 292153, Note_on_c, 0, 63, 44
2, 292173, Note_on_c, 0, 55, 49
2, 292173, Note_on_c, 0, 51, 39
2, 292201, Note_on_c, 0, 55, 0
2, 292225, Note_on_c, 0, 72, 0
2, 292237, Note_on_c, 0, 63, 0
2, 292245, Note_on_c, 0, 51, 0
2, 292285, Note_on_c, 0, 74, 80
2, 292381, Note_on_c, 0, 74, 0
2, 292397, Note_on_c, 0, 63, 40
2, 292397, Note_on_c, 0, 75, 82
2, 292409, Note_on_c, 0, 51, 46
2, 292425, Note_on_c, 0, 63, 0
2, 292445, Note_on_c, 0, 51, 0
2, 292473, Note_on_c, 0, 75, 0
2, 292501, Note_on_c, 0, 76, 86
2, 292625, Control_c, 0, 64, 104
2, 292637, Note_on_c, 0, 77, 90
2, 292637, Control_c, 0, 64, 0
2, 292641, Note_on_c, 0, 45, 69
2, 292661, Note_on_c, 0, 76, 0
2, 292693, Note_on_c, 0, 45, 0
2, 292701, Control_c, 0, 64, 56
2, 292713, Control_c, 0, 64, 127
2, 292737, Note_on_c, 0, 77, 0
2, 292761, Note_on_c, 0, 78, 84
2, 292861, Note_on_c, 0, 78, 0
2, 292881, Note_on_c, 0, 63, 52
2, 292897, Note_on_c, 0, 53, 55
2, 292897, Note_on_c, 0, 79, 80
2, 292909, Note_on_c, 0, 51, 37
2, 292957, Note_on_c, 0, 53, 0
2, 292961, Note_on_c, 0, 63, 0
2, 292977, Note_on_c, 0, 79, 0
2, 292997, Note_on_c, 0, 51, 0
2, 293013, Note_on_c, 0, 78, 80
2, 293089, Note_on_c, 0, 78, 0
2, 293145, Note_on_c, 0, 63, 40
2, 293145, Note_on_c, 0, 77, 82
2, 293149, Note_on_c, 0, 51, 47
2, 293177, Note_on_c, 0, 63, 0
2, 293209, Note_on_c, 0, 51, 0
2, 293225, Note_on_c, 0, 77, 0
2, 293269, Note_on_c, 0, 75, 80
2, 293353, Note_on_c, 0, 75, 0
2, 293417, Control_c, 0, 64, 88
2, 293421, Note_on_c, 0, 73, 73
2, 293429, Control_c, 0, 64, 0
2, 293437, Note_on_c, 0, 46, 54
2, 293513, Note_on_c, 0, 46, 0
2, 293517, Control_c, 0, 64, 72
2, 293533, Control_c, 0, 64, 127
2, 293609, Note_on_c, 0, 73, 0
2, 293713, Note_on_c, 0, 74, 61
2, 293725, Note_on_c, 0, 62, 46
2, 293733, Note_on_c, 0, 50, 44
2, 293733, Note_on_c, 0, 53, 41
2, 293749, Control_c, 0, 64, 40
2, 293761, Control_c, 0, 64, 0
2, 293813, Control_c, 0, 64, 40
2, 293817, Note_on_c, 0, 50, 0
2, 293825, Control_c, 0, 64, 127
2, 293837, Note_on_c, 0, 74, 0
2, 293837, Note_on_c, 0, 62, 0
2, 293841, Note_on_c, 0, 53, 0
2, 294001, Note_on_c, 0, 62, 59
2, 294009, Note_on_c, 0, 53, 51
2, 294017, Note_on_c, 0, 50, 46
2, 294057, Note_on_c, 0, 50, 0
2, 294061, Note_on_c, 0, 62, 0
2, 294077, Note_on_c, 0, 53, 0
2, 294305, Note_on_c, 0, 42, 84
2, 294305, Note_on_c, 0, 54, 85
2, 294309, Control_c, 0, 64, 104
2, 294325, Control_c, 0, 64, 24
2, 294337, Control_c, 0, 64, 0
2, 294361, Note_on_c, 0, 42, 0
2, 294377, Control_c, 0, 64, 72
2, 294389, Note_on_c, 0, 54, 0
2, 294389, Control_c, 0, 64, 127
2, 294585, Note_on_c, 0, 63, 59
2, 294589, Note_on_c, 0, 60, 60
2, 294689, Note_on_c, 0, 81, 88
2, 294693, Note_on_c, 0, 69, 74
2, 294721, Note_on_c, 0, 63, 0
2, 294725, Note_on_c, 0, 60, 0
2, 294729, Note_on_c, 0, 69, 0
2, 294757, Note_on_c, 0, 81, 0
2, 294837, Note_on_c, 0, 87, 91
2, 294837, Note_on_c, 0, 63, 57
2, 294837, Note_on_c, 0, 75, 93
2, 294849, Note_on_c, 0, 57, 59
2, 294853, Note_on_c, 0, 60, 41
2, 294873, Note_on_c, 0, 75, 0
2, 294873, Note_on_c, 0, 63, 0
2, 294877, Note_on_c, 0, 57, 0
2, 294881, Note_on_c, 0, 60, 0
2, 294881, Note_on_c, 0, 87, 0
2, 295081, Note_on_c, 0, 83, 90
2, 295081, Note_on_c, 0, 71, 79
2, 295105, Note_on_c, 0, 71, 0
2, 295105, Note_on_c, 0, 83, 0
2, 295165, Note_on_c, 0, 84, 97
2, 295165, Note_on_c, 0, 72, 92
2, 295165, Control_c, 0, 64, 72
2, 295169, Note_on_c, 0, 41, 68
2, 295181, Note_on_c, 0, 53, 66
2, 295181, Control_c, 0, 64, 0
2, 295205, Note_on_c, 0, 41, 0
2, 295229, Control_c, 0, 64, 72
2, 295233, Note_on_c, 0, 53, 0
2, 295245, Control_c, 0, 64, 127
2, 295333, Note_on_c, 0, 72, 0
2, 295421, Note_on_c, 0, 63, 60
2, 295433, Note_on_c, 0, 60, 59
2, 295437, Note_on_c, 0, 57, 54
2, 295461, Note_on_c, 0, 84, 0
2, 295469, Note_on_c, 0, 60, 0
2, 295497, Note_on_c, 0, 63, 0
2, 295505, Note_on_c, 0, 57, 0
2, 295537, Note_on_c, 0, 86, 90
2, 295541, Note_on_c, 0, 74, 80
2, 295573, Note_on_c, 0, 74, 0
2, 295581, Note_on_c, 0, 86, 0
2, 295649, Note_on_c, 0, 63, 56
2, 295653, Note_on_c, 0, 75, 88
2, 295653, Note_on_c, 0, 87, 87
2, 295665, Note_on_c, 0, 57, 55
2, 295669, Note_on_c, 0, 60, 41
2, 295685, Note_on_c, 0, 57, 0
2, 295685, Note_on_c, 0, 63, 0
2, 295697, Note_on_c, 0, 75, 0
2, 295697, Note_on_c, 0, 60, 0
2, 295709, Note_on_c, 0, 87, 0
2, 295769, Note_on_c, 0, 88, 103
2, 295773, Note_on_c, 0, 76, 96
2, 295809, Note_on_c, 0, 76, 0
2, 295825, Note_on_c, 0, 88, 0
2, 295893, Note_on_c, 0, 89, 102
2, 295893, Note_on_c, 0, 77, 96
2, 295897, Control_c, 0, 64, 72
2, 295901, Note_on_c, 0, 39, 61
2, 295905, Note_on_c, 0, 51, 77
2, 295909, Control_c, 0, 64, 0
2, 295945, Note_on_c, 0, 39, 0
2, 295953, Note_on_c, 0, 51, 0
2, 295961, Control_c, 0, 64, 104
2, 295973, Control_c, 0, 64, 127
2, 296121, Note_on_c, 0, 77, 0
2, 296125, Note_on_c, 0, 65, 72
2, 296129, Note_on_c, 0, 60, 66
2, 296133, Note_on_c, 0, 57, 61
2, 296153, Note_on_c, 0, 89, 0
2, 296189, Note_on_c, 0, 60, 0
2, 296193, Note_on_c, 0, 57, 0
2, 296197, Note_on_c, 0, 65, 0
2, 296237, Note_on_c, 0, 91, 90
2, 296241, Note_on_c, 0, 79, 83
2, 296285, Note_on_c, 0, 79, 0
2, 296293, Note_on_c, 0, 91, 0
2, 296333, Note_on_c, 0, 65, 62
2, 296333, Note_on_c, 0, 60, 68
2, 296345, Note_on_c, 0, 57, 54
2, 296353, Note_on_c, 0, 65, 0
2, 296353, Note_on_c, 0, 92, 92
2, 296353, Note_on_c, 0, 80, 83
2, 296365, Note_on_c, 0, 60, 0
2, 296377, Note_on_c, 0, 57, 0
2, 296401, Note_on_c, 0, 80, 0
2, 296413, Note_on_c, 0, 92, 0
2, 296473, Note_on_c, 0, 93, 109
2, 296473, Note_on_c, 0, 81, 93
2, 296513, Note_on_c, 0, 81, 0
2, 296541, Note_on_c, 0, 93, 0
2, 296649, Note_on_c, 0, 38, 57
2, 296653, Note_on_c, 0, 96, 94
2, 296657, Note_on_c, 0, 84, 87
2, 296661, Control_c, 0, 64, 104
2, 296669, Note_on_c, 0, 50, 43
2, 296673, Control_c, 0, 64, 0
2, 296709, Note_on_c, 0, 38, 0
2, 296737, Control_c, 0, 64, 88
2, 296741, Note_on_c, 0, 50, 0
2, 296749, Control_c, 0, 64, 127
2, 296921, Note_on_c, 0, 96, 0
2, 296933, Note_on_c, 0, 84, 0
2, 296941, Note_on_c, 0, 58, 40
2, 296945, Note_on_c, 0, 65, 44
2, 297009, Note_on_c, 0, 65, 0
2, 297013, Note_on_c, 0, 58, 0
2, 297077, Note_on_c, 0, 94, 90
2, 297081, Note_on_c, 0, 82, 74
2, 297149, Note_on_c, 0, 82, 0
2, 297157, Note_on_c, 0, 94, 0
2, 297205, Note_on_c, 0, 58, 50
2, 297213, Note_on_c, 0, 93, 86
2, 297225, Note_on_c, 0, 81, 70
2, 297225, Note_on_c, 0, 53, 47
2, 297253, Note_on_c, 0, 53, 0
2, 297253, Note_on_c, 0, 58, 0
2, 297273, Note_on_c, 0, 93, 0
2, 297277, Note_on_c, 0, 81, 0
2, 297353, Note_on_c, 0, 91, 74
2, 297353, Note_on_c, 0, 79, 66
2, 297405, Note_on_c, 0, 79, 0
2, 297413, Note_on_c, 0, 91, 0
2, 297517, Note_on_c, 0, 90, 90
2, 297517, Note_on_c, 0, 78, 81
2, 297525, Note_on_c, 0, 39, 58
2, 297525, Note_on_c, 0, 51, 59
2, 297545, Control_c, 0, 64, 24
2, 297557, Control_c, 0, 64, 0
2, 297577, Note_on_c, 0, 39, 0
2, 297585, Note_on_c, 0, 51, 0
2, 297609, Control_c, 0, 64, 127
2, 297737, Note_on_c, 0, 78, 0
2, 297753, Note_on_c, 0, 90, 0
2, 297769, Note_on_c, 0, 51, 40
2, 297777, Note_on_c, 0, 58, 55
2, 297785, Note_on_c, 0, 66, 46
2, 297849, Note_on_c, 0, 51, 0
2, 297861, Note_on_c, 0, 58, 0
2, 297869, Note_on_c, 0, 66, 0
2, 297897, Note_on_c, 0, 89, 84
2, 297901, Note_on_c, 0, 77, 78
2, 297953, Note_on_c, 0, 77, 0
2, 297965, Note_on_c, 0, 89, 0
2, 298013, Note_on_c, 0, 58, 56
2, 298025, Note_on_c, 0, 66, 30
2, 298029, Note_on_c, 0, 51, 57
2, 298041, Note_on_c, 0, 87, 79
2, 298049, Note_on_c, 0, 66, 0
2, 298049, Note_on_c, 0, 75, 71
2, 298069, Note_on_c, 0, 58, 0
2, 298085, Note_on_c, 0, 51, 0
2, 298097, Note_on_c, 0, 75, 0
2, 298113, Note_on_c, 0, 87, 0
2, 298173, Note_on_c, 0, 85, 85
2, 298181, Note_on_c, 0, 73, 76
2, 298257, Note_on_c, 0, 73, 0
2, 298277, Note_on_c, 0, 36, 61
2, 298285, Control_c, 0, 64, 24
2, 298297, Control_c, 0, 64, 0
2, 298305, Note_on_c, 0, 85, 0
2, 298329, Note_on_c, 0, 36, 0
2, 298373, Note_on_c, 0, 84, 82
2, 298373, Note_on_c, 0, 52, 61
2, 298373, Control_c, 0, 64, 127
2, 298385, Note_on_c, 0, 72, 52
2, 298417, Note_on_c, 0, 52, 0
2, 298553, Note_on_c, 0, 84, 0
2, 298589, Note_on_c, 0, 72, 0
2, 298629, Note_on_c, 0, 48, 62
2, 298685, Note_on_c, 0, 48, 0
2, 298773, Note_on_c, 0, 82, 65
2, 298785, Note_on_c, 0, 70, 57
2, 298841, Note_on_c, 0, 70, 0
2, 298845, Note_on_c, 0, 82, 0
2, 298921, Note_on_c, 0, 64, 55
2, 298921, Note_on_c, 0, 81, 78
2, 298933, Note_on_c, 0, 58, 34
2, 298937, Note_on_c, 0, 55, 38
2, 298937, Note_on_c, 0, 69, 61
2, 298957, Note_on_c, 0, 64, 0
2, 298969, Note_on_c, 0, 58, 0
2, 298977, Note_on_c, 0, 69, 0
2, 298981, Note_on_c, 0, 55, 0
2, 298989, Note_on_c, 0, 81, 0
2, 299073, Note_on_c, 0, 79, 83
2, 299081, Note_on_c, 0, 67, 65
2, 299121, Note_on_c, 0, 67, 0
2, 299129, Note_on_c, 0, 79, 0
2, 299253, Note_on_c, 0, 77, 81
2, 299257, Control_c, 0, 64, 104
2, 299261, Note_on_c, 0, 65, 62
2, 299269, Control_c, 0, 64, 0
2, 299281, Note_on_c, 0, 41, 59
2, 299309, Note_on_c, 0, 41, 0
2, 299357, Control_c, 0, 64, 104
2, 299373, Control_c, 0, 64, 127
2, 299469, Note_on_c, 0, 65, 0
2, 299557, Note_on_c, 0, 53, 58
2, 299709, Note_on_c, 0, 67, 66
2, 299793, Note_on_c, 0, 67, 0
2, 299917, Note_on_c, 0, 65, 60
2, 299929, Note_on_c, 0, 63, 43
2, 299941, Note_on_c, 0, 57, 44
2, 299945, Control_c, 0, 64, 24
2, 299957, Control_c, 0, 64, 0
2, 300021, Control_c, 0, 64, 104
2, 300025, Note_on_c, 0, 57, 0
2, 300029, Note_on_c, 0, 63, 0
2, 300037, Control_c, 0, 64, 127
2, 300057, Note_on_c, 0, 53, 0
2, 300113, Note_on_c, 0, 74, 74
2, 300381, Note_on_c, 0, 70, 65
2, 300417, Note_on_c, 0, 46, 44
2, 300433, Control_c, 0, 64, 104
2, 300445, Control_c, 0, 64, 24
2, 300457, Control_c, 0, 64, 0
2, 300533, Control_c, 0, 64, 72
2, 300549, Control_c, 0, 64, 127
2, 300557, Note_on_c, 0, 46, 0
2, 300917, Note_on_c, 0, 62, 30
2, 300921, Note_on_c, 0, 53, 33
2, 300929, Note_on_c, 0, 58, 26
2, 300929, Control_c, 0, 64, 72
2, 300945, Control_c, 0, 64, 0
2, 300993, Control_c, 0, 64, 72
2, 301005, Control_c, 0, 64, 127
2, 301081, Control_c, 0, 64, 104
2, 301097, Control_c, 0, 64, 40
2, 301137, Control_c, 0, 64, 127
2, 301201, Note_on_c, 0, 53, 0
2, 301205, Note_on_c, 0, 77, 0
2, 301209, Note_on_c, 0, 62, 0
2, 301209, Note_on_c, 0, 65, 0
2, 301221, Note_on_c, 0, 74, 0
2, 301225, Note_on_c, 0, 58, 0
2, 301233, Note_on_c, 0, 70, 0
2, 301861, Control_c, 0, 64, 104
2, 301877, Control_c, 0, 64, 72
2, 301889, Control_c, 0, 64, 40
2, 301901, Control_c, 0, 64, 0
2, 302977, Note_on_c, 0, 70, 56
2, 303005, Note_on_c, 0, 63, 35
2, 303025, Note_on_c, 0, 55, 38
2, 303313, Note_on_c, 0, 70, 0
2, 303341, Note_on_c, 0, 72, 60
2, 303545, Note_on_c, 0, 72, 0
2, 303573, Note_on_c, 0, 70, 64
2, 303793, Note_on_c, 0, 70, 0
2, 303809, Note_on_c, 0, 69, 64
2, 304033, Note_on_c, 0, 70, 73
2, 304041, Note_on_c, 0, 69, 0
2, 304317, Note_on_c, 0, 70, 0
2, 304329, Note_on_c, 0, 75, 67
2, 304617, Note_on_c, 0, 55, 0
2, 304617, Note_on_c, 0, 71, 63
2, 304621, Note_on_c, 0, 75, 0
2, 304757, Note_on_c, 0, 63, 0
2, 304917, Note_on_c, 0, 71, 0
2, 304981, Note_on_c, 0, 72, 67
2, 305013, Note_on_c, 0, 56, 38
2, 305013, Note_on_c, 0, 63, 40
2, 305089, Control_c, 0, 64, 72
2, 305105, Control_c, 0, 64, 0
2, 305213, Control_c, 0, 64, 24
2, 305229, Control_c, 0, 64, 104
2, 305245, Note_on_c, 0, 72, 0
2, 305245, Control_c, 0, 64, 127
2, 305269, Note_on_c, 0, 74, 74
2, 305445, Note_on_c, 0, 74, 0
2, 305465, Note_on_c, 0, 72, 74
2, 305661, Note_on_c, 0, 72, 0
2, 305681, Note_on_c, 0, 71, 68
2, 305804, Note_on_c, 0, 57, 48
2, 305857, Note_on_c, 0, 71, 0
2, 305897, Note_on_c, 0, 72, 70
2, 306025, Note_on_c, 0, 56, 0
2, 306233, Note_on_c, 0, 79, 74
2, 306233, Control_c, 0, 64, 72
2, 306249, Note_on_c, 0, 72, 0
2, 306249, Control_c, 0, 64, 0
2, 306421, Control_c, 0, 64, 72
2, 306437, Control_c, 0, 64, 127
2, 306565, Note_on_c, 0, 79, 0
2, 306597, Note_on_c, 0, 77, 64
2, 306620, Note_on_c, 0, 57, 0
2, 306689, Note_on_c, 0, 77, 0
2, 306985, Note_on_c, 0, 68, 60
2, 307041, Note_on_c, 0, 58, 47
2, 307073, Control_c, 0, 64, 104
2, 307085, Control_c, 0, 64, 40
2, 307101, Control_c, 0, 64, 0
2, 307225, Control_c, 0, 64, 40
2, 307241, Control_c, 0, 64, 104
2, 307257, Control_c, 0, 64, 127
2, 307313, Note_on_c, 0, 68, 0
2, 307329, Note_on_c, 0, 70, 62
2, 307469, Note_on_c, 0, 70, 0
2, 307557, Note_on_c, 0, 68, 57
2, 307753, Note_on_c, 0, 68, 0
2, 307785, Note_on_c, 0, 67, 57
2, 307969, Note_on_c, 0, 62, 50
2, 308025, Note_on_c, 0, 63, 0
2, 308057, Note_on_c, 0, 67, 0
2, 308069, Note_on_c, 0, 68, 64
2, 308157, Control_c, 0, 64, 104
2, 308173, Control_c, 0, 64, 24
2, 308185, Control_c, 0, 64, 0
2, 308249, Control_c, 0, 64, 56
2, 308265, Control_c, 0, 64, 127
2, 308361, Note_on_c, 0, 68, 0
2, 308377, Note_on_c, 0, 72, 67
2, 308677, Note_on_c, 0, 72, 0
2, 308689, Note_on_c, 0, 70, 64
2, 308985, Note_on_c, 0, 62, 0
2, 309009, Note_on_c, 0, 70, 0
2, 309025, Note_on_c, 0, 68, 57
2, 309061, Note_on_c, 0, 63, 45
2, 309133, Control_c, 0, 64, 88
2, 309145, Control_c, 0, 64, 40
2, 309161, Control_c, 0, 64, 0
2, 309285, Control_c, 0, 64, 56
2, 309301, Control_c, 0, 64, 104
2, 309317, Control_c, 0, 64, 127
2, 309545, Note_on_c, 0, 68, 0
2, 309545, Note_on_c, 0, 67, 56
2, 309613, Control_c, 0, 64, 56
2, 309625, Control_c, 0, 64, 0
2, 309705, Control_c, 0, 64, 24
2, 309721, Control_c, 0, 64, 72
2, 309737, Control_c, 0, 64, 127
2, 310041, Note_on_c, 0, 67, 0
2, 310061, Note_on_c, 0, 65, 48
2, 310061, Control_c, 0, 64, 72
2, 310077, Control_c, 0, 64, 24
2, 310089, Control_c, 0, 64, 0
2, 310169, Control_c, 0, 64, 24
2, 310185, Control_c, 0, 64, 72
2, 310201, Control_c, 0, 64, 127
2, 310325, Note_on_c, 0, 63, 0
2, 310633, Note_on_c, 0, 65, 0
2, 310649, Note_on_c, 0, 63, 39
2, 310725, Control_c, 0, 64, 88
2, 310741, Control_c, 0, 64, 40
2, 310757, Control_c, 0, 64, 0
2, 310849, Control_c, 0, 64, 56
2, 310865, Control_c, 0, 64, 104
2, 310881, Control_c, 0, 64, 127
2, 310925, Note_on_c, 0, 63, 0
2, 310957, Note_on_c, 0, 58, 0
2, 311309, Note_on_c, 0, 70, 58
2, 311325, Note_on_c, 0, 63, 33
2, 311349, Note_on_c, 0, 55, 34
2, 311393, Control_c, 0, 64, 88
2, 311405, Control_c, 0, 64, 24
2, 311421, Control_c, 0, 64, 0
2, 311501, Control_c, 0, 64, 24
2, 311517, Control_c, 0, 64, 88
2, 311533, Control_c, 0, 64, 127
2, 311577, Note_on_c, 0, 70, 0
2, 311601, Note_on_c, 0, 72, 71
2, 311785, Note_on_c, 0, 72, 0
2, 311797, Note_on_c, 0, 70, 68
2, 311985, Note_on_c, 0, 70, 0
2, 312001, Note_on_c, 0, 69, 64
2, 312225, Note_on_c, 0, 70, 67
2, 312261, Note_on_c, 0, 69, 0
2, 312433, Note_on_c, 0, 70, 0
2, 312441, Note_on_c, 0, 75, 64
2, 312601, Note_on_c, 0, 65, 70
2, 312605, Note_on_c, 0, 63, 0
2, 312625, Note_on_c, 0, 55, 0
2, 312745, Note_on_c, 0, 71, 53
2, 312749, Note_on_c, 0, 75, 0
2, 312949, Note_on_c, 0, 71, 0
2, 313101, Note_on_c, 0, 56, 47
2, 313101, Note_on_c, 0, 72, 63
2, 313281, Control_c, 0, 64, 88
2, 313297, Control_c, 0, 64, 40
2, 313313, Control_c, 0, 64, 0
2, 313373, Note_on_c, 0, 72, 0
2, 313385, Note_on_c, 0, 74, 66
2, 313421, Control_c, 0, 64, 40
2, 313437, Control_c, 0, 64, 104
2, 313453, Control_c, 0, 64, 127
2, 313581, Note_on_c, 0, 74, 0
2, 313609, Note_on_c, 0, 72, 73
2, 313773, Note_on_c, 0, 56, 0
2, 313809, Note_on_c, 0, 72, 0
2, 313861, Note_on_c, 0, 71, 57
2, 313988, Note_on_c, 0, 57, 48
2, 313988, Note_on_c, 0, 63, 60
2, 314045, Note_on_c, 0, 71, 0
2, 314093, Note_on_c, 0, 65, 0
2, 314113, Note_on_c, 0, 72, 54
2, 314213, Control_c, 0, 64, 104
2, 314225, Control_c, 0, 64, 40
2, 314241, Control_c, 0, 64, 0
2, 314349, Control_c, 0, 64, 104
2, 314365, Control_c, 0, 64, 127
2, 314373, Note_on_c, 0, 79, 66
2, 314404, Note_on_c, 0, 57, 0
2, 314613, Note_on_c, 0, 79, 0
2, 314645, Note_on_c, 0, 72, 0
2, 314649, Note_on_c, 0, 77, 71
2, 314729, Note_on_c, 0, 77, 0
2, 314985, Note_on_c, 0, 68, 61
2, 314989, Note_on_c, 0, 58, 42
2, 315109, Control_c, 0, 64, 104
2, 315125, Control_c, 0, 64, 40
2, 315141, Control_c, 0, 64, 0
2, 315249, Control_c, 0, 64, 72
2, 315265, Control_c, 0, 64, 127
2, 315304, Note_on_c, 0, 70, 57
2, 315317, Note_on_c, 0, 68, 0
2, 315508, Note_on_c, 0, 70, 0
2, 315553, Note_on_c, 0, 68, 60
2, 315753, Note_on_c, 0, 68, 0
2, 315761, Note_on_c, 0, 67, 61
2, 315880, Note_on_c, 0, 63, 0
2, 315937, Note_on_c, 0, 62, 59
2, 316033, Note_on_c, 0, 67, 0
2, 316041, Note_on_c, 0, 68, 58
2, 316101, Control_c, 0, 64, 72
2, 316117, Control_c, 0, 64, 0
2, 316225, Control_c, 0, 64, 88
2, 316241, Control_c, 0, 64, 127
2, 316321, Note_on_c, 0, 68, 0
2, 316357, Note_on_c, 0, 72, 56
2, 316669, Note_on_c, 0, 72, 0
2, 316677, Note_on_c, 0, 70, 60
2, 317065, Note_on_c, 0, 70, 0
2, 317085, Note_on_c, 0, 68, 55
2, 317101, Note_on_c, 0, 63, 56
2, 317105, Note_on_c, 0, 62, 0
2, 317233, Control_c, 0, 64, 88
2, 317249, Control_c, 0, 64, 0
2, 317385, Control_c, 0, 64, 72
2, 317401, Control_c, 0, 64, 127
2, 317585, Note_on_c, 0, 68, 0
2, 317585, Note_on_c, 0, 67, 52
2, 317633, Control_c, 0, 64, 72
2, 317649, Control_c, 0, 64, 0
2, 317725, Control_c, 0, 64, 72
2, 317741, Control_c, 0, 64, 127
2, 318057, Note_on_c, 0, 67, 0
2, 318077, Note_on_c, 0, 65, 39
2, 318145, Control_c, 0, 64, 56
2, 318161, Control_c, 0, 64, 0
2, 318177, Note_on_c, 0, 63, 0
2, 318205, Control_c, 0, 64, 24
2, 318221, Control_c, 0, 64, 88
2, 318237, Control_c, 0, 64, 127
2, 318601, Note_on_c, 0, 65, 0
2, 318609, Note_on_c, 0, 63, 44
2, 318701, Control_c, 0, 64, 56
2, 318717, Control_c, 0, 64, 0
2, 318797, Control_c, 0, 64, 24
2, 318813, Control_c, 0, 64, 88
2, 318825, Control_c, 0, 64, 127
2, 318857, Note_on_c, 0, 63, 0
2, 318857, Note_on_c, 0, 58, 0
2, 319401, Note_on_c, 0, 70, 52
2, 319421, Note_on_c, 0, 65, 34
2, 319425, Note_on_c, 0, 62, 40
2, 319493, Control_c, 0, 64, 88
2, 319505, Control_c, 0, 64, 40
2, 319521, Control_c, 0, 64, 0
2, 319601, Control_c, 0, 64, 40
2, 319617, Control_c, 0, 64, 104
2, 319633, Control_c, 0, 64, 127
2, 319669, Note_on_c, 0, 70, 0
2, 319701, Note_on_c, 0, 72, 60
2, 319885, Note_on_c, 0, 72, 0
2, 319901, Note_on_c, 0, 70, 63
2, 320101, Note_on_c, 0, 69, 70
2, 320117, Note_on_c, 0, 70, 0
2, 320269, Note_on_c, 0, 70, 83
2, 320293, Note_on_c, 0, 69, 0
2, 320545, Note_on_c, 0, 70, 0
2, 320561, Note_on_c, 0, 79, 76
2, 320565, Note_on_c, 0, 62, 0
2, 320605, Note_on_c, 0, 61, 42
2, 320685, Control_c, 0, 64, 104
2, 320701, Control_c, 0, 64, 40
2, 320717, Control_c, 0, 64, 0
2, 320809, Control_c, 0, 64, 40
2, 320825, Control_c, 0, 64, 104
2, 320841, Control_c, 0, 64, 127
2, 320941, Note_on_c, 0, 79, 0
2, 320961, Note_on_c, 0, 77, 78
2, 321289, Note_on_c, 0, 77, 0
2, 321305, Note_on_c, 0, 70, 71
2, 321485, Note_on_c, 0, 65, 0
2, 321497, Note_on_c, 0, 70, 0
2, 321553, Note_on_c, 0, 61, 0
2, 321745, Note_on_c, 0, 69, 61
2, 321761, Note_on_c, 0, 65, 43
2, 321773, Note_on_c, 0, 60, 42
2, 321861, Control_c, 0, 64, 104
2, 321877, Control_c, 0, 64, 40
2, 321893, Control_c, 0, 64, 0
2, 321972, Note_on_c, 0, 70, 64
2, 321985, Control_c, 0, 64, 56
2, 322001, Control_c, 0, 64, 127
2, 322013, Note_on_c, 0, 69, 0
2, 322128, Note_on_c, 0, 70, 0
2, 322177, Note_on_c, 0, 69, 81
2, 322341, Note_on_c, 0, 69, 0
2, 322401, Note_on_c, 0, 68, 68
2, 322537, Note_on_c, 0, 68, 0
2, 322561, Note_on_c, 0, 69, 89
2, 322765, Note_on_c, 0, 60, 0
2, 322789, Note_on_c, 0, 69, 0
2, 322801, Note_on_c, 0, 59, 40
2, 322893, Note_on_c, 0, 79, 73
2, 322929, Control_c, 0, 64, 104
2, 322949, Control_c, 0, 64, 40
2, 322961, Control_c, 0, 64, 0
2, 323101, Control_c, 0, 64, 127
2, 323233, Note_on_c, 0, 79, 0
2, 323269, Note_on_c, 0, 77, 70
2, 323577, Note_on_c, 0, 77, 0
2, 323581, Note_on_c, 0, 68, 61
2, 323693, Note_on_c, 0, 68, 0
2, 323717, Note_on_c, 0, 59, 0
2, 323993, Note_on_c, 0, 60, 49
2, 324001, Note_on_c, 0, 67, 49
2, 324045, Control_c, 0, 64, 104
2, 324061, Control_c, 0, 64, 24
2, 324077, Control_c, 0, 64, 0
2, 324169, Control_c, 0, 64, 88
2, 324185, Control_c, 0, 64, 127
2, 324246, Note_on_c, 0, 68, 65
2, 324313, Note_on_c, 0, 67, 0
2, 324422, Note_on_c, 0, 68, 0
2, 324485, Note_on_c, 0, 67, 72
2, 324649, Note_on_c, 0, 67, 0
2, 324661, Note_on_c, 0, 66, 57
2, 324825, Note_on_c, 0, 65, 0
2, 324845, Note_on_c, 0, 63, 65
2, 324897, Note_on_c, 0, 66, 0
2, 324929, Note_on_c, 0, 67, 59
2, 325029, Note_on_c, 0, 60, 0
2, 325241, Note_on_c, 0, 77, 75
2, 325317, Control_c, 0, 64, 88
2, 325333, Control_c, 0, 64, 56
2, 325349, Control_c, 0, 64, 24
2, 325361, Control_c, 0, 64, 40
2, 325377, Control_c, 0, 64, 72
2, 325393, Control_c, 0, 64, 127
2, 325457, Note_on_c, 0, 67, 0
2, 325541, Note_on_c, 0, 63, 0
2, 325545, Note_on_c, 0, 75, 61
2, 325557, Note_on_c, 0, 77, 0
2, 325628, Note_on_c, 0, 61, 43
2, 325628, Note_on_c, 0, 58, 40
2, 325657, Control_c, 0, 64, 72
2, 325673, Control_c, 0, 64, 0
2, 325765, Control_c, 0, 64, 72
2, 325781, Control_c, 0, 64, 127
2, 325889, Note_on_c, 0, 75, 0
2, 325897, Note_on_c, 0, 66, 63
2, 326017, Note_on_c, 0, 66, 0
2, 326060, Note_on_c, 0, 58, 0
2, 326124, Note_on_c, 0, 61, 0
2, 326341, Note_on_c, 0, 65, 63
2, 326357, Note_on_c, 0, 60, 52
2, 326361, Note_on_c, 0, 57, 44
2, 326433, Control_c, 0, 64, 104
2, 326449, Control_c, 0, 64, 24
2, 326461, Control_c, 0, 64, 0
2, 326553, Control_c, 0, 64, 40
2, 326569, Note_on_c, 0, 65, 0
2, 326569, Control_c, 0, 64, 104
2, 326585, Control_c, 0, 64, 127
2, 326605, Note_on_c, 0, 67, 69
2, 326749, Note_on_c, 0, 67, 0
2, 326793, Note_on_c, 0, 65, 70
2, 326941, Note_on_c, 0, 60, 0
2, 326957, Note_on_c, 0, 65, 0
2, 327005, Note_on_c, 0, 64, 69
2, 327137, Note_on_c, 0, 64, 0
2, 327157, Note_on_c, 0, 61, 61
2, 327269, Note_on_c, 0, 65, 68
2, 327341, Note_on_c, 0, 65, 0
2, 327421, Note_on_c, 0, 65, 64
2, 327441, Note_on_c, 0, 61, 0
2, 327553, Note_on_c, 0, 57, 0
2, 327693, Note_on_c, 0, 62, 57
2, 327697, Note_on_c, 0, 56, 39
2, 327753, Note_on_c, 0, 65, 0
2, 327825, Note_on_c, 0, 72, 66
2, 327841, Control_c, 0, 64, 56
2, 327853, Control_c, 0, 64, 0
2, 328013, Control_c, 0, 64, 72
2, 328025, Control_c, 0, 64, 127
2, 328433, Note_on_c, 0, 72, 0
2, 328465, Note_on_c, 0, 70, 48
2, 328521, Control_c, 0, 64, 72
2, 328537, Control_c, 0, 64, 0
2, 328709, Control_c, 0, 64, 56
2, 328725, Control_c, 0, 64, 104
2, 328741, Control_c, 0, 64, 127
2, 328805, Note_on_c, 0, 70, 0
2, 328809, Note_on_c, 0, 62, 0
2, 328849, Note_on_c, 0, 56, 0
2, 329237, Note_on_c, 0, 63, 42
2, 329245, Note_on_c, 0, 70, 57
2, 329273, Note_on_c, 0, 55, 40
2, 329297, Control_c, 0, 64, 88
2, 329313, Control_c, 0, 64, 40
2, 329325, Control_c, 0, 64, 0
2, 329417, Control_c, 0, 64, 88
2, 329433, Control_c, 0, 64, 127
2, 329497, Note_on_c, 0, 70, 0
2, 329537, Note_on_c, 0, 72, 62
2, 329725, Note_on_c, 0, 72, 0
2, 329737, Note_on_c, 0, 70, 65
2, 329937, Note_on_c, 0, 70, 0
2, 329961, Note_on_c, 0, 69, 64
2, 330189, Note_on_c, 0, 69, 0
2, 330193, Note_on_c, 0, 70, 69
2, 330413, Note_on_c, 0, 70, 0
2, 330433, Note_on_c, 0, 75, 65
2, 330617, Note_on_c, 0, 65, 66
2, 330665, Note_on_c, 0, 63, 0
2, 330689, Note_on_c, 0, 55, 0
2, 330721, Note_on_c, 0, 71, 68
2, 330729, Note_on_c, 0, 75, 0
2, 331021, Note_on_c, 0, 71, 0
2, 331057, Note_on_c, 0, 72, 66
2, 331061, Note_on_c, 0, 56, 44
2, 331169, Control_c, 0, 64, 104
2, 331185, Control_c, 0, 64, 40
2, 331201, Control_c, 0, 64, 0
2, 331293, Control_c, 0, 64, 40
2, 331309, Control_c, 0, 64, 127
2, 331313, Note_on_c, 0, 72, 0
2, 331318, Note_on_c, 0, 74, 75
2, 331490, Note_on_c, 0, 74, 0
2, 331541, Note_on_c, 0, 72, 74
2, 331641, Note_on_c, 0, 56, 0
2, 331737, Note_on_c, 0, 72, 0
2, 331757, Note_on_c, 0, 71, 68
2, 331933, Note_on_c, 0, 71, 0
2, 331949, Note_on_c, 0, 63, 61
2, 331989, Note_on_c, 0, 57, 40
2, 332017, Note_on_c, 0, 65, 0
2, 332033, Note_on_c, 0, 72, 66
2, 332037, Control_c, 0, 64, 72
2, 332053, Control_c, 0, 64, 0
2, 332133, Control_c, 0, 64, 40
2, 332149, Control_c, 0, 64, 127
2, 332269, Note_on_c, 0, 79, 72
2, 332501, Note_on_c, 0, 62, 72
2, 332513, Note_on_c, 0, 63, 0
2, 332541, Note_on_c, 0, 79, 0
2, 332549, Note_on_c, 0, 57, 0
2, 332581, Note_on_c, 0, 72, 0
2, 332609, Note_on_c, 0, 77, 68
2, 332681, Note_on_c, 0, 77, 0
2, 332829, Note_on_c, 0, 62, 0
2, 332945, Note_on_c, 0, 60, 66
2, 332953, Note_on_c, 0, 58, 43
2, 332977, Note_on_c, 0, 68, 46
2, 333077, Control_c, 0, 64, 72
2, 333093, Control_c, 0, 64, 0
2, 333229, Control_c, 0, 64, 72
2, 333245, Control_c, 0, 64, 127
2, 333253, Note_on_c, 0, 70, 55
2, 333257, Note_on_c, 0, 68, 0
2, 333453, Note_on_c, 0, 70, 0
2, 333489, Note_on_c, 0, 68, 54
2, 333705, Note_on_c, 0, 68, 0
2, 333717, Note_on_c, 0, 67, 56
2, 333889, Note_on_c, 0, 60, 0
2, 333889, Note_on_c, 0, 62, 56
2, 333989, Note_on_c, 0, 67, 0
2, 334001, Note_on_c, 0, 68, 57
2, 334085, Control_c, 0, 64, 88
2, 334097, Control_c, 0, 64, 24
2, 334113, Control_c, 0, 64, 0
2, 334205, Control_c, 0, 64, 40
2, 334221, Control_c, 0, 64, 88
2, 334237, Control_c, 0, 64, 127
2, 334317, Note_on_c, 0, 68, 0
2, 334329, Note_on_c, 0, 72, 64
2, 334361, Control_c, 0, 64, 88
2, 334377, Control_c, 0, 64, 0
2, 334469, Control_c, 0, 64, 72
2, 334485, Control_c, 0, 64, 127
2, 334637, Note_on_c, 0, 72, 0
2, 334661, Note_on_c, 0, 70, 60
2, 334701, Control_c, 0, 64, 72
2, 334717, Control_c, 0, 64, 24
2, 334733, Control_c, 0, 64, 0
2, 334749, Control_c, 0, 64, 24
2, 334761, Control_c, 0, 64, 56
2, 334781, Control_c, 0, 64, 104
2, 334797, Control_c, 0, 64, 127
2, 334989, Note_on_c, 0, 70, 0
2, 335013, Note_on_c, 0, 62, 0
2, 335013, Note_on_c, 0, 68, 46
2, 335037, Note_on_c, 0, 63, 47
2, 335105, Control_c, 0, 64, 72
2, 335121, Control_c, 0, 64, 0
2, 335229, Control_c, 0, 64, 56
2, 335245, Control_c, 0, 64, 127
2, 335517, Note_on_c, 0, 68, 0
2, 335517, Note_on_c, 0, 67, 44
2, 335569, Control_c, 0, 64, 104
2, 335585, Control_c, 0, 64, 56
2, 335601, Control_c, 0, 64, 0
2, 335661, Control_c, 0, 64, 40
2, 335677, Control_c, 0, 64, 104
2, 335693, Control_c, 0, 64, 127
2, 335805, Note_on_c, 0, 63, 0
2, 336009, Note_on_c, 0, 67, 0
2, 336021, Note_on_c, 0, 65, 46
2, 336141, Control_c, 0, 64, 72
2, 336157, Control_c, 0, 64, 40
2, 336205, Control_c, 0, 64, 88
2, 336221, Control_c, 0, 64, 127
2, 336365, Note_on_c, 0, 58, 0
2, 336581, Note_on_c, 0, 65, 0
2, 336597, Note_on_c, 0, 63, 43
2, 336717, Control_c, 0, 64, 40
2, 336733, Control_c, 0, 64, 0
2, 336793, Control_c, 0, 64, 72
2, 336809, Control_c, 0, 64, 127
2, 336853, Note_on_c, 0, 63, 0
2, 337133, Control_c, 0, 64, 56
2, 337149, Control_c, 0, 64, 0
2, 337157, Note_on_c, 0, 50, 36
2, 337197, Control_c, 0, 64, 127
2, 337269, Note_on_c, 0, 50, 0
2, 337293, Note_on_c, 0, 58, 39
2, 337469, Note_on_c, 0, 58, 0
2, 337545, Note_on_c, 0, 65, 41
2, 337581, Note_on_c, 0, 82, 70
2, 337581, Note_on_c, 0, 77, 71
2, 337601, Note_on_c, 0, 65, 0
2, 337605, Note_on_c, 0, 70, 47
2, 337661, Note_on_c, 0, 70, 0
2, 337845, Note_on_c, 0, 77, 0
2, 337897, Note_on_c, 0, 82, 0
2, 337916, Note_on_c, 0, 84, 80
2, 337916, Note_on_c, 0, 72, 65
2, 337992, Note_on_c, 0, 72, 0
2, 338040, Note_on_c, 0, 84, 0
2, 338160, Note_on_c, 0, 70, 62
2, 338160, Note_on_c, 0, 82, 76
2, 338236, Note_on_c, 0, 70, 0
2, 338280, Note_on_c, 0, 82, 0
2, 338349, Note_on_c, 0, 81, 85
2, 338357, Note_on_c, 0, 69, 65
2, 338393, Note_on_c, 0, 69, 0
2, 338433, Note_on_c, 0, 81, 0
2, 338513, Note_on_c, 0, 82, 87
2, 338521, Note_on_c, 0, 70, 73
2, 338529, Control_c, 0, 64, 40
2, 338541, Control_c, 0, 64, 0
2, 338585, Note_on_c, 0, 70, 0
2, 338605, Control_c, 0, 64, 88
2, 338621, Control_c, 0, 64, 127
2, 338625, Note_on_c, 0, 82, 0
2, 338693, Note_on_c, 0, 49, 54
2, 338765, Note_on_c, 0, 58, 53
2, 338801, Note_on_c, 0, 49, 0
2, 338869, Note_on_c, 0, 58, 0
2, 338925, Note_on_c, 0, 91, 89
2, 338933, Note_on_c, 0, 65, 52
2, 338941, Note_on_c, 0, 79, 58
2, 338945, Note_on_c, 0, 82, 55
2, 338997, Note_on_c, 0, 65, 0
2, 339133, Note_on_c, 0, 79, 0
2, 339137, Note_on_c, 0, 91, 0
2, 339337, Note_on_c, 0, 89, 78
2, 339345, Note_on_c, 0, 77, 64
2, 339389, Note_on_c, 0, 82, 0
2, 339405, Note_on_c, 0, 89, 0
2, 339421, Note_on_c, 0, 77, 0
2, 339753, Note_on_c, 0, 82, 74
2, 339761, Note_on_c, 0, 70, 59
2, 339861, Control_c, 0, 64, 56
2, 339877, Control_c, 0, 64, 0
2, 339889, Note_on_c, 0, 48, 56
2, 339937, Control_c, 0, 64, 56
2, 339945, Note_on_c, 0, 48, 0
2, 339945, Note_on_c, 0, 53, 34
2, 339953, Control_c, 0, 64, 127
2, 340009, Note_on_c, 0, 57, 48
2, 340021, Note_on_c, 0, 53, 0
2, 340021, Note_on_c, 0, 70, 0
2, 340029, Note_on_c, 0, 82, 0
2, 340065, Note_on_c, 0, 57, 0
2, 340089, Note_on_c, 0, 60, 47
2, 340133, Note_on_c, 0, 60, 0
2, 340249, Note_on_c, 0, 65, 35
2, 340257, Note_on_c, 0, 81, 74
2, 340269, Note_on_c, 0, 69, 55
2, 340297, Note_on_c, 0, 77, 42
2, 340309, Note_on_c, 0, 65, 0
2, 340393, Note_on_c, 0, 69, 0
2, 340465, Note_on_c, 0, 81, 0
2, 340477, Note_on_c, 0, 77, 0
2, 340589, Note_on_c, 0, 70, 52
2, 340589, Note_on_c, 0, 82, 78
2, 340685, Note_on_c, 0, 70, 0
2, 340705, Note_on_c, 0, 82, 0
2, 340838, Note_on_c, 0, 69, 72
2, 340838, Note_on_c, 0, 81, 84
2, 340898, Note_on_c, 0, 69, 0
2, 340938, Note_on_c, 0, 81, 0
2, 341029, Note_on_c, 0, 80, 83
2, 341041, Note_on_c, 0, 68, 62
2, 341117, Note_on_c, 0, 68, 0
2, 341161, Note_on_c, 0, 80, 0
2, 341201, Note_on_c, 0, 81, 88
2, 341201, Note_on_c, 0, 69, 79
2, 341209, Control_c, 0, 64, 40
2, 341225, Control_c, 0, 64, 0
2, 341249, Note_on_c, 0, 47, 62
2, 341257, Note_on_c, 0, 69, 0
2, 341269, Control_c, 0, 64, 56
2, 341285, Control_c, 0, 64, 127
2, 341293, Note_on_c, 0, 47, 0
2, 341293, Note_on_c, 0, 81, 0
2, 341321, Note_on_c, 0, 53, 55
2, 341417, Note_on_c, 0, 53, 0
2, 341453, Note_on_c, 0, 62, 59
2, 341489, Note_on_c, 0, 62, 0
2, 341581, Note_on_c, 0, 91, 93
2, 341593, Note_on_c, 0, 79, 65
2, 341605, Note_on_c, 0, 86, 49
2, 341649, Note_on_c, 0, 86, 0
2, 341717, Note_on_c, 0, 86, 15
2, 341785, Note_on_c, 0, 79, 0
2, 341789, Note_on_c, 0, 91, 0
2, 341941, Note_on_c, 0, 86, 0
2, 341957, Note_on_c, 0, 89, 87
2, 341969, Note_on_c, 0, 77, 74
2, 342025, Note_on_c, 0, 89, 0
2, 342033, Note_on_c, 0, 77, 0
2, 342373, Note_on_c, 0, 80, 72
2, 342385, Note_on_c, 0, 68, 56
2, 342557, Control_c, 0, 64, 40
2, 342573, Control_c, 0, 64, 0
2, 342589, Note_on_c, 0, 48, 61
2, 342617, Control_c, 0, 64, 72
2, 342625, Note_on_c, 0, 48, 0
2, 342633, Control_c, 0, 64, 127
2, 342677, Note_on_c, 0, 51, 44
2, 342697, Note_on_c, 0, 68, 0
2, 342697, Note_on_c, 0, 80, 0
2, 342861, Note_on_c, 0, 79, 82
2, 342865, Note_on_c, 0, 63, 37
2, 342873, Note_on_c, 0, 67, 62
2, 342901, Note_on_c, 0, 75, 43
2, 342953, Note_on_c, 0, 67, 0
2, 342997, Note_on_c, 0, 79, 0
2, 343061, Note_on_c, 0, 75, 0
2, 343145, Note_on_c, 0, 80, 82
2, 343149, Note_on_c, 0, 68, 61
2, 343229, Note_on_c, 0, 68, 0
2, 343245, Note_on_c, 0, 63, 0
2, 343257, Note_on_c, 0, 80, 0
2, 343273, Note_on_c, 0, 51, 0
2, 343357, Note_on_c, 0, 79, 86
2, 343361, Note_on_c, 0, 67, 70
2, 343421, Note_on_c, 0, 67, 0
2, 343445, Note_on_c, 0, 79, 0
2, 343573, Note_on_c, 0, 78, 77
2, 343589, Note_on_c, 0, 66, 57
2, 343653, Note_on_c, 0, 66, 0
2, 343701, Note_on_c, 0, 78, 0
2, 343757, Note_on_c, 0, 79, 93
2, 343761, Note_on_c, 0, 67, 74
2, 343765, Control_c, 0, 64, 104
2, 343781, Control_c, 0, 64, 40
2, 343793, Control_c, 0, 64, 0
2, 343817, Note_on_c, 0, 67, 0
2, 343841, Control_c, 0, 64, 72
2, 343857, Note_on_c, 0, 79, 0
2, 343857, Control_c, 0, 64, 127
2, 343897, Note_on_c, 0, 46, 44
2, 344037, Note_on_c, 0, 46, 0
2, 344061, Note_on_c, 0, 51, 35
2, 344125, Note_on_c, 0, 89, 89
2, 344133, Note_on_c, 0, 77, 74
2, 344145, Note_on_c, 0, 82, 56
2, 344285, Note_on_c, 0, 77, 0
2, 344361, Note_on_c, 0, 89, 0
2, 344461, Note_on_c, 0, 82, 0
2, 344505, Note_on_c, 0, 87, 79
2, 344529, Note_on_c, 0, 75, 67
2, 344601, Note_on_c, 0, 87, 0
2, 344605, Note_on_c, 0, 75, 0
2, 344729, Note_on_c, 0, 61, 58
2, 344877, Note_on_c, 0, 61, 0
2, 344901, Note_on_c, 0, 78, 77
2, 344901, Note_on_c, 0, 66, 65
2, 344989, Note_on_c, 0, 51, 0
2, 345109, Note_on_c, 0, 66, 0
2, 345121, Note_on_c, 0, 78, 0
2, 345205, Note_on_c, 0, 45, 46
2, 345281, Control_c, 0, 64, 72
2, 345297, Control_c, 0, 64, 0
2, 345301, Note_on_c, 0, 45, 0
2, 345325, Note_on_c, 0, 77, 74
2, 345329, Note_on_c, 0, 65, 51
2, 345345, Note_on_c, 0, 51, 44
2, 345349, Note_on_c, 0, 72, 59
2, 345361, Control_c, 0, 64, 40
2, 345377, Control_c, 0, 64, 127
2, 345457, Note_on_c, 0, 65, 0
2, 345465, Note_on_c, 0, 60, 45
2, 345473, Note_on_c, 0, 51, 0
2, 345485, Note_on_c, 0, 77, 0
2, 345541, Note_on_c, 0, 60, 0
2, 345615, Note_on_c, 0, 79, 77
2, 345615, Note_on_c, 0, 67, 62
2, 345629, Note_on_c, 0, 72, 0
2, 345691, Note_on_c, 0, 67, 0
2, 345707, Note_on_c, 0, 79, 0
2, 345877, Note_on_c, 0, 77, 82
2, 345885, Note_on_c, 0, 65, 64
2, 345949, Note_on_c, 0, 65, 0
2, 345949, Note_on_c, 0, 77, 0
2, 346065, Note_on_c, 0, 76, 80
2, 346069, Note_on_c, 0, 64, 62
2, 346105, Note_on_c, 0, 64, 0
2, 346129, Note_on_c, 0, 76, 0
2, 346257, Note_on_c, 0, 77, 78
2, 346261, Note_on_c, 0, 65, 63
2, 346273, Control_c, 0, 64, 104
2, 346289, Control_c, 0, 64, 0
2, 346329, Note_on_c, 0, 65, 0
2, 346353, Control_c, 0, 64, 56
2, 346357, Note_on_c, 0, 44, 48
2, 346365, Control_c, 0, 64, 127
2, 346373, Note_on_c, 0, 77, 0
2, 346453, Note_on_c, 0, 44, 0
2, 346485, Note_on_c, 0, 50, 39
2, 346605, Note_on_c, 0, 50, 0
2, 346721, Note_on_c, 0, 84, 78
2, 346745, Note_on_c, 0, 72, 41
2, 346749, Note_on_c, 0, 77, 43
2, 346753, Note_on_c, 0, 74, 33
2, 346945, Note_on_c, 0, 58, 33
2, 346973, Note_on_c, 0, 74, 0
2, 346981, Note_on_c, 0, 72, 0
2, 347097, Note_on_c, 0, 84, 0
2, 347137, Note_on_c, 0, 58, 0
2, 347253, Note_on_c, 0, 77, 0
2, 347377, Note_on_c, 0, 82, 61
2, 347385, Note_on_c, 0, 70, 45
2, 347685, Control_c, 0, 64, 56
2, 347697, Control_c, 0, 64, 0
2, 347753, Note_on_c, 0, 43, 55
2, 347777, Control_c, 0, 64, 104
2, 347793, Control_c, 0, 64, 127
2, 347841, Note_on_c, 0, 43, 0
2, 347869, Note_on_c, 0, 82, 0
2, 347897, Note_on_c, 0, 70, 0
2, 347905, Note_on_c, 0, 51, 52
2, 348001, Note_on_c, 0, 51, 0
2, 348029, Note_on_c, 0, 58, 23
2, 348113, Note_on_c, 0, 58, 0
2, 348201, Note_on_c, 0, 82, 62
2, 348201, Note_on_c, 0, 70, 47
2, 348225, Note_on_c, 0, 75, 49
2, 348229, Note_on_c, 0, 63, 51
2, 348269, Note_on_c, 0, 75, 0
2, 348301, Note_on_c, 0, 70, 0
2, 348305, Note_on_c, 0, 63, 0
2, 348517, Note_on_c, 0, 82, 0
2, 348538, Note_on_c, 0, 72, 66
2, 348538, Note_on_c, 0, 84, 82
2, 348618, Note_on_c, 0, 72, 0
2, 348674, Note_on_c, 0, 84, 0
2, 348825, Note_on_c, 0, 82, 77
2, 348833, Note_on_c, 0, 70, 71
2, 348893, Note_on_c, 0, 70, 0
2, 348941, Note_on_c, 0, 82, 0
2, 349013, Note_on_c, 0, 81, 84
2, 349021, Note_on_c, 0, 69, 64
2, 349053, Note_on_c, 0, 69, 0
2, 349101, Note_on_c, 0, 81, 0
2, 349185, Control_c, 0, 64, 56
2, 349193, Note_on_c, 0, 82, 86
2, 349193, Note_on_c, 0, 70, 76
2, 349201, Control_c, 0, 64, 0
2, 349241, Note_on_c, 0, 43, 41
2, 349253, Note_on_c, 0, 70, 0
2, 349261, Control_c, 0, 64, 104
2, 349277, Note_on_c, 0, 43, 0
2, 349277, Control_c, 0, 64, 127
2, 349301, Note_on_c, 0, 82, 0
2, 349301, Note_on_c, 0, 51, 60
2, 349381, Note_on_c, 0, 51, 0
2, 349445, Note_on_c, 0, 59, 62
2, 349537, Note_on_c, 0, 59, 0
2, 349617, Note_on_c, 0, 63, 46
2, 349621, Note_on_c, 0, 87, 85
2, 349645, Note_on_c, 0, 75, 53
2, 349649, Note_on_c, 0, 83, 60
2, 349689, Note_on_c, 0, 83, 0
2, 349709, Note_on_c, 0, 63, 0
2, 349745, Note_on_c, 0, 87, 0
2, 349761, Note_on_c, 0, 75, 0
2, 350005, Note_on_c, 0, 83, 82
2, 350017, Note_on_c, 0, 71, 59
2, 350113, Control_c, 0, 64, 40
2, 350129, Control_c, 0, 64, 0
2, 350145, Note_on_c, 0, 44, 55
2, 350169, Note_on_c, 0, 71, 0
2, 350177, Control_c, 0, 64, 56
2, 350193, Control_c, 0, 64, 127
2, 350197, Note_on_c, 0, 44, 0
2, 350209, Note_on_c, 0, 83, 0
2, 350213, Note_on_c, 0, 51, 61
2, 350309, Note_on_c, 0, 51, 0
2, 350353, Note_on_c, 0, 60, 51
2, 350393, Note_on_c, 0, 84, 84
2, 350409, Note_on_c, 0, 79, 58
2, 350413, Note_on_c, 0, 72, 55
2, 350445, Note_on_c, 0, 63, 68
2, 350449, Note_on_c, 0, 60, 0
2, 350489, Note_on_c, 0, 72, 0
2, 350509, Note_on_c, 0, 63, 0
2, 350657, Note_on_c, 0, 84, 0
2, 350673, Note_on_c, 0, 79, 0
2, 350701, Note_on_c, 0, 86, 85
2, 350709, Note_on_c, 0, 74, 72
2, 350809, Note_on_c, 0, 74, 0
2, 350813, Note_on_c, 0, 86, 0
2, 350933, Note_on_c, 0, 84, 90
2, 350937, Note_on_c, 0, 72, 82
2, 350993, Note_on_c, 0, 72, 0
2, 351013, Note_on_c, 0, 84, 0
2, 351117, Note_on_c, 0, 83, 92
2, 351125, Note_on_c, 0, 71, 74
2, 351177, Note_on_c, 0, 71, 0
2, 351197, Note_on_c, 0, 83, 0
2, 351301, Note_on_c, 0, 84, 87
2, 351313, Note_on_c, 0, 72, 80
2, 351341, Control_c, 0, 64, 104
2, 351357, Control_c, 0, 64, 24
2, 351369, Note_on_c, 0, 72, 0
2, 351369, Control_c, 0, 64, 0
2, 351397, Note_on_c, 0, 45, 62
2, 351401, Control_c, 0, 64, 24
2, 351409, Note_on_c, 0, 84, 0
2, 351417, Control_c, 0, 64, 127
2, 351429, Note_on_c, 0, 45, 0
2, 351437, Note_on_c, 0, 53, 52
2, 351505, Note_on_c, 0, 53, 0
2, 351525, Note_on_c, 0, 60, 58
2, 351593, Note_on_c, 0, 60, 0
2, 351673, Note_on_c, 0, 65, 48
2, 351753, Note_on_c, 0, 91, 89
2, 351757, Note_on_c, 0, 65, 0
2, 351765, Note_on_c, 0, 79, 68
2, 351769, Note_on_c, 0, 84, 65
2, 351885, Note_on_c, 0, 79, 0
2, 351937, Note_on_c, 0, 91, 0
2, 352133, Note_on_c, 0, 84, 0
2, 352161, Note_on_c, 0, 89, 82
2, 352169, Note_on_c, 0, 77, 69
2, 352229, Note_on_c, 0, 89, 0
2, 352245, Note_on_c, 0, 77, 0
2, 352505, Note_on_c, 0, 46, 56
2, 352517, Control_c, 0, 64, 88
2, 352533, Control_c, 0, 64, 0
2, 352577, Note_on_c, 0, 51, 38
2, 352577, Control_c, 0, 64, 40
2, 352585, Note_on_c, 0, 46, 0
2, 352593, Note_on_c, 0, 80, 77
2, 352593, Control_c, 0, 64, 127
2, 352601, Note_on_c, 0, 68, 55
2, 352605, Note_on_c, 0, 75, 60
2, 352669, Note_on_c, 0, 51, 0
2, 352689, Note_on_c, 0, 60, 55
2, 352729, Note_on_c, 0, 68, 0
2, 352765, Note_on_c, 0, 60, 0
2, 352817, Note_on_c, 0, 65, 46
2, 352853, Note_on_c, 0, 80, 0
2, 352881, Note_on_c, 0, 65, 0
2, 352946, Note_on_c, 0, 70, 57
2, 352946, Note_on_c, 0, 82, 72
2, 352965, Note_on_c, 0, 75, 0
2, 353030, Note_on_c, 0, 70, 0
2, 353098, Note_on_c, 0, 82, 0
2, 353209, Note_on_c, 0, 80, 69
2, 353213, Note_on_c, 0, 68, 53
2, 353305, Note_on_c, 0, 68, 0
2, 353321, Note_on_c, 0, 80, 0
2, 353405, Note_on_c, 0, 79, 77
2, 353417, Note_on_c, 0, 67, 56
2, 353465, Note_on_c, 0, 67, 0
2, 353493, Note_on_c, 0, 79, 0
2, 353621, Note_on_c, 0, 80, 80
2, 353621, Note_on_c, 0, 68, 64
2, 353677, Control_c, 0, 64, 88
2, 353693, Note_on_c, 0, 68, 0
2, 353693, Control_c, 0, 64, 24
2, 353709, Control_c, 0, 64, 0
2, 353741, Note_on_c, 0, 46, 55
2, 353741, Control_c, 0, 64, 24
2, 353757, Control_c, 0, 64, 104
2, 353769, Control_c, 0, 64, 127
2, 353785, Note_on_c, 0, 80, 0
2, 353809, Note_on_c, 0, 46, 0
2, 353833, Note_on_c, 0, 50, 45
2, 353889, Note_on_c, 0, 50, 0
2, 353901, Note_on_c, 0, 56, 51
2, 353989, Note_on_c, 0, 56, 0
2, 354057, Note_on_c, 0, 62, 43
2, 354081, Note_on_c, 0, 84, 72
2, 354089, Note_on_c, 0, 62, 0
2, 354097, Note_on_c, 0, 74, 41
2, 354101, Note_on_c, 0, 72, 42
2, 354109, Note_on_c, 0, 77, 53
2, 354245, Note_on_c, 0, 72, 0
2, 354249, Note_on_c, 0, 74, 0
2, 354333, Note_on_c, 0, 84, 0
2, 354549, Note_on_c, 0, 77, 0
2, 354581, Note_on_c, 0, 82, 63
2, 354585, Note_on_c, 0, 70, 57
2, 354689, Note_on_c, 0, 82, 0
2, 354745, Note_on_c, 0, 70, 0
2, 354901, Note_on_c, 0, 39, 53
2, 354933, Control_c, 0, 64, 56
2, 354949, Control_c, 0, 64, 0
2, 354993, Control_c, 0, 64, 88
2, 355009, Control_c, 0, 64, 127
2, 355013, Note_on_c, 0, 39, 0
2, 355033, Note_on_c, 0, 46, 40
2, 355097, Note_on_c, 0, 80, 69
2, 355109, Note_on_c, 0, 68, 43
2, 355117, Note_on_c, 0, 70, 44
2, 355125, Note_on_c, 0, 46, 0
2, 355129, Note_on_c, 0, 75, 40
2, 355137, Note_on_c, 0, 51, 59
2, 355241, Note_on_c, 0, 51, 0
2, 355293, Note_on_c, 0, 58, 47
2, 355321, Note_on_c, 0, 58, 0
2, 355373, Note_on_c, 0, 68, 0
2, 355441, Note_on_c, 0, 80, 0
2, 355557, Note_on_c, 0, 75, 0
2, 355601, Note_on_c, 0, 70, 0
2, 355649, Note_on_c, 0, 79, 69
2, 355649, Note_on_c, 0, 67, 53
2, 355873, Note_on_c, 0, 79, 0
2, 355937, Note_on_c, 0, 67, 0
2, 356205, Note_on_c, 0, 77, 66
2, 356233, Note_on_c, 0, 65, 34
2, 356409, Note_on_c, 0, 65, 0
2, 356625, Note_on_c, 0, 77, 0
2, 356749, Note_on_c, 0, 75, 43
2, 356773, Note_on_c, 0, 63, 27
2, 356929, Note_on_c, 0, 63, 0
2, 356981, Note_on_c, 0, 75, 0
2, 357549, Note_on_c, 0, 70, 54
2, 357569, Note_on_c, 0, 65, 31
2, 357585, Note_on_c, 0, 62, 26
2, 357657, Control_c, 0, 64, 88
2, 357673, Control_c, 0, 64, 0
2, 357785, Control_c, 0, 64, 24
2, 357797, Control_c, 0, 64, 104
2, 357813, Control_c, 0, 64, 127
2, 357834, Note_on_c, 0, 72, 66
2, 357841, Note_on_c, 0, 70, 0
2, 358006, Note_on_c, 0, 72, 0
2, 358077, Note_on_c, 0, 70, 68
2, 358249, Note_on_c, 0, 69, 78
2, 358257, Note_on_c, 0, 70, 0
2, 358409, Note_on_c, 0, 70, 82
2, 358429, Note_on_c, 0, 69, 0
2, 358673, Note_on_c, 0, 62, 0
2, 358701, Note_on_c, 0, 70, 0
2, 358757, Note_on_c, 0, 61, 28
2, 358769, Note_on_c, 0, 79, 76
2, 358881, Control_c, 0, 64, 88
2, 358897, Control_c, 0, 64, 0
2, 359005, Control_c, 0, 64, 56
2, 359021, Control_c, 0, 64, 127
2, 359189, Note_on_c, 0, 79, 0
2, 359201, Note_on_c, 0, 77, 70
2, 359497, Note_on_c, 0, 77, 0
2, 359533, Note_on_c, 0, 70, 67
2, 359653, Note_on_c, 0, 70, 0
2, 359713, Note_on_c, 0, 61, 0
2, 359725, Note_on_c, 0, 65, 0
2, 359969, Note_on_c, 0, 69, 60
2, 359981, Note_on_c, 0, 65, 46
2, 359993, Note_on_c, 0, 60, 40
2, 360089, Control_c, 0, 64, 104
2, 360105, Control_c, 0, 64, 24
2, 360121, Control_c, 0, 64, 0
2, 360213, Control_c, 0, 64, 72
2, 360217, Note_on_c, 0, 69, 0
2, 360227, Note_on_c, 0, 70, 61
2, 360229, Control_c, 0, 64, 127
2, 360383, Note_on_c, 0, 70, 0
2, 360457, Note_on_c, 0, 69, 74
2, 360617, Note_on_c, 0, 69, 0
2, 360637, Note_on_c, 0, 68, 64
2, 360785, Note_on_c, 0, 68, 0
2, 360813, Note_on_c, 0, 69, 85
2, 361025, Note_on_c, 0, 60, 0
2, 361041, Note_on_c, 0, 59, 42
2, 361073, Note_on_c, 0, 69, 0
2, 361181, Note_on_c, 0, 79, 76
2, 361217, Control_c, 0, 64, 104
2, 361237, Control_c, 0, 64, 40
2, 361253, Control_c, 0, 64, 0
2, 361377, Control_c, 0, 64, 88
2, 361393, Control_c, 0, 64, 127
2, 361517, Note_on_c, 0, 79, 0
2, 361549, Note_on_c, 0, 77, 70
2, 361881, Note_on_c, 0, 77, 0
2, 361893, Note_on_c, 0, 68, 65
2, 362045, Note_on_c, 0, 68, 0
2, 362057, Note_on_c, 0, 59, 0
2, 362281, Note_on_c, 0, 60, 46
2, 362289, Note_on_c, 0, 67, 61
2, 362369, Control_c, 0, 64, 88
2, 362385, Control_c, 0, 64, 0
2, 362489, Control_c, 0, 64, 72
2, 362505, Control_c, 0, 64, 127
2, 362561, Note_on_c, 0, 68, 58
2, 362577, Note_on_c, 0, 67, 0
2, 362741, Note_on_c, 0, 68, 0
2, 362805, Note_on_c, 0, 67, 66
2, 362965, Note_on_c, 0, 63, 62
2, 363033, Note_on_c, 0, 67, 0
2, 363041, Note_on_c, 0, 66, 53
2, 363117, Note_on_c, 0, 65, 0
2, 363205, Note_on_c, 0, 66, 0
2, 363229, Note_on_c, 0, 67, 74
2, 363277, Note_on_c, 0, 60, 0
2, 363501, Note_on_c, 0, 67, 0
2, 363517, Note_on_c, 0, 77, 77
2, 363721, Note_on_c, 0, 63, 0
2, 363721, Note_on_c, 0, 61, 50
2, 363737, Note_on_c, 0, 58, 39
2, 363837, Control_c, 0, 64, 72
2, 363853, Control_c, 0, 64, 0
2, 363885, Note_on_c, 0, 75, 73
2, 363917, Note_on_c, 0, 77, 0
2, 363961, Control_c, 0, 64, 72
2, 363977, Control_c, 0, 64, 127
2, 364225, Note_on_c, 0, 75, 0
2, 364233, Note_on_c, 0, 66, 63
2, 364341, Note_on_c, 0, 58, 0
2, 364353, Note_on_c, 0, 61, 0
2, 364377, Note_on_c, 0, 66, 0
2, 364661, Note_on_c, 0, 65, 58
2, 364665, Note_on_c, 0, 60, 48
2, 364665, Note_on_c, 0, 57, 30
2, 364785, Control_c, 0, 64, 40
2, 364797, Control_c, 0, 64, 0
2, 364877, Control_c, 0, 64, 40
2, 364893, Control_c, 0, 64, 104
2, 364905, Control_c, 0, 64, 127
2, 364921, Note_on_c, 0, 65, 0
2, 364960, Note_on_c, 0, 67, 58
2, 365124, Note_on_c, 0, 67, 0
2, 365197, Note_on_c, 0, 65, 68
2, 365361, Note_on_c, 0, 65, 0
2, 365381, Note_on_c, 0, 64, 70
2, 365489, Note_on_c, 0, 60, 0
2, 365489, Note_on_c, 0, 61, 57
2, 365513, Note_on_c, 0, 64, 0
2, 365605, Note_on_c, 0, 65, 71
2, 365681, Note_on_c, 0, 65, 0
2, 365737, Note_on_c, 0, 65, 69
2, 365821, Note_on_c, 0, 65, 0
2, 365917, Note_on_c, 0, 57, 0
2, 365921, Note_on_c, 0, 61, 0
2, 365929, Note_on_c, 0, 62, 55
2, 365941, Note_on_c, 0, 56, 40
2, 366085, Control_c, 0, 64, 104
2, 366097, Note_on_c, 0, 72, 71
2, 366097, Control_c, 0, 64, 40
2, 366113, Control_c, 0, 64, 0
2, 366157, Note_on_c, 0, 65, 21
2, 366301, Control_c, 0, 64, 88
2, 366317, Control_c, 0, 64, 127
2, 366709, Note_on_c, 0, 72, 0
2, 366717, Note_on_c, 0, 70, 49
2, 366829, Control_c, 0, 64, 88
2, 366841, Control_c, 0, 64, 24
2, 366857, Control_c, 0, 64, 0
2, 366953, Control_c, 0, 64, 88
2, 366969, Control_c, 0, 64, 127
2, 367065, Note_on_c, 0, 65, 0
2, 367125, Note_on_c, 0, 70, 0
2, 367165, Note_on_c, 0, 62, 0
2, 367181, Note_on_c, 0, 56, 0
2, 367513, Note_on_c, 0, 63, 34
2, 367517, Note_on_c, 0, 70, 54
2, 367529, Note_on_c, 0, 55, 39
2, 367585, Control_c, 0, 64, 56
2, 367601, Control_c, 0, 64, 0
2, 367677, Control_c, 0, 64, 24
2, 367693, Control_c, 0, 64, 88
2, 367713, Control_c, 0, 64, 127
2, 367773, Note_on_c, 0, 70, 0
2, 367808, Note_on_c, 0, 72, 69
2, 367976, Note_on_c, 0, 72, 0
2, 368025, Note_on_c, 0, 70, 67
2, 368221, Note_on_c, 0, 70, 0
2, 368229, Note_on_c, 0, 69, 64
2, 368429, Note_on_c, 0, 69, 0
2, 368441, Note_on_c, 0, 70, 62
2, 368681, Note_on_c, 0, 75, 65
2, 368709, Note_on_c, 0, 70, 0
2, 368825, Note_on_c, 0, 63, 0
2, 368829, Note_on_c, 0, 65, 73
2, 368837, Note_on_c, 0, 55, 0
2, 368953, Note_on_c, 0, 71, 61
2, 368997, Note_on_c, 0, 75, 0
2, 369189, Note_on_c, 0, 65, 0
2, 369197, Note_on_c, 0, 71, 0
2, 369293, Note_on_c, 0, 72, 57
2, 369313, Note_on_c, 0, 56, 47
2, 369461, Control_c, 0, 64, 104
2, 369477, Control_c, 0, 64, 40
2, 369493, Control_c, 0, 64, 0
2, 369541, Note_on_c, 0, 72, 0
2, 369585, Note_on_c, 0, 74, 67
2, 369585, Control_c, 0, 64, 104
2, 369597, Control_c, 0, 64, 127
2, 369769, Note_on_c, 0, 74, 0
2, 369797, Note_on_c, 0, 72, 68
2, 369837, Note_on_c, 0, 56, 0
2, 370021, Note_on_c, 0, 72, 0
2, 370045, Note_on_c, 0, 71, 53
2, 370209, Note_on_c, 0, 71, 0
2, 370253, Note_on_c, 0, 72, 58
2, 370297, Note_on_c, 0, 63, 67
2, 370333, Note_on_c, 0, 57, 45
2, 370373, Control_c, 0, 64, 40
2, 370389, Control_c, 0, 64, 0
2, 370453, Control_c, 0, 64, 56
2, 370469, Control_c, 0, 64, 127
2, 370549, Note_on_c, 0, 79, 71
2, 370781, Note_on_c, 0, 62, 64
2, 370813, Note_on_c, 0, 72, 0
2, 370833, Note_on_c, 0, 79, 0
2, 370841, Note_on_c, 0, 63, 0
2, 370929, Note_on_c, 0, 77, 70
2, 370949, Note_on_c, 0, 57, 0
2, 371013, Note_on_c, 0, 77, 0
2, 371213, Note_on_c, 0, 62, 0
2, 371281, Note_on_c, 0, 60, 63
2, 371289, Note_on_c, 0, 58, 50
2, 371361, Note_on_c, 0, 68, 46
2, 371413, Control_c, 0, 64, 88
2, 371429, Control_c, 0, 64, 24
2, 371441, Control_c, 0, 64, 0
2, 371537, Control_c, 0, 64, 40
2, 371553, Control_c, 0, 64, 104
2, 371569, Control_c, 0, 64, 127
2, 371597, Note_on_c, 0, 70, 55
2, 371601, Note_on_c, 0, 68, 0
2, 371789, Note_on_c, 0, 70, 0
2, 371833, Note_on_c, 0, 68, 55
2, 372053, Note_on_c, 0, 68, 0
2, 372081, Note_on_c, 0, 67, 50
2, 372305, Note_on_c, 0, 67, 0
2, 372313, Note_on_c, 0, 68, 51
2, 372333, Note_on_c, 0, 60, 0
2, 372381, Note_on_c, 0, 62, 59
2, 372545, Control_c, 0, 64, 88
2, 372557, Control_c, 0, 64, 0
2, 372669, Control_c, 0, 64, 88
2, 372685, Control_c, 0, 64, 127
2, 372693, Note_on_c, 0, 68, 0
2, 372729, Note_on_c, 0, 72, 58
2, 373141, Note_on_c, 0, 72, 0
2, 373153, Note_on_c, 0, 70, 57
2, 373533, Note_on_c, 0, 62, 0
2, 373593, Note_on_c, 0, 70, 0
2, 373613, Note_on_c, 0, 68, 40
2, 373637, Note_on_c, 0, 63, 50
2, 373721, Control_c, 0, 64, 104
2, 373737, Control_c, 0, 64, 40
2, 373749, Control_c, 0, 64, 0
2, 373877, Control_c, 0, 64, 88
2, 373889, Control_c, 0, 64, 127
2, 374185, Note_on_c, 0, 68, 0
2, 374201, Note_on_c, 0, 67, 53
2, 374325, Control_c, 0, 64, 72
2, 374341, Control_c, 0, 64, 0
2, 374417, Control_c, 0, 64, 24
2, 374433, Control_c, 0, 64, 88
2, 374449, Control_c, 0, 64, 127
2, 374765, Note_on_c, 0, 67, 0
2, 374833, Note_on_c, 0, 65, 39
2, 374905, Note_on_c, 0, 63, 0
2, 374941, Control_c, 0, 64, 104
2, 374957, Control_c, 0, 64, 40
2, 374977, Control_c, 0, 64, 0
2, 375037, Control_c, 0, 64, 56
2, 375053, Control_c, 0, 64, 127
2, 375589, Note_on_c, 0, 65, 0
2, 375613, Note_on_c, 0, 63, 40
2, 375749, Control_c, 0, 64, 104
2, 375765, Control_c, 0, 64, 56
2, 375777, Control_c, 0, 64, 0
2, 375873, Control_c, 0, 64, 24
2, 375889, Control_c, 0, 64, 88
2, 375905, Control_c, 0, 64, 127
2, 375993, Note_on_c, 0, 63, 0
2, 375997, Note_on_c, 0, 58, 0
2, 376445, Control_c, 0, 64, 104
2, 376461, Control_c, 0, 64, 72
2, 376477, Control_c, 0, 64, 40
2, 376493, Control_c, 0, 64, 24
2, 376505, Control_c, 0, 64, 0
2, 378625, Control_c, 0, 64, 72
2, 378641, Control_c, 0, 64, 127
2, 378673, Note_on_c, 0, 50, 70
2, 378693, Note_on_c, 0, 69, 78
2, 378701, Note_on_c, 0, 50, 0
2, 378785, Note_on_c, 0, 69, 0
2, 378793, Note_on_c, 0, 75, 87
2, 378877, Note_on_c, 0, 75, 0
2, 378905, Note_on_c, 0, 72, 94
2, 378925, Note_on_c, 0, 69, 61
2, 378937, Note_on_c, 0, 63, 54
2, 378965, Note_on_c, 0, 72, 0
2, 378993, Note_on_c, 0, 63, 0
2, 378993, Note_on_c, 0, 69, 0
2, 379005, Note_on_c, 0, 71, 84
2, 379077, Note_on_c, 0, 71, 0
2, 379093, Note_on_c, 0, 72, 102
2, 379117, Note_on_c, 0, 63, 49
2, 379121, Note_on_c, 0, 69, 52
2, 379125, Note_on_c, 0, 60, 53
2, 379133, Note_on_c, 0, 66, 50
2, 379153, Note_on_c, 0, 72, 0
2, 379165, Note_on_c, 0, 66, 0
2, 379169, Note_on_c, 0, 69, 0
2, 379177, Note_on_c, 0, 60, 0
2, 379185, Note_on_c, 0, 63, 0
2, 379185, Note_on_c, 0, 81, 89
2, 379253, Note_on_c, 0, 81, 0
2, 379289, Note_on_c, 0, 79, 94
2, 379309, Note_on_c, 0, 69, 63
2, 379309, Note_on_c, 0, 60, 54
2, 379309, Note_on_c, 0, 63, 47
2, 379313, Note_on_c, 0, 66, 42
2, 379361, Note_on_c, 0, 66, 0
2, 379373, Note_on_c, 0, 60, 0
2, 379373, Note_on_c, 0, 69, 0
2, 379381, Note_on_c, 0, 63, 0
2, 379489, Note_on_c, 0, 79, 0
2, 379533, Note_on_c, 0, 78, 96
2, 379573, Note_on_c, 0, 69, 50
2, 379573, Note_on_c, 0, 63, 33
2, 379577, Note_on_c, 0, 60, 37
2, 379593, Note_on_c, 0, 66, 28
2, 379605, Note_on_c, 0, 78, 0
2, 379621, Note_on_c, 0, 60, 0
2, 379625, Note_on_c, 0, 66, 0
2, 379637, Note_on_c, 0, 69, 0
2, 379645, Note_on_c, 0, 63, 0
2, 379765, Note_on_c, 0, 75, 77
2, 379773, Note_on_c, 0, 69, 66
2, 379785, Note_on_c, 0, 66, 40
2, 379785, Note_on_c, 0, 60, 47
2, 379797, Note_on_c, 0, 69, 0
2, 379797, Note_on_c, 0, 63, 39
2, 379809, Note_on_c, 0, 66, 0
2, 379817, Note_on_c, 0, 60, 0
2, 379821, Note_on_c, 0, 63, 0
2, 379865, Note_on_c, 0, 75, 0
2, 380005, Control_c, 0, 64, 88
2, 380021, Control_c, 0, 64, 0
2, 380025, Note_on_c, 0, 69, 84
2, 380041, Note_on_c, 0, 50, 72
2, 380073, Note_on_c, 0, 50, 0
2, 380089, Control_c, 0, 64, 72
2, 380105, Note_on_c, 0, 69, 0
2, 380105, Control_c, 0, 64, 127
2, 380141, Note_on_c, 0, 75, 87
2, 380217, Note_on_c, 0, 75, 0
2, 380253, Note_on_c, 0, 72, 97
2, 380269, Note_on_c, 0, 69, 53
2, 380273, Note_on_c, 0, 63, 44
2, 380273, Note_on_c, 0, 60, 48
2, 380277, Note_on_c, 0, 66, 39
2, 380313, Note_on_c, 0, 60, 0
2, 380313, Note_on_c, 0, 72, 0
2, 380329, Note_on_c, 0, 66, 0
2, 380329, Note_on_c, 0, 63, 0
2, 380337, Note_on_c, 0, 69, 0
2, 380349, Note_on_c, 0, 71, 87
2, 380449, Note_on_c, 0, 72, 103
2, 380461, Note_on_c, 0, 71, 0
2, 380461, Note_on_c, 0, 63, 46
2, 380465, Note_on_c, 0, 60, 59
2, 380469, Note_on_c, 0, 66, 43
2, 380473, Note_on_c, 0, 69, 55
2, 380509, Note_on_c, 0, 60, 0
2, 380521, Note_on_c, 0, 72, 0
2, 380529, Note_on_c, 0, 66, 0
2, 380533, Note_on_c, 0, 69, 0
2, 380541, Note_on_c, 0, 63, 0
2, 380557, Note_on_c, 0, 81, 92
2, 380653, Note_on_c, 0, 79, 95
2, 380669, Note_on_c, 0, 81, 0
2, 380677, Note_on_c, 0, 63, 45
2, 380681, Note_on_c, 0, 69, 60
2, 380681, Note_on_c, 0, 66, 44
2, 380685, Note_on_c, 0, 60, 52
2, 380733, Note_on_c, 0, 60, 0
2, 380745, Note_on_c, 0, 69, 0
2, 380749, Note_on_c, 0, 66, 0
2, 380757, Note_on_c, 0, 63, 0
2, 380853, Note_on_c, 0, 79, 0
2, 380873, Note_on_c, 0, 78, 91
2, 380905, Note_on_c, 0, 63, 40
2, 380909, Note_on_c, 0, 69, 53
2, 380909, Note_on_c, 0, 66, 44
2, 380917, Note_on_c, 0, 60, 42
2, 380929, Note_on_c, 0, 78, 0
2, 380961, Note_on_c, 0, 60, 0
2, 380961, Note_on_c, 0, 69, 0
2, 380977, Note_on_c, 0, 66, 0
2, 380985, Note_on_c, 0, 63, 0
2, 381009, Note_on_c, 0, 84, 97
2, 381097, Note_on_c, 0, 66, 56
2, 381101, Note_on_c, 0, 69, 59
2, 381105, Note_on_c, 0, 60, 37
2, 381117, Note_on_c, 0, 96, 105
2, 381125, Note_on_c, 0, 69, 0
2, 381133, Note_on_c, 0, 66, 0
2, 381137, Note_on_c, 0, 60, 0
2, 381313, Control_c, 0, 64, 56
2, 381329, Control_c, 0, 64, 0
2, 381337, Note_on_c, 0, 50, 82
2, 381385, Note_on_c, 0, 50, 0
2, 381409, Note_on_c, 0, 96, 0
2, 381413, Control_c, 0, 64, 104
2, 381425, Note_on_c, 0, 84, 0
2, 381425, Control_c, 0, 64, 127
2, 381445, Note_on_c, 0, 94, 88
2, 381549, Note_on_c, 0, 94, 0
2, 381557, Note_on_c, 0, 91, 93
2, 381565, Note_on_c, 0, 58, 46
2, 381569, Note_on_c, 0, 62, 60
2, 381569, Note_on_c, 0, 67, 61
2, 381625, Note_on_c, 0, 67, 0
2, 381625, Note_on_c, 0, 62, 0
2, 381629, Note_on_c, 0, 58, 0
2, 381661, Note_on_c, 0, 86, 93
2, 381665, Note_on_c, 0, 91, 0
2, 381713, Note_on_c, 0, 86, 0
2, 381773, Note_on_c, 0, 84, 97
2, 381793, Note_on_c, 0, 58, 38
2, 381793, Note_on_c, 0, 62, 59
2, 381797, Note_on_c, 0, 67, 54
2, 381865, Note_on_c, 0, 62, 0
2, 381877, Note_on_c, 0, 67, 0
2, 381885, Note_on_c, 0, 58, 0
2, 381989, Note_on_c, 0, 58, 35
2, 381997, Note_on_c, 0, 67, 59
2, 381997, Note_on_c, 0, 62, 48
2, 382025, Note_on_c, 0, 84, 0
2, 382037, Note_on_c, 0, 62, 0
2, 382057, Note_on_c, 0, 67, 0
2, 382057, Note_on_c, 0, 58, 0
2, 382077, Note_on_c, 0, 82, 78
2, 382165, Note_on_c, 0, 82, 0
2, 382185, Note_on_c, 0, 79, 88
2, 382197, Note_on_c, 0, 62, 63
2, 382197, Note_on_c, 0, 67, 60
2, 382197, Note_on_c, 0, 58, 48
2, 382221, Note_on_c, 0, 62, 0
2, 382225, Note_on_c, 0, 67, 0
2, 382253, Note_on_c, 0, 58, 0
2, 382265, Note_on_c, 0, 79, 0
2, 382289, Note_on_c, 0, 74, 77
2, 382337, Note_on_c, 0, 74, 0
2, 382397, Note_on_c, 0, 72, 92
2, 382409, Note_on_c, 0, 52, 56
2, 382469, Note_on_c, 0, 52, 0
2, 382473, Note_on_c, 0, 72, 0
2, 382505, Note_on_c, 0, 70, 80
2, 382577, Control_c, 0, 64, 104
2, 382593, Control_c, 0, 64, 24
2, 382597, Note_on_c, 0, 70, 0
2, 382605, Control_c, 0, 64, 0
2, 382625, Note_on_c, 0, 69, 83
2, 382633, Note_on_c, 0, 53, 66
2, 382689, Control_c, 0, 64, 40
2, 382705, Note_on_c, 0, 69, 0
2, 382705, Control_c, 0, 64, 88
2, 382721, Control_c, 0, 64, 127
2, 382725, Note_on_c, 0, 75, 84
2, 382777, Control_c, 0, 64, 88
2, 382789, Control_c, 0, 64, 0
2, 382813, Note_on_c, 0, 75, 0
2, 382849, Note_on_c, 0, 72, 82
2, 382857, Note_on_c, 0, 63, 36
2, 382857, Note_on_c, 0, 65, 34
2, 382873, Note_on_c, 0, 57, 33
2, 382873, Control_c, 0, 64, 40
2, 382889, Control_c, 0, 64, 88
2, 382901, Control_c, 0, 64, 104
2, 382917, Note_on_c, 0, 65, 0
2, 382917, Note_on_c, 0, 72, 0
2, 382921, Control_c, 0, 64, 127
2, 382937, Note_on_c, 0, 57, 0
2, 382937, Note_on_c, 0, 63, 0
2, 382945, Note_on_c, 0, 71, 81
2, 383017, Control_c, 0, 64, 88
2, 383021, Note_on_c, 0, 71, 0
2, 383033, Control_c, 0, 64, 24
2, 383045, Control_c, 0, 64, 0
2, 383065, Note_on_c, 0, 72, 87
2, 383089, Note_on_c, 0, 63, 31
2, 383089, Note_on_c, 0, 65, 22
2, 383117, Control_c, 0, 64, 40
2, 383121, Note_on_c, 0, 72, 0
2, 383129, Control_c, 0, 64, 72
2, 383145, Control_c, 0, 64, 104
2, 383157, Note_on_c, 0, 65, 0
2, 383161, Note_on_c, 0, 63, 0
2, 383161, Control_c, 0, 64, 127
2, 383181, Note_on_c, 0, 81, 61
2, 383265, Note_on_c, 0, 81, 0
2, 383321, Note_on_c, 0, 79, 79
2, 383329, Control_c, 0, 64, 72
2, 383337, Note_on_c, 0, 65, 37
2, 383337, Note_on_c, 0, 63, 38
2, 383345, Control_c, 0, 64, 0
2, 383353, Note_on_c, 0, 57, 24
2, 383417, Control_c, 0, 64, 56
2, 383421, Note_on_c, 0, 65, 0
2, 383429, Note_on_c, 0, 63, 0
2, 383429, Control_c, 0, 64, 104
2, 383445, Note_on_c, 0, 57, 0
2, 383445, Control_c, 0, 64, 127
2, 383569, Note_on_c, 0, 79, 0
2, 383601, Note_on_c, 0, 77, 70
2, 383625, Note_on_c, 0, 63, 43
2, 383629, Control_c, 0, 64, 88
2, 383645, Note_on_c, 0, 57, 37
2, 383645, Control_c, 0, 64, 24
2, 383657, Control_c, 0, 64, 0
2, 383685, Control_c, 0, 64, 40
2, 383701, Control_c, 0, 64, 88
2, 383709, Note_on_c, 0, 63, 0
2, 383713, Control_c, 0, 64, 127
2, 383737, Note_on_c, 0, 57, 0
2, 383937, Note_on_c, 0, 65, 49
2, 383945, Note_on_c, 0, 63, 32
2, 384005, Note_on_c, 0, 63, 0
2, 384033, Note_on_c, 0, 53, 0
2, 384237, Note_on_c, 0, 65, 0
2, 384253, Control_c, 0, 64, 56
2, 384269, Control_c, 0, 64, 0
2, 384293, Note_on_c, 0, 41, 62
2, 384297, Control_c, 0, 64, 56
2, 384309, Control_c, 0, 64, 127
2, 384373, Note_on_c, 0, 41, 0
2, 384413, Note_on_c, 0, 77, 0
2, 384461, Note_on_c, 0, 79, 74
2, 384469, Note_on_c, 0, 67, 58
2, 384517, Note_on_c, 0, 67, 0
2, 384525, Note_on_c, 0, 79, 0
2, 384629, Note_on_c, 0, 81, 83
2, 384637, Note_on_c, 0, 69, 69
2, 384657, Note_on_c, 0, 63, 52
2, 384669, Note_on_c, 0, 57, 56
2, 384677, Note_on_c, 0, 69, 0
2, 384693, Note_on_c, 0, 81, 0
2, 384709, Note_on_c, 0, 57, 0
2, 384721, Note_on_c, 0, 63, 0
2, 384769, Note_on_c, 0, 70, 86
2, 384773, Note_on_c, 0, 82, 89
2, 384821, Note_on_c, 0, 70, 0
2, 384857, Note_on_c, 0, 82, 0
2, 384917, Note_on_c, 0, 63, 58
2, 384921, Note_on_c, 0, 57, 59
2, 384921, Note_on_c, 0, 84, 96
2, 384925, Note_on_c, 0, 72, 90
2, 384961, Note_on_c, 0, 57, 0
2, 384969, Note_on_c, 0, 63, 0
2, 384973, Note_on_c, 0, 84, 0
2, 384973, Note_on_c, 0, 72, 0
2, 385057, Note_on_c, 0, 86, 99
2, 385061, Note_on_c, 0, 74, 87
2, 385109, Note_on_c, 0, 74, 0
2, 385169, Note_on_c, 0, 86, 0
2, 385249, Note_on_c, 0, 87, 102
2, 385253, Note_on_c, 0, 75, 75
2, 385289, Control_c, 0, 64, 72
2, 385293, Note_on_c, 0, 42, 49
2, 385305, Control_c, 0, 64, 0
2, 385377, Note_on_c, 0, 42, 0
2, 385389, Control_c, 0, 64, 127
2, 385433, Note_on_c, 0, 75, 0
2, 385481, Note_on_c, 0, 87, 0
2, 385605, Note_on_c, 0, 63, 42
2, 385625, Note_on_c, 0, 57, 42
2, 385665, Note_on_c, 0, 57, 0
2, 385689, Note_on_c, 0, 63, 0
2, 385921, Note_on_c, 0, 63, 40
2, 385921, Note_on_c, 0, 60, 41
2, 385929, Note_on_c, 0, 69, 89
2, 385933, Note_on_c, 0, 57, 41
2, 385957, Note_on_c, 0, 63, 0
2, 385961, Note_on_c, 0, 60, 0
2, 385969, Note_on_c, 0, 57, 0
2, 386213, Control_c, 0, 64, 88
2, 386229, Note_on_c, 0, 38, 85
2, 386229, Control_c, 0, 64, 0
2, 386285, Note_on_c, 0, 38, 0
2, 386297, Control_c, 0, 64, 127
2, 386385, Note_on_c, 0, 75, 83
2, 386405, Note_on_c, 0, 69, 0
2, 386481, Note_on_c, 0, 75, 0
2, 386517, Note_on_c, 0, 72, 92
2, 386529, Note_on_c, 0, 69, 53
2, 386529, Note_on_c, 0, 63, 48
2, 386529, Note_on_c, 0, 60, 57
2, 386537, Note_on_c, 0, 66, 43
2, 386561, Note_on_c, 0, 60, 0
2, 386577, Note_on_c, 0, 72, 0
2, 386597, Note_on_c, 0, 69, 0
2, 386605, Note_on_c, 0, 63, 0
2, 386605, Note_on_c, 0, 66, 0
2, 386617, Note_on_c, 0, 71, 82
2, 386685, Note_on_c, 0, 71, 0
2, 386721, Note_on_c, 0, 72, 97
2, 386729, Note_on_c, 0, 63, 49
2, 386741, Note_on_c, 0, 60, 53
2, 386745, Note_on_c, 0, 69, 48
2, 386745, Note_on_c, 0, 66, 33
2, 386781, Note_on_c, 0, 66, 0
2, 386781, Note_on_c, 0, 72, 0
2, 386789, Note_on_c, 0, 60, 0
2, 386797, Note_on_c, 0, 69, 0
2, 386801, Note_on_c, 0, 63, 0
2, 386821, Note_on_c, 0, 81, 92
2, 386901, Note_on_c, 0, 81, 0
2, 386917, Note_on_c, 0, 79, 93
2, 386933, Note_on_c, 0, 60, 68
2, 386933, Note_on_c, 0, 63, 55
2, 386937, Note_on_c, 0, 69, 70
2, 386945, Note_on_c, 0, 66, 43
2, 386953, Control_c, 0, 64, 104
2, 386965, Control_c, 0, 64, 88
2, 386977, Control_c, 0, 64, 127
2, 386985, Note_on_c, 0, 66, 0
2, 387005, Note_on_c, 0, 60, 0
2, 387005, Note_on_c, 0, 69, 0
2, 387025, Note_on_c, 0, 63, 0
2, 387133, Note_on_c, 0, 79, 0
2, 387157, Note_on_c, 0, 78, 92
2, 387193, Note_on_c, 0, 63, 39
2, 387201, Note_on_c, 0, 69, 51
2, 387209, Note_on_c, 0, 60, 33
2, 387221, Note_on_c, 0, 66, 37
2, 387225, Note_on_c, 0, 78, 0
2, 387253, Note_on_c, 0, 66, 0
2, 387257, Note_on_c, 0, 60, 0
2, 387265, Note_on_c, 0, 69, 0
2, 387281, Note_on_c, 0, 63, 0
2, 387405, Note_on_c, 0, 63, 58
2, 387405, Note_on_c, 0, 66, 56
2, 387417, Note_on_c, 0, 69, 52
2, 387417, Note_on_c, 0, 75, 84
2, 387429, Note_on_c, 0, 60, 36
2, 387433, Note_on_c, 0, 66, 0
2, 387441, Note_on_c, 0, 69, 0
2, 387457, Note_on_c, 0, 60, 0
2, 387457, Note_on_c, 0, 63, 0
2, 387489, Note_on_c, 0, 75, 0
2, 387633, Control_c, 0, 64, 88
2, 387641, Note_on_c, 0, 69, 84
2, 387645, Note_on_c, 0, 57, 50
2, 387645, Control_c, 0, 64, 0
2, 387649, Note_on_c, 0, 50, 63
2, 387673, Note_on_c, 0, 50, 0
2, 387673, Note_on_c, 0, 57, 0
2, 387689, Control_c, 0, 64, 24
2, 387705, Control_c, 0, 64, 88
2, 387721, Note_on_c, 0, 69, 0
2, 387721, Control_c, 0, 64, 127
2, 387741, Note_on_c, 0, 75, 89
2, 387825, Note_on_c, 0, 75, 0
2, 387853, Note_on_c, 0, 72, 96
2, 387869, Note_on_c, 0, 69, 58
2, 387869, Note_on_c, 0, 63, 55
2, 387877, Note_on_c, 0, 66, 39
2, 387877, Note_on_c, 0, 60, 44
2, 387909, Note_on_c, 0, 60, 0
2, 387909, Note_on_c, 0, 72, 0
2, 387921, Note_on_c, 0, 66, 0
2, 387933, Note_on_c, 0, 63, 0
2, 387941, Note_on_c, 0, 69, 0
2, 387941, Note_on_c, 0, 71, 90
2, 388037, Note_on_c, 0, 72, 94
2, 388041, Note_on_c, 0, 71, 0
2, 388053, Note_on_c, 0, 63, 52
2, 388065, Note_on_c, 0, 69, 57
2, 388069, Note_on_c, 0, 66, 39
2, 388093, Note_on_c, 0, 60, 21
2, 388117, Note_on_c, 0, 66, 0
2, 388121, Note_on_c, 0, 60, 0
2, 388125, Note_on_c, 0, 63, 0
2, 388133, Note_on_c, 0, 72, 0
2, 388141, Note_on_c, 0, 69, 0
2, 388141, Note_on_c, 0, 81, 84
2, 388241, Note_on_c, 0, 79, 87
2, 388253, Note_on_c, 0, 81, 0
2, 388257, Note_on_c, 0, 63, 52
2, 388261, Note_on_c, 0, 69, 67
2, 388261, Note_on_c, 0, 60, 59
2, 388265, Note_on_c, 0, 66, 44
2, 388313, Note_on_c, 0, 66, 0
2, 388321, Note_on_c, 0, 69, 0
2, 388325, Note_on_c, 0, 60, 0
2, 388329, Note_on_c, 0, 63, 0
2, 388449, Note_on_c, 0, 79, 0
2, 388453, Note_on_c, 0, 78, 92
2, 388485, Note_on_c, 0, 63, 45
2, 388493, Note_on_c, 0, 60, 55
2, 388493, Note_on_c, 0, 69, 58
2, 388493, Note_on_c, 0, 66, 36
2, 388513, Note_on_c, 0, 78, 0
2, 388541, Note_on_c, 0, 66, 0
2, 388545, Note_on_c, 0, 69, 0
2, 388557, Note_on_c, 0, 60, 0
2, 388569, Note_on_c, 0, 63, 0
2, 388601, Note_on_c, 0, 84, 97
2, 388677, Note_on_c, 0, 69, 52
2, 388685, Note_on_c, 0, 60, 39
2, 388689, Note_on_c, 0, 63, 26
2, 388705, Note_on_c, 0, 69, 0
2, 388709, Note_on_c, 0, 96, 102
2, 388713, Note_on_c, 0, 60, 0
2, 388717, Note_on_c, 0, 63, 0
2, 388913, Note_on_c, 0, 50, 86
2, 388913, Control_c, 0, 64, 40
2, 388925, Control_c, 0, 64, 0
2, 388969, Note_on_c, 0, 50, 0
2, 388981, Control_c, 0, 64, 72
2, 388989, Note_on_c, 0, 96, 0
2, 388997, Control_c, 0, 64, 127
2, 389033, Note_on_c, 0, 84, 0
2, 389041, Note_on_c, 0, 94, 85
2, 389145, Note_on_c, 0, 94, 0
2, 389157, Note_on_c, 0, 91, 90
2, 389173, Note_on_c, 0, 58, 57
2, 389177, Note_on_c, 0, 62, 67
2, 389177, Note_on_c, 0, 67, 64
2, 389233, Note_on_c, 0, 67, 0
2, 389233, Note_on_c, 0, 62, 0
2, 389245, Note_on_c, 0, 58, 0
2, 389273, Note_on_c, 0, 91, 0
2, 389273, Note_on_c, 0, 86, 89
2, 389317, Note_on_c, 0, 86, 0
2, 389373, Note_on_c, 0, 84, 100
2, 389389, Note_on_c, 0, 58, 42
2, 389393, Note_on_c, 0, 62, 59
2, 389397, Note_on_c, 0, 67, 54
2, 389477, Note_on_c, 0, 67, 0
2, 389477, Note_on_c, 0, 62, 0
2, 389493, Note_on_c, 0, 58, 0
2, 389601, Note_on_c, 0, 50, 69
2, 389641, Note_on_c, 0, 84, 0
2, 389669, Note_on_c, 0, 50, 0
2, 389685, Note_on_c, 0, 82, 80
2, 389793, Note_on_c, 0, 62, 68
2, 389793, Note_on_c, 0, 58, 50
2, 389793, Note_on_c, 0, 79, 86
2, 389797, Note_on_c, 0, 67, 64
2, 389817, Note_on_c, 0, 62, 0
2, 389821, Note_on_c, 0, 67, 0
2, 389825, Note_on_c, 0, 82, 0
2, 389853, Note_on_c, 0, 58, 0
2, 389889, Note_on_c, 0, 79, 0
2, 389893, Note_on_c, 0, 74, 80
2, 389957, Note_on_c, 0, 74, 0
2, 390013, Note_on_c, 0, 52, 59
2, 390017, Note_on_c, 0, 72, 87
2, 390065, Note_on_c, 0, 52, 0
2, 390073, Note_on_c, 0, 72, 0
2, 390105, Note_on_c, 0, 70, 80
2, 390201, Note_on_c, 0, 70, 0
2, 390217, Control_c, 0, 64, 56
2, 390229, Note_on_c, 0, 69, 84
2, 390233, Control_c, 0, 64, 0
2, 390245, Note_on_c, 0, 53, 68
2, 390305, Control_c, 0, 64, 40
2, 390317, Control_c, 0, 64, 88
2, 390333, Note_on_c, 0, 69, 0
2, 390333, Control_c, 0, 64, 127
2, 390337, Note_on_c, 0, 75, 83
2, 390417, Control_c, 0, 64, 104
2, 390437, Note_on_c, 0, 75, 0
2, 390453, Note_on_c, 0, 72, 87
2, 390461, Note_on_c, 0, 63, 33
2, 390461, Control_c, 0, 64, 127
2, 390481, Note_on_c, 0, 57, 34
2, 390525, Note_on_c, 0, 72, 0
2, 390533, Note_on_c, 0, 57, 0
2, 390533, Note_on_c, 0, 63, 0
2, 390553, Note_on_c, 0, 71, 81
2, 390633, Note_on_c, 0, 71, 0
2, 390669, Note_on_c, 0, 72, 85
2, 390681, Note_on_c, 0, 63, 44
2, 390705, Note_on_c, 0, 57, 25
2, 390721, Note_on_c, 0, 72, 0
2, 390749, Note_on_c, 0, 57, 0
2, 390749, Note_on_c, 0, 63, 0
2, 390769, Note_on_c, 0, 81, 82
2, 390857, Note_on_c, 0, 81, 0
2, 390909, Note_on_c, 0, 79, 78
2, 390929, Control_c, 0, 64, 56
2, 390937, Note_on_c, 0, 63, 34
2, 390941, Note_on_c, 0, 65, 24
2, 390941, Control_c, 0, 64, 0
2, 391029, Note_on_c, 0, 63, 0
2, 391029, Control_c, 0, 64, 56
2, 391033, Note_on_c, 0, 65, 0
2, 391045, Control_c, 0, 64, 127
2, 391181, Note_on_c, 0, 79, 0
2, 391201, Note_on_c, 0, 77, 74
2, 391205, Note_on_c, 0, 63, 45
2, 391237, Note_on_c, 0, 57, 24
2, 391241, Control_c, 0, 64, 88
2, 391253, Control_c, 0, 64, 0
2, 391301, Note_on_c, 0, 63, 0
2, 391313, Note_on_c, 0, 57, 0
2, 391325, Control_c, 0, 64, 56
2, 391341, Control_c, 0, 64, 127
2, 391533, Note_on_c, 0, 63, 48
2, 391541, Note_on_c, 0, 65, 75
2, 391541, Note_on_c, 0, 57, 45
2, 391593, Note_on_c, 0, 63, 0
2, 391601, Note_on_c, 0, 57, 0
2, 391637, Note_on_c, 0, 53, 0
2, 391837, Note_on_c, 0, 65, 0
2, 391865, Control_c, 0, 64, 104
2, 391877, Note_on_c, 0, 41, 63
2, 391881, Control_c, 0, 64, 56
2, 391893, Control_c, 0, 64, 72
2, 391909, Control_c, 0, 64, 127
2, 391917, Note_on_c, 0, 41, 0
2, 391973, Note_on_c, 0, 77, 0
2, 392025, Note_on_c, 0, 79, 82
2, 392033, Note_on_c, 0, 67, 63
2, 392081, Note_on_c, 0, 67, 0
2, 392093, Note_on_c, 0, 79, 0
2, 392197, Note_on_c, 0, 81, 88
2, 392201, Note_on_c, 0, 69, 73
2, 392205, Note_on_c, 0, 57, 48
2, 392209, Note_on_c, 0, 60, 49
2, 392213, Note_on_c, 0, 53, 50
2, 392241, Note_on_c, 0, 69, 0
2, 392245, Note_on_c, 0, 60, 0
2, 392249, Note_on_c, 0, 81, 0
2, 392257, Note_on_c, 0, 57, 0
2, 392273, Note_on_c, 0, 53, 0
2, 392341, Note_on_c, 0, 70, 77
2, 392341, Note_on_c, 0, 82, 85
2, 392397, Note_on_c, 0, 70, 0
2, 392417, Note_on_c, 0, 82, 0
2, 392485, Note_on_c, 0, 84, 97
2, 392489, Note_on_c, 0, 72, 89
2, 392493, Note_on_c, 0, 57, 53
2, 392497, Note_on_c, 0, 51, 55
2, 392497, Note_on_c, 0, 60, 50
2, 392521, Note_on_c, 0, 57, 0
2, 392525, Note_on_c, 0, 60, 0
2, 392525, Note_on_c, 0, 84, 0
2, 392529, Note_on_c, 0, 72, 0
2, 392553, Note_on_c, 0, 51, 0
2, 392609, Note_on_c, 0, 86, 102
2, 392613, Note_on_c, 0, 74, 92
2, 392661, Note_on_c, 0, 74, 0
2, 392721, Note_on_c, 0, 86, 0
2, 392805, Note_on_c, 0, 87, 91
2, 392809, Note_on_c, 0, 75, 83
2, 392833, Control_c, 0, 64, 88
2, 392837, Note_on_c, 0, 42, 61
2, 392849, Control_c, 0, 64, 0
2, 392921, Note_on_c, 0, 42, 0
2, 392929, Control_c, 0, 64, 104
2, 392945, Control_c, 0, 64, 127
2, 393013, Note_on_c, 0, 87, 0
2, 393061, Note_on_c, 0, 75, 0
2, 393129, Note_on_c, 0, 86, 82
2, 393137, Note_on_c, 0, 74, 70
2, 393145, Note_on_c, 0, 57, 38
2, 393149, Note_on_c, 0, 50, 53
2, 393149, Note_on_c, 0, 60, 40
2, 393197, Note_on_c, 0, 60, 0
2, 393197, Note_on_c, 0, 57, 0
2, 393229, Note_on_c, 0, 74, 0
2, 393233, Note_on_c, 0, 50, 0
2, 393241, Note_on_c, 0, 86, 0
2, 393401, Note_on_c, 0, 84, 87
2, 393405, Note_on_c, 0, 72, 77
2, 393429, Note_on_c, 0, 50, 50
2, 393429, Note_on_c, 0, 60, 42
2, 393429, Note_on_c, 0, 57, 44
2, 393461, Note_on_c, 0, 57, 0
2, 393465, Note_on_c, 0, 60, 0
2, 393473, Note_on_c, 0, 72, 0
2, 393489, Note_on_c, 0, 50, 0
2, 393489, Note_on_c, 0, 84, 0
2, 393677, Note_on_c, 0, 82, 79
2, 393689, Note_on_c, 0, 70, 62
2, 393713, Control_c, 0, 64, 72
2, 393717, Note_on_c, 0, 43, 62
2, 393729, Control_c, 0, 64, 0
2, 393769, Note_on_c, 0, 43, 0
2, 393797, Control_c, 0, 64, 56
2, 393813, Control_c, 0, 64, 127
2, 393945, Note_on_c, 0, 70, 0
2, 393949, Note_on_c, 0, 82, 0
2, 393977, Note_on_c, 0, 50, 46
2, 393989, Note_on_c, 0, 55, 46
2, 393989, Note_on_c, 0, 58, 22
2, 394033, Note_on_c, 0, 50, 0
2, 394041, Note_on_c, 0, 58, 0
2, 394053, Note_on_c, 0, 55, 0
2, 394089, Note_on_c, 0, 81, 75
2, 394105, Note_on_c, 0, 69, 63
2, 394137, Note_on_c, 0, 69, 0
2, 394149, Note_on_c, 0, 81, 0
2, 394201, Note_on_c, 0, 58, 45
2, 394221, Note_on_c, 0, 50, 43
2, 394225, Note_on_c, 0, 79, 85
2, 394229, Note_on_c, 0, 55, 27
2, 394237, Note_on_c, 0, 67, 59
2, 394245, Note_on_c, 0, 58, 0
2, 394253, Note_on_c, 0, 55, 0
2, 394261, Note_on_c, 0, 50, 0
2, 394301, Note_on_c, 0, 79, 0
2, 394313, Note_on_c, 0, 67, 0
2, 394529, Note_on_c, 0, 77, 77
2, 394537, Control_c, 0, 64, 24
2, 394545, Note_on_c, 0, 65, 56
2, 394549, Note_on_c, 0, 38, 55
2, 394549, Control_c, 0, 64, 0
2, 394613, Note_on_c, 0, 38, 0
2, 394621, Control_c, 0, 64, 56
2, 394637, Control_c, 0, 64, 127
2, 394833, Note_on_c, 0, 53, 60
2, 394837, Note_on_c, 0, 50, 52
2, 394837, Note_on_c, 0, 57, 51
2, 394893, Note_on_c, 0, 65, 0
2, 395017, Note_on_c, 0, 53, 0
2, 395025, Note_on_c, 0, 50, 0
2, 395093, Note_on_c, 0, 57, 0
2, 395109, Note_on_c, 0, 77, 0
2, 395173, Note_on_c, 0, 78, 83
2, 395193, Note_on_c, 0, 66, 54
2, 395217, Note_on_c, 0, 54, 48
2, 395217, Note_on_c, 0, 57, 49
2, 395233, Control_c, 0, 64, 72
2, 395249, Control_c, 0, 64, 0
2, 395317, Control_c, 0, 64, 56
2, 395325, Note_on_c, 0, 57, 0
2, 395325, Note_on_c, 0, 54, 0
2, 395333, Control_c, 0, 64, 127
2, 395345, Note_on_c, 0, 66, 0
2, 395417, Note_on_c, 0, 78, 0
2, 395629, Note_on_c, 0, 38, 78
2, 395629, Control_c, 0, 64, 24
2, 395641, Note_on_c, 0, 69, 90
2, 395645, Control_c, 0, 64, 0
2, 395689, Note_on_c, 0, 38, 0
2, 395701, Control_c, 0, 64, 104
2, 395717, Control_c, 0, 64, 127
2, 395749, Note_on_c, 0, 69, 0
2, 395769, Note_on_c, 0, 75, 87
2, 395857, Note_on_c, 0, 75, 0
2, 395881, Note_on_c, 0, 72, 92
2, 395917, Note_on_c, 0, 66, 37
2, 395921, Note_on_c, 0, 60, 45
2, 395933, Note_on_c, 0, 63, 34
2, 395937, Note_on_c, 0, 69, 29
2, 395941, Note_on_c, 0, 72, 0
2, 395961, Note_on_c, 0, 60, 0
2, 395977, Note_on_c, 0, 63, 0
2, 395985, Note_on_c, 0, 69, 0
2, 395989, Note_on_c, 0, 66, 0
2, 395997, Note_on_c, 0, 71, 87
2, 396085, Note_on_c, 0, 72, 102
2, 396109, Note_on_c, 0, 71, 0
2, 396109, Note_on_c, 0, 63, 46
2, 396117, Note_on_c, 0, 69, 59
2, 396117, Note_on_c, 0, 60, 52
2, 396121, Note_on_c, 0, 66, 32
2, 396153, Note_on_c, 0, 60, 0
2, 396157, Note_on_c, 0, 66, 0
2, 396161, Note_on_c, 0, 69, 0
2, 396161, Note_on_c, 0, 72, 0
2, 396177, Note_on_c, 0, 63, 0
2, 396189, Note_on_c, 0, 81, 90
2, 396285, Note_on_c, 0, 79, 89
2, 396313, Note_on_c, 0, 81, 0
2, 396313, Note_on_c, 0, 60, 64
2, 396313, Control_c, 0, 64, 88
2, 396317, Note_on_c, 0, 69, 69
2, 396317, Note_on_c, 0, 63, 46
2, 396321, Note_on_c, 0, 66, 43
2, 396353, Control_c, 0, 64, 127
2, 396365, Note_on_c, 0, 66, 0
2, 396369, Note_on_c, 0, 69, 0
2, 396373, Note_on_c, 0, 60, 0
2, 396385, Note_on_c, 0, 63, 0
2, 396477, Note_on_c, 0, 79, 0
2, 396501, Note_on_c, 0, 78, 93
2, 396545, Note_on_c, 0, 60, 51
2, 396549, Note_on_c, 0, 66, 42
2, 396549, Note_on_c, 0, 63, 43
2, 396553, Note_on_c, 0, 69, 53
2, 396573, Note_on_c, 0, 78, 0
2, 396593, Note_on_c, 0, 69, 0
2, 396609, Note_on_c, 0, 60, 0
2, 396609, Note_on_c, 0, 66, 0
2, 396621, Note_on_c, 0, 63, 0
2, 396741, Note_on_c, 0, 75, 80
2, 396741, Note_on_c, 0, 66, 56
2, 396745, Note_on_c, 0, 63, 46
2, 396769, Note_on_c, 0, 66, 0
2, 396777, Note_on_c, 0, 63, 0
2, 396853, Note_on_c, 0, 75, 0
2, 396981, Note_on_c, 0, 69, 88
2, 396981, Control_c, 0, 64, 88
2, 396989, Note_on_c, 0, 57, 69
2, 396993, Control_c, 0, 64, 24
2, 396997, Note_on_c, 0, 50, 70
2, 397009, Control_c, 0, 64, 0
2, 397021, Note_on_c, 0, 57, 0
2, 397025, Note_on_c, 0, 50, 0
2, 397025, Control_c, 0, 64, 24
2, 397037, Control_c, 0, 64, 72
2, 397049, Control_c, 0, 64, 127
2, 397073, Note_on_c, 0, 69, 0
2, 397089, Note_on_c, 0, 75, 90
2, 397173, Note_on_c, 0, 75, 0
2, 397189, Note_on_c, 0, 66, 48
2, 397193, Note_on_c, 0, 69, 50
2, 397197, Note_on_c, 0, 63, 40
2, 397201, Note_on_c, 0, 72, 96
2, 397209, Note_on_c, 0, 60, 48
2, 397245, Note_on_c, 0, 60, 0
2, 397265, Note_on_c, 0, 66, 0
2, 397273, Note_on_c, 0, 72, 0
2, 397273, Note_on_c, 0, 63, 0
2, 397285, Note_on_c, 0, 69, 0
2, 397293, Note_on_c, 0, 71, 92
2, 397385, Note_on_c, 0, 72, 99
2, 397393, Note_on_c, 0, 71, 0
2, 397401, Note_on_c, 0, 63, 52
2, 397405, Note_on_c, 0, 69, 64
2, 397405, Note_on_c, 0, 66, 50
2, 397405, Note_on_c, 0, 60, 60
2, 397461, Note_on_c, 0, 66, 0
2, 397469, Note_on_c, 0, 69, 0
2, 397469, Note_on_c, 0, 63, 0
2, 397473, Note_on_c, 0, 60, 0
2, 397481, Note_on_c, 0, 81, 92
2, 397485, Note_on_c, 0, 72, 0
2, 397573, Note_on_c, 0, 79, 83
2, 397593, Note_on_c, 0, 60, 66
2, 397597, Note_on_c, 0, 66, 53
2, 397597, Note_on_c, 0, 63, 50
2, 397601, Note_on_c, 0, 81, 0
2, 397601, Note_on_c, 0, 69, 64
2, 397657, Note_on_c, 0, 69, 0
2, 397657, Note_on_c, 0, 66, 0
2, 397669, Note_on_c, 0, 60, 0
2, 397673, Note_on_c, 0, 63, 0
2, 397777, Note_on_c, 0, 79, 0
2, 397785, Note_on_c, 0, 78, 93
2, 397809, Note_on_c, 0, 69, 78
2, 397809, Note_on_c, 0, 66, 63
2, 397809, Note_on_c, 0, 63, 53
2, 397813, Note_on_c, 0, 60, 57
2, 397845, Note_on_c, 0, 60, 0
2, 397845, Note_on_c, 0, 78, 0
2, 397857, Note_on_c, 0, 69, 0
2, 397857, Note_on_c, 0, 66, 0
2, 397877, Note_on_c, 0, 63, 0
2, 397949, Note_on_c, 0, 84, 85
2, 398005, Note_on_c, 0, 69, 49
2, 398009, Note_on_c, 0, 66, 43
2, 398009, Note_on_c, 0, 63, 47
2, 398021, Note_on_c, 0, 60, 33
2, 398029, Note_on_c, 0, 66, 0
2, 398029, Note_on_c, 0, 69, 0
2, 398037, Note_on_c, 0, 63, 0
2, 398037, Note_on_c, 0, 96, 110
2, 398049, Note_on_c, 0, 60, 0
2, 398217, Control_c, 0, 64, 104
2, 398229, Control_c, 0, 64, 0
2, 398237, Note_on_c, 0, 50, 89
2, 398285, Note_on_c, 0, 50, 0
2, 398301, Control_c, 0, 64, 56
2, 398317, Control_c, 0, 64, 127
2, 398333, Note_on_c, 0, 96, 0
2, 398341, Note_on_c, 0, 84, 0
2, 398369, Note_on_c, 0, 94, 85
2, 398485, Note_on_c, 0, 91, 90
2, 398501, Note_on_c, 0, 58, 57
2, 398501, Note_on_c, 0, 62, 67
2, 398509, Note_on_c, 0, 67, 61
2, 398561, Note_on_c, 0, 67, 0
2, 398565, Note_on_c, 0, 62, 0
2, 398573, Note_on_c, 0, 58, 0
2, 398573, Note_on_c, 0, 94, 0
2, 398581, Note_on_c, 0, 86, 82
2, 398589, Note_on_c, 0, 91, 0
2, 398629, Note_on_c, 0, 86, 0
2, 398685, Note_on_c, 0, 84, 97
2, 398697, Note_on_c, 0, 58, 44
2, 398701, Note_on_c, 0, 62, 62
2, 398701, Note_on_c, 0, 67, 63
2, 398765, Note_on_c, 0, 67, 0
2, 398769, Note_on_c, 0, 62, 0
2, 398777, Note_on_c, 0, 58, 0
2, 398881, Note_on_c, 0, 58, 55
2, 398885, Note_on_c, 0, 62, 59
2, 398889, Note_on_c, 0, 67, 63
2, 398945, Note_on_c, 0, 84, 0
2, 398953, Note_on_c, 0, 62, 0
2, 398961, Note_on_c, 0, 67, 0
2, 398981, Note_on_c, 0, 82, 82
2, 398997, Note_on_c, 0, 58, 0
2, 399077, Note_on_c, 0, 82, 0
2, 399077, Note_on_c, 0, 58, 50
2, 399085, Note_on_c, 0, 67, 66
2, 399085, Note_on_c, 0, 62, 65
2, 399089, Note_on_c, 0, 79, 88
2, 399109, Note_on_c, 0, 67, 0
2, 399113, Note_on_c, 0, 62, 0
2, 399141, Note_on_c, 0, 58, 0
2, 399173, Note_on_c, 0, 79, 0
2, 399189, Note_on_c, 0, 74, 82
2, 399249, Note_on_c, 0, 74, 0
2, 399297, Note_on_c, 0, 72, 90
2, 399305, Note_on_c, 0, 52, 68
2, 399361, Note_on_c, 0, 52, 0
2, 399361, Note_on_c, 0, 72, 0
2, 399397, Note_on_c, 0, 70, 77
2, 399481, Note_on_c, 0, 70, 0
2, 399481, Control_c, 0, 64, 56
2, 399493, Control_c, 0, 64, 0
2, 399513, Note_on_c, 0, 69, 83
2, 399521, Note_on_c, 0, 53, 63
2, 399581, Control_c, 0, 64, 56
2, 399593, Control_c, 0, 64, 127
2, 399597, Note_on_c, 0, 69, 0
2, 399617, Note_on_c, 0, 75, 83
2, 399681, Control_c, 0, 64, 72
2, 399693, Control_c, 0, 64, 24
2, 399705, Note_on_c, 0, 75, 0
2, 399737, Note_on_c, 0, 63, 38
2, 399737, Control_c, 0, 64, 56
2, 399741, Note_on_c, 0, 65, 42
2, 399745, Note_on_c, 0, 72, 80
2, 399753, Control_c, 0, 64, 88
2, 399761, Note_on_c, 0, 57, 44
2, 399765, Control_c, 0, 64, 127
2, 399785, Note_on_c, 0, 65, 0
2, 399793, Note_on_c, 0, 72, 0
2, 399805, Note_on_c, 0, 57, 0
2, 399805, Note_on_c, 0, 63, 0
2, 399845, Note_on_c, 0, 71, 82
2, 399877, Control_c, 0, 64, 56
2, 399893, Control_c, 0, 64, 0
2, 399921, Note_on_c, 0, 71, 0
2, 399953, Note_on_c, 0, 72, 86
2, 399957, Note_on_c, 0, 65, 57
2, 399961, Note_on_c, 0, 63, 48
2, 399961, Control_c, 0, 64, 88
2, 399965, Note_on_c, 0, 57, 40
2, 399977, Control_c, 0, 64, 127
2, 399989, Note_on_c, 0, 65, 0
2, 399997, Note_on_c, 0, 63, 0
2, 399997, Note_on_c, 0, 57, 0
2, 400009, Note_on_c, 0, 72, 0
2, 400029, Note_on_c, 0, 53, 0
2, 400057, Note_on_c, 0, 81, 82
2, 400153, Note_on_c, 0, 81, 0
2, 400197, Note_on_c, 0, 79, 75
2, 400205, Control_c, 0, 64, 88
2, 400217, Control_c, 0, 64, 0
2, 400221, Note_on_c, 0, 46, 58
2, 400293, Note_on_c, 0, 46, 0
2, 400305, Control_c, 0, 64, 127
2, 400477, Note_on_c, 0, 79, 0
2, 400485, Note_on_c, 0, 77, 80
2, 400505, Note_on_c, 0, 53, 50
2, 400505, Note_on_c, 0, 58, 30
2, 400505, Control_c, 0, 64, 40
2, 400509, Note_on_c, 0, 62, 41
2, 400517, Control_c, 0, 64, 0
2, 400545, Control_c, 0, 64, 40
2, 400561, Control_c, 0, 64, 104
2, 400573, Note_on_c, 0, 62, 0
2, 400573, Control_c, 0, 64, 127
2, 400585, Note_on_c, 0, 58, 0
2, 400589, Note_on_c, 0, 53, 0
2, 400621, Note_on_c, 0, 77, 0
2, 400789, Note_on_c, 0, 62, 53
2, 400789, Note_on_c, 0, 58, 33
2, 400793, Note_on_c, 0, 53, 49
2, 400821, Note_on_c, 0, 62, 0
2, 400829, Note_on_c, 0, 58, 0
2, 400837, Note_on_c, 0, 53, 0
2, 401013, Control_c, 0, 64, 104
2, 401029, Control_c, 0, 64, 24
2, 401037, Note_on_c, 0, 63, 63
2, 401037, Note_on_c, 0, 51, 61
2, 401041, Control_c, 0, 64, 0
2, 401085, Control_c, 0, 64, 40
2, 401101, Control_c, 0, 64, 88
2, 401113, Note_on_c, 0, 63, 0
2, 401113, Control_c, 0, 64, 127
2, 401133, Note_on_c, 0, 51, 0
2, 401153, Note_on_c, 0, 65, 70
2, 401173, Note_on_c, 0, 53, 59
2, 401229, Note_on_c, 0, 53, 0
2, 401245, Note_on_c, 0, 65, 0
2, 401269, Control_c, 0, 64, 104
2, 401285, Control_c, 0, 64, 24
2, 401293, Note_on_c, 0, 75, 78
2, 401297, Note_on_c, 0, 54, 67
2, 401297, Control_c, 0, 64, 0
2, 401301, Note_on_c, 0, 46, 59
2, 401301, Note_on_c, 0, 66, 64
2, 401341, Control_c, 0, 64, 40
2, 401353, Control_c, 0, 64, 88
2, 401357, Note_on_c, 0, 66, 0
2, 401365, Note_on_c, 0, 54, 0
2, 401369, Control_c, 0, 64, 127
2, 401393, Note_on_c, 0, 75, 0
2, 401409, Note_on_c, 0, 55, 63
2, 401409, Note_on_c, 0, 67, 79
2, 401429, Note_on_c, 0, 46, 0
2, 401477, Note_on_c, 0, 67, 0
2, 401477, Note_on_c, 0, 55, 0
2, 401509, Note_on_c, 0, 56, 50
2, 401513, Note_on_c, 0, 68, 60
2, 401573, Note_on_c, 0, 56, 0
2, 401581, Note_on_c, 0, 68, 0
2, 401609, Note_on_c, 0, 74, 81
2, 401625, Note_on_c, 0, 57, 53
2, 401657, Note_on_c, 0, 57, 0
2, 401693, Note_on_c, 0, 74, 0
2, 401725, Control_c, 0, 64, 88
2, 401737, Control_c, 0, 64, 0
2, 401753, Note_on_c, 0, 72, 83
2, 401761, Note_on_c, 0, 69, 60
2, 401769, Note_on_c, 0, 46, 60
2, 401785, Note_on_c, 0, 69, 0
2, 401825, Control_c, 0, 64, 72
2, 401829, Note_on_c, 0, 46, 0
2, 401837, Control_c, 0, 64, 127
2, 401989, Note_on_c, 0, 72, 0
2, 402017, Note_on_c, 0, 70, 62
2, 402021, Control_c, 0, 64, 88
2, 402033, Note_on_c, 0, 53, 53
2, 402037, Control_c, 0, 64, 0
2, 402045, Note_on_c, 0, 62, 36
2, 402045, Note_on_c, 0, 58, 31
2, 402093, Control_c, 0, 64, 56
2, 402105, Note_on_c, 0, 62, 0
2, 402109, Control_c, 0, 64, 127
2, 402113, Note_on_c, 0, 53, 0
2, 402125, Note_on_c, 0, 58, 0
2, 402261, Note_on_c, 0, 70, 0
2, 402285, Note_on_c, 0, 58, 42
2, 402293, Note_on_c, 0, 62, 24
2, 402313, Note_on_c, 0, 58, 0
2, 402317, Note_on_c, 0, 62, 0
2, 402477, Control_c, 0, 64, 88
2, 402493, Control_c, 0, 64, 0
2, 402505, Note_on_c, 0, 69, 75
2, 402505, Note_on_c, 0, 46, 62
2, 402549, Control_c, 0, 64, 40
2, 402561, Note_on_c, 0, 46, 0
2, 402565, Control_c, 0, 64, 127
2, 402577, Note_on_c, 0, 69, 0
2, 402609, Note_on_c, 0, 75, 79
2, 402689, Note_on_c, 0, 75, 0
2, 402717, Note_on_c, 0, 72, 84
2, 402721, Note_on_c, 0, 63, 43
2, 402733, Note_on_c, 0, 57, 42
2, 402765, Note_on_c, 0, 57, 0
2, 402769, Note_on_c, 0, 72, 0
2, 402781, Note_on_c, 0, 63, 0
2, 402817, Note_on_c, 0, 71, 78
2, 402889, Note_on_c, 0, 71, 0
2, 402909, Note_on_c, 0, 72, 87
2, 402925, Note_on_c, 0, 63, 48
2, 402925, Note_on_c, 0, 57, 56
2, 402941, Note_on_c, 0, 53, 36
2, 402953, Note_on_c, 0, 57, 0
2, 402957, Note_on_c, 0, 63, 0
2, 402973, Note_on_c, 0, 72, 0
2, 402977, Note_on_c, 0, 53, 0
2, 403017, Note_on_c, 0, 81, 83
2, 403109, Note_on_c, 0, 81, 0
2, 403137, Note_on_c, 0, 79, 76
2, 403161, Control_c, 0, 64, 24
2, 403173, Control_c, 0, 64, 0
2, 403177, Note_on_c, 0, 46, 61
2, 403237, Note_on_c, 0, 46, 0
2, 403257, Control_c, 0, 64, 104
2, 403273, Control_c, 0, 64, 127
2, 403401, Note_on_c, 0, 77, 88
2, 403413, Note_on_c, 0, 79, 0
2, 403433, Note_on_c, 0, 62, 41
2, 403433, Note_on_c, 0, 58, 34
2, 403441, Note_on_c, 0, 53, 37
2, 403473, Note_on_c, 0, 62, 0
2, 403477, Note_on_c, 0, 77, 0
2, 403481, Note_on_c, 0, 58, 0
2, 403485, Note_on_c, 0, 53, 0
2, 403625, Note_on_c, 0, 62, 58
2, 403629, Note_on_c, 0, 53, 52
2, 403629, Note_on_c, 0, 58, 37
2, 403653, Note_on_c, 0, 62, 0
2, 403661, Note_on_c, 0, 58, 0
2, 403669, Note_on_c, 0, 53, 0
2, 403813, Control_c, 0, 64, 24
2, 403829, Control_c, 0, 64, 0
2, 403837, Note_on_c, 0, 63, 68
2, 403841, Note_on_c, 0, 51, 65
2, 403885, Control_c, 0, 64, 40
2, 403897, Control_c, 0, 64, 88
2, 403901, Note_on_c, 0, 51, 0
2, 403905, Note_on_c, 0, 63, 0
2, 403913, Control_c, 0, 64, 127
2, 403941, Note_on_c, 0, 65, 70
2, 403949, Note_on_c, 0, 53, 60
2, 404001, Note_on_c, 0, 53, 0
2, 404013, Control_c, 0, 64, 88
2, 404025, Note_on_c, 0, 65, 0
2, 404025, Control_c, 0, 64, 0
2, 404057, Note_on_c, 0, 75, 80
2, 404073, Note_on_c, 0, 66, 62
2, 404073, Note_on_c, 0, 54, 64
2, 404081, Note_on_c, 0, 46, 46
2, 404097, Control_c, 0, 64, 56
2, 404113, Control_c, 0, 64, 127
2, 404125, Note_on_c, 0, 66, 0
2, 404137, Note_on_c, 0, 54, 0
2, 404157, Note_on_c, 0, 46, 0
2, 404173, Note_on_c, 0, 67, 76
2, 404173, Note_on_c, 0, 55, 63
2, 404181, Note_on_c, 0, 75, 0
2, 404241, Note_on_c, 0, 55, 0
2, 404253, Note_on_c, 0, 67, 0
2, 404265, Note_on_c, 0, 56, 53
2, 404289, Note_on_c, 0, 68, 56
2, 404341, Note_on_c, 0, 56, 0
2, 404365, Note_on_c, 0, 68, 0
2, 404393, Note_on_c, 0, 74, 74
2, 404401, Note_on_c, 0, 57, 46
2, 404401, Note_on_c, 0, 50, 41
2, 404449, Note_on_c, 0, 50, 0
2, 404449, Note_on_c, 0, 57, 0
2, 404477, Note_on_c, 0, 74, 0
2, 404525, Control_c, 0, 64, 56
2, 404537, Control_c, 0, 64, 0
2, 404541, Note_on_c, 0, 72, 77
2, 404553, Note_on_c, 0, 43, 62
2, 404565, Note_on_c, 0, 69, 33
2, 404601, Note_on_c, 0, 69, 0
2, 404601, Note_on_c, 0, 43, 0
2, 404621, Control_c, 0, 64, 72
2, 404637, Control_c, 0, 64, 127
2, 404801, Note_on_c, 0, 72, 0
2, 404809, Note_on_c, 0, 70, 67
2, 404809, Control_c, 0, 64, 56
2, 404821, Control_c, 0, 64, 0
2, 404825, Note_on_c, 0, 50, 46
2, 404829, Note_on_c, 0, 58, 52
2, 404865, Control_c, 0, 64, 40
2, 404877, Control_c, 0, 64, 88
2, 404893, Control_c, 0, 64, 127
2, 404909, Note_on_c, 0, 50, 0
2, 404925, Note_on_c, 0, 58, 0
2, 405065, Note_on_c, 0, 58, 49
2, 405077, Note_on_c, 0, 70, 0
2, 405089, Note_on_c, 0, 50, 42
2, 405121, Note_on_c, 0, 50, 0
2, 405125, Note_on_c, 0, 58, 0
2, 405305, Control_c, 0, 64, 88
2, 405317, Control_c, 0, 64, 0
2, 405341, Note_on_c, 0, 63, 58
2, 405357, Note_on_c, 0, 48, 63
2, 405389, Control_c, 0, 64, 40
2, 405401, Control_c, 0, 64, 104
2, 405409, Note_on_c, 0, 63, 0
2, 405417, Control_c, 0, 64, 127
2, 405457, Note_on_c, 0, 65, 63
2, 405521, Note_on_c, 0, 65, 0
2, 405545, Control_c, 0, 64, 104
2, 405561, Control_c, 0, 64, 56
2, 405569, Note_on_c, 0, 75, 81
2, 405577, Note_on_c, 0, 60, 57
2, 405585, Note_on_c, 0, 66, 61
2, 405589, Control_c, 0, 64, 88
2, 405601, Control_c, 0, 64, 127
2, 405637, Note_on_c, 0, 66, 0
2, 405681, Note_on_c, 0, 75, 0
2, 405697, Note_on_c, 0, 67, 66
2, 405789, Note_on_c, 0, 48, 0
2, 405801, Note_on_c, 0, 55, 55
2, 405813, Note_on_c, 0, 68, 62
2, 405821, Note_on_c, 0, 67, 0
2, 405917, Note_on_c, 0, 68, 0
2, 405917, Note_on_c, 0, 74, 87
2, 405993, Note_on_c, 0, 60, 0
2, 406021, Note_on_c, 0, 55, 0
2, 406037, Note_on_c, 0, 74, 0
2, 406069, Control_c, 0, 64, 56
2, 406073, Note_on_c, 0, 50, 48
2, 406081, Note_on_c, 0, 72, 89
2, 406085, Control_c, 0, 64, 0
2, 406157, Control_c, 0, 64, 56
2, 406173, Control_c, 0, 64, 127
2, 406209, Note_on_c, 0, 72, 0
2, 406209, Note_on_c, 0, 68, 69
2, 406285, Note_on_c, 0, 68, 0
2, 406313, Control_c, 0, 64, 104
2, 406325, Control_c, 0, 64, 0
2, 406333, Note_on_c, 0, 71, 77
2, 406337, Note_on_c, 0, 59, 45
2, 406361, Note_on_c, 0, 67, 54
2, 406397, Control_c, 0, 64, 72
2, 406401, Note_on_c, 0, 67, 0
2, 406413, Control_c, 0, 64, 127
2, 406437, Note_on_c, 0, 71, 0
2, 406453, Note_on_c, 0, 65, 70
2, 406517, Note_on_c, 0, 65, 0
2, 406537, Note_on_c, 0, 59, 0
2, 406565, Note_on_c, 0, 63, 53
2, 406573, Note_on_c, 0, 50, 0
2, 406581, Note_on_c, 0, 55, 44
2, 406637, Note_on_c, 0, 63, 0
2, 406677, Note_on_c, 0, 62, 60
2, 406753, Note_on_c, 0, 62, 0
2, 406753, Control_c, 0, 64, 40
2, 406765, Control_c, 0, 64, 0
2, 406789, Note_on_c, 0, 55, 0
2, 406797, Note_on_c, 0, 63, 65
2, 406805, Note_on_c, 0, 48, 54
2, 406821, Control_c, 0, 64, 40
2, 406837, Control_c, 0, 64, 104
2, 406853, Control_c, 0, 64, 127
2, 406861, Note_on_c, 0, 63, 0
2, 406901, Note_on_c, 0, 65, 82
2, 406981, Note_on_c, 0, 65, 0
2, 407017, Note_on_c, 0, 75, 86
2, 407029, Note_on_c, 0, 60, 59
2, 407037, Note_on_c, 0, 66, 62
2, 407077, Note_on_c, 0, 48, 0
2, 407121, Note_on_c, 0, 66, 0
2, 407141, Note_on_c, 0, 67, 69
2, 407181, Note_on_c, 0, 75, 0
2, 407233, Note_on_c, 0, 55, 40
2, 407237, Note_on_c, 0, 68, 72
2, 407249, Note_on_c, 0, 67, 0
2, 407345, Note_on_c, 0, 74, 85
2, 407353, Note_on_c, 0, 68, 0
2, 407353, Note_on_c, 0, 55, 0
2, 407413, Note_on_c, 0, 60, 0
2, 407433, Note_on_c, 0, 74, 0
2, 407461, Control_c, 0, 64, 72
2, 407473, Note_on_c, 0, 58, 54
2, 407477, Control_c, 0, 64, 0
2, 407481, Note_on_c, 0, 72, 88
2, 407485, Note_on_c, 0, 50, 53
2, 407489, Note_on_c, 0, 68, 49
2, 407549, Control_c, 0, 64, 40
2, 407561, Control_c, 0, 64, 104
2, 407573, Note_on_c, 0, 50, 0
2, 407577, Note_on_c, 0, 58, 0
2, 407577, Control_c, 0, 64, 127
2, 407601, Note_on_c, 0, 60, 79
2, 407653, Note_on_c, 0, 68, 0
2, 407689, Note_on_c, 0, 60, 0
2, 407697, Note_on_c, 0, 72, 0
2, 407721, Note_on_c, 0, 62, 59
2, 407725, Note_on_c, 0, 70, 81
2, 407741, Note_on_c, 0, 68, 48
2, 407773, Note_on_c, 0, 68, 0
2, 407809, Note_on_c, 0, 62, 0
2, 407841, Note_on_c, 0, 63, 67
2, 407925, Note_on_c, 0, 63, 0
2, 407933, Note_on_c, 0, 70, 0
2, 407945, Note_on_c, 0, 65, 82
2, 407997, Note_on_c, 0, 65, 0
2, 408045, Note_on_c, 0, 66, 69
2, 408125, Note_on_c, 0, 66, 0
2, 408169, Note_on_c, 0, 67, 89
2, 408189, Control_c, 0, 64, 104
2, 408201, Control_c, 0, 64, 24
2, 408209, Note_on_c, 0, 51, 61
2, 408217, Control_c, 0, 64, 0
2, 408273, Control_c, 0, 64, 72
2, 408281, Note_on_c, 0, 51, 0
2, 408285, Note_on_c, 0, 68, 79
2, 408285, Control_c, 0, 64, 127
2, 408293, Note_on_c, 0, 67, 0
2, 408357, Note_on_c, 0, 68, 0
2, 408417, Note_on_c, 0, 79, 100
2, 408417, Note_on_c, 0, 67, 58
2, 408421, Note_on_c, 0, 69, 81
2, 408477, Note_on_c, 0, 69, 0
2, 408529, Note_on_c, 0, 70, 69
2, 408593, Note_on_c, 0, 79, 0
2, 408613, Note_on_c, 0, 70, 0
2, 408633, Note_on_c, 0, 57, 60
2, 408645, Note_on_c, 0, 67, 0
2, 408645, Note_on_c, 0, 71, 78
2, 408677, Note_on_c, 0, 57, 0
2, 408725, Note_on_c, 0, 71, 0
2, 408757, Note_on_c, 0, 81, 93
2, 408845, Note_on_c, 0, 81, 0
2, 408885, Note_on_c, 0, 79, 94
2, 408893, Note_on_c, 0, 74, 81
2, 408897, Note_on_c, 0, 50, 70
2, 408897, Control_c, 0, 64, 104
2, 408913, Control_c, 0, 64, 0
2, 408949, Note_on_c, 0, 74, 0
2, 408997, Control_c, 0, 64, 88
2, 409001, Note_on_c, 0, 57, 63
2, 409013, Note_on_c, 0, 50, 0
2, 409013, Control_c, 0, 64, 127
2, 409057, Note_on_c, 0, 57, 0
2, 409105, Note_on_c, 0, 62, 66
2, 409173, Note_on_c, 0, 62, 0
2, 409221, Note_on_c, 0, 66, 70
2, 409325, Note_on_c, 0, 69, 70
2, 409333, Note_on_c, 0, 78, 95
2, 409365, Note_on_c, 0, 79, 0
2, 409401, Note_on_c, 0, 78, 0
2, 409417, Note_on_c, 0, 69, 0
2, 409441, Note_on_c, 0, 66, 0
2, 409449, Note_on_c, 0, 74, 55
2, 409497, Note_on_c, 0, 74, 0
2, 409577, Note_on_c, 0, 79, 99
2, 409577, Note_on_c, 0, 51, 53
2, 409581, Control_c, 0, 64, 56
2, 409593, Control_c, 0, 64, 0
2, 409625, Note_on_c, 0, 51, 0
2, 409637, Control_c, 0, 64, 127
2, 409653, Note_on_c, 0, 79, 0
2, 409681, Note_on_c, 0, 80, 93
2, 409745, Note_on_c, 0, 80, 0
2, 409793, Note_on_c, 0, 81, 90
2, 409797, Note_on_c, 0, 79, 74
2, 409813, Note_on_c, 0, 91, 93
2, 409849, Note_on_c, 0, 81, 0
2, 409869, Note_on_c, 0, 91, 0
2, 409917, Note_on_c, 0, 82, 86
2, 409921, Note_on_c, 0, 91, 70
2, 409981, Note_on_c, 0, 82, 0
2, 410013, Note_on_c, 0, 91, 0
2, 410033, Note_on_c, 0, 84, 68
2, 410037, Note_on_c, 0, 69, 81
2, 410041, Note_on_c, 0, 83, 74
2, 410057, Note_on_c, 0, 79, 0
2, 410085, Note_on_c, 0, 83, 0
2, 410085, Note_on_c, 0, 69, 0
2, 410093, Note_on_c, 0, 84, 0
2, 410137, Note_on_c, 0, 93, 105
2, 410221, Note_on_c, 0, 93, 0
2, 410265, Note_on_c, 0, 91, 99
2, 410269, Note_on_c, 0, 86, 88
2, 410285, Note_on_c, 0, 62, 77
2, 410289, Control_c, 0, 64, 56
2, 410305, Control_c, 0, 64, 0
2, 410313, Note_on_c, 0, 86, 0
2, 410373, Control_c, 0, 64, 104
2, 410385, Note_on_c, 0, 69, 73
2, 410389, Control_c, 0, 64, 127
2, 410397, Note_on_c, 0, 62, 0
2, 410469, Note_on_c, 0, 69, 0
2, 410505, Note_on_c, 0, 74, 84
2, 410585, Note_on_c, 0, 74, 0
2, 410629, Note_on_c, 0, 78, 84
2, 410725, Note_on_c, 0, 91, 0
2, 410761, Note_on_c, 0, 90, 95
2, 410761, Note_on_c, 0, 81, 72
2, 410841, Note_on_c, 0, 90, 0
2, 410877, Note_on_c, 0, 81, 0
2, 410913, Note_on_c, 0, 86, 86
2, 410937, Note_on_c, 0, 86, 0
2, 410961, Note_on_c, 0, 78, 0
2, 411209, Note_on_c, 0, 69, 102
2, 411209, Control_c, 0, 64, 40
2, 411229, Control_c, 0, 64, 0
2, 411249, Note_on_c, 0, 38, 80
2, 411277, Note_on_c, 0, 38, 0
2, 411285, Control_c, 0, 64, 72
2, 411297, Control_c, 0, 64, 127
2, 411321, Note_on_c, 0, 69, 0
2, 411357, Note_on_c, 0, 75, 89
2, 411441, Note_on_c, 0, 75, 0
2, 411481, Note_on_c, 0, 72, 103
2, 411505, Note_on_c, 0, 66, 40
2, 411509, Note_on_c, 0, 69, 64
2, 411513, Note_on_c, 0, 63, 34
2, 411529, Note_on_c, 0, 66, 0
2, 411553, Note_on_c, 0, 72, 0
2, 411573, Note_on_c, 0, 69, 0
2, 411581, Note_on_c, 0, 71, 92
2, 411585, Note_on_c, 0, 63, 0
2, 411673, Note_on_c, 0, 72, 100
2, 411685, Note_on_c, 0, 71, 0
2, 411697, Note_on_c, 0, 69, 64
2, 411697, Note_on_c, 0, 63, 46
2, 411717, Note_on_c, 0, 60, 35
2, 411717, Note_on_c, 0, 66, 31
2, 411745, Note_on_c, 0, 66, 0
2, 411749, Note_on_c, 0, 60, 0
2, 411757, Note_on_c, 0, 69, 0
2, 411761, Note_on_c, 0, 63, 0
2, 411777, Note_on_c, 0, 72, 0
2, 411777, Note_on_c, 0, 81, 92
2, 411877, Note_on_c, 0, 79, 85
2, 411881, Note_on_c, 0, 63, 60
2, 411885, Note_on_c, 0, 69, 78
2, 411889, Note_on_c, 0, 60, 62
2, 411897, Note_on_c, 0, 66, 43
2, 411905, Note_on_c, 0, 81, 0
2, 411921, Note_on_c, 0, 60, 0
2, 411921, Note_on_c, 0, 66, 0
2, 411937, Note_on_c, 0, 63, 0
2, 411941, Note_on_c, 0, 69, 0
2, 412061, Note_on_c, 0, 79, 0
2, 412089, Note_on_c, 0, 78, 96
2, 412113, Note_on_c, 0, 69, 74
2, 412113, Note_on_c, 0, 66, 54
2, 412113, Note_on_c, 0, 63, 56
2, 412121, Note_on_c, 0, 60, 53
2, 412153, Note_on_c, 0, 60, 0
2, 412157, Note_on_c, 0, 78, 0
2, 412157, Note_on_c, 0, 66, 0
2, 412157, Note_on_c, 0, 69, 0
2, 412173, Note_on_c, 0, 63, 0
2, 412301, Note_on_c, 0, 63, 57
2, 412301, Note_on_c, 0, 69, 66
2, 412305, Note_on_c, 0, 66, 42
2, 412313, Note_on_c, 0, 75, 79
2, 412325, Note_on_c, 0, 69, 0
2, 412333, Note_on_c, 0, 66, 0
2, 412349, Note_on_c, 0, 63, 0
2, 412485, Note_on_c, 0, 75, 0
2, 412517, Note_on_c, 0, 57, 83
2, 412517, Note_on_c, 0, 50, 84
2, 412521, Control_c, 0, 64, 40
2, 412529, Note_on_c, 0, 69, 86
2, 412533, Control_c, 0, 64, 0
2, 412561, Note_on_c, 0, 57, 0
2, 412569, Note_on_c, 0, 50, 0
2, 412573, Control_c, 0, 64, 88
2, 412593, Control_c, 0, 64, 127
2, 412633, Note_on_c, 0, 75, 87
2, 412637, Note_on_c, 0, 69, 0
2, 412725, Note_on_c, 0, 63, 56
2, 412725, Note_on_c, 0, 66, 54
2, 412729, Note_on_c, 0, 75, 0
2, 412729, Note_on_c, 0, 69, 59
2, 412733, Note_on_c, 0, 72, 97
2, 412741, Note_on_c, 0, 60, 56
2, 412769, Note_on_c, 0, 60, 0
2, 412789, Note_on_c, 0, 66, 0
2, 412801, Note_on_c, 0, 69, 0
2, 412805, Note_on_c, 0, 63, 0
2, 412809, Note_on_c, 0, 72, 0
2, 412817, Note_on_c, 0, 71, 89
2, 412905, Note_on_c, 0, 72, 94
2, 412917, Note_on_c, 0, 71, 0
2, 412945, Note_on_c, 0, 63, 55
2, 412949, Note_on_c, 0, 69, 70
2, 412953, Note_on_c, 0, 66, 40
2, 412957, Note_on_c, 0, 60, 50
2, 412969, Note_on_c, 0, 72, 0
2, 412985, Note_on_c, 0, 66, 0
2, 412989, Note_on_c, 0, 60, 0
2, 413001, Note_on_c, 0, 69, 0
2, 413001, Note_on_c, 0, 81, 89
2, 413009, Note_on_c, 0, 63, 0
2, 413097, Note_on_c, 0, 79, 90
2, 413117, Note_on_c, 0, 81, 0
2, 413129, Note_on_c, 0, 69, 78
2, 413129, Note_on_c, 0, 66, 56
2, 413129, Note_on_c, 0, 63, 56
2, 413133, Note_on_c, 0, 60, 57
2, 413165, Note_on_c, 0, 60, 0
2, 413177, Note_on_c, 0, 66, 0
2, 413185, Note_on_c, 0, 69, 0
2, 413189, Note_on_c, 0, 63, 0
2, 413297, Note_on_c, 0, 79, 0
2, 413313, Note_on_c, 0, 78, 92
2, 413333, Note_on_c, 0, 66, 60
2, 413333, Note_on_c, 0, 69, 74
2, 413333, Note_on_c, 0, 63, 58
2, 413341, Note_on_c, 0, 60, 58
2, 413385, Note_on_c, 0, 66, 0
2, 413389, Note_on_c, 0, 78, 0
2, 413389, Note_on_c, 0, 69, 0
2, 413401, Note_on_c, 0, 60, 0
2, 413405, Note_on_c, 0, 63, 0
2, 413513, Note_on_c, 0, 75, 81
2, 413513, Note_on_c, 0, 63, 64
2, 413517, Note_on_c, 0, 69, 70
2, 413517, Note_on_c, 0, 66, 47
2, 413525, Note_on_c, 0, 60, 56
2, 413541, Note_on_c, 0, 66, 0
2, 413541, Note_on_c, 0, 69, 0
2, 413545, Note_on_c, 0, 60, 0
2, 413557, Note_on_c, 0, 63, 0
2, 413593, Note_on_c, 0, 75, 0
2, 413713, Control_c, 0, 64, 88
2, 413729, Control_c, 0, 64, 0
2, 413733, Note_on_c, 0, 69, 93
2, 413733, Note_on_c, 0, 57, 70
2, 413745, Note_on_c, 0, 50, 68
2, 413765, Note_on_c, 0, 57, 0
2, 413769, Note_on_c, 0, 50, 0
2, 413785, Control_c, 0, 64, 72
2, 413797, Control_c, 0, 64, 127
2, 413805, Note_on_c, 0, 69, 0
2, 413829, Note_on_c, 0, 75, 95
2, 413941, Note_on_c, 0, 66, 44
2, 413941, Note_on_c, 0, 63, 39
2, 413945, Note_on_c, 0, 69, 57
2, 413961, Note_on_c, 0, 60, 42
2, 413989, Note_on_c, 0, 69, 0
2, 413993, Note_on_c, 0, 66, 0
2, 413993, Note_on_c, 0, 60, 0
2, 414001, Note_on_c, 0, 63, 0
2, 414113, Note_on_c, 0, 63, 56
2, 414121, Note_on_c, 0, 69, 69
2, 414125, Note_on_c, 0, 60, 59
2, 414125, Note_on_c, 0, 66, 40
2, 414157, Note_on_c, 0, 66, 0
2, 414157, Note_on_c, 0, 60, 0
2, 414161, Note_on_c, 0, 69, 0
2, 414173, Note_on_c, 0, 63, 0
2, 414253, Note_on_c, 0, 75, 0
2, 414293, Note_on_c, 0, 72, 99
2, 414301, Note_on_c, 0, 69, 73
2, 414305, Note_on_c, 0, 66, 53
2, 414305, Note_on_c, 0, 63, 48
2, 414317, Note_on_c, 0, 60, 49
2, 414337, Note_on_c, 0, 66, 0
2, 414345, Note_on_c, 0, 60, 0
2, 414345, Note_on_c, 0, 69, 0
2, 414353, Note_on_c, 0, 63, 0
2, 414377, Note_on_c, 0, 72, 0
2, 414381, Note_on_c, 0, 71, 89
2, 414481, Note_on_c, 0, 63, 59
2, 414485, Note_on_c, 0, 69, 78
2, 414485, Note_on_c, 0, 66, 58
2, 414489, Note_on_c, 0, 60, 63
2, 414505, Note_on_c, 0, 71, 0
2, 414517, Note_on_c, 0, 66, 0
2, 414517, Note_on_c, 0, 60, 0
2, 414517, Note_on_c, 0, 69, 0
2, 414537, Note_on_c, 0, 63, 0
2, 414649, Note_on_c, 0, 63, 59
2, 414657, Note_on_c, 0, 69, 73
2, 414657, Note_on_c, 0, 66, 43
2, 414665, Note_on_c, 0, 60, 52
2, 414685, Note_on_c, 0, 69, 0
2, 414689, Note_on_c, 0, 66, 0
2, 414701, Note_on_c, 0, 60, 0
2, 414705, Note_on_c, 0, 63, 0
2, 414821, Note_on_c, 0, 72, 90
2, 414833, Note_on_c, 0, 63, 49
2, 414837, Note_on_c, 0, 69, 74
2, 414837, Note_on_c, 0, 66, 46
2, 414849, Note_on_c, 0, 60, 49
2, 414865, Note_on_c, 0, 66, 0
2, 414865, Note_on_c, 0, 69, 0
2, 414873, Note_on_c, 0, 63, 0
2, 414877, Note_on_c, 0, 60, 0
2, 414905, Note_on_c, 0, 72, 0
2, 414917, Note_on_c, 0, 81, 102
2, 415001, Note_on_c, 0, 69, 80
2, 415001, Note_on_c, 0, 63, 54
2, 415005, Note_on_c, 0, 60, 72
2, 415009, Note_on_c, 0, 66, 50
2, 415033, Note_on_c, 0, 66, 0
2, 415045, Note_on_c, 0, 63, 0
2, 415045, Note_on_c, 0, 60, 0
2, 415053, Note_on_c, 0, 69, 0
2, 415153, Note_on_c, 0, 69, 74
2, 415157, Note_on_c, 0, 63, 44
2, 415161, Note_on_c, 0, 60, 60
2, 415161, Note_on_c, 0, 66, 37
2, 415181, Note_on_c, 0, 69, 0
2, 415185, Note_on_c, 0, 60, 0
2, 415185, Note_on_c, 0, 66, 0
2, 415189, Note_on_c, 0, 63, 0
2, 415197, Note_on_c, 0, 81, 0
2, 415325, Note_on_c, 0, 79, 100
2, 415345, Note_on_c, 0, 69, 82
2, 415345, Note_on_c, 0, 63, 56
2, 415349, Note_on_c, 0, 60, 75
2, 415349, Note_on_c, 0, 66, 55
2, 415373, Note_on_c, 0, 66, 0
2, 415385, Note_on_c, 0, 63, 0
2, 415385, Note_on_c, 0, 60, 0
2, 415385, Note_on_c, 0, 69, 0
2, 415417, Note_on_c, 0, 78, 102
2, 415445, Note_on_c, 0, 79, 0
2, 415521, Note_on_c, 0, 66, 57
2, 415521, Note_on_c, 0, 63, 56
2, 415521, Note_on_c, 0, 69, 75
2, 415525, Note_on_c, 0, 60, 62
2, 415541, Note_on_c, 0, 78, 0
2, 415557, Note_on_c, 0, 60, 0
2, 415561, Note_on_c, 0, 66, 0
2, 415561, Note_on_c, 0, 69, 0
2, 415573, Note_on_c, 0, 63, 0
2, 415677, Note_on_c, 0, 63, 67
2, 415681, Note_on_c, 0, 69, 69
2, 415681, Note_on_c, 0, 66, 38
2, 415681, Note_on_c, 0, 60, 55
2, 415701, Note_on_c, 0, 63, 0
2, 415705, Note_on_c, 0, 69, 0
2, 415709, Note_on_c, 0, 66, 0
2, 415729, Note_on_c, 0, 60, 0
2, 415873, Control_c, 0, 64, 104
2, 415877, Note_on_c, 0, 69, 100
2, 415877, Note_on_c, 0, 81, 102
2, 415885, Note_on_c, 0, 57, 71
2, 415889, Note_on_c, 0, 50, 76
2, 415889, Control_c, 0, 64, 0
2, 415913, Note_on_c, 0, 57, 0
2, 415921, Note_on_c, 0, 50, 0
2, 415937, Note_on_c, 0, 69, 0
2, 415945, Control_c, 0, 64, 56
2, 415957, Control_c, 0, 64, 127
2, 415981, Note_on_c, 0, 81, 0
2, 416049, Note_on_c, 0, 66, 65
2, 416053, Note_on_c, 0, 69, 69
2, 416057, Note_on_c, 0, 63, 57
2, 416073, Note_on_c, 0, 60, 40
2, 416077, Note_on_c, 0, 69, 0
2, 416085, Note_on_c, 0, 66, 0
2, 416085, Note_on_c, 0, 63, 0
2, 416105, Note_on_c, 0, 60, 0
2, 416201, Note_on_c, 0, 87, 105
2, 416205, Note_on_c, 0, 75, 100
2, 416209, Note_on_c, 0, 63, 69
2, 416217, Note_on_c, 0, 66, 56
2, 416217, Note_on_c, 0, 69, 73
2, 416221, Note_on_c, 0, 60, 66
2, 416241, Note_on_c, 0, 60, 0
2, 416241, Note_on_c, 0, 66, 0
2, 416245, Note_on_c, 0, 69, 0
2, 416261, Note_on_c, 0, 63, 0
2, 416269, Note_on_c, 0, 75, 0
2, 416301, Note_on_c, 0, 87, 0
2, 416357, Note_on_c, 0, 63, 58
2, 416361, Note_on_c, 0, 66, 57
2, 416365, Note_on_c, 0, 69, 74
2, 416377, Note_on_c, 0, 60, 42
2, 416381, Note_on_c, 0, 66, 0
2, 416389, Note_on_c, 0, 69, 0
2, 416393, Note_on_c, 0, 63, 0
2, 416405, Note_on_c, 0, 60, 0
2, 416501, Note_on_c, 0, 84, 103
2, 416501, Note_on_c, 0, 72, 96
2, 416513, Note_on_c, 0, 63, 57
2, 416517, Note_on_c, 0, 69, 77
2, 416517, Note_on_c, 0, 66, 52
2, 416521, Note_on_c, 0, 60, 52
2, 416541, Note_on_c, 0, 69, 0
2, 416545, Note_on_c, 0, 66, 0
2, 416549, Note_on_c, 0, 60, 0
2, 416557, Note_on_c, 0, 63, 0
2, 416577, Note_on_c, 0, 72, 0
2, 416609, Note_on_c, 0, 84, 0
2, 416645, Note_on_c, 0, 69, 79
2, 416649, Note_on_c, 0, 66, 46
2, 416649, Note_on_c, 0, 63, 46
2, 416657, Note_on_c, 0, 60, 53
2, 416665, Note_on_c, 0, 69, 0
2, 416669, Note_on_c, 0, 66, 0
2, 416677, Note_on_c, 0, 63, 0
2, 416681, Note_on_c, 0, 60, 0
2, 416773, Note_on_c, 0, 83, 100
2, 416773, Note_on_c, 0, 71, 89
2, 416781, Note_on_c, 0, 69, 81
2, 416781, Note_on_c, 0, 66, 55
2, 416785, Note_on_c, 0, 60, 63
2, 416785, Note_on_c, 0, 63, 44
2, 416805, Note_on_c, 0, 66, 0
2, 416805, Note_on_c, 0, 69, 0
2, 416813, Note_on_c, 0, 60, 0
2, 416813, Note_on_c, 0, 63, 0
2, 416825, Note_on_c, 0, 71, 0
2, 416853, Note_on_c, 0, 83, 0
2, 416909, Note_on_c, 0, 63, 54
2, 416913, Note_on_c, 0, 69, 76
2, 416917, Note_on_c, 0, 66, 44
2, 416917, Note_on_c, 0, 60, 54
2, 416937, Note_on_c, 0, 69, 0
2, 416937, Note_on_c, 0, 63, 0
2, 416941, Note_on_c, 0, 66, 0
2, 416941, Note_on_c, 0, 60, 0
2, 417029, Note_on_c, 0, 84, 103
2, 417029, Note_on_c, 0, 72, 97
2, 417041, Note_on_c, 0, 69, 82
2, 417041, Note_on_c, 0, 63, 56
2, 417045, Note_on_c, 0, 60, 68
2, 417049, Note_on_c, 0, 66, 50
2, 417065, Note_on_c, 0, 69, 0
2, 417069, Note_on_c, 0, 60, 0
2, 417069, Note_on_c, 0, 66, 0
2, 417073, Note_on_c, 0, 72, 0
2, 417073, Note_on_c, 0, 63, 0
2, 417105, Note_on_c, 0, 84, 0
2, 417169, Note_on_c, 0, 63, 60
2, 417173, Note_on_c, 0, 69, 82
2, 417177, Note_on_c, 0, 60, 61
2, 417177, Note_on_c, 0, 66, 47
2, 417193, Note_on_c, 0, 69, 0
2, 417201, Note_on_c, 0, 66, 0
2, 417201, Note_on_c, 0, 60, 0
2, 417205, Note_on_c, 0, 63, 0
2, 417289, Note_on_c, 0, 93, 112
2, 417293, Note_on_c, 0, 81, 96
2, 417309, Note_on_c, 0, 69, 92
2, 417309, Note_on_c, 0, 63, 73
2, 417317, Note_on_c, 0, 60, 74
2, 417317, Note_on_c, 0, 66, 64
2, 417337, Note_on_c, 0, 66, 0
2, 417337, Note_on_c, 0, 69, 0
2, 417341, Note_on_c, 0, 60, 0
2, 417345, Note_on_c, 0, 63, 0
2, 417345, Note_on_c, 0, 81, 0
2, 417357, Note_on_c, 0, 93, 0
2, 417433, Note_on_c, 0, 69, 93
2, 417433, Note_on_c, 0, 63, 69
2, 417437, Note_on_c, 0, 66, 61
2, 417441, Note_on_c, 0, 60, 70
2, 417461, Note_on_c, 0, 66, 0
2, 417461, Note_on_c, 0, 69, 0
2, 417465, Note_on_c, 0, 60, 0
2, 417469, Note_on_c, 0, 63, 0
2, 417561, Note_on_c, 0, 91, 109
2, 417565, Note_on_c, 0, 79, 105
2, 417569, Note_on_c, 0, 63, 71
2, 417573, Note_on_c, 0, 69, 92
2, 417573, Note_on_c, 0, 66, 69
2, 417577, Note_on_c, 0, 60, 74
2, 417593, Note_on_c, 0, 69, 0
2, 417597, Note_on_c, 0, 66, 0
2, 417601, Note_on_c, 0, 60, 0
2, 417613, Note_on_c, 0, 63, 0
2, 417617, Note_on_c, 0, 79, 0
2, 417625, Note_on_c, 0, 91, 0
2, 417689, Note_on_c, 0, 69, 90
2, 417689, Note_on_c, 0, 66, 63
2, 417693, Note_on_c, 0, 63, 64
2, 417697, Note_on_c, 0, 60, 70
2, 417717, Note_on_c, 0, 69, 0
2, 417721, Note_on_c, 0, 60, 0
2, 417729, Note_on_c, 0, 66, 0
2, 417737, Note_on_c, 0, 63, 0
2, 417825, Note_on_c, 0, 90, 106
2, 417829, Note_on_c, 0, 78, 102
2, 417833, Note_on_c, 0, 63, 67
2, 417833, Note_on_c, 0, 69, 88
2, 417841, Note_on_c, 0, 66, 60
2, 417841, Note_on_c, 0, 60, 72
2, 417861, Note_on_c, 0, 69, 0
2, 417865, Note_on_c, 0, 66, 0
2, 417865, Note_on_c, 0, 60, 0
2, 417873, Note_on_c, 0, 78, 0
2, 417881, Note_on_c, 0, 63, 0
2, 417893, Note_on_c, 0, 90, 0
2, 417973, Note_on_c, 0, 63, 61
2, 417977, Note_on_c, 0, 69, 78
2, 417977, Note_on_c, 0, 66, 56
2, 417977, Note_on_c, 0, 60, 55
2, 417997, Note_on_c, 0, 63, 0
2, 418001, Note_on_c, 0, 69, 0
2, 418001, Note_on_c, 0, 66, 0
2, 418025, Note_on_c, 0, 60, 0
2, 418473, Control_c, 0, 64, 104
2, 418489, Control_c, 0, 64, 88
2, 418501, Control_c, 0, 64, 56
2, 418517, Control_c, 0, 64, 40
2, 418529, Control_c, 0, 64, 0
2, 420097, Note_on_c, 0, 89, 84
2, 420169, Note_on_c, 0, 89, 0
2, 420173, Note_on_c, 0, 85, 86
2, 420217, Control_c, 0, 64, 56
2, 420225, Note_on_c, 0, 77, 24
2, 420229, Control_c, 0, 64, 88
2, 420245, Control_c, 0, 64, 127
2, 420257, Note_on_c, 0, 85, 0
2, 420381, Note_on_c, 0, 77, 0
2, 420413, Note_on_c, 0, 86, 84
2, 420481, Note_on_c, 0, 86, 0
2, 420481, Note_on_c, 0, 81, 72
2, 420481, Control_c, 0, 64, 72
2, 420493, Control_c, 0, 64, 0
2, 420497, Note_on_c, 0, 54, 60
2, 420525, Note_on_c, 0, 74, 39
2, 420581, Control_c, 0, 64, 40
2, 420593, Control_c, 0, 64, 88
2, 420601, Note_on_c, 0, 81, 0
2, 420609, Control_c, 0, 64, 127
2, 420669, Note_on_c, 0, 74, 0
2, 420725, Note_on_c, 0, 82, 77
2, 420789, Control_c, 0, 64, 104
2, 420793, Note_on_c, 0, 82, 0
2, 420793, Note_on_c, 0, 54, 0
2, 420797, Note_on_c, 0, 78, 76
2, 420801, Note_on_c, 0, 51, 54
2, 420805, Control_c, 0, 64, 24
2, 420813, Control_c, 0, 64, 0
2, 420817, Note_on_c, 0, 70, 56
2, 420825, Note_on_c, 0, 55, 58
2, 420881, Note_on_c, 0, 78, 0
2, 420901, Control_c, 0, 64, 56
2, 420913, Control_c, 0, 64, 88
2, 420929, Control_c, 0, 64, 127
2, 420937, Note_on_c, 0, 70, 0
2, 421045, Note_on_c, 0, 79, 76
2, 421109, Note_on_c, 0, 79, 0
2, 421109, Control_c, 0, 64, 72
2, 421117, Note_on_c, 0, 55, 0
2, 421121, Control_c, 0, 64, 0
2, 421125, Note_on_c, 0, 74, 71
2, 421137, Note_on_c, 0, 58, 57
2, 421145, Note_on_c, 0, 51, 0
2, 421157, Note_on_c, 0, 67, 38
2, 421221, Control_c, 0, 64, 24
2, 421233, Control_c, 0, 64, 56
2, 421249, Control_c, 0, 64, 88
2, 421261, Note_on_c, 0, 74, 0
2, 421261, Control_c, 0, 64, 104
2, 421277, Control_c, 0, 64, 127
2, 421317, Note_on_c, 0, 67, 0
2, 421365, Note_on_c, 0, 75, 67
2, 421421, Note_on_c, 0, 75, 0
2, 421457, Control_c, 0, 64, 88
2, 421469, Note_on_c, 0, 71, 68
2, 421473, Control_c, 0, 64, 40
2, 421485, Control_c, 0, 64, 0
2, 421497, Note_on_c, 0, 58, 0
2, 421497, Note_on_c, 0, 53, 40
2, 421501, Note_on_c, 0, 63, 40
2, 421505, Note_on_c, 0, 57, 52
2, 421573, Note_on_c, 0, 71, 0
2, 421585, Note_on_c, 0, 63, 0
2, 421585, Control_c, 0, 64, 40
2, 421597, Control_c, 0, 64, 88
2, 421613, Control_c, 0, 64, 104
2, 421625, Control_c, 0, 64, 127
2, 421785, Note_on_c, 0, 72, 62
2, 421813, Note_on_c, 0, 72, 0
2, 421873, Control_c, 0, 64, 104
2, 421881, Note_on_c, 0, 70, 58
2, 421885, Note_on_c, 0, 57, 0
2, 421889, Control_c, 0, 64, 88
2, 421901, Note_on_c, 0, 58, 49
2, 421905, Note_on_c, 0, 62, 47
2, 421905, Control_c, 0, 64, 56
2, 421917, Control_c, 0, 64, 0
2, 421925, Note_on_c, 0, 53, 0
2, 422057, Control_c, 0, 64, 40
2, 422069, Control_c, 0, 64, 104
2, 422085, Control_c, 0, 64, 127
2, 422101, Note_on_c, 0, 58, 0
2, 422329, Note_on_c, 0, 62, 0
2, 422365, Note_on_c, 0, 46, 45
2, 422365, Control_c, 0, 64, 104
2, 422377, Control_c, 0, 64, 56
2, 422393, Control_c, 0, 64, 24
2, 422433, Control_c, 0, 64, 72
2, 422449, Control_c, 0, 64, 127
2, 422457, Note_on_c, 0, 46, 0
2, 422465, Note_on_c, 0, 70, 0
2, 422921, Control_c, 0, 64, 104
2, 422937, Control_c, 0, 64, 88
2, 422949, Control_c, 0, 64, 72
2, 422965, Control_c, 0, 64, 56
2, 422977, Control_c, 0, 64, 40
2, 422993, Control_c, 0, 64, 0
2, 423121, Note_on_c, 0, 41, 56
2, 423153, Note_on_c, 0, 41, 0
2, 423157, Control_c, 0, 64, 56
2, 423173, Control_c, 0, 64, 127
2, 423313, Control_c, 0, 64, 104
2, 423325, Control_c, 0, 64, 56
2, 423341, Control_c, 0, 64, 0
2, 423369, Note_on_c, 0, 69, 74
2, 423437, Note_on_c, 0, 63, 77
2, 423441, Note_on_c, 0, 69, 0
2, 423457, Note_on_c, 0, 57, 56
2, 423497, Note_on_c, 0, 63, 0
2, 423685, Note_on_c, 0, 72, 77
2, 423737, Note_on_c, 0, 48, 60
2, 423753, Note_on_c, 0, 72, 0
2, 423753, Note_on_c, 0, 71, 83
2, 423777, Note_on_c, 0, 57, 0
2, 423797, Note_on_c, 0, 48, 0
2, 423957, Note_on_c, 0, 71, 0
2, 423997, Note_on_c, 0, 74, 75
2, 424065, Note_on_c, 0, 72, 94
2, 424069, Note_on_c, 0, 41, 61
2, 424089, Note_on_c, 0, 74, 0
2, 424093, Note_on_c, 0, 41, 0
2, 424109, Note_on_c, 0, 72, 0
2, 424121, Control_c, 0, 64, 56
2, 424133, Control_c, 0, 64, 104
2, 424149, Control_c, 0, 64, 127
2, 424329, Note_on_c, 0, 91, 92
2, 424345, Note_on_c, 0, 79, 64
2, 424349, Note_on_c, 0, 67, 60
2, 424353, Note_on_c, 0, 91, 0
2, 424365, Note_on_c, 0, 79, 0
2, 424373, Control_c, 0, 64, 104
2, 424385, Control_c, 0, 64, 40
2, 424397, Control_c, 0, 64, 0
2, 424417, Note_on_c, 0, 89, 107
2, 424417, Note_on_c, 0, 77, 105
2, 424433, Note_on_c, 0, 65, 74
2, 424437, Note_on_c, 0, 67, 0
2, 424497, Control_c, 0, 64, 56
2, 424509, Control_c, 0, 64, 127
2, 424521, Note_on_c, 0, 65, 0
2, 424801, Note_on_c, 0, 53, 52
2, 424805, Note_on_c, 0, 57, 48
2, 424833, Note_on_c, 0, 89, 0
2, 424845, Note_on_c, 0, 53, 0
2, 424857, Note_on_c, 0, 77, 0
2, 424873, Note_on_c, 0, 57, 0
2, 425109, Control_c, 0, 64, 104
2, 425125, Control_c, 0, 64, 40
2, 425137, Control_c, 0, 64, 0
2, 425173, Note_on_c, 0, 46, 62
2, 425233, Control_c, 0, 64, 40
2, 425249, Control_c, 0, 64, 88
2, 425265, Note_on_c, 0, 46, 0
2, 425265, Control_c, 0, 64, 104
2, 425277, Control_c, 0, 64, 127
2, 425389, Control_c, 0, 64, 88
2, 425397, Note_on_c, 0, 64, 64
2, 425401, Control_c, 0, 64, 56
2, 425417, Control_c, 0, 64, 0
2, 425457, Note_on_c, 0, 65, 83
2, 425465, Note_on_c, 0, 64, 0
2, 425465, Note_on_c, 0, 62, 66
2, 425681, Note_on_c, 0, 65, 0
2, 425689, Note_on_c, 0, 70, 65
2, 425725, Note_on_c, 0, 70, 0
2, 425765, Note_on_c, 0, 53, 58
2, 425765, Note_on_c, 0, 74, 92
2, 425861, Note_on_c, 0, 62, 0
2, 425941, Note_on_c, 0, 74, 0
2, 425977, Note_on_c, 0, 77, 82
2, 426041, Note_on_c, 0, 53, 0
2, 426053, Note_on_c, 0, 77, 0
2, 426065, Note_on_c, 0, 46, 55
2, 426069, Note_on_c, 0, 86, 93
2, 426101, Control_c, 0, 64, 40
2, 426113, Control_c, 0, 64, 88
2, 426129, Control_c, 0, 64, 127
2, 426137, Note_on_c, 0, 46, 0
2, 426221, Note_on_c, 0, 86, 0
2, 426313, Note_on_c, 0, 84, 78
2, 426321, Control_c, 0, 64, 104
2, 426337, Control_c, 0, 64, 56
2, 426353, Control_c, 0, 64, 0
2, 426389, Note_on_c, 0, 82, 82
2, 426409, Note_on_c, 0, 84, 0
2, 426409, Note_on_c, 0, 55, 47
2, 426417, Note_on_c, 0, 63, 40
2, 426417, Note_on_c, 0, 58, 38
2, 426437, Note_on_c, 0, 55, 0
2, 426449, Control_c, 0, 64, 40
2, 426461, Note_on_c, 0, 82, 0
2, 426461, Note_on_c, 0, 63, 0
2, 426461, Note_on_c, 0, 58, 0
2, 426461, Control_c, 0, 64, 88
2, 426477, Control_c, 0, 64, 127
2, 426677, Note_on_c, 0, 79, 68
2, 426757, Control_c, 0, 64, 88
2, 426765, Note_on_c, 0, 79, 0
2, 426769, Control_c, 0, 64, 56
2, 426777, Note_on_c, 0, 77, 74
2, 426781, Control_c, 0, 64, 0
2, 426797, Note_on_c, 0, 65, 46
2, 426809, Note_on_c, 0, 57, 33
2, 426813, Note_on_c, 0, 60, 41
2, 426909, Control_c, 0, 64, 24
2, 426921, Control_c, 0, 64, 88
2, 426937, Note_on_c, 0, 65, 0
2, 426937, Control_c, 0, 64, 127
2, 426945, Note_on_c, 0, 60, 0
2, 426949, Note_on_c, 0, 57, 0
2, 427033, Note_on_c, 0, 77, 0
2, 427105, Control_c, 0, 64, 104
2, 427117, Control_c, 0, 64, 24
2, 427133, Control_c, 0, 64, 0
2, 427157, Note_on_c, 0, 46, 60
2, 427201, Control_c, 0, 64, 56
2, 427217, Control_c, 0, 64, 104
2, 427229, Control_c, 0, 64, 127
2, 427233, Note_on_c, 0, 46, 0
2, 427385, Control_c, 0, 64, 88
2, 427397, Control_c, 0, 64, 40
2, 427409, Note_on_c, 0, 74, 75
2, 427409, Control_c, 0, 64, 0
2, 427469, Note_on_c, 0, 62, 66
2, 427473, Note_on_c, 0, 68, 77
2, 427477, Note_on_c, 0, 74, 0
2, 427509, Control_c, 0, 64, 40
2, 427521, Control_c, 0, 64, 72
2, 427533, Note_on_c, 0, 68, 0
2, 427537, Control_c, 0, 64, 88
2, 427593, Control_c, 0, 64, 104
2, 427677, Control_c, 0, 64, 40
2, 427689, Control_c, 0, 64, 0
2, 427717, Note_on_c, 0, 77, 77
2, 427781, Note_on_c, 0, 77, 0
2, 427781, Note_on_c, 0, 76, 93
2, 427785, Note_on_c, 0, 53, 58
2, 427785, Control_c, 0, 64, 24
2, 427801, Control_c, 0, 64, 40
2, 427809, Note_on_c, 0, 62, 0
2, 427813, Control_c, 0, 64, 72
2, 427841, Note_on_c, 0, 53, 0
2, 427869, Control_c, 0, 64, 88
2, 427885, Control_c, 0, 64, 104
2, 427913, Control_c, 0, 64, 127
2, 427973, Note_on_c, 0, 76, 0
2, 428017, Note_on_c, 0, 79, 80
2, 428021, Control_c, 0, 64, 56
2, 428037, Control_c, 0, 64, 0
2, 428081, Note_on_c, 0, 46, 71
2, 428089, Note_on_c, 0, 77, 102
2, 428117, Note_on_c, 0, 79, 0
2, 428121, Control_c, 0, 64, 24
2, 428129, Note_on_c, 0, 77, 0
2, 428129, Note_on_c, 0, 46, 0
2, 428137, Control_c, 0, 64, 88
2, 428149, Control_c, 0, 64, 127
2, 428357, Note_on_c, 0, 96, 88
2, 428357, Note_on_c, 0, 84, 70
2, 428377, Note_on_c, 0, 72, 64
2, 428389, Note_on_c, 0, 96, 0
2, 428413, Note_on_c, 0, 84, 0
2, 428413, Control_c, 0, 64, 72
2, 428429, Control_c, 0, 64, 0
2, 428433, Note_on_c, 0, 94, 96
2, 428437, Note_on_c, 0, 82, 96
2, 428457, Note_on_c, 0, 70, 77
2, 428465, Note_on_c, 0, 72, 0
2, 428513, Control_c, 0, 64, 40
2, 428525, Control_c, 0, 64, 127
2, 428553, Note_on_c, 0, 70, 0
2, 428705, Note_on_c, 0, 82, 0
2, 428709, Note_on_c, 0, 94, 0
2, 428769, Note_on_c, 0, 58, 46
2, 428785, Note_on_c, 0, 62, 51
2, 428845, Note_on_c, 0, 62, 0
2, 428881, Note_on_c, 0, 58, 0
2, 429069, Control_c, 0, 64, 56
2, 429085, Control_c, 0, 64, 0
2, 429125, Note_on_c, 0, 51, 63
2, 429165, Control_c, 0, 64, 24
2, 429181, Control_c, 0, 64, 72
2, 429193, Note_on_c, 0, 51, 0
2, 429193, Control_c, 0, 64, 104
2, 429209, Control_c, 0, 64, 127
2, 429333, Control_c, 0, 64, 104
2, 429345, Control_c, 0, 64, 56
2, 429353, Note_on_c, 0, 69, 53
2, 429361, Control_c, 0, 64, 0
2, 429409, Note_on_c, 0, 70, 85
2, 429413, Note_on_c, 0, 69, 0
2, 429413, Note_on_c, 0, 67, 61
2, 429461, Control_c, 0, 64, 40
2, 429473, Control_c, 0, 64, 88
2, 429489, Control_c, 0, 64, 104
2, 429501, Control_c, 0, 64, 127
2, 429633, Note_on_c, 0, 70, 0
2, 429645, Note_on_c, 0, 75, 68
2, 429685, Note_on_c, 0, 75, 0
2, 429721, Note_on_c, 0, 58, 56
2, 429725, Note_on_c, 0, 79, 93
2, 429741, Note_on_c, 0, 67, 0
2, 429773, Note_on_c, 0, 58, 0
2, 429833, Note_on_c, 0, 79, 0
2, 429925, Note_on_c, 0, 82, 73
2, 429977, Control_c, 0, 64, 72
2, 429985, Note_on_c, 0, 82, 0
2, 429989, Control_c, 0, 64, 24
2, 430005, Control_c, 0, 64, 0
2, 430029, Note_on_c, 0, 91, 100
2, 430037, Note_on_c, 0, 83, 89
2, 430037, Note_on_c, 0, 79, 82
2, 430037, Note_on_c, 0, 55, 53
2, 430037, Note_on_c, 0, 50, 68
2, 430065, Note_on_c, 0, 50, 0
2, 430069, Note_on_c, 0, 55, 0
2, 430073, Note_on_c, 0, 79, 0
2, 430073, Note_on_c, 0, 83, 0
2, 430073, Control_c, 0, 64, 40
2, 430089, Control_c, 0, 64, 104
2, 430101, Control_c, 0, 64, 127
2, 430117, Note_on_c, 0, 91, 0
2, 430289, Note_on_c, 0, 92, 90
2, 430297, Note_on_c, 0, 68, 74
2, 430301, Note_on_c, 0, 80, 50
2, 430313, Note_on_c, 0, 92, 0
2, 430325, Note_on_c, 0, 80, 0
2, 430337, Control_c, 0, 64, 88
2, 430345, Note_on_c, 0, 68, 0
2, 430349, Control_c, 0, 64, 24
2, 430365, Note_on_c, 0, 91, 92
2, 430369, Note_on_c, 0, 79, 92
2, 430369, Control_c, 0, 64, 0
2, 430397, Note_on_c, 0, 67, 85
2, 430421, Control_c, 0, 64, 24
2, 430437, Control_c, 0, 64, 88
2, 430449, Control_c, 0, 64, 127
2, 430465, Note_on_c, 0, 67, 0
2, 430725, Note_on_c, 0, 59, 56
2, 430733, Note_on_c, 0, 55, 46
2, 430761, Note_on_c, 0, 59, 0
2, 430773, Note_on_c, 0, 55, 0
2, 430777, Note_on_c, 0, 91, 0
2, 430801, Note_on_c, 0, 79, 0
2, 430993, Control_c, 0, 64, 88
2, 431005, Control_c, 0, 64, 0
2, 431049, Note_on_c, 0, 48, 61
2, 431077, Note_on_c, 0, 48, 0
2, 431093, Control_c, 0, 64, 24
2, 431105, Control_c, 0, 64, 72
2, 431121, Control_c, 0, 64, 127
2, 431257, Control_c, 0, 64, 88
2, 431273, Control_c, 0, 64, 24
2, 431285, Control_c, 0, 64, 0
2, 431313, Note_on_c, 0, 67, 69
2, 431353, Control_c, 0, 64, 56
2, 431369, Note_on_c, 0, 63, 50
2, 431369, Control_c, 0, 64, 127
2, 431385, Note_on_c, 0, 72, 78
2, 431397, Note_on_c, 0, 67, 0
2, 431549, Note_on_c, 0, 72, 0
2, 431581, Note_on_c, 0, 75, 70
2, 431613, Note_on_c, 0, 75, 0
2, 431625, Note_on_c, 0, 55, 56
2, 431649, Note_on_c, 0, 79, 92
2, 431653, Note_on_c, 0, 55, 0
2, 431665, Note_on_c, 0, 63, 0
2, 431801, Note_on_c, 0, 79, 0
2, 431869, Note_on_c, 0, 84, 76
2, 431885, Control_c, 0, 64, 88
2, 431901, Control_c, 0, 64, 24
2, 431913, Control_c, 0, 64, 0
2, 431925, Note_on_c, 0, 84, 0
2, 431933, Note_on_c, 0, 46, 65
2, 431949, Note_on_c, 0, 87, 91
2, 431969, Control_c, 0, 64, 40
2, 431973, Note_on_c, 0, 46, 0
2, 431985, Control_c, 0, 64, 88
2, 431997, Control_c, 0, 64, 127
2, 432053, Note_on_c, 0, 87, 0
2, 432177, Note_on_c, 0, 91, 90
2, 432189, Note_on_c, 0, 79, 67
2, 432193, Note_on_c, 0, 67, 54
2, 432193, Note_on_c, 0, 55, 70
2, 432205, Control_c, 0, 64, 88
2, 432213, Note_on_c, 0, 79, 0
2, 432217, Note_on_c, 0, 91, 0
2, 432221, Note_on_c, 0, 67, 0
2, 432221, Control_c, 0, 64, 24
2, 432233, Control_c, 0, 64, 0
2, 432249, Note_on_c, 0, 55, 0
2, 432269, Note_on_c, 0, 90, 97
2, 432273, Note_on_c, 0, 78, 100
2, 432277, Note_on_c, 0, 66, 77
2, 432285, Note_on_c, 0, 54, 76
2, 432317, Control_c, 0, 64, 72
2, 432329, Control_c, 0, 64, 127
2, 432337, Note_on_c, 0, 54, 0
2, 432337, Note_on_c, 0, 66, 0
2, 432661, Note_on_c, 0, 58, 65
2, 432681, Note_on_c, 0, 46, 60
2, 432733, Note_on_c, 0, 58, 0
2, 432741, Note_on_c, 0, 90, 0
2, 432761, Note_on_c, 0, 78, 0
2, 432761, Note_on_c, 0, 46, 0
2, 432961, Control_c, 0, 64, 72
2, 432973, Control_c, 0, 64, 0
2, 433005, Note_on_c, 0, 45, 64
2, 433005, Note_on_c, 0, 57, 62
2, 433045, Note_on_c, 0, 45, 0
2, 433057, Control_c, 0, 64, 56
2, 433069, Control_c, 0, 64, 127
2, 433085, Note_on_c, 0, 57, 0
2, 433237, Note_on_c, 0, 65, 65
2, 433237, Control_c, 0, 64, 88
2, 433253, Control_c, 0, 64, 24
2, 433265, Control_c, 0, 64, 0
2, 433297, Note_on_c, 0, 63, 60
2, 433309, Note_on_c, 0, 72, 77
2, 433317, Note_on_c, 0, 65, 0
2, 433333, Control_c, 0, 64, 40
2, 433349, Control_c, 0, 64, 104
2, 433365, Control_c, 0, 64, 127
2, 433501, Note_on_c, 0, 72, 0
2, 433505, Note_on_c, 0, 75, 60
2, 433545, Note_on_c, 0, 75, 0
2, 433573, Note_on_c, 0, 53, 55
2, 433585, Note_on_c, 0, 63, 0
2, 433597, Note_on_c, 0, 77, 86
2, 433605, Note_on_c, 0, 53, 0
2, 433685, Note_on_c, 0, 77, 0
2, 433809, Note_on_c, 0, 84, 83
2, 433837, Control_c, 0, 64, 88
2, 433853, Control_c, 0, 64, 24
2, 433865, Control_c, 0, 64, 0
2, 433869, Note_on_c, 0, 84, 0
2, 433877, Note_on_c, 0, 46, 67
2, 433893, Note_on_c, 0, 87, 96
2, 433917, Note_on_c, 0, 46, 0
2, 433921, Control_c, 0, 64, 40
2, 433937, Control_c, 0, 64, 104
2, 433949, Control_c, 0, 64, 127
2, 433993, Note_on_c, 0, 87, 0
2, 434113, Note_on_c, 0, 91, 86
2, 434117, Note_on_c, 0, 79, 81
2, 434133, Note_on_c, 0, 55, 50
2, 434137, Note_on_c, 0, 91, 0
2, 434141, Note_on_c, 0, 79, 0
2, 434161, Note_on_c, 0, 55, 0
2, 434161, Control_c, 0, 64, 104
2, 434173, Control_c, 0, 64, 56
2, 434185, Control_c, 0, 64, 0
2, 434197, Note_on_c, 0, 90, 95
2, 434205, Note_on_c, 0, 78, 96
2, 434213, Note_on_c, 0, 66, 81
2, 434213, Note_on_c, 0, 54, 81
2, 434297, Control_c, 0, 64, 88
2, 434313, Control_c, 0, 64, 127
2, 434333, Note_on_c, 0, 66, 0
2, 434365, Note_on_c, 0, 54, 0
2, 434609, Note_on_c, 0, 58, 55
2, 434625, Note_on_c, 0, 46, 42
2, 434645, Note_on_c, 0, 90, 0
2, 434669, Note_on_c, 0, 78, 0
2, 434765, Note_on_c, 0, 46, 0
2, 434769, Note_on_c, 0, 58, 0
2, 434913, Control_c, 0, 64, 88
2, 434925, Control_c, 0, 64, 0
2, 434933, Note_on_c, 0, 45, 63
2, 434933, Note_on_c, 0, 57, 40
2, 435009, Control_c, 0, 64, 56
2, 435021, Control_c, 0, 64, 127
2, 435041, Note_on_c, 0, 45, 0
2, 435073, Note_on_c, 0, 57, 0
2, 435149, Control_c, 0, 64, 104
2, 435153, Note_on_c, 0, 65, 63
2, 435161, Control_c, 0, 64, 40
2, 435177, Control_c, 0, 64, 0
2, 435233, Control_c, 0, 64, 40
2, 435237, Note_on_c, 0, 72, 79
2, 435237, Note_on_c, 0, 63, 55
2, 435245, Control_c, 0, 64, 104
2, 435261, Control_c, 0, 64, 127
2, 435269, Note_on_c, 0, 65, 0
2, 435433, Note_on_c, 0, 72, 0
2, 435437, Note_on_c, 0, 75, 65
2, 435469, Note_on_c, 0, 75, 0
2, 435529, Note_on_c, 0, 77, 84
2, 435533, Note_on_c, 0, 53, 49
2, 435613, Note_on_c, 0, 63, 0
2, 435693, Note_on_c, 0, 84, 84
2, 435805, Note_on_c, 0, 84, 0
2, 435821, Note_on_c, 0, 53, 0
2, 435841, Note_on_c, 0, 89, 89
2, 435845, Note_on_c, 0, 46, 54
2, 435861, Control_c, 0, 64, 88
2, 435873, Control_c, 0, 64, 24
2, 435889, Control_c, 0, 64, 0
2, 435957, Control_c, 0, 64, 40
2, 435969, Note_on_c, 0, 89, 0
2, 435969, Control_c, 0, 64, 127
2, 435977, Note_on_c, 0, 87, 78
2, 436013, Note_on_c, 0, 46, 0
2, 436037, Note_on_c, 0, 77, 0
2, 436117, Note_on_c, 0, 82, 74
2, 436141, Note_on_c, 0, 87, 0
2, 436149, Note_on_c, 0, 63, 49
2, 436261, Note_on_c, 0, 82, 0
2, 436261, Note_on_c, 0, 77, 82
2, 436317, Note_on_c, 0, 77, 0
2, 436385, Note_on_c, 0, 63, 0
2, 436401, Note_on_c, 0, 75, 72
2, 436425, Note_on_c, 0, 53, 46
2, 436485, Note_on_c, 0, 75, 0
2, 436529, Note_on_c, 0, 70, 72
2, 436565, Note_on_c, 0, 53, 0
2, 436669, Note_on_c, 0, 70, 0
2, 436685, Note_on_c, 0, 75, 80
2, 436701, Note_on_c, 0, 47, 54
2, 436709, Control_c, 0, 64, 56
2, 436725, Control_c, 0, 64, 0
2, 436809, Control_c, 0, 64, 88
2, 436813, Note_on_c, 0, 75, 0
2, 436821, Control_c, 0, 64, 127
2, 436833, Note_on_c, 0, 65, 73
2, 436853, Note_on_c, 0, 47, 0
2, 436957, Note_on_c, 0, 65, 0
2, 436973, Note_on_c, 0, 68, 71
2, 437013, Note_on_c, 0, 63, 57
2, 437109, Note_on_c, 0, 75, 68
2, 437141, Note_on_c, 0, 68, 0
2, 437181, Note_on_c, 0, 75, 0
2, 437249, Note_on_c, 0, 77, 87
2, 437253, Note_on_c, 0, 53, 51
2, 437333, Note_on_c, 0, 63, 0
2, 437381, Note_on_c, 0, 80, 89
2, 437393, Note_on_c, 0, 53, 0
2, 437509, Note_on_c, 0, 80, 0
2, 437537, Note_on_c, 0, 89, 90
2, 437545, Note_on_c, 0, 48, 58
2, 437573, Control_c, 0, 64, 88
2, 437589, Control_c, 0, 64, 0
2, 437673, Note_on_c, 0, 89, 0
2, 437673, Control_c, 0, 64, 104
2, 437685, Control_c, 0, 64, 127
2, 437701, Note_on_c, 0, 87, 84
2, 437721, Note_on_c, 0, 48, 0
2, 437737, Note_on_c, 0, 77, 0
2, 437841, Note_on_c, 0, 87, 0
2, 437849, Note_on_c, 0, 63, 48
2, 437857, Note_on_c, 0, 81, 64
2, 437969, Note_on_c, 0, 81, 0
2, 438001, Note_on_c, 0, 77, 71
2, 438049, Note_on_c, 0, 77, 0
2, 438145, Note_on_c, 0, 53, 47
2, 438153, Note_on_c, 0, 63, 0
2, 438153, Note_on_c, 0, 75, 65
2, 438181, Note_on_c, 0, 53, 0
2, 438229, Note_on_c, 0, 75, 0
2, 438285, Note_on_c, 0, 69, 62
2, 438361, Note_on_c, 0, 69, 0
2, 438425, Control_c, 0, 64, 104
2, 438437, Control_c, 0, 64, 40
2, 438453, Control_c, 0, 64, 0
2, 438469, Note_on_c, 0, 41, 59
2, 438537, Control_c, 0, 64, 24
2, 438549, Note_on_c, 0, 41, 0
2, 438549, Control_c, 0, 64, 72
2, 438565, Control_c, 0, 64, 127
2, 438705, Control_c, 0, 64, 56
2, 438713, Note_on_c, 0, 69, 67
2, 438717, Control_c, 0, 64, 0
2, 438769, Note_on_c, 0, 57, 55
2, 438773, Note_on_c, 0, 69, 0
2, 438777, Note_on_c, 0, 63, 79
2, 438841, Note_on_c, 0, 63, 0
2, 438913, Control_c, 0, 64, 24
2, 439025, Note_on_c, 0, 72, 73
2, 439025, Control_c, 0, 64, 0
2, 439073, Note_on_c, 0, 48, 63
2, 439097, Note_on_c, 0, 71, 86
2, 439101, Note_on_c, 0, 72, 0
2, 439117, Note_on_c, 0, 57, 0
2, 439141, Note_on_c, 0, 48, 0
2, 439269, Note_on_c, 0, 71, 0
2, 439337, Note_on_c, 0, 74, 60
2, 439393, Note_on_c, 0, 72, 97
2, 439413, Note_on_c, 0, 41, 49
2, 439421, Note_on_c, 0, 74, 0
2, 439429, Note_on_c, 0, 72, 0
2, 439429, Control_c, 0, 64, 24
2, 439441, Note_on_c, 0, 41, 0
2, 439441, Control_c, 0, 64, 72
2, 439457, Control_c, 0, 64, 127
2, 439657, Note_on_c, 0, 91, 80
2, 439665, Note_on_c, 0, 79, 58
2, 439673, Note_on_c, 0, 67, 56
2, 439681, Note_on_c, 0, 91, 0
2, 439693, Note_on_c, 0, 79, 0
2, 439721, Control_c, 0, 64, 72
2, 439729, Note_on_c, 0, 89, 107
2, 439733, Note_on_c, 0, 77, 112
2, 439733, Control_c, 0, 64, 0
2, 439737, Note_on_c, 0, 65, 77
2, 439753, Note_on_c, 0, 67, 0
2, 439817, Control_c, 0, 64, 72
2, 439829, Note_on_c, 0, 65, 0
2, 439833, Control_c, 0, 64, 127
2, 440081, Note_on_c, 0, 57, 55
2, 440085, Note_on_c, 0, 53, 52
2, 440125, Note_on_c, 0, 53, 0
2, 440133, Note_on_c, 0, 57, 0
2, 440145, Note_on_c, 0, 89, 0
2, 440185, Note_on_c, 0, 77, 0
2, 440349, Control_c, 0, 64, 104
2, 440361, Control_c, 0, 64, 40
2, 440377, Control_c, 0, 64, 0
2, 440401, Note_on_c, 0, 46, 58
2, 440473, Control_c, 0, 64, 24
2, 440485, Note_on_c, 0, 46, 0
2, 440489, Control_c, 0, 64, 40
2, 440633, Note_on_c, 0, 64, 57
2, 440657, Control_c, 0, 64, 0
2, 440681, Note_on_c, 0, 62, 66
2, 440685, Note_on_c, 0, 65, 80
2, 440697, Note_on_c, 0, 64, 0
2, 440913, Note_on_c, 0, 65, 0
2, 440913, Note_on_c, 0, 70, 67
2, 440957, Note_on_c, 0, 70, 0
2, 440997, Note_on_c, 0, 53, 55
2, 441005, Note_on_c, 0, 74, 90
2, 441081, Note_on_c, 0, 62, 0
2, 441177, Note_on_c, 0, 74, 0
2, 441213, Note_on_c, 0, 77, 80
2, 441293, Note_on_c, 0, 77, 0
2, 441293, Note_on_c, 0, 53, 0
2, 441305, Note_on_c, 0, 86, 89
2, 441313, Note_on_c, 0, 46, 54
2, 441353, Control_c, 0, 64, 40
2, 441365, Note_on_c, 0, 46, 0
2, 441365, Control_c, 0, 64, 88
2, 441381, Control_c, 0, 64, 127
2, 441481, Note_on_c, 0, 86, 0
2, 441573, Note_on_c, 0, 84, 78
2, 441605, Control_c, 0, 64, 72
2, 441617, Control_c, 0, 64, 24
2, 441633, Control_c, 0, 64, 0
2, 441641, Note_on_c, 0, 82, 77
2, 441653, Note_on_c, 0, 58, 39
2, 441661, Note_on_c, 0, 84, 0
2, 441661, Note_on_c, 0, 63, 44
2, 441665, Note_on_c, 0, 55, 53
2, 441697, Note_on_c, 0, 55, 0
2, 441701, Control_c, 0, 64, 40
2, 441713, Control_c, 0, 64, 88
2, 441729, Control_c, 0, 64, 127
2, 441733, Note_on_c, 0, 82, 0
2, 441737, Note_on_c, 0, 63, 0
2, 441737, Note_on_c, 0, 58, 0
2, 441913, Note_on_c, 0, 79, 70
2, 441993, Note_on_c, 0, 79, 0
2, 441993, Control_c, 0, 64, 104
2, 442009, Note_on_c, 0, 77, 73
2, 442009, Control_c, 0, 64, 72
2, 442021, Control_c, 0, 64, 24
2, 442029, Note_on_c, 0, 57, 38
2, 442029, Note_on_c, 0, 65, 37
2, 442037, Note_on_c, 0, 60, 44
2, 442037, Control_c, 0, 64, 0
2, 442149, Control_c, 0, 64, 40
2, 442161, Control_c, 0, 64, 104
2, 442173, Note_on_c, 0, 65, 0
2, 442173, Control_c, 0, 64, 127
2, 442181, Note_on_c, 0, 60, 0
2, 442193, Note_on_c, 0, 57, 0
2, 442229, Note_on_c, 0, 77, 0
2, 442369, Control_c, 0, 64, 72
2, 442385, Control_c, 0, 64, 0
2, 442425, Note_on_c, 0, 46, 58
2, 442469, Control_c, 0, 64, 56
2, 442481, Control_c, 0, 64, 127
2, 442553, Note_on_c, 0, 46, 0
2, 442609, Control_c, 0, 64, 104
2, 442621, Control_c, 0, 64, 40
2, 442637, Control_c, 0, 64, 0
2, 442661, Note_on_c, 0, 74, 68
2, 442717, Note_on_c, 0, 74, 0
2, 442717, Control_c, 0, 64, 56
2, 442725, Note_on_c, 0, 68, 79
2, 442733, Note_on_c, 0, 62, 64
2, 442733, Control_c, 0, 64, 88
2, 442745, Control_c, 0, 64, 127
2, 442789, Note_on_c, 0, 68, 0
2, 442801, Control_c, 0, 64, 56
2, 442817, Control_c, 0, 64, 24
2, 442829, Control_c, 0, 64, 0
2, 442901, Control_c, 0, 64, 40
2, 442913, Control_c, 0, 64, 56
2, 442929, Control_c, 0, 64, 88
2, 442969, Note_on_c, 0, 77, 84
2, 442997, Control_c, 0, 64, 0
2, 443041, Note_on_c, 0, 77, 0
2, 443045, Note_on_c, 0, 76, 93
2, 443061, Note_on_c, 0, 53, 55
2, 443081, Note_on_c, 0, 62, 0
2, 443081, Control_c, 0, 64, 24
2, 443097, Control_c, 0, 64, 72
2, 443105, Note_on_c, 0, 53, 0
2, 443109, Control_c, 0, 64, 104
2, 443121, Control_c, 0, 64, 127
2, 443213, Note_on_c, 0, 76, 0
2, 443277, Control_c, 0, 64, 72
2, 443281, Note_on_c, 0, 79, 72
2, 443293, Control_c, 0, 64, 0
2, 443345, Note_on_c, 0, 46, 68
2, 443349, Note_on_c, 0, 77, 102
2, 443381, Note_on_c, 0, 79, 0
2, 443385, Note_on_c, 0, 46, 0
2, 443389, Control_c, 0, 64, 72
2, 443401, Control_c, 0, 64, 127
2, 443409, Note_on_c, 0, 77, 0
2, 443609, Note_on_c, 0, 96, 92
2, 443625, Note_on_c, 0, 72, 73
2, 443629, Note_on_c, 0, 84, 51
2, 443653, Note_on_c, 0, 96, 0
2, 443657, Note_on_c, 0, 84, 0
2, 443681, Control_c, 0, 64, 88
2, 443693, Note_on_c, 0, 94, 97
2, 443697, Control_c, 0, 64, 0
2, 443701, Note_on_c, 0, 82, 96
2, 443721, Note_on_c, 0, 70, 75
2, 443725, Note_on_c, 0, 72, 0
2, 443793, Control_c, 0, 64, 104
2, 443805, Note_on_c, 0, 70, 0
2, 443805, Control_c, 0, 64, 127
2, 444037, Note_on_c, 0, 94, 0
2, 444037, Note_on_c, 0, 58, 44
2, 444053, Note_on_c, 0, 62, 49
2, 444081, Note_on_c, 0, 82, 0
2, 444089, Note_on_c, 0, 62, 0
2, 444137, Note_on_c, 0, 58, 0
2, 444337, Control_c, 0, 64, 40
2, 444349, Control_c, 0, 64, 0
2, 444373, Note_on_c, 0, 51, 58
2, 444421, Control_c, 0, 64, 56
2, 444433, Control_c, 0, 64, 127
2, 444473, Note_on_c, 0, 51, 0
2, 444605, Control_c, 0, 64, 40
2, 444613, Note_on_c, 0, 69, 68
2, 444613, Control_c, 0, 64, 0
2, 444701, Note_on_c, 0, 70, 75
2, 444701, Note_on_c, 0, 67, 63
2, 444701, Control_c, 0, 64, 40
2, 444705, Note_on_c, 0, 69, 0
2, 444713, Control_c, 0, 64, 72
2, 444725, Control_c, 0, 64, 104
2, 444781, Control_c, 0, 64, 72
2, 444797, Control_c, 0, 64, 56
2, 444809, Control_c, 0, 64, 40
2, 444837, Control_c, 0, 64, 24
2, 444853, Control_c, 0, 64, 0
2, 444905, Note_on_c, 0, 75, 65
2, 444909, Note_on_c, 0, 70, 0
2, 444909, Control_c, 0, 64, 56
2, 444921, Control_c, 0, 64, 72
2, 444933, Control_c, 0, 64, 104
2, 444945, Note_on_c, 0, 75, 0
2, 444949, Note_on_c, 0, 58, 54
2, 444949, Control_c, 0, 64, 127
2, 444993, Note_on_c, 0, 79, 88
2, 445025, Note_on_c, 0, 58, 0
2, 445045, Note_on_c, 0, 67, 0
2, 445145, Note_on_c, 0, 79, 0
2, 445177, Note_on_c, 0, 82, 78
2, 445229, Control_c, 0, 64, 72
2, 445241, Control_c, 0, 64, 0
2, 445245, Note_on_c, 0, 82, 0
2, 445281, Note_on_c, 0, 91, 100
2, 445289, Note_on_c, 0, 83, 94
2, 445293, Note_on_c, 0, 79, 81
2, 445293, Note_on_c, 0, 55, 54
2, 445301, Note_on_c, 0, 50, 64
2, 445317, Note_on_c, 0, 79, 0
2, 445321, Note_on_c, 0, 59, 52
2, 445325, Note_on_c, 0, 55, 0
2, 445325, Control_c, 0, 64, 88
2, 445329, Note_on_c, 0, 50, 0
2, 445341, Control_c, 0, 64, 127
2, 445353, Note_on_c, 0, 59, 0
2, 445353, Note_on_c, 0, 83, 0
2, 445377, Note_on_c, 0, 91, 0
2, 445525, Note_on_c, 0, 92, 89
2, 445529, Note_on_c, 0, 80, 63
2, 445533, Note_on_c, 0, 68, 77
2, 445553, Note_on_c, 0, 80, 0
2, 445553, Note_on_c, 0, 92, 0
2, 445585, Note_on_c, 0, 68, 0
2, 445593, Control_c, 0, 64, 72
2, 445605, Note_on_c, 0, 91, 103
2, 445605, Control_c, 0, 64, 0
2, 445609, Note_on_c, 0, 79, 100
2, 445633, Note_on_c, 0, 67, 85
2, 445689, Control_c, 0, 64, 56
2, 445701, Note_on_c, 0, 67, 0
2, 445705, Control_c, 0, 64, 127
2, 445949, Note_on_c, 0, 59, 58
2, 445953, Note_on_c, 0, 55, 49
2, 445993, Note_on_c, 0, 59, 0
2, 446017, Note_on_c, 0, 55, 0
2, 446033, Note_on_c, 0, 91, 0
2, 446061, Note_on_c, 0, 79, 0
2, 446217, Control_c, 0, 64, 72
2, 446233, Control_c, 0, 64, 0
2, 446273, Note_on_c, 0, 48, 67
2, 446317, Control_c, 0, 64, 24
2, 446329, Control_c, 0, 64, 72
2, 446345, Note_on_c, 0, 48, 0
2, 446345, Control_c, 0, 64, 104
2, 446357, Control_c, 0, 64, 127
2, 446489, Note_on_c, 0, 67, 68
2, 446497, Control_c, 0, 64, 56
2, 446513, Control_c, 0, 64, 0
2, 446561, Note_on_c, 0, 63, 55
2, 446573, Note_on_c, 0, 72, 86
2, 446585, Note_on_c, 0, 67, 0
2, 446609, Control_c, 0, 64, 56
2, 446621, Control_c, 0, 64, 88
2, 446637, Control_c, 0, 64, 104
2, 446649, Control_c, 0, 64, 127
2, 446773, Note_on_c, 0, 72, 0
2, 446773, Note_on_c, 0, 75, 69
2, 446805, Note_on_c, 0, 75, 0
2, 446837, Note_on_c, 0, 55, 44
2, 446849, Note_on_c, 0, 63, 0
2, 446865, Note_on_c, 0, 55, 0
2, 446869, Note_on_c, 0, 79, 92
2, 447025, Note_on_c, 0, 79, 0
2, 447065, Note_on_c, 0, 84, 82
2, 447085, Control_c, 0, 64, 72
2, 447097, Control_c, 0, 64, 0
2, 447125, Note_on_c, 0, 84, 0
2, 447141, Note_on_c, 0, 46, 65
2, 447157, Note_on_c, 0, 87, 96
2, 447181, Control_c, 0, 64, 56
2, 447185, Note_on_c, 0, 46, 0
2, 447193, Control_c, 0, 64, 104
2, 447209, Control_c, 0, 64, 127
2, 447257, Note_on_c, 0, 87, 0
2, 447389, Note_on_c, 0, 91, 100
2, 447389, Note_on_c, 0, 55, 70
2, 447393, Note_on_c, 0, 79, 87
2, 447397, Note_on_c, 0, 67, 45
2, 447417, Note_on_c, 0, 55, 0
2, 447421, Note_on_c, 0, 79, 0
2, 447425, Note_on_c, 0, 91, 0
2, 447425, Note_on_c, 0, 67, 0
2, 447445, Control_c, 0, 64, 104
2, 447461, Control_c, 0, 64, 24
2, 447473, Control_c, 0, 64, 0
2, 447477, Note_on_c, 0, 90, 99
2, 447489, Note_on_c, 0, 78, 103
2, 447493, Note_on_c, 0, 66, 69
2, 447497, Note_on_c, 0, 54, 73
2, 447585, Control_c, 0, 64, 72
2, 447597, Control_c, 0, 64, 127
2, 447649, Note_on_c, 0, 66, 0
2, 447677, Note_on_c, 0, 54, 0
2, 447841, Note_on_c, 0, 78, 0
2, 447845, Note_on_c, 0, 90, 0
2, 447865, Note_on_c, 0, 58, 50
2, 447869, Note_on_c, 0, 46, 57
2, 448025, Note_on_c, 0, 46, 0
2, 448037, Note_on_c, 0, 58, 0
2, 448141, Control_c, 0, 64, 104
2, 448157, Control_c, 0, 64, 40
2, 448169, Control_c, 0, 64, 0
2, 448189, Note_on_c, 0, 45, 60
2, 448189, Note_on_c, 0, 57, 50
2, 448241, Note_on_c, 0, 45, 0
2, 448253, Control_c, 0, 64, 56
2, 448265, Control_c, 0, 64, 104
2, 448281, Control_c, 0, 64, 127
2, 448285, Note_on_c, 0, 57, 0
2, 448409, Control_c, 0, 64, 88
2, 448421, Control_c, 0, 64, 24
2, 448429, Note_on_c, 0, 65, 69
2, 448437, Control_c, 0, 64, 0
2, 448485, Note_on_c, 0, 63, 56
2, 448505, Control_c, 0, 64, 24
2, 448517, Note_on_c, 0, 72, 74
2, 448517, Control_c, 0, 64, 72
2, 448533, Control_c, 0, 64, 104
2, 448537, Note_on_c, 0, 65, 0
2, 448545, Control_c, 0, 64, 127
2, 448685, Control_c, 0, 64, 104
2, 448697, Note_on_c, 0, 72, 0
2, 448697, Note_on_c, 0, 75, 69
2, 448701, Control_c, 0, 64, 56
2, 448713, Control_c, 0, 64, 0
2, 448745, Note_on_c, 0, 75, 0
2, 448769, Note_on_c, 0, 53, 56
2, 448769, Control_c, 0, 64, 56
2, 448781, Note_on_c, 0, 63, 0
2, 448785, Control_c, 0, 64, 104
2, 448793, Note_on_c, 0, 77, 90
2, 448797, Control_c, 0, 64, 127
2, 448805, Note_on_c, 0, 53, 0
2, 448873, Note_on_c, 0, 77, 0
2, 449001, Note_on_c, 0, 84, 79
2, 449049, Control_c, 0, 64, 88
2, 449065, Note_on_c, 0, 84, 0
2, 449065, Control_c, 0, 64, 24
2, 449077, Control_c, 0, 64, 0
2, 449085, Note_on_c, 0, 46, 68
2, 449089, Note_on_c, 0, 87, 97
2, 449117, Control_c, 0, 64, 24
2, 449125, Note_on_c, 0, 46, 0
2, 449133, Control_c, 0, 64, 72
2, 449145, Control_c, 0, 64, 127
2, 449189, Note_on_c, 0, 87, 0
2, 449309, Note_on_c, 0, 91, 99
2, 449317, Note_on_c, 0, 79, 83
2, 449321, Note_on_c, 0, 55, 62
2, 449325, Note_on_c, 0, 67, 59
2, 449345, Note_on_c, 0, 55, 0
2, 449345, Note_on_c, 0, 91, 0
2, 449345, Note_on_c, 0, 79, 0
2, 449349, Note_on_c, 0, 67, 0
2, 449369, Control_c, 0, 64, 40
2, 449385, Control_c, 0, 64, 0
2, 449401, Note_on_c, 0, 90, 99
2, 449405, Note_on_c, 0, 78, 99
2, 449417, Note_on_c, 0, 66, 83
2, 449417, Note_on_c, 0, 54, 80
2, 449469, Note_on_c, 0, 66, 0
2, 449481, Control_c, 0, 64, 104
2, 449493, Control_c, 0, 64, 127
2, 449521, Note_on_c, 0, 54, 0
2, 449749, Note_on_c, 0, 58, 64
2, 449773, Note_on_c, 0, 46, 36
2, 449825, Note_on_c, 0, 90, 0
2, 449841, Note_on_c, 0, 78, 0
2, 449897, Note_on_c, 0, 46, 0
2, 449905, Note_on_c, 0, 58, 0
2, 450053, Control_c, 0, 64, 72
2, 450069, Control_c, 0, 64, 0
2, 450081, Note_on_c, 0, 45, 69
2, 450081, Note_on_c, 0, 57, 64
2, 450149, Control_c, 0, 64, 56
2, 450161, Note_on_c, 0, 45, 0
2, 450165, Control_c, 0, 64, 104
2, 450177, Control_c, 0, 64, 127
2, 450205, Note_on_c, 0, 57, 0
2, 450305, Note_on_c, 0, 65, 63
2, 450317, Control_c, 0, 64, 88
2, 450333, Control_c, 0, 64, 24
2, 450345, Control_c, 0, 64, 0
2, 450373, Note_on_c, 0, 63, 65
2, 450373, Note_on_c, 0, 72, 80
2, 450417, Control_c, 0, 64, 56
2, 450425, Note_on_c, 0, 65, 0
2, 450429, Control_c, 0, 64, 104
2, 450445, Control_c, 0, 64, 127
2, 450537, Note_on_c, 0, 75, 65
2, 450545, Note_on_c, 0, 72, 0
2, 450585, Note_on_c, 0, 75, 0
2, 450645, Note_on_c, 0, 77, 92
2, 450661, Note_on_c, 0, 53, 45
2, 450685, Note_on_c, 0, 63, 0
2, 450825, Note_on_c, 0, 84, 84
2, 450913, Note_on_c, 0, 84, 0
2, 450929, Note_on_c, 0, 53, 0
2, 450941, Note_on_c, 0, 89, 94
2, 450945, Control_c, 0, 64, 72
2, 450957, Note_on_c, 0, 46, 56
2, 450957, Control_c, 0, 64, 0
2, 451041, Control_c, 0, 64, 56
2, 451057, Control_c, 0, 64, 104
2, 451069, Note_on_c, 0, 89, 0
2, 451073, Control_c, 0, 64, 127
2, 451081, Note_on_c, 0, 46, 0
2, 451097, Note_on_c, 0, 87, 81
2, 451133, Note_on_c, 0, 77, 0
2, 451245, Note_on_c, 0, 82, 75
2, 451249, Note_on_c, 0, 63, 49
2, 451257, Note_on_c, 0, 87, 0
2, 451385, Note_on_c, 0, 77, 76
2, 451393, Note_on_c, 0, 82, 0
2, 451441, Note_on_c, 0, 77, 0
2, 451513, Note_on_c, 0, 53, 42
2, 451529, Note_on_c, 0, 75, 73
2, 451537, Note_on_c, 0, 63, 0
2, 451621, Note_on_c, 0, 75, 0
2, 451657, Note_on_c, 0, 70, 69
2, 451705, Note_on_c, 0, 53, 0
2, 451789, Note_on_c, 0, 70, 0
2, 451825, Note_on_c, 0, 75, 77
2, 451829, Note_on_c, 0, 47, 59
2, 451865, Control_c, 0, 64, 104
2, 451881, Control_c, 0, 64, 40
2, 451893, Control_c, 0, 64, 0
2, 451949, Note_on_c, 0, 75, 0
2, 451973, Note_on_c, 0, 65, 75
2, 451977, Control_c, 0, 64, 72
2, 451989, Note_on_c, 0, 47, 0
2, 451989, Control_c, 0, 64, 127
2, 452029, Note_on_c, 0, 65, 0
2, 452113, Note_on_c, 0, 68, 76
2, 452137, Note_on_c, 0, 63, 62
2, 452261, Note_on_c, 0, 75, 79
2, 452281, Note_on_c, 0, 68, 0
2, 452321, Note_on_c, 0, 75, 0
2, 452361, Note_on_c, 0, 53, 49
2, 452381, Note_on_c, 0, 77, 93
2, 452417, Note_on_c, 0, 63, 0
2, 452501, Note_on_c, 0, 53, 0
2, 452505, Note_on_c, 0, 80, 92
2, 452641, Note_on_c, 0, 80, 0
2, 452657, Note_on_c, 0, 48, 45
2, 452669, Note_on_c, 0, 89, 85
2, 452717, Control_c, 0, 64, 56
2, 452729, Control_c, 0, 64, 0
2, 452765, Note_on_c, 0, 77, 0
2, 452793, Note_on_c, 0, 89, 0
2, 452801, Control_c, 0, 64, 72
2, 452813, Control_c, 0, 64, 127
2, 452821, Note_on_c, 0, 87, 77
2, 452849, Note_on_c, 0, 48, 0
2, 452965, Note_on_c, 0, 81, 71
2, 452981, Note_on_c, 0, 63, 44
2, 453005, Note_on_c, 0, 87, 0
2, 453101, Note_on_c, 0, 81, 0
2, 453121, Note_on_c, 0, 77, 69
2, 453185, Note_on_c, 0, 77, 0
2, 453241, Note_on_c, 0, 53, 41
2, 453249, Note_on_c, 0, 63, 0
2, 453285, Note_on_c, 0, 75, 54
2, 453317, Note_on_c, 0, 53, 0
2, 453365, Note_on_c, 0, 75, 0
2, 453413, Note_on_c, 0, 69, 59
2, 453493, Note_on_c, 0, 69, 0
2, 453553, Control_c, 0, 64, 88
2, 453565, Control_c, 0, 64, 24
2, 453581, Control_c, 0, 64, 0
2, 453597, Note_on_c, 0, 41, 57
2, 453649, Control_c, 0, 64, 24
2, 453661, Control_c, 0, 64, 88
2, 453677, Control_c, 0, 64, 127
2, 453685, Note_on_c, 0, 41, 0
2, 453833, Note_on_c, 0, 69, 64
2, 453861, Control_c, 0, 64, 88
2, 453873, Control_c, 0, 64, 0
2, 453893, Note_on_c, 0, 69, 0
2, 453901, Note_on_c, 0, 63, 75
2, 453905, Note_on_c, 0, 57, 49
2, 453913, Note_on_c, 0, 60, 44
2, 453957, Note_on_c, 0, 63, 0
2, 453957, Control_c, 0, 64, 24
2, 453969, Control_c, 0, 64, 72
2, 453985, Control_c, 0, 64, 104
2, 453997, Control_c, 0, 64, 127
2, 454121, Note_on_c, 0, 72, 65
2, 454137, Control_c, 0, 64, 72
2, 454153, Control_c, 0, 64, 0
2, 454193, Note_on_c, 0, 71, 81
2, 454197, Note_on_c, 0, 72, 0
2, 454213, Note_on_c, 0, 56, 56
2, 454237, Control_c, 0, 64, 40
2, 454245, Note_on_c, 0, 57, 0
2, 454249, Control_c, 0, 64, 88
2, 454261, Control_c, 0, 64, 127
2, 454273, Note_on_c, 0, 60, 0
2, 454281, Note_on_c, 0, 56, 0
2, 454393, Note_on_c, 0, 71, 0
2, 454405, Note_on_c, 0, 74, 74
2, 454461, Note_on_c, 0, 74, 0
2, 454521, Note_on_c, 0, 72, 73
2, 454541, Control_c, 0, 64, 88
2, 454557, Control_c, 0, 64, 24
2, 454569, Control_c, 0, 64, 0
2, 454581, Note_on_c, 0, 36, 55
2, 454613, Control_c, 0, 64, 24
2, 454625, Control_c, 0, 64, 88
2, 454641, Control_c, 0, 64, 127
2, 454649, Note_on_c, 0, 36, 0
2, 454693, Note_on_c, 0, 72, 0
2, 454713, Note_on_c, 0, 80, 83
2, 454797, Note_on_c, 0, 80, 0
2, 454849, Note_on_c, 0, 55, 57
2, 454853, Note_on_c, 0, 79, 86
2, 454865, Note_on_c, 0, 60, 48
2, 454997, Note_on_c, 0, 75, 78
2, 455133, Note_on_c, 0, 79, 0
2, 455137, Note_on_c, 0, 72, 74
2, 455141, Note_on_c, 0, 75, 0
2, 455149, Note_on_c, 0, 48, 48
2, 455169, Note_on_c, 0, 55, 0
2, 455169, Note_on_c, 0, 60, 0
2, 455205, Note_on_c, 0, 72, 0
2, 455213, Note_on_c, 0, 48, 0
2, 455285, Note_on_c, 0, 67, 82
2, 455365, Note_on_c, 0, 67, 0
2, 455433, Note_on_c, 0, 70, 72
2, 455473, Note_on_c, 0, 41, 52
2, 455477, Control_c, 0, 64, 40
2, 455489, Control_c, 0, 64, 0
2, 455561, Control_c, 0, 64, 24
2, 455573, Control_c, 0, 64, 88
2, 455581, Note_on_c, 0, 70, 0
2, 455589, Note_on_c, 0, 68, 77
2, 455589, Control_c, 0, 64, 127
2, 455593, Note_on_c, 0, 41, 0
2, 455709, Note_on_c, 0, 68, 0
2, 455729, Control_c, 0, 64, 104
2, 455741, Control_c, 0, 64, 40
2, 455745, Note_on_c, 0, 65, 72
2, 455753, Control_c, 0, 64, 0
2, 455761, Note_on_c, 0, 56, 60
2, 455813, Control_c, 0, 64, 56
2, 455825, Control_c, 0, 64, 104
2, 455841, Control_c, 0, 64, 127
2, 455849, Note_on_c, 0, 65, 0
2, 455885, Note_on_c, 0, 62, 70
2, 456013, Note_on_c, 0, 62, 0
2, 456041, Note_on_c, 0, 72, 82
2, 456053, Note_on_c, 0, 55, 66
2, 456069, Note_on_c, 0, 56, 0
2, 456109, Note_on_c, 0, 55, 0
2, 456141, Note_on_c, 0, 72, 0
2, 456181, Note_on_c, 0, 71, 73
2, 456341, Note_on_c, 0, 65, 73
2, 456345, Note_on_c, 0, 71, 0
2, 456353, Control_c, 0, 64, 56
2, 456369, Note_on_c, 0, 43, 55
2, 456369, Control_c, 0, 64, 0
2, 456453, Control_c, 0, 64, 40
2, 456465, Control_c, 0, 64, 88
2, 456473, Note_on_c, 0, 65, 0
2, 456481, Control_c, 0, 64, 127
2, 456493, Note_on_c, 0, 62, 73
2, 456549, Control_c, 0, 64, 56
2, 456565, Control_c, 0, 64, 0
2, 456633, Control_c, 0, 64, 24
2, 456649, Note_on_c, 0, 48, 50
2, 456649, Note_on_c, 0, 74, 70
2, 456649, Control_c, 0, 64, 72
2, 456661, Control_c, 0, 64, 104
2, 456677, Note_on_c, 0, 43, 0
2, 456677, Control_c, 0, 64, 127
2, 456681, Note_on_c, 0, 62, 0
2, 456773, Note_on_c, 0, 74, 0
2, 456813, Note_on_c, 0, 72, 70
2, 456953, Note_on_c, 0, 72, 0
2, 456969, Control_c, 0, 64, 104
2, 456973, Note_on_c, 0, 67, 57
2, 456981, Control_c, 0, 64, 56
2, 456997, Control_c, 0, 64, 0
2, 457005, Note_on_c, 0, 36, 46
2, 457037, Note_on_c, 0, 48, 0
2, 457065, Note_on_c, 0, 36, 0
2, 457077, Control_c, 0, 64, 56
2, 457093, Control_c, 0, 64, 104
2, 457109, Control_c, 0, 64, 127
2, 457125, Note_on_c, 0, 67, 0
2, 457161, Note_on_c, 0, 63, 56
2, 457221, Note_on_c, 0, 63, 0
2, 457305, Control_c, 0, 64, 104
2, 457317, Control_c, 0, 64, 40
2, 457329, Control_c, 0, 64, 0
2, 457369, Note_on_c, 0, 48, 62
2, 457401, Note_on_c, 0, 48, 0
2, 457401, Control_c, 0, 64, 24
2, 457413, Control_c, 0, 64, 72
2, 457429, Control_c, 0, 64, 127
2, 457557, Note_on_c, 0, 75, 71
2, 457597, Control_c, 0, 64, 104
2, 457609, Control_c, 0, 64, 56
2, 457625, Note_on_c, 0, 75, 0
2, 457625, Control_c, 0, 64, 0
2, 457641, Note_on_c, 0, 69, 86
2, 457661, Note_on_c, 0, 60, 56
2, 457661, Note_on_c, 0, 67, 52
2, 457709, Control_c, 0, 64, 56
2, 457713, Note_on_c, 0, 69, 0
2, 457721, Control_c, 0, 64, 104
2, 457733, Control_c, 0, 64, 127
2, 457873, Control_c, 0, 64, 104
2, 457885, Note_on_c, 0, 79, 84
2, 457889, Control_c, 0, 64, 56
2, 457901, Control_c, 0, 64, 0
2, 457957, Control_c, 0, 64, 56
2, 457965, Note_on_c, 0, 79, 0
2, 457969, Note_on_c, 0, 78, 95
2, 457973, Note_on_c, 0, 57, 38
2, 457973, Control_c, 0, 64, 104
2, 457981, Note_on_c, 0, 67, 0
2, 457985, Control_c, 0, 64, 127
2, 458001, Note_on_c, 0, 60, 0
2, 458029, Note_on_c, 0, 57, 0
2, 458129, Note_on_c, 0, 78, 0
2, 458153, Note_on_c, 0, 81, 80
2, 458213, Note_on_c, 0, 81, 0
2, 458265, Control_c, 0, 64, 72
2, 458277, Control_c, 0, 64, 0
2, 458293, Note_on_c, 0, 79, 87
2, 458317, Note_on_c, 0, 43, 53
2, 458349, Control_c, 0, 64, 40
2, 458361, Control_c, 0, 64, 127
2, 458369, Note_on_c, 0, 43, 0
2, 458421, Note_on_c, 0, 79, 0
2, 458449, Note_on_c, 0, 87, 85
2, 458533, Note_on_c, 0, 87, 0
2, 458585, Note_on_c, 0, 86, 87
2, 458613, Note_on_c, 0, 67, 54
2, 458625, Note_on_c, 0, 58, 39
2, 458733, Note_on_c, 0, 82, 72
2, 458861, Note_on_c, 0, 86, 0
2, 458873, Note_on_c, 0, 79, 79
2, 458877, Note_on_c, 0, 82, 0
2, 458877, Note_on_c, 0, 55, 49
2, 458893, Note_on_c, 0, 67, 0
2, 458941, Note_on_c, 0, 79, 0
2, 458941, Note_on_c, 0, 58, 0
2, 458949, Note_on_c, 0, 55, 0
2, 459025, Note_on_c, 0, 74, 87
2, 459097, Note_on_c, 0, 74, 0
2, 459173, Note_on_c, 0, 77, 87
2, 459185, Control_c, 0, 64, 104
2, 459201, Note_on_c, 0, 48, 56
2, 459201, Control_c, 0, 64, 24
2, 459213, Control_c, 0, 64, 0
2, 459265, Note_on_c, 0, 48, 0
2, 459281, Control_c, 0, 64, 40
2, 459297, Control_c, 0, 64, 104
2, 459301, Note_on_c, 0, 77, 0
2, 459309, Control_c, 0, 64, 127
2, 459325, Note_on_c, 0, 75, 83
2, 459453, Note_on_c, 0, 75, 0
2, 459481, Note_on_c, 0, 72, 81
2, 459481, Note_on_c, 0, 63, 49
2, 459593, Note_on_c, 0, 72, 0
2, 459621, Note_on_c, 0, 69, 74
2, 459765, Note_on_c, 0, 62, 56
2, 459769, Note_on_c, 0, 69, 0
2, 459777, Note_on_c, 0, 79, 84
2, 459793, Note_on_c, 0, 62, 0
2, 459797, Note_on_c, 0, 63, 0
2, 459885, Note_on_c, 0, 79, 0
2, 459929, Note_on_c, 0, 78, 76
2, 460077, Control_c, 0, 64, 72
2, 460081, Note_on_c, 0, 78, 0
2, 460089, Note_on_c, 0, 72, 76
2, 460089, Control_c, 0, 64, 0
2, 460113, Note_on_c, 0, 50, 51
2, 460173, Control_c, 0, 64, 56
2, 460189, Control_c, 0, 64, 127
2, 460217, Note_on_c, 0, 72, 0
2, 460241, Note_on_c, 0, 69, 70
2, 460357, Control_c, 0, 64, 56
2, 460361, Note_on_c, 0, 69, 0
2, 460369, Control_c, 0, 64, 0
2, 460397, Note_on_c, 0, 50, 0
2, 460429, Note_on_c, 0, 81, 78
2, 460445, Note_on_c, 0, 52, 52
2, 460465, Control_c, 0, 64, 56
2, 460481, Control_c, 0, 64, 127
2, 460517, Note_on_c, 0, 52, 0
2, 460561, Note_on_c, 0, 81, 0
2, 460629, Note_on_c, 0, 79, 73
2, 460757, Note_on_c, 0, 79, 0
2, 460825, Note_on_c, 0, 73, 58
2, 460845, Control_c, 0, 64, 104
2, 460849, Note_on_c, 0, 67, 30
2, 460853, Note_on_c, 0, 58, 25
2, 460853, Note_on_c, 0, 61, 26
2, 460857, Control_c, 0, 64, 24
2, 460873, Control_c, 0, 64, 0
2, 460969, Control_c, 0, 64, 24
2, 460973, Note_on_c, 0, 67, 0
2, 460985, Control_c, 0, 64, 88
2, 460997, Control_c, 0, 64, 127
2, 461021, Note_on_c, 0, 61, 0
2, 461033, Note_on_c, 0, 58, 0
2, 461077, Note_on_c, 0, 73, 0
2, 461085, Note_on_c, 0, 70, 49
2, 461141, Note_on_c, 0, 70, 0
2, 461305, Control_c, 0, 64, 88
2, 461317, Control_c, 0, 64, 0
2, 461325, Note_on_c, 0, 41, 58
2, 461389, Control_c, 0, 64, 24
2, 461401, Control_c, 0, 64, 88
2, 461417, Control_c, 0, 64, 127
2, 461425, Note_on_c, 0, 41, 0
2, 461541, Control_c, 0, 64, 104
2, 461553, Control_c, 0, 64, 56
2, 461565, Note_on_c, 0, 69, 66
2, 461569, Control_c, 0, 64, 0
2, 461641, Note_on_c, 0, 69, 0
2, 461641, Note_on_c, 0, 63, 76
2, 461645, Note_on_c, 0, 57, 59
2, 461681, Control_c, 0, 64, 40
2, 461697, Note_on_c, 0, 63, 0
2, 461697, Control_c, 0, 64, 56
2, 461749, Control_c, 0, 64, 40
2, 461777, Control_c, 0, 64, 24
2, 461873, Control_c, 0, 64, 0
2, 461897, Note_on_c, 0, 72, 71
2, 461953, Note_on_c, 0, 48, 61
2, 461965, Note_on_c, 0, 72, 0
2, 461965, Note_on_c, 0, 71, 82
2, 462029, Note_on_c, 0, 57, 0
2, 462057, Note_on_c, 0, 48, 0
2, 462145, Note_on_c, 0, 71, 0
2, 462221, Note_on_c, 0, 74, 63
2, 462285, Note_on_c, 0, 72, 92
2, 462301, Note_on_c, 0, 41, 53
2, 462313, Note_on_c, 0, 74, 0
2, 462321, Control_c, 0, 64, 40
2, 462329, Note_on_c, 0, 41, 0
2, 462329, Note_on_c, 0, 72, 0
2, 462337, Control_c, 0, 64, 88
2, 462349, Control_c, 0, 64, 127
2, 462549, Note_on_c, 0, 91, 89
2, 462557, Note_on_c, 0, 79, 69
2, 462573, Note_on_c, 0, 91, 0
2, 462581, Note_on_c, 0, 79, 0
2, 462581, Note_on_c, 0, 67, 59
2, 462589, Control_c, 0, 64, 56
2, 462601, Control_c, 0, 64, 0
2, 462629, Note_on_c, 0, 89, 105
2, 462633, Note_on_c, 0, 77, 107
2, 462657, Note_on_c, 0, 65, 61
2, 462661, Note_on_c, 0, 67, 0
2, 462685, Control_c, 0, 64, 56
2, 462697, Control_c, 0, 64, 127
2, 462721, Note_on_c, 0, 65, 0
2, 462977, Note_on_c, 0, 57, 55
2, 462977, Note_on_c, 0, 53, 49
2, 463013, Note_on_c, 0, 53, 0
2, 463021, Note_on_c, 0, 89, 0
2, 463029, Note_on_c, 0, 57, 0
2, 463065, Note_on_c, 0, 77, 0
2, 463257, Control_c, 0, 64, 88
2, 463269, Control_c, 0, 64, 0
2, 463305, Note_on_c, 0, 46, 58
2, 463369, Control_c, 0, 64, 24
2, 463381, Control_c, 0, 64, 56
2, 463397, Control_c, 0, 64, 88
2, 463409, Control_c, 0, 64, 104
2, 463413, Note_on_c, 0, 46, 0
2, 463521, Control_c, 0, 64, 72
2, 463533, Control_c, 0, 64, 24
2, 463537, Note_on_c, 0, 64, 62
2, 463549, Control_c, 0, 64, 0
2, 463597, Note_on_c, 0, 65, 81
2, 463597, Note_on_c, 0, 62, 62
2, 463613, Note_on_c, 0, 64, 0
2, 463757, Control_c, 0, 64, 40
2, 463829, Note_on_c, 0, 70, 65
2, 463833, Note_on_c, 0, 65, 0
2, 463873, Note_on_c, 0, 70, 0
2, 463897, Control_c, 0, 64, 24
2, 463913, Note_on_c, 0, 74, 93
2, 463917, Note_on_c, 0, 53, 50
2, 464045, Note_on_c, 0, 62, 0
2, 464081, Note_on_c, 0, 74, 0
2, 464117, Note_on_c, 0, 77, 81
2, 464149, Control_c, 0, 64, 0
2, 464209, Note_on_c, 0, 77, 0
2, 464217, Note_on_c, 0, 53, 0
2, 464217, Note_on_c, 0, 86, 92
2, 464237, Note_on_c, 0, 46, 58
2, 464245, Control_c, 0, 64, 56
2, 464261, Control_c, 0, 64, 104
2, 464273, Control_c, 0, 64, 127
2, 464281, Note_on_c, 0, 46, 0
2, 464397, Note_on_c, 0, 86, 0
2, 464465, Note_on_c, 0, 84, 74
2, 464481, Control_c, 0, 64, 104
2, 464497, Control_c, 0, 64, 56
2, 464513, Control_c, 0, 64, 0
2, 464537, Note_on_c, 0, 82, 80
2, 464553, Note_on_c, 0, 58, 47
2, 464561, Note_on_c, 0, 84, 0
2, 464561, Note_on_c, 0, 63, 44
2, 464569, Note_on_c, 0, 55, 54
2, 464581, Control_c, 0, 64, 24
2, 464593, Note_on_c, 0, 55, 0
2, 464593, Control_c, 0, 64, 72
2, 464605, Note_on_c, 0, 82, 0
2, 464609, Control_c, 0, 64, 127
2, 464613, Note_on_c, 0, 63, 0
2, 464625, Note_on_c, 0, 58, 0
2, 464817, Note_on_c, 0, 79, 70
2, 464845, Control_c, 0, 64, 88
2, 464861, Control_c, 0, 64, 40
2, 464873, Control_c, 0, 64, 0
2, 464905, Note_on_c, 0, 60, 40
2, 464913, Note_on_c, 0, 79, 0
2, 464913, Note_on_c, 0, 65, 40
2, 464913, Note_on_c, 0, 77, 71
2, 464913, Note_on_c, 0, 57, 40
2, 465001, Control_c, 0, 64, 88
2, 465013, Control_c, 0, 64, 127
2, 465045, Note_on_c, 0, 65, 0
2, 465045, Note_on_c, 0, 60, 0
2, 465069, Note_on_c, 0, 57, 0
2, 465109, Note_on_c, 0, 77, 0
2, 465237, Control_c, 0, 64, 72
2, 465249, Control_c, 0, 64, 0
2, 465289, Note_on_c, 0, 46, 51
2, 465333, Control_c, 0, 64, 56
2, 465349, Control_c, 0, 64, 127
2, 465429, Note_on_c, 0, 46, 0
2, 465473, Control_c, 0, 64, 104
2, 465485, Control_c, 0, 64, 40
2, 465501, Control_c, 0, 64, 0
2, 465509, Note_on_c, 0, 74, 72
2, 465569, Control_c, 0, 64, 56
2, 465573, Note_on_c, 0, 68, 81
2, 465581, Note_on_c, 0, 62, 60
2, 465585, Control_c, 0, 64, 88
2, 465597, Note_on_c, 0, 74, 0
2, 465597, Control_c, 0, 64, 127
2, 465645, Note_on_c, 0, 68, 0
2, 465765, Control_c, 0, 64, 104
2, 465781, Control_c, 0, 64, 88
2, 465793, Control_c, 0, 64, 72
2, 465809, Control_c, 0, 64, 24
2, 465817, Note_on_c, 0, 77, 69
2, 465821, Control_c, 0, 64, 0
2, 465877, Note_on_c, 0, 76, 93
2, 465885, Note_on_c, 0, 53, 60
2, 465889, Note_on_c, 0, 77, 0
2, 465905, Control_c, 0, 64, 56
2, 465917, Note_on_c, 0, 62, 0
2, 465921, Control_c, 0, 64, 104
2, 465933, Control_c, 0, 64, 127
2, 465949, Note_on_c, 0, 53, 0
2, 466061, Note_on_c, 0, 76, 0
2, 466085, Control_c, 0, 64, 88
2, 466097, Note_on_c, 0, 79, 74
2, 466101, Control_c, 0, 64, 56
2, 466113, Control_c, 0, 64, 0
2, 466173, Note_on_c, 0, 77, 99
2, 466185, Note_on_c, 0, 46, 67
2, 466205, Note_on_c, 0, 79, 0
2, 466213, Note_on_c, 0, 77, 0
2, 466213, Control_c, 0, 64, 40
2, 466225, Control_c, 0, 64, 104
2, 466229, Note_on_c, 0, 46, 0
2, 466241, Control_c, 0, 64, 127
2, 466433, Note_on_c, 0, 96, 88
2, 466433, Note_on_c, 0, 84, 70
2, 466457, Note_on_c, 0, 72, 73
2, 466465, Note_on_c, 0, 96, 0
2, 466477, Control_c, 0, 64, 72
2, 466489, Note_on_c, 0, 84, 0
2, 466489, Control_c, 0, 64, 0
2, 466509, Note_on_c, 0, 94, 99
2, 466513, Note_on_c, 0, 82, 100
2, 466545, Note_on_c, 0, 70, 64
2, 466561, Note_on_c, 0, 72, 0
2, 466561, Control_c, 0, 64, 56
2, 466573, Control_c, 0, 64, 127
2, 466597, Note_on_c, 0, 70, 0
2, 466777, Note_on_c, 0, 82, 0
2, 466781, Note_on_c, 0, 94, 0
2, 466845, Note_on_c, 0, 58, 48
2, 466857, Note_on_c, 0, 62, 52
2, 466881, Note_on_c, 0, 62, 0
2, 466917, Note_on_c, 0, 58, 0
2, 467117, Control_c, 0, 64, 104
2, 467133, Control_c, 0, 64, 40
2, 467145, Control_c, 0, 64, 0
2, 467169, Note_on_c, 0, 51, 62
2, 467217, Control_c, 0, 64, 24
2, 467229, Control_c, 0, 64, 72
2, 467245, Note_on_c, 0, 51, 0
2, 467245, Control_c, 0, 64, 127
2, 467397, Control_c, 0, 64, 72
2, 467401, Note_on_c, 0, 69, 63
2, 467413, Control_c, 0, 64, 0
2, 467441, Note_on_c, 0, 67, 63
2, 467457, Note_on_c, 0, 70, 85
2, 467477, Note_on_c, 0, 69, 0
2, 467509, Control_c, 0, 64, 56
2, 467521, Control_c, 0, 64, 104
2, 467537, Control_c, 0, 64, 127
2, 467677, Note_on_c, 0, 75, 69
2, 467685, Note_on_c, 0, 70, 0
2, 467721, Note_on_c, 0, 75, 0
2, 467753, Note_on_c, 0, 58, 47
2, 467769, Note_on_c, 0, 67, 0
2, 467769, Note_on_c, 0, 79, 93
2, 467781, Note_on_c, 0, 58, 0
2, 467921, Note_on_c, 0, 79, 0
2, 467957, Note_on_c, 0, 82, 73
2, 468013, Control_c, 0, 64, 104
2, 468025, Control_c, 0, 64, 56
2, 468033, Note_on_c, 0, 82, 0
2, 468037, Control_c, 0, 64, 0
2, 468069, Note_on_c, 0, 91, 102
2, 468073, Note_on_c, 0, 79, 80
2, 468073, Note_on_c, 0, 83, 92
2, 468081, Note_on_c, 0, 55, 62
2, 468089, Note_on_c, 0, 50, 62
2, 468113, Note_on_c, 0, 50, 0
2, 468113, Note_on_c, 0, 55, 0
2, 468121, Control_c, 0, 64, 72
2, 468129, Note_on_c, 0, 79, 0
2, 468137, Control_c, 0, 64, 127
2, 468145, Note_on_c, 0, 83, 0
2, 468161, Note_on_c, 0, 91, 0
2, 468305, Note_on_c, 0, 92, 91
2, 468309, Note_on_c, 0, 80, 90
2, 468313, Note_on_c, 0, 68, 80
2, 468333, Note_on_c, 0, 80, 0
2, 468333, Note_on_c, 0, 92, 0
2, 468349, Note_on_c, 0, 79, 24
2, 468361, Note_on_c, 0, 68, 0
2, 468373, Note_on_c, 0, 79, 0
2, 468389, Control_c, 0, 64, 88
2, 468397, Note_on_c, 0, 79, 99
2, 468397, Note_on_c, 0, 91, 110
2, 468401, Control_c, 0, 64, 24
2, 468417, Control_c, 0, 64, 0
2, 468421, Note_on_c, 0, 67, 83
2, 468485, Control_c, 0, 64, 72
2, 468497, Note_on_c, 0, 67, 0
2, 468497, Control_c, 0, 64, 127
2, 468741, Note_on_c, 0, 55, 52
2, 468745, Note_on_c, 0, 59, 46
2, 468777, Note_on_c, 0, 59, 0
2, 468781, Note_on_c, 0, 91, 0
2, 468789, Note_on_c, 0, 55, 0
2, 468801, Note_on_c, 0, 79, 0
2, 469001, Control_c, 0, 64, 72
2, 469017, Control_c, 0, 64, 0
2, 469057, Note_on_c, 0, 48, 61
2, 469125, Control_c, 0, 64, 56
2, 469133, Note_on_c, 0, 48, 0
2, 469141, Control_c, 0, 64, 88
2, 469153, Control_c, 0, 64, 127
2, 469253, Control_c, 0, 64, 104
2, 469265, Control_c, 0, 64, 56
2, 469277, Control_c, 0, 64, 0
2, 469289, Note_on_c, 0, 67, 64
2, 469341, Note_on_c, 0, 63, 65
2, 469369, Note_on_c, 0, 72, 82
2, 469373, Note_on_c, 0, 67, 0
2, 469405, Control_c, 0, 64, 56
2, 469417, Control_c, 0, 64, 88
2, 469433, Control_c, 0, 64, 104
2, 469445, Control_c, 0, 64, 127
2, 469565, Note_on_c, 0, 72, 0
2, 469569, Note_on_c, 0, 75, 72
2, 469609, Note_on_c, 0, 75, 0
2, 469629, Note_on_c, 0, 55, 63
2, 469653, Note_on_c, 0, 55, 0
2, 469653, Note_on_c, 0, 63, 0
2, 469665, Note_on_c, 0, 79, 88
2, 469745, Note_on_c, 0, 79, 0
2, 469845, Note_on_c, 0, 84, 85
2, 469877, Control_c, 0, 64, 88
2, 469893, Control_c, 0, 64, 24
2, 469909, Note_on_c, 0, 84, 0
2, 469909, Control_c, 0, 64, 0
2, 469937, Note_on_c, 0, 46, 61
2, 469945, Note_on_c, 0, 87, 93
2, 469965, Note_on_c, 0, 46, 0
2, 469977, Control_c, 0, 64, 40
2, 469989, Control_c, 0, 64, 104
2, 470005, Control_c, 0, 64, 127
2, 470041, Note_on_c, 0, 87, 0
2, 470173, Note_on_c, 0, 91, 89
2, 470173, Note_on_c, 0, 79, 89
2, 470177, Note_on_c, 0, 67, 64
2, 470181, Note_on_c, 0, 55, 58
2, 470201, Note_on_c, 0, 55, 0
2, 470201, Note_on_c, 0, 67, 0
2, 470201, Note_on_c, 0, 79, 0
2, 470205, Note_on_c, 0, 91, 0
2, 470229, Control_c, 0, 64, 104
2, 470241, Control_c, 0, 64, 0
2, 470253, Note_on_c, 0, 90, 95
2, 470265, Note_on_c, 0, 78, 96
2, 470269, Note_on_c, 0, 66, 80
2, 470273, Note_on_c, 0, 54, 73
2, 470325, Control_c, 0, 64, 72
2, 470341, Control_c, 0, 64, 127
2, 470349, Note_on_c, 0, 54, 0
2, 470357, Note_on_c, 0, 66, 0
2, 470633, Note_on_c, 0, 58, 59
2, 470645, Note_on_c, 0, 46, 53
2, 470701, Note_on_c, 0, 46, 0
2, 470709, Note_on_c, 0, 90, 0
2, 470721, Note_on_c, 0, 78, 0
2, 470765, Note_on_c, 0, 58, 0
2, 470913, Control_c, 0, 64, 72
2, 470925, Control_c, 0, 64, 0
2, 470953, Note_on_c, 0, 45, 62
2, 470961, Note_on_c, 0, 57, 57
2, 471009, Control_c, 0, 64, 24
2, 471013, Note_on_c, 0, 45, 0
2, 471025, Note_on_c, 0, 57, 0
2, 471025, Control_c, 0, 64, 56
2, 471037, Control_c, 0, 64, 104
2, 471049, Control_c, 0, 64, 127
2, 471149, Control_c, 0, 64, 104
2, 471161, Control_c, 0, 64, 40
2, 471177, Note_on_c, 0, 65, 63
2, 471177, Control_c, 0, 64, 0
2, 471245, Note_on_c, 0, 63, 56
2, 471253, Note_on_c, 0, 72, 71
2, 471269, Note_on_c, 0, 65, 0
2, 471285, Control_c, 0, 64, 24
2, 471301, Control_c, 0, 64, 56
2, 471313, Control_c, 0, 64, 72
2, 471329, Control_c, 0, 64, 88
2, 471345, Control_c, 0, 64, 104
2, 471401, Control_c, 0, 64, 127
2, 471433, Note_on_c, 0, 72, 0
2, 471449, Note_on_c, 0, 75, 61
2, 471469, Control_c, 0, 64, 104
2, 471489, Note_on_c, 0, 75, 0
2, 471537, Note_on_c, 0, 53, 58
2, 471545, Note_on_c, 0, 63, 0
2, 471557, Note_on_c, 0, 77, 68
2, 471569, Note_on_c, 0, 53, 0
2, 471621, Note_on_c, 0, 77, 0
2, 471725, Note_on_c, 0, 84, 80
2, 471749, Control_c, 0, 64, 88
2, 471761, Control_c, 0, 64, 40
2, 471777, Control_c, 0, 64, 0
2, 471789, Note_on_c, 0, 84, 0
2, 471833, Note_on_c, 0, 87, 89
2, 471849, Note_on_c, 0, 46, 44
2, 471857, Control_c, 0, 64, 40
2, 471869, Note_on_c, 0, 46, 0
2, 471873, Control_c, 0, 64, 88
2, 471889, Control_c, 0, 64, 127
2, 471913, Note_on_c, 0, 87, 0
2, 472057, Note_on_c, 0, 91, 87
2, 472061, Note_on_c, 0, 79, 86
2, 472061, Note_on_c, 0, 55, 71
2, 472065, Note_on_c, 0, 67, 59
2, 472081, Note_on_c, 0, 91, 0
2, 472085, Note_on_c, 0, 79, 0
2, 472089, Note_on_c, 0, 55, 0
2, 472089, Note_on_c, 0, 67, 0
2, 472097, Control_c, 0, 64, 88
2, 472109, Control_c, 0, 64, 0
2, 472133, Note_on_c, 0, 90, 99
2, 472145, Note_on_c, 0, 78, 105
2, 472165, Note_on_c, 0, 66, 65
2, 472169, Note_on_c, 0, 54, 70
2, 472189, Note_on_c, 0, 66, 0
2, 472193, Note_on_c, 0, 54, 0
2, 472193, Control_c, 0, 64, 72
2, 472209, Control_c, 0, 64, 127
2, 472485, Note_on_c, 0, 58, 67
2, 472505, Note_on_c, 0, 46, 43
2, 472529, Note_on_c, 0, 90, 0
2, 472545, Note_on_c, 0, 78, 0
2, 472641, Note_on_c, 0, 46, 0
2, 472645, Note_on_c, 0, 58, 0
2, 472781, Control_c, 0, 64, 88
2, 472793, Control_c, 0, 64, 24
2, 472809, Control_c, 0, 64, 0
2, 472825, Note_on_c, 0, 45, 68
2, 472825, Note_on_c, 0, 57, 63
2, 472889, Control_c, 0, 64, 56
2, 472905, Control_c, 0, 64, 104
2, 472913, Note_on_c, 0, 45, 0
2, 472917, Control_c, 0, 64, 127
2, 472949, Note_on_c, 0, 57, 0
2, 473037, Note_on_c, 0, 65, 70
2, 473045, Control_c, 0, 64, 56
2, 473057, Control_c, 0, 64, 0
2, 473109, Note_on_c, 0, 63, 64
2, 473113, Note_on_c, 0, 72, 81
2, 473141, Control_c, 0, 64, 40
2, 473157, Control_c, 0, 64, 72
2, 473161, Note_on_c, 0, 65, 0
2, 473169, Control_c, 0, 64, 104
2, 473185, Control_c, 0, 64, 127
2, 473301, Note_on_c, 0, 75, 79
2, 473305, Note_on_c, 0, 72, 0
2, 473345, Note_on_c, 0, 75, 0
2, 473401, Note_on_c, 0, 53, 57
2, 473409, Note_on_c, 0, 77, 74
2, 473493, Note_on_c, 0, 63, 0
2, 473581, Note_on_c, 0, 84, 71
2, 473661, Note_on_c, 0, 77, 0
2, 473677, Note_on_c, 0, 84, 0
2, 473693, Note_on_c, 0, 87, 89
2, 473693, Note_on_c, 0, 46, 54
2, 473701, Control_c, 0, 64, 72
2, 473713, Control_c, 0, 64, 0
2, 473717, Note_on_c, 0, 53, 0
2, 473781, Note_on_c, 0, 46, 0
2, 473797, Control_c, 0, 64, 40
2, 473809, Control_c, 0, 64, 88
2, 473825, Control_c, 0, 64, 127
2, 473897, Note_on_c, 0, 87, 0
2, 473937, Note_on_c, 0, 89, 84
2, 473989, Control_c, 0, 64, 104
2, 474005, Note_on_c, 0, 85, 84
2, 474005, Control_c, 0, 64, 56
2, 474017, Note_on_c, 0, 62, 52
2, 474021, Control_c, 0, 64, 0
2, 474025, Note_on_c, 0, 89, 0
2, 474025, Note_on_c, 0, 77, 69
2, 474061, Control_c, 0, 64, 40
2, 474077, Control_c, 0, 64, 88
2, 474089, Control_c, 0, 64, 127
2, 474105, Note_on_c, 0, 85, 0
2, 474221, Note_on_c, 0, 77, 0
2, 474249, Note_on_c, 0, 86, 74
2, 474321, Note_on_c, 0, 86, 0
2, 474325, Note_on_c, 0, 81, 77
2, 474329, Note_on_c, 0, 54, 63
2, 474329, Control_c, 0, 64, 88
2, 474341, Control_c, 0, 64, 24
2, 474353, Control_c, 0, 64, 0
2, 474397, Note_on_c, 0, 62, 0
2, 474397, Note_on_c, 0, 74, 12
2, 474425, Control_c, 0, 64, 56
2, 474437, Control_c, 0, 64, 88
2, 474453, Control_c, 0, 64, 127
2, 474513, Note_on_c, 0, 81, 0
2, 474553, Note_on_c, 0, 74, 0
2, 474573, Note_on_c, 0, 82, 71
2, 474625, Note_on_c, 0, 54, 0
2, 474649, Control_c, 0, 64, 104
2, 474657, Note_on_c, 0, 55, 68
2, 474661, Note_on_c, 0, 82, 0
2, 474661, Control_c, 0, 64, 24
2, 474665, Note_on_c, 0, 51, 47
2, 474673, Note_on_c, 0, 78, 70
2, 474677, Control_c, 0, 64, 0
2, 474709, Note_on_c, 0, 70, 49
2, 474757, Note_on_c, 0, 78, 0
2, 474761, Control_c, 0, 64, 40
2, 474773, Control_c, 0, 64, 72
2, 474789, Control_c, 0, 64, 127
2, 474837, Note_on_c, 0, 70, 0
2, 474913, Note_on_c, 0, 79, 72
2, 474969, Control_c, 0, 64, 88
2, 474981, Note_on_c, 0, 79, 0
2, 474981, Control_c, 0, 64, 24
2, 474985, Note_on_c, 0, 55, 0
2, 474993, Note_on_c, 0, 51, 0
2, 474993, Note_on_c, 0, 58, 72
2, 474997, Note_on_c, 0, 74, 62
2, 474997, Control_c, 0, 64, 0
2, 475001, Note_on_c, 0, 67, 50
2, 475081, Control_c, 0, 64, 40
2, 475093, Control_c, 0, 64, 72
2, 475109, Control_c, 0, 64, 104
2, 475121, Control_c, 0, 64, 127
2, 475125, Note_on_c, 0, 67, 0
2, 475177, Note_on_c, 0, 74, 0
2, 475209, Note_on_c, 0, 75, 62
2, 475273, Note_on_c, 0, 75, 0
2, 475273, Control_c, 0, 64, 104
2, 475289, Control_c, 0, 64, 56
2, 475301, Control_c, 0, 64, 0
2, 475317, Note_on_c, 0, 57, 67
2, 475325, Note_on_c, 0, 58, 0
2, 475333, Note_on_c, 0, 71, 63
2, 475337, Note_on_c, 0, 53, 49
2, 475341, Note_on_c, 0, 63, 48
2, 475401, Control_c, 0, 64, 24
2, 475413, Control_c, 0, 64, 72
2, 475429, Control_c, 0, 64, 88
2, 475437, Note_on_c, 0, 71, 0
2, 475441, Control_c, 0, 64, 127
2, 475473, Note_on_c, 0, 63, 0
2, 475549, Note_on_c, 0, 72, 65
2, 475569, Control_c, 0, 64, 88
2, 475581, Control_c, 0, 64, 56
2, 475593, Control_c, 0, 64, 24
2, 475609, Control_c, 0, 64, 0
2, 475613, Note_on_c, 0, 72, 0
2, 475629, Note_on_c, 0, 57, 0
2, 475641, Note_on_c, 0, 58, 57
2, 475661, Note_on_c, 0, 62, 55
2, 475665, Note_on_c, 0, 70, 61
2, 475681, Note_on_c, 0, 53, 0
2, 475721, Control_c, 0, 64, 88
2, 475725, Note_on_c, 0, 62, 0
2, 475737, Control_c, 0, 64, 127
2, 475741, Note_on_c, 0, 58, 0
2, 475773, Note_on_c, 0, 70, 0
2, 475985, Control_c, 0, 64, 104
2, 475997, Control_c, 0, 64, 40
2, 476013, Control_c, 0, 64, 0
2, 476029, Note_on_c, 0, 82, 65
2, 476041, Note_on_c, 0, 70, 50
2, 476061, Note_on_c, 0, 46, 35
2, 476065, Note_on_c, 0, 34, 37
2, 476069, Control_c, 0, 64, 24
2, 476085, Control_c, 0, 64, 72
2, 476097, Control_c, 0, 64, 127
2, 476133, Note_on_c, 0, 82, 0
2, 476137, Note_on_c, 0, 46, 0
2, 476149, Note_on_c, 0, 70, 0
2, 476149, Note_on_c, 0, 34, 0
2, 476465, Note_on_c, 0, 63, 65
2, 476669, Control_c, 0, 64, 104
2, 476681, Control_c, 0, 64, 72
2, 476697, Control_c, 0, 64, 0
2, 476793, Note_on_c, 0, 41, 51
2, 476809, Control_c, 0, 64, 72
2, 476821, Control_c, 0, 64, 127
2, 476825, Note_on_c, 0, 41, 0
2, 477021, Note_on_c, 0, 63, 0
2, 477045, Control_c, 0, 64, 72
2, 477049, Note_on_c, 0, 69, 72
2, 477061, Control_c, 0, 64, 0
2, 477101, Note_on_c, 0, 57, 49
2, 477117, Note_on_c, 0, 60, 50
2, 477121, Note_on_c, 0, 69, 0
2, 477121, Note_on_c, 0, 63, 79
2, 477129, Control_c, 0, 64, 24
2, 477145, Control_c, 0, 64, 72
2, 477157, Control_c, 0, 64, 127
2, 477177, Note_on_c, 0, 63, 0
2, 477345, Note_on_c, 0, 72, 64
2, 477381, Control_c, 0, 64, 72
2, 477393, Control_c, 0, 64, 0
2, 477405, Note_on_c, 0, 72, 0
2, 477421, Note_on_c, 0, 71, 87
2, 477441, Note_on_c, 0, 56, 58
2, 477465, Note_on_c, 0, 57, 0
2, 477485, Note_on_c, 0, 60, 0
2, 477505, Note_on_c, 0, 56, 0
2, 477505, Control_c, 0, 64, 40
2, 477521, Control_c, 0, 64, 88
2, 477533, Control_c, 0, 64, 127
2, 477629, Note_on_c, 0, 71, 0
2, 477637, Note_on_c, 0, 74, 82
2, 477685, Note_on_c, 0, 74, 0
2, 477757, Control_c, 0, 64, 104
2, 477765, Note_on_c, 0, 72, 78
2, 477773, Control_c, 0, 64, 40
2, 477785, Control_c, 0, 64, 0
2, 477801, Note_on_c, 0, 36, 58
2, 477849, Note_on_c, 0, 36, 0
2, 477853, Control_c, 0, 64, 40
2, 477869, Control_c, 0, 64, 104
2, 477881, Control_c, 0, 64, 127
2, 477925, Note_on_c, 0, 72, 0
2, 477941, Note_on_c, 0, 80, 82
2, 478033, Note_on_c, 0, 80, 0
2, 478089, Note_on_c, 0, 79, 86
2, 478097, Note_on_c, 0, 55, 56
2, 478105, Note_on_c, 0, 60, 54
2, 478237, Note_on_c, 0, 75, 77
2, 478357, Note_on_c, 0, 79, 0
2, 478373, Note_on_c, 0, 51, 68
2, 478377, Note_on_c, 0, 72, 82
2, 478381, Note_on_c, 0, 75, 0
2, 478409, Note_on_c, 0, 55, 0
2, 478445, Note_on_c, 0, 60, 0
2, 478457, Note_on_c, 0, 72, 0
2, 478477, Note_on_c, 0, 51, 0
2, 478529, Note_on_c, 0, 67, 74
2, 478585, Note_on_c, 0, 67, 0
2, 478677, Note_on_c, 0, 70, 77
2, 478689, Control_c, 0, 64, 88
2, 478705, Control_c, 0, 64, 0
2, 478713, Note_on_c, 0, 41, 57
2, 478801, Note_on_c, 0, 70, 0
2, 478801, Control_c, 0, 64, 40
2, 478809, Note_on_c, 0, 41, 0
2, 478817, Control_c, 0, 64, 88
2, 478825, Note_on_c, 0, 68, 83
2, 478829, Control_c, 0, 64, 127
2, 478941, Control_c, 0, 64, 104
2, 478949, Note_on_c, 0, 68, 0
2, 478957, Control_c, 0, 64, 40
2, 478969, Control_c, 0, 64, 0
2, 478973, Note_on_c, 0, 65, 80
2, 478981, Note_on_c, 0, 56, 58
2, 479041, Control_c, 0, 64, 40
2, 479053, Control_c, 0, 64, 72
2, 479065, Control_c, 0, 64, 104
2, 479081, Control_c, 0, 64, 127
2, 479089, Note_on_c, 0, 65, 0
2, 479109, Note_on_c, 0, 62, 79
2, 479181, Control_c, 0, 64, 40
2, 479193, Control_c, 0, 64, 0
2, 479261, Note_on_c, 0, 72, 89
2, 479269, Note_on_c, 0, 55, 59
2, 479305, Control_c, 0, 64, 40
2, 479309, Note_on_c, 0, 55, 0
2, 479313, Note_on_c, 0, 56, 0
2, 479317, Control_c, 0, 64, 72
2, 479333, Control_c, 0, 64, 88
2, 479345, Control_c, 0, 64, 127
2, 479353, Note_on_c, 0, 62, 0
2, 479377, Note_on_c, 0, 72, 0
2, 479409, Note_on_c, 0, 71, 77
2, 479529, Control_c, 0, 64, 88
2, 479541, Control_c, 0, 64, 0
2, 479557, Note_on_c, 0, 71, 0
2, 479561, Note_on_c, 0, 65, 75
2, 479593, Note_on_c, 0, 43, 42
2, 479665, Control_c, 0, 64, 56
2, 479681, Control_c, 0, 64, 72
2, 479693, Note_on_c, 0, 65, 0
2, 479693, Control_c, 0, 64, 56
2, 479709, Control_c, 0, 64, 24
2, 479713, Note_on_c, 0, 62, 76
2, 479721, Control_c, 0, 64, 0
2, 479805, Control_c, 0, 64, 24
2, 479821, Control_c, 0, 64, 72
2, 479833, Control_c, 0, 64, 88
2, 479849, Control_c, 0, 64, 104
2, 479853, Note_on_c, 0, 48, 52
2, 479861, Note_on_c, 0, 62, 0
2, 479869, Note_on_c, 0, 43, 0
2, 479869, Note_on_c, 0, 74, 77
2, 479933, Control_c, 0, 64, 24
2, 479945, Control_c, 0, 64, 0
2, 480001, Note_on_c, 0, 74, 0
2, 480033, Note_on_c, 0, 72, 70
2, 480045, Control_c, 0, 64, 40
2, 480057, Control_c, 0, 64, 72
2, 480069, Control_c, 0, 64, 104
2, 480121, Note_on_c, 0, 48, 0
2, 480141, Control_c, 0, 64, 40
2, 480157, Control_c, 0, 64, 0
2, 480165, Note_on_c, 0, 72, 0
2, 480193, Note_on_c, 0, 67, 55
2, 480201, Note_on_c, 0, 36, 40
2, 480237, Note_on_c, 0, 36, 0
2, 480237, Control_c, 0, 64, 40
2, 480253, Control_c, 0, 64, 88
2, 480265, Control_c, 0, 64, 127
2, 480357, Note_on_c, 0, 67, 0
2, 480373, Note_on_c, 0, 63, 53
2, 480417, Note_on_c, 0, 63, 0
2, 480517, Control_c, 0, 64, 88
2, 480533, Control_c, 0, 64, 0
2, 480569, Note_on_c, 0, 48, 64
2, 480617, Control_c, 0, 64, 40
2, 480629, Control_c, 0, 64, 104
2, 480637, Note_on_c, 0, 48, 0
2, 480641, Control_c, 0, 64, 127
2, 480785, Note_on_c, 0, 75, 71
2, 480837, Control_c, 0, 64, 88
2, 480853, Control_c, 0, 64, 24
2, 480857, Note_on_c, 0, 75, 0
2, 480857, Note_on_c, 0, 69, 84
2, 480865, Note_on_c, 0, 60, 64
2, 480865, Note_on_c, 0, 67, 58
2, 480865, Control_c, 0, 64, 0
2, 480933, Note_on_c, 0, 69, 0
2, 480937, Control_c, 0, 64, 24
2, 480949, Control_c, 0, 64, 88
2, 480965, Control_c, 0, 64, 127
2, 481085, Note_on_c, 0, 79, 82
2, 481089, Control_c, 0, 64, 88
2, 481105, Control_c, 0, 64, 24
2, 481117, Control_c, 0, 64, 0
2, 481169, Note_on_c, 0, 79, 0
2, 481169, Note_on_c, 0, 78, 91
2, 481173, Note_on_c, 0, 57, 38
2, 481173, Control_c, 0, 64, 24
2, 481185, Note_on_c, 0, 67, 0
2, 481185, Control_c, 0, 64, 72
2, 481201, Control_c, 0, 64, 127
2, 481209, Note_on_c, 0, 60, 0
2, 481233, Note_on_c, 0, 57, 0
2, 481333, Note_on_c, 0, 78, 0
2, 481341, Note_on_c, 0, 81, 85
2, 481405, Note_on_c, 0, 81, 0
2, 481453, Control_c, 0, 64, 56
2, 481465, Control_c, 0, 64, 0
2, 481489, Note_on_c, 0, 43, 58
2, 481493, Note_on_c, 0, 79, 89
2, 481537, Control_c, 0, 64, 40
2, 481549, Control_c, 0, 64, 104
2, 481565, Control_c, 0, 64, 127
2, 481569, Note_on_c, 0, 43, 0
2, 481617, Note_on_c, 0, 79, 0
2, 481649, Note_on_c, 0, 87, 84
2, 481729, Note_on_c, 0, 87, 0
2, 481785, Note_on_c, 0, 86, 86
2, 481825, Note_on_c, 0, 67, 34
2, 481829, Note_on_c, 0, 58, 35
2, 481921, Note_on_c, 0, 82, 77
2, 482029, Note_on_c, 0, 86, 0
2, 482049, Note_on_c, 0, 79, 77
2, 482057, Note_on_c, 0, 82, 0
2, 482085, Note_on_c, 0, 67, 0
2, 482085, Note_on_c, 0, 55, 33
2, 482121, Note_on_c, 0, 79, 0
2, 482125, Note_on_c, 0, 55, 0
2, 482129, Note_on_c, 0, 58, 0
2, 482189, Note_on_c, 0, 74, 85
2, 482293, Note_on_c, 0, 74, 0
2, 482345, Note_on_c, 0, 77, 82
2, 482357, Control_c, 0, 64, 56
2, 482369, Control_c, 0, 64, 0
2, 482381, Note_on_c, 0, 48, 58
2, 482441, Note_on_c, 0, 48, 0
2, 482441, Control_c, 0, 64, 24
2, 482457, Control_c, 0, 64, 88
2, 482469, Control_c, 0, 64, 127
2, 482481, Note_on_c, 0, 77, 0
2, 482497, Note_on_c, 0, 75, 79
2, 482613, Note_on_c, 0, 75, 0
2, 482645, Note_on_c, 0, 72, 79
2, 482649, Note_on_c, 0, 63, 44
2, 482749, Note_on_c, 0, 72, 0
2, 482785, Note_on_c, 0, 69, 74
2, 482933, Note_on_c, 0, 69, 0
2, 482941, Note_on_c, 0, 62, 61
2, 482945, Note_on_c, 0, 79, 80
2, 482969, Note_on_c, 0, 62, 0
2, 482977, Note_on_c, 0, 63, 0
2, 483045, Note_on_c, 0, 79, 0
2, 483089, Note_on_c, 0, 78, 73
2, 483153, Control_c, 0, 64, 104
2, 483169, Control_c, 0, 64, 56
2, 483181, Control_c, 0, 64, 0
2, 483237, Control_c, 0, 64, 40
2, 483249, Note_on_c, 0, 72, 75
2, 483249, Control_c, 0, 64, 72
2, 483253, Note_on_c, 0, 78, 0
2, 483261, Note_on_c, 0, 50, 47
2, 483265, Control_c, 0, 64, 104
2, 483277, Control_c, 0, 64, 127
2, 483349, Control_c, 0, 64, 40
2, 483361, Control_c, 0, 64, 0
2, 483373, Note_on_c, 0, 72, 0
2, 483401, Note_on_c, 0, 69, 79
2, 483445, Control_c, 0, 64, 56
2, 483461, Control_c, 0, 64, 127
2, 483549, Note_on_c, 0, 50, 0
2, 483561, Note_on_c, 0, 69, 0
2, 483573, Control_c, 0, 64, 56
2, 483585, Note_on_c, 0, 81, 77
2, 483585, Control_c, 0, 64, 0
2, 483601, Note_on_c, 0, 52, 53
2, 483669, Control_c, 0, 64, 40
2, 483685, Control_c, 0, 64, 104
2, 483693, Note_on_c, 0, 52, 0
2, 483697, Control_c, 0, 64, 127
2, 483717, Note_on_c, 0, 81, 0
2, 483781, Note_on_c, 0, 79, 68
2, 483917, Note_on_c, 0, 79, 0
2, 483969, Note_on_c, 0, 73, 61
2, 483973, Control_c, 0, 64, 40
2, 483981, Note_on_c, 0, 61, 34
2, 483985, Note_on_c, 0, 67, 29
2, 483989, Note_on_c, 0, 58, 32
2, 483989, Control_c, 0, 64, 0
2, 484073, Control_c, 0, 64, 72
2, 484077, Note_on_c, 0, 67, 0
2, 484085, Control_c, 0, 64, 127
2, 484117, Note_on_c, 0, 61, 0
2, 484129, Note_on_c, 0, 58, 0
2, 484185, Note_on_c, 0, 73, 0
2, 484197, Note_on_c, 0, 70, 50
2, 484261, Note_on_c, 0, 70, 0
2, 484393, Control_c, 0, 64, 88
2, 484405, Control_c, 0, 64, 0
2, 484429, Note_on_c, 0, 41, 44
2, 484521, Control_c, 0, 64, 72
2, 484533, Control_c, 0, 64, 127
2, 484585, Note_on_c, 0, 41, 0
2, 484645, Control_c, 0, 64, 72
2, 484657, Control_c, 0, 64, 0
2, 484673, Note_on_c, 0, 69, 68
2, 484741, Note_on_c, 0, 57, 53
2, 484745, Note_on_c, 0, 69, 0
2, 484745, Note_on_c, 0, 63, 77
2, 484805, Note_on_c, 0, 63, 0
2, 484989, Note_on_c, 0, 72, 54
2, 485049, Note_on_c, 0, 72, 0
2, 485049, Note_on_c, 0, 48, 67
2, 485057, Note_on_c, 0, 71, 78
2, 485113, Note_on_c, 0, 57, 0
2, 485129, Note_on_c, 0, 48, 0
2, 485253, Note_on_c, 0, 71, 0
2, 485293, Note_on_c, 0, 74, 68
2, 485373, Note_on_c, 0, 72, 88
2, 485385, Note_on_c, 0, 41, 64
2, 485401, Note_on_c, 0, 74, 0
2, 485413, Note_on_c, 0, 41, 0
2, 485417, Note_on_c, 0, 72, 0
2, 485425, Control_c, 0, 64, 56
2, 485441, Control_c, 0, 64, 104
2, 485453, Control_c, 0, 64, 127
2, 485633, Note_on_c, 0, 91, 80
2, 485637, Note_on_c, 0, 67, 65
2, 485653, Note_on_c, 0, 79, 24
2, 485657, Note_on_c, 0, 91, 0
2, 485661, Control_c, 0, 64, 88
2, 485677, Note_on_c, 0, 79, 0
2, 485677, Control_c, 0, 64, 24
2, 485689, Control_c, 0, 64, 0
2, 485693, Note_on_c, 0, 89, 102
2, 485697, Note_on_c, 0, 77, 100
2, 485717, Note_on_c, 0, 65, 67
2, 485721, Note_on_c, 0, 67, 0
2, 485773, Control_c, 0, 64, 72
2, 485777, Note_on_c, 0, 65, 0
2, 485785, Control_c, 0, 64, 127
2, 486041, Note_on_c, 0, 53, 53
2, 486045, Note_on_c, 0, 57, 46
2, 486077, Note_on_c, 0, 53, 0
2, 486089, Note_on_c, 0, 57, 0
2, 486093, Note_on_c, 0, 89, 0
2, 486117, Note_on_c, 0, 77, 0
2, 486305, Control_c, 0, 64, 88
2, 486317, Control_c, 0, 64, 40
2, 486333, Control_c, 0, 64, 0
2, 486361, Note_on_c, 0, 46, 62
2, 486441, Control_c, 0, 64, 40
2, 486457, Note_on_c, 0, 46, 0
2, 486457, Control_c, 0, 64, 72
2, 486597, Note_on_c, 0, 64, 64
2, 486597, Control_c, 0, 64, 24
2, 486609, Control_c, 0, 64, 0
2, 486641, Note_on_c, 0, 62, 62
2, 486657, Note_on_c, 0, 65, 81
2, 486673, Note_on_c, 0, 64, 0
2, 486881, Note_on_c, 0, 65, 0
2, 486881, Note_on_c, 0, 70, 69
2, 486925, Note_on_c, 0, 70, 0
2, 486941, Note_on_c, 0, 53, 60
2, 486961, Note_on_c, 0, 74, 90
2, 487033, Note_on_c, 0, 62, 0
2, 487153, Note_on_c, 0, 74, 0
2, 487165, Note_on_c, 0, 77, 83
2, 487253, Note_on_c, 0, 53, 0
2, 487261, Note_on_c, 0, 77, 0
2, 487261, Note_on_c, 0, 46, 53
2, 487265, Note_on_c, 0, 86, 88
2, 487293, Control_c, 0, 64, 24
2, 487309, Control_c, 0, 64, 72
2, 487313, Note_on_c, 0, 46, 0
2, 487321, Control_c, 0, 64, 104
2, 487337, Control_c, 0, 64, 127
2, 487461, Note_on_c, 0, 86, 0
2, 487517, Note_on_c, 0, 84, 84
2, 487517, Control_c, 0, 64, 104
2, 487533, Control_c, 0, 64, 56
2, 487545, Control_c, 0, 64, 0
2, 487601, Note_on_c, 0, 82, 77
2, 487605, Note_on_c, 0, 55, 51
2, 487613, Note_on_c, 0, 58, 43
2, 487617, Note_on_c, 0, 63, 45
2, 487629, Note_on_c, 0, 84, 0
2, 487629, Control_c, 0, 64, 24
2, 487641, Control_c, 0, 64, 56
2, 487649, Note_on_c, 0, 55, 0
2, 487657, Control_c, 0, 64, 88
2, 487669, Note_on_c, 0, 63, 0
2, 487669, Control_c, 0, 64, 127
2, 487677, Note_on_c, 0, 58, 0
2, 487693, Note_on_c, 0, 82, 0
2, 487861, Note_on_c, 0, 79, 68
2, 487921, Control_c, 0, 64, 104
2, 487937, Control_c, 0, 64, 88
2, 487949, Control_c, 0, 64, 56
2, 487957, Note_on_c, 0, 79, 0
2, 487961, Control_c, 0, 64, 0
2, 487969, Note_on_c, 0, 77, 70
2, 487989, Note_on_c, 0, 60, 38
2, 487997, Note_on_c, 0, 57, 42
2, 487997, Note_on_c, 0, 65, 48
2, 488089, Control_c, 0, 64, 40
2, 488101, Control_c, 0, 64, 88
2, 488117, Control_c, 0, 64, 127
2, 488121, Note_on_c, 0, 65, 0
2, 488129, Note_on_c, 0, 60, 0
2, 488141, Note_on_c, 0, 57, 0
2, 488185, Note_on_c, 0, 77, 0
2, 488297, Control_c, 0, 64, 88
2, 488313, Control_c, 0, 64, 24
2, 488325, Control_c, 0, 64, 0
2, 488361, Note_on_c, 0, 46, 57
2, 488365, Control_c, 0, 64, 24
2, 488381, Control_c, 0, 64, 56
2, 488397, Control_c, 0, 64, 127
2, 488465, Note_on_c, 0, 46, 0
2, 488549, Control_c, 0, 64, 56
2, 488565, Control_c, 0, 64, 0
2, 488577, Note_on_c, 0, 74, 73
2, 488645, Note_on_c, 0, 68, 77
2, 488645, Control_c, 0, 64, 56
2, 488653, Note_on_c, 0, 62, 66
2, 488661, Control_c, 0, 64, 104
2, 488665, Note_on_c, 0, 74, 0
2, 488673, Control_c, 0, 64, 127
2, 488717, Note_on_c, 0, 68, 0
2, 488829, Control_c, 0, 64, 104
2, 488841, Control_c, 0, 64, 88
2, 488853, Control_c, 0, 64, 56
2, 488861, Note_on_c, 0, 77, 85
2, 488869, Control_c, 0, 64, 0
2, 488933, Note_on_c, 0, 77, 0
2, 488937, Note_on_c, 0, 76, 92
2, 488973, Note_on_c, 0, 62, 0
2, 488973, Note_on_c, 0, 53, 40
2, 488997, Control_c, 0, 64, 40
2, 489001, Note_on_c, 0, 53, 0
2, 489009, Control_c, 0, 64, 56
2, 489021, Control_c, 0, 64, 72
2, 489121, Control_c, 0, 64, 40
2, 489133, Control_c, 0, 64, 0
2, 489141, Note_on_c, 0, 76, 0
2, 489165, Note_on_c, 0, 79, 72
2, 489225, Note_on_c, 0, 77, 97
2, 489233, Note_on_c, 0, 46, 62
2, 489245, Control_c, 0, 64, 40
2, 489261, Note_on_c, 0, 46, 0
2, 489261, Note_on_c, 0, 79, 0
2, 489261, Control_c, 0, 64, 104
2, 489269, Note_on_c, 0, 77, 0
2, 489273, Control_c, 0, 64, 127
2, 489485, Note_on_c, 0, 96, 93
2, 489501, Note_on_c, 0, 84, 64
2, 489505, Note_on_c, 0, 72, 77
2, 489521, Note_on_c, 0, 96, 0
2, 489525, Note_on_c, 0, 84, 0
2, 489525, Control_c, 0, 64, 72
2, 489541, Control_c, 0, 64, 0
2, 489561, Note_on_c, 0, 94, 97
2, 489569, Note_on_c, 0, 82, 96
2, 489593, Note_on_c, 0, 70, 73
2, 489613, Note_on_c, 0, 72, 0
2, 489621, Control_c, 0, 64, 88
2, 489637, Control_c, 0, 64, 127
2, 489661, Note_on_c, 0, 70, 0
2, 489921, Note_on_c, 0, 58, 37
2, 489921, Note_on_c, 0, 62, 55
2, 489953, Note_on_c, 0, 62, 0
2, 489985, Note_on_c, 0, 94, 0
2, 489993, Note_on_c, 0, 58, 0
2, 489997, Note_on_c, 0, 82, 0
2, 490177, Control_c, 0, 64, 72
2, 490193, Control_c, 0, 64, 0
2, 490229, Note_on_c, 0, 51, 60
2, 490277, Control_c, 0, 64, 40
2, 490293, Control_c, 0, 64, 88
2, 490305, Note_on_c, 0, 51, 0
2, 490305, Control_c, 0, 64, 127
2, 490429, Control_c, 0, 64, 88
2, 490445, Control_c, 0, 64, 40
2, 490449, Note_on_c, 0, 69, 63
2, 490457, Control_c, 0, 64, 0
2, 490497, Note_on_c, 0, 67, 58
2, 490509, Note_on_c, 0, 70, 81
2, 490525, Note_on_c, 0, 69, 0
2, 490545, Control_c, 0, 64, 24
2, 490557, Control_c, 0, 64, 56
2, 490573, Control_c, 0, 64, 88
2, 490585, Control_c, 0, 64, 127
2, 490733, Note_on_c, 0, 75, 67
2, 490737, Note_on_c, 0, 70, 0
2, 490753, Control_c, 0, 64, 104
2, 490777, Note_on_c, 0, 75, 0
2, 490801, Note_on_c, 0, 58, 56
2, 490821, Note_on_c, 0, 79, 99
2, 490825, Note_on_c, 0, 67, 0
2, 490845, Note_on_c, 0, 58, 0
2, 490849, Control_c, 0, 64, 127
2, 490921, Note_on_c, 0, 79, 0
2, 490993, Note_on_c, 0, 82, 77
2, 491057, Control_c, 0, 64, 88
2, 491073, Note_on_c, 0, 82, 0
2, 491073, Control_c, 0, 64, 24
2, 491085, Control_c, 0, 64, 0
2, 491113, Note_on_c, 0, 91, 99
2, 491117, Note_on_c, 0, 79, 83
2, 491121, Note_on_c, 0, 83, 92
2, 491121, Note_on_c, 0, 55, 67
2, 491137, Note_on_c, 0, 50, 61
2, 491153, Note_on_c, 0, 59, 32
2, 491153, Control_c, 0, 64, 24
2, 491161, Note_on_c, 0, 50, 0
2, 491169, Control_c, 0, 64, 104
2, 491177, Note_on_c, 0, 55, 0
2, 491181, Note_on_c, 0, 79, 0
2, 491181, Control_c, 0, 64, 127
2, 491185, Note_on_c, 0, 59, 0
2, 491193, Note_on_c, 0, 83, 0
2, 491209, Note_on_c, 0, 91, 0
2, 491341, Note_on_c, 0, 92, 95
2, 491341, Note_on_c, 0, 80, 92
2, 491361, Note_on_c, 0, 68, 80
2, 491365, Note_on_c, 0, 92, 0
2, 491369, Note_on_c, 0, 80, 0
2, 491405, Note_on_c, 0, 68, 0
2, 491421, Control_c, 0, 64, 56
2, 491433, Note_on_c, 0, 91, 103
2, 491433, Note_on_c, 0, 79, 96
2, 491433, Control_c, 0, 64, 0
2, 491457, Note_on_c, 0, 67, 81
2, 491505, Control_c, 0, 64, 24
2, 491509, Note_on_c, 0, 67, 0
2, 491517, Control_c, 0, 64, 88
2, 491533, Control_c, 0, 64, 127
2, 491785, Note_on_c, 0, 59, 56
2, 491801, Note_on_c, 0, 55, 41
2, 491829, Note_on_c, 0, 59, 0
2, 491833, Note_on_c, 0, 91, 0
2, 491845, Note_on_c, 0, 55, 0
2, 491861, Note_on_c, 0, 79, 0
2, 492049, Control_c, 0, 64, 88
2, 492061, Control_c, 0, 64, 0
2, 492105, Note_on_c, 0, 48, 72
2, 492161, Control_c, 0, 64, 40
2, 492173, Note_on_c, 0, 48, 0
2, 492177, Control_c, 0, 64, 72
2, 492185, Control_c, 0, 64, 104
2, 492201, Control_c, 0, 64, 127
2, 492313, Control_c, 0, 64, 56
2, 492321, Note_on_c, 0, 67, 66
2, 492329, Control_c, 0, 64, 0
2, 492385, Note_on_c, 0, 63, 64
2, 492385, Note_on_c, 0, 72, 82
2, 492413, Note_on_c, 0, 67, 0
2, 492425, Control_c, 0, 64, 40
2, 492437, Control_c, 0, 64, 72
2, 492453, Control_c, 0, 64, 104
2, 492465, Control_c, 0, 64, 127
2, 492589, Note_on_c, 0, 63, 0
2, 492589, Note_on_c, 0, 75, 77
2, 492597, Note_on_c, 0, 72, 0
2, 492633, Note_on_c, 0, 75, 0
2, 492657, Note_on_c, 0, 55, 60
2, 492681, Note_on_c, 0, 55, 0
2, 492685, Note_on_c, 0, 79, 94
2, 492793, Note_on_c, 0, 79, 0
2, 492857, Note_on_c, 0, 84, 87
2, 492901, Control_c, 0, 64, 88
2, 492913, Control_c, 0, 64, 0
2, 492921, Note_on_c, 0, 84, 0
2, 492949, Note_on_c, 0, 46, 72
2, 492953, Note_on_c, 0, 87, 95
2, 492997, Note_on_c, 0, 46, 0
2, 492997, Control_c, 0, 64, 56
2, 493009, Control_c, 0, 64, 104
2, 493025, Control_c, 0, 64, 127
2, 493057, Note_on_c, 0, 87, 0
2, 493173, Note_on_c, 0, 67, 63
2, 493177, Note_on_c, 0, 91, 90
2, 493181, Note_on_c, 0, 55, 74
2, 493185, Note_on_c, 0, 79, 83
2, 493197, Note_on_c, 0, 67, 0
2, 493201, Note_on_c, 0, 55, 0
2, 493205, Note_on_c, 0, 79, 0
2, 493225, Note_on_c, 0, 91, 0
2, 493233, Control_c, 0, 64, 88
2, 493249, Control_c, 0, 64, 0
2, 493261, Note_on_c, 0, 90, 95
2, 493277, Note_on_c, 0, 78, 99
2, 493281, Note_on_c, 0, 66, 85
2, 493285, Note_on_c, 0, 54, 80
2, 493325, Note_on_c, 0, 66, 0
2, 493329, Note_on_c, 0, 54, 0
2, 493333, Control_c, 0, 64, 104
2, 493345, Control_c, 0, 64, 127
2, 493657, Note_on_c, 0, 58, 62
2, 493661, Note_on_c, 0, 46, 61
2, 493673, Note_on_c, 0, 90, 0
2, 493685, Note_on_c, 0, 78, 0
2, 493869, Note_on_c, 0, 58, 0
2, 493913, Note_on_c, 0, 46, 0
2, 493945, Control_c, 0, 64, 88
2, 493957, Control_c, 0, 64, 0
2, 493969, Note_on_c, 0, 57, 52
2, 493969, Note_on_c, 0, 45, 48
2, 494037, Note_on_c, 0, 45, 0
2, 494057, Control_c, 0, 64, 56
2, 494061, Note_on_c, 0, 57, 0
2, 494069, Control_c, 0, 64, 104
2, 494085, Control_c, 0, 64, 127
2, 494165, Control_c, 0, 64, 72
2, 494169, Note_on_c, 0, 65, 64
2, 494181, Control_c, 0, 64, 0
2, 494245, Note_on_c, 0, 63, 67
2, 494269, Note_on_c, 0, 72, 75
2, 494277, Note_on_c, 0, 65, 0
2, 494281, Control_c, 0, 64, 56
2, 494293, Control_c, 0, 64, 88
2, 494309, Control_c, 0, 64, 127
2, 494433, Note_on_c, 0, 72, 0
2, 494437, Note_on_c, 0, 75, 67
2, 494445, Control_c, 0, 64, 104
2, 494461, Control_c, 0, 64, 88
2, 494473, Control_c, 0, 64, 72
2, 494481, Note_on_c, 0, 75, 0
2, 494521, Note_on_c, 0, 53, 46
2, 494533, Note_on_c, 0, 63, 0
2, 494541, Note_on_c, 0, 77, 78
2, 494545, Control_c, 0, 64, 88
2, 494549, Note_on_c, 0, 53, 0
2, 494573, Control_c, 0, 64, 104
2, 494585, Control_c, 0, 64, 127
2, 494617, Note_on_c, 0, 77, 0
2, 494709, Note_on_c, 0, 84, 71
2, 494741, Control_c, 0, 64, 72
2, 494753, Control_c, 0, 64, 0
2, 494769, Note_on_c, 0, 84, 0
2, 494793, Note_on_c, 0, 46, 63
2, 494809, Note_on_c, 0, 87, 95
2, 494825, Control_c, 0, 64, 24
2, 494837, Control_c, 0, 64, 72
2, 494845, Note_on_c, 0, 46, 0
2, 494849, Control_c, 0, 64, 127
2, 494905, Note_on_c, 0, 87, 0
2, 495025, Note_on_c, 0, 91, 84
2, 495029, Note_on_c, 0, 79, 87
2, 495037, Note_on_c, 0, 67, 62
2, 495045, Note_on_c, 0, 55, 54
2, 495053, Note_on_c, 0, 91, 0
2, 495057, Note_on_c, 0, 79, 0
2, 495061, Note_on_c, 0, 67, 0
2, 495061, Control_c, 0, 64, 104
2, 495069, Note_on_c, 0, 55, 0
2, 495073, Control_c, 0, 64, 24
2, 495089, Control_c, 0, 64, 0
2, 495113, Note_on_c, 0, 90, 99
2, 495121, Note_on_c, 0, 78, 106
2, 495133, Note_on_c, 0, 66, 81
2, 495149, Note_on_c, 0, 54, 42
2, 495157, Control_c, 0, 64, 40
2, 495169, Control_c, 0, 64, 127
2, 495177, Note_on_c, 0, 54, 0
2, 495185, Note_on_c, 0, 66, 0
2, 495441, Note_on_c, 0, 58, 68
2, 495449, Note_on_c, 0, 46, 64
2, 495485, Note_on_c, 0, 90, 0
2, 495501, Note_on_c, 0, 78, 0
2, 495517, Note_on_c, 0, 58, 0
2, 495589, Note_on_c, 0, 46, 0
2, 495717, Control_c, 0, 64, 72
2, 495729, Control_c, 0, 64, 0
2, 495753, Note_on_c, 0, 45, 62
2, 495761, Note_on_c, 0, 57, 55
2, 495809, Note_on_c, 0, 45, 0
2, 495813, Control_c, 0, 64, 40
2, 495825, Control_c, 0, 64, 88
2, 495837, Control_c, 0, 64, 127
2, 495841, Note_on_c, 0, 57, 0
2, 495953, Note_on_c, 0, 65, 64
2, 495981, Control_c, 0, 64, 104
2, 495993, Control_c, 0, 64, 40
2, 496009, Control_c, 0, 64, 0
2, 496029, Note_on_c, 0, 72, 81
2, 496041, Note_on_c, 0, 63, 67
2, 496069, Note_on_c, 0, 65, 0
2, 496093, Control_c, 0, 64, 24
2, 496105, Control_c, 0, 64, 72
2, 496121, Control_c, 0, 64, 104
2, 496133, Control_c, 0, 64, 127
2, 496237, Note_on_c, 0, 75, 70
2, 496245, Note_on_c, 0, 72, 0
2, 496277, Note_on_c, 0, 75, 0
2, 496329, Note_on_c, 0, 53, 53
2, 496329, Note_on_c, 0, 77, 89
2, 496417, Note_on_c, 0, 63, 0
2, 496429, Note_on_c, 0, 77, 0
2, 496541, Note_on_c, 0, 84, 69
2, 496593, Control_c, 0, 64, 56
2, 496609, Note_on_c, 0, 84, 0
2, 496609, Control_c, 0, 64, 0
2, 496613, Note_on_c, 0, 87, 88
2, 496617, Note_on_c, 0, 53, 0
2, 496629, Note_on_c, 0, 46, 62
2, 496633, Note_on_c, 0, 77, 2
2, 496685, Note_on_c, 0, 77, 0
2, 496693, Control_c, 0, 64, 56
2, 496705, Control_c, 0, 64, 104
2, 496721, Control_c, 0, 64, 127
2, 496749, Note_on_c, 0, 46, 0
2, 496821, Note_on_c, 0, 87, 0
2, 496865, Note_on_c, 0, 89, 78
2, 496913, Control_c, 0, 64, 104
2, 496929, Control_c, 0, 64, 24
2, 496933, Note_on_c, 0, 85, 90
2, 496945, Note_on_c, 0, 89, 0
2, 496945, Control_c, 0, 64, 0
2, 496949, Note_on_c, 0, 62, 68
2, 496957, Note_on_c, 0, 77, 57
2, 496997, Control_c, 0, 64, 24
2, 497013, Control_c, 0, 64, 72
2, 497025, Control_c, 0, 64, 104
2, 497041, Note_on_c, 0, 85, 0
2, 497041, Control_c, 0, 64, 127
2, 497153, Note_on_c, 0, 77, 0
2, 497177, Note_on_c, 0, 86, 81
2, 497233, Control_c, 0, 64, 72
2, 497241, Note_on_c, 0, 81, 75
2, 497245, Note_on_c, 0, 54, 70
2, 497249, Note_on_c, 0, 86, 0
2, 497249, Control_c, 0, 64, 0
2, 497253, Note_on_c, 0, 74, 49
2, 497281, Note_on_c, 0, 62, 0
2, 497321, Control_c, 0, 64, 24
2, 497333, Control_c, 0, 64, 56
2, 497345, Control_c, 0, 64, 88
2, 497361, Control_c, 0, 64, 127
2, 497389, Note_on_c, 0, 74, 0
2, 497437, Note_on_c, 0, 81, 0
2, 497493, Note_on_c, 0, 82, 65
2, 497545, Note_on_c, 0, 54, 0
2, 497573, Note_on_c, 0, 55, 73
2, 497577, Note_on_c, 0, 82, 0
2, 497577, Control_c, 0, 64, 72
2, 497581, Note_on_c, 0, 51, 48
2, 497581, Note_on_c, 0, 78, 75
2, 497581, Note_on_c, 0, 70, 43
2, 497597, Control_c, 0, 64, 0
2, 497677, Note_on_c, 0, 70, 0
2, 497681, Control_c, 0, 64, 24
2, 497697, Note_on_c, 0, 78, 0
2, 497697, Control_c, 0, 64, 56
2, 497709, Control_c, 0, 64, 104
2, 497725, Control_c, 0, 64, 127
2, 497845, Note_on_c, 0, 79, 65
2, 497865, Note_on_c, 0, 51, 0
2, 497901, Note_on_c, 0, 55, 0
2, 497901, Control_c, 0, 64, 104
2, 497909, Note_on_c, 0, 79, 0
2, 497921, Control_c, 0, 64, 40
2, 497929, Note_on_c, 0, 58, 75
2, 497933, Control_c, 0, 64, 0
2, 497949, Note_on_c, 0, 74, 66
2, 497957, Note_on_c, 0, 67, 48
2, 498017, Control_c, 0, 64, 40
2, 498029, Control_c, 0, 64, 72
2, 498045, Control_c, 0, 64, 104
2, 498057, Control_c, 0, 64, 127
2, 498073, Note_on_c, 0, 67, 0
2, 498117, Note_on_c, 0, 74, 0
2, 498169, Note_on_c, 0, 75, 58
2, 498233, Note_on_c, 0, 75, 0
2, 498301, Note_on_c, 0, 58, 0
2, 498305, Note_on_c, 0, 57, 70
2, 498305, Note_on_c, 0, 71, 58
2, 498313, Note_on_c, 0, 63, 30
2, 498325, Note_on_c, 0, 53, 46
2, 498325, Control_c, 0, 64, 88
2, 498337, Control_c, 0, 64, 24
2, 498349, Control_c, 0, 64, 0
2, 498449, Control_c, 0, 64, 40
2, 498453, Note_on_c, 0, 71, 0
2, 498461, Note_on_c, 0, 63, 0
2, 498461, Control_c, 0, 64, 88
2, 498477, Control_c, 0, 64, 127
2, 498561, Note_on_c, 0, 72, 63
2, 498621, Note_on_c, 0, 57, 0
2, 498629, Note_on_c, 0, 72, 0
2, 498629, Control_c, 0, 64, 104
2, 498645, Control_c, 0, 64, 72
2, 498657, Control_c, 0, 64, 24
2, 498669, Note_on_c, 0, 53, 0
2, 498673, Note_on_c, 0, 58, 58
2, 498673, Note_on_c, 0, 62, 48
2, 498673, Note_on_c, 0, 70, 55
2, 498673, Control_c, 0, 64, 0
2, 498821, Control_c, 0, 64, 127
2, 498829, Note_on_c, 0, 62, 0
2, 498869, Note_on_c, 0, 58, 0
2, 498905, Note_on_c, 0, 70, 0
2, 499145, Note_on_c, 0, 82, 83
2, 499145, Note_on_c, 0, 46, 57
2, 499145, Note_on_c, 0, 34, 64
2, 499145, Note_on_c, 0, 70, 63
2, 499189, Note_on_c, 0, 46, 0
2, 499193, Note_on_c, 0, 34, 0
2, 499201, Note_on_c, 0, 70, 0
2, 499217, Note_on_c, 0, 82, 0
2, 499913, Control_c, 0, 64, 104
2, 499925, Control_c, 0, 64, 72
2, 499941, Control_c, 0, 64, 56
2, 499957, Control_c, 0, 64, 40
2, 499969, Control_c, 0, 64, 24
2, 499981, Control_c, 0, 64, 0
2, 500737, Control_c, 0, 64, 40
2, 500753, Control_c, 0, 64, 72
2, 500769, Control_c, 0, 64, 104
2, 500781, Control_c, 0, 64, 127
2, 500969, Note_on_c, 0, 78, 68
2, 500985, Note_on_c, 0, 66, 39
2, 501213, Note_on_c, 0, 78, 0
2, 501233, Note_on_c, 0, 66, 0
2, 501377, Note_on_c, 0, 79, 73
2, 501389, Note_on_c, 0, 67, 49
2, 501401, Control_c, 0, 64, 104
2, 501405, Note_on_c, 0, 39, 47
2, 501417, Control_c, 0, 64, 40
2, 501429, Control_c, 0, 64, 0
2, 501473, Control_c, 0, 64, 24
2, 501481, Note_on_c, 0, 67, 0
2, 501489, Control_c, 0, 64, 72
2, 501505, Control_c, 0, 64, 127
2, 501517, Note_on_c, 0, 39, 0
2, 501525, Note_on_c, 0, 79, 0
2, 501777, Note_on_c, 0, 82, 77
2, 501785, Note_on_c, 0, 55, 56
2, 501793, Note_on_c, 0, 70, 55
2, 501909, Note_on_c, 0, 55, 0
2, 501925, Note_on_c, 0, 70, 0
2, 501953, Note_on_c, 0, 82, 0
2, 502177, Note_on_c, 0, 81, 77
2, 502189, Note_on_c, 0, 69, 55
2, 502193, Note_on_c, 0, 75, 53
2, 502201, Note_on_c, 0, 53, 47
2, 502209, Note_on_c, 0, 41, 47
2, 502209, Control_c, 0, 64, 40
2, 502225, Control_c, 0, 64, 0
2, 502297, Control_c, 0, 64, 72
2, 502305, Note_on_c, 0, 53, 0
2, 502313, Note_on_c, 0, 69, 0
2, 502313, Control_c, 0, 64, 127
2, 502333, Note_on_c, 0, 41, 0
2, 502345, Note_on_c, 0, 75, 0
2, 502349, Note_on_c, 0, 81, 0
2, 502645, Note_on_c, 0, 82, 65
2, 502661, Note_on_c, 0, 70, 41
2, 502673, Note_on_c, 0, 74, 53
2, 502673, Note_on_c, 0, 46, 40
2, 502677, Note_on_c, 0, 34, 46
2, 502697, Control_c, 0, 64, 40
2, 502709, Control_c, 0, 64, 0
2, 502773, Note_on_c, 0, 74, 0
2, 502793, Note_on_c, 0, 70, 0
2, 502801, Control_c, 0, 64, 104
2, 502813, Control_c, 0, 64, 127
2, 502825, Note_on_c, 0, 82, 0
2, 502849, Note_on_c, 0, 34, 0
2, 502865, Note_on_c, 0, 46, 0
2, 503033, Note_on_c, 0, 89, 82
2, 503109, Note_on_c, 0, 85, 70
2, 503121, Note_on_c, 0, 89, 0
2, 503129, Note_on_c, 0, 77, 52
2, 503181, Note_on_c, 0, 77, 0
2, 503181, Note_on_c, 0, 85, 0
2, 503389, Note_on_c, 0, 86, 68
2, 503457, Note_on_c, 0, 86, 0
2, 503457, Note_on_c, 0, 81, 70
2, 503457, Control_c, 0, 64, 104
2, 503473, Note_on_c, 0, 54, 54
2, 503477, Control_c, 0, 64, 40
2, 503489, Control_c, 0, 64, 0
2, 503509, Note_on_c, 0, 74, 42
2, 503533, Control_c, 0, 64, 24
2, 503549, Control_c, 0, 64, 72
2, 503565, Control_c, 0, 64, 127
2, 503649, Note_on_c, 0, 81, 0
2, 503689, Note_on_c, 0, 74, 0
2, 503745, Note_on_c, 0, 82, 69
2, 503769, Note_on_c, 0, 54, 0
2, 503809, Note_on_c, 0, 55, 58
2, 503817, Control_c, 0, 64, 40
2, 503829, Control_c, 0, 64, 0
2, 503833, Note_on_c, 0, 78, 67
2, 503841, Note_on_c, 0, 82, 0
2, 503849, Note_on_c, 0, 51, 46
2, 503877, Note_on_c, 0, 70, 42
2, 503901, Control_c, 0, 64, 72
2, 503913, Note_on_c, 0, 78, 0
2, 503917, Control_c, 0, 64, 127
2, 503937, Note_on_c, 0, 70, 0
2, 504109, Note_on_c, 0, 79, 66
2, 504173, Note_on_c, 0, 79, 0
2, 504177, Note_on_c, 0, 74, 70
2, 504181, Control_c, 0, 64, 88
2, 504197, Control_c, 0, 64, 24
2, 504213, Control_c, 0, 64, 0
2, 504221, Note_on_c, 0, 58, 49
2, 504237, Note_on_c, 0, 67, 40
2, 504281, Note_on_c, 0, 55, 0
2, 504285, Control_c, 0, 64, 56
2, 504301, Control_c, 0, 64, 127
2, 504377, Note_on_c, 0, 51, 0
2, 504377, Note_on_c, 0, 74, 0
2, 504401, Note_on_c, 0, 67, 0
2, 504481, Note_on_c, 0, 75, 49
2, 504509, Note_on_c, 0, 75, 0
2, 504581, Control_c, 0, 64, 104
2, 504593, Note_on_c, 0, 71, 59
2, 504593, Control_c, 0, 64, 24
2, 504605, Note_on_c, 0, 58, 0
2, 504605, Note_on_c, 0, 63, 42
2, 504605, Note_on_c, 0, 53, 40
2, 504605, Note_on_c, 0, 57, 50
2, 504609, Control_c, 0, 64, 0
2, 504697, Control_c, 0, 64, 40
2, 504713, Control_c, 0, 64, 88
2, 504725, Control_c, 0, 64, 127
2, 504729, Note_on_c, 0, 71, 0
2, 504749, Note_on_c, 0, 63, 0
2, 504913, Note_on_c, 0, 72, 57
2, 504949, Control_c, 0, 64, 72
2, 504961, Control_c, 0, 64, 0
2, 504973, Note_on_c, 0, 72, 0
2, 505025, Note_on_c, 0, 70, 50
2, 505037, Note_on_c, 0, 58, 40
2, 505041, Note_on_c, 0, 62, 37
2, 505097, Note_on_c, 0, 57, 0
2, 505109, Control_c, 0, 64, 40
2, 505125, Control_c, 0, 64, 88
2, 505137, Control_c, 0, 64, 127
2, 505165, Control_c, 0, 64, 104
2, 505169, Note_on_c, 0, 53, 0
2, 505181, Control_c, 0, 64, 40
2, 505197, Control_c, 0, 64, 0
2, 505285, Control_c, 0, 64, 56
2, 505301, Control_c, 0, 64, 127
2, 505357, Note_on_c, 0, 62, 0
2, 505421, Note_on_c, 0, 70, 0
2, 505457, Note_on_c, 0, 46, 37
2, 505557, Note_on_c, 0, 46, 0
2, 505601, Note_on_c, 0, 58, 0
2, 505957, Note_on_c, 0, 74, 68
2, 505981, Note_on_c, 0, 68, 32
2, 505989, Note_on_c, 0, 62, 42
2, 505993, Control_c, 0, 64, 40
2, 506009, Note_on_c, 0, 58, 23
2, 506009, Control_c, 0, 64, 0
2, 506097, Control_c, 0, 64, 72
2, 506109, Control_c, 0, 64, 127
2, 506113, Note_on_c, 0, 74, 0
2, 506193, Note_on_c, 0, 58, 0
2, 506377, Note_on_c, 0, 74, 75
2, 506389, Note_on_c, 0, 57, 26
2, 506389, Control_c, 0, 64, 104
2, 506405, Control_c, 0, 64, 40
2, 506421, Control_c, 0, 64, 0
2, 506493, Control_c, 0, 64, 40
2, 506509, Control_c, 0, 64, 104
2, 506521, Note_on_c, 0, 74, 0
2, 506521, Control_c, 0, 64, 127
2, 506537, Note_on_c, 0, 62, 0
2, 506553, Note_on_c, 0, 68, 0
2, 506653, Note_on_c, 0, 74, 69
2, 506741, Note_on_c, 0, 74, 0
2, 506753, Note_on_c, 0, 77, 83
2, 506785, Note_on_c, 0, 69, 40
2, 506789, Control_c, 0, 64, 88
2, 506797, Note_on_c, 0, 62, 31
2, 506801, Control_c, 0, 64, 24
2, 506817, Control_c, 0, 64, 0
2, 506905, Control_c, 0, 64, 88
2, 506917, Control_c, 0, 64, 127
2, 506969, Note_on_c, 0, 69, 0
2, 507045, Note_on_c, 0, 62, 0
2, 507189, Note_on_c, 0, 77, 0
2, 507213, Note_on_c, 0, 76, 62
2, 507245, Note_on_c, 0, 67, 35
2, 507253, Note_on_c, 0, 61, 27
2, 507317, Control_c, 0, 64, 40
2, 507333, Control_c, 0, 64, 0
2, 507437, Control_c, 0, 64, 88
2, 507449, Control_c, 0, 64, 127
2, 507481, Note_on_c, 0, 67, 0
2, 507589, Note_on_c, 0, 61, 0
2, 507645, Note_on_c, 0, 76, 0
2, 507721, Note_on_c, 0, 74, 55
2, 507753, Note_on_c, 0, 65, 38
2, 507753, Note_on_c, 0, 62, 34
2, 507801, Control_c, 0, 64, 40
2, 507817, Control_c, 0, 64, 0
2, 507905, Note_on_c, 0, 74, 0
2, 507905, Control_c, 0, 64, 40
2, 507921, Control_c, 0, 64, 127
2, 508021, Note_on_c, 0, 57, 0
2, 508029, Note_on_c, 0, 65, 0
2, 508029, Note_on_c, 0, 62, 0
2, 508149, Note_on_c, 0, 93, 81
2, 508221, Note_on_c, 0, 88, 82
2, 508225, Note_on_c, 0, 93, 0
2, 508257, Note_on_c, 0, 81, 36
2, 508289, Note_on_c, 0, 88, 0
2, 508349, Note_on_c, 0, 81, 0
2, 508529, Note_on_c, 0, 89, 73
2, 508569, Control_c, 0, 64, 88
2, 508577, Note_on_c, 0, 85, 77
2, 508581, Control_c, 0, 64, 24
2, 508593, Note_on_c, 0, 77, 41
2, 508597, Control_c, 0, 64, 0
2, 508601, Note_on_c, 0, 89, 0
2, 508617, Note_on_c, 0, 62, 49
2, 508617, Note_on_c, 0, 56, 39
2, 508657, Control_c, 0, 64, 72
2, 508661, Note_on_c, 0, 85, 0
2, 508669, Control_c, 0, 64, 127
2, 508749, Note_on_c, 0, 77, 0
2, 508869, Note_on_c, 0, 56, 0
2, 508877, Note_on_c, 0, 86, 71
2, 508945, Note_on_c, 0, 86, 0
2, 508945, Note_on_c, 0, 80, 71
2, 508957, Note_on_c, 0, 57, 48
2, 508961, Note_on_c, 0, 74, 52
2, 508965, Control_c, 0, 64, 72
2, 508981, Control_c, 0, 64, 0
2, 509041, Note_on_c, 0, 80, 0
2, 509053, Control_c, 0, 64, 24
2, 509069, Control_c, 0, 64, 88
2, 509085, Control_c, 0, 64, 127
2, 509153, Note_on_c, 0, 74, 0
2, 509229, Note_on_c, 0, 81, 66
2, 509297, Note_on_c, 0, 81, 0
2, 509305, Note_on_c, 0, 76, 65
2, 509305, Control_c, 0, 64, 88
2, 509317, Control_c, 0, 64, 24
2, 509321, Note_on_c, 0, 65, 64
2, 509333, Control_c, 0, 64, 0
2, 509349, Note_on_c, 0, 69, 45
2, 509393, Control_c, 0, 64, 56
2, 509409, Control_c, 0, 64, 104
2, 509421, Control_c, 0, 64, 127
2, 509445, Note_on_c, 0, 76, 0
2, 509573, Note_on_c, 0, 69, 0
2, 509609, Note_on_c, 0, 65, 0
2, 509617, Note_on_c, 0, 77, 63
2, 509661, Note_on_c, 0, 77, 0
2, 509717, Note_on_c, 0, 62, 0
2, 509733, Note_on_c, 0, 67, 41
2, 509733, Note_on_c, 0, 71, 53
2, 509733, Note_on_c, 0, 64, 61
2, 509745, Control_c, 0, 64, 104
2, 509761, Control_c, 0, 64, 40
2, 509777, Control_c, 0, 64, 0
2, 509865, Control_c, 0, 64, 56
2, 509877, Control_c, 0, 64, 127
2, 509993, Note_on_c, 0, 71, 0
2, 510013, Note_on_c, 0, 67, 0
2, 510077, Note_on_c, 0, 73, 56
2, 510169, Note_on_c, 0, 73, 0
2, 510173, Note_on_c, 0, 64, 0
2, 510205, Note_on_c, 0, 74, 55
2, 510213, Note_on_c, 0, 62, 57
2, 510213, Note_on_c, 0, 65, 41
2, 510233, Control_c, 0, 64, 56
2, 510245, Control_c, 0, 64, 0
2, 510333, Control_c, 0, 64, 40
2, 510349, Control_c, 0, 64, 104
2, 510365, Control_c, 0, 64, 127
2, 510385, Note_on_c, 0, 57, 0
2, 510597, Control_c, 0, 64, 88
2, 510613, Control_c, 0, 64, 24
2, 510629, Control_c, 0, 64, 0
2, 510649, Note_on_c, 0, 50, 46
2, 510673, Control_c, 0, 64, 24
2, 510689, Control_c, 0, 64, 72
2, 510701, Control_c, 0, 64, 127
2, 510717, Note_on_c, 0, 65, 0
2, 510741, Note_on_c, 0, 50, 0
2, 510753, Note_on_c, 0, 74, 0
2, 510765, Note_on_c, 0, 62, 0
2, 511177, Note_on_c, 0, 70, 61
2, 511189, Note_on_c, 0, 62, 48
2, 511189, Note_on_c, 0, 68, 43
2, 511205, Note_on_c, 0, 58, 31
2, 511261, Control_c, 0, 64, 56
2, 511277, Control_c, 0, 64, 0
2, 511381, Control_c, 0, 64, 88
2, 511393, Control_c, 0, 64, 127
2, 511405, Note_on_c, 0, 62, 0
2, 511433, Note_on_c, 0, 68, 0
2, 511445, Note_on_c, 0, 70, 0
2, 511677, Note_on_c, 0, 70, 65
2, 511705, Note_on_c, 0, 67, 43
2, 511725, Note_on_c, 0, 63, 41
2, 511733, Note_on_c, 0, 51, 48
2, 511733, Control_c, 0, 64, 40
2, 511749, Control_c, 0, 64, 0
2, 511805, Control_c, 0, 64, 40
2, 511821, Control_c, 0, 64, 127
2, 511849, Note_on_c, 0, 67, 0
2, 511889, Note_on_c, 0, 51, 0
2, 511901, Note_on_c, 0, 63, 0
2, 511901, Note_on_c, 0, 70, 0
2, 511913, Note_on_c, 0, 58, 0
2, 512105, Note_on_c, 0, 79, 82
2, 512117, Note_on_c, 0, 67, 56
2, 512277, Note_on_c, 0, 67, 0
2, 512465, Note_on_c, 0, 79, 0
2, 512501, Note_on_c, 0, 77, 76
2, 512513, Note_on_c, 0, 65, 47
2, 512525, Control_c, 0, 64, 104
2, 512533, Note_on_c, 0, 59, 41
2, 512533, Note_on_c, 0, 55, 43
2, 512541, Control_c, 0, 64, 40
2, 512557, Control_c, 0, 64, 0
2, 512593, Note_on_c, 0, 59, 0
2, 512601, Control_c, 0, 64, 24
2, 512613, Note_on_c, 0, 65, 0
2, 512613, Control_c, 0, 64, 88
2, 512617, Note_on_c, 0, 55, 0
2, 512629, Control_c, 0, 64, 127
2, 512821, Note_on_c, 0, 48, 48
2, 512849, Note_on_c, 0, 55, 44
2, 512925, Note_on_c, 0, 77, 0
2, 512925, Note_on_c, 0, 75, 74
2, 512957, Note_on_c, 0, 63, 51
2, 512969, Control_c, 0, 64, 104
2, 512981, Control_c, 0, 64, 24
2, 512997, Control_c, 0, 64, 0
2, 513085, Control_c, 0, 64, 104
2, 513101, Control_c, 0, 64, 127
2, 513157, Note_on_c, 0, 75, 0
2, 513209, Note_on_c, 0, 63, 0
2, 513309, Note_on_c, 0, 74, 73
2, 513317, Note_on_c, 0, 62, 56
2, 513365, Control_c, 0, 64, 72
2, 513381, Control_c, 0, 64, 40
2, 513397, Control_c, 0, 64, 56
2, 513409, Control_c, 0, 64, 104
2, 513425, Control_c, 0, 64, 127
2, 513433, Note_on_c, 0, 48, 0
2, 513441, Note_on_c, 0, 62, 0
2, 513481, Note_on_c, 0, 55, 0
2, 513601, Note_on_c, 0, 74, 0
2, 513677, Note_on_c, 0, 72, 72
2, 513705, Note_on_c, 0, 60, 43
2, 513705, Note_on_c, 0, 51, 43
2, 513713, Note_on_c, 0, 55, 40
2, 513721, Control_c, 0, 64, 88
2, 513733, Control_c, 0, 64, 0
2, 513797, Note_on_c, 0, 55, 0
2, 513821, Note_on_c, 0, 51, 0
2, 513821, Control_c, 0, 64, 72
2, 513837, Note_on_c, 0, 72, 0
2, 513837, Control_c, 0, 64, 127
2, 514005, Note_on_c, 0, 60, 0
2, 514077, Note_on_c, 0, 74, 69
2, 514081, Note_on_c, 0, 53, 48
2, 514085, Control_c, 0, 64, 104
2, 514101, Control_c, 0, 64, 40
2, 514117, Control_c, 0, 64, 0
2, 514233, Control_c, 0, 64, 72
2, 514249, Control_c, 0, 64, 127
2, 514453, Note_on_c, 0, 62, 60
2, 514473, Note_on_c, 0, 58, 44
2, 514541, Note_on_c, 0, 53, 0
2, 514621, Note_on_c, 0, 62, 0
2, 514741, Note_on_c, 0, 58, 0
2, 514765, Note_on_c, 0, 74, 0
2, 514845, Note_on_c, 0, 63, 67
2, 514853, Note_on_c, 0, 72, 69
2, 514869, Note_on_c, 0, 54, 42
2, 514881, Note_on_c, 0, 57, 46
2, 514897, Control_c, 0, 64, 88
2, 514913, Control_c, 0, 64, 0
2, 515001, Control_c, 0, 64, 56
2, 515013, Control_c, 0, 64, 127
2, 515141, Note_on_c, 0, 54, 0
2, 515165, Note_on_c, 0, 57, 0
2, 515277, Note_on_c, 0, 70, 55
2, 515313, Note_on_c, 0, 55, 40
2, 515317, Note_on_c, 0, 72, 0
2, 515381, Control_c, 0, 64, 72
2, 515397, Control_c, 0, 64, 0
2, 515485, Control_c, 0, 64, 40
2, 515497, Control_c, 0, 64, 104
2, 515513, Control_c, 0, 64, 127
2, 515577, Note_on_c, 0, 63, 0
2, 515761, Note_on_c, 0, 62, 42
2, 515765, Note_on_c, 0, 58, 23
2, 515793, Control_c, 0, 64, 40
2, 515809, Control_c, 0, 64, 0
2, 515881, Control_c, 0, 64, 72
2, 515897, Control_c, 0, 64, 127
2, 515961, Note_on_c, 0, 62, 0
2, 515965, Note_on_c, 0, 55, 0
2, 515973, Note_on_c, 0, 70, 0
2, 515973, Note_on_c, 0, 58, 0
2, 516257, Note_on_c, 0, 70, 65
2, 516269, Note_on_c, 0, 68, 45
2, 516277, Note_on_c, 0, 62, 44
2, 516285, Note_on_c, 0, 58, 31
2, 516293, Control_c, 0, 64, 40
2, 516309, Control_c, 0, 64, 0
2, 516369, Control_c, 0, 64, 24
2, 516385, Control_c, 0, 64, 88
2, 516397, Note_on_c, 0, 62, 0
2, 516397, Control_c, 0, 64, 127
2, 516425, Note_on_c, 0, 68, 0
2, 516465, Note_on_c, 0, 70, 0
2, 516653, Note_on_c, 0, 70, 64
2, 516673, Note_on_c, 0, 67, 59
2, 516677, Note_on_c, 0, 51, 47
2, 516677, Note_on_c, 0, 63, 29
2, 516677, Control_c, 0, 64, 72
2, 516693, Control_c, 0, 64, 24
2, 516709, Note_on_c, 0, 67, 0
2, 516709, Control_c, 0, 64, 0
2, 516737, Control_c, 0, 64, 56
2, 516753, Note_on_c, 0, 70, 0
2, 516753, Control_c, 0, 64, 127
2, 516773, Note_on_c, 0, 51, 0
2, 516785, Note_on_c, 0, 63, 0
2, 516797, Note_on_c, 0, 58, 0
2, 516969, Note_on_c, 0, 69, 62
2, 517013, Control_c, 0, 64, 88
2, 517029, Note_on_c, 0, 67, 64
2, 517033, Control_c, 0, 64, 40
2, 517045, Control_c, 0, 64, 24
2, 517053, Note_on_c, 0, 69, 0
2, 517053, Note_on_c, 0, 81, 79
2, 517061, Control_c, 0, 64, 56
2, 517077, Control_c, 0, 64, 104
2, 517089, Control_c, 0, 64, 127
2, 517117, Note_on_c, 0, 81, 0
2, 517145, Note_on_c, 0, 67, 0
2, 517329, Note_on_c, 0, 71, 55
2, 517385, Control_c, 0, 64, 72
2, 517397, Control_c, 0, 64, 0
2, 517401, Note_on_c, 0, 65, 60
2, 517413, Note_on_c, 0, 83, 79
2, 517417, Note_on_c, 0, 59, 44
2, 517429, Note_on_c, 0, 71, 0
2, 517429, Note_on_c, 0, 55, 46
2, 517445, Control_c, 0, 64, 104
2, 517457, Control_c, 0, 64, 127
2, 517461, Note_on_c, 0, 59, 0
2, 517473, Note_on_c, 0, 65, 0
2, 517481, Note_on_c, 0, 83, 0
2, 517509, Note_on_c, 0, 55, 0
2, 517693, Note_on_c, 0, 72, 69
2, 517725, Note_on_c, 0, 48, 48
2, 517737, Control_c, 0, 64, 104
2, 517753, Control_c, 0, 64, 0
2, 517769, Note_on_c, 0, 55, 49
2, 517797, Note_on_c, 0, 84, 87
2, 517801, Note_on_c, 0, 72, 0
2, 517825, Note_on_c, 0, 63, 62
2, 517825, Control_c, 0, 64, 40
2, 517841, Control_c, 0, 64, 127
2, 517873, Note_on_c, 0, 84, 0
2, 518001, Note_on_c, 0, 63, 0
2, 518061, Note_on_c, 0, 48, 0
2, 518081, Note_on_c, 0, 74, 66
2, 518141, Note_on_c, 0, 62, 65
2, 518149, Control_c, 0, 64, 72
2, 518165, Note_on_c, 0, 86, 82
2, 518165, Control_c, 0, 64, 40
2, 518177, Note_on_c, 0, 74, 0
2, 518177, Control_c, 0, 64, 56
2, 518193, Control_c, 0, 64, 104
2, 518209, Control_c, 0, 64, 127
2, 518257, Note_on_c, 0, 86, 0
2, 518321, Note_on_c, 0, 62, 0
2, 518429, Note_on_c, 0, 75, 83
2, 518517, Control_c, 0, 64, 88
2, 518533, Note_on_c, 0, 87, 82
2, 518533, Note_on_c, 0, 51, 58
2, 518533, Control_c, 0, 64, 24
2, 518537, Note_on_c, 0, 60, 59
2, 518545, Control_c, 0, 64, 0
2, 518557, Note_on_c, 0, 75, 0
2, 518569, Note_on_c, 0, 55, 0
2, 518593, Control_c, 0, 64, 72
2, 518605, Control_c, 0, 64, 127
2, 518609, Note_on_c, 0, 87, 0
2, 518645, Note_on_c, 0, 51, 0
2, 518785, Note_on_c, 0, 74, 70
2, 518849, Note_on_c, 0, 60, 0
2, 518905, Note_on_c, 0, 86, 83
2, 518913, Control_c, 0, 64, 40
2, 518917, Note_on_c, 0, 50, 52
2, 518929, Control_c, 0, 64, 0
2, 519049, Control_c, 0, 64, 72
2, 519061, Control_c, 0, 64, 127
2, 519297, Note_on_c, 0, 58, 37
2, 519309, Note_on_c, 0, 55, 53
2, 519381, Note_on_c, 0, 86, 0
2, 519417, Note_on_c, 0, 55, 0
2, 519421, Note_on_c, 0, 74, 0
2, 519509, Note_on_c, 0, 58, 0
2, 519685, Note_on_c, 0, 84, 79
2, 519701, Note_on_c, 0, 72, 51
2, 519713, Note_on_c, 0, 54, 35
2, 519725, Note_on_c, 0, 57, 42
2, 519769, Control_c, 0, 64, 40
2, 519781, Control_c, 0, 64, 0
2, 519841, Control_c, 0, 64, 24
2, 519857, Note_on_c, 0, 54, 0
2, 519857, Control_c, 0, 64, 104
2, 519869, Control_c, 0, 64, 127
2, 519901, Note_on_c, 0, 84, 0
2, 519933, Note_on_c, 0, 72, 0
2, 519973, Note_on_c, 0, 57, 0
2, 520125, Note_on_c, 0, 83, 68
2, 520129, Note_on_c, 0, 71, 49
2, 520133, Note_on_c, 0, 56, 37
2, 520153, Note_on_c, 0, 53, 34
2, 520209, Control_c, 0, 64, 88
2, 520221, Control_c, 0, 64, 24
2, 520241, Control_c, 0, 64, 0
2, 520285, Control_c, 0, 64, 56
2, 520293, Note_on_c, 0, 71, 0
2, 520297, Control_c, 0, 64, 127
2, 520517, Note_on_c, 0, 56, 0
2, 520521, Note_on_c, 0, 83, 0
2, 520589, Note_on_c, 0, 58, 40
2, 520593, Note_on_c, 0, 82, 54
2, 520609, Note_on_c, 0, 70, 43
2, 520653, Control_c, 0, 64, 72
2, 520665, Control_c, 0, 64, 0
2, 520741, Control_c, 0, 64, 72
2, 520753, Control_c, 0, 64, 127
2, 520765, Note_on_c, 0, 70, 0
2, 520769, Note_on_c, 0, 82, 0
2, 520805, Note_on_c, 0, 53, 0
2, 520973, Note_on_c, 0, 50, 0
2, 521101, Note_on_c, 0, 58, 0
2, 521157, Note_on_c, 0, 78, 69
2, 521165, Note_on_c, 0, 66, 43
2, 521205, Note_on_c, 0, 54, 28
2, 521209, Control_c, 0, 64, 56
2, 521225, Control_c, 0, 64, 0
2, 521269, Control_c, 0, 64, 24
2, 521281, Control_c, 0, 64, 88
2, 521297, Control_c, 0, 64, 127
2, 521325, Note_on_c, 0, 54, 0
2, 521405, Note_on_c, 0, 66, 0
2, 521461, Note_on_c, 0, 78, 0
2, 521593, Note_on_c, 0, 79, 76
2, 521601, Note_on_c, 0, 67, 56
2, 521625, Note_on_c, 0, 39, 50
2, 521649, Control_c, 0, 64, 56
2, 521665, Control_c, 0, 64, 0
2, 521725, Control_c, 0, 64, 104
2, 521741, Control_c, 0, 64, 127
2, 521745, Note_on_c, 0, 67, 0
2, 521777, Note_on_c, 0, 39, 0
2, 521781, Note_on_c, 0, 79, 0
2, 521993, Note_on_c, 0, 82, 84
2, 522005, Note_on_c, 0, 55, 60
2, 522005, Note_on_c, 0, 70, 64
2, 522097, Note_on_c, 0, 55, 0
2, 522165, Note_on_c, 0, 70, 0
2, 522213, Note_on_c, 0, 82, 0
2, 522397, Note_on_c, 0, 81, 81
2, 522413, Note_on_c, 0, 69, 51
2, 522413, Note_on_c, 0, 75, 56
2, 522433, Note_on_c, 0, 53, 55
2, 522433, Control_c, 0, 64, 88
2, 522445, Note_on_c, 0, 41, 48
2, 522445, Control_c, 0, 64, 0
2, 522533, Control_c, 0, 64, 88
2, 522545, Note_on_c, 0, 53, 0
2, 522549, Note_on_c, 0, 69, 0
2, 522549, Control_c, 0, 64, 127
2, 522561, Note_on_c, 0, 41, 0
2, 522589, Note_on_c, 0, 75, 0
2, 522589, Note_on_c, 0, 81, 0
2, 522857, Note_on_c, 0, 82, 70
2, 522873, Note_on_c, 0, 70, 39
2, 522885, Note_on_c, 0, 74, 58
2, 522885, Note_on_c, 0, 46, 41
2, 522889, Control_c, 0, 64, 104
2, 522901, Note_on_c, 0, 34, 48
2, 522901, Control_c, 0, 64, 0
2, 522969, Note_on_c, 0, 74, 0
2, 522977, Control_c, 0, 64, 40
2, 522985, Note_on_c, 0, 70, 0
2, 522989, Note_on_c, 0, 34, 0
2, 522989, Control_c, 0, 64, 127
2, 522993, Note_on_c, 0, 46, 0
2, 523013, Note_on_c, 0, 82, 0
2, 523281, Note_on_c, 0, 89, 66
2, 523353, Note_on_c, 0, 85, 78
2, 523361, Note_on_c, 0, 89, 0
2, 523381, Note_on_c, 0, 77, 54
2, 523421, Note_on_c, 0, 77, 0
2, 523421, Note_on_c, 0, 85, 0
2, 523641, Note_on_c, 0, 86, 65
2, 523701, Note_on_c, 0, 81, 72
2, 523709, Note_on_c, 0, 86, 0
2, 523713, Control_c, 0, 64, 88
2, 523725, Control_c, 0, 64, 24
2, 523729, Note_on_c, 0, 54, 52
2, 523741, Control_c, 0, 64, 0
2, 523769, Note_on_c, 0, 74, 43
2, 523769, Control_c, 0, 64, 24
2, 523785, Control_c, 0, 64, 88
2, 523801, Control_c, 0, 64, 127
2, 523897, Note_on_c, 0, 81, 0
2, 523941, Note_on_c, 0, 74, 0
2, 523985, Note_on_c, 0, 82, 57
2, 524069, Note_on_c, 0, 54, 0
2, 524069, Note_on_c, 0, 78, 69
2, 524077, Note_on_c, 0, 82, 0
2, 524077, Note_on_c, 0, 55, 69
2, 524077, Control_c, 0, 64, 104
2, 524085, Note_on_c, 0, 51, 53
2, 524093, Control_c, 0, 64, 40
2, 524109, Control_c, 0, 64, 0
2, 524129, Note_on_c, 0, 70, 43
2, 524153, Note_on_c, 0, 78, 0
2, 524165, Control_c, 0, 64, 72
2, 524181, Control_c, 0, 64, 127
2, 524201, Note_on_c, 0, 70, 0
2, 524361, Note_on_c, 0, 79, 64
2, 524429, Note_on_c, 0, 79, 0
2, 524445, Note_on_c, 0, 58, 61
2, 524445, Control_c, 0, 64, 40
2, 524457, Note_on_c, 0, 74, 56
2, 524461, Control_c, 0, 64, 0
2, 524465, Note_on_c, 0, 55, 0
2, 524505, Note_on_c, 0, 67, 41
2, 524553, Control_c, 0, 64, 88
2, 524565, Control_c, 0, 64, 127
2, 524621, Note_on_c, 0, 74, 0
2, 524641, Note_on_c, 0, 51, 0
2, 524689, Note_on_c, 0, 67, 0
2, 524737, Note_on_c, 0, 75, 49
2, 524777, Note_on_c, 0, 75, 0
2, 524849, Note_on_c, 0, 57, 60
2, 524865, Note_on_c, 0, 71, 55
2, 524865, Note_on_c, 0, 53, 49
2, 524869, Note_on_c, 0, 58, 0
2, 524873, Note_on_c, 0, 63, 41
2, 524873, Control_c, 0, 64, 88
2, 524889, Control_c, 0, 64, 0
2, 524957, Note_on_c, 0, 71, 0
2, 524977, Control_c, 0, 64, 40
2, 524993, Control_c, 0, 64, 127
2, 525001, Note_on_c, 0, 63, 0
2, 525177, Note_on_c, 0, 72, 48
2, 525213, Control_c, 0, 64, 104
2, 525225, Control_c, 0, 64, 24
2, 525237, Note_on_c, 0, 72, 0
2, 525241, Control_c, 0, 64, 0
2, 525293, Note_on_c, 0, 58, 55
2, 525293, Note_on_c, 0, 70, 46
2, 525309, Note_on_c, 0, 62, 45
2, 525345, Control_c, 0, 64, 88
2, 525353, Note_on_c, 0, 57, 0
2, 525361, Control_c, 0, 64, 127
2, 525485, Note_on_c, 0, 53, 0
2, 525701, Control_c, 0, 64, 88
2, 525713, Control_c, 0, 64, 0
2, 525757, Note_on_c, 0, 46, 44
2, 525817, Control_c, 0, 64, 40
2, 525829, Control_c, 0, 64, 127
2, 525841, Note_on_c, 0, 62, 0
2, 525893, Note_on_c, 0, 46, 0
2, 525909, Note_on_c, 0, 70, 0
2, 525925, Note_on_c, 0, 58, 0
2, 526297, Note_on_c, 0, 74, 68
2, 526313, Note_on_c, 0, 68, 39
2, 526325, Note_on_c, 0, 58, 41
2, 526333, Note_on_c, 0, 62, 36
2, 526349, Control_c, 0, 64, 88
2, 526361, Control_c, 0, 64, 24
2, 526377, Control_c, 0, 64, 0
2, 526433, Control_c, 0, 64, 56
2, 526449, Control_c, 0, 64, 127
2, 526461, Note_on_c, 0, 74, 0
2, 526565, Note_on_c, 0, 58, 0
2, 526717, Note_on_c, 0, 74, 78
2, 526717, Note_on_c, 0, 57, 41
2, 526745, Control_c, 0, 64, 56
2, 526761, Control_c, 0, 64, 0
2, 526833, Control_c, 0, 64, 40
2, 526841, Note_on_c, 0, 74, 0
2, 526849, Control_c, 0, 64, 127
2, 526901, Note_on_c, 0, 62, 0
2, 526937, Note_on_c, 0, 68, 0
2, 527005, Note_on_c, 0, 74, 77
2, 527097, Note_on_c, 0, 74, 0
2, 527105, Note_on_c, 0, 77, 87
2, 527121, Note_on_c, 0, 69, 53
2, 527137, Note_on_c, 0, 62, 43
2, 527157, Control_c, 0, 64, 104
2, 527169, Control_c, 0, 64, 0
2, 527257, Control_c, 0, 64, 56
2, 527273, Control_c, 0, 64, 127
2, 527297, Note_on_c, 0, 69, 0
2, 527369, Note_on_c, 0, 62, 0
2, 527557, Note_on_c, 0, 77, 0
2, 527557, Note_on_c, 0, 76, 74
2, 527577, Note_on_c, 0, 67, 43
2, 527585, Note_on_c, 0, 61, 44
2, 527641, Control_c, 0, 64, 88
2, 527657, Control_c, 0, 64, 0
2, 527745, Control_c, 0, 64, 56
2, 527761, Control_c, 0, 64, 127
2, 527769, Note_on_c, 0, 67, 0
2, 527869, Note_on_c, 0, 61, 0
2, 528001, Note_on_c, 0, 76, 0
2, 528037, Note_on_c, 0, 74, 55
2, 528061, Note_on_c, 0, 62, 40
2, 528069, Note_on_c, 0, 65, 42
2, 528109, Control_c, 0, 64, 40
2, 528129, Control_c, 0, 64, 0
2, 528185, Note_on_c, 0, 74, 0
2, 528217, Control_c, 0, 64, 56
2, 528229, Control_c, 0, 64, 127
2, 528445, Note_on_c, 0, 93, 81
2, 528513, Note_on_c, 0, 93, 0
2, 528525, Note_on_c, 0, 57, 0
2, 528529, Note_on_c, 0, 62, 0
2, 528533, Note_on_c, 0, 88, 70
2, 528549, Note_on_c, 0, 65, 0
2, 528553, Note_on_c, 0, 81, 56
2, 528589, Note_on_c, 0, 88, 0
2, 528617, Note_on_c, 0, 81, 0
2, 528833, Note_on_c, 0, 89, 65
2, 528897, Note_on_c, 0, 85, 73
2, 528905, Note_on_c, 0, 89, 0
2, 528917, Note_on_c, 0, 77, 60
2, 528921, Control_c, 0, 64, 72
2, 528933, Note_on_c, 0, 56, 40
2, 528937, Control_c, 0, 64, 24
2, 528941, Note_on_c, 0, 62, 48
2, 528953, Control_c, 0, 64, 0
2, 528969, Note_on_c, 0, 85, 0
2, 528997, Control_c, 0, 64, 72
2, 529005, Note_on_c, 0, 77, 0
2, 529009, Control_c, 0, 64, 127
2, 529181, Note_on_c, 0, 86, 64
2, 529205, Note_on_c, 0, 56, 0
2, 529253, Note_on_c, 0, 80, 71
2, 529257, Note_on_c, 0, 86, 0
2, 529273, Note_on_c, 0, 74, 52
2, 529277, Control_c, 0, 64, 88
2, 529289, Note_on_c, 0, 57, 56
2, 529289, Control_c, 0, 64, 0
2, 529345, Note_on_c, 0, 80, 0
2, 529365, Control_c, 0, 64, 40
2, 529377, Control_c, 0, 64, 127
2, 529441, Note_on_c, 0, 74, 0
2, 529533, Note_on_c, 0, 81, 66
2, 529601, Note_on_c, 0, 81, 0
2, 529621, Note_on_c, 0, 76, 73
2, 529629, Control_c, 0, 64, 40
2, 529645, Control_c, 0, 64, 0
2, 529649, Note_on_c, 0, 65, 56
2, 529717, Control_c, 0, 64, 72
2, 529733, Control_c, 0, 64, 127
2, 529741, Note_on_c, 0, 76, 0
2, 529897, Note_on_c, 0, 65, 0
2, 529917, Note_on_c, 0, 77, 61
2, 529985, Note_on_c, 0, 77, 0
2, 530001, Note_on_c, 0, 62, 0
2, 530045, Note_on_c, 0, 71, 56
2, 530045, Note_on_c, 0, 67, 39
2, 530045, Note_on_c, 0, 64, 55
2, 530069, Control_c, 0, 64, 88
2, 530085, Control_c, 0, 64, 0
2, 530201, Control_c, 0, 64, 127
2, 530317, Note_on_c, 0, 71, 0
2, 530361, Note_on_c, 0, 67, 0
2, 530437, Note_on_c, 0, 73, 63
2, 530481, Note_on_c, 0, 73, 0
2, 530517, Note_on_c, 0, 64, 0
2, 530553, Note_on_c, 0, 74, 59
2, 530565, Note_on_c, 0, 65, 35
2, 530581, Note_on_c, 0, 62, 39
2, 530585, Control_c, 0, 64, 104
2, 530597, Control_c, 0, 64, 24
2, 530613, Control_c, 0, 64, 0
2, 530689, Control_c, 0, 64, 24
2, 530697, Note_on_c, 0, 69, 1
2, 530705, Control_c, 0, 64, 104
2, 530717, Control_c, 0, 64, 127
2, 530745, Note_on_c, 0, 57, 0
2, 530937, Control_c, 0, 64, 104
2, 530953, Control_c, 0, 64, 24
2, 530969, Control_c, 0, 64, 0
2, 531005, Note_on_c, 0, 50, 52
2, 531013, Control_c, 0, 64, 24
2, 531029, Control_c, 0, 64, 88
2, 531041, Control_c, 0, 64, 127
2, 531057, Note_on_c, 0, 69, 0
2, 531069, Note_on_c, 0, 65, 0
2, 531089, Note_on_c, 0, 50, 0
2, 531109, Note_on_c, 0, 74, 0
2, 531121, Note_on_c, 0, 62, 0
2, 531521, Note_on_c, 0, 70, 69
2, 531541, Note_on_c, 0, 68, 44
2, 531557, Note_on_c, 0, 62, 41
2, 531569, Note_on_c, 0, 58, 28
2, 531601, Control_c, 0, 64, 104
2, 531613, Control_c, 0, 64, 24
2, 531629, Control_c, 0, 64, 0
2, 531689, Control_c, 0, 64, 40
2, 531701, Control_c, 0, 64, 127
2, 531757, Note_on_c, 0, 62, 0
2, 531769, Note_on_c, 0, 68, 0
2, 531793, Note_on_c, 0, 70, 0
2, 532021, Note_on_c, 0, 70, 64
2, 532053, Note_on_c, 0, 51, 50
2, 532069, Note_on_c, 0, 67, 40
2, 532085, Note_on_c, 0, 63, 43
2, 532101, Control_c, 0, 64, 56
2, 532117, Control_c, 0, 64, 0
2, 532189, Control_c, 0, 64, 88
2, 532205, Control_c, 0, 64, 127
2, 532209, Note_on_c, 0, 67, 0
2, 532229, Note_on_c, 0, 51, 0
2, 532257, Note_on_c, 0, 63, 0
2, 532257, Note_on_c, 0, 70, 0
2, 532281, Note_on_c, 0, 58, 0
2, 532457, Note_on_c, 0, 79, 80
2, 532481, Note_on_c, 0, 67, 51
2, 532621, Note_on_c, 0, 67, 0
2, 532805, Note_on_c, 0, 79, 0
2, 532845, Note_on_c, 0, 77, 86
2, 532865, Note_on_c, 0, 65, 42
2, 532865, Note_on_c, 0, 59, 41
2, 532881, Note_on_c, 0, 55, 46
2, 532881, Control_c, 0, 64, 72
2, 532897, Control_c, 0, 64, 0
2, 532941, Note_on_c, 0, 59, 0
2, 532953, Note_on_c, 0, 65, 0
2, 532953, Control_c, 0, 64, 56
2, 532969, Control_c, 0, 64, 127
2, 532973, Note_on_c, 0, 55, 0
2, 533169, Note_on_c, 0, 48, 48
2, 533233, Note_on_c, 0, 55, 44
2, 533269, Note_on_c, 0, 75, 80
2, 533297, Note_on_c, 0, 63, 50
2, 533301, Note_on_c, 0, 77, 0
2, 533321, Control_c, 0, 64, 88
2, 533337, Control_c, 0, 64, 0
2, 533413, Control_c, 0, 64, 40
2, 533425, Control_c, 0, 64, 127
2, 533477, Note_on_c, 0, 75, 0
2, 533517, Note_on_c, 0, 63, 0
2, 533637, Note_on_c, 0, 48, 0
2, 533637, Note_on_c, 0, 74, 81
2, 533661, Note_on_c, 0, 62, 46
2, 533777, Note_on_c, 0, 62, 0
2, 533877, Note_on_c, 0, 55, 0
2, 534005, Note_on_c, 0, 74, 0
2, 534021, Note_on_c, 0, 55, 45
2, 534021, Note_on_c, 0, 60, 45
2, 534021, Note_on_c, 0, 51, 51
2, 534021, Note_on_c, 0, 72, 82
2, 534057, Control_c, 0, 64, 72
2, 534073, Control_c, 0, 64, 0
2, 534105, Note_on_c, 0, 55, 0
2, 534153, Note_on_c, 0, 51, 0
2, 534161, Control_c, 0, 64, 104
2, 534177, Control_c, 0, 64, 127
2, 534233, Note_on_c, 0, 72, 0
2, 534361, Note_on_c, 0, 60, 0
2, 534433, Note_on_c, 0, 74, 74
2, 534457, Note_on_c, 0, 53, 52
2, 534529, Control_c, 0, 64, 40
2, 534545, Control_c, 0, 64, 0
2, 534649, Control_c, 0, 64, 72
2, 534661, Control_c, 0, 64, 127
2, 534825, Note_on_c, 0, 62, 57
2, 534845, Note_on_c, 0, 58, 46
2, 534889, Note_on_c, 0, 53, 0
2, 534985, Note_on_c, 0, 62, 0
2, 535109, Note_on_c, 0, 58, 0
2, 535113, Note_on_c, 0, 74, 0
2, 535213, Note_on_c, 0, 72, 68
2, 535221, Note_on_c, 0, 63, 62
2, 535241, Note_on_c, 0, 54, 48
2, 535253, Note_on_c, 0, 57, 47
2, 535265, Control_c, 0, 64, 104
2, 535281, Control_c, 0, 64, 24
2, 535293, Control_c, 0, 64, 0
2, 535369, Control_c, 0, 64, 40
2, 535385, Control_c, 0, 64, 104
2, 535397, Control_c, 0, 64, 127
2, 535569, Note_on_c, 0, 54, 0
2, 535605, Note_on_c, 0, 57, 0
2, 535657, Note_on_c, 0, 70, 57
2, 535685, Note_on_c, 0, 72, 0
2, 535697, Note_on_c, 0, 55, 42
2, 535749, Control_c, 0, 64, 56
2, 535765, Control_c, 0, 64, 0
2, 535841, Control_c, 0, 64, 40
2, 535853, Control_c, 0, 64, 104
2, 535869, Control_c, 0, 64, 127
2, 535981, Note_on_c, 0, 63, 0
2, 536141, Note_on_c, 0, 62, 42
2, 536145, Note_on_c, 0, 58, 37
2, 536193, Control_c, 0, 64, 88
2, 536205, Control_c, 0, 64, 0
2, 536281, Control_c, 0, 64, 40
2, 536297, Control_c, 0, 64, 104
2, 536309, Control_c, 0, 64, 127
2, 536349, Note_on_c, 0, 58, 0
2, 536353, Note_on_c, 0, 70, 0
2, 536357, Note_on_c, 0, 62, 0
2, 536357, Note_on_c, 0, 55, 0
2, 536637, Note_on_c, 0, 70, 60
2, 536653, Note_on_c, 0, 68, 39
2, 536657, Note_on_c, 0, 62, 44
2, 536661, Note_on_c, 0, 58, 65
2, 536693, Control_c, 0, 64, 88
2, 536705, Control_c, 0, 64, 0
2, 536765, Control_c, 0, 64, 24
2, 536781, Note_on_c, 0, 62, 0
2, 536781, Note_on_c, 0, 68, 0
2, 536781, Control_c, 0, 64, 72
2, 536797, Control_c, 0, 64, 127
2, 536817, Note_on_c, 0, 70, 0
2, 536841, Note_on_c, 0, 58, 0
2, 537041, Note_on_c, 0, 70, 61
2, 537041, Note_on_c, 0, 58, 70
2, 537061, Control_c, 0, 64, 104
2, 537073, Note_on_c, 0, 63, 39
2, 537073, Control_c, 0, 64, 40
2, 537077, Note_on_c, 0, 67, 40
2, 537081, Note_on_c, 0, 51, 48
2, 537089, Control_c, 0, 64, 0
2, 537109, Note_on_c, 0, 67, 0
2, 537133, Control_c, 0, 64, 88
2, 537149, Note_on_c, 0, 58, 0
2, 537149, Note_on_c, 0, 70, 0
2, 537149, Control_c, 0, 64, 127
2, 537173, Note_on_c, 0, 51, 0
2, 537177, Note_on_c, 0, 63, 0
2, 537345, Note_on_c, 0, 69, 66
2, 537397, Control_c, 0, 64, 56
2, 537413, Note_on_c, 0, 67, 75
2, 537417, Control_c, 0, 64, 0
2, 537425, Note_on_c, 0, 69, 0
2, 537429, Note_on_c, 0, 81, 75
2, 537429, Control_c, 0, 64, 24
2, 537441, Control_c, 0, 64, 72
2, 537457, Control_c, 0, 64, 127
2, 537489, Note_on_c, 0, 81, 0
2, 537509, Note_on_c, 0, 67, 0
2, 537709, Note_on_c, 0, 71, 56
2, 537765, Control_c, 0, 64, 88
2, 537781, Control_c, 0, 64, 24
2, 537797, Note_on_c, 0, 71, 0
2, 537797, Note_on_c, 0, 83, 81
2, 537797, Note_on_c, 0, 65, 73
2, 537797, Control_c, 0, 64, 0
2, 537825, Note_on_c, 0, 55, 39
2, 537825, Control_c, 0, 64, 40
2, 537837, Note_on_c, 0, 59, 36
2, 537837, Control_c, 0, 64, 104
2, 537857, Note_on_c, 0, 83, 0
2, 537857, Control_c, 0, 64, 127
2, 537869, Note_on_c, 0, 65, 0
2, 537873, Note_on_c, 0, 59, 0
2, 537901, Note_on_c, 0, 55, 0
2, 538081, Note_on_c, 0, 72, 68
2, 538129, Note_on_c, 0, 48, 51
2, 538133, Control_c, 0, 64, 72
2, 538149, Control_c, 0, 64, 0
2, 538161, Note_on_c, 0, 72, 0
2, 538161, Note_on_c, 0, 55, 47
2, 538169, Note_on_c, 0, 84, 82
2, 538209, Control_c, 0, 64, 40
2, 538221, Note_on_c, 0, 63, 70
2, 538225, Control_c, 0, 64, 127
2, 538237, Note_on_c, 0, 84, 0
2, 538449, Note_on_c, 0, 63, 0
2, 538453, Note_on_c, 0, 74, 64
2, 538537, Note_on_c, 0, 74, 0
2, 538541, Note_on_c, 0, 86, 82
2, 538561, Note_on_c, 0, 62, 68
2, 538561, Control_c, 0, 64, 56
2, 538577, Control_c, 0, 64, 0
2, 538613, Note_on_c, 0, 86, 0
2, 538621, Control_c, 0, 64, 56
2, 538637, Control_c, 0, 64, 127
2, 538697, Note_on_c, 0, 48, 0
2, 538701, Note_on_c, 0, 62, 0
2, 538749, Note_on_c, 0, 55, 0
2, 538829, Note_on_c, 0, 75, 67
2, 538949, Note_on_c, 0, 87, 77
2, 538953, Note_on_c, 0, 60, 65
2, 538961, Note_on_c, 0, 51, 42
2, 538961, Control_c, 0, 64, 56
2, 538973, Note_on_c, 0, 75, 0
2, 538973, Control_c, 0, 64, 0
2, 539017, Note_on_c, 0, 87, 0
2, 539017, Control_c, 0, 64, 56
2, 539033, Control_c, 0, 64, 127
2, 539073, Note_on_c, 0, 51, 0
2, 539249, Note_on_c, 0, 74, 60
2, 539305, Note_on_c, 0, 60, 0
2, 539373, Note_on_c, 0, 86, 74
2, 539373, Control_c, 0, 64, 72
2, 539385, Control_c, 0, 64, 0
2, 539393, Note_on_c, 0, 50, 47
2, 539501, Control_c, 0, 64, 88
2, 539517, Control_c, 0, 64, 127
2, 539809, Note_on_c, 0, 58, 40
2, 539813, Note_on_c, 0, 55, 42
2, 539829, Note_on_c, 0, 86, 0
2, 540021, Note_on_c, 0, 58, 0
2, 540041, Note_on_c, 0, 55, 0
2, 540193, Note_on_c, 0, 74, 0
2, 540245, Note_on_c, 0, 78, 62
2, 540249, Note_on_c, 0, 60, 44
2, 540253, Note_on_c, 0, 57, 36
2, 540325, Control_c, 0, 64, 104
2, 540341, Control_c, 0, 64, 0
2, 540429, Note_on_c, 0, 60, 0
2, 540429, Control_c, 0, 64, 72
2, 540445, Control_c, 0, 64, 127
2, 540473, Note_on_c, 0, 57, 0
2, 540709, Note_on_c, 0, 78, 0
2, 540753, Note_on_c, 0, 79, 58
2, 540773, Note_on_c, 0, 58, 31
2, 540789, Note_on_c, 0, 55, 34
2, 540797, Control_c, 0, 64, 24
2, 540813, Control_c, 0, 64, 0
2, 540901, Control_c, 0, 64, 88
2, 540917, Control_c, 0, 64, 127
2, 540965, Note_on_c, 0, 55, 0
2, 540997, Note_on_c, 0, 50, 0
2, 541037, Note_on_c, 0, 58, 0
2, 541341, Note_on_c, 0, 43, 46
2, 541401, Note_on_c, 0, 43, 0
2, 541597, Note_on_c, 0, 79, 0
2, 542049, Control_c, 0, 64, 104
2, 542065, Control_c, 0, 64, 72
2, 542077, Control_c, 0, 64, 56
2, 542093, Control_c, 0, 64, 24
2, 542105, Control_c, 0, 64, 0
2, 543361, Note_on_c, 0, 41, 60
2, 543361, Control_c, 0, 64, 40
2, 543373, Control_c, 0, 64, 104
2, 543377, Note_on_c, 0, 41, 0
2, 543381, Note_on_c, 0, 48, 53
2, 543381, Control_c, 0, 64, 127
2, 543401, Note_on_c, 0, 48, 0
2, 543477, Note_on_c, 0, 69, 75
2, 543485, Note_on_c, 0, 60, 82
2, 543489, Note_on_c, 0, 53, 62
2, 543549, Note_on_c, 0, 69, 0
2, 543569, Note_on_c, 0, 75, 73
2, 543625, Note_on_c, 0, 75, 0
2, 543657, Note_on_c, 0, 72, 79
2, 543717, Note_on_c, 0, 60, 0
2, 543721, Note_on_c, 0, 72, 0
2, 543741, Note_on_c, 0, 71, 72
2, 543805, Control_c, 0, 64, 88
2, 543813, Note_on_c, 0, 71, 0
2, 543817, Control_c, 0, 64, 56
2, 543825, Control_c, 0, 64, 40
2, 543829, Note_on_c, 0, 70, 71
2, 543833, Control_c, 0, 64, 24
2, 543841, Note_on_c, 0, 62, 53
2, 543841, Note_on_c, 0, 58, 42
2, 543841, Control_c, 0, 64, 0
2, 543845, Note_on_c, 0, 53, 0
2, 543881, Note_on_c, 0, 62, 0
2, 543909, Note_on_c, 0, 70, 0
2, 543913, Note_on_c, 0, 58, 0
2, 543921, Note_on_c, 0, 74, 78
2, 543993, Note_on_c, 0, 74, 0
2, 544013, Note_on_c, 0, 65, 68
2, 544025, Note_on_c, 0, 58, 40
2, 544037, Note_on_c, 0, 50, 48
2, 544097, Note_on_c, 0, 65, 0
2, 544101, Note_on_c, 0, 70, 72
2, 544169, Note_on_c, 0, 70, 0
2, 544173, Note_on_c, 0, 50, 0
2, 544193, Note_on_c, 0, 66, 69
2, 544209, Note_on_c, 0, 51, 48
2, 544273, Note_on_c, 0, 66, 0
2, 544281, Note_on_c, 0, 70, 69
2, 544357, Note_on_c, 0, 70, 0
2, 544377, Note_on_c, 0, 67, 71
2, 544381, Note_on_c, 0, 51, 0
2, 544389, Note_on_c, 0, 52, 57
2, 544425, Note_on_c, 0, 52, 0
2, 544449, Note_on_c, 0, 67, 0
2, 544461, Note_on_c, 0, 72, 76
2, 544529, Note_on_c, 0, 72, 0
2, 544557, Note_on_c, 0, 65, 68
2, 544577, Note_on_c, 0, 57, 46
2, 544577, Note_on_c, 0, 53, 42
2, 544581, Note_on_c, 0, 58, 0
2, 544645, Control_c, 0, 64, 24
2, 544649, Note_on_c, 0, 72, 78
2, 544653, Note_on_c, 0, 65, 0
2, 544653, Control_c, 0, 64, 56
2, 544665, Control_c, 0, 64, 72
2, 544673, Control_c, 0, 64, 88
2, 544701, Note_on_c, 0, 72, 0
2, 544701, Note_on_c, 0, 57, 0
2, 544709, Control_c, 0, 64, 104
2, 544717, Note_on_c, 0, 53, 0
2, 544737, Control_c, 0, 64, 127
2, 544745, Note_on_c, 0, 63, 60
2, 544769, Note_on_c, 0, 63, 0
2, 544829, Note_on_c, 0, 72, 86
2, 544849, Note_on_c, 0, 41, 56
2, 544849, Note_on_c, 0, 48, 55
2, 544889, Note_on_c, 0, 48, 0
2, 544889, Note_on_c, 0, 41, 0
2, 544897, Note_on_c, 0, 72, 0
2, 544929, Note_on_c, 0, 69, 82
2, 544937, Control_c, 0, 64, 104
2, 544945, Control_c, 0, 64, 56
2, 544953, Control_c, 0, 64, 24
2, 544957, Note_on_c, 0, 60, 82
2, 544961, Note_on_c, 0, 53, 61
2, 544961, Control_c, 0, 64, 0
2, 545005, Note_on_c, 0, 69, 0
2, 545013, Note_on_c, 0, 75, 79
2, 545085, Note_on_c, 0, 75, 0
2, 545109, Note_on_c, 0, 72, 82
2, 545117, Control_c, 0, 64, 24
2, 545181, Note_on_c, 0, 72, 0
2, 545193, Note_on_c, 0, 71, 76
2, 545217, Note_on_c, 0, 60, 0
2, 545233, Control_c, 0, 64, 0
2, 545265, Note_on_c, 0, 71, 0
2, 545285, Note_on_c, 0, 70, 70
2, 545297, Note_on_c, 0, 58, 39
2, 545301, Note_on_c, 0, 62, 49
2, 545309, Note_on_c, 0, 53, 0
2, 545341, Control_c, 0, 64, 24
2, 545345, Note_on_c, 0, 62, 0
2, 545353, Control_c, 0, 64, 40
2, 545361, Note_on_c, 0, 70, 0
2, 545373, Note_on_c, 0, 58, 0
2, 545373, Note_on_c, 0, 74, 80
2, 545377, Control_c, 0, 64, 56
2, 545389, Control_c, 0, 64, 72
2, 545433, Control_c, 0, 64, 0
2, 545437, Note_on_c, 0, 74, 0
2, 545465, Note_on_c, 0, 65, 66
2, 545469, Note_on_c, 0, 58, 38
2, 545485, Note_on_c, 0, 50, 40
2, 545513, Control_c, 0, 64, 24
2, 545533, Control_c, 0, 64, 40
2, 545541, Note_on_c, 0, 65, 0
2, 545553, Note_on_c, 0, 70, 75
2, 545561, Control_c, 0, 64, 56
2, 545593, Note_on_c, 0, 50, 0
2, 545613, Control_c, 0, 64, 0
2, 545625, Note_on_c, 0, 70, 0
2, 545645, Note_on_c, 0, 66, 67
2, 545661, Note_on_c, 0, 51, 45
2, 545721, Note_on_c, 0, 66, 0
2, 545721, Control_c, 0, 64, 24
2, 545729, Control_c, 0, 64, 40
2, 545737, Note_on_c, 0, 70, 69
2, 545769, Control_c, 0, 64, 56
2, 545805, Note_on_c, 0, 70, 0
2, 545813, Control_c, 0, 64, 0
2, 545829, Note_on_c, 0, 67, 70
2, 545841, Note_on_c, 0, 51, 0
2, 545845, Note_on_c, 0, 52, 55
2, 545893, Note_on_c, 0, 52, 0
2, 545897, Note_on_c, 0, 67, 0
2, 545901, Control_c, 0, 64, 24
2, 545913, Control_c, 0, 64, 40
2, 545917, Note_on_c, 0, 72, 76
2, 545949, Control_c, 0, 64, 56
2, 545977, Note_on_c, 0, 72, 0
2, 546017, Note_on_c, 0, 65, 69
2, 546029, Control_c, 0, 64, 0
2, 546037, Note_on_c, 0, 58, 0
2, 546037, Note_on_c, 0, 57, 51
2, 546037, Note_on_c, 0, 53, 52
2, 546137, Control_c, 0, 64, 24
2, 546145, Control_c, 0, 64, 56
2, 546157, Control_c, 0, 64, 72
2, 546165, Control_c, 0, 64, 104
2, 546169, Note_on_c, 0, 57, 0
2, 546173, Control_c, 0, 64, 127
2, 546177, Note_on_c, 0, 53, 0
2, 546249, Note_on_c, 0, 65, 0
2, 546301, Control_c, 0, 64, 72
2, 546309, Control_c, 0, 64, 0
2, 546353, Note_on_c, 0, 48, 58
2, 546357, Note_on_c, 0, 41, 47
2, 546373, Control_c, 0, 64, 24
2, 546377, Note_on_c, 0, 41, 0
2, 546377, Note_on_c, 0, 48, 0
2, 546381, Control_c, 0, 64, 56
2, 546389, Control_c, 0, 64, 88
2, 546401, Control_c, 0, 64, 104
2, 546409, Control_c, 0, 64, 127
2, 546461, Note_on_c, 0, 69, 70
2, 546465, Note_on_c, 0, 60, 77
2, 546473, Note_on_c, 0, 53, 56
2, 546489, Control_c, 0, 64, 104
2, 546493, Note_on_c, 0, 60, 0
2, 546501, Control_c, 0, 64, 72
2, 546521, Note_on_c, 0, 69, 0
2, 546541, Note_on_c, 0, 75, 67
2, 546589, Note_on_c, 0, 75, 0
2, 546637, Note_on_c, 0, 72, 73
2, 546689, Note_on_c, 0, 72, 0
2, 546717, Note_on_c, 0, 71, 73
2, 546761, Control_c, 0, 64, 56
2, 546769, Control_c, 0, 64, 0
2, 546781, Note_on_c, 0, 71, 0
2, 546805, Note_on_c, 0, 70, 65
2, 546809, Note_on_c, 0, 53, 0
2, 546809, Note_on_c, 0, 62, 53
2, 546817, Note_on_c, 0, 58, 42
2, 546845, Control_c, 0, 64, 24
2, 546853, Control_c, 0, 64, 40
2, 546857, Note_on_c, 0, 62, 0
2, 546861, Control_c, 0, 64, 56
2, 546877, Note_on_c, 0, 58, 0
2, 546877, Note_on_c, 0, 70, 0
2, 546897, Note_on_c, 0, 74, 70
2, 546897, Control_c, 0, 64, 72
2, 546941, Control_c, 0, 64, 24
2, 546953, Note_on_c, 0, 74, 0
2, 546953, Control_c, 0, 64, 0
2, 546985, Note_on_c, 0, 65, 66
2, 546985, Note_on_c, 0, 58, 43
2, 546993, Note_on_c, 0, 50, 60
2, 547065, Note_on_c, 0, 65, 0
2, 547073, Note_on_c, 0, 70, 72
2, 547133, Note_on_c, 0, 50, 0
2, 547145, Note_on_c, 0, 70, 0
2, 547161, Note_on_c, 0, 66, 65
2, 547177, Note_on_c, 0, 51, 48
2, 547233, Note_on_c, 0, 66, 0
2, 547249, Note_on_c, 0, 70, 65
2, 547321, Note_on_c, 0, 70, 0
2, 547329, Note_on_c, 0, 51, 0
2, 547345, Note_on_c, 0, 67, 71
2, 547349, Note_on_c, 0, 52, 57
2, 547401, Note_on_c, 0, 52, 0
2, 547413, Note_on_c, 0, 67, 0
2, 547429, Note_on_c, 0, 72, 73
2, 547489, Note_on_c, 0, 72, 0
2, 547517, Note_on_c, 0, 65, 70
2, 547525, Note_on_c, 0, 57, 50
2, 547529, Note_on_c, 0, 53, 53
2, 547549, Note_on_c, 0, 58, 0
2, 547585, Control_c, 0, 64, 24
2, 547593, Control_c, 0, 64, 40
2, 547601, Control_c, 0, 64, 72
2, 547605, Note_on_c, 0, 65, 0
2, 547609, Note_on_c, 0, 72, 70
2, 547621, Control_c, 0, 64, 88
2, 547637, Note_on_c, 0, 57, 0
2, 547645, Control_c, 0, 64, 104
2, 547649, Note_on_c, 0, 53, 0
2, 547657, Note_on_c, 0, 72, 0
2, 547693, Note_on_c, 0, 63, 56
2, 547765, Note_on_c, 0, 63, 0
2, 547785, Note_on_c, 0, 72, 76
2, 547789, Note_on_c, 0, 41, 57
2, 547789, Note_on_c, 0, 48, 55
2, 547821, Note_on_c, 0, 41, 0
2, 547825, Note_on_c, 0, 48, 0
2, 547845, Note_on_c, 0, 72, 0
2, 547865, Control_c, 0, 64, 88
2, 547881, Control_c, 0, 64, 72
2, 547885, Note_on_c, 0, 69, 79
2, 547889, Control_c, 0, 64, 24
2, 547893, Note_on_c, 0, 60, 67
2, 547897, Note_on_c, 0, 53, 62
2, 547901, Control_c, 0, 64, 0
2, 547965, Note_on_c, 0, 69, 0
2, 547973, Note_on_c, 0, 75, 75
2, 547989, Control_c, 0, 64, 40
2, 548009, Control_c, 0, 64, 56
2, 548017, Control_c, 0, 64, 72
2, 548025, Note_on_c, 0, 75, 0
2, 548061, Note_on_c, 0, 72, 75
2, 548121, Note_on_c, 0, 72, 0
2, 548121, Note_on_c, 0, 60, 0
2, 548145, Note_on_c, 0, 71, 72
2, 548197, Control_c, 0, 64, 24
2, 548209, Note_on_c, 0, 71, 0
2, 548209, Control_c, 0, 64, 0
2, 548229, Note_on_c, 0, 70, 70
2, 548241, Note_on_c, 0, 62, 58
2, 548241, Note_on_c, 0, 58, 39
2, 548245, Note_on_c, 0, 53, 0
2, 548281, Note_on_c, 0, 62, 0
2, 548289, Control_c, 0, 64, 40
2, 548293, Note_on_c, 0, 58, 0
2, 548297, Note_on_c, 0, 70, 0
2, 548297, Control_c, 0, 64, 72
2, 548305, Control_c, 0, 64, 88
2, 548317, Note_on_c, 0, 74, 71
2, 548369, Note_on_c, 0, 74, 0
2, 548389, Control_c, 0, 64, 24
2, 548397, Control_c, 0, 64, 0
2, 548409, Note_on_c, 0, 65, 64
2, 548413, Note_on_c, 0, 58, 44
2, 548429, Note_on_c, 0, 50, 47
2, 548477, Note_on_c, 0, 65, 0
2, 548493, Note_on_c, 0, 70, 69
2, 548497, Control_c, 0, 64, 24
2, 548541, Control_c, 0, 64, 0
2, 548549, Note_on_c, 0, 50, 0
2, 548561, Note_on_c, 0, 70, 0
2, 548589, Note_on_c, 0, 66, 69
2, 548593, Note_on_c, 0, 51, 50
2, 548649, Control_c, 0, 64, 24
2, 548657, Note_on_c, 0, 66, 0
2, 548669, Note_on_c, 0, 70, 68
2, 548685, Control_c, 0, 64, 40
2, 548729, Control_c, 0, 64, 0
2, 548737, Note_on_c, 0, 70, 0
2, 548761, Note_on_c, 0, 51, 0
2, 548765, Note_on_c, 0, 67, 66
2, 548777, Note_on_c, 0, 52, 53
2, 548813, Control_c, 0, 64, 24
2, 548821, Control_c, 0, 64, 40
2, 548829, Note_on_c, 0, 52, 0
2, 548837, Note_on_c, 0, 67, 0
2, 548841, Control_c, 0, 64, 56
2, 548853, Note_on_c, 0, 72, 71
2, 548901, Note_on_c, 0, 72, 0
2, 548953, Note_on_c, 0, 58, 0
2, 548953, Note_on_c, 0, 65, 66
2, 548957, Control_c, 0, 64, 40
2, 548961, Note_on_c, 0, 57, 49
2, 548969, Note_on_c, 0, 53, 52
2, 548969, Control_c, 0, 64, 24
2, 548977, Control_c, 0, 64, 0
2, 549101, Control_c, 0, 64, 24
2, 549109, Control_c, 0, 64, 40
2, 549121, Control_c, 0, 64, 56
2, 549137, Control_c, 0, 64, 72
2, 549157, Note_on_c, 0, 65, 0
2, 549161, Note_on_c, 0, 57, 0
2, 549169, Note_on_c, 0, 53, 0
2, 549173, Control_c, 0, 64, 88
2, 549237, Control_c, 0, 64, 56
2, 549245, Control_c, 0, 64, 40
2, 549257, Control_c, 0, 64, 0
2, 549357, Note_on_c, 0, 58, 33
2, 549357, Note_on_c, 0, 62, 38
2, 549365, Note_on_c, 0, 65, 55
2, 549429, Control_c, 0, 64, 40
2, 549445, Control_c, 0, 64, 56
2, 549453, Note_on_c, 0, 74, 64
2, 549469, Note_on_c, 0, 62, 0
2, 549473, Note_on_c, 0, 65, 0
2, 549481, Control_c, 0, 64, 72
2, 549501, Control_c, 0, 64, 40
2, 549505, Note_on_c, 0, 74, 0
2, 549509, Control_c, 0, 64, 0
2, 549525, Note_on_c, 0, 58, 0
2, 549533, Note_on_c, 0, 66, 62
2, 549537, Note_on_c, 0, 60, 51
2, 549557, Note_on_c, 0, 57, 33
2, 549573, Control_c, 0, 64, 24
2, 549581, Control_c, 0, 64, 40
2, 549589, Control_c, 0, 64, 56
2, 549609, Note_on_c, 0, 66, 0
2, 549609, Control_c, 0, 64, 72
2, 549625, Note_on_c, 0, 74, 72
2, 549685, Note_on_c, 0, 57, 0
2, 549689, Note_on_c, 0, 74, 0
2, 549689, Control_c, 0, 64, 24
2, 549697, Control_c, 0, 64, 0
2, 549717, Note_on_c, 0, 67, 68
2, 549717, Note_on_c, 0, 58, 37
2, 549725, Note_on_c, 0, 55, 37
2, 549729, Note_on_c, 0, 60, 0
2, 549761, Control_c, 0, 64, 24
2, 549781, Control_c, 0, 64, 40
2, 549785, Note_on_c, 0, 67, 0
2, 549789, Control_c, 0, 64, 56
2, 549801, Note_on_c, 0, 74, 70
2, 549825, Control_c, 0, 64, 72
2, 549861, Control_c, 0, 64, 24
2, 549865, Note_on_c, 0, 74, 0
2, 549869, Control_c, 0, 64, 0
2, 549881, Note_on_c, 0, 58, 0
2, 549889, Note_on_c, 0, 55, 0
2, 549897, Note_on_c, 0, 68, 67
2, 549901, Note_on_c, 0, 59, 41
2, 549901, Note_on_c, 0, 53, 40
2, 549933, Control_c, 0, 64, 40
2, 549941, Control_c, 0, 64, 56
2, 549949, Note_on_c, 0, 53, 0
2, 549953, Note_on_c, 0, 59, 0
2, 549953, Control_c, 0, 64, 72
2, 549969, Control_c, 0, 64, 88
2, 549981, Note_on_c, 0, 74, 73
2, 549985, Note_on_c, 0, 68, 0
2, 549997, Control_c, 0, 64, 104
2, 550041, Control_c, 0, 64, 40
2, 550049, Note_on_c, 0, 74, 0
2, 550053, Control_c, 0, 64, 0
2, 550077, Note_on_c, 0, 67, 69
2, 550081, Note_on_c, 0, 60, 53
2, 550081, Note_on_c, 0, 51, 48
2, 550113, Control_c, 0, 64, 40
2, 550125, Control_c, 0, 64, 56
2, 550133, Control_c, 0, 64, 72
2, 550141, Control_c, 0, 64, 88
2, 550161, Note_on_c, 0, 67, 0
2, 550161, Note_on_c, 0, 72, 79
2, 550177, Control_c, 0, 64, 104
2, 550205, Control_c, 0, 64, 56
2, 550209, Note_on_c, 0, 51, 0
2, 550213, Control_c, 0, 64, 24
2, 550221, Control_c, 0, 64, 0
2, 550233, Note_on_c, 0, 60, 0
2, 550241, Note_on_c, 0, 72, 0
2, 550245, Note_on_c, 0, 59, 62
2, 550249, Note_on_c, 0, 65, 75
2, 550269, Control_c, 0, 64, 40
2, 550277, Control_c, 0, 64, 56
2, 550285, Note_on_c, 0, 59, 0
2, 550285, Control_c, 0, 64, 72
2, 550297, Control_c, 0, 64, 88
2, 550333, Note_on_c, 0, 65, 0
2, 550333, Control_c, 0, 64, 104
2, 550341, Note_on_c, 0, 74, 79
2, 550357, Control_c, 0, 64, 127
2, 550389, Note_on_c, 0, 74, 0
2, 550393, Control_c, 0, 64, 72
2, 550405, Control_c, 0, 64, 24
2, 550413, Control_c, 0, 64, 0
2, 550433, Note_on_c, 0, 63, 78
2, 550437, Note_on_c, 0, 60, 66
2, 550441, Note_on_c, 0, 48, 68
2, 550457, Control_c, 0, 64, 40
2, 550465, Control_c, 0, 64, 72
2, 550477, Note_on_c, 0, 60, 0
2, 550477, Control_c, 0, 64, 104
2, 550485, Control_c, 0, 64, 127
2, 550497, Note_on_c, 0, 48, 0
2, 550521, Note_on_c, 0, 75, 80
2, 550525, Note_on_c, 0, 63, 0
2, 550565, Control_c, 0, 64, 88
2, 550577, Control_c, 0, 64, 40
2, 550585, Control_c, 0, 64, 0
2, 550593, Note_on_c, 0, 75, 0
2, 550609, Note_on_c, 0, 64, 83
2, 550613, Note_on_c, 0, 46, 63
2, 550621, Control_c, 0, 64, 24
2, 550629, Control_c, 0, 64, 40
2, 550637, Control_c, 0, 64, 72
2, 550657, Control_c, 0, 64, 88
2, 550681, Note_on_c, 0, 64, 0
2, 550681, Control_c, 0, 64, 104
2, 550693, Note_on_c, 0, 76, 90
2, 550749, Note_on_c, 0, 76, 0
2, 550749, Control_c, 0, 64, 40
2, 550757, Control_c, 0, 64, 0
2, 550765, Note_on_c, 0, 46, 0
2, 550789, Note_on_c, 0, 77, 93
2, 550793, Note_on_c, 0, 75, 69
2, 550797, Note_on_c, 0, 65, 65
2, 550797, Note_on_c, 0, 45, 73
2, 550801, Note_on_c, 0, 72, 69
2, 550885, Note_on_c, 0, 51, 77
2, 550889, Note_on_c, 0, 45, 0
2, 550953, Note_on_c, 0, 51, 0
2, 550981, Note_on_c, 0, 48, 77
2, 551013, Note_on_c, 0, 72, 0
2, 551017, Note_on_c, 0, 65, 0
2, 551029, Note_on_c, 0, 77, 0
2, 551029, Note_on_c, 0, 75, 0
2, 551057, Note_on_c, 0, 47, 81
2, 551077, Note_on_c, 0, 48, 0
2, 551145, Note_on_c, 0, 46, 75
2, 551153, Note_on_c, 0, 77, 96
2, 551161, Note_on_c, 0, 65, 76
2, 551165, Note_on_c, 0, 47, 0
2, 551165, Note_on_c, 0, 74, 79
2, 551221, Note_on_c, 0, 46, 0
2, 551245, Note_on_c, 0, 45, 82
2, 551325, Note_on_c, 0, 45, 0
2, 551341, Note_on_c, 0, 43, 73
2, 551385, Note_on_c, 0, 65, 0
2, 551397, Note_on_c, 0, 77, 0
2, 551405, Note_on_c, 0, 43, 0
2, 551413, Note_on_c, 0, 41, 83
2, 551421, Note_on_c, 0, 74, 0
2, 551497, Note_on_c, 0, 39, 78
2, 551501, Note_on_c, 0, 41, 0
2, 551505, Note_on_c, 0, 79, 100
2, 551505, Note_on_c, 0, 70, 80
2, 551509, Note_on_c, 0, 67, 82
2, 551537, Note_on_c, 0, 67, 0
2, 551537, Note_on_c, 0, 70, 0
2, 551549, Note_on_c, 0, 79, 0
2, 551565, Note_on_c, 0, 39, 0
2, 551585, Note_on_c, 0, 51, 78
2, 551657, Note_on_c, 0, 51, 0
2, 551689, Note_on_c, 0, 65, 74
2, 551689, Note_on_c, 0, 69, 74
2, 551689, Note_on_c, 0, 77, 96
2, 551689, Note_on_c, 0, 41, 61
2, 551725, Note_on_c, 0, 69, 0
2, 551729, Note_on_c, 0, 65, 0
2, 551745, Note_on_c, 0, 41, 0
2, 551749, Note_on_c, 0, 77, 0
2, 551769, Note_on_c, 0, 53, 68
2, 551877, Note_on_c, 0, 74, 96
2, 551885, Note_on_c, 0, 70, 64
2, 551885, Note_on_c, 0, 65, 68
2, 551889, Note_on_c, 0, 46, 62
2, 551957, Control_c, 0, 64, 24
2, 551965, Control_c, 0, 64, 56
2, 551977, Control_c, 0, 64, 88
2, 551985, Control_c, 0, 64, 104
2, 551993, Control_c, 0, 64, 127
2, 552017, Note_on_c, 0, 65, 0
2, 552033, Note_on_c, 0, 70, 0
2, 552037, Note_on_c, 0, 53, 0
2, 552045, Note_on_c, 0, 74, 0
2, 552045, Note_on_c, 0, 46, 0
2, 552137, Control_c, 0, 64, 104
2, 552149, Control_c, 0, 64, 72
2, 552157, Control_c, 0, 64, 40
2, 552165, Control_c, 0, 64, 24
2, 552173, Control_c, 0, 64, 0
2, 552241, Note_on_c, 0, 65, 68
2, 552249, Note_on_c, 0, 62, 27
2, 552249, Note_on_c, 0, 58, 34
2, 552341, Note_on_c, 0, 74, 74
2, 552357, Note_on_c, 0, 62, 0
2, 552361, Note_on_c, 0, 65, 0
2, 552409, Note_on_c, 0, 74, 0
2, 552421, Note_on_c, 0, 58, 0
2, 552425, Note_on_c, 0, 60, 42
2, 552425, Note_on_c, 0, 57, 57
2, 552429, Note_on_c, 0, 66, 59
2, 552505, Note_on_c, 0, 66, 0
2, 552517, Note_on_c, 0, 74, 69
2, 552581, Note_on_c, 0, 74, 0
2, 552581, Note_on_c, 0, 57, 0
2, 552601, Note_on_c, 0, 55, 47
2, 552609, Note_on_c, 0, 67, 66
2, 552613, Note_on_c, 0, 58, 42
2, 552637, Note_on_c, 0, 60, 0
2, 552677, Note_on_c, 0, 67, 0
2, 552693, Note_on_c, 0, 74, 71
2, 552761, Note_on_c, 0, 74, 0
2, 552761, Note_on_c, 0, 55, 0
2, 552781, Note_on_c, 0, 53, 41
2, 552785, Note_on_c, 0, 68, 64
2, 552789, Note_on_c, 0, 59, 51
2, 552797, Control_c, 0, 64, 24
2, 552809, Control_c, 0, 64, 40
2, 552817, Control_c, 0, 64, 56
2, 552821, Note_on_c, 0, 58, 0
2, 552833, Control_c, 0, 64, 72
2, 552845, Control_c, 0, 64, 88
2, 552865, Note_on_c, 0, 59, 0
2, 552865, Note_on_c, 0, 68, 0
2, 552869, Note_on_c, 0, 74, 73
2, 552877, Note_on_c, 0, 53, 0
2, 552881, Control_c, 0, 64, 104
2, 552945, Note_on_c, 0, 74, 0
2, 552945, Control_c, 0, 64, 56
2, 552953, Control_c, 0, 64, 24
2, 552961, Control_c, 0, 64, 0
2, 552965, Note_on_c, 0, 60, 55
2, 552969, Note_on_c, 0, 67, 70
2, 552973, Note_on_c, 0, 51, 45
2, 553005, Control_c, 0, 64, 24
2, 553017, Control_c, 0, 64, 40
2, 553025, Control_c, 0, 64, 56
2, 553033, Control_c, 0, 64, 72
2, 553041, Note_on_c, 0, 67, 0
2, 553057, Note_on_c, 0, 72, 74
2, 553069, Control_c, 0, 64, 88
2, 553105, Control_c, 0, 64, 40
2, 553117, Note_on_c, 0, 51, 0
2, 553117, Control_c, 0, 64, 0
2, 553133, Note_on_c, 0, 72, 0
2, 553141, Note_on_c, 0, 50, 36
2, 553145, Note_on_c, 0, 59, 64
2, 553145, Note_on_c, 0, 65, 70
2, 553161, Note_on_c, 0, 60, 0
2, 553169, Control_c, 0, 64, 24
2, 553177, Control_c, 0, 64, 40
2, 553189, Control_c, 0, 64, 72
2, 553205, Control_c, 0, 64, 88
2, 553213, Control_c, 0, 64, 104
2, 553221, Note_on_c, 0, 59, 0
2, 553225, Note_on_c, 0, 50, 0
2, 553233, Note_on_c, 0, 65, 0
2, 553237, Note_on_c, 0, 74, 75
2, 553249, Control_c, 0, 64, 127
2, 553285, Note_on_c, 0, 74, 0
2, 553297, Control_c, 0, 64, 56
2, 553305, Control_c, 0, 64, 0
2, 553325, Note_on_c, 0, 63, 78
2, 553333, Note_on_c, 0, 60, 64
2, 553341, Note_on_c, 0, 48, 69
2, 553357, Control_c, 0, 64, 40
2, 553369, Control_c, 0, 64, 72
2, 553377, Control_c, 0, 64, 88
2, 553381, Note_on_c, 0, 60, 0
2, 553385, Control_c, 0, 64, 104
2, 553397, Control_c, 0, 64, 127
2, 553413, Note_on_c, 0, 48, 0
2, 553413, Note_on_c, 0, 63, 0
2, 553417, Note_on_c, 0, 75, 77
2, 553477, Control_c, 0, 64, 104
2, 553485, Control_c, 0, 64, 56
2, 553493, Note_on_c, 0, 75, 0
2, 553497, Control_c, 0, 64, 0
2, 553501, Note_on_c, 0, 64, 79
2, 553505, Note_on_c, 0, 46, 63
2, 553541, Control_c, 0, 64, 24
2, 553549, Control_c, 0, 64, 56
2, 553557, Control_c, 0, 64, 72
2, 553565, Control_c, 0, 64, 88
2, 553573, Note_on_c, 0, 64, 0
2, 553581, Note_on_c, 0, 76, 89
2, 553585, Control_c, 0, 64, 104
2, 553637, Note_on_c, 0, 76, 0
2, 553645, Note_on_c, 0, 46, 0
2, 553649, Control_c, 0, 64, 72
2, 553657, Control_c, 0, 64, 40
2, 553665, Control_c, 0, 64, 0
2, 553681, Note_on_c, 0, 77, 96
2, 553685, Note_on_c, 0, 65, 76
2, 553689, Note_on_c, 0, 75, 69
2, 553689, Note_on_c, 0, 72, 75
2, 553693, Note_on_c, 0, 45, 75
2, 553749, Control_c, 0, 64, 56
2, 553757, Control_c, 0, 64, 88
2, 553765, Control_c, 0, 64, 127
2, 553769, Note_on_c, 0, 45, 0
2, 553773, Note_on_c, 0, 51, 74
2, 553829, Note_on_c, 0, 51, 0
2, 553877, Note_on_c, 0, 48, 68
2, 553917, Control_c, 0, 64, 104
2, 553925, Note_on_c, 0, 48, 0
2, 553945, Control_c, 0, 64, 88
2, 553949, Note_on_c, 0, 47, 82
2, 553965, Note_on_c, 0, 77, 0
2, 553973, Note_on_c, 0, 72, 0
2, 553973, Note_on_c, 0, 75, 0
2, 553973, Control_c, 0, 64, 56
2, 553977, Note_on_c, 0, 65, 0
2, 553993, Control_c, 0, 64, 40
2, 554001, Control_c, 0, 64, 24
2, 554009, Control_c, 0, 64, 0
2, 554045, Note_on_c, 0, 74, 82
2, 554045, Note_on_c, 0, 65, 84
2, 554045, Note_on_c, 0, 46, 72
2, 554045, Note_on_c, 0, 77, 103
2, 554061, Note_on_c, 0, 47, 0
2, 554109, Note_on_c, 0, 46, 0
2, 554133, Note_on_c, 0, 45, 85
2, 554193, Note_on_c, 0, 45, 0
2, 554221, Note_on_c, 0, 43, 74
2, 554269, Note_on_c, 0, 65, 0
2, 554277, Note_on_c, 0, 77, 0
2, 554277, Note_on_c, 0, 43, 0
2, 554297, Note_on_c, 0, 41, 78
2, 554337, Note_on_c, 0, 74, 0
2, 554389, Note_on_c, 0, 39, 71
2, 554393, Note_on_c, 0, 79, 100
2, 554397, Note_on_c, 0, 41, 0
2, 554397, Note_on_c, 0, 67, 79
2, 554397, Note_on_c, 0, 70, 76
2, 554445, Note_on_c, 0, 70, 0
2, 554461, Note_on_c, 0, 79, 0
2, 554465, Note_on_c, 0, 67, 0
2, 554469, Note_on_c, 0, 39, 0
2, 554485, Note_on_c, 0, 51, 78
2, 554553, Note_on_c, 0, 51, 0
2, 554581, Note_on_c, 0, 77, 96
2, 554585, Note_on_c, 0, 65, 76
2, 554585, Note_on_c, 0, 41, 66
2, 554589, Note_on_c, 0, 69, 79
2, 554633, Note_on_c, 0, 69, 0
2, 554645, Note_on_c, 0, 65, 0
2, 554653, Note_on_c, 0, 41, 0
2, 554657, Note_on_c, 0, 77, 0
2, 554669, Note_on_c, 0, 53, 70
2, 554777, Note_on_c, 0, 74, 90
2, 554785, Note_on_c, 0, 70, 65
2, 554785, Note_on_c, 0, 46, 76
2, 554785, Note_on_c, 0, 65, 64
2, 554869, Control_c, 0, 64, 40
2, 554877, Control_c, 0, 64, 88
2, 554885, Control_c, 0, 64, 127
2, 554941, Note_on_c, 0, 53, 0
2, 554957, Note_on_c, 0, 65, 0
2, 554961, Note_on_c, 0, 46, 0
2, 554965, Note_on_c, 0, 70, 0
2, 554977, Note_on_c, 0, 74, 0
2, 555093, Control_c, 0, 64, 104
2, 555105, Control_c, 0, 64, 88
2, 555113, Control_c, 0, 64, 56
2, 555121, Control_c, 0, 64, 24
2, 555129, Control_c, 0, 64, 0
2, 555173, Note_on_c, 0, 58, 79
2, 555201, Control_c, 0, 64, 40
2, 555213, Control_c, 0, 64, 88
2, 555221, Control_c, 0, 64, 127
2, 555257, Note_on_c, 0, 46, 69
2, 555269, Note_on_c, 0, 58, 0
2, 555293, Note_on_c, 0, 46, 0
2, 555357, Note_on_c, 0, 70, 59
2, 555369, Note_on_c, 0, 62, 53
2, 555393, Note_on_c, 0, 62, 0
2, 555421, Note_on_c, 0, 70, 0
2, 555453, Note_on_c, 0, 58, 67
2, 555501, Note_on_c, 0, 58, 0
2, 555509, Control_c, 0, 64, 104
2, 555521, Control_c, 0, 64, 72
2, 555529, Control_c, 0, 64, 24
2, 555537, Note_on_c, 0, 60, 79
2, 555537, Control_c, 0, 64, 0
2, 555593, Control_c, 0, 64, 40
2, 555601, Control_c, 0, 64, 88
2, 555609, Control_c, 0, 64, 104
2, 555617, Control_c, 0, 64, 127
2, 555625, Note_on_c, 0, 48, 68
2, 555637, Note_on_c, 0, 60, 0
2, 555641, Note_on_c, 0, 48, 0
2, 555717, Note_on_c, 0, 70, 64
2, 555725, Note_on_c, 0, 63, 48
2, 555777, Note_on_c, 0, 63, 0
2, 555785, Note_on_c, 0, 70, 0
2, 555801, Note_on_c, 0, 58, 65
2, 555841, Note_on_c, 0, 58, 0
2, 555861, Control_c, 0, 64, 72
2, 555873, Control_c, 0, 64, 24
2, 555881, Control_c, 0, 64, 0
2, 555901, Note_on_c, 0, 61, 80
2, 555933, Control_c, 0, 64, 56
2, 555945, Control_c, 0, 64, 104
2, 555953, Control_c, 0, 64, 127
2, 555981, Note_on_c, 0, 49, 67
2, 555997, Note_on_c, 0, 61, 0
2, 556005, Note_on_c, 0, 49, 0
2, 556077, Note_on_c, 0, 70, 65
2, 556081, Note_on_c, 0, 64, 65
2, 556125, Note_on_c, 0, 64, 0
2, 556157, Note_on_c, 0, 70, 0
2, 556169, Note_on_c, 0, 58, 70
2, 556217, Note_on_c, 0, 58, 0
2, 556225, Control_c, 0, 64, 104
2, 556233, Control_c, 0, 64, 72
2, 556241, Control_c, 0, 64, 24
2, 556249, Note_on_c, 0, 62, 82
2, 556249, Control_c, 0, 64, 0
2, 556305, Control_c, 0, 64, 24
2, 556313, Control_c, 0, 64, 72
2, 556325, Control_c, 0, 64, 104
2, 556329, Note_on_c, 0, 62, 0
2, 556333, Control_c, 0, 64, 127
2, 556341, Note_on_c, 0, 50, 81
2, 556373, Note_on_c, 0, 50, 0
2, 556437, Note_on_c, 0, 70, 77
2, 556441, Note_on_c, 0, 68, 64
2, 556441, Note_on_c, 0, 65, 74
2, 556485, Note_on_c, 0, 65, 0
2, 556497, Note_on_c, 0, 68, 0
2, 556505, Note_on_c, 0, 70, 0
2, 556517, Note_on_c, 0, 58, 77
2, 556557, Note_on_c, 0, 58, 0
2, 556585, Control_c, 0, 64, 72
2, 556593, Control_c, 0, 64, 24
2, 556605, Control_c, 0, 64, 0
2, 556613, Note_on_c, 0, 63, 85
2, 556649, Control_c, 0, 64, 24
2, 556657, Control_c, 0, 64, 56
2, 556665, Control_c, 0, 64, 104
2, 556677, Control_c, 0, 64, 127
2, 556697, Note_on_c, 0, 51, 73
2, 556713, Note_on_c, 0, 63, 0
2, 556733, Note_on_c, 0, 51, 0
2, 556797, Note_on_c, 0, 70, 79
2, 556809, Note_on_c, 0, 67, 65
2, 556857, Note_on_c, 0, 67, 0
2, 556865, Note_on_c, 0, 70, 0
2, 556881, Note_on_c, 0, 58, 77
2, 556917, Note_on_c, 0, 58, 0
2, 556921, Control_c, 0, 64, 72
2, 556929, Control_c, 0, 64, 0
2, 556965, Note_on_c, 0, 64, 89
2, 556985, Control_c, 0, 64, 24
2, 556993, Control_c, 0, 64, 72
2, 557001, Control_c, 0, 64, 104
2, 557009, Note_on_c, 0, 64, 0
2, 557009, Control_c, 0, 64, 127
2, 557061, Note_on_c, 0, 48, 82
2, 557077, Note_on_c, 0, 48, 0
2, 557145, Note_on_c, 0, 72, 86
2, 557153, Note_on_c, 0, 67, 66
2, 557201, Note_on_c, 0, 72, 0
2, 557209, Note_on_c, 0, 67, 0
2, 557229, Note_on_c, 0, 58, 77
2, 557269, Note_on_c, 0, 58, 0
2, 557289, Control_c, 0, 64, 72
2, 557301, Control_c, 0, 64, 0
2, 557321, Note_on_c, 0, 65, 79
2, 557361, Control_c, 0, 64, 24
2, 557373, Control_c, 0, 64, 56
2, 557381, Control_c, 0, 64, 88
2, 557389, Control_c, 0, 64, 104
2, 557397, Note_on_c, 0, 65, 0
2, 557397, Note_on_c, 0, 53, 73
2, 557401, Control_c, 0, 64, 127
2, 557433, Note_on_c, 0, 53, 0
2, 557437, Control_c, 0, 64, 56
2, 557445, Control_c, 0, 64, 0
2, 557489, Control_c, 0, 64, 24
2, 557493, Note_on_c, 0, 72, 88
2, 557497, Control_c, 0, 64, 72
2, 557501, Note_on_c, 0, 65, 74
2, 557501, Note_on_c, 0, 53, 82
2, 557505, Note_on_c, 0, 69, 64
2, 557505, Control_c, 0, 64, 88
2, 557517, Control_c, 0, 64, 104
2, 557525, Control_c, 0, 64, 127
2, 557545, Note_on_c, 0, 53, 0
2, 557553, Note_on_c, 0, 65, 0
2, 557561, Note_on_c, 0, 69, 0
2, 557581, Note_on_c, 0, 72, 0
2, 557581, Note_on_c, 0, 63, 73
2, 557593, Note_on_c, 0, 41, 58
2, 557609, Note_on_c, 0, 41, 0
2, 557645, Note_on_c, 0, 63, 0
2, 557645, Control_c, 0, 64, 104
2, 557669, Control_c, 0, 64, 88
2, 557681, Control_c, 0, 64, 72
2, 557689, Note_on_c, 0, 70, 82
2, 557697, Note_on_c, 0, 46, 80
2, 557697, Note_on_c, 0, 62, 73
2, 557697, Control_c, 0, 64, 56
2, 557705, Control_c, 0, 64, 40
2, 557717, Control_c, 0, 64, 24
2, 557725, Control_c, 0, 64, 0
2, 557833, Control_c, 0, 64, 24
2, 557841, Control_c, 0, 64, 88
2, 557853, Control_c, 0, 64, 127
2, 557893, Note_on_c, 0, 62, 0
2, 557893, Note_on_c, 0, 46, 0
2, 557913, Note_on_c, 0, 70, 0
2, 557993, Control_c, 0, 64, 104
2, 558005, Control_c, 0, 64, 88
2, 558013, Control_c, 0, 64, 56
2, 558021, Control_c, 0, 64, 24
2, 558033, Control_c, 0, 64, 0
2, 558061, Note_on_c, 0, 58, 85
2, 558105, Control_c, 0, 64, 24
2, 558113, Control_c, 0, 64, 56
2, 558121, Control_c, 0, 64, 88
2, 558129, Control_c, 0, 64, 127
2, 558153, Note_on_c, 0, 46, 68
2, 558169, Note_on_c, 0, 58, 0
2, 558185, Note_on_c, 0, 46, 0
2, 558245, Note_on_c, 0, 70, 63
2, 558253, Note_on_c, 0, 62, 64
2, 558301, Note_on_c, 0, 62, 0
2, 558329, Note_on_c, 0, 70, 0
2, 558337, Note_on_c, 0, 58, 69
2, 558389, Note_on_c, 0, 58, 0
2, 558401, Control_c, 0, 64, 72
2, 558409, Control_c, 0, 64, 24
2, 558421, Control_c, 0, 64, 0
2, 558425, Note_on_c, 0, 60, 84
2, 558473, Control_c, 0, 64, 24
2, 558481, Control_c, 0, 64, 72
2, 558493, Control_c, 0, 64, 104
2, 558501, Control_c, 0, 64, 127
2, 558513, Note_on_c, 0, 60, 0
2, 558513, Note_on_c, 0, 48, 70
2, 558529, Note_on_c, 0, 48, 0
2, 558605, Note_on_c, 0, 70, 65
2, 558609, Note_on_c, 0, 63, 58
2, 558665, Note_on_c, 0, 63, 0
2, 558677, Note_on_c, 0, 70, 0
2, 558689, Note_on_c, 0, 58, 69
2, 558729, Note_on_c, 0, 58, 0
2, 558765, Control_c, 0, 64, 88
2, 558773, Control_c, 0, 64, 24
2, 558781, Note_on_c, 0, 61, 78
2, 558781, Control_c, 0, 64, 0
2, 558837, Control_c, 0, 64, 56
2, 558845, Control_c, 0, 64, 104
2, 558853, Control_c, 0, 64, 127
2, 558873, Note_on_c, 0, 61, 0
2, 558873, Note_on_c, 0, 49, 68
2, 558889, Note_on_c, 0, 49, 0
2, 558965, Note_on_c, 0, 70, 67
2, 558973, Note_on_c, 0, 64, 61
2, 558993, Note_on_c, 0, 64, 0
2, 559033, Note_on_c, 0, 70, 0
2, 559057, Note_on_c, 0, 58, 69
2, 559113, Note_on_c, 0, 58, 0
2, 559125, Control_c, 0, 64, 88
2, 559133, Control_c, 0, 64, 40
2, 559141, Control_c, 0, 64, 0
2, 559145, Note_on_c, 0, 62, 79
2, 559197, Control_c, 0, 64, 56
2, 559205, Control_c, 0, 64, 104
2, 559217, Control_c, 0, 64, 127
2, 559221, Note_on_c, 0, 62, 0
2, 559241, Note_on_c, 0, 50, 70
2, 559261, Note_on_c, 0, 50, 0
2, 559329, Note_on_c, 0, 70, 62
2, 559333, Note_on_c, 0, 68, 48
2, 559337, Note_on_c, 0, 65, 59
2, 559361, Note_on_c, 0, 65, 0
2, 559389, Note_on_c, 0, 68, 0
2, 559393, Note_on_c, 0, 70, 0
2, 559409, Note_on_c, 0, 58, 71
2, 559453, Note_on_c, 0, 58, 0
2, 559477, Control_c, 0, 64, 72
2, 559485, Control_c, 0, 64, 0
2, 559505, Note_on_c, 0, 63, 87
2, 559549, Control_c, 0, 64, 40
2, 559557, Control_c, 0, 64, 88
2, 559569, Control_c, 0, 64, 104
2, 559577, Control_c, 0, 64, 127
2, 559585, Note_on_c, 0, 51, 73
2, 559589, Note_on_c, 0, 63, 0
2, 559621, Note_on_c, 0, 51, 0
2, 559657, Control_c, 0, 64, 88
2, 559669, Control_c, 0, 64, 40
2, 559677, Control_c, 0, 64, 24
2, 559689, Note_on_c, 0, 70, 69
2, 559701, Note_on_c, 0, 67, 57
2, 559713, Control_c, 0, 64, 56
2, 559721, Control_c, 0, 64, 72
2, 559729, Control_c, 0, 64, 88
2, 559741, Note_on_c, 0, 67, 0
2, 559753, Note_on_c, 0, 70, 0
2, 559765, Note_on_c, 0, 58, 71
2, 559765, Control_c, 0, 64, 104
2, 559809, Note_on_c, 0, 58, 0
2, 559813, Control_c, 0, 64, 56
2, 559821, Control_c, 0, 64, 0
2, 559857, Note_on_c, 0, 64, 82
2, 559873, Control_c, 0, 64, 24
2, 559885, Control_c, 0, 64, 72
2, 559893, Control_c, 0, 64, 104
2, 559901, Control_c, 0, 64, 127
2, 559905, Note_on_c, 0, 64, 0
2, 559953, Note_on_c, 0, 48, 76
2, 559989, Note_on_c, 0, 48, 0
2, 560041, Note_on_c, 0, 72, 81
2, 560049, Note_on_c, 0, 67, 65
2, 560097, Note_on_c, 0, 72, 0
2, 560101, Note_on_c, 0, 67, 0
2, 560121, Note_on_c, 0, 58, 75
2, 560153, Note_on_c, 0, 58, 0
2, 560173, Control_c, 0, 64, 104
2, 560181, Control_c, 0, 64, 72
2, 560189, Control_c, 0, 64, 0
2, 560217, Note_on_c, 0, 65, 82
2, 560265, Control_c, 0, 64, 56
2, 560273, Control_c, 0, 64, 127
2, 560289, Note_on_c, 0, 65, 0
2, 560297, Note_on_c, 0, 53, 79
2, 560329, Note_on_c, 0, 53, 0
2, 560337, Control_c, 0, 64, 104
2, 560345, Control_c, 0, 64, 40
2, 560353, Control_c, 0, 64, 0
2, 560389, Note_on_c, 0, 72, 87
2, 560393, Note_on_c, 0, 65, 68
2, 560397, Note_on_c, 0, 53, 82
2, 560401, Note_on_c, 0, 69, 59
2, 560409, Control_c, 0, 64, 40
2, 560417, Control_c, 0, 64, 72
2, 560425, Control_c, 0, 64, 88
2, 560445, Note_on_c, 0, 65, 0
2, 560457, Note_on_c, 0, 69, 0
2, 560469, Note_on_c, 0, 72, 0
2, 560469, Note_on_c, 0, 63, 70
2, 560481, Note_on_c, 0, 41, 62
2, 560489, Control_c, 0, 64, 104
2, 560501, Note_on_c, 0, 53, 0
2, 560517, Note_on_c, 0, 41, 0
2, 560533, Note_on_c, 0, 63, 0
2, 560581, Note_on_c, 0, 70, 85
2, 560581, Control_c, 0, 64, 72
2, 560585, Note_on_c, 0, 46, 76
2, 560589, Note_on_c, 0, 62, 74
2, 560589, Control_c, 0, 64, 56
2, 560597, Control_c, 0, 64, 24
2, 560609, Control_c, 0, 64, 0
2, 560697, Control_c, 0, 64, 72
2, 560705, Control_c, 0, 64, 127
2, 560709, Note_on_c, 0, 62, 0
2, 560765, Note_on_c, 0, 70, 0
2, 560773, Note_on_c, 0, 46, 0
2, 560893, Control_c, 0, 64, 88
2, 560905, Control_c, 0, 64, 72
2, 560913, Control_c, 0, 64, 40
2, 560925, Control_c, 0, 64, 0
2, 560993, Note_on_c, 0, 69, 83
2, 560997, Note_on_c, 0, 63, 69
2, 561013, Control_c, 0, 64, 56
2, 561021, Control_c, 0, 64, 104
2, 561033, Control_c, 0, 64, 127
2, 561037, Note_on_c, 0, 69, 0
2, 561069, Note_on_c, 0, 63, 0
2, 561101, Note_on_c, 0, 53, 60
2, 561117, Note_on_c, 0, 53, 0
2, 561181, Note_on_c, 0, 69, 66
2, 561233, Note_on_c, 0, 69, 0
2, 561269, Note_on_c, 0, 75, 69
2, 561313, Control_c, 0, 64, 88
2, 561321, Control_c, 0, 64, 40
2, 561329, Control_c, 0, 64, 0
2, 561333, Note_on_c, 0, 75, 0
2, 561357, Note_on_c, 0, 68, 70
2, 561365, Note_on_c, 0, 62, 65
2, 561393, Control_c, 0, 64, 56
2, 561401, Control_c, 0, 64, 88
2, 561409, Note_on_c, 0, 68, 0
2, 561413, Control_c, 0, 64, 104
2, 561421, Control_c, 0, 64, 127
2, 561429, Note_on_c, 0, 62, 0
2, 561469, Note_on_c, 0, 53, 47
2, 561489, Note_on_c, 0, 53, 0
2, 561545, Note_on_c, 0, 72, 68
2, 561593, Note_on_c, 0, 72, 0
2, 561621, Note_on_c, 0, 71, 73
2, 561665, Control_c, 0, 64, 72
2, 561669, Note_on_c, 0, 71, 0
2, 561673, Control_c, 0, 64, 24
2, 561681, Control_c, 0, 64, 0
2, 561709, Note_on_c, 0, 67, 70
2, 561713, Note_on_c, 0, 61, 63
2, 561737, Control_c, 0, 64, 40
2, 561745, Control_c, 0, 64, 88
2, 561749, Note_on_c, 0, 67, 0
2, 561753, Control_c, 0, 64, 104
2, 561761, Note_on_c, 0, 61, 0
2, 561761, Control_c, 0, 64, 127
2, 561809, Note_on_c, 0, 53, 51
2, 561829, Note_on_c, 0, 53, 0
2, 561893, Note_on_c, 0, 70, 58
2, 561941, Note_on_c, 0, 70, 0
2, 561977, Note_on_c, 0, 76, 74
2, 561997, Control_c, 0, 64, 88
2, 562009, Control_c, 0, 64, 24
2, 562017, Note_on_c, 0, 76, 0
2, 562017, Control_c, 0, 64, 0
2, 562057, Note_on_c, 0, 60, 64
2, 562057, Note_on_c, 0, 65, 63
2, 562061, Control_c, 0, 64, 24
2, 562069, Control_c, 0, 64, 72
2, 562081, Control_c, 0, 64, 104
2, 562089, Control_c, 0, 64, 127
2, 562145, Note_on_c, 0, 65, 0
2, 562149, Note_on_c, 0, 60, 0
2, 562149, Note_on_c, 0, 53, 65
2, 562189, Note_on_c, 0, 53, 0
2, 562221, Note_on_c, 0, 79, 73
2, 562233, Note_on_c, 0, 69, 53
2, 562261, Note_on_c, 0, 69, 0
2, 562273, Note_on_c, 0, 79, 0
2, 562313, Note_on_c, 0, 77, 75
2, 562357, Note_on_c, 0, 77, 0
2, 562369, Control_c, 0, 64, 24
2, 562377, Control_c, 0, 64, 0
2, 562409, Note_on_c, 0, 66, 71
2, 562417, Note_on_c, 0, 60, 71
2, 562421, Control_c, 0, 64, 24
2, 562433, Control_c, 0, 64, 72
2, 562441, Control_c, 0, 64, 127
2, 562453, Note_on_c, 0, 60, 0
2, 562457, Note_on_c, 0, 66, 0
2, 562501, Note_on_c, 0, 50, 71
2, 562537, Note_on_c, 0, 50, 0
2, 562593, Note_on_c, 0, 79, 82
2, 562605, Note_on_c, 0, 69, 56
2, 562637, Note_on_c, 0, 69, 0
2, 562657, Note_on_c, 0, 79, 0
2, 562685, Note_on_c, 0, 78, 78
2, 562745, Note_on_c, 0, 78, 0
2, 562749, Control_c, 0, 64, 56
2, 562757, Control_c, 0, 64, 0
2, 562769, Note_on_c, 0, 59, 64
2, 562769, Note_on_c, 0, 65, 67
2, 562821, Control_c, 0, 64, 56
2, 562829, Control_c, 0, 64, 127
2, 562849, Note_on_c, 0, 65, 0
2, 562857, Note_on_c, 0, 55, 78
2, 562865, Note_on_c, 0, 59, 0
2, 562893, Note_on_c, 0, 55, 0
2, 562945, Note_on_c, 0, 81, 75
2, 562957, Note_on_c, 0, 71, 58
2, 563005, Note_on_c, 0, 71, 0
2, 563005, Note_on_c, 0, 81, 0
2, 563045, Note_on_c, 0, 79, 82
2, 563081, Control_c, 0, 64, 88
2, 563089, Note_on_c, 0, 79, 0
2, 563089, Control_c, 0, 64, 0
2, 563129, Note_on_c, 0, 64, 73
2, 563133, Note_on_c, 0, 58, 62
2, 563157, Control_c, 0, 64, 40
2, 563165, Note_on_c, 0, 64, 0
2, 563165, Control_c, 0, 64, 104
2, 563173, Control_c, 0, 64, 127
2, 563201, Note_on_c, 0, 58, 0
2, 563225, Note_on_c, 0, 48, 81
2, 563245, Note_on_c, 0, 48, 0
2, 563317, Note_on_c, 0, 77, 81
2, 563317, Note_on_c, 0, 67, 66
2, 563357, Note_on_c, 0, 67, 0
2, 563377, Note_on_c, 0, 77, 0
2, 563401, Note_on_c, 0, 76, 84
2, 563453, Note_on_c, 0, 76, 0
2, 563453, Control_c, 0, 64, 72
2, 563461, Control_c, 0, 64, 0
2, 563493, Note_on_c, 0, 63, 76
2, 563501, Note_on_c, 0, 57, 68
2, 563545, Control_c, 0, 64, 88
2, 563553, Control_c, 0, 64, 127
2, 563585, Note_on_c, 0, 53, 71
2, 563593, Note_on_c, 0, 57, 0
2, 563661, Control_c, 0, 64, 56
2, 563669, Control_c, 0, 64, 0
2, 563677, Note_on_c, 0, 57, 21
2, 563685, Note_on_c, 0, 79, 82
2, 563693, Note_on_c, 0, 72, 76
2, 563697, Note_on_c, 0, 53, 0
2, 563705, Note_on_c, 0, 57, 0
2, 563713, Note_on_c, 0, 63, 0
2, 563725, Control_c, 0, 64, 72
2, 563733, Control_c, 0, 64, 127
2, 563741, Note_on_c, 0, 72, 0
2, 563749, Note_on_c, 0, 79, 0
2, 563781, Note_on_c, 0, 77, 78
2, 563821, Note_on_c, 0, 77, 0
2, 563841, Control_c, 0, 64, 72
2, 563849, Control_c, 0, 64, 0
2, 563877, Note_on_c, 0, 60, 84
2, 563905, Control_c, 0, 64, 24
2, 563913, Control_c, 0, 64, 72
2, 563921, Control_c, 0, 64, 104
2, 563925, Note_on_c, 0, 60, 0
2, 563933, Control_c, 0, 64, 127
2, 563969, Note_on_c, 0, 46, 68
2, 563985, Note_on_c, 0, 46, 0
2, 564065, Note_on_c, 0, 70, 63
2, 564077, Note_on_c, 0, 62, 63
2, 564101, Note_on_c, 0, 62, 0
2, 564137, Note_on_c, 0, 70, 0
2, 564153, Note_on_c, 0, 58, 74
2, 564209, Note_on_c, 0, 58, 0
2, 564221, Control_c, 0, 64, 88
2, 564229, Control_c, 0, 64, 0
2, 564245, Note_on_c, 0, 60, 82
2, 564293, Control_c, 0, 64, 40
2, 564305, Control_c, 0, 64, 88
2, 564313, Control_c, 0, 64, 127
2, 564329, Note_on_c, 0, 48, 74
2, 564345, Note_on_c, 0, 48, 0
2, 564353, Note_on_c, 0, 60, 0
2, 564433, Note_on_c, 0, 70, 64
2, 564441, Note_on_c, 0, 63, 56
2, 564489, Note_on_c, 0, 63, 0
2, 564497, Note_on_c, 0, 70, 0
2, 564517, Note_on_c, 0, 58, 79
2, 564561, Note_on_c, 0, 58, 0
2, 564585, Control_c, 0, 64, 72
2, 564593, Control_c, 0, 64, 0
2, 564617, Note_on_c, 0, 60, 88
2, 564657, Control_c, 0, 64, 56
2, 564665, Control_c, 0, 64, 127
2, 564685, Note_on_c, 0, 49, 70
2, 564697, Note_on_c, 0, 60, 0
2, 564717, Note_on_c, 0, 49, 0
2, 564805, Note_on_c, 0, 70, 56
2, 564817, Note_on_c, 0, 64, 55
2, 564857, Note_on_c, 0, 64, 0
2, 564873, Note_on_c, 0, 70, 0
2, 564885, Note_on_c, 0, 58, 65
2, 564937, Note_on_c, 0, 58, 0
2, 564953, Control_c, 0, 64, 104
2, 564961, Control_c, 0, 64, 40
2, 564965, Note_on_c, 0, 60, 88
2, 564973, Control_c, 0, 64, 0
2, 565025, Control_c, 0, 64, 40
2, 565033, Control_c, 0, 64, 104
2, 565041, Control_c, 0, 64, 127
2, 565049, Note_on_c, 0, 60, 0
2, 565057, Note_on_c, 0, 50, 74
2, 565073, Note_on_c, 0, 50, 0
2, 565153, Note_on_c, 0, 70, 59
2, 565165, Note_on_c, 0, 68, 43
2, 565169, Note_on_c, 0, 65, 48
2, 565189, Note_on_c, 0, 65, 0
2, 565217, Note_on_c, 0, 68, 0
2, 565217, Note_on_c, 0, 70, 0
2, 565233, Note_on_c, 0, 58, 77
2, 565289, Note_on_c, 0, 58, 0
2, 565317, Control_c, 0, 64, 56
2, 565325, Note_on_c, 0, 60, 85
2, 565325, Control_c, 0, 64, 0
2, 565377, Control_c, 0, 64, 24
2, 565389, Control_c, 0, 64, 88
2, 565397, Control_c, 0, 64, 127
2, 565409, Note_on_c, 0, 51, 75
2, 565421, Note_on_c, 0, 60, 0
2, 565441, Note_on_c, 0, 51, 0
2, 565513, Note_on_c, 0, 70, 71
2, 565521, Note_on_c, 0, 67, 62
2, 565573, Note_on_c, 0, 67, 0
2, 565581, Note_on_c, 0, 70, 0
2, 565593, Note_on_c, 0, 58, 77
2, 565645, Note_on_c, 0, 58, 0
2, 565649, Control_c, 0, 64, 104
2, 565657, Control_c, 0, 64, 40
2, 565669, Control_c, 0, 64, 0
2, 565681, Note_on_c, 0, 62, 89
2, 565733, Control_c, 0, 64, 40
2, 565737, Control_c, 0, 64, 104
2, 565749, Control_c, 0, 64, 127
2, 565765, Note_on_c, 0, 52, 74
2, 565777, Note_on_c, 0, 62, 0
2, 565785, Note_on_c, 0, 52, 0
2, 565861, Note_on_c, 0, 72, 77
2, 565865, Note_on_c, 0, 67, 63
2, 565913, Note_on_c, 0, 67, 0
2, 565913, Note_on_c, 0, 72, 0
2, 565929, Note_on_c, 0, 58, 78
2, 565973, Note_on_c, 0, 58, 0
2, 565985, Control_c, 0, 64, 40
2, 565993, Control_c, 0, 64, 0
2, 566025, Note_on_c, 0, 65, 83
2, 566057, Control_c, 0, 64, 72
2, 566065, Control_c, 0, 64, 127
2, 566105, Note_on_c, 0, 53, 70
2, 566109, Note_on_c, 0, 65, 0
2, 566137, Note_on_c, 0, 53, 0
2, 566145, Control_c, 0, 64, 104
2, 566157, Control_c, 0, 64, 56
2, 566165, Control_c, 0, 64, 0
2, 566201, Note_on_c, 0, 72, 84
2, 566205, Note_on_c, 0, 65, 67
2, 566205, Note_on_c, 0, 53, 84
2, 566209, Note_on_c, 0, 69, 60
2, 566217, Control_c, 0, 64, 40
2, 566229, Control_c, 0, 64, 88
2, 566237, Control_c, 0, 64, 127
2, 566249, Note_on_c, 0, 65, 0
2, 566257, Note_on_c, 0, 69, 0
2, 566273, Note_on_c, 0, 63, 69
2, 566277, Note_on_c, 0, 53, 0
2, 566289, Note_on_c, 0, 41, 69
2, 566305, Note_on_c, 0, 72, 0
2, 566337, Note_on_c, 0, 41, 0
2, 566337, Note_on_c, 0, 63, 0
2, 566389, Note_on_c, 0, 70, 86
2, 566397, Note_on_c, 0, 46, 78
2, 566401, Note_on_c, 0, 62, 70
2, 566401, Control_c, 0, 64, 104
2, 566409, Control_c, 0, 64, 56
2, 566417, Control_c, 0, 64, 0
2, 566509, Control_c, 0, 64, 56
2, 566513, Note_on_c, 0, 62, 0
2, 566517, Control_c, 0, 64, 127
2, 566589, Note_on_c, 0, 70, 0
2, 566601, Note_on_c, 0, 46, 0
2, 566653, Control_c, 0, 64, 88
2, 566661, Control_c, 0, 64, 0
2, 566693, Note_on_c, 0, 41, 70
2, 566693, Note_on_c, 0, 48, 55
2, 566717, Note_on_c, 0, 41, 0
2, 566725, Control_c, 0, 64, 56
2, 566729, Note_on_c, 0, 48, 0
2, 566733, Control_c, 0, 64, 104
2, 566745, Control_c, 0, 64, 127
2, 566805, Note_on_c, 0, 69, 82
2, 566805, Note_on_c, 0, 60, 81
2, 566813, Note_on_c, 0, 53, 54
2, 566833, Control_c, 0, 64, 104
2, 566841, Control_c, 0, 64, 24
2, 566853, Control_c, 0, 64, 0
2, 566877, Note_on_c, 0, 69, 0
2, 566897, Note_on_c, 0, 75, 73
2, 566905, Control_c, 0, 64, 72
2, 566913, Control_c, 0, 64, 104
2, 566925, Control_c, 0, 64, 127
2, 566957, Note_on_c, 0, 75, 0
2, 566969, Control_c, 0, 64, 88
2, 566993, Note_on_c, 0, 72, 74
2, 567021, Control_c, 0, 64, 56
2, 567029, Note_on_c, 0, 60, 0
2, 567029, Control_c, 0, 64, 40
2, 567041, Control_c, 0, 64, 24
2, 567053, Note_on_c, 0, 72, 0
2, 567061, Control_c, 0, 64, 0
2, 567077, Note_on_c, 0, 71, 64
2, 567141, Note_on_c, 0, 71, 0
2, 567165, Note_on_c, 0, 70, 64
2, 567173, Note_on_c, 0, 58, 51
2, 567173, Note_on_c, 0, 62, 47
2, 567185, Note_on_c, 0, 53, 0
2, 567197, Note_on_c, 0, 62, 0
2, 567217, Note_on_c, 0, 58, 0
2, 567237, Note_on_c, 0, 70, 0
2, 567257, Note_on_c, 0, 74, 72
2, 567321, Note_on_c, 0, 74, 0
2, 567349, Note_on_c, 0, 65, 60
2, 567353, Note_on_c, 0, 58, 46
2, 567361, Note_on_c, 0, 50, 55
2, 567433, Note_on_c, 0, 65, 0
2, 567437, Note_on_c, 0, 70, 65
2, 567489, Note_on_c, 0, 50, 0
2, 567509, Note_on_c, 0, 70, 0
2, 567533, Note_on_c, 0, 66, 67
2, 567537, Note_on_c, 0, 51, 58
2, 567605, Note_on_c, 0, 66, 0
2, 567617, Note_on_c, 0, 70, 68
2, 567693, Note_on_c, 0, 70, 0
2, 567713, Note_on_c, 0, 51, 0
2, 567713, Note_on_c, 0, 67, 69
2, 567721, Note_on_c, 0, 52, 60
2, 567777, Note_on_c, 0, 52, 0
2, 567781, Note_on_c, 0, 67, 0
2, 567805, Note_on_c, 0, 72, 70
2, 567865, Note_on_c, 0, 72, 0
2, 567897, Note_on_c, 0, 65, 68
2, 567909, Note_on_c, 0, 57, 56
2, 567909, Note_on_c, 0, 53, 46
2, 567933, Note_on_c, 0, 58, 0
2, 567945, Control_c, 0, 64, 40
2, 567949, Note_on_c, 0, 57, 0
2, 567953, Control_c, 0, 64, 72
2, 567961, Control_c, 0, 64, 88
2, 567969, Note_on_c, 0, 65, 0
2, 567969, Note_on_c, 0, 53, 0
2, 567973, Control_c, 0, 64, 104
2, 567981, Control_c, 0, 64, 127
2, 567989, Note_on_c, 0, 72, 70
2, 568037, Note_on_c, 0, 72, 0
2, 568077, Note_on_c, 0, 63, 64
2, 568145, Note_on_c, 0, 41, 62
2, 568153, Note_on_c, 0, 63, 0
2, 568169, Note_on_c, 0, 41, 0
2, 568169, Note_on_c, 0, 72, 80
2, 568237, Note_on_c, 0, 72, 0
2, 568273, Note_on_c, 0, 69, 77
2, 568273, Note_on_c, 0, 53, 68
2, 568273, Note_on_c, 0, 60, 83
2, 568313, Control_c, 0, 64, 72
2, 568325, Control_c, 0, 64, 0
2, 568353, Note_on_c, 0, 69, 0
2, 568365, Note_on_c, 0, 75, 71
2, 568397, Control_c, 0, 64, 24
2, 568405, Control_c, 0, 64, 56
2, 568417, Control_c, 0, 64, 88
2, 568425, Control_c, 0, 64, 104
2, 568429, Note_on_c, 0, 75, 0
2, 568469, Note_on_c, 0, 72, 69
2, 568529, Note_on_c, 0, 72, 0
2, 568537, Note_on_c, 0, 60, 0
2, 568549, Control_c, 0, 64, 88
2, 568553, Note_on_c, 0, 71, 63
2, 568577, Control_c, 0, 64, 72
2, 568585, Control_c, 0, 64, 40
2, 568597, Control_c, 0, 64, 24
2, 568605, Control_c, 0, 64, 0
2, 568609, Note_on_c, 0, 71, 0
2, 568637, Note_on_c, 0, 70, 72
2, 568653, Note_on_c, 0, 62, 55
2, 568653, Note_on_c, 0, 58, 50
2, 568657, Note_on_c, 0, 53, 0
2, 568677, Note_on_c, 0, 62, 0
2, 568705, Note_on_c, 0, 58, 0
2, 568717, Note_on_c, 0, 70, 0
2, 568737, Note_on_c, 0, 74, 74
2, 568809, Note_on_c, 0, 74, 0
2, 568829, Note_on_c, 0, 65, 68
2, 568829, Note_on_c, 0, 58, 43
2, 568841, Note_on_c, 0, 50, 49
2, 568905, Note_on_c, 0, 65, 0
2, 568917, Note_on_c, 0, 70, 70
2, 568957, Note_on_c, 0, 50, 0
2, 568985, Note_on_c, 0, 70, 0
2, 569009, Note_on_c, 0, 66, 68
2, 569017, Note_on_c, 0, 51, 60
2, 569081, Note_on_c, 0, 66, 0
2, 569097, Note_on_c, 0, 70, 67
2, 569173, Note_on_c, 0, 70, 0
2, 569189, Note_on_c, 0, 51, 0
2, 569189, Note_on_c, 0, 67, 68
2, 569201, Note_on_c, 0, 52, 61
2, 569249, Note_on_c, 0, 52, 0
2, 569249, Note_on_c, 0, 67, 0
2, 569277, Note_on_c, 0, 72, 71
2, 569329, Note_on_c, 0, 72, 0
2, 569381, Note_on_c, 0, 65, 63
2, 569389, Note_on_c, 0, 58, 0
2, 569393, Note_on_c, 0, 57, 56
2, 569393, Note_on_c, 0, 53, 52
2, 569501, Control_c, 0, 64, 24
2, 569509, Control_c, 0, 64, 56
2, 569517, Control_c, 0, 64, 104
2, 569525, Control_c, 0, 64, 127
2, 569549, Note_on_c, 0, 57, 0
2, 569561, Note_on_c, 0, 53, 0
2, 569605, Note_on_c, 0, 65, 0
2, 569661, Control_c, 0, 64, 88
2, 569673, Control_c, 0, 64, 0
2, 569709, Note_on_c, 0, 48, 58
2, 569709, Note_on_c, 0, 41, 49
2, 569725, Note_on_c, 0, 41, 0
2, 569725, Note_on_c, 0, 48, 0
2, 569725, Control_c, 0, 64, 40
2, 569733, Control_c, 0, 64, 72
2, 569745, Control_c, 0, 64, 127
2, 569805, Note_on_c, 0, 69, 74
2, 569817, Note_on_c, 0, 60, 70
2, 569817, Note_on_c, 0, 53, 52
2, 569825, Control_c, 0, 64, 88
2, 569833, Control_c, 0, 64, 40
2, 569841, Control_c, 0, 64, 0
2, 569865, Note_on_c, 0, 69, 0
2, 569881, Control_c, 0, 64, 40
2, 569889, Note_on_c, 0, 75, 64
2, 569889, Control_c, 0, 64, 72
2, 569897, Control_c, 0, 64, 88
2, 569945, Note_on_c, 0, 75, 0
2, 569989, Note_on_c, 0, 72, 72
2, 570037, Note_on_c, 0, 72, 0
2, 570041, Control_c, 0, 64, 72
2, 570057, Note_on_c, 0, 60, 0
2, 570073, Note_on_c, 0, 71, 71
2, 570077, Control_c, 0, 64, 56
2, 570089, Control_c, 0, 64, 40
2, 570097, Control_c, 0, 64, 24
2, 570105, Control_c, 0, 64, 0
2, 570133, Note_on_c, 0, 71, 0
2, 570157, Note_on_c, 0, 70, 69
2, 570169, Note_on_c, 0, 62, 48
2, 570173, Note_on_c, 0, 58, 45
2, 570189, Note_on_c, 0, 53, 0
2, 570213, Note_on_c, 0, 62, 0
2, 570225, Note_on_c, 0, 58, 0
2, 570233, Note_on_c, 0, 70, 0
2, 570253, Note_on_c, 0, 74, 75
2, 570317, Note_on_c, 0, 74, 0
2, 570345, Note_on_c, 0, 65, 66
2, 570349, Note_on_c, 0, 58, 43
2, 570353, Note_on_c, 0, 50, 54
2, 570421, Note_on_c, 0, 65, 0
2, 570437, Note_on_c, 0, 70, 70
2, 570497, Note_on_c, 0, 50, 0
2, 570509, Note_on_c, 0, 70, 0
2, 570529, Note_on_c, 0, 66, 65
2, 570537, Note_on_c, 0, 51, 53
2, 570593, Note_on_c, 0, 66, 0
2, 570613, Note_on_c, 0, 70, 67
2, 570681, Note_on_c, 0, 70, 0
2, 570705, Note_on_c, 0, 67, 70
2, 570713, Note_on_c, 0, 51, 0
2, 570721, Note_on_c, 0, 52, 59
2, 570737, Control_c, 0, 64, 24
2, 570745, Control_c, 0, 64, 40
2, 570757, Control_c, 0, 64, 56
2, 570765, Control_c, 0, 64, 72
2, 570769, Note_on_c, 0, 52, 0
2, 570769, Note_on_c, 0, 67, 0
2, 570773, Control_c, 0, 64, 88
2, 570797, Note_on_c, 0, 72, 72
2, 570809, Control_c, 0, 64, 104
2, 570845, Control_c, 0, 64, 72
2, 570853, Note_on_c, 0, 72, 0
2, 570853, Control_c, 0, 64, 40
2, 570865, Control_c, 0, 64, 0
2, 570889, Note_on_c, 0, 65, 70
2, 570897, Note_on_c, 0, 57, 61
2, 570901, Note_on_c, 0, 53, 57
2, 570913, Note_on_c, 0, 58, 0
2, 570937, Control_c, 0, 64, 24
2, 570945, Control_c, 0, 64, 56
2, 570953, Control_c, 0, 64, 88
2, 570965, Note_on_c, 0, 65, 0
2, 570965, Control_c, 0, 64, 104
2, 570973, Control_c, 0, 64, 127
2, 570985, Note_on_c, 0, 72, 70
2, 570997, Note_on_c, 0, 57, 0
2, 571009, Note_on_c, 0, 53, 0
2, 571037, Note_on_c, 0, 72, 0
2, 571089, Note_on_c, 0, 63, 56
2, 571141, Note_on_c, 0, 63, 0
2, 571165, Note_on_c, 0, 72, 80
2, 571181, Note_on_c, 0, 41, 41
2, 571181, Note_on_c, 0, 48, 55
2, 571197, Note_on_c, 0, 41, 0
2, 571217, Note_on_c, 0, 48, 0
2, 571233, Note_on_c, 0, 72, 0
2, 571265, Note_on_c, 0, 69, 79
2, 571277, Note_on_c, 0, 60, 74
2, 571285, Note_on_c, 0, 53, 60
2, 571289, Control_c, 0, 64, 72
2, 571297, Control_c, 0, 64, 40
2, 571305, Control_c, 0, 64, 0
2, 571309, Note_on_c, 0, 53, 0
2, 571333, Note_on_c, 0, 53, 14
2, 571349, Note_on_c, 0, 69, 0
2, 571357, Note_on_c, 0, 75, 74
2, 571381, Control_c, 0, 64, 40
2, 571389, Control_c, 0, 64, 72
2, 571397, Control_c, 0, 64, 88
2, 571405, Control_c, 0, 64, 104
2, 571417, Control_c, 0, 64, 127
2, 571421, Note_on_c, 0, 75, 0
2, 571453, Note_on_c, 0, 72, 80
2, 571505, Note_on_c, 0, 60, 0
2, 571513, Note_on_c, 0, 72, 0
2, 571537, Note_on_c, 0, 71, 71
2, 571577, Control_c, 0, 64, 104
2, 571597, Note_on_c, 0, 71, 0
2, 571597, Control_c, 0, 64, 72
2, 571605, Control_c, 0, 64, 0
2, 571621, Note_on_c, 0, 70, 71
2, 571633, Note_on_c, 0, 62, 58
2, 571633, Note_on_c, 0, 58, 50
2, 571641, Note_on_c, 0, 53, 0
2, 571665, Note_on_c, 0, 62, 0
2, 571669, Control_c, 0, 64, 40
2, 571677, Control_c, 0, 64, 72
2, 571685, Note_on_c, 0, 58, 0
2, 571685, Control_c, 0, 64, 88
2, 571697, Note_on_c, 0, 70, 0
2, 571697, Control_c, 0, 64, 104
2, 571717, Note_on_c, 0, 74, 73
2, 571777, Note_on_c, 0, 74, 0
2, 571777, Control_c, 0, 64, 0
2, 571805, Note_on_c, 0, 65, 64
2, 571813, Note_on_c, 0, 58, 43
2, 571821, Note_on_c, 0, 50, 45
2, 571833, Control_c, 0, 64, 24
2, 571841, Control_c, 0, 64, 56
2, 571849, Control_c, 0, 64, 72
2, 571881, Note_on_c, 0, 65, 0
2, 571897, Note_on_c, 0, 70, 69
2, 571941, Note_on_c, 0, 50, 0
2, 571949, Control_c, 0, 64, 24
2, 571957, Control_c, 0, 64, 0
2, 571961, Note_on_c, 0, 70, 0
2, 571989, Note_on_c, 0, 66, 69
2, 571997, Note_on_c, 0, 51, 54
2, 572029, Control_c, 0, 64, 24
2, 572041, Control_c, 0, 64, 56
2, 572049, Control_c, 0, 64, 72
2, 572057, Note_on_c, 0, 66, 0
2, 572057, Control_c, 0, 64, 88
2, 572077, Note_on_c, 0, 70, 65
2, 572129, Control_c, 0, 64, 0
2, 572145, Note_on_c, 0, 70, 0
2, 572169, Note_on_c, 0, 67, 70
2, 572173, Note_on_c, 0, 51, 0
2, 572177, Note_on_c, 0, 52, 64
2, 572213, Control_c, 0, 64, 24
2, 572221, Control_c, 0, 64, 56
2, 572229, Note_on_c, 0, 52, 0
2, 572229, Control_c, 0, 64, 88
2, 572233, Note_on_c, 0, 67, 0
2, 572237, Control_c, 0, 64, 104
2, 572249, Control_c, 0, 64, 127
2, 572253, Note_on_c, 0, 72, 72
2, 572309, Note_on_c, 0, 72, 0
2, 572341, Note_on_c, 0, 58, 0
2, 572345, Control_c, 0, 64, 104
2, 572353, Control_c, 0, 64, 88
2, 572357, Note_on_c, 0, 65, 70
2, 572365, Control_c, 0, 64, 72
2, 572369, Note_on_c, 0, 57, 54
2, 572373, Note_on_c, 0, 53, 48
2, 572373, Control_c, 0, 64, 56
2, 572381, Control_c, 0, 64, 24
2, 572393, Control_c, 0, 64, 0
2, 572509, Control_c, 0, 64, 24
2, 572517, Control_c, 0, 64, 56
2, 572525, Control_c, 0, 64, 72
2, 572537, Control_c, 0, 64, 88
2, 572565, Control_c, 0, 64, 104
2, 572601, Note_on_c, 0, 57, 0
2, 572609, Note_on_c, 0, 53, 0
2, 572609, Control_c, 0, 64, 72
2, 572613, Note_on_c, 0, 65, 0
2, 572617, Control_c, 0, 64, 56
2, 572625, Control_c, 0, 64, 40
2, 572633, Control_c, 0, 64, 24
2, 572645, Control_c, 0, 64, 0
2, 572757, Note_on_c, 0, 65, 63
2, 572757, Note_on_c, 0, 58, 34
2, 572765, Note_on_c, 0, 62, 44
2, 572849, Note_on_c, 0, 74, 64
2, 572873, Note_on_c, 0, 62, 0
2, 572893, Note_on_c, 0, 65, 0
2, 572921, Note_on_c, 0, 74, 0
2, 572929, Note_on_c, 0, 58, 0
2, 572937, Note_on_c, 0, 60, 51
2, 572941, Note_on_c, 0, 66, 61
2, 572941, Note_on_c, 0, 57, 44
2, 573021, Note_on_c, 0, 66, 0
2, 573037, Note_on_c, 0, 74, 68
2, 573101, Note_on_c, 0, 74, 0
2, 573101, Note_on_c, 0, 57, 0
2, 573125, Control_c, 0, 64, 40
2, 573129, Note_on_c, 0, 67, 68
2, 573129, Note_on_c, 0, 55, 49
2, 573133, Note_on_c, 0, 58, 40
2, 573133, Control_c, 0, 64, 56
2, 573141, Note_on_c, 0, 60, 0
2, 573149, Control_c, 0, 64, 72
2, 573161, Control_c, 0, 64, 88
2, 573193, Note_on_c, 0, 67, 0
2, 573197, Control_c, 0, 64, 104
2, 573205, Control_c, 0, 64, 127
2, 573217, Note_on_c, 0, 74, 71
2, 573257, Note_on_c, 0, 55, 0
2, 573261, Control_c, 0, 64, 104
2, 573269, Control_c, 0, 64, 56
2, 573277, Control_c, 0, 64, 24
2, 573281, Note_on_c, 0, 74, 0
2, 573285, Control_c, 0, 64, 0
2, 573289, Note_on_c, 0, 58, 0
2, 573309, Note_on_c, 0, 68, 69
2, 573309, Note_on_c, 0, 53, 52
2, 573313, Note_on_c, 0, 59, 56
2, 573333, Control_c, 0, 64, 24
2, 573341, Control_c, 0, 64, 40
2, 573349, Control_c, 0, 64, 72
2, 573353, Note_on_c, 0, 53, 0
2, 573357, Control_c, 0, 64, 88
2, 573369, Note_on_c, 0, 59, 0
2, 573377, Control_c, 0, 64, 104
2, 573381, Note_on_c, 0, 68, 0
2, 573393, Note_on_c, 0, 74, 77
2, 573413, Control_c, 0, 64, 127
2, 573441, Control_c, 0, 64, 88
2, 573449, Control_c, 0, 64, 40
2, 573457, Control_c, 0, 64, 0
2, 573461, Note_on_c, 0, 74, 0
2, 573485, Note_on_c, 0, 67, 76
2, 573493, Note_on_c, 0, 51, 62
2, 573493, Note_on_c, 0, 60, 59
2, 573513, Control_c, 0, 64, 24
2, 573521, Control_c, 0, 64, 40
2, 573529, Control_c, 0, 64, 72
2, 573541, Control_c, 0, 64, 88
2, 573549, Control_c, 0, 64, 104
2, 573561, Note_on_c, 0, 67, 0
2, 573565, Control_c, 0, 64, 127
2, 573569, Note_on_c, 0, 60, 0
2, 573573, Note_on_c, 0, 72, 83
2, 573601, Note_on_c, 0, 51, 0
2, 573629, Control_c, 0, 64, 72
2, 573637, Control_c, 0, 64, 24
2, 573649, Control_c, 0, 64, 0
2, 573653, Note_on_c, 0, 72, 0
2, 573665, Note_on_c, 0, 65, 79
2, 573665, Note_on_c, 0, 50, 53
2, 573669, Note_on_c, 0, 59, 49
2, 573685, Control_c, 0, 64, 40
2, 573693, Control_c, 0, 64, 72
2, 573709, Note_on_c, 0, 50, 0
2, 573713, Control_c, 0, 64, 88
2, 573721, Control_c, 0, 64, 104
2, 573737, Note_on_c, 0, 59, 0
2, 573737, Control_c, 0, 64, 127
2, 573753, Note_on_c, 0, 74, 82
2, 573765, Note_on_c, 0, 65, 0
2, 573801, Control_c, 0, 64, 88
2, 573809, Control_c, 0, 64, 40
2, 573817, Note_on_c, 0, 74, 0
2, 573821, Control_c, 0, 64, 0
2, 573849, Note_on_c, 0, 60, 66
2, 573853, Note_on_c, 0, 63, 87
2, 573861, Note_on_c, 0, 48, 67
2, 573865, Control_c, 0, 64, 40
2, 573873, Control_c, 0, 64, 72
2, 573881, Control_c, 0, 64, 88
2, 573885, Note_on_c, 0, 60, 0
2, 573893, Control_c, 0, 64, 104
2, 573901, Control_c, 0, 64, 127
2, 573905, Note_on_c, 0, 48, 0
2, 573941, Note_on_c, 0, 75, 87
2, 573973, Note_on_c, 0, 63, 0
2, 573981, Control_c, 0, 64, 104
2, 573993, Control_c, 0, 64, 72
2, 574001, Control_c, 0, 64, 24
2, 574009, Control_c, 0, 64, 0
2, 574013, Note_on_c, 0, 75, 0
2, 574033, Note_on_c, 0, 64, 90
2, 574033, Note_on_c, 0, 46, 69
2, 574045, Control_c, 0, 64, 56
2, 574053, Control_c, 0, 64, 88
2, 574065, Control_c, 0, 64, 104
2, 574101, Control_c, 0, 64, 127
2, 574105, Note_on_c, 0, 64, 0
2, 574117, Note_on_c, 0, 76, 94
2, 574145, Control_c, 0, 64, 104
2, 574153, Control_c, 0, 64, 88
2, 574157, Note_on_c, 0, 46, 0
2, 574165, Control_c, 0, 64, 56
2, 574173, Note_on_c, 0, 76, 0
2, 574173, Control_c, 0, 64, 24
2, 574181, Control_c, 0, 64, 0
2, 574217, Note_on_c, 0, 77, 100
2, 574221, Note_on_c, 0, 75, 77
2, 574221, Note_on_c, 0, 65, 86
2, 574221, Note_on_c, 0, 72, 82
2, 574225, Note_on_c, 0, 45, 82
2, 574273, Control_c, 0, 64, 72
2, 574281, Control_c, 0, 64, 127
2, 574309, Note_on_c, 0, 51, 76
2, 574317, Note_on_c, 0, 45, 0
2, 574353, Control_c, 0, 64, 104
2, 574373, Control_c, 0, 64, 88
2, 574381, Note_on_c, 0, 51, 0
2, 574389, Control_c, 0, 64, 56
2, 574397, Control_c, 0, 64, 40
2, 574409, Note_on_c, 0, 48, 84
2, 574409, Control_c, 0, 64, 0
2, 574477, Note_on_c, 0, 48, 0
2, 574485, Note_on_c, 0, 47, 89
2, 574513, Note_on_c, 0, 72, 0
2, 574513, Note_on_c, 0, 65, 0
2, 574517, Note_on_c, 0, 77, 0
2, 574529, Note_on_c, 0, 75, 0
2, 574577, Note_on_c, 0, 46, 77
2, 574581, Note_on_c, 0, 77, 107
2, 574585, Note_on_c, 0, 65, 89
2, 574589, Note_on_c, 0, 74, 84
2, 574601, Note_on_c, 0, 47, 0
2, 574645, Note_on_c, 0, 46, 0
2, 574673, Note_on_c, 0, 45, 84
2, 574741, Note_on_c, 0, 45, 0
2, 574773, Note_on_c, 0, 43, 81
2, 574805, Note_on_c, 0, 65, 0
2, 574809, Note_on_c, 0, 77, 0
2, 574833, Note_on_c, 0, 43, 0
2, 574853, Note_on_c, 0, 41, 82
2, 574865, Note_on_c, 0, 74, 0
2, 574937, Note_on_c, 0, 39, 77
2, 574941, Note_on_c, 0, 79, 103
2, 574945, Note_on_c, 0, 70, 80
2, 574949, Note_on_c, 0, 67, 83
2, 574957, Note_on_c, 0, 41, 0
2, 574981, Note_on_c, 0, 70, 0
2, 574985, Note_on_c, 0, 67, 0
2, 574993, Note_on_c, 0, 79, 0
2, 575009, Note_on_c, 0, 39, 0
2, 575029, Note_on_c, 0, 51, 77
2, 575113, Note_on_c, 0, 51, 0
2, 575129, Note_on_c, 0, 77, 97
2, 575133, Note_on_c, 0, 41, 66
2, 575137, Note_on_c, 0, 65, 80
2, 575137, Note_on_c, 0, 69, 79
2, 575173, Note_on_c, 0, 69, 0
2, 575173, Note_on_c, 0, 65, 0
2, 575189, Note_on_c, 0, 77, 0
2, 575201, Note_on_c, 0, 41, 0
2, 575229, Note_on_c, 0, 53, 68
2, 575301, Note_on_c, 0, 53, 0
2, 575329, Note_on_c, 0, 74, 96
2, 575337, Note_on_c, 0, 65, 81
2, 575337, Note_on_c, 0, 70, 70
2, 575341, Note_on_c, 0, 46, 69
2, 575345, Note_on_c, 0, 53, 28
2, 575429, Control_c, 0, 64, 40
2, 575437, Control_c, 0, 64, 72
2, 575445, Control_c, 0, 64, 127
2, 575493, Note_on_c, 0, 53, 0
2, 575501, Note_on_c, 0, 65, 0
2, 575505, Note_on_c, 0, 46, 0
2, 575521, Note_on_c, 0, 70, 0
2, 575541, Note_on_c, 0, 74, 0
2, 575617, Control_c, 0, 64, 104
2, 575629, Control_c, 0, 64, 72
2, 575637, Control_c, 0, 64, 40
2, 575645, Control_c, 0, 64, 0
2, 575717, Note_on_c, 0, 65, 59
2, 575721, Note_on_c, 0, 62, 52
2, 575721, Note_on_c, 0, 58, 34
2, 575797, Note_on_c, 0, 65, 0
2, 575813, Note_on_c, 0, 74, 65
2, 575825, Note_on_c, 0, 62, 0
2, 575885, Note_on_c, 0, 74, 0
2, 575885, Note_on_c, 0, 58, 0
2, 575893, Note_on_c, 0, 60, 57
2, 575901, Note_on_c, 0, 57, 52
2, 575909, Note_on_c, 0, 66, 57
2, 575973, Note_on_c, 0, 66, 0
2, 575993, Note_on_c, 0, 74, 74
2, 576045, Note_on_c, 0, 57, 0
2, 576065, Note_on_c, 0, 74, 0
2, 576081, Note_on_c, 0, 55, 53
2, 576085, Note_on_c, 0, 67, 73
2, 576093, Note_on_c, 0, 58, 40
2, 576109, Note_on_c, 0, 60, 0
2, 576153, Note_on_c, 0, 67, 0
2, 576173, Note_on_c, 0, 74, 70
2, 576245, Note_on_c, 0, 74, 0
2, 576245, Note_on_c, 0, 55, 0
2, 576265, Note_on_c, 0, 53, 52
2, 576269, Note_on_c, 0, 68, 63
2, 576269, Note_on_c, 0, 59, 58
2, 576269, Control_c, 0, 64, 24
2, 576277, Control_c, 0, 64, 40
2, 576281, Note_on_c, 0, 58, 0
2, 576285, Control_c, 0, 64, 72
2, 576297, Control_c, 0, 64, 88
2, 576313, Control_c, 0, 64, 104
2, 576317, Note_on_c, 0, 53, 0
2, 576325, Control_c, 0, 64, 127
2, 576337, Note_on_c, 0, 59, 0
2, 576345, Note_on_c, 0, 68, 0
2, 576353, Note_on_c, 0, 74, 72
2, 576397, Control_c, 0, 64, 104
2, 576405, Control_c, 0, 64, 72
2, 576413, Control_c, 0, 64, 40
2, 576421, Control_c, 0, 64, 0
2, 576425, Note_on_c, 0, 74, 0
2, 576449, Note_on_c, 0, 51, 62
2, 576449, Note_on_c, 0, 67, 71
2, 576453, Note_on_c, 0, 60, 55
2, 576493, Control_c, 0, 64, 24
2, 576501, Control_c, 0, 64, 56
2, 576513, Control_c, 0, 64, 72
2, 576521, Note_on_c, 0, 67, 0
2, 576521, Control_c, 0, 64, 88
2, 576541, Note_on_c, 0, 72, 77
2, 576541, Control_c, 0, 64, 104
2, 576573, Note_on_c, 0, 51, 0
2, 576593, Control_c, 0, 64, 56
2, 576605, Control_c, 0, 64, 24
2, 576613, Note_on_c, 0, 58, 32
2, 576613, Control_c, 0, 64, 0
2, 576625, Note_on_c, 0, 72, 0
2, 576629, Note_on_c, 0, 50, 36
2, 576629, Note_on_c, 0, 65, 73
2, 576633, Note_on_c, 0, 58, 0
2, 576637, Note_on_c, 0, 59, 74
2, 576641, Control_c, 0, 64, 40
2, 576649, Control_c, 0, 64, 56
2, 576657, Note_on_c, 0, 60, 0
2, 576657, Control_c, 0, 64, 72
2, 576665, Control_c, 0, 64, 88
2, 576677, Note_on_c, 0, 50, 0
2, 576677, Control_c, 0, 64, 104
2, 576681, Note_on_c, 0, 59, 0
2, 576709, Control_c, 0, 64, 127
2, 576721, Note_on_c, 0, 65, 0
2, 576721, Note_on_c, 0, 74, 75
2, 576777, Note_on_c, 0, 74, 0
2, 576785, Control_c, 0, 64, 72
2, 576793, Control_c, 0, 64, 24
2, 576801, Control_c, 0, 64, 0
2, 576813, Note_on_c, 0, 63, 83
2, 576821, Note_on_c, 0, 60, 70
2, 576829, Note_on_c, 0, 48, 62
2, 576837, Control_c, 0, 64, 40
2, 576849, Control_c, 0, 64, 72
2, 576857, Control_c, 0, 64, 88
2, 576865, Control_c, 0, 64, 104
2, 576869, Note_on_c, 0, 60, 0
2, 576873, Control_c, 0, 64, 127
2, 576889, Note_on_c, 0, 48, 0
2, 576901, Note_on_c, 0, 63, 0
2, 576909, Note_on_c, 0, 75, 82
2, 576957, Control_c, 0, 64, 88
2, 576965, Control_c, 0, 64, 40
2, 576973, Control_c, 0, 64, 0
2, 576981, Note_on_c, 0, 75, 0
2, 576989, Note_on_c, 0, 46, 67
2, 576997, Note_on_c, 0, 64, 83
2, 577017, Control_c, 0, 64, 24
2, 577029, Control_c, 0, 64, 56
2, 577037, Control_c, 0, 64, 72
2, 577045, Note_on_c, 0, 47, 29
2, 577045, Control_c, 0, 64, 88
2, 577069, Note_on_c, 0, 46, 0
2, 577073, Note_on_c, 0, 64, 0
2, 577073, Control_c, 0, 64, 104
2, 577089, Note_on_c, 0, 76, 92
2, 577129, Note_on_c, 0, 47, 0
2, 577141, Note_on_c, 0, 76, 0
2, 577145, Control_c, 0, 64, 72
2, 577153, Control_c, 0, 64, 56
2, 577165, Control_c, 0, 64, 0
2, 577185, Note_on_c, 0, 77, 99
2, 577189, Note_on_c, 0, 45, 82
2, 577189, Note_on_c, 0, 75, 73
2, 577189, Note_on_c, 0, 65, 79
2, 577193, Note_on_c, 0, 72, 73
2, 577261, Control_c, 0, 64, 40
2, 577269, Note_on_c, 0, 45, 0
2, 577273, Control_c, 0, 64, 88
2, 577277, Note_on_c, 0, 51, 84
2, 577281, Control_c, 0, 64, 104
2, 577309, Control_c, 0, 64, 88
2, 577317, Control_c, 0, 64, 72
2, 577325, Control_c, 0, 64, 56
2, 577337, Note_on_c, 0, 51, 0
2, 577337, Control_c, 0, 64, 40
2, 577345, Control_c, 0, 64, 24
2, 577361, Control_c, 0, 64, 0
2, 577373, Note_on_c, 0, 48, 84
2, 577437, Note_on_c, 0, 48, 0
2, 577453, Note_on_c, 0, 47, 87
2, 577477, Note_on_c, 0, 65, 0
2, 577485, Note_on_c, 0, 72, 0
2, 577485, Note_on_c, 0, 75, 0
2, 577489, Note_on_c, 0, 77, 0
2, 577545, Note_on_c, 0, 46, 76
2, 577557, Note_on_c, 0, 77, 107
2, 577561, Note_on_c, 0, 65, 88
2, 577561, Note_on_c, 0, 74, 86
2, 577573, Note_on_c, 0, 47, 0
2, 577621, Note_on_c, 0, 46, 0
2, 577641, Note_on_c, 0, 45, 93
2, 577713, Note_on_c, 0, 45, 0
2, 577753, Note_on_c, 0, 43, 87
2, 577789, Note_on_c, 0, 65, 0
2, 577789, Note_on_c, 0, 77, 0
2, 577801, Note_on_c, 0, 43, 0
2, 577825, Note_on_c, 0, 74, 0
2, 577837, Note_on_c, 0, 41, 89
2, 577917, Note_on_c, 0, 41, 0
2, 577945, Note_on_c, 0, 39, 80
2, 577949, Note_on_c, 0, 79, 109
2, 577953, Note_on_c, 0, 67, 87
2, 577953, Note_on_c, 0, 70, 82
2, 578033, Note_on_c, 0, 70, 0
2, 578037, Note_on_c, 0, 39, 0
2, 578041, Note_on_c, 0, 79, 0
2, 578053, Note_on_c, 0, 51, 84
2, 578057, Note_on_c, 0, 67, 0
2, 578129, Note_on_c, 0, 51, 0
2, 578169, Note_on_c, 0, 77, 103
2, 578169, Note_on_c, 0, 41, 77
2, 578177, Note_on_c, 0, 65, 81
2, 578177, Note_on_c, 0, 69, 81
2, 578213, Control_c, 0, 64, 56
2, 578221, Control_c, 0, 64, 88
2, 578241, Note_on_c, 0, 69, 0
2, 578253, Note_on_c, 0, 41, 0
2, 578265, Note_on_c, 0, 65, 0
2, 578265, Note_on_c, 0, 77, 0
2, 578277, Note_on_c, 0, 53, 82
2, 578293, Control_c, 0, 64, 104
2, 578337, Control_c, 0, 64, 88
2, 578349, Control_c, 0, 64, 72
2, 578357, Control_c, 0, 64, 56
2, 578365, Control_c, 0, 64, 40
2, 578373, Control_c, 0, 64, 24
2, 578385, Control_c, 0, 64, 0
2, 578429, Note_on_c, 0, 74, 99
2, 578437, Note_on_c, 0, 65, 75
2, 578437, Note_on_c, 0, 70, 68
2, 578441, Note_on_c, 0, 46, 79
2, 578545, Control_c, 0, 64, 104
2, 578557, Control_c, 0, 64, 127
2, 578589, Note_on_c, 0, 65, 0
2, 578593, Note_on_c, 0, 53, 0
2, 578597, Note_on_c, 0, 46, 0
2, 578597, Note_on_c, 0, 70, 0
2, 578601, Note_on_c, 0, 74, 0
2, 578861, Control_c, 0, 64, 104
2, 578869, Control_c, 0, 64, 72
2, 578881, Control_c, 0, 64, 56
2, 578889, Control_c, 0, 64, 40
2, 578909, Control_c, 0, 64, 24
2, 578917, Control_c, 0, 64, 0
2, 580225, Note_on_c, 0, 68, 38
2, 580253, Note_on_c, 0, 46, 57
2, 580277, Note_on_c, 0, 46, 0
2, 580277, Note_on_c, 0, 72, 68
2, 580281, Note_on_c, 0, 68, 0
2, 580305, Note_on_c, 0, 72, 0
2, 580473, Note_on_c, 0, 71, 46
2, 580505, Note_on_c, 0, 71, 0
2, 580509, Note_on_c, 0, 72, 81
2, 580509, Note_on_c, 0, 65, 60
2, 580537, Note_on_c, 0, 60, 25
2, 580537, Note_on_c, 0, 56, 50
2, 580541, Note_on_c, 0, 65, 0
2, 580549, Note_on_c, 0, 72, 0
2, 580561, Note_on_c, 0, 60, 0
2, 580589, Note_on_c, 0, 56, 0
2, 580709, Note_on_c, 0, 72, 64
2, 580741, Note_on_c, 0, 60, 53
2, 580745, Note_on_c, 0, 56, 46
2, 580753, Note_on_c, 0, 65, 80
2, 580757, Note_on_c, 0, 80, 71
2, 580773, Note_on_c, 0, 60, 0
2, 580777, Note_on_c, 0, 72, 0
2, 580785, Note_on_c, 0, 65, 0
2, 580789, Note_on_c, 0, 56, 0
2, 580805, Note_on_c, 0, 80, 0
2, 580965, Note_on_c, 0, 46, 70
2, 580973, Note_on_c, 0, 80, 76
2, 581017, Note_on_c, 0, 46, 0
2, 581057, Note_on_c, 0, 80, 0
2, 581193, Note_on_c, 0, 74, 70
2, 581193, Note_on_c, 0, 71, 55
2, 581197, Note_on_c, 0, 56, 48
2, 581197, Note_on_c, 0, 62, 42
2, 581225, Note_on_c, 0, 56, 0
2, 581233, Note_on_c, 0, 62, 0
2, 581245, Note_on_c, 0, 71, 0
2, 581249, Note_on_c, 0, 74, 0
2, 581397, Note_on_c, 0, 77, 85
2, 581397, Note_on_c, 0, 62, 64
2, 581397, Note_on_c, 0, 58, 57
2, 581401, Note_on_c, 0, 70, 65
2, 581409, Control_c, 0, 64, 72
2, 581421, Note_on_c, 0, 58, 0
2, 581421, Note_on_c, 0, 62, 0
2, 581421, Control_c, 0, 64, 127
2, 581557, Note_on_c, 0, 77, 0
2, 581593, Note_on_c, 0, 46, 64
2, 581593, Control_c, 0, 64, 88
2, 581597, Note_on_c, 0, 75, 74
2, 581609, Control_c, 0, 64, 24
2, 581621, Control_c, 0, 64, 0
2, 581637, Note_on_c, 0, 46, 0
2, 581637, Note_on_c, 0, 70, 0
2, 581669, Note_on_c, 0, 75, 0
2, 581801, Note_on_c, 0, 63, 57
2, 581813, Note_on_c, 0, 70, 58
2, 581813, Note_on_c, 0, 58, 40
2, 581821, Note_on_c, 0, 67, 36
2, 581841, Note_on_c, 0, 58, 0
2, 581845, Note_on_c, 0, 63, 0
2, 581857, Note_on_c, 0, 67, 0
2, 581889, Note_on_c, 0, 70, 0
2, 581981, Control_c, 0, 64, 40
2, 581993, Control_c, 0, 64, 127
2, 582001, Note_on_c, 0, 66, 65
2, 582001, Note_on_c, 0, 63, 57
2, 582005, Note_on_c, 0, 72, 80
2, 582013, Note_on_c, 0, 57, 63
2, 582041, Note_on_c, 0, 57, 0
2, 582053, Note_on_c, 0, 63, 0
2, 582073, Note_on_c, 0, 66, 0
2, 582117, Note_on_c, 0, 72, 0
2, 582197, Note_on_c, 0, 46, 65
2, 582197, Control_c, 0, 64, 72
2, 582209, Note_on_c, 0, 70, 65
2, 582213, Control_c, 0, 64, 24
2, 582229, Note_on_c, 0, 67, 56
2, 582229, Control_c, 0, 64, 0
2, 582253, Note_on_c, 0, 46, 0
2, 582265, Note_on_c, 0, 67, 0
2, 582305, Note_on_c, 0, 70, 0
2, 582389, Note_on_c, 0, 63, 71
2, 582401, Note_on_c, 0, 67, 68
2, 582453, Note_on_c, 0, 63, 0
2, 582477, Note_on_c, 0, 67, 0
2, 582613, Note_on_c, 0, 72, 73
2, 582613, Note_on_c, 0, 64, 56
2, 582621, Note_on_c, 0, 60, 55
2, 582629, Note_on_c, 0, 67, 24
2, 582633, Note_on_c, 0, 58, 31
2, 582641, Note_on_c, 0, 64, 0
2, 582649, Note_on_c, 0, 60, 0
2, 582653, Note_on_c, 0, 67, 0
2, 582661, Note_on_c, 0, 58, 0
2, 582661, Control_c, 0, 64, 56
2, 582677, Note_on_c, 0, 72, 0
2, 582677, Control_c, 0, 64, 127
2, 582785, Note_on_c, 0, 68, 60
2, 582797, Note_on_c, 0, 46, 62
2, 582801, Control_c, 0, 64, 104
2, 582817, Control_c, 0, 64, 56
2, 582821, Note_on_c, 0, 72, 64
2, 582833, Control_c, 0, 64, 0
2, 582841, Note_on_c, 0, 68, 0
2, 582849, Note_on_c, 0, 46, 0
2, 582861, Note_on_c, 0, 72, 0
2, 582969, Note_on_c, 0, 71, 55
2, 582997, Note_on_c, 0, 71, 0
2, 583001, Note_on_c, 0, 72, 75
2, 583009, Note_on_c, 0, 65, 61
2, 583017, Note_on_c, 0, 60, 48
2, 583045, Note_on_c, 0, 65, 0
2, 583053, Note_on_c, 0, 60, 0
2, 583065, Note_on_c, 0, 72, 0
2, 583161, Note_on_c, 0, 72, 59
2, 583185, Note_on_c, 0, 60, 64
2, 583193, Note_on_c, 0, 65, 56
2, 583197, Note_on_c, 0, 56, 51
2, 583197, Note_on_c, 0, 80, 79
2, 583213, Note_on_c, 0, 60, 0
2, 583221, Note_on_c, 0, 72, 0
2, 583225, Note_on_c, 0, 56, 0
2, 583225, Note_on_c, 0, 65, 0
2, 583249, Note_on_c, 0, 80, 0
2, 583389, Note_on_c, 0, 80, 81
2, 583401, Note_on_c, 0, 46, 51
2, 583429, Note_on_c, 0, 46, 0
2, 583465, Note_on_c, 0, 80, 0
2, 583585, Note_on_c, 0, 62, 64
2, 583585, Note_on_c, 0, 74, 74
2, 583585, Note_on_c, 0, 71, 58
2, 583589, Note_on_c, 0, 56, 56
2, 583613, Note_on_c, 0, 62, 0
2, 583617, Note_on_c, 0, 56, 0
2, 583637, Note_on_c, 0, 71, 0
2, 583649, Note_on_c, 0, 74, 0
2, 583789, Note_on_c, 0, 77, 87
2, 583793, Control_c, 0, 64, 72
2, 583797, Note_on_c, 0, 62, 70
2, 583797, Note_on_c, 0, 58, 62
2, 583797, Note_on_c, 0, 70, 62
2, 583809, Control_c, 0, 64, 127
2, 583825, Note_on_c, 0, 58, 0
2, 583825, Note_on_c, 0, 62, 0
2, 583957, Note_on_c, 0, 77, 0
2, 583977, Note_on_c, 0, 75, 69
2, 583981, Note_on_c, 0, 46, 62
2, 583981, Control_c, 0, 64, 88
2, 583993, Control_c, 0, 64, 24
2, 584005, Note_on_c, 0, 46, 0
2, 584009, Control_c, 0, 64, 0
2, 584021, Note_on_c, 0, 70, 0
2, 584037, Note_on_c, 0, 75, 0
2, 584153, Note_on_c, 0, 63, 69
2, 584169, Note_on_c, 0, 58, 45
2, 584181, Note_on_c, 0, 70, 56
2, 584197, Note_on_c, 0, 58, 0
2, 584205, Note_on_c, 0, 63, 0
2, 584233, Note_on_c, 0, 70, 0
2, 584337, Control_c, 0, 64, 24
2, 584353, Control_c, 0, 64, 104
2, 584357, Note_on_c, 0, 63, 56
2, 584357, Note_on_c, 0, 66, 62
2, 584365, Note_on_c, 0, 72, 76
2, 584365, Control_c, 0, 64, 127
2, 584373, Note_on_c, 0, 57, 60
2, 584397, Note_on_c, 0, 57, 0
2, 584417, Note_on_c, 0, 63, 0
2, 584433, Note_on_c, 0, 66, 0
2, 584469, Note_on_c, 0, 72, 0
2, 584545, Note_on_c, 0, 46, 69
2, 584549, Note_on_c, 0, 70, 62
2, 584549, Control_c, 0, 64, 88
2, 584561, Note_on_c, 0, 67, 55
2, 584569, Control_c, 0, 64, 24
2, 584581, Control_c, 0, 64, 0
2, 584593, Note_on_c, 0, 46, 0
2, 584601, Note_on_c, 0, 67, 0
2, 584633, Note_on_c, 0, 70, 0
2, 584749, Note_on_c, 0, 63, 45
2, 584757, Note_on_c, 0, 67, 64
2, 584765, Note_on_c, 0, 58, 43
2, 584789, Note_on_c, 0, 67, 0
2, 584789, Note_on_c, 0, 63, 0
2, 584793, Note_on_c, 0, 58, 0
2, 584893, Control_c, 0, 64, 40
2, 584909, Control_c, 0, 64, 88
2, 584925, Control_c, 0, 64, 104
2, 584965, Note_on_c, 0, 75, 75
2, 584973, Note_on_c, 0, 58, 51
2, 584985, Note_on_c, 0, 67, 45
2, 584985, Note_on_c, 0, 63, 35
2, 585013, Note_on_c, 0, 63, 0
2, 585017, Note_on_c, 0, 67, 0
2, 585017, Control_c, 0, 64, 127
2, 585021, Note_on_c, 0, 58, 0
2, 585065, Note_on_c, 0, 75, 0
2, 585153, Note_on_c, 0, 68, 50
2, 585189, Control_c, 0, 64, 104
2, 585201, Note_on_c, 0, 46, 61
2, 585201, Control_c, 0, 64, 56
2, 585213, Note_on_c, 0, 72, 78
2, 585217, Control_c, 0, 64, 24
2, 585229, Note_on_c, 0, 68, 0
2, 585233, Note_on_c, 0, 46, 0
2, 585233, Control_c, 0, 64, 0
2, 585249, Note_on_c, 0, 72, 0
2, 585437, Note_on_c, 0, 71, 59
2, 585453, Note_on_c, 0, 72, 88
2, 585465, Note_on_c, 0, 65, 57
2, 585473, Note_on_c, 0, 71, 0
2, 585473, Note_on_c, 0, 56, 42
2, 585477, Note_on_c, 0, 60, 47
2, 585501, Note_on_c, 0, 56, 0
2, 585501, Note_on_c, 0, 65, 0
2, 585505, Note_on_c, 0, 60, 0
2, 585517, Note_on_c, 0, 72, 0
2, 585637, Note_on_c, 0, 72, 62
2, 585677, Note_on_c, 0, 56, 61
2, 585689, Note_on_c, 0, 60, 61
2, 585693, Note_on_c, 0, 65, 76
2, 585693, Note_on_c, 0, 80, 75
2, 585713, Note_on_c, 0, 60, 0
2, 585713, Note_on_c, 0, 72, 0
2, 585721, Note_on_c, 0, 65, 0
2, 585745, Note_on_c, 0, 80, 0
2, 585745, Note_on_c, 0, 56, 0
2, 585889, Note_on_c, 0, 46, 75
2, 585893, Note_on_c, 0, 80, 79
2, 585925, Note_on_c, 0, 46, 0
2, 585969, Note_on_c, 0, 80, 0
2, 586089, Note_on_c, 0, 74, 69
2, 586089, Note_on_c, 0, 71, 58
2, 586093, Note_on_c, 0, 56, 58
2, 586097, Note_on_c, 0, 62, 60
2, 586121, Note_on_c, 0, 62, 0
2, 586121, Note_on_c, 0, 56, 0
2, 586141, Note_on_c, 0, 71, 0
2, 586157, Note_on_c, 0, 74, 0
2, 586289, Note_on_c, 0, 77, 89
2, 586293, Note_on_c, 0, 70, 70
2, 586301, Control_c, 0, 64, 104
2, 586305, Note_on_c, 0, 62, 71
2, 586309, Note_on_c, 0, 58, 59
2, 586317, Control_c, 0, 64, 127
2, 586333, Note_on_c, 0, 58, 0
2, 586333, Note_on_c, 0, 62, 0
2, 586457, Note_on_c, 0, 77, 0
2, 586497, Note_on_c, 0, 75, 69
2, 586505, Note_on_c, 0, 46, 71
2, 586505, Control_c, 0, 64, 104
2, 586521, Control_c, 0, 64, 40
2, 586537, Note_on_c, 0, 46, 0
2, 586537, Note_on_c, 0, 70, 0
2, 586537, Control_c, 0, 64, 0
2, 586557, Note_on_c, 0, 75, 0
2, 586677, Note_on_c, 0, 63, 65
2, 586685, Note_on_c, 0, 70, 63
2, 586693, Note_on_c, 0, 67, 41
2, 586717, Note_on_c, 0, 63, 0
2, 586725, Note_on_c, 0, 67, 0
2, 586749, Note_on_c, 0, 70, 0
2, 586845, Control_c, 0, 64, 56
2, 586861, Control_c, 0, 64, 127
2, 586865, Note_on_c, 0, 66, 70
2, 586865, Note_on_c, 0, 72, 80
2, 586869, Note_on_c, 0, 63, 60
2, 586885, Note_on_c, 0, 57, 54
2, 586917, Note_on_c, 0, 57, 0
2, 586925, Note_on_c, 0, 63, 0
2, 586941, Note_on_c, 0, 66, 0
2, 586985, Note_on_c, 0, 72, 0
2, 587049, Note_on_c, 0, 46, 73
2, 587053, Note_on_c, 0, 70, 69
2, 587061, Control_c, 0, 64, 72
2, 587065, Note_on_c, 0, 67, 53
2, 587077, Control_c, 0, 64, 24
2, 587093, Control_c, 0, 64, 0
2, 587097, Note_on_c, 0, 67, 0
2, 587097, Note_on_c, 0, 46, 0
2, 587133, Note_on_c, 0, 70, 0
2, 587229, Note_on_c, 0, 63, 58
2, 587233, Note_on_c, 0, 67, 66
2, 587241, Note_on_c, 0, 58, 55
2, 587277, Note_on_c, 0, 58, 0
2, 587289, Note_on_c, 0, 63, 0
2, 587309, Note_on_c, 0, 67, 0
2, 587405, Control_c, 0, 64, 40
2, 587417, Control_c, 0, 64, 104
2, 587425, Note_on_c, 0, 64, 56
2, 587429, Note_on_c, 0, 72, 70
2, 587433, Control_c, 0, 64, 127
2, 587437, Note_on_c, 0, 60, 63
2, 587441, Note_on_c, 0, 58, 49
2, 587453, Note_on_c, 0, 64, 0
2, 587465, Note_on_c, 0, 60, 0
2, 587481, Note_on_c, 0, 58, 0
2, 587485, Note_on_c, 0, 72, 0
2, 587589, Note_on_c, 0, 68, 68
2, 587605, Control_c, 0, 64, 72
2, 587613, Note_on_c, 0, 46, 63
2, 587621, Control_c, 0, 64, 24
2, 587629, Note_on_c, 0, 72, 67
2, 587637, Control_c, 0, 64, 0
2, 587641, Note_on_c, 0, 46, 0
2, 587649, Note_on_c, 0, 68, 0
2, 587657, Note_on_c, 0, 72, 0
2, 587797, Note_on_c, 0, 71, 63
2, 587821, Note_on_c, 0, 72, 75
2, 587825, Note_on_c, 0, 71, 0
2, 587837, Note_on_c, 0, 65, 42
2, 587853, Note_on_c, 0, 56, 26
2, 587861, Note_on_c, 0, 72, 0
2, 587873, Note_on_c, 0, 65, 0
2, 587881, Note_on_c, 0, 56, 0
2, 587989, Note_on_c, 0, 72, 62
2, 588013, Note_on_c, 0, 56, 60
2, 588013, Note_on_c, 0, 60, 58
2, 588021, Note_on_c, 0, 80, 79
2, 588029, Note_on_c, 0, 65, 76
2, 588041, Note_on_c, 0, 60, 0
2, 588045, Note_on_c, 0, 72, 0
2, 588057, Note_on_c, 0, 65, 0
2, 588073, Note_on_c, 0, 56, 0
2, 588077, Note_on_c, 0, 80, 0
2, 588205, Note_on_c, 0, 46, 65
2, 588209, Note_on_c, 0, 80, 77
2, 588249, Note_on_c, 0, 46, 0
2, 588281, Note_on_c, 0, 80, 0
2, 588409, Note_on_c, 0, 74, 68
2, 588409, Note_on_c, 0, 71, 58
2, 588413, Note_on_c, 0, 62, 62
2, 588413, Note_on_c, 0, 56, 59
2, 588437, Note_on_c, 0, 56, 0
2, 588437, Note_on_c, 0, 62, 0
2, 588461, Note_on_c, 0, 71, 0
2, 588473, Note_on_c, 0, 74, 0
2, 588605, Note_on_c, 0, 77, 92
2, 588609, Note_on_c, 0, 70, 71
2, 588609, Control_c, 0, 64, 104
2, 588617, Note_on_c, 0, 58, 70
2, 588617, Note_on_c, 0, 62, 78
2, 588625, Control_c, 0, 64, 127
2, 588637, Note_on_c, 0, 56, 28
2, 588645, Note_on_c, 0, 62, 0
2, 588661, Note_on_c, 0, 58, 0
2, 588665, Note_on_c, 0, 56, 0
2, 588773, Note_on_c, 0, 77, 0
2, 588801, Note_on_c, 0, 75, 69
2, 588805, Note_on_c, 0, 46, 71
2, 588813, Control_c, 0, 64, 88
2, 588829, Control_c, 0, 64, 24
2, 588837, Note_on_c, 0, 46, 0
2, 588845, Note_on_c, 0, 70, 0
2, 588845, Control_c, 0, 64, 0
2, 588873, Note_on_c, 0, 75, 0
2, 588993, Note_on_c, 0, 63, 62
2, 589001, Note_on_c, 0, 70, 65
2, 589009, Note_on_c, 0, 58, 36
2, 589041, Note_on_c, 0, 58, 0
2, 589041, Note_on_c, 0, 63, 0
2, 589065, Note_on_c, 0, 70, 0
2, 589153, Control_c, 0, 64, 56
2, 589169, Control_c, 0, 64, 127
2, 589173, Note_on_c, 0, 72, 85
2, 589173, Note_on_c, 0, 63, 64
2, 589177, Note_on_c, 0, 66, 64
2, 589189, Note_on_c, 0, 57, 62
2, 589213, Note_on_c, 0, 57, 0
2, 589217, Note_on_c, 0, 63, 0
2, 589269, Note_on_c, 0, 66, 0
2, 589285, Note_on_c, 0, 72, 0
2, 589357, Control_c, 0, 64, 88
2, 589361, Note_on_c, 0, 46, 64
2, 589365, Note_on_c, 0, 70, 63
2, 589373, Control_c, 0, 64, 40
2, 589385, Note_on_c, 0, 67, 52
2, 589385, Control_c, 0, 64, 0
2, 589401, Note_on_c, 0, 46, 0
2, 589417, Note_on_c, 0, 67, 0
2, 589441, Note_on_c, 0, 70, 0
2, 589569, Note_on_c, 0, 63, 46
2, 589573, Note_on_c, 0, 67, 67
2, 589573, Note_on_c, 0, 58, 54
2, 589597, Note_on_c, 0, 63, 0
2, 589601, Note_on_c, 0, 67, 0
2, 589629, Note_on_c, 0, 58, 0
2, 589713, Control_c, 0, 64, 40
2, 589729, Control_c, 0, 64, 88
2, 589745, Control_c, 0, 64, 104
2, 589797, Note_on_c, 0, 75, 62
2, 589805, Note_on_c, 0, 67, 56
2, 589805, Note_on_c, 0, 58, 49
2, 589805, Note_on_c, 0, 63, 47
2, 589821, Control_c, 0, 64, 72
2, 589837, Note_on_c, 0, 67, 0
2, 589845, Note_on_c, 0, 63, 0
2, 589845, Note_on_c, 0, 58, 0
2, 589869, Note_on_c, 0, 75, 0
2, 589869, Control_c, 0, 64, 127
2, 589993, Control_c, 0, 64, 104
2, 590005, Control_c, 0, 64, 72
2, 590021, Note_on_c, 0, 68, 43
2, 590025, Control_c, 0, 64, 40
2, 590037, Control_c, 0, 64, 0
2, 590045, Note_on_c, 0, 46, 61
2, 590069, Note_on_c, 0, 72, 69
2, 590081, Note_on_c, 0, 68, 0
2, 590093, Note_on_c, 0, 72, 0
2, 590101, Note_on_c, 0, 46, 0
2, 590297, Note_on_c, 0, 71, 57
2, 590313, Note_on_c, 0, 72, 84
2, 590317, Note_on_c, 0, 65, 55
2, 590325, Note_on_c, 0, 60, 51
2, 590329, Note_on_c, 0, 71, 0
2, 590329, Note_on_c, 0, 56, 38
2, 590357, Note_on_c, 0, 65, 0
2, 590361, Note_on_c, 0, 60, 0
2, 590369, Note_on_c, 0, 72, 0
2, 590369, Note_on_c, 0, 56, 0
2, 590497, Note_on_c, 0, 72, 62
2, 590549, Note_on_c, 0, 56, 52
2, 590553, Note_on_c, 0, 60, 55
2, 590557, Note_on_c, 0, 80, 79
2, 590565, Note_on_c, 0, 65, 34
2, 590577, Note_on_c, 0, 72, 0
2, 590581, Note_on_c, 0, 60, 0
2, 590593, Note_on_c, 0, 65, 0
2, 590609, Note_on_c, 0, 56, 0
2, 590625, Note_on_c, 0, 80, 0
2, 590749, Note_on_c, 0, 46, 73
2, 590777, Note_on_c, 0, 80, 67
2, 590797, Note_on_c, 0, 46, 0
2, 590841, Note_on_c, 0, 80, 0
2, 590965, Note_on_c, 0, 65, 70
2, 590965, Note_on_c, 0, 60, 70
2, 590965, Note_on_c, 0, 72, 92
2, 590969, Note_on_c, 0, 56, 63
2, 590989, Note_on_c, 0, 65, 0
2, 590993, Note_on_c, 0, 60, 0
2, 591021, Note_on_c, 0, 56, 0
2, 591061, Note_on_c, 0, 72, 0
2, 591145, Note_on_c, 0, 46, 69
2, 591153, Note_on_c, 0, 84, 97
2, 591169, Note_on_c, 0, 46, 0
2, 591169, Control_c, 0, 64, 56
2, 591185, Control_c, 0, 64, 104
2, 591201, Control_c, 0, 64, 127
2, 591289, Note_on_c, 0, 84, 0
2, 591353, Note_on_c, 0, 80, 84
2, 591353, Note_on_c, 0, 60, 68
2, 591353, Note_on_c, 0, 65, 64
2, 591361, Note_on_c, 0, 56, 60
2, 591377, Note_on_c, 0, 60, 0
2, 591381, Note_on_c, 0, 65, 0
2, 591413, Note_on_c, 0, 56, 0
2, 591513, Note_on_c, 0, 80, 0
2, 591541, Note_on_c, 0, 72, 90
2, 591569, Note_on_c, 0, 46, 56
2, 591605, Note_on_c, 0, 72, 0
2, 591621, Note_on_c, 0, 46, 0
2, 591757, Note_on_c, 0, 60, 41
2, 591761, Note_on_c, 0, 65, 68
2, 591761, Note_on_c, 0, 56, 65
2, 591773, Note_on_c, 0, 89, 105
2, 591781, Note_on_c, 0, 77, 93
2, 591805, Note_on_c, 0, 60, 0
2, 591809, Note_on_c, 0, 65, 0
2, 591813, Note_on_c, 0, 56, 0
2, 591833, Note_on_c, 0, 89, 0
2, 591833, Note_on_c, 0, 77, 0
2, 591993, Control_c, 0, 64, 88
2, 592009, Control_c, 0, 64, 0
2, 592021, Note_on_c, 0, 59, 65
2, 592029, Note_on_c, 0, 87, 103
2, 592037, Note_on_c, 0, 80, 87
2, 592037, Note_on_c, 0, 75, 91
2, 592037, Note_on_c, 0, 47, 71
2, 592049, Note_on_c, 0, 59, 0
2, 592081, Note_on_c, 0, 47, 0
2, 592085, Control_c, 0, 64, 88
2, 592101, Control_c, 0, 64, 127
2, 592273, Note_on_c, 0, 46, 69
2, 592281, Note_on_c, 0, 34, 59
2, 592313, Note_on_c, 0, 46, 0
2, 592317, Note_on_c, 0, 75, 0
2, 592321, Note_on_c, 0, 87, 0
2, 592329, Note_on_c, 0, 80, 0
2, 592329, Note_on_c, 0, 34, 0
2, 592517, Note_on_c, 0, 86, 74
2, 592525, Note_on_c, 0, 74, 68
2, 592525, Note_on_c, 0, 58, 69
2, 592537, Note_on_c, 0, 46, 59
2, 592549, Note_on_c, 0, 86, 0
2, 592569, Note_on_c, 0, 74, 0
2, 592581, Note_on_c, 0, 58, 0
2, 592617, Note_on_c, 0, 46, 0
2, 592785, Note_on_c, 0, 68, 48
2, 592785, Control_c, 0, 64, 88
2, 592801, Control_c, 0, 64, 40
2, 592813, Note_on_c, 0, 47, 61
2, 592813, Control_c, 0, 64, 0
2, 592837, Note_on_c, 0, 74, 55
2, 592841, Note_on_c, 0, 47, 0
2, 592853, Note_on_c, 0, 68, 0
2, 592865, Note_on_c, 0, 74, 0
2, 593037, Note_on_c, 0, 68, 63
2, 593069, Note_on_c, 0, 74, 68
2, 593069, Note_on_c, 0, 56, 52
2, 593081, Note_on_c, 0, 64, 49
2, 593085, Note_on_c, 0, 68, 0
2, 593085, Note_on_c, 0, 59, 40
2, 593101, Note_on_c, 0, 74, 0
2, 593105, Note_on_c, 0, 56, 0
2, 593109, Note_on_c, 0, 64, 0
2, 593117, Note_on_c, 0, 59, 0
2, 593241, Note_on_c, 0, 68, 55
2, 593257, Note_on_c, 0, 74, 60
2, 593281, Note_on_c, 0, 59, 58
2, 593285, Note_on_c, 0, 64, 60
2, 593285, Note_on_c, 0, 56, 56
2, 593297, Note_on_c, 0, 68, 0
2, 593309, Note_on_c, 0, 59, 0
2, 593309, Note_on_c, 0, 80, 78
2, 593313, Note_on_c, 0, 74, 0
2, 593313, Note_on_c, 0, 64, 0
2, 593329, Note_on_c, 0, 56, 0
2, 593365, Note_on_c, 0, 80, 0
2, 593513, Note_on_c, 0, 47, 70
2, 593521, Note_on_c, 0, 80, 82
2, 593537, Note_on_c, 0, 47, 0
2, 593581, Note_on_c, 0, 80, 0
2, 593717, Note_on_c, 0, 68, 63
2, 593725, Note_on_c, 0, 59, 60
2, 593725, Note_on_c, 0, 64, 58
2, 593729, Note_on_c, 0, 56, 48
2, 593749, Note_on_c, 0, 59, 0
2, 593757, Note_on_c, 0, 64, 0
2, 593765, Note_on_c, 0, 68, 0
2, 593773, Note_on_c, 0, 56, 0
2, 593909, Note_on_c, 0, 83, 94
2, 593929, Note_on_c, 0, 47, 60
2, 593977, Note_on_c, 0, 47, 0
2, 594013, Note_on_c, 0, 83, 0
2, 594113, Note_on_c, 0, 64, 74
2, 594117, Note_on_c, 0, 80, 87
2, 594117, Control_c, 0, 64, 56
2, 594129, Note_on_c, 0, 56, 49
2, 594133, Control_c, 0, 64, 104
2, 594145, Note_on_c, 0, 59, 26
2, 594145, Control_c, 0, 64, 127
2, 594161, Note_on_c, 0, 64, 0
2, 594173, Note_on_c, 0, 59, 0
2, 594181, Note_on_c, 0, 56, 0
2, 594257, Note_on_c, 0, 80, 0
2, 594289, Note_on_c, 0, 68, 82
2, 594301, Note_on_c, 0, 47, 81
2, 594329, Note_on_c, 0, 47, 0
2, 594341, Note_on_c, 0, 68, 0
2, 594473, Control_c, 0, 64, 88
2, 594485, Control_c, 0, 64, 56
2, 594501, Control_c, 0, 64, 40
2, 594517, Note_on_c, 0, 88, 103
2, 594521, Note_on_c, 0, 59, 63
2, 594521, Note_on_c, 0, 64, 64
2, 594521, Control_c, 0, 64, 72
2, 594525, Note_on_c, 0, 56, 55
2, 594525, Note_on_c, 0, 76, 87
2, 594537, Control_c, 0, 64, 104
2, 594545, Note_on_c, 0, 64, 0
2, 594549, Note_on_c, 0, 59, 0
2, 594553, Control_c, 0, 64, 127
2, 594573, Note_on_c, 0, 56, 0
2, 594585, Note_on_c, 0, 76, 0
2, 594613, Note_on_c, 0, 88, 0
2, 594781, Control_c, 0, 64, 40
2, 594793, Note_on_c, 0, 87, 102
2, 594793, Note_on_c, 0, 35, 68
2, 594797, Control_c, 0, 64, 0
2, 594801, Note_on_c, 0, 47, 61
2, 594801, Note_on_c, 0, 75, 88
2, 594805, Note_on_c, 0, 80, 86
2, 594821, Note_on_c, 0, 35, 0
2, 594845, Control_c, 0, 64, 24
2, 594849, Note_on_c, 0, 47, 0
2, 594857, Control_c, 0, 64, 88
2, 594877, Control_c, 0, 64, 127
2, 595069, Note_on_c, 0, 53, 63
2, 595081, Note_on_c, 0, 75, 0
2, 595093, Note_on_c, 0, 53, 0
2, 595117, Note_on_c, 0, 87, 0
2, 595229, Note_on_c, 0, 80, 0
2, 595325, Control_c, 0, 64, 72
2, 595333, Note_on_c, 0, 86, 74
2, 595341, Note_on_c, 0, 74, 58
2, 595341, Control_c, 0, 64, 24
2, 595345, Note_on_c, 0, 46, 62
2, 595345, Note_on_c, 0, 34, 56
2, 595357, Control_c, 0, 64, 0
2, 595373, Control_c, 0, 64, 40
2, 595377, Note_on_c, 0, 46, 0
2, 595377, Note_on_c, 0, 86, 0
2, 595381, Note_on_c, 0, 74, 0
2, 595385, Note_on_c, 0, 34, 0
2, 595385, Control_c, 0, 64, 72
2, 595401, Control_c, 0, 64, 127
2, 595581, Note_on_c, 0, 68, 50
2, 595621, Control_c, 0, 64, 104
2, 595637, Note_on_c, 0, 34, 59
2, 595637, Note_on_c, 0, 46, 57
2, 595637, Control_c, 0, 64, 72
2, 595641, Note_on_c, 0, 72, 64
2, 595653, Note_on_c, 0, 68, 0
2, 595653, Control_c, 0, 64, 40
2, 595665, Note_on_c, 0, 72, 0
2, 595665, Control_c, 0, 64, 0
2, 595673, Note_on_c, 0, 34, 0
2, 595681, Note_on_c, 0, 46, 0
2, 595929, Note_on_c, 0, 71, 55
2, 595953, Note_on_c, 0, 72, 81
2, 595957, Note_on_c, 0, 56, 45
2, 595961, Note_on_c, 0, 71, 0
2, 595961, Note_on_c, 0, 65, 41
2, 595961, Note_on_c, 0, 60, 50
2, 595989, Note_on_c, 0, 56, 0
2, 595997, Note_on_c, 0, 65, 0
2, 596009, Note_on_c, 0, 72, 0
2, 596013, Note_on_c, 0, 60, 0
2, 596209, Note_on_c, 0, 72, 61
2, 596237, Note_on_c, 0, 56, 62
2, 596241, Note_on_c, 0, 80, 71
2, 596249, Note_on_c, 0, 65, 43
2, 596249, Note_on_c, 0, 60, 50
2, 596269, Note_on_c, 0, 72, 0
2, 596281, Note_on_c, 0, 65, 0
2, 596293, Note_on_c, 0, 80, 0
2, 596297, Note_on_c, 0, 56, 0
2, 596301, Note_on_c, 0, 60, 0
2, 596501, Note_on_c, 0, 46, 74
2, 596509, Note_on_c, 0, 80, 75
2, 596549, Note_on_c, 0, 46, 0
2, 596581, Note_on_c, 0, 80, 0
2, 596745, Note_on_c, 0, 74, 68
2, 596745, Note_on_c, 0, 71, 50
2, 596745, Note_on_c, 0, 62, 48
2, 596745, Note_on_c, 0, 56, 51
2, 596789, Note_on_c, 0, 74, 0
2, 596797, Note_on_c, 0, 71, 0
2, 596797, Note_on_c, 0, 62, 0
2, 596797, Note_on_c, 0, 56, 0
2, 596953, Note_on_c, 0, 77, 87
2, 596957, Note_on_c, 0, 70, 72
2, 596957, Note_on_c, 0, 58, 65
2, 596965, Note_on_c, 0, 62, 63
2, 596965, Control_c, 0, 64, 40
2, 596981, Control_c, 0, 64, 104
2, 596989, Note_on_c, 0, 62, 0
2, 596989, Note_on_c, 0, 58, 0
2, 596997, Control_c, 0, 64, 127
2, 597105, Note_on_c, 0, 77, 0
2, 597149, Note_on_c, 0, 46, 69
2, 597153, Control_c, 0, 64, 72
2, 597165, Note_on_c, 0, 75, 70
2, 597169, Control_c, 0, 64, 24
2, 597185, Note_on_c, 0, 46, 0
2, 597185, Control_c, 0, 64, 0
2, 597217, Note_on_c, 0, 70, 0
2, 597221, Note_on_c, 0, 75, 0
2, 597341, Note_on_c, 0, 63, 60
2, 597353, Note_on_c, 0, 58, 46
2, 597357, Note_on_c, 0, 70, 67
2, 597373, Note_on_c, 0, 67, 30
2, 597385, Note_on_c, 0, 58, 0
2, 597389, Note_on_c, 0, 63, 0
2, 597405, Note_on_c, 0, 67, 0
2, 597441, Note_on_c, 0, 70, 0
2, 597525, Control_c, 0, 64, 56
2, 597537, Note_on_c, 0, 63, 62
2, 597541, Note_on_c, 0, 72, 81
2, 597541, Control_c, 0, 64, 127
2, 597545, Note_on_c, 0, 66, 71
2, 597557, Note_on_c, 0, 57, 57
2, 597581, Note_on_c, 0, 57, 0
2, 597585, Note_on_c, 0, 63, 0
2, 597613, Note_on_c, 0, 66, 0
2, 597645, Note_on_c, 0, 72, 0
2, 597709, Control_c, 0, 64, 72
2, 597721, Note_on_c, 0, 70, 64
2, 597725, Note_on_c, 0, 46, 73
2, 597725, Control_c, 0, 64, 24
2, 597741, Control_c, 0, 64, 0
2, 597749, Note_on_c, 0, 67, 51
2, 597753, Note_on_c, 0, 46, 0
2, 597777, Note_on_c, 0, 67, 0
2, 597801, Note_on_c, 0, 70, 0
2, 597901, Note_on_c, 0, 63, 46
2, 597905, Note_on_c, 0, 67, 62
2, 597905, Note_on_c, 0, 58, 60
2, 597949, Note_on_c, 0, 63, 0
2, 597981, Note_on_c, 0, 58, 0
2, 597981, Note_on_c, 0, 67, 0
2, 598053, Control_c, 0, 64, 40
2, 598069, Note_on_c, 0, 64, 64
2, 598069, Control_c, 0, 64, 104
2, 598077, Note_on_c, 0, 72, 77
2, 598081, Control_c, 0, 64, 127
2, 598089, Note_on_c, 0, 58, 42
2, 598097, Note_on_c, 0, 64, 0
2, 598109, Note_on_c, 0, 60, 43
2, 598133, Note_on_c, 0, 58, 0
2, 598137, Note_on_c, 0, 60, 0
2, 598141, Note_on_c, 0, 72, 0
2, 598249, Note_on_c, 0, 68, 60
2, 598269, Note_on_c, 0, 72, 73
2, 598269, Note_on_c, 0, 46, 59
2, 598269, Control_c, 0, 64, 88
2, 598285, Control_c, 0, 64, 40
2, 598289, Note_on_c, 0, 68, 0
2, 598301, Note_on_c, 0, 72, 0
2, 598301, Control_c, 0, 64, 0
2, 598321, Note_on_c, 0, 46, 0
2, 598389, Note_on_c, 0, 71, 53
2, 598417, Note_on_c, 0, 71, 0
2, 598433, Note_on_c, 0, 72, 77
2, 598441, Note_on_c, 0, 60, 68
2, 598445, Note_on_c, 0, 65, 61
2, 598461, Note_on_c, 0, 56, 44
2, 598481, Note_on_c, 0, 65, 0
2, 598489, Note_on_c, 0, 56, 0
2, 598501, Note_on_c, 0, 60, 0
2, 598501, Note_on_c, 0, 72, 0
2, 598609, Note_on_c, 0, 72, 74
2, 598609, Note_on_c, 0, 80, 74
2, 598621, Note_on_c, 0, 56, 58
2, 598625, Note_on_c, 0, 60, 55
2, 598633, Note_on_c, 0, 65, 43
2, 598649, Note_on_c, 0, 60, 0
2, 598649, Note_on_c, 0, 72, 0
2, 598669, Note_on_c, 0, 65, 0
2, 598673, Note_on_c, 0, 80, 0
2, 598677, Note_on_c, 0, 56, 0
2, 598781, Note_on_c, 0, 80, 79
2, 598781, Note_on_c, 0, 46, 79
2, 598805, Note_on_c, 0, 46, 0
2, 598853, Note_on_c, 0, 80, 0
2, 598945, Note_on_c, 0, 74, 75
2, 598945, Note_on_c, 0, 71, 58
2, 598957, Note_on_c, 0, 62, 66
2, 598961, Note_on_c, 0, 56, 57
2, 598985, Note_on_c, 0, 56, 0
2, 598985, Note_on_c, 0, 62, 0
2, 598997, Note_on_c, 0, 71, 0
2, 599013, Note_on_c, 0, 74, 0
2, 599117, Note_on_c, 0, 77, 96
2, 599121, Control_c, 0, 64, 40
2, 599125, Note_on_c, 0, 58, 70
2, 599129, Note_on_c, 0, 62, 79
2, 599129, Note_on_c, 0, 70, 76
2, 599137, Control_c, 0, 64, 127
2, 599161, Note_on_c, 0, 62, 0
2, 599177, Note_on_c, 0, 58, 0
2, 599233, Note_on_c, 0, 77, 0
2, 599289, Note_on_c, 0, 46, 76
2, 599293, Control_c, 0, 64, 104
2, 599305, Note_on_c, 0, 75, 71
2, 599309, Note_on_c, 0, 67, 56
2, 599309, Control_c, 0, 64, 40
2, 599325, Note_on_c, 0, 46, 0
2, 599325, Control_c, 0, 64, 0
2, 599341, Note_on_c, 0, 70, 0
2, 599341, Note_on_c, 0, 67, 0
2, 599365, Note_on_c, 0, 75, 0
2, 599465, Note_on_c, 0, 63, 64
2, 599473, Note_on_c, 0, 70, 68
2, 599473, Note_on_c, 0, 58, 49
2, 599497, Note_on_c, 0, 63, 0
2, 599501, Note_on_c, 0, 58, 0
2, 599573, Note_on_c, 0, 70, 0
2, 599601, Control_c, 0, 64, 40
2, 599617, Control_c, 0, 64, 127
2, 599637, Note_on_c, 0, 66, 67
2, 599637, Note_on_c, 0, 63, 58
2, 599641, Note_on_c, 0, 57, 66
2, 599641, Note_on_c, 0, 72, 72
2, 599669, Note_on_c, 0, 57, 0
2, 599673, Note_on_c, 0, 63, 0
2, 599697, Note_on_c, 0, 66, 0
2, 599721, Note_on_c, 0, 72, 0
2, 599789, Control_c, 0, 64, 104
2, 599801, Control_c, 0, 64, 56
2, 599809, Note_on_c, 0, 70, 60
2, 599813, Note_on_c, 0, 46, 67
2, 599817, Control_c, 0, 64, 0
2, 599829, Note_on_c, 0, 67, 45
2, 599841, Note_on_c, 0, 46, 0
2, 599865, Note_on_c, 0, 67, 0
2, 599897, Note_on_c, 0, 70, 0
2, 599993, Note_on_c, 0, 63, 65
2, 600005, Note_on_c, 0, 67, 64
2, 600017, Note_on_c, 0, 58, 34
2, 600029, Note_on_c, 0, 67, 0
2, 600049, Note_on_c, 0, 63, 0
2, 600053, Note_on_c, 0, 58, 0
2, 600157, Control_c, 0, 64, 56
2, 600173, Control_c, 0, 64, 104
2, 600189, Control_c, 0, 64, 127
2, 600217, Note_on_c, 0, 58, 48
2, 600225, Note_on_c, 0, 63, 53
2, 600225, Note_on_c, 0, 75, 64
2, 600237, Note_on_c, 0, 67, 42
2, 600253, Note_on_c, 0, 63, 0
2, 600253, Note_on_c, 0, 58, 0
2, 600273, Note_on_c, 0, 67, 0
2, 600305, Note_on_c, 0, 75, 0
2, 600345, Control_c, 0, 64, 88
2, 600361, Control_c, 0, 64, 56
2, 600373, Control_c, 0, 64, 0
2, 600409, Note_on_c, 0, 68, 49
2, 600449, Note_on_c, 0, 46, 67
2, 600461, Note_on_c, 0, 72, 78
2, 600473, Note_on_c, 0, 68, 0
2, 600501, Note_on_c, 0, 46, 0
2, 600505, Note_on_c, 0, 72, 0
2, 600665, Note_on_c, 0, 71, 59
2, 600669, Note_on_c, 0, 60, 59
2, 600677, Note_on_c, 0, 72, 85
2, 600677, Note_on_c, 0, 65, 51
2, 600677, Note_on_c, 0, 56, 49
2, 600721, Note_on_c, 0, 65, 0
2, 600729, Note_on_c, 0, 71, 0
2, 600737, Note_on_c, 0, 60, 0
2, 600741, Note_on_c, 0, 56, 0
2, 600765, Note_on_c, 0, 72, 0
2, 600869, Note_on_c, 0, 72, 60
2, 600877, Note_on_c, 0, 65, 63
2, 600877, Note_on_c, 0, 56, 57
2, 600877, Note_on_c, 0, 60, 66
2, 600885, Note_on_c, 0, 80, 80
2, 600901, Note_on_c, 0, 60, 0
2, 600905, Note_on_c, 0, 65, 0
2, 600909, Note_on_c, 0, 72, 0
2, 600941, Note_on_c, 0, 56, 0
2, 600961, Note_on_c, 0, 80, 0
2, 601057, Note_on_c, 0, 46, 77
2, 601057, Control_c, 0, 64, 24
2, 601073, Note_on_c, 0, 80, 85
2, 601073, Control_c, 0, 64, 72
2, 601089, Control_c, 0, 64, 127
2, 601101, Note_on_c, 0, 46, 0
2, 601165, Note_on_c, 0, 80, 0
2, 601245, Note_on_c, 0, 65, 58
2, 601245, Note_on_c, 0, 60, 63
2, 601253, Note_on_c, 0, 56, 55
2, 601257, Note_on_c, 0, 72, 93
2, 601273, Note_on_c, 0, 65, 0
2, 601277, Note_on_c, 0, 60, 0
2, 601309, Note_on_c, 0, 56, 0
2, 601349, Note_on_c, 0, 72, 0
2, 601429, Note_on_c, 0, 46, 72
2, 601433, Note_on_c, 0, 84, 103
2, 601453, Note_on_c, 0, 46, 0
2, 601565, Note_on_c, 0, 84, 0
2, 601613, Note_on_c, 0, 65, 63
2, 601613, Note_on_c, 0, 60, 69
2, 601621, Note_on_c, 0, 80, 87
2, 601621, Note_on_c, 0, 56, 63
2, 601645, Note_on_c, 0, 60, 0
2, 601645, Note_on_c, 0, 65, 0
2, 601681, Note_on_c, 0, 56, 0
2, 601777, Note_on_c, 0, 80, 0
2, 601801, Note_on_c, 0, 72, 96
2, 601801, Note_on_c, 0, 46, 73
2, 601829, Note_on_c, 0, 46, 0
2, 601869, Note_on_c, 0, 72, 0
2, 601997, Note_on_c, 0, 60, 51
2, 602013, Note_on_c, 0, 65, 68
2, 602025, Note_on_c, 0, 89, 103
2, 602033, Note_on_c, 0, 77, 82
2, 602041, Note_on_c, 0, 65, 0
2, 602053, Note_on_c, 0, 56, 33
2, 602057, Note_on_c, 0, 60, 0
2, 602081, Note_on_c, 0, 56, 0
2, 602089, Note_on_c, 0, 77, 0
2, 602109, Note_on_c, 0, 89, 0
2, 602185, Note_on_c, 0, 46, 34
2, 602221, Note_on_c, 0, 46, 0
2, 602257, Control_c, 0, 64, 104
2, 602273, Control_c, 0, 64, 0
2, 602285, Note_on_c, 0, 87, 106
2, 602289, Note_on_c, 0, 75, 99
2, 602289, Note_on_c, 0, 59, 70
2, 602293, Note_on_c, 0, 80, 87
2, 602293, Note_on_c, 0, 47, 74
2, 602317, Note_on_c, 0, 59, 0
2, 602345, Note_on_c, 0, 47, 0
2, 602365, Control_c, 0, 64, 88
2, 602381, Control_c, 0, 64, 127
2, 602517, Note_on_c, 0, 34, 60
2, 602521, Note_on_c, 0, 46, 56
2, 602573, Note_on_c, 0, 46, 0
2, 602573, Note_on_c, 0, 34, 0
2, 602577, Note_on_c, 0, 75, 0
2, 602593, Note_on_c, 0, 87, 0
2, 602645, Note_on_c, 0, 80, 0
2, 602757, Note_on_c, 0, 86, 77
2, 602757, Note_on_c, 0, 46, 68
2, 602765, Note_on_c, 0, 74, 69
2, 602781, Note_on_c, 0, 86, 0
2, 602801, Note_on_c, 0, 74, 0
2, 602881, Note_on_c, 0, 46, 0
2, 602953, Control_c, 0, 64, 56
2, 602969, Control_c, 0, 64, 0
2, 602985, Note_on_c, 0, 68, 58
2, 603009, Note_on_c, 0, 47, 64
2, 603033, Note_on_c, 0, 47, 0
2, 603037, Note_on_c, 0, 74, 59
2, 603045, Control_c, 0, 64, 24
2, 603053, Note_on_c, 0, 68, 0
2, 603061, Control_c, 0, 64, 56
2, 603069, Note_on_c, 0, 74, 0
2, 603125, Control_c, 0, 64, 0
2, 603233, Note_on_c, 0, 68, 54
2, 603261, Note_on_c, 0, 56, 56
2, 603269, Note_on_c, 0, 74, 73
2, 603273, Note_on_c, 0, 59, 52
2, 603273, Note_on_c, 0, 64, 52
2, 603293, Note_on_c, 0, 68, 0
2, 603305, Note_on_c, 0, 59, 0
2, 603309, Note_on_c, 0, 64, 0
2, 603329, Note_on_c, 0, 56, 0
2, 603333, Note_on_c, 0, 74, 0
2, 603469, Note_on_c, 0, 56, 56
2, 603469, Note_on_c, 0, 59, 55
2, 603473, Note_on_c, 0, 80, 84
2, 603473, Note_on_c, 0, 64, 60
2, 603497, Note_on_c, 0, 59, 0
2, 603505, Note_on_c, 0, 64, 0
2, 603521, Note_on_c, 0, 56, 0
2, 603549, Note_on_c, 0, 80, 0
2, 603645, Note_on_c, 0, 47, 72
2, 603673, Note_on_c, 0, 80, 86
2, 603705, Note_on_c, 0, 47, 0
2, 603769, Note_on_c, 0, 80, 0
2, 603853, Note_on_c, 0, 64, 66
2, 603857, Note_on_c, 0, 56, 52
2, 603869, Note_on_c, 0, 68, 67
2, 603877, Note_on_c, 0, 64, 0
2, 603885, Note_on_c, 0, 59, 26
2, 603909, Note_on_c, 0, 59, 0
2, 603917, Note_on_c, 0, 56, 0
2, 603921, Note_on_c, 0, 68, 0
2, 604005, Control_c, 0, 64, 24
2, 604021, Control_c, 0, 64, 40
2, 604033, Note_on_c, 0, 47, 77
2, 604037, Control_c, 0, 64, 88
2, 604049, Note_on_c, 0, 83, 93
2, 604053, Control_c, 0, 64, 127
2, 604057, Note_on_c, 0, 47, 0
2, 604149, Note_on_c, 0, 83, 0
2, 604229, Note_on_c, 0, 56, 64
2, 604237, Note_on_c, 0, 80, 91
2, 604237, Note_on_c, 0, 64, 62
2, 604265, Note_on_c, 0, 64, 0
2, 604293, Note_on_c, 0, 56, 0
2, 604369, Note_on_c, 0, 80, 0
2, 604409, Note_on_c, 0, 47, 80
2, 604409, Note_on_c, 0, 68, 80
2, 604437, Note_on_c, 0, 47, 0
2, 604465, Note_on_c, 0, 68, 0
2, 604537, Note_on_c, 0, 87, 48
2, 604565, Note_on_c, 0, 87, 0
2, 604621, Note_on_c, 0, 59, 57
2, 604621, Note_on_c, 0, 64, 55
2, 604633, Note_on_c, 0, 88, 109
2, 604637, Note_on_c, 0, 76, 97
2, 604649, Note_on_c, 0, 64, 0
2, 604649, Note_on_c, 0, 56, 64
2, 604665, Note_on_c, 0, 59, 0
2, 604677, Note_on_c, 0, 56, 0
2, 604681, Note_on_c, 0, 76, 0
2, 604717, Note_on_c, 0, 88, 0
2, 604873, Control_c, 0, 64, 88
2, 604889, Control_c, 0, 64, 0
2, 604905, Note_on_c, 0, 35, 72
2, 604909, Note_on_c, 0, 87, 105
2, 604921, Note_on_c, 0, 80, 88
2, 604921, Note_on_c, 0, 75, 91
2, 604921, Note_on_c, 0, 47, 70
2, 604941, Note_on_c, 0, 35, 0
2, 604949, Note_on_c, 0, 47, 0
2, 604969, Control_c, 0, 64, 40
2, 604981, Control_c, 0, 64, 127
2, 605141, Note_on_c, 0, 75, 0
2, 605173, Note_on_c, 0, 53, 69
2, 605177, Note_on_c, 0, 87, 0
2, 605185, Note_on_c, 0, 41, 58
2, 605201, Note_on_c, 0, 53, 0
2, 605217, Note_on_c, 0, 41, 0
2, 605245, Note_on_c, 0, 80, 0
2, 605441, Note_on_c, 0, 86, 79
2, 605453, Note_on_c, 0, 80, 56
2, 605453, Note_on_c, 0, 46, 64
2, 605453, Note_on_c, 0, 34, 58
2, 605457, Note_on_c, 0, 74, 56
2, 605485, Note_on_c, 0, 46, 0
2, 605489, Note_on_c, 0, 74, 0
2, 605497, Note_on_c, 0, 86, 0
2, 605501, Note_on_c, 0, 34, 0
2, 605521, Note_on_c, 0, 80, 0
2, 605733, Note_on_c, 0, 68, 53
2, 605773, Control_c, 0, 64, 72
2, 605789, Control_c, 0, 64, 0
2, 605817, Note_on_c, 0, 72, 72
2, 605833, Note_on_c, 0, 68, 0
2, 605833, Note_on_c, 0, 34, 57
2, 605841, Note_on_c, 0, 46, 53
2, 605849, Control_c, 0, 64, 40
2, 605857, Note_on_c, 0, 72, 0
2, 605865, Control_c, 0, 64, 127
2, 605889, Note_on_c, 0, 34, 0
2, 605893, Note_on_c, 0, 46, 0
2, 605973, Control_c, 0, 64, 56
2, 605989, Control_c, 0, 64, 0
2, 606133, Note_on_c, 0, 71, 51
2, 606161, Note_on_c, 0, 72, 80
2, 606177, Note_on_c, 0, 71, 0
2, 606177, Note_on_c, 0, 65, 59
2, 606181, Note_on_c, 0, 60, 43
2, 606185, Note_on_c, 0, 56, 47
2, 606209, Note_on_c, 0, 65, 0
2, 606213, Note_on_c, 0, 56, 0
2, 606213, Note_on_c, 0, 60, 0
2, 606229, Note_on_c, 0, 72, 0
2, 606441, Note_on_c, 0, 72, 72
2, 606489, Note_on_c, 0, 56, 56
2, 606489, Note_on_c, 0, 80, 71
2, 606489, Note_on_c, 0, 65, 52
2, 606501, Note_on_c, 0, 60, 29
2, 606509, Note_on_c, 0, 72, 0
2, 606521, Note_on_c, 0, 65, 0
2, 606529, Note_on_c, 0, 60, 0
2, 606533, Note_on_c, 0, 80, 0
2, 606541, Note_on_c, 0, 56, 0
2, 606749, Note_on_c, 0, 46, 71
2, 606761, Note_on_c, 0, 80, 77
2, 606793, Note_on_c, 0, 46, 0
2, 606817, Note_on_c, 0, 80, 0
2, 607005, Note_on_c, 0, 56, 58
2, 607017, Note_on_c, 0, 74, 70
2, 607017, Note_on_c, 0, 62, 51
2, 607017, Note_on_c, 0, 71, 58
2, 607033, Note_on_c, 0, 56, 0
2, 607049, Note_on_c, 0, 62, 0
2, 607069, Note_on_c, 0, 71, 0
2, 607073, Note_on_c, 0, 74, 0
2, 607253, Note_on_c, 0, 77, 85
2, 607257, Note_on_c, 0, 58, 62
2, 607257, Note_on_c, 0, 70, 64
2, 607257, Control_c, 0, 64, 104
2, 607261, Note_on_c, 0, 62, 50
2, 607273, Control_c, 0, 64, 127
2, 607281, Note_on_c, 0, 58, 0
2, 607297, Note_on_c, 0, 62, 0
2, 607325, Note_on_c, 0, 70, 0
2, 607369, Note_on_c, 0, 77, 0
2, 607445, Control_c, 0, 64, 72
2, 607461, Control_c, 0, 64, 0
2, 607469, Note_on_c, 0, 46, 72
2, 607481, Note_on_c, 0, 75, 61
2, 607517, Note_on_c, 0, 46, 0
2, 607545, Note_on_c, 0, 75, 0
2, 607661, Note_on_c, 0, 63, 62
2, 607673, Note_on_c, 0, 70, 63
2, 607709, Note_on_c, 0, 63, 0
2, 607773, Note_on_c, 0, 70, 0
2, 607861, Note_on_c, 0, 63, 55
2, 607865, Control_c, 0, 64, 104
2, 607869, Note_on_c, 0, 72, 82
2, 607869, Note_on_c, 0, 57, 62
2, 607873, Note_on_c, 0, 66, 62
2, 607881, Control_c, 0, 64, 127
2, 607901, Note_on_c, 0, 57, 0
2, 607921, Note_on_c, 0, 63, 0
2, 607933, Note_on_c, 0, 66, 0
2, 607973, Note_on_c, 0, 72, 0
2, 608057, Note_on_c, 0, 46, 69
2, 608061, Note_on_c, 0, 63, 56
2, 608061, Note_on_c, 0, 70, 64
2, 608065, Control_c, 0, 64, 56
2, 608077, Control_c, 0, 64, 0
2, 608085, Note_on_c, 0, 67, 53
2, 608101, Note_on_c, 0, 46, 0
2, 608105, Note_on_c, 0, 63, 0
2, 608117, Note_on_c, 0, 67, 0
2, 608145, Note_on_c, 0, 70, 0
2, 608253, Note_on_c, 0, 67, 66
2, 608253, Note_on_c, 0, 58, 58
2, 608253, Note_on_c, 0, 63, 64
2, 608289, Note_on_c, 0, 67, 0
2, 608293, Note_on_c, 0, 63, 0
2, 608313, Note_on_c, 0, 58, 0
2, 608421, Control_c, 0, 64, 88
2, 608433, Note_on_c, 0, 75, 73
2, 608437, Note_on_c, 0, 67, 63
2, 608437, Control_c, 0, 64, 127
2, 608441, Note_on_c, 0, 58, 56
2, 608445, Note_on_c, 0, 63, 57
2, 608465, Note_on_c, 0, 67, 0
2, 608469, Note_on_c, 0, 63, 0
2, 608481, Note_on_c, 0, 58, 0
2, 608529, Note_on_c, 0, 75, 0
2, 608609, Note_on_c, 0, 68, 61
2, 608609, Control_c, 0, 64, 56
2, 608617, Control_c, 0, 64, 0
2, 608665, Note_on_c, 0, 68, 0
2, 608665, Note_on_c, 0, 72, 76
2, 608665, Note_on_c, 0, 46, 50
2, 608697, Note_on_c, 0, 72, 0
2, 608717, Note_on_c, 0, 46, 0
2, 608813, Note_on_c, 0, 71, 66
2, 608817, Note_on_c, 0, 60, 64
2, 608829, Note_on_c, 0, 72, 90
2, 608829, Note_on_c, 0, 56, 58
2, 608829, Note_on_c, 0, 65, 54
2, 608845, Note_on_c, 0, 71, 0
2, 608861, Note_on_c, 0, 65, 0
2, 608873, Note_on_c, 0, 60, 0
2, 608885, Note_on_c, 0, 56, 0
2, 608893, Note_on_c, 0, 72, 0
2, 608977, Note_on_c, 0, 72, 71
2, 609009, Note_on_c, 0, 56, 65
2, 609021, Note_on_c, 0, 65, 46
2, 609025, Note_on_c, 0, 60, 45
2, 609029, Note_on_c, 0, 80, 79
2, 609053, Note_on_c, 0, 72, 0
2, 609057, Note_on_c, 0, 65, 0
2, 609061, Note_on_c, 0, 60, 0
2, 609065, Note_on_c, 0, 56, 0
2, 609097, Note_on_c, 0, 80, 0
2, 609205, Note_on_c, 0, 46, 65
2, 609209, Note_on_c, 0, 80, 82
2, 609253, Note_on_c, 0, 46, 0
2, 609293, Note_on_c, 0, 80, 0
2, 609389, Note_on_c, 0, 56, 70
2, 609389, Note_on_c, 0, 74, 74
2, 609389, Note_on_c, 0, 71, 60
2, 609393, Note_on_c, 0, 62, 70
2, 609417, Note_on_c, 0, 62, 0
2, 609417, Note_on_c, 0, 56, 0
2, 609441, Note_on_c, 0, 71, 0
2, 609453, Note_on_c, 0, 74, 0
2, 609581, Note_on_c, 0, 77, 96
2, 609581, Control_c, 0, 64, 56
2, 609585, Note_on_c, 0, 70, 78
2, 609593, Note_on_c, 0, 62, 78
2, 609593, Note_on_c, 0, 58, 70
2, 609597, Control_c, 0, 64, 127
2, 609617, Note_on_c, 0, 62, 0
2, 609621, Note_on_c, 0, 58, 0
2, 609713, Note_on_c, 0, 77, 0
2, 609753, Note_on_c, 0, 70, 0
2, 609765, Note_on_c, 0, 46, 78
2, 609777, Note_on_c, 0, 75, 71
2, 609781, Control_c, 0, 64, 56
2, 609797, Control_c, 0, 64, 0
2, 609817, Note_on_c, 0, 46, 0
2, 609841, Note_on_c, 0, 75, 0
2, 609941, Note_on_c, 0, 63, 64
2, 609945, Note_on_c, 0, 70, 70
2, 609957, Note_on_c, 0, 58, 48
2, 609957, Note_on_c, 0, 67, 41
2, 609985, Note_on_c, 0, 58, 0
2, 609989, Note_on_c, 0, 67, 0
2, 609989, Note_on_c, 0, 63, 0
2, 610057, Note_on_c, 0, 70, 0
2, 610093, Control_c, 0, 64, 40
2, 610105, Control_c, 0, 64, 127
2, 610121, Note_on_c, 0, 63, 58
2, 610121, Note_on_c, 0, 66, 70
2, 610125, Note_on_c, 0, 72, 82
2, 610129, Note_on_c, 0, 57, 64
2, 610157, Note_on_c, 0, 57, 0
2, 610161, Note_on_c, 0, 63, 0
2, 610193, Note_on_c, 0, 66, 0
2, 610221, Note_on_c, 0, 72, 0
2, 610293, Control_c, 0, 64, 56
2, 610309, Note_on_c, 0, 70, 65
2, 610309, Note_on_c, 0, 46, 64
2, 610309, Control_c, 0, 64, 0
2, 610333, Note_on_c, 0, 67, 47
2, 610361, Note_on_c, 0, 46, 0
2, 610365, Note_on_c, 0, 67, 0
2, 610397, Note_on_c, 0, 70, 0
2, 610489, Note_on_c, 0, 67, 65
2, 610497, Note_on_c, 0, 63, 27
2, 610501, Note_on_c, 0, 58, 54
2, 610517, Note_on_c, 0, 67, 0
2, 610541, Note_on_c, 0, 63, 0
2, 610545, Note_on_c, 0, 58, 0
2, 610649, Control_c, 0, 64, 40
2, 610665, Control_c, 0, 64, 88
2, 610681, Control_c, 0, 64, 127
2, 610701, Note_on_c, 0, 58, 54
2, 610701, Note_on_c, 0, 63, 56
2, 610701, Note_on_c, 0, 75, 67
2, 610721, Note_on_c, 0, 67, 35
2, 610737, Note_on_c, 0, 58, 0
2, 610741, Note_on_c, 0, 63, 0
2, 610757, Note_on_c, 0, 67, 0
2, 610769, Note_on_c, 0, 75, 0
2, 610849, Control_c, 0, 64, 88
2, 610865, Control_c, 0, 64, 0
2, 610885, Note_on_c, 0, 46, 57
2, 610941, Note_on_c, 0, 46, 0
2, 610957, Control_c, 0, 64, 56
2, 610973, Control_c, 0, 64, 127
2, 611073, Note_on_c, 0, 70, 76
2, 611077, Note_on_c, 0, 63, 57
2, 611081, Note_on_c, 0, 58, 55
2, 611089, Note_on_c, 0, 67, 53
2, 611121, Note_on_c, 0, 67, 0
2, 611129, Note_on_c, 0, 63, 0
2, 611149, Note_on_c, 0, 58, 0
2, 611181, Note_on_c, 0, 70, 0
2, 611253, Control_c, 0, 64, 56
2, 611269, Control_c, 0, 64, 0
2, 611297, Note_on_c, 0, 75, 88
2, 611309, Note_on_c, 0, 63, 49
2, 611309, Note_on_c, 0, 66, 66
2, 611313, Note_on_c, 0, 57, 55
2, 611329, Control_c, 0, 64, 40
2, 611341, Note_on_c, 0, 57, 0
2, 611345, Control_c, 0, 64, 127
2, 611353, Note_on_c, 0, 63, 0
2, 611441, Control_c, 0, 64, 72
2, 611457, Control_c, 0, 64, 0
2, 611469, Note_on_c, 0, 66, 0
2, 611481, Note_on_c, 0, 46, 70
2, 611501, Control_c, 0, 64, 24
2, 611517, Control_c, 0, 64, 72
2, 611533, Control_c, 0, 64, 127
2, 611537, Note_on_c, 0, 46, 0
2, 611593, Note_on_c, 0, 75, 0
2, 611625, Control_c, 0, 64, 88
2, 611641, Control_c, 0, 64, 24
2, 611657, Control_c, 0, 64, 0
2, 611669, Control_c, 0, 64, 24
2, 611673, Note_on_c, 0, 70, 82
2, 611685, Note_on_c, 0, 63, 50
2, 611685, Note_on_c, 0, 67, 60
2, 611685, Control_c, 0, 64, 56
2, 611693, Note_on_c, 0, 58, 42
2, 611701, Control_c, 0, 64, 104
2, 611709, Note_on_c, 0, 67, 0
2, 611717, Control_c, 0, 64, 127
2, 611721, Note_on_c, 0, 63, 0
2, 611729, Note_on_c, 0, 58, 0
2, 611765, Note_on_c, 0, 70, 0
2, 611857, Control_c, 0, 64, 72
2, 611873, Control_c, 0, 64, 0
2, 611901, Note_on_c, 0, 63, 57
2, 611905, Note_on_c, 0, 75, 85
2, 611913, Note_on_c, 0, 57, 62
2, 611917, Note_on_c, 0, 66, 62
2, 611925, Note_on_c, 0, 72, 64
2, 611937, Note_on_c, 0, 57, 0
2, 611937, Control_c, 0, 64, 56
2, 611949, Control_c, 0, 64, 127
2, 611953, Note_on_c, 0, 72, 0
2, 611961, Note_on_c, 0, 63, 0
2, 612025, Control_c, 0, 64, 88
2, 612041, Control_c, 0, 64, 0
2, 612089, Note_on_c, 0, 46, 61
2, 612093, Control_c, 0, 64, 72
2, 612105, Control_c, 0, 64, 127
2, 612141, Note_on_c, 0, 46, 0
2, 612181, Note_on_c, 0, 66, 0
2, 612225, Note_on_c, 0, 75, 0
2, 612245, Control_c, 0, 64, 104
2, 612261, Control_c, 0, 64, 24
2, 612277, Note_on_c, 0, 70, 77
2, 612277, Control_c, 0, 64, 0
2, 612285, Note_on_c, 0, 63, 56
2, 612289, Note_on_c, 0, 67, 58
2, 612293, Control_c, 0, 64, 40
2, 612297, Note_on_c, 0, 58, 42
2, 612305, Control_c, 0, 64, 72
2, 612321, Note_on_c, 0, 67, 0
2, 612321, Control_c, 0, 64, 127
2, 612329, Note_on_c, 0, 58, 0
2, 612329, Note_on_c, 0, 63, 0
2, 612369, Note_on_c, 0, 70, 0
2, 612405, Note_on_c, 0, 70, 67
2, 612429, Control_c, 0, 64, 0
2, 612457, Note_on_c, 0, 70, 0
2, 612481, Note_on_c, 0, 58, 68
2, 612481, Note_on_c, 0, 72, 83
2, 612481, Note_on_c, 0, 67, 70
2, 612485, Note_on_c, 0, 63, 65
2, 612533, Note_on_c, 0, 63, 0
2, 612541, Note_on_c, 0, 58, 0
2, 612541, Control_c, 0, 64, 104
2, 612557, Control_c, 0, 64, 127
2, 612573, Note_on_c, 0, 67, 0
2, 612589, Note_on_c, 0, 72, 0
2, 612677, Note_on_c, 0, 46, 64
2, 612733, Note_on_c, 0, 46, 0
2, 612833, Control_c, 0, 64, 104
2, 612849, Control_c, 0, 64, 24
2, 612861, Note_on_c, 0, 67, 72
2, 612861, Note_on_c, 0, 74, 85
2, 612865, Control_c, 0, 64, 0
2, 612869, Note_on_c, 0, 63, 67
2, 612877, Note_on_c, 0, 58, 50
2, 612897, Control_c, 0, 64, 24
2, 612909, Note_on_c, 0, 58, 0
2, 612913, Control_c, 0, 64, 56
2, 612917, Note_on_c, 0, 67, 0
2, 612921, Note_on_c, 0, 63, 0
2, 612929, Control_c, 0, 64, 104
2, 612941, Control_c, 0, 64, 127
2, 612945, Note_on_c, 0, 74, 0
2, 613017, Note_on_c, 0, 67, 67
2, 613017, Note_on_c, 0, 74, 65
2, 613037, Control_c, 0, 64, 56
2, 613053, Note_on_c, 0, 63, 65
2, 613053, Control_c, 0, 64, 0
2, 613061, Note_on_c, 0, 58, 58
2, 613085, Note_on_c, 0, 75, 85
2, 613089, Note_on_c, 0, 63, 0
2, 613101, Note_on_c, 0, 58, 0
2, 613113, Note_on_c, 0, 67, 0
2, 613113, Control_c, 0, 64, 40
2, 613121, Note_on_c, 0, 74, 0
2, 613129, Control_c, 0, 64, 104
2, 613145, Control_c, 0, 64, 127
2, 613185, Note_on_c, 0, 75, 0
2, 613237, Control_c, 0, 64, 104
2, 613249, Note_on_c, 0, 46, 65
2, 613253, Control_c, 0, 64, 24
2, 613269, Control_c, 0, 64, 0
2, 613285, Control_c, 0, 64, 40
2, 613301, Note_on_c, 0, 46, 0
2, 613301, Control_c, 0, 64, 72
2, 613313, Control_c, 0, 64, 127
2, 613437, Control_c, 0, 64, 56
2, 613453, Control_c, 0, 64, 0
2, 613457, Note_on_c, 0, 77, 92
2, 613461, Note_on_c, 0, 68, 61
2, 613469, Control_c, 0, 64, 24
2, 613485, Note_on_c, 0, 62, 58
2, 613485, Note_on_c, 0, 58, 53
2, 613485, Control_c, 0, 64, 40
2, 613501, Control_c, 0, 64, 88
2, 613509, Note_on_c, 0, 62, 0
2, 613513, Note_on_c, 0, 68, 0
2, 613517, Control_c, 0, 64, 127
2, 613557, Note_on_c, 0, 77, 0
2, 613561, Note_on_c, 0, 58, 0
2, 613657, Control_c, 0, 64, 104
2, 613673, Control_c, 0, 64, 24
2, 613681, Note_on_c, 0, 82, 85
2, 613685, Control_c, 0, 64, 0
2, 613693, Note_on_c, 0, 58, 51
2, 613693, Note_on_c, 0, 70, 57
2, 613697, Note_on_c, 0, 76, 68
2, 613709, Note_on_c, 0, 61, 32
2, 613717, Control_c, 0, 64, 40
2, 613729, Note_on_c, 0, 76, 0
2, 613729, Note_on_c, 0, 55, 26
2, 613733, Control_c, 0, 64, 88
2, 613741, Note_on_c, 0, 58, 0
2, 613741, Note_on_c, 0, 61, 0
2, 613749, Control_c, 0, 64, 127
2, 613753, Note_on_c, 0, 55, 0
2, 613753, Note_on_c, 0, 70, 0
2, 613873, Note_on_c, 0, 46, 67
2, 613873, Control_c, 0, 64, 40
2, 613889, Control_c, 0, 64, 0
2, 613905, Note_on_c, 0, 46, 0
2, 613933, Control_c, 0, 64, 56
2, 613949, Control_c, 0, 64, 104
2, 613965, Control_c, 0, 64, 127
2, 613989, Note_on_c, 0, 82, 0
2, 614057, Control_c, 0, 64, 104
2, 614073, Control_c, 0, 64, 40
2, 614081, Note_on_c, 0, 77, 89
2, 614089, Note_on_c, 0, 68, 53
2, 614089, Control_c, 0, 64, 24
2, 614101, Note_on_c, 0, 58, 44
2, 614105, Control_c, 0, 64, 40
2, 614109, Note_on_c, 0, 62, 53
2, 614121, Control_c, 0, 64, 72
2, 614137, Note_on_c, 0, 68, 0
2, 614137, Control_c, 0, 64, 127
2, 614149, Note_on_c, 0, 62, 0
2, 614189, Note_on_c, 0, 58, 0
2, 614213, Note_on_c, 0, 77, 0
2, 614305, Control_c, 0, 64, 56
2, 614313, Note_on_c, 0, 82, 73
2, 614321, Control_c, 0, 64, 0
2, 614325, Note_on_c, 0, 70, 51
2, 614333, Note_on_c, 0, 61, 43
2, 614341, Note_on_c, 0, 55, 52
2, 614341, Note_on_c, 0, 58, 34
2, 614341, Note_on_c, 0, 76, 58
2, 614369, Note_on_c, 0, 55, 0
2, 614369, Control_c, 0, 64, 72
2, 614373, Note_on_c, 0, 58, 0
2, 614373, Note_on_c, 0, 76, 0
2, 614377, Note_on_c, 0, 61, 0
2, 614385, Control_c, 0, 64, 127
2, 614393, Note_on_c, 0, 70, 0
2, 614441, Note_on_c, 0, 82, 0
2, 614533, Note_on_c, 0, 46, 71
2, 614537, Control_c, 0, 64, 56
2, 614553, Control_c, 0, 64, 0
2, 614569, Control_c, 0, 64, 24
2, 614585, Note_on_c, 0, 46, 0
2, 614585, Control_c, 0, 64, 56
2, 614601, Control_c, 0, 64, 104
2, 614617, Control_c, 0, 64, 127
2, 614753, Note_on_c, 0, 77, 82
2, 614757, Control_c, 0, 64, 72
2, 614761, Note_on_c, 0, 68, 46
2, 614765, Note_on_c, 0, 58, 42
2, 614773, Note_on_c, 0, 62, 52
2, 614773, Control_c, 0, 64, 24
2, 614785, Control_c, 0, 64, 40
2, 614801, Note_on_c, 0, 68, 0
2, 614801, Control_c, 0, 64, 72
2, 614813, Note_on_c, 0, 62, 0
2, 614817, Control_c, 0, 64, 127
2, 614829, Note_on_c, 0, 58, 0
2, 614841, Note_on_c, 0, 77, 0
2, 614941, Note_on_c, 0, 68, 57
2, 614949, Note_on_c, 0, 77, 76
2, 614957, Control_c, 0, 64, 104
2, 614973, Control_c, 0, 64, 40
2, 614985, Note_on_c, 0, 58, 46
2, 614989, Control_c, 0, 64, 0
2, 614993, Note_on_c, 0, 62, 55
2, 615021, Note_on_c, 0, 79, 85
2, 615025, Note_on_c, 0, 62, 0
2, 615045, Note_on_c, 0, 58, 0
2, 615049, Note_on_c, 0, 77, 0
2, 615049, Control_c, 0, 64, 72
2, 615053, Note_on_c, 0, 68, 0
2, 615065, Control_c, 0, 64, 127
2, 615101, Note_on_c, 0, 79, 0
2, 615233, Note_on_c, 0, 46, 62
2, 615293, Note_on_c, 0, 46, 0
2, 615505, Note_on_c, 0, 80, 82
2, 615513, Note_on_c, 0, 58, 43
2, 615517, Note_on_c, 0, 68, 59
2, 615541, Note_on_c, 0, 62, 38
2, 615569, Note_on_c, 0, 68, 0
2, 615577, Note_on_c, 0, 62, 0
2, 615585, Note_on_c, 0, 58, 0
2, 615605, Note_on_c, 0, 80, 0
2, 615821, Note_on_c, 0, 80, 70
2, 615825, Note_on_c, 0, 62, 43
2, 615833, Note_on_c, 0, 68, 39
2, 615833, Note_on_c, 0, 58, 30
2, 615933, Note_on_c, 0, 62, 0
2, 615937, Note_on_c, 0, 80, 0
2, 615957, Note_on_c, 0, 72, 70
2, 615977, Note_on_c, 0, 60, 45
2, 616057, Control_c, 0, 64, 72
2, 616073, Control_c, 0, 64, 0
2, 616165, Note_on_c, 0, 68, 0
2, 616165, Control_c, 0, 64, 56
2, 616177, Note_on_c, 0, 72, 0
2, 616181, Note_on_c, 0, 60, 0
2, 616181, Control_c, 0, 64, 127
2, 616201, Note_on_c, 0, 58, 0
2, 616613, Control_c, 0, 64, 104
2, 616629, Control_c, 0, 64, 88
2, 616645, Control_c, 0, 64, 72
2, 616661, Control_c, 0, 64, 40
2, 616677, Control_c, 0, 64, 0
2, 617857, Control_c, 0, 64, 56
2, 617869, Control_c, 0, 64, 104
2, 617881, Control_c, 0, 64, 127
2, 617897, Note_on_c, 0, 68, 73
2, 618149, Note_on_c, 0, 68, 0
2, 618177, Note_on_c, 0, 72, 67
2, 618201, Note_on_c, 0, 72, 0
2, 618257, Note_on_c, 0, 72, 90
2, 618277, Control_c, 0, 64, 72
2, 618289, Note_on_c, 0, 41, 61
2, 618289, Control_c, 0, 64, 0
2, 618321, Note_on_c, 0, 41, 0
2, 618329, Control_c, 0, 64, 24
2, 618341, Control_c, 0, 64, 88
2, 618357, Control_c, 0, 64, 127
2, 618569, Note_on_c, 0, 62, 47
2, 618573, Note_on_c, 0, 56, 40
2, 618577, Note_on_c, 0, 59, 40
2, 618609, Note_on_c, 0, 59, 0
2, 618609, Note_on_c, 0, 62, 0
2, 618633, Note_on_c, 0, 56, 0
2, 618705, Note_on_c, 0, 71, 83
2, 618709, Note_on_c, 0, 72, 0
2, 618853, Note_on_c, 0, 71, 0
2, 618869, Note_on_c, 0, 67, 87
2, 619097, Note_on_c, 0, 74, 81
2, 619145, Note_on_c, 0, 74, 0
2, 619185, Note_on_c, 0, 74, 99
2, 619193, Note_on_c, 0, 39, 58
2, 619197, Control_c, 0, 64, 24
2, 619209, Control_c, 0, 64, 0
2, 619249, Note_on_c, 0, 39, 0
2, 619277, Control_c, 0, 64, 56
2, 619293, Control_c, 0, 64, 127
2, 619477, Note_on_c, 0, 55, 56
2, 619481, Note_on_c, 0, 60, 54
2, 619505, Note_on_c, 0, 60, 0
2, 619505, Note_on_c, 0, 55, 0
2, 619565, Note_on_c, 0, 74, 0
2, 619581, Note_on_c, 0, 67, 0
2, 619613, Note_on_c, 0, 72, 88
2, 619741, Note_on_c, 0, 72, 0
2, 619777, Note_on_c, 0, 65, 87
2, 619989, Note_on_c, 0, 75, 85
2, 620033, Note_on_c, 0, 75, 0
2, 620073, Note_on_c, 0, 75, 88
2, 620081, Control_c, 0, 64, 88
2, 620093, Control_c, 0, 64, 0
2, 620101, Note_on_c, 0, 38, 57
2, 620129, Note_on_c, 0, 38, 0
2, 620173, Control_c, 0, 64, 56
2, 620185, Control_c, 0, 64, 127
2, 620353, Note_on_c, 0, 59, 57
2, 620357, Note_on_c, 0, 53, 53
2, 620365, Note_on_c, 0, 65, 0
2, 620365, Note_on_c, 0, 56, 30
2, 620381, Note_on_c, 0, 59, 0
2, 620393, Note_on_c, 0, 53, 0
2, 620393, Note_on_c, 0, 56, 0
2, 620413, Note_on_c, 0, 75, 0
2, 620485, Note_on_c, 0, 74, 86
2, 620613, Note_on_c, 0, 74, 0
2, 620645, Note_on_c, 0, 63, 91
2, 620705, Note_on_c, 0, 63, 0
2, 620853, Note_on_c, 0, 77, 89
2, 620901, Note_on_c, 0, 77, 0
2, 620917, Control_c, 0, 64, 104
2, 620933, Note_on_c, 0, 77, 102
2, 620933, Control_c, 0, 64, 0
2, 620937, Note_on_c, 0, 36, 56
2, 620961, Note_on_c, 0, 36, 0
2, 621017, Control_c, 0, 64, 104
2, 621029, Control_c, 0, 64, 127
2, 621201, Note_on_c, 0, 55, 60
2, 621201, Note_on_c, 0, 51, 60
2, 621205, Note_on_c, 0, 60, 66
2, 621229, Note_on_c, 0, 55, 0
2, 621233, Note_on_c, 0, 60, 0
2, 621237, Note_on_c, 0, 51, 0
2, 621337, Note_on_c, 0, 75, 88
2, 621349, Note_on_c, 0, 77, 0
2, 621481, Note_on_c, 0, 75, 0
2, 621493, Note_on_c, 0, 74, 94
2, 621725, Note_on_c, 0, 82, 86
2, 621725, Note_on_c, 0, 77, 65
2, 621765, Note_on_c, 0, 82, 0
2, 621769, Note_on_c, 0, 77, 0
2, 621769, Note_on_c, 0, 74, 0
2, 621801, Control_c, 0, 64, 104
2, 621809, Note_on_c, 0, 82, 93
2, 621813, Control_c, 0, 64, 0
2, 621817, Note_on_c, 0, 74, 83
2, 621825, Note_on_c, 0, 77, 74
2, 621841, Note_on_c, 0, 41, 58
2, 621849, Note_on_c, 0, 77, 0
2, 621869, Note_on_c, 0, 41, 0
2, 621897, Control_c, 0, 64, 104
2, 621909, Control_c, 0, 64, 127
2, 622073, Note_on_c, 0, 82, 0
2, 622097, Note_on_c, 0, 56, 48
2, 622101, Note_on_c, 0, 62, 57
2, 622109, Note_on_c, 0, 53, 46
2, 622137, Note_on_c, 0, 53, 0
2, 622141, Note_on_c, 0, 62, 0
2, 622189, Note_on_c, 0, 56, 0
2, 622225, Note_on_c, 0, 74, 0
2, 622229, Note_on_c, 0, 80, 91
2, 622361, Note_on_c, 0, 80, 0
2, 622385, Note_on_c, 0, 72, 94
2, 622549, Note_on_c, 0, 72, 0
2, 622593, Note_on_c, 0, 80, 91
2, 622593, Note_on_c, 0, 75, 65
2, 622637, Note_on_c, 0, 75, 0
2, 622637, Note_on_c, 0, 80, 0
2, 622681, Note_on_c, 0, 80, 87
2, 622681, Control_c, 0, 64, 104
2, 622693, Note_on_c, 0, 72, 74
2, 622693, Note_on_c, 0, 75, 73
2, 622697, Control_c, 0, 64, 0
2, 622705, Note_on_c, 0, 43, 60
2, 622741, Note_on_c, 0, 43, 0
2, 622765, Control_c, 0, 64, 56
2, 622777, Control_c, 0, 64, 127
2, 622877, Note_on_c, 0, 75, 0
2, 622881, Note_on_c, 0, 72, 0
2, 622925, Note_on_c, 0, 80, 0
2, 622981, Note_on_c, 0, 55, 59
2, 622989, Note_on_c, 0, 60, 58
2, 623037, Note_on_c, 0, 60, 0
2, 623037, Note_on_c, 0, 55, 0
2, 623121, Note_on_c, 0, 79, 87
2, 623233, Note_on_c, 0, 79, 0
2, 623281, Note_on_c, 0, 71, 89
2, 623453, Note_on_c, 0, 71, 0
2, 623501, Note_on_c, 0, 79, 89
2, 623501, Note_on_c, 0, 74, 65
2, 623545, Note_on_c, 0, 74, 0
2, 623553, Note_on_c, 0, 79, 0
2, 623589, Note_on_c, 0, 79, 96
2, 623597, Note_on_c, 0, 71, 71
2, 623605, Note_on_c, 0, 74, 73
2, 623605, Control_c, 0, 64, 56
2, 623609, Note_on_c, 0, 43, 64
2, 623617, Control_c, 0, 64, 0
2, 623629, Note_on_c, 0, 74, 0
2, 623657, Note_on_c, 0, 43, 0
2, 623685, Control_c, 0, 64, 104
2, 623701, Control_c, 0, 64, 127
2, 623813, Note_on_c, 0, 79, 0
2, 623905, Note_on_c, 0, 59, 55
2, 623913, Note_on_c, 0, 55, 47
2, 623937, Note_on_c, 0, 59, 0
2, 623949, Note_on_c, 0, 55, 0
2, 624013, Note_on_c, 0, 71, 0
2, 624045, Note_on_c, 0, 77, 81
2, 624157, Note_on_c, 0, 77, 0
2, 624217, Note_on_c, 0, 65, 81
2, 624469, Note_on_c, 0, 75, 79
2, 624469, Note_on_c, 0, 68, 60
2, 624505, Note_on_c, 0, 65, 0
2, 624521, Note_on_c, 0, 75, 0
2, 624529, Note_on_c, 0, 68, 0
2, 624569, Note_on_c, 0, 75, 72
2, 624577, Note_on_c, 0, 65, 59
2, 624577, Note_on_c, 0, 68, 59
2, 624593, Note_on_c, 0, 31, 47
2, 624593, Control_c, 0, 64, 56
2, 624605, Control_c, 0, 64, 0
2, 624617, Note_on_c, 0, 31, 0
2, 624677, Control_c, 0, 64, 72
2, 624689, Control_c, 0, 64, 127
2, 624909, Note_on_c, 0, 53, 51
2, 624909, Note_on_c, 0, 59, 44
2, 624941, Note_on_c, 0, 59, 0
2, 624941, Note_on_c, 0, 53, 0
2, 625017, Note_on_c, 0, 75, 0
2, 625037, Note_on_c, 0, 68, 0
2, 625081, Note_on_c, 0, 65, 0
2, 625097, Note_on_c, 0, 74, 70
2, 625133, Note_on_c, 0, 74, 0
2, 625353, Note_on_c, 0, 80, 89
2, 625353, Control_c, 0, 64, 56
2, 625357, Note_on_c, 0, 68, 73
2, 625365, Control_c, 0, 64, 0
2, 625405, Control_c, 0, 64, 56
2, 625421, Control_c, 0, 64, 127
2, 625449, Note_on_c, 0, 68, 0
2, 625457, Note_on_c, 0, 80, 0
2, 625685, Note_on_c, 0, 84, 93
2, 625685, Note_on_c, 0, 72, 83
2, 625721, Note_on_c, 0, 72, 0
2, 625725, Note_on_c, 0, 84, 0
2, 625773, Note_on_c, 0, 84, 90
2, 625777, Note_on_c, 0, 72, 86
2, 625785, Control_c, 0, 64, 88
2, 625801, Note_on_c, 0, 41, 66
2, 625801, Control_c, 0, 64, 0
2, 625817, Note_on_c, 0, 53, 63
2, 625837, Note_on_c, 0, 41, 0
2, 625841, Control_c, 0, 64, 72
2, 625853, Control_c, 0, 64, 127
2, 625873, Note_on_c, 0, 53, 0
2, 625965, Note_on_c, 0, 84, 0
2, 626005, Note_on_c, 0, 72, 0
2, 626073, Note_on_c, 0, 59, 54
2, 626077, Note_on_c, 0, 62, 56
2, 626081, Note_on_c, 0, 56, 36
2, 626109, Note_on_c, 0, 62, 0
2, 626117, Note_on_c, 0, 59, 0
2, 626133, Note_on_c, 0, 56, 0
2, 626213, Note_on_c, 0, 83, 93
2, 626213, Note_on_c, 0, 71, 82
2, 626269, Note_on_c, 0, 71, 0
2, 626273, Note_on_c, 0, 83, 0
2, 626397, Note_on_c, 0, 79, 96
2, 626401, Note_on_c, 0, 67, 84
2, 626441, Note_on_c, 0, 67, 0
2, 626441, Note_on_c, 0, 79, 0
2, 626657, Note_on_c, 0, 74, 82
2, 626661, Note_on_c, 0, 86, 96
2, 626681, Note_on_c, 0, 86, 0
2, 626689, Note_on_c, 0, 74, 0
2, 626733, Note_on_c, 0, 39, 65
2, 626737, Note_on_c, 0, 86, 96
2, 626741, Note_on_c, 0, 74, 90
2, 626741, Note_on_c, 0, 51, 70
2, 626749, Control_c, 0, 64, 56
2, 626761, Control_c, 0, 64, 0
2, 626781, Note_on_c, 0, 39, 0
2, 626789, Note_on_c, 0, 51, 0
2, 626801, Control_c, 0, 64, 88
2, 626817, Control_c, 0, 64, 127
2, 626929, Note_on_c, 0, 86, 0
2, 626961, Note_on_c, 0, 74, 0
2, 627017, Note_on_c, 0, 60, 64
2, 627017, Note_on_c, 0, 55, 62
2, 627045, Note_on_c, 0, 55, 0
2, 627045, Note_on_c, 0, 60, 0
2, 627129, Note_on_c, 0, 84, 87
2, 627137, Note_on_c, 0, 72, 86
2, 627181, Note_on_c, 0, 72, 0
2, 627181, Note_on_c, 0, 84, 0
2, 627289, Note_on_c, 0, 77, 100
2, 627289, Note_on_c, 0, 65, 85
2, 627309, Note_on_c, 0, 65, 0
2, 627333, Note_on_c, 0, 77, 0
2, 627497, Note_on_c, 0, 75, 85
2, 627497, Note_on_c, 0, 87, 72
2, 627517, Note_on_c, 0, 75, 0
2, 627521, Note_on_c, 0, 87, 0
2, 627561, Note_on_c, 0, 87, 88
2, 627565, Note_on_c, 0, 75, 92
2, 627585, Note_on_c, 0, 38, 68
2, 627589, Note_on_c, 0, 50, 74
2, 627589, Control_c, 0, 64, 40
2, 627605, Control_c, 0, 64, 0
2, 627609, Note_on_c, 0, 38, 0
2, 627645, Note_on_c, 0, 50, 0
2, 627645, Control_c, 0, 64, 72
2, 627657, Control_c, 0, 64, 127
2, 627705, Note_on_c, 0, 87, 0
2, 627749, Note_on_c, 0, 75, 0
2, 627829, Note_on_c, 0, 59, 71
2, 627833, Note_on_c, 0, 53, 65
2, 627837, Note_on_c, 0, 56, 54
2, 627865, Note_on_c, 0, 56, 0
2, 627869, Note_on_c, 0, 53, 0
2, 627873, Note_on_c, 0, 59, 0
2, 627969, Note_on_c, 0, 86, 96
2, 627969, Note_on_c, 0, 74, 92
2, 628009, Note_on_c, 0, 74, 0
2, 628009, Note_on_c, 0, 86, 0
2, 628133, Note_on_c, 0, 63, 89
2, 628137, Note_on_c, 0, 75, 92
2, 628161, Note_on_c, 0, 75, 0
2, 628173, Note_on_c, 0, 63, 0
2, 628385, Note_on_c, 0, 77, 97
2, 628385, Note_on_c, 0, 89, 102
2, 628429, Note_on_c, 0, 89, 0
2, 628429, Note_on_c, 0, 77, 0
2, 628453, Note_on_c, 0, 36, 69
2, 628453, Note_on_c, 0, 48, 70
2, 628469, Note_on_c, 0, 89, 103
2, 628477, Note_on_c, 0, 77, 100
2, 628485, Control_c, 0, 64, 56
2, 628497, Control_c, 0, 64, 0
2, 628509, Note_on_c, 0, 36, 0
2, 628517, Note_on_c, 0, 48, 0
2, 628541, Control_c, 0, 64, 72
2, 628553, Control_c, 0, 64, 127
2, 628681, Note_on_c, 0, 89, 0
2, 628729, Note_on_c, 0, 77, 0
2, 628749, Note_on_c, 0, 60, 79
2, 628749, Note_on_c, 0, 51, 71
2, 628749, Note_on_c, 0, 55, 60
2, 628785, Note_on_c, 0, 55, 0
2, 628789, Note_on_c, 0, 51, 0
2, 628793, Note_on_c, 0, 60, 0
2, 628873, Note_on_c, 0, 87, 92
2, 628877, Note_on_c, 0, 75, 91
2, 628937, Note_on_c, 0, 75, 0
2, 628953, Note_on_c, 0, 87, 0
2, 629037, Note_on_c, 0, 74, 88
2, 629041, Note_on_c, 0, 86, 100
2, 629077, Note_on_c, 0, 74, 0
2, 629101, Note_on_c, 0, 86, 0
2, 629281, Note_on_c, 0, 94, 84
2, 629285, Note_on_c, 0, 82, 87
2, 629309, Note_on_c, 0, 94, 0
2, 629313, Note_on_c, 0, 82, 0
2, 629357, Note_on_c, 0, 82, 92
2, 629361, Note_on_c, 0, 94, 103
2, 629377, Note_on_c, 0, 41, 70
2, 629377, Note_on_c, 0, 53, 70
2, 629381, Control_c, 0, 64, 40
2, 629393, Control_c, 0, 64, 0
2, 629429, Note_on_c, 0, 41, 0
2, 629433, Note_on_c, 0, 53, 0
2, 629445, Control_c, 0, 64, 104
2, 629461, Control_c, 0, 64, 127
2, 629633, Note_on_c, 0, 94, 0
2, 629649, Note_on_c, 0, 56, 54
2, 629649, Note_on_c, 0, 53, 63
2, 629653, Note_on_c, 0, 62, 65
2, 629677, Note_on_c, 0, 53, 0
2, 629677, Note_on_c, 0, 82, 0
2, 629697, Note_on_c, 0, 62, 0
2, 629705, Note_on_c, 0, 56, 0
2, 629773, Note_on_c, 0, 92, 93
2, 629777, Note_on_c, 0, 80, 86
2, 629825, Note_on_c, 0, 80, 0
2, 629825, Note_on_c, 0, 92, 0
2, 629937, Note_on_c, 0, 72, 96
2, 629941, Note_on_c, 0, 84, 100
2, 629969, Note_on_c, 0, 72, 0
2, 629977, Note_on_c, 0, 84, 0
2, 630189, Note_on_c, 0, 80, 97
2, 630189, Note_on_c, 0, 92, 99
2, 630217, Note_on_c, 0, 92, 0
2, 630229, Note_on_c, 0, 80, 0
2, 630257, Note_on_c, 0, 43, 67
2, 630257, Note_on_c, 0, 55, 74
2, 630273, Note_on_c, 0, 92, 105
2, 630273, Note_on_c, 0, 80, 85
2, 630273, Control_c, 0, 64, 40
2, 630289, Control_c, 0, 64, 0
2, 630305, Note_on_c, 0, 43, 0
2, 630321, Note_on_c, 0, 55, 0
2, 630341, Control_c, 0, 64, 104
2, 630357, Control_c, 0, 64, 127
2, 630493, Note_on_c, 0, 80, 0
2, 630521, Note_on_c, 0, 92, 0
2, 630529, Note_on_c, 0, 55, 64
2, 630533, Note_on_c, 0, 60, 69
2, 630533, Note_on_c, 0, 51, 53
2, 630565, Note_on_c, 0, 51, 0
2, 630565, Note_on_c, 0, 60, 0
2, 630573, Note_on_c, 0, 55, 0
2, 630665, Note_on_c, 0, 91, 89
2, 630669, Note_on_c, 0, 79, 82
2, 630709, Note_on_c, 0, 91, 0
2, 630717, Note_on_c, 0, 79, 0
2, 630829, Note_on_c, 0, 83, 93
2, 630837, Note_on_c, 0, 71, 72
2, 630857, Note_on_c, 0, 71, 0
2, 630881, Note_on_c, 0, 83, 0
2, 631085, Note_on_c, 0, 87, 89
2, 631089, Note_on_c, 0, 75, 84
2, 631129, Note_on_c, 0, 75, 0
2, 631133, Note_on_c, 0, 87, 0
2, 631189, Note_on_c, 0, 87, 78
2, 631197, Note_on_c, 0, 75, 73
2, 631209, Control_c, 0, 64, 24
2, 631221, Note_on_c, 0, 31, 64
2, 631225, Control_c, 0, 64, 0
2, 631233, Note_on_c, 0, 43, 68
2, 631277, Note_on_c, 0, 31, 0
2, 631301, Note_on_c, 0, 43, 0
2, 631305, Control_c, 0, 64, 127
2, 631433, Note_on_c, 0, 75, 0
2, 631449, Note_on_c, 0, 87, 0
2, 631509, Note_on_c, 0, 62, 59
2, 631509, Note_on_c, 0, 53, 47
2, 631517, Note_on_c, 0, 59, 49
2, 631549, Note_on_c, 0, 59, 0
2, 631549, Note_on_c, 0, 53, 0
2, 631561, Note_on_c, 0, 62, 0
2, 631653, Note_on_c, 0, 86, 83
2, 631661, Note_on_c, 0, 74, 72
2, 631701, Note_on_c, 0, 86, 0
2, 631717, Note_on_c, 0, 74, 0
2, 631881, Note_on_c, 0, 67, 74
2, 631881, Note_on_c, 0, 79, 84
2, 631929, Note_on_c, 0, 67, 0
2, 631949, Note_on_c, 0, 79, 0
2, 632165, Note_on_c, 0, 86, 81
2, 632173, Note_on_c, 0, 74, 69
2, 632205, Note_on_c, 0, 74, 0
2, 632213, Note_on_c, 0, 86, 0
2, 632269, Note_on_c, 0, 86, 84
2, 632273, Note_on_c, 0, 74, 71
2, 632281, Control_c, 0, 64, 104
2, 632289, Note_on_c, 0, 36, 49
2, 632293, Control_c, 0, 64, 0
2, 632297, Note_on_c, 0, 48, 47
2, 632333, Note_on_c, 0, 36, 0
2, 632369, Note_on_c, 0, 48, 0
2, 632377, Control_c, 0, 64, 127
2, 632473, Note_on_c, 0, 86, 0
2, 632517, Note_on_c, 0, 74, 0
2, 632617, Note_on_c, 0, 51, 50
2, 632617, Note_on_c, 0, 60, 52
2, 632669, Note_on_c, 0, 60, 0
2, 632673, Note_on_c, 0, 51, 0
2, 632785, Note_on_c, 0, 84, 68
2, 632801, Note_on_c, 0, 72, 56
2, 632845, Note_on_c, 0, 84, 0
2, 632853, Note_on_c, 0, 72, 0
2, 633129, Note_on_c, 0, 68, 60
2, 633189, Control_c, 0, 64, 104
2, 633205, Control_c, 0, 64, 0
2, 633285, Control_c, 0, 64, 56
2, 633297, Control_c, 0, 64, 127
2, 633445, Note_on_c, 0, 72, 62
2, 633489, Note_on_c, 0, 72, 0
2, 633509, Note_on_c, 0, 68, 0
2, 633533, Note_on_c, 0, 68, 20
2, 633545, Note_on_c, 0, 72, 76
2, 633573, Note_on_c, 0, 38, 52
2, 633581, Control_c, 0, 64, 56
2, 633597, Control_c, 0, 64, 0
2, 633605, Note_on_c, 0, 38, 0
2, 633609, Control_c, 0, 64, 24
2, 633625, Control_c, 0, 64, 88
2, 633637, Control_c, 0, 64, 127
2, 633877, Note_on_c, 0, 53, 39
2, 633881, Note_on_c, 0, 50, 49
2, 633909, Note_on_c, 0, 50, 0
2, 633909, Note_on_c, 0, 53, 0
2, 633973, Note_on_c, 0, 72, 0
2, 634013, Note_on_c, 0, 68, 0
2, 634013, Note_on_c, 0, 70, 65
2, 634157, Note_on_c, 0, 70, 0
2, 634177, Note_on_c, 0, 65, 85
2, 634249, Note_on_c, 0, 65, 0
2, 634425, Note_on_c, 0, 80, 85
2, 634461, Note_on_c, 0, 80, 0
2, 634509, Note_on_c, 0, 80, 77
2, 634525, Note_on_c, 0, 39, 54
2, 634545, Control_c, 0, 64, 40
2, 634557, Control_c, 0, 64, 0
2, 634585, Control_c, 0, 64, 40
2, 634597, Note_on_c, 0, 39, 0
2, 634601, Control_c, 0, 64, 104
2, 634613, Control_c, 0, 64, 127
2, 634813, Note_on_c, 0, 53, 52
2, 634829, Note_on_c, 0, 51, 46
2, 634845, Note_on_c, 0, 53, 0
2, 634853, Note_on_c, 0, 51, 0
2, 634949, Note_on_c, 0, 72, 79
2, 634953, Note_on_c, 0, 80, 0
2, 635109, Note_on_c, 0, 72, 0
2, 635125, Note_on_c, 0, 68, 82
2, 635345, Note_on_c, 0, 72, 74
2, 635389, Note_on_c, 0, 72, 0
2, 635437, Note_on_c, 0, 72, 89
2, 635453, Control_c, 0, 64, 72
2, 635461, Note_on_c, 0, 38, 52
2, 635465, Control_c, 0, 64, 0
2, 635493, Note_on_c, 0, 38, 0
2, 635521, Control_c, 0, 64, 72
2, 635537, Control_c, 0, 64, 127
2, 635701, Note_on_c, 0, 68, 0
2, 635709, Note_on_c, 0, 50, 54
2, 635717, Note_on_c, 0, 53, 39
2, 635737, Note_on_c, 0, 50, 0
2, 635749, Note_on_c, 0, 53, 0
2, 635861, Note_on_c, 0, 72, 0
2, 635861, Note_on_c, 0, 70, 67
2, 636005, Note_on_c, 0, 65, 88
2, 636021, Note_on_c, 0, 70, 0
2, 636069, Note_on_c, 0, 65, 0
2, 636237, Note_on_c, 0, 80, 96
2, 636285, Note_on_c, 0, 80, 0
2, 636317, Note_on_c, 0, 80, 90
2, 636321, Note_on_c, 0, 39, 53
2, 636321, Control_c, 0, 64, 104
2, 636333, Control_c, 0, 64, 0
2, 636389, Note_on_c, 0, 39, 0
2, 636401, Control_c, 0, 64, 104
2, 636417, Control_c, 0, 64, 127
2, 636465, Note_on_c, 0, 80, 0
2, 636617, Note_on_c, 0, 51, 49
2, 636621, Note_on_c, 0, 53, 49
2, 636649, Note_on_c, 0, 53, 0
2, 636649, Note_on_c, 0, 51, 0
2, 636741, Note_on_c, 0, 72, 81
2, 636881, Note_on_c, 0, 72, 0
2, 636897, Note_on_c, 0, 68, 84
2, 637113, Note_on_c, 0, 72, 82
2, 637157, Note_on_c, 0, 72, 0
2, 637197, Note_on_c, 0, 72, 89
2, 637201, Control_c, 0, 64, 88
2, 637217, Control_c, 0, 64, 0
2, 637225, Note_on_c, 0, 38, 55
2, 637253, Note_on_c, 0, 38, 0
2, 637285, Control_c, 0, 64, 56
2, 637297, Control_c, 0, 64, 127
2, 637433, Note_on_c, 0, 68, 0
2, 637469, Note_on_c, 0, 50, 60
2, 637473, Note_on_c, 0, 53, 42
2, 637497, Note_on_c, 0, 50, 0
2, 637505, Note_on_c, 0, 53, 0
2, 637597, Note_on_c, 0, 72, 0
2, 637601, Note_on_c, 0, 70, 80
2, 637745, Note_on_c, 0, 70, 0
2, 637761, Note_on_c, 0, 65, 87
2, 637829, Note_on_c, 0, 65, 0
2, 637981, Note_on_c, 0, 80, 96
2, 638017, Note_on_c, 0, 80, 0
2, 638065, Note_on_c, 0, 80, 88
2, 638069, Control_c, 0, 64, 88
2, 638081, Note_on_c, 0, 37, 58
2, 638085, Control_c, 0, 64, 0
2, 638141, Note_on_c, 0, 37, 0
2, 638153, Control_c, 0, 64, 88
2, 638165, Control_c, 0, 64, 127
2, 638253, Note_on_c, 0, 80, 0
2, 638349, Note_on_c, 0, 49, 58
2, 638353, Note_on_c, 0, 52, 63
2, 638377, Note_on_c, 0, 52, 0
2, 638397, Note_on_c, 0, 49, 0
2, 638469, Note_on_c, 0, 68, 81
2, 638597, Note_on_c, 0, 68, 0
2, 638609, Note_on_c, 0, 64, 93
2, 638673, Note_on_c, 0, 64, 0
2, 638841, Note_on_c, 0, 80, 95
2, 638885, Note_on_c, 0, 80, 0
2, 638921, Note_on_c, 0, 80, 89
2, 638937, Control_c, 0, 64, 88
2, 638953, Note_on_c, 0, 36, 60
2, 638953, Control_c, 0, 64, 0
2, 638981, Note_on_c, 0, 36, 0
2, 639017, Control_c, 0, 64, 104
2, 639033, Control_c, 0, 64, 127
2, 639065, Note_on_c, 0, 80, 0
2, 639201, Note_on_c, 0, 51, 72
2, 639205, Note_on_c, 0, 48, 68
2, 639229, Note_on_c, 0, 48, 0
2, 639249, Note_on_c, 0, 51, 0
2, 639353, Note_on_c, 0, 68, 75
2, 639509, Note_on_c, 0, 68, 0
2, 639517, Note_on_c, 0, 63, 86
2, 639569, Note_on_c, 0, 63, 0
2, 639745, Note_on_c, 0, 80, 85
2, 639801, Note_on_c, 0, 80, 0
2, 639853, Note_on_c, 0, 80, 80
2, 639873, Control_c, 0, 64, 104
2, 639885, Control_c, 0, 64, 0
2, 639889, Note_on_c, 0, 35, 58
2, 639945, Note_on_c, 0, 35, 0
2, 639953, Control_c, 0, 64, 56
2, 639969, Control_c, 0, 64, 127
2, 640017, Note_on_c, 0, 80, 0
2, 640197, Note_on_c, 0, 47, 59
2, 640197, Note_on_c, 0, 50, 51
2, 640225, Note_on_c, 0, 47, 0
2, 640237, Note_on_c, 0, 50, 0
2, 640385, Note_on_c, 0, 68, 71
2, 640597, Note_on_c, 0, 62, 78
2, 640601, Note_on_c, 0, 68, 0
2, 640645, Control_c, 0, 64, 88
2, 640661, Control_c, 0, 64, 72
2, 640673, Control_c, 0, 64, 104
2, 640685, Control_c, 0, 64, 127
2, 640949, Note_on_c, 0, 72, 77
2, 641005, Note_on_c, 0, 72, 0
2, 641093, Note_on_c, 0, 72, 71
2, 641133, Control_c, 0, 64, 40
2, 641145, Note_on_c, 0, 41, 47
2, 641149, Control_c, 0, 64, 0
2, 641217, Note_on_c, 0, 41, 0
2, 641217, Control_c, 0, 64, 56
2, 641229, Control_c, 0, 64, 127
2, 641333, Note_on_c, 0, 62, 0
2, 641449, Note_on_c, 0, 56, 35
2, 641453, Note_on_c, 0, 62, 35
2, 641469, Note_on_c, 0, 59, 27
2, 641509, Note_on_c, 0, 59, 0
2, 641509, Note_on_c, 0, 62, 0
2, 641529, Note_on_c, 0, 56, 0
2, 641601, Note_on_c, 0, 72, 0
2, 641617, Note_on_c, 0, 71, 70
2, 641793, Note_on_c, 0, 71, 0
2, 641809, Note_on_c, 0, 67, 83
2, 641881, Control_c, 0, 64, 88
2, 641893, Control_c, 0, 64, 24
2, 641905, Control_c, 0, 64, 40
2, 641921, Control_c, 0, 64, 88
2, 641933, Control_c, 0, 64, 127
2, 642069, Note_on_c, 0, 74, 74
2, 642113, Note_on_c, 0, 74, 0
2, 642165, Note_on_c, 0, 74, 83
2, 642181, Note_on_c, 0, 39, 52
2, 642193, Control_c, 0, 64, 56
2, 642205, Control_c, 0, 64, 0
2, 642241, Note_on_c, 0, 39, 0
2, 642257, Control_c, 0, 64, 127
2, 642473, Note_on_c, 0, 55, 53
2, 642473, Note_on_c, 0, 60, 54
2, 642505, Note_on_c, 0, 60, 0
2, 642509, Note_on_c, 0, 55, 0
2, 642557, Note_on_c, 0, 74, 0
2, 642581, Note_on_c, 0, 67, 0
2, 642613, Note_on_c, 0, 72, 85
2, 642725, Note_on_c, 0, 72, 0
2, 642761, Note_on_c, 0, 65, 87
2, 642981, Note_on_c, 0, 75, 85
2, 643029, Note_on_c, 0, 75, 0
2, 643065, Note_on_c, 0, 75, 89
2, 643073, Control_c, 0, 64, 72
2, 643085, Control_c, 0, 64, 0
2, 643093, Note_on_c, 0, 38, 59
2, 643113, Note_on_c, 0, 38, 0
2, 643153, Control_c, 0, 64, 104
2, 643169, Control_c, 0, 64, 127
2, 643349, Note_on_c, 0, 59, 58
2, 643353, Note_on_c, 0, 53, 51
2, 643361, Note_on_c, 0, 56, 38
2, 643385, Note_on_c, 0, 56, 0
2, 643385, Note_on_c, 0, 59, 0
2, 643385, Note_on_c, 0, 53, 0
2, 643405, Note_on_c, 0, 75, 0
2, 643429, Note_on_c, 0, 65, 0
2, 643473, Note_on_c, 0, 74, 86
2, 643589, Note_on_c, 0, 74, 0
2, 643625, Note_on_c, 0, 63, 87
2, 643697, Note_on_c, 0, 63, 0
2, 643833, Note_on_c, 0, 77, 87
2, 643877, Note_on_c, 0, 77, 0
2, 643909, Note_on_c, 0, 77, 103
2, 643913, Control_c, 0, 64, 88
2, 643917, Note_on_c, 0, 36, 66
2, 643925, Control_c, 0, 64, 0
2, 643965, Note_on_c, 0, 36, 0
2, 643981, Control_c, 0, 64, 40
2, 643993, Control_c, 0, 64, 127
2, 644205, Note_on_c, 0, 60, 66
2, 644205, Note_on_c, 0, 55, 62
2, 644213, Note_on_c, 0, 51, 48
2, 644237, Note_on_c, 0, 51, 0
2, 644245, Note_on_c, 0, 55, 0
2, 644245, Note_on_c, 0, 60, 0
2, 644341, Note_on_c, 0, 75, 88
2, 644369, Note_on_c, 0, 77, 0
2, 644493, Note_on_c, 0, 75, 0
2, 644501, Note_on_c, 0, 74, 82
2, 644713, Note_on_c, 0, 82, 84
2, 644713, Note_on_c, 0, 77, 60
2, 644757, Note_on_c, 0, 77, 0
2, 644757, Note_on_c, 0, 82, 0
2, 644797, Note_on_c, 0, 82, 90
2, 644817, Note_on_c, 0, 77, 68
2, 644821, Note_on_c, 0, 74, 56
2, 644821, Control_c, 0, 64, 24
2, 644829, Note_on_c, 0, 41, 63
2, 644837, Control_c, 0, 64, 0
2, 644841, Note_on_c, 0, 74, 0
2, 644841, Note_on_c, 0, 77, 0
2, 644857, Note_on_c, 0, 41, 0
2, 644905, Control_c, 0, 64, 127
2, 645057, Note_on_c, 0, 82, 0
2, 645089, Note_on_c, 0, 53, 54
2, 645089, Note_on_c, 0, 56, 48
2, 645097, Note_on_c, 0, 62, 59
2, 645121, Note_on_c, 0, 53, 0
2, 645133, Note_on_c, 0, 62, 0
2, 645157, Note_on_c, 0, 56, 0
2, 645213, Note_on_c, 0, 74, 0
2, 645225, Note_on_c, 0, 80, 92
2, 645349, Note_on_c, 0, 80, 0
2, 645393, Note_on_c, 0, 72, 97
2, 645529, Note_on_c, 0, 72, 0
2, 645593, Note_on_c, 0, 80, 90
2, 645593, Note_on_c, 0, 75, 60
2, 645633, Note_on_c, 0, 80, 0
2, 645637, Note_on_c, 0, 75, 0
2, 645681, Note_on_c, 0, 80, 91
2, 645685, Note_on_c, 0, 43, 64
2, 645689, Note_on_c, 0, 72, 92
2, 645689, Control_c, 0, 64, 56
2, 645697, Note_on_c, 0, 75, 75
2, 645701, Control_c, 0, 64, 0
2, 645729, Note_on_c, 0, 43, 0
2, 645749, Note_on_c, 0, 72, 0
2, 645757, Control_c, 0, 64, 72
2, 645773, Control_c, 0, 64, 127
2, 645929, Note_on_c, 0, 80, 0
2, 645969, Note_on_c, 0, 55, 64
2, 645973, Note_on_c, 0, 60, 62
2, 646021, Note_on_c, 0, 60, 0
2, 646029, Note_on_c, 0, 55, 0
2, 646033, Note_on_c, 0, 75, 0
2, 646117, Note_on_c, 0, 79, 93
2, 646237, Note_on_c, 0, 79, 0
2, 646273, Note_on_c, 0, 71, 93
2, 646449, Note_on_c, 0, 71, 0
2, 646505, Note_on_c, 0, 79, 93
2, 646505, Note_on_c, 0, 74, 60
2, 646549, Note_on_c, 0, 74, 0
2, 646561, Note_on_c, 0, 79, 0
2, 646597, Note_on_c, 0, 79, 96
2, 646609, Control_c, 0, 64, 72
2, 646613, Note_on_c, 0, 71, 72
2, 646617, Note_on_c, 0, 74, 74
2, 646625, Control_c, 0, 64, 0
2, 646629, Note_on_c, 0, 43, 58
2, 646641, Note_on_c, 0, 74, 0
2, 646665, Note_on_c, 0, 43, 0
2, 646677, Control_c, 0, 64, 72
2, 646693, Control_c, 0, 64, 127
2, 646701, Note_on_c, 0, 74, 22
2, 646789, Note_on_c, 0, 79, 0
2, 646905, Note_on_c, 0, 59, 55
2, 646913, Note_on_c, 0, 55, 56
2, 646941, Note_on_c, 0, 55, 0
2, 646945, Note_on_c, 0, 59, 0
2, 647037, Note_on_c, 0, 74, 0
2, 647037, Note_on_c, 0, 71, 0
2, 647069, Note_on_c, 0, 77, 82
2, 647165, Note_on_c, 0, 77, 0
2, 647249, Note_on_c, 0, 65, 77
2, 647421, Note_on_c, 0, 65, 0
2, 647497, Note_on_c, 0, 75, 78
2, 647497, Note_on_c, 0, 68, 55
2, 647541, Note_on_c, 0, 68, 0
2, 647553, Note_on_c, 0, 75, 0
2, 647609, Note_on_c, 0, 75, 81
2, 647629, Note_on_c, 0, 65, 58
2, 647629, Note_on_c, 0, 68, 43
2, 647641, Control_c, 0, 64, 104
2, 647649, Note_on_c, 0, 31, 48
2, 647657, Note_on_c, 0, 43, 37
2, 647657, Control_c, 0, 64, 0
2, 647677, Note_on_c, 0, 31, 0
2, 647721, Control_c, 0, 64, 72
2, 647725, Note_on_c, 0, 43, 0
2, 647737, Control_c, 0, 64, 127
2, 647949, Note_on_c, 0, 68, 0
2, 647985, Note_on_c, 0, 59, 51
2, 647989, Note_on_c, 0, 53, 48
2, 648033, Note_on_c, 0, 53, 0
2, 648037, Note_on_c, 0, 59, 0
2, 648097, Note_on_c, 0, 75, 0
2, 648177, Note_on_c, 0, 74, 71
2, 648197, Note_on_c, 0, 65, 0
2, 648233, Note_on_c, 0, 74, 0
2, 648433, Note_on_c, 0, 80, 99
2, 648433, Note_on_c, 0, 68, 83
2, 648457, Control_c, 0, 64, 72
2, 648469, Control_c, 0, 64, 0
2, 648481, Control_c, 0, 64, 24
2, 648497, Control_c, 0, 64, 88
2, 648509, Control_c, 0, 64, 127
2, 648537, Note_on_c, 0, 68, 0
2, 648553, Note_on_c, 0, 80, 0
2, 648793, Note_on_c, 0, 84, 87
2, 648797, Note_on_c, 0, 72, 81
2, 648829, Note_on_c, 0, 72, 0
2, 648837, Note_on_c, 0, 84, 0
2, 648885, Note_on_c, 0, 84, 93
2, 648889, Note_on_c, 0, 72, 97
2, 648901, Control_c, 0, 64, 56
2, 648917, Note_on_c, 0, 41, 66
2, 648917, Control_c, 0, 64, 0
2, 648933, Note_on_c, 0, 53, 50
2, 648949, Note_on_c, 0, 41, 0
2, 648981, Control_c, 0, 64, 127
2, 648989, Note_on_c, 0, 53, 0
2, 649077, Note_on_c, 0, 84, 0
2, 649129, Note_on_c, 0, 72, 0
2, 649197, Note_on_c, 0, 62, 61
2, 649201, Note_on_c, 0, 56, 45
2, 649201, Note_on_c, 0, 59, 54
2, 649237, Note_on_c, 0, 62, 0
2, 649245, Note_on_c, 0, 59, 0
2, 649261, Note_on_c, 0, 56, 0
2, 649321, Note_on_c, 0, 83, 96
2, 649325, Note_on_c, 0, 71, 84
2, 649377, Note_on_c, 0, 71, 0
2, 649377, Note_on_c, 0, 83, 0
2, 649485, Note_on_c, 0, 67, 90
2, 649489, Note_on_c, 0, 79, 102
2, 649529, Note_on_c, 0, 67, 0
2, 649541, Note_on_c, 0, 79, 0
2, 649745, Note_on_c, 0, 86, 96
2, 649745, Note_on_c, 0, 74, 89
2, 649785, Note_on_c, 0, 74, 0
2, 649793, Note_on_c, 0, 86, 0
2, 649829, Note_on_c, 0, 86, 103
2, 649829, Note_on_c, 0, 74, 103
2, 649833, Note_on_c, 0, 39, 62
2, 649837, Control_c, 0, 64, 24
2, 649845, Note_on_c, 0, 51, 68
2, 649853, Control_c, 0, 64, 0
2, 649881, Note_on_c, 0, 39, 0
2, 649889, Note_on_c, 0, 51, 0
2, 649905, Control_c, 0, 64, 127
2, 649985, Note_on_c, 0, 86, 0
2, 650033, Note_on_c, 0, 74, 0
2, 650105, Note_on_c, 0, 55, 74
2, 650105, Note_on_c, 0, 60, 72
2, 650141, Note_on_c, 0, 60, 0
2, 650157, Note_on_c, 0, 55, 0
2, 650225, Note_on_c, 0, 84, 90
2, 650229, Note_on_c, 0, 72, 92
2, 650277, Note_on_c, 0, 72, 0
2, 650281, Note_on_c, 0, 84, 0
2, 650377, Note_on_c, 0, 65, 93
2, 650381, Note_on_c, 0, 77, 109
2, 650417, Note_on_c, 0, 77, 0
2, 650425, Note_on_c, 0, 65, 0
2, 650621, Note_on_c, 0, 87, 95
2, 650621, Note_on_c, 0, 75, 95
2, 650657, Note_on_c, 0, 87, 0
2, 650661, Note_on_c, 0, 75, 0
2, 650677, Control_c, 0, 64, 88
2, 650689, Note_on_c, 0, 87, 100
2, 650689, Note_on_c, 0, 75, 100
2, 650693, Control_c, 0, 64, 0
2, 650697, Note_on_c, 0, 38, 66
2, 650705, Note_on_c, 0, 50, 66
2, 650725, Note_on_c, 0, 38, 0
2, 650745, Control_c, 0, 64, 104
2, 650761, Note_on_c, 0, 50, 0
2, 650761, Control_c, 0, 64, 127
2, 650825, Note_on_c, 0, 87, 0
2, 650849, Note_on_c, 0, 86, 42
2, 650881, Note_on_c, 0, 86, 0
2, 650885, Note_on_c, 0, 75, 0
2, 650949, Note_on_c, 0, 59, 75
2, 650953, Note_on_c, 0, 53, 68
2, 650953, Note_on_c, 0, 56, 60
2, 650997, Note_on_c, 0, 59, 0
2, 651001, Note_on_c, 0, 56, 0
2, 651009, Note_on_c, 0, 53, 0
2, 651081, Note_on_c, 0, 74, 92
2, 651081, Note_on_c, 0, 86, 93
2, 651121, Note_on_c, 0, 86, 0
2, 651125, Note_on_c, 0, 74, 0
2, 651233, Note_on_c, 0, 63, 93
2, 651233, Note_on_c, 0, 75, 97
2, 651273, Note_on_c, 0, 75, 0
2, 651273, Note_on_c, 0, 63, 0
2, 651461, Note_on_c, 0, 89, 107
2, 651461, Note_on_c, 0, 77, 103
2, 651493, Note_on_c, 0, 89, 0
2, 651501, Note_on_c, 0, 77, 0
2, 651537, Note_on_c, 0, 89, 84
2, 651541, Note_on_c, 0, 77, 93
2, 651545, Control_c, 0, 64, 88
2, 651553, Note_on_c, 0, 36, 60
2, 651553, Note_on_c, 0, 48, 79
2, 651557, Control_c, 0, 64, 0
2, 651573, Note_on_c, 0, 36, 0
2, 651601, Note_on_c, 0, 48, 0
2, 651601, Control_c, 0, 64, 72
2, 651613, Control_c, 0, 64, 127
2, 651669, Note_on_c, 0, 89, 0
2, 651741, Note_on_c, 0, 77, 0
2, 651817, Note_on_c, 0, 60, 82
2, 651821, Note_on_c, 0, 55, 72
2, 651821, Note_on_c, 0, 51, 65
2, 651865, Note_on_c, 0, 60, 0
2, 651869, Note_on_c, 0, 51, 0
2, 651873, Note_on_c, 0, 55, 0
2, 651961, Note_on_c, 0, 87, 95
2, 651961, Note_on_c, 0, 75, 95
2, 652021, Note_on_c, 0, 75, 0
2, 652061, Note_on_c, 0, 87, 0
2, 652153, Note_on_c, 0, 74, 93
2, 652153, Note_on_c, 0, 86, 99
2, 652205, Note_on_c, 0, 74, 0
2, 652229, Note_on_c, 0, 86, 0
2, 652421, Note_on_c, 0, 94, 99
2, 652421, Note_on_c, 0, 82, 97
2, 652453, Note_on_c, 0, 94, 0
2, 652457, Note_on_c, 0, 82, 0
2, 652509, Note_on_c, 0, 94, 93
2, 652509, Note_on_c, 0, 82, 86
2, 652509, Control_c, 0, 64, 24
2, 652513, Note_on_c, 0, 41, 60
2, 652525, Note_on_c, 0, 53, 66
2, 652525, Control_c, 0, 64, 0
2, 652541, Note_on_c, 0, 41, 0
2, 652577, Note_on_c, 0, 53, 0
2, 652577, Control_c, 0, 64, 56
2, 652589, Control_c, 0, 64, 127
2, 652721, Note_on_c, 0, 94, 0
2, 652761, Note_on_c, 0, 82, 0
2, 652781, Note_on_c, 0, 53, 64
2, 652781, Note_on_c, 0, 56, 58
2, 652785, Note_on_c, 0, 62, 70
2, 652821, Note_on_c, 0, 53, 0
2, 652825, Note_on_c, 0, 62, 0
2, 652849, Note_on_c, 0, 56, 0
2, 652909, Note_on_c, 0, 92, 95
2, 652913, Note_on_c, 0, 80, 88
2, 652961, Note_on_c, 0, 80, 0
2, 652961, Note_on_c, 0, 92, 0
2, 653065, Note_on_c, 0, 84, 99
2, 653065, Note_on_c, 0, 72, 96
2, 653097, Note_on_c, 0, 72, 0
2, 653105, Note_on_c, 0, 84, 0
2, 653265, Note_on_c, 0, 92, 88
2, 653269, Note_on_c, 0, 80, 79
2, 653293, Note_on_c, 0, 80, 0
2, 653293, Note_on_c, 0, 92, 0
2, 653341, Note_on_c, 0, 92, 98
2, 653341, Note_on_c, 0, 80, 90
2, 653361, Note_on_c, 0, 43, 70
2, 653365, Control_c, 0, 64, 104
2, 653369, Note_on_c, 0, 55, 62
2, 653377, Control_c, 0, 64, 0
2, 653389, Note_on_c, 0, 43, 0
2, 653425, Note_on_c, 0, 55, 0
2, 653445, Control_c, 0, 64, 127
2, 653545, Note_on_c, 0, 80, 0
2, 653565, Note_on_c, 0, 92, 0
2, 653629, Note_on_c, 0, 60, 75
2, 653629, Note_on_c, 0, 55, 66
2, 653629, Note_on_c, 0, 51, 61
2, 653677, Note_on_c, 0, 55, 0
2, 653677, Note_on_c, 0, 60, 0
2, 653681, Note_on_c, 0, 51, 0
2, 653749, Note_on_c, 0, 79, 85
2, 653749, Note_on_c, 0, 91, 93
2, 653793, Note_on_c, 0, 91, 0
2, 653801, Note_on_c, 0, 79, 0
2, 653917, Note_on_c, 0, 83, 97
2, 653917, Note_on_c, 0, 71, 87
2, 653949, Note_on_c, 0, 71, 0
2, 653961, Note_on_c, 0, 83, 0
2, 654177, Note_on_c, 0, 75, 91
2, 654177, Note_on_c, 0, 87, 93
2, 654213, Note_on_c, 0, 87, 0
2, 654217, Note_on_c, 0, 75, 0
2, 654273, Note_on_c, 0, 87, 89
2, 654273, Note_on_c, 0, 75, 84
2, 654301, Control_c, 0, 64, 24
2, 654305, Note_on_c, 0, 31, 51
2, 654309, Note_on_c, 0, 43, 63
2, 654313, Control_c, 0, 64, 0
2, 654329, Note_on_c, 0, 31, 0
2, 654365, Note_on_c, 0, 43, 0
2, 654381, Control_c, 0, 64, 127
2, 654517, Note_on_c, 0, 75, 0
2, 654541, Note_on_c, 0, 87, 0
2, 654597, Note_on_c, 0, 53, 63
2, 654601, Note_on_c, 0, 62, 66
2, 654613, Note_on_c, 0, 59, 57
2, 654637, Note_on_c, 0, 59, 0
2, 654637, Note_on_c, 0, 53, 0
2, 654657, Note_on_c, 0, 62, 0
2, 654729, Note_on_c, 0, 86, 88
2, 654737, Note_on_c, 0, 74, 83
2, 654793, Note_on_c, 0, 74, 0
2, 654793, Note_on_c, 0, 86, 0
2, 654925, Note_on_c, 0, 79, 90
2, 654925, Note_on_c, 0, 67, 79
2, 654957, Note_on_c, 0, 67, 0
2, 654973, Note_on_c, 0, 79, 0
2, 655193, Note_on_c, 0, 86, 88
2, 655201, Note_on_c, 0, 74, 83
2, 655233, Note_on_c, 0, 74, 0
2, 655245, Note_on_c, 0, 86, 0
2, 655285, Note_on_c, 0, 86, 92
2, 655289, Note_on_c, 0, 74, 76
2, 655301, Control_c, 0, 64, 104
2, 655309, Note_on_c, 0, 36, 59
2, 655317, Note_on_c, 0, 48, 63
2, 655317, Control_c, 0, 64, 0
2, 655333, Note_on_c, 0, 36, 0
2, 655377, Note_on_c, 0, 48, 0
2, 655385, Control_c, 0, 64, 56
2, 655397, Control_c, 0, 64, 127
2, 655497, Note_on_c, 0, 86, 0
2, 655561, Note_on_c, 0, 74, 0
2, 655629, Note_on_c, 0, 55, 50
2, 655629, Note_on_c, 0, 60, 51
2, 655641, Note_on_c, 0, 51, 36
2, 655693, Note_on_c, 0, 55, 0
2, 655697, Note_on_c, 0, 51, 0
2, 655697, Note_on_c, 0, 60, 0
2, 655821, Note_on_c, 0, 84, 70
2, 655837, Note_on_c, 0, 72, 56
2, 655877, Note_on_c, 0, 84, 0
2, 655913, Note_on_c, 0, 72, 0
2, 656141, Note_on_c, 0, 68, 70
2, 656181, Control_c, 0, 64, 88
2, 656197, Control_c, 0, 64, 0
2, 656293, Control_c, 0, 64, 127
2, 656469, Note_on_c, 0, 72, 63
2, 656525, Note_on_c, 0, 72, 0
2, 656585, Note_on_c, 0, 72, 70
2, 656629, Note_on_c, 0, 38, 49
2, 656633, Control_c, 0, 64, 40
2, 656645, Control_c, 0, 64, 0
2, 656657, Control_c, 0, 64, 24
2, 656665, Note_on_c, 0, 38, 0
2, 656673, Control_c, 0, 64, 88
2, 656685, Control_c, 0, 64, 127
2, 656917, Note_on_c, 0, 50, 36
2, 656929, Note_on_c, 0, 53, 43
2, 656953, Note_on_c, 0, 50, 0
2, 656961, Note_on_c, 0, 53, 0
2, 657029, Note_on_c, 0, 72, 0
2, 657061, Note_on_c, 0, 70, 61
2, 657109, Note_on_c, 0, 68, 0
2, 657213, Note_on_c, 0, 70, 0
2, 657233, Note_on_c, 0, 65, 57
2, 657313, Note_on_c, 0, 65, 0
2, 657473, Note_on_c, 0, 80, 85
2, 657529, Note_on_c, 0, 80, 0
2, 657561, Note_on_c, 0, 80, 83
2, 657593, Note_on_c, 0, 39, 48
2, 657593, Control_c, 0, 64, 88
2, 657609, Control_c, 0, 64, 0
2, 657661, Note_on_c, 0, 39, 0
2, 657661, Control_c, 0, 64, 24
2, 657673, Control_c, 0, 64, 127
2, 657869, Note_on_c, 0, 53, 45
2, 657877, Note_on_c, 0, 51, 40
2, 657901, Note_on_c, 0, 51, 0
2, 657901, Note_on_c, 0, 53, 0
2, 658005, Note_on_c, 0, 72, 78
2, 658013, Note_on_c, 0, 80, 0
2, 658149, Note_on_c, 0, 72, 0
2, 658165, Note_on_c, 0, 68, 83
2, 658389, Note_on_c, 0, 72, 79
2, 658441, Note_on_c, 0, 72, 0
2, 658481, Note_on_c, 0, 72, 88
2, 658513, Control_c, 0, 64, 72
2, 658529, Control_c, 0, 64, 0
2, 658545, Note_on_c, 0, 38, 46
2, 658577, Note_on_c, 0, 38, 0
2, 658597, Control_c, 0, 64, 40
2, 658609, Control_c, 0, 64, 127
2, 658769, Note_on_c, 0, 53, 59
2, 658773, Note_on_c, 0, 50, 62
2, 658797, Note_on_c, 0, 50, 0
2, 658797, Note_on_c, 0, 53, 0
2, 658797, Note_on_c, 0, 68, 0
2, 658921, Note_on_c, 0, 72, 0
2, 658929, Note_on_c, 0, 70, 71
2, 659081, Note_on_c, 0, 65, 84
2, 659085, Note_on_c, 0, 70, 0
2, 659153, Note_on_c, 0, 65, 0
2, 659313, Note_on_c, 0, 80, 92
2, 659357, Note_on_c, 0, 80, 0
2, 659389, Note_on_c, 0, 80, 91
2, 659409, Control_c, 0, 64, 104
2, 659421, Note_on_c, 0, 39, 55
2, 659425, Control_c, 0, 64, 24
2, 659437, Control_c, 0, 64, 0
2, 659497, Note_on_c, 0, 39, 0
2, 659505, Control_c, 0, 64, 104
2, 659517, Control_c, 0, 64, 127
2, 659689, Note_on_c, 0, 53, 61
2, 659693, Note_on_c, 0, 51, 54
2, 659717, Note_on_c, 0, 51, 0
2, 659717, Note_on_c, 0, 53, 0
2, 659829, Note_on_c, 0, 72, 83
2, 659845, Note_on_c, 0, 80, 0
2, 659957, Note_on_c, 0, 72, 0
2, 659973, Note_on_c, 0, 68, 81
2, 660177, Note_on_c, 0, 72, 78
2, 660229, Note_on_c, 0, 72, 0
2, 660269, Note_on_c, 0, 72, 94
2, 660293, Note_on_c, 0, 38, 64
2, 660293, Control_c, 0, 64, 56
2, 660305, Control_c, 0, 64, 0
2, 660345, Note_on_c, 0, 38, 0
2, 660373, Control_c, 0, 64, 56
2, 660385, Control_c, 0, 64, 127
2, 660525, Note_on_c, 0, 68, 0
2, 660545, Note_on_c, 0, 50, 60
2, 660549, Note_on_c, 0, 53, 53
2, 660577, Note_on_c, 0, 53, 0
2, 660589, Note_on_c, 0, 50, 0
2, 660681, Note_on_c, 0, 72, 0
2, 660689, Note_on_c, 0, 70, 82
2, 660841, Note_on_c, 0, 70, 0
2, 660841, Note_on_c, 0, 65, 90
2, 660917, Note_on_c, 0, 65, 0
2, 661073, Note_on_c, 0, 80, 92
2, 661113, Note_on_c, 0, 80, 0
2, 661153, Note_on_c, 0, 80, 79
2, 661169, Note_on_c, 0, 37, 49
2, 661173, Control_c, 0, 64, 104
2, 661185, Control_c, 0, 64, 24
2, 661197, Control_c, 0, 64, 0
2, 661241, Note_on_c, 0, 37, 0
2, 661269, Control_c, 0, 64, 127
2, 661333, Note_on_c, 0, 80, 0
2, 661437, Note_on_c, 0, 52, 62
2, 661437, Note_on_c, 0, 49, 48
2, 661465, Note_on_c, 0, 49, 0
2, 661465, Note_on_c, 0, 52, 0
2, 661561, Note_on_c, 0, 68, 81
2, 661693, Note_on_c, 0, 68, 0
2, 661713, Note_on_c, 0, 64, 97
2, 661785, Note_on_c, 0, 64, 0
2, 661953, Note_on_c, 0, 80, 95
2, 662001, Note_on_c, 0, 80, 0
2, 662041, Note_on_c, 0, 80, 89
2, 662065, Note_on_c, 0, 36, 63
2, 662065, Control_c, 0, 64, 24
2, 662081, Control_c, 0, 64, 0
2, 662113, Note_on_c, 0, 36, 0
2, 662133, Control_c, 0, 64, 88
2, 662149, Control_c, 0, 64, 127
2, 662177, Note_on_c, 0, 80, 0
2, 662317, Note_on_c, 0, 51, 68
2, 662321, Note_on_c, 0, 48, 66
2, 662353, Note_on_c, 0, 48, 0
2, 662361, Note_on_c, 0, 51, 0
2, 662461, Note_on_c, 0, 68, 79
2, 662625, Note_on_c, 0, 68, 0
2, 662629, Note_on_c, 0, 63, 90
2, 662689, Note_on_c, 0, 63, 0
2, 662877, Note_on_c, 0, 80, 92
2, 662925, Note_on_c, 0, 80, 0
2, 662977, Note_on_c, 0, 80, 85
2, 663001, Control_c, 0, 64, 56
2, 663017, Note_on_c, 0, 35, 55
2, 663017, Control_c, 0, 64, 0
2, 663081, Note_on_c, 0, 35, 0
2, 663085, Control_c, 0, 64, 72
2, 663097, Control_c, 0, 64, 127
2, 663141, Note_on_c, 0, 80, 0
2, 663297, Note_on_c, 0, 50, 66
2, 663317, Note_on_c, 0, 47, 41
2, 663341, Note_on_c, 0, 47, 0
2, 663353, Note_on_c, 0, 50, 0
2, 663473, Note_on_c, 0, 68, 73
2, 663661, Note_on_c, 0, 62, 76
2, 663733, Control_c, 0, 64, 24
2, 663749, Control_c, 0, 64, 0
2, 663773, Control_c, 0, 64, 24
2, 663789, Control_c, 0, 64, 104
2, 663801, Control_c, 0, 64, 127
2, 663985, Note_on_c, 0, 72, 85
2, 664057, Note_on_c, 0, 72, 0
2, 664117, Note_on_c, 0, 72, 71
2, 664181, Control_c, 0, 64, 56
2, 664185, Note_on_c, 0, 41, 31
2, 664197, Control_c, 0, 64, 0
2, 664217, Note_on_c, 0, 41, 0
2, 664265, Control_c, 0, 64, 88
2, 664277, Control_c, 0, 64, 127
2, 664361, Note_on_c, 0, 62, 0
2, 664473, Note_on_c, 0, 62, 59
2, 664481, Note_on_c, 0, 56, 39
2, 664481, Note_on_c, 0, 59, 43
2, 664485, Note_on_c, 0, 68, 0
2, 664513, Note_on_c, 0, 59, 0
2, 664537, Note_on_c, 0, 56, 0
2, 664537, Note_on_c, 0, 62, 0
2, 664653, Note_on_c, 0, 72, 0
2, 664657, Note_on_c, 0, 71, 80
2, 664845, Note_on_c, 0, 71, 0
2, 664849, Note_on_c, 0, 67, 83
2, 665089, Note_on_c, 0, 74, 84
2, 665137, Note_on_c, 0, 74, 0
2, 665177, Note_on_c, 0, 74, 89
2, 665197, Control_c, 0, 64, 72
2, 665209, Note_on_c, 0, 39, 56
2, 665209, Control_c, 0, 64, 0
2, 665269, Note_on_c, 0, 39, 0
2, 665281, Control_c, 0, 64, 56
2, 665293, Control_c, 0, 64, 127
2, 665485, Note_on_c, 0, 55, 52
2, 665489, Note_on_c, 0, 60, 57
2, 665517, Note_on_c, 0, 60, 0
2, 665521, Note_on_c, 0, 55, 0
2, 665593, Note_on_c, 0, 67, 0
2, 665605, Note_on_c, 0, 74, 0
2, 665605, Note_on_c, 0, 72, 86
2, 665753, Note_on_c, 0, 72, 0
2, 665761, Note_on_c, 0, 65, 88
2, 665977, Note_on_c, 0, 75, 85
2, 666025, Note_on_c, 0, 75, 0
2, 666065, Control_c, 0, 64, 104
2, 666069, Note_on_c, 0, 75, 86
2, 666081, Control_c, 0, 64, 0
2, 666097, Note_on_c, 0, 38, 56
2, 666121, Note_on_c, 0, 38, 0
2, 666161, Control_c, 0, 64, 72
2, 666173, Control_c, 0, 64, 127
2, 666337, Note_on_c, 0, 59, 67
2, 666337, Note_on_c, 0, 56, 51
2, 666341, Note_on_c, 0, 53, 53
2, 666369, Note_on_c, 0, 53, 0
2, 666373, Note_on_c, 0, 59, 0
2, 666373, Note_on_c, 0, 56, 0
2, 666381, Note_on_c, 0, 75, 0
2, 666401, Note_on_c, 0, 65, 0
2, 666469, Note_on_c, 0, 74, 87
2, 666585, Note_on_c, 0, 74, 0
2, 666625, Note_on_c, 0, 63, 91
2, 666693, Note_on_c, 0, 63, 0
2, 666837, Note_on_c, 0, 77, 93
2, 666877, Note_on_c, 0, 77, 0
2, 666917, Note_on_c, 0, 77, 102
2, 666921, Control_c, 0, 64, 72
2, 666933, Note_on_c, 0, 36, 65
2, 666933, Control_c, 0, 64, 0
2, 666965, Note_on_c, 0, 36, 0
2, 667001, Control_c, 0, 64, 72
2, 667017, Control_c, 0, 64, 127
2, 667185, Note_on_c, 0, 51, 61
2, 667189, Note_on_c, 0, 55, 63
2, 667189, Note_on_c, 0, 60, 68
2, 667221, Note_on_c, 0, 55, 0
2, 667225, Note_on_c, 0, 60, 0
2, 667229, Note_on_c, 0, 51, 0
2, 667325, Note_on_c, 0, 75, 92
2, 667337, Note_on_c, 0, 77, 0
2, 667457, Note_on_c, 0, 75, 0
2, 667477, Note_on_c, 0, 74, 97
2, 667701, Note_on_c, 0, 82, 87
2, 667701, Note_on_c, 0, 77, 70
2, 667737, Note_on_c, 0, 74, 0
2, 667741, Note_on_c, 0, 82, 0
2, 667765, Note_on_c, 0, 77, 0
2, 667773, Control_c, 0, 64, 88
2, 667785, Note_on_c, 0, 82, 92
2, 667785, Control_c, 0, 64, 0
2, 667793, Note_on_c, 0, 74, 82
2, 667801, Note_on_c, 0, 77, 84
2, 667813, Note_on_c, 0, 41, 66
2, 667853, Note_on_c, 0, 41, 0
2, 667885, Control_c, 0, 64, 127
2, 667957, Note_on_c, 0, 77, 0
2, 668037, Note_on_c, 0, 82, 0
2, 668073, Note_on_c, 0, 62, 62
2, 668073, Note_on_c, 0, 56, 49
2, 668085, Note_on_c, 0, 53, 37
2, 668105, Note_on_c, 0, 62, 0
2, 668113, Note_on_c, 0, 53, 0
2, 668137, Note_on_c, 0, 56, 0
2, 668201, Note_on_c, 0, 80, 91
2, 668265, Note_on_c, 0, 74, 0
2, 668317, Note_on_c, 0, 80, 0
2, 668361, Note_on_c, 0, 72, 94
2, 668477, Note_on_c, 0, 72, 0
2, 668569, Note_on_c, 0, 80, 82
2, 668569, Note_on_c, 0, 75, 70
2, 668605, Note_on_c, 0, 80, 0
2, 668633, Note_on_c, 0, 75, 0
2, 668641, Control_c, 0, 64, 88
2, 668645, Note_on_c, 0, 80, 99
2, 668645, Note_on_c, 0, 43, 64
2, 668657, Note_on_c, 0, 72, 93
2, 668657, Control_c, 0, 64, 0
2, 668661, Note_on_c, 0, 75, 77
2, 668673, Note_on_c, 0, 43, 0
2, 668709, Control_c, 0, 64, 72
2, 668725, Control_c, 0, 64, 127
2, 668857, Note_on_c, 0, 80, 0
2, 668921, Note_on_c, 0, 55, 66
2, 668921, Note_on_c, 0, 60, 64
2, 668961, Note_on_c, 0, 75, 0
2, 668965, Note_on_c, 0, 60, 0
2, 668973, Note_on_c, 0, 55, 0
2, 669013, Note_on_c, 0, 72, 0
2, 669057, Note_on_c, 0, 79, 93
2, 669157, Note_on_c, 0, 79, 0
2, 669213, Note_on_c, 0, 71, 90
2, 669329, Note_on_c, 0, 71, 0
2, 669421, Note_on_c, 0, 79, 88
2, 669421, Note_on_c, 0, 74, 70
2, 669465, Note_on_c, 0, 79, 0
2, 669469, Note_on_c, 0, 74, 0
2, 669505, Note_on_c, 0, 79, 96
2, 669517, Note_on_c, 0, 71, 87
2, 669521, Note_on_c, 0, 74, 84
2, 669525, Control_c, 0, 64, 24
2, 669529, Note_on_c, 0, 43, 64
2, 669537, Control_c, 0, 64, 0
2, 669553, Note_on_c, 0, 43, 0
2, 669593, Control_c, 0, 64, 72
2, 669605, Control_c, 0, 64, 127
2, 669665, Note_on_c, 0, 71, 0
2, 669669, Note_on_c, 0, 74, 0
2, 669697, Note_on_c, 0, 79, 0
2, 669793, Note_on_c, 0, 55, 64
2, 669797, Note_on_c, 0, 59, 65
2, 669833, Note_on_c, 0, 59, 0
2, 669841, Note_on_c, 0, 55, 0
2, 669929, Note_on_c, 0, 77, 84
2, 670017, Note_on_c, 0, 77, 0
2, 670101, Note_on_c, 0, 65, 88
2, 670257, Note_on_c, 0, 65, 0
2, 670349, Note_on_c, 0, 75, 88
2, 670349, Note_on_c, 0, 68, 65
2, 670397, Note_on_c, 0, 68, 0
2, 670401, Note_on_c, 0, 75, 0
2, 670457, Note_on_c, 0, 75, 86
2, 670465, Note_on_c, 0, 68, 73
2, 670469, Note_on_c, 0, 65, 76
2, 670489, Note_on_c, 0, 31, 63
2, 670501, Control_c, 0, 64, 0
2, 670549, Note_on_c, 0, 31, 0
2, 670569, Control_c, 0, 64, 56
2, 670581, Control_c, 0, 64, 127
2, 670789, Note_on_c, 0, 75, 0
2, 670809, Note_on_c, 0, 59, 67
2, 670809, Note_on_c, 0, 53, 70
2, 670861, Note_on_c, 0, 53, 0
2, 670861, Note_on_c, 0, 59, 0
2, 670913, Note_on_c, 0, 65, 0
2, 670949, Note_on_c, 0, 68, 0
2, 670985, Note_on_c, 0, 74, 92
2, 671041, Note_on_c, 0, 74, 0
2, 671253, Note_on_c, 0, 68, 90
2, 671257, Note_on_c, 0, 80, 106
2, 671257, Control_c, 0, 64, 104
2, 671273, Control_c, 0, 64, 0
2, 671305, Note_on_c, 0, 68, 0
2, 671313, Control_c, 0, 64, 56
2, 671325, Control_c, 0, 64, 127
2, 671329, Note_on_c, 0, 80, 0
2, 671597, Note_on_c, 0, 84, 94
2, 671601, Note_on_c, 0, 72, 92
2, 671633, Note_on_c, 0, 72, 0
2, 671641, Note_on_c, 0, 84, 0
2, 671685, Note_on_c, 0, 84, 105
2, 671689, Note_on_c, 0, 72, 97
2, 671693, Control_c, 0, 64, 88
2, 671705, Control_c, 0, 64, 0
2, 671741, Note_on_c, 0, 41, 72
2, 671745, Control_c, 0, 64, 72
2, 671753, Note_on_c, 0, 53, 62
2, 671761, Control_c, 0, 64, 127
2, 671785, Note_on_c, 0, 41, 0
2, 671809, Note_on_c, 0, 53, 0
2, 671873, Note_on_c, 0, 84, 0
2, 671941, Note_on_c, 0, 72, 0
2, 672005, Note_on_c, 0, 56, 54
2, 672005, Note_on_c, 0, 62, 67
2, 672009, Note_on_c, 0, 59, 59
2, 672041, Note_on_c, 0, 59, 0
2, 672053, Note_on_c, 0, 62, 0
2, 672065, Note_on_c, 0, 56, 0
2, 672125, Note_on_c, 0, 83, 92
2, 672129, Note_on_c, 0, 71, 85
2, 672181, Note_on_c, 0, 71, 0
2, 672181, Note_on_c, 0, 83, 0
2, 672277, Note_on_c, 0, 67, 94
2, 672277, Note_on_c, 0, 79, 109
2, 672309, Note_on_c, 0, 67, 0
2, 672313, Note_on_c, 0, 79, 0
2, 672465, Note_on_c, 0, 74, 94
2, 672469, Note_on_c, 0, 86, 96
2, 672493, Note_on_c, 0, 86, 0
2, 672497, Note_on_c, 0, 74, 0
2, 672549, Note_on_c, 0, 86, 103
2, 672553, Note_on_c, 0, 74, 110
2, 672561, Note_on_c, 0, 39, 65
2, 672561, Control_c, 0, 64, 24
2, 672573, Note_on_c, 0, 51, 70
2, 672573, Control_c, 0, 64, 0
2, 672605, Note_on_c, 0, 39, 0
2, 672617, Note_on_c, 0, 51, 0
2, 672617, Control_c, 0, 64, 104
2, 672629, Control_c, 0, 64, 127
2, 672749, Note_on_c, 0, 74, 0
2, 672749, Note_on_c, 0, 86, 0
2, 672821, Note_on_c, 0, 55, 74
2, 672825, Note_on_c, 0, 60, 74
2, 672853, Note_on_c, 0, 60, 0
2, 672865, Note_on_c, 0, 55, 0
2, 672941, Note_on_c, 0, 84, 92
2, 672945, Note_on_c, 0, 72, 89
2, 672985, Note_on_c, 0, 84, 0
2, 672989, Note_on_c, 0, 72, 0
2, 673089, Note_on_c, 0, 65, 93
2, 673093, Note_on_c, 0, 77, 107
2, 673125, Note_on_c, 0, 65, 0
2, 673133, Note_on_c, 0, 77, 0
2, 673305, Note_on_c, 0, 75, 90
2, 673309, Note_on_c, 0, 87, 78
2, 673329, Note_on_c, 0, 87, 0
2, 673329, Note_on_c, 0, 75, 0
2, 673373, Control_c, 0, 64, 104
2, 673377, Note_on_c, 0, 75, 103
2, 673377, Note_on_c, 0, 87, 18
2, 673385, Control_c, 0, 64, 0
2, 673401, Note_on_c, 0, 38, 69
2, 673409, Note_on_c, 0, 50, 76
2, 673425, Note_on_c, 0, 38, 0
2, 673457, Note_on_c, 0, 50, 0
2, 673457, Control_c, 0, 64, 127
2, 673553, Note_on_c, 0, 75, 0
2, 673569, Note_on_c, 0, 87, 0
2, 673633, Note_on_c, 0, 59, 76
2, 673641, Note_on_c, 0, 53, 67
2, 673641, Note_on_c, 0, 56, 51
2, 673665, Note_on_c, 0, 56, 0
2, 673673, Note_on_c, 0, 53, 0
2, 673681, Note_on_c, 0, 59, 0
2, 673749, Note_on_c, 0, 86, 96
2, 673749, Note_on_c, 0, 74, 92
2, 673789, Note_on_c, 0, 74, 0
2, 673797, Note_on_c, 0, 86, 0
2, 673893, Note_on_c, 0, 63, 96
2, 673897, Note_on_c, 0, 75, 102
2, 673925, Note_on_c, 0, 63, 0
2, 673937, Note_on_c, 0, 75, 0
2, 674081, Note_on_c, 0, 77, 93
2, 674085, Note_on_c, 0, 89, 92
2, 674105, Note_on_c, 0, 77, 0
2, 674109, Note_on_c, 0, 89, 0
2, 674157, Note_on_c, 0, 89, 82
2, 674161, Note_on_c, 0, 77, 109
2, 674173, Note_on_c, 0, 36, 67
2, 674173, Control_c, 0, 64, 72
2, 674185, Note_on_c, 0, 48, 78
2, 674189, Control_c, 0, 64, 0
2, 674197, Note_on_c, 0, 36, 0
2, 674229, Note_on_c, 0, 48, 0
2, 674241, Control_c, 0, 64, 127
2, 674321, Note_on_c, 0, 89, 0
2, 674381, Note_on_c, 0, 77, 0
2, 674429, Note_on_c, 0, 51, 67
2, 674433, Note_on_c, 0, 55, 70
2, 674437, Note_on_c, 0, 60, 82
2, 674469, Note_on_c, 0, 51, 0
2, 674473, Note_on_c, 0, 60, 0
2, 674485, Note_on_c, 0, 55, 0
2, 674557, Note_on_c, 0, 87, 92
2, 674557, Note_on_c, 0, 75, 97
2, 674621, Note_on_c, 0, 75, 0
2, 674633, Note_on_c, 0, 87, 0
2, 674713, Note_on_c, 0, 74, 90
2, 674713, Note_on_c, 0, 86, 102
2, 674749, Note_on_c, 0, 74, 0
2, 674773, Note_on_c, 0, 86, 0
2, 674937, Note_on_c, 0, 94, 78
2, 674941, Note_on_c, 0, 82, 89
2, 674961, Note_on_c, 0, 94, 0
2, 674969, Note_on_c, 0, 82, 0
2, 675025, Note_on_c, 0, 94, 103
2, 675029, Note_on_c, 0, 82, 99
2, 675041, Control_c, 0, 64, 88
2, 675049, Note_on_c, 0, 41, 69
2, 675057, Control_c, 0, 64, 0
2, 675061, Note_on_c, 0, 53, 74
2, 675085, Note_on_c, 0, 41, 0
2, 675109, Note_on_c, 0, 53, 0
2, 675125, Control_c, 0, 64, 127
2, 675229, Note_on_c, 0, 94, 0
2, 675293, Note_on_c, 0, 82, 0
2, 675313, Note_on_c, 0, 62, 71
2, 675317, Note_on_c, 0, 56, 62
2, 675321, Note_on_c, 0, 53, 59
2, 675353, Note_on_c, 0, 53, 0
2, 675369, Note_on_c, 0, 62, 0
2, 675381, Note_on_c, 0, 56, 0
2, 675445, Note_on_c, 0, 92, 97
2, 675449, Note_on_c, 0, 80, 92
2, 675489, Note_on_c, 0, 92, 0
2, 675493, Note_on_c, 0, 80, 0
2, 675597, Note_on_c, 0, 72, 97
2, 675597, Note_on_c, 0, 84, 102
2, 675621, Note_on_c, 0, 72, 0
2, 675641, Note_on_c, 0, 84, 0
2, 675805, Note_on_c, 0, 80, 99
2, 675809, Note_on_c, 0, 92, 97
2, 675841, Note_on_c, 0, 92, 0
2, 675841, Note_on_c, 0, 80, 0
2, 675893, Note_on_c, 0, 92, 95
2, 675897, Note_on_c, 0, 80, 99
2, 675909, Control_c, 0, 64, 88
2, 675913, Note_on_c, 0, 43, 72
2, 675925, Note_on_c, 0, 55, 66
2, 675925, Control_c, 0, 64, 0
2, 675953, Note_on_c, 0, 43, 0
2, 675985, Note_on_c, 0, 55, 0
2, 675989, Control_c, 0, 64, 104
2, 676005, Control_c, 0, 64, 127
2, 676141, Note_on_c, 0, 80, 0
2, 676161, Note_on_c, 0, 92, 0
2, 676189, Note_on_c, 0, 55, 72
2, 676193, Note_on_c, 0, 60, 80
2, 676197, Note_on_c, 0, 51, 64
2, 676241, Note_on_c, 0, 60, 0
2, 676245, Note_on_c, 0, 51, 0
2, 676253, Note_on_c, 0, 55, 0
2, 676337, Note_on_c, 0, 91, 94
2, 676337, Note_on_c, 0, 79, 88
2, 676389, Note_on_c, 0, 91, 0
2, 676393, Note_on_c, 0, 79, 0
2, 676517, Note_on_c, 0, 83, 97
2, 676521, Note_on_c, 0, 71, 88
2, 676553, Note_on_c, 0, 83, 0
2, 676557, Note_on_c, 0, 71, 0
2, 676801, Note_on_c, 0, 87, 91
2, 676801, Note_on_c, 0, 75, 93
2, 676841, Note_on_c, 0, 75, 0
2, 676845, Note_on_c, 0, 87, 0
2, 676905, Note_on_c, 0, 87, 92
2, 676913, Note_on_c, 0, 75, 96
2, 676929, Note_on_c, 0, 31, 70
2, 676941, Note_on_c, 0, 43, 73
2, 676941, Control_c, 0, 64, 0
2, 676957, Note_on_c, 0, 31, 0
2, 676989, Note_on_c, 0, 43, 0
2, 677021, Control_c, 0, 64, 127
2, 677237, Note_on_c, 0, 75, 0
2, 677261, Note_on_c, 0, 53, 69
2, 677269, Note_on_c, 0, 87, 0
2, 677269, Note_on_c, 0, 62, 72
2, 677269, Note_on_c, 0, 59, 66
2, 677317, Note_on_c, 0, 59, 0
2, 677317, Note_on_c, 0, 53, 0
2, 677321, Note_on_c, 0, 62, 0
2, 677433, Note_on_c, 0, 86, 87
2, 677437, Note_on_c, 0, 74, 85
2, 677493, Note_on_c, 0, 86, 0
2, 677497, Note_on_c, 0, 74, 0
2, 677661, Note_on_c, 0, 67, 86
2, 677665, Note_on_c, 0, 79, 92
2, 677713, Note_on_c, 0, 67, 0
2, 677741, Note_on_c, 0, 79, 0
2, 677989, Note_on_c, 0, 86, 88
2, 677993, Note_on_c, 0, 74, 84
2, 678033, Note_on_c, 0, 86, 0
2, 678037, Note_on_c, 0, 74, 0
2, 678101, Note_on_c, 0, 86, 93
2, 678105, Note_on_c, 0, 74, 88
2, 678149, Note_on_c, 0, 36, 70
2, 678153, Note_on_c, 0, 48, 77
2, 678173, Control_c, 0, 64, 56
2, 678189, Control_c, 0, 64, 0
2, 678241, Note_on_c, 0, 36, 0
2, 678257, Control_c, 0, 64, 72
2, 678269, Note_on_c, 0, 48, 0
2, 678269, Control_c, 0, 64, 127
2, 678557, Note_on_c, 0, 51, 65
2, 678557, Note_on_c, 0, 60, 80
2, 678605, Note_on_c, 0, 51, 0
2, 678613, Note_on_c, 0, 60, 0
2, 678645, Note_on_c, 0, 86, 0
2, 678669, Note_on_c, 0, 74, 0
2, 678821, Note_on_c, 0, 84, 83
2, 678833, Note_on_c, 0, 72, 79
2, 678881, Note_on_c, 0, 72, 0
2, 678897, Note_on_c, 0, 84, 0
2, 679409, Control_c, 0, 64, 104
2, 679421, Control_c, 0, 64, 72
2, 679433, Control_c, 0, 64, 40
2, 679449, Control_c, 0, 64, 0
2, 680833, Control_c, 0, 64, 24
2, 680849, Control_c, 0, 64, 56
2, 680865, Control_c, 0, 64, 88
2, 680881, Control_c, 0, 64, 104
2, 680893, Control_c, 0, 64, 127
2, 681113, Note_on_c, 0, 44, 39
2, 681361, Note_on_c, 0, 44, 0
2, 681377, Note_on_c, 0, 51, 56
2, 681521, Note_on_c, 0, 51, 0
2, 681561, Note_on_c, 0, 56, 53
2, 681737, Note_on_c, 0, 56, 0
2, 681753, Note_on_c, 0, 60, 63
2, 681885, Note_on_c, 0, 60, 0
2, 681949, Note_on_c, 0, 63, 62
2, 682085, Note_on_c, 0, 63, 0
2, 682133, Note_on_c, 0, 68, 60
2, 682305, Note_on_c, 0, 68, 0
2, 682337, Note_on_c, 0, 72, 65
2, 682509, Note_on_c, 0, 72, 0
2, 682509, Note_on_c, 0, 68, 49
2, 682717, Note_on_c, 0, 63, 48
2, 682717, Note_on_c, 0, 75, 84
2, 682737, Note_on_c, 0, 68, 0
2, 682817, Note_on_c, 0, 63, 0
2, 682961, Note_on_c, 0, 60, 45
2, 683077, Note_on_c, 0, 60, 0
2, 683149, Note_on_c, 0, 56, 42
2, 683165, Note_on_c, 0, 75, 0
2, 683405, Note_on_c, 0, 75, 75
2, 683425, Note_on_c, 0, 56, 0
2, 683437, Note_on_c, 0, 51, 47
2, 683493, Note_on_c, 0, 51, 0
2, 683541, Note_on_c, 0, 75, 0
2, 683765, Note_on_c, 0, 75, 69
2, 683801, Note_on_c, 0, 42, 57
2, 683821, Control_c, 0, 64, 104
2, 683837, Control_c, 0, 64, 0
2, 683945, Control_c, 0, 64, 88
2, 683961, Control_c, 0, 64, 127
2, 683981, Note_on_c, 0, 51, 48
2, 684013, Note_on_c, 0, 42, 0
2, 684177, Note_on_c, 0, 54, 53
2, 684185, Note_on_c, 0, 51, 0
2, 684229, Note_on_c, 0, 54, 0
2, 684325, Note_on_c, 0, 75, 0
2, 684337, Note_on_c, 0, 77, 79
2, 684361, Note_on_c, 0, 58, 44
2, 684541, Note_on_c, 0, 58, 0
2, 684553, Note_on_c, 0, 63, 48
2, 684561, Note_on_c, 0, 75, 76
2, 684565, Note_on_c, 0, 77, 0
2, 684677, Note_on_c, 0, 63, 0
2, 684749, Note_on_c, 0, 66, 46
2, 684913, Note_on_c, 0, 66, 0
2, 684929, Note_on_c, 0, 70, 50
2, 685077, Note_on_c, 0, 75, 0
2, 685121, Note_on_c, 0, 66, 43
2, 685133, Note_on_c, 0, 70, 0
2, 685293, Note_on_c, 0, 66, 0
2, 685301, Note_on_c, 0, 75, 81
2, 685301, Note_on_c, 0, 63, 53
2, 685485, Note_on_c, 0, 58, 39
2, 685509, Note_on_c, 0, 63, 0
2, 685553, Note_on_c, 0, 58, 0
2, 685677, Note_on_c, 0, 77, 86
2, 685705, Note_on_c, 0, 54, 46
2, 685713, Note_on_c, 0, 75, 0
2, 685861, Note_on_c, 0, 54, 0
2, 685873, Note_on_c, 0, 51, 53
2, 686017, Note_on_c, 0, 77, 0
2, 686117, Note_on_c, 0, 78, 77
2, 686137, Note_on_c, 0, 51, 0
2, 686173, Note_on_c, 0, 41, 58
2, 686209, Control_c, 0, 64, 40
2, 686221, Control_c, 0, 64, 0
2, 686317, Control_c, 0, 64, 88
2, 686333, Control_c, 0, 64, 127
2, 686361, Note_on_c, 0, 51, 48
2, 686469, Note_on_c, 0, 41, 0
2, 686477, Note_on_c, 0, 78, 0
2, 686549, Note_on_c, 0, 77, 83
2, 686565, Note_on_c, 0, 51, 0
2, 686565, Note_on_c, 0, 53, 65
2, 686601, Note_on_c, 0, 53, 0
2, 686749, Note_on_c, 0, 57, 50
2, 686885, Note_on_c, 0, 57, 0
2, 686933, Note_on_c, 0, 77, 0
2, 686941, Note_on_c, 0, 75, 77
2, 686941, Note_on_c, 0, 60, 51
2, 687053, Note_on_c, 0, 60, 0
2, 687105, Note_on_c, 0, 63, 55
2, 687285, Note_on_c, 0, 63, 0
2, 687289, Note_on_c, 0, 73, 76
2, 687301, Note_on_c, 0, 75, 0
2, 687301, Note_on_c, 0, 65, 54
2, 687461, Note_on_c, 0, 65, 0
2, 687461, Note_on_c, 0, 63, 49
2, 687633, Note_on_c, 0, 63, 0
2, 687661, Note_on_c, 0, 60, 53
2, 687673, Note_on_c, 0, 75, 73
2, 687689, Note_on_c, 0, 73, 0
2, 687833, Note_on_c, 0, 60, 0
2, 687845, Note_on_c, 0, 57, 47
2, 688037, Note_on_c, 0, 72, 68
2, 688045, Note_on_c, 0, 75, 0
2, 688045, Note_on_c, 0, 53, 44
2, 688053, Note_on_c, 0, 57, 0
2, 688117, Note_on_c, 0, 53, 0
2, 688269, Note_on_c, 0, 51, 44
2, 688413, Note_on_c, 0, 51, 0
2, 688505, Note_on_c, 0, 72, 0
2, 688509, Note_on_c, 0, 73, 64
2, 688545, Note_on_c, 0, 46, 54
2, 688593, Control_c, 0, 64, 24
2, 688609, Control_c, 0, 64, 0
2, 688765, Control_c, 0, 64, 72
2, 688777, Control_c, 0, 64, 127
2, 688785, Note_on_c, 0, 46, 0
2, 688793, Note_on_c, 0, 53, 56
2, 688933, Note_on_c, 0, 53, 0
2, 688965, Note_on_c, 0, 58, 51
2, 689145, Note_on_c, 0, 61, 49
2, 689293, Note_on_c, 0, 73, 0
2, 689325, Note_on_c, 0, 65, 49
2, 689505, Note_on_c, 0, 70, 48
2, 689677, Note_on_c, 0, 73, 54
2, 689685, Note_on_c, 0, 70, 0
2, 689801, Note_on_c, 0, 65, 0
2, 689833, Note_on_c, 0, 61, 0
2, 689849, Note_on_c, 0, 73, 0
2, 689853, Note_on_c, 0, 58, 0
2, 689857, Note_on_c, 0, 70, 62
2, 690009, Note_on_c, 0, 70, 0
2, 690061, Note_on_c, 0, 77, 88
2, 690081, Note_on_c, 0, 65, 48
2, 690257, Note_on_c, 0, 61, 46
2, 690373, Note_on_c, 0, 65, 0
2, 690429, Note_on_c, 0, 61, 0
2, 690433, Note_on_c, 0, 77, 0
2, 690433, Note_on_c, 0, 58, 56
2, 690653, Note_on_c, 0, 77, 90
2, 690669, Note_on_c, 0, 53, 66
2, 690713, Note_on_c, 0, 58, 0
2, 690749, Note_on_c, 0, 53, 0
2, 690761, Note_on_c, 0, 77, 0
2, 690993, Note_on_c, 0, 77, 86
2, 691029, Note_on_c, 0, 44, 57
2, 691053, Control_c, 0, 64, 88
2, 691069, Control_c, 0, 64, 0
2, 691193, Control_c, 0, 64, 127
2, 691233, Note_on_c, 0, 53, 54
2, 691237, Note_on_c, 0, 44, 0
2, 691397, Note_on_c, 0, 53, 0
2, 691401, Note_on_c, 0, 56, 61
2, 691449, Note_on_c, 0, 56, 0
2, 691537, Note_on_c, 0, 77, 0
2, 691553, Note_on_c, 0, 79, 88
2, 691577, Note_on_c, 0, 60, 68
2, 691729, Note_on_c, 0, 60, 0
2, 691761, Note_on_c, 0, 65, 49
2, 691769, Note_on_c, 0, 77, 86
2, 691773, Note_on_c, 0, 79, 0
2, 691893, Note_on_c, 0, 65, 0
2, 691937, Note_on_c, 0, 68, 56
2, 692093, Note_on_c, 0, 68, 0
2, 692133, Note_on_c, 0, 72, 66
2, 692293, Note_on_c, 0, 68, 54
2, 692301, Note_on_c, 0, 72, 0
2, 692317, Note_on_c, 0, 77, 0
2, 692461, Note_on_c, 0, 68, 0
2, 692469, Note_on_c, 0, 77, 88
2, 692473, Note_on_c, 0, 65, 53
2, 692681, Note_on_c, 0, 65, 0
2, 692681, Note_on_c, 0, 60, 43
2, 692713, Note_on_c, 0, 60, 0
2, 692825, Note_on_c, 0, 77, 0
2, 692837, Note_on_c, 0, 79, 93
2, 692861, Note_on_c, 0, 56, 46
2, 693005, Note_on_c, 0, 56, 0
2, 693017, Note_on_c, 0, 53, 60
2, 693045, Note_on_c, 0, 53, 0
2, 693161, Note_on_c, 0, 79, 0
2, 693269, Note_on_c, 0, 80, 88
2, 693333, Note_on_c, 0, 41, 60
2, 693349, Control_c, 0, 64, 56
2, 693361, Control_c, 0, 64, 0
2, 693457, Control_c, 0, 64, 104
2, 693469, Control_c, 0, 64, 127
2, 693509, Note_on_c, 0, 49, 44
2, 693553, Note_on_c, 0, 41, 0
2, 693589, Note_on_c, 0, 80, 0
2, 693653, Note_on_c, 0, 49, 0
2, 693685, Note_on_c, 0, 53, 54
2, 693685, Note_on_c, 0, 79, 82
2, 693801, Note_on_c, 0, 53, 0
2, 693857, Note_on_c, 0, 56, 61
2, 694045, Note_on_c, 0, 79, 0
2, 694049, Note_on_c, 0, 77, 86
2, 694053, Note_on_c, 0, 61, 50
2, 694181, Note_on_c, 0, 56, 0
2, 694213, Note_on_c, 0, 61, 0
2, 694213, Note_on_c, 0, 65, 58
2, 694249, Note_on_c, 0, 65, 0
2, 694441, Note_on_c, 0, 75, 76
2, 694445, Note_on_c, 0, 77, 0
2, 694465, Note_on_c, 0, 43, 65
2, 694525, Control_c, 0, 64, 40
2, 694541, Control_c, 0, 64, 0
2, 694617, Control_c, 0, 64, 104
2, 694625, Note_on_c, 0, 46, 49
2, 694633, Control_c, 0, 64, 127
2, 694649, Note_on_c, 0, 43, 0
2, 694741, Note_on_c, 0, 75, 0
2, 694757, Note_on_c, 0, 79, 67
2, 694813, Note_on_c, 0, 46, 0
2, 694813, Note_on_c, 0, 77, 88
2, 694821, Note_on_c, 0, 79, 0
2, 694833, Note_on_c, 0, 51, 54
2, 694977, Note_on_c, 0, 51, 0
2, 694981, Note_on_c, 0, 55, 64
2, 695085, Note_on_c, 0, 55, 0
2, 695161, Note_on_c, 0, 77, 0
2, 695189, Note_on_c, 0, 73, 75
2, 695205, Note_on_c, 0, 58, 46
2, 695409, Note_on_c, 0, 63, 56
2, 695445, Note_on_c, 0, 63, 0
2, 695461, Note_on_c, 0, 58, 0
2, 695649, Note_on_c, 0, 73, 0
2, 695681, Note_on_c, 0, 72, 63
2, 695725, Note_on_c, 0, 44, 57
2, 695777, Control_c, 0, 64, 40
2, 695793, Control_c, 0, 64, 0
2, 695889, Control_c, 0, 64, 88
2, 695905, Control_c, 0, 64, 127
2, 695913, Note_on_c, 0, 44, 0
2, 695921, Note_on_c, 0, 51, 49
2, 695949, Note_on_c, 0, 72, 0
2, 696041, Note_on_c, 0, 51, 0
2, 696093, Note_on_c, 0, 56, 37
2, 696249, Note_on_c, 0, 56, 0
2, 696277, Note_on_c, 0, 60, 37
2, 696417, Note_on_c, 0, 60, 0
2, 696469, Note_on_c, 0, 63, 56
2, 696577, Note_on_c, 0, 63, 0
2, 696629, Note_on_c, 0, 68, 51
2, 696801, Note_on_c, 0, 68, 0
2, 696833, Note_on_c, 0, 72, 59
2, 696993, Note_on_c, 0, 72, 0
2, 697017, Note_on_c, 0, 68, 43
2, 697229, Note_on_c, 0, 75, 78
2, 697229, Note_on_c, 0, 63, 42
2, 697233, Note_on_c, 0, 68, 0
2, 697305, Note_on_c, 0, 63, 0
2, 697417, Note_on_c, 0, 60, 53
2, 697553, Note_on_c, 0, 60, 0
2, 697565, Note_on_c, 0, 75, 0
2, 697617, Note_on_c, 0, 72, 76
2, 697621, Note_on_c, 0, 56, 39
2, 697769, Note_on_c, 0, 56, 0
2, 697793, Note_on_c, 0, 51, 50
2, 697869, Note_on_c, 0, 51, 0
2, 698109, Note_on_c, 0, 72, 0
2, 698109, Note_on_c, 0, 70, 60
2, 698141, Note_on_c, 0, 43, 50
2, 698181, Control_c, 0, 64, 104
2, 698197, Control_c, 0, 64, 40
2, 698213, Control_c, 0, 64, 0
2, 698317, Note_on_c, 0, 43, 0
2, 698317, Control_c, 0, 64, 127
2, 698329, Note_on_c, 0, 49, 46
2, 698469, Note_on_c, 0, 49, 0
2, 698505, Note_on_c, 0, 52, 54
2, 698629, Note_on_c, 0, 52, 0
2, 698681, Note_on_c, 0, 57, 50
2, 698873, Note_on_c, 0, 70, 0
2, 698873, Note_on_c, 0, 69, 76
2, 698873, Note_on_c, 0, 58, 52
2, 698905, Note_on_c, 0, 57, 0
2, 699045, Note_on_c, 0, 61, 54
2, 699221, Note_on_c, 0, 61, 0
2, 699241, Note_on_c, 0, 64, 66
2, 699413, Note_on_c, 0, 61, 52
2, 699441, Note_on_c, 0, 64, 0
2, 699585, Note_on_c, 0, 61, 0
2, 699593, Note_on_c, 0, 58, 47
2, 699605, Note_on_c, 0, 70, 73
2, 699609, Note_on_c, 0, 69, 0
2, 699689, Note_on_c, 0, 58, 0
2, 699773, Note_on_c, 0, 58, 0
2, 699797, Note_on_c, 0, 55, 46
2, 699973, Note_on_c, 0, 70, 0
2, 699985, Note_on_c, 0, 72, 86
2, 699997, Note_on_c, 0, 52, 60
2, 700001, Note_on_c, 0, 55, 0
2, 700033, Note_on_c, 0, 52, 0
2, 700177, Note_on_c, 0, 49, 49
2, 700281, Note_on_c, 0, 49, 0
2, 700441, Note_on_c, 0, 72, 0
2, 700445, Note_on_c, 0, 73, 78
2, 700489, Note_on_c, 0, 42, 60
2, 700533, Control_c, 0, 64, 56
2, 700549, Control_c, 0, 64, 0
2, 700657, Control_c, 0, 64, 72
2, 700673, Control_c, 0, 64, 127
2, 700681, Note_on_c, 0, 42, 0
2, 700693, Note_on_c, 0, 49, 56
2, 700841, Note_on_c, 0, 49, 0
2, 700881, Note_on_c, 0, 52, 66
2, 700977, Note_on_c, 0, 52, 0
2, 701037, Note_on_c, 0, 54, 55
2, 701133, Note_on_c, 0, 54, 0
2, 701249, Note_on_c, 0, 58, 60
2, 701425, Note_on_c, 0, 64, 61
2, 701445, Note_on_c, 0, 58, 0
2, 701457, Note_on_c, 0, 64, 0
2, 701677, Note_on_c, 0, 41, 70
2, 701713, Control_c, 0, 64, 104
2, 701725, Control_c, 0, 64, 40
2, 701741, Control_c, 0, 64, 0
2, 701833, Control_c, 0, 64, 88
2, 701849, Control_c, 0, 64, 127
2, 701873, Note_on_c, 0, 49, 62
2, 701941, Note_on_c, 0, 41, 0
2, 702053, Note_on_c, 0, 49, 0
2, 702069, Note_on_c, 0, 77, 88
2, 702069, Note_on_c, 0, 53, 60
2, 702109, Note_on_c, 0, 73, 0
2, 702197, Note_on_c, 0, 53, 0
2, 702281, Note_on_c, 0, 58, 30
2, 702449, Note_on_c, 0, 77, 0
2, 702461, Note_on_c, 0, 73, 82
2, 702461, Note_on_c, 0, 61, 46
2, 702653, Note_on_c, 0, 65, 63
2, 702689, Note_on_c, 0, 61, 0
2, 702693, Note_on_c, 0, 65, 0
2, 702721, Note_on_c, 0, 58, 0
2, 702953, Note_on_c, 0, 72, 89
2, 702957, Note_on_c, 0, 73, 0
2, 702989, Note_on_c, 0, 40, 62
2, 703009, Control_c, 0, 64, 40
2, 703025, Control_c, 0, 64, 0
2, 703121, Control_c, 0, 64, 104
2, 703137, Control_c, 0, 64, 127
2, 703333, Note_on_c, 0, 85, 93
2, 703357, Note_on_c, 0, 48, 64
2, 703449, Note_on_c, 0, 40, 0
2, 703481, Note_on_c, 0, 85, 0
2, 703553, Note_on_c, 0, 48, 0
2, 703577, Note_on_c, 0, 52, 58
2, 703601, Note_on_c, 0, 84, 92
2, 703605, Note_on_c, 0, 52, 0
2, 703733, Note_on_c, 0, 84, 0
2, 703821, Note_on_c, 0, 83, 89
2, 703821, Note_on_c, 0, 55, 66
2, 703953, Note_on_c, 0, 83, 0
2, 703965, Note_on_c, 0, 55, 0
2, 704001, Note_on_c, 0, 58, 48
2, 704017, Note_on_c, 0, 82, 80
2, 704157, Note_on_c, 0, 72, 0
2, 704161, Note_on_c, 0, 82, 0
2, 704181, Note_on_c, 0, 79, 82
2, 704205, Note_on_c, 0, 60, 63
2, 704209, Note_on_c, 0, 58, 0
2, 704357, Note_on_c, 0, 79, 0
2, 704361, Note_on_c, 0, 60, 0
2, 704381, Note_on_c, 0, 76, 82
2, 704397, Note_on_c, 0, 64, 60
2, 704553, Note_on_c, 0, 64, 0
2, 704565, Note_on_c, 0, 76, 0
2, 704589, Note_on_c, 0, 72, 82
2, 704605, Note_on_c, 0, 67, 60
2, 704657, Note_on_c, 0, 67, 0
2, 704729, Note_on_c, 0, 72, 0
2, 704865, Note_on_c, 0, 75, 74
2, 704869, Note_on_c, 0, 63, 48
2, 704901, Control_c, 0, 64, 104
2, 704917, Control_c, 0, 64, 56
2, 704933, Control_c, 0, 64, 40
2, 704945, Control_c, 0, 64, 72
2, 704961, Control_c, 0, 64, 127
2, 705109, Note_on_c, 0, 63, 0
2, 705117, Note_on_c, 0, 75, 0
2, 705117, Note_on_c, 0, 73, 77
2, 705125, Note_on_c, 0, 61, 44
2, 705209, Note_on_c, 0, 73, 0
2, 705221, Note_on_c, 0, 61, 0
2, 705333, Note_on_c, 0, 60, 47
2, 705341, Note_on_c, 0, 72, 76
2, 705457, Note_on_c, 0, 60, 0
2, 705489, Note_on_c, 0, 72, 0
2, 705533, Note_on_c, 0, 70, 65
2, 705533, Note_on_c, 0, 58, 50
2, 705569, Note_on_c, 0, 58, 0
2, 705749, Note_on_c, 0, 70, 0
2, 705793, Note_on_c, 0, 68, 58
2, 705817, Note_on_c, 0, 41, 48
2, 705833, Control_c, 0, 64, 40
2, 705849, Control_c, 0, 64, 0
2, 705957, Control_c, 0, 64, 127
2, 706005, Note_on_c, 0, 68, 0
2, 706009, Note_on_c, 0, 48, 53
2, 706033, Note_on_c, 0, 41, 0
2, 706129, Note_on_c, 0, 48, 0
2, 706177, Note_on_c, 0, 53, 44
2, 706293, Note_on_c, 0, 53, 0
2, 706365, Note_on_c, 0, 56, 40
2, 706541, Note_on_c, 0, 56, 0
2, 706565, Note_on_c, 0, 60, 61
2, 706685, Note_on_c, 0, 60, 0
2, 706737, Note_on_c, 0, 65, 47
2, 706873, Note_on_c, 0, 65, 0
2, 706933, Note_on_c, 0, 68, 54
2, 707029, Note_on_c, 0, 68, 0
2, 707097, Note_on_c, 0, 65, 42
2, 707221, Note_on_c, 0, 65, 0
2, 707313, Note_on_c, 0, 67, 66
2, 707333, Note_on_c, 0, 60, 49
2, 707477, Note_on_c, 0, 60, 0
2, 707497, Note_on_c, 0, 56, 43
2, 707565, Note_on_c, 0, 56, 0
2, 707717, Note_on_c, 0, 53, 36
2, 707725, Note_on_c, 0, 68, 74
2, 707745, Note_on_c, 0, 67, 0
2, 707913, Note_on_c, 0, 53, 0
2, 707913, Note_on_c, 0, 48, 53
2, 708049, Note_on_c, 0, 48, 0
2, 708181, Note_on_c, 0, 68, 0
2, 708265, Note_on_c, 0, 69, 62
2, 708309, Note_on_c, 0, 40, 52
2, 708325, Control_c, 0, 64, 72
2, 708341, Control_c, 0, 64, 0
2, 708449, Control_c, 0, 64, 127
2, 708481, Note_on_c, 0, 40, 0
2, 708501, Note_on_c, 0, 45, 56
2, 708621, Note_on_c, 0, 45, 0
2, 708673, Note_on_c, 0, 49, 54
2, 708817, Note_on_c, 0, 49, 0
2, 708849, Note_on_c, 0, 55, 42
2, 708937, Note_on_c, 0, 55, 0
2, 709041, Note_on_c, 0, 57, 45
2, 709149, Note_on_c, 0, 57, 0
2, 709221, Note_on_c, 0, 61, 49
2, 709381, Note_on_c, 0, 61, 0
2, 709413, Note_on_c, 0, 67, 60
2, 709569, Note_on_c, 0, 67, 0
2, 709589, Note_on_c, 0, 61, 48
2, 709733, Note_on_c, 0, 69, 0
2, 709777, Note_on_c, 0, 68, 67
2, 709797, Note_on_c, 0, 57, 44
2, 709809, Note_on_c, 0, 61, 0
2, 709853, Note_on_c, 0, 57, 0
2, 710009, Note_on_c, 0, 55, 37
2, 710113, Note_on_c, 0, 55, 0
2, 710161, Note_on_c, 0, 68, 0
2, 710181, Note_on_c, 0, 69, 74
2, 710181, Note_on_c, 0, 49, 42
2, 710357, Note_on_c, 0, 45, 51
2, 710373, Note_on_c, 0, 49, 0
2, 710425, Note_on_c, 0, 45, 0
2, 710621, Note_on_c, 0, 69, 0
2, 710629, Note_on_c, 0, 70, 65
2, 710677, Note_on_c, 0, 39, 44
2, 710693, Control_c, 0, 64, 56
2, 710713, Control_c, 0, 64, 0
2, 710805, Control_c, 0, 64, 72
2, 710817, Control_c, 0, 64, 127
2, 710829, Note_on_c, 0, 39, 0
2, 710861, Note_on_c, 0, 46, 50
2, 710977, Note_on_c, 0, 46, 0
2, 711057, Note_on_c, 0, 51, 53
2, 711213, Note_on_c, 0, 51, 0
2, 711249, Note_on_c, 0, 56, 52
2, 711457, Note_on_c, 0, 56, 0
2, 711457, Note_on_c, 0, 58, 53
2, 711605, Note_on_c, 0, 58, 0
2, 711669, Note_on_c, 0, 61, 65
2, 711769, Note_on_c, 0, 61, 0
2, 711933, Note_on_c, 0, 70, 0
2, 711941, Note_on_c, 0, 75, 67
2, 711957, Note_on_c, 0, 68, 43
2, 712077, Note_on_c, 0, 68, 0
2, 712153, Note_on_c, 0, 67, 56
2, 712317, Note_on_c, 0, 67, 0
2, 712337, Control_c, 0, 64, 72
2, 712361, Note_on_c, 0, 63, 48
2, 712381, Control_c, 0, 64, 127
2, 712517, Note_on_c, 0, 63, 0
2, 712549, Note_on_c, 0, 59, 46
2, 712765, Note_on_c, 0, 75, 0
2, 712769, Note_on_c, 0, 59, 0
2, 712793, Note_on_c, 0, 71, 64
2, 712813, Note_on_c, 0, 55, 32
2, 712845, Note_on_c, 0, 55, 0
2, 713017, Note_on_c, 0, 51, 46
2, 713225, Note_on_c, 0, 71, 0
2, 713269, Note_on_c, 0, 51, 0
2, 713269, Note_on_c, 0, 72, 68
2, 713301, Note_on_c, 0, 44, 49
2, 713313, Control_c, 0, 64, 56
2, 713329, Control_c, 0, 64, 0
2, 713437, Control_c, 0, 64, 88
2, 713453, Control_c, 0, 64, 127
2, 713505, Note_on_c, 0, 44, 0
2, 713509, Note_on_c, 0, 51, 43
2, 713649, Note_on_c, 0, 51, 0
2, 713693, Note_on_c, 0, 56, 37
2, 713849, Note_on_c, 0, 56, 0
2, 713889, Note_on_c, 0, 60, 55
2, 714013, Note_on_c, 0, 72, 0
2, 714025, Note_on_c, 0, 60, 0
2, 714077, Note_on_c, 0, 63, 49
2, 714217, Note_on_c, 0, 63, 0
2, 714261, Note_on_c, 0, 68, 44
2, 714469, Note_on_c, 0, 68, 0
2, 714493, Note_on_c, 0, 72, 54
2, 714689, Note_on_c, 0, 68, 40
2, 714709, Note_on_c, 0, 72, 0
2, 714953, Note_on_c, 0, 75, 71
2, 714953, Note_on_c, 0, 63, 46
2, 714977, Note_on_c, 0, 68, 0
2, 715069, Note_on_c, 0, 63, 0
2, 715213, Note_on_c, 0, 60, 39
2, 715325, Note_on_c, 0, 60, 0
2, 715385, Note_on_c, 0, 75, 0
2, 715457, Note_on_c, 0, 56, 34
2, 715669, Note_on_c, 0, 56, 0
2, 715717, Note_on_c, 0, 75, 63
2, 715721, Note_on_c, 0, 51, 45
2, 715789, Note_on_c, 0, 51, 0
2, 715833, Note_on_c, 0, 75, 0
2, 716089, Note_on_c, 0, 75, 62
2, 716133, Note_on_c, 0, 42, 38
2, 716149, Control_c, 0, 64, 72
2, 716161, Control_c, 0, 64, 0
2, 716269, Control_c, 0, 64, 127
2, 716309, Note_on_c, 0, 51, 47
2, 716353, Note_on_c, 0, 42, 0
2, 716505, Note_on_c, 0, 54, 53
2, 716513, Note_on_c, 0, 51, 0
2, 716565, Note_on_c, 0, 54, 0
2, 716665, Note_on_c, 0, 75, 0
2, 716685, Note_on_c, 0, 77, 73
2, 716717, Note_on_c, 0, 58, 33
2, 716861, Note_on_c, 0, 58, 0
2, 716901, Note_on_c, 0, 77, 0
2, 716917, Note_on_c, 0, 63, 43
2, 716921, Note_on_c, 0, 75, 64
2, 717041, Note_on_c, 0, 63, 0
2, 717097, Note_on_c, 0, 66, 42
2, 717261, Note_on_c, 0, 66, 0
2, 717293, Note_on_c, 0, 70, 49
2, 717473, Note_on_c, 0, 66, 43
2, 717477, Note_on_c, 0, 75, 0
2, 717489, Note_on_c, 0, 70, 0
2, 717657, Note_on_c, 0, 66, 0
2, 717669, Note_on_c, 0, 75, 75
2, 717673, Note_on_c, 0, 63, 47
2, 717849, Note_on_c, 0, 58, 38
2, 717865, Note_on_c, 0, 63, 0
2, 717925, Note_on_c, 0, 58, 0
2, 718053, Note_on_c, 0, 77, 82
2, 718085, Note_on_c, 0, 75, 0
2, 718209, Note_on_c, 0, 54, 38
2, 718277, Note_on_c, 0, 77, 0
2, 718297, Note_on_c, 0, 54, 0
2, 718481, Note_on_c, 0, 78, 75
2, 718549, Note_on_c, 0, 41, 58
2, 718549, Control_c, 0, 64, 72
2, 718561, Control_c, 0, 64, 0
2, 718657, Control_c, 0, 64, 72
2, 718673, Control_c, 0, 64, 127
2, 718709, Note_on_c, 0, 51, 48
2, 718737, Note_on_c, 0, 78, 0
2, 718797, Note_on_c, 0, 41, 0
2, 718881, Note_on_c, 0, 51, 0
2, 718897, Note_on_c, 0, 77, 82
2, 718905, Note_on_c, 0, 53, 55
2, 718933, Note_on_c, 0, 53, 0
2, 719081, Note_on_c, 0, 57, 53
2, 719237, Note_on_c, 0, 57, 0
2, 719269, Note_on_c, 0, 77, 0
2, 719269, Note_on_c, 0, 60, 48
2, 719281, Note_on_c, 0, 75, 75
2, 719409, Note_on_c, 0, 60, 0
2, 719457, Note_on_c, 0, 63, 54
2, 719553, Note_on_c, 0, 63, 0
2, 719617, Note_on_c, 0, 75, 0
2, 719645, Note_on_c, 0, 73, 74
2, 719649, Note_on_c, 0, 65, 53
2, 719789, Note_on_c, 0, 65, 0
2, 719817, Note_on_c, 0, 63, 48
2, 720005, Note_on_c, 0, 63, 0
2, 720021, Note_on_c, 0, 73, 0
2, 720029, Note_on_c, 0, 75, 71
2, 720033, Note_on_c, 0, 60, 48
2, 720205, Note_on_c, 0, 57, 46
2, 720217, Note_on_c, 0, 60, 0
2, 720241, Note_on_c, 0, 57, 0
2, 720393, Note_on_c, 0, 72, 71
2, 720417, Note_on_c, 0, 75, 0
2, 720425, Note_on_c, 0, 53, 34
2, 720601, Note_on_c, 0, 53, 0
2, 720601, Note_on_c, 0, 51, 52
2, 720745, Note_on_c, 0, 51, 0
2, 720865, Note_on_c, 0, 73, 65
2, 720877, Note_on_c, 0, 72, 0
2, 720909, Note_on_c, 0, 46, 56
2, 720933, Control_c, 0, 64, 88
2, 720949, Control_c, 0, 64, 0
2, 721073, Control_c, 0, 64, 104
2, 721089, Control_c, 0, 64, 127
2, 721105, Note_on_c, 0, 46, 0
2, 721125, Note_on_c, 0, 53, 54
2, 721273, Note_on_c, 0, 53, 0
2, 721297, Note_on_c, 0, 58, 52
2, 721477, Note_on_c, 0, 61, 49
2, 721653, Note_on_c, 0, 73, 0
2, 721653, Note_on_c, 0, 65, 54
2, 721837, Note_on_c, 0, 70, 48
2, 722013, Note_on_c, 0, 70, 0
2, 722017, Note_on_c, 0, 73, 46
2, 722125, Note_on_c, 0, 65, 0
2, 722149, Note_on_c, 0, 61, 0
2, 722177, Note_on_c, 0, 73, 0
2, 722181, Note_on_c, 0, 58, 0
2, 722197, Note_on_c, 0, 70, 59
2, 722345, Note_on_c, 0, 70, 0
2, 722405, Note_on_c, 0, 77, 92
2, 722441, Note_on_c, 0, 61, 51
2, 722581, Note_on_c, 0, 61, 0
2, 722593, Note_on_c, 0, 58, 53
2, 722753, Note_on_c, 0, 77, 0
2, 722829, Note_on_c, 0, 53, 58
2, 722853, Note_on_c, 0, 58, 0
2, 722865, Note_on_c, 0, 53, 0
2, 723009, Note_on_c, 0, 77, 94
2, 723037, Note_on_c, 0, 49, 55
2, 723121, Note_on_c, 0, 49, 0
2, 723173, Note_on_c, 0, 77, 0
2, 723317, Note_on_c, 0, 77, 90
2, 723357, Note_on_c, 0, 44, 58
2, 723413, Control_c, 0, 64, 56
2, 723429, Control_c, 0, 64, 0
2, 723537, Control_c, 0, 64, 127
2, 723561, Note_on_c, 0, 53, 59
2, 723565, Note_on_c, 0, 44, 0
2, 723737, Note_on_c, 0, 53, 0
2, 723737, Note_on_c, 0, 56, 60
2, 723789, Note_on_c, 0, 56, 0
2, 723869, Note_on_c, 0, 77, 0
2, 723901, Note_on_c, 0, 79, 87
2, 723933, Note_on_c, 0, 60, 63
2, 724077, Note_on_c, 0, 60, 0
2, 724093, Note_on_c, 0, 79, 0
2, 724101, Note_on_c, 0, 65, 60
2, 724101, Note_on_c, 0, 77, 87
2, 724233, Note_on_c, 0, 65, 0
2, 724269, Note_on_c, 0, 68, 55
2, 724437, Note_on_c, 0, 68, 0
2, 724469, Note_on_c, 0, 72, 70
2, 724629, Note_on_c, 0, 68, 59
2, 724645, Note_on_c, 0, 72, 0
2, 724673, Note_on_c, 0, 77, 0
2, 724805, Note_on_c, 0, 68, 0
2, 724813, Note_on_c, 0, 65, 58
2, 724825, Note_on_c, 0, 77, 96
2, 725021, Note_on_c, 0, 60, 47
2, 725033, Note_on_c, 0, 65, 0
2, 725053, Note_on_c, 0, 60, 0
2, 725161, Note_on_c, 0, 77, 0
2, 725189, Note_on_c, 0, 79, 93
2, 725193, Note_on_c, 0, 56, 52
2, 725349, Note_on_c, 0, 56, 0
2, 725365, Note_on_c, 0, 53, 59
2, 725409, Note_on_c, 0, 53, 0
2, 725573, Note_on_c, 0, 79, 0
2, 725649, Note_on_c, 0, 80, 88
2, 725697, Note_on_c, 0, 41, 66
2, 725721, Control_c, 0, 64, 40
2, 725733, Control_c, 0, 64, 0
2, 725829, Control_c, 0, 64, 127
2, 725897, Note_on_c, 0, 49, 46
2, 725917, Note_on_c, 0, 41, 0
2, 725961, Note_on_c, 0, 80, 0
2, 726061, Note_on_c, 0, 49, 0
2, 726073, Note_on_c, 0, 79, 84
2, 726085, Note_on_c, 0, 53, 60
2, 726185, Note_on_c, 0, 53, 0
2, 726261, Note_on_c, 0, 56, 57
2, 726381, Note_on_c, 0, 79, 0
2, 726413, Note_on_c, 0, 77, 84
2, 726425, Note_on_c, 0, 61, 48
2, 726565, Note_on_c, 0, 61, 0
2, 726565, Note_on_c, 0, 56, 0
2, 726585, Note_on_c, 0, 65, 58
2, 726613, Note_on_c, 0, 65, 0
2, 726785, Note_on_c, 0, 77, 0
2, 726793, Note_on_c, 0, 75, 75
2, 726825, Note_on_c, 0, 43, 64
2, 726849, Control_c, 0, 64, 72
2, 726865, Control_c, 0, 64, 0
2, 726957, Control_c, 0, 64, 72
2, 726973, Control_c, 0, 64, 127
2, 727009, Note_on_c, 0, 46, 44
2, 727021, Note_on_c, 0, 43, 0
2, 727101, Note_on_c, 0, 75, 0
2, 727125, Note_on_c, 0, 79, 61
2, 727189, Note_on_c, 0, 77, 85
2, 727213, Note_on_c, 0, 46, 0
2, 727213, Note_on_c, 0, 51, 55
2, 727217, Note_on_c, 0, 79, 0
2, 727365, Note_on_c, 0, 51, 0
2, 727385, Note_on_c, 0, 55, 53
2, 727485, Note_on_c, 0, 55, 0
2, 727553, Note_on_c, 0, 77, 0
2, 727573, Note_on_c, 0, 73, 77
2, 727589, Note_on_c, 0, 58, 45
2, 727793, Note_on_c, 0, 63, 50
2, 727821, Note_on_c, 0, 58, 0
2, 727837, Note_on_c, 0, 63, 0
2, 728005, Note_on_c, 0, 73, 0
2, 728057, Note_on_c, 0, 72, 67
2, 728101, Note_on_c, 0, 44, 51
2, 728149, Control_c, 0, 64, 104
2, 728165, Control_c, 0, 64, 24
2, 728181, Control_c, 0, 64, 0
2, 728285, Note_on_c, 0, 44, 0
2, 728289, Note_on_c, 0, 51, 53
2, 728289, Control_c, 0, 64, 127
2, 728421, Note_on_c, 0, 51, 0
2, 728461, Note_on_c, 0, 56, 37
2, 728609, Note_on_c, 0, 56, 0
2, 728637, Note_on_c, 0, 60, 49
2, 728757, Note_on_c, 0, 60, 0
2, 728829, Note_on_c, 0, 63, 55
2, 728961, Note_on_c, 0, 63, 0
2, 728993, Note_on_c, 0, 72, 0
2, 729005, Note_on_c, 0, 68, 56
2, 729165, Note_on_c, 0, 68, 0
2, 729217, Note_on_c, 0, 72, 56
2, 729385, Note_on_c, 0, 72, 0
2, 729401, Note_on_c, 0, 68, 49
2, 729637, Note_on_c, 0, 75, 81
2, 729653, Note_on_c, 0, 68, 0
2, 729653, Note_on_c, 0, 63, 48
2, 729733, Note_on_c, 0, 63, 0
2, 729845, Note_on_c, 0, 60, 60
2, 729941, Note_on_c, 0, 60, 0
2, 729985, Note_on_c, 0, 75, 0
2, 730013, Note_on_c, 0, 72, 83
2, 730049, Note_on_c, 0, 56, 36
2, 730177, Note_on_c, 0, 56, 0
2, 730189, Note_on_c, 0, 51, 55
2, 730221, Note_on_c, 0, 51, 0
2, 730509, Note_on_c, 0, 72, 0
2, 730517, Note_on_c, 0, 70, 64
2, 730545, Note_on_c, 0, 43, 58
2, 730613, Control_c, 0, 64, 104
2, 730629, Control_c, 0, 64, 24
2, 730645, Control_c, 0, 64, 0
2, 730757, Note_on_c, 0, 49, 49
2, 730761, Note_on_c, 0, 43, 0
2, 730769, Control_c, 0, 64, 127
2, 730893, Note_on_c, 0, 49, 0
2, 730949, Note_on_c, 0, 52, 51
2, 731061, Note_on_c, 0, 52, 0
2, 731109, Note_on_c, 0, 57, 44
2, 731269, Note_on_c, 0, 70, 0
2, 731293, Note_on_c, 0, 69, 68
2, 731301, Note_on_c, 0, 57, 0
2, 731301, Note_on_c, 0, 58, 40
2, 731405, Note_on_c, 0, 58, 0
2, 731465, Note_on_c, 0, 61, 45
2, 731633, Note_on_c, 0, 61, 0
2, 731669, Note_on_c, 0, 64, 59
2, 731817, Note_on_c, 0, 69, 0
2, 731853, Note_on_c, 0, 61, 51
2, 731877, Note_on_c, 0, 64, 0
2, 732029, Note_on_c, 0, 61, 0
2, 732041, Note_on_c, 0, 58, 43
2, 732053, Note_on_c, 0, 70, 68
2, 732221, Note_on_c, 0, 58, 0
2, 732237, Note_on_c, 0, 55, 60
2, 732417, Note_on_c, 0, 70, 0
2, 732437, Note_on_c, 0, 72, 84
2, 732445, Note_on_c, 0, 52, 55
2, 732453, Note_on_c, 0, 55, 0
2, 732477, Note_on_c, 0, 52, 0
2, 732633, Note_on_c, 0, 49, 58
2, 732889, Note_on_c, 0, 49, 0
2, 732889, Note_on_c, 0, 73, 77
2, 732921, Note_on_c, 0, 72, 0
2, 732929, Note_on_c, 0, 42, 60
2, 732953, Control_c, 0, 64, 88
2, 732969, Control_c, 0, 64, 24
2, 732981, Control_c, 0, 64, 0
2, 733077, Control_c, 0, 64, 56
2, 733081, Note_on_c, 0, 42, 0
2, 733093, Control_c, 0, 64, 127
2, 733097, Note_on_c, 0, 49, 59
2, 733245, Note_on_c, 0, 49, 0
2, 733293, Note_on_c, 0, 52, 64
2, 733409, Note_on_c, 0, 52, 0
2, 733469, Note_on_c, 0, 54, 58
2, 733545, Note_on_c, 0, 54, 0
2, 733673, Note_on_c, 0, 58, 62
2, 733829, Note_on_c, 0, 58, 0
2, 733845, Note_on_c, 0, 64, 69
2, 733873, Note_on_c, 0, 64, 0
2, 734085, Note_on_c, 0, 41, 78
2, 734145, Control_c, 0, 64, 56
2, 734161, Control_c, 0, 64, 0
2, 734253, Control_c, 0, 64, 72
2, 734269, Control_c, 0, 64, 127
2, 734297, Note_on_c, 0, 49, 47
2, 734357, Note_on_c, 0, 41, 0
2, 734485, Note_on_c, 0, 49, 0
2, 734501, Note_on_c, 0, 77, 89
2, 734501, Note_on_c, 0, 53, 59
2, 734505, Note_on_c, 0, 73, 0
2, 734601, Note_on_c, 0, 53, 0
2, 734681, Note_on_c, 0, 58, 68
2, 734901, Note_on_c, 0, 61, 49
2, 734913, Note_on_c, 0, 73, 86
2, 734929, Note_on_c, 0, 77, 0
2, 735113, Note_on_c, 0, 65, 62
2, 735121, Note_on_c, 0, 61, 0
2, 735145, Note_on_c, 0, 65, 0
2, 735157, Note_on_c, 0, 58, 0
2, 735421, Note_on_c, 0, 73, 0
2, 735421, Note_on_c, 0, 72, 88
2, 735449, Note_on_c, 0, 40, 64
2, 735477, Control_c, 0, 64, 88
2, 735493, Control_c, 0, 64, 0
2, 735601, Control_c, 0, 64, 127
2, 735781, Note_on_c, 0, 85, 95
2, 735813, Note_on_c, 0, 48, 59
2, 735913, Note_on_c, 0, 40, 0
2, 735917, Note_on_c, 0, 85, 0
2, 736073, Note_on_c, 0, 48, 0
2, 736073, Note_on_c, 0, 84, 94
2, 736089, Note_on_c, 0, 52, 70
2, 736121, Note_on_c, 0, 52, 0
2, 736197, Note_on_c, 0, 84, 0
2, 736317, Note_on_c, 0, 83, 94
2, 736325, Note_on_c, 0, 55, 56
2, 736441, Note_on_c, 0, 83, 0
2, 736445, Note_on_c, 0, 55, 0
2, 736513, Note_on_c, 0, 58, 46
2, 736521, Note_on_c, 0, 82, 84
2, 736565, Note_on_c, 0, 72, 0
2, 736665, Note_on_c, 0, 82, 0
2, 736697, Note_on_c, 0, 79, 83
2, 736725, Note_on_c, 0, 58, 0
2, 736729, Note_on_c, 0, 60, 59
2, 736869, Note_on_c, 0, 79, 0
2, 736889, Note_on_c, 0, 76, 84
2, 736901, Note_on_c, 0, 60, 0
2, 736925, Note_on_c, 0, 64, 59
2, 737041, Note_on_c, 0, 64, 0
2, 737105, Note_on_c, 0, 76, 0
2, 737105, Note_on_c, 0, 72, 86
2, 737113, Note_on_c, 0, 67, 48
2, 737153, Note_on_c, 0, 67, 0
2, 737261, Note_on_c, 0, 72, 0
2, 737381, Note_on_c, 0, 75, 77
2, 737397, Note_on_c, 0, 63, 49
2, 737429, Control_c, 0, 64, 88
2, 737477, Control_c, 0, 64, 127
2, 737629, Note_on_c, 0, 63, 0
2, 737645, Note_on_c, 0, 75, 0
2, 737649, Note_on_c, 0, 73, 73
2, 737649, Note_on_c, 0, 61, 44
2, 737733, Note_on_c, 0, 73, 0
2, 737765, Note_on_c, 0, 61, 0
2, 737877, Note_on_c, 0, 72, 68
2, 737877, Note_on_c, 0, 60, 55
2, 737877, Control_c, 0, 64, 56
2, 737893, Control_c, 0, 64, 24
2, 737909, Control_c, 0, 64, 40
2, 737925, Control_c, 0, 64, 88
2, 737941, Control_c, 0, 64, 127
2, 738057, Note_on_c, 0, 60, 0
2, 738057, Note_on_c, 0, 72, 0
2, 738093, Note_on_c, 0, 70, 62
2, 738093, Note_on_c, 0, 58, 39
2, 738161, Note_on_c, 0, 58, 0
2, 738369, Note_on_c, 0, 70, 0
2, 738373, Note_on_c, 0, 68, 56
2, 738409, Note_on_c, 0, 41, 40
2, 738465, Control_c, 0, 64, 24
2, 738481, Control_c, 0, 64, 0
2, 738577, Control_c, 0, 64, 72
2, 738589, Control_c, 0, 64, 127
2, 738605, Note_on_c, 0, 48, 49
2, 738629, Note_on_c, 0, 41, 0
2, 738725, Note_on_c, 0, 48, 0
2, 738773, Note_on_c, 0, 53, 36
2, 738897, Note_on_c, 0, 53, 0
2, 738969, Note_on_c, 0, 56, 37
2, 739137, Note_on_c, 0, 56, 0
2, 739161, Note_on_c, 0, 60, 52
2, 739345, Note_on_c, 0, 60, 0
2, 739389, Note_on_c, 0, 65, 38
2, 739545, Note_on_c, 0, 68, 0
2, 739601, Note_on_c, 0, 68, 43
2, 739685, Note_on_c, 0, 65, 0
2, 739784, Note_on_c, 0, 65, 33
2, 739885, Note_on_c, 0, 68, 0
2, 739932, Note_on_c, 0, 65, 0
2, 739961, Note_on_c, 0, 67, 62
2, 739981, Note_on_c, 0, 60, 49
2, 740173, Note_on_c, 0, 60, 0
2, 740177, Note_on_c, 0, 56, 44
2, 740233, Note_on_c, 0, 56, 0
2, 740357, Note_on_c, 0, 67, 0
2, 740369, Note_on_c, 0, 68, 69
2, 740385, Note_on_c, 0, 53, 43
2, 740501, Note_on_c, 0, 53, 0
2, 740565, Note_on_c, 0, 48, 47
2, 740621, Note_on_c, 0, 68, 0
2, 740649, Note_on_c, 0, 48, 0
2, 740873, Note_on_c, 0, 69, 68
2, 740913, Control_c, 0, 64, 104
2, 740929, Note_on_c, 0, 40, 51
2, 740929, Control_c, 0, 64, 40
2, 740945, Control_c, 0, 64, 0
2, 741053, Control_c, 0, 64, 72
2, 741069, Control_c, 0, 64, 127
2, 741097, Note_on_c, 0, 40, 0
2, 741117, Note_on_c, 0, 45, 55
2, 741245, Note_on_c, 0, 45, 0
2, 741289, Note_on_c, 0, 49, 48
2, 741441, Note_on_c, 0, 49, 0
2, 741481, Note_on_c, 0, 55, 58
2, 741569, Note_on_c, 0, 55, 0
2, 741665, Note_on_c, 0, 57, 55
2, 741769, Note_on_c, 0, 57, 0
2, 741841, Note_on_c, 0, 61, 50
2, 741993, Note_on_c, 0, 69, 0
2, 742037, Note_on_c, 0, 61, 0
2, 742065, Note_on_c, 0, 67, 61
2, 742221, Note_on_c, 0, 67, 0
2, 742253, Note_on_c, 0, 61, 43
2, 742469, Note_on_c, 0, 68, 60
2, 742489, Note_on_c, 0, 57, 45
2, 742497, Note_on_c, 0, 61, 0
2, 742533, Note_on_c, 0, 57, 0
2, 742691, Note_on_c, 0, 55, 45
2, 742735, Note_on_c, 0, 55, 0
2, 742857, Note_on_c, 0, 68, 0
2, 742885, Note_on_c, 0, 49, 40
2, 742913, Note_on_c, 0, 69, 67
2, 743097, Note_on_c, 0, 45, 53
2, 743149, Note_on_c, 0, 49, 0
2, 743185, Note_on_c, 0, 45, 0
2, 743377, Note_on_c, 0, 69, 0
2, 743405, Note_on_c, 0, 70, 61
2, 743441, Control_c, 0, 64, 104
2, 743453, Control_c, 0, 64, 24
2, 743457, Note_on_c, 0, 39, 43
2, 743469, Control_c, 0, 64, 0
2, 743561, Control_c, 0, 64, 104
2, 743577, Control_c, 0, 64, 127
2, 743637, Note_on_c, 0, 39, 0
2, 743653, Note_on_c, 0, 46, 55
2, 743781, Note_on_c, 0, 46, 0
2, 743865, Note_on_c, 0, 51, 58
2, 744049, Note_on_c, 0, 51, 0
2, 744075, Note_on_c, 0, 56, 46
2, 744297, Note_on_c, 0, 58, 43
2, 744335, Note_on_c, 0, 56, 0
2, 744489, Note_on_c, 0, 58, 0
2, 744521, Note_on_c, 0, 61, 65
2, 744597, Note_on_c, 0, 61, 0
2, 744757, Note_on_c, 0, 70, 0
2, 744821, Note_on_c, 0, 68, 49
2, 744825, Note_on_c, 0, 75, 66
2, 744929, Note_on_c, 0, 68, 0
2, 745057, Note_on_c, 0, 67, 60
2, 745309, Note_on_c, 0, 63, 44
2, 745325, Control_c, 0, 64, 88
2, 745341, Control_c, 0, 64, 56
2, 745361, Control_c, 0, 64, 72
2, 745377, Control_c, 0, 64, 127
2, 745505, Note_on_c, 0, 63, 0
2, 745545, Note_on_c, 0, 59, 42
2, 745549, Note_on_c, 0, 67, 0
2, 745769, Note_on_c, 0, 75, 0
2, 745773, Note_on_c, 0, 59, 0
2, 745813, Note_on_c, 0, 71, 56
2, 745817, Note_on_c, 0, 55, 38
2, 745873, Note_on_c, 0, 55, 0
2, 746165, Note_on_c, 0, 51, 42
2, 746353, Note_on_c, 0, 51, 0
2, 746501, Note_on_c, 0, 71, 0
2, 746537, Note_on_c, 0, 72, 60
2, 746565, Note_on_c, 0, 44, 42
2, 746581, Control_c, 0, 64, 104
2, 746597, Control_c, 0, 64, 24
2, 746613, Control_c, 0, 64, 0
2, 746721, Control_c, 0, 64, 88
2, 746737, Control_c, 0, 64, 127
2, 746793, Note_on_c, 0, 44, 0
2, 746809, Note_on_c, 0, 51, 33
2, 746949, Note_on_c, 0, 51, 0
2, 746997, Note_on_c, 0, 56, 35
2, 747181, Note_on_c, 0, 56, 0
2, 747225, Note_on_c, 0, 60, 52
2, 747333, Note_on_c, 0, 72, 0
2, 747373, Note_on_c, 0, 60, 0
2, 747461, Note_on_c, 0, 63, 37
2, 747745, Note_on_c, 0, 68, 35
2, 748197, Note_on_c, 0, 72, 52
2, 748305, Note_on_c, 0, 63, 0
2, 748333, Note_on_c, 0, 68, 0
2, 748357, Note_on_c, 0, 72, 0
2, 749865, Control_c, 0, 64, 104
2, 749897, Control_c, 0, 64, 88
2, 749925, Control_c, 0, 64, 72
2, 749941, Control_c, 0, 64, 56
2, 749973, Control_c, 0, 64, 40
2, 750005, Control_c, 0, 64, 24
2, 750037, Control_c, 0, 64, 0
2, 751105, Control_c, 0, 64, 24
2, 751121, Control_c, 0, 64, 72
2, 751129, Note_on_c, 0, 80, 95
2, 751133, Note_on_c, 0, 68, 83
2, 751133, Control_c, 0, 64, 104
2, 751145, Control_c, 0, 64, 127
2, 751149, Note_on_c, 0, 41, 70
2, 751201, Note_on_c, 0, 68, 0
2, 751205, Note_on_c, 0, 41, 0
2, 751209, Note_on_c, 0, 80, 0
2, 751349, Note_on_c, 0, 56, 60
2, 751469, Note_on_c, 0, 56, 0
2, 751521, Note_on_c, 0, 72, 90
2, 751529, Note_on_c, 0, 60, 74
2, 751545, Note_on_c, 0, 48, 63
2, 751573, Note_on_c, 0, 48, 0
2, 751589, Note_on_c, 0, 60, 0
2, 751597, Note_on_c, 0, 72, 0
2, 751677, Control_c, 0, 64, 72
2, 751689, Control_c, 0, 64, 0
2, 751721, Note_on_c, 0, 59, 82
2, 751725, Note_on_c, 0, 71, 90
2, 751741, Note_on_c, 0, 41, 48
2, 751769, Note_on_c, 0, 59, 0
2, 751769, Control_c, 0, 64, 88
2, 751785, Note_on_c, 0, 71, 0
2, 751785, Control_c, 0, 64, 127
2, 751817, Note_on_c, 0, 41, 0
2, 751909, Note_on_c, 0, 74, 94
2, 751913, Note_on_c, 0, 62, 82
2, 751925, Note_on_c, 0, 55, 45
2, 751941, Note_on_c, 0, 62, 0
2, 751957, Note_on_c, 0, 74, 0
2, 752005, Note_on_c, 0, 55, 0
2, 752097, Note_on_c, 0, 66, 91
2, 752101, Note_on_c, 0, 78, 89
2, 752101, Note_on_c, 0, 47, 62
2, 752145, Note_on_c, 0, 47, 0
2, 752149, Note_on_c, 0, 66, 0
2, 752185, Note_on_c, 0, 78, 0
2, 752285, Control_c, 0, 64, 0
2, 752321, Note_on_c, 0, 79, 94
2, 752325, Note_on_c, 0, 67, 84
2, 752341, Note_on_c, 0, 40, 59
2, 752373, Note_on_c, 0, 40, 0
2, 752377, Note_on_c, 0, 67, 0
2, 752381, Note_on_c, 0, 79, 0
2, 752393, Control_c, 0, 64, 127
2, 752517, Note_on_c, 0, 55, 72
2, 752625, Note_on_c, 0, 70, 77
2, 752625, Note_on_c, 0, 58, 71
2, 752649, Note_on_c, 0, 58, 0
2, 752649, Note_on_c, 0, 70, 0
2, 752685, Note_on_c, 0, 48, 66
2, 752705, Note_on_c, 0, 58, 79
2, 752705, Note_on_c, 0, 70, 89
2, 752709, Note_on_c, 0, 48, 0
2, 752721, Note_on_c, 0, 55, 0
2, 752721, Control_c, 0, 64, 88
2, 752733, Control_c, 0, 64, 56
2, 752745, Control_c, 0, 64, 24
2, 752753, Note_on_c, 0, 58, 0
2, 752761, Control_c, 0, 64, 0
2, 752765, Note_on_c, 0, 70, 0
2, 752913, Note_on_c, 0, 70, 91
2, 752913, Note_on_c, 0, 58, 79
2, 752937, Note_on_c, 0, 41, 59
2, 752937, Control_c, 0, 64, 56
2, 752949, Control_c, 0, 64, 104
2, 752965, Control_c, 0, 64, 127
2, 752981, Note_on_c, 0, 58, 0
2, 753009, Note_on_c, 0, 70, 0
2, 753101, Control_c, 0, 64, 88
2, 753113, Control_c, 0, 64, 24
2, 753121, Note_on_c, 0, 68, 87
2, 753121, Note_on_c, 0, 56, 80
2, 753125, Control_c, 0, 64, 0
2, 753137, Note_on_c, 0, 53, 58
2, 753189, Note_on_c, 0, 56, 0
2, 753197, Control_c, 0, 64, 56
2, 753209, Control_c, 0, 64, 127
2, 753241, Note_on_c, 0, 68, 0
2, 753313, Note_on_c, 0, 53, 0
2, 753329, Note_on_c, 0, 48, 60
2, 753345, Note_on_c, 0, 41, 0
2, 753353, Note_on_c, 0, 48, 0
2, 753493, Control_c, 0, 64, 72
2, 753509, Control_c, 0, 64, 0
2, 753533, Note_on_c, 0, 77, 100
2, 753537, Note_on_c, 0, 65, 89
2, 753545, Note_on_c, 0, 32, 72
2, 753589, Control_c, 0, 64, 88
2, 753597, Note_on_c, 0, 32, 0
2, 753597, Note_on_c, 0, 65, 0
2, 753601, Note_on_c, 0, 77, 0
2, 753601, Control_c, 0, 64, 127
2, 753733, Note_on_c, 0, 48, 64
2, 753817, Note_on_c, 0, 48, 0
2, 753913, Note_on_c, 0, 65, 82
2, 753913, Note_on_c, 0, 41, 58
2, 753917, Note_on_c, 0, 53, 81
2, 753945, Note_on_c, 0, 41, 0
2, 753973, Note_on_c, 0, 53, 0
2, 753985, Note_on_c, 0, 65, 0
2, 754061, Control_c, 0, 64, 104
2, 754077, Control_c, 0, 64, 24
2, 754089, Control_c, 0, 64, 0
2, 754113, Note_on_c, 0, 66, 86
2, 754113, Note_on_c, 0, 54, 81
2, 754133, Note_on_c, 0, 34, 66
2, 754157, Control_c, 0, 64, 40
2, 754173, Control_c, 0, 64, 127
2, 754213, Note_on_c, 0, 34, 0
2, 754237, Note_on_c, 0, 66, 0
2, 754241, Note_on_c, 0, 54, 0
2, 754297, Note_on_c, 0, 55, 82
2, 754297, Note_on_c, 0, 67, 90
2, 754309, Note_on_c, 0, 49, 65
2, 754341, Note_on_c, 0, 55, 0
2, 754361, Note_on_c, 0, 67, 0
2, 754501, Note_on_c, 0, 78, 90
2, 754501, Note_on_c, 0, 66, 92
2, 754505, Note_on_c, 0, 41, 62
2, 754549, Note_on_c, 0, 41, 0
2, 754549, Note_on_c, 0, 66, 0
2, 754557, Note_on_c, 0, 49, 0
2, 754645, Note_on_c, 0, 78, 0
2, 754673, Control_c, 0, 64, 40
2, 754685, Control_c, 0, 64, 0
2, 754713, Note_on_c, 0, 79, 97
2, 754717, Note_on_c, 0, 67, 86
2, 754741, Note_on_c, 0, 35, 70
2, 754765, Control_c, 0, 64, 72
2, 754773, Note_on_c, 0, 67, 0
2, 754777, Note_on_c, 0, 35, 0
2, 754781, Note_on_c, 0, 79, 0
2, 754781, Control_c, 0, 64, 127
2, 754905, Note_on_c, 0, 50, 60
2, 755017, Note_on_c, 0, 67, 86
2, 755021, Note_on_c, 0, 55, 74
2, 755037, Note_on_c, 0, 67, 0
2, 755045, Note_on_c, 0, 55, 0
2, 755085, Note_on_c, 0, 41, 59
2, 755093, Note_on_c, 0, 67, 84
2, 755097, Note_on_c, 0, 55, 68
2, 755105, Note_on_c, 0, 50, 0
2, 755109, Note_on_c, 0, 41, 0
2, 755153, Note_on_c, 0, 55, 0
2, 755185, Note_on_c, 0, 67, 0
2, 755269, Control_c, 0, 64, 88
2, 755285, Control_c, 0, 64, 0
2, 755289, Note_on_c, 0, 68, 86
2, 755289, Note_on_c, 0, 56, 85
2, 755317, Note_on_c, 0, 36, 64
2, 755345, Note_on_c, 0, 36, 0
2, 755365, Control_c, 0, 64, 104
2, 755377, Control_c, 0, 64, 127
2, 755405, Note_on_c, 0, 56, 0
2, 755425, Note_on_c, 0, 68, 0
2, 755469, Note_on_c, 0, 57, 78
2, 755473, Note_on_c, 0, 69, 90
2, 755485, Note_on_c, 0, 51, 69
2, 755513, Note_on_c, 0, 57, 0
2, 755537, Note_on_c, 0, 69, 0
2, 755677, Note_on_c, 0, 51, 0
2, 755677, Note_on_c, 0, 80, 90
2, 755681, Note_on_c, 0, 68, 93
2, 755685, Note_on_c, 0, 41, 65
2, 755725, Note_on_c, 0, 68, 0
2, 755765, Note_on_c, 0, 41, 0
2, 755825, Note_on_c, 0, 80, 0
2, 755865, Control_c, 0, 64, 56
2, 755881, Control_c, 0, 64, 0
2, 755885, Note_on_c, 0, 81, 97
2, 755889, Note_on_c, 0, 69, 90
2, 755897, Note_on_c, 0, 37, 72
2, 755949, Note_on_c, 0, 69, 0
2, 755953, Note_on_c, 0, 37, 0
2, 755961, Note_on_c, 0, 81, 0
2, 755961, Control_c, 0, 64, 127
2, 756085, Note_on_c, 0, 52, 64
2, 756269, Note_on_c, 0, 69, 90
2, 756273, Note_on_c, 0, 41, 63
2, 756277, Note_on_c, 0, 57, 77
2, 756281, Note_on_c, 0, 52, 0
2, 756305, Note_on_c, 0, 41, 0
2, 756437, Control_c, 0, 64, 56
2, 756449, Control_c, 0, 64, 0
2, 756481, Note_on_c, 0, 38, 73
2, 756509, Note_on_c, 0, 57, 0
2, 756521, Note_on_c, 0, 69, 0
2, 756529, Control_c, 0, 64, 127
2, 756537, Note_on_c, 0, 38, 0
2, 756653, Note_on_c, 0, 58, 71
2, 756661, Note_on_c, 0, 70, 87
2, 756673, Note_on_c, 0, 53, 66
2, 756693, Note_on_c, 0, 58, 0
2, 756721, Note_on_c, 0, 70, 0
2, 756853, Note_on_c, 0, 53, 0
2, 756861, Note_on_c, 0, 41, 60
2, 756865, Note_on_c, 0, 82, 89
2, 756865, Note_on_c, 0, 70, 97
2, 756897, Note_on_c, 0, 41, 0
2, 756913, Note_on_c, 0, 70, 0
2, 757025, Note_on_c, 0, 82, 0
2, 757061, Control_c, 0, 64, 24
2, 757073, Control_c, 0, 64, 0
2, 757081, Note_on_c, 0, 83, 102
2, 757085, Note_on_c, 0, 71, 88
2, 757089, Note_on_c, 0, 37, 73
2, 757141, Control_c, 0, 64, 56
2, 757145, Note_on_c, 0, 71, 0
2, 757153, Note_on_c, 0, 83, 0
2, 757153, Control_c, 0, 64, 127
2, 757181, Note_on_c, 0, 37, 0
2, 757277, Note_on_c, 0, 53, 69
2, 757397, Note_on_c, 0, 71, 88
2, 757401, Note_on_c, 0, 59, 76
2, 757421, Note_on_c, 0, 71, 0
2, 757425, Note_on_c, 0, 59, 0
2, 757449, Note_on_c, 0, 43, 63
2, 757457, Note_on_c, 0, 53, 0
2, 757481, Note_on_c, 0, 59, 80
2, 757481, Note_on_c, 0, 71, 90
2, 757537, Note_on_c, 0, 59, 0
2, 757553, Note_on_c, 0, 71, 0
2, 757561, Control_c, 0, 64, 72
2, 757569, Note_on_c, 0, 43, 0
2, 757573, Control_c, 0, 64, 0
2, 757677, Note_on_c, 0, 71, 99
2, 757681, Note_on_c, 0, 59, 90
2, 757689, Note_on_c, 0, 36, 61
2, 757697, Control_c, 0, 64, 40
2, 757709, Control_c, 0, 64, 104
2, 757725, Control_c, 0, 64, 127
2, 757741, Note_on_c, 0, 59, 0
2, 757765, Note_on_c, 0, 36, 0
2, 757781, Note_on_c, 0, 71, 0
2, 757893, Note_on_c, 0, 72, 87
2, 757893, Note_on_c, 0, 52, 63
2, 757901, Note_on_c, 0, 60, 78
2, 757901, Control_c, 0, 64, 56
2, 757913, Control_c, 0, 64, 0
2, 757993, Control_c, 0, 64, 40
2, 758009, Control_c, 0, 64, 127
2, 758037, Note_on_c, 0, 52, 0
2, 758069, Note_on_c, 0, 43, 65
2, 758093, Note_on_c, 0, 43, 0
2, 758153, Note_on_c, 0, 60, 0
2, 758309, Note_on_c, 0, 56, 25
2, 758321, Control_c, 0, 64, 88
2, 758333, Control_c, 0, 64, 0
2, 758341, Note_on_c, 0, 56, 0
2, 758353, Note_on_c, 0, 48, 56
2, 758441, Control_c, 0, 64, 72
2, 758457, Control_c, 0, 64, 127
2, 758485, Note_on_c, 0, 72, 0
2, 758533, Note_on_c, 0, 60, 56
2, 758681, Note_on_c, 0, 48, 0
2, 758717, Note_on_c, 0, 72, 70
2, 758729, Note_on_c, 0, 58, 27
2, 758737, Note_on_c, 0, 55, 41
2, 758813, Note_on_c, 0, 60, 0
2, 758845, Note_on_c, 0, 55, 0
2, 758905, Control_c, 0, 64, 104
2, 758909, Note_on_c, 0, 48, 62
2, 758917, Control_c, 0, 64, 40
2, 758929, Control_c, 0, 64, 0
2, 758945, Note_on_c, 0, 58, 0
2, 758953, Note_on_c, 0, 48, 0
2, 758969, Control_c, 0, 64, 40
2, 758985, Control_c, 0, 64, 88
2, 758997, Control_c, 0, 64, 127
2, 759093, Note_on_c, 0, 61, 71
2, 759217, Note_on_c, 0, 61, 0
2, 759261, Note_on_c, 0, 73, 73
2, 759273, Note_on_c, 0, 72, 0
2, 759273, Note_on_c, 0, 58, 33
2, 759281, Note_on_c, 0, 55, 47
2, 759385, Note_on_c, 0, 55, 0
2, 759417, Control_c, 0, 64, 72
2, 759433, Control_c, 0, 64, 0
2, 759453, Note_on_c, 0, 48, 62
2, 759473, Control_c, 0, 64, 40
2, 759485, Note_on_c, 0, 48, 0
2, 759485, Note_on_c, 0, 58, 0
2, 759485, Control_c, 0, 64, 104
2, 759501, Control_c, 0, 64, 127
2, 759601, Note_on_c, 0, 73, 0
2, 759621, Note_on_c, 0, 62, 77
2, 759753, Note_on_c, 0, 62, 0
2, 759805, Note_on_c, 0, 74, 77
2, 759805, Note_on_c, 0, 58, 36
2, 759821, Note_on_c, 0, 55, 33
2, 759945, Note_on_c, 0, 55, 0
2, 759945, Control_c, 0, 64, 72
2, 759961, Control_c, 0, 64, 24
2, 759973, Control_c, 0, 64, 0
2, 759981, Note_on_c, 0, 48, 67
2, 759989, Control_c, 0, 64, 24
2, 760001, Control_c, 0, 64, 72
2, 760017, Note_on_c, 0, 48, 0
2, 760017, Control_c, 0, 64, 127
2, 760029, Note_on_c, 0, 58, 0
2, 760153, Note_on_c, 0, 67, 65
2, 760309, Note_on_c, 0, 74, 0
2, 760317, Note_on_c, 0, 61, 58
2, 760321, Note_on_c, 0, 67, 0
2, 760325, Note_on_c, 0, 58, 57
2, 760345, Note_on_c, 0, 79, 82
2, 760357, Note_on_c, 0, 61, 0
2, 760369, Note_on_c, 0, 58, 0
2, 760477, Control_c, 0, 64, 88
2, 760489, Control_c, 0, 64, 24
2, 760505, Control_c, 0, 64, 0
2, 760529, Control_c, 0, 64, 56
2, 760533, Note_on_c, 0, 48, 62
2, 760545, Control_c, 0, 64, 127
2, 760565, Note_on_c, 0, 48, 0
2, 760617, Note_on_c, 0, 79, 0
2, 760701, Note_on_c, 0, 72, 78
2, 760741, Note_on_c, 0, 72, 0
2, 760885, Note_on_c, 0, 60, 47
2, 760897, Note_on_c, 0, 84, 95
2, 760901, Note_on_c, 0, 57, 47
2, 760925, Note_on_c, 0, 60, 0
2, 760941, Note_on_c, 0, 57, 0
2, 761073, Control_c, 0, 64, 88
2, 761085, Control_c, 0, 64, 24
2, 761093, Note_on_c, 0, 48, 58
2, 761101, Control_c, 0, 64, 0
2, 761125, Control_c, 0, 64, 40
2, 761133, Note_on_c, 0, 48, 0
2, 761141, Control_c, 0, 64, 88
2, 761153, Control_c, 0, 64, 127
2, 761257, Note_on_c, 0, 65, 59
2, 761421, Note_on_c, 0, 77, 84
2, 761425, Note_on_c, 0, 84, 0
2, 761429, Note_on_c, 0, 65, 0
2, 761433, Note_on_c, 0, 59, 52
2, 761433, Note_on_c, 0, 56, 46
2, 761457, Note_on_c, 0, 59, 0
2, 761469, Note_on_c, 0, 56, 0
2, 761589, Control_c, 0, 64, 104
2, 761601, Control_c, 0, 64, 56
2, 761613, Control_c, 0, 64, 24
2, 761633, Note_on_c, 0, 48, 63
2, 761657, Note_on_c, 0, 48, 0
2, 761657, Control_c, 0, 64, 127
2, 761737, Note_on_c, 0, 77, 0
2, 761809, Note_on_c, 0, 65, 64
2, 761937, Note_on_c, 0, 65, 0
2, 761989, Note_on_c, 0, 60, 58
2, 761997, Note_on_c, 0, 77, 82
2, 762013, Note_on_c, 0, 60, 0
2, 762017, Note_on_c, 0, 55, 52
2, 762045, Note_on_c, 0, 55, 0
2, 762193, Note_on_c, 0, 48, 59
2, 762197, Control_c, 0, 64, 56
2, 762213, Control_c, 0, 64, 0
2, 762225, Note_on_c, 0, 48, 0
2, 762237, Control_c, 0, 64, 24
2, 762249, Control_c, 0, 64, 88
2, 762265, Control_c, 0, 64, 127
2, 762377, Note_on_c, 0, 64, 46
2, 762501, Note_on_c, 0, 64, 0
2, 762533, Note_on_c, 0, 76, 74
2, 762545, Note_on_c, 0, 77, 0
2, 762549, Note_on_c, 0, 55, 61
2, 762561, Note_on_c, 0, 60, 48
2, 762581, Note_on_c, 0, 55, 0
2, 762589, Note_on_c, 0, 60, 0
2, 762593, Note_on_c, 0, 76, 0
2, 762753, Control_c, 0, 64, 56
2, 762765, Note_on_c, 0, 48, 63
2, 762769, Control_c, 0, 64, 0
2, 762793, Control_c, 0, 64, 40
2, 762809, Control_c, 0, 64, 88
2, 762821, Control_c, 0, 64, 127
2, 762833, Note_on_c, 0, 48, 0
2, 762925, Note_on_c, 0, 60, 57
2, 763053, Note_on_c, 0, 60, 0
2, 763105, Note_on_c, 0, 84, 87
2, 763109, Note_on_c, 0, 72, 79
2, 763125, Note_on_c, 0, 58, 37
2, 763129, Note_on_c, 0, 55, 46
2, 763269, Note_on_c, 0, 55, 0
2, 763281, Control_c, 0, 64, 56
2, 763293, Control_c, 0, 64, 0
2, 763317, Note_on_c, 0, 48, 58
2, 763337, Control_c, 0, 64, 88
2, 763341, Note_on_c, 0, 48, 0
2, 763349, Control_c, 0, 64, 127
2, 763369, Note_on_c, 0, 58, 0
2, 763393, Note_on_c, 0, 72, 0
2, 763461, Note_on_c, 0, 61, 85
2, 763497, Note_on_c, 0, 84, 0
2, 763629, Note_on_c, 0, 61, 0
2, 763649, Note_on_c, 0, 58, 36
2, 763653, Note_on_c, 0, 85, 91
2, 763657, Note_on_c, 0, 73, 79
2, 763657, Note_on_c, 0, 55, 51
2, 763789, Note_on_c, 0, 55, 0
2, 763801, Note_on_c, 0, 58, 0
2, 763813, Control_c, 0, 64, 88
2, 763825, Control_c, 0, 64, 24
2, 763837, Control_c, 0, 64, 0
2, 763841, Note_on_c, 0, 48, 63
2, 763865, Control_c, 0, 64, 56
2, 763873, Note_on_c, 0, 48, 0
2, 763877, Control_c, 0, 64, 127
2, 763901, Note_on_c, 0, 73, 0
2, 763953, Note_on_c, 0, 85, 0
2, 763993, Note_on_c, 0, 62, 92
2, 764181, Note_on_c, 0, 86, 94
2, 764181, Note_on_c, 0, 55, 51
2, 764185, Note_on_c, 0, 62, 0
2, 764185, Note_on_c, 0, 58, 43
2, 764189, Note_on_c, 0, 74, 86
2, 764217, Control_c, 0, 64, 88
2, 764233, Control_c, 0, 64, 40
2, 764245, Control_c, 0, 64, 0
2, 764257, Control_c, 0, 64, 40
2, 764269, Control_c, 0, 64, 88
2, 764285, Control_c, 0, 64, 127
2, 764333, Note_on_c, 0, 74, 0
2, 764357, Note_on_c, 0, 55, 0
2, 764381, Note_on_c, 0, 48, 34
2, 764401, Note_on_c, 0, 48, 0
2, 764409, Note_on_c, 0, 58, 0
2, 764425, Note_on_c, 0, 86, 0
2, 764533, Note_on_c, 0, 67, 84
2, 764689, Note_on_c, 0, 61, 45
2, 764701, Note_on_c, 0, 58, 42
2, 764705, Note_on_c, 0, 67, 0
2, 764713, Note_on_c, 0, 61, 0
2, 764713, Note_on_c, 0, 91, 100
2, 764717, Note_on_c, 0, 79, 88
2, 764721, Note_on_c, 0, 58, 0
2, 764841, Control_c, 0, 64, 88
2, 764853, Control_c, 0, 64, 24
2, 764869, Control_c, 0, 64, 0
2, 764905, Note_on_c, 0, 48, 72
2, 764909, Control_c, 0, 64, 72
2, 764921, Control_c, 0, 64, 127
2, 764925, Note_on_c, 0, 48, 0
2, 764925, Note_on_c, 0, 79, 0
2, 764969, Note_on_c, 0, 91, 0
2, 765069, Note_on_c, 0, 72, 86
2, 765113, Note_on_c, 0, 72, 0
2, 765285, Note_on_c, 0, 96, 93
2, 765285, Note_on_c, 0, 57, 50
2, 765285, Note_on_c, 0, 84, 77
2, 765285, Note_on_c, 0, 60, 70
2, 765317, Note_on_c, 0, 57, 0
2, 765321, Note_on_c, 0, 60, 0
2, 765477, Control_c, 0, 64, 88
2, 765493, Control_c, 0, 64, 24
2, 765505, Control_c, 0, 64, 0
2, 765517, Note_on_c, 0, 48, 51
2, 765517, Control_c, 0, 64, 40
2, 765529, Note_on_c, 0, 96, 0
2, 765533, Control_c, 0, 64, 88
2, 765541, Note_on_c, 0, 48, 0
2, 765549, Control_c, 0, 64, 127
2, 765553, Note_on_c, 0, 84, 0
2, 765657, Note_on_c, 0, 65, 65
2, 765813, Note_on_c, 0, 65, 0
2, 765829, Note_on_c, 0, 89, 87
2, 765829, Note_on_c, 0, 59, 45
2, 765833, Note_on_c, 0, 56, 45
2, 765837, Note_on_c, 0, 77, 79
2, 765857, Note_on_c, 0, 59, 0
2, 765881, Note_on_c, 0, 56, 0
2, 766009, Control_c, 0, 64, 104
2, 766021, Control_c, 0, 64, 56
2, 766033, Control_c, 0, 64, 24
2, 766049, Note_on_c, 0, 48, 61
2, 766049, Control_c, 0, 64, 40
2, 766061, Control_c, 0, 64, 104
2, 766073, Note_on_c, 0, 48, 0
2, 766077, Control_c, 0, 64, 127
2, 766205, Note_on_c, 0, 65, 64
2, 766257, Note_on_c, 0, 77, 0
2, 766301, Note_on_c, 0, 89, 0
2, 766377, Note_on_c, 0, 65, 0
2, 766385, Note_on_c, 0, 60, 56
2, 766389, Note_on_c, 0, 89, 88
2, 766397, Note_on_c, 0, 77, 72
2, 766405, Note_on_c, 0, 55, 55
2, 766409, Note_on_c, 0, 60, 0
2, 766441, Note_on_c, 0, 55, 0
2, 766593, Note_on_c, 0, 48, 64
2, 766593, Control_c, 0, 64, 72
2, 766605, Control_c, 0, 64, 40
2, 766633, Control_c, 0, 64, 88
2, 766645, Control_c, 0, 64, 127
2, 766665, Note_on_c, 0, 48, 0
2, 766729, Note_on_c, 0, 77, 0
2, 766737, Note_on_c, 0, 89, 0
2, 766789, Note_on_c, 0, 64, 64
2, 766905, Note_on_c, 0, 64, 0
2, 766993, Note_on_c, 0, 88, 75
2, 767001, Note_on_c, 0, 76, 64
2, 767009, Note_on_c, 0, 55, 47
2, 767025, Note_on_c, 0, 60, 45
2, 767049, Note_on_c, 0, 88, 0
2, 767053, Note_on_c, 0, 60, 0
2, 767061, Note_on_c, 0, 55, 0
2, 767061, Note_on_c, 0, 76, 0
2, 767309, Note_on_c, 0, 80, 96
2, 767309, Control_c, 0, 64, 72
2, 767313, Note_on_c, 0, 68, 81
2, 767321, Control_c, 0, 64, 0
2, 767329, Note_on_c, 0, 41, 55
2, 767393, Note_on_c, 0, 41, 0
2, 767405, Control_c, 0, 64, 127
2, 767437, Note_on_c, 0, 80, 0
2, 767441, Note_on_c, 0, 68, 0
2, 767505, Note_on_c, 0, 56, 64
2, 767617, Note_on_c, 0, 56, 0
2, 767689, Note_on_c, 0, 72, 93
2, 767689, Note_on_c, 0, 48, 63
2, 767693, Note_on_c, 0, 60, 81
2, 767741, Note_on_c, 0, 60, 0
2, 767757, Note_on_c, 0, 72, 0
2, 767761, Note_on_c, 0, 48, 0
2, 767849, Control_c, 0, 64, 56
2, 767865, Control_c, 0, 64, 0
2, 767876, Note_on_c, 0, 71, 93
2, 767876, Note_on_c, 0, 59, 84
2, 767893, Note_on_c, 0, 41, 53
2, 767905, Control_c, 0, 64, 40
2, 767920, Note_on_c, 0, 59, 0
2, 767921, Control_c, 0, 64, 127
2, 767932, Note_on_c, 0, 71, 0
2, 767965, Note_on_c, 0, 41, 0
2, 768049, Note_on_c, 0, 74, 100
2, 768053, Note_on_c, 0, 62, 89
2, 768053, Note_on_c, 0, 55, 56
2, 768085, Note_on_c, 0, 62, 0
2, 768085, Note_on_c, 0, 74, 0
2, 768149, Note_on_c, 0, 55, 0
2, 768221, Note_on_c, 0, 47, 62
2, 768229, Note_on_c, 0, 78, 91
2, 768229, Note_on_c, 0, 66, 92
2, 768245, Note_on_c, 0, 47, 0
2, 768273, Note_on_c, 0, 66, 0
2, 768305, Note_on_c, 0, 78, 0
2, 768421, Control_c, 0, 64, 24
2, 768433, Control_c, 0, 64, 0
2, 768457, Note_on_c, 0, 79, 95
2, 768461, Note_on_c, 0, 67, 86
2, 768461, Note_on_c, 0, 40, 67
2, 768497, Note_on_c, 0, 40, 0
2, 768513, Control_c, 0, 64, 127
2, 768537, Note_on_c, 0, 79, 0
2, 768541, Note_on_c, 0, 67, 0
2, 768633, Note_on_c, 0, 55, 54
2, 768749, Note_on_c, 0, 58, 74
2, 768753, Note_on_c, 0, 70, 78
2, 768777, Note_on_c, 0, 70, 0
2, 768777, Note_on_c, 0, 48, 62
2, 768785, Note_on_c, 0, 55, 0
2, 768789, Note_on_c, 0, 58, 0
2, 768809, Note_on_c, 0, 48, 0
2, 768813, Control_c, 0, 64, 72
2, 768829, Control_c, 0, 64, 24
2, 768833, Note_on_c, 0, 58, 77
2, 768833, Note_on_c, 0, 70, 85
2, 768841, Control_c, 0, 64, 0
2, 768893, Note_on_c, 0, 58, 0
2, 768905, Note_on_c, 0, 70, 0
2, 769021, Note_on_c, 0, 70, 92
2, 769021, Note_on_c, 0, 58, 88
2, 769045, Note_on_c, 0, 41, 64
2, 769057, Control_c, 0, 64, 56
2, 769073, Control_c, 0, 64, 104
2, 769081, Note_on_c, 0, 58, 0
2, 769085, Control_c, 0, 64, 127
2, 769113, Note_on_c, 0, 70, 0
2, 769181, Control_c, 0, 64, 88
2, 769193, Control_c, 0, 64, 40
2, 769217, Note_on_c, 0, 56, 79
2, 769221, Note_on_c, 0, 68, 85
2, 769237, Note_on_c, 0, 53, 65
2, 769237, Control_c, 0, 64, 104
2, 769249, Control_c, 0, 64, 127
2, 769265, Note_on_c, 0, 56, 0
2, 769301, Note_on_c, 0, 68, 0
2, 769365, Note_on_c, 0, 53, 0
2, 769397, Note_on_c, 0, 48, 74
2, 769405, Note_on_c, 0, 41, 0
2, 769421, Note_on_c, 0, 48, 0
2, 769549, Control_c, 0, 64, 72
2, 769561, Control_c, 0, 64, 0
2, 769601, Note_on_c, 0, 77, 97
2, 769609, Note_on_c, 0, 65, 86
2, 769641, Control_c, 0, 64, 88
2, 769645, Note_on_c, 0, 32, 62
2, 769657, Control_c, 0, 64, 127
2, 769669, Note_on_c, 0, 65, 0
2, 769669, Note_on_c, 0, 77, 0
2, 769713, Note_on_c, 0, 32, 0
2, 769789, Note_on_c, 0, 48, 81
2, 769933, Note_on_c, 0, 48, 0
2, 769985, Note_on_c, 0, 65, 94
2, 769989, Note_on_c, 0, 53, 87
2, 769989, Note_on_c, 0, 41, 63
2, 770013, Note_on_c, 0, 41, 0
2, 770049, Note_on_c, 0, 53, 0
2, 770065, Note_on_c, 0, 65, 0
2, 770185, Control_c, 0, 64, 24
2, 770189, Note_on_c, 0, 54, 96
2, 770189, Note_on_c, 0, 66, 95
2, 770197, Note_on_c, 0, 34, 62
2, 770197, Control_c, 0, 64, 0
2, 770265, Control_c, 0, 64, 56
2, 770277, Control_c, 0, 64, 127
2, 770309, Note_on_c, 0, 34, 0
2, 770345, Note_on_c, 0, 66, 0
2, 770373, Note_on_c, 0, 58, 84
2, 770377, Note_on_c, 0, 49, 69
2, 770389, Note_on_c, 0, 54, 0
2, 770429, Note_on_c, 0, 58, 0
2, 770565, Note_on_c, 0, 42, 64
2, 770577, Note_on_c, 0, 73, 96
2, 770577, Note_on_c, 0, 61, 97
2, 770577, Note_on_c, 0, 37, 70
2, 770589, Note_on_c, 0, 49, 0
2, 770617, Note_on_c, 0, 61, 0
2, 770617, Note_on_c, 0, 37, 0
2, 770649, Note_on_c, 0, 73, 0
2, 770713, Control_c, 0, 64, 88
2, 770725, Control_c, 0, 64, 24
2, 770741, Control_c, 0, 64, 0
2, 770769, Note_on_c, 0, 42, 0
2, 770805, Note_on_c, 0, 72, 96
2, 770805, Note_on_c, 0, 36, 73
2, 770809, Note_on_c, 0, 60, 89
2, 770821, Control_c, 0, 64, 104
2, 770837, Control_c, 0, 64, 127
2, 770853, Note_on_c, 0, 36, 0
2, 770857, Note_on_c, 0, 60, 0
2, 770861, Note_on_c, 0, 72, 0
2, 770957, Control_c, 0, 64, 72
2, 770969, Control_c, 0, 64, 24
2, 770985, Control_c, 0, 64, 0
2, 771141, Note_on_c, 0, 64, 87
2, 771141, Note_on_c, 0, 52, 88
2, 771145, Note_on_c, 0, 58, 63
2, 771149, Note_on_c, 0, 48, 78
2, 771157, Note_on_c, 0, 36, 56
2, 771165, Note_on_c, 0, 52, 0
2, 771165, Note_on_c, 0, 64, 0
2, 771169, Note_on_c, 0, 58, 0
2, 771173, Note_on_c, 0, 48, 0
2, 771181, Note_on_c, 0, 36, 0
2, 771209, Note_on_c, 0, 64, 85
2, 771213, Note_on_c, 0, 52, 97
2, 771213, Note_on_c, 0, 58, 64
2, 771233, Note_on_c, 0, 48, 85
2, 771233, Note_on_c, 0, 36, 68
2, 771289, Note_on_c, 0, 36, 0
2, 771289, Note_on_c, 0, 52, 0
2, 771289, Note_on_c, 0, 48, 0
2, 771293, Note_on_c, 0, 58, 0
2, 771321, Note_on_c, 0, 64, 0
2, 771465, Note_on_c, 0, 65, 97
2, 771465, Note_on_c, 0, 56, 86
2, 771469, Note_on_c, 0, 53, 97
2, 771469, Note_on_c, 0, 41, 80
2, 771469, Note_on_c, 0, 48, 83
2, 771505, Note_on_c, 0, 48, 0
2, 771513, Note_on_c, 0, 41, 0
2, 771541, Control_c, 0, 64, 127
2, 771661, Control_c, 0, 64, 88
2, 771677, Control_c, 0, 64, 0
2, 771733, Note_on_c, 0, 29, 87
2, 771741, Control_c, 0, 64, 56
2, 771757, Control_c, 0, 64, 127
2, 771785, Note_on_c, 0, 29, 0
2, 771789, Note_on_c, 0, 53, 0
2, 771789, Note_on_c, 0, 56, 0
2, 771793, Note_on_c, 0, 65, 0
2, 772189, Control_c, 0, 64, 104
2, 772205, Control_c, 0, 64, 88
2, 772217, Control_c, 0, 64, 56
2, 772233, Control_c, 0, 64, 40
2, 772245, Control_c, 0, 64, 24
2, 772257, Control_c, 0, 64, 0
2, 773761, Note_on_c, 0, 44, 53
2, 773765, Note_on_c, 0, 80, 74
2, 773769, Note_on_c, 0, 68, 60
2, 773773, Control_c, 0, 64, 56
2, 773785, Control_c, 0, 64, 127
2, 773809, Note_on_c, 0, 44, 0
2, 773813, Note_on_c, 0, 68, 0
2, 773885, Note_on_c, 0, 68, 65
2, 773933, Note_on_c, 0, 68, 0
2, 773953, Note_on_c, 0, 80, 0
2, 774005, Note_on_c, 0, 51, 58
2, 774009, Note_on_c, 0, 60, 54
2, 774009, Note_on_c, 0, 72, 72
2, 774013, Note_on_c, 0, 84, 87
2, 774017, Note_on_c, 0, 56, 34
2, 774017, Control_c, 0, 64, 104
2, 774029, Control_c, 0, 64, 88
2, 774041, Note_on_c, 0, 56, 0
2, 774041, Note_on_c, 0, 72, 0
2, 774041, Note_on_c, 0, 60, 0
2, 774053, Note_on_c, 0, 51, 0
2, 774057, Control_c, 0, 64, 72
2, 774069, Control_c, 0, 64, 56
2, 774093, Control_c, 0, 64, 40
2, 774105, Control_c, 0, 64, 24
2, 774129, Note_on_c, 0, 72, 76
2, 774133, Note_on_c, 0, 51, 38
2, 774141, Note_on_c, 0, 60, 43
2, 774153, Note_on_c, 0, 72, 0
2, 774157, Control_c, 0, 64, 0
2, 774169, Note_on_c, 0, 60, 0
2, 774173, Note_on_c, 0, 51, 0
2, 774201, Note_on_c, 0, 84, 0
2, 774245, Note_on_c, 0, 83, 82
2, 774245, Note_on_c, 0, 71, 73
2, 774253, Note_on_c, 0, 56, 34
2, 774257, Note_on_c, 0, 59, 58
2, 774265, Note_on_c, 0, 50, 58
2, 774273, Control_c, 0, 64, 24
2, 774285, Control_c, 0, 64, 56
2, 774289, Note_on_c, 0, 71, 0
2, 774297, Note_on_c, 0, 50, 0
2, 774297, Control_c, 0, 64, 72
2, 774305, Note_on_c, 0, 56, 0
2, 774309, Control_c, 0, 64, 88
2, 774317, Note_on_c, 0, 59, 0
2, 774333, Note_on_c, 0, 83, 0
2, 774357, Note_on_c, 0, 71, 68
2, 774401, Control_c, 0, 64, 72
2, 774409, Note_on_c, 0, 71, 0
2, 774425, Control_c, 0, 64, 56
2, 774437, Control_c, 0, 64, 40
2, 774477, Control_c, 0, 64, 24
2, 774481, Note_on_c, 0, 84, 85
2, 774485, Note_on_c, 0, 72, 74
2, 774489, Note_on_c, 0, 56, 40
2, 774489, Note_on_c, 0, 51, 51
2, 774497, Note_on_c, 0, 60, 33
2, 774513, Note_on_c, 0, 56, 0
2, 774513, Note_on_c, 0, 72, 0
2, 774517, Note_on_c, 0, 51, 0
2, 774521, Note_on_c, 0, 60, 0
2, 774529, Control_c, 0, 64, 0
2, 774593, Note_on_c, 0, 72, 72
2, 774629, Note_on_c, 0, 84, 0
2, 774645, Note_on_c, 0, 72, 0
2, 774717, Note_on_c, 0, 44, 64
2, 774721, Control_c, 0, 64, 56
2, 774729, Note_on_c, 0, 68, 69
2, 774729, Note_on_c, 0, 80, 81
2, 774733, Control_c, 0, 64, 104
2, 774745, Control_c, 0, 64, 127
2, 774753, Note_on_c, 0, 44, 0
2, 774769, Note_on_c, 0, 68, 0
2, 774853, Note_on_c, 0, 68, 61
2, 774889, Note_on_c, 0, 68, 0
2, 774957, Note_on_c, 0, 51, 58
2, 774957, Note_on_c, 0, 60, 63
2, 774961, Note_on_c, 0, 68, 56
2, 774961, Note_on_c, 0, 56, 37
2, 774977, Note_on_c, 0, 60, 0
2, 774985, Note_on_c, 0, 56, 0
2, 774985, Note_on_c, 0, 51, 0
2, 775009, Note_on_c, 0, 68, 0
2, 775013, Control_c, 0, 64, 104
2, 775065, Note_on_c, 0, 68, 58
2, 775073, Note_on_c, 0, 60, 64
2, 775073, Note_on_c, 0, 51, 54
2, 775073, Note_on_c, 0, 56, 47
2, 775097, Note_on_c, 0, 51, 0
2, 775097, Note_on_c, 0, 60, 0
2, 775101, Note_on_c, 0, 56, 0
2, 775117, Note_on_c, 0, 68, 0
2, 775141, Control_c, 0, 64, 24
2, 775153, Control_c, 0, 64, 0
2, 775185, Note_on_c, 0, 68, 52
2, 775189, Note_on_c, 0, 59, 59
2, 775193, Note_on_c, 0, 56, 49
2, 775205, Note_on_c, 0, 50, 51
2, 775217, Control_c, 0, 64, 24
2, 775229, Control_c, 0, 64, 56
2, 775233, Note_on_c, 0, 68, 0
2, 775237, Note_on_c, 0, 56, 0
2, 775237, Note_on_c, 0, 50, 0
2, 775241, Control_c, 0, 64, 72
2, 775249, Note_on_c, 0, 59, 0
2, 775257, Control_c, 0, 64, 88
2, 775297, Note_on_c, 0, 68, 59
2, 775345, Control_c, 0, 64, 56
2, 775353, Note_on_c, 0, 68, 0
2, 775357, Control_c, 0, 64, 24
2, 775373, Control_c, 0, 64, 0
2, 775389, Note_on_c, 0, 80, 0
2, 775409, Control_c, 0, 64, 40
2, 775421, Control_c, 0, 64, 56
2, 775425, Note_on_c, 0, 79, 81
2, 775429, Note_on_c, 0, 67, 64
2, 775433, Note_on_c, 0, 55, 52
2, 775433, Note_on_c, 0, 51, 53
2, 775433, Note_on_c, 0, 60, 49
2, 775437, Control_c, 0, 64, 72
2, 775449, Control_c, 0, 64, 88
2, 775457, Note_on_c, 0, 60, 0
2, 775457, Note_on_c, 0, 55, 0
2, 775465, Note_on_c, 0, 67, 0
2, 775481, Note_on_c, 0, 51, 0
2, 775541, Note_on_c, 0, 67, 59
2, 775549, Control_c, 0, 64, 104
2, 775589, Note_on_c, 0, 67, 0
2, 775589, Note_on_c, 0, 79, 0
2, 775601, Control_c, 0, 64, 56
2, 775613, Control_c, 0, 64, 24
2, 775629, Control_c, 0, 64, 0
2, 775661, Note_on_c, 0, 44, 58
2, 775665, Note_on_c, 0, 77, 83
2, 775673, Note_on_c, 0, 65, 66
2, 775705, Control_c, 0, 64, 24
2, 775713, Note_on_c, 0, 65, 0
2, 775713, Note_on_c, 0, 44, 0
2, 775717, Control_c, 0, 64, 72
2, 775729, Control_c, 0, 64, 104
2, 775741, Control_c, 0, 64, 127
2, 775789, Note_on_c, 0, 65, 60
2, 775829, Note_on_c, 0, 65, 0
2, 775845, Control_c, 0, 64, 88
2, 775857, Note_on_c, 0, 77, 0
2, 775857, Control_c, 0, 64, 56
2, 775869, Control_c, 0, 64, 40
2, 775901, Note_on_c, 0, 55, 52
2, 775905, Note_on_c, 0, 61, 34
2, 775909, Note_on_c, 0, 79, 87
2, 775909, Note_on_c, 0, 67, 63
2, 775909, Control_c, 0, 64, 72
2, 775913, Note_on_c, 0, 56, 29
2, 775933, Note_on_c, 0, 61, 0
2, 775933, Control_c, 0, 64, 88
2, 775941, Note_on_c, 0, 55, 0
2, 775941, Note_on_c, 0, 56, 0
2, 775949, Note_on_c, 0, 67, 0
2, 776013, Note_on_c, 0, 67, 59
2, 776013, Note_on_c, 0, 55, 52
2, 776017, Note_on_c, 0, 61, 44
2, 776029, Note_on_c, 0, 56, 43
2, 776037, Control_c, 0, 64, 104
2, 776053, Note_on_c, 0, 56, 0
2, 776053, Note_on_c, 0, 61, 0
2, 776061, Note_on_c, 0, 67, 0
2, 776069, Note_on_c, 0, 55, 0
2, 776085, Control_c, 0, 64, 72
2, 776101, Control_c, 0, 64, 24
2, 776105, Note_on_c, 0, 79, 0
2, 776113, Control_c, 0, 64, 0
2, 776137, Note_on_c, 0, 68, 74
2, 776141, Note_on_c, 0, 61, 46
2, 776149, Note_on_c, 0, 80, 85
2, 776157, Note_on_c, 0, 55, 44
2, 776169, Note_on_c, 0, 53, 44
2, 776177, Control_c, 0, 64, 24
2, 776189, Control_c, 0, 64, 56
2, 776193, Note_on_c, 0, 68, 0
2, 776197, Note_on_c, 0, 55, 0
2, 776201, Note_on_c, 0, 53, 0
2, 776201, Control_c, 0, 64, 88
2, 776217, Control_c, 0, 64, 104
2, 776233, Note_on_c, 0, 80, 0
2, 776245, Note_on_c, 0, 61, 0
2, 776265, Note_on_c, 0, 68, 71
2, 776305, Control_c, 0, 64, 56
2, 776309, Note_on_c, 0, 68, 0
2, 776317, Control_c, 0, 64, 0
2, 776369, Note_on_c, 0, 61, 49
2, 776377, Note_on_c, 0, 55, 59
2, 776377, Note_on_c, 0, 52, 53
2, 776381, Note_on_c, 0, 70, 71
2, 776381, Note_on_c, 0, 82, 77
2, 776381, Control_c, 0, 64, 24
2, 776393, Control_c, 0, 64, 56
2, 776397, Note_on_c, 0, 55, 0
2, 776405, Control_c, 0, 64, 72
2, 776409, Note_on_c, 0, 61, 0
2, 776417, Control_c, 0, 64, 88
2, 776425, Note_on_c, 0, 70, 0
2, 776433, Control_c, 0, 64, 104
2, 776437, Note_on_c, 0, 52, 0
2, 776493, Note_on_c, 0, 70, 68
2, 776553, Note_on_c, 0, 70, 0
2, 776561, Control_c, 0, 64, 40
2, 776573, Control_c, 0, 64, 0
2, 776585, Note_on_c, 0, 82, 0
2, 776621, Note_on_c, 0, 72, 77
2, 776621, Note_on_c, 0, 84, 87
2, 776621, Note_on_c, 0, 44, 58
2, 776665, Control_c, 0, 64, 40
2, 776669, Note_on_c, 0, 72, 0
2, 776677, Control_c, 0, 64, 72
2, 776681, Note_on_c, 0, 44, 0
2, 776689, Control_c, 0, 64, 104
2, 776701, Control_c, 0, 64, 127
2, 776753, Note_on_c, 0, 72, 70
2, 776793, Note_on_c, 0, 72, 0
2, 776853, Note_on_c, 0, 51, 52
2, 776861, Note_on_c, 0, 60, 54
2, 776861, Note_on_c, 0, 56, 36
2, 776869, Note_on_c, 0, 72, 61
2, 776881, Control_c, 0, 64, 104
2, 776885, Note_on_c, 0, 56, 0
2, 776885, Note_on_c, 0, 60, 0
2, 776893, Note_on_c, 0, 51, 0
2, 776897, Note_on_c, 0, 72, 0
2, 776965, Note_on_c, 0, 51, 44
2, 776965, Note_on_c, 0, 72, 66
2, 776973, Note_on_c, 0, 60, 44
2, 776981, Note_on_c, 0, 56, 37
2, 777001, Note_on_c, 0, 56, 0
2, 777001, Note_on_c, 0, 60, 0
2, 777013, Note_on_c, 0, 72, 0
2, 777013, Note_on_c, 0, 51, 0
2, 777033, Control_c, 0, 64, 56
2, 777049, Control_c, 0, 64, 0
2, 777085, Note_on_c, 0, 72, 64
2, 777089, Note_on_c, 0, 56, 51
2, 777093, Note_on_c, 0, 59, 47
2, 777097, Note_on_c, 0, 50, 51
2, 777129, Note_on_c, 0, 59, 0
2, 777133, Note_on_c, 0, 72, 0
2, 777133, Note_on_c, 0, 50, 0
2, 777137, Note_on_c, 0, 56, 0
2, 777137, Control_c, 0, 64, 40
2, 777149, Control_c, 0, 64, 72
2, 777161, Control_c, 0, 64, 88
2, 777201, Note_on_c, 0, 72, 62
2, 777201, Control_c, 0, 64, 104
2, 777253, Note_on_c, 0, 72, 0
2, 777301, Control_c, 0, 64, 88
2, 777321, Note_on_c, 0, 72, 64
2, 777329, Note_on_c, 0, 56, 48
2, 777337, Note_on_c, 0, 60, 53
2, 777337, Note_on_c, 0, 51, 46
2, 777357, Note_on_c, 0, 56, 0
2, 777361, Note_on_c, 0, 60, 0
2, 777365, Note_on_c, 0, 51, 0
2, 777369, Note_on_c, 0, 72, 0
2, 777429, Note_on_c, 0, 72, 67
2, 777453, Note_on_c, 0, 84, 0
2, 777477, Note_on_c, 0, 72, 0
2, 777505, Control_c, 0, 64, 0
2, 777557, Note_on_c, 0, 80, 77
2, 777557, Note_on_c, 0, 44, 55
2, 777557, Note_on_c, 0, 68, 76
2, 777585, Control_c, 0, 64, 24
2, 777597, Note_on_c, 0, 68, 0
2, 777597, Control_c, 0, 64, 72
2, 777609, Control_c, 0, 64, 127
2, 777613, Note_on_c, 0, 44, 0
2, 777625, Note_on_c, 0, 80, 0
2, 777673, Note_on_c, 0, 68, 67
2, 777705, Note_on_c, 0, 68, 0
2, 777781, Note_on_c, 0, 84, 89
2, 777785, Note_on_c, 0, 72, 75
2, 777793, Note_on_c, 0, 60, 53
2, 777797, Note_on_c, 0, 51, 47
2, 777801, Note_on_c, 0, 56, 31
2, 777821, Note_on_c, 0, 60, 0
2, 777821, Note_on_c, 0, 72, 0
2, 777829, Note_on_c, 0, 56, 0
2, 777829, Note_on_c, 0, 51, 0
2, 777897, Note_on_c, 0, 72, 68
2, 777909, Note_on_c, 0, 51, 40
2, 777921, Note_on_c, 0, 60, 47
2, 777921, Note_on_c, 0, 56, 32
2, 777945, Note_on_c, 0, 72, 0
2, 777949, Note_on_c, 0, 60, 0
2, 777949, Note_on_c, 0, 56, 0
2, 777961, Note_on_c, 0, 51, 0
2, 777985, Note_on_c, 0, 84, 0
2, 777993, Control_c, 0, 64, 72
2, 778005, Control_c, 0, 64, 40
2, 778013, Note_on_c, 0, 83, 85
2, 778017, Note_on_c, 0, 71, 71
2, 778017, Control_c, 0, 64, 0
2, 778041, Note_on_c, 0, 59, 53
2, 778041, Note_on_c, 0, 56, 39
2, 778057, Note_on_c, 0, 50, 44
2, 778057, Control_c, 0, 64, 40
2, 778061, Note_on_c, 0, 71, 0
2, 778069, Control_c, 0, 64, 72
2, 778081, Control_c, 0, 64, 104
2, 778089, Note_on_c, 0, 56, 0
2, 778089, Note_on_c, 0, 59, 0
2, 778093, Note_on_c, 0, 50, 0
2, 778093, Control_c, 0, 64, 127
2, 778105, Note_on_c, 0, 83, 0
2, 778133, Note_on_c, 0, 71, 59
2, 778181, Note_on_c, 0, 71, 0
2, 778249, Note_on_c, 0, 84, 87
2, 778249, Note_on_c, 0, 56, 51
2, 778249, Note_on_c, 0, 51, 63
2, 778249, Control_c, 0, 64, 104
2, 778253, Note_on_c, 0, 72, 78
2, 778257, Note_on_c, 0, 60, 51
2, 778273, Note_on_c, 0, 56, 0
2, 778281, Note_on_c, 0, 60, 0
2, 778293, Note_on_c, 0, 72, 0
2, 778293, Note_on_c, 0, 51, 0
2, 778341, Note_on_c, 0, 72, 76
2, 778365, Control_c, 0, 64, 127
2, 778385, Note_on_c, 0, 72, 0
2, 778409, Note_on_c, 0, 84, 0
2, 778429, Control_c, 0, 64, 88
2, 778441, Control_c, 0, 64, 40
2, 778453, Control_c, 0, 64, 0
2, 778493, Note_on_c, 0, 80, 85
2, 778493, Note_on_c, 0, 92, 100
2, 778505, Note_on_c, 0, 41, 66
2, 778529, Control_c, 0, 64, 40
2, 778537, Note_on_c, 0, 80, 0
2, 778541, Control_c, 0, 64, 104
2, 778557, Control_c, 0, 64, 127
2, 778573, Note_on_c, 0, 41, 0
2, 778609, Note_on_c, 0, 80, 62
2, 778661, Note_on_c, 0, 80, 0
2, 778725, Note_on_c, 0, 80, 60
2, 778725, Note_on_c, 0, 56, 39
2, 778729, Note_on_c, 0, 60, 47
2, 778733, Note_on_c, 0, 53, 41
2, 778753, Note_on_c, 0, 60, 0
2, 778753, Note_on_c, 0, 56, 0
2, 778761, Note_on_c, 0, 53, 0
2, 778773, Note_on_c, 0, 80, 0
2, 778829, Note_on_c, 0, 80, 62
2, 778829, Note_on_c, 0, 53, 38
2, 778833, Note_on_c, 0, 56, 43
2, 778841, Note_on_c, 0, 60, 41
2, 778869, Note_on_c, 0, 60, 0
2, 778869, Note_on_c, 0, 56, 0
2, 778873, Note_on_c, 0, 53, 0
2, 778881, Note_on_c, 0, 80, 0
2, 778901, Control_c, 0, 64, 88
2, 778913, Control_c, 0, 64, 56
2, 778925, Control_c, 0, 64, 0
2, 778941, Note_on_c, 0, 80, 61
2, 778941, Note_on_c, 0, 56, 57
2, 778957, Note_on_c, 0, 52, 63
2, 778957, Note_on_c, 0, 60, 60
2, 778977, Control_c, 0, 64, 40
2, 778989, Control_c, 0, 64, 88
2, 778997, Note_on_c, 0, 80, 0
2, 779001, Control_c, 0, 64, 127
2, 779013, Note_on_c, 0, 52, 0
2, 779013, Note_on_c, 0, 60, 0
2, 779013, Note_on_c, 0, 56, 0
2, 779049, Note_on_c, 0, 80, 60
2, 779121, Note_on_c, 0, 80, 0
2, 779129, Control_c, 0, 64, 104
2, 779137, Note_on_c, 0, 92, 0
2, 779145, Control_c, 0, 64, 56
2, 779157, Control_c, 0, 64, 0
2, 779173, Note_on_c, 0, 91, 83
2, 779177, Note_on_c, 0, 56, 60
2, 779181, Note_on_c, 0, 79, 69
2, 779185, Note_on_c, 0, 60, 62
2, 779189, Note_on_c, 0, 53, 62
2, 779193, Control_c, 0, 64, 24
2, 779205, Control_c, 0, 64, 72
2, 779213, Note_on_c, 0, 60, 0
2, 779217, Note_on_c, 0, 79, 0
2, 779221, Note_on_c, 0, 53, 0
2, 779221, Control_c, 0, 64, 104
2, 779225, Note_on_c, 0, 56, 0
2, 779233, Control_c, 0, 64, 127
2, 779289, Note_on_c, 0, 79, 69
2, 779337, Note_on_c, 0, 79, 0
2, 779337, Note_on_c, 0, 91, 0
2, 779385, Control_c, 0, 64, 88
2, 779397, Control_c, 0, 64, 0
2, 779405, Note_on_c, 0, 46, 68
2, 779405, Note_on_c, 0, 89, 84
2, 779417, Note_on_c, 0, 77, 74
2, 779457, Note_on_c, 0, 46, 0
2, 779461, Note_on_c, 0, 77, 0
2, 779461, Control_c, 0, 64, 24
2, 779477, Control_c, 0, 64, 88
2, 779489, Control_c, 0, 64, 127
2, 779529, Note_on_c, 0, 77, 63
2, 779569, Note_on_c, 0, 77, 0
2, 779597, Note_on_c, 0, 89, 0
2, 779637, Note_on_c, 0, 56, 54
2, 779641, Note_on_c, 0, 91, 89
2, 779641, Note_on_c, 0, 62, 56
2, 779649, Note_on_c, 0, 58, 37
2, 779653, Note_on_c, 0, 79, 62
2, 779673, Note_on_c, 0, 62, 0
2, 779677, Note_on_c, 0, 58, 0
2, 779677, Note_on_c, 0, 79, 0
2, 779693, Note_on_c, 0, 56, 0
2, 779749, Note_on_c, 0, 56, 42
2, 779753, Note_on_c, 0, 79, 71
2, 779769, Note_on_c, 0, 62, 55
2, 779793, Note_on_c, 0, 62, 0
2, 779797, Note_on_c, 0, 79, 0
2, 779821, Note_on_c, 0, 56, 0
2, 779837, Note_on_c, 0, 91, 0
2, 779857, Control_c, 0, 64, 88
2, 779873, Note_on_c, 0, 92, 88
2, 779873, Note_on_c, 0, 80, 75
2, 779873, Control_c, 0, 64, 56
2, 779877, Note_on_c, 0, 55, 59
2, 779885, Note_on_c, 0, 62, 55
2, 779889, Note_on_c, 0, 58, 30
2, 779909, Control_c, 0, 64, 127
2, 779921, Note_on_c, 0, 80, 0
2, 779945, Note_on_c, 0, 55, 0
2, 779953, Note_on_c, 0, 62, 0
2, 779961, Note_on_c, 0, 58, 0
2, 779985, Note_on_c, 0, 80, 65
2, 780029, Note_on_c, 0, 80, 0
2, 780065, Control_c, 0, 64, 104
2, 780077, Note_on_c, 0, 92, 0
2, 780077, Control_c, 0, 64, 56
2, 780101, Note_on_c, 0, 62, 63
2, 780101, Control_c, 0, 64, 72
2, 780105, Note_on_c, 0, 94, 77
2, 780105, Note_on_c, 0, 58, 47
2, 780105, Note_on_c, 0, 82, 74
2, 780113, Note_on_c, 0, 53, 53
2, 780113, Control_c, 0, 64, 104
2, 780129, Control_c, 0, 64, 127
2, 780133, Note_on_c, 0, 62, 0
2, 780153, Note_on_c, 0, 53, 0
2, 780153, Note_on_c, 0, 58, 0
2, 780157, Note_on_c, 0, 82, 0
2, 780209, Note_on_c, 0, 82, 59
2, 780261, Note_on_c, 0, 82, 0
2, 780265, Note_on_c, 0, 94, 0
2, 780321, Control_c, 0, 64, 104
2, 780333, Control_c, 0, 64, 24
2, 780345, Control_c, 0, 64, 0
2, 780349, Note_on_c, 0, 39, 61
2, 780349, Note_on_c, 0, 94, 89
2, 780357, Note_on_c, 0, 82, 83
2, 780397, Note_on_c, 0, 39, 0
2, 780397, Control_c, 0, 64, 56
2, 780405, Note_on_c, 0, 82, 0
2, 780409, Control_c, 0, 64, 127
2, 780477, Note_on_c, 0, 82, 68
2, 780537, Note_on_c, 0, 82, 0
2, 780589, Note_on_c, 0, 61, 50
2, 780593, Note_on_c, 0, 82, 48
2, 780601, Note_on_c, 0, 55, 48
2, 780609, Note_on_c, 0, 51, 33
2, 780625, Note_on_c, 0, 55, 0
2, 780637, Note_on_c, 0, 61, 0
2, 780637, Note_on_c, 0, 51, 0
2, 780645, Note_on_c, 0, 82, 0
2, 780705, Note_on_c, 0, 82, 56
2, 780721, Note_on_c, 0, 61, 61
2, 780733, Note_on_c, 0, 55, 55
2, 780733, Note_on_c, 0, 51, 37
2, 780749, Note_on_c, 0, 94, 0
2, 780757, Note_on_c, 0, 55, 0
2, 780757, Note_on_c, 0, 82, 0
2, 780761, Note_on_c, 0, 51, 0
2, 780773, Note_on_c, 0, 61, 0
2, 780853, Note_on_c, 0, 87, 69
2, 780861, Note_on_c, 0, 75, 70
2, 780881, Note_on_c, 0, 60, 60
2, 780881, Control_c, 0, 64, 88
2, 780889, Note_on_c, 0, 55, 45
2, 780893, Control_c, 0, 64, 24
2, 780901, Note_on_c, 0, 51, 32
2, 780909, Note_on_c, 0, 75, 0
2, 780909, Control_c, 0, 64, 0
2, 780933, Control_c, 0, 64, 40
2, 780945, Control_c, 0, 64, 88
2, 780949, Note_on_c, 0, 60, 0
2, 780957, Note_on_c, 0, 55, 0
2, 780957, Control_c, 0, 64, 127
2, 780985, Note_on_c, 0, 51, 0
2, 780985, Note_on_c, 0, 75, 53
2, 781037, Note_on_c, 0, 75, 0
2, 781121, Note_on_c, 0, 75, 57
2, 781129, Note_on_c, 0, 58, 39
2, 781137, Note_on_c, 0, 51, 32
2, 781149, Note_on_c, 0, 55, 30
2, 781173, Note_on_c, 0, 55, 0
2, 781173, Note_on_c, 0, 75, 0
2, 781189, Note_on_c, 0, 58, 0
2, 781201, Note_on_c, 0, 51, 0
2, 781253, Note_on_c, 0, 87, 0
2, 781253, Note_on_c, 0, 75, 61
2, 781301, Note_on_c, 0, 75, 0
2, 781381, Control_c, 0, 64, 104
2, 781393, Control_c, 0, 64, 24
2, 781405, Note_on_c, 0, 80, 77
2, 781405, Note_on_c, 0, 68, 67
2, 781405, Control_c, 0, 64, 0
2, 781429, Note_on_c, 0, 44, 56
2, 781453, Note_on_c, 0, 68, 0
2, 781457, Control_c, 0, 64, 24
2, 781469, Control_c, 0, 64, 88
2, 781481, Control_c, 0, 64, 127
2, 781489, Note_on_c, 0, 44, 0
2, 781525, Note_on_c, 0, 68, 62
2, 781565, Note_on_c, 0, 68, 0
2, 781585, Note_on_c, 0, 80, 0
2, 781657, Note_on_c, 0, 84, 88
2, 781661, Note_on_c, 0, 72, 70
2, 781669, Note_on_c, 0, 60, 53
2, 781669, Note_on_c, 0, 56, 42
2, 781673, Note_on_c, 0, 51, 44
2, 781689, Note_on_c, 0, 72, 0
2, 781697, Note_on_c, 0, 56, 0
2, 781697, Note_on_c, 0, 60, 0
2, 781705, Note_on_c, 0, 51, 0
2, 781781, Note_on_c, 0, 72, 64
2, 781789, Note_on_c, 0, 51, 42
2, 781797, Note_on_c, 0, 60, 44
2, 781813, Note_on_c, 0, 72, 0
2, 781813, Note_on_c, 0, 56, 23
2, 781817, Note_on_c, 0, 51, 0
2, 781829, Note_on_c, 0, 60, 0
2, 781833, Note_on_c, 0, 56, 0
2, 781853, Note_on_c, 0, 84, 0
2, 781889, Control_c, 0, 64, 72
2, 781893, Note_on_c, 0, 83, 82
2, 781901, Note_on_c, 0, 71, 66
2, 781905, Control_c, 0, 64, 0
2, 781909, Note_on_c, 0, 56, 37
2, 781921, Note_on_c, 0, 50, 49
2, 781921, Note_on_c, 0, 59, 45
2, 781941, Control_c, 0, 64, 56
2, 781949, Note_on_c, 0, 71, 0
2, 781957, Note_on_c, 0, 59, 0
2, 781957, Control_c, 0, 64, 104
2, 781965, Control_c, 0, 64, 127
2, 781969, Note_on_c, 0, 50, 0
2, 781973, Note_on_c, 0, 56, 0
2, 782009, Note_on_c, 0, 71, 48
2, 782053, Note_on_c, 0, 71, 0
2, 782113, Note_on_c, 0, 83, 0
2, 782125, Note_on_c, 0, 84, 83
2, 782129, Note_on_c, 0, 72, 66
2, 782129, Note_on_c, 0, 56, 47
2, 782137, Note_on_c, 0, 51, 46
2, 782137, Note_on_c, 0, 60, 46
2, 782153, Note_on_c, 0, 56, 0
2, 782161, Note_on_c, 0, 51, 0
2, 782161, Note_on_c, 0, 60, 0
2, 782165, Note_on_c, 0, 72, 0
2, 782245, Note_on_c, 0, 72, 68
2, 782269, Note_on_c, 0, 84, 0
2, 782285, Note_on_c, 0, 72, 0
2, 782313, Control_c, 0, 64, 104
2, 782325, Control_c, 0, 64, 40
2, 782337, Control_c, 0, 64, 0
2, 782361, Note_on_c, 0, 44, 58
2, 782369, Note_on_c, 0, 68, 76
2, 782369, Note_on_c, 0, 80, 85
2, 782389, Control_c, 0, 64, 40
2, 782401, Control_c, 0, 64, 104
2, 782409, Note_on_c, 0, 68, 0
2, 782417, Control_c, 0, 64, 127
2, 782445, Note_on_c, 0, 44, 0
2, 782481, Note_on_c, 0, 68, 62
2, 782529, Note_on_c, 0, 68, 0
2, 782589, Note_on_c, 0, 60, 62
2, 782597, Note_on_c, 0, 51, 53
2, 782597, Note_on_c, 0, 56, 44
2, 782597, Note_on_c, 0, 68, 60
2, 782617, Note_on_c, 0, 60, 0
2, 782625, Note_on_c, 0, 56, 0
2, 782629, Note_on_c, 0, 51, 0
2, 782641, Note_on_c, 0, 68, 0
2, 782701, Note_on_c, 0, 68, 61
2, 782701, Note_on_c, 0, 51, 49
2, 782709, Note_on_c, 0, 56, 46
2, 782709, Note_on_c, 0, 60, 52
2, 782729, Note_on_c, 0, 56, 0
2, 782733, Note_on_c, 0, 60, 0
2, 782745, Note_on_c, 0, 51, 0
2, 782753, Note_on_c, 0, 68, 0
2, 782797, Control_c, 0, 64, 56
2, 782809, Control_c, 0, 64, 0
2, 782813, Note_on_c, 0, 68, 64
2, 782825, Note_on_c, 0, 56, 54
2, 782833, Note_on_c, 0, 59, 55
2, 782833, Note_on_c, 0, 50, 59
2, 782861, Control_c, 0, 64, 24
2, 782865, Note_on_c, 0, 59, 0
2, 782869, Note_on_c, 0, 68, 0
2, 782869, Note_on_c, 0, 50, 0
2, 782873, Note_on_c, 0, 56, 0
2, 782877, Control_c, 0, 64, 56
2, 782885, Control_c, 0, 64, 88
2, 782901, Control_c, 0, 64, 127
2, 782925, Note_on_c, 0, 68, 54
2, 782997, Note_on_c, 0, 68, 0
2, 783013, Note_on_c, 0, 80, 0
2, 783017, Control_c, 0, 64, 88
2, 783029, Control_c, 0, 64, 24
2, 783041, Control_c, 0, 64, 0
2, 783053, Note_on_c, 0, 79, 78
2, 783053, Note_on_c, 0, 67, 68
2, 783065, Note_on_c, 0, 55, 60
2, 783065, Note_on_c, 0, 51, 59
2, 783065, Control_c, 0, 64, 24
2, 783069, Note_on_c, 0, 60, 53
2, 783081, Control_c, 0, 64, 72
2, 783093, Note_on_c, 0, 55, 0
2, 783093, Control_c, 0, 64, 104
2, 783097, Note_on_c, 0, 60, 0
2, 783097, Note_on_c, 0, 67, 0
2, 783105, Control_c, 0, 64, 127
2, 783117, Note_on_c, 0, 51, 0
2, 783173, Note_on_c, 0, 67, 51
2, 783213, Note_on_c, 0, 67, 0
2, 783221, Note_on_c, 0, 79, 0
2, 783261, Control_c, 0, 64, 40
2, 783273, Control_c, 0, 64, 0
2, 783285, Note_on_c, 0, 44, 61
2, 783289, Note_on_c, 0, 77, 83
2, 783297, Note_on_c, 0, 65, 64
2, 783321, Control_c, 0, 64, 56
2, 783337, Note_on_c, 0, 65, 0
2, 783337, Control_c, 0, 64, 104
2, 783341, Note_on_c, 0, 44, 0
2, 783349, Control_c, 0, 64, 127
2, 783405, Note_on_c, 0, 65, 54
2, 783449, Note_on_c, 0, 65, 0
2, 783469, Note_on_c, 0, 77, 0
2, 783517, Note_on_c, 0, 61, 54
2, 783517, Note_on_c, 0, 56, 50
2, 783525, Note_on_c, 0, 55, 64
2, 783529, Note_on_c, 0, 79, 88
2, 783533, Note_on_c, 0, 67, 58
2, 783553, Note_on_c, 0, 55, 0
2, 783561, Note_on_c, 0, 67, 0
2, 783561, Note_on_c, 0, 61, 0
2, 783565, Note_on_c, 0, 56, 0
2, 783629, Note_on_c, 0, 55, 59
2, 783629, Note_on_c, 0, 67, 59
2, 783637, Note_on_c, 0, 61, 54
2, 783653, Note_on_c, 0, 56, 43
2, 783673, Note_on_c, 0, 61, 0
2, 783673, Note_on_c, 0, 67, 0
2, 783677, Note_on_c, 0, 56, 0
2, 783693, Note_on_c, 0, 55, 0
2, 783713, Note_on_c, 0, 79, 0
2, 783733, Control_c, 0, 64, 56
2, 783745, Control_c, 0, 64, 0
2, 783757, Note_on_c, 0, 61, 53
2, 783757, Note_on_c, 0, 53, 74
2, 783765, Note_on_c, 0, 68, 59
2, 783769, Note_on_c, 0, 80, 81
2, 783781, Control_c, 0, 64, 24
2, 783793, Control_c, 0, 64, 56
2, 783805, Note_on_c, 0, 68, 0
2, 783805, Control_c, 0, 64, 88
2, 783821, Control_c, 0, 64, 127
2, 783829, Note_on_c, 0, 80, 0
2, 783829, Note_on_c, 0, 53, 0
2, 783865, Note_on_c, 0, 68, 54
2, 783889, Note_on_c, 0, 61, 0
2, 783921, Note_on_c, 0, 68, 0
2, 783961, Control_c, 0, 64, 56
2, 783973, Control_c, 0, 64, 0
2, 783985, Note_on_c, 0, 61, 52
2, 783993, Note_on_c, 0, 52, 60
2, 783993, Note_on_c, 0, 55, 58
2, 783997, Note_on_c, 0, 82, 73
2, 783997, Note_on_c, 0, 70, 67
2, 784029, Note_on_c, 0, 55, 0
2, 784037, Control_c, 0, 64, 24
2, 784045, Note_on_c, 0, 70, 0
2, 784045, Note_on_c, 0, 61, 0
2, 784049, Control_c, 0, 64, 88
2, 784057, Note_on_c, 0, 52, 0
2, 784065, Control_c, 0, 64, 127
2, 784113, Note_on_c, 0, 70, 60
2, 784165, Note_on_c, 0, 70, 0
2, 784185, Note_on_c, 0, 82, 0
2, 784217, Control_c, 0, 64, 40
2, 784229, Control_c, 0, 64, 0
2, 784237, Note_on_c, 0, 84, 84
2, 784241, Note_on_c, 0, 72, 72
2, 784241, Note_on_c, 0, 44, 55
2, 784289, Note_on_c, 0, 72, 0
2, 784305, Note_on_c, 0, 44, 0
2, 784305, Control_c, 0, 64, 72
2, 784321, Control_c, 0, 64, 127
2, 784365, Note_on_c, 0, 72, 66
2, 784393, Note_on_c, 0, 72, 0
2, 784457, Note_on_c, 0, 51, 61
2, 784465, Note_on_c, 0, 60, 58
2, 784473, Note_on_c, 0, 56, 34
2, 784481, Note_on_c, 0, 72, 64
2, 784489, Note_on_c, 0, 60, 0
2, 784493, Note_on_c, 0, 56, 0
2, 784509, Note_on_c, 0, 72, 0
2, 784509, Note_on_c, 0, 51, 0
2, 784573, Note_on_c, 0, 51, 35
2, 784581, Note_on_c, 0, 60, 51
2, 784581, Note_on_c, 0, 72, 59
2, 784589, Note_on_c, 0, 56, 31
2, 784609, Note_on_c, 0, 60, 0
2, 784613, Note_on_c, 0, 56, 0
2, 784613, Note_on_c, 0, 51, 0
2, 784617, Note_on_c, 0, 72, 0
2, 784665, Control_c, 0, 64, 72
2, 784677, Control_c, 0, 64, 0
2, 784689, Note_on_c, 0, 72, 63
2, 784697, Note_on_c, 0, 59, 51
2, 784701, Note_on_c, 0, 56, 34
2, 784705, Note_on_c, 0, 50, 42
2, 784729, Control_c, 0, 64, 40
2, 784733, Note_on_c, 0, 59, 0
2, 784733, Note_on_c, 0, 72, 0
2, 784737, Note_on_c, 0, 56, 0
2, 784741, Control_c, 0, 64, 88
2, 784753, Control_c, 0, 64, 127
2, 784761, Note_on_c, 0, 50, 0
2, 784797, Note_on_c, 0, 72, 64
2, 784849, Note_on_c, 0, 72, 0
2, 784925, Note_on_c, 0, 72, 59
2, 784925, Note_on_c, 0, 56, 40
2, 784933, Note_on_c, 0, 60, 39
2, 784933, Note_on_c, 0, 51, 44
2, 784953, Note_on_c, 0, 56, 0
2, 784957, Note_on_c, 0, 60, 0
2, 784957, Note_on_c, 0, 72, 0
2, 784973, Note_on_c, 0, 51, 0
2, 785029, Note_on_c, 0, 72, 60
2, 785041, Note_on_c, 0, 84, 0
2, 785057, Note_on_c, 0, 72, 0
2, 785101, Control_c, 0, 64, 56
2, 785113, Control_c, 0, 64, 0
2, 785145, Note_on_c, 0, 68, 76
2, 785145, Note_on_c, 0, 80, 76
2, 785153, Note_on_c, 0, 44, 48
2, 785161, Control_c, 0, 64, 56
2, 785177, Control_c, 0, 64, 104
2, 785185, Note_on_c, 0, 68, 0
2, 785189, Control_c, 0, 64, 127
2, 785205, Note_on_c, 0, 80, 0
2, 785213, Note_on_c, 0, 44, 0
2, 785253, Note_on_c, 0, 68, 57
2, 785293, Note_on_c, 0, 68, 0
2, 785361, Note_on_c, 0, 51, 53
2, 785365, Note_on_c, 0, 84, 93
2, 785365, Note_on_c, 0, 72, 81
2, 785365, Note_on_c, 0, 60, 56
2, 785401, Note_on_c, 0, 60, 0
2, 785401, Note_on_c, 0, 72, 0
2, 785413, Note_on_c, 0, 51, 0
2, 785485, Note_on_c, 0, 72, 70
2, 785489, Note_on_c, 0, 51, 49
2, 785489, Note_on_c, 0, 56, 39
2, 785493, Note_on_c, 0, 60, 54
2, 785509, Note_on_c, 0, 72, 0
2, 785521, Note_on_c, 0, 56, 0
2, 785521, Note_on_c, 0, 60, 0
2, 785521, Note_on_c, 0, 51, 0
2, 785557, Note_on_c, 0, 84, 0
2, 785589, Note_on_c, 0, 83, 82
2, 785597, Note_on_c, 0, 71, 70
2, 785617, Note_on_c, 0, 50, 60
2, 785617, Note_on_c, 0, 56, 39
2, 785625, Note_on_c, 0, 59, 42
2, 785641, Note_on_c, 0, 71, 0
2, 785661, Note_on_c, 0, 59, 0
2, 785669, Note_on_c, 0, 83, 0
2, 785669, Note_on_c, 0, 50, 0
2, 785673, Note_on_c, 0, 56, 0
2, 785705, Note_on_c, 0, 71, 56
2, 785753, Note_on_c, 0, 71, 0
2, 785817, Note_on_c, 0, 84, 84
2, 785817, Note_on_c, 0, 56, 60
2, 785821, Note_on_c, 0, 72, 79
2, 785829, Note_on_c, 0, 51, 57
2, 785833, Note_on_c, 0, 60, 40
2, 785845, Note_on_c, 0, 56, 0
2, 785857, Note_on_c, 0, 60, 0
2, 785861, Note_on_c, 0, 72, 0
2, 785865, Note_on_c, 0, 51, 0
2, 785893, Note_on_c, 0, 84, 0
2, 785917, Note_on_c, 0, 72, 72
2, 785961, Note_on_c, 0, 72, 0
2, 786021, Control_c, 0, 64, 56
2, 786033, Control_c, 0, 64, 0
2, 786065, Note_on_c, 0, 92, 102
2, 786065, Note_on_c, 0, 80, 90
2, 786081, Note_on_c, 0, 41, 59
2, 786109, Note_on_c, 0, 41, 0
2, 786109, Note_on_c, 0, 80, 0
2, 786109, Control_c, 0, 64, 88
2, 786121, Control_c, 0, 64, 127
2, 786125, Note_on_c, 0, 92, 0
2, 786189, Note_on_c, 0, 80, 78
2, 786237, Note_on_c, 0, 80, 0
2, 786301, Note_on_c, 0, 56, 43
2, 786301, Note_on_c, 0, 53, 53
2, 786305, Note_on_c, 0, 80, 64
2, 786305, Note_on_c, 0, 60, 43
2, 786329, Note_on_c, 0, 56, 0
2, 786333, Note_on_c, 0, 53, 0
2, 786333, Note_on_c, 0, 60, 0
2, 786353, Note_on_c, 0, 80, 0
2, 786409, Note_on_c, 0, 80, 61
2, 786409, Note_on_c, 0, 56, 44
2, 786417, Note_on_c, 0, 53, 36
2, 786421, Note_on_c, 0, 60, 32
2, 786441, Note_on_c, 0, 56, 0
2, 786445, Note_on_c, 0, 53, 0
2, 786449, Note_on_c, 0, 60, 0
2, 786457, Note_on_c, 0, 80, 0
2, 786521, Note_on_c, 0, 56, 40
2, 786521, Note_on_c, 0, 80, 62
2, 786529, Note_on_c, 0, 52, 48
2, 786533, Note_on_c, 0, 60, 31
2, 786565, Note_on_c, 0, 52, 0
2, 786569, Note_on_c, 0, 80, 0
2, 786573, Note_on_c, 0, 60, 0
2, 786581, Note_on_c, 0, 56, 0
2, 786629, Note_on_c, 0, 80, 56
2, 786689, Note_on_c, 0, 80, 0
2, 786737, Note_on_c, 0, 91, 79
2, 786741, Note_on_c, 0, 53, 59
2, 786741, Note_on_c, 0, 60, 50
2, 786753, Note_on_c, 0, 56, 26
2, 786757, Note_on_c, 0, 79, 63
2, 786773, Note_on_c, 0, 60, 0
2, 786773, Note_on_c, 0, 53, 0
2, 786777, Note_on_c, 0, 56, 0
2, 786781, Note_on_c, 0, 79, 0
2, 786853, Note_on_c, 0, 79, 60
2, 786893, Note_on_c, 0, 91, 0
2, 786905, Note_on_c, 0, 79, 0
2, 786941, Control_c, 0, 64, 104
2, 786953, Control_c, 0, 64, 24
2, 786957, Note_on_c, 0, 46, 56
2, 786965, Control_c, 0, 64, 0
2, 786969, Note_on_c, 0, 89, 82
2, 786977, Note_on_c, 0, 77, 70
2, 786989, Control_c, 0, 64, 24
2, 787005, Note_on_c, 0, 46, 0
2, 787005, Control_c, 0, 64, 72
2, 787017, Note_on_c, 0, 77, 0
2, 787017, Control_c, 0, 64, 127
2, 787053, Note_on_c, 0, 89, 0
2, 787093, Note_on_c, 0, 77, 59
2, 787121, Note_on_c, 0, 77, 0
2, 787189, Note_on_c, 0, 56, 55
2, 787193, Note_on_c, 0, 91, 88
2, 787197, Note_on_c, 0, 62, 56
2, 787201, Note_on_c, 0, 79, 66
2, 787217, Note_on_c, 0, 58, 23
2, 787233, Note_on_c, 0, 62, 0
2, 787237, Note_on_c, 0, 79, 0
2, 787249, Note_on_c, 0, 58, 0
2, 787281, Note_on_c, 0, 56, 0
2, 787293, Note_on_c, 0, 79, 69
2, 787341, Note_on_c, 0, 79, 0
2, 787369, Note_on_c, 0, 91, 0
2, 787397, Note_on_c, 0, 62, 52
2, 787397, Note_on_c, 0, 55, 56
2, 787401, Note_on_c, 0, 58, 35
2, 787405, Note_on_c, 0, 92, 92
2, 787405, Note_on_c, 0, 80, 84
2, 787449, Note_on_c, 0, 80, 0
2, 787461, Note_on_c, 0, 62, 0
2, 787465, Note_on_c, 0, 55, 0
2, 787477, Note_on_c, 0, 92, 0
2, 787497, Note_on_c, 0, 58, 0
2, 787517, Note_on_c, 0, 80, 69
2, 787565, Note_on_c, 0, 80, 0
2, 787645, Note_on_c, 0, 82, 81
2, 787645, Note_on_c, 0, 94, 86
2, 787645, Note_on_c, 0, 58, 38
2, 787649, Note_on_c, 0, 62, 45
2, 787657, Note_on_c, 0, 53, 54
2, 787677, Note_on_c, 0, 62, 0
2, 787681, Note_on_c, 0, 58, 0
2, 787697, Note_on_c, 0, 53, 0
2, 787697, Note_on_c, 0, 82, 0
2, 787721, Note_on_c, 0, 94, 0
2, 787765, Note_on_c, 0, 82, 64
2, 787817, Note_on_c, 0, 82, 0
2, 787849, Control_c, 0, 64, 104
2, 787861, Control_c, 0, 64, 24
2, 787873, Control_c, 0, 64, 0
2, 787885, Note_on_c, 0, 39, 56
2, 787885, Note_on_c, 0, 94, 87
2, 787889, Note_on_c, 0, 82, 81
2, 787917, Note_on_c, 0, 39, 0
2, 787937, Note_on_c, 0, 82, 0
2, 787937, Control_c, 0, 64, 40
2, 787953, Control_c, 0, 64, 104
2, 787965, Control_c, 0, 64, 127
2, 788013, Note_on_c, 0, 82, 64
2, 788065, Note_on_c, 0, 82, 0
2, 788125, Note_on_c, 0, 61, 57
2, 788129, Note_on_c, 0, 82, 56
2, 788137, Note_on_c, 0, 55, 48
2, 788137, Note_on_c, 0, 51, 37
2, 788161, Note_on_c, 0, 55, 0
2, 788165, Note_on_c, 0, 61, 0
2, 788165, Note_on_c, 0, 51, 0
2, 788181, Note_on_c, 0, 82, 0
2, 788229, Note_on_c, 0, 82, 57
2, 788241, Note_on_c, 0, 61, 60
2, 788257, Note_on_c, 0, 55, 47
2, 788261, Note_on_c, 0, 51, 36
2, 788269, Note_on_c, 0, 94, 0
2, 788285, Note_on_c, 0, 55, 0
2, 788285, Note_on_c, 0, 82, 0
2, 788285, Note_on_c, 0, 61, 0
2, 788289, Note_on_c, 0, 51, 0
2, 788377, Note_on_c, 0, 87, 64
2, 788385, Note_on_c, 0, 75, 62
2, 788385, Control_c, 0, 64, 56
2, 788397, Control_c, 0, 64, 0
2, 788401, Note_on_c, 0, 60, 56
2, 788401, Note_on_c, 0, 55, 46
2, 788405, Note_on_c, 0, 51, 39
2, 788425, Note_on_c, 0, 75, 0
2, 788437, Control_c, 0, 64, 88
2, 788449, Control_c, 0, 64, 127
2, 788457, Note_on_c, 0, 60, 0
2, 788469, Note_on_c, 0, 55, 0
2, 788497, Note_on_c, 0, 51, 0
2, 788497, Note_on_c, 0, 75, 53
2, 788553, Note_on_c, 0, 75, 0
2, 788637, Note_on_c, 0, 75, 58
2, 788645, Note_on_c, 0, 58, 39
2, 788653, Note_on_c, 0, 55, 42
2, 788653, Note_on_c, 0, 51, 29
2, 788685, Note_on_c, 0, 55, 0
2, 788689, Note_on_c, 0, 75, 0
2, 788697, Note_on_c, 0, 58, 0
2, 788729, Note_on_c, 0, 51, 0
2, 788773, Note_on_c, 0, 75, 61
2, 788781, Note_on_c, 0, 87, 0
2, 788825, Note_on_c, 0, 75, 0
2, 788921, Control_c, 0, 64, 104
2, 788933, Control_c, 0, 64, 24
2, 788941, Note_on_c, 0, 80, 71
2, 788941, Note_on_c, 0, 68, 61
2, 788949, Control_c, 0, 64, 0
2, 788957, Note_on_c, 0, 44, 52
2, 788985, Note_on_c, 0, 68, 0
2, 788997, Control_c, 0, 64, 72
2, 789013, Control_c, 0, 64, 127
2, 789029, Note_on_c, 0, 44, 0
2, 789045, Note_on_c, 0, 80, 0
2, 789061, Note_on_c, 0, 68, 54
2, 789105, Note_on_c, 0, 68, 0
2, 789189, Note_on_c, 0, 83, 77
2, 789189, Note_on_c, 0, 51, 59
2, 789193, Note_on_c, 0, 71, 59
2, 789197, Note_on_c, 0, 59, 45
2, 789197, Note_on_c, 0, 56, 38
2, 789217, Note_on_c, 0, 71, 0
2, 789221, Note_on_c, 0, 56, 0
2, 789225, Note_on_c, 0, 59, 0
2, 789245, Note_on_c, 0, 83, 0
2, 789249, Note_on_c, 0, 51, 0
2, 789301, Note_on_c, 0, 71, 53
2, 789321, Note_on_c, 0, 51, 40
2, 789321, Note_on_c, 0, 56, 27
2, 789329, Note_on_c, 0, 59, 36
2, 789341, Note_on_c, 0, 71, 0
2, 789349, Note_on_c, 0, 51, 0
2, 789349, Note_on_c, 0, 56, 0
2, 789361, Note_on_c, 0, 59, 0
2, 789421, Note_on_c, 0, 82, 79
2, 789421, Note_on_c, 0, 70, 68
2, 789425, Note_on_c, 0, 59, 41
2, 789445, Note_on_c, 0, 50, 44
2, 789453, Note_on_c, 0, 56, 27
2, 789465, Note_on_c, 0, 70, 0
2, 789489, Note_on_c, 0, 56, 0
2, 789497, Note_on_c, 0, 59, 0
2, 789529, Note_on_c, 0, 70, 58
2, 789585, Note_on_c, 0, 50, 0
2, 789609, Note_on_c, 0, 70, 0
2, 789661, Note_on_c, 0, 82, 0
2, 789661, Note_on_c, 0, 83, 85
2, 789669, Note_on_c, 0, 71, 64
2, 789673, Note_on_c, 0, 56, 45
2, 789681, Note_on_c, 0, 59, 55
2, 789697, Note_on_c, 0, 51, 48
2, 789705, Note_on_c, 0, 71, 0
2, 789709, Note_on_c, 0, 59, 0
2, 789717, Note_on_c, 0, 56, 0
2, 789729, Note_on_c, 0, 51, 0
2, 789773, Note_on_c, 0, 71, 66
2, 789817, Note_on_c, 0, 71, 0
2, 789837, Note_on_c, 0, 83, 0
2, 789881, Control_c, 0, 64, 104
2, 789893, Control_c, 0, 64, 24
2, 789905, Control_c, 0, 64, 0
2, 789917, Note_on_c, 0, 85, 92
2, 789917, Note_on_c, 0, 73, 78
2, 789925, Note_on_c, 0, 40, 67
2, 789953, Note_on_c, 0, 73, 0
2, 789957, Control_c, 0, 64, 24
2, 789969, Control_c, 0, 64, 88
2, 789981, Note_on_c, 0, 85, 0
2, 789981, Control_c, 0, 64, 127
2, 790009, Note_on_c, 0, 40, 0
2, 790029, Note_on_c, 0, 73, 71
2, 790081, Note_on_c, 0, 73, 0
2, 790153, Note_on_c, 0, 73, 61
2, 790165, Note_on_c, 0, 56, 42
2, 790173, Note_on_c, 0, 61, 33
2, 790193, Note_on_c, 0, 61, 0
2, 790193, Note_on_c, 0, 56, 0
2, 790201, Note_on_c, 0, 73, 0
2, 790257, Note_on_c, 0, 73, 64
2, 790269, Note_on_c, 0, 61, 44
2, 790269, Note_on_c, 0, 52, 51
2, 790277, Note_on_c, 0, 56, 39
2, 790301, Note_on_c, 0, 56, 0
2, 790301, Note_on_c, 0, 52, 0
2, 790305, Note_on_c, 0, 61, 0
2, 790313, Note_on_c, 0, 73, 0
2, 790377, Note_on_c, 0, 73, 64
2, 790389, Note_on_c, 0, 55, 59
2, 790389, Note_on_c, 0, 61, 39
2, 790409, Note_on_c, 0, 52, 22
2, 790429, Note_on_c, 0, 73, 0
2, 790437, Note_on_c, 0, 52, 0
2, 790441, Note_on_c, 0, 61, 0
2, 790453, Note_on_c, 0, 55, 0
2, 790489, Note_on_c, 0, 73, 61
2, 790549, Note_on_c, 0, 73, 0
2, 790605, Note_on_c, 0, 83, 82
2, 790613, Note_on_c, 0, 61, 53
2, 790617, Note_on_c, 0, 56, 44
2, 790617, Note_on_c, 0, 71, 63
2, 790625, Note_on_c, 0, 52, 45
2, 790637, Note_on_c, 0, 61, 0
2, 790641, Note_on_c, 0, 71, 0
2, 790641, Note_on_c, 0, 56, 0
2, 790653, Note_on_c, 0, 52, 0
2, 790721, Note_on_c, 0, 71, 62
2, 790769, Note_on_c, 0, 71, 0
2, 790801, Note_on_c, 0, 83, 0
2, 790813, Control_c, 0, 64, 104
2, 790825, Control_c, 0, 64, 24
2, 790833, Note_on_c, 0, 82, 77
2, 790833, Note_on_c, 0, 70, 73
2, 790837, Control_c, 0, 64, 0
2, 790845, Note_on_c, 0, 42, 65
2, 790873, Note_on_c, 0, 70, 0
2, 790877, Control_c, 0, 64, 40
2, 790893, Control_c, 0, 64, 88
2, 790905, Control_c, 0, 64, 127
2, 790909, Note_on_c, 0, 82, 0
2, 790941, Note_on_c, 0, 42, 0
2, 790953, Note_on_c, 0, 70, 68
2, 790993, Note_on_c, 0, 70, 0
2, 791049, Note_on_c, 0, 61, 36
2, 791049, Note_on_c, 0, 58, 46
2, 791065, Note_on_c, 0, 73, 76
2, 791065, Note_on_c, 0, 85, 83
2, 791109, Note_on_c, 0, 73, 0
2, 791109, Note_on_c, 0, 58, 0
2, 791121, Note_on_c, 0, 61, 0
2, 791169, Note_on_c, 0, 73, 69
2, 791225, Note_on_c, 0, 73, 0
2, 791249, Note_on_c, 0, 85, 0
2, 791269, Note_on_c, 0, 52, 51
2, 791269, Note_on_c, 0, 61, 33
2, 791273, Note_on_c, 0, 84, 87
2, 791277, Note_on_c, 0, 72, 80
2, 791293, Note_on_c, 0, 57, 38
2, 791321, Note_on_c, 0, 72, 0
2, 791333, Note_on_c, 0, 57, 0
2, 791345, Note_on_c, 0, 52, 0
2, 791345, Note_on_c, 0, 61, 0
2, 791389, Note_on_c, 0, 72, 74
2, 791433, Note_on_c, 0, 72, 0
2, 791461, Note_on_c, 0, 84, 0
2, 791505, Note_on_c, 0, 85, 87
2, 791513, Note_on_c, 0, 61, 60
2, 791513, Note_on_c, 0, 73, 79
2, 791513, Note_on_c, 0, 58, 56
2, 791525, Note_on_c, 0, 52, 49
2, 791541, Note_on_c, 0, 61, 0
2, 791549, Note_on_c, 0, 58, 0
2, 791549, Note_on_c, 0, 52, 0
2, 791549, Note_on_c, 0, 73, 0
2, 791577, Note_on_c, 0, 85, 0
2, 791617, Note_on_c, 0, 73, 70
2, 791661, Note_on_c, 0, 73, 0
2, 791697, Control_c, 0, 64, 104
2, 791709, Control_c, 0, 64, 24
2, 791721, Control_c, 0, 64, 0
2, 791737, Note_on_c, 0, 87, 89
2, 791737, Note_on_c, 0, 75, 86
2, 791741, Note_on_c, 0, 43, 71
2, 791765, Note_on_c, 0, 43, 0
2, 791785, Control_c, 0, 64, 72
2, 791793, Note_on_c, 0, 75, 0
2, 791797, Control_c, 0, 64, 127
2, 791865, Note_on_c, 0, 75, 72
2, 791917, Note_on_c, 0, 75, 0
2, 791973, Note_on_c, 0, 61, 63
2, 791977, Note_on_c, 0, 51, 61
2, 791985, Note_on_c, 0, 75, 60
2, 791985, Note_on_c, 0, 58, 35
2, 792001, Note_on_c, 0, 61, 0
2, 792005, Note_on_c, 0, 58, 0
2, 792009, Note_on_c, 0, 51, 0
2, 792025, Note_on_c, 0, 75, 0
2, 792081, Note_on_c, 0, 61, 65
2, 792081, Note_on_c, 0, 75, 65
2, 792085, Note_on_c, 0, 51, 53
2, 792089, Note_on_c, 0, 58, 45
2, 792113, Note_on_c, 0, 58, 0
2, 792117, Note_on_c, 0, 51, 0
2, 792125, Note_on_c, 0, 61, 0
2, 792129, Note_on_c, 0, 75, 0
2, 792197, Note_on_c, 0, 60, 65
2, 792201, Note_on_c, 0, 75, 65
2, 792201, Note_on_c, 0, 58, 42
2, 792205, Note_on_c, 0, 51, 46
2, 792245, Note_on_c, 0, 58, 0
2, 792249, Note_on_c, 0, 75, 0
2, 792261, Note_on_c, 0, 60, 0
2, 792285, Note_on_c, 0, 51, 0
2, 792313, Note_on_c, 0, 75, 60
2, 792365, Note_on_c, 0, 75, 0
2, 792385, Note_on_c, 0, 87, 0
2, 792421, Note_on_c, 0, 58, 53
2, 792425, Note_on_c, 0, 61, 51
2, 792433, Note_on_c, 0, 51, 53
2, 792433, Note_on_c, 0, 85, 73
2, 792441, Note_on_c, 0, 73, 67
2, 792449, Note_on_c, 0, 61, 0
2, 792449, Note_on_c, 0, 58, 0
2, 792469, Note_on_c, 0, 51, 0
2, 792485, Note_on_c, 0, 73, 0
2, 792545, Note_on_c, 0, 73, 67
2, 792601, Note_on_c, 0, 73, 0
2, 792605, Note_on_c, 0, 85, 0
2, 792629, Control_c, 0, 64, 104
2, 792641, Control_c, 0, 64, 40
2, 792653, Note_on_c, 0, 84, 81
2, 792657, Control_c, 0, 64, 0
2, 792665, Note_on_c, 0, 44, 57
2, 792665, Note_on_c, 0, 72, 71
2, 792705, Note_on_c, 0, 72, 0
2, 792705, Control_c, 0, 64, 24
2, 792717, Note_on_c, 0, 44, 0
2, 792717, Control_c, 0, 64, 88
2, 792733, Control_c, 0, 64, 127
2, 792777, Note_on_c, 0, 72, 71
2, 792813, Note_on_c, 0, 84, 0
2, 792821, Note_on_c, 0, 72, 0
2, 792893, Note_on_c, 0, 80, 82
2, 792897, Note_on_c, 0, 68, 75
2, 792901, Note_on_c, 0, 60, 46
2, 792901, Note_on_c, 0, 51, 44
2, 792929, Note_on_c, 0, 51, 0
2, 792929, Note_on_c, 0, 60, 0
2, 792937, Note_on_c, 0, 68, 0
2, 793001, Note_on_c, 0, 68, 61
2, 793029, Note_on_c, 0, 51, 53
2, 793037, Note_on_c, 0, 60, 36
2, 793065, Note_on_c, 0, 68, 0
2, 793069, Note_on_c, 0, 60, 0
2, 793081, Note_on_c, 0, 51, 0
2, 793085, Note_on_c, 0, 80, 0
2, 793121, Note_on_c, 0, 79, 84
2, 793133, Note_on_c, 0, 67, 68
2, 793141, Control_c, 0, 64, 72
2, 793153, Control_c, 0, 64, 40
2, 793157, Note_on_c, 0, 52, 58
2, 793157, Note_on_c, 0, 60, 26
2, 793161, Note_on_c, 0, 67, 0
2, 793185, Note_on_c, 0, 52, 0
2, 793189, Note_on_c, 0, 60, 0
2, 793189, Control_c, 0, 64, 104
2, 793205, Control_c, 0, 64, 127
2, 793237, Note_on_c, 0, 67, 59
2, 793289, Note_on_c, 0, 67, 0
2, 793293, Note_on_c, 0, 79, 0
2, 793357, Note_on_c, 0, 77, 87
2, 793361, Note_on_c, 0, 60, 62
2, 793369, Note_on_c, 0, 53, 61
2, 793369, Note_on_c, 0, 65, 57
2, 793385, Note_on_c, 0, 60, 0
2, 793393, Note_on_c, 0, 65, 0
2, 793397, Note_on_c, 0, 53, 0
2, 793469, Note_on_c, 0, 65, 67
2, 793517, Note_on_c, 0, 65, 0
2, 793517, Note_on_c, 0, 77, 0
2, 793589, Control_c, 0, 64, 24
2, 793601, Note_on_c, 0, 75, 93
2, 793601, Note_on_c, 0, 63, 79
2, 793601, Control_c, 0, 64, 0
2, 793605, Note_on_c, 0, 34, 70
2, 793653, Note_on_c, 0, 63, 0
2, 793661, Note_on_c, 0, 34, 0
2, 793665, Control_c, 0, 64, 56
2, 793677, Control_c, 0, 64, 127
2, 793681, Note_on_c, 0, 75, 0
2, 793717, Note_on_c, 0, 75, 61
2, 793725, Note_on_c, 0, 63, 56
2, 793773, Note_on_c, 0, 63, 0
2, 793845, Note_on_c, 0, 63, 56
2, 793845, Note_on_c, 0, 58, 39
2, 793845, Note_on_c, 0, 53, 55
2, 793873, Note_on_c, 0, 53, 0
2, 793873, Note_on_c, 0, 58, 0
2, 793893, Note_on_c, 0, 63, 0
2, 793945, Note_on_c, 0, 63, 55
2, 793949, Note_on_c, 0, 58, 39
2, 793977, Note_on_c, 0, 58, 0
2, 793997, Note_on_c, 0, 63, 0
2, 794061, Control_c, 0, 64, 56
2, 794065, Note_on_c, 0, 63, 56
2, 794073, Control_c, 0, 64, 24
2, 794081, Note_on_c, 0, 53, 49
2, 794089, Note_on_c, 0, 57, 41
2, 794097, Control_c, 0, 64, 56
2, 794109, Control_c, 0, 64, 88
2, 794113, Note_on_c, 0, 63, 0
2, 794117, Note_on_c, 0, 53, 0
2, 794121, Note_on_c, 0, 57, 0
2, 794121, Control_c, 0, 64, 127
2, 794173, Note_on_c, 0, 63, 51
2, 794225, Note_on_c, 0, 63, 0
2, 794249, Note_on_c, 0, 75, 0
2, 794301, Note_on_c, 0, 58, 49
2, 794313, Note_on_c, 0, 73, 70
2, 794317, Note_on_c, 0, 53, 46
2, 794329, Note_on_c, 0, 58, 0
2, 794329, Note_on_c, 0, 61, 35
2, 794341, Note_on_c, 0, 53, 0
2, 794353, Note_on_c, 0, 61, 0
2, 794429, Note_on_c, 0, 61, 56
2, 794477, Note_on_c, 0, 61, 0
2, 794481, Note_on_c, 0, 73, 0
2, 794521, Control_c, 0, 64, 40
2, 794533, Control_c, 0, 64, 0
2, 794545, Note_on_c, 0, 70, 67
2, 794545, Note_on_c, 0, 39, 54
2, 794553, Note_on_c, 0, 58, 49
2, 794597, Note_on_c, 0, 58, 0
2, 794597, Control_c, 0, 64, 72
2, 794601, Note_on_c, 0, 39, 0
2, 794609, Control_c, 0, 64, 127
2, 794665, Note_on_c, 0, 58, 55
2, 794713, Note_on_c, 0, 58, 0
2, 794781, Note_on_c, 0, 51, 64
2, 794781, Note_on_c, 0, 56, 55
2, 794785, Note_on_c, 0, 58, 50
2, 794813, Note_on_c, 0, 51, 0
2, 794817, Note_on_c, 0, 56, 0
2, 794833, Note_on_c, 0, 58, 0
2, 794889, Note_on_c, 0, 58, 48
2, 794897, Note_on_c, 0, 56, 54
2, 794901, Note_on_c, 0, 51, 58
2, 794925, Note_on_c, 0, 51, 0
2, 794925, Note_on_c, 0, 56, 0
2, 794937, Note_on_c, 0, 58, 0
2, 794957, Note_on_c, 0, 70, 0
2, 794993, Control_c, 0, 64, 72
2, 795005, Control_c, 0, 64, 24
2, 795017, Control_c, 0, 64, 0
2, 795021, Note_on_c, 0, 75, 73
2, 795021, Note_on_c, 0, 51, 49
2, 795021, Note_on_c, 0, 63, 59
2, 795037, Note_on_c, 0, 55, 51
2, 795045, Control_c, 0, 64, 40
2, 795057, Control_c, 0, 64, 88
2, 795065, Note_on_c, 0, 63, 0
2, 795069, Note_on_c, 0, 55, 0
2, 795069, Control_c, 0, 64, 127
2, 795093, Note_on_c, 0, 51, 0
2, 795133, Note_on_c, 0, 63, 46
2, 795181, Note_on_c, 0, 63, 0
2, 795253, Note_on_c, 0, 53, 58
2, 795257, Note_on_c, 0, 63, 58
2, 795257, Note_on_c, 0, 51, 54
2, 795281, Note_on_c, 0, 51, 0
2, 795281, Note_on_c, 0, 53, 0
2, 795293, Note_on_c, 0, 63, 0
2, 795353, Note_on_c, 0, 75, 0
2, 795365, Note_on_c, 0, 63, 60
2, 795401, Note_on_c, 0, 63, 0
2, 795453, Control_c, 0, 64, 88
2, 795465, Control_c, 0, 64, 24
2, 795481, Control_c, 0, 64, 0
2, 795489, Note_on_c, 0, 72, 79
2, 795493, Note_on_c, 0, 60, 66
2, 795505, Note_on_c, 0, 32, 67
2, 795529, Control_c, 0, 64, 56
2, 795537, Note_on_c, 0, 60, 0
2, 795541, Control_c, 0, 64, 104
2, 795549, Note_on_c, 0, 32, 0
2, 795557, Control_c, 0, 64, 127
2, 795625, Note_on_c, 0, 60, 62
2, 795657, Note_on_c, 0, 60, 0
2, 795725, Note_on_c, 0, 51, 57
2, 795741, Note_on_c, 0, 60, 52
2, 795757, Note_on_c, 0, 51, 0
2, 795769, Note_on_c, 0, 60, 0
2, 795833, Note_on_c, 0, 44, 58
2, 795845, Note_on_c, 0, 51, 53
2, 795853, Note_on_c, 0, 60, 53
2, 795865, Note_on_c, 0, 72, 0
2, 795881, Note_on_c, 0, 51, 0
2, 795893, Note_on_c, 0, 44, 0
2, 795893, Note_on_c, 0, 60, 0
2, 795989, Note_on_c, 0, 71, 67
2, 795993, Control_c, 0, 64, 56
2, 795997, Note_on_c, 0, 59, 42
2, 796001, Note_on_c, 0, 43, 52
2, 796001, Note_on_c, 0, 51, 37
2, 796005, Control_c, 0, 64, 0
2, 796033, Note_on_c, 0, 59, 0
2, 796053, Control_c, 0, 64, 24
2, 796065, Note_on_c, 0, 71, 0
2, 796069, Control_c, 0, 64, 72
2, 796077, Note_on_c, 0, 51, 0
2, 796081, Control_c, 0, 64, 127
2, 796117, Note_on_c, 0, 43, 0
2, 796121, Note_on_c, 0, 59, 54
2, 796169, Note_on_c, 0, 59, 0
2, 796253, Note_on_c, 0, 59, 53
2, 796261, Note_on_c, 0, 51, 51
2, 796261, Note_on_c, 0, 44, 40
2, 796293, Note_on_c, 0, 51, 0
2, 796297, Note_on_c, 0, 59, 0
2, 796301, Note_on_c, 0, 44, 0
2, 796381, Note_on_c, 0, 59, 49
2, 796409, Note_on_c, 0, 59, 0
2, 796565, Control_c, 0, 64, 88
2, 796577, Note_on_c, 0, 68, 53
2, 796581, Note_on_c, 0, 80, 64
2, 796581, Control_c, 0, 64, 24
2, 796593, Control_c, 0, 64, 0
2, 796601, Note_on_c, 0, 68, 0
2, 796601, Note_on_c, 0, 44, 54
2, 796641, Control_c, 0, 64, 56
2, 796657, Control_c, 0, 64, 127
2, 796665, Note_on_c, 0, 44, 0
2, 796673, Note_on_c, 0, 80, 0
2, 796701, Note_on_c, 0, 68, 67
2, 796749, Note_on_c, 0, 68, 0
2, 796829, Note_on_c, 0, 51, 53
2, 796829, Note_on_c, 0, 59, 55
2, 796829, Note_on_c, 0, 56, 45
2, 796833, Note_on_c, 0, 83, 82
2, 796841, Note_on_c, 0, 71, 61
2, 796861, Note_on_c, 0, 71, 0
2, 796861, Note_on_c, 0, 59, 0
2, 796869, Note_on_c, 0, 56, 0
2, 796893, Note_on_c, 0, 51, 0
2, 796941, Note_on_c, 0, 71, 62
2, 796953, Note_on_c, 0, 51, 45
2, 796969, Note_on_c, 0, 59, 44
2, 796973, Note_on_c, 0, 56, 27
2, 796989, Note_on_c, 0, 71, 0
2, 796997, Note_on_c, 0, 59, 0
2, 796997, Note_on_c, 0, 56, 0
2, 797013, Note_on_c, 0, 51, 0
2, 797029, Note_on_c, 0, 83, 0
2, 797065, Note_on_c, 0, 70, 72
2, 797069, Note_on_c, 0, 82, 80
2, 797077, Note_on_c, 0, 59, 54
2, 797077, Note_on_c, 0, 56, 43
2, 797081, Note_on_c, 0, 50, 60
2, 797109, Note_on_c, 0, 50, 0
2, 797113, Note_on_c, 0, 70, 0
2, 797117, Note_on_c, 0, 59, 0
2, 797125, Note_on_c, 0, 56, 0
2, 797145, Note_on_c, 0, 82, 0
2, 797181, Note_on_c, 0, 70, 64
2, 797253, Note_on_c, 0, 70, 0
2, 797305, Note_on_c, 0, 83, 88
2, 797313, Note_on_c, 0, 56, 67
2, 797317, Note_on_c, 0, 71, 63
2, 797325, Note_on_c, 0, 59, 53
2, 797333, Note_on_c, 0, 51, 48
2, 797349, Note_on_c, 0, 59, 0
2, 797349, Note_on_c, 0, 71, 0
2, 797353, Note_on_c, 0, 56, 0
2, 797357, Note_on_c, 0, 51, 0
2, 797413, Note_on_c, 0, 71, 70
2, 797461, Note_on_c, 0, 71, 0
2, 797477, Note_on_c, 0, 83, 0
2, 797513, Control_c, 0, 64, 104
2, 797525, Control_c, 0, 64, 40
2, 797537, Control_c, 0, 64, 0
2, 797557, Note_on_c, 0, 85, 91
2, 797557, Note_on_c, 0, 73, 78
2, 797569, Note_on_c, 0, 40, 58
2, 797601, Control_c, 0, 64, 40
2, 797605, Note_on_c, 0, 73, 0
2, 797613, Control_c, 0, 64, 127
2, 797625, Note_on_c, 0, 40, 0
2, 797677, Note_on_c, 0, 73, 76
2, 797725, Note_on_c, 0, 73, 0
2, 797793, Note_on_c, 0, 73, 67
2, 797801, Note_on_c, 0, 61, 47
2, 797805, Note_on_c, 0, 56, 46
2, 797829, Note_on_c, 0, 52, 36
2, 797833, Note_on_c, 0, 56, 0
2, 797841, Note_on_c, 0, 61, 0
2, 797841, Note_on_c, 0, 73, 0
2, 797853, Note_on_c, 0, 52, 0
2, 797901, Note_on_c, 0, 73, 68
2, 797901, Note_on_c, 0, 61, 50
2, 797905, Note_on_c, 0, 52, 62
2, 797929, Note_on_c, 0, 52, 0
2, 797945, Note_on_c, 0, 61, 0
2, 797945, Note_on_c, 0, 73, 0
2, 798005, Note_on_c, 0, 73, 67
2, 798013, Note_on_c, 0, 55, 63
2, 798013, Note_on_c, 0, 61, 42
2, 798017, Note_on_c, 0, 52, 47
2, 798053, Note_on_c, 0, 52, 0
2, 798057, Note_on_c, 0, 73, 0
2, 798073, Note_on_c, 0, 55, 0
2, 798081, Note_on_c, 0, 61, 0
2, 798117, Note_on_c, 0, 73, 68
2, 798177, Note_on_c, 0, 73, 0
2, 798193, Note_on_c, 0, 85, 0
2, 798233, Note_on_c, 0, 83, 86
2, 798241, Note_on_c, 0, 61, 58
2, 798241, Note_on_c, 0, 71, 70
2, 798245, Note_on_c, 0, 56, 50
2, 798253, Note_on_c, 0, 52, 53
2, 798265, Note_on_c, 0, 61, 0
2, 798269, Note_on_c, 0, 56, 0
2, 798269, Note_on_c, 0, 71, 0
2, 798277, Note_on_c, 0, 52, 0
2, 798349, Note_on_c, 0, 71, 69
2, 798397, Note_on_c, 0, 71, 0
2, 798421, Note_on_c, 0, 83, 0
2, 798445, Control_c, 0, 64, 72
2, 798457, Control_c, 0, 64, 0
2, 798465, Note_on_c, 0, 82, 80
2, 798465, Note_on_c, 0, 70, 73
2, 798469, Note_on_c, 0, 42, 63
2, 798509, Note_on_c, 0, 70, 0
2, 798509, Control_c, 0, 64, 24
2, 798513, Note_on_c, 0, 42, 0
2, 798521, Control_c, 0, 64, 88
2, 798533, Control_c, 0, 64, 127
2, 798545, Note_on_c, 0, 82, 0
2, 798581, Note_on_c, 0, 70, 60
2, 798625, Note_on_c, 0, 70, 0
2, 798689, Note_on_c, 0, 61, 57
2, 798693, Note_on_c, 0, 52, 63
2, 798697, Note_on_c, 0, 73, 73
2, 798697, Note_on_c, 0, 58, 49
2, 798697, Note_on_c, 0, 85, 78
2, 798717, Note_on_c, 0, 58, 0
2, 798717, Note_on_c, 0, 52, 0
2, 798725, Note_on_c, 0, 61, 0
2, 798741, Note_on_c, 0, 73, 0
2, 798793, Note_on_c, 0, 61, 57
2, 798793, Note_on_c, 0, 52, 56
2, 798801, Note_on_c, 0, 73, 64
2, 798801, Note_on_c, 0, 58, 49
2, 798817, Note_on_c, 0, 52, 0
2, 798825, Note_on_c, 0, 58, 0
2, 798829, Note_on_c, 0, 61, 0
2, 798849, Note_on_c, 0, 73, 0
2, 798889, Note_on_c, 0, 85, 0
2, 798913, Note_on_c, 0, 84, 84
2, 798917, Note_on_c, 0, 72, 77
2, 798917, Note_on_c, 0, 61, 62
2, 798921, Note_on_c, 0, 57, 66
2, 798921, Note_on_c, 0, 52, 56
2, 798961, Note_on_c, 0, 72, 0
2, 798985, Note_on_c, 0, 57, 0
2, 798985, Note_on_c, 0, 52, 0
2, 798993, Note_on_c, 0, 61, 0
2, 799033, Note_on_c, 0, 72, 69
2, 799073, Note_on_c, 0, 72, 0
2, 799109, Note_on_c, 0, 84, 0
2, 799141, Note_on_c, 0, 61, 61
2, 799145, Note_on_c, 0, 58, 51
2, 799149, Note_on_c, 0, 85, 85
2, 799153, Note_on_c, 0, 73, 73
2, 799161, Note_on_c, 0, 52, 46
2, 799173, Note_on_c, 0, 58, 0
2, 799177, Note_on_c, 0, 61, 0
2, 799185, Note_on_c, 0, 52, 0
2, 799189, Note_on_c, 0, 73, 0
2, 799221, Note_on_c, 0, 85, 0
2, 799253, Note_on_c, 0, 73, 70
2, 799301, Note_on_c, 0, 73, 0
2, 799341, Control_c, 0, 64, 88
2, 799353, Control_c, 0, 64, 24
2, 799365, Control_c, 0, 64, 0
2, 799377, Note_on_c, 0, 75, 88
2, 799377, Note_on_c, 0, 87, 90
2, 799385, Note_on_c, 0, 43, 75
2, 799425, Note_on_c, 0, 75, 0
2, 799429, Control_c, 0, 64, 88
2, 799441, Control_c, 0, 64, 127
2, 799481, Note_on_c, 0, 43, 0
2, 799501, Note_on_c, 0, 75, 71
2, 799545, Note_on_c, 0, 75, 0
2, 799597, Note_on_c, 0, 61, 60
2, 799609, Note_on_c, 0, 51, 47
2, 799613, Note_on_c, 0, 75, 70
2, 799629, Note_on_c, 0, 51, 0
2, 799637, Note_on_c, 0, 61, 0
2, 799657, Note_on_c, 0, 75, 0
2, 799701, Note_on_c, 0, 61, 64
2, 799705, Note_on_c, 0, 51, 62
2, 799713, Note_on_c, 0, 75, 67
2, 799733, Note_on_c, 0, 51, 0
2, 799733, Note_on_c, 0, 61, 0
2, 799765, Note_on_c, 0, 75, 0
2, 799825, Note_on_c, 0, 75, 67
2, 799829, Note_on_c, 0, 58, 53
2, 799833, Note_on_c, 0, 60, 68
2, 799833, Note_on_c, 0, 51, 62
2, 799861, Note_on_c, 0, 58, 0
2, 799873, Note_on_c, 0, 75, 0
2, 799881, Note_on_c, 0, 60, 0
2, 799901, Note_on_c, 0, 51, 0
2, 799933, Note_on_c, 0, 75, 71
2, 799985, Note_on_c, 0, 75, 0
2, 800001, Note_on_c, 0, 87, 0
2, 800053, Note_on_c, 0, 85, 76
2, 800061, Note_on_c, 0, 58, 50
2, 800065, Note_on_c, 0, 73, 71
2, 800065, Note_on_c, 0, 61, 50
2, 800065, Note_on_c, 0, 51, 57
2, 800085, Note_on_c, 0, 58, 0
2, 800089, Note_on_c, 0, 61, 0
2, 800109, Note_on_c, 0, 73, 0
2, 800117, Note_on_c, 0, 51, 0
2, 800169, Note_on_c, 0, 73, 67
2, 800213, Note_on_c, 0, 73, 0
2, 800213, Note_on_c, 0, 85, 0
2, 800249, Control_c, 0, 64, 72
2, 800261, Control_c, 0, 64, 0
2, 800281, Note_on_c, 0, 84, 80
2, 800289, Note_on_c, 0, 72, 73
2, 800293, Note_on_c, 0, 44, 67
2, 800313, Control_c, 0, 64, 40
2, 800317, Note_on_c, 0, 72, 0
2, 800321, Control_c, 0, 64, 104
2, 800337, Control_c, 0, 64, 127
2, 800349, Note_on_c, 0, 44, 0
2, 800405, Note_on_c, 0, 72, 74
2, 800437, Note_on_c, 0, 72, 0
2, 800449, Note_on_c, 0, 84, 0
2, 800501, Note_on_c, 0, 51, 70
2, 800505, Note_on_c, 0, 60, 65
2, 800525, Note_on_c, 0, 80, 83
2, 800525, Note_on_c, 0, 68, 67
2, 800529, Note_on_c, 0, 60, 0
2, 800549, Note_on_c, 0, 51, 0
2, 800557, Note_on_c, 0, 68, 0
2, 800613, Note_on_c, 0, 51, 52
2, 800621, Note_on_c, 0, 68, 60
2, 800625, Note_on_c, 0, 60, 59
2, 800653, Note_on_c, 0, 60, 0
2, 800677, Note_on_c, 0, 51, 0
2, 800681, Note_on_c, 0, 68, 0
2, 800709, Note_on_c, 0, 80, 0
2, 800733, Note_on_c, 0, 79, 81
2, 800745, Control_c, 0, 64, 88
2, 800749, Note_on_c, 0, 67, 68
2, 800757, Note_on_c, 0, 52, 63
2, 800757, Note_on_c, 0, 60, 38
2, 800757, Control_c, 0, 64, 40
2, 800789, Note_on_c, 0, 67, 0
2, 800797, Control_c, 0, 64, 104
2, 800809, Note_on_c, 0, 60, 0
2, 800809, Note_on_c, 0, 52, 0
2, 800809, Control_c, 0, 64, 127
2, 800857, Note_on_c, 0, 67, 67
2, 800901, Note_on_c, 0, 67, 0
2, 800909, Note_on_c, 0, 79, 0
2, 800973, Note_on_c, 0, 53, 68
2, 800973, Note_on_c, 0, 60, 54
2, 800977, Note_on_c, 0, 77, 92
2, 800985, Note_on_c, 0, 65, 68
2, 800997, Note_on_c, 0, 60, 0
2, 800997, Note_on_c, 0, 53, 0
2, 801009, Note_on_c, 0, 65, 0
2, 801085, Note_on_c, 0, 65, 69
2, 801133, Note_on_c, 0, 65, 0
2, 801137, Note_on_c, 0, 77, 0
2, 801193, Control_c, 0, 64, 56
2, 801205, Control_c, 0, 64, 0
2, 801209, Note_on_c, 0, 34, 65
2, 801217, Note_on_c, 0, 75, 90
2, 801217, Note_on_c, 0, 63, 79
2, 801257, Note_on_c, 0, 34, 0
2, 801265, Note_on_c, 0, 63, 0
2, 801269, Control_c, 0, 64, 56
2, 801285, Control_c, 0, 64, 127
2, 801333, Note_on_c, 0, 63, 64
2, 801389, Note_on_c, 0, 63, 0
2, 801445, Note_on_c, 0, 58, 46
2, 801453, Note_on_c, 0, 53, 56
2, 801457, Note_on_c, 0, 63, 62
2, 801477, Note_on_c, 0, 53, 0
2, 801477, Note_on_c, 0, 58, 0
2, 801505, Note_on_c, 0, 63, 0
2, 801557, Note_on_c, 0, 63, 60
2, 801561, Note_on_c, 0, 58, 34
2, 801577, Note_on_c, 0, 53, 27
2, 801589, Note_on_c, 0, 58, 0
2, 801601, Note_on_c, 0, 53, 0
2, 801609, Note_on_c, 0, 63, 0
2, 801641, Control_c, 0, 64, 104
2, 801653, Control_c, 0, 64, 56
2, 801665, Control_c, 0, 64, 0
2, 801677, Note_on_c, 0, 63, 57
2, 801681, Note_on_c, 0, 57, 54
2, 801693, Note_on_c, 0, 53, 44
2, 801705, Control_c, 0, 64, 24
2, 801717, Control_c, 0, 64, 72
2, 801721, Note_on_c, 0, 53, 0
2, 801721, Note_on_c, 0, 57, 0
2, 801721, Note_on_c, 0, 63, 0
2, 801729, Control_c, 0, 64, 104
2, 801741, Control_c, 0, 64, 127
2, 801785, Note_on_c, 0, 63, 56
2, 801837, Note_on_c, 0, 63, 0
2, 801849, Note_on_c, 0, 75, 0
2, 801905, Note_on_c, 0, 58, 43
2, 801913, Note_on_c, 0, 73, 71
2, 801921, Note_on_c, 0, 61, 55
2, 801921, Note_on_c, 0, 53, 50
2, 801945, Note_on_c, 0, 53, 0
2, 801957, Note_on_c, 0, 58, 0
2, 801965, Note_on_c, 0, 61, 0
2, 802025, Note_on_c, 0, 61, 55
2, 802077, Note_on_c, 0, 61, 0
2, 802085, Note_on_c, 0, 73, 0
2, 802113, Control_c, 0, 64, 56
2, 802125, Control_c, 0, 64, 0
2, 802145, Note_on_c, 0, 70, 61
2, 802145, Note_on_c, 0, 39, 64
2, 802153, Note_on_c, 0, 58, 53
2, 802189, Control_c, 0, 64, 56
2, 802193, Note_on_c, 0, 39, 0
2, 802197, Note_on_c, 0, 58, 0
2, 802205, Control_c, 0, 64, 104
2, 802217, Control_c, 0, 64, 127
2, 802261, Note_on_c, 0, 58, 56
2, 802313, Note_on_c, 0, 58, 0
2, 802385, Note_on_c, 0, 56, 53
2, 802385, Note_on_c, 0, 58, 53
2, 802409, Note_on_c, 0, 56, 0
2, 802429, Note_on_c, 0, 58, 0
2, 802489, Note_on_c, 0, 51, 60
2, 802489, Note_on_c, 0, 58, 50
2, 802493, Note_on_c, 0, 56, 49
2, 802517, Note_on_c, 0, 56, 0
2, 802525, Note_on_c, 0, 58, 0
2, 802529, Note_on_c, 0, 51, 0
2, 802549, Note_on_c, 0, 70, 0
2, 802597, Control_c, 0, 64, 72
2, 802613, Control_c, 0, 64, 0
2, 802621, Note_on_c, 0, 63, 57
2, 802625, Note_on_c, 0, 75, 78
2, 802625, Note_on_c, 0, 55, 59
2, 802625, Note_on_c, 0, 51, 54
2, 802649, Control_c, 0, 64, 40
2, 802661, Note_on_c, 0, 63, 0
2, 802661, Control_c, 0, 64, 72
2, 802677, Control_c, 0, 64, 127
2, 802685, Note_on_c, 0, 55, 0
2, 802693, Note_on_c, 0, 51, 0
2, 802729, Note_on_c, 0, 63, 57
2, 802777, Note_on_c, 0, 63, 0
2, 802849, Note_on_c, 0, 51, 65
2, 802853, Note_on_c, 0, 63, 59
2, 802857, Note_on_c, 0, 53, 60
2, 802877, Note_on_c, 0, 53, 0
2, 802889, Note_on_c, 0, 51, 0
2, 802893, Note_on_c, 0, 63, 0
2, 802953, Note_on_c, 0, 63, 58
2, 802997, Note_on_c, 0, 75, 0
2, 803001, Note_on_c, 0, 63, 0
2, 803061, Control_c, 0, 64, 40
2, 803069, Control_c, 0, 64, 0
2, 803097, Note_on_c, 0, 72, 81
2, 803101, Note_on_c, 0, 32, 59
2, 803109, Note_on_c, 0, 60, 62
2, 803137, Control_c, 0, 64, 40
2, 803141, Note_on_c, 0, 60, 0
2, 803149, Note_on_c, 0, 32, 0
2, 803149, Control_c, 0, 64, 88
2, 803161, Control_c, 0, 64, 127
2, 803221, Note_on_c, 0, 60, 63
2, 803269, Note_on_c, 0, 60, 0
2, 803337, Note_on_c, 0, 51, 53
2, 803337, Note_on_c, 0, 44, 54
2, 803349, Note_on_c, 0, 60, 55
2, 803361, Note_on_c, 0, 51, 0
2, 803365, Note_on_c, 0, 44, 0
2, 803385, Note_on_c, 0, 60, 0
2, 803449, Note_on_c, 0, 51, 60
2, 803453, Note_on_c, 0, 60, 56
2, 803457, Note_on_c, 0, 44, 50
2, 803497, Note_on_c, 0, 51, 0
2, 803505, Note_on_c, 0, 44, 0
2, 803529, Note_on_c, 0, 60, 0
2, 803541, Note_on_c, 0, 72, 0
2, 803597, Control_c, 0, 64, 88
2, 803609, Note_on_c, 0, 71, 70
2, 803609, Note_on_c, 0, 43, 58
2, 803609, Control_c, 0, 64, 0
2, 803613, Note_on_c, 0, 59, 51
2, 803613, Note_on_c, 0, 51, 48
2, 803657, Note_on_c, 0, 59, 0
2, 803685, Note_on_c, 0, 71, 0
2, 803685, Control_c, 0, 64, 56
2, 803697, Note_on_c, 0, 43, 0
2, 803697, Note_on_c, 0, 51, 0
2, 803697, Control_c, 0, 64, 104
2, 803709, Control_c, 0, 64, 127
2, 803725, Note_on_c, 0, 59, 53
2, 803797, Note_on_c, 0, 59, 0
2, 803861, Note_on_c, 0, 59, 51
2, 803873, Note_on_c, 0, 44, 45
2, 803901, Control_c, 0, 64, 72
2, 803913, Control_c, 0, 64, 0
2, 803917, Note_on_c, 0, 59, 0
2, 803933, Note_on_c, 0, 44, 0
2, 803953, Control_c, 0, 64, 56
2, 803965, Control_c, 0, 64, 104
2, 803977, Control_c, 0, 64, 127
2, 803989, Note_on_c, 0, 59, 53
2, 804029, Note_on_c, 0, 59, 0
2, 804237, Control_c, 0, 64, 24
2, 804245, Note_on_c, 0, 35, 44
2, 804249, Control_c, 0, 64, 56
2, 804253, Note_on_c, 0, 71, 73
2, 804261, Note_on_c, 0, 47, 26
2, 804265, Control_c, 0, 64, 104
2, 804273, Note_on_c, 0, 35, 0
2, 804277, Control_c, 0, 64, 127
2, 804297, Note_on_c, 0, 47, 0
2, 804425, Note_on_c, 0, 71, 0
2, 804429, Note_on_c, 0, 59, 45
2, 804429, Note_on_c, 0, 54, 39
2, 804437, Note_on_c, 0, 66, 49
2, 804445, Note_on_c, 0, 63, 32
2, 804525, Note_on_c, 0, 63, 0
2, 804533, Note_on_c, 0, 66, 0
2, 804561, Note_on_c, 0, 75, 81
2, 804685, Note_on_c, 0, 66, 49
2, 804693, Note_on_c, 0, 75, 0
2, 804697, Note_on_c, 0, 63, 31
2, 804769, Note_on_c, 0, 63, 0
2, 804785, Note_on_c, 0, 66, 0
2, 804805, Note_on_c, 0, 74, 80
2, 804901, Note_on_c, 0, 74, 0
2, 804941, Note_on_c, 0, 66, 50
2, 804941, Note_on_c, 0, 63, 38
2, 805025, Note_on_c, 0, 63, 0
2, 805037, Note_on_c, 0, 66, 0
2, 805069, Note_on_c, 0, 75, 80
2, 805193, Note_on_c, 0, 59, 0
2, 805197, Note_on_c, 0, 66, 47
2, 805205, Note_on_c, 0, 63, 30
2, 805213, Note_on_c, 0, 75, 0
2, 805241, Note_on_c, 0, 54, 0
2, 805309, Control_c, 0, 64, 88
2, 805313, Note_on_c, 0, 63, 0
2, 805325, Control_c, 0, 64, 40
2, 805333, Note_on_c, 0, 66, 0
2, 805337, Note_on_c, 0, 47, 54
2, 805337, Control_c, 0, 64, 0
2, 805345, Note_on_c, 0, 71, 70
2, 805421, Control_c, 0, 64, 40
2, 805437, Control_c, 0, 64, 72
2, 805445, Note_on_c, 0, 47, 0
2, 805449, Control_c, 0, 64, 127
2, 805473, Note_on_c, 0, 54, 40
2, 805477, Note_on_c, 0, 66, 44
2, 805477, Note_on_c, 0, 63, 42
2, 805569, Note_on_c, 0, 54, 0
2, 805609, Note_on_c, 0, 51, 58
2, 805617, Note_on_c, 0, 63, 0
2, 805633, Note_on_c, 0, 66, 0
2, 805705, Note_on_c, 0, 51, 0
2, 805737, Note_on_c, 0, 54, 39
2, 805757, Note_on_c, 0, 66, 47
2, 805761, Note_on_c, 0, 63, 39
2, 805833, Note_on_c, 0, 54, 0
2, 805869, Note_on_c, 0, 50, 66
2, 805877, Note_on_c, 0, 63, 0
2, 805885, Note_on_c, 0, 66, 0
2, 805981, Note_on_c, 0, 50, 0
2, 806001, Note_on_c, 0, 54, 38
2, 806001, Note_on_c, 0, 66, 38
2, 806001, Note_on_c, 0, 59, 34
2, 806013, Note_on_c, 0, 71, 0
2, 806013, Note_on_c, 0, 63, 27
2, 806073, Note_on_c, 0, 59, 0
2, 806097, Note_on_c, 0, 54, 0
2, 806109, Note_on_c, 0, 63, 0
2, 806125, Note_on_c, 0, 66, 0
2, 806133, Note_on_c, 0, 51, 57
2, 806137, Note_on_c, 0, 70, 77
2, 806245, Note_on_c, 0, 51, 0
2, 806261, Note_on_c, 0, 54, 45
2, 806265, Note_on_c, 0, 66, 46
2, 806269, Note_on_c, 0, 63, 32
2, 806269, Note_on_c, 0, 59, 33
2, 806337, Note_on_c, 0, 70, 0
2, 806341, Note_on_c, 0, 59, 0
2, 806345, Note_on_c, 0, 54, 0
2, 806357, Note_on_c, 0, 63, 0
2, 806385, Control_c, 0, 64, 104
2, 806393, Note_on_c, 0, 66, 0
2, 806397, Control_c, 0, 64, 72
2, 806413, Control_c, 0, 64, 24
2, 806425, Note_on_c, 0, 68, 74
2, 806425, Control_c, 0, 64, 0
2, 806433, Note_on_c, 0, 47, 55
2, 806521, Control_c, 0, 64, 40
2, 806537, Control_c, 0, 64, 88
2, 806553, Control_c, 0, 64, 127
2, 806569, Note_on_c, 0, 56, 39
2, 806573, Note_on_c, 0, 64, 56
2, 806585, Note_on_c, 0, 59, 17
2, 806665, Note_on_c, 0, 64, 0
2, 806665, Note_on_c, 0, 68, 0
2, 806685, Note_on_c, 0, 59, 0
2, 806693, Note_on_c, 0, 56, 0
2, 806693, Note_on_c, 0, 70, 74
2, 806817, Note_on_c, 0, 64, 68
2, 806853, Note_on_c, 0, 56, 49
2, 806865, Note_on_c, 0, 70, 0
2, 806881, Note_on_c, 0, 59, 31
2, 806909, Note_on_c, 0, 64, 0
2, 806937, Note_on_c, 0, 59, 0
2, 806949, Note_on_c, 0, 71, 82
2, 806969, Note_on_c, 0, 56, 0
2, 807069, Note_on_c, 0, 47, 0
2, 807069, Note_on_c, 0, 64, 68
2, 807073, Note_on_c, 0, 56, 33
2, 807093, Note_on_c, 0, 59, 33
2, 807121, Note_on_c, 0, 56, 0
2, 807141, Note_on_c, 0, 59, 0
2, 807185, Note_on_c, 0, 71, 0
2, 807193, Note_on_c, 0, 64, 0
2, 807205, Control_c, 0, 64, 88
2, 807217, Note_on_c, 0, 73, 86
2, 807221, Control_c, 0, 64, 56
2, 807233, Note_on_c, 0, 46, 65
2, 807233, Control_c, 0, 64, 0
2, 807313, Note_on_c, 0, 46, 0
2, 807333, Control_c, 0, 64, 56
2, 807345, Control_c, 0, 64, 104
2, 807361, Note_on_c, 0, 64, 47
2, 807361, Control_c, 0, 64, 127
2, 807365, Note_on_c, 0, 54, 46
2, 807373, Note_on_c, 0, 61, 30
2, 807417, Note_on_c, 0, 73, 0
2, 807429, Note_on_c, 0, 61, 0
2, 807441, Note_on_c, 0, 64, 0
2, 807445, Note_on_c, 0, 54, 0
2, 807509, Note_on_c, 0, 75, 82
2, 807521, Note_on_c, 0, 47, 60
2, 807525, Control_c, 0, 64, 104
2, 807541, Control_c, 0, 64, 56
2, 807557, Control_c, 0, 64, 0
2, 807633, Note_on_c, 0, 47, 0
2, 807645, Note_on_c, 0, 54, 32
2, 807653, Note_on_c, 0, 63, 35
2, 807653, Control_c, 0, 64, 40
2, 807661, Note_on_c, 0, 66, 38
2, 807669, Note_on_c, 0, 59, 35
2, 807669, Control_c, 0, 64, 88
2, 807681, Control_c, 0, 64, 127
2, 807725, Note_on_c, 0, 59, 0
2, 807729, Note_on_c, 0, 54, 0
2, 807741, Note_on_c, 0, 66, 0
2, 807769, Note_on_c, 0, 63, 0
2, 807789, Note_on_c, 0, 49, 62
2, 807897, Note_on_c, 0, 49, 0
2, 807917, Note_on_c, 0, 54, 42
2, 807917, Note_on_c, 0, 63, 40
2, 807921, Note_on_c, 0, 66, 45
2, 807933, Note_on_c, 0, 59, 37
2, 807993, Note_on_c, 0, 59, 0
2, 807993, Note_on_c, 0, 54, 0
2, 808037, Note_on_c, 0, 66, 0
2, 808053, Note_on_c, 0, 51, 63
2, 808057, Note_on_c, 0, 63, 0
2, 808149, Note_on_c, 0, 51, 0
2, 808177, Note_on_c, 0, 54, 43
2, 808181, Note_on_c, 0, 63, 30
2, 808189, Note_on_c, 0, 66, 36
2, 808193, Note_on_c, 0, 59, 35
2, 808253, Note_on_c, 0, 59, 0
2, 808269, Note_on_c, 0, 54, 0
2, 808309, Note_on_c, 0, 52, 70
2, 808329, Note_on_c, 0, 63, 0
2, 808341, Note_on_c, 0, 66, 0
2, 808421, Control_c, 0, 64, 104
2, 808429, Note_on_c, 0, 63, 38
2, 808445, Note_on_c, 0, 66, 40
2, 808445, Note_on_c, 0, 59, 46
2, 808501, Note_on_c, 0, 52, 0
2, 808537, Note_on_c, 0, 59, 0
2, 808541, Note_on_c, 0, 75, 0
2, 808565, Note_on_c, 0, 63, 0
2, 808577, Note_on_c, 0, 66, 0
2, 808589, Control_c, 0, 64, 72
2, 808597, Note_on_c, 0, 54, 68
2, 808601, Note_on_c, 0, 71, 68
2, 808601, Control_c, 0, 64, 40
2, 808617, Control_c, 0, 64, 0
2, 808729, Control_c, 0, 64, 24
2, 808733, Note_on_c, 0, 59, 52
2, 808737, Note_on_c, 0, 63, 33
2, 808741, Control_c, 0, 64, 72
2, 808745, Note_on_c, 0, 66, 39
2, 808753, Control_c, 0, 64, 127
2, 808845, Note_on_c, 0, 63, 0
2, 808845, Note_on_c, 0, 71, 0
2, 808865, Note_on_c, 0, 66, 0
2, 808881, Note_on_c, 0, 75, 84
2, 808913, Note_on_c, 0, 59, 0
2, 809005, Note_on_c, 0, 63, 37
2, 809017, Note_on_c, 0, 66, 50
2, 809041, Note_on_c, 0, 59, 48
2, 809045, Note_on_c, 0, 75, 0
2, 809101, Note_on_c, 0, 63, 0
2, 809121, Note_on_c, 0, 66, 0
2, 809145, Note_on_c, 0, 74, 87
2, 809153, Note_on_c, 0, 59, 0
2, 809265, Note_on_c, 0, 74, 0
2, 809273, Note_on_c, 0, 66, 57
2, 809273, Note_on_c, 0, 63, 46
2, 809313, Note_on_c, 0, 59, 54
2, 809349, Note_on_c, 0, 59, 0
2, 809373, Note_on_c, 0, 63, 0
2, 809389, Note_on_c, 0, 66, 0
2, 809405, Note_on_c, 0, 75, 87
2, 809525, Note_on_c, 0, 63, 51
2, 809541, Note_on_c, 0, 66, 63
2, 809549, Note_on_c, 0, 54, 0
2, 809553, Note_on_c, 0, 59, 39
2, 809573, Note_on_c, 0, 63, 0
2, 809581, Note_on_c, 0, 66, 0
2, 809589, Note_on_c, 0, 59, 0
2, 809597, Note_on_c, 0, 75, 0
2, 809705, Control_c, 0, 64, 104
2, 809713, Note_on_c, 0, 83, 92
2, 809717, Control_c, 0, 64, 72
2, 809729, Note_on_c, 0, 47, 55
2, 809733, Control_c, 0, 64, 40
2, 809745, Control_c, 0, 64, 0
2, 809841, Control_c, 0, 64, 40
2, 809849, Note_on_c, 0, 75, 57
2, 809849, Note_on_c, 0, 71, 45
2, 809857, Note_on_c, 0, 47, 0
2, 809857, Control_c, 0, 64, 104
2, 809865, Note_on_c, 0, 59, 29
2, 809869, Note_on_c, 0, 56, 43
2, 809869, Control_c, 0, 64, 127
2, 809929, Note_on_c, 0, 59, 0
2, 809945, Note_on_c, 0, 71, 0
2, 809969, Note_on_c, 0, 56, 0
2, 809973, Note_on_c, 0, 75, 0
2, 809989, Note_on_c, 0, 51, 57
2, 810085, Note_on_c, 0, 51, 0
2, 810117, Note_on_c, 0, 56, 45
2, 810121, Note_on_c, 0, 75, 51
2, 810129, Note_on_c, 0, 71, 38
2, 810133, Note_on_c, 0, 59, 26
2, 810197, Note_on_c, 0, 59, 0
2, 810209, Note_on_c, 0, 56, 0
2, 810249, Note_on_c, 0, 50, 67
2, 810253, Note_on_c, 0, 71, 0
2, 810285, Note_on_c, 0, 75, 0
2, 810345, Note_on_c, 0, 50, 0
2, 810365, Note_on_c, 0, 56, 51
2, 810389, Note_on_c, 0, 71, 50
2, 810389, Note_on_c, 0, 59, 24
2, 810393, Note_on_c, 0, 75, 51
2, 810421, Note_on_c, 0, 83, 0
2, 810429, Note_on_c, 0, 59, 0
2, 810477, Note_on_c, 0, 71, 0
2, 810505, Note_on_c, 0, 75, 0
2, 810509, Note_on_c, 0, 56, 0
2, 810517, Note_on_c, 0, 82, 87
2, 810521, Note_on_c, 0, 51, 56
2, 810641, Note_on_c, 0, 51, 0
2, 810641, Note_on_c, 0, 71, 57
2, 810645, Note_on_c, 0, 59, 60
2, 810645, Note_on_c, 0, 75, 55
2, 810673, Note_on_c, 0, 59, 0
2, 810709, Note_on_c, 0, 71, 0
2, 810729, Note_on_c, 0, 82, 0
2, 810765, Note_on_c, 0, 75, 0
2, 810821, Note_on_c, 0, 80, 85
2, 810833, Control_c, 0, 64, 104
2, 810845, Control_c, 0, 64, 72
2, 810861, Control_c, 0, 64, 40
2, 810869, Note_on_c, 0, 59, 50
2, 810877, Control_c, 0, 64, 0
2, 810973, Control_c, 0, 64, 72
2, 810977, Note_on_c, 0, 68, 53
2, 810977, Note_on_c, 0, 73, 39
2, 810989, Note_on_c, 0, 65, 51
2, 810989, Control_c, 0, 64, 127
2, 810997, Note_on_c, 0, 77, 65
2, 811025, Note_on_c, 0, 61, 23
2, 811065, Note_on_c, 0, 65, 0
2, 811065, Note_on_c, 0, 68, 0
2, 811081, Note_on_c, 0, 73, 0
2, 811081, Note_on_c, 0, 80, 0
2, 811085, Note_on_c, 0, 61, 0
2, 811093, Note_on_c, 0, 77, 0
2, 811105, Note_on_c, 0, 82, 86
2, 811225, Note_on_c, 0, 73, 50
2, 811233, Note_on_c, 0, 77, 72
2, 811253, Note_on_c, 0, 82, 0
2, 811253, Note_on_c, 0, 68, 34
2, 811281, Note_on_c, 0, 65, 27
2, 811285, Note_on_c, 0, 61, 37
2, 811321, Note_on_c, 0, 65, 0
2, 811329, Note_on_c, 0, 73, 0
2, 811345, Note_on_c, 0, 68, 0
2, 811349, Note_on_c, 0, 77, 0
2, 811361, Note_on_c, 0, 61, 0
2, 811365, Note_on_c, 0, 83, 90
2, 811473, Note_on_c, 0, 83, 0
2, 811489, Note_on_c, 0, 77, 70
2, 811489, Note_on_c, 0, 73, 54
2, 811493, Note_on_c, 0, 68, 46
2, 811505, Note_on_c, 0, 61, 38
2, 811513, Note_on_c, 0, 65, 38
2, 811529, Note_on_c, 0, 59, 0
2, 811553, Note_on_c, 0, 65, 0
2, 811581, Note_on_c, 0, 73, 0
2, 811597, Note_on_c, 0, 77, 0
2, 811613, Note_on_c, 0, 68, 0
2, 811617, Note_on_c, 0, 61, 0
2, 811625, Note_on_c, 0, 84, 93
2, 811629, Control_c, 0, 64, 88
2, 811641, Control_c, 0, 64, 56
2, 811657, Control_c, 0, 64, 40
2, 811661, Note_on_c, 0, 59, 64
2, 811725, Control_c, 0, 64, 88
2, 811741, Control_c, 0, 64, 104
2, 811749, Note_on_c, 0, 84, 0
2, 811753, Note_on_c, 0, 59, 0
2, 811757, Note_on_c, 0, 77, 69
2, 811757, Note_on_c, 0, 73, 48
2, 811757, Control_c, 0, 64, 127
2, 811777, Note_on_c, 0, 68, 32
2, 811789, Note_on_c, 0, 61, 30
2, 811805, Note_on_c, 0, 65, 19
2, 811833, Note_on_c, 0, 65, 0
2, 811833, Note_on_c, 0, 77, 0
2, 811853, Note_on_c, 0, 73, 0
2, 811865, Note_on_c, 0, 61, 0
2, 811873, Note_on_c, 0, 68, 0
2, 811893, Control_c, 0, 64, 88
2, 811901, Note_on_c, 0, 85, 86
2, 811909, Control_c, 0, 64, 40
2, 811921, Control_c, 0, 64, 0
2, 811929, Note_on_c, 0, 58, 60
2, 812005, Control_c, 0, 64, 56
2, 812017, Control_c, 0, 64, 104
2, 812033, Note_on_c, 0, 58, 0
2, 812033, Note_on_c, 0, 78, 64
2, 812033, Note_on_c, 0, 73, 49
2, 812033, Control_c, 0, 64, 127
2, 812049, Note_on_c, 0, 66, 50
2, 812069, Note_on_c, 0, 70, 31
2, 812141, Note_on_c, 0, 70, 0
2, 812153, Note_on_c, 0, 73, 0
2, 812153, Note_on_c, 0, 66, 0
2, 812177, Note_on_c, 0, 78, 0
2, 812181, Note_on_c, 0, 59, 64
2, 812293, Note_on_c, 0, 78, 56
2, 812301, Note_on_c, 0, 59, 0
2, 812301, Note_on_c, 0, 66, 38
2, 812305, Note_on_c, 0, 73, 35
2, 812313, Note_on_c, 0, 70, 28
2, 812401, Note_on_c, 0, 70, 0
2, 812401, Note_on_c, 0, 66, 0
2, 812417, Note_on_c, 0, 73, 0
2, 812433, Note_on_c, 0, 61, 63
2, 812445, Note_on_c, 0, 78, 0
2, 812541, Note_on_c, 0, 61, 0
2, 812561, Note_on_c, 0, 78, 48
2, 812561, Note_on_c, 0, 73, 39
2, 812565, Note_on_c, 0, 70, 42
2, 812569, Note_on_c, 0, 66, 44
2, 812633, Note_on_c, 0, 85, 0
2, 812653, Note_on_c, 0, 66, 0
2, 812653, Note_on_c, 0, 73, 0
2, 812661, Note_on_c, 0, 70, 0
2, 812673, Note_on_c, 0, 78, 0
2, 812689, Control_c, 0, 64, 104
2, 812697, Note_on_c, 0, 83, 81
2, 812705, Note_on_c, 0, 62, 64
2, 812765, Note_on_c, 0, 82, 6
2, 812789, Note_on_c, 0, 83, 0
2, 812813, Note_on_c, 0, 82, 0
2, 812821, Note_on_c, 0, 62, 0
2, 812825, Note_on_c, 0, 68, 39
2, 812829, Note_on_c, 0, 71, 51
2, 812833, Note_on_c, 0, 77, 68
2, 812841, Note_on_c, 0, 65, 46
2, 812869, Note_on_c, 0, 71, 0
2, 812877, Note_on_c, 0, 65, 0
2, 812905, Note_on_c, 0, 68, 0
2, 812921, Note_on_c, 0, 77, 0
2, 812953, Control_c, 0, 64, 56
2, 812961, Note_on_c, 0, 82, 84
2, 812969, Control_c, 0, 64, 0
2, 812989, Note_on_c, 0, 63, 60
2, 813065, Control_c, 0, 64, 40
2, 813081, Control_c, 0, 64, 104
2, 813089, Note_on_c, 0, 66, 50
2, 813093, Control_c, 0, 64, 127
2, 813101, Note_on_c, 0, 78, 67
2, 813109, Note_on_c, 0, 70, 46
2, 813149, Note_on_c, 0, 82, 0
2, 813193, Note_on_c, 0, 70, 0
2, 813205, Note_on_c, 0, 66, 0
2, 813221, Note_on_c, 0, 78, 0
2, 813233, Note_on_c, 0, 84, 87
2, 813349, Note_on_c, 0, 72, 53
2, 813353, Note_on_c, 0, 84, 0
2, 813361, Note_on_c, 0, 78, 69
2, 813369, Note_on_c, 0, 66, 52
2, 813401, Note_on_c, 0, 72, 0
2, 813457, Note_on_c, 0, 66, 0
2, 813473, Note_on_c, 0, 78, 0
2, 813485, Note_on_c, 0, 85, 86
2, 813617, Note_on_c, 0, 85, 0
2, 813621, Note_on_c, 0, 78, 68
2, 813621, Note_on_c, 0, 73, 69
2, 813629, Note_on_c, 0, 66, 56
2, 813665, Note_on_c, 0, 73, 0
2, 813733, Note_on_c, 0, 63, 0
2, 813737, Control_c, 0, 64, 88
2, 813741, Note_on_c, 0, 78, 0
2, 813749, Control_c, 0, 64, 40
2, 813761, Note_on_c, 0, 86, 91
2, 813765, Note_on_c, 0, 66, 0
2, 813765, Control_c, 0, 64, 0
2, 813777, Note_on_c, 0, 61, 57
2, 813833, Control_c, 0, 64, 24
2, 813845, Control_c, 0, 64, 56
2, 813861, Control_c, 0, 64, 104
2, 813873, Control_c, 0, 64, 127
2, 813885, Note_on_c, 0, 74, 63
2, 813893, Note_on_c, 0, 78, 61
2, 813897, Note_on_c, 0, 86, 0
2, 813905, Note_on_c, 0, 70, 37
2, 813909, Note_on_c, 0, 61, 0
2, 813909, Note_on_c, 0, 66, 40
2, 813941, Note_on_c, 0, 74, 0
2, 813993, Note_on_c, 0, 78, 0
2, 814009, Note_on_c, 0, 70, 0
2, 814013, Note_on_c, 0, 66, 0
2, 814025, Control_c, 0, 64, 72
2, 814033, Note_on_c, 0, 87, 96
2, 814041, Control_c, 0, 64, 0
2, 814057, Note_on_c, 0, 60, 63
2, 814125, Control_c, 0, 64, 40
2, 814141, Control_c, 0, 64, 88
2, 814153, Control_c, 0, 64, 127
2, 814169, Note_on_c, 0, 75, 54
2, 814173, Note_on_c, 0, 78, 62
2, 814177, Note_on_c, 0, 66, 48
2, 814181, Note_on_c, 0, 60, 0
2, 814197, Note_on_c, 0, 63, 49
2, 814225, Note_on_c, 0, 87, 0
2, 814229, Note_on_c, 0, 63, 0
2, 814245, Note_on_c, 0, 66, 0
2, 814285, Note_on_c, 0, 75, 0
2, 814293, Note_on_c, 0, 78, 0
2, 814305, Control_c, 0, 64, 104
2, 814309, Note_on_c, 0, 80, 87
2, 814321, Control_c, 0, 64, 40
2, 814333, Control_c, 0, 64, 0
2, 814337, Note_on_c, 0, 59, 54
2, 814417, Control_c, 0, 64, 40
2, 814433, Control_c, 0, 64, 104
2, 814437, Note_on_c, 0, 59, 0
2, 814445, Control_c, 0, 64, 127
2, 814449, Note_on_c, 0, 73, 36
2, 814461, Note_on_c, 0, 68, 40
2, 814465, Note_on_c, 0, 65, 46
2, 814469, Note_on_c, 0, 77, 59
2, 814501, Note_on_c, 0, 65, 0
2, 814529, Note_on_c, 0, 68, 0
2, 814549, Note_on_c, 0, 77, 0
2, 814557, Note_on_c, 0, 73, 0
2, 814585, Control_c, 0, 64, 104
2, 814589, Note_on_c, 0, 85, 82
2, 814601, Control_c, 0, 64, 56
2, 814613, Note_on_c, 0, 58, 52
2, 814613, Control_c, 0, 64, 0
2, 814633, Note_on_c, 0, 80, 0
2, 814697, Control_c, 0, 64, 56
2, 814713, Control_c, 0, 64, 104
2, 814725, Control_c, 0, 64, 127
2, 814729, Note_on_c, 0, 66, 44
2, 814729, Note_on_c, 0, 78, 53
2, 814737, Note_on_c, 0, 58, 0
2, 814737, Note_on_c, 0, 73, 36
2, 814757, Note_on_c, 0, 70, 31
2, 814809, Note_on_c, 0, 85, 0
2, 814821, Note_on_c, 0, 73, 0
2, 814829, Note_on_c, 0, 70, 0
2, 814829, Note_on_c, 0, 66, 0
2, 814849, Note_on_c, 0, 78, 0
2, 814849, Control_c, 0, 64, 88
2, 814861, Note_on_c, 0, 83, 83
2, 814865, Control_c, 0, 64, 24
2, 814869, Note_on_c, 0, 59, 57
2, 814877, Control_c, 0, 64, 0
2, 814949, Control_c, 0, 64, 40
2, 814961, Control_c, 0, 64, 88
2, 814977, Control_c, 0, 64, 127
2, 814993, Note_on_c, 0, 73, 36
2, 814993, Note_on_c, 0, 66, 37
2, 815001, Note_on_c, 0, 78, 53
2, 815005, Note_on_c, 0, 70, 26
2, 815013, Note_on_c, 0, 59, 0
2, 815033, Note_on_c, 0, 83, 0
2, 815057, Note_on_c, 0, 70, 0
2, 815073, Note_on_c, 0, 66, 0
2, 815101, Note_on_c, 0, 73, 0
2, 815113, Note_on_c, 0, 78, 0
2, 815129, Note_on_c, 0, 80, 86
2, 815129, Control_c, 0, 64, 56
2, 815141, Note_on_c, 0, 61, 49
2, 815145, Control_c, 0, 64, 0
2, 815241, Control_c, 0, 64, 40
2, 815253, Control_c, 0, 64, 88
2, 815265, Note_on_c, 0, 66, 46
2, 815269, Note_on_c, 0, 68, 38
2, 815269, Control_c, 0, 64, 127
2, 815273, Note_on_c, 0, 78, 52
2, 815273, Note_on_c, 0, 73, 37
2, 815373, Note_on_c, 0, 80, 0
2, 815389, Note_on_c, 0, 73, 0
2, 815401, Note_on_c, 0, 78, 0
2, 815409, Note_on_c, 0, 66, 0
2, 815413, Note_on_c, 0, 81, 81
2, 815453, Note_on_c, 0, 68, 0
2, 815549, Note_on_c, 0, 73, 36
2, 815557, Note_on_c, 0, 66, 49
2, 815565, Note_on_c, 0, 69, 55
2, 815569, Note_on_c, 0, 78, 46
2, 815585, Note_on_c, 0, 61, 0
2, 815657, Note_on_c, 0, 69, 0
2, 815669, Note_on_c, 0, 66, 0
2, 815677, Note_on_c, 0, 78, 0
2, 815681, Note_on_c, 0, 81, 0
2, 815681, Note_on_c, 0, 73, 0
2, 815689, Note_on_c, 0, 82, 78
2, 815701, Control_c, 0, 64, 104
2, 815705, Note_on_c, 0, 61, 57
2, 815717, Control_c, 0, 64, 56
2, 815729, Control_c, 0, 64, 0
2, 815825, Control_c, 0, 64, 24
2, 815841, Control_c, 0, 64, 72
2, 815849, Note_on_c, 0, 73, 29
2, 815853, Control_c, 0, 64, 104
2, 815857, Note_on_c, 0, 77, 47
2, 815869, Control_c, 0, 64, 127
2, 815873, Note_on_c, 0, 70, 31
2, 815877, Note_on_c, 0, 65, 36
2, 815937, Control_c, 0, 64, 88
2, 815953, Note_on_c, 0, 82, 0
2, 815953, Control_c, 0, 64, 40
2, 815965, Control_c, 0, 64, 0
2, 815969, Note_on_c, 0, 77, 0
2, 815977, Note_on_c, 0, 73, 0
2, 815985, Note_on_c, 0, 70, 0
2, 815985, Note_on_c, 0, 80, 75
2, 816009, Note_on_c, 0, 65, 0
2, 816021, Control_c, 0, 64, 24
2, 816037, Control_c, 0, 64, 72
2, 816049, Control_c, 0, 64, 127
2, 816129, Note_on_c, 0, 68, 45
2, 816137, Note_on_c, 0, 77, 53
2, 816141, Note_on_c, 0, 73, 31
2, 816169, Note_on_c, 0, 68, 0
2, 816169, Note_on_c, 0, 80, 0
2, 816173, Note_on_c, 0, 61, 0
2, 816177, Note_on_c, 0, 77, 0
2, 816185, Note_on_c, 0, 73, 0
2, 816293, Note_on_c, 0, 78, 71
2, 816301, Control_c, 0, 64, 88
2, 816305, Note_on_c, 0, 54, 57
2, 816317, Control_c, 0, 64, 40
2, 816329, Control_c, 0, 64, 0
2, 816413, Control_c, 0, 64, 56
2, 816425, Note_on_c, 0, 70, 39
2, 816425, Control_c, 0, 64, 104
2, 816433, Note_on_c, 0, 73, 44
2, 816437, Note_on_c, 0, 54, 0
2, 816441, Note_on_c, 0, 61, 36
2, 816441, Control_c, 0, 64, 127
2, 816445, Note_on_c, 0, 66, 31
2, 816533, Note_on_c, 0, 61, 0
2, 816541, Note_on_c, 0, 70, 0
2, 816541, Note_on_c, 0, 66, 0
2, 816569, Note_on_c, 0, 58, 57
2, 816585, Note_on_c, 0, 73, 0
2, 816677, Note_on_c, 0, 58, 0
2, 816705, Note_on_c, 0, 61, 46
2, 816713, Note_on_c, 0, 66, 30
2, 816713, Note_on_c, 0, 73, 38
2, 816725, Note_on_c, 0, 70, 27
2, 816797, Note_on_c, 0, 61, 0
2, 816813, Note_on_c, 0, 66, 0
2, 816829, Note_on_c, 0, 70, 0
2, 816841, Note_on_c, 0, 57, 60
2, 816849, Note_on_c, 0, 73, 0
2, 816973, Note_on_c, 0, 66, 34
2, 816981, Note_on_c, 0, 57, 0
2, 816989, Note_on_c, 0, 61, 42
2, 817001, Note_on_c, 0, 70, 26
2, 817001, Note_on_c, 0, 73, 38
2, 817061, Note_on_c, 0, 70, 0
2, 817069, Note_on_c, 0, 66, 0
2, 817073, Note_on_c, 0, 73, 0
2, 817077, Note_on_c, 0, 61, 0
2, 817109, Note_on_c, 0, 58, 50
2, 817197, Note_on_c, 0, 70, 28
2, 817213, Note_on_c, 0, 73, 39
2, 817257, Note_on_c, 0, 66, 43
2, 817265, Note_on_c, 0, 78, 0
2, 817281, Note_on_c, 0, 58, 0
2, 817305, Note_on_c, 0, 70, 0
2, 817385, Note_on_c, 0, 73, 0
2, 817397, Note_on_c, 0, 66, 0
2, 817449, Note_on_c, 0, 76, 80
2, 817485, Note_on_c, 0, 54, 51
2, 817501, Control_c, 0, 64, 104
2, 817513, Control_c, 0, 64, 72
2, 817529, Control_c, 0, 64, 24
2, 817541, Control_c, 0, 64, 0
2, 817605, Note_on_c, 0, 70, 34
2, 817617, Note_on_c, 0, 73, 43
2, 817625, Note_on_c, 0, 61, 36
2, 817629, Note_on_c, 0, 66, 30
2, 817637, Control_c, 0, 64, 56
2, 817653, Control_c, 0, 64, 104
2, 817669, Control_c, 0, 64, 127
2, 817673, Note_on_c, 0, 76, 0
2, 817717, Note_on_c, 0, 70, 0
2, 817733, Note_on_c, 0, 73, 0
2, 817761, Note_on_c, 0, 82, 85
2, 817825, Note_on_c, 0, 61, 0
2, 817825, Note_on_c, 0, 66, 0
2, 817885, Note_on_c, 0, 70, 45
2, 817893, Note_on_c, 0, 73, 59
2, 817933, Note_on_c, 0, 82, 0
2, 817945, Note_on_c, 0, 66, 39
2, 817965, Note_on_c, 0, 61, 29
2, 817997, Note_on_c, 0, 61, 0
2, 817997, Note_on_c, 0, 70, 0
2, 818013, Note_on_c, 0, 66, 0
2, 818021, Note_on_c, 0, 73, 0
2, 818037, Note_on_c, 0, 81, 82
2, 818165, Note_on_c, 0, 70, 42
2, 818169, Note_on_c, 0, 81, 0
2, 818169, Note_on_c, 0, 73, 55
2, 818185, Note_on_c, 0, 66, 36
2, 818193, Note_on_c, 0, 61, 42
2, 818257, Note_on_c, 0, 66, 0
2, 818265, Note_on_c, 0, 61, 0
2, 818285, Note_on_c, 0, 70, 0
2, 818301, Note_on_c, 0, 73, 0
2, 818301, Note_on_c, 0, 82, 79
2, 818433, Note_on_c, 0, 54, 0
2, 818433, Note_on_c, 0, 66, 22
2, 818437, Note_on_c, 0, 70, 42
2, 818445, Note_on_c, 0, 61, 32
2, 818453, Note_on_c, 0, 73, 44
2, 818481, Note_on_c, 0, 61, 0
2, 818481, Note_on_c, 0, 82, 0
2, 818505, Note_on_c, 0, 66, 0
2, 818557, Note_on_c, 0, 70, 0
2, 818569, Note_on_c, 0, 73, 0
2, 818589, Control_c, 0, 64, 88
2, 818593, Note_on_c, 0, 82, 72
2, 818601, Control_c, 0, 64, 40
2, 818617, Control_c, 0, 64, 0
2, 818621, Note_on_c, 0, 53, 57
2, 818701, Note_on_c, 0, 53, 0
2, 818701, Control_c, 0, 64, 40
2, 818713, Control_c, 0, 64, 104
2, 818729, Control_c, 0, 64, 127
2, 818733, Note_on_c, 0, 62, 54
2, 818741, Note_on_c, 0, 70, 36
2, 818757, Note_on_c, 0, 65, 17
2, 818757, Note_on_c, 0, 74, 51
2, 818801, Note_on_c, 0, 65, 0
2, 818801, Note_on_c, 0, 62, 0
2, 818841, Note_on_c, 0, 74, 0
2, 818845, Note_on_c, 0, 70, 0
2, 818869, Note_on_c, 0, 56, 44
2, 818969, Note_on_c, 0, 56, 0
2, 818997, Note_on_c, 0, 62, 45
2, 819009, Note_on_c, 0, 70, 40
2, 819013, Note_on_c, 0, 65, 35
2, 819037, Note_on_c, 0, 74, 42
2, 819081, Note_on_c, 0, 65, 0
2, 819101, Note_on_c, 0, 62, 0
2, 819113, Note_on_c, 0, 70, 0
2, 819117, Note_on_c, 0, 82, 0
2, 819129, Note_on_c, 0, 74, 0
2, 819149, Note_on_c, 0, 55, 63
2, 819153, Note_on_c, 0, 77, 79
2, 819269, Note_on_c, 0, 55, 0
2, 819277, Note_on_c, 0, 62, 51
2, 819293, Note_on_c, 0, 70, 28
2, 819293, Note_on_c, 0, 65, 31
2, 819313, Note_on_c, 0, 74, 41
2, 819333, Note_on_c, 0, 77, 0
2, 819341, Note_on_c, 0, 65, 0
2, 819357, Note_on_c, 0, 62, 0
2, 819361, Note_on_c, 0, 70, 0
2, 819361, Note_on_c, 0, 74, 0
2, 819413, Note_on_c, 0, 56, 60
2, 819549, Note_on_c, 0, 70, 36
2, 819569, Note_on_c, 0, 56, 0
2, 819577, Note_on_c, 0, 65, 34
2, 819585, Note_on_c, 0, 62, 35
2, 819609, Note_on_c, 0, 65, 0
2, 819617, Note_on_c, 0, 62, 0
2, 819657, Note_on_c, 0, 70, 0
2, 819761, Note_on_c, 0, 74, 69
2, 819769, Note_on_c, 0, 52, 56
2, 819773, Control_c, 0, 64, 104
2, 819789, Control_c, 0, 64, 56
2, 819801, Control_c, 0, 64, 0
2, 819893, Note_on_c, 0, 59, 47
2, 819897, Control_c, 0, 64, 72
2, 819905, Note_on_c, 0, 64, 41
2, 819905, Note_on_c, 0, 68, 34
2, 819913, Note_on_c, 0, 74, 0
2, 819913, Control_c, 0, 64, 127
2, 819921, Note_on_c, 0, 71, 49
2, 819997, Note_on_c, 0, 68, 0
2, 820001, Note_on_c, 0, 71, 0
2, 820037, Note_on_c, 0, 64, 0
2, 820041, Note_on_c, 0, 80, 84
2, 820057, Note_on_c, 0, 59, 0
2, 820177, Note_on_c, 0, 68, 35
2, 820189, Note_on_c, 0, 71, 53
2, 820205, Note_on_c, 0, 80, 0
2, 820209, Note_on_c, 0, 64, 30
2, 820225, Note_on_c, 0, 59, 33
2, 820257, Note_on_c, 0, 68, 0
2, 820265, Note_on_c, 0, 64, 0
2, 820269, Note_on_c, 0, 59, 0
2, 820285, Note_on_c, 0, 71, 0
2, 820317, Note_on_c, 0, 79, 82
2, 820433, Note_on_c, 0, 79, 0
2, 820433, Note_on_c, 0, 68, 44
2, 820461, Note_on_c, 0, 71, 47
2, 820481, Note_on_c, 0, 59, 39
2, 820497, Note_on_c, 0, 64, 21
2, 820525, Note_on_c, 0, 64, 0
2, 820533, Note_on_c, 0, 59, 0
2, 820541, Note_on_c, 0, 68, 0
2, 820549, Note_on_c, 0, 71, 0
2, 820569, Note_on_c, 0, 80, 85
2, 820701, Note_on_c, 0, 68, 44
2, 820713, Note_on_c, 0, 59, 41
2, 820717, Note_on_c, 0, 52, 0
2, 820725, Note_on_c, 0, 71, 53
2, 820729, Note_on_c, 0, 80, 0
2, 820801, Note_on_c, 0, 59, 0
2, 820829, Note_on_c, 0, 71, 0
2, 820841, Note_on_c, 0, 68, 0
2, 820881, Note_on_c, 0, 80, 77
2, 820889, Control_c, 0, 64, 104
2, 820901, Control_c, 0, 64, 56
2, 820909, Note_on_c, 0, 51, 62
2, 820917, Control_c, 0, 64, 0
2, 821001, Control_c, 0, 64, 40
2, 821013, Control_c, 0, 64, 104
2, 821025, Note_on_c, 0, 51, 0
2, 821029, Control_c, 0, 64, 127
2, 821037, Note_on_c, 0, 68, 33
2, 821053, Note_on_c, 0, 72, 47
2, 821061, Note_on_c, 0, 60, 46
2, 821129, Note_on_c, 0, 60, 0
2, 821157, Note_on_c, 0, 72, 0
2, 821157, Note_on_c, 0, 68, 0
2, 821177, Note_on_c, 0, 54, 55
2, 821301, Note_on_c, 0, 54, 0
2, 821309, Note_on_c, 0, 63, 25
2, 821321, Note_on_c, 0, 68, 35
2, 821337, Note_on_c, 0, 72, 55
2, 821337, Note_on_c, 0, 60, 31
2, 821377, Note_on_c, 0, 80, 0
2, 821393, Note_on_c, 0, 60, 0
2, 821413, Note_on_c, 0, 63, 0
2, 821433, Note_on_c, 0, 68, 0
2, 821441, Note_on_c, 0, 72, 0
2, 821441, Note_on_c, 0, 53, 72
2, 821453, Note_on_c, 0, 75, 72
2, 821585, Note_on_c, 0, 63, 35
2, 821589, Note_on_c, 0, 68, 33
2, 821597, Note_on_c, 0, 72, 54
2, 821597, Note_on_c, 0, 60, 53
2, 821633, Note_on_c, 0, 60, 0
2, 821661, Note_on_c, 0, 72, 0
2, 821665, Note_on_c, 0, 63, 0
2, 821665, Note_on_c, 0, 68, 0
2, 821709, Note_on_c, 0, 53, 0
2, 821709, Note_on_c, 0, 54, 72
2, 821829, Note_on_c, 0, 75, 0
2, 821849, Note_on_c, 0, 68, 25
2, 821853, Note_on_c, 0, 72, 35
2, 821857, Note_on_c, 0, 63, 43
2, 821881, Note_on_c, 0, 54, 0
2, 821889, Note_on_c, 0, 72, 0
2, 821953, Note_on_c, 0, 63, 0
2, 821965, Note_on_c, 0, 68, 0
2, 822049, Note_on_c, 0, 50, 64
2, 822053, Note_on_c, 0, 72, 66
2, 822061, Control_c, 0, 64, 88
2, 822073, Control_c, 0, 64, 56
2, 822089, Control_c, 0, 64, 0
2, 822201, Note_on_c, 0, 57, 51
2, 822201, Control_c, 0, 64, 72
2, 822205, Note_on_c, 0, 62, 39
2, 822213, Control_c, 0, 64, 127
2, 822221, Note_on_c, 0, 72, 0
2, 822221, Note_on_c, 0, 66, 42
2, 822229, Note_on_c, 0, 69, 52
2, 822257, Note_on_c, 0, 62, 0
2, 822325, Note_on_c, 0, 66, 0
2, 822337, Note_on_c, 0, 69, 0
2, 822353, Note_on_c, 0, 78, 80
2, 822369, Note_on_c, 0, 57, 0
2, 822489, Note_on_c, 0, 66, 40
2, 822493, Note_on_c, 0, 69, 62
2, 822509, Note_on_c, 0, 57, 44
2, 822513, Note_on_c, 0, 78, 0
2, 822517, Note_on_c, 0, 62, 35
2, 822581, Note_on_c, 0, 62, 0
2, 822585, Note_on_c, 0, 66, 0
2, 822609, Note_on_c, 0, 77, 86
2, 822613, Note_on_c, 0, 57, 0
2, 822629, Note_on_c, 0, 69, 0
2, 822745, Note_on_c, 0, 66, 48
2, 822753, Note_on_c, 0, 77, 0
2, 822757, Note_on_c, 0, 69, 63
2, 822817, Note_on_c, 0, 57, 37
2, 822857, Note_on_c, 0, 66, 0
2, 822861, Note_on_c, 0, 57, 0
2, 822873, Note_on_c, 0, 69, 0
2, 822881, Note_on_c, 0, 78, 86
2, 823013, Note_on_c, 0, 66, 35
2, 823017, Note_on_c, 0, 50, 0
2, 823025, Note_on_c, 0, 69, 40
2, 823053, Note_on_c, 0, 78, 0
2, 823121, Note_on_c, 0, 66, 0
2, 823129, Note_on_c, 0, 69, 0
2, 823133, Control_c, 0, 64, 88
2, 823149, Control_c, 0, 64, 24
2, 823161, Note_on_c, 0, 78, 76
2, 823161, Control_c, 0, 64, 0
2, 823165, Note_on_c, 0, 49, 57
2, 823245, Control_c, 0, 64, 40
2, 823261, Control_c, 0, 64, 88
2, 823273, Control_c, 0, 64, 127
2, 823285, Note_on_c, 0, 49, 0
2, 823301, Note_on_c, 0, 58, 37
2, 823305, Note_on_c, 0, 70, 53
2, 823309, Note_on_c, 0, 66, 34
2, 823321, Note_on_c, 0, 61, 28
2, 823397, Note_on_c, 0, 61, 0
2, 823397, Note_on_c, 0, 58, 0
2, 823429, Note_on_c, 0, 66, 0
2, 823433, Note_on_c, 0, 54, 56
2, 823441, Note_on_c, 0, 70, 0
2, 823541, Note_on_c, 0, 54, 0
2, 823561, Note_on_c, 0, 58, 40
2, 823565, Note_on_c, 0, 61, 34
2, 823577, Note_on_c, 0, 70, 50
2, 823585, Note_on_c, 0, 66, 33
2, 823633, Note_on_c, 0, 78, 0
2, 823685, Note_on_c, 0, 58, 0
2, 823693, Note_on_c, 0, 61, 0
2, 823697, Note_on_c, 0, 66, 0
2, 823709, Note_on_c, 0, 70, 0
2, 823709, Note_on_c, 0, 73, 71
2, 823717, Note_on_c, 0, 53, 56
2, 823841, Note_on_c, 0, 53, 0
2, 823841, Note_on_c, 0, 61, 27
2, 823845, Note_on_c, 0, 58, 34
2, 823849, Note_on_c, 0, 66, 31
2, 823865, Note_on_c, 0, 70, 44
2, 823893, Note_on_c, 0, 73, 0
2, 823945, Note_on_c, 0, 66, 0
2, 823945, Note_on_c, 0, 61, 0
2, 823953, Note_on_c, 0, 58, 0
2, 823961, Note_on_c, 0, 70, 0
2, 823969, Note_on_c, 0, 54, 56
2, 824097, Note_on_c, 0, 66, 42
2, 824101, Note_on_c, 0, 61, 37
2, 824101, Note_on_c, 0, 70, 52
2, 824113, Note_on_c, 0, 54, 0
2, 824185, Note_on_c, 0, 66, 0
2, 824209, Note_on_c, 0, 61, 0
2, 824209, Control_c, 0, 64, 72
2, 824221, Control_c, 0, 64, 40
2, 824225, Note_on_c, 0, 70, 0
2, 824233, Control_c, 0, 64, 0
2, 824245, Note_on_c, 0, 73, 77
2, 824245, Note_on_c, 0, 49, 62
2, 824305, Control_c, 0, 64, 24
2, 824321, Control_c, 0, 64, 56
2, 824333, Control_c, 0, 64, 104
2, 824349, Control_c, 0, 64, 127
2, 824361, Note_on_c, 0, 49, 0
2, 824373, Note_on_c, 0, 73, 0
2, 824381, Note_on_c, 0, 65, 45
2, 824381, Note_on_c, 0, 71, 59
2, 824385, Note_on_c, 0, 61, 26
2, 824385, Note_on_c, 0, 56, 36
2, 824469, Note_on_c, 0, 56, 0
2, 824477, Note_on_c, 0, 65, 0
2, 824477, Note_on_c, 0, 71, 0
2, 824481, Note_on_c, 0, 61, 0
2, 824497, Note_on_c, 0, 74, 85
2, 824513, Note_on_c, 0, 50, 63
2, 824593, Note_on_c, 0, 50, 0
2, 824629, Note_on_c, 0, 56, 51
2, 824633, Note_on_c, 0, 62, 56
2, 824637, Note_on_c, 0, 74, 0
2, 824637, Note_on_c, 0, 65, 44
2, 824645, Note_on_c, 0, 71, 60
2, 824693, Note_on_c, 0, 62, 0
2, 824693, Note_on_c, 0, 56, 0
2, 824737, Note_on_c, 0, 65, 0
2, 824769, Note_on_c, 0, 75, 84
2, 824781, Note_on_c, 0, 71, 0
2, 824781, Control_c, 0, 64, 88
2, 824793, Control_c, 0, 64, 24
2, 824797, Note_on_c, 0, 51, 72
2, 824805, Control_c, 0, 64, 0
2, 824877, Control_c, 0, 64, 56
2, 824893, Control_c, 0, 64, 104
2, 824905, Control_c, 0, 64, 127
2, 824921, Note_on_c, 0, 65, 26
2, 824933, Note_on_c, 0, 63, 43
2, 824937, Note_on_c, 0, 71, 39
2, 824941, Note_on_c, 0, 51, 0
2, 824957, Note_on_c, 0, 56, 29
2, 824993, Note_on_c, 0, 63, 0
2, 825037, Note_on_c, 0, 65, 0
2, 825045, Note_on_c, 0, 56, 0
2, 825053, Note_on_c, 0, 75, 0
2, 825081, Note_on_c, 0, 73, 65
2, 825085, Control_c, 0, 64, 72
2, 825089, Note_on_c, 0, 49, 57
2, 825097, Note_on_c, 0, 71, 0
2, 825101, Control_c, 0, 64, 24
2, 825117, Control_c, 0, 64, 0
2, 825157, Control_c, 0, 64, 40
2, 825169, Control_c, 0, 64, 72
2, 825177, Note_on_c, 0, 49, 0
2, 825185, Control_c, 0, 64, 104
2, 825201, Control_c, 0, 64, 127
2, 825205, Note_on_c, 0, 56, 43
2, 825209, Note_on_c, 0, 65, 46
2, 825217, Note_on_c, 0, 61, 27
2, 825221, Note_on_c, 0, 73, 0
2, 825237, Note_on_c, 0, 71, 39
2, 825265, Note_on_c, 0, 61, 0
2, 825273, Note_on_c, 0, 56, 0
2, 825273, Note_on_c, 0, 65, 0
2, 825337, Note_on_c, 0, 71, 0
2, 825365, Control_c, 0, 64, 88
2, 825369, Note_on_c, 0, 73, 69
2, 825381, Note_on_c, 0, 49, 58
2, 825381, Control_c, 0, 64, 40
2, 825393, Control_c, 0, 64, 0
2, 825477, Control_c, 0, 64, 40
2, 825489, Control_c, 0, 64, 88
2, 825505, Note_on_c, 0, 61, 40
2, 825505, Control_c, 0, 64, 127
2, 825509, Note_on_c, 0, 49, 0
2, 825525, Note_on_c, 0, 66, 28
2, 825525, Note_on_c, 0, 70, 44
2, 825589, Note_on_c, 0, 61, 0
2, 825609, Note_on_c, 0, 70, 0
2, 825617, Note_on_c, 0, 66, 0
2, 825641, Note_on_c, 0, 54, 48
2, 825737, Note_on_c, 0, 54, 0
2, 825761, Note_on_c, 0, 61, 40
2, 825765, Note_on_c, 0, 66, 39
2, 825769, Note_on_c, 0, 70, 48
2, 825769, Note_on_c, 0, 58, 42
2, 825865, Note_on_c, 0, 58, 0
2, 825873, Note_on_c, 0, 61, 0
2, 825893, Note_on_c, 0, 66, 0
2, 825897, Note_on_c, 0, 70, 0
2, 825905, Note_on_c, 0, 53, 66
2, 826029, Note_on_c, 0, 61, 53
2, 826053, Note_on_c, 0, 53, 0
2, 826061, Note_on_c, 0, 66, 33
2, 826065, Note_on_c, 0, 70, 43
2, 826133, Note_on_c, 0, 61, 0
2, 826149, Note_on_c, 0, 70, 0
2, 826149, Note_on_c, 0, 66, 0
2, 826161, Note_on_c, 0, 54, 56
2, 826293, Note_on_c, 0, 54, 0
2, 826305, Note_on_c, 0, 61, 46
2, 826309, Note_on_c, 0, 70, 42
2, 826309, Note_on_c, 0, 66, 31
2, 826365, Note_on_c, 0, 73, 0
2, 826409, Note_on_c, 0, 66, 0
2, 826417, Note_on_c, 0, 61, 0
2, 826461, Note_on_c, 0, 70, 0
2, 826517, Note_on_c, 0, 72, 75
2, 826549, Note_on_c, 0, 50, 63
2, 826553, Control_c, 0, 64, 88
2, 826565, Control_c, 0, 64, 40
2, 826581, Control_c, 0, 64, 0
2, 826689, Control_c, 0, 64, 72
2, 826697, Note_on_c, 0, 69, 48
2, 826697, Note_on_c, 0, 66, 34
2, 826705, Note_on_c, 0, 72, 0
2, 826705, Control_c, 0, 64, 127
2, 826709, Note_on_c, 0, 62, 39
2, 826709, Note_on_c, 0, 57, 37
2, 826785, Note_on_c, 0, 62, 0
2, 826801, Note_on_c, 0, 66, 0
2, 826817, Note_on_c, 0, 69, 0
2, 826845, Note_on_c, 0, 78, 86
2, 826849, Note_on_c, 0, 57, 0
2, 826981, Note_on_c, 0, 66, 37
2, 826985, Note_on_c, 0, 69, 62
2, 826993, Note_on_c, 0, 78, 0
2, 827001, Note_on_c, 0, 57, 45
2, 827001, Note_on_c, 0, 62, 39
2, 827049, Note_on_c, 0, 62, 0
2, 827057, Note_on_c, 0, 57, 0
2, 827073, Note_on_c, 0, 66, 0
2, 827093, Note_on_c, 0, 69, 0
2, 827113, Note_on_c, 0, 77, 93
2, 827245, Note_on_c, 0, 77, 0
2, 827249, Note_on_c, 0, 66, 42
2, 827261, Note_on_c, 0, 69, 59
2, 827281, Note_on_c, 0, 57, 44
2, 827281, Note_on_c, 0, 62, 31
2, 827329, Note_on_c, 0, 66, 0
2, 827333, Note_on_c, 0, 62, 0
2, 827357, Note_on_c, 0, 57, 0
2, 827361, Note_on_c, 0, 69, 0
2, 827377, Note_on_c, 0, 78, 87
2, 827509, Note_on_c, 0, 66, 34
2, 827525, Note_on_c, 0, 50, 0
2, 827525, Note_on_c, 0, 69, 41
2, 827545, Note_on_c, 0, 57, 33
2, 827561, Note_on_c, 0, 78, 0
2, 827593, Note_on_c, 0, 57, 0
2, 827633, Note_on_c, 0, 69, 0
2, 827633, Note_on_c, 0, 66, 0
2, 827689, Note_on_c, 0, 78, 73
2, 827697, Control_c, 0, 64, 104
2, 827709, Control_c, 0, 64, 56
2, 827717, Note_on_c, 0, 49, 59
2, 827721, Control_c, 0, 64, 24
2, 827737, Control_c, 0, 64, 0
2, 827821, Note_on_c, 0, 49, 0
2, 827837, Control_c, 0, 64, 56
2, 827845, Note_on_c, 0, 58, 43
2, 827849, Note_on_c, 0, 70, 44
2, 827849, Control_c, 0, 64, 127
2, 827853, Note_on_c, 0, 66, 38
2, 827925, Note_on_c, 0, 58, 0
2, 827965, Note_on_c, 0, 66, 0
2, 827977, Note_on_c, 0, 70, 0
2, 827981, Note_on_c, 0, 54, 54
2, 828069, Note_on_c, 0, 54, 0
2, 828097, Note_on_c, 0, 58, 39
2, 828113, Note_on_c, 0, 61, 30
2, 828141, Note_on_c, 0, 70, 48
2, 828145, Note_on_c, 0, 66, 33
2, 828181, Note_on_c, 0, 78, 0
2, 828225, Note_on_c, 0, 58, 0
2, 828241, Note_on_c, 0, 66, 0
2, 828241, Note_on_c, 0, 61, 0
2, 828261, Note_on_c, 0, 70, 0
2, 828261, Note_on_c, 0, 53, 54
2, 828273, Note_on_c, 0, 73, 69
2, 828385, Note_on_c, 0, 53, 0
2, 828393, Note_on_c, 0, 61, 36
2, 828393, Note_on_c, 0, 58, 37
2, 828409, Note_on_c, 0, 66, 34
2, 828425, Note_on_c, 0, 70, 38
2, 828453, Note_on_c, 0, 73, 0
2, 828477, Note_on_c, 0, 58, 0
2, 828497, Note_on_c, 0, 61, 0
2, 828525, Note_on_c, 0, 66, 0
2, 828529, Note_on_c, 0, 54, 57
2, 828541, Note_on_c, 0, 70, 0
2, 828653, Note_on_c, 0, 61, 38
2, 828661, Note_on_c, 0, 54, 0
2, 828681, Note_on_c, 0, 70, 47
2, 828685, Note_on_c, 0, 66, 36
2, 828769, Note_on_c, 0, 66, 0
2, 828777, Note_on_c, 0, 61, 0
2, 828785, Control_c, 0, 64, 88
2, 828797, Control_c, 0, 64, 24
2, 828813, Control_c, 0, 64, 0
2, 828817, Note_on_c, 0, 70, 0
2, 828817, Note_on_c, 0, 49, 60
2, 828825, Note_on_c, 0, 73, 72
2, 828881, Control_c, 0, 64, 24
2, 828893, Control_c, 0, 64, 72
2, 828909, Control_c, 0, 64, 104
2, 828921, Control_c, 0, 64, 127
2, 828945, Note_on_c, 0, 73, 0
2, 828945, Note_on_c, 0, 61, 35
2, 828953, Note_on_c, 0, 56, 44
2, 828957, Note_on_c, 0, 49, 0
2, 828957, Note_on_c, 0, 65, 54
2, 828961, Note_on_c, 0, 71, 64
2, 829021, Note_on_c, 0, 56, 0
2, 829033, Note_on_c, 0, 61, 0
2, 829053, Note_on_c, 0, 65, 0
2, 829073, Note_on_c, 0, 71, 0
2, 829085, Note_on_c, 0, 74, 87
2, 829217, Note_on_c, 0, 71, 65
2, 829217, Note_on_c, 0, 65, 53
2, 829221, Note_on_c, 0, 74, 0
2, 829225, Note_on_c, 0, 62, 68
2, 829229, Note_on_c, 0, 56, 59
2, 829285, Note_on_c, 0, 62, 0
2, 829297, Note_on_c, 0, 56, 0
2, 829317, Note_on_c, 0, 65, 0
2, 829349, Note_on_c, 0, 75, 88
2, 829353, Note_on_c, 0, 71, 0
2, 829485, Note_on_c, 0, 65, 46
2, 829501, Note_on_c, 0, 71, 48
2, 829517, Note_on_c, 0, 63, 61
2, 829521, Note_on_c, 0, 56, 59
2, 829597, Note_on_c, 0, 56, 0
2, 829605, Note_on_c, 0, 63, 0
2, 829629, Note_on_c, 0, 71, 0
2, 829641, Note_on_c, 0, 73, 68
2, 829645, Note_on_c, 0, 65, 0
2, 829701, Note_on_c, 0, 75, 0
2, 829777, Note_on_c, 0, 61, 48
2, 829781, Note_on_c, 0, 56, 53
2, 829785, Note_on_c, 0, 65, 42
2, 829797, Note_on_c, 0, 73, 0
2, 829805, Note_on_c, 0, 71, 50
2, 829813, Note_on_c, 0, 61, 0
2, 829817, Note_on_c, 0, 56, 0
2, 829849, Note_on_c, 0, 65, 0
2, 829909, Note_on_c, 0, 71, 0
2, 829941, Control_c, 0, 64, 104
2, 829949, Note_on_c, 0, 42, 64
2, 829953, Control_c, 0, 64, 56
2, 829957, Note_on_c, 0, 73, 63
2, 829969, Control_c, 0, 64, 0
2, 830001, Note_on_c, 0, 42, 0
2, 830065, Control_c, 0, 64, 72
2, 830077, Control_c, 0, 64, 127
2, 830101, Note_on_c, 0, 58, 40
2, 830105, Note_on_c, 0, 70, 52
2, 830113, Note_on_c, 0, 66, 30
2, 830141, Note_on_c, 0, 58, 0
2, 830209, Note_on_c, 0, 70, 0
2, 830225, Note_on_c, 0, 49, 60
2, 830237, Note_on_c, 0, 66, 0
2, 830325, Note_on_c, 0, 49, 0
2, 830353, Note_on_c, 0, 58, 34
2, 830369, Note_on_c, 0, 70, 44
2, 830373, Note_on_c, 0, 66, 36
2, 830385, Note_on_c, 0, 54, 34
2, 830425, Note_on_c, 0, 54, 0
2, 830449, Note_on_c, 0, 58, 0
2, 830493, Note_on_c, 0, 66, 0
2, 830497, Note_on_c, 0, 48, 68
2, 830509, Note_on_c, 0, 70, 0
2, 830569, Note_on_c, 0, 48, 0
2, 830633, Note_on_c, 0, 58, 35
2, 830645, Note_on_c, 0, 54, 37
2, 830661, Note_on_c, 0, 70, 46
2, 830661, Note_on_c, 0, 66, 33
2, 830709, Note_on_c, 0, 54, 0
2, 830709, Note_on_c, 0, 58, 0
2, 830733, Note_on_c, 0, 66, 0
2, 830749, Note_on_c, 0, 70, 0
2, 830773, Note_on_c, 0, 49, 58
2, 830885, Note_on_c, 0, 49, 0
2, 830905, Note_on_c, 0, 70, 44
2, 830909, Note_on_c, 0, 58, 31
2, 830917, Note_on_c, 0, 66, 34
2, 830921, Note_on_c, 0, 54, 33
2, 830945, Note_on_c, 0, 54, 0
2, 830949, Note_on_c, 0, 58, 0
2, 830977, Note_on_c, 0, 70, 0
2, 830985, Note_on_c, 0, 73, 0
2, 831009, Note_on_c, 0, 66, 0
2, 831085, Control_c, 0, 64, 88
2, 831097, Control_c, 0, 64, 40
2, 831101, Note_on_c, 0, 70, 67
2, 831105, Note_on_c, 0, 42, 57
2, 831113, Control_c, 0, 64, 0
2, 831193, Note_on_c, 0, 42, 0
2, 831209, Control_c, 0, 64, 56
2, 831225, Control_c, 0, 64, 104
2, 831237, Control_c, 0, 64, 127
2, 831257, Note_on_c, 0, 67, 48
2, 831261, Note_on_c, 0, 64, 40
2, 831269, Note_on_c, 0, 49, 40
2, 831269, Note_on_c, 0, 58, 34
2, 831353, Note_on_c, 0, 64, 0
2, 831373, Note_on_c, 0, 70, 0
2, 831381, Note_on_c, 0, 67, 0
2, 831381, Note_on_c, 0, 49, 0
2, 831389, Note_on_c, 0, 73, 77
2, 831409, Note_on_c, 0, 58, 0
2, 831529, Note_on_c, 0, 67, 46
2, 831533, Note_on_c, 0, 64, 52
2, 831541, Note_on_c, 0, 58, 41
2, 831541, Note_on_c, 0, 49, 46
2, 831605, Note_on_c, 0, 49, 0
2, 831605, Note_on_c, 0, 73, 0
2, 831609, Note_on_c, 0, 64, 0
2, 831633, Note_on_c, 0, 58, 0
2, 831649, Note_on_c, 0, 67, 0
2, 831669, Note_on_c, 0, 72, 82
2, 831801, Note_on_c, 0, 64, 58
2, 831801, Note_on_c, 0, 67, 50
2, 831805, Note_on_c, 0, 58, 40
2, 831805, Note_on_c, 0, 49, 43
2, 831853, Note_on_c, 0, 67, 0
2, 831857, Note_on_c, 0, 58, 0
2, 831857, Note_on_c, 0, 49, 0
2, 831925, Note_on_c, 0, 72, 0
2, 831933, Note_on_c, 0, 64, 0
2, 831937, Note_on_c, 0, 73, 76
2, 832073, Note_on_c, 0, 58, 26
2, 832101, Note_on_c, 0, 64, 50
2, 832101, Note_on_c, 0, 67, 50
2, 832101, Note_on_c, 0, 49, 50
2, 832129, Note_on_c, 0, 58, 0
2, 832153, Note_on_c, 0, 67, 0
2, 832153, Note_on_c, 0, 49, 0
2, 832173, Note_on_c, 0, 73, 0
2, 832201, Control_c, 0, 64, 104
2, 832213, Control_c, 0, 64, 56
2, 832225, Note_on_c, 0, 64, 0
2, 832229, Control_c, 0, 64, 0
2, 832241, Note_on_c, 0, 42, 58
2, 832249, Note_on_c, 0, 71, 68
2, 832309, Note_on_c, 0, 42, 0
2, 832309, Control_c, 0, 64, 24
2, 832325, Control_c, 0, 64, 72
2, 832341, Control_c, 0, 64, 127
2, 832381, Note_on_c, 0, 58, 53
2, 832381, Note_on_c, 0, 49, 51
2, 832385, Note_on_c, 0, 64, 51
2, 832465, Note_on_c, 0, 58, 0
2, 832469, Note_on_c, 0, 49, 0
2, 832477, Note_on_c, 0, 64, 0
2, 832517, Note_on_c, 0, 48, 64
2, 832613, Note_on_c, 0, 48, 0
2, 832641, Note_on_c, 0, 64, 55
2, 832641, Note_on_c, 0, 58, 45
2, 832713, Note_on_c, 0, 64, 0
2, 832725, Note_on_c, 0, 58, 0
2, 832797, Note_on_c, 0, 48, 65
2, 832817, Note_on_c, 0, 70, 73
2, 832825, Note_on_c, 0, 71, 0
2, 832889, Note_on_c, 0, 48, 0
2, 832929, Note_on_c, 0, 58, 46
2, 832945, Note_on_c, 0, 64, 52
2, 832945, Note_on_c, 0, 49, 49
2, 832997, Note_on_c, 0, 49, 0
2, 833001, Note_on_c, 0, 58, 0
2, 833009, Note_on_c, 0, 64, 0
2, 833077, Note_on_c, 0, 48, 64
2, 833165, Note_on_c, 0, 48, 0
2, 833169, Note_on_c, 0, 70, 0
2, 833189, Note_on_c, 0, 58, 51
2, 833197, Note_on_c, 0, 64, 51
2, 833217, Note_on_c, 0, 49, 44
2, 833249, Note_on_c, 0, 49, 0
2, 833249, Note_on_c, 0, 58, 0
2, 833265, Note_on_c, 0, 64, 0
2, 833313, Control_c, 0, 64, 88
2, 833329, Control_c, 0, 64, 40
2, 833345, Control_c, 0, 64, 0
2, 833349, Note_on_c, 0, 42, 59
2, 833349, Note_on_c, 0, 70, 74
2, 833409, Note_on_c, 0, 42, 0
2, 833429, Control_c, 0, 64, 40
2, 833441, Control_c, 0, 64, 88
2, 833457, Control_c, 0, 64, 127
2, 833477, Note_on_c, 0, 49, 29
2, 833501, Note_on_c, 0, 58, 19
2, 833501, Note_on_c, 0, 64, 46
2, 833589, Note_on_c, 0, 64, 0
2, 833617, Note_on_c, 0, 58, 0
2, 833629, Note_on_c, 0, 73, 71
2, 833725, Note_on_c, 0, 49, 0
2, 833769, Note_on_c, 0, 64, 58
2, 833785, Note_on_c, 0, 73, 0
2, 833789, Note_on_c, 0, 58, 43
2, 833793, Note_on_c, 0, 49, 14
2, 833853, Note_on_c, 0, 64, 0
2, 833873, Note_on_c, 0, 70, 0
2, 833905, Note_on_c, 0, 58, 0
2, 833913, Note_on_c, 0, 72, 74
2, 834037, Note_on_c, 0, 64, 53
2, 834081, Note_on_c, 0, 58, 37
2, 834125, Note_on_c, 0, 58, 0
2, 834173, Note_on_c, 0, 64, 0
2, 834185, Note_on_c, 0, 73, 71
2, 834189, Note_on_c, 0, 72, 0
2, 834329, Note_on_c, 0, 58, 44
2, 834345, Note_on_c, 0, 49, 0
2, 834345, Note_on_c, 0, 64, 53
2, 834405, Note_on_c, 0, 58, 0
2, 834417, Note_on_c, 0, 73, 0
2, 834449, Note_on_c, 0, 64, 0
2, 834501, Control_c, 0, 64, 104
2, 834505, Note_on_c, 0, 72, 68
2, 834513, Control_c, 0, 64, 56
2, 834521, Note_on_c, 0, 43, 46
2, 834529, Control_c, 0, 64, 0
2, 834589, Note_on_c, 0, 43, 0
2, 834625, Control_c, 0, 64, 56
2, 834641, Control_c, 0, 64, 127
2, 834657, Note_on_c, 0, 63, 44
2, 834661, Note_on_c, 0, 58, 34
2, 834717, Note_on_c, 0, 58, 0
2, 834757, Note_on_c, 0, 72, 0
2, 834761, Note_on_c, 0, 63, 0
2, 834809, Note_on_c, 0, 70, 61
2, 834945, Note_on_c, 0, 70, 0
2, 834961, Note_on_c, 0, 63, 39
2, 834969, Note_on_c, 0, 58, 37
2, 835037, Note_on_c, 0, 58, 0
2, 835077, Note_on_c, 0, 63, 0
2, 835141, Note_on_c, 0, 75, 64
2, 835157, Control_c, 0, 64, 88
2, 835161, Note_on_c, 0, 46, 47
2, 835165, Note_on_c, 0, 68, 48
2, 835169, Control_c, 0, 64, 0
2, 835269, Control_c, 0, 64, 72
2, 835281, Control_c, 0, 64, 127
2, 835289, Note_on_c, 0, 75, 0
2, 835293, Note_on_c, 0, 68, 0
2, 835313, Note_on_c, 0, 58, 34
2, 835325, Note_on_c, 0, 61, 42
2, 835445, Note_on_c, 0, 61, 0
2, 835525, Note_on_c, 0, 67, 58
2, 835533, Control_c, 0, 64, 104
2, 835545, Control_c, 0, 64, 24
2, 835561, Control_c, 0, 64, 0
2, 835609, Note_on_c, 0, 58, 0
2, 835609, Note_on_c, 0, 51, 37
2, 835617, Control_c, 0, 64, 56
2, 835629, Control_c, 0, 64, 127
2, 835701, Note_on_c, 0, 61, 40
2, 835765, Note_on_c, 0, 51, 0
2, 835769, Note_on_c, 0, 46, 0
2, 835789, Note_on_c, 0, 61, 0
2, 835793, Note_on_c, 0, 58, 23
2, 835797, Note_on_c, 0, 67, 0
2, 835829, Note_on_c, 0, 58, 0
2, 835977, Control_c, 0, 64, 56
2, 835993, Control_c, 0, 64, 0
2, 835997, Note_on_c, 0, 68, 58
2, 836017, Note_on_c, 0, 60, 56
2, 836041, Note_on_c, 0, 60, 0
2, 836041, Note_on_c, 0, 44, 43
2, 836061, Control_c, 0, 64, 56
2, 836077, Control_c, 0, 64, 127
2, 836081, Note_on_c, 0, 44, 0
2, 836089, Note_on_c, 0, 68, 0
2, 836309, Note_on_c, 0, 84, 76
2, 836313, Note_on_c, 0, 72, 68
2, 836321, Note_on_c, 0, 60, 51
2, 836325, Note_on_c, 0, 56, 32
2, 836325, Note_on_c, 0, 51, 30
2, 836349, Note_on_c, 0, 60, 0
2, 836353, Note_on_c, 0, 56, 0
2, 836361, Note_on_c, 0, 51, 0
2, 836365, Note_on_c, 0, 72, 0
2, 836437, Note_on_c, 0, 51, 47
2, 836441, Note_on_c, 0, 72, 64
2, 836457, Note_on_c, 0, 56, 31
2, 836485, Note_on_c, 0, 56, 0
2, 836485, Note_on_c, 0, 72, 0
2, 836489, Note_on_c, 0, 51, 0
2, 836505, Note_on_c, 0, 84, 0
2, 836521, Control_c, 0, 64, 88
2, 836537, Control_c, 0, 64, 0
2, 836573, Note_on_c, 0, 83, 70
2, 836585, Note_on_c, 0, 71, 62
2, 836601, Note_on_c, 0, 50, 44
2, 836601, Note_on_c, 0, 59, 42
2, 836613, Note_on_c, 0, 56, 19
2, 836629, Note_on_c, 0, 71, 0
2, 836653, Note_on_c, 0, 56, 0
2, 836665, Note_on_c, 0, 59, 0
2, 836709, Note_on_c, 0, 71, 64
2, 836725, Note_on_c, 0, 50, 0
2, 836765, Note_on_c, 0, 71, 0
2, 836817, Note_on_c, 0, 83, 0
2, 836845, Note_on_c, 0, 84, 82
2, 836853, Note_on_c, 0, 72, 74
2, 836853, Note_on_c, 0, 56, 51
2, 836861, Note_on_c, 0, 51, 54
2, 836861, Note_on_c, 0, 60, 44
2, 836881, Note_on_c, 0, 56, 0
2, 836889, Note_on_c, 0, 60, 0
2, 836893, Note_on_c, 0, 51, 0
2, 836901, Note_on_c, 0, 72, 0
2, 836965, Note_on_c, 0, 72, 70
2, 836977, Note_on_c, 0, 84, 0
2, 837021, Note_on_c, 0, 72, 0
2, 837117, Note_on_c, 0, 80, 79
2, 837121, Note_on_c, 0, 68, 69
2, 837121, Note_on_c, 0, 44, 60
2, 837137, Control_c, 0, 64, 56
2, 837149, Control_c, 0, 64, 127
2, 837173, Note_on_c, 0, 68, 0
2, 837177, Note_on_c, 0, 44, 0
2, 837205, Note_on_c, 0, 80, 0
2, 837257, Note_on_c, 0, 68, 64
2, 837317, Note_on_c, 0, 68, 0
2, 837381, Note_on_c, 0, 51, 53
2, 837381, Note_on_c, 0, 56, 45
2, 837389, Note_on_c, 0, 68, 57
2, 837389, Note_on_c, 0, 60, 47
2, 837389, Control_c, 0, 64, 104
2, 837401, Control_c, 0, 64, 88
2, 837417, Note_on_c, 0, 60, 0
2, 837417, Note_on_c, 0, 56, 0
2, 837417, Control_c, 0, 64, 72
2, 837425, Note_on_c, 0, 51, 0
2, 837429, Control_c, 0, 64, 56
2, 837445, Note_on_c, 0, 68, 0
2, 837457, Control_c, 0, 64, 40
2, 837469, Control_c, 0, 64, 24
2, 837485, Control_c, 0, 64, 0
2, 837509, Note_on_c, 0, 68, 59
2, 837517, Note_on_c, 0, 51, 44
2, 837521, Note_on_c, 0, 56, 38
2, 837533, Note_on_c, 0, 60, 31
2, 837553, Note_on_c, 0, 56, 0
2, 837553, Note_on_c, 0, 51, 0
2, 837561, Note_on_c, 0, 60, 0
2, 837569, Note_on_c, 0, 68, 0
2, 837641, Note_on_c, 0, 68, 60
2, 837657, Note_on_c, 0, 56, 40
2, 837661, Note_on_c, 0, 50, 56
2, 837665, Control_c, 0, 64, 56
2, 837669, Note_on_c, 0, 59, 32
2, 837681, Control_c, 0, 64, 88
2, 837693, Control_c, 0, 64, 104
2, 837701, Note_on_c, 0, 68, 0
2, 837709, Note_on_c, 0, 50, 0
2, 837713, Note_on_c, 0, 59, 0
2, 837717, Note_on_c, 0, 56, 0
2, 837749, Control_c, 0, 64, 127
2, 837769, Note_on_c, 0, 68, 55
2, 837845, Note_on_c, 0, 68, 0
2, 837861, Control_c, 0, 64, 104
2, 837877, Control_c, 0, 64, 88
2, 837889, Control_c, 0, 64, 72
2, 837905, Control_c, 0, 64, 56
2, 837909, Note_on_c, 0, 79, 82
2, 837917, Note_on_c, 0, 67, 60
2, 837917, Control_c, 0, 64, 40
2, 837929, Note_on_c, 0, 60, 51
2, 837929, Note_on_c, 0, 55, 52
2, 837929, Control_c, 0, 64, 24
2, 837937, Note_on_c, 0, 51, 48
2, 837945, Control_c, 0, 64, 0
2, 837957, Note_on_c, 0, 55, 0
2, 837957, Note_on_c, 0, 60, 0
2, 837965, Note_on_c, 0, 51, 0
2, 837965, Note_on_c, 0, 67, 0
2, 838045, Note_on_c, 0, 67, 56
2, 838073, Note_on_c, 0, 79, 0
2, 838093, Note_on_c, 0, 67, 0
2, 838181, Note_on_c, 0, 77, 88
2, 838181, Control_c, 0, 64, 40
2, 838185, Note_on_c, 0, 44, 55
2, 838189, Note_on_c, 0, 65, 71
2, 838197, Control_c, 0, 64, 104
2, 838209, Control_c, 0, 64, 127
2, 838217, Note_on_c, 0, 44, 0
2, 838233, Note_on_c, 0, 65, 0
2, 838285, Note_on_c, 0, 77, 0
2, 838313, Note_on_c, 0, 65, 62
2, 838365, Note_on_c, 0, 65, 0
2, 838449, Note_on_c, 0, 79, 85
2, 838453, Note_on_c, 0, 67, 62
2, 838453, Note_on_c, 0, 56, 46
2, 838453, Note_on_c, 0, 61, 39
2, 838493, Note_on_c, 0, 67, 0
2, 838513, Note_on_c, 0, 61, 0
2, 838517, Note_on_c, 0, 56, 0
2, 838573, Note_on_c, 0, 67, 59
2, 838617, Note_on_c, 0, 61, 27
2, 838625, Note_on_c, 0, 67, 0
2, 838657, Note_on_c, 0, 61, 0
2, 838665, Note_on_c, 0, 79, 0
2, 838685, Control_c, 0, 64, 56
2, 838697, Control_c, 0, 64, 0
2, 838717, Note_on_c, 0, 68, 63
2, 838717, Note_on_c, 0, 80, 84
2, 838733, Note_on_c, 0, 61, 37
2, 838769, Note_on_c, 0, 68, 0
2, 838769, Control_c, 0, 64, 40
2, 838773, Note_on_c, 0, 53, 40
2, 838781, Control_c, 0, 64, 88
2, 838797, Control_c, 0, 64, 127
2, 838805, Note_on_c, 0, 53, 0
2, 838825, Note_on_c, 0, 80, 0
2, 838849, Note_on_c, 0, 68, 73
2, 838857, Note_on_c, 0, 80, 55
2, 838905, Note_on_c, 0, 68, 0
2, 838913, Note_on_c, 0, 61, 0
2, 838921, Control_c, 0, 64, 72
2, 838933, Control_c, 0, 64, 24
2, 838949, Control_c, 0, 64, 0
2, 838961, Note_on_c, 0, 80, 0
2, 838993, Note_on_c, 0, 82, 78
2, 838997, Note_on_c, 0, 70, 70
2, 839013, Note_on_c, 0, 61, 40
2, 839021, Control_c, 0, 64, 40
2, 839025, Note_on_c, 0, 55, 40
2, 839025, Note_on_c, 0, 52, 51
2, 839033, Control_c, 0, 64, 72
2, 839049, Note_on_c, 0, 70, 0
2, 839049, Control_c, 0, 64, 104
2, 839057, Note_on_c, 0, 55, 0
2, 839065, Note_on_c, 0, 61, 0
2, 839093, Note_on_c, 0, 52, 0
2, 839117, Control_c, 0, 64, 88
2, 839121, Note_on_c, 0, 70, 67
2, 839129, Control_c, 0, 64, 72
2, 839145, Control_c, 0, 64, 24
2, 839157, Control_c, 0, 64, 0
2, 839185, Note_on_c, 0, 70, 0
2, 839213, Note_on_c, 0, 82, 0
2, 839261, Note_on_c, 0, 84, 82
2, 839265, Note_on_c, 0, 44, 64
2, 839269, Note_on_c, 0, 72, 70
2, 839285, Control_c, 0, 64, 88
2, 839297, Control_c, 0, 64, 127
2, 839321, Note_on_c, 0, 72, 0
2, 839321, Note_on_c, 0, 44, 0
2, 839417, Note_on_c, 0, 72, 72
2, 839461, Note_on_c, 0, 72, 0
2, 839509, Control_c, 0, 64, 104
2, 839533, Note_on_c, 0, 51, 57
2, 839533, Note_on_c, 0, 60, 56
2, 839533, Control_c, 0, 64, 88
2, 839549, Note_on_c, 0, 72, 66
2, 839565, Control_c, 0, 64, 72
2, 839569, Note_on_c, 0, 60, 0
2, 839569, Note_on_c, 0, 51, 0
2, 839577, Control_c, 0, 64, 56
2, 839589, Note_on_c, 0, 72, 0
2, 839589, Control_c, 0, 64, 40
2, 839605, Control_c, 0, 64, 24
2, 839621, Control_c, 0, 64, 0
2, 839657, Note_on_c, 0, 60, 54
2, 839657, Note_on_c, 0, 51, 34
2, 839661, Note_on_c, 0, 72, 68
2, 839669, Note_on_c, 0, 56, 45
2, 839689, Note_on_c, 0, 60, 0
2, 839693, Note_on_c, 0, 56, 0
2, 839693, Note_on_c, 0, 51, 0
2, 839717, Note_on_c, 0, 72, 0
2, 839801, Note_on_c, 0, 72, 66
2, 839809, Note_on_c, 0, 50, 59
2, 839813, Note_on_c, 0, 59, 42
2, 839813, Note_on_c, 0, 56, 38
2, 839829, Control_c, 0, 64, 40
2, 839837, Note_on_c, 0, 50, 0
2, 839841, Control_c, 0, 64, 72
2, 839849, Note_on_c, 0, 59, 0
2, 839849, Note_on_c, 0, 56, 0
2, 839849, Note_on_c, 0, 72, 0
2, 839853, Control_c, 0, 64, 88
2, 839869, Control_c, 0, 64, 104
2, 839925, Control_c, 0, 64, 127
2, 839929, Note_on_c, 0, 72, 66
2, 839985, Note_on_c, 0, 72, 0
2, 840057, Note_on_c, 0, 72, 63
2, 840077, Note_on_c, 0, 56, 49
2, 840081, Note_on_c, 0, 60, 44
2, 840089, Note_on_c, 0, 51, 43
2, 840101, Note_on_c, 0, 56, 0
2, 840105, Note_on_c, 0, 72, 0
2, 840109, Note_on_c, 0, 60, 0
2, 840113, Note_on_c, 0, 51, 0
2, 840189, Note_on_c, 0, 72, 69
2, 840217, Note_on_c, 0, 84, 0
2, 840241, Note_on_c, 0, 72, 0
2, 840261, Control_c, 0, 64, 56
2, 840277, Control_c, 0, 64, 0
2, 840321, Note_on_c, 0, 80, 81
2, 840325, Note_on_c, 0, 44, 56
2, 840325, Note_on_c, 0, 68, 78
2, 840373, Note_on_c, 0, 68, 0
2, 840373, Control_c, 0, 64, 72
2, 840385, Control_c, 0, 64, 127
2, 840393, Note_on_c, 0, 44, 0
2, 840453, Note_on_c, 0, 68, 59
2, 840493, Note_on_c, 0, 68, 0
2, 840537, Note_on_c, 0, 80, 0
2, 840589, Note_on_c, 0, 51, 55
2, 840589, Note_on_c, 0, 84, 84
2, 840597, Note_on_c, 0, 72, 63
2, 840597, Note_on_c, 0, 60, 38
2, 840597, Note_on_c, 0, 56, 35
2, 840625, Note_on_c, 0, 56, 0
2, 840625, Note_on_c, 0, 72, 0
2, 840633, Note_on_c, 0, 60, 0
2, 840641, Note_on_c, 0, 51, 0
2, 840725, Note_on_c, 0, 72, 74
2, 840725, Note_on_c, 0, 51, 40
2, 840737, Note_on_c, 0, 60, 39
2, 840741, Note_on_c, 0, 56, 25
2, 840769, Note_on_c, 0, 56, 0
2, 840769, Note_on_c, 0, 60, 0
2, 840773, Note_on_c, 0, 72, 0
2, 840777, Note_on_c, 0, 51, 0
2, 840805, Control_c, 0, 64, 56
2, 840817, Note_on_c, 0, 84, 0
2, 840817, Control_c, 0, 64, 0
2, 840853, Note_on_c, 0, 83, 81
2, 840857, Note_on_c, 0, 71, 67
2, 840877, Note_on_c, 0, 59, 52
2, 840877, Note_on_c, 0, 50, 46
2, 840885, Note_on_c, 0, 56, 45
2, 840913, Note_on_c, 0, 71, 0
2, 840917, Control_c, 0, 64, 56
2, 840929, Control_c, 0, 64, 104
2, 840933, Note_on_c, 0, 56, 0
2, 840945, Control_c, 0, 64, 127
2, 840957, Note_on_c, 0, 83, 0
2, 840957, Note_on_c, 0, 59, 0
2, 840957, Note_on_c, 0, 50, 0
2, 840985, Note_on_c, 0, 83, 61
2, 840993, Note_on_c, 0, 71, 54
2, 841033, Note_on_c, 0, 71, 0
2, 841085, Note_on_c, 0, 83, 0
2, 841121, Note_on_c, 0, 56, 55
2, 841121, Note_on_c, 0, 84, 88
2, 841121, Note_on_c, 0, 51, 62
2, 841129, Note_on_c, 0, 72, 75
2, 841133, Note_on_c, 0, 60, 42
2, 841149, Note_on_c, 0, 56, 0
2, 841161, Note_on_c, 0, 60, 0
2, 841173, Note_on_c, 0, 72, 0
2, 841173, Note_on_c, 0, 51, 0
2, 841221, Note_on_c, 0, 72, 77
2, 841273, Note_on_c, 0, 72, 0
2, 841301, Note_on_c, 0, 84, 0
2, 841333, Control_c, 0, 64, 72
2, 841349, Control_c, 0, 64, 0
2, 841401, Note_on_c, 0, 92, 97
2, 841405, Note_on_c, 0, 80, 95
2, 841421, Note_on_c, 0, 41, 49
2, 841445, Control_c, 0, 64, 72
2, 841449, Note_on_c, 0, 41, 0
2, 841453, Note_on_c, 0, 80, 0
2, 841457, Control_c, 0, 64, 127
2, 841481, Note_on_c, 0, 92, 0
2, 841549, Note_on_c, 0, 80, 71
2, 841605, Note_on_c, 0, 80, 0
2, 841657, Note_on_c, 0, 60, 58
2, 841665, Note_on_c, 0, 53, 44
2, 841665, Note_on_c, 0, 56, 33
2, 841673, Note_on_c, 0, 80, 57
2, 841681, Note_on_c, 0, 60, 0
2, 841693, Note_on_c, 0, 56, 0
2, 841701, Note_on_c, 0, 53, 0
2, 841729, Note_on_c, 0, 80, 0
2, 841793, Note_on_c, 0, 56, 43
2, 841793, Note_on_c, 0, 53, 40
2, 841793, Note_on_c, 0, 80, 56
2, 841797, Note_on_c, 0, 60, 46
2, 841829, Note_on_c, 0, 60, 0
2, 841833, Note_on_c, 0, 53, 0
2, 841841, Note_on_c, 0, 56, 0
2, 841853, Note_on_c, 0, 80, 0
2, 841881, Control_c, 0, 64, 72
2, 841893, Control_c, 0, 64, 24
2, 841909, Control_c, 0, 64, 0
2, 841933, Note_on_c, 0, 80, 62
2, 841933, Note_on_c, 0, 56, 43
2, 841949, Note_on_c, 0, 52, 50
2, 841949, Control_c, 0, 64, 40
2, 841953, Note_on_c, 0, 60, 36
2, 841961, Control_c, 0, 64, 72
2, 841977, Control_c, 0, 64, 127
2, 841993, Note_on_c, 0, 80, 0
2, 841997, Note_on_c, 0, 60, 0
2, 842001, Note_on_c, 0, 56, 0
2, 842041, Note_on_c, 0, 52, 0
2, 842065, Note_on_c, 0, 80, 64
2, 842089, Control_c, 0, 64, 88
2, 842101, Control_c, 0, 64, 72
2, 842117, Control_c, 0, 64, 56
2, 842137, Note_on_c, 0, 80, 0
2, 842169, Control_c, 0, 64, 72
2, 842185, Control_c, 0, 64, 88
2, 842201, Note_on_c, 0, 91, 83
2, 842205, Note_on_c, 0, 56, 42
2, 842209, Note_on_c, 0, 79, 68
2, 842213, Note_on_c, 0, 53, 53
2, 842217, Note_on_c, 0, 60, 32
2, 842245, Note_on_c, 0, 60, 0
2, 842245, Note_on_c, 0, 56, 0
2, 842245, Note_on_c, 0, 53, 0
2, 842257, Note_on_c, 0, 79, 0
2, 842269, Control_c, 0, 64, 104
2, 842285, Control_c, 0, 64, 127
2, 842329, Note_on_c, 0, 79, 66
2, 842381, Note_on_c, 0, 79, 0
2, 842381, Note_on_c, 0, 91, 0
2, 842409, Control_c, 0, 64, 72
2, 842421, Control_c, 0, 64, 0
2, 842465, Note_on_c, 0, 46, 70
2, 842473, Note_on_c, 0, 89, 89
2, 842477, Note_on_c, 0, 77, 82
2, 842505, Control_c, 0, 64, 72
2, 842517, Note_on_c, 0, 46, 0
2, 842521, Control_c, 0, 64, 127
2, 842529, Note_on_c, 0, 77, 0
2, 842569, Note_on_c, 0, 89, 0
2, 842609, Note_on_c, 0, 77, 69
2, 842645, Note_on_c, 0, 77, 0
2, 842737, Note_on_c, 0, 91, 90
2, 842737, Note_on_c, 0, 56, 49
2, 842741, Note_on_c, 0, 62, 54
2, 842741, Note_on_c, 0, 79, 73
2, 842757, Note_on_c, 0, 58, 25
2, 842777, Note_on_c, 0, 62, 0
2, 842785, Note_on_c, 0, 58, 0
2, 842789, Note_on_c, 0, 79, 0
2, 842805, Note_on_c, 0, 56, 0
2, 842869, Note_on_c, 0, 79, 70
2, 842873, Note_on_c, 0, 56, 38
2, 842889, Note_on_c, 0, 62, 44
2, 842893, Note_on_c, 0, 58, 28
2, 842917, Note_on_c, 0, 79, 0
2, 842925, Note_on_c, 0, 62, 0
2, 842933, Note_on_c, 0, 58, 0
2, 842945, Note_on_c, 0, 56, 0
2, 842961, Note_on_c, 0, 91, 0
2, 842993, Control_c, 0, 64, 56
2, 843005, Note_on_c, 0, 92, 88
2, 843005, Note_on_c, 0, 80, 79
2, 843009, Control_c, 0, 64, 0
2, 843025, Note_on_c, 0, 55, 58
2, 843037, Note_on_c, 0, 62, 45
2, 843037, Note_on_c, 0, 58, 30
2, 843061, Note_on_c, 0, 80, 0
2, 843077, Control_c, 0, 64, 40
2, 843089, Note_on_c, 0, 62, 0
2, 843093, Control_c, 0, 64, 88
2, 843105, Control_c, 0, 64, 127
2, 843109, Note_on_c, 0, 92, 0
2, 843117, Note_on_c, 0, 55, 0
2, 843125, Note_on_c, 0, 58, 0
2, 843145, Note_on_c, 0, 80, 71
2, 843201, Note_on_c, 0, 80, 0
2, 843289, Note_on_c, 0, 94, 84
2, 843289, Note_on_c, 0, 82, 78
2, 843289, Note_on_c, 0, 58, 44
2, 843293, Note_on_c, 0, 62, 53
2, 843293, Note_on_c, 0, 53, 60
2, 843325, Note_on_c, 0, 62, 0
2, 843337, Note_on_c, 0, 58, 0
2, 843345, Note_on_c, 0, 53, 0
2, 843345, Note_on_c, 0, 82, 0
2, 843429, Note_on_c, 0, 82, 73
2, 843485, Note_on_c, 0, 82, 0
2, 843497, Note_on_c, 0, 94, 0
2, 843553, Control_c, 0, 64, 104
2, 843565, Control_c, 0, 64, 24
2, 843581, Control_c, 0, 64, 0
2, 843585, Note_on_c, 0, 39, 76
2, 843585, Note_on_c, 0, 94, 86
2, 843593, Note_on_c, 0, 82, 77
2, 843625, Note_on_c, 0, 39, 0
2, 843645, Note_on_c, 0, 82, 0
2, 843649, Control_c, 0, 64, 40
2, 843665, Control_c, 0, 64, 127
2, 843737, Note_on_c, 0, 82, 69
2, 843801, Note_on_c, 0, 82, 0
2, 843877, Note_on_c, 0, 61, 54
2, 843881, Note_on_c, 0, 82, 56
2, 843885, Note_on_c, 0, 55, 54
2, 843889, Note_on_c, 0, 51, 38
2, 843913, Note_on_c, 0, 55, 0
2, 843917, Note_on_c, 0, 51, 0
2, 843921, Note_on_c, 0, 61, 0
2, 843937, Note_on_c, 0, 82, 0
2, 844017, Note_on_c, 0, 82, 63
2, 844025, Note_on_c, 0, 61, 38
2, 844029, Note_on_c, 0, 55, 44
2, 844049, Note_on_c, 0, 51, 18
2, 844061, Note_on_c, 0, 55, 0
2, 844061, Note_on_c, 0, 61, 0
2, 844061, Note_on_c, 0, 94, 0
2, 844069, Note_on_c, 0, 82, 0
2, 844073, Note_on_c, 0, 51, 0
2, 844165, Control_c, 0, 64, 104
2, 844181, Control_c, 0, 64, 72
2, 844185, Note_on_c, 0, 87, 64
2, 844193, Control_c, 0, 64, 40
2, 844197, Note_on_c, 0, 75, 53
2, 844201, Note_on_c, 0, 60, 59
2, 844209, Note_on_c, 0, 55, 41
2, 844209, Control_c, 0, 64, 56
2, 844217, Note_on_c, 0, 51, 36
2, 844221, Control_c, 0, 64, 88
2, 844229, Note_on_c, 0, 75, 0
2, 844237, Control_c, 0, 64, 127
2, 844269, Note_on_c, 0, 60, 0
2, 844281, Note_on_c, 0, 55, 0
2, 844321, Note_on_c, 0, 75, 61
2, 844361, Note_on_c, 0, 51, 0
2, 844381, Note_on_c, 0, 75, 0
2, 844481, Note_on_c, 0, 75, 57
2, 844489, Note_on_c, 0, 58, 40
2, 844493, Note_on_c, 0, 55, 46
2, 844497, Note_on_c, 0, 51, 32
2, 844521, Note_on_c, 0, 55, 0
2, 844525, Note_on_c, 0, 58, 0
2, 844533, Note_on_c, 0, 75, 0
2, 844553, Note_on_c, 0, 51, 0
2, 844621, Note_on_c, 0, 75, 64
2, 844637, Note_on_c, 0, 87, 0
2, 844669, Note_on_c, 0, 75, 0
2, 844781, Control_c, 0, 64, 88
2, 844793, Control_c, 0, 64, 0
2, 844817, Note_on_c, 0, 80, 74
2, 844821, Note_on_c, 0, 68, 55
2, 844829, Note_on_c, 0, 44, 49
2, 844865, Note_on_c, 0, 68, 0
2, 844865, Control_c, 0, 64, 24
2, 844877, Control_c, 0, 64, 88
2, 844889, Note_on_c, 0, 44, 0
2, 844893, Control_c, 0, 64, 127
2, 844945, Note_on_c, 0, 68, 57
2, 844989, Note_on_c, 0, 68, 0
2, 845001, Note_on_c, 0, 80, 0
2, 845085, Note_on_c, 0, 83, 82
2, 845089, Note_on_c, 0, 51, 65
2, 845097, Note_on_c, 0, 71, 55
2, 845097, Note_on_c, 0, 59, 58
2, 845121, Note_on_c, 0, 71, 0
2, 845129, Note_on_c, 0, 59, 0
2, 845161, Note_on_c, 0, 51, 0
2, 845177, Note_on_c, 0, 83, 0
2, 845201, Note_on_c, 0, 83, 22
2, 845217, Note_on_c, 0, 71, 64
2, 845261, Note_on_c, 0, 51, 22
2, 845265, Note_on_c, 0, 71, 0
2, 845285, Note_on_c, 0, 51, 0
2, 845305, Note_on_c, 0, 83, 0
2, 845361, Note_on_c, 0, 82, 82
2, 845369, Note_on_c, 0, 70, 67
2, 845385, Note_on_c, 0, 50, 49
2, 845385, Note_on_c, 0, 59, 38
2, 845389, Note_on_c, 0, 56, 34
2, 845405, Note_on_c, 0, 70, 0
2, 845441, Note_on_c, 0, 82, 0
2, 845449, Note_on_c, 0, 59, 0
2, 845461, Note_on_c, 0, 56, 0
2, 845497, Note_on_c, 0, 70, 57
2, 845501, Note_on_c, 0, 50, 0
2, 845553, Note_on_c, 0, 70, 0
2, 845637, Note_on_c, 0, 83, 84
2, 845645, Note_on_c, 0, 71, 70
2, 845645, Note_on_c, 0, 56, 37
2, 845653, Note_on_c, 0, 51, 47
2, 845673, Note_on_c, 0, 56, 0
2, 845681, Note_on_c, 0, 51, 0
2, 845689, Note_on_c, 0, 71, 0
2, 845749, Note_on_c, 0, 71, 60
2, 845793, Note_on_c, 0, 71, 0
2, 845817, Note_on_c, 0, 83, 0
2, 845869, Control_c, 0, 64, 88
2, 845881, Control_c, 0, 64, 0
2, 845921, Note_on_c, 0, 87, 84
2, 845921, Note_on_c, 0, 75, 81
2, 845933, Note_on_c, 0, 40, 67
2, 845961, Note_on_c, 0, 75, 0
2, 845965, Control_c, 0, 64, 40
2, 845981, Control_c, 0, 64, 127
2, 845997, Note_on_c, 0, 40, 0
2, 846053, Note_on_c, 0, 75, 73
2, 846121, Note_on_c, 0, 75, 0
2, 846137, Note_on_c, 0, 87, 0
2, 846209, Note_on_c, 0, 85, 80
2, 846217, Note_on_c, 0, 73, 67
2, 846229, Note_on_c, 0, 56, 40
2, 846237, Note_on_c, 0, 52, 49
2, 846237, Note_on_c, 0, 61, 32
2, 846265, Note_on_c, 0, 61, 0
2, 846265, Note_on_c, 0, 56, 0
2, 846265, Note_on_c, 0, 73, 0
2, 846273, Note_on_c, 0, 52, 0
2, 846341, Note_on_c, 0, 73, 65
2, 846365, Note_on_c, 0, 61, 42
2, 846373, Note_on_c, 0, 52, 32
2, 846401, Note_on_c, 0, 73, 0
2, 846405, Note_on_c, 0, 61, 0
2, 846409, Note_on_c, 0, 52, 0
2, 846481, Note_on_c, 0, 73, 61
2, 846497, Note_on_c, 0, 55, 50
2, 846501, Note_on_c, 0, 61, 38
2, 846505, Note_on_c, 0, 52, 38
2, 846533, Note_on_c, 0, 55, 0
2, 846537, Note_on_c, 0, 73, 0
2, 846549, Note_on_c, 0, 52, 0
2, 846553, Note_on_c, 0, 61, 0
2, 846597, Note_on_c, 0, 73, 57
2, 846661, Note_on_c, 0, 73, 0
2, 846701, Note_on_c, 0, 85, 0
2, 846749, Note_on_c, 0, 83, 86
2, 846757, Note_on_c, 0, 71, 68
2, 846765, Note_on_c, 0, 61, 43
2, 846765, Note_on_c, 0, 56, 38
2, 846773, Note_on_c, 0, 52, 44
2, 846785, Note_on_c, 0, 71, 0
2, 846809, Note_on_c, 0, 56, 0
2, 846821, Note_on_c, 0, 52, 0
2, 846821, Note_on_c, 0, 61, 0
2, 846893, Note_on_c, 0, 71, 59
2, 846925, Note_on_c, 0, 71, 0
2, 846957, Note_on_c, 0, 83, 0
2, 847025, Note_on_c, 0, 82, 83
2, 847025, Note_on_c, 0, 70, 73
2, 847025, Control_c, 0, 64, 104
2, 847037, Note_on_c, 0, 42, 70
2, 847041, Control_c, 0, 64, 40
2, 847053, Control_c, 0, 64, 0
2, 847073, Note_on_c, 0, 70, 0
2, 847085, Note_on_c, 0, 42, 0
2, 847117, Note_on_c, 0, 82, 0
2, 847125, Control_c, 0, 64, 40
2, 847137, Control_c, 0, 64, 104
2, 847149, Control_c, 0, 64, 127
2, 847161, Note_on_c, 0, 70, 62
2, 847205, Note_on_c, 0, 70, 0
2, 847285, Note_on_c, 0, 61, 42
2, 847293, Note_on_c, 0, 58, 42
2, 847293, Note_on_c, 0, 73, 71
2, 847297, Note_on_c, 0, 85, 79
2, 847321, Note_on_c, 0, 58, 0
2, 847337, Note_on_c, 0, 61, 0
2, 847345, Note_on_c, 0, 73, 0
2, 847417, Note_on_c, 0, 73, 73
2, 847421, Note_on_c, 0, 61, 47
2, 847429, Note_on_c, 0, 58, 40
2, 847469, Note_on_c, 0, 61, 0
2, 847477, Note_on_c, 0, 73, 0
2, 847489, Note_on_c, 0, 58, 0
2, 847497, Note_on_c, 0, 85, 0
2, 847541, Note_on_c, 0, 84, 89
2, 847549, Note_on_c, 0, 72, 81
2, 847557, Note_on_c, 0, 57, 44
2, 847585, Note_on_c, 0, 72, 0
2, 847585, Note_on_c, 0, 52, 33
2, 847589, Note_on_c, 0, 61, 27
2, 847625, Note_on_c, 0, 61, 0
2, 847633, Note_on_c, 0, 52, 0
2, 847633, Note_on_c, 0, 57, 0
2, 847681, Note_on_c, 0, 72, 73
2, 847733, Note_on_c, 0, 72, 0
2, 847757, Note_on_c, 0, 84, 0
2, 847809, Note_on_c, 0, 58, 53
2, 847813, Note_on_c, 0, 61, 54
2, 847817, Note_on_c, 0, 52, 42
2, 847817, Note_on_c, 0, 85, 87
2, 847825, Note_on_c, 0, 73, 80
2, 847861, Note_on_c, 0, 61, 0
2, 847865, Note_on_c, 0, 58, 0
2, 847865, Note_on_c, 0, 52, 0
2, 847873, Note_on_c, 0, 73, 0
2, 847909, Note_on_c, 0, 85, 0
2, 847953, Note_on_c, 0, 73, 71
2, 847993, Note_on_c, 0, 73, 0
2, 848073, Control_c, 0, 64, 72
2, 848089, Control_c, 0, 64, 0
2, 848097, Note_on_c, 0, 43, 74
2, 848105, Note_on_c, 0, 87, 90
2, 848113, Note_on_c, 0, 75, 83
2, 848157, Note_on_c, 0, 43, 0
2, 848165, Note_on_c, 0, 75, 0
2, 848169, Control_c, 0, 64, 56
2, 848185, Control_c, 0, 64, 127
2, 848249, Note_on_c, 0, 75, 72
2, 848301, Note_on_c, 0, 75, 0
2, 848369, Note_on_c, 0, 61, 53
2, 848373, Note_on_c, 0, 51, 55
2, 848377, Note_on_c, 0, 58, 42
2, 848385, Note_on_c, 0, 75, 65
2, 848401, Note_on_c, 0, 61, 0
2, 848405, Note_on_c, 0, 58, 0
2, 848413, Note_on_c, 0, 51, 0
2, 848437, Note_on_c, 0, 75, 0
2, 848501, Note_on_c, 0, 61, 55
2, 848501, Note_on_c, 0, 75, 64
2, 848509, Note_on_c, 0, 51, 45
2, 848529, Note_on_c, 0, 61, 0
2, 848537, Note_on_c, 0, 51, 0
2, 848561, Note_on_c, 0, 75, 0
2, 848641, Note_on_c, 0, 75, 65
2, 848653, Note_on_c, 0, 58, 40
2, 848653, Note_on_c, 0, 60, 56
2, 848657, Note_on_c, 0, 51, 43
2, 848689, Note_on_c, 0, 58, 0
2, 848693, Note_on_c, 0, 75, 0
2, 848697, Note_on_c, 0, 60, 0
2, 848737, Note_on_c, 0, 51, 0
2, 848769, Note_on_c, 0, 75, 60
2, 848825, Note_on_c, 0, 75, 0
2, 848841, Note_on_c, 0, 87, 0
2, 848909, Note_on_c, 0, 58, 46
2, 848909, Note_on_c, 0, 85, 79
2, 848913, Note_on_c, 0, 61, 45
2, 848913, Note_on_c, 0, 51, 56
2, 848917, Note_on_c, 0, 73, 69
2, 848929, Note_on_c, 0, 58, 0
2, 848941, Note_on_c, 0, 61, 0
2, 848965, Note_on_c, 0, 51, 0
2, 848969, Note_on_c, 0, 73, 0
2, 849021, Note_on_c, 0, 85, 0
2, 849045, Note_on_c, 0, 73, 64
2, 849109, Note_on_c, 0, 73, 0
2, 849133, Control_c, 0, 64, 56
2, 849149, Control_c, 0, 64, 0
2, 849181, Note_on_c, 0, 44, 71
2, 849181, Note_on_c, 0, 84, 79
2, 849193, Note_on_c, 0, 72, 65
2, 849217, Control_c, 0, 64, 72
2, 849225, Note_on_c, 0, 72, 0
2, 849229, Control_c, 0, 64, 127
2, 849245, Note_on_c, 0, 44, 0
2, 849313, Note_on_c, 0, 72, 75
2, 849357, Note_on_c, 0, 84, 0
2, 849361, Note_on_c, 0, 72, 0
2, 849453, Note_on_c, 0, 51, 61
2, 849457, Note_on_c, 0, 80, 77
2, 849457, Note_on_c, 0, 60, 56
2, 849457, Note_on_c, 0, 68, 71
2, 849477, Note_on_c, 0, 51, 0
2, 849485, Note_on_c, 0, 60, 0
2, 849497, Note_on_c, 0, 68, 0
2, 849577, Note_on_c, 0, 68, 69
2, 849585, Note_on_c, 0, 51, 55
2, 849593, Note_on_c, 0, 60, 47
2, 849629, Note_on_c, 0, 60, 0
2, 849641, Note_on_c, 0, 68, 0
2, 849645, Note_on_c, 0, 51, 0
2, 849665, Note_on_c, 0, 80, 0
2, 849721, Note_on_c, 0, 79, 86
2, 849721, Control_c, 0, 64, 88
2, 849725, Note_on_c, 0, 67, 68
2, 849733, Control_c, 0, 64, 0
2, 849745, Note_on_c, 0, 52, 59
2, 849745, Note_on_c, 0, 60, 31
2, 849765, Note_on_c, 0, 67, 0
2, 849789, Control_c, 0, 64, 40
2, 849801, Control_c, 0, 64, 104
2, 849809, Note_on_c, 0, 60, 0
2, 849809, Note_on_c, 0, 52, 0
2, 849817, Control_c, 0, 64, 127
2, 849857, Note_on_c, 0, 67, 66
2, 849889, Note_on_c, 0, 67, 0
2, 849909, Note_on_c, 0, 79, 0
2, 849985, Note_on_c, 0, 60, 55
2, 849989, Note_on_c, 0, 77, 83
2, 849989, Note_on_c, 0, 53, 68
2, 849997, Note_on_c, 0, 65, 58
2, 850013, Note_on_c, 0, 60, 0
2, 850021, Note_on_c, 0, 53, 0
2, 850029, Note_on_c, 0, 65, 0
2, 850093, Note_on_c, 0, 77, 0
2, 850109, Note_on_c, 0, 65, 60
2, 850165, Note_on_c, 0, 65, 0
2, 850249, Control_c, 0, 64, 72
2, 850265, Control_c, 0, 64, 0
2, 850281, Note_on_c, 0, 75, 79
2, 850281, Note_on_c, 0, 46, 72
2, 850285, Note_on_c, 0, 63, 67
2, 850333, Control_c, 0, 64, 56
2, 850337, Note_on_c, 0, 63, 0
2, 850345, Control_c, 0, 64, 127
2, 850361, Note_on_c, 0, 46, 0
2, 850377, Note_on_c, 0, 75, 0
2, 850413, Note_on_c, 0, 63, 61
2, 850481, Note_on_c, 0, 63, 0
2, 850537, Note_on_c, 0, 58, 40
2, 850545, Note_on_c, 0, 63, 57
2, 850549, Note_on_c, 0, 53, 50
2, 850581, Note_on_c, 0, 53, 0
2, 850589, Note_on_c, 0, 58, 0
2, 850601, Note_on_c, 0, 63, 0
2, 850669, Note_on_c, 0, 63, 57
2, 850677, Note_on_c, 0, 58, 50
2, 850689, Note_on_c, 0, 53, 54
2, 850713, Note_on_c, 0, 53, 0
2, 850717, Note_on_c, 0, 58, 0
2, 850721, Note_on_c, 0, 63, 0
2, 850805, Note_on_c, 0, 63, 52
2, 850817, Note_on_c, 0, 57, 44
2, 850821, Note_on_c, 0, 53, 60
2, 850845, Note_on_c, 0, 63, 0
2, 850849, Note_on_c, 0, 53, 0
2, 850861, Note_on_c, 0, 57, 0
2, 850933, Note_on_c, 0, 63, 54
2, 850993, Note_on_c, 0, 63, 0
2, 851077, Note_on_c, 0, 73, 69
2, 851081, Note_on_c, 0, 58, 42
2, 851085, Note_on_c, 0, 53, 54
2, 851089, Note_on_c, 0, 61, 54
2, 851113, Note_on_c, 0, 53, 0
2, 851113, Note_on_c, 0, 58, 0
2, 851133, Note_on_c, 0, 61, 0
2, 851217, Note_on_c, 0, 61, 61
2, 851277, Note_on_c, 0, 61, 0
2, 851281, Note_on_c, 0, 73, 0
2, 851337, Control_c, 0, 64, 56
2, 851349, Control_c, 0, 64, 0
2, 851365, Note_on_c, 0, 39, 64
2, 851369, Note_on_c, 0, 70, 59
2, 851385, Note_on_c, 0, 58, 47
2, 851433, Note_on_c, 0, 58, 0
2, 851433, Control_c, 0, 64, 24
2, 851445, Note_on_c, 0, 39, 0
2, 851449, Control_c, 0, 64, 88
2, 851461, Control_c, 0, 64, 127
2, 851477, Note_on_c, 0, 70, 0
2, 851513, Note_on_c, 0, 58, 50
2, 851569, Note_on_c, 0, 58, 0
2, 851629, Note_on_c, 0, 51, 53
2, 851637, Note_on_c, 0, 56, 32
2, 851657, Note_on_c, 0, 58, 56
2, 851669, Note_on_c, 0, 56, 0
2, 851677, Note_on_c, 0, 51, 0
2, 851713, Note_on_c, 0, 58, 0
2, 851789, Note_on_c, 0, 58, 44
2, 851793, Note_on_c, 0, 56, 38
2, 851797, Note_on_c, 0, 51, 38
2, 851825, Note_on_c, 0, 51, 0
2, 851825, Note_on_c, 0, 56, 0
2, 851825, Note_on_c, 0, 58, 0
2, 851937, Control_c, 0, 64, 72
2, 851953, Note_on_c, 0, 63, 55
2, 851953, Note_on_c, 0, 75, 73
2, 851953, Control_c, 0, 64, 0
2, 851961, Note_on_c, 0, 51, 51
2, 851969, Note_on_c, 0, 55, 52
2, 852005, Note_on_c, 0, 63, 0
2, 852005, Control_c, 0, 64, 24
2, 852021, Control_c, 0, 64, 72
2, 852033, Control_c, 0, 64, 127
2, 852053, Note_on_c, 0, 55, 0
2, 852085, Note_on_c, 0, 63, 58
2, 852125, Note_on_c, 0, 51, 0
2, 852149, Note_on_c, 0, 63, 0
2, 852237, Note_on_c, 0, 63, 54
2, 852241, Note_on_c, 0, 51, 49
2, 852257, Note_on_c, 0, 53, 46
2, 852289, Note_on_c, 0, 53, 0
2, 852297, Note_on_c, 0, 63, 0
2, 852301, Note_on_c, 0, 51, 0
2, 852361, Note_on_c, 0, 75, 0
2, 852381, Note_on_c, 0, 63, 64
2, 852441, Note_on_c, 0, 63, 0
2, 852537, Control_c, 0, 64, 104
2, 852549, Control_c, 0, 64, 24
2, 852565, Control_c, 0, 64, 0
2, 852569, Note_on_c, 0, 72, 65
2, 852569, Note_on_c, 0, 60, 56
2, 852573, Note_on_c, 0, 32, 54
2, 852625, Note_on_c, 0, 60, 0
2, 852633, Note_on_c, 0, 32, 0
2, 852633, Control_c, 0, 64, 24
2, 852649, Control_c, 0, 64, 88
2, 852661, Control_c, 0, 64, 127
2, 852721, Note_on_c, 0, 60, 60
2, 852777, Note_on_c, 0, 60, 0
2, 852865, Note_on_c, 0, 51, 49
2, 852869, Note_on_c, 0, 44, 44
2, 852873, Note_on_c, 0, 60, 54
2, 852901, Note_on_c, 0, 51, 0
2, 852905, Note_on_c, 0, 44, 0
2, 852929, Note_on_c, 0, 60, 0
2, 853021, Note_on_c, 0, 60, 53
2, 853029, Note_on_c, 0, 51, 48
2, 853033, Note_on_c, 0, 44, 43
2, 853077, Note_on_c, 0, 60, 0
2, 853081, Note_on_c, 0, 51, 0
2, 853085, Note_on_c, 0, 44, 0
2, 853189, Note_on_c, 0, 60, 51
2, 853189, Control_c, 0, 64, 56
2, 853205, Note_on_c, 0, 51, 43
2, 853205, Control_c, 0, 64, 0
2, 853217, Note_on_c, 0, 43, 49
2, 853261, Note_on_c, 0, 60, 0
2, 853289, Control_c, 0, 64, 24
2, 853301, Note_on_c, 0, 51, 0
2, 853305, Control_c, 0, 64, 88
2, 853313, Note_on_c, 0, 43, 0
2, 853317, Control_c, 0, 64, 127
2, 853357, Note_on_c, 0, 60, 46
2, 853429, Note_on_c, 0, 60, 0
2, 853541, Control_c, 0, 64, 88
2, 853553, Note_on_c, 0, 60, 44
2, 853557, Note_on_c, 0, 51, 34
2, 853557, Note_on_c, 0, 44, 37
2, 853557, Control_c, 0, 64, 24
2, 853569, Control_c, 0, 64, 0
2, 853633, Note_on_c, 0, 60, 0
2, 853637, Control_c, 0, 64, 72
2, 853649, Note_on_c, 0, 44, 0
2, 853649, Note_on_c, 0, 51, 0
2, 853653, Control_c, 0, 64, 127
2, 853741, Note_on_c, 0, 60, 50
2, 853793, Note_on_c, 0, 60, 0
2, 853837, Note_on_c, 0, 72, 0
2, 854069, Control_c, 0, 64, 104
2, 854085, Control_c, 0, 64, 72
2, 854097, Control_c, 0, 64, 40
2, 854113, Control_c, 0, 64, 0
2, 856321, Note_on_c, 0, 80, 80
2, 856329, Note_on_c, 0, 53, 62
2, 856385, Note_on_c, 0, 53, 0
2, 856409, Note_on_c, 0, 80, 0
2, 856437, Note_on_c, 0, 72, 87
2, 856441, Note_on_c, 0, 60, 66
2, 856501, Note_on_c, 0, 60, 0
2, 856529, Note_on_c, 0, 72, 0
2, 856545, Note_on_c, 0, 71, 77
2, 856553, Note_on_c, 0, 65, 52
2, 856617, Note_on_c, 0, 65, 0
2, 856629, Note_on_c, 0, 71, 0
2, 856649, Note_on_c, 0, 72, 86
2, 856653, Note_on_c, 0, 68, 43
2, 856725, Note_on_c, 0, 68, 0
2, 856737, Note_on_c, 0, 72, 0
2, 856765, Note_on_c, 0, 71, 82
2, 856765, Note_on_c, 0, 67, 49
2, 856801, Note_on_c, 0, 67, 0
2, 856853, Note_on_c, 0, 71, 0
2, 856873, Note_on_c, 0, 74, 83
2, 856877, Note_on_c, 0, 62, 67
2, 856953, Note_on_c, 0, 74, 0
2, 856957, Note_on_c, 0, 62, 0
2, 856981, Note_on_c, 0, 59, 61
2, 856989, Note_on_c, 0, 79, 87
2, 857065, Note_on_c, 0, 79, 0
2, 857089, Note_on_c, 0, 59, 0
2, 857097, Note_on_c, 0, 77, 86
2, 857101, Note_on_c, 0, 55, 62
2, 857117, Note_on_c, 0, 55, 0
2, 857177, Note_on_c, 0, 77, 0
2, 857217, Note_on_c, 0, 76, 82
2, 857233, Note_on_c, 0, 48, 70
2, 857293, Note_on_c, 0, 76, 0
2, 857297, Note_on_c, 0, 48, 0
2, 857329, Note_on_c, 0, 73, 79
2, 857341, Note_on_c, 0, 55, 66
2, 857397, Note_on_c, 0, 73, 0
2, 857401, Note_on_c, 0, 55, 0
2, 857445, Note_on_c, 0, 79, 83
2, 857449, Note_on_c, 0, 60, 62
2, 857453, Note_on_c, 0, 72, 76
2, 857513, Note_on_c, 0, 79, 0
2, 857521, Note_on_c, 0, 60, 0
2, 857537, Note_on_c, 0, 72, 0
2, 857561, Note_on_c, 0, 70, 71
2, 857569, Note_on_c, 0, 64, 46
2, 857613, Note_on_c, 0, 64, 0
2, 857621, Note_on_c, 0, 70, 0
2, 857689, Note_on_c, 0, 70, 71
2, 857689, Note_on_c, 0, 77, 89
2, 857689, Note_on_c, 0, 65, 64
2, 857745, Note_on_c, 0, 70, 0
2, 857797, Note_on_c, 0, 65, 0
2, 857801, Note_on_c, 0, 68, 67
2, 857805, Note_on_c, 0, 60, 60
2, 857869, Note_on_c, 0, 68, 0
2, 857897, Note_on_c, 0, 60, 0
2, 857917, Note_on_c, 0, 67, 69
2, 857921, Note_on_c, 0, 58, 46
2, 858005, Note_on_c, 0, 67, 0
2, 858005, Note_on_c, 0, 77, 0
2, 858017, Note_on_c, 0, 58, 0
2, 858033, Note_on_c, 0, 65, 67
2, 858033, Note_on_c, 0, 56, 46
2, 858069, Note_on_c, 0, 65, 0
2, 858085, Note_on_c, 0, 56, 0
2, 858173, Note_on_c, 0, 80, 88
2, 858177, Note_on_c, 0, 53, 64
2, 858269, Note_on_c, 0, 80, 0
2, 858277, Note_on_c, 0, 72, 86
2, 858289, Note_on_c, 0, 60, 55
2, 858293, Note_on_c, 0, 53, 0
2, 858357, Note_on_c, 0, 60, 0
2, 858361, Note_on_c, 0, 72, 0
2, 858397, Note_on_c, 0, 71, 74
2, 858409, Note_on_c, 0, 65, 54
2, 858465, Note_on_c, 0, 71, 0
2, 858473, Note_on_c, 0, 65, 0
2, 858505, Note_on_c, 0, 72, 84
2, 858505, Note_on_c, 0, 68, 50
2, 858577, Note_on_c, 0, 68, 0
2, 858585, Note_on_c, 0, 72, 0
2, 858621, Note_on_c, 0, 71, 81
2, 858629, Note_on_c, 0, 67, 48
2, 858697, Note_on_c, 0, 67, 0
2, 858713, Note_on_c, 0, 71, 0
2, 858729, Note_on_c, 0, 74, 81
2, 858737, Note_on_c, 0, 62, 63
2, 858797, Note_on_c, 0, 62, 0
2, 858805, Note_on_c, 0, 74, 0
2, 858849, Note_on_c, 0, 79, 81
2, 858849, Note_on_c, 0, 59, 55
2, 858917, Note_on_c, 0, 79, 0
2, 858937, Note_on_c, 0, 59, 0
2, 858953, Note_on_c, 0, 77, 83
2, 858957, Note_on_c, 0, 55, 60
2, 858977, Note_on_c, 0, 55, 0
2, 859037, Note_on_c, 0, 77, 0
2, 859073, Note_on_c, 0, 76, 83
2, 859085, Note_on_c, 0, 48, 70
2, 859153, Note_on_c, 0, 48, 0
2, 859157, Note_on_c, 0, 76, 0
2, 859181, Note_on_c, 0, 73, 70
2, 859197, Note_on_c, 0, 55, 53
2, 859261, Note_on_c, 0, 55, 0
2, 859273, Note_on_c, 0, 73, 0
2, 859301, Note_on_c, 0, 79, 84
2, 859305, Note_on_c, 0, 60, 60
2, 859309, Note_on_c, 0, 72, 74
2, 859361, Note_on_c, 0, 72, 0
2, 859377, Note_on_c, 0, 60, 0
2, 859385, Note_on_c, 0, 79, 0
2, 859413, Note_on_c, 0, 70, 71
2, 859417, Note_on_c, 0, 64, 44
2, 859473, Note_on_c, 0, 70, 0
2, 859477, Note_on_c, 0, 64, 0
2, 859529, Note_on_c, 0, 77, 87
2, 859533, Note_on_c, 0, 70, 77
2, 859537, Note_on_c, 0, 65, 60
2, 859585, Note_on_c, 0, 70, 0
2, 859645, Note_on_c, 0, 68, 63
2, 859657, Note_on_c, 0, 65, 0
2, 859701, Note_on_c, 0, 68, 0
2, 859721, Note_on_c, 0, 77, 0
2, 859761, Note_on_c, 0, 67, 66
2, 859781, Note_on_c, 0, 77, 8
2, 859809, Note_on_c, 0, 77, 0
2, 859857, Note_on_c, 0, 67, 0
2, 859873, Note_on_c, 0, 65, 68
2, 859913, Note_on_c, 0, 65, 0
2, 859981, Note_on_c, 0, 63, 74
2, 860061, Note_on_c, 0, 63, 0
2, 860097, Note_on_c, 0, 55, 70
2, 860173, Note_on_c, 0, 55, 0
2, 860225, Note_on_c, 0, 54, 69
2, 860225, Note_on_c, 0, 79, 99
2, 860229, Note_on_c, 0, 75, 75
2, 860229, Note_on_c, 0, 67, 78
2, 860233, Note_on_c, 0, 72, 82
2, 860301, Note_on_c, 0, 54, 0
2, 860333, Note_on_c, 0, 67, 0
2, 860337, Note_on_c, 0, 55, 86
2, 860345, Note_on_c, 0, 72, 0
2, 860357, Note_on_c, 0, 75, 0
2, 860377, Note_on_c, 0, 79, 0
2, 860389, Note_on_c, 0, 55, 0
2, 860449, Note_on_c, 0, 54, 82
2, 860465, Note_on_c, 0, 48, 76
2, 860525, Note_on_c, 0, 48, 0
2, 860529, Note_on_c, 0, 54, 0
2, 860561, Note_on_c, 0, 57, 80
2, 860641, Note_on_c, 0, 57, 0
2, 860677, Note_on_c, 0, 81, 97
2, 860681, Note_on_c, 0, 62, 79
2, 860685, Note_on_c, 0, 69, 87
2, 860685, Note_on_c, 0, 72, 87
2, 860685, Note_on_c, 0, 74, 75
2, 860689, Note_on_c, 0, 78, 64
2, 860753, Note_on_c, 0, 74, 0
2, 860757, Note_on_c, 0, 62, 0
2, 860777, Note_on_c, 0, 72, 0
2, 860781, Note_on_c, 0, 78, 0
2, 860785, Note_on_c, 0, 60, 80
2, 860789, Note_on_c, 0, 69, 0
2, 860821, Note_on_c, 0, 60, 0
2, 860837, Note_on_c, 0, 81, 0
2, 860901, Note_on_c, 0, 59, 81
2, 860913, Note_on_c, 0, 48, 76
2, 860973, Note_on_c, 0, 59, 0
2, 861021, Note_on_c, 0, 56, 74
2, 861105, Note_on_c, 0, 56, 0
2, 861129, Note_on_c, 0, 83, 99
2, 861137, Note_on_c, 0, 71, 84
2, 861137, Note_on_c, 0, 74, 83
2, 861141, Note_on_c, 0, 55, 78
2, 861141, Note_on_c, 0, 79, 80
2, 861141, Note_on_c, 0, 77, 79
2, 861213, Note_on_c, 0, 55, 0
2, 861225, Note_on_c, 0, 77, 0
2, 861233, Note_on_c, 0, 74, 0
2, 861241, Note_on_c, 0, 71, 0
2, 861241, Note_on_c, 0, 53, 79
2, 861253, Note_on_c, 0, 79, 0
2, 861257, Note_on_c, 0, 48, 0
2, 861281, Note_on_c, 0, 53, 0
2, 861293, Note_on_c, 0, 83, 0
2, 861357, Note_on_c, 0, 53, 82
2, 861369, Note_on_c, 0, 48, 75
2, 861453, Note_on_c, 0, 53, 0
2, 861473, Note_on_c, 0, 51, 80
2, 861557, Note_on_c, 0, 48, 0
2, 861577, Note_on_c, 0, 51, 0
2, 861581, Note_on_c, 0, 84, 103
2, 861585, Note_on_c, 0, 50, 83
2, 861589, Note_on_c, 0, 75, 61
2, 861589, Note_on_c, 0, 72, 67
2, 861593, Note_on_c, 0, 79, 70
2, 861685, Note_on_c, 0, 79, 0
2, 861693, Note_on_c, 0, 75, 0
2, 861701, Note_on_c, 0, 84, 0
2, 861701, Note_on_c, 0, 48, 73
2, 861713, Note_on_c, 0, 50, 0
2, 861725, Note_on_c, 0, 48, 0
2, 861725, Note_on_c, 0, 72, 0
2, 861825, Note_on_c, 0, 63, 83
2, 861897, Note_on_c, 0, 63, 0
2, 861933, Note_on_c, 0, 55, 75
2, 862017, Note_on_c, 0, 55, 0
2, 862049, Note_on_c, 0, 79, 97
2, 862053, Note_on_c, 0, 75, 71
2, 862053, Note_on_c, 0, 54, 65
2, 862057, Note_on_c, 0, 67, 68
2, 862061, Note_on_c, 0, 72, 73
2, 862141, Note_on_c, 0, 75, 0
2, 862149, Note_on_c, 0, 67, 0
2, 862149, Note_on_c, 0, 54, 0
2, 862153, Note_on_c, 0, 72, 0
2, 862153, Note_on_c, 0, 55, 74
2, 862193, Note_on_c, 0, 79, 0
2, 862197, Note_on_c, 0, 55, 0
2, 862261, Note_on_c, 0, 54, 79
2, 862281, Note_on_c, 0, 48, 80
2, 862333, Note_on_c, 0, 48, 0
2, 862349, Note_on_c, 0, 54, 0
2, 862377, Note_on_c, 0, 57, 82
2, 862461, Note_on_c, 0, 57, 0
2, 862489, Note_on_c, 0, 81, 97
2, 862493, Note_on_c, 0, 69, 71
2, 862497, Note_on_c, 0, 72, 70
2, 862497, Note_on_c, 0, 62, 72
2, 862497, Note_on_c, 0, 78, 57
2, 862501, Note_on_c, 0, 74, 62
2, 862581, Note_on_c, 0, 74, 0
2, 862581, Note_on_c, 0, 62, 0
2, 862601, Note_on_c, 0, 60, 83
2, 862633, Note_on_c, 0, 78, 0
2, 862637, Note_on_c, 0, 72, 0
2, 862649, Note_on_c, 0, 60, 0
2, 862657, Note_on_c, 0, 69, 0
2, 862693, Note_on_c, 0, 81, 0
2, 862721, Note_on_c, 0, 59, 86
2, 862733, Note_on_c, 0, 48, 77
2, 862805, Note_on_c, 0, 59, 0
2, 862845, Note_on_c, 0, 56, 73
2, 862941, Note_on_c, 0, 56, 0
2, 862949, Note_on_c, 0, 83, 98
2, 862953, Note_on_c, 0, 71, 68
2, 862957, Note_on_c, 0, 79, 72
2, 862957, Note_on_c, 0, 74, 66
2, 862961, Note_on_c, 0, 77, 61
2, 862961, Note_on_c, 0, 55, 74
2, 863041, Note_on_c, 0, 77, 0
2, 863049, Note_on_c, 0, 55, 0
2, 863065, Note_on_c, 0, 53, 81
2, 863069, Note_on_c, 0, 74, 0
2, 863077, Note_on_c, 0, 71, 0
2, 863085, Note_on_c, 0, 79, 0
2, 863101, Note_on_c, 0, 48, 0
2, 863105, Note_on_c, 0, 53, 0
2, 863125, Note_on_c, 0, 83, 0
2, 863185, Note_on_c, 0, 53, 86
2, 863197, Note_on_c, 0, 48, 77
2, 863269, Note_on_c, 0, 53, 0
2, 863297, Note_on_c, 0, 51, 75
2, 863357, Note_on_c, 0, 48, 0
2, 863405, Note_on_c, 0, 51, 0
2, 863413, Note_on_c, 0, 50, 82
2, 863417, Note_on_c, 0, 84, 103
2, 863421, Note_on_c, 0, 75, 61
2, 863425, Note_on_c, 0, 79, 68
2, 863425, Note_on_c, 0, 72, 63
2, 863517, Note_on_c, 0, 79, 0
2, 863529, Note_on_c, 0, 84, 0
2, 863529, Note_on_c, 0, 48, 65
2, 863533, Note_on_c, 0, 50, 0
2, 863533, Note_on_c, 0, 75, 0
2, 863545, Note_on_c, 0, 48, 0
2, 863557, Note_on_c, 0, 72, 0
2, 863669, Note_on_c, 0, 80, 76
2, 863677, Note_on_c, 0, 53, 47
2, 863709, Note_on_c, 0, 53, 0
2, 863749, Note_on_c, 0, 80, 0
2, 863777, Note_on_c, 0, 72, 84
2, 863785, Note_on_c, 0, 60, 62
2, 863861, Note_on_c, 0, 60, 0
2, 863869, Note_on_c, 0, 72, 0
2, 863889, Note_on_c, 0, 71, 76
2, 863897, Note_on_c, 0, 65, 53
2, 863973, Note_on_c, 0, 65, 0
2, 863973, Note_on_c, 0, 71, 0
2, 863993, Note_on_c, 0, 72, 85
2, 864001, Note_on_c, 0, 68, 57
2, 864045, Note_on_c, 0, 68, 0
2, 864085, Note_on_c, 0, 72, 0
2, 864113, Note_on_c, 0, 71, 81
2, 864133, Note_on_c, 0, 67, 47
2, 864189, Note_on_c, 0, 67, 0
2, 864201, Note_on_c, 0, 71, 0
2, 864221, Note_on_c, 0, 74, 81
2, 864229, Note_on_c, 0, 62, 60
2, 864293, Note_on_c, 0, 62, 0
2, 864297, Note_on_c, 0, 74, 0
2, 864337, Note_on_c, 0, 59, 60
2, 864345, Note_on_c, 0, 79, 83
2, 864421, Note_on_c, 0, 79, 0
2, 864445, Note_on_c, 0, 59, 0
2, 864457, Note_on_c, 0, 55, 60
2, 864457, Note_on_c, 0, 77, 83
2, 864473, Note_on_c, 0, 55, 0
2, 864541, Note_on_c, 0, 77, 0
2, 864573, Note_on_c, 0, 76, 87
2, 864589, Note_on_c, 0, 48, 65
2, 864645, Note_on_c, 0, 48, 0
2, 864661, Note_on_c, 0, 76, 0
2, 864693, Note_on_c, 0, 73, 55
2, 864701, Note_on_c, 0, 55, 51
2, 864749, Note_on_c, 0, 73, 0
2, 864761, Note_on_c, 0, 55, 0
2, 864805, Note_on_c, 0, 79, 84
2, 864813, Note_on_c, 0, 60, 59
2, 864817, Note_on_c, 0, 72, 83
2, 864881, Note_on_c, 0, 72, 0
2, 864885, Note_on_c, 0, 60, 0
2, 864893, Note_on_c, 0, 79, 0
2, 864917, Note_on_c, 0, 70, 56
2, 864937, Note_on_c, 0, 64, 28
2, 864965, Note_on_c, 0, 64, 0
2, 864965, Note_on_c, 0, 70, 0
2, 865041, Note_on_c, 0, 77, 88
2, 865041, Note_on_c, 0, 65, 66
2, 865045, Note_on_c, 0, 70, 72
2, 865101, Note_on_c, 0, 70, 0
2, 865153, Note_on_c, 0, 65, 0
2, 865157, Note_on_c, 0, 68, 61
2, 865161, Note_on_c, 0, 60, 63
2, 865221, Note_on_c, 0, 68, 0
2, 865249, Note_on_c, 0, 60, 0
2, 865269, Note_on_c, 0, 58, 49
2, 865269, Note_on_c, 0, 67, 58
2, 865349, Note_on_c, 0, 67, 0
2, 865357, Note_on_c, 0, 77, 0
2, 865361, Note_on_c, 0, 58, 0
2, 865377, Note_on_c, 0, 65, 68
2, 865377, Note_on_c, 0, 56, 55
2, 865413, Note_on_c, 0, 65, 0
2, 865429, Note_on_c, 0, 56, 0
2, 865501, Note_on_c, 0, 80, 85
2, 865513, Note_on_c, 0, 53, 66
2, 865597, Note_on_c, 0, 80, 0
2, 865613, Note_on_c, 0, 72, 86
2, 865625, Note_on_c, 0, 60, 64
2, 865629, Note_on_c, 0, 53, 0
2, 865701, Note_on_c, 0, 60, 0
2, 865709, Note_on_c, 0, 72, 0
2, 865729, Note_on_c, 0, 71, 75
2, 865745, Note_on_c, 0, 65, 52
2, 865813, Note_on_c, 0, 71, 0
2, 865817, Note_on_c, 0, 65, 0
2, 865841, Note_on_c, 0, 72, 81
2, 865841, Note_on_c, 0, 68, 50
2, 865897, Note_on_c, 0, 68, 0
2, 865921, Note_on_c, 0, 72, 0
2, 865957, Note_on_c, 0, 71, 79
2, 865977, Note_on_c, 0, 67, 50
2, 866033, Note_on_c, 0, 67, 0
2, 866037, Note_on_c, 0, 71, 0
2, 866069, Note_on_c, 0, 74, 82
2, 866069, Note_on_c, 0, 62, 68
2, 866137, Note_on_c, 0, 62, 0
2, 866145, Note_on_c, 0, 74, 0
2, 866177, Note_on_c, 0, 59, 58
2, 866181, Note_on_c, 0, 79, 85
2, 866261, Note_on_c, 0, 79, 0
2, 866277, Note_on_c, 0, 59, 0
2, 866293, Note_on_c, 0, 55, 53
2, 866293, Note_on_c, 0, 77, 87
2, 866313, Note_on_c, 0, 55, 0
2, 866377, Note_on_c, 0, 77, 0
2, 866409, Note_on_c, 0, 76, 88
2, 866409, Note_on_c, 0, 48, 68
2, 866485, Note_on_c, 0, 76, 0
2, 866513, Note_on_c, 0, 73, 71
2, 866529, Note_on_c, 0, 55, 58
2, 866533, Note_on_c, 0, 48, 0
2, 866601, Note_on_c, 0, 73, 0
2, 866605, Note_on_c, 0, 55, 0
2, 866633, Note_on_c, 0, 79, 86
2, 866641, Note_on_c, 0, 72, 80
2, 866645, Note_on_c, 0, 60, 62
2, 866693, Note_on_c, 0, 72, 0
2, 866721, Note_on_c, 0, 60, 0
2, 866725, Note_on_c, 0, 79, 0
2, 866753, Note_on_c, 0, 64, 62
2, 866753, Note_on_c, 0, 70, 68
2, 866785, Note_on_c, 0, 70, 0
2, 866813, Note_on_c, 0, 64, 0
2, 866869, Note_on_c, 0, 77, 90
2, 866873, Note_on_c, 0, 70, 77
2, 866877, Note_on_c, 0, 65, 68
2, 866921, Note_on_c, 0, 70, 0
2, 866981, Note_on_c, 0, 68, 60
2, 867049, Note_on_c, 0, 68, 0
2, 867101, Note_on_c, 0, 67, 65
2, 867113, Note_on_c, 0, 65, 0
2, 867193, Note_on_c, 0, 67, 0
2, 867225, Note_on_c, 0, 65, 59
2, 867249, Note_on_c, 0, 77, 0
2, 867297, Note_on_c, 0, 65, 0
2, 867373, Note_on_c, 0, 58, 32
2, 867377, Note_on_c, 0, 49, 33
2, 867405, Control_c, 0, 64, 24
2, 867417, Control_c, 0, 64, 56
2, 867429, Control_c, 0, 64, 88
2, 867441, Control_c, 0, 64, 127
2, 867493, Note_on_c, 0, 56, 50
2, 867497, Note_on_c, 0, 58, 0
2, 867581, Note_on_c, 0, 56, 0
2, 867597, Note_on_c, 0, 49, 0
2, 867633, Note_on_c, 0, 54, 42
2, 867637, Note_on_c, 0, 70, 71
2, 867713, Note_on_c, 0, 54, 0
2, 867729, Note_on_c, 0, 70, 0
2, 867753, Note_on_c, 0, 68, 72
2, 867757, Note_on_c, 0, 53, 58
2, 867849, Note_on_c, 0, 53, 0
2, 867869, Control_c, 0, 64, 88
2, 867881, Control_c, 0, 64, 40
2, 867885, Note_on_c, 0, 68, 0
2, 867889, Note_on_c, 0, 66, 75
2, 867893, Control_c, 0, 64, 0
2, 867901, Note_on_c, 0, 51, 44
2, 867909, Note_on_c, 0, 44, 47
2, 867973, Control_c, 0, 64, 40
2, 867989, Control_c, 0, 64, 72
2, 868001, Note_on_c, 0, 66, 0
2, 868001, Control_c, 0, 64, 88
2, 868005, Note_on_c, 0, 44, 0
2, 868009, Note_on_c, 0, 65, 82
2, 868009, Control_c, 0, 64, 104
2, 868013, Note_on_c, 0, 51, 0
2, 868037, Note_on_c, 0, 53, 54
2, 868101, Note_on_c, 0, 65, 0
2, 868137, Note_on_c, 0, 63, 77
2, 868141, Note_on_c, 0, 54, 51
2, 868161, Note_on_c, 0, 53, 0
2, 868229, Note_on_c, 0, 63, 0
2, 868241, Note_on_c, 0, 54, 0
2, 868253, Note_on_c, 0, 65, 79
2, 868273, Note_on_c, 0, 56, 49
2, 868365, Note_on_c, 0, 56, 0
2, 868385, Note_on_c, 0, 65, 0
2, 868393, Control_c, 0, 64, 88
2, 868397, Note_on_c, 0, 54, 53
2, 868401, Note_on_c, 0, 61, 79
2, 868405, Control_c, 0, 64, 72
2, 868413, Control_c, 0, 64, 24
2, 868425, Control_c, 0, 64, 0
2, 868441, Note_on_c, 0, 49, 39
2, 868517, Note_on_c, 0, 54, 0
2, 868533, Note_on_c, 0, 49, 0
2, 868533, Control_c, 0, 64, 40
2, 868545, Note_on_c, 0, 53, 46
2, 868545, Control_c, 0, 64, 72
2, 868557, Control_c, 0, 64, 127
2, 868625, Note_on_c, 0, 53, 0
2, 868665, Note_on_c, 0, 51, 51
2, 868677, Note_on_c, 0, 61, 0
2, 868741, Note_on_c, 0, 51, 0
2, 868781, Note_on_c, 0, 49, 49
2, 868909, Note_on_c, 0, 49, 0
2, 868941, Note_on_c, 0, 63, 77
2, 868949, Note_on_c, 0, 58, 53
2, 868949, Control_c, 0, 64, 88
2, 868961, Note_on_c, 0, 48, 50
2, 868961, Control_c, 0, 64, 56
2, 868973, Control_c, 0, 64, 0
2, 869041, Note_on_c, 0, 58, 0
2, 869093, Note_on_c, 0, 56, 61
2, 869093, Control_c, 0, 64, 40
2, 869105, Control_c, 0, 64, 88
2, 869117, Control_c, 0, 64, 127
2, 869189, Note_on_c, 0, 56, 0
2, 869217, Note_on_c, 0, 55, 55
2, 869285, Note_on_c, 0, 55, 0
2, 869321, Note_on_c, 0, 63, 0
2, 869333, Note_on_c, 0, 54, 70
2, 869389, Note_on_c, 0, 54, 0
2, 869461, Note_on_c, 0, 48, 0
2, 869461, Control_c, 0, 64, 72
2, 869465, Note_on_c, 0, 65, 80
2, 869469, Note_on_c, 0, 49, 56
2, 869469, Control_c, 0, 64, 0
2, 869473, Note_on_c, 0, 53, 54
2, 869553, Control_c, 0, 64, 40
2, 869561, Note_on_c, 0, 49, 0
2, 869565, Control_c, 0, 64, 72
2, 869577, Control_c, 0, 64, 127
2, 869593, Note_on_c, 0, 63, 61
2, 869605, Note_on_c, 0, 48, 45
2, 869617, Note_on_c, 0, 53, 0
2, 869705, Note_on_c, 0, 48, 0
2, 869717, Note_on_c, 0, 61, 67
2, 869721, Note_on_c, 0, 63, 0
2, 869733, Note_on_c, 0, 46, 57
2, 869737, Note_on_c, 0, 65, 0
2, 869817, Note_on_c, 0, 46, 0
2, 869825, Note_on_c, 0, 61, 0
2, 869837, Note_on_c, 0, 60, 86
2, 869849, Note_on_c, 0, 44, 46
2, 869885, Note_on_c, 0, 60, 0
2, 869981, Control_c, 0, 64, 104
2, 869985, Note_on_c, 0, 44, 0
2, 869993, Control_c, 0, 64, 40
2, 869997, Note_on_c, 0, 70, 82
2, 870005, Control_c, 0, 64, 0
2, 870009, Note_on_c, 0, 58, 56
2, 870017, Note_on_c, 0, 42, 48
2, 870077, Control_c, 0, 64, 40
2, 870089, Control_c, 0, 64, 104
2, 870101, Control_c, 0, 64, 127
2, 870117, Note_on_c, 0, 68, 76
2, 870149, Note_on_c, 0, 58, 0
2, 870161, Note_on_c, 0, 70, 0
2, 870225, Note_on_c, 0, 68, 0
2, 870245, Note_on_c, 0, 66, 77
2, 870253, Note_on_c, 0, 42, 0
2, 870333, Note_on_c, 0, 66, 0
2, 870361, Note_on_c, 0, 65, 81
2, 870405, Note_on_c, 0, 65, 0
2, 870493, Control_c, 0, 64, 72
2, 870505, Control_c, 0, 64, 0
2, 870513, Note_on_c, 0, 75, 85
2, 870525, Note_on_c, 0, 66, 65
2, 870533, Note_on_c, 0, 36, 58
2, 870561, Control_c, 0, 64, 40
2, 870573, Note_on_c, 0, 66, 0
2, 870577, Control_c, 0, 64, 127
2, 870637, Note_on_c, 0, 75, 0
2, 870677, Note_on_c, 0, 73, 82
2, 870681, Note_on_c, 0, 37, 55
2, 870689, Note_on_c, 0, 65, 76
2, 870701, Note_on_c, 0, 36, 0
2, 870733, Note_on_c, 0, 65, 0
2, 870765, Note_on_c, 0, 73, 0
2, 870805, Note_on_c, 0, 72, 90
2, 870809, Note_on_c, 0, 63, 70
2, 870817, Note_on_c, 0, 39, 47
2, 870857, Note_on_c, 0, 37, 0
2, 870861, Note_on_c, 0, 63, 0
2, 870869, Note_on_c, 0, 72, 0
2, 870905, Control_c, 0, 64, 104
2, 870921, Control_c, 0, 64, 88
2, 870925, Note_on_c, 0, 70, 77
2, 870929, Note_on_c, 0, 39, 0
2, 870929, Note_on_c, 0, 61, 67
2, 870929, Control_c, 0, 64, 104
2, 870937, Note_on_c, 0, 40, 60
2, 870945, Control_c, 0, 64, 127
2, 870977, Note_on_c, 0, 40, 0
2, 870985, Note_on_c, 0, 61, 0
2, 871013, Note_on_c, 0, 70, 0
2, 871029, Control_c, 0, 64, 56
2, 871041, Control_c, 0, 64, 24
2, 871049, Control_c, 0, 64, 0
2, 871053, Note_on_c, 0, 68, 77
2, 871053, Note_on_c, 0, 41, 60
2, 871061, Note_on_c, 0, 60, 65
2, 871085, Control_c, 0, 64, 56
2, 871097, Note_on_c, 0, 60, 0
2, 871097, Control_c, 0, 64, 88
2, 871109, Control_c, 0, 64, 104
2, 871121, Control_c, 0, 64, 127
2, 871133, Note_on_c, 0, 68, 0
2, 871149, Note_on_c, 0, 41, 0
2, 871169, Note_on_c, 0, 42, 52
2, 871169, Note_on_c, 0, 66, 73
2, 871177, Note_on_c, 0, 58, 54
2, 871213, Note_on_c, 0, 66, 0
2, 871245, Note_on_c, 0, 58, 0
2, 871265, Control_c, 0, 64, 56
2, 871277, Control_c, 0, 64, 0
2, 871281, Note_on_c, 0, 42, 0
2, 871297, Note_on_c, 0, 65, 77
2, 871297, Note_on_c, 0, 44, 54
2, 871309, Note_on_c, 0, 56, 43
2, 871337, Control_c, 0, 64, 24
2, 871345, Note_on_c, 0, 56, 0
2, 871349, Control_c, 0, 64, 56
2, 871361, Control_c, 0, 64, 104
2, 871373, Control_c, 0, 64, 127
2, 871397, Note_on_c, 0, 65, 0
2, 871413, Note_on_c, 0, 44, 0
2, 871417, Note_on_c, 0, 48, 69
2, 871425, Note_on_c, 0, 63, 70
2, 871429, Note_on_c, 0, 54, 55
2, 871441, Note_on_c, 0, 48, 0
2, 871473, Note_on_c, 0, 54, 0
2, 871549, Note_on_c, 0, 63, 0
2, 871589, Note_on_c, 0, 49, 51
2, 871589, Note_on_c, 0, 61, 71
2, 871597, Control_c, 0, 64, 104
2, 871609, Control_c, 0, 64, 72
2, 871617, Note_on_c, 0, 58, 31
2, 871621, Control_c, 0, 64, 24
2, 871633, Control_c, 0, 64, 0
2, 871725, Note_on_c, 0, 56, 57
2, 871733, Note_on_c, 0, 58, 0
2, 871741, Control_c, 0, 64, 24
2, 871753, Control_c, 0, 64, 56
2, 871765, Control_c, 0, 64, 104
2, 871777, Control_c, 0, 64, 127
2, 871825, Note_on_c, 0, 56, 0
2, 871833, Control_c, 0, 64, 72
2, 871845, Control_c, 0, 64, 24
2, 871857, Control_c, 0, 64, 0
2, 871865, Note_on_c, 0, 54, 51
2, 871881, Note_on_c, 0, 70, 73
2, 871893, Control_c, 0, 64, 40
2, 871905, Control_c, 0, 64, 72
2, 871917, Control_c, 0, 64, 127
2, 871925, Note_on_c, 0, 61, 0
2, 871937, Note_on_c, 0, 49, 0
2, 871961, Note_on_c, 0, 54, 0
2, 871989, Note_on_c, 0, 68, 75
2, 871993, Note_on_c, 0, 70, 0
2, 871997, Note_on_c, 0, 53, 61
2, 872081, Note_on_c, 0, 53, 0
2, 872085, Control_c, 0, 64, 104
2, 872097, Control_c, 0, 64, 40
2, 872109, Control_c, 0, 64, 0
2, 872117, Note_on_c, 0, 68, 0
2, 872121, Note_on_c, 0, 66, 69
2, 872129, Note_on_c, 0, 51, 55
2, 872129, Note_on_c, 0, 44, 50
2, 872201, Control_c, 0, 64, 24
2, 872213, Control_c, 0, 64, 56
2, 872229, Note_on_c, 0, 44, 0
2, 872229, Control_c, 0, 64, 88
2, 872233, Note_on_c, 0, 51, 0
2, 872237, Note_on_c, 0, 66, 0
2, 872237, Control_c, 0, 64, 104
2, 872249, Note_on_c, 0, 65, 79
2, 872265, Note_on_c, 0, 53, 55
2, 872321, Control_c, 0, 64, 72
2, 872365, Note_on_c, 0, 65, 0
2, 872377, Note_on_c, 0, 54, 54
2, 872381, Note_on_c, 0, 53, 0
2, 872381, Note_on_c, 0, 63, 69
2, 872441, Control_c, 0, 64, 88
2, 872465, Note_on_c, 0, 63, 0
2, 872477, Note_on_c, 0, 54, 0
2, 872501, Note_on_c, 0, 65, 74
2, 872509, Note_on_c, 0, 56, 43
2, 872525, Control_c, 0, 64, 104
2, 872609, Note_on_c, 0, 56, 0
2, 872609, Control_c, 0, 64, 72
2, 872621, Control_c, 0, 64, 40
2, 872629, Control_c, 0, 64, 0
2, 872633, Note_on_c, 0, 65, 0
2, 872641, Note_on_c, 0, 61, 65
2, 872641, Note_on_c, 0, 54, 48
2, 872669, Note_on_c, 0, 49, 49
2, 872753, Note_on_c, 0, 54, 0
2, 872773, Note_on_c, 0, 53, 62
2, 872773, Control_c, 0, 64, 24
2, 872781, Note_on_c, 0, 49, 0
2, 872785, Control_c, 0, 64, 56
2, 872797, Control_c, 0, 64, 88
2, 872809, Control_c, 0, 64, 104
2, 872821, Control_c, 0, 64, 127
2, 872889, Note_on_c, 0, 53, 0
2, 872897, Note_on_c, 0, 61, 0
2, 872901, Note_on_c, 0, 51, 55
2, 872973, Note_on_c, 0, 51, 0
2, 873017, Note_on_c, 0, 49, 53
2, 873113, Note_on_c, 0, 49, 0
2, 873129, Control_c, 0, 64, 104
2, 873141, Control_c, 0, 64, 88
2, 873153, Note_on_c, 0, 63, 78
2, 873153, Control_c, 0, 64, 72
2, 873161, Note_on_c, 0, 58, 58
2, 873165, Control_c, 0, 64, 56
2, 873177, Control_c, 0, 64, 0
2, 873185, Note_on_c, 0, 48, 47
2, 873249, Note_on_c, 0, 58, 0
2, 873285, Control_c, 0, 64, 40
2, 873297, Control_c, 0, 64, 88
2, 873309, Note_on_c, 0, 56, 53
2, 873309, Control_c, 0, 64, 127
2, 873393, Note_on_c, 0, 56, 0
2, 873437, Note_on_c, 0, 55, 50
2, 873493, Note_on_c, 0, 55, 0
2, 873513, Note_on_c, 0, 63, 0
2, 873549, Note_on_c, 0, 54, 56
2, 873597, Note_on_c, 0, 54, 0
2, 873665, Note_on_c, 0, 48, 0
2, 873673, Control_c, 0, 64, 72
2, 873677, Note_on_c, 0, 65, 81
2, 873685, Note_on_c, 0, 49, 58
2, 873685, Control_c, 0, 64, 0
2, 873689, Note_on_c, 0, 53, 57
2, 873761, Note_on_c, 0, 53, 0
2, 873769, Control_c, 0, 64, 56
2, 873777, Note_on_c, 0, 49, 0
2, 873781, Control_c, 0, 64, 104
2, 873793, Control_c, 0, 64, 127
2, 873805, Note_on_c, 0, 63, 60
2, 873817, Note_on_c, 0, 48, 63
2, 873909, Note_on_c, 0, 48, 0
2, 873909, Note_on_c, 0, 65, 0
2, 873929, Note_on_c, 0, 61, 65
2, 873949, Note_on_c, 0, 63, 0
2, 873949, Note_on_c, 0, 46, 48
2, 874021, Note_on_c, 0, 46, 0
2, 874025, Note_on_c, 0, 61, 0
2, 874049, Note_on_c, 0, 60, 80
2, 874053, Note_on_c, 0, 44, 48
2, 874133, Note_on_c, 0, 60, 0
2, 874181, Note_on_c, 0, 44, 0
2, 874185, Control_c, 0, 64, 104
2, 874193, Note_on_c, 0, 67, 86
2, 874197, Control_c, 0, 64, 40
2, 874209, Note_on_c, 0, 59, 65
2, 874209, Control_c, 0, 64, 0
2, 874221, Note_on_c, 0, 43, 53
2, 874229, Note_on_c, 0, 50, 49
2, 874293, Control_c, 0, 64, 56
2, 874305, Control_c, 0, 64, 127
2, 874325, Note_on_c, 0, 65, 82
2, 874357, Note_on_c, 0, 43, 0
2, 874381, Note_on_c, 0, 59, 0
2, 874413, Note_on_c, 0, 67, 0
2, 874421, Note_on_c, 0, 50, 0
2, 874453, Note_on_c, 0, 64, 82
2, 874457, Note_on_c, 0, 65, 0
2, 874561, Note_on_c, 0, 64, 0
2, 874565, Note_on_c, 0, 62, 87
2, 874617, Note_on_c, 0, 36, 43
2, 874621, Note_on_c, 0, 62, 0
2, 874721, Note_on_c, 0, 52, 40
2, 874745, Control_c, 0, 64, 104
2, 874749, Note_on_c, 0, 72, 93
2, 874753, Note_on_c, 0, 60, 70
2, 874757, Control_c, 0, 64, 40
2, 874769, Control_c, 0, 64, 0
2, 874825, Control_c, 0, 64, 24
2, 874841, Control_c, 0, 64, 88
2, 874849, Control_c, 0, 64, 127
2, 874857, Note_on_c, 0, 60, 0
2, 874877, Note_on_c, 0, 70, 77
2, 874901, Note_on_c, 0, 36, 0
2, 874913, Note_on_c, 0, 72, 0
2, 874921, Note_on_c, 0, 52, 0
2, 874993, Note_on_c, 0, 68, 75
2, 875021, Note_on_c, 0, 70, 0
2, 875093, Note_on_c, 0, 68, 0
2, 875113, Note_on_c, 0, 67, 77
2, 875153, Note_on_c, 0, 67, 0
2, 875261, Note_on_c, 0, 65, 78
2, 875261, Note_on_c, 0, 48, 44
2, 875261, Note_on_c, 0, 53, 40
2, 875265, Note_on_c, 0, 58, 71
2, 875269, Note_on_c, 0, 41, 42
2, 875281, Control_c, 0, 64, 104
2, 875289, Control_c, 0, 64, 40
2, 875301, Control_c, 0, 64, 0
2, 875369, Note_on_c, 0, 58, 0
2, 875373, Control_c, 0, 64, 56
2, 875385, Note_on_c, 0, 56, 69
2, 875385, Control_c, 0, 64, 104
2, 875397, Control_c, 0, 64, 127
2, 875433, Note_on_c, 0, 53, 0
2, 875473, Note_on_c, 0, 56, 0
2, 875537, Note_on_c, 0, 55, 66
2, 875541, Control_c, 0, 64, 88
2, 875553, Control_c, 0, 64, 0
2, 875625, Control_c, 0, 64, 24
2, 875637, Control_c, 0, 64, 72
2, 875645, Note_on_c, 0, 55, 0
2, 875645, Note_on_c, 0, 41, 0
2, 875645, Control_c, 0, 64, 104
2, 875653, Note_on_c, 0, 48, 0
2, 875657, Control_c, 0, 64, 127
2, 875697, Note_on_c, 0, 53, 68
2, 875749, Note_on_c, 0, 53, 0
2, 875873, Note_on_c, 0, 58, 58
2, 875873, Control_c, 0, 64, 104
2, 875881, Note_on_c, 0, 49, 51
2, 875885, Control_c, 0, 64, 56
2, 875897, Control_c, 0, 64, 0
2, 875961, Note_on_c, 0, 65, 0
2, 876017, Control_c, 0, 64, 40
2, 876029, Control_c, 0, 64, 88
2, 876037, Note_on_c, 0, 56, 48
2, 876041, Control_c, 0, 64, 127
2, 876049, Note_on_c, 0, 58, 0
2, 876145, Note_on_c, 0, 56, 0
2, 876145, Control_c, 0, 64, 104
2, 876157, Control_c, 0, 64, 56
2, 876169, Control_c, 0, 64, 0
2, 876181, Note_on_c, 0, 70, 73
2, 876181, Note_on_c, 0, 54, 55
2, 876217, Control_c, 0, 64, 24
2, 876229, Control_c, 0, 64, 72
2, 876241, Control_c, 0, 64, 104
2, 876253, Control_c, 0, 64, 127
2, 876273, Note_on_c, 0, 70, 0
2, 876273, Note_on_c, 0, 49, 0
2, 876277, Note_on_c, 0, 54, 0
2, 876301, Note_on_c, 0, 68, 69
2, 876305, Note_on_c, 0, 53, 66
2, 876401, Note_on_c, 0, 53, 0
2, 876421, Note_on_c, 0, 68, 0
2, 876421, Control_c, 0, 64, 56
2, 876429, Control_c, 0, 64, 0
2, 876433, Note_on_c, 0, 66, 67
2, 876437, Note_on_c, 0, 51, 58
2, 876537, Control_c, 0, 64, 24
2, 876541, Note_on_c, 0, 66, 0
2, 876549, Control_c, 0, 64, 56
2, 876553, Note_on_c, 0, 51, 0
2, 876553, Note_on_c, 0, 65, 76
2, 876561, Control_c, 0, 64, 88
2, 876565, Note_on_c, 0, 53, 60
2, 876585, Control_c, 0, 64, 104
2, 876621, Control_c, 0, 64, 127
2, 876641, Note_on_c, 0, 65, 0
2, 876681, Note_on_c, 0, 63, 69
2, 876685, Note_on_c, 0, 54, 54
2, 876705, Note_on_c, 0, 53, 0
2, 876773, Note_on_c, 0, 54, 0
2, 876773, Note_on_c, 0, 63, 0
2, 876801, Note_on_c, 0, 65, 70
2, 876805, Note_on_c, 0, 56, 50
2, 876893, Control_c, 0, 64, 88
2, 876897, Note_on_c, 0, 56, 0
2, 876905, Control_c, 0, 64, 72
2, 876909, Note_on_c, 0, 65, 0
2, 876917, Control_c, 0, 64, 56
2, 876929, Control_c, 0, 64, 0
2, 876937, Note_on_c, 0, 54, 47
2, 876949, Note_on_c, 0, 61, 63
2, 876953, Note_on_c, 0, 49, 49
2, 877049, Note_on_c, 0, 54, 0
2, 877073, Note_on_c, 0, 49, 0
2, 877077, Note_on_c, 0, 53, 59
2, 877097, Control_c, 0, 64, 40
2, 877109, Control_c, 0, 64, 72
2, 877121, Control_c, 0, 64, 88
2, 877145, Control_c, 0, 64, 104
2, 877181, Control_c, 0, 64, 127
2, 877189, Note_on_c, 0, 53, 0
2, 877209, Note_on_c, 0, 51, 53
2, 877233, Note_on_c, 0, 61, 0
2, 877301, Note_on_c, 0, 51, 0
2, 877329, Note_on_c, 0, 49, 51
2, 877437, Note_on_c, 0, 49, 0
2, 877469, Note_on_c, 0, 63, 69
2, 877477, Note_on_c, 0, 58, 51
2, 877493, Note_on_c, 0, 48, 51
2, 877501, Control_c, 0, 64, 72
2, 877513, Control_c, 0, 64, 24
2, 877525, Control_c, 0, 64, 0
2, 877569, Note_on_c, 0, 58, 0
2, 877605, Control_c, 0, 64, 24
2, 877609, Note_on_c, 0, 56, 59
2, 877617, Control_c, 0, 64, 72
2, 877629, Control_c, 0, 64, 127
2, 877689, Note_on_c, 0, 56, 0
2, 877729, Note_on_c, 0, 55, 61
2, 877801, Note_on_c, 0, 55, 0
2, 877837, Note_on_c, 0, 63, 0
2, 877853, Note_on_c, 0, 54, 65
2, 877909, Note_on_c, 0, 54, 0
2, 877981, Note_on_c, 0, 48, 0
2, 877985, Note_on_c, 0, 49, 62
2, 877989, Note_on_c, 0, 65, 82
2, 877989, Control_c, 0, 64, 72
2, 877993, Note_on_c, 0, 53, 66
2, 877997, Control_c, 0, 64, 0
2, 878057, Note_on_c, 0, 53, 0
2, 878069, Control_c, 0, 64, 24
2, 878081, Note_on_c, 0, 49, 0
2, 878081, Control_c, 0, 64, 72
2, 878093, Control_c, 0, 64, 104
2, 878105, Control_c, 0, 64, 127
2, 878113, Note_on_c, 0, 63, 67
2, 878121, Note_on_c, 0, 48, 63
2, 878233, Note_on_c, 0, 48, 0
2, 878233, Note_on_c, 0, 65, 0
2, 878241, Note_on_c, 0, 61, 67
2, 878257, Note_on_c, 0, 63, 0
2, 878261, Note_on_c, 0, 46, 46
2, 878337, Note_on_c, 0, 46, 0
2, 878345, Note_on_c, 0, 61, 0
2, 878373, Note_on_c, 0, 60, 74
2, 878373, Note_on_c, 0, 44, 49
2, 878417, Note_on_c, 0, 60, 0
2, 878505, Note_on_c, 0, 44, 0
2, 878521, Control_c, 0, 64, 104
2, 878525, Note_on_c, 0, 70, 78
2, 878529, Note_on_c, 0, 58, 61
2, 878533, Control_c, 0, 64, 56
2, 878537, Note_on_c, 0, 42, 49
2, 878541, Control_c, 0, 64, 0
2, 878629, Control_c, 0, 64, 24
2, 878641, Control_c, 0, 64, 88
2, 878649, Note_on_c, 0, 68, 71
2, 878653, Control_c, 0, 64, 127
2, 878685, Note_on_c, 0, 70, 0
2, 878725, Note_on_c, 0, 58, 0
2, 878777, Note_on_c, 0, 68, 0
2, 878785, Note_on_c, 0, 42, 0
2, 878789, Note_on_c, 0, 66, 77
2, 878905, Note_on_c, 0, 66, 0
2, 878905, Note_on_c, 0, 65, 90
2, 878957, Note_on_c, 0, 65, 0
2, 879041, Control_c, 0, 64, 104
2, 879053, Control_c, 0, 64, 40
2, 879065, Control_c, 0, 64, 0
2, 879069, Note_on_c, 0, 75, 88
2, 879081, Note_on_c, 0, 66, 68
2, 879089, Note_on_c, 0, 36, 64
2, 879125, Note_on_c, 0, 66, 0
2, 879129, Control_c, 0, 64, 40
2, 879137, Control_c, 0, 64, 104
2, 879149, Control_c, 0, 64, 127
2, 879181, Note_on_c, 0, 75, 0
2, 879233, Note_on_c, 0, 73, 85
2, 879241, Note_on_c, 0, 65, 72
2, 879245, Note_on_c, 0, 37, 55
2, 879257, Note_on_c, 0, 36, 0
2, 879289, Note_on_c, 0, 65, 0
2, 879313, Note_on_c, 0, 73, 0
2, 879361, Note_on_c, 0, 72, 90
2, 879369, Note_on_c, 0, 63, 67
2, 879373, Note_on_c, 0, 39, 53
2, 879401, Note_on_c, 0, 37, 0
2, 879417, Note_on_c, 0, 63, 0
2, 879429, Note_on_c, 0, 72, 0
2, 879449, Control_c, 0, 64, 72
2, 879461, Control_c, 0, 64, 24
2, 879469, Control_c, 0, 64, 0
2, 879477, Note_on_c, 0, 39, 0
2, 879477, Note_on_c, 0, 70, 77
2, 879481, Control_c, 0, 64, 24
2, 879489, Note_on_c, 0, 61, 57
2, 879489, Note_on_c, 0, 40, 44
2, 879497, Control_c, 0, 64, 40
2, 879505, Control_c, 0, 64, 72
2, 879517, Control_c, 0, 64, 127
2, 879549, Note_on_c, 0, 61, 0
2, 879569, Note_on_c, 0, 70, 0
2, 879577, Control_c, 0, 64, 72
2, 879589, Control_c, 0, 64, 24
2, 879601, Note_on_c, 0, 68, 76
2, 879601, Control_c, 0, 64, 0
2, 879605, Note_on_c, 0, 41, 56
2, 879613, Control_c, 0, 64, 24
2, 879617, Note_on_c, 0, 60, 63
2, 879625, Note_on_c, 0, 40, 0
2, 879625, Control_c, 0, 64, 40
2, 879637, Control_c, 0, 64, 72
2, 879641, Note_on_c, 0, 60, 0
2, 879649, Control_c, 0, 64, 104
2, 879661, Control_c, 0, 64, 127
2, 879681, Note_on_c, 0, 68, 0
2, 879697, Control_c, 0, 64, 40
2, 879709, Control_c, 0, 64, 0
2, 879713, Note_on_c, 0, 41, 0
2, 879721, Note_on_c, 0, 66, 75
2, 879729, Note_on_c, 0, 42, 57
2, 879741, Note_on_c, 0, 58, 38
2, 879757, Control_c, 0, 64, 40
2, 879769, Control_c, 0, 64, 88
2, 879781, Note_on_c, 0, 66, 0
2, 879781, Control_c, 0, 64, 104
2, 879793, Note_on_c, 0, 58, 0
2, 879793, Control_c, 0, 64, 127
2, 879825, Control_c, 0, 64, 40
2, 879837, Control_c, 0, 64, 0
2, 879841, Note_on_c, 0, 42, 0
2, 879853, Note_on_c, 0, 65, 73
2, 879861, Note_on_c, 0, 44, 65
2, 879873, Note_on_c, 0, 56, 54
2, 879885, Control_c, 0, 64, 24
2, 879897, Control_c, 0, 64, 56
2, 879901, Note_on_c, 0, 56, 0
2, 879909, Control_c, 0, 64, 88
2, 879921, Control_c, 0, 64, 127
2, 879945, Note_on_c, 0, 65, 0
2, 879977, Note_on_c, 0, 63, 74
2, 879977, Note_on_c, 0, 48, 69
2, 879981, Note_on_c, 0, 44, 0
2, 880021, Note_on_c, 0, 48, 0
2, 880109, Note_on_c, 0, 63, 0
2, 880113, Control_c, 0, 64, 104
2, 880125, Control_c, 0, 64, 72
2, 880129, Note_on_c, 0, 61, 75
2, 880137, Control_c, 0, 64, 24
2, 880149, Note_on_c, 0, 49, 59
2, 880149, Control_c, 0, 64, 0
2, 880153, Note_on_c, 0, 58, 42
2, 880257, Control_c, 0, 64, 40
2, 880261, Note_on_c, 0, 56, 60
2, 880265, Note_on_c, 0, 58, 0
2, 880269, Control_c, 0, 64, 88
2, 880277, Control_c, 0, 64, 104
2, 880289, Control_c, 0, 64, 127
2, 880349, Control_c, 0, 64, 40
2, 880353, Note_on_c, 0, 56, 0
2, 880361, Control_c, 0, 64, 0
2, 880389, Note_on_c, 0, 54, 55
2, 880393, Note_on_c, 0, 70, 70
2, 880445, Note_on_c, 0, 61, 0
2, 880457, Control_c, 0, 64, 56
2, 880469, Control_c, 0, 64, 88
2, 880473, Note_on_c, 0, 49, 0
2, 880481, Control_c, 0, 64, 104
2, 880493, Control_c, 0, 64, 127
2, 880497, Note_on_c, 0, 54, 0
2, 880517, Note_on_c, 0, 53, 60
2, 880517, Note_on_c, 0, 68, 75
2, 880537, Note_on_c, 0, 70, 0
2, 880593, Note_on_c, 0, 53, 0
2, 880621, Control_c, 0, 64, 72
2, 880633, Note_on_c, 0, 68, 0
2, 880633, Control_c, 0, 64, 24
2, 880645, Note_on_c, 0, 51, 57
2, 880645, Note_on_c, 0, 66, 69
2, 880645, Control_c, 0, 64, 0
2, 880661, Note_on_c, 0, 44, 37
2, 880741, Control_c, 0, 64, 40
2, 880749, Note_on_c, 0, 66, 0
2, 880753, Control_c, 0, 64, 72
2, 880757, Note_on_c, 0, 51, 0
2, 880765, Note_on_c, 0, 44, 0
2, 880765, Control_c, 0, 64, 88
2, 880769, Note_on_c, 0, 65, 74
2, 880777, Control_c, 0, 64, 104
2, 880781, Note_on_c, 0, 53, 60
2, 880825, Control_c, 0, 64, 127
2, 880873, Note_on_c, 0, 65, 0
2, 880889, Note_on_c, 0, 63, 65
2, 880897, Note_on_c, 0, 54, 55
2, 880913, Note_on_c, 0, 53, 0
2, 880953, Note_on_c, 0, 63, 0
2, 881021, Note_on_c, 0, 54, 0
2, 881021, Note_on_c, 0, 65, 68
2, 881037, Note_on_c, 0, 56, 50
2, 881125, Note_on_c, 0, 56, 0
2, 881145, Note_on_c, 0, 65, 0
2, 881145, Control_c, 0, 64, 88
2, 881157, Control_c, 0, 64, 72
2, 881169, Note_on_c, 0, 61, 62
2, 881169, Note_on_c, 0, 54, 55
2, 881169, Control_c, 0, 64, 24
2, 881181, Control_c, 0, 64, 0
2, 881193, Note_on_c, 0, 49, 44
2, 881285, Note_on_c, 0, 54, 0
2, 881301, Control_c, 0, 64, 40
2, 881305, Note_on_c, 0, 49, 0
2, 881305, Note_on_c, 0, 53, 69
2, 881309, Control_c, 0, 64, 72
2, 881321, Control_c, 0, 64, 88
2, 881333, Control_c, 0, 64, 104
2, 881373, Control_c, 0, 64, 127
2, 881409, Note_on_c, 0, 53, 0
2, 881437, Note_on_c, 0, 51, 54
2, 881457, Note_on_c, 0, 61, 0
2, 881513, Note_on_c, 0, 51, 0
2, 881549, Note_on_c, 0, 49, 57
2, 881649, Note_on_c, 0, 49, 0
2, 881693, Control_c, 0, 64, 88
2, 881701, Note_on_c, 0, 63, 74
2, 881705, Control_c, 0, 64, 72
2, 881709, Note_on_c, 0, 58, 55
2, 881717, Control_c, 0, 64, 56
2, 881729, Control_c, 0, 64, 0
2, 881733, Note_on_c, 0, 48, 41
2, 881793, Note_on_c, 0, 58, 0
2, 881833, Control_c, 0, 64, 56
2, 881845, Note_on_c, 0, 56, 57
2, 881845, Control_c, 0, 64, 88
2, 881857, Control_c, 0, 64, 127
2, 881929, Note_on_c, 0, 56, 0
2, 881981, Note_on_c, 0, 55, 48
2, 882045, Note_on_c, 0, 55, 0
2, 882069, Note_on_c, 0, 63, 0
2, 882093, Note_on_c, 0, 54, 62
2, 882145, Note_on_c, 0, 54, 0
2, 882213, Control_c, 0, 64, 72
2, 882225, Note_on_c, 0, 48, 0
2, 882225, Note_on_c, 0, 65, 82
2, 882225, Control_c, 0, 64, 24
2, 882229, Note_on_c, 0, 49, 64
2, 882233, Note_on_c, 0, 53, 64
2, 882237, Control_c, 0, 64, 0
2, 882309, Control_c, 0, 64, 56
2, 882321, Control_c, 0, 64, 104
2, 882325, Note_on_c, 0, 49, 0
2, 882333, Control_c, 0, 64, 127
2, 882357, Note_on_c, 0, 63, 60
2, 882369, Note_on_c, 0, 48, 63
2, 882405, Note_on_c, 0, 53, 0
2, 882469, Note_on_c, 0, 48, 0
2, 882477, Note_on_c, 0, 63, 0
2, 882489, Note_on_c, 0, 61, 57
2, 882493, Note_on_c, 0, 46, 53
2, 882509, Note_on_c, 0, 65, 0
2, 882581, Note_on_c, 0, 61, 0
2, 882585, Note_on_c, 0, 46, 0
2, 882621, Note_on_c, 0, 44, 44
2, 882629, Note_on_c, 0, 60, 72
2, 882697, Note_on_c, 0, 60, 0
2, 882745, Note_on_c, 0, 44, 0
2, 882757, Note_on_c, 0, 67, 84
2, 882761, Control_c, 0, 64, 88
2, 882769, Note_on_c, 0, 59, 66
2, 882773, Control_c, 0, 64, 40
2, 882777, Note_on_c, 0, 50, 57
2, 882781, Note_on_c, 0, 43, 58
2, 882781, Control_c, 0, 64, 0
2, 882869, Control_c, 0, 64, 40
2, 882881, Control_c, 0, 64, 104
2, 882885, Note_on_c, 0, 65, 80
2, 882893, Control_c, 0, 64, 127
2, 882897, Note_on_c, 0, 43, 0
2, 882941, Note_on_c, 0, 50, 0
2, 882965, Note_on_c, 0, 59, 0
2, 883005, Note_on_c, 0, 67, 0
2, 883021, Note_on_c, 0, 64, 84
2, 883025, Note_on_c, 0, 65, 0
2, 883137, Note_on_c, 0, 64, 0
2, 883137, Note_on_c, 0, 62, 84
2, 883177, Note_on_c, 0, 36, 48
2, 883197, Note_on_c, 0, 62, 0
2, 883301, Note_on_c, 0, 52, 46
2, 883317, Note_on_c, 0, 72, 94
2, 883325, Note_on_c, 0, 60, 68
2, 883329, Control_c, 0, 64, 88
2, 883341, Control_c, 0, 64, 40
2, 883353, Control_c, 0, 64, 0
2, 883429, Note_on_c, 0, 60, 0
2, 883437, Control_c, 0, 64, 40
2, 883449, Note_on_c, 0, 70, 78
2, 883449, Control_c, 0, 64, 127
2, 883509, Note_on_c, 0, 72, 0
2, 883553, Note_on_c, 0, 36, 0
2, 883565, Note_on_c, 0, 68, 76
2, 883577, Note_on_c, 0, 70, 0
2, 883609, Note_on_c, 0, 52, 0
2, 883677, Note_on_c, 0, 68, 0
2, 883705, Note_on_c, 0, 67, 77
2, 883749, Note_on_c, 0, 67, 0
2, 883841, Control_c, 0, 64, 88
2, 883853, Control_c, 0, 64, 40
2, 883861, Note_on_c, 0, 58, 73
2, 883861, Note_on_c, 0, 65, 75
2, 883865, Note_on_c, 0, 53, 47
2, 883865, Control_c, 0, 64, 0
2, 883877, Note_on_c, 0, 48, 51
2, 883893, Note_on_c, 0, 41, 39
2, 883921, Control_c, 0, 64, 24
2, 883933, Control_c, 0, 64, 72
2, 883949, Control_c, 0, 64, 127
2, 883957, Note_on_c, 0, 58, 0
2, 883993, Note_on_c, 0, 56, 65
2, 884017, Note_on_c, 0, 53, 0
2, 884105, Note_on_c, 0, 56, 0
2, 884113, Control_c, 0, 64, 88
2, 884125, Control_c, 0, 64, 24
2, 884137, Control_c, 0, 64, 0
2, 884145, Note_on_c, 0, 55, 66
2, 884197, Control_c, 0, 64, 24
2, 884209, Control_c, 0, 64, 72
2, 884221, Note_on_c, 0, 55, 0
2, 884221, Control_c, 0, 64, 127
2, 884317, Note_on_c, 0, 54, 55
2, 884317, Control_c, 0, 64, 72
2, 884329, Control_c, 0, 64, 24
2, 884341, Control_c, 0, 64, 0
2, 884425, Note_on_c, 0, 54, 0
2, 884433, Note_on_c, 0, 48, 0
2, 884441, Note_on_c, 0, 41, 0
2, 884457, Note_on_c, 0, 65, 0
2, 884507, Note_on_c, 0, 53, 66
2, 884507, Note_on_c, 0, 80, 86
2, 884535, Note_on_c, 0, 53, 0
2, 884611, Note_on_c, 0, 80, 0
2, 884629, Note_on_c, 0, 72, 83
2, 884633, Note_on_c, 0, 60, 59
2, 884701, Note_on_c, 0, 60, 0
2, 884721, Note_on_c, 0, 72, 0
2, 884749, Note_on_c, 0, 71, 73
2, 884757, Note_on_c, 0, 65, 49
2, 884813, Note_on_c, 0, 65, 0
2, 884833, Note_on_c, 0, 71, 0
2, 884861, Note_on_c, 0, 72, 84
2, 884861, Note_on_c, 0, 68, 52
2, 884909, Note_on_c, 0, 68, 0
2, 884937, Note_on_c, 0, 72, 0
2, 884981, Note_on_c, 0, 71, 83
2, 884989, Note_on_c, 0, 67, 66
2, 885013, Note_on_c, 0, 78, 32
2, 885041, Note_on_c, 0, 78, 0
2, 885049, Note_on_c, 0, 67, 0
2, 885061, Note_on_c, 0, 71, 0
2, 885101, Note_on_c, 0, 74, 85
2, 885109, Note_on_c, 0, 62, 67
2, 885177, Note_on_c, 0, 74, 0
2, 885181, Note_on_c, 0, 62, 0
2, 885221, Note_on_c, 0, 79, 85
2, 885221, Note_on_c, 0, 59, 61
2, 885297, Note_on_c, 0, 79, 0
2, 885325, Note_on_c, 0, 59, 0
2, 885333, Note_on_c, 0, 77, 87
2, 885337, Note_on_c, 0, 55, 64
2, 885357, Note_on_c, 0, 55, 0
2, 885421, Note_on_c, 0, 77, 0
2, 885453, Note_on_c, 0, 76, 87
2, 885465, Note_on_c, 0, 48, 75
2, 885525, Note_on_c, 0, 48, 0
2, 885545, Note_on_c, 0, 76, 0
2, 885577, Note_on_c, 0, 73, 72
2, 885585, Note_on_c, 0, 55, 59
2, 885649, Note_on_c, 0, 55, 0
2, 885673, Note_on_c, 0, 73, 0
2, 885693, Note_on_c, 0, 79, 84
2, 885697, Note_on_c, 0, 60, 63
2, 885705, Note_on_c, 0, 72, 70
2, 885761, Note_on_c, 0, 72, 0
2, 885781, Note_on_c, 0, 60, 0
2, 885809, Note_on_c, 0, 79, 0
2, 885809, Note_on_c, 0, 70, 77
2, 885821, Note_on_c, 0, 64, 35
2, 885861, Note_on_c, 0, 64, 0
2, 885873, Note_on_c, 0, 70, 0
2, 885929, Note_on_c, 0, 77, 83
2, 885941, Note_on_c, 0, 70, 77
2, 885945, Note_on_c, 0, 65, 70
2, 886005, Note_on_c, 0, 70, 0
2, 886037, Note_on_c, 0, 65, 0
2, 886061, Note_on_c, 0, 68, 67
2, 886065, Note_on_c, 0, 60, 61
2, 886125, Note_on_c, 0, 68, 0
2, 886145, Note_on_c, 0, 60, 0
2, 886173, Note_on_c, 0, 58, 55
2, 886177, Note_on_c, 0, 67, 59
2, 886257, Note_on_c, 0, 77, 0
2, 886285, Note_on_c, 0, 67, 0
2, 886285, Note_on_c, 0, 56, 60
2, 886289, Note_on_c, 0, 58, 0
2, 886293, Note_on_c, 0, 65, 70
2, 886321, Note_on_c, 0, 65, 0
2, 886369, Note_on_c, 0, 56, 0
2, 886421, Note_on_c, 0, 80, 92
2, 886429, Note_on_c, 0, 53, 68
2, 886513, Note_on_c, 0, 80, 0
2, 886537, Note_on_c, 0, 72, 86
2, 886549, Note_on_c, 0, 60, 64
2, 886577, Note_on_c, 0, 53, 0
2, 886625, Note_on_c, 0, 60, 0
2, 886637, Note_on_c, 0, 72, 0
2, 886657, Note_on_c, 0, 71, 79
2, 886661, Note_on_c, 0, 65, 59
2, 886733, Note_on_c, 0, 65, 0
2, 886737, Note_on_c, 0, 71, 0
2, 886765, Note_on_c, 0, 72, 89
2, 886765, Note_on_c, 0, 68, 60
2, 886809, Note_on_c, 0, 68, 0
2, 886837, Note_on_c, 0, 72, 0
2, 886885, Note_on_c, 0, 71, 88
2, 886893, Note_on_c, 0, 67, 70
2, 886961, Note_on_c, 0, 67, 0
2, 886977, Note_on_c, 0, 71, 0
2, 886997, Note_on_c, 0, 62, 67
2, 886997, Note_on_c, 0, 74, 86
2, 887069, Note_on_c, 0, 62, 0
2, 887077, Note_on_c, 0, 74, 0
2, 887117, Note_on_c, 0, 59, 62
2, 887121, Note_on_c, 0, 79, 83
2, 887193, Note_on_c, 0, 79, 0
2, 887213, Note_on_c, 0, 59, 0
2, 887225, Note_on_c, 0, 55, 68
2, 887229, Note_on_c, 0, 77, 87
2, 887245, Note_on_c, 0, 55, 0
2, 887321, Note_on_c, 0, 77, 0
2, 887349, Note_on_c, 0, 76, 86
2, 887357, Note_on_c, 0, 48, 76
2, 887417, Note_on_c, 0, 48, 0
2, 887445, Note_on_c, 0, 76, 0
2, 887469, Note_on_c, 0, 73, 77
2, 887477, Note_on_c, 0, 55, 64
2, 887541, Note_on_c, 0, 55, 0
2, 887573, Note_on_c, 0, 73, 0
2, 887593, Note_on_c, 0, 79, 84
2, 887593, Note_on_c, 0, 60, 62
2, 887601, Note_on_c, 0, 72, 74
2, 887657, Note_on_c, 0, 72, 0
2, 887677, Note_on_c, 0, 60, 0
2, 887709, Note_on_c, 0, 79, 0
2, 887713, Note_on_c, 0, 70, 75
2, 887713, Note_on_c, 0, 64, 47
2, 887749, Note_on_c, 0, 64, 0
2, 887773, Note_on_c, 0, 70, 0
2, 887833, Note_on_c, 0, 77, 87
2, 887845, Note_on_c, 0, 70, 75
2, 887849, Note_on_c, 0, 65, 68
2, 887901, Note_on_c, 0, 70, 0
2, 887961, Note_on_c, 0, 68, 67
2, 887969, Note_on_c, 0, 65, 0
2, 887973, Note_on_c, 0, 60, 51
2, 888021, Note_on_c, 0, 68, 0
2, 888057, Note_on_c, 0, 60, 0
2, 888057, Note_on_c, 0, 77, 0
2, 888073, Note_on_c, 0, 58, 52
2, 888077, Note_on_c, 0, 67, 66
2, 888185, Note_on_c, 0, 67, 0
2, 888185, Note_on_c, 0, 56, 61
2, 888193, Note_on_c, 0, 65, 76
2, 888205, Note_on_c, 0, 58, 0
2, 888245, Note_on_c, 0, 65, 0
2, 888245, Note_on_c, 0, 56, 0
2, 888313, Note_on_c, 0, 63, 79
2, 888393, Note_on_c, 0, 63, 0
2, 888429, Note_on_c, 0, 55, 82
2, 888545, Note_on_c, 0, 79, 90
2, 888549, Note_on_c, 0, 75, 67
2, 888549, Note_on_c, 0, 67, 67
2, 888553, Note_on_c, 0, 55, 0
2, 888553, Note_on_c, 0, 54, 76
2, 888553, Note_on_c, 0, 72, 71
2, 888653, Note_on_c, 0, 54, 0
2, 888657, Note_on_c, 0, 55, 74
2, 888701, Note_on_c, 0, 67, 0
2, 888701, Note_on_c, 0, 75, 0
2, 888733, Note_on_c, 0, 55, 0
2, 888737, Note_on_c, 0, 72, 0
2, 888773, Note_on_c, 0, 54, 79
2, 888789, Note_on_c, 0, 48, 87
2, 888797, Note_on_c, 0, 79, 0
2, 888849, Note_on_c, 0, 48, 0
2, 888869, Note_on_c, 0, 54, 0
2, 888901, Note_on_c, 0, 57, 87
2, 888989, Note_on_c, 0, 57, 0
2, 889017, Note_on_c, 0, 81, 93
2, 889017, Note_on_c, 0, 62, 82
2, 889021, Note_on_c, 0, 72, 78
2, 889025, Note_on_c, 0, 69, 72
2, 889025, Note_on_c, 0, 78, 64
2, 889029, Note_on_c, 0, 74, 65
2, 889113, Note_on_c, 0, 62, 0
2, 889129, Note_on_c, 0, 60, 87
2, 889153, Note_on_c, 0, 74, 0
2, 889185, Note_on_c, 0, 60, 0
2, 889189, Note_on_c, 0, 69, 0
2, 889201, Note_on_c, 0, 72, 0
2, 889221, Note_on_c, 0, 78, 0
2, 889261, Note_on_c, 0, 59, 89
2, 889269, Note_on_c, 0, 48, 84
2, 889341, Note_on_c, 0, 59, 0
2, 889357, Note_on_c, 0, 81, 0
2, 889381, Note_on_c, 0, 56, 88
2, 889437, Note_on_c, 0, 48, 0
2, 889461, Note_on_c, 0, 56, 0
2, 889497, Note_on_c, 0, 83, 95
2, 889497, Note_on_c, 0, 55, 85
2, 889505, Note_on_c, 0, 74, 80
2, 889505, Note_on_c, 0, 79, 78
2, 889505, Note_on_c, 0, 71, 78
2, 889505, Note_on_c, 0, 77, 74
2, 889577, Note_on_c, 0, 55, 0
2, 889613, Note_on_c, 0, 53, 88
2, 889669, Note_on_c, 0, 53, 0
2, 889669, Note_on_c, 0, 77, 0
2, 889669, Note_on_c, 0, 74, 0
2, 889673, Note_on_c, 0, 71, 0
2, 889701, Note_on_c, 0, 79, 0
2, 889717, Note_on_c, 0, 83, 0
2, 889741, Note_on_c, 0, 53, 94
2, 889745, Note_on_c, 0, 48, 92
2, 889809, Note_on_c, 0, 53, 0
2, 889857, Note_on_c, 0, 51, 88
2, 889889, Note_on_c, 0, 48, 0
2, 889969, Note_on_c, 0, 51, 0
2, 889973, Note_on_c, 0, 84, 99
2, 889977, Note_on_c, 0, 50, 86
2, 889981, Note_on_c, 0, 75, 69
2, 889981, Note_on_c, 0, 79, 74
2, 889989, Note_on_c, 0, 72, 66
2, 890089, Note_on_c, 0, 48, 88
2, 890109, Note_on_c, 0, 50, 0
2, 890141, Note_on_c, 0, 48, 0
2, 890149, Note_on_c, 0, 84, 0
2, 890157, Note_on_c, 0, 79, 0
2, 890161, Note_on_c, 0, 75, 0
2, 890197, Note_on_c, 0, 72, 0
2, 890221, Note_on_c, 0, 63, 85
2, 890281, Note_on_c, 0, 63, 0
2, 890329, Note_on_c, 0, 55, 81
2, 890413, Note_on_c, 0, 55, 0
2, 890449, Note_on_c, 0, 79, 92
2, 890449, Note_on_c, 0, 75, 68
2, 890453, Note_on_c, 0, 67, 70
2, 890457, Note_on_c, 0, 54, 67
2, 890457, Note_on_c, 0, 72, 74
2, 890541, Note_on_c, 0, 54, 0
2, 890565, Note_on_c, 0, 55, 84
2, 890617, Note_on_c, 0, 55, 0
2, 890637, Note_on_c, 0, 75, 0
2, 890641, Note_on_c, 0, 67, 0
2, 890657, Note_on_c, 0, 72, 0
2, 890673, Note_on_c, 0, 79, 0
2, 890681, Note_on_c, 0, 54, 79
2, 890693, Note_on_c, 0, 48, 86
2, 890741, Note_on_c, 0, 48, 0
2, 890745, Note_on_c, 0, 54, 0
2, 890805, Note_on_c, 0, 57, 88
2, 890869, Note_on_c, 0, 57, 0
2, 890917, Note_on_c, 0, 62, 80
2, 890921, Note_on_c, 0, 81, 94
2, 890921, Note_on_c, 0, 72, 80
2, 890925, Note_on_c, 0, 69, 73
2, 890925, Note_on_c, 0, 78, 67
2, 890933, Note_on_c, 0, 74, 64
2, 891021, Note_on_c, 0, 62, 0
2, 891029, Note_on_c, 0, 60, 85
2, 891081, Note_on_c, 0, 60, 0
2, 891101, Note_on_c, 0, 74, 0
2, 891149, Note_on_c, 0, 69, 0
2, 891153, Note_on_c, 0, 72, 0
2, 891153, Note_on_c, 0, 59, 87
2, 891165, Note_on_c, 0, 78, 0
2, 891165, Note_on_c, 0, 48, 86
2, 891205, Note_on_c, 0, 81, 0
2, 891229, Note_on_c, 0, 59, 0
2, 891273, Note_on_c, 0, 56, 85
2, 891365, Note_on_c, 0, 56, 0
2, 891385, Note_on_c, 0, 83, 96
2, 891393, Note_on_c, 0, 55, 81
2, 891397, Note_on_c, 0, 74, 71
2, 891401, Note_on_c, 0, 71, 64
2, 891401, Note_on_c, 0, 79, 70
2, 891405, Note_on_c, 0, 77, 64
2, 891473, Note_on_c, 0, 55, 0
2, 891473, Note_on_c, 0, 48, 0
2, 891505, Note_on_c, 0, 53, 83
2, 891533, Note_on_c, 0, 77, 0
2, 891545, Note_on_c, 0, 74, 0
2, 891549, Note_on_c, 0, 53, 0
2, 891565, Note_on_c, 0, 71, 0
2, 891589, Note_on_c, 0, 79, 0
2, 891629, Note_on_c, 0, 53, 92
2, 891633, Note_on_c, 0, 83, 0
2, 891641, Note_on_c, 0, 48, 75
2, 891701, Note_on_c, 0, 53, 0
2, 891741, Note_on_c, 0, 51, 80
2, 891809, Note_on_c, 0, 48, 0
2, 891869, Note_on_c, 0, 51, 0
2, 891869, Note_on_c, 0, 84, 100
2, 891869, Note_on_c, 0, 50, 87
2, 891877, Note_on_c, 0, 75, 64
2, 891881, Note_on_c, 0, 72, 66
2, 891881, Note_on_c, 0, 79, 67
2, 891969, Note_on_c, 0, 79, 0
2, 891973, Note_on_c, 0, 84, 0
2, 891981, Note_on_c, 0, 75, 0
2, 891985, Note_on_c, 0, 48, 82
2, 891993, Note_on_c, 0, 50, 0
2, 892005, Note_on_c, 0, 48, 0
2, 892013, Note_on_c, 0, 72, 0
2, 892101, Note_on_c, 0, 80, 85
2, 892113, Note_on_c, 0, 53, 72
2, 892185, Note_on_c, 0, 53, 0
2, 892185, Note_on_c, 0, 80, 0
2, 892225, Note_on_c, 0, 72, 86
2, 892229, Note_on_c, 0, 60, 66
2, 892301, Note_on_c, 0, 60, 0
2, 892309, Note_on_c, 0, 72, 0
2, 892337, Note_on_c, 0, 65, 65
2, 892341, Note_on_c, 0, 71, 73
2, 892413, Note_on_c, 0, 65, 0
2, 892421, Note_on_c, 0, 71, 0
2, 892441, Note_on_c, 0, 68, 65
2, 892445, Note_on_c, 0, 72, 87
2, 892489, Note_on_c, 0, 68, 0
2, 892517, Note_on_c, 0, 72, 0
2, 892561, Note_on_c, 0, 67, 74
2, 892561, Note_on_c, 0, 71, 86
2, 892629, Note_on_c, 0, 67, 0
2, 892653, Note_on_c, 0, 71, 0
2, 892669, Note_on_c, 0, 74, 86
2, 892677, Note_on_c, 0, 62, 67
2, 892745, Note_on_c, 0, 74, 0
2, 892753, Note_on_c, 0, 62, 0
2, 892785, Note_on_c, 0, 59, 63
2, 892785, Note_on_c, 0, 79, 82
2, 892865, Note_on_c, 0, 79, 0
2, 892885, Note_on_c, 0, 59, 0
2, 892893, Note_on_c, 0, 55, 72
2, 892905, Note_on_c, 0, 77, 82
2, 892929, Note_on_c, 0, 55, 0
2, 892985, Note_on_c, 0, 77, 0
2, 893021, Note_on_c, 0, 76, 85
2, 893025, Note_on_c, 0, 48, 81
2, 893097, Note_on_c, 0, 76, 0
2, 893105, Note_on_c, 0, 48, 0
2, 893129, Note_on_c, 0, 73, 74
2, 893141, Note_on_c, 0, 55, 63
2, 893209, Note_on_c, 0, 55, 0
2, 893233, Note_on_c, 0, 73, 0
2, 893249, Note_on_c, 0, 60, 63
2, 893249, Note_on_c, 0, 79, 84
2, 893261, Note_on_c, 0, 72, 74
2, 893317, Note_on_c, 0, 72, 0
2, 893353, Note_on_c, 0, 79, 0
2, 893357, Note_on_c, 0, 60, 0
2, 893365, Note_on_c, 0, 70, 79
2, 893373, Note_on_c, 0, 64, 58
2, 893417, Note_on_c, 0, 64, 0
2, 893429, Note_on_c, 0, 70, 0
2, 893489, Note_on_c, 0, 77, 88
2, 893497, Note_on_c, 0, 65, 74
2, 893501, Note_on_c, 0, 70, 73
2, 893549, Note_on_c, 0, 70, 0
2, 893585, Note_on_c, 0, 65, 0
2, 893613, Note_on_c, 0, 68, 65
2, 893613, Note_on_c, 0, 60, 60
2, 893689, Note_on_c, 0, 68, 0
2, 893693, Note_on_c, 0, 60, 0
2, 893721, Note_on_c, 0, 58, 53
2, 893729, Note_on_c, 0, 67, 64
2, 893761, Note_on_c, 0, 77, 0
2, 893801, Note_on_c, 0, 67, 0
2, 893833, Note_on_c, 0, 58, 0
2, 893837, Note_on_c, 0, 65, 74
2, 893837, Note_on_c, 0, 56, 57
2, 893881, Note_on_c, 0, 65, 0
2, 893913, Note_on_c, 0, 56, 0
2, 893957, Note_on_c, 0, 80, 80
2, 893973, Note_on_c, 0, 53, 66
2, 894057, Note_on_c, 0, 80, 0
2, 894073, Note_on_c, 0, 72, 85
2, 894077, Note_on_c, 0, 60, 63
2, 894101, Note_on_c, 0, 53, 0
2, 894157, Note_on_c, 0, 60, 0
2, 894165, Note_on_c, 0, 72, 0
2, 894189, Note_on_c, 0, 71, 81
2, 894189, Note_on_c, 0, 65, 63
2, 894269, Note_on_c, 0, 65, 0
2, 894273, Note_on_c, 0, 71, 0
2, 894293, Note_on_c, 0, 68, 67
2, 894305, Note_on_c, 0, 72, 88
2, 894349, Note_on_c, 0, 68, 0
2, 894377, Note_on_c, 0, 72, 0
2, 894421, Note_on_c, 0, 71, 84
2, 894425, Note_on_c, 0, 67, 74
2, 894501, Note_on_c, 0, 67, 0
2, 894509, Note_on_c, 0, 71, 0
2, 894533, Note_on_c, 0, 74, 86
2, 894537, Note_on_c, 0, 62, 68
2, 894613, Note_on_c, 0, 74, 0
2, 894617, Note_on_c, 0, 62, 0
2, 894637, Note_on_c, 0, 59, 61
2, 894645, Note_on_c, 0, 79, 83
2, 894733, Note_on_c, 0, 79, 0
2, 894761, Note_on_c, 0, 59, 0
2, 894761, Note_on_c, 0, 55, 72
2, 894765, Note_on_c, 0, 77, 82
2, 894785, Note_on_c, 0, 55, 0
2, 894857, Note_on_c, 0, 77, 0
2, 894885, Note_on_c, 0, 76, 84
2, 894893, Note_on_c, 0, 48, 74
2, 894961, Note_on_c, 0, 48, 0
2, 894965, Note_on_c, 0, 76, 0
2, 894997, Note_on_c, 0, 73, 77
2, 895005, Note_on_c, 0, 55, 65
2, 895069, Note_on_c, 0, 55, 0
2, 895093, Note_on_c, 0, 73, 0
2, 895113, Note_on_c, 0, 79, 83
2, 895113, Note_on_c, 0, 60, 65
2, 895125, Note_on_c, 0, 72, 72
2, 895177, Note_on_c, 0, 72, 0
2, 895201, Note_on_c, 0, 79, 0
2, 895229, Note_on_c, 0, 60, 0
2, 895233, Note_on_c, 0, 70, 80
2, 895233, Note_on_c, 0, 64, 52
2, 895277, Note_on_c, 0, 64, 0
2, 895297, Note_on_c, 0, 70, 0
2, 895349, Note_on_c, 0, 77, 87
2, 895357, Note_on_c, 0, 65, 71
2, 895361, Note_on_c, 0, 70, 64
2, 895417, Note_on_c, 0, 70, 0
2, 895453, Note_on_c, 0, 65, 0
2, 895481, Note_on_c, 0, 60, 66
2, 895485, Note_on_c, 0, 68, 67
2, 895541, Note_on_c, 0, 68, 0
2, 895553, Note_on_c, 0, 60, 0
2, 895585, Note_on_c, 0, 58, 49
2, 895589, Note_on_c, 0, 77, 0
2, 895589, Note_on_c, 0, 67, 62
2, 895677, Note_on_c, 0, 67, 0
2, 895693, Note_on_c, 0, 56, 60
2, 895701, Note_on_c, 0, 58, 0
2, 895701, Note_on_c, 0, 65, 71
2, 895741, Note_on_c, 0, 56, 0
2, 895761, Note_on_c, 0, 65, 0
2, 895829, Note_on_c, 0, 48, 70
2, 895833, Note_on_c, 0, 76, 82
2, 895953, Note_on_c, 0, 76, 0
2, 895957, Note_on_c, 0, 48, 0
2, 895957, Note_on_c, 0, 73, 72
2, 895957, Note_on_c, 0, 55, 62
2, 896033, Note_on_c, 0, 55, 0
2, 896053, Note_on_c, 0, 73, 0
2, 896073, Note_on_c, 0, 60, 62
2, 896073, Note_on_c, 0, 79, 79
2, 896085, Note_on_c, 0, 72, 69
2, 896153, Note_on_c, 0, 72, 0
2, 896189, Note_on_c, 0, 79, 0
2, 896189, Note_on_c, 0, 60, 0
2, 896189, Note_on_c, 0, 64, 60
2, 896201, Note_on_c, 0, 70, 65
2, 896233, Note_on_c, 0, 64, 0
2, 896269, Note_on_c, 0, 70, 0
2, 896325, Note_on_c, 0, 77, 79
2, 896337, Note_on_c, 0, 65, 64
2, 896337, Note_on_c, 0, 70, 59
2, 896377, Note_on_c, 0, 70, 0
2, 896429, Note_on_c, 0, 65, 0
2, 896465, Note_on_c, 0, 60, 66
2, 896465, Note_on_c, 0, 68, 65
2, 896533, Note_on_c, 0, 68, 0
2, 896569, Note_on_c, 0, 60, 0
2, 896585, Note_on_c, 0, 67, 37
2, 896589, Note_on_c, 0, 58, 40
2, 896661, Note_on_c, 0, 77, 0
2, 896689, Note_on_c, 0, 67, 0
2, 896705, Note_on_c, 0, 56, 59
2, 896709, Note_on_c, 0, 65, 69
2, 896721, Note_on_c, 0, 58, 0
2, 896753, Note_on_c, 0, 56, 0
2, 896781, Note_on_c, 0, 65, 0
2, 896853, Note_on_c, 0, 48, 68
2, 896857, Note_on_c, 0, 76, 82
2, 897005, Note_on_c, 0, 73, 62
2, 897009, Note_on_c, 0, 55, 56
2, 897013, Note_on_c, 0, 76, 0
2, 897057, Note_on_c, 0, 48, 0
2, 897109, Note_on_c, 0, 73, 0
2, 897109, Note_on_c, 0, 55, 0
2, 897133, Note_on_c, 0, 79, 74
2, 897141, Note_on_c, 0, 72, 66
2, 897141, Note_on_c, 0, 60, 61
2, 897241, Note_on_c, 0, 72, 0
2, 897277, Note_on_c, 0, 70, 59
2, 897285, Note_on_c, 0, 64, 63
2, 897313, Note_on_c, 0, 64, 0
2, 897313, Note_on_c, 0, 60, 0
2, 897321, Note_on_c, 0, 79, 0
2, 897353, Note_on_c, 0, 70, 0
2, 897437, Note_on_c, 0, 76, 80
2, 897461, Note_on_c, 0, 48, 69
2, 897529, Control_c, 0, 64, 24
2, 897545, Control_c, 0, 64, 40
2, 897557, Control_c, 0, 64, 56
2, 897569, Control_c, 0, 64, 72
2, 897589, Note_on_c, 0, 76, 0
2, 897589, Note_on_c, 0, 73, 62
2, 897605, Control_c, 0, 64, 88
2, 897613, Note_on_c, 0, 48, 0
2, 897621, Note_on_c, 0, 55, 51
2, 897629, Control_c, 0, 64, 104
2, 897685, Control_c, 0, 64, 127
2, 897705, Note_on_c, 0, 55, 0
2, 897713, Note_on_c, 0, 73, 0
2, 897733, Control_c, 0, 64, 72
2, 897745, Note_on_c, 0, 79, 74
2, 897745, Control_c, 0, 64, 24
2, 897757, Note_on_c, 0, 60, 58
2, 897757, Note_on_c, 0, 72, 55
2, 897757, Control_c, 0, 64, 0
2, 897809, Control_c, 0, 64, 24
2, 897821, Control_c, 0, 64, 56
2, 897825, Note_on_c, 0, 72, 0
2, 897833, Control_c, 0, 64, 72
2, 897849, Control_c, 0, 64, 88
2, 897857, Control_c, 0, 64, 104
2, 897877, Note_on_c, 0, 79, 0
2, 897889, Note_on_c, 0, 60, 0
2, 897897, Control_c, 0, 64, 127
2, 897929, Note_on_c, 0, 70, 54
2, 897937, Note_on_c, 0, 64, 57
2, 897985, Note_on_c, 0, 64, 0
2, 897989, Note_on_c, 0, 70, 0
2, 898173, Note_on_c, 0, 79, 74
2, 898189, Control_c, 0, 64, 88
2, 898201, Control_c, 0, 64, 56
2, 898213, Control_c, 0, 64, 24
2, 898221, Note_on_c, 0, 48, 41
2, 898229, Control_c, 0, 64, 0
2, 898317, Control_c, 0, 64, 56
2, 898329, Control_c, 0, 64, 104
2, 898341, Control_c, 0, 64, 127
2, 898349, Note_on_c, 0, 79, 0
2, 898357, Note_on_c, 0, 76, 64
2, 898389, Note_on_c, 0, 55, 44
2, 898401, Note_on_c, 0, 48, 0
2, 898445, Note_on_c, 0, 76, 0
2, 898473, Note_on_c, 0, 55, 0
2, 898513, Note_on_c, 0, 81, 89
2, 898525, Note_on_c, 0, 72, 72
2, 898533, Note_on_c, 0, 60, 55
2, 898605, Note_on_c, 0, 81, 0
2, 898633, Note_on_c, 0, 60, 0
2, 898661, Note_on_c, 0, 64, 53
2, 898665, Note_on_c, 0, 70, 53
2, 898701, Note_on_c, 0, 72, 0
2, 898729, Note_on_c, 0, 70, 0
2, 898737, Note_on_c, 0, 64, 0
2, 898813, Note_on_c, 0, 79, 82
2, 898817, Note_on_c, 0, 69, 67
2, 898837, Note_on_c, 0, 65, 37
2, 898837, Control_c, 0, 64, 88
2, 898849, Control_c, 0, 64, 40
2, 898861, Control_c, 0, 64, 0
2, 898937, Note_on_c, 0, 69, 0
2, 898937, Control_c, 0, 64, 40
2, 898949, Control_c, 0, 64, 88
2, 898961, Control_c, 0, 64, 127
2, 898965, Note_on_c, 0, 79, 0
2, 898977, Note_on_c, 0, 77, 76
2, 898981, Note_on_c, 0, 60, 59
2, 899101, Control_c, 0, 64, 104
2, 899105, Note_on_c, 0, 60, 0
2, 899113, Control_c, 0, 64, 56
2, 899125, Control_c, 0, 64, 0
2, 899141, Note_on_c, 0, 69, 51
2, 899141, Note_on_c, 0, 57, 41
2, 899189, Control_c, 0, 64, 56
2, 899201, Control_c, 0, 64, 104
2, 899209, Note_on_c, 0, 65, 0
2, 899213, Control_c, 0, 64, 127
2, 899257, Note_on_c, 0, 69, 0
2, 899269, Note_on_c, 0, 77, 0
2, 899285, Note_on_c, 0, 72, 68
2, 899293, Note_on_c, 0, 57, 0
2, 899313, Note_on_c, 0, 53, 39
2, 899337, Note_on_c, 0, 53, 0
2, 899393, Note_on_c, 0, 72, 0
2, 899481, Note_on_c, 0, 77, 81
2, 899493, Note_on_c, 0, 67, 53
2, 899513, Note_on_c, 0, 45, 65
2, 899517, Control_c, 0, 64, 104
2, 899529, Control_c, 0, 64, 72
2, 899545, Control_c, 0, 64, 0
2, 899645, Note_on_c, 0, 77, 0
2, 899645, Control_c, 0, 64, 40
2, 899649, Note_on_c, 0, 76, 92
2, 899657, Control_c, 0, 64, 88
2, 899665, Note_on_c, 0, 45, 0
2, 899669, Control_c, 0, 64, 127
2, 899677, Note_on_c, 0, 52, 51
2, 899757, Note_on_c, 0, 52, 0
2, 899785, Note_on_c, 0, 76, 0
2, 899797, Note_on_c, 0, 57, 51
2, 899801, Note_on_c, 0, 79, 89
2, 899889, Note_on_c, 0, 57, 0
2, 899913, Note_on_c, 0, 79, 0
2, 899941, Note_on_c, 0, 61, 41
2, 899945, Note_on_c, 0, 73, 84
2, 899989, Note_on_c, 0, 67, 0
2, 900017, Note_on_c, 0, 61, 0
2, 900029, Note_on_c, 0, 73, 0
2, 900121, Note_on_c, 0, 76, 85
2, 900125, Note_on_c, 0, 62, 50
2, 900137, Note_on_c, 0, 65, 50
2, 900149, Control_c, 0, 64, 72
2, 900165, Control_c, 0, 64, 0
2, 900277, Control_c, 0, 64, 24
2, 900289, Control_c, 0, 64, 40
2, 900297, Note_on_c, 0, 76, 0
2, 900297, Note_on_c, 0, 74, 77
2, 900301, Note_on_c, 0, 57, 56
2, 900305, Control_c, 0, 64, 24
2, 900317, Control_c, 0, 64, 0
2, 900329, Note_on_c, 0, 65, 0
2, 900417, Control_c, 0, 64, 72
2, 900429, Control_c, 0, 64, 127
2, 900453, Note_on_c, 0, 57, 0
2, 900473, Note_on_c, 0, 65, 45
2, 900489, Note_on_c, 0, 53, 41
2, 900501, Note_on_c, 0, 62, 0
2, 900613, Note_on_c, 0, 74, 0
2, 900641, Note_on_c, 0, 53, 0
2, 900649, Note_on_c, 0, 69, 70
2, 900661, Note_on_c, 0, 50, 38
2, 900669, Note_on_c, 0, 65, 0
2, 900701, Note_on_c, 0, 69, 0
2, 900709, Note_on_c, 0, 50, 0
2, 900901, Note_on_c, 0, 72, 69
2, 900917, Note_on_c, 0, 62, 38
2, 900937, Note_on_c, 0, 43, 54
2, 900961, Control_c, 0, 64, 40
2, 900973, Control_c, 0, 64, 0
2, 901077, Control_c, 0, 64, 72
2, 901089, Note_on_c, 0, 70, 77
2, 901089, Control_c, 0, 64, 127
2, 901093, Note_on_c, 0, 72, 0
2, 901097, Note_on_c, 0, 50, 55
2, 901149, Note_on_c, 0, 43, 0
2, 901225, Note_on_c, 0, 50, 0
2, 901269, Note_on_c, 0, 70, 0
2, 901273, Note_on_c, 0, 74, 83
2, 901273, Note_on_c, 0, 55, 55
2, 901385, Note_on_c, 0, 74, 0
2, 901401, Note_on_c, 0, 55, 0
2, 901457, Note_on_c, 0, 66, 74
2, 901461, Note_on_c, 0, 57, 42
2, 901493, Control_c, 0, 64, 104
2, 901505, Control_c, 0, 64, 24
2, 901517, Control_c, 0, 64, 0
2, 901557, Control_c, 0, 64, 40
2, 901569, Control_c, 0, 64, 104
2, 901581, Control_c, 0, 64, 127
2, 901665, Note_on_c, 0, 57, 0
2, 901677, Note_on_c, 0, 66, 0
2, 901697, Note_on_c, 0, 69, 69
2, 901717, Note_on_c, 0, 60, 52
2, 901745, Control_c, 0, 64, 88
2, 901757, Control_c, 0, 64, 0
2, 901861, Control_c, 0, 64, 40
2, 901873, Control_c, 0, 64, 88
2, 901885, Control_c, 0, 64, 127
2, 901925, Note_on_c, 0, 60, 0
2, 901933, Note_on_c, 0, 69, 0
2, 901933, Note_on_c, 0, 58, 44
2, 901937, Note_on_c, 0, 67, 63
2, 901949, Control_c, 0, 64, 72
2, 901961, Control_c, 0, 64, 0
2, 902049, Control_c, 0, 64, 40
2, 902061, Control_c, 0, 64, 72
2, 902077, Control_c, 0, 64, 104
2, 902089, Control_c, 0, 64, 127
2, 902169, Note_on_c, 0, 67, 0
2, 902197, Note_on_c, 0, 58, 0
2, 902229, Note_on_c, 0, 70, 54
2, 902253, Control_c, 0, 64, 104
2, 902261, Note_on_c, 0, 55, 37
2, 902265, Control_c, 0, 64, 88
2, 902277, Control_c, 0, 64, 72
2, 902289, Control_c, 0, 64, 56
2, 902305, Control_c, 0, 64, 24
2, 902317, Control_c, 0, 64, 0
2, 902541, Note_on_c, 0, 62, 0
2, 902557, Control_c, 0, 64, 24
2, 902561, Note_on_c, 0, 55, 0
2, 902569, Control_c, 0, 64, 56
2, 902577, Note_on_c, 0, 70, 0
2, 902581, Control_c, 0, 64, 72
2, 902593, Control_c, 0, 64, 88
2, 902621, Control_c, 0, 64, 104
2, 902645, Control_c, 0, 64, 127
2, 902897, Control_c, 0, 64, 104
2, 902909, Control_c, 0, 64, 88
2, 902921, Control_c, 0, 64, 72
2, 902937, Control_c, 0, 64, 56
2, 902949, Control_c, 0, 64, 40
2, 902961, Control_c, 0, 64, 24
2, 902973, Control_c, 0, 64, 0
2, 903125, Control_c, 0, 64, 24
2, 903137, Control_c, 0, 64, 40
2, 903149, Control_c, 0, 64, 56
2, 903161, Control_c, 0, 64, 72
2, 903177, Control_c, 0, 64, 88
2, 903189, Control_c, 0, 64, 104
2, 903201, Control_c, 0, 64, 127
2, 903349, Note_on_c, 0, 64, 56
2, 903361, Note_on_c, 0, 58, 39
2, 903365, Control_c, 0, 64, 88
2, 903369, Note_on_c, 0, 55, 34
2, 903369, Note_on_c, 0, 36, 38
2, 903373, Note_on_c, 0, 48, 38
2, 903377, Control_c, 0, 64, 24
2, 903389, Control_c, 0, 64, 0
2, 903441, Control_c, 0, 64, 56
2, 903453, Control_c, 0, 64, 104
2, 903465, Control_c, 0, 64, 127
2, 903485, Note_on_c, 0, 48, 0
2, 903513, Note_on_c, 0, 64, 0
2, 903513, Note_on_c, 0, 36, 0
2, 903521, Note_on_c, 0, 55, 0
2, 903529, Note_on_c, 0, 58, 0
2, 903909, Note_on_c, 0, 57, 42
2, 903909, Note_on_c, 0, 65, 47
2, 903913, Note_on_c, 0, 53, 38
2, 903929, Note_on_c, 0, 29, 31
2, 903937, Note_on_c, 0, 41, 31
2, 903961, Control_c, 0, 64, 88
2, 903973, Control_c, 0, 64, 40
2, 903985, Control_c, 0, 64, 0
2, 904061, Control_c, 0, 64, 40
2, 904073, Note_on_c, 0, 41, 0
2, 904073, Note_on_c, 0, 29, 0
2, 904073, Control_c, 0, 64, 104
2, 904085, Control_c, 0, 64, 127
2, 904113, Note_on_c, 0, 53, 0
2, 904117, Note_on_c, 0, 57, 0
2, 904121, Note_on_c, 0, 65, 0
2, 904529, Control_c, 0, 64, 104
2, 904581, Control_c, 0, 64, 88
2, 904617, Control_c, 0, 64, 72
2, 904645, Control_c, 0, 64, 56
2, 904669, Control_c, 0, 64, 40
2, 904693, Control_c, 0, 64, 24
2, 904705, Control_c, 0, 64, 0
2, 906625, Note_on_c, 0, 80, 72
2, 906737, Note_on_c, 0, 80, 0
2, 906745, Note_on_c, 0, 72, 67
2, 906901, Note_on_c, 0, 44, 51
2, 906937, Control_c, 0, 64, 24
2, 906953, Control_c, 0, 64, 56
2, 906969, Control_c, 0, 64, 88
2, 906977, Note_on_c, 0, 44, 0
2, 906985, Control_c, 0, 64, 104
2, 907001, Control_c, 0, 64, 127
2, 907077, Control_c, 0, 64, 88
2, 907093, Control_c, 0, 64, 56
2, 907109, Control_c, 0, 64, 0
2, 907305, Note_on_c, 0, 60, 47
2, 907305, Note_on_c, 0, 51, 46
2, 907309, Note_on_c, 0, 56, 37
2, 907361, Note_on_c, 0, 60, 0
2, 907369, Note_on_c, 0, 56, 0
2, 907377, Note_on_c, 0, 51, 0
2, 907597, Note_on_c, 0, 72, 0
2, 907597, Note_on_c, 0, 71, 69
2, 907605, Note_on_c, 0, 44, 52
2, 907605, Control_c, 0, 64, 40
2, 907621, Control_c, 0, 64, 104
2, 907637, Control_c, 0, 64, 127
2, 907645, Note_on_c, 0, 44, 0
2, 907713, Control_c, 0, 64, 104
2, 907729, Note_on_c, 0, 71, 0
2, 907729, Note_on_c, 0, 77, 78
2, 907729, Control_c, 0, 64, 72
2, 907741, Control_c, 0, 64, 40
2, 907757, Control_c, 0, 64, 0
2, 907889, Note_on_c, 0, 56, 35
2, 907913, Note_on_c, 0, 62, 41
2, 907913, Note_on_c, 0, 53, 32
2, 907945, Note_on_c, 0, 53, 0
2, 907945, Note_on_c, 0, 56, 0
2, 907953, Note_on_c, 0, 62, 0
2, 908225, Note_on_c, 0, 53, 45
2, 908233, Note_on_c, 0, 56, 42
2, 908237, Note_on_c, 0, 62, 42
2, 908277, Note_on_c, 0, 62, 0
2, 908297, Note_on_c, 0, 56, 0
2, 908297, Note_on_c, 0, 53, 0
2, 908301, Control_c, 0, 64, 40
2, 908317, Control_c, 0, 64, 56
2, 908349, Control_c, 0, 64, 72
2, 908365, Control_c, 0, 64, 88
2, 908457, Control_c, 0, 64, 0
2, 908517, Note_on_c, 0, 75, 73
2, 908517, Note_on_c, 0, 44, 61
2, 908549, Control_c, 0, 64, 24
2, 908561, Note_on_c, 0, 77, 0
2, 908565, Control_c, 0, 64, 72
2, 908573, Note_on_c, 0, 44, 0
2, 908581, Control_c, 0, 64, 127
2, 908625, Note_on_c, 0, 75, 0
2, 908633, Note_on_c, 0, 69, 69
2, 908641, Control_c, 0, 64, 104
2, 908657, Control_c, 0, 64, 72
2, 908673, Control_c, 0, 64, 40
2, 908689, Control_c, 0, 64, 0
2, 908773, Note_on_c, 0, 61, 49
2, 908777, Note_on_c, 0, 51, 50
2, 908785, Note_on_c, 0, 55, 56
2, 908805, Note_on_c, 0, 51, 0
2, 908813, Note_on_c, 0, 55, 0
2, 908829, Note_on_c, 0, 61, 0
2, 909105, Note_on_c, 0, 70, 73
2, 909121, Note_on_c, 0, 51, 53
2, 909121, Note_on_c, 0, 61, 40
2, 909121, Control_c, 0, 64, 56
2, 909125, Note_on_c, 0, 55, 53
2, 909137, Note_on_c, 0, 69, 0
2, 909137, Control_c, 0, 64, 72
2, 909153, Control_c, 0, 64, 104
2, 909157, Note_on_c, 0, 55, 0
2, 909173, Note_on_c, 0, 61, 0
2, 909201, Note_on_c, 0, 51, 0
2, 909321, Control_c, 0, 64, 24
2, 909341, Control_c, 0, 64, 0
2, 909369, Note_on_c, 0, 70, 0
2, 909381, Note_on_c, 0, 44, 62
2, 909397, Note_on_c, 0, 72, 74
2, 909433, Control_c, 0, 64, 24
2, 909441, Note_on_c, 0, 44, 0
2, 909449, Control_c, 0, 64, 56
2, 909477, Note_on_c, 0, 72, 0
2, 909509, Note_on_c, 0, 67, 66
2, 909509, Control_c, 0, 64, 40
2, 909525, Control_c, 0, 64, 24
2, 909541, Control_c, 0, 64, 0
2, 909641, Note_on_c, 0, 51, 54
2, 909641, Note_on_c, 0, 60, 59
2, 909657, Note_on_c, 0, 56, 45
2, 909693, Note_on_c, 0, 56, 0
2, 909705, Note_on_c, 0, 60, 0
2, 909705, Note_on_c, 0, 51, 0
2, 909933, Note_on_c, 0, 68, 73
2, 909937, Note_on_c, 0, 67, 0
2, 909949, Note_on_c, 0, 56, 56
2, 909957, Note_on_c, 0, 51, 52
2, 909957, Control_c, 0, 64, 24
2, 909965, Note_on_c, 0, 60, 41
2, 909973, Control_c, 0, 64, 56
2, 909977, Note_on_c, 0, 56, 0
2, 909985, Note_on_c, 0, 51, 0
2, 909989, Control_c, 0, 64, 72
2, 909997, Note_on_c, 0, 60, 0
2, 910005, Control_c, 0, 64, 88
2, 910129, Control_c, 0, 64, 56
2, 910145, Control_c, 0, 64, 0
2, 910201, Note_on_c, 0, 68, 0
2, 910209, Note_on_c, 0, 70, 70
2, 910229, Note_on_c, 0, 41, 63
2, 910269, Note_on_c, 0, 41, 0
2, 910285, Control_c, 0, 64, 40
2, 910301, Control_c, 0, 64, 72
2, 910313, Note_on_c, 0, 70, 0
2, 910321, Note_on_c, 0, 62, 66
2, 910361, Control_c, 0, 64, 0
2, 910469, Note_on_c, 0, 56, 50
2, 910473, Note_on_c, 0, 46, 49
2, 910473, Control_c, 0, 64, 40
2, 910485, Control_c, 0, 64, 88
2, 910501, Control_c, 0, 64, 127
2, 910537, Note_on_c, 0, 56, 0
2, 910545, Note_on_c, 0, 46, 0
2, 910593, Control_c, 0, 64, 104
2, 910737, Note_on_c, 0, 72, 85
2, 910749, Note_on_c, 0, 46, 65
2, 910753, Note_on_c, 0, 56, 52
2, 910777, Note_on_c, 0, 56, 0
2, 910793, Note_on_c, 0, 46, 0
2, 910809, Control_c, 0, 64, 127
2, 910897, Note_on_c, 0, 72, 0
2, 910937, Control_c, 0, 64, 72
2, 910949, Control_c, 0, 64, 0
2, 910989, Note_on_c, 0, 62, 0
2, 910997, Note_on_c, 0, 34, 54
2, 910997, Note_on_c, 0, 74, 86
2, 911045, Note_on_c, 0, 34, 0
2, 911057, Control_c, 0, 64, 56
2, 911073, Control_c, 0, 64, 104
2, 911089, Control_c, 0, 64, 127
2, 911109, Note_on_c, 0, 74, 0
2, 911113, Note_on_c, 0, 62, 57
2, 911117, Note_on_c, 0, 68, 62
2, 911149, Control_c, 0, 64, 88
2, 911165, Control_c, 0, 64, 40
2, 911181, Control_c, 0, 64, 24
2, 911197, Control_c, 0, 64, 40
2, 911213, Control_c, 0, 64, 56
2, 911221, Note_on_c, 0, 46, 57
2, 911225, Note_on_c, 0, 62, 0
2, 911229, Note_on_c, 0, 56, 45
2, 911229, Control_c, 0, 64, 104
2, 911245, Control_c, 0, 64, 127
2, 911281, Note_on_c, 0, 56, 0
2, 911293, Note_on_c, 0, 46, 0
2, 911497, Note_on_c, 0, 75, 82
2, 911505, Note_on_c, 0, 46, 58
2, 911505, Note_on_c, 0, 56, 41
2, 911521, Note_on_c, 0, 68, 0
2, 911537, Note_on_c, 0, 56, 0
2, 911537, Note_on_c, 0, 46, 0
2, 911577, Note_on_c, 0, 75, 0
2, 911709, Control_c, 0, 64, 72
2, 911725, Control_c, 0, 64, 0
2, 911761, Note_on_c, 0, 46, 59
2, 911769, Note_on_c, 0, 77, 87
2, 911785, Control_c, 0, 64, 24
2, 911801, Control_c, 0, 64, 88
2, 911817, Control_c, 0, 64, 127
2, 911821, Note_on_c, 0, 46, 0
2, 911841, Note_on_c, 0, 77, 0
2, 911921, Note_on_c, 0, 68, 62
2, 911925, Note_on_c, 0, 62, 55
2, 911961, Note_on_c, 0, 62, 0
2, 911997, Note_on_c, 0, 68, 0
2, 912025, Note_on_c, 0, 56, 55
2, 912033, Note_on_c, 0, 53, 61
2, 912061, Note_on_c, 0, 53, 0
2, 912065, Note_on_c, 0, 56, 0
2, 912313, Note_on_c, 0, 79, 84
2, 912329, Note_on_c, 0, 34, 51
2, 912381, Note_on_c, 0, 79, 0
2, 912413, Note_on_c, 0, 34, 0
2, 912529, Control_c, 0, 64, 72
2, 912545, Control_c, 0, 64, 0
2, 912601, Note_on_c, 0, 75, 76
2, 912601, Note_on_c, 0, 39, 53
2, 912621, Control_c, 0, 64, 24
2, 912637, Note_on_c, 0, 39, 0
2, 912637, Control_c, 0, 64, 72
2, 912653, Control_c, 0, 64, 127
2, 912729, Note_on_c, 0, 75, 0
2, 912773, Note_on_c, 0, 67, 53
2, 912773, Note_on_c, 0, 63, 48
2, 912865, Note_on_c, 0, 67, 0
2, 912881, Note_on_c, 0, 63, 0
2, 912937, Note_on_c, 0, 62, 63
2, 912949, Note_on_c, 0, 55, 51
2, 912953, Note_on_c, 0, 51, 44
2, 913057, Control_c, 0, 64, 72
2, 913069, Control_c, 0, 64, 0
2, 913181, Control_c, 0, 64, 24
2, 913197, Control_c, 0, 64, 72
2, 913213, Control_c, 0, 64, 127
2, 913221, Note_on_c, 0, 55, 0
2, 913233, Note_on_c, 0, 51, 0
2, 913301, Note_on_c, 0, 62, 0
2, 913309, Note_on_c, 0, 61, 55
2, 913321, Control_c, 0, 64, 88
2, 913337, Control_c, 0, 64, 24
2, 913349, Control_c, 0, 64, 0
2, 913413, Control_c, 0, 64, 24
2, 913429, Control_c, 0, 64, 56
2, 913441, Note_on_c, 0, 61, 0
2, 913441, Control_c, 0, 64, 104
2, 913457, Control_c, 0, 64, 127
2, 913753, Note_on_c, 0, 80, 71
2, 913753, Control_c, 0, 64, 88
2, 913769, Control_c, 0, 64, 24
2, 913785, Control_c, 0, 64, 0
2, 913897, Note_on_c, 0, 80, 0
2, 913901, Note_on_c, 0, 72, 70
2, 913909, Control_c, 0, 64, 40
2, 913925, Control_c, 0, 64, 88
2, 913941, Control_c, 0, 64, 127
2, 914001, Control_c, 0, 64, 40
2, 914017, Control_c, 0, 64, 0
2, 914077, Note_on_c, 0, 44, 53
2, 914125, Note_on_c, 0, 44, 0
2, 914125, Control_c, 0, 64, 56
2, 914141, Control_c, 0, 64, 104
2, 914157, Control_c, 0, 64, 127
2, 914201, Control_c, 0, 64, 72
2, 914217, Control_c, 0, 64, 24
2, 914233, Control_c, 0, 64, 0
2, 914465, Control_c, 0, 64, 24
2, 914481, Note_on_c, 0, 60, 43
2, 914481, Control_c, 0, 64, 56
2, 914485, Note_on_c, 0, 51, 49
2, 914485, Note_on_c, 0, 56, 40
2, 914497, Control_c, 0, 64, 72
2, 914513, Control_c, 0, 64, 88
2, 914525, Note_on_c, 0, 56, 0
2, 914533, Note_on_c, 0, 60, 0
2, 914541, Control_c, 0, 64, 104
2, 914549, Note_on_c, 0, 51, 0
2, 914557, Control_c, 0, 64, 127
2, 914649, Control_c, 0, 64, 104
2, 914669, Control_c, 0, 64, 72
2, 914685, Control_c, 0, 64, 24
2, 914701, Control_c, 0, 64, 0
2, 914781, Note_on_c, 0, 44, 48
2, 914785, Note_on_c, 0, 71, 70
2, 914789, Note_on_c, 0, 72, 0
2, 914793, Control_c, 0, 64, 40
2, 914809, Control_c, 0, 64, 104
2, 914813, Note_on_c, 0, 44, 0
2, 914825, Control_c, 0, 64, 127
2, 914913, Control_c, 0, 64, 104
2, 914929, Note_on_c, 0, 71, 0
2, 914929, Note_on_c, 0, 77, 77
2, 914929, Control_c, 0, 64, 72
2, 914945, Control_c, 0, 64, 40
2, 914961, Control_c, 0, 64, 0
2, 915077, Note_on_c, 0, 56, 38
2, 915085, Note_on_c, 0, 53, 37
2, 915089, Note_on_c, 0, 62, 43
2, 915121, Note_on_c, 0, 56, 0
2, 915125, Note_on_c, 0, 53, 0
2, 915129, Note_on_c, 0, 62, 0
2, 915453, Note_on_c, 0, 56, 40
2, 915461, Note_on_c, 0, 62, 47
2, 915465, Note_on_c, 0, 53, 52
2, 915473, Control_c, 0, 64, 40
2, 915489, Control_c, 0, 64, 72
2, 915505, Control_c, 0, 64, 104
2, 915509, Note_on_c, 0, 62, 0
2, 915521, Control_c, 0, 64, 127
2, 915525, Note_on_c, 0, 56, 0
2, 915533, Note_on_c, 0, 53, 0
2, 915673, Control_c, 0, 64, 88
2, 915689, Control_c, 0, 64, 24
2, 915705, Control_c, 0, 64, 0
2, 915737, Note_on_c, 0, 75, 68
2, 915737, Note_on_c, 0, 44, 57
2, 915765, Control_c, 0, 64, 24
2, 915773, Note_on_c, 0, 77, 0
2, 915781, Control_c, 0, 64, 72
2, 915801, Control_c, 0, 64, 127
2, 915809, Note_on_c, 0, 44, 0
2, 915853, Note_on_c, 0, 75, 0
2, 915861, Control_c, 0, 64, 104
2, 915873, Note_on_c, 0, 69, 74
2, 915877, Control_c, 0, 64, 88
2, 915893, Control_c, 0, 64, 56
2, 915909, Control_c, 0, 64, 24
2, 915921, Control_c, 0, 64, 0
2, 916009, Note_on_c, 0, 51, 47
2, 916017, Note_on_c, 0, 55, 47
2, 916025, Note_on_c, 0, 61, 23
2, 916049, Note_on_c, 0, 55, 0
2, 916049, Note_on_c, 0, 51, 0
2, 916061, Note_on_c, 0, 61, 0
2, 916277, Control_c, 0, 64, 24
2, 916289, Note_on_c, 0, 70, 69
2, 916297, Control_c, 0, 64, 56
2, 916305, Note_on_c, 0, 69, 0
2, 916305, Note_on_c, 0, 61, 46
2, 916309, Control_c, 0, 64, 88
2, 916313, Note_on_c, 0, 51, 46
2, 916321, Note_on_c, 0, 55, 42
2, 916325, Control_c, 0, 64, 104
2, 916341, Control_c, 0, 64, 127
2, 916353, Note_on_c, 0, 55, 0
2, 916361, Note_on_c, 0, 61, 0
2, 916393, Note_on_c, 0, 51, 0
2, 916493, Control_c, 0, 64, 56
2, 916509, Control_c, 0, 64, 0
2, 916557, Note_on_c, 0, 70, 0
2, 916569, Note_on_c, 0, 44, 63
2, 916585, Note_on_c, 0, 72, 71
2, 916605, Control_c, 0, 64, 24
2, 916621, Control_c, 0, 64, 56
2, 916637, Control_c, 0, 64, 88
2, 916645, Note_on_c, 0, 44, 0
2, 916677, Note_on_c, 0, 72, 0
2, 916697, Control_c, 0, 64, 40
2, 916705, Note_on_c, 0, 67, 70
2, 916713, Control_c, 0, 64, 0
2, 916837, Note_on_c, 0, 51, 45
2, 916837, Note_on_c, 0, 60, 56
2, 916841, Note_on_c, 0, 56, 43
2, 916885, Note_on_c, 0, 51, 0
2, 916889, Note_on_c, 0, 56, 0
2, 916889, Note_on_c, 0, 60, 0
2, 917109, Note_on_c, 0, 67, 0
2, 917121, Note_on_c, 0, 68, 76
2, 917129, Control_c, 0, 64, 56
2, 917137, Note_on_c, 0, 51, 59
2, 917141, Note_on_c, 0, 60, 60
2, 917145, Control_c, 0, 64, 72
2, 917161, Control_c, 0, 64, 88
2, 917165, Note_on_c, 0, 60, 0
2, 917193, Note_on_c, 0, 51, 0
2, 917285, Control_c, 0, 64, 56
2, 917301, Control_c, 0, 64, 24
2, 917317, Control_c, 0, 64, 0
2, 917389, Note_on_c, 0, 68, 0
2, 917397, Note_on_c, 0, 70, 68
2, 917417, Note_on_c, 0, 41, 60
2, 917425, Control_c, 0, 64, 40
2, 917441, Control_c, 0, 64, 72
2, 917445, Note_on_c, 0, 41, 0
2, 917457, Control_c, 0, 64, 88
2, 917497, Note_on_c, 0, 70, 0
2, 917501, Control_c, 0, 64, 40
2, 917505, Note_on_c, 0, 62, 66
2, 917517, Control_c, 0, 64, 0
2, 917641, Control_c, 0, 64, 56
2, 917649, Note_on_c, 0, 56, 49
2, 917657, Note_on_c, 0, 46, 49
2, 917657, Control_c, 0, 64, 88
2, 917669, Control_c, 0, 64, 127
2, 917713, Note_on_c, 0, 56, 0
2, 917717, Note_on_c, 0, 46, 0
2, 917765, Control_c, 0, 64, 88
2, 917781, Control_c, 0, 64, 72
2, 917845, Control_c, 0, 64, 56
2, 917913, Note_on_c, 0, 72, 86
2, 917921, Control_c, 0, 64, 72
2, 917925, Note_on_c, 0, 46, 67
2, 917925, Note_on_c, 0, 56, 47
2, 917937, Control_c, 0, 64, 88
2, 917953, Note_on_c, 0, 56, 0
2, 917973, Note_on_c, 0, 46, 0
2, 917981, Control_c, 0, 64, 104
2, 918077, Note_on_c, 0, 72, 0
2, 918093, Control_c, 0, 64, 24
2, 918109, Control_c, 0, 64, 0
2, 918165, Note_on_c, 0, 34, 57
2, 918169, Note_on_c, 0, 74, 87
2, 918201, Note_on_c, 0, 62, 0
2, 918213, Note_on_c, 0, 34, 0
2, 918229, Control_c, 0, 64, 72
2, 918245, Control_c, 0, 64, 104
2, 918261, Control_c, 0, 64, 127
2, 918265, Note_on_c, 0, 74, 0
2, 918285, Note_on_c, 0, 62, 57
2, 918293, Note_on_c, 0, 68, 63
2, 918321, Control_c, 0, 64, 104
2, 918337, Control_c, 0, 64, 40
2, 918353, Control_c, 0, 64, 0
2, 918401, Note_on_c, 0, 46, 60
2, 918405, Note_on_c, 0, 56, 52
2, 918413, Control_c, 0, 64, 24
2, 918433, Note_on_c, 0, 62, 0
2, 918433, Control_c, 0, 64, 72
2, 918449, Control_c, 0, 64, 104
2, 918465, Note_on_c, 0, 56, 0
2, 918465, Note_on_c, 0, 46, 0
2, 918465, Control_c, 0, 64, 127
2, 918661, Note_on_c, 0, 68, 0
2, 918677, Note_on_c, 0, 75, 83
2, 918689, Note_on_c, 0, 56, 56
2, 918693, Note_on_c, 0, 46, 64
2, 918717, Note_on_c, 0, 56, 0
2, 918725, Note_on_c, 0, 46, 0
2, 918761, Note_on_c, 0, 75, 0
2, 918881, Control_c, 0, 64, 56
2, 918897, Control_c, 0, 64, 0
2, 918945, Note_on_c, 0, 46, 55
2, 918949, Note_on_c, 0, 77, 85
2, 918973, Control_c, 0, 64, 40
2, 918989, Control_c, 0, 64, 104
2, 919005, Note_on_c, 0, 46, 0
2, 919005, Control_c, 0, 64, 127
2, 919021, Note_on_c, 0, 77, 0
2, 919089, Note_on_c, 0, 68, 58
2, 919089, Note_on_c, 0, 62, 56
2, 919133, Note_on_c, 0, 62, 0
2, 919197, Note_on_c, 0, 68, 0
2, 919201, Note_on_c, 0, 56, 55
2, 919213, Note_on_c, 0, 53, 64
2, 919241, Note_on_c, 0, 53, 0
2, 919261, Note_on_c, 0, 56, 0
2, 919481, Note_on_c, 0, 79, 82
2, 919493, Note_on_c, 0, 34, 56
2, 919545, Note_on_c, 0, 79, 0
2, 919573, Note_on_c, 0, 34, 0
2, 919685, Control_c, 0, 64, 56
2, 919701, Control_c, 0, 64, 0
2, 919757, Note_on_c, 0, 39, 57
2, 919765, Note_on_c, 0, 75, 79
2, 919781, Control_c, 0, 64, 40
2, 919793, Control_c, 0, 64, 88
2, 919805, Note_on_c, 0, 39, 0
2, 919809, Control_c, 0, 64, 127
2, 919869, Note_on_c, 0, 75, 0
2, 919933, Note_on_c, 0, 67, 62
2, 919937, Note_on_c, 0, 63, 39
2, 920005, Note_on_c, 0, 67, 0
2, 920013, Note_on_c, 0, 63, 0
2, 920109, Note_on_c, 0, 62, 53
2, 920117, Note_on_c, 0, 55, 51
2, 920125, Note_on_c, 0, 51, 45
2, 920153, Control_c, 0, 64, 88
2, 920169, Control_c, 0, 64, 24
2, 920181, Control_c, 0, 64, 0
2, 920257, Note_on_c, 0, 55, 0
2, 920257, Control_c, 0, 64, 56
2, 920269, Note_on_c, 0, 51, 0
2, 920273, Control_c, 0, 64, 127
2, 920429, Note_on_c, 0, 62, 0
2, 920457, Note_on_c, 0, 61, 60
2, 920517, Note_on_c, 0, 61, 0
2, 920773, Control_c, 0, 64, 104
2, 920785, Control_c, 0, 64, 40
2, 920801, Control_c, 0, 64, 0
2, 920881, Note_on_c, 0, 87, 96
2, 920881, Note_on_c, 0, 75, 87
2, 920897, Note_on_c, 0, 39, 63
2, 920901, Note_on_c, 0, 51, 67
2, 920909, Control_c, 0, 64, 56
2, 920925, Control_c, 0, 64, 127
2, 920957, Note_on_c, 0, 51, 0
2, 920957, Note_on_c, 0, 39, 0
2, 921009, Note_on_c, 0, 75, 0
2, 921009, Note_on_c, 0, 87, 0
2, 921201, Note_on_c, 0, 87, 88
2, 921209, Note_on_c, 0, 63, 42
2, 921209, Note_on_c, 0, 75, 81
2, 921213, Note_on_c, 0, 58, 37
2, 921221, Note_on_c, 0, 55, 49
2, 921253, Note_on_c, 0, 55, 0
2, 921257, Note_on_c, 0, 75, 0
2, 921257, Note_on_c, 0, 87, 0
2, 921277, Note_on_c, 0, 58, 0
2, 921285, Note_on_c, 0, 63, 0
2, 921333, Note_on_c, 0, 87, 92
2, 921341, Note_on_c, 0, 75, 91
2, 921389, Note_on_c, 0, 75, 0
2, 921397, Note_on_c, 0, 87, 0
2, 921457, Note_on_c, 0, 58, 64
2, 921457, Note_on_c, 0, 67, 65
2, 921465, Note_on_c, 0, 87, 88
2, 921465, Note_on_c, 0, 63, 46
2, 921469, Note_on_c, 0, 75, 87
2, 921485, Note_on_c, 0, 67, 0
2, 921493, Note_on_c, 0, 63, 0
2, 921513, Note_on_c, 0, 58, 0
2, 921517, Note_on_c, 0, 75, 0
2, 921521, Note_on_c, 0, 87, 0
2, 921585, Note_on_c, 0, 87, 85
2, 921589, Note_on_c, 0, 75, 89
2, 921645, Note_on_c, 0, 75, 0
2, 921649, Note_on_c, 0, 87, 0
2, 921701, Control_c, 0, 64, 88
2, 921717, Note_on_c, 0, 87, 92
2, 921717, Control_c, 0, 64, 0
2, 921725, Note_on_c, 0, 75, 95
2, 921741, Note_on_c, 0, 41, 69
2, 921741, Note_on_c, 0, 53, 71
2, 921765, Note_on_c, 0, 41, 0
2, 921805, Note_on_c, 0, 53, 0
2, 921809, Control_c, 0, 64, 72
2, 921825, Control_c, 0, 64, 127
2, 921837, Note_on_c, 0, 87, 0
2, 921861, Note_on_c, 0, 75, 0
2, 922005, Note_on_c, 0, 85, 84
2, 922009, Note_on_c, 0, 73, 77
2, 922013, Note_on_c, 0, 56, 46
2, 922021, Note_on_c, 0, 53, 59
2, 922029, Note_on_c, 0, 61, 47
2, 922057, Note_on_c, 0, 73, 0
2, 922061, Note_on_c, 0, 53, 0
2, 922061, Note_on_c, 0, 85, 0
2, 922065, Note_on_c, 0, 61, 0
2, 922081, Note_on_c, 0, 56, 0
2, 922125, Note_on_c, 0, 84, 96
2, 922133, Note_on_c, 0, 72, 85
2, 922161, Note_on_c, 0, 72, 0
2, 922173, Note_on_c, 0, 84, 0
2, 922241, Note_on_c, 0, 65, 49
2, 922245, Note_on_c, 0, 61, 44
2, 922253, Note_on_c, 0, 56, 43
2, 922253, Note_on_c, 0, 82, 83
2, 922261, Note_on_c, 0, 70, 74
2, 922273, Note_on_c, 0, 61, 0
2, 922273, Note_on_c, 0, 65, 0
2, 922285, Note_on_c, 0, 56, 0
2, 922293, Note_on_c, 0, 70, 0
2, 922309, Note_on_c, 0, 82, 0
2, 922377, Note_on_c, 0, 80, 79
2, 922385, Note_on_c, 0, 68, 77
2, 922445, Note_on_c, 0, 68, 0
2, 922465, Note_on_c, 0, 80, 0
2, 922509, Control_c, 0, 64, 40
2, 922521, Control_c, 0, 64, 0
2, 922537, Note_on_c, 0, 79, 90
2, 922537, Note_on_c, 0, 67, 81
2, 922561, Note_on_c, 0, 43, 64
2, 922573, Note_on_c, 0, 55, 52
2, 922589, Note_on_c, 0, 43, 0
2, 922625, Note_on_c, 0, 67, 0
2, 922629, Control_c, 0, 64, 56
2, 922645, Note_on_c, 0, 55, 0
2, 922645, Control_c, 0, 64, 127
2, 922721, Note_on_c, 0, 79, 0
2, 922845, Note_on_c, 0, 67, 71
2, 922849, Note_on_c, 0, 79, 85
2, 922853, Note_on_c, 0, 50, 56
2, 922857, Note_on_c, 0, 53, 54
2, 922893, Note_on_c, 0, 50, 0
2, 922897, Note_on_c, 0, 53, 0
2, 922905, Note_on_c, 0, 67, 0
2, 922909, Note_on_c, 0, 79, 0
2, 922981, Note_on_c, 0, 67, 66
2, 922985, Note_on_c, 0, 79, 80
2, 923037, Note_on_c, 0, 79, 0
2, 923037, Note_on_c, 0, 67, 0
2, 923117, Note_on_c, 0, 79, 78
2, 923117, Note_on_c, 0, 67, 64
2, 923153, Note_on_c, 0, 59, 50
2, 923153, Note_on_c, 0, 62, 56
2, 923173, Note_on_c, 0, 67, 0
2, 923173, Note_on_c, 0, 79, 0
2, 923197, Note_on_c, 0, 59, 0
2, 923197, Note_on_c, 0, 62, 0
2, 923249, Note_on_c, 0, 79, 80
2, 923249, Note_on_c, 0, 67, 67
2, 923321, Note_on_c, 0, 67, 0
2, 923329, Note_on_c, 0, 79, 0
2, 923405, Note_on_c, 0, 79, 75
2, 923405, Control_c, 0, 64, 104
2, 923409, Note_on_c, 0, 67, 63
2, 923421, Control_c, 0, 64, 24
2, 923437, Control_c, 0, 64, 0
2, 923477, Note_on_c, 0, 36, 50
2, 923493, Note_on_c, 0, 48, 45
2, 923525, Note_on_c, 0, 48, 0
2, 923529, Control_c, 0, 64, 72
2, 923537, Note_on_c, 0, 36, 0
2, 923541, Note_on_c, 0, 67, 0
2, 923541, Control_c, 0, 64, 127
2, 923661, Note_on_c, 0, 79, 0
2, 923729, Note_on_c, 0, 77, 72
2, 923737, Note_on_c, 0, 51, 58
2, 923737, Note_on_c, 0, 48, 55
2, 923781, Note_on_c, 0, 48, 0
2, 923805, Note_on_c, 0, 51, 0
2, 923825, Note_on_c, 0, 77, 0
2, 923849, Note_on_c, 0, 75, 73
2, 923961, Note_on_c, 0, 75, 0
2, 923973, Note_on_c, 0, 74, 74
2, 923985, Note_on_c, 0, 60, 45
2, 923985, Note_on_c, 0, 55, 46
2, 924025, Note_on_c, 0, 55, 0
2, 924029, Note_on_c, 0, 60, 0
2, 924085, Note_on_c, 0, 74, 0
2, 924105, Note_on_c, 0, 72, 73
2, 924181, Note_on_c, 0, 72, 0
2, 924249, Note_on_c, 0, 72, 74
2, 924257, Control_c, 0, 64, 72
2, 924265, Note_on_c, 0, 56, 58
2, 924273, Control_c, 0, 64, 0
2, 924373, Note_on_c, 0, 72, 0
2, 924381, Control_c, 0, 64, 24
2, 924389, Note_on_c, 0, 75, 65
2, 924397, Control_c, 0, 64, 72
2, 924413, Control_c, 0, 64, 104
2, 924429, Control_c, 0, 64, 127
2, 924465, Note_on_c, 0, 75, 0
2, 924513, Note_on_c, 0, 75, 65
2, 924549, Note_on_c, 0, 56, 0
2, 924553, Note_on_c, 0, 60, 49
2, 924569, Note_on_c, 0, 66, 29
2, 924569, Note_on_c, 0, 63, 25
2, 924589, Note_on_c, 0, 75, 0
2, 924649, Note_on_c, 0, 75, 65
2, 924725, Note_on_c, 0, 75, 0
2, 924753, Control_c, 0, 64, 72
2, 924769, Control_c, 0, 64, 0
2, 924785, Note_on_c, 0, 75, 68
2, 924793, Note_on_c, 0, 60, 0
2, 924805, Note_on_c, 0, 57, 64
2, 924829, Note_on_c, 0, 63, 0
2, 924869, Note_on_c, 0, 75, 0
2, 924877, Control_c, 0, 64, 40
2, 924893, Control_c, 0, 64, 72
2, 924909, Note_on_c, 0, 75, 73
2, 924909, Control_c, 0, 64, 104
2, 924921, Control_c, 0, 64, 127
2, 924985, Note_on_c, 0, 57, 0
2, 924997, Note_on_c, 0, 75, 0
2, 925065, Note_on_c, 0, 75, 61
2, 925077, Note_on_c, 0, 58, 64
2, 925125, Control_c, 0, 64, 88
2, 925141, Control_c, 0, 64, 24
2, 925149, Note_on_c, 0, 66, 0
2, 925157, Control_c, 0, 64, 0
2, 925281, Control_c, 0, 64, 24
2, 925297, Control_c, 0, 64, 56
2, 925313, Control_c, 0, 64, 88
2, 925373, Control_c, 0, 64, 0
2, 925389, Note_on_c, 0, 73, 59
2, 925401, Note_on_c, 0, 65, 51
2, 925401, Note_on_c, 0, 61, 46
2, 925433, Note_on_c, 0, 75, 0
2, 925481, Control_c, 0, 64, 24
2, 925489, Note_on_c, 0, 73, 0
2, 925497, Control_c, 0, 64, 56
2, 925509, Note_on_c, 0, 61, 0
2, 925509, Note_on_c, 0, 65, 0
2, 925513, Control_c, 0, 64, 72
2, 925521, Note_on_c, 0, 72, 74
2, 925529, Control_c, 0, 64, 88
2, 925621, Note_on_c, 0, 72, 0
2, 925621, Control_c, 0, 64, 104
2, 925661, Note_on_c, 0, 70, 56
2, 925665, Control_c, 0, 64, 127
2, 925685, Note_on_c, 0, 61, 33
2, 925701, Note_on_c, 0, 65, 25
2, 925709, Note_on_c, 0, 58, 0
2, 925749, Note_on_c, 0, 70, 0
2, 925793, Note_on_c, 0, 68, 65
2, 925865, Note_on_c, 0, 61, 0
2, 925889, Note_on_c, 0, 68, 0
2, 925929, Control_c, 0, 64, 104
2, 925945, Note_on_c, 0, 67, 67
2, 925945, Note_on_c, 0, 59, 59
2, 925945, Control_c, 0, 64, 40
2, 925961, Control_c, 0, 64, 0
2, 925981, Note_on_c, 0, 65, 0
2, 926069, Control_c, 0, 64, 24
2, 926085, Control_c, 0, 64, 56
2, 926101, Control_c, 0, 64, 88
2, 926117, Control_c, 0, 64, 127
2, 926125, Note_on_c, 0, 67, 0
2, 926237, Note_on_c, 0, 67, 66
2, 926237, Note_on_c, 0, 65, 40
2, 926241, Note_on_c, 0, 62, 44
2, 926301, Note_on_c, 0, 67, 0
2, 926373, Note_on_c, 0, 62, 0
2, 926373, Note_on_c, 0, 67, 70
2, 926377, Note_on_c, 0, 65, 0
2, 926449, Note_on_c, 0, 67, 0
2, 926505, Note_on_c, 0, 67, 66
2, 926537, Note_on_c, 0, 62, 41
2, 926557, Note_on_c, 0, 65, 33
2, 926593, Note_on_c, 0, 67, 0
2, 926601, Note_on_c, 0, 59, 0
2, 926613, Note_on_c, 0, 65, 0
2, 926629, Note_on_c, 0, 62, 0
2, 926657, Note_on_c, 0, 67, 64
2, 926725, Note_on_c, 0, 67, 0
2, 926785, Control_c, 0, 64, 88
2, 926797, Note_on_c, 0, 67, 49
2, 926797, Control_c, 0, 64, 40
2, 926813, Control_c, 0, 64, 0
2, 926825, Note_on_c, 0, 65, 52
2, 926829, Note_on_c, 0, 60, 46
2, 926921, Control_c, 0, 64, 40
2, 926937, Control_c, 0, 64, 56
2, 926953, Control_c, 0, 64, 88
2, 926969, Control_c, 0, 64, 104
2, 926977, Note_on_c, 0, 72, 67
2, 926981, Note_on_c, 0, 67, 0
2, 927053, Note_on_c, 0, 65, 0
2, 927177, Note_on_c, 0, 64, 49
2, 927185, Control_c, 0, 64, 88
2, 927217, Control_c, 0, 64, 72
2, 927233, Control_c, 0, 64, 24
2, 927249, Control_c, 0, 64, 0
2, 927385, Control_c, 0, 64, 40
2, 927401, Control_c, 0, 64, 72
2, 927417, Control_c, 0, 64, 88
2, 927433, Control_c, 0, 64, 104
2, 927497, Control_c, 0, 64, 56
2, 927509, Control_c, 0, 64, 0
2, 927513, Note_on_c, 0, 64, 0
2, 927529, Note_on_c, 0, 63, 46
2, 927633, Control_c, 0, 64, 24
2, 927649, Control_c, 0, 64, 56
2, 927665, Control_c, 0, 64, 104
2, 927681, Control_c, 0, 64, 127
2, 927757, Note_on_c, 0, 72, 0
2, 927821, Control_c, 0, 64, 104
2, 927837, Control_c, 0, 64, 40
2, 927849, Control_c, 0, 64, 0
2, 927889, Note_on_c, 0, 80, 73
2, 927945, Control_c, 0, 64, 40
2, 927953, Note_on_c, 0, 60, 0
2, 927957, Note_on_c, 0, 63, 0
2, 927957, Control_c, 0, 64, 88
2, 927977, Control_c, 0, 64, 127
2, 927989, Note_on_c, 0, 80, 0
2, 928041, Note_on_c, 0, 72, 72
2, 928129, Control_c, 0, 64, 104
2, 928145, Control_c, 0, 64, 24
2, 928161, Control_c, 0, 64, 0
2, 928201, Note_on_c, 0, 44, 54
2, 928237, Control_c, 0, 64, 40
2, 928253, Control_c, 0, 64, 104
2, 928269, Control_c, 0, 64, 127
2, 928273, Note_on_c, 0, 44, 0
2, 928361, Control_c, 0, 64, 72
2, 928377, Control_c, 0, 64, 0
2, 928501, Control_c, 0, 64, 24
2, 928517, Control_c, 0, 64, 56
2, 928533, Control_c, 0, 64, 72
2, 928549, Control_c, 0, 64, 88
2, 928557, Note_on_c, 0, 60, 42
2, 928565, Note_on_c, 0, 51, 44
2, 928565, Control_c, 0, 64, 104
2, 928577, Note_on_c, 0, 56, 25
2, 928605, Note_on_c, 0, 60, 0
2, 928609, Note_on_c, 0, 56, 0
2, 928609, Control_c, 0, 64, 127
2, 928633, Note_on_c, 0, 51, 0
2, 928717, Control_c, 0, 64, 72
2, 928733, Control_c, 0, 64, 40
2, 928749, Control_c, 0, 64, 0
2, 928849, Note_on_c, 0, 44, 52
2, 928849, Note_on_c, 0, 71, 79
2, 928853, Note_on_c, 0, 72, 0
2, 928857, Control_c, 0, 64, 72
2, 928873, Control_c, 0, 64, 127
2, 928881, Note_on_c, 0, 44, 0
2, 928981, Note_on_c, 0, 71, 0
2, 928981, Control_c, 0, 64, 104
2, 928997, Control_c, 0, 64, 56
2, 929001, Note_on_c, 0, 79, 82
2, 929013, Control_c, 0, 64, 24
2, 929029, Control_c, 0, 64, 0
2, 929121, Note_on_c, 0, 56, 43
2, 929129, Note_on_c, 0, 62, 48
2, 929129, Note_on_c, 0, 53, 45
2, 929161, Note_on_c, 0, 53, 0
2, 929177, Note_on_c, 0, 62, 0
2, 929185, Note_on_c, 0, 56, 0
2, 929385, Control_c, 0, 64, 40
2, 929401, Control_c, 0, 64, 72
2, 929413, Note_on_c, 0, 77, 85
2, 929413, Control_c, 0, 64, 88
2, 929417, Note_on_c, 0, 79, 0
2, 929425, Note_on_c, 0, 53, 55
2, 929429, Note_on_c, 0, 62, 48
2, 929429, Note_on_c, 0, 56, 39
2, 929429, Control_c, 0, 64, 104
2, 929465, Note_on_c, 0, 62, 0
2, 929469, Note_on_c, 0, 53, 0
2, 929473, Note_on_c, 0, 56, 0
2, 929541, Control_c, 0, 64, 88
2, 929557, Control_c, 0, 64, 56
2, 929573, Control_c, 0, 64, 24
2, 929589, Control_c, 0, 64, 0
2, 929693, Note_on_c, 0, 77, 0
2, 929693, Control_c, 0, 64, 40
2, 929697, Note_on_c, 0, 44, 60
2, 929701, Note_on_c, 0, 75, 76
2, 929709, Control_c, 0, 64, 104
2, 929725, Control_c, 0, 64, 127
2, 929745, Note_on_c, 0, 44, 0
2, 929801, Note_on_c, 0, 75, 0
2, 929801, Control_c, 0, 64, 104
2, 929821, Note_on_c, 0, 69, 76
2, 929821, Control_c, 0, 64, 72
2, 929833, Control_c, 0, 64, 40
2, 929849, Control_c, 0, 64, 0
2, 929941, Note_on_c, 0, 55, 51
2, 929941, Note_on_c, 0, 51, 42
2, 929949, Note_on_c, 0, 61, 27
2, 929973, Note_on_c, 0, 51, 0
2, 929973, Note_on_c, 0, 55, 0
2, 929985, Note_on_c, 0, 61, 0
2, 930213, Note_on_c, 0, 70, 74
2, 930217, Note_on_c, 0, 69, 0
2, 930221, Control_c, 0, 64, 40
2, 930237, Note_on_c, 0, 61, 49
2, 930237, Note_on_c, 0, 51, 55
2, 930237, Control_c, 0, 64, 56
2, 930253, Note_on_c, 0, 55, 38
2, 930265, Note_on_c, 0, 61, 0
2, 930285, Note_on_c, 0, 55, 0
2, 930285, Note_on_c, 0, 51, 0
2, 930329, Control_c, 0, 64, 24
2, 930345, Control_c, 0, 64, 0
2, 930485, Note_on_c, 0, 44, 67
2, 930505, Note_on_c, 0, 72, 82
2, 930517, Control_c, 0, 64, 24
2, 930529, Note_on_c, 0, 70, 0
2, 930533, Control_c, 0, 64, 72
2, 930545, Note_on_c, 0, 44, 0
2, 930545, Control_c, 0, 64, 104
2, 930597, Note_on_c, 0, 72, 0
2, 930609, Control_c, 0, 64, 72
2, 930625, Control_c, 0, 64, 40
2, 930629, Note_on_c, 0, 67, 74
2, 930637, Control_c, 0, 64, 24
2, 930653, Control_c, 0, 64, 0
2, 930753, Note_on_c, 0, 60, 61
2, 930753, Note_on_c, 0, 56, 46
2, 930753, Note_on_c, 0, 51, 47
2, 930793, Note_on_c, 0, 60, 0
2, 930801, Note_on_c, 0, 56, 0
2, 930817, Note_on_c, 0, 51, 0
2, 931033, Note_on_c, 0, 68, 82
2, 931033, Note_on_c, 0, 51, 65
2, 931045, Note_on_c, 0, 56, 51
2, 931049, Note_on_c, 0, 60, 56
2, 931053, Note_on_c, 0, 67, 0
2, 931069, Note_on_c, 0, 56, 0
2, 931085, Note_on_c, 0, 60, 0
2, 931089, Note_on_c, 0, 51, 0
2, 931117, Note_on_c, 0, 68, 0
2, 931305, Control_c, 0, 64, 56
2, 931313, Note_on_c, 0, 73, 96
2, 931321, Note_on_c, 0, 56, 61
2, 931321, Control_c, 0, 64, 104
2, 931325, Note_on_c, 0, 61, 78
2, 931325, Note_on_c, 0, 65, 68
2, 931329, Note_on_c, 0, 68, 62
2, 931333, Note_on_c, 0, 53, 59
2, 931337, Control_c, 0, 64, 127
2, 931357, Note_on_c, 0, 68, 0
2, 931365, Note_on_c, 0, 53, 0
2, 931377, Note_on_c, 0, 61, 0
2, 931377, Note_on_c, 0, 56, 0
2, 931389, Note_on_c, 0, 65, 0
2, 931397, Control_c, 0, 64, 104
2, 931409, Note_on_c, 0, 73, 0
2, 931417, Control_c, 0, 64, 88
2, 931429, Control_c, 0, 64, 72
2, 931445, Control_c, 0, 64, 56
2, 931461, Control_c, 0, 64, 40
2, 931477, Control_c, 0, 64, 0
2, 931569, Note_on_c, 0, 56, 71
2, 931573, Note_on_c, 0, 65, 78
2, 931577, Note_on_c, 0, 73, 89
2, 931577, Note_on_c, 0, 61, 89
2, 931577, Note_on_c, 0, 53, 68
2, 931585, Note_on_c, 0, 68, 69
2, 931605, Note_on_c, 0, 53, 0
2, 931613, Note_on_c, 0, 65, 0
2, 931613, Note_on_c, 0, 68, 0
2, 931621, Note_on_c, 0, 61, 0
2, 931625, Note_on_c, 0, 73, 0
2, 931625, Note_on_c, 0, 56, 0
2, 931701, Note_on_c, 0, 73, 86
2, 931709, Note_on_c, 0, 61, 85
2, 931709, Note_on_c, 0, 68, 74
2, 931709, Note_on_c, 0, 56, 67
2, 931709, Note_on_c, 0, 65, 80
2, 931713, Note_on_c, 0, 53, 74
2, 931737, Note_on_c, 0, 53, 0
2, 931737, Note_on_c, 0, 65, 0
2, 931749, Note_on_c, 0, 61, 0
2, 931749, Note_on_c, 0, 73, 0
2, 931749, Note_on_c, 0, 56, 0
2, 931753, Note_on_c, 0, 68, 0
2, 931817, Note_on_c, 0, 73, 80
2, 931817, Note_on_c, 0, 61, 81
2, 931829, Note_on_c, 0, 56, 58
2, 931829, Note_on_c, 0, 65, 63
2, 931829, Note_on_c, 0, 68, 58
2, 931833, Note_on_c, 0, 53, 59
2, 931853, Note_on_c, 0, 68, 0
2, 931853, Note_on_c, 0, 56, 0
2, 931857, Note_on_c, 0, 65, 0
2, 931861, Note_on_c, 0, 53, 0
2, 931865, Note_on_c, 0, 61, 0
2, 931873, Note_on_c, 0, 73, 0
2, 931925, Note_on_c, 0, 65, 62
2, 931929, Note_on_c, 0, 56, 61
2, 931929, Note_on_c, 0, 61, 74
2, 931929, Note_on_c, 0, 73, 76
2, 931933, Note_on_c, 0, 53, 47
2, 931957, Note_on_c, 0, 65, 0
2, 931957, Note_on_c, 0, 68, 38
2, 931965, Note_on_c, 0, 56, 0
2, 931965, Note_on_c, 0, 53, 0
2, 931985, Note_on_c, 0, 68, 0
2, 931989, Note_on_c, 0, 61, 0
2, 932001, Note_on_c, 0, 73, 0
2, 932065, Note_on_c, 0, 74, 102
2, 932065, Note_on_c, 0, 64, 94
2, 932065, Note_on_c, 0, 68, 81
2, 932069, Note_on_c, 0, 62, 93
2, 932081, Note_on_c, 0, 56, 75
2, 932081, Note_on_c, 0, 52, 72
2, 932081, Control_c, 0, 64, 40
2, 932097, Control_c, 0, 64, 88
2, 932105, Note_on_c, 0, 64, 0
2, 932113, Control_c, 0, 64, 127
2, 932117, Note_on_c, 0, 56, 0
2, 932117, Note_on_c, 0, 62, 0
2, 932117, Note_on_c, 0, 52, 0
2, 932133, Note_on_c, 0, 68, 0
2, 932149, Note_on_c, 0, 74, 0
2, 932189, Control_c, 0, 64, 88
2, 932205, Control_c, 0, 64, 56
2, 932221, Control_c, 0, 64, 24
2, 932237, Control_c, 0, 64, 0
2, 932325, Note_on_c, 0, 77, 100
2, 932329, Note_on_c, 0, 65, 89
2, 932329, Note_on_c, 0, 68, 82
2, 932341, Note_on_c, 0, 53, 78
2, 932345, Note_on_c, 0, 59, 77
2, 932345, Note_on_c, 0, 47, 61
2, 932345, Control_c, 0, 64, 40
2, 932357, Control_c, 0, 64, 72
2, 932373, Note_on_c, 0, 65, 0
2, 932377, Note_on_c, 0, 59, 0
2, 932377, Note_on_c, 0, 47, 0
2, 932385, Note_on_c, 0, 53, 0
2, 932389, Note_on_c, 0, 68, 0
2, 932413, Note_on_c, 0, 77, 0
2, 932437, Control_c, 0, 64, 24
2, 932449, Control_c, 0, 64, 0
2, 932589, Note_on_c, 0, 80, 95
2, 932589, Note_on_c, 0, 58, 71
2, 932593, Note_on_c, 0, 74, 92
2, 932597, Note_on_c, 0, 53, 80
2, 932597, Note_on_c, 0, 46, 73
2, 932597, Note_on_c, 0, 68, 89
2, 932609, Control_c, 0, 64, 56
2, 932621, Note_on_c, 0, 53, 0
2, 932621, Control_c, 0, 64, 127
2, 932637, Note_on_c, 0, 58, 0
2, 932645, Note_on_c, 0, 46, 0
2, 932657, Note_on_c, 0, 74, 0
2, 932669, Note_on_c, 0, 68, 0
2, 932697, Note_on_c, 0, 80, 0
2, 932701, Control_c, 0, 64, 104
2, 932717, Control_c, 0, 64, 88
2, 932729, Control_c, 0, 64, 56
2, 932745, Control_c, 0, 64, 0
2, 932853, Note_on_c, 0, 67, 90
2, 932853, Note_on_c, 0, 75, 86
2, 932857, Note_on_c, 0, 79, 95
2, 932861, Note_on_c, 0, 51, 90
2, 932865, Note_on_c, 0, 46, 75
2, 932865, Note_on_c, 0, 39, 72
2, 932873, Control_c, 0, 64, 40
2, 932889, Note_on_c, 0, 46, 0
2, 932889, Control_c, 0, 64, 104
2, 932901, Note_on_c, 0, 67, 0
2, 932901, Control_c, 0, 64, 127
2, 932909, Note_on_c, 0, 51, 0
2, 932921, Note_on_c, 0, 39, 0
2, 932925, Note_on_c, 0, 75, 0
2, 932929, Note_on_c, 0, 79, 0
2, 933009, Control_c, 0, 64, 88
2, 933025, Control_c, 0, 64, 40
2, 933041, Control_c, 0, 64, 0
2, 933133, Note_on_c, 0, 70, 93
2, 933133, Note_on_c, 0, 82, 93
2, 933141, Note_on_c, 0, 75, 81
2, 933141, Note_on_c, 0, 49, 85
2, 933145, Note_on_c, 0, 37, 69
2, 933153, Control_c, 0, 64, 40
2, 933165, Control_c, 0, 64, 127
2, 933185, Note_on_c, 0, 49, 0
2, 933185, Note_on_c, 0, 70, 0
2, 933197, Note_on_c, 0, 37, 0
2, 933205, Note_on_c, 0, 75, 0
2, 933225, Note_on_c, 0, 82, 0
2, 933273, Control_c, 0, 64, 88
2, 933289, Control_c, 0, 64, 40
2, 933305, Control_c, 0, 64, 0
2, 933405, Note_on_c, 0, 85, 93
2, 933409, Note_on_c, 0, 73, 97
2, 933413, Note_on_c, 0, 75, 85
2, 933417, Note_on_c, 0, 82, 71
2, 933417, Note_on_c, 0, 79, 83
2, 933417, Note_on_c, 0, 39, 79
2, 933417, Note_on_c, 0, 46, 91
2, 933421, Note_on_c, 0, 34, 72
2, 933429, Control_c, 0, 64, 88
2, 933445, Control_c, 0, 64, 127
2, 933465, Note_on_c, 0, 46, 0
2, 933473, Note_on_c, 0, 39, 0
2, 933477, Note_on_c, 0, 34, 0
2, 933489, Note_on_c, 0, 79, 0
2, 933501, Note_on_c, 0, 75, 0
2, 933505, Note_on_c, 0, 82, 0
2, 933505, Note_on_c, 0, 73, 0
2, 933529, Note_on_c, 0, 85, 0
2, 933553, Control_c, 0, 64, 88
2, 933565, Control_c, 0, 64, 56
2, 933585, Control_c, 0, 64, 0
2, 933713, Note_on_c, 0, 84, 100
2, 933717, Note_on_c, 0, 75, 89
2, 933721, Note_on_c, 0, 80, 85
2, 933721, Note_on_c, 0, 72, 99
2, 933725, Note_on_c, 0, 44, 81
2, 933725, Note_on_c, 0, 32, 77
2, 933725, Note_on_c, 0, 39, 74
2, 933753, Control_c, 0, 64, 56
2, 933769, Note_on_c, 0, 44, 0
2, 933769, Control_c, 0, 64, 127
2, 933773, Note_on_c, 0, 32, 0
2, 933781, Note_on_c, 0, 39, 0
2, 933789, Note_on_c, 0, 72, 0
2, 933805, Note_on_c, 0, 75, 0
2, 933817, Note_on_c, 0, 80, 0
2, 933821, Note_on_c, 0, 84, 0
2, 934405, Control_c, 0, 64, 104
2, 934421, Control_c, 0, 64, 40
2, 934437, Control_c, 0, 64, 0
2, 934665, Note_on_c, 0, 87, 102
2, 934665, Note_on_c, 0, 75, 93
2, 934665, Note_on_c, 0, 39, 69
2, 934673, Note_on_c, 0, 51, 88
2, 934685, Control_c, 0, 64, 127
2, 934717, Note_on_c, 0, 51, 0
2, 934717, Note_on_c, 0, 39, 0
2, 934769, Note_on_c, 0, 75, 0
2, 934797, Note_on_c, 0, 87, 0
2, 934969, Note_on_c, 0, 87, 86
2, 934969, Note_on_c, 0, 58, 45
2, 934969, Note_on_c, 0, 63, 53
2, 934977, Note_on_c, 0, 75, 82
2, 934993, Note_on_c, 0, 55, 58
2, 935021, Note_on_c, 0, 55, 0
2, 935025, Note_on_c, 0, 87, 0
2, 935025, Note_on_c, 0, 75, 0
2, 935037, Note_on_c, 0, 63, 0
2, 935045, Note_on_c, 0, 58, 0
2, 935101, Note_on_c, 0, 87, 87
2, 935105, Note_on_c, 0, 75, 87
2, 935161, Note_on_c, 0, 75, 0
2, 935165, Note_on_c, 0, 87, 0
2, 935217, Note_on_c, 0, 67, 68
2, 935217, Note_on_c, 0, 63, 57
2, 935221, Note_on_c, 0, 58, 58
2, 935237, Note_on_c, 0, 75, 88
2, 935237, Note_on_c, 0, 87, 87
2, 935241, Note_on_c, 0, 67, 0
2, 935249, Note_on_c, 0, 63, 0
2, 935277, Note_on_c, 0, 58, 0
2, 935289, Note_on_c, 0, 75, 0
2, 935293, Note_on_c, 0, 87, 0
2, 935357, Note_on_c, 0, 87, 87
2, 935361, Note_on_c, 0, 75, 93
2, 935425, Note_on_c, 0, 75, 0
2, 935433, Note_on_c, 0, 87, 0
2, 935473, Control_c, 0, 64, 24
2, 935489, Control_c, 0, 64, 0
2, 935497, Note_on_c, 0, 87, 88
2, 935501, Note_on_c, 0, 41, 74
2, 935501, Note_on_c, 0, 75, 91
2, 935513, Note_on_c, 0, 53, 86
2, 935529, Note_on_c, 0, 41, 0
2, 935565, Note_on_c, 0, 53, 0
2, 935569, Control_c, 0, 64, 88
2, 935581, Control_c, 0, 64, 127
2, 935625, Note_on_c, 0, 75, 0
2, 935645, Note_on_c, 0, 87, 0
2, 935765, Note_on_c, 0, 85, 85
2, 935773, Note_on_c, 0, 73, 80
2, 935785, Note_on_c, 0, 56, 51
2, 935797, Note_on_c, 0, 61, 44
2, 935809, Note_on_c, 0, 53, 43
2, 935825, Note_on_c, 0, 73, 0
2, 935833, Note_on_c, 0, 85, 0
2, 935841, Note_on_c, 0, 53, 0
2, 935849, Note_on_c, 0, 61, 0
2, 935865, Note_on_c, 0, 56, 0
2, 935897, Note_on_c, 0, 84, 94
2, 935909, Note_on_c, 0, 72, 84
2, 935937, Note_on_c, 0, 72, 0
2, 935949, Note_on_c, 0, 84, 0
2, 936025, Note_on_c, 0, 82, 83
2, 936029, Note_on_c, 0, 70, 83
2, 936029, Note_on_c, 0, 56, 60
2, 936033, Note_on_c, 0, 65, 36
2, 936065, Note_on_c, 0, 65, 0
2, 936069, Note_on_c, 0, 56, 0
2, 936069, Note_on_c, 0, 70, 0
2, 936073, Note_on_c, 0, 82, 0
2, 936153, Note_on_c, 0, 80, 85
2, 936153, Note_on_c, 0, 68, 84
2, 936209, Note_on_c, 0, 68, 0
2, 936241, Note_on_c, 0, 80, 0
2, 936281, Control_c, 0, 64, 40
2, 936297, Control_c, 0, 64, 0
2, 936305, Note_on_c, 0, 79, 92
2, 936313, Note_on_c, 0, 67, 74
2, 936329, Note_on_c, 0, 43, 61
2, 936341, Note_on_c, 0, 55, 48
2, 936377, Note_on_c, 0, 67, 0
2, 936381, Note_on_c, 0, 55, 0
2, 936393, Note_on_c, 0, 43, 0
2, 936405, Control_c, 0, 64, 88
2, 936417, Control_c, 0, 64, 127
2, 936477, Note_on_c, 0, 79, 0
2, 936601, Note_on_c, 0, 53, 58
2, 936609, Note_on_c, 0, 79, 82
2, 936609, Note_on_c, 0, 50, 52
2, 936617, Note_on_c, 0, 67, 62
2, 936645, Note_on_c, 0, 50, 0
2, 936645, Note_on_c, 0, 53, 0
2, 936657, Note_on_c, 0, 67, 0
2, 936673, Note_on_c, 0, 79, 0
2, 936741, Note_on_c, 0, 79, 81
2, 936745, Note_on_c, 0, 67, 70
2, 936797, Note_on_c, 0, 67, 0
2, 936797, Note_on_c, 0, 79, 0
2, 936881, Note_on_c, 0, 59, 67
2, 936881, Note_on_c, 0, 62, 56
2, 936893, Note_on_c, 0, 79, 85
2, 936893, Note_on_c, 0, 67, 68
2, 936921, Note_on_c, 0, 59, 0
2, 936925, Note_on_c, 0, 62, 0
2, 936937, Note_on_c, 0, 67, 0
2, 936949, Note_on_c, 0, 79, 0
2, 937025, Note_on_c, 0, 79, 82
2, 937025, Note_on_c, 0, 67, 68
2, 937081, Note_on_c, 0, 67, 0
2, 937085, Note_on_c, 0, 79, 0
2, 937161, Control_c, 0, 64, 104
2, 937177, Note_on_c, 0, 79, 84
2, 937181, Control_c, 0, 64, 0
2, 937193, Note_on_c, 0, 67, 56
2, 937197, Note_on_c, 0, 36, 66
2, 937213, Note_on_c, 0, 48, 59
2, 937249, Note_on_c, 0, 36, 0
2, 937281, Note_on_c, 0, 48, 0
2, 937289, Control_c, 0, 64, 72
2, 937301, Control_c, 0, 64, 127
2, 937329, Note_on_c, 0, 67, 0
2, 937413, Note_on_c, 0, 79, 0
2, 937481, Note_on_c, 0, 77, 76
2, 937505, Note_on_c, 0, 51, 50
2, 937505, Note_on_c, 0, 48, 53
2, 937557, Note_on_c, 0, 51, 0
2, 937569, Note_on_c, 0, 77, 0
2, 937593, Note_on_c, 0, 48, 0
2, 937605, Note_on_c, 0, 75, 77
2, 937701, Note_on_c, 0, 75, 0
2, 937737, Note_on_c, 0, 74, 74
2, 937757, Note_on_c, 0, 60, 47
2, 937761, Note_on_c, 0, 55, 50
2, 937809, Note_on_c, 0, 55, 0
2, 937809, Note_on_c, 0, 60, 0
2, 937833, Note_on_c, 0, 74, 0
2, 937861, Note_on_c, 0, 72, 74
2, 937945, Note_on_c, 0, 72, 0
2, 938005, Note_on_c, 0, 72, 71
2, 938017, Note_on_c, 0, 56, 65
2, 938017, Control_c, 0, 64, 88
2, 938033, Control_c, 0, 64, 24
2, 938045, Control_c, 0, 64, 0
2, 938137, Note_on_c, 0, 72, 0
2, 938153, Note_on_c, 0, 75, 70
2, 938153, Control_c, 0, 64, 40
2, 938169, Control_c, 0, 64, 88
2, 938185, Control_c, 0, 64, 104
2, 938201, Control_c, 0, 64, 127
2, 938225, Note_on_c, 0, 75, 0
2, 938289, Note_on_c, 0, 75, 65
2, 938313, Note_on_c, 0, 63, 34
2, 938321, Note_on_c, 0, 60, 49
2, 938325, Note_on_c, 0, 66, 25
2, 938329, Note_on_c, 0, 56, 0
2, 938357, Note_on_c, 0, 75, 0
2, 938417, Note_on_c, 0, 75, 65
2, 938485, Note_on_c, 0, 75, 0
2, 938525, Control_c, 0, 64, 88
2, 938541, Control_c, 0, 64, 24
2, 938549, Note_on_c, 0, 57, 70
2, 938549, Note_on_c, 0, 75, 68
2, 938557, Note_on_c, 0, 60, 0
2, 938557, Control_c, 0, 64, 0
2, 938569, Note_on_c, 0, 63, 0
2, 938621, Note_on_c, 0, 75, 0
2, 938621, Control_c, 0, 64, 24
2, 938633, Control_c, 0, 64, 72
2, 938649, Control_c, 0, 64, 104
2, 938665, Control_c, 0, 64, 127
2, 938681, Note_on_c, 0, 75, 68
2, 938725, Note_on_c, 0, 57, 0
2, 938757, Note_on_c, 0, 75, 0
2, 938813, Note_on_c, 0, 75, 62
2, 938821, Note_on_c, 0, 58, 67
2, 938837, Control_c, 0, 64, 104
2, 938853, Control_c, 0, 64, 72
2, 938869, Control_c, 0, 64, 0
2, 938889, Note_on_c, 0, 66, 0
2, 938993, Control_c, 0, 64, 24
2, 939005, Control_c, 0, 64, 56
2, 939021, Control_c, 0, 64, 72
2, 939037, Control_c, 0, 64, 88
2, 939085, Control_c, 0, 64, 0
2, 939093, Note_on_c, 0, 75, 0
2, 939125, Note_on_c, 0, 61, 48
2, 939125, Note_on_c, 0, 73, 65
2, 939133, Note_on_c, 0, 65, 48
2, 939177, Control_c, 0, 64, 24
2, 939193, Control_c, 0, 64, 56
2, 939209, Control_c, 0, 64, 88
2, 939221, Note_on_c, 0, 73, 0
2, 939225, Control_c, 0, 64, 104
2, 939237, Note_on_c, 0, 61, 0
2, 939241, Control_c, 0, 64, 127
2, 939253, Note_on_c, 0, 72, 78
2, 939273, Note_on_c, 0, 65, 0
2, 939349, Note_on_c, 0, 72, 0
2, 939349, Control_c, 0, 64, 56
2, 939365, Control_c, 0, 64, 24
2, 939377, Control_c, 0, 64, 0
2, 939381, Note_on_c, 0, 70, 62
2, 939397, Note_on_c, 0, 61, 39
2, 939397, Note_on_c, 0, 65, 43
2, 939409, Control_c, 0, 64, 40
2, 939425, Control_c, 0, 64, 56
2, 939441, Control_c, 0, 64, 88
2, 939457, Control_c, 0, 64, 104
2, 939473, Control_c, 0, 64, 127
2, 939477, Note_on_c, 0, 70, 0
2, 939489, Note_on_c, 0, 58, 0
2, 939521, Note_on_c, 0, 68, 64
2, 939597, Note_on_c, 0, 61, 0
2, 939613, Note_on_c, 0, 68, 0
2, 939657, Control_c, 0, 64, 104
2, 939673, Control_c, 0, 64, 56
2, 939677, Note_on_c, 0, 67, 65
2, 939689, Note_on_c, 0, 59, 54
2, 939689, Control_c, 0, 64, 0
2, 939757, Note_on_c, 0, 65, 0
2, 939829, Control_c, 0, 64, 24
2, 939845, Note_on_c, 0, 67, 0
2, 939845, Control_c, 0, 64, 72
2, 939861, Control_c, 0, 64, 104
2, 939873, Control_c, 0, 64, 127
2, 939953, Control_c, 0, 64, 88
2, 939965, Control_c, 0, 64, 24
2, 939981, Note_on_c, 0, 67, 68
2, 939981, Control_c, 0, 64, 0
2, 939989, Note_on_c, 0, 65, 37
2, 939993, Note_on_c, 0, 62, 45
2, 940029, Control_c, 0, 64, 24
2, 940041, Note_on_c, 0, 67, 0
2, 940045, Control_c, 0, 64, 56
2, 940061, Control_c, 0, 64, 88
2, 940077, Control_c, 0, 64, 127
2, 940101, Note_on_c, 0, 62, 0
2, 940105, Note_on_c, 0, 65, 0
2, 940105, Note_on_c, 0, 67, 64
2, 940185, Note_on_c, 0, 67, 0
2, 940249, Note_on_c, 0, 67, 61
2, 940261, Note_on_c, 0, 62, 41
2, 940265, Note_on_c, 0, 65, 41
2, 940321, Note_on_c, 0, 67, 0
2, 940341, Note_on_c, 0, 59, 0
2, 940393, Note_on_c, 0, 67, 63
2, 940401, Note_on_c, 0, 65, 0
2, 940413, Note_on_c, 0, 62, 0
2, 940465, Note_on_c, 0, 67, 0
2, 940537, Note_on_c, 0, 67, 45
2, 940557, Note_on_c, 0, 60, 62
2, 940557, Control_c, 0, 64, 56
2, 940569, Note_on_c, 0, 65, 49
2, 940573, Control_c, 0, 64, 0
2, 940665, Control_c, 0, 64, 24
2, 940681, Control_c, 0, 64, 56
2, 940697, Note_on_c, 0, 72, 71
2, 940697, Control_c, 0, 64, 88
2, 940705, Note_on_c, 0, 67, 0
2, 940709, Control_c, 0, 64, 127
2, 940785, Note_on_c, 0, 65, 0
2, 940849, Control_c, 0, 64, 104
2, 940881, Control_c, 0, 64, 88
2, 940897, Control_c, 0, 64, 56
2, 940901, Note_on_c, 0, 64, 54
2, 940913, Control_c, 0, 64, 0
2, 941053, Control_c, 0, 64, 24
2, 941065, Control_c, 0, 64, 40
2, 941081, Control_c, 0, 64, 56
2, 941097, Control_c, 0, 64, 72
2, 941113, Control_c, 0, 64, 88
2, 941193, Control_c, 0, 64, 56
2, 941205, Control_c, 0, 64, 0
2, 941265, Note_on_c, 0, 63, 42
2, 941273, Note_on_c, 0, 64, 0
2, 941345, Control_c, 0, 64, 56
2, 941361, Control_c, 0, 64, 88
2, 941377, Control_c, 0, 64, 104
2, 941393, Control_c, 0, 64, 127
2, 941449, Note_on_c, 0, 72, 0
2, 941477, Note_on_c, 0, 63, 0
2, 941565, Control_c, 0, 64, 72
2, 941577, Control_c, 0, 64, 0
2, 941585, Note_on_c, 0, 63, 17
2, 941633, Note_on_c, 0, 80, 77
2, 941669, Control_c, 0, 64, 24
2, 941685, Control_c, 0, 64, 72
2, 941701, Note_on_c, 0, 60, 0
2, 941701, Control_c, 0, 64, 127
2, 941713, Note_on_c, 0, 63, 0
2, 941737, Note_on_c, 0, 80, 0
2, 941813, Note_on_c, 0, 72, 74
2, 941905, Control_c, 0, 64, 104
2, 941917, Control_c, 0, 64, 24
2, 941933, Control_c, 0, 64, 0
2, 941965, Note_on_c, 0, 44, 59
2, 942013, Control_c, 0, 64, 56
2, 942029, Note_on_c, 0, 44, 0
2, 942029, Control_c, 0, 64, 127
2, 942121, Control_c, 0, 64, 104
2, 942137, Control_c, 0, 64, 56
2, 942153, Control_c, 0, 64, 0
2, 942325, Note_on_c, 0, 60, 49
2, 942329, Note_on_c, 0, 56, 40
2, 942337, Note_on_c, 0, 51, 46
2, 942377, Note_on_c, 0, 60, 0
2, 942393, Note_on_c, 0, 56, 0
2, 942397, Control_c, 0, 64, 40
2, 942409, Note_on_c, 0, 51, 0
2, 942413, Control_c, 0, 64, 88
2, 942429, Control_c, 0, 64, 127
2, 942525, Control_c, 0, 64, 104
2, 942537, Control_c, 0, 64, 24
2, 942553, Control_c, 0, 64, 0
2, 942617, Note_on_c, 0, 44, 53
2, 942629, Note_on_c, 0, 71, 75
2, 942633, Control_c, 0, 64, 56
2, 942645, Note_on_c, 0, 72, 0
2, 942645, Control_c, 0, 64, 127
2, 942653, Note_on_c, 0, 44, 0
2, 942741, Control_c, 0, 64, 104
2, 942757, Note_on_c, 0, 71, 0
2, 942757, Control_c, 0, 64, 72
2, 942769, Note_on_c, 0, 79, 82
2, 942769, Control_c, 0, 64, 40
2, 942785, Control_c, 0, 64, 0
2, 942897, Note_on_c, 0, 56, 46
2, 942913, Note_on_c, 0, 53, 54
2, 942913, Note_on_c, 0, 62, 45
2, 942945, Note_on_c, 0, 53, 0
2, 942953, Note_on_c, 0, 62, 0
2, 942965, Note_on_c, 0, 56, 0
2, 943277, Note_on_c, 0, 79, 0
2, 943281, Control_c, 0, 64, 40
2, 943285, Note_on_c, 0, 56, 40
2, 943289, Note_on_c, 0, 77, 77
2, 943293, Note_on_c, 0, 53, 48
2, 943293, Note_on_c, 0, 62, 44
2, 943297, Control_c, 0, 64, 88
2, 943313, Control_c, 0, 64, 127
2, 943337, Note_on_c, 0, 62, 0
2, 943361, Note_on_c, 0, 53, 0
2, 943361, Note_on_c, 0, 56, 0
2, 943453, Control_c, 0, 64, 104
2, 943469, Control_c, 0, 64, 40
2, 943485, Control_c, 0, 64, 0
2, 943557, Note_on_c, 0, 77, 0
2, 943561, Note_on_c, 0, 75, 77
2, 943565, Note_on_c, 0, 44, 55
2, 943577, Control_c, 0, 64, 72
2, 943593, Control_c, 0, 64, 127
2, 943613, Note_on_c, 0, 44, 0
2, 943673, Note_on_c, 0, 75, 0
2, 943685, Note_on_c, 0, 69, 71
2, 943685, Control_c, 0, 64, 104
2, 943701, Control_c, 0, 64, 72
2, 943717, Control_c, 0, 64, 24
2, 943733, Control_c, 0, 64, 0
2, 943821, Note_on_c, 0, 55, 57
2, 943821, Note_on_c, 0, 51, 47
2, 943821, Note_on_c, 0, 61, 39
2, 943857, Note_on_c, 0, 55, 0
2, 943877, Note_on_c, 0, 61, 0
2, 943885, Note_on_c, 0, 51, 0
2, 944073, Control_c, 0, 64, 40
2, 944089, Control_c, 0, 64, 72
2, 944093, Note_on_c, 0, 69, 0
2, 944093, Note_on_c, 0, 70, 75
2, 944093, Note_on_c, 0, 61, 56
2, 944097, Note_on_c, 0, 55, 60
2, 944105, Note_on_c, 0, 51, 59
2, 944105, Control_c, 0, 64, 104
2, 944117, Control_c, 0, 64, 127
2, 944125, Note_on_c, 0, 55, 0
2, 944133, Control_c, 0, 64, 104
2, 944149, Note_on_c, 0, 61, 0
2, 944149, Control_c, 0, 64, 72
2, 944165, Note_on_c, 0, 51, 0
2, 944165, Control_c, 0, 64, 40
2, 944181, Control_c, 0, 64, 24
2, 944229, Control_c, 0, 64, 56
2, 944241, Control_c, 0, 64, 72
2, 944257, Control_c, 0, 64, 88
2, 944273, Control_c, 0, 64, 104
2, 944321, Control_c, 0, 64, 72
2, 944337, Control_c, 0, 64, 0
2, 944373, Note_on_c, 0, 44, 67
2, 944393, Note_on_c, 0, 72, 79
2, 944421, Note_on_c, 0, 70, 0
2, 944429, Note_on_c, 0, 44, 0
2, 944445, Control_c, 0, 64, 24
2, 944461, Control_c, 0, 64, 40
2, 944473, Control_c, 0, 64, 56
2, 944481, Note_on_c, 0, 72, 0
2, 944513, Note_on_c, 0, 67, 75
2, 944537, Control_c, 0, 64, 0
2, 944645, Note_on_c, 0, 51, 51
2, 944649, Note_on_c, 0, 56, 40
2, 944653, Note_on_c, 0, 60, 49
2, 944661, Control_c, 0, 64, 24
2, 944677, Control_c, 0, 64, 56
2, 944693, Note_on_c, 0, 60, 0
2, 944705, Note_on_c, 0, 56, 0
2, 944741, Note_on_c, 0, 51, 0
2, 944785, Control_c, 0, 64, 40
2, 944801, Control_c, 0, 64, 24
2, 944817, Control_c, 0, 64, 0
2, 944901, Note_on_c, 0, 67, 0
2, 944901, Note_on_c, 0, 68, 83
2, 944913, Note_on_c, 0, 51, 67
2, 944925, Note_on_c, 0, 56, 49
2, 944925, Control_c, 0, 64, 24
2, 944929, Note_on_c, 0, 60, 53
2, 944941, Control_c, 0, 64, 72
2, 944953, Control_c, 0, 64, 104
2, 944961, Note_on_c, 0, 56, 0
2, 944965, Note_on_c, 0, 60, 0
2, 944969, Note_on_c, 0, 51, 0
2, 944969, Control_c, 0, 64, 127
2, 945001, Note_on_c, 0, 68, 0
2, 945077, Control_c, 0, 64, 56
2, 945097, Control_c, 0, 64, 0
2, 945193, Note_on_c, 0, 73, 93
2, 945197, Note_on_c, 0, 56, 71
2, 945201, Note_on_c, 0, 65, 74
2, 945201, Note_on_c, 0, 61, 77
2, 945201, Note_on_c, 0, 53, 69
2, 945201, Note_on_c, 0, 68, 76
2, 945205, Control_c, 0, 64, 56
2, 945217, Control_c, 0, 64, 104
2, 945233, Note_on_c, 0, 53, 0
2, 945233, Control_c, 0, 64, 127
2, 945253, Note_on_c, 0, 56, 0
2, 945257, Note_on_c, 0, 61, 0
2, 945261, Note_on_c, 0, 65, 0
2, 945281, Note_on_c, 0, 68, 0
2, 945297, Note_on_c, 0, 73, 0
2, 945329, Control_c, 0, 64, 104
2, 945421, Control_c, 0, 64, 72
2, 945437, Control_c, 0, 64, 40
2, 945449, Control_c, 0, 64, 24
2, 945457, Note_on_c, 0, 56, 69
2, 945461, Note_on_c, 0, 73, 88
2, 945461, Note_on_c, 0, 65, 74
2, 945465, Note_on_c, 0, 61, 84
2, 945469, Note_on_c, 0, 68, 69
2, 945469, Control_c, 0, 64, 0
2, 945477, Note_on_c, 0, 53, 55
2, 945493, Note_on_c, 0, 65, 0
2, 945501, Note_on_c, 0, 68, 0
2, 945501, Note_on_c, 0, 53, 0
2, 945505, Note_on_c, 0, 56, 0
2, 945509, Note_on_c, 0, 61, 0
2, 945513, Note_on_c, 0, 73, 0
2, 945577, Note_on_c, 0, 73, 83
2, 945581, Note_on_c, 0, 65, 74
2, 945585, Note_on_c, 0, 61, 84
2, 945585, Note_on_c, 0, 56, 61
2, 945585, Note_on_c, 0, 53, 59
2, 945589, Note_on_c, 0, 68, 71
2, 945613, Note_on_c, 0, 53, 0
2, 945617, Note_on_c, 0, 65, 0
2, 945625, Note_on_c, 0, 56, 0
2, 945625, Note_on_c, 0, 68, 0
2, 945629, Note_on_c, 0, 61, 0
2, 945641, Note_on_c, 0, 73, 0
2, 945697, Note_on_c, 0, 73, 74
2, 945697, Note_on_c, 0, 61, 77
2, 945705, Note_on_c, 0, 65, 72
2, 945709, Note_on_c, 0, 56, 56
2, 945713, Note_on_c, 0, 53, 68
2, 945721, Note_on_c, 0, 68, 40
2, 945737, Note_on_c, 0, 53, 0
2, 945737, Note_on_c, 0, 65, 0
2, 945745, Note_on_c, 0, 56, 0
2, 945745, Note_on_c, 0, 68, 0
2, 945749, Note_on_c, 0, 61, 0
2, 945761, Note_on_c, 0, 73, 0
2, 945813, Note_on_c, 0, 73, 82
2, 945817, Note_on_c, 0, 61, 72
2, 945817, Note_on_c, 0, 65, 70
2, 945821, Note_on_c, 0, 56, 57
2, 945829, Note_on_c, 0, 53, 61
2, 945841, Note_on_c, 0, 68, 65
2, 945845, Note_on_c, 0, 65, 0
2, 945861, Note_on_c, 0, 56, 0
2, 945869, Note_on_c, 0, 61, 0
2, 945881, Note_on_c, 0, 53, 0
2, 945893, Note_on_c, 0, 68, 0
2, 945893, Note_on_c, 0, 73, 0
2, 945953, Note_on_c, 0, 74, 102
2, 945957, Note_on_c, 0, 64, 100
2, 945957, Note_on_c, 0, 56, 66
2, 945961, Note_on_c, 0, 68, 80
2, 945965, Note_on_c, 0, 62, 92
2, 945977, Note_on_c, 0, 52, 70
2, 945993, Control_c, 0, 64, 56
2, 946001, Note_on_c, 0, 52, 0
2, 946001, Note_on_c, 0, 64, 0
2, 946001, Note_on_c, 0, 56, 0
2, 946009, Note_on_c, 0, 62, 0
2, 946009, Control_c, 0, 64, 127
2, 946021, Note_on_c, 0, 68, 0
2, 946045, Note_on_c, 0, 74, 0
2, 946101, Control_c, 0, 64, 104
2, 946117, Control_c, 0, 64, 72
2, 946133, Control_c, 0, 64, 40
2, 946149, Control_c, 0, 64, 0
2, 946233, Note_on_c, 0, 77, 100
2, 946237, Note_on_c, 0, 68, 78
2, 946237, Note_on_c, 0, 65, 85
2, 946241, Note_on_c, 0, 74, 80
2, 946249, Note_on_c, 0, 47, 78
2, 946249, Note_on_c, 0, 53, 84
2, 946253, Note_on_c, 0, 59, 80
2, 946273, Control_c, 0, 64, 56
2, 946285, Note_on_c, 0, 65, 0
2, 946289, Control_c, 0, 64, 104
2, 946297, Note_on_c, 0, 68, 0
2, 946297, Note_on_c, 0, 59, 0
2, 946305, Note_on_c, 0, 74, 0
2, 946305, Note_on_c, 0, 47, 0
2, 946305, Note_on_c, 0, 53, 0
2, 946305, Control_c, 0, 64, 127
2, 946321, Note_on_c, 0, 77, 0
2, 946349, Control_c, 0, 64, 104
2, 946365, Control_c, 0, 64, 72
2, 946381, Control_c, 0, 64, 24
2, 946397, Control_c, 0, 64, 0
2, 946501, Note_on_c, 0, 80, 99
2, 946501, Note_on_c, 0, 58, 75
2, 946505, Note_on_c, 0, 70, 85
2, 946505, Note_on_c, 0, 53, 79
2, 946509, Note_on_c, 0, 74, 93
2, 946509, Note_on_c, 0, 46, 73
2, 946509, Note_on_c, 0, 68, 87
2, 946521, Control_c, 0, 64, 24
2, 946533, Note_on_c, 0, 53, 0
2, 946537, Control_c, 0, 64, 72
2, 946553, Note_on_c, 0, 58, 0
2, 946553, Control_c, 0, 64, 127
2, 946561, Note_on_c, 0, 46, 0
2, 946565, Note_on_c, 0, 68, 0
2, 946573, Note_on_c, 0, 70, 0
2, 946577, Note_on_c, 0, 74, 0
2, 946617, Note_on_c, 0, 80, 0
2, 946645, Control_c, 0, 64, 104
2, 946661, Control_c, 0, 64, 72
2, 946673, Control_c, 0, 64, 0
2, 946777, Note_on_c, 0, 79, 102
2, 946777, Note_on_c, 0, 51, 90
2, 946777, Note_on_c, 0, 75, 88
2, 946781, Note_on_c, 0, 70, 85
2, 946781, Note_on_c, 0, 67, 94
2, 946781, Note_on_c, 0, 39, 71
2, 946785, Note_on_c, 0, 46, 71
2, 946801, Control_c, 0, 64, 40
2, 946813, Note_on_c, 0, 46, 0
2, 946813, Control_c, 0, 64, 104
2, 946825, Note_on_c, 0, 51, 0
2, 946829, Note_on_c, 0, 67, 0
2, 946829, Note_on_c, 0, 70, 0
2, 946833, Control_c, 0, 64, 127
2, 946837, Note_on_c, 0, 39, 0
2, 946861, Note_on_c, 0, 79, 0
2, 946861, Note_on_c, 0, 75, 0
2, 946953, Control_c, 0, 64, 72
2, 946969, Control_c, 0, 64, 0
2, 947049, Note_on_c, 0, 82, 92
2, 947049, Note_on_c, 0, 70, 97
2, 947049, Note_on_c, 0, 79, 94
2, 947057, Note_on_c, 0, 75, 83
2, 947057, Note_on_c, 0, 49, 89
2, 947057, Note_on_c, 0, 37, 72
2, 947077, Control_c, 0, 64, 56
2, 947093, Control_c, 0, 64, 127
2, 947101, Note_on_c, 0, 70, 0
2, 947109, Note_on_c, 0, 49, 0
2, 947109, Note_on_c, 0, 37, 0
2, 947113, Note_on_c, 0, 75, 0
2, 947145, Note_on_c, 0, 82, 0
2, 947149, Note_on_c, 0, 79, 0
2, 947205, Control_c, 0, 64, 88
2, 947217, Control_c, 0, 64, 40
2, 947233, Control_c, 0, 64, 0
2, 947325, Note_on_c, 0, 85, 95
2, 947333, Note_on_c, 0, 73, 97
2, 947333, Note_on_c, 0, 75, 87
2, 947333, Note_on_c, 0, 39, 81
2, 947333, Note_on_c, 0, 79, 59
2, 947333, Note_on_c, 0, 46, 92
2, 947333, Note_on_c, 0, 34, 76
2, 947333, Note_on_c, 0, 82, 79
2, 947361, Note_on_c, 0, 79, 0
2, 947373, Control_c, 0, 64, 104
2, 947377, Note_on_c, 0, 39, 0
2, 947377, Note_on_c, 0, 46, 0
2, 947389, Control_c, 0, 64, 127
2, 947393, Note_on_c, 0, 34, 0
2, 947417, Note_on_c, 0, 75, 0
2, 947417, Note_on_c, 0, 73, 0
2, 947425, Note_on_c, 0, 82, 0
2, 947449, Note_on_c, 0, 85, 0
2, 947513, Control_c, 0, 64, 72
2, 947525, Control_c, 0, 64, 24
2, 947541, Control_c, 0, 64, 0
2, 947661, Note_on_c, 0, 84, 102
2, 947661, Note_on_c, 0, 44, 88
2, 947661, Note_on_c, 0, 75, 87
2, 947665, Note_on_c, 0, 39, 79
2, 947665, Note_on_c, 0, 32, 70
2, 947665, Note_on_c, 0, 72, 97
2, 947665, Note_on_c, 0, 80, 83
2, 947713, Control_c, 0, 64, 127
2, 947777, Note_on_c, 0, 32, 0
2, 947781, Note_on_c, 0, 72, 0
2, 947785, Note_on_c, 0, 39, 0
2, 947785, Note_on_c, 0, 84, 0
2, 947793, Note_on_c, 0, 44, 0
2, 947793, Note_on_c, 0, 80, 0
2, 947797, Note_on_c, 0, 75, 0
2, 948349, Control_c, 0, 64, 104
2, 948365, Control_c, 0, 64, 88
2, 948381, Control_c, 0, 64, 56
2, 948397, Control_c, 0, 64, 0
2, 950401, Note_on_c, 0, 53, 67
2, 950421, Note_on_c, 0, 53, 0
2, 950509, Note_on_c, 0, 92, 85
2, 950517, Note_on_c, 0, 68, 61
2, 950517, Note_on_c, 0, 72, 64
2, 950537, Note_on_c, 0, 72, 0
2, 950537, Note_on_c, 0, 68, 0
2, 950601, Note_on_c, 0, 92, 0
2, 950621, Note_on_c, 0, 56, 57
2, 950625, Note_on_c, 0, 80, 73
2, 950641, Note_on_c, 0, 56, 0
2, 950681, Note_on_c, 0, 80, 0
2, 950721, Note_on_c, 0, 68, 60
2, 950725, Note_on_c, 0, 72, 57
2, 950729, Note_on_c, 0, 89, 83
2, 950745, Note_on_c, 0, 72, 0
2, 950749, Note_on_c, 0, 68, 0
2, 950797, Note_on_c, 0, 89, 0
2, 950833, Note_on_c, 0, 77, 68
2, 950833, Note_on_c, 0, 58, 53
2, 950873, Note_on_c, 0, 58, 0
2, 950877, Note_on_c, 0, 77, 0
2, 950933, Note_on_c, 0, 85, 89
2, 950937, Note_on_c, 0, 70, 54
2, 950941, Note_on_c, 0, 65, 54
2, 950969, Note_on_c, 0, 65, 0
2, 950973, Note_on_c, 0, 70, 0
2, 951001, Note_on_c, 0, 85, 0
2, 951033, Note_on_c, 0, 73, 60
2, 951057, Note_on_c, 0, 61, 46
2, 951061, Note_on_c, 0, 73, 0
2, 951085, Note_on_c, 0, 61, 0
2, 951149, Note_on_c, 0, 89, 87
2, 951153, Note_on_c, 0, 70, 47
2, 951157, Note_on_c, 0, 65, 50
2, 951173, Note_on_c, 0, 65, 0
2, 951181, Note_on_c, 0, 70, 0
2, 951237, Note_on_c, 0, 89, 0
2, 951265, Note_on_c, 0, 77, 72
2, 951265, Note_on_c, 0, 51, 69
2, 951293, Note_on_c, 0, 51, 0
2, 951301, Note_on_c, 0, 77, 0
2, 951377, Note_on_c, 0, 91, 87
2, 951385, Note_on_c, 0, 70, 58
2, 951389, Note_on_c, 0, 63, 53
2, 951409, Note_on_c, 0, 63, 0
2, 951417, Note_on_c, 0, 70, 0
2, 951449, Note_on_c, 0, 91, 0
2, 951489, Note_on_c, 0, 79, 66
2, 951497, Note_on_c, 0, 55, 59
2, 951513, Note_on_c, 0, 55, 0
2, 951533, Note_on_c, 0, 79, 0
2, 951597, Note_on_c, 0, 87, 85
2, 951605, Note_on_c, 0, 70, 50
2, 951609, Note_on_c, 0, 63, 46
2, 951629, Note_on_c, 0, 63, 0
2, 951633, Note_on_c, 0, 70, 0
2, 951677, Note_on_c, 0, 87, 0
2, 951701, Note_on_c, 0, 75, 68
2, 951709, Note_on_c, 0, 56, 57
2, 951749, Note_on_c, 0, 56, 0
2, 951765, Note_on_c, 0, 75, 0
2, 951813, Note_on_c, 0, 84, 82
2, 951817, Note_on_c, 0, 68, 51
2, 951825, Note_on_c, 0, 63, 42
2, 951849, Note_on_c, 0, 63, 0
2, 951865, Note_on_c, 0, 68, 0
2, 951897, Note_on_c, 0, 84, 0
2, 951921, Note_on_c, 0, 72, 75
2, 951937, Note_on_c, 0, 60, 47
2, 951957, Note_on_c, 0, 72, 0
2, 951969, Note_on_c, 0, 60, 0
2, 952029, Note_on_c, 0, 68, 57
2, 952033, Note_on_c, 0, 87, 85
2, 952041, Note_on_c, 0, 63, 36
2, 952057, Note_on_c, 0, 63, 0
2, 952057, Note_on_c, 0, 68, 0
2, 952109, Note_on_c, 0, 87, 0
2, 952141, Note_on_c, 0, 75, 83
2, 952141, Note_on_c, 0, 49, 64
2, 952169, Note_on_c, 0, 49, 0
2, 952189, Note_on_c, 0, 75, 0
2, 952253, Note_on_c, 0, 89, 86
2, 952257, Note_on_c, 0, 61, 51
2, 952257, Note_on_c, 0, 65, 52
2, 952285, Note_on_c, 0, 61, 0
2, 952289, Note_on_c, 0, 65, 0
2, 952325, Note_on_c, 0, 89, 0
2, 952357, Note_on_c, 0, 77, 72
2, 952365, Note_on_c, 0, 53, 59
2, 952385, Note_on_c, 0, 53, 0
2, 952405, Note_on_c, 0, 77, 0
2, 952461, Note_on_c, 0, 85, 85
2, 952473, Note_on_c, 0, 61, 55
2, 952477, Note_on_c, 0, 65, 46
2, 952509, Note_on_c, 0, 65, 0
2, 952517, Note_on_c, 0, 61, 0
2, 952545, Note_on_c, 0, 85, 0
2, 952565, Note_on_c, 0, 73, 68
2, 952577, Note_on_c, 0, 55, 64
2, 952613, Note_on_c, 0, 55, 0
2, 952617, Note_on_c, 0, 73, 0
2, 952681, Note_on_c, 0, 82, 78
2, 952681, Note_on_c, 0, 61, 55
2, 952681, Note_on_c, 0, 65, 60
2, 952705, Note_on_c, 0, 61, 0
2, 952709, Note_on_c, 0, 65, 0
2, 952757, Note_on_c, 0, 82, 0
2, 952785, Note_on_c, 0, 70, 71
2, 952793, Note_on_c, 0, 48, 69
2, 952809, Note_on_c, 0, 48, 0
2, 952829, Note_on_c, 0, 70, 0
2, 952897, Note_on_c, 0, 84, 85
2, 952905, Note_on_c, 0, 64, 57
2, 952929, Note_on_c, 0, 64, 0
2, 952965, Note_on_c, 0, 84, 0
2, 953005, Note_on_c, 0, 72, 70
2, 953017, Note_on_c, 0, 53, 63
2, 953053, Note_on_c, 0, 53, 0
2, 953053, Note_on_c, 0, 72, 0
2, 953113, Note_on_c, 0, 80, 78
2, 953113, Note_on_c, 0, 60, 65
2, 953117, Note_on_c, 0, 65, 60
2, 953141, Note_on_c, 0, 60, 0
2, 953149, Note_on_c, 0, 65, 0
2, 953189, Note_on_c, 0, 80, 0
2, 953217, Note_on_c, 0, 68, 64
2, 953225, Note_on_c, 0, 48, 68
2, 953241, Note_on_c, 0, 48, 0
2, 953245, Note_on_c, 0, 68, 0
2, 953325, Note_on_c, 0, 84, 82
2, 953333, Note_on_c, 0, 65, 55
2, 953333, Note_on_c, 0, 60, 63
2, 953353, Note_on_c, 0, 60, 0
2, 953361, Note_on_c, 0, 65, 0
2, 953393, Note_on_c, 0, 84, 0
2, 953429, Note_on_c, 0, 72, 62
2, 953445, Note_on_c, 0, 55, 60
2, 953461, Note_on_c, 0, 55, 0
2, 953481, Note_on_c, 0, 72, 0
2, 953541, Note_on_c, 0, 79, 74
2, 953549, Note_on_c, 0, 64, 54
2, 953553, Note_on_c, 0, 60, 47
2, 953573, Control_c, 0, 64, 40
2, 953577, Note_on_c, 0, 64, 0
2, 953581, Control_c, 0, 64, 56
2, 953585, Note_on_c, 0, 60, 0
2, 953589, Control_c, 0, 64, 88
2, 953621, Note_on_c, 0, 79, 0
2, 953637, Note_on_c, 0, 67, 60
2, 953637, Note_on_c, 0, 48, 50
2, 953649, Control_c, 0, 64, 56
2, 953665, Control_c, 0, 64, 40
2, 953669, Note_on_c, 0, 79, 37
2, 953673, Note_on_c, 0, 67, 0
2, 953681, Note_on_c, 0, 48, 0
2, 953685, Control_c, 0, 64, 24
2, 953689, Note_on_c, 0, 79, 0
2, 953705, Control_c, 0, 64, 0
2, 953753, Note_on_c, 0, 84, 81
2, 953757, Note_on_c, 0, 64, 36
2, 953757, Note_on_c, 0, 60, 41
2, 953797, Note_on_c, 0, 64, 0
2, 953805, Note_on_c, 0, 60, 0
2, 953861, Note_on_c, 0, 72, 63
2, 953873, Note_on_c, 0, 53, 53
2, 953881, Note_on_c, 0, 72, 0
2, 953893, Note_on_c, 0, 53, 0
2, 953913, Note_on_c, 0, 84, 0
2, 953989, Note_on_c, 0, 92, 92
2, 953997, Note_on_c, 0, 68, 58
2, 954001, Note_on_c, 0, 72, 61
2, 954013, Note_on_c, 0, 68, 0
2, 954025, Note_on_c, 0, 72, 0
2, 954057, Note_on_c, 0, 92, 0
2, 954101, Note_on_c, 0, 80, 71
2, 954105, Note_on_c, 0, 56, 59
2, 954129, Note_on_c, 0, 56, 0
2, 954161, Note_on_c, 0, 80, 0
2, 954209, Note_on_c, 0, 89, 83
2, 954209, Note_on_c, 0, 72, 62
2, 954209, Note_on_c, 0, 68, 58
2, 954233, Note_on_c, 0, 68, 0
2, 954237, Note_on_c, 0, 72, 0
2, 954277, Note_on_c, 0, 89, 0
2, 954317, Note_on_c, 0, 77, 64
2, 954317, Note_on_c, 0, 58, 56
2, 954349, Note_on_c, 0, 77, 0
2, 954361, Note_on_c, 0, 58, 0
2, 954421, Note_on_c, 0, 85, 80
2, 954425, Note_on_c, 0, 70, 46
2, 954429, Note_on_c, 0, 65, 56
2, 954449, Note_on_c, 0, 65, 0
2, 954461, Note_on_c, 0, 70, 0
2, 954489, Note_on_c, 0, 85, 0
2, 954521, Note_on_c, 0, 73, 54
2, 954533, Note_on_c, 0, 61, 46
2, 954549, Note_on_c, 0, 73, 0
2, 954589, Note_on_c, 0, 61, 0
2, 954633, Note_on_c, 0, 70, 49
2, 954637, Note_on_c, 0, 89, 82
2, 954641, Note_on_c, 0, 65, 55
2, 954661, Note_on_c, 0, 65, 0
2, 954669, Note_on_c, 0, 70, 0
2, 954717, Note_on_c, 0, 89, 0
2, 954749, Note_on_c, 0, 77, 71
2, 954753, Note_on_c, 0, 51, 60
2, 954773, Note_on_c, 0, 51, 0
2, 954785, Note_on_c, 0, 77, 0
2, 954861, Note_on_c, 0, 91, 85
2, 954869, Note_on_c, 0, 70, 53
2, 954877, Note_on_c, 0, 63, 43
2, 954893, Note_on_c, 0, 63, 0
2, 954905, Note_on_c, 0, 70, 0
2, 954933, Note_on_c, 0, 91, 0
2, 954973, Note_on_c, 0, 79, 62
2, 954981, Note_on_c, 0, 55, 59
2, 954997, Note_on_c, 0, 55, 0
2, 955001, Note_on_c, 0, 79, 0
2, 955085, Note_on_c, 0, 87, 80
2, 955093, Note_on_c, 0, 70, 47
2, 955097, Note_on_c, 0, 63, 50
2, 955117, Note_on_c, 0, 63, 0
2, 955125, Note_on_c, 0, 70, 0
2, 955157, Note_on_c, 0, 87, 0
2, 955189, Note_on_c, 0, 75, 65
2, 955193, Note_on_c, 0, 56, 58
2, 955237, Note_on_c, 0, 56, 0
2, 955245, Note_on_c, 0, 75, 0
2, 955297, Note_on_c, 0, 84, 81
2, 955305, Note_on_c, 0, 68, 54
2, 955313, Note_on_c, 0, 63, 43
2, 955333, Note_on_c, 0, 63, 0
2, 955349, Note_on_c, 0, 68, 0
2, 955377, Note_on_c, 0, 84, 0
2, 955405, Note_on_c, 0, 72, 66
2, 955425, Note_on_c, 0, 60, 51
2, 955437, Note_on_c, 0, 72, 0
2, 955453, Note_on_c, 0, 60, 0
2, 955517, Note_on_c, 0, 68, 54
2, 955521, Note_on_c, 0, 87, 85
2, 955525, Note_on_c, 0, 63, 38
2, 955541, Note_on_c, 0, 68, 0
2, 955545, Note_on_c, 0, 63, 0
2, 955593, Note_on_c, 0, 87, 0
2, 955625, Note_on_c, 0, 49, 69
2, 955629, Note_on_c, 0, 75, 82
2, 955657, Note_on_c, 0, 49, 0
2, 955673, Note_on_c, 0, 75, 0
2, 955737, Note_on_c, 0, 89, 86
2, 955741, Note_on_c, 0, 65, 64
2, 955741, Note_on_c, 0, 61, 61
2, 955773, Note_on_c, 0, 61, 0
2, 955781, Note_on_c, 0, 65, 0
2, 955805, Note_on_c, 0, 89, 0
2, 955849, Note_on_c, 0, 77, 56
2, 955849, Note_on_c, 0, 53, 64
2, 955869, Note_on_c, 0, 53, 0
2, 955873, Note_on_c, 0, 77, 0
2, 955953, Note_on_c, 0, 85, 78
2, 955957, Note_on_c, 0, 61, 69
2, 955961, Note_on_c, 0, 65, 62
2, 956005, Note_on_c, 0, 65, 0
2, 956005, Note_on_c, 0, 61, 0
2, 956033, Note_on_c, 0, 85, 0
2, 956061, Note_on_c, 0, 73, 61
2, 956061, Note_on_c, 0, 55, 71
2, 956109, Note_on_c, 0, 73, 0
2, 956113, Note_on_c, 0, 55, 0
2, 956173, Note_on_c, 0, 61, 67
2, 956177, Note_on_c, 0, 82, 73
2, 956177, Note_on_c, 0, 65, 64
2, 956201, Note_on_c, 0, 65, 0
2, 956205, Note_on_c, 0, 61, 0
2, 956249, Note_on_c, 0, 82, 0
2, 956277, Note_on_c, 0, 70, 64
2, 956297, Note_on_c, 0, 48, 47
2, 956317, Note_on_c, 0, 70, 0
2, 956337, Note_on_c, 0, 48, 0
2, 956389, Note_on_c, 0, 84, 80
2, 956397, Note_on_c, 0, 64, 61
2, 956397, Note_on_c, 0, 60, 63
2, 956417, Note_on_c, 0, 60, 0
2, 956421, Note_on_c, 0, 64, 0
2, 956453, Note_on_c, 0, 84, 0
2, 956497, Note_on_c, 0, 72, 64
2, 956509, Note_on_c, 0, 53, 59
2, 956529, Note_on_c, 0, 53, 0
2, 956545, Note_on_c, 0, 72, 0
2, 956613, Note_on_c, 0, 80, 74
2, 956613, Note_on_c, 0, 60, 65
2, 956617, Note_on_c, 0, 65, 51
2, 956637, Note_on_c, 0, 65, 0
2, 956637, Note_on_c, 0, 60, 0
2, 956681, Note_on_c, 0, 80, 0
2, 956721, Note_on_c, 0, 68, 62
2, 956725, Note_on_c, 0, 48, 73
2, 956753, Note_on_c, 0, 68, 0
2, 956761, Note_on_c, 0, 48, 0
2, 956829, Note_on_c, 0, 84, 77
2, 956833, Note_on_c, 0, 60, 69
2, 956837, Note_on_c, 0, 65, 48
2, 956861, Note_on_c, 0, 65, 0
2, 956873, Note_on_c, 0, 60, 0
2, 956893, Note_on_c, 0, 84, 0
2, 956933, Note_on_c, 0, 72, 59
2, 956941, Note_on_c, 0, 55, 56
2, 956965, Note_on_c, 0, 55, 0
2, 956981, Note_on_c, 0, 72, 0
2, 957049, Note_on_c, 0, 79, 70
2, 957049, Note_on_c, 0, 64, 51
2, 957049, Note_on_c, 0, 60, 52
2, 957049, Control_c, 0, 64, 40
2, 957061, Control_c, 0, 64, 56
2, 957069, Note_on_c, 0, 60, 0
2, 957069, Control_c, 0, 64, 72
2, 957073, Note_on_c, 0, 64, 0
2, 957125, Note_on_c, 0, 79, 0
2, 957149, Note_on_c, 0, 67, 56
2, 957153, Control_c, 0, 64, 88
2, 957157, Note_on_c, 0, 48, 68
2, 957177, Note_on_c, 0, 67, 0
2, 957193, Note_on_c, 0, 48, 0
2, 957249, Control_c, 0, 64, 104
2, 957269, Note_on_c, 0, 64, 55
2, 957273, Note_on_c, 0, 60, 60
2, 957277, Control_c, 0, 64, 127
2, 957281, Note_on_c, 0, 84, 68
2, 957293, Note_on_c, 0, 60, 0
2, 957293, Note_on_c, 0, 64, 0
2, 957349, Note_on_c, 0, 84, 0
2, 957401, Note_on_c, 0, 44, 53
2, 957405, Note_on_c, 0, 72, 58
2, 957425, Control_c, 0, 64, 88
2, 957437, Control_c, 0, 64, 0
2, 957461, Note_on_c, 0, 44, 0
2, 957501, Control_c, 0, 64, 56
2, 957513, Control_c, 0, 64, 127
2, 957529, Note_on_c, 0, 72, 0
2, 957533, Note_on_c, 0, 84, 74
2, 957537, Note_on_c, 0, 60, 44
2, 957545, Note_on_c, 0, 56, 34
2, 957565, Note_on_c, 0, 56, 0
2, 957565, Note_on_c, 0, 60, 0
2, 957573, Note_on_c, 0, 84, 0
2, 957645, Note_on_c, 0, 51, 52
2, 957657, Note_on_c, 0, 68, 50
2, 957713, Note_on_c, 0, 68, 0
2, 957721, Note_on_c, 0, 51, 0
2, 957761, Note_on_c, 0, 80, 71
2, 957761, Note_on_c, 0, 56, 44
2, 957765, Note_on_c, 0, 60, 42
2, 957781, Note_on_c, 0, 56, 0
2, 957785, Note_on_c, 0, 60, 0
2, 957817, Note_on_c, 0, 80, 0
2, 957865, Note_on_c, 0, 72, 69
2, 957865, Note_on_c, 0, 44, 56
2, 957909, Note_on_c, 0, 44, 0
2, 957949, Note_on_c, 0, 72, 0
2, 957953, Control_c, 0, 64, 72
2, 957965, Control_c, 0, 64, 0
2, 957981, Note_on_c, 0, 84, 77
2, 957985, Note_on_c, 0, 60, 52
2, 957989, Note_on_c, 0, 56, 48
2, 958013, Control_c, 0, 64, 56
2, 958021, Control_c, 0, 64, 127
2, 958025, Note_on_c, 0, 56, 0
2, 958033, Note_on_c, 0, 60, 0
2, 958045, Note_on_c, 0, 84, 0
2, 958077, Note_on_c, 0, 72, 70
2, 958093, Note_on_c, 0, 52, 62
2, 958137, Note_on_c, 0, 72, 0
2, 958153, Note_on_c, 0, 52, 0
2, 958201, Note_on_c, 0, 79, 75
2, 958201, Note_on_c, 0, 56, 47
2, 958205, Note_on_c, 0, 60, 46
2, 958225, Note_on_c, 0, 60, 0
2, 958225, Note_on_c, 0, 56, 0
2, 958289, Note_on_c, 0, 79, 0
2, 958309, Note_on_c, 0, 67, 57
2, 958309, Note_on_c, 0, 44, 55
2, 958341, Note_on_c, 0, 67, 0
2, 958345, Note_on_c, 0, 44, 0
2, 958409, Control_c, 0, 64, 88
2, 958417, Control_c, 0, 64, 40
2, 958421, Note_on_c, 0, 60, 58
2, 958421, Note_on_c, 0, 84, 80
2, 958425, Control_c, 0, 64, 0
2, 958429, Note_on_c, 0, 56, 51
2, 958453, Note_on_c, 0, 56, 0
2, 958465, Control_c, 0, 64, 40
2, 958469, Note_on_c, 0, 60, 0
2, 958473, Control_c, 0, 64, 104
2, 958481, Control_c, 0, 64, 127
2, 958501, Note_on_c, 0, 84, 0
2, 958533, Note_on_c, 0, 72, 68
2, 958537, Note_on_c, 0, 53, 58
2, 958585, Note_on_c, 0, 72, 0
2, 958601, Note_on_c, 0, 53, 0
2, 958641, Note_on_c, 0, 56, 55
2, 958645, Note_on_c, 0, 77, 76
2, 958645, Note_on_c, 0, 60, 52
2, 958665, Note_on_c, 0, 60, 0
2, 958677, Note_on_c, 0, 56, 0
2, 958737, Note_on_c, 0, 77, 0
2, 958745, Note_on_c, 0, 65, 66
2, 958745, Note_on_c, 0, 44, 65
2, 958781, Note_on_c, 0, 44, 0
2, 958781, Note_on_c, 0, 65, 0
2, 958861, Control_c, 0, 64, 88
2, 958865, Note_on_c, 0, 60, 54
2, 958869, Note_on_c, 0, 84, 86
2, 958869, Note_on_c, 0, 57, 57
2, 958869, Control_c, 0, 64, 24
2, 958877, Control_c, 0, 64, 0
2, 958893, Note_on_c, 0, 57, 0
2, 958913, Note_on_c, 0, 60, 0
2, 958925, Control_c, 0, 64, 72
2, 958933, Control_c, 0, 64, 127
2, 958941, Note_on_c, 0, 84, 0
2, 958973, Note_on_c, 0, 72, 60
2, 958981, Note_on_c, 0, 53, 55
2, 959029, Note_on_c, 0, 72, 0
2, 959041, Note_on_c, 0, 53, 0
2, 959085, Note_on_c, 0, 57, 59
2, 959089, Note_on_c, 0, 75, 71
2, 959089, Note_on_c, 0, 60, 49
2, 959109, Note_on_c, 0, 60, 0
2, 959117, Note_on_c, 0, 57, 0
2, 959149, Note_on_c, 0, 75, 0
2, 959193, Note_on_c, 0, 44, 58
2, 959217, Note_on_c, 0, 44, 0
2, 959297, Note_on_c, 0, 61, 59
2, 959297, Note_on_c, 0, 85, 88
2, 959309, Note_on_c, 0, 58, 44
2, 959313, Control_c, 0, 64, 88
2, 959321, Control_c, 0, 64, 0
2, 959337, Note_on_c, 0, 58, 0
2, 959353, Note_on_c, 0, 61, 0
2, 959377, Control_c, 0, 64, 88
2, 959385, Note_on_c, 0, 85, 0
2, 959389, Control_c, 0, 64, 127
2, 959409, Note_on_c, 0, 73, 65
2, 959425, Note_on_c, 0, 53, 56
2, 959441, Note_on_c, 0, 73, 0
2, 959489, Note_on_c, 0, 53, 0
2, 959525, Note_on_c, 0, 77, 82
2, 959525, Note_on_c, 0, 58, 47
2, 959525, Note_on_c, 0, 61, 44
2, 959549, Note_on_c, 0, 58, 0
2, 959553, Note_on_c, 0, 61, 0
2, 959605, Note_on_c, 0, 77, 0
2, 959625, Note_on_c, 0, 65, 69
2, 959633, Note_on_c, 0, 44, 59
2, 959645, Note_on_c, 0, 77, 28
2, 959661, Note_on_c, 0, 65, 0
2, 959669, Note_on_c, 0, 44, 0
2, 959681, Note_on_c, 0, 77, 0
2, 959737, Note_on_c, 0, 61, 60
2, 959737, Control_c, 0, 64, 72
2, 959745, Note_on_c, 0, 85, 86
2, 959745, Control_c, 0, 64, 0
2, 959749, Note_on_c, 0, 58, 44
2, 959773, Note_on_c, 0, 58, 0
2, 959785, Note_on_c, 0, 61, 0
2, 959793, Control_c, 0, 64, 40
2, 959801, Control_c, 0, 64, 104
2, 959813, Control_c, 0, 64, 127
2, 959829, Note_on_c, 0, 85, 0
2, 959853, Note_on_c, 0, 73, 71
2, 959861, Note_on_c, 0, 54, 58
2, 959921, Note_on_c, 0, 73, 0
2, 959929, Note_on_c, 0, 54, 0
2, 959969, Note_on_c, 0, 76, 79
2, 959969, Note_on_c, 0, 58, 45
2, 959969, Note_on_c, 0, 61, 46
2, 959993, Note_on_c, 0, 58, 0
2, 960001, Note_on_c, 0, 61, 0
2, 960017, Note_on_c, 0, 76, 0
2, 960073, Note_on_c, 0, 64, 71
2, 960085, Note_on_c, 0, 44, 51
2, 960101, Note_on_c, 0, 44, 0
2, 960105, Note_on_c, 0, 64, 0
2, 960189, Note_on_c, 0, 85, 85
2, 960189, Note_on_c, 0, 61, 60
2, 960189, Control_c, 0, 64, 72
2, 960197, Control_c, 0, 64, 0
2, 960201, Note_on_c, 0, 58, 40
2, 960253, Note_on_c, 0, 61, 0
2, 960253, Control_c, 0, 64, 24
2, 960257, Note_on_c, 0, 85, 0
2, 960261, Note_on_c, 0, 58, 0
2, 960265, Control_c, 0, 64, 104
2, 960273, Control_c, 0, 64, 127
2, 960289, Note_on_c, 0, 73, 67
2, 960313, Note_on_c, 0, 55, 60
2, 960357, Note_on_c, 0, 73, 0
2, 960369, Note_on_c, 0, 55, 0
2, 960405, Note_on_c, 0, 75, 74
2, 960409, Note_on_c, 0, 58, 49
2, 960409, Note_on_c, 0, 61, 47
2, 960433, Note_on_c, 0, 58, 0
2, 960441, Note_on_c, 0, 61, 0
2, 960469, Note_on_c, 0, 75, 0
2, 960501, Note_on_c, 0, 63, 65
2, 960521, Note_on_c, 0, 63, 0
2, 960521, Note_on_c, 0, 44, 57
2, 960545, Note_on_c, 0, 44, 0
2, 960629, Note_on_c, 0, 84, 83
2, 960629, Note_on_c, 0, 61, 55
2, 960637, Note_on_c, 0, 58, 49
2, 960649, Control_c, 0, 64, 72
2, 960661, Control_c, 0, 64, 0
2, 960693, Note_on_c, 0, 61, 0
2, 960713, Note_on_c, 0, 58, 0
2, 960725, Control_c, 0, 64, 56
2, 960737, Control_c, 0, 64, 127
2, 960745, Note_on_c, 0, 72, 60
2, 960749, Note_on_c, 0, 56, 47
2, 960757, Note_on_c, 0, 84, 0
2, 960797, Note_on_c, 0, 72, 0
2, 960809, Note_on_c, 0, 56, 0
2, 960853, Note_on_c, 0, 82, 73
2, 960857, Note_on_c, 0, 58, 46
2, 960857, Note_on_c, 0, 61, 45
2, 960877, Note_on_c, 0, 58, 0
2, 960905, Note_on_c, 0, 61, 0
2, 960933, Note_on_c, 0, 82, 0
2, 960961, Note_on_c, 0, 70, 55
2, 960961, Note_on_c, 0, 44, 55
2, 961005, Note_on_c, 0, 44, 0
2, 961005, Note_on_c, 0, 70, 0
2, 961065, Control_c, 0, 64, 56
2, 961073, Control_c, 0, 64, 0
2, 961077, Note_on_c, 0, 84, 81
2, 961077, Note_on_c, 0, 60, 54
2, 961077, Note_on_c, 0, 56, 51
2, 961125, Note_on_c, 0, 56, 0
2, 961133, Note_on_c, 0, 60, 0
2, 961133, Control_c, 0, 64, 40
2, 961141, Control_c, 0, 64, 104
2, 961149, Control_c, 0, 64, 127
2, 961157, Note_on_c, 0, 84, 0
2, 961189, Note_on_c, 0, 51, 62
2, 961193, Note_on_c, 0, 72, 58
2, 961245, Note_on_c, 0, 72, 0
2, 961261, Note_on_c, 0, 51, 0
2, 961305, Note_on_c, 0, 80, 77
2, 961305, Note_on_c, 0, 56, 56
2, 961309, Note_on_c, 0, 60, 56
2, 961329, Note_on_c, 0, 60, 0
2, 961345, Note_on_c, 0, 56, 0
2, 961385, Note_on_c, 0, 80, 0
2, 961405, Note_on_c, 0, 68, 57
2, 961421, Note_on_c, 0, 44, 42
2, 961433, Note_on_c, 0, 68, 0
2, 961437, Note_on_c, 0, 44, 0
2, 961509, Control_c, 0, 64, 88
2, 961517, Control_c, 0, 64, 40
2, 961525, Note_on_c, 0, 60, 51
2, 961529, Control_c, 0, 64, 0
2, 961533, Note_on_c, 0, 84, 82
2, 961541, Note_on_c, 0, 56, 39
2, 961573, Control_c, 0, 64, 40
2, 961585, Control_c, 0, 64, 104
2, 961589, Note_on_c, 0, 60, 0
2, 961593, Control_c, 0, 64, 127
2, 961605, Note_on_c, 0, 56, 0
2, 961609, Note_on_c, 0, 84, 0
2, 961637, Note_on_c, 0, 72, 71
2, 961645, Note_on_c, 0, 52, 59
2, 961693, Note_on_c, 0, 72, 0
2, 961709, Note_on_c, 0, 52, 0
2, 961753, Note_on_c, 0, 56, 61
2, 961761, Note_on_c, 0, 79, 79
2, 961761, Note_on_c, 0, 60, 42
2, 961785, Note_on_c, 0, 60, 0
2, 961797, Note_on_c, 0, 56, 0
2, 961853, Note_on_c, 0, 79, 0
2, 961865, Note_on_c, 0, 44, 63
2, 961869, Note_on_c, 0, 67, 70
2, 961901, Note_on_c, 0, 67, 0
2, 961901, Note_on_c, 0, 44, 0
2, 961961, Control_c, 0, 64, 72
2, 961969, Control_c, 0, 64, 0
2, 961981, Note_on_c, 0, 60, 59
2, 961981, Note_on_c, 0, 84, 84
2, 961985, Note_on_c, 0, 56, 55
2, 962013, Note_on_c, 0, 56, 0
2, 962017, Control_c, 0, 64, 56
2, 962025, Note_on_c, 0, 60, 0
2, 962025, Control_c, 0, 64, 127
2, 962053, Note_on_c, 0, 84, 0
2, 962085, Note_on_c, 0, 72, 74
2, 962089, Note_on_c, 0, 53, 60
2, 962137, Note_on_c, 0, 72, 0
2, 962149, Note_on_c, 0, 53, 0
2, 962197, Note_on_c, 0, 56, 56
2, 962205, Note_on_c, 0, 60, 52
2, 962205, Note_on_c, 0, 77, 78
2, 962225, Note_on_c, 0, 60, 0
2, 962237, Note_on_c, 0, 56, 0
2, 962289, Note_on_c, 0, 77, 0
2, 962309, Note_on_c, 0, 65, 69
2, 962309, Note_on_c, 0, 44, 62
2, 962337, Note_on_c, 0, 65, 0
2, 962341, Note_on_c, 0, 44, 0
2, 962421, Note_on_c, 0, 60, 60
2, 962421, Note_on_c, 0, 84, 88
2, 962421, Control_c, 0, 64, 72
2, 962429, Note_on_c, 0, 57, 61
2, 962433, Control_c, 0, 64, 0
2, 962449, Note_on_c, 0, 57, 0
2, 962477, Note_on_c, 0, 60, 0
2, 962489, Control_c, 0, 64, 88
2, 962493, Note_on_c, 0, 84, 0
2, 962497, Control_c, 0, 64, 127
2, 962529, Note_on_c, 0, 72, 67
2, 962537, Note_on_c, 0, 53, 52
2, 962585, Note_on_c, 0, 72, 0
2, 962601, Note_on_c, 0, 53, 0
2, 962641, Note_on_c, 0, 57, 60
2, 962649, Note_on_c, 0, 75, 72
2, 962653, Note_on_c, 0, 60, 47
2, 962665, Note_on_c, 0, 57, 0
2, 962673, Note_on_c, 0, 60, 0
2, 962721, Note_on_c, 0, 75, 0
2, 962757, Note_on_c, 0, 44, 67
2, 962757, Note_on_c, 0, 63, 58
2, 962789, Note_on_c, 0, 44, 0
2, 962801, Note_on_c, 0, 63, 0
2, 962865, Note_on_c, 0, 61, 71
2, 962873, Note_on_c, 0, 85, 80
2, 962873, Note_on_c, 0, 58, 60
2, 962885, Control_c, 0, 64, 104
2, 962893, Control_c, 0, 64, 40
2, 962905, Control_c, 0, 64, 0
2, 962941, Note_on_c, 0, 61, 0
2, 962957, Note_on_c, 0, 58, 0
2, 962961, Control_c, 0, 64, 56
2, 962969, Control_c, 0, 64, 127
2, 962973, Note_on_c, 0, 85, 0
2, 962981, Note_on_c, 0, 53, 59
2, 962985, Note_on_c, 0, 73, 69
2, 963033, Note_on_c, 0, 73, 0
2, 963049, Note_on_c, 0, 53, 0
2, 963093, Note_on_c, 0, 58, 48
2, 963097, Note_on_c, 0, 61, 46
2, 963101, Note_on_c, 0, 77, 84
2, 963121, Note_on_c, 0, 58, 0
2, 963133, Note_on_c, 0, 61, 0
2, 963189, Note_on_c, 0, 77, 0
2, 963201, Note_on_c, 0, 44, 63
2, 963209, Note_on_c, 0, 65, 71
2, 963237, Note_on_c, 0, 65, 0
2, 963241, Note_on_c, 0, 44, 0
2, 963317, Note_on_c, 0, 61, 64
2, 963317, Control_c, 0, 64, 56
2, 963325, Note_on_c, 0, 85, 84
2, 963329, Note_on_c, 0, 58, 54
2, 963329, Control_c, 0, 64, 0
2, 963353, Note_on_c, 0, 58, 0
2, 963365, Note_on_c, 0, 61, 0
2, 963385, Control_c, 0, 64, 88
2, 963393, Control_c, 0, 64, 127
2, 963405, Note_on_c, 0, 85, 0
2, 963429, Note_on_c, 0, 73, 69
2, 963433, Note_on_c, 0, 54, 57
2, 963489, Note_on_c, 0, 73, 0
2, 963505, Note_on_c, 0, 54, 0
2, 963545, Note_on_c, 0, 76, 82
2, 963545, Note_on_c, 0, 58, 50
2, 963545, Note_on_c, 0, 61, 51
2, 963577, Note_on_c, 0, 58, 0
2, 963585, Note_on_c, 0, 61, 0
2, 963601, Note_on_c, 0, 76, 0
2, 963657, Note_on_c, 0, 64, 66
2, 963657, Note_on_c, 0, 44, 61
2, 963681, Note_on_c, 0, 64, 0
2, 963693, Note_on_c, 0, 44, 0
2, 963769, Note_on_c, 0, 85, 82
2, 963769, Note_on_c, 0, 61, 62
2, 963769, Control_c, 0, 64, 104
2, 963781, Note_on_c, 0, 58, 44
2, 963781, Control_c, 0, 64, 40
2, 963789, Control_c, 0, 64, 0
2, 963801, Note_on_c, 0, 58, 0
2, 963821, Note_on_c, 0, 61, 0
2, 963845, Control_c, 0, 64, 88
2, 963849, Note_on_c, 0, 85, 0
2, 963857, Control_c, 0, 64, 127
2, 963873, Note_on_c, 0, 73, 63
2, 963889, Note_on_c, 0, 55, 61
2, 963933, Note_on_c, 0, 73, 0
2, 963941, Note_on_c, 0, 55, 0
2, 963989, Note_on_c, 0, 58, 54
2, 963993, Note_on_c, 0, 61, 49
2, 963993, Note_on_c, 0, 75, 71
2, 964025, Note_on_c, 0, 61, 0
2, 964025, Note_on_c, 0, 58, 0
2, 964053, Note_on_c, 0, 75, 0
2, 964085, Note_on_c, 0, 63, 64
2, 964097, Note_on_c, 0, 44, 64
2, 964109, Note_on_c, 0, 63, 0
2, 964121, Note_on_c, 0, 44, 0
2, 964205, Note_on_c, 0, 61, 60
2, 964213, Control_c, 0, 64, 88
2, 964217, Note_on_c, 0, 84, 76
2, 964217, Note_on_c, 0, 58, 51
2, 964225, Control_c, 0, 64, 24
2, 964233, Control_c, 0, 64, 0
2, 964261, Note_on_c, 0, 61, 0
2, 964281, Note_on_c, 0, 58, 0
2, 964297, Control_c, 0, 64, 56
2, 964309, Control_c, 0, 64, 104
2, 964317, Note_on_c, 0, 84, 0
2, 964317, Control_c, 0, 64, 127
2, 964325, Note_on_c, 0, 72, 67
2, 964329, Note_on_c, 0, 56, 52
2, 964393, Note_on_c, 0, 72, 0
2, 964405, Note_on_c, 0, 56, 0
2, 964441, Note_on_c, 0, 61, 46
2, 964441, Note_on_c, 0, 58, 43
2, 964445, Note_on_c, 0, 82, 71
2, 964461, Note_on_c, 0, 58, 0
2, 964481, Note_on_c, 0, 61, 0
2, 964497, Control_c, 0, 64, 104
2, 964505, Control_c, 0, 64, 40
2, 964517, Control_c, 0, 64, 0
2, 964521, Note_on_c, 0, 82, 0
2, 964549, Note_on_c, 0, 70, 69
2, 964553, Note_on_c, 0, 44, 44
2, 964569, Note_on_c, 0, 44, 0
2, 964573, Control_c, 0, 64, 40
2, 964581, Control_c, 0, 64, 72
2, 964589, Control_c, 0, 64, 88
2, 964593, Note_on_c, 0, 70, 0
2, 964621, Control_c, 0, 64, 56
2, 964629, Control_c, 0, 64, 24
2, 964637, Control_c, 0, 64, 0
2, 964661, Note_on_c, 0, 60, 56
2, 964661, Note_on_c, 0, 84, 82
2, 964661, Note_on_c, 0, 56, 49
2, 964685, Control_c, 0, 64, 40
2, 964705, Note_on_c, 0, 56, 0
2, 964713, Note_on_c, 0, 60, 0
2, 964721, Control_c, 0, 64, 0
2, 964729, Note_on_c, 0, 84, 0
2, 964769, Note_on_c, 0, 72, 72
2, 964777, Note_on_c, 0, 48, 66
2, 964777, Control_c, 0, 64, 24
2, 964821, Note_on_c, 0, 48, 0
2, 964825, Control_c, 0, 64, 0
2, 964833, Note_on_c, 0, 72, 0
2, 964885, Note_on_c, 0, 80, 81
2, 964889, Note_on_c, 0, 56, 47
2, 964893, Note_on_c, 0, 60, 37
2, 964893, Control_c, 0, 64, 24
2, 964921, Note_on_c, 0, 60, 0
2, 964933, Note_on_c, 0, 56, 0
2, 964949, Control_c, 0, 64, 0
2, 964969, Note_on_c, 0, 80, 0
2, 964985, Control_c, 0, 64, 24
2, 964997, Control_c, 0, 64, 40
2, 965001, Note_on_c, 0, 68, 65
2, 965005, Note_on_c, 0, 51, 55
2, 965005, Control_c, 0, 64, 56
2, 965053, Control_c, 0, 64, 0
2, 965061, Note_on_c, 0, 51, 0
2, 965073, Note_on_c, 0, 68, 0
2, 965101, Control_c, 0, 64, 40
2, 965113, Note_on_c, 0, 79, 78
2, 965113, Note_on_c, 0, 58, 46
2, 965117, Note_on_c, 0, 55, 62
2, 965137, Note_on_c, 0, 55, 0
2, 965149, Control_c, 0, 64, 0
2, 965169, Note_on_c, 0, 58, 0
2, 965217, Note_on_c, 0, 67, 69
2, 965221, Control_c, 0, 64, 40
2, 965229, Note_on_c, 0, 52, 63
2, 965253, Note_on_c, 0, 67, 0
2, 965261, Control_c, 0, 64, 0
2, 965269, Note_on_c, 0, 79, 0
2, 965285, Note_on_c, 0, 52, 0
2, 965317, Control_c, 0, 64, 40
2, 965325, Control_c, 0, 64, 56
2, 965333, Note_on_c, 0, 61, 58
2, 965337, Control_c, 0, 64, 72
2, 965345, Note_on_c, 0, 82, 79
2, 965345, Note_on_c, 0, 58, 39
2, 965345, Control_c, 0, 64, 88
2, 965393, Note_on_c, 0, 58, 0
2, 965401, Control_c, 0, 64, 0
2, 965405, Note_on_c, 0, 61, 0
2, 965429, Note_on_c, 0, 82, 0
2, 965449, Note_on_c, 0, 53, 62
2, 965453, Note_on_c, 0, 70, 71
2, 965457, Control_c, 0, 64, 24
2, 965469, Control_c, 0, 64, 72
2, 965477, Control_c, 0, 64, 88
2, 965505, Control_c, 0, 64, 0
2, 965529, Note_on_c, 0, 70, 0
2, 965545, Note_on_c, 0, 53, 0
2, 965561, Note_on_c, 0, 80, 77
2, 965565, Note_on_c, 0, 60, 54
2, 965565, Note_on_c, 0, 56, 48
2, 965581, Control_c, 0, 64, 56
2, 965585, Note_on_c, 0, 60, 0
2, 965589, Control_c, 0, 64, 88
2, 965593, Note_on_c, 0, 56, 0
2, 965601, Control_c, 0, 64, 72
2, 965609, Control_c, 0, 64, 24
2, 965617, Control_c, 0, 64, 0
2, 965653, Note_on_c, 0, 80, 0
2, 965669, Note_on_c, 0, 46, 65
2, 965673, Note_on_c, 0, 68, 69
2, 965685, Control_c, 0, 64, 40
2, 965709, Note_on_c, 0, 46, 0
2, 965713, Control_c, 0, 64, 0
2, 965749, Note_on_c, 0, 68, 0
2, 965777, Note_on_c, 0, 61, 55
2, 965781, Note_on_c, 0, 79, 80
2, 965785, Note_on_c, 0, 58, 42
2, 965785, Control_c, 0, 64, 24
2, 965809, Note_on_c, 0, 58, 0
2, 965821, Note_on_c, 0, 61, 0
2, 965833, Control_c, 0, 64, 0
2, 965853, Note_on_c, 0, 79, 0
2, 965869, Control_c, 0, 64, 24
2, 965877, Control_c, 0, 64, 40
2, 965885, Note_on_c, 0, 67, 60
2, 965889, Note_on_c, 0, 48, 66
2, 965889, Control_c, 0, 64, 72
2, 965905, Note_on_c, 0, 48, 0
2, 965933, Control_c, 0, 64, 40
2, 965937, Note_on_c, 0, 67, 0
2, 965945, Control_c, 0, 64, 24
2, 965957, Control_c, 0, 64, 0
2, 965965, Control_c, 0, 64, 24
2, 965973, Control_c, 0, 64, 40
2, 965985, Control_c, 0, 64, 56
2, 965989, Note_on_c, 0, 77, 86
2, 965993, Note_on_c, 0, 56, 48
2, 965993, Note_on_c, 0, 60, 50
2, 965993, Control_c, 0, 64, 72
2, 966029, Control_c, 0, 64, 0
2, 966033, Note_on_c, 0, 56, 0
2, 966037, Note_on_c, 0, 60, 0
2, 966073, Note_on_c, 0, 77, 0
2, 966077, Control_c, 0, 64, 24
2, 966089, Control_c, 0, 64, 40
2, 966097, Control_c, 0, 64, 56
2, 966101, Note_on_c, 0, 65, 59
2, 966105, Control_c, 0, 64, 72
2, 966113, Note_on_c, 0, 48, 39
2, 966133, Control_c, 0, 64, 24
2, 966145, Control_c, 0, 64, 0
2, 966153, Note_on_c, 0, 48, 0
2, 966161, Note_on_c, 0, 65, 0
2, 966201, Control_c, 0, 64, 24
2, 966209, Note_on_c, 0, 76, 77
2, 966209, Control_c, 0, 64, 56
2, 966213, Note_on_c, 0, 58, 46
2, 966221, Note_on_c, 0, 55, 52
2, 966237, Note_on_c, 0, 55, 0
2, 966237, Control_c, 0, 64, 0
2, 966261, Note_on_c, 0, 58, 0
2, 966305, Control_c, 0, 64, 40
2, 966313, Note_on_c, 0, 64, 72
2, 966313, Control_c, 0, 64, 72
2, 966321, Control_c, 0, 64, 88
2, 966325, Note_on_c, 0, 44, 62
2, 966333, Control_c, 0, 64, 104
2, 966341, Control_c, 0, 64, 127
2, 966349, Note_on_c, 0, 64, 0
2, 966373, Note_on_c, 0, 44, 0
2, 966373, Note_on_c, 0, 76, 0
2, 966397, Control_c, 0, 64, 72
2, 966409, Control_c, 0, 64, 0
2, 966433, Note_on_c, 0, 84, 88
2, 966445, Note_on_c, 0, 60, 61
2, 966445, Control_c, 0, 64, 40
2, 966453, Note_on_c, 0, 56, 46
2, 966453, Control_c, 0, 64, 72
2, 966465, Control_c, 0, 64, 104
2, 966473, Note_on_c, 0, 56, 0
2, 966473, Note_on_c, 0, 60, 0
2, 966473, Control_c, 0, 64, 127
2, 966489, Note_on_c, 0, 84, 0
2, 966513, Control_c, 0, 64, 72
2, 966521, Control_c, 0, 64, 40
2, 966529, Control_c, 0, 64, 0
2, 966537, Note_on_c, 0, 72, 64
2, 966553, Note_on_c, 0, 48, 68
2, 966569, Control_c, 0, 64, 24
2, 966589, Note_on_c, 0, 48, 0
2, 966593, Note_on_c, 0, 72, 0
2, 966597, Control_c, 0, 64, 0
2, 966657, Note_on_c, 0, 80, 82
2, 966661, Note_on_c, 0, 60, 55
2, 966665, Note_on_c, 0, 56, 47
2, 966693, Note_on_c, 0, 56, 0
2, 966697, Note_on_c, 0, 60, 0
2, 966733, Note_on_c, 0, 80, 0
2, 966765, Control_c, 0, 64, 24
2, 966769, Note_on_c, 0, 51, 56
2, 966769, Note_on_c, 0, 68, 69
2, 966773, Control_c, 0, 64, 56
2, 966821, Note_on_c, 0, 51, 0
2, 966821, Control_c, 0, 64, 0
2, 966829, Note_on_c, 0, 68, 0
2, 966861, Control_c, 0, 64, 24
2, 966869, Control_c, 0, 64, 56
2, 966873, Note_on_c, 0, 79, 82
2, 966877, Control_c, 0, 64, 72
2, 966881, Note_on_c, 0, 58, 37
2, 966885, Note_on_c, 0, 55, 58
2, 966889, Control_c, 0, 64, 88
2, 966917, Control_c, 0, 64, 40
2, 966921, Note_on_c, 0, 55, 0
2, 966925, Control_c, 0, 64, 0
2, 966937, Note_on_c, 0, 58, 0
2, 966965, Control_c, 0, 64, 24
2, 966969, Note_on_c, 0, 79, 0
2, 966973, Control_c, 0, 64, 40
2, 966977, Note_on_c, 0, 67, 65
2, 966981, Control_c, 0, 64, 72
2, 966993, Note_on_c, 0, 79, 16
2, 966993, Note_on_c, 0, 52, 59
2, 967009, Control_c, 0, 64, 24
2, 967013, Note_on_c, 0, 67, 0
2, 967021, Control_c, 0, 64, 0
2, 967029, Note_on_c, 0, 79, 0
2, 967041, Note_on_c, 0, 52, 0
2, 967069, Control_c, 0, 64, 40
2, 967077, Control_c, 0, 64, 72
2, 967085, Control_c, 0, 64, 88
2, 967089, Note_on_c, 0, 61, 53
2, 967097, Note_on_c, 0, 82, 80
2, 967097, Note_on_c, 0, 58, 43
2, 967133, Control_c, 0, 64, 56
2, 967141, Control_c, 0, 64, 24
2, 967145, Note_on_c, 0, 61, 0
2, 967149, Note_on_c, 0, 58, 0
2, 967153, Control_c, 0, 64, 0
2, 967177, Note_on_c, 0, 82, 0
2, 967201, Note_on_c, 0, 53, 59
2, 967201, Note_on_c, 0, 70, 67
2, 967201, Control_c, 0, 64, 40
2, 967209, Control_c, 0, 64, 72
2, 967237, Control_c, 0, 64, 24
2, 967245, Control_c, 0, 64, 0
2, 967261, Note_on_c, 0, 70, 0
2, 967289, Note_on_c, 0, 53, 0
2, 967293, Control_c, 0, 64, 40
2, 967305, Note_on_c, 0, 80, 78
2, 967305, Control_c, 0, 64, 72
2, 967309, Note_on_c, 0, 56, 51
2, 967313, Note_on_c, 0, 60, 54
2, 967313, Control_c, 0, 64, 88
2, 967337, Note_on_c, 0, 60, 0
2, 967341, Control_c, 0, 64, 56
2, 967345, Note_on_c, 0, 56, 0
2, 967349, Control_c, 0, 64, 0
2, 967393, Note_on_c, 0, 80, 0
2, 967405, Control_c, 0, 64, 24
2, 967417, Control_c, 0, 64, 56
2, 967421, Note_on_c, 0, 68, 67
2, 967421, Note_on_c, 0, 46, 64
2, 967425, Control_c, 0, 64, 72
2, 967453, Control_c, 0, 64, 24
2, 967457, Note_on_c, 0, 46, 0
2, 967461, Control_c, 0, 64, 0
2, 967485, Note_on_c, 0, 68, 0
2, 967521, Control_c, 0, 64, 40
2, 967529, Control_c, 0, 64, 72
2, 967533, Note_on_c, 0, 79, 80
2, 967537, Note_on_c, 0, 61, 58
2, 967537, Note_on_c, 0, 58, 50
2, 967537, Control_c, 0, 64, 88
2, 967565, Note_on_c, 0, 58, 0
2, 967569, Note_on_c, 0, 61, 0
2, 967577, Control_c, 0, 64, 0
2, 967609, Note_on_c, 0, 79, 0
2, 967633, Control_c, 0, 64, 40
2, 967641, Note_on_c, 0, 48, 64
2, 967641, Note_on_c, 0, 67, 66
2, 967641, Control_c, 0, 64, 56
2, 967653, Control_c, 0, 64, 72
2, 967681, Control_c, 0, 64, 24
2, 967689, Note_on_c, 0, 48, 0
2, 967689, Control_c, 0, 64, 0
2, 967713, Note_on_c, 0, 67, 0
2, 967737, Control_c, 0, 64, 40
2, 967745, Control_c, 0, 64, 72
2, 967749, Note_on_c, 0, 77, 78
2, 967753, Note_on_c, 0, 60, 60
2, 967753, Note_on_c, 0, 56, 50
2, 967757, Control_c, 0, 64, 88
2, 967773, Note_on_c, 0, 56, 0
2, 967781, Note_on_c, 0, 60, 0
2, 967793, Control_c, 0, 64, 56
2, 967801, Control_c, 0, 64, 0
2, 967829, Note_on_c, 0, 77, 0
2, 967849, Control_c, 0, 64, 24
2, 967857, Note_on_c, 0, 65, 62
2, 967857, Control_c, 0, 64, 56
2, 967865, Note_on_c, 0, 48, 55
2, 967869, Control_c, 0, 64, 88
2, 967889, Note_on_c, 0, 48, 0
2, 967897, Control_c, 0, 64, 56
2, 967905, Control_c, 0, 64, 0
2, 967937, Note_on_c, 0, 65, 0
2, 967961, Control_c, 0, 64, 24
2, 967969, Note_on_c, 0, 76, 77
2, 967973, Control_c, 0, 64, 56
2, 967977, Note_on_c, 0, 58, 39
2, 967981, Note_on_c, 0, 55, 44
2, 967981, Control_c, 0, 64, 72
2, 968001, Note_on_c, 0, 55, 0
2, 968005, Note_on_c, 0, 58, 0
2, 968009, Control_c, 0, 64, 0
2, 968077, Control_c, 0, 64, 24
2, 968081, Note_on_c, 0, 64, 73
2, 968085, Control_c, 0, 64, 40
2, 968093, Control_c, 0, 64, 56
2, 968105, Note_on_c, 0, 41, 50
2, 968117, Note_on_c, 0, 64, 0
2, 968121, Control_c, 0, 64, 40
2, 968133, Control_c, 0, 64, 24
2, 968141, Note_on_c, 0, 41, 0
2, 968145, Note_on_c, 0, 76, 0
2, 968153, Control_c, 0, 64, 0
2, 968201, Note_on_c, 0, 80, 78
2, 968205, Note_on_c, 0, 60, 53
2, 968209, Note_on_c, 0, 56, 46
2, 968209, Control_c, 0, 64, 24
2, 968225, Note_on_c, 0, 56, 0
2, 968225, Note_on_c, 0, 60, 0
2, 968245, Control_c, 0, 64, 0
2, 968281, Note_on_c, 0, 80, 0
2, 968285, Control_c, 0, 64, 24
2, 968293, Control_c, 0, 64, 56
2, 968301, Control_c, 0, 64, 72
2, 968309, Note_on_c, 0, 44, 64
2, 968313, Note_on_c, 0, 68, 71
2, 968313, Control_c, 0, 64, 88
2, 968321, Control_c, 0, 64, 104
2, 968341, Note_on_c, 0, 44, 0
2, 968357, Control_c, 0, 64, 72
2, 968369, Note_on_c, 0, 68, 0
2, 968369, Control_c, 0, 64, 40
2, 968377, Control_c, 0, 64, 0
2, 968417, Control_c, 0, 64, 24
2, 968421, Note_on_c, 0, 56, 55
2, 968421, Note_on_c, 0, 77, 82
2, 968421, Note_on_c, 0, 60, 55
2, 968425, Control_c, 0, 64, 40
2, 968433, Control_c, 0, 64, 72
2, 968445, Note_on_c, 0, 60, 0
2, 968445, Note_on_c, 0, 56, 0
2, 968445, Control_c, 0, 64, 88
2, 968473, Control_c, 0, 64, 40
2, 968481, Control_c, 0, 64, 0
2, 968489, Note_on_c, 0, 77, 0
2, 968529, Note_on_c, 0, 65, 67
2, 968533, Note_on_c, 0, 46, 57
2, 968537, Control_c, 0, 64, 40
2, 968549, Control_c, 0, 64, 72
2, 968581, Note_on_c, 0, 46, 0
2, 968585, Note_on_c, 0, 65, 0
2, 968585, Control_c, 0, 64, 40
2, 968593, Control_c, 0, 64, 0
2, 968637, Note_on_c, 0, 73, 78
2, 968641, Control_c, 0, 64, 40
2, 968645, Note_on_c, 0, 58, 34
2, 968645, Note_on_c, 0, 53, 56
2, 968653, Control_c, 0, 64, 72
2, 968661, Control_c, 0, 64, 88
2, 968669, Note_on_c, 0, 53, 0
2, 968685, Note_on_c, 0, 58, 0
2, 968689, Control_c, 0, 64, 0
2, 968717, Note_on_c, 0, 73, 0
2, 968737, Control_c, 0, 64, 24
2, 968745, Note_on_c, 0, 61, 58
2, 968745, Control_c, 0, 64, 56
2, 968753, Control_c, 0, 64, 88
2, 968757, Note_on_c, 0, 49, 50
2, 968765, Note_on_c, 0, 61, 0
2, 968765, Control_c, 0, 64, 104
2, 968793, Control_c, 0, 64, 72
2, 968801, Control_c, 0, 64, 40
2, 968809, Control_c, 0, 64, 0
2, 968833, Note_on_c, 0, 49, 0
2, 968849, Control_c, 0, 64, 40
2, 968857, Note_on_c, 0, 77, 78
2, 968857, Control_c, 0, 64, 72
2, 968865, Note_on_c, 0, 58, 38
2, 968865, Note_on_c, 0, 53, 55
2, 968869, Control_c, 0, 64, 88
2, 968877, Control_c, 0, 64, 104
2, 968881, Note_on_c, 0, 53, 0
2, 968889, Note_on_c, 0, 58, 0
2, 968905, Control_c, 0, 64, 24
2, 968913, Control_c, 0, 64, 0
2, 968953, Note_on_c, 0, 77, 0
2, 968969, Note_on_c, 0, 65, 73
2, 968969, Note_on_c, 0, 39, 55
2, 968969, Control_c, 0, 64, 24
2, 968981, Control_c, 0, 64, 72
2, 968989, Control_c, 0, 64, 88
2, 969013, Note_on_c, 0, 39, 0
2, 969013, Note_on_c, 0, 65, 0
2, 969025, Control_c, 0, 64, 0
2, 969081, Note_on_c, 0, 58, 65
2, 969085, Note_on_c, 0, 79, 82
2, 969089, Note_on_c, 0, 51, 67
2, 969105, Control_c, 0, 64, 72
2, 969113, Control_c, 0, 64, 127
2, 969125, Note_on_c, 0, 51, 0
2, 969125, Note_on_c, 0, 58, 0
2, 969149, Control_c, 0, 64, 24
2, 969161, Note_on_c, 0, 79, 0
2, 969161, Control_c, 0, 64, 0
2, 969193, Note_on_c, 0, 67, 66
2, 969197, Note_on_c, 0, 43, 57
2, 969205, Control_c, 0, 64, 40
2, 969217, Control_c, 0, 64, 72
2, 969225, Control_c, 0, 64, 88
2, 969229, Note_on_c, 0, 43, 0
2, 969237, Control_c, 0, 64, 72
2, 969245, Note_on_c, 0, 67, 0
2, 969245, Control_c, 0, 64, 0
2, 969305, Note_on_c, 0, 75, 79
2, 969305, Note_on_c, 0, 58, 56
2, 969313, Note_on_c, 0, 51, 57
2, 969313, Control_c, 0, 64, 56
2, 969321, Control_c, 0, 64, 88
2, 969329, Note_on_c, 0, 51, 0
2, 969345, Note_on_c, 0, 58, 0
2, 969369, Control_c, 0, 64, 0
2, 969373, Note_on_c, 0, 75, 0
2, 969413, Note_on_c, 0, 44, 59
2, 969413, Note_on_c, 0, 63, 61
2, 969413, Control_c, 0, 64, 40
2, 969425, Control_c, 0, 64, 72
2, 969433, Control_c, 0, 64, 104
2, 969441, Control_c, 0, 64, 127
2, 969461, Note_on_c, 0, 44, 0
2, 969469, Note_on_c, 0, 63, 0
2, 969473, Control_c, 0, 64, 40
2, 969481, Control_c, 0, 64, 0
2, 969521, Note_on_c, 0, 56, 53
2, 969521, Note_on_c, 0, 72, 78
2, 969529, Note_on_c, 0, 51, 50
2, 969529, Control_c, 0, 64, 40
2, 969537, Control_c, 0, 64, 72
2, 969565, Note_on_c, 0, 56, 0
2, 969565, Control_c, 0, 64, 0
2, 969573, Note_on_c, 0, 51, 0
2, 969601, Note_on_c, 0, 72, 0
2, 969621, Control_c, 0, 64, 24
2, 969633, Note_on_c, 0, 60, 62
2, 969633, Note_on_c, 0, 48, 56
2, 969633, Control_c, 0, 64, 56
2, 969641, Control_c, 0, 64, 72
2, 969649, Control_c, 0, 64, 56
2, 969657, Note_on_c, 0, 60, 0
2, 969661, Control_c, 0, 64, 24
2, 969669, Control_c, 0, 64, 0
2, 969689, Note_on_c, 0, 48, 0
2, 969725, Control_c, 0, 64, 24
2, 969737, Control_c, 0, 64, 56
2, 969741, Note_on_c, 0, 56, 58
2, 969745, Note_on_c, 0, 51, 53
2, 969745, Control_c, 0, 64, 88
2, 969749, Note_on_c, 0, 75, 81
2, 969753, Control_c, 0, 64, 104
2, 969761, Note_on_c, 0, 56, 0
2, 969765, Note_on_c, 0, 51, 0
2, 969793, Control_c, 0, 64, 24
2, 969801, Control_c, 0, 64, 0
2, 969813, Note_on_c, 0, 75, 0
2, 969845, Note_on_c, 0, 37, 70
2, 969853, Note_on_c, 0, 63, 59
2, 969857, Control_c, 0, 64, 24
2, 969865, Control_c, 0, 64, 56
2, 969877, Control_c, 0, 64, 88
2, 969881, Note_on_c, 0, 37, 0
2, 969885, Control_c, 0, 64, 104
2, 969897, Control_c, 0, 64, 127
2, 969905, Note_on_c, 0, 63, 0
2, 969921, Control_c, 0, 64, 56
2, 969933, Control_c, 0, 64, 0
2, 969969, Note_on_c, 0, 77, 79
2, 969969, Note_on_c, 0, 49, 65
2, 969969, Control_c, 0, 64, 24
2, 969973, Note_on_c, 0, 53, 56
2, 969981, Control_c, 0, 64, 40
2, 969989, Control_c, 0, 64, 56
2, 969993, Note_on_c, 0, 53, 0
2, 969997, Note_on_c, 0, 49, 0
2, 970001, Control_c, 0, 64, 72
2, 970009, Control_c, 0, 64, 88
2, 970037, Note_on_c, 0, 77, 0
2, 970037, Control_c, 0, 64, 24
2, 970045, Control_c, 0, 64, 0
2, 970077, Note_on_c, 0, 65, 63
2, 970085, Note_on_c, 0, 41, 61
2, 970109, Note_on_c, 0, 41, 0
2, 970113, Control_c, 0, 64, 24
2, 970121, Control_c, 0, 64, 0
2, 970129, Note_on_c, 0, 65, 0
2, 970185, Note_on_c, 0, 73, 74
2, 970197, Note_on_c, 0, 49, 60
2, 970201, Note_on_c, 0, 53, 53
2, 970205, Control_c, 0, 64, 40
2, 970217, Control_c, 0, 64, 56
2, 970225, Note_on_c, 0, 53, 0
2, 970233, Note_on_c, 0, 49, 0
2, 970261, Control_c, 0, 64, 0
2, 970281, Note_on_c, 0, 73, 0
2, 970305, Note_on_c, 0, 61, 62
2, 970309, Note_on_c, 0, 43, 70
2, 970353, Note_on_c, 0, 43, 0
2, 970361, Note_on_c, 0, 61, 0
2, 970417, Note_on_c, 0, 70, 69
2, 970421, Note_on_c, 0, 49, 62
2, 970421, Note_on_c, 0, 53, 63
2, 970441, Note_on_c, 0, 53, 0
2, 970441, Note_on_c, 0, 49, 0
2, 970441, Control_c, 0, 64, 24
2, 970453, Control_c, 0, 64, 0
2, 970489, Note_on_c, 0, 70, 0
2, 970537, Control_c, 0, 64, 40
2, 970541, Note_on_c, 0, 58, 67
2, 970545, Note_on_c, 0, 36, 45
2, 970545, Control_c, 0, 64, 56
2, 970585, Control_c, 0, 64, 0
2, 970589, Note_on_c, 0, 58, 0
2, 970593, Note_on_c, 0, 36, 0
2, 970641, Control_c, 0, 64, 40
2, 970645, Note_on_c, 0, 48, 60
2, 970645, Note_on_c, 0, 52, 49
2, 970645, Note_on_c, 0, 72, 79
2, 970649, Control_c, 0, 64, 56
2, 970657, Control_c, 0, 64, 72
2, 970661, Note_on_c, 0, 48, 0
2, 970669, Note_on_c, 0, 52, 0
2, 970685, Control_c, 0, 64, 88
2, 970713, Note_on_c, 0, 72, 0
2, 970725, Control_c, 0, 64, 72
2, 970733, Control_c, 0, 64, 88
2, 970753, Note_on_c, 0, 41, 60
2, 970753, Note_on_c, 0, 60, 67
2, 970773, Control_c, 0, 64, 104
2, 970801, Control_c, 0, 64, 56
2, 970809, Control_c, 0, 64, 0
2, 970813, Note_on_c, 0, 60, 0
2, 970813, Note_on_c, 0, 41, 0
2, 970869, Note_on_c, 0, 48, 70
2, 970873, Note_on_c, 0, 68, 69
2, 970877, Note_on_c, 0, 53, 45
2, 970877, Control_c, 0, 64, 24
2, 970885, Note_on_c, 0, 48, 0
2, 970889, Control_c, 0, 64, 40
2, 970897, Note_on_c, 0, 53, 0
2, 970905, Control_c, 0, 64, 0
2, 970941, Note_on_c, 0, 68, 0
2, 970953, Control_c, 0, 64, 40
2, 970965, Control_c, 0, 64, 56
2, 970969, Note_on_c, 0, 56, 63
2, 970973, Control_c, 0, 64, 72
2, 970981, Note_on_c, 0, 36, 62
2, 970981, Control_c, 0, 64, 88
2, 970993, Control_c, 0, 64, 104
2, 970997, Note_on_c, 0, 36, 0
2, 971001, Control_c, 0, 64, 127
2, 971009, Note_on_c, 0, 56, 0
2, 971057, Control_c, 0, 64, 56
2, 971065, Control_c, 0, 64, 24
2, 971077, Control_c, 0, 64, 0
2, 971085, Note_on_c, 0, 72, 81
2, 971089, Note_on_c, 0, 53, 58
2, 971089, Note_on_c, 0, 48, 58
2, 971109, Note_on_c, 0, 48, 0
2, 971113, Note_on_c, 0, 53, 0
2, 971113, Control_c, 0, 64, 24
2, 971141, Control_c, 0, 64, 0
2, 971145, Note_on_c, 0, 72, 0
2, 971189, Note_on_c, 0, 43, 60
2, 971189, Note_on_c, 0, 60, 66
2, 971197, Control_c, 0, 64, 24
2, 971209, Control_c, 0, 64, 40
2, 971237, Control_c, 0, 64, 0
2, 971245, Note_on_c, 0, 43, 0
2, 971253, Note_on_c, 0, 60, 0
2, 971293, Note_on_c, 0, 67, 74
2, 971297, Note_on_c, 0, 48, 63
2, 971301, Note_on_c, 0, 52, 47
2, 971301, Control_c, 0, 64, 24
2, 971313, Control_c, 0, 64, 56
2, 971317, Note_on_c, 0, 48, 0
2, 971321, Note_on_c, 0, 52, 0
2, 971321, Control_c, 0, 64, 72
2, 971397, Control_c, 0, 64, 88
2, 971401, Note_on_c, 0, 55, 64
2, 971409, Note_on_c, 0, 36, 62
2, 971429, Note_on_c, 0, 36, 0
2, 971433, Note_on_c, 0, 55, 0
2, 971445, Control_c, 0, 64, 104
2, 971453, Note_on_c, 0, 67, 0
2, 971481, Control_c, 0, 64, 72
2, 971489, Control_c, 0, 64, 40
2, 971501, Control_c, 0, 64, 0
2, 971529, Note_on_c, 0, 52, 41
2, 971529, Note_on_c, 0, 48, 48
2, 971529, Note_on_c, 0, 72, 70
2, 971553, Note_on_c, 0, 48, 0
2, 971553, Note_on_c, 0, 52, 0
2, 971557, Control_c, 0, 64, 40
2, 971565, Control_c, 0, 64, 56
2, 971577, Control_c, 0, 64, 72
2, 971601, Note_on_c, 0, 72, 0
2, 971613, Control_c, 0, 64, 0
2, 971645, Note_on_c, 0, 41, 66
2, 971665, Note_on_c, 0, 41, 0
2, 971773, Note_on_c, 0, 80, 86
2, 971777, Note_on_c, 0, 53, 61
2, 971777, Note_on_c, 0, 56, 54
2, 971793, Note_on_c, 0, 53, 0
2, 971813, Note_on_c, 0, 56, 0
2, 971853, Note_on_c, 0, 80, 0
2, 971889, Note_on_c, 0, 68, 71
2, 971897, Note_on_c, 0, 48, 66
2, 971913, Note_on_c, 0, 48, 0
2, 971933, Note_on_c, 0, 68, 0
2, 972009, Note_on_c, 0, 72, 83
2, 972013, Note_on_c, 0, 56, 46
2, 972013, Note_on_c, 0, 53, 58
2, 972037, Note_on_c, 0, 53, 0
2, 972053, Note_on_c, 0, 56, 0
2, 972093, Note_on_c, 0, 72, 0
2, 972121, Note_on_c, 0, 60, 69
2, 972133, Note_on_c, 0, 50, 61
2, 972177, Note_on_c, 0, 50, 0
2, 972197, Note_on_c, 0, 60, 0
2, 972241, Note_on_c, 0, 71, 80
2, 972245, Note_on_c, 0, 56, 51
2, 972249, Note_on_c, 0, 53, 48
2, 972269, Note_on_c, 0, 53, 0
2, 972293, Note_on_c, 0, 56, 0
2, 972333, Note_on_c, 0, 71, 0
2, 972357, Note_on_c, 0, 59, 70
2, 972361, Note_on_c, 0, 47, 66
2, 972397, Note_on_c, 0, 59, 0
2, 972413, Note_on_c, 0, 47, 0
2, 972469, Note_on_c, 0, 55, 62
2, 972473, Note_on_c, 0, 50, 63
2, 972481, Note_on_c, 0, 74, 81
2, 972489, Note_on_c, 0, 50, 0
2, 972489, Note_on_c, 0, 55, 0
2, 972589, Note_on_c, 0, 74, 0
2, 972589, Note_on_c, 0, 62, 70
2, 972605, Note_on_c, 0, 40, 71
2, 972629, Note_on_c, 0, 62, 0
2, 972645, Note_on_c, 0, 40, 0
2, 972721, Note_on_c, 0, 55, 67
2, 972725, Note_on_c, 0, 79, 89
2, 972725, Note_on_c, 0, 52, 66
2, 972765, Note_on_c, 0, 55, 0
2, 972769, Note_on_c, 0, 52, 0
2, 972805, Note_on_c, 0, 79, 0
2, 972837, Note_on_c, 0, 67, 70
2, 972841, Note_on_c, 0, 47, 63
2, 972881, Note_on_c, 0, 67, 0
2, 972885, Note_on_c, 0, 47, 0
2, 972961, Note_on_c, 0, 71, 81
2, 972965, Note_on_c, 0, 52, 60
2, 972969, Note_on_c, 0, 55, 54
2, 973005, Note_on_c, 0, 55, 0
2, 973005, Note_on_c, 0, 52, 0
2, 973041, Note_on_c, 0, 71, 0
2, 973085, Note_on_c, 0, 59, 59
2, 973093, Note_on_c, 0, 48, 56
2, 973121, Note_on_c, 0, 48, 0
2, 973129, Note_on_c, 0, 59, 0
2, 973197, Note_on_c, 0, 70, 77
2, 973197, Note_on_c, 0, 55, 59
2, 973197, Note_on_c, 0, 52, 65
2, 973209, Note_on_c, 0, 52, 0
2, 973221, Note_on_c, 0, 55, 0
2, 973269, Note_on_c, 0, 70, 0
2, 973313, Note_on_c, 0, 40, 63
2, 973313, Note_on_c, 0, 58, 67
2, 973349, Note_on_c, 0, 40, 0
2, 973357, Note_on_c, 0, 58, 0
2, 973433, Note_on_c, 0, 72, 85
2, 973437, Note_on_c, 0, 48, 59
2, 973445, Note_on_c, 0, 55, 24
2, 973465, Note_on_c, 0, 55, 0
2, 973465, Note_on_c, 0, 48, 0
2, 973497, Note_on_c, 0, 72, 0
2, 973549, Note_on_c, 0, 41, 53
2, 973549, Note_on_c, 0, 60, 66
2, 973589, Note_on_c, 0, 41, 0
2, 973605, Note_on_c, 0, 60, 0
2, 973661, Note_on_c, 0, 68, 75
2, 973665, Note_on_c, 0, 53, 51
2, 973673, Note_on_c, 0, 48, 52
2, 973697, Note_on_c, 0, 53, 0
2, 973709, Note_on_c, 0, 48, 0
2, 973737, Note_on_c, 0, 68, 0
2, 973773, Note_on_c, 0, 56, 57
2, 973773, Note_on_c, 0, 44, 52
2, 973813, Note_on_c, 0, 56, 0
2, 973833, Note_on_c, 0, 44, 0
2, 973889, Note_on_c, 0, 72, 90
2, 973889, Note_on_c, 0, 48, 68
2, 973893, Note_on_c, 0, 53, 65
2, 973917, Note_on_c, 0, 53, 0
2, 973917, Note_on_c, 0, 48, 0
2, 973989, Note_on_c, 0, 72, 0
2, 974009, Note_on_c, 0, 34, 79
2, 974009, Note_on_c, 0, 60, 79
2, 974041, Note_on_c, 0, 34, 0
2, 974057, Note_on_c, 0, 60, 0
2, 974137, Note_on_c, 0, 73, 94
2, 974141, Note_on_c, 0, 49, 64
2, 974145, Note_on_c, 0, 53, 55
2, 974173, Note_on_c, 0, 53, 0
2, 974173, Note_on_c, 0, 49, 0
2, 974229, Note_on_c, 0, 73, 0
2, 974253, Note_on_c, 0, 61, 68
2, 974257, Note_on_c, 0, 43, 64
2, 974293, Note_on_c, 0, 43, 0
2, 974313, Note_on_c, 0, 61, 0
2, 974373, Note_on_c, 0, 49, 64
2, 974377, Note_on_c, 0, 70, 78
2, 974377, Note_on_c, 0, 53, 57
2, 974397, Note_on_c, 0, 53, 0
2, 974405, Note_on_c, 0, 49, 0
2, 974465, Note_on_c, 0, 70, 0
2, 974501, Note_on_c, 0, 58, 61
2, 974505, Note_on_c, 0, 36, 48
2, 974545, Note_on_c, 0, 36, 0
2, 974569, Note_on_c, 0, 58, 0
2, 974609, Note_on_c, 0, 68, 71
2, 974609, Note_on_c, 0, 48, 63
2, 974609, Note_on_c, 0, 53, 54
2, 974633, Note_on_c, 0, 53, 0
2, 974649, Note_on_c, 0, 48, 0
2, 974693, Note_on_c, 0, 68, 0
2, 974717, Note_on_c, 0, 56, 65
2, 974721, Note_on_c, 0, 44, 55
2, 974749, Note_on_c, 0, 56, 0
2, 974773, Note_on_c, 0, 44, 0
2, 974837, Note_on_c, 0, 53, 58
2, 974837, Note_on_c, 0, 48, 54
2, 974841, Note_on_c, 0, 72, 77
2, 974853, Note_on_c, 0, 48, 0
2, 974857, Note_on_c, 0, 53, 0
2, 974917, Note_on_c, 0, 72, 0
2, 974965, Note_on_c, 0, 60, 63
2, 974965, Note_on_c, 0, 36, 60
2, 975005, Note_on_c, 0, 36, 0
2, 975013, Note_on_c, 0, 60, 0
2, 975073, Note_on_c, 0, 52, 54
2, 975077, Note_on_c, 0, 48, 57
2, 975081, Note_on_c, 0, 70, 67
2, 975097, Note_on_c, 0, 48, 0
2, 975101, Note_on_c, 0, 52, 0
2, 975161, Note_on_c, 0, 70, 0
2, 975193, Note_on_c, 0, 58, 60
2, 975193, Note_on_c, 0, 43, 52
2, 975229, Note_on_c, 0, 43, 0
2, 975233, Note_on_c, 0, 58, 0
2, 975305, Note_on_c, 0, 72, 75
2, 975305, Note_on_c, 0, 48, 59
2, 975305, Note_on_c, 0, 52, 49
2, 975329, Note_on_c, 0, 48, 0
2, 975341, Note_on_c, 0, 52, 0
2, 975369, Note_on_c, 0, 72, 0
2, 975429, Note_on_c, 0, 60, 61
2, 975429, Note_on_c, 0, 41, 56
2, 975461, Note_on_c, 0, 41, 0
2, 975489, Note_on_c, 0, 60, 0
2, 975541, Note_on_c, 0, 68, 70
2, 975541, Note_on_c, 0, 53, 50
2, 975541, Note_on_c, 0, 48, 64
2, 975573, Note_on_c, 0, 53, 0
2, 975581, Note_on_c, 0, 48, 0
2, 975621, Note_on_c, 0, 68, 0
2, 975649, Note_on_c, 0, 56, 53
2, 975665, Note_on_c, 0, 44, 50
2, 975681, Note_on_c, 0, 56, 0
2, 975713, Note_on_c, 0, 44, 0
2, 975773, Note_on_c, 0, 72, 78
2, 975773, Note_on_c, 0, 48, 67
2, 975777, Note_on_c, 0, 53, 57
2, 975805, Note_on_c, 0, 53, 0
2, 975809, Note_on_c, 0, 48, 0
2, 975861, Note_on_c, 0, 72, 0
2, 975893, Note_on_c, 0, 60, 74
2, 975901, Note_on_c, 0, 34, 71
2, 975925, Note_on_c, 0, 34, 0
2, 975933, Note_on_c, 0, 60, 0
2, 976013, Note_on_c, 0, 73, 95
2, 976021, Note_on_c, 0, 49, 69
2, 976025, Note_on_c, 0, 53, 58
2, 976045, Note_on_c, 0, 53, 0
2, 976057, Note_on_c, 0, 49, 0
2, 976113, Note_on_c, 0, 73, 0
2, 976125, Note_on_c, 0, 61, 64
2, 976129, Note_on_c, 0, 43, 64
2, 976149, Note_on_c, 0, 43, 0
2, 976181, Note_on_c, 0, 61, 0
2, 976241, Note_on_c, 0, 53, 65
2, 976241, Note_on_c, 0, 70, 75
2, 976245, Note_on_c, 0, 49, 57
2, 976265, Note_on_c, 0, 49, 0
2, 976269, Note_on_c, 0, 53, 0
2, 976337, Note_on_c, 0, 70, 0
2, 976357, Note_on_c, 0, 36, 70
2, 976365, Note_on_c, 0, 58, 65
2, 976377, Note_on_c, 0, 36, 0
2, 976429, Note_on_c, 0, 58, 0
2, 976477, Note_on_c, 0, 48, 69
2, 976477, Note_on_c, 0, 53, 52
2, 976481, Note_on_c, 0, 68, 69
2, 976501, Note_on_c, 0, 53, 0
2, 976513, Note_on_c, 0, 48, 0
2, 976557, Note_on_c, 0, 68, 0
2, 976593, Note_on_c, 0, 56, 49
2, 976601, Note_on_c, 0, 44, 54
2, 976605, Note_on_c, 0, 56, 0
2, 976665, Note_on_c, 0, 44, 0
2, 976705, Note_on_c, 0, 72, 79
2, 976705, Note_on_c, 0, 48, 64
2, 976709, Note_on_c, 0, 53, 54
2, 976725, Note_on_c, 0, 48, 0
2, 976729, Note_on_c, 0, 53, 0
2, 976789, Note_on_c, 0, 72, 0
2, 976821, Note_on_c, 0, 36, 47
2, 976837, Note_on_c, 0, 60, 55
2, 976861, Note_on_c, 0, 36, 0
2, 976881, Note_on_c, 0, 60, 0
2, 976945, Note_on_c, 0, 48, 67
2, 976945, Note_on_c, 0, 52, 51
2, 976949, Note_on_c, 0, 70, 70
2, 976973, Note_on_c, 0, 52, 0
2, 976973, Note_on_c, 0, 48, 0
2, 977021, Note_on_c, 0, 70, 0
2, 977065, Note_on_c, 0, 43, 55
2, 977065, Note_on_c, 0, 58, 61
2, 977105, Note_on_c, 0, 58, 0
2, 977125, Note_on_c, 0, 43, 0
2, 977177, Note_on_c, 0, 48, 53
2, 977177, Note_on_c, 0, 72, 73
2, 977181, Note_on_c, 0, 52, 50
2, 977201, Note_on_c, 0, 48, 0
2, 977225, Note_on_c, 0, 52, 0
2, 977241, Note_on_c, 0, 72, 0
2, 977293, Note_on_c, 0, 60, 52
2, 977293, Note_on_c, 0, 41, 53
2, 977353, Note_on_c, 0, 60, 0
2, 977361, Note_on_c, 0, 41, 0
2, 977401, Note_on_c, 0, 68, 67
2, 977401, Note_on_c, 0, 48, 61
2, 977409, Note_on_c, 0, 53, 45
2, 977417, Note_on_c, 0, 48, 0
2, 977465, Note_on_c, 0, 53, 0
2, 977485, Note_on_c, 0, 68, 0
2, 977509, Note_on_c, 0, 49, 64
2, 977517, Note_on_c, 0, 56, 49
2, 977541, Note_on_c, 0, 56, 0
2, 977601, Note_on_c, 0, 49, 0
2, 977625, Note_on_c, 0, 73, 80
2, 977637, Note_on_c, 0, 56, 50
2, 977641, Note_on_c, 0, 53, 49
2, 977673, Note_on_c, 0, 73, 0
2, 977717, Note_on_c, 0, 56, 0
2, 977721, Note_on_c, 0, 53, 0
2, 977733, Note_on_c, 0, 61, 61
2, 977757, Note_on_c, 0, 48, 55
2, 977785, Note_on_c, 0, 61, 0
2, 977829, Note_on_c, 0, 48, 0
2, 977857, Note_on_c, 0, 56, 44
2, 977861, Note_on_c, 0, 72, 77
2, 977865, Note_on_c, 0, 53, 56
2, 977901, Note_on_c, 0, 72, 0
2, 977949, Note_on_c, 0, 53, 0
2, 977949, Note_on_c, 0, 56, 0
2, 977973, Note_on_c, 0, 60, 63
2, 977981, Note_on_c, 0, 47, 57
2, 978029, Note_on_c, 0, 60, 0
2, 978053, Note_on_c, 0, 47, 0
2, 978081, Note_on_c, 0, 71, 74
2, 978089, Note_on_c, 0, 56, 43
2, 978097, Note_on_c, 0, 53, 50
2, 978153, Note_on_c, 0, 53, 0
2, 978165, Note_on_c, 0, 71, 0
2, 978173, Note_on_c, 0, 56, 0
2, 978197, Note_on_c, 0, 59, 62
2, 978209, Note_on_c, 0, 48, 59
2, 978253, Note_on_c, 0, 59, 0
2, 978289, Note_on_c, 0, 48, 0
2, 978321, Note_on_c, 0, 72, 81
2, 978329, Note_on_c, 0, 56, 32
2, 978333, Note_on_c, 0, 53, 56
2, 978389, Note_on_c, 0, 53, 0
2, 978405, Note_on_c, 0, 72, 0
2, 978413, Note_on_c, 0, 56, 0
2, 978441, Note_on_c, 0, 47, 58
2, 978441, Note_on_c, 0, 60, 60
2, 978497, Note_on_c, 0, 47, 0
2, 978505, Note_on_c, 0, 60, 0
2, 978553, Note_on_c, 0, 56, 38
2, 978553, Note_on_c, 0, 70, 69
2, 978557, Note_on_c, 0, 53, 57
2, 978617, Note_on_c, 0, 56, 0
2, 978625, Note_on_c, 0, 53, 0
2, 978665, Note_on_c, 0, 46, 60
2, 978673, Note_on_c, 0, 58, 57
2, 978725, Note_on_c, 0, 70, 0
2, 978745, Note_on_c, 0, 58, 0
2, 978757, Note_on_c, 0, 46, 0
2, 978781, Note_on_c, 0, 68, 73
2, 978785, Note_on_c, 0, 53, 59
2, 978785, Note_on_c, 0, 56, 42
2, 978821, Note_on_c, 0, 56, 0
2, 978845, Note_on_c, 0, 53, 0
2, 978873, Note_on_c, 0, 68, 0
2, 978893, Note_on_c, 0, 44, 61
2, 978901, Note_on_c, 0, 56, 67
2, 978953, Note_on_c, 0, 56, 0
2, 978961, Note_on_c, 0, 44, 0
2, 979005, Note_on_c, 0, 67, 75
2, 979009, Note_on_c, 0, 56, 47
2, 979009, Note_on_c, 0, 53, 61
2, 979065, Note_on_c, 0, 56, 0
2, 979069, Note_on_c, 0, 53, 0
2, 979097, Note_on_c, 0, 67, 0
2, 979121, Note_on_c, 0, 55, 71
2, 979121, Note_on_c, 0, 43, 66
2, 979165, Note_on_c, 0, 43, 0
2, 979193, Note_on_c, 0, 55, 0
2, 979237, Note_on_c, 0, 53, 66
2, 979241, Note_on_c, 0, 65, 78
2, 979245, Note_on_c, 0, 56, 47
2, 979253, Note_on_c, 0, 53, 0
2, 979285, Note_on_c, 0, 56, 0
2, 979333, Note_on_c, 0, 65, 0
2, 979341, Note_on_c, 0, 41, 66
2, 979357, Note_on_c, 0, 53, 72
2, 979393, Note_on_c, 0, 41, 0
2, 979401, Note_on_c, 0, 53, 0
2, 979469, Note_on_c, 0, 56, 64
2, 979469, Note_on_c, 0, 65, 82
2, 979473, Note_on_c, 0, 49, 65
2, 979513, Note_on_c, 0, 49, 0
2, 979525, Note_on_c, 0, 56, 0
2, 979569, Note_on_c, 0, 65, 0
2, 979577, Note_on_c, 0, 41, 59
2, 979585, Note_on_c, 0, 61, 73
2, 979629, Note_on_c, 0, 41, 0
2, 979681, Note_on_c, 0, 61, 0
2, 979701, Note_on_c, 0, 56, 56
2, 979701, Note_on_c, 0, 65, 76
2, 979701, Note_on_c, 0, 48, 70
2, 979749, Note_on_c, 0, 56, 0
2, 979753, Note_on_c, 0, 48, 0
2, 979785, Note_on_c, 0, 65, 0
2, 979817, Note_on_c, 0, 60, 78
2, 979817, Note_on_c, 0, 41, 50
2, 979873, Note_on_c, 0, 41, 0
2, 979909, Note_on_c, 0, 60, 0
2, 979925, Note_on_c, 0, 65, 73
2, 979933, Note_on_c, 0, 56, 56
2, 979937, Note_on_c, 0, 47, 65
2, 979985, Note_on_c, 0, 56, 0
2, 979989, Note_on_c, 0, 47, 0
2, 980013, Note_on_c, 0, 65, 0
2, 980037, Note_on_c, 0, 59, 81
2, 980049, Note_on_c, 0, 41, 58
2, 980101, Note_on_c, 0, 41, 0
2, 980157, Note_on_c, 0, 59, 0
2, 980157, Note_on_c, 0, 65, 77
2, 980165, Note_on_c, 0, 56, 53
2, 980181, Note_on_c, 0, 48, 55
2, 980201, Note_on_c, 0, 48, 0
2, 980217, Note_on_c, 0, 56, 0
2, 980245, Note_on_c, 0, 65, 0
2, 980273, Note_on_c, 0, 60, 81
2, 980285, Note_on_c, 0, 41, 50
2, 980333, Note_on_c, 0, 41, 0
2, 980381, Note_on_c, 0, 65, 73
2, 980389, Note_on_c, 0, 56, 53
2, 980397, Note_on_c, 0, 60, 0
2, 980397, Note_on_c, 0, 46, 54
2, 980441, Note_on_c, 0, 56, 0
2, 980461, Note_on_c, 0, 46, 0
2, 980465, Note_on_c, 0, 65, 0
2, 980505, Note_on_c, 0, 58, 80
2, 980517, Note_on_c, 0, 41, 44
2, 980549, Note_on_c, 0, 41, 0
2, 980613, Note_on_c, 0, 65, 72
2, 980617, Note_on_c, 0, 58, 0
2, 980625, Note_on_c, 0, 56, 59
2, 980633, Note_on_c, 0, 44, 49
2, 980673, Note_on_c, 0, 56, 0
2, 980689, Note_on_c, 0, 44, 0
2, 980701, Note_on_c, 0, 65, 0
2, 980729, Note_on_c, 0, 56, 75
2, 980741, Note_on_c, 0, 41, 49
2, 980793, Note_on_c, 0, 41, 0
2, 980817, Note_on_c, 0, 56, 0
2, 980837, Note_on_c, 0, 65, 71
2, 980857, Note_on_c, 0, 56, 53
2, 980861, Note_on_c, 0, 44, 49
2, 980909, Note_on_c, 0, 56, 0
2, 980933, Note_on_c, 0, 44, 0
2, 980961, Note_on_c, 0, 55, 72
2, 980973, Note_on_c, 0, 41, 59
2, 981025, Note_on_c, 0, 55, 0
2, 981033, Note_on_c, 0, 41, 0
2, 981053, Note_on_c, 0, 65, 0
2, 981089, Note_on_c, 0, 53, 75
2, 981089, Note_on_c, 0, 56, 80
2, 981101, Note_on_c, 0, 41, 67
2, 981365, Control_c, 0, 64, 40
2, 981377, Control_c, 0, 64, 56
2, 981385, Control_c, 0, 64, 88
2, 981397, Control_c, 0, 64, 104
2, 981405, Control_c, 0, 64, 127
2, 981521, Note_on_c, 0, 56, 0
2, 981529, Note_on_c, 0, 53, 0
2, 981533, Note_on_c, 0, 41, 0
2, 981665, Note_on_c, 0, 56, 85
2, 981677, Note_on_c, 0, 53, 67
2, 981681, Note_on_c, 0, 41, 58
2, 981681, Note_on_c, 0, 48, 68
2, 981697, Note_on_c, 0, 53, 0
2, 981733, Control_c, 0, 64, 104
2, 981745, Control_c, 0, 64, 72
2, 981753, Control_c, 0, 64, 40
2, 981761, Control_c, 0, 64, 0
2, 981857, Control_c, 0, 64, 72
2, 981869, Control_c, 0, 64, 127
2, 981937, Note_on_c, 0, 41, 0
2, 981949, Note_on_c, 0, 48, 0
2, 981977, Note_on_c, 0, 56, 0
2, 982249, Note_on_c, 0, 56, 89
2, 982257, Note_on_c, 0, 41, 58
2, 982257, Note_on_c, 0, 48, 66
2, 982261, Note_on_c, 0, 53, 63
2, 982281, Note_on_c, 0, 53, 0
2, 982301, Control_c, 0, 64, 88
2, 982309, Control_c, 0, 64, 0
2, 982345, Note_on_c, 0, 53, 22
2, 982393, Control_c, 0, 64, 88
2, 982405, Control_c, 0, 64, 127
2, 982441, Note_on_c, 0, 53, 0
2, 982441, Note_on_c, 0, 41, 0
2, 982453, Note_on_c, 0, 48, 0
2, 982481, Note_on_c, 0, 56, 0
2, 982849, Note_on_c, 0, 56, 91
2, 982865, Note_on_c, 0, 53, 64
2, 982869, Note_on_c, 0, 48, 70
2, 982869, Note_on_c, 0, 41, 62
2, 982881, Note_on_c, 0, 53, 0
2, 982913, Control_c, 0, 64, 88
2, 982921, Control_c, 0, 64, 0
2, 982929, Note_on_c, 0, 53, 24
2, 982997, Control_c, 0, 64, 40
2, 983005, Control_c, 0, 64, 127
2, 983029, Note_on_c, 0, 53, 0
2, 983057, Note_on_c, 0, 41, 0
2, 983065, Note_on_c, 0, 48, 0
2, 983069, Note_on_c, 0, 56, 0
2, 983689, Note_on_c, 0, 79, 66
2, 983693, Note_on_c, 0, 51, 50
2, 983693, Note_on_c, 0, 67, 47
2, 983697, Note_on_c, 0, 73, 46
2, 983697, Note_on_c, 0, 70, 40
2, 983701, Note_on_c, 0, 63, 30
2, 983701, Note_on_c, 0, 75, 50
2, 983701, Note_on_c, 0, 58, 35
2, 983705, Note_on_c, 0, 61, 39
2, 983733, Control_c, 0, 64, 104
2, 983741, Control_c, 0, 64, 40
2, 983753, Control_c, 0, 64, 0
2, 983989, Control_c, 0, 64, 72
2, 983997, Control_c, 0, 64, 127
2, 984133, Note_on_c, 0, 61, 0
2, 984137, Note_on_c, 0, 51, 0
2, 984149, Note_on_c, 0, 63, 0
2, 984153, Note_on_c, 0, 58, 0
2, 984157, Note_on_c, 0, 79, 0
2, 984165, Note_on_c, 0, 70, 0
2, 984165, Note_on_c, 0, 75, 0
2, 984169, Note_on_c, 0, 73, 0
2, 984169, Note_on_c, 0, 67, 0
2, 985005, Control_c, 0, 64, 104
2, 985013, Control_c, 0, 64, 56
2, 985025, Control_c, 0, 64, 0
2, 985729, Note_on_c, 0, 80, 68
2, 985857, Note_on_c, 0, 80, 0
2, 985877, Note_on_c, 0, 72, 72
2, 986005, Note_on_c, 0, 44, 48
2, 986021, Control_c, 0, 64, 24
2, 986033, Control_c, 0, 64, 72
2, 986049, Control_c, 0, 64, 104
2, 986065, Control_c, 0, 64, 127
2, 986081, Note_on_c, 0, 44, 0
2, 986113, Control_c, 0, 64, 88
2, 986129, Control_c, 0, 64, 56
2, 986145, Control_c, 0, 64, 0
2, 986385, Note_on_c, 0, 60, 46
2, 986397, Note_on_c, 0, 56, 42
2, 986405, Note_on_c, 0, 51, 32
2, 986449, Note_on_c, 0, 60, 0
2, 986457, Note_on_c, 0, 56, 0
2, 986469, Note_on_c, 0, 51, 0
2, 986685, Note_on_c, 0, 71, 68
2, 986685, Control_c, 0, 64, 56
2, 986689, Note_on_c, 0, 72, 0
2, 986689, Note_on_c, 0, 44, 48
2, 986701, Control_c, 0, 64, 104
2, 986713, Control_c, 0, 64, 127
2, 986725, Note_on_c, 0, 44, 0
2, 986777, Control_c, 0, 64, 104
2, 986793, Control_c, 0, 64, 72
2, 986809, Control_c, 0, 64, 56
2, 986825, Control_c, 0, 64, 24
2, 986841, Control_c, 0, 64, 0
2, 986845, Note_on_c, 0, 71, 0
2, 986845, Note_on_c, 0, 77, 81
2, 987005, Note_on_c, 0, 62, 36
2, 987009, Note_on_c, 0, 53, 41
2, 987025, Note_on_c, 0, 56, 22
2, 987045, Note_on_c, 0, 53, 0
2, 987057, Note_on_c, 0, 56, 0
2, 987065, Note_on_c, 0, 62, 0
2, 987329, Note_on_c, 0, 56, 45
2, 987345, Note_on_c, 0, 53, 46
2, 987345, Note_on_c, 0, 62, 47
2, 987385, Note_on_c, 0, 62, 0
2, 987405, Note_on_c, 0, 56, 0
2, 987421, Note_on_c, 0, 53, 0
2, 987613, Control_c, 0, 64, 56
2, 987629, Control_c, 0, 64, 104
2, 987633, Note_on_c, 0, 75, 75
2, 987633, Note_on_c, 0, 44, 58
2, 987645, Control_c, 0, 64, 127
2, 987657, Note_on_c, 0, 77, 0
2, 987673, Note_on_c, 0, 44, 0
2, 987725, Control_c, 0, 64, 88
2, 987737, Control_c, 0, 64, 72
2, 987753, Note_on_c, 0, 75, 0
2, 987753, Control_c, 0, 64, 56
2, 987769, Note_on_c, 0, 69, 72
2, 987769, Control_c, 0, 64, 24
2, 987785, Control_c, 0, 64, 0
2, 987905, Note_on_c, 0, 61, 47
2, 987909, Note_on_c, 0, 55, 47
2, 987909, Note_on_c, 0, 51, 49
2, 987945, Note_on_c, 0, 55, 0
2, 987957, Note_on_c, 0, 51, 0
2, 987957, Note_on_c, 0, 61, 0
2, 988189, Note_on_c, 0, 70, 76
2, 988209, Note_on_c, 0, 61, 49
2, 988213, Note_on_c, 0, 69, 0
2, 988213, Note_on_c, 0, 51, 54
2, 988213, Note_on_c, 0, 55, 48
2, 988245, Note_on_c, 0, 55, 0
2, 988265, Note_on_c, 0, 61, 0
2, 988289, Note_on_c, 0, 51, 0
2, 988461, Note_on_c, 0, 44, 58
2, 988473, Note_on_c, 0, 72, 74
2, 988477, Note_on_c, 0, 70, 0
2, 988513, Note_on_c, 0, 44, 0
2, 988569, Note_on_c, 0, 72, 0
2, 988585, Note_on_c, 0, 67, 69
2, 988705, Note_on_c, 0, 51, 41
2, 988717, Note_on_c, 0, 56, 36
2, 988733, Note_on_c, 0, 60, 45
2, 988769, Note_on_c, 0, 51, 0
2, 988781, Note_on_c, 0, 56, 0
2, 988789, Note_on_c, 0, 60, 0
2, 988925, Note_on_c, 0, 67, 0
2, 988953, Note_on_c, 0, 68, 73
2, 988973, Note_on_c, 0, 60, 64
2, 988973, Note_on_c, 0, 51, 62
2, 988973, Note_on_c, 0, 56, 51
2, 988997, Note_on_c, 0, 60, 0
2, 989001, Note_on_c, 0, 56, 0
2, 989021, Note_on_c, 0, 51, 0
2, 989201, Note_on_c, 0, 68, 0
2, 989217, Note_on_c, 0, 70, 77
2, 989225, Note_on_c, 0, 41, 64
2, 989257, Note_on_c, 0, 41, 0
2, 989345, Note_on_c, 0, 62, 62
2, 989437, Note_on_c, 0, 70, 0
2, 989449, Note_on_c, 0, 56, 55
2, 989457, Note_on_c, 0, 46, 58
2, 989473, Control_c, 0, 64, 24
2, 989489, Control_c, 0, 64, 56
2, 989505, Control_c, 0, 64, 72
2, 989525, Note_on_c, 0, 56, 0
2, 989537, Note_on_c, 0, 46, 0
2, 989553, Control_c, 0, 64, 40
2, 989569, Control_c, 0, 64, 0
2, 989709, Note_on_c, 0, 72, 89
2, 989713, Note_on_c, 0, 56, 58
2, 989721, Note_on_c, 0, 46, 62
2, 989721, Control_c, 0, 64, 40
2, 989737, Control_c, 0, 64, 72
2, 989741, Note_on_c, 0, 56, 0
2, 989749, Note_on_c, 0, 46, 0
2, 989753, Control_c, 0, 64, 88
2, 989769, Control_c, 0, 64, 104
2, 989813, Control_c, 0, 64, 127
2, 989877, Note_on_c, 0, 72, 0
2, 989893, Control_c, 0, 64, 40
2, 989909, Control_c, 0, 64, 0
2, 989933, Note_on_c, 0, 62, 0
2, 989949, Note_on_c, 0, 74, 87
2, 989949, Note_on_c, 0, 34, 58
2, 989993, Note_on_c, 0, 34, 0
2, 990017, Control_c, 0, 64, 72
2, 990033, Control_c, 0, 64, 127
2, 990065, Note_on_c, 0, 74, 0
2, 990081, Note_on_c, 0, 62, 58
2, 990081, Note_on_c, 0, 68, 60
2, 990177, Note_on_c, 0, 56, 60
2, 990181, Note_on_c, 0, 62, 0
2, 990189, Note_on_c, 0, 46, 57
2, 990237, Note_on_c, 0, 56, 0
2, 990249, Note_on_c, 0, 46, 0
2, 990421, Note_on_c, 0, 75, 91
2, 990437, Note_on_c, 0, 46, 64
2, 990445, Note_on_c, 0, 56, 45
2, 990465, Note_on_c, 0, 68, 0
2, 990469, Note_on_c, 0, 56, 0
2, 990489, Note_on_c, 0, 46, 0
2, 990509, Note_on_c, 0, 75, 0
2, 990637, Control_c, 0, 64, 88
2, 990649, Control_c, 0, 64, 24
2, 990669, Control_c, 0, 64, 0
2, 990689, Note_on_c, 0, 34, 48
2, 990697, Note_on_c, 0, 77, 86
2, 990745, Control_c, 0, 64, 40
2, 990753, Note_on_c, 0, 34, 0
2, 990761, Control_c, 0, 64, 104
2, 990765, Note_on_c, 0, 77, 0
2, 990773, Control_c, 0, 64, 127
2, 990825, Note_on_c, 0, 62, 66
2, 990825, Note_on_c, 0, 68, 57
2, 990889, Note_on_c, 0, 62, 0
2, 990925, Note_on_c, 0, 68, 0
2, 990961, Note_on_c, 0, 56, 57
2, 990969, Note_on_c, 0, 53, 64
2, 990993, Note_on_c, 0, 53, 0
2, 991013, Note_on_c, 0, 56, 0
2, 991221, Note_on_c, 0, 34, 58
2, 991233, Note_on_c, 0, 79, 80
2, 991289, Note_on_c, 0, 79, 0
2, 991309, Note_on_c, 0, 34, 0
2, 991425, Control_c, 0, 64, 88
2, 991441, Control_c, 0, 64, 40
2, 991457, Control_c, 0, 64, 0
2, 991501, Note_on_c, 0, 39, 58
2, 991509, Note_on_c, 0, 75, 76
2, 991549, Control_c, 0, 64, 40
2, 991565, Control_c, 0, 64, 104
2, 991573, Note_on_c, 0, 39, 0
2, 991581, Control_c, 0, 64, 127
2, 991649, Note_on_c, 0, 75, 0
2, 991673, Note_on_c, 0, 67, 54
2, 991697, Note_on_c, 0, 63, 46
2, 991733, Note_on_c, 0, 67, 0
2, 991785, Note_on_c, 0, 63, 0
2, 991845, Note_on_c, 0, 62, 47
2, 991865, Note_on_c, 0, 51, 39
2, 991869, Note_on_c, 0, 55, 41
2, 991969, Control_c, 0, 64, 72
2, 991985, Control_c, 0, 64, 0
2, 992093, Control_c, 0, 64, 24
2, 992109, Control_c, 0, 64, 72
2, 992117, Note_on_c, 0, 55, 0
2, 992121, Control_c, 0, 64, 104
2, 992137, Note_on_c, 0, 51, 0
2, 992137, Control_c, 0, 64, 127
2, 992233, Control_c, 0, 64, 88
2, 992241, Note_on_c, 0, 61, 43
2, 992249, Control_c, 0, 64, 56
2, 992253, Note_on_c, 0, 62, 0
2, 992261, Control_c, 0, 64, 24
2, 992277, Control_c, 0, 64, 0
2, 992293, Control_c, 0, 64, 24
2, 992309, Control_c, 0, 64, 56
2, 992325, Control_c, 0, 64, 88
2, 992341, Control_c, 0, 64, 104
2, 992357, Control_c, 0, 64, 127
2, 992361, Note_on_c, 0, 61, 0
2, 992493, Control_c, 0, 64, 104
2, 992509, Control_c, 0, 64, 88
2, 992525, Control_c, 0, 64, 72
2, 992557, Control_c, 0, 64, 56
2, 992573, Control_c, 0, 64, 40
2, 992633, Control_c, 0, 64, 24
2, 992649, Control_c, 0, 64, 0
2, 992669, Note_on_c, 0, 80, 69
2, 992805, Note_on_c, 0, 80, 0
2, 992809, Note_on_c, 0, 72, 66
2, 992961, Note_on_c, 0, 44, 49
2, 992961, Control_c, 0, 64, 24
2, 993005, Control_c, 0, 64, 0
2, 993029, Note_on_c, 0, 44, 0
2, 993313, Note_on_c, 0, 60, 58
2, 993333, Note_on_c, 0, 56, 28
2, 993337, Note_on_c, 0, 51, 27
2, 993353, Note_on_c, 0, 60, 0
2, 993369, Note_on_c, 0, 56, 0
2, 993377, Note_on_c, 0, 51, 0
2, 993485, Control_c, 0, 64, 40
2, 993501, Control_c, 0, 64, 72
2, 993517, Control_c, 0, 64, 104
2, 993533, Control_c, 0, 64, 127
2, 993593, Control_c, 0, 64, 104
2, 993609, Note_on_c, 0, 72, 0
2, 993609, Note_on_c, 0, 71, 70
2, 993609, Control_c, 0, 64, 88
2, 993613, Note_on_c, 0, 44, 60
2, 993625, Control_c, 0, 64, 56
2, 993641, Control_c, 0, 64, 40
2, 993653, Note_on_c, 0, 44, 0
2, 993657, Control_c, 0, 64, 24
2, 993673, Control_c, 0, 64, 0
2, 993761, Note_on_c, 0, 71, 0
2, 993765, Note_on_c, 0, 77, 74
2, 993909, Note_on_c, 0, 53, 52
2, 993917, Note_on_c, 0, 62, 46
2, 993929, Note_on_c, 0, 56, 33
2, 993957, Note_on_c, 0, 53, 0
2, 993965, Note_on_c, 0, 56, 0
2, 993989, Note_on_c, 0, 62, 0
2, 994221, Note_on_c, 0, 56, 36
2, 994225, Note_on_c, 0, 62, 57
2, 994237, Note_on_c, 0, 53, 48
2, 994269, Note_on_c, 0, 62, 0
2, 994285, Note_on_c, 0, 53, 0
2, 994293, Note_on_c, 0, 56, 0
2, 994409, Note_on_c, 0, 77, 0
2, 994477, Control_c, 0, 64, 56
2, 994485, Note_on_c, 0, 75, 77
2, 994493, Control_c, 0, 64, 104
2, 994501, Note_on_c, 0, 44, 58
2, 994509, Control_c, 0, 64, 127
2, 994569, Note_on_c, 0, 44, 0
2, 994597, Note_on_c, 0, 75, 0
2, 994601, Note_on_c, 0, 69, 68
2, 994633, Control_c, 0, 64, 104
2, 994649, Control_c, 0, 64, 72
2, 994665, Control_c, 0, 64, 40
2, 994677, Control_c, 0, 64, 24
2, 994693, Control_c, 0, 64, 0
2, 994749, Note_on_c, 0, 61, 53
2, 994749, Note_on_c, 0, 51, 61
2, 994753, Note_on_c, 0, 55, 59
2, 994785, Note_on_c, 0, 55, 0
2, 994801, Note_on_c, 0, 61, 0
2, 994805, Note_on_c, 0, 51, 0
2, 995009, Note_on_c, 0, 70, 74
2, 995029, Note_on_c, 0, 69, 0
2, 995029, Note_on_c, 0, 61, 53
2, 995037, Note_on_c, 0, 55, 47
2, 995037, Note_on_c, 0, 51, 51
2, 995057, Note_on_c, 0, 61, 0
2, 995065, Note_on_c, 0, 55, 0
2, 995101, Note_on_c, 0, 51, 0
2, 995269, Control_c, 0, 64, 24
2, 995273, Note_on_c, 0, 70, 0
2, 995273, Note_on_c, 0, 44, 68
2, 995285, Note_on_c, 0, 72, 83
2, 995285, Control_c, 0, 64, 72
2, 995297, Control_c, 0, 64, 104
2, 995313, Control_c, 0, 64, 127
2, 995341, Note_on_c, 0, 44, 0
2, 995361, Control_c, 0, 64, 88
2, 995377, Control_c, 0, 64, 72
2, 995393, Note_on_c, 0, 72, 0
2, 995393, Control_c, 0, 64, 40
2, 995405, Note_on_c, 0, 67, 71
2, 995405, Control_c, 0, 64, 24
2, 995421, Control_c, 0, 64, 0
2, 995525, Note_on_c, 0, 51, 54
2, 995533, Note_on_c, 0, 60, 55
2, 995537, Note_on_c, 0, 56, 43
2, 995593, Note_on_c, 0, 60, 0
2, 995597, Note_on_c, 0, 51, 0
2, 995617, Note_on_c, 0, 56, 0
2, 995749, Note_on_c, 0, 67, 0
2, 995785, Note_on_c, 0, 68, 73
2, 995793, Note_on_c, 0, 56, 62
2, 995797, Note_on_c, 0, 60, 64
2, 995805, Note_on_c, 0, 51, 52
2, 995825, Note_on_c, 0, 60, 0
2, 995829, Note_on_c, 0, 56, 0
2, 995837, Note_on_c, 0, 51, 0
2, 996021, Note_on_c, 0, 68, 0
2, 996033, Note_on_c, 0, 70, 78
2, 996057, Note_on_c, 0, 41, 62
2, 996073, Control_c, 0, 64, 24
2, 996089, Control_c, 0, 64, 72
2, 996105, Note_on_c, 0, 41, 0
2, 996105, Control_c, 0, 64, 104
2, 996121, Control_c, 0, 64, 127
2, 996161, Note_on_c, 0, 62, 67
2, 996165, Control_c, 0, 64, 88
2, 996181, Control_c, 0, 64, 40
2, 996197, Control_c, 0, 64, 0
2, 996233, Note_on_c, 0, 70, 0
2, 996277, Note_on_c, 0, 56, 57
2, 996281, Note_on_c, 0, 46, 60
2, 996305, Control_c, 0, 64, 24
2, 996321, Control_c, 0, 64, 72
2, 996337, Note_on_c, 0, 56, 0
2, 996337, Control_c, 0, 64, 104
2, 996349, Control_c, 0, 64, 127
2, 996353, Note_on_c, 0, 46, 0
2, 996533, Note_on_c, 0, 72, 88
2, 996541, Note_on_c, 0, 46, 65
2, 996545, Note_on_c, 0, 56, 48
2, 996569, Note_on_c, 0, 56, 0
2, 996593, Note_on_c, 0, 46, 0
2, 996605, Note_on_c, 0, 62, 0
2, 996677, Note_on_c, 0, 72, 0
2, 996737, Control_c, 0, 64, 40
2, 996753, Control_c, 0, 64, 0
2, 996785, Note_on_c, 0, 74, 92
2, 996797, Note_on_c, 0, 34, 56
2, 996849, Control_c, 0, 64, 56
2, 996857, Note_on_c, 0, 34, 0
2, 996865, Control_c, 0, 64, 127
2, 996893, Note_on_c, 0, 74, 0
2, 996917, Note_on_c, 0, 68, 58
2, 996921, Note_on_c, 0, 62, 60
2, 996985, Note_on_c, 0, 62, 0
2, 997041, Note_on_c, 0, 56, 60
2, 997049, Note_on_c, 0, 53, 60
2, 997093, Note_on_c, 0, 53, 0
2, 997129, Note_on_c, 0, 56, 0
2, 997237, Note_on_c, 0, 68, 0
2, 997257, Note_on_c, 0, 75, 87
2, 997273, Note_on_c, 0, 56, 53
2, 997293, Note_on_c, 0, 46, 48
2, 997313, Note_on_c, 0, 56, 0
2, 997329, Note_on_c, 0, 46, 0
2, 997353, Note_on_c, 0, 75, 0
2, 997481, Control_c, 0, 64, 72
2, 997497, Control_c, 0, 64, 0
2, 997525, Note_on_c, 0, 46, 67
2, 997529, Note_on_c, 0, 77, 94
2, 997577, Control_c, 0, 64, 40
2, 997581, Note_on_c, 0, 46, 0
2, 997593, Control_c, 0, 64, 88
2, 997605, Note_on_c, 0, 77, 0
2, 997605, Control_c, 0, 64, 127
2, 997665, Note_on_c, 0, 68, 62
2, 997669, Note_on_c, 0, 62, 67
2, 997729, Note_on_c, 0, 62, 0
2, 997777, Note_on_c, 0, 68, 0
2, 997793, Note_on_c, 0, 56, 56
2, 997805, Note_on_c, 0, 53, 59
2, 997829, Note_on_c, 0, 46, 46
2, 997833, Note_on_c, 0, 53, 0
2, 997853, Note_on_c, 0, 56, 0
2, 997857, Note_on_c, 0, 46, 0
2, 998041, Note_on_c, 0, 79, 87
2, 998045, Note_on_c, 0, 34, 62
2, 998121, Note_on_c, 0, 79, 0
2, 998125, Note_on_c, 0, 34, 0
2, 998241, Control_c, 0, 64, 88
2, 998257, Control_c, 0, 64, 24
2, 998273, Control_c, 0, 64, 0
2, 998325, Note_on_c, 0, 75, 84
2, 998325, Note_on_c, 0, 39, 45
2, 998337, Control_c, 0, 64, 40
2, 998349, Control_c, 0, 64, 88
2, 998365, Control_c, 0, 64, 127
2, 998417, Note_on_c, 0, 39, 0
2, 998469, Note_on_c, 0, 75, 0
2, 998485, Note_on_c, 0, 67, 62
2, 998493, Note_on_c, 0, 63, 46
2, 998569, Note_on_c, 0, 67, 0
2, 998573, Note_on_c, 0, 63, 0
2, 998653, Note_on_c, 0, 62, 49
2, 998665, Note_on_c, 0, 51, 52
2, 998669, Note_on_c, 0, 55, 48
2, 998721, Control_c, 0, 64, 72
2, 998737, Control_c, 0, 64, 0
2, 998813, Control_c, 0, 64, 56
2, 998825, Note_on_c, 0, 55, 0
2, 998829, Control_c, 0, 64, 127
2, 998837, Note_on_c, 0, 51, 0
2, 999005, Note_on_c, 0, 61, 55
2, 999037, Note_on_c, 0, 62, 0
2, 999069, Note_on_c, 0, 61, 0
2, 999417, Control_c, 0, 64, 56
2, 999433, Note_on_c, 0, 87, 99
2, 999437, Note_on_c, 0, 75, 86
2, 999437, Control_c, 0, 64, 0
2, 999441, Note_on_c, 0, 39, 73
2, 999441, Note_on_c, 0, 51, 70
2, 999501, Note_on_c, 0, 39, 0
2, 999505, Note_on_c, 0, 51, 0
2, 999529, Control_c, 0, 64, 88
2, 999541, Control_c, 0, 64, 127
2, 999557, Note_on_c, 0, 75, 0
2, 999573, Note_on_c, 0, 87, 0
2, 999753, Note_on_c, 0, 87, 89
2, 999757, Note_on_c, 0, 75, 84
2, 999765, Note_on_c, 0, 63, 59
2, 999773, Note_on_c, 0, 58, 34
2, 999789, Note_on_c, 0, 55, 59
2, 999805, Note_on_c, 0, 75, 0
2, 999809, Note_on_c, 0, 87, 0
2, 999821, Note_on_c, 0, 55, 0
2, 999841, Note_on_c, 0, 58, 0
2, 999853, Note_on_c, 0, 63, 0
2, 999885, Note_on_c, 0, 87, 96
2, 999889, Note_on_c, 0, 75, 96
2, 999937, Note_on_c, 0, 75, 0
2, 999945, Note_on_c, 0, 87, 0
2, 999989, Note_on_c, 0, 67, 65
2, 999993, Note_on_c, 0, 63, 57
2, 999993, Note_on_c, 0, 58, 55
2, 1000013, Note_on_c, 0, 87, 91
2, 1000017, Note_on_c, 0, 63, 0
2, 1000017, Note_on_c, 0, 67, 0
2, 1000017, Note_on_c, 0, 75, 96
2, 1000045, Note_on_c, 0, 58, 0
2, 1000061, Note_on_c, 0, 75, 0
2, 1000065, Note_on_c, 0, 87, 0
2, 1000137, Note_on_c, 0, 87, 91
2, 1000141, Note_on_c, 0, 75, 97
2, 1000189, Note_on_c, 0, 75, 0
2, 1000197, Note_on_c, 0, 87, 0
2, 1000241, Control_c, 0, 64, 72
2, 1000257, Control_c, 0, 64, 0
2, 1000265, Note_on_c, 0, 41, 72
2, 1000265, Note_on_c, 0, 87, 91
2, 1000277, Note_on_c, 0, 75, 97
2, 1000285, Note_on_c, 0, 53, 70
2, 1000317, Note_on_c, 0, 41, 0
2, 1000345, Note_on_c, 0, 53, 0
2, 1000349, Control_c, 0, 64, 88
2, 1000365, Control_c, 0, 64, 127
2, 1000397, Note_on_c, 0, 87, 0
2, 1000417, Note_on_c, 0, 75, 0
2, 1000533, Note_on_c, 0, 85, 85
2, 1000537, Note_on_c, 0, 73, 85
2, 1000561, Note_on_c, 0, 56, 39
2, 1000561, Note_on_c, 0, 61, 43
2, 1000581, Note_on_c, 0, 53, 44
2, 1000585, Note_on_c, 0, 73, 0
2, 1000601, Note_on_c, 0, 85, 0
2, 1000617, Note_on_c, 0, 61, 0
2, 1000625, Note_on_c, 0, 56, 0
2, 1000625, Note_on_c, 0, 53, 0
2, 1000649, Note_on_c, 0, 84, 90
2, 1000657, Note_on_c, 0, 72, 87
2, 1000689, Note_on_c, 0, 72, 0
2, 1000713, Note_on_c, 0, 84, 0
2, 1000765, Note_on_c, 0, 56, 68
2, 1000773, Note_on_c, 0, 65, 47
2, 1000777, Note_on_c, 0, 82, 81
2, 1000781, Note_on_c, 0, 61, 32
2, 1000789, Note_on_c, 0, 70, 80
2, 1000805, Note_on_c, 0, 61, 0
2, 1000805, Note_on_c, 0, 65, 0
2, 1000821, Note_on_c, 0, 70, 0
2, 1000825, Note_on_c, 0, 56, 0
2, 1000837, Note_on_c, 0, 82, 0
2, 1000901, Note_on_c, 0, 80, 92
2, 1000905, Note_on_c, 0, 68, 84
2, 1000981, Note_on_c, 0, 68, 0
2, 1000997, Note_on_c, 0, 80, 0
2, 1001029, Control_c, 0, 64, 56
2, 1001045, Control_c, 0, 64, 0
2, 1001057, Note_on_c, 0, 79, 90
2, 1001061, Note_on_c, 0, 67, 70
2, 1001089, Note_on_c, 0, 55, 57
2, 1001097, Note_on_c, 0, 43, 64
2, 1001125, Note_on_c, 0, 43, 0
2, 1001153, Control_c, 0, 64, 56
2, 1001169, Note_on_c, 0, 67, 0
2, 1001169, Control_c, 0, 64, 127
2, 1001173, Note_on_c, 0, 55, 0
2, 1001209, Note_on_c, 0, 79, 0
2, 1001341, Note_on_c, 0, 79, 82
2, 1001345, Note_on_c, 0, 67, 66
2, 1001345, Note_on_c, 0, 53, 59
2, 1001361, Note_on_c, 0, 50, 43
2, 1001385, Note_on_c, 0, 67, 0
2, 1001397, Note_on_c, 0, 79, 0
2, 1001405, Note_on_c, 0, 53, 0
2, 1001437, Note_on_c, 0, 50, 0
2, 1001469, Note_on_c, 0, 79, 87
2, 1001473, Note_on_c, 0, 67, 74
2, 1001529, Note_on_c, 0, 67, 0
2, 1001529, Note_on_c, 0, 79, 0
2, 1001605, Note_on_c, 0, 62, 48
2, 1001605, Note_on_c, 0, 59, 60
2, 1001609, Note_on_c, 0, 79, 81
2, 1001617, Note_on_c, 0, 67, 64
2, 1001653, Note_on_c, 0, 59, 0
2, 1001653, Note_on_c, 0, 62, 0
2, 1001665, Note_on_c, 0, 67, 0
2, 1001669, Note_on_c, 0, 79, 0
2, 1001733, Note_on_c, 0, 79, 87
2, 1001749, Note_on_c, 0, 67, 70
2, 1001789, Note_on_c, 0, 67, 0
2, 1001817, Note_on_c, 0, 79, 0
2, 1001881, Control_c, 0, 64, 104
2, 1001889, Note_on_c, 0, 79, 80
2, 1001897, Control_c, 0, 64, 24
2, 1001913, Note_on_c, 0, 67, 64
2, 1001913, Control_c, 0, 64, 0
2, 1001929, Note_on_c, 0, 36, 54
2, 1001933, Note_on_c, 0, 48, 54
2, 1001989, Note_on_c, 0, 67, 0
2, 1002021, Note_on_c, 0, 48, 0
2, 1002021, Control_c, 0, 64, 88
2, 1002025, Note_on_c, 0, 36, 0
2, 1002037, Control_c, 0, 64, 127
2, 1002149, Note_on_c, 0, 79, 0
2, 1002193, Note_on_c, 0, 77, 77
2, 1002205, Note_on_c, 0, 60, 40
2, 1002237, Note_on_c, 0, 51, 34
2, 1002277, Note_on_c, 0, 51, 0
2, 1002289, Note_on_c, 0, 60, 0
2, 1002301, Note_on_c, 0, 77, 0
2, 1002313, Note_on_c, 0, 75, 71
2, 1002441, Note_on_c, 0, 60, 64
2, 1002445, Note_on_c, 0, 75, 0
2, 1002445, Note_on_c, 0, 74, 76
2, 1002453, Note_on_c, 0, 63, 53
2, 1002473, Note_on_c, 0, 60, 0
2, 1002513, Note_on_c, 0, 63, 0
2, 1002553, Note_on_c, 0, 74, 0
2, 1002561, Note_on_c, 0, 72, 77
2, 1002709, Note_on_c, 0, 72, 0
2, 1002717, Note_on_c, 0, 56, 67
2, 1002717, Note_on_c, 0, 72, 67
2, 1002737, Control_c, 0, 64, 56
2, 1002749, Control_c, 0, 64, 0
2, 1002773, Note_on_c, 0, 72, 0
2, 1002845, Note_on_c, 0, 75, 69
2, 1002861, Control_c, 0, 64, 56
2, 1002873, Control_c, 0, 64, 104
2, 1002889, Control_c, 0, 64, 127
2, 1002909, Note_on_c, 0, 75, 0
2, 1002969, Note_on_c, 0, 75, 67
2, 1002985, Note_on_c, 0, 63, 44
2, 1002993, Note_on_c, 0, 56, 0
2, 1003001, Note_on_c, 0, 60, 43
2, 1003013, Note_on_c, 0, 66, 25
2, 1003037, Note_on_c, 0, 75, 0
2, 1003093, Note_on_c, 0, 75, 71
2, 1003169, Note_on_c, 0, 75, 0
2, 1003201, Control_c, 0, 64, 56
2, 1003213, Note_on_c, 0, 60, 0
2, 1003213, Control_c, 0, 64, 0
2, 1003225, Note_on_c, 0, 75, 71
2, 1003229, Note_on_c, 0, 57, 64
2, 1003233, Note_on_c, 0, 63, 0
2, 1003301, Note_on_c, 0, 75, 0
2, 1003309, Control_c, 0, 64, 24
2, 1003321, Control_c, 0, 64, 56
2, 1003337, Control_c, 0, 64, 88
2, 1003353, Note_on_c, 0, 75, 71
2, 1003353, Control_c, 0, 64, 104
2, 1003369, Control_c, 0, 64, 127
2, 1003405, Note_on_c, 0, 57, 0
2, 1003433, Note_on_c, 0, 75, 0
2, 1003477, Note_on_c, 0, 58, 61
2, 1003477, Control_c, 0, 64, 104
2, 1003485, Note_on_c, 0, 75, 71
2, 1003493, Control_c, 0, 64, 56
2, 1003509, Control_c, 0, 64, 0
2, 1003545, Note_on_c, 0, 66, 0
2, 1003649, Control_c, 0, 64, 24
2, 1003665, Control_c, 0, 64, 56
2, 1003681, Control_c, 0, 64, 72
2, 1003745, Note_on_c, 0, 75, 0
2, 1003757, Control_c, 0, 64, 0
2, 1003785, Note_on_c, 0, 73, 68
2, 1003801, Note_on_c, 0, 61, 36
2, 1003805, Note_on_c, 0, 65, 41
2, 1003873, Note_on_c, 0, 73, 0
2, 1003881, Control_c, 0, 64, 56
2, 1003897, Note_on_c, 0, 65, 0
2, 1003897, Control_c, 0, 64, 72
2, 1003913, Note_on_c, 0, 72, 78
2, 1003913, Control_c, 0, 64, 88
2, 1003925, Note_on_c, 0, 61, 0
2, 1003929, Control_c, 0, 64, 104
2, 1004017, Note_on_c, 0, 72, 0
2, 1004033, Note_on_c, 0, 70, 63
2, 1004057, Note_on_c, 0, 61, 35
2, 1004065, Control_c, 0, 64, 127
2, 1004077, Note_on_c, 0, 65, 29
2, 1004109, Note_on_c, 0, 58, 0
2, 1004149, Note_on_c, 0, 70, 0
2, 1004153, Note_on_c, 0, 68, 69
2, 1004237, Note_on_c, 0, 68, 0
2, 1004289, Note_on_c, 0, 61, 0
2, 1004301, Note_on_c, 0, 65, 0
2, 1004301, Note_on_c, 0, 67, 74
2, 1004301, Control_c, 0, 64, 56
2, 1004317, Control_c, 0, 64, 0
2, 1004329, Note_on_c, 0, 59, 47
2, 1004437, Control_c, 0, 64, 24
2, 1004453, Control_c, 0, 64, 56
2, 1004461, Note_on_c, 0, 67, 0
2, 1004469, Control_c, 0, 64, 88
2, 1004485, Control_c, 0, 64, 127
2, 1004589, Note_on_c, 0, 67, 69
2, 1004601, Note_on_c, 0, 65, 42
2, 1004605, Note_on_c, 0, 62, 42
2, 1004641, Note_on_c, 0, 67, 0
2, 1004705, Note_on_c, 0, 65, 0
2, 1004705, Note_on_c, 0, 67, 69
2, 1004729, Note_on_c, 0, 62, 0
2, 1004749, Control_c, 0, 64, 104
2, 1004785, Note_on_c, 0, 67, 0
2, 1004841, Note_on_c, 0, 67, 68
2, 1004869, Note_on_c, 0, 62, 40
2, 1004877, Note_on_c, 0, 65, 41
2, 1004905, Note_on_c, 0, 59, 0
2, 1004921, Note_on_c, 0, 67, 0
2, 1004953, Note_on_c, 0, 62, 0
2, 1004961, Note_on_c, 0, 65, 0
2, 1004977, Note_on_c, 0, 67, 68
2, 1005041, Note_on_c, 0, 67, 0
2, 1005061, Control_c, 0, 64, 127
2, 1005125, Note_on_c, 0, 67, 67
2, 1005137, Control_c, 0, 64, 88
2, 1005145, Note_on_c, 0, 65, 47
2, 1005153, Control_c, 0, 64, 40
2, 1005157, Note_on_c, 0, 60, 45
2, 1005165, Control_c, 0, 64, 0
2, 1005281, Note_on_c, 0, 72, 65
2, 1005289, Note_on_c, 0, 67, 0
2, 1005293, Control_c, 0, 64, 24
2, 1005309, Control_c, 0, 64, 56
2, 1005321, Control_c, 0, 64, 72
2, 1005329, Note_on_c, 0, 65, 0
2, 1005337, Control_c, 0, 64, 88
2, 1005441, Note_on_c, 0, 64, 59
2, 1005449, Control_c, 0, 64, 72
2, 1005477, Control_c, 0, 64, 40
2, 1005493, Control_c, 0, 64, 0
2, 1005633, Control_c, 0, 64, 24
2, 1005649, Control_c, 0, 64, 40
2, 1005665, Control_c, 0, 64, 56
2, 1005681, Control_c, 0, 64, 72
2, 1005785, Note_on_c, 0, 64, 0
2, 1005801, Control_c, 0, 64, 0
2, 1005805, Note_on_c, 0, 63, 46
2, 1005941, Control_c, 0, 64, 40
2, 1005957, Control_c, 0, 64, 72
2, 1005973, Note_on_c, 0, 72, 0
2, 1005973, Control_c, 0, 64, 104
2, 1005989, Control_c, 0, 64, 127
2, 1006037, Note_on_c, 0, 60, 0
2, 1006073, Note_on_c, 0, 63, 0
2, 1006205, Note_on_c, 0, 80, 71
2, 1006321, Note_on_c, 0, 80, 0
2, 1006349, Note_on_c, 0, 72, 73
2, 1006437, Control_c, 0, 64, 88
2, 1006453, Control_c, 0, 64, 40
2, 1006469, Control_c, 0, 64, 0
2, 1006477, Note_on_c, 0, 44, 47
2, 1006549, Note_on_c, 0, 44, 0
2, 1006577, Control_c, 0, 64, 24
2, 1006593, Control_c, 0, 64, 72
2, 1006609, Control_c, 0, 64, 127
2, 1006685, Control_c, 0, 64, 56
2, 1006701, Control_c, 0, 64, 0
2, 1006781, Control_c, 0, 64, 40
2, 1006793, Control_c, 0, 64, 72
2, 1006809, Control_c, 0, 64, 104
2, 1006825, Control_c, 0, 64, 127
2, 1006849, Note_on_c, 0, 60, 57
2, 1006869, Note_on_c, 0, 56, 37
2, 1006873, Note_on_c, 0, 51, 35
2, 1006905, Note_on_c, 0, 56, 0
2, 1006909, Note_on_c, 0, 60, 0
2, 1006917, Note_on_c, 0, 51, 0
2, 1007025, Control_c, 0, 64, 104
2, 1007041, Control_c, 0, 64, 72
2, 1007057, Control_c, 0, 64, 40
2, 1007073, Control_c, 0, 64, 0
2, 1007137, Note_on_c, 0, 72, 0
2, 1007149, Note_on_c, 0, 71, 73
2, 1007161, Note_on_c, 0, 44, 42
2, 1007165, Control_c, 0, 64, 40
2, 1007181, Control_c, 0, 64, 88
2, 1007197, Control_c, 0, 64, 127
2, 1007217, Note_on_c, 0, 44, 0
2, 1007265, Note_on_c, 0, 71, 0
2, 1007285, Note_on_c, 0, 79, 78
2, 1007289, Control_c, 0, 64, 88
2, 1007305, Control_c, 0, 64, 56
2, 1007321, Control_c, 0, 64, 24
2, 1007337, Control_c, 0, 64, 0
2, 1007441, Note_on_c, 0, 56, 46
2, 1007457, Note_on_c, 0, 62, 43
2, 1007457, Note_on_c, 0, 53, 42
2, 1007497, Note_on_c, 0, 62, 0
2, 1007505, Note_on_c, 0, 53, 0
2, 1007509, Note_on_c, 0, 56, 0
2, 1007773, Note_on_c, 0, 79, 0
2, 1007785, Note_on_c, 0, 77, 75
2, 1007793, Note_on_c, 0, 62, 51
2, 1007801, Control_c, 0, 64, 24
2, 1007805, Note_on_c, 0, 56, 29
2, 1007813, Note_on_c, 0, 53, 27
2, 1007817, Control_c, 0, 64, 56
2, 1007825, Note_on_c, 0, 62, 0
2, 1007829, Control_c, 0, 64, 72
2, 1007845, Note_on_c, 0, 56, 0
2, 1007849, Control_c, 0, 64, 88
2, 1007857, Note_on_c, 0, 53, 0
2, 1007973, Control_c, 0, 64, 24
2, 1007985, Control_c, 0, 64, 0
2, 1008029, Note_on_c, 0, 77, 0
2, 1008057, Note_on_c, 0, 44, 55
2, 1008061, Note_on_c, 0, 75, 71
2, 1008081, Control_c, 0, 64, 40
2, 1008097, Control_c, 0, 64, 56
2, 1008109, Control_c, 0, 64, 72
2, 1008117, Note_on_c, 0, 44, 0
2, 1008157, Control_c, 0, 64, 40
2, 1008173, Control_c, 0, 64, 24
2, 1008177, Note_on_c, 0, 75, 0
2, 1008189, Control_c, 0, 64, 0
2, 1008205, Note_on_c, 0, 69, 75
2, 1008309, Note_on_c, 0, 61, 46
2, 1008313, Note_on_c, 0, 55, 52
2, 1008317, Note_on_c, 0, 51, 53
2, 1008345, Note_on_c, 0, 55, 0
2, 1008369, Note_on_c, 0, 51, 0
2, 1008385, Note_on_c, 0, 61, 0
2, 1008569, Note_on_c, 0, 61, 55
2, 1008581, Note_on_c, 0, 70, 78
2, 1008581, Note_on_c, 0, 55, 59
2, 1008589, Note_on_c, 0, 51, 60
2, 1008609, Note_on_c, 0, 55, 0
2, 1008613, Note_on_c, 0, 69, 0
2, 1008633, Note_on_c, 0, 61, 0
2, 1008649, Note_on_c, 0, 51, 0
2, 1008793, Note_on_c, 0, 70, 0
2, 1008829, Note_on_c, 0, 72, 80
2, 1008833, Note_on_c, 0, 44, 57
2, 1008853, Control_c, 0, 64, 24
2, 1008869, Control_c, 0, 64, 56
2, 1008889, Note_on_c, 0, 44, 0
2, 1008925, Note_on_c, 0, 72, 0
2, 1008933, Control_c, 0, 64, 24
2, 1008945, Control_c, 0, 64, 0
2, 1008965, Note_on_c, 0, 67, 77
2, 1009081, Note_on_c, 0, 51, 61
2, 1009085, Note_on_c, 0, 56, 58
2, 1009089, Note_on_c, 0, 60, 63
2, 1009153, Note_on_c, 0, 60, 0
2, 1009153, Note_on_c, 0, 56, 0
2, 1009153, Note_on_c, 0, 51, 0
2, 1009293, Note_on_c, 0, 67, 0
2, 1009329, Note_on_c, 0, 68, 83
2, 1009337, Note_on_c, 0, 56, 65
2, 1009337, Note_on_c, 0, 51, 68
2, 1009353, Note_on_c, 0, 60, 58
2, 1009361, Note_on_c, 0, 51, 0
2, 1009385, Note_on_c, 0, 60, 0
2, 1009397, Note_on_c, 0, 56, 0
2, 1009421, Note_on_c, 0, 68, 0
2, 1009613, Control_c, 0, 64, 24
2, 1009617, Note_on_c, 0, 73, 97
2, 1009621, Note_on_c, 0, 56, 71
2, 1009625, Note_on_c, 0, 61, 85
2, 1009629, Note_on_c, 0, 68, 70
2, 1009629, Control_c, 0, 64, 88
2, 1009633, Note_on_c, 0, 65, 68
2, 1009637, Note_on_c, 0, 53, 63
2, 1009645, Control_c, 0, 64, 127
2, 1009661, Note_on_c, 0, 65, 0
2, 1009669, Note_on_c, 0, 53, 0
2, 1009673, Note_on_c, 0, 61, 0
2, 1009677, Note_on_c, 0, 56, 0
2, 1009693, Note_on_c, 0, 68, 0
2, 1009709, Note_on_c, 0, 73, 0
2, 1009869, Note_on_c, 0, 56, 72
2, 1009869, Note_on_c, 0, 65, 77
2, 1009881, Note_on_c, 0, 73, 86
2, 1009881, Note_on_c, 0, 61, 92
2, 1009881, Note_on_c, 0, 53, 54
2, 1009897, Note_on_c, 0, 65, 0
2, 1009901, Note_on_c, 0, 68, 43
2, 1009909, Note_on_c, 0, 53, 0
2, 1009917, Note_on_c, 0, 56, 0
2, 1009925, Note_on_c, 0, 61, 0
2, 1009925, Note_on_c, 0, 73, 0
2, 1009925, Note_on_c, 0, 68, 0
2, 1009941, Control_c, 0, 64, 104
2, 1009953, Control_c, 0, 64, 88
2, 1009985, Control_c, 0, 64, 72
2, 1009989, Note_on_c, 0, 73, 90
2, 1009989, Note_on_c, 0, 61, 86
2, 1010001, Note_on_c, 0, 56, 62
2, 1010001, Note_on_c, 0, 65, 80
2, 1010001, Note_on_c, 0, 68, 54
2, 1010005, Note_on_c, 0, 53, 63
2, 1010017, Control_c, 0, 64, 56
2, 1010025, Note_on_c, 0, 56, 0
2, 1010029, Note_on_c, 0, 68, 0
2, 1010029, Note_on_c, 0, 65, 0
2, 1010029, Note_on_c, 0, 53, 0
2, 1010033, Control_c, 0, 64, 40
2, 1010041, Note_on_c, 0, 61, 0
2, 1010049, Note_on_c, 0, 73, 0
2, 1010049, Control_c, 0, 64, 24
2, 1010065, Control_c, 0, 64, 0
2, 1010109, Note_on_c, 0, 73, 83
2, 1010109, Note_on_c, 0, 61, 82
2, 1010121, Note_on_c, 0, 65, 86
2, 1010121, Note_on_c, 0, 56, 71
2, 1010133, Note_on_c, 0, 53, 49
2, 1010145, Note_on_c, 0, 56, 0
2, 1010145, Note_on_c, 0, 65, 0
2, 1010157, Note_on_c, 0, 61, 0
2, 1010161, Note_on_c, 0, 53, 0
2, 1010169, Note_on_c, 0, 73, 0
2, 1010229, Note_on_c, 0, 73, 80
2, 1010233, Note_on_c, 0, 56, 69
2, 1010237, Note_on_c, 0, 61, 81
2, 1010237, Note_on_c, 0, 65, 74
2, 1010241, Note_on_c, 0, 53, 52
2, 1010261, Note_on_c, 0, 65, 0
2, 1010269, Note_on_c, 0, 53, 0
2, 1010281, Note_on_c, 0, 61, 0
2, 1010293, Note_on_c, 0, 56, 0
2, 1010297, Note_on_c, 0, 73, 0
2, 1010369, Note_on_c, 0, 74, 103
2, 1010369, Note_on_c, 0, 64, 100
2, 1010373, Note_on_c, 0, 68, 76
2, 1010377, Note_on_c, 0, 62, 96
2, 1010385, Note_on_c, 0, 52, 84
2, 1010413, Note_on_c, 0, 52, 0
2, 1010429, Note_on_c, 0, 68, 0
2, 1010429, Note_on_c, 0, 62, 0
2, 1010437, Note_on_c, 0, 64, 0
2, 1010461, Note_on_c, 0, 74, 0
2, 1010637, Note_on_c, 0, 77, 94
2, 1010637, Note_on_c, 0, 68, 85
2, 1010645, Note_on_c, 0, 65, 84
2, 1010645, Note_on_c, 0, 74, 79
2, 1010653, Note_on_c, 0, 59, 74
2, 1010653, Note_on_c, 0, 53, 70
2, 1010657, Note_on_c, 0, 47, 69
2, 1010669, Control_c, 0, 64, 24
2, 1010689, Note_on_c, 0, 47, 0
2, 1010689, Note_on_c, 0, 65, 0
2, 1010689, Note_on_c, 0, 53, 0
2, 1010697, Note_on_c, 0, 68, 0
2, 1010701, Note_on_c, 0, 59, 0
2, 1010705, Note_on_c, 0, 74, 0
2, 1010725, Note_on_c, 0, 77, 0
2, 1010745, Control_c, 0, 64, 0
2, 1010901, Note_on_c, 0, 58, 70
2, 1010901, Note_on_c, 0, 80, 97
2, 1010905, Note_on_c, 0, 68, 95
2, 1010909, Note_on_c, 0, 70, 85
2, 1010909, Note_on_c, 0, 53, 69
2, 1010913, Note_on_c, 0, 74, 89
2, 1010913, Note_on_c, 0, 46, 64
2, 1010917, Control_c, 0, 64, 56
2, 1010933, Control_c, 0, 64, 104
2, 1010937, Note_on_c, 0, 53, 0
2, 1010945, Control_c, 0, 64, 127
2, 1010949, Note_on_c, 0, 58, 0
2, 1010965, Note_on_c, 0, 46, 0
2, 1010977, Note_on_c, 0, 74, 0
2, 1010981, Note_on_c, 0, 70, 0
2, 1010985, Note_on_c, 0, 68, 0
2, 1011021, Note_on_c, 0, 80, 0
2, 1011021, Control_c, 0, 64, 72
2, 1011041, Control_c, 0, 64, 24
2, 1011053, Control_c, 0, 64, 0
2, 1011165, Note_on_c, 0, 79, 105
2, 1011165, Note_on_c, 0, 70, 83
2, 1011169, Note_on_c, 0, 67, 93
2, 1011169, Note_on_c, 0, 75, 86
2, 1011169, Note_on_c, 0, 51, 85
2, 1011169, Note_on_c, 0, 46, 82
2, 1011177, Note_on_c, 0, 39, 69
2, 1011181, Control_c, 0, 64, 24
2, 1011193, Control_c, 0, 64, 72
2, 1011209, Note_on_c, 0, 67, 0
2, 1011209, Note_on_c, 0, 70, 0
2, 1011209, Control_c, 0, 64, 127
2, 1011217, Note_on_c, 0, 51, 0
2, 1011221, Note_on_c, 0, 46, 0
2, 1011229, Note_on_c, 0, 39, 0
2, 1011233, Note_on_c, 0, 75, 0
2, 1011249, Note_on_c, 0, 79, 0
2, 1011273, Control_c, 0, 64, 104
2, 1011285, Control_c, 0, 64, 88
2, 1011305, Control_c, 0, 64, 56
2, 1011321, Control_c, 0, 64, 24
2, 1011333, Control_c, 0, 64, 0
2, 1011425, Note_on_c, 0, 82, 93
2, 1011433, Note_on_c, 0, 70, 99
2, 1011433, Note_on_c, 0, 75, 88
2, 1011437, Note_on_c, 0, 79, 90
2, 1011437, Note_on_c, 0, 49, 90
2, 1011441, Note_on_c, 0, 37, 74
2, 1011457, Control_c, 0, 64, 104
2, 1011473, Control_c, 0, 64, 127
2, 1011481, Note_on_c, 0, 70, 0
2, 1011485, Note_on_c, 0, 49, 0
2, 1011493, Note_on_c, 0, 37, 0
2, 1011497, Note_on_c, 0, 75, 0
2, 1011521, Note_on_c, 0, 79, 0
2, 1011521, Note_on_c, 0, 82, 0
2, 1011565, Control_c, 0, 64, 88
2, 1011581, Control_c, 0, 64, 40
2, 1011593, Note_on_c, 0, 46, 48
2, 1011597, Control_c, 0, 64, 0
2, 1011617, Note_on_c, 0, 46, 0
2, 1011705, Note_on_c, 0, 85, 98
2, 1011705, Note_on_c, 0, 73, 96
2, 1011709, Note_on_c, 0, 75, 86
2, 1011709, Note_on_c, 0, 82, 77
2, 1011717, Note_on_c, 0, 46, 91
2, 1011725, Note_on_c, 0, 34, 78
2, 1011729, Note_on_c, 0, 39, 71
2, 1011749, Control_c, 0, 64, 88
2, 1011765, Note_on_c, 0, 46, 0
2, 1011765, Control_c, 0, 64, 127
2, 1011769, Note_on_c, 0, 39, 0
2, 1011777, Note_on_c, 0, 34, 0
2, 1011793, Note_on_c, 0, 75, 0
2, 1011801, Note_on_c, 0, 73, 0
2, 1011809, Note_on_c, 0, 82, 0
2, 1011829, Note_on_c, 0, 85, 0
2, 1011861, Control_c, 0, 64, 104
2, 1011877, Control_c, 0, 64, 72
2, 1011893, Control_c, 0, 64, 40
2, 1011909, Control_c, 0, 64, 0
2, 1012017, Note_on_c, 0, 84, 105
2, 1012017, Note_on_c, 0, 72, 100
2, 1012021, Note_on_c, 0, 75, 87
2, 1012021, Note_on_c, 0, 80, 85
2, 1012025, Note_on_c, 0, 44, 84
2, 1012029, Note_on_c, 0, 39, 77
2, 1012029, Note_on_c, 0, 32, 80
2, 1012061, Control_c, 0, 64, 104
2, 1012077, Note_on_c, 0, 39, 0
2, 1012077, Note_on_c, 0, 44, 0
2, 1012077, Control_c, 0, 64, 127
2, 1012081, Note_on_c, 0, 32, 0
2, 1012101, Note_on_c, 0, 72, 0
2, 1012105, Note_on_c, 0, 75, 0
2, 1012117, Note_on_c, 0, 80, 0
2, 1012129, Note_on_c, 0, 84, 0
2, 1012605, Control_c, 0, 64, 104
2, 1012621, Control_c, 0, 64, 88
2, 1012653, Control_c, 0, 64, 72
2, 1012665, Control_c, 0, 64, 56
2, 1012681, Control_c, 0, 64, 40
2, 1012697, Control_c, 0, 64, 24
2, 1012713, Control_c, 0, 64, 0
2, 1014529, Control_c, 0, 64, 24
2, 1014545, Control_c, 0, 64, 56
2, 1014557, Control_c, 0, 64, 104
2, 1014573, Control_c, 0, 64, 127
2, 1014805, Note_on_c, 0, 68, 46
2, 1014825, Note_on_c, 0, 53, 38
2, 1014925, Note_on_c, 0, 53, 0
2, 1015057, Note_on_c, 0, 68, 0
2, 1015065, Note_on_c, 0, 72, 67
2, 1015137, Note_on_c, 0, 72, 0
2, 1015297, Note_on_c, 0, 68, 32
2, 1015321, Note_on_c, 0, 65, 32
2, 1015361, Note_on_c, 0, 65, 0
2, 1015361, Note_on_c, 0, 68, 0
2, 1015489, Note_on_c, 0, 72, 74
2, 1015697, Note_on_c, 0, 72, 0
2, 1015721, Note_on_c, 0, 71, 70
2, 1015757, Note_on_c, 0, 56, 42
2, 1015781, Control_c, 0, 64, 88
2, 1015797, Control_c, 0, 64, 0
2, 1015877, Control_c, 0, 64, 40
2, 1015889, Control_c, 0, 64, 104
2, 1015905, Control_c, 0, 64, 127
2, 1015953, Note_on_c, 0, 72, 83
2, 1015961, Note_on_c, 0, 71, 0
2, 1016017, Note_on_c, 0, 72, 0
2, 1016069, Note_on_c, 0, 56, 0
2, 1016181, Note_on_c, 0, 65, 41
2, 1016189, Note_on_c, 0, 68, 34
2, 1016261, Note_on_c, 0, 65, 0
2, 1016265, Note_on_c, 0, 68, 0
2, 1016369, Note_on_c, 0, 72, 75
2, 1016437, Note_on_c, 0, 72, 0
2, 1016613, Note_on_c, 0, 72, 79
2, 1016649, Control_c, 0, 64, 56
2, 1016653, Note_on_c, 0, 60, 54
2, 1016665, Control_c, 0, 64, 0
2, 1016745, Control_c, 0, 64, 40
2, 1016757, Control_c, 0, 64, 104
2, 1016773, Control_c, 0, 64, 127
2, 1016853, Note_on_c, 0, 80, 77
2, 1016857, Note_on_c, 0, 72, 0
2, 1017097, Note_on_c, 0, 60, 0
2, 1017113, Note_on_c, 0, 70, 30
2, 1017117, Note_on_c, 0, 64, 40
2, 1017333, Note_on_c, 0, 79, 67
2, 1017337, Note_on_c, 0, 80, 0
2, 1017581, Note_on_c, 0, 64, 0
2, 1017609, Note_on_c, 0, 79, 0
2, 1017609, Note_on_c, 0, 77, 63
2, 1017629, Note_on_c, 0, 61, 34
2, 1017673, Control_c, 0, 64, 104
2, 1017689, Control_c, 0, 64, 56
2, 1017701, Control_c, 0, 64, 0
2, 1017713, Note_on_c, 0, 70, 0
2, 1017813, Control_c, 0, 64, 56
2, 1017825, Control_c, 0, 64, 127
2, 1017849, Note_on_c, 0, 77, 0
2, 1018065, Note_on_c, 0, 61, 0
2, 1018073, Note_on_c, 0, 68, 35
2, 1018085, Note_on_c, 0, 65, 33
2, 1018173, Note_on_c, 0, 68, 0
2, 1018177, Note_on_c, 0, 65, 0
2, 1018285, Note_on_c, 0, 77, 77
2, 1018517, Note_on_c, 0, 77, 0
2, 1018533, Note_on_c, 0, 71, 66
2, 1018553, Control_c, 0, 64, 88
2, 1018565, Note_on_c, 0, 62, 48
2, 1018569, Control_c, 0, 64, 0
2, 1018649, Control_c, 0, 64, 24
2, 1018665, Control_c, 0, 64, 88
2, 1018681, Control_c, 0, 64, 127
2, 1018777, Note_on_c, 0, 77, 77
2, 1018897, Note_on_c, 0, 77, 0
2, 1018905, Note_on_c, 0, 71, 0
2, 1018985, Note_on_c, 0, 62, 0
2, 1018997, Note_on_c, 0, 68, 46
2, 1019001, Note_on_c, 0, 65, 45
2, 1019053, Note_on_c, 0, 65, 0
2, 1019077, Note_on_c, 0, 68, 0
2, 1019185, Note_on_c, 0, 77, 80
2, 1019397, Note_on_c, 0, 77, 0
2, 1019413, Note_on_c, 0, 72, 77
2, 1019453, Note_on_c, 0, 63, 32
2, 1019453, Control_c, 0, 64, 88
2, 1019469, Control_c, 0, 64, 0
2, 1019577, Control_c, 0, 64, 56
2, 1019593, Control_c, 0, 64, 127
2, 1019633, Note_on_c, 0, 75, 80
2, 1019669, Note_on_c, 0, 72, 0
2, 1019721, Note_on_c, 0, 75, 0
2, 1019849, Note_on_c, 0, 68, 49
2, 1019921, Note_on_c, 0, 63, 0
2, 1019997, Note_on_c, 0, 68, 0
2, 1020057, Note_on_c, 0, 75, 83
2, 1020169, Note_on_c, 0, 75, 0
2, 1020305, Note_on_c, 0, 75, 83
2, 1020337, Note_on_c, 0, 63, 49
2, 1020337, Control_c, 0, 64, 104
2, 1020353, Control_c, 0, 64, 24
2, 1020365, Control_c, 0, 64, 0
2, 1020445, Control_c, 0, 64, 56
2, 1020461, Control_c, 0, 64, 127
2, 1020553, Note_on_c, 0, 87, 77
2, 1020561, Note_on_c, 0, 84, 74
2, 1020853, Note_on_c, 0, 73, 31
2, 1020865, Note_on_c, 0, 67, 38
2, 1021041, Note_on_c, 0, 84, 0
2, 1021077, Note_on_c, 0, 82, 63
2, 1021129, Note_on_c, 0, 67, 0
2, 1021181, Note_on_c, 0, 73, 0
2, 1021197, Note_on_c, 0, 82, 0
2, 1021385, Note_on_c, 0, 80, 49
2, 1021389, Control_c, 0, 64, 72
2, 1021405, Control_c, 0, 64, 0
2, 1021409, Note_on_c, 0, 68, 30
2, 1021413, Note_on_c, 0, 72, 46
2, 1021497, Control_c, 0, 64, 56
2, 1021513, Control_c, 0, 64, 127
2, 1021525, Note_on_c, 0, 72, 0
2, 1021553, Note_on_c, 0, 68, 0
2, 1021565, Note_on_c, 0, 63, 0
2, 1021889, Note_on_c, 0, 87, 0
2, 1021901, Note_on_c, 0, 56, 39
2, 1021929, Note_on_c, 0, 75, 0
2, 1021957, Note_on_c, 0, 80, 0
2, 1022009, Note_on_c, 0, 56, 0
2, 1022525, Note_on_c, 0, 68, 48
2, 1022537, Control_c, 0, 64, 88
2, 1022549, Control_c, 0, 64, 24
2, 1022561, Note_on_c, 0, 53, 46
2, 1022565, Control_c, 0, 64, 0
2, 1022641, Control_c, 0, 64, 24
2, 1022661, Control_c, 0, 64, 88
2, 1022673, Control_c, 0, 64, 127
2, 1022677, Note_on_c, 0, 53, 0
2, 1022769, Note_on_c, 0, 68, 0
2, 1022797, Note_on_c, 0, 72, 72
2, 1022901, Note_on_c, 0, 72, 0
2, 1023009, Note_on_c, 0, 68, 38
2, 1023021, Note_on_c, 0, 65, 44
2, 1023065, Note_on_c, 0, 65, 0
2, 1023085, Note_on_c, 0, 68, 0
2, 1023213, Note_on_c, 0, 72, 75
2, 1023413, Note_on_c, 0, 72, 0
2, 1023437, Note_on_c, 0, 71, 62
2, 1023437, Note_on_c, 0, 56, 44
2, 1023481, Control_c, 0, 64, 56
2, 1023497, Control_c, 0, 64, 0
2, 1023573, Control_c, 0, 64, 24
2, 1023589, Control_c, 0, 64, 104
2, 1023605, Control_c, 0, 64, 127
2, 1023665, Note_on_c, 0, 71, 0
2, 1023665, Note_on_c, 0, 72, 76
2, 1023765, Note_on_c, 0, 72, 0
2, 1023841, Note_on_c, 0, 56, 0
2, 1023885, Note_on_c, 0, 68, 40
2, 1023897, Note_on_c, 0, 65, 47
2, 1023985, Note_on_c, 0, 68, 0
2, 1023993, Note_on_c, 0, 65, 0
2, 1024093, Note_on_c, 0, 72, 70
2, 1024189, Note_on_c, 0, 72, 0
2, 1024309, Note_on_c, 0, 72, 61
2, 1024317, Note_on_c, 0, 60, 65
2, 1024381, Control_c, 0, 64, 72
2, 1024393, Control_c, 0, 64, 0
2, 1024485, Control_c, 0, 64, 72
2, 1024501, Control_c, 0, 64, 127
2, 1024557, Note_on_c, 0, 80, 67
2, 1024769, Note_on_c, 0, 60, 0
2, 1024781, Note_on_c, 0, 64, 54
2, 1024785, Note_on_c, 0, 70, 38
2, 1024989, Note_on_c, 0, 79, 70
2, 1025013, Note_on_c, 0, 72, 0
2, 1025041, Note_on_c, 0, 80, 0
2, 1025153, Note_on_c, 0, 64, 0
2, 1025229, Note_on_c, 0, 77, 68
2, 1025249, Note_on_c, 0, 79, 0
2, 1025253, Note_on_c, 0, 61, 35
2, 1025309, Control_c, 0, 64, 104
2, 1025325, Control_c, 0, 64, 72
2, 1025337, Control_c, 0, 64, 40
2, 1025353, Control_c, 0, 64, 0
2, 1025425, Note_on_c, 0, 70, 0
2, 1025525, Control_c, 0, 64, 24
2, 1025541, Control_c, 0, 64, 72
2, 1025557, Control_c, 0, 64, 127
2, 1025673, Note_on_c, 0, 77, 0
2, 1025749, Note_on_c, 0, 61, 0
2, 1025761, Note_on_c, 0, 65, 33
2, 1025765, Note_on_c, 0, 68, 29
2, 1025821, Note_on_c, 0, 65, 0
2, 1025837, Note_on_c, 0, 68, 0
2, 1025957, Note_on_c, 0, 77, 74
2, 1026169, Note_on_c, 0, 77, 0
2, 1026197, Note_on_c, 0, 71, 56
2, 1026229, Note_on_c, 0, 62, 36
2, 1026237, Control_c, 0, 64, 104
2, 1026253, Control_c, 0, 64, 24
2, 1026269, Control_c, 0, 64, 0
2, 1026345, Control_c, 0, 64, 40
2, 1026361, Control_c, 0, 64, 127
2, 1026437, Note_on_c, 0, 77, 70
2, 1026525, Note_on_c, 0, 71, 0
2, 1026553, Note_on_c, 0, 77, 0
2, 1026657, Note_on_c, 0, 68, 47
2, 1026661, Note_on_c, 0, 65, 48
2, 1026669, Note_on_c, 0, 62, 0
2, 1026737, Note_on_c, 0, 68, 0
2, 1026749, Note_on_c, 0, 65, 0
2, 1026857, Note_on_c, 0, 77, 76
2, 1027073, Note_on_c, 0, 77, 0
2, 1027089, Note_on_c, 0, 72, 74
2, 1027121, Note_on_c, 0, 63, 33
2, 1027137, Control_c, 0, 64, 40
2, 1027149, Control_c, 0, 64, 0
2, 1027245, Control_c, 0, 64, 56
2, 1027261, Control_c, 0, 64, 127
2, 1027313, Note_on_c, 0, 75, 75
2, 1027341, Note_on_c, 0, 72, 0
2, 1027401, Note_on_c, 0, 75, 0
2, 1027537, Note_on_c, 0, 68, 46
2, 1027589, Note_on_c, 0, 63, 0
2, 1027621, Note_on_c, 0, 68, 0
2, 1027753, Note_on_c, 0, 75, 67
2, 1027837, Note_on_c, 0, 75, 0
2, 1027997, Note_on_c, 0, 75, 70
2, 1028021, Note_on_c, 0, 63, 42
2, 1028049, Control_c, 0, 64, 88
2, 1028065, Control_c, 0, 64, 0
2, 1028157, Control_c, 0, 64, 24
2, 1028173, Control_c, 0, 64, 104
2, 1028189, Control_c, 0, 64, 127
2, 1028265, Note_on_c, 0, 87, 73
2, 1028273, Note_on_c, 0, 84, 69
2, 1028541, Note_on_c, 0, 73, 39
2, 1028565, Note_on_c, 0, 67, 36
2, 1028737, Note_on_c, 0, 84, 0
2, 1028805, Note_on_c, 0, 82, 59
2, 1028853, Note_on_c, 0, 73, 0
2, 1028885, Note_on_c, 0, 67, 0
2, 1028901, Note_on_c, 0, 82, 0
2, 1029117, Control_c, 0, 64, 104
2, 1029121, Note_on_c, 0, 80, 53
2, 1029133, Control_c, 0, 64, 40
2, 1029149, Control_c, 0, 64, 0
2, 1029165, Note_on_c, 0, 68, 32
2, 1029169, Note_on_c, 0, 72, 36
2, 1029225, Control_c, 0, 64, 24
2, 1029241, Control_c, 0, 64, 104
2, 1029257, Control_c, 0, 64, 127
2, 1029269, Note_on_c, 0, 72, 0
2, 1029293, Note_on_c, 0, 68, 0
2, 1029301, Note_on_c, 0, 63, 0
2, 1029689, Note_on_c, 0, 56, 38
2, 1029777, Note_on_c, 0, 75, 0
2, 1029833, Note_on_c, 0, 87, 0
2, 1029853, Note_on_c, 0, 56, 0
2, 1029877, Note_on_c, 0, 80, 0
2, 1030361, Note_on_c, 0, 80, 54
2, 1030381, Note_on_c, 0, 44, 39
2, 1030405, Control_c, 0, 64, 56
2, 1030417, Control_c, 0, 64, 0
2, 1030497, Control_c, 0, 64, 88
2, 1030513, Control_c, 0, 64, 127
2, 1030545, Note_on_c, 0, 44, 0
2, 1030769, Note_on_c, 0, 92, 75
2, 1031069, Note_on_c, 0, 51, 35
2, 1031085, Note_on_c, 0, 60, 25
2, 1031141, Note_on_c, 0, 92, 0
2, 1031145, Note_on_c, 0, 80, 0
2, 1031145, Note_on_c, 0, 60, 0
2, 1031197, Note_on_c, 0, 51, 0
2, 1031325, Note_on_c, 0, 92, 85
2, 1031341, Note_on_c, 0, 80, 64
2, 1031401, Note_on_c, 0, 80, 0
2, 1031425, Note_on_c, 0, 92, 0
2, 1031609, Note_on_c, 0, 92, 82
2, 1031617, Note_on_c, 0, 80, 55
2, 1031633, Note_on_c, 0, 46, 44
2, 1031645, Control_c, 0, 64, 72
2, 1031657, Control_c, 0, 64, 0
2, 1031721, Control_c, 0, 64, 72
2, 1031737, Control_c, 0, 64, 127
2, 1031789, Note_on_c, 0, 80, 0
2, 1031789, Note_on_c, 0, 92, 0
2, 1031805, Note_on_c, 0, 46, 0
2, 1031865, Note_on_c, 0, 91, 78
2, 1031877, Note_on_c, 0, 79, 60
2, 1032013, Note_on_c, 0, 79, 0
2, 1032041, Note_on_c, 0, 91, 0
2, 1032109, Note_on_c, 0, 61, 37
2, 1032113, Note_on_c, 0, 51, 42
2, 1032173, Note_on_c, 0, 61, 0
2, 1032177, Note_on_c, 0, 51, 0
2, 1032313, Note_on_c, 0, 91, 89
2, 1032325, Note_on_c, 0, 79, 67
2, 1032389, Note_on_c, 0, 79, 0
2, 1032417, Note_on_c, 0, 91, 0
2, 1032541, Note_on_c, 0, 91, 83
2, 1032541, Control_c, 0, 64, 104
2, 1032545, Note_on_c, 0, 79, 63
2, 1032557, Control_c, 0, 64, 24
2, 1032573, Control_c, 0, 64, 0
2, 1032585, Note_on_c, 0, 47, 48
2, 1032617, Control_c, 0, 64, 56
2, 1032633, Control_c, 0, 64, 127
2, 1032665, Note_on_c, 0, 79, 0
2, 1032665, Note_on_c, 0, 91, 0
2, 1032673, Note_on_c, 0, 47, 0
2, 1032781, Note_on_c, 0, 89, 82
2, 1032785, Note_on_c, 0, 77, 71
2, 1032929, Note_on_c, 0, 77, 0
2, 1032981, Note_on_c, 0, 89, 0
2, 1033001, Note_on_c, 0, 62, 49
2, 1033001, Note_on_c, 0, 50, 45
2, 1033037, Note_on_c, 0, 62, 0
2, 1033045, Note_on_c, 0, 50, 0
2, 1033181, Note_on_c, 0, 89, 89
2, 1033185, Note_on_c, 0, 77, 74
2, 1033257, Note_on_c, 0, 77, 0
2, 1033273, Note_on_c, 0, 89, 0
2, 1033393, Control_c, 0, 64, 88
2, 1033401, Note_on_c, 0, 89, 90
2, 1033401, Note_on_c, 0, 77, 80
2, 1033405, Control_c, 0, 64, 0
2, 1033429, Note_on_c, 0, 48, 56
2, 1033469, Note_on_c, 0, 48, 0
2, 1033469, Control_c, 0, 64, 24
2, 1033485, Control_c, 0, 64, 104
2, 1033501, Note_on_c, 0, 77, 0
2, 1033501, Control_c, 0, 64, 127
2, 1033525, Note_on_c, 0, 89, 0
2, 1033621, Note_on_c, 0, 87, 82
2, 1033633, Note_on_c, 0, 75, 71
2, 1033773, Note_on_c, 0, 87, 0
2, 1033809, Note_on_c, 0, 63, 45
2, 1033813, Note_on_c, 0, 51, 54
2, 1033849, Note_on_c, 0, 75, 0
2, 1033853, Note_on_c, 0, 51, 0
2, 1033869, Note_on_c, 0, 63, 0
2, 1034009, Note_on_c, 0, 87, 82
2, 1034017, Note_on_c, 0, 75, 70
2, 1034097, Note_on_c, 0, 75, 0
2, 1034097, Note_on_c, 0, 87, 0
2, 1034217, Note_on_c, 0, 87, 82
2, 1034225, Note_on_c, 0, 75, 65
2, 1034229, Control_c, 0, 64, 72
2, 1034245, Control_c, 0, 64, 0
2, 1034269, Note_on_c, 0, 53, 46
2, 1034317, Note_on_c, 0, 75, 0
2, 1034337, Control_c, 0, 64, 127
2, 1034373, Note_on_c, 0, 87, 0
2, 1034409, Note_on_c, 0, 53, 0
2, 1034421, Note_on_c, 0, 85, 85
2, 1034433, Note_on_c, 0, 73, 67
2, 1034541, Note_on_c, 0, 73, 0
2, 1034569, Note_on_c, 0, 85, 0
2, 1034617, Note_on_c, 0, 68, 55
2, 1034625, Note_on_c, 0, 61, 51
2, 1034665, Note_on_c, 0, 68, 0
2, 1034681, Note_on_c, 0, 61, 0
2, 1034809, Note_on_c, 0, 85, 89
2, 1034813, Note_on_c, 0, 73, 74
2, 1034885, Note_on_c, 0, 73, 0
2, 1034893, Note_on_c, 0, 85, 0
2, 1035005, Note_on_c, 0, 85, 83
2, 1035017, Note_on_c, 0, 73, 65
2, 1035037, Control_c, 0, 64, 56
2, 1035041, Note_on_c, 0, 54, 54
2, 1035049, Control_c, 0, 64, 0
2, 1035129, Control_c, 0, 64, 104
2, 1035133, Note_on_c, 0, 73, 0
2, 1035141, Note_on_c, 0, 85, 0
2, 1035145, Control_c, 0, 64, 127
2, 1035189, Note_on_c, 0, 54, 0
2, 1035209, Note_on_c, 0, 84, 89
2, 1035217, Note_on_c, 0, 72, 74
2, 1035321, Note_on_c, 0, 72, 0
2, 1035349, Note_on_c, 0, 84, 0
2, 1035409, Note_on_c, 0, 63, 48
2, 1035417, Note_on_c, 0, 69, 56
2, 1035473, Note_on_c, 0, 69, 0
2, 1035489, Note_on_c, 0, 63, 0
2, 1035613, Note_on_c, 0, 84, 84
2, 1035621, Note_on_c, 0, 72, 73
2, 1035685, Note_on_c, 0, 72, 0
2, 1035705, Note_on_c, 0, 84, 0
2, 1035813, Note_on_c, 0, 84, 81
2, 1035833, Note_on_c, 0, 72, 52
2, 1035841, Control_c, 0, 64, 72
2, 1035845, Note_on_c, 0, 55, 55
2, 1035857, Control_c, 0, 64, 0
2, 1035929, Note_on_c, 0, 72, 0
2, 1035933, Control_c, 0, 64, 88
2, 1035949, Control_c, 0, 64, 127
2, 1035961, Note_on_c, 0, 84, 0
2, 1036037, Note_on_c, 0, 83, 81
2, 1036049, Note_on_c, 0, 71, 56
2, 1036181, Note_on_c, 0, 71, 0
2, 1036265, Note_on_c, 0, 67, 43
2, 1036277, Note_on_c, 0, 62, 44
2, 1036329, Note_on_c, 0, 67, 0
2, 1036329, Note_on_c, 0, 55, 0
2, 1036345, Note_on_c, 0, 62, 0
2, 1036357, Note_on_c, 0, 83, 0
2, 1036473, Note_on_c, 0, 84, 82
2, 1036485, Note_on_c, 0, 72, 66
2, 1036553, Note_on_c, 0, 72, 0
2, 1036553, Note_on_c, 0, 84, 0
2, 1036733, Note_on_c, 0, 83, 75
2, 1036741, Note_on_c, 0, 71, 58
2, 1036753, Control_c, 0, 64, 40
2, 1036769, Control_c, 0, 64, 0
2, 1036773, Note_on_c, 0, 48, 51
2, 1036845, Control_c, 0, 64, 104
2, 1036853, Note_on_c, 0, 71, 0
2, 1036865, Control_c, 0, 64, 127
2, 1036897, Note_on_c, 0, 48, 0
2, 1036933, Note_on_c, 0, 83, 0
2, 1037013, Note_on_c, 0, 82, 68
2, 1037025, Note_on_c, 0, 70, 50
2, 1037201, Control_c, 0, 64, 104
2, 1037237, Control_c, 0, 64, 127
2, 1037313, Note_on_c, 0, 60, 34
2, 1037333, Note_on_c, 0, 64, 29
2, 1037337, Note_on_c, 0, 70, 0
2, 1037461, Note_on_c, 0, 64, 0
2, 1037461, Note_on_c, 0, 60, 0
2, 1037469, Note_on_c, 0, 82, 0
2, 1037613, Note_on_c, 0, 84, 62
2, 1037633, Note_on_c, 0, 72, 47
2, 1037685, Note_on_c, 0, 84, 0
2, 1037689, Note_on_c, 0, 72, 0
2, 1038009, Note_on_c, 0, 68, 51
2, 1038021, Note_on_c, 0, 53, 56
2, 1038041, Control_c, 0, 64, 104
2, 1038057, Control_c, 0, 64, 40
2, 1038073, Control_c, 0, 64, 0
2, 1038149, Control_c, 0, 64, 88
2, 1038165, Control_c, 0, 64, 127
2, 1038217, Note_on_c, 0, 53, 0
2, 1038265, Note_on_c, 0, 68, 0
2, 1038297, Note_on_c, 0, 72, 64
2, 1038377, Note_on_c, 0, 72, 0
2, 1038557, Note_on_c, 0, 68, 34
2, 1038577, Note_on_c, 0, 65, 36
2, 1038617, Note_on_c, 0, 65, 0
2, 1038637, Note_on_c, 0, 68, 0
2, 1038765, Note_on_c, 0, 72, 61
2, 1038949, Note_on_c, 0, 72, 0
2, 1038965, Note_on_c, 0, 56, 55
2, 1038993, Note_on_c, 0, 71, 63
2, 1039045, Control_c, 0, 64, 56
2, 1039061, Control_c, 0, 64, 0
2, 1039141, Control_c, 0, 64, 40
2, 1039157, Control_c, 0, 64, 127
2, 1039217, Note_on_c, 0, 72, 66
2, 1039225, Note_on_c, 0, 71, 0
2, 1039285, Note_on_c, 0, 72, 0
2, 1039417, Note_on_c, 0, 56, 0
2, 1039425, Note_on_c, 0, 65, 46
2, 1039437, Note_on_c, 0, 68, 31
2, 1039597, Note_on_c, 0, 65, 0
2, 1039625, Note_on_c, 0, 72, 67
2, 1039709, Note_on_c, 0, 72, 0
2, 1039809, Note_on_c, 0, 68, 0
2, 1039861, Note_on_c, 0, 60, 66
2, 1039861, Note_on_c, 0, 72, 59
2, 1039929, Control_c, 0, 64, 56
2, 1039945, Control_c, 0, 64, 0
2, 1040037, Control_c, 0, 64, 88
2, 1040053, Control_c, 0, 64, 127
2, 1040089, Note_on_c, 0, 80, 59
2, 1040321, Note_on_c, 0, 70, 38
2, 1040341, Note_on_c, 0, 64, 44
2, 1040409, Note_on_c, 0, 60, 0
2, 1040493, Note_on_c, 0, 72, 0
2, 1040513, Note_on_c, 0, 80, 0
2, 1040529, Note_on_c, 0, 79, 64
2, 1040761, Note_on_c, 0, 64, 0
2, 1040765, Note_on_c, 0, 79, 0
2, 1040765, Note_on_c, 0, 77, 66
2, 1040797, Note_on_c, 0, 61, 42
2, 1040833, Note_on_c, 0, 70, 0
2, 1040889, Control_c, 0, 64, 56
2, 1040905, Control_c, 0, 64, 0
2, 1041029, Control_c, 0, 64, 104
2, 1041045, Control_c, 0, 64, 127
2, 1041057, Note_on_c, 0, 77, 0
2, 1041285, Note_on_c, 0, 68, 30
2, 1041297, Note_on_c, 0, 65, 38
2, 1041369, Note_on_c, 0, 61, 0
2, 1041473, Note_on_c, 0, 77, 70
2, 1041685, Note_on_c, 0, 68, 0
2, 1041717, Note_on_c, 0, 77, 0
2, 1041717, Note_on_c, 0, 65, 0
2, 1041729, Note_on_c, 0, 62, 60
2, 1041745, Note_on_c, 0, 71, 52
2, 1041785, Control_c, 0, 64, 88
2, 1041805, Control_c, 0, 64, 0
2, 1041913, Control_c, 0, 64, 88
2, 1041929, Control_c, 0, 64, 127
2, 1041973, Note_on_c, 0, 77, 70
2, 1042121, Note_on_c, 0, 77, 0
2, 1042133, Note_on_c, 0, 71, 0
2, 1042189, Note_on_c, 0, 65, 56
2, 1042189, Note_on_c, 0, 68, 50
2, 1042213, Note_on_c, 0, 62, 0
2, 1042397, Note_on_c, 0, 77, 70
2, 1042413, Note_on_c, 0, 65, 0
2, 1042477, Note_on_c, 0, 68, 0
2, 1042613, Note_on_c, 0, 77, 0
2, 1042625, Note_on_c, 0, 72, 66
2, 1042649, Note_on_c, 0, 63, 43
2, 1042701, Control_c, 0, 64, 56
2, 1042717, Control_c, 0, 64, 0
2, 1042809, Control_c, 0, 64, 24
2, 1042825, Control_c, 0, 64, 104
2, 1042841, Control_c, 0, 64, 127
2, 1042857, Note_on_c, 0, 75, 69
2, 1042893, Note_on_c, 0, 72, 0
2, 1043017, Note_on_c, 0, 75, 0
2, 1043125, Note_on_c, 0, 68, 44
2, 1043241, Note_on_c, 0, 63, 0
2, 1043337, Note_on_c, 0, 75, 73
2, 1043449, Note_on_c, 0, 75, 0
2, 1043589, Note_on_c, 0, 68, 0
2, 1043601, Note_on_c, 0, 75, 77
2, 1043617, Note_on_c, 0, 63, 40
2, 1043661, Control_c, 0, 64, 88
2, 1043677, Control_c, 0, 64, 0
2, 1043773, Control_c, 0, 64, 72
2, 1043785, Control_c, 0, 64, 127
2, 1043869, Note_on_c, 0, 84, 70
2, 1043885, Note_on_c, 0, 87, 54
2, 1044161, Note_on_c, 0, 67, 39
2, 1044161, Note_on_c, 0, 73, 33
2, 1044373, Note_on_c, 0, 84, 0
2, 1044421, Note_on_c, 0, 82, 54
2, 1044433, Note_on_c, 0, 67, 0
2, 1044449, Note_on_c, 0, 73, 0
2, 1044549, Note_on_c, 0, 82, 0
2, 1044785, Note_on_c, 0, 80, 47
2, 1044809, Control_c, 0, 64, 72
2, 1044821, Control_c, 0, 64, 0
2, 1044833, Note_on_c, 0, 72, 33
2, 1044845, Note_on_c, 0, 68, 26
2, 1044917, Control_c, 0, 64, 72
2, 1044933, Control_c, 0, 64, 127
2, 1044941, Note_on_c, 0, 72, 0
2, 1044969, Note_on_c, 0, 68, 0
2, 1044981, Note_on_c, 0, 63, 0
2, 1045341, Note_on_c, 0, 56, 35
2, 1045421, Note_on_c, 0, 75, 0
2, 1045513, Note_on_c, 0, 80, 0
2, 1045529, Note_on_c, 0, 87, 0
2, 1045533, Note_on_c, 0, 56, 0
2, 1046081, Note_on_c, 0, 80, 45
2, 1046121, Note_on_c, 0, 44, 35
2, 1046125, Control_c, 0, 64, 104
2, 1046141, Control_c, 0, 64, 24
2, 1046157, Control_c, 0, 64, 0
2, 1046217, Control_c, 0, 64, 40
2, 1046233, Control_c, 0, 64, 127
2, 1046281, Note_on_c, 0, 44, 0
2, 1046473, Note_on_c, 0, 92, 73
2, 1046797, Note_on_c, 0, 60, 37
2, 1046813, Note_on_c, 0, 51, 34
2, 1046825, Note_on_c, 0, 92, 0
2, 1046865, Note_on_c, 0, 80, 0
2, 1046897, Note_on_c, 0, 60, 0
2, 1046949, Note_on_c, 0, 51, 0
2, 1047085, Note_on_c, 0, 92, 76
2, 1047101, Note_on_c, 0, 80, 53
2, 1047173, Note_on_c, 0, 80, 0
2, 1047189, Note_on_c, 0, 92, 0
2, 1047381, Note_on_c, 0, 92, 79
2, 1047393, Note_on_c, 0, 80, 60
2, 1047393, Note_on_c, 0, 46, 42
2, 1047409, Control_c, 0, 64, 56
2, 1047425, Control_c, 0, 64, 0
2, 1047485, Control_c, 0, 64, 72
2, 1047501, Control_c, 0, 64, 127
2, 1047565, Note_on_c, 0, 92, 0
2, 1047569, Note_on_c, 0, 80, 0
2, 1047593, Note_on_c, 0, 46, 0
2, 1047657, Note_on_c, 0, 91, 79
2, 1047665, Note_on_c, 0, 79, 66
2, 1047829, Note_on_c, 0, 79, 0
2, 1047849, Note_on_c, 0, 91, 0
2, 1047893, Note_on_c, 0, 61, 38
2, 1047901, Note_on_c, 0, 51, 46
2, 1047953, Note_on_c, 0, 61, 0
2, 1047973, Note_on_c, 0, 51, 0
2, 1048113, Note_on_c, 0, 91, 82
2, 1048125, Note_on_c, 0, 79, 63
2, 1048201, Note_on_c, 0, 79, 0
2, 1048217, Note_on_c, 0, 91, 0
2, 1048341, Control_c, 0, 64, 88
2, 1048353, Note_on_c, 0, 91, 82
2, 1048357, Control_c, 0, 64, 40
2, 1048365, Note_on_c, 0, 79, 53
2, 1048373, Note_on_c, 0, 47, 58
2, 1048373, Control_c, 0, 64, 24
2, 1048385, Control_c, 0, 64, 40
2, 1048401, Control_c, 0, 64, 88
2, 1048417, Control_c, 0, 64, 127
2, 1048453, Note_on_c, 0, 47, 0
2, 1048469, Note_on_c, 0, 79, 0
2, 1048469, Note_on_c, 0, 91, 0
2, 1048593, Note_on_c, 0, 89, 83
2, 1048605, Note_on_c, 0, 77, 66
2, 1048765, Note_on_c, 0, 77, 0
2, 1048785, Note_on_c, 0, 89, 0
2, 1048805, Note_on_c, 0, 62, 49
2, 1048813, Note_on_c, 0, 50, 45
2, 1048861, Note_on_c, 0, 50, 0
2, 1048869, Note_on_c, 0, 62, 0
2, 1048997, Note_on_c, 0, 89, 89
2, 1049009, Note_on_c, 0, 77, 67
2, 1049053, Note_on_c, 0, 77, 0
2, 1049093, Note_on_c, 0, 89, 0
2, 1049217, Note_on_c, 0, 89, 87
2, 1049221, Note_on_c, 0, 77, 73
2, 1049225, Control_c, 0, 64, 72
2, 1049237, Note_on_c, 0, 48, 53
2, 1049237, Control_c, 0, 64, 0
2, 1049285, Control_c, 0, 64, 56
2, 1049301, Control_c, 0, 64, 127
2, 1049305, Note_on_c, 0, 77, 0
2, 1049365, Note_on_c, 0, 89, 0
2, 1049405, Note_on_c, 0, 48, 0
2, 1049445, Note_on_c, 0, 87, 85
2, 1049457, Note_on_c, 0, 75, 68
2, 1049585, Note_on_c, 0, 87, 0
2, 1049589, Note_on_c, 0, 75, 0
2, 1049649, Note_on_c, 0, 51, 55
2, 1049657, Note_on_c, 0, 63, 45
2, 1049697, Note_on_c, 0, 63, 0
2, 1049725, Note_on_c, 0, 51, 0
2, 1049845, Note_on_c, 0, 87, 86
2, 1049853, Note_on_c, 0, 75, 74
2, 1049921, Note_on_c, 0, 75, 0
2, 1049929, Note_on_c, 0, 87, 0
2, 1050057, Note_on_c, 0, 87, 81
2, 1050061, Note_on_c, 0, 75, 65
2, 1050073, Control_c, 0, 64, 56
2, 1050089, Control_c, 0, 64, 0
2, 1050093, Note_on_c, 0, 53, 54
2, 1050169, Control_c, 0, 64, 104
2, 1050177, Note_on_c, 0, 75, 0
2, 1050185, Control_c, 0, 64, 127
2, 1050229, Note_on_c, 0, 87, 0
2, 1050241, Note_on_c, 0, 53, 0
2, 1050273, Note_on_c, 0, 85, 81
2, 1050285, Note_on_c, 0, 73, 56
2, 1050385, Note_on_c, 0, 73, 0
2, 1050425, Note_on_c, 0, 85, 0
2, 1050481, Note_on_c, 0, 68, 49
2, 1050481, Note_on_c, 0, 61, 47
2, 1050521, Note_on_c, 0, 61, 0
2, 1050525, Note_on_c, 0, 68, 0
2, 1050677, Note_on_c, 0, 85, 82
2, 1050689, Note_on_c, 0, 73, 69
2, 1050761, Note_on_c, 0, 73, 0
2, 1050769, Note_on_c, 0, 85, 0
2, 1050885, Note_on_c, 0, 85, 83
2, 1050897, Note_on_c, 0, 73, 65
2, 1050913, Control_c, 0, 64, 24
2, 1050929, Control_c, 0, 64, 0
2, 1050945, Note_on_c, 0, 54, 49
2, 1051005, Control_c, 0, 64, 127
2, 1051037, Note_on_c, 0, 73, 0
2, 1051049, Note_on_c, 0, 85, 0
2, 1051089, Note_on_c, 0, 54, 0
2, 1051093, Note_on_c, 0, 84, 84
2, 1051105, Note_on_c, 0, 72, 69
2, 1051221, Note_on_c, 0, 72, 0
2, 1051265, Note_on_c, 0, 84, 0
2, 1051301, Note_on_c, 0, 69, 59
2, 1051317, Note_on_c, 0, 63, 38
2, 1051369, Note_on_c, 0, 69, 0
2, 1051381, Note_on_c, 0, 63, 0
2, 1051505, Note_on_c, 0, 84, 83
2, 1051509, Note_on_c, 0, 72, 74
2, 1051569, Note_on_c, 0, 72, 0
2, 1051597, Note_on_c, 0, 84, 0
2, 1051701, Control_c, 0, 64, 88
2, 1051713, Note_on_c, 0, 84, 83
2, 1051717, Control_c, 0, 64, 0
2, 1051725, Note_on_c, 0, 72, 66
2, 1051753, Note_on_c, 0, 55, 52
2, 1051797, Control_c, 0, 64, 127
2, 1051813, Note_on_c, 0, 72, 0
2, 1051873, Note_on_c, 0, 84, 0
2, 1051941, Note_on_c, 0, 83, 73
2, 1051949, Note_on_c, 0, 71, 51
2, 1051997, Control_c, 0, 64, 88
2, 1052009, Control_c, 0, 64, 0
2, 1052089, Control_c, 0, 64, 104
2, 1052105, Control_c, 0, 64, 127
2, 1052149, Note_on_c, 0, 71, 0
2, 1052169, Note_on_c, 0, 67, 48
2, 1052193, Note_on_c, 0, 62, 42
2, 1052229, Note_on_c, 0, 67, 0
2, 1052241, Note_on_c, 0, 62, 0
2, 1052269, Note_on_c, 0, 55, 0
2, 1052321, Note_on_c, 0, 83, 0
2, 1052385, Note_on_c, 0, 84, 68
2, 1052397, Note_on_c, 0, 72, 60
2, 1052461, Note_on_c, 0, 84, 0
2, 1052469, Note_on_c, 0, 72, 0
2, 1052629, Note_on_c, 0, 83, 65
2, 1052645, Note_on_c, 0, 71, 36
2, 1052661, Control_c, 0, 64, 24
2, 1052669, Note_on_c, 0, 48, 44
2, 1052677, Control_c, 0, 64, 0
2, 1052741, Control_c, 0, 64, 104
2, 1052757, Control_c, 0, 64, 127
2, 1052773, Note_on_c, 0, 71, 0
2, 1052817, Note_on_c, 0, 48, 0
2, 1052877, Note_on_c, 0, 83, 0
2, 1052933, Note_on_c, 0, 82, 60
2, 1052945, Note_on_c, 0, 70, 44
2, 1053177, Note_on_c, 0, 70, 0
2, 1053265, Note_on_c, 0, 60, 43
2, 1053265, Note_on_c, 0, 64, 30
2, 1053313, Note_on_c, 0, 82, 0
2, 1053393, Note_on_c, 0, 64, 0
2, 1053397, Note_on_c, 0, 60, 0
2, 1053569, Note_on_c, 0, 84, 62
2, 1053585, Note_on_c, 0, 72, 43
2, 1053641, Note_on_c, 0, 84, 0
2, 1053665, Note_on_c, 0, 72, 0
2, 1053957, Note_on_c, 0, 68, 54
2, 1054025, Note_on_c, 0, 53, 32
2, 1054025, Control_c, 0, 64, 40
2, 1054041, Control_c, 0, 64, 0
2, 1054117, Control_c, 0, 64, 104
2, 1054133, Control_c, 0, 64, 127
2, 1054181, Note_on_c, 0, 53, 0
2, 1054273, Note_on_c, 0, 72, 67
2, 1054285, Note_on_c, 0, 68, 0
2, 1054345, Note_on_c, 0, 72, 0
2, 1054497, Note_on_c, 0, 68, 44
2, 1054509, Note_on_c, 0, 65, 49
2, 1054545, Note_on_c, 0, 65, 0
2, 1054581, Note_on_c, 0, 68, 0
2, 1054697, Note_on_c, 0, 72, 74
2, 1054897, Note_on_c, 0, 72, 0
2, 1054917, Note_on_c, 0, 71, 67
2, 1054985, Note_on_c, 0, 56, 42
2, 1054985, Control_c, 0, 64, 104
2, 1055001, Control_c, 0, 64, 40
2, 1055017, Control_c, 0, 64, 0
2, 1055109, Control_c, 0, 64, 40
2, 1055125, Control_c, 0, 64, 127
2, 1055165, Note_on_c, 0, 72, 77
2, 1055205, Note_on_c, 0, 71, 0
2, 1055289, Note_on_c, 0, 72, 0
2, 1055405, Note_on_c, 0, 65, 39
2, 1055405, Note_on_c, 0, 68, 31
2, 1055429, Note_on_c, 0, 56, 0
2, 1055525, Note_on_c, 0, 65, 0
2, 1055549, Note_on_c, 0, 68, 0
2, 1055593, Note_on_c, 0, 72, 81
2, 1055677, Note_on_c, 0, 72, 0
2, 1055813, Note_on_c, 0, 72, 76
2, 1055837, Control_c, 0, 64, 72
2, 1055853, Note_on_c, 0, 60, 40
2, 1055853, Control_c, 0, 64, 0
2, 1055929, Control_c, 0, 64, 40
2, 1055945, Control_c, 0, 64, 127
2, 1056033, Note_on_c, 0, 72, 0
2, 1056049, Note_on_c, 0, 80, 79
2, 1056273, Note_on_c, 0, 60, 0
2, 1056289, Note_on_c, 0, 70, 34
2, 1056301, Note_on_c, 0, 64, 43
2, 1056509, Note_on_c, 0, 80, 0
2, 1056541, Note_on_c, 0, 79, 74
2, 1056553, Note_on_c, 0, 64, 0
2, 1056789, Note_on_c, 0, 70, 0
2, 1056797, Note_on_c, 0, 79, 0
2, 1056817, Note_on_c, 0, 77, 62
2, 1056853, Note_on_c, 0, 61, 34
2, 1056889, Control_c, 0, 64, 72
2, 1056905, Control_c, 0, 64, 0
2, 1057045, Control_c, 0, 64, 104
2, 1057061, Note_on_c, 0, 77, 0
2, 1057061, Control_c, 0, 64, 127
2, 1057313, Note_on_c, 0, 68, 35
2, 1057317, Note_on_c, 0, 65, 33
2, 1057321, Note_on_c, 0, 61, 0
2, 1057425, Note_on_c, 0, 65, 0
2, 1057425, Note_on_c, 0, 68, 0
2, 1057517, Note_on_c, 0, 77, 74
2, 1057717, Note_on_c, 0, 77, 0
2, 1057761, Note_on_c, 0, 71, 60
2, 1057789, Note_on_c, 0, 62, 33
2, 1057805, Control_c, 0, 64, 72
2, 1057821, Control_c, 0, 64, 0
2, 1057913, Control_c, 0, 64, 56
2, 1057929, Control_c, 0, 64, 127
2, 1057989, Note_on_c, 0, 77, 73
2, 1058049, Note_on_c, 0, 71, 0
2, 1058077, Note_on_c, 0, 77, 0
2, 1058209, Note_on_c, 0, 62, 0
2, 1058217, Note_on_c, 0, 68, 48
2, 1058225, Note_on_c, 0, 65, 40
2, 1058309, Note_on_c, 0, 68, 0
2, 1058317, Note_on_c, 0, 65, 0
2, 1058405, Note_on_c, 0, 77, 74
2, 1058613, Note_on_c, 0, 77, 0
2, 1058645, Note_on_c, 0, 72, 71
2, 1058673, Note_on_c, 0, 63, 35
2, 1058705, Control_c, 0, 64, 72
2, 1058717, Control_c, 0, 64, 0
2, 1058845, Control_c, 0, 64, 88
2, 1058857, Control_c, 0, 64, 127
2, 1058873, Note_on_c, 0, 75, 71
2, 1058925, Note_on_c, 0, 72, 0
2, 1059037, Note_on_c, 0, 75, 0
2, 1059137, Note_on_c, 0, 68, 47
2, 1059293, Note_on_c, 0, 63, 0
2, 1059345, Note_on_c, 0, 75, 71
2, 1059433, Note_on_c, 0, 75, 0
2, 1059473, Note_on_c, 0, 68, 0
2, 1059605, Note_on_c, 0, 75, 71
2, 1059633, Note_on_c, 0, 63, 39
2, 1059633, Control_c, 0, 64, 104
2, 1059649, Control_c, 0, 64, 40
2, 1059665, Control_c, 0, 64, 0
2, 1059741, Control_c, 0, 64, 72
2, 1059757, Control_c, 0, 64, 127
2, 1059913, Note_on_c, 0, 87, 65
2, 1059917, Note_on_c, 0, 84, 69
2, 1060237, Note_on_c, 0, 67, 40
2, 1060241, Note_on_c, 0, 73, 34
2, 1060433, Note_on_c, 0, 84, 0
2, 1060501, Note_on_c, 0, 82, 54
2, 1060553, Note_on_c, 0, 67, 0
2, 1060633, Note_on_c, 0, 73, 0
2, 1060661, Note_on_c, 0, 82, 0
2, 1060885, Note_on_c, 0, 80, 48
2, 1060901, Control_c, 0, 64, 104
2, 1060909, Note_on_c, 0, 68, 25
2, 1060917, Control_c, 0, 64, 56
2, 1060925, Note_on_c, 0, 72, 34
2, 1060933, Control_c, 0, 64, 0
2, 1061041, Control_c, 0, 64, 56
2, 1061057, Control_c, 0, 64, 127
2, 1061113, Note_on_c, 0, 72, 0
2, 1061129, Note_on_c, 0, 68, 0
2, 1061145, Note_on_c, 0, 63, 0
2, 1061573, Note_on_c, 0, 56, 35
2, 1061601, Control_c, 0, 64, 88
2, 1061613, Control_c, 0, 64, 56
2, 1061661, Control_c, 0, 64, 127
2, 1061781, Note_on_c, 0, 56, 0
2, 1061817, Note_on_c, 0, 87, 0
2, 1061845, Note_on_c, 0, 75, 0
2, 1061845, Note_on_c, 0, 80, 0
2, 1062313, Control_c, 0, 64, 104
2, 1062329, Control_c, 0, 64, 88
2, 1062345, Control_c, 0, 64, 72
2, 1062357, Control_c, 0, 64, 56
2, 1062373, Control_c, 0, 64, 40
2, 1062389, Control_c, 0, 64, 24
2, 1062421, Control_c, 0, 64, 0
2, 1063297, Control_c, 0, 64, 40
2, 1063313, Control_c, 0, 64, 56
2, 1063329, Control_c, 0, 64, 72
2, 1063345, Control_c, 0, 64, 88
2, 1063393, Control_c, 0, 64, 104
2, 1063437, Control_c, 0, 64, 72
2, 1063453, Control_c, 0, 64, 40
2, 1063469, Control_c, 0, 64, 24
2, 1063533, Control_c, 0, 64, 104
2, 1063545, Control_c, 0, 64, 127
2, 1063649, Note_on_c, 0, 49, 40
2, 1063833, Note_on_c, 0, 56, 25
2, 1063841, Note_on_c, 0, 49, 0
2, 1063857, Note_on_c, 0, 80, 78
2, 1063881, Note_on_c, 0, 56, 0
2, 1063885, Note_on_c, 0, 68, 47
2, 1064025, Note_on_c, 0, 68, 0
2, 1064025, Note_on_c, 0, 80, 0
2, 1064221, Note_on_c, 0, 66, 49
2, 1064241, Note_on_c, 0, 63, 34
2, 1064245, Note_on_c, 0, 56, 31
2, 1064281, Note_on_c, 0, 63, 0
2, 1064313, Note_on_c, 0, 66, 0
2, 1064325, Note_on_c, 0, 56, 0
2, 1064509, Note_on_c, 0, 72, 82
2, 1064517, Note_on_c, 0, 66, 39
2, 1064525, Note_on_c, 0, 56, 36
2, 1064529, Note_on_c, 0, 60, 62
2, 1064557, Note_on_c, 0, 63, 25
2, 1064597, Note_on_c, 0, 63, 0
2, 1064609, Note_on_c, 0, 56, 0
2, 1064617, Note_on_c, 0, 66, 0
2, 1064809, Note_on_c, 0, 66, 43
2, 1064821, Note_on_c, 0, 63, 34
2, 1064829, Note_on_c, 0, 56, 34
2, 1064837, Note_on_c, 0, 60, 0
2, 1064893, Note_on_c, 0, 63, 0
2, 1064905, Note_on_c, 0, 56, 0
2, 1064921, Note_on_c, 0, 66, 0
2, 1064997, Note_on_c, 0, 72, 0
2, 1065089, Note_on_c, 0, 71, 73
2, 1065097, Note_on_c, 0, 59, 59
2, 1065105, Note_on_c, 0, 66, 34
2, 1065125, Note_on_c, 0, 56, 27
2, 1065141, Note_on_c, 0, 63, 23
2, 1065173, Note_on_c, 0, 56, 0
2, 1065185, Note_on_c, 0, 63, 0
2, 1065197, Note_on_c, 0, 66, 0
2, 1065209, Note_on_c, 0, 59, 0
2, 1065381, Note_on_c, 0, 66, 50
2, 1065413, Note_on_c, 0, 56, 26
2, 1065417, Note_on_c, 0, 66, 0
2, 1065453, Note_on_c, 0, 56, 0
2, 1065461, Note_on_c, 0, 71, 0
2, 1065545, Note_on_c, 0, 72, 82
2, 1065553, Note_on_c, 0, 60, 58
2, 1065581, Note_on_c, 0, 60, 0
2, 1065609, Note_on_c, 0, 72, 0
2, 1065701, Control_c, 0, 64, 88
2, 1065709, Note_on_c, 0, 73, 79
2, 1065713, Note_on_c, 0, 61, 43
2, 1065717, Control_c, 0, 64, 0
2, 1065737, Note_on_c, 0, 49, 50
2, 1065833, Note_on_c, 0, 61, 0
2, 1065845, Note_on_c, 0, 49, 0
2, 1065885, Control_c, 0, 64, 88
2, 1065901, Control_c, 0, 64, 127
2, 1066025, Note_on_c, 0, 68, 50
2, 1066045, Note_on_c, 0, 61, 28
2, 1066049, Note_on_c, 0, 65, 38
2, 1066053, Note_on_c, 0, 56, 33
2, 1066097, Note_on_c, 0, 65, 0
2, 1066117, Note_on_c, 0, 61, 0
2, 1066125, Note_on_c, 0, 56, 0
2, 1066253, Note_on_c, 0, 68, 0
2, 1066301, Note_on_c, 0, 67, 62
2, 1066301, Control_c, 0, 64, 88
2, 1066309, Note_on_c, 0, 55, 50
2, 1066313, Note_on_c, 0, 64, 42
2, 1066321, Note_on_c, 0, 73, 0
2, 1066321, Control_c, 0, 64, 40
2, 1066329, Note_on_c, 0, 61, 23
2, 1066353, Note_on_c, 0, 55, 0
2, 1066353, Control_c, 0, 64, 56
2, 1066365, Control_c, 0, 64, 88
2, 1066381, Note_on_c, 0, 64, 0
2, 1066381, Control_c, 0, 64, 127
2, 1066397, Note_on_c, 0, 61, 0
2, 1066521, Control_c, 0, 64, 104
2, 1066529, Note_on_c, 0, 67, 0
2, 1066537, Control_c, 0, 64, 40
2, 1066553, Note_on_c, 0, 68, 65
2, 1066553, Control_c, 0, 64, 0
2, 1066577, Note_on_c, 0, 61, 47
2, 1066589, Note_on_c, 0, 65, 41
2, 1066589, Note_on_c, 0, 56, 38
2, 1066613, Control_c, 0, 64, 56
2, 1066629, Note_on_c, 0, 68, 0
2, 1066629, Control_c, 0, 64, 104
2, 1066637, Note_on_c, 0, 65, 0
2, 1066645, Note_on_c, 0, 56, 0
2, 1066645, Control_c, 0, 64, 127
2, 1066665, Note_on_c, 0, 61, 0
2, 1066737, Control_c, 0, 64, 104
2, 1066753, Control_c, 0, 64, 56
2, 1066765, Note_on_c, 0, 68, 55
2, 1066769, Control_c, 0, 64, 0
2, 1066801, Control_c, 0, 64, 24
2, 1066817, Control_c, 0, 64, 56
2, 1066833, Control_c, 0, 64, 72
2, 1066845, Control_c, 0, 64, 56
2, 1066849, Note_on_c, 0, 68, 0
2, 1066849, Note_on_c, 0, 66, 44
2, 1066861, Note_on_c, 0, 73, 55
2, 1066861, Control_c, 0, 64, 24
2, 1066869, Note_on_c, 0, 58, 42
2, 1066877, Note_on_c, 0, 61, 31
2, 1066877, Control_c, 0, 64, 0
2, 1066917, Note_on_c, 0, 61, 0
2, 1066949, Note_on_c, 0, 66, 0
2, 1066949, Note_on_c, 0, 73, 0
2, 1066957, Control_c, 0, 64, 40
2, 1066961, Note_on_c, 0, 58, 0
2, 1066969, Control_c, 0, 64, 104
2, 1066985, Control_c, 0, 64, 127
2, 1067181, Note_on_c, 0, 68, 48
2, 1067201, Note_on_c, 0, 61, 33
2, 1067201, Note_on_c, 0, 65, 46
2, 1067213, Note_on_c, 0, 56, 34
2, 1067245, Note_on_c, 0, 65, 0
2, 1067257, Note_on_c, 0, 68, 0
2, 1067265, Note_on_c, 0, 61, 0
2, 1067293, Note_on_c, 0, 56, 0
2, 1067529, Control_c, 0, 64, 56
2, 1067545, Control_c, 0, 64, 0
2, 1067557, Note_on_c, 0, 84, 102
2, 1067565, Note_on_c, 0, 72, 90
2, 1067573, Note_on_c, 0, 42, 62
2, 1067577, Note_on_c, 0, 54, 57
2, 1067601, Note_on_c, 0, 42, 0
2, 1067637, Note_on_c, 0, 54, 0
2, 1067637, Control_c, 0, 64, 88
2, 1067653, Control_c, 0, 64, 127
2, 1067849, Note_on_c, 0, 72, 0
2, 1067853, Note_on_c, 0, 52, 61
2, 1067865, Note_on_c, 0, 60, 56
2, 1067865, Note_on_c, 0, 58, 35
2, 1067921, Note_on_c, 0, 52, 0
2, 1067929, Note_on_c, 0, 60, 0
2, 1067965, Note_on_c, 0, 58, 0
2, 1067981, Note_on_c, 0, 84, 0
2, 1068125, Note_on_c, 0, 58, 54
2, 1068133, Note_on_c, 0, 60, 63
2, 1068137, Note_on_c, 0, 52, 50
2, 1068157, Note_on_c, 0, 60, 0
2, 1068177, Note_on_c, 0, 52, 0
2, 1068181, Note_on_c, 0, 58, 0
2, 1068397, Control_c, 0, 64, 104
2, 1068405, Note_on_c, 0, 89, 103
2, 1068409, Control_c, 0, 64, 24
2, 1068417, Note_on_c, 0, 77, 86
2, 1068425, Control_c, 0, 64, 0
2, 1068449, Note_on_c, 0, 53, 64
2, 1068449, Note_on_c, 0, 41, 58
2, 1068497, Note_on_c, 0, 41, 0
2, 1068537, Note_on_c, 0, 53, 0
2, 1068537, Control_c, 0, 64, 72
2, 1068549, Control_c, 0, 64, 127
2, 1068661, Note_on_c, 0, 89, 0
2, 1068681, Note_on_c, 0, 77, 0
2, 1068713, Note_on_c, 0, 53, 58
2, 1068713, Note_on_c, 0, 60, 61
2, 1068713, Note_on_c, 0, 57, 54
2, 1068749, Note_on_c, 0, 53, 0
2, 1068769, Note_on_c, 0, 57, 0
2, 1068785, Note_on_c, 0, 60, 0
2, 1068845, Note_on_c, 0, 87, 87
2, 1068853, Note_on_c, 0, 75, 78
2, 1068901, Note_on_c, 0, 75, 0
2, 1068909, Note_on_c, 0, 87, 0
2, 1068985, Note_on_c, 0, 60, 59
2, 1068989, Note_on_c, 0, 57, 55
2, 1068989, Note_on_c, 0, 53, 59
2, 1069001, Note_on_c, 0, 84, 94
2, 1069005, Note_on_c, 0, 72, 87
2, 1069013, Note_on_c, 0, 60, 0
2, 1069021, Note_on_c, 0, 57, 0
2, 1069033, Note_on_c, 0, 72, 0
2, 1069037, Note_on_c, 0, 53, 0
2, 1069057, Note_on_c, 0, 84, 0
2, 1069125, Note_on_c, 0, 73, 86
2, 1069129, Note_on_c, 0, 85, 90
2, 1069185, Note_on_c, 0, 73, 0
2, 1069193, Note_on_c, 0, 85, 0
2, 1069309, Note_on_c, 0, 82, 88
2, 1069309, Note_on_c, 0, 70, 79
2, 1069309, Control_c, 0, 64, 56
2, 1069325, Control_c, 0, 64, 0
2, 1069349, Note_on_c, 0, 34, 67
2, 1069361, Note_on_c, 0, 46, 55
2, 1069413, Note_on_c, 0, 34, 0
2, 1069425, Note_on_c, 0, 46, 0
2, 1069449, Control_c, 0, 64, 56
2, 1069465, Control_c, 0, 64, 127
2, 1069641, Note_on_c, 0, 53, 54
2, 1069641, Note_on_c, 0, 58, 37
2, 1069645, Note_on_c, 0, 61, 42
2, 1069697, Note_on_c, 0, 53, 0
2, 1069721, Note_on_c, 0, 58, 0
2, 1069725, Note_on_c, 0, 61, 0
2, 1069905, Note_on_c, 0, 53, 53
2, 1069905, Note_on_c, 0, 61, 36
2, 1069905, Note_on_c, 0, 58, 38
2, 1069957, Note_on_c, 0, 53, 0
2, 1069993, Note_on_c, 0, 61, 0
2, 1069993, Note_on_c, 0, 58, 0
2, 1070169, Note_on_c, 0, 61, 51
2, 1070173, Note_on_c, 0, 58, 40
2, 1070185, Note_on_c, 0, 53, 52
2, 1070249, Note_on_c, 0, 53, 0
2, 1070257, Note_on_c, 0, 58, 0
2, 1070269, Note_on_c, 0, 61, 0
2, 1070473, Note_on_c, 0, 61, 35
2, 1070489, Note_on_c, 0, 53, 38
2, 1070489, Note_on_c, 0, 58, 25
2, 1070549, Note_on_c, 0, 53, 0
2, 1070569, Note_on_c, 0, 58, 0
2, 1070581, Note_on_c, 0, 61, 0
2, 1070821, Note_on_c, 0, 61, 23
2, 1070825, Note_on_c, 0, 53, 32
2, 1070829, Note_on_c, 0, 58, 27
2, 1070885, Note_on_c, 0, 53, 0
2, 1070897, Note_on_c, 0, 61, 0
2, 1070897, Note_on_c, 0, 58, 0
2, 1070925, Note_on_c, 0, 82, 0
2, 1070929, Note_on_c, 0, 70, 0
2, 1071189, Note_on_c, 0, 82, 76
2, 1071205, Note_on_c, 0, 70, 56
2, 1071217, Control_c, 0, 64, 72
2, 1071229, Control_c, 0, 64, 0
2, 1071237, Note_on_c, 0, 49, 48
2, 1071245, Note_on_c, 0, 56, 37
2, 1071309, Note_on_c, 0, 49, 0
2, 1071313, Note_on_c, 0, 56, 0
2, 1071337, Control_c, 0, 64, 88
2, 1071353, Control_c, 0, 64, 127
2, 1071477, Note_on_c, 0, 82, 0
2, 1071497, Note_on_c, 0, 70, 0
2, 1071553, Note_on_c, 0, 66, 36
2, 1071557, Note_on_c, 0, 56, 39
2, 1071557, Note_on_c, 0, 60, 49
2, 1071617, Note_on_c, 0, 60, 0
2, 1071617, Note_on_c, 0, 56, 0
2, 1071633, Note_on_c, 0, 66, 0
2, 1071813, Note_on_c, 0, 75, 79
2, 1071833, Note_on_c, 0, 63, 53
2, 1071841, Note_on_c, 0, 66, 26
2, 1071845, Note_on_c, 0, 56, 31
2, 1071849, Note_on_c, 0, 60, 44
2, 1071897, Note_on_c, 0, 60, 0
2, 1071917, Note_on_c, 0, 56, 0
2, 1071925, Note_on_c, 0, 66, 0
2, 1072005, Note_on_c, 0, 63, 0
2, 1072041, Note_on_c, 0, 75, 0
2, 1072093, Note_on_c, 0, 66, 36
2, 1072093, Note_on_c, 0, 56, 36
2, 1072109, Note_on_c, 0, 60, 49
2, 1072149, Note_on_c, 0, 60, 0
2, 1072177, Note_on_c, 0, 56, 0
2, 1072185, Note_on_c, 0, 66, 0
2, 1072337, Note_on_c, 0, 74, 79
2, 1072345, Note_on_c, 0, 62, 60
2, 1072357, Note_on_c, 0, 56, 36
2, 1072361, Note_on_c, 0, 66, 27
2, 1072377, Note_on_c, 0, 60, 44
2, 1072425, Note_on_c, 0, 60, 0
2, 1072425, Note_on_c, 0, 62, 0
2, 1072441, Note_on_c, 0, 66, 0
2, 1072441, Note_on_c, 0, 56, 0
2, 1072481, Note_on_c, 0, 74, 0
2, 1072605, Note_on_c, 0, 66, 47
2, 1072613, Note_on_c, 0, 56, 40
2, 1072617, Note_on_c, 0, 60, 51
2, 1072637, Note_on_c, 0, 66, 0
2, 1072649, Note_on_c, 0, 60, 0
2, 1072697, Note_on_c, 0, 56, 0
2, 1072733, Note_on_c, 0, 75, 71
2, 1072733, Note_on_c, 0, 63, 58
2, 1072777, Note_on_c, 0, 63, 0
2, 1072869, Note_on_c, 0, 75, 0
2, 1072889, Note_on_c, 0, 65, 65
2, 1072949, Control_c, 0, 64, 72
2, 1072965, Control_c, 0, 64, 0
2, 1072973, Note_on_c, 0, 65, 0
2, 1072985, Note_on_c, 0, 77, 70
2, 1072997, Note_on_c, 0, 49, 53
2, 1073061, Note_on_c, 0, 77, 0
2, 1073073, Control_c, 0, 64, 88
2, 1073089, Control_c, 0, 64, 127
2, 1073097, Note_on_c, 0, 49, 0
2, 1073121, Note_on_c, 0, 80, 77
2, 1073121, Note_on_c, 0, 68, 54
2, 1073393, Note_on_c, 0, 65, 42
2, 1073401, Note_on_c, 0, 68, 0
2, 1073405, Note_on_c, 0, 56, 33
2, 1073417, Note_on_c, 0, 61, 29
2, 1073421, Note_on_c, 0, 68, 32
2, 1073445, Note_on_c, 0, 80, 0
2, 1073457, Note_on_c, 0, 61, 0
2, 1073465, Note_on_c, 0, 65, 0
2, 1073489, Note_on_c, 0, 56, 0
2, 1073505, Note_on_c, 0, 68, 0
2, 1073665, Note_on_c, 0, 55, 52
2, 1073669, Note_on_c, 0, 67, 55
2, 1073669, Note_on_c, 0, 64, 43
2, 1073689, Note_on_c, 0, 61, 23
2, 1073729, Note_on_c, 0, 64, 0
2, 1073733, Note_on_c, 0, 61, 0
2, 1073749, Note_on_c, 0, 55, 0
2, 1073869, Note_on_c, 0, 67, 0
2, 1073921, Note_on_c, 0, 68, 62
2, 1073929, Note_on_c, 0, 65, 53
2, 1073929, Note_on_c, 0, 56, 42
2, 1073937, Note_on_c, 0, 61, 35
2, 1073989, Note_on_c, 0, 68, 0
2, 1073993, Note_on_c, 0, 65, 0
2, 1074001, Note_on_c, 0, 56, 0
2, 1074001, Note_on_c, 0, 61, 0
2, 1074113, Note_on_c, 0, 68, 58
2, 1074173, Control_c, 0, 64, 104
2, 1074189, Control_c, 0, 64, 0
2, 1074197, Note_on_c, 0, 66, 50
2, 1074205, Note_on_c, 0, 68, 0
2, 1074205, Note_on_c, 0, 73, 62
2, 1074205, Note_on_c, 0, 58, 45
2, 1074221, Note_on_c, 0, 61, 36
2, 1074249, Note_on_c, 0, 61, 0
2, 1074257, Note_on_c, 0, 66, 0
2, 1074265, Note_on_c, 0, 73, 0
2, 1074277, Note_on_c, 0, 58, 0
2, 1074281, Control_c, 0, 64, 56
2, 1074297, Control_c, 0, 64, 127
2, 1074545, Note_on_c, 0, 68, 55
2, 1074557, Note_on_c, 0, 65, 54
2, 1074569, Note_on_c, 0, 61, 32
2, 1074573, Note_on_c, 0, 56, 35
2, 1074597, Note_on_c, 0, 61, 0
2, 1074601, Note_on_c, 0, 65, 0
2, 1074613, Note_on_c, 0, 68, 0
2, 1074641, Note_on_c, 0, 56, 0
2, 1074873, Control_c, 0, 64, 88
2, 1074889, Control_c, 0, 64, 0
2, 1074901, Note_on_c, 0, 84, 103
2, 1074905, Note_on_c, 0, 72, 92
2, 1074913, Note_on_c, 0, 42, 53
2, 1074917, Note_on_c, 0, 54, 61
2, 1074953, Note_on_c, 0, 42, 0
2, 1074981, Note_on_c, 0, 54, 0
2, 1074981, Control_c, 0, 64, 40
2, 1074997, Control_c, 0, 64, 127
2, 1075185, Note_on_c, 0, 52, 62
2, 1075189, Note_on_c, 0, 60, 63
2, 1075193, Note_on_c, 0, 58, 42
2, 1075221, Note_on_c, 0, 72, 0
2, 1075265, Note_on_c, 0, 52, 0
2, 1075273, Note_on_c, 0, 60, 0
2, 1075281, Note_on_c, 0, 58, 0
2, 1075321, Note_on_c, 0, 84, 0
2, 1075453, Note_on_c, 0, 52, 63
2, 1075457, Note_on_c, 0, 60, 74
2, 1075461, Note_on_c, 0, 58, 46
2, 1075497, Note_on_c, 0, 58, 0
2, 1075497, Note_on_c, 0, 60, 0
2, 1075509, Note_on_c, 0, 52, 0
2, 1075753, Control_c, 0, 64, 56
2, 1075757, Note_on_c, 0, 89, 109
2, 1075757, Note_on_c, 0, 77, 94
2, 1075769, Control_c, 0, 64, 0
2, 1075773, Note_on_c, 0, 41, 64
2, 1075777, Note_on_c, 0, 53, 73
2, 1075817, Note_on_c, 0, 41, 0
2, 1075845, Control_c, 0, 64, 40
2, 1075861, Note_on_c, 0, 53, 0
2, 1075861, Control_c, 0, 64, 127
2, 1075989, Note_on_c, 0, 89, 0
2, 1076017, Note_on_c, 0, 77, 0
2, 1076033, Note_on_c, 0, 53, 69
2, 1076033, Note_on_c, 0, 60, 74
2, 1076037, Note_on_c, 0, 57, 66
2, 1076093, Note_on_c, 0, 53, 0
2, 1076097, Note_on_c, 0, 60, 0
2, 1076105, Note_on_c, 0, 57, 0
2, 1076169, Note_on_c, 0, 87, 88
2, 1076173, Note_on_c, 0, 75, 89
2, 1076229, Note_on_c, 0, 75, 0
2, 1076233, Note_on_c, 0, 87, 0
2, 1076301, Note_on_c, 0, 53, 64
2, 1076305, Note_on_c, 0, 60, 52
2, 1076309, Note_on_c, 0, 57, 43
2, 1076321, Note_on_c, 0, 84, 93
2, 1076325, Note_on_c, 0, 72, 86
2, 1076333, Note_on_c, 0, 60, 0
2, 1076337, Note_on_c, 0, 57, 0
2, 1076349, Note_on_c, 0, 53, 0
2, 1076353, Note_on_c, 0, 72, 0
2, 1076377, Note_on_c, 0, 84, 0
2, 1076453, Note_on_c, 0, 73, 93
2, 1076453, Note_on_c, 0, 85, 96
2, 1076505, Note_on_c, 0, 85, 0
2, 1076505, Note_on_c, 0, 73, 0
2, 1076637, Note_on_c, 0, 82, 87
2, 1076637, Control_c, 0, 64, 56
2, 1076641, Note_on_c, 0, 70, 80
2, 1076653, Control_c, 0, 64, 0
2, 1076661, Note_on_c, 0, 34, 56
2, 1076677, Note_on_c, 0, 46, 57
2, 1076737, Note_on_c, 0, 34, 0
2, 1076749, Note_on_c, 0, 46, 0
2, 1076777, Control_c, 0, 64, 88
2, 1076793, Control_c, 0, 64, 127
2, 1076969, Note_on_c, 0, 61, 36
2, 1076977, Note_on_c, 0, 53, 48
2, 1076977, Note_on_c, 0, 58, 35
2, 1077013, Note_on_c, 0, 53, 0
2, 1077017, Note_on_c, 0, 58, 0
2, 1077041, Note_on_c, 0, 61, 0
2, 1077221, Note_on_c, 0, 61, 45
2, 1077221, Note_on_c, 0, 53, 62
2, 1077229, Note_on_c, 0, 58, 36
2, 1077305, Note_on_c, 0, 58, 0
2, 1077305, Note_on_c, 0, 53, 0
2, 1077309, Note_on_c, 0, 61, 0
2, 1077489, Note_on_c, 0, 61, 54
2, 1077501, Note_on_c, 0, 53, 55
2, 1077513, Note_on_c, 0, 58, 31
2, 1077549, Note_on_c, 0, 58, 0
2, 1077585, Note_on_c, 0, 61, 0
2, 1077585, Note_on_c, 0, 53, 0
2, 1077793, Note_on_c, 0, 61, 34
2, 1077805, Note_on_c, 0, 53, 36
2, 1077817, Note_on_c, 0, 58, 27
2, 1077869, Note_on_c, 0, 58, 0
2, 1077901, Note_on_c, 0, 61, 0
2, 1077917, Note_on_c, 0, 53, 0
2, 1077953, Note_on_c, 0, 70, 0
2, 1078005, Note_on_c, 0, 82, 0
2, 1078129, Note_on_c, 0, 53, 47
2, 1078133, Note_on_c, 0, 61, 29
2, 1078213, Note_on_c, 0, 61, 0
2, 1078217, Note_on_c, 0, 53, 0
2, 1078537, Note_on_c, 0, 85, 88
2, 1078561, Note_on_c, 0, 73, 60
2, 1078573, Note_on_c, 0, 46, 44
2, 1078573, Control_c, 0, 64, 56
2, 1078589, Control_c, 0, 64, 0
2, 1078681, Note_on_c, 0, 46, 0
2, 1078697, Control_c, 0, 64, 104
2, 1078713, Control_c, 0, 64, 127
2, 1078913, Note_on_c, 0, 85, 0
2, 1078917, Note_on_c, 0, 49, 49
2, 1078917, Note_on_c, 0, 61, 40
2, 1078933, Note_on_c, 0, 73, 0
2, 1078933, Note_on_c, 0, 54, 40
2, 1078989, Note_on_c, 0, 49, 0
2, 1078993, Note_on_c, 0, 54, 0
2, 1078997, Note_on_c, 0, 61, 0
2, 1079173, Note_on_c, 0, 82, 86
2, 1079189, Note_on_c, 0, 70, 64
2, 1079193, Note_on_c, 0, 61, 43
2, 1079205, Note_on_c, 0, 49, 37
2, 1079209, Note_on_c, 0, 54, 31
2, 1079249, Note_on_c, 0, 54, 0
2, 1079265, Note_on_c, 0, 49, 0
2, 1079277, Note_on_c, 0, 61, 0
2, 1079413, Note_on_c, 0, 82, 0
2, 1079437, Note_on_c, 0, 70, 0
2, 1079469, Note_on_c, 0, 61, 51
2, 1079477, Note_on_c, 0, 49, 38
2, 1079481, Note_on_c, 0, 54, 38
2, 1079525, Note_on_c, 0, 54, 0
2, 1079549, Note_on_c, 0, 49, 0
2, 1079553, Note_on_c, 0, 61, 0
2, 1079705, Note_on_c, 0, 78, 82
2, 1079717, Note_on_c, 0, 66, 58
2, 1079741, Note_on_c, 0, 61, 32
2, 1079745, Note_on_c, 0, 49, 29
2, 1079745, Note_on_c, 0, 54, 28
2, 1079801, Note_on_c, 0, 54, 0
2, 1079821, Note_on_c, 0, 61, 0
2, 1079825, Note_on_c, 0, 49, 0
2, 1079833, Note_on_c, 0, 66, 0
2, 1079837, Note_on_c, 0, 78, 0
2, 1079993, Note_on_c, 0, 61, 51
2, 1079993, Note_on_c, 0, 49, 46
2, 1080009, Note_on_c, 0, 54, 34
2, 1080041, Note_on_c, 0, 54, 0
2, 1080045, Note_on_c, 0, 61, 0
2, 1080053, Note_on_c, 0, 49, 0
2, 1080113, Note_on_c, 0, 77, 79
2, 1080121, Note_on_c, 0, 65, 64
2, 1080157, Note_on_c, 0, 65, 0
2, 1080173, Note_on_c, 0, 77, 0
2, 1080249, Control_c, 0, 64, 56
2, 1080265, Control_c, 0, 64, 0
2, 1080269, Note_on_c, 0, 76, 79
2, 1080269, Note_on_c, 0, 64, 70
2, 1080309, Note_on_c, 0, 48, 64
2, 1080337, Note_on_c, 0, 48, 0
2, 1080389, Control_c, 0, 64, 88
2, 1080405, Note_on_c, 0, 64, 0
2, 1080405, Control_c, 0, 64, 127
2, 1080501, Note_on_c, 0, 76, 0
2, 1080581, Note_on_c, 0, 67, 55
2, 1080601, Note_on_c, 0, 64, 40
2, 1080601, Note_on_c, 0, 55, 48
2, 1080613, Note_on_c, 0, 60, 39
2, 1080641, Note_on_c, 0, 55, 0
2, 1080649, Note_on_c, 0, 64, 0
2, 1080657, Note_on_c, 0, 60, 0
2, 1080693, Note_on_c, 0, 67, 0
2, 1080837, Control_c, 0, 64, 72
2, 1080853, Note_on_c, 0, 54, 50
2, 1080853, Control_c, 0, 64, 24
2, 1080857, Note_on_c, 0, 66, 54
2, 1080861, Note_on_c, 0, 63, 42
2, 1080869, Note_on_c, 0, 60, 44
2, 1080881, Control_c, 0, 64, 40
2, 1080897, Control_c, 0, 64, 72
2, 1080909, Note_on_c, 0, 60, 0
2, 1080913, Control_c, 0, 64, 127
2, 1080929, Note_on_c, 0, 54, 0
2, 1080941, Note_on_c, 0, 63, 0
2, 1080985, Note_on_c, 0, 66, 0
2, 1081069, Control_c, 0, 64, 104
2, 1081085, Control_c, 0, 64, 24
2, 1081097, Control_c, 0, 64, 0
2, 1081113, Note_on_c, 0, 67, 59
2, 1081133, Note_on_c, 0, 64, 54
2, 1081137, Note_on_c, 0, 60, 48
2, 1081137, Note_on_c, 0, 55, 44
2, 1081157, Note_on_c, 0, 67, 0
2, 1081161, Control_c, 0, 64, 56
2, 1081173, Note_on_c, 0, 55, 0
2, 1081177, Control_c, 0, 64, 104
2, 1081185, Note_on_c, 0, 60, 0
2, 1081185, Note_on_c, 0, 64, 0
2, 1081193, Control_c, 0, 64, 127
2, 1081269, Note_on_c, 0, 67, 67
2, 1081361, Note_on_c, 0, 67, 0
2, 1081369, Note_on_c, 0, 79, 70
2, 1081377, Control_c, 0, 64, 40
2, 1081393, Control_c, 0, 64, 0
2, 1081397, Note_on_c, 0, 65, 54
2, 1081409, Note_on_c, 0, 60, 38
2, 1081417, Note_on_c, 0, 57, 39
2, 1081445, Note_on_c, 0, 79, 0
2, 1081453, Note_on_c, 0, 57, 0
2, 1081453, Note_on_c, 0, 60, 0
2, 1081457, Control_c, 0, 64, 40
2, 1081461, Note_on_c, 0, 65, 0
2, 1081469, Control_c, 0, 64, 127
2, 1081709, Note_on_c, 0, 67, 56
2, 1081713, Note_on_c, 0, 64, 44
2, 1081721, Note_on_c, 0, 55, 27
2, 1081729, Note_on_c, 0, 60, 38
2, 1081777, Note_on_c, 0, 60, 0
2, 1081777, Note_on_c, 0, 64, 0
2, 1081809, Note_on_c, 0, 55, 0
2, 1081833, Note_on_c, 0, 67, 0
2, 1082045, Control_c, 0, 64, 104
2, 1082061, Control_c, 0, 64, 0
2, 1082077, Note_on_c, 0, 79, 100
2, 1082077, Note_on_c, 0, 67, 83
2, 1082085, Note_on_c, 0, 43, 75
2, 1082101, Note_on_c, 0, 55, 62
2, 1082137, Control_c, 0, 64, 72
2, 1082141, Note_on_c, 0, 43, 0
2, 1082153, Control_c, 0, 64, 127
2, 1082157, Note_on_c, 0, 67, 0
2, 1082165, Note_on_c, 0, 55, 0
2, 1082205, Note_on_c, 0, 79, 0
2, 1082353, Note_on_c, 0, 55, 59
2, 1082357, Note_on_c, 0, 62, 59
2, 1082357, Note_on_c, 0, 59, 56
2, 1082405, Note_on_c, 0, 59, 0
2, 1082413, Note_on_c, 0, 55, 0
2, 1082417, Note_on_c, 0, 62, 0
2, 1082469, Note_on_c, 0, 83, 97
2, 1082473, Note_on_c, 0, 71, 80
2, 1082521, Note_on_c, 0, 71, 0
2, 1082525, Note_on_c, 0, 83, 0
2, 1082573, Note_on_c, 0, 59, 62
2, 1082581, Note_on_c, 0, 55, 70
2, 1082597, Note_on_c, 0, 86, 105
2, 1082601, Note_on_c, 0, 59, 0
2, 1082601, Note_on_c, 0, 74, 93
2, 1082609, Note_on_c, 0, 55, 0
2, 1082653, Note_on_c, 0, 74, 0
2, 1082657, Note_on_c, 0, 86, 0
2, 1082725, Control_c, 0, 64, 104
2, 1082741, Control_c, 0, 64, 40
2, 1082757, Control_c, 0, 64, 0
2, 1082873, Note_on_c, 0, 88, 105
2, 1082877, Note_on_c, 0, 76, 94
2, 1082877, Note_on_c, 0, 36, 68
2, 1082881, Note_on_c, 0, 48, 75
2, 1082881, Control_c, 0, 64, 56
2, 1082897, Note_on_c, 0, 36, 0
2, 1082897, Control_c, 0, 64, 127
2, 1082941, Note_on_c, 0, 48, 0
2, 1083049, Note_on_c, 0, 76, 0
2, 1083141, Note_on_c, 0, 60, 68
2, 1083149, Note_on_c, 0, 64, 52
2, 1083149, Note_on_c, 0, 55, 61
2, 1083161, Note_on_c, 0, 88, 0
2, 1083193, Note_on_c, 0, 64, 0
2, 1083197, Note_on_c, 0, 60, 0
2, 1083197, Note_on_c, 0, 55, 0
2, 1083233, Note_on_c, 0, 89, 97
2, 1083241, Note_on_c, 0, 77, 92
2, 1083285, Note_on_c, 0, 77, 0
2, 1083297, Note_on_c, 0, 89, 0
2, 1083337, Note_on_c, 0, 64, 68
2, 1083345, Note_on_c, 0, 55, 73
2, 1083345, Note_on_c, 0, 60, 64
2, 1083349, Note_on_c, 0, 91, 109
2, 1083353, Note_on_c, 0, 79, 97
2, 1083365, Note_on_c, 0, 64, 0
2, 1083373, Note_on_c, 0, 60, 0
2, 1083385, Note_on_c, 0, 55, 0
2, 1083417, Note_on_c, 0, 79, 0
2, 1083449, Note_on_c, 0, 91, 0
2, 1083517, Control_c, 0, 64, 72
2, 1083533, Control_c, 0, 64, 0
2, 1083625, Note_on_c, 0, 93, 114
2, 1083625, Note_on_c, 0, 41, 63
2, 1083625, Note_on_c, 0, 81, 94
2, 1083641, Note_on_c, 0, 53, 64
2, 1083649, Note_on_c, 0, 41, 0
2, 1083657, Control_c, 0, 64, 56
2, 1083673, Control_c, 0, 64, 127
2, 1083681, Note_on_c, 0, 53, 0
2, 1083853, Note_on_c, 0, 81, 0
2, 1083881, Note_on_c, 0, 60, 71
2, 1083885, Note_on_c, 0, 57, 66
2, 1083889, Note_on_c, 0, 53, 62
2, 1083909, Note_on_c, 0, 60, 0
2, 1083921, Note_on_c, 0, 57, 0
2, 1083933, Note_on_c, 0, 53, 0
2, 1083949, Note_on_c, 0, 93, 0
2, 1084057, Control_c, 0, 64, 88
2, 1084073, Control_c, 0, 64, 24
2, 1084089, Control_c, 0, 64, 0
2, 1084153, Note_on_c, 0, 95, 107
2, 1084157, Note_on_c, 0, 83, 92
2, 1084161, Note_on_c, 0, 55, 82
2, 1084169, Note_on_c, 0, 43, 73
2, 1084181, Control_c, 0, 64, 72
2, 1084197, Control_c, 0, 64, 127
2, 1084213, Note_on_c, 0, 55, 0
2, 1084225, Note_on_c, 0, 43, 0
2, 1084233, Note_on_c, 0, 83, 0
2, 1084245, Note_on_c, 0, 95, 0
2, 1084461, Control_c, 0, 64, 40
2, 1084477, Note_on_c, 0, 96, 109
2, 1084477, Control_c, 0, 64, 0
2, 1084485, Note_on_c, 0, 84, 94
2, 1084489, Note_on_c, 0, 36, 67
2, 1084501, Note_on_c, 0, 48, 75
2, 1084553, Note_on_c, 0, 36, 0
2, 1084565, Note_on_c, 0, 48, 0
2, 1084569, Control_c, 0, 64, 72
2, 1084585, Control_c, 0, 64, 127
2, 1084633, Note_on_c, 0, 96, 0
2, 1084637, Note_on_c, 0, 84, 0
2, 1084833, Note_on_c, 0, 97, 102
2, 1084845, Note_on_c, 0, 85, 92
2, 1084849, Control_c, 0, 64, 72
2, 1084865, Control_c, 0, 64, 0
2, 1084869, Note_on_c, 0, 41, 75
2, 1084873, Note_on_c, 0, 53, 74
2, 1084937, Note_on_c, 0, 41, 0
2, 1084969, Note_on_c, 0, 53, 0
2, 1085021, Control_c, 0, 64, 127
2, 1085257, Note_on_c, 0, 63, 65
2, 1085261, Note_on_c, 0, 85, 0
2, 1085261, Note_on_c, 0, 97, 0
2, 1085261, Note_on_c, 0, 53, 59
2, 1085269, Note_on_c, 0, 57, 54
2, 1085301, Note_on_c, 0, 57, 0
2, 1085321, Note_on_c, 0, 63, 0
2, 1085329, Note_on_c, 0, 53, 0
2, 1085401, Note_on_c, 0, 96, 100
2, 1085409, Note_on_c, 0, 84, 82
2, 1085461, Note_on_c, 0, 84, 0
2, 1085469, Note_on_c, 0, 96, 0
2, 1085581, Note_on_c, 0, 94, 85
2, 1085589, Note_on_c, 0, 82, 77
2, 1085617, Note_on_c, 0, 46, 75
2, 1085641, Control_c, 0, 64, 104
2, 1085653, Control_c, 0, 64, 0
2, 1085757, Note_on_c, 0, 46, 0
2, 1085809, Control_c, 0, 64, 127
2, 1085945, Note_on_c, 0, 94, 0
2, 1085949, Note_on_c, 0, 82, 0
2, 1086005, Note_on_c, 0, 61, 38
2, 1086009, Note_on_c, 0, 58, 39
2, 1086009, Note_on_c, 0, 53, 43
2, 1086065, Note_on_c, 0, 61, 0
2, 1086073, Note_on_c, 0, 58, 0
2, 1086077, Note_on_c, 0, 53, 0
2, 1086209, Note_on_c, 0, 89, 93
2, 1086217, Note_on_c, 0, 77, 81
2, 1086249, Note_on_c, 0, 53, 58
2, 1086249, Note_on_c, 0, 61, 37
2, 1086281, Note_on_c, 0, 58, 23
2, 1086301, Note_on_c, 0, 53, 0
2, 1086321, Note_on_c, 0, 58, 0
2, 1086329, Note_on_c, 0, 61, 0
2, 1086409, Note_on_c, 0, 89, 0
2, 1086437, Note_on_c, 0, 77, 0
2, 1086485, Note_on_c, 0, 61, 57
2, 1086489, Note_on_c, 0, 53, 63
2, 1086493, Note_on_c, 0, 58, 44
2, 1086529, Note_on_c, 0, 53, 0
2, 1086581, Note_on_c, 0, 58, 0
2, 1086589, Note_on_c, 0, 61, 0
2, 1086721, Note_on_c, 0, 85, 92
2, 1086733, Note_on_c, 0, 73, 74
2, 1086749, Note_on_c, 0, 61, 39
2, 1086753, Note_on_c, 0, 53, 54
2, 1086761, Note_on_c, 0, 58, 37
2, 1086817, Note_on_c, 0, 58, 0
2, 1086821, Note_on_c, 0, 53, 0
2, 1086825, Note_on_c, 0, 61, 0
2, 1086953, Note_on_c, 0, 73, 0
2, 1086953, Note_on_c, 0, 85, 0
2, 1086997, Note_on_c, 0, 61, 50
2, 1087001, Note_on_c, 0, 58, 40
2, 1087005, Note_on_c, 0, 53, 49
2, 1087037, Note_on_c, 0, 53, 0
2, 1087037, Note_on_c, 0, 58, 0
2, 1087045, Note_on_c, 0, 61, 0
2, 1087133, Note_on_c, 0, 82, 85
2, 1087149, Note_on_c, 0, 70, 61
2, 1087201, Note_on_c, 0, 70, 0
2, 1087225, Note_on_c, 0, 82, 0
2, 1087309, Note_on_c, 0, 80, 80
2, 1087325, Note_on_c, 0, 68, 55
2, 1087349, Note_on_c, 0, 47, 65
2, 1087357, Control_c, 0, 64, 104
2, 1087373, Control_c, 0, 64, 0
2, 1087481, Control_c, 0, 64, 72
2, 1087497, Control_c, 0, 64, 127
2, 1087517, Note_on_c, 0, 47, 0
2, 1087589, Note_on_c, 0, 68, 0
2, 1087641, Note_on_c, 0, 73, 56
2, 1087649, Note_on_c, 0, 65, 41
2, 1087653, Note_on_c, 0, 61, 32
2, 1087665, Note_on_c, 0, 56, 38
2, 1087709, Note_on_c, 0, 65, 0
2, 1087729, Note_on_c, 0, 61, 0
2, 1087761, Note_on_c, 0, 56, 0
2, 1087825, Note_on_c, 0, 73, 0
2, 1087885, Note_on_c, 0, 72, 70
2, 1087893, Note_on_c, 0, 55, 52
2, 1087897, Note_on_c, 0, 64, 44
2, 1087921, Note_on_c, 0, 61, 25
2, 1087965, Note_on_c, 0, 61, 0
2, 1087965, Note_on_c, 0, 64, 0
2, 1087981, Note_on_c, 0, 55, 0
2, 1088089, Note_on_c, 0, 72, 0
2, 1088093, Note_on_c, 0, 80, 0
2, 1088133, Note_on_c, 0, 73, 64
2, 1088149, Note_on_c, 0, 65, 54
2, 1088157, Note_on_c, 0, 56, 38
2, 1088161, Note_on_c, 0, 61, 33
2, 1088197, Note_on_c, 0, 73, 0
2, 1088213, Note_on_c, 0, 65, 0
2, 1088221, Note_on_c, 0, 56, 0
2, 1088253, Note_on_c, 0, 61, 0
2, 1088289, Note_on_c, 0, 73, 73
2, 1088409, Control_c, 0, 64, 24
2, 1088413, Note_on_c, 0, 68, 48
2, 1088421, Note_on_c, 0, 85, 69
2, 1088425, Control_c, 0, 64, 0
2, 1088441, Note_on_c, 0, 59, 44
2, 1088449, Note_on_c, 0, 73, 0
2, 1088497, Note_on_c, 0, 68, 0
2, 1088505, Control_c, 0, 64, 56
2, 1088517, Note_on_c, 0, 59, 0
2, 1088521, Control_c, 0, 64, 127
2, 1088693, Note_on_c, 0, 85, 0
2, 1088749, Note_on_c, 0, 65, 51
2, 1088753, Note_on_c, 0, 61, 34
2, 1088757, Note_on_c, 0, 73, 51
2, 1088765, Note_on_c, 0, 56, 34
2, 1088813, Note_on_c, 0, 65, 0
2, 1088825, Note_on_c, 0, 61, 0
2, 1088845, Note_on_c, 0, 56, 0
2, 1088857, Note_on_c, 0, 73, 0
2, 1089093, Control_c, 0, 64, 56
2, 1089109, Control_c, 0, 64, 0
2, 1089113, Note_on_c, 0, 84, 100
2, 1089117, Note_on_c, 0, 72, 90
2, 1089125, Note_on_c, 0, 48, 74
2, 1089133, Note_on_c, 0, 60, 63
2, 1089153, Note_on_c, 0, 48, 0
2, 1089185, Control_c, 0, 64, 56
2, 1089201, Control_c, 0, 64, 127
2, 1089209, Note_on_c, 0, 60, 0
2, 1089209, Note_on_c, 0, 72, 0
2, 1089253, Note_on_c, 0, 84, 0
2, 1089389, Note_on_c, 0, 64, 51
2, 1089393, Note_on_c, 0, 60, 46
2, 1089393, Note_on_c, 0, 58, 39
2, 1089401, Note_on_c, 0, 55, 45
2, 1089437, Note_on_c, 0, 55, 0
2, 1089445, Note_on_c, 0, 60, 0
2, 1089457, Note_on_c, 0, 64, 0
2, 1089469, Note_on_c, 0, 58, 0
2, 1089505, Note_on_c, 0, 88, 92
2, 1089509, Note_on_c, 0, 76, 81
2, 1089549, Note_on_c, 0, 76, 0
2, 1089553, Note_on_c, 0, 88, 0
2, 1089593, Note_on_c, 0, 64, 79
2, 1089593, Note_on_c, 0, 58, 57
2, 1089601, Note_on_c, 0, 60, 55
2, 1089617, Note_on_c, 0, 55, 51
2, 1089633, Note_on_c, 0, 60, 0
2, 1089641, Note_on_c, 0, 55, 0
2, 1089641, Note_on_c, 0, 64, 0
2, 1089641, Note_on_c, 0, 91, 100
2, 1089641, Note_on_c, 0, 79, 92
2, 1089661, Note_on_c, 0, 58, 0
2, 1089693, Note_on_c, 0, 79, 0
2, 1089697, Note_on_c, 0, 91, 0
2, 1089869, Control_c, 0, 64, 104
2, 1089881, Control_c, 0, 64, 0
2, 1089901, Note_on_c, 0, 92, 102
2, 1089909, Note_on_c, 0, 80, 102
2, 1089913, Note_on_c, 0, 41, 82
2, 1089973, Note_on_c, 0, 41, 0
2, 1089977, Note_on_c, 0, 80, 0
2, 1089993, Control_c, 0, 64, 127
2, 1090029, Note_on_c, 0, 92, 0
2, 1090181, Note_on_c, 0, 56, 53
2, 1090185, Note_on_c, 0, 60, 66
2, 1090185, Note_on_c, 0, 65, 59
2, 1090225, Note_on_c, 0, 65, 0
2, 1090237, Note_on_c, 0, 60, 0
2, 1090269, Note_on_c, 0, 56, 0
2, 1090285, Note_on_c, 0, 94, 87
2, 1090289, Note_on_c, 0, 82, 74
2, 1090337, Note_on_c, 0, 82, 0
2, 1090345, Note_on_c, 0, 94, 0
2, 1090393, Note_on_c, 0, 60, 74
2, 1090401, Note_on_c, 0, 65, 66
2, 1090405, Note_on_c, 0, 56, 56
2, 1090409, Note_on_c, 0, 96, 103
2, 1090413, Note_on_c, 0, 84, 90
2, 1090425, Note_on_c, 0, 65, 0
2, 1090429, Note_on_c, 0, 60, 0
2, 1090457, Note_on_c, 0, 56, 0
2, 1090469, Note_on_c, 0, 84, 0
2, 1090473, Note_on_c, 0, 96, 0
2, 1090505, Control_c, 0, 64, 104
2, 1090517, Control_c, 0, 64, 88
2, 1090533, Control_c, 0, 64, 72
2, 1090549, Control_c, 0, 64, 40
2, 1090565, Control_c, 0, 64, 0
2, 1090689, Note_on_c, 0, 46, 72
2, 1090689, Note_on_c, 0, 97, 90
2, 1090693, Note_on_c, 0, 58, 80
2, 1090701, Note_on_c, 0, 85, 88
2, 1090705, Control_c, 0, 64, 40
2, 1090721, Control_c, 0, 64, 104
2, 1090737, Control_c, 0, 64, 127
2, 1090741, Note_on_c, 0, 58, 0
2, 1090741, Note_on_c, 0, 46, 0
2, 1090753, Note_on_c, 0, 97, 0
2, 1090753, Note_on_c, 0, 85, 0
2, 1090965, Note_on_c, 0, 61, 71
2, 1090965, Note_on_c, 0, 49, 72
2, 1090993, Note_on_c, 0, 49, 0
2, 1091013, Control_c, 0, 64, 104
2, 1091021, Note_on_c, 0, 61, 0
2, 1091029, Control_c, 0, 64, 56
2, 1091045, Control_c, 0, 64, 24
2, 1091061, Control_c, 0, 64, 0
2, 1091237, Note_on_c, 0, 76, 89
2, 1091249, Note_on_c, 0, 64, 78
2, 1091249, Note_on_c, 0, 70, 64
2, 1091249, Control_c, 0, 64, 56
2, 1091257, Note_on_c, 0, 72, 70
2, 1091261, Note_on_c, 0, 60, 62
2, 1091261, Note_on_c, 0, 48, 68
2, 1091261, Control_c, 0, 64, 127
2, 1091285, Note_on_c, 0, 60, 0
2, 1091285, Note_on_c, 0, 72, 0
2, 1091305, Note_on_c, 0, 70, 0
2, 1091305, Note_on_c, 0, 64, 0
2, 1091313, Note_on_c, 0, 48, 0
2, 1091337, Note_on_c, 0, 76, 0
2, 1091433, Control_c, 0, 64, 104
2, 1091449, Control_c, 0, 64, 72
2, 1091465, Control_c, 0, 64, 24
2, 1091481, Control_c, 0, 64, 0
2, 1091557, Note_on_c, 0, 77, 86
2, 1091569, Note_on_c, 0, 65, 65
2, 1091573, Note_on_c, 0, 68, 59
2, 1091573, Note_on_c, 0, 41, 54
2, 1091577, Note_on_c, 0, 72, 67
2, 1091601, Note_on_c, 0, 41, 0
2, 1091601, Note_on_c, 0, 53, 42
2, 1091605, Control_c, 0, 64, 104
2, 1091621, Note_on_c, 0, 65, 0
2, 1091621, Control_c, 0, 64, 127
2, 1091629, Note_on_c, 0, 53, 0
2, 1091633, Note_on_c, 0, 68, 0
2, 1091641, Note_on_c, 0, 72, 0
2, 1091649, Note_on_c, 0, 77, 0
2, 1091929, Note_on_c, 0, 56, 32
2, 1091929, Note_on_c, 0, 60, 43
2, 1091945, Note_on_c, 0, 53, 31
2, 1091961, Control_c, 0, 64, 56
2, 1091977, Control_c, 0, 64, 0
2, 1092037, Control_c, 0, 64, 40
2, 1092053, Control_c, 0, 64, 104
2, 1092069, Control_c, 0, 64, 127
2, 1092073, Note_on_c, 0, 53, 0
2, 1092093, Note_on_c, 0, 60, 0
2, 1092097, Note_on_c, 0, 56, 0
2, 1092237, Note_on_c, 0, 68, 77
2, 1092625, Note_on_c, 0, 49, 49
2, 1092721, Control_c, 0, 64, 56
2, 1092733, Control_c, 0, 64, 0
2, 1092785, Note_on_c, 0, 80, 81
2, 1092821, Note_on_c, 0, 56, 44
2, 1092857, Control_c, 0, 64, 127
2, 1092869, Note_on_c, 0, 49, 0
2, 1092893, Note_on_c, 0, 56, 0
2, 1093093, Note_on_c, 0, 80, 0
2, 1093133, Note_on_c, 0, 68, 0
2, 1093173, Note_on_c, 0, 66, 33
2, 1093181, Note_on_c, 0, 56, 27
2, 1093197, Note_on_c, 0, 63, 32
2, 1093241, Note_on_c, 0, 63, 0
2, 1093265, Note_on_c, 0, 56, 0
2, 1093313, Note_on_c, 0, 66, 0
2, 1093453, Note_on_c, 0, 72, 82
2, 1093457, Note_on_c, 0, 66, 36
2, 1093465, Note_on_c, 0, 56, 32
2, 1093469, Note_on_c, 0, 60, 51
2, 1093485, Note_on_c, 0, 63, 33
2, 1093537, Note_on_c, 0, 63, 0
2, 1093557, Note_on_c, 0, 56, 0
2, 1093565, Note_on_c, 0, 66, 0
2, 1093721, Note_on_c, 0, 60, 0
2, 1093721, Note_on_c, 0, 66, 45
2, 1093725, Note_on_c, 0, 56, 43
2, 1093737, Note_on_c, 0, 63, 35
2, 1093813, Note_on_c, 0, 56, 0
2, 1093817, Note_on_c, 0, 63, 0
2, 1093825, Note_on_c, 0, 66, 0
2, 1093857, Note_on_c, 0, 72, 0
2, 1093989, Note_on_c, 0, 71, 74
2, 1093993, Note_on_c, 0, 66, 58
2, 1094005, Note_on_c, 0, 59, 53
2, 1094009, Note_on_c, 0, 56, 45
2, 1094017, Note_on_c, 0, 63, 39
2, 1094089, Note_on_c, 0, 59, 0
2, 1094097, Note_on_c, 0, 56, 0
2, 1094117, Note_on_c, 0, 63, 0
2, 1094117, Note_on_c, 0, 66, 0
2, 1094285, Note_on_c, 0, 66, 65
2, 1094301, Note_on_c, 0, 63, 40
2, 1094301, Note_on_c, 0, 56, 38
2, 1094333, Note_on_c, 0, 63, 0
2, 1094345, Note_on_c, 0, 66, 0
2, 1094361, Note_on_c, 0, 71, 0
2, 1094373, Note_on_c, 0, 56, 0
2, 1094433, Note_on_c, 0, 72, 84
2, 1094437, Note_on_c, 0, 60, 68
2, 1094473, Note_on_c, 0, 60, 0
2, 1094489, Note_on_c, 0, 72, 0
2, 1094609, Control_c, 0, 64, 104
2, 1094613, Note_on_c, 0, 73, 83
2, 1094617, Note_on_c, 0, 61, 55
2, 1094625, Control_c, 0, 64, 0
2, 1094657, Note_on_c, 0, 49, 58
2, 1094721, Note_on_c, 0, 61, 0
2, 1094741, Note_on_c, 0, 49, 0
2, 1094749, Control_c, 0, 64, 56
2, 1094761, Control_c, 0, 64, 127
2, 1094937, Note_on_c, 0, 68, 51
2, 1094953, Note_on_c, 0, 56, 45
2, 1094957, Note_on_c, 0, 65, 47
2, 1094961, Note_on_c, 0, 61, 31
2, 1095001, Note_on_c, 0, 65, 0
2, 1095013, Note_on_c, 0, 61, 0
2, 1095049, Note_on_c, 0, 56, 0
2, 1095093, Note_on_c, 0, 68, 0
2, 1095185, Control_c, 0, 64, 88
2, 1095193, Note_on_c, 0, 67, 62
2, 1095197, Control_c, 0, 64, 24
2, 1095205, Note_on_c, 0, 55, 56
2, 1095213, Control_c, 0, 64, 0
2, 1095217, Note_on_c, 0, 64, 42
2, 1095261, Note_on_c, 0, 64, 0
2, 1095261, Control_c, 0, 64, 56
2, 1095277, Control_c, 0, 64, 104
2, 1095289, Control_c, 0, 64, 127
2, 1095317, Note_on_c, 0, 55, 0
2, 1095345, Note_on_c, 0, 73, 0
2, 1095361, Note_on_c, 0, 67, 0
2, 1095413, Control_c, 0, 64, 40
2, 1095429, Control_c, 0, 64, 0
2, 1095449, Note_on_c, 0, 68, 52
2, 1095453, Note_on_c, 0, 65, 51
2, 1095461, Note_on_c, 0, 61, 40
2, 1095461, Note_on_c, 0, 56, 42
2, 1095477, Control_c, 0, 64, 24
2, 1095493, Control_c, 0, 64, 72
2, 1095505, Control_c, 0, 64, 127
2, 1095525, Note_on_c, 0, 65, 0
2, 1095533, Note_on_c, 0, 68, 0
2, 1095533, Note_on_c, 0, 61, 0
2, 1095541, Note_on_c, 0, 56, 0
2, 1095601, Control_c, 0, 64, 72
2, 1095609, Note_on_c, 0, 68, 54
2, 1095617, Control_c, 0, 64, 0
2, 1095693, Control_c, 0, 64, 40
2, 1095697, Note_on_c, 0, 68, 0
2, 1095709, Note_on_c, 0, 66, 38
2, 1095709, Control_c, 0, 64, 104
2, 1095713, Note_on_c, 0, 73, 53
2, 1095721, Note_on_c, 0, 58, 35
2, 1095725, Control_c, 0, 64, 127
2, 1095789, Note_on_c, 0, 73, 0
2, 1095817, Note_on_c, 0, 58, 0
2, 1095821, Note_on_c, 0, 66, 0
2, 1096045, Note_on_c, 0, 68, 44
2, 1096053, Note_on_c, 0, 65, 49
2, 1096065, Note_on_c, 0, 61, 30
2, 1096069, Note_on_c, 0, 56, 35
2, 1096093, Note_on_c, 0, 65, 0
2, 1096101, Note_on_c, 0, 61, 0
2, 1096121, Note_on_c, 0, 68, 0
2, 1096137, Note_on_c, 0, 56, 0
2, 1096329, Control_c, 0, 64, 88
2, 1096345, Control_c, 0, 64, 0
2, 1096405, Note_on_c, 0, 84, 103
2, 1096409, Note_on_c, 0, 72, 94
2, 1096413, Note_on_c, 0, 42, 65
2, 1096413, Note_on_c, 0, 54, 69
2, 1096453, Control_c, 0, 64, 88
2, 1096457, Note_on_c, 0, 42, 0
2, 1096465, Note_on_c, 0, 54, 0
2, 1096469, Control_c, 0, 64, 127
2, 1096693, Note_on_c, 0, 72, 0
2, 1096697, Note_on_c, 0, 52, 63
2, 1096701, Note_on_c, 0, 60, 60
2, 1096705, Note_on_c, 0, 58, 42
2, 1096781, Note_on_c, 0, 60, 0
2, 1096781, Note_on_c, 0, 52, 0
2, 1096785, Note_on_c, 0, 84, 0
2, 1096789, Note_on_c, 0, 58, 0
2, 1096965, Note_on_c, 0, 60, 74
2, 1096965, Note_on_c, 0, 52, 66
2, 1096969, Note_on_c, 0, 58, 55
2, 1096989, Note_on_c, 0, 60, 0
2, 1097005, Note_on_c, 0, 58, 0
2, 1097025, Note_on_c, 0, 52, 0
2, 1097229, Control_c, 0, 64, 56
2, 1097241, Control_c, 0, 64, 0
2, 1097253, Note_on_c, 0, 89, 107
2, 1097253, Note_on_c, 0, 77, 96
2, 1097257, Note_on_c, 0, 41, 75
2, 1097265, Note_on_c, 0, 53, 71
2, 1097313, Note_on_c, 0, 41, 0
2, 1097337, Note_on_c, 0, 53, 0
2, 1097349, Control_c, 0, 64, 88
2, 1097365, Control_c, 0, 64, 127
2, 1097489, Note_on_c, 0, 89, 0
2, 1097513, Note_on_c, 0, 77, 0
2, 1097537, Note_on_c, 0, 53, 63
2, 1097541, Note_on_c, 0, 60, 68
2, 1097541, Note_on_c, 0, 57, 63
2, 1097585, Note_on_c, 0, 53, 0
2, 1097601, Note_on_c, 0, 60, 0
2, 1097605, Note_on_c, 0, 57, 0
2, 1097661, Note_on_c, 0, 87, 95
2, 1097669, Note_on_c, 0, 75, 82
2, 1097721, Note_on_c, 0, 75, 0
2, 1097721, Note_on_c, 0, 87, 0
2, 1097789, Note_on_c, 0, 60, 60
2, 1097789, Note_on_c, 0, 57, 59
2, 1097793, Note_on_c, 0, 53, 66
2, 1097813, Note_on_c, 0, 84, 97
2, 1097817, Note_on_c, 0, 60, 0
2, 1097821, Note_on_c, 0, 57, 0
2, 1097821, Note_on_c, 0, 72, 90
2, 1097841, Note_on_c, 0, 53, 0
2, 1097845, Note_on_c, 0, 72, 0
2, 1097861, Note_on_c, 0, 84, 0
2, 1097941, Note_on_c, 0, 73, 89
2, 1097941, Note_on_c, 0, 85, 89
2, 1097997, Note_on_c, 0, 85, 0
2, 1097997, Note_on_c, 0, 73, 0
2, 1098109, Control_c, 0, 64, 24
2, 1098113, Note_on_c, 0, 82, 87
2, 1098113, Note_on_c, 0, 70, 84
2, 1098125, Control_c, 0, 64, 0
2, 1098137, Note_on_c, 0, 34, 60
2, 1098145, Note_on_c, 0, 46, 56
2, 1098197, Note_on_c, 0, 34, 0
2, 1098205, Note_on_c, 0, 46, 0
2, 1098217, Control_c, 0, 64, 56
2, 1098233, Control_c, 0, 64, 127
2, 1098413, Note_on_c, 0, 61, 45
2, 1098413, Note_on_c, 0, 58, 44
2, 1098441, Note_on_c, 0, 53, 36
2, 1098481, Note_on_c, 0, 58, 0
2, 1098485, Note_on_c, 0, 61, 0
2, 1098485, Note_on_c, 0, 53, 0
2, 1098669, Note_on_c, 0, 61, 42
2, 1098677, Note_on_c, 0, 53, 53
2, 1098677, Note_on_c, 0, 58, 35
2, 1098733, Note_on_c, 0, 58, 0
2, 1098737, Note_on_c, 0, 53, 0
2, 1098749, Note_on_c, 0, 61, 0
2, 1098941, Note_on_c, 0, 61, 39
2, 1098949, Note_on_c, 0, 53, 52
2, 1098949, Note_on_c, 0, 58, 28
2, 1098997, Note_on_c, 0, 58, 0
2, 1099025, Note_on_c, 0, 61, 0
2, 1099029, Note_on_c, 0, 53, 0
2, 1099221, Note_on_c, 0, 61, 37
2, 1099229, Note_on_c, 0, 53, 51
2, 1099229, Note_on_c, 0, 58, 31
2, 1099281, Note_on_c, 0, 58, 0
2, 1099301, Note_on_c, 0, 53, 0
2, 1099305, Note_on_c, 0, 61, 0
2, 1099533, Note_on_c, 0, 61, 33
2, 1099561, Note_on_c, 0, 53, 27
2, 1099573, Note_on_c, 0, 58, 22
2, 1099605, Note_on_c, 0, 53, 0
2, 1099613, Note_on_c, 0, 61, 0
2, 1099613, Note_on_c, 0, 58, 0
2, 1099669, Note_on_c, 0, 70, 0
2, 1099673, Note_on_c, 0, 82, 0
2, 1099981, Note_on_c, 0, 82, 71
2, 1099993, Note_on_c, 0, 70, 51
2, 1100021, Note_on_c, 0, 49, 47
2, 1100033, Control_c, 0, 64, 40
2, 1100041, Note_on_c, 0, 56, 39
2, 1100049, Control_c, 0, 64, 0
2, 1100117, Note_on_c, 0, 49, 0
2, 1100133, Note_on_c, 0, 56, 0
2, 1100141, Control_c, 0, 64, 104
2, 1100157, Control_c, 0, 64, 127
2, 1100241, Note_on_c, 0, 82, 0
2, 1100265, Note_on_c, 0, 70, 0
2, 1100345, Note_on_c, 0, 66, 46
2, 1100353, Note_on_c, 0, 60, 48
2, 1100369, Note_on_c, 0, 56, 26
2, 1100413, Note_on_c, 0, 56, 0
2, 1100421, Note_on_c, 0, 60, 0
2, 1100441, Note_on_c, 0, 66, 0
2, 1100601, Note_on_c, 0, 75, 79
2, 1100609, Note_on_c, 0, 63, 53
2, 1100621, Note_on_c, 0, 66, 49
2, 1100637, Note_on_c, 0, 60, 43
2, 1100641, Note_on_c, 0, 56, 31
2, 1100693, Note_on_c, 0, 60, 0
2, 1100701, Note_on_c, 0, 56, 0
2, 1100709, Note_on_c, 0, 66, 0
2, 1100829, Note_on_c, 0, 63, 0
2, 1100861, Note_on_c, 0, 75, 0
2, 1100865, Note_on_c, 0, 66, 55
2, 1100881, Note_on_c, 0, 60, 54
2, 1100885, Note_on_c, 0, 56, 46
2, 1100965, Note_on_c, 0, 60, 0
2, 1100977, Note_on_c, 0, 56, 0
2, 1100981, Note_on_c, 0, 66, 0
2, 1101105, Note_on_c, 0, 74, 84
2, 1101109, Note_on_c, 0, 62, 63
2, 1101133, Note_on_c, 0, 66, 36
2, 1101141, Note_on_c, 0, 56, 35
2, 1101153, Note_on_c, 0, 60, 40
2, 1101197, Note_on_c, 0, 60, 0
2, 1101209, Note_on_c, 0, 66, 0
2, 1101209, Note_on_c, 0, 62, 0
2, 1101217, Note_on_c, 0, 56, 0
2, 1101325, Note_on_c, 0, 74, 0
2, 1101365, Note_on_c, 0, 66, 54
2, 1101381, Note_on_c, 0, 56, 46
2, 1101389, Note_on_c, 0, 60, 48
2, 1101401, Note_on_c, 0, 66, 0
2, 1101417, Note_on_c, 0, 60, 0
2, 1101445, Note_on_c, 0, 56, 0
2, 1101497, Note_on_c, 0, 63, 49
2, 1101501, Note_on_c, 0, 75, 70
2, 1101529, Note_on_c, 0, 63, 0
2, 1101605, Note_on_c, 0, 75, 0
2, 1101633, Note_on_c, 0, 65, 73
2, 1101717, Note_on_c, 0, 65, 0
2, 1101717, Control_c, 0, 64, 56
2, 1101721, Note_on_c, 0, 77, 74
2, 1101737, Control_c, 0, 64, 0
2, 1101753, Note_on_c, 0, 49, 56
2, 1101777, Note_on_c, 0, 77, 0
2, 1101829, Control_c, 0, 64, 127
2, 1101849, Note_on_c, 0, 49, 0
2, 1101853, Note_on_c, 0, 68, 34
2, 1101861, Note_on_c, 0, 80, 77
2, 1101969, Note_on_c, 0, 68, 0
2, 1102121, Note_on_c, 0, 65, 49
2, 1102129, Note_on_c, 0, 56, 36
2, 1102133, Note_on_c, 0, 61, 35
2, 1102141, Note_on_c, 0, 68, 42
2, 1102153, Note_on_c, 0, 80, 0
2, 1102177, Note_on_c, 0, 61, 0
2, 1102185, Note_on_c, 0, 65, 0
2, 1102217, Note_on_c, 0, 56, 0
2, 1102237, Note_on_c, 0, 68, 0
2, 1102413, Note_on_c, 0, 67, 57
2, 1102421, Note_on_c, 0, 55, 44
2, 1102425, Note_on_c, 0, 64, 40
2, 1102457, Note_on_c, 0, 61, 25
2, 1102489, Note_on_c, 0, 64, 0
2, 1102493, Note_on_c, 0, 61, 0
2, 1102509, Note_on_c, 0, 55, 0
2, 1102625, Note_on_c, 0, 67, 0
2, 1102677, Note_on_c, 0, 65, 59
2, 1102685, Note_on_c, 0, 56, 47
2, 1102685, Note_on_c, 0, 68, 44
2, 1102685, Note_on_c, 0, 61, 44
2, 1102741, Note_on_c, 0, 68, 0
2, 1102749, Note_on_c, 0, 65, 0
2, 1102757, Note_on_c, 0, 56, 0
2, 1102757, Note_on_c, 0, 61, 0
2, 1102813, Note_on_c, 0, 68, 65
2, 1102897, Note_on_c, 0, 68, 0
2, 1102957, Note_on_c, 0, 66, 61
2, 1102961, Note_on_c, 0, 73, 47
2, 1102973, Note_on_c, 0, 58, 44
2, 1102981, Note_on_c, 0, 61, 42
2, 1103005, Control_c, 0, 64, 72
2, 1103021, Control_c, 0, 64, 0
2, 1103077, Note_on_c, 0, 61, 0
2, 1103085, Note_on_c, 0, 66, 0
2, 1103101, Control_c, 0, 64, 72
2, 1103113, Control_c, 0, 64, 127
2, 1103137, Note_on_c, 0, 58, 0
2, 1103305, Note_on_c, 0, 65, 59
2, 1103309, Note_on_c, 0, 68, 44
2, 1103313, Note_on_c, 0, 61, 38
2, 1103317, Note_on_c, 0, 56, 42
2, 1103377, Note_on_c, 0, 73, 0
2, 1103381, Note_on_c, 0, 65, 0
2, 1103381, Note_on_c, 0, 68, 0
2, 1103389, Note_on_c, 0, 61, 0
2, 1103417, Note_on_c, 0, 56, 0
2, 1103657, Control_c, 0, 64, 72
2, 1103673, Control_c, 0, 64, 0
2, 1103681, Note_on_c, 0, 84, 96
2, 1103689, Note_on_c, 0, 72, 85
2, 1103701, Note_on_c, 0, 54, 71
2, 1103701, Note_on_c, 0, 42, 64
2, 1103745, Note_on_c, 0, 42, 0
2, 1103753, Note_on_c, 0, 54, 0
2, 1103765, Control_c, 0, 64, 88
2, 1103781, Control_c, 0, 64, 127
2, 1103957, Note_on_c, 0, 72, 0
2, 1103985, Note_on_c, 0, 60, 65
2, 1103993, Note_on_c, 0, 52, 52
2, 1103993, Note_on_c, 0, 58, 43
2, 1104049, Note_on_c, 0, 52, 0
2, 1104061, Note_on_c, 0, 60, 0
2, 1104065, Note_on_c, 0, 84, 0
2, 1104077, Note_on_c, 0, 58, 0
2, 1104253, Note_on_c, 0, 58, 58
2, 1104261, Note_on_c, 0, 60, 66
2, 1104265, Note_on_c, 0, 52, 62
2, 1104289, Note_on_c, 0, 60, 0
2, 1104309, Note_on_c, 0, 58, 0
2, 1104325, Note_on_c, 0, 52, 0
2, 1104525, Control_c, 0, 64, 104
2, 1104541, Note_on_c, 0, 89, 100
2, 1104541, Control_c, 0, 64, 24
2, 1104549, Note_on_c, 0, 77, 89
2, 1104557, Control_c, 0, 64, 0
2, 1104561, Note_on_c, 0, 41, 69
2, 1104569, Note_on_c, 0, 53, 81
2, 1104609, Note_on_c, 0, 41, 0
2, 1104633, Control_c, 0, 64, 88
2, 1104641, Note_on_c, 0, 53, 0
2, 1104649, Control_c, 0, 64, 127
2, 1104749, Note_on_c, 0, 89, 0
2, 1104781, Note_on_c, 0, 77, 0
2, 1104821, Note_on_c, 0, 60, 72
2, 1104821, Note_on_c, 0, 53, 66
2, 1104821, Note_on_c, 0, 57, 62
2, 1104897, Note_on_c, 0, 53, 0
2, 1104901, Note_on_c, 0, 57, 0
2, 1104901, Note_on_c, 0, 60, 0
2, 1104961, Note_on_c, 0, 87, 90
2, 1104965, Note_on_c, 0, 75, 88
2, 1105017, Note_on_c, 0, 75, 0
2, 1105021, Note_on_c, 0, 87, 0
2, 1105081, Note_on_c, 0, 60, 72
2, 1105081, Note_on_c, 0, 57, 64
2, 1105085, Note_on_c, 0, 53, 64
2, 1105113, Note_on_c, 0, 60, 0
2, 1105113, Note_on_c, 0, 84, 92
2, 1105121, Note_on_c, 0, 72, 85
2, 1105125, Note_on_c, 0, 57, 0
2, 1105145, Note_on_c, 0, 72, 0
2, 1105149, Note_on_c, 0, 53, 0
2, 1105165, Note_on_c, 0, 84, 0
2, 1105229, Note_on_c, 0, 85, 91
2, 1105233, Note_on_c, 0, 73, 95
2, 1105285, Note_on_c, 0, 73, 0
2, 1105289, Note_on_c, 0, 85, 0
2, 1105377, Control_c, 0, 64, 40
2, 1105389, Control_c, 0, 64, 0
2, 1105397, Note_on_c, 0, 82, 85
2, 1105405, Note_on_c, 0, 70, 83
2, 1105417, Note_on_c, 0, 34, 64
2, 1105421, Note_on_c, 0, 46, 62
2, 1105465, Note_on_c, 0, 34, 0
2, 1105473, Note_on_c, 0, 46, 0
2, 1105501, Control_c, 0, 64, 104
2, 1105517, Control_c, 0, 64, 127
2, 1105697, Note_on_c, 0, 61, 53
2, 1105705, Note_on_c, 0, 53, 59
2, 1105725, Note_on_c, 0, 58, 32
2, 1105761, Note_on_c, 0, 58, 0
2, 1105773, Note_on_c, 0, 53, 0
2, 1105777, Note_on_c, 0, 61, 0
2, 1105961, Note_on_c, 0, 53, 56
2, 1105961, Note_on_c, 0, 61, 39
2, 1105965, Note_on_c, 0, 58, 33
2, 1106025, Note_on_c, 0, 70, 0
2, 1106041, Note_on_c, 0, 53, 0
2, 1106049, Note_on_c, 0, 58, 0
2, 1106053, Note_on_c, 0, 61, 0
2, 1106057, Note_on_c, 0, 82, 0
2, 1106225, Note_on_c, 0, 61, 43
2, 1106241, Note_on_c, 0, 53, 44
2, 1106241, Note_on_c, 0, 58, 28
2, 1106293, Note_on_c, 0, 58, 0
2, 1106293, Note_on_c, 0, 53, 0
2, 1106317, Note_on_c, 0, 61, 0
2, 1106509, Note_on_c, 0, 61, 27
2, 1106517, Note_on_c, 0, 53, 37
2, 1106517, Note_on_c, 0, 58, 25
2, 1106577, Note_on_c, 0, 58, 0
2, 1106597, Note_on_c, 0, 61, 0
2, 1106617, Note_on_c, 0, 53, 0
2, 1106825, Note_on_c, 0, 53, 50
2, 1106829, Note_on_c, 0, 61, 35
2, 1106845, Note_on_c, 0, 58, 28
2, 1106897, Note_on_c, 0, 61, 0
2, 1106901, Note_on_c, 0, 58, 0
2, 1106913, Note_on_c, 0, 53, 0
2, 1107253, Note_on_c, 0, 85, 85
2, 1107265, Note_on_c, 0, 73, 64
2, 1107285, Note_on_c, 0, 46, 48
2, 1107297, Control_c, 0, 64, 72
2, 1107313, Control_c, 0, 64, 0
2, 1107381, Note_on_c, 0, 46, 0
2, 1107393, Control_c, 0, 64, 40
2, 1107405, Control_c, 0, 64, 127
2, 1107529, Note_on_c, 0, 85, 0
2, 1107541, Note_on_c, 0, 73, 0
2, 1107589, Note_on_c, 0, 61, 35
2, 1107601, Note_on_c, 0, 49, 38
2, 1107605, Note_on_c, 0, 54, 35
2, 1107661, Note_on_c, 0, 54, 0
2, 1107665, Note_on_c, 0, 49, 0
2, 1107669, Note_on_c, 0, 61, 0
2, 1107829, Note_on_c, 0, 82, 80
2, 1107845, Note_on_c, 0, 70, 61
2, 1107853, Note_on_c, 0, 61, 36
2, 1107861, Note_on_c, 0, 49, 30
2, 1107865, Note_on_c, 0, 54, 33
2, 1107925, Note_on_c, 0, 49, 0
2, 1107929, Note_on_c, 0, 54, 0
2, 1107941, Note_on_c, 0, 61, 0
2, 1108025, Note_on_c, 0, 82, 0
2, 1108057, Note_on_c, 0, 70, 0
2, 1108113, Note_on_c, 0, 61, 47
2, 1108121, Note_on_c, 0, 49, 37
2, 1108133, Note_on_c, 0, 54, 34
2, 1108173, Note_on_c, 0, 54, 0
2, 1108193, Note_on_c, 0, 49, 0
2, 1108209, Note_on_c, 0, 61, 0
2, 1108365, Note_on_c, 0, 78, 77
2, 1108377, Note_on_c, 0, 66, 62
2, 1108385, Note_on_c, 0, 61, 32
2, 1108389, Note_on_c, 0, 49, 32
2, 1108401, Note_on_c, 0, 54, 28
2, 1108477, Note_on_c, 0, 61, 0
2, 1108481, Note_on_c, 0, 49, 0
2, 1108481, Note_on_c, 0, 54, 0
2, 1108517, Note_on_c, 0, 78, 0
2, 1108521, Note_on_c, 0, 66, 0
2, 1108653, Note_on_c, 0, 61, 38
2, 1108669, Note_on_c, 0, 49, 33
2, 1108673, Note_on_c, 0, 54, 35
2, 1108705, Note_on_c, 0, 49, 0
2, 1108717, Note_on_c, 0, 54, 0
2, 1108721, Note_on_c, 0, 61, 0
2, 1108777, Note_on_c, 0, 77, 83
2, 1108785, Note_on_c, 0, 65, 65
2, 1108837, Note_on_c, 0, 65, 0
2, 1108849, Note_on_c, 0, 77, 0
2, 1108925, Control_c, 0, 64, 88
2, 1108941, Control_c, 0, 64, 0
2, 1108945, Note_on_c, 0, 64, 72
2, 1108945, Note_on_c, 0, 76, 74
2, 1108977, Note_on_c, 0, 48, 56
2, 1109017, Note_on_c, 0, 48, 0
2, 1109049, Control_c, 0, 64, 72
2, 1109065, Control_c, 0, 64, 127
2, 1109149, Note_on_c, 0, 64, 0
2, 1109253, Note_on_c, 0, 55, 58
2, 1109257, Note_on_c, 0, 67, 59
2, 1109257, Note_on_c, 0, 64, 45
2, 1109265, Note_on_c, 0, 60, 58
2, 1109269, Note_on_c, 0, 76, 0
2, 1109305, Note_on_c, 0, 55, 0
2, 1109313, Note_on_c, 0, 60, 0
2, 1109317, Note_on_c, 0, 64, 0
2, 1109429, Note_on_c, 0, 67, 0
2, 1109497, Control_c, 0, 64, 104
2, 1109513, Note_on_c, 0, 54, 47
2, 1109513, Control_c, 0, 64, 40
2, 1109525, Note_on_c, 0, 63, 48
2, 1109525, Control_c, 0, 64, 0
2, 1109533, Note_on_c, 0, 66, 65
2, 1109541, Note_on_c, 0, 60, 45
2, 1109577, Control_c, 0, 64, 56
2, 1109593, Note_on_c, 0, 60, 0
2, 1109593, Note_on_c, 0, 54, 0
2, 1109593, Control_c, 0, 64, 104
2, 1109605, Control_c, 0, 64, 127
2, 1109645, Note_on_c, 0, 63, 0
2, 1109697, Note_on_c, 0, 66, 0
2, 1109761, Control_c, 0, 64, 40
2, 1109777, Control_c, 0, 64, 0
2, 1109797, Note_on_c, 0, 67, 64
2, 1109813, Note_on_c, 0, 64, 52
2, 1109817, Note_on_c, 0, 55, 49
2, 1109817, Note_on_c, 0, 60, 47
2, 1109837, Control_c, 0, 64, 56
2, 1109853, Note_on_c, 0, 67, 0
2, 1109857, Control_c, 0, 64, 104
2, 1109861, Note_on_c, 0, 55, 0
2, 1109869, Note_on_c, 0, 60, 0
2, 1109869, Control_c, 0, 64, 127
2, 1109873, Note_on_c, 0, 64, 0
2, 1109949, Note_on_c, 0, 67, 60
2, 1110041, Control_c, 0, 64, 104
2, 1110057, Control_c, 0, 64, 24
2, 1110065, Note_on_c, 0, 67, 0
2, 1110069, Note_on_c, 0, 79, 78
2, 1110073, Control_c, 0, 64, 0
2, 1110081, Note_on_c, 0, 65, 53
2, 1110089, Note_on_c, 0, 60, 40
2, 1110109, Note_on_c, 0, 57, 39
2, 1110137, Note_on_c, 0, 79, 0
2, 1110149, Control_c, 0, 64, 56
2, 1110153, Note_on_c, 0, 57, 0
2, 1110157, Note_on_c, 0, 65, 0
2, 1110165, Control_c, 0, 64, 127
2, 1110173, Note_on_c, 0, 60, 0
2, 1110389, Note_on_c, 0, 55, 47
2, 1110389, Note_on_c, 0, 64, 53
2, 1110397, Note_on_c, 0, 60, 52
2, 1110401, Note_on_c, 0, 67, 63
2, 1110453, Note_on_c, 0, 60, 0
2, 1110453, Note_on_c, 0, 64, 0
2, 1110481, Note_on_c, 0, 55, 0
2, 1110497, Note_on_c, 0, 67, 0
2, 1110693, Control_c, 0, 64, 104
2, 1110705, Control_c, 0, 64, 0
2, 1110721, Note_on_c, 0, 79, 99
2, 1110721, Note_on_c, 0, 67, 87
2, 1110741, Note_on_c, 0, 43, 64
2, 1110753, Note_on_c, 0, 55, 63
2, 1110769, Note_on_c, 0, 43, 0
2, 1110785, Control_c, 0, 64, 40
2, 1110793, Note_on_c, 0, 67, 0
2, 1110797, Control_c, 0, 64, 127
2, 1110813, Note_on_c, 0, 55, 0
2, 1110833, Note_on_c, 0, 79, 0
2, 1110989, Note_on_c, 0, 62, 63
2, 1110989, Note_on_c, 0, 59, 62
2, 1110993, Note_on_c, 0, 55, 61
2, 1111029, Note_on_c, 0, 55, 0
2, 1111045, Note_on_c, 0, 59, 0
2, 1111049, Note_on_c, 0, 62, 0
2, 1111101, Note_on_c, 0, 83, 94
2, 1111105, Note_on_c, 0, 71, 78
2, 1111145, Note_on_c, 0, 83, 0
2, 1111153, Note_on_c, 0, 71, 0
2, 1111221, Note_on_c, 0, 59, 78
2, 1111221, Note_on_c, 0, 62, 79
2, 1111229, Note_on_c, 0, 55, 66
2, 1111229, Note_on_c, 0, 86, 99
2, 1111233, Note_on_c, 0, 74, 93
2, 1111253, Note_on_c, 0, 62, 0
2, 1111273, Note_on_c, 0, 59, 0
2, 1111277, Note_on_c, 0, 74, 0
2, 1111289, Note_on_c, 0, 55, 0
2, 1111293, Note_on_c, 0, 86, 0
2, 1111433, Control_c, 0, 64, 72
2, 1111449, Control_c, 0, 64, 0
2, 1111505, Note_on_c, 0, 88, 107
2, 1111505, Note_on_c, 0, 76, 100
2, 1111517, Note_on_c, 0, 36, 68
2, 1111529, Note_on_c, 0, 48, 74
2, 1111541, Note_on_c, 0, 36, 0
2, 1111557, Control_c, 0, 64, 88
2, 1111573, Control_c, 0, 64, 127
2, 1111577, Note_on_c, 0, 48, 0
2, 1111701, Note_on_c, 0, 76, 0
2, 1111773, Note_on_c, 0, 55, 65
2, 1111777, Note_on_c, 0, 64, 58
2, 1111781, Note_on_c, 0, 60, 58
2, 1111801, Note_on_c, 0, 88, 0
2, 1111829, Note_on_c, 0, 60, 0
2, 1111841, Note_on_c, 0, 55, 0
2, 1111845, Note_on_c, 0, 64, 0
2, 1111877, Note_on_c, 0, 89, 97
2, 1111881, Note_on_c, 0, 77, 92
2, 1111925, Note_on_c, 0, 77, 0
2, 1111937, Note_on_c, 0, 89, 0
2, 1111977, Control_c, 0, 64, 104
2, 1111985, Note_on_c, 0, 64, 72
2, 1111993, Note_on_c, 0, 55, 78
2, 1111993, Note_on_c, 0, 60, 67
2, 1111993, Control_c, 0, 64, 72
2, 1111997, Note_on_c, 0, 91, 107
2, 1112001, Note_on_c, 0, 79, 99
2, 1112009, Control_c, 0, 64, 56
2, 1112013, Note_on_c, 0, 64, 0
2, 1112017, Note_on_c, 0, 55, 0
2, 1112017, Note_on_c, 0, 60, 0
2, 1112021, Control_c, 0, 64, 24
2, 1112037, Control_c, 0, 64, 0
2, 1112061, Note_on_c, 0, 79, 0
2, 1112089, Note_on_c, 0, 91, 0
2, 1112261, Note_on_c, 0, 41, 64
2, 1112269, Note_on_c, 0, 93, 109
2, 1112273, Note_on_c, 0, 81, 93
2, 1112277, Note_on_c, 0, 53, 58
2, 1112285, Control_c, 0, 64, 72
2, 1112289, Note_on_c, 0, 41, 0
2, 1112301, Control_c, 0, 64, 127
2, 1112313, Note_on_c, 0, 53, 0
2, 1112513, Note_on_c, 0, 81, 0
2, 1112529, Note_on_c, 0, 60, 74
2, 1112529, Note_on_c, 0, 57, 65
2, 1112537, Note_on_c, 0, 53, 65
2, 1112557, Note_on_c, 0, 60, 0
2, 1112569, Note_on_c, 0, 57, 0
2, 1112589, Note_on_c, 0, 53, 0
2, 1112721, Note_on_c, 0, 93, 0
2, 1112753, Control_c, 0, 64, 88
2, 1112765, Control_c, 0, 64, 0
2, 1112785, Note_on_c, 0, 95, 102
2, 1112793, Note_on_c, 0, 83, 93
2, 1112797, Note_on_c, 0, 55, 82
2, 1112801, Note_on_c, 0, 43, 68
2, 1112841, Control_c, 0, 64, 56
2, 1112853, Note_on_c, 0, 55, 0
2, 1112857, Note_on_c, 0, 43, 0
2, 1112861, Control_c, 0, 64, 127
2, 1112869, Note_on_c, 0, 83, 0
2, 1112893, Note_on_c, 0, 95, 0
2, 1113045, Control_c, 0, 64, 56
2, 1113061, Control_c, 0, 64, 0
2, 1113081, Note_on_c, 0, 36, 72
2, 1113085, Note_on_c, 0, 96, 109
2, 1113089, Note_on_c, 0, 84, 99
2, 1113093, Note_on_c, 0, 48, 70
2, 1113133, Note_on_c, 0, 48, 0
2, 1113133, Note_on_c, 0, 36, 0
2, 1113153, Control_c, 0, 64, 88
2, 1113169, Control_c, 0, 64, 127
2, 1113213, Note_on_c, 0, 84, 0
2, 1113217, Note_on_c, 0, 96, 0
2, 1113425, Note_on_c, 0, 97, 105
2, 1113433, Note_on_c, 0, 85, 92
2, 1113449, Control_c, 0, 64, 56
2, 1113453, Note_on_c, 0, 41, 74
2, 1113465, Note_on_c, 0, 53, 60
2, 1113465, Control_c, 0, 64, 0
2, 1113537, Note_on_c, 0, 41, 0
2, 1113561, Note_on_c, 0, 53, 0
2, 1113605, Control_c, 0, 64, 127
2, 1113793, Note_on_c, 0, 63, 72
2, 1113797, Note_on_c, 0, 53, 64
2, 1113809, Note_on_c, 0, 57, 56
2, 1113813, Note_on_c, 0, 97, 0
2, 1113817, Note_on_c, 0, 85, 0
2, 1113833, Note_on_c, 0, 53, 0
2, 1113837, Note_on_c, 0, 57, 0
2, 1113857, Note_on_c, 0, 63, 0
2, 1113945, Note_on_c, 0, 96, 102
2, 1113953, Note_on_c, 0, 84, 83
2, 1114037, Note_on_c, 0, 84, 0
2, 1114061, Note_on_c, 0, 96, 0
2, 1114153, Note_on_c, 0, 94, 91
2, 1114165, Note_on_c, 0, 82, 72
2, 1114197, Note_on_c, 0, 46, 71
2, 1114237, Control_c, 0, 64, 24
2, 1114253, Control_c, 0, 64, 0
2, 1114341, Note_on_c, 0, 46, 0
2, 1114377, Control_c, 0, 64, 127
2, 1114469, Note_on_c, 0, 82, 0
2, 1114469, Note_on_c, 0, 94, 0
2, 1114577, Note_on_c, 0, 61, 46
2, 1114581, Note_on_c, 0, 58, 38
2, 1114589, Note_on_c, 0, 53, 56
2, 1114641, Note_on_c, 0, 61, 0
2, 1114645, Note_on_c, 0, 58, 0
2, 1114661, Note_on_c, 0, 53, 0
2, 1114777, Note_on_c, 0, 89, 87
2, 1114785, Note_on_c, 0, 77, 73
2, 1114817, Note_on_c, 0, 61, 44
2, 1114821, Note_on_c, 0, 53, 51
2, 1114833, Note_on_c, 0, 58, 33
2, 1114885, Note_on_c, 0, 58, 0
2, 1114893, Note_on_c, 0, 61, 0
2, 1114893, Note_on_c, 0, 53, 0
2, 1115001, Note_on_c, 0, 89, 0
2, 1115037, Note_on_c, 0, 77, 0
2, 1115057, Note_on_c, 0, 53, 58
2, 1115065, Note_on_c, 0, 61, 42
2, 1115069, Note_on_c, 0, 58, 38
2, 1115137, Note_on_c, 0, 53, 0
2, 1115141, Note_on_c, 0, 58, 0
2, 1115141, Note_on_c, 0, 61, 0
2, 1115281, Note_on_c, 0, 85, 85
2, 1115293, Note_on_c, 0, 73, 69
2, 1115313, Note_on_c, 0, 53, 52
2, 1115313, Note_on_c, 0, 58, 34
2, 1115313, Note_on_c, 0, 61, 37
2, 1115401, Note_on_c, 0, 61, 0
2, 1115401, Note_on_c, 0, 53, 0
2, 1115401, Note_on_c, 0, 58, 0
2, 1115541, Note_on_c, 0, 85, 0
2, 1115573, Note_on_c, 0, 58, 48
2, 1115581, Note_on_c, 0, 61, 45
2, 1115585, Note_on_c, 0, 73, 0
2, 1115585, Note_on_c, 0, 53, 51
2, 1115637, Note_on_c, 0, 53, 0
2, 1115641, Note_on_c, 0, 61, 0
2, 1115645, Note_on_c, 0, 58, 0
2, 1115697, Note_on_c, 0, 82, 79
2, 1115705, Note_on_c, 0, 70, 67
2, 1115765, Note_on_c, 0, 70, 0
2, 1115801, Note_on_c, 0, 82, 0
2, 1115869, Note_on_c, 0, 80, 81
2, 1115877, Note_on_c, 0, 68, 62
2, 1115905, Note_on_c, 0, 47, 68
2, 1115913, Control_c, 0, 64, 40
2, 1115929, Control_c, 0, 64, 0
2, 1116037, Control_c, 0, 64, 127
2, 1116085, Note_on_c, 0, 47, 0
2, 1116117, Note_on_c, 0, 68, 0
2, 1116193, Note_on_c, 0, 73, 58
2, 1116209, Note_on_c, 0, 61, 36
2, 1116209, Note_on_c, 0, 65, 45
2, 1116221, Note_on_c, 0, 56, 36
2, 1116265, Note_on_c, 0, 65, 0
2, 1116277, Note_on_c, 0, 61, 0
2, 1116313, Note_on_c, 0, 56, 0
2, 1116381, Note_on_c, 0, 73, 0
2, 1116457, Note_on_c, 0, 72, 70
2, 1116465, Note_on_c, 0, 55, 54
2, 1116473, Note_on_c, 0, 64, 44
2, 1116473, Note_on_c, 0, 61, 28
2, 1116501, Control_c, 0, 64, 88
2, 1116517, Control_c, 0, 64, 104
2, 1116533, Control_c, 0, 64, 127
2, 1116541, Note_on_c, 0, 64, 0
2, 1116561, Note_on_c, 0, 61, 0
2, 1116565, Note_on_c, 0, 55, 0
2, 1116649, Note_on_c, 0, 72, 0
2, 1116685, Control_c, 0, 64, 40
2, 1116701, Note_on_c, 0, 80, 0
2, 1116701, Control_c, 0, 64, 0
2, 1116705, Note_on_c, 0, 73, 69
2, 1116725, Note_on_c, 0, 65, 56
2, 1116733, Note_on_c, 0, 56, 43
2, 1116737, Note_on_c, 0, 61, 38
2, 1116749, Control_c, 0, 64, 56
2, 1116765, Control_c, 0, 64, 104
2, 1116777, Note_on_c, 0, 73, 0
2, 1116781, Control_c, 0, 64, 127
2, 1116805, Note_on_c, 0, 65, 0
2, 1116805, Note_on_c, 0, 56, 0
2, 1116837, Note_on_c, 0, 61, 0
2, 1116869, Note_on_c, 0, 73, 72
2, 1116949, Control_c, 0, 64, 24
2, 1116965, Control_c, 0, 64, 0
2, 1116973, Note_on_c, 0, 68, 45
2, 1116977, Note_on_c, 0, 73, 0
2, 1116977, Note_on_c, 0, 85, 71
2, 1116993, Note_on_c, 0, 59, 45
2, 1117041, Note_on_c, 0, 59, 0
2, 1117041, Control_c, 0, 64, 104
2, 1117057, Note_on_c, 0, 68, 0
2, 1117057, Control_c, 0, 64, 127
2, 1117161, Note_on_c, 0, 85, 0
2, 1117281, Note_on_c, 0, 73, 58
2, 1117285, Note_on_c, 0, 65, 52
2, 1117289, Note_on_c, 0, 61, 37
2, 1117301, Note_on_c, 0, 56, 37
2, 1117337, Note_on_c, 0, 65, 0
2, 1117349, Note_on_c, 0, 61, 0
2, 1117365, Note_on_c, 0, 56, 0
2, 1117373, Note_on_c, 0, 73, 0
2, 1117585, Control_c, 0, 64, 40
2, 1117589, Note_on_c, 0, 84, 93
2, 1117593, Note_on_c, 0, 72, 92
2, 1117601, Control_c, 0, 64, 0
2, 1117613, Note_on_c, 0, 48, 69
2, 1117637, Note_on_c, 0, 60, 29
2, 1117641, Note_on_c, 0, 48, 0
2, 1117661, Control_c, 0, 64, 56
2, 1117677, Control_c, 0, 64, 127
2, 1117709, Note_on_c, 0, 60, 0
2, 1117709, Note_on_c, 0, 72, 0
2, 1117745, Note_on_c, 0, 84, 0
2, 1117865, Note_on_c, 0, 64, 56
2, 1117865, Note_on_c, 0, 60, 54
2, 1117877, Note_on_c, 0, 55, 43
2, 1117889, Note_on_c, 0, 58, 27
2, 1117913, Note_on_c, 0, 55, 0
2, 1117917, Note_on_c, 0, 64, 0
2, 1117921, Note_on_c, 0, 58, 0
2, 1117925, Note_on_c, 0, 60, 0
2, 1117969, Note_on_c, 0, 88, 94
2, 1117973, Note_on_c, 0, 76, 83
2, 1118025, Note_on_c, 0, 76, 0
2, 1118029, Note_on_c, 0, 88, 0
2, 1118081, Note_on_c, 0, 58, 60
2, 1118081, Note_on_c, 0, 64, 74
2, 1118089, Note_on_c, 0, 60, 62
2, 1118093, Note_on_c, 0, 55, 59
2, 1118093, Note_on_c, 0, 91, 103
2, 1118097, Note_on_c, 0, 79, 94
2, 1118109, Note_on_c, 0, 64, 0
2, 1118117, Note_on_c, 0, 60, 0
2, 1118133, Note_on_c, 0, 55, 0
2, 1118137, Note_on_c, 0, 58, 0
2, 1118145, Note_on_c, 0, 79, 0
2, 1118161, Note_on_c, 0, 91, 0
2, 1118329, Control_c, 0, 64, 104
2, 1118345, Control_c, 0, 64, 24
2, 1118361, Control_c, 0, 64, 0
2, 1118369, Note_on_c, 0, 92, 105
2, 1118369, Note_on_c, 0, 80, 105
2, 1118377, Note_on_c, 0, 41, 73
2, 1118397, Note_on_c, 0, 53, 68
2, 1118425, Note_on_c, 0, 41, 0
2, 1118437, Control_c, 0, 64, 56
2, 1118441, Note_on_c, 0, 80, 0
2, 1118453, Control_c, 0, 64, 127
2, 1118457, Note_on_c, 0, 53, 0
2, 1118501, Note_on_c, 0, 92, 0
2, 1118641, Note_on_c, 0, 56, 56
2, 1118645, Note_on_c, 0, 65, 66
2, 1118649, Note_on_c, 0, 60, 63
2, 1118693, Note_on_c, 0, 65, 0
2, 1118697, Note_on_c, 0, 60, 0
2, 1118725, Note_on_c, 0, 56, 0
2, 1118765, Note_on_c, 0, 94, 86
2, 1118765, Note_on_c, 0, 82, 78
2, 1118817, Note_on_c, 0, 82, 0
2, 1118825, Note_on_c, 0, 94, 0
2, 1118857, Note_on_c, 0, 60, 70
2, 1118861, Note_on_c, 0, 65, 69
2, 1118865, Note_on_c, 0, 56, 56
2, 1118889, Note_on_c, 0, 65, 0
2, 1118889, Note_on_c, 0, 96, 103
2, 1118893, Note_on_c, 0, 84, 94
2, 1118897, Note_on_c, 0, 60, 0
2, 1118925, Note_on_c, 0, 56, 0
2, 1118933, Control_c, 0, 64, 88
2, 1118941, Note_on_c, 0, 84, 0
2, 1118949, Control_c, 0, 64, 56
2, 1118957, Note_on_c, 0, 96, 0
2, 1118965, Control_c, 0, 64, 40
2, 1118981, Control_c, 0, 64, 0
2, 1119161, Note_on_c, 0, 97, 95
2, 1119161, Note_on_c, 0, 46, 69
2, 1119165, Note_on_c, 0, 85, 90
2, 1119173, Note_on_c, 0, 58, 80
2, 1119181, Control_c, 0, 64, 127
2, 1119217, Note_on_c, 0, 46, 0
2, 1119221, Note_on_c, 0, 58, 0
2, 1119225, Note_on_c, 0, 85, 0
2, 1119229, Note_on_c, 0, 97, 0
2, 1119437, Note_on_c, 0, 61, 77
2, 1119441, Note_on_c, 0, 49, 71
2, 1119461, Control_c, 0, 64, 104
2, 1119469, Note_on_c, 0, 49, 0
2, 1119477, Control_c, 0, 64, 56
2, 1119493, Note_on_c, 0, 61, 0
2, 1119493, Control_c, 0, 64, 24
2, 1119509, Control_c, 0, 64, 0
2, 1119709, Note_on_c, 0, 76, 84
2, 1119709, Control_c, 0, 64, 56
2, 1119721, Note_on_c, 0, 64, 76
2, 1119721, Note_on_c, 0, 60, 71
2, 1119721, Note_on_c, 0, 70, 61
2, 1119721, Control_c, 0, 64, 127
2, 1119725, Note_on_c, 0, 48, 68
2, 1119733, Note_on_c, 0, 72, 74
2, 1119745, Note_on_c, 0, 60, 0
2, 1119777, Note_on_c, 0, 64, 0
2, 1119777, Note_on_c, 0, 72, 0
2, 1119781, Note_on_c, 0, 48, 0
2, 1119781, Note_on_c, 0, 70, 0
2, 1119805, Note_on_c, 0, 76, 0
2, 1120001, Control_c, 0, 64, 56
2, 1120017, Control_c, 0, 64, 0
2, 1120033, Note_on_c, 0, 77, 89
2, 1120041, Note_on_c, 0, 65, 73
2, 1120041, Note_on_c, 0, 68, 60
2, 1120045, Note_on_c, 0, 41, 62
2, 1120045, Note_on_c, 0, 72, 67
2, 1120057, Note_on_c, 0, 53, 55
2, 1120073, Note_on_c, 0, 41, 0
2, 1120109, Note_on_c, 0, 65, 0
2, 1120109, Control_c, 0, 64, 72
2, 1120117, Note_on_c, 0, 53, 0
2, 1120125, Control_c, 0, 64, 127
2, 1120145, Note_on_c, 0, 68, 0
2, 1120157, Note_on_c, 0, 72, 0
2, 1120165, Note_on_c, 0, 77, 0
2, 1120377, Note_on_c, 0, 60, 50
2, 1120381, Note_on_c, 0, 56, 38
2, 1120385, Note_on_c, 0, 53, 48
2, 1120457, Note_on_c, 0, 60, 0
2, 1120461, Note_on_c, 0, 53, 0
2, 1120469, Note_on_c, 0, 56, 0
2, 1120761, Control_c, 0, 64, 56
2, 1120777, Note_on_c, 0, 72, 69
2, 1120777, Control_c, 0, 64, 0
2, 1120885, Control_c, 0, 64, 56
2, 1120901, Control_c, 0, 64, 127
2, 1121133, Control_c, 0, 64, 88
2, 1121149, Control_c, 0, 64, 0
2, 1121225, Note_on_c, 0, 84, 76
2, 1121241, Note_on_c, 0, 41, 44
2, 1121273, Control_c, 0, 64, 72
2, 1121277, Note_on_c, 0, 41, 0
2, 1121289, Control_c, 0, 64, 127
2, 1121545, Note_on_c, 0, 63, 36
2, 1121561, Note_on_c, 0, 65, 31
2, 1121605, Note_on_c, 0, 63, 0
2, 1121613, Note_on_c, 0, 72, 0
2, 1121617, Note_on_c, 0, 65, 0
2, 1121741, Note_on_c, 0, 84, 0
2, 1121845, Note_on_c, 0, 63, 37
2, 1121853, Note_on_c, 0, 65, 49
2, 1121873, Note_on_c, 0, 63, 0
2, 1121881, Note_on_c, 0, 65, 0
2, 1122125, Control_c, 0, 64, 40
2, 1122133, Note_on_c, 0, 89, 90
2, 1122141, Control_c, 0, 64, 0
2, 1122145, Note_on_c, 0, 77, 78
2, 1122157, Note_on_c, 0, 45, 61
2, 1122193, Note_on_c, 0, 45, 0
2, 1122217, Control_c, 0, 64, 72
2, 1122233, Control_c, 0, 64, 127
2, 1122333, Note_on_c, 0, 89, 0
2, 1122341, Note_on_c, 0, 77, 0
2, 1122457, Note_on_c, 0, 63, 42
2, 1122457, Note_on_c, 0, 65, 45
2, 1122489, Note_on_c, 0, 63, 0
2, 1122501, Note_on_c, 0, 65, 0
2, 1122565, Note_on_c, 0, 87, 75
2, 1122581, Note_on_c, 0, 75, 65
2, 1122633, Note_on_c, 0, 75, 0
2, 1122637, Note_on_c, 0, 87, 0
2, 1122705, Note_on_c, 0, 63, 55
2, 1122717, Note_on_c, 0, 72, 55
2, 1122717, Note_on_c, 0, 84, 66
2, 1122717, Note_on_c, 0, 65, 51
2, 1122741, Note_on_c, 0, 84, 0
2, 1122749, Note_on_c, 0, 63, 0
2, 1122749, Note_on_c, 0, 72, 0
2, 1122753, Note_on_c, 0, 65, 0
2, 1122837, Note_on_c, 0, 86, 77
2, 1122841, Note_on_c, 0, 74, 82
2, 1122893, Note_on_c, 0, 74, 0
2, 1122893, Note_on_c, 0, 86, 0
2, 1122993, Control_c, 0, 64, 40
2, 1123005, Note_on_c, 0, 82, 77
2, 1123009, Control_c, 0, 64, 0
2, 1123013, Note_on_c, 0, 70, 62
2, 1123013, Note_on_c, 0, 46, 61
2, 1123065, Note_on_c, 0, 46, 0
2, 1123101, Control_c, 0, 64, 104
2, 1123113, Control_c, 0, 64, 127
2, 1123309, Note_on_c, 0, 62, 56
2, 1123317, Note_on_c, 0, 65, 48
2, 1123333, Note_on_c, 0, 58, 29
2, 1123377, Note_on_c, 0, 58, 0
2, 1123377, Note_on_c, 0, 65, 0
2, 1123381, Note_on_c, 0, 62, 0
2, 1123593, Note_on_c, 0, 65, 54
2, 1123601, Note_on_c, 0, 58, 36
2, 1123601, Note_on_c, 0, 62, 37
2, 1123621, Note_on_c, 0, 65, 0
2, 1123637, Note_on_c, 0, 62, 0
2, 1123657, Note_on_c, 0, 58, 0
2, 1123669, Note_on_c, 0, 70, 0
2, 1123677, Note_on_c, 0, 82, 0
2, 1123857, Control_c, 0, 64, 88
2, 1123869, Note_on_c, 0, 81, 84
2, 1123873, Control_c, 0, 64, 0
2, 1123881, Note_on_c, 0, 69, 72
2, 1123897, Note_on_c, 0, 47, 64
2, 1123929, Note_on_c, 0, 47, 0
2, 1123969, Control_c, 0, 64, 40
2, 1123985, Control_c, 0, 64, 104
2, 1124001, Control_c, 0, 64, 127
2, 1124173, Note_on_c, 0, 62, 65
2, 1124181, Note_on_c, 0, 65, 55
2, 1124181, Note_on_c, 0, 57, 45
2, 1124225, Note_on_c, 0, 57, 0
2, 1124253, Note_on_c, 0, 69, 0
2, 1124273, Note_on_c, 0, 81, 0
2, 1124429, Note_on_c, 0, 56, 61
2, 1124429, Note_on_c, 0, 80, 80
2, 1124445, Note_on_c, 0, 68, 61
2, 1124517, Note_on_c, 0, 65, 0
2, 1124521, Note_on_c, 0, 62, 0
2, 1124533, Note_on_c, 0, 56, 0
2, 1124553, Note_on_c, 0, 68, 0
2, 1124589, Note_on_c, 0, 80, 0
2, 1124729, Control_c, 0, 64, 88
2, 1124745, Note_on_c, 0, 79, 83
2, 1124745, Control_c, 0, 64, 0
2, 1124761, Note_on_c, 0, 67, 56
2, 1124769, Note_on_c, 0, 48, 72
2, 1124809, Note_on_c, 0, 48, 0
2, 1124849, Control_c, 0, 64, 127
2, 1125041, Note_on_c, 0, 55, 48
2, 1125045, Note_on_c, 0, 60, 48
2, 1125045, Note_on_c, 0, 64, 44
2, 1125081, Note_on_c, 0, 55, 0
2, 1125085, Note_on_c, 0, 60, 0
2, 1125089, Note_on_c, 0, 64, 0
2, 1125093, Note_on_c, 0, 67, 0
2, 1125205, Note_on_c, 0, 79, 0
2, 1125329, Note_on_c, 0, 64, 46
2, 1125333, Note_on_c, 0, 55, 46
2, 1125337, Note_on_c, 0, 60, 45
2, 1125369, Note_on_c, 0, 55, 0
2, 1125369, Note_on_c, 0, 64, 0
2, 1125377, Note_on_c, 0, 60, 0
2, 1125601, Note_on_c, 0, 84, 83
2, 1125617, Note_on_c, 0, 72, 67
2, 1125621, Note_on_c, 0, 52, 71
2, 1125657, Control_c, 0, 64, 88
2, 1125673, Control_c, 0, 64, 0
2, 1125777, Control_c, 0, 64, 88
2, 1125793, Control_c, 0, 64, 127
2, 1125801, Note_on_c, 0, 84, 0
2, 1125817, Note_on_c, 0, 72, 0
2, 1125877, Note_on_c, 0, 52, 0
2, 1125897, Note_on_c, 0, 58, 44
2, 1125909, Note_on_c, 0, 60, 51
2, 1125945, Note_on_c, 0, 60, 0
2, 1125969, Note_on_c, 0, 58, 0
2, 1126017, Note_on_c, 0, 82, 82
2, 1126017, Note_on_c, 0, 70, 65
2, 1126065, Note_on_c, 0, 70, 0
2, 1126081, Note_on_c, 0, 82, 0
2, 1126149, Note_on_c, 0, 58, 54
2, 1126165, Note_on_c, 0, 79, 81
2, 1126173, Note_on_c, 0, 67, 68
2, 1126177, Note_on_c, 0, 60, 47
2, 1126197, Note_on_c, 0, 79, 0
2, 1126201, Note_on_c, 0, 67, 0
2, 1126213, Note_on_c, 0, 60, 0
2, 1126281, Note_on_c, 0, 81, 83
2, 1126289, Note_on_c, 0, 69, 71
2, 1126313, Note_on_c, 0, 81, 0
2, 1126313, Note_on_c, 0, 58, 0
2, 1126321, Note_on_c, 0, 69, 0
2, 1126453, Note_on_c, 0, 77, 82
2, 1126453, Note_on_c, 0, 65, 62
2, 1126457, Note_on_c, 0, 53, 62
2, 1126461, Control_c, 0, 64, 72
2, 1126477, Control_c, 0, 64, 24
2, 1126493, Control_c, 0, 64, 0
2, 1126693, Control_c, 0, 64, 40
2, 1126709, Control_c, 0, 64, 88
2, 1126725, Control_c, 0, 64, 127
2, 1126733, Note_on_c, 0, 57, 41
2, 1126733, Note_on_c, 0, 60, 44
2, 1126793, Note_on_c, 0, 60, 0
2, 1126805, Note_on_c, 0, 57, 0
2, 1126841, Note_on_c, 0, 53, 0
2, 1126949, Note_on_c, 0, 65, 0
2, 1126965, Note_on_c, 0, 77, 0
2, 1126997, Note_on_c, 0, 57, 54
2, 1126997, Note_on_c, 0, 60, 52
2, 1127073, Note_on_c, 0, 57, 0
2, 1127077, Note_on_c, 0, 60, 0
2, 1127293, Note_on_c, 0, 75, 70
2, 1127305, Note_on_c, 0, 63, 44
2, 1127329, Control_c, 0, 64, 88
2, 1127345, Note_on_c, 0, 57, 40
2, 1127345, Control_c, 0, 64, 0
2, 1127449, Note_on_c, 0, 63, 0
2, 1127453, Control_c, 0, 64, 88
2, 1127469, Control_c, 0, 64, 127
2, 1127493, Note_on_c, 0, 75, 0
2, 1127593, Note_on_c, 0, 65, 43
2, 1127593, Note_on_c, 0, 60, 41
2, 1127681, Note_on_c, 0, 65, 0
2, 1127693, Note_on_c, 0, 60, 0
2, 1127729, Note_on_c, 0, 57, 0
2, 1127889, Note_on_c, 0, 65, 45
2, 1127897, Note_on_c, 0, 57, 36
2, 1127933, Note_on_c, 0, 65, 0
2, 1127957, Note_on_c, 0, 57, 0
2, 1128269, Note_on_c, 0, 48, 78
2, 1128269, Note_on_c, 0, 36, 63
2, 1128289, Control_c, 0, 64, 72
2, 1128305, Control_c, 0, 64, 0
2, 1128397, Control_c, 0, 64, 88
2, 1128413, Control_c, 0, 64, 127
2, 1128573, Note_on_c, 0, 57, 60
2, 1128641, Note_on_c, 0, 57, 0
2, 1128789, Note_on_c, 0, 36, 0
2, 1128825, Note_on_c, 0, 48, 0
2, 1128837, Note_on_c, 0, 72, 55
2, 1128841, Note_on_c, 0, 69, 46
2, 1128849, Note_on_c, 0, 65, 42
2, 1128961, Note_on_c, 0, 72, 0
2, 1129093, Note_on_c, 0, 69, 0
2, 1129101, Note_on_c, 0, 53, 87
2, 1129109, Control_c, 0, 64, 88
2, 1129113, Note_on_c, 0, 41, 67
2, 1129125, Control_c, 0, 64, 0
2, 1129205, Control_c, 0, 64, 72
2, 1129221, Control_c, 0, 64, 127
2, 1129269, Note_on_c, 0, 65, 0
2, 1129381, Note_on_c, 0, 57, 60
2, 1129409, Note_on_c, 0, 53, 0
2, 1129437, Note_on_c, 0, 41, 0
2, 1129449, Note_on_c, 0, 57, 0
2, 1129517, Note_on_c, 0, 51, 81
2, 1129525, Note_on_c, 0, 39, 62
2, 1129549, Note_on_c, 0, 39, 0
2, 1129569, Note_on_c, 0, 51, 0
2, 1129669, Note_on_c, 0, 48, 72
2, 1129677, Note_on_c, 0, 72, 64
2, 1129685, Note_on_c, 0, 65, 50
2, 1129685, Note_on_c, 0, 36, 38
2, 1129689, Note_on_c, 0, 69, 44
2, 1129705, Note_on_c, 0, 48, 0
2, 1129721, Note_on_c, 0, 36, 0
2, 1129757, Note_on_c, 0, 72, 0
2, 1129761, Note_on_c, 0, 69, 0
2, 1129793, Control_c, 0, 64, 104
2, 1129797, Note_on_c, 0, 49, 82
2, 1129801, Note_on_c, 0, 37, 68
2, 1129809, Control_c, 0, 64, 88
2, 1129825, Control_c, 0, 64, 56
2, 1129837, Control_c, 0, 64, 40
2, 1129845, Note_on_c, 0, 37, 0
2, 1129845, Note_on_c, 0, 49, 0
2, 1129853, Control_c, 0, 64, 24
2, 1129869, Control_c, 0, 64, 0
2, 1129961, Note_on_c, 0, 46, 86
2, 1129965, Note_on_c, 0, 34, 70
2, 1130057, Control_c, 0, 64, 24
2, 1130073, Control_c, 0, 64, 72
2, 1130089, Control_c, 0, 64, 127
2, 1130145, Note_on_c, 0, 65, 0
2, 1130249, Note_on_c, 0, 58, 67
2, 1130345, Note_on_c, 0, 58, 0
2, 1130517, Note_on_c, 0, 73, 55
2, 1130525, Note_on_c, 0, 65, 59
2, 1130529, Note_on_c, 0, 70, 46
2, 1130561, Note_on_c, 0, 65, 0
2, 1130577, Note_on_c, 0, 73, 0
2, 1130585, Note_on_c, 0, 46, 0
2, 1130585, Note_on_c, 0, 34, 0
2, 1130589, Note_on_c, 0, 70, 0
2, 1130797, Note_on_c, 0, 44, 87
2, 1130805, Note_on_c, 0, 32, 69
2, 1130893, Control_c, 0, 64, 40
2, 1130909, Control_c, 0, 64, 0
2, 1130985, Control_c, 0, 64, 40
2, 1131001, Control_c, 0, 64, 104
2, 1131017, Control_c, 0, 64, 127
2, 1131081, Note_on_c, 0, 58, 64
2, 1131193, Note_on_c, 0, 58, 0
2, 1131201, Note_on_c, 0, 44, 0
2, 1131205, Note_on_c, 0, 32, 0
2, 1131365, Note_on_c, 0, 73, 53
2, 1131377, Note_on_c, 0, 70, 48
2, 1131385, Note_on_c, 0, 64, 51
2, 1131437, Note_on_c, 0, 64, 0
2, 1131473, Note_on_c, 0, 73, 0
2, 1131485, Note_on_c, 0, 70, 0
2, 1131645, Note_on_c, 0, 30, 64
2, 1131653, Note_on_c, 0, 42, 81
2, 1131653, Control_c, 0, 64, 56
2, 1131665, Control_c, 0, 64, 0
2, 1131745, Control_c, 0, 64, 72
2, 1131757, Control_c, 0, 64, 127
2, 1131905, Note_on_c, 0, 30, 0
2, 1131921, Note_on_c, 0, 42, 0
2, 1131945, Note_on_c, 0, 58, 59
2, 1132013, Note_on_c, 0, 58, 0
2, 1132221, Note_on_c, 0, 73, 65
2, 1132229, Note_on_c, 0, 57, 70
2, 1132233, Note_on_c, 0, 63, 57
2, 1132241, Note_on_c, 0, 45, 68
2, 1132257, Note_on_c, 0, 57, 0
2, 1132297, Note_on_c, 0, 45, 0
2, 1132353, Note_on_c, 0, 73, 0
2, 1132529, Note_on_c, 0, 44, 82
2, 1132533, Note_on_c, 0, 32, 71
2, 1132537, Control_c, 0, 64, 56
2, 1132549, Control_c, 0, 64, 0
2, 1132645, Control_c, 0, 64, 56
2, 1132657, Control_c, 0, 64, 127
2, 1132717, Note_on_c, 0, 63, 0
2, 1132833, Note_on_c, 0, 60, 71
2, 1132861, Note_on_c, 0, 44, 0
2, 1132869, Note_on_c, 0, 32, 0
2, 1132917, Note_on_c, 0, 60, 0
2, 1132969, Note_on_c, 0, 42, 73
2, 1132977, Note_on_c, 0, 30, 61
2, 1133021, Note_on_c, 0, 42, 0
2, 1133029, Note_on_c, 0, 30, 0
2, 1133049, Control_c, 0, 64, 104
2, 1133061, Control_c, 0, 64, 24
2, 1133077, Control_c, 0, 64, 0
2, 1133117, Note_on_c, 0, 63, 55
2, 1133117, Note_on_c, 0, 72, 71
2, 1133117, Note_on_c, 0, 27, 77
2, 1133117, Note_on_c, 0, 39, 79
2, 1133137, Control_c, 0, 64, 72
2, 1133153, Control_c, 0, 64, 127
2, 1133161, Note_on_c, 0, 39, 0
2, 1133165, Note_on_c, 0, 27, 0
2, 1133205, Note_on_c, 0, 63, 0
2, 1133269, Note_on_c, 0, 72, 0
2, 1133273, Note_on_c, 0, 41, 81
2, 1133277, Note_on_c, 0, 29, 66
2, 1133305, Note_on_c, 0, 29, 0
2, 1133325, Note_on_c, 0, 41, 0
2, 1133469, Note_on_c, 0, 37, 82
2, 1133473, Note_on_c, 0, 25, 72
2, 1133481, Control_c, 0, 64, 72
2, 1133497, Control_c, 0, 64, 0
2, 1133633, Note_on_c, 0, 25, 0
2, 1133649, Control_c, 0, 64, 127
2, 1133653, Note_on_c, 0, 37, 0
2, 1133861, Note_on_c, 0, 73, 77
2, 1133869, Note_on_c, 0, 56, 34
2, 1133877, Note_on_c, 0, 65, 63
2, 1133881, Note_on_c, 0, 49, 29
2, 1133957, Note_on_c, 0, 56, 0
2, 1133969, Note_on_c, 0, 49, 0
2, 1133981, Note_on_c, 0, 65, 0
2, 1134061, Note_on_c, 0, 73, 0
2, 1134145, Note_on_c, 0, 75, 86
2, 1134161, Note_on_c, 0, 65, 64
2, 1134173, Note_on_c, 0, 49, 51
2, 1134177, Note_on_c, 0, 56, 44
2, 1134221, Note_on_c, 0, 56, 0
2, 1134233, Note_on_c, 0, 49, 0
2, 1134245, Note_on_c, 0, 65, 0
2, 1134369, Note_on_c, 0, 75, 0
2, 1134405, Note_on_c, 0, 77, 94
2, 1134413, Note_on_c, 0, 65, 69
2, 1134429, Note_on_c, 0, 49, 60
2, 1134429, Note_on_c, 0, 56, 58
2, 1134481, Note_on_c, 0, 56, 0
2, 1134485, Note_on_c, 0, 65, 0
2, 1134497, Note_on_c, 0, 49, 0
2, 1134553, Note_on_c, 0, 77, 0
2, 1134669, Note_on_c, 0, 78, 87
2, 1134689, Note_on_c, 0, 65, 67
2, 1134689, Note_on_c, 0, 56, 61
2, 1134697, Note_on_c, 0, 49, 60
2, 1134729, Note_on_c, 0, 65, 0
2, 1134753, Note_on_c, 0, 56, 0
2, 1134769, Note_on_c, 0, 49, 0
2, 1134865, Note_on_c, 0, 78, 0
2, 1134897, Note_on_c, 0, 65, 70
2, 1134937, Note_on_c, 0, 56, 61
2, 1134957, Note_on_c, 0, 49, 47
2, 1134977, Note_on_c, 0, 79, 92
2, 1134981, Note_on_c, 0, 65, 0
2, 1134989, Note_on_c, 0, 56, 0
2, 1134989, Note_on_c, 0, 49, 0
2, 1135057, Note_on_c, 0, 79, 0
2, 1135245, Note_on_c, 0, 37, 48
2, 1135249, Note_on_c, 0, 66, 74
2, 1135337, Control_c, 0, 64, 88
2, 1135349, Note_on_c, 0, 80, 92
2, 1135353, Control_c, 0, 64, 24
2, 1135365, Note_on_c, 0, 44, 29
2, 1135369, Control_c, 0, 64, 0
2, 1135449, Note_on_c, 0, 37, 0
2, 1135461, Note_on_c, 0, 44, 0
2, 1135461, Control_c, 0, 64, 40
2, 1135477, Control_c, 0, 64, 127
2, 1135529, Note_on_c, 0, 66, 0
2, 1135613, Note_on_c, 0, 80, 0
2, 1135721, Note_on_c, 0, 66, 48
2, 1135725, Note_on_c, 0, 56, 49
2, 1135753, Note_on_c, 0, 63, 25
2, 1135797, Note_on_c, 0, 63, 0
2, 1135797, Note_on_c, 0, 56, 0
2, 1135813, Note_on_c, 0, 66, 0
2, 1135981, Note_on_c, 0, 72, 83
2, 1135985, Note_on_c, 0, 66, 34
2, 1136005, Note_on_c, 0, 60, 62
2, 1136009, Note_on_c, 0, 56, 33
2, 1136017, Note_on_c, 0, 63, 27
2, 1136069, Note_on_c, 0, 63, 0
2, 1136077, Note_on_c, 0, 56, 0
2, 1136093, Note_on_c, 0, 66, 0
2, 1136249, Note_on_c, 0, 60, 0
2, 1136249, Note_on_c, 0, 66, 58
2, 1136257, Note_on_c, 0, 56, 46
2, 1136261, Note_on_c, 0, 63, 39
2, 1136305, Note_on_c, 0, 63, 0
2, 1136305, Note_on_c, 0, 56, 0
2, 1136353, Note_on_c, 0, 66, 0
2, 1136401, Note_on_c, 0, 72, 0
2, 1136501, Note_on_c, 0, 71, 75
2, 1136509, Note_on_c, 0, 59, 57
2, 1136517, Note_on_c, 0, 66, 38
2, 1136521, Note_on_c, 0, 56, 37
2, 1136541, Note_on_c, 0, 63, 26
2, 1136597, Note_on_c, 0, 63, 0
2, 1136617, Note_on_c, 0, 66, 0
2, 1136617, Note_on_c, 0, 56, 0
2, 1136617, Note_on_c, 0, 59, 0
2, 1136781, Note_on_c, 0, 66, 60
2, 1136793, Note_on_c, 0, 56, 46
2, 1136793, Note_on_c, 0, 63, 44
2, 1136829, Note_on_c, 0, 63, 0
2, 1136833, Note_on_c, 0, 66, 0
2, 1136845, Note_on_c, 0, 71, 0
2, 1136853, Note_on_c, 0, 56, 0
2, 1136925, Note_on_c, 0, 72, 87
2, 1136933, Note_on_c, 0, 60, 68
2, 1136965, Note_on_c, 0, 60, 0
2, 1136985, Note_on_c, 0, 72, 0
2, 1137081, Note_on_c, 0, 73, 85
2, 1137085, Note_on_c, 0, 61, 55
2, 1137089, Control_c, 0, 64, 40
2, 1137105, Control_c, 0, 64, 0
2, 1137117, Note_on_c, 0, 49, 56
2, 1137149, Note_on_c, 0, 61, 0
2, 1137193, Note_on_c, 0, 49, 0
2, 1137213, Control_c, 0, 64, 56
2, 1137229, Control_c, 0, 64, 127
2, 1137389, Note_on_c, 0, 68, 62
2, 1137405, Note_on_c, 0, 65, 52
2, 1137405, Note_on_c, 0, 56, 49
2, 1137405, Note_on_c, 0, 61, 42
2, 1137481, Note_on_c, 0, 65, 0
2, 1137497, Note_on_c, 0, 61, 0
2, 1137525, Note_on_c, 0, 56, 0
2, 1137633, Note_on_c, 0, 68, 0
2, 1137661, Control_c, 0, 64, 88
2, 1137673, Note_on_c, 0, 67, 55
2, 1137677, Control_c, 0, 64, 24
2, 1137681, Note_on_c, 0, 64, 52
2, 1137681, Note_on_c, 0, 55, 52
2, 1137689, Note_on_c, 0, 61, 34
2, 1137693, Control_c, 0, 64, 0
2, 1137709, Control_c, 0, 64, 24
2, 1137725, Control_c, 0, 64, 56
2, 1137741, Control_c, 0, 64, 104
2, 1137757, Note_on_c, 0, 64, 0
2, 1137757, Control_c, 0, 64, 127
2, 1137769, Note_on_c, 0, 55, 0
2, 1137769, Note_on_c, 0, 61, 0
2, 1137861, Note_on_c, 0, 67, 0
2, 1137925, Control_c, 0, 64, 72
2, 1137937, Note_on_c, 0, 73, 0
2, 1137941, Control_c, 0, 64, 0
2, 1137945, Note_on_c, 0, 68, 60
2, 1137945, Note_on_c, 0, 61, 45
2, 1137949, Note_on_c, 0, 56, 44
2, 1137949, Note_on_c, 0, 65, 44
2, 1137989, Control_c, 0, 64, 24
2, 1138005, Control_c, 0, 64, 72
2, 1138013, Note_on_c, 0, 65, 0
2, 1138021, Control_c, 0, 64, 127
2, 1138037, Note_on_c, 0, 56, 0
2, 1138037, Note_on_c, 0, 61, 0
2, 1138041, Note_on_c, 0, 68, 0
2, 1138097, Note_on_c, 0, 68, 64
2, 1138197, Note_on_c, 0, 68, 0
2, 1138217, Note_on_c, 0, 73, 58
2, 1138221, Note_on_c, 0, 66, 40
2, 1138237, Control_c, 0, 64, 104
2, 1138245, Note_on_c, 0, 58, 31
2, 1138253, Note_on_c, 0, 61, 25
2, 1138253, Control_c, 0, 64, 24
2, 1138269, Control_c, 0, 64, 0
2, 1138361, Control_c, 0, 64, 104
2, 1138365, Note_on_c, 0, 66, 0
2, 1138377, Note_on_c, 0, 61, 0
2, 1138377, Note_on_c, 0, 58, 0
2, 1138377, Control_c, 0, 64, 127
2, 1138541, Note_on_c, 0, 61, 36
2, 1138545, Note_on_c, 0, 68, 53
2, 1138545, Note_on_c, 0, 65, 52
2, 1138557, Note_on_c, 0, 56, 39
2, 1138585, Note_on_c, 0, 73, 0
2, 1138593, Note_on_c, 0, 65, 0
2, 1138609, Note_on_c, 0, 61, 0
2, 1138609, Note_on_c, 0, 68, 0
2, 1138637, Note_on_c, 0, 56, 0
2, 1138873, Control_c, 0, 64, 104
2, 1138885, Control_c, 0, 64, 24
2, 1138897, Note_on_c, 0, 84, 102
2, 1138901, Note_on_c, 0, 72, 92
2, 1138901, Control_c, 0, 64, 0
2, 1138909, Note_on_c, 0, 42, 68
2, 1138917, Note_on_c, 0, 54, 71
2, 1138961, Note_on_c, 0, 54, 0
2, 1138965, Note_on_c, 0, 42, 0
2, 1138981, Control_c, 0, 64, 72
2, 1138993, Control_c, 0, 64, 127
2, 1139209, Note_on_c, 0, 60, 81
2, 1139209, Note_on_c, 0, 52, 55
2, 1139221, Note_on_c, 0, 58, 59
2, 1139249, Note_on_c, 0, 72, 0
2, 1139257, Note_on_c, 0, 52, 0
2, 1139285, Note_on_c, 0, 58, 0
2, 1139305, Note_on_c, 0, 60, 0
2, 1139345, Note_on_c, 0, 84, 0
2, 1139485, Note_on_c, 0, 52, 61
2, 1139485, Note_on_c, 0, 60, 74
2, 1139485, Note_on_c, 0, 58, 53
2, 1139541, Note_on_c, 0, 60, 0
2, 1139541, Note_on_c, 0, 52, 0
2, 1139545, Note_on_c, 0, 58, 0
2, 1139761, Note_on_c, 0, 89, 107
2, 1139765, Note_on_c, 0, 77, 93
2, 1139781, Note_on_c, 0, 41, 68
2, 1139785, Control_c, 0, 64, 40
2, 1139793, Note_on_c, 0, 53, 71
2, 1139801, Control_c, 0, 64, 0
2, 1139841, Note_on_c, 0, 41, 0
2, 1139869, Note_on_c, 0, 53, 0
2, 1139877, Control_c, 0, 64, 56
2, 1139893, Control_c, 0, 64, 127
2, 1140037, Note_on_c, 0, 89, 0
2, 1140053, Note_on_c, 0, 77, 0
2, 1140053, Note_on_c, 0, 60, 68
2, 1140057, Note_on_c, 0, 53, 61
2, 1140057, Note_on_c, 0, 57, 54
2, 1140109, Note_on_c, 0, 57, 0
2, 1140117, Note_on_c, 0, 60, 0
2, 1140125, Note_on_c, 0, 53, 0
2, 1140177, Note_on_c, 0, 87, 85
2, 1140189, Note_on_c, 0, 75, 84
2, 1140241, Note_on_c, 0, 75, 0
2, 1140249, Note_on_c, 0, 87, 0
2, 1140305, Note_on_c, 0, 57, 62
2, 1140313, Note_on_c, 0, 60, 58
2, 1140321, Note_on_c, 0, 53, 53
2, 1140333, Note_on_c, 0, 84, 89
2, 1140337, Note_on_c, 0, 72, 83
2, 1140341, Note_on_c, 0, 60, 0
2, 1140345, Note_on_c, 0, 57, 0
2, 1140357, Note_on_c, 0, 53, 0
2, 1140365, Note_on_c, 0, 72, 0
2, 1140385, Note_on_c, 0, 84, 0
2, 1140453, Note_on_c, 0, 85, 92
2, 1140457, Note_on_c, 0, 73, 91
2, 1140513, Note_on_c, 0, 73, 0
2, 1140517, Note_on_c, 0, 85, 0
2, 1140589, Control_c, 0, 64, 24
2, 1140605, Control_c, 0, 64, 0
2, 1140621, Note_on_c, 0, 82, 81
2, 1140629, Note_on_c, 0, 70, 81
2, 1140633, Note_on_c, 0, 34, 63
2, 1140645, Note_on_c, 0, 46, 68
2, 1140673, Note_on_c, 0, 70, 0
2, 1140685, Note_on_c, 0, 34, 0
2, 1140685, Control_c, 0, 64, 104
2, 1140693, Note_on_c, 0, 46, 0
2, 1140701, Control_c, 0, 64, 127
2, 1140705, Note_on_c, 0, 82, 0
2, 1140945, Note_on_c, 0, 61, 42
2, 1140949, Note_on_c, 0, 58, 33
2, 1140957, Note_on_c, 0, 53, 47
2, 1140985, Note_on_c, 0, 58, 0
2, 1141009, Note_on_c, 0, 61, 0
2, 1141021, Note_on_c, 0, 53, 0
2, 1141205, Note_on_c, 0, 61, 65
2, 1141209, Note_on_c, 0, 58, 51
2, 1141233, Note_on_c, 0, 53, 40
2, 1141245, Note_on_c, 0, 58, 0
2, 1141261, Note_on_c, 0, 61, 0
2, 1141265, Note_on_c, 0, 53, 0
2, 1141505, Control_c, 0, 64, 104
2, 1141521, Note_on_c, 0, 56, 68
2, 1141521, Control_c, 0, 64, 0
2, 1141537, Note_on_c, 0, 44, 70
2, 1141581, Note_on_c, 0, 44, 0
2, 1141585, Note_on_c, 0, 56, 0
2, 1141597, Control_c, 0, 64, 56
2, 1141613, Control_c, 0, 64, 127
2, 1141841, Note_on_c, 0, 65, 57
2, 1141845, Note_on_c, 0, 61, 39
2, 1141853, Note_on_c, 0, 56, 26
2, 1141913, Note_on_c, 0, 61, 0
2, 1141913, Note_on_c, 0, 65, 0
2, 1141953, Note_on_c, 0, 56, 0
2, 1142157, Note_on_c, 0, 65, 62
2, 1142173, Note_on_c, 0, 61, 43
2, 1142173, Note_on_c, 0, 56, 40
2, 1142193, Note_on_c, 0, 65, 0
2, 1142201, Note_on_c, 0, 61, 0
2, 1142233, Note_on_c, 0, 56, 0
2, 1142497, Note_on_c, 0, 82, 96
2, 1142501, Note_on_c, 0, 70, 83
2, 1142509, Control_c, 0, 64, 40
2, 1142525, Note_on_c, 0, 43, 64
2, 1142529, Control_c, 0, 64, 0
2, 1142533, Note_on_c, 0, 55, 62
2, 1142561, Note_on_c, 0, 43, 0
2, 1142605, Note_on_c, 0, 55, 0
2, 1142621, Control_c, 0, 64, 127
2, 1142713, Note_on_c, 0, 82, 0
2, 1142717, Note_on_c, 0, 70, 0
2, 1142805, Note_on_c, 0, 61, 64
2, 1142813, Note_on_c, 0, 58, 48
2, 1142825, Note_on_c, 0, 51, 56
2, 1142849, Note_on_c, 0, 58, 0
2, 1142849, Control_c, 0, 64, 104
2, 1142869, Note_on_c, 0, 61, 0
2, 1142869, Control_c, 0, 64, 56
2, 1142881, Note_on_c, 0, 51, 0
2, 1142881, Control_c, 0, 64, 24
2, 1142897, Control_c, 0, 64, 0
2, 1143085, Note_on_c, 0, 61, 62
2, 1143089, Note_on_c, 0, 75, 89
2, 1143097, Note_on_c, 0, 63, 77
2, 1143101, Note_on_c, 0, 58, 38
2, 1143101, Note_on_c, 0, 51, 50
2, 1143117, Note_on_c, 0, 61, 0
2, 1143117, Control_c, 0, 64, 56
2, 1143129, Note_on_c, 0, 58, 0
2, 1143129, Control_c, 0, 64, 104
2, 1143145, Control_c, 0, 64, 127
2, 1143157, Note_on_c, 0, 51, 0
2, 1143237, Control_c, 0, 64, 56
2, 1143257, Control_c, 0, 64, 0
2, 1143317, Control_c, 0, 64, 40
2, 1143333, Control_c, 0, 64, 127
2, 1143369, Note_on_c, 0, 54, 57
2, 1143373, Note_on_c, 0, 42, 46
2, 1143401, Note_on_c, 0, 42, 0
2, 1143409, Note_on_c, 0, 54, 0
2, 1143421, Note_on_c, 0, 63, 0
2, 1143437, Note_on_c, 0, 75, 0
2, 1143581, Control_c, 0, 64, 72
2, 1143597, Control_c, 0, 64, 0
2, 1143633, Note_on_c, 0, 74, 90
2, 1143637, Note_on_c, 0, 62, 79
2, 1143649, Note_on_c, 0, 51, 62
2, 1143653, Note_on_c, 0, 56, 54
2, 1143657, Note_on_c, 0, 60, 64
2, 1143701, Note_on_c, 0, 60, 0
2, 1143705, Control_c, 0, 64, 56
2, 1143717, Note_on_c, 0, 56, 0
2, 1143721, Control_c, 0, 64, 127
2, 1143729, Note_on_c, 0, 51, 0
2, 1143753, Note_on_c, 0, 62, 0
2, 1143817, Note_on_c, 0, 74, 0
2, 1143901, Note_on_c, 0, 56, 62
2, 1143905, Note_on_c, 0, 51, 62
2, 1143905, Note_on_c, 0, 60, 68
2, 1143929, Note_on_c, 0, 60, 0
2, 1143929, Note_on_c, 0, 56, 0
2, 1143961, Note_on_c, 0, 51, 0
2, 1144037, Note_on_c, 0, 75, 82
2, 1144037, Note_on_c, 0, 63, 62
2, 1144073, Note_on_c, 0, 63, 0
2, 1144093, Control_c, 0, 64, 56
2, 1144101, Note_on_c, 0, 75, 0
2, 1144109, Control_c, 0, 64, 0
2, 1144153, Note_on_c, 0, 80, 89
2, 1144161, Note_on_c, 0, 68, 77
2, 1144181, Note_on_c, 0, 41, 64
2, 1144185, Control_c, 0, 64, 72
2, 1144201, Note_on_c, 0, 68, 0
2, 1144201, Note_on_c, 0, 80, 0
2, 1144201, Control_c, 0, 64, 127
2, 1144217, Note_on_c, 0, 41, 0
2, 1144221, Note_on_c, 0, 53, 24
2, 1144257, Note_on_c, 0, 53, 0
2, 1144337, Control_c, 0, 64, 104
2, 1144353, Control_c, 0, 64, 72
2, 1144369, Control_c, 0, 64, 56
2, 1144385, Control_c, 0, 64, 24
2, 1144401, Control_c, 0, 64, 0
2, 1144445, Note_on_c, 0, 56, 64
2, 1144453, Note_on_c, 0, 53, 67
2, 1144485, Note_on_c, 0, 53, 0
2, 1144501, Note_on_c, 0, 56, 0
2, 1144701, Note_on_c, 0, 53, 59
2, 1144701, Note_on_c, 0, 56, 44
2, 1144705, Note_on_c, 0, 73, 84
2, 1144713, Note_on_c, 0, 61, 73
2, 1144725, Control_c, 0, 64, 56
2, 1144733, Note_on_c, 0, 53, 0
2, 1144737, Note_on_c, 0, 56, 0
2, 1144741, Control_c, 0, 64, 104
2, 1144761, Control_c, 0, 64, 127
2, 1144865, Control_c, 0, 64, 72
2, 1144881, Control_c, 0, 64, 0
2, 1144945, Control_c, 0, 64, 72
2, 1144957, Control_c, 0, 64, 127
2, 1144969, Note_on_c, 0, 40, 66
2, 1144985, Note_on_c, 0, 52, 71
2, 1145017, Note_on_c, 0, 61, 0
2, 1145025, Note_on_c, 0, 40, 0
2, 1145029, Note_on_c, 0, 73, 0
2, 1145049, Note_on_c, 0, 52, 0
2, 1145225, Control_c, 0, 64, 72
2, 1145237, Control_c, 0, 64, 0
2, 1145257, Note_on_c, 0, 72, 87
2, 1145269, Note_on_c, 0, 60, 72
2, 1145277, Note_on_c, 0, 56, 55
2, 1145281, Note_on_c, 0, 52, 65
2, 1145309, Note_on_c, 0, 52, 0
2, 1145329, Control_c, 0, 64, 72
2, 1145341, Note_on_c, 0, 56, 0
2, 1145345, Control_c, 0, 64, 127
2, 1145353, Note_on_c, 0, 60, 0
2, 1145385, Note_on_c, 0, 72, 0
2, 1145501, Note_on_c, 0, 52, 67
2, 1145501, Note_on_c, 0, 56, 54
2, 1145533, Note_on_c, 0, 52, 0
2, 1145545, Note_on_c, 0, 56, 0
2, 1145641, Note_on_c, 0, 61, 65
2, 1145641, Control_c, 0, 64, 104
2, 1145645, Note_on_c, 0, 73, 80
2, 1145657, Control_c, 0, 64, 88
2, 1145685, Note_on_c, 0, 61, 0
2, 1145689, Control_c, 0, 64, 56
2, 1145697, Note_on_c, 0, 73, 0
2, 1145701, Control_c, 0, 64, 0
2, 1145773, Note_on_c, 0, 78, 86
2, 1145773, Note_on_c, 0, 66, 81
2, 1145781, Note_on_c, 0, 39, 65
2, 1145793, Note_on_c, 0, 51, 60
2, 1145797, Control_c, 0, 64, 72
2, 1145809, Control_c, 0, 64, 127
2, 1145821, Note_on_c, 0, 78, 0
2, 1145825, Note_on_c, 0, 66, 0
2, 1145829, Note_on_c, 0, 51, 0
2, 1145845, Note_on_c, 0, 39, 0
2, 1145981, Control_c, 0, 64, 88
2, 1145997, Control_c, 0, 64, 40
2, 1146013, Control_c, 0, 64, 0
2, 1146041, Note_on_c, 0, 54, 64
2, 1146065, Note_on_c, 0, 51, 28
2, 1146093, Note_on_c, 0, 51, 0
2, 1146097, Note_on_c, 0, 54, 0
2, 1146313, Note_on_c, 0, 54, 53
2, 1146313, Note_on_c, 0, 51, 65
2, 1146325, Control_c, 0, 64, 24
2, 1146329, Note_on_c, 0, 70, 77
2, 1146333, Note_on_c, 0, 58, 64
2, 1146337, Note_on_c, 0, 51, 0
2, 1146337, Note_on_c, 0, 54, 0
2, 1146337, Control_c, 0, 64, 72
2, 1146353, Control_c, 0, 64, 104
2, 1146369, Control_c, 0, 64, 127
2, 1146445, Control_c, 0, 64, 104
2, 1146461, Control_c, 0, 64, 56
2, 1146477, Control_c, 0, 64, 0
2, 1146569, Control_c, 0, 64, 56
2, 1146585, Control_c, 0, 64, 127
2, 1146593, Note_on_c, 0, 44, 79
2, 1146601, Note_on_c, 0, 32, 62
2, 1146605, Note_on_c, 0, 58, 0
2, 1146641, Note_on_c, 0, 32, 0
2, 1146645, Note_on_c, 0, 44, 0
2, 1146657, Note_on_c, 0, 70, 0
2, 1146817, Control_c, 0, 64, 104
2, 1146833, Control_c, 0, 64, 56
2, 1146849, Control_c, 0, 64, 0
2, 1146873, Note_on_c, 0, 71, 80
2, 1146881, Note_on_c, 0, 59, 66
2, 1146885, Note_on_c, 0, 54, 45
2, 1146889, Note_on_c, 0, 51, 48
2, 1146925, Note_on_c, 0, 51, 0
2, 1146925, Control_c, 0, 64, 40
2, 1146933, Note_on_c, 0, 54, 0
2, 1146941, Control_c, 0, 64, 104
2, 1146957, Control_c, 0, 64, 127
2, 1147041, Note_on_c, 0, 59, 0
2, 1147113, Note_on_c, 0, 54, 68
2, 1147121, Note_on_c, 0, 71, 0
2, 1147133, Note_on_c, 0, 51, 39
2, 1147157, Note_on_c, 0, 51, 0
2, 1147165, Note_on_c, 0, 54, 0
2, 1147253, Note_on_c, 0, 72, 82
2, 1147257, Note_on_c, 0, 60, 64
2, 1147265, Control_c, 0, 64, 104
2, 1147281, Control_c, 0, 64, 72
2, 1147289, Note_on_c, 0, 60, 0
2, 1147297, Control_c, 0, 64, 40
2, 1147313, Note_on_c, 0, 72, 0
2, 1147313, Control_c, 0, 64, 0
2, 1147389, Note_on_c, 0, 61, 62
2, 1147393, Note_on_c, 0, 73, 82
2, 1147393, Control_c, 0, 64, 56
2, 1147401, Note_on_c, 0, 37, 57
2, 1147409, Note_on_c, 0, 49, 57
2, 1147409, Control_c, 0, 64, 127
2, 1147429, Note_on_c, 0, 61, 0
2, 1147441, Note_on_c, 0, 49, 0
2, 1147445, Note_on_c, 0, 37, 0
2, 1147449, Note_on_c, 0, 73, 0
2, 1147561, Control_c, 0, 64, 88
2, 1147577, Control_c, 0, 64, 72
2, 1147593, Control_c, 0, 64, 56
2, 1147609, Control_c, 0, 64, 24
2, 1147637, Control_c, 0, 64, 0
2, 1147689, Note_on_c, 0, 56, 54
2, 1147693, Note_on_c, 0, 65, 65
2, 1147705, Note_on_c, 0, 53, 62
2, 1147737, Note_on_c, 0, 53, 0
2, 1147761, Note_on_c, 0, 65, 0
2, 1147769, Note_on_c, 0, 56, 0
2, 1147933, Control_c, 0, 64, 40
2, 1147937, Note_on_c, 0, 56, 65
2, 1147949, Note_on_c, 0, 85, 96
2, 1147949, Note_on_c, 0, 65, 48
2, 1147949, Control_c, 0, 64, 88
2, 1147953, Note_on_c, 0, 53, 59
2, 1147957, Note_on_c, 0, 73, 85
2, 1147965, Control_c, 0, 64, 127
2, 1147981, Note_on_c, 0, 65, 0
2, 1147985, Note_on_c, 0, 53, 0
2, 1147997, Note_on_c, 0, 56, 0
2, 1148165, Control_c, 0, 64, 104
2, 1148181, Control_c, 0, 64, 24
2, 1148197, Control_c, 0, 64, 0
2, 1148229, Note_on_c, 0, 44, 55
2, 1148233, Note_on_c, 0, 85, 0
2, 1148233, Note_on_c, 0, 56, 75
2, 1148245, Note_on_c, 0, 73, 0
2, 1148245, Control_c, 0, 64, 40
2, 1148253, Note_on_c, 0, 44, 0
2, 1148261, Control_c, 0, 64, 88
2, 1148277, Control_c, 0, 64, 127
2, 1148285, Note_on_c, 0, 56, 0
2, 1148493, Control_c, 0, 64, 72
2, 1148509, Note_on_c, 0, 79, 93
2, 1148509, Control_c, 0, 64, 0
2, 1148517, Note_on_c, 0, 67, 83
2, 1148525, Note_on_c, 0, 53, 65
2, 1148525, Note_on_c, 0, 61, 60
2, 1148537, Note_on_c, 0, 56, 43
2, 1148537, Control_c, 0, 64, 24
2, 1148553, Control_c, 0, 64, 72
2, 1148569, Control_c, 0, 64, 127
2, 1148573, Note_on_c, 0, 56, 0
2, 1148573, Note_on_c, 0, 67, 0
2, 1148601, Note_on_c, 0, 61, 0
2, 1148605, Note_on_c, 0, 53, 0
2, 1148625, Note_on_c, 0, 79, 0
2, 1148737, Note_on_c, 0, 61, 61
2, 1148741, Note_on_c, 0, 56, 53
2, 1148753, Note_on_c, 0, 52, 55
2, 1148781, Note_on_c, 0, 52, 0
2, 1148781, Note_on_c, 0, 61, 0
2, 1148797, Note_on_c, 0, 56, 0
2, 1148905, Note_on_c, 0, 80, 84
2, 1148905, Note_on_c, 0, 68, 64
2, 1148953, Note_on_c, 0, 68, 0
2, 1148977, Note_on_c, 0, 80, 0
2, 1149033, Note_on_c, 0, 72, 46
2, 1149033, Note_on_c, 0, 84, 80
2, 1149049, Control_c, 0, 64, 40
2, 1149065, Note_on_c, 0, 72, 0
2, 1149069, Control_c, 0, 64, 0
2, 1149089, Note_on_c, 0, 84, 0
2, 1149097, Note_on_c, 0, 43, 62
2, 1149105, Note_on_c, 0, 82, 87
2, 1149113, Note_on_c, 0, 70, 89
2, 1149117, Note_on_c, 0, 55, 54
2, 1149129, Note_on_c, 0, 43, 0
2, 1149141, Control_c, 0, 64, 88
2, 1149157, Note_on_c, 0, 55, 0
2, 1149161, Note_on_c, 0, 70, 0
2, 1149161, Control_c, 0, 64, 127
2, 1149169, Note_on_c, 0, 82, 0
2, 1149285, Control_c, 0, 64, 104
2, 1149297, Control_c, 0, 64, 72
2, 1149313, Control_c, 0, 64, 56
2, 1149329, Control_c, 0, 64, 40
2, 1149345, Control_c, 0, 64, 24
2, 1149361, Control_c, 0, 64, 0
2, 1149385, Note_on_c, 0, 61, 69
2, 1149385, Note_on_c, 0, 51, 62
2, 1149397, Note_on_c, 0, 58, 47
2, 1149425, Note_on_c, 0, 58, 0
2, 1149445, Note_on_c, 0, 61, 0
2, 1149453, Note_on_c, 0, 51, 0
2, 1149653, Control_c, 0, 64, 40
2, 1149669, Control_c, 0, 64, 88
2, 1149673, Note_on_c, 0, 61, 60
2, 1149681, Note_on_c, 0, 75, 88
2, 1149685, Note_on_c, 0, 51, 62
2, 1149685, Note_on_c, 0, 58, 45
2, 1149685, Control_c, 0, 64, 127
2, 1149689, Note_on_c, 0, 63, 73
2, 1149697, Note_on_c, 0, 61, 0
2, 1149709, Note_on_c, 0, 58, 0
2, 1149717, Note_on_c, 0, 51, 0
2, 1149809, Control_c, 0, 64, 88
2, 1149825, Control_c, 0, 64, 0
2, 1149901, Control_c, 0, 64, 40
2, 1149917, Control_c, 0, 64, 127
2, 1149929, Note_on_c, 0, 54, 63
2, 1149933, Note_on_c, 0, 42, 57
2, 1149961, Note_on_c, 0, 42, 0
2, 1149985, Note_on_c, 0, 54, 0
2, 1150021, Note_on_c, 0, 63, 0
2, 1150037, Note_on_c, 0, 75, 0
2, 1150165, Control_c, 0, 64, 104
2, 1150181, Control_c, 0, 64, 24
2, 1150197, Control_c, 0, 64, 0
2, 1150201, Note_on_c, 0, 74, 89
2, 1150209, Note_on_c, 0, 62, 79
2, 1150217, Note_on_c, 0, 57, 62
2, 1150221, Note_on_c, 0, 60, 68
2, 1150241, Note_on_c, 0, 51, 45
2, 1150273, Control_c, 0, 64, 88
2, 1150289, Note_on_c, 0, 51, 0
2, 1150289, Control_c, 0, 64, 127
2, 1150313, Note_on_c, 0, 60, 0
2, 1150337, Note_on_c, 0, 57, 0
2, 1150381, Note_on_c, 0, 62, 0
2, 1150485, Note_on_c, 0, 56, 64
2, 1150489, Note_on_c, 0, 74, 0
2, 1150497, Note_on_c, 0, 51, 60
2, 1150501, Note_on_c, 0, 60, 66
2, 1150525, Note_on_c, 0, 60, 0
2, 1150529, Note_on_c, 0, 56, 0
2, 1150537, Note_on_c, 0, 51, 0
2, 1150625, Note_on_c, 0, 63, 71
2, 1150625, Note_on_c, 0, 75, 86
2, 1150669, Note_on_c, 0, 63, 0
2, 1150693, Control_c, 0, 64, 72
2, 1150701, Note_on_c, 0, 75, 0
2, 1150709, Control_c, 0, 64, 0
2, 1150761, Note_on_c, 0, 80, 89
2, 1150765, Note_on_c, 0, 68, 82
2, 1150769, Note_on_c, 0, 41, 68
2, 1150781, Note_on_c, 0, 53, 69
2, 1150785, Control_c, 0, 64, 56
2, 1150801, Control_c, 0, 64, 127
2, 1150805, Note_on_c, 0, 41, 0
2, 1150805, Note_on_c, 0, 80, 0
2, 1150805, Note_on_c, 0, 68, 0
2, 1150845, Note_on_c, 0, 53, 0
2, 1150941, Control_c, 0, 64, 88
2, 1150953, Control_c, 0, 64, 72
2, 1150973, Control_c, 0, 64, 40
2, 1150989, Control_c, 0, 64, 24
2, 1151005, Control_c, 0, 64, 0
2, 1151021, Note_on_c, 0, 53, 67
2, 1151025, Note_on_c, 0, 56, 57
2, 1151069, Note_on_c, 0, 56, 0
2, 1151069, Note_on_c, 0, 53, 0
2, 1151281, Note_on_c, 0, 56, 56
2, 1151293, Note_on_c, 0, 73, 80
2, 1151293, Note_on_c, 0, 53, 55
2, 1151297, Note_on_c, 0, 61, 69
2, 1151297, Control_c, 0, 64, 88
2, 1151313, Control_c, 0, 64, 127
2, 1151317, Note_on_c, 0, 53, 0
2, 1151321, Note_on_c, 0, 56, 0
2, 1151465, Control_c, 0, 64, 72
2, 1151481, Control_c, 0, 64, 0
2, 1151557, Note_on_c, 0, 40, 65
2, 1151561, Control_c, 0, 64, 40
2, 1151577, Control_c, 0, 64, 127
2, 1151581, Note_on_c, 0, 52, 65
2, 1151593, Note_on_c, 0, 40, 0
2, 1151613, Note_on_c, 0, 73, 0
2, 1151621, Note_on_c, 0, 52, 0
2, 1151625, Note_on_c, 0, 61, 0
2, 1151745, Control_c, 0, 64, 104
2, 1151761, Control_c, 0, 64, 40
2, 1151777, Control_c, 0, 64, 0
2, 1151817, Note_on_c, 0, 72, 87
2, 1151825, Note_on_c, 0, 60, 78
2, 1151833, Note_on_c, 0, 56, 54
2, 1151841, Note_on_c, 0, 52, 61
2, 1151869, Note_on_c, 0, 52, 0
2, 1151885, Control_c, 0, 64, 88
2, 1151897, Note_on_c, 0, 56, 0
2, 1151901, Control_c, 0, 64, 127
2, 1151957, Note_on_c, 0, 60, 0
2, 1151973, Note_on_c, 0, 72, 0
2, 1152065, Note_on_c, 0, 52, 69
2, 1152069, Note_on_c, 0, 56, 50
2, 1152093, Note_on_c, 0, 52, 0
2, 1152109, Note_on_c, 0, 56, 0
2, 1152189, Note_on_c, 0, 61, 72
2, 1152193, Note_on_c, 0, 73, 83
2, 1152237, Note_on_c, 0, 61, 0
2, 1152241, Note_on_c, 0, 73, 0
2, 1152257, Control_c, 0, 64, 104
2, 1152273, Control_c, 0, 64, 40
2, 1152289, Control_c, 0, 64, 0
2, 1152325, Note_on_c, 0, 66, 81
2, 1152329, Note_on_c, 0, 78, 88
2, 1152337, Note_on_c, 0, 39, 61
2, 1152357, Note_on_c, 0, 51, 59
2, 1152365, Control_c, 0, 64, 56
2, 1152369, Note_on_c, 0, 78, 0
2, 1152369, Note_on_c, 0, 66, 0
2, 1152381, Control_c, 0, 64, 127
2, 1152393, Note_on_c, 0, 51, 0
2, 1152405, Note_on_c, 0, 39, 0
2, 1152537, Control_c, 0, 64, 104
2, 1152553, Control_c, 0, 64, 72
2, 1152569, Control_c, 0, 64, 40
2, 1152581, Control_c, 0, 64, 0
2, 1152597, Note_on_c, 0, 54, 55
2, 1152597, Note_on_c, 0, 51, 57
2, 1152661, Note_on_c, 0, 51, 0
2, 1152661, Note_on_c, 0, 54, 0
2, 1152861, Control_c, 0, 64, 24
2, 1152869, Note_on_c, 0, 51, 71
2, 1152877, Note_on_c, 0, 70, 79
2, 1152877, Note_on_c, 0, 54, 49
2, 1152877, Note_on_c, 0, 58, 65
2, 1152877, Control_c, 0, 64, 72
2, 1152893, Control_c, 0, 64, 127
2, 1152897, Note_on_c, 0, 51, 0
2, 1152901, Note_on_c, 0, 54, 0
2, 1153001, Control_c, 0, 64, 104
2, 1153017, Control_c, 0, 64, 56
2, 1153033, Control_c, 0, 64, 0
2, 1153125, Control_c, 0, 64, 72
2, 1153141, Note_on_c, 0, 58, 0
2, 1153141, Control_c, 0, 64, 127
2, 1153145, Note_on_c, 0, 44, 80
2, 1153149, Note_on_c, 0, 32, 62
2, 1153173, Note_on_c, 0, 32, 0
2, 1153197, Note_on_c, 0, 44, 0
2, 1153205, Note_on_c, 0, 70, 0
2, 1153389, Control_c, 0, 64, 72
2, 1153405, Control_c, 0, 64, 24
2, 1153417, Note_on_c, 0, 71, 77
2, 1153417, Control_c, 0, 64, 0
2, 1153429, Note_on_c, 0, 51, 55
2, 1153429, Note_on_c, 0, 59, 56
2, 1153429, Note_on_c, 0, 54, 40
2, 1153485, Note_on_c, 0, 51, 0
2, 1153497, Note_on_c, 0, 54, 0
2, 1153497, Control_c, 0, 64, 40
2, 1153513, Control_c, 0, 64, 88
2, 1153529, Control_c, 0, 64, 127
2, 1153593, Note_on_c, 0, 59, 0
2, 1153677, Note_on_c, 0, 51, 71
2, 1153685, Note_on_c, 0, 54, 43
2, 1153697, Note_on_c, 0, 71, 0
2, 1153709, Note_on_c, 0, 54, 0
2, 1153709, Note_on_c, 0, 51, 0
2, 1153809, Note_on_c, 0, 72, 82
2, 1153817, Note_on_c, 0, 60, 60
2, 1153845, Note_on_c, 0, 60, 0
2, 1153873, Note_on_c, 0, 72, 0
2, 1153933, Control_c, 0, 64, 72
2, 1153945, Control_c, 0, 64, 0
2, 1153957, Note_on_c, 0, 73, 77
2, 1153957, Note_on_c, 0, 61, 65
2, 1153989, Note_on_c, 0, 37, 54
2, 1154057, Note_on_c, 0, 61, 0
2, 1154069, Note_on_c, 0, 37, 0
2, 1154085, Control_c, 0, 64, 88
2, 1154097, Note_on_c, 0, 73, 0
2, 1154101, Control_c, 0, 64, 127
2, 1154285, Note_on_c, 0, 73, 64
2, 1154289, Control_c, 0, 64, 104
2, 1154297, Note_on_c, 0, 65, 57
2, 1154297, Note_on_c, 0, 49, 40
2, 1154305, Note_on_c, 0, 56, 25
2, 1154305, Control_c, 0, 64, 24
2, 1154317, Control_c, 0, 64, 0
2, 1154381, Control_c, 0, 64, 72
2, 1154389, Note_on_c, 0, 56, 0
2, 1154389, Note_on_c, 0, 49, 0
2, 1154397, Control_c, 0, 64, 127
2, 1154417, Note_on_c, 0, 65, 0
2, 1154461, Note_on_c, 0, 73, 0
2, 1154557, Note_on_c, 0, 75, 77
2, 1154573, Note_on_c, 0, 65, 60
2, 1154573, Note_on_c, 0, 56, 34
2, 1154581, Note_on_c, 0, 49, 35
2, 1154653, Note_on_c, 0, 56, 0
2, 1154669, Note_on_c, 0, 49, 0
2, 1154689, Note_on_c, 0, 65, 0
2, 1154781, Note_on_c, 0, 75, 0
2, 1154821, Note_on_c, 0, 77, 88
2, 1154829, Note_on_c, 0, 65, 69
2, 1154841, Note_on_c, 0, 56, 49
2, 1154853, Note_on_c, 0, 49, 46
2, 1154905, Note_on_c, 0, 65, 0
2, 1154913, Note_on_c, 0, 56, 0
2, 1154925, Note_on_c, 0, 49, 0
2, 1154973, Note_on_c, 0, 77, 0
2, 1155089, Note_on_c, 0, 78, 89
2, 1155101, Note_on_c, 0, 65, 79
2, 1155101, Note_on_c, 0, 56, 42
2, 1155109, Note_on_c, 0, 49, 37
2, 1155165, Note_on_c, 0, 65, 0
2, 1155169, Note_on_c, 0, 49, 0
2, 1155177, Note_on_c, 0, 56, 0
2, 1155301, Note_on_c, 0, 78, 0
2, 1155357, Note_on_c, 0, 79, 85
2, 1155357, Note_on_c, 0, 58, 52
2, 1155385, Note_on_c, 0, 49, 40
2, 1155417, Note_on_c, 0, 49, 0
2, 1155501, Note_on_c, 0, 58, 0
2, 1155501, Note_on_c, 0, 79, 0
2, 1155561, Note_on_c, 0, 65, 65
2, 1155577, Note_on_c, 0, 49, 49
2, 1155729, Control_c, 0, 64, 104
2, 1155745, Control_c, 0, 64, 40
2, 1155749, Note_on_c, 0, 80, 91
2, 1155757, Control_c, 0, 64, 0
2, 1155765, Note_on_c, 0, 59, 65
2, 1155853, Note_on_c, 0, 65, 0
2, 1155853, Control_c, 0, 64, 88
2, 1155869, Control_c, 0, 64, 127
2, 1155925, Note_on_c, 0, 49, 0
2, 1156005, Note_on_c, 0, 80, 0
2, 1156301, Note_on_c, 0, 59, 0
2, 1156345, Note_on_c, 0, 73, 69
2, 1156345, Note_on_c, 0, 65, 18
2, 1156373, Note_on_c, 0, 49, 35
2, 1156441, Note_on_c, 0, 49, 0
2, 1156617, Note_on_c, 0, 49, 47
2, 1156689, Note_on_c, 0, 49, 0
2, 1156721, Note_on_c, 0, 73, 0
2, 1156861, Note_on_c, 0, 72, 79
2, 1156873, Note_on_c, 0, 49, 44
2, 1156957, Note_on_c, 0, 49, 0
2, 1157129, Note_on_c, 0, 49, 49
2, 1157205, Note_on_c, 0, 49, 0
2, 1157225, Note_on_c, 0, 72, 0
2, 1157265, Note_on_c, 0, 73, 78
2, 1157273, Note_on_c, 0, 65, 0
2, 1157349, Note_on_c, 0, 73, 0
2, 1157457, Note_on_c, 0, 78, 80
2, 1157473, Note_on_c, 0, 66, 47
2, 1157481, Note_on_c, 0, 58, 34
2, 1157481, Note_on_c, 0, 49, 37
2, 1157509, Control_c, 0, 64, 72
2, 1157525, Control_c, 0, 64, 0
2, 1157605, Note_on_c, 0, 58, 0
2, 1157617, Note_on_c, 0, 49, 0
2, 1157617, Control_c, 0, 64, 56
2, 1157633, Control_c, 0, 64, 127
2, 1157653, Note_on_c, 0, 78, 0
2, 1157657, Note_on_c, 0, 66, 0
2, 1157749, Note_on_c, 0, 78, 77
2, 1157761, Note_on_c, 0, 66, 59
2, 1157773, Note_on_c, 0, 57, 49
2, 1157777, Note_on_c, 0, 49, 40
2, 1157849, Note_on_c, 0, 57, 0
2, 1157893, Note_on_c, 0, 49, 0
2, 1157909, Note_on_c, 0, 66, 0
2, 1157917, Note_on_c, 0, 78, 0
2, 1158025, Note_on_c, 0, 77, 85
2, 1158029, Note_on_c, 0, 58, 47
2, 1158041, Note_on_c, 0, 66, 53
2, 1158041, Note_on_c, 0, 49, 46
2, 1158137, Note_on_c, 0, 49, 0
2, 1158157, Note_on_c, 0, 58, 0
2, 1158165, Note_on_c, 0, 66, 0
2, 1158173, Note_on_c, 0, 77, 0
2, 1158293, Note_on_c, 0, 75, 80
2, 1158309, Note_on_c, 0, 60, 74
2, 1158309, Note_on_c, 0, 49, 64
2, 1158309, Note_on_c, 0, 66, 47
2, 1158385, Note_on_c, 0, 60, 0
2, 1158429, Note_on_c, 0, 66, 0
2, 1158433, Note_on_c, 0, 49, 0
2, 1158493, Note_on_c, 0, 75, 0
2, 1158557, Note_on_c, 0, 73, 73
2, 1158569, Note_on_c, 0, 61, 69
2, 1158573, Note_on_c, 0, 49, 64
2, 1158573, Note_on_c, 0, 66, 36
2, 1158641, Note_on_c, 0, 66, 0
2, 1158649, Note_on_c, 0, 73, 0
2, 1158673, Note_on_c, 0, 49, 0
2, 1158673, Note_on_c, 0, 61, 0
2, 1158829, Note_on_c, 0, 72, 83
2, 1158837, Note_on_c, 0, 66, 61
2, 1158841, Note_on_c, 0, 63, 69
2, 1158861, Note_on_c, 0, 49, 47
2, 1158917, Note_on_c, 0, 66, 0
2, 1158925, Note_on_c, 0, 72, 0
2, 1158929, Note_on_c, 0, 49, 0
2, 1158937, Note_on_c, 0, 63, 0
2, 1159161, Note_on_c, 0, 64, 66
2, 1159161, Note_on_c, 0, 70, 70
2, 1159181, Note_on_c, 0, 67, 55
2, 1159217, Note_on_c, 0, 49, 44
2, 1159229, Control_c, 0, 64, 40
2, 1159245, Control_c, 0, 64, 0
2, 1159361, Note_on_c, 0, 49, 0
2, 1159369, Control_c, 0, 64, 127
2, 1159477, Note_on_c, 0, 67, 0
2, 1159489, Note_on_c, 0, 49, 33
2, 1159549, Note_on_c, 0, 64, 0
2, 1159561, Note_on_c, 0, 70, 0
2, 1159593, Note_on_c, 0, 49, 0
2, 1159745, Note_on_c, 0, 68, 63
2, 1159757, Note_on_c, 0, 66, 46
2, 1159761, Note_on_c, 0, 60, 61
2, 1159761, Note_on_c, 0, 63, 44
2, 1159773, Note_on_c, 0, 49, 44
2, 1159785, Control_c, 0, 64, 88
2, 1159801, Control_c, 0, 64, 0
2, 1159905, Note_on_c, 0, 49, 0
2, 1159909, Control_c, 0, 64, 72
2, 1159925, Control_c, 0, 64, 127
2, 1160057, Note_on_c, 0, 49, 39
2, 1160141, Note_on_c, 0, 49, 0
2, 1160177, Note_on_c, 0, 63, 0
2, 1160177, Note_on_c, 0, 66, 0
2, 1160189, Note_on_c, 0, 60, 0
2, 1160189, Note_on_c, 0, 68, 0
2, 1160289, Note_on_c, 0, 68, 67
2, 1160293, Note_on_c, 0, 63, 58
2, 1160313, Note_on_c, 0, 49, 34
2, 1160409, Note_on_c, 0, 49, 0
2, 1160561, Note_on_c, 0, 49, 58
2, 1160641, Note_on_c, 0, 49, 0
2, 1160641, Note_on_c, 0, 63, 0
2, 1160721, Note_on_c, 0, 68, 0
2, 1160721, Note_on_c, 0, 60, 64
2, 1160745, Note_on_c, 0, 60, 0
2, 1160865, Note_on_c, 0, 56, 39
2, 1160869, Note_on_c, 0, 68, 70
2, 1160873, Note_on_c, 0, 49, 41
2, 1160885, Control_c, 0, 64, 24
2, 1160889, Note_on_c, 0, 65, 60
2, 1160901, Control_c, 0, 64, 0
2, 1160977, Note_on_c, 0, 56, 0
2, 1160977, Control_c, 0, 64, 127
2, 1160993, Note_on_c, 0, 49, 0
2, 1161037, Note_on_c, 0, 68, 0
2, 1161041, Note_on_c, 0, 65, 0
2, 1161149, Control_c, 0, 64, 104
2, 1161153, Note_on_c, 0, 73, 69
2, 1161157, Note_on_c, 0, 49, 45
2, 1161165, Note_on_c, 0, 65, 53
2, 1161165, Control_c, 0, 64, 0
2, 1161169, Note_on_c, 0, 61, 33
2, 1161241, Control_c, 0, 64, 104
2, 1161245, Note_on_c, 0, 61, 0
2, 1161257, Control_c, 0, 64, 127
2, 1161265, Note_on_c, 0, 65, 0
2, 1161273, Note_on_c, 0, 49, 0
2, 1161341, Note_on_c, 0, 73, 0
2, 1161409, Note_on_c, 0, 75, 85
2, 1161421, Note_on_c, 0, 56, 43
2, 1161421, Note_on_c, 0, 49, 37
2, 1161425, Note_on_c, 0, 65, 68
2, 1161489, Note_on_c, 0, 56, 0
2, 1161497, Note_on_c, 0, 65, 0
2, 1161513, Note_on_c, 0, 49, 0
2, 1161601, Note_on_c, 0, 75, 0
2, 1161673, Note_on_c, 0, 56, 44
2, 1161673, Note_on_c, 0, 77, 87
2, 1161681, Note_on_c, 0, 65, 69
2, 1161681, Note_on_c, 0, 49, 39
2, 1161757, Note_on_c, 0, 65, 0
2, 1161769, Note_on_c, 0, 56, 0
2, 1161773, Note_on_c, 0, 49, 0
2, 1161817, Note_on_c, 0, 77, 0
2, 1161949, Note_on_c, 0, 78, 85
2, 1161957, Note_on_c, 0, 49, 56
2, 1161965, Note_on_c, 0, 58, 48
2, 1161969, Note_on_c, 0, 65, 66
2, 1162025, Note_on_c, 0, 65, 0
2, 1162057, Note_on_c, 0, 49, 0
2, 1162085, Note_on_c, 0, 58, 0
2, 1162177, Note_on_c, 0, 78, 0
2, 1162233, Note_on_c, 0, 79, 92
2, 1162253, Note_on_c, 0, 49, 58
2, 1162257, Note_on_c, 0, 59, 60
2, 1162325, Note_on_c, 0, 59, 0
2, 1162333, Note_on_c, 0, 49, 0
2, 1162377, Note_on_c, 0, 79, 0
2, 1162457, Note_on_c, 0, 65, 70
2, 1162473, Note_on_c, 0, 49, 50
2, 1162497, Control_c, 0, 64, 88
2, 1162513, Control_c, 0, 64, 0
2, 1162589, Control_c, 0, 64, 56
2, 1162605, Control_c, 0, 64, 127
2, 1162645, Note_on_c, 0, 65, 0
2, 1162665, Note_on_c, 0, 80, 85
2, 1162673, Note_on_c, 0, 59, 59
2, 1162769, Note_on_c, 0, 49, 0
2, 1162841, Note_on_c, 0, 80, 0
2, 1162969, Note_on_c, 0, 49, 33
2, 1162989, Note_on_c, 0, 65, 43
2, 1163053, Note_on_c, 0, 49, 0
2, 1163061, Note_on_c, 0, 65, 0
2, 1163161, Note_on_c, 0, 59, 0
2, 1163225, Note_on_c, 0, 73, 71
2, 1163249, Note_on_c, 0, 65, 45
2, 1163249, Note_on_c, 0, 59, 42
2, 1163257, Note_on_c, 0, 49, 33
2, 1163341, Note_on_c, 0, 49, 0
2, 1163341, Note_on_c, 0, 59, 0
2, 1163509, Note_on_c, 0, 59, 44
2, 1163521, Note_on_c, 0, 49, 29
2, 1163593, Note_on_c, 0, 49, 0
2, 1163637, Note_on_c, 0, 73, 0
2, 1163769, Note_on_c, 0, 72, 80
2, 1163777, Note_on_c, 0, 49, 45
2, 1163853, Note_on_c, 0, 49, 0
2, 1164033, Note_on_c, 0, 49, 55
2, 1164105, Note_on_c, 0, 49, 0
2, 1164121, Note_on_c, 0, 59, 0
2, 1164125, Note_on_c, 0, 65, 0
2, 1164145, Note_on_c, 0, 72, 0
2, 1164169, Note_on_c, 0, 73, 79
2, 1164265, Note_on_c, 0, 73, 0
2, 1164325, Note_on_c, 0, 78, 78
2, 1164337, Note_on_c, 0, 66, 57
2, 1164341, Control_c, 0, 64, 56
2, 1164345, Note_on_c, 0, 58, 45
2, 1164353, Note_on_c, 0, 49, 44
2, 1164357, Control_c, 0, 64, 0
2, 1164465, Control_c, 0, 64, 88
2, 1164469, Note_on_c, 0, 49, 0
2, 1164481, Control_c, 0, 64, 127
2, 1164497, Note_on_c, 0, 58, 0
2, 1164497, Note_on_c, 0, 66, 0
2, 1164513, Note_on_c, 0, 78, 0
2, 1164609, Note_on_c, 0, 78, 74
2, 1164625, Note_on_c, 0, 66, 57
2, 1164633, Note_on_c, 0, 57, 45
2, 1164641, Note_on_c, 0, 49, 30
2, 1164701, Note_on_c, 0, 57, 0
2, 1164741, Note_on_c, 0, 49, 0
2, 1164741, Note_on_c, 0, 78, 0
2, 1164745, Note_on_c, 0, 66, 0
2, 1164873, Note_on_c, 0, 77, 84
2, 1164889, Note_on_c, 0, 66, 50
2, 1164893, Note_on_c, 0, 49, 54
2, 1164897, Note_on_c, 0, 58, 49
2, 1165005, Note_on_c, 0, 66, 0
2, 1165009, Note_on_c, 0, 77, 0
2, 1165013, Note_on_c, 0, 49, 0
2, 1165017, Note_on_c, 0, 58, 0
2, 1165145, Note_on_c, 0, 75, 78
2, 1165161, Note_on_c, 0, 49, 59
2, 1165161, Note_on_c, 0, 66, 49
2, 1165165, Note_on_c, 0, 60, 70
2, 1165257, Note_on_c, 0, 60, 0
2, 1165293, Note_on_c, 0, 66, 0
2, 1165305, Note_on_c, 0, 49, 0
2, 1165353, Note_on_c, 0, 75, 0
2, 1165429, Note_on_c, 0, 73, 70
2, 1165437, Note_on_c, 0, 61, 60
2, 1165437, Note_on_c, 0, 66, 45
2, 1165445, Note_on_c, 0, 49, 53
2, 1165509, Note_on_c, 0, 73, 0
2, 1165533, Note_on_c, 0, 49, 0
2, 1165541, Note_on_c, 0, 61, 0
2, 1165585, Note_on_c, 0, 66, 0
2, 1165697, Note_on_c, 0, 72, 79
2, 1165701, Note_on_c, 0, 66, 49
2, 1165705, Note_on_c, 0, 63, 59
2, 1165713, Note_on_c, 0, 49, 46
2, 1165773, Note_on_c, 0, 66, 0
2, 1165789, Note_on_c, 0, 72, 0
2, 1165797, Note_on_c, 0, 63, 0
2, 1165805, Note_on_c, 0, 49, 0
2, 1166025, Note_on_c, 0, 70, 71
2, 1166049, Note_on_c, 0, 64, 54
2, 1166057, Note_on_c, 0, 67, 54
2, 1166073, Note_on_c, 0, 49, 43
2, 1166105, Control_c, 0, 64, 72
2, 1166121, Control_c, 0, 64, 0
2, 1166209, Note_on_c, 0, 49, 0
2, 1166233, Control_c, 0, 64, 88
2, 1166249, Control_c, 0, 64, 127
2, 1166345, Note_on_c, 0, 49, 33
2, 1166357, Note_on_c, 0, 67, 0
2, 1166405, Note_on_c, 0, 70, 0
2, 1166417, Note_on_c, 0, 64, 0
2, 1166441, Note_on_c, 0, 49, 0
2, 1166613, Note_on_c, 0, 68, 58
2, 1166621, Note_on_c, 0, 66, 50
2, 1166629, Note_on_c, 0, 60, 52
2, 1166629, Note_on_c, 0, 63, 43
2, 1166633, Control_c, 0, 64, 72
2, 1166641, Note_on_c, 0, 49, 39
2, 1166649, Control_c, 0, 64, 0
2, 1166741, Control_c, 0, 64, 24
2, 1166757, Control_c, 0, 64, 88
2, 1166765, Note_on_c, 0, 49, 0
2, 1166773, Control_c, 0, 64, 127
2, 1166925, Note_on_c, 0, 49, 34
2, 1166989, Note_on_c, 0, 60, 0
2, 1166993, Note_on_c, 0, 63, 0
2, 1166993, Note_on_c, 0, 49, 0
2, 1167009, Note_on_c, 0, 66, 0
2, 1167017, Note_on_c, 0, 68, 0
2, 1167173, Note_on_c, 0, 68, 62
2, 1167177, Note_on_c, 0, 66, 51
2, 1167185, Note_on_c, 0, 63, 48
2, 1167189, Note_on_c, 0, 49, 27
2, 1167193, Note_on_c, 0, 60, 44
2, 1167281, Note_on_c, 0, 49, 0
2, 1167293, Note_on_c, 0, 60, 0
2, 1167409, Note_on_c, 0, 66, 0
2, 1167429, Note_on_c, 0, 49, 54
2, 1167489, Note_on_c, 0, 63, 0
2, 1167521, Note_on_c, 0, 49, 0
2, 1167585, Note_on_c, 0, 60, 60
2, 1167621, Note_on_c, 0, 68, 0
2, 1167637, Note_on_c, 0, 60, 0
2, 1167729, Note_on_c, 0, 68, 62
2, 1167745, Note_on_c, 0, 65, 55
2, 1167749, Control_c, 0, 64, 56
2, 1167757, Note_on_c, 0, 61, 49
2, 1167765, Note_on_c, 0, 49, 39
2, 1167765, Control_c, 0, 64, 0
2, 1167869, Note_on_c, 0, 49, 0
2, 1167889, Control_c, 0, 64, 40
2, 1167905, Control_c, 0, 64, 104
2, 1167921, Control_c, 0, 64, 127
2, 1168029, Note_on_c, 0, 49, 44
2, 1168061, Note_on_c, 0, 65, 0
2, 1168081, Note_on_c, 0, 68, 0
2, 1168101, Note_on_c, 0, 49, 0
2, 1168105, Note_on_c, 0, 61, 0
2, 1168289, Note_on_c, 0, 68, 64
2, 1168289, Control_c, 0, 64, 56
2, 1168301, Note_on_c, 0, 63, 46
2, 1168305, Control_c, 0, 64, 0
2, 1168309, Note_on_c, 0, 60, 47
2, 1168321, Note_on_c, 0, 49, 27
2, 1168385, Control_c, 0, 64, 72
2, 1168393, Note_on_c, 0, 49, 0
2, 1168401, Control_c, 0, 64, 127
2, 1168585, Note_on_c, 0, 49, 51
2, 1168665, Note_on_c, 0, 49, 0
2, 1168681, Note_on_c, 0, 68, 0
2, 1168697, Note_on_c, 0, 60, 0
2, 1168709, Note_on_c, 0, 63, 0
2, 1168865, Note_on_c, 0, 68, 60
2, 1168865, Control_c, 0, 64, 104
2, 1168881, Note_on_c, 0, 63, 38
2, 1168881, Control_c, 0, 64, 24
2, 1168893, Note_on_c, 0, 60, 51
2, 1168897, Note_on_c, 0, 49, 42
2, 1168897, Control_c, 0, 64, 0
2, 1168941, Control_c, 0, 64, 40
2, 1168957, Control_c, 0, 64, 104
2, 1168965, Note_on_c, 0, 49, 0
2, 1168973, Control_c, 0, 64, 127
2, 1169109, Note_on_c, 0, 63, 0
2, 1169133, Note_on_c, 0, 60, 0
2, 1169137, Note_on_c, 0, 49, 51
2, 1169193, Note_on_c, 0, 49, 0
2, 1169229, Note_on_c, 0, 68, 0
2, 1169281, Note_on_c, 0, 60, 59
2, 1169285, Note_on_c, 0, 56, 40
2, 1169317, Note_on_c, 0, 56, 0
2, 1169337, Note_on_c, 0, 60, 0
2, 1169445, Note_on_c, 0, 68, 64
2, 1169453, Control_c, 0, 64, 56
2, 1169465, Note_on_c, 0, 49, 63
2, 1169469, Note_on_c, 0, 65, 61
2, 1169469, Control_c, 0, 64, 0
2, 1169561, Control_c, 0, 64, 40
2, 1169577, Control_c, 0, 64, 104
2, 1169593, Control_c, 0, 64, 127
2, 1169609, Note_on_c, 0, 49, 0
2, 1169745, Note_on_c, 0, 65, 0
2, 1169749, Note_on_c, 0, 61, 38
2, 1169765, Note_on_c, 0, 49, 36
2, 1169785, Note_on_c, 0, 61, 0
2, 1169801, Note_on_c, 0, 49, 0
2, 1169809, Note_on_c, 0, 68, 0
2, 1169993, Note_on_c, 0, 68, 60
2, 1169997, Control_c, 0, 64, 104
2, 1170013, Note_on_c, 0, 49, 50
2, 1170013, Note_on_c, 0, 63, 39
2, 1170013, Control_c, 0, 64, 40
2, 1170021, Note_on_c, 0, 60, 51
2, 1170029, Control_c, 0, 64, 0
2, 1170105, Control_c, 0, 64, 72
2, 1170113, Note_on_c, 0, 49, 0
2, 1170117, Control_c, 0, 64, 127
2, 1170293, Note_on_c, 0, 49, 47
2, 1170361, Note_on_c, 0, 63, 0
2, 1170369, Note_on_c, 0, 49, 0
2, 1170385, Note_on_c, 0, 60, 0
2, 1170413, Note_on_c, 0, 68, 0
2, 1170577, Note_on_c, 0, 68, 63
2, 1170589, Note_on_c, 0, 63, 45
2, 1170601, Note_on_c, 0, 60, 49
2, 1170609, Note_on_c, 0, 49, 31
2, 1170685, Note_on_c, 0, 49, 0
2, 1170805, Note_on_c, 0, 63, 0
2, 1170821, Note_on_c, 0, 60, 0
2, 1170849, Note_on_c, 0, 49, 43
2, 1170893, Note_on_c, 0, 49, 0
2, 1170965, Note_on_c, 0, 68, 0
2, 1170993, Note_on_c, 0, 60, 59
2, 1171033, Note_on_c, 0, 49, 42
2, 1171057, Note_on_c, 0, 60, 0
2, 1171097, Note_on_c, 0, 49, 0
2, 1171177, Note_on_c, 0, 68, 58
2, 1171193, Note_on_c, 0, 65, 53
2, 1171217, Note_on_c, 0, 61, 35
2, 1171221, Note_on_c, 0, 49, 36
2, 1171221, Control_c, 0, 64, 88
2, 1171233, Control_c, 0, 64, 24
2, 1171253, Control_c, 0, 64, 0
2, 1171377, Control_c, 0, 64, 72
2, 1171389, Control_c, 0, 64, 127
2, 1171509, Note_on_c, 0, 61, 0
2, 1171549, Note_on_c, 0, 65, 0
2, 1171585, Note_on_c, 0, 68, 0
2, 1171645, Note_on_c, 0, 60, 49
2, 1171649, Note_on_c, 0, 56, 30
2, 1171689, Note_on_c, 0, 56, 0
2, 1171689, Note_on_c, 0, 60, 0
2, 1171749, Control_c, 0, 64, 104
2, 1171761, Control_c, 0, 64, 56
2, 1171777, Control_c, 0, 64, 0
2, 1171781, Note_on_c, 0, 68, 56
2, 1171793, Note_on_c, 0, 65, 54
2, 1171793, Note_on_c, 0, 61, 31
2, 1171853, Control_c, 0, 64, 72
2, 1171869, Control_c, 0, 64, 127
2, 1171893, Note_on_c, 0, 65, 0
2, 1171921, Note_on_c, 0, 68, 0
2, 1171929, Note_on_c, 0, 61, 0
2, 1171945, Note_on_c, 0, 60, 50
2, 1171965, Note_on_c, 0, 56, 25
2, 1171997, Note_on_c, 0, 60, 0
2, 1172013, Note_on_c, 0, 56, 0
2, 1172085, Note_on_c, 0, 68, 55
2, 1172101, Note_on_c, 0, 61, 32
2, 1172109, Note_on_c, 0, 65, 37
2, 1172161, Note_on_c, 0, 65, 0
2, 1172209, Note_on_c, 0, 68, 0
2, 1172213, Note_on_c, 0, 61, 0
2, 1172245, Note_on_c, 0, 60, 58
2, 1172273, Note_on_c, 0, 56, 29
2, 1172321, Note_on_c, 0, 60, 0
2, 1172333, Note_on_c, 0, 56, 0
2, 1172413, Note_on_c, 0, 68, 51
2, 1172437, Note_on_c, 0, 61, 29
2, 1172437, Note_on_c, 0, 65, 34
2, 1172489, Note_on_c, 0, 65, 0
2, 1172545, Note_on_c, 0, 61, 0
2, 1172545, Note_on_c, 0, 68, 0
2, 1172597, Note_on_c, 0, 60, 56
2, 1172625, Note_on_c, 0, 56, 33
2, 1172669, Note_on_c, 0, 60, 0
2, 1172781, Note_on_c, 0, 56, 0
2, 1172801, Note_on_c, 0, 68, 44
2, 1172829, Note_on_c, 0, 61, 33
2, 1172837, Note_on_c, 0, 65, 42
2, 1172925, Control_c, 0, 64, 104
2, 1172941, Control_c, 0, 64, 40
2, 1172953, Control_c, 0, 64, 0
2, 1173017, Note_on_c, 0, 65, 0
2, 1173017, Control_c, 0, 64, 24
2, 1173033, Control_c, 0, 64, 88
2, 1173049, Control_c, 0, 64, 127
2, 1173061, Note_on_c, 0, 64, 43
2, 1173101, Note_on_c, 0, 61, 0
2, 1173113, Note_on_c, 0, 56, 29
2, 1173153, Note_on_c, 0, 64, 0
2, 1173157, Note_on_c, 0, 56, 0
2, 1173257, Note_on_c, 0, 68, 0
2, 1173261, Note_on_c, 0, 49, 0
2, 1173553, Note_on_c, 0, 73, 48
2, 1173569, Note_on_c, 0, 65, 40
2, 1173577, Note_on_c, 0, 68, 34
2, 1173601, Note_on_c, 0, 37, 37
2, 1173637, Control_c, 0, 64, 88
2, 1173653, Control_c, 0, 64, 24
2, 1173669, Control_c, 0, 64, 0
2, 1173761, Control_c, 0, 64, 104
2, 1173777, Control_c, 0, 64, 127
2, 1173853, Note_on_c, 0, 37, 0
2, 1173925, Note_on_c, 0, 73, 0
2, 1173937, Note_on_c, 0, 65, 0
2, 1173973, Note_on_c, 0, 68, 0
2, 1174845, Control_c, 0, 64, 104
2, 1174861, Control_c, 0, 64, 88
2, 1174921, Control_c, 0, 64, 72
2, 1174969, Control_c, 0, 64, 40
2, 1175001, Control_c, 0, 64, 24
2, 1175017, Control_c, 0, 64, 0
2, 1176193, Note_on_c, 0, 32, 51
2, 1176193, Note_on_c, 0, 44, 60
2, 1176193, Note_on_c, 0, 48, 76
2, 1176265, Note_on_c, 0, 32, 0
2, 1176285, Note_on_c, 0, 51, 79
2, 1176289, Note_on_c, 0, 48, 0
2, 1176309, Note_on_c, 0, 44, 0
2, 1176349, Note_on_c, 0, 51, 0
2, 1176381, Note_on_c, 0, 33, 52
2, 1176381, Note_on_c, 0, 45, 62
2, 1176385, Note_on_c, 0, 53, 74
2, 1176473, Note_on_c, 0, 45, 0
2, 1176477, Note_on_c, 0, 33, 0
2, 1176477, Note_on_c, 0, 54, 82
2, 1176505, Note_on_c, 0, 53, 0
2, 1176557, Note_on_c, 0, 54, 0
2, 1176577, Note_on_c, 0, 63, 77
2, 1176589, Note_on_c, 0, 46, 54
2, 1176589, Note_on_c, 0, 34, 54
2, 1176677, Note_on_c, 0, 55, 81
2, 1176681, Note_on_c, 0, 34, 0
2, 1176681, Note_on_c, 0, 63, 0
2, 1176717, Note_on_c, 0, 46, 0
2, 1176753, Note_on_c, 0, 55, 0
2, 1176769, Note_on_c, 0, 58, 79
2, 1176781, Note_on_c, 0, 47, 68
2, 1176781, Note_on_c, 0, 35, 63
2, 1176853, Note_on_c, 0, 35, 0
2, 1176865, Note_on_c, 0, 56, 79
2, 1176885, Note_on_c, 0, 47, 0
2, 1176885, Note_on_c, 0, 58, 0
2, 1176961, Note_on_c, 0, 55, 86
2, 1176973, Note_on_c, 0, 48, 70
2, 1176981, Note_on_c, 0, 36, 45
2, 1176993, Note_on_c, 0, 56, 0
2, 1177013, Note_on_c, 0, 36, 0
2, 1177037, Note_on_c, 0, 48, 0
2, 1177045, Note_on_c, 0, 55, 0
2, 1177061, Note_on_c, 0, 56, 77
2, 1177153, Note_on_c, 0, 56, 0
2, 1177157, Note_on_c, 0, 51, 60
2, 1177161, Note_on_c, 0, 54, 73
2, 1177169, Note_on_c, 0, 39, 39
2, 1177217, Note_on_c, 0, 51, 0
2, 1177233, Note_on_c, 0, 39, 0
2, 1177253, Note_on_c, 0, 56, 74
2, 1177261, Note_on_c, 0, 54, 0
2, 1177325, Note_on_c, 0, 56, 0
2, 1177349, Note_on_c, 0, 37, 54
2, 1177349, Note_on_c, 0, 49, 60
2, 1177349, Note_on_c, 0, 53, 77
2, 1177405, Note_on_c, 0, 37, 0
2, 1177421, Note_on_c, 0, 49, 0
2, 1177441, Note_on_c, 0, 56, 77
2, 1177469, Note_on_c, 0, 53, 0
2, 1177533, Note_on_c, 0, 58, 76
2, 1177537, Note_on_c, 0, 50, 66
2, 1177541, Note_on_c, 0, 38, 58
2, 1177557, Note_on_c, 0, 56, 0
2, 1177573, Note_on_c, 0, 38, 0
2, 1177589, Note_on_c, 0, 58, 0
2, 1177601, Note_on_c, 0, 50, 0
2, 1177625, Note_on_c, 0, 59, 78
2, 1177721, Note_on_c, 0, 68, 77
2, 1177721, Note_on_c, 0, 51, 65
2, 1177725, Note_on_c, 0, 39, 56
2, 1177769, Note_on_c, 0, 59, 0
2, 1177809, Note_on_c, 0, 60, 73
2, 1177817, Note_on_c, 0, 68, 0
2, 1177833, Note_on_c, 0, 39, 0
2, 1177845, Note_on_c, 0, 51, 0
2, 1177885, Note_on_c, 0, 60, 0
2, 1177901, Note_on_c, 0, 63, 85
2, 1177917, Note_on_c, 0, 40, 69
2, 1177917, Note_on_c, 0, 52, 76
2, 1177977, Note_on_c, 0, 40, 0
2, 1177993, Note_on_c, 0, 61, 85
2, 1178009, Note_on_c, 0, 52, 0
2, 1178029, Note_on_c, 0, 63, 0
2, 1178089, Note_on_c, 0, 60, 79
2, 1178101, Note_on_c, 0, 61, 0
2, 1178101, Note_on_c, 0, 53, 61
2, 1178109, Note_on_c, 0, 41, 53
2, 1178133, Note_on_c, 0, 41, 0
2, 1178165, Note_on_c, 0, 53, 0
2, 1178177, Note_on_c, 0, 61, 80
2, 1178201, Note_on_c, 0, 60, 0
2, 1178261, Note_on_c, 0, 61, 0
2, 1178277, Note_on_c, 0, 59, 80
2, 1178281, Note_on_c, 0, 56, 65
2, 1178289, Note_on_c, 0, 44, 39
2, 1178365, Note_on_c, 0, 44, 0
2, 1178373, Note_on_c, 0, 56, 0
2, 1178373, Note_on_c, 0, 62, 77
2, 1178385, Note_on_c, 0, 59, 0
2, 1178421, Note_on_c, 0, 62, 0
2, 1178465, Note_on_c, 0, 43, 89
2, 1178561, Note_on_c, 0, 58, 72
2, 1178653, Note_on_c, 0, 58, 0
2, 1178653, Note_on_c, 0, 65, 71
2, 1178657, Note_on_c, 0, 43, 0
2, 1178657, Note_on_c, 0, 51, 55
2, 1178733, Note_on_c, 0, 65, 0
2, 1178749, Note_on_c, 0, 70, 70
2, 1178821, Control_c, 0, 64, 24
2, 1178825, Note_on_c, 0, 70, 0
2, 1178829, Note_on_c, 0, 39, 61
2, 1178833, Control_c, 0, 64, 40
2, 1178841, Note_on_c, 0, 63, 69
2, 1178841, Control_c, 0, 64, 56
2, 1178857, Control_c, 0, 64, 72
2, 1178917, Note_on_c, 0, 63, 0
2, 1178929, Note_on_c, 0, 61, 74
2, 1178985, Note_on_c, 0, 51, 0
2, 1178997, Control_c, 0, 64, 56
2, 1179005, Note_on_c, 0, 61, 0
2, 1179005, Note_on_c, 0, 39, 0
2, 1179005, Control_c, 0, 64, 24
2, 1179017, Note_on_c, 0, 44, 86
2, 1179017, Control_c, 0, 64, 0
2, 1179109, Note_on_c, 0, 60, 76
2, 1179197, Note_on_c, 0, 63, 69
2, 1179205, Control_c, 0, 64, 24
2, 1179217, Control_c, 0, 64, 56
2, 1179229, Note_on_c, 0, 60, 0
2, 1179229, Note_on_c, 0, 51, 54
2, 1179229, Control_c, 0, 64, 72
2, 1179237, Note_on_c, 0, 44, 0
2, 1179241, Control_c, 0, 64, 88
2, 1179249, Control_c, 0, 64, 104
2, 1179261, Control_c, 0, 64, 127
2, 1179301, Note_on_c, 0, 68, 68
2, 1179317, Note_on_c, 0, 63, 0
2, 1179353, Note_on_c, 0, 68, 0
2, 1179377, Note_on_c, 0, 39, 53
2, 1179397, Note_on_c, 0, 72, 81
2, 1179445, Note_on_c, 0, 72, 0
2, 1179477, Note_on_c, 0, 75, 81
2, 1179521, Note_on_c, 0, 51, 0
2, 1179541, Control_c, 0, 64, 88
2, 1179553, Note_on_c, 0, 39, 0
2, 1179553, Control_c, 0, 64, 56
2, 1179565, Note_on_c, 0, 75, 0
2, 1179565, Control_c, 0, 64, 0
2, 1179581, Note_on_c, 0, 48, 90
2, 1179593, Note_on_c, 0, 77, 81
2, 1179645, Control_c, 0, 64, 40
2, 1179657, Control_c, 0, 64, 72
2, 1179661, Note_on_c, 0, 77, 0
2, 1179669, Control_c, 0, 64, 104
2, 1179681, Note_on_c, 0, 75, 67
2, 1179681, Control_c, 0, 64, 127
2, 1179769, Note_on_c, 0, 48, 0
2, 1179773, Note_on_c, 0, 75, 0
2, 1179781, Note_on_c, 0, 72, 66
2, 1179793, Note_on_c, 0, 51, 60
2, 1179865, Note_on_c, 0, 72, 0
2, 1179877, Note_on_c, 0, 68, 60
2, 1179917, Note_on_c, 0, 51, 0
2, 1179949, Note_on_c, 0, 68, 0
2, 1179961, Note_on_c, 0, 65, 74
2, 1179961, Note_on_c, 0, 39, 52
2, 1180041, Note_on_c, 0, 65, 0
2, 1180053, Note_on_c, 0, 63, 69
2, 1180121, Control_c, 0, 64, 104
2, 1180125, Note_on_c, 0, 63, 0
2, 1180133, Control_c, 0, 64, 88
2, 1180145, Control_c, 0, 64, 40
2, 1180149, Note_on_c, 0, 47, 82
2, 1180153, Note_on_c, 0, 39, 0
2, 1180157, Control_c, 0, 64, 0
2, 1180161, Note_on_c, 0, 62, 76
2, 1180249, Control_c, 0, 64, 40
2, 1180261, Note_on_c, 0, 65, 70
2, 1180261, Control_c, 0, 64, 88
2, 1180269, Note_on_c, 0, 62, 0
2, 1180273, Control_c, 0, 64, 127
2, 1180349, Note_on_c, 0, 47, 0
2, 1180353, Note_on_c, 0, 51, 64
2, 1180361, Note_on_c, 0, 68, 69
2, 1180369, Note_on_c, 0, 65, 0
2, 1180409, Note_on_c, 0, 68, 0
2, 1180465, Note_on_c, 0, 74, 84
2, 1180533, Note_on_c, 0, 44, 48
2, 1180537, Note_on_c, 0, 74, 0
2, 1180553, Note_on_c, 0, 77, 87
2, 1180641, Note_on_c, 0, 77, 0
2, 1180641, Note_on_c, 0, 80, 82
2, 1180701, Note_on_c, 0, 44, 0
2, 1180701, Note_on_c, 0, 51, 0
2, 1180705, Note_on_c, 0, 80, 0
2, 1180705, Control_c, 0, 64, 104
2, 1180713, Control_c, 0, 64, 72
2, 1180729, Control_c, 0, 64, 24
2, 1180733, Note_on_c, 0, 43, 85
2, 1180737, Control_c, 0, 64, 0
2, 1180825, Note_on_c, 0, 70, 77
2, 1180833, Control_c, 0, 64, 24
2, 1180845, Control_c, 0, 64, 72
2, 1180853, Control_c, 0, 64, 104
2, 1180865, Control_c, 0, 64, 127
2, 1180897, Note_on_c, 0, 43, 0
2, 1180909, Note_on_c, 0, 70, 0
2, 1180909, Note_on_c, 0, 77, 83
2, 1180917, Note_on_c, 0, 51, 67
2, 1180973, Note_on_c, 0, 77, 0
2, 1180997, Note_on_c, 0, 82, 83
2, 1181061, Note_on_c, 0, 51, 0
2, 1181077, Note_on_c, 0, 82, 0
2, 1181089, Note_on_c, 0, 39, 64
2, 1181089, Note_on_c, 0, 75, 80
2, 1181161, Note_on_c, 0, 75, 0
2, 1181177, Note_on_c, 0, 73, 80
2, 1181205, Control_c, 0, 64, 104
2, 1181233, Note_on_c, 0, 39, 0
2, 1181237, Control_c, 0, 64, 72
2, 1181241, Note_on_c, 0, 73, 0
2, 1181249, Control_c, 0, 64, 40
2, 1181261, Control_c, 0, 64, 0
2, 1181269, Note_on_c, 0, 44, 86
2, 1181353, Note_on_c, 0, 72, 72
2, 1181365, Control_c, 0, 64, 56
2, 1181377, Control_c, 0, 64, 88
2, 1181389, Control_c, 0, 64, 127
2, 1181437, Note_on_c, 0, 75, 77
2, 1181453, Note_on_c, 0, 44, 0
2, 1181461, Note_on_c, 0, 51, 62
2, 1181469, Note_on_c, 0, 72, 0
2, 1181529, Note_on_c, 0, 80, 74
2, 1181549, Note_on_c, 0, 75, 0
2, 1181581, Note_on_c, 0, 80, 0
2, 1181597, Note_on_c, 0, 51, 0
2, 1181613, Note_on_c, 0, 39, 65
2, 1181625, Note_on_c, 0, 84, 74
2, 1181669, Note_on_c, 0, 84, 0
2, 1181705, Note_on_c, 0, 87, 85
2, 1181749, Control_c, 0, 64, 104
2, 1181761, Control_c, 0, 64, 88
2, 1181765, Note_on_c, 0, 39, 0
2, 1181773, Control_c, 0, 64, 56
2, 1181785, Note_on_c, 0, 87, 0
2, 1181785, Control_c, 0, 64, 0
2, 1181805, Note_on_c, 0, 48, 87
2, 1181813, Note_on_c, 0, 89, 86
2, 1181865, Control_c, 0, 64, 40
2, 1181877, Control_c, 0, 64, 72
2, 1181881, Note_on_c, 0, 89, 0
2, 1181889, Control_c, 0, 64, 104
2, 1181901, Note_on_c, 0, 87, 80
2, 1181901, Control_c, 0, 64, 127
2, 1181989, Note_on_c, 0, 84, 76
2, 1181993, Note_on_c, 0, 48, 0
2, 1181997, Note_on_c, 0, 87, 0
2, 1182017, Note_on_c, 0, 51, 70
2, 1182081, Note_on_c, 0, 84, 0
2, 1182085, Note_on_c, 0, 80, 75
2, 1182153, Note_on_c, 0, 51, 0
2, 1182161, Note_on_c, 0, 80, 0
2, 1182177, Note_on_c, 0, 77, 74
2, 1182193, Note_on_c, 0, 39, 60
2, 1182249, Note_on_c, 0, 77, 0
2, 1182265, Note_on_c, 0, 75, 71
2, 1182309, Control_c, 0, 64, 88
2, 1182321, Control_c, 0, 64, 40
2, 1182329, Control_c, 0, 64, 0
2, 1182337, Note_on_c, 0, 75, 0
2, 1182357, Note_on_c, 0, 39, 0
2, 1182361, Note_on_c, 0, 47, 80
2, 1182361, Note_on_c, 0, 74, 77
2, 1182413, Control_c, 0, 64, 24
2, 1182421, Control_c, 0, 64, 88
2, 1182433, Control_c, 0, 64, 127
2, 1182457, Note_on_c, 0, 77, 82
2, 1182485, Note_on_c, 0, 74, 0
2, 1182533, Note_on_c, 0, 47, 0
2, 1182545, Note_on_c, 0, 77, 0
2, 1182545, Note_on_c, 0, 80, 84
2, 1182553, Note_on_c, 0, 51, 72
2, 1182585, Note_on_c, 0, 80, 0
2, 1182641, Note_on_c, 0, 86, 85
2, 1182701, Note_on_c, 0, 86, 0
2, 1182729, Note_on_c, 0, 89, 86
2, 1182733, Note_on_c, 0, 44, 64
2, 1182741, Note_on_c, 0, 51, 0
2, 1182809, Note_on_c, 0, 89, 0
2, 1182813, Note_on_c, 0, 92, 87
2, 1182853, Control_c, 0, 64, 88
2, 1182865, Control_c, 0, 64, 40
2, 1182869, Note_on_c, 0, 92, 0
2, 1182877, Note_on_c, 0, 44, 0
2, 1182877, Control_c, 0, 64, 0
2, 1182913, Note_on_c, 0, 43, 83
2, 1182965, Note_on_c, 0, 43, 0
2, 1182969, Control_c, 0, 64, 56
2, 1182981, Control_c, 0, 64, 88
2, 1182993, Control_c, 0, 64, 127
2, 1183005, Note_on_c, 0, 82, 65
2, 1183089, Note_on_c, 0, 82, 0
2, 1183089, Note_on_c, 0, 89, 82
2, 1183105, Note_on_c, 0, 58, 60
2, 1183105, Note_on_c, 0, 51, 71
2, 1183145, Control_c, 0, 64, 104
2, 1183161, Note_on_c, 0, 51, 0
2, 1183161, Note_on_c, 0, 89, 0
2, 1183189, Note_on_c, 0, 94, 71
2, 1183205, Note_on_c, 0, 58, 0
2, 1183213, Control_c, 0, 64, 88
2, 1183225, Control_c, 0, 64, 56
2, 1183237, Control_c, 0, 64, 0
2, 1183261, Note_on_c, 0, 94, 0
2, 1183277, Note_on_c, 0, 85, 77
2, 1183281, Note_on_c, 0, 45, 73
2, 1183329, Note_on_c, 0, 45, 0
2, 1183329, Control_c, 0, 64, 24
2, 1183341, Note_on_c, 0, 85, 0
2, 1183341, Control_c, 0, 64, 40
2, 1183353, Control_c, 0, 64, 56
2, 1183365, Note_on_c, 0, 84, 82
2, 1183365, Control_c, 0, 64, 72
2, 1183421, Control_c, 0, 64, 56
2, 1183457, Note_on_c, 0, 90, 85
2, 1183461, Note_on_c, 0, 60, 70
2, 1183473, Note_on_c, 0, 54, 50
2, 1183477, Note_on_c, 0, 51, 51
2, 1183481, Note_on_c, 0, 84, 0
2, 1183481, Control_c, 0, 64, 72
2, 1183493, Control_c, 0, 64, 88
2, 1183509, Note_on_c, 0, 60, 0
2, 1183529, Note_on_c, 0, 90, 0
2, 1183537, Note_on_c, 0, 51, 0
2, 1183549, Note_on_c, 0, 96, 96
2, 1183553, Note_on_c, 0, 54, 0
2, 1183573, Control_c, 0, 64, 56
2, 1183585, Control_c, 0, 64, 0
2, 1183625, Note_on_c, 0, 96, 0
2, 1183641, Note_on_c, 0, 47, 75
2, 1183641, Note_on_c, 0, 87, 88
2, 1183677, Control_c, 0, 64, 24
2, 1183689, Control_c, 0, 64, 56
2, 1183701, Note_on_c, 0, 47, 0
2, 1183701, Control_c, 0, 64, 72
2, 1183713, Note_on_c, 0, 87, 0
2, 1183729, Note_on_c, 0, 86, 85
2, 1183761, Control_c, 0, 64, 24
2, 1183773, Control_c, 0, 64, 0
2, 1183821, Note_on_c, 0, 92, 95
2, 1183821, Note_on_c, 0, 62, 78
2, 1183829, Note_on_c, 0, 53, 72
2, 1183829, Note_on_c, 0, 56, 64
2, 1183841, Control_c, 0, 64, 24
2, 1183849, Note_on_c, 0, 86, 0
2, 1183853, Control_c, 0, 64, 56
2, 1183865, Control_c, 0, 64, 72
2, 1183889, Note_on_c, 0, 53, 0
2, 1183889, Note_on_c, 0, 92, 0
2, 1183889, Note_on_c, 0, 62, 0
2, 1183905, Note_on_c, 0, 98, 94
2, 1183917, Note_on_c, 0, 56, 0
2, 1183957, Control_c, 0, 64, 0
2, 1183973, Note_on_c, 0, 98, 0
2, 1184001, Note_on_c, 0, 48, 74
2, 1184005, Note_on_c, 0, 89, 99
2, 1184049, Control_c, 0, 64, 40
2, 1184053, Note_on_c, 0, 48, 0
2, 1184061, Control_c, 0, 64, 56
2, 1184089, Note_on_c, 0, 89, 0
2, 1184093, Note_on_c, 0, 87, 94
2, 1184109, Control_c, 0, 64, 40
2, 1184121, Control_c, 0, 64, 24
2, 1184133, Control_c, 0, 64, 0
2, 1184157, Note_on_c, 0, 87, 0
2, 1184181, Note_on_c, 0, 63, 69
2, 1184181, Note_on_c, 0, 93, 104
2, 1184185, Note_on_c, 0, 57, 66
2, 1184193, Note_on_c, 0, 54, 69
2, 1184201, Control_c, 0, 64, 40
2, 1184213, Control_c, 0, 64, 56
2, 1184233, Note_on_c, 0, 63, 0
2, 1184237, Note_on_c, 0, 93, 0
2, 1184273, Note_on_c, 0, 99, 89
2, 1184277, Note_on_c, 0, 57, 0
2, 1184317, Control_c, 0, 64, 0
2, 1184329, Note_on_c, 0, 54, 0
2, 1184341, Note_on_c, 0, 99, 0
2, 1184357, Note_on_c, 0, 50, 76
2, 1184369, Note_on_c, 0, 91, 96
2, 1184413, Note_on_c, 0, 50, 0
2, 1184413, Control_c, 0, 64, 24
2, 1184425, Control_c, 0, 64, 56
2, 1184433, Note_on_c, 0, 91, 0
2, 1184453, Note_on_c, 0, 89, 96
2, 1184493, Control_c, 0, 64, 0
2, 1184537, Note_on_c, 0, 89, 0
2, 1184541, Note_on_c, 0, 95, 103
2, 1184541, Note_on_c, 0, 65, 72
2, 1184541, Note_on_c, 0, 59, 67
2, 1184541, Note_on_c, 0, 56, 65
2, 1184561, Control_c, 0, 64, 24
2, 1184573, Control_c, 0, 64, 56
2, 1184585, Control_c, 0, 64, 72
2, 1184597, Note_on_c, 0, 65, 0
2, 1184597, Control_c, 0, 64, 88
2, 1184621, Note_on_c, 0, 59, 0
2, 1184625, Note_on_c, 0, 95, 0
2, 1184629, Control_c, 0, 64, 104
2, 1184637, Note_on_c, 0, 101, 99
2, 1184685, Note_on_c, 0, 101, 0
2, 1184701, Note_on_c, 0, 56, 0
2, 1184701, Control_c, 0, 64, 56
2, 1184713, Control_c, 0, 64, 24
2, 1184725, Control_c, 0, 64, 0
2, 1184741, Note_on_c, 0, 51, 93
2, 1184805, Control_c, 0, 64, 40
2, 1184817, Control_c, 0, 64, 88
2, 1184829, Control_c, 0, 64, 104
2, 1184841, Control_c, 0, 64, 127
2, 1184901, Note_on_c, 0, 51, 0
2, 1184945, Note_on_c, 0, 99, 85
2, 1184961, Note_on_c, 0, 63, 43
2, 1184961, Note_on_c, 0, 60, 56
2, 1184965, Note_on_c, 0, 56, 39
2, 1185033, Note_on_c, 0, 101, 86
2, 1185049, Note_on_c, 0, 99, 0
2, 1185073, Note_on_c, 0, 60, 0
2, 1185077, Note_on_c, 0, 63, 0
2, 1185081, Note_on_c, 0, 56, 0
2, 1185085, Control_c, 0, 64, 104
2, 1185109, Note_on_c, 0, 101, 0
2, 1185121, Note_on_c, 0, 53, 76
2, 1185121, Note_on_c, 0, 99, 81
2, 1185213, Note_on_c, 0, 96, 83
2, 1185225, Note_on_c, 0, 99, 0
2, 1185261, Control_c, 0, 64, 40
2, 1185273, Control_c, 0, 64, 0
2, 1185289, Note_on_c, 0, 53, 0
2, 1185313, Note_on_c, 0, 92, 87
2, 1185313, Note_on_c, 0, 56, 48
2, 1185317, Note_on_c, 0, 96, 0
2, 1185317, Note_on_c, 0, 60, 65
2, 1185317, Note_on_c, 0, 65, 64
2, 1185353, Control_c, 0, 64, 24
2, 1185365, Control_c, 0, 64, 56
2, 1185369, Note_on_c, 0, 92, 0
2, 1185377, Control_c, 0, 64, 88
2, 1185389, Control_c, 0, 64, 104
2, 1185449, Note_on_c, 0, 60, 0
2, 1185461, Note_on_c, 0, 65, 0
2, 1185505, Note_on_c, 0, 56, 0
2, 1185513, Note_on_c, 0, 54, 65
2, 1185517, Note_on_c, 0, 87, 85
2, 1185593, Note_on_c, 0, 87, 0
2, 1185601, Note_on_c, 0, 89, 93
2, 1185649, Note_on_c, 0, 54, 0
2, 1185685, Note_on_c, 0, 89, 0
2, 1185685, Note_on_c, 0, 56, 50
2, 1185689, Note_on_c, 0, 66, 63
2, 1185689, Note_on_c, 0, 87, 85
2, 1185701, Note_on_c, 0, 60, 62
2, 1185745, Note_on_c, 0, 56, 0
2, 1185761, Note_on_c, 0, 66, 0
2, 1185769, Note_on_c, 0, 84, 87
2, 1185781, Note_on_c, 0, 87, 0
2, 1185805, Control_c, 0, 64, 88
2, 1185837, Note_on_c, 0, 60, 0
2, 1185841, Control_c, 0, 64, 24
2, 1185853, Control_c, 0, 64, 0
2, 1185877, Note_on_c, 0, 80, 79
2, 1185885, Note_on_c, 0, 84, 0
2, 1185885, Note_on_c, 0, 51, 81
2, 1185925, Note_on_c, 0, 80, 0
2, 1185933, Control_c, 0, 64, 24
2, 1185945, Control_c, 0, 64, 72
2, 1185957, Control_c, 0, 64, 88
2, 1185969, Control_c, 0, 64, 104
2, 1186005, Control_c, 0, 64, 127
2, 1186037, Note_on_c, 0, 51, 0
2, 1186073, Note_on_c, 0, 75, 82
2, 1186085, Note_on_c, 0, 63, 55
2, 1186089, Note_on_c, 0, 60, 62
2, 1186093, Note_on_c, 0, 56, 47
2, 1186097, Control_c, 0, 64, 104
2, 1186149, Note_on_c, 0, 75, 0
2, 1186165, Note_on_c, 0, 77, 84
2, 1186189, Note_on_c, 0, 60, 0
2, 1186193, Note_on_c, 0, 56, 0
2, 1186201, Note_on_c, 0, 63, 0
2, 1186233, Note_on_c, 0, 77, 0
2, 1186233, Control_c, 0, 64, 88
2, 1186249, Note_on_c, 0, 53, 78
2, 1186249, Note_on_c, 0, 75, 81
2, 1186341, Note_on_c, 0, 72, 86
2, 1186361, Note_on_c, 0, 75, 0
2, 1186377, Control_c, 0, 64, 56
2, 1186385, Control_c, 0, 64, 24
2, 1186397, Control_c, 0, 64, 0
2, 1186409, Note_on_c, 0, 53, 0
2, 1186437, Note_on_c, 0, 65, 58
2, 1186437, Note_on_c, 0, 60, 64
2, 1186441, Note_on_c, 0, 68, 77
2, 1186441, Note_on_c, 0, 56, 45
2, 1186445, Note_on_c, 0, 72, 0
2, 1186469, Control_c, 0, 64, 40
2, 1186481, Control_c, 0, 64, 56
2, 1186485, Note_on_c, 0, 65, 0
2, 1186493, Control_c, 0, 64, 72
2, 1186497, Note_on_c, 0, 68, 0
2, 1186501, Control_c, 0, 64, 88
2, 1186517, Note_on_c, 0, 60, 0
2, 1186585, Note_on_c, 0, 56, 0
2, 1186609, Control_c, 0, 64, 40
2, 1186621, Control_c, 0, 64, 0
2, 1186641, Note_on_c, 0, 63, 77
2, 1186649, Note_on_c, 0, 54, 67
2, 1186709, Note_on_c, 0, 63, 0
2, 1186713, Control_c, 0, 64, 40
2, 1186725, Note_on_c, 0, 65, 78
2, 1186725, Control_c, 0, 64, 56
2, 1186737, Control_c, 0, 64, 72
2, 1186769, Control_c, 0, 64, 88
2, 1186793, Note_on_c, 0, 54, 0
2, 1186805, Note_on_c, 0, 65, 0
2, 1186821, Note_on_c, 0, 63, 75
2, 1186833, Note_on_c, 0, 56, 69
2, 1186893, Note_on_c, 0, 63, 0
2, 1186905, Note_on_c, 0, 60, 76
2, 1186969, Note_on_c, 0, 56, 0
2, 1186969, Control_c, 0, 64, 40
2, 1186981, Control_c, 0, 64, 0
2, 1187001, Note_on_c, 0, 60, 0
2, 1187009, Note_on_c, 0, 63, 86
2, 1187017, Note_on_c, 0, 53, 72
2, 1187065, Note_on_c, 0, 63, 0
2, 1187085, Control_c, 0, 64, 56
2, 1187097, Control_c, 0, 64, 88
2, 1187109, Control_c, 0, 64, 127
2, 1187193, Note_on_c, 0, 53, 0
2, 1187221, Note_on_c, 0, 73, 81
2, 1187225, Note_on_c, 0, 65, 59
2, 1187233, Note_on_c, 0, 56, 42
2, 1187281, Note_on_c, 0, 73, 0
2, 1187305, Note_on_c, 0, 75, 78
2, 1187353, Note_on_c, 0, 65, 0
2, 1187393, Note_on_c, 0, 73, 80
2, 1187401, Note_on_c, 0, 75, 0
2, 1187421, Note_on_c, 0, 53, 69
2, 1187425, Note_on_c, 0, 56, 0
2, 1187469, Note_on_c, 0, 73, 0
2, 1187477, Note_on_c, 0, 53, 0
2, 1187493, Note_on_c, 0, 61, 77
2, 1187525, Control_c, 0, 64, 72
2, 1187537, Control_c, 0, 64, 40
2, 1187549, Control_c, 0, 64, 0
2, 1187573, Note_on_c, 0, 61, 0
2, 1187597, Note_on_c, 0, 70, 83
2, 1187609, Note_on_c, 0, 52, 70
2, 1187641, Control_c, 0, 64, 72
2, 1187649, Note_on_c, 0, 70, 0
2, 1187653, Control_c, 0, 64, 127
2, 1187777, Note_on_c, 0, 52, 0
2, 1187805, Note_on_c, 0, 80, 87
2, 1187813, Note_on_c, 0, 56, 47
2, 1187825, Note_on_c, 0, 64, 53
2, 1187869, Note_on_c, 0, 80, 0
2, 1187901, Note_on_c, 0, 82, 83
2, 1187953, Note_on_c, 0, 64, 0
2, 1187969, Note_on_c, 0, 82, 0
2, 1188001, Note_on_c, 0, 80, 87
2, 1188001, Note_on_c, 0, 52, 58
2, 1188009, Note_on_c, 0, 56, 0
2, 1188053, Note_on_c, 0, 52, 0
2, 1188077, Note_on_c, 0, 80, 0
2, 1188105, Note_on_c, 0, 68, 81
2, 1188141, Control_c, 0, 64, 104
2, 1188153, Control_c, 0, 64, 72
2, 1188165, Control_c, 0, 64, 24
2, 1188173, Note_on_c, 0, 68, 0
2, 1188177, Control_c, 0, 64, 0
2, 1188205, Note_on_c, 0, 77, 91
2, 1188221, Note_on_c, 0, 51, 75
2, 1188269, Control_c, 0, 64, 40
2, 1188281, Control_c, 0, 64, 104
2, 1188293, Note_on_c, 0, 77, 0
2, 1188293, Control_c, 0, 64, 127
2, 1188393, Note_on_c, 0, 51, 0
2, 1188425, Note_on_c, 0, 87, 91
2, 1188425, Note_on_c, 0, 56, 60
2, 1188425, Note_on_c, 0, 63, 54
2, 1188493, Note_on_c, 0, 87, 0
2, 1188517, Note_on_c, 0, 89, 94
2, 1188589, Note_on_c, 0, 89, 0
2, 1188621, Note_on_c, 0, 87, 90
2, 1188633, Note_on_c, 0, 51, 72
2, 1188657, Note_on_c, 0, 56, 0
2, 1188673, Note_on_c, 0, 63, 0
2, 1188693, Note_on_c, 0, 87, 0
2, 1188709, Note_on_c, 0, 51, 0
2, 1188717, Note_on_c, 0, 75, 85
2, 1188781, Note_on_c, 0, 75, 0
2, 1188817, Control_c, 0, 64, 104
2, 1188829, Control_c, 0, 64, 40
2, 1188833, Note_on_c, 0, 79, 95
2, 1188841, Control_c, 0, 64, 0
2, 1188861, Note_on_c, 0, 50, 74
2, 1188921, Control_c, 0, 64, 88
2, 1188929, Note_on_c, 0, 79, 0
2, 1188933, Control_c, 0, 64, 127
2, 1188945, Note_on_c, 0, 50, 0
2, 1189081, Note_on_c, 0, 89, 100
2, 1189081, Note_on_c, 0, 65, 62
2, 1189085, Note_on_c, 0, 59, 60
2, 1189085, Note_on_c, 0, 56, 49
2, 1189141, Note_on_c, 0, 65, 0
2, 1189165, Note_on_c, 0, 89, 0
2, 1189181, Note_on_c, 0, 91, 96
2, 1189261, Note_on_c, 0, 91, 0
2, 1189281, Note_on_c, 0, 59, 0
2, 1189301, Note_on_c, 0, 89, 92
2, 1189313, Note_on_c, 0, 56, 0
2, 1189329, Note_on_c, 0, 50, 70
2, 1189381, Note_on_c, 0, 50, 0
2, 1189413, Note_on_c, 0, 89, 0
2, 1189433, Note_on_c, 0, 77, 93
2, 1189489, Note_on_c, 0, 77, 0
2, 1189549, Control_c, 0, 64, 104
2, 1189557, Control_c, 0, 64, 24
2, 1189569, Control_c, 0, 64, 0
2, 1189601, Note_on_c, 0, 39, 94
2, 1189701, Control_c, 0, 64, 88
2, 1189709, Control_c, 0, 64, 127
2, 1189733, Note_on_c, 0, 39, 0
2, 1189901, Note_on_c, 0, 91, 110
2, 1189909, Note_on_c, 0, 85, 83
2, 1189909, Note_on_c, 0, 82, 78
2, 1189913, Note_on_c, 0, 79, 86
2, 1189917, Note_on_c, 0, 56, 67
2, 1189917, Note_on_c, 0, 58, 60
2, 1189917, Note_on_c, 0, 67, 75
2, 1189925, Note_on_c, 0, 61, 62
2, 1190069, Note_on_c, 0, 67, 0
2, 1190069, Note_on_c, 0, 91, 0
2, 1190069, Note_on_c, 0, 79, 0
2, 1190157, Note_on_c, 0, 89, 106
2, 1190161, Note_on_c, 0, 85, 0
2, 1190169, Note_on_c, 0, 77, 90
2, 1190173, Note_on_c, 0, 61, 0
2, 1190173, Note_on_c, 0, 65, 73
2, 1190197, Note_on_c, 0, 82, 0
2, 1190217, Note_on_c, 0, 58, 0
2, 1190265, Note_on_c, 0, 89, 0
2, 1190273, Note_on_c, 0, 77, 0
2, 1190389, Note_on_c, 0, 65, 0
2, 1190397, Note_on_c, 0, 87, 100
2, 1190405, Note_on_c, 0, 75, 81
2, 1190409, Note_on_c, 0, 63, 78
2, 1190529, Note_on_c, 0, 75, 0
2, 1190565, Note_on_c, 0, 87, 0
2, 1190617, Note_on_c, 0, 63, 0
2, 1190629, Note_on_c, 0, 85, 96
2, 1190637, Note_on_c, 0, 73, 84
2, 1190637, Note_on_c, 0, 61, 61
2, 1190765, Note_on_c, 0, 73, 0
2, 1190777, Note_on_c, 0, 61, 0
2, 1190781, Note_on_c, 0, 85, 0
2, 1190841, Note_on_c, 0, 84, 95
2, 1190853, Note_on_c, 0, 72, 80
2, 1190861, Note_on_c, 0, 60, 68
2, 1190917, Note_on_c, 0, 72, 0
2, 1190985, Note_on_c, 0, 84, 0
2, 1191057, Note_on_c, 0, 60, 0
2, 1191073, Note_on_c, 0, 82, 94
2, 1191081, Note_on_c, 0, 58, 62
2, 1191081, Note_on_c, 0, 70, 81
2, 1191137, Note_on_c, 0, 70, 0
2, 1191269, Note_on_c, 0, 82, 0
2, 1191301, Note_on_c, 0, 84, 102
2, 1191305, Note_on_c, 0, 72, 87
2, 1191317, Note_on_c, 0, 60, 60
2, 1191353, Note_on_c, 0, 72, 0
2, 1191373, Note_on_c, 0, 58, 0
2, 1191453, Note_on_c, 0, 84, 0
2, 1191553, Note_on_c, 0, 85, 95
2, 1191561, Note_on_c, 0, 61, 70
2, 1191561, Note_on_c, 0, 73, 92
2, 1191585, Note_on_c, 0, 60, 0
2, 1191605, Note_on_c, 0, 56, 0
2, 1191629, Note_on_c, 0, 73, 0
2, 1191641, Note_on_c, 0, 61, 0
2, 1191689, Note_on_c, 0, 85, 0
2, 1191837, Note_on_c, 0, 87, 103
2, 1191841, Note_on_c, 0, 75, 88
2, 1191849, Control_c, 0, 64, 104
2, 1191853, Note_on_c, 0, 63, 69
2, 1191857, Note_on_c, 0, 51, 69
2, 1191861, Note_on_c, 0, 55, 69
2, 1191861, Control_c, 0, 64, 0
2, 1191941, Control_c, 0, 64, 72
2, 1191949, Note_on_c, 0, 87, 0
2, 1191953, Control_c, 0, 64, 127
2, 1191957, Note_on_c, 0, 75, 0
2, 1192109, Note_on_c, 0, 55, 0
2, 1192125, Note_on_c, 0, 77, 99
2, 1192133, Note_on_c, 0, 65, 82
2, 1192137, Note_on_c, 0, 53, 72
2, 1192193, Note_on_c, 0, 65, 0
2, 1192385, Note_on_c, 0, 77, 0
2, 1192421, Note_on_c, 0, 53, 0
2, 1192453, Note_on_c, 0, 79, 93
2, 1192461, Note_on_c, 0, 67, 74
2, 1192473, Note_on_c, 0, 55, 62
2, 1192489, Control_c, 0, 64, 56
2, 1192501, Control_c, 0, 64, 0
2, 1192581, Control_c, 0, 64, 88
2, 1192593, Note_on_c, 0, 67, 0
2, 1192593, Control_c, 0, 64, 127
2, 1192621, Note_on_c, 0, 79, 0
2, 1192621, Note_on_c, 0, 51, 0
2, 1192625, Note_on_c, 0, 55, 0
2, 1192629, Note_on_c, 0, 63, 0
2, 1192813, Control_c, 0, 64, 72
2, 1192825, Control_c, 0, 64, 24
2, 1192837, Control_c, 0, 64, 0
2, 1192904, Note_on_c, 0, 80, 97
2, 1192904, Note_on_c, 0, 68, 85
2, 1192912, Note_on_c, 0, 72, 89
2, 1192916, Note_on_c, 0, 44, 78
2, 1192920, Note_on_c, 0, 32, 71
2, 1192936, Control_c, 0, 64, 40
2, 1192948, Note_on_c, 0, 32, 0
2, 1192952, Control_c, 0, 64, 88
2, 1192956, Note_on_c, 0, 68, 0
2, 1192968, Note_on_c, 0, 44, 0
2, 1192968, Note_on_c, 0, 72, 0
2, 1192968, Control_c, 0, 64, 127
2, 1192992, Note_on_c, 0, 80, 0
2, 1193256, Note_on_c, 0, 75, 82
2, 1193256, Note_on_c, 0, 84, 88
2, 1193264, Note_on_c, 0, 72, 80
2, 1193276, Control_c, 0, 64, 104
2, 1193280, Note_on_c, 0, 63, 65
2, 1193288, Note_on_c, 0, 51, 62
2, 1193292, Control_c, 0, 64, 88
2, 1193308, Note_on_c, 0, 72, 0
2, 1193308, Note_on_c, 0, 84, 0
2, 1193308, Control_c, 0, 64, 56
2, 1193320, Note_on_c, 0, 63, 0
2, 1193324, Note_on_c, 0, 75, 0
2, 1193324, Control_c, 0, 64, 40
2, 1193340, Note_on_c, 0, 51, 0
2, 1193340, Control_c, 0, 64, 24
2, 1193352, Control_c, 0, 64, 0
2, 1193416, Note_on_c, 0, 83, 97
2, 1193420, Note_on_c, 0, 71, 81
2, 1193428, Note_on_c, 0, 74, 82
2, 1193428, Note_on_c, 0, 62, 73
2, 1193436, Note_on_c, 0, 51, 65
2, 1193452, Note_on_c, 0, 74, 0
2, 1193468, Note_on_c, 0, 71, 0
2, 1193484, Note_on_c, 0, 51, 0
2, 1193484, Note_on_c, 0, 62, 0
2, 1193492, Note_on_c, 0, 83, 0
2, 1193580, Note_on_c, 0, 63, 82
2, 1193584, Note_on_c, 0, 84, 99
2, 1193588, Note_on_c, 0, 72, 89
2, 1193588, Note_on_c, 0, 75, 88
2, 1193588, Note_on_c, 0, 51, 64
2, 1193628, Note_on_c, 0, 51, 0
2, 1193640, Note_on_c, 0, 63, 0
2, 1193644, Note_on_c, 0, 72, 0
2, 1193696, Note_on_c, 0, 84, 0
2, 1193700, Note_on_c, 0, 75, 0
2, 1193924, Note_on_c, 0, 85, 99
2, 1193928, Note_on_c, 0, 73, 92
2, 1193928, Note_on_c, 0, 77, 99
2, 1193940, Note_on_c, 0, 65, 84
2, 1193940, Note_on_c, 0, 61, 75
2, 1193944, Note_on_c, 0, 56, 71
2, 1193988, Control_c, 0, 64, 40
2, 1194004, Control_c, 0, 64, 88
2, 1194020, Control_c, 0, 64, 127
2, 1194024, Note_on_c, 0, 77, 0
2, 1194032, Note_on_c, 0, 73, 0
2, 1194048, Note_on_c, 0, 65, 0
2, 1194072, Note_on_c, 0, 85, 0
2, 1194092, Note_on_c, 0, 56, 0
2, 1194112, Note_on_c, 0, 61, 0
2, 1194160, Control_c, 0, 64, 88
2, 1194176, Control_c, 0, 64, 72
2, 1194188, Control_c, 0, 64, 56
2, 1194208, Control_c, 0, 64, 40
2, 1194224, Control_c, 0, 64, 24
2, 1194236, Control_c, 0, 64, 0
2, 1194264, Note_on_c, 0, 84, 93
2, 1194268, Note_on_c, 0, 75, 81
2, 1194272, Note_on_c, 0, 72, 77
2, 1194276, Note_on_c, 0, 60, 74
2, 1194280, Note_on_c, 0, 56, 55
2, 1194284, Note_on_c, 0, 63, 60
2, 1194300, Note_on_c, 0, 72, 0
2, 1194324, Note_on_c, 0, 75, 0
2, 1194328, Note_on_c, 0, 84, 0
2, 1194328, Note_on_c, 0, 63, 0
2, 1194340, Note_on_c, 0, 60, 0
2, 1194352, Note_on_c, 0, 56, 0
2, 1194412, Note_on_c, 0, 82, 85
2, 1194420, Note_on_c, 0, 70, 82
2, 1194428, Note_on_c, 0, 61, 67
2, 1194428, Note_on_c, 0, 73, 75
2, 1194428, Note_on_c, 0, 56, 49
2, 1194456, Note_on_c, 0, 73, 0
2, 1194472, Note_on_c, 0, 70, 0
2, 1194500, Note_on_c, 0, 82, 0
2, 1194500, Note_on_c, 0, 56, 0
2, 1194512, Note_on_c, 0, 61, 0
2, 1194596, Note_on_c, 0, 80, 91
2, 1194600, Note_on_c, 0, 68, 76
2, 1194604, Note_on_c, 0, 60, 75
2, 1194604, Note_on_c, 0, 56, 55
2, 1194608, Note_on_c, 0, 72, 75
2, 1194660, Note_on_c, 0, 60, 0
2, 1194668, Note_on_c, 0, 68, 0
2, 1194680, Note_on_c, 0, 56, 0
2, 1194688, Note_on_c, 0, 72, 0
2, 1194720, Note_on_c, 0, 80, 0
2, 1194932, Note_on_c, 0, 80, 95
2, 1194936, Note_on_c, 0, 68, 83
2, 1194936, Note_on_c, 0, 51, 100
2, 1194940, Note_on_c, 0, 39, 79
2, 1194944, Note_on_c, 0, 72, 92
2, 1194980, Control_c, 0, 64, 56
2, 1194984, Note_on_c, 0, 39, 0
2, 1194988, Note_on_c, 0, 51, 0
2, 1194996, Control_c, 0, 64, 88
2, 1195004, Note_on_c, 0, 72, 0
2, 1195012, Control_c, 0, 64, 127
2, 1195040, Note_on_c, 0, 68, 0
2, 1195076, Note_on_c, 0, 80, 0
2, 1195244, Control_c, 0, 64, 104
2, 1195264, Control_c, 0, 64, 72
2, 1195272, Note_on_c, 0, 67, 70
2, 1195272, Note_on_c, 0, 70, 68
2, 1195276, Note_on_c, 0, 79, 89
2, 1195276, Control_c, 0, 64, 56
2, 1195284, Note_on_c, 0, 63, 75
2, 1195288, Note_on_c, 0, 51, 71
2, 1195292, Control_c, 0, 64, 24
2, 1195304, Control_c, 0, 64, 0
2, 1195316, Note_on_c, 0, 51, 0
2, 1195324, Note_on_c, 0, 67, 0
2, 1195324, Note_on_c, 0, 63, 0
2, 1195332, Note_on_c, 0, 70, 0
2, 1195348, Note_on_c, 0, 79, 0
2, 1195424, Note_on_c, 0, 65, 82
2, 1195424, Note_on_c, 0, 68, 69
2, 1195424, Note_on_c, 0, 51, 77
2, 1195424, Note_on_c, 0, 77, 91
2, 1195452, Note_on_c, 0, 63, 74
2, 1195468, Note_on_c, 0, 68, 0
2, 1195476, Note_on_c, 0, 51, 0
2, 1195480, Note_on_c, 0, 65, 0
2, 1195500, Note_on_c, 0, 63, 0
2, 1195500, Note_on_c, 0, 77, 0
2, 1195608, Note_on_c, 0, 75, 88
2, 1195612, Note_on_c, 0, 63, 73
2, 1195616, Note_on_c, 0, 67, 79
2, 1195616, Note_on_c, 0, 51, 79
2, 1195696, Note_on_c, 0, 51, 0
2, 1195728, Note_on_c, 0, 67, 0
2, 1195744, Note_on_c, 0, 75, 0
2, 1195796, Note_on_c, 0, 63, 0
2, 1195940, Note_on_c, 0, 75, 92
2, 1195940, Note_on_c, 0, 63, 85
2, 1195944, Note_on_c, 0, 67, 82
2, 1195960, Note_on_c, 0, 51, 80
2, 1195968, Control_c, 0, 64, 24
2, 1195984, Control_c, 0, 64, 72
2, 1196000, Control_c, 0, 64, 88
2, 1196004, Note_on_c, 0, 67, 0
2, 1196016, Control_c, 0, 64, 104
2, 1196020, Note_on_c, 0, 63, 0
2, 1196032, Note_on_c, 0, 51, 0
2, 1196044, Note_on_c, 0, 75, 0
2, 1196108, Control_c, 0, 64, 88
2, 1196124, Control_c, 0, 64, 72
2, 1196140, Control_c, 0, 64, 56
2, 1196156, Control_c, 0, 64, 40
2, 1196172, Control_c, 0, 64, 24
2, 1196200, Control_c, 0, 64, 0
2, 1196280, Note_on_c, 0, 68, 73
2, 1196284, Note_on_c, 0, 77, 90
2, 1196284, Note_on_c, 0, 65, 76
2, 1196304, Note_on_c, 0, 51, 75
2, 1196304, Note_on_c, 0, 62, 70
2, 1196332, Note_on_c, 0, 65, 0
2, 1196332, Note_on_c, 0, 68, 0
2, 1196336, Note_on_c, 0, 62, 0
2, 1196344, Note_on_c, 0, 77, 0
2, 1196356, Note_on_c, 0, 51, 0
2, 1196440, Note_on_c, 0, 79, 99
2, 1196440, Note_on_c, 0, 67, 87
2, 1196440, Note_on_c, 0, 70, 78
2, 1196440, Note_on_c, 0, 51, 60
2, 1196440, Note_on_c, 0, 61, 73
2, 1196468, Note_on_c, 0, 51, 0
2, 1196484, Note_on_c, 0, 70, 0
2, 1196488, Note_on_c, 0, 61, 0
2, 1196492, Note_on_c, 0, 67, 0
2, 1196492, Note_on_c, 0, 79, 0
2, 1196592, Note_on_c, 0, 80, 96
2, 1196596, Note_on_c, 0, 68, 74
2, 1196596, Note_on_c, 0, 60, 77
2, 1196600, Note_on_c, 0, 51, 75
2, 1196612, Note_on_c, 0, 72, 73
2, 1196632, Note_on_c, 0, 60, 0
2, 1196644, Note_on_c, 0, 68, 0
2, 1196652, Note_on_c, 0, 72, 0
2, 1196652, Note_on_c, 0, 51, 0
2, 1196672, Note_on_c, 0, 80, 0
2, 1196752, Note_on_c, 0, 82, 92
2, 1196752, Note_on_c, 0, 58, 72
2, 1196756, Note_on_c, 0, 70, 91
2, 1196756, Note_on_c, 0, 49, 60
2, 1196760, Note_on_c, 0, 73, 84
2, 1196780, Note_on_c, 0, 49, 0
2, 1196784, Note_on_c, 0, 58, 0
2, 1196812, Note_on_c, 0, 70, 0
2, 1196816, Note_on_c, 0, 73, 0
2, 1196844, Note_on_c, 0, 82, 0
2, 1196948, Note_on_c, 0, 80, 102
2, 1196952, Note_on_c, 0, 68, 89
2, 1196952, Note_on_c, 0, 44, 85
2, 1196952, Note_on_c, 0, 72, 98
2, 1196956, Note_on_c, 0, 32, 69
2, 1196988, Note_on_c, 0, 32, 0
2, 1196992, Control_c, 0, 64, 72
2, 1196996, Note_on_c, 0, 44, 0
2, 1197008, Control_c, 0, 64, 104
2, 1197016, Note_on_c, 0, 72, 0
2, 1197020, Note_on_c, 0, 68, 0
2, 1197024, Control_c, 0, 64, 127
2, 1197056, Note_on_c, 0, 80, 0
2, 1197256, Control_c, 0, 64, 104
2, 1197272, Control_c, 0, 64, 88
2, 1197280, Note_on_c, 0, 84, 96
2, 1197280, Note_on_c, 0, 75, 83
2, 1197288, Note_on_c, 0, 72, 78
2, 1197288, Control_c, 0, 64, 56
2, 1197300, Note_on_c, 0, 63, 65
2, 1197300, Control_c, 0, 64, 24
2, 1197312, Note_on_c, 0, 51, 60
2, 1197316, Note_on_c, 0, 72, 0
2, 1197316, Control_c, 0, 64, 0
2, 1197340, Note_on_c, 0, 51, 0
2, 1197348, Note_on_c, 0, 84, 0
2, 1197348, Note_on_c, 0, 75, 0
2, 1197348, Note_on_c, 0, 63, 0
2, 1197436, Note_on_c, 0, 83, 96
2, 1197444, Note_on_c, 0, 71, 76
2, 1197448, Note_on_c, 0, 74, 80
2, 1197452, Note_on_c, 0, 51, 73
2, 1197452, Note_on_c, 0, 62, 69
2, 1197472, Note_on_c, 0, 74, 0
2, 1197476, Note_on_c, 0, 71, 0
2, 1197480, Note_on_c, 0, 62, 0
2, 1197500, Note_on_c, 0, 83, 0
2, 1197512, Note_on_c, 0, 51, 0
2, 1197604, Note_on_c, 0, 84, 97
2, 1197604, Note_on_c, 0, 63, 77
2, 1197604, Note_on_c, 0, 75, 81
2, 1197604, Note_on_c, 0, 51, 71
2, 1197608, Note_on_c, 0, 72, 92
2, 1197652, Note_on_c, 0, 51, 0
2, 1197668, Note_on_c, 0, 63, 0
2, 1197676, Note_on_c, 0, 72, 0
2, 1197704, Note_on_c, 0, 75, 0
2, 1197736, Note_on_c, 0, 84, 0
2, 1197948, Note_on_c, 0, 85, 97
2, 1197956, Note_on_c, 0, 73, 88
2, 1197960, Note_on_c, 0, 77, 96
2, 1197964, Note_on_c, 0, 56, 68
2, 1197964, Note_on_c, 0, 61, 70
2, 1197968, Note_on_c, 0, 65, 76
2, 1197984, Control_c, 0, 64, 24
2, 1198000, Control_c, 0, 64, 72
2, 1198016, Control_c, 0, 64, 104
2, 1198032, Control_c, 0, 64, 127
2, 1198068, Note_on_c, 0, 77, 0
2, 1198072, Note_on_c, 0, 65, 0
2, 1198096, Note_on_c, 0, 73, 0
2, 1198108, Note_on_c, 0, 56, 0
2, 1198124, Note_on_c, 0, 61, 0
2, 1198188, Note_on_c, 0, 85, 0
2, 1198232, Control_c, 0, 64, 104
2, 1198264, Control_c, 0, 64, 88
2, 1198280, Control_c, 0, 64, 56
2, 1198288, Note_on_c, 0, 84, 87
2, 1198288, Note_on_c, 0, 75, 79
2, 1198292, Control_c, 0, 64, 40
2, 1198296, Note_on_c, 0, 72, 70
2, 1198304, Note_on_c, 0, 63, 60
2, 1198304, Note_on_c, 0, 56, 54
2, 1198308, Note_on_c, 0, 60, 64
2, 1198308, Control_c, 0, 64, 24
2, 1198324, Note_on_c, 0, 72, 0
2, 1198324, Control_c, 0, 64, 0
2, 1198340, Note_on_c, 0, 60, 0
2, 1198348, Note_on_c, 0, 84, 0
2, 1198356, Note_on_c, 0, 63, 0
2, 1198360, Note_on_c, 0, 75, 0
2, 1198372, Note_on_c, 0, 56, 0
2, 1198440, Note_on_c, 0, 82, 84
2, 1198448, Note_on_c, 0, 70, 71
2, 1198452, Note_on_c, 0, 73, 83
2, 1198452, Note_on_c, 0, 61, 63
2, 1198456, Note_on_c, 0, 56, 57
2, 1198456, Note_on_c, 0, 58, 59
2, 1198492, Note_on_c, 0, 58, 0
2, 1198492, Note_on_c, 0, 70, 0
2, 1198504, Note_on_c, 0, 56, 0
2, 1198504, Note_on_c, 0, 73, 0
2, 1198516, Note_on_c, 0, 61, 0
2, 1198520, Note_on_c, 0, 82, 0
2, 1198612, Note_on_c, 0, 80, 89
2, 1198612, Note_on_c, 0, 68, 73
2, 1198612, Note_on_c, 0, 56, 49
2, 1198620, Note_on_c, 0, 72, 82
2, 1198620, Note_on_c, 0, 60, 74
2, 1198648, Note_on_c, 0, 60, 0
2, 1198692, Note_on_c, 0, 56, 0
2, 1198700, Note_on_c, 0, 72, 0
2, 1198704, Note_on_c, 0, 68, 0
2, 1198724, Note_on_c, 0, 80, 0
2, 1198956, Note_on_c, 0, 80, 91
2, 1198960, Note_on_c, 0, 68, 80
2, 1198964, Note_on_c, 0, 36, 87
2, 1198968, Note_on_c, 0, 72, 93
2, 1198968, Note_on_c, 0, 48, 107
2, 1198992, Control_c, 0, 64, 56
2, 1199008, Note_on_c, 0, 36, 0
2, 1199008, Control_c, 0, 64, 104
2, 1199020, Control_c, 0, 64, 127
2, 1199028, Note_on_c, 0, 48, 0
2, 1199044, Note_on_c, 0, 72, 0
2, 1199060, Note_on_c, 0, 68, 0
2, 1199120, Note_on_c, 0, 80, 0
2, 1199224, Control_c, 0, 64, 104
2, 1199240, Control_c, 0, 64, 88
2, 1199272, Control_c, 0, 64, 56
2, 1199288, Control_c, 0, 64, 40
2, 1199300, Note_on_c, 0, 79, 78
2, 1199300, Note_on_c, 0, 70, 64
2, 1199300, Control_c, 0, 64, 24
2, 1199312, Note_on_c, 0, 67, 60
2, 1199316, Control_c, 0, 64, 0
2, 1199324, Note_on_c, 0, 60, 78
2, 1199328, Note_on_c, 0, 48, 76
2, 1199348, Note_on_c, 0, 67, 0
2, 1199356, Note_on_c, 0, 48, 0
2, 1199360, Note_on_c, 0, 60, 0
2, 1199364, Note_on_c, 0, 79, 0
2, 1199368, Note_on_c, 0, 70, 0
2, 1199460, Note_on_c, 0, 77, 88
2, 1199460, Note_on_c, 0, 68, 73
2, 1199460, Note_on_c, 0, 65, 71
2, 1199480, Note_on_c, 0, 60, 71
2, 1199492, Note_on_c, 0, 48, 63
2, 1199504, Note_on_c, 0, 65, 0
2, 1199512, Note_on_c, 0, 60, 0
2, 1199512, Note_on_c, 0, 68, 0
2, 1199516, Note_on_c, 0, 77, 0
2, 1199520, Note_on_c, 0, 48, 0
2, 1199616, Note_on_c, 0, 76, 90
2, 1199616, Note_on_c, 0, 64, 80
2, 1199616, Note_on_c, 0, 67, 60
2, 1199632, Note_on_c, 0, 60, 74
2, 1199632, Note_on_c, 0, 48, 74
2, 1199664, Note_on_c, 0, 67, 0
2, 1199664, Note_on_c, 0, 64, 0
2, 1199672, Note_on_c, 0, 48, 0
2, 1199672, Note_on_c, 0, 60, 0
2, 1199684, Note_on_c, 0, 76, 0
2, 1199776, Note_on_c, 0, 60, 79
2, 1199780, Note_on_c, 0, 70, 85
2, 1199780, Note_on_c, 0, 79, 90
2, 1199780, Note_on_c, 0, 48, 76
2, 1199784, Note_on_c, 0, 67, 81
2, 1199800, Note_on_c, 0, 60, 0
2, 1199824, Note_on_c, 0, 67, 0
2, 1199828, Note_on_c, 0, 48, 0
2, 1199832, Note_on_c, 0, 70, 0
2, 1199840, Note_on_c, 0, 79, 0
2, 1199964, Note_on_c, 0, 77, 97
2, 1199964, Note_on_c, 0, 65, 82
2, 1199964, Note_on_c, 0, 68, 81
2, 1199976, Note_on_c, 0, 53, 75
2, 1199980, Note_on_c, 0, 41, 74
2, 1200000, Control_c, 0, 64, 40
2, 1200008, Note_on_c, 0, 41, 0
2, 1200016, Control_c, 0, 64, 88
2, 1200028, Note_on_c, 0, 53, 0
2, 1200028, Control_c, 0, 64, 127
2, 1200256, Note_on_c, 0, 65, 0
2, 1200272, Note_on_c, 0, 68, 0
2, 1200292, Note_on_c, 0, 60, 83
2, 1200304, Note_on_c, 0, 77, 0
2, 1200308, Note_on_c, 0, 48, 82
2, 1200324, Control_c, 0, 64, 104
2, 1200340, Control_c, 0, 64, 88
2, 1200356, Control_c, 0, 64, 72
2, 1200360, Note_on_c, 0, 60, 0
2, 1200364, Note_on_c, 0, 48, 0
2, 1200388, Control_c, 0, 64, 56
2, 1200400, Control_c, 0, 64, 40
2, 1200416, Control_c, 0, 64, 24
2, 1200432, Control_c, 0, 64, 0
2, 1200460, Note_on_c, 0, 59, 85
2, 1200468, Note_on_c, 0, 47, 79
2, 1200528, Note_on_c, 0, 47, 0
2, 1200540, Note_on_c, 0, 59, 0
2, 1200648, Note_on_c, 0, 80, 96
2, 1200656, Note_on_c, 0, 68, 85
2, 1200660, Note_on_c, 0, 72, 94
2, 1200680, Note_on_c, 0, 60, 84
2, 1200688, Note_on_c, 0, 48, 74
2, 1200732, Note_on_c, 0, 60, 0
2, 1200760, Note_on_c, 0, 72, 0
2, 1200760, Note_on_c, 0, 48, 0
2, 1200764, Note_on_c, 0, 68, 0
2, 1200772, Control_c, 0, 64, 24
2, 1200796, Note_on_c, 0, 80, 0
2, 1200836, Control_c, 0, 64, 0
2, 1201000, Note_on_c, 0, 68, 89
2, 1201000, Note_on_c, 0, 80, 99
2, 1201008, Note_on_c, 0, 72, 96
2, 1201012, Note_on_c, 0, 44, 84
2, 1201024, Note_on_c, 0, 32, 83
2, 1201060, Note_on_c, 0, 72, 0
2, 1201064, Note_on_c, 0, 44, 0
2, 1201064, Note_on_c, 0, 32, 0
2, 1201064, Note_on_c, 0, 68, 0
2, 1201068, Control_c, 0, 64, 72
2, 1201084, Control_c, 0, 64, 127
2, 1201120, Note_on_c, 0, 80, 0
2, 1201316, Control_c, 0, 64, 104
2, 1201328, Control_c, 0, 64, 72
2, 1201340, Note_on_c, 0, 75, 85
2, 1201344, Note_on_c, 0, 84, 92
2, 1201344, Control_c, 0, 64, 56
2, 1201352, Note_on_c, 0, 72, 85
2, 1201360, Note_on_c, 0, 63, 71
2, 1201360, Control_c, 0, 64, 24
2, 1201368, Note_on_c, 0, 51, 68
2, 1201376, Control_c, 0, 64, 0
2, 1201392, Note_on_c, 0, 72, 0
2, 1201396, Note_on_c, 0, 63, 0
2, 1201400, Note_on_c, 0, 84, 0
2, 1201412, Note_on_c, 0, 75, 0
2, 1201420, Note_on_c, 0, 51, 0
2, 1201500, Note_on_c, 0, 83, 100
2, 1201500, Note_on_c, 0, 74, 87
2, 1201500, Note_on_c, 0, 71, 80
2, 1201508, Note_on_c, 0, 62, 72
2, 1201516, Note_on_c, 0, 51, 76
2, 1201540, Note_on_c, 0, 62, 0
2, 1201544, Note_on_c, 0, 71, 0
2, 1201552, Note_on_c, 0, 74, 0
2, 1201564, Note_on_c, 0, 51, 0
2, 1201580, Note_on_c, 0, 83, 0
2, 1201664, Note_on_c, 0, 63, 77
2, 1201668, Note_on_c, 0, 51, 73
2, 1201672, Note_on_c, 0, 84, 96
2, 1201676, Note_on_c, 0, 75, 85
2, 1201676, Note_on_c, 0, 72, 84
2, 1201724, Note_on_c, 0, 51, 0
2, 1201732, Note_on_c, 0, 63, 0
2, 1201748, Note_on_c, 0, 72, 0
2, 1201788, Note_on_c, 0, 75, 0
2, 1201808, Note_on_c, 0, 84, 0
2, 1202004, Note_on_c, 0, 85, 96
2, 1202008, Note_on_c, 0, 73, 90
2, 1202012, Note_on_c, 0, 77, 96
2, 1202020, Note_on_c, 0, 65, 84
2, 1202020, Note_on_c, 0, 56, 71
2, 1202024, Note_on_c, 0, 61, 75
2, 1202056, Control_c, 0, 64, 24
2, 1202072, Control_c, 0, 64, 88
2, 1202088, Control_c, 0, 64, 127
2, 1202112, Note_on_c, 0, 77, 0
2, 1202128, Note_on_c, 0, 65, 0
2, 1202144, Note_on_c, 0, 73, 0
2, 1202152, Note_on_c, 0, 56, 0
2, 1202180, Note_on_c, 0, 85, 0
2, 1202188, Note_on_c, 0, 61, 0
2, 1202276, Control_c, 0, 64, 104
2, 1202292, Control_c, 0, 64, 88
2, 1202308, Control_c, 0, 64, 72
2, 1202324, Control_c, 0, 64, 56
2, 1202328, Note_on_c, 0, 84, 92
2, 1202336, Note_on_c, 0, 75, 79
2, 1202336, Note_on_c, 0, 72, 82
2, 1202336, Control_c, 0, 64, 40
2, 1202348, Note_on_c, 0, 60, 69
2, 1202352, Note_on_c, 0, 63, 56
2, 1202352, Note_on_c, 0, 56, 52
2, 1202356, Control_c, 0, 64, 0
2, 1202368, Note_on_c, 0, 72, 0
2, 1202384, Note_on_c, 0, 60, 0
2, 1202388, Note_on_c, 0, 84, 0
2, 1202392, Note_on_c, 0, 75, 0
2, 1202404, Note_on_c, 0, 63, 0
2, 1202424, Note_on_c, 0, 56, 0
2, 1202484, Note_on_c, 0, 82, 83
2, 1202484, Note_on_c, 0, 56, 47
2, 1202492, Note_on_c, 0, 70, 78
2, 1202496, Note_on_c, 0, 73, 81
2, 1202500, Note_on_c, 0, 61, 60
2, 1202520, Note_on_c, 0, 58, 32
2, 1202544, Note_on_c, 0, 70, 0
2, 1202548, Note_on_c, 0, 73, 0
2, 1202564, Note_on_c, 0, 61, 0
2, 1202564, Note_on_c, 0, 58, 0
2, 1202572, Note_on_c, 0, 56, 0
2, 1202576, Note_on_c, 0, 82, 0
2, 1202652, Note_on_c, 0, 80, 87
2, 1202656, Note_on_c, 0, 68, 75
2, 1202668, Note_on_c, 0, 72, 88
2, 1202668, Note_on_c, 0, 60, 72
2, 1202668, Note_on_c, 0, 56, 59
2, 1202708, Note_on_c, 0, 60, 0
2, 1202744, Note_on_c, 0, 56, 0
2, 1202756, Note_on_c, 0, 72, 0
2, 1202788, Note_on_c, 0, 68, 0
2, 1202796, Note_on_c, 0, 80, 0
2, 1202996, Note_on_c, 0, 80, 91
2, 1203000, Note_on_c, 0, 68, 85
2, 1203008, Note_on_c, 0, 72, 90
2, 1203008, Note_on_c, 0, 39, 82
2, 1203008, Note_on_c, 0, 51, 106
2, 1203052, Control_c, 0, 64, 56
2, 1203056, Note_on_c, 0, 51, 0
2, 1203056, Note_on_c, 0, 39, 0
2, 1203068, Control_c, 0, 64, 104
2, 1203080, Note_on_c, 0, 72, 0
2, 1203080, Control_c, 0, 64, 127
2, 1203116, Note_on_c, 0, 68, 0
2, 1203156, Note_on_c, 0, 80, 0
2, 1203296, Control_c, 0, 64, 104
2, 1203316, Control_c, 0, 64, 88
2, 1203328, Note_on_c, 0, 79, 91
2, 1203328, Control_c, 0, 64, 72
2, 1203336, Note_on_c, 0, 70, 70
2, 1203340, Note_on_c, 0, 67, 62
2, 1203348, Control_c, 0, 64, 56
2, 1203352, Note_on_c, 0, 51, 73
2, 1203352, Note_on_c, 0, 63, 73
2, 1203360, Control_c, 0, 64, 24
2, 1203368, Note_on_c, 0, 67, 0
2, 1203376, Control_c, 0, 64, 0
2, 1203380, Note_on_c, 0, 51, 0
2, 1203388, Note_on_c, 0, 79, 0
2, 1203388, Note_on_c, 0, 70, 0
2, 1203396, Note_on_c, 0, 63, 0
2, 1203480, Note_on_c, 0, 77, 92
2, 1203484, Note_on_c, 0, 65, 77
2, 1203488, Note_on_c, 0, 68, 68
2, 1203500, Note_on_c, 0, 63, 75
2, 1203500, Note_on_c, 0, 51, 78
2, 1203544, Note_on_c, 0, 65, 0
2, 1203552, Note_on_c, 0, 63, 0
2, 1203552, Note_on_c, 0, 51, 0
2, 1203552, Note_on_c, 0, 68, 0
2, 1203560, Note_on_c, 0, 77, 0
2, 1203664, Note_on_c, 0, 75, 85
2, 1203668, Note_on_c, 0, 63, 78
2, 1203668, Note_on_c, 0, 51, 83
2, 1203676, Note_on_c, 0, 67, 76
2, 1203744, Note_on_c, 0, 51, 0
2, 1203744, Note_on_c, 0, 63, 0
2, 1203788, Note_on_c, 0, 67, 0
2, 1203820, Note_on_c, 0, 75, 0
2, 1204004, Note_on_c, 0, 75, 95
2, 1204004, Note_on_c, 0, 63, 87
2, 1204008, Note_on_c, 0, 67, 85
2, 1204020, Note_on_c, 0, 51, 81
2, 1204044, Control_c, 0, 64, 24
2, 1204060, Control_c, 0, 64, 72
2, 1204072, Note_on_c, 0, 67, 0
2, 1204076, Control_c, 0, 64, 104
2, 1204084, Note_on_c, 0, 63, 0
2, 1204088, Control_c, 0, 64, 127
2, 1204092, Note_on_c, 0, 51, 0
2, 1204104, Note_on_c, 0, 75, 0
2, 1204308, Control_c, 0, 64, 104
2, 1204324, Control_c, 0, 64, 88
2, 1204336, Note_on_c, 0, 68, 76
2, 1204336, Note_on_c, 0, 77, 88
2, 1204336, Note_on_c, 0, 65, 74
2, 1204352, Note_on_c, 0, 62, 68
2, 1204352, Note_on_c, 0, 51, 64
2, 1204352, Control_c, 0, 64, 56
2, 1204368, Control_c, 0, 64, 40
2, 1204376, Note_on_c, 0, 65, 0
2, 1204380, Note_on_c, 0, 62, 0
2, 1204384, Note_on_c, 0, 68, 0
2, 1204384, Control_c, 0, 64, 24
2, 1204388, Note_on_c, 0, 77, 0
2, 1204400, Control_c, 0, 64, 0
2, 1204412, Note_on_c, 0, 51, 0
2, 1204492, Note_on_c, 0, 79, 96
2, 1204492, Note_on_c, 0, 67, 83
2, 1204496, Note_on_c, 0, 70, 78
2, 1204496, Note_on_c, 0, 61, 65
2, 1204516, Note_on_c, 0, 51, 48
2, 1204536, Note_on_c, 0, 61, 0
2, 1204540, Note_on_c, 0, 67, 0
2, 1204540, Note_on_c, 0, 79, 0
2, 1204540, Note_on_c, 0, 51, 0
2, 1204548, Note_on_c, 0, 70, 0
2, 1204648, Note_on_c, 0, 51, 71
2, 1204652, Note_on_c, 0, 80, 89
2, 1204652, Note_on_c, 0, 60, 70
2, 1204656, Note_on_c, 0, 68, 76
2, 1204680, Note_on_c, 0, 60, 0
2, 1204680, Note_on_c, 0, 72, 48
2, 1204684, Note_on_c, 0, 71, 37
2, 1204708, Note_on_c, 0, 68, 0
2, 1204708, Note_on_c, 0, 51, 0
2, 1204712, Note_on_c, 0, 72, 0
2, 1204716, Note_on_c, 0, 71, 0
2, 1204732, Note_on_c, 0, 80, 0
2, 1204800, Note_on_c, 0, 58, 65
2, 1204808, Note_on_c, 0, 82, 92
2, 1204812, Note_on_c, 0, 70, 90
2, 1204816, Note_on_c, 0, 49, 51
2, 1204816, Note_on_c, 0, 73, 80
2, 1204832, Note_on_c, 0, 58, 0
2, 1204840, Note_on_c, 0, 49, 0
2, 1204876, Note_on_c, 0, 73, 0
2, 1204876, Note_on_c, 0, 70, 0
2, 1204904, Note_on_c, 0, 82, 0
2, 1205008, Note_on_c, 0, 80, 97
2, 1205012, Note_on_c, 0, 68, 85
2, 1205012, Note_on_c, 0, 72, 90
2, 1205020, Note_on_c, 0, 44, 90
2, 1205024, Note_on_c, 0, 32, 95
2, 1205052, Note_on_c, 0, 32, 0
2, 1205064, Note_on_c, 0, 44, 0
2, 1205068, Note_on_c, 0, 72, 0
2, 1205068, Control_c, 0, 64, 40
2, 1205072, Note_on_c, 0, 68, 0
2, 1205080, Control_c, 0, 64, 88
2, 1205096, Control_c, 0, 64, 127
2, 1205104, Note_on_c, 0, 80, 0
2, 1205340, Note_on_c, 0, 75, 81
2, 1205340, Note_on_c, 0, 84, 89
2, 1205344, Note_on_c, 0, 72, 82
2, 1205352, Note_on_c, 0, 63, 74
2, 1205356, Note_on_c, 0, 51, 69
2, 1205392, Control_c, 0, 64, 104
2, 1205400, Note_on_c, 0, 72, 0
2, 1205400, Note_on_c, 0, 84, 0
2, 1205408, Note_on_c, 0, 63, 0
2, 1205408, Control_c, 0, 64, 72
2, 1205412, Note_on_c, 0, 75, 0
2, 1205416, Note_on_c, 0, 51, 0
2, 1205424, Control_c, 0, 64, 56
2, 1205436, Control_c, 0, 64, 24
2, 1205452, Control_c, 0, 64, 0
2, 1205492, Note_on_c, 0, 83, 94
2, 1205496, Note_on_c, 0, 74, 84
2, 1205500, Note_on_c, 0, 71, 74
2, 1205504, Note_on_c, 0, 62, 83
2, 1205508, Note_on_c, 0, 51, 85
2, 1205532, Note_on_c, 0, 71, 0
2, 1205548, Note_on_c, 0, 74, 0
2, 1205556, Note_on_c, 0, 51, 0
2, 1205564, Note_on_c, 0, 62, 0
2, 1205568, Note_on_c, 0, 83, 0
2, 1205668, Note_on_c, 0, 84, 99
2, 1205668, Note_on_c, 0, 72, 96
2, 1205672, Note_on_c, 0, 75, 84
2, 1205676, Note_on_c, 0, 63, 77
2, 1205680, Note_on_c, 0, 51, 77
2, 1205716, Control_c, 0, 64, 24
2, 1205720, Note_on_c, 0, 51, 0
2, 1205736, Note_on_c, 0, 63, 0
2, 1205768, Note_on_c, 0, 72, 0
2, 1205796, Note_on_c, 0, 84, 0
2, 1205796, Control_c, 0, 64, 0
2, 1205808, Note_on_c, 0, 75, 0
2, 1206016, Note_on_c, 0, 85, 97
2, 1206020, Note_on_c, 0, 73, 92
2, 1206024, Note_on_c, 0, 77, 96
2, 1206032, Note_on_c, 0, 56, 72
2, 1206036, Note_on_c, 0, 65, 86
2, 1206036, Note_on_c, 0, 61, 75
2, 1206060, Control_c, 0, 64, 40
2, 1206072, Control_c, 0, 64, 88
2, 1206088, Control_c, 0, 64, 104
2, 1206104, Control_c, 0, 64, 127
2, 1206144, Note_on_c, 0, 77, 0
2, 1206152, Note_on_c, 0, 65, 0
2, 1206176, Note_on_c, 0, 73, 0
2, 1206196, Note_on_c, 0, 61, 0
2, 1206208, Note_on_c, 0, 56, 0
2, 1206220, Note_on_c, 0, 85, 0
2, 1206260, Control_c, 0, 64, 104
2, 1206304, Control_c, 0, 64, 72
2, 1206336, Control_c, 0, 64, 56
2, 1206340, Note_on_c, 0, 84, 93
2, 1206344, Note_on_c, 0, 72, 82
2, 1206348, Note_on_c, 0, 75, 80
2, 1206352, Control_c, 0, 64, 40
2, 1206360, Note_on_c, 0, 56, 54
2, 1206364, Note_on_c, 0, 63, 56
2, 1206368, Note_on_c, 0, 60, 63
2, 1206368, Control_c, 0, 64, 24
2, 1206384, Control_c, 0, 64, 0
2, 1206392, Note_on_c, 0, 84, 0
2, 1206396, Note_on_c, 0, 60, 0
2, 1206400, Note_on_c, 0, 72, 0
2, 1206408, Note_on_c, 0, 63, 0
2, 1206412, Note_on_c, 0, 75, 0
2, 1206428, Note_on_c, 0, 56, 0
2, 1206492, Note_on_c, 0, 82, 84
2, 1206500, Note_on_c, 0, 70, 80
2, 1206508, Note_on_c, 0, 73, 77
2, 1206512, Note_on_c, 0, 61, 61
2, 1206512, Note_on_c, 0, 56, 43
2, 1206536, Note_on_c, 0, 58, 32
2, 1206556, Note_on_c, 0, 70, 0
2, 1206564, Note_on_c, 0, 73, 0
2, 1206572, Note_on_c, 0, 58, 0
2, 1206580, Note_on_c, 0, 82, 0
2, 1206580, Note_on_c, 0, 61, 0
2, 1206592, Note_on_c, 0, 56, 0
2, 1206664, Note_on_c, 0, 80, 90
2, 1206664, Note_on_c, 0, 56, 36
2, 1206672, Note_on_c, 0, 68, 77
2, 1206672, Note_on_c, 0, 60, 76
2, 1206676, Note_on_c, 0, 72, 89
2, 1206708, Control_c, 0, 64, 24
2, 1206720, Note_on_c, 0, 60, 0
2, 1206740, Note_on_c, 0, 56, 0
2, 1206784, Note_on_c, 0, 72, 0
2, 1206804, Note_on_c, 0, 68, 0
2, 1206804, Note_on_c, 0, 80, 0
2, 1206804, Control_c, 0, 64, 0
2, 1207016, Note_on_c, 0, 36, 93
2, 1207016, Note_on_c, 0, 80, 89
2, 1207020, Note_on_c, 0, 68, 79
2, 1207020, Note_on_c, 0, 48, 107
2, 1207028, Note_on_c, 0, 72, 89
2, 1207064, Control_c, 0, 64, 24
2, 1207072, Note_on_c, 0, 36, 0
2, 1207080, Control_c, 0, 64, 72
2, 1207096, Note_on_c, 0, 48, 0
2, 1207096, Control_c, 0, 64, 127
2, 1207108, Note_on_c, 0, 72, 0
2, 1207124, Note_on_c, 0, 68, 0
2, 1207180, Note_on_c, 0, 80, 0
2, 1207284, Control_c, 0, 64, 104
2, 1207312, Control_c, 0, 64, 88
2, 1207328, Control_c, 0, 64, 72
2, 1207344, Control_c, 0, 64, 40
2, 1207352, Note_on_c, 0, 79, 85
2, 1207352, Note_on_c, 0, 70, 70
2, 1207360, Note_on_c, 0, 67, 63
2, 1207360, Control_c, 0, 64, 24
2, 1207376, Control_c, 0, 64, 0
2, 1207380, Note_on_c, 0, 60, 74
2, 1207384, Note_on_c, 0, 48, 74
2, 1207404, Note_on_c, 0, 67, 0
2, 1207408, Note_on_c, 0, 48, 0
2, 1207412, Note_on_c, 0, 60, 0
2, 1207420, Note_on_c, 0, 70, 0
2, 1207420, Note_on_c, 0, 79, 0
2, 1207520, Note_on_c, 0, 77, 87
2, 1207520, Note_on_c, 0, 65, 75
2, 1207520, Note_on_c, 0, 68, 72
2, 1207532, Note_on_c, 0, 60, 74
2, 1207532, Note_on_c, 0, 48, 70
2, 1207560, Note_on_c, 0, 48, 0
2, 1207560, Note_on_c, 0, 65, 0
2, 1207560, Note_on_c, 0, 60, 0
2, 1207572, Note_on_c, 0, 68, 0
2, 1207576, Note_on_c, 0, 77, 0
2, 1207676, Note_on_c, 0, 76, 90
2, 1207676, Note_on_c, 0, 60, 77
2, 1207676, Note_on_c, 0, 48, 76
2, 1207676, Note_on_c, 0, 64, 77
2, 1207676, Note_on_c, 0, 67, 60
2, 1207716, Note_on_c, 0, 64, 0
2, 1207724, Note_on_c, 0, 67, 0
2, 1207728, Note_on_c, 0, 76, 0
2, 1207732, Note_on_c, 0, 48, 0
2, 1207732, Note_on_c, 0, 60, 0
2, 1207836, Note_on_c, 0, 79, 91
2, 1207836, Note_on_c, 0, 67, 82
2, 1207836, Note_on_c, 0, 48, 70
2, 1207836, Note_on_c, 0, 70, 85
2, 1207836, Note_on_c, 0, 60, 74
2, 1207860, Note_on_c, 0, 60, 0
2, 1207880, Note_on_c, 0, 48, 0
2, 1207880, Note_on_c, 0, 67, 0
2, 1207884, Note_on_c, 0, 70, 0
2, 1207896, Note_on_c, 0, 79, 0
2, 1208028, Note_on_c, 0, 77, 100
2, 1208028, Note_on_c, 0, 65, 90
2, 1208032, Note_on_c, 0, 68, 89
2, 1208060, Note_on_c, 0, 41, 69
2, 1208064, Note_on_c, 0, 53, 69
2, 1208072, Control_c, 0, 64, 56
2, 1208088, Note_on_c, 0, 41, 0
2, 1208088, Control_c, 0, 64, 104
2, 1208104, Control_c, 0, 64, 127
2, 1208132, Note_on_c, 0, 53, 0
2, 1208320, Note_on_c, 0, 65, 0
2, 1208348, Note_on_c, 0, 68, 0
2, 1208348, Note_on_c, 0, 60, 83
2, 1208356, Note_on_c, 0, 48, 80
2, 1208376, Note_on_c, 0, 77, 0
2, 1208384, Control_c, 0, 64, 104
2, 1208396, Control_c, 0, 64, 88
2, 1208404, Note_on_c, 0, 60, 0
2, 1208412, Note_on_c, 0, 48, 0
2, 1208412, Control_c, 0, 64, 56
2, 1208428, Control_c, 0, 64, 40
2, 1208444, Control_c, 0, 64, 24
2, 1208460, Control_c, 0, 64, 0
2, 1208520, Note_on_c, 0, 59, 82
2, 1208528, Note_on_c, 0, 47, 80
2, 1208580, Note_on_c, 0, 47, 0
2, 1208584, Note_on_c, 0, 59, 0
2, 1208688, Note_on_c, 0, 80, 90
2, 1208692, Note_on_c, 0, 68, 82
2, 1208700, Note_on_c, 0, 72, 92
2, 1208704, Note_on_c, 0, 60, 80
2, 1208712, Note_on_c, 0, 48, 78
2, 1208760, Note_on_c, 0, 48, 0
2, 1208776, Note_on_c, 0, 60, 0
2, 1208804, Note_on_c, 0, 72, 0
2, 1208804, Note_on_c, 0, 68, 0
2, 1208848, Note_on_c, 0, 80, 0
2, 1209028, Note_on_c, 0, 80, 96
2, 1209032, Note_on_c, 0, 68, 95
2, 1209036, Note_on_c, 0, 75, 85
2, 1209044, Note_on_c, 0, 65, 82
2, 1209056, Note_on_c, 0, 53, 74
2, 1209064, Control_c, 0, 64, 40
2, 1209080, Control_c, 0, 64, 104
2, 1209096, Note_on_c, 0, 65, 0
2, 1209096, Control_c, 0, 64, 127
2, 1209112, Note_on_c, 0, 53, 0
2, 1209120, Note_on_c, 0, 68, 0
2, 1209148, Note_on_c, 0, 75, 0
2, 1209172, Control_c, 0, 64, 104
2, 1209180, Note_on_c, 0, 80, 0
2, 1209188, Control_c, 0, 64, 56
2, 1209204, Control_c, 0, 64, 0
2, 1209368, Note_on_c, 0, 80, 93
2, 1209376, Note_on_c, 0, 68, 89
2, 1209376, Note_on_c, 0, 75, 87
2, 1209380, Note_on_c, 0, 60, 84
2, 1209380, Note_on_c, 0, 48, 84
2, 1209388, Control_c, 0, 64, 56
2, 1209404, Control_c, 0, 64, 104
2, 1209420, Control_c, 0, 64, 127
2, 1209456, Note_on_c, 0, 48, 0
2, 1209464, Note_on_c, 0, 68, 0
2, 1209484, Note_on_c, 0, 60, 0
2, 1209496, Control_c, 0, 64, 104
2, 1209508, Note_on_c, 0, 75, 0
2, 1209508, Note_on_c, 0, 80, 0
2, 1209512, Control_c, 0, 64, 88
2, 1209528, Control_c, 0, 64, 72
2, 1209544, Control_c, 0, 64, 40
2, 1209560, Control_c, 0, 64, 0
2, 1209724, Note_on_c, 0, 82, 89
2, 1209732, Note_on_c, 0, 68, 83
2, 1209732, Note_on_c, 0, 77, 93
2, 1209740, Note_on_c, 0, 62, 81
2, 1209744, Note_on_c, 0, 50, 74
2, 1209760, Control_c, 0, 64, 56
2, 1209776, Control_c, 0, 64, 88
2, 1209792, Control_c, 0, 64, 127
2, 1209812, Note_on_c, 0, 50, 0
2, 1209828, Note_on_c, 0, 68, 0
2, 1209844, Note_on_c, 0, 62, 0
2, 1209856, Note_on_c, 0, 77, 0
2, 1209864, Note_on_c, 0, 82, 0
2, 1209900, Control_c, 0, 64, 104
2, 1209916, Control_c, 0, 64, 56
2, 1209932, Control_c, 0, 64, 0
2, 1210072, Note_on_c, 0, 80, 90
2, 1210072, Note_on_c, 0, 63, 72
2, 1210076, Note_on_c, 0, 68, 90
2, 1210080, Note_on_c, 0, 75, 84
2, 1210080, Note_on_c, 0, 51, 73
2, 1210088, Control_c, 0, 64, 40
2, 1210104, Control_c, 0, 64, 72
2, 1210116, Control_c, 0, 64, 127
2, 1210136, Note_on_c, 0, 63, 0
2, 1210144, Note_on_c, 0, 51, 0
2, 1210184, Note_on_c, 0, 68, 0
2, 1210216, Note_on_c, 0, 75, 0
2, 1210236, Note_on_c, 0, 80, 0
2, 1210320, Control_c, 0, 64, 72
2, 1210336, Control_c, 0, 64, 24
2, 1210348, Control_c, 0, 64, 0
2, 1210408, Note_on_c, 0, 79, 90
2, 1210416, Note_on_c, 0, 67, 83
2, 1210416, Note_on_c, 0, 51, 84
2, 1210420, Note_on_c, 0, 39, 71
2, 1210460, Control_c, 0, 64, 24
2, 1210468, Note_on_c, 0, 39, 0
2, 1210468, Note_on_c, 0, 51, 0
2, 1210468, Note_on_c, 0, 67, 0
2, 1210476, Control_c, 0, 64, 72
2, 1210480, Note_on_c, 0, 79, 0
2, 1210488, Control_c, 0, 64, 104
2, 1210504, Control_c, 0, 64, 127
2, 1210564, Note_on_c, 0, 77, 90
2, 1210572, Note_on_c, 0, 65, 82
2, 1210580, Control_c, 0, 64, 104
2, 1210596, Control_c, 0, 64, 88
2, 1210612, Control_c, 0, 64, 56
2, 1210628, Note_on_c, 0, 65, 0
2, 1210628, Control_c, 0, 64, 0
2, 1210632, Note_on_c, 0, 77, 0
2, 1210744, Note_on_c, 0, 75, 89
2, 1210748, Note_on_c, 0, 63, 77
2, 1210752, Note_on_c, 0, 55, 81
2, 1210756, Control_c, 0, 64, 24
2, 1210760, Note_on_c, 0, 43, 66
2, 1210768, Control_c, 0, 64, 56
2, 1210784, Control_c, 0, 64, 72
2, 1210800, Control_c, 0, 64, 88
2, 1210816, Note_on_c, 0, 55, 0
2, 1210836, Note_on_c, 0, 43, 0
2, 1210836, Note_on_c, 0, 63, 0
2, 1210848, Note_on_c, 0, 75, 0
2, 1210848, Control_c, 0, 64, 56
2, 1210860, Control_c, 0, 64, 24
2, 1210876, Control_c, 0, 64, 0
2, 1211076, Note_on_c, 0, 73, 96
2, 1211076, Note_on_c, 0, 61, 85
2, 1211076, Control_c, 0, 64, 24
2, 1211088, Note_on_c, 0, 68, 72
2, 1211092, Note_on_c, 0, 53, 80
2, 1211092, Control_c, 0, 64, 72
2, 1211100, Note_on_c, 0, 41, 57
2, 1211112, Control_c, 0, 64, 127
2, 1211132, Note_on_c, 0, 53, 0
2, 1211136, Note_on_c, 0, 41, 0
2, 1211152, Note_on_c, 0, 61, 0
2, 1211192, Note_on_c, 0, 68, 0
2, 1211204, Note_on_c, 0, 73, 0
2, 1211232, Control_c, 0, 64, 104
2, 1211248, Control_c, 0, 64, 72
2, 1211264, Control_c, 0, 64, 56
2, 1211280, Control_c, 0, 64, 24
2, 1211296, Control_c, 0, 64, 0
2, 1211432, Note_on_c, 0, 73, 87
2, 1211432, Note_on_c, 0, 34, 69
2, 1211432, Note_on_c, 0, 61, 85
2, 1211432, Note_on_c, 0, 46, 83
2, 1211440, Note_on_c, 0, 68, 70
2, 1211452, Control_c, 0, 64, 24
2, 1211464, Control_c, 0, 64, 72
2, 1211480, Control_c, 0, 64, 104
2, 1211488, Note_on_c, 0, 46, 0
2, 1211488, Note_on_c, 0, 34, 0
2, 1211496, Control_c, 0, 64, 127
2, 1211516, Note_on_c, 0, 61, 0
2, 1211524, Note_on_c, 0, 68, 0
2, 1211576, Control_c, 0, 64, 104
2, 1211580, Note_on_c, 0, 73, 0
2, 1211592, Control_c, 0, 64, 88
2, 1211604, Control_c, 0, 64, 72
2, 1211620, Control_c, 0, 64, 40
2, 1211636, Control_c, 0, 64, 24
2, 1211652, Control_c, 0, 64, 0
2, 1211776, Note_on_c, 0, 75, 91
2, 1211784, Note_on_c, 0, 61, 83
2, 1211788, Note_on_c, 0, 51, 84
2, 1211788, Note_on_c, 0, 39, 67
2, 1211792, Note_on_c, 0, 70, 75
2, 1211824, Control_c, 0, 64, 56
2, 1211836, Control_c, 0, 64, 88
2, 1211852, Note_on_c, 0, 51, 0
2, 1211852, Control_c, 0, 64, 127
2, 1211864, Note_on_c, 0, 39, 0
2, 1211876, Note_on_c, 0, 61, 0
2, 1211912, Note_on_c, 0, 75, 0
2, 1211948, Control_c, 0, 64, 104
2, 1211964, Control_c, 0, 64, 88
2, 1211976, Note_on_c, 0, 70, 0
2, 1211976, Control_c, 0, 64, 72
2, 1211992, Control_c, 0, 64, 56
2, 1212008, Control_c, 0, 64, 40
2, 1212024, Control_c, 0, 64, 0
2, 1212128, Note_on_c, 0, 73, 86
2, 1212132, Note_on_c, 0, 56, 78
2, 1212132, Note_on_c, 0, 61, 81
2, 1212136, Note_on_c, 0, 68, 69
2, 1212136, Note_on_c, 0, 44, 63
2, 1212148, Control_c, 0, 64, 40
2, 1212164, Control_c, 0, 64, 88
2, 1212176, Control_c, 0, 64, 104
2, 1212184, Note_on_c, 0, 56, 0
2, 1212188, Note_on_c, 0, 61, 0
2, 1212200, Note_on_c, 0, 44, 0
2, 1212216, Note_on_c, 0, 68, 0
2, 1212224, Note_on_c, 0, 73, 0
2, 1212292, Note_on_c, 0, 72, 96
2, 1212292, Note_on_c, 0, 60, 88
2, 1212348, Control_c, 0, 64, 88
2, 1212352, Note_on_c, 0, 60, 0
2, 1212364, Note_on_c, 0, 72, 0
2, 1212364, Control_c, 0, 64, 56
2, 1212380, Control_c, 0, 64, 0
2, 1212452, Note_on_c, 0, 70, 85
2, 1212460, Note_on_c, 0, 58, 70
2, 1212460, Note_on_c, 0, 48, 76
2, 1212464, Note_on_c, 0, 63, 75
2, 1212476, Note_on_c, 0, 36, 47
2, 1212488, Control_c, 0, 64, 40
2, 1212492, Note_on_c, 0, 48, 0
2, 1212504, Control_c, 0, 64, 72
2, 1212508, Note_on_c, 0, 36, 0
2, 1212512, Note_on_c, 0, 58, 0
2, 1212524, Note_on_c, 0, 70, 0
2, 1212536, Note_on_c, 0, 63, 0
2, 1212564, Control_c, 0, 64, 40
2, 1212580, Control_c, 0, 64, 0
2, 1212600, Note_on_c, 0, 56, 78
2, 1212604, Note_on_c, 0, 68, 83
2, 1212656, Note_on_c, 0, 56, 0
2, 1212708, Note_on_c, 0, 68, 0
2, 1212780, Note_on_c, 0, 70, 83
2, 1212784, Note_on_c, 0, 39, 68
2, 1212784, Note_on_c, 0, 51, 85
2, 1212784, Note_on_c, 0, 67, 73
2, 1212784, Note_on_c, 0, 58, 69
2, 1212788, Note_on_c, 0, 63, 62
2, 1212812, Control_c, 0, 64, 40
2, 1212828, Control_c, 0, 64, 72
2, 1212836, Note_on_c, 0, 51, 0
2, 1212840, Note_on_c, 0, 39, 0
2, 1212844, Note_on_c, 0, 58, 0
2, 1212844, Control_c, 0, 64, 104
2, 1212856, Note_on_c, 0, 63, 0
2, 1212860, Note_on_c, 0, 67, 0
2, 1212860, Control_c, 0, 64, 127
2, 1212884, Note_on_c, 0, 70, 0
2, 1212936, Control_c, 0, 64, 104
2, 1212952, Control_c, 0, 64, 88
2, 1212984, Control_c, 0, 64, 72
2, 1213016, Control_c, 0, 64, 56
2, 1213032, Control_c, 0, 64, 40
2, 1213048, Control_c, 0, 64, 0
2, 1213124, Note_on_c, 0, 68, 87
2, 1213132, Note_on_c, 0, 56, 82
2, 1213136, Note_on_c, 0, 63, 78
2, 1213144, Note_on_c, 0, 53, 74
2, 1213148, Note_on_c, 0, 41, 70
2, 1213184, Control_c, 0, 64, 40
2, 1213196, Note_on_c, 0, 56, 0
2, 1213200, Note_on_c, 0, 53, 0
2, 1213200, Control_c, 0, 64, 72
2, 1213212, Note_on_c, 0, 41, 0
2, 1213216, Control_c, 0, 64, 104
2, 1213224, Note_on_c, 0, 63, 0
2, 1213232, Control_c, 0, 64, 127
2, 1213240, Note_on_c, 0, 68, 0
2, 1213356, Control_c, 0, 64, 104
2, 1213372, Control_c, 0, 64, 88
2, 1213388, Control_c, 0, 64, 56
2, 1213404, Control_c, 0, 64, 24
2, 1213420, Control_c, 0, 64, 0
2, 1213480, Note_on_c, 0, 56, 87
2, 1213484, Note_on_c, 0, 68, 85
2, 1213488, Note_on_c, 0, 48, 86
2, 1213488, Note_on_c, 0, 36, 70
2, 1213492, Note_on_c, 0, 63, 71
2, 1213528, Control_c, 0, 64, 24
2, 1213536, Note_on_c, 0, 36, 0
2, 1213544, Control_c, 0, 64, 72
2, 1213552, Note_on_c, 0, 48, 0
2, 1213556, Control_c, 0, 64, 127
2, 1213560, Note_on_c, 0, 56, 0
2, 1213568, Note_on_c, 0, 63, 0
2, 1213620, Note_on_c, 0, 68, 0
2, 1213620, Control_c, 0, 64, 104
2, 1213636, Control_c, 0, 64, 88
2, 1213648, Control_c, 0, 64, 56
2, 1213664, Control_c, 0, 64, 40
2, 1213680, Control_c, 0, 64, 0
2, 1213824, Note_on_c, 0, 70, 85
2, 1213832, Note_on_c, 0, 56, 76
2, 1213836, Note_on_c, 0, 65, 82
2, 1213836, Note_on_c, 0, 50, 85
2, 1213844, Note_on_c, 0, 38, 72
2, 1213852, Control_c, 0, 64, 24
2, 1213868, Control_c, 0, 64, 88
2, 1213884, Control_c, 0, 64, 127
2, 1213896, Note_on_c, 0, 38, 0
2, 1213900, Note_on_c, 0, 50, 0
2, 1213908, Note_on_c, 0, 56, 0
2, 1213948, Note_on_c, 0, 70, 0
2, 1213952, Note_on_c, 0, 65, 0
2, 1213992, Control_c, 0, 64, 88
2, 1214008, Control_c, 0, 64, 72
2, 1214020, Control_c, 0, 64, 56
2, 1214036, Control_c, 0, 64, 40
2, 1214052, Control_c, 0, 64, 24
2, 1214072, Control_c, 0, 64, 0
2, 1214176, Note_on_c, 0, 68, 86
2, 1214180, Note_on_c, 0, 56, 85
2, 1214180, Note_on_c, 0, 63, 80
2, 1214184, Note_on_c, 0, 51, 82
2, 1214192, Note_on_c, 0, 39, 65
2, 1214208, Control_c, 0, 64, 40
2, 1214224, Control_c, 0, 64, 88
2, 1214232, Note_on_c, 0, 51, 0
2, 1214240, Control_c, 0, 64, 127
2, 1214248, Note_on_c, 0, 39, 0
2, 1214260, Note_on_c, 0, 56, 0
2, 1214280, Note_on_c, 0, 63, 0
2, 1214324, Note_on_c, 0, 68, 0
2, 1214440, Control_c, 0, 64, 72
2, 1214456, Control_c, 0, 64, 0
2, 1214504, Note_on_c, 0, 67, 84
2, 1214508, Note_on_c, 0, 39, 73
2, 1214508, Note_on_c, 0, 63, 54
2, 1214512, Note_on_c, 0, 55, 82
2, 1214524, Note_on_c, 0, 27, 52
2, 1214548, Note_on_c, 0, 27, 0
2, 1214548, Control_c, 0, 64, 40
2, 1214552, Note_on_c, 0, 55, 0
2, 1214556, Note_on_c, 0, 63, 0
2, 1214560, Note_on_c, 0, 67, 0
2, 1214564, Note_on_c, 0, 39, 0
2, 1214564, Control_c, 0, 64, 104
2, 1214580, Control_c, 0, 64, 127
2, 1214644, Control_c, 0, 64, 104
2, 1214656, Note_on_c, 0, 65, 85
2, 1214656, Control_c, 0, 64, 88
2, 1214660, Note_on_c, 0, 53, 84
2, 1214672, Control_c, 0, 64, 72
2, 1214688, Control_c, 0, 64, 56
2, 1214704, Control_c, 0, 64, 40
2, 1214716, Note_on_c, 0, 53, 0
2, 1214720, Control_c, 0, 64, 24
2, 1214724, Note_on_c, 0, 65, 0
2, 1214736, Control_c, 0, 64, 0
2, 1214824, Note_on_c, 0, 63, 85
2, 1214828, Note_on_c, 0, 51, 84
2, 1214832, Note_on_c, 0, 43, 82
2, 1214840, Note_on_c, 0, 31, 68
2, 1214844, Control_c, 0, 64, 72
2, 1214860, Control_c, 0, 64, 127
2, 1214868, Note_on_c, 0, 31, 0
2, 1214892, Note_on_c, 0, 51, 0
2, 1214896, Note_on_c, 0, 43, 0
2, 1214912, Note_on_c, 0, 63, 0
2, 1214920, Control_c, 0, 64, 104
2, 1214936, Control_c, 0, 64, 88
2, 1214952, Control_c, 0, 64, 56
2, 1214968, Control_c, 0, 64, 24
2, 1214984, Control_c, 0, 64, 0
2, 1215172, Note_on_c, 0, 63, 77
2, 1215172, Note_on_c, 0, 51, 74
2, 1215188, Note_on_c, 0, 54, 60
2, 1215192, Note_on_c, 0, 47, 71
2, 1215200, Note_on_c, 0, 59, 56
2, 1215200, Control_c, 0, 64, 40
2, 1215216, Control_c, 0, 64, 88
2, 1215232, Control_c, 0, 64, 127
2, 1215236, Note_on_c, 0, 59, 0
2, 1215252, Note_on_c, 0, 51, 0
2, 1215264, Note_on_c, 0, 54, 0
2, 1215276, Note_on_c, 0, 47, 0
2, 1215316, Note_on_c, 0, 63, 0
2, 1215532, Note_on_c, 0, 63, 85
2, 1215536, Note_on_c, 0, 35, 81
2, 1215540, Note_on_c, 0, 51, 81
2, 1215544, Note_on_c, 0, 54, 69
2, 1215552, Note_on_c, 0, 59, 70
2, 1215556, Control_c, 0, 64, 104
2, 1215572, Control_c, 0, 64, 24
2, 1215588, Control_c, 0, 64, 0
2, 1215648, Note_on_c, 0, 54, 0
2, 1215648, Note_on_c, 0, 51, 0
2, 1215648, Control_c, 0, 64, 24
2, 1215652, Note_on_c, 0, 59, 0
2, 1215664, Control_c, 0, 64, 72
2, 1215680, Control_c, 0, 64, 127
2, 1215700, Note_on_c, 0, 63, 0
2, 1215704, Note_on_c, 0, 35, 0
2, 1215888, Note_on_c, 0, 63, 88
2, 1215892, Note_on_c, 0, 39, 86
2, 1215892, Note_on_c, 0, 51, 84
2, 1215900, Note_on_c, 0, 54, 72
2, 1215900, Control_c, 0, 64, 88
2, 1215908, Note_on_c, 0, 59, 67
2, 1215916, Control_c, 0, 64, 0
2, 1215992, Control_c, 0, 64, 40
2, 1216008, Control_c, 0, 64, 127
2, 1216012, Note_on_c, 0, 59, 0
2, 1216020, Note_on_c, 0, 51, 0
2, 1216052, Note_on_c, 0, 54, 0
2, 1216060, Note_on_c, 0, 63, 0
2, 1216076, Note_on_c, 0, 39, 0
2, 1216268, Note_on_c, 0, 61, 87
2, 1216272, Note_on_c, 0, 49, 85
2, 1216276, Note_on_c, 0, 58, 73
2, 1216284, Note_on_c, 0, 42, 85
2, 1216288, Control_c, 0, 64, 72
2, 1216300, Control_c, 0, 64, 0
2, 1216440, Control_c, 0, 64, 88
2, 1216456, Control_c, 0, 64, 127
2, 1216548, Control_c, 0, 64, 40
2, 1216564, Control_c, 0, 64, 0
2, 1216640, Control_c, 0, 64, 24
2, 1216656, Note_on_c, 0, 30, 82
2, 1216656, Control_c, 0, 64, 104
2, 1216672, Control_c, 0, 64, 127
2, 1216740, Note_on_c, 0, 49, 0
2, 1216744, Note_on_c, 0, 30, 0
2, 1216768, Note_on_c, 0, 61, 0
2, 1216784, Note_on_c, 0, 42, 0
2, 1216792, Note_on_c, 0, 58, 0
2, 1217044, Control_c, 0, 64, 56
2, 1217056, Note_on_c, 0, 63, 90
2, 1217060, Note_on_c, 0, 51, 93
2, 1217060, Control_c, 0, 64, 0
2, 1217068, Note_on_c, 0, 58, 68
2, 1217080, Note_on_c, 0, 61, 65
2, 1217084, Note_on_c, 0, 43, 97
2, 1217084, Note_on_c, 0, 31, 83
2, 1217128, Note_on_c, 0, 51, 0
2, 1217136, Control_c, 0, 64, 56
2, 1217152, Note_on_c, 0, 43, 0
2, 1217152, Note_on_c, 0, 31, 0
2, 1217152, Control_c, 0, 64, 127
2, 1217164, Note_on_c, 0, 61, 0
2, 1217168, Note_on_c, 0, 58, 0
2, 1217200, Note_on_c, 0, 63, 0
2, 1217368, Control_c, 0, 64, 88
2, 1217384, Control_c, 0, 64, 24
2, 1217400, Control_c, 0, 64, 0
2, 1217464, Note_on_c, 0, 80, 96
2, 1217468, Note_on_c, 0, 68, 80
2, 1217472, Note_on_c, 0, 72, 96
2, 1217488, Note_on_c, 0, 44, 79
2, 1217488, Note_on_c, 0, 32, 64
2, 1217508, Control_c, 0, 64, 72
2, 1217520, Note_on_c, 0, 32, 0
2, 1217520, Note_on_c, 0, 68, 0
2, 1217524, Note_on_c, 0, 72, 0
2, 1217524, Control_c, 0, 64, 127
2, 1217536, Note_on_c, 0, 44, 0
2, 1217572, Note_on_c, 0, 80, 0
2, 1217800, Note_on_c, 0, 84, 92
2, 1217800, Note_on_c, 0, 75, 84
2, 1217808, Note_on_c, 0, 72, 80
2, 1217824, Note_on_c, 0, 63, 73
2, 1217836, Note_on_c, 0, 51, 61
2, 1217836, Control_c, 0, 64, 104
2, 1217840, Note_on_c, 0, 72, 0
2, 1217852, Control_c, 0, 64, 72
2, 1217864, Note_on_c, 0, 84, 0
2, 1217864, Note_on_c, 0, 75, 0
2, 1217864, Control_c, 0, 64, 40
2, 1217880, Note_on_c, 0, 63, 0
2, 1217880, Control_c, 0, 64, 24
2, 1217888, Note_on_c, 0, 51, 0
2, 1217896, Control_c, 0, 64, 0
2, 1217960, Note_on_c, 0, 83, 90
2, 1217964, Note_on_c, 0, 71, 74
2, 1217984, Note_on_c, 0, 74, 70
2, 1217984, Note_on_c, 0, 62, 71
2, 1217992, Note_on_c, 0, 51, 64
2, 1218008, Note_on_c, 0, 74, 0
2, 1218008, Note_on_c, 0, 71, 0
2, 1218024, Note_on_c, 0, 62, 0
2, 1218036, Note_on_c, 0, 83, 0
2, 1218044, Note_on_c, 0, 51, 0
2, 1218120, Note_on_c, 0, 84, 93
2, 1218124, Note_on_c, 0, 75, 90
2, 1218128, Note_on_c, 0, 72, 84
2, 1218132, Note_on_c, 0, 51, 60
2, 1218132, Note_on_c, 0, 63, 75
2, 1218176, Note_on_c, 0, 51, 0
2, 1218188, Note_on_c, 0, 72, 0
2, 1218188, Note_on_c, 0, 63, 0
2, 1218240, Note_on_c, 0, 75, 0
2, 1218248, Note_on_c, 0, 84, 0
2, 1218464, Note_on_c, 0, 85, 92
2, 1218472, Note_on_c, 0, 73, 91
2, 1218472, Note_on_c, 0, 77, 97
2, 1218480, Note_on_c, 0, 56, 72
2, 1218480, Note_on_c, 0, 65, 85
2, 1218484, Note_on_c, 0, 61, 77
2, 1218516, Control_c, 0, 64, 88
2, 1218532, Control_c, 0, 64, 127
2, 1218564, Note_on_c, 0, 77, 0
2, 1218592, Note_on_c, 0, 65, 0
2, 1218592, Note_on_c, 0, 73, 0
2, 1218644, Note_on_c, 0, 85, 0
2, 1218644, Note_on_c, 0, 56, 0
2, 1218660, Note_on_c, 0, 61, 0
2, 1218784, Note_on_c, 0, 84, 83
2, 1218788, Note_on_c, 0, 72, 73
2, 1218792, Note_on_c, 0, 75, 75
2, 1218808, Note_on_c, 0, 56, 57
2, 1218812, Note_on_c, 0, 60, 70
2, 1218816, Note_on_c, 0, 63, 57
2, 1218820, Control_c, 0, 64, 104
2, 1218824, Note_on_c, 0, 72, 0
2, 1218840, Note_on_c, 0, 84, 0
2, 1218844, Note_on_c, 0, 63, 0
2, 1218844, Control_c, 0, 64, 72
2, 1218852, Note_on_c, 0, 75, 0
2, 1218852, Note_on_c, 0, 60, 0
2, 1218856, Control_c, 0, 64, 56
2, 1218872, Note_on_c, 0, 56, 0
2, 1218872, Control_c, 0, 64, 40
2, 1218888, Control_c, 0, 64, 24
2, 1218904, Control_c, 0, 64, 0
2, 1218932, Note_on_c, 0, 82, 84
2, 1218944, Note_on_c, 0, 70, 73
2, 1218944, Note_on_c, 0, 73, 75
2, 1218948, Note_on_c, 0, 61, 67
2, 1218948, Note_on_c, 0, 56, 35
2, 1218964, Note_on_c, 0, 58, 43
2, 1218984, Note_on_c, 0, 70, 0
2, 1219000, Note_on_c, 0, 73, 0
2, 1219020, Note_on_c, 0, 61, 0
2, 1219024, Note_on_c, 0, 82, 0
2, 1219024, Note_on_c, 0, 56, 0
2, 1219032, Note_on_c, 0, 58, 0
2, 1219108, Note_on_c, 0, 80, 83
2, 1219116, Note_on_c, 0, 68, 65
2, 1219120, Note_on_c, 0, 60, 77
2, 1219120, Note_on_c, 0, 72, 79
2, 1219124, Note_on_c, 0, 56, 46
2, 1219148, Note_on_c, 0, 72, 0
2, 1219164, Note_on_c, 0, 60, 0
2, 1219192, Note_on_c, 0, 56, 0
2, 1219192, Note_on_c, 0, 68, 0
2, 1219244, Note_on_c, 0, 80, 0
2, 1219440, Note_on_c, 0, 80, 88
2, 1219452, Note_on_c, 0, 51, 106
2, 1219452, Note_on_c, 0, 68, 78
2, 1219456, Note_on_c, 0, 39, 90
2, 1219456, Note_on_c, 0, 72, 88
2, 1219492, Control_c, 0, 64, 72
2, 1219496, Note_on_c, 0, 39, 0
2, 1219500, Note_on_c, 0, 51, 0
2, 1219508, Control_c, 0, 64, 127
2, 1219524, Note_on_c, 0, 72, 0
2, 1219528, Note_on_c, 0, 68, 0
2, 1219604, Note_on_c, 0, 80, 0
2, 1219780, Note_on_c, 0, 79, 83
2, 1219780, Note_on_c, 0, 70, 72
2, 1219788, Note_on_c, 0, 67, 60
2, 1219800, Note_on_c, 0, 51, 69
2, 1219804, Note_on_c, 0, 63, 63
2, 1219804, Control_c, 0, 64, 88
2, 1219820, Note_on_c, 0, 67, 0
2, 1219820, Control_c, 0, 64, 56
2, 1219828, Note_on_c, 0, 51, 0
2, 1219832, Note_on_c, 0, 63, 0
2, 1219832, Note_on_c, 0, 70, 0
2, 1219836, Note_on_c, 0, 79, 0
2, 1219836, Control_c, 0, 64, 24
2, 1219848, Control_c, 0, 64, 0
2, 1219932, Note_on_c, 0, 77, 87
2, 1219936, Note_on_c, 0, 65, 74
2, 1219936, Note_on_c, 0, 68, 73
2, 1219944, Note_on_c, 0, 51, 71
2, 1219944, Note_on_c, 0, 63, 69
2, 1219976, Note_on_c, 0, 65, 0
2, 1219992, Note_on_c, 0, 77, 0
2, 1219992, Note_on_c, 0, 63, 0
2, 1219996, Note_on_c, 0, 51, 0
2, 1220012, Note_on_c, 0, 68, 0
2, 1220100, Note_on_c, 0, 63, 82
2, 1220104, Note_on_c, 0, 51, 74
2, 1220104, Note_on_c, 0, 75, 80
2, 1220108, Note_on_c, 0, 67, 74
2, 1220164, Note_on_c, 0, 63, 0
2, 1220192, Note_on_c, 0, 51, 0
2, 1220196, Note_on_c, 0, 67, 0
2, 1220276, Note_on_c, 0, 75, 0
2, 1220436, Note_on_c, 0, 75, 95
2, 1220436, Note_on_c, 0, 63, 95
2, 1220444, Note_on_c, 0, 67, 87
2, 1220456, Note_on_c, 0, 51, 81
2, 1220500, Note_on_c, 0, 67, 0
2, 1220500, Control_c, 0, 64, 72
2, 1220512, Note_on_c, 0, 63, 0
2, 1220516, Control_c, 0, 64, 127
2, 1220532, Note_on_c, 0, 51, 0
2, 1220548, Note_on_c, 0, 75, 0
2, 1220764, Control_c, 0, 64, 104
2, 1220780, Note_on_c, 0, 77, 90
2, 1220780, Note_on_c, 0, 65, 78
2, 1220780, Note_on_c, 0, 68, 77
2, 1220780, Control_c, 0, 64, 88
2, 1220792, Note_on_c, 0, 51, 67
2, 1220792, Note_on_c, 0, 62, 68
2, 1220792, Control_c, 0, 64, 72
2, 1220808, Control_c, 0, 64, 40
2, 1220820, Note_on_c, 0, 65, 0
2, 1220824, Control_c, 0, 64, 24
2, 1220828, Note_on_c, 0, 62, 0
2, 1220828, Note_on_c, 0, 68, 0
2, 1220832, Note_on_c, 0, 77, 0
2, 1220840, Control_c, 0, 64, 0
2, 1220848, Note_on_c, 0, 51, 0
2, 1220932, Note_on_c, 0, 79, 93
2, 1220932, Note_on_c, 0, 67, 86
2, 1220932, Note_on_c, 0, 70, 82
2, 1220940, Note_on_c, 0, 61, 73
2, 1220952, Note_on_c, 0, 51, 60
2, 1220980, Note_on_c, 0, 51, 0
2, 1220980, Note_on_c, 0, 79, 0
2, 1220984, Note_on_c, 0, 67, 0
2, 1220984, Note_on_c, 0, 70, 0
2, 1220988, Note_on_c, 0, 61, 0
2, 1221084, Note_on_c, 0, 80, 89
2, 1221084, Note_on_c, 0, 68, 80
2, 1221088, Note_on_c, 0, 60, 79
2, 1221092, Note_on_c, 0, 72, 71
2, 1221096, Note_on_c, 0, 51, 73
2, 1221120, Note_on_c, 0, 60, 0
2, 1221132, Note_on_c, 0, 72, 0
2, 1221132, Note_on_c, 0, 68, 0
2, 1221148, Note_on_c, 0, 51, 0
2, 1221156, Note_on_c, 0, 80, 0
2, 1221240, Note_on_c, 0, 58, 78
2, 1221240, Note_on_c, 0, 82, 92
2, 1221244, Note_on_c, 0, 70, 92
2, 1221244, Note_on_c, 0, 49, 76
2, 1221248, Note_on_c, 0, 73, 84
2, 1221272, Note_on_c, 0, 49, 0
2, 1221288, Note_on_c, 0, 58, 0
2, 1221296, Note_on_c, 0, 70, 0
2, 1221316, Note_on_c, 0, 73, 0
2, 1221324, Note_on_c, 0, 82, 0
2, 1221444, Note_on_c, 0, 68, 87
2, 1221448, Note_on_c, 0, 72, 100
2, 1221448, Note_on_c, 0, 80, 96
2, 1221460, Note_on_c, 0, 32, 85
2, 1221460, Note_on_c, 0, 44, 92
2, 1221484, Note_on_c, 0, 32, 0
2, 1221492, Note_on_c, 0, 44, 0
2, 1221504, Note_on_c, 0, 68, 0
2, 1221508, Note_on_c, 0, 72, 0
2, 1221508, Control_c, 0, 64, 88
2, 1221524, Control_c, 0, 64, 127
2, 1221540, Note_on_c, 0, 80, 0
2, 1221776, Note_on_c, 0, 75, 80
2, 1221776, Note_on_c, 0, 84, 86
2, 1221788, Note_on_c, 0, 51, 75
2, 1221792, Note_on_c, 0, 63, 77
2, 1221792, Note_on_c, 0, 72, 65
2, 1221816, Note_on_c, 0, 72, 0
2, 1221832, Note_on_c, 0, 84, 0
2, 1221844, Note_on_c, 0, 75, 0
2, 1221844, Note_on_c, 0, 63, 0
2, 1221848, Control_c, 0, 64, 88
2, 1221852, Note_on_c, 0, 51, 0
2, 1221864, Control_c, 0, 64, 72
2, 1221880, Control_c, 0, 64, 40
2, 1221896, Control_c, 0, 64, 24
2, 1221908, Control_c, 0, 64, 0
2, 1221936, Note_on_c, 0, 71, 74
2, 1221940, Note_on_c, 0, 83, 84
2, 1221940, Note_on_c, 0, 62, 73
2, 1221940, Note_on_c, 0, 74, 75
2, 1221940, Note_on_c, 0, 51, 84
2, 1221976, Note_on_c, 0, 71, 0
2, 1221980, Note_on_c, 0, 74, 0
2, 1221980, Note_on_c, 0, 62, 0
2, 1221988, Note_on_c, 0, 83, 0
2, 1221996, Note_on_c, 0, 51, 0
2, 1222108, Note_on_c, 0, 72, 92
2, 1222112, Note_on_c, 0, 84, 94
2, 1222112, Note_on_c, 0, 75, 81
2, 1222116, Note_on_c, 0, 63, 83
2, 1222128, Note_on_c, 0, 51, 68
2, 1222156, Note_on_c, 0, 51, 0
2, 1222168, Note_on_c, 0, 72, 0
2, 1222172, Note_on_c, 0, 63, 0
2, 1222196, Note_on_c, 0, 75, 0
2, 1222216, Note_on_c, 0, 84, 0
2, 1222448, Note_on_c, 0, 85, 97
2, 1222456, Note_on_c, 0, 73, 91
2, 1222460, Note_on_c, 0, 77, 99
2, 1222468, Note_on_c, 0, 56, 73
2, 1222476, Note_on_c, 0, 65, 85
2, 1222476, Note_on_c, 0, 61, 77
2, 1222528, Control_c, 0, 64, 56
2, 1222540, Control_c, 0, 64, 127
2, 1222568, Note_on_c, 0, 77, 0
2, 1222572, Note_on_c, 0, 65, 0
2, 1222600, Note_on_c, 0, 73, 0
2, 1222628, Note_on_c, 0, 61, 0
2, 1222636, Note_on_c, 0, 56, 0
2, 1222648, Note_on_c, 0, 85, 0
2, 1222784, Note_on_c, 0, 72, 73
2, 1222784, Note_on_c, 0, 84, 89
2, 1222796, Note_on_c, 0, 60, 68
2, 1222800, Note_on_c, 0, 56, 62
2, 1222808, Control_c, 0, 64, 104
2, 1222812, Note_on_c, 0, 63, 69
2, 1222820, Note_on_c, 0, 75, 69
2, 1222820, Control_c, 0, 64, 88
2, 1222828, Note_on_c, 0, 72, 0
2, 1222836, Note_on_c, 0, 84, 0
2, 1222836, Control_c, 0, 64, 72
2, 1222840, Note_on_c, 0, 63, 0
2, 1222840, Note_on_c, 0, 56, 0
2, 1222840, Note_on_c, 0, 60, 0
2, 1222848, Note_on_c, 0, 75, 0
2, 1222852, Control_c, 0, 64, 40
2, 1222868, Control_c, 0, 64, 24
2, 1222884, Control_c, 0, 64, 0
2, 1222940, Note_on_c, 0, 73, 75
2, 1222940, Note_on_c, 0, 58, 57
2, 1222940, Note_on_c, 0, 70, 78
2, 1222940, Note_on_c, 0, 56, 43
2, 1222940, Note_on_c, 0, 61, 65
2, 1222940, Note_on_c, 0, 82, 86
2, 1222984, Note_on_c, 0, 70, 0
2, 1222996, Note_on_c, 0, 73, 0
2, 1222996, Note_on_c, 0, 58, 0
2, 1223012, Note_on_c, 0, 61, 0
2, 1223020, Note_on_c, 0, 82, 0
2, 1223024, Note_on_c, 0, 56, 0
2, 1223100, Note_on_c, 0, 60, 76
2, 1223100, Note_on_c, 0, 56, 58
2, 1223100, Note_on_c, 0, 68, 77
2, 1223100, Note_on_c, 0, 80, 87
2, 1223108, Note_on_c, 0, 72, 70
2, 1223164, Note_on_c, 0, 60, 0
2, 1223176, Note_on_c, 0, 56, 0
2, 1223180, Note_on_c, 0, 72, 0
2, 1223188, Note_on_c, 0, 68, 0
2, 1223220, Note_on_c, 0, 80, 0
2, 1223444, Note_on_c, 0, 80, 91
2, 1223448, Note_on_c, 0, 68, 85
2, 1223448, Note_on_c, 0, 36, 86
2, 1223448, Note_on_c, 0, 72, 94
2, 1223452, Note_on_c, 0, 48, 95
2, 1223472, Control_c, 0, 64, 40
2, 1223488, Note_on_c, 0, 36, 0
2, 1223488, Control_c, 0, 64, 88
2, 1223504, Control_c, 0, 64, 127
2, 1223512, Note_on_c, 0, 48, 0
2, 1223536, Note_on_c, 0, 72, 0
2, 1223556, Note_on_c, 0, 68, 0
2, 1223596, Note_on_c, 0, 80, 0
2, 1223752, Control_c, 0, 64, 104
2, 1223768, Note_on_c, 0, 79, 81
2, 1223768, Control_c, 0, 64, 88
2, 1223772, Note_on_c, 0, 70, 68
2, 1223776, Note_on_c, 0, 67, 64
2, 1223780, Control_c, 0, 64, 72
2, 1223792, Note_on_c, 0, 48, 74
2, 1223792, Note_on_c, 0, 60, 74
2, 1223796, Control_c, 0, 64, 56
2, 1223812, Control_c, 0, 64, 40
2, 1223820, Note_on_c, 0, 48, 0
2, 1223820, Note_on_c, 0, 67, 0
2, 1223828, Note_on_c, 0, 79, 0
2, 1223828, Note_on_c, 0, 70, 0
2, 1223828, Note_on_c, 0, 60, 0
2, 1223828, Control_c, 0, 64, 24
2, 1223844, Control_c, 0, 64, 0
2, 1223920, Note_on_c, 0, 77, 90
2, 1223924, Note_on_c, 0, 68, 73
2, 1223924, Note_on_c, 0, 65, 79
2, 1223944, Note_on_c, 0, 60, 74
2, 1223948, Note_on_c, 0, 48, 60
2, 1223972, Note_on_c, 0, 60, 0
2, 1223972, Note_on_c, 0, 65, 0
2, 1223976, Note_on_c, 0, 77, 0
2, 1223976, Note_on_c, 0, 68, 0
2, 1223980, Note_on_c, 0, 48, 0
2, 1224088, Note_on_c, 0, 76, 93
2, 1224092, Note_on_c, 0, 64, 83
2, 1224100, Note_on_c, 0, 60, 78
2, 1224104, Note_on_c, 0, 48, 49
2, 1224124, Note_on_c, 0, 64, 0
2, 1224132, Note_on_c, 0, 60, 0
2, 1224140, Note_on_c, 0, 76, 0
2, 1224144, Note_on_c, 0, 48, 0
2, 1224248, Note_on_c, 0, 70, 89
2, 1224248, Note_on_c, 0, 79, 93
2, 1224248, Note_on_c, 0, 67, 85
2, 1224248, Note_on_c, 0, 60, 81
2, 1224248, Note_on_c, 0, 48, 66
2, 1224288, Note_on_c, 0, 48, 0
2, 1224288, Note_on_c, 0, 60, 0
2, 1224292, Note_on_c, 0, 67, 0
2, 1224292, Note_on_c, 0, 70, 0
2, 1224300, Note_on_c, 0, 79, 0
2, 1224440, Note_on_c, 0, 65, 92
2, 1224440, Note_on_c, 0, 77, 100
2, 1224440, Note_on_c, 0, 68, 88
2, 1224448, Note_on_c, 0, 53, 80
2, 1224452, Note_on_c, 0, 41, 75
2, 1224464, Control_c, 0, 64, 24
2, 1224480, Note_on_c, 0, 41, 0
2, 1224480, Control_c, 0, 64, 88
2, 1224492, Control_c, 0, 64, 127
2, 1224508, Note_on_c, 0, 53, 0
2, 1224692, Note_on_c, 0, 65, 0
2, 1224724, Note_on_c, 0, 68, 0
2, 1224744, Note_on_c, 0, 77, 0
2, 1224756, Note_on_c, 0, 60, 81
2, 1224768, Note_on_c, 0, 48, 72
2, 1224788, Control_c, 0, 64, 104
2, 1224804, Control_c, 0, 64, 88
2, 1224816, Note_on_c, 0, 60, 0
2, 1224820, Note_on_c, 0, 48, 0
2, 1224820, Control_c, 0, 64, 56
2, 1224836, Control_c, 0, 64, 40
2, 1224852, Control_c, 0, 64, 24
2, 1224864, Control_c, 0, 64, 0
2, 1224920, Note_on_c, 0, 59, 76
2, 1224928, Note_on_c, 0, 47, 64
2, 1224960, Note_on_c, 0, 47, 0
2, 1224976, Note_on_c, 0, 59, 0
2, 1225088, Note_on_c, 0, 80, 91
2, 1225096, Note_on_c, 0, 68, 80
2, 1225100, Note_on_c, 0, 72, 89
2, 1225108, Note_on_c, 0, 60, 81
2, 1225112, Note_on_c, 0, 48, 77
2, 1225148, Note_on_c, 0, 48, 0
2, 1225164, Note_on_c, 0, 68, 0
2, 1225168, Note_on_c, 0, 72, 0
2, 1225176, Note_on_c, 0, 60, 0
2, 1225236, Note_on_c, 0, 80, 0
2, 1225432, Note_on_c, 0, 80, 92
2, 1225432, Note_on_c, 0, 68, 89
2, 1225440, Note_on_c, 0, 75, 83
2, 1225444, Note_on_c, 0, 65, 82
2, 1225452, Note_on_c, 0, 53, 77
2, 1225456, Control_c, 0, 64, 24
2, 1225472, Control_c, 0, 64, 56
2, 1225484, Control_c, 0, 64, 88
2, 1225500, Note_on_c, 0, 65, 0
2, 1225504, Note_on_c, 0, 68, 0
2, 1225512, Note_on_c, 0, 75, 0
2, 1225516, Note_on_c, 0, 53, 0
2, 1225536, Note_on_c, 0, 80, 0
2, 1225548, Control_c, 0, 64, 24
2, 1225564, Control_c, 0, 64, 0
2, 1225788, Note_on_c, 0, 80, 90
2, 1225788, Note_on_c, 0, 60, 87
2, 1225788, Note_on_c, 0, 68, 86
2, 1225788, Note_on_c, 0, 75, 85
2, 1225796, Note_on_c, 0, 48, 82
2, 1225796, Control_c, 0, 64, 24
2, 1225812, Control_c, 0, 64, 72
2, 1225828, Control_c, 0, 64, 104
2, 1225836, Note_on_c, 0, 48, 0
2, 1225844, Note_on_c, 0, 60, 0
2, 1225844, Control_c, 0, 64, 127
2, 1225852, Note_on_c, 0, 68, 0
2, 1225880, Note_on_c, 0, 75, 0
2, 1225888, Control_c, 0, 64, 88
2, 1225892, Note_on_c, 0, 80, 0
2, 1225904, Control_c, 0, 64, 56
2, 1225920, Control_c, 0, 64, 0
2, 1226120, Note_on_c, 0, 82, 85
2, 1226124, Note_on_c, 0, 68, 82
2, 1226128, Note_on_c, 0, 77, 89
2, 1226144, Note_on_c, 0, 50, 77
2, 1226144, Note_on_c, 0, 62, 82
2, 1226168, Control_c, 0, 64, 40
2, 1226184, Control_c, 0, 64, 72
2, 1226196, Note_on_c, 0, 50, 0
2, 1226200, Control_c, 0, 64, 88
2, 1226204, Note_on_c, 0, 62, 0
2, 1226208, Note_on_c, 0, 68, 0
2, 1226236, Note_on_c, 0, 77, 0
2, 1226236, Note_on_c, 0, 82, 0
2, 1226276, Control_c, 0, 64, 56
2, 1226292, Control_c, 0, 64, 24
2, 1226308, Control_c, 0, 64, 0
2, 1226480, Note_on_c, 0, 80, 90
2, 1226484, Note_on_c, 0, 63, 77
2, 1226484, Note_on_c, 0, 75, 81
2, 1226488, Note_on_c, 0, 68, 87
2, 1226492, Note_on_c, 0, 51, 73
2, 1226536, Note_on_c, 0, 63, 0
2, 1226540, Control_c, 0, 64, 24
2, 1226556, Note_on_c, 0, 51, 0
2, 1226556, Control_c, 0, 64, 56
2, 1226572, Control_c, 0, 64, 72
2, 1226584, Control_c, 0, 64, 88
2, 1226588, Note_on_c, 0, 75, 0
2, 1226620, Note_on_c, 0, 68, 0
2, 1226648, Control_c, 0, 64, 104
2, 1226664, Note_on_c, 0, 80, 0
2, 1226756, Control_c, 0, 64, 72
2, 1226772, Control_c, 0, 64, 56
2, 1226788, Control_c, 0, 64, 40
2, 1226804, Note_on_c, 0, 79, 85
2, 1226808, Note_on_c, 0, 51, 85
2, 1226808, Note_on_c, 0, 67, 77
2, 1226812, Note_on_c, 0, 39, 62
2, 1226840, Note_on_c, 0, 39, 0
2, 1226864, Note_on_c, 0, 79, 0
2, 1226864, Note_on_c, 0, 51, 0
2, 1226864, Note_on_c, 0, 67, 0
2, 1226864, Control_c, 0, 64, 24
2, 1226880, Control_c, 0, 64, 0
2, 1226968, Note_on_c, 0, 77, 90
2, 1226968, Note_on_c, 0, 65, 82
2, 1227020, Note_on_c, 0, 65, 0
2, 1227020, Note_on_c, 0, 77, 0
2, 1227132, Note_on_c, 0, 75, 88
2, 1227132, Note_on_c, 0, 55, 84
2, 1227140, Note_on_c, 0, 43, 71
2, 1227140, Control_c, 0, 64, 40
2, 1227144, Note_on_c, 0, 63, 76
2, 1227156, Control_c, 0, 64, 56
2, 1227172, Control_c, 0, 64, 72
2, 1227188, Note_on_c, 0, 55, 0
2, 1227200, Note_on_c, 0, 63, 0
2, 1227200, Note_on_c, 0, 43, 0
2, 1227212, Note_on_c, 0, 75, 0
2, 1227232, Control_c, 0, 64, 40
2, 1227248, Control_c, 0, 64, 0
2, 1227480, Note_on_c, 0, 73, 91
2, 1227484, Note_on_c, 0, 53, 72
2, 1227484, Note_on_c, 0, 61, 86
2, 1227492, Note_on_c, 0, 68, 69
2, 1227496, Note_on_c, 0, 41, 58
2, 1227496, Control_c, 0, 64, 40
2, 1227512, Note_on_c, 0, 53, 0
2, 1227512, Control_c, 0, 64, 72
2, 1227524, Note_on_c, 0, 68, 0
2, 1227524, Control_c, 0, 64, 88
2, 1227532, Note_on_c, 0, 41, 0
2, 1227544, Note_on_c, 0, 61, 0
2, 1227596, Note_on_c, 0, 73, 0
2, 1227652, Control_c, 0, 64, 72
2, 1227668, Control_c, 0, 64, 56
2, 1227684, Control_c, 0, 64, 40
2, 1227700, Control_c, 0, 64, 24
2, 1227712, Control_c, 0, 64, 0
2, 1227824, Note_on_c, 0, 34, 74
2, 1227828, Note_on_c, 0, 61, 87
2, 1227828, Note_on_c, 0, 73, 91
2, 1227828, Note_on_c, 0, 46, 84
2, 1227832, Note_on_c, 0, 68, 81
2, 1227852, Control_c, 0, 64, 24
2, 1227868, Control_c, 0, 64, 72
2, 1227884, Note_on_c, 0, 46, 0
2, 1227884, Note_on_c, 0, 34, 0
2, 1227884, Control_c, 0, 64, 88
2, 1227888, Note_on_c, 0, 61, 0
2, 1227900, Control_c, 0, 64, 104
2, 1227928, Note_on_c, 0, 68, 0
2, 1227956, Note_on_c, 0, 73, 0
2, 1227960, Control_c, 0, 64, 88
2, 1227992, Control_c, 0, 64, 72
2, 1228008, Control_c, 0, 64, 56
2, 1228024, Control_c, 0, 64, 24
2, 1228040, Control_c, 0, 64, 0
2, 1228172, Note_on_c, 0, 75, 88
2, 1228176, Note_on_c, 0, 61, 85
2, 1228180, Note_on_c, 0, 70, 77
2, 1228180, Note_on_c, 0, 39, 67
2, 1228184, Note_on_c, 0, 51, 89
2, 1228192, Control_c, 0, 64, 24
2, 1228208, Control_c, 0, 64, 72
2, 1228224, Control_c, 0, 64, 88
2, 1228232, Note_on_c, 0, 51, 0
2, 1228240, Control_c, 0, 64, 104
2, 1228244, Note_on_c, 0, 39, 0
2, 1228256, Note_on_c, 0, 61, 0
2, 1228288, Note_on_c, 0, 75, 0
2, 1228320, Note_on_c, 0, 70, 0
2, 1228320, Control_c, 0, 64, 88
2, 1228364, Control_c, 0, 64, 72
2, 1228380, Control_c, 0, 64, 56
2, 1228396, Control_c, 0, 64, 0
2, 1228504, Note_on_c, 0, 61, 83
2, 1228504, Note_on_c, 0, 73, 84
2, 1228504, Note_on_c, 0, 56, 80
2, 1228504, Note_on_c, 0, 68, 69
2, 1228512, Note_on_c, 0, 44, 65
2, 1228520, Control_c, 0, 64, 24
2, 1228532, Control_c, 0, 64, 72
2, 1228548, Control_c, 0, 64, 88
2, 1228556, Note_on_c, 0, 56, 0
2, 1228560, Note_on_c, 0, 44, 0
2, 1228564, Control_c, 0, 64, 104
2, 1228568, Note_on_c, 0, 61, 0
2, 1228576, Note_on_c, 0, 73, 0
2, 1228584, Note_on_c, 0, 68, 0
2, 1228660, Note_on_c, 0, 72, 92
2, 1228660, Control_c, 0, 64, 88
2, 1228664, Note_on_c, 0, 60, 89
2, 1228676, Control_c, 0, 64, 72
2, 1228692, Control_c, 0, 64, 56
2, 1228704, Control_c, 0, 64, 24
2, 1228708, Note_on_c, 0, 72, 0
2, 1228716, Note_on_c, 0, 60, 0
2, 1228720, Control_c, 0, 64, 0
2, 1228812, Control_c, 0, 64, 24
2, 1228824, Note_on_c, 0, 70, 85
2, 1228824, Note_on_c, 0, 58, 80
2, 1228828, Note_on_c, 0, 48, 82
2, 1228828, Note_on_c, 0, 63, 77
2, 1228832, Control_c, 0, 64, 72
2, 1228836, Note_on_c, 0, 36, 61
2, 1228844, Control_c, 0, 64, 104
2, 1228856, Note_on_c, 0, 48, 0
2, 1228864, Note_on_c, 0, 36, 0
2, 1228872, Note_on_c, 0, 58, 0
2, 1228888, Note_on_c, 0, 70, 0
2, 1228900, Note_on_c, 0, 63, 0
2, 1228920, Control_c, 0, 64, 56
2, 1228936, Control_c, 0, 64, 40
2, 1228952, Control_c, 0, 64, 0
2, 1228972, Note_on_c, 0, 56, 87
2, 1228972, Note_on_c, 0, 68, 85
2, 1229044, Note_on_c, 0, 56, 0
2, 1229080, Note_on_c, 0, 68, 0
2, 1229140, Note_on_c, 0, 70, 87
2, 1229140, Note_on_c, 0, 58, 77
2, 1229140, Note_on_c, 0, 39, 67
2, 1229144, Note_on_c, 0, 51, 88
2, 1229144, Note_on_c, 0, 63, 69
2, 1229144, Note_on_c, 0, 67, 76
2, 1229156, Control_c, 0, 64, 40
2, 1229172, Control_c, 0, 64, 88
2, 1229184, Control_c, 0, 64, 127
2, 1229204, Note_on_c, 0, 51, 0
2, 1229208, Note_on_c, 0, 39, 0
2, 1229216, Note_on_c, 0, 63, 0
2, 1229216, Note_on_c, 0, 58, 0
2, 1229232, Note_on_c, 0, 67, 0
2, 1229264, Control_c, 0, 64, 104
2, 1229268, Note_on_c, 0, 70, 0
2, 1229276, Control_c, 0, 64, 88
2, 1229308, Control_c, 0, 64, 72
2, 1229324, Control_c, 0, 64, 56
2, 1229340, Control_c, 0, 64, 24
2, 1229356, Control_c, 0, 64, 0
2, 1229480, Note_on_c, 0, 68, 88
2, 1229484, Note_on_c, 0, 56, 86
2, 1229488, Note_on_c, 0, 53, 84
2, 1229488, Note_on_c, 0, 63, 78
2, 1229496, Note_on_c, 0, 41, 72
2, 1229512, Control_c, 0, 64, 40
2, 1229528, Control_c, 0, 64, 88
2, 1229540, Note_on_c, 0, 53, 0
2, 1229544, Note_on_c, 0, 41, 0
2, 1229544, Control_c, 0, 64, 127
2, 1229548, Note_on_c, 0, 56, 0
2, 1229556, Note_on_c, 0, 63, 0
2, 1229600, Note_on_c, 0, 68, 0
2, 1229632, Control_c, 0, 64, 104
2, 1229648, Control_c, 0, 64, 88
2, 1229664, Control_c, 0, 64, 72
2, 1229680, Control_c, 0, 64, 56
2, 1229700, Control_c, 0, 64, 24
2, 1229712, Control_c, 0, 64, 0
2, 1229832, Note_on_c, 0, 68, 86
2, 1229832, Note_on_c, 0, 56, 87
2, 1229836, Note_on_c, 0, 63, 77
2, 1229840, Note_on_c, 0, 48, 88
2, 1229844, Note_on_c, 0, 36, 74
2, 1229868, Control_c, 0, 64, 56
2, 1229872, Note_on_c, 0, 36, 0
2, 1229880, Note_on_c, 0, 48, 0
2, 1229884, Control_c, 0, 64, 88
2, 1229892, Note_on_c, 0, 56, 0
2, 1229900, Control_c, 0, 64, 127
2, 1229904, Note_on_c, 0, 63, 0
2, 1229940, Note_on_c, 0, 68, 0
2, 1230036, Control_c, 0, 64, 104
2, 1230068, Control_c, 0, 64, 88
2, 1230084, Control_c, 0, 64, 56
2, 1230100, Control_c, 0, 64, 24
2, 1230116, Control_c, 0, 64, 0
2, 1230176, Note_on_c, 0, 70, 83
2, 1230180, Note_on_c, 0, 56, 82
2, 1230184, Note_on_c, 0, 65, 81
2, 1230192, Note_on_c, 0, 50, 89
2, 1230200, Note_on_c, 0, 38, 74
2, 1230240, Note_on_c, 0, 38, 0
2, 1230240, Control_c, 0, 64, 56
2, 1230256, Control_c, 0, 64, 88
2, 1230260, Note_on_c, 0, 56, 0
2, 1230264, Note_on_c, 0, 50, 0
2, 1230272, Control_c, 0, 64, 127
2, 1230280, Note_on_c, 0, 70, 0
2, 1230288, Note_on_c, 0, 65, 0
2, 1230364, Control_c, 0, 64, 104
2, 1230392, Control_c, 0, 64, 88
2, 1230408, Control_c, 0, 64, 72
2, 1230424, Control_c, 0, 64, 40
2, 1230440, Control_c, 0, 64, 0
2, 1230520, Note_on_c, 0, 68, 87
2, 1230520, Note_on_c, 0, 56, 89
2, 1230524, Note_on_c, 0, 63, 79
2, 1230524, Note_on_c, 0, 51, 83
2, 1230532, Note_on_c, 0, 39, 68
2, 1230564, Control_c, 0, 64, 56
2, 1230572, Note_on_c, 0, 51, 0
2, 1230580, Control_c, 0, 64, 104
2, 1230596, Note_on_c, 0, 39, 0
2, 1230596, Control_c, 0, 64, 127
2, 1230612, Note_on_c, 0, 56, 0
2, 1230632, Note_on_c, 0, 63, 0
2, 1230644, Note_on_c, 0, 68, 0
2, 1230796, Control_c, 0, 64, 72
2, 1230812, Control_c, 0, 64, 0
2, 1230848, Note_on_c, 0, 67, 82
2, 1230852, Note_on_c, 0, 39, 93
2, 1230856, Note_on_c, 0, 63, 51
2, 1230860, Note_on_c, 0, 27, 85
2, 1230860, Note_on_c, 0, 55, 61
2, 1230884, Note_on_c, 0, 63, 0
2, 1230888, Note_on_c, 0, 55, 0
2, 1230892, Control_c, 0, 64, 24
2, 1230904, Note_on_c, 0, 67, 0
2, 1230904, Note_on_c, 0, 39, 0
2, 1230904, Control_c, 0, 64, 72
2, 1230908, Note_on_c, 0, 27, 0
2, 1230920, Control_c, 0, 64, 104
2, 1230936, Control_c, 0, 64, 127
2, 1231004, Note_on_c, 0, 65, 87
2, 1231008, Note_on_c, 0, 53, 84
2, 1231064, Note_on_c, 0, 53, 0
2, 1231076, Note_on_c, 0, 65, 0
2, 1231120, Control_c, 0, 64, 72
2, 1231136, Control_c, 0, 64, 0
2, 1231180, Note_on_c, 0, 63, 81
2, 1231180, Note_on_c, 0, 51, 84
2, 1231188, Note_on_c, 0, 43, 87
2, 1231196, Note_on_c, 0, 31, 69
2, 1231216, Control_c, 0, 64, 40
2, 1231220, Note_on_c, 0, 31, 0
2, 1231232, Control_c, 0, 64, 88
2, 1231240, Note_on_c, 0, 51, 0
2, 1231248, Note_on_c, 0, 43, 0
2, 1231248, Control_c, 0, 64, 127
2, 1231264, Note_on_c, 0, 63, 0
2, 1231416, Control_c, 0, 64, 104
2, 1231432, Control_c, 0, 64, 88
2, 1231448, Control_c, 0, 64, 56
2, 1231464, Control_c, 0, 64, 0
2, 1231536, Note_on_c, 0, 51, 67
2, 1231536, Note_on_c, 0, 63, 76
2, 1231544, Note_on_c, 0, 54, 53
2, 1231548, Note_on_c, 0, 47, 63
2, 1231556, Note_on_c, 0, 59, 58
2, 1231632, Control_c, 0, 64, 40
2, 1231648, Control_c, 0, 64, 88
2, 1231664, Control_c, 0, 64, 127
2, 1231672, Note_on_c, 0, 59, 0
2, 1231672, Note_on_c, 0, 54, 0
2, 1231672, Note_on_c, 0, 51, 0
2, 1231696, Note_on_c, 0, 47, 0
2, 1231704, Note_on_c, 0, 63, 0
2, 1231892, Note_on_c, 0, 63, 85
2, 1231900, Note_on_c, 0, 51, 80
2, 1231900, Note_on_c, 0, 35, 76
2, 1231908, Note_on_c, 0, 54, 64
2, 1231912, Note_on_c, 0, 59, 64
2, 1231928, Control_c, 0, 64, 104
2, 1231944, Control_c, 0, 64, 24
2, 1231960, Control_c, 0, 64, 0
2, 1232008, Note_on_c, 0, 51, 0
2, 1232012, Note_on_c, 0, 54, 0
2, 1232016, Note_on_c, 0, 59, 0
2, 1232020, Control_c, 0, 64, 24
2, 1232036, Control_c, 0, 64, 72
2, 1232052, Control_c, 0, 64, 127
2, 1232068, Note_on_c, 0, 63, 0
2, 1232088, Note_on_c, 0, 35, 0
2, 1232252, Note_on_c, 0, 63, 86
2, 1232256, Note_on_c, 0, 39, 90
2, 1232260, Note_on_c, 0, 54, 77
2, 1232260, Note_on_c, 0, 51, 85
2, 1232272, Note_on_c, 0, 59, 70
2, 1232284, Control_c, 0, 64, 56
2, 1232300, Control_c, 0, 64, 0
2, 1232376, Control_c, 0, 64, 56
2, 1232392, Note_on_c, 0, 59, 0
2, 1232392, Control_c, 0, 64, 127
2, 1232400, Note_on_c, 0, 51, 0
2, 1232420, Note_on_c, 0, 63, 0
2, 1232460, Note_on_c, 0, 39, 0
2, 1232540, Note_on_c, 0, 54, 0
2, 1232604, Note_on_c, 0, 61, 86
2, 1232608, Note_on_c, 0, 49, 86
2, 1232616, Note_on_c, 0, 54, 74
2, 1232616, Note_on_c, 0, 58, 69
2, 1232620, Note_on_c, 0, 42, 87
2, 1232628, Control_c, 0, 64, 56
2, 1232640, Control_c, 0, 64, 0
2, 1232748, Control_c, 0, 64, 56
2, 1232764, Control_c, 0, 64, 127
2, 1232904, Control_c, 0, 64, 40
2, 1232920, Control_c, 0, 64, 0
2, 1233000, Note_on_c, 0, 30, 85
2, 1233012, Control_c, 0, 64, 72
2, 1233028, Control_c, 0, 64, 127
2, 1233072, Note_on_c, 0, 54, 0
2, 1233072, Note_on_c, 0, 49, 0
2, 1233088, Note_on_c, 0, 30, 0
2, 1233112, Note_on_c, 0, 61, 0
2, 1233124, Note_on_c, 0, 58, 0
2, 1233168, Note_on_c, 0, 42, 0
2, 1233368, Control_c, 0, 64, 40
2, 1233376, Note_on_c, 0, 51, 93
2, 1233380, Note_on_c, 0, 63, 88
2, 1233384, Control_c, 0, 64, 0
2, 1233392, Note_on_c, 0, 58, 65
2, 1233396, Note_on_c, 0, 55, 76
2, 1233400, Note_on_c, 0, 61, 56
2, 1233408, Note_on_c, 0, 43, 99
2, 1233408, Note_on_c, 0, 31, 79
2, 1233424, Note_on_c, 0, 55, 0
2, 1233428, Note_on_c, 0, 61, 0
2, 1233440, Note_on_c, 0, 51, 0
2, 1233464, Note_on_c, 0, 31, 0
2, 1233464, Control_c, 0, 64, 88
2, 1233476, Note_on_c, 0, 43, 0
2, 1233476, Control_c, 0, 64, 127
2, 1233480, Note_on_c, 0, 58, 0
2, 1233516, Note_on_c, 0, 63, 0
2, 1233696, Control_c, 0, 64, 104
2, 1233708, Control_c, 0, 64, 56
2, 1233724, Control_c, 0, 64, 0
2, 1233792, Note_on_c, 0, 80, 97
2, 1233796, Note_on_c, 0, 68, 86
2, 1233796, Note_on_c, 0, 72, 99
2, 1233812, Note_on_c, 0, 44, 85
2, 1233820, Note_on_c, 0, 32, 73
2, 1233848, Note_on_c, 0, 68, 0
2, 1233848, Control_c, 0, 64, 88
2, 1233860, Note_on_c, 0, 44, 0
2, 1233860, Note_on_c, 0, 32, 0
2, 1233864, Control_c, 0, 64, 127
2, 1233868, Note_on_c, 0, 72, 0
2, 1233904, Note_on_c, 0, 80, 0
2, 1234120, Note_on_c, 0, 84, 93
2, 1234120, Note_on_c, 0, 75, 85
2, 1234132, Note_on_c, 0, 63, 69
2, 1234136, Note_on_c, 0, 72, 72
2, 1234148, Note_on_c, 0, 51, 55
2, 1234160, Note_on_c, 0, 72, 0
2, 1234180, Note_on_c, 0, 84, 0
2, 1234180, Note_on_c, 0, 51, 0
2, 1234184, Note_on_c, 0, 75, 0
2, 1234188, Note_on_c, 0, 63, 0
2, 1234204, Control_c, 0, 64, 88
2, 1234220, Control_c, 0, 64, 56
2, 1234236, Control_c, 0, 64, 24
2, 1234252, Control_c, 0, 64, 0
2, 1234272, Note_on_c, 0, 51, 65
2, 1234272, Note_on_c, 0, 71, 73
2, 1234272, Note_on_c, 0, 62, 74
2, 1234272, Note_on_c, 0, 83, 94
2, 1234284, Note_on_c, 0, 74, 71
2, 1234308, Note_on_c, 0, 71, 0
2, 1234312, Note_on_c, 0, 74, 0
2, 1234324, Note_on_c, 0, 51, 0
2, 1234324, Note_on_c, 0, 62, 0
2, 1234340, Note_on_c, 0, 83, 0
2, 1234432, Note_on_c, 0, 72, 88
2, 1234432, Note_on_c, 0, 63, 77
2, 1234432, Note_on_c, 0, 51, 74
2, 1234432, Note_on_c, 0, 75, 90
2, 1234432, Note_on_c, 0, 84, 96
2, 1234452, Control_c, 0, 64, 24
2, 1234472, Control_c, 0, 64, 40
2, 1234484, Control_c, 0, 64, 56
2, 1234488, Note_on_c, 0, 51, 0
2, 1234488, Note_on_c, 0, 72, 0
2, 1234496, Note_on_c, 0, 63, 0
2, 1234560, Note_on_c, 0, 84, 0
2, 1234560, Note_on_c, 0, 75, 0
2, 1234564, Control_c, 0, 64, 40
2, 1234576, Control_c, 0, 64, 24
2, 1234592, Control_c, 0, 64, 0
2, 1234764, Note_on_c, 0, 85, 92
2, 1234772, Note_on_c, 0, 73, 93
2, 1234776, Note_on_c, 0, 77, 100
2, 1234788, Note_on_c, 0, 65, 86
2, 1234788, Note_on_c, 0, 56, 73
2, 1234788, Note_on_c, 0, 61, 74
2, 1234808, Control_c, 0, 64, 40
2, 1234824, Control_c, 0, 64, 88
2, 1234840, Control_c, 0, 64, 127
2, 1234872, Note_on_c, 0, 77, 0
2, 1234884, Note_on_c, 0, 56, 0
2, 1234884, Note_on_c, 0, 65, 0
2, 1234896, Note_on_c, 0, 73, 0
2, 1234948, Note_on_c, 0, 85, 0
2, 1234948, Note_on_c, 0, 61, 0
2, 1235096, Note_on_c, 0, 84, 85
2, 1235096, Note_on_c, 0, 75, 79
2, 1235096, Note_on_c, 0, 72, 78
2, 1235108, Note_on_c, 0, 60, 76
2, 1235112, Note_on_c, 0, 56, 46
2, 1235128, Note_on_c, 0, 72, 0
2, 1235128, Note_on_c, 0, 63, 30
2, 1235136, Control_c, 0, 64, 88
2, 1235148, Note_on_c, 0, 56, 0
2, 1235152, Note_on_c, 0, 84, 0
2, 1235152, Note_on_c, 0, 75, 0
2, 1235152, Control_c, 0, 64, 72
2, 1235156, Note_on_c, 0, 63, 0
2, 1235168, Note_on_c, 0, 60, 0
2, 1235168, Control_c, 0, 64, 56
2, 1235180, Control_c, 0, 64, 40
2, 1235200, Control_c, 0, 64, 24
2, 1235212, Control_c, 0, 64, 0
2, 1235240, Note_on_c, 0, 82, 80
2, 1235248, Note_on_c, 0, 73, 83
2, 1235248, Note_on_c, 0, 70, 79
2, 1235252, Note_on_c, 0, 61, 62
2, 1235264, Note_on_c, 0, 56, 44
2, 1235276, Note_on_c, 0, 58, 35
2, 1235292, Note_on_c, 0, 70, 0
2, 1235304, Note_on_c, 0, 73, 0
2, 1235304, Note_on_c, 0, 82, 0
2, 1235304, Note_on_c, 0, 58, 0
2, 1235324, Note_on_c, 0, 61, 0
2, 1235336, Note_on_c, 0, 56, 0
2, 1235400, Note_on_c, 0, 80, 84
2, 1235400, Note_on_c, 0, 56, 39
2, 1235408, Note_on_c, 0, 60, 82
2, 1235408, Note_on_c, 0, 72, 90
2, 1235408, Note_on_c, 0, 68, 75
2, 1235452, Note_on_c, 0, 60, 0
2, 1235476, Note_on_c, 0, 56, 0
2, 1235492, Note_on_c, 0, 72, 0
2, 1235520, Note_on_c, 0, 68, 0
2, 1235556, Note_on_c, 0, 80, 0
2, 1235728, Note_on_c, 0, 80, 89
2, 1235732, Note_on_c, 0, 68, 85
2, 1235736, Note_on_c, 0, 39, 85
2, 1235736, Note_on_c, 0, 51, 100
2, 1235740, Note_on_c, 0, 72, 94
2, 1235756, Control_c, 0, 64, 40
2, 1235768, Control_c, 0, 64, 104
2, 1235780, Note_on_c, 0, 39, 0
2, 1235784, Note_on_c, 0, 51, 0
2, 1235788, Control_c, 0, 64, 127
2, 1235796, Note_on_c, 0, 72, 0
2, 1235820, Note_on_c, 0, 68, 0
2, 1235864, Note_on_c, 0, 80, 0
2, 1236048, Note_on_c, 0, 79, 84
2, 1236048, Note_on_c, 0, 70, 69
2, 1236048, Control_c, 0, 64, 104
2, 1236056, Note_on_c, 0, 67, 67
2, 1236060, Note_on_c, 0, 63, 76
2, 1236060, Note_on_c, 0, 51, 71
2, 1236064, Control_c, 0, 64, 88
2, 1236080, Control_c, 0, 64, 56
2, 1236092, Note_on_c, 0, 51, 0
2, 1236092, Note_on_c, 0, 67, 0
2, 1236096, Control_c, 0, 64, 40
2, 1236100, Note_on_c, 0, 79, 0
2, 1236100, Note_on_c, 0, 70, 0
2, 1236108, Note_on_c, 0, 63, 0
2, 1236112, Control_c, 0, 64, 24
2, 1236128, Control_c, 0, 64, 0
2, 1236196, Note_on_c, 0, 77, 90
2, 1236200, Note_on_c, 0, 65, 78
2, 1236204, Note_on_c, 0, 68, 72
2, 1236208, Note_on_c, 0, 63, 78
2, 1236212, Note_on_c, 0, 51, 73
2, 1236248, Note_on_c, 0, 65, 0
2, 1236260, Note_on_c, 0, 63, 0
2, 1236260, Note_on_c, 0, 77, 0
2, 1236260, Note_on_c, 0, 68, 0
2, 1236260, Note_on_c, 0, 51, 0
2, 1236364, Note_on_c, 0, 75, 82
2, 1236368, Note_on_c, 0, 63, 87
2, 1236376, Note_on_c, 0, 51, 85
2, 1236380, Note_on_c, 0, 67, 77
2, 1236432, Note_on_c, 0, 63, 0
2, 1236444, Note_on_c, 0, 51, 0
2, 1236456, Note_on_c, 0, 67, 0
2, 1236524, Note_on_c, 0, 75, 0
2, 1236684, Note_on_c, 0, 63, 90
2, 1236684, Note_on_c, 0, 75, 90
2, 1236688, Note_on_c, 0, 67, 84
2, 1236708, Note_on_c, 0, 51, 81
2, 1236716, Control_c, 0, 64, 56
2, 1236732, Control_c, 0, 64, 104
2, 1236748, Note_on_c, 0, 67, 0
2, 1236748, Control_c, 0, 64, 127
2, 1236772, Note_on_c, 0, 63, 0
2, 1236788, Note_on_c, 0, 75, 0
2, 1236792, Note_on_c, 0, 51, 0
2, 1237004, Note_on_c, 0, 77, 93
2, 1237004, Note_on_c, 0, 68, 77
2, 1237008, Note_on_c, 0, 65, 78
2, 1237012, Control_c, 0, 64, 104
2, 1237020, Note_on_c, 0, 62, 74
2, 1237020, Note_on_c, 0, 51, 69
2, 1237028, Control_c, 0, 64, 88
2, 1237044, Note_on_c, 0, 65, 0
2, 1237044, Control_c, 0, 64, 72
2, 1237052, Note_on_c, 0, 68, 0
2, 1237056, Note_on_c, 0, 77, 0
2, 1237056, Note_on_c, 0, 62, 0
2, 1237056, Control_c, 0, 64, 40
2, 1237072, Note_on_c, 0, 51, 0
2, 1237072, Control_c, 0, 64, 24
2, 1237088, Control_c, 0, 64, 0
2, 1237156, Note_on_c, 0, 79, 99
2, 1237156, Note_on_c, 0, 67, 87
2, 1237156, Note_on_c, 0, 70, 85
2, 1237164, Note_on_c, 0, 61, 75
2, 1237172, Note_on_c, 0, 51, 61
2, 1237192, Note_on_c, 0, 61, 0
2, 1237204, Note_on_c, 0, 70, 0
2, 1237204, Note_on_c, 0, 79, 0
2, 1237204, Note_on_c, 0, 67, 0
2, 1237208, Note_on_c, 0, 51, 0
2, 1237308, Note_on_c, 0, 80, 94
2, 1237308, Note_on_c, 0, 60, 77
2, 1237312, Note_on_c, 0, 68, 77
2, 1237316, Note_on_c, 0, 51, 73
2, 1237320, Note_on_c, 0, 72, 70
2, 1237344, Note_on_c, 0, 60, 0
2, 1237348, Note_on_c, 0, 72, 0
2, 1237356, Note_on_c, 0, 51, 0
2, 1237360, Note_on_c, 0, 68, 0
2, 1237380, Note_on_c, 0, 80, 0
2, 1237452, Note_on_c, 0, 58, 75
2, 1237460, Note_on_c, 0, 49, 68
2, 1237468, Note_on_c, 0, 70, 91
2, 1237468, Note_on_c, 0, 82, 94
2, 1237472, Note_on_c, 0, 73, 82
2, 1237488, Note_on_c, 0, 49, 0
2, 1237500, Note_on_c, 0, 58, 0
2, 1237524, Note_on_c, 0, 70, 0
2, 1237536, Note_on_c, 0, 73, 0
2, 1237540, Note_on_c, 0, 82, 0
2, 1237656, Note_on_c, 0, 80, 95
2, 1237656, Note_on_c, 0, 68, 90
2, 1237660, Note_on_c, 0, 72, 100
2, 1237676, Note_on_c, 0, 44, 82
2, 1237680, Control_c, 0, 64, 40
2, 1237692, Note_on_c, 0, 32, 78
2, 1237692, Control_c, 0, 64, 104
2, 1237704, Note_on_c, 0, 44, 0
2, 1237708, Note_on_c, 0, 72, 0
2, 1237708, Control_c, 0, 64, 127
2, 1237712, Note_on_c, 0, 68, 0
2, 1237732, Note_on_c, 0, 32, 0
2, 1237760, Note_on_c, 0, 80, 0
2, 1237976, Note_on_c, 0, 75, 81
2, 1237980, Note_on_c, 0, 84, 89
2, 1237984, Note_on_c, 0, 72, 82
2, 1237996, Note_on_c, 0, 51, 73
2, 1237996, Note_on_c, 0, 63, 73
2, 1238024, Note_on_c, 0, 72, 0
2, 1238028, Note_on_c, 0, 84, 0
2, 1238036, Control_c, 0, 64, 104
2, 1238044, Note_on_c, 0, 63, 0
2, 1238044, Note_on_c, 0, 75, 0
2, 1238048, Control_c, 0, 64, 88
2, 1238056, Note_on_c, 0, 51, 0
2, 1238064, Control_c, 0, 64, 56
2, 1238080, Control_c, 0, 64, 40
2, 1238112, Control_c, 0, 64, 24
2, 1238128, Note_on_c, 0, 83, 90
2, 1238128, Control_c, 0, 64, 0
2, 1238136, Note_on_c, 0, 51, 76
2, 1238140, Note_on_c, 0, 71, 65
2, 1238144, Note_on_c, 0, 62, 80
2, 1238144, Note_on_c, 0, 74, 79
2, 1238172, Note_on_c, 0, 74, 0
2, 1238172, Note_on_c, 0, 71, 0
2, 1238176, Note_on_c, 0, 62, 0
2, 1238200, Note_on_c, 0, 83, 0
2, 1238208, Note_on_c, 0, 51, 0
2, 1238296, Note_on_c, 0, 63, 85
2, 1238296, Note_on_c, 0, 84, 96
2, 1238296, Note_on_c, 0, 72, 92
2, 1238296, Note_on_c, 0, 75, 91
2, 1238296, Note_on_c, 0, 51, 72
2, 1238312, Control_c, 0, 64, 24
2, 1238324, Note_on_c, 0, 51, 0
2, 1238328, Control_c, 0, 64, 40
2, 1238352, Note_on_c, 0, 72, 0
2, 1238352, Note_on_c, 0, 63, 0
2, 1238380, Note_on_c, 0, 75, 0
2, 1238396, Note_on_c, 0, 84, 0
2, 1238436, Control_c, 0, 64, 0
2, 1238604, Note_on_c, 0, 85, 90
2, 1238608, Note_on_c, 0, 73, 92
2, 1238616, Note_on_c, 0, 77, 96
2, 1238620, Note_on_c, 0, 65, 79
2, 1238620, Note_on_c, 0, 56, 65
2, 1238628, Note_on_c, 0, 61, 65
2, 1238636, Control_c, 0, 64, 24
2, 1238652, Control_c, 0, 64, 88
2, 1238668, Control_c, 0, 64, 127
2, 1238692, Note_on_c, 0, 65, 0
2, 1238692, Note_on_c, 0, 77, 0
2, 1238720, Note_on_c, 0, 61, 0
2, 1238732, Note_on_c, 0, 56, 0
2, 1238744, Note_on_c, 0, 73, 0
2, 1238764, Note_on_c, 0, 85, 0
2, 1238912, Note_on_c, 0, 61, 63
2, 1238916, Note_on_c, 0, 84, 84
2, 1238916, Note_on_c, 0, 75, 73
2, 1238920, Note_on_c, 0, 72, 73
2, 1238928, Note_on_c, 0, 63, 52
2, 1238928, Note_on_c, 0, 56, 48
2, 1238932, Control_c, 0, 64, 104
2, 1238948, Control_c, 0, 64, 88
2, 1238956, Note_on_c, 0, 72, 0
2, 1238964, Control_c, 0, 64, 72
2, 1238968, Note_on_c, 0, 63, 0
2, 1238972, Note_on_c, 0, 84, 0
2, 1238976, Control_c, 0, 64, 56
2, 1238984, Note_on_c, 0, 61, 0
2, 1238984, Note_on_c, 0, 75, 0
2, 1238988, Note_on_c, 0, 56, 0
2, 1238992, Control_c, 0, 64, 40
2, 1239008, Control_c, 0, 64, 24
2, 1239024, Control_c, 0, 64, 0
2, 1239060, Note_on_c, 0, 83, 92
2, 1239064, Note_on_c, 0, 74, 84
2, 1239064, Note_on_c, 0, 71, 71
2, 1239068, Note_on_c, 0, 56, 35
2, 1239076, Note_on_c, 0, 62, 64
2, 1239076, Note_on_c, 0, 59, 56
2, 1239100, Note_on_c, 0, 71, 0
2, 1239104, Note_on_c, 0, 62, 0
2, 1239108, Note_on_c, 0, 59, 0
2, 1239116, Note_on_c, 0, 74, 0
2, 1239116, Note_on_c, 0, 83, 0
2, 1239120, Note_on_c, 0, 56, 0
2, 1239212, Note_on_c, 0, 83, 89
2, 1239216, Note_on_c, 0, 71, 71
2, 1239216, Note_on_c, 0, 74, 82
2, 1239228, Note_on_c, 0, 62, 64
2, 1239228, Note_on_c, 0, 59, 54
2, 1239228, Note_on_c, 0, 56, 45
2, 1239228, Control_c, 0, 64, 24
2, 1239244, Control_c, 0, 64, 72
2, 1239256, Control_c, 0, 64, 88
2, 1239272, Control_c, 0, 64, 104
2, 1239288, Note_on_c, 0, 71, 0
2, 1239304, Note_on_c, 0, 74, 0
2, 1239308, Note_on_c, 0, 59, 0
2, 1239312, Note_on_c, 0, 62, 0
2, 1239328, Note_on_c, 0, 56, 0
2, 1239336, Note_on_c, 0, 83, 0
2, 1239336, Control_c, 0, 64, 56
2, 1239348, Control_c, 0, 64, 24
2, 1239364, Control_c, 0, 64, 0
2, 1239520, Note_on_c, 0, 85, 83
2, 1239520, Note_on_c, 0, 65, 70
2, 1239520, Control_c, 0, 64, 24
2, 1239524, Note_on_c, 0, 73, 76
2, 1239528, Note_on_c, 0, 77, 88
2, 1239536, Note_on_c, 0, 61, 53
2, 1239536, Note_on_c, 0, 56, 45
2, 1239536, Control_c, 0, 64, 88
2, 1239552, Control_c, 0, 64, 127
2, 1239584, Note_on_c, 0, 77, 0
2, 1239592, Note_on_c, 0, 65, 0
2, 1239600, Note_on_c, 0, 73, 0
2, 1239612, Note_on_c, 0, 61, 0
2, 1239616, Note_on_c, 0, 56, 0
2, 1239640, Note_on_c, 0, 85, 0
2, 1239788, Note_on_c, 0, 63, 48
2, 1239792, Note_on_c, 0, 84, 85
2, 1239796, Note_on_c, 0, 61, 54
2, 1239796, Note_on_c, 0, 75, 74
2, 1239796, Note_on_c, 0, 56, 37
2, 1239800, Note_on_c, 0, 72, 68
2, 1239800, Control_c, 0, 64, 88
2, 1239816, Control_c, 0, 64, 72
2, 1239828, Note_on_c, 0, 72, 0
2, 1239832, Control_c, 0, 64, 56
2, 1239844, Note_on_c, 0, 63, 0
2, 1239848, Control_c, 0, 64, 40
2, 1239852, Note_on_c, 0, 75, 0
2, 1239852, Note_on_c, 0, 56, 0
2, 1239856, Note_on_c, 0, 61, 0
2, 1239856, Note_on_c, 0, 84, 0
2, 1239864, Control_c, 0, 64, 24
2, 1239880, Control_c, 0, 64, 0
2, 1239932, Note_on_c, 0, 83, 89
2, 1239936, Note_on_c, 0, 71, 73
2, 1239936, Note_on_c, 0, 62, 66
2, 1239936, Note_on_c, 0, 74, 82
2, 1239936, Note_on_c, 0, 56, 34
2, 1239944, Note_on_c, 0, 59, 48
2, 1239968, Note_on_c, 0, 74, 0
2, 1239968, Note_on_c, 0, 71, 0
2, 1239972, Note_on_c, 0, 62, 0
2, 1239972, Note_on_c, 0, 59, 0
2, 1239984, Note_on_c, 0, 56, 0
2, 1239988, Note_on_c, 0, 83, 0
2, 1240080, Note_on_c, 0, 83, 90
2, 1240084, Note_on_c, 0, 74, 77
2, 1240084, Note_on_c, 0, 71, 68
2, 1240092, Note_on_c, 0, 62, 60
2, 1240092, Note_on_c, 0, 56, 46
2, 1240100, Note_on_c, 0, 59, 47
2, 1240124, Control_c, 0, 64, 56
2, 1240140, Note_on_c, 0, 59, 0
2, 1240144, Control_c, 0, 64, 88
2, 1240156, Control_c, 0, 64, 127
2, 1240172, Note_on_c, 0, 62, 0
2, 1240184, Note_on_c, 0, 74, 0
2, 1240188, Note_on_c, 0, 71, 0
2, 1240204, Note_on_c, 0, 83, 0
2, 1240204, Note_on_c, 0, 56, 0
2, 1240220, Control_c, 0, 64, 88
2, 1240328, Control_c, 0, 64, 104
2, 1240372, Control_c, 0, 64, 24
2, 1240384, Note_on_c, 0, 83, 87
2, 1240388, Note_on_c, 0, 74, 74
2, 1240388, Note_on_c, 0, 71, 61
2, 1240388, Control_c, 0, 64, 0
2, 1240400, Note_on_c, 0, 62, 51
2, 1240412, Note_on_c, 0, 59, 52
2, 1240424, Note_on_c, 0, 56, 45
2, 1240444, Note_on_c, 0, 59, 0
2, 1240464, Control_c, 0, 64, 40
2, 1240468, Note_on_c, 0, 62, 0
2, 1240468, Note_on_c, 0, 56, 0
2, 1240480, Control_c, 0, 64, 88
2, 1240500, Control_c, 0, 64, 127
2, 1240708, Note_on_c, 0, 71, 0
2, 1240716, Note_on_c, 0, 74, 0
2, 1240740, Note_on_c, 0, 83, 0
2, 1240744, Note_on_c, 0, 44, 63
2, 1240804, Note_on_c, 0, 44, 0
2, 1240924, Note_on_c, 0, 83, 82
2, 1240924, Note_on_c, 0, 59, 51
2, 1240928, Note_on_c, 0, 71, 68
2, 1240932, Note_on_c, 0, 74, 73
2, 1240932, Note_on_c, 0, 62, 48
2, 1240932, Note_on_c, 0, 56, 37
2, 1240964, Note_on_c, 0, 74, 0
2, 1240968, Note_on_c, 0, 62, 0
2, 1240968, Note_on_c, 0, 59, 0
2, 1240968, Note_on_c, 0, 56, 0
2, 1240980, Note_on_c, 0, 83, 0
2, 1240980, Note_on_c, 0, 71, 0
2, 1241152, Control_c, 0, 64, 56
2, 1241156, Note_on_c, 0, 56, 67
2, 1241164, Note_on_c, 0, 62, 58
2, 1241168, Control_c, 0, 64, 127
2, 1241180, Note_on_c, 0, 83, 79
2, 1241184, Note_on_c, 0, 71, 68
2, 1241184, Note_on_c, 0, 74, 70
2, 1241188, Note_on_c, 0, 62, 0
2, 1241212, Note_on_c, 0, 56, 0
2, 1241216, Note_on_c, 0, 74, 0
2, 1241232, Note_on_c, 0, 71, 0
2, 1241248, Note_on_c, 0, 83, 0
2, 1241408, Note_on_c, 0, 43, 68
2, 1241440, Note_on_c, 0, 43, 0
2, 1241452, Control_c, 0, 64, 88
2, 1241468, Control_c, 0, 64, 72
2, 1241496, Control_c, 0, 64, 56
2, 1241512, Control_c, 0, 64, 40
2, 1241520, Note_on_c, 0, 83, 84
2, 1241520, Note_on_c, 0, 71, 72
2, 1241524, Note_on_c, 0, 74, 75
2, 1241544, Note_on_c, 0, 83, 0
2, 1241544, Control_c, 0, 64, 24
2, 1241548, Note_on_c, 0, 74, 0
2, 1241552, Note_on_c, 0, 71, 0
2, 1241572, Control_c, 0, 64, 0
2, 1241608, Note_on_c, 0, 71, 66
2, 1241608, Note_on_c, 0, 83, 77
2, 1241612, Note_on_c, 0, 62, 24
2, 1241616, Note_on_c, 0, 74, 65
2, 1241636, Note_on_c, 0, 62, 0
2, 1241644, Note_on_c, 0, 74, 0
2, 1241664, Note_on_c, 0, 71, 0
2, 1241668, Note_on_c, 0, 83, 0
2, 1241804, Note_on_c, 0, 56, 71
2, 1241812, Control_c, 0, 64, 24
2, 1241816, Note_on_c, 0, 62, 51
2, 1241824, Note_on_c, 0, 83, 83
2, 1241824, Note_on_c, 0, 71, 71
2, 1241824, Control_c, 0, 64, 72
2, 1241832, Note_on_c, 0, 74, 66
2, 1241840, Control_c, 0, 64, 127
2, 1241844, Note_on_c, 0, 62, 0
2, 1241856, Note_on_c, 0, 56, 0
2, 1241856, Note_on_c, 0, 74, 0
2, 1241860, Note_on_c, 0, 71, 0
2, 1241884, Note_on_c, 0, 83, 0
2, 1242024, Note_on_c, 0, 43, 68
2, 1242028, Note_on_c, 0, 75, 68
2, 1242032, Note_on_c, 0, 84, 81
2, 1242032, Note_on_c, 0, 72, 67
2, 1242048, Note_on_c, 0, 43, 0
2, 1242052, Control_c, 0, 64, 104
2, 1242064, Note_on_c, 0, 72, 0
2, 1242064, Control_c, 0, 64, 72
2, 1242084, Note_on_c, 0, 84, 0
2, 1242084, Note_on_c, 0, 75, 0
2, 1242096, Control_c, 0, 64, 56
2, 1242112, Control_c, 0, 64, 40
2, 1242156, Control_c, 0, 64, 24
2, 1242220, Note_on_c, 0, 56, 60
2, 1242228, Note_on_c, 0, 62, 49
2, 1242232, Note_on_c, 0, 59, 52
2, 1242236, Note_on_c, 0, 86, 86
2, 1242236, Note_on_c, 0, 74, 74
2, 1242240, Note_on_c, 0, 77, 75
2, 1242264, Note_on_c, 0, 59, 0
2, 1242268, Note_on_c, 0, 62, 0
2, 1242268, Note_on_c, 0, 77, 0
2, 1242284, Note_on_c, 0, 74, 0
2, 1242284, Note_on_c, 0, 56, 0
2, 1242292, Note_on_c, 0, 86, 0
2, 1242292, Control_c, 0, 64, 0
2, 1242416, Note_on_c, 0, 56, 75
2, 1242424, Control_c, 0, 64, 56
2, 1242428, Note_on_c, 0, 62, 52
2, 1242436, Note_on_c, 0, 86, 90
2, 1242440, Note_on_c, 0, 74, 81
2, 1242440, Control_c, 0, 64, 104
2, 1242444, Note_on_c, 0, 56, 0
2, 1242456, Note_on_c, 0, 62, 0
2, 1242456, Note_on_c, 0, 77, 60
2, 1242456, Control_c, 0, 64, 127
2, 1242480, Note_on_c, 0, 77, 0
2, 1242484, Note_on_c, 0, 74, 0
2, 1242488, Note_on_c, 0, 86, 0
2, 1242632, Note_on_c, 0, 43, 63
2, 1242640, Note_on_c, 0, 87, 84
2, 1242652, Note_on_c, 0, 75, 70
2, 1242652, Note_on_c, 0, 79, 83
2, 1242652, Control_c, 0, 64, 104
2, 1242656, Note_on_c, 0, 43, 0
2, 1242664, Control_c, 0, 64, 72
2, 1242676, Note_on_c, 0, 79, 0
2, 1242680, Control_c, 0, 64, 56
2, 1242696, Note_on_c, 0, 75, 0
2, 1242696, Control_c, 0, 64, 40
2, 1242712, Note_on_c, 0, 87, 0
2, 1242724, Control_c, 0, 64, 24
2, 1242844, Note_on_c, 0, 84, 90
2, 1242848, Note_on_c, 0, 72, 74
2, 1242852, Note_on_c, 0, 75, 67
2, 1242856, Note_on_c, 0, 55, 54
2, 1242872, Note_on_c, 0, 60, 42
2, 1242872, Note_on_c, 0, 63, 31
2, 1242888, Note_on_c, 0, 55, 0
2, 1242892, Note_on_c, 0, 72, 0
2, 1242896, Note_on_c, 0, 75, 0
2, 1242900, Note_on_c, 0, 84, 0
2, 1242900, Note_on_c, 0, 63, 0
2, 1242904, Note_on_c, 0, 60, 0
2, 1242904, Control_c, 0, 64, 0
2, 1243032, Note_on_c, 0, 63, 48
2, 1243040, Control_c, 0, 64, 72
2, 1243048, Note_on_c, 0, 55, 40
2, 1243052, Note_on_c, 0, 60, 35
2, 1243056, Note_on_c, 0, 75, 73
2, 1243056, Note_on_c, 0, 84, 81
2, 1243056, Note_on_c, 0, 72, 75
2, 1243056, Control_c, 0, 64, 127
2, 1243064, Note_on_c, 0, 63, 0
2, 1243076, Note_on_c, 0, 55, 0
2, 1243076, Note_on_c, 0, 60, 0
2, 1243084, Note_on_c, 0, 72, 0
2, 1243100, Note_on_c, 0, 75, 0
2, 1243120, Note_on_c, 0, 84, 0
2, 1243244, Note_on_c, 0, 43, 68
2, 1243280, Control_c, 0, 64, 88
2, 1243296, Control_c, 0, 64, 72
2, 1243300, Note_on_c, 0, 43, 0
2, 1243308, Control_c, 0, 64, 56
2, 1243340, Control_c, 0, 64, 40
2, 1243356, Control_c, 0, 64, 24
2, 1243436, Note_on_c, 0, 59, 66
2, 1243440, Note_on_c, 0, 56, 44
2, 1243444, Note_on_c, 0, 62, 63
2, 1243448, Note_on_c, 0, 86, 86
2, 1243452, Note_on_c, 0, 83, 79
2, 1243452, Note_on_c, 0, 74, 79
2, 1243476, Note_on_c, 0, 62, 0
2, 1243492, Note_on_c, 0, 59, 0
2, 1243496, Note_on_c, 0, 56, 0
2, 1243508, Note_on_c, 0, 74, 0
2, 1243516, Note_on_c, 0, 83, 0
2, 1243520, Control_c, 0, 64, 0
2, 1243532, Note_on_c, 0, 86, 0
2, 1243624, Control_c, 0, 64, 24
2, 1243640, Note_on_c, 0, 56, 73
2, 1243640, Control_c, 0, 64, 88
2, 1243644, Note_on_c, 0, 62, 66
2, 1243648, Note_on_c, 0, 86, 86
2, 1243656, Note_on_c, 0, 74, 81
2, 1243656, Note_on_c, 0, 83, 84
2, 1243656, Control_c, 0, 64, 127
2, 1243672, Note_on_c, 0, 62, 0
2, 1243692, Note_on_c, 0, 56, 0
2, 1243796, Note_on_c, 0, 74, 0
2, 1243820, Note_on_c, 0, 86, 0
2, 1243820, Note_on_c, 0, 83, 0
2, 1243832, Note_on_c, 0, 43, 73
2, 1243876, Note_on_c, 0, 43, 0
2, 1243908, Control_c, 0, 64, 88
2, 1243936, Note_on_c, 0, 86, 86
2, 1243940, Control_c, 0, 64, 72
2, 1243944, Note_on_c, 0, 74, 80
2, 1243944, Note_on_c, 0, 83, 77
2, 1243956, Control_c, 0, 64, 56
2, 1243968, Note_on_c, 0, 83, 0
2, 1243968, Note_on_c, 0, 74, 0
2, 1243980, Note_on_c, 0, 86, 0
2, 1243984, Control_c, 0, 64, 40
2, 1244012, Note_on_c, 0, 62, 78
2, 1244012, Note_on_c, 0, 56, 67
2, 1244012, Note_on_c, 0, 59, 74
2, 1244020, Note_on_c, 0, 86, 90
2, 1244024, Note_on_c, 0, 83, 74
2, 1244024, Note_on_c, 0, 74, 79
2, 1244044, Note_on_c, 0, 59, 0
2, 1244044, Control_c, 0, 64, 24
2, 1244048, Note_on_c, 0, 62, 0
2, 1244064, Note_on_c, 0, 56, 0
2, 1244080, Note_on_c, 0, 74, 0
2, 1244096, Note_on_c, 0, 83, 0
2, 1244104, Control_c, 0, 64, 0
2, 1244116, Note_on_c, 0, 86, 0
2, 1244208, Note_on_c, 0, 86, 89
2, 1244208, Control_c, 0, 64, 40
2, 1244212, Note_on_c, 0, 56, 77
2, 1244220, Note_on_c, 0, 62, 63
2, 1244220, Note_on_c, 0, 74, 80
2, 1244220, Control_c, 0, 64, 104
2, 1244236, Note_on_c, 0, 59, 47
2, 1244236, Control_c, 0, 64, 127
2, 1244240, Note_on_c, 0, 83, 39
2, 1244244, Note_on_c, 0, 62, 0
2, 1244248, Note_on_c, 0, 74, 0
2, 1244260, Note_on_c, 0, 59, 0
2, 1244264, Note_on_c, 0, 56, 0
2, 1244268, Note_on_c, 0, 83, 0
2, 1244288, Note_on_c, 0, 86, 0
2, 1244404, Note_on_c, 0, 43, 74
2, 1244412, Note_on_c, 0, 84, 86
2, 1244412, Note_on_c, 0, 87, 88
2, 1244416, Note_on_c, 0, 75, 89
2, 1244436, Note_on_c, 0, 43, 0
2, 1244472, Note_on_c, 0, 75, 0
2, 1244480, Note_on_c, 0, 84, 0
2, 1244492, Control_c, 0, 64, 104
2, 1244508, Control_c, 0, 64, 88
2, 1244524, Note_on_c, 0, 87, 0
2, 1244536, Control_c, 0, 64, 72
2, 1244568, Control_c, 0, 64, 56
2, 1244600, Note_on_c, 0, 89, 97
2, 1244600, Note_on_c, 0, 86, 85
2, 1244600, Note_on_c, 0, 59, 65
2, 1244600, Note_on_c, 0, 56, 55
2, 1244604, Note_on_c, 0, 77, 92
2, 1244608, Note_on_c, 0, 62, 62
2, 1244628, Control_c, 0, 64, 40
2, 1244640, Note_on_c, 0, 62, 0
2, 1244640, Note_on_c, 0, 59, 0
2, 1244652, Note_on_c, 0, 56, 0
2, 1244660, Note_on_c, 0, 86, 0
2, 1244664, Note_on_c, 0, 77, 0
2, 1244672, Control_c, 0, 64, 24
2, 1244688, Control_c, 0, 64, 0
2, 1244696, Note_on_c, 0, 89, 0
2, 1244784, Note_on_c, 0, 56, 78
2, 1244792, Note_on_c, 0, 89, 98
2, 1244792, Note_on_c, 0, 86, 96
2, 1244792, Note_on_c, 0, 62, 74
2, 1244792, Control_c, 0, 64, 40
2, 1244796, Note_on_c, 0, 77, 100
2, 1244800, Note_on_c, 0, 59, 49
2, 1244808, Control_c, 0, 64, 104
2, 1244820, Note_on_c, 0, 62, 0
2, 1244820, Control_c, 0, 64, 127
2, 1244828, Note_on_c, 0, 59, 0
2, 1244836, Note_on_c, 0, 56, 0
2, 1244844, Note_on_c, 0, 77, 0
2, 1244860, Note_on_c, 0, 86, 0
2, 1244888, Note_on_c, 0, 89, 0
2, 1244988, Note_on_c, 0, 91, 100
2, 1244988, Note_on_c, 0, 43, 68
2, 1244992, Note_on_c, 0, 79, 99
2, 1244992, Note_on_c, 0, 87, 83
2, 1245016, Note_on_c, 0, 43, 0
2, 1245032, Note_on_c, 0, 91, 0
2, 1245040, Note_on_c, 0, 79, 0
2, 1245040, Note_on_c, 0, 87, 0
2, 1245048, Control_c, 0, 64, 104
2, 1245064, Control_c, 0, 64, 88
2, 1245076, Control_c, 0, 64, 72
2, 1245092, Control_c, 0, 64, 56
2, 1245124, Control_c, 0, 64, 40
2, 1245152, Control_c, 0, 64, 24
2, 1245184, Note_on_c, 0, 87, 94
2, 1245192, Note_on_c, 0, 84, 69
2, 1245196, Note_on_c, 0, 75, 71
2, 1245208, Note_on_c, 0, 55, 54
2, 1245208, Note_on_c, 0, 60, 55
2, 1245208, Note_on_c, 0, 63, 60
2, 1245212, Control_c, 0, 64, 0
2, 1245244, Note_on_c, 0, 55, 0
2, 1245248, Note_on_c, 0, 60, 0
2, 1245256, Note_on_c, 0, 75, 0
2, 1245256, Note_on_c, 0, 63, 0
2, 1245260, Note_on_c, 0, 84, 0
2, 1245284, Note_on_c, 0, 87, 0
2, 1245384, Note_on_c, 0, 63, 60
2, 1245388, Note_on_c, 0, 55, 60
2, 1245392, Note_on_c, 0, 60, 52
2, 1245392, Control_c, 0, 64, 56
2, 1245400, Note_on_c, 0, 87, 90
2, 1245404, Note_on_c, 0, 84, 79
2, 1245408, Note_on_c, 0, 75, 71
2, 1245408, Control_c, 0, 64, 127
2, 1245416, Note_on_c, 0, 55, 0
2, 1245420, Note_on_c, 0, 60, 0
2, 1245424, Note_on_c, 0, 63, 0
2, 1245452, Note_on_c, 0, 75, 0
2, 1245468, Note_on_c, 0, 84, 0
2, 1245484, Note_on_c, 0, 87, 0
2, 1245592, Note_on_c, 0, 43, 69
2, 1245620, Note_on_c, 0, 43, 0
2, 1245692, Control_c, 0, 64, 104
2, 1245708, Control_c, 0, 64, 88
2, 1245736, Control_c, 0, 64, 72
2, 1245752, Control_c, 0, 64, 56
2, 1245780, Control_c, 0, 64, 40
2, 1245788, Note_on_c, 0, 87, 84
2, 1245792, Note_on_c, 0, 80, 76
2, 1245792, Note_on_c, 0, 75, 76
2, 1245796, Note_on_c, 0, 60, 69
2, 1245796, Note_on_c, 0, 63, 60
2, 1245796, Note_on_c, 0, 53, 55
2, 1245840, Control_c, 0, 64, 24
2, 1245844, Note_on_c, 0, 53, 0
2, 1245844, Note_on_c, 0, 63, 0
2, 1245848, Note_on_c, 0, 75, 0
2, 1245852, Note_on_c, 0, 80, 0
2, 1245872, Note_on_c, 0, 60, 0
2, 1245876, Note_on_c, 0, 87, 0
2, 1245884, Control_c, 0, 64, 0
2, 1245996, Note_on_c, 0, 63, 71
2, 1246004, Note_on_c, 0, 87, 95
2, 1246004, Note_on_c, 0, 53, 66
2, 1246008, Note_on_c, 0, 75, 91
2, 1246012, Note_on_c, 0, 80, 80
2, 1246012, Note_on_c, 0, 56, 54
2, 1246020, Control_c, 0, 64, 56
2, 1246036, Control_c, 0, 64, 127
2, 1246040, Note_on_c, 0, 80, 0
2, 1246044, Note_on_c, 0, 56, 0
2, 1246052, Note_on_c, 0, 63, 0
2, 1246068, Note_on_c, 0, 53, 0
2, 1246128, Note_on_c, 0, 87, 0
2, 1246152, Note_on_c, 0, 75, 0
2, 1246188, Note_on_c, 0, 43, 70
2, 1246216, Note_on_c, 0, 43, 0
2, 1246296, Note_on_c, 0, 86, 90
2, 1246304, Note_on_c, 0, 74, 80
2, 1246308, Control_c, 0, 64, 104
2, 1246332, Note_on_c, 0, 74, 0
2, 1246336, Control_c, 0, 64, 88
2, 1246348, Control_c, 0, 64, 72
2, 1246352, Note_on_c, 0, 86, 0
2, 1246380, Control_c, 0, 64, 56
2, 1246384, Note_on_c, 0, 62, 62
2, 1246384, Note_on_c, 0, 56, 60
2, 1246384, Note_on_c, 0, 53, 55
2, 1246388, Note_on_c, 0, 86, 88
2, 1246392, Note_on_c, 0, 80, 74
2, 1246396, Note_on_c, 0, 74, 74
2, 1246412, Note_on_c, 0, 62, 0
2, 1246432, Note_on_c, 0, 53, 0
2, 1246440, Control_c, 0, 64, 40
2, 1246452, Note_on_c, 0, 56, 0
2, 1246460, Note_on_c, 0, 74, 0
2, 1246480, Note_on_c, 0, 80, 0
2, 1246484, Control_c, 0, 64, 0
2, 1246488, Note_on_c, 0, 86, 0
2, 1246584, Note_on_c, 0, 86, 89
2, 1246588, Note_on_c, 0, 62, 69
2, 1246588, Note_on_c, 0, 51, 65
2, 1246592, Note_on_c, 0, 79, 88
2, 1246592, Control_c, 0, 64, 24
2, 1246596, Note_on_c, 0, 74, 77
2, 1246596, Note_on_c, 0, 55, 64
2, 1246604, Control_c, 0, 64, 88
2, 1246620, Control_c, 0, 64, 127
2, 1246644, Note_on_c, 0, 62, 0
2, 1246656, Note_on_c, 0, 51, 0
2, 1246656, Note_on_c, 0, 55, 0
2, 1246668, Note_on_c, 0, 74, 0
2, 1246676, Note_on_c, 0, 79, 0
2, 1246688, Note_on_c, 0, 86, 0
2, 1246776, Note_on_c, 0, 43, 69
2, 1246808, Note_on_c, 0, 43, 0
2, 1246872, Note_on_c, 0, 84, 84
2, 1246872, Note_on_c, 0, 72, 84
2, 1246872, Control_c, 0, 64, 104
2, 1246888, Control_c, 0, 64, 88
2, 1246900, Note_on_c, 0, 72, 0
2, 1246908, Note_on_c, 0, 84, 0
2, 1246920, Control_c, 0, 64, 72
2, 1246936, Control_c, 0, 64, 56
2, 1246964, Note_on_c, 0, 84, 84
2, 1246964, Control_c, 0, 64, 40
2, 1246968, Note_on_c, 0, 60, 53
2, 1246968, Note_on_c, 0, 79, 85
2, 1246968, Note_on_c, 0, 55, 51
2, 1246968, Note_on_c, 0, 72, 83
2, 1246976, Note_on_c, 0, 51, 51
2, 1247012, Note_on_c, 0, 60, 0
2, 1247024, Control_c, 0, 64, 24
2, 1247028, Note_on_c, 0, 72, 0
2, 1247028, Note_on_c, 0, 55, 0
2, 1247036, Note_on_c, 0, 79, 0
2, 1247036, Note_on_c, 0, 51, 0
2, 1247036, Control_c, 0, 64, 0
2, 1247048, Note_on_c, 0, 84, 0
2, 1247156, Note_on_c, 0, 53, 71
2, 1247160, Note_on_c, 0, 60, 69
2, 1247168, Note_on_c, 0, 84, 92
2, 1247172, Note_on_c, 0, 50, 67
2, 1247172, Note_on_c, 0, 72, 84
2, 1247176, Note_on_c, 0, 77, 85
2, 1247176, Control_c, 0, 64, 88
2, 1247188, Control_c, 0, 64, 127
2, 1247196, Note_on_c, 0, 60, 0
2, 1247212, Note_on_c, 0, 53, 0
2, 1247232, Note_on_c, 0, 50, 0
2, 1247268, Note_on_c, 0, 72, 0
2, 1247276, Note_on_c, 0, 77, 0
2, 1247288, Note_on_c, 0, 84, 0
2, 1247348, Note_on_c, 0, 43, 72
2, 1247416, Note_on_c, 0, 43, 0
2, 1247428, Control_c, 0, 64, 104
2, 1247444, Control_c, 0, 64, 88
2, 1247448, Note_on_c, 0, 70, 73
2, 1247452, Note_on_c, 0, 82, 80
2, 1247460, Control_c, 0, 64, 72
2, 1247472, Control_c, 0, 64, 56
2, 1247488, Control_c, 0, 64, 40
2, 1247492, Note_on_c, 0, 70, 0
2, 1247496, Note_on_c, 0, 82, 0
2, 1247520, Control_c, 0, 64, 24
2, 1247532, Note_on_c, 0, 58, 49
2, 1247532, Note_on_c, 0, 70, 71
2, 1247532, Note_on_c, 0, 82, 84
2, 1247536, Note_on_c, 0, 53, 59
2, 1247540, Note_on_c, 0, 77, 71
2, 1247544, Note_on_c, 0, 50, 60
2, 1247580, Control_c, 0, 64, 0
2, 1247588, Note_on_c, 0, 53, 0
2, 1247588, Note_on_c, 0, 58, 0
2, 1247592, Note_on_c, 0, 50, 0
2, 1247612, Note_on_c, 0, 70, 0
2, 1247612, Note_on_c, 0, 77, 0
2, 1247636, Note_on_c, 0, 82, 0
2, 1247748, Note_on_c, 0, 82, 87
2, 1247752, Note_on_c, 0, 58, 53
2, 1247752, Note_on_c, 0, 70, 78
2, 1247760, Note_on_c, 0, 75, 77
2, 1247760, Note_on_c, 0, 48, 60
2, 1247772, Control_c, 0, 64, 72
2, 1247776, Note_on_c, 0, 51, 52
2, 1247788, Control_c, 0, 64, 127
2, 1247844, Note_on_c, 0, 48, 0
2, 1247856, Note_on_c, 0, 58, 0
2, 1247908, Note_on_c, 0, 51, 0
2, 1247948, Note_on_c, 0, 82, 0
2, 1247948, Note_on_c, 0, 43, 70
2, 1248000, Note_on_c, 0, 70, 0
2, 1248012, Control_c, 0, 64, 104
2, 1248016, Note_on_c, 0, 43, 0
2, 1248020, Note_on_c, 0, 75, 0
2, 1248028, Control_c, 0, 64, 72
2, 1248040, Control_c, 0, 64, 56
2, 1248056, Control_c, 0, 64, 40
2, 1248072, Control_c, 0, 64, 24
2, 1248088, Control_c, 0, 64, 0
2, 1248144, Note_on_c, 0, 82, 85
2, 1248152, Note_on_c, 0, 70, 77
2, 1248156, Note_on_c, 0, 75, 79
2, 1248156, Note_on_c, 0, 58, 61
2, 1248156, Note_on_c, 0, 51, 55
2, 1248156, Note_on_c, 0, 48, 55
2, 1248176, Note_on_c, 0, 51, 50
2, 1248200, Note_on_c, 0, 58, 0
2, 1248204, Note_on_c, 0, 48, 0
2, 1248204, Note_on_c, 0, 70, 0
2, 1248204, Note_on_c, 0, 51, 0
2, 1248212, Note_on_c, 0, 75, 0
2, 1248216, Note_on_c, 0, 51, 0
2, 1248224, Note_on_c, 0, 82, 0
2, 1248344, Control_c, 0, 64, 24
2, 1248352, Note_on_c, 0, 82, 84
2, 1248356, Note_on_c, 0, 58, 57
2, 1248360, Control_c, 0, 64, 88
2, 1248364, Note_on_c, 0, 70, 76
2, 1248368, Note_on_c, 0, 75, 72
2, 1248372, Control_c, 0, 64, 127
2, 1248380, Note_on_c, 0, 48, 54
2, 1248380, Note_on_c, 0, 51, 52
2, 1248420, Note_on_c, 0, 58, 0
2, 1248436, Note_on_c, 0, 48, 0
2, 1248472, Note_on_c, 0, 82, 0
2, 1248476, Note_on_c, 0, 70, 0
2, 1248508, Note_on_c, 0, 75, 0
2, 1248548, Note_on_c, 0, 43, 71
2, 1248556, Note_on_c, 0, 51, 0
2, 1248580, Note_on_c, 0, 43, 0
2, 1248628, Control_c, 0, 64, 104
2, 1248632, Note_on_c, 0, 80, 83
2, 1248636, Note_on_c, 0, 68, 65
2, 1248640, Control_c, 0, 64, 88
2, 1248656, Control_c, 0, 64, 72
2, 1248672, Note_on_c, 0, 68, 0
2, 1248672, Control_c, 0, 64, 56
2, 1248680, Note_on_c, 0, 80, 0
2, 1248688, Control_c, 0, 64, 40
2, 1248704, Control_c, 0, 64, 24
2, 1248716, Control_c, 0, 64, 0
2, 1248724, Note_on_c, 0, 80, 84
2, 1248728, Note_on_c, 0, 68, 69
2, 1248736, Note_on_c, 0, 51, 56
2, 1248744, Note_on_c, 0, 56, 39
2, 1248744, Note_on_c, 0, 75, 61
2, 1248748, Note_on_c, 0, 48, 52
2, 1248768, Note_on_c, 0, 51, 0
2, 1248772, Note_on_c, 0, 56, 0
2, 1248776, Note_on_c, 0, 75, 0
2, 1248780, Note_on_c, 0, 48, 0
2, 1248792, Note_on_c, 0, 68, 0
2, 1248808, Note_on_c, 0, 80, 0
2, 1248928, Note_on_c, 0, 56, 54
2, 1248940, Note_on_c, 0, 80, 83
2, 1248940, Note_on_c, 0, 47, 60
2, 1248940, Control_c, 0, 64, 56
2, 1248944, Note_on_c, 0, 74, 77
2, 1248948, Note_on_c, 0, 68, 59
2, 1248952, Note_on_c, 0, 50, 52
2, 1248956, Control_c, 0, 64, 127
2, 1248988, Note_on_c, 0, 50, 0
2, 1249020, Note_on_c, 0, 47, 0
2, 1249032, Note_on_c, 0, 68, 0
2, 1249032, Note_on_c, 0, 56, 0
2, 1249048, Note_on_c, 0, 74, 0
2, 1249052, Note_on_c, 0, 80, 0
2, 1249104, Note_on_c, 0, 43, 66
2, 1249196, Note_on_c, 0, 43, 0
2, 1249196, Control_c, 0, 64, 104
2, 1249212, Control_c, 0, 64, 88
2, 1249216, Note_on_c, 0, 79, 82
2, 1249220, Note_on_c, 0, 67, 65
2, 1249224, Note_on_c, 0, 74, 70
2, 1249240, Note_on_c, 0, 79, 0
2, 1249240, Control_c, 0, 64, 72
2, 1249248, Note_on_c, 0, 74, 0
2, 1249252, Note_on_c, 0, 67, 0
2, 1249256, Control_c, 0, 64, 56
2, 1249272, Control_c, 0, 64, 40
2, 1249300, Control_c, 0, 64, 24
2, 1249304, Note_on_c, 0, 79, 85
2, 1249308, Note_on_c, 0, 74, 71
2, 1249308, Note_on_c, 0, 67, 60
2, 1249312, Note_on_c, 0, 47, 59
2, 1249316, Note_on_c, 0, 55, 56
2, 1249324, Note_on_c, 0, 50, 46
2, 1249332, Control_c, 0, 64, 0
2, 1249348, Note_on_c, 0, 55, 0
2, 1249348, Note_on_c, 0, 47, 0
2, 1249356, Note_on_c, 0, 50, 0
2, 1249360, Note_on_c, 0, 74, 0
2, 1249376, Note_on_c, 0, 67, 0
2, 1249392, Note_on_c, 0, 79, 0
2, 1249512, Control_c, 0, 64, 24
2, 1249516, Note_on_c, 0, 79, 86
2, 1249516, Note_on_c, 0, 55, 65
2, 1249516, Note_on_c, 0, 48, 64
2, 1249520, Note_on_c, 0, 67, 70
2, 1249528, Note_on_c, 0, 72, 73
2, 1249528, Note_on_c, 0, 44, 54
2, 1249528, Control_c, 0, 64, 104
2, 1249540, Control_c, 0, 64, 127
2, 1249568, Note_on_c, 0, 44, 0
2, 1249592, Note_on_c, 0, 55, 0
2, 1249608, Note_on_c, 0, 79, 0
2, 1249612, Note_on_c, 0, 67, 0
2, 1249612, Note_on_c, 0, 72, 0
2, 1249640, Note_on_c, 0, 48, 0
2, 1249696, Note_on_c, 0, 44, 67
2, 1249748, Note_on_c, 0, 44, 0
2, 1249792, Note_on_c, 0, 78, 88
2, 1249792, Note_on_c, 0, 66, 74
2, 1249828, Control_c, 0, 64, 104
2, 1249840, Note_on_c, 0, 66, 0
2, 1249840, Control_c, 0, 64, 72
2, 1249848, Note_on_c, 0, 78, 0
2, 1249856, Control_c, 0, 64, 56
2, 1249872, Control_c, 0, 64, 40
2, 1249884, Note_on_c, 0, 78, 75
2, 1249884, Control_c, 0, 64, 24
2, 1249892, Note_on_c, 0, 66, 57
2, 1249896, Note_on_c, 0, 54, 65
2, 1249896, Note_on_c, 0, 44, 38
2, 1249912, Note_on_c, 0, 48, 48
2, 1249916, Note_on_c, 0, 75, 42
2, 1249916, Control_c, 0, 64, 0
2, 1249940, Note_on_c, 0, 48, 0
2, 1249944, Note_on_c, 0, 44, 0
2, 1249944, Note_on_c, 0, 54, 0
2, 1249944, Note_on_c, 0, 75, 0
2, 1249960, Note_on_c, 0, 66, 0
2, 1250000, Note_on_c, 0, 78, 0
2, 1250092, Control_c, 0, 64, 40
2, 1250100, Note_on_c, 0, 78, 73
2, 1250100, Note_on_c, 0, 54, 52
2, 1250104, Note_on_c, 0, 66, 67
2, 1250108, Note_on_c, 0, 75, 60
2, 1250112, Control_c, 0, 64, 127
2, 1250120, Note_on_c, 0, 72, 64
2, 1250124, Note_on_c, 0, 48, 44
2, 1250152, Note_on_c, 0, 72, 0
2, 1250160, Note_on_c, 0, 48, 0
2, 1250224, Note_on_c, 0, 54, 0
2, 1250228, Note_on_c, 0, 75, 0
2, 1250264, Note_on_c, 0, 66, 0
2, 1250264, Note_on_c, 0, 78, 0
2, 1250304, Note_on_c, 0, 43, 66
2, 1250328, Note_on_c, 0, 43, 0
2, 1250396, Control_c, 0, 64, 88
2, 1250412, Control_c, 0, 64, 72
2, 1250424, Control_c, 0, 64, 56
2, 1250440, Control_c, 0, 64, 40
2, 1250452, Control_c, 0, 64, 24
2, 1250472, Control_c, 0, 64, 0
2, 1250520, Note_on_c, 0, 59, 64
2, 1250524, Note_on_c, 0, 67, 74
2, 1250532, Note_on_c, 0, 62, 40
2, 1250536, Note_on_c, 0, 65, 55
2, 1250568, Note_on_c, 0, 62, 0
2, 1250580, Note_on_c, 0, 65, 0
2, 1250580, Note_on_c, 0, 59, 0
2, 1250588, Note_on_c, 0, 67, 0
2, 1250764, Note_on_c, 0, 67, 72
2, 1250764, Note_on_c, 0, 62, 50
2, 1250768, Control_c, 0, 64, 72
2, 1250772, Note_on_c, 0, 59, 46
2, 1250772, Note_on_c, 0, 65, 52
2, 1250784, Control_c, 0, 64, 127
2, 1250800, Note_on_c, 0, 59, 0
2, 1250812, Note_on_c, 0, 62, 0
2, 1250920, Note_on_c, 0, 65, 0
2, 1250956, Note_on_c, 0, 43, 65
2, 1250968, Note_on_c, 0, 67, 0
2, 1250992, Control_c, 0, 64, 104
2, 1251008, Control_c, 0, 64, 72
2, 1251016, Note_on_c, 0, 43, 0
2, 1251024, Control_c, 0, 64, 40
2, 1251040, Control_c, 0, 64, 24
2, 1251052, Control_c, 0, 64, 0
2, 1251148, Note_on_c, 0, 67, 70
2, 1251148, Note_on_c, 0, 65, 59
2, 1251148, Note_on_c, 0, 62, 64
2, 1251148, Note_on_c, 0, 59, 76
2, 1251184, Note_on_c, 0, 62, 0
2, 1251196, Note_on_c, 0, 59, 0
2, 1251208, Note_on_c, 0, 65, 0
2, 1251220, Note_on_c, 0, 67, 0
2, 1251348, Note_on_c, 0, 67, 79
2, 1251352, Note_on_c, 0, 62, 53
2, 1251352, Note_on_c, 0, 65, 63
2, 1251352, Note_on_c, 0, 59, 57
2, 1251356, Control_c, 0, 64, 56
2, 1251368, Control_c, 0, 64, 104
2, 1251380, Note_on_c, 0, 59, 0
2, 1251380, Note_on_c, 0, 62, 0
2, 1251384, Control_c, 0, 64, 127
2, 1251492, Note_on_c, 0, 65, 0
2, 1251496, Note_on_c, 0, 67, 0
2, 1251536, Note_on_c, 0, 43, 76
2, 1251548, Control_c, 0, 64, 88
2, 1251564, Control_c, 0, 64, 40
2, 1251576, Note_on_c, 0, 43, 0
2, 1251580, Control_c, 0, 64, 24
2, 1251592, Control_c, 0, 64, 0
2, 1251636, Note_on_c, 0, 69, 77
2, 1251696, Note_on_c, 0, 69, 0
2, 1251724, Note_on_c, 0, 71, 81
2, 1251728, Note_on_c, 0, 55, 73
2, 1251732, Note_on_c, 0, 62, 60
2, 1251732, Note_on_c, 0, 65, 58
2, 1251756, Note_on_c, 0, 55, 0
2, 1251760, Note_on_c, 0, 62, 0
2, 1251772, Note_on_c, 0, 65, 0
2, 1251792, Note_on_c, 0, 71, 0
2, 1251924, Control_c, 0, 64, 72
2, 1251928, Note_on_c, 0, 71, 92
2, 1251928, Note_on_c, 0, 55, 75
2, 1251928, Note_on_c, 0, 64, 73
2, 1251936, Note_on_c, 0, 60, 53
2, 1251940, Control_c, 0, 64, 127
2, 1251960, Note_on_c, 0, 55, 0
2, 1251968, Note_on_c, 0, 60, 0
2, 1252100, Note_on_c, 0, 71, 0
2, 1252124, Note_on_c, 0, 72, 85
2, 1252124, Note_on_c, 0, 43, 70
2, 1252148, Note_on_c, 0, 43, 0
2, 1252148, Control_c, 0, 64, 88
2, 1252160, Control_c, 0, 64, 56
2, 1252168, Note_on_c, 0, 64, 0
2, 1252176, Control_c, 0, 64, 40
2, 1252192, Control_c, 0, 64, 0
2, 1252208, Note_on_c, 0, 72, 0
2, 1252316, Note_on_c, 0, 67, 81
2, 1252316, Note_on_c, 0, 48, 50
2, 1252320, Note_on_c, 0, 60, 68
2, 1252324, Note_on_c, 0, 64, 64
2, 1252344, Note_on_c, 0, 60, 0
2, 1252364, Note_on_c, 0, 48, 0
2, 1252372, Note_on_c, 0, 64, 0
2, 1252376, Note_on_c, 0, 67, 0
2, 1252492, Control_c, 0, 64, 40
2, 1252504, Control_c, 0, 64, 104
2, 1252512, Note_on_c, 0, 60, 70
2, 1252520, Note_on_c, 0, 48, 69
2, 1252520, Control_c, 0, 64, 127
2, 1252524, Note_on_c, 0, 67, 79
2, 1252528, Note_on_c, 0, 64, 66
2, 1252544, Note_on_c, 0, 60, 0
2, 1252552, Note_on_c, 0, 48, 0
2, 1252708, Note_on_c, 0, 43, 75
2, 1252712, Note_on_c, 0, 64, 0
2, 1252748, Control_c, 0, 64, 104
2, 1252760, Note_on_c, 0, 67, 0
2, 1252760, Control_c, 0, 64, 88
2, 1252764, Note_on_c, 0, 43, 0
2, 1252776, Control_c, 0, 64, 56
2, 1252792, Control_c, 0, 64, 40
2, 1252808, Control_c, 0, 64, 24
2, 1252836, Control_c, 0, 64, 0
2, 1252900, Note_on_c, 0, 68, 91
2, 1252900, Note_on_c, 0, 63, 73
2, 1252904, Note_on_c, 0, 51, 76
2, 1252904, Note_on_c, 0, 60, 70
2, 1252932, Note_on_c, 0, 60, 0
2, 1252948, Note_on_c, 0, 51, 0
2, 1252956, Note_on_c, 0, 63, 0
2, 1252980, Note_on_c, 0, 68, 0
2, 1253112, Note_on_c, 0, 51, 83
2, 1253116, Note_on_c, 0, 60, 75
2, 1253116, Note_on_c, 0, 68, 90
2, 1253116, Note_on_c, 0, 63, 75
2, 1253120, Control_c, 0, 64, 40
2, 1253136, Control_c, 0, 64, 104
2, 1253140, Note_on_c, 0, 60, 0
2, 1253152, Control_c, 0, 64, 127
2, 1253168, Note_on_c, 0, 51, 0
2, 1253284, Note_on_c, 0, 68, 0
2, 1253284, Note_on_c, 0, 42, 73
2, 1253288, Note_on_c, 0, 63, 0
2, 1253348, Note_on_c, 0, 42, 0
2, 1253420, Control_c, 0, 64, 104
2, 1253436, Control_c, 0, 64, 72
2, 1253452, Control_c, 0, 64, 56
2, 1253464, Control_c, 0, 64, 40
2, 1253476, Note_on_c, 0, 68, 83
2, 1253476, Note_on_c, 0, 63, 80
2, 1253480, Control_c, 0, 64, 24
2, 1253484, Note_on_c, 0, 51, 82
2, 1253484, Note_on_c, 0, 60, 80
2, 1253512, Note_on_c, 0, 60, 0
2, 1253512, Control_c, 0, 64, 0
2, 1253520, Note_on_c, 0, 51, 0
2, 1253544, Note_on_c, 0, 63, 0
2, 1253568, Note_on_c, 0, 68, 0
2, 1253676, Note_on_c, 0, 68, 87
2, 1253676, Control_c, 0, 64, 72
2, 1253680, Note_on_c, 0, 63, 71
2, 1253684, Note_on_c, 0, 51, 85
2, 1253688, Note_on_c, 0, 60, 77
2, 1253692, Control_c, 0, 64, 127
2, 1253712, Note_on_c, 0, 60, 0
2, 1253736, Note_on_c, 0, 51, 0
2, 1253832, Note_on_c, 0, 68, 0
2, 1253840, Note_on_c, 0, 63, 0
2, 1253864, Note_on_c, 0, 42, 74
2, 1253904, Control_c, 0, 64, 104
2, 1253916, Control_c, 0, 64, 72
2, 1253924, Note_on_c, 0, 42, 0
2, 1253928, Control_c, 0, 64, 56
2, 1253944, Control_c, 0, 64, 24
2, 1253960, Note_on_c, 0, 70, 82
2, 1253960, Control_c, 0, 64, 0
2, 1254052, Note_on_c, 0, 72, 96
2, 1254056, Note_on_c, 0, 56, 80
2, 1254056, Note_on_c, 0, 63, 80
2, 1254064, Note_on_c, 0, 44, 53
2, 1254072, Note_on_c, 0, 70, 0
2, 1254096, Note_on_c, 0, 44, 0
2, 1254104, Note_on_c, 0, 56, 0
2, 1254116, Note_on_c, 0, 63, 0
2, 1254152, Note_on_c, 0, 72, 0
2, 1254248, Note_on_c, 0, 72, 96
2, 1254248, Note_on_c, 0, 61, 78
2, 1254260, Note_on_c, 0, 56, 81
2, 1254264, Note_on_c, 0, 44, 75
2, 1254276, Control_c, 0, 64, 88
2, 1254288, Control_c, 0, 64, 127
2, 1254320, Note_on_c, 0, 56, 0
2, 1254328, Note_on_c, 0, 44, 0
2, 1254380, Note_on_c, 0, 72, 0
2, 1254396, Note_on_c, 0, 61, 0
2, 1254444, Note_on_c, 0, 73, 91
2, 1254444, Note_on_c, 0, 41, 75
2, 1254484, Control_c, 0, 64, 88
2, 1254500, Control_c, 0, 64, 56
2, 1254504, Note_on_c, 0, 41, 0
2, 1254516, Control_c, 0, 64, 24
2, 1254528, Control_c, 0, 64, 0
2, 1254540, Note_on_c, 0, 73, 0
2, 1254620, Note_on_c, 0, 68, 89
2, 1254628, Note_on_c, 0, 61, 67
2, 1254632, Note_on_c, 0, 49, 81
2, 1254636, Note_on_c, 0, 56, 72
2, 1254676, Note_on_c, 0, 61, 0
2, 1254680, Note_on_c, 0, 56, 0
2, 1254688, Note_on_c, 0, 49, 0
2, 1254708, Note_on_c, 0, 68, 0
2, 1254828, Note_on_c, 0, 68, 90
2, 1254832, Note_on_c, 0, 61, 77
2, 1254832, Note_on_c, 0, 56, 72
2, 1254836, Note_on_c, 0, 49, 81
2, 1254844, Control_c, 0, 64, 56
2, 1254860, Control_c, 0, 64, 127
2, 1254908, Note_on_c, 0, 56, 0
2, 1254972, Note_on_c, 0, 49, 0
2, 1255000, Note_on_c, 0, 61, 0
2, 1255028, Note_on_c, 0, 41, 76
2, 1255084, Control_c, 0, 64, 104
2, 1255088, Note_on_c, 0, 41, 0
2, 1255100, Control_c, 0, 64, 72
2, 1255112, Control_c, 0, 64, 40
2, 1255116, Note_on_c, 0, 68, 0
2, 1255128, Control_c, 0, 64, 24
2, 1255160, Control_c, 0, 64, 0
2, 1255220, Note_on_c, 0, 70, 88
2, 1255224, Note_on_c, 0, 68, 78
2, 1255224, Note_on_c, 0, 62, 80
2, 1255228, Note_on_c, 0, 56, 79
2, 1255228, Note_on_c, 0, 46, 83
2, 1255272, Note_on_c, 0, 56, 0
2, 1255276, Note_on_c, 0, 62, 0
2, 1255276, Note_on_c, 0, 46, 0
2, 1255280, Note_on_c, 0, 68, 0
2, 1255300, Note_on_c, 0, 70, 0
2, 1255424, Note_on_c, 0, 70, 95
2, 1255436, Note_on_c, 0, 62, 84
2, 1255436, Note_on_c, 0, 68, 75
2, 1255436, Note_on_c, 0, 56, 84
2, 1255440, Note_on_c, 0, 46, 87
2, 1255444, Control_c, 0, 64, 56
2, 1255460, Control_c, 0, 64, 127
2, 1255492, Note_on_c, 0, 56, 0
2, 1255516, Note_on_c, 0, 46, 0
2, 1255592, Note_on_c, 0, 62, 0
2, 1255596, Note_on_c, 0, 70, 0
2, 1255600, Note_on_c, 0, 41, 80
2, 1255604, Note_on_c, 0, 68, 0
2, 1255676, Note_on_c, 0, 41, 0
2, 1255740, Control_c, 0, 64, 104
2, 1255760, Control_c, 0, 64, 88
2, 1255772, Control_c, 0, 64, 72
2, 1255784, Note_on_c, 0, 70, 88
2, 1255784, Note_on_c, 0, 46, 85
2, 1255788, Note_on_c, 0, 56, 83
2, 1255788, Note_on_c, 0, 68, 83
2, 1255792, Note_on_c, 0, 62, 90
2, 1255804, Control_c, 0, 64, 56
2, 1255848, Control_c, 0, 64, 40
2, 1255860, Note_on_c, 0, 62, 0
2, 1255860, Note_on_c, 0, 56, 0
2, 1255860, Note_on_c, 0, 46, 0
2, 1255872, Note_on_c, 0, 70, 0
2, 1255872, Note_on_c, 0, 68, 0
2, 1255892, Control_c, 0, 64, 0
2, 1255972, Note_on_c, 0, 70, 95
2, 1255976, Note_on_c, 0, 68, 87
2, 1255976, Note_on_c, 0, 62, 92
2, 1255980, Note_on_c, 0, 46, 82
2, 1255984, Note_on_c, 0, 56, 77
2, 1256028, Control_c, 0, 64, 56
2, 1256040, Control_c, 0, 64, 127
2, 1256104, Note_on_c, 0, 56, 0
2, 1256156, Note_on_c, 0, 41, 72
2, 1256164, Note_on_c, 0, 46, 0
2, 1256192, Note_on_c, 0, 70, 0
2, 1256204, Note_on_c, 0, 68, 0
2, 1256208, Note_on_c, 0, 62, 0
2, 1256208, Note_on_c, 0, 41, 0
2, 1256232, Note_on_c, 0, 72, 100
2, 1256308, Note_on_c, 0, 72, 0
2, 1256312, Control_c, 0, 64, 104
2, 1256328, Note_on_c, 0, 46, 97
2, 1256328, Control_c, 0, 64, 72
2, 1256332, Note_on_c, 0, 34, 78
2, 1256340, Control_c, 0, 64, 56
2, 1256344, Note_on_c, 0, 74, 100
2, 1256348, Note_on_c, 0, 62, 87
2, 1256348, Note_on_c, 0, 68, 84
2, 1256356, Control_c, 0, 64, 40
2, 1256368, Note_on_c, 0, 46, 0
2, 1256372, Note_on_c, 0, 62, 0
2, 1256372, Control_c, 0, 64, 0
2, 1256376, Note_on_c, 0, 34, 0
2, 1256428, Note_on_c, 0, 68, 0
2, 1256452, Note_on_c, 0, 74, 0
2, 1256552, Note_on_c, 0, 74, 96
2, 1256556, Note_on_c, 0, 46, 96
2, 1256556, Note_on_c, 0, 34, 99
2, 1256556, Note_on_c, 0, 62, 85
2, 1256560, Note_on_c, 0, 68, 68
2, 1256580, Control_c, 0, 64, 24
2, 1256596, Control_c, 0, 64, 127
2, 1256604, Note_on_c, 0, 46, 0
2, 1256612, Note_on_c, 0, 34, 0
2, 1256624, Note_on_c, 0, 62, 0
2, 1256648, Note_on_c, 0, 68, 0
2, 1256648, Note_on_c, 0, 74, 0
2, 1256760, Note_on_c, 0, 75, 94
2, 1256760, Note_on_c, 0, 67, 71
2, 1256772, Note_on_c, 0, 63, 67
2, 1256808, Note_on_c, 0, 67, 0
2, 1256832, Note_on_c, 0, 63, 0
2, 1256852, Note_on_c, 0, 39, 88
2, 1256856, Note_on_c, 0, 51, 96
2, 1256864, Note_on_c, 0, 75, 0
2, 1256896, Note_on_c, 0, 51, 0
2, 1256896, Control_c, 0, 64, 72
2, 1256908, Note_on_c, 0, 39, 0
2, 1256912, Control_c, 0, 64, 40
2, 1256924, Control_c, 0, 64, 0
2, 1256932, Note_on_c, 0, 63, 77
2, 1256936, Note_on_c, 0, 70, 80
2, 1256940, Note_on_c, 0, 67, 78
2, 1256960, Note_on_c, 0, 39, 67
2, 1256960, Note_on_c, 0, 51, 99
2, 1257004, Note_on_c, 0, 51, 0
2, 1257008, Note_on_c, 0, 67, 0
2, 1257012, Note_on_c, 0, 39, 0
2, 1257012, Note_on_c, 0, 63, 0
2, 1257044, Note_on_c, 0, 70, 0
2, 1257132, Control_c, 0, 64, 40
2, 1257148, Note_on_c, 0, 51, 98
2, 1257148, Note_on_c, 0, 39, 84
2, 1257152, Note_on_c, 0, 70, 74
2, 1257152, Control_c, 0, 64, 127
2, 1257156, Note_on_c, 0, 63, 71
2, 1257156, Note_on_c, 0, 67, 73
2, 1257196, Note_on_c, 0, 51, 0
2, 1257200, Note_on_c, 0, 39, 0
2, 1257296, Note_on_c, 0, 63, 0
2, 1257296, Note_on_c, 0, 70, 0
2, 1257328, Note_on_c, 0, 53, 95
2, 1257340, Note_on_c, 0, 41, 86
2, 1257344, Control_c, 0, 64, 104
2, 1257360, Control_c, 0, 64, 72
2, 1257376, Control_c, 0, 64, 40
2, 1257384, Note_on_c, 0, 41, 0
2, 1257384, Note_on_c, 0, 53, 0
2, 1257392, Control_c, 0, 64, 0
2, 1257404, Note_on_c, 0, 67, 0
2, 1257520, Note_on_c, 0, 70, 79
2, 1257520, Note_on_c, 0, 55, 94
2, 1257528, Note_on_c, 0, 63, 62
2, 1257528, Note_on_c, 0, 43, 83
2, 1257568, Note_on_c, 0, 43, 0
2, 1257576, Note_on_c, 0, 55, 0
2, 1257596, Note_on_c, 0, 63, 0
2, 1257628, Note_on_c, 0, 70, 0
2, 1257724, Note_on_c, 0, 70, 80
2, 1257732, Note_on_c, 0, 55, 97
2, 1257732, Control_c, 0, 64, 40
2, 1257736, Note_on_c, 0, 63, 78
2, 1257744, Note_on_c, 0, 43, 90
2, 1257748, Control_c, 0, 64, 127
2, 1257792, Note_on_c, 0, 43, 0
2, 1257792, Note_on_c, 0, 55, 0
2, 1257876, Note_on_c, 0, 63, 0
2, 1257920, Note_on_c, 0, 53, 92
2, 1257928, Note_on_c, 0, 41, 87
2, 1257952, Note_on_c, 0, 70, 0
2, 1257960, Control_c, 0, 64, 88
2, 1257976, Control_c, 0, 64, 72
2, 1257980, Note_on_c, 0, 53, 0
2, 1257988, Note_on_c, 0, 41, 0
2, 1257988, Control_c, 0, 64, 40
2, 1258004, Control_c, 0, 64, 24
2, 1258016, Note_on_c, 0, 72, 92
2, 1258032, Control_c, 0, 64, 0
2, 1258076, Note_on_c, 0, 72, 0
2, 1258104, Note_on_c, 0, 70, 85
2, 1258116, Note_on_c, 0, 53, 93
2, 1258116, Note_on_c, 0, 68, 70
2, 1258120, Note_on_c, 0, 62, 70
2, 1258124, Note_on_c, 0, 41, 87
2, 1258168, Note_on_c, 0, 53, 0
2, 1258172, Note_on_c, 0, 62, 0
2, 1258172, Note_on_c, 0, 41, 0
2, 1258208, Note_on_c, 0, 70, 0
2, 1258220, Note_on_c, 0, 68, 0
2, 1258332, Note_on_c, 0, 70, 94
2, 1258332, Note_on_c, 0, 53, 100
2, 1258332, Note_on_c, 0, 68, 70
2, 1258332, Control_c, 0, 64, 24
2, 1258340, Note_on_c, 0, 41, 97
2, 1258344, Note_on_c, 0, 62, 75
2, 1258348, Control_c, 0, 64, 104
2, 1258364, Control_c, 0, 64, 127
2, 1258380, Note_on_c, 0, 68, 0
2, 1258488, Note_on_c, 0, 62, 0
2, 1258492, Note_on_c, 0, 70, 0
2, 1258532, Note_on_c, 0, 72, 87
2, 1258564, Note_on_c, 0, 53, 0
2, 1258568, Note_on_c, 0, 41, 0
2, 1258572, Control_c, 0, 64, 88
2, 1258588, Control_c, 0, 64, 72
2, 1258604, Control_c, 0, 64, 40
2, 1258620, Note_on_c, 0, 72, 0
2, 1258620, Control_c, 0, 64, 24
2, 1258712, Note_on_c, 0, 74, 91
2, 1258716, Note_on_c, 0, 68, 67
2, 1258720, Note_on_c, 0, 62, 70
2, 1258724, Note_on_c, 0, 53, 87
2, 1258728, Note_on_c, 0, 41, 84
2, 1258736, Control_c, 0, 64, 0
2, 1258772, Note_on_c, 0, 53, 0
2, 1258780, Note_on_c, 0, 41, 0
2, 1258784, Note_on_c, 0, 62, 0
2, 1258804, Note_on_c, 0, 68, 0
2, 1258808, Note_on_c, 0, 74, 0
2, 1258928, Note_on_c, 0, 74, 93
2, 1258932, Note_on_c, 0, 55, 96
2, 1258932, Note_on_c, 0, 62, 81
2, 1258932, Control_c, 0, 64, 72
2, 1258936, Note_on_c, 0, 43, 97
2, 1258940, Note_on_c, 0, 70, 65
2, 1258948, Control_c, 0, 64, 127
2, 1258984, Note_on_c, 0, 43, 0
2, 1258992, Note_on_c, 0, 62, 0
2, 1258996, Note_on_c, 0, 55, 0
2, 1259012, Note_on_c, 0, 74, 0
2, 1259064, Note_on_c, 0, 70, 0
2, 1259140, Note_on_c, 0, 75, 94
2, 1259152, Note_on_c, 0, 63, 64
2, 1259200, Note_on_c, 0, 56, 90
2, 1259200, Note_on_c, 0, 44, 87
2, 1259216, Note_on_c, 0, 63, 0
2, 1259224, Note_on_c, 0, 75, 0
2, 1259236, Note_on_c, 0, 56, 0
2, 1259240, Note_on_c, 0, 44, 0
2, 1259248, Control_c, 0, 64, 104
2, 1259264, Control_c, 0, 64, 72
2, 1259276, Control_c, 0, 64, 56
2, 1259292, Control_c, 0, 64, 40
2, 1259300, Note_on_c, 0, 58, 100
2, 1259300, Note_on_c, 0, 46, 93
2, 1259308, Control_c, 0, 64, 24
2, 1259312, Note_on_c, 0, 63, 72
2, 1259316, Note_on_c, 0, 70, 88
2, 1259324, Control_c, 0, 64, 0
2, 1259344, Note_on_c, 0, 67, 57
2, 1259348, Note_on_c, 0, 46, 0
2, 1259348, Note_on_c, 0, 58, 0
2, 1259380, Note_on_c, 0, 63, 0
2, 1259388, Note_on_c, 0, 67, 0
2, 1259408, Note_on_c, 0, 70, 0
2, 1259520, Note_on_c, 0, 58, 97
2, 1259524, Note_on_c, 0, 46, 86
2, 1259532, Note_on_c, 0, 70, 77
2, 1259540, Note_on_c, 0, 63, 60
2, 1259544, Note_on_c, 0, 67, 68
2, 1259548, Control_c, 0, 64, 104
2, 1259560, Control_c, 0, 64, 127
2, 1259564, Note_on_c, 0, 58, 0
2, 1259568, Note_on_c, 0, 46, 0
2, 1259656, Note_on_c, 0, 63, 0
2, 1259708, Note_on_c, 0, 56, 95
2, 1259712, Note_on_c, 0, 70, 0
2, 1259712, Note_on_c, 0, 44, 84
2, 1259756, Note_on_c, 0, 56, 0
2, 1259756, Note_on_c, 0, 67, 0
2, 1259768, Note_on_c, 0, 44, 0
2, 1259788, Control_c, 0, 64, 104
2, 1259804, Control_c, 0, 64, 88
2, 1259816, Control_c, 0, 64, 56
2, 1259844, Control_c, 0, 64, 40
2, 1259892, Control_c, 0, 64, 24
2, 1259900, Note_on_c, 0, 55, 92
2, 1259904, Note_on_c, 0, 70, 85
2, 1259904, Note_on_c, 0, 43, 80
2, 1259908, Note_on_c, 0, 63, 70
2, 1259908, Control_c, 0, 64, 0
2, 1259936, Note_on_c, 0, 43, 0
2, 1259956, Note_on_c, 0, 55, 0
2, 1259976, Note_on_c, 0, 63, 0
2, 1260000, Note_on_c, 0, 70, 0
2, 1260084, Control_c, 0, 64, 24
2, 1260100, Note_on_c, 0, 70, 92
2, 1260100, Note_on_c, 0, 68, 70
2, 1260100, Control_c, 0, 64, 88
2, 1260104, Note_on_c, 0, 63, 74
2, 1260104, Note_on_c, 0, 55, 99
2, 1260112, Note_on_c, 0, 43, 88
2, 1260116, Control_c, 0, 64, 127
2, 1260148, Note_on_c, 0, 68, 0
2, 1260164, Note_on_c, 0, 55, 0
2, 1260168, Note_on_c, 0, 43, 0
2, 1260260, Note_on_c, 0, 63, 0
2, 1260300, Note_on_c, 0, 53, 94
2, 1260312, Note_on_c, 0, 41, 72
2, 1260328, Control_c, 0, 64, 104
2, 1260332, Note_on_c, 0, 70, 0
2, 1260340, Note_on_c, 0, 41, 0
2, 1260340, Control_c, 0, 64, 88
2, 1260352, Note_on_c, 0, 53, 0
2, 1260356, Control_c, 0, 64, 72
2, 1260372, Control_c, 0, 64, 56
2, 1260384, Control_c, 0, 64, 40
2, 1260392, Note_on_c, 0, 72, 93
2, 1260432, Control_c, 0, 64, 24
2, 1260468, Note_on_c, 0, 72, 0
2, 1260476, Control_c, 0, 64, 0
2, 1260480, Note_on_c, 0, 53, 91
2, 1260484, Note_on_c, 0, 70, 91
2, 1260484, Note_on_c, 0, 41, 82
2, 1260492, Note_on_c, 0, 68, 69
2, 1260504, Note_on_c, 0, 62, 71
2, 1260532, Note_on_c, 0, 53, 0
2, 1260548, Note_on_c, 0, 62, 0
2, 1260548, Note_on_c, 0, 41, 0
2, 1260564, Note_on_c, 0, 68, 0
2, 1260584, Note_on_c, 0, 70, 0
2, 1260672, Control_c, 0, 64, 56
2, 1260680, Note_on_c, 0, 70, 94
2, 1260684, Note_on_c, 0, 53, 94
2, 1260684, Control_c, 0, 64, 127
2, 1260692, Note_on_c, 0, 41, 79
2, 1260696, Note_on_c, 0, 62, 61
2, 1260696, Note_on_c, 0, 68, 48
2, 1260716, Note_on_c, 0, 53, 0
2, 1260720, Note_on_c, 0, 41, 0
2, 1260824, Note_on_c, 0, 62, 0
2, 1260848, Note_on_c, 0, 68, 0
2, 1260848, Note_on_c, 0, 70, 0
2, 1260864, Note_on_c, 0, 34, 65
2, 1260868, Note_on_c, 0, 46, 74
2, 1260880, Note_on_c, 0, 72, 87
2, 1260896, Note_on_c, 0, 46, 0
2, 1260896, Note_on_c, 0, 34, 0
2, 1260924, Control_c, 0, 64, 104
2, 1260940, Control_c, 0, 64, 88
2, 1260956, Control_c, 0, 64, 72
2, 1260964, Note_on_c, 0, 72, 0
2, 1260972, Control_c, 0, 64, 56
2, 1260984, Control_c, 0, 64, 40
2, 1261044, Control_c, 0, 64, 24
2, 1261060, Note_on_c, 0, 74, 83
2, 1261060, Note_on_c, 0, 70, 65
2, 1261064, Note_on_c, 0, 62, 65
2, 1261064, Note_on_c, 0, 58, 63
2, 1261068, Note_on_c, 0, 55, 61
2, 1261088, Control_c, 0, 64, 0
2, 1261108, Note_on_c, 0, 62, 0
2, 1261112, Note_on_c, 0, 55, 0
2, 1261120, Note_on_c, 0, 58, 0
2, 1261132, Note_on_c, 0, 74, 0
2, 1261144, Note_on_c, 0, 70, 0
2, 1261228, Note_on_c, 0, 58, 65
2, 1261240, Note_on_c, 0, 55, 68
2, 1261252, Note_on_c, 0, 74, 82
2, 1261256, Note_on_c, 0, 62, 64
2, 1261260, Note_on_c, 0, 70, 68
2, 1261264, Note_on_c, 0, 55, 0
2, 1261268, Control_c, 0, 64, 88
2, 1261276, Note_on_c, 0, 58, 0
2, 1261284, Control_c, 0, 64, 127
2, 1261296, Note_on_c, 0, 62, 0
2, 1261316, Note_on_c, 0, 74, 0
2, 1261352, Note_on_c, 0, 70, 0
2, 1261436, Note_on_c, 0, 34, 63
2, 1261440, Note_on_c, 0, 63, 75
2, 1261440, Note_on_c, 0, 46, 56
2, 1261440, Note_on_c, 0, 75, 87
2, 1261472, Note_on_c, 0, 34, 0
2, 1261476, Note_on_c, 0, 46, 0
2, 1261496, Note_on_c, 0, 63, 0
2, 1261540, Note_on_c, 0, 75, 0
2, 1261628, Control_c, 0, 64, 88
2, 1261632, Note_on_c, 0, 58, 51
2, 1261636, Note_on_c, 0, 75, 80
2, 1261640, Note_on_c, 0, 63, 77
2, 1261644, Control_c, 0, 64, 72
2, 1261648, Note_on_c, 0, 55, 63
2, 1261648, Note_on_c, 0, 70, 77
2, 1261660, Control_c, 0, 64, 56
2, 1261676, Control_c, 0, 64, 24
2, 1261688, Note_on_c, 0, 55, 0
2, 1261688, Note_on_c, 0, 58, 0
2, 1261688, Control_c, 0, 64, 0
2, 1261708, Note_on_c, 0, 63, 0
2, 1261724, Note_on_c, 0, 75, 0
2, 1261732, Note_on_c, 0, 70, 0
2, 1261816, Note_on_c, 0, 58, 67
2, 1261824, Control_c, 0, 64, 88
2, 1261828, Note_on_c, 0, 63, 83
2, 1261828, Note_on_c, 0, 55, 64
2, 1261828, Note_on_c, 0, 75, 80
2, 1261832, Note_on_c, 0, 70, 71
2, 1261840, Control_c, 0, 64, 127
2, 1261852, Note_on_c, 0, 55, 0
2, 1261864, Note_on_c, 0, 58, 0
2, 1261876, Note_on_c, 0, 70, 0
2, 1261880, Note_on_c, 0, 63, 0
2, 1261904, Note_on_c, 0, 75, 0
2, 1262016, Note_on_c, 0, 74, 84
2, 1262020, Note_on_c, 0, 77, 85
2, 1262024, Note_on_c, 0, 65, 71
2, 1262024, Note_on_c, 0, 46, 46
2, 1262048, Note_on_c, 0, 46, 0
2, 1262072, Note_on_c, 0, 65, 0
2, 1262088, Note_on_c, 0, 74, 0
2, 1262096, Control_c, 0, 64, 104
2, 1262100, Note_on_c, 0, 77, 0
2, 1262112, Control_c, 0, 64, 88
2, 1262128, Control_c, 0, 64, 72
2, 1262172, Control_c, 0, 64, 56
2, 1262196, Note_on_c, 0, 58, 69
2, 1262196, Note_on_c, 0, 63, 70
2, 1262212, Note_on_c, 0, 79, 92
2, 1262212, Note_on_c, 0, 67, 86
2, 1262212, Note_on_c, 0, 75, 82
2, 1262216, Control_c, 0, 64, 40
2, 1262240, Note_on_c, 0, 63, 0
2, 1262248, Note_on_c, 0, 58, 0
2, 1262260, Control_c, 0, 64, 24
2, 1262264, Note_on_c, 0, 67, 0
2, 1262276, Control_c, 0, 64, 0
2, 1262280, Note_on_c, 0, 75, 0
2, 1262288, Note_on_c, 0, 79, 0
2, 1262368, Control_c, 0, 64, 56
2, 1262380, Control_c, 0, 64, 127
2, 1262396, Note_on_c, 0, 63, 83
2, 1262404, Note_on_c, 0, 79, 85
2, 1262404, Note_on_c, 0, 58, 70
2, 1262408, Note_on_c, 0, 75, 77
2, 1262408, Note_on_c, 0, 67, 82
2, 1262440, Note_on_c, 0, 63, 0
2, 1262452, Note_on_c, 0, 58, 0
2, 1262468, Note_on_c, 0, 75, 0
2, 1262472, Note_on_c, 0, 79, 0
2, 1262484, Note_on_c, 0, 67, 0
2, 1262592, Note_on_c, 0, 46, 80
2, 1262592, Note_on_c, 0, 34, 71
2, 1262608, Note_on_c, 0, 77, 87
2, 1262616, Note_on_c, 0, 74, 79
2, 1262616, Note_on_c, 0, 65, 76
2, 1262620, Note_on_c, 0, 34, 0
2, 1262620, Note_on_c, 0, 46, 0
2, 1262672, Note_on_c, 0, 65, 0
2, 1262688, Note_on_c, 0, 74, 0
2, 1262700, Note_on_c, 0, 77, 0
2, 1262728, Control_c, 0, 64, 104
2, 1262740, Control_c, 0, 64, 88
2, 1262756, Control_c, 0, 64, 72
2, 1262784, Note_on_c, 0, 58, 72
2, 1262784, Control_c, 0, 64, 56
2, 1262788, Note_on_c, 0, 77, 92
2, 1262788, Note_on_c, 0, 74, 82
2, 1262792, Note_on_c, 0, 62, 74
2, 1262792, Note_on_c, 0, 65, 81
2, 1262820, Note_on_c, 0, 62, 0
2, 1262832, Control_c, 0, 64, 40
2, 1262840, Note_on_c, 0, 58, 0
2, 1262844, Control_c, 0, 64, 24
2, 1262856, Note_on_c, 0, 65, 0
2, 1262860, Control_c, 0, 64, 0
2, 1262876, Note_on_c, 0, 74, 0
2, 1262884, Note_on_c, 0, 77, 0
2, 1262964, Control_c, 0, 64, 40
2, 1262976, Note_on_c, 0, 77, 88
2, 1262980, Note_on_c, 0, 58, 85
2, 1262980, Note_on_c, 0, 62, 80
2, 1262980, Note_on_c, 0, 74, 81
2, 1262980, Control_c, 0, 64, 104
2, 1262984, Note_on_c, 0, 65, 78
2, 1262996, Control_c, 0, 64, 127
2, 1263004, Note_on_c, 0, 62, 0
2, 1263016, Note_on_c, 0, 58, 0
2, 1263060, Note_on_c, 0, 65, 0
2, 1263080, Note_on_c, 0, 74, 0
2, 1263080, Note_on_c, 0, 77, 0
2, 1263168, Note_on_c, 0, 46, 84
2, 1263172, Note_on_c, 0, 34, 71
2, 1263180, Note_on_c, 0, 77, 86
2, 1263180, Note_on_c, 0, 74, 82
2, 1263184, Note_on_c, 0, 65, 80
2, 1263196, Note_on_c, 0, 46, 0
2, 1263200, Note_on_c, 0, 34, 0
2, 1263248, Note_on_c, 0, 65, 0
2, 1263272, Note_on_c, 0, 77, 0
2, 1263272, Note_on_c, 0, 74, 0
2, 1263352, Note_on_c, 0, 77, 85
2, 1263360, Note_on_c, 0, 74, 88
2, 1263360, Note_on_c, 0, 62, 77
2, 1263360, Note_on_c, 0, 65, 79
2, 1263360, Note_on_c, 0, 58, 72
2, 1263400, Note_on_c, 0, 62, 0
2, 1263408, Note_on_c, 0, 58, 0
2, 1263412, Note_on_c, 0, 65, 0
2, 1263432, Note_on_c, 0, 74, 0
2, 1263432, Note_on_c, 0, 77, 0
2, 1263504, Control_c, 0, 64, 56
2, 1263520, Control_c, 0, 64, 0
2, 1263552, Note_on_c, 0, 63, 93
2, 1263560, Note_on_c, 0, 58, 76
2, 1263560, Note_on_c, 0, 75, 89
2, 1263564, Note_on_c, 0, 79, 90
2, 1263564, Note_on_c, 0, 67, 79
2, 1263580, Control_c, 0, 64, 40
2, 1263596, Note_on_c, 0, 63, 0
2, 1263596, Control_c, 0, 64, 127
2, 1263604, Note_on_c, 0, 58, 0
2, 1263612, Note_on_c, 0, 67, 0
2, 1263628, Note_on_c, 0, 79, 0
2, 1263652, Note_on_c, 0, 75, 0
2, 1263748, Note_on_c, 0, 80, 95
2, 1263748, Note_on_c, 0, 68, 99
2, 1263748, Note_on_c, 0, 77, 70
2, 1263760, Note_on_c, 0, 46, 87
2, 1263776, Note_on_c, 0, 34, 34
2, 1263784, Note_on_c, 0, 46, 0
2, 1263800, Note_on_c, 0, 34, 0
2, 1263808, Note_on_c, 0, 68, 0
2, 1263816, Note_on_c, 0, 77, 0
2, 1263824, Note_on_c, 0, 80, 0
2, 1263896, Control_c, 0, 64, 104
2, 1263940, Note_on_c, 0, 82, 88
2, 1263948, Note_on_c, 0, 70, 85
2, 1263952, Note_on_c, 0, 79, 92
2, 1263952, Note_on_c, 0, 58, 76
2, 1263952, Note_on_c, 0, 63, 80
2, 1263992, Note_on_c, 0, 63, 0
2, 1264004, Note_on_c, 0, 58, 0
2, 1264028, Note_on_c, 0, 70, 0
2, 1264032, Note_on_c, 0, 79, 0
2, 1264032, Note_on_c, 0, 82, 0
2, 1264044, Control_c, 0, 64, 56
2, 1264060, Control_c, 0, 64, 0
2, 1264136, Note_on_c, 0, 82, 95
2, 1264136, Note_on_c, 0, 70, 100
2, 1264140, Note_on_c, 0, 63, 86
2, 1264148, Note_on_c, 0, 58, 67
2, 1264148, Note_on_c, 0, 79, 70
2, 1264164, Control_c, 0, 64, 72
2, 1264176, Note_on_c, 0, 79, 0
2, 1264176, Note_on_c, 0, 63, 0
2, 1264176, Note_on_c, 0, 58, 0
2, 1264180, Control_c, 0, 64, 127
2, 1264204, Note_on_c, 0, 82, 0
2, 1264220, Note_on_c, 0, 70, 0
2, 1264324, Note_on_c, 0, 34, 71
2, 1264328, Note_on_c, 0, 80, 93
2, 1264332, Note_on_c, 0, 77, 77
2, 1264332, Note_on_c, 0, 46, 71
2, 1264336, Note_on_c, 0, 68, 77
2, 1264360, Note_on_c, 0, 46, 0
2, 1264364, Note_on_c, 0, 34, 0
2, 1264392, Note_on_c, 0, 77, 0
2, 1264424, Note_on_c, 0, 68, 0
2, 1264432, Note_on_c, 0, 80, 0
2, 1264452, Control_c, 0, 64, 104
2, 1264480, Control_c, 0, 64, 88
2, 1264512, Note_on_c, 0, 63, 82
2, 1264512, Control_c, 0, 64, 72
2, 1264516, Note_on_c, 0, 75, 88
2, 1264516, Note_on_c, 0, 79, 92
2, 1264516, Note_on_c, 0, 58, 77
2, 1264516, Note_on_c, 0, 67, 84
2, 1264528, Control_c, 0, 64, 56
2, 1264556, Control_c, 0, 64, 40
2, 1264560, Note_on_c, 0, 63, 0
2, 1264568, Note_on_c, 0, 58, 0
2, 1264568, Note_on_c, 0, 67, 0
2, 1264572, Control_c, 0, 64, 0
2, 1264588, Note_on_c, 0, 79, 0
2, 1264592, Note_on_c, 0, 75, 0
2, 1264704, Note_on_c, 0, 79, 89
2, 1264708, Note_on_c, 0, 63, 85
2, 1264712, Note_on_c, 0, 67, 83
2, 1264712, Note_on_c, 0, 75, 82
2, 1264720, Control_c, 0, 64, 104
2, 1264724, Note_on_c, 0, 58, 72
2, 1264736, Control_c, 0, 64, 127
2, 1264748, Note_on_c, 0, 58, 0
2, 1264752, Note_on_c, 0, 63, 0
2, 1264780, Note_on_c, 0, 67, 0
2, 1264788, Note_on_c, 0, 75, 0
2, 1264796, Note_on_c, 0, 79, 0
2, 1264908, Note_on_c, 0, 34, 70
2, 1264908, Note_on_c, 0, 77, 89
2, 1264916, Note_on_c, 0, 74, 84
2, 1264916, Note_on_c, 0, 46, 72
2, 1264920, Note_on_c, 0, 65, 76
2, 1264936, Note_on_c, 0, 34, 0
2, 1264940, Note_on_c, 0, 46, 0
2, 1264972, Note_on_c, 0, 65, 0
2, 1264972, Control_c, 0, 64, 88
2, 1264988, Control_c, 0, 64, 72
2, 1265000, Note_on_c, 0, 74, 0
2, 1265000, Control_c, 0, 64, 56
2, 1265008, Note_on_c, 0, 77, 0
2, 1265016, Control_c, 0, 64, 40
2, 1265048, Control_c, 0, 64, 24
2, 1265092, Control_c, 0, 64, 0
2, 1265108, Note_on_c, 0, 77, 85
2, 1265108, Note_on_c, 0, 58, 72
2, 1265108, Note_on_c, 0, 62, 74
2, 1265112, Note_on_c, 0, 74, 80
2, 1265116, Note_on_c, 0, 65, 79
2, 1265160, Note_on_c, 0, 62, 0
2, 1265160, Note_on_c, 0, 58, 0
2, 1265172, Note_on_c, 0, 65, 0
2, 1265180, Note_on_c, 0, 74, 0
2, 1265200, Note_on_c, 0, 77, 0
2, 1265296, Note_on_c, 0, 77, 88
2, 1265304, Note_on_c, 0, 74, 86
2, 1265304, Note_on_c, 0, 65, 77
2, 1265304, Control_c, 0, 64, 24
2, 1265316, Note_on_c, 0, 62, 78
2, 1265316, Control_c, 0, 64, 72
2, 1265320, Note_on_c, 0, 58, 71
2, 1265332, Control_c, 0, 64, 127
2, 1265356, Note_on_c, 0, 65, 0
2, 1265364, Note_on_c, 0, 62, 0
2, 1265372, Note_on_c, 0, 77, 0
2, 1265376, Note_on_c, 0, 58, 0
2, 1265380, Note_on_c, 0, 74, 0
2, 1265424, Control_c, 0, 64, 104
2, 1265436, Control_c, 0, 64, 88
2, 1265468, Control_c, 0, 64, 72
2, 1265484, Control_c, 0, 64, 56
2, 1265496, Note_on_c, 0, 78, 84
2, 1265496, Note_on_c, 0, 66, 83
2, 1265508, Note_on_c, 0, 60, 66
2, 1265512, Note_on_c, 0, 72, 67
2, 1265512, Control_c, 0, 64, 40
2, 1265516, Note_on_c, 0, 57, 74
2, 1265528, Control_c, 0, 64, 24
2, 1265540, Note_on_c, 0, 72, 0
2, 1265544, Note_on_c, 0, 57, 0
2, 1265556, Control_c, 0, 64, 0
2, 1265564, Note_on_c, 0, 60, 0
2, 1265564, Note_on_c, 0, 66, 0
2, 1265588, Note_on_c, 0, 78, 0
2, 1265696, Note_on_c, 0, 79, 84
2, 1265704, Note_on_c, 0, 67, 73
2, 1265704, Note_on_c, 0, 71, 70
2, 1265704, Note_on_c, 0, 55, 64
2, 1265716, Note_on_c, 0, 59, 58
2, 1265744, Note_on_c, 0, 59, 0
2, 1265756, Note_on_c, 0, 71, 0
2, 1265756, Note_on_c, 0, 67, 0
2, 1265760, Note_on_c, 0, 79, 0
2, 1265760, Note_on_c, 0, 55, 0
2, 1265900, Note_on_c, 0, 59, 55
2, 1265904, Note_on_c, 0, 79, 92
2, 1265904, Note_on_c, 0, 67, 82
2, 1265908, Note_on_c, 0, 55, 49
2, 1265912, Note_on_c, 0, 71, 75
2, 1265916, Control_c, 0, 64, 56
2, 1265924, Note_on_c, 0, 59, 0
2, 1265932, Control_c, 0, 64, 127
2, 1265936, Note_on_c, 0, 55, 0
2, 1265936, Note_on_c, 0, 71, 0
2, 1265956, Note_on_c, 0, 67, 0
2, 1265984, Note_on_c, 0, 79, 0
2, 1266100, Note_on_c, 0, 43, 72
2, 1266128, Control_c, 0, 64, 104
2, 1266140, Control_c, 0, 64, 72
2, 1266152, Note_on_c, 0, 43, 0
2, 1266156, Control_c, 0, 64, 56
2, 1266172, Control_c, 0, 64, 40
2, 1266188, Control_c, 0, 64, 24
2, 1266232, Control_c, 0, 64, 0
2, 1266276, Note_on_c, 0, 56, 69
2, 1266280, Note_on_c, 0, 71, 78
2, 1266280, Note_on_c, 0, 83, 92
2, 1266284, Note_on_c, 0, 74, 70
2, 1266288, Note_on_c, 0, 62, 63
2, 1266288, Note_on_c, 0, 59, 67
2, 1266316, Note_on_c, 0, 62, 0
2, 1266320, Note_on_c, 0, 59, 0
2, 1266332, Note_on_c, 0, 56, 0
2, 1266336, Note_on_c, 0, 71, 0
2, 1266336, Note_on_c, 0, 83, 0
2, 1266336, Note_on_c, 0, 74, 0
2, 1266472, Note_on_c, 0, 56, 69
2, 1266472, Control_c, 0, 64, 56
2, 1266476, Note_on_c, 0, 83, 94
2, 1266476, Note_on_c, 0, 71, 82
2, 1266480, Note_on_c, 0, 74, 79
2, 1266484, Note_on_c, 0, 62, 51
2, 1266484, Note_on_c, 0, 59, 60
2, 1266488, Control_c, 0, 64, 104
2, 1266500, Control_c, 0, 64, 127
2, 1266508, Note_on_c, 0, 74, 0
2, 1266512, Note_on_c, 0, 62, 0
2, 1266512, Note_on_c, 0, 56, 0
2, 1266524, Note_on_c, 0, 71, 0
2, 1266532, Note_on_c, 0, 59, 0
2, 1266556, Note_on_c, 0, 83, 0
2, 1266672, Note_on_c, 0, 43, 66
2, 1266696, Control_c, 0, 64, 104
2, 1266704, Note_on_c, 0, 43, 0
2, 1266712, Control_c, 0, 64, 72
2, 1266728, Control_c, 0, 64, 56
2, 1266744, Control_c, 0, 64, 40
2, 1266748, Note_on_c, 0, 72, 87
2, 1266748, Note_on_c, 0, 75, 79
2, 1266748, Note_on_c, 0, 84, 83
2, 1266796, Note_on_c, 0, 84, 0
2, 1266800, Note_on_c, 0, 72, 0
2, 1266800, Control_c, 0, 64, 24
2, 1266804, Note_on_c, 0, 75, 0
2, 1266856, Note_on_c, 0, 56, 45
2, 1266860, Note_on_c, 0, 86, 92
2, 1266860, Note_on_c, 0, 59, 56
2, 1266860, Control_c, 0, 64, 0
2, 1266864, Note_on_c, 0, 74, 86
2, 1266864, Note_on_c, 0, 62, 57
2, 1266868, Note_on_c, 0, 77, 88
2, 1266892, Note_on_c, 0, 59, 0
2, 1266896, Note_on_c, 0, 62, 0
2, 1266900, Note_on_c, 0, 56, 0
2, 1266912, Note_on_c, 0, 77, 0
2, 1266916, Note_on_c, 0, 74, 0
2, 1266916, Note_on_c, 0, 86, 0
2, 1267040, Note_on_c, 0, 56, 73
2, 1267040, Control_c, 0, 64, 24
2, 1267048, Note_on_c, 0, 62, 66
2, 1267052, Note_on_c, 0, 86, 94
2, 1267052, Control_c, 0, 64, 72
2, 1267060, Note_on_c, 0, 74, 89
2, 1267060, Note_on_c, 0, 59, 51
2, 1267068, Control_c, 0, 64, 127
2, 1267072, Note_on_c, 0, 62, 0
2, 1267072, Note_on_c, 0, 56, 0
2, 1267080, Note_on_c, 0, 77, 59
2, 1267088, Note_on_c, 0, 59, 0
2, 1267112, Note_on_c, 0, 74, 0
2, 1267120, Note_on_c, 0, 77, 0
2, 1267136, Note_on_c, 0, 86, 0
2, 1267244, Note_on_c, 0, 87, 94
2, 1267248, Note_on_c, 0, 43, 72
2, 1267256, Note_on_c, 0, 79, 72
2, 1267256, Note_on_c, 0, 75, 77
2, 1267264, Control_c, 0, 64, 104
2, 1267272, Note_on_c, 0, 43, 0
2, 1267280, Control_c, 0, 64, 88
2, 1267296, Control_c, 0, 64, 56
2, 1267300, Note_on_c, 0, 79, 0
2, 1267312, Note_on_c, 0, 75, 0
2, 1267312, Control_c, 0, 64, 40
2, 1267320, Note_on_c, 0, 87, 0
2, 1267340, Control_c, 0, 64, 24
2, 1267436, Note_on_c, 0, 84, 90
2, 1267436, Note_on_c, 0, 72, 85
2, 1267440, Note_on_c, 0, 75, 80
2, 1267440, Note_on_c, 0, 55, 57
2, 1267444, Note_on_c, 0, 60, 57
2, 1267444, Control_c, 0, 64, 0
2, 1267468, Note_on_c, 0, 63, 30
2, 1267476, Note_on_c, 0, 55, 0
2, 1267484, Note_on_c, 0, 75, 0
2, 1267484, Note_on_c, 0, 72, 0
2, 1267488, Note_on_c, 0, 84, 0
2, 1267496, Note_on_c, 0, 63, 0
2, 1267508, Note_on_c, 0, 60, 0
2, 1267636, Note_on_c, 0, 63, 57
2, 1267636, Note_on_c, 0, 60, 60
2, 1267640, Control_c, 0, 64, 72
2, 1267644, Note_on_c, 0, 75, 86
2, 1267648, Note_on_c, 0, 72, 94
2, 1267648, Note_on_c, 0, 84, 97
2, 1267652, Note_on_c, 0, 55, 54
2, 1267652, Control_c, 0, 64, 127
2, 1267664, Note_on_c, 0, 63, 0
2, 1267680, Note_on_c, 0, 55, 0
2, 1267684, Note_on_c, 0, 60, 0
2, 1267688, Note_on_c, 0, 75, 0
2, 1267696, Note_on_c, 0, 72, 0
2, 1267724, Note_on_c, 0, 84, 0
2, 1267824, Note_on_c, 0, 43, 73
2, 1267864, Note_on_c, 0, 43, 0
2, 1267880, Control_c, 0, 64, 104
2, 1267896, Control_c, 0, 64, 88
2, 1267908, Control_c, 0, 64, 56
2, 1267940, Control_c, 0, 64, 40
2, 1268000, Control_c, 0, 64, 24
2, 1268012, Note_on_c, 0, 86, 92
2, 1268012, Note_on_c, 0, 56, 57
2, 1268012, Note_on_c, 0, 59, 68
2, 1268012, Note_on_c, 0, 62, 62
2, 1268016, Note_on_c, 0, 74, 92
2, 1268020, Note_on_c, 0, 83, 85
2, 1268052, Note_on_c, 0, 62, 0
2, 1268052, Note_on_c, 0, 59, 0
2, 1268060, Note_on_c, 0, 56, 0
2, 1268068, Note_on_c, 0, 74, 0
2, 1268076, Note_on_c, 0, 83, 0
2, 1268096, Note_on_c, 0, 86, 0
2, 1268104, Control_c, 0, 64, 0
2, 1268220, Note_on_c, 0, 56, 71
2, 1268220, Note_on_c, 0, 86, 96
2, 1268220, Note_on_c, 0, 62, 65
2, 1268220, Note_on_c, 0, 59, 60
2, 1268224, Note_on_c, 0, 74, 92
2, 1268224, Control_c, 0, 64, 40
2, 1268228, Note_on_c, 0, 83, 89
2, 1268240, Control_c, 0, 64, 127
2, 1268248, Note_on_c, 0, 62, 0
2, 1268260, Note_on_c, 0, 56, 0
2, 1268268, Note_on_c, 0, 59, 0
2, 1268276, Note_on_c, 0, 74, 0
2, 1268284, Note_on_c, 0, 83, 0
2, 1268340, Note_on_c, 0, 86, 0
2, 1268416, Note_on_c, 0, 43, 71
2, 1268452, Note_on_c, 0, 43, 0
2, 1268508, Note_on_c, 0, 86, 83
2, 1268508, Note_on_c, 0, 74, 87
2, 1268512, Note_on_c, 0, 83, 76
2, 1268540, Note_on_c, 0, 83, 0
2, 1268540, Note_on_c, 0, 74, 0
2, 1268544, Note_on_c, 0, 86, 0
2, 1268552, Control_c, 0, 64, 104
2, 1268568, Note_on_c, 0, 56, 71
2, 1268568, Control_c, 0, 64, 88
2, 1268576, Note_on_c, 0, 62, 72
2, 1268576, Note_on_c, 0, 59, 69
2, 1268580, Note_on_c, 0, 86, 89
2, 1268584, Control_c, 0, 64, 72
2, 1268588, Note_on_c, 0, 83, 81
2, 1268588, Note_on_c, 0, 74, 87
2, 1268600, Control_c, 0, 64, 56
2, 1268612, Note_on_c, 0, 62, 0
2, 1268616, Note_on_c, 0, 59, 0
2, 1268624, Note_on_c, 0, 56, 0
2, 1268628, Control_c, 0, 64, 40
2, 1268648, Note_on_c, 0, 74, 0
2, 1268656, Control_c, 0, 64, 24
2, 1268660, Note_on_c, 0, 83, 0
2, 1268672, Control_c, 0, 64, 0
2, 1268684, Note_on_c, 0, 86, 0
2, 1268768, Note_on_c, 0, 86, 93
2, 1268772, Note_on_c, 0, 56, 76
2, 1268776, Note_on_c, 0, 74, 90
2, 1268776, Control_c, 0, 64, 40
2, 1268780, Note_on_c, 0, 62, 69
2, 1268780, Note_on_c, 0, 59, 60
2, 1268788, Note_on_c, 0, 83, 64
2, 1268792, Control_c, 0, 64, 127
2, 1268804, Note_on_c, 0, 62, 0
2, 1268812, Note_on_c, 0, 56, 0
2, 1268812, Note_on_c, 0, 83, 0
2, 1268828, Note_on_c, 0, 59, 0
2, 1268832, Note_on_c, 0, 74, 0
2, 1268852, Note_on_c, 0, 86, 0
2, 1268964, Note_on_c, 0, 87, 95
2, 1268968, Note_on_c, 0, 75, 93
2, 1268968, Note_on_c, 0, 43, 71
2, 1268968, Note_on_c, 0, 84, 89
2, 1269012, Note_on_c, 0, 43, 0
2, 1269032, Note_on_c, 0, 75, 0
2, 1269036, Note_on_c, 0, 84, 0
2, 1269072, Note_on_c, 0, 87, 0
2, 1269144, Note_on_c, 0, 56, 61
2, 1269144, Note_on_c, 0, 59, 66
2, 1269144, Note_on_c, 0, 89, 96
2, 1269144, Note_on_c, 0, 77, 88
2, 1269144, Note_on_c, 0, 86, 94
2, 1269144, Note_on_c, 0, 62, 65
2, 1269172, Note_on_c, 0, 89, 0
2, 1269184, Note_on_c, 0, 62, 0
2, 1269196, Note_on_c, 0, 77, 0
2, 1269196, Note_on_c, 0, 59, 0
2, 1269204, Note_on_c, 0, 56, 0
2, 1269216, Note_on_c, 0, 86, 0
2, 1269272, Control_c, 0, 64, 72
2, 1269288, Control_c, 0, 64, 0
2, 1269344, Note_on_c, 0, 89, 95
2, 1269348, Note_on_c, 0, 62, 75
2, 1269348, Note_on_c, 0, 56, 73
2, 1269348, Note_on_c, 0, 86, 92
2, 1269348, Note_on_c, 0, 59, 70
2, 1269352, Note_on_c, 0, 77, 87
2, 1269372, Note_on_c, 0, 62, 0
2, 1269384, Note_on_c, 0, 56, 0
2, 1269396, Note_on_c, 0, 59, 0
2, 1269404, Note_on_c, 0, 77, 0
2, 1269404, Control_c, 0, 64, 104
2, 1269416, Note_on_c, 0, 86, 0
2, 1269420, Control_c, 0, 64, 127
2, 1269440, Note_on_c, 0, 89, 0
2, 1269544, Note_on_c, 0, 43, 74
2, 1269548, Note_on_c, 0, 91, 96
2, 1269548, Note_on_c, 0, 79, 99
2, 1269556, Note_on_c, 0, 87, 77
2, 1269584, Note_on_c, 0, 87, 0
2, 1269588, Note_on_c, 0, 79, 0
2, 1269588, Note_on_c, 0, 43, 0
2, 1269592, Note_on_c, 0, 91, 0
2, 1269732, Control_c, 0, 64, 72
2, 1269740, Note_on_c, 0, 87, 91
2, 1269744, Note_on_c, 0, 84, 89
2, 1269748, Note_on_c, 0, 75, 92
2, 1269748, Control_c, 0, 64, 40
2, 1269756, Note_on_c, 0, 63, 56
2, 1269760, Note_on_c, 0, 60, 53
2, 1269760, Note_on_c, 0, 55, 56
2, 1269764, Control_c, 0, 64, 24
2, 1269788, Note_on_c, 0, 55, 0
2, 1269808, Note_on_c, 0, 75, 0
2, 1269812, Note_on_c, 0, 63, 0
2, 1269812, Note_on_c, 0, 60, 0
2, 1269812, Note_on_c, 0, 84, 0
2, 1269824, Control_c, 0, 64, 40
2, 1269836, Control_c, 0, 64, 56
2, 1269844, Note_on_c, 0, 87, 0
2, 1269884, Control_c, 0, 64, 0
2, 1269936, Note_on_c, 0, 63, 62
2, 1269952, Note_on_c, 0, 84, 96
2, 1269952, Note_on_c, 0, 87, 95
2, 1269952, Note_on_c, 0, 55, 66
2, 1269952, Note_on_c, 0, 75, 89
2, 1269956, Note_on_c, 0, 60, 51
2, 1269972, Note_on_c, 0, 63, 0
2, 1269972, Control_c, 0, 64, 56
2, 1269976, Note_on_c, 0, 55, 0
2, 1269984, Note_on_c, 0, 60, 0
2, 1269988, Control_c, 0, 64, 127
2, 1270024, Note_on_c, 0, 75, 0
2, 1270052, Note_on_c, 0, 84, 0
2, 1270064, Note_on_c, 0, 87, 0
2, 1270116, Note_on_c, 0, 43, 74
2, 1270144, Note_on_c, 0, 43, 0
2, 1270312, Note_on_c, 0, 63, 71
2, 1270312, Note_on_c, 0, 87, 89
2, 1270312, Note_on_c, 0, 56, 70
2, 1270320, Note_on_c, 0, 75, 93
2, 1270320, Note_on_c, 0, 80, 88
2, 1270332, Note_on_c, 0, 53, 48
2, 1270360, Note_on_c, 0, 56, 0
2, 1270364, Note_on_c, 0, 53, 0
2, 1270376, Note_on_c, 0, 75, 0
2, 1270384, Note_on_c, 0, 63, 0
2, 1270396, Note_on_c, 0, 80, 0
2, 1270408, Note_on_c, 0, 87, 0
2, 1270468, Control_c, 0, 64, 88
2, 1270484, Control_c, 0, 64, 0
2, 1270516, Note_on_c, 0, 63, 73
2, 1270520, Note_on_c, 0, 56, 61
2, 1270524, Note_on_c, 0, 87, 102
2, 1270524, Note_on_c, 0, 53, 64
2, 1270528, Note_on_c, 0, 75, 103
2, 1270528, Note_on_c, 0, 80, 93
2, 1270568, Note_on_c, 0, 63, 0
2, 1270572, Control_c, 0, 64, 72
2, 1270576, Note_on_c, 0, 56, 0
2, 1270584, Note_on_c, 0, 53, 0
2, 1270588, Control_c, 0, 64, 127
2, 1270656, Note_on_c, 0, 75, 0
2, 1270672, Note_on_c, 0, 80, 0
2, 1270672, Note_on_c, 0, 87, 0
2, 1270712, Note_on_c, 0, 43, 74
2, 1270756, Note_on_c, 0, 43, 0
2, 1270800, Note_on_c, 0, 86, 92
2, 1270804, Note_on_c, 0, 74, 81
2, 1270820, Note_on_c, 0, 80, 51
2, 1270828, Note_on_c, 0, 74, 0
2, 1270844, Note_on_c, 0, 80, 0
2, 1270848, Note_on_c, 0, 86, 0
2, 1270880, Note_on_c, 0, 56, 62
2, 1270884, Note_on_c, 0, 62, 62
2, 1270884, Note_on_c, 0, 86, 92
2, 1270884, Note_on_c, 0, 80, 78
2, 1270892, Note_on_c, 0, 74, 82
2, 1270900, Control_c, 0, 64, 104
2, 1270908, Note_on_c, 0, 52, 31
2, 1270916, Note_on_c, 0, 62, 0
2, 1270936, Note_on_c, 0, 52, 0
2, 1270948, Note_on_c, 0, 56, 0
2, 1270960, Note_on_c, 0, 74, 0
2, 1270976, Control_c, 0, 64, 88
2, 1270984, Note_on_c, 0, 86, 0
2, 1270988, Note_on_c, 0, 80, 0
2, 1270992, Control_c, 0, 64, 40
2, 1271008, Control_c, 0, 64, 0
2, 1271072, Note_on_c, 0, 55, 74
2, 1271072, Note_on_c, 0, 62, 77
2, 1271076, Note_on_c, 0, 86, 92
2, 1271080, Note_on_c, 0, 79, 93
2, 1271088, Note_on_c, 0, 74, 82
2, 1271088, Note_on_c, 0, 51, 68
2, 1271096, Control_c, 0, 64, 56
2, 1271104, Note_on_c, 0, 55, 0
2, 1271112, Control_c, 0, 64, 127
2, 1271120, Note_on_c, 0, 62, 0
2, 1271140, Note_on_c, 0, 51, 0
2, 1271144, Note_on_c, 0, 74, 0
2, 1271164, Note_on_c, 0, 79, 0
2, 1271172, Note_on_c, 0, 86, 0
2, 1271268, Note_on_c, 0, 43, 41
2, 1271300, Note_on_c, 0, 43, 0
2, 1271348, Note_on_c, 0, 79, 92
2, 1271348, Note_on_c, 0, 72, 92
2, 1271348, Note_on_c, 0, 84, 90
2, 1271380, Note_on_c, 0, 72, 0
2, 1271396, Note_on_c, 0, 79, 0
2, 1271404, Note_on_c, 0, 84, 0
2, 1271440, Note_on_c, 0, 84, 100
2, 1271444, Note_on_c, 0, 72, 89
2, 1271444, Note_on_c, 0, 79, 87
2, 1271456, Note_on_c, 0, 60, 55
2, 1271464, Note_on_c, 0, 51, 36
2, 1271468, Note_on_c, 0, 72, 0
2, 1271472, Note_on_c, 0, 79, 0
2, 1271488, Note_on_c, 0, 60, 0
2, 1271496, Note_on_c, 0, 51, 0
2, 1271504, Note_on_c, 0, 84, 0
2, 1271636, Control_c, 0, 64, 40
2, 1271652, Control_c, 0, 64, 0
2, 1271668, Note_on_c, 0, 60, 74
2, 1271668, Note_on_c, 0, 50, 64
2, 1271668, Note_on_c, 0, 53, 63
2, 1271684, Note_on_c, 0, 89, 103
2, 1271688, Note_on_c, 0, 84, 93
2, 1271688, Note_on_c, 0, 77, 92
2, 1271712, Note_on_c, 0, 53, 0
2, 1271724, Note_on_c, 0, 60, 0
2, 1271728, Note_on_c, 0, 50, 0
2, 1271740, Control_c, 0, 64, 127
2, 1271768, Note_on_c, 0, 84, 0
2, 1271768, Note_on_c, 0, 77, 0
2, 1271772, Note_on_c, 0, 89, 0
2, 1271860, Note_on_c, 0, 43, 70
2, 1271936, Note_on_c, 0, 43, 0
2, 1271968, Note_on_c, 0, 82, 82
2, 1271968, Note_on_c, 0, 70, 77
2, 1271976, Note_on_c, 0, 77, 81
2, 1272004, Note_on_c, 0, 77, 0
2, 1272008, Note_on_c, 0, 70, 0
2, 1272008, Note_on_c, 0, 82, 0
2, 1272040, Control_c, 0, 64, 88
2, 1272048, Note_on_c, 0, 58, 46
2, 1272056, Control_c, 0, 64, 72
2, 1272060, Note_on_c, 0, 51, 47
2, 1272060, Note_on_c, 0, 77, 84
2, 1272060, Note_on_c, 0, 70, 76
2, 1272060, Note_on_c, 0, 82, 77
2, 1272060, Note_on_c, 0, 48, 49
2, 1272072, Control_c, 0, 64, 56
2, 1272088, Note_on_c, 0, 51, 0
2, 1272096, Note_on_c, 0, 58, 0
2, 1272096, Note_on_c, 0, 48, 0
2, 1272100, Control_c, 0, 64, 40
2, 1272116, Control_c, 0, 64, 24
2, 1272120, Note_on_c, 0, 77, 0
2, 1272132, Note_on_c, 0, 70, 0
2, 1272132, Control_c, 0, 64, 0
2, 1272152, Note_on_c, 0, 82, 0
2, 1272248, Note_on_c, 0, 58, 59
2, 1272256, Note_on_c, 0, 82, 85
2, 1272260, Note_on_c, 0, 70, 82
2, 1272260, Note_on_c, 0, 48, 60
2, 1272264, Note_on_c, 0, 75, 77
2, 1272268, Control_c, 0, 64, 72
2, 1272280, Note_on_c, 0, 51, 40
2, 1272280, Control_c, 0, 64, 127
2, 1272296, Note_on_c, 0, 48, 0
2, 1272352, Note_on_c, 0, 58, 0
2, 1272376, Note_on_c, 0, 82, 0
2, 1272384, Note_on_c, 0, 75, 0
2, 1272392, Note_on_c, 0, 51, 0
2, 1272396, Note_on_c, 0, 70, 0
2, 1272436, Note_on_c, 0, 43, 74
2, 1272504, Note_on_c, 0, 43, 0
2, 1272536, Control_c, 0, 64, 104
2, 1272548, Control_c, 0, 64, 88
2, 1272564, Control_c, 0, 64, 72
2, 1272580, Control_c, 0, 64, 56
2, 1272592, Control_c, 0, 64, 40
2, 1272636, Note_on_c, 0, 70, 83
2, 1272636, Note_on_c, 0, 82, 85
2, 1272640, Note_on_c, 0, 75, 78
2, 1272640, Note_on_c, 0, 58, 56
2, 1272640, Control_c, 0, 64, 24
2, 1272652, Note_on_c, 0, 48, 62
2, 1272660, Note_on_c, 0, 51, 47
2, 1272680, Note_on_c, 0, 48, 0
2, 1272684, Note_on_c, 0, 51, 0
2, 1272684, Control_c, 0, 64, 0
2, 1272692, Note_on_c, 0, 70, 0
2, 1272692, Note_on_c, 0, 58, 0
2, 1272696, Note_on_c, 0, 75, 0
2, 1272708, Note_on_c, 0, 82, 0
2, 1272836, Note_on_c, 0, 58, 64
2, 1272836, Control_c, 0, 64, 24
2, 1272840, Note_on_c, 0, 82, 86
2, 1272844, Note_on_c, 0, 48, 73
2, 1272848, Note_on_c, 0, 70, 77
2, 1272848, Control_c, 0, 64, 88
2, 1272852, Note_on_c, 0, 75, 72
2, 1272856, Note_on_c, 0, 51, 43
2, 1272864, Control_c, 0, 64, 127
2, 1272892, Note_on_c, 0, 51, 0
2, 1272920, Note_on_c, 0, 51, 18
2, 1272924, Note_on_c, 0, 58, 0
2, 1272924, Note_on_c, 0, 48, 0
2, 1272940, Note_on_c, 0, 82, 0
2, 1272948, Note_on_c, 0, 70, 0
2, 1272972, Note_on_c, 0, 75, 0
2, 1272980, Note_on_c, 0, 51, 0
2, 1273040, Note_on_c, 0, 43, 58
2, 1273072, Note_on_c, 0, 43, 0
2, 1273120, Note_on_c, 0, 80, 85
2, 1273120, Note_on_c, 0, 68, 73
2, 1273124, Note_on_c, 0, 75, 77
2, 1273124, Control_c, 0, 64, 88
2, 1273136, Control_c, 0, 64, 72
2, 1273148, Control_c, 0, 64, 56
2, 1273164, Note_on_c, 0, 68, 0
2, 1273168, Note_on_c, 0, 75, 0
2, 1273168, Note_on_c, 0, 80, 0
2, 1273180, Control_c, 0, 64, 40
2, 1273196, Control_c, 0, 64, 24
2, 1273208, Note_on_c, 0, 51, 59
2, 1273216, Note_on_c, 0, 80, 77
2, 1273216, Note_on_c, 0, 56, 52
2, 1273216, Note_on_c, 0, 68, 63
2, 1273220, Note_on_c, 0, 75, 80
2, 1273224, Note_on_c, 0, 48, 54
2, 1273244, Note_on_c, 0, 51, 0
2, 1273248, Note_on_c, 0, 48, 0
2, 1273256, Control_c, 0, 64, 0
2, 1273272, Note_on_c, 0, 56, 0
2, 1273296, Note_on_c, 0, 68, 0
2, 1273300, Note_on_c, 0, 75, 0
2, 1273304, Note_on_c, 0, 80, 0
2, 1273408, Note_on_c, 0, 56, 57
2, 1273408, Note_on_c, 0, 80, 82
2, 1273416, Note_on_c, 0, 74, 82
2, 1273416, Note_on_c, 0, 47, 65
2, 1273416, Note_on_c, 0, 68, 68
2, 1273420, Control_c, 0, 64, 72
2, 1273428, Note_on_c, 0, 50, 63
2, 1273436, Control_c, 0, 64, 127
2, 1273456, Note_on_c, 0, 50, 0
2, 1273492, Note_on_c, 0, 68, 0
2, 1273508, Note_on_c, 0, 47, 0
2, 1273512, Note_on_c, 0, 56, 0
2, 1273524, Note_on_c, 0, 74, 0
2, 1273528, Note_on_c, 0, 80, 0
2, 1273584, Note_on_c, 0, 43, 64
2, 1273652, Note_on_c, 0, 43, 0
2, 1273660, Control_c, 0, 64, 104
2, 1273676, Note_on_c, 0, 79, 84
2, 1273676, Control_c, 0, 64, 88
2, 1273684, Note_on_c, 0, 74, 72
2, 1273684, Note_on_c, 0, 67, 70
2, 1273704, Control_c, 0, 64, 72
2, 1273712, Note_on_c, 0, 67, 0
2, 1273712, Note_on_c, 0, 74, 0
2, 1273732, Note_on_c, 0, 79, 0
2, 1273736, Control_c, 0, 64, 56
2, 1273748, Control_c, 0, 64, 40
2, 1273768, Note_on_c, 0, 79, 90
2, 1273768, Note_on_c, 0, 74, 82
2, 1273772, Note_on_c, 0, 67, 65
2, 1273780, Note_on_c, 0, 55, 60
2, 1273780, Note_on_c, 0, 50, 61
2, 1273788, Note_on_c, 0, 47, 49
2, 1273808, Note_on_c, 0, 55, 0
2, 1273808, Control_c, 0, 64, 24
2, 1273812, Note_on_c, 0, 67, 0
2, 1273816, Note_on_c, 0, 47, 0
2, 1273820, Note_on_c, 0, 74, 0
2, 1273824, Note_on_c, 0, 50, 0
2, 1273844, Note_on_c, 0, 79, 0
2, 1273868, Control_c, 0, 64, 0
2, 1273988, Note_on_c, 0, 84, 90
2, 1273988, Note_on_c, 0, 48, 78
2, 1273992, Note_on_c, 0, 79, 85
2, 1273996, Note_on_c, 0, 55, 69
2, 1273996, Note_on_c, 0, 44, 62
2, 1273996, Note_on_c, 0, 72, 79
2, 1274004, Control_c, 0, 64, 40
2, 1274020, Control_c, 0, 64, 104
2, 1274036, Control_c, 0, 64, 127
2, 1274060, Note_on_c, 0, 72, 0
2, 1274060, Note_on_c, 0, 79, 0
2, 1274060, Note_on_c, 0, 44, 0
2, 1274068, Note_on_c, 0, 48, 0
2, 1274072, Note_on_c, 0, 84, 0
2, 1274084, Note_on_c, 0, 55, 0
2, 1274184, Note_on_c, 0, 43, 58
2, 1274208, Note_on_c, 0, 43, 0
2, 1274296, Note_on_c, 0, 78, 85
2, 1274300, Note_on_c, 0, 66, 80
2, 1274304, Control_c, 0, 64, 88
2, 1274320, Control_c, 0, 64, 72
2, 1274336, Control_c, 0, 64, 56
2, 1274344, Note_on_c, 0, 66, 0
2, 1274344, Note_on_c, 0, 78, 0
2, 1274348, Control_c, 0, 64, 40
2, 1274352, Note_on_c, 0, 44, 60
2, 1274352, Note_on_c, 0, 54, 60
2, 1274356, Note_on_c, 0, 48, 55
2, 1274384, Note_on_c, 0, 48, 0
2, 1274392, Note_on_c, 0, 72, 73
2, 1274392, Note_on_c, 0, 78, 84
2, 1274396, Note_on_c, 0, 66, 64
2, 1274408, Control_c, 0, 64, 24
2, 1274424, Note_on_c, 0, 54, 0
2, 1274436, Note_on_c, 0, 44, 0
2, 1274452, Control_c, 0, 64, 0
2, 1274468, Note_on_c, 0, 66, 0
2, 1274480, Note_on_c, 0, 72, 0
2, 1274484, Note_on_c, 0, 78, 0
2, 1274588, Note_on_c, 0, 79, 86
2, 1274596, Note_on_c, 0, 43, 65
2, 1274600, Note_on_c, 0, 67, 70
2, 1274604, Note_on_c, 0, 55, 64
2, 1274620, Control_c, 0, 64, 40
2, 1274636, Control_c, 0, 64, 104
2, 1274648, Control_c, 0, 64, 127
2, 1274664, Note_on_c, 0, 55, 0
2, 1274664, Note_on_c, 0, 43, 0
2, 1274808, Note_on_c, 0, 57, 68
2, 1274816, Note_on_c, 0, 45, 59
2, 1274828, Control_c, 0, 64, 88
2, 1274836, Note_on_c, 0, 57, 0
2, 1274840, Control_c, 0, 64, 72
2, 1274844, Note_on_c, 0, 45, 0
2, 1274856, Control_c, 0, 64, 40
2, 1274872, Control_c, 0, 64, 0
2, 1274904, Note_on_c, 0, 67, 0
2, 1274912, Note_on_c, 0, 79, 0
2, 1275004, Note_on_c, 0, 58, 73
2, 1275004, Note_on_c, 0, 46, 73
2, 1275072, Note_on_c, 0, 46, 0
2, 1275072, Note_on_c, 0, 58, 0
2, 1275212, Note_on_c, 0, 67, 70
2, 1275228, Note_on_c, 0, 47, 52
2, 1275232, Control_c, 0, 64, 127
2, 1275296, Note_on_c, 0, 47, 0
2, 1275412, Note_on_c, 0, 62, 52
2, 1275424, Note_on_c, 0, 55, 41
2, 1275444, Note_on_c, 0, 62, 0
2, 1275444, Control_c, 0, 64, 104
2, 1275452, Control_c, 0, 64, 72
2, 1275464, Control_c, 0, 64, 56
2, 1275468, Note_on_c, 0, 55, 0
2, 1275476, Control_c, 0, 64, 40
2, 1275488, Control_c, 0, 64, 24
2, 1275500, Control_c, 0, 64, 0
2, 1275508, Note_on_c, 0, 67, 0
2, 1275540, Note_on_c, 0, 79, 71
2, 1275588, Note_on_c, 0, 47, 61
2, 1275600, Note_on_c, 0, 79, 0
2, 1275600, Note_on_c, 0, 67, 70
2, 1275608, Note_on_c, 0, 47, 0
2, 1275668, Note_on_c, 0, 67, 0
2, 1275740, Note_on_c, 0, 79, 79
2, 1275788, Control_c, 0, 64, 56
2, 1275796, Note_on_c, 0, 48, 59
2, 1275796, Control_c, 0, 64, 104
2, 1275800, Note_on_c, 0, 68, 69
2, 1275808, Note_on_c, 0, 79, 0
2, 1275808, Control_c, 0, 64, 127
2, 1275820, Note_on_c, 0, 48, 0
2, 1275944, Control_c, 0, 64, 104
2, 1275952, Control_c, 0, 64, 88
2, 1275964, Control_c, 0, 64, 72
2, 1275976, Control_c, 0, 64, 40
2, 1275988, Control_c, 0, 64, 24
2, 1275992, Note_on_c, 0, 63, 37
2, 1275996, Note_on_c, 0, 55, 53
2, 1276000, Control_c, 0, 64, 0
2, 1276036, Note_on_c, 0, 55, 0
2, 1276044, Note_on_c, 0, 63, 0
2, 1276076, Note_on_c, 0, 68, 0
2, 1276112, Note_on_c, 0, 79, 73
2, 1276168, Note_on_c, 0, 68, 77
2, 1276172, Note_on_c, 0, 48, 66
2, 1276180, Note_on_c, 0, 79, 0
2, 1276188, Note_on_c, 0, 48, 0
2, 1276260, Note_on_c, 0, 68, 0
2, 1276312, Note_on_c, 0, 79, 82
2, 1276376, Note_on_c, 0, 69, 75
2, 1276388, Note_on_c, 0, 79, 0
2, 1276388, Note_on_c, 0, 49, 53
2, 1276448, Note_on_c, 0, 49, 0
2, 1276508, Note_on_c, 0, 69, 0
2, 1276520, Note_on_c, 0, 79, 83
2, 1276548, Note_on_c, 0, 64, 44
2, 1276576, Note_on_c, 0, 79, 0
2, 1276584, Note_on_c, 0, 70, 76
2, 1276604, Note_on_c, 0, 64, 0
2, 1276696, Note_on_c, 0, 70, 0
2, 1276704, Note_on_c, 0, 50, 68
2, 1276720, Note_on_c, 0, 79, 88
2, 1276736, Note_on_c, 0, 50, 0
2, 1276772, Note_on_c, 0, 65, 59
2, 1276792, Note_on_c, 0, 79, 0
2, 1276796, Note_on_c, 0, 71, 77
2, 1276800, Note_on_c, 0, 65, 0
2, 1276896, Note_on_c, 0, 71, 0
2, 1276908, Note_on_c, 0, 79, 86
2, 1276976, Note_on_c, 0, 79, 0
2, 1276984, Note_on_c, 0, 74, 82
2, 1276984, Note_on_c, 0, 51, 55
2, 1277048, Note_on_c, 0, 51, 0
2, 1277072, Control_c, 0, 64, 40
2, 1277084, Control_c, 0, 64, 72
2, 1277096, Control_c, 0, 64, 104
2, 1277108, Control_c, 0, 64, 127
2, 1277180, Note_on_c, 0, 67, 53
2, 1277196, Note_on_c, 0, 60, 37
2, 1277224, Note_on_c, 0, 67, 0
2, 1277256, Note_on_c, 0, 60, 0
2, 1277340, Control_c, 0, 64, 104
2, 1277364, Control_c, 0, 64, 88
2, 1277372, Note_on_c, 0, 51, 56
2, 1277372, Note_on_c, 0, 72, 73
2, 1277372, Control_c, 0, 64, 72
2, 1277380, Note_on_c, 0, 74, 0
2, 1277384, Control_c, 0, 64, 40
2, 1277396, Control_c, 0, 64, 24
2, 1277404, Control_c, 0, 64, 0
2, 1277432, Note_on_c, 0, 72, 0
2, 1277432, Note_on_c, 0, 51, 0
2, 1277568, Note_on_c, 0, 72, 82
2, 1277592, Note_on_c, 0, 52, 50
2, 1277596, Control_c, 0, 64, 24
2, 1277608, Control_c, 0, 64, 72
2, 1277616, Control_c, 0, 64, 127
2, 1277656, Note_on_c, 0, 52, 0
2, 1277764, Note_on_c, 0, 67, 58
2, 1277804, Note_on_c, 0, 67, 0
2, 1277860, Note_on_c, 0, 72, 0
2, 1277880, Note_on_c, 0, 84, 76
2, 1277908, Control_c, 0, 64, 104
2, 1277916, Control_c, 0, 64, 88
2, 1277928, Control_c, 0, 64, 56
2, 1277940, Note_on_c, 0, 84, 0
2, 1277940, Note_on_c, 0, 72, 77
2, 1277940, Control_c, 0, 64, 40
2, 1277948, Note_on_c, 0, 52, 54
2, 1277948, Control_c, 0, 64, 24
2, 1277960, Control_c, 0, 64, 0
2, 1277996, Note_on_c, 0, 52, 0
2, 1278008, Note_on_c, 0, 72, 0
2, 1278072, Note_on_c, 0, 84, 75
2, 1278132, Note_on_c, 0, 73, 77
2, 1278136, Note_on_c, 0, 84, 0
2, 1278140, Note_on_c, 0, 53, 52
2, 1278140, Control_c, 0, 64, 56
2, 1278152, Control_c, 0, 64, 104
2, 1278160, Control_c, 0, 64, 127
2, 1278196, Note_on_c, 0, 53, 0
2, 1278312, Note_on_c, 0, 68, 43
2, 1278324, Note_on_c, 0, 60, 46
2, 1278384, Note_on_c, 0, 68, 0
2, 1278404, Note_on_c, 0, 60, 0
2, 1278412, Note_on_c, 0, 73, 0
2, 1278416, Control_c, 0, 64, 104
2, 1278428, Control_c, 0, 64, 88
2, 1278432, Note_on_c, 0, 84, 78
2, 1278440, Control_c, 0, 64, 72
2, 1278452, Control_c, 0, 64, 56
2, 1278460, Control_c, 0, 64, 40
2, 1278472, Control_c, 0, 64, 24
2, 1278484, Note_on_c, 0, 53, 52
2, 1278484, Control_c, 0, 64, 0
2, 1278496, Note_on_c, 0, 73, 76
2, 1278500, Note_on_c, 0, 84, 0
2, 1278504, Note_on_c, 0, 53, 0
2, 1278568, Note_on_c, 0, 73, 0
2, 1278608, Note_on_c, 0, 84, 82
2, 1278672, Control_c, 0, 64, 24
2, 1278676, Note_on_c, 0, 84, 0
2, 1278676, Note_on_c, 0, 74, 82
2, 1278684, Control_c, 0, 64, 56
2, 1278692, Note_on_c, 0, 54, 54
2, 1278696, Control_c, 0, 64, 104
2, 1278704, Control_c, 0, 64, 127
2, 1278752, Note_on_c, 0, 54, 0
2, 1278788, Note_on_c, 0, 74, 0
2, 1278804, Control_c, 0, 64, 104
2, 1278812, Note_on_c, 0, 84, 79
2, 1278816, Control_c, 0, 64, 88
2, 1278828, Control_c, 0, 64, 72
2, 1278840, Note_on_c, 0, 69, 58
2, 1278840, Control_c, 0, 64, 56
2, 1278852, Note_on_c, 0, 60, 52
2, 1278852, Control_c, 0, 64, 40
2, 1278860, Control_c, 0, 64, 24
2, 1278872, Note_on_c, 0, 84, 0
2, 1278880, Note_on_c, 0, 75, 77
2, 1278884, Control_c, 0, 64, 0
2, 1278888, Note_on_c, 0, 60, 0
2, 1278900, Note_on_c, 0, 69, 0
2, 1278972, Note_on_c, 0, 75, 0
2, 1278988, Note_on_c, 0, 55, 51
2, 1278996, Note_on_c, 0, 84, 84
2, 1279028, Note_on_c, 0, 55, 0
2, 1279048, Note_on_c, 0, 70, 67
2, 1279068, Note_on_c, 0, 84, 0
2, 1279072, Note_on_c, 0, 76, 77
2, 1279088, Note_on_c, 0, 70, 0
2, 1279160, Note_on_c, 0, 76, 0
2, 1279192, Note_on_c, 0, 84, 87
2, 1279264, Note_on_c, 0, 84, 0
2, 1279268, Note_on_c, 0, 56, 45
2, 1279268, Note_on_c, 0, 79, 85
2, 1279336, Control_c, 0, 64, 24
2, 1279344, Note_on_c, 0, 56, 0
2, 1279348, Control_c, 0, 64, 72
2, 1279360, Control_c, 0, 64, 104
2, 1279372, Control_c, 0, 64, 127
2, 1279468, Note_on_c, 0, 72, 49
2, 1279472, Note_on_c, 0, 65, 44
2, 1279492, Note_on_c, 0, 72, 0
2, 1279552, Note_on_c, 0, 65, 0
2, 1279648, Note_on_c, 0, 77, 73
2, 1279660, Note_on_c, 0, 56, 53
2, 1279664, Note_on_c, 0, 79, 0
2, 1279712, Note_on_c, 0, 77, 0
2, 1279720, Note_on_c, 0, 56, 0
2, 1279736, Control_c, 0, 64, 104
2, 1279748, Control_c, 0, 64, 88
2, 1279760, Control_c, 0, 64, 72
2, 1279772, Control_c, 0, 64, 56
2, 1279784, Control_c, 0, 64, 40
2, 1279792, Control_c, 0, 64, 0
2, 1279856, Note_on_c, 0, 77, 84
2, 1279876, Note_on_c, 0, 57, 54
2, 1279904, Control_c, 0, 64, 24
2, 1279916, Control_c, 0, 64, 72
2, 1279924, Note_on_c, 0, 57, 0
2, 1279928, Control_c, 0, 64, 127
2, 1279984, Note_on_c, 0, 77, 0
2, 1280084, Note_on_c, 0, 89, 88
2, 1280100, Note_on_c, 0, 72, 40
2, 1280100, Note_on_c, 0, 65, 39
2, 1280104, Note_on_c, 0, 60, 36
2, 1280112, Note_on_c, 0, 63, 31
2, 1280152, Note_on_c, 0, 60, 0
2, 1280160, Note_on_c, 0, 63, 0
2, 1280164, Note_on_c, 0, 65, 0
2, 1280168, Note_on_c, 0, 72, 0
2, 1280248, Note_on_c, 0, 89, 0
2, 1280288, Note_on_c, 0, 65, 36
2, 1280292, Note_on_c, 0, 72, 40
2, 1280296, Note_on_c, 0, 60, 41
2, 1280296, Note_on_c, 0, 63, 27
2, 1280336, Note_on_c, 0, 63, 0
2, 1280344, Note_on_c, 0, 60, 0
2, 1280344, Note_on_c, 0, 72, 0
2, 1280360, Note_on_c, 0, 65, 0
2, 1280376, Note_on_c, 0, 89, 82
2, 1280432, Note_on_c, 0, 89, 0
2, 1280468, Note_on_c, 0, 89, 83
2, 1280476, Note_on_c, 0, 72, 53
2, 1280488, Note_on_c, 0, 63, 42
2, 1280488, Note_on_c, 0, 65, 36
2, 1280528, Note_on_c, 0, 72, 0
2, 1280536, Note_on_c, 0, 89, 0
2, 1280560, Note_on_c, 0, 91, 84
2, 1280624, Note_on_c, 0, 91, 0
2, 1280624, Note_on_c, 0, 65, 0
2, 1280652, Note_on_c, 0, 89, 79
2, 1280668, Note_on_c, 0, 63, 0
2, 1280684, Note_on_c, 0, 57, 49
2, 1280728, Note_on_c, 0, 89, 0
2, 1280740, Note_on_c, 0, 57, 0
2, 1280744, Note_on_c, 0, 84, 81
2, 1280824, Note_on_c, 0, 84, 0
2, 1280836, Note_on_c, 0, 81, 74
2, 1280840, Note_on_c, 0, 63, 37
2, 1280852, Note_on_c, 0, 72, 46
2, 1280860, Note_on_c, 0, 65, 25
2, 1280876, Note_on_c, 0, 72, 0
2, 1280888, Note_on_c, 0, 81, 0
2, 1280904, Note_on_c, 0, 63, 0
2, 1280908, Note_on_c, 0, 65, 0
2, 1280924, Note_on_c, 0, 77, 84
2, 1280988, Note_on_c, 0, 77, 0
2, 1280992, Control_c, 0, 64, 104
2, 1281016, Control_c, 0, 64, 88
2, 1281020, Note_on_c, 0, 82, 74
2, 1281028, Control_c, 0, 64, 56
2, 1281036, Control_c, 0, 64, 24
2, 1281044, Note_on_c, 0, 56, 57
2, 1281048, Control_c, 0, 64, 0
2, 1281112, Note_on_c, 0, 82, 0
2, 1281120, Note_on_c, 0, 84, 84
2, 1281136, Control_c, 0, 64, 40
2, 1281148, Note_on_c, 0, 56, 0
2, 1281148, Control_c, 0, 64, 88
2, 1281160, Control_c, 0, 64, 127
2, 1281188, Note_on_c, 0, 84, 0
2, 1281216, Note_on_c, 0, 82, 71
2, 1281236, Note_on_c, 0, 70, 44
2, 1281248, Note_on_c, 0, 65, 36
2, 1281248, Note_on_c, 0, 62, 36
2, 1281284, Note_on_c, 0, 62, 0
2, 1281308, Note_on_c, 0, 82, 0
2, 1281308, Note_on_c, 0, 77, 77
2, 1281312, Note_on_c, 0, 70, 0
2, 1281364, Note_on_c, 0, 65, 0
2, 1281400, Note_on_c, 0, 77, 0
2, 1281400, Note_on_c, 0, 74, 76
2, 1281408, Note_on_c, 0, 56, 49
2, 1281448, Note_on_c, 0, 74, 0
2, 1281468, Note_on_c, 0, 56, 0
2, 1281492, Note_on_c, 0, 70, 72
2, 1281504, Control_c, 0, 64, 104
2, 1281528, Control_c, 0, 64, 88
2, 1281536, Control_c, 0, 64, 56
2, 1281548, Control_c, 0, 64, 40
2, 1281560, Note_on_c, 0, 70, 0
2, 1281560, Control_c, 0, 64, 0
2, 1281592, Note_on_c, 0, 55, 63
2, 1281596, Note_on_c, 0, 75, 75
2, 1281672, Note_on_c, 0, 75, 0
2, 1281688, Note_on_c, 0, 77, 79
2, 1281724, Control_c, 0, 64, 127
2, 1281752, Note_on_c, 0, 77, 0
2, 1281780, Note_on_c, 0, 75, 71
2, 1281784, Note_on_c, 0, 63, 48
2, 1281784, Note_on_c, 0, 58, 50
2, 1281792, Note_on_c, 0, 55, 0
2, 1281860, Note_on_c, 0, 75, 0
2, 1281872, Note_on_c, 0, 70, 70
2, 1281932, Note_on_c, 0, 58, 0
2, 1281940, Note_on_c, 0, 63, 0
2, 1281944, Note_on_c, 0, 55, 53
2, 1281960, Note_on_c, 0, 70, 0
2, 1281968, Note_on_c, 0, 67, 68
2, 1281992, Note_on_c, 0, 55, 0
2, 1282028, Note_on_c, 0, 67, 0
2, 1282060, Note_on_c, 0, 63, 60
2, 1282112, Note_on_c, 0, 63, 0
2, 1282116, Control_c, 0, 64, 88
2, 1282124, Control_c, 0, 64, 40
2, 1282136, Control_c, 0, 64, 0
2, 1282176, Note_on_c, 0, 65, 76
2, 1282196, Note_on_c, 0, 45, 68
2, 1282248, Control_c, 0, 64, 72
2, 1282256, Control_c, 0, 64, 127
2, 1282288, Note_on_c, 0, 45, 0
2, 1282316, Note_on_c, 0, 65, 0
2, 1282388, Note_on_c, 0, 77, 87
2, 1282408, Note_on_c, 0, 60, 45
2, 1282412, Note_on_c, 0, 48, 48
2, 1282412, Note_on_c, 0, 53, 46
2, 1282416, Note_on_c, 0, 51, 45
2, 1282452, Note_on_c, 0, 48, 0
2, 1282464, Note_on_c, 0, 51, 0
2, 1282468, Note_on_c, 0, 60, 0
2, 1282476, Note_on_c, 0, 53, 0
2, 1282548, Note_on_c, 0, 77, 0
2, 1282584, Note_on_c, 0, 60, 48
2, 1282584, Note_on_c, 0, 48, 44
2, 1282584, Note_on_c, 0, 53, 41
2, 1282588, Note_on_c, 0, 51, 35
2, 1282644, Note_on_c, 0, 51, 0
2, 1282644, Note_on_c, 0, 60, 0
2, 1282656, Note_on_c, 0, 53, 0
2, 1282664, Note_on_c, 0, 48, 0
2, 1282684, Note_on_c, 0, 77, 81
2, 1282728, Note_on_c, 0, 77, 0
2, 1282776, Note_on_c, 0, 60, 55
2, 1282776, Note_on_c, 0, 77, 80
2, 1282784, Note_on_c, 0, 51, 38
2, 1282784, Note_on_c, 0, 48, 24
2, 1282792, Note_on_c, 0, 53, 43
2, 1282816, Note_on_c, 0, 48, 0
2, 1282820, Note_on_c, 0, 60, 0
2, 1282840, Note_on_c, 0, 77, 0
2, 1282868, Note_on_c, 0, 79, 82
2, 1282904, Note_on_c, 0, 53, 0
2, 1282928, Note_on_c, 0, 79, 0
2, 1282940, Note_on_c, 0, 51, 0
2, 1282960, Note_on_c, 0, 77, 74
2, 1282972, Note_on_c, 0, 45, 64
2, 1283020, Note_on_c, 0, 77, 0
2, 1283040, Note_on_c, 0, 45, 0
2, 1283044, Note_on_c, 0, 72, 82
2, 1283124, Note_on_c, 0, 72, 0
2, 1283136, Note_on_c, 0, 69, 74
2, 1283156, Note_on_c, 0, 60, 34
2, 1283164, Note_on_c, 0, 51, 33
2, 1283172, Note_on_c, 0, 53, 27
2, 1283180, Note_on_c, 0, 60, 0
2, 1283192, Note_on_c, 0, 69, 0
2, 1283204, Note_on_c, 0, 51, 0
2, 1283208, Note_on_c, 0, 53, 0
2, 1283232, Note_on_c, 0, 65, 81
2, 1283300, Note_on_c, 0, 65, 0
2, 1283304, Control_c, 0, 64, 104
2, 1283312, Control_c, 0, 64, 56
2, 1283324, Control_c, 0, 64, 0
2, 1283336, Note_on_c, 0, 70, 73
2, 1283352, Note_on_c, 0, 44, 55
2, 1283420, Note_on_c, 0, 70, 0
2, 1283424, Control_c, 0, 64, 24
2, 1283432, Note_on_c, 0, 72, 80
2, 1283436, Control_c, 0, 64, 72
2, 1283448, Control_c, 0, 64, 127
2, 1283472, Note_on_c, 0, 44, 0
2, 1283500, Note_on_c, 0, 72, 0
2, 1283528, Note_on_c, 0, 70, 65
2, 1283536, Note_on_c, 0, 58, 40
2, 1283556, Note_on_c, 0, 53, 36
2, 1283560, Note_on_c, 0, 50, 45
2, 1283592, Note_on_c, 0, 50, 0
2, 1283612, Note_on_c, 0, 70, 0
2, 1283620, Note_on_c, 0, 58, 0
2, 1283620, Note_on_c, 0, 65, 75
2, 1283668, Note_on_c, 0, 53, 0
2, 1283708, Note_on_c, 0, 65, 0
2, 1283716, Note_on_c, 0, 44, 54
2, 1283716, Note_on_c, 0, 62, 72
2, 1283772, Note_on_c, 0, 62, 0
2, 1283784, Note_on_c, 0, 44, 0
2, 1283812, Note_on_c, 0, 58, 73
2, 1283868, Control_c, 0, 64, 104
2, 1283880, Note_on_c, 0, 58, 0
2, 1283880, Control_c, 0, 64, 72
2, 1283892, Control_c, 0, 64, 24
2, 1283904, Control_c, 0, 64, 0
2, 1283912, Note_on_c, 0, 63, 70
2, 1283912, Note_on_c, 0, 43, 63
2, 1283980, Control_c, 0, 64, 56
2, 1283992, Note_on_c, 0, 63, 0
2, 1283992, Control_c, 0, 64, 104
2, 1284000, Control_c, 0, 64, 127
2, 1284012, Note_on_c, 0, 65, 74
2, 1284072, Note_on_c, 0, 65, 0
2, 1284088, Note_on_c, 0, 43, 0
2, 1284108, Note_on_c, 0, 63, 67
2, 1284112, Note_on_c, 0, 51, 50
2, 1284116, Note_on_c, 0, 46, 49
2, 1284180, Note_on_c, 0, 63, 0
2, 1284200, Note_on_c, 0, 58, 67
2, 1284280, Note_on_c, 0, 43, 42
2, 1284296, Note_on_c, 0, 58, 0
2, 1284296, Note_on_c, 0, 46, 0
2, 1284304, Note_on_c, 0, 51, 0
2, 1284304, Note_on_c, 0, 55, 74
2, 1284320, Note_on_c, 0, 43, 0
2, 1284368, Note_on_c, 0, 55, 0
2, 1284416, Note_on_c, 0, 51, 68
2, 1284456, Control_c, 0, 64, 104
2, 1284468, Control_c, 0, 64, 72
2, 1284480, Control_c, 0, 64, 56
2, 1284484, Note_on_c, 0, 51, 0
2, 1284492, Control_c, 0, 64, 24
2, 1284500, Control_c, 0, 64, 0
2, 1284520, Note_on_c, 0, 48, 68
2, 1284524, Note_on_c, 0, 44, 53
2, 1284532, Note_on_c, 0, 32, 48
2, 1284580, Note_on_c, 0, 48, 0
2, 1284584, Note_on_c, 0, 32, 0
2, 1284620, Note_on_c, 0, 51, 71
2, 1284632, Note_on_c, 0, 44, 0
2, 1284688, Note_on_c, 0, 51, 0
2, 1284716, Note_on_c, 0, 52, 71
2, 1284724, Note_on_c, 0, 45, 56
2, 1284728, Note_on_c, 0, 33, 52
2, 1284796, Note_on_c, 0, 52, 0
2, 1284804, Note_on_c, 0, 45, 0
2, 1284808, Note_on_c, 0, 53, 83
2, 1284848, Note_on_c, 0, 33, 0
2, 1284868, Note_on_c, 0, 53, 0
2, 1284904, Note_on_c, 0, 63, 74
2, 1284916, Note_on_c, 0, 46, 44
2, 1284924, Note_on_c, 0, 34, 44
2, 1284992, Note_on_c, 0, 63, 0
2, 1284996, Note_on_c, 0, 55, 82
2, 1285028, Note_on_c, 0, 46, 0
2, 1285040, Note_on_c, 0, 34, 0
2, 1285076, Note_on_c, 0, 55, 0
2, 1285104, Note_on_c, 0, 58, 69
2, 1285108, Note_on_c, 0, 47, 63
2, 1285108, Note_on_c, 0, 35, 60
2, 1285172, Note_on_c, 0, 35, 0
2, 1285172, Note_on_c, 0, 47, 0
2, 1285188, Note_on_c, 0, 58, 0
2, 1285196, Note_on_c, 0, 56, 77
2, 1285300, Note_on_c, 0, 55, 83
2, 1285304, Note_on_c, 0, 36, 55
2, 1285304, Note_on_c, 0, 48, 61
2, 1285320, Note_on_c, 0, 56, 0
2, 1285344, Note_on_c, 0, 36, 0
2, 1285356, Note_on_c, 0, 48, 0
2, 1285368, Note_on_c, 0, 55, 0
2, 1285384, Note_on_c, 0, 56, 71
2, 1285456, Note_on_c, 0, 56, 0
2, 1285492, Note_on_c, 0, 54, 74
2, 1285492, Note_on_c, 0, 51, 70
2, 1285500, Note_on_c, 0, 39, 55
2, 1285552, Note_on_c, 0, 39, 0
2, 1285556, Note_on_c, 0, 51, 0
2, 1285572, Note_on_c, 0, 54, 0
2, 1285592, Note_on_c, 0, 57, 65
2, 1285644, Note_on_c, 0, 57, 0
2, 1285696, Note_on_c, 0, 38, 78
2, 1285800, Note_on_c, 0, 53, 75
2, 1285800, Control_c, 0, 64, 40
2, 1285812, Control_c, 0, 64, 56
2, 1285824, Control_c, 0, 64, 72
2, 1285888, Note_on_c, 0, 56, 74
2, 1285892, Note_on_c, 0, 38, 0
2, 1285896, Note_on_c, 0, 46, 61
2, 1285900, Control_c, 0, 64, 88
2, 1285916, Note_on_c, 0, 53, 0
2, 1285992, Note_on_c, 0, 58, 71
2, 1286016, Note_on_c, 0, 56, 0
2, 1286036, Note_on_c, 0, 58, 0
2, 1286092, Note_on_c, 0, 65, 84
2, 1286104, Note_on_c, 0, 34, 64
2, 1286144, Note_on_c, 0, 65, 0
2, 1286176, Note_on_c, 0, 70, 78
2, 1286236, Note_on_c, 0, 70, 0
2, 1286240, Note_on_c, 0, 46, 0
2, 1286272, Note_on_c, 0, 34, 0
2, 1286280, Control_c, 0, 64, 72
2, 1286288, Control_c, 0, 64, 56
2, 1286300, Control_c, 0, 64, 24
2, 1286312, Note_on_c, 0, 79, 89
2, 1286312, Control_c, 0, 64, 0
2, 1286316, Note_on_c, 0, 67, 55
2, 1286320, Note_on_c, 0, 39, 54
2, 1286440, Note_on_c, 0, 79, 0
2, 1286444, Control_c, 0, 64, 56
2, 1286456, Control_c, 0, 64, 104
2, 1286460, Note_on_c, 0, 67, 0
2, 1286464, Control_c, 0, 64, 127
2, 1286488, Note_on_c, 0, 39, 0
2, 1286504, Note_on_c, 0, 46, 49
2, 1286608, Note_on_c, 0, 70, 77
2, 1286612, Note_on_c, 0, 58, 54
2, 1286644, Note_on_c, 0, 70, 0
2, 1286648, Note_on_c, 0, 58, 0
2, 1286692, Note_on_c, 0, 34, 67
2, 1286700, Note_on_c, 0, 70, 72
2, 1286700, Note_on_c, 0, 58, 59
2, 1286736, Note_on_c, 0, 34, 0
2, 1286740, Note_on_c, 0, 46, 0
2, 1286740, Note_on_c, 0, 58, 0
2, 1286800, Note_on_c, 0, 70, 0
2, 1286800, Control_c, 0, 64, 104
2, 1286812, Control_c, 0, 64, 72
2, 1286824, Control_c, 0, 64, 56
2, 1286832, Control_c, 0, 64, 40
2, 1286844, Control_c, 0, 64, 24
2, 1286856, Control_c, 0, 64, 0
2, 1286900, Note_on_c, 0, 60, 64
2, 1286912, Note_on_c, 0, 56, 51
2, 1286924, Note_on_c, 0, 44, 39
2, 1286968, Note_on_c, 0, 44, 0
2, 1286968, Note_on_c, 0, 60, 0
2, 1287000, Note_on_c, 0, 63, 68
2, 1287016, Note_on_c, 0, 56, 0
2, 1287064, Note_on_c, 0, 63, 0
2, 1287096, Note_on_c, 0, 65, 76
2, 1287096, Note_on_c, 0, 57, 53
2, 1287100, Note_on_c, 0, 45, 56
2, 1287156, Note_on_c, 0, 57, 0
2, 1287168, Note_on_c, 0, 45, 0
2, 1287172, Note_on_c, 0, 65, 0
2, 1287176, Note_on_c, 0, 66, 75
2, 1287248, Note_on_c, 0, 66, 0
2, 1287272, Note_on_c, 0, 58, 51
2, 1287272, Note_on_c, 0, 75, 77
2, 1287276, Note_on_c, 0, 46, 55
2, 1287356, Note_on_c, 0, 67, 82
2, 1287360, Note_on_c, 0, 46, 0
2, 1287360, Note_on_c, 0, 75, 0
2, 1287372, Note_on_c, 0, 58, 0
2, 1287428, Note_on_c, 0, 67, 0
2, 1287436, Note_on_c, 0, 70, 80
2, 1287456, Note_on_c, 0, 59, 57
2, 1287460, Note_on_c, 0, 47, 62
2, 1287504, Note_on_c, 0, 47, 0
2, 1287528, Note_on_c, 0, 68, 78
2, 1287532, Note_on_c, 0, 59, 0
2, 1287552, Note_on_c, 0, 70, 0
2, 1287620, Note_on_c, 0, 67, 81
2, 1287624, Note_on_c, 0, 60, 59
2, 1287632, Note_on_c, 0, 68, 0
2, 1287636, Note_on_c, 0, 48, 56
2, 1287656, Note_on_c, 0, 48, 0
2, 1287680, Note_on_c, 0, 60, 0
2, 1287696, Note_on_c, 0, 67, 0
2, 1287704, Note_on_c, 0, 68, 77
2, 1287784, Note_on_c, 0, 68, 0
2, 1287812, Note_on_c, 0, 63, 67
2, 1287816, Note_on_c, 0, 66, 71
2, 1287824, Note_on_c, 0, 51, 56
2, 1287844, Note_on_c, 0, 51, 0
2, 1287872, Note_on_c, 0, 63, 0
2, 1287896, Note_on_c, 0, 66, 0
2, 1287916, Note_on_c, 0, 69, 68
2, 1287964, Note_on_c, 0, 69, 0
2, 1288012, Note_on_c, 0, 50, 83
2, 1288100, Control_c, 0, 64, 40
2, 1288112, Control_c, 0, 64, 72
2, 1288116, Note_on_c, 0, 65, 66
2, 1288120, Control_c, 0, 64, 104
2, 1288132, Control_c, 0, 64, 127
2, 1288200, Note_on_c, 0, 68, 71
2, 1288212, Note_on_c, 0, 50, 0
2, 1288216, Note_on_c, 0, 58, 65
2, 1288232, Note_on_c, 0, 65, 0
2, 1288296, Note_on_c, 0, 70, 72
2, 1288316, Note_on_c, 0, 68, 0
2, 1288332, Note_on_c, 0, 70, 0
2, 1288384, Note_on_c, 0, 46, 65
2, 1288392, Note_on_c, 0, 77, 92
2, 1288448, Note_on_c, 0, 77, 0
2, 1288472, Note_on_c, 0, 82, 81
2, 1288516, Note_on_c, 0, 58, 0
2, 1288544, Note_on_c, 0, 82, 0
2, 1288564, Control_c, 0, 64, 104
2, 1288572, Note_on_c, 0, 46, 0
2, 1288576, Control_c, 0, 64, 72
2, 1288588, Control_c, 0, 64, 40
2, 1288596, Note_on_c, 0, 91, 95
2, 1288596, Control_c, 0, 64, 0
2, 1288600, Note_on_c, 0, 51, 65
2, 1288600, Note_on_c, 0, 79, 69
2, 1288672, Note_on_c, 0, 79, 0
2, 1288680, Note_on_c, 0, 91, 0
2, 1288688, Control_c, 0, 64, 72
2, 1288700, Control_c, 0, 64, 127
2, 1288756, Note_on_c, 0, 51, 0
2, 1288784, Note_on_c, 0, 58, 59
2, 1288888, Note_on_c, 0, 82, 76
2, 1288888, Note_on_c, 0, 70, 61
2, 1288920, Note_on_c, 0, 70, 0
2, 1288924, Note_on_c, 0, 82, 0
2, 1288980, Note_on_c, 0, 82, 71
2, 1288984, Note_on_c, 0, 70, 63
2, 1288996, Note_on_c, 0, 46, 62
2, 1289024, Note_on_c, 0, 70, 0
2, 1289028, Note_on_c, 0, 82, 0
2, 1289064, Note_on_c, 0, 58, 0
2, 1289076, Control_c, 0, 64, 104
2, 1289100, Control_c, 0, 64, 88
2, 1289108, Control_c, 0, 64, 72
2, 1289116, Note_on_c, 0, 46, 0
2, 1289120, Control_c, 0, 64, 56
2, 1289132, Control_c, 0, 64, 40
2, 1289140, Control_c, 0, 64, 0
2, 1289176, Note_on_c, 0, 50, 70
2, 1289244, Control_c, 0, 64, 24
2, 1289252, Control_c, 0, 64, 88
2, 1289264, Control_c, 0, 64, 127
2, 1289280, Note_on_c, 0, 65, 70
2, 1289356, Note_on_c, 0, 65, 0
2, 1289364, Note_on_c, 0, 50, 0
2, 1289372, Note_on_c, 0, 68, 70
2, 1289380, Note_on_c, 0, 58, 58
2, 1289460, Note_on_c, 0, 70, 77
2, 1289480, Note_on_c, 0, 68, 0
2, 1289508, Note_on_c, 0, 70, 0
2, 1289540, Note_on_c, 0, 46, 62
2, 1289556, Note_on_c, 0, 77, 83
2, 1289604, Note_on_c, 0, 77, 0
2, 1289636, Note_on_c, 0, 82, 85
2, 1289688, Note_on_c, 0, 58, 0
2, 1289720, Note_on_c, 0, 82, 0
2, 1289720, Control_c, 0, 64, 104
2, 1289732, Control_c, 0, 64, 88
2, 1289744, Control_c, 0, 64, 40
2, 1289752, Control_c, 0, 64, 0
2, 1289760, Note_on_c, 0, 91, 94
2, 1289768, Note_on_c, 0, 46, 0
2, 1289768, Note_on_c, 0, 79, 71
2, 1289768, Note_on_c, 0, 51, 64
2, 1289832, Note_on_c, 0, 91, 0
2, 1289832, Control_c, 0, 64, 88
2, 1289840, Control_c, 0, 64, 127
2, 1289856, Note_on_c, 0, 79, 0
2, 1289944, Note_on_c, 0, 58, 56
2, 1290036, Note_on_c, 0, 82, 67
2, 1290040, Note_on_c, 0, 70, 54
2, 1290072, Note_on_c, 0, 70, 0
2, 1290076, Note_on_c, 0, 82, 0
2, 1290100, Note_on_c, 0, 51, 0
2, 1290124, Note_on_c, 0, 82, 64
2, 1290128, Note_on_c, 0, 70, 56
2, 1290136, Note_on_c, 0, 46, 55
2, 1290160, Note_on_c, 0, 58, 0
2, 1290172, Note_on_c, 0, 82, 0
2, 1290180, Note_on_c, 0, 70, 0
2, 1290244, Note_on_c, 0, 46, 0
2, 1290276, Control_c, 0, 64, 88
2, 1290288, Control_c, 0, 64, 72
2, 1290296, Control_c, 0, 64, 24
2, 1290308, Control_c, 0, 64, 0
2, 1290336, Note_on_c, 0, 48, 74
2, 1290384, Control_c, 0, 64, 24
2, 1290396, Control_c, 0, 64, 72
2, 1290408, Control_c, 0, 64, 127
2, 1290424, Note_on_c, 0, 63, 65
2, 1290484, Control_c, 0, 64, 104
2, 1290496, Control_c, 0, 64, 72
2, 1290504, Note_on_c, 0, 63, 0
2, 1290508, Control_c, 0, 64, 40
2, 1290520, Control_c, 0, 64, 24
2, 1290528, Note_on_c, 0, 48, 0
2, 1290528, Note_on_c, 0, 67, 74
2, 1290532, Control_c, 0, 64, 0
2, 1290540, Note_on_c, 0, 56, 47
2, 1290564, Control_c, 0, 64, 56
2, 1290576, Control_c, 0, 64, 88
2, 1290584, Control_c, 0, 64, 104
2, 1290600, Note_on_c, 0, 67, 0
2, 1290620, Note_on_c, 0, 68, 76
2, 1290684, Control_c, 0, 64, 40
2, 1290688, Note_on_c, 0, 68, 0
2, 1290696, Control_c, 0, 64, 0
2, 1290720, Note_on_c, 0, 65, 82
2, 1290728, Note_on_c, 0, 56, 0
2, 1290732, Note_on_c, 0, 50, 61
2, 1290732, Control_c, 0, 64, 40
2, 1290740, Control_c, 0, 64, 72
2, 1290752, Control_c, 0, 64, 104
2, 1290764, Control_c, 0, 64, 127
2, 1290772, Note_on_c, 0, 65, 0
2, 1290820, Note_on_c, 0, 80, 86
2, 1290860, Note_on_c, 0, 80, 0
2, 1290884, Note_on_c, 0, 50, 0
2, 1290884, Control_c, 0, 64, 104
2, 1290896, Control_c, 0, 64, 72
2, 1290908, Control_c, 0, 64, 24
2, 1290916, Note_on_c, 0, 47, 74
2, 1290920, Control_c, 0, 64, 0
2, 1291020, Note_on_c, 0, 62, 77
2, 1291020, Control_c, 0, 64, 72
2, 1291028, Control_c, 0, 64, 127
2, 1291092, Note_on_c, 0, 62, 0
2, 1291108, Note_on_c, 0, 65, 76
2, 1291124, Note_on_c, 0, 47, 0
2, 1291128, Note_on_c, 0, 55, 51
2, 1291204, Note_on_c, 0, 67, 85
2, 1291212, Note_on_c, 0, 65, 0
2, 1291248, Note_on_c, 0, 67, 0
2, 1291300, Note_on_c, 0, 63, 83
2, 1291308, Note_on_c, 0, 48, 59
2, 1291316, Note_on_c, 0, 55, 0
2, 1291340, Note_on_c, 0, 48, 0
2, 1291344, Note_on_c, 0, 63, 0
2, 1291400, Note_on_c, 0, 79, 80
2, 1291440, Note_on_c, 0, 79, 0
2, 1291528, Note_on_c, 0, 65, 92
2, 1291528, Control_c, 0, 64, 104
2, 1291532, Note_on_c, 0, 60, 74
2, 1291532, Note_on_c, 0, 63, 60
2, 1291540, Control_c, 0, 64, 88
2, 1291552, Control_c, 0, 64, 72
2, 1291556, Note_on_c, 0, 63, 0
2, 1291564, Control_c, 0, 64, 56
2, 1291576, Control_c, 0, 64, 24
2, 1291584, Control_c, 0, 64, 0
2, 1291596, Note_on_c, 0, 63, 19
2, 1291624, Note_on_c, 0, 45, 61
2, 1291720, Note_on_c, 0, 53, 63
2, 1291788, Note_on_c, 0, 45, 0
2, 1291812, Note_on_c, 0, 53, 0
2, 1291812, Note_on_c, 0, 54, 67
2, 1291908, Note_on_c, 0, 54, 0
2, 1291920, Note_on_c, 0, 55, 70
2, 1292004, Note_on_c, 0, 55, 0
2, 1292020, Note_on_c, 0, 53, 77
2, 1292104, Note_on_c, 0, 53, 0
2, 1292120, Note_on_c, 0, 51, 84
2, 1292128, Note_on_c, 0, 63, 0
2, 1292196, Note_on_c, 0, 51, 0
2, 1292212, Note_on_c, 0, 50, 77
2, 1292228, Control_c, 0, 64, 24
2, 1292240, Control_c, 0, 64, 40
2, 1292252, Control_c, 0, 64, 56
2, 1292272, Control_c, 0, 64, 72
2, 1292284, Control_c, 0, 64, 88
2, 1292324, Note_on_c, 0, 50, 0
2, 1292328, Note_on_c, 0, 48, 75
2, 1292360, Control_c, 0, 64, 104
2, 1292396, Note_on_c, 0, 48, 0
2, 1292420, Note_on_c, 0, 46, 72
2, 1292500, Note_on_c, 0, 46, 0
2, 1292520, Note_on_c, 0, 45, 70
2, 1292544, Note_on_c, 0, 60, 0
2, 1292604, Note_on_c, 0, 45, 0
2, 1292612, Note_on_c, 0, 43, 69
2, 1292668, Note_on_c, 0, 43, 0
2, 1292736, Note_on_c, 0, 65, 0
2, 1292744, Note_on_c, 0, 56, 75
2, 1292744, Note_on_c, 0, 46, 60
2, 1292752, Control_c, 0, 64, 40
2, 1292760, Control_c, 0, 64, 0
2, 1292764, Note_on_c, 0, 41, 63
2, 1292840, Control_c, 0, 64, 40
2, 1292852, Control_c, 0, 64, 72
2, 1292856, Note_on_c, 0, 56, 0
2, 1292860, Note_on_c, 0, 57, 78
2, 1292860, Control_c, 0, 64, 88
2, 1292872, Control_c, 0, 64, 104
2, 1292928, Control_c, 0, 64, 127
2, 1292952, Note_on_c, 0, 58, 73
2, 1292960, Note_on_c, 0, 57, 0
2, 1293000, Note_on_c, 0, 46, 0
2, 1293028, Note_on_c, 0, 58, 0
2, 1293052, Note_on_c, 0, 60, 82
2, 1293076, Note_on_c, 0, 59, 31
2, 1293104, Note_on_c, 0, 41, 0
2, 1293120, Note_on_c, 0, 59, 0
2, 1293120, Note_on_c, 0, 60, 0
2, 1293148, Note_on_c, 0, 62, 79
2, 1293216, Note_on_c, 0, 62, 0
2, 1293236, Note_on_c, 0, 63, 71
2, 1293304, Control_c, 0, 64, 104
2, 1293308, Note_on_c, 0, 63, 0
2, 1293316, Control_c, 0, 64, 56
2, 1293328, Control_c, 0, 64, 24
2, 1293340, Control_c, 0, 64, 0
2, 1293348, Note_on_c, 0, 65, 82
2, 1293352, Note_on_c, 0, 56, 71
2, 1293352, Note_on_c, 0, 51, 56
2, 1293360, Note_on_c, 0, 39, 46
2, 1293360, Note_on_c, 0, 44, 42
2, 1293384, Control_c, 0, 64, 24
2, 1293392, Note_on_c, 0, 56, 0
2, 1293396, Control_c, 0, 64, 88
2, 1293404, Control_c, 0, 64, 127
2, 1293436, Note_on_c, 0, 65, 0
2, 1293468, Note_on_c, 0, 67, 77
2, 1293484, Note_on_c, 0, 39, 0
2, 1293500, Note_on_c, 0, 67, 0
2, 1293544, Note_on_c, 0, 51, 0
2, 1293576, Note_on_c, 0, 68, 81
2, 1293636, Note_on_c, 0, 68, 0
2, 1293676, Note_on_c, 0, 69, 83
2, 1293760, Note_on_c, 0, 69, 0
2, 1293784, Note_on_c, 0, 55, 77
2, 1293784, Note_on_c, 0, 70, 83
2, 1293824, Note_on_c, 0, 44, 0
2, 1293848, Note_on_c, 0, 55, 0
2, 1293880, Note_on_c, 0, 70, 0
2, 1293880, Note_on_c, 0, 72, 89
2, 1293972, Note_on_c, 0, 46, 65
2, 1293972, Control_c, 0, 64, 40
2, 1293980, Note_on_c, 0, 38, 70
2, 1293984, Control_c, 0, 64, 0
2, 1293988, Note_on_c, 0, 70, 81
2, 1293992, Note_on_c, 0, 72, 0
2, 1294040, Note_on_c, 0, 38, 0
2, 1294044, Note_on_c, 0, 53, 78
2, 1294048, Control_c, 0, 64, 56
2, 1294060, Control_c, 0, 64, 127
2, 1294080, Note_on_c, 0, 70, 0
2, 1294088, Note_on_c, 0, 69, 88
2, 1294180, Note_on_c, 0, 70, 77
2, 1294200, Note_on_c, 0, 69, 0
2, 1294224, Note_on_c, 0, 53, 0
2, 1294232, Note_on_c, 0, 70, 0
2, 1294260, Note_on_c, 0, 46, 0
2, 1294280, Note_on_c, 0, 72, 86
2, 1294340, Note_on_c, 0, 72, 0
2, 1294376, Note_on_c, 0, 74, 88
2, 1294440, Note_on_c, 0, 74, 0
2, 1294464, Note_on_c, 0, 75, 83
2, 1294464, Note_on_c, 0, 36, 57
2, 1294468, Control_c, 0, 64, 104
2, 1294480, Control_c, 0, 64, 72
2, 1294492, Control_c, 0, 64, 56
2, 1294504, Control_c, 0, 64, 0
2, 1294508, Note_on_c, 0, 36, 0
2, 1294536, Note_on_c, 0, 41, 31
2, 1294560, Note_on_c, 0, 75, 0
2, 1294572, Note_on_c, 0, 77, 93
2, 1294572, Note_on_c, 0, 51, 55
2, 1294576, Note_on_c, 0, 68, 58
2, 1294580, Control_c, 0, 64, 24
2, 1294592, Control_c, 0, 64, 88
2, 1294604, Note_on_c, 0, 68, 0
2, 1294604, Control_c, 0, 64, 127
2, 1294640, Note_on_c, 0, 77, 0
2, 1294684, Note_on_c, 0, 79, 88
2, 1294740, Note_on_c, 0, 79, 0
2, 1294784, Note_on_c, 0, 80, 88
2, 1294848, Note_on_c, 0, 80, 0
2, 1294884, Note_on_c, 0, 81, 85
2, 1294944, Note_on_c, 0, 81, 0
2, 1294976, Note_on_c, 0, 82, 79
2, 1295028, Note_on_c, 0, 41, 0
2, 1295036, Note_on_c, 0, 51, 0
2, 1295056, Note_on_c, 0, 82, 0
2, 1295068, Note_on_c, 0, 84, 88
2, 1295128, Note_on_c, 0, 84, 0
2, 1295172, Control_c, 0, 64, 88
2, 1295180, Control_c, 0, 64, 40
2, 1295188, Note_on_c, 0, 82, 87
2, 1295192, Note_on_c, 0, 70, 77
2, 1295192, Control_c, 0, 64, 0
2, 1295196, Note_on_c, 0, 77, 80
2, 1295200, Note_on_c, 0, 38, 69
2, 1295268, Control_c, 0, 64, 40
2, 1295280, Control_c, 0, 64, 88
2, 1295292, Note_on_c, 0, 38, 0
2, 1295292, Control_c, 0, 64, 127
2, 1295304, Note_on_c, 0, 45, 44
2, 1295364, Note_on_c, 0, 45, 0
2, 1295388, Note_on_c, 0, 46, 73
2, 1295464, Note_on_c, 0, 46, 0
2, 1295492, Note_on_c, 0, 48, 58
2, 1295556, Note_on_c, 0, 48, 0
2, 1295564, Note_on_c, 0, 70, 0
2, 1295564, Note_on_c, 0, 50, 60
2, 1295604, Note_on_c, 0, 50, 0
2, 1295656, Note_on_c, 0, 51, 74
2, 1295660, Note_on_c, 0, 77, 0
2, 1295720, Note_on_c, 0, 82, 0
2, 1295760, Note_on_c, 0, 51, 0
2, 1295768, Note_on_c, 0, 83, 93
2, 1295768, Control_c, 0, 64, 88
2, 1295776, Note_on_c, 0, 80, 76
2, 1295776, Note_on_c, 0, 77, 60
2, 1295776, Note_on_c, 0, 71, 70
2, 1295780, Note_on_c, 0, 53, 72
2, 1295780, Control_c, 0, 64, 24
2, 1295792, Control_c, 0, 64, 0
2, 1295860, Control_c, 0, 64, 24
2, 1295864, Note_on_c, 0, 53, 0
2, 1295864, Note_on_c, 0, 52, 70
2, 1295868, Control_c, 0, 64, 72
2, 1295880, Control_c, 0, 64, 127
2, 1295940, Note_on_c, 0, 52, 0
2, 1295964, Note_on_c, 0, 53, 68
2, 1296048, Note_on_c, 0, 55, 72
2, 1296120, Note_on_c, 0, 53, 0
2, 1296140, Note_on_c, 0, 55, 0
2, 1296152, Note_on_c, 0, 71, 0
2, 1296152, Note_on_c, 0, 56, 67
2, 1296232, Note_on_c, 0, 83, 0
2, 1296260, Note_on_c, 0, 56, 0
2, 1296264, Note_on_c, 0, 53, 71
2, 1296308, Note_on_c, 0, 77, 0
2, 1296316, Note_on_c, 0, 53, 0
2, 1296320, Note_on_c, 0, 80, 0
2, 1296336, Control_c, 0, 64, 88
2, 1296348, Control_c, 0, 64, 56
2, 1296360, Control_c, 0, 64, 0
2, 1296364, Note_on_c, 0, 84, 97
2, 1296368, Note_on_c, 0, 80, 75
2, 1296368, Note_on_c, 0, 72, 74
2, 1296376, Note_on_c, 0, 77, 77
2, 1296380, Note_on_c, 0, 48, 69
2, 1296448, Control_c, 0, 64, 24
2, 1296456, Note_on_c, 0, 48, 0
2, 1296456, Control_c, 0, 64, 72
2, 1296468, Note_on_c, 0, 53, 69
2, 1296468, Control_c, 0, 64, 127
2, 1296580, Note_on_c, 0, 55, 83
2, 1296584, Note_on_c, 0, 53, 0
2, 1296660, Note_on_c, 0, 55, 0
2, 1296664, Note_on_c, 0, 56, 76
2, 1296724, Note_on_c, 0, 56, 0
2, 1296752, Note_on_c, 0, 72, 0
2, 1296760, Note_on_c, 0, 58, 67
2, 1296828, Note_on_c, 0, 77, 0
2, 1296832, Note_on_c, 0, 84, 0
2, 1296840, Note_on_c, 0, 58, 0
2, 1296852, Note_on_c, 0, 60, 71
2, 1296864, Note_on_c, 0, 80, 0
2, 1296880, Note_on_c, 0, 47, 77
2, 1296928, Note_on_c, 0, 47, 0
2, 1296948, Note_on_c, 0, 60, 0
2, 1296948, Control_c, 0, 64, 104
2, 1296956, Note_on_c, 0, 86, 101
2, 1296956, Control_c, 0, 64, 72
2, 1296964, Note_on_c, 0, 80, 71
2, 1296964, Note_on_c, 0, 74, 78
2, 1296964, Note_on_c, 0, 77, 82
2, 1296968, Control_c, 0, 64, 40
2, 1296976, Note_on_c, 0, 62, 71
2, 1296980, Control_c, 0, 64, 0
2, 1297060, Note_on_c, 0, 62, 0
2, 1297068, Control_c, 0, 64, 72
2, 1297072, Note_on_c, 0, 61, 75
2, 1297080, Control_c, 0, 64, 127
2, 1297148, Note_on_c, 0, 61, 0
2, 1297168, Note_on_c, 0, 62, 70
2, 1297248, Note_on_c, 0, 62, 0
2, 1297256, Note_on_c, 0, 63, 74
2, 1297340, Note_on_c, 0, 74, 0
2, 1297344, Note_on_c, 0, 63, 0
2, 1297364, Note_on_c, 0, 77, 0
2, 1297368, Note_on_c, 0, 65, 77
2, 1297384, Note_on_c, 0, 80, 0
2, 1297396, Note_on_c, 0, 86, 0
2, 1297420, Note_on_c, 0, 65, 0
2, 1297480, Note_on_c, 0, 62, 74
2, 1297524, Note_on_c, 0, 62, 0
2, 1297556, Control_c, 0, 64, 104
2, 1297568, Control_c, 0, 64, 72
2, 1297580, Control_c, 0, 64, 0
2, 1297584, Note_on_c, 0, 48, 80
2, 1297624, Note_on_c, 0, 48, 0
2, 1297624, Note_on_c, 0, 87, 105
2, 1297632, Note_on_c, 0, 75, 78
2, 1297640, Note_on_c, 0, 79, 75
2, 1297640, Note_on_c, 0, 84, 76
2, 1297648, Note_on_c, 0, 55, 72
2, 1297660, Note_on_c, 0, 84, 0
2, 1297660, Note_on_c, 0, 79, 0
2, 1297668, Note_on_c, 0, 75, 0
2, 1297668, Control_c, 0, 64, 88
2, 1297676, Note_on_c, 0, 63, 75
2, 1297680, Control_c, 0, 64, 127
2, 1297696, Note_on_c, 0, 87, 0
2, 1297696, Note_on_c, 0, 55, 0
2, 1297732, Note_on_c, 0, 63, 0
2, 1297936, Note_on_c, 0, 72, 77
2, 1297936, Note_on_c, 0, 63, 46
2, 1297940, Note_on_c, 0, 60, 63
2, 1297948, Note_on_c, 0, 67, 43
2, 1297960, Note_on_c, 0, 60, 0
2, 1297968, Note_on_c, 0, 63, 0
2, 1297976, Note_on_c, 0, 72, 0
2, 1297976, Note_on_c, 0, 67, 0
2, 1298016, Note_on_c, 0, 72, 87
2, 1298020, Note_on_c, 0, 67, 60
2, 1298024, Note_on_c, 0, 60, 60
2, 1298024, Note_on_c, 0, 63, 46
2, 1298052, Note_on_c, 0, 67, 0
2, 1298056, Note_on_c, 0, 60, 0
2, 1298076, Note_on_c, 0, 63, 0
2, 1298084, Note_on_c, 0, 72, 0
2, 1298224, Note_on_c, 0, 60, 59
2, 1298224, Note_on_c, 0, 63, 51
2, 1298228, Note_on_c, 0, 72, 83
2, 1298236, Note_on_c, 0, 67, 60
2, 1298244, Note_on_c, 0, 60, 0
2, 1298256, Control_c, 0, 64, 56
2, 1298272, Control_c, 0, 64, 104
2, 1298284, Control_c, 0, 64, 127
2, 1298300, Note_on_c, 0, 63, 0
2, 1298420, Note_on_c, 0, 72, 0
2, 1298420, Control_c, 0, 64, 104
2, 1298424, Note_on_c, 0, 74, 86
2, 1298432, Note_on_c, 0, 48, 63
2, 1298432, Control_c, 0, 64, 72
2, 1298440, Note_on_c, 0, 67, 0
2, 1298444, Control_c, 0, 64, 40
2, 1298456, Control_c, 0, 64, 0
2, 1298460, Note_on_c, 0, 48, 0
2, 1298512, Note_on_c, 0, 74, 0
2, 1298608, Note_on_c, 0, 75, 85
2, 1298612, Note_on_c, 0, 63, 55
2, 1298620, Note_on_c, 0, 67, 65
2, 1298624, Note_on_c, 0, 60, 53
2, 1298648, Note_on_c, 0, 67, 0
2, 1298652, Note_on_c, 0, 60, 0
2, 1298676, Note_on_c, 0, 63, 0
2, 1298680, Note_on_c, 0, 75, 0
2, 1298808, Control_c, 0, 64, 24
2, 1298816, Note_on_c, 0, 60, 70
2, 1298816, Note_on_c, 0, 75, 83
2, 1298820, Note_on_c, 0, 65, 62
2, 1298824, Note_on_c, 0, 68, 71
2, 1298824, Control_c, 0, 64, 88
2, 1298836, Control_c, 0, 64, 127
2, 1298848, Note_on_c, 0, 65, 0
2, 1298852, Note_on_c, 0, 60, 0
2, 1298884, Note_on_c, 0, 68, 0
2, 1298992, Note_on_c, 0, 75, 0
2, 1299024, Note_on_c, 0, 77, 86
2, 1299024, Control_c, 0, 64, 104
2, 1299032, Note_on_c, 0, 48, 65
2, 1299036, Control_c, 0, 64, 72
2, 1299048, Control_c, 0, 64, 40
2, 1299056, Note_on_c, 0, 48, 0
2, 1299060, Control_c, 0, 64, 24
2, 1299076, Control_c, 0, 64, 0
2, 1299104, Note_on_c, 0, 77, 0
2, 1299208, Note_on_c, 0, 60, 53
2, 1299220, Note_on_c, 0, 74, 78
2, 1299220, Note_on_c, 0, 68, 54
2, 1299228, Note_on_c, 0, 65, 35
2, 1299268, Note_on_c, 0, 65, 0
2, 1299272, Note_on_c, 0, 60, 0
2, 1299280, Note_on_c, 0, 68, 0
2, 1299300, Note_on_c, 0, 74, 0
2, 1299412, Note_on_c, 0, 60, 68
2, 1299412, Note_on_c, 0, 74, 82
2, 1299412, Control_c, 0, 64, 24
2, 1299420, Note_on_c, 0, 68, 54
2, 1299428, Control_c, 0, 64, 72
2, 1299436, Note_on_c, 0, 60, 0
2, 1299440, Control_c, 0, 64, 127
2, 1299456, Note_on_c, 0, 68, 0
2, 1299480, Note_on_c, 0, 74, 0
2, 1299604, Note_on_c, 0, 48, 77
2, 1299640, Control_c, 0, 64, 88
2, 1299644, Note_on_c, 0, 48, 0
2, 1299652, Control_c, 0, 64, 56
2, 1299668, Control_c, 0, 64, 40
2, 1299680, Control_c, 0, 64, 24
2, 1299696, Control_c, 0, 64, 0
2, 1299796, Note_on_c, 0, 76, 90
2, 1299796, Note_on_c, 0, 67, 65
2, 1299796, Note_on_c, 0, 61, 53
2, 1299796, Note_on_c, 0, 70, 64
2, 1299804, Note_on_c, 0, 58, 46
2, 1299844, Note_on_c, 0, 70, 0
2, 1299844, Note_on_c, 0, 67, 0
2, 1299848, Note_on_c, 0, 61, 0
2, 1299852, Note_on_c, 0, 58, 0
2, 1299876, Note_on_c, 0, 76, 0
2, 1300004, Note_on_c, 0, 61, 73
2, 1300004, Note_on_c, 0, 76, 90
2, 1300004, Control_c, 0, 64, 24
2, 1300008, Note_on_c, 0, 67, 65
2, 1300008, Note_on_c, 0, 58, 57
2, 1300016, Note_on_c, 0, 70, 61
2, 1300016, Control_c, 0, 64, 88
2, 1300028, Control_c, 0, 64, 127
2, 1300032, Note_on_c, 0, 67, 0
2, 1300036, Note_on_c, 0, 58, 0
2, 1300052, Note_on_c, 0, 61, 0
2, 1300064, Note_on_c, 0, 70, 0
2, 1300092, Note_on_c, 0, 76, 0
2, 1300188, Note_on_c, 0, 48, 81
2, 1300212, Note_on_c, 0, 48, 0
2, 1300300, Control_c, 0, 64, 104
2, 1300304, Note_on_c, 0, 70, 73
2, 1300308, Note_on_c, 0, 76, 89
2, 1300312, Control_c, 0, 64, 88
2, 1300324, Control_c, 0, 64, 72
2, 1300340, Control_c, 0, 64, 56
2, 1300344, Note_on_c, 0, 70, 0
2, 1300352, Control_c, 0, 64, 24
2, 1300356, Note_on_c, 0, 76, 0
2, 1300372, Note_on_c, 0, 61, 62
2, 1300372, Note_on_c, 0, 58, 61
2, 1300376, Note_on_c, 0, 67, 68
2, 1300380, Note_on_c, 0, 76, 86
2, 1300380, Note_on_c, 0, 70, 72
2, 1300380, Control_c, 0, 64, 0
2, 1300404, Note_on_c, 0, 61, 0
2, 1300408, Note_on_c, 0, 67, 0
2, 1300420, Note_on_c, 0, 58, 0
2, 1300436, Note_on_c, 0, 70, 0
2, 1300472, Note_on_c, 0, 76, 0
2, 1300560, Note_on_c, 0, 76, 96
2, 1300564, Note_on_c, 0, 70, 71
2, 1300568, Note_on_c, 0, 67, 70
2, 1300568, Note_on_c, 0, 58, 61
2, 1300568, Control_c, 0, 64, 56
2, 1300572, Note_on_c, 0, 61, 62
2, 1300580, Control_c, 0, 64, 127
2, 1300592, Note_on_c, 0, 67, 0
2, 1300596, Note_on_c, 0, 58, 0
2, 1300600, Note_on_c, 0, 61, 0
2, 1300692, Note_on_c, 0, 76, 0
2, 1300748, Note_on_c, 0, 77, 86
2, 1300752, Note_on_c, 0, 70, 0
2, 1300752, Note_on_c, 0, 48, 72
2, 1300784, Note_on_c, 0, 48, 0
2, 1300784, Control_c, 0, 64, 72
2, 1300796, Control_c, 0, 64, 40
2, 1300808, Control_c, 0, 64, 24
2, 1300824, Control_c, 0, 64, 0
2, 1300860, Note_on_c, 0, 77, 0
2, 1300932, Note_on_c, 0, 79, 88
2, 1300936, Note_on_c, 0, 70, 67
2, 1300944, Note_on_c, 0, 67, 65
2, 1300944, Note_on_c, 0, 61, 56
2, 1300952, Note_on_c, 0, 58, 44
2, 1300972, Note_on_c, 0, 67, 0
2, 1300976, Note_on_c, 0, 61, 0
2, 1300992, Note_on_c, 0, 70, 0
2, 1300996, Note_on_c, 0, 58, 0
2, 1301012, Note_on_c, 0, 79, 0
2, 1301116, Control_c, 0, 64, 24
2, 1301132, Note_on_c, 0, 79, 89
2, 1301132, Note_on_c, 0, 60, 74
2, 1301132, Control_c, 0, 64, 104
2, 1301136, Note_on_c, 0, 67, 69
2, 1301140, Note_on_c, 0, 70, 61
2, 1301144, Note_on_c, 0, 56, 55
2, 1301144, Control_c, 0, 64, 127
2, 1301164, Note_on_c, 0, 67, 0
2, 1301172, Note_on_c, 0, 60, 0
2, 1301192, Note_on_c, 0, 56, 0
2, 1301192, Note_on_c, 0, 70, 0
2, 1301220, Note_on_c, 0, 79, 0
2, 1301332, Note_on_c, 0, 48, 74
2, 1301336, Note_on_c, 0, 80, 83
2, 1301348, Control_c, 0, 64, 104
2, 1301360, Control_c, 0, 64, 72
2, 1301372, Note_on_c, 0, 48, 0
2, 1301372, Control_c, 0, 64, 40
2, 1301388, Control_c, 0, 64, 24
2, 1301400, Control_c, 0, 64, 0
2, 1301436, Note_on_c, 0, 80, 0
2, 1301520, Note_on_c, 0, 77, 87
2, 1301532, Note_on_c, 0, 68, 52
2, 1301532, Note_on_c, 0, 65, 57
2, 1301536, Note_on_c, 0, 60, 54
2, 1301540, Note_on_c, 0, 56, 37
2, 1301572, Note_on_c, 0, 60, 0
2, 1301572, Note_on_c, 0, 65, 0
2, 1301576, Note_on_c, 0, 56, 0
2, 1301576, Note_on_c, 0, 68, 0
2, 1301608, Note_on_c, 0, 77, 0
2, 1301708, Note_on_c, 0, 60, 65
2, 1301716, Note_on_c, 0, 65, 54
2, 1301716, Note_on_c, 0, 77, 92
2, 1301720, Note_on_c, 0, 68, 67
2, 1301724, Note_on_c, 0, 56, 25
2, 1301732, Note_on_c, 0, 60, 0
2, 1301736, Control_c, 0, 64, 88
2, 1301740, Note_on_c, 0, 65, 0
2, 1301748, Note_on_c, 0, 56, 0
2, 1301748, Control_c, 0, 64, 127
2, 1301764, Note_on_c, 0, 68, 0
2, 1301788, Note_on_c, 0, 77, 0
2, 1301900, Note_on_c, 0, 48, 76
2, 1301932, Note_on_c, 0, 48, 0
2, 1301936, Control_c, 0, 64, 88
2, 1301948, Control_c, 0, 64, 56
2, 1301964, Control_c, 0, 64, 24
2, 1301980, Control_c, 0, 64, 0
2, 1302092, Note_on_c, 0, 68, 82
2, 1302096, Note_on_c, 0, 80, 91
2, 1302096, Note_on_c, 0, 58, 53
2, 1302096, Note_on_c, 0, 61, 51
2, 1302100, Note_on_c, 0, 73, 75
2, 1302116, Note_on_c, 0, 70, 38
2, 1302128, Note_on_c, 0, 73, 0
2, 1302136, Note_on_c, 0, 70, 0
2, 1302148, Note_on_c, 0, 58, 0
2, 1302148, Note_on_c, 0, 61, 0
2, 1302148, Note_on_c, 0, 68, 0
2, 1302188, Note_on_c, 0, 80, 0
2, 1302300, Control_c, 0, 64, 40
2, 1302304, Note_on_c, 0, 80, 91
2, 1302304, Note_on_c, 0, 68, 84
2, 1302308, Note_on_c, 0, 58, 69
2, 1302308, Note_on_c, 0, 61, 64
2, 1302312, Note_on_c, 0, 73, 75
2, 1302312, Note_on_c, 0, 70, 69
2, 1302312, Control_c, 0, 64, 104
2, 1302328, Control_c, 0, 64, 127
2, 1302336, Note_on_c, 0, 70, 0
2, 1302348, Note_on_c, 0, 61, 0
2, 1302352, Note_on_c, 0, 68, 0
2, 1302360, Note_on_c, 0, 73, 0
2, 1302360, Note_on_c, 0, 58, 0
2, 1302400, Note_on_c, 0, 80, 0
2, 1302512, Note_on_c, 0, 48, 74
2, 1302536, Note_on_c, 0, 48, 0
2, 1302540, Control_c, 0, 64, 88
2, 1302556, Control_c, 0, 64, 72
2, 1302568, Control_c, 0, 64, 40
2, 1302580, Control_c, 0, 64, 24
2, 1302604, Note_on_c, 0, 79, 87
2, 1302608, Note_on_c, 0, 67, 76
2, 1302608, Control_c, 0, 64, 0
2, 1302620, Note_on_c, 0, 73, 49
2, 1302628, Note_on_c, 0, 79, 0
2, 1302640, Note_on_c, 0, 73, 0
2, 1302640, Note_on_c, 0, 67, 0
2, 1302684, Note_on_c, 0, 79, 90
2, 1302684, Note_on_c, 0, 67, 80
2, 1302684, Note_on_c, 0, 73, 63
2, 1302688, Note_on_c, 0, 61, 62
2, 1302688, Note_on_c, 0, 58, 54
2, 1302688, Note_on_c, 0, 70, 60
2, 1302728, Note_on_c, 0, 70, 0
2, 1302736, Note_on_c, 0, 58, 0
2, 1302748, Note_on_c, 0, 61, 0
2, 1302764, Note_on_c, 0, 67, 0
2, 1302768, Note_on_c, 0, 79, 0
2, 1302772, Note_on_c, 0, 73, 0
2, 1302892, Note_on_c, 0, 79, 92
2, 1302892, Control_c, 0, 64, 56
2, 1302896, Note_on_c, 0, 72, 86
2, 1302896, Note_on_c, 0, 68, 63
2, 1302900, Note_on_c, 0, 67, 73
2, 1302900, Note_on_c, 0, 60, 67
2, 1302904, Control_c, 0, 64, 127
2, 1302908, Note_on_c, 0, 56, 54
2, 1302924, Note_on_c, 0, 60, 0
2, 1302932, Note_on_c, 0, 56, 0
2, 1302936, Note_on_c, 0, 68, 0
2, 1302956, Note_on_c, 0, 67, 0
2, 1302960, Note_on_c, 0, 72, 0
2, 1302976, Note_on_c, 0, 79, 0
2, 1303080, Note_on_c, 0, 48, 66
2, 1303108, Note_on_c, 0, 48, 0
2, 1303132, Control_c, 0, 64, 88
2, 1303144, Control_c, 0, 64, 72
2, 1303156, Control_c, 0, 64, 56
2, 1303172, Control_c, 0, 64, 40
2, 1303184, Control_c, 0, 64, 24
2, 1303192, Note_on_c, 0, 77, 86
2, 1303196, Note_on_c, 0, 65, 70
2, 1303200, Note_on_c, 0, 72, 77
2, 1303232, Note_on_c, 0, 72, 0
2, 1303232, Note_on_c, 0, 65, 0
2, 1303240, Control_c, 0, 64, 0
2, 1303244, Note_on_c, 0, 77, 0
2, 1303272, Note_on_c, 0, 56, 54
2, 1303276, Note_on_c, 0, 60, 60
2, 1303276, Note_on_c, 0, 68, 56
2, 1303280, Note_on_c, 0, 77, 89
2, 1303280, Note_on_c, 0, 65, 62
2, 1303280, Note_on_c, 0, 72, 76
2, 1303304, Note_on_c, 0, 60, 0
2, 1303328, Note_on_c, 0, 68, 0
2, 1303332, Note_on_c, 0, 56, 0
2, 1303336, Note_on_c, 0, 72, 0
2, 1303352, Note_on_c, 0, 65, 0
2, 1303360, Note_on_c, 0, 77, 0
2, 1303468, Note_on_c, 0, 58, 67
2, 1303468, Control_c, 0, 64, 24
2, 1303472, Note_on_c, 0, 77, 92
2, 1303472, Note_on_c, 0, 67, 70
2, 1303476, Note_on_c, 0, 65, 68
2, 1303476, Note_on_c, 0, 70, 71
2, 1303480, Control_c, 0, 64, 88
2, 1303496, Control_c, 0, 64, 127
2, 1303500, Note_on_c, 0, 67, 0
2, 1303500, Note_on_c, 0, 55, 31
2, 1303504, Note_on_c, 0, 65, 0
2, 1303528, Note_on_c, 0, 55, 0
2, 1303532, Note_on_c, 0, 58, 0
2, 1303540, Note_on_c, 0, 70, 0
2, 1303544, Note_on_c, 0, 77, 0
2, 1303668, Note_on_c, 0, 48, 71
2, 1303692, Note_on_c, 0, 48, 0
2, 1303696, Control_c, 0, 64, 88
2, 1303708, Control_c, 0, 64, 72
2, 1303724, Control_c, 0, 64, 40
2, 1303736, Control_c, 0, 64, 24
2, 1303740, Note_on_c, 0, 75, 83
2, 1303740, Note_on_c, 0, 63, 73
2, 1303752, Note_on_c, 0, 70, 53
2, 1303764, Control_c, 0, 64, 0
2, 1303776, Note_on_c, 0, 70, 0
2, 1303776, Note_on_c, 0, 63, 0
2, 1303784, Note_on_c, 0, 75, 0
2, 1303816, Note_on_c, 0, 75, 90
2, 1303816, Note_on_c, 0, 63, 72
2, 1303820, Note_on_c, 0, 70, 60
2, 1303840, Note_on_c, 0, 67, 59
2, 1303844, Note_on_c, 0, 58, 38
2, 1303852, Note_on_c, 0, 55, 46
2, 1303868, Note_on_c, 0, 67, 0
2, 1303868, Note_on_c, 0, 63, 0
2, 1303876, Note_on_c, 0, 58, 0
2, 1303880, Note_on_c, 0, 55, 0
2, 1303892, Note_on_c, 0, 70, 0
2, 1303900, Note_on_c, 0, 75, 0
2, 1304032, Note_on_c, 0, 75, 85
2, 1304036, Note_on_c, 0, 63, 71
2, 1304036, Note_on_c, 0, 68, 70
2, 1304040, Note_on_c, 0, 56, 56
2, 1304052, Note_on_c, 0, 65, 52
2, 1304052, Note_on_c, 0, 53, 56
2, 1304072, Control_c, 0, 64, 72
2, 1304080, Note_on_c, 0, 65, 0
2, 1304084, Note_on_c, 0, 53, 0
2, 1304088, Note_on_c, 0, 63, 0
2, 1304088, Control_c, 0, 64, 127
2, 1304104, Note_on_c, 0, 56, 0
2, 1304108, Note_on_c, 0, 68, 0
2, 1304136, Note_on_c, 0, 75, 0
2, 1304228, Note_on_c, 0, 48, 63
2, 1304260, Control_c, 0, 64, 104
2, 1304272, Control_c, 0, 64, 72
2, 1304284, Note_on_c, 0, 48, 0
2, 1304288, Control_c, 0, 64, 40
2, 1304300, Control_c, 0, 64, 24
2, 1304316, Control_c, 0, 64, 0
2, 1304412, Note_on_c, 0, 75, 85
2, 1304412, Note_on_c, 0, 63, 69
2, 1304416, Note_on_c, 0, 68, 71
2, 1304416, Note_on_c, 0, 65, 61
2, 1304416, Note_on_c, 0, 56, 55
2, 1304428, Note_on_c, 0, 53, 40
2, 1304452, Note_on_c, 0, 65, 0
2, 1304456, Note_on_c, 0, 53, 0
2, 1304464, Note_on_c, 0, 63, 0
2, 1304468, Note_on_c, 0, 56, 0
2, 1304492, Note_on_c, 0, 68, 0
2, 1304492, Note_on_c, 0, 75, 0
2, 1304604, Note_on_c, 0, 75, 82
2, 1304608, Note_on_c, 0, 56, 65
2, 1304608, Control_c, 0, 64, 56
2, 1304612, Note_on_c, 0, 65, 66
2, 1304616, Note_on_c, 0, 68, 64
2, 1304616, Note_on_c, 0, 63, 61
2, 1304624, Note_on_c, 0, 53, 41
2, 1304624, Control_c, 0, 64, 127
2, 1304636, Note_on_c, 0, 65, 0
2, 1304656, Note_on_c, 0, 53, 0
2, 1304660, Note_on_c, 0, 56, 0
2, 1304696, Note_on_c, 0, 75, 0
2, 1304712, Note_on_c, 0, 63, 0
2, 1304772, Note_on_c, 0, 48, 75
2, 1304776, Note_on_c, 0, 68, 0
2, 1304816, Note_on_c, 0, 48, 0
2, 1304824, Control_c, 0, 64, 88
2, 1304840, Control_c, 0, 64, 72
2, 1304852, Control_c, 0, 64, 40
2, 1304864, Control_c, 0, 64, 24
2, 1304876, Note_on_c, 0, 73, 73
2, 1304880, Note_on_c, 0, 61, 65
2, 1304880, Control_c, 0, 64, 0
2, 1304908, Note_on_c, 0, 61, 0
2, 1304912, Note_on_c, 0, 73, 0
2, 1304944, Note_on_c, 0, 65, 69
2, 1304944, Note_on_c, 0, 61, 68
2, 1304944, Note_on_c, 0, 73, 70
2, 1304948, Note_on_c, 0, 56, 57
2, 1304952, Note_on_c, 0, 53, 66
2, 1304952, Note_on_c, 0, 68, 58
2, 1304988, Note_on_c, 0, 53, 0
2, 1304988, Note_on_c, 0, 65, 0
2, 1304992, Note_on_c, 0, 56, 0
2, 1305012, Note_on_c, 0, 61, 0
2, 1305020, Note_on_c, 0, 73, 0
2, 1305024, Note_on_c, 0, 68, 0
2, 1305140, Note_on_c, 0, 73, 82
2, 1305152, Note_on_c, 0, 67, 74
2, 1305152, Note_on_c, 0, 61, 68
2, 1305160, Note_on_c, 0, 55, 74
2, 1305160, Note_on_c, 0, 64, 68
2, 1305160, Control_c, 0, 64, 56
2, 1305168, Note_on_c, 0, 52, 63
2, 1305172, Control_c, 0, 64, 127
2, 1305188, Note_on_c, 0, 64, 0
2, 1305196, Note_on_c, 0, 52, 0
2, 1305204, Note_on_c, 0, 55, 0
2, 1305208, Note_on_c, 0, 61, 0
2, 1305220, Note_on_c, 0, 67, 0
2, 1305236, Note_on_c, 0, 73, 0
2, 1305328, Note_on_c, 0, 48, 63
2, 1305356, Note_on_c, 0, 48, 0
2, 1305360, Control_c, 0, 64, 104
2, 1305376, Control_c, 0, 64, 88
2, 1305388, Control_c, 0, 64, 56
2, 1305404, Control_c, 0, 64, 40
2, 1305416, Control_c, 0, 64, 24
2, 1305420, Note_on_c, 0, 72, 86
2, 1305424, Note_on_c, 0, 60, 72
2, 1305428, Control_c, 0, 64, 0
2, 1305452, Note_on_c, 0, 60, 0
2, 1305472, Note_on_c, 0, 72, 0
2, 1305496, Note_on_c, 0, 72, 72
2, 1305500, Note_on_c, 0, 60, 75
2, 1305520, Note_on_c, 0, 64, 59
2, 1305532, Note_on_c, 0, 61, 57
2, 1305540, Note_on_c, 0, 52, 40
2, 1305552, Note_on_c, 0, 64, 0
2, 1305560, Note_on_c, 0, 60, 0
2, 1305568, Note_on_c, 0, 72, 0
2, 1305572, Note_on_c, 0, 52, 0
2, 1305580, Note_on_c, 0, 61, 0
2, 1305724, Note_on_c, 0, 72, 85
2, 1305732, Note_on_c, 0, 61, 66
2, 1305732, Note_on_c, 0, 65, 68
2, 1305740, Control_c, 0, 64, 24
2, 1305748, Note_on_c, 0, 49, 60
2, 1305752, Control_c, 0, 64, 88
2, 1305760, Note_on_c, 0, 53, 61
2, 1305764, Control_c, 0, 64, 127
2, 1305792, Note_on_c, 0, 53, 0
2, 1305800, Note_on_c, 0, 49, 0
2, 1305832, Note_on_c, 0, 72, 0
2, 1305832, Note_on_c, 0, 61, 0
2, 1305896, Note_on_c, 0, 49, 76
2, 1305940, Note_on_c, 0, 65, 0
2, 1305980, Control_c, 0, 64, 88
2, 1305992, Note_on_c, 0, 71, 85
2, 1305992, Control_c, 0, 64, 72
2, 1306000, Note_on_c, 0, 59, 63
2, 1306004, Note_on_c, 0, 49, 0
2, 1306008, Control_c, 0, 64, 56
2, 1306020, Control_c, 0, 64, 40
2, 1306036, Note_on_c, 0, 59, 0
2, 1306036, Control_c, 0, 64, 0
2, 1306040, Note_on_c, 0, 71, 0
2, 1306080, Note_on_c, 0, 71, 85
2, 1306084, Note_on_c, 0, 59, 70
2, 1306088, Note_on_c, 0, 53, 57
2, 1306092, Note_on_c, 0, 61, 59
2, 1306092, Note_on_c, 0, 49, 65
2, 1306132, Note_on_c, 0, 49, 0
2, 1306136, Note_on_c, 0, 59, 0
2, 1306144, Note_on_c, 0, 61, 0
2, 1306168, Note_on_c, 0, 53, 0
2, 1306168, Note_on_c, 0, 71, 0
2, 1306296, Note_on_c, 0, 72, 83
2, 1306304, Control_c, 0, 64, 24
2, 1306308, Note_on_c, 0, 60, 59
2, 1306308, Note_on_c, 0, 52, 62
2, 1306308, Note_on_c, 0, 64, 63
2, 1306316, Control_c, 0, 64, 88
2, 1306328, Control_c, 0, 64, 127
2, 1306344, Note_on_c, 0, 64, 0
2, 1306396, Note_on_c, 0, 60, 0
2, 1306416, Note_on_c, 0, 52, 0
2, 1306432, Note_on_c, 0, 72, 0
2, 1306476, Note_on_c, 0, 48, 75
2, 1306496, Note_on_c, 0, 48, 0
2, 1306568, Control_c, 0, 64, 104
2, 1306584, Control_c, 0, 64, 88
2, 1306596, Control_c, 0, 64, 72
2, 1306608, Control_c, 0, 64, 56
2, 1306624, Control_c, 0, 64, 40
2, 1306640, Control_c, 0, 64, 24
2, 1306652, Control_c, 0, 64, 0
2, 1306688, Note_on_c, 0, 72, 77
2, 1306692, Note_on_c, 0, 70, 52
2, 1306692, Note_on_c, 0, 67, 49
2, 1306696, Note_on_c, 0, 64, 51
2, 1306724, Note_on_c, 0, 67, 0
2, 1306728, Note_on_c, 0, 64, 0
2, 1306740, Note_on_c, 0, 70, 0
2, 1306752, Note_on_c, 0, 72, 0
2, 1306892, Note_on_c, 0, 67, 61
2, 1306896, Note_on_c, 0, 64, 63
2, 1306896, Control_c, 0, 64, 24
2, 1306904, Note_on_c, 0, 72, 78
2, 1306908, Control_c, 0, 64, 72
2, 1306912, Note_on_c, 0, 70, 44
2, 1306920, Note_on_c, 0, 64, 0
2, 1306920, Note_on_c, 0, 67, 0
2, 1306920, Control_c, 0, 64, 127
2, 1306972, Note_on_c, 0, 72, 0
2, 1306976, Note_on_c, 0, 70, 0
2, 1307136, Control_c, 0, 64, 104
2, 1307148, Control_c, 0, 64, 72
2, 1307156, Note_on_c, 0, 48, 65
2, 1307160, Control_c, 0, 64, 56
2, 1307176, Control_c, 0, 64, 40
2, 1307180, Note_on_c, 0, 48, 0
2, 1307188, Note_on_c, 0, 72, 73
2, 1307188, Control_c, 0, 64, 24
2, 1307192, Note_on_c, 0, 70, 45
2, 1307200, Control_c, 0, 64, 0
2, 1307212, Note_on_c, 0, 70, 0
2, 1307212, Note_on_c, 0, 72, 0
2, 1307264, Note_on_c, 0, 72, 83
2, 1307264, Note_on_c, 0, 70, 48
2, 1307292, Note_on_c, 0, 64, 66
2, 1307292, Note_on_c, 0, 67, 48
2, 1307312, Note_on_c, 0, 64, 0
2, 1307316, Note_on_c, 0, 67, 0
2, 1307320, Note_on_c, 0, 70, 0
2, 1307340, Note_on_c, 0, 72, 0
2, 1307484, Note_on_c, 0, 64, 77
2, 1307484, Note_on_c, 0, 72, 83
2, 1307484, Note_on_c, 0, 67, 66
2, 1307484, Control_c, 0, 64, 40
2, 1307496, Note_on_c, 0, 70, 63
2, 1307496, Control_c, 0, 64, 104
2, 1307508, Note_on_c, 0, 64, 0
2, 1307512, Note_on_c, 0, 67, 0
2, 1307512, Control_c, 0, 64, 127
2, 1307696, Note_on_c, 0, 70, 0
2, 1307708, Note_on_c, 0, 72, 0
2, 1307724, Control_c, 0, 64, 88
2, 1307732, Note_on_c, 0, 48, 71
2, 1307740, Control_c, 0, 64, 72
2, 1307752, Control_c, 0, 64, 56
2, 1307756, Note_on_c, 0, 48, 0
2, 1307756, Note_on_c, 0, 74, 78
2, 1307764, Control_c, 0, 64, 40
2, 1307780, Control_c, 0, 64, 24
2, 1307804, Control_c, 0, 64, 0
2, 1307812, Note_on_c, 0, 74, 0
2, 1307852, Note_on_c, 0, 76, 87
2, 1307860, Note_on_c, 0, 70, 60
2, 1307868, Note_on_c, 0, 64, 65
2, 1307876, Note_on_c, 0, 67, 31
2, 1307892, Note_on_c, 0, 64, 0
2, 1307896, Note_on_c, 0, 70, 0
2, 1307908, Note_on_c, 0, 67, 0
2, 1307932, Note_on_c, 0, 76, 0
2, 1308036, Control_c, 0, 64, 40
2, 1308040, Note_on_c, 0, 64, 69
2, 1308044, Note_on_c, 0, 76, 84
2, 1308044, Note_on_c, 0, 67, 62
2, 1308044, Note_on_c, 0, 70, 58
2, 1308048, Control_c, 0, 64, 104
2, 1308060, Control_c, 0, 64, 127
2, 1308064, Note_on_c, 0, 64, 0
2, 1308068, Note_on_c, 0, 67, 0
2, 1308120, Note_on_c, 0, 70, 0
2, 1308252, Note_on_c, 0, 76, 0
2, 1308288, Note_on_c, 0, 48, 65
2, 1308312, Note_on_c, 0, 48, 0
2, 1308316, Control_c, 0, 64, 88
2, 1308320, Note_on_c, 0, 77, 77
2, 1308328, Control_c, 0, 64, 72
2, 1308344, Control_c, 0, 64, 56
2, 1308356, Control_c, 0, 64, 40
2, 1308368, Control_c, 0, 64, 24
2, 1308372, Note_on_c, 0, 77, 0
2, 1308384, Control_c, 0, 64, 0
2, 1308400, Note_on_c, 0, 72, 86
2, 1308408, Note_on_c, 0, 60, 74
2, 1308408, Note_on_c, 0, 69, 62
2, 1308416, Note_on_c, 0, 65, 43
2, 1308440, Note_on_c, 0, 60, 0
2, 1308444, Note_on_c, 0, 69, 0
2, 1308448, Note_on_c, 0, 65, 0
2, 1308472, Note_on_c, 0, 72, 0
2, 1308612, Control_c, 0, 64, 40
2, 1308616, Note_on_c, 0, 72, 83
2, 1308616, Note_on_c, 0, 60, 70
2, 1308616, Note_on_c, 0, 65, 56
2, 1308624, Note_on_c, 0, 69, 56
2, 1308624, Control_c, 0, 64, 88
2, 1308640, Note_on_c, 0, 60, 0
2, 1308640, Control_c, 0, 64, 127
2, 1308644, Note_on_c, 0, 65, 0
2, 1308684, Note_on_c, 0, 72, 0
2, 1308724, Note_on_c, 0, 69, 0
2, 1308872, Note_on_c, 0, 48, 75
2, 1308896, Note_on_c, 0, 48, 0
2, 1308904, Note_on_c, 0, 72, 88
2, 1308908, Control_c, 0, 64, 104
2, 1308920, Control_c, 0, 64, 88
2, 1308924, Note_on_c, 0, 69, 42
2, 1308936, Control_c, 0, 64, 72
2, 1308948, Control_c, 0, 64, 56
2, 1308952, Note_on_c, 0, 69, 0
2, 1308952, Note_on_c, 0, 72, 0
2, 1308960, Control_c, 0, 64, 40
2, 1308976, Control_c, 0, 64, 24
2, 1308988, Note_on_c, 0, 73, 93
2, 1308988, Control_c, 0, 64, 0
2, 1308996, Note_on_c, 0, 60, 73
2, 1309000, Note_on_c, 0, 68, 83
2, 1309000, Note_on_c, 0, 65, 64
2, 1309020, Note_on_c, 0, 60, 0
2, 1309028, Note_on_c, 0, 65, 0
2, 1309052, Note_on_c, 0, 68, 0
2, 1309064, Note_on_c, 0, 73, 0
2, 1309212, Note_on_c, 0, 73, 81
2, 1309212, Note_on_c, 0, 65, 69
2, 1309220, Note_on_c, 0, 59, 67
2, 1309220, Note_on_c, 0, 68, 61
2, 1309224, Note_on_c, 0, 61, 61
2, 1309244, Note_on_c, 0, 59, 0
2, 1309256, Note_on_c, 0, 65, 0
2, 1309256, Control_c, 0, 64, 72
2, 1309268, Control_c, 0, 64, 127
2, 1309276, Note_on_c, 0, 61, 0
2, 1309296, Note_on_c, 0, 68, 0
2, 1309356, Note_on_c, 0, 73, 0
2, 1309452, Note_on_c, 0, 47, 73
2, 1309484, Control_c, 0, 64, 88
2, 1309488, Note_on_c, 0, 47, 0
2, 1309496, Note_on_c, 0, 61, 73
2, 1309500, Note_on_c, 0, 73, 62
2, 1309500, Control_c, 0, 64, 72
2, 1309508, Note_on_c, 0, 68, 44
2, 1309512, Control_c, 0, 64, 56
2, 1309520, Note_on_c, 0, 61, 0
2, 1309524, Note_on_c, 0, 73, 0
2, 1309524, Control_c, 0, 64, 24
2, 1309528, Note_on_c, 0, 68, 0
2, 1309552, Control_c, 0, 64, 0
2, 1309572, Note_on_c, 0, 73, 78
2, 1309572, Note_on_c, 0, 68, 55
2, 1309576, Note_on_c, 0, 61, 76
2, 1309592, Note_on_c, 0, 59, 67
2, 1309596, Note_on_c, 0, 65, 51
2, 1309616, Note_on_c, 0, 59, 0
2, 1309624, Note_on_c, 0, 61, 0
2, 1309628, Note_on_c, 0, 65, 0
2, 1309632, Note_on_c, 0, 68, 0
2, 1309652, Note_on_c, 0, 73, 0
2, 1309776, Note_on_c, 0, 65, 67
2, 1309780, Note_on_c, 0, 73, 83
2, 1309780, Note_on_c, 0, 59, 63
2, 1309780, Control_c, 0, 64, 24
2, 1309788, Note_on_c, 0, 61, 75
2, 1309792, Control_c, 0, 64, 88
2, 1309800, Note_on_c, 0, 68, 33
2, 1309804, Note_on_c, 0, 59, 0
2, 1309804, Note_on_c, 0, 65, 0
2, 1309808, Control_c, 0, 64, 127
2, 1309820, Note_on_c, 0, 61, 0
2, 1309824, Note_on_c, 0, 68, 0
2, 1309856, Note_on_c, 0, 73, 0
2, 1310028, Note_on_c, 0, 47, 76
2, 1310040, Note_on_c, 0, 63, 67
2, 1310044, Note_on_c, 0, 75, 80
2, 1310056, Note_on_c, 0, 47, 0
2, 1310076, Control_c, 0, 64, 104
2, 1310084, Note_on_c, 0, 63, 0
2, 1310088, Control_c, 0, 64, 72
2, 1310092, Note_on_c, 0, 75, 0
2, 1310104, Control_c, 0, 64, 56
2, 1310116, Control_c, 0, 64, 24
2, 1310132, Control_c, 0, 64, 0
2, 1310136, Note_on_c, 0, 77, 96
2, 1310136, Note_on_c, 0, 73, 77
2, 1310136, Note_on_c, 0, 65, 83
2, 1310144, Note_on_c, 0, 61, 67
2, 1310152, Note_on_c, 0, 56, 51
2, 1310176, Note_on_c, 0, 56, 0
2, 1310180, Note_on_c, 0, 65, 0
2, 1310184, Note_on_c, 0, 61, 0
2, 1310188, Note_on_c, 0, 73, 0
2, 1310208, Note_on_c, 0, 77, 0
2, 1310348, Note_on_c, 0, 77, 90
2, 1310352, Note_on_c, 0, 73, 69
2, 1310356, Note_on_c, 0, 65, 77
2, 1310356, Note_on_c, 0, 61, 65
2, 1310360, Note_on_c, 0, 56, 69
2, 1310360, Control_c, 0, 64, 56
2, 1310368, Control_c, 0, 64, 127
2, 1310400, Note_on_c, 0, 65, 0
2, 1310416, Note_on_c, 0, 56, 0
2, 1310432, Note_on_c, 0, 77, 0
2, 1310440, Note_on_c, 0, 73, 0
2, 1310452, Note_on_c, 0, 61, 0
2, 1310596, Note_on_c, 0, 46, 61
2, 1310620, Note_on_c, 0, 78, 85
2, 1310628, Note_on_c, 0, 66, 55
2, 1310640, Control_c, 0, 64, 104
2, 1310652, Note_on_c, 0, 66, 0
2, 1310652, Note_on_c, 0, 46, 0
2, 1310652, Control_c, 0, 64, 88
2, 1310664, Note_on_c, 0, 78, 0
2, 1310664, Control_c, 0, 64, 56
2, 1310680, Control_c, 0, 64, 40
2, 1310692, Control_c, 0, 64, 24
2, 1310696, Note_on_c, 0, 66, 56
2, 1310704, Note_on_c, 0, 73, 88
2, 1310704, Note_on_c, 0, 61, 67
2, 1310708, Note_on_c, 0, 54, 67
2, 1310708, Control_c, 0, 64, 0
2, 1310732, Note_on_c, 0, 54, 0
2, 1310748, Note_on_c, 0, 61, 0
2, 1310768, Note_on_c, 0, 66, 0
2, 1310784, Note_on_c, 0, 73, 0
2, 1310908, Control_c, 0, 64, 40
2, 1310912, Note_on_c, 0, 73, 89
2, 1310912, Note_on_c, 0, 66, 74
2, 1310920, Note_on_c, 0, 61, 77
2, 1310920, Control_c, 0, 64, 104
2, 1310924, Note_on_c, 0, 54, 78
2, 1310936, Control_c, 0, 64, 127
2, 1310976, Note_on_c, 0, 54, 0
2, 1310976, Note_on_c, 0, 61, 0
2, 1311056, Note_on_c, 0, 66, 0
2, 1311064, Note_on_c, 0, 73, 0
2, 1311180, Note_on_c, 0, 46, 68
2, 1311184, Note_on_c, 0, 66, 71
2, 1311192, Note_on_c, 0, 73, 74
2, 1311216, Note_on_c, 0, 73, 0
2, 1311224, Note_on_c, 0, 66, 0
2, 1311232, Control_c, 0, 64, 104
2, 1311240, Note_on_c, 0, 46, 0
2, 1311244, Control_c, 0, 64, 72
2, 1311256, Control_c, 0, 64, 56
2, 1311264, Note_on_c, 0, 75, 92
2, 1311268, Note_on_c, 0, 73, 75
2, 1311268, Control_c, 0, 64, 40
2, 1311272, Note_on_c, 0, 67, 83
2, 1311284, Note_on_c, 0, 51, 69
2, 1311284, Note_on_c, 0, 61, 61
2, 1311284, Control_c, 0, 64, 24
2, 1311296, Control_c, 0, 64, 0
2, 1311316, Note_on_c, 0, 67, 0
2, 1311316, Note_on_c, 0, 73, 0
2, 1311328, Note_on_c, 0, 61, 0
2, 1311328, Note_on_c, 0, 51, 0
2, 1311352, Note_on_c, 0, 75, 0
2, 1311492, Note_on_c, 0, 75, 97
2, 1311500, Note_on_c, 0, 67, 83
2, 1311500, Note_on_c, 0, 73, 81
2, 1311500, Note_on_c, 0, 61, 82
2, 1311500, Control_c, 0, 64, 56
2, 1311508, Note_on_c, 0, 51, 85
2, 1311512, Control_c, 0, 64, 127
2, 1311548, Note_on_c, 0, 67, 0
2, 1311568, Note_on_c, 0, 61, 0
2, 1311660, Note_on_c, 0, 75, 0
2, 1311660, Note_on_c, 0, 73, 0
2, 1311672, Note_on_c, 0, 51, 0
2, 1311756, Note_on_c, 0, 46, 74
2, 1311764, Note_on_c, 0, 75, 81
2, 1311768, Note_on_c, 0, 73, 69
2, 1311772, Note_on_c, 0, 67, 70
2, 1311792, Note_on_c, 0, 73, 0
2, 1311796, Note_on_c, 0, 67, 0
2, 1311800, Note_on_c, 0, 46, 0
2, 1311808, Note_on_c, 0, 75, 0
2, 1311836, Control_c, 0, 64, 88
2, 1311848, Control_c, 0, 64, 24
2, 1311852, Note_on_c, 0, 75, 92
2, 1311852, Note_on_c, 0, 73, 79
2, 1311856, Note_on_c, 0, 67, 79
2, 1311860, Control_c, 0, 64, 0
2, 1311868, Note_on_c, 0, 51, 75
2, 1311872, Note_on_c, 0, 61, 69
2, 1311924, Note_on_c, 0, 67, 0
2, 1311928, Note_on_c, 0, 61, 0
2, 1311932, Control_c, 0, 64, 72
2, 1311944, Note_on_c, 0, 51, 0
2, 1311944, Note_on_c, 0, 73, 0
2, 1311944, Control_c, 0, 64, 127
2, 1311952, Note_on_c, 0, 75, 0
2, 1311996, Control_c, 0, 64, 88
2, 1312012, Control_c, 0, 64, 24
2, 1312024, Control_c, 0, 64, 0
2, 1312040, Note_on_c, 0, 75, 93
2, 1312052, Note_on_c, 0, 61, 80
2, 1312052, Note_on_c, 0, 67, 82
2, 1312052, Note_on_c, 0, 73, 76
2, 1312052, Note_on_c, 0, 51, 85
2, 1312064, Control_c, 0, 64, 24
2, 1312076, Control_c, 0, 64, 104
2, 1312092, Note_on_c, 0, 61, 0
2, 1312092, Control_c, 0, 64, 127
2, 1312116, Note_on_c, 0, 51, 0
2, 1312172, Note_on_c, 0, 75, 0
2, 1312184, Note_on_c, 0, 67, 0
2, 1312188, Note_on_c, 0, 73, 0
2, 1312224, Note_on_c, 0, 77, 88
2, 1312292, Control_c, 0, 64, 88
2, 1312304, Control_c, 0, 64, 72
2, 1312320, Note_on_c, 0, 51, 99
2, 1312320, Note_on_c, 0, 39, 79
2, 1312320, Control_c, 0, 64, 56
2, 1312332, Control_c, 0, 64, 40
2, 1312336, Note_on_c, 0, 77, 0
2, 1312344, Control_c, 0, 64, 24
2, 1312356, Note_on_c, 0, 51, 0
2, 1312360, Note_on_c, 0, 39, 0
2, 1312360, Control_c, 0, 64, 0
2, 1312380, Note_on_c, 0, 79, 94
2, 1312388, Note_on_c, 0, 67, 77
2, 1312396, Note_on_c, 0, 75, 70
2, 1312404, Note_on_c, 0, 39, 42
2, 1312404, Note_on_c, 0, 51, 80
2, 1312456, Note_on_c, 0, 51, 0
2, 1312456, Note_on_c, 0, 67, 0
2, 1312456, Note_on_c, 0, 39, 0
2, 1312460, Note_on_c, 0, 75, 0
2, 1312480, Note_on_c, 0, 79, 0
2, 1312584, Note_on_c, 0, 79, 92
2, 1312588, Note_on_c, 0, 67, 80
2, 1312588, Note_on_c, 0, 75, 75
2, 1312596, Note_on_c, 0, 51, 100
2, 1312596, Note_on_c, 0, 39, 83
2, 1312628, Control_c, 0, 64, 104
2, 1312636, Note_on_c, 0, 39, 0
2, 1312636, Note_on_c, 0, 51, 0
2, 1312640, Control_c, 0, 64, 127
2, 1312660, Note_on_c, 0, 67, 0
2, 1312672, Note_on_c, 0, 79, 0
2, 1312752, Note_on_c, 0, 75, 0
2, 1312792, Note_on_c, 0, 80, 89
2, 1312824, Note_on_c, 0, 68, 46
2, 1312856, Note_on_c, 0, 68, 0
2, 1312856, Control_c, 0, 64, 88
2, 1312868, Control_c, 0, 64, 56
2, 1312872, Note_on_c, 0, 56, 85
2, 1312872, Note_on_c, 0, 44, 78
2, 1312884, Control_c, 0, 64, 40
2, 1312892, Note_on_c, 0, 80, 0
2, 1312896, Control_c, 0, 64, 24
2, 1312912, Note_on_c, 0, 56, 0
2, 1312912, Control_c, 0, 64, 0
2, 1312920, Note_on_c, 0, 44, 0
2, 1312956, Note_on_c, 0, 75, 85
2, 1312960, Note_on_c, 0, 68, 71
2, 1312968, Note_on_c, 0, 72, 79
2, 1312976, Note_on_c, 0, 56, 71
2, 1312976, Note_on_c, 0, 44, 61
2, 1312992, Note_on_c, 0, 72, 0
2, 1313028, Note_on_c, 0, 56, 0
2, 1313028, Note_on_c, 0, 44, 0
2, 1313028, Note_on_c, 0, 68, 0
2, 1313064, Note_on_c, 0, 75, 0
2, 1313164, Note_on_c, 0, 75, 81
2, 1313168, Note_on_c, 0, 44, 83
2, 1313176, Note_on_c, 0, 68, 60
2, 1313176, Note_on_c, 0, 56, 78
2, 1313176, Note_on_c, 0, 72, 74
2, 1313180, Control_c, 0, 64, 40
2, 1313192, Control_c, 0, 64, 104
2, 1313204, Control_c, 0, 64, 127
2, 1313220, Note_on_c, 0, 56, 0
2, 1313224, Note_on_c, 0, 44, 0
2, 1313308, Note_on_c, 0, 68, 0
2, 1313340, Note_on_c, 0, 46, 82
2, 1313340, Note_on_c, 0, 58, 83
2, 1313372, Note_on_c, 0, 75, 0
2, 1313380, Control_c, 0, 64, 88
2, 1313384, Note_on_c, 0, 58, 0
2, 1313392, Note_on_c, 0, 46, 0
2, 1313392, Control_c, 0, 64, 72
2, 1313400, Note_on_c, 0, 72, 0
2, 1313404, Control_c, 0, 64, 40
2, 1313420, Control_c, 0, 64, 24
2, 1313448, Control_c, 0, 64, 0
2, 1313516, Note_on_c, 0, 75, 80
2, 1313524, Note_on_c, 0, 60, 82
2, 1313528, Note_on_c, 0, 48, 88
2, 1313528, Note_on_c, 0, 68, 69
2, 1313576, Note_on_c, 0, 60, 0
2, 1313580, Note_on_c, 0, 48, 0
2, 1313608, Note_on_c, 0, 68, 0
2, 1313624, Note_on_c, 0, 75, 0
2, 1313724, Note_on_c, 0, 75, 84
2, 1313724, Note_on_c, 0, 68, 75
2, 1313728, Note_on_c, 0, 60, 87
2, 1313736, Note_on_c, 0, 48, 92
2, 1313736, Note_on_c, 0, 73, 56
2, 1313744, Control_c, 0, 64, 40
2, 1313756, Control_c, 0, 64, 104
2, 1313760, Note_on_c, 0, 73, 0
2, 1313768, Control_c, 0, 64, 127
2, 1313800, Note_on_c, 0, 48, 0
2, 1313808, Note_on_c, 0, 60, 0
2, 1313896, Note_on_c, 0, 75, 0
2, 1313916, Note_on_c, 0, 77, 89
2, 1313972, Control_c, 0, 64, 104
2, 1313984, Note_on_c, 0, 68, 0
2, 1313984, Control_c, 0, 64, 88
2, 1313996, Control_c, 0, 64, 72
2, 1314000, Note_on_c, 0, 58, 83
2, 1314000, Note_on_c, 0, 46, 87
2, 1314012, Control_c, 0, 64, 56
2, 1314024, Control_c, 0, 64, 40
2, 1314028, Note_on_c, 0, 77, 0
2, 1314036, Control_c, 0, 64, 24
2, 1314044, Note_on_c, 0, 46, 0
2, 1314044, Note_on_c, 0, 58, 0
2, 1314052, Control_c, 0, 64, 0
2, 1314068, Note_on_c, 0, 75, 87
2, 1314076, Note_on_c, 0, 73, 76
2, 1314080, Note_on_c, 0, 67, 73
2, 1314096, Note_on_c, 0, 58, 74
2, 1314096, Note_on_c, 0, 46, 64
2, 1314132, Note_on_c, 0, 67, 0
2, 1314140, Note_on_c, 0, 46, 0
2, 1314144, Note_on_c, 0, 58, 0
2, 1314168, Note_on_c, 0, 73, 0
2, 1314168, Note_on_c, 0, 75, 0
2, 1314288, Note_on_c, 0, 75, 85
2, 1314296, Note_on_c, 0, 58, 89
2, 1314300, Note_on_c, 0, 46, 87
2, 1314304, Note_on_c, 0, 67, 74
2, 1314308, Note_on_c, 0, 73, 61
2, 1314308, Control_c, 0, 64, 72
2, 1314320, Control_c, 0, 64, 127
2, 1314352, Note_on_c, 0, 46, 0
2, 1314352, Note_on_c, 0, 58, 0
2, 1314416, Note_on_c, 0, 73, 0
2, 1314436, Note_on_c, 0, 75, 0
2, 1314464, Note_on_c, 0, 67, 0
2, 1314472, Note_on_c, 0, 77, 84
2, 1314496, Control_c, 0, 64, 104
2, 1314508, Control_c, 0, 64, 72
2, 1314520, Control_c, 0, 64, 56
2, 1314536, Control_c, 0, 64, 40
2, 1314548, Control_c, 0, 64, 24
2, 1314568, Note_on_c, 0, 77, 0
2, 1314576, Control_c, 0, 64, 0
2, 1314652, Note_on_c, 0, 79, 92
2, 1314656, Note_on_c, 0, 73, 73
2, 1314656, Note_on_c, 0, 67, 77
2, 1314672, Note_on_c, 0, 46, 84
2, 1314676, Note_on_c, 0, 58, 82
2, 1314712, Note_on_c, 0, 67, 0
2, 1314724, Note_on_c, 0, 46, 0
2, 1314728, Note_on_c, 0, 58, 0
2, 1314744, Note_on_c, 0, 79, 0
2, 1314756, Note_on_c, 0, 73, 0
2, 1314856, Note_on_c, 0, 79, 93
2, 1314860, Note_on_c, 0, 67, 82
2, 1314864, Note_on_c, 0, 75, 76
2, 1314872, Note_on_c, 0, 60, 86
2, 1314872, Control_c, 0, 64, 72
2, 1314876, Note_on_c, 0, 48, 82
2, 1314884, Control_c, 0, 64, 127
2, 1314920, Note_on_c, 0, 67, 0
2, 1314936, Note_on_c, 0, 79, 0
2, 1314968, Note_on_c, 0, 48, 0
2, 1315000, Note_on_c, 0, 60, 0
2, 1315012, Note_on_c, 0, 75, 0
2, 1315060, Note_on_c, 0, 80, 84
2, 1315072, Note_on_c, 0, 68, 69
2, 1315128, Note_on_c, 0, 49, 76
2, 1315132, Note_on_c, 0, 68, 0
2, 1315132, Note_on_c, 0, 61, 80
2, 1315152, Note_on_c, 0, 80, 0
2, 1315152, Control_c, 0, 64, 88
2, 1315168, Control_c, 0, 64, 72
2, 1315176, Note_on_c, 0, 61, 0
2, 1315176, Note_on_c, 0, 49, 0
2, 1315180, Control_c, 0, 64, 40
2, 1315192, Control_c, 0, 64, 24
2, 1315208, Control_c, 0, 64, 0
2, 1315216, Note_on_c, 0, 75, 80
2, 1315220, Note_on_c, 0, 68, 65
2, 1315236, Note_on_c, 0, 63, 85
2, 1315236, Note_on_c, 0, 72, 64
2, 1315236, Note_on_c, 0, 51, 83
2, 1315256, Note_on_c, 0, 72, 0
2, 1315280, Note_on_c, 0, 63, 0
2, 1315280, Note_on_c, 0, 51, 0
2, 1315280, Note_on_c, 0, 68, 0
2, 1315312, Note_on_c, 0, 75, 0
2, 1315416, Note_on_c, 0, 75, 79
2, 1315420, Note_on_c, 0, 63, 90
2, 1315420, Control_c, 0, 64, 24
2, 1315424, Note_on_c, 0, 51, 83
2, 1315424, Note_on_c, 0, 68, 57
2, 1315428, Note_on_c, 0, 72, 73
2, 1315436, Control_c, 0, 64, 88
2, 1315448, Control_c, 0, 64, 127
2, 1315468, Note_on_c, 0, 63, 0
2, 1315476, Note_on_c, 0, 51, 0
2, 1315544, Note_on_c, 0, 68, 0
2, 1315596, Note_on_c, 0, 61, 85
2, 1315604, Note_on_c, 0, 49, 76
2, 1315612, Note_on_c, 0, 75, 0
2, 1315636, Control_c, 0, 64, 104
2, 1315648, Control_c, 0, 64, 72
2, 1315652, Note_on_c, 0, 61, 0
2, 1315664, Note_on_c, 0, 49, 0
2, 1315664, Control_c, 0, 64, 56
2, 1315672, Note_on_c, 0, 72, 0
2, 1315676, Control_c, 0, 64, 40
2, 1315704, Control_c, 0, 64, 24
2, 1315744, Control_c, 0, 64, 0
2, 1315780, Note_on_c, 0, 75, 76
2, 1315780, Note_on_c, 0, 60, 86
2, 1315788, Note_on_c, 0, 48, 86
2, 1315792, Note_on_c, 0, 68, 51
2, 1315836, Note_on_c, 0, 48, 0
2, 1315836, Note_on_c, 0, 60, 0
2, 1315876, Note_on_c, 0, 75, 0
2, 1315876, Note_on_c, 0, 68, 0
2, 1315976, Note_on_c, 0, 60, 92
2, 1315976, Note_on_c, 0, 75, 78
2, 1315980, Note_on_c, 0, 48, 93
2, 1315984, Note_on_c, 0, 67, 71
2, 1315988, Control_c, 0, 64, 56
2, 1315996, Note_on_c, 0, 73, 57
2, 1315996, Control_c, 0, 64, 127
2, 1316044, Note_on_c, 0, 48, 0
2, 1316044, Note_on_c, 0, 60, 0
2, 1316108, Note_on_c, 0, 67, 0
2, 1316148, Note_on_c, 0, 58, 80
2, 1316152, Note_on_c, 0, 46, 78
2, 1316184, Note_on_c, 0, 73, 0
2, 1316188, Note_on_c, 0, 75, 0
2, 1316188, Control_c, 0, 64, 104
2, 1316200, Control_c, 0, 64, 88
2, 1316204, Note_on_c, 0, 58, 0
2, 1316208, Note_on_c, 0, 46, 0
2, 1316212, Control_c, 0, 64, 56
2, 1316228, Control_c, 0, 64, 40
2, 1316236, Note_on_c, 0, 77, 87
2, 1316252, Control_c, 0, 64, 24
2, 1316280, Control_c, 0, 64, 0
2, 1316296, Note_on_c, 0, 77, 0
2, 1316328, Note_on_c, 0, 75, 86
2, 1316332, Note_on_c, 0, 58, 85
2, 1316336, Note_on_c, 0, 46, 80
2, 1316340, Note_on_c, 0, 67, 67
2, 1316344, Note_on_c, 0, 73, 63
2, 1316388, Note_on_c, 0, 46, 0
2, 1316388, Note_on_c, 0, 58, 0
2, 1316400, Note_on_c, 0, 67, 0
2, 1316424, Note_on_c, 0, 73, 0
2, 1316432, Note_on_c, 0, 75, 0
2, 1316508, Control_c, 0, 64, 24
2, 1316516, Note_on_c, 0, 75, 80
2, 1316520, Control_c, 0, 64, 88
2, 1316528, Note_on_c, 0, 58, 78
2, 1316528, Note_on_c, 0, 67, 70
2, 1316532, Note_on_c, 0, 46, 80
2, 1316532, Note_on_c, 0, 73, 67
2, 1316536, Control_c, 0, 64, 127
2, 1316572, Note_on_c, 0, 46, 0
2, 1316572, Note_on_c, 0, 58, 0
2, 1316656, Note_on_c, 0, 51, 35
2, 1316680, Note_on_c, 0, 73, 0
2, 1316684, Note_on_c, 0, 51, 0
2, 1316684, Note_on_c, 0, 67, 0
2, 1316688, Note_on_c, 0, 75, 0
2, 1316704, Note_on_c, 0, 77, 86
2, 1316712, Note_on_c, 0, 39, 73
2, 1316712, Note_on_c, 0, 51, 49
2, 1316736, Control_c, 0, 64, 88
2, 1316752, Control_c, 0, 64, 72
2, 1316756, Note_on_c, 0, 39, 0
2, 1316760, Note_on_c, 0, 51, 0
2, 1316764, Control_c, 0, 64, 56
2, 1316776, Control_c, 0, 64, 40
2, 1316804, Note_on_c, 0, 77, 0
2, 1316804, Control_c, 0, 64, 24
2, 1316844, Control_c, 0, 64, 0
2, 1316888, Note_on_c, 0, 79, 87
2, 1316888, Note_on_c, 0, 75, 71
2, 1316892, Note_on_c, 0, 67, 72
2, 1316900, Note_on_c, 0, 63, 48
2, 1316904, Note_on_c, 0, 60, 62
2, 1316932, Note_on_c, 0, 60, 0
2, 1316948, Note_on_c, 0, 63, 0
2, 1316952, Note_on_c, 0, 67, 0
2, 1316968, Note_on_c, 0, 75, 0
2, 1316972, Note_on_c, 0, 79, 0
2, 1317064, Note_on_c, 0, 63, 69
2, 1317072, Control_c, 0, 64, 72
2, 1317076, Note_on_c, 0, 60, 64
2, 1317080, Note_on_c, 0, 79, 83
2, 1317084, Note_on_c, 0, 75, 72
2, 1317088, Note_on_c, 0, 67, 70
2, 1317088, Control_c, 0, 64, 127
2, 1317096, Note_on_c, 0, 60, 0
2, 1317116, Note_on_c, 0, 63, 0
2, 1317116, Note_on_c, 0, 67, 0
2, 1317144, Note_on_c, 0, 79, 0
2, 1317188, Note_on_c, 0, 75, 0
2, 1317260, Note_on_c, 0, 39, 58
2, 1317264, Note_on_c, 0, 51, 60
2, 1317268, Note_on_c, 0, 80, 79
2, 1317272, Note_on_c, 0, 68, 70
2, 1317272, Note_on_c, 0, 75, 73
2, 1317300, Note_on_c, 0, 51, 0
2, 1317304, Note_on_c, 0, 39, 0
2, 1317316, Control_c, 0, 64, 88
2, 1317332, Note_on_c, 0, 68, 0
2, 1317344, Control_c, 0, 64, 72
2, 1317352, Note_on_c, 0, 80, 0
2, 1317356, Note_on_c, 0, 75, 0
2, 1317356, Control_c, 0, 64, 56
2, 1317380, Control_c, 0, 64, 40
2, 1317396, Control_c, 0, 64, 24
2, 1317448, Note_on_c, 0, 63, 49
2, 1317448, Control_c, 0, 64, 0
2, 1317452, Note_on_c, 0, 80, 91
2, 1317452, Note_on_c, 0, 68, 77
2, 1317456, Note_on_c, 0, 60, 57
2, 1317460, Note_on_c, 0, 75, 72
2, 1317492, Note_on_c, 0, 60, 0
2, 1317496, Note_on_c, 0, 63, 0
2, 1317516, Note_on_c, 0, 68, 0
2, 1317528, Note_on_c, 0, 75, 0
2, 1317536, Note_on_c, 0, 80, 0
2, 1317612, Note_on_c, 0, 63, 62
2, 1317624, Note_on_c, 0, 60, 59
2, 1317624, Control_c, 0, 64, 56
2, 1317628, Note_on_c, 0, 68, 81
2, 1317628, Note_on_c, 0, 80, 92
2, 1317632, Note_on_c, 0, 75, 78
2, 1317636, Control_c, 0, 64, 127
2, 1317644, Note_on_c, 0, 60, 0
2, 1317648, Note_on_c, 0, 63, 0
2, 1317672, Note_on_c, 0, 68, 0
2, 1317692, Note_on_c, 0, 75, 0
2, 1317696, Note_on_c, 0, 80, 0
2, 1317812, Note_on_c, 0, 79, 90
2, 1317812, Note_on_c, 0, 82, 89
2, 1317812, Note_on_c, 0, 39, 64
2, 1317812, Note_on_c, 0, 70, 85
2, 1317816, Note_on_c, 0, 51, 62
2, 1317856, Note_on_c, 0, 51, 0
2, 1317856, Note_on_c, 0, 39, 0
2, 1317860, Note_on_c, 0, 70, 0
2, 1317864, Control_c, 0, 64, 104
2, 1317876, Note_on_c, 0, 79, 0
2, 1317880, Control_c, 0, 64, 88
2, 1317908, Note_on_c, 0, 82, 0
2, 1317908, Control_c, 0, 64, 72
2, 1317948, Control_c, 0, 64, 56
2, 1317988, Note_on_c, 0, 68, 77
2, 1317988, Control_c, 0, 64, 40
2, 1317996, Note_on_c, 0, 63, 64
2, 1318000, Note_on_c, 0, 84, 90
2, 1318000, Note_on_c, 0, 80, 83
2, 1318000, Note_on_c, 0, 72, 88
2, 1318000, Control_c, 0, 64, 24
2, 1318028, Note_on_c, 0, 63, 0
2, 1318036, Note_on_c, 0, 68, 0
2, 1318040, Control_c, 0, 64, 0
2, 1318052, Note_on_c, 0, 72, 0
2, 1318076, Note_on_c, 0, 84, 0
2, 1318076, Note_on_c, 0, 80, 0
2, 1318180, Note_on_c, 0, 68, 75
2, 1318188, Note_on_c, 0, 84, 94
2, 1318188, Note_on_c, 0, 80, 82
2, 1318188, Control_c, 0, 64, 56
2, 1318192, Note_on_c, 0, 63, 61
2, 1318196, Note_on_c, 0, 72, 88
2, 1318204, Control_c, 0, 64, 127
2, 1318212, Note_on_c, 0, 63, 0
2, 1318220, Note_on_c, 0, 68, 0
2, 1318244, Note_on_c, 0, 72, 0
2, 1318276, Note_on_c, 0, 84, 0
2, 1318284, Note_on_c, 0, 80, 0
2, 1318380, Note_on_c, 0, 39, 60
2, 1318384, Note_on_c, 0, 82, 85
2, 1318384, Note_on_c, 0, 51, 68
2, 1318388, Note_on_c, 0, 79, 83
2, 1318388, Note_on_c, 0, 70, 77
2, 1318412, Note_on_c, 0, 39, 0
2, 1318416, Control_c, 0, 64, 88
2, 1318420, Note_on_c, 0, 51, 0
2, 1318428, Control_c, 0, 64, 72
2, 1318440, Control_c, 0, 64, 56
2, 1318456, Note_on_c, 0, 70, 0
2, 1318468, Note_on_c, 0, 82, 0
2, 1318472, Control_c, 0, 64, 40
2, 1318484, Note_on_c, 0, 79, 0
2, 1318484, Control_c, 0, 64, 24
2, 1318496, Control_c, 0, 64, 0
2, 1318564, Note_on_c, 0, 67, 67
2, 1318564, Note_on_c, 0, 63, 60
2, 1318576, Note_on_c, 0, 82, 85
2, 1318576, Note_on_c, 0, 70, 81
2, 1318576, Note_on_c, 0, 79, 79
2, 1318612, Note_on_c, 0, 67, 0
2, 1318616, Note_on_c, 0, 63, 0
2, 1318644, Note_on_c, 0, 70, 0
2, 1318664, Note_on_c, 0, 82, 0
2, 1318664, Note_on_c, 0, 79, 0
2, 1318752, Control_c, 0, 64, 24
2, 1318760, Note_on_c, 0, 63, 77
2, 1318764, Note_on_c, 0, 82, 85
2, 1318764, Note_on_c, 0, 67, 69
2, 1318764, Control_c, 0, 64, 88
2, 1318768, Note_on_c, 0, 70, 85
2, 1318768, Note_on_c, 0, 79, 82
2, 1318776, Control_c, 0, 64, 127
2, 1318784, Note_on_c, 0, 67, 0
2, 1318784, Note_on_c, 0, 63, 0
2, 1318848, Note_on_c, 0, 70, 0
2, 1318860, Note_on_c, 0, 82, 0
2, 1318888, Note_on_c, 0, 79, 0
2, 1318948, Note_on_c, 0, 39, 71
2, 1318952, Note_on_c, 0, 51, 70
2, 1318956, Note_on_c, 0, 82, 85
2, 1318960, Note_on_c, 0, 70, 82
2, 1318960, Note_on_c, 0, 79, 73
2, 1318976, Note_on_c, 0, 51, 0
2, 1318976, Note_on_c, 0, 39, 0
2, 1318992, Control_c, 0, 64, 104
2, 1319008, Control_c, 0, 64, 88
2, 1319020, Control_c, 0, 64, 72
2, 1319032, Note_on_c, 0, 70, 0
2, 1319032, Control_c, 0, 64, 56
2, 1319036, Note_on_c, 0, 82, 0
2, 1319060, Control_c, 0, 64, 40
2, 1319064, Note_on_c, 0, 79, 0
2, 1319112, Control_c, 0, 64, 0
2, 1319128, Note_on_c, 0, 82, 88
2, 1319132, Note_on_c, 0, 70, 85
2, 1319132, Note_on_c, 0, 63, 65
2, 1319132, Note_on_c, 0, 79, 61
2, 1319132, Note_on_c, 0, 67, 70
2, 1319172, Note_on_c, 0, 79, 0
2, 1319176, Note_on_c, 0, 63, 0
2, 1319176, Note_on_c, 0, 67, 0
2, 1319184, Note_on_c, 0, 70, 0
2, 1319252, Note_on_c, 0, 82, 0
2, 1319316, Note_on_c, 0, 68, 85
2, 1319320, Note_on_c, 0, 84, 97
2, 1319320, Note_on_c, 0, 80, 83
2, 1319324, Note_on_c, 0, 72, 90
2, 1319324, Note_on_c, 0, 63, 77
2, 1319328, Control_c, 0, 64, 56
2, 1319344, Control_c, 0, 64, 127
2, 1319368, Note_on_c, 0, 72, 0
2, 1319368, Note_on_c, 0, 68, 0
2, 1319372, Note_on_c, 0, 63, 0
2, 1319400, Note_on_c, 0, 84, 0
2, 1319408, Note_on_c, 0, 80, 0
2, 1319508, Note_on_c, 0, 85, 91
2, 1319512, Note_on_c, 0, 73, 89
2, 1319512, Note_on_c, 0, 39, 74
2, 1319516, Note_on_c, 0, 51, 80
2, 1319520, Note_on_c, 0, 82, 69
2, 1319536, Note_on_c, 0, 39, 0
2, 1319540, Note_on_c, 0, 51, 0
2, 1319556, Note_on_c, 0, 73, 0
2, 1319560, Control_c, 0, 64, 104
2, 1319572, Control_c, 0, 64, 88
2, 1319580, Note_on_c, 0, 85, 0
2, 1319580, Note_on_c, 0, 82, 0
2, 1319584, Control_c, 0, 64, 72
2, 1319624, Control_c, 0, 64, 56
2, 1319664, Control_c, 0, 64, 40
2, 1319692, Control_c, 0, 64, 24
2, 1319696, Note_on_c, 0, 68, 78
2, 1319696, Note_on_c, 0, 87, 93
2, 1319696, Note_on_c, 0, 84, 88
2, 1319700, Note_on_c, 0, 63, 75
2, 1319700, Note_on_c, 0, 75, 90
2, 1319732, Control_c, 0, 64, 0
2, 1319744, Note_on_c, 0, 68, 0
2, 1319748, Note_on_c, 0, 63, 0
2, 1319776, Note_on_c, 0, 75, 0
2, 1319788, Note_on_c, 0, 84, 0
2, 1319800, Note_on_c, 0, 87, 0
2, 1319876, Note_on_c, 0, 68, 78
2, 1319880, Note_on_c, 0, 87, 91
2, 1319884, Note_on_c, 0, 63, 79
2, 1319884, Note_on_c, 0, 84, 86
2, 1319888, Note_on_c, 0, 75, 90
2, 1319908, Control_c, 0, 64, 127
2, 1319924, Note_on_c, 0, 68, 0
2, 1319928, Note_on_c, 0, 63, 0
2, 1319956, Note_on_c, 0, 84, 0
2, 1319960, Note_on_c, 0, 75, 0
2, 1319976, Note_on_c, 0, 87, 0
2, 1320060, Note_on_c, 0, 51, 65
2, 1320060, Note_on_c, 0, 85, 89
2, 1320060, Note_on_c, 0, 39, 74
2, 1320068, Note_on_c, 0, 82, 78
2, 1320068, Note_on_c, 0, 73, 89
2, 1320096, Control_c, 0, 64, 88
2, 1320100, Note_on_c, 0, 39, 0
2, 1320100, Note_on_c, 0, 51, 0
2, 1320108, Control_c, 0, 64, 56
2, 1320116, Note_on_c, 0, 73, 0
2, 1320124, Control_c, 0, 64, 40
2, 1320136, Control_c, 0, 64, 0
2, 1320148, Note_on_c, 0, 82, 0
2, 1320148, Note_on_c, 0, 85, 0
2, 1320244, Note_on_c, 0, 68, 75
2, 1320252, Note_on_c, 0, 84, 89
2, 1320252, Note_on_c, 0, 63, 65
2, 1320256, Note_on_c, 0, 80, 80
2, 1320256, Note_on_c, 0, 72, 85
2, 1320280, Note_on_c, 0, 63, 0
2, 1320292, Note_on_c, 0, 68, 0
2, 1320300, Note_on_c, 0, 72, 0
2, 1320312, Note_on_c, 0, 80, 0
2, 1320320, Note_on_c, 0, 84, 0
2, 1320428, Note_on_c, 0, 68, 80
2, 1320432, Note_on_c, 0, 84, 97
2, 1320432, Note_on_c, 0, 63, 72
2, 1320432, Control_c, 0, 64, 72
2, 1320436, Note_on_c, 0, 72, 94
2, 1320436, Note_on_c, 0, 80, 79
2, 1320444, Control_c, 0, 64, 127
2, 1320456, Note_on_c, 0, 63, 0
2, 1320472, Note_on_c, 0, 68, 0
2, 1320488, Note_on_c, 0, 72, 0
2, 1320520, Note_on_c, 0, 84, 0
2, 1320548, Note_on_c, 0, 80, 0
2, 1320616, Note_on_c, 0, 82, 83
2, 1320616, Note_on_c, 0, 39, 72
2, 1320616, Note_on_c, 0, 51, 78
2, 1320620, Control_c, 0, 64, 88
2, 1320624, Note_on_c, 0, 70, 79
2, 1320628, Note_on_c, 0, 79, 71
2, 1320632, Control_c, 0, 64, 56
2, 1320640, Note_on_c, 0, 51, 0
2, 1320640, Note_on_c, 0, 39, 0
2, 1320648, Control_c, 0, 64, 40
2, 1320660, Control_c, 0, 64, 24
2, 1320672, Control_c, 0, 64, 0
2, 1320684, Note_on_c, 0, 70, 0
2, 1320708, Note_on_c, 0, 82, 0
2, 1320716, Note_on_c, 0, 79, 0
2, 1320808, Note_on_c, 0, 82, 80
2, 1320812, Note_on_c, 0, 70, 81
2, 1320812, Note_on_c, 0, 79, 81
2, 1320812, Note_on_c, 0, 67, 66
2, 1320816, Note_on_c, 0, 63, 47
2, 1320848, Note_on_c, 0, 63, 0
2, 1320860, Note_on_c, 0, 67, 0
2, 1320876, Note_on_c, 0, 70, 0
2, 1320892, Note_on_c, 0, 82, 0
2, 1320900, Note_on_c, 0, 79, 0
2, 1320988, Note_on_c, 0, 70, 75
2, 1320988, Note_on_c, 0, 82, 80
2, 1320992, Note_on_c, 0, 67, 74
2, 1320992, Note_on_c, 0, 63, 74
2, 1320996, Note_on_c, 0, 79, 66
2, 1320996, Control_c, 0, 64, 72
2, 1321008, Control_c, 0, 64, 104
2, 1321016, Note_on_c, 0, 79, 0
2, 1321024, Control_c, 0, 64, 127
2, 1321044, Note_on_c, 0, 67, 0
2, 1321048, Note_on_c, 0, 63, 0
2, 1321060, Note_on_c, 0, 70, 0
2, 1321088, Control_c, 0, 64, 88
2, 1321096, Note_on_c, 0, 82, 0
2, 1321104, Control_c, 0, 64, 72
2, 1321116, Control_c, 0, 64, 56
2, 1321144, Control_c, 0, 64, 40
2, 1321156, Control_c, 0, 64, 24
2, 1321180, Note_on_c, 0, 83, 82
2, 1321184, Control_c, 0, 64, 0
2, 1321188, Note_on_c, 0, 65, 62
2, 1321192, Note_on_c, 0, 77, 67
2, 1321192, Note_on_c, 0, 71, 66
2, 1321192, Note_on_c, 0, 61, 63
2, 1321236, Note_on_c, 0, 61, 0
2, 1321240, Note_on_c, 0, 65, 0
2, 1321240, Note_on_c, 0, 71, 0
2, 1321268, Note_on_c, 0, 83, 0
2, 1321276, Note_on_c, 0, 77, 0
2, 1321368, Note_on_c, 0, 84, 82
2, 1321376, Note_on_c, 0, 64, 59
2, 1321376, Note_on_c, 0, 72, 69
2, 1321392, Note_on_c, 0, 76, 62
2, 1321408, Note_on_c, 0, 60, 51
2, 1321420, Note_on_c, 0, 76, 0
2, 1321440, Note_on_c, 0, 72, 0
2, 1321456, Note_on_c, 0, 60, 0
2, 1321456, Note_on_c, 0, 64, 0
2, 1321460, Note_on_c, 0, 84, 0
2, 1321576, Note_on_c, 0, 64, 62
2, 1321580, Note_on_c, 0, 84, 87
2, 1321580, Note_on_c, 0, 60, 51
2, 1321584, Note_on_c, 0, 72, 73
2, 1321584, Control_c, 0, 64, 72
2, 1321588, Note_on_c, 0, 76, 70
2, 1321600, Note_on_c, 0, 64, 0
2, 1321600, Control_c, 0, 64, 127
2, 1321608, Note_on_c, 0, 60, 0
2, 1321612, Note_on_c, 0, 76, 0
2, 1321616, Note_on_c, 0, 72, 0
2, 1321652, Note_on_c, 0, 84, 0
2, 1321756, Note_on_c, 0, 48, 66
2, 1321784, Note_on_c, 0, 48, 0
2, 1321800, Control_c, 0, 64, 104
2, 1321812, Control_c, 0, 64, 88
2, 1321828, Control_c, 0, 64, 72
2, 1321840, Control_c, 0, 64, 56
2, 1321844, Note_on_c, 0, 88, 88
2, 1321844, Control_c, 0, 64, 24
2, 1321848, Note_on_c, 0, 79, 82
2, 1321848, Note_on_c, 0, 76, 75
2, 1321868, Control_c, 0, 64, 0
2, 1321880, Note_on_c, 0, 88, 0
2, 1321888, Note_on_c, 0, 76, 0
2, 1321888, Note_on_c, 0, 79, 0
2, 1321936, Note_on_c, 0, 88, 82
2, 1321940, Note_on_c, 0, 79, 78
2, 1321940, Note_on_c, 0, 76, 76
2, 1321952, Note_on_c, 0, 67, 48
2, 1321952, Note_on_c, 0, 61, 39
2, 1321956, Note_on_c, 0, 64, 46
2, 1321980, Note_on_c, 0, 64, 0
2, 1321980, Note_on_c, 0, 67, 0
2, 1321988, Note_on_c, 0, 61, 0
2, 1321996, Note_on_c, 0, 76, 0
2, 1322004, Note_on_c, 0, 79, 0
2, 1322016, Note_on_c, 0, 88, 0
2, 1322136, Note_on_c, 0, 88, 94
2, 1322136, Note_on_c, 0, 79, 84
2, 1322136, Note_on_c, 0, 76, 81
2, 1322136, Note_on_c, 0, 64, 57
2, 1322140, Note_on_c, 0, 61, 54
2, 1322148, Note_on_c, 0, 67, 51
2, 1322148, Control_c, 0, 64, 88
2, 1322160, Control_c, 0, 64, 127
2, 1322168, Note_on_c, 0, 79, 0
2, 1322172, Note_on_c, 0, 76, 0
2, 1322184, Note_on_c, 0, 64, 0
2, 1322184, Note_on_c, 0, 61, 0
2, 1322184, Note_on_c, 0, 67, 0
2, 1322188, Note_on_c, 0, 88, 0
2, 1322336, Note_on_c, 0, 89, 96
2, 1322336, Note_on_c, 0, 80, 82
2, 1322336, Note_on_c, 0, 48, 69
2, 1322336, Note_on_c, 0, 77, 82
2, 1322356, Note_on_c, 0, 48, 0
2, 1322368, Note_on_c, 0, 77, 0
2, 1322368, Note_on_c, 0, 80, 0
2, 1322380, Note_on_c, 0, 89, 0
2, 1322392, Control_c, 0, 64, 88
2, 1322404, Control_c, 0, 64, 72
2, 1322416, Control_c, 0, 64, 56
2, 1322428, Control_c, 0, 64, 40
2, 1322440, Control_c, 0, 64, 24
2, 1322448, Control_c, 0, 64, 0
2, 1322532, Note_on_c, 0, 91, 99
2, 1322536, Note_on_c, 0, 82, 79
2, 1322540, Note_on_c, 0, 79, 84
2, 1322548, Note_on_c, 0, 67, 53
2, 1322552, Note_on_c, 0, 64, 58
2, 1322552, Note_on_c, 0, 61, 47
2, 1322576, Note_on_c, 0, 64, 0
2, 1322576, Note_on_c, 0, 67, 0
2, 1322580, Note_on_c, 0, 61, 0
2, 1322584, Note_on_c, 0, 79, 0
2, 1322596, Note_on_c, 0, 82, 0
2, 1322612, Note_on_c, 0, 91, 0
2, 1322728, Note_on_c, 0, 91, 100
2, 1322732, Note_on_c, 0, 79, 88
2, 1322732, Note_on_c, 0, 82, 81
2, 1322740, Note_on_c, 0, 67, 60
2, 1322740, Note_on_c, 0, 61, 55
2, 1322744, Note_on_c, 0, 64, 59
2, 1322752, Control_c, 0, 64, 72
2, 1322764, Note_on_c, 0, 64, 0
2, 1322764, Note_on_c, 0, 67, 0
2, 1322764, Control_c, 0, 64, 127
2, 1322780, Note_on_c, 0, 79, 0
2, 1322784, Note_on_c, 0, 61, 0
2, 1322792, Note_on_c, 0, 82, 0
2, 1322796, Note_on_c, 0, 91, 0
2, 1322920, Note_on_c, 0, 92, 94
2, 1322924, Note_on_c, 0, 80, 77
2, 1322928, Note_on_c, 0, 48, 70
2, 1322932, Note_on_c, 0, 84, 81
2, 1322948, Note_on_c, 0, 84, 0
2, 1322948, Note_on_c, 0, 48, 0
2, 1322972, Note_on_c, 0, 80, 0
2, 1322976, Note_on_c, 0, 92, 0
2, 1323044, Control_c, 0, 64, 88
2, 1323056, Control_c, 0, 64, 72
2, 1323064, Control_c, 0, 64, 56
2, 1323076, Control_c, 0, 64, 40
2, 1323088, Control_c, 0, 64, 24
2, 1323100, Control_c, 0, 64, 0
2, 1323116, Note_on_c, 0, 89, 93
2, 1323116, Note_on_c, 0, 80, 73
2, 1323120, Note_on_c, 0, 77, 78
2, 1323132, Note_on_c, 0, 60, 56
2, 1323136, Note_on_c, 0, 65, 56
2, 1323140, Note_on_c, 0, 68, 30
2, 1323144, Note_on_c, 0, 77, 0
2, 1323156, Note_on_c, 0, 80, 0
2, 1323164, Note_on_c, 0, 60, 0
2, 1323164, Note_on_c, 0, 68, 0
2, 1323168, Note_on_c, 0, 65, 0
2, 1323172, Note_on_c, 0, 89, 0
2, 1323312, Control_c, 0, 64, 24
2, 1323316, Note_on_c, 0, 80, 81
2, 1323316, Note_on_c, 0, 89, 87
2, 1323320, Note_on_c, 0, 68, 54
2, 1323320, Note_on_c, 0, 60, 50
2, 1323320, Note_on_c, 0, 65, 57
2, 1323320, Control_c, 0, 64, 127
2, 1323324, Note_on_c, 0, 77, 72
2, 1323348, Note_on_c, 0, 60, 0
2, 1323352, Note_on_c, 0, 77, 0
2, 1323368, Note_on_c, 0, 68, 0
2, 1323368, Note_on_c, 0, 65, 0
2, 1323368, Note_on_c, 0, 80, 0
2, 1323380, Note_on_c, 0, 89, 0
2, 1323520, Note_on_c, 0, 48, 61
2, 1323544, Note_on_c, 0, 48, 0
2, 1323544, Control_c, 0, 64, 104
2, 1323556, Control_c, 0, 64, 88
2, 1323564, Control_c, 0, 64, 56
2, 1323576, Control_c, 0, 64, 40
2, 1323588, Control_c, 0, 64, 24
2, 1323600, Control_c, 0, 64, 0
2, 1323712, Note_on_c, 0, 91, 89
2, 1323716, Note_on_c, 0, 79, 81
2, 1323716, Note_on_c, 0, 88, 82
2, 1323724, Note_on_c, 0, 61, 49
2, 1323728, Note_on_c, 0, 67, 52
2, 1323728, Note_on_c, 0, 64, 59
2, 1323756, Note_on_c, 0, 64, 0
2, 1323756, Note_on_c, 0, 67, 0
2, 1323760, Note_on_c, 0, 88, 0
2, 1323764, Note_on_c, 0, 79, 0
2, 1323772, Note_on_c, 0, 61, 0
2, 1323788, Note_on_c, 0, 91, 0
2, 1323912, Note_on_c, 0, 91, 90
2, 1323912, Control_c, 0, 64, 40
2, 1323916, Note_on_c, 0, 88, 86
2, 1323920, Note_on_c, 0, 79, 82
2, 1323924, Note_on_c, 0, 67, 61
2, 1323924, Note_on_c, 0, 61, 53
2, 1323928, Note_on_c, 0, 64, 50
2, 1323928, Control_c, 0, 64, 127
2, 1323960, Note_on_c, 0, 67, 0
2, 1323964, Note_on_c, 0, 64, 0
2, 1323972, Note_on_c, 0, 61, 0
2, 1324032, Note_on_c, 0, 79, 0
2, 1324040, Note_on_c, 0, 88, 0
2, 1324072, Note_on_c, 0, 91, 0
2, 1324100, Note_on_c, 0, 48, 71
2, 1324120, Note_on_c, 0, 48, 0
2, 1324192, Note_on_c, 0, 91, 88
2, 1324196, Note_on_c, 0, 79, 85
2, 1324196, Note_on_c, 0, 88, 77
2, 1324204, Control_c, 0, 64, 104
2, 1324216, Control_c, 0, 64, 88
2, 1324220, Note_on_c, 0, 88, 0
2, 1324228, Note_on_c, 0, 91, 0
2, 1324228, Control_c, 0, 64, 72
2, 1324232, Note_on_c, 0, 79, 0
2, 1324240, Control_c, 0, 64, 56
2, 1324248, Control_c, 0, 64, 40
2, 1324260, Control_c, 0, 64, 24
2, 1324276, Note_on_c, 0, 91, 82
2, 1324276, Control_c, 0, 64, 0
2, 1324280, Note_on_c, 0, 79, 84
2, 1324284, Note_on_c, 0, 88, 85
2, 1324292, Note_on_c, 0, 61, 50
2, 1324300, Note_on_c, 0, 67, 46
2, 1324308, Note_on_c, 0, 64, 42
2, 1324328, Note_on_c, 0, 67, 0
2, 1324332, Note_on_c, 0, 88, 0
2, 1324336, Note_on_c, 0, 64, 0
2, 1324344, Note_on_c, 0, 61, 0
2, 1324348, Note_on_c, 0, 79, 0
2, 1324356, Note_on_c, 0, 91, 0
2, 1324464, Note_on_c, 0, 91, 94
2, 1324468, Note_on_c, 0, 61, 61
2, 1324468, Note_on_c, 0, 79, 90
2, 1324472, Note_on_c, 0, 67, 59
2, 1324472, Note_on_c, 0, 88, 77
2, 1324472, Note_on_c, 0, 64, 58
2, 1324472, Control_c, 0, 64, 40
2, 1324484, Control_c, 0, 64, 104
2, 1324496, Note_on_c, 0, 64, 0
2, 1324496, Note_on_c, 0, 88, 0
2, 1324496, Control_c, 0, 64, 127
2, 1324500, Note_on_c, 0, 67, 0
2, 1324508, Note_on_c, 0, 79, 0
2, 1324516, Note_on_c, 0, 61, 0
2, 1324528, Note_on_c, 0, 91, 0
2, 1324660, Note_on_c, 0, 80, 80
2, 1324660, Note_on_c, 0, 48, 68
2, 1324664, Note_on_c, 0, 92, 87
2, 1324664, Note_on_c, 0, 89, 85
2, 1324680, Note_on_c, 0, 48, 0
2, 1324700, Note_on_c, 0, 80, 0
2, 1324716, Note_on_c, 0, 89, 0
2, 1324736, Note_on_c, 0, 92, 0
2, 1324740, Control_c, 0, 64, 104
2, 1324752, Control_c, 0, 64, 88
2, 1324764, Control_c, 0, 64, 72
2, 1324776, Control_c, 0, 64, 56
2, 1324784, Control_c, 0, 64, 40
2, 1324796, Control_c, 0, 64, 24
2, 1324808, Control_c, 0, 64, 0
2, 1324844, Note_on_c, 0, 94, 89
2, 1324844, Note_on_c, 0, 82, 81
2, 1324848, Note_on_c, 0, 91, 84
2, 1324860, Note_on_c, 0, 67, 57
2, 1324860, Note_on_c, 0, 61, 50
2, 1324860, Note_on_c, 0, 64, 59
2, 1324892, Note_on_c, 0, 67, 0
2, 1324896, Note_on_c, 0, 82, 0
2, 1324896, Note_on_c, 0, 64, 0
2, 1324908, Note_on_c, 0, 91, 0
2, 1324908, Note_on_c, 0, 61, 0
2, 1324916, Note_on_c, 0, 94, 0
2, 1325032, Note_on_c, 0, 91, 92
2, 1325032, Note_on_c, 0, 94, 95
2, 1325032, Note_on_c, 0, 82, 89
2, 1325032, Note_on_c, 0, 61, 63
2, 1325040, Note_on_c, 0, 67, 64
2, 1325040, Note_on_c, 0, 64, 64
2, 1325044, Control_c, 0, 64, 40
2, 1325052, Control_c, 0, 64, 127
2, 1325056, Note_on_c, 0, 64, 0
2, 1325064, Note_on_c, 0, 67, 0
2, 1325076, Note_on_c, 0, 82, 0
2, 1325076, Note_on_c, 0, 61, 0
2, 1325084, Note_on_c, 0, 91, 0
2, 1325104, Note_on_c, 0, 94, 0
2, 1325220, Note_on_c, 0, 96, 93
2, 1325224, Note_on_c, 0, 92, 75
2, 1325224, Note_on_c, 0, 84, 79
2, 1325228, Note_on_c, 0, 48, 70
2, 1325248, Note_on_c, 0, 48, 0
2, 1325260, Note_on_c, 0, 92, 0
2, 1325268, Note_on_c, 0, 84, 0
2, 1325268, Note_on_c, 0, 96, 0
2, 1325392, Control_c, 0, 64, 104
2, 1325400, Note_on_c, 0, 92, 88
2, 1325404, Note_on_c, 0, 80, 76
2, 1325404, Control_c, 0, 64, 72
2, 1325412, Note_on_c, 0, 89, 77
2, 1325412, Control_c, 0, 64, 56
2, 1325420, Note_on_c, 0, 60, 59
2, 1325420, Note_on_c, 0, 65, 60
2, 1325420, Note_on_c, 0, 68, 47
2, 1325424, Control_c, 0, 64, 40
2, 1325432, Note_on_c, 0, 89, 0
2, 1325436, Control_c, 0, 64, 24
2, 1325448, Note_on_c, 0, 60, 0
2, 1325448, Control_c, 0, 64, 0
2, 1325452, Note_on_c, 0, 80, 0
2, 1325452, Note_on_c, 0, 68, 0
2, 1325456, Note_on_c, 0, 65, 0
2, 1325472, Note_on_c, 0, 92, 0
2, 1325600, Control_c, 0, 64, 40
2, 1325604, Note_on_c, 0, 92, 89
2, 1325604, Note_on_c, 0, 80, 80
2, 1325608, Note_on_c, 0, 65, 53
2, 1325608, Note_on_c, 0, 68, 49
2, 1325608, Note_on_c, 0, 89, 79
2, 1325612, Control_c, 0, 64, 127
2, 1325616, Note_on_c, 0, 60, 36
2, 1325628, Note_on_c, 0, 65, 0
2, 1325632, Note_on_c, 0, 68, 0
2, 1325640, Note_on_c, 0, 60, 0
2, 1325660, Note_on_c, 0, 80, 0
2, 1325676, Note_on_c, 0, 89, 0
2, 1325692, Note_on_c, 0, 92, 0
2, 1325792, Note_on_c, 0, 48, 70
2, 1325812, Note_on_c, 0, 48, 0
2, 1325968, Note_on_c, 0, 92, 89
2, 1325972, Note_on_c, 0, 80, 77
2, 1325976, Note_on_c, 0, 89, 80
2, 1325988, Note_on_c, 0, 60, 74
2, 1325992, Note_on_c, 0, 65, 68
2, 1325992, Note_on_c, 0, 68, 71
2, 1326016, Note_on_c, 0, 80, 0
2, 1326024, Note_on_c, 0, 60, 0
2, 1326028, Note_on_c, 0, 89, 0
2, 1326040, Note_on_c, 0, 68, 0
2, 1326040, Note_on_c, 0, 65, 0
2, 1326044, Note_on_c, 0, 92, 0
2, 1326168, Control_c, 0, 64, 88
2, 1326180, Control_c, 0, 64, 24
2, 1326192, Control_c, 0, 64, 0
2, 1326200, Note_on_c, 0, 92, 95
2, 1326208, Note_on_c, 0, 80, 77
2, 1326212, Note_on_c, 0, 85, 75
2, 1326216, Note_on_c, 0, 68, 85
2, 1326216, Note_on_c, 0, 58, 51
2, 1326220, Note_on_c, 0, 61, 61
2, 1326248, Note_on_c, 0, 58, 0
2, 1326260, Note_on_c, 0, 68, 0
2, 1326268, Note_on_c, 0, 61, 0
2, 1326272, Control_c, 0, 64, 127
2, 1326372, Note_on_c, 0, 80, 0
2, 1326384, Note_on_c, 0, 85, 0
2, 1326384, Note_on_c, 0, 92, 0
2, 1326396, Note_on_c, 0, 48, 70
2, 1326436, Note_on_c, 0, 48, 0
2, 1326488, Note_on_c, 0, 91, 89
2, 1326492, Note_on_c, 0, 79, 81
2, 1326492, Note_on_c, 0, 85, 72
2, 1326524, Note_on_c, 0, 91, 0
2, 1326532, Note_on_c, 0, 85, 0
2, 1326532, Note_on_c, 0, 79, 0
2, 1326580, Note_on_c, 0, 91, 84
2, 1326580, Note_on_c, 0, 79, 85
2, 1326584, Note_on_c, 0, 67, 73
2, 1326584, Note_on_c, 0, 85, 77
2, 1326588, Note_on_c, 0, 61, 53
2, 1326588, Note_on_c, 0, 58, 46
2, 1326644, Note_on_c, 0, 58, 0
2, 1326648, Note_on_c, 0, 67, 0
2, 1326656, Note_on_c, 0, 85, 0
2, 1326656, Note_on_c, 0, 79, 0
2, 1326660, Note_on_c, 0, 91, 0
2, 1326664, Note_on_c, 0, 61, 0
2, 1326728, Control_c, 0, 64, 56
2, 1326740, Control_c, 0, 64, 0
2, 1326780, Note_on_c, 0, 91, 89
2, 1326784, Note_on_c, 0, 67, 77
2, 1326788, Note_on_c, 0, 84, 83
2, 1326788, Note_on_c, 0, 60, 65
2, 1326792, Note_on_c, 0, 79, 75
2, 1326792, Note_on_c, 0, 56, 49
2, 1326808, Control_c, 0, 64, 40
2, 1326820, Control_c, 0, 64, 127
2, 1326824, Note_on_c, 0, 60, 0
2, 1326824, Note_on_c, 0, 67, 0
2, 1326840, Note_on_c, 0, 56, 0
2, 1326864, Note_on_c, 0, 91, 0
2, 1326892, Note_on_c, 0, 79, 0
2, 1326900, Note_on_c, 0, 84, 0
2, 1326976, Note_on_c, 0, 48, 51
2, 1327004, Note_on_c, 0, 48, 0
2, 1327048, Note_on_c, 0, 89, 93
2, 1327048, Note_on_c, 0, 77, 85
2, 1327048, Note_on_c, 0, 84, 81
2, 1327080, Note_on_c, 0, 89, 0
2, 1327088, Note_on_c, 0, 84, 0
2, 1327088, Note_on_c, 0, 77, 0
2, 1327132, Note_on_c, 0, 89, 88
2, 1327136, Note_on_c, 0, 84, 86
2, 1327136, Note_on_c, 0, 77, 82
2, 1327160, Note_on_c, 0, 60, 60
2, 1327160, Note_on_c, 0, 56, 47
2, 1327164, Note_on_c, 0, 77, 0
2, 1327164, Note_on_c, 0, 65, 55
2, 1327176, Note_on_c, 0, 84, 0
2, 1327192, Note_on_c, 0, 56, 0
2, 1327192, Note_on_c, 0, 89, 0
2, 1327196, Note_on_c, 0, 60, 0
2, 1327196, Note_on_c, 0, 65, 0
2, 1327368, Note_on_c, 0, 94, 97
2, 1327372, Note_on_c, 0, 82, 82
2, 1327376, Note_on_c, 0, 89, 88
2, 1327380, Note_on_c, 0, 58, 51
2, 1327388, Note_on_c, 0, 65, 56
2, 1327388, Note_on_c, 0, 55, 62
2, 1327388, Control_c, 0, 64, 24
2, 1327400, Control_c, 0, 64, 0
2, 1327436, Note_on_c, 0, 55, 0
2, 1327444, Note_on_c, 0, 58, 0
2, 1327456, Note_on_c, 0, 65, 0
2, 1327460, Control_c, 0, 64, 104
2, 1327472, Control_c, 0, 64, 127
2, 1327476, Note_on_c, 0, 82, 0
2, 1327480, Note_on_c, 0, 94, 0
2, 1327500, Note_on_c, 0, 89, 0
2, 1327624, Note_on_c, 0, 48, 49
2, 1327676, Note_on_c, 0, 48, 0
2, 1327708, Note_on_c, 0, 87, 85
2, 1327708, Note_on_c, 0, 75, 77
2, 1327748, Note_on_c, 0, 75, 0
2, 1327748, Note_on_c, 0, 87, 0
2, 1327788, Note_on_c, 0, 87, 79
2, 1327792, Note_on_c, 0, 75, 74
2, 1327808, Note_on_c, 0, 82, 60
2, 1327808, Note_on_c, 0, 58, 39
2, 1327812, Note_on_c, 0, 55, 48
2, 1327816, Note_on_c, 0, 63, 34
2, 1327828, Note_on_c, 0, 82, 0
2, 1327840, Note_on_c, 0, 55, 0
2, 1327856, Note_on_c, 0, 58, 0
2, 1327856, Note_on_c, 0, 75, 0
2, 1327860, Note_on_c, 0, 63, 0
2, 1327884, Note_on_c, 0, 87, 0
2, 1327972, Control_c, 0, 64, 56
2, 1327984, Note_on_c, 0, 87, 84
2, 1327984, Control_c, 0, 64, 0
2, 1327988, Note_on_c, 0, 75, 70
2, 1327988, Note_on_c, 0, 80, 71
2, 1327992, Note_on_c, 0, 63, 46
2, 1328012, Note_on_c, 0, 53, 36
2, 1328012, Note_on_c, 0, 56, 38
2, 1328036, Note_on_c, 0, 53, 0
2, 1328052, Control_c, 0, 64, 56
2, 1328064, Control_c, 0, 64, 127
2, 1328088, Note_on_c, 0, 80, 0
2, 1328088, Note_on_c, 0, 75, 0
2, 1328096, Note_on_c, 0, 63, 0
2, 1328124, Note_on_c, 0, 87, 0
2, 1328160, Note_on_c, 0, 56, 0
2, 1328168, Note_on_c, 0, 48, 63
2, 1328232, Note_on_c, 0, 48, 0
2, 1328328, Note_on_c, 0, 87, 88
2, 1328336, Note_on_c, 0, 75, 72
2, 1328340, Note_on_c, 0, 80, 71
2, 1328352, Note_on_c, 0, 63, 46
2, 1328356, Note_on_c, 0, 56, 43
2, 1328368, Note_on_c, 0, 53, 34
2, 1328380, Note_on_c, 0, 75, 0
2, 1328388, Note_on_c, 0, 63, 0
2, 1328392, Note_on_c, 0, 80, 0
2, 1328396, Note_on_c, 0, 56, 0
2, 1328400, Note_on_c, 0, 53, 0
2, 1328416, Note_on_c, 0, 87, 0
2, 1328492, Control_c, 0, 64, 104
2, 1328504, Control_c, 0, 64, 56
2, 1328516, Control_c, 0, 64, 0
2, 1328524, Note_on_c, 0, 87, 84
2, 1328536, Note_on_c, 0, 75, 73
2, 1328536, Note_on_c, 0, 80, 69
2, 1328552, Note_on_c, 0, 63, 57
2, 1328564, Note_on_c, 0, 53, 47
2, 1328564, Note_on_c, 0, 56, 32
2, 1328588, Control_c, 0, 64, 40
2, 1328600, Control_c, 0, 64, 104
2, 1328612, Control_c, 0, 64, 127
2, 1328620, Note_on_c, 0, 63, 0
2, 1328624, Note_on_c, 0, 87, 0
2, 1328632, Note_on_c, 0, 53, 0
2, 1328640, Note_on_c, 0, 75, 0
2, 1328720, Note_on_c, 0, 80, 0
2, 1328724, Note_on_c, 0, 48, 58
2, 1328744, Note_on_c, 0, 56, 0
2, 1328748, Note_on_c, 0, 48, 0
2, 1328804, Note_on_c, 0, 85, 77
2, 1328808, Note_on_c, 0, 73, 67
2, 1328812, Note_on_c, 0, 80, 62
2, 1328836, Note_on_c, 0, 80, 0
2, 1328840, Note_on_c, 0, 85, 0
2, 1328848, Note_on_c, 0, 73, 0
2, 1328888, Note_on_c, 0, 85, 77
2, 1328892, Note_on_c, 0, 56, 43
2, 1328892, Note_on_c, 0, 73, 67
2, 1328896, Note_on_c, 0, 80, 73
2, 1328896, Note_on_c, 0, 53, 46
2, 1328904, Note_on_c, 0, 61, 26
2, 1328928, Note_on_c, 0, 53, 0
2, 1328948, Note_on_c, 0, 56, 0
2, 1328956, Note_on_c, 0, 73, 0
2, 1328956, Note_on_c, 0, 61, 0
2, 1328964, Note_on_c, 0, 80, 0
2, 1328972, Note_on_c, 0, 85, 0
2, 1329016, Control_c, 0, 64, 72
2, 1329028, Control_c, 0, 64, 24
2, 1329040, Control_c, 0, 64, 0
2, 1329088, Note_on_c, 0, 85, 82
2, 1329092, Note_on_c, 0, 79, 79
2, 1329096, Note_on_c, 0, 73, 69
2, 1329104, Note_on_c, 0, 61, 45
2, 1329108, Note_on_c, 0, 52, 59
2, 1329108, Control_c, 0, 64, 24
2, 1329120, Note_on_c, 0, 55, 53
2, 1329120, Control_c, 0, 64, 104
2, 1329132, Control_c, 0, 64, 127
2, 1329144, Note_on_c, 0, 55, 0
2, 1329176, Note_on_c, 0, 79, 0
2, 1329184, Note_on_c, 0, 85, 0
2, 1329184, Note_on_c, 0, 52, 0
2, 1329196, Note_on_c, 0, 61, 0
2, 1329200, Note_on_c, 0, 73, 0
2, 1329264, Note_on_c, 0, 48, 60
2, 1329344, Note_on_c, 0, 84, 83
2, 1329348, Note_on_c, 0, 72, 73
2, 1329352, Note_on_c, 0, 79, 70
2, 1329368, Note_on_c, 0, 48, 0
2, 1329372, Note_on_c, 0, 79, 0
2, 1329384, Note_on_c, 0, 72, 0
2, 1329392, Note_on_c, 0, 84, 0
2, 1329436, Note_on_c, 0, 84, 78
2, 1329440, Note_on_c, 0, 79, 75
2, 1329440, Note_on_c, 0, 72, 65
2, 1329448, Note_on_c, 0, 52, 51
2, 1329448, Note_on_c, 0, 60, 48
2, 1329460, Note_on_c, 0, 55, 36
2, 1329464, Note_on_c, 0, 72, 0
2, 1329476, Note_on_c, 0, 52, 0
2, 1329484, Note_on_c, 0, 60, 0
2, 1329484, Note_on_c, 0, 79, 0
2, 1329492, Note_on_c, 0, 84, 0
2, 1329492, Note_on_c, 0, 55, 0
2, 1329596, Control_c, 0, 64, 104
2, 1329608, Control_c, 0, 64, 56
2, 1329620, Control_c, 0, 64, 0
2, 1329644, Note_on_c, 0, 89, 88
2, 1329648, Note_on_c, 0, 84, 74
2, 1329652, Note_on_c, 0, 77, 70
2, 1329660, Note_on_c, 0, 60, 61
2, 1329664, Note_on_c, 0, 53, 55
2, 1329704, Control_c, 0, 64, 88
2, 1329716, Note_on_c, 0, 89, 0
2, 1329716, Control_c, 0, 64, 127
2, 1329720, Note_on_c, 0, 84, 0
2, 1329732, Note_on_c, 0, 60, 0
2, 1329736, Note_on_c, 0, 53, 0
2, 1329744, Note_on_c, 0, 77, 0
2, 1329840, Note_on_c, 0, 48, 54
2, 1329932, Note_on_c, 0, 48, 0
2, 1329936, Note_on_c, 0, 83, 80
2, 1329940, Note_on_c, 0, 71, 69
2, 1329976, Note_on_c, 0, 71, 0
2, 1329980, Note_on_c, 0, 83, 0
2, 1330020, Note_on_c, 0, 83, 82
2, 1330020, Note_on_c, 0, 71, 63
2, 1330028, Note_on_c, 0, 53, 63
2, 1330032, Note_on_c, 0, 49, 54
2, 1330036, Note_on_c, 0, 77, 74
2, 1330036, Note_on_c, 0, 59, 48
2, 1330068, Note_on_c, 0, 71, 0
2, 1330072, Note_on_c, 0, 53, 0
2, 1330072, Note_on_c, 0, 59, 0
2, 1330080, Note_on_c, 0, 77, 0
2, 1330092, Note_on_c, 0, 49, 0
2, 1330092, Note_on_c, 0, 83, 0
2, 1330212, Control_c, 0, 64, 104
2, 1330224, Control_c, 0, 64, 72
2, 1330240, Control_c, 0, 64, 0
2, 1330244, Note_on_c, 0, 84, 85
2, 1330252, Note_on_c, 0, 72, 66
2, 1330260, Note_on_c, 0, 76, 60
2, 1330268, Note_on_c, 0, 48, 67
2, 1330268, Note_on_c, 0, 60, 62
2, 1330284, Note_on_c, 0, 76, 0
2, 1330324, Note_on_c, 0, 48, 0
2, 1330332, Control_c, 0, 64, 40
2, 1330340, Note_on_c, 0, 60, 0
2, 1330344, Control_c, 0, 64, 104
2, 1330352, Control_c, 0, 64, 127
2, 1330460, Note_on_c, 0, 62, 64
2, 1330460, Control_c, 0, 64, 104
2, 1330468, Note_on_c, 0, 50, 47
2, 1330468, Control_c, 0, 64, 88
2, 1330484, Control_c, 0, 64, 56
2, 1330492, Control_c, 0, 64, 24
2, 1330504, Control_c, 0, 64, 0
2, 1330512, Note_on_c, 0, 50, 0
2, 1330520, Note_on_c, 0, 62, 0
2, 1330588, Note_on_c, 0, 72, 0
2, 1330596, Note_on_c, 0, 84, 0
2, 1330660, Note_on_c, 0, 63, 61
2, 1330664, Note_on_c, 0, 51, 62
2, 1330740, Note_on_c, 0, 51, 0
2, 1330760, Note_on_c, 0, 63, 0
2, 1330888, Note_on_c, 0, 72, 74
2, 1330896, Note_on_c, 0, 52, 53
2, 1330912, Control_c, 0, 64, 40
2, 1330924, Control_c, 0, 64, 88
2, 1330936, Control_c, 0, 64, 127
2, 1330960, Note_on_c, 0, 52, 0
2, 1331072, Note_on_c, 0, 67, 49
2, 1331076, Note_on_c, 0, 60, 46
2, 1331100, Control_c, 0, 64, 104
2, 1331104, Note_on_c, 0, 67, 0
2, 1331108, Control_c, 0, 64, 72
2, 1331120, Control_c, 0, 64, 56
2, 1331132, Note_on_c, 0, 60, 0
2, 1331144, Control_c, 0, 64, 40
2, 1331156, Control_c, 0, 64, 24
2, 1331164, Note_on_c, 0, 72, 0
2, 1331180, Control_c, 0, 64, 0
2, 1331196, Note_on_c, 0, 84, 76
2, 1331228, Note_on_c, 0, 52, 59
2, 1331252, Note_on_c, 0, 52, 0
2, 1331252, Note_on_c, 0, 72, 75
2, 1331268, Note_on_c, 0, 84, 0
2, 1331344, Note_on_c, 0, 72, 0
2, 1331380, Note_on_c, 0, 84, 83
2, 1331436, Note_on_c, 0, 53, 57
2, 1331436, Note_on_c, 0, 73, 78
2, 1331436, Control_c, 0, 64, 40
2, 1331448, Control_c, 0, 64, 72
2, 1331456, Control_c, 0, 64, 127
2, 1331464, Note_on_c, 0, 84, 0
2, 1331516, Note_on_c, 0, 53, 0
2, 1331608, Control_c, 0, 64, 104
2, 1331612, Note_on_c, 0, 68, 48
2, 1331620, Control_c, 0, 64, 88
2, 1331628, Note_on_c, 0, 60, 41
2, 1331632, Control_c, 0, 64, 56
2, 1331644, Control_c, 0, 64, 40
2, 1331656, Control_c, 0, 64, 24
2, 1331668, Note_on_c, 0, 60, 0
2, 1331668, Control_c, 0, 64, 0
2, 1331692, Note_on_c, 0, 68, 0
2, 1331696, Note_on_c, 0, 73, 0
2, 1331728, Note_on_c, 0, 84, 76
2, 1331776, Note_on_c, 0, 73, 80
2, 1331780, Note_on_c, 0, 53, 48
2, 1331800, Note_on_c, 0, 84, 0
2, 1331804, Note_on_c, 0, 53, 0
2, 1331856, Note_on_c, 0, 73, 0
2, 1331908, Note_on_c, 0, 84, 78
2, 1331952, Note_on_c, 0, 74, 78
2, 1331976, Note_on_c, 0, 54, 50
2, 1331980, Note_on_c, 0, 84, 0
2, 1332052, Note_on_c, 0, 54, 0
2, 1332068, Note_on_c, 0, 74, 0
2, 1332092, Note_on_c, 0, 84, 85
2, 1332124, Note_on_c, 0, 69, 56
2, 1332132, Note_on_c, 0, 60, 43
2, 1332148, Note_on_c, 0, 75, 78
2, 1332164, Note_on_c, 0, 60, 0
2, 1332172, Note_on_c, 0, 84, 0
2, 1332176, Note_on_c, 0, 69, 0
2, 1332264, Note_on_c, 0, 75, 0
2, 1332264, Note_on_c, 0, 55, 58
2, 1332288, Note_on_c, 0, 55, 0
2, 1332292, Note_on_c, 0, 84, 89
2, 1332332, Note_on_c, 0, 70, 56
2, 1332348, Note_on_c, 0, 76, 72
2, 1332372, Note_on_c, 0, 70, 0
2, 1332376, Note_on_c, 0, 84, 0
2, 1332436, Note_on_c, 0, 76, 0
2, 1332468, Note_on_c, 0, 84, 85
2, 1332532, Note_on_c, 0, 56, 49
2, 1332540, Note_on_c, 0, 84, 0
2, 1332540, Note_on_c, 0, 79, 92
2, 1332608, Control_c, 0, 64, 72
2, 1332616, Note_on_c, 0, 56, 0
2, 1332620, Control_c, 0, 64, 127
2, 1332732, Note_on_c, 0, 65, 45
2, 1332736, Note_on_c, 0, 72, 31
2, 1332756, Note_on_c, 0, 72, 0
2, 1332788, Note_on_c, 0, 65, 0
2, 1332796, Control_c, 0, 64, 104
2, 1332808, Control_c, 0, 64, 88
2, 1332816, Control_c, 0, 64, 72
2, 1332840, Control_c, 0, 64, 56
2, 1332864, Control_c, 0, 64, 40
2, 1332888, Control_c, 0, 64, 24
2, 1332912, Control_c, 0, 64, 0
2, 1332932, Note_on_c, 0, 77, 70
2, 1332940, Note_on_c, 0, 79, 0
2, 1332940, Note_on_c, 0, 56, 49
2, 1332968, Note_on_c, 0, 56, 0
2, 1332996, Note_on_c, 0, 77, 0
2, 1333132, Note_on_c, 0, 77, 87
2, 1333152, Note_on_c, 0, 57, 49
2, 1333156, Control_c, 0, 64, 24
2, 1333168, Control_c, 0, 64, 88
2, 1333176, Control_c, 0, 64, 127
2, 1333216, Note_on_c, 0, 57, 0
2, 1333324, Note_on_c, 0, 65, 36
2, 1333328, Note_on_c, 0, 72, 56
2, 1333368, Note_on_c, 0, 72, 0
2, 1333396, Note_on_c, 0, 65, 0
2, 1333420, Note_on_c, 0, 77, 0
2, 1333444, Note_on_c, 0, 89, 80
2, 1333444, Control_c, 0, 64, 104
2, 1333456, Control_c, 0, 64, 88
2, 1333468, Control_c, 0, 64, 72
2, 1333480, Control_c, 0, 64, 56
2, 1333492, Control_c, 0, 64, 24
2, 1333500, Note_on_c, 0, 57, 48
2, 1333504, Note_on_c, 0, 77, 83
2, 1333504, Control_c, 0, 64, 0
2, 1333520, Note_on_c, 0, 89, 0
2, 1333528, Note_on_c, 0, 57, 0
2, 1333600, Note_on_c, 0, 77, 0
2, 1333632, Note_on_c, 0, 89, 88
2, 1333688, Note_on_c, 0, 78, 80
2, 1333688, Control_c, 0, 64, 24
2, 1333700, Note_on_c, 0, 58, 40
2, 1333700, Control_c, 0, 64, 72
2, 1333704, Note_on_c, 0, 89, 0
2, 1333712, Control_c, 0, 64, 127
2, 1333784, Note_on_c, 0, 58, 0
2, 1333876, Note_on_c, 0, 73, 55
2, 1333888, Note_on_c, 0, 65, 52
2, 1333888, Control_c, 0, 64, 104
2, 1333900, Control_c, 0, 64, 88
2, 1333912, Control_c, 0, 64, 56
2, 1333920, Control_c, 0, 64, 40
2, 1333924, Note_on_c, 0, 65, 0
2, 1333932, Note_on_c, 0, 73, 0
2, 1333932, Control_c, 0, 64, 24
2, 1333956, Control_c, 0, 64, 0
2, 1333972, Note_on_c, 0, 78, 0
2, 1333992, Note_on_c, 0, 89, 86
2, 1334032, Note_on_c, 0, 58, 47
2, 1334044, Note_on_c, 0, 78, 83
2, 1334072, Note_on_c, 0, 89, 0
2, 1334108, Note_on_c, 0, 58, 0
2, 1334136, Note_on_c, 0, 78, 0
2, 1334176, Note_on_c, 0, 89, 80
2, 1334224, Note_on_c, 0, 79, 86
2, 1334224, Note_on_c, 0, 59, 57
2, 1334248, Note_on_c, 0, 89, 0
2, 1334312, Note_on_c, 0, 59, 0
2, 1334340, Note_on_c, 0, 79, 0
2, 1334344, Note_on_c, 0, 65, 48
2, 1334356, Note_on_c, 0, 89, 88
2, 1334380, Note_on_c, 0, 74, 39
2, 1334396, Note_on_c, 0, 65, 0
2, 1334408, Note_on_c, 0, 80, 88
2, 1334440, Note_on_c, 0, 74, 0
2, 1334444, Note_on_c, 0, 89, 0
2, 1334516, Note_on_c, 0, 60, 59
2, 1334520, Note_on_c, 0, 80, 0
2, 1334548, Note_on_c, 0, 89, 87
2, 1334552, Note_on_c, 0, 60, 0
2, 1334596, Note_on_c, 0, 75, 68
2, 1334612, Note_on_c, 0, 81, 86
2, 1334632, Note_on_c, 0, 89, 0
2, 1334648, Note_on_c, 0, 75, 0
2, 1334704, Note_on_c, 0, 81, 0
2, 1334728, Note_on_c, 0, 89, 92
2, 1334796, Note_on_c, 0, 61, 49
2, 1334804, Note_on_c, 0, 89, 0
2, 1334804, Note_on_c, 0, 84, 93
2, 1334864, Control_c, 0, 64, 72
2, 1334876, Control_c, 0, 64, 127
2, 1334896, Note_on_c, 0, 61, 0
2, 1335008, Note_on_c, 0, 70, 50
2, 1335008, Note_on_c, 0, 77, 46
2, 1335048, Note_on_c, 0, 77, 0
2, 1335084, Note_on_c, 0, 70, 0
2, 1335184, Note_on_c, 0, 82, 75
2, 1335184, Note_on_c, 0, 61, 54
2, 1335192, Note_on_c, 0, 84, 0
2, 1335236, Note_on_c, 0, 61, 0
2, 1335236, Note_on_c, 0, 82, 0
2, 1335236, Control_c, 0, 64, 104
2, 1335248, Control_c, 0, 64, 88
2, 1335260, Control_c, 0, 64, 56
2, 1335272, Control_c, 0, 64, 40
2, 1335280, Control_c, 0, 64, 0
2, 1335388, Note_on_c, 0, 82, 85
2, 1335416, Note_on_c, 0, 62, 48
2, 1335420, Control_c, 0, 64, 24
2, 1335432, Control_c, 0, 64, 88
2, 1335444, Note_on_c, 0, 62, 0
2, 1335444, Control_c, 0, 64, 127
2, 1335456, Note_on_c, 0, 82, 0
2, 1335588, Note_on_c, 0, 94, 95
2, 1335612, Note_on_c, 0, 65, 47
2, 1335612, Note_on_c, 0, 77, 44
2, 1335612, Note_on_c, 0, 68, 40
2, 1335620, Note_on_c, 0, 70, 35
2, 1335676, Note_on_c, 0, 77, 0
2, 1335680, Note_on_c, 0, 68, 0
2, 1335680, Note_on_c, 0, 65, 0
2, 1335684, Note_on_c, 0, 70, 0
2, 1335708, Note_on_c, 0, 94, 0
2, 1335796, Note_on_c, 0, 77, 60
2, 1335796, Note_on_c, 0, 65, 47
2, 1335800, Note_on_c, 0, 70, 43
2, 1335800, Note_on_c, 0, 68, 41
2, 1335852, Note_on_c, 0, 68, 0
2, 1335856, Note_on_c, 0, 70, 0
2, 1335864, Note_on_c, 0, 77, 0
2, 1335880, Note_on_c, 0, 94, 87
2, 1335892, Note_on_c, 0, 65, 0
2, 1335932, Note_on_c, 0, 94, 0
2, 1335980, Note_on_c, 0, 94, 94
2, 1335984, Note_on_c, 0, 77, 53
2, 1335988, Note_on_c, 0, 68, 47
2, 1336000, Note_on_c, 0, 70, 46
2, 1336040, Note_on_c, 0, 77, 0
2, 1336052, Note_on_c, 0, 94, 0
2, 1336080, Note_on_c, 0, 96, 83
2, 1336140, Note_on_c, 0, 96, 0
2, 1336148, Note_on_c, 0, 68, 0
2, 1336148, Note_on_c, 0, 70, 0
2, 1336168, Note_on_c, 0, 94, 77
2, 1336176, Note_on_c, 0, 62, 48
2, 1336244, Note_on_c, 0, 62, 0
2, 1336256, Note_on_c, 0, 89, 86
2, 1336304, Note_on_c, 0, 94, 0
2, 1336340, Note_on_c, 0, 89, 0
2, 1336344, Note_on_c, 0, 86, 82
2, 1336352, Note_on_c, 0, 68, 50
2, 1336352, Note_on_c, 0, 77, 63
2, 1336376, Note_on_c, 0, 70, 51
2, 1336392, Note_on_c, 0, 77, 0
2, 1336392, Note_on_c, 0, 86, 0
2, 1336400, Note_on_c, 0, 70, 0
2, 1336428, Note_on_c, 0, 68, 0
2, 1336452, Note_on_c, 0, 82, 65
2, 1336492, Note_on_c, 0, 82, 0
2, 1336544, Note_on_c, 0, 87, 83
2, 1336548, Note_on_c, 0, 61, 57
2, 1336548, Control_c, 0, 64, 88
2, 1336560, Control_c, 0, 64, 24
2, 1336572, Control_c, 0, 64, 0
2, 1336620, Note_on_c, 0, 87, 0
2, 1336628, Note_on_c, 0, 89, 85
2, 1336640, Control_c, 0, 64, 72
2, 1336652, Note_on_c, 0, 61, 0
2, 1336652, Control_c, 0, 64, 127
2, 1336700, Note_on_c, 0, 89, 0
2, 1336720, Note_on_c, 0, 87, 73
2, 1336732, Note_on_c, 0, 75, 50
2, 1336744, Note_on_c, 0, 67, 51
2, 1336744, Note_on_c, 0, 70, 44
2, 1336804, Note_on_c, 0, 75, 0
2, 1336804, Note_on_c, 0, 87, 0
2, 1336808, Note_on_c, 0, 82, 75
2, 1336864, Note_on_c, 0, 67, 0
2, 1336892, Note_on_c, 0, 82, 0
2, 1336896, Note_on_c, 0, 79, 78
2, 1336904, Note_on_c, 0, 61, 50
2, 1336928, Note_on_c, 0, 70, 0
2, 1336944, Note_on_c, 0, 79, 0
2, 1336960, Note_on_c, 0, 61, 0
2, 1336980, Note_on_c, 0, 75, 85
2, 1337056, Note_on_c, 0, 75, 0
2, 1337080, Note_on_c, 0, 80, 82
2, 1337092, Note_on_c, 0, 60, 58
2, 1337092, Control_c, 0, 64, 56
2, 1337108, Control_c, 0, 64, 0
2, 1337160, Note_on_c, 0, 80, 0
2, 1337168, Note_on_c, 0, 82, 73
2, 1337176, Control_c, 0, 64, 56
2, 1337188, Control_c, 0, 64, 127
2, 1337244, Note_on_c, 0, 60, 0
2, 1337256, Note_on_c, 0, 82, 0
2, 1337260, Note_on_c, 0, 80, 73
2, 1337272, Note_on_c, 0, 63, 51
2, 1337276, Note_on_c, 0, 68, 55
2, 1337344, Note_on_c, 0, 75, 76
2, 1337364, Note_on_c, 0, 80, 0
2, 1337404, Note_on_c, 0, 68, 0
2, 1337412, Note_on_c, 0, 60, 62
2, 1337420, Note_on_c, 0, 63, 0
2, 1337420, Note_on_c, 0, 75, 0
2, 1337428, Note_on_c, 0, 72, 74
2, 1337436, Note_on_c, 0, 60, 0
2, 1337484, Note_on_c, 0, 72, 0
2, 1337508, Note_on_c, 0, 68, 73
2, 1337568, Note_on_c, 0, 68, 0
2, 1337616, Control_c, 0, 64, 88
2, 1337628, Note_on_c, 0, 70, 82
2, 1337628, Control_c, 0, 64, 0
2, 1337664, Note_on_c, 0, 50, 61
2, 1337716, Note_on_c, 0, 50, 0
2, 1337736, Control_c, 0, 64, 88
2, 1337744, Control_c, 0, 64, 127
2, 1337800, Note_on_c, 0, 70, 0
2, 1337852, Note_on_c, 0, 82, 88
2, 1337868, Note_on_c, 0, 53, 46
2, 1337872, Note_on_c, 0, 56, 44
2, 1337876, Note_on_c, 0, 65, 46
2, 1337876, Note_on_c, 0, 58, 46
2, 1337928, Note_on_c, 0, 65, 0
2, 1337932, Note_on_c, 0, 53, 0
2, 1337936, Note_on_c, 0, 58, 0
2, 1337936, Note_on_c, 0, 56, 0
2, 1338036, Note_on_c, 0, 82, 0
2, 1338040, Note_on_c, 0, 56, 47
2, 1338044, Note_on_c, 0, 58, 42
2, 1338044, Note_on_c, 0, 65, 43
2, 1338048, Note_on_c, 0, 53, 44
2, 1338088, Note_on_c, 0, 53, 0
2, 1338092, Note_on_c, 0, 56, 0
2, 1338096, Note_on_c, 0, 65, 0
2, 1338100, Note_on_c, 0, 58, 0
2, 1338132, Note_on_c, 0, 82, 83
2, 1338188, Note_on_c, 0, 82, 0
2, 1338228, Note_on_c, 0, 82, 80
2, 1338236, Note_on_c, 0, 65, 54
2, 1338236, Note_on_c, 0, 56, 46
2, 1338244, Note_on_c, 0, 58, 44
2, 1338276, Note_on_c, 0, 65, 0
2, 1338300, Note_on_c, 0, 82, 0
2, 1338316, Note_on_c, 0, 56, 0
2, 1338324, Note_on_c, 0, 84, 85
2, 1338392, Note_on_c, 0, 84, 0
2, 1338392, Note_on_c, 0, 58, 0
2, 1338416, Note_on_c, 0, 82, 75
2, 1338424, Note_on_c, 0, 50, 64
2, 1338492, Note_on_c, 0, 82, 0
2, 1338504, Note_on_c, 0, 50, 0
2, 1338508, Note_on_c, 0, 77, 85
2, 1338584, Note_on_c, 0, 77, 0
2, 1338596, Note_on_c, 0, 74, 74
2, 1338616, Note_on_c, 0, 56, 38
2, 1338620, Note_on_c, 0, 58, 37
2, 1338624, Note_on_c, 0, 65, 40
2, 1338644, Note_on_c, 0, 74, 0
2, 1338656, Note_on_c, 0, 65, 0
2, 1338676, Note_on_c, 0, 56, 0
2, 1338692, Note_on_c, 0, 70, 82
2, 1338752, Note_on_c, 0, 58, 0
2, 1338768, Note_on_c, 0, 70, 0
2, 1338780, Control_c, 0, 64, 56
2, 1338792, Note_on_c, 0, 75, 83
2, 1338792, Control_c, 0, 64, 0
2, 1338800, Note_on_c, 0, 49, 64
2, 1338872, Note_on_c, 0, 75, 0
2, 1338888, Note_on_c, 0, 77, 78
2, 1338896, Control_c, 0, 64, 104
2, 1338904, Note_on_c, 0, 49, 0
2, 1338908, Control_c, 0, 64, 127
2, 1338948, Note_on_c, 0, 77, 0
2, 1338980, Note_on_c, 0, 75, 75
2, 1338988, Note_on_c, 0, 63, 47
2, 1339000, Note_on_c, 0, 58, 45
2, 1339000, Note_on_c, 0, 55, 54
2, 1339068, Note_on_c, 0, 63, 0
2, 1339068, Note_on_c, 0, 70, 77
2, 1339084, Note_on_c, 0, 75, 0
2, 1339104, Note_on_c, 0, 55, 0
2, 1339144, Note_on_c, 0, 58, 0
2, 1339144, Note_on_c, 0, 70, 0
2, 1339152, Note_on_c, 0, 67, 73
2, 1339156, Note_on_c, 0, 49, 73
2, 1339196, Note_on_c, 0, 67, 0
2, 1339224, Note_on_c, 0, 49, 0
2, 1339236, Note_on_c, 0, 63, 79
2, 1339308, Note_on_c, 0, 63, 0
2, 1339340, Note_on_c, 0, 68, 72
2, 1339352, Control_c, 0, 64, 56
2, 1339356, Note_on_c, 0, 48, 74
2, 1339360, Control_c, 0, 64, 0
2, 1339420, Note_on_c, 0, 68, 0
2, 1339436, Note_on_c, 0, 70, 73
2, 1339444, Control_c, 0, 64, 40
2, 1339456, Control_c, 0, 64, 104
2, 1339464, Control_c, 0, 64, 127
2, 1339508, Note_on_c, 0, 70, 0
2, 1339520, Note_on_c, 0, 48, 0
2, 1339532, Note_on_c, 0, 68, 71
2, 1339544, Note_on_c, 0, 51, 56
2, 1339548, Note_on_c, 0, 56, 53
2, 1339632, Note_on_c, 0, 68, 0
2, 1339632, Note_on_c, 0, 63, 70
2, 1339696, Note_on_c, 0, 48, 59
2, 1339708, Note_on_c, 0, 63, 0
2, 1339716, Note_on_c, 0, 60, 70
2, 1339720, Note_on_c, 0, 56, 0
2, 1339740, Note_on_c, 0, 48, 0
2, 1339740, Note_on_c, 0, 51, 0
2, 1339768, Note_on_c, 0, 60, 0
2, 1339808, Note_on_c, 0, 56, 68
2, 1339872, Control_c, 0, 64, 88
2, 1339876, Note_on_c, 0, 56, 0
2, 1339884, Control_c, 0, 64, 56
2, 1339896, Control_c, 0, 64, 24
2, 1339908, Note_on_c, 0, 53, 72
2, 1339908, Control_c, 0, 64, 0
2, 1339932, Note_on_c, 0, 37, 58
2, 1339932, Note_on_c, 0, 49, 60
2, 1339996, Note_on_c, 0, 49, 0
2, 1339996, Note_on_c, 0, 53, 0
2, 1340000, Note_on_c, 0, 56, 71
2, 1340004, Note_on_c, 0, 37, 0
2, 1340096, Note_on_c, 0, 50, 67
2, 1340100, Note_on_c, 0, 38, 64
2, 1340120, Note_on_c, 0, 58, 66
2, 1340132, Note_on_c, 0, 56, 0
2, 1340164, Note_on_c, 0, 50, 0
2, 1340172, Note_on_c, 0, 58, 0
2, 1340180, Note_on_c, 0, 38, 0
2, 1340200, Note_on_c, 0, 59, 68
2, 1340264, Note_on_c, 0, 59, 0
2, 1340276, Note_on_c, 0, 39, 53
2, 1340288, Note_on_c, 0, 68, 78
2, 1340288, Note_on_c, 0, 51, 60
2, 1340368, Note_on_c, 0, 60, 78
2, 1340380, Note_on_c, 0, 68, 0
2, 1340388, Note_on_c, 0, 39, 0
2, 1340396, Note_on_c, 0, 51, 0
2, 1340440, Note_on_c, 0, 60, 0
2, 1340460, Note_on_c, 0, 40, 66
2, 1340460, Note_on_c, 0, 52, 68
2, 1340460, Note_on_c, 0, 63, 80
2, 1340520, Note_on_c, 0, 40, 0
2, 1340528, Note_on_c, 0, 52, 0
2, 1340540, Note_on_c, 0, 61, 79
2, 1340580, Note_on_c, 0, 63, 0
2, 1340628, Note_on_c, 0, 61, 0
2, 1340628, Note_on_c, 0, 60, 93
2, 1340632, Note_on_c, 0, 53, 66
2, 1340632, Note_on_c, 0, 41, 64
2, 1340684, Note_on_c, 0, 41, 0
2, 1340692, Note_on_c, 0, 53, 0
2, 1340712, Note_on_c, 0, 61, 79
2, 1340724, Note_on_c, 0, 60, 0
2, 1340784, Note_on_c, 0, 61, 0
2, 1340804, Note_on_c, 0, 59, 74
2, 1340808, Note_on_c, 0, 56, 71
2, 1340808, Note_on_c, 0, 44, 68
2, 1340864, Note_on_c, 0, 44, 0
2, 1340880, Note_on_c, 0, 56, 0
2, 1340904, Note_on_c, 0, 62, 80
2, 1340920, Note_on_c, 0, 59, 0
2, 1340968, Note_on_c, 0, 62, 0
2, 1341004, Note_on_c, 0, 43, 85
2, 1341068, Control_c, 0, 64, 24
2, 1341080, Control_c, 0, 64, 56
2, 1341088, Note_on_c, 0, 58, 77
2, 1341092, Control_c, 0, 64, 72
2, 1341140, Control_c, 0, 64, 88
2, 1341180, Note_on_c, 0, 61, 76
2, 1341184, Control_c, 0, 64, 104
2, 1341188, Note_on_c, 0, 43, 0
2, 1341188, Note_on_c, 0, 51, 58
2, 1341196, Control_c, 0, 64, 127
2, 1341216, Note_on_c, 0, 58, 0
2, 1341268, Note_on_c, 0, 63, 73
2, 1341292, Note_on_c, 0, 61, 0
2, 1341316, Note_on_c, 0, 63, 0
2, 1341340, Note_on_c, 0, 51, 0
2, 1341368, Note_on_c, 0, 39, 58
2, 1341368, Note_on_c, 0, 70, 69
2, 1341424, Note_on_c, 0, 70, 0
2, 1341452, Note_on_c, 0, 75, 87
2, 1341500, Note_on_c, 0, 75, 0
2, 1341532, Note_on_c, 0, 39, 0
2, 1341568, Note_on_c, 0, 84, 94
2, 1341568, Control_c, 0, 64, 88
2, 1341576, Note_on_c, 0, 72, 79
2, 1341580, Control_c, 0, 64, 56
2, 1341584, Note_on_c, 0, 44, 56
2, 1341592, Control_c, 0, 64, 0
2, 1341628, Note_on_c, 0, 72, 0
2, 1341672, Note_on_c, 0, 84, 0
2, 1341696, Control_c, 0, 64, 56
2, 1341708, Control_c, 0, 64, 127
2, 1341740, Note_on_c, 0, 44, 0
2, 1341772, Note_on_c, 0, 51, 48
2, 1341856, Note_on_c, 0, 63, 71
2, 1341860, Note_on_c, 0, 75, 77
2, 1341896, Note_on_c, 0, 75, 0
2, 1341896, Note_on_c, 0, 63, 0
2, 1341908, Note_on_c, 0, 39, 46
2, 1341940, Note_on_c, 0, 63, 68
2, 1341944, Note_on_c, 0, 75, 74
2, 1341956, Note_on_c, 0, 39, 0
2, 1341968, Note_on_c, 0, 51, 0
2, 1342000, Note_on_c, 0, 63, 0
2, 1342024, Control_c, 0, 64, 104
2, 1342036, Note_on_c, 0, 75, 0
2, 1342036, Control_c, 0, 64, 88
2, 1342044, Control_c, 0, 64, 56
2, 1342056, Control_c, 0, 64, 24
2, 1342068, Control_c, 0, 64, 0
2, 1342116, Note_on_c, 0, 65, 79
2, 1342128, Note_on_c, 0, 61, 56
2, 1342132, Note_on_c, 0, 49, 60
2, 1342164, Control_c, 0, 64, 24
2, 1342172, Control_c, 0, 64, 40
2, 1342204, Note_on_c, 0, 68, 75
2, 1342212, Note_on_c, 0, 49, 0
2, 1342232, Note_on_c, 0, 65, 0
2, 1342232, Control_c, 0, 64, 24
2, 1342236, Note_on_c, 0, 61, 0
2, 1342264, Control_c, 0, 64, 0
2, 1342300, Note_on_c, 0, 70, 78
2, 1342300, Note_on_c, 0, 62, 52
2, 1342304, Note_on_c, 0, 50, 55
2, 1342332, Note_on_c, 0, 68, 0
2, 1342356, Note_on_c, 0, 62, 0
2, 1342364, Note_on_c, 0, 50, 0
2, 1342368, Note_on_c, 0, 70, 0
2, 1342388, Note_on_c, 0, 71, 85
2, 1342464, Note_on_c, 0, 71, 0
2, 1342472, Note_on_c, 0, 80, 86
2, 1342476, Note_on_c, 0, 63, 53
2, 1342476, Note_on_c, 0, 51, 57
2, 1342564, Note_on_c, 0, 72, 87
2, 1342568, Note_on_c, 0, 51, 0
2, 1342568, Note_on_c, 0, 80, 0
2, 1342580, Note_on_c, 0, 63, 0
2, 1342636, Note_on_c, 0, 72, 0
2, 1342652, Note_on_c, 0, 75, 85
2, 1342656, Note_on_c, 0, 52, 64
2, 1342656, Note_on_c, 0, 64, 65
2, 1342712, Note_on_c, 0, 52, 0
2, 1342724, Note_on_c, 0, 64, 0
2, 1342740, Note_on_c, 0, 73, 82
2, 1342756, Note_on_c, 0, 75, 0
2, 1342824, Note_on_c, 0, 72, 96
2, 1342832, Note_on_c, 0, 73, 0
2, 1342832, Note_on_c, 0, 65, 58
2, 1342836, Note_on_c, 0, 53, 62
2, 1342868, Note_on_c, 0, 53, 0
2, 1342896, Note_on_c, 0, 65, 0
2, 1342904, Note_on_c, 0, 73, 84
2, 1342924, Note_on_c, 0, 72, 0
2, 1342984, Note_on_c, 0, 73, 0
2, 1343000, Note_on_c, 0, 68, 80
2, 1343000, Note_on_c, 0, 71, 73
2, 1343004, Note_on_c, 0, 56, 71
2, 1343072, Note_on_c, 0, 56, 0
2, 1343100, Note_on_c, 0, 68, 0
2, 1343100, Note_on_c, 0, 74, 74
2, 1343112, Note_on_c, 0, 71, 0
2, 1343160, Note_on_c, 0, 74, 0
2, 1343188, Note_on_c, 0, 55, 89
2, 1343256, Control_c, 0, 64, 56
2, 1343264, Control_c, 0, 64, 127
2, 1343272, Note_on_c, 0, 70, 74
2, 1343356, Note_on_c, 0, 73, 71
2, 1343388, Note_on_c, 0, 63, 49
2, 1343396, Note_on_c, 0, 55, 0
2, 1343404, Note_on_c, 0, 70, 0
2, 1343448, Note_on_c, 0, 75, 77
2, 1343472, Note_on_c, 0, 73, 0
2, 1343492, Note_on_c, 0, 75, 0
2, 1343548, Note_on_c, 0, 51, 67
2, 1343548, Note_on_c, 0, 82, 75
2, 1343608, Note_on_c, 0, 82, 0
2, 1343632, Note_on_c, 0, 63, 0
2, 1343632, Note_on_c, 0, 87, 83
2, 1343676, Note_on_c, 0, 87, 0
2, 1343712, Note_on_c, 0, 51, 0
2, 1343752, Note_on_c, 0, 96, 86
2, 1343752, Note_on_c, 0, 56, 68
2, 1343756, Control_c, 0, 64, 72
2, 1343760, Note_on_c, 0, 84, 68
2, 1343764, Control_c, 0, 64, 24
2, 1343776, Control_c, 0, 64, 0
2, 1343836, Note_on_c, 0, 84, 0
2, 1343840, Note_on_c, 0, 96, 0
2, 1343860, Control_c, 0, 64, 72
2, 1343872, Control_c, 0, 64, 127
2, 1343924, Note_on_c, 0, 56, 0
2, 1343956, Note_on_c, 0, 63, 56
2, 1344036, Note_on_c, 0, 87, 79
2, 1344040, Note_on_c, 0, 75, 77
2, 1344072, Note_on_c, 0, 75, 0
2, 1344072, Note_on_c, 0, 87, 0
2, 1344120, Note_on_c, 0, 87, 76
2, 1344124, Note_on_c, 0, 75, 81
2, 1344132, Note_on_c, 0, 51, 73
2, 1344180, Note_on_c, 0, 87, 0
2, 1344184, Note_on_c, 0, 75, 0
2, 1344236, Note_on_c, 0, 63, 0
2, 1344276, Note_on_c, 0, 51, 0
2, 1344288, Control_c, 0, 64, 104
2, 1344300, Control_c, 0, 64, 72
2, 1344308, Note_on_c, 0, 55, 81
2, 1344312, Control_c, 0, 64, 40
2, 1344324, Control_c, 0, 64, 0
2, 1344400, Note_on_c, 0, 70, 74
2, 1344404, Control_c, 0, 64, 40
2, 1344416, Control_c, 0, 64, 104
2, 1344428, Control_c, 0, 64, 127
2, 1344496, Note_on_c, 0, 73, 77
2, 1344500, Note_on_c, 0, 55, 0
2, 1344512, Note_on_c, 0, 63, 61
2, 1344524, Note_on_c, 0, 70, 0
2, 1344580, Note_on_c, 0, 75, 81
2, 1344604, Note_on_c, 0, 73, 0
2, 1344628, Note_on_c, 0, 75, 0
2, 1344636, Note_on_c, 0, 63, 0
2, 1344676, Note_on_c, 0, 51, 76
2, 1344680, Note_on_c, 0, 82, 81
2, 1344740, Note_on_c, 0, 82, 0
2, 1344768, Note_on_c, 0, 87, 87
2, 1344828, Note_on_c, 0, 87, 0
2, 1344872, Control_c, 0, 64, 72
2, 1344876, Note_on_c, 0, 96, 93
2, 1344880, Control_c, 0, 64, 0
2, 1344884, Note_on_c, 0, 84, 77
2, 1344896, Note_on_c, 0, 56, 70
2, 1344904, Note_on_c, 0, 51, 0
2, 1344972, Note_on_c, 0, 96, 0
2, 1344984, Control_c, 0, 64, 88
2, 1344988, Note_on_c, 0, 84, 0
2, 1344996, Control_c, 0, 64, 127
2, 1345084, Note_on_c, 0, 56, 0
2, 1345108, Note_on_c, 0, 63, 62
2, 1345184, Note_on_c, 0, 87, 79
2, 1345184, Note_on_c, 0, 75, 77
2, 1345224, Note_on_c, 0, 75, 0
2, 1345228, Note_on_c, 0, 87, 0
2, 1345264, Note_on_c, 0, 51, 60
2, 1345272, Note_on_c, 0, 87, 77
2, 1345280, Note_on_c, 0, 75, 77
2, 1345304, Note_on_c, 0, 51, 0
2, 1345312, Note_on_c, 0, 75, 0
2, 1345324, Note_on_c, 0, 87, 0
2, 1345340, Note_on_c, 0, 63, 0
2, 1345472, Control_c, 0, 64, 72
2, 1345480, Note_on_c, 0, 96, 100
2, 1345484, Note_on_c, 0, 84, 92
2, 1345484, Control_c, 0, 64, 0
2, 1345500, Note_on_c, 0, 57, 58
2, 1345500, Note_on_c, 0, 60, 66
2, 1345504, Note_on_c, 0, 63, 54
2, 1345556, Control_c, 0, 64, 40
2, 1345560, Note_on_c, 0, 96, 0
2, 1345568, Control_c, 0, 64, 127
2, 1345576, Note_on_c, 0, 84, 0
2, 1345624, Note_on_c, 0, 57, 0
2, 1345676, Note_on_c, 0, 60, 0
2, 1345680, Note_on_c, 0, 63, 0
2, 1345688, Note_on_c, 0, 65, 63
2, 1345736, Note_on_c, 0, 65, 0
2, 1345780, Note_on_c, 0, 87, 82
2, 1345784, Note_on_c, 0, 75, 77
2, 1345816, Note_on_c, 0, 75, 0
2, 1345824, Note_on_c, 0, 87, 0
2, 1345868, Note_on_c, 0, 87, 81
2, 1345872, Note_on_c, 0, 51, 73
2, 1345872, Note_on_c, 0, 75, 82
2, 1345912, Note_on_c, 0, 51, 0
2, 1345932, Note_on_c, 0, 75, 0
2, 1345952, Note_on_c, 0, 87, 0
2, 1346032, Control_c, 0, 64, 88
2, 1346044, Control_c, 0, 64, 40
2, 1346056, Control_c, 0, 64, 0
2, 1346076, Note_on_c, 0, 74, 92
2, 1346076, Note_on_c, 0, 86, 97
2, 1346092, Note_on_c, 0, 56, 58
2, 1346096, Note_on_c, 0, 62, 67
2, 1346100, Note_on_c, 0, 58, 51
2, 1346132, Note_on_c, 0, 74, 0
2, 1346172, Note_on_c, 0, 86, 0
2, 1346172, Control_c, 0, 64, 104
2, 1346184, Control_c, 0, 64, 127
2, 1346272, Note_on_c, 0, 65, 63
2, 1346276, Note_on_c, 0, 62, 0
2, 1346284, Note_on_c, 0, 58, 0
2, 1346304, Note_on_c, 0, 56, 0
2, 1346328, Note_on_c, 0, 65, 0
2, 1346364, Note_on_c, 0, 94, 87
2, 1346364, Note_on_c, 0, 82, 86
2, 1346400, Note_on_c, 0, 82, 0
2, 1346404, Note_on_c, 0, 94, 0
2, 1346456, Note_on_c, 0, 51, 71
2, 1346460, Note_on_c, 0, 94, 95
2, 1346464, Note_on_c, 0, 82, 83
2, 1346492, Note_on_c, 0, 82, 0
2, 1346500, Note_on_c, 0, 51, 0
2, 1346508, Note_on_c, 0, 94, 0
2, 1346648, Control_c, 0, 64, 104
2, 1346660, Control_c, 0, 64, 0
2, 1346668, Note_on_c, 0, 99, 112
2, 1346672, Note_on_c, 0, 87, 102
2, 1346676, Note_on_c, 0, 55, 76
2, 1346680, Note_on_c, 0, 58, 58
2, 1346680, Note_on_c, 0, 61, 67
2, 1346740, Control_c, 0, 64, 88
2, 1346744, Note_on_c, 0, 99, 0
2, 1346752, Note_on_c, 0, 87, 0
2, 1346752, Control_c, 0, 64, 127
2, 1346840, Note_on_c, 0, 55, 0
2, 1346860, Note_on_c, 0, 61, 0
2, 1346864, Note_on_c, 0, 63, 66
2, 1346868, Note_on_c, 0, 58, 0
2, 1346928, Note_on_c, 0, 63, 0
2, 1346976, Note_on_c, 0, 85, 84
2, 1346980, Note_on_c, 0, 73, 80
2, 1347012, Note_on_c, 0, 73, 0
2, 1347020, Note_on_c, 0, 85, 0
2, 1347020, Note_on_c, 0, 51, 63
2, 1347060, Note_on_c, 0, 85, 86
2, 1347068, Note_on_c, 0, 73, 70
2, 1347116, Note_on_c, 0, 73, 0
2, 1347140, Note_on_c, 0, 51, 0
2, 1347156, Note_on_c, 0, 85, 0
2, 1347216, Control_c, 0, 64, 56
2, 1347228, Control_c, 0, 64, 0
2, 1347244, Note_on_c, 0, 84, 86
2, 1347248, Note_on_c, 0, 72, 79
2, 1347260, Note_on_c, 0, 56, 56
2, 1347264, Note_on_c, 0, 60, 52
2, 1347300, Note_on_c, 0, 72, 0
2, 1347308, Control_c, 0, 64, 56
2, 1347324, Control_c, 0, 64, 127
2, 1347328, Note_on_c, 0, 84, 0
2, 1347372, Note_on_c, 0, 60, 0
2, 1347424, Note_on_c, 0, 63, 54
2, 1347512, Note_on_c, 0, 87, 82
2, 1347516, Note_on_c, 0, 75, 82
2, 1347548, Note_on_c, 0, 56, 0
2, 1347552, Note_on_c, 0, 75, 0
2, 1347552, Note_on_c, 0, 87, 0
2, 1347588, Note_on_c, 0, 51, 56
2, 1347596, Note_on_c, 0, 87, 85
2, 1347596, Note_on_c, 0, 75, 75
2, 1347628, Note_on_c, 0, 51, 0
2, 1347632, Note_on_c, 0, 75, 0
2, 1347644, Note_on_c, 0, 87, 0
2, 1347664, Note_on_c, 0, 63, 0
2, 1347808, Note_on_c, 0, 96, 105
2, 1347808, Control_c, 0, 64, 40
2, 1347812, Note_on_c, 0, 84, 96
2, 1347820, Control_c, 0, 64, 0
2, 1347828, Note_on_c, 0, 63, 59
2, 1347832, Note_on_c, 0, 57, 59
2, 1347836, Note_on_c, 0, 60, 62
2, 1347892, Control_c, 0, 64, 104
2, 1347896, Note_on_c, 0, 84, 0
2, 1347904, Note_on_c, 0, 96, 0
2, 1347904, Control_c, 0, 64, 127
2, 1347964, Note_on_c, 0, 57, 0
2, 1347996, Note_on_c, 0, 60, 0
2, 1348000, Note_on_c, 0, 63, 0
2, 1348012, Note_on_c, 0, 65, 53
2, 1348036, Note_on_c, 0, 65, 0
2, 1348116, Note_on_c, 0, 75, 78
2, 1348116, Note_on_c, 0, 87, 84
2, 1348152, Note_on_c, 0, 87, 0
2, 1348152, Note_on_c, 0, 75, 0
2, 1348168, Note_on_c, 0, 51, 65
2, 1348200, Note_on_c, 0, 87, 83
2, 1348200, Note_on_c, 0, 75, 82
2, 1348216, Note_on_c, 0, 51, 0
2, 1348284, Note_on_c, 0, 75, 0
2, 1348292, Note_on_c, 0, 87, 0
2, 1348408, Note_on_c, 0, 86, 93
2, 1348412, Note_on_c, 0, 74, 87
2, 1348416, Control_c, 0, 64, 56
2, 1348424, Note_on_c, 0, 56, 50
2, 1348428, Note_on_c, 0, 62, 60
2, 1348428, Control_c, 0, 64, 0
2, 1348432, Note_on_c, 0, 58, 48
2, 1348468, Note_on_c, 0, 74, 0
2, 1348508, Control_c, 0, 64, 104
2, 1348512, Note_on_c, 0, 86, 0
2, 1348520, Control_c, 0, 64, 127
2, 1348596, Note_on_c, 0, 62, 0
2, 1348600, Note_on_c, 0, 65, 62
2, 1348612, Note_on_c, 0, 56, 0
2, 1348612, Note_on_c, 0, 58, 0
2, 1348652, Note_on_c, 0, 65, 0
2, 1348696, Note_on_c, 0, 94, 87
2, 1348700, Note_on_c, 0, 82, 79
2, 1348732, Note_on_c, 0, 82, 0
2, 1348732, Note_on_c, 0, 94, 0
2, 1348780, Note_on_c, 0, 51, 64
2, 1348788, Note_on_c, 0, 82, 73
2, 1348792, Note_on_c, 0, 94, 89
2, 1348820, Note_on_c, 0, 51, 0
2, 1348828, Note_on_c, 0, 82, 0
2, 1348832, Note_on_c, 0, 94, 0
2, 1348996, Control_c, 0, 64, 72
2, 1349000, Note_on_c, 0, 99, 106
2, 1349000, Note_on_c, 0, 87, 95
2, 1349008, Note_on_c, 0, 55, 76
2, 1349008, Note_on_c, 0, 61, 67
2, 1349008, Control_c, 0, 64, 0
2, 1349020, Note_on_c, 0, 58, 53
2, 1349068, Note_on_c, 0, 99, 0
2, 1349076, Control_c, 0, 64, 88
2, 1349080, Note_on_c, 0, 87, 0
2, 1349088, Control_c, 0, 64, 127
2, 1349184, Note_on_c, 0, 55, 0
2, 1349200, Note_on_c, 0, 61, 0
2, 1349208, Note_on_c, 0, 58, 0
2, 1349208, Note_on_c, 0, 63, 58
2, 1349276, Note_on_c, 0, 63, 0
2, 1349288, Note_on_c, 0, 85, 80
2, 1349292, Note_on_c, 0, 73, 81
2, 1349328, Note_on_c, 0, 73, 0
2, 1349332, Note_on_c, 0, 85, 0
2, 1349368, Note_on_c, 0, 51, 60
2, 1349376, Note_on_c, 0, 85, 73
2, 1349380, Note_on_c, 0, 73, 77
2, 1349460, Note_on_c, 0, 73, 0
2, 1349472, Note_on_c, 0, 85, 0
2, 1349472, Note_on_c, 0, 51, 0
2, 1349564, Control_c, 0, 64, 72
2, 1349576, Note_on_c, 0, 84, 92
2, 1349576, Control_c, 0, 64, 0
2, 1349580, Note_on_c, 0, 72, 87
2, 1349596, Note_on_c, 0, 60, 62
2, 1349596, Note_on_c, 0, 56, 49
2, 1349636, Note_on_c, 0, 72, 0
2, 1349660, Control_c, 0, 64, 72
2, 1349668, Control_c, 0, 64, 127
2, 1349672, Note_on_c, 0, 84, 0
2, 1349732, Note_on_c, 0, 60, 0
2, 1349776, Note_on_c, 0, 63, 63
2, 1349864, Note_on_c, 0, 87, 84
2, 1349868, Note_on_c, 0, 75, 70
2, 1349900, Note_on_c, 0, 75, 0
2, 1349900, Note_on_c, 0, 87, 0
2, 1349936, Note_on_c, 0, 51, 71
2, 1349940, Note_on_c, 0, 87, 83
2, 1349944, Note_on_c, 0, 75, 86
2, 1349952, Note_on_c, 0, 56, 0
2, 1349964, Note_on_c, 0, 63, 0
2, 1349988, Note_on_c, 0, 87, 0
2, 1349996, Note_on_c, 0, 51, 0
2, 1350000, Note_on_c, 0, 75, 0
2, 1350076, Control_c, 0, 64, 104
2, 1350088, Control_c, 0, 64, 56
2, 1350100, Control_c, 0, 64, 0
2, 1350156, Note_on_c, 0, 80, 95
2, 1350168, Note_on_c, 0, 68, 86
2, 1350168, Note_on_c, 0, 75, 83
2, 1350172, Note_on_c, 0, 48, 82
2, 1350180, Note_on_c, 0, 60, 86
2, 1350192, Control_c, 0, 64, 56
2, 1350204, Control_c, 0, 64, 127
2, 1350228, Note_on_c, 0, 60, 0
2, 1350240, Note_on_c, 0, 48, 0
2, 1350448, Note_on_c, 0, 68, 0
2, 1350448, Control_c, 0, 64, 88
2, 1350456, Note_on_c, 0, 36, 80
2, 1350456, Note_on_c, 0, 48, 102
2, 1350460, Control_c, 0, 64, 56
2, 1350464, Note_on_c, 0, 75, 0
2, 1350472, Control_c, 0, 64, 24
2, 1350476, Note_on_c, 0, 80, 0
2, 1350484, Control_c, 0, 64, 0
2, 1350492, Note_on_c, 0, 48, 0
2, 1350496, Note_on_c, 0, 36, 0
2, 1350536, Note_on_c, 0, 48, 99
2, 1350540, Note_on_c, 0, 36, 82
2, 1350592, Note_on_c, 0, 36, 0
2, 1350624, Note_on_c, 0, 48, 0
2, 1350760, Note_on_c, 0, 47, 110
2, 1350760, Note_on_c, 0, 35, 84
2, 1350796, Control_c, 0, 64, 72
2, 1350808, Note_on_c, 0, 35, 0
2, 1350808, Control_c, 0, 64, 127
2, 1350824, Note_on_c, 0, 47, 0
2, 1351048, Note_on_c, 0, 68, 81
2, 1351052, Note_on_c, 0, 80, 82
2, 1351052, Control_c, 0, 64, 88
2, 1351056, Note_on_c, 0, 73, 64
2, 1351056, Note_on_c, 0, 47, 73
2, 1351060, Note_on_c, 0, 77, 73
2, 1351060, Note_on_c, 0, 59, 78
2, 1351064, Control_c, 0, 64, 72
2, 1351076, Note_on_c, 0, 77, 0
2, 1351076, Note_on_c, 0, 73, 0
2, 1351076, Control_c, 0, 64, 40
2, 1351088, Note_on_c, 0, 68, 0
2, 1351088, Note_on_c, 0, 80, 0
2, 1351088, Control_c, 0, 64, 0
2, 1351096, Note_on_c, 0, 59, 0
2, 1351104, Note_on_c, 0, 47, 0
2, 1351132, Note_on_c, 0, 68, 84
2, 1351132, Note_on_c, 0, 80, 83
2, 1351136, Note_on_c, 0, 77, 87
2, 1351140, Note_on_c, 0, 73, 75
2, 1351144, Note_on_c, 0, 59, 81
2, 1351148, Note_on_c, 0, 47, 75
2, 1351160, Note_on_c, 0, 73, 0
2, 1351172, Note_on_c, 0, 68, 0
2, 1351188, Note_on_c, 0, 77, 0
2, 1351188, Note_on_c, 0, 47, 0
2, 1351196, Note_on_c, 0, 80, 0
2, 1351200, Note_on_c, 0, 59, 0
2, 1351352, Note_on_c, 0, 85, 105
2, 1351352, Note_on_c, 0, 73, 102
2, 1351356, Note_on_c, 0, 78, 95
2, 1351360, Note_on_c, 0, 58, 89
2, 1351364, Note_on_c, 0, 46, 81
2, 1351400, Control_c, 0, 64, 72
2, 1351408, Note_on_c, 0, 58, 0
2, 1351412, Control_c, 0, 64, 127
2, 1351420, Note_on_c, 0, 82, 55
2, 1351428, Note_on_c, 0, 46, 0
2, 1351640, Note_on_c, 0, 34, 77
2, 1351644, Note_on_c, 0, 46, 84
2, 1351656, Note_on_c, 0, 78, 0
2, 1351668, Note_on_c, 0, 82, 0
2, 1351668, Note_on_c, 0, 73, 0
2, 1351676, Note_on_c, 0, 85, 0
2, 1351676, Note_on_c, 0, 34, 0
2, 1351676, Note_on_c, 0, 46, 0
2, 1351680, Control_c, 0, 64, 104
2, 1351692, Control_c, 0, 64, 72
2, 1351704, Control_c, 0, 64, 40
2, 1351716, Control_c, 0, 64, 0
2, 1351724, Note_on_c, 0, 46, 89
2, 1351728, Note_on_c, 0, 34, 74
2, 1351768, Note_on_c, 0, 34, 0
2, 1351772, Note_on_c, 0, 46, 0
2, 1351948, Note_on_c, 0, 49, 106
2, 1351952, Note_on_c, 0, 37, 82
2, 1351984, Control_c, 0, 64, 88
2, 1351992, Control_c, 0, 64, 127
2, 1351996, Note_on_c, 0, 37, 0
2, 1352000, Note_on_c, 0, 49, 0
2, 1352224, Note_on_c, 0, 82, 79
2, 1352224, Note_on_c, 0, 70, 85
2, 1352232, Note_on_c, 0, 75, 67
2, 1352232, Note_on_c, 0, 79, 73
2, 1352236, Note_on_c, 0, 61, 80
2, 1352236, Note_on_c, 0, 49, 73
2, 1352248, Control_c, 0, 64, 88
2, 1352252, Note_on_c, 0, 79, 0
2, 1352260, Note_on_c, 0, 75, 0
2, 1352260, Note_on_c, 0, 82, 0
2, 1352264, Note_on_c, 0, 70, 0
2, 1352264, Control_c, 0, 64, 56
2, 1352268, Note_on_c, 0, 61, 0
2, 1352268, Note_on_c, 0, 49, 0
2, 1352272, Control_c, 0, 64, 24
2, 1352284, Control_c, 0, 64, 0
2, 1352308, Note_on_c, 0, 70, 85
2, 1352308, Note_on_c, 0, 82, 83
2, 1352316, Note_on_c, 0, 79, 85
2, 1352320, Note_on_c, 0, 75, 67
2, 1352328, Note_on_c, 0, 61, 85
2, 1352328, Note_on_c, 0, 49, 68
2, 1352336, Note_on_c, 0, 75, 0
2, 1352344, Note_on_c, 0, 70, 0
2, 1352360, Note_on_c, 0, 79, 0
2, 1352360, Note_on_c, 0, 49, 0
2, 1352364, Note_on_c, 0, 61, 0
2, 1352368, Note_on_c, 0, 82, 0
2, 1352524, Note_on_c, 0, 87, 103
2, 1352528, Note_on_c, 0, 75, 102
2, 1352532, Note_on_c, 0, 80, 96
2, 1352536, Note_on_c, 0, 60, 88
2, 1352540, Note_on_c, 0, 48, 83
2, 1352552, Control_c, 0, 64, 72
2, 1352564, Control_c, 0, 64, 127
2, 1352572, Note_on_c, 0, 60, 0
2, 1352596, Note_on_c, 0, 48, 0
2, 1352808, Note_on_c, 0, 36, 68
2, 1352812, Note_on_c, 0, 48, 88
2, 1352844, Note_on_c, 0, 87, 0
2, 1352848, Note_on_c, 0, 48, 0
2, 1352852, Note_on_c, 0, 36, 0
2, 1352868, Note_on_c, 0, 80, 0
2, 1352876, Control_c, 0, 64, 104
2, 1352884, Note_on_c, 0, 75, 0
2, 1352888, Control_c, 0, 64, 88
2, 1352896, Note_on_c, 0, 48, 90
2, 1352900, Control_c, 0, 64, 56
2, 1352904, Note_on_c, 0, 36, 71
2, 1352912, Control_c, 0, 64, 40
2, 1352924, Control_c, 0, 64, 24
2, 1352948, Control_c, 0, 64, 0
2, 1352952, Note_on_c, 0, 36, 0
2, 1352956, Note_on_c, 0, 48, 0
2, 1353120, Note_on_c, 0, 85, 93
2, 1353124, Note_on_c, 0, 73, 95
2, 1353124, Note_on_c, 0, 80, 88
2, 1353128, Note_on_c, 0, 34, 75
2, 1353132, Note_on_c, 0, 46, 97
2, 1353156, Control_c, 0, 64, 40
2, 1353168, Note_on_c, 0, 34, 0
2, 1353168, Control_c, 0, 64, 127
2, 1353172, Note_on_c, 0, 46, 0
2, 1353188, Note_on_c, 0, 85, 0
2, 1353192, Note_on_c, 0, 80, 0
2, 1353192, Note_on_c, 0, 73, 0
2, 1353404, Note_on_c, 0, 65, 79
2, 1353404, Note_on_c, 0, 68, 74
2, 1353404, Note_on_c, 0, 56, 61
2, 1353408, Note_on_c, 0, 73, 85
2, 1353408, Note_on_c, 0, 61, 56
2, 1353432, Note_on_c, 0, 61, 0
2, 1353436, Note_on_c, 0, 65, 0
2, 1353444, Note_on_c, 0, 68, 0
2, 1353444, Note_on_c, 0, 56, 0
2, 1353448, Note_on_c, 0, 73, 0
2, 1353472, Control_c, 0, 64, 104
2, 1353480, Control_c, 0, 64, 72
2, 1353484, Note_on_c, 0, 68, 77
2, 1353488, Note_on_c, 0, 73, 85
2, 1353492, Control_c, 0, 64, 56
2, 1353496, Note_on_c, 0, 64, 89
2, 1353496, Note_on_c, 0, 56, 60
2, 1353500, Note_on_c, 0, 61, 65
2, 1353504, Control_c, 0, 64, 24
2, 1353528, Note_on_c, 0, 68, 0
2, 1353528, Control_c, 0, 64, 0
2, 1353536, Note_on_c, 0, 56, 0
2, 1353536, Note_on_c, 0, 61, 0
2, 1353536, Note_on_c, 0, 64, 0
2, 1353540, Note_on_c, 0, 73, 0
2, 1353700, Note_on_c, 0, 84, 96
2, 1353704, Note_on_c, 0, 79, 94
2, 1353704, Note_on_c, 0, 72, 94
2, 1353708, Note_on_c, 0, 39, 70
2, 1353716, Note_on_c, 0, 51, 90
2, 1353736, Control_c, 0, 64, 40
2, 1353748, Control_c, 0, 64, 104
2, 1353756, Note_on_c, 0, 51, 0
2, 1353756, Note_on_c, 0, 39, 0
2, 1353760, Control_c, 0, 64, 127
2, 1353776, Note_on_c, 0, 72, 0
2, 1353776, Note_on_c, 0, 79, 0
2, 1353780, Note_on_c, 0, 84, 0
2, 1353980, Note_on_c, 0, 72, 84
2, 1353980, Note_on_c, 0, 63, 65
2, 1353984, Note_on_c, 0, 60, 73
2, 1353988, Note_on_c, 0, 67, 58
2, 1354008, Note_on_c, 0, 67, 0
2, 1354008, Note_on_c, 0, 60, 0
2, 1354020, Note_on_c, 0, 63, 0
2, 1354024, Note_on_c, 0, 72, 0
2, 1354052, Control_c, 0, 64, 104
2, 1354060, Note_on_c, 0, 72, 93
2, 1354060, Note_on_c, 0, 67, 68
2, 1354064, Control_c, 0, 64, 88
2, 1354068, Note_on_c, 0, 63, 65
2, 1354076, Note_on_c, 0, 60, 73
2, 1354076, Control_c, 0, 64, 72
2, 1354088, Control_c, 0, 64, 56
2, 1354092, Note_on_c, 0, 60, 0
2, 1354096, Control_c, 0, 64, 40
2, 1354104, Note_on_c, 0, 67, 0
2, 1354108, Note_on_c, 0, 63, 0
2, 1354108, Control_c, 0, 64, 24
2, 1354112, Note_on_c, 0, 72, 0
2, 1354132, Control_c, 0, 64, 0
2, 1354284, Note_on_c, 0, 82, 84
2, 1354288, Note_on_c, 0, 79, 89
2, 1354292, Note_on_c, 0, 70, 89
2, 1354300, Note_on_c, 0, 37, 73
2, 1354300, Note_on_c, 0, 49, 96
2, 1354320, Control_c, 0, 64, 40
2, 1354332, Control_c, 0, 64, 127
2, 1354348, Note_on_c, 0, 49, 0
2, 1354348, Note_on_c, 0, 37, 0
2, 1354360, Note_on_c, 0, 70, 0
2, 1354364, Note_on_c, 0, 79, 0
2, 1354368, Note_on_c, 0, 82, 0
2, 1354576, Note_on_c, 0, 70, 71
2, 1354576, Note_on_c, 0, 67, 73
2, 1354588, Note_on_c, 0, 63, 62
2, 1354600, Note_on_c, 0, 58, 31
2, 1354612, Note_on_c, 0, 63, 0
2, 1354612, Note_on_c, 0, 70, 0
2, 1354620, Note_on_c, 0, 58, 0
2, 1354624, Note_on_c, 0, 67, 0
2, 1354668, Note_on_c, 0, 70, 84
2, 1354668, Note_on_c, 0, 67, 67
2, 1354680, Note_on_c, 0, 63, 76
2, 1354684, Note_on_c, 0, 58, 69
2, 1354696, Note_on_c, 0, 67, 0
2, 1354716, Note_on_c, 0, 70, 0
2, 1354716, Note_on_c, 0, 63, 0
2, 1354720, Note_on_c, 0, 58, 0
2, 1354864, Control_c, 0, 64, 88
2, 1354876, Control_c, 0, 64, 56
2, 1354888, Control_c, 0, 64, 0
2, 1354908, Note_on_c, 0, 87, 97
2, 1354912, Note_on_c, 0, 75, 105
2, 1354916, Note_on_c, 0, 80, 95
2, 1354924, Note_on_c, 0, 36, 79
2, 1354928, Note_on_c, 0, 48, 96
2, 1354956, Control_c, 0, 64, 72
2, 1354964, Note_on_c, 0, 36, 0
2, 1354968, Control_c, 0, 64, 127
2, 1354980, Note_on_c, 0, 48, 0
2, 1354984, Note_on_c, 0, 87, 0
2, 1354984, Note_on_c, 0, 75, 0
2, 1354988, Note_on_c, 0, 80, 0
2, 1355200, Note_on_c, 0, 75, 76
2, 1355200, Note_on_c, 0, 68, 72
2, 1355208, Note_on_c, 0, 72, 78
2, 1355212, Note_on_c, 0, 63, 76
2, 1355216, Note_on_c, 0, 56, 57
2, 1355228, Note_on_c, 0, 72, 0
2, 1355236, Note_on_c, 0, 56, 0
2, 1355244, Note_on_c, 0, 75, 0
2, 1355248, Note_on_c, 0, 68, 0
2, 1355248, Note_on_c, 0, 63, 0
2, 1355288, Note_on_c, 0, 68, 69
2, 1355292, Note_on_c, 0, 75, 79
2, 1355296, Note_on_c, 0, 72, 82
2, 1355304, Note_on_c, 0, 63, 77
2, 1355304, Note_on_c, 0, 56, 68
2, 1355320, Note_on_c, 0, 72, 0
2, 1355332, Note_on_c, 0, 68, 0
2, 1355344, Note_on_c, 0, 63, 0
2, 1355348, Note_on_c, 0, 75, 0
2, 1355352, Note_on_c, 0, 56, 0
2, 1355516, Control_c, 0, 64, 56
2, 1355528, Control_c, 0, 64, 0
2, 1355548, Note_on_c, 0, 85, 99
2, 1355552, Note_on_c, 0, 73, 99
2, 1355552, Note_on_c, 0, 80, 91
2, 1355560, Note_on_c, 0, 34, 81
2, 1355564, Note_on_c, 0, 46, 100
2, 1355576, Note_on_c, 0, 39, 40
2, 1355596, Note_on_c, 0, 39, 0
2, 1355604, Note_on_c, 0, 46, 0
2, 1355608, Note_on_c, 0, 34, 0
2, 1355608, Control_c, 0, 64, 127
2, 1355632, Note_on_c, 0, 85, 0
2, 1355636, Note_on_c, 0, 80, 0
2, 1355644, Note_on_c, 0, 73, 0
2, 1355840, Note_on_c, 0, 77, 87
2, 1355844, Note_on_c, 0, 68, 77
2, 1355852, Note_on_c, 0, 73, 64
2, 1355852, Note_on_c, 0, 65, 70
2, 1355856, Note_on_c, 0, 56, 57
2, 1355860, Note_on_c, 0, 61, 45
2, 1355880, Note_on_c, 0, 61, 0
2, 1355880, Note_on_c, 0, 65, 0
2, 1355888, Note_on_c, 0, 73, 0
2, 1355892, Note_on_c, 0, 56, 0
2, 1355892, Note_on_c, 0, 68, 0
2, 1355904, Note_on_c, 0, 77, 0
2, 1355944, Note_on_c, 0, 76, 96
2, 1355944, Note_on_c, 0, 68, 78
2, 1355944, Note_on_c, 0, 73, 70
2, 1355952, Note_on_c, 0, 61, 75
2, 1355956, Note_on_c, 0, 64, 84
2, 1355956, Note_on_c, 0, 56, 64
2, 1355984, Note_on_c, 0, 64, 0
2, 1355988, Note_on_c, 0, 73, 0
2, 1355988, Note_on_c, 0, 68, 0
2, 1355992, Note_on_c, 0, 61, 0
2, 1356004, Note_on_c, 0, 56, 0
2, 1356012, Note_on_c, 0, 76, 0
2, 1356144, Control_c, 0, 64, 88
2, 1356156, Control_c, 0, 64, 40
2, 1356168, Control_c, 0, 64, 0
2, 1356184, Note_on_c, 0, 84, 99
2, 1356188, Note_on_c, 0, 72, 96
2, 1356188, Note_on_c, 0, 79, 92
2, 1356196, Note_on_c, 0, 39, 76
2, 1356204, Note_on_c, 0, 51, 91
2, 1356248, Control_c, 0, 64, 88
2, 1356252, Note_on_c, 0, 51, 0
2, 1356256, Note_on_c, 0, 39, 0
2, 1356260, Control_c, 0, 64, 127
2, 1356276, Note_on_c, 0, 79, 0
2, 1356276, Note_on_c, 0, 84, 0
2, 1356288, Note_on_c, 0, 72, 0
2, 1356500, Note_on_c, 0, 72, 84
2, 1356504, Note_on_c, 0, 60, 77
2, 1356504, Note_on_c, 0, 63, 68
2, 1356504, Note_on_c, 0, 67, 57
2, 1356532, Note_on_c, 0, 67, 0
2, 1356544, Note_on_c, 0, 63, 0
2, 1356548, Note_on_c, 0, 72, 0
2, 1356552, Note_on_c, 0, 60, 0
2, 1356592, Note_on_c, 0, 72, 92
2, 1356600, Note_on_c, 0, 67, 63
2, 1356616, Note_on_c, 0, 63, 71
2, 1356624, Note_on_c, 0, 60, 66
2, 1356640, Note_on_c, 0, 67, 0
2, 1356648, Note_on_c, 0, 72, 0
2, 1356660, Note_on_c, 0, 63, 0
2, 1356672, Note_on_c, 0, 60, 0
2, 1356852, Note_on_c, 0, 82, 90
2, 1356852, Control_c, 0, 64, 40
2, 1356860, Note_on_c, 0, 70, 93
2, 1356864, Note_on_c, 0, 79, 94
2, 1356864, Control_c, 0, 64, 0
2, 1356868, Note_on_c, 0, 39, 100
2, 1356872, Note_on_c, 0, 27, 85
2, 1356920, Note_on_c, 0, 39, 0
2, 1356924, Note_on_c, 0, 27, 0
2, 1356936, Control_c, 0, 64, 127
2, 1356944, Note_on_c, 0, 70, 0
2, 1356952, Note_on_c, 0, 79, 0
2, 1356956, Note_on_c, 0, 82, 0
2, 1357216, Note_on_c, 0, 70, 77
2, 1357220, Note_on_c, 0, 61, 70
2, 1357220, Note_on_c, 0, 63, 70
2, 1357224, Note_on_c, 0, 67, 63
2, 1357260, Note_on_c, 0, 63, 0
2, 1357260, Note_on_c, 0, 61, 0
2, 1357268, Note_on_c, 0, 67, 0
2, 1357272, Note_on_c, 0, 70, 0
2, 1357328, Note_on_c, 0, 70, 73
2, 1357328, Note_on_c, 0, 67, 61
2, 1357332, Note_on_c, 0, 63, 76
2, 1357336, Note_on_c, 0, 61, 70
2, 1357356, Note_on_c, 0, 61, 0
2, 1357368, Note_on_c, 0, 63, 0
2, 1357376, Note_on_c, 0, 67, 0
2, 1357376, Note_on_c, 0, 70, 0
2, 1357656, Control_c, 0, 64, 88
2, 1357660, Control_c, 0, 64, 127
2, 1357664, Note_on_c, 0, 80, 95
2, 1357664, Note_on_c, 0, 68, 80
2, 1357664, Note_on_c, 0, 32, 70
2, 1357668, Note_on_c, 0, 75, 77
2, 1357668, Note_on_c, 0, 39, 65
2, 1357676, Note_on_c, 0, 44, 65
2, 1357696, Note_on_c, 0, 39, 0
2, 1357700, Note_on_c, 0, 32, 0
2, 1357700, Note_on_c, 0, 44, 0
2, 1357704, Note_on_c, 0, 68, 0
2, 1357708, Note_on_c, 0, 75, 0
2, 1357792, Note_on_c, 0, 80, 0
2, 1357840, Note_on_c, 0, 75, 87
2, 1357856, Note_on_c, 0, 60, 61
2, 1357856, Note_on_c, 0, 56, 53
2, 1357868, Note_on_c, 0, 51, 49
2, 1357880, Note_on_c, 0, 60, 0
2, 1357896, Note_on_c, 0, 75, 0
2, 1357896, Note_on_c, 0, 56, 0
2, 1357916, Note_on_c, 0, 51, 0
2, 1357972, Note_on_c, 0, 44, 70
2, 1358020, Note_on_c, 0, 44, 0
2, 1358104, Note_on_c, 0, 77, 92
2, 1358120, Note_on_c, 0, 56, 54
2, 1358124, Note_on_c, 0, 51, 61
2, 1358124, Note_on_c, 0, 60, 56
2, 1358160, Note_on_c, 0, 56, 0
2, 1358164, Note_on_c, 0, 60, 0
2, 1358180, Note_on_c, 0, 51, 0
2, 1358196, Note_on_c, 0, 77, 0
2, 1358232, Note_on_c, 0, 44, 69
2, 1358280, Note_on_c, 0, 44, 0
2, 1358368, Note_on_c, 0, 79, 88
2, 1358384, Note_on_c, 0, 60, 56
2, 1358384, Note_on_c, 0, 56, 50
2, 1358384, Note_on_c, 0, 51, 54
2, 1358412, Note_on_c, 0, 60, 0
2, 1358416, Note_on_c, 0, 56, 0
2, 1358432, Note_on_c, 0, 51, 0
2, 1358504, Control_c, 0, 64, 24
2, 1358512, Note_on_c, 0, 44, 67
2, 1358512, Control_c, 0, 64, 0
2, 1358552, Note_on_c, 0, 44, 0
2, 1358552, Control_c, 0, 64, 40
2, 1358560, Control_c, 0, 64, 127
2, 1358620, Note_on_c, 0, 79, 0
2, 1358648, Note_on_c, 0, 80, 96
2, 1358652, Note_on_c, 0, 61, 53
2, 1358656, Note_on_c, 0, 51, 49
2, 1358664, Note_on_c, 0, 55, 51
2, 1358684, Note_on_c, 0, 61, 0
2, 1358700, Note_on_c, 0, 55, 0
2, 1358732, Note_on_c, 0, 51, 0
2, 1358764, Note_on_c, 0, 44, 65
2, 1358792, Note_on_c, 0, 80, 0
2, 1358812, Note_on_c, 0, 44, 0
2, 1358908, Note_on_c, 0, 82, 91
2, 1358908, Note_on_c, 0, 61, 52
2, 1358916, Note_on_c, 0, 55, 62
2, 1358916, Note_on_c, 0, 51, 56
2, 1358952, Note_on_c, 0, 61, 0
2, 1358964, Note_on_c, 0, 55, 0
2, 1358996, Note_on_c, 0, 51, 0
2, 1359032, Note_on_c, 0, 44, 65
2, 1359068, Note_on_c, 0, 44, 0
2, 1359088, Note_on_c, 0, 82, 0
2, 1359164, Note_on_c, 0, 84, 96
2, 1359164, Note_on_c, 0, 61, 55
2, 1359168, Note_on_c, 0, 55, 61
2, 1359172, Note_on_c, 0, 51, 58
2, 1359188, Note_on_c, 0, 55, 0
2, 1359200, Note_on_c, 0, 61, 0
2, 1359256, Control_c, 0, 64, 40
2, 1359268, Control_c, 0, 64, 0
2, 1359276, Note_on_c, 0, 51, 0
2, 1359292, Note_on_c, 0, 44, 73
2, 1359324, Control_c, 0, 64, 56
2, 1359336, Note_on_c, 0, 44, 0
2, 1359336, Control_c, 0, 64, 127
2, 1359396, Note_on_c, 0, 84, 0
2, 1359424, Note_on_c, 0, 82, 95
2, 1359424, Note_on_c, 0, 60, 68
2, 1359428, Note_on_c, 0, 56, 60
2, 1359432, Note_on_c, 0, 51, 55
2, 1359464, Note_on_c, 0, 60, 0
2, 1359468, Note_on_c, 0, 56, 0
2, 1359488, Note_on_c, 0, 51, 0
2, 1359552, Note_on_c, 0, 44, 64
2, 1359592, Note_on_c, 0, 44, 0
2, 1359664, Note_on_c, 0, 82, 0
2, 1359676, Note_on_c, 0, 80, 93
2, 1359684, Note_on_c, 0, 60, 70
2, 1359684, Note_on_c, 0, 51, 68
2, 1359688, Note_on_c, 0, 56, 50
2, 1359704, Note_on_c, 0, 56, 0
2, 1359704, Note_on_c, 0, 60, 0
2, 1359724, Note_on_c, 0, 51, 0
2, 1359740, Note_on_c, 0, 80, 0
2, 1359800, Note_on_c, 0, 44, 60
2, 1359844, Note_on_c, 0, 44, 0
2, 1359924, Note_on_c, 0, 77, 92
2, 1359928, Note_on_c, 0, 60, 63
2, 1359928, Note_on_c, 0, 51, 63
2, 1359944, Note_on_c, 0, 56, 22
2, 1359952, Note_on_c, 0, 60, 0
2, 1359964, Note_on_c, 0, 56, 0
2, 1359976, Note_on_c, 0, 51, 0
2, 1360012, Control_c, 0, 64, 104
2, 1360024, Control_c, 0, 64, 0
2, 1360048, Note_on_c, 0, 44, 67
2, 1360092, Control_c, 0, 64, 56
2, 1360096, Note_on_c, 0, 44, 0
2, 1360100, Control_c, 0, 64, 127
2, 1360148, Note_on_c, 0, 77, 0
2, 1360172, Note_on_c, 0, 75, 85
2, 1360192, Note_on_c, 0, 61, 52
2, 1360196, Note_on_c, 0, 55, 54
2, 1360200, Note_on_c, 0, 51, 55
2, 1360224, Note_on_c, 0, 61, 0
2, 1360236, Note_on_c, 0, 55, 0
2, 1360256, Note_on_c, 0, 75, 0
2, 1360264, Note_on_c, 0, 51, 0
2, 1360292, Note_on_c, 0, 44, 71
2, 1360296, Note_on_c, 0, 74, 94
2, 1360348, Note_on_c, 0, 44, 0
2, 1360380, Note_on_c, 0, 74, 0
2, 1360420, Note_on_c, 0, 75, 96
2, 1360428, Note_on_c, 0, 61, 61
2, 1360432, Note_on_c, 0, 51, 60
2, 1360436, Note_on_c, 0, 55, 56
2, 1360464, Note_on_c, 0, 61, 0
2, 1360472, Note_on_c, 0, 55, 0
2, 1360504, Note_on_c, 0, 51, 0
2, 1360520, Note_on_c, 0, 75, 0
2, 1360548, Note_on_c, 0, 79, 99
2, 1360552, Note_on_c, 0, 44, 44
2, 1360588, Note_on_c, 0, 44, 0
2, 1360636, Note_on_c, 0, 79, 0
2, 1360664, Note_on_c, 0, 77, 97
2, 1360680, Note_on_c, 0, 61, 51
2, 1360684, Note_on_c, 0, 51, 42
2, 1360688, Note_on_c, 0, 55, 53
2, 1360712, Note_on_c, 0, 61, 0
2, 1360728, Note_on_c, 0, 55, 0
2, 1360756, Note_on_c, 0, 77, 0
2, 1360776, Note_on_c, 0, 51, 0
2, 1360784, Note_on_c, 0, 73, 94
2, 1360792, Note_on_c, 0, 44, 57
2, 1360832, Note_on_c, 0, 44, 0
2, 1360848, Note_on_c, 0, 73, 0
2, 1360892, Control_c, 0, 64, 88
2, 1360904, Control_c, 0, 64, 0
2, 1360912, Note_on_c, 0, 72, 90
2, 1360924, Note_on_c, 0, 60, 63
2, 1360924, Note_on_c, 0, 56, 53
2, 1360928, Note_on_c, 0, 51, 58
2, 1360948, Note_on_c, 0, 60, 0
2, 1360956, Note_on_c, 0, 56, 0
2, 1360972, Note_on_c, 0, 51, 0
2, 1360972, Control_c, 0, 64, 104
2, 1360980, Control_c, 0, 64, 127
2, 1360996, Note_on_c, 0, 72, 0
2, 1361040, Note_on_c, 0, 44, 60
2, 1361044, Note_on_c, 0, 75, 89
2, 1361052, Note_on_c, 0, 63, 70
2, 1361080, Note_on_c, 0, 44, 0
2, 1361108, Note_on_c, 0, 63, 0
2, 1361168, Note_on_c, 0, 60, 60
2, 1361168, Note_on_c, 0, 51, 62
2, 1361176, Note_on_c, 0, 56, 44
2, 1361188, Note_on_c, 0, 60, 0
2, 1361188, Note_on_c, 0, 75, 0
2, 1361196, Note_on_c, 0, 56, 0
2, 1361212, Note_on_c, 0, 51, 0
2, 1361284, Note_on_c, 0, 77, 96
2, 1361284, Note_on_c, 0, 44, 62
2, 1361288, Note_on_c, 0, 65, 76
2, 1361336, Note_on_c, 0, 44, 0
2, 1361364, Note_on_c, 0, 65, 0
2, 1361416, Note_on_c, 0, 51, 69
2, 1361416, Note_on_c, 0, 60, 62
2, 1361420, Note_on_c, 0, 56, 40
2, 1361432, Note_on_c, 0, 60, 0
2, 1361436, Note_on_c, 0, 56, 0
2, 1361456, Note_on_c, 0, 51, 0
2, 1361480, Note_on_c, 0, 77, 0
2, 1361524, Note_on_c, 0, 44, 59
2, 1361528, Note_on_c, 0, 79, 99
2, 1361528, Note_on_c, 0, 67, 84
2, 1361572, Note_on_c, 0, 44, 0
2, 1361620, Control_c, 0, 64, 104
2, 1361628, Control_c, 0, 64, 24
2, 1361640, Control_c, 0, 64, 0
2, 1361652, Note_on_c, 0, 67, 0
2, 1361664, Note_on_c, 0, 55, 80
2, 1361664, Note_on_c, 0, 61, 73
2, 1361664, Note_on_c, 0, 51, 62
2, 1361672, Note_on_c, 0, 79, 0
2, 1361688, Control_c, 0, 64, 72
2, 1361696, Control_c, 0, 64, 127
2, 1361700, Note_on_c, 0, 55, 0
2, 1361700, Note_on_c, 0, 61, 0
2, 1361708, Note_on_c, 0, 51, 0
2, 1361780, Note_on_c, 0, 80, 102
2, 1361780, Note_on_c, 0, 44, 62
2, 1361784, Note_on_c, 0, 68, 85
2, 1361824, Note_on_c, 0, 44, 0
2, 1361860, Note_on_c, 0, 68, 0
2, 1361888, Note_on_c, 0, 80, 0
2, 1361912, Note_on_c, 0, 61, 65
2, 1361916, Note_on_c, 0, 55, 66
2, 1361916, Note_on_c, 0, 51, 57
2, 1361936, Note_on_c, 0, 55, 0
2, 1361948, Note_on_c, 0, 61, 0
2, 1361964, Note_on_c, 0, 51, 0
2, 1362028, Note_on_c, 0, 82, 97
2, 1362032, Note_on_c, 0, 44, 45
2, 1362032, Note_on_c, 0, 70, 91
2, 1362072, Note_on_c, 0, 44, 0
2, 1362128, Note_on_c, 0, 70, 0
2, 1362160, Note_on_c, 0, 51, 54
2, 1362160, Note_on_c, 0, 55, 59
2, 1362164, Note_on_c, 0, 61, 60
2, 1362192, Note_on_c, 0, 55, 0
2, 1362196, Note_on_c, 0, 61, 0
2, 1362216, Note_on_c, 0, 82, 0
2, 1362224, Note_on_c, 0, 51, 0
2, 1362276, Note_on_c, 0, 44, 59
2, 1362284, Note_on_c, 0, 84, 102
2, 1362284, Note_on_c, 0, 72, 94
2, 1362328, Note_on_c, 0, 44, 0
2, 1362388, Note_on_c, 0, 84, 0
2, 1362396, Note_on_c, 0, 60, 68
2, 1362396, Note_on_c, 0, 51, 63
2, 1362396, Note_on_c, 0, 56, 63
2, 1362412, Note_on_c, 0, 72, 0
2, 1362444, Note_on_c, 0, 60, 0
2, 1362452, Note_on_c, 0, 51, 0
2, 1362452, Note_on_c, 0, 56, 0
2, 1362500, Control_c, 0, 64, 104
2, 1362512, Control_c, 0, 64, 24
2, 1362520, Note_on_c, 0, 82, 92
2, 1362520, Control_c, 0, 64, 0
2, 1362528, Note_on_c, 0, 70, 85
2, 1362528, Note_on_c, 0, 44, 63
2, 1362568, Control_c, 0, 64, 40
2, 1362576, Note_on_c, 0, 44, 0
2, 1362580, Control_c, 0, 64, 127
2, 1362644, Note_on_c, 0, 60, 68
2, 1362648, Note_on_c, 0, 56, 58
2, 1362656, Note_on_c, 0, 82, 0
2, 1362656, Note_on_c, 0, 51, 50
2, 1362664, Note_on_c, 0, 70, 0
2, 1362664, Note_on_c, 0, 60, 0
2, 1362668, Note_on_c, 0, 56, 0
2, 1362672, Note_on_c, 0, 51, 0
2, 1362760, Note_on_c, 0, 44, 62
2, 1362760, Note_on_c, 0, 80, 91
2, 1362768, Note_on_c, 0, 68, 82
2, 1362808, Note_on_c, 0, 44, 0
2, 1362844, Note_on_c, 0, 80, 0
2, 1362864, Note_on_c, 0, 68, 0
2, 1362880, Note_on_c, 0, 60, 70
2, 1362884, Note_on_c, 0, 56, 60
2, 1362888, Note_on_c, 0, 51, 60
2, 1362900, Note_on_c, 0, 56, 0
2, 1362900, Note_on_c, 0, 60, 0
2, 1362924, Note_on_c, 0, 51, 0
2, 1362996, Note_on_c, 0, 44, 63
2, 1363000, Note_on_c, 0, 77, 92
2, 1363008, Note_on_c, 0, 65, 74
2, 1363040, Note_on_c, 0, 44, 0
2, 1363092, Control_c, 0, 64, 56
2, 1363096, Note_on_c, 0, 65, 0
2, 1363096, Note_on_c, 0, 77, 0
2, 1363100, Control_c, 0, 64, 0
2, 1363132, Note_on_c, 0, 61, 67
2, 1363132, Note_on_c, 0, 55, 70
2, 1363132, Note_on_c, 0, 51, 53
2, 1363156, Note_on_c, 0, 55, 0
2, 1363160, Control_c, 0, 64, 104
2, 1363168, Note_on_c, 0, 61, 0
2, 1363168, Control_c, 0, 64, 127
2, 1363204, Note_on_c, 0, 51, 0
2, 1363244, Note_on_c, 0, 75, 85
2, 1363244, Note_on_c, 0, 44, 56
2, 1363248, Note_on_c, 0, 63, 77
2, 1363292, Note_on_c, 0, 44, 0
2, 1363304, Note_on_c, 0, 63, 0
2, 1363312, Note_on_c, 0, 75, 0
2, 1363364, Note_on_c, 0, 74, 89
2, 1363368, Note_on_c, 0, 62, 74
2, 1363372, Note_on_c, 0, 55, 59
2, 1363376, Note_on_c, 0, 51, 48
2, 1363388, Note_on_c, 0, 55, 0
2, 1363396, Note_on_c, 0, 51, 0
2, 1363400, Note_on_c, 0, 62, 0
2, 1363408, Note_on_c, 0, 74, 0
2, 1363476, Note_on_c, 0, 75, 87
2, 1363480, Note_on_c, 0, 63, 83
2, 1363480, Note_on_c, 0, 44, 68
2, 1363488, Note_on_c, 0, 55, 56
2, 1363508, Note_on_c, 0, 63, 0
2, 1363524, Note_on_c, 0, 44, 0
2, 1363528, Note_on_c, 0, 75, 0
2, 1363540, Note_on_c, 0, 55, 0
2, 1363596, Note_on_c, 0, 79, 96
2, 1363600, Note_on_c, 0, 67, 82
2, 1363604, Note_on_c, 0, 55, 62
2, 1363612, Note_on_c, 0, 61, 62
2, 1363612, Note_on_c, 0, 51, 54
2, 1363636, Note_on_c, 0, 67, 0
2, 1363656, Note_on_c, 0, 79, 0
2, 1363660, Note_on_c, 0, 55, 0
2, 1363668, Note_on_c, 0, 51, 0
2, 1363676, Note_on_c, 0, 61, 0
2, 1363716, Note_on_c, 0, 77, 96
2, 1363716, Note_on_c, 0, 44, 57
2, 1363720, Note_on_c, 0, 65, 76
2, 1363748, Note_on_c, 0, 44, 0
2, 1363760, Note_on_c, 0, 65, 0
2, 1363764, Note_on_c, 0, 77, 0
2, 1363828, Note_on_c, 0, 73, 88
2, 1363828, Note_on_c, 0, 61, 76
2, 1363828, Note_on_c, 0, 55, 41
2, 1363840, Note_on_c, 0, 51, 60
2, 1363860, Note_on_c, 0, 55, 0
2, 1363864, Note_on_c, 0, 61, 0
2, 1363896, Note_on_c, 0, 51, 0
2, 1363908, Note_on_c, 0, 73, 0
2, 1363936, Control_c, 0, 64, 40
2, 1363944, Control_c, 0, 64, 0
2, 1363964, Note_on_c, 0, 72, 96
2, 1363964, Note_on_c, 0, 60, 74
2, 1363964, Note_on_c, 0, 44, 63
2, 1363992, Control_c, 0, 64, 24
2, 1363996, Note_on_c, 0, 60, 0
2, 1364004, Control_c, 0, 64, 88
2, 1364012, Note_on_c, 0, 72, 0
2, 1364012, Control_c, 0, 64, 127
2, 1364020, Note_on_c, 0, 44, 0
2, 1364084, Note_on_c, 0, 75, 89
2, 1364084, Note_on_c, 0, 63, 80
2, 1364084, Note_on_c, 0, 60, 51
2, 1364088, Note_on_c, 0, 56, 55
2, 1364116, Note_on_c, 0, 63, 0
2, 1364140, Note_on_c, 0, 75, 0
2, 1364148, Note_on_c, 0, 56, 0
2, 1364156, Note_on_c, 0, 60, 0
2, 1364204, Note_on_c, 0, 48, 77
2, 1364276, Note_on_c, 0, 48, 0
2, 1364308, Note_on_c, 0, 80, 89
2, 1364312, Note_on_c, 0, 68, 79
2, 1364312, Control_c, 0, 64, 72
2, 1364320, Note_on_c, 0, 56, 67
2, 1364320, Control_c, 0, 64, 24
2, 1364328, Note_on_c, 0, 60, 63
2, 1364332, Control_c, 0, 64, 0
2, 1364352, Control_c, 0, 64, 40
2, 1364360, Control_c, 0, 64, 88
2, 1364372, Control_c, 0, 64, 127
2, 1364388, Note_on_c, 0, 60, 0
2, 1364408, Control_c, 0, 64, 56
2, 1364412, Note_on_c, 0, 56, 0
2, 1364416, Note_on_c, 0, 68, 0
2, 1364420, Control_c, 0, 64, 0
2, 1364440, Note_on_c, 0, 51, 83
2, 1364464, Note_on_c, 0, 80, 0
2, 1364468, Control_c, 0, 64, 72
2, 1364476, Control_c, 0, 64, 127
2, 1364532, Note_on_c, 0, 51, 0
2, 1364552, Note_on_c, 0, 82, 88
2, 1364552, Note_on_c, 0, 70, 85
2, 1364560, Note_on_c, 0, 60, 60
2, 1364560, Note_on_c, 0, 56, 63
2, 1364588, Note_on_c, 0, 70, 0
2, 1364596, Note_on_c, 0, 60, 0
2, 1364616, Note_on_c, 0, 56, 0
2, 1364660, Control_c, 0, 64, 24
2, 1364668, Note_on_c, 0, 82, 0
2, 1364672, Control_c, 0, 64, 0
2, 1364680, Note_on_c, 0, 41, 96
2, 1364728, Control_c, 0, 64, 127
2, 1364732, Note_on_c, 0, 41, 0
2, 1364812, Note_on_c, 0, 84, 100
2, 1364812, Note_on_c, 0, 72, 94
2, 1364816, Note_on_c, 0, 57, 77
2, 1364816, Note_on_c, 0, 60, 70
2, 1364832, Note_on_c, 0, 57, 0
2, 1364840, Note_on_c, 0, 60, 0
2, 1364852, Note_on_c, 0, 72, 0
2, 1364888, Note_on_c, 0, 84, 0
2, 1364932, Note_on_c, 0, 45, 85
2, 1364968, Note_on_c, 0, 45, 0
2, 1365048, Control_c, 0, 64, 104
2, 1365052, Note_on_c, 0, 89, 102
2, 1365056, Note_on_c, 0, 77, 93
2, 1365056, Note_on_c, 0, 60, 66
2, 1365056, Note_on_c, 0, 57, 71
2, 1365060, Control_c, 0, 64, 0
2, 1365108, Note_on_c, 0, 57, 0
2, 1365108, Note_on_c, 0, 60, 0
2, 1365116, Control_c, 0, 64, 88
2, 1365124, Control_c, 0, 64, 127
2, 1365156, Note_on_c, 0, 89, 0
2, 1365164, Note_on_c, 0, 77, 0
2, 1365172, Note_on_c, 0, 48, 75
2, 1365216, Note_on_c, 0, 48, 0
2, 1365292, Note_on_c, 0, 57, 63
2, 1365292, Note_on_c, 0, 87, 96
2, 1365300, Note_on_c, 0, 75, 77
2, 1365304, Note_on_c, 0, 60, 62
2, 1365332, Note_on_c, 0, 57, 0
2, 1365348, Note_on_c, 0, 60, 0
2, 1365396, Control_c, 0, 64, 56
2, 1365408, Control_c, 0, 64, 0
2, 1365412, Note_on_c, 0, 46, 81
2, 1365444, Control_c, 0, 64, 72
2, 1365456, Control_c, 0, 64, 127
2, 1365460, Note_on_c, 0, 46, 0
2, 1365460, Note_on_c, 0, 87, 0
2, 1365464, Note_on_c, 0, 75, 0
2, 1365540, Note_on_c, 0, 85, 89
2, 1365544, Note_on_c, 0, 61, 44
2, 1365548, Note_on_c, 0, 73, 79
2, 1365548, Note_on_c, 0, 58, 55
2, 1365584, Note_on_c, 0, 58, 0
2, 1365600, Note_on_c, 0, 61, 0
2, 1365648, Note_on_c, 0, 73, 0
2, 1365648, Note_on_c, 0, 85, 0
2, 1365652, Note_on_c, 0, 49, 72
2, 1365720, Note_on_c, 0, 49, 0
2, 1365784, Note_on_c, 0, 84, 93
2, 1365788, Note_on_c, 0, 72, 86
2, 1365792, Note_on_c, 0, 61, 54
2, 1365792, Note_on_c, 0, 58, 53
2, 1365856, Note_on_c, 0, 58, 0
2, 1365860, Note_on_c, 0, 72, 0
2, 1365864, Note_on_c, 0, 61, 0
2, 1365904, Note_on_c, 0, 53, 77
2, 1365924, Note_on_c, 0, 84, 0
2, 1365996, Note_on_c, 0, 53, 0
2, 1366016, Note_on_c, 0, 82, 91
2, 1366020, Note_on_c, 0, 70, 85
2, 1366028, Note_on_c, 0, 58, 57
2, 1366032, Note_on_c, 0, 61, 61
2, 1366056, Note_on_c, 0, 70, 0
2, 1366080, Note_on_c, 0, 82, 0
2, 1366092, Note_on_c, 0, 58, 0
2, 1366108, Note_on_c, 0, 61, 0
2, 1366132, Control_c, 0, 64, 72
2, 1366144, Note_on_c, 0, 51, 82
2, 1366144, Control_c, 0, 64, 0
2, 1366200, Control_c, 0, 64, 104
2, 1366208, Control_c, 0, 64, 127
2, 1366232, Note_on_c, 0, 51, 0
2, 1366260, Note_on_c, 0, 87, 97
2, 1366264, Note_on_c, 0, 75, 99
2, 1366272, Note_on_c, 0, 63, 58
2, 1366272, Note_on_c, 0, 60, 69
2, 1366344, Note_on_c, 0, 60, 0
2, 1366344, Note_on_c, 0, 63, 0
2, 1366364, Control_c, 0, 64, 40
2, 1366376, Control_c, 0, 64, 0
2, 1366380, Note_on_c, 0, 75, 0
2, 1366380, Note_on_c, 0, 51, 76
2, 1366392, Control_c, 0, 64, 56
2, 1366404, Control_c, 0, 64, 127
2, 1366420, Note_on_c, 0, 51, 0
2, 1366432, Note_on_c, 0, 87, 0
2, 1366500, Note_on_c, 0, 89, 110
2, 1366504, Note_on_c, 0, 77, 103
2, 1366508, Note_on_c, 0, 65, 70
2, 1366512, Note_on_c, 0, 62, 62
2, 1366520, Note_on_c, 0, 59, 60
2, 1366532, Note_on_c, 0, 62, 0
2, 1366540, Note_on_c, 0, 59, 0
2, 1366552, Note_on_c, 0, 65, 0
2, 1366608, Control_c, 0, 64, 24
2, 1366616, Control_c, 0, 64, 0
2, 1366620, Note_on_c, 0, 77, 0
2, 1366624, Note_on_c, 0, 51, 79
2, 1366644, Control_c, 0, 64, 56
2, 1366656, Control_c, 0, 64, 127
2, 1366668, Note_on_c, 0, 51, 0
2, 1366716, Note_on_c, 0, 89, 0
2, 1366744, Note_on_c, 0, 67, 77
2, 1366748, Note_on_c, 0, 91, 110
2, 1366752, Note_on_c, 0, 79, 103
2, 1366752, Note_on_c, 0, 61, 53
2, 1366752, Note_on_c, 0, 58, 64
2, 1366776, Note_on_c, 0, 67, 0
2, 1366792, Note_on_c, 0, 58, 0
2, 1366796, Note_on_c, 0, 61, 0
2, 1366856, Control_c, 0, 64, 72
2, 1366868, Control_c, 0, 64, 0
2, 1366872, Note_on_c, 0, 44, 80
2, 1366896, Control_c, 0, 64, 24
2, 1366900, Note_on_c, 0, 91, 0
2, 1366904, Note_on_c, 0, 44, 0
2, 1366904, Note_on_c, 0, 79, 0
2, 1366908, Control_c, 0, 64, 104
2, 1366916, Control_c, 0, 64, 127
2, 1367000, Note_on_c, 0, 92, 108
2, 1367000, Note_on_c, 0, 80, 100
2, 1367000, Note_on_c, 0, 60, 60
2, 1367000, Note_on_c, 0, 56, 61
2, 1367032, Control_c, 0, 64, 88
2, 1367052, Note_on_c, 0, 60, 0
2, 1367060, Control_c, 0, 64, 127
2, 1367100, Note_on_c, 0, 56, 0
2, 1367116, Note_on_c, 0, 80, 0
2, 1367116, Note_on_c, 0, 48, 77
2, 1367180, Note_on_c, 0, 92, 0
2, 1367184, Note_on_c, 0, 48, 0
2, 1367228, Control_c, 0, 64, 88
2, 1367236, Note_on_c, 0, 94, 97
2, 1367236, Control_c, 0, 64, 0
2, 1367240, Note_on_c, 0, 56, 58
2, 1367240, Note_on_c, 0, 82, 90
2, 1367240, Note_on_c, 0, 60, 67
2, 1367276, Control_c, 0, 64, 72
2, 1367284, Control_c, 0, 64, 127
2, 1367316, Note_on_c, 0, 60, 0
2, 1367324, Note_on_c, 0, 56, 0
2, 1367356, Note_on_c, 0, 51, 71
2, 1367360, Note_on_c, 0, 82, 0
2, 1367408, Note_on_c, 0, 94, 0
2, 1367476, Note_on_c, 0, 51, 0
2, 1367476, Note_on_c, 0, 95, 103
2, 1367476, Note_on_c, 0, 56, 60
2, 1367480, Note_on_c, 0, 83, 87
2, 1367480, Note_on_c, 0, 60, 51
2, 1367492, Note_on_c, 0, 56, 0
2, 1367500, Note_on_c, 0, 60, 0
2, 1367576, Note_on_c, 0, 83, 0
2, 1367584, Control_c, 0, 64, 56
2, 1367596, Control_c, 0, 64, 0
2, 1367600, Note_on_c, 0, 41, 87
2, 1367632, Control_c, 0, 64, 40
2, 1367644, Control_c, 0, 64, 104
2, 1367648, Note_on_c, 0, 41, 0
2, 1367652, Control_c, 0, 64, 127
2, 1367680, Note_on_c, 0, 95, 0
2, 1367720, Note_on_c, 0, 84, 99
2, 1367720, Note_on_c, 0, 96, 107
2, 1367728, Note_on_c, 0, 57, 79
2, 1367732, Note_on_c, 0, 60, 62
2, 1367748, Note_on_c, 0, 60, 0
2, 1367752, Note_on_c, 0, 57, 0
2, 1367776, Note_on_c, 0, 84, 0
2, 1367808, Note_on_c, 0, 96, 0
2, 1367844, Note_on_c, 0, 45, 78
2, 1367876, Note_on_c, 0, 45, 0
2, 1367960, Note_on_c, 0, 101, 110
2, 1367960, Note_on_c, 0, 57, 65
2, 1367960, Note_on_c, 0, 89, 112
2, 1367960, Note_on_c, 0, 60, 54
2, 1367972, Control_c, 0, 64, 72
2, 1367980, Control_c, 0, 64, 0
2, 1368020, Note_on_c, 0, 60, 0
2, 1368028, Control_c, 0, 64, 88
2, 1368040, Control_c, 0, 64, 127
2, 1368060, Note_on_c, 0, 101, 0
2, 1368060, Note_on_c, 0, 57, 0
2, 1368076, Note_on_c, 0, 89, 0
2, 1368084, Note_on_c, 0, 48, 77
2, 1368136, Note_on_c, 0, 48, 0
2, 1368196, Note_on_c, 0, 99, 103
2, 1368200, Note_on_c, 0, 87, 92
2, 1368200, Note_on_c, 0, 57, 60
2, 1368204, Note_on_c, 0, 60, 59
2, 1368228, Note_on_c, 0, 60, 0
2, 1368240, Note_on_c, 0, 57, 0
2, 1368312, Note_on_c, 0, 46, 80
2, 1368312, Control_c, 0, 64, 40
2, 1368320, Control_c, 0, 64, 0
2, 1368356, Note_on_c, 0, 99, 0
2, 1368360, Control_c, 0, 64, 40
2, 1368364, Note_on_c, 0, 46, 0
2, 1368368, Control_c, 0, 64, 104
2, 1368372, Note_on_c, 0, 87, 0
2, 1368380, Control_c, 0, 64, 127
2, 1368440, Note_on_c, 0, 97, 97
2, 1368444, Note_on_c, 0, 85, 90
2, 1368444, Note_on_c, 0, 61, 49
2, 1368452, Note_on_c, 0, 58, 46
2, 1368516, Note_on_c, 0, 58, 0
2, 1368516, Note_on_c, 0, 61, 0
2, 1368544, Note_on_c, 0, 85, 0
2, 1368556, Note_on_c, 0, 49, 80
2, 1368572, Note_on_c, 0, 97, 0
2, 1368652, Note_on_c, 0, 49, 0
2, 1368676, Note_on_c, 0, 96, 97
2, 1368680, Note_on_c, 0, 84, 82
2, 1368684, Note_on_c, 0, 61, 50
2, 1368696, Note_on_c, 0, 58, 40
2, 1368756, Note_on_c, 0, 58, 0
2, 1368764, Note_on_c, 0, 61, 0
2, 1368776, Control_c, 0, 64, 72
2, 1368784, Control_c, 0, 64, 0
2, 1368800, Note_on_c, 0, 53, 76
2, 1368820, Note_on_c, 0, 84, 0
2, 1368832, Control_c, 0, 64, 40
2, 1368844, Control_c, 0, 64, 127
2, 1368848, Note_on_c, 0, 96, 0
2, 1368888, Note_on_c, 0, 53, 0
2, 1368908, Note_on_c, 0, 94, 92
2, 1368912, Note_on_c, 0, 82, 80
2, 1368912, Note_on_c, 0, 58, 56
2, 1368916, Note_on_c, 0, 61, 54
2, 1368972, Note_on_c, 0, 58, 0
2, 1368996, Note_on_c, 0, 82, 0
2, 1369000, Note_on_c, 0, 61, 0
2, 1369004, Note_on_c, 0, 94, 0
2, 1369020, Control_c, 0, 64, 104
2, 1369028, Control_c, 0, 64, 0
2, 1369032, Note_on_c, 0, 51, 79
2, 1369084, Control_c, 0, 64, 72
2, 1369096, Control_c, 0, 64, 127
2, 1369104, Note_on_c, 0, 51, 0
2, 1369140, Note_on_c, 0, 92, 93
2, 1369144, Note_on_c, 0, 80, 79
2, 1369148, Note_on_c, 0, 60, 70
2, 1369148, Note_on_c, 0, 63, 60
2, 1369220, Note_on_c, 0, 60, 0
2, 1369224, Note_on_c, 0, 63, 0
2, 1369232, Control_c, 0, 64, 104
2, 1369240, Control_c, 0, 64, 0
2, 1369256, Note_on_c, 0, 51, 73
2, 1369264, Note_on_c, 0, 92, 0
2, 1369276, Note_on_c, 0, 80, 0
2, 1369280, Control_c, 0, 64, 40
2, 1369288, Note_on_c, 0, 51, 0
2, 1369288, Control_c, 0, 64, 104
2, 1369300, Control_c, 0, 64, 127
2, 1369368, Control_c, 0, 64, 56
2, 1369376, Control_c, 0, 64, 0
2, 1369384, Note_on_c, 0, 89, 94
2, 1369384, Control_c, 0, 64, 24
2, 1369388, Note_on_c, 0, 62, 76
2, 1369388, Note_on_c, 0, 65, 81
2, 1369392, Note_on_c, 0, 77, 83
2, 1369396, Control_c, 0, 64, 56
2, 1369400, Note_on_c, 0, 59, 72
2, 1369404, Control_c, 0, 64, 88
2, 1369416, Control_c, 0, 64, 127
2, 1369428, Note_on_c, 0, 62, 0
2, 1369440, Note_on_c, 0, 59, 0
2, 1369440, Note_on_c, 0, 65, 0
2, 1369484, Note_on_c, 0, 77, 0
2, 1369504, Control_c, 0, 64, 24
2, 1369508, Note_on_c, 0, 51, 79
2, 1369512, Control_c, 0, 64, 0
2, 1369532, Control_c, 0, 64, 40
2, 1369540, Control_c, 0, 64, 88
2, 1369552, Control_c, 0, 64, 127
2, 1369556, Note_on_c, 0, 51, 0
2, 1369560, Note_on_c, 0, 89, 0
2, 1369608, Control_c, 0, 64, 72
2, 1369620, Control_c, 0, 64, 0
2, 1369624, Note_on_c, 0, 87, 91
2, 1369628, Note_on_c, 0, 67, 87
2, 1369628, Note_on_c, 0, 75, 88
2, 1369632, Note_on_c, 0, 58, 71
2, 1369636, Note_on_c, 0, 61, 67
2, 1369636, Control_c, 0, 64, 24
2, 1369648, Control_c, 0, 64, 56
2, 1369656, Control_c, 0, 64, 127
2, 1369664, Note_on_c, 0, 67, 0
2, 1369680, Note_on_c, 0, 61, 0
2, 1369684, Note_on_c, 0, 58, 0
2, 1369688, Note_on_c, 0, 75, 0
2, 1369724, Note_on_c, 0, 87, 0
2, 1369744, Control_c, 0, 64, 56
2, 1369752, Note_on_c, 0, 51, 77
2, 1369752, Control_c, 0, 64, 0
2, 1369792, Control_c, 0, 64, 72
2, 1369800, Control_c, 0, 64, 127
2, 1369828, Note_on_c, 0, 51, 0
2, 1369864, Note_on_c, 0, 92, 97
2, 1369864, Note_on_c, 0, 63, 70
2, 1369868, Note_on_c, 0, 60, 62
2, 1369868, Note_on_c, 0, 80, 85
2, 1369932, Note_on_c, 0, 60, 0
2, 1369944, Note_on_c, 0, 63, 0
2, 1369964, Note_on_c, 0, 92, 0
2, 1369968, Note_on_c, 0, 51, 77
2, 1369968, Control_c, 0, 64, 72
2, 1369972, Note_on_c, 0, 80, 0
2, 1369976, Control_c, 0, 64, 0
2, 1370004, Control_c, 0, 64, 104
2, 1370016, Control_c, 0, 64, 127
2, 1370020, Note_on_c, 0, 51, 0
2, 1370084, Control_c, 0, 64, 104
2, 1370092, Control_c, 0, 64, 72
2, 1370096, Note_on_c, 0, 89, 96
2, 1370100, Note_on_c, 0, 77, 85
2, 1370100, Control_c, 0, 64, 88
2, 1370108, Note_on_c, 0, 65, 75
2, 1370108, Note_on_c, 0, 62, 70
2, 1370112, Note_on_c, 0, 59, 71
2, 1370112, Control_c, 0, 64, 104
2, 1370120, Control_c, 0, 64, 127
2, 1370144, Note_on_c, 0, 62, 0
2, 1370144, Note_on_c, 0, 65, 0
2, 1370156, Note_on_c, 0, 59, 0
2, 1370200, Control_c, 0, 64, 88
2, 1370208, Control_c, 0, 64, 0
2, 1370212, Note_on_c, 0, 51, 82
2, 1370228, Note_on_c, 0, 89, 0
2, 1370228, Control_c, 0, 64, 40
2, 1370240, Note_on_c, 0, 77, 0
2, 1370240, Control_c, 0, 64, 88
2, 1370248, Control_c, 0, 64, 127
2, 1370252, Note_on_c, 0, 51, 0
2, 1370324, Control_c, 0, 64, 88
2, 1370336, Note_on_c, 0, 87, 103
2, 1370336, Note_on_c, 0, 75, 92
2, 1370336, Control_c, 0, 64, 56
2, 1370344, Note_on_c, 0, 67, 81
2, 1370344, Note_on_c, 0, 58, 68
2, 1370344, Control_c, 0, 64, 72
2, 1370348, Note_on_c, 0, 61, 63
2, 1370352, Control_c, 0, 64, 104
2, 1370364, Note_on_c, 0, 61, 0
2, 1370364, Control_c, 0, 64, 127
2, 1370380, Note_on_c, 0, 67, 0
2, 1370400, Note_on_c, 0, 58, 0
2, 1370400, Note_on_c, 0, 75, 0
2, 1370432, Note_on_c, 0, 87, 0
2, 1370440, Control_c, 0, 64, 72
2, 1370452, Control_c, 0, 64, 0
2, 1370464, Note_on_c, 0, 51, 78
2, 1370480, Control_c, 0, 64, 40
2, 1370488, Control_c, 0, 64, 104
2, 1370500, Control_c, 0, 64, 127
2, 1370528, Note_on_c, 0, 51, 0
2, 1370572, Note_on_c, 0, 92, 96
2, 1370576, Note_on_c, 0, 80, 85
2, 1370580, Note_on_c, 0, 60, 69
2, 1370580, Note_on_c, 0, 63, 66
2, 1370644, Note_on_c, 0, 63, 0
2, 1370648, Note_on_c, 0, 60, 0
2, 1370664, Note_on_c, 0, 92, 0
2, 1370676, Note_on_c, 0, 80, 0
2, 1370680, Note_on_c, 0, 51, 77
2, 1370724, Note_on_c, 0, 51, 0
2, 1370788, Control_c, 0, 64, 88
2, 1370800, Control_c, 0, 64, 40
2, 1370804, Note_on_c, 0, 89, 94
2, 1370808, Note_on_c, 0, 77, 86
2, 1370808, Control_c, 0, 64, 0
2, 1370812, Note_on_c, 0, 62, 65
2, 1370812, Note_on_c, 0, 65, 71
2, 1370816, Note_on_c, 0, 59, 67
2, 1370820, Control_c, 0, 64, 24
2, 1370828, Control_c, 0, 64, 72
2, 1370836, Note_on_c, 0, 62, 0
2, 1370840, Control_c, 0, 64, 104
2, 1370848, Control_c, 0, 64, 127
2, 1370852, Note_on_c, 0, 59, 0
2, 1370856, Note_on_c, 0, 65, 0
2, 1370888, Note_on_c, 0, 89, 0
2, 1370896, Note_on_c, 0, 77, 0
2, 1370916, Note_on_c, 0, 51, 77
2, 1370956, Note_on_c, 0, 51, 0
2, 1371040, Note_on_c, 0, 67, 74
2, 1371040, Note_on_c, 0, 87, 93
2, 1371040, Note_on_c, 0, 58, 66
2, 1371044, Note_on_c, 0, 75, 88
2, 1371044, Note_on_c, 0, 61, 60
2, 1371072, Note_on_c, 0, 67, 0
2, 1371084, Note_on_c, 0, 58, 0
2, 1371092, Note_on_c, 0, 61, 0
2, 1371128, Note_on_c, 0, 87, 0
2, 1371136, Note_on_c, 0, 75, 0
2, 1371148, Control_c, 0, 64, 56
2, 1371156, Note_on_c, 0, 44, 81
2, 1371160, Control_c, 0, 64, 0
2, 1371188, Control_c, 0, 64, 72
2, 1371196, Note_on_c, 0, 44, 0
2, 1371196, Control_c, 0, 64, 127
2, 1371276, Note_on_c, 0, 84, 90
2, 1371288, Note_on_c, 0, 72, 71
2, 1371288, Note_on_c, 0, 56, 59
2, 1371304, Note_on_c, 0, 60, 48
2, 1371336, Note_on_c, 0, 56, 0
2, 1371344, Note_on_c, 0, 84, 0
2, 1371348, Note_on_c, 0, 72, 0
2, 1371356, Note_on_c, 0, 60, 0
2, 1371392, Note_on_c, 0, 53, 82
2, 1371408, Control_c, 0, 64, 56
2, 1371420, Control_c, 0, 64, 0
2, 1371440, Control_c, 0, 64, 24
2, 1371448, Control_c, 0, 64, 72
2, 1371456, Control_c, 0, 64, 127
2, 1371500, Note_on_c, 0, 53, 0
2, 1371508, Note_on_c, 0, 80, 87
2, 1371512, Note_on_c, 0, 68, 78
2, 1371512, Note_on_c, 0, 56, 68
2, 1371524, Note_on_c, 0, 60, 64
2, 1371580, Note_on_c, 0, 68, 0
2, 1371580, Note_on_c, 0, 80, 0
2, 1371584, Note_on_c, 0, 60, 0
2, 1371608, Note_on_c, 0, 56, 0
2, 1371628, Note_on_c, 0, 51, 88
2, 1371632, Control_c, 0, 64, 88
2, 1371644, Control_c, 0, 64, 0
2, 1371692, Control_c, 0, 64, 24
2, 1371700, Control_c, 0, 64, 88
2, 1371708, Control_c, 0, 64, 127
2, 1371744, Note_on_c, 0, 51, 0
2, 1371748, Note_on_c, 0, 77, 90
2, 1371756, Note_on_c, 0, 65, 74
2, 1371760, Note_on_c, 0, 56, 67
2, 1371760, Note_on_c, 0, 60, 68
2, 1371796, Note_on_c, 0, 65, 0
2, 1371812, Note_on_c, 0, 77, 0
2, 1371824, Note_on_c, 0, 60, 0
2, 1371844, Note_on_c, 0, 56, 0
2, 1371860, Note_on_c, 0, 48, 93
2, 1371864, Control_c, 0, 64, 88
2, 1371872, Control_c, 0, 64, 0
2, 1371912, Control_c, 0, 64, 24
2, 1371924, Control_c, 0, 64, 72
2, 1371932, Control_c, 0, 64, 127
2, 1371976, Note_on_c, 0, 48, 0
2, 1371976, Note_on_c, 0, 75, 85
2, 1371976, Note_on_c, 0, 56, 65
2, 1371980, Note_on_c, 0, 63, 78
2, 1371984, Note_on_c, 0, 60, 58
2, 1372012, Note_on_c, 0, 56, 0
2, 1372024, Note_on_c, 0, 60, 0
2, 1372032, Note_on_c, 0, 63, 0
2, 1372040, Note_on_c, 0, 75, 0
2, 1372096, Control_c, 0, 64, 56
2, 1372100, Note_on_c, 0, 44, 76
2, 1372108, Control_c, 0, 64, 0
2, 1372124, Control_c, 0, 64, 40
2, 1372136, Control_c, 0, 64, 88
2, 1372144, Control_c, 0, 64, 127
2, 1372204, Note_on_c, 0, 72, 93
2, 1372204, Note_on_c, 0, 56, 70
2, 1372208, Note_on_c, 0, 60, 82
2, 1372228, Note_on_c, 0, 44, 0
2, 1372244, Note_on_c, 0, 60, 0
2, 1372256, Note_on_c, 0, 56, 0
2, 1372256, Note_on_c, 0, 72, 0
2, 1372308, Note_on_c, 0, 41, 82
2, 1372340, Control_c, 0, 64, 40
2, 1372348, Control_c, 0, 64, 0
2, 1372376, Control_c, 0, 64, 56
2, 1372388, Control_c, 0, 64, 127
2, 1372420, Note_on_c, 0, 68, 86
2, 1372424, Note_on_c, 0, 56, 84
2, 1372428, Note_on_c, 0, 53, 67
2, 1372440, Note_on_c, 0, 41, 0
2, 1372452, Note_on_c, 0, 53, 0
2, 1372480, Note_on_c, 0, 56, 0
2, 1372484, Note_on_c, 0, 68, 0
2, 1372544, Note_on_c, 0, 39, 85
2, 1372560, Control_c, 0, 64, 24
2, 1372572, Control_c, 0, 64, 0
2, 1372600, Control_c, 0, 64, 72
2, 1372612, Control_c, 0, 64, 127
2, 1372660, Note_on_c, 0, 39, 0
2, 1372660, Note_on_c, 0, 65, 89
2, 1372664, Note_on_c, 0, 53, 85
2, 1372708, Note_on_c, 0, 53, 0
2, 1372728, Note_on_c, 0, 65, 0
2, 1372772, Note_on_c, 0, 36, 80
2, 1372784, Control_c, 0, 64, 88
2, 1372792, Control_c, 0, 64, 24
2, 1372804, Control_c, 0, 64, 0
2, 1372812, Control_c, 0, 64, 40
2, 1372824, Control_c, 0, 64, 104
2, 1372832, Control_c, 0, 64, 127
2, 1372880, Note_on_c, 0, 36, 0
2, 1372880, Note_on_c, 0, 48, 79
2, 1372880, Note_on_c, 0, 63, 85
2, 1372884, Note_on_c, 0, 51, 91
2, 1372916, Note_on_c, 0, 48, 0
2, 1372936, Note_on_c, 0, 51, 0
2, 1372948, Note_on_c, 0, 63, 0
2, 1372996, Control_c, 0, 64, 88
2, 1373008, Note_on_c, 0, 32, 79
2, 1373008, Control_c, 0, 64, 0
2, 1373036, Control_c, 0, 64, 56
2, 1373044, Control_c, 0, 64, 127
2, 1373116, Note_on_c, 0, 48, 99
2, 1373120, Note_on_c, 0, 60, 93
2, 1373124, Note_on_c, 0, 44, 67
2, 1373184, Note_on_c, 0, 44, 0
2, 1373216, Note_on_c, 0, 60, 0
2, 1373260, Control_c, 0, 64, 104
2, 1373264, Note_on_c, 0, 56, 100
2, 1373268, Control_c, 0, 64, 0
2, 1373276, Note_on_c, 0, 44, 82
2, 1373384, Control_c, 0, 64, 72
2, 1373396, Control_c, 0, 64, 127
2, 1373436, Note_on_c, 0, 48, 0
2, 1373472, Note_on_c, 0, 32, 0
2, 1373476, Note_on_c, 0, 56, 0
2, 1373476, Note_on_c, 0, 44, 0
2, 1373796, Note_on_c, 0, 68, 97
2, 1373796, Note_on_c, 0, 44, 77
2, 1373800, Control_c, 0, 64, 40
2, 1373804, Note_on_c, 0, 60, 85
2, 1373804, Note_on_c, 0, 51, 91
2, 1373812, Control_c, 0, 64, 0
2, 1373852, Note_on_c, 0, 60, 0
2, 1373868, Control_c, 0, 64, 88
2, 1373872, Note_on_c, 0, 51, 0
2, 1373880, Control_c, 0, 64, 127
2, 1373888, Note_on_c, 0, 44, 0
2, 1373912, Note_on_c, 0, 68, 0
2, 1374316, Note_on_c, 0, 80, 100
2, 1374320, Note_on_c, 0, 56, 75
2, 1374324, Note_on_c, 0, 63, 84
2, 1374324, Note_on_c, 0, 72, 80
2, 1374324, Control_c, 0, 64, 72
2, 1374332, Control_c, 0, 64, 0
2, 1374364, Note_on_c, 0, 72, 0
2, 1374368, Note_on_c, 0, 63, 0
2, 1374372, Control_c, 0, 64, 40
2, 1374380, Control_c, 0, 64, 127
2, 1374384, Note_on_c, 0, 56, 0
2, 1374412, Note_on_c, 0, 80, 0
2, 1374820, Note_on_c, 0, 68, 98
2, 1374828, Control_c, 0, 64, 72
2, 1374832, Note_on_c, 0, 60, 82
2, 1374832, Note_on_c, 0, 44, 79
2, 1374832, Note_on_c, 0, 51, 86
2, 1374836, Control_c, 0, 64, 0
2, 1374864, Note_on_c, 0, 60, 0
2, 1374868, Note_on_c, 0, 51, 0
2, 1374884, Control_c, 0, 64, 88
2, 1374892, Note_on_c, 0, 44, 0
2, 1374896, Control_c, 0, 64, 127
2, 1374920, Note_on_c, 0, 68, 0
2, 1375360, Note_on_c, 0, 80, 102
2, 1375360, Note_on_c, 0, 32, 84
2, 1375360, Note_on_c, 0, 39, 89
2, 1375360, Control_c, 0, 64, 104
2, 1375368, Note_on_c, 0, 72, 88
2, 1375368, Control_c, 0, 64, 0
2, 1375404, Note_on_c, 0, 39, 0
2, 1375408, Note_on_c, 0, 72, 0
2, 1375416, Control_c, 0, 64, 40
2, 1375428, Note_on_c, 0, 32, 0
2, 1375428, Control_c, 0, 64, 127
2, 1375452, Note_on_c, 0, 80, 0
2, 1375852, Control_c, 0, 64, 88
2, 1375856, Note_on_c, 0, 68, 98
2, 1375860, Note_on_c, 0, 44, 77
2, 1375864, Note_on_c, 0, 60, 84
2, 1375864, Note_on_c, 0, 51, 91
2, 1375864, Control_c, 0, 64, 0
2, 1375904, Note_on_c, 0, 60, 0
2, 1375912, Note_on_c, 0, 51, 0
2, 1375912, Control_c, 0, 64, 40
2, 1375920, Control_c, 0, 64, 127
2, 1375928, Note_on_c, 0, 44, 0
2, 1375952, Note_on_c, 0, 68, 0
2, 1376348, Control_c, 0, 64, 88
2, 1376356, Note_on_c, 0, 80, 102
2, 1376356, Control_c, 0, 64, 0
2, 1376360, Note_on_c, 0, 63, 87
2, 1376364, Note_on_c, 0, 72, 85
2, 1376364, Note_on_c, 0, 56, 77
2, 1376396, Control_c, 0, 64, 72
2, 1376404, Control_c, 0, 64, 127
2, 1376408, Note_on_c, 0, 63, 0
2, 1376412, Note_on_c, 0, 72, 0
2, 1376428, Note_on_c, 0, 56, 0
2, 1376440, Note_on_c, 0, 80, 0
2, 1376868, Control_c, 0, 64, 72
2, 1376876, Note_on_c, 0, 68, 99
2, 1376880, Control_c, 0, 64, 0
2, 1376884, Note_on_c, 0, 51, 95
2, 1376884, Note_on_c, 0, 44, 85
2, 1376884, Note_on_c, 0, 60, 82
2, 1376920, Note_on_c, 0, 60, 0
2, 1376924, Note_on_c, 0, 51, 0
2, 1376928, Control_c, 0, 64, 40
2, 1376936, Control_c, 0, 64, 127
2, 1376940, Note_on_c, 0, 44, 0
2, 1376964, Note_on_c, 0, 68, 0
2, 1377408, Note_on_c, 0, 80, 103
2, 1377408, Control_c, 0, 64, 72
2, 1377412, Note_on_c, 0, 39, 87
2, 1377412, Note_on_c, 0, 32, 80
2, 1377420, Note_on_c, 0, 72, 85
2, 1377420, Control_c, 0, 64, 0
2, 1377468, Note_on_c, 0, 72, 0
2, 1377468, Note_on_c, 0, 39, 0
2, 1377468, Control_c, 0, 64, 56
2, 1377480, Control_c, 0, 64, 127
2, 1377484, Note_on_c, 0, 32, 0
2, 1377504, Note_on_c, 0, 80, 0
2, 1378396, Control_c, 0, 64, 72
2, 1378404, Note_on_c, 0, 68, 99
2, 1378408, Note_on_c, 0, 56, 85
2, 1378408, Control_c, 0, 64, 0
2, 1378412, Note_on_c, 0, 63, 90
2, 1378416, Note_on_c, 0, 60, 86
2, 1378456, Control_c, 0, 64, 56
2, 1378460, Note_on_c, 0, 60, 0
2, 1378460, Note_on_c, 0, 63, 0
2, 1378468, Control_c, 0, 64, 127
2, 1378472, Note_on_c, 0, 56, 0
2, 1378500, Note_on_c, 0, 68, 0
2, 1379328, Control_c, 0, 64, 104
2, 1379336, Control_c, 0, 64, 0
2, 1379344, Note_on_c, 0, 80, 103
2, 1379348, Note_on_c, 0, 44, 82
2, 1379348, Note_on_c, 0, 51, 99
2, 1379352, Note_on_c, 0, 72, 84
2, 1379388, Note_on_c, 0, 51, 0
2, 1379392, Note_on_c, 0, 72, 0
2, 1379396, Control_c, 0, 64, 127
2, 1379408, Note_on_c, 0, 44, 0
2, 1379432, Note_on_c, 0, 80, 0
2, 1380288, Note_on_c, 0, 68, 99
2, 1380292, Note_on_c, 0, 56, 78
2, 1380292, Note_on_c, 0, 63, 85
2, 1380296, Control_c, 0, 64, 56
2, 1380300, Note_on_c, 0, 60, 83
2, 1380304, Control_c, 0, 64, 0
2, 1380356, Note_on_c, 0, 60, 0
2, 1380364, Control_c, 0, 64, 88
2, 1380372, Note_on_c, 0, 63, 0
2, 1380372, Control_c, 0, 64, 127
2, 1380376, Note_on_c, 0, 56, 0
2, 1380400, Note_on_c, 0, 68, 0
2, 1380960, Note_on_c, 0, 32, 96
2, 1380964, Control_c, 0, 64, 0
2, 1381020, Control_c, 0, 64, 127
2, 1381076, Note_on_c, 0, 39, 99
2, 1381100, Note_on_c, 0, 32, 0
2, 1381116, Note_on_c, 0, 39, 0
2, 1381340, Note_on_c, 0, 92, 117
2, 1381340, Note_on_c, 0, 84, 93
2, 1381348, Note_on_c, 0, 72, 82
2, 1381348, Note_on_c, 0, 80, 71
2, 1381372, Note_on_c, 0, 92, 0
2, 1381536, Note_on_c, 0, 72, 0
2, 1381540, Note_on_c, 0, 84, 0
2, 1381544, Note_on_c, 0, 80, 0
2, 1382056, Control_c, 0, 64, 72
2, 1382068, Control_c, 0, 64, 0
2, 1382068, End_track
3, 0, Start_track
3, 0, MIDI_port, 0
3, 0, End_track
0, 0, End_of_file
