0, 0, Header, 1, 2, 240
1, 0, Start_track
1, 0, Title_t, "SCHUMANN  FANTASIE  C Dur  Op.17  3rd mov.       \211\211\221t\201@\217¬\214I\215\216\227T"
1, 0, Text_t, "CVS Ver5.05 Created\012"
1, 0, Text_t, "\203V\203\205\201[\203}\203\223\201@\201u\214¶\221z\213È\201vC Dur\012"
1, 0, Text_t, "Op.17   \221æ\202R\212y\217Í\012"
1, 0, Text_t, "(10'00"")\012"
1, 0, Text_t, "\211\211\221t\201@\201@\217¬\214I\215\216\227T\012"
1, 0, Text_t, "1996  5/2\012"
1, 0, Text_t, "<RESET>\012"
1, 0, Text_t, "<Master Volume>\012"
1, 0, System_exclusive, 10, 65, 16, 66, 18, 64, 0, 127, 0, 65, 247
1, 1, System_exclusive, 10, 65, 16, 66, 18, 64, 0, 4, 100, 88, 247
1, 2, System_exclusive, 10, 65, 16, 66, 18, 64, 1, 48, 3, 12, 247
1, 2, System_exclusive, 10, 65, 16, 66, 18, 64, 1, 51, 60, 80, 247
1, 2, System_exclusive, 10, 65, 16, 66, 18, 64, 1, 52, 60, 79, 247
1, 2, Time_signature, 4, 2, 24, 8
1, 2, Key_signature, 0, "major"
1, 2, Tempo, 500000
1, 2, End_track
2, 0, Start_track
2, 0, Title_t, "Schumann"
2, 96, Text_t, "<Master Reverve>"
2, 240, Control_c, 0, 0, 0
2, 240, Control_c, 0, 32, 1
2, 241, Program_c, 0, 0
2, 241, Control_c, 0, 7, 110
2, 241, Control_c, 0, 10, 64
2, 241, Control_c, 0, 91, 90
2, 486, Control_c, 0, 11, 127
2, 678, Control_c, 0, 1, 0
2, 678, Text_t, "<part reverve>"
2, 727, Control_c, 0, 99, 1
2, 728, Control_c, 0, 98, 32
2, 729, Control_c, 0, 6, 62
2, 730, Control_c, 0, 38, 0
2, 733, Control_c, 0, 99, 1
2, 734, Control_c, 0, 98, 33
2, 735, Control_c, 0, 6, 54
2, 736, Control_c, 0, 38, 0
2, 739, Control_c, 0, 99, 1
2, 740, Control_c, 0, 98, 99
2, 741, Control_c, 0, 6, 62
2, 742, Control_c, 0, 38, 0
2, 745, Control_c, 0, 99, 1
2, 746, Control_c, 0, 98, 100
2, 747, Control_c, 0, 6, 60
2, 748, Control_c, 0, 38, 0
2, 751, Control_c, 0, 99, 1
2, 752, Control_c, 0, 98, 102
2, 753, Control_c, 0, 6, 70
2, 754, Control_c, 0, 38, 0
2, 1139, Control_c, 0, 67, 127
2, 1682, Control_c, 0, 64, 63
2, 1704, Control_c, 0, 64, 127
2, 2258, Note_on_c, 0, 52, 32
2, 2269, Note_on_c, 0, 43, 35
2, 2276, Note_on_c, 0, 36, 22
2, 2572, Note_on_c, 0, 55, 32
2, 2573, Note_on_c, 0, 36, 0
2, 2578, Note_on_c, 0, 48, 17
2, 2583, Note_on_c, 0, 52, 0
2, 2607, Note_on_c, 0, 43, 0
2, 2796, Note_on_c, 0, 52, 42
2, 2798, Note_on_c, 0, 55, 0
2, 2801, Note_on_c, 0, 60, 45
2, 2810, Note_on_c, 0, 48, 0
2, 2988, Note_on_c, 0, 64, 51
2, 2995, Note_on_c, 0, 55, 43
2, 3001, Note_on_c, 0, 60, 0
2, 3003, Note_on_c, 0, 52, 0
2, 3163, Note_on_c, 0, 60, 51
2, 3164, Note_on_c, 0, 52, 38
2, 3168, Note_on_c, 0, 64, 0
2, 3174, Note_on_c, 0, 55, 0
2, 3317, Note_on_c, 0, 55, 32
2, 3320, Note_on_c, 0, 52, 0
2, 3324, Note_on_c, 0, 48, 34
2, 3348, Note_on_c, 0, 60, 0
2, 3480, Note_on_c, 0, 43, 50
2, 3481, Note_on_c, 0, 52, 39
2, 3492, Note_on_c, 0, 55, 0
2, 3507, Note_on_c, 0, 48, 0
2, 3646, Note_on_c, 0, 43, 0
2, 3647, Note_on_c, 0, 55, 39
2, 3650, Note_on_c, 0, 48, 28
2, 3653, Note_on_c, 0, 52, 0
2, 3791, Note_on_c, 0, 52, 36
2, 3803, Note_on_c, 0, 55, 0
2, 3804, Note_on_c, 0, 60, 45
2, 3943, Note_on_c, 0, 48, 0
2, 3953, Note_on_c, 0, 64, 42
2, 3953, Note_on_c, 0, 55, 37
2, 3966, Note_on_c, 0, 60, 0
2, 3976, Note_on_c, 0, 52, 0
2, 4120, Note_on_c, 0, 64, 0
2, 4121, Note_on_c, 0, 60, 44
2, 4125, Note_on_c, 0, 52, 32
2, 4141, Note_on_c, 0, 55, 0
2, 4292, Note_on_c, 0, 55, 31
2, 4298, Note_on_c, 0, 48, 40
2, 4305, Note_on_c, 0, 60, 0
2, 4316, Note_on_c, 0, 52, 0
2, 4351, Note_on_c, 0, 48, 0
2, 4500, Note_on_c, 0, 52, 51
2, 4500, Note_on_c, 0, 33, 57
2, 4503, Note_on_c, 0, 55, 0
2, 4506, Note_on_c, 0, 45, 52
2, 4517, Control_c, 0, 64, 63
2, 4522, Control_c, 0, 64, 0
2, 4561, Control_c, 0, 64, 63
2, 4568, Control_c, 0, 64, 127
2, 4605, Note_on_c, 0, 33, 0
2, 4710, Note_on_c, 0, 52, 0
2, 4720, Note_on_c, 0, 45, 0
2, 4721, Note_on_c, 0, 57, 41
2, 4723, Note_on_c, 0, 49, 65
2, 4893, Note_on_c, 0, 61, 50
2, 4897, Note_on_c, 0, 52, 47
2, 4900, Note_on_c, 0, 57, 0
2, 5039, Note_on_c, 0, 57, 57
2, 5041, Note_on_c, 0, 64, 59
2, 5048, Note_on_c, 0, 61, 0
2, 5051, Note_on_c, 0, 52, 0
2, 5061, Note_on_c, 0, 49, 0
2, 5183, Note_on_c, 0, 61, 50
2, 5193, Note_on_c, 0, 52, 42
2, 5204, Note_on_c, 0, 57, 0
2, 5214, Note_on_c, 0, 64, 0
2, 5325, Note_on_c, 0, 49, 62
2, 5326, Note_on_c, 0, 57, 46
2, 5336, Note_on_c, 0, 52, 0
2, 5339, Note_on_c, 0, 61, 0
2, 5461, Note_on_c, 0, 49, 0
2, 5474, Note_on_c, 0, 52, 50
2, 5479, Note_on_c, 0, 45, 38
2, 5481, Note_on_c, 0, 57, 0
2, 5619, Note_on_c, 0, 49, 60
2, 5630, Note_on_c, 0, 57, 42
2, 5631, Note_on_c, 0, 52, 0
2, 5650, Note_on_c, 0, 45, 0
2, 5767, Note_on_c, 0, 61, 64
2, 5773, Note_on_c, 0, 49, 0
2, 5775, Note_on_c, 0, 52, 31
2, 5786, Note_on_c, 0, 57, 0
2, 5910, Note_on_c, 0, 57, 38
2, 5916, Note_on_c, 0, 64, 43
2, 5919, Note_on_c, 0, 61, 0
2, 5923, Note_on_c, 0, 52, 0
2, 6063, Note_on_c, 0, 57, 0
2, 6069, Note_on_c, 0, 61, 57
2, 6072, Note_on_c, 0, 52, 34
2, 6096, Note_on_c, 0, 64, 0
2, 6229, Note_on_c, 0, 61, 0
2, 6229, Note_on_c, 0, 49, 51
2, 6233, Note_on_c, 0, 57, 34
2, 6243, Note_on_c, 0, 52, 0
2, 6291, Note_on_c, 0, 49, 0
2, 6380, Note_on_c, 0, 57, 0
2, 6421, Note_on_c, 0, 57, 49
2, 6436, Note_on_c, 0, 48, 48
2, 6443, Note_on_c, 0, 41, 36
2, 6453, Control_c, 0, 64, 63
2, 6457, Control_c, 0, 64, 0
2, 6520, Control_c, 0, 64, 63
2, 6525, Control_c, 0, 64, 127
2, 6606, Note_on_c, 0, 41, 0
2, 6627, Note_on_c, 0, 60, 42
2, 6629, Note_on_c, 0, 53, 34
2, 6642, Note_on_c, 0, 48, 0
2, 6666, Note_on_c, 0, 57, 0
2, 6775, Note_on_c, 0, 53, 0
2, 6784, Note_on_c, 0, 57, 46
2, 6788, Note_on_c, 0, 60, 0
2, 6789, Note_on_c, 0, 65, 55
2, 6936, Note_on_c, 0, 69, 46
2, 6949, Note_on_c, 0, 60, 38
2, 6951, Note_on_c, 0, 57, 0
2, 6958, Note_on_c, 0, 65, 0
2, 7086, Note_on_c, 0, 65, 47
2, 7094, Note_on_c, 0, 57, 39
2, 7096, Note_on_c, 0, 60, 0
2, 7111, Note_on_c, 0, 69, 0
2, 7234, Note_on_c, 0, 60, 49
2, 7240, Note_on_c, 0, 57, 0
2, 7240, Note_on_c, 0, 53, 42
2, 7256, Note_on_c, 0, 65, 0
2, 7373, Note_on_c, 0, 48, 36
2, 7375, Note_on_c, 0, 60, 0
2, 7375, Note_on_c, 0, 57, 41
2, 7378, Note_on_c, 0, 53, 0
2, 7528, Note_on_c, 0, 60, 51
2, 7529, Note_on_c, 0, 57, 0
2, 7537, Note_on_c, 0, 53, 33
2, 7553, Note_on_c, 0, 48, 0
2, 7658, Note_on_c, 0, 57, 34
2, 7661, Note_on_c, 0, 60, 0
2, 7667, Note_on_c, 0, 65, 57
2, 7771, Note_on_c, 0, 53, 0
2, 7800, Note_on_c, 0, 69, 49
2, 7817, Note_on_c, 0, 60, 27
2, 7823, Note_on_c, 0, 57, 0
2, 7827, Note_on_c, 0, 65, 0
2, 7958, Note_on_c, 0, 60, 0
2, 7960, Note_on_c, 0, 57, 30
2, 7961, Note_on_c, 0, 65, 48
2, 7963, Note_on_c, 0, 69, 0
2, 8121, Note_on_c, 0, 60, 37
2, 8126, Note_on_c, 0, 53, 34
2, 8130, Note_on_c, 0, 65, 0
2, 8133, Note_on_c, 0, 57, 0
2, 8190, Note_on_c, 0, 53, 0
2, 8298, Note_on_c, 0, 57, 38
2, 8307, Note_on_c, 0, 41, 54
2, 8309, Note_on_c, 0, 60, 0
2, 8344, Control_c, 0, 64, 63
2, 8366, Control_c, 0, 64, 127
2, 8413, Note_on_c, 0, 41, 0
2, 8506, Note_on_c, 0, 53, 42
2, 8510, Note_on_c, 0, 60, 47
2, 8512, Note_on_c, 0, 57, 0
2, 8680, Note_on_c, 0, 62, 54
2, 8683, Note_on_c, 0, 60, 0
2, 8686, Note_on_c, 0, 57, 32
2, 8790, Note_on_c, 0, 53, 0
2, 8862, Note_on_c, 0, 62, 0
2, 8874, Note_on_c, 0, 69, 77
2, 8883, Note_on_c, 0, 60, 29
2, 8896, Note_on_c, 0, 57, 0
2, 9076, Note_on_c, 0, 60, 0
2, 9077, Note_on_c, 0, 57, 33
2, 9080, Note_on_c, 0, 62, 48
2, 9258, Note_on_c, 0, 57, 0
2, 9258, Note_on_c, 0, 60, 42
2, 9263, Note_on_c, 0, 53, 35
2, 9305, Note_on_c, 0, 62, 0
2, 9306, Note_on_c, 0, 53, 0
2, 9469, Note_on_c, 0, 43, 49
2, 9470, Note_on_c, 0, 60, 0
2, 9486, Note_on_c, 0, 55, 30
2, 9650, Control_c, 0, 64, 63
2, 9665, Control_c, 0, 64, 0
2, 9668, Note_on_c, 0, 59, 74
2, 9685, Control_c, 0, 64, 63
2, 9696, Note_on_c, 0, 50, 35
2, 9703, Control_c, 0, 64, 127
2, 9860, Note_on_c, 0, 62, 72
2, 9871, Note_on_c, 0, 53, 47
2, 9881, Note_on_c, 0, 55, 0
2, 9882, Note_on_c, 0, 43, 0
2, 9898, Note_on_c, 0, 50, 0
2, 9972, Note_on_c, 0, 69, 0
2, 10006, Note_on_c, 0, 59, 0
2, 10084, Note_on_c, 0, 67, 76
2, 10098, Note_on_c, 0, 59, 41
2, 10107, Note_on_c, 0, 62, 0
2, 10160, Note_on_c, 0, 53, 0
2, 10331, Note_on_c, 0, 53, 35
2, 10331, Note_on_c, 0, 62, 55
2, 10386, Note_on_c, 0, 59, 0
2, 10643, Note_on_c, 0, 59, 40
2, 10655, Note_on_c, 0, 50, 25
2, 10694, Note_on_c, 0, 67, 0
2, 10749, Note_on_c, 0, 62, 0
2, 10752, Note_on_c, 0, 53, 0
2, 10789, Note_on_c, 0, 50, 0
2, 10814, Note_on_c, 0, 59, 0
2, 11110, Note_on_c, 0, 52, 76
2, 11111, Note_on_c, 0, 48, 26
2, 11122, Note_on_c, 0, 36, 17
2, 11187, Control_c, 0, 64, 63
2, 11202, Control_c, 0, 64, 0
2, 11255, Control_c, 0, 64, 63
2, 11263, Control_c, 0, 64, 127
2, 11340, Control_c, 0, 67, 0
2, 11367, Note_on_c, 0, 64, 27
2, 11550, Note_on_c, 0, 60, 45
2, 11564, Note_on_c, 0, 48, 0
2, 11618, Note_on_c, 0, 52, 0
2, 11721, Note_on_c, 0, 60, 0
2, 11724, Note_on_c, 0, 64, 0
2, 11727, Note_on_c, 0, 47, 49
2, 11729, Note_on_c, 0, 35, 49
2, 11736, Note_on_c, 0, 55, 83
2, 11792, Note_on_c, 0, 36, 0
2, 11853, Control_c, 0, 64, 63
2, 11915, Control_c, 0, 64, 127
2, 11919, Note_on_c, 0, 67, 55
2, 12069, Note_on_c, 0, 62, 68
2, 12092, Note_on_c, 0, 55, 0
2, 12106, Note_on_c, 0, 47, 0
2, 12212, Note_on_c, 0, 62, 0
2, 12217, Note_on_c, 0, 67, 0
2, 12220, Note_on_c, 0, 45, 47
2, 12221, Note_on_c, 0, 60, 96
2, 12221, Note_on_c, 0, 33, 56
2, 12321, Note_on_c, 0, 35, 0
2, 12330, Control_c, 0, 64, 63
2, 12356, Control_c, 0, 64, 0
2, 12396, Control_c, 0, 64, 63
2, 12396, Note_on_c, 0, 72, 65
2, 12413, Control_c, 0, 64, 127
2, 12526, Note_on_c, 0, 64, 64
2, 12544, Note_on_c, 0, 72, 0
2, 12683, Note_on_c, 0, 71, 65
2, 12755, Note_on_c, 0, 45, 0
2, 12793, Note_on_c, 0, 60, 0
2, 12876, Note_on_c, 0, 59, 91
2, 12891, Note_on_c, 0, 64, 0
2, 12951, Note_on_c, 0, 43, 44
2, 12958, Note_on_c, 0, 31, 45
2, 12993, Note_on_c, 0, 33, 0
2, 13069, Note_on_c, 0, 64, 47
2, 13121, Note_on_c, 0, 71, 0
2, 13157, Note_on_c, 0, 43, 0
2, 13197, Note_on_c, 0, 59, 0
2, 13277, Note_on_c, 0, 57, 83
2, 13284, Note_on_c, 0, 41, 44
2, 13288, Note_on_c, 0, 29, 45
2, 13326, Note_on_c, 0, 64, 0
2, 13328, Note_on_c, 0, 31, 0
2, 13374, Control_c, 0, 64, 63
2, 13385, Control_c, 0, 64, 0
2, 13444, Control_c, 0, 64, 63
2, 13458, Control_c, 0, 64, 127
2, 13477, Note_on_c, 0, 69, 48
2, 13623, Note_on_c, 0, 64, 49
2, 13694, Note_on_c, 0, 57, 0
2, 13752, Note_on_c, 0, 69, 0
2, 13761, Note_on_c, 0, 59, 78
2, 13790, Note_on_c, 0, 64, 0
2, 13913, Control_c, 0, 64, 63
2, 13932, Note_on_c, 0, 71, 41
2, 13949, Control_c, 0, 64, 127
2, 14093, Note_on_c, 0, 41, 0
2, 14096, Note_on_c, 0, 63, 55
2, 14145, Note_on_c, 0, 71, 0
2, 14198, Note_on_c, 0, 59, 0
2, 14278, Note_on_c, 0, 57, 65
2, 14288, Note_on_c, 0, 40, 37
2, 14307, Note_on_c, 0, 28, 50
2, 14321, Note_on_c, 0, 63, 0
2, 14356, Note_on_c, 0, 29, 0
2, 14360, Control_c, 0, 64, 63
2, 14374, Control_c, 0, 64, 0
2, 14411, Control_c, 0, 64, 63
2, 14430, Note_on_c, 0, 69, 60
2, 14431, Control_c, 0, 64, 127
2, 14593, Note_on_c, 0, 64, 50
2, 14623, Note_on_c, 0, 69, 0
2, 14663, Note_on_c, 0, 57, 0
2, 14769, Note_on_c, 0, 56, 72
2, 14858, Control_c, 0, 64, 63
2, 14872, Control_c, 0, 64, 0
2, 14898, Control_c, 0, 64, 63
2, 14917, Control_c, 0, 64, 127
2, 14943, Note_on_c, 0, 68, 61
2, 14958, Note_on_c, 0, 64, 0
2, 15113, Note_on_c, 0, 28, 0
2, 15148, Note_on_c, 0, 64, 40
2, 15173, Note_on_c, 0, 68, 0
2, 15176, Note_on_c, 0, 40, 0
2, 15255, Note_on_c, 0, 64, 0
2, 15311, Note_on_c, 0, 56, 0
2, 15416, Note_on_c, 0, 53, 79
2, 15420, Note_on_c, 0, 50, 56
2, 15421, Note_on_c, 0, 38, 52
2, 15489, Control_c, 0, 64, 63
2, 15500, Control_c, 0, 64, 0
2, 15558, Control_c, 0, 64, 63
2, 15567, Control_c, 0, 64, 127
2, 15610, Note_on_c, 0, 65, 65
2, 15739, Note_on_c, 0, 38, 0
2, 15755, Note_on_c, 0, 65, 0
2, 15757, Note_on_c, 0, 53, 0
2, 15757, Note_on_c, 0, 58, 69
2, 15785, Note_on_c, 0, 50, 0
2, 15820, Note_on_c, 0, 58, 0
2, 15898, Note_on_c, 0, 58, 76
2, 15902, Note_on_c, 0, 53, 88
2, 15906, Note_on_c, 0, 41, 85
2, 15998, Control_c, 0, 64, 63
2, 16015, Control_c, 0, 64, 0
2, 16046, Control_c, 0, 64, 63
2, 16052, Note_on_c, 0, 70, 83
2, 16057, Control_c, 0, 64, 127
2, 16182, Note_on_c, 0, 41, 0
2, 16216, Note_on_c, 0, 62, 54
2, 16230, Note_on_c, 0, 53, 0
2, 16238, Note_on_c, 0, 58, 0
2, 16295, Note_on_c, 0, 62, 0
2, 16368, Note_on_c, 0, 70, 0
2, 16405, Note_on_c, 0, 46, 87
2, 16407, Note_on_c, 0, 58, 85
2, 16409, Note_on_c, 0, 62, 80
2, 16584, Control_c, 0, 64, 63
2, 16608, Control_c, 0, 64, 0
2, 16619, Note_on_c, 0, 74, 76
2, 16650, Control_c, 0, 64, 63
2, 16662, Control_c, 0, 64, 127
2, 16788, Note_on_c, 0, 65, 42
2, 16858, Note_on_c, 0, 74, 0
2, 16929, Note_on_c, 0, 72, 78
2, 17018, Note_on_c, 0, 62, 0
2, 17128, Note_on_c, 0, 58, 0
2, 17137, Note_on_c, 0, 60, 94
2, 17172, Note_on_c, 0, 65, 0
2, 17185, Note_on_c, 0, 46, 0
2, 17242, Note_on_c, 0, 45, 60
2, 17244, Note_on_c, 0, 57, 61
2, 17327, Note_on_c, 0, 65, 62
2, 17420, Note_on_c, 0, 72, 0
2, 17438, Note_on_c, 0, 57, 0
2, 17449, Note_on_c, 0, 60, 0
2, 17462, Note_on_c, 0, 45, 0
2, 17533, Note_on_c, 0, 59, 79
2, 17535, Note_on_c, 0, 56, 93
2, 17540, Note_on_c, 0, 44, 80
2, 17595, Note_on_c, 0, 65, 0
2, 17644, Control_c, 0, 64, 63
2, 17654, Control_c, 0, 64, 0
2, 17705, Control_c, 0, 64, 63
2, 17713, Control_c, 0, 64, 127
2, 17716, Note_on_c, 0, 71, 77
2, 17828, Note_on_c, 0, 44, 0
2, 17839, Note_on_c, 0, 56, 0
2, 17851, Note_on_c, 0, 65, 65
2, 17861, Note_on_c, 0, 59, 0
2, 17950, Note_on_c, 0, 71, 0
2, 17969, Note_on_c, 0, 59, 91
2, 17971, Note_on_c, 0, 47, 85
2, 17973, Note_on_c, 0, 65, 0
2, 17976, Note_on_c, 0, 62, 79
2, 18044, Control_c, 0, 64, 63
2, 18057, Control_c, 0, 64, 0
2, 18097, Control_c, 0, 64, 63
2, 18111, Control_c, 0, 64, 127
2, 18118, Note_on_c, 0, 74, 91
2, 18223, Note_on_c, 0, 47, 0
2, 18258, Note_on_c, 0, 68, 84
2, 18274, Note_on_c, 0, 62, 0
2, 18295, Note_on_c, 0, 59, 0
2, 18383, Note_on_c, 0, 74, 0
2, 18391, Note_on_c, 0, 65, 96
2, 18396, Note_on_c, 0, 62, 79
2, 18405, Note_on_c, 0, 68, 0
2, 18406, Note_on_c, 0, 50, 71
2, 18452, Control_c, 0, 64, 63
2, 18462, Control_c, 0, 64, 0
2, 18517, Control_c, 0, 64, 63
2, 18525, Control_c, 0, 64, 127
2, 18545, Note_on_c, 0, 77, 84
2, 18702, Note_on_c, 0, 68, 43
2, 18714, Note_on_c, 0, 77, 0
2, 18849, Note_on_c, 0, 76, 81
2, 18891, Note_on_c, 0, 65, 0
2, 18897, Note_on_c, 0, 62, 0
2, 18914, Note_on_c, 0, 50, 0
2, 19026, Note_on_c, 0, 64, 59
2, 19061, Note_on_c, 0, 68, 0
2, 19105, Note_on_c, 0, 60, 65
2, 19111, Note_on_c, 0, 48, 65
2, 19123, Control_c, 0, 64, 63
2, 19133, Control_c, 0, 64, 0
2, 19155, Control_c, 0, 64, 63
2, 19173, Control_c, 0, 64, 127
2, 19208, Note_on_c, 0, 68, 57
2, 19239, Note_on_c, 0, 76, 0
2, 19303, Note_on_c, 0, 60, 0
2, 19309, Note_on_c, 0, 64, 0
2, 19380, Note_on_c, 0, 59, 76
2, 19382, Note_on_c, 0, 47, 81
2, 19385, Note_on_c, 0, 62, 71
2, 19426, Note_on_c, 0, 68, 0
2, 19427, Note_on_c, 0, 48, 0
2, 19432, Control_c, 0, 64, 63
2, 19442, Control_c, 0, 64, 0
2, 19480, Control_c, 0, 64, 63
2, 19490, Control_c, 0, 64, 127
2, 19550, Note_on_c, 0, 74, 84
2, 19593, Note_on_c, 0, 47, 0
2, 19652, Note_on_c, 0, 59, 0
2, 19670, Note_on_c, 0, 62, 0
2, 19674, Note_on_c, 0, 68, 76
2, 19777, Note_on_c, 0, 74, 0
2, 19807, Note_on_c, 0, 62, 98
2, 19809, Note_on_c, 0, 50, 91
2, 19812, Note_on_c, 0, 65, 83
2, 19821, Note_on_c, 0, 68, 0
2, 19856, Control_c, 0, 64, 63
2, 19865, Control_c, 0, 64, 0
2, 19895, Control_c, 0, 64, 63
2, 19905, Control_c, 0, 64, 127
2, 19964, Note_on_c, 0, 77, 93
2, 20004, Note_on_c, 0, 50, 0
2, 20065, Note_on_c, 0, 77, 0
2, 20092, Note_on_c, 0, 62, 0
2, 20121, Note_on_c, 0, 68, 89
2, 20140, Note_on_c, 0, 65, 0
2, 20176, Note_on_c, 0, 68, 0
2, 20300, Note_on_c, 0, 68, 94
2, 20308, Note_on_c, 0, 65, 71
2, 20310, Note_on_c, 0, 53, 57
2, 20313, Note_on_c, 0, 62, 77
2, 20314, Note_on_c, 0, 59, 73
2, 20392, Control_c, 0, 64, 63
2, 20404, Control_c, 0, 64, 0
2, 20479, Note_on_c, 0, 80, 93
2, 20530, Control_c, 0, 64, 63
2, 20532, Control_c, 0, 64, 127
2, 20646, Note_on_c, 0, 74, 71
2, 20671, Note_on_c, 0, 62, 0
2, 20718, Note_on_c, 0, 68, 0
2, 20762, Note_on_c, 0, 80, 0
2, 20813, Note_on_c, 0, 69, 87
2, 20814, Note_on_c, 0, 60, 85
2, 20824, Note_on_c, 0, 74, 0
2, 20835, Note_on_c, 0, 59, 0
2, 20872, Control_c, 0, 64, 63
2, 20879, Control_c, 0, 64, 0
2, 21019, Note_on_c, 0, 81, 87
2, 21078, Control_c, 0, 64, 63
2, 21079, Control_c, 0, 64, 127
2, 21197, Note_on_c, 0, 72, 82
2, 21234, Note_on_c, 0, 65, 0
2, 21252, Note_on_c, 0, 53, 0
2, 21329, Note_on_c, 0, 81, 0
2, 21345, Note_on_c, 0, 69, 0
2, 21443, Note_on_c, 0, 52, 76
2, 21444, Note_on_c, 0, 64, 76
2, 21450, Note_on_c, 0, 69, 65
2, 21539, Control_c, 0, 64, 63
2, 21550, Control_c, 0, 64, 0
2, 21605, Control_c, 0, 64, 63
2, 21615, Control_c, 0, 64, 127
2, 21692, Note_on_c, 0, 76, 75
2, 21726, Note_on_c, 0, 72, 0
2, 21868, Note_on_c, 0, 74, 88
2, 21885, Note_on_c, 0, 60, 0
2, 21913, Note_on_c, 0, 64, 0
2, 21920, Note_on_c, 0, 76, 0
2, 22008, Note_on_c, 0, 69, 0
2, 22041, Note_on_c, 0, 57, 55
2, 22041, Note_on_c, 0, 60, 64
2, 22046, Note_on_c, 0, 54, 65
2, 22052, Note_on_c, 0, 72, 81
2, 22084, Control_c, 0, 64, 63
2, 22089, Control_c, 0, 64, 0
2, 22101, Note_on_c, 0, 74, 0
2, 22114, Control_c, 0, 64, 63
2, 22123, Control_c, 0, 64, 127
2, 22180, Note_on_c, 0, 54, 0
2, 22190, Note_on_c, 0, 57, 0
2, 22200, Note_on_c, 0, 60, 0
2, 22262, Note_on_c, 0, 71, 72
2, 22267, Note_on_c, 0, 56, 44
2, 22267, Note_on_c, 0, 62, 58
2, 22270, Note_on_c, 0, 59, 42
2, 22298, Note_on_c, 0, 72, 0
2, 22337, Control_c, 0, 64, 63
2, 22362, Control_c, 0, 64, 127
2, 22469, Note_on_c, 0, 59, 0
2, 22471, Note_on_c, 0, 62, 0
2, 22483, Note_on_c, 0, 56, 0
2, 22553, Note_on_c, 0, 60, 47
2, 22556, Note_on_c, 0, 63, 64
2, 22557, Note_on_c, 0, 57, 11
2, 22565, Note_on_c, 0, 69, 48
2, 22580, Note_on_c, 0, 71, 0
2, 22587, Control_c, 0, 64, 63
2, 22600, Control_c, 0, 64, 0
2, 22618, Control_c, 0, 64, 63
2, 22636, Control_c, 0, 64, 127
2, 22785, Note_on_c, 0, 60, 0
2, 22786, Note_on_c, 0, 52, 0
2, 22790, Note_on_c, 0, 69, 0
2, 22808, Note_on_c, 0, 57, 0
2, 22843, Note_on_c, 0, 63, 0
2, 22963, Note_on_c, 0, 52, 46
2, 22990, Note_on_c, 0, 59, 41
2, 23034, Note_on_c, 0, 68, 60
2, 23040, Note_on_c, 0, 64, 10
2, 23130, Note_on_c, 0, 76, 52
2, 23136, Control_c, 0, 64, 63
2, 23159, Control_c, 0, 64, 0
2, 23276, Control_c, 0, 64, 63
2, 23283, Control_c, 0, 64, 127
2, 24252, Control_c, 0, 67, 127
2, 24349, Note_on_c, 0, 64, 0
2, 24356, Note_on_c, 0, 76, 0
2, 24374, Note_on_c, 0, 68, 0
2, 24387, Note_on_c, 0, 59, 0
2, 24419, Note_on_c, 0, 52, 0
2, 24743, Control_c, 0, 64, 63
2, 24767, Note_on_c, 0, 48, 35
2, 24768, Note_on_c, 0, 36, 39
2, 24770, Control_c, 0, 64, 0
2, 24774, Note_on_c, 0, 52, 57
2, 24852, Control_c, 0, 64, 63
2, 24865, Control_c, 0, 64, 127
2, 25021, Note_on_c, 0, 64, 46
2, 25114, Note_on_c, 0, 48, 0
2, 25183, Note_on_c, 0, 52, 0
2, 25194, Note_on_c, 0, 60, 57
2, 25308, Note_on_c, 0, 60, 0
2, 25323, Note_on_c, 0, 64, 0
2, 25335, Note_on_c, 0, 55, 86
2, 25342, Note_on_c, 0, 46, 65
2, 25342, Note_on_c, 0, 34, 75
2, 25351, Note_on_c, 0, 36, 0
2, 25395, Control_c, 0, 64, 63
2, 25407, Control_c, 0, 64, 0
2, 25458, Control_c, 0, 64, 63
2, 25468, Control_c, 0, 64, 127
2, 25483, Note_on_c, 0, 67, 73
2, 25605, Note_on_c, 0, 61, 91
2, 25615, Note_on_c, 0, 55, 0
2, 25631, Note_on_c, 0, 46, 0
2, 25708, Note_on_c, 0, 61, 0
2, 25710, Note_on_c, 0, 67, 0
2, 25729, Note_on_c, 0, 44, 88
2, 25732, Note_on_c, 0, 32, 88
2, 25734, Note_on_c, 0, 60, 102
2, 25777, Control_c, 0, 64, 63
2, 25781, Note_on_c, 0, 34, 0
2, 25787, Control_c, 0, 64, 0
2, 25834, Control_c, 0, 64, 63
2, 25841, Control_c, 0, 64, 127
2, 25875, Note_on_c, 0, 72, 94
2, 25994, Note_on_c, 0, 65, 85
2, 25998, Note_on_c, 0, 44, 0
2, 26003, Note_on_c, 0, 72, 0
2, 26020, Note_on_c, 0, 60, 0
2, 26077, Note_on_c, 0, 65, 0
2, 26133, Note_on_c, 0, 63, 101
2, 26136, Note_on_c, 0, 42, 75
2, 26139, Note_on_c, 0, 30, 74
2, 26203, Note_on_c, 0, 32, 0
2, 26214, Control_c, 0, 64, 63
2, 26225, Control_c, 0, 64, 0
2, 26257, Control_c, 0, 64, 63
2, 26266, Control_c, 0, 64, 127
2, 26290, Note_on_c, 0, 75, 92
2, 26459, Note_on_c, 0, 42, 0
2, 26459, Note_on_c, 0, 70, 80
2, 26480, Note_on_c, 0, 75, 0
2, 26531, Note_on_c, 0, 30, 0
2, 26663, Note_on_c, 0, 29, 55
2, 26708, Control_c, 0, 64, 63
2, 26708, Note_on_c, 0, 41, 30
2, 26711, Note_on_c, 0, 69, 92
2, 26713, Control_c, 0, 64, 0
2, 26733, Note_on_c, 0, 70, 0
2, 26748, Control_c, 0, 64, 63
2, 26754, Control_c, 0, 64, 127
2, 26830, Note_on_c, 0, 63, 0
2, 26878, Note_on_c, 0, 69, 0
2, 26978, Note_on_c, 0, 81, 85
2, 27163, Note_on_c, 0, 75, 70
2, 27325, Note_on_c, 0, 71, 94
2, 27348, Note_on_c, 0, 81, 0
2, 27390, Note_on_c, 0, 75, 0
2, 27507, Note_on_c, 0, 83, 65
2, 27673, Note_on_c, 0, 75, 62
2, 27701, Note_on_c, 0, 41, 0
2, 27729, Note_on_c, 0, 83, 0
2, 27758, Note_on_c, 0, 71, 0
2, 27837, Note_on_c, 0, 69, 78
2, 27851, Note_on_c, 0, 28, 29
2, 27854, Note_on_c, 0, 40, 23
2, 27897, Note_on_c, 0, 29, 0
2, 27925, Control_c, 0, 64, 63
2, 27932, Control_c, 0, 64, 0
2, 27963, Note_on_c, 0, 75, 0
2, 27976, Control_c, 0, 64, 63
2, 27984, Control_c, 0, 64, 127
2, 27987, Note_on_c, 0, 81, 47
2, 28104, Note_on_c, 0, 28, 0
2, 28141, Note_on_c, 0, 40, 0
2, 28142, Note_on_c, 0, 75, 70
2, 28154, Note_on_c, 0, 81, 0
2, 28196, Note_on_c, 0, 69, 0
2, 28291, Note_on_c, 0, 75, 0
2, 28308, Note_on_c, 0, 68, 77
2, 28319, Note_on_c, 0, 64, 53
2, 28418, Note_on_c, 0, 64, 0
2, 28467, Note_on_c, 0, 80, 68
2, 28641, Note_on_c, 0, 76, 38
2, 28684, Note_on_c, 0, 80, 0
2, 28724, Note_on_c, 0, 76, 0
2, 28735, Note_on_c, 0, 68, 0
2, 28847, Note_on_c, 0, 57, 45
2, 28853, Note_on_c, 0, 45, 51
2, 28856, Note_on_c, 0, 60, 84
2, 28912, Control_c, 0, 64, 63
2, 28919, Control_c, 0, 64, 0
2, 28969, Control_c, 0, 67, 0
2, 28973, Control_c, 0, 64, 63
2, 28980, Control_c, 0, 64, 127
2, 29030, Note_on_c, 0, 72, 67
2, 29140, Note_on_c, 0, 72, 0
2, 29174, Note_on_c, 0, 57, 0
2, 29188, Note_on_c, 0, 64, 65
2, 29234, Note_on_c, 0, 60, 0
2, 29279, Note_on_c, 0, 64, 0
2, 29333, Note_on_c, 0, 55, 65
2, 29337, Note_on_c, 0, 43, 77
2, 29337, Note_on_c, 0, 64, 88
2, 29380, Control_c, 0, 64, 63
2, 29388, Note_on_c, 0, 45, 0
2, 29392, Control_c, 0, 64, 0
2, 29430, Control_c, 0, 64, 63
2, 29440, Control_c, 0, 64, 127
2, 29485, Note_on_c, 0, 76, 85
2, 29608, Note_on_c, 0, 70, 88
2, 29612, Note_on_c, 0, 55, 0
2, 29649, Note_on_c, 0, 64, 0
2, 29663, Note_on_c, 0, 43, 0
2, 29704, Note_on_c, 0, 70, 0
2, 29727, Note_on_c, 0, 76, 0
2, 29750, Note_on_c, 0, 42, 87
2, 29756, Note_on_c, 0, 69, 100
2, 29758, Note_on_c, 0, 54, 91
2, 29807, Control_c, 0, 64, 63
2, 29820, Control_c, 0, 64, 0
2, 29872, Control_c, 0, 64, 63
2, 29878, Control_c, 0, 64, 127
2, 29907, Note_on_c, 0, 81, 92
2, 30044, Note_on_c, 0, 54, 0
2, 30048, Note_on_c, 0, 75, 99
2, 30076, Note_on_c, 0, 42, 0
2, 30084, Note_on_c, 0, 69, 0
2, 30155, Note_on_c, 0, 75, 0
2, 30172, Note_on_c, 0, 81, 0
2, 30196, Note_on_c, 0, 53, 101
2, 30199, Note_on_c, 0, 74, 100
2, 30200, Note_on_c, 0, 41, 97
2, 30281, Control_c, 0, 64, 63
2, 30290, Control_c, 0, 64, 0
2, 30338, Control_c, 0, 64, 63
2, 30350, Control_c, 0, 64, 127
2, 30366, Note_on_c, 0, 86, 97
2, 30530, Note_on_c, 0, 80, 94
2, 30552, Note_on_c, 0, 74, 0
2, 30560, Note_on_c, 0, 53, 0
2, 30668, Note_on_c, 0, 80, 0
2, 30706, Note_on_c, 0, 86, 0
2, 30732, Note_on_c, 0, 79, 103
2, 30736, Note_on_c, 0, 52, 82
2, 30741, Note_on_c, 0, 40, 71
2, 30783, Note_on_c, 0, 41, 0
2, 30805, Control_c, 0, 64, 63
2, 30814, Control_c, 0, 64, 0
2, 30874, Control_c, 0, 64, 63
2, 30882, Control_c, 0, 64, 127
2, 30916, Note_on_c, 0, 91, 101
2, 31083, Note_on_c, 0, 84, 89
2, 31086, Note_on_c, 0, 52, 0
2, 31203, Note_on_c, 0, 79, 0
2, 31243, Note_on_c, 0, 51, 106
2, 31245, Note_on_c, 0, 39, 87
2, 31251, Note_on_c, 0, 81, 91
2, 31277, Note_on_c, 0, 84, 0
2, 31280, Note_on_c, 0, 40, 0
2, 31310, Note_on_c, 0, 91, 0
2, 31346, Control_c, 0, 64, 63
2, 31371, Control_c, 0, 64, 127
2, 31426, Note_on_c, 0, 93, 100
2, 31613, Note_on_c, 0, 85, 80
2, 31615, Note_on_c, 0, 51, 0
2, 31743, Note_on_c, 0, 81, 0
2, 31771, Note_on_c, 0, 93, 0
2, 31841, Note_on_c, 0, 50, 75
2, 31841, Note_on_c, 0, 79, 74
2, 31842, Note_on_c, 0, 38, 71
2, 31854, Note_on_c, 0, 39, 0
2, 31931, Note_on_c, 0, 85, 0
2, 31951, Control_c, 0, 64, 63
2, 31960, Control_c, 0, 64, 0
2, 32018, Control_c, 0, 64, 63
2, 32028, Control_c, 0, 64, 127
2, 32051, Note_on_c, 0, 91, 77
2, 32239, Note_on_c, 0, 84, 58
2, 32257, Note_on_c, 0, 91, 0
2, 32365, Note_on_c, 0, 79, 0
2, 32435, Note_on_c, 0, 78, 89
2, 32488, Note_on_c, 0, 84, 0
2, 32643, Note_on_c, 0, 90, 80
2, 32956, Note_on_c, 0, 84, 47
2, 32985, Note_on_c, 0, 50, 0
2, 33054, Note_on_c, 0, 90, 0
2, 33090, Note_on_c, 0, 38, 0
2, 33220, Note_on_c, 0, 78, 0
2, 33290, Note_on_c, 0, 77, 82
2, 33374, Control_c, 0, 64, 63
2, 33386, Control_c, 0, 64, 0
2, 33400, Note_on_c, 0, 31, 70
2, 33476, Control_c, 0, 64, 63
2, 33481, Control_c, 0, 64, 127
2, 33540, Note_on_c, 0, 89, 86
2, 33578, Note_on_c, 0, 84, 0
2, 33642, Note_on_c, 0, 31, 0
2, 33685, Note_on_c, 0, 77, 0
2, 33898, Note_on_c, 0, 59, 59
2, 34171, Note_on_c, 0, 53, 31
2, 34351, Note_on_c, 0, 50, 55
2, 34409, Note_on_c, 0, 59, 0
2, 34515, Note_on_c, 0, 62, 48
2, 34517, Note_on_c, 0, 53, 0
2, 34587, Note_on_c, 0, 88, 68
2, 34617, Note_on_c, 0, 89, 0
2, 34679, Note_on_c, 0, 50, 0
2, 34689, Note_on_c, 0, 59, 48
2, 34825, Note_on_c, 0, 86, 77
2, 34832, Note_on_c, 0, 53, 31
2, 34846, Note_on_c, 0, 62, 0
2, 34860, Note_on_c, 0, 88, 0
2, 34932, Note_on_c, 0, 59, 0
2, 34965, Note_on_c, 0, 65, 50
2, 35036, Note_on_c, 0, 84, 66
2, 35046, Note_on_c, 0, 53, 0
2, 35071, Note_on_c, 0, 86, 0
2, 35133, Note_on_c, 0, 62, 56
2, 35236, Note_on_c, 0, 65, 0
2, 35244, Note_on_c, 0, 59, 65
2, 35248, Note_on_c, 0, 83, 72
2, 35273, Note_on_c, 0, 84, 0
2, 35289, Note_on_c, 0, 62, 0
2, 35376, Note_on_c, 0, 71, 54
2, 35426, Note_on_c, 0, 81, 84
2, 35459, Note_on_c, 0, 83, 0
2, 35492, Note_on_c, 0, 65, 70
2, 35518, Note_on_c, 0, 59, 0
2, 35563, Note_on_c, 0, 71, 0
2, 35609, Note_on_c, 0, 79, 79
2, 35624, Note_on_c, 0, 62, 72
2, 35646, Note_on_c, 0, 81, 0
2, 35665, Note_on_c, 0, 65, 0
2, 35737, Note_on_c, 0, 74, 63
2, 35799, Note_on_c, 0, 80, 91
2, 35829, Note_on_c, 0, 62, 0
2, 35837, Note_on_c, 0, 79, 0
2, 35881, Note_on_c, 0, 71, 66
2, 35978, Note_on_c, 0, 74, 0
2, 35993, Note_on_c, 0, 83, 69
2, 36007, Note_on_c, 0, 65, 47
2, 36047, Note_on_c, 0, 71, 0
2, 36052, Note_on_c, 0, 80, 0
2, 36114, Note_on_c, 0, 77, 52
2, 36208, Note_on_c, 0, 81, 68
2, 36223, Note_on_c, 0, 65, 0
2, 36237, Note_on_c, 0, 83, 0
2, 36262, Note_on_c, 0, 74, 45
2, 36294, Note_on_c, 0, 77, 0
2, 36389, Note_on_c, 0, 79, 60
2, 36413, Note_on_c, 0, 71, 53
2, 36429, Note_on_c, 0, 74, 0
2, 36431, Note_on_c, 0, 81, 0
2, 36550, Note_on_c, 0, 74, 33
2, 36555, Note_on_c, 0, 71, 0
2, 36595, Note_on_c, 0, 77, 65
2, 36617, Note_on_c, 0, 79, 0
2, 36679, Note_on_c, 0, 71, 54
2, 36725, Note_on_c, 0, 74, 0
2, 36794, Note_on_c, 0, 76, 59
2, 36813, Note_on_c, 0, 77, 0
2, 36818, Note_on_c, 0, 67, 35
2, 36829, Note_on_c, 0, 71, 0
2, 36932, Note_on_c, 0, 71, 47
2, 36961, Note_on_c, 0, 67, 0
2, 36989, Note_on_c, 0, 74, 63
2, 37026, Note_on_c, 0, 76, 0
2, 37074, Note_on_c, 0, 67, 35
2, 37102, Note_on_c, 0, 71, 0
2, 37191, Note_on_c, 0, 72, 55
2, 37206, Note_on_c, 0, 65, 39
2, 37227, Note_on_c, 0, 67, 0
2, 37229, Note_on_c, 0, 74, 0
2, 37347, Note_on_c, 0, 67, 23
2, 37404, Note_on_c, 0, 65, 0
2, 37409, Note_on_c, 0, 71, 42
2, 37431, Note_on_c, 0, 72, 0
2, 37513, Note_on_c, 0, 65, 49
2, 37663, Note_on_c, 0, 79, 74
2, 37668, Note_on_c, 0, 62, 54
2, 37706, Note_on_c, 0, 67, 0
2, 37708, Control_c, 0, 64, 63
2, 37713, Note_on_c, 0, 71, 0
2, 37736, Control_c, 0, 64, 127
2, 37839, Note_on_c, 0, 65, 0
2, 37840, Note_on_c, 0, 67, 35
2, 37902, Note_on_c, 0, 71, 47
2, 37984, Note_on_c, 0, 65, 43
2, 38028, Note_on_c, 0, 67, 0
2, 38098, Note_on_c, 0, 74, 69
2, 38155, Note_on_c, 0, 71, 0
2, 38211, Note_on_c, 0, 67, 60
2, 38262, Note_on_c, 0, 65, 0
2, 38279, Note_on_c, 0, 72, 68
2, 38322, Note_on_c, 0, 74, 0
2, 38355, Note_on_c, 0, 65, 64
2, 38378, Note_on_c, 0, 67, 0
2, 38437, Note_on_c, 0, 79, 0
2, 38472, Note_on_c, 0, 60, 79
2, 38474, Note_on_c, 0, 72, 0
2, 38477, Note_on_c, 0, 79, 82
2, 38518, Note_on_c, 0, 62, 0
2, 38520, Control_c, 0, 64, 63
2, 38543, Control_c, 0, 64, 0
2, 38545, Note_on_c, 0, 65, 0
2, 38568, Control_c, 0, 64, 63
2, 38588, Control_c, 0, 64, 127
2, 38608, Note_on_c, 0, 67, 60
2, 38665, Note_on_c, 0, 72, 69
2, 38750, Note_on_c, 0, 65, 61
2, 38781, Note_on_c, 0, 67, 0
2, 38824, Note_on_c, 0, 65, 0
2, 38855, Note_on_c, 0, 76, 84
2, 38912, Note_on_c, 0, 72, 0
2, 38951, Note_on_c, 0, 67, 48
2, 39030, Note_on_c, 0, 73, 84
2, 39076, Note_on_c, 0, 67, 0
2, 39092, Note_on_c, 0, 65, 67
2, 39130, Note_on_c, 0, 60, 0
2, 39165, Note_on_c, 0, 79, 0
2, 39174, Note_on_c, 0, 76, 0
2, 39194, Note_on_c, 0, 73, 0
2, 39212, Note_on_c, 0, 79, 82
2, 39214, Note_on_c, 0, 58, 80
2, 39263, Control_c, 0, 64, 63
2, 39275, Note_on_c, 0, 65, 0
2, 39286, Control_c, 0, 64, 0
2, 39296, Control_c, 0, 64, 63
2, 39319, Control_c, 0, 64, 127
2, 39355, Note_on_c, 0, 67, 47
2, 39407, Note_on_c, 0, 73, 85
2, 39484, Note_on_c, 0, 67, 0
2, 39488, Note_on_c, 0, 65, 59
2, 39550, Note_on_c, 0, 79, 0
2, 39600, Note_on_c, 0, 58, 0
2, 39619, Note_on_c, 0, 79, 85
2, 39623, Note_on_c, 0, 59, 78
2, 39679, Control_c, 0, 64, 63
2, 39692, Control_c, 0, 64, 0
2, 39703, Control_c, 0, 64, 63
2, 39722, Control_c, 0, 64, 127
2, 39731, Note_on_c, 0, 73, 0
2, 39746, Note_on_c, 0, 65, 0
2, 39756, Note_on_c, 0, 67, 55
2, 39835, Note_on_c, 0, 74, 76
2, 39933, Note_on_c, 0, 65, 55
2, 39991, Note_on_c, 0, 67, 0
2, 40012, Note_on_c, 0, 79, 0
2, 40072, Note_on_c, 0, 79, 76
2, 40106, Note_on_c, 0, 74, 0
2, 40114, Control_c, 0, 64, 63
2, 40150, Control_c, 0, 64, 127
2, 40227, Note_on_c, 0, 67, 37
2, 40264, Note_on_c, 0, 65, 0
2, 40308, Note_on_c, 0, 75, 67
2, 40453, Note_on_c, 0, 65, 43
2, 40485, Note_on_c, 0, 67, 0
2, 40550, Note_on_c, 0, 65, 0
2, 40588, Note_on_c, 0, 59, 0
2, 40593, Note_on_c, 0, 76, 63
2, 40612, Note_on_c, 0, 75, 0
2, 40642, Note_on_c, 0, 79, 0
2, 40773, Note_on_c, 0, 36, 67
2, 40812, Control_c, 0, 64, 63
2, 40819, Control_c, 0, 64, 0
2, 40870, Note_on_c, 0, 82, 89
2, 40872, Control_c, 0, 64, 63
2, 40878, Control_c, 0, 64, 127
2, 41071, Note_on_c, 0, 36, 0
2, 41093, Note_on_c, 0, 76, 0
2, 41175, Note_on_c, 0, 52, 61
2, 41381, Note_on_c, 0, 46, 53
2, 41430, Note_on_c, 0, 52, 0
2, 41536, Note_on_c, 0, 43, 65
2, 41570, Note_on_c, 0, 46, 0
2, 41675, Note_on_c, 0, 55, 54
2, 41698, Note_on_c, 0, 43, 0
2, 41718, Note_on_c, 0, 82, 0
2, 41720, Note_on_c, 0, 81, 86
2, 41812, Note_on_c, 0, 52, 71
2, 41914, Note_on_c, 0, 55, 0
2, 41951, Note_on_c, 0, 79, 86
2, 41967, Note_on_c, 0, 46, 77
2, 41992, Note_on_c, 0, 52, 0
2, 42010, Note_on_c, 0, 81, 0
2, 42108, Note_on_c, 0, 58, 78
2, 42125, Note_on_c, 0, 46, 0
2, 42145, Note_on_c, 0, 77, 88
2, 42189, Note_on_c, 0, 79, 0
2, 42244, Note_on_c, 0, 55, 63
2, 42256, Note_on_c, 0, 58, 0
2, 42347, Note_on_c, 0, 52, 76
2, 42351, Note_on_c, 0, 76, 92
2, 42372, Note_on_c, 0, 55, 0
2, 42376, Note_on_c, 0, 77, 0
2, 42470, Note_on_c, 0, 64, 69
2, 42527, Note_on_c, 0, 74, 94
2, 42553, Note_on_c, 0, 76, 0
2, 42601, Note_on_c, 0, 52, 0
2, 42606, Note_on_c, 0, 58, 70
2, 42711, Note_on_c, 0, 71, 91
2, 42715, Note_on_c, 0, 64, 0
2, 42718, Note_on_c, 0, 55, 74
2, 42733, Note_on_c, 0, 58, 0
2, 42751, Note_on_c, 0, 74, 0
2, 42823, Note_on_c, 0, 67, 71
2, 42884, Note_on_c, 0, 72, 99
2, 42921, Note_on_c, 0, 71, 0
2, 42926, Note_on_c, 0, 55, 0
2, 42960, Note_on_c, 0, 64, 71
2, 43003, Note_on_c, 0, 67, 0
2, 43070, Note_on_c, 0, 58, 72
2, 43075, Note_on_c, 0, 76, 79
2, 43110, Note_on_c, 0, 72, 0
2, 43145, Control_c, 0, 64, 63
2, 43156, Control_c, 0, 64, 127
2, 43208, Note_on_c, 0, 70, 72
2, 43224, Note_on_c, 0, 64, 0
2, 43260, Note_on_c, 0, 58, 0
2, 43275, Note_on_c, 0, 74, 86
2, 43288, Note_on_c, 0, 70, 0
2, 43303, Note_on_c, 0, 76, 0
2, 43356, Note_on_c, 0, 67, 60
2, 43498, Note_on_c, 0, 72, 76
2, 43509, Note_on_c, 0, 64, 51
2, 43516, Note_on_c, 0, 67, 0
2, 43523, Note_on_c, 0, 74, 0
2, 43645, Note_on_c, 0, 67, 48
2, 43681, Note_on_c, 0, 64, 0
2, 43716, Note_on_c, 0, 70, 70
2, 43764, Note_on_c, 0, 72, 0
2, 43811, Note_on_c, 0, 64, 41
2, 43847, Note_on_c, 0, 67, 0
2, 43944, Note_on_c, 0, 69, 51
2, 43960, Note_on_c, 0, 60, 49
2, 43964, Note_on_c, 0, 70, 0
2, 43983, Note_on_c, 0, 64, 0
2, 44108, Note_on_c, 0, 60, 0
2, 44108, Note_on_c, 0, 64, 21
2, 44174, Note_on_c, 0, 67, 47
2, 44215, Note_on_c, 0, 69, 0
2, 44236, Note_on_c, 0, 60, 56
2, 44271, Note_on_c, 0, 64, 0
2, 44417, Note_on_c, 0, 58, 50
2, 44447, Note_on_c, 0, 65, 54
2, 44452, Note_on_c, 0, 60, 0
2, 44485, Control_c, 0, 64, 63
2, 44497, Note_on_c, 0, 67, 0
2, 44510, Control_c, 0, 64, 127
2, 44600, Note_on_c, 0, 60, 38
2, 44658, Note_on_c, 0, 64, 60
2, 44663, Note_on_c, 0, 58, 0
2, 44682, Note_on_c, 0, 65, 0
2, 44742, Note_on_c, 0, 58, 54
2, 44790, Note_on_c, 0, 60, 0
2, 44857, Note_on_c, 0, 64, 0
2, 44865, Note_on_c, 0, 72, 73
2, 44875, Note_on_c, 0, 58, 0
2, 44881, Note_on_c, 0, 55, 41
2, 44935, Control_c, 0, 64, 63
2, 44950, Control_c, 0, 64, 127
2, 45006, Note_on_c, 0, 60, 50
2, 45065, Note_on_c, 0, 64, 79
2, 45150, Note_on_c, 0, 58, 79
2, 45182, Note_on_c, 0, 60, 0
2, 45262, Note_on_c, 0, 67, 72
2, 45307, Note_on_c, 0, 64, 0
2, 45384, Note_on_c, 0, 60, 67
2, 45400, Note_on_c, 0, 58, 0
2, 45447, Note_on_c, 0, 65, 70
2, 45469, Note_on_c, 0, 67, 0
2, 45490, Note_on_c, 0, 60, 0
2, 45512, Note_on_c, 0, 58, 76
2, 45583, Note_on_c, 0, 72, 0
2, 45606, Note_on_c, 0, 55, 0
2, 45625, Note_on_c, 0, 72, 82
2, 45628, Note_on_c, 0, 53, 84
2, 45654, Control_c, 0, 64, 63
2, 45656, Note_on_c, 0, 58, 0
2, 45665, Control_c, 0, 64, 0
2, 45706, Control_c, 0, 64, 63
2, 45718, Note_on_c, 0, 65, 0
2, 45718, Control_c, 0, 64, 127
2, 45748, Note_on_c, 0, 60, 71
2, 45798, Note_on_c, 0, 65, 93
2, 45884, Note_on_c, 0, 58, 89
2, 45915, Note_on_c, 0, 60, 0
2, 46002, Note_on_c, 0, 69, 88
2, 46046, Note_on_c, 0, 65, 0
2, 46095, Note_on_c, 0, 58, 0
2, 46118, Note_on_c, 0, 60, 67
2, 46171, Note_on_c, 0, 66, 92
2, 46221, Note_on_c, 0, 69, 0
2, 46253, Note_on_c, 0, 58, 72
2, 46275, Note_on_c, 0, 60, 0
2, 46287, Note_on_c, 0, 53, 0
2, 46314, Note_on_c, 0, 72, 0
2, 46349, Note_on_c, 0, 66, 0
2, 46365, Note_on_c, 0, 51, 99
2, 46371, Note_on_c, 0, 72, 82
2, 46373, Note_on_c, 0, 58, 0
2, 46395, Control_c, 0, 64, 63
2, 46405, Control_c, 0, 64, 0
2, 46449, Control_c, 0, 64, 63
2, 46460, Control_c, 0, 64, 127
2, 46502, Note_on_c, 0, 60, 49
2, 46565, Note_on_c, 0, 66, 87
2, 46628, Note_on_c, 0, 58, 65
2, 46629, Note_on_c, 0, 60, 0
2, 46650, Note_on_c, 0, 72, 0
2, 46735, Note_on_c, 0, 51, 0
2, 46769, Note_on_c, 0, 72, 81
2, 46772, Note_on_c, 0, 52, 93
2, 46800, Note_on_c, 0, 58, 0
2, 46802, Note_on_c, 0, 66, 0
2, 46830, Control_c, 0, 64, 63
2, 46844, Control_c, 0, 64, 0
2, 46878, Control_c, 0, 64, 63
2, 46893, Control_c, 0, 64, 127
2, 46921, Note_on_c, 0, 60, 60
2, 46989, Note_on_c, 0, 67, 75
2, 47099, Note_on_c, 0, 58, 62
2, 47143, Note_on_c, 0, 60, 0
2, 47210, Note_on_c, 0, 72, 0
2, 47232, Note_on_c, 0, 52, 0
2, 47266, Note_on_c, 0, 72, 62
2, 47269, Note_on_c, 0, 52, 68
2, 47338, Note_on_c, 0, 67, 0
2, 47376, Control_c, 0, 64, 63
2, 47404, Control_c, 0, 64, 127
2, 47450, Note_on_c, 0, 60, 47
2, 47457, Note_on_c, 0, 58, 0
2, 47549, Note_on_c, 0, 68, 51
2, 47662, Note_on_c, 0, 58, 53
2, 47693, Note_on_c, 0, 60, 0
2, 47780, Note_on_c, 0, 52, 0
2, 47839, Note_on_c, 0, 68, 0
2, 47875, Note_on_c, 0, 53, 39
2, 47892, Note_on_c, 0, 72, 0
2, 47901, Note_on_c, 0, 69, 44
2, 47939, Note_on_c, 0, 58, 0
2, 47979, Control_c, 0, 64, 63
2, 47989, Control_c, 0, 64, 0
2, 48029, Control_c, 0, 64, 63
2, 48040, Control_c, 0, 64, 127
2, 48137, Note_on_c, 0, 57, 30
2, 48284, Note_on_c, 0, 62, 42
2, 48423, Note_on_c, 0, 61, 58
2, 48452, Note_on_c, 0, 62, 0
2, 48467, Note_on_c, 0, 69, 0
2, 48538, Note_on_c, 0, 57, 0
2, 48544, Note_on_c, 0, 64, 56
2, 48581, Note_on_c, 0, 61, 0
2, 48664, Note_on_c, 0, 62, 70
2, 48672, Note_on_c, 0, 69, 34
2, 48683, Note_on_c, 0, 64, 0
2, 48691, Note_on_c, 0, 53, 0
2, 48798, Note_on_c, 0, 65, 52
2, 48800, Note_on_c, 0, 74, 63
2, 48823, Note_on_c, 0, 62, 0
2, 48907, Note_on_c, 0, 69, 0
2, 48917, Note_on_c, 0, 64, 44
2, 48921, Note_on_c, 0, 65, 0
2, 48921, Note_on_c, 0, 73, 80
2, 48975, Note_on_c, 0, 74, 0
2, 49031, Note_on_c, 0, 67, 54
2, 49034, Note_on_c, 0, 76, 88
2, 49036, Note_on_c, 0, 64, 0
2, 49061, Note_on_c, 0, 73, 0
2, 49141, Note_on_c, 0, 74, 94
2, 49146, Note_on_c, 0, 65, 65
2, 49149, Note_on_c, 0, 67, 0
2, 49190, Note_on_c, 0, 76, 0
2, 49252, Note_on_c, 0, 69, 60
2, 49256, Note_on_c, 0, 77, 94
2, 49283, Note_on_c, 0, 65, 0
2, 49294, Note_on_c, 0, 74, 0
2, 49361, Note_on_c, 0, 76, 98
2, 49368, Note_on_c, 0, 67, 71
2, 49379, Note_on_c, 0, 69, 0
2, 49388, Note_on_c, 0, 77, 0
2, 49403, Note_on_c, 0, 76, 0
2, 49544, Note_on_c, 0, 82, 94
2, 49547, Note_on_c, 0, 70, 53
2, 49559, Note_on_c, 0, 67, 0
2, 49587, Note_on_c, 0, 79, 27
2, 49626, Control_c, 0, 64, 63
2, 49644, Control_c, 0, 64, 0
2, 49675, Control_c, 0, 64, 63
2, 49689, Control_c, 0, 64, 127
2, 49727, Note_on_c, 0, 74, 60
2, 49747, Note_on_c, 0, 65, 49
2, 49790, Note_on_c, 0, 70, 0
2, 49841, Note_on_c, 0, 79, 0
2, 49860, Note_on_c, 0, 77, 64
2, 49866, Note_on_c, 0, 74, 0
2, 49866, Note_on_c, 0, 69, 49
2, 49893, Note_on_c, 0, 82, 0
2, 49983, Note_on_c, 0, 69, 0
2, 49985, Note_on_c, 0, 81, 81
2, 49987, Note_on_c, 0, 77, 0
2, 49990, Note_on_c, 0, 65, 0
2, 49990, Note_on_c, 0, 73, 65
2, 49991, Note_on_c, 0, 64, 36
2, 50008, Control_c, 0, 64, 63
2, 50048, Control_c, 0, 64, 127
2, 50128, Note_on_c, 0, 67, 24
2, 50148, Note_on_c, 0, 76, 36
2, 50177, Note_on_c, 0, 73, 0
2, 50243, Note_on_c, 0, 65, 40
2, 50258, Note_on_c, 0, 74, 44
2, 50261, Note_on_c, 0, 67, 0
2, 50280, Note_on_c, 0, 64, 0
2, 50291, Note_on_c, 0, 76, 0
2, 50373, Note_on_c, 0, 69, 38
2, 50374, Note_on_c, 0, 74, 0
2, 50377, Note_on_c, 0, 77, 47
2, 50490, Note_on_c, 0, 73, 51
2, 50491, Note_on_c, 0, 64, 36
2, 50496, Note_on_c, 0, 65, 0
2, 50523, Note_on_c, 0, 69, 0
2, 50540, Note_on_c, 0, 77, 0
2, 50603, Note_on_c, 0, 67, 29
2, 50609, Note_on_c, 0, 76, 36
2, 50637, Note_on_c, 0, 73, 0
2, 50659, Note_on_c, 0, 64, 0
2, 50750, Note_on_c, 0, 74, 44
2, 50765, Note_on_c, 0, 65, 13
2, 50777, Note_on_c, 0, 76, 0
2, 50805, Note_on_c, 0, 67, 0
2, 50807, Control_c, 0, 64, 63
2, 50863, Control_c, 0, 64, 127
2, 50897, Note_on_c, 0, 77, 25
2, 50898, Note_on_c, 0, 69, 20
2, 50950, Note_on_c, 0, 81, 0
2, 50988, Note_on_c, 0, 74, 0
2, 51077, Note_on_c, 0, 68, 43
2, 51090, Note_on_c, 0, 80, 87
2, 51097, Note_on_c, 0, 65, 0
2, 51104, Note_on_c, 0, 77, 0
2, 51110, Note_on_c, 0, 69, 0
2, 51209, Note_on_c, 0, 68, 0
2, 51211, Note_on_c, 0, 80, 0
2, 51352, Note_on_c, 0, 79, 68
2, 51360, Note_on_c, 0, 52, 33
2, 51364, Note_on_c, 0, 67, 36
2, 51476, Control_c, 0, 64, 63
2, 51489, Control_c, 0, 64, 0
2, 51559, Note_on_c, 0, 55, 45
2, 51646, Control_c, 0, 64, 63
2, 51649, Control_c, 0, 64, 127
2, 51690, Note_on_c, 0, 60, 59
2, 51808, Note_on_c, 0, 59, 69
2, 51827, Note_on_c, 0, 60, 0
2, 51886, Note_on_c, 0, 55, 0
2, 51887, Note_on_c, 0, 79, 0
2, 51918, Note_on_c, 0, 62, 80
2, 51950, Note_on_c, 0, 67, 0
2, 51954, Note_on_c, 0, 59, 0
2, 52018, Note_on_c, 0, 67, 67
2, 52021, Note_on_c, 0, 60, 76
2, 52037, Note_on_c, 0, 62, 0
2, 52105, Note_on_c, 0, 52, 0
2, 52139, Note_on_c, 0, 64, 71
2, 52140, Note_on_c, 0, 72, 80
2, 52170, Note_on_c, 0, 60, 0
2, 52246, Note_on_c, 0, 67, 0
2, 52247, Note_on_c, 0, 62, 78
2, 52251, Note_on_c, 0, 71, 88
2, 52263, Note_on_c, 0, 64, 0
2, 52318, Note_on_c, 0, 72, 0
2, 52358, Note_on_c, 0, 65, 76
2, 52366, Note_on_c, 0, 74, 87
2, 52375, Note_on_c, 0, 62, 0
2, 52382, Note_on_c, 0, 71, 0
2, 52459, Note_on_c, 0, 74, 0
2, 52468, Note_on_c, 0, 72, 82
2, 52470, Note_on_c, 0, 64, 79
2, 52482, Note_on_c, 0, 65, 0
2, 52578, Note_on_c, 0, 76, 89
2, 52579, Note_on_c, 0, 67, 75
2, 52621, Note_on_c, 0, 72, 0
2, 52636, Note_on_c, 0, 64, 0
2, 52687, Note_on_c, 0, 74, 84
2, 52692, Note_on_c, 0, 65, 75
2, 52693, Note_on_c, 0, 67, 0
2, 52718, Note_on_c, 0, 76, 0
2, 52836, Note_on_c, 0, 74, 0
2, 52846, Note_on_c, 0, 68, 79
2, 52848, Note_on_c, 0, 80, 93
2, 52862, Note_on_c, 0, 77, 45
2, 52889, Note_on_c, 0, 65, 0
2, 52919, Control_c, 0, 64, 63
2, 52930, Control_c, 0, 64, 0
2, 52965, Control_c, 0, 64, 63
2, 52977, Control_c, 0, 64, 127
2, 53013, Note_on_c, 0, 72, 69
2, 53027, Note_on_c, 0, 64, 57
2, 53104, Note_on_c, 0, 68, 0
2, 53140, Note_on_c, 0, 67, 71
2, 53141, Note_on_c, 0, 76, 65
2, 53158, Note_on_c, 0, 80, 0
2, 53171, Note_on_c, 0, 72, 0
2, 53208, Note_on_c, 0, 77, 0
2, 53244, Note_on_c, 0, 64, 0
2, 53262, Note_on_c, 0, 79, 84
2, 53268, Note_on_c, 0, 71, 69
2, 53270, Note_on_c, 0, 62, 62
2, 53281, Note_on_c, 0, 67, 0
2, 53296, Note_on_c, 0, 76, 0
2, 53315, Control_c, 0, 64, 63
2, 53362, Control_c, 0, 64, 127
2, 53383, Note_on_c, 0, 65, 50
2, 53399, Note_on_c, 0, 74, 50
2, 53455, Note_on_c, 0, 71, 0
2, 53524, Note_on_c, 0, 72, 60
2, 53527, Note_on_c, 0, 62, 0
2, 53528, Note_on_c, 0, 64, 35
2, 53539, Note_on_c, 0, 74, 0
2, 53542, Note_on_c, 0, 65, 0
2, 53638, Note_on_c, 0, 76, 62
2, 53639, Note_on_c, 0, 67, 36
2, 53670, Control_c, 0, 64, 63
2, 53674, Note_on_c, 0, 72, 0
2, 53704, Control_c, 0, 64, 127
2, 53754, Note_on_c, 0, 71, 58
2, 53759, Note_on_c, 0, 62, 45
2, 53785, Note_on_c, 0, 64, 0
2, 53797, Note_on_c, 0, 76, 0
2, 53817, Note_on_c, 0, 67, 0
2, 53883, Note_on_c, 0, 74, 45
2, 53887, Note_on_c, 0, 65, 36
2, 53891, Note_on_c, 0, 71, 0
2, 53925, Note_on_c, 0, 62, 0
2, 54019, Note_on_c, 0, 69, 45
2, 54020, Control_c, 0, 64, 63
2, 54030, Note_on_c, 0, 74, 0
2, 54030, Note_on_c, 0, 60, 38
2, 54061, Note_on_c, 0, 65, 0
2, 54062, Control_c, 0, 64, 127
2, 54174, Note_on_c, 0, 72, 44
2, 54183, Note_on_c, 0, 64, 32
2, 54207, Note_on_c, 0, 79, 0
2, 54216, Note_on_c, 0, 60, 0
2, 54221, Note_on_c, 0, 69, 0
2, 54233, Note_on_c, 0, 72, 0
2, 54368, Note_on_c, 0, 59, 39
2, 54380, Note_on_c, 0, 76, 66
2, 54387, Note_on_c, 0, 68, 41
2, 54402, Note_on_c, 0, 64, 0
2, 54422, Control_c, 0, 64, 63
2, 54442, Control_c, 0, 64, 0
2, 54462, Control_c, 0, 64, 63
2, 54486, Control_c, 0, 64, 127
2, 54753, Note_on_c, 0, 76, 0
2, 54769, Note_on_c, 0, 68, 0
2, 54770, Note_on_c, 0, 69, 52
2, 54773, Note_on_c, 0, 60, 41
2, 54774, Note_on_c, 0, 59, 0
2, 54929, Note_on_c, 0, 56, 63
2, 54930, Note_on_c, 0, 72, 76
2, 54937, Note_on_c, 0, 64, 52
2, 54943, Note_on_c, 0, 60, 0
2, 54958, Note_on_c, 0, 69, 0
2, 54998, Control_c, 0, 64, 63
2, 55008, Control_c, 0, 64, 0
2, 55046, Control_c, 0, 64, 63
2, 55058, Control_c, 0, 64, 127
2, 55144, Note_on_c, 0, 72, 0
2, 55207, Note_on_c, 0, 64, 0
2, 55230, Note_on_c, 0, 65, 69
2, 55236, Note_on_c, 0, 57, 57
2, 55241, Note_on_c, 0, 56, 0
2, 55369, Note_on_c, 0, 52, 60
2, 55372, Note_on_c, 0, 69, 74
2, 55378, Note_on_c, 0, 61, 55
2, 55381, Note_on_c, 0, 65, 0
2, 55387, Note_on_c, 0, 57, 0
2, 55400, Control_c, 0, 64, 63
2, 55409, Control_c, 0, 64, 0
2, 55451, Control_c, 0, 64, 63
2, 55463, Control_c, 0, 64, 127
2, 55554, Note_on_c, 0, 69, 0
2, 55652, Note_on_c, 0, 61, 0
2, 55661, Note_on_c, 0, 62, 68
2, 55663, Note_on_c, 0, 52, 0
2, 55675, Note_on_c, 0, 53, 44
2, 55808, Note_on_c, 0, 62, 0
2, 55820, Note_on_c, 0, 65, 68
2, 55822, Note_on_c, 0, 58, 43
2, 55825, Note_on_c, 0, 49, 55
2, 55837, Note_on_c, 0, 53, 0
2, 55839, Control_c, 0, 64, 63
2, 55850, Control_c, 0, 64, 0
2, 55900, Control_c, 0, 64, 63
2, 55911, Control_c, 0, 64, 127
2, 56019, Note_on_c, 0, 65, 0
2, 56071, Note_on_c, 0, 58, 0
2, 56169, Note_on_c, 0, 59, 65
2, 56172, Note_on_c, 0, 50, 44
2, 56174, Note_on_c, 0, 49, 0
2, 56257, Note_on_c, 0, 59, 0
2, 56291, Control_c, 0, 67, 127
2, 56408, Note_on_c, 0, 62, 51
2, 56414, Note_on_c, 0, 53, 42
2, 56420, Note_on_c, 0, 44, 57
2, 56429, Note_on_c, 0, 50, 0
2, 56489, Control_c, 0, 64, 63
2, 56502, Control_c, 0, 64, 0
2, 56595, Control_c, 0, 64, 63
2, 56604, Control_c, 0, 64, 127
2, 56782, Note_on_c, 0, 62, 0
2, 56806, Note_on_c, 0, 53, 0
2, 56877, Note_on_c, 0, 44, 0
2, 56984, Note_on_c, 0, 60, 68
2, 56989, Note_on_c, 0, 52, 44
2, 56992, Note_on_c, 0, 45, 50
2, 57067, Control_c, 0, 64, 63
2, 57078, Control_c, 0, 64, 0
2, 57133, Control_c, 0, 64, 63
2, 57144, Control_c, 0, 64, 127
2, 57296, Note_on_c, 0, 60, 0
2, 57297, Note_on_c, 0, 52, 0
2, 57366, Note_on_c, 0, 45, 0
2, 57548, Note_on_c, 0, 62, 74
2, 57551, Note_on_c, 0, 47, 54
2, 57553, Note_on_c, 0, 56, 66
2, 57557, Note_on_c, 0, 41, 50
2, 57658, Control_c, 0, 64, 63
2, 57671, Control_c, 0, 64, 0
2, 57740, Control_c, 0, 64, 63
2, 57752, Control_c, 0, 64, 127
2, 57913, Note_on_c, 0, 62, 0
2, 57948, Note_on_c, 0, 56, 0
2, 57953, Note_on_c, 0, 47, 0
2, 58017, Note_on_c, 0, 41, 0
2, 58212, Note_on_c, 0, 49, 61
2, 58216, Note_on_c, 0, 64, 78
2, 58227, Note_on_c, 0, 40, 55
2, 58229, Note_on_c, 0, 55, 38
2, 58300, Control_c, 0, 64, 63
2, 58311, Control_c, 0, 64, 0
2, 58368, Control_c, 0, 64, 63
2, 58379, Control_c, 0, 64, 127
2, 58599, Note_on_c, 0, 49, 0
2, 58739, Note_on_c, 0, 55, 0
2, 59060, Note_on_c, 0, 65, 89
2, 59064, Note_on_c, 0, 38, 53
2, 59066, Note_on_c, 0, 53, 52
2, 59068, Note_on_c, 0, 50, 42
2, 59104, Note_on_c, 0, 40, 0
2, 59105, Note_on_c, 0, 64, 0
2, 59254, Control_c, 0, 64, 63
2, 59299, Control_c, 0, 64, 0
2, 59732, Control_c, 0, 64, 63
2, 59765, Control_c, 0, 64, 127
2, 60176, Note_on_c, 0, 65, 0
2, 60212, Note_on_c, 0, 53, 0
2, 60304, Note_on_c, 0, 50, 0
2, 60362, Note_on_c, 0, 38, 0
2, 60722, Note_on_c, 0, 59, 49
2, 60728, Note_on_c, 0, 50, 29
2, 60731, Note_on_c, 0, 53, 14
2, 60734, Note_on_c, 0, 43, 39
2, 60821, Control_c, 0, 64, 63
2, 60836, Control_c, 0, 64, 0
2, 60885, Control_c, 0, 64, 63
2, 60896, Control_c, 0, 64, 127
2, 61018, Note_on_c, 0, 43, 0
2, 61020, Note_on_c, 0, 50, 0
2, 62003, Note_on_c, 0, 53, 0
2, 62042, Note_on_c, 0, 59, 0
2, 62282, Note_on_c, 0, 44, 37
2, 62328, Note_on_c, 0, 60, 44
2, 62588, Note_on_c, 0, 32, 56
2, 62642, Note_on_c, 0, 48, 63
2, 62680, Control_c, 0, 64, 63
2, 62696, Control_c, 0, 64, 0
2, 62784, Control_c, 0, 64, 63
2, 62793, Control_c, 0, 64, 127
2, 62939, Note_on_c, 0, 51, 50
2, 63094, Note_on_c, 0, 60, 0
2, 63122, Note_on_c, 0, 56, 58
2, 63277, Note_on_c, 0, 60, 74
2, 63312, Note_on_c, 0, 56, 0
2, 63424, Note_on_c, 0, 51, 0
2, 63426, Note_on_c, 0, 56, 80
2, 63557, Note_on_c, 0, 51, 69
2, 63568, Note_on_c, 0, 44, 0
2, 63572, Note_on_c, 0, 48, 0
2, 63605, Note_on_c, 0, 60, 0
2, 63619, Note_on_c, 0, 32, 0
2, 63691, Note_on_c, 0, 32, 76
2, 63691, Note_on_c, 0, 44, 80
2, 63699, Note_on_c, 0, 48, 56
2, 63730, Note_on_c, 0, 56, 0
2, 63730, Note_on_c, 0, 51, 0
2, 63838, Note_on_c, 0, 51, 80
2, 63972, Note_on_c, 0, 56, 65
2, 64028, Note_on_c, 0, 48, 0
2, 64060, Note_on_c, 0, 51, 0
2, 64071, Note_on_c, 0, 44, 0
2, 64082, Note_on_c, 0, 32, 0
2, 64104, Note_on_c, 0, 44, 88
2, 64108, Note_on_c, 0, 60, 69
2, 64112, Note_on_c, 0, 32, 84
2, 64130, Note_on_c, 0, 56, 0
2, 64242, Note_on_c, 0, 60, 0
2, 64253, Note_on_c, 0, 56, 68
2, 64315, Note_on_c, 0, 44, 0
2, 64376, Note_on_c, 0, 51, 80
2, 64519, Note_on_c, 0, 56, 0
2, 64528, Note_on_c, 0, 41, 77
2, 64534, Note_on_c, 0, 29, 74
2, 64535, Note_on_c, 0, 48, 70
2, 64536, Note_on_c, 0, 51, 0
2, 64567, Note_on_c, 0, 32, 0
2, 64623, Control_c, 0, 64, 63
2, 64641, Control_c, 0, 64, 0
2, 64707, Note_on_c, 0, 53, 59
2, 64722, Control_c, 0, 64, 63
2, 64737, Control_c, 0, 64, 127
2, 64832, Note_on_c, 0, 56, 68
2, 64971, Note_on_c, 0, 60, 64
2, 64994, Note_on_c, 0, 48, 0
2, 65027, Note_on_c, 0, 56, 0
2, 65037, Note_on_c, 0, 53, 0
2, 65114, Note_on_c, 0, 56, 58
2, 65241, Note_on_c, 0, 53, 46
2, 65292, Note_on_c, 0, 60, 0
2, 65306, Note_on_c, 0, 41, 0
2, 65321, Note_on_c, 0, 29, 0
2, 65382, Note_on_c, 0, 41, 54
2, 65384, Note_on_c, 0, 48, 42
2, 65385, Note_on_c, 0, 29, 55
2, 65388, Note_on_c, 0, 56, 0
2, 65417, Note_on_c, 0, 53, 0
2, 65475, Control_c, 0, 64, 63
2, 65527, Note_on_c, 0, 53, 39
2, 65530, Control_c, 0, 64, 127
2, 65641, Note_on_c, 0, 56, 64
2, 65769, Note_on_c, 0, 60, 53
2, 65800, Note_on_c, 0, 56, 0
2, 65805, Note_on_c, 0, 53, 0
2, 65876, Note_on_c, 0, 41, 0
2, 65906, Note_on_c, 0, 56, 46
2, 65946, Note_on_c, 0, 48, 0
2, 65954, Note_on_c, 0, 60, 0
2, 66044, Note_on_c, 0, 53, 43
2, 66110, Note_on_c, 0, 56, 0
2, 66228, Note_on_c, 0, 37, 42
2, 66229, Note_on_c, 0, 46, 61
2, 66231, Note_on_c, 0, 25, 40
2, 66251, Note_on_c, 0, 53, 0
2, 66294, Control_c, 0, 64, 63
2, 66307, Control_c, 0, 64, 0
2, 66324, Note_on_c, 0, 29, 0
2, 66369, Control_c, 0, 64, 63
2, 66381, Control_c, 0, 64, 127
2, 66431, Note_on_c, 0, 53, 50
2, 66545, Note_on_c, 0, 46, 0
2, 66579, Note_on_c, 0, 56, 58
2, 66611, Note_on_c, 0, 53, 0
2, 66697, Note_on_c, 0, 61, 78
2, 66726, Note_on_c, 0, 56, 0
2, 66766, Note_on_c, 0, 37, 0
2, 66820, Note_on_c, 0, 56, 74
2, 66936, Note_on_c, 0, 53, 68
2, 66942, Note_on_c, 0, 25, 0
2, 66948, Note_on_c, 0, 61, 0
2, 66984, Note_on_c, 0, 56, 0
2, 67071, Note_on_c, 0, 48, 93
2, 67072, Note_on_c, 0, 24, 78
2, 67072, Note_on_c, 0, 36, 71
2, 67107, Note_on_c, 0, 53, 0
2, 67133, Control_c, 0, 64, 63
2, 67148, Control_c, 0, 64, 0
2, 67195, Control_c, 0, 64, 63
2, 67207, Control_c, 0, 64, 127
2, 67230, Note_on_c, 0, 53, 74
2, 67312, Note_on_c, 0, 36, 0
2, 67354, Note_on_c, 0, 56, 86
2, 67378, Note_on_c, 0, 48, 0
2, 67519, Note_on_c, 0, 49, 100
2, 67523, Note_on_c, 0, 61, 76
2, 67525, Note_on_c, 0, 24, 0
2, 67525, Note_on_c, 0, 22, 74
2, 67526, Note_on_c, 0, 34, 67
2, 67540, Note_on_c, 0, 56, 0
2, 67547, Note_on_c, 0, 53, 0
2, 67601, Control_c, 0, 64, 63
2, 67674, Control_c, 0, 64, 127
2, 67695, Note_on_c, 0, 56, 78
2, 67723, Note_on_c, 0, 61, 0
2, 67866, Note_on_c, 0, 22, 0
2, 67908, Note_on_c, 0, 53, 96
2, 67952, Note_on_c, 0, 56, 0
2, 67966, Note_on_c, 0, 49, 0
2, 68170, Note_on_c, 0, 27, 58
2, 68171, Note_on_c, 0, 39, 57
2, 68225, Note_on_c, 0, 34, 0
2, 68239, Control_c, 0, 64, 63
2, 68256, Control_c, 0, 64, 0
2, 68330, Control_c, 0, 64, 63
2, 68344, Control_c, 0, 64, 127
2, 68413, Note_on_c, 0, 55, 50
2, 68579, Note_on_c, 0, 58, 64
2, 68713, Note_on_c, 0, 61, 56
2, 68742, Note_on_c, 0, 58, 0
2, 68787, Note_on_c, 0, 55, 0
2, 68861, Note_on_c, 0, 58, 53
2, 69005, Note_on_c, 0, 55, 33
2, 69033, Note_on_c, 0, 53, 0
2, 69169, Note_on_c, 0, 51, 63
2, 69212, Note_on_c, 0, 55, 0
2, 69215, Note_on_c, 0, 58, 0
2, 69353, Note_on_c, 0, 55, 29
2, 69354, Note_on_c, 0, 61, 0
2, 69517, Note_on_c, 0, 58, 45
2, 69686, Note_on_c, 0, 61, 43
2, 69743, Note_on_c, 0, 58, 0
2, 69886, Note_on_c, 0, 58, 40
2, 69961, Note_on_c, 0, 55, 0
2, 70139, Note_on_c, 0, 55, 22
2, 70146, Note_on_c, 0, 61, 0
2, 70246, Note_on_c, 0, 39, 0
2, 70254, Note_on_c, 0, 58, 0
2, 70274, Note_on_c, 0, 27, 0
2, 70327, Note_on_c, 0, 51, 0
2, 70416, Note_on_c, 0, 55, 0
2, 70493, Note_on_c, 0, 32, 62
2, 70523, Control_c, 0, 67, 0
2, 70540, Control_c, 0, 64, 63
2, 70542, Note_on_c, 0, 63, 59
2, 70556, Control_c, 0, 64, 0
2, 70604, Control_c, 0, 64, 63
2, 70610, Control_c, 0, 64, 127
2, 70703, Note_on_c, 0, 32, 0
2, 70928, Note_on_c, 0, 58, 44
2, 70939, Note_on_c, 0, 51, 45
2, 70939, Note_on_c, 0, 49, 41
2, 70941, Note_on_c, 0, 55, 30
2, 70998, Note_on_c, 0, 49, 0
2, 71018, Note_on_c, 0, 51, 0
2, 71074, Note_on_c, 0, 58, 0
2, 71081, Note_on_c, 0, 55, 0
2, 71142, Note_on_c, 0, 49, 37
2, 71150, Note_on_c, 0, 58, 64
2, 71151, Note_on_c, 0, 55, 43
2, 71154, Note_on_c, 0, 51, 28
2, 71216, Note_on_c, 0, 49, 0
2, 71218, Note_on_c, 0, 51, 0
2, 71223, Note_on_c, 0, 63, 0
2, 71338, Note_on_c, 0, 49, 26
2, 71339, Note_on_c, 0, 65, 79
2, 71352, Note_on_c, 0, 51, 29
2, 71433, Note_on_c, 0, 55, 0
2, 71439, Note_on_c, 0, 58, 0
2, 71466, Note_on_c, 0, 49, 0
2, 71472, Note_on_c, 0, 51, 0
2, 71548, Note_on_c, 0, 58, 65
2, 71560, Note_on_c, 0, 55, 48
2, 71563, Note_on_c, 0, 49, 36
2, 71580, Note_on_c, 0, 51, 13
2, 71600, Note_on_c, 0, 49, 0
2, 71614, Note_on_c, 0, 51, 0
2, 71622, Note_on_c, 0, 55, 0
2, 71638, Note_on_c, 0, 58, 0
2, 71704, Note_on_c, 0, 65, 0
2, 71712, Note_on_c, 0, 49, 51
2, 71713, Note_on_c, 0, 58, 73
2, 71714, Note_on_c, 0, 51, 51
2, 71716, Note_on_c, 0, 55, 63
2, 71781, Note_on_c, 0, 51, 0
2, 71784, Note_on_c, 0, 55, 0
2, 71791, Note_on_c, 0, 63, 97
2, 71823, Note_on_c, 0, 58, 0
2, 71824, Note_on_c, 0, 49, 0
2, 71854, Note_on_c, 0, 63, 0
2, 71881, Note_on_c, 0, 63, 90
2, 71883, Note_on_c, 0, 47, 59
2, 71967, Control_c, 0, 64, 63
2, 72015, Control_c, 0, 64, 127
2, 72041, Note_on_c, 0, 48, 51
2, 72042, Note_on_c, 0, 56, 44
2, 72043, Note_on_c, 0, 51, 70
2, 72047, Note_on_c, 0, 60, 60
2, 72074, Note_on_c, 0, 47, 0
2, 72108, Note_on_c, 0, 56, 0
2, 72118, Note_on_c, 0, 51, 0
2, 72125, Note_on_c, 0, 48, 0
2, 72131, Note_on_c, 0, 60, 0
2, 72185, Note_on_c, 0, 56, 65
2, 72187, Note_on_c, 0, 51, 63
2, 72190, Note_on_c, 0, 48, 44
2, 72195, Note_on_c, 0, 60, 64
2, 72264, Note_on_c, 0, 56, 0
2, 72279, Note_on_c, 0, 63, 0
2, 72312, Note_on_c, 0, 68, 104
2, 72321, Note_on_c, 0, 51, 0
2, 72333, Note_on_c, 0, 48, 0
2, 72342, Note_on_c, 0, 60, 0
2, 72439, Note_on_c, 0, 51, 56
2, 72443, Note_on_c, 0, 48, 47
2, 72446, Note_on_c, 0, 60, 57
2, 72450, Note_on_c, 0, 56, 36
2, 72498, Note_on_c, 0, 56, 0
2, 72503, Note_on_c, 0, 51, 0
2, 72517, Note_on_c, 0, 60, 0
2, 72520, Note_on_c, 0, 48, 0
2, 72583, Note_on_c, 0, 51, 59
2, 72587, Note_on_c, 0, 56, 69
2, 72588, Note_on_c, 0, 60, 84
2, 72593, Note_on_c, 0, 68, 0
2, 72640, Note_on_c, 0, 51, 0
2, 72652, Note_on_c, 0, 56, 0
2, 72662, Note_on_c, 0, 63, 95
2, 72681, Note_on_c, 0, 60, 0
2, 72731, Note_on_c, 0, 63, 0
2, 72753, Note_on_c, 0, 45, 54
2, 72758, Note_on_c, 0, 63, 100
2, 72821, Control_c, 0, 64, 63
2, 72838, Control_c, 0, 64, 0
2, 72866, Control_c, 0, 64, 63
2, 72883, Control_c, 0, 64, 127
2, 72894, Note_on_c, 0, 61, 70
2, 72898, Note_on_c, 0, 46, 70
2, 72901, Note_on_c, 0, 51, 65
2, 72902, Note_on_c, 0, 55, 56
2, 72959, Note_on_c, 0, 51, 0
2, 72964, Note_on_c, 0, 46, 0
2, 72985, Note_on_c, 0, 55, 0
2, 72995, Note_on_c, 0, 61, 0
2, 73034, Note_on_c, 0, 46, 60
2, 73037, Note_on_c, 0, 55, 65
2, 73042, Note_on_c, 0, 45, 0
2, 73042, Note_on_c, 0, 61, 63
2, 73043, Note_on_c, 0, 51, 52
2, 73083, Note_on_c, 0, 55, 0
2, 73086, Note_on_c, 0, 51, 0
2, 73093, Note_on_c, 0, 46, 0
2, 73096, Note_on_c, 0, 61, 0
2, 73125, Note_on_c, 0, 55, 51
2, 73128, Note_on_c, 0, 61, 92
2, 73146, Note_on_c, 0, 63, 0
2, 73210, Note_on_c, 0, 46, 49
2, 73219, Note_on_c, 0, 51, 40
2, 73226, Note_on_c, 0, 67, 84
2, 73266, Control_c, 0, 64, 63
2, 73282, Control_c, 0, 64, 0
2, 73302, Control_c, 0, 64, 63
2, 73319, Control_c, 0, 64, 127
2, 73350, Note_on_c, 0, 61, 0
2, 73368, Note_on_c, 0, 55, 0
2, 73397, Note_on_c, 0, 51, 0
2, 73398, Note_on_c, 0, 46, 0
2, 73437, Note_on_c, 0, 67, 0
2, 73440, Note_on_c, 0, 65, 83
2, 73442, Note_on_c, 0, 46, 44
2, 73443, Note_on_c, 0, 51, 53
2, 73443, Note_on_c, 0, 61, 77
2, 73444, Note_on_c, 0, 55, 60
2, 73502, Note_on_c, 0, 55, 0
2, 73509, Note_on_c, 0, 46, 0
2, 73513, Note_on_c, 0, 51, 0
2, 73542, Note_on_c, 0, 61, 0
2, 73619, Note_on_c, 0, 46, 65
2, 73620, Note_on_c, 0, 51, 64
2, 73627, Note_on_c, 0, 55, 64
2, 73668, Note_on_c, 0, 55, 0
2, 73701, Note_on_c, 0, 51, 0
2, 73718, Note_on_c, 0, 46, 0
2, 73734, Note_on_c, 0, 63, 94
2, 73780, Note_on_c, 0, 65, 0
2, 73814, Note_on_c, 0, 63, 0
2, 73861, Note_on_c, 0, 63, 110
2, 73863, Note_on_c, 0, 43, 65
2, 73942, Control_c, 0, 64, 63
2, 73952, Control_c, 0, 64, 0
2, 74008, Control_c, 0, 64, 63
2, 74021, Control_c, 0, 64, 127
2, 74045, Note_on_c, 0, 51, 53
2, 74047, Note_on_c, 0, 44, 60
2, 74051, Note_on_c, 0, 60, 65
2, 74060, Note_on_c, 0, 56, 29
2, 74119, Note_on_c, 0, 51, 0
2, 74120, Note_on_c, 0, 43, 0
2, 74122, Note_on_c, 0, 56, 0
2, 74127, Note_on_c, 0, 44, 0
2, 74130, Note_on_c, 0, 60, 0
2, 74185, Note_on_c, 0, 56, 78
2, 74187, Note_on_c, 0, 60, 84
2, 74199, Note_on_c, 0, 63, 0
2, 74202, Note_on_c, 0, 51, 60
2, 74202, Note_on_c, 0, 44, 65
2, 74221, Note_on_c, 0, 56, 0
2, 74228, Note_on_c, 0, 60, 0
2, 74255, Note_on_c, 0, 51, 0
2, 74259, Note_on_c, 0, 44, 0
2, 74367, Note_on_c, 0, 72, 91
2, 74370, Note_on_c, 0, 44, 52
2, 74378, Note_on_c, 0, 51, 42
2, 74405, Note_on_c, 0, 72, 0
2, 74414, Note_on_c, 0, 51, 0
2, 74416, Note_on_c, 0, 44, 0
2, 74567, Note_on_c, 0, 56, 50
2, 74569, Note_on_c, 0, 51, 50
2, 74572, Note_on_c, 0, 60, 62
2, 74572, Note_on_c, 0, 44, 42
2, 74613, Note_on_c, 0, 56, 0
2, 74615, Note_on_c, 0, 44, 0
2, 74616, Note_on_c, 0, 51, 0
2, 74628, Note_on_c, 0, 60, 0
2, 74815, Note_on_c, 0, 51, 38
2, 74823, Note_on_c, 0, 60, 43
2, 74823, Note_on_c, 0, 56, 39
2, 74824, Note_on_c, 0, 44, 33
2, 74902, Note_on_c, 0, 56, 0
2, 74902, Note_on_c, 0, 51, 0
2, 74913, Note_on_c, 0, 44, 0
2, 74951, Note_on_c, 0, 63, 85
2, 74983, Note_on_c, 0, 60, 0
2, 75089, Note_on_c, 0, 63, 0
2, 75189, Note_on_c, 0, 43, 32
2, 75194, Note_on_c, 0, 36, 38
2, 75213, Note_on_c, 0, 64, 51
2, 75214, Note_on_c, 0, 67, 51
2, 75222, Note_on_c, 0, 55, 10
2, 75222, Note_on_c, 0, 60, 40
2, 75279, Control_c, 0, 64, 63
2, 75288, Control_c, 0, 64, 0
2, 75347, Control_c, 0, 64, 63
2, 75353, Control_c, 0, 64, 127
2, 75514, Note_on_c, 0, 48, 47
2, 75541, Control_c, 0, 67, 127
2, 75599, Note_on_c, 0, 36, 0
2, 75618, Note_on_c, 0, 43, 0
2, 75661, Note_on_c, 0, 55, 0
2, 75708, Note_on_c, 0, 52, 54
2, 75714, Note_on_c, 0, 48, 0
2, 75858, Note_on_c, 0, 55, 38
2, 75896, Note_on_c, 0, 52, 0
2, 75996, Note_on_c, 0, 52, 55
2, 76053, Note_on_c, 0, 55, 0
2, 76136, Note_on_c, 0, 48, 44
2, 76251, Note_on_c, 0, 43, 52
2, 76297, Note_on_c, 0, 48, 0
2, 76314, Note_on_c, 0, 52, 0
2, 76385, Note_on_c, 0, 48, 54
2, 76518, Note_on_c, 0, 52, 44
2, 76568, Note_on_c, 0, 48, 0
2, 76630, Note_on_c, 0, 55, 49
2, 76634, Note_on_c, 0, 52, 0
2, 76717, Note_on_c, 0, 55, 0
2, 76737, Note_on_c, 0, 52, 45
2, 76750, Note_on_c, 0, 43, 0
2, 76853, Note_on_c, 0, 48, 56
2, 76858, Note_on_c, 0, 52, 0
2, 76898, Note_on_c, 0, 48, 0
2, 76977, Note_on_c, 0, 43, 60
2, 76982, Note_on_c, 0, 36, 50
2, 77085, Note_on_c, 0, 36, 0
2, 77104, Note_on_c, 0, 48, 70
2, 77111, Note_on_c, 0, 43, 0
2, 77177, Note_on_c, 0, 48, 0
2, 77220, Note_on_c, 0, 52, 76
2, 77333, Note_on_c, 0, 52, 0
2, 77335, Note_on_c, 0, 55, 83
2, 77450, Note_on_c, 0, 52, 71
2, 77462, Note_on_c, 0, 55, 0
2, 77578, Note_on_c, 0, 48, 68
2, 77583, Note_on_c, 0, 52, 0
2, 77619, Note_on_c, 0, 48, 0
2, 77699, Note_on_c, 0, 43, 62
2, 77711, Note_on_c, 0, 36, 25
2, 77803, Note_on_c, 0, 36, 0
2, 77836, Note_on_c, 0, 48, 57
2, 77840, Note_on_c, 0, 43, 0
2, 77941, Note_on_c, 0, 48, 0
2, 77973, Note_on_c, 0, 52, 42
2, 78112, Note_on_c, 0, 52, 0
2, 78118, Note_on_c, 0, 55, 39
2, 78196, Note_on_c, 0, 60, 0
2, 78231, Note_on_c, 0, 67, 0
2, 78239, Note_on_c, 0, 55, 0
2, 78249, Note_on_c, 0, 64, 0
2, 78272, Note_on_c, 0, 52, 41
2, 78306, Note_on_c, 0, 52, 0
2, 78444, Note_on_c, 0, 48, 49
2, 78627, Note_on_c, 0, 48, 0
2, 78710, Note_on_c, 0, 36, 39
2, 78742, Note_on_c, 0, 72, 71
2, 78748, Control_c, 0, 64, 63
2, 78757, Control_c, 0, 64, 0
2, 78805, Control_c, 0, 64, 63
2, 78810, Control_c, 0, 64, 127
2, 78847, Control_c, 0, 67, 0
2, 78902, Note_on_c, 0, 36, 0
2, 79093, Note_on_c, 0, 67, 32
2, 79094, Note_on_c, 0, 58, 44
2, 79101, Note_on_c, 0, 64, 24
2, 79113, Note_on_c, 0, 60, 32
2, 79151, Note_on_c, 0, 58, 0
2, 79156, Note_on_c, 0, 60, 0
2, 79175, Note_on_c, 0, 67, 0
2, 79182, Note_on_c, 0, 64, 0
2, 79285, Note_on_c, 0, 58, 41
2, 79291, Note_on_c, 0, 67, 57
2, 79298, Note_on_c, 0, 60, 31
2, 79300, Note_on_c, 0, 64, 32
2, 79343, Note_on_c, 0, 60, 0
2, 79347, Note_on_c, 0, 58, 0
2, 79362, Note_on_c, 0, 72, 0
2, 79398, Note_on_c, 0, 64, 0
2, 79464, Note_on_c, 0, 58, 34
2, 79465, Note_on_c, 0, 74, 82
2, 79470, Note_on_c, 0, 60, 16
2, 79509, Note_on_c, 0, 67, 0
2, 79565, Note_on_c, 0, 60, 0
2, 79567, Note_on_c, 0, 58, 0
2, 79641, Note_on_c, 0, 67, 58
2, 79644, Note_on_c, 0, 64, 63
2, 79645, Note_on_c, 0, 58, 53
2, 79649, Note_on_c, 0, 60, 42
2, 79703, Note_on_c, 0, 60, 0
2, 79708, Note_on_c, 0, 58, 0
2, 79711, Note_on_c, 0, 64, 0
2, 79727, Note_on_c, 0, 67, 0
2, 79786, Note_on_c, 0, 67, 67
2, 79786, Note_on_c, 0, 58, 53
2, 79795, Note_on_c, 0, 64, 62
2, 79800, Note_on_c, 0, 60, 30
2, 79837, Note_on_c, 0, 64, 0
2, 79852, Note_on_c, 0, 60, 0
2, 79854, Note_on_c, 0, 58, 0
2, 79866, Note_on_c, 0, 72, 97
2, 79877, Note_on_c, 0, 67, 0
2, 79896, Note_on_c, 0, 74, 0
2, 79952, Note_on_c, 0, 56, 59
2, 79954, Note_on_c, 0, 72, 0
2, 80000, Note_on_c, 0, 72, 94
2, 80063, Control_c, 0, 64, 63
2, 80078, Control_c, 0, 64, 0
2, 80092, Control_c, 0, 64, 63
2, 80112, Control_c, 0, 64, 127
2, 80169, Note_on_c, 0, 60, 44
2, 80170, Note_on_c, 0, 69, 59
2, 80171, Note_on_c, 0, 65, 39
2, 80176, Note_on_c, 0, 57, 37
2, 80239, Note_on_c, 0, 60, 0
2, 80249, Note_on_c, 0, 65, 0
2, 80251, Note_on_c, 0, 69, 0
2, 80260, Note_on_c, 0, 57, 0
2, 80298, Note_on_c, 0, 56, 0
2, 80309, Note_on_c, 0, 65, 65
2, 80310, Note_on_c, 0, 69, 70
2, 80312, Note_on_c, 0, 57, 63
2, 80316, Note_on_c, 0, 60, 73
2, 80319, Note_on_c, 0, 72, 0
2, 80391, Note_on_c, 0, 57, 0
2, 80392, Note_on_c, 0, 60, 0
2, 80447, Note_on_c, 0, 77, 104
2, 80462, Note_on_c, 0, 60, 50
2, 80464, Note_on_c, 0, 57, 39
2, 80482, Note_on_c, 0, 69, 0
2, 80486, Note_on_c, 0, 65, 0
2, 80518, Note_on_c, 0, 60, 0
2, 80524, Note_on_c, 0, 57, 0
2, 80582, Note_on_c, 0, 69, 76
2, 80588, Note_on_c, 0, 65, 66
2, 80595, Note_on_c, 0, 60, 55
2, 80596, Note_on_c, 0, 57, 50
2, 80639, Note_on_c, 0, 60, 0
2, 80651, Note_on_c, 0, 65, 0
2, 80653, Note_on_c, 0, 57, 0
2, 80657, Note_on_c, 0, 69, 0
2, 80721, Note_on_c, 0, 69, 84
2, 80725, Note_on_c, 0, 57, 46
2, 80730, Note_on_c, 0, 65, 71
2, 80738, Note_on_c, 0, 60, 30
2, 80757, Note_on_c, 0, 77, 0
2, 80786, Note_on_c, 0, 60, 0
2, 80806, Note_on_c, 0, 65, 0
2, 80806, Note_on_c, 0, 72, 99
2, 80810, Note_on_c, 0, 57, 0
2, 80831, Note_on_c, 0, 69, 0
2, 80875, Note_on_c, 0, 72, 0
2, 80914, Note_on_c, 0, 72, 93
2, 80917, Note_on_c, 0, 54, 53
2, 80978, Control_c, 0, 64, 63
2, 80991, Control_c, 0, 64, 0
2, 81027, Control_c, 0, 64, 63
2, 81040, Control_c, 0, 64, 127
2, 81079, Note_on_c, 0, 55, 56
2, 81081, Note_on_c, 0, 70, 75
2, 81082, Note_on_c, 0, 60, 47
2, 81091, Note_on_c, 0, 64, 41
2, 81122, Note_on_c, 0, 54, 0
2, 81144, Note_on_c, 0, 60, 0
2, 81147, Note_on_c, 0, 55, 0
2, 81148, Note_on_c, 0, 64, 0
2, 81177, Note_on_c, 0, 70, 0
2, 81206, Note_on_c, 0, 70, 95
2, 81214, Note_on_c, 0, 55, 47
2, 81217, Note_on_c, 0, 64, 54
2, 81218, Note_on_c, 0, 60, 54
2, 81250, Note_on_c, 0, 64, 0
2, 81261, Note_on_c, 0, 60, 0
2, 81265, Note_on_c, 0, 55, 0
2, 81266, Note_on_c, 0, 70, 0
2, 81269, Note_on_c, 0, 72, 0
2, 81289, Note_on_c, 0, 70, 90
2, 81291, Note_on_c, 0, 64, 65
2, 81402, Note_on_c, 0, 60, 27
2, 81402, Note_on_c, 0, 55, 29
2, 81405, Note_on_c, 0, 64, 0
2, 81419, Note_on_c, 0, 76, 86
2, 81449, Note_on_c, 0, 70, 0
2, 81535, Note_on_c, 0, 60, 0
2, 81542, Note_on_c, 0, 55, 0
2, 81599, Note_on_c, 0, 76, 0
2, 81622, Note_on_c, 0, 74, 87
2, 81631, Note_on_c, 0, 70, 70
2, 81633, Note_on_c, 0, 60, 26
2, 81639, Note_on_c, 0, 55, 30
2, 81642, Note_on_c, 0, 64, 35
2, 81693, Note_on_c, 0, 64, 0
2, 81727, Note_on_c, 0, 60, 0
2, 81739, Note_on_c, 0, 55, 0
2, 81750, Note_on_c, 0, 70, 0
2, 81798, Note_on_c, 0, 70, 94
2, 81802, Note_on_c, 0, 55, 44
2, 81809, Note_on_c, 0, 64, 67
2, 81812, Note_on_c, 0, 60, 26
2, 81833, Note_on_c, 0, 74, 0
2, 81870, Note_on_c, 0, 64, 0
2, 81870, Note_on_c, 0, 72, 89
2, 81887, Note_on_c, 0, 60, 0
2, 81896, Note_on_c, 0, 70, 0
2, 81922, Note_on_c, 0, 55, 0
2, 81941, Note_on_c, 0, 72, 0
2, 81970, Note_on_c, 0, 72, 88
2, 81971, Note_on_c, 0, 52, 65
2, 82037, Control_c, 0, 64, 63
2, 82043, Control_c, 0, 64, 0
2, 82085, Control_c, 0, 64, 63
2, 82094, Control_c, 0, 64, 127
2, 82117, Note_on_c, 0, 69, 70
2, 82120, Note_on_c, 0, 65, 54
2, 82131, Note_on_c, 0, 53, 47
2, 82131, Note_on_c, 0, 60, 54
2, 82149, Note_on_c, 0, 52, 0
2, 82198, Note_on_c, 0, 60, 0
2, 82206, Note_on_c, 0, 69, 0
2, 82209, Note_on_c, 0, 53, 0
2, 82211, Note_on_c, 0, 65, 0
2, 82258, Note_on_c, 0, 69, 80
2, 82260, Note_on_c, 0, 65, 63
2, 82277, Note_on_c, 0, 53, 64
2, 82279, Note_on_c, 0, 60, 59
2, 82288, Note_on_c, 0, 72, 0
2, 82308, Note_on_c, 0, 65, 0
2, 82313, Note_on_c, 0, 69, 0
2, 82335, Note_on_c, 0, 60, 0
2, 82350, Note_on_c, 0, 53, 0
2, 82435, Note_on_c, 0, 53, 40
2, 82453, Note_on_c, 0, 81, 91
2, 82456, Note_on_c, 0, 60, 48
2, 82495, Note_on_c, 0, 81, 0
2, 82505, Note_on_c, 0, 60, 0
2, 82517, Note_on_c, 0, 53, 0
2, 82664, Note_on_c, 0, 69, 45
2, 82671, Note_on_c, 0, 65, 32
2, 82674, Note_on_c, 0, 60, 29
2, 82676, Note_on_c, 0, 53, 34
2, 82739, Note_on_c, 0, 60, 0
2, 82750, Note_on_c, 0, 53, 0
2, 82758, Note_on_c, 0, 65, 0
2, 82774, Note_on_c, 0, 69, 0
2, 82900, Note_on_c, 0, 69, 60
2, 82903, Note_on_c, 0, 53, 41
2, 82903, Note_on_c, 0, 60, 31
2, 82924, Note_on_c, 0, 65, 29
2, 82957, Note_on_c, 0, 60, 0
2, 82967, Note_on_c, 0, 65, 0
2, 82992, Note_on_c, 0, 53, 0
2, 83025, Note_on_c, 0, 69, 0
2, 83053, Note_on_c, 0, 72, 66
2, 83105, Note_on_c, 0, 72, 0
2, 83336, Note_on_c, 0, 38, 31
2, 83339, Note_on_c, 0, 45, 27
2, 83352, Note_on_c, 0, 66, 52
2, 83354, Note_on_c, 0, 69, 51
2, 83364, Note_on_c, 0, 62, 51
2, 83369, Note_on_c, 0, 57, 14
2, 83415, Control_c, 0, 64, 63
2, 83424, Control_c, 0, 64, 0
2, 83516, Control_c, 0, 64, 63
2, 83523, Control_c, 0, 64, 127
2, 83629, Control_c, 0, 67, 127
2, 83679, Note_on_c, 0, 50, 52
2, 83741, Note_on_c, 0, 38, 0
2, 83773, Note_on_c, 0, 45, 0
2, 83848, Note_on_c, 0, 57, 0
2, 83883, Note_on_c, 0, 54, 80
2, 83886, Note_on_c, 0, 50, 0
2, 84022, Note_on_c, 0, 54, 0
2, 84028, Note_on_c, 0, 57, 71
2, 84160, Note_on_c, 0, 54, 81
2, 84173, Note_on_c, 0, 57, 0
2, 84236, Note_on_c, 0, 54, 0
2, 84286, Note_on_c, 0, 50, 81
2, 84401, Note_on_c, 0, 50, 0
2, 84408, Note_on_c, 0, 45, 38
2, 84409, Note_on_c, 0, 38, 51
2, 84506, Note_on_c, 0, 38, 0
2, 84540, Note_on_c, 0, 45, 0
2, 84541, Note_on_c, 0, 50, 59
2, 84642, Note_on_c, 0, 50, 0
2, 84653, Note_on_c, 0, 54, 67
2, 84774, Note_on_c, 0, 54, 0
2, 84777, Note_on_c, 0, 57, 47
2, 84896, Note_on_c, 0, 57, 0
2, 84897, Note_on_c, 0, 54, 61
2, 84968, Note_on_c, 0, 54, 0
2, 85017, Note_on_c, 0, 50, 65
2, 85107, Note_on_c, 0, 50, 0
2, 85140, Note_on_c, 0, 45, 36
2, 85143, Note_on_c, 0, 38, 36
2, 85228, Note_on_c, 0, 38, 0
2, 85262, Note_on_c, 0, 45, 0
2, 85267, Note_on_c, 0, 50, 47
2, 85363, Note_on_c, 0, 50, 0
2, 85382, Note_on_c, 0, 54, 57
2, 85481, Note_on_c, 0, 54, 0
2, 85494, Note_on_c, 0, 57, 43
2, 85608, Note_on_c, 0, 57, 0
2, 85620, Note_on_c, 0, 54, 45
2, 85692, Note_on_c, 0, 54, 0
2, 85742, Note_on_c, 0, 50, 53
2, 85818, Note_on_c, 0, 50, 0
2, 85889, Note_on_c, 0, 38, 10
2, 85890, Note_on_c, 0, 45, 8
2, 85956, Note_on_c, 0, 38, 0
2, 85993, Note_on_c, 0, 45, 0
2, 85998, Note_on_c, 0, 50, 46
2, 86094, Note_on_c, 0, 50, 0
2, 86124, Note_on_c, 0, 54, 29
2, 86247, Note_on_c, 0, 54, 0
2, 86258, Note_on_c, 0, 57, 31
2, 86390, Note_on_c, 0, 57, 0
2, 86399, Note_on_c, 0, 54, 46
2, 86428, Note_on_c, 0, 62, 0
2, 86450, Note_on_c, 0, 69, 0
2, 86460, Note_on_c, 0, 66, 0
2, 86482, Note_on_c, 0, 54, 0
2, 86570, Note_on_c, 0, 50, 48
2, 86815, Note_on_c, 0, 50, 0
2, 86835, Note_on_c, 0, 38, 41
2, 86865, Note_on_c, 0, 74, 63
2, 86874, Control_c, 0, 64, 63
2, 86883, Control_c, 0, 64, 0
2, 86925, Control_c, 0, 67, 0
2, 86934, Control_c, 0, 64, 63
2, 86939, Control_c, 0, 64, 127
2, 87014, Note_on_c, 0, 38, 0
2, 87212, Note_on_c, 0, 62, 23
2, 87221, Note_on_c, 0, 69, 34
2, 87222, Note_on_c, 0, 66, 12
2, 87223, Note_on_c, 0, 60, 30
2, 87290, Note_on_c, 0, 60, 0
2, 87291, Note_on_c, 0, 62, 0
2, 87307, Note_on_c, 0, 66, 0
2, 87325, Note_on_c, 0, 69, 0
2, 87432, Note_on_c, 0, 66, 36
2, 87435, Note_on_c, 0, 69, 38
2, 87441, Note_on_c, 0, 60, 25
2, 87444, Note_on_c, 0, 62, 15
2, 87487, Note_on_c, 0, 74, 0
2, 87490, Note_on_c, 0, 60, 0
2, 87492, Note_on_c, 0, 66, 0
2, 87494, Note_on_c, 0, 62, 0
2, 87594, Note_on_c, 0, 69, 0
2, 87615, Note_on_c, 0, 75, 87
2, 87626, Note_on_c, 0, 62, 19
2, 87628, Note_on_c, 0, 60, 24
2, 87707, Note_on_c, 0, 60, 0
2, 87713, Note_on_c, 0, 62, 0
2, 87819, Note_on_c, 0, 69, 41
2, 87819, Note_on_c, 0, 66, 36
2, 87820, Note_on_c, 0, 60, 26
2, 87821, Note_on_c, 0, 62, 18
2, 87872, Note_on_c, 0, 60, 0
2, 87876, Note_on_c, 0, 62, 0
2, 87881, Note_on_c, 0, 66, 0
2, 87913, Note_on_c, 0, 69, 0
2, 87970, Note_on_c, 0, 69, 72
2, 87972, Note_on_c, 0, 66, 74
2, 87979, Note_on_c, 0, 60, 35
2, 87986, Note_on_c, 0, 62, 24
2, 87996, Note_on_c, 0, 75, 0
2, 88039, Note_on_c, 0, 66, 0
2, 88059, Note_on_c, 0, 74, 87
2, 88071, Note_on_c, 0, 62, 0
2, 88085, Note_on_c, 0, 69, 0
2, 88125, Note_on_c, 0, 60, 0
2, 88132, Note_on_c, 0, 74, 0
2, 88167, Note_on_c, 0, 57, 40
2, 88180, Note_on_c, 0, 74, 84
2, 88251, Control_c, 0, 64, 63
2, 88264, Control_c, 0, 64, 0
2, 88274, Control_c, 0, 64, 63
2, 88292, Control_c, 0, 64, 127
2, 88343, Note_on_c, 0, 70, 70
2, 88346, Note_on_c, 0, 58, 55
2, 88349, Note_on_c, 0, 62, 40
2, 88353, Note_on_c, 0, 67, 28
2, 88408, Note_on_c, 0, 62, 0
2, 88411, Note_on_c, 0, 58, 0
2, 88411, Note_on_c, 0, 70, 0
2, 88413, Note_on_c, 0, 67, 0
2, 88476, Note_on_c, 0, 70, 86
2, 88480, Note_on_c, 0, 67, 63
2, 88487, Note_on_c, 0, 74, 0
2, 88488, Note_on_c, 0, 62, 62
2, 88489, Note_on_c, 0, 58, 63
2, 88518, Note_on_c, 0, 57, 0
2, 88536, Note_on_c, 0, 62, 0
2, 88543, Note_on_c, 0, 58, 0
2, 88565, Note_on_c, 0, 67, 0
2, 88596, Note_on_c, 0, 70, 0
2, 88631, Note_on_c, 0, 79, 97
2, 88633, Note_on_c, 0, 58, 54
2, 88637, Note_on_c, 0, 62, 44
2, 88701, Note_on_c, 0, 58, 0
2, 88716, Note_on_c, 0, 62, 0
2, 88740, Note_on_c, 0, 79, 0
2, 88774, Note_on_c, 0, 67, 59
2, 88775, Note_on_c, 0, 70, 75
2, 88785, Note_on_c, 0, 62, 61
2, 88789, Note_on_c, 0, 58, 57
2, 88827, Note_on_c, 0, 67, 0
2, 88833, Note_on_c, 0, 62, 0
2, 88834, Note_on_c, 0, 58, 0
2, 88848, Note_on_c, 0, 70, 0
2, 88911, Note_on_c, 0, 70, 89
2, 88915, Note_on_c, 0, 58, 58
2, 88915, Note_on_c, 0, 62, 54
2, 88917, Note_on_c, 0, 67, 68
2, 88966, Note_on_c, 0, 67, 0
2, 88973, Note_on_c, 0, 62, 0
2, 88982, Note_on_c, 0, 74, 99
2, 89000, Note_on_c, 0, 70, 0
2, 89046, Note_on_c, 0, 58, 0
2, 89049, Note_on_c, 0, 74, 0
2, 89093, Note_on_c, 0, 74, 92
2, 89096, Note_on_c, 0, 56, 64
2, 89169, Control_c, 0, 64, 63
2, 89181, Control_c, 0, 64, 0
2, 89230, Control_c, 0, 64, 63
2, 89237, Control_c, 0, 64, 127
2, 89284, Note_on_c, 0, 72, 84
2, 89287, Note_on_c, 0, 57, 48
2, 89292, Note_on_c, 0, 66, 57
2, 89294, Note_on_c, 0, 62, 39
2, 89354, Note_on_c, 0, 62, 0
2, 89354, Note_on_c, 0, 66, 0
2, 89360, Note_on_c, 0, 57, 0
2, 89379, Note_on_c, 0, 72, 0
2, 89415, Note_on_c, 0, 72, 82
2, 89419, Note_on_c, 0, 66, 76
2, 89426, Note_on_c, 0, 57, 57
2, 89430, Note_on_c, 0, 62, 59
2, 89455, Note_on_c, 0, 74, 0
2, 89476, Note_on_c, 0, 56, 0
2, 89479, Note_on_c, 0, 62, 0
2, 89482, Note_on_c, 0, 57, 0
2, 89494, Note_on_c, 0, 66, 0
2, 89523, Note_on_c, 0, 72, 0
2, 89573, Note_on_c, 0, 57, 32
2, 89574, Note_on_c, 0, 62, 36
2, 89577, Note_on_c, 0, 77, 94
2, 89713, Note_on_c, 0, 62, 0
2, 89720, Note_on_c, 0, 57, 0
2, 89806, Note_on_c, 0, 77, 0
2, 89808, Note_on_c, 0, 75, 104
2, 89815, Note_on_c, 0, 62, 32
2, 89818, Note_on_c, 0, 57, 30
2, 89821, Note_on_c, 0, 66, 67
2, 89832, Note_on_c, 0, 72, 29
2, 89886, Note_on_c, 0, 66, 0
2, 89902, Note_on_c, 0, 62, 0
2, 89910, Note_on_c, 0, 57, 0
2, 89920, Note_on_c, 0, 72, 0
2, 90001, Note_on_c, 0, 72, 89
2, 90006, Note_on_c, 0, 66, 75
2, 90007, Note_on_c, 0, 57, 49
2, 90012, Note_on_c, 0, 62, 38
2, 90053, Note_on_c, 0, 75, 0
2, 90072, Note_on_c, 0, 62, 0
2, 90073, Note_on_c, 0, 66, 0
2, 90081, Note_on_c, 0, 74, 99
2, 90114, Note_on_c, 0, 72, 0
2, 90153, Note_on_c, 0, 57, 0
2, 90171, Note_on_c, 0, 74, 0
2, 90197, Note_on_c, 0, 55, 59
2, 90197, Note_on_c, 0, 74, 92
2, 90295, Control_c, 0, 64, 63
2, 90303, Control_c, 0, 64, 0
2, 90343, Control_c, 0, 64, 63
2, 90353, Control_c, 0, 64, 127
2, 90360, Note_on_c, 0, 58, 68
2, 90361, Note_on_c, 0, 70, 79
2, 90371, Note_on_c, 0, 67, 60
2, 90374, Note_on_c, 0, 62, 43
2, 90424, Note_on_c, 0, 58, 0
2, 90430, Note_on_c, 0, 62, 0
2, 90431, Note_on_c, 0, 67, 0
2, 90440, Note_on_c, 0, 70, 0
2, 90492, Note_on_c, 0, 70, 94
2, 90501, Note_on_c, 0, 67, 51
2, 90501, Note_on_c, 0, 58, 71
2, 90504, Note_on_c, 0, 62, 71
2, 90516, Note_on_c, 0, 74, 0
2, 90527, Note_on_c, 0, 67, 0
2, 90532, Note_on_c, 0, 70, 0
2, 90565, Note_on_c, 0, 58, 0
2, 90567, Note_on_c, 0, 62, 0
2, 90644, Note_on_c, 0, 53, 85
2, 90669, Note_on_c, 0, 82, 94
2, 90689, Control_c, 0, 64, 63
2, 90704, Note_on_c, 0, 55, 0
2, 90716, Control_c, 0, 64, 127
2, 90823, Note_on_c, 0, 82, 0
2, 90880, Note_on_c, 0, 58, 40
2, 90891, Note_on_c, 0, 62, 33
2, 90952, Note_on_c, 0, 58, 0
2, 90968, Note_on_c, 0, 62, 0
2, 91082, Note_on_c, 0, 70, 59
2, 91093, Note_on_c, 0, 58, 29
2, 91109, Note_on_c, 0, 67, 11
2, 91110, Note_on_c, 0, 62, 34
2, 91209, Note_on_c, 0, 67, 0
2, 91221, Note_on_c, 0, 74, 67
2, 91242, Note_on_c, 0, 70, 0
2, 91246, Note_on_c, 0, 53, 0
2, 91355, Note_on_c, 0, 52, 43
2, 91365, Note_on_c, 0, 62, 0
2, 91402, Note_on_c, 0, 72, 76
2, 91403, Note_on_c, 0, 58, 0
2, 91416, Note_on_c, 0, 74, 0
2, 91440, Note_on_c, 0, 60, 76
2, 91460, Control_c, 0, 64, 63
2, 91471, Control_c, 0, 64, 0
2, 91511, Control_c, 0, 64, 63
2, 91522, Control_c, 0, 64, 127
2, 91584, Note_on_c, 0, 70, 61
2, 91606, Note_on_c, 0, 67, 16
2, 91696, Note_on_c, 0, 67, 0
2, 91699, Note_on_c, 0, 70, 0
2, 91734, Note_on_c, 0, 70, 85
2, 91741, Note_on_c, 0, 67, 60
2, 91800, Note_on_c, 0, 60, 0
2, 91824, Note_on_c, 0, 67, 0
2, 91868, Note_on_c, 0, 74, 77
2, 91868, Note_on_c, 0, 62, 71
2, 91895, Note_on_c, 0, 72, 0
2, 91897, Note_on_c, 0, 70, 0
2, 91920, Control_c, 0, 64, 63
2, 91958, Control_c, 0, 64, 127
2, 91998, Note_on_c, 0, 70, 76
2, 92005, Note_on_c, 0, 67, 48
2, 92089, Note_on_c, 0, 62, 0
2, 92107, Note_on_c, 0, 67, 0
2, 92115, Note_on_c, 0, 70, 0
2, 92135, Note_on_c, 0, 70, 52
2, 92135, Note_on_c, 0, 72, 90
2, 92136, Note_on_c, 0, 60, 83
2, 92138, Note_on_c, 0, 67, 32
2, 92166, Note_on_c, 0, 74, 0
2, 92210, Note_on_c, 0, 67, 0
2, 92238, Note_on_c, 0, 60, 0
2, 92241, Note_on_c, 0, 70, 0
2, 92254, Note_on_c, 0, 72, 0
2, 92273, Note_on_c, 0, 72, 98
2, 92281, Note_on_c, 0, 53, 73
2, 92292, Note_on_c, 0, 60, 30
2, 92320, Note_on_c, 0, 52, 0
2, 92335, Control_c, 0, 64, 63
2, 92349, Control_c, 0, 64, 0
2, 92385, Control_c, 0, 64, 63
2, 92398, Note_on_c, 0, 69, 77
2, 92399, Control_c, 0, 64, 127
2, 92412, Note_on_c, 0, 65, 33
2, 92470, Note_on_c, 0, 65, 0
2, 92476, Note_on_c, 0, 69, 0
2, 92513, Note_on_c, 0, 65, 68
2, 92517, Note_on_c, 0, 69, 76
2, 92545, Note_on_c, 0, 72, 0
2, 92578, Note_on_c, 0, 65, 0
2, 92632, Note_on_c, 0, 69, 0
2, 92653, Note_on_c, 0, 77, 100
2, 92659, Note_on_c, 0, 65, 85
2, 92667, Note_on_c, 0, 60, 0
2, 92718, Note_on_c, 0, 65, 0
2, 92741, Note_on_c, 0, 77, 0
2, 92783, Note_on_c, 0, 69, 76
2, 92792, Note_on_c, 0, 65, 74
2, 92877, Note_on_c, 0, 65, 0
2, 92897, Note_on_c, 0, 69, 0
2, 92915, Note_on_c, 0, 60, 71
2, 92917, Note_on_c, 0, 72, 93
2, 92928, Note_on_c, 0, 69, 69
2, 92939, Note_on_c, 0, 65, 28
2, 92950, Note_on_c, 0, 53, 0
2, 92983, Note_on_c, 0, 65, 0
2, 93045, Note_on_c, 0, 69, 0
2, 93066, Note_on_c, 0, 58, 67
2, 93069, Note_on_c, 0, 50, 69
2, 93078, Note_on_c, 0, 70, 95
2, 93105, Note_on_c, 0, 60, 0
2, 93135, Note_on_c, 0, 72, 0
2, 93144, Control_c, 0, 64, 63
2, 93156, Control_c, 0, 64, 0
2, 93208, Control_c, 0, 64, 63
2, 93217, Control_c, 0, 64, 127
2, 93228, Note_on_c, 0, 65, 57
2, 93229, Note_on_c, 0, 69, 66
2, 93304, Note_on_c, 0, 65, 0
2, 93308, Note_on_c, 0, 69, 0
2, 93361, Note_on_c, 0, 69, 75
2, 93367, Note_on_c, 0, 65, 63
2, 93467, Note_on_c, 0, 65, 0
2, 93504, Note_on_c, 0, 69, 0
2, 93504, Note_on_c, 0, 72, 76
2, 93511, Note_on_c, 0, 60, 59
2, 93541, Note_on_c, 0, 70, 0
2, 93548, Note_on_c, 0, 58, 0
2, 93563, Control_c, 0, 64, 63
2, 93576, Control_c, 0, 64, 0
2, 93611, Control_c, 0, 64, 63
2, 93622, Control_c, 0, 64, 127
2, 93650, Note_on_c, 0, 67, 63
2, 93672, Note_on_c, 0, 64, 41
2, 93719, Note_on_c, 0, 60, 0
2, 93746, Note_on_c, 0, 64, 0
2, 93748, Note_on_c, 0, 67, 0
2, 93817, Note_on_c, 0, 58, 58
2, 93824, Note_on_c, 0, 70, 79
2, 93830, Note_on_c, 0, 67, 38
2, 93847, Note_on_c, 0, 64, 22
2, 93851, Note_on_c, 0, 72, 0
2, 93870, Note_on_c, 0, 50, 0
2, 93966, Note_on_c, 0, 64, 0
2, 93986, Note_on_c, 0, 67, 0
2, 94007, Note_on_c, 0, 69, 55
2, 94020, Note_on_c, 0, 49, 31
2, 94031, Note_on_c, 0, 70, 0
2, 94037, Note_on_c, 0, 57, 17
2, 94044, Note_on_c, 0, 58, 0
2, 94064, Control_c, 0, 64, 63
2, 94076, Control_c, 0, 64, 0
2, 94122, Control_c, 0, 64, 63
2, 94131, Control_c, 0, 64, 127
2, 94179, Note_on_c, 0, 67, 46
2, 94191, Note_on_c, 0, 64, 22
2, 94264, Note_on_c, 0, 64, 0
2, 94282, Note_on_c, 0, 67, 0
2, 94320, Note_on_c, 0, 67, 53
2, 94324, Note_on_c, 0, 64, 36
2, 94412, Note_on_c, 0, 64, 0
2, 94419, Note_on_c, 0, 67, 0
2, 94443, Note_on_c, 0, 48, 66
2, 94503, Note_on_c, 0, 49, 0
2, 94560, Note_on_c, 0, 66, 71
2, 94567, Note_on_c, 0, 62, 48
2, 94637, Note_on_c, 0, 62, 0
2, 94643, Note_on_c, 0, 66, 0
2, 94689, Note_on_c, 0, 66, 73
2, 94694, Note_on_c, 0, 57, 0
2, 94699, Note_on_c, 0, 62, 64
2, 94715, Note_on_c, 0, 69, 0
2, 94811, Note_on_c, 0, 66, 0
2, 94821, Note_on_c, 0, 62, 0
2, 94824, Note_on_c, 0, 55, 56
2, 94825, Note_on_c, 0, 67, 90
2, 94828, Note_on_c, 0, 47, 60
2, 94869, Note_on_c, 0, 48, 0
2, 94907, Control_c, 0, 64, 63
2, 94920, Control_c, 0, 64, 0
2, 94941, Control_c, 0, 64, 63
2, 94960, Note_on_c, 0, 62, 68
2, 94960, Note_on_c, 0, 65, 81
2, 94961, Control_c, 0, 64, 127
2, 95027, Note_on_c, 0, 62, 0
2, 95042, Note_on_c, 0, 65, 0
2, 95077, Note_on_c, 0, 65, 75
2, 95085, Note_on_c, 0, 62, 75
2, 95102, Note_on_c, 0, 55, 0
2, 95162, Note_on_c, 0, 62, 0
2, 95214, Note_on_c, 0, 69, 84
2, 95216, Note_on_c, 0, 46, 83
2, 95219, Note_on_c, 0, 57, 76
2, 95220, Note_on_c, 0, 47, 0
2, 95230, Note_on_c, 0, 65, 0
2, 95239, Note_on_c, 0, 67, 0
2, 95274, Control_c, 0, 64, 63
2, 95285, Control_c, 0, 64, 0
2, 95321, Control_c, 0, 64, 63
2, 95336, Control_c, 0, 64, 127
2, 95354, Note_on_c, 0, 64, 60
2, 95361, Note_on_c, 0, 60, 51
2, 95429, Note_on_c, 0, 57, 0
2, 95436, Note_on_c, 0, 60, 0
2, 95440, Note_on_c, 0, 64, 0
2, 95488, Note_on_c, 0, 55, 72
2, 95498, Note_on_c, 0, 67, 82
2, 95500, Note_on_c, 0, 64, 68
2, 95504, Note_on_c, 0, 60, 52
2, 95521, Note_on_c, 0, 69, 0
2, 95563, Note_on_c, 0, 60, 0
2, 95582, Note_on_c, 0, 46, 0
2, 95589, Note_on_c, 0, 64, 0
2, 95641, Note_on_c, 0, 55, 0
2, 95650, Note_on_c, 0, 53, 76
2, 95656, Note_on_c, 0, 65, 90
2, 95663, Note_on_c, 0, 45, 53
2, 95681, Control_c, 0, 64, 63
2, 95690, Control_c, 0, 64, 0
2, 95703, Note_on_c, 0, 67, 0
2, 95731, Control_c, 0, 64, 63
2, 95742, Control_c, 0, 64, 127
2, 95803, Note_on_c, 0, 63, 72
2, 95810, Note_on_c, 0, 60, 43
2, 95883, Note_on_c, 0, 60, 0
2, 95888, Note_on_c, 0, 63, 0
2, 95923, Note_on_c, 0, 63, 76
2, 95935, Note_on_c, 0, 60, 49
2, 95951, Note_on_c, 0, 65, 0
2, 95964, Note_on_c, 0, 60, 0
2, 95973, Note_on_c, 0, 45, 0
2, 95999, Note_on_c, 0, 63, 0
2, 96093, Note_on_c, 0, 72, 76
2, 96094, Note_on_c, 0, 60, 49
2, 96103, Note_on_c, 0, 53, 0
2, 96140, Note_on_c, 0, 72, 0
2, 96200, Note_on_c, 0, 60, 0
2, 96255, Note_on_c, 0, 63, 64
2, 96264, Note_on_c, 0, 60, 44
2, 96331, Note_on_c, 0, 60, 0
2, 96361, Note_on_c, 0, 63, 0
2, 96412, Note_on_c, 0, 65, 81
2, 96416, Note_on_c, 0, 53, 42
2, 96424, Note_on_c, 0, 63, 59
2, 96432, Note_on_c, 0, 60, 34
2, 96471, Note_on_c, 0, 60, 0
2, 96491, Note_on_c, 0, 63, 0
2, 96507, Note_on_c, 0, 53, 0
2, 96529, Note_on_c, 0, 65, 0
2, 96607, Note_on_c, 0, 53, 44
2, 96609, Note_on_c, 0, 46, 51
2, 96613, Note_on_c, 0, 65, 76
2, 96677, Control_c, 0, 64, 63
2, 96691, Control_c, 0, 64, 0
2, 96726, Control_c, 0, 64, 63
2, 96738, Control_c, 0, 64, 127
2, 96768, Note_on_c, 0, 58, 67
2, 96769, Note_on_c, 0, 62, 68
2, 96843, Note_on_c, 0, 58, 0
2, 96888, Note_on_c, 0, 67, 85
2, 96900, Note_on_c, 0, 55, 65
2, 96915, Note_on_c, 0, 65, 0
2, 96926, Note_on_c, 0, 62, 0
2, 96948, Note_on_c, 0, 53, 0
2, 96971, Control_c, 0, 64, 63
2, 96998, Control_c, 0, 64, 127
2, 97024, Note_on_c, 0, 64, 87
2, 97026, Note_on_c, 0, 62, 74
2, 97065, Note_on_c, 0, 55, 0
2, 97077, Note_on_c, 0, 67, 0
2, 97140, Note_on_c, 0, 62, 0
2, 97164, Note_on_c, 0, 68, 104
2, 97175, Note_on_c, 0, 56, 86
2, 97209, Note_on_c, 0, 64, 0
2, 97241, Control_c, 0, 64, 63
2, 97293, Control_c, 0, 64, 127
2, 97315, Note_on_c, 0, 62, 72
2, 97318, Note_on_c, 0, 64, 80
2, 97366, Note_on_c, 0, 56, 0
2, 97390, Note_on_c, 0, 68, 0
2, 97438, Note_on_c, 0, 62, 0
2, 97445, Note_on_c, 0, 46, 0
2, 97486, Note_on_c, 0, 57, 74
2, 97487, Note_on_c, 0, 45, 70
2, 97488, Note_on_c, 0, 69, 85
2, 97503, Note_on_c, 0, 64, 0
2, 97575, Control_c, 0, 64, 63
2, 97592, Control_c, 0, 64, 0
2, 97637, Control_c, 0, 64, 63
2, 97649, Control_c, 0, 64, 127
2, 97655, Note_on_c, 0, 64, 53
2, 97664, Note_on_c, 0, 61, 55
2, 97749, Note_on_c, 0, 61, 0
2, 97763, Note_on_c, 0, 64, 0
2, 97816, Note_on_c, 0, 61, 55
2, 97822, Note_on_c, 0, 64, 40
2, 97858, Note_on_c, 0, 57, 0
2, 97930, Note_on_c, 0, 61, 0
2, 97946, Note_on_c, 0, 64, 0
2, 97973, Note_on_c, 0, 52, 49
2, 98123, Note_on_c, 0, 64, 39
2, 98127, Note_on_c, 0, 61, 34
2, 98196, Note_on_c, 0, 61, 0
2, 98216, Note_on_c, 0, 64, 0
2, 98348, Note_on_c, 0, 52, 0
2, 98358, Note_on_c, 0, 61, 26
2, 98360, Note_on_c, 0, 64, 28
2, 98385, Note_on_c, 0, 45, 0
2, 98439, Note_on_c, 0, 61, 0
2, 98454, Note_on_c, 0, 64, 0
2, 98487, Note_on_c, 0, 69, 0
2, 98712, Note_on_c, 0, 48, 38
2, 98717, Note_on_c, 0, 40, 33
2, 98722, Note_on_c, 0, 72, 57
2, 98808, Control_c, 0, 64, 63
2, 98834, Control_c, 0, 64, 0
2, 98860, Control_c, 0, 64, 63
2, 98881, Control_c, 0, 64, 127
2, 98944, Note_on_c, 0, 70, 47
2, 98954, Note_on_c, 0, 67, 29
2, 99035, Note_on_c, 0, 70, 0
2, 99051, Note_on_c, 0, 67, 0
2, 99114, Note_on_c, 0, 70, 66
2, 99117, Note_on_c, 0, 67, 52
2, 99250, Note_on_c, 0, 67, 0
2, 99265, Note_on_c, 0, 50, 57
2, 99270, Note_on_c, 0, 74, 84
2, 99280, Note_on_c, 0, 70, 0
2, 99299, Note_on_c, 0, 48, 0
2, 99303, Note_on_c, 0, 72, 0
2, 99424, Note_on_c, 0, 70, 70
2, 99431, Note_on_c, 0, 67, 49
2, 99471, Note_on_c, 0, 50, 0
2, 99502, Note_on_c, 0, 70, 0
2, 99509, Note_on_c, 0, 67, 0
2, 99562, Note_on_c, 0, 48, 59
2, 99568, Note_on_c, 0, 72, 97
2, 99577, Note_on_c, 0, 70, 78
2, 99619, Note_on_c, 0, 40, 0
2, 99622, Note_on_c, 0, 74, 0
2, 99661, Note_on_c, 0, 70, 0
2, 99703, Note_on_c, 0, 48, 0
2, 99704, Note_on_c, 0, 72, 0
2, 99751, Note_on_c, 0, 48, 51
2, 99753, Note_on_c, 0, 72, 97
2, 99759, Note_on_c, 0, 41, 54
2, 99811, Control_c, 0, 64, 63
2, 99825, Control_c, 0, 64, 0
2, 99863, Control_c, 0, 64, 63
2, 99874, Control_c, 0, 64, 127
2, 99907, Note_on_c, 0, 69, 75
2, 99912, Note_on_c, 0, 65, 67
2, 100002, Note_on_c, 0, 65, 0
2, 100004, Note_on_c, 0, 69, 0
2, 100038, Note_on_c, 0, 69, 72
2, 100038, Note_on_c, 0, 65, 78
2, 100089, Note_on_c, 0, 72, 0
2, 100136, Note_on_c, 0, 65, 0
2, 100194, Note_on_c, 0, 53, 56
2, 100213, Note_on_c, 0, 77, 93
2, 100252, Note_on_c, 0, 69, 0
2, 100265, Note_on_c, 0, 48, 0
2, 100371, Note_on_c, 0, 53, 0
2, 100382, Note_on_c, 0, 69, 60
2, 100389, Note_on_c, 0, 65, 44
2, 100423, Note_on_c, 0, 77, 0
2, 100485, Note_on_c, 0, 65, 0
2, 100501, Note_on_c, 0, 69, 0
2, 100541, Note_on_c, 0, 72, 83
2, 100541, Note_on_c, 0, 69, 51
2, 100543, Note_on_c, 0, 48, 48
2, 100551, Note_on_c, 0, 65, 43
2, 100597, Note_on_c, 0, 41, 0
2, 100606, Note_on_c, 0, 65, 0
2, 100619, Note_on_c, 0, 69, 0
2, 100708, Note_on_c, 0, 46, 59
2, 100716, Note_on_c, 0, 70, 78
2, 100721, Note_on_c, 0, 38, 36
2, 100747, Note_on_c, 0, 48, 0
2, 100760, Note_on_c, 0, 72, 0
2, 100767, Control_c, 0, 64, 63
2, 100779, Control_c, 0, 64, 0
2, 100830, Control_c, 0, 64, 63
2, 100838, Control_c, 0, 64, 127
2, 100929, Note_on_c, 0, 69, 59
2, 100937, Note_on_c, 0, 65, 49
2, 101017, Note_on_c, 0, 65, 0
2, 101022, Note_on_c, 0, 69, 0
2, 101086, Note_on_c, 0, 69, 64
2, 101098, Note_on_c, 0, 65, 42
2, 101183, Note_on_c, 0, 65, 0
2, 101248, Note_on_c, 0, 74, 80
2, 101248, Note_on_c, 0, 50, 48
2, 101262, Note_on_c, 0, 69, 0
2, 101273, Control_c, 0, 64, 63
2, 101296, Note_on_c, 0, 70, 0
2, 101303, Control_c, 0, 64, 127
2, 101326, Note_on_c, 0, 46, 0
2, 101410, Note_on_c, 0, 50, 0
2, 101468, Note_on_c, 0, 48, 58
2, 101471, Note_on_c, 0, 72, 75
2, 101479, Note_on_c, 0, 74, 0
2, 101483, Note_on_c, 0, 67, 43
2, 101488, Note_on_c, 0, 64, 29
2, 101586, Note_on_c, 0, 64, 0
2, 101597, Note_on_c, 0, 67, 0
2, 101653, Note_on_c, 0, 70, 88
2, 101654, Note_on_c, 0, 46, 62
2, 101662, Note_on_c, 0, 48, 0
2, 101669, Note_on_c, 0, 67, 54
2, 101693, Note_on_c, 0, 38, 0
2, 101725, Note_on_c, 0, 72, 0
2, 101795, Note_on_c, 0, 70, 0
2, 101831, Note_on_c, 0, 69, 81
2, 101845, Note_on_c, 0, 45, 41
2, 101848, Note_on_c, 0, 67, 0
2, 101850, Note_on_c, 0, 37, 48
2, 101875, Note_on_c, 0, 46, 0
2, 101918, Control_c, 0, 64, 63
2, 101930, Control_c, 0, 64, 0
2, 101972, Control_c, 0, 64, 63
2, 101985, Control_c, 0, 64, 127
2, 102013, Note_on_c, 0, 67, 54
2, 102015, Note_on_c, 0, 64, 39
2, 102097, Note_on_c, 0, 64, 0
2, 102114, Note_on_c, 0, 67, 0
2, 102169, Note_on_c, 0, 67, 41
2, 102185, Note_on_c, 0, 64, 35
2, 102302, Note_on_c, 0, 64, 0
2, 102319, Note_on_c, 0, 36, 65
2, 102379, Note_on_c, 0, 37, 0
2, 102382, Control_c, 0, 64, 63
2, 102436, Control_c, 0, 64, 127
2, 102463, Note_on_c, 0, 67, 0
2, 102475, Note_on_c, 0, 66, 58
2, 102480, Note_on_c, 0, 62, 37
2, 102546, Note_on_c, 0, 66, 0
2, 102552, Note_on_c, 0, 62, 0
2, 102651, Note_on_c, 0, 66, 57
2, 102662, Note_on_c, 0, 62, 38
2, 102737, Note_on_c, 0, 45, 0
2, 102758, Note_on_c, 0, 66, 0
2, 102776, Note_on_c, 0, 62, 0
2, 102868, Note_on_c, 0, 67, 68
2, 102868, Note_on_c, 0, 35, 55
2, 102877, Note_on_c, 0, 43, 48
2, 102898, Note_on_c, 0, 69, 0
2, 102922, Note_on_c, 0, 36, 0
2, 102943, Control_c, 0, 64, 63
2, 102960, Control_c, 0, 64, 0
2, 102995, Control_c, 0, 64, 63
2, 103018, Control_c, 0, 64, 127
2, 103074, Note_on_c, 0, 65, 52
2, 103085, Note_on_c, 0, 62, 30
2, 103149, Note_on_c, 0, 62, 0
2, 103160, Note_on_c, 0, 65, 0
2, 103222, Note_on_c, 0, 65, 74
2, 103233, Note_on_c, 0, 62, 53
2, 103247, Note_on_c, 0, 43, 0
2, 103288, Note_on_c, 0, 62, 0
2, 103297, Note_on_c, 0, 65, 0
2, 103399, Note_on_c, 0, 69, 89
2, 103403, Note_on_c, 0, 45, 59
2, 103410, Note_on_c, 0, 34, 76
2, 103432, Note_on_c, 0, 35, 0
2, 103435, Note_on_c, 0, 67, 0
2, 103457, Control_c, 0, 64, 63
2, 103475, Control_c, 0, 64, 0
2, 103521, Control_c, 0, 64, 63
2, 103536, Control_c, 0, 64, 127
2, 103586, Note_on_c, 0, 64, 75
2, 103593, Note_on_c, 0, 60, 69
2, 103650, Note_on_c, 0, 45, 0
2, 103668, Note_on_c, 0, 60, 0
2, 103678, Note_on_c, 0, 64, 0
2, 103721, Note_on_c, 0, 67, 91
2, 103727, Note_on_c, 0, 43, 75
2, 103738, Note_on_c, 0, 64, 52
2, 103751, Note_on_c, 0, 69, 0
2, 103820, Note_on_c, 0, 43, 0
2, 103856, Note_on_c, 0, 64, 0
2, 103864, Note_on_c, 0, 34, 0
2, 103903, Note_on_c, 0, 65, 94
2, 103917, Note_on_c, 0, 41, 68
2, 103922, Note_on_c, 0, 33, 59
2, 103946, Note_on_c, 0, 67, 0
2, 103972, Control_c, 0, 64, 63
2, 103983, Control_c, 0, 64, 0
2, 104048, Control_c, 0, 64, 63
2, 104054, Control_c, 0, 64, 127
2, 104077, Note_on_c, 0, 63, 84
2, 104088, Note_on_c, 0, 60, 50
2, 104170, Note_on_c, 0, 60, 0
2, 104175, Note_on_c, 0, 63, 0
2, 104216, Note_on_c, 0, 63, 77
2, 104227, Note_on_c, 0, 60, 55
2, 104308, Note_on_c, 0, 33, 0
2, 104321, Note_on_c, 0, 60, 0
2, 104342, Note_on_c, 0, 63, 0
2, 104408, Note_on_c, 0, 65, 0
2, 104425, Note_on_c, 0, 48, 51
2, 104429, Note_on_c, 0, 72, 70
2, 104471, Note_on_c, 0, 41, 0
2, 104541, Note_on_c, 0, 72, 0
2, 104648, Note_on_c, 0, 63, 75
2, 104657, Note_on_c, 0, 60, 62
2, 104698, Note_on_c, 0, 60, 0
2, 104726, Note_on_c, 0, 63, 0
2, 104727, Note_on_c, 0, 48, 0
2, 104840, Note_on_c, 0, 65, 91
2, 104856, Note_on_c, 0, 41, 22
2, 104861, Note_on_c, 0, 63, 45
2, 104982, Note_on_c, 0, 65, 0
2, 104983, Note_on_c, 0, 63, 0
2, 105012, Note_on_c, 0, 34, 92
2, 105018, Note_on_c, 0, 65, 86
2, 105106, Control_c, 0, 64, 63
2, 105121, Control_c, 0, 64, 0
2, 105161, Control_c, 0, 64, 63
2, 105170, Note_on_c, 0, 62, 87
2, 105170, Control_c, 0, 64, 127
2, 105178, Note_on_c, 0, 58, 71
2, 105272, Note_on_c, 0, 58, 0
2, 105305, Note_on_c, 0, 67, 89
2, 105308, Note_on_c, 0, 43, 86
2, 105326, Note_on_c, 0, 65, 0
2, 105337, Note_on_c, 0, 62, 0
2, 105423, Note_on_c, 0, 41, 0
2, 105458, Note_on_c, 0, 62, 79
2, 105460, Note_on_c, 0, 64, 88
2, 105497, Note_on_c, 0, 67, 0
2, 105503, Note_on_c, 0, 43, 0
2, 105560, Note_on_c, 0, 62, 0
2, 105609, Note_on_c, 0, 68, 105
2, 105615, Note_on_c, 0, 44, 103
2, 105640, Note_on_c, 0, 64, 0
2, 105766, Note_on_c, 0, 44, 0
2, 105773, Note_on_c, 0, 64, 76
2, 105774, Note_on_c, 0, 62, 68
2, 105831, Note_on_c, 0, 34, 0
2, 105862, Note_on_c, 0, 68, 0
2, 105914, Note_on_c, 0, 62, 0
2, 105954, Note_on_c, 0, 45, 84
2, 105958, Note_on_c, 0, 69, 87
2, 105959, Note_on_c, 0, 33, 76
2, 105977, Note_on_c, 0, 64, 0
2, 106043, Control_c, 0, 64, 63
2, 106053, Control_c, 0, 64, 0
2, 106120, Control_c, 0, 64, 63
2, 106128, Control_c, 0, 64, 127
2, 106152, Note_on_c, 0, 64, 55
2, 106157, Note_on_c, 0, 61, 60
2, 106232, Note_on_c, 0, 61, 0
2, 106242, Note_on_c, 0, 64, 0
2, 106313, Note_on_c, 0, 61, 65
2, 106314, Note_on_c, 0, 64, 71
2, 106425, Note_on_c, 0, 33, 0
2, 106448, Note_on_c, 0, 35, 98
2, 106496, Note_on_c, 0, 61, 0
2, 106504, Note_on_c, 0, 64, 0
2, 106612, Note_on_c, 0, 64, 59
2, 106615, Note_on_c, 0, 61, 41
2, 106679, Note_on_c, 0, 61, 0
2, 106685, Note_on_c, 0, 64, 0
2, 106796, Note_on_c, 0, 37, 104
2, 106810, Note_on_c, 0, 64, 68
2, 106818, Note_on_c, 0, 61, 41
2, 106826, Control_c, 0, 64, 63
2, 106843, Control_c, 0, 64, 127
2, 106868, Note_on_c, 0, 35, 0
2, 106942, Note_on_c, 0, 45, 0
2, 106954, Note_on_c, 0, 69, 0
2, 106959, Note_on_c, 0, 37, 0
2, 107054, Note_on_c, 0, 61, 0
2, 107103, Note_on_c, 0, 50, 93
2, 107105, Note_on_c, 0, 70, 104
2, 107109, Note_on_c, 0, 38, 84
2, 107132, Note_on_c, 0, 64, 0
2, 107231, Control_c, 0, 64, 63
2, 107240, Control_c, 0, 64, 0
2, 107338, Control_c, 0, 64, 63
2, 107340, Control_c, 0, 64, 127
2, 107369, Note_on_c, 0, 66, 60
2, 107370, Note_on_c, 0, 63, 60
2, 107376, Note_on_c, 0, 60, 59
2, 107418, Note_on_c, 0, 60, 0
2, 107457, Note_on_c, 0, 63, 0
2, 107483, Note_on_c, 0, 66, 0
2, 107538, Note_on_c, 0, 63, 65
2, 107541, Note_on_c, 0, 66, 47
2, 107548, Note_on_c, 0, 60, 36
2, 107651, Note_on_c, 0, 70, 0
2, 107665, Note_on_c, 0, 69, 92
2, 107674, Note_on_c, 0, 60, 0
2, 107712, Note_on_c, 0, 66, 0
2, 107712, Note_on_c, 0, 63, 0
2, 107714, Note_on_c, 0, 38, 0
2, 107804, Note_on_c, 0, 60, 42
2, 107805, Note_on_c, 0, 63, 58
2, 107806, Note_on_c, 0, 66, 67
2, 107856, Note_on_c, 0, 60, 0
2, 107868, Note_on_c, 0, 63, 0
2, 107875, Note_on_c, 0, 66, 0
2, 107896, Note_on_c, 0, 50, 0
2, 107937, Note_on_c, 0, 66, 72
2, 107944, Note_on_c, 0, 63, 68
2, 107946, Note_on_c, 0, 60, 46
2, 108001, Note_on_c, 0, 69, 0
2, 108024, Note_on_c, 0, 50, 86
2, 108119, Note_on_c, 0, 67, 77
2, 108132, Note_on_c, 0, 63, 0
2, 108145, Note_on_c, 0, 66, 0
2, 108147, Note_on_c, 0, 58, 96
2, 108173, Note_on_c, 0, 60, 0
2, 108237, Control_c, 0, 64, 63
2, 108247, Control_c, 0, 64, 0
2, 108301, Control_c, 0, 64, 63
2, 108308, Control_c, 0, 64, 127
2, 108339, Note_on_c, 0, 61, 84
2, 108476, Note_on_c, 0, 62, 83
2, 108512, Note_on_c, 0, 61, 0
2, 108552, Note_on_c, 0, 58, 0
2, 108589, Note_on_c, 0, 62, 0
2, 108592, Note_on_c, 0, 57, 93
2, 108606, Note_on_c, 0, 65, 91
2, 108632, Note_on_c, 0, 67, 0
2, 108734, Note_on_c, 0, 59, 82
2, 108774, Note_on_c, 0, 65, 0
2, 108862, Note_on_c, 0, 55, 94
2, 108868, Note_on_c, 0, 63, 93
2, 108872, Note_on_c, 0, 57, 0
2, 108882, Note_on_c, 0, 60, 68
2, 108884, Note_on_c, 0, 59, 0
2, 108901, Note_on_c, 0, 50, 0
2, 108977, Note_on_c, 0, 55, 0
2, 108979, Note_on_c, 0, 63, 0
2, 109063, Note_on_c, 0, 60, 0
2, 109073, Note_on_c, 0, 62, 96
2, 109075, Note_on_c, 0, 50, 84
2, 109088, Note_on_c, 0, 46, 66
2, 109108, Note_on_c, 0, 45, 45
2, 109136, Note_on_c, 0, 45, 0
2, 109165, Control_c, 0, 64, 63
2, 109175, Control_c, 0, 64, 0
2, 109217, Control_c, 0, 64, 63
2, 109230, Control_c, 0, 64, 127
2, 109294, Note_on_c, 0, 53, 76
2, 109428, Note_on_c, 0, 54, 93
2, 109477, Note_on_c, 0, 53, 0
2, 109552, Note_on_c, 0, 45, 99
2, 109553, Note_on_c, 0, 46, 0
2, 109561, Note_on_c, 0, 55, 80
2, 109592, Note_on_c, 0, 54, 0
2, 109619, Control_c, 0, 64, 63
2, 109633, Control_c, 0, 64, 0
2, 109657, Control_c, 0, 64, 63
2, 109676, Control_c, 0, 64, 127
2, 109704, Note_on_c, 0, 56, 98
2, 109743, Note_on_c, 0, 55, 0
2, 109830, Note_on_c, 0, 60, 99
2, 109832, Note_on_c, 0, 56, 0
2, 109834, Note_on_c, 0, 57, 81
2, 109855, Note_on_c, 0, 62, 0
2, 109971, Note_on_c, 0, 58, 91
2, 109976, Control_c, 0, 64, 63
2, 109976, Note_on_c, 0, 43, 102
2, 109986, Control_c, 0, 64, 0
2, 110001, Note_on_c, 0, 57, 0
2, 110007, Control_c, 0, 64, 63
2, 110022, Control_c, 0, 64, 127
2, 110028, Note_on_c, 0, 45, 0
2, 110092, Note_on_c, 0, 60, 0
2, 110121, Note_on_c, 0, 60, 89
2, 110127, Note_on_c, 0, 58, 0
2, 110267, Note_on_c, 0, 61, 88
2, 110295, Note_on_c, 0, 60, 0
2, 110402, Note_on_c, 0, 61, 0
2, 110402, Note_on_c, 0, 41, 102
2, 110415, Note_on_c, 0, 62, 68
2, 110453, Note_on_c, 0, 43, 0
2, 110467, Control_c, 0, 64, 63
2, 110522, Control_c, 0, 64, 127
2, 110570, Note_on_c, 0, 67, 72
2, 110703, Note_on_c, 0, 39, 99
2, 110725, Note_on_c, 0, 41, 0
2, 110733, Note_on_c, 0, 69, 74
2, 110735, Control_c, 0, 64, 63
2, 110741, Note_on_c, 0, 62, 0
2, 110747, Control_c, 0, 64, 0
2, 110761, Note_on_c, 0, 67, 0
2, 110781, Control_c, 0, 64, 63
2, 110791, Control_c, 0, 64, 127
2, 110870, Note_on_c, 0, 50, 0
2, 110948, Note_on_c, 0, 50, 72
2, 110953, Note_on_c, 0, 38, 79
2, 110962, Note_on_c, 0, 70, 90
2, 110979, Note_on_c, 0, 69, 0
2, 111004, Note_on_c, 0, 39, 0
2, 111023, Control_c, 0, 64, 63
2, 111031, Control_c, 0, 64, 0
2, 111111, Control_c, 0, 64, 63
2, 111115, Control_c, 0, 64, 127
2, 111167, Note_on_c, 0, 66, 93
2, 111176, Note_on_c, 0, 60, 55
2, 111266, Note_on_c, 0, 60, 0
2, 111284, Note_on_c, 0, 66, 0
2, 111316, Note_on_c, 0, 66, 78
2, 111324, Note_on_c, 0, 60, 57
2, 111369, Note_on_c, 0, 38, 0
2, 111383, Note_on_c, 0, 50, 0
2, 111387, Note_on_c, 0, 70, 0
2, 111455, Note_on_c, 0, 51, 105
2, 111458, Note_on_c, 0, 39, 94
2, 111463, Note_on_c, 0, 60, 0
2, 111471, Note_on_c, 0, 69, 73
2, 111531, Control_c, 0, 64, 63
2, 111543, Note_on_c, 0, 66, 0
2, 111561, Control_c, 0, 64, 127
2, 111615, Note_on_c, 0, 66, 88
2, 111620, Note_on_c, 0, 60, 66
2, 111655, Note_on_c, 0, 51, 0
2, 111664, Note_on_c, 0, 39, 0
2, 111690, Note_on_c, 0, 60, 0
2, 111708, Note_on_c, 0, 66, 0
2, 111748, Note_on_c, 0, 50, 97
2, 111753, Note_on_c, 0, 38, 90
2, 111759, Note_on_c, 0, 60, 66
2, 111759, Note_on_c, 0, 66, 72
2, 111820, Note_on_c, 0, 60, 0
2, 111858, Note_on_c, 0, 38, 0
2, 111862, Note_on_c, 0, 50, 0
2, 111897, Note_on_c, 0, 50, 103
2, 111899, Note_on_c, 0, 67, 85
2, 111900, Note_on_c, 0, 38, 94
2, 111913, Note_on_c, 0, 69, 0
2, 111920, Note_on_c, 0, 66, 0
2, 111931, Control_c, 0, 64, 63
2, 111935, Control_c, 0, 64, 0
2, 111969, Control_c, 0, 64, 63
2, 111978, Control_c, 0, 64, 127
2, 112033, Note_on_c, 0, 58, 68
2, 112034, Note_on_c, 0, 62, 72
2, 112086, Note_on_c, 0, 58, 0
2, 112107, Note_on_c, 0, 38, 0
2, 112109, Note_on_c, 0, 62, 0
2, 112144, Note_on_c, 0, 67, 0
2, 112146, Note_on_c, 0, 50, 0
2, 112163, Note_on_c, 0, 62, 68
2, 112167, Note_on_c, 0, 58, 72
2, 112217, Note_on_c, 0, 58, 0
2, 112289, Note_on_c, 0, 62, 0
2, 112295, Note_on_c, 0, 55, 90
2, 112301, Note_on_c, 0, 65, 88
2, 112303, Note_on_c, 0, 43, 69
2, 112321, Control_c, 0, 64, 63
2, 112347, Control_c, 0, 64, 127
2, 112419, Note_on_c, 0, 55, 0
2, 112446, Note_on_c, 0, 43, 0
2, 112452, Note_on_c, 0, 58, 76
2, 112458, Note_on_c, 0, 55, 66
2, 112535, Note_on_c, 0, 55, 0
2, 112554, Note_on_c, 0, 58, 0
2, 112585, Note_on_c, 0, 65, 0
2, 112586, Note_on_c, 0, 50, 102
2, 112588, Note_on_c, 0, 38, 99
2, 112593, Note_on_c, 0, 58, 72
2, 112596, Note_on_c, 0, 63, 91
2, 112600, Note_on_c, 0, 55, 60
2, 112663, Note_on_c, 0, 63, 0
2, 112688, Note_on_c, 0, 55, 0
2, 112700, Note_on_c, 0, 38, 0
2, 112705, Note_on_c, 0, 50, 0
2, 112745, Note_on_c, 0, 62, 96
2, 112746, Note_on_c, 0, 50, 97
2, 112749, Note_on_c, 0, 38, 98
2, 112758, Note_on_c, 0, 58, 0
2, 112788, Control_c, 0, 64, 63
2, 112793, Control_c, 0, 64, 0
2, 112835, Control_c, 0, 64, 63
2, 112842, Control_c, 0, 64, 127
2, 112899, Note_on_c, 0, 60, 69
2, 112903, Note_on_c, 0, 54, 62
2, 112917, Note_on_c, 0, 38, 0
2, 112950, Note_on_c, 0, 50, 0
2, 112959, Note_on_c, 0, 54, 0
2, 112972, Note_on_c, 0, 60, 0
2, 113022, Note_on_c, 0, 60, 70
2, 113024, Note_on_c, 0, 62, 0
2, 113029, Note_on_c, 0, 54, 72
2, 113049, Note_on_c, 0, 60, 0
2, 113088, Note_on_c, 0, 54, 0
2, 113163, Note_on_c, 0, 57, 92
2, 113165, Note_on_c, 0, 45, 85
2, 113168, Note_on_c, 0, 60, 87
2, 113231, Control_c, 0, 64, 63
2, 113239, Control_c, 0, 64, 0
2, 113258, Control_c, 0, 64, 63
2, 113269, Control_c, 0, 64, 127
2, 113323, Note_on_c, 0, 54, 78
2, 113328, Note_on_c, 0, 51, 70
2, 113338, Note_on_c, 0, 57, 0
2, 113344, Note_on_c, 0, 45, 0
2, 113392, Note_on_c, 0, 51, 0
2, 113409, Note_on_c, 0, 54, 0
2, 113477, Note_on_c, 0, 50, 87
2, 113482, Note_on_c, 0, 38, 85
2, 113485, Note_on_c, 0, 54, 76
2, 113488, Note_on_c, 0, 51, 70
2, 113536, Note_on_c, 0, 51, 0
2, 113553, Note_on_c, 0, 38, 0
2, 113570, Note_on_c, 0, 50, 0
2, 113606, Note_on_c, 0, 54, 0
2, 113640, Note_on_c, 0, 60, 0
2, 113642, Note_on_c, 0, 50, 100
2, 113642, Note_on_c, 0, 38, 99
2, 113643, Note_on_c, 0, 58, 93
2, 113676, Control_c, 0, 64, 63
2, 113681, Control_c, 0, 64, 0
2, 113713, Control_c, 0, 64, 63
2, 113723, Control_c, 0, 64, 127
2, 113774, Note_on_c, 0, 50, 0
2, 113798, Note_on_c, 0, 55, 57
2, 113808, Note_on_c, 0, 50, 74
2, 113831, Note_on_c, 0, 38, 0
2, 113846, Note_on_c, 0, 50, 0
2, 113873, Note_on_c, 0, 55, 0
2, 113964, Note_on_c, 0, 55, 68
2, 113968, Note_on_c, 0, 50, 67
2, 113971, Note_on_c, 0, 58, 0
2, 114020, Note_on_c, 0, 50, 0
2, 114035, Note_on_c, 0, 55, 0
2, 114127, Note_on_c, 0, 46, 80
2, 114135, Note_on_c, 0, 58, 103
2, 114145, Note_on_c, 0, 46, 0
2, 114170, Note_on_c, 0, 58, 0
2, 114365, Note_on_c, 0, 55, 61
2, 114442, Note_on_c, 0, 55, 0
2, 114634, Note_on_c, 0, 37, 57
2, 114638, Note_on_c, 0, 55, 43
2, 114650, Note_on_c, 0, 53, 52
2, 114658, Note_on_c, 0, 49, 8
2, 114692, Control_c, 0, 64, 63
2, 114701, Control_c, 0, 64, 0
2, 114716, Control_c, 0, 64, 63
2, 114733, Control_c, 0, 64, 127
2, 114827, Note_on_c, 0, 49, 0
2, 114847, Note_on_c, 0, 53, 0
2, 114849, Note_on_c, 0, 55, 0
2, 114867, Note_on_c, 0, 37, 0
2, 114982, Note_on_c, 0, 36, 37
2, 115020, Note_on_c, 0, 68, 75
2, 115028, Note_on_c, 0, 48, 44
2, 115115, Control_c, 0, 64, 63
2, 115129, Control_c, 0, 64, 0
2, 115168, Control_c, 0, 64, 63
2, 115181, Control_c, 0, 64, 127
2, 115228, Note_on_c, 0, 58, 43
2, 115230, Note_on_c, 0, 61, 60
2, 115240, Note_on_c, 0, 64, 54
2, 115321, Note_on_c, 0, 58, 0
2, 115326, Note_on_c, 0, 61, 0
2, 115336, Note_on_c, 0, 64, 0
2, 115383, Note_on_c, 0, 61, 65
2, 115385, Note_on_c, 0, 58, 49
2, 115391, Note_on_c, 0, 64, 49
2, 115438, Note_on_c, 0, 68, 0
2, 115494, Note_on_c, 0, 58, 0
2, 115514, Note_on_c, 0, 67, 86
2, 115551, Note_on_c, 0, 61, 0
2, 115557, Note_on_c, 0, 64, 0
2, 115644, Note_on_c, 0, 36, 0
2, 115658, Note_on_c, 0, 61, 61
2, 115666, Note_on_c, 0, 64, 52
2, 115706, Note_on_c, 0, 48, 0
2, 115724, Note_on_c, 0, 61, 0
2, 115777, Note_on_c, 0, 58, 65
2, 115784, Note_on_c, 0, 61, 86
2, 115822, Note_on_c, 0, 67, 0
2, 115859, Note_on_c, 0, 58, 0
2, 115903, Note_on_c, 0, 48, 76
2, 115933, Note_on_c, 0, 65, 73
2, 115942, Note_on_c, 0, 64, 0
2, 115947, Note_on_c, 0, 61, 0
2, 115959, Note_on_c, 0, 56, 90
2, 116012, Control_c, 0, 64, 63
2, 116026, Control_c, 0, 64, 0
2, 116107, Control_c, 0, 64, 63
2, 116117, Control_c, 0, 64, 127
2, 116131, Note_on_c, 0, 59, 71
2, 116241, Note_on_c, 0, 60, 93
2, 116280, Note_on_c, 0, 59, 0
2, 116289, Note_on_c, 0, 65, 0
2, 116334, Note_on_c, 0, 56, 0
2, 116356, Note_on_c, 0, 55, 80
2, 116357, Note_on_c, 0, 63, 103
2, 116380, Note_on_c, 0, 60, 0
2, 116433, Control_c, 0, 64, 63
2, 116488, Control_c, 0, 64, 127
2, 116490, Note_on_c, 0, 57, 77
2, 116596, Note_on_c, 0, 55, 0
2, 116612, Note_on_c, 0, 53, 84
2, 116615, Note_on_c, 0, 61, 104
2, 116616, Note_on_c, 0, 58, 92
2, 116637, Note_on_c, 0, 63, 0
2, 116638, Note_on_c, 0, 53, 0
2, 116643, Note_on_c, 0, 57, 0
2, 116651, Note_on_c, 0, 48, 0
2, 116770, Note_on_c, 0, 61, 0
2, 116785, Note_on_c, 0, 48, 77
2, 116785, Note_on_c, 0, 60, 84
2, 116787, Note_on_c, 0, 44, 80
2, 116796, Note_on_c, 0, 58, 0
2, 116844, Control_c, 0, 64, 63
2, 116858, Control_c, 0, 64, 0
2, 116912, Control_c, 0, 64, 63
2, 116934, Control_c, 0, 64, 127
2, 116957, Note_on_c, 0, 51, 79
2, 117079, Note_on_c, 0, 52, 97
2, 117084, Note_on_c, 0, 51, 0
2, 117205, Note_on_c, 0, 53, 98
2, 117208, Note_on_c, 0, 52, 0
2, 117208, Note_on_c, 0, 43, 84
2, 117233, Control_c, 0, 64, 63
2, 117242, Note_on_c, 0, 44, 0
2, 117248, Control_c, 0, 64, 0
2, 117271, Control_c, 0, 64, 63
2, 117300, Control_c, 0, 64, 127
2, 117331, Note_on_c, 0, 54, 100
2, 117364, Note_on_c, 0, 53, 0
2, 117431, Note_on_c, 0, 60, 0
2, 117442, Note_on_c, 0, 54, 0
2, 117453, Note_on_c, 0, 58, 100
2, 117460, Note_on_c, 0, 55, 79
2, 117586, Note_on_c, 0, 41, 92
2, 117588, Note_on_c, 0, 56, 106
2, 117606, Control_c, 0, 64, 63
2, 117613, Control_c, 0, 64, 0
2, 117628, Note_on_c, 0, 43, 0
2, 117639, Note_on_c, 0, 55, 0
2, 117665, Control_c, 0, 64, 63
2, 117672, Control_c, 0, 64, 127
2, 117690, Note_on_c, 0, 58, 0
2, 117742, Note_on_c, 0, 58, 108
2, 117872, Note_on_c, 0, 59, 101
2, 117874, Note_on_c, 0, 56, 0
2, 117897, Note_on_c, 0, 58, 0
2, 118008, Note_on_c, 0, 39, 100
2, 118013, Note_on_c, 0, 60, 102
2, 118032, Note_on_c, 0, 59, 0
2, 118054, Note_on_c, 0, 41, 0
2, 118080, Control_c, 0, 64, 63
2, 118113, Control_c, 0, 64, 127
2, 118184, Note_on_c, 0, 65, 99
2, 118320, Note_on_c, 0, 37, 103
2, 118338, Note_on_c, 0, 67, 94
2, 118342, Note_on_c, 0, 60, 0
2, 118363, Note_on_c, 0, 39, 0
2, 118371, Note_on_c, 0, 65, 0
2, 118456, Note_on_c, 0, 37, 0
2, 118460, Note_on_c, 0, 48, 0
2, 118561, Note_on_c, 0, 68, 95
2, 118566, Note_on_c, 0, 67, 0
2, 118570, Note_on_c, 0, 36, 92
2, 118573, Note_on_c, 0, 48, 80
2, 118663, Control_c, 0, 64, 63
2, 118668, Control_c, 0, 64, 0
2, 118736, Control_c, 0, 64, 63
2, 118740, Control_c, 0, 64, 127
2, 118777, Note_on_c, 0, 64, 75
2, 118778, Note_on_c, 0, 58, 72
2, 118860, Note_on_c, 0, 58, 0
2, 118875, Note_on_c, 0, 64, 0
2, 118920, Note_on_c, 0, 48, 0
2, 118920, Note_on_c, 0, 58, 65
2, 118923, Note_on_c, 0, 64, 54
2, 118974, Note_on_c, 0, 36, 0
2, 119027, Note_on_c, 0, 68, 0
2, 119068, Note_on_c, 0, 37, 88
2, 119073, Note_on_c, 0, 49, 98
2, 119079, Note_on_c, 0, 67, 71
2, 119087, Note_on_c, 0, 58, 0
2, 119115, Note_on_c, 0, 64, 0
2, 119144, Control_c, 0, 64, 63
2, 119171, Control_c, 0, 64, 127
2, 119219, Note_on_c, 0, 58, 66
2, 119220, Note_on_c, 0, 64, 76
2, 119284, Note_on_c, 0, 49, 0
2, 119285, Note_on_c, 0, 58, 0
2, 119310, Note_on_c, 0, 64, 0
2, 119333, Note_on_c, 0, 37, 0
2, 119339, Note_on_c, 0, 48, 92
2, 119342, Note_on_c, 0, 36, 84
2, 119352, Note_on_c, 0, 64, 70
2, 119354, Note_on_c, 0, 58, 78
2, 119361, Note_on_c, 0, 67, 0
2, 119427, Note_on_c, 0, 58, 0
2, 119448, Note_on_c, 0, 36, 0
2, 119450, Note_on_c, 0, 64, 0
2, 119452, Note_on_c, 0, 48, 0
2, 119479, Note_on_c, 0, 65, 88
2, 119483, Note_on_c, 0, 48, 92
2, 119485, Note_on_c, 0, 36, 78
2, 119527, Control_c, 0, 64, 63
2, 119533, Control_c, 0, 64, 0
2, 119587, Control_c, 0, 64, 63
2, 119596, Control_c, 0, 64, 127
2, 119600, Note_on_c, 0, 60, 78
2, 119603, Note_on_c, 0, 56, 84
2, 119667, Note_on_c, 0, 56, 0
2, 119681, Note_on_c, 0, 36, 0
2, 119685, Note_on_c, 0, 60, 0
2, 119721, Note_on_c, 0, 60, 79
2, 119726, Note_on_c, 0, 48, 0
2, 119728, Note_on_c, 0, 56, 87
2, 119738, Note_on_c, 0, 65, 0
2, 119769, Note_on_c, 0, 60, 0
2, 119809, Note_on_c, 0, 56, 0
2, 119844, Note_on_c, 0, 53, 104
2, 119849, Note_on_c, 0, 41, 94
2, 119852, Note_on_c, 0, 63, 93
2, 119868, Control_c, 0, 64, 63
2, 119876, Control_c, 0, 64, 0
2, 119886, Control_c, 0, 64, 63
2, 119899, Control_c, 0, 64, 127
2, 119948, Note_on_c, 0, 53, 0
2, 119964, Note_on_c, 0, 41, 0
2, 119972, Note_on_c, 0, 56, 85
2, 119980, Note_on_c, 0, 53, 68
2, 120057, Note_on_c, 0, 53, 0
2, 120068, Note_on_c, 0, 56, 0
2, 120086, Note_on_c, 0, 48, 96
2, 120088, Note_on_c, 0, 36, 91
2, 120098, Note_on_c, 0, 61, 108
2, 120102, Note_on_c, 0, 56, 72
2, 120109, Note_on_c, 0, 53, 60
2, 120124, Note_on_c, 0, 63, 0
2, 120143, Note_on_c, 0, 53, 0
2, 120189, Note_on_c, 0, 36, 0
2, 120194, Note_on_c, 0, 61, 0
2, 120200, Note_on_c, 0, 48, 0
2, 120209, Note_on_c, 0, 56, 0
2, 120245, Note_on_c, 0, 48, 100
2, 120246, Note_on_c, 0, 36, 97
2, 120247, Note_on_c, 0, 60, 99
2, 120277, Control_c, 0, 64, 63
2, 120281, Control_c, 0, 64, 0
2, 120322, Control_c, 0, 64, 63
2, 120330, Control_c, 0, 64, 127
2, 120377, Note_on_c, 0, 58, 76
2, 120389, Note_on_c, 0, 52, 64
2, 120411, Note_on_c, 0, 36, 0
2, 120435, Note_on_c, 0, 52, 0
2, 120444, Note_on_c, 0, 48, 0
2, 120444, Note_on_c, 0, 58, 0
2, 120501, Note_on_c, 0, 58, 86
2, 120506, Note_on_c, 0, 52, 79
2, 120525, Note_on_c, 0, 60, 0
2, 120548, Note_on_c, 0, 58, 0
2, 120552, Note_on_c, 0, 52, 0
2, 120627, Note_on_c, 0, 58, 101
2, 120629, Note_on_c, 0, 43, 94
2, 120630, Note_on_c, 0, 55, 98
2, 120671, Control_c, 0, 64, 63
2, 120676, Control_c, 0, 64, 0
2, 120704, Control_c, 0, 64, 63
2, 120712, Control_c, 0, 64, 127
2, 120756, Note_on_c, 0, 55, 0
2, 120766, Note_on_c, 0, 43, 0
2, 120775, Note_on_c, 0, 52, 84
2, 120780, Note_on_c, 0, 49, 85
2, 120841, Note_on_c, 0, 49, 0
2, 120864, Note_on_c, 0, 52, 0
2, 120907, Note_on_c, 0, 48, 100
2, 120908, Note_on_c, 0, 36, 99
2, 120918, Note_on_c, 0, 52, 84
2, 120920, Note_on_c, 0, 49, 86
2, 120968, Note_on_c, 0, 49, 0
2, 120989, Note_on_c, 0, 52, 0
2, 121006, Note_on_c, 0, 48, 0
2, 121007, Note_on_c, 0, 36, 0
2, 121073, Note_on_c, 0, 56, 104
2, 121081, Note_on_c, 0, 58, 0
2, 121082, Note_on_c, 0, 48, 111
2, 121083, Note_on_c, 0, 36, 107
2, 121108, Control_c, 0, 64, 63
2, 121112, Control_c, 0, 64, 0
2, 121154, Control_c, 0, 64, 63
2, 121162, Control_c, 0, 64, 127
2, 121222, Note_on_c, 0, 53, 88
2, 121223, Note_on_c, 0, 50, 82
2, 121295, Note_on_c, 0, 50, 0
2, 121312, Note_on_c, 0, 36, 0
2, 121318, Note_on_c, 0, 53, 0
2, 121340, Note_on_c, 0, 48, 0
2, 121389, Note_on_c, 0, 53, 89
2, 121394, Note_on_c, 0, 50, 80
2, 121448, Note_on_c, 0, 50, 0
2, 121474, Note_on_c, 0, 53, 0
2, 121555, Note_on_c, 0, 59, 102
2, 121557, Note_on_c, 0, 47, 98
2, 121572, Note_on_c, 0, 53, 77
2, 121576, Note_on_c, 0, 50, 61
2, 121642, Note_on_c, 0, 50, 0
2, 121656, Note_on_c, 0, 53, 0
2, 121683, Note_on_c, 0, 59, 0
2, 121742, Note_on_c, 0, 47, 0
2, 121754, Note_on_c, 0, 53, 56
2, 121760, Note_on_c, 0, 50, 41
2, 121868, Note_on_c, 0, 50, 0
2, 121878, Note_on_c, 0, 53, 0
2, 121987, Note_on_c, 0, 36, 99
2, 121988, Note_on_c, 0, 48, 104
2, 121998, Note_on_c, 0, 56, 0
2, 122001, Note_on_c, 0, 53, 70
2, 122003, Note_on_c, 0, 50, 63
2, 122094, Note_on_c, 0, 50, 0
2, 122108, Note_on_c, 0, 53, 0
2, 122176, Note_on_c, 0, 36, 0
2, 122196, Note_on_c, 0, 48, 0
2, 122329, Note_on_c, 0, 36, 79
2, 122336, Note_on_c, 0, 60, 104
2, 122337, Note_on_c, 0, 48, 86
2, 122411, Control_c, 0, 64, 63
2, 122418, Control_c, 0, 64, 0
2, 122545, Control_c, 0, 64, 127
2, 122587, Note_on_c, 0, 57, 44
2, 122600, Note_on_c, 0, 53, 45
2, 122692, Note_on_c, 0, 57, 0
2, 122700, Note_on_c, 0, 53, 0
2, 122772, Note_on_c, 0, 57, 69
2, 122779, Note_on_c, 0, 53, 51
2, 122829, Note_on_c, 0, 48, 0
2, 122904, Note_on_c, 0, 53, 0
2, 122926, Note_on_c, 0, 62, 101
2, 122933, Note_on_c, 0, 50, 97
2, 122956, Note_on_c, 0, 57, 0
2, 122963, Note_on_c, 0, 60, 0
2, 123089, Note_on_c, 0, 57, 57
2, 123092, Note_on_c, 0, 53, 65
2, 123157, Note_on_c, 0, 57, 0
2, 123160, Note_on_c, 0, 53, 0
2, 123219, Note_on_c, 0, 57, 89
2, 123223, Note_on_c, 0, 53, 84
2, 123242, Note_on_c, 0, 50, 0
2, 123294, Note_on_c, 0, 53, 0
2, 123333, Note_on_c, 0, 57, 0
2, 123344, Note_on_c, 0, 62, 0
2, 123348, Note_on_c, 0, 48, 108
2, 123349, Note_on_c, 0, 60, 107
2, 123420, Note_on_c, 0, 36, 0
2, 123480, Note_on_c, 0, 57, 97
2, 123488, Note_on_c, 0, 53, 86
2, 123549, Note_on_c, 0, 53, 0
2, 123581, Note_on_c, 0, 57, 0
2, 123609, Note_on_c, 0, 57, 87
2, 123613, Note_on_c, 0, 53, 91
2, 123641, Note_on_c, 0, 60, 0
2, 123648, Note_on_c, 0, 53, 0
2, 123657, Note_on_c, 0, 57, 0
2, 123768, Note_on_c, 0, 53, 107
2, 123769, Note_on_c, 0, 65, 112
2, 123874, Note_on_c, 0, 48, 0
2, 123897, Note_on_c, 0, 60, 94
2, 123901, Note_on_c, 0, 53, 0
2, 123904, Note_on_c, 0, 57, 72
2, 123918, Note_on_c, 0, 65, 0
2, 123927, Note_on_c, 0, 57, 0
2, 123931, Note_on_c, 0, 60, 0
2, 124064, Note_on_c, 0, 57, 106
2, 124067, Note_on_c, 0, 69, 97
2, 124068, Note_on_c, 0, 65, 102
2, 124070, Note_on_c, 0, 60, 100
2, 124094, Note_on_c, 0, 60, 0
2, 124102, Note_on_c, 0, 65, 0
2, 124105, Note_on_c, 0, 57, 0
2, 124119, Note_on_c, 0, 69, 0
2, 124283, Note_on_c, 0, 74, 106
2, 124283, Note_on_c, 0, 36, 70
2, 124285, Note_on_c, 0, 50, 81
2, 124286, Note_on_c, 0, 69, 93
2, 124291, Note_on_c, 0, 66, 105
2, 124328, Control_c, 0, 64, 63
2, 124332, Control_c, 0, 64, 0
2, 124402, Control_c, 0, 64, 63
2, 124404, Control_c, 0, 64, 127
2, 124494, Note_on_c, 0, 62, 97
2, 124577, Note_on_c, 0, 74, 0
2, 124587, Note_on_c, 0, 69, 0
2, 124597, Note_on_c, 0, 66, 0
2, 124644, Note_on_c, 0, 66, 68
2, 124648, Note_on_c, 0, 69, 71
2, 124651, Note_on_c, 0, 74, 85
2, 124696, Note_on_c, 0, 50, 0
2, 124715, Note_on_c, 0, 62, 0
2, 124763, Note_on_c, 0, 66, 0
2, 124770, Note_on_c, 0, 74, 0
2, 124800, Note_on_c, 0, 69, 0
2, 124806, Note_on_c, 0, 48, 97
2, 124814, Note_on_c, 0, 63, 113
2, 124825, Note_on_c, 0, 66, 65
2, 124838, Control_c, 0, 64, 63
2, 124844, Note_on_c, 0, 66, 0
2, 124844, Control_c, 0, 64, 0
2, 124867, Control_c, 0, 64, 63
2, 124875, Control_c, 0, 64, 127
2, 124975, Note_on_c, 0, 75, 96
2, 124976, Note_on_c, 0, 66, 72
2, 124981, Note_on_c, 0, 69, 66
2, 125032, Note_on_c, 0, 63, 0
2, 125075, Note_on_c, 0, 48, 0
2, 125082, Note_on_c, 0, 66, 0
2, 125086, Note_on_c, 0, 69, 0
2, 125109, Note_on_c, 0, 75, 0
2, 125109, Note_on_c, 0, 63, 104
2, 125125, Note_on_c, 0, 66, 57
2, 125147, Note_on_c, 0, 66, 0
2, 125188, Note_on_c, 0, 63, 0
2, 125232, Note_on_c, 0, 46, 109
2, 125235, Note_on_c, 0, 74, 97
2, 125236, Note_on_c, 0, 66, 95
2, 125237, Note_on_c, 0, 69, 87
2, 125270, Control_c, 0, 64, 63
2, 125275, Control_c, 0, 64, 0
2, 125297, Control_c, 0, 64, 63
2, 125305, Control_c, 0, 64, 127
2, 125344, Note_on_c, 0, 74, 0
2, 125374, Note_on_c, 0, 62, 93
2, 125413, Note_on_c, 0, 69, 0
2, 125416, Note_on_c, 0, 66, 0
2, 125453, Note_on_c, 0, 46, 0
2, 125484, Note_on_c, 0, 62, 0
2, 125505, Note_on_c, 0, 66, 88
2, 125507, Note_on_c, 0, 69, 84
2, 125508, Note_on_c, 0, 74, 92
2, 125544, Note_on_c, 0, 66, 0
2, 125547, Note_on_c, 0, 74, 0
2, 125554, Note_on_c, 0, 69, 0
2, 125642, Note_on_c, 0, 45, 104
2, 125649, Note_on_c, 0, 66, 118
2, 125652, Control_c, 0, 64, 63
2, 125657, Control_c, 0, 64, 0
2, 125680, Control_c, 0, 64, 63
2, 125687, Control_c, 0, 64, 127
2, 125778, Note_on_c, 0, 66, 0
2, 125818, Note_on_c, 0, 69, 107
2, 125818, Note_on_c, 0, 78, 108
2, 125821, Note_on_c, 0, 74, 92
2, 125850, Note_on_c, 0, 74, 0
2, 125852, Note_on_c, 0, 69, 0
2, 125862, Note_on_c, 0, 78, 0
2, 125999, Note_on_c, 0, 74, 97
2, 126000, Note_on_c, 0, 78, 99
2, 126001, Note_on_c, 0, 69, 96
2, 126003, Note_on_c, 0, 81, 100
2, 126017, Note_on_c, 0, 74, 0
2, 126019, Note_on_c, 0, 69, 0
2, 126031, Note_on_c, 0, 78, 0
2, 126037, Note_on_c, 0, 81, 0
2, 126158, Note_on_c, 0, 36, 0
2, 126243, Note_on_c, 0, 45, 0
2, 126255, Note_on_c, 0, 43, 107
2, 126257, Note_on_c, 0, 36, 106
2, 126259, Note_on_c, 0, 86, 107
2, 126261, Note_on_c, 0, 82, 99
2, 126263, Note_on_c, 0, 79, 91
2, 126275, Control_c, 0, 64, 63
2, 126279, Control_c, 0, 64, 0
2, 126332, Control_c, 0, 64, 63
2, 126336, Control_c, 0, 64, 127
2, 126472, Note_on_c, 0, 74, 101
2, 126475, Note_on_c, 0, 86, 0
2, 126529, Note_on_c, 0, 79, 0
2, 126553, Note_on_c, 0, 82, 0
2, 126607, Note_on_c, 0, 82, 96
2, 126612, Note_on_c, 0, 79, 83
2, 126613, Note_on_c, 0, 86, 89
2, 126640, Note_on_c, 0, 74, 0
2, 126669, Note_on_c, 0, 86, 0
2, 126689, Note_on_c, 0, 82, 0
2, 126689, Note_on_c, 0, 79, 0
2, 126746, Note_on_c, 0, 45, 112
2, 126748, Note_on_c, 0, 70, 104
2, 126776, Note_on_c, 0, 43, 0
2, 126894, Note_on_c, 0, 82, 97
2, 126897, Note_on_c, 0, 79, 76
2, 126899, Note_on_c, 0, 74, 73
2, 126937, Note_on_c, 0, 70, 0
2, 126999, Note_on_c, 0, 82, 0
2, 127001, Note_on_c, 0, 79, 0
2, 127005, Note_on_c, 0, 70, 98
2, 127012, Note_on_c, 0, 74, 0
2, 127049, Note_on_c, 0, 70, 0
2, 127125, Note_on_c, 0, 43, 106
2, 127131, Note_on_c, 0, 79, 96
2, 127133, Note_on_c, 0, 70, 97
2, 127139, Note_on_c, 0, 74, 84
2, 127155, Note_on_c, 0, 45, 0
2, 127189, Control_c, 0, 64, 63
2, 127208, Control_c, 0, 64, 127
2, 127240, Note_on_c, 0, 79, 0
2, 127263, Note_on_c, 0, 67, 93
2, 127327, Note_on_c, 0, 74, 0
2, 127338, Note_on_c, 0, 70, 0
2, 127358, Note_on_c, 0, 67, 0
2, 127372, Note_on_c, 0, 70, 62
2, 127372, Note_on_c, 0, 79, 92
2, 127377, Note_on_c, 0, 74, 78
2, 127408, Note_on_c, 0, 79, 0
2, 127419, Note_on_c, 0, 74, 0
2, 127427, Note_on_c, 0, 70, 0
2, 127493, Note_on_c, 0, 62, 90
2, 127499, Note_on_c, 0, 45, 114
2, 127529, Note_on_c, 0, 43, 0
2, 127621, Note_on_c, 0, 70, 94
2, 127622, Note_on_c, 0, 74, 100
2, 127627, Note_on_c, 0, 67, 78
2, 127653, Note_on_c, 0, 45, 0
2, 127657, Note_on_c, 0, 62, 0
2, 127719, Note_on_c, 0, 74, 0
2, 127720, Note_on_c, 0, 46, 113
2, 127735, Note_on_c, 0, 62, 102
2, 127754, Note_on_c, 0, 70, 0
2, 127759, Note_on_c, 0, 36, 0
2, 127770, Note_on_c, 0, 67, 0
2, 127791, Note_on_c, 0, 46, 0
2, 127810, Note_on_c, 0, 36, 96
2, 127848, Note_on_c, 0, 70, 97
2, 127848, Note_on_c, 0, 72, 99
2, 127848, Note_on_c, 0, 67, 90
2, 127866, Note_on_c, 0, 48, 108
2, 127885, Control_c, 0, 64, 63
2, 127888, Note_on_c, 0, 62, 0
2, 127889, Control_c, 0, 64, 0
2, 127925, Control_c, 0, 64, 63
2, 127935, Control_c, 0, 64, 127
2, 127989, Note_on_c, 0, 60, 98
2, 128032, Note_on_c, 0, 70, 0
2, 128043, Note_on_c, 0, 67, 0
2, 128062, Note_on_c, 0, 72, 0
2, 128111, Note_on_c, 0, 72, 87
2, 128116, Note_on_c, 0, 70, 84
2, 128117, Note_on_c, 0, 67, 73
2, 128162, Note_on_c, 0, 48, 0
2, 128169, Note_on_c, 0, 60, 0
2, 128247, Note_on_c, 0, 46, 120
2, 128254, Note_on_c, 0, 62, 91
2, 128284, Note_on_c, 0, 70, 0
2, 128288, Note_on_c, 0, 72, 0
2, 128289, Note_on_c, 0, 67, 0
2, 128383, Note_on_c, 0, 70, 87
2, 128385, Note_on_c, 0, 74, 92
2, 128389, Note_on_c, 0, 67, 73
2, 128432, Note_on_c, 0, 62, 0
2, 128492, Note_on_c, 0, 62, 102
2, 128501, Note_on_c, 0, 74, 0
2, 128542, Note_on_c, 0, 46, 0
2, 128566, Note_on_c, 0, 67, 0
2, 128590, Note_on_c, 0, 70, 0
2, 128606, Note_on_c, 0, 45, 104
2, 128609, Note_on_c, 0, 72, 102
2, 128613, Note_on_c, 0, 67, 98
2, 128630, Control_c, 0, 64, 63
2, 128636, Control_c, 0, 64, 0
2, 128643, Note_on_c, 0, 62, 0
2, 128654, Control_c, 0, 64, 63
2, 128664, Control_c, 0, 64, 127
2, 128725, Note_on_c, 0, 60, 104
2, 128776, Note_on_c, 0, 72, 0
2, 128784, Note_on_c, 0, 67, 0
2, 128842, Note_on_c, 0, 72, 94
2, 128844, Note_on_c, 0, 67, 86
2, 128856, Note_on_c, 0, 60, 0
2, 128889, Note_on_c, 0, 45, 0
2, 128969, Control_c, 0, 64, 63
2, 128972, Note_on_c, 0, 67, 0
2, 128973, Control_c, 0, 64, 0
2, 128979, Note_on_c, 0, 72, 0
2, 128986, Note_on_c, 0, 43, 120
2, 128986, Note_on_c, 0, 64, 101
2, 129001, Control_c, 0, 64, 63
2, 129008, Control_c, 0, 64, 127
2, 129132, Note_on_c, 0, 72, 107
2, 129133, Note_on_c, 0, 76, 103
2, 129156, Note_on_c, 0, 64, 0
2, 129168, Note_on_c, 0, 72, 0
2, 129178, Note_on_c, 0, 76, 0
2, 129289, Note_on_c, 0, 76, 99
2, 129290, Note_on_c, 0, 79, 97
2, 129291, Note_on_c, 0, 67, 91
2, 129308, Note_on_c, 0, 67, 0
2, 129317, Note_on_c, 0, 76, 0
2, 129330, Note_on_c, 0, 79, 0
2, 129429, Note_on_c, 0, 36, 0
2, 129480, Note_on_c, 0, 43, 0
2, 129498, Note_on_c, 0, 84, 101
2, 129498, Note_on_c, 0, 41, 116
2, 129500, Note_on_c, 0, 36, 108
2, 129500, Note_on_c, 0, 81, 97
2, 129502, Control_c, 0, 64, 63
2, 129507, Control_c, 0, 64, 0
2, 129549, Control_c, 0, 64, 63
2, 129553, Control_c, 0, 64, 127
2, 129684, Note_on_c, 0, 72, 97
2, 129736, Note_on_c, 0, 84, 0
2, 129745, Note_on_c, 0, 81, 0
2, 129793, Note_on_c, 0, 84, 96
2, 129795, Note_on_c, 0, 81, 85
2, 129849, Note_on_c, 0, 72, 0
2, 129860, Note_on_c, 0, 84, 0
2, 129878, Note_on_c, 0, 81, 0
2, 129911, Note_on_c, 0, 43, 116
2, 129924, Note_on_c, 0, 69, 89
2, 129950, Note_on_c, 0, 41, 0
2, 130042, Note_on_c, 0, 77, 99
2, 130043, Note_on_c, 0, 81, 100
2, 130088, Note_on_c, 0, 69, 0
2, 130139, Note_on_c, 0, 81, 0
2, 130148, Note_on_c, 0, 69, 88
2, 130156, Note_on_c, 0, 77, 0
2, 130270, Note_on_c, 0, 41, 117
2, 130271, Note_on_c, 0, 72, 98
2, 130275, Note_on_c, 0, 77, 80
2, 130290, Note_on_c, 0, 69, 0
2, 130297, Note_on_c, 0, 43, 0
2, 130387, Note_on_c, 0, 77, 0
2, 130405, Note_on_c, 0, 65, 70
2, 130458, Note_on_c, 0, 72, 0
2, 130511, Note_on_c, 0, 77, 100
2, 130512, Note_on_c, 0, 72, 99
2, 130545, Note_on_c, 0, 65, 0
2, 130559, Note_on_c, 0, 77, 0
2, 130571, Note_on_c, 0, 72, 0
2, 130631, Note_on_c, 0, 43, 120
2, 130633, Note_on_c, 0, 60, 99
2, 130665, Note_on_c, 0, 41, 0
2, 130745, Note_on_c, 0, 72, 94
2, 130746, Note_on_c, 0, 69, 89
2, 130777, Note_on_c, 0, 60, 0
2, 130834, Note_on_c, 0, 72, 0
2, 130842, Note_on_c, 0, 69, 0
2, 130848, Note_on_c, 0, 45, 117
2, 130860, Note_on_c, 0, 60, 91
2, 130872, Note_on_c, 0, 43, 0
2, 130875, Note_on_c, 0, 36, 0
2, 130908, Note_on_c, 0, 60, 0
2, 130914, Note_on_c, 0, 45, 0
2, 130966, Control_c, 0, 64, 63
2, 130966, Note_on_c, 0, 36, 49
2, 130972, Control_c, 0, 64, 0
2, 130976, Note_on_c, 0, 46, 115
2, 130977, Note_on_c, 0, 69, 85
2, 130978, Note_on_c, 0, 65, 87
2, 130979, Note_on_c, 0, 70, 100
2, 131004, Control_c, 0, 64, 63
2, 131012, Control_c, 0, 64, 127
2, 131097, Note_on_c, 0, 58, 101
2, 131153, Note_on_c, 0, 70, 0
2, 131166, Note_on_c, 0, 65, 0
2, 131174, Note_on_c, 0, 69, 0
2, 131201, Note_on_c, 0, 58, 0
2, 131212, Note_on_c, 0, 70, 96
2, 131221, Note_on_c, 0, 65, 80
2, 131221, Note_on_c, 0, 69, 81
2, 131222, Note_on_c, 0, 46, 0
2, 131311, Note_on_c, 0, 70, 0
2, 131315, Note_on_c, 0, 69, 0
2, 131323, Note_on_c, 0, 45, 114
2, 131326, Note_on_c, 0, 60, 102
2, 131352, Note_on_c, 0, 65, 0
2, 131435, Note_on_c, 0, 60, 0
2, 131448, Note_on_c, 0, 69, 92
2, 131450, Note_on_c, 0, 72, 103
2, 131452, Note_on_c, 0, 65, 89
2, 131537, Note_on_c, 0, 72, 0
2, 131560, Note_on_c, 0, 60, 104
2, 131591, Note_on_c, 0, 65, 0
2, 131598, Note_on_c, 0, 69, 0
2, 131617, Note_on_c, 0, 45, 0
2, 131669, Note_on_c, 0, 60, 0
2, 131681, Control_c, 0, 64, 63
2, 131682, Note_on_c, 0, 43, 121
2, 131683, Control_c, 0, 64, 0
2, 131688, Note_on_c, 0, 70, 112
2, 131690, Note_on_c, 0, 65, 100
2, 131719, Control_c, 0, 64, 63
2, 131724, Control_c, 0, 64, 127
2, 131815, Note_on_c, 0, 58, 104
2, 131857, Note_on_c, 0, 70, 0
2, 131881, Note_on_c, 0, 65, 0
2, 131926, Note_on_c, 0, 58, 0
2, 131930, Note_on_c, 0, 70, 100
2, 131931, Note_on_c, 0, 65, 91
2, 131975, Note_on_c, 0, 65, 0
2, 131985, Note_on_c, 0, 43, 0
2, 131992, Note_on_c, 0, 70, 0
2, 132054, Note_on_c, 0, 41, 120
2, 132059, Note_on_c, 0, 62, 109
2, 132063, Control_c, 0, 64, 63
2, 132067, Control_c, 0, 64, 0
2, 132082, Control_c, 0, 64, 63
2, 132089, Control_c, 0, 64, 127
2, 132200, Note_on_c, 0, 70, 110
2, 132203, Note_on_c, 0, 74, 99
2, 132216, Note_on_c, 0, 62, 0
2, 132236, Note_on_c, 0, 70, 0
2, 132239, Note_on_c, 0, 74, 0
2, 132358, Note_on_c, 0, 65, 108
2, 132358, Note_on_c, 0, 74, 104
2, 132359, Note_on_c, 0, 77, 108
2, 132384, Note_on_c, 0, 36, 0
2, 132385, Note_on_c, 0, 65, 0
2, 132388, Note_on_c, 0, 41, 0
2, 132389, Note_on_c, 0, 74, 0
2, 132399, Note_on_c, 0, 77, 0
2, 132573, Note_on_c, 0, 43, 112
2, 132576, Note_on_c, 0, 36, 99
2, 132577, Note_on_c, 0, 40, 104
2, 132578, Note_on_c, 0, 79, 98
2, 132578, Control_c, 0, 64, 63
2, 132579, Note_on_c, 0, 82, 108
2, 132581, Control_c, 0, 64, 0
2, 132584, Note_on_c, 0, 76, 97
2, 132627, Control_c, 0, 64, 63
2, 132630, Control_c, 0, 64, 127
2, 132767, Note_on_c, 0, 36, 0
2, 132774, Note_on_c, 0, 48, 117
2, 132783, Note_on_c, 0, 40, 0
2, 132784, Note_on_c, 0, 70, 116
2, 132785, Note_on_c, 0, 82, 0
2, 132801, Note_on_c, 0, 43, 0
2, 132819, Note_on_c, 0, 79, 0
2, 132826, Note_on_c, 0, 76, 0
2, 132828, Note_on_c, 0, 48, 0
2, 132942, Note_on_c, 0, 55, 93
2, 132946, Note_on_c, 0, 52, 87
2, 132947, Note_on_c, 0, 82, 103
2, 132950, Note_on_c, 0, 79, 86
2, 132951, Note_on_c, 0, 76, 86
2, 132976, Note_on_c, 0, 70, 0
2, 133080, Note_on_c, 0, 55, 0
2, 133089, Note_on_c, 0, 58, 116
2, 133092, Note_on_c, 0, 82, 0
2, 133099, Note_on_c, 0, 70, 115
2, 133115, Note_on_c, 0, 79, 0
2, 133138, Note_on_c, 0, 76, 0
2, 133193, Note_on_c, 0, 52, 0
2, 133229, Note_on_c, 0, 58, 0
2, 133236, Note_on_c, 0, 55, 100
2, 133236, Note_on_c, 0, 82, 99
2, 133238, Note_on_c, 0, 79, 84
2, 133239, Note_on_c, 0, 76, 86
2, 133240, Note_on_c, 0, 52, 101
2, 133263, Note_on_c, 0, 70, 0
2, 133274, Note_on_c, 0, 55, 0
2, 133288, Note_on_c, 0, 52, 0
2, 133365, Note_on_c, 0, 82, 0
2, 133369, Note_on_c, 0, 48, 98
2, 133375, Note_on_c, 0, 70, 108
2, 133386, Note_on_c, 0, 79, 0
2, 133407, Note_on_c, 0, 76, 0
2, 133415, Note_on_c, 0, 70, 0
2, 133444, Note_on_c, 0, 48, 0
2, 133461, Control_c, 0, 64, 63
2, 133467, Control_c, 0, 64, 0
2, 133486, Note_on_c, 0, 43, 108
2, 133487, Note_on_c, 0, 36, 107
2, 133490, Note_on_c, 0, 40, 101
2, 133493, Note_on_c, 0, 79, 100
2, 133494, Note_on_c, 0, 83, 104
2, 133495, Note_on_c, 0, 76, 104
2, 133510, Control_c, 0, 64, 63
2, 133513, Control_c, 0, 64, 127
2, 133576, Note_on_c, 0, 83, 0
2, 133597, Note_on_c, 0, 36, 0
2, 133609, Note_on_c, 0, 71, 102
2, 133611, Note_on_c, 0, 40, 0
2, 133613, Note_on_c, 0, 48, 109
2, 133624, Note_on_c, 0, 43, 0
2, 133635, Note_on_c, 0, 79, 0
2, 133654, Note_on_c, 0, 76, 0
2, 133664, Note_on_c, 0, 48, 0
2, 133721, Note_on_c, 0, 55, 99
2, 133722, Note_on_c, 0, 52, 100
2, 133722, Note_on_c, 0, 79, 96
2, 133723, Note_on_c, 0, 76, 101
2, 133724, Note_on_c, 0, 83, 98
2, 133742, Note_on_c, 0, 71, 0
2, 133829, Note_on_c, 0, 59, 121
2, 133836, Note_on_c, 0, 71, 113
2, 133860, Note_on_c, 0, 55, 0
2, 133866, Note_on_c, 0, 83, 0
2, 133871, Note_on_c, 0, 76, 0
2, 133883, Note_on_c, 0, 52, 0
2, 133899, Note_on_c, 0, 79, 0
2, 133942, Note_on_c, 0, 79, 98
2, 133945, Note_on_c, 0, 83, 98
2, 133945, Note_on_c, 0, 76, 99
2, 133948, Note_on_c, 0, 55, 98
2, 133949, Note_on_c, 0, 52, 103
2, 133960, Note_on_c, 0, 59, 0
2, 133975, Note_on_c, 0, 71, 0
2, 133982, Note_on_c, 0, 55, 0
2, 133999, Note_on_c, 0, 52, 0
2, 134042, Note_on_c, 0, 83, 0
2, 134048, Note_on_c, 0, 79, 0
2, 134050, Note_on_c, 0, 71, 94
2, 134054, Note_on_c, 0, 48, 104
2, 134066, Note_on_c, 0, 76, 0
2, 134094, Note_on_c, 0, 71, 0
2, 134136, Control_c, 0, 64, 63
2, 134137, Note_on_c, 0, 48, 0
2, 134139, Control_c, 0, 64, 0
2, 134160, Note_on_c, 0, 43, 113
2, 134161, Note_on_c, 0, 79, 103
2, 134161, Note_on_c, 0, 36, 109
2, 134163, Note_on_c, 0, 40, 106
2, 134163, Note_on_c, 0, 84, 113
2, 134169, Note_on_c, 0, 76, 103
2, 134176, Control_c, 0, 64, 63
2, 134181, Control_c, 0, 64, 127
2, 134257, Note_on_c, 0, 84, 0
2, 134260, Note_on_c, 0, 36, 0
2, 134275, Note_on_c, 0, 40, 0
2, 134275, Note_on_c, 0, 48, 111
2, 134282, Note_on_c, 0, 72, 98
2, 134292, Note_on_c, 0, 43, 0
2, 134310, Note_on_c, 0, 76, 0
2, 134316, Note_on_c, 0, 79, 0
2, 134332, Note_on_c, 0, 48, 0
2, 134364, Note_on_c, 0, 72, 0
2, 134392, Note_on_c, 0, 79, 104
2, 134394, Note_on_c, 0, 55, 104
2, 134395, Note_on_c, 0, 84, 106
2, 134395, Note_on_c, 0, 52, 102
2, 134480, Note_on_c, 0, 84, 0
2, 134520, Note_on_c, 0, 60, 118
2, 134522, Note_on_c, 0, 72, 116
2, 134551, Note_on_c, 0, 55, 0
2, 134556, Note_on_c, 0, 79, 0
2, 134567, Note_on_c, 0, 52, 0
2, 134638, Note_on_c, 0, 72, 0
2, 134648, Note_on_c, 0, 79, 109
2, 134651, Note_on_c, 0, 84, 107
2, 134651, Note_on_c, 0, 55, 108
2, 134652, Note_on_c, 0, 60, 0
2, 134654, Note_on_c, 0, 52, 107
2, 134693, Note_on_c, 0, 55, 0
2, 134706, Note_on_c, 0, 52, 0
2, 134742, Note_on_c, 0, 84, 0
2, 134778, Note_on_c, 0, 48, 114
2, 134781, Note_on_c, 0, 72, 99
2, 134782, Note_on_c, 0, 79, 0
2, 134813, Note_on_c, 0, 72, 0
2, 134895, Note_on_c, 0, 48, 0
2, 134915, Control_c, 0, 64, 63
2, 134920, Control_c, 0, 64, 0
2, 134923, Note_on_c, 0, 43, 120
2, 134924, Note_on_c, 0, 36, 117
2, 134925, Note_on_c, 0, 40, 114
2, 134925, Note_on_c, 0, 88, 108
2, 134928, Note_on_c, 0, 84, 103
2, 134928, Note_on_c, 0, 82, 108
2, 134961, Control_c, 0, 64, 63
2, 134964, Control_c, 0, 64, 127
2, 135066, Note_on_c, 0, 36, 0
2, 135072, Note_on_c, 0, 88, 0
2, 135075, Note_on_c, 0, 48, 116
2, 135080, Note_on_c, 0, 76, 113
2, 135085, Note_on_c, 0, 40, 0
2, 135099, Note_on_c, 0, 43, 0
2, 135113, Note_on_c, 0, 84, 0
2, 135129, Note_on_c, 0, 48, 0
2, 135135, Note_on_c, 0, 82, 0
2, 135221, Note_on_c, 0, 84, 106
2, 135222, Note_on_c, 0, 52, 111
2, 135223, Note_on_c, 0, 82, 103
2, 135224, Note_on_c, 0, 55, 111
2, 135225, Note_on_c, 0, 88, 102
2, 135251, Note_on_c, 0, 76, 0
2, 135372, Note_on_c, 0, 55, 0
2, 135385, Note_on_c, 0, 88, 0
2, 135391, Note_on_c, 0, 64, 116
2, 135392, Note_on_c, 0, 55, 73
2, 135398, Note_on_c, 0, 76, 117
2, 135422, Note_on_c, 0, 55, 0
2, 135435, Note_on_c, 0, 84, 0
2, 135455, Note_on_c, 0, 82, 0
2, 135497, Note_on_c, 0, 52, 0
2, 135590, Note_on_c, 0, 84, 109
2, 135592, Note_on_c, 0, 82, 106
2, 135593, Note_on_c, 0, 55, 114
2, 135594, Note_on_c, 0, 88, 104
2, 135614, Note_on_c, 0, 52, 104
2, 135625, Note_on_c, 0, 76, 0
2, 135628, Note_on_c, 0, 64, 0
2, 135636, Note_on_c, 0, 52, 0
2, 135829, Note_on_c, 0, 48, 112
2, 135835, Note_on_c, 0, 88, 0
2, 135837, Note_on_c, 0, 76, 118
2, 135864, Note_on_c, 0, 55, 0
2, 135870, Note_on_c, 0, 82, 0
2, 135872, Note_on_c, 0, 48, 0
2, 135875, Note_on_c, 0, 84, 0
2, 135882, Note_on_c, 0, 76, 0
2, 136081, Control_c, 0, 64, 63
2, 136087, Control_c, 0, 64, 0
2, 136118, Note_on_c, 0, 41, 104
2, 136128, Note_on_c, 0, 89, 104
2, 136132, Note_on_c, 0, 84, 102
2, 136134, Note_on_c, 0, 81, 104
2, 136135, Note_on_c, 0, 48, 117
2, 136137, Note_on_c, 0, 53, 122
2, 136147, Control_c, 0, 64, 127
2, 136157, Note_on_c, 0, 89, 0
2, 136161, Note_on_c, 0, 41, 0
2, 136162, Note_on_c, 0, 84, 0
2, 136164, Note_on_c, 0, 81, 0
2, 136165, Note_on_c, 0, 48, 0
2, 136175, Note_on_c, 0, 53, 0
2, 136297, Note_on_c, 0, 65, 121
2, 136297, Note_on_c, 0, 57, 106
2, 136298, Note_on_c, 0, 60, 113
2, 136299, Note_on_c, 0, 77, 112
2, 136300, Note_on_c, 0, 72, 109
2, 136301, Note_on_c, 0, 69, 103
2, 136326, Note_on_c, 0, 72, 0
2, 136327, Note_on_c, 0, 69, 0
2, 136330, Note_on_c, 0, 77, 0
2, 136699, Note_on_c, 0, 60, 0
2, 136720, Note_on_c, 0, 65, 0
2, 136731, Note_on_c, 0, 57, 0
2, 136936, Note_on_c, 0, 79, 117
2, 136936, Note_on_c, 0, 60, 109
2, 136937, Note_on_c, 0, 67, 117
2, 136937, Note_on_c, 0, 72, 114
2, 136939, Note_on_c, 0, 70, 118
2, 136940, Note_on_c, 0, 58, 105
2, 137306, Note_on_c, 0, 67, 0
2, 137312, Note_on_c, 0, 79, 0
2, 137313, Note_on_c, 0, 70, 0
2, 137331, Note_on_c, 0, 72, 0
2, 137336, Note_on_c, 0, 60, 0
2, 137344, Note_on_c, 0, 58, 0
2, 137491, Note_on_c, 0, 57, 93
2, 137492, Note_on_c, 0, 65, 112
2, 137492, Note_on_c, 0, 77, 121
2, 137493, Note_on_c, 0, 60, 106
2, 137496, Note_on_c, 0, 69, 112
2, 137496, Note_on_c, 0, 72, 112
2, 137529, Note_on_c, 0, 69, 0
2, 137542, Note_on_c, 0, 65, 0
2, 137549, Note_on_c, 0, 77, 0
2, 137555, Note_on_c, 0, 72, 0
2, 137559, Note_on_c, 0, 60, 0
2, 137577, Note_on_c, 0, 76, 116
2, 137579, Note_on_c, 0, 72, 113
2, 137579, Note_on_c, 0, 64, 116
2, 137582, Note_on_c, 0, 60, 108
2, 137582, Note_on_c, 0, 55, 102
2, 137582, Note_on_c, 0, 67, 111
2, 137603, Control_c, 0, 64, 63
2, 137606, Note_on_c, 0, 57, 0
2, 137609, Control_c, 0, 64, 0
2, 137672, Control_c, 0, 64, 63
2, 137676, Control_c, 0, 64, 127
2, 137972, Note_on_c, 0, 67, 0
2, 137986, Note_on_c, 0, 72, 0
2, 137993, Note_on_c, 0, 76, 0
2, 138084, Note_on_c, 0, 64, 0
2, 138084, Note_on_c, 0, 60, 0
2, 138119, Note_on_c, 0, 55, 0
2, 138249, Note_on_c, 0, 77, 124
2, 138249, Note_on_c, 0, 65, 118
2, 138250, Note_on_c, 0, 60, 113
2, 138253, Note_on_c, 0, 57, 93
2, 138254, Note_on_c, 0, 72, 117
2, 138254, Note_on_c, 0, 69, 114
2, 138285, Control_c, 0, 64, 63
2, 138288, Control_c, 0, 64, 0
2, 138321, Control_c, 0, 64, 63
2, 138326, Control_c, 0, 64, 127
2, 138440, Note_on_c, 0, 69, 0
2, 138443, Note_on_c, 0, 77, 0
2, 138452, Note_on_c, 0, 72, 0
2, 138515, Note_on_c, 0, 65, 0
2, 138556, Note_on_c, 0, 60, 0
2, 138564, Note_on_c, 0, 57, 0
2, 138840, Note_on_c, 0, 76, 120
2, 138842, Note_on_c, 0, 72, 118
2, 138844, Note_on_c, 0, 67, 112
2, 138844, Note_on_c, 0, 60, 109
2, 138846, Note_on_c, 0, 64, 108
2, 138848, Note_on_c, 0, 55, 89
2, 138897, Note_on_c, 0, 64, 0
2, 138902, Note_on_c, 0, 67, 0
2, 138909, Note_on_c, 0, 60, 0
2, 138910, Note_on_c, 0, 76, 0
2, 138914, Note_on_c, 0, 72, 0
2, 138933, Note_on_c, 0, 60, 104
2, 138935, Note_on_c, 0, 74, 120
2, 138936, Note_on_c, 0, 62, 116
2, 138937, Note_on_c, 0, 72, 112
2, 138938, Note_on_c, 0, 53, 107
2, 138939, Note_on_c, 0, 69, 111
2, 138967, Note_on_c, 0, 55, 0
2, 138979, Control_c, 0, 64, 63
2, 138986, Control_c, 0, 64, 0
2, 139084, Control_c, 0, 64, 63
2, 139088, Control_c, 0, 64, 127
2, 139287, Note_on_c, 0, 69, 0
2, 139309, Note_on_c, 0, 74, 0
2, 139316, Note_on_c, 0, 72, 0
2, 139517, Note_on_c, 0, 60, 0
2, 139544, Note_on_c, 0, 62, 0
2, 139674, Note_on_c, 0, 76, 117
2, 139676, Note_on_c, 0, 71, 114
2, 139677, Note_on_c, 0, 64, 114
2, 139677, Note_on_c, 0, 67, 109
2, 139678, Note_on_c, 0, 59, 106
2, 139682, Note_on_c, 0, 55, 87
2, 139683, Note_on_c, 0, 53, 0
2, 139737, Control_c, 0, 64, 63
2, 139742, Control_c, 0, 64, 0
2, 139784, Control_c, 0, 64, 63
2, 139791, Control_c, 0, 64, 127
2, 140151, Note_on_c, 0, 64, 0
2, 140173, Note_on_c, 0, 76, 0
2, 140173, Note_on_c, 0, 67, 0
2, 140183, Note_on_c, 0, 71, 0
2, 140316, Note_on_c, 0, 59, 0
2, 140334, Note_on_c, 0, 74, 108
2, 140338, Note_on_c, 0, 62, 102
2, 140340, Note_on_c, 0, 65, 94
2, 140347, Note_on_c, 0, 55, 0
2, 140380, Note_on_c, 0, 65, 0
2, 140388, Note_on_c, 0, 62, 0
2, 140412, Note_on_c, 0, 74, 0
2, 140454, Note_on_c, 0, 72, 114
2, 140456, Note_on_c, 0, 60, 102
2, 140457, Note_on_c, 0, 64, 107
2, 140461, Note_on_c, 0, 48, 90
2, 140542, Control_c, 0, 64, 63
2, 140553, Control_c, 0, 64, 0
2, 140607, Control_c, 0, 64, 63
2, 140627, Control_c, 0, 64, 127
2, 141039, Note_on_c, 0, 60, 0
2, 141226, Note_on_c, 0, 58, 79
2, 141230, Note_on_c, 0, 70, 101
2, 141264, Note_on_c, 0, 72, 0
2, 141894, Note_on_c, 0, 58, 0
2, 141972, Note_on_c, 0, 64, 0
2, 142001, Note_on_c, 0, 70, 0
2, 142062, Note_on_c, 0, 48, 0
2, 142105, Note_on_c, 0, 69, 92
2, 142106, Note_on_c, 0, 49, 89
2, 142106, Note_on_c, 0, 57, 85
2, 142106, Note_on_c, 0, 67, 89
2, 142112, Note_on_c, 0, 64, 85
2, 142274, Control_c, 0, 64, 63
2, 142296, Control_c, 0, 64, 0
2, 142317, Control_c, 0, 64, 63
2, 142346, Control_c, 0, 64, 127
2, 142525, Note_on_c, 0, 64, 0
2, 142553, Note_on_c, 0, 67, 0
2, 142582, Note_on_c, 0, 69, 0
2, 142610, Note_on_c, 0, 57, 0
2, 142645, Note_on_c, 0, 49, 0
2, 142821, Note_on_c, 0, 70, 98
2, 142823, Note_on_c, 0, 58, 96
2, 142825, Note_on_c, 0, 66, 88
2, 142828, Note_on_c, 0, 63, 93
2, 142829, Note_on_c, 0, 48, 84
2, 142895, Control_c, 0, 64, 63
2, 142904, Control_c, 0, 64, 0
2, 142961, Control_c, 0, 64, 63
2, 142969, Control_c, 0, 64, 127
2, 143176, Note_on_c, 0, 58, 0
2, 143215, Note_on_c, 0, 70, 0
2, 143239, Note_on_c, 0, 69, 100
2, 143246, Note_on_c, 0, 57, 89
2, 143334, Note_on_c, 0, 63, 0
2, 143345, Note_on_c, 0, 66, 0
2, 143356, Note_on_c, 0, 69, 0
2, 143399, Note_on_c, 0, 57, 0
2, 143495, Note_on_c, 0, 55, 35
2, 143497, Note_on_c, 0, 74, 90
2, 143503, Note_on_c, 0, 62, 57
2, 143504, Note_on_c, 0, 46, 53
2, 143505, Note_on_c, 0, 67, 65
2, 143521, Note_on_c, 0, 48, 0
2, 143619, Control_c, 0, 64, 63
2, 143631, Control_c, 0, 64, 0
2, 143702, Control_c, 0, 64, 63
2, 143707, Control_c, 0, 64, 127
2, 143953, Note_on_c, 0, 62, 0
2, 144020, Note_on_c, 0, 74, 0
2, 144041, Note_on_c, 0, 67, 0
2, 144127, Note_on_c, 0, 55, 0
2, 144134, Note_on_c, 0, 46, 0
2, 144220, Note_on_c, 0, 46, 61
2, 144221, Note_on_c, 0, 67, 85
2, 144225, Note_on_c, 0, 55, 51
2, 144228, Note_on_c, 0, 62, 71
2, 144297, Control_c, 0, 64, 63
2, 144306, Control_c, 0, 64, 0
2, 144352, Control_c, 0, 64, 63
2, 144364, Control_c, 0, 64, 127
2, 144569, Note_on_c, 0, 55, 0
2, 144570, Note_on_c, 0, 46, 0
2, 144579, Note_on_c, 0, 62, 0
2, 144753, Note_on_c, 0, 67, 0
2, 144779, Note_on_c, 0, 57, 46
2, 144781, Note_on_c, 0, 69, 81
2, 144784, Note_on_c, 0, 66, 80
2, 144787, Note_on_c, 0, 45, 43
2, 144792, Note_on_c, 0, 60, 54
2, 144798, Control_c, 0, 64, 63
2, 144824, Control_c, 0, 64, 127
2, 144912, Note_on_c, 0, 69, 0
2, 144925, Note_on_c, 0, 60, 0
2, 144944, Note_on_c, 0, 66, 0
2, 144951, Note_on_c, 0, 45, 0
2, 144982, Note_on_c, 0, 57, 0
2, 145069, Note_on_c, 0, 70, 84
2, 145075, Note_on_c, 0, 58, 47
2, 145079, Note_on_c, 0, 67, 49
2, 145081, Note_on_c, 0, 43, 48
2, 145084, Note_on_c, 0, 62, 60
2, 145149, Control_c, 0, 64, 63
2, 145165, Control_c, 0, 64, 0
2, 145269, Control_c, 0, 64, 63
2, 145289, Control_c, 0, 64, 127
2, 145879, Note_on_c, 0, 67, 0
2, 145887, Note_on_c, 0, 62, 0
2, 145892, Note_on_c, 0, 58, 0
2, 145916, Note_on_c, 0, 70, 0
2, 146045, Note_on_c, 0, 43, 0
2, 146045, Note_on_c, 0, 55, 44
2, 146047, Note_on_c, 0, 46, 49
2, 146050, Note_on_c, 0, 67, 65
2, 146055, Note_on_c, 0, 62, 52
2, 146139, Control_c, 0, 64, 63
2, 146182, Control_c, 0, 64, 127
2, 146567, Control_c, 0, 67, 127
2, 146706, Note_on_c, 0, 67, 0
2, 146725, Note_on_c, 0, 55, 0
2, 146726, Note_on_c, 0, 62, 0
2, 146742, Note_on_c, 0, 46, 0
2, 147313, Note_on_c, 0, 64, 47
2, 147320, Note_on_c, 0, 45, 28
2, 147320, Note_on_c, 0, 61, 63
2, 147327, Note_on_c, 0, 57, 30
2, 147332, Note_on_c, 0, 52, 17
2, 147332, Note_on_c, 0, 33, 20
2, 147537, Control_c, 0, 64, 63
2, 147599, Control_c, 0, 64, 0
2, 148154, Control_c, 0, 64, 63
2, 148179, Control_c, 0, 64, 127
2, 148280, Note_on_c, 0, 52, 0
2, 148346, Note_on_c, 0, 57, 0
2, 148388, Note_on_c, 0, 64, 0
2, 148440, Note_on_c, 0, 61, 0
2, 148803, Control_c, 0, 67, 127
2, 148957, Control_c, 0, 64, 63
2, 148989, Note_on_c, 0, 33, 0
2, 149007, Control_c, 0, 64, 127
2, 149012, Note_on_c, 0, 33, 67
2, 149039, Note_on_c, 0, 45, 0
2, 149125, Control_c, 0, 64, 63
2, 149133, Control_c, 0, 64, 0
2, 149138, Note_on_c, 0, 82, 89
2, 149170, Control_c, 0, 64, 63
2, 149178, Control_c, 0, 64, 127
2, 149300, Note_on_c, 0, 33, 0
2, 149513, Note_on_c, 0, 49, 66
2, 149732, Note_on_c, 0, 46, 67
2, 149887, Note_on_c, 0, 43, 50
2, 149930, Note_on_c, 0, 49, 0
2, 149931, Note_on_c, 0, 46, 0
2, 150031, Note_on_c, 0, 52, 50
2, 150055, Note_on_c, 0, 82, 0
2, 150074, Note_on_c, 0, 81, 78
2, 150106, Note_on_c, 0, 43, 0
2, 150157, Note_on_c, 0, 49, 70
2, 150235, Note_on_c, 0, 52, 0
2, 150272, Note_on_c, 0, 79, 91
2, 150279, Note_on_c, 0, 46, 67
2, 150310, Note_on_c, 0, 81, 0
2, 150327, Note_on_c, 0, 49, 0
2, 150387, Note_on_c, 0, 55, 60
2, 150433, Note_on_c, 0, 77, 100
2, 150469, Control_c, 0, 64, 63
2, 150477, Note_on_c, 0, 79, 0
2, 150482, Control_c, 0, 64, 0
2, 150489, Control_c, 0, 64, 63
2, 150505, Note_on_c, 0, 46, 0
2, 150509, Note_on_c, 0, 52, 70
2, 150509, Control_c, 0, 64, 127
2, 150545, Note_on_c, 0, 55, 0
2, 150606, Note_on_c, 0, 76, 94
2, 150618, Note_on_c, 0, 49, 76
2, 150636, Note_on_c, 0, 77, 0
2, 150642, Note_on_c, 0, 52, 0
2, 150681, Control_c, 0, 64, 63
2, 150691, Control_c, 0, 64, 0
2, 150704, Note_on_c, 0, 58, 76
2, 150707, Control_c, 0, 64, 63
2, 150723, Control_c, 0, 64, 127
2, 150759, Note_on_c, 0, 74, 102
2, 150781, Note_on_c, 0, 76, 0
2, 150819, Note_on_c, 0, 49, 0
2, 150830, Note_on_c, 0, 55, 71
2, 150859, Note_on_c, 0, 58, 0
2, 150927, Note_on_c, 0, 72, 101
2, 150929, Note_on_c, 0, 52, 68
2, 150953, Note_on_c, 0, 74, 0
2, 150954, Note_on_c, 0, 55, 0
2, 150967, Control_c, 0, 64, 63
2, 150975, Control_c, 0, 64, 0
2, 151006, Control_c, 0, 64, 63
2, 151018, Control_c, 0, 64, 127
2, 151034, Note_on_c, 0, 61, 89
2, 151100, Note_on_c, 0, 73, 109
2, 151135, Note_on_c, 0, 72, 0
2, 151175, Note_on_c, 0, 58, 75
2, 151176, Note_on_c, 0, 52, 0
2, 151178, Note_on_c, 0, 73, 0
2, 151189, Note_on_c, 0, 61, 0
2, 151202, Note_on_c, 0, 73, 101
2, 151287, Note_on_c, 0, 58, 0
2, 151327, Note_on_c, 0, 55, 45
2, 151339, Note_on_c, 0, 77, 88
2, 151383, Note_on_c, 0, 73, 0
2, 151416, Control_c, 0, 64, 63
2, 151423, Control_c, 0, 64, 0
2, 151475, Control_c, 0, 64, 63
2, 151484, Control_c, 0, 64, 127
2, 151496, Note_on_c, 0, 64, 64
2, 151567, Note_on_c, 0, 76, 82
2, 151592, Note_on_c, 0, 77, 0
2, 151635, Note_on_c, 0, 61, 69
2, 151665, Note_on_c, 0, 64, 0
2, 151671, Note_on_c, 0, 55, 0
2, 151753, Note_on_c, 0, 74, 68
2, 151754, Note_on_c, 0, 76, 0
2, 151756, Note_on_c, 0, 58, 52
2, 151759, Control_c, 0, 64, 63
2, 151768, Control_c, 0, 64, 0
2, 151783, Control_c, 0, 64, 63
2, 151793, Note_on_c, 0, 61, 0
2, 151797, Control_c, 0, 64, 127
2, 151883, Note_on_c, 0, 67, 53
2, 151929, Note_on_c, 0, 73, 80
2, 151938, Note_on_c, 0, 74, 0
2, 151995, Note_on_c, 0, 58, 0
2, 152022, Note_on_c, 0, 64, 46
2, 152038, Note_on_c, 0, 67, 0
2, 152087, Note_on_c, 0, 70, 78
2, 152111, Note_on_c, 0, 73, 0
2, 152174, Note_on_c, 0, 61, 63
2, 152198, Note_on_c, 0, 64, 0
2, 152227, Control_c, 0, 64, 63
2, 152240, Control_c, 0, 64, 0
2, 152249, Note_on_c, 0, 69, 62
2, 152255, Control_c, 0, 64, 63
2, 152273, Note_on_c, 0, 70, 0
2, 152277, Control_c, 0, 64, 127
2, 152336, Note_on_c, 0, 64, 39
2, 152349, Note_on_c, 0, 61, 0
2, 152436, Note_on_c, 0, 67, 54
2, 152440, Note_on_c, 0, 69, 0
2, 152483, Note_on_c, 0, 61, 47
2, 152502, Note_on_c, 0, 64, 0
2, 152634, Note_on_c, 0, 58, 44
2, 152635, Note_on_c, 0, 65, 67
2, 152659, Note_on_c, 0, 67, 0
2, 152662, Control_c, 0, 64, 63
2, 152669, Note_on_c, 0, 61, 0
2, 152670, Control_c, 0, 64, 0
2, 152710, Control_c, 0, 64, 63
2, 152725, Control_c, 0, 64, 127
2, 152783, Note_on_c, 0, 61, 24
2, 152828, Note_on_c, 0, 58, 0
2, 152848, Note_on_c, 0, 64, 48
2, 152866, Note_on_c, 0, 65, 0
2, 152921, Note_on_c, 0, 58, 54
2, 152951, Note_on_c, 0, 61, 0
2, 153018, Note_on_c, 0, 64, 0
2, 153134, Note_on_c, 0, 58, 0
2, 153141, Note_on_c, 0, 55, 27
2, 153152, Note_on_c, 0, 70, 83
2, 153228, Control_c, 0, 64, 63
2, 153237, Control_c, 0, 64, 0
2, 153279, Control_c, 0, 64, 63
2, 153291, Control_c, 0, 64, 127
2, 153313, Note_on_c, 0, 61, 46
2, 153407, Note_on_c, 0, 64, 52
2, 153486, Note_on_c, 0, 58, 50
2, 153494, Note_on_c, 0, 61, 0
2, 153593, Note_on_c, 0, 64, 0
2, 153605, Note_on_c, 0, 67, 55
2, 153630, Note_on_c, 0, 58, 0
2, 153710, Note_on_c, 0, 61, 55
2, 153778, Note_on_c, 0, 65, 68
2, 153826, Note_on_c, 0, 61, 0
2, 153842, Note_on_c, 0, 58, 59
2, 153860, Note_on_c, 0, 67, 0
2, 153903, Note_on_c, 0, 65, 0
2, 153934, Note_on_c, 0, 70, 0
2, 153964, Note_on_c, 0, 53, 69
2, 153976, Note_on_c, 0, 70, 100
2, 153999, Note_on_c, 0, 58, 0
2, 154017, Note_on_c, 0, 55, 0
2, 154021, Control_c, 0, 64, 63
2, 154029, Control_c, 0, 64, 0
2, 154082, Control_c, 0, 64, 63
2, 154091, Control_c, 0, 64, 127
2, 154114, Note_on_c, 0, 61, 53
2, 154175, Note_on_c, 0, 65, 85
2, 154247, Note_on_c, 0, 58, 72
2, 154280, Note_on_c, 0, 61, 0
2, 154346, Note_on_c, 0, 69, 93
2, 154365, Note_on_c, 0, 65, 0
2, 154446, Note_on_c, 0, 61, 77
2, 154474, Note_on_c, 0, 58, 0
2, 154527, Note_on_c, 0, 66, 80
2, 154589, Note_on_c, 0, 58, 66
2, 154613, Note_on_c, 0, 61, 0
2, 154642, Note_on_c, 0, 66, 0
2, 154655, Note_on_c, 0, 53, 0
2, 154667, Note_on_c, 0, 70, 0
2, 154674, Note_on_c, 0, 69, 0
2, 154749, Note_on_c, 0, 70, 104
2, 154753, Note_on_c, 0, 51, 95
2, 154814, Control_c, 0, 64, 63
2, 154815, Note_on_c, 0, 58, 0
2, 154821, Control_c, 0, 64, 0
2, 154879, Control_c, 0, 64, 63
2, 154888, Control_c, 0, 64, 127
2, 154902, Note_on_c, 0, 61, 57
2, 154951, Note_on_c, 0, 66, 95
2, 155013, Note_on_c, 0, 58, 67
2, 155034, Note_on_c, 0, 61, 0
2, 155087, Note_on_c, 0, 70, 0
2, 155125, Note_on_c, 0, 51, 0
2, 155161, Note_on_c, 0, 70, 105
2, 155168, Note_on_c, 0, 52, 89
2, 155208, Note_on_c, 0, 58, 0
2, 155223, Control_c, 0, 64, 63
2, 155231, Control_c, 0, 64, 0
2, 155270, Control_c, 0, 64, 63
2, 155283, Control_c, 0, 64, 127
2, 155305, Note_on_c, 0, 61, 65
2, 155313, Note_on_c, 0, 66, 0
2, 155373, Note_on_c, 0, 67, 97
2, 155456, Note_on_c, 0, 58, 70
2, 155468, Note_on_c, 0, 70, 0
2, 155495, Note_on_c, 0, 61, 0
2, 155596, Note_on_c, 0, 52, 0
2, 155618, Note_on_c, 0, 70, 98
2, 155625, Note_on_c, 0, 55, 67
2, 155648, Note_on_c, 0, 67, 0
2, 155649, Control_c, 0, 64, 63
2, 155655, Control_c, 0, 64, 0
2, 155689, Control_c, 0, 64, 63
2, 155701, Control_c, 0, 64, 127
2, 155754, Note_on_c, 0, 58, 0
2, 155807, Note_on_c, 0, 61, 40
2, 155884, Note_on_c, 0, 64, 68
2, 156026, Note_on_c, 0, 58, 59
2, 156041, Note_on_c, 0, 64, 0
2, 156042, Note_on_c, 0, 61, 0
2, 156106, Note_on_c, 0, 70, 0
2, 156148, Note_on_c, 0, 58, 0
2, 156162, Note_on_c, 0, 55, 0
2, 156377, Note_on_c, 0, 38, 63
2, 156433, Note_on_c, 0, 87, 100
2, 156463, Control_c, 0, 64, 63
2, 156470, Control_c, 0, 64, 0
2, 156526, Control_c, 0, 64, 63
2, 156531, Control_c, 0, 64, 127
2, 156640, Note_on_c, 0, 38, 0
2, 156788, Note_on_c, 0, 54, 75
2, 156982, Note_on_c, 0, 51, 79
2, 157119, Note_on_c, 0, 48, 87
2, 157169, Note_on_c, 0, 51, 0
2, 157175, Note_on_c, 0, 54, 0
2, 157234, Note_on_c, 0, 57, 78
2, 157279, Note_on_c, 0, 86, 101
2, 157283, Note_on_c, 0, 87, 0
2, 157363, Note_on_c, 0, 54, 85
2, 157442, Note_on_c, 0, 48, 0
2, 157472, Note_on_c, 0, 84, 108
2, 157487, Note_on_c, 0, 51, 72
2, 157504, Note_on_c, 0, 57, 0
2, 157522, Note_on_c, 0, 86, 0
2, 157550, Note_on_c, 0, 54, 0
2, 157592, Note_on_c, 0, 60, 74
2, 157652, Note_on_c, 0, 82, 112
2, 157696, Note_on_c, 0, 84, 0
2, 157714, Note_on_c, 0, 51, 0
2, 157718, Note_on_c, 0, 57, 60
2, 157744, Note_on_c, 0, 60, 0
2, 157823, Note_on_c, 0, 81, 97
2, 157847, Note_on_c, 0, 54, 66
2, 157867, Note_on_c, 0, 82, 0
2, 157895, Note_on_c, 0, 57, 0
2, 157947, Note_on_c, 0, 63, 73
2, 157995, Note_on_c, 0, 79, 101
2, 158022, Note_on_c, 0, 81, 0
2, 158094, Note_on_c, 0, 60, 72
2, 158112, Note_on_c, 0, 63, 0
2, 158113, Note_on_c, 0, 54, 0
2, 158212, Note_on_c, 0, 77, 87
2, 158221, Note_on_c, 0, 57, 51
2, 158270, Note_on_c, 0, 79, 0
2, 158274, Note_on_c, 0, 60, 0
2, 158294, Control_c, 0, 64, 63
2, 158305, Control_c, 0, 64, 0
2, 158319, Control_c, 0, 64, 63
2, 158335, Control_c, 0, 64, 127
2, 158359, Note_on_c, 0, 66, 80
2, 158424, Note_on_c, 0, 78, 105
2, 158439, Note_on_c, 0, 57, 0
2, 158476, Note_on_c, 0, 77, 0
2, 158506, Note_on_c, 0, 78, 0
2, 158533, Note_on_c, 0, 78, 96
2, 158544, Note_on_c, 0, 63, 80
2, 158644, Note_on_c, 0, 66, 0
2, 158687, Note_on_c, 0, 60, 46
2, 158716, Note_on_c, 0, 82, 96
2, 158746, Note_on_c, 0, 78, 0
2, 158749, Note_on_c, 0, 63, 0
2, 158842, Note_on_c, 0, 69, 52
2, 158904, Note_on_c, 0, 81, 97
2, 158948, Note_on_c, 0, 82, 0
2, 158977, Note_on_c, 0, 66, 81
2, 159004, Note_on_c, 0, 60, 0
2, 159072, Note_on_c, 0, 69, 0
2, 159075, Control_c, 0, 64, 63
2, 159081, Note_on_c, 0, 79, 88
2, 159087, Note_on_c, 0, 63, 65
2, 159105, Control_c, 0, 64, 127
2, 159108, Note_on_c, 0, 81, 0
2, 159180, Note_on_c, 0, 66, 0
2, 159214, Note_on_c, 0, 72, 40
2, 159256, Note_on_c, 0, 78, 93
2, 159271, Note_on_c, 0, 79, 0
2, 159344, Note_on_c, 0, 69, 35
2, 159361, Note_on_c, 0, 72, 0
2, 159403, Note_on_c, 0, 75, 82
2, 159427, Note_on_c, 0, 78, 0
2, 159440, Note_on_c, 0, 63, 0
2, 159500, Note_on_c, 0, 66, 67
2, 159521, Note_on_c, 0, 69, 0
2, 159568, Note_on_c, 0, 74, 69
2, 159599, Note_on_c, 0, 75, 0
2, 159671, Note_on_c, 0, 69, 46
2, 159680, Note_on_c, 0, 66, 0
2, 159754, Note_on_c, 0, 72, 68
2, 159758, Note_on_c, 0, 74, 0
2, 159826, Note_on_c, 0, 66, 56
2, 159874, Note_on_c, 0, 69, 0
2, 159936, Note_on_c, 0, 70, 67
2, 159950, Note_on_c, 0, 72, 0
2, 159956, Note_on_c, 0, 63, 54
2, 159970, Control_c, 0, 64, 63
2, 160011, Control_c, 0, 64, 127
2, 160014, Note_on_c, 0, 66, 0
2, 160098, Note_on_c, 0, 66, 42
2, 160141, Note_on_c, 0, 63, 0
2, 160144, Note_on_c, 0, 69, 55
2, 160174, Note_on_c, 0, 70, 0
2, 160222, Note_on_c, 0, 63, 60
2, 160236, Note_on_c, 0, 66, 0
2, 160306, Note_on_c, 0, 69, 0
2, 160363, Note_on_c, 0, 75, 76
2, 160366, Note_on_c, 0, 60, 56
2, 160383, Note_on_c, 0, 63, 0
2, 160416, Control_c, 0, 64, 63
2, 160432, Control_c, 0, 64, 0
2, 160456, Control_c, 0, 64, 63
2, 160477, Control_c, 0, 64, 127
2, 160503, Note_on_c, 0, 66, 47
2, 160549, Note_on_c, 0, 69, 84
2, 160629, Note_on_c, 0, 63, 77
2, 160671, Note_on_c, 0, 66, 0
2, 160713, Note_on_c, 0, 72, 94
2, 160735, Note_on_c, 0, 69, 0
2, 160819, Note_on_c, 0, 66, 69
2, 160831, Note_on_c, 0, 63, 0
2, 160891, Note_on_c, 0, 70, 96
2, 160943, Note_on_c, 0, 72, 0
2, 160952, Note_on_c, 0, 63, 77
2, 160954, Note_on_c, 0, 66, 0
2, 160978, Note_on_c, 0, 75, 0
2, 161039, Note_on_c, 0, 70, 0
2, 161063, Note_on_c, 0, 58, 88
2, 161064, Note_on_c, 0, 75, 108
2, 161089, Note_on_c, 0, 63, 0
2, 161098, Control_c, 0, 64, 63
2, 161103, Note_on_c, 0, 60, 0
2, 161108, Control_c, 0, 64, 0
2, 161166, Control_c, 0, 64, 63
2, 161173, Note_on_c, 0, 66, 93
2, 161177, Control_c, 0, 64, 127
2, 161239, Note_on_c, 0, 70, 99
2, 161321, Note_on_c, 0, 63, 95
2, 161357, Note_on_c, 0, 66, 0
2, 161394, Note_on_c, 0, 70, 0
2, 161428, Note_on_c, 0, 74, 102
2, 161454, Note_on_c, 0, 63, 0
2, 161541, Note_on_c, 0, 66, 69
2, 161609, Note_on_c, 0, 71, 78
2, 161640, Note_on_c, 0, 66, 0
2, 161698, Note_on_c, 0, 63, 77
2, 161766, Note_on_c, 0, 58, 0
2, 161773, Note_on_c, 0, 71, 0
2, 161774, Note_on_c, 0, 75, 0
2, 161822, Note_on_c, 0, 74, 0
2, 161846, Note_on_c, 0, 56, 95
2, 161858, Note_on_c, 0, 75, 82
2, 161894, Note_on_c, 0, 63, 0
2, 161900, Control_c, 0, 64, 63
2, 161910, Control_c, 0, 64, 0
2, 161966, Control_c, 0, 64, 63
2, 161976, Control_c, 0, 64, 127
2, 162009, Note_on_c, 0, 66, 68
2, 162068, Note_on_c, 0, 71, 75
2, 162145, Note_on_c, 0, 63, 80
2, 162179, Note_on_c, 0, 66, 0
2, 162220, Note_on_c, 0, 75, 0
2, 162225, Note_on_c, 0, 56, 0
2, 162274, Note_on_c, 0, 57, 80
2, 162275, Note_on_c, 0, 75, 88
2, 162298, Note_on_c, 0, 71, 0
2, 162315, Control_c, 0, 64, 63
2, 162319, Note_on_c, 0, 63, 0
2, 162326, Control_c, 0, 64, 0
2, 162368, Control_c, 0, 64, 63
2, 162380, Control_c, 0, 64, 127
2, 162423, Note_on_c, 0, 66, 44
2, 162495, Note_on_c, 0, 72, 69
2, 162569, Note_on_c, 0, 63, 76
2, 162592, Note_on_c, 0, 66, 0
2, 162629, Note_on_c, 0, 75, 0
2, 162700, Note_on_c, 0, 57, 0
2, 162738, Note_on_c, 0, 75, 72
2, 162739, Note_on_c, 0, 60, 42
2, 162759, Note_on_c, 0, 72, 0
2, 162772, Control_c, 0, 64, 63
2, 162783, Control_c, 0, 64, 0
2, 162817, Control_c, 0, 64, 63
2, 162831, Control_c, 0, 64, 127
2, 162836, Note_on_c, 0, 63, 0
2, 162889, Note_on_c, 0, 66, 46
2, 162984, Note_on_c, 0, 69, 52
2, 163079, Note_on_c, 0, 63, 57
2, 163123, Note_on_c, 0, 66, 0
2, 163135, Note_on_c, 0, 69, 0
2, 163188, Note_on_c, 0, 75, 0
2, 163199, Note_on_c, 0, 60, 0
2, 163311, Note_on_c, 0, 58, 50
2, 163342, Note_on_c, 0, 74, 68
2, 163396, Note_on_c, 0, 63, 0
2, 163403, Control_c, 0, 64, 63
2, 163413, Control_c, 0, 64, 0
2, 163486, Control_c, 0, 64, 63
2, 163497, Control_c, 0, 64, 127
2, 163632, Note_on_c, 0, 62, 43
2, 163788, Note_on_c, 0, 67, 40
2, 163927, Note_on_c, 0, 66, 43
2, 163938, Note_on_c, 0, 62, 0
2, 163948, Note_on_c, 0, 67, 0
2, 163970, Note_on_c, 0, 74, 0
2, 164042, Note_on_c, 0, 58, 0
2, 164055, Note_on_c, 0, 69, 26
2, 164075, Note_on_c, 0, 66, 0
2, 164169, Note_on_c, 0, 74, 55
2, 164177, Note_on_c, 0, 67, 32
2, 164196, Note_on_c, 0, 69, 0
2, 164281, Control_c, 0, 67, 0
2, 164293, Note_on_c, 0, 70, 51
2, 164310, Note_on_c, 0, 79, 55
2, 164318, Note_on_c, 0, 74, 0
2, 164379, Note_on_c, 0, 67, 0
2, 164419, Note_on_c, 0, 78, 76
2, 164424, Note_on_c, 0, 69, 41
2, 164439, Note_on_c, 0, 79, 0
2, 164443, Note_on_c, 0, 70, 0
2, 164534, Note_on_c, 0, 81, 76
2, 164538, Note_on_c, 0, 72, 50
2, 164553, Note_on_c, 0, 69, 0
2, 164572, Note_on_c, 0, 78, 0
2, 164639, Note_on_c, 0, 79, 85
2, 164646, Note_on_c, 0, 81, 0
2, 164647, Note_on_c, 0, 70, 57
2, 164669, Note_on_c, 0, 72, 0
2, 164751, Note_on_c, 0, 82, 99
2, 164760, Note_on_c, 0, 74, 54
2, 164780, Note_on_c, 0, 79, 0
2, 164869, Note_on_c, 0, 81, 92
2, 164872, Note_on_c, 0, 74, 0
2, 164876, Note_on_c, 0, 72, 82
2, 164901, Note_on_c, 0, 82, 0
2, 164904, Note_on_c, 0, 70, 0
2, 164914, Note_on_c, 0, 81, 0
2, 165059, Note_on_c, 0, 75, 65
2, 165067, Note_on_c, 0, 87, 93
2, 165074, Note_on_c, 0, 84, 65
2, 165138, Control_c, 0, 64, 63
2, 165175, Control_c, 0, 64, 127
2, 165247, Note_on_c, 0, 79, 51
2, 165259, Note_on_c, 0, 70, 52
2, 165281, Note_on_c, 0, 72, 0
2, 165324, Note_on_c, 0, 75, 0
2, 165365, Note_on_c, 0, 82, 67
2, 165369, Note_on_c, 0, 79, 0
2, 165380, Note_on_c, 0, 74, 54
2, 165397, Note_on_c, 0, 87, 0
2, 165413, Note_on_c, 0, 84, 0
2, 165506, Note_on_c, 0, 86, 71
2, 165512, Note_on_c, 0, 78, 63
2, 165512, Note_on_c, 0, 69, 38
2, 165520, Note_on_c, 0, 74, 0
2, 165524, Note_on_c, 0, 82, 0
2, 165537, Note_on_c, 0, 70, 0
2, 165558, Control_c, 0, 64, 63
2, 165601, Control_c, 0, 64, 127
2, 165661, Note_on_c, 0, 72, 43
2, 165679, Note_on_c, 0, 81, 30
2, 165698, Note_on_c, 0, 78, 0
2, 165786, Note_on_c, 0, 79, 44
2, 165787, Note_on_c, 0, 70, 58
2, 165798, Note_on_c, 0, 81, 0
2, 165813, Note_on_c, 0, 72, 0
2, 165818, Note_on_c, 0, 69, 0
2, 165877, Note_on_c, 0, 79, 0
2, 165889, Note_on_c, 0, 82, 70
2, 165901, Note_on_c, 0, 74, 36
2, 165999, Note_on_c, 0, 78, 55
2, 166011, Note_on_c, 0, 69, 41
2, 166014, Note_on_c, 0, 70, 0
2, 166015, Note_on_c, 0, 74, 0
2, 166025, Note_on_c, 0, 82, 0
2, 166116, Note_on_c, 0, 72, 44
2, 166119, Note_on_c, 0, 69, 0
2, 166120, Note_on_c, 0, 81, 43
2, 166122, Note_on_c, 0, 78, 0
2, 166247, Note_on_c, 0, 79, 50
2, 166247, Note_on_c, 0, 70, 44
2, 166258, Note_on_c, 0, 81, 0
2, 166283, Note_on_c, 0, 72, 0
2, 166396, Note_on_c, 0, 82, 67
2, 166403, Note_on_c, 0, 74, 21
2, 166413, Note_on_c, 0, 86, 0
2, 166414, Note_on_c, 0, 79, 0
2, 166492, Note_on_c, 0, 70, 0
2, 166601, Note_on_c, 0, 74, 0
2, 166607, Note_on_c, 0, 82, 0
2, 166618, Note_on_c, 0, 85, 91
2, 166633, Note_on_c, 0, 73, 44
2, 166658, Note_on_c, 0, 73, 0
2, 166720, Note_on_c, 0, 85, 0
2, 166886, Note_on_c, 0, 57, 39
2, 166900, Note_on_c, 0, 84, 80
2, 166913, Note_on_c, 0, 72, 30
2, 167014, Control_c, 0, 64, 63
2, 167026, Control_c, 0, 64, 0
2, 167086, Control_c, 0, 64, 63
2, 167097, Control_c, 0, 64, 127
2, 167109, Note_on_c, 0, 60, 41
2, 167238, Note_on_c, 0, 65, 58
2, 167362, Note_on_c, 0, 64, 65
2, 167370, Note_on_c, 0, 65, 0
2, 167392, Note_on_c, 0, 60, 0
2, 167466, Note_on_c, 0, 67, 75
2, 167496, Note_on_c, 0, 64, 0
2, 167521, Note_on_c, 0, 72, 0
2, 167576, Note_on_c, 0, 72, 80
2, 167576, Note_on_c, 0, 65, 68
2, 167588, Note_on_c, 0, 67, 0
2, 167617, Note_on_c, 0, 57, 0
2, 167693, Note_on_c, 0, 77, 84
2, 167695, Note_on_c, 0, 72, 0
2, 167696, Note_on_c, 0, 69, 58
2, 167698, Note_on_c, 0, 65, 0
2, 167801, Note_on_c, 0, 67, 65
2, 167801, Note_on_c, 0, 76, 92
2, 167812, Note_on_c, 0, 69, 0
2, 167824, Note_on_c, 0, 77, 0
2, 167902, Note_on_c, 0, 70, 79
2, 167903, Note_on_c, 0, 79, 90
2, 167921, Note_on_c, 0, 76, 0
2, 167930, Note_on_c, 0, 84, 0
2, 167983, Note_on_c, 0, 67, 0
2, 168009, Note_on_c, 0, 77, 90
2, 168012, Note_on_c, 0, 69, 80
2, 168023, Note_on_c, 0, 70, 0
2, 168026, Note_on_c, 0, 79, 0
2, 168120, Note_on_c, 0, 81, 92
2, 168123, Note_on_c, 0, 72, 77
2, 168166, Note_on_c, 0, 77, 0
2, 168173, Note_on_c, 0, 69, 0
2, 168242, Note_on_c, 0, 79, 87
2, 168244, Note_on_c, 0, 70, 78
2, 168269, Note_on_c, 0, 72, 0
2, 168270, Note_on_c, 0, 81, 0
2, 168415, Note_on_c, 0, 82, 81
2, 168417, Note_on_c, 0, 85, 88
2, 168418, Note_on_c, 0, 73, 63
2, 168422, Note_on_c, 0, 79, 0
2, 168448, Note_on_c, 0, 70, 0
2, 168456, Control_c, 0, 64, 63
2, 168474, Control_c, 0, 64, 0
2, 168493, Control_c, 0, 64, 63
2, 168516, Control_c, 0, 64, 127
2, 168573, Note_on_c, 0, 77, 63
2, 168595, Note_on_c, 0, 69, 45
2, 168633, Note_on_c, 0, 73, 0
2, 168694, Note_on_c, 0, 72, 56
2, 168700, Note_on_c, 0, 81, 58
2, 168710, Note_on_c, 0, 77, 0
2, 168718, Note_on_c, 0, 85, 0
2, 168804, Note_on_c, 0, 82, 0
2, 168819, Note_on_c, 0, 84, 76
2, 168821, Note_on_c, 0, 67, 41
2, 168825, Note_on_c, 0, 76, 48
2, 168834, Control_c, 0, 64, 63
2, 168841, Note_on_c, 0, 69, 0
2, 168849, Note_on_c, 0, 72, 0
2, 168850, Note_on_c, 0, 81, 0
2, 168884, Control_c, 0, 64, 127
2, 168937, Note_on_c, 0, 70, 54
2, 168944, Note_on_c, 0, 79, 51
2, 168983, Note_on_c, 0, 76, 0
2, 169007, Note_on_c, 0, 67, 0
2, 169057, Note_on_c, 0, 69, 52
2, 169060, Note_on_c, 0, 77, 59
2, 169074, Note_on_c, 0, 70, 0
2, 169077, Note_on_c, 0, 79, 0
2, 169168, Note_on_c, 0, 81, 58
2, 169172, Note_on_c, 0, 72, 42
2, 169181, Note_on_c, 0, 77, 0
2, 169278, Note_on_c, 0, 69, 0
2, 169294, Note_on_c, 0, 76, 22
2, 169295, Note_on_c, 0, 81, 0
2, 169306, Note_on_c, 0, 72, 0
2, 169308, Note_on_c, 0, 67, 11
2, 169423, Note_on_c, 0, 70, 45
2, 169428, Note_on_c, 0, 79, 41
2, 169456, Note_on_c, 0, 76, 0
2, 169551, Note_on_c, 0, 67, 0
2, 169554, Note_on_c, 0, 65, 40
2, 169559, Note_on_c, 0, 84, 0
2, 169563, Note_on_c, 0, 74, 56
2, 169566, Note_on_c, 0, 79, 0
2, 169621, Note_on_c, 0, 70, 0
2, 169692, Note_on_c, 0, 74, 0
2, 169699, Note_on_c, 0, 69, 25
2, 169714, Note_on_c, 0, 77, 40
2, 169725, Note_on_c, 0, 76, 14
2, 169733, Note_on_c, 0, 65, 0
2, 169753, Note_on_c, 0, 76, 0
2, 169881, Note_on_c, 0, 73, 71
2, 169883, Note_on_c, 0, 81, 60
2, 169885, Note_on_c, 0, 77, 0
2, 169888, Note_on_c, 0, 64, 35
2, 169897, Control_c, 0, 64, 63
2, 169900, Note_on_c, 0, 69, 0
2, 169908, Control_c, 0, 64, 0
2, 169939, Control_c, 0, 64, 63
2, 169954, Control_c, 0, 64, 127
2, 170087, Note_on_c, 0, 81, 0
2, 170225, Note_on_c, 0, 73, 0
2, 170265, Note_on_c, 0, 65, 34
2, 170266, Note_on_c, 0, 64, 0
2, 170268, Note_on_c, 0, 74, 64
2, 170421, Note_on_c, 0, 77, 81
2, 170422, Note_on_c, 0, 69, 57
2, 170424, Note_on_c, 0, 61, 65
2, 170432, Note_on_c, 0, 65, 0
2, 170441, Note_on_c, 0, 74, 0
2, 170461, Control_c, 0, 64, 63
2, 170470, Control_c, 0, 64, 0
2, 170503, Control_c, 0, 64, 63
2, 170516, Control_c, 0, 64, 127
2, 170611, Note_on_c, 0, 77, 0
2, 170640, Note_on_c, 0, 69, 0
2, 170705, Note_on_c, 0, 61, 0
2, 170720, Note_on_c, 0, 70, 88
2, 170732, Note_on_c, 0, 62, 64
2, 170857, Note_on_c, 0, 70, 0
2, 170873, Note_on_c, 0, 62, 0
2, 170876, Note_on_c, 0, 74, 79
2, 170885, Note_on_c, 0, 66, 52
2, 170887, Note_on_c, 0, 57, 54
2, 170908, Control_c, 0, 64, 63
2, 170919, Control_c, 0, 64, 0
2, 170946, Control_c, 0, 64, 63
2, 170961, Control_c, 0, 64, 127
2, 171053, Note_on_c, 0, 74, 0
2, 171112, Note_on_c, 0, 66, 0
2, 171127, Note_on_c, 0, 57, 0
2, 171182, Note_on_c, 0, 58, 63
2, 171186, Note_on_c, 0, 67, 60
2, 171361, Note_on_c, 0, 70, 71
2, 171368, Note_on_c, 0, 58, 0
2, 171371, Note_on_c, 0, 67, 0
2, 171372, Note_on_c, 0, 63, 44
2, 171372, Note_on_c, 0, 54, 55
2, 171405, Control_c, 0, 64, 63
2, 171415, Control_c, 0, 64, 0
2, 171459, Control_c, 0, 64, 63
2, 171473, Control_c, 0, 64, 127
2, 171720, Note_on_c, 0, 63, 0
2, 171722, Note_on_c, 0, 54, 0
2, 171732, Note_on_c, 0, 64, 56
2, 171734, Note_on_c, 0, 55, 33
2, 171758, Note_on_c, 0, 70, 0
2, 171883, Note_on_c, 0, 64, 0
2, 171964, Note_on_c, 0, 58, 52
2, 171970, Note_on_c, 0, 67, 58
2, 171973, Note_on_c, 0, 49, 49
2, 171992, Note_on_c, 0, 55, 0
2, 171992, Control_c, 0, 64, 63
2, 172001, Control_c, 0, 64, 0
2, 172062, Control_c, 0, 64, 63
2, 172074, Control_c, 0, 64, 127
2, 172345, Note_on_c, 0, 58, 0
2, 172528, Note_on_c, 0, 49, 0
2, 172559, Note_on_c, 0, 67, 0
2, 172572, Note_on_c, 0, 65, 76
2, 172579, Note_on_c, 0, 57, 45
2, 172586, Note_on_c, 0, 50, 55
2, 172674, Control_c, 0, 64, 63
2, 172687, Control_c, 0, 64, 0
2, 172737, Control_c, 0, 64, 63
2, 172749, Control_c, 0, 64, 127
2, 172899, Note_on_c, 0, 65, 0
2, 172977, Note_on_c, 0, 57, 0
2, 173071, Note_on_c, 0, 67, 98
2, 173078, Note_on_c, 0, 61, 88
2, 173082, Note_on_c, 0, 52, 81
2, 173084, Note_on_c, 0, 46, 79
2, 173128, Note_on_c, 0, 50, 0
2, 173243, Control_c, 0, 64, 63
2, 173258, Control_c, 0, 64, 0
2, 173318, Control_c, 0, 64, 63
2, 173324, Control_c, 0, 64, 127
2, 173536, Note_on_c, 0, 61, 0
2, 173564, Note_on_c, 0, 67, 0
2, 173630, Note_on_c, 0, 46, 0
2, 173682, Note_on_c, 0, 69, 101
2, 173687, Note_on_c, 0, 60, 98
2, 173693, Note_on_c, 0, 53, 84
2, 173696, Note_on_c, 0, 52, 0
2, 173697, Note_on_c, 0, 45, 76
2, 173829, Control_c, 0, 64, 63
2, 173846, Control_c, 0, 64, 0
2, 173958, Control_c, 0, 64, 63
2, 173965, Control_c, 0, 64, 127
2, 174116, Note_on_c, 0, 60, 0
2, 174177, Note_on_c, 0, 69, 0
2, 174206, Note_on_c, 0, 53, 0
2, 174467, Note_on_c, 0, 70, 106
2, 174471, Note_on_c, 0, 58, 89
2, 174475, Note_on_c, 0, 55, 67
2, 174477, Note_on_c, 0, 43, 73
2, 174482, Note_on_c, 0, 45, 0
2, 174628, Control_c, 0, 64, 63
2, 174641, Control_c, 0, 64, 0
2, 174705, Control_c, 0, 64, 63
2, 174714, Control_c, 0, 64, 127
2, 174841, Note_on_c, 0, 43, 0
2, 174848, Note_on_c, 0, 55, 0
2, 175587, Note_on_c, 0, 58, 0
2, 175660, Note_on_c, 0, 70, 0
2, 175782, Control_c, 0, 67, 127
2, 176376, Note_on_c, 0, 64, 47
2, 176378, Note_on_c, 0, 58, 7
2, 176381, Note_on_c, 0, 48, 26
2, 176389, Note_on_c, 0, 55, 14
2, 176475, Control_c, 0, 64, 63
2, 176487, Control_c, 0, 64, 0
2, 176547, Control_c, 0, 64, 63
2, 176554, Control_c, 0, 64, 127
2, 176778, Note_on_c, 0, 48, 0
2, 176797, Note_on_c, 0, 55, 0
2, 177575, Note_on_c, 0, 49, 49
2, 177606, Note_on_c, 0, 65, 43
2, 177620, Control_c, 0, 64, 63
2, 177651, Control_c, 0, 64, 127
2, 177696, Note_on_c, 0, 58, 0
2, 177710, Note_on_c, 0, 64, 0
2, 177858, Note_on_c, 0, 37, 35
2, 177885, Note_on_c, 0, 53, 52
2, 177925, Control_c, 0, 64, 63
2, 177932, Control_c, 0, 64, 0
2, 177955, Control_c, 0, 64, 63
2, 177968, Control_c, 0, 64, 127
2, 178172, Note_on_c, 0, 56, 52
2, 178325, Note_on_c, 0, 65, 0
2, 178340, Note_on_c, 0, 61, 64
2, 178487, Note_on_c, 0, 65, 38
2, 178528, Note_on_c, 0, 61, 0
2, 178546, Note_on_c, 0, 56, 0
2, 178623, Note_on_c, 0, 53, 0
2, 178637, Note_on_c, 0, 61, 60
2, 178764, Note_on_c, 0, 56, 59
2, 178849, Note_on_c, 0, 65, 0
2, 178852, Note_on_c, 0, 49, 0
2, 178857, Note_on_c, 0, 37, 0
2, 178897, Note_on_c, 0, 49, 69
2, 178900, Note_on_c, 0, 61, 0
2, 178905, Note_on_c, 0, 37, 49
2, 178920, Note_on_c, 0, 53, 18
2, 178944, Note_on_c, 0, 56, 0
2, 179052, Note_on_c, 0, 56, 66
2, 179178, Note_on_c, 0, 61, 61
2, 179256, Note_on_c, 0, 49, 0
2, 179256, Note_on_c, 0, 37, 0
2, 179261, Note_on_c, 0, 53, 0
2, 179305, Note_on_c, 0, 65, 64
2, 179312, Note_on_c, 0, 56, 0
2, 179314, Note_on_c, 0, 49, 67
2, 179319, Note_on_c, 0, 37, 57
2, 179356, Note_on_c, 0, 61, 0
2, 179456, Note_on_c, 0, 61, 77
2, 179553, Note_on_c, 0, 49, 0
2, 179569, Note_on_c, 0, 56, 78
2, 179575, Note_on_c, 0, 65, 0
2, 179668, Note_on_c, 0, 61, 0
2, 179721, Note_on_c, 0, 46, 76
2, 179722, Note_on_c, 0, 53, 59
2, 179724, Note_on_c, 0, 34, 82
2, 179731, Note_on_c, 0, 56, 0
2, 179752, Note_on_c, 0, 37, 0
2, 179816, Control_c, 0, 64, 63
2, 179823, Control_c, 0, 64, 0
2, 179873, Note_on_c, 0, 58, 79
2, 179896, Control_c, 0, 64, 63
2, 179904, Control_c, 0, 64, 127
2, 179992, Note_on_c, 0, 61, 77
2, 180123, Note_on_c, 0, 65, 68
2, 180168, Note_on_c, 0, 61, 0
2, 180178, Note_on_c, 0, 58, 0
2, 180276, Note_on_c, 0, 61, 70
2, 180358, Note_on_c, 0, 53, 0
2, 180384, Note_on_c, 0, 58, 74
2, 180481, Note_on_c, 0, 46, 0
2, 180487, Note_on_c, 0, 34, 0
2, 180495, Note_on_c, 0, 65, 0
2, 180507, Note_on_c, 0, 61, 0
2, 180516, Note_on_c, 0, 46, 87
2, 180522, Note_on_c, 0, 34, 72
2, 180531, Note_on_c, 0, 53, 61
2, 180568, Note_on_c, 0, 58, 0
2, 180625, Control_c, 0, 64, 63
2, 180638, Control_c, 0, 64, 0
2, 180665, Note_on_c, 0, 58, 84
2, 180675, Control_c, 0, 64, 63
2, 180685, Control_c, 0, 64, 127
2, 180788, Note_on_c, 0, 61, 80
2, 180915, Note_on_c, 0, 65, 84
2, 180941, Note_on_c, 0, 61, 0
2, 180953, Note_on_c, 0, 58, 0
2, 181072, Note_on_c, 0, 61, 76
2, 181091, Note_on_c, 0, 65, 0
2, 181100, Note_on_c, 0, 53, 0
2, 181103, Note_on_c, 0, 46, 0
2, 181196, Note_on_c, 0, 58, 80
2, 181234, Note_on_c, 0, 61, 0
2, 181369, Note_on_c, 0, 58, 0
2, 181375, Note_on_c, 0, 42, 80
2, 181376, Note_on_c, 0, 30, 76
2, 181379, Note_on_c, 0, 51, 84
2, 181414, Note_on_c, 0, 34, 0
2, 181443, Control_c, 0, 64, 63
2, 181454, Control_c, 0, 64, 0
2, 181538, Control_c, 0, 64, 63
2, 181545, Control_c, 0, 64, 127
2, 181570, Note_on_c, 0, 58, 74
2, 181692, Note_on_c, 0, 51, 0
2, 181704, Note_on_c, 0, 61, 71
2, 181780, Note_on_c, 0, 58, 0
2, 181830, Note_on_c, 0, 66, 87
2, 181874, Note_on_c, 0, 61, 0
2, 181941, Note_on_c, 0, 42, 0
2, 181952, Note_on_c, 0, 61, 84
2, 182006, Note_on_c, 0, 30, 0
2, 182050, Note_on_c, 0, 58, 84
2, 182087, Note_on_c, 0, 66, 0
2, 182167, Note_on_c, 0, 61, 0
2, 182192, Note_on_c, 0, 41, 76
2, 182195, Note_on_c, 0, 53, 98
2, 182202, Note_on_c, 0, 29, 53
2, 182234, Note_on_c, 0, 58, 0
2, 182238, Control_c, 0, 64, 63
2, 182244, Control_c, 0, 64, 0
2, 182289, Control_c, 0, 64, 63
2, 182296, Control_c, 0, 64, 127
2, 182354, Note_on_c, 0, 58, 75
2, 182440, Note_on_c, 0, 41, 0
2, 182479, Note_on_c, 0, 53, 0
2, 182482, Note_on_c, 0, 61, 89
2, 182492, Note_on_c, 0, 29, 0
2, 182657, Note_on_c, 0, 54, 108
2, 182659, Note_on_c, 0, 39, 55
2, 182661, Note_on_c, 0, 27, 57
2, 182662, Note_on_c, 0, 61, 0
2, 182667, Note_on_c, 0, 66, 80
2, 182684, Note_on_c, 0, 58, 0
2, 182742, Control_c, 0, 64, 63
2, 182753, Control_c, 0, 64, 0
2, 182804, Control_c, 0, 64, 63
2, 182811, Control_c, 0, 64, 127
2, 182851, Note_on_c, 0, 61, 82
2, 182889, Note_on_c, 0, 66, 0
2, 183006, Note_on_c, 0, 54, 0
2, 183054, Note_on_c, 0, 58, 96
2, 183093, Note_on_c, 0, 27, 0
2, 183097, Note_on_c, 0, 61, 0
2, 183327, Note_on_c, 0, 44, 82
2, 183332, Note_on_c, 0, 32, 70
2, 183356, Note_on_c, 0, 39, 0
2, 183426, Control_c, 0, 64, 63
2, 183444, Control_c, 0, 64, 0
2, 183528, Control_c, 0, 64, 63
2, 183540, Control_c, 0, 64, 127
2, 183571, Note_on_c, 0, 60, 71
2, 183738, Note_on_c, 0, 63, 70
2, 183867, Note_on_c, 0, 66, 67
2, 183896, Note_on_c, 0, 60, 0
2, 183899, Note_on_c, 0, 63, 0
2, 184005, Note_on_c, 0, 63, 64
2, 184146, Note_on_c, 0, 60, 54
2, 184222, Note_on_c, 0, 58, 0
2, 184293, Note_on_c, 0, 56, 67
2, 184321, Note_on_c, 0, 60, 0
2, 184356, Note_on_c, 0, 63, 0
2, 184464, Note_on_c, 0, 66, 0
2, 184467, Note_on_c, 0, 60, 50
2, 184622, Note_on_c, 0, 63, 63
2, 184780, Note_on_c, 0, 66, 69
2, 184808, Note_on_c, 0, 63, 0
2, 184960, Note_on_c, 0, 60, 0
2, 184968, Note_on_c, 0, 63, 57
2, 185207, Note_on_c, 0, 60, 37
2, 185231, Note_on_c, 0, 66, 0
2, 185290, Note_on_c, 0, 63, 0
2, 185292, Note_on_c, 0, 44, 0
2, 185384, Note_on_c, 0, 56, 0
2, 185391, Note_on_c, 0, 32, 0
2, 185546, Note_on_c, 0, 60, 0
2, 185556, Note_on_c, 0, 37, 29
2, 185596, Note_on_c, 0, 68, 80
2, 185607, Control_c, 0, 67, 0
2, 185609, Control_c, 0, 64, 63
2, 185618, Control_c, 0, 64, 0
2, 185678, Control_c, 0, 64, 63
2, 185684, Control_c, 0, 64, 127
2, 185773, Note_on_c, 0, 37, 0
2, 186034, Note_on_c, 0, 63, 42
2, 186041, Note_on_c, 0, 60, 29
2, 186048, Note_on_c, 0, 56, 23
2, 186054, Note_on_c, 0, 54, 27
2, 186093, Note_on_c, 0, 56, 0
2, 186114, Note_on_c, 0, 54, 0
2, 186117, Note_on_c, 0, 63, 0
2, 186118, Note_on_c, 0, 60, 0
2, 186251, Note_on_c, 0, 54, 28
2, 186255, Note_on_c, 0, 56, 38
2, 186256, Note_on_c, 0, 63, 52
2, 186266, Note_on_c, 0, 60, 31
2, 186309, Note_on_c, 0, 56, 0
2, 186312, Note_on_c, 0, 54, 0
2, 186323, Note_on_c, 0, 68, 0
2, 186381, Note_on_c, 0, 60, 0
2, 186450, Note_on_c, 0, 70, 67
2, 186489, Note_on_c, 0, 63, 0
2, 186634, Note_on_c, 0, 63, 64
2, 186647, Note_on_c, 0, 56, 44
2, 186648, Note_on_c, 0, 60, 55
2, 186648, Note_on_c, 0, 54, 28
2, 186705, Note_on_c, 0, 56, 0
2, 186718, Note_on_c, 0, 54, 0
2, 186724, Note_on_c, 0, 60, 0
2, 186738, Note_on_c, 0, 63, 0
2, 186797, Note_on_c, 0, 54, 44
2, 186803, Note_on_c, 0, 63, 69
2, 186804, Note_on_c, 0, 56, 52
2, 186810, Note_on_c, 0, 60, 36
2, 186851, Note_on_c, 0, 60, 0
2, 186853, Note_on_c, 0, 70, 0
2, 186881, Note_on_c, 0, 56, 0
2, 186883, Note_on_c, 0, 68, 91
2, 186898, Note_on_c, 0, 63, 0
2, 186898, Note_on_c, 0, 54, 0
2, 186945, Note_on_c, 0, 68, 0
2, 186979, Note_on_c, 0, 68, 72
2, 186981, Note_on_c, 0, 52, 49
2, 187031, Control_c, 0, 64, 63
2, 187040, Control_c, 0, 64, 0
2, 187081, Control_c, 0, 64, 63
2, 187093, Control_c, 0, 64, 127
2, 187139, Note_on_c, 0, 61, 48
2, 187145, Note_on_c, 0, 53, 45
2, 187146, Note_on_c, 0, 65, 54
2, 187152, Note_on_c, 0, 56, 41
2, 187168, Note_on_c, 0, 52, 0
2, 187199, Note_on_c, 0, 61, 0
2, 187201, Note_on_c, 0, 56, 0
2, 187226, Note_on_c, 0, 65, 0
2, 187240, Note_on_c, 0, 53, 0
2, 187282, Note_on_c, 0, 61, 61
2, 187284, Note_on_c, 0, 56, 60
2, 187285, Note_on_c, 0, 53, 57
2, 187288, Note_on_c, 0, 65, 69
2, 187294, Note_on_c, 0, 68, 0
2, 187350, Note_on_c, 0, 56, 0
2, 187351, Note_on_c, 0, 61, 0
2, 187363, Note_on_c, 0, 53, 0
2, 187423, Note_on_c, 0, 73, 94
2, 187433, Note_on_c, 0, 56, 60
2, 187443, Note_on_c, 0, 53, 46
2, 187448, Note_on_c, 0, 65, 0
2, 187483, Note_on_c, 0, 56, 0
2, 187504, Note_on_c, 0, 53, 0
2, 187564, Note_on_c, 0, 61, 58
2, 187565, Note_on_c, 0, 65, 67
2, 187571, Note_on_c, 0, 56, 46
2, 187577, Note_on_c, 0, 53, 41
2, 187605, Note_on_c, 0, 56, 0
2, 187607, Note_on_c, 0, 61, 0
2, 187629, Note_on_c, 0, 53, 0
2, 187642, Note_on_c, 0, 65, 0
2, 187697, Note_on_c, 0, 56, 73
2, 187701, Note_on_c, 0, 53, 58
2, 187705, Note_on_c, 0, 65, 83
2, 187707, Note_on_c, 0, 73, 0
2, 187708, Note_on_c, 0, 61, 73
2, 187745, Note_on_c, 0, 56, 0
2, 187746, Note_on_c, 0, 53, 0
2, 187759, Note_on_c, 0, 61, 0
2, 187773, Note_on_c, 0, 68, 98
2, 187792, Note_on_c, 0, 65, 0
2, 187847, Note_on_c, 0, 68, 0
2, 187883, Note_on_c, 0, 50, 62
2, 187890, Note_on_c, 0, 68, 96
2, 187961, Control_c, 0, 64, 63
2, 187969, Control_c, 0, 64, 0
2, 188020, Control_c, 0, 64, 63
2, 188030, Control_c, 0, 64, 127
2, 188047, Note_on_c, 0, 66, 86
2, 188056, Note_on_c, 0, 51, 72
2, 188057, Note_on_c, 0, 60, 73
2, 188058, Note_on_c, 0, 56, 59
2, 188106, Note_on_c, 0, 60, 0
2, 188109, Note_on_c, 0, 56, 0
2, 188114, Note_on_c, 0, 51, 0
2, 188126, Note_on_c, 0, 66, 0
2, 188152, Note_on_c, 0, 50, 0
2, 188193, Note_on_c, 0, 51, 65
2, 188194, Note_on_c, 0, 66, 80
2, 188198, Note_on_c, 0, 56, 50
2, 188200, Note_on_c, 0, 60, 60
2, 188233, Note_on_c, 0, 60, 0
2, 188249, Note_on_c, 0, 66, 0
2, 188273, Note_on_c, 0, 51, 0
2, 188277, Note_on_c, 0, 60, 60
2, 188279, Note_on_c, 0, 56, 0
2, 188281, Note_on_c, 0, 66, 92
2, 188284, Note_on_c, 0, 68, 0
2, 188341, Note_on_c, 0, 60, 0
2, 188393, Note_on_c, 0, 51, 63
2, 188401, Note_on_c, 0, 56, 50
2, 188401, Note_on_c, 0, 72, 92
2, 188482, Note_on_c, 0, 66, 0
2, 188563, Note_on_c, 0, 51, 0
2, 188564, Note_on_c, 0, 56, 0
2, 188578, Note_on_c, 0, 72, 0
2, 188643, Note_on_c, 0, 70, 92
2, 188644, Note_on_c, 0, 66, 77
2, 188646, Note_on_c, 0, 56, 50
2, 188646, Note_on_c, 0, 51, 63
2, 188652, Note_on_c, 0, 60, 48
2, 188703, Note_on_c, 0, 60, 0
2, 188727, Note_on_c, 0, 51, 0
2, 188738, Note_on_c, 0, 56, 0
2, 188740, Note_on_c, 0, 66, 0
2, 188832, Note_on_c, 0, 66, 93
2, 188834, Note_on_c, 0, 51, 66
2, 188835, Note_on_c, 0, 56, 53
2, 188844, Note_on_c, 0, 60, 70
2, 188879, Note_on_c, 0, 56, 0
2, 188880, Note_on_c, 0, 60, 0
2, 188884, Note_on_c, 0, 70, 0
2, 188890, Note_on_c, 0, 51, 0
2, 188899, Note_on_c, 0, 68, 100
2, 188918, Note_on_c, 0, 66, 0
2, 188948, Note_on_c, 0, 68, 0
2, 188978, Note_on_c, 0, 48, 69
2, 188980, Note_on_c, 0, 68, 100
2, 189061, Control_c, 0, 64, 63
2, 189067, Control_c, 0, 64, 0
2, 189117, Control_c, 0, 64, 63
2, 189123, Note_on_c, 0, 49, 73
2, 189125, Control_c, 0, 64, 127
2, 189126, Note_on_c, 0, 56, 63
2, 189126, Note_on_c, 0, 65, 74
2, 189130, Note_on_c, 0, 61, 61
2, 189184, Note_on_c, 0, 61, 0
2, 189203, Note_on_c, 0, 56, 0
2, 189211, Note_on_c, 0, 49, 0
2, 189222, Note_on_c, 0, 65, 0
2, 189223, Note_on_c, 0, 48, 0
2, 189267, Note_on_c, 0, 65, 82
2, 189268, Note_on_c, 0, 61, 84
2, 189275, Note_on_c, 0, 49, 70
2, 189279, Note_on_c, 0, 56, 67
2, 189305, Note_on_c, 0, 61, 0
2, 189316, Note_on_c, 0, 68, 0
2, 189325, Note_on_c, 0, 65, 0
2, 189360, Note_on_c, 0, 56, 0
2, 189366, Note_on_c, 0, 49, 0
2, 189447, Note_on_c, 0, 77, 94
2, 189448, Note_on_c, 0, 49, 77
2, 189452, Note_on_c, 0, 56, 61
2, 189490, Note_on_c, 0, 77, 0
2, 189496, Note_on_c, 0, 56, 0
2, 189500, Note_on_c, 0, 49, 0
2, 189642, Note_on_c, 0, 56, 52
2, 189643, Note_on_c, 0, 65, 67
2, 189646, Note_on_c, 0, 49, 55
2, 189656, Note_on_c, 0, 61, 48
2, 189684, Note_on_c, 0, 61, 0
2, 189686, Note_on_c, 0, 56, 0
2, 189688, Note_on_c, 0, 49, 0
2, 189699, Note_on_c, 0, 65, 0
2, 189869, Note_on_c, 0, 49, 37
2, 189875, Note_on_c, 0, 56, 37
2, 189885, Note_on_c, 0, 65, 64
2, 189893, Note_on_c, 0, 61, 50
2, 189918, Note_on_c, 0, 61, 0
2, 189918, Note_on_c, 0, 56, 0
2, 189932, Note_on_c, 0, 49, 0
2, 189993, Note_on_c, 0, 68, 83
2, 190012, Note_on_c, 0, 65, 0
2, 190094, Note_on_c, 0, 68, 0
2, 190299, Note_on_c, 0, 72, 62
2, 190303, Note_on_c, 0, 65, 41
2, 190303, Note_on_c, 0, 69, 52
2, 190309, Note_on_c, 0, 60, 25
2, 190309, Note_on_c, 0, 48, 36
2, 190312, Note_on_c, 0, 41, 48
2, 190395, Control_c, 0, 64, 63
2, 190406, Control_c, 0, 64, 0
2, 190439, Control_c, 0, 67, 127
2, 190581, Control_c, 0, 64, 63
2, 190583, Control_c, 0, 64, 127
2, 190592, Note_on_c, 0, 53, 41
2, 190673, Note_on_c, 0, 41, 0
2, 190690, Note_on_c, 0, 48, 0
2, 190742, Note_on_c, 0, 60, 0
2, 190768, Note_on_c, 0, 53, 0
2, 190771, Note_on_c, 0, 57, 57
2, 190916, Note_on_c, 0, 60, 57
2, 190935, Note_on_c, 0, 57, 0
2, 191038, Note_on_c, 0, 57, 59
2, 191048, Note_on_c, 0, 60, 0
2, 191164, Note_on_c, 0, 53, 71
2, 191172, Note_on_c, 0, 57, 0
2, 191203, Note_on_c, 0, 53, 0
2, 191288, Note_on_c, 0, 48, 63
2, 191293, Note_on_c, 0, 41, 48
2, 191393, Note_on_c, 0, 41, 0
2, 191415, Note_on_c, 0, 53, 63
2, 191421, Note_on_c, 0, 48, 0
2, 191490, Note_on_c, 0, 53, 0
2, 191527, Note_on_c, 0, 57, 57
2, 191647, Note_on_c, 0, 60, 59
2, 191649, Note_on_c, 0, 57, 0
2, 191741, Note_on_c, 0, 60, 0
2, 191759, Note_on_c, 0, 57, 49
2, 191806, Note_on_c, 0, 57, 0
2, 191866, Note_on_c, 0, 53, 49
2, 191979, Note_on_c, 0, 53, 0
2, 191983, Note_on_c, 0, 48, 46
2, 191993, Note_on_c, 0, 41, 45
2, 192082, Note_on_c, 0, 41, 0
2, 192120, Note_on_c, 0, 48, 0
2, 192129, Note_on_c, 0, 53, 29
2, 192224, Note_on_c, 0, 53, 0
2, 192239, Note_on_c, 0, 57, 51
2, 192348, Note_on_c, 0, 60, 52
2, 192351, Note_on_c, 0, 57, 0
2, 192454, Note_on_c, 0, 60, 0
2, 192464, Note_on_c, 0, 57, 43
2, 192531, Note_on_c, 0, 57, 0
2, 192583, Note_on_c, 0, 53, 41
2, 192687, Note_on_c, 0, 53, 0
2, 192701, Note_on_c, 0, 48, 49
2, 192711, Note_on_c, 0, 41, 47
2, 192789, Note_on_c, 0, 41, 0
2, 192833, Note_on_c, 0, 48, 0
2, 192845, Note_on_c, 0, 53, 30
2, 192968, Note_on_c, 0, 53, 0
2, 192978, Note_on_c, 0, 57, 44
2, 193110, Note_on_c, 0, 60, 40
2, 193116, Note_on_c, 0, 57, 0
2, 193225, Note_on_c, 0, 60, 0
2, 193248, Note_on_c, 0, 57, 35
2, 193290, Note_on_c, 0, 57, 0
2, 193290, Note_on_c, 0, 65, 0
2, 193306, Note_on_c, 0, 69, 0
2, 193312, Note_on_c, 0, 72, 0
2, 193407, Note_on_c, 0, 53, 27
2, 193593, Note_on_c, 0, 53, 0
2, 193596, Note_on_c, 0, 41, 39
2, 193632, Note_on_c, 0, 77, 87
2, 193641, Control_c, 0, 64, 63
2, 193646, Control_c, 0, 64, 0
2, 193700, Control_c, 0, 64, 63
2, 193704, Control_c, 0, 64, 127
2, 193734, Control_c, 0, 67, 0
2, 193778, Note_on_c, 0, 41, 0
2, 193933, Note_on_c, 0, 72, 52
2, 193941, Note_on_c, 0, 63, 36
2, 193941, Note_on_c, 0, 69, 29
2, 193948, Note_on_c, 0, 65, 28
2, 193987, Note_on_c, 0, 63, 0
2, 193994, Note_on_c, 0, 65, 0
2, 194007, Note_on_c, 0, 72, 0
2, 194015, Note_on_c, 0, 69, 0
2, 194103, Note_on_c, 0, 72, 72
2, 194111, Note_on_c, 0, 63, 43
2, 194111, Note_on_c, 0, 69, 49
2, 194113, Note_on_c, 0, 65, 38
2, 194146, Note_on_c, 0, 63, 0
2, 194150, Note_on_c, 0, 77, 0
2, 194161, Note_on_c, 0, 65, 0
2, 194243, Note_on_c, 0, 79, 97
2, 194253, Note_on_c, 0, 63, 44
2, 194263, Note_on_c, 0, 65, 28
2, 194311, Note_on_c, 0, 65, 0
2, 194311, Note_on_c, 0, 63, 0
2, 194321, Note_on_c, 0, 69, 0
2, 194328, Note_on_c, 0, 72, 0
2, 194384, Note_on_c, 0, 72, 84
2, 194390, Note_on_c, 0, 69, 73
2, 194395, Note_on_c, 0, 63, 49
2, 194401, Note_on_c, 0, 65, 37
2, 194439, Note_on_c, 0, 63, 0
2, 194440, Note_on_c, 0, 65, 0
2, 194449, Note_on_c, 0, 69, 0
2, 194461, Note_on_c, 0, 72, 0
2, 194514, Note_on_c, 0, 72, 92
2, 194520, Note_on_c, 0, 69, 84
2, 194524, Note_on_c, 0, 63, 61
2, 194532, Note_on_c, 0, 65, 43
2, 194565, Note_on_c, 0, 69, 0
2, 194581, Note_on_c, 0, 65, 0
2, 194595, Note_on_c, 0, 72, 0
2, 194609, Note_on_c, 0, 77, 101
2, 194647, Note_on_c, 0, 79, 0
2, 194705, Note_on_c, 0, 77, 0
2, 194733, Note_on_c, 0, 63, 0
2, 194737, Note_on_c, 0, 77, 100
2, 194746, Note_on_c, 0, 61, 83
2, 194833, Control_c, 0, 64, 63
2, 194842, Control_c, 0, 64, 0
2, 194892, Control_c, 0, 64, 63
2, 194900, Control_c, 0, 64, 127
2, 194900, Note_on_c, 0, 74, 79
2, 194908, Note_on_c, 0, 70, 71
2, 194916, Note_on_c, 0, 65, 54
2, 194922, Note_on_c, 0, 62, 48
2, 194985, Note_on_c, 0, 62, 0
2, 194990, Note_on_c, 0, 70, 0
2, 194996, Note_on_c, 0, 65, 0
2, 195001, Note_on_c, 0, 74, 0
2, 195035, Note_on_c, 0, 61, 0
2, 195048, Note_on_c, 0, 70, 88
2, 195049, Note_on_c, 0, 65, 81
2, 195050, Note_on_c, 0, 74, 91
2, 195051, Note_on_c, 0, 62, 76
2, 195070, Note_on_c, 0, 77, 0
2, 195120, Note_on_c, 0, 62, 0
2, 195122, Note_on_c, 0, 65, 0
2, 195178, Note_on_c, 0, 82, 108
2, 195191, Note_on_c, 0, 65, 61
2, 195195, Note_on_c, 0, 70, 0
2, 195202, Note_on_c, 0, 62, 44
2, 195207, Note_on_c, 0, 74, 0
2, 195248, Note_on_c, 0, 62, 0
2, 195250, Note_on_c, 0, 65, 0
2, 195312, Note_on_c, 0, 74, 84
2, 195319, Note_on_c, 0, 65, 59
2, 195321, Note_on_c, 0, 70, 72
2, 195323, Note_on_c, 0, 62, 59
2, 195356, Note_on_c, 0, 70, 0
2, 195372, Note_on_c, 0, 65, 0
2, 195372, Note_on_c, 0, 62, 0
2, 195386, Note_on_c, 0, 74, 0
2, 195439, Note_on_c, 0, 62, 77
2, 195440, Note_on_c, 0, 74, 92
2, 195443, Note_on_c, 0, 65, 59
2, 195449, Note_on_c, 0, 70, 86
2, 195462, Note_on_c, 0, 82, 0
2, 195489, Note_on_c, 0, 70, 0
2, 195503, Note_on_c, 0, 77, 101
2, 195509, Note_on_c, 0, 62, 0
2, 195523, Note_on_c, 0, 74, 0
2, 195538, Note_on_c, 0, 65, 0
2, 195569, Note_on_c, 0, 77, 0
2, 195596, Note_on_c, 0, 77, 93
2, 195596, Note_on_c, 0, 59, 76
2, 195664, Control_c, 0, 64, 63
2, 195673, Control_c, 0, 64, 0
2, 195727, Control_c, 0, 64, 63
2, 195735, Control_c, 0, 64, 127
2, 195738, Note_on_c, 0, 75, 79
2, 195744, Note_on_c, 0, 69, 46
2, 195744, Note_on_c, 0, 60, 65
2, 195746, Note_on_c, 0, 65, 55
2, 195782, Note_on_c, 0, 69, 0
2, 195803, Note_on_c, 0, 65, 0
2, 195806, Note_on_c, 0, 75, 0
2, 195807, Note_on_c, 0, 60, 0
2, 195830, Note_on_c, 0, 59, 0
2, 195862, Note_on_c, 0, 75, 94
2, 195863, Note_on_c, 0, 69, 84
2, 195868, Note_on_c, 0, 60, 77
2, 195868, Note_on_c, 0, 65, 74
2, 195935, Note_on_c, 0, 65, 0
2, 195941, Note_on_c, 0, 69, 0
2, 195953, Note_on_c, 0, 60, 0
2, 196005, Note_on_c, 0, 81, 103
2, 196017, Note_on_c, 0, 60, 54
2, 196020, Note_on_c, 0, 65, 57
2, 196043, Note_on_c, 0, 75, 0
2, 196097, Note_on_c, 0, 65, 0
2, 196099, Note_on_c, 0, 60, 0
2, 196105, Note_on_c, 0, 77, 0
2, 196125, Note_on_c, 0, 81, 0
2, 196192, Note_on_c, 0, 79, 106
2, 196195, Note_on_c, 0, 60, 61
2, 196198, Note_on_c, 0, 65, 56
2, 196200, Note_on_c, 0, 75, 98
2, 196212, Note_on_c, 0, 69, 39
2, 196231, Note_on_c, 0, 75, 0
2, 196233, Note_on_c, 0, 69, 0
2, 196245, Note_on_c, 0, 65, 0
2, 196245, Note_on_c, 0, 60, 0
2, 196364, Note_on_c, 0, 75, 100
2, 196367, Note_on_c, 0, 60, 72
2, 196368, Note_on_c, 0, 65, 67
2, 196371, Note_on_c, 0, 69, 84
2, 196390, Note_on_c, 0, 79, 0
2, 196411, Note_on_c, 0, 69, 0
2, 196415, Note_on_c, 0, 60, 0
2, 196418, Note_on_c, 0, 65, 0
2, 196419, Note_on_c, 0, 75, 0
2, 196429, Note_on_c, 0, 77, 103
2, 196474, Note_on_c, 0, 77, 0
2, 196496, Note_on_c, 0, 77, 104
2, 196501, Note_on_c, 0, 57, 63
2, 196580, Control_c, 0, 64, 63
2, 196584, Control_c, 0, 64, 0
2, 196630, Control_c, 0, 64, 63
2, 196636, Control_c, 0, 64, 127
2, 196653, Note_on_c, 0, 58, 68
2, 196657, Note_on_c, 0, 65, 54
2, 196660, Note_on_c, 0, 74, 79
2, 196661, Note_on_c, 0, 70, 75
2, 196705, Note_on_c, 0, 70, 0
2, 196726, Note_on_c, 0, 57, 0
2, 196741, Note_on_c, 0, 74, 0
2, 196742, Note_on_c, 0, 65, 0
2, 196748, Note_on_c, 0, 58, 0
2, 196791, Note_on_c, 0, 74, 88
2, 196792, Note_on_c, 0, 70, 83
2, 196806, Note_on_c, 0, 58, 78
2, 196809, Note_on_c, 0, 65, 68
2, 196810, Note_on_c, 0, 77, 0
2, 196831, Note_on_c, 0, 70, 0
2, 196837, Note_on_c, 0, 74, 0
2, 196875, Note_on_c, 0, 65, 0
2, 196876, Note_on_c, 0, 58, 0
2, 196970, Note_on_c, 0, 86, 101
2, 196972, Note_on_c, 0, 58, 55
2, 196982, Note_on_c, 0, 65, 41
2, 197013, Note_on_c, 0, 86, 0
2, 197029, Note_on_c, 0, 65, 0
2, 197038, Note_on_c, 0, 58, 0
2, 197161, Note_on_c, 0, 74, 66
2, 197161, Note_on_c, 0, 58, 50
2, 197168, Note_on_c, 0, 65, 41
2, 197177, Note_on_c, 0, 70, 25
2, 197196, Note_on_c, 0, 70, 0
2, 197201, Note_on_c, 0, 74, 0
2, 197208, Note_on_c, 0, 65, 0
2, 197222, Note_on_c, 0, 58, 0
2, 197383, Note_on_c, 0, 58, 33
2, 197384, Note_on_c, 0, 65, 42
2, 197390, Note_on_c, 0, 70, 55
2, 197391, Note_on_c, 0, 74, 56
2, 197428, Note_on_c, 0, 65, 0
2, 197440, Note_on_c, 0, 58, 0
2, 197441, Note_on_c, 0, 70, 0
2, 197513, Note_on_c, 0, 77, 78
2, 197530, Note_on_c, 0, 74, 0
2, 197570, Note_on_c, 0, 77, 0
2, 197731, Note_on_c, 0, 50, 34
2, 197734, Note_on_c, 0, 43, 36
2, 197745, Note_on_c, 0, 74, 65
2, 197748, Note_on_c, 0, 71, 55
2, 197749, Note_on_c, 0, 67, 49
2, 197759, Note_on_c, 0, 62, 19
2, 197791, Control_c, 0, 64, 63
2, 197798, Control_c, 0, 64, 0
2, 197806, Control_c, 0, 67, 127
2, 197927, Control_c, 0, 64, 63
2, 197930, Control_c, 0, 64, 127
2, 197986, Note_on_c, 0, 55, 49
2, 198020, Note_on_c, 0, 43, 0
2, 198046, Note_on_c, 0, 50, 0
2, 198119, Note_on_c, 0, 62, 0
2, 198142, Note_on_c, 0, 55, 0
2, 198144, Note_on_c, 0, 59, 67
2, 198274, Note_on_c, 0, 62, 65
2, 198291, Note_on_c, 0, 59, 0
2, 198404, Note_on_c, 0, 59, 74
2, 198422, Note_on_c, 0, 62, 0
2, 198537, Note_on_c, 0, 55, 62
2, 198539, Note_on_c, 0, 59, 0
2, 198566, Note_on_c, 0, 55, 0
2, 198653, Note_on_c, 0, 50, 73
2, 198656, Note_on_c, 0, 43, 62
2, 198745, Note_on_c, 0, 43, 0
2, 198776, Note_on_c, 0, 55, 67
2, 198777, Note_on_c, 0, 50, 0
2, 198845, Note_on_c, 0, 55, 0
2, 198886, Note_on_c, 0, 59, 72
2, 199004, Note_on_c, 0, 59, 0
2, 199008, Note_on_c, 0, 62, 60
2, 199102, Note_on_c, 0, 62, 0
2, 199120, Note_on_c, 0, 59, 66
2, 199183, Note_on_c, 0, 59, 0
2, 199234, Note_on_c, 0, 55, 52
2, 199347, Note_on_c, 0, 55, 0
2, 199349, Note_on_c, 0, 50, 56
2, 199363, Note_on_c, 0, 43, 30
2, 199447, Note_on_c, 0, 43, 0
2, 199482, Note_on_c, 0, 50, 0
2, 199483, Note_on_c, 0, 55, 37
2, 199596, Note_on_c, 0, 55, 0
2, 199602, Note_on_c, 0, 59, 55
2, 199717, Note_on_c, 0, 62, 46
2, 199719, Note_on_c, 0, 59, 0
2, 199826, Note_on_c, 0, 62, 0
2, 199835, Note_on_c, 0, 59, 58
2, 199908, Note_on_c, 0, 59, 0
2, 199955, Note_on_c, 0, 55, 47
2, 200067, Note_on_c, 0, 55, 0
2, 200078, Note_on_c, 0, 50, 43
2, 200084, Note_on_c, 0, 43, 37
2, 200153, Note_on_c, 0, 43, 0
2, 200214, Note_on_c, 0, 50, 0
2, 200223, Note_on_c, 0, 55, 29
2, 200351, Note_on_c, 0, 55, 0
2, 200358, Note_on_c, 0, 59, 44
2, 200499, Note_on_c, 0, 59, 0
2, 200503, Note_on_c, 0, 62, 41
2, 200635, Note_on_c, 0, 62, 0
2, 200660, Note_on_c, 0, 59, 41
2, 200713, Note_on_c, 0, 59, 0
2, 200749, Note_on_c, 0, 67, 0
2, 200777, Note_on_c, 0, 71, 0
2, 200781, Note_on_c, 0, 74, 0
2, 200854, Note_on_c, 0, 55, 34
2, 201136, Note_on_c, 0, 55, 0
2, 201137, Note_on_c, 0, 43, 38
2, 201170, Note_on_c, 0, 79, 81
2, 201233, Control_c, 0, 64, 63
2, 201243, Control_c, 0, 64, 0
2, 201297, Control_c, 0, 64, 63
2, 201304, Control_c, 0, 64, 127
2, 201367, Control_c, 0, 67, 0
2, 201452, Note_on_c, 0, 43, 0
2, 201495, Note_on_c, 0, 74, 22
2, 201496, Note_on_c, 0, 77, 29
2, 201611, Note_on_c, 0, 74, 0
2, 201612, Note_on_c, 0, 77, 0
2, 201702, Note_on_c, 0, 77, 49
2, 201716, Note_on_c, 0, 74, 22
2, 201863, Note_on_c, 0, 74, 0
2, 201894, Note_on_c, 0, 77, 0
2, 201898, Note_on_c, 0, 81, 70
2, 201899, Note_on_c, 0, 59, 43
2, 201899, Note_on_c, 0, 69, 51
2, 201915, Note_on_c, 0, 79, 0
2, 202085, Note_on_c, 0, 77, 49
2, 202089, Note_on_c, 0, 74, 48
2, 202161, Note_on_c, 0, 69, 0
2, 202175, Note_on_c, 0, 74, 0
2, 202179, Note_on_c, 0, 77, 0
2, 202236, Note_on_c, 0, 67, 79
2, 202237, Note_on_c, 0, 79, 84
2, 202260, Note_on_c, 0, 81, 0
2, 202350, Note_on_c, 0, 67, 0
2, 202359, Note_on_c, 0, 79, 0
2, 202391, Note_on_c, 0, 79, 93
2, 202399, Note_on_c, 0, 67, 68
2, 202408, Note_on_c, 0, 60, 72
2, 202433, Note_on_c, 0, 59, 0
2, 202487, Control_c, 0, 64, 63
2, 202502, Control_c, 0, 64, 0
2, 202513, Control_c, 0, 64, 63
2, 202534, Control_c, 0, 64, 127
2, 202545, Note_on_c, 0, 76, 70
2, 202555, Note_on_c, 0, 72, 46
2, 202634, Note_on_c, 0, 76, 0
2, 202641, Note_on_c, 0, 72, 0
2, 202685, Note_on_c, 0, 76, 91
2, 202691, Note_on_c, 0, 72, 71
2, 202718, Note_on_c, 0, 79, 0
2, 202752, Note_on_c, 0, 67, 0
2, 202870, Note_on_c, 0, 84, 92
2, 202915, Note_on_c, 0, 76, 0
2, 203033, Note_on_c, 0, 76, 65
2, 203135, Note_on_c, 0, 76, 0
2, 203204, Note_on_c, 0, 72, 0
2, 203207, Note_on_c, 0, 79, 78
2, 203207, Note_on_c, 0, 67, 39
2, 203217, Note_on_c, 0, 76, 61
2, 203224, Note_on_c, 0, 72, 38
2, 203271, Note_on_c, 0, 84, 0
2, 203310, Note_on_c, 0, 67, 0
2, 203337, Note_on_c, 0, 79, 0
2, 203414, Note_on_c, 0, 65, 50
2, 203415, Note_on_c, 0, 57, 30
2, 203415, Note_on_c, 0, 77, 65
2, 203420, Note_on_c, 0, 72, 0
2, 203425, Note_on_c, 0, 60, 0
2, 203438, Note_on_c, 0, 76, 0
2, 203524, Control_c, 0, 64, 63
2, 203538, Control_c, 0, 64, 0
2, 203557, Control_c, 0, 64, 63
2, 203575, Control_c, 0, 64, 127
2, 203619, Note_on_c, 0, 76, 45
2, 203634, Note_on_c, 0, 72, 20
2, 203707, Note_on_c, 0, 72, 0
2, 203707, Note_on_c, 0, 76, 0
2, 203767, Note_on_c, 0, 76, 72
2, 203774, Note_on_c, 0, 72, 60
2, 203838, Note_on_c, 0, 72, 0
2, 203901, Note_on_c, 0, 69, 50
2, 203905, Note_on_c, 0, 81, 87
2, 203930, Note_on_c, 0, 76, 0
2, 203975, Note_on_c, 0, 77, 0
2, 203994, Note_on_c, 0, 69, 0
2, 203994, Note_on_c, 0, 81, 0
2, 204048, Note_on_c, 0, 79, 97
2, 204053, Note_on_c, 0, 67, 58
2, 204056, Note_on_c, 0, 74, 63
2, 204057, Note_on_c, 0, 71, 59
2, 204081, Note_on_c, 0, 65, 0
2, 204136, Note_on_c, 0, 71, 0
2, 204143, Note_on_c, 0, 74, 0
2, 204162, Note_on_c, 0, 67, 0
2, 204202, Note_on_c, 0, 77, 103
2, 204208, Note_on_c, 0, 65, 74
2, 204213, Note_on_c, 0, 57, 0
2, 204215, Note_on_c, 0, 74, 84
2, 204224, Note_on_c, 0, 71, 63
2, 204237, Note_on_c, 0, 79, 0
2, 204286, Note_on_c, 0, 65, 0
2, 204307, Note_on_c, 0, 71, 0
2, 204322, Note_on_c, 0, 74, 0
2, 204384, Note_on_c, 0, 64, 76
2, 204384, Note_on_c, 0, 56, 73
2, 204386, Note_on_c, 0, 76, 92
2, 204423, Note_on_c, 0, 77, 0
2, 204465, Control_c, 0, 64, 63
2, 204478, Control_c, 0, 64, 0
2, 204518, Control_c, 0, 64, 63
2, 204530, Control_c, 0, 64, 127
2, 204560, Note_on_c, 0, 74, 67
2, 204571, Note_on_c, 0, 71, 59
2, 204645, Note_on_c, 0, 74, 0
2, 204647, Note_on_c, 0, 71, 0
2, 204711, Note_on_c, 0, 71, 68
2, 204712, Note_on_c, 0, 74, 78
2, 204799, Note_on_c, 0, 64, 0
2, 204842, Note_on_c, 0, 55, 70
2, 204851, Note_on_c, 0, 64, 53
2, 204852, Note_on_c, 0, 74, 0
2, 204872, Note_on_c, 0, 71, 0
2, 204891, Note_on_c, 0, 56, 0
2, 204931, Control_c, 0, 64, 63
2, 204975, Control_c, 0, 64, 127
2, 205000, Note_on_c, 0, 73, 80
2, 205015, Note_on_c, 0, 69, 46
2, 205090, Note_on_c, 0, 73, 0
2, 205101, Note_on_c, 0, 69, 0
2, 205164, Note_on_c, 0, 73, 72
2, 205172, Note_on_c, 0, 69, 38
2, 205202, Note_on_c, 0, 64, 0
2, 205239, Note_on_c, 0, 76, 0
2, 205327, Note_on_c, 0, 73, 0
2, 205351, Note_on_c, 0, 69, 0
2, 205359, Note_on_c, 0, 54, 64
2, 205359, Note_on_c, 0, 62, 63
2, 205363, Note_on_c, 0, 74, 83
2, 205407, Note_on_c, 0, 55, 0
2, 205436, Control_c, 0, 64, 63
2, 205447, Control_c, 0, 64, 0
2, 205492, Control_c, 0, 64, 63
2, 205500, Control_c, 0, 64, 127
2, 205548, Note_on_c, 0, 72, 71
2, 205555, Note_on_c, 0, 69, 50
2, 205645, Note_on_c, 0, 69, 0
2, 205650, Note_on_c, 0, 72, 0
2, 205687, Note_on_c, 0, 72, 79
2, 205694, Note_on_c, 0, 69, 61
2, 205720, Note_on_c, 0, 62, 0
2, 205769, Note_on_c, 0, 54, 0
2, 205805, Note_on_c, 0, 69, 0
2, 205816, Note_on_c, 0, 76, 99
2, 205820, Note_on_c, 0, 64, 84
2, 205826, Note_on_c, 0, 53, 74
2, 205849, Note_on_c, 0, 72, 0
2, 205856, Note_on_c, 0, 74, 0
2, 205887, Control_c, 0, 64, 63
2, 205905, Control_c, 0, 64, 0
2, 205918, Control_c, 0, 64, 63
2, 205935, Control_c, 0, 64, 127
2, 205953, Note_on_c, 0, 71, 68
2, 205961, Note_on_c, 0, 67, 56
2, 206030, Note_on_c, 0, 64, 0
2, 206060, Note_on_c, 0, 71, 0
2, 206061, Note_on_c, 0, 67, 0
2, 206087, Note_on_c, 0, 62, 92
2, 206090, Note_on_c, 0, 74, 92
2, 206101, Note_on_c, 0, 71, 65
2, 206104, Note_on_c, 0, 67, 55
2, 206123, Note_on_c, 0, 76, 0
2, 206190, Note_on_c, 0, 53, 0
2, 206200, Note_on_c, 0, 67, 0
2, 206218, Note_on_c, 0, 71, 0
2, 206239, Note_on_c, 0, 62, 0
2, 206243, Note_on_c, 0, 72, 102
2, 206246, Note_on_c, 0, 60, 88
2, 206255, Note_on_c, 0, 52, 83
2, 206285, Note_on_c, 0, 74, 0
2, 206300, Control_c, 0, 64, 63
2, 206305, Control_c, 0, 64, 0
2, 206359, Control_c, 0, 64, 63
2, 206365, Control_c, 0, 64, 127
2, 206395, Note_on_c, 0, 70, 79
2, 206404, Note_on_c, 0, 67, 59
2, 206480, Note_on_c, 0, 70, 0
2, 206485, Note_on_c, 0, 67, 0
2, 206527, Note_on_c, 0, 70, 88
2, 206532, Note_on_c, 0, 67, 63
2, 206558, Note_on_c, 0, 72, 0
2, 206561, Note_on_c, 0, 52, 0
2, 206596, Note_on_c, 0, 67, 0
2, 206651, Note_on_c, 0, 70, 0
2, 206684, Note_on_c, 0, 79, 100
2, 206690, Note_on_c, 0, 67, 71
2, 206698, Note_on_c, 0, 60, 0
2, 206775, Note_on_c, 0, 79, 0
2, 206804, Note_on_c, 0, 67, 0
2, 206857, Note_on_c, 0, 70, 81
2, 206868, Note_on_c, 0, 67, 61
2, 206972, Note_on_c, 0, 70, 0
2, 206982, Note_on_c, 0, 67, 0
2, 207038, Note_on_c, 0, 60, 54
2, 207038, Note_on_c, 0, 70, 79
2, 207066, Note_on_c, 0, 67, 14
2, 207120, Note_on_c, 0, 70, 0
2, 207125, Note_on_c, 0, 67, 0
2, 207137, Note_on_c, 0, 72, 98
2, 207229, Note_on_c, 0, 60, 0
2, 207253, Note_on_c, 0, 72, 0
2, 207284, Note_on_c, 0, 72, 94
2, 207293, Note_on_c, 0, 53, 52
2, 207294, Note_on_c, 0, 60, 56
2, 207431, Control_c, 0, 64, 63
2, 207438, Control_c, 0, 64, 0
2, 207497, Note_on_c, 0, 69, 71
2, 207507, Control_c, 0, 64, 63
2, 207508, Note_on_c, 0, 65, 71
2, 207511, Control_c, 0, 64, 127
2, 207625, Note_on_c, 0, 65, 0
2, 207644, Note_on_c, 0, 74, 97
2, 207649, Note_on_c, 0, 62, 103
2, 207679, Note_on_c, 0, 69, 0
2, 207688, Note_on_c, 0, 60, 0
2, 207688, Note_on_c, 0, 72, 0
2, 207797, Note_on_c, 0, 71, 84
2, 207800, Note_on_c, 0, 69, 79
2, 207830, Note_on_c, 0, 74, 0
2, 207865, Note_on_c, 0, 62, 0
2, 207920, Note_on_c, 0, 69, 0
2, 207938, Note_on_c, 0, 75, 101
2, 207949, Note_on_c, 0, 63, 112
2, 207977, Note_on_c, 0, 71, 0
2, 208075, Note_on_c, 0, 71, 87
2, 208085, Note_on_c, 0, 69, 71
2, 208096, Note_on_c, 0, 53, 0
2, 208105, Note_on_c, 0, 63, 0
2, 208139, Note_on_c, 0, 75, 0
2, 208222, Note_on_c, 0, 69, 0
2, 208222, Note_on_c, 0, 76, 93
2, 208226, Note_on_c, 0, 64, 89
2, 208229, Note_on_c, 0, 71, 0
2, 208231, Note_on_c, 0, 52, 84
2, 208310, Control_c, 0, 64, 63
2, 208316, Control_c, 0, 64, 0
2, 208370, Control_c, 0, 64, 63
2, 208377, Control_c, 0, 64, 127
2, 208379, Note_on_c, 0, 71, 67
2, 208387, Note_on_c, 0, 68, 68
2, 208473, Note_on_c, 0, 68, 0
2, 208481, Note_on_c, 0, 71, 0
2, 208536, Note_on_c, 0, 68, 61
2, 208538, Note_on_c, 0, 71, 72
2, 208639, Note_on_c, 0, 68, 0
2, 208644, Note_on_c, 0, 71, 0
2, 208695, Note_on_c, 0, 54, 103
2, 208706, Note_on_c, 0, 71, 60
2, 208707, Note_on_c, 0, 68, 52
2, 208744, Note_on_c, 0, 52, 0
2, 208795, Note_on_c, 0, 71, 0
2, 208801, Note_on_c, 0, 68, 0
2, 208855, Note_on_c, 0, 64, 0
2, 208860, Note_on_c, 0, 71, 77
2, 208861, Note_on_c, 0, 68, 72
2, 208950, Note_on_c, 0, 68, 0
2, 208961, Note_on_c, 0, 71, 0
2, 209024, Note_on_c, 0, 56, 109
2, 209051, Note_on_c, 0, 68, 66
2, 209051, Note_on_c, 0, 71, 75
2, 209078, Note_on_c, 0, 54, 0
2, 209143, Note_on_c, 0, 76, 0
2, 209177, Note_on_c, 0, 68, 0
2, 209291, Note_on_c, 0, 77, 107
2, 209296, Note_on_c, 0, 57, 76
2, 209344, Note_on_c, 0, 71, 0
2, 209347, Note_on_c, 0, 56, 0
2, 209360, Control_c, 0, 64, 63
2, 209365, Control_c, 0, 64, 0
2, 209446, Control_c, 0, 64, 63
2, 209447, Control_c, 0, 64, 127
2, 209530, Note_on_c, 0, 70, 82
2, 209532, Note_on_c, 0, 73, 77
2, 209539, Note_on_c, 0, 67, 53
2, 209626, Note_on_c, 0, 67, 0
2, 209636, Note_on_c, 0, 70, 0
2, 209652, Note_on_c, 0, 73, 0
2, 209702, Note_on_c, 0, 70, 69
2, 209709, Note_on_c, 0, 73, 55
2, 209709, Note_on_c, 0, 67, 48
2, 209777, Note_on_c, 0, 77, 0
2, 209839, Note_on_c, 0, 76, 100
2, 209877, Note_on_c, 0, 67, 0
2, 209890, Note_on_c, 0, 73, 0
2, 209895, Note_on_c, 0, 70, 0
2, 209971, Note_on_c, 0, 70, 60
2, 209972, Note_on_c, 0, 73, 61
2, 210036, Note_on_c, 0, 70, 0
2, 210045, Note_on_c, 0, 73, 0
2, 210098, Note_on_c, 0, 70, 65
2, 210099, Note_on_c, 0, 67, 57
2, 210101, Note_on_c, 0, 73, 51
2, 210221, Note_on_c, 0, 67, 0
2, 210275, Note_on_c, 0, 65, 90
2, 210287, Note_on_c, 0, 74, 85
2, 210289, Note_on_c, 0, 73, 0
2, 210297, Note_on_c, 0, 70, 0
2, 210303, Note_on_c, 0, 76, 0
2, 210360, Control_c, 0, 64, 63
2, 210370, Control_c, 0, 64, 0
2, 210392, Control_c, 0, 64, 63
2, 210406, Control_c, 0, 64, 127
2, 210462, Note_on_c, 0, 68, 72
2, 210594, Note_on_c, 0, 69, 53
2, 210643, Note_on_c, 0, 74, 0
2, 210649, Note_on_c, 0, 68, 0
2, 210732, Note_on_c, 0, 72, 101
2, 210741, Note_on_c, 0, 64, 78
2, 210757, Note_on_c, 0, 69, 0
2, 210764, Note_on_c, 0, 65, 0
2, 210866, Note_on_c, 0, 66, 73
2, 210887, Note_on_c, 0, 72, 0
2, 210974, Note_on_c, 0, 66, 0
2, 210998, Note_on_c, 0, 70, 96
2, 211000, Note_on_c, 0, 62, 86
2, 211009, Note_on_c, 0, 64, 0
2, 211010, Note_on_c, 0, 67, 51
2, 211065, Note_on_c, 0, 57, 0
2, 211110, Note_on_c, 0, 70, 0
2, 211160, Note_on_c, 0, 67, 0
2, 211162, Note_on_c, 0, 62, 0
2, 211191, Note_on_c, 0, 57, 59
2, 211193, Note_on_c, 0, 69, 103
2, 211205, Note_on_c, 0, 53, 57
2, 211277, Control_c, 0, 64, 63
2, 211284, Control_c, 0, 64, 0
2, 211313, Control_c, 0, 64, 63
2, 211327, Control_c, 0, 64, 127
2, 211390, Note_on_c, 0, 60, 76
2, 211510, Note_on_c, 0, 61, 98
2, 211542, Note_on_c, 0, 60, 0
2, 211632, Note_on_c, 0, 52, 102
2, 211647, Note_on_c, 0, 62, 81
2, 211668, Note_on_c, 0, 61, 0
2, 211672, Note_on_c, 0, 53, 0
2, 211707, Control_c, 0, 64, 63
2, 211749, Control_c, 0, 64, 127
2, 211770, Note_on_c, 0, 63, 100
2, 211805, Note_on_c, 0, 62, 0
2, 211885, Note_on_c, 0, 67, 93
2, 211892, Note_on_c, 0, 63, 0
2, 211892, Note_on_c, 0, 64, 82
2, 211900, Note_on_c, 0, 69, 0
2, 211998, Note_on_c, 0, 57, 0
2, 212036, Note_on_c, 0, 65, 101
2, 212047, Note_on_c, 0, 57, 86
2, 212047, Note_on_c, 0, 50, 99
2, 212073, Note_on_c, 0, 64, 0
2, 212093, Control_c, 0, 64, 63
2, 212096, Note_on_c, 0, 67, 0
2, 212109, Control_c, 0, 64, 0
2, 212110, Note_on_c, 0, 52, 0
2, 212137, Control_c, 0, 64, 63
2, 212154, Control_c, 0, 64, 127
2, 212209, Note_on_c, 0, 67, 99
2, 212302, Note_on_c, 0, 65, 0
2, 212326, Note_on_c, 0, 68, 105
2, 212372, Note_on_c, 0, 67, 0
2, 212457, Note_on_c, 0, 48, 104
2, 212465, Note_on_c, 0, 68, 0
2, 212472, Note_on_c, 0, 69, 92
2, 212508, Note_on_c, 0, 50, 0
2, 212625, Note_on_c, 0, 74, 104
2, 212644, Note_on_c, 0, 48, 0
2, 212785, Note_on_c, 0, 46, 113
2, 212798, Note_on_c, 0, 76, 99
2, 212836, Note_on_c, 0, 74, 0
2, 212933, Note_on_c, 0, 57, 0
2, 212946, Note_on_c, 0, 69, 0
2, 212966, Note_on_c, 0, 46, 0
2, 213007, Note_on_c, 0, 45, 97
2, 213013, Note_on_c, 0, 57, 96
2, 213014, Note_on_c, 0, 77, 100
2, 213051, Note_on_c, 0, 76, 0
2, 213113, Control_c, 0, 64, 63
2, 213119, Control_c, 0, 64, 0
2, 213211, Control_c, 0, 64, 63
2, 213213, Control_c, 0, 64, 127
2, 213223, Note_on_c, 0, 73, 78
2, 213232, Note_on_c, 0, 67, 58
2, 213315, Note_on_c, 0, 67, 0
2, 213319, Note_on_c, 0, 73, 0
2, 213370, Note_on_c, 0, 73, 88
2, 213376, Note_on_c, 0, 67, 69
2, 213378, Note_on_c, 0, 45, 0
2, 213380, Note_on_c, 0, 57, 0
2, 213436, Note_on_c, 0, 77, 0
2, 213498, Note_on_c, 0, 67, 0
2, 213509, Note_on_c, 0, 76, 97
2, 213511, Note_on_c, 0, 46, 96
2, 213514, Note_on_c, 0, 58, 101
2, 213543, Note_on_c, 0, 73, 0
2, 213660, Note_on_c, 0, 73, 88
2, 213665, Note_on_c, 0, 67, 69
2, 213683, Note_on_c, 0, 58, 0
2, 213685, Note_on_c, 0, 46, 0
2, 213737, Note_on_c, 0, 67, 0
2, 213758, Note_on_c, 0, 73, 0
2, 213789, Note_on_c, 0, 57, 103
2, 213792, Note_on_c, 0, 45, 100
2, 213796, Note_on_c, 0, 73, 85
2, 213804, Note_on_c, 0, 67, 70
2, 213870, Note_on_c, 0, 76, 0
2, 213894, Note_on_c, 0, 45, 0
2, 213895, Note_on_c, 0, 57, 0
2, 213916, Note_on_c, 0, 67, 0
2, 213932, Note_on_c, 0, 57, 100
2, 213935, Note_on_c, 0, 74, 87
2, 213937, Note_on_c, 0, 45, 91
2, 213946, Note_on_c, 0, 73, 0
2, 213992, Control_c, 0, 64, 63
2, 213997, Control_c, 0, 64, 0
2, 214033, Control_c, 0, 64, 63
2, 214044, Control_c, 0, 64, 127
2, 214059, Note_on_c, 0, 69, 71
2, 214063, Note_on_c, 0, 65, 68
2, 214122, Note_on_c, 0, 65, 0
2, 214129, Note_on_c, 0, 69, 0
2, 214151, Note_on_c, 0, 45, 0
2, 214178, Note_on_c, 0, 69, 86
2, 214179, Note_on_c, 0, 65, 72
2, 214188, Note_on_c, 0, 57, 0
2, 214198, Note_on_c, 0, 74, 0
2, 214261, Note_on_c, 0, 65, 0
2, 214296, Note_on_c, 0, 69, 0
2, 214302, Note_on_c, 0, 62, 107
2, 214306, Note_on_c, 0, 72, 86
2, 214308, Note_on_c, 0, 50, 87
2, 214402, Note_on_c, 0, 62, 0
2, 214440, Note_on_c, 0, 65, 87
2, 214441, Note_on_c, 0, 50, 0
2, 214447, Note_on_c, 0, 62, 88
2, 214529, Note_on_c, 0, 72, 0
2, 214550, Note_on_c, 0, 62, 0
2, 214567, Note_on_c, 0, 65, 0
2, 214568, Note_on_c, 0, 70, 103
2, 214570, Note_on_c, 0, 57, 99
2, 214574, Note_on_c, 0, 45, 91
2, 214608, Note_on_c, 0, 62, 6
2, 214628, Note_on_c, 0, 65, 13
2, 214665, Note_on_c, 0, 45, 0
2, 214665, Note_on_c, 0, 70, 0
2, 214673, Note_on_c, 0, 62, 0
2, 214677, Note_on_c, 0, 57, 0
2, 214709, Note_on_c, 0, 57, 98
2, 214712, Note_on_c, 0, 69, 92
2, 214713, Note_on_c, 0, 45, 96
2, 214731, Control_c, 0, 64, 63
2, 214734, Control_c, 0, 64, 0
2, 214737, Note_on_c, 0, 65, 0
2, 214780, Control_c, 0, 64, 63
2, 214786, Control_c, 0, 64, 127
2, 214847, Note_on_c, 0, 61, 84
2, 214850, Note_on_c, 0, 67, 78
2, 214870, Note_on_c, 0, 45, 0
2, 214904, Note_on_c, 0, 61, 0
2, 214918, Note_on_c, 0, 57, 0
2, 214978, Note_on_c, 0, 61, 86
2, 214989, Note_on_c, 0, 69, 0
2, 215016, Note_on_c, 0, 67, 0
2, 215053, Note_on_c, 0, 61, 0
2, 215114, Note_on_c, 0, 64, 106
2, 215116, Note_on_c, 0, 52, 97
2, 215129, Note_on_c, 0, 67, 74
2, 215264, Note_on_c, 0, 58, 55
2, 215268, Note_on_c, 0, 61, 81
2, 215270, Note_on_c, 0, 64, 0
2, 215294, Note_on_c, 0, 52, 0
2, 215332, Note_on_c, 0, 58, 0
2, 215343, Note_on_c, 0, 61, 0
2, 215413, Note_on_c, 0, 57, 99
2, 215418, Note_on_c, 0, 45, 94
2, 215422, Note_on_c, 0, 61, 80
2, 215427, Note_on_c, 0, 58, 64
2, 215440, Note_on_c, 0, 67, 0
2, 215528, Note_on_c, 0, 58, 0
2, 215534, Note_on_c, 0, 45, 0
2, 215544, Note_on_c, 0, 57, 0
2, 215576, Note_on_c, 0, 61, 0
2, 215579, Note_on_c, 0, 65, 78
2, 215580, Note_on_c, 0, 57, 103
2, 215583, Note_on_c, 0, 45, 99
2, 215607, Control_c, 0, 64, 63
2, 215612, Control_c, 0, 64, 0
2, 215636, Control_c, 0, 64, 63
2, 215644, Control_c, 0, 64, 127
2, 215733, Note_on_c, 0, 62, 79
2, 215744, Note_on_c, 0, 65, 0
2, 215810, Note_on_c, 0, 45, 0
2, 215811, Note_on_c, 0, 62, 0
2, 215828, Note_on_c, 0, 57, 0
2, 215898, Note_on_c, 0, 57, 61
2, 215898, Note_on_c, 0, 62, 80
2, 215937, Note_on_c, 0, 57, 0
2, 215976, Note_on_c, 0, 62, 0
2, 216072, Note_on_c, 0, 65, 103
2, 216077, Note_on_c, 0, 53, 92
2, 216244, Note_on_c, 0, 65, 0
2, 216288, Note_on_c, 0, 62, 71
2, 216290, Note_on_c, 0, 53, 0
2, 216442, Note_on_c, 0, 62, 0
2, 216507, Note_on_c, 0, 56, 60
2, 216511, Note_on_c, 0, 44, 62
2, 216522, Note_on_c, 0, 62, 58
2, 216531, Note_on_c, 0, 60, 35
2, 216546, Control_c, 0, 64, 63
2, 216554, Control_c, 0, 64, 0
2, 216576, Control_c, 0, 64, 63
2, 216588, Control_c, 0, 64, 127
2, 216681, Note_on_c, 0, 62, 0
2, 216686, Note_on_c, 0, 60, 0
2, 216706, Note_on_c, 0, 56, 0
2, 216729, Note_on_c, 0, 44, 0
2, 216879, Note_on_c, 0, 43, 39
2, 216879, Note_on_c, 0, 55, 25
2, 216880, Note_on_c, 0, 75, 78
2, 216959, Control_c, 0, 64, 63
2, 216968, Control_c, 0, 64, 0
2, 217060, Control_c, 0, 64, 63
2, 217063, Control_c, 0, 64, 127
2, 217144, Note_on_c, 0, 68, 52
2, 217150, Note_on_c, 0, 71, 54
2, 217153, Note_on_c, 0, 65, 20
2, 217257, Note_on_c, 0, 65, 0
2, 217261, Note_on_c, 0, 68, 0
2, 217277, Note_on_c, 0, 71, 0
2, 217327, Note_on_c, 0, 68, 63
2, 217328, Note_on_c, 0, 65, 63
2, 217332, Note_on_c, 0, 71, 50
2, 217460, Note_on_c, 0, 75, 0
2, 217473, Note_on_c, 0, 74, 98
2, 217483, Note_on_c, 0, 43, 0
2, 217514, Note_on_c, 0, 65, 0
2, 217522, Note_on_c, 0, 71, 0
2, 217530, Note_on_c, 0, 68, 0
2, 217616, Note_on_c, 0, 71, 71
2, 217616, Note_on_c, 0, 65, 60
2, 217618, Note_on_c, 0, 68, 67
2, 217669, Note_on_c, 0, 65, 0
2, 217688, Note_on_c, 0, 68, 0
2, 217710, Note_on_c, 0, 71, 0
2, 217743, Note_on_c, 0, 71, 77
2, 217749, Note_on_c, 0, 68, 66
2, 217749, Note_on_c, 0, 65, 51
2, 217831, Note_on_c, 0, 65, 0
2, 217873, Note_on_c, 0, 74, 0
2, 217874, Note_on_c, 0, 63, 94
2, 217889, Note_on_c, 0, 72, 91
2, 217917, Note_on_c, 0, 68, 0
2, 217920, Note_on_c, 0, 71, 0
2, 217951, Control_c, 0, 64, 63
2, 217970, Control_c, 0, 64, 127
2, 218027, Note_on_c, 0, 66, 76
2, 218099, Note_on_c, 0, 66, 0
2, 218126, Note_on_c, 0, 67, 85
2, 218241, Note_on_c, 0, 70, 103
2, 218247, Note_on_c, 0, 62, 83
2, 218264, Note_on_c, 0, 63, 0
2, 218266, Note_on_c, 0, 67, 0
2, 218284, Note_on_c, 0, 72, 0
2, 218326, Control_c, 0, 64, 63
2, 218333, Control_c, 0, 64, 127
2, 218379, Note_on_c, 0, 64, 84
2, 218447, Note_on_c, 0, 70, 0
2, 218475, Note_on_c, 0, 62, 0
2, 218497, Note_on_c, 0, 60, 91
2, 218510, Note_on_c, 0, 68, 104
2, 218513, Note_on_c, 0, 65, 79
2, 218527, Note_on_c, 0, 64, 0
2, 218531, Note_on_c, 0, 60, 0
2, 218541, Note_on_c, 0, 55, 0
2, 218640, Note_on_c, 0, 67, 104
2, 218641, Note_on_c, 0, 68, 0
2, 218656, Note_on_c, 0, 65, 0
2, 218675, Note_on_c, 0, 55, 71
2, 218677, Note_on_c, 0, 51, 88
2, 218755, Control_c, 0, 64, 63
2, 218802, Control_c, 0, 64, 127
2, 218824, Note_on_c, 0, 58, 40
2, 218956, Note_on_c, 0, 59, 91
2, 218959, Note_on_c, 0, 58, 0
2, 219077, Note_on_c, 0, 60, 98
2, 219085, Note_on_c, 0, 50, 89
2, 219093, Note_on_c, 0, 59, 0
2, 219122, Note_on_c, 0, 51, 0
2, 219157, Control_c, 0, 64, 63
2, 219202, Note_on_c, 0, 61, 108
2, 219213, Control_c, 0, 64, 127
2, 219231, Note_on_c, 0, 60, 0
2, 219294, Note_on_c, 0, 61, 0
2, 219328, Note_on_c, 0, 65, 109
2, 219335, Note_on_c, 0, 62, 84
2, 219355, Note_on_c, 0, 67, 0
2, 219464, Note_on_c, 0, 48, 94
2, 219470, Note_on_c, 0, 63, 107
2, 219492, Note_on_c, 0, 62, 0
2, 219494, Control_c, 0, 64, 63
2, 219505, Control_c, 0, 64, 0
2, 219512, Note_on_c, 0, 65, 0
2, 219519, Note_on_c, 0, 50, 0
2, 219537, Control_c, 0, 64, 63
2, 219550, Control_c, 0, 64, 127
2, 219619, Note_on_c, 0, 65, 103
2, 219654, Note_on_c, 0, 63, 0
2, 219747, Note_on_c, 0, 66, 110
2, 219756, Note_on_c, 0, 48, 0
2, 219779, Note_on_c, 0, 65, 0
2, 219880, Note_on_c, 0, 46, 113
2, 219882, Note_on_c, 0, 66, 0
2, 219883, Note_on_c, 0, 67, 78
2, 220028, Note_on_c, 0, 72, 102
2, 220036, Note_on_c, 0, 67, 0
2, 220159, Note_on_c, 0, 44, 112
2, 220181, Note_on_c, 0, 74, 94
2, 220186, Note_on_c, 0, 46, 0
2, 220208, Note_on_c, 0, 72, 0
2, 220347, Note_on_c, 0, 55, 0
2, 220388, Note_on_c, 0, 75, 98
2, 220391, Note_on_c, 0, 43, 100
2, 220394, Note_on_c, 0, 55, 84
2, 220395, Note_on_c, 0, 74, 0
2, 220397, Note_on_c, 0, 44, 0
2, 220480, Control_c, 0, 64, 63
2, 220485, Control_c, 0, 64, 0
2, 220558, Control_c, 0, 64, 63
2, 220562, Control_c, 0, 64, 127
2, 220591, Note_on_c, 0, 65, 94
2, 220591, Note_on_c, 0, 71, 90
2, 220694, Note_on_c, 0, 65, 0
2, 220701, Note_on_c, 0, 71, 0
2, 220733, Note_on_c, 0, 71, 81
2, 220738, Note_on_c, 0, 55, 0
2, 220739, Note_on_c, 0, 65, 93
2, 220753, Note_on_c, 0, 43, 0
2, 220835, Note_on_c, 0, 75, 0
2, 220872, Note_on_c, 0, 44, 97
2, 220874, Note_on_c, 0, 56, 109
2, 220879, Note_on_c, 0, 74, 87
2, 220899, Note_on_c, 0, 65, 0
2, 220906, Note_on_c, 0, 71, 0
2, 220939, Control_c, 0, 64, 63
2, 220949, Control_c, 0, 64, 127
2, 221015, Note_on_c, 0, 71, 84
2, 221024, Note_on_c, 0, 65, 67
2, 221106, Note_on_c, 0, 65, 0
2, 221115, Note_on_c, 0, 71, 0
2, 221116, Note_on_c, 0, 56, 0
2, 221144, Note_on_c, 0, 55, 94
2, 221145, Note_on_c, 0, 43, 99
2, 221157, Note_on_c, 0, 71, 85
2, 221159, Note_on_c, 0, 44, 0
2, 221161, Note_on_c, 0, 65, 83
2, 221198, Note_on_c, 0, 74, 0
2, 221266, Note_on_c, 0, 65, 0
2, 221267, Note_on_c, 0, 55, 0
2, 221268, Note_on_c, 0, 43, 0
2, 221282, Note_on_c, 0, 71, 0
2, 221289, Note_on_c, 0, 72, 101
2, 221291, Note_on_c, 0, 55, 89
2, 221296, Note_on_c, 0, 43, 90
2, 221336, Control_c, 0, 64, 63
2, 221344, Control_c, 0, 64, 0
2, 221369, Control_c, 0, 64, 63
2, 221381, Control_c, 0, 64, 127
2, 221419, Note_on_c, 0, 63, 87
2, 221420, Note_on_c, 0, 67, 77
2, 221496, Note_on_c, 0, 63, 0
2, 221505, Note_on_c, 0, 43, 0
2, 221507, Note_on_c, 0, 67, 0
2, 221539, Note_on_c, 0, 63, 91
2, 221539, Note_on_c, 0, 67, 77
2, 221540, Note_on_c, 0, 55, 0
2, 221578, Note_on_c, 0, 72, 0
2, 221648, Note_on_c, 0, 63, 0
2, 221653, Note_on_c, 0, 60, 107
2, 221662, Note_on_c, 0, 48, 86
2, 221666, Note_on_c, 0, 67, 0
2, 221667, Note_on_c, 0, 70, 94
2, 221761, Note_on_c, 0, 60, 0
2, 221791, Note_on_c, 0, 48, 0
2, 221797, Note_on_c, 0, 63, 93
2, 221801, Note_on_c, 0, 60, 76
2, 221880, Note_on_c, 0, 60, 0
2, 221889, Note_on_c, 0, 63, 0
2, 221911, Note_on_c, 0, 70, 0
2, 221913, Note_on_c, 0, 55, 97
2, 221915, Note_on_c, 0, 43, 97
2, 221919, Note_on_c, 0, 68, 99
2, 221921, Note_on_c, 0, 63, 79
2, 221926, Note_on_c, 0, 60, 76
2, 222004, Note_on_c, 0, 60, 0
2, 222011, Note_on_c, 0, 43, 0
2, 222012, Note_on_c, 0, 68, 0
2, 222024, Note_on_c, 0, 55, 0
2, 222051, Note_on_c, 0, 63, 0
2, 222055, Note_on_c, 0, 55, 98
2, 222058, Note_on_c, 0, 43, 101
2, 222062, Note_on_c, 0, 67, 91
2, 222078, Control_c, 0, 64, 63
2, 222082, Control_c, 0, 64, 0
2, 222120, Control_c, 0, 64, 63
2, 222128, Control_c, 0, 64, 127
2, 222199, Note_on_c, 0, 65, 86
2, 222205, Note_on_c, 0, 59, 75
2, 222211, Note_on_c, 0, 43, 0
2, 222237, Note_on_c, 0, 55, 0
2, 222256, Note_on_c, 0, 59, 0
2, 222275, Note_on_c, 0, 65, 0
2, 222320, Note_on_c, 0, 65, 85
2, 222325, Note_on_c, 0, 59, 71
2, 222346, Note_on_c, 0, 67, 0
2, 222370, Note_on_c, 0, 59, 0
2, 222402, Note_on_c, 0, 65, 0
2, 222453, Note_on_c, 0, 50, 96
2, 222454, Note_on_c, 0, 62, 109
2, 222457, Note_on_c, 0, 65, 107
2, 222542, Note_on_c, 0, 62, 0
2, 222553, Note_on_c, 0, 50, 0
2, 222595, Note_on_c, 0, 56, 81
2, 222597, Note_on_c, 0, 59, 80
2, 222657, Note_on_c, 0, 56, 0
2, 222677, Note_on_c, 0, 59, 0
2, 222726, Note_on_c, 0, 55, 101
2, 222728, Note_on_c, 0, 43, 101
2, 222740, Note_on_c, 0, 56, 76
2, 222741, Note_on_c, 0, 59, 76
2, 222785, Note_on_c, 0, 65, 0
2, 222814, Note_on_c, 0, 43, 0
2, 222817, Note_on_c, 0, 56, 0
2, 222826, Note_on_c, 0, 55, 0
2, 222869, Note_on_c, 0, 59, 0
2, 222890, Note_on_c, 0, 63, 110
2, 222891, Note_on_c, 0, 55, 104
2, 222892, Note_on_c, 0, 43, 102
2, 222902, Control_c, 0, 64, 63
2, 222906, Control_c, 0, 64, 0
2, 222938, Control_c, 0, 64, 63
2, 222948, Control_c, 0, 64, 127
2, 223040, Note_on_c, 0, 55, 0
2, 223055, Note_on_c, 0, 60, 98
2, 223059, Note_on_c, 0, 57, 85
2, 223141, Note_on_c, 0, 57, 0
2, 223163, Note_on_c, 0, 60, 0
2, 223164, Note_on_c, 0, 43, 0
2, 223207, Note_on_c, 0, 60, 90
2, 223208, Note_on_c, 0, 57, 88
2, 223258, Note_on_c, 0, 57, 0
2, 223307, Note_on_c, 0, 60, 0
2, 223395, Note_on_c, 0, 54, 113
2, 223395, Note_on_c, 0, 66, 113
2, 223451, Note_on_c, 0, 63, 0
2, 223504, Note_on_c, 0, 54, 0
2, 223591, Note_on_c, 0, 57, 79
2, 223592, Note_on_c, 0, 63, 94
2, 223593, Note_on_c, 0, 60, 84
2, 223619, Note_on_c, 0, 66, 0
2, 223686, Note_on_c, 0, 57, 0
2, 223703, Note_on_c, 0, 60, 0
2, 223727, Note_on_c, 0, 63, 0
2, 223816, Note_on_c, 0, 55, 102
2, 223818, Note_on_c, 0, 43, 97
2, 223833, Note_on_c, 0, 63, 84
2, 223841, Note_on_c, 0, 60, 48
2, 223864, Note_on_c, 0, 60, 0
2, 223882, Note_on_c, 0, 63, 0
2, 224042, Note_on_c, 0, 43, 0
2, 224051, Note_on_c, 0, 55, 0
2, 224162, Note_on_c, 0, 55, 60
2, 224165, Note_on_c, 0, 43, 63
2, 224172, Note_on_c, 0, 67, 97
2, 224249, Control_c, 0, 64, 63
2, 224256, Control_c, 0, 64, 0
2, 224330, Control_c, 0, 64, 63
2, 224335, Control_c, 0, 64, 127
2, 224405, Note_on_c, 0, 64, 62
2, 224407, Note_on_c, 0, 60, 48
2, 224490, Note_on_c, 0, 64, 0
2, 224495, Note_on_c, 0, 60, 0
2, 224553, Note_on_c, 0, 64, 75
2, 224559, Note_on_c, 0, 60, 59
2, 224583, Note_on_c, 0, 55, 0
2, 224632, Note_on_c, 0, 60, 0
2, 224633, Note_on_c, 0, 67, 0
2, 224674, Note_on_c, 0, 57, 83
2, 224682, Note_on_c, 0, 69, 99
2, 224705, Note_on_c, 0, 64, 0
2, 224808, Note_on_c, 0, 64, 81
2, 224809, Note_on_c, 0, 60, 81
2, 224864, Note_on_c, 0, 60, 0
2, 224885, Note_on_c, 0, 64, 0
2, 224931, Note_on_c, 0, 57, 0
2, 224933, Note_on_c, 0, 64, 92
2, 224938, Note_on_c, 0, 60, 88
2, 225005, Note_on_c, 0, 60, 0
2, 225037, Note_on_c, 0, 64, 0
2, 225054, Note_on_c, 0, 67, 102
2, 225059, Note_on_c, 0, 55, 109
2, 225070, Note_on_c, 0, 69, 0
2, 225163, Note_on_c, 0, 43, 0
2, 225190, Note_on_c, 0, 64, 99
2, 225195, Note_on_c, 0, 60, 94
2, 225260, Note_on_c, 0, 60, 0
2, 225281, Note_on_c, 0, 64, 0
2, 225307, Note_on_c, 0, 64, 97
2, 225308, Note_on_c, 0, 60, 96
2, 225338, Note_on_c, 0, 67, 0
2, 225345, Note_on_c, 0, 60, 0
2, 225356, Note_on_c, 0, 64, 0
2, 225455, Note_on_c, 0, 60, 117
2, 225459, Note_on_c, 0, 72, 112
2, 225596, Note_on_c, 0, 67, 109
2, 225601, Note_on_c, 0, 64, 102
2, 225637, Note_on_c, 0, 64, 0
2, 225638, Note_on_c, 0, 72, 0
2, 225649, Note_on_c, 0, 67, 0
2, 225668, Note_on_c, 0, 60, 0
2, 225779, Note_on_c, 0, 76, 112
2, 225782, Note_on_c, 0, 64, 112
2, 225782, Note_on_c, 0, 72, 107
2, 225783, Note_on_c, 0, 67, 106
2, 225812, Note_on_c, 0, 67, 0
2, 225819, Note_on_c, 0, 72, 0
2, 225823, Note_on_c, 0, 64, 0
2, 225827, Note_on_c, 0, 55, 0
2, 225831, Note_on_c, 0, 76, 0
2, 225998, Note_on_c, 0, 57, 73
2, 226000, Note_on_c, 0, 43, 76
2, 226007, Note_on_c, 0, 81, 100
2, 226011, Note_on_c, 0, 76, 100
2, 226014, Note_on_c, 0, 73, 107
2, 226060, Control_c, 0, 64, 63
2, 226063, Control_c, 0, 64, 0
2, 226141, Control_c, 0, 64, 63
2, 226144, Control_c, 0, 64, 127
2, 226211, Note_on_c, 0, 69, 100
2, 226287, Note_on_c, 0, 81, 0
2, 226306, Note_on_c, 0, 76, 0
2, 226309, Note_on_c, 0, 73, 0
2, 226350, Note_on_c, 0, 73, 63
2, 226352, Note_on_c, 0, 76, 71
2, 226352, Note_on_c, 0, 81, 89
2, 226410, Note_on_c, 0, 69, 0
2, 226416, Note_on_c, 0, 57, 0
2, 226442, Note_on_c, 0, 81, 0
2, 226502, Note_on_c, 0, 55, 111
2, 226503, Note_on_c, 0, 76, 0
2, 226515, Note_on_c, 0, 70, 98
2, 226549, Note_on_c, 0, 73, 0
2, 226667, Note_on_c, 0, 73, 80
2, 226668, Note_on_c, 0, 82, 104
2, 226675, Note_on_c, 0, 76, 71
2, 226717, Note_on_c, 0, 70, 0
2, 226791, Note_on_c, 0, 82, 0
2, 226791, Note_on_c, 0, 70, 105
2, 226792, Note_on_c, 0, 55, 0
2, 226824, Note_on_c, 0, 76, 0
2, 226838, Note_on_c, 0, 73, 0
2, 226851, Note_on_c, 0, 70, 0
2, 226903, Note_on_c, 0, 53, 116
2, 226907, Note_on_c, 0, 81, 90
2, 226910, Note_on_c, 0, 76, 87
2, 226916, Note_on_c, 0, 73, 86
2, 226976, Control_c, 0, 64, 63
2, 226980, Control_c, 0, 64, 0
2, 227004, Control_c, 0, 64, 63
2, 227012, Control_c, 0, 64, 127
2, 227048, Note_on_c, 0, 69, 104
2, 227053, Note_on_c, 0, 81, 0
2, 227094, Note_on_c, 0, 76, 0
2, 227114, Note_on_c, 0, 73, 0
2, 227168, Note_on_c, 0, 73, 103
2, 227169, Note_on_c, 0, 76, 101
2, 227174, Note_on_c, 0, 81, 97
2, 227178, Note_on_c, 0, 69, 0
2, 227206, Note_on_c, 0, 53, 0
2, 227218, Note_on_c, 0, 76, 0
2, 227222, Note_on_c, 0, 73, 0
2, 227222, Note_on_c, 0, 81, 0
2, 227319, Note_on_c, 0, 73, 119
2, 227319, Note_on_c, 0, 52, 112
2, 227372, Note_on_c, 0, 73, 0
2, 227489, Note_on_c, 0, 85, 114
2, 227490, Note_on_c, 0, 81, 94
2, 227491, Note_on_c, 0, 76, 106
2, 227516, Note_on_c, 0, 76, 0
2, 227521, Note_on_c, 0, 81, 0
2, 227531, Note_on_c, 0, 85, 0
2, 227673, Note_on_c, 0, 81, 96
2, 227676, Note_on_c, 0, 85, 99
2, 227677, Note_on_c, 0, 76, 89
2, 227678, Note_on_c, 0, 88, 101
2, 227694, Note_on_c, 0, 81, 0
2, 227696, Note_on_c, 0, 76, 0
2, 227706, Note_on_c, 0, 85, 0
2, 227712, Note_on_c, 0, 88, 0
2, 227791, Note_on_c, 0, 43, 0
2, 227923, Note_on_c, 0, 50, 116
2, 227924, Note_on_c, 0, 43, 111
2, 227926, Note_on_c, 0, 93, 90
2, 227928, Note_on_c, 0, 86, 86
2, 227930, Note_on_c, 0, 89, 89
2, 227930, Note_on_c, 0, 81, 61
2, 227954, Control_c, 0, 64, 63
2, 227957, Note_on_c, 0, 52, 0
2, 227958, Control_c, 0, 64, 0
2, 227974, Note_on_c, 0, 81, 0
2, 228001, Control_c, 0, 64, 63
2, 228006, Control_c, 0, 64, 127
2, 228020, Note_on_c, 0, 81, 5
2, 228083, Note_on_c, 0, 81, 0
2, 228140, Note_on_c, 0, 81, 99
2, 228205, Note_on_c, 0, 86, 0
2, 228214, Note_on_c, 0, 93, 0
2, 228223, Note_on_c, 0, 89, 0
2, 228276, Note_on_c, 0, 86, 100
2, 228278, Note_on_c, 0, 89, 91
2, 228279, Note_on_c, 0, 93, 91
2, 228318, Note_on_c, 0, 81, 0
2, 228348, Note_on_c, 0, 93, 0
2, 228383, Note_on_c, 0, 89, 0
2, 228398, Note_on_c, 0, 86, 0
2, 228424, Note_on_c, 0, 52, 118
2, 228426, Note_on_c, 0, 77, 94
2, 228455, Note_on_c, 0, 50, 0
2, 228566, Note_on_c, 0, 77, 0
2, 228583, Note_on_c, 0, 89, 83
2, 228584, Note_on_c, 0, 81, 76
2, 228586, Note_on_c, 0, 86, 78
2, 228681, Note_on_c, 0, 89, 0
2, 228695, Note_on_c, 0, 77, 96
2, 228696, Note_on_c, 0, 86, 0
2, 228704, Note_on_c, 0, 81, 0
2, 228807, Note_on_c, 0, 77, 0
2, 228818, Note_on_c, 0, 50, 121
2, 228837, Note_on_c, 0, 86, 72
2, 228843, Note_on_c, 0, 81, 71
2, 228844, Note_on_c, 0, 77, 65
2, 228851, Note_on_c, 0, 52, 0
2, 228957, Note_on_c, 0, 74, 91
2, 229008, Note_on_c, 0, 86, 0
2, 229017, Note_on_c, 0, 81, 0
2, 229018, Note_on_c, 0, 77, 0
2, 229065, Note_on_c, 0, 81, 82
2, 229071, Note_on_c, 0, 77, 59
2, 229072, Note_on_c, 0, 86, 83
2, 229098, Note_on_c, 0, 74, 0
2, 229102, Note_on_c, 0, 86, 0
2, 229124, Note_on_c, 0, 81, 0
2, 229134, Note_on_c, 0, 77, 0
2, 229189, Note_on_c, 0, 69, 85
2, 229193, Note_on_c, 0, 52, 122
2, 229222, Note_on_c, 0, 50, 0
2, 229301, Note_on_c, 0, 69, 0
2, 229325, Note_on_c, 0, 77, 91
2, 229327, Note_on_c, 0, 74, 82
2, 229329, Note_on_c, 0, 81, 93
2, 229390, Note_on_c, 0, 52, 0
2, 229417, Note_on_c, 0, 81, 0
2, 229442, Note_on_c, 0, 53, 120
2, 229446, Note_on_c, 0, 69, 94
2, 229456, Note_on_c, 0, 77, 0
2, 229485, Note_on_c, 0, 74, 0
2, 229524, Note_on_c, 0, 43, 0
2, 229545, Note_on_c, 0, 53, 0
2, 229580, Note_on_c, 0, 55, 107
2, 229585, Note_on_c, 0, 79, 91
2, 229586, Note_on_c, 0, 74, 89
2, 229586, Note_on_c, 0, 43, 98
2, 229588, Note_on_c, 0, 77, 86
2, 229601, Control_c, 0, 64, 63
2, 229606, Control_c, 0, 64, 0
2, 229616, Note_on_c, 0, 69, 0
2, 229660, Control_c, 0, 64, 63
2, 229664, Control_c, 0, 64, 127
2, 229722, Note_on_c, 0, 67, 87
2, 229734, Note_on_c, 0, 79, 0
2, 229779, Note_on_c, 0, 74, 0
2, 229781, Note_on_c, 0, 77, 0
2, 229843, Note_on_c, 0, 74, 94
2, 229844, Note_on_c, 0, 79, 91
2, 229847, Note_on_c, 0, 77, 87
2, 229874, Note_on_c, 0, 67, 0
2, 229934, Note_on_c, 0, 55, 0
2, 229962, Note_on_c, 0, 69, 94
2, 229963, Note_on_c, 0, 53, 116
2, 229973, Note_on_c, 0, 79, 0
2, 230002, Note_on_c, 0, 77, 0
2, 230004, Note_on_c, 0, 74, 0
2, 230085, Note_on_c, 0, 74, 85
2, 230086, Note_on_c, 0, 77, 80
2, 230086, Note_on_c, 0, 81, 91
2, 230124, Note_on_c, 0, 69, 0
2, 230196, Note_on_c, 0, 81, 0
2, 230203, Note_on_c, 0, 69, 91
2, 230248, Note_on_c, 0, 74, 0
2, 230316, Note_on_c, 0, 79, 91
2, 230318, Note_on_c, 0, 52, 118
2, 230322, Note_on_c, 0, 74, 86
2, 230329, Note_on_c, 0, 77, 0
2, 230352, Note_on_c, 0, 53, 0
2, 230353, Note_on_c, 0, 69, 0
2, 230355, Control_c, 0, 64, 63
2, 230361, Control_c, 0, 64, 0
2, 230378, Control_c, 0, 64, 63
2, 230389, Control_c, 0, 64, 127
2, 230441, Note_on_c, 0, 67, 84
2, 230476, Note_on_c, 0, 79, 0
2, 230484, Note_on_c, 0, 74, 0
2, 230550, Note_on_c, 0, 74, 90
2, 230555, Note_on_c, 0, 79, 83
2, 230577, Note_on_c, 0, 67, 0
2, 230664, Note_on_c, 0, 74, 0
2, 230670, Note_on_c, 0, 79, 0
2, 230680, Note_on_c, 0, 50, 122
2, 230687, Note_on_c, 0, 71, 87
2, 230711, Note_on_c, 0, 52, 0
2, 230787, Note_on_c, 0, 71, 0
2, 230824, Note_on_c, 0, 83, 99
2, 230825, Note_on_c, 0, 79, 93
2, 230860, Note_on_c, 0, 79, 0
2, 230865, Note_on_c, 0, 83, 0
2, 230975, Note_on_c, 0, 83, 100
2, 230978, Note_on_c, 0, 86, 104
2, 230978, Note_on_c, 0, 74, 100
2, 230996, Note_on_c, 0, 74, 0
2, 231009, Note_on_c, 0, 83, 0
2, 231013, Note_on_c, 0, 43, 0
2, 231020, Note_on_c, 0, 86, 0
2, 231142, Note_on_c, 0, 50, 0
2, 231163, Note_on_c, 0, 48, 121
2, 231165, Note_on_c, 0, 91, 93
2, 231166, Note_on_c, 0, 43, 106
2, 231168, Note_on_c, 0, 84, 86
2, 231169, Note_on_c, 0, 88, 86
2, 231174, Control_c, 0, 64, 63
2, 231179, Control_c, 0, 64, 0
2, 231240, Control_c, 0, 64, 63
2, 231243, Control_c, 0, 64, 127
2, 231330, Note_on_c, 0, 79, 84
2, 231363, Note_on_c, 0, 84, 0
2, 231399, Note_on_c, 0, 91, 0
2, 231416, Note_on_c, 0, 88, 0
2, 231449, Note_on_c, 0, 88, 93
2, 231452, Note_on_c, 0, 91, 100
2, 231486, Note_on_c, 0, 79, 0
2, 231529, Note_on_c, 0, 91, 0
2, 231575, Note_on_c, 0, 50, 116
2, 231577, Note_on_c, 0, 88, 0
2, 231587, Note_on_c, 0, 76, 80
2, 231609, Note_on_c, 0, 48, 0
2, 231669, Note_on_c, 0, 76, 0
2, 231702, Note_on_c, 0, 88, 92
2, 231708, Note_on_c, 0, 84, 91
2, 231799, Note_on_c, 0, 88, 0
2, 231813, Note_on_c, 0, 76, 100
2, 231828, Note_on_c, 0, 84, 0
2, 231929, Note_on_c, 0, 48, 118
2, 231937, Note_on_c, 0, 79, 90
2, 231937, Note_on_c, 0, 84, 94
2, 231954, Note_on_c, 0, 76, 0
2, 231960, Note_on_c, 0, 50, 0
2, 232052, Note_on_c, 0, 72, 93
2, 232056, Note_on_c, 0, 84, 0
2, 232100, Note_on_c, 0, 79, 0
2, 232153, Note_on_c, 0, 79, 94
2, 232155, Note_on_c, 0, 84, 94
2, 232182, Note_on_c, 0, 72, 0
2, 232197, Note_on_c, 0, 84, 0
2, 232206, Note_on_c, 0, 79, 0
2, 232268, Note_on_c, 0, 67, 91
2, 232268, Note_on_c, 0, 50, 121
2, 232296, Note_on_c, 0, 48, 0
2, 232379, Note_on_c, 0, 67, 0
2, 232387, Note_on_c, 0, 79, 82
2, 232388, Note_on_c, 0, 76, 85
2, 232469, Note_on_c, 0, 79, 0
2, 232483, Note_on_c, 0, 52, 120
2, 232487, Note_on_c, 0, 50, 0
2, 232490, Note_on_c, 0, 67, 98
2, 232537, Note_on_c, 0, 76, 0
2, 232567, Note_on_c, 0, 43, 0
2, 232568, Note_on_c, 0, 52, 0
2, 232593, Control_c, 0, 64, 63
2, 232597, Note_on_c, 0, 67, 0
2, 232598, Control_c, 0, 64, 0
2, 232604, Note_on_c, 0, 55, 108
2, 232604, Note_on_c, 0, 53, 112
2, 232605, Note_on_c, 0, 77, 104
2, 232606, Note_on_c, 0, 43, 107
2, 232606, Note_on_c, 0, 72, 103
2, 232609, Note_on_c, 0, 76, 91
2, 232644, Note_on_c, 0, 55, 0
2, 232655, Control_c, 0, 64, 63
2, 232658, Control_c, 0, 64, 127
2, 232728, Note_on_c, 0, 65, 102
2, 232729, Note_on_c, 0, 77, 0
2, 232764, Note_on_c, 0, 76, 0
2, 232783, Note_on_c, 0, 72, 0
2, 232828, Note_on_c, 0, 65, 0
2, 232836, Note_on_c, 0, 72, 97
2, 232836, Note_on_c, 0, 77, 97
2, 232843, Note_on_c, 0, 76, 79
2, 232878, Note_on_c, 0, 53, 0
2, 232936, Note_on_c, 0, 52, 120
2, 232942, Note_on_c, 0, 77, 0
2, 232942, Note_on_c, 0, 67, 103
2, 232950, Note_on_c, 0, 76, 0
2, 232967, Note_on_c, 0, 72, 0
2, 233060, Note_on_c, 0, 76, 99
2, 233063, Note_on_c, 0, 79, 99
2, 233065, Note_on_c, 0, 52, 0
2, 233094, Note_on_c, 0, 67, 0
2, 233157, Note_on_c, 0, 79, 0
2, 233166, Note_on_c, 0, 67, 106
2, 233230, Note_on_c, 0, 76, 0
2, 233270, Note_on_c, 0, 67, 0
2, 233279, Note_on_c, 0, 50, 125
2, 233281, Note_on_c, 0, 77, 113
2, 233285, Note_on_c, 0, 72, 102
2, 233389, Note_on_c, 0, 77, 0
2, 233404, Note_on_c, 0, 65, 108
2, 233455, Note_on_c, 0, 72, 0
2, 233506, Note_on_c, 0, 65, 0
2, 233513, Note_on_c, 0, 50, 0
2, 233518, Note_on_c, 0, 72, 106
2, 233519, Note_on_c, 0, 77, 106
2, 233565, Note_on_c, 0, 72, 0
2, 233575, Note_on_c, 0, 77, 0
2, 233638, Note_on_c, 0, 48, 122
2, 233644, Note_on_c, 0, 69, 108
2, 233723, Note_on_c, 0, 69, 0
2, 233774, Note_on_c, 0, 81, 106
2, 233777, Note_on_c, 0, 77, 100
2, 233811, Note_on_c, 0, 77, 0
2, 233816, Note_on_c, 0, 81, 0
2, 233932, Note_on_c, 0, 72, 106
2, 233932, Note_on_c, 0, 81, 101
2, 233933, Note_on_c, 0, 84, 102
2, 233959, Note_on_c, 0, 72, 0
2, 233964, Note_on_c, 0, 81, 0
2, 233968, Note_on_c, 0, 43, 0
2, 233968, Note_on_c, 0, 48, 0
2, 233976, Note_on_c, 0, 84, 0
2, 234127, Control_c, 0, 64, 63
2, 234133, Control_c, 0, 64, 0
2, 234155, Note_on_c, 0, 89, 111
2, 234157, Note_on_c, 0, 43, 111
2, 234158, Note_on_c, 0, 86, 108
2, 234159, Note_on_c, 0, 50, 111
2, 234187, Control_c, 0, 64, 63
2, 234188, Control_c, 0, 64, 127
2, 234339, Note_on_c, 0, 43, 0
2, 234342, Note_on_c, 0, 55, 116
2, 234345, Note_on_c, 0, 77, 113
2, 234359, Note_on_c, 0, 50, 0
2, 234387, Note_on_c, 0, 86, 0
2, 234394, Note_on_c, 0, 89, 0
2, 234427, Note_on_c, 0, 55, 0
2, 234473, Note_on_c, 0, 62, 108
2, 234473, Note_on_c, 0, 59, 100
2, 234475, Note_on_c, 0, 86, 108
2, 234476, Note_on_c, 0, 89, 106
2, 234504, Note_on_c, 0, 77, 0
2, 234597, Note_on_c, 0, 62, 0
2, 234602, Note_on_c, 0, 65, 116
2, 234619, Note_on_c, 0, 77, 118
2, 234639, Note_on_c, 0, 59, 0
2, 234653, Note_on_c, 0, 89, 0
2, 234664, Note_on_c, 0, 86, 0
2, 234732, Note_on_c, 0, 89, 101
2, 234733, Note_on_c, 0, 86, 102
2, 234734, Note_on_c, 0, 62, 100
2, 234739, Note_on_c, 0, 59, 84
2, 234741, Note_on_c, 0, 65, 0
2, 234765, Note_on_c, 0, 62, 0
2, 234766, Note_on_c, 0, 77, 0
2, 234780, Note_on_c, 0, 59, 0
2, 234833, Note_on_c, 0, 89, 0
2, 234845, Note_on_c, 0, 55, 99
2, 234846, Note_on_c, 0, 86, 0
2, 234848, Note_on_c, 0, 77, 101
2, 234891, Note_on_c, 0, 77, 0
2, 234919, Control_c, 0, 64, 63
2, 234921, Control_c, 0, 64, 0
2, 234949, Note_on_c, 0, 55, 0
2, 234955, Note_on_c, 0, 50, 122
2, 234957, Note_on_c, 0, 43, 118
2, 234959, Note_on_c, 0, 90, 115
2, 234962, Note_on_c, 0, 86, 103
2, 234973, Control_c, 0, 64, 63
2, 234975, Control_c, 0, 64, 127
2, 235060, Note_on_c, 0, 43, 0
2, 235068, Note_on_c, 0, 55, 102
2, 235078, Note_on_c, 0, 78, 115
2, 235081, Note_on_c, 0, 50, 0
2, 235108, Note_on_c, 0, 90, 0
2, 235111, Note_on_c, 0, 55, 0
2, 235119, Note_on_c, 0, 86, 0
2, 235172, Note_on_c, 0, 78, 0
2, 235176, Note_on_c, 0, 59, 102
2, 235177, Note_on_c, 0, 62, 106
2, 235179, Note_on_c, 0, 90, 112
2, 235183, Note_on_c, 0, 86, 97
2, 235225, Note_on_c, 0, 62, 0
2, 235228, Note_on_c, 0, 59, 0
2, 235282, Note_on_c, 0, 66, 124
2, 235289, Note_on_c, 0, 78, 118
2, 235313, Note_on_c, 0, 90, 0
2, 235334, Note_on_c, 0, 86, 0
2, 235340, Note_on_c, 0, 66, 0
2, 235391, Note_on_c, 0, 90, 109
2, 235394, Note_on_c, 0, 62, 103
2, 235395, Note_on_c, 0, 86, 96
2, 235397, Note_on_c, 0, 59, 98
2, 235410, Note_on_c, 0, 78, 0
2, 235436, Note_on_c, 0, 62, 0
2, 235451, Note_on_c, 0, 59, 0
2, 235494, Note_on_c, 0, 90, 0
2, 235496, Note_on_c, 0, 78, 114
2, 235504, Note_on_c, 0, 55, 92
2, 235532, Note_on_c, 0, 86, 0
2, 235546, Note_on_c, 0, 78, 0
2, 235566, Note_on_c, 0, 55, 0
2, 235577, Control_c, 0, 64, 63
2, 235582, Control_c, 0, 64, 0
2, 235613, Note_on_c, 0, 50, 124
2, 235614, Note_on_c, 0, 43, 122
2, 235616, Note_on_c, 0, 86, 114
2, 235618, Note_on_c, 0, 91, 111
2, 235630, Control_c, 0, 64, 63
2, 235633, Control_c, 0, 64, 127
2, 235715, Note_on_c, 0, 91, 0
2, 235720, Note_on_c, 0, 43, 0
2, 235728, Note_on_c, 0, 55, 107
2, 235741, Note_on_c, 0, 50, 0
2, 235742, Note_on_c, 0, 79, 113
2, 235771, Note_on_c, 0, 55, 0
2, 235800, Note_on_c, 0, 86, 0
2, 235815, Note_on_c, 0, 79, 0
2, 235844, Note_on_c, 0, 59, 103
2, 235845, Note_on_c, 0, 62, 111
2, 235850, Note_on_c, 0, 91, 102
2, 235851, Note_on_c, 0, 86, 100
2, 235857, Note_on_c, 0, 87, 72
2, 235915, Note_on_c, 0, 87, 0
2, 235925, Note_on_c, 0, 91, 0
2, 235945, Note_on_c, 0, 62, 0
2, 235963, Note_on_c, 0, 67, 118
2, 235968, Note_on_c, 0, 79, 116
2, 236019, Note_on_c, 0, 59, 0
2, 236026, Note_on_c, 0, 86, 0
2, 236060, Note_on_c, 0, 79, 0
2, 236075, Note_on_c, 0, 67, 0
2, 236088, Note_on_c, 0, 91, 108
2, 236089, Note_on_c, 0, 86, 106
2, 236093, Note_on_c, 0, 62, 117
2, 236096, Note_on_c, 0, 59, 99
2, 236144, Note_on_c, 0, 62, 0
2, 236157, Note_on_c, 0, 91, 0
2, 236158, Note_on_c, 0, 59, 0
2, 236224, Note_on_c, 0, 86, 0
2, 236224, Note_on_c, 0, 79, 106
2, 236232, Note_on_c, 0, 55, 101
2, 236263, Note_on_c, 0, 79, 0
2, 236322, Note_on_c, 0, 55, 0
2, 236359, Control_c, 0, 64, 63
2, 236364, Control_c, 0, 64, 0
2, 236381, Note_on_c, 0, 50, 125
2, 236382, Note_on_c, 0, 43, 121
2, 236385, Note_on_c, 0, 95, 116
2, 236387, Note_on_c, 0, 91, 109
2, 236387, Note_on_c, 0, 89, 108
2, 236404, Control_c, 0, 64, 63
2, 236408, Control_c, 0, 64, 127
2, 236504, Note_on_c, 0, 95, 0
2, 236528, Note_on_c, 0, 43, 0
2, 236535, Note_on_c, 0, 55, 113
2, 236539, Note_on_c, 0, 83, 108
2, 236543, Note_on_c, 0, 50, 0
2, 236570, Note_on_c, 0, 55, 0
2, 236570, Note_on_c, 0, 91, 0
2, 236577, Note_on_c, 0, 89, 0
2, 236608, Note_on_c, 0, 83, 0
2, 236677, Note_on_c, 0, 95, 117
2, 236681, Note_on_c, 0, 62, 112
2, 236682, Note_on_c, 0, 59, 104
2, 236682, Note_on_c, 0, 91, 104
2, 236683, Note_on_c, 0, 89, 111
2, 236781, Note_on_c, 0, 95, 0
2, 236855, Note_on_c, 0, 62, 0
2, 236886, Note_on_c, 0, 83, 111
2, 236890, Note_on_c, 0, 62, 74
2, 236901, Note_on_c, 0, 71, 99
2, 236904, Note_on_c, 0, 62, 0
2, 236926, Note_on_c, 0, 91, 0
2, 236939, Note_on_c, 0, 59, 0
2, 236942, Note_on_c, 0, 89, 0
2, 237061, Note_on_c, 0, 83, 0
2, 237065, Note_on_c, 0, 71, 0
2, 237088, Note_on_c, 0, 95, 112
2, 237089, Note_on_c, 0, 91, 106
2, 237090, Note_on_c, 0, 89, 103
2, 237092, Note_on_c, 0, 59, 113
2, 237094, Note_on_c, 0, 62, 114
2, 237178, Note_on_c, 0, 62, 0
2, 237198, Note_on_c, 0, 59, 0
2, 237330, Note_on_c, 0, 95, 0
2, 237362, Note_on_c, 0, 55, 121
2, 237367, Note_on_c, 0, 83, 109
2, 237397, Note_on_c, 0, 89, 0
2, 237398, Note_on_c, 0, 91, 0
2, 237402, Note_on_c, 0, 83, 0
2, 237414, Note_on_c, 0, 55, 0
2, 237574, Control_c, 0, 64, 63
2, 237580, Control_c, 0, 64, 0
2, 237661, Note_on_c, 0, 36, 106
2, 237663, Note_on_c, 0, 48, 124
2, 237664, Note_on_c, 0, 96, 122
2, 237667, Note_on_c, 0, 91, 117
2, 237668, Note_on_c, 0, 88, 118
2, 237680, Control_c, 0, 64, 127
2, 237691, Note_on_c, 0, 88, 0
2, 237691, Note_on_c, 0, 36, 0
2, 237692, Note_on_c, 0, 91, 0
2, 237695, Note_on_c, 0, 96, 0
2, 237701, Note_on_c, 0, 48, 0
2, 237854, Note_on_c, 0, 52, 121
2, 237855, Note_on_c, 0, 60, 126
2, 237856, Note_on_c, 0, 55, 113
2, 237857, Note_on_c, 0, 72, 118
2, 237862, Note_on_c, 0, 64, 111
2, 237862, Note_on_c, 0, 67, 108
2, 237878, Note_on_c, 0, 67, 0
2, 237884, Note_on_c, 0, 64, 0
2, 237887, Note_on_c, 0, 72, 0
2, 238364, Note_on_c, 0, 60, 0
2, 238369, Note_on_c, 0, 52, 0
2, 238371, Note_on_c, 0, 55, 0
2, 238510, Note_on_c, 0, 74, 112
2, 238511, Note_on_c, 0, 62, 125
2, 238513, Note_on_c, 0, 67, 111
2, 238514, Note_on_c, 0, 55, 111
2, 238514, Note_on_c, 0, 65, 114
2, 238515, Note_on_c, 0, 53, 112
2, 238543, Note_on_c, 0, 65, 0
2, 238543, Note_on_c, 0, 67, 0
2, 238546, Note_on_c, 0, 74, 0
2, 238823, Note_on_c, 0, 62, 0
2, 238843, Note_on_c, 0, 55, 0
2, 238865, Note_on_c, 0, 53, 0
2, 239045, Note_on_c, 0, 52, 108
2, 239046, Note_on_c, 0, 55, 104
2, 239047, Note_on_c, 0, 72, 121
2, 239047, Note_on_c, 0, 60, 113
2, 239052, Note_on_c, 0, 67, 113
2, 239054, Note_on_c, 0, 64, 107
2, 239081, Note_on_c, 0, 64, 0
2, 239086, Note_on_c, 0, 60, 0
2, 239103, Note_on_c, 0, 67, 0
2, 239105, Note_on_c, 0, 72, 0
2, 239109, Note_on_c, 0, 55, 0
2, 239124, Note_on_c, 0, 52, 0
2, 239139, Note_on_c, 0, 59, 122
2, 239139, Note_on_c, 0, 71, 117
2, 239140, Note_on_c, 0, 50, 117
2, 239141, Note_on_c, 0, 55, 107
2, 239141, Note_on_c, 0, 67, 113
2, 239146, Note_on_c, 0, 62, 120
2, 239250, Control_c, 0, 64, 63
2, 239256, Control_c, 0, 64, 0
2, 239310, Control_c, 0, 64, 63
2, 239314, Control_c, 0, 64, 127
2, 239434, Note_on_c, 0, 62, 0
2, 239452, Note_on_c, 0, 67, 0
2, 239460, Note_on_c, 0, 71, 0
2, 239707, Note_on_c, 0, 59, 0
2, 239713, Note_on_c, 0, 55, 0
2, 239727, Note_on_c, 0, 50, 0
2, 239842, Note_on_c, 0, 72, 124
2, 239844, Note_on_c, 0, 60, 122
2, 239844, Note_on_c, 0, 55, 112
2, 239845, Note_on_c, 0, 67, 120
2, 239845, Note_on_c, 0, 52, 111
2, 239847, Note_on_c, 0, 64, 116
2, 239898, Control_c, 0, 64, 63
2, 239903, Control_c, 0, 64, 0
2, 239922, Control_c, 0, 64, 63
2, 239929, Control_c, 0, 64, 127
2, 240034, Note_on_c, 0, 64, 0
2, 240047, Note_on_c, 0, 60, 0
2, 240052, Note_on_c, 0, 72, 0
2, 240066, Note_on_c, 0, 67, 0
2, 240114, Note_on_c, 0, 55, 0
2, 240122, Note_on_c, 0, 52, 0
2, 240438, Note_on_c, 0, 50, 111
2, 240438, Note_on_c, 0, 71, 114
2, 240439, Note_on_c, 0, 59, 112
2, 240441, Note_on_c, 0, 55, 101
2, 240442, Note_on_c, 0, 67, 108
2, 240442, Note_on_c, 0, 62, 113
2, 240479, Note_on_c, 0, 59, 0
2, 240480, Note_on_c, 0, 62, 0
2, 240496, Note_on_c, 0, 55, 0
2, 240496, Note_on_c, 0, 50, 0
2, 240497, Note_on_c, 0, 71, 0
2, 240499, Note_on_c, 0, 67, 0
2, 240531, Note_on_c, 0, 57, 111
2, 240532, Note_on_c, 0, 69, 116
2, 240532, Note_on_c, 0, 48, 113
2, 240533, Note_on_c, 0, 67, 112
2, 240533, Note_on_c, 0, 55, 97
2, 240534, Note_on_c, 0, 64, 114
2, 240538, Note_on_c, 0, 53, 91
2, 240572, Note_on_c, 0, 53, 0
2, 240584, Control_c, 0, 64, 63
2, 240590, Control_c, 0, 64, 0
2, 240664, Control_c, 0, 64, 63
2, 240674, Control_c, 0, 64, 127
2, 240749, Control_c, 0, 64, 63
2, 240752, Control_c, 0, 64, 0
2, 240865, Control_c, 0, 64, 63
2, 240867, Control_c, 0, 64, 127
2, 241005, Note_on_c, 0, 64, 0
2, 241041, Note_on_c, 0, 69, 0
2, 241045, Note_on_c, 0, 67, 0
2, 241135, Note_on_c, 0, 48, 0
2, 241143, Note_on_c, 0, 57, 0
2, 241203, Note_on_c, 0, 55, 0
2, 241269, Note_on_c, 0, 71, 120
2, 241271, Note_on_c, 0, 59, 117
2, 241271, Note_on_c, 0, 50, 114
2, 241272, Note_on_c, 0, 66, 121
2, 241275, Note_on_c, 0, 62, 109
2, 241341, Control_c, 0, 64, 63
2, 241346, Control_c, 0, 64, 0
2, 241404, Control_c, 0, 64, 63
2, 241408, Control_c, 0, 64, 127
2, 241619, Note_on_c, 0, 62, 0
2, 241620, Note_on_c, 0, 71, 0
2, 241633, Note_on_c, 0, 66, 0
2, 241640, Note_on_c, 0, 59, 0
2, 241773, Note_on_c, 0, 50, 0
2, 241992, Note_on_c, 0, 69, 113
2, 241993, Note_on_c, 0, 57, 107
2, 241998, Note_on_c, 0, 60, 107
2, 242031, Note_on_c, 0, 60, 0
2, 242039, Note_on_c, 0, 69, 0
2, 242053, Note_on_c, 0, 57, 0
2, 242097, Note_on_c, 0, 55, 106
2, 242099, Note_on_c, 0, 67, 112
2, 242102, Note_on_c, 0, 43, 99
2, 242102, Note_on_c, 0, 62, 108
2, 242104, Note_on_c, 0, 59, 104
2, 242156, Control_c, 0, 64, 63
2, 242161, Control_c, 0, 64, 0
2, 242307, Control_c, 0, 64, 63
2, 242310, Control_c, 0, 64, 127
2, 242647, Note_on_c, 0, 67, 0
2, 242666, Note_on_c, 0, 55, 0
2, 242736, Note_on_c, 0, 65, 112
2, 242748, Note_on_c, 0, 53, 106
2, 243318, Note_on_c, 0, 62, 0
2, 243348, Note_on_c, 0, 59, 0
2, 243351, Note_on_c, 0, 53, 0
2, 243420, Note_on_c, 0, 52, 107
2, 243421, Note_on_c, 0, 64, 111
2, 243423, Note_on_c, 0, 44, 100
2, 243424, Note_on_c, 0, 59, 102
2, 243424, Note_on_c, 0, 62, 106
2, 243452, Note_on_c, 0, 65, 0
2, 243456, Note_on_c, 0, 43, 0
2, 243562, Control_c, 0, 64, 63
2, 243576, Control_c, 0, 64, 0
2, 243624, Control_c, 0, 64, 63
2, 243639, Control_c, 0, 64, 127
2, 243834, Note_on_c, 0, 59, 0
2, 243914, Note_on_c, 0, 62, 0
2, 243969, Note_on_c, 0, 52, 0
2, 243973, Note_on_c, 0, 64, 0
2, 244003, Note_on_c, 0, 44, 0
2, 244199, Note_on_c, 0, 65, 109
2, 244201, Note_on_c, 0, 53, 102
2, 244201, Note_on_c, 0, 43, 93
2, 244201, Note_on_c, 0, 61, 109
2, 244206, Note_on_c, 0, 57, 89
2, 244317, Control_c, 0, 64, 63
2, 244326, Control_c, 0, 64, 0
2, 244384, Control_c, 0, 64, 63
2, 244391, Control_c, 0, 64, 127
2, 244501, Note_on_c, 0, 65, 0
2, 244513, Note_on_c, 0, 53, 0
2, 244559, Note_on_c, 0, 61, 0
2, 244572, Note_on_c, 0, 57, 0
2, 244612, Note_on_c, 0, 64, 117
2, 244623, Note_on_c, 0, 52, 103
2, 244718, Note_on_c, 0, 64, 0
2, 244772, Note_on_c, 0, 52, 0
2, 244853, Note_on_c, 0, 50, 79
2, 244857, Note_on_c, 0, 69, 107
2, 244860, Note_on_c, 0, 41, 76
2, 244862, Note_on_c, 0, 57, 90
2, 244866, Note_on_c, 0, 62, 96
2, 244897, Note_on_c, 0, 43, 0
2, 245002, Control_c, 0, 64, 63
2, 245015, Control_c, 0, 64, 0
2, 245158, Control_c, 0, 64, 63
2, 245158, Control_c, 0, 64, 127
2, 245301, Note_on_c, 0, 69, 0
2, 245346, Note_on_c, 0, 62, 0
2, 245361, Note_on_c, 0, 57, 0
2, 245415, Note_on_c, 0, 41, 0
2, 245421, Note_on_c, 0, 50, 0
2, 245536, Note_on_c, 0, 62, 114
2, 245543, Note_on_c, 0, 57, 98
2, 245550, Note_on_c, 0, 50, 104
2, 245552, Note_on_c, 0, 41, 97
2, 245707, Control_c, 0, 64, 63
2, 245716, Control_c, 0, 64, 0
2, 245772, Control_c, 0, 64, 63
2, 245781, Control_c, 0, 64, 127
2, 245876, Note_on_c, 0, 57, 0
2, 245933, Note_on_c, 0, 62, 0
2, 245961, Note_on_c, 0, 50, 0
2, 246094, Note_on_c, 0, 41, 0
2, 246103, Note_on_c, 0, 52, 102
2, 246103, Note_on_c, 0, 64, 109
2, 246108, Note_on_c, 0, 61, 110
2, 246108, Note_on_c, 0, 40, 93
2, 246114, Note_on_c, 0, 55, 79
2, 246153, Control_c, 0, 64, 63
2, 246159, Control_c, 0, 64, 0
2, 246188, Control_c, 0, 64, 63
2, 246196, Control_c, 0, 64, 127
2, 246257, Note_on_c, 0, 55, 0
2, 246260, Note_on_c, 0, 64, 0
2, 246278, Note_on_c, 0, 61, 0
2, 246298, Note_on_c, 0, 52, 0
2, 246318, Note_on_c, 0, 40, 0
2, 246423, Note_on_c, 0, 65, 104
2, 246423, Note_on_c, 0, 50, 106
2, 246427, Note_on_c, 0, 38, 98
2, 246428, Note_on_c, 0, 62, 106
2, 246428, Note_on_c, 0, 53, 99
2, 246493, Control_c, 0, 64, 63
2, 246505, Control_c, 0, 64, 0
2, 246659, Control_c, 0, 64, 63
2, 246662, Control_c, 0, 64, 127
2, 246868, Note_on_c, 0, 65, 0
2, 246892, Note_on_c, 0, 53, 0
2, 246975, Note_on_c, 0, 62, 0
2, 247186, Note_on_c, 0, 38, 0
2, 247193, Note_on_c, 0, 50, 0
2, 247494, Note_on_c, 0, 59, 106
2, 247495, Note_on_c, 0, 50, 93
2, 247497, Note_on_c, 0, 43, 83
2, 247499, Note_on_c, 0, 53, 89
2, 247598, Control_c, 0, 64, 63
2, 247613, Control_c, 0, 64, 0
2, 247697, Control_c, 0, 64, 63
2, 247709, Control_c, 0, 64, 127
2, 248411, Note_on_c, 0, 53, 0
2, 248443, Note_on_c, 0, 50, 0
2, 248446, Note_on_c, 0, 43, 0
2, 248621, Note_on_c, 0, 43, 71
2, 248623, Note_on_c, 0, 60, 107
2, 248630, Note_on_c, 0, 36, 60
2, 248631, Note_on_c, 0, 52, 85
2, 248659, Note_on_c, 0, 59, 0
2, 248772, Control_c, 0, 64, 63
2, 248785, Control_c, 0, 64, 0
2, 248855, Control_c, 0, 64, 63
2, 248863, Control_c, 0, 64, 127
2, 248958, Note_on_c, 0, 48, 94
2, 249096, Note_on_c, 0, 52, 0
2, 249178, Note_on_c, 0, 52, 78
2, 249363, Note_on_c, 0, 55, 73
2, 249438, Note_on_c, 0, 52, 0
2, 249519, Note_on_c, 0, 52, 74
2, 249526, Note_on_c, 0, 48, 0
2, 249677, Note_on_c, 0, 48, 73
2, 249728, Note_on_c, 0, 52, 0
2, 249750, Note_on_c, 0, 43, 0
2, 249752, Note_on_c, 0, 55, 0
2, 249759, Note_on_c, 0, 60, 0
2, 249769, Note_on_c, 0, 36, 0
2, 249880, Note_on_c, 0, 43, 52
2, 249894, Note_on_c, 0, 36, 54
2, 249936, Note_on_c, 0, 67, 93
2, 250047, Control_c, 0, 64, 63
2, 250054, Control_c, 0, 64, 0
2, 250084, Control_c, 0, 64, 63
2, 250094, Control_c, 0, 64, 127
2, 250125, Note_on_c, 0, 48, 0
2, 250232, Note_on_c, 0, 50, 49
2, 250240, Note_on_c, 0, 36, 0
2, 250284, Note_on_c, 0, 43, 0
2, 250398, Note_on_c, 0, 59, 45
2, 250401, Note_on_c, 0, 62, 59
2, 250411, Note_on_c, 0, 53, 34
2, 250417, Note_on_c, 0, 50, 0
2, 250496, Note_on_c, 0, 67, 0
2, 250569, Note_on_c, 0, 55, 51
2, 250590, Note_on_c, 0, 69, 89
2, 250591, Note_on_c, 0, 53, 0
2, 250659, Note_on_c, 0, 62, 0
2, 250726, Note_on_c, 0, 59, 0
2, 250748, Note_on_c, 0, 53, 72
2, 250771, Note_on_c, 0, 55, 0
2, 250797, Note_on_c, 0, 53, 0
2, 250878, Note_on_c, 0, 62, 82
2, 250880, Note_on_c, 0, 50, 73
2, 250880, Note_on_c, 0, 59, 76
2, 250938, Note_on_c, 0, 69, 0
2, 250943, Note_on_c, 0, 59, 0
2, 250955, Note_on_c, 0, 67, 98
2, 250967, Note_on_c, 0, 62, 0
2, 251012, Note_on_c, 0, 50, 0
2, 251032, Note_on_c, 0, 67, 0
2, 251052, Note_on_c, 0, 36, 51
2, 251060, Note_on_c, 0, 43, 38
2, 251069, Note_on_c, 0, 67, 93
2, 251127, Control_c, 0, 64, 63
2, 251134, Control_c, 0, 64, 0
2, 251167, Control_c, 0, 64, 63
2, 251177, Control_c, 0, 64, 127
2, 251217, Note_on_c, 0, 48, 75
2, 251224, Note_on_c, 0, 36, 0
2, 251255, Note_on_c, 0, 43, 0
2, 251326, Note_on_c, 0, 64, 71
2, 251327, Note_on_c, 0, 60, 66
2, 251330, Note_on_c, 0, 48, 0
2, 251336, Note_on_c, 0, 52, 71
2, 251344, Note_on_c, 0, 67, 0
2, 251457, Note_on_c, 0, 60, 0
2, 251478, Note_on_c, 0, 55, 42
2, 251479, Note_on_c, 0, 72, 99
2, 251488, Note_on_c, 0, 52, 0
2, 251507, Note_on_c, 0, 64, 0
2, 251616, Note_on_c, 0, 52, 67
2, 251620, Note_on_c, 0, 55, 0
2, 251660, Note_on_c, 0, 52, 0
2, 251749, Note_on_c, 0, 48, 51
2, 251751, Note_on_c, 0, 64, 69
2, 251753, Note_on_c, 0, 60, 65
2, 251776, Note_on_c, 0, 72, 0
2, 251825, Note_on_c, 0, 60, 0
2, 251830, Note_on_c, 0, 67, 89
2, 251857, Note_on_c, 0, 64, 0
2, 251892, Note_on_c, 0, 67, 0
2, 251914, Note_on_c, 0, 48, 0
2, 251916, Note_on_c, 0, 36, 45
2, 251922, Note_on_c, 0, 43, 46
2, 251928, Note_on_c, 0, 67, 84
2, 251963, Control_c, 0, 64, 63
2, 251973, Control_c, 0, 64, 0
2, 251988, Control_c, 0, 64, 63
2, 252001, Control_c, 0, 64, 127
2, 252050, Note_on_c, 0, 36, 0
2, 252055, Note_on_c, 0, 50, 69
2, 252092, Note_on_c, 0, 43, 0
2, 252170, Note_on_c, 0, 50, 0
2, 252173, Note_on_c, 0, 59, 51
2, 252173, Note_on_c, 0, 62, 63
2, 252182, Note_on_c, 0, 53, 65
2, 252257, Note_on_c, 0, 59, 0
2, 252314, Note_on_c, 0, 69, 88
2, 252328, Note_on_c, 0, 55, 24
2, 252333, Note_on_c, 0, 62, 0
2, 252334, Note_on_c, 0, 53, 0
2, 252339, Note_on_c, 0, 67, 0
2, 252446, Note_on_c, 0, 53, 65
2, 252469, Note_on_c, 0, 55, 0
2, 252494, Note_on_c, 0, 53, 0
2, 252565, Note_on_c, 0, 62, 68
2, 252568, Note_on_c, 0, 50, 62
2, 252568, Note_on_c, 0, 59, 65
2, 252619, Note_on_c, 0, 59, 0
2, 252635, Note_on_c, 0, 67, 88
2, 252637, Note_on_c, 0, 62, 0
2, 252667, Note_on_c, 0, 69, 0
2, 252679, Note_on_c, 0, 50, 0
2, 252688, Note_on_c, 0, 67, 0
2, 252706, Note_on_c, 0, 43, 40
2, 252712, Note_on_c, 0, 36, 62
2, 252715, Note_on_c, 0, 67, 89
2, 252763, Control_c, 0, 64, 63
2, 252771, Control_c, 0, 64, 0
2, 252786, Control_c, 0, 64, 63
2, 252799, Control_c, 0, 64, 127
2, 252835, Note_on_c, 0, 36, 0
2, 252851, Note_on_c, 0, 48, 59
2, 252872, Note_on_c, 0, 43, 0
2, 252953, Note_on_c, 0, 48, 0
2, 252971, Note_on_c, 0, 60, 49
2, 252974, Note_on_c, 0, 52, 47
2, 252976, Note_on_c, 0, 64, 57
2, 252989, Note_on_c, 0, 67, 0
2, 253025, Note_on_c, 0, 60, 0
2, 253037, Note_on_c, 0, 64, 0
2, 253146, Note_on_c, 0, 55, 44
2, 253164, Note_on_c, 0, 76, 65
2, 253167, Note_on_c, 0, 52, 0
2, 253217, Note_on_c, 0, 76, 0
2, 253338, Note_on_c, 0, 52, 57
2, 253353, Note_on_c, 0, 55, 0
2, 253396, Note_on_c, 0, 52, 0
2, 253527, Note_on_c, 0, 48, 38
2, 253532, Note_on_c, 0, 64, 50
2, 253538, Note_on_c, 0, 60, 28
2, 253594, Note_on_c, 0, 60, 0
2, 253632, Note_on_c, 0, 67, 77
2, 253649, Note_on_c, 0, 64, 0
2, 253788, Note_on_c, 0, 36, 33
2, 253788, Note_on_c, 0, 43, 24
2, 253852, Note_on_c, 0, 66, 86
2, 253894, Control_c, 0, 64, 63
2, 253895, Note_on_c, 0, 67, 0
2, 253900, Control_c, 0, 64, 0
2, 253932, Control_c, 0, 64, 63
2, 253944, Control_c, 0, 64, 127
2, 253948, Note_on_c, 0, 48, 0
2, 254042, Note_on_c, 0, 36, 0
2, 254068, Note_on_c, 0, 50, 73
2, 254076, Note_on_c, 0, 62, 80
2, 254080, Note_on_c, 0, 43, 0
2, 254083, Note_on_c, 0, 60, 35
2, 254120, Note_on_c, 0, 60, 0
2, 254179, Note_on_c, 0, 60, 19
2, 254222, Note_on_c, 0, 54, 86
2, 254225, Note_on_c, 0, 62, 0
2, 254230, Note_on_c, 0, 50, 0
2, 254232, Note_on_c, 0, 60, 0
2, 254254, Note_on_c, 0, 66, 0
2, 254361, Note_on_c, 0, 54, 0
2, 254362, Note_on_c, 0, 74, 102
2, 254367, Note_on_c, 0, 57, 60
2, 254409, Note_on_c, 0, 74, 0
2, 254473, Note_on_c, 0, 57, 0
2, 254475, Note_on_c, 0, 54, 88
2, 254510, Note_on_c, 0, 54, 0
2, 254609, Note_on_c, 0, 60, 91
2, 254611, Note_on_c, 0, 62, 90
2, 254614, Note_on_c, 0, 50, 55
2, 254680, Note_on_c, 0, 66, 107
2, 254700, Note_on_c, 0, 62, 0
2, 254706, Note_on_c, 0, 60, 0
2, 254736, Note_on_c, 0, 50, 0
2, 254800, Note_on_c, 0, 65, 99
2, 254801, Note_on_c, 0, 36, 61
2, 254804, Note_on_c, 0, 43, 73
2, 254812, Note_on_c, 0, 66, 0
2, 254856, Control_c, 0, 64, 63
2, 254862, Control_c, 0, 64, 0
2, 254897, Control_c, 0, 64, 63
2, 254909, Control_c, 0, 64, 127
2, 254947, Note_on_c, 0, 36, 0
2, 254955, Note_on_c, 0, 50, 59
2, 254981, Note_on_c, 0, 43, 0
2, 255059, Note_on_c, 0, 50, 0
2, 255070, Note_on_c, 0, 62, 76
2, 255073, Note_on_c, 0, 59, 61
2, 255076, Note_on_c, 0, 53, 68
2, 255077, Note_on_c, 0, 65, 0
2, 255117, Note_on_c, 0, 62, 0
2, 255117, Note_on_c, 0, 59, 0
2, 255212, Note_on_c, 0, 53, 0
2, 255216, Note_on_c, 0, 55, 47
2, 255218, Note_on_c, 0, 74, 74
2, 255263, Note_on_c, 0, 74, 0
2, 255347, Note_on_c, 0, 53, 62
2, 255354, Note_on_c, 0, 55, 0
2, 255379, Note_on_c, 0, 53, 0
2, 255489, Note_on_c, 0, 62, 65
2, 255491, Note_on_c, 0, 50, 55
2, 255500, Note_on_c, 0, 59, 42
2, 255551, Note_on_c, 0, 59, 0
2, 255569, Note_on_c, 0, 65, 84
2, 255570, Note_on_c, 0, 50, 0
2, 255585, Note_on_c, 0, 62, 0
2, 255671, Note_on_c, 0, 36, 28
2, 255676, Note_on_c, 0, 43, 35
2, 255680, Note_on_c, 0, 64, 77
2, 255697, Note_on_c, 0, 65, 0
2, 255714, Control_c, 0, 64, 63
2, 255722, Control_c, 0, 64, 0
2, 255768, Control_c, 0, 64, 63
2, 255778, Control_c, 0, 64, 127
2, 255837, Note_on_c, 0, 36, 0
2, 255837, Note_on_c, 0, 48, 60
2, 255869, Note_on_c, 0, 43, 0
2, 255956, Note_on_c, 0, 55, 43
2, 255957, Note_on_c, 0, 60, 51
2, 255962, Note_on_c, 0, 48, 0
2, 255968, Note_on_c, 0, 52, 48
2, 256024, Note_on_c, 0, 55, 0
2, 256083, Note_on_c, 0, 60, 0
2, 256095, Note_on_c, 0, 52, 0
2, 256095, Note_on_c, 0, 55, 51
2, 256205, Note_on_c, 0, 55, 0
2, 256221, Note_on_c, 0, 52, 55
2, 256258, Note_on_c, 0, 52, 0
2, 256357, Note_on_c, 0, 55, 34
2, 256360, Note_on_c, 0, 60, 41
2, 256363, Note_on_c, 0, 48, 43
2, 256479, Note_on_c, 0, 60, 0
2, 256482, Note_on_c, 0, 55, 0
2, 256489, Note_on_c, 0, 48, 0
2, 256496, Note_on_c, 0, 43, 40
2, 256503, Note_on_c, 0, 36, 36
2, 256606, Note_on_c, 0, 36, 0
2, 256646, Note_on_c, 0, 48, 40
2, 256647, Note_on_c, 0, 43, 0
2, 256772, Note_on_c, 0, 48, 0
2, 256790, Note_on_c, 0, 52, 46
2, 256792, Note_on_c, 0, 60, 41
2, 256796, Note_on_c, 0, 55, 16
2, 256869, Note_on_c, 0, 55, 0
2, 256906, Note_on_c, 0, 60, 0
2, 256937, Note_on_c, 0, 52, 0
2, 256947, Note_on_c, 0, 55, 38
2, 257074, Note_on_c, 0, 55, 0
2, 257109, Note_on_c, 0, 52, 43
2, 257142, Note_on_c, 0, 52, 0
2, 257303, Note_on_c, 0, 48, 35
2, 257304, Note_on_c, 0, 60, 36
2, 257309, Note_on_c, 0, 55, 12
2, 257378, Note_on_c, 0, 64, 0
2, 257398, Note_on_c, 0, 60, 0
2, 257419, Note_on_c, 0, 55, 0
2, 257626, Note_on_c, 0, 36, 26
2, 257633, Note_on_c, 0, 43, 76
2, 257665, Note_on_c, 0, 55, 40
2, 257674, Note_on_c, 0, 48, 0
2, 257693, Control_c, 0, 64, 63
2, 257702, Control_c, 0, 64, 0
2, 257740, Control_c, 0, 64, 63
2, 257750, Control_c, 0, 64, 127
2, 257938, Note_on_c, 0, 59, 60
2, 257944, Note_on_c, 0, 55, 0
2, 258088, Note_on_c, 0, 62, 68
2, 258205, Note_on_c, 0, 59, 0
2, 258244, Note_on_c, 0, 45, 88
2, 258253, Note_on_c, 0, 71, 68
2, 258282, Note_on_c, 0, 62, 0
2, 258320, Note_on_c, 0, 43, 0
2, 258419, Note_on_c, 0, 62, 64
2, 258438, Note_on_c, 0, 71, 0
2, 258543, Note_on_c, 0, 59, 84
2, 258554, Note_on_c, 0, 62, 0
2, 258617, Note_on_c, 0, 43, 101
2, 258660, Note_on_c, 0, 45, 0
2, 258706, Control_c, 0, 64, 63
2, 258709, Note_on_c, 0, 43, 0
2, 258714, Control_c, 0, 64, 0
2, 258717, Note_on_c, 0, 36, 0
2, 258741, Control_c, 0, 64, 63
2, 258742, Note_on_c, 0, 43, 91
2, 258751, Note_on_c, 0, 55, 77
2, 258753, Note_on_c, 0, 36, 86
2, 258754, Control_c, 0, 64, 127
2, 258795, Note_on_c, 0, 59, 0
2, 258876, Note_on_c, 0, 55, 0
2, 258935, Note_on_c, 0, 60, 89
2, 259077, Note_on_c, 0, 64, 86
2, 259082, Note_on_c, 0, 60, 0
2, 259201, Note_on_c, 0, 48, 101
2, 259218, Note_on_c, 0, 72, 78
2, 259251, Note_on_c, 0, 64, 0
2, 259342, Note_on_c, 0, 43, 0
2, 259349, Note_on_c, 0, 72, 0
2, 259350, Note_on_c, 0, 64, 80
2, 259482, Note_on_c, 0, 60, 82
2, 259499, Note_on_c, 0, 64, 0
2, 259567, Note_on_c, 0, 43, 100
2, 259640, Note_on_c, 0, 36, 0
2, 259663, Control_c, 0, 64, 63
2, 259667, Control_c, 0, 64, 0
2, 259669, Note_on_c, 0, 43, 0
2, 259691, Note_on_c, 0, 43, 104
2, 259692, Note_on_c, 0, 36, 104
2, 259697, Control_c, 0, 64, 63
2, 259707, Note_on_c, 0, 48, 0
2, 259707, Note_on_c, 0, 55, 61
2, 259708, Control_c, 0, 64, 127
2, 259745, Note_on_c, 0, 60, 0
2, 259807, Note_on_c, 0, 55, 0
2, 259888, Note_on_c, 0, 62, 76
2, 260019, Note_on_c, 0, 65, 87
2, 260049, Note_on_c, 0, 62, 0
2, 260146, Note_on_c, 0, 45, 103
2, 260165, Note_on_c, 0, 65, 0
2, 260165, Note_on_c, 0, 74, 76
2, 260181, Note_on_c, 0, 43, 0
2, 260303, Note_on_c, 0, 65, 87
2, 260310, Note_on_c, 0, 74, 0
2, 260468, Note_on_c, 0, 62, 63
2, 260477, Note_on_c, 0, 65, 0
2, 260529, Note_on_c, 0, 62, 0
2, 260548, Note_on_c, 0, 43, 102
2, 260587, Note_on_c, 0, 45, 0
2, 260629, Note_on_c, 0, 36, 0
2, 260639, Note_on_c, 0, 43, 0
2, 260662, Note_on_c, 0, 43, 102
2, 260669, Note_on_c, 0, 36, 84
2, 260672, Note_on_c, 0, 55, 64
2, 260708, Control_c, 0, 64, 63
2, 260712, Control_c, 0, 64, 0
2, 260741, Control_c, 0, 64, 63
2, 260749, Control_c, 0, 64, 127
2, 260800, Note_on_c, 0, 55, 0
2, 260857, Note_on_c, 0, 60, 71
2, 261002, Note_on_c, 0, 64, 63
2, 261008, Note_on_c, 0, 36, 0
2, 261082, Note_on_c, 0, 60, 0
2, 261149, Note_on_c, 0, 52, 96
2, 261177, Note_on_c, 0, 72, 52
2, 261202, Note_on_c, 0, 64, 0
2, 261345, Note_on_c, 0, 72, 0
2, 261346, Note_on_c, 0, 64, 64
2, 261468, Note_on_c, 0, 43, 0
2, 261524, Note_on_c, 0, 60, 64
2, 261546, Note_on_c, 0, 64, 0
2, 261612, Note_on_c, 0, 43, 76
2, 261628, Note_on_c, 0, 52, 0
2, 261753, Note_on_c, 0, 42, 88
2, 261760, Note_on_c, 0, 36, 68
2, 261766, Note_on_c, 0, 57, 54
2, 261773, Control_c, 0, 64, 63
2, 261777, Control_c, 0, 64, 0
2, 261798, Note_on_c, 0, 43, 0
2, 261801, Note_on_c, 0, 60, 0
2, 261814, Control_c, 0, 64, 63
2, 261823, Control_c, 0, 64, 127
2, 261928, Note_on_c, 0, 57, 0
2, 261991, Note_on_c, 0, 62, 70
2, 262148, Note_on_c, 0, 62, 0
2, 262189, Note_on_c, 0, 69, 52
2, 262356, Note_on_c, 0, 74, 60
2, 262363, Note_on_c, 0, 50, 82
2, 262391, Note_on_c, 0, 69, 0
2, 262523, Note_on_c, 0, 69, 77
2, 262526, Note_on_c, 0, 42, 0
2, 262539, Note_on_c, 0, 74, 0
2, 262666, Note_on_c, 0, 69, 0
2, 262667, Note_on_c, 0, 62, 72
2, 262729, Note_on_c, 0, 42, 89
2, 262770, Note_on_c, 0, 50, 0
2, 262790, Note_on_c, 0, 36, 0
2, 262824, Note_on_c, 0, 42, 0
2, 262834, Note_on_c, 0, 41, 94
2, 262839, Note_on_c, 0, 36, 78
2, 262852, Note_on_c, 0, 59, 70
2, 262858, Control_c, 0, 64, 63
2, 262863, Control_c, 0, 64, 0
2, 262899, Control_c, 0, 64, 63
2, 262908, Control_c, 0, 64, 127
2, 262910, Note_on_c, 0, 62, 0
2, 263004, Note_on_c, 0, 62, 82
2, 263006, Note_on_c, 0, 59, 0
2, 263124, Note_on_c, 0, 67, 80
2, 263166, Note_on_c, 0, 62, 0
2, 263246, Note_on_c, 0, 50, 97
2, 263253, Note_on_c, 0, 74, 84
2, 263278, Note_on_c, 0, 41, 0
2, 263300, Note_on_c, 0, 67, 0
2, 263389, Note_on_c, 0, 67, 88
2, 263393, Note_on_c, 0, 74, 0
2, 263499, Note_on_c, 0, 50, 0
2, 263517, Note_on_c, 0, 62, 87
2, 263539, Note_on_c, 0, 67, 0
2, 263566, Note_on_c, 0, 41, 80
2, 263611, Note_on_c, 0, 36, 0
2, 263650, Note_on_c, 0, 40, 96
2, 263655, Note_on_c, 0, 48, 94
2, 263660, Note_on_c, 0, 36, 82
2, 263682, Note_on_c, 0, 41, 0
2, 263682, Note_on_c, 0, 60, 76
2, 263687, Control_c, 0, 64, 63
2, 263690, Control_c, 0, 64, 0
2, 263709, Note_on_c, 0, 62, 0
2, 263745, Control_c, 0, 64, 63
2, 263751, Control_c, 0, 64, 127
2, 263822, Note_on_c, 0, 60, 0
2, 263832, Note_on_c, 0, 64, 63
2, 263942, Note_on_c, 0, 67, 83
2, 264070, Note_on_c, 0, 76, 63
2, 264073, Note_on_c, 0, 64, 0
2, 264115, Note_on_c, 0, 67, 0
2, 264172, Note_on_c, 0, 36, 0
2, 264198, Note_on_c, 0, 40, 0
2, 264199, Note_on_c, 0, 67, 80
2, 264222, Note_on_c, 0, 76, 0
2, 264252, Note_on_c, 0, 48, 0
2, 264311, Note_on_c, 0, 64, 88
2, 264337, Note_on_c, 0, 67, 0
2, 264416, Note_on_c, 0, 45, 84
2, 264419, Note_on_c, 0, 52, 88
2, 264442, Note_on_c, 0, 61, 88
2, 264463, Control_c, 0, 64, 63
2, 264464, Note_on_c, 0, 64, 0
2, 264468, Control_c, 0, 64, 0
2, 264498, Control_c, 0, 64, 63
2, 264508, Control_c, 0, 64, 127
2, 264547, Note_on_c, 0, 45, 0
2, 264552, Note_on_c, 0, 61, 0
2, 264556, Note_on_c, 0, 64, 74
2, 264556, Note_on_c, 0, 57, 96
2, 264586, Note_on_c, 0, 52, 0
2, 264673, Note_on_c, 0, 67, 88
2, 264674, Note_on_c, 0, 61, 104
2, 264678, Note_on_c, 0, 64, 0
2, 264687, Note_on_c, 0, 57, 0
2, 264786, Note_on_c, 0, 76, 101
2, 264792, Note_on_c, 0, 64, 84
2, 264794, Note_on_c, 0, 67, 0
2, 264808, Note_on_c, 0, 61, 0
2, 264888, Note_on_c, 0, 64, 0
2, 264890, Note_on_c, 0, 61, 85
2, 264905, Note_on_c, 0, 76, 0
2, 264905, Note_on_c, 0, 67, 89
2, 264923, Note_on_c, 0, 61, 0
2, 265008, Note_on_c, 0, 57, 79
2, 265020, Note_on_c, 0, 64, 92
2, 265026, Note_on_c, 0, 67, 0
2, 265044, Note_on_c, 0, 57, 0
2, 265171, Note_on_c, 0, 37, 99
2, 265171, Control_c, 0, 64, 63
2, 265173, Note_on_c, 0, 64, 0
2, 265176, Control_c, 0, 64, 0
2, 265176, Note_on_c, 0, 44, 100
2, 265184, Note_on_c, 0, 61, 96
2, 265204, Control_c, 0, 64, 63
2, 265214, Control_c, 0, 64, 127
2, 265298, Note_on_c, 0, 61, 0
2, 265332, Note_on_c, 0, 37, 0
2, 265337, Note_on_c, 0, 49, 94
2, 265343, Note_on_c, 0, 65, 86
2, 265354, Note_on_c, 0, 44, 0
2, 265386, Note_on_c, 0, 49, 0
2, 265456, Note_on_c, 0, 53, 84
2, 265459, Note_on_c, 0, 68, 99
2, 265519, Note_on_c, 0, 65, 0
2, 265557, Note_on_c, 0, 68, 0
2, 265565, Note_on_c, 0, 56, 100
2, 265568, Note_on_c, 0, 77, 99
2, 265583, Note_on_c, 0, 53, 0
2, 265667, Note_on_c, 0, 77, 0
2, 265682, Note_on_c, 0, 53, 84
2, 265685, Note_on_c, 0, 68, 89
2, 265691, Note_on_c, 0, 56, 0
2, 265777, Note_on_c, 0, 49, 94
2, 265783, Note_on_c, 0, 65, 86
2, 265784, Note_on_c, 0, 53, 0
2, 265788, Note_on_c, 0, 68, 0
2, 265820, Note_on_c, 0, 49, 0
2, 265886, Note_on_c, 0, 65, 0
2, 265896, Control_c, 0, 64, 63
2, 265900, Control_c, 0, 64, 0
2, 265924, Note_on_c, 0, 43, 87
2, 265928, Control_c, 0, 64, 63
2, 265930, Note_on_c, 0, 50, 92
2, 265935, Control_c, 0, 64, 127
2, 265949, Note_on_c, 0, 59, 100
2, 265995, Note_on_c, 0, 59, 0
2, 266086, Note_on_c, 0, 43, 0
2, 266100, Note_on_c, 0, 55, 83
2, 266109, Note_on_c, 0, 50, 0
2, 266113, Note_on_c, 0, 65, 76
2, 266180, Note_on_c, 0, 55, 0
2, 266209, Note_on_c, 0, 65, 0
2, 266224, Note_on_c, 0, 71, 92
2, 266228, Note_on_c, 0, 59, 100
2, 266341, Note_on_c, 0, 77, 104
2, 266342, Note_on_c, 0, 65, 93
2, 266369, Note_on_c, 0, 71, 0
2, 266453, Note_on_c, 0, 62, 86
2, 266454, Note_on_c, 0, 71, 94
2, 266456, Note_on_c, 0, 65, 0
2, 266461, Note_on_c, 0, 77, 0
2, 266495, Note_on_c, 0, 62, 0
2, 266509, Note_on_c, 0, 59, 0
2, 266546, Note_on_c, 0, 71, 0
2, 266550, Note_on_c, 0, 65, 91
2, 266563, Note_on_c, 0, 55, 90
2, 266594, Note_on_c, 0, 55, 0
2, 266599, Note_on_c, 0, 65, 0
2, 266713, Note_on_c, 0, 43, 100
2, 266715, Control_c, 0, 64, 63
2, 266718, Note_on_c, 0, 36, 81
2, 266719, Control_c, 0, 64, 0
2, 266724, Note_on_c, 0, 60, 100
2, 266751, Control_c, 0, 64, 63
2, 266759, Control_c, 0, 64, 127
2, 266835, Note_on_c, 0, 60, 0
2, 266835, Note_on_c, 0, 36, 0
2, 266859, Note_on_c, 0, 64, 82
2, 266859, Note_on_c, 0, 48, 100
2, 266863, Note_on_c, 0, 43, 0
2, 266905, Note_on_c, 0, 48, 0
2, 266949, Note_on_c, 0, 64, 0
2, 266949, Note_on_c, 0, 52, 94
2, 266951, Note_on_c, 0, 67, 97
2, 267060, Note_on_c, 0, 55, 88
2, 267066, Note_on_c, 0, 76, 107
2, 267085, Note_on_c, 0, 67, 0
2, 267089, Note_on_c, 0, 52, 0
2, 267173, Note_on_c, 0, 76, 0
2, 267175, Note_on_c, 0, 52, 91
2, 267179, Note_on_c, 0, 67, 94
2, 267197, Note_on_c, 0, 55, 0
2, 267231, Note_on_c, 0, 52, 0
2, 267261, Note_on_c, 0, 67, 0
2, 267269, Note_on_c, 0, 64, 91
2, 267276, Note_on_c, 0, 48, 92
2, 267361, Note_on_c, 0, 48, 0
2, 267362, Control_c, 0, 64, 63
2, 267367, Control_c, 0, 64, 0
2, 267370, Note_on_c, 0, 64, 0
2, 267391, Note_on_c, 0, 52, 93
2, 267394, Note_on_c, 0, 61, 104
2, 267395, Note_on_c, 0, 45, 77
2, 267397, Note_on_c, 0, 43, 78
2, 267401, Control_c, 0, 64, 63
2, 267409, Control_c, 0, 64, 127
2, 267432, Note_on_c, 0, 43, 0
2, 267497, Note_on_c, 0, 61, 0
2, 267503, Note_on_c, 0, 45, 0
2, 267509, Note_on_c, 0, 64, 94
2, 267512, Note_on_c, 0, 57, 96
2, 267525, Note_on_c, 0, 52, 0
2, 267595, Note_on_c, 0, 64, 0
2, 267609, Note_on_c, 0, 67, 100
2, 267609, Note_on_c, 0, 61, 109
2, 267610, Note_on_c, 0, 57, 0
2, 267714, Note_on_c, 0, 61, 0
2, 267716, Note_on_c, 0, 76, 108
2, 267716, Note_on_c, 0, 64, 89
2, 267727, Note_on_c, 0, 67, 0
2, 267806, Note_on_c, 0, 64, 0
2, 267806, Note_on_c, 0, 61, 98
2, 267818, Note_on_c, 0, 76, 0
2, 267822, Note_on_c, 0, 67, 92
2, 267841, Note_on_c, 0, 61, 0
2, 267911, Note_on_c, 0, 67, 0
2, 267912, Note_on_c, 0, 57, 87
2, 267916, Note_on_c, 0, 64, 90
2, 267938, Note_on_c, 0, 57, 0
2, 268038, Note_on_c, 0, 64, 0
2, 268041, Control_c, 0, 64, 63
2, 268046, Control_c, 0, 64, 0
2, 268057, Note_on_c, 0, 37, 104
2, 268060, Note_on_c, 0, 44, 108
2, 268066, Note_on_c, 0, 61, 110
2, 268078, Control_c, 0, 64, 63
2, 268085, Control_c, 0, 64, 127
2, 268148, Note_on_c, 0, 61, 0
2, 268193, Note_on_c, 0, 37, 0
2, 268202, Note_on_c, 0, 49, 103
2, 268213, Note_on_c, 0, 44, 0
2, 268213, Note_on_c, 0, 65, 94
2, 268240, Note_on_c, 0, 49, 0
2, 268303, Note_on_c, 0, 53, 94
2, 268305, Note_on_c, 0, 68, 103
2, 268312, Note_on_c, 0, 65, 0
2, 268371, Note_on_c, 0, 68, 0
2, 268385, Note_on_c, 0, 53, 0
2, 268405, Note_on_c, 0, 77, 103
2, 268412, Note_on_c, 0, 56, 106
2, 268483, Note_on_c, 0, 77, 0
2, 268508, Note_on_c, 0, 56, 0
2, 268515, Note_on_c, 0, 68, 96
2, 268517, Note_on_c, 0, 53, 81
2, 268615, Note_on_c, 0, 65, 94
2, 268616, Note_on_c, 0, 53, 0
2, 268616, Note_on_c, 0, 49, 93
2, 268617, Note_on_c, 0, 68, 0
2, 268651, Note_on_c, 0, 49, 0
2, 268693, Note_on_c, 0, 65, 0
2, 268704, Control_c, 0, 64, 63
2, 268709, Control_c, 0, 64, 0
2, 268728, Note_on_c, 0, 43, 96
2, 268730, Note_on_c, 0, 50, 99
2, 268735, Control_c, 0, 64, 63
2, 268743, Control_c, 0, 64, 127
2, 268747, Note_on_c, 0, 59, 102
2, 268780, Note_on_c, 0, 59, 0
2, 268867, Note_on_c, 0, 43, 0
2, 268881, Note_on_c, 0, 55, 90
2, 268888, Note_on_c, 0, 65, 79
2, 268891, Note_on_c, 0, 50, 0
2, 268940, Note_on_c, 0, 55, 0
2, 268972, Note_on_c, 0, 65, 0
2, 269008, Note_on_c, 0, 71, 98
2, 269010, Note_on_c, 0, 59, 93
2, 269131, Note_on_c, 0, 77, 107
2, 269132, Note_on_c, 0, 62, 107
2, 269155, Note_on_c, 0, 71, 0
2, 269157, Note_on_c, 0, 59, 0
2, 269248, Note_on_c, 0, 77, 0
2, 269249, Note_on_c, 0, 59, 98
2, 269251, Note_on_c, 0, 71, 102
2, 269265, Note_on_c, 0, 62, 0
2, 269293, Note_on_c, 0, 59, 0
2, 269360, Note_on_c, 0, 71, 0
2, 269370, Note_on_c, 0, 65, 92
2, 269370, Note_on_c, 0, 55, 99
2, 269409, Note_on_c, 0, 55, 0
2, 269410, Note_on_c, 0, 65, 0
2, 269518, Control_c, 0, 64, 63
2, 269522, Control_c, 0, 64, 0
2, 269524, Note_on_c, 0, 36, 104
2, 269525, Note_on_c, 0, 43, 107
2, 269534, Note_on_c, 0, 60, 93
2, 269556, Control_c, 0, 64, 63
2, 269563, Control_c, 0, 64, 127
2, 269652, Note_on_c, 0, 60, 0
2, 269668, Note_on_c, 0, 36, 0
2, 269679, Note_on_c, 0, 64, 91
2, 269680, Note_on_c, 0, 48, 89
2, 269694, Note_on_c, 0, 43, 0
2, 269750, Note_on_c, 0, 48, 0
2, 269777, Note_on_c, 0, 67, 101
2, 269778, Note_on_c, 0, 52, 107
2, 269792, Note_on_c, 0, 64, 0
2, 269881, Note_on_c, 0, 55, 90
2, 269887, Note_on_c, 0, 76, 99
2, 269909, Note_on_c, 0, 52, 0
2, 269910, Note_on_c, 0, 67, 0
2, 269994, Note_on_c, 0, 67, 98
2, 269999, Note_on_c, 0, 52, 93
2, 270006, Note_on_c, 0, 76, 0
2, 270093, Note_on_c, 0, 48, 91
2, 270095, Note_on_c, 0, 64, 101
2, 270100, Note_on_c, 0, 67, 0
2, 270113, Note_on_c, 0, 55, 0
2, 270122, Note_on_c, 0, 52, 0
2, 270140, Note_on_c, 0, 48, 0
2, 270197, Control_c, 0, 64, 63
2, 270202, Control_c, 0, 64, 0
2, 270214, Note_on_c, 0, 64, 0
2, 270232, Note_on_c, 0, 45, 77
2, 270236, Note_on_c, 0, 66, 116
2, 270239, Note_on_c, 0, 54, 97
2, 270247, Control_c, 0, 64, 63
2, 270249, Control_c, 0, 64, 127
2, 270334, Note_on_c, 0, 45, 0
2, 270349, Note_on_c, 0, 66, 0
2, 270366, Note_on_c, 0, 69, 100
2, 270369, Note_on_c, 0, 57, 101
2, 270393, Note_on_c, 0, 54, 0
2, 270461, Note_on_c, 0, 57, 0
2, 270464, Note_on_c, 0, 72, 104
2, 270467, Note_on_c, 0, 69, 0
2, 270468, Note_on_c, 0, 60, 113
2, 270567, Note_on_c, 0, 62, 94
2, 270570, Note_on_c, 0, 81, 113
2, 270594, Note_on_c, 0, 72, 0
2, 270597, Note_on_c, 0, 60, 0
2, 270674, Note_on_c, 0, 60, 97
2, 270679, Note_on_c, 0, 81, 0
2, 270680, Note_on_c, 0, 72, 101
2, 270693, Note_on_c, 0, 62, 0
2, 270711, Note_on_c, 0, 60, 0
2, 270771, Note_on_c, 0, 57, 70
2, 270774, Note_on_c, 0, 69, 100
2, 270777, Note_on_c, 0, 72, 0
2, 270835, Note_on_c, 0, 57, 0
2, 270867, Control_c, 0, 64, 63
2, 270872, Control_c, 0, 64, 0
2, 270880, Note_on_c, 0, 43, 94
2, 270882, Note_on_c, 0, 50, 107
2, 270883, Note_on_c, 0, 65, 99
2, 270898, Control_c, 0, 64, 63
2, 270905, Control_c, 0, 64, 127
2, 270916, Note_on_c, 0, 69, 0
2, 270978, Note_on_c, 0, 43, 0
2, 270982, Note_on_c, 0, 65, 0
2, 270990, Note_on_c, 0, 57, 96
2, 271000, Note_on_c, 0, 69, 88
2, 271002, Note_on_c, 0, 50, 0
2, 271066, Note_on_c, 0, 57, 0
2, 271084, Note_on_c, 0, 69, 0
2, 271085, Note_on_c, 0, 60, 102
2, 271089, Note_on_c, 0, 72, 100
2, 271190, Note_on_c, 0, 62, 98
2, 271196, Note_on_c, 0, 81, 113
2, 271216, Note_on_c, 0, 60, 0
2, 271222, Note_on_c, 0, 72, 0
2, 271297, Note_on_c, 0, 60, 94
2, 271297, Note_on_c, 0, 72, 100
2, 271298, Note_on_c, 0, 81, 0
2, 271311, Note_on_c, 0, 62, 0
2, 271334, Note_on_c, 0, 60, 0
2, 271383, Note_on_c, 0, 69, 94
2, 271390, Note_on_c, 0, 72, 0
2, 271393, Note_on_c, 0, 57, 72
2, 271448, Note_on_c, 0, 57, 0
2, 271493, Control_c, 0, 64, 63
2, 271498, Note_on_c, 0, 50, 108
2, 271498, Note_on_c, 0, 43, 99
2, 271499, Control_c, 0, 64, 0
2, 271499, Note_on_c, 0, 65, 99
2, 271525, Control_c, 0, 64, 63
2, 271526, Note_on_c, 0, 69, 0
2, 271532, Control_c, 0, 64, 127
2, 271613, Note_on_c, 0, 65, 0
2, 271613, Note_on_c, 0, 43, 0
2, 271613, Note_on_c, 0, 55, 99
2, 271618, Note_on_c, 0, 67, 86
2, 271641, Note_on_c, 0, 50, 0
2, 271708, Note_on_c, 0, 55, 0
2, 271709, Note_on_c, 0, 71, 104
2, 271714, Note_on_c, 0, 59, 104
2, 271729, Note_on_c, 0, 67, 0
2, 271816, Note_on_c, 0, 79, 112
2, 271817, Note_on_c, 0, 62, 104
2, 271842, Note_on_c, 0, 71, 0
2, 271850, Note_on_c, 0, 59, 0
2, 271921, Note_on_c, 0, 59, 93
2, 271925, Note_on_c, 0, 79, 0
2, 271931, Note_on_c, 0, 71, 100
2, 271933, Note_on_c, 0, 62, 0
2, 271965, Note_on_c, 0, 59, 0
2, 272033, Note_on_c, 0, 67, 98
2, 272037, Note_on_c, 0, 71, 0
2, 272038, Note_on_c, 0, 55, 81
2, 272073, Note_on_c, 0, 67, 0
2, 272074, Note_on_c, 0, 55, 0
2, 272182, Control_c, 0, 64, 63
2, 272183, Note_on_c, 0, 43, 111
2, 272183, Note_on_c, 0, 36, 111
2, 272187, Note_on_c, 0, 60, 109
2, 272189, Control_c, 0, 64, 0
2, 272218, Control_c, 0, 64, 63
2, 272226, Control_c, 0, 64, 127
2, 272327, Note_on_c, 0, 36, 0
2, 272340, Note_on_c, 0, 60, 0
2, 272345, Note_on_c, 0, 48, 102
2, 272347, Note_on_c, 0, 64, 93
2, 272362, Note_on_c, 0, 43, 0
2, 272433, Note_on_c, 0, 48, 0
2, 272451, Note_on_c, 0, 67, 106
2, 272452, Note_on_c, 0, 52, 93
2, 272461, Note_on_c, 0, 64, 0
2, 272548, Note_on_c, 0, 55, 96
2, 272557, Note_on_c, 0, 76, 96
2, 272578, Note_on_c, 0, 67, 0
2, 272581, Note_on_c, 0, 52, 0
2, 272646, Note_on_c, 0, 52, 93
2, 272648, Note_on_c, 0, 76, 0
2, 272648, Note_on_c, 0, 67, 102
2, 272670, Note_on_c, 0, 55, 0
2, 272710, Note_on_c, 0, 52, 0
2, 272732, Note_on_c, 0, 64, 101
2, 272742, Note_on_c, 0, 67, 0
2, 272742, Note_on_c, 0, 48, 86
2, 272799, Control_c, 0, 64, 63
2, 272801, Note_on_c, 0, 48, 0
2, 272804, Control_c, 0, 64, 0
2, 272829, Note_on_c, 0, 64, 0
2, 272839, Note_on_c, 0, 66, 116
2, 272841, Control_c, 0, 64, 63
2, 272843, Note_on_c, 0, 54, 101
2, 272847, Control_c, 0, 64, 127
2, 272851, Note_on_c, 0, 45, 37
2, 272917, Note_on_c, 0, 66, 0
2, 272923, Note_on_c, 0, 45, 0
2, 272946, Note_on_c, 0, 69, 92
2, 272954, Note_on_c, 0, 57, 101
2, 272967, Note_on_c, 0, 54, 0
2, 273005, Note_on_c, 0, 57, 0
2, 273024, Note_on_c, 0, 69, 0
2, 273038, Note_on_c, 0, 60, 108
2, 273039, Note_on_c, 0, 72, 103
2, 273135, Note_on_c, 0, 62, 100
2, 273140, Note_on_c, 0, 81, 112
2, 273166, Note_on_c, 0, 72, 0
2, 273169, Note_on_c, 0, 60, 0
2, 273239, Note_on_c, 0, 60, 98
2, 273242, Note_on_c, 0, 72, 109
2, 273252, Note_on_c, 0, 81, 0
2, 273264, Note_on_c, 0, 62, 0
2, 273288, Note_on_c, 0, 60, 0
2, 273345, Note_on_c, 0, 69, 98
2, 273350, Note_on_c, 0, 72, 0
2, 273352, Note_on_c, 0, 57, 73
2, 273401, Note_on_c, 0, 57, 0
2, 273432, Control_c, 0, 64, 63
2, 273436, Control_c, 0, 64, 0
2, 273455, Note_on_c, 0, 43, 92
2, 273458, Note_on_c, 0, 50, 111
2, 273462, Note_on_c, 0, 65, 104
2, 273472, Control_c, 0, 64, 63
2, 273478, Control_c, 0, 64, 127
2, 273493, Note_on_c, 0, 69, 0
2, 273553, Note_on_c, 0, 43, 0
2, 273570, Note_on_c, 0, 57, 97
2, 273573, Note_on_c, 0, 65, 0
2, 273583, Note_on_c, 0, 50, 0
2, 273587, Note_on_c, 0, 69, 92
2, 273652, Note_on_c, 0, 57, 0
2, 273673, Note_on_c, 0, 69, 0
2, 273674, Note_on_c, 0, 60, 106
2, 273684, Note_on_c, 0, 72, 107
2, 273788, Note_on_c, 0, 62, 106
2, 273794, Note_on_c, 0, 81, 116
2, 273820, Note_on_c, 0, 60, 0
2, 273822, Note_on_c, 0, 72, 0
2, 273907, Note_on_c, 0, 72, 109
2, 273908, Note_on_c, 0, 60, 102
2, 273914, Note_on_c, 0, 81, 0
2, 273934, Note_on_c, 0, 62, 0
2, 273956, Note_on_c, 0, 60, 0
2, 274025, Note_on_c, 0, 69, 100
2, 274033, Note_on_c, 0, 57, 85
2, 274034, Note_on_c, 0, 72, 0
2, 274105, Note_on_c, 0, 57, 0
2, 274147, Control_c, 0, 64, 63
2, 274152, Control_c, 0, 64, 0
2, 274154, Note_on_c, 0, 43, 107
2, 274155, Note_on_c, 0, 50, 113
2, 274165, Note_on_c, 0, 65, 91
2, 274191, Control_c, 0, 64, 63
2, 274192, Note_on_c, 0, 69, 0
2, 274196, Control_c, 0, 64, 127
2, 274295, Note_on_c, 0, 67, 100
2, 274299, Note_on_c, 0, 43, 0
2, 274299, Note_on_c, 0, 55, 106
2, 274317, Note_on_c, 0, 65, 0
2, 274327, Note_on_c, 0, 50, 0
2, 274421, Note_on_c, 0, 71, 107
2, 274424, Note_on_c, 0, 59, 112
2, 274425, Note_on_c, 0, 55, 0
2, 274437, Note_on_c, 0, 67, 0
2, 274557, Note_on_c, 0, 79, 103
2, 274558, Note_on_c, 0, 62, 93
2, 274591, Note_on_c, 0, 71, 0
2, 274599, Note_on_c, 0, 59, 0
2, 274699, Note_on_c, 0, 59, 99
2, 274703, Note_on_c, 0, 71, 104
2, 274708, Note_on_c, 0, 79, 0
2, 274723, Note_on_c, 0, 62, 0
2, 274760, Note_on_c, 0, 59, 0
2, 274846, Note_on_c, 0, 55, 99
2, 274846, Note_on_c, 0, 67, 94
2, 274856, Note_on_c, 0, 71, 0
2, 274887, Note_on_c, 0, 67, 0
2, 274895, Note_on_c, 0, 55, 0
2, 275066, Note_on_c, 0, 36, 111
2, 275068, Note_on_c, 0, 43, 111
2, 275080, Note_on_c, 0, 64, 116
2, 275115, Control_c, 0, 64, 63
2, 275119, Control_c, 0, 64, 0
2, 275171, Control_c, 0, 64, 63
2, 275175, Control_c, 0, 64, 127
2, 275290, Note_on_c, 0, 48, 116
2, 275291, Note_on_c, 0, 67, 90
2, 275302, Note_on_c, 0, 64, 0
2, 275307, Note_on_c, 0, 36, 0
2, 275330, Note_on_c, 0, 43, 0
2, 275450, Note_on_c, 0, 72, 102
2, 275452, Note_on_c, 0, 52, 99
2, 275469, Note_on_c, 0, 48, 0
2, 275477, Note_on_c, 0, 67, 0
2, 275583, Note_on_c, 0, 55, 96
2, 275586, Note_on_c, 0, 79, 104
2, 275617, Note_on_c, 0, 72, 0
2, 275620, Note_on_c, 0, 52, 0
2, 275711, Note_on_c, 0, 72, 104
2, 275713, Note_on_c, 0, 52, 91
2, 275728, Note_on_c, 0, 79, 0
2, 275730, Note_on_c, 0, 55, 0
2, 275758, Note_on_c, 0, 52, 0
2, 275814, Note_on_c, 0, 67, 87
2, 275819, Note_on_c, 0, 72, 0
2, 275822, Note_on_c, 0, 48, 89
2, 275940, Note_on_c, 0, 43, 97
2, 275941, Note_on_c, 0, 36, 93
2, 275947, Note_on_c, 0, 64, 94
2, 275968, Note_on_c, 0, 48, 0
2, 275976, Note_on_c, 0, 67, 0
2, 276065, Note_on_c, 0, 64, 0
2, 276070, Note_on_c, 0, 36, 0
2, 276075, Note_on_c, 0, 48, 102
2, 276078, Note_on_c, 0, 67, 89
2, 276102, Note_on_c, 0, 43, 0
2, 276197, Note_on_c, 0, 72, 87
2, 276203, Note_on_c, 0, 52, 92
2, 276208, Note_on_c, 0, 67, 0
2, 276211, Note_on_c, 0, 48, 0
2, 276318, Note_on_c, 0, 55, 84
2, 276325, Note_on_c, 0, 79, 91
2, 276356, Note_on_c, 0, 72, 0
2, 276357, Note_on_c, 0, 52, 0
2, 276458, Note_on_c, 0, 72, 92
2, 276460, Note_on_c, 0, 52, 84
2, 276469, Note_on_c, 0, 79, 0
2, 276473, Note_on_c, 0, 55, 0
2, 276501, Note_on_c, 0, 52, 0
2, 276589, Note_on_c, 0, 72, 0
2, 276591, Note_on_c, 0, 67, 88
2, 276597, Note_on_c, 0, 48, 68
2, 276633, Note_on_c, 0, 67, 0
2, 276748, Note_on_c, 0, 43, 82
2, 276748, Note_on_c, 0, 36, 80
2, 276751, Note_on_c, 0, 60, 108
2, 276754, Note_on_c, 0, 48, 0
2, 276867, Note_on_c, 0, 60, 0
2, 276896, Note_on_c, 0, 36, 0
2, 276915, Note_on_c, 0, 48, 93
2, 276919, Note_on_c, 0, 64, 93
2, 276929, Note_on_c, 0, 43, 0
2, 277065, Note_on_c, 0, 48, 0
2, 277069, Note_on_c, 0, 52, 72
2, 277070, Note_on_c, 0, 67, 88
2, 277104, Note_on_c, 0, 64, 0
2, 277217, Note_on_c, 0, 55, 65
2, 277231, Note_on_c, 0, 76, 98
2, 277248, Note_on_c, 0, 67, 0
2, 277258, Note_on_c, 0, 52, 0
2, 277407, Note_on_c, 0, 76, 0
2, 277407, Note_on_c, 0, 67, 82
2, 277414, Note_on_c, 0, 52, 63
2, 277420, Note_on_c, 0, 55, 0
2, 277459, Note_on_c, 0, 52, 0
2, 277605, Note_on_c, 0, 64, 84
2, 277613, Note_on_c, 0, 67, 0
2, 277623, Note_on_c, 0, 48, 50
2, 277656, Note_on_c, 0, 64, 0
2, 277849, Note_on_c, 0, 36, 51
2, 277854, Note_on_c, 0, 41, 63
2, 277872, Note_on_c, 0, 57, 99
2, 277874, Note_on_c, 0, 48, 0
2, 277931, Control_c, 0, 64, 63
2, 277937, Control_c, 0, 64, 0
2, 277962, Control_c, 0, 64, 63
2, 277969, Control_c, 0, 64, 127
2, 278174, Note_on_c, 0, 48, 80
2, 278185, Note_on_c, 0, 60, 76
2, 278212, Note_on_c, 0, 57, 0
2, 278244, Note_on_c, 0, 36, 0
2, 278282, Note_on_c, 0, 41, 0
2, 278409, Note_on_c, 0, 65, 82
2, 278416, Note_on_c, 0, 53, 70
2, 278445, Note_on_c, 0, 48, 0
2, 278457, Note_on_c, 0, 60, 0
2, 278631, Note_on_c, 0, 57, 64
2, 278647, Note_on_c, 0, 72, 76
2, 278728, Note_on_c, 0, 53, 0
2, 278817, Note_on_c, 0, 65, 0
2, 278960, Note_on_c, 0, 53, 49
2, 278971, Note_on_c, 0, 65, 45
2, 279278, Note_on_c, 0, 57, 0
2, 279431, Note_on_c, 0, 56, 88
2, 279442, Note_on_c, 0, 48, 57
2, 279453, Note_on_c, 0, 60, 34
2, 279481, Note_on_c, 0, 53, 0
2, 279579, Control_c, 0, 64, 63
2, 279590, Control_c, 0, 64, 127
2, 279697, Note_on_c, 0, 72, 0
2, 279716, Note_on_c, 0, 65, 0
2, 279734, Note_on_c, 0, 60, 0
2, 279757, Note_on_c, 0, 56, 0
2, 279788, Note_on_c, 0, 48, 0
2, 280335, Note_on_c, 0, 64, 68
2, 280336, Note_on_c, 0, 43, 46
2, 280337, Note_on_c, 0, 48, 32
2, 280340, Note_on_c, 0, 55, 52
2, 280345, Note_on_c, 0, 36, 33
2, 280353, Note_on_c, 0, 60, 48
2, 280582, Control_c, 0, 64, 63
2, 280612, Control_c, 0, 64, 0
2, 281718, Control_c, 0, 64, 63
2, 281732, Control_c, 0, 64, 127
2, 281934, Control_c, 0, 67, 127
2, 282007, Note_on_c, 0, 64, 0
2, 282030, Note_on_c, 0, 60, 0
2, 282048, Note_on_c, 0, 43, 0
2, 282048, Note_on_c, 0, 36, 0
2, 282068, Note_on_c, 0, 55, 0
2, 282076, Note_on_c, 0, 48, 0
2, 282467, Note_on_c, 0, 60, 50
2, 282467, Note_on_c, 0, 52, 36
2, 282469, Note_on_c, 0, 43, 29
2, 282487, Note_on_c, 0, 36, 21
2, 282562, Control_c, 0, 64, 63
2, 282599, Control_c, 0, 64, 0
2, 282756, Control_c, 0, 64, 63
2, 282770, Control_c, 0, 64, 127
2, 283689, Note_on_c, 0, 36, 0
2, 283692, Note_on_c, 0, 43, 0
2, 283696, Note_on_c, 0, 60, 0
2, 283698, Note_on_c, 0, 52, 0
2, 284005, Note_on_c, 0, 43, 32
2, 284008, Note_on_c, 0, 60, 40
2, 284012, Note_on_c, 0, 52, 20
2, 284027, Note_on_c, 0, 36, 16
2, 285594, Note_on_c, 0, 60, 0
2, 285613, Note_on_c, 0, 36, 0
2, 285614, Note_on_c, 0, 43, 0
2, 285618, Note_on_c, 0, 52, 0
2, 286072, Note_on_c, 0, 52, 21
2, 286072, Note_on_c, 0, 60, 33
2, 286075, Note_on_c, 0, 43, 25
2, 286090, Note_on_c, 0, 36, 25
2, 288464, Note_on_c, 0, 36, 0
2, 288495, Note_on_c, 0, 43, 0
2, 288501, Note_on_c, 0, 52, 0
2, 288502, Note_on_c, 0, 60, 0
2, 288897, Control_c, 0, 67, 0
2, 289385, Control_c, 0, 64, 63
2, 289399, Control_c, 0, 64, 0
2, 289399, End_track
0, 0, End_of_file
