0, 0, Header, 0, 1, 384
1, 0, Start_track
1, 0, Tempo, 512820
1, 0, Title_t, "Kinderszenen OpuVon fremden Länd"
1, 0, Program_c, 0, 0
1, 0, Control_c, 0, 7, 100
1, 3, Control_c, 0, 10, 64
1, 3, Control_c, 0, 91, 127
1, 3, Program_c, 0, 0
1, 6, Control_c, 0, 7, 100
1, 6, Control_c, 0, 10, 64
1, 748, Control_c, 0, 64, 127
1, 748, Control_c, 0, 91, 127
1, 748, Note_on_c, 0, 71, 73
1, 748, Note_on_c, 0, 55, 48
1, 748, Note_on_c, 0, 59, 48
1, 967, Note_on_c, 0, 62, 51
1, 982, Note_on_c, 0, 59, 0
1, 1078, Note_on_c, 0, 55, 0
1, 1186, Note_on_c, 0, 67, 45
1, 1199, Note_on_c, 0, 62, 0
1, 1388, Control_c, 0, 64, 0
1, 1397, Note_on_c, 0, 79, 80
1, 1397, Note_on_c, 0, 67, 0
1, 1397, Note_on_c, 0, 58, 48
1, 1400, Note_on_c, 0, 49, 48
1, 1413, Note_on_c, 0, 71, 0
1, 1447, Control_c, 0, 64, 127
1, 1624, Note_on_c, 0, 64, 52
1, 1638, Note_on_c, 0, 58, 0
1, 1736, Note_on_c, 0, 49, 0
1, 1849, Note_on_c, 0, 67, 45
1, 1863, Note_on_c, 0, 64, 0
1, 2066, Note_on_c, 0, 79, 0
1, 2066, Note_on_c, 0, 78, 76
1, 2066, Note_on_c, 0, 67, 0
1, 2069, Control_c, 0, 64, 0
1, 2069, Note_on_c, 0, 57, 48
1, 2069, Note_on_c, 0, 50, 48
1, 2175, Control_c, 0, 64, 127
1, 2290, Note_on_c, 0, 62, 51
1, 2303, Note_on_c, 0, 57, 0
1, 2396, Note_on_c, 0, 50, 0
1, 2502, Note_on_c, 0, 66, 40
1, 2516, Note_on_c, 0, 62, 0
1, 2556, Note_on_c, 0, 76, 51
1, 2569, Note_on_c, 0, 78, 0
1, 2713, Note_on_c, 0, 74, 51
1, 2713, Note_on_c, 0, 66, 0
1, 2713, Note_on_c, 0, 60, 38
1, 2716, Note_on_c, 0, 54, 38
1, 2726, Note_on_c, 0, 76, 0
1, 2732, Control_c, 0, 64, 0
1, 2820, Control_c, 0, 64, 127
1, 2933, Note_on_c, 0, 62, 38
1, 2947, Note_on_c, 0, 60, 0
1, 3043, Note_on_c, 0, 54, 0
1, 3153, Note_on_c, 0, 69, 38
1, 3166, Note_on_c, 0, 62, 0
1, 3294, Control_c, 0, 64, 0
1, 3364, Note_on_c, 0, 74, 0
1, 3364, Control_c, 0, 91, 127
1, 3364, Note_on_c, 0, 69, 0
1, 3367, Control_c, 0, 91, 127
1, 3367, Control_c, 0, 64, 127
1, 3367, Note_on_c, 0, 71, 73
1, 3370, Note_on_c, 0, 59, 48
1, 3370, Note_on_c, 0, 55, 48
1, 3584, Note_on_c, 0, 62, 51
1, 3599, Note_on_c, 0, 59, 0
1, 3696, Note_on_c, 0, 55, 0
1, 3804, Note_on_c, 0, 67, 45
1, 3818, Note_on_c, 0, 62, 0
1, 4008, Control_c, 0, 64, 0
1, 4017, Note_on_c, 0, 79, 80
1, 4017, Note_on_c, 0, 67, 0
1, 4017, Note_on_c, 0, 49, 48
1, 4020, Note_on_c, 0, 58, 48
1, 4032, Note_on_c, 0, 71, 0
1, 4074, Control_c, 0, 64, 127
1, 4236, Note_on_c, 0, 64, 52
1, 4249, Note_on_c, 0, 58, 0
1, 4345, Note_on_c, 0, 49, 0
1, 4454, Note_on_c, 0, 67, 45
1, 4468, Note_on_c, 0, 64, 0
1, 4668, Note_on_c, 0, 79, 0
1, 4668, Note_on_c, 0, 78, 76
1, 4668, Note_on_c, 0, 67, 0
1, 4671, Control_c, 0, 64, 0
1, 4671, Note_on_c, 0, 57, 48
1, 4671, Note_on_c, 0, 50, 48
1, 4804, Control_c, 0, 64, 127
1, 4888, Note_on_c, 0, 62, 51
1, 4902, Note_on_c, 0, 57, 0
1, 4995, Note_on_c, 0, 50, 0
1, 5101, Note_on_c, 0, 66, 41
1, 5114, Note_on_c, 0, 62, 0
1, 5154, Note_on_c, 0, 76, 51
1, 5167, Note_on_c, 0, 78, 0
1, 5300, Control_c, 0, 64, 0
1, 5309, Note_on_c, 0, 74, 51
1, 5309, Note_on_c, 0, 66, 0
1, 5309, Note_on_c, 0, 60, 38
1, 5312, Note_on_c, 0, 54, 38
1, 5323, Note_on_c, 0, 76, 0
1, 5386, Control_c, 0, 64, 127
1, 5531, Note_on_c, 0, 62, 40
1, 5545, Note_on_c, 0, 60, 0
1, 5642, Note_on_c, 0, 54, 0
1, 5753, Note_on_c, 0, 69, 40
1, 5767, Note_on_c, 0, 62, 0
1, 5914, Control_c, 0, 64, 0
1, 5979, Note_on_c, 0, 74, 0
1, 5979, Control_c, 0, 91, 127
1, 5979, Note_on_c, 0, 69, 0
1, 5982, Control_c, 0, 91, 127
1, 5982, Control_c, 0, 64, 127
1, 5982, Note_on_c, 0, 71, 77
1, 5985, Note_on_c, 0, 55, 48
1, 5985, Note_on_c, 0, 59, 48
1, 6198, Note_on_c, 0, 62, 51
1, 6213, Note_on_c, 0, 59, 0
1, 6309, Note_on_c, 0, 55, 0
1, 6417, Note_on_c, 0, 67, 51
1, 6431, Note_on_c, 0, 62, 0
1, 6643, Note_on_c, 0, 79, 80
1, 6643, Note_on_c, 0, 67, 0
1, 6643, Note_on_c, 0, 47, 52
1, 6646, Note_on_c, 0, 55, 52
1, 6658, Note_on_c, 0, 71, 0
1, 6863, Note_on_c, 0, 62, 56
1, 6973, Note_on_c, 0, 47, 0
1, 7083, Note_on_c, 0, 67, 56
1, 7097, Note_on_c, 0, 62, 0
1, 7305, Note_on_c, 0, 79, 0
1, 7305, Note_on_c, 0, 76, 76
1, 7305, Note_on_c, 0, 67, 0
1, 7308, Control_c, 0, 64, 0
1, 7308, Note_on_c, 0, 48, 52
1, 7372, Control_c, 0, 64, 127
1, 7524, Note_on_c, 0, 55, 0
1, 7524, Note_on_c, 0, 64, 55
1, 7630, Note_on_c, 0, 48, 0
1, 7736, Note_on_c, 0, 67, 55
1, 7749, Note_on_c, 0, 64, 0
1, 7789, Note_on_c, 0, 74, 70
1, 7803, Note_on_c, 0, 76, 0
1, 7953, Note_on_c, 0, 72, 66
1, 7953, Note_on_c, 0, 67, 0
1, 7953, Control_c, 0, 64, 0
1, 7956, Note_on_c, 0, 52, 52
1, 7956, Note_on_c, 0, 55, 52
1, 7967, Note_on_c, 0, 74, 0
1, 8012, Control_c, 0, 64, 127
1, 8177, Note_on_c, 0, 60, 55
1, 8191, Note_on_c, 0, 55, 0
1, 8288, Note_on_c, 0, 52, 0
1, 8400, Note_on_c, 0, 67, 55
1, 8414, Note_on_c, 0, 60, 0
1, 8616, Note_on_c, 0, 72, 0
1, 8616, Note_on_c, 0, 69, 68
1, 8616, Note_on_c, 0, 67, 0
1, 8619, Control_c, 0, 64, 0
1, 8619, Note_on_c, 0, 50, 40
1, 8619, Note_on_c, 0, 55, 40
1, 8669, Control_c, 0, 64, 127
1, 8836, Note_on_c, 0, 60, 45
1, 8850, Note_on_c, 0, 55, 0
1, 8949, Note_on_c, 0, 50, 0
1, 9063, Note_on_c, 0, 60, 0
1, 9063, Note_on_c, 0, 67, 41
1, 9297, Note_on_c, 0, 74, 65
1, 9297, Note_on_c, 0, 67, 0
1, 9297, Note_on_c, 0, 54, 37
1, 9300, Note_on_c, 0, 50, 37
1, 9307, Control_c, 0, 64, 0
1, 9311, Note_on_c, 0, 69, 0
1, 9403, Control_c, 0, 64, 127
1, 9527, Note_on_c, 0, 60, 43
1, 9541, Note_on_c, 0, 54, 0
1, 9642, Note_on_c, 0, 50, 0
1, 9757, Note_on_c, 0, 60, 0
1, 9757, Note_on_c, 0, 69, 37
1, 9997, Note_on_c, 0, 74, 0
1, 9997, Note_on_c, 0, 71, 61
1, 9997, Note_on_c, 0, 69, 0
1, 10000, Control_c, 0, 64, 0
1, 10000, Note_on_c, 0, 43, 35
1, 10000, Note_on_c, 0, 50, 35
1, 10062, Control_c, 0, 64, 127
1, 10225, Note_on_c, 0, 59, 40
1, 10239, Note_on_c, 0, 50, 0
1, 10339, Note_on_c, 0, 43, 0
1, 10453, Note_on_c, 0, 67, 36
1, 10468, Note_on_c, 0, 59, 0
1, 10682, Note_on_c, 0, 67, 0
1, 10682, Note_on_c, 0, 55, 37
1, 10917, Note_on_c, 0, 59, 37
1, 11035, Note_on_c, 0, 55, 0
1, 11153, Note_on_c, 0, 67, 31
1, 11169, Note_on_c, 0, 59, 0
1, 11399, Note_on_c, 0, 71, 0
1, 11399, Control_c, 0, 91, 127
1, 11399, Note_on_c, 0, 67, 0
1, 11402, Control_c, 0, 64, 0
1, 11402, Control_c, 0, 91, 127
1, 11402, Note_on_c, 0, 71, 73
1, 11405, Note_on_c, 0, 59, 48
1, 11405, Note_on_c, 0, 55, 48
1, 11462, Control_c, 0, 64, 127
1, 11619, Note_on_c, 0, 62, 51
1, 11634, Note_on_c, 0, 59, 0
1, 11730, Note_on_c, 0, 55, 0
1, 11839, Note_on_c, 0, 67, 45
1, 11852, Note_on_c, 0, 62, 0
1, 12028, Control_c, 0, 64, 0
1, 12052, Note_on_c, 0, 79, 80
1, 12052, Note_on_c, 0, 67, 0
1, 12052, Note_on_c, 0, 49, 48
1, 12055, Note_on_c, 0, 58, 48
1, 12067, Note_on_c, 0, 71, 0
1, 12095, Control_c, 0, 64, 127
1, 12270, Note_on_c, 0, 58, 0
1, 12270, Note_on_c, 0, 64, 52
1, 12380, Note_on_c, 0, 49, 0
1, 12489, Note_on_c, 0, 67, 45
1, 12502, Note_on_c, 0, 64, 0
1, 12706, Note_on_c, 0, 79, 0
1, 12706, Note_on_c, 0, 78, 76
1, 12706, Note_on_c, 0, 67, 0
1, 12709, Control_c, 0, 64, 0
1, 12709, Note_on_c, 0, 50, 48
1, 12709, Note_on_c, 0, 57, 48
1, 12782, Control_c, 0, 64, 127
1, 12933, Note_on_c, 0, 62, 51
1, 12947, Note_on_c, 0, 57, 0
1, 13042, Note_on_c, 0, 50, 0
1, 13150, Note_on_c, 0, 66, 38
1, 13164, Note_on_c, 0, 62, 0
1, 13205, Note_on_c, 0, 76, 52
1, 13218, Note_on_c, 0, 78, 0
1, 13364, Note_on_c, 0, 74, 52
1, 13364, Note_on_c, 0, 66, 0
1, 13364, Note_on_c, 0, 54, 38
1, 13367, Note_on_c, 0, 60, 38
1, 13378, Note_on_c, 0, 76, 0
1, 13383, Control_c, 0, 64, 0
1, 13441, Control_c, 0, 64, 127
1, 13584, Note_on_c, 0, 62, 38
1, 13598, Note_on_c, 0, 60, 0
1, 13694, Note_on_c, 0, 54, 0
1, 13804, Note_on_c, 0, 69, 38
1, 13818, Note_on_c, 0, 62, 0
1, 13941, Control_c, 0, 64, 0
1, 14015, Note_on_c, 0, 74, 0
1, 14015, Control_c, 0, 91, 127
1, 14015, Note_on_c, 0, 69, 0
1, 14018, Control_c, 0, 91, 127
1, 14018, Note_on_c, 0, 71, 73
1, 14018, Note_on_c, 0, 59, 48
1, 14021, Note_on_c, 0, 55, 48
1, 14029, Control_c, 0, 64, 127
1, 14236, Note_on_c, 0, 62, 51
1, 14251, Note_on_c, 0, 59, 0
1, 14347, Note_on_c, 0, 55, 0
1, 14456, Note_on_c, 0, 67, 45
1, 14469, Note_on_c, 0, 62, 0
1, 14639, Control_c, 0, 64, 0
1, 14667, Note_on_c, 0, 79, 80
1, 14667, Note_on_c, 0, 67, 0
1, 14667, Note_on_c, 0, 49, 48
1, 14670, Note_on_c, 0, 58, 48
1, 14682, Note_on_c, 0, 71, 0
1, 14695, Control_c, 0, 64, 127
1, 14885, Note_on_c, 0, 64, 52
1, 14899, Note_on_c, 0, 58, 0
1, 14995, Note_on_c, 0, 49, 0
1, 15104, Note_on_c, 0, 67, 45
1, 15118, Note_on_c, 0, 64, 0
1, 15321, Note_on_c, 0, 79, 0
1, 15321, Note_on_c, 0, 78, 76
1, 15321, Note_on_c, 0, 67, 0
1, 15324, Control_c, 0, 64, 0
1, 15324, Note_on_c, 0, 50, 48
1, 15324, Note_on_c, 0, 57, 48
1, 15375, Control_c, 0, 64, 127
1, 15542, Note_on_c, 0, 62, 51
1, 15555, Note_on_c, 0, 57, 0
1, 15649, Note_on_c, 0, 50, 0
1, 15757, Note_on_c, 0, 66, 40
1, 15770, Note_on_c, 0, 62, 0
1, 15811, Note_on_c, 0, 76, 51
1, 15824, Note_on_c, 0, 78, 0
1, 15969, Note_on_c, 0, 74, 51
1, 15969, Note_on_c, 0, 66, 0
1, 15969, Note_on_c, 0, 54, 38
1, 15972, Note_on_c, 0, 60, 38
1, 15983, Note_on_c, 0, 76, 0
1, 15983, Control_c, 0, 64, 0
1, 16068, Control_c, 0, 64, 127
1, 16193, Note_on_c, 0, 62, 40
1, 16207, Note_on_c, 0, 60, 0
1, 16304, Note_on_c, 0, 54, 0
1, 16416, Note_on_c, 0, 69, 38
1, 16430, Note_on_c, 0, 62, 0
1, 16643, Note_on_c, 0, 74, 0
1, 16643, Control_c, 0, 91, 127
1, 16643, Note_on_c, 0, 69, 0
1, 16646, Control_c, 0, 64, 0
1, 16646, Control_c, 0, 91, 127
1, 16646, Note_on_c, 0, 71, 77
1, 16649, Note_on_c, 0, 59, 48
1, 16649, Note_on_c, 0, 55, 48
1, 16750, Control_c, 0, 64, 127
1, 16862, Note_on_c, 0, 62, 51
1, 16877, Note_on_c, 0, 59, 0
1, 16973, Note_on_c, 0, 55, 0
1, 17081, Note_on_c, 0, 67, 51
1, 17095, Note_on_c, 0, 62, 0
1, 17306, Note_on_c, 0, 79, 80
1, 17306, Note_on_c, 0, 67, 0
1, 17306, Note_on_c, 0, 47, 52
1, 17309, Note_on_c, 0, 55, 52
1, 17321, Note_on_c, 0, 71, 0
1, 17528, Note_on_c, 0, 62, 56
1, 17639, Note_on_c, 0, 47, 0
1, 17750, Note_on_c, 0, 67, 56
1, 17764, Note_on_c, 0, 62, 0
1, 17972, Note_on_c, 0, 79, 0
1, 17972, Note_on_c, 0, 76, 76
1, 17972, Note_on_c, 0, 67, 0
1, 17975, Control_c, 0, 64, 0
1, 17975, Note_on_c, 0, 48, 52
1, 18029, Control_c, 0, 64, 127
1, 18191, Note_on_c, 0, 55, 0
1, 18191, Note_on_c, 0, 64, 55
1, 18298, Note_on_c, 0, 48, 0
1, 18405, Note_on_c, 0, 67, 55
1, 18418, Note_on_c, 0, 64, 0
1, 18458, Note_on_c, 0, 74, 66
1, 18472, Note_on_c, 0, 76, 0
1, 18623, Note_on_c, 0, 72, 66
1, 18623, Note_on_c, 0, 67, 0
1, 18623, Note_on_c, 0, 52, 52
1, 18626, Note_on_c, 0, 55, 52
1, 18637, Note_on_c, 0, 74, 0
1, 18668, Control_c, 0, 64, 0
1, 18688, Control_c, 0, 64, 127
1, 18847, Note_on_c, 0, 60, 55
1, 18861, Note_on_c, 0, 55, 0
1, 18959, Note_on_c, 0, 52, 0
1, 19070, Note_on_c, 0, 67, 55
1, 19084, Note_on_c, 0, 60, 0
1, 19286, Note_on_c, 0, 72, 0
1, 19286, Note_on_c, 0, 69, 68
1, 19286, Note_on_c, 0, 67, 0
1, 19289, Control_c, 0, 64, 0
1, 19289, Note_on_c, 0, 50, 40
1, 19289, Note_on_c, 0, 55, 40
1, 19368, Control_c, 0, 64, 127
1, 19506, Note_on_c, 0, 60, 45
1, 19520, Note_on_c, 0, 55, 0
1, 19620, Note_on_c, 0, 50, 0
1, 19733, Note_on_c, 0, 67, 41
1, 19748, Note_on_c, 0, 60, 0
1, 19967, Note_on_c, 0, 74, 65
1, 19967, Note_on_c, 0, 67, 0
1, 19967, Note_on_c, 0, 50, 37
1, 19970, Note_on_c, 0, 54, 37
1, 19977, Control_c, 0, 64, 0
1, 19982, Note_on_c, 0, 69, 0
1, 20029, Control_c, 0, 64, 127
1, 20205, Note_on_c, 0, 60, 43
1, 20219, Note_on_c, 0, 54, 0
1, 20323, Note_on_c, 0, 50, 0
1, 20442, Note_on_c, 0, 69, 37
1, 20457, Note_on_c, 0, 60, 0
1, 20683, Note_on_c, 0, 74, 0
1, 20683, Note_on_c, 0, 71, 61
1, 20683, Note_on_c, 0, 69, 0
1, 20686, Control_c, 0, 64, 0
1, 20686, Note_on_c, 0, 43, 35
1, 20686, Note_on_c, 0, 50, 35
1, 20758, Control_c, 0, 64, 127
1, 20911, Note_on_c, 0, 59, 40
1, 20925, Note_on_c, 0, 50, 0
1, 21025, Note_on_c, 0, 43, 0
1, 21139, Note_on_c, 0, 67, 36
1, 21153, Note_on_c, 0, 59, 0
1, 21367, Note_on_c, 0, 67, 0
1, 21367, Note_on_c, 0, 55, 37
1, 21603, Note_on_c, 0, 59, 37
1, 21721, Note_on_c, 0, 55, 0
1, 21839, Note_on_c, 0, 67, 31
1, 21854, Note_on_c, 0, 59, 0
1, 22075, Note_on_c, 0, 71, 0
1, 22075, Note_on_c, 0, 67, 71
1, 22075, Note_on_c, 0, 71, 71
1, 22078, Note_on_c, 0, 67, 0
1, 22078, Control_c, 0, 64, 0
1, 22078, Note_on_c, 0, 52, 50
1, 22179, Control_c, 0, 64, 127
1, 22289, Note_on_c, 0, 59, 50
1, 22503, Note_on_c, 0, 64, 50
1, 22516, Note_on_c, 0, 59, 0
1, 22717, Note_on_c, 0, 69, 68
1, 22717, Note_on_c, 0, 72, 68
1, 22717, Note_on_c, 0, 64, 0
1, 22720, Note_on_c, 0, 52, 0
1, 22720, Note_on_c, 0, 45, 50
1, 22730, Note_on_c, 0, 71, 0
1, 22730, Note_on_c, 0, 67, 0
1, 22763, Control_c, 0, 64, 0
1, 22858, Control_c, 0, 64, 127
1, 22931, Note_on_c, 0, 57, 50
1, 23145, Note_on_c, 0, 64, 50
1, 23158, Note_on_c, 0, 57, 0
1, 23365, Note_on_c, 0, 69, 0
1, 23365, Note_on_c, 0, 72, 0
1, 23365, Note_on_c, 0, 66, 71
1, 23368, Note_on_c, 0, 69, 71
1, 23368, Note_on_c, 0, 64, 0
1, 23368, Note_on_c, 0, 45, 0
1, 23371, Note_on_c, 0, 50, 50
1, 23379, Control_c, 0, 64, 0
1, 23430, Control_c, 0, 64, 127
1, 23579, Note_on_c, 0, 57, 53
1, 23793, Note_on_c, 0, 62, 55
1, 23806, Note_on_c, 0, 57, 0
1, 23846, Note_on_c, 0, 50, 0
1, 23846, Note_on_c, 0, 48, 62
1, 24007, Note_on_c, 0, 67, 70
1, 24007, Note_on_c, 0, 71, 70
1, 24007, Note_on_c, 0, 48, 0
1, 24010, Note_on_c, 0, 62, 0
1, 24010, Note_on_c, 0, 47, 48
1, 24016, Control_c, 0, 64, 0
1, 24020, Note_on_c, 0, 69, 0
1, 24020, Note_on_c, 0, 66, 0
1, 24081, Control_c, 0, 64, 127
1, 24221, Note_on_c, 0, 55, 48
1, 24434, Note_on_c, 0, 62, 48
1, 24448, Note_on_c, 0, 55, 0
1, 24648, Note_on_c, 0, 67, 0
1, 24648, Note_on_c, 0, 71, 0
1, 24648, Note_on_c, 0, 64, 65
1, 24651, Note_on_c, 0, 67, 65
1, 24651, Note_on_c, 0, 62, 0
1, 24651, Note_on_c, 0, 47, 0
1, 24654, Control_c, 0, 64, 0
1, 24654, Note_on_c, 0, 48, 38
1, 24745, Control_c, 0, 64, 127
1, 24867, Note_on_c, 0, 55, 38
1, 25086, Note_on_c, 0, 60, 38
1, 25099, Note_on_c, 0, 55, 0
1, 25304, Note_on_c, 0, 64, 0
1, 25304, Note_on_c, 0, 64, 61
1, 25304, Note_on_c, 0, 69, 61
1, 25307, Note_on_c, 0, 60, 0
1, 25307, Note_on_c, 0, 48, 0
1, 25307, Note_on_c, 0, 42, 38
1, 25314, Control_c, 0, 64, 0
1, 25318, Note_on_c, 0, 67, 0
1, 25440, Control_c, 0, 64, 127
1, 25523, Note_on_c, 0, 54, 38
1, 25742, Note_on_c, 0, 60, 38
1, 25755, Note_on_c, 0, 54, 0
1, 25960, Note_on_c, 0, 69, 0
1, 25960, Note_on_c, 0, 64, 0
1, 25960, Note_on_c, 0, 63, 60
1, 25963, Note_on_c, 0, 66, 60
1, 25963, Note_on_c, 0, 60, 0
1, 25963, Note_on_c, 0, 42, 0
1, 25966, Control_c, 0, 64, 0
1, 25966, Note_on_c, 0, 47, 38
1, 26056, Control_c, 0, 64, 127
1, 26189, Note_on_c, 0, 54, 47
1, 26417, Note_on_c, 0, 59, 47
1, 26432, Note_on_c, 0, 54, 0
1, 26475, Note_on_c, 0, 47, 0
1, 26475, Note_on_c, 0, 45, 53
1, 26600, Control_c, 0, 64, 0
1, 26646, Note_on_c, 0, 66, 0
1, 26646, Note_on_c, 0, 63, 0
1, 26646, Note_on_c, 0, 62, 55
1, 26649, Note_on_c, 0, 67, 55
1, 26649, Note_on_c, 0, 45, 0
1, 26649, Note_on_c, 0, 59, 0
1, 26652, Note_on_c, 0, 43, 38
1, 26700, Control_c, 0, 64, 127
1, 26866, Note_on_c, 0, 55, 38
1, 27087, Note_on_c, 0, 59, 38
1, 27100, Note_on_c, 0, 55, 0
1, 27253, Control_c, 0, 64, 0
1, 27307, Note_on_c, 0, 67, 0
1, 27307, Note_on_c, 0, 62, 0
1, 27307, Note_on_c, 0, 64, 66
1, 27310, Note_on_c, 0, 59, 0
1, 27310, Note_on_c, 0, 43, 0
1, 27310, Note_on_c, 0, 48, 43
1, 27414, Control_c, 0, 64, 127
1, 27527, Note_on_c, 0, 55, 43
1, 27747, Note_on_c, 0, 60, 43
1, 27761, Note_on_c, 0, 55, 0
1, 27968, Note_on_c, 0, 66, 65
1, 27968, Note_on_c, 0, 60, 0
1, 27968, Note_on_c, 0, 48, 0
1, 27971, Note_on_c, 0, 48, 43
1, 27971, Note_on_c, 0, 50, 43
1, 27981, Note_on_c, 0, 64, 0
1, 27996, Control_c, 0, 64, 0
1, 28075, Control_c, 0, 64, 127
1, 28188, Note_on_c, 0, 57, 43
1, 28202, Note_on_c, 0, 50, 0
1, 28408, Note_on_c, 0, 62, 43
1, 28422, Note_on_c, 0, 57, 0
1, 28628, Note_on_c, 0, 66, 0
1, 28628, Note_on_c, 0, 67, 70
1, 28628, Note_on_c, 0, 62, 0
1, 28631, Note_on_c, 0, 48, 0
1, 28631, Control_c, 0, 64, 0
1, 28631, Note_on_c, 0, 47, 43
1, 28634, Note_on_c, 0, 50, 43
1, 28848, Note_on_c, 0, 55, 46
1, 29069, Note_on_c, 0, 55, 0
1, 29069, Note_on_c, 0, 62, 47
1, 29124, Note_on_c, 0, 69, 67
1, 29124, Note_on_c, 0, 47, 0
1, 29124, Note_on_c, 0, 45, 55
1, 29138, Note_on_c, 0, 67, 0
1, 29295, Note_on_c, 0, 71, 71
1, 29295, Note_on_c, 0, 45, 0
1, 29295, Note_on_c, 0, 62, 0
1, 29298, Note_on_c, 0, 43, 43
1, 29320, Note_on_c, 0, 69, 0
1, 29695, Note_on_c, 0, 57, 36
1, 29953, Note_on_c, 0, 62, 36
1, 30016, Note_on_c, 0, 72, 52
1, 30031, Note_on_c, 0, 71, 0
1, 30205, Note_on_c, 0, 72, 0
1, 30205, Note_on_c, 0, 74, 60
1, 30205, Control_c, 0, 91, 127
1, 30208, Note_on_c, 0, 62, 0
1, 30208, Note_on_c, 0, 50, 0
1, 30208, Note_on_c, 0, 43, 0
1, 30211, Note_on_c, 0, 57, 0
1, 30211, Control_c, 0, 91, 127
1, 30211, Note_on_c, 0, 59, 48
1, 30214, Note_on_c, 0, 55, 48
1, 30253, Control_c, 0, 64, 127
1, 30428, Note_on_c, 0, 62, 51
1, 30443, Note_on_c, 0, 59, 0
1, 30541, Note_on_c, 0, 55, 0
1, 30652, Note_on_c, 0, 67, 45
1, 30665, Note_on_c, 0, 62, 0
1, 30853, Control_c, 0, 64, 0
1, 30862, Note_on_c, 0, 79, 65
1, 30862, Note_on_c, 0, 67, 0
1, 30862, Note_on_c, 0, 49, 48
1, 30865, Note_on_c, 0, 58, 48
1, 30876, Note_on_c, 0, 74, 0
1, 30887, Control_c, 0, 64, 127
1, 31083, Note_on_c, 0, 64, 52
1, 31096, Note_on_c, 0, 58, 0
1, 31193, Note_on_c, 0, 49, 0
1, 31303, Note_on_c, 0, 67, 45
1, 31316, Note_on_c, 0, 64, 0
1, 31514, Note_on_c, 0, 79, 0
1, 31514, Note_on_c, 0, 78, 65
1, 31514, Note_on_c, 0, 67, 0
1, 31517, Control_c, 0, 64, 0
1, 31517, Note_on_c, 0, 50, 48
1, 31517, Note_on_c, 0, 57, 48
1, 31577, Control_c, 0, 64, 127
1, 31733, Note_on_c, 0, 62, 51
1, 31746, Note_on_c, 0, 57, 0
1, 31839, Note_on_c, 0, 50, 0
1, 31946, Note_on_c, 0, 66, 41
1, 31960, Note_on_c, 0, 62, 0
1, 32000, Note_on_c, 0, 76, 52
1, 32013, Note_on_c, 0, 78, 0
1, 32157, Note_on_c, 0, 74, 52
1, 32157, Note_on_c, 0, 66, 0
1, 32157, Control_c, 0, 64, 0
1, 32160, Note_on_c, 0, 54, 38
1, 32160, Note_on_c, 0, 60, 38
1, 32171, Note_on_c, 0, 76, 0
1, 32206, Control_c, 0, 64, 127
1, 32382, Note_on_c, 0, 62, 40
1, 32396, Note_on_c, 0, 60, 0
1, 32495, Note_on_c, 0, 54, 0
1, 32607, Note_on_c, 0, 69, 36
1, 32620, Note_on_c, 0, 62, 0
1, 32767, Control_c, 0, 64, 0
1, 32818, Note_on_c, 0, 74, 0
1, 32818, Control_c, 0, 91, 127
1, 32818, Note_on_c, 0, 69, 0
1, 32821, Control_c, 0, 91, 127
1, 32821, Note_on_c, 0, 71, 67
1, 32821, Note_on_c, 0, 59, 48
1, 32824, Note_on_c, 0, 55, 48
1, 32891, Control_c, 0, 64, 127
1, 33038, Note_on_c, 0, 62, 51
1, 33053, Note_on_c, 0, 59, 0
1, 33150, Note_on_c, 0, 55, 0
1, 33259, Note_on_c, 0, 67, 45
1, 33272, Note_on_c, 0, 62, 0
1, 33471, Note_on_c, 0, 79, 75
1, 33471, Note_on_c, 0, 67, 0
1, 33471, Note_on_c, 0, 49, 48
1, 33474, Note_on_c, 0, 58, 48
1, 33480, Control_c, 0, 64, 0
1, 33486, Note_on_c, 0, 71, 0
1, 33547, Control_c, 0, 64, 127
1, 33688, Note_on_c, 0, 64, 52
1, 33702, Note_on_c, 0, 58, 0
1, 33797, Note_on_c, 0, 49, 0
1, 33905, Note_on_c, 0, 67, 45
1, 33918, Note_on_c, 0, 64, 0
1, 34118, Note_on_c, 0, 79, 0
1, 34118, Note_on_c, 0, 78, 71
1, 34118, Note_on_c, 0, 67, 0
1, 34121, Control_c, 0, 64, 0
1, 34121, Note_on_c, 0, 50, 48
1, 34121, Note_on_c, 0, 57, 48
1, 34185, Control_c, 0, 64, 127
1, 34338, Note_on_c, 0, 62, 51
1, 34351, Note_on_c, 0, 57, 0
1, 34443, Note_on_c, 0, 50, 0
1, 34549, Note_on_c, 0, 66, 38
1, 34562, Note_on_c, 0, 62, 0
1, 34601, Note_on_c, 0, 76, 52
1, 34615, Note_on_c, 0, 78, 0
1, 34745, Control_c, 0, 64, 0
1, 34764, Note_on_c, 0, 74, 52
1, 34764, Note_on_c, 0, 66, 0
1, 34764, Note_on_c, 0, 54, 37
1, 34767, Note_on_c, 0, 60, 37
1, 34778, Note_on_c, 0, 76, 0
1, 34803, Control_c, 0, 64, 127
1, 34988, Note_on_c, 0, 62, 40
1, 35002, Note_on_c, 0, 60, 0
1, 35099, Note_on_c, 0, 54, 0
1, 35211, Note_on_c, 0, 69, 38
1, 35225, Note_on_c, 0, 62, 0
1, 35438, Note_on_c, 0, 74, 0
1, 35438, Control_c, 0, 91, 127
1, 35438, Note_on_c, 0, 69, 0
1, 35441, Control_c, 0, 64, 0
1, 35441, Control_c, 0, 91, 127
1, 35441, Note_on_c, 0, 71, 77
1, 35444, Note_on_c, 0, 59, 48
1, 35444, Note_on_c, 0, 55, 48
1, 35526, Control_c, 0, 64, 127
1, 35657, Note_on_c, 0, 62, 51
1, 35672, Note_on_c, 0, 59, 0
1, 35768, Note_on_c, 0, 55, 0
1, 35876, Note_on_c, 0, 67, 51
1, 35890, Note_on_c, 0, 62, 0
1, 36101, Note_on_c, 0, 79, 80
1, 36101, Note_on_c, 0, 67, 0
1, 36101, Note_on_c, 0, 47, 52
1, 36104, Note_on_c, 0, 55, 52
1, 36116, Note_on_c, 0, 71, 0
1, 36323, Note_on_c, 0, 62, 56
1, 36434, Note_on_c, 0, 47, 0
1, 36545, Note_on_c, 0, 67, 56
1, 36559, Note_on_c, 0, 62, 0
1, 36767, Note_on_c, 0, 79, 0
1, 36767, Note_on_c, 0, 76, 76
1, 36767, Note_on_c, 0, 67, 0
1, 36770, Control_c, 0, 64, 0
1, 36770, Note_on_c, 0, 48, 52
1, 36820, Control_c, 0, 64, 127
1, 36986, Note_on_c, 0, 55, 0
1, 36986, Note_on_c, 0, 64, 55
1, 37093, Note_on_c, 0, 48, 0
1, 37200, Note_on_c, 0, 67, 55
1, 37213, Note_on_c, 0, 64, 0
1, 37253, Note_on_c, 0, 74, 70
1, 37267, Note_on_c, 0, 76, 0
1, 37417, Note_on_c, 0, 72, 66
1, 37417, Note_on_c, 0, 67, 0
1, 37417, Note_on_c, 0, 52, 52
1, 37420, Note_on_c, 0, 55, 52
1, 37431, Note_on_c, 0, 74, 0
1, 37446, Control_c, 0, 64, 0
1, 37507, Control_c, 0, 64, 127
1, 37641, Note_on_c, 0, 60, 55
1, 37655, Note_on_c, 0, 55, 0
1, 37752, Note_on_c, 0, 52, 0
1, 37864, Note_on_c, 0, 67, 55
1, 37878, Note_on_c, 0, 60, 0
1, 38080, Note_on_c, 0, 72, 0
1, 38080, Note_on_c, 0, 69, 68
1, 38080, Note_on_c, 0, 67, 0
1, 38083, Control_c, 0, 64, 0
1, 38083, Note_on_c, 0, 50, 40
1, 38083, Note_on_c, 0, 55, 40
1, 38133, Control_c, 0, 64, 127
1, 38300, Note_on_c, 0, 60, 45
1, 38314, Note_on_c, 0, 55, 0
1, 38413, Note_on_c, 0, 50, 0
1, 38527, Note_on_c, 0, 67, 41
1, 38541, Note_on_c, 0, 60, 0
1, 38761, Note_on_c, 0, 74, 65
1, 38761, Note_on_c, 0, 67, 0
1, 38761, Note_on_c, 0, 50, 37
1, 38764, Note_on_c, 0, 54, 37
1, 38775, Note_on_c, 0, 69, 0
1, 38817, Control_c, 0, 64, 0
1, 38847, Control_c, 0, 64, 127
1, 38991, Note_on_c, 0, 60, 43
1, 39005, Note_on_c, 0, 54, 0
1, 39106, Note_on_c, 0, 50, 0
1, 39221, Note_on_c, 0, 69, 37
1, 39236, Note_on_c, 0, 60, 0
1, 39461, Note_on_c, 0, 74, 0
1, 39461, Note_on_c, 0, 71, 61
1, 39461, Note_on_c, 0, 69, 0
1, 39464, Control_c, 0, 64, 0
1, 39464, Note_on_c, 0, 43, 35
1, 39464, Note_on_c, 0, 50, 35
1, 39536, Control_c, 0, 64, 127
1, 39689, Note_on_c, 0, 59, 40
1, 39917, Note_on_c, 0, 67, 36
1, 40146, Note_on_c, 0, 67, 0
1, 40381, Note_on_c, 0, 59, 0
1, 40381, Note_on_c, 0, 59, 37
1, 40617, Note_on_c, 0, 59, 0
1, 40617, Note_on_c, 0, 67, 31
1, 40892, Note_on_c, 0, 71, 0
1, 40892, Note_on_c, 0, 67, 71
1, 40892, Note_on_c, 0, 71, 71
1, 40895, Note_on_c, 0, 67, 0
1, 40895, Note_on_c, 0, 50, 0
1, 40895, Note_on_c, 0, 43, 0
1, 40898, Control_c, 0, 64, 0
1, 40898, Note_on_c, 0, 52, 50
1, 40996, Control_c, 0, 64, 127
1, 41106, Note_on_c, 0, 59, 50
1, 41320, Note_on_c, 0, 64, 50
1, 41333, Note_on_c, 0, 59, 0
1, 41525, Control_c, 0, 64, 0
1, 41534, Note_on_c, 0, 69, 68
1, 41534, Note_on_c, 0, 72, 68
1, 41534, Note_on_c, 0, 64, 0
1, 41537, Note_on_c, 0, 52, 0
1, 41537, Note_on_c, 0, 45, 50
1, 41547, Note_on_c, 0, 71, 0
1, 41547, Note_on_c, 0, 67, 0
1, 41638, Control_c, 0, 64, 127
1, 41748, Note_on_c, 0, 57, 50
1, 41962, Note_on_c, 0, 64, 50
1, 41976, Note_on_c, 0, 57, 0
1, 42182, Note_on_c, 0, 69, 0
1, 42182, Note_on_c, 0, 72, 0
1, 42182, Note_on_c, 0, 66, 71
1, 42185, Note_on_c, 0, 69, 71
1, 42185, Note_on_c, 0, 64, 0
1, 42185, Note_on_c, 0, 45, 0
1, 42188, Control_c, 0, 64, 0
1, 42188, Note_on_c, 0, 50, 50
1, 42253, Control_c, 0, 64, 127
1, 42396, Note_on_c, 0, 57, 56
1, 42610, Note_on_c, 0, 62, 55
1, 42623, Note_on_c, 0, 57, 0
1, 42663, Note_on_c, 0, 50, 0
1, 42663, Note_on_c, 0, 48, 65
1, 42762, Control_c, 0, 64, 0
1, 42824, Note_on_c, 0, 67, 70
1, 42824, Note_on_c, 0, 71, 70
1, 42824, Note_on_c, 0, 48, 0
1, 42827, Note_on_c, 0, 62, 0
1, 42827, Note_on_c, 0, 47, 48
1, 42837, Note_on_c, 0, 69, 0
1, 42837, Note_on_c, 0, 66, 0
1, 42861, Control_c, 0, 64, 127
1, 43038, Note_on_c, 0, 55, 48
1, 43252, Note_on_c, 0, 62, 48
1, 43265, Note_on_c, 0, 55, 0
1, 43466, Note_on_c, 0, 67, 0
1, 43466, Note_on_c, 0, 71, 0
1, 43466, Note_on_c, 0, 64, 65
1, 43469, Note_on_c, 0, 67, 65
1, 43469, Note_on_c, 0, 62, 0
1, 43469, Note_on_c, 0, 47, 0
1, 43472, Control_c, 0, 64, 0
1, 43472, Note_on_c, 0, 48, 38
1, 43563, Control_c, 0, 64, 127
1, 43684, Note_on_c, 0, 55, 38
1, 43903, Note_on_c, 0, 60, 38
1, 43917, Note_on_c, 0, 55, 0
1, 44122, Note_on_c, 0, 64, 0
1, 44122, Note_on_c, 0, 64, 61
1, 44122, Note_on_c, 0, 69, 61
1, 44125, Note_on_c, 0, 60, 0
1, 44125, Note_on_c, 0, 48, 0
1, 44125, Note_on_c, 0, 42, 38
1, 44135, Note_on_c, 0, 67, 0
1, 44169, Control_c, 0, 64, 0
1, 44219, Control_c, 0, 64, 127
1, 44340, Note_on_c, 0, 54, 38
1, 44559, Note_on_c, 0, 60, 38
1, 44572, Note_on_c, 0, 54, 0
1, 44777, Note_on_c, 0, 69, 0
1, 44777, Note_on_c, 0, 64, 0
1, 44777, Note_on_c, 0, 63, 60
1, 44780, Note_on_c, 0, 66, 60
1, 44780, Note_on_c, 0, 60, 0
1, 44780, Note_on_c, 0, 42, 0
1, 44783, Control_c, 0, 64, 0
1, 44783, Note_on_c, 0, 47, 38
1, 44879, Control_c, 0, 64, 127
1, 45006, Note_on_c, 0, 54, 46
1, 45235, Note_on_c, 0, 59, 47
1, 45249, Note_on_c, 0, 54, 0
1, 45292, Note_on_c, 0, 47, 0
1, 45292, Note_on_c, 0, 45, 53
1, 45393, Control_c, 0, 64, 0
1, 45463, Note_on_c, 0, 66, 0
1, 45463, Note_on_c, 0, 63, 0
1, 45463, Note_on_c, 0, 62, 55
1, 45466, Note_on_c, 0, 67, 55
1, 45466, Note_on_c, 0, 45, 0
1, 45466, Note_on_c, 0, 59, 0
1, 45469, Note_on_c, 0, 43, 38
1, 45521, Control_c, 0, 64, 127
1, 45684, Note_on_c, 0, 55, 38
1, 45904, Note_on_c, 0, 59, 38
1, 45918, Note_on_c, 0, 55, 0
1, 46061, Control_c, 0, 64, 0
1, 46124, Note_on_c, 0, 67, 0
1, 46124, Note_on_c, 0, 62, 0
1, 46124, Note_on_c, 0, 64, 66
1, 46127, Note_on_c, 0, 59, 0
1, 46127, Note_on_c, 0, 43, 0
1, 46127, Note_on_c, 0, 48, 43
1, 46201, Control_c, 0, 64, 127
1, 46344, Note_on_c, 0, 55, 43
1, 46565, Note_on_c, 0, 60, 43
1, 46578, Note_on_c, 0, 55, 0
1, 46785, Note_on_c, 0, 66, 65
1, 46785, Note_on_c, 0, 60, 0
1, 46785, Note_on_c, 0, 48, 0
1, 46788, Note_on_c, 0, 48, 43
1, 46788, Note_on_c, 0, 50, 43
1, 46799, Note_on_c, 0, 64, 0
1, 46804, Control_c, 0, 64, 0
1, 46911, Control_c, 0, 64, 127
1, 47005, Note_on_c, 0, 57, 43
1, 47019, Note_on_c, 0, 50, 0
1, 47225, Note_on_c, 0, 62, 43
1, 47239, Note_on_c, 0, 57, 0
1, 47445, Note_on_c, 0, 66, 0
1, 47445, Note_on_c, 0, 67, 70
1, 47445, Note_on_c, 0, 62, 0
1, 47448, Note_on_c, 0, 48, 0
1, 47448, Control_c, 0, 64, 0
1, 47448, Note_on_c, 0, 47, 43
1, 47451, Note_on_c, 0, 50, 43
1, 47666, Note_on_c, 0, 55, 47
1, 47886, Note_on_c, 0, 55, 0
1, 47886, Note_on_c, 0, 62, 47
1, 47941, Note_on_c, 0, 69, 67
1, 47941, Note_on_c, 0, 47, 0
1, 47941, Note_on_c, 0, 45, 53
1, 47955, Note_on_c, 0, 67, 0
1, 48112, Note_on_c, 0, 69, 0
1, 48112, Note_on_c, 0, 71, 71
1, 48112, Note_on_c, 0, 45, 0
1, 48115, Note_on_c, 0, 62, 0
1, 48115, Note_on_c, 0, 43, 43
1, 48512, Note_on_c, 0, 57, 36
1, 48770, Note_on_c, 0, 62, 36
1, 48833, Note_on_c, 0, 72, 52
1, 48849, Note_on_c, 0, 71, 0
1, 49022, Note_on_c, 0, 72, 0
1, 49022, Note_on_c, 0, 74, 60
1, 49022, Control_c, 0, 91, 127
1, 49025, Note_on_c, 0, 62, 0
1, 49025, Note_on_c, 0, 50, 0
1, 49025, Note_on_c, 0, 43, 0
1, 49028, Note_on_c, 0, 57, 0
1, 49028, Control_c, 0, 91, 127
1, 49028, Note_on_c, 0, 59, 48
1, 49031, Note_on_c, 0, 55, 48
1, 49080, Control_c, 0, 64, 127
1, 49245, Note_on_c, 0, 62, 51
1, 49261, Note_on_c, 0, 59, 0
1, 49358, Note_on_c, 0, 55, 0
1, 49469, Note_on_c, 0, 67, 45
1, 49482, Note_on_c, 0, 62, 0
1, 49671, Control_c, 0, 64, 0
1, 49680, Note_on_c, 0, 79, 65
1, 49680, Note_on_c, 0, 67, 0
1, 49680, Note_on_c, 0, 49, 48
1, 49683, Note_on_c, 0, 58, 48
1, 49693, Note_on_c, 0, 74, 0
1, 49723, Control_c, 0, 64, 127
1, 49898, Note_on_c, 0, 64, 52
1, 49912, Note_on_c, 0, 58, 0
1, 50008, Note_on_c, 0, 49, 0
1, 50117, Note_on_c, 0, 67, 45
1, 50130, Note_on_c, 0, 64, 0
1, 50328, Note_on_c, 0, 79, 0
1, 50328, Note_on_c, 0, 78, 65
1, 50328, Note_on_c, 0, 67, 0
1, 50331, Control_c, 0, 64, 0
1, 50331, Note_on_c, 0, 50, 48
1, 50331, Note_on_c, 0, 57, 48
1, 50396, Control_c, 0, 64, 127
1, 50551, Note_on_c, 0, 62, 51
1, 50565, Note_on_c, 0, 57, 0
1, 50658, Note_on_c, 0, 50, 0
1, 50764, Note_on_c, 0, 66, 38
1, 50777, Note_on_c, 0, 62, 0
1, 50817, Note_on_c, 0, 76, 51
1, 50830, Note_on_c, 0, 78, 0
1, 50973, Note_on_c, 0, 74, 51
1, 50973, Note_on_c, 0, 66, 0
1, 50973, Control_c, 0, 64, 0
1, 50976, Note_on_c, 0, 54, 37
1, 50976, Note_on_c, 0, 60, 37
1, 50987, Note_on_c, 0, 76, 0
1, 51057, Control_c, 0, 64, 127
1, 51198, Note_on_c, 0, 62, 40
1, 51212, Note_on_c, 0, 60, 0
1, 51311, Note_on_c, 0, 54, 0
1, 51423, Note_on_c, 0, 69, 38
1, 51436, Note_on_c, 0, 62, 0
1, 51592, Control_c, 0, 64, 0
1, 51634, Note_on_c, 0, 74, 0
1, 51634, Control_c, 0, 91, 127
1, 51634, Note_on_c, 0, 69, 0
1, 51637, Control_c, 0, 91, 127
1, 51637, Note_on_c, 0, 71, 67
1, 51637, Note_on_c, 0, 59, 48
1, 51640, Note_on_c, 0, 55, 48
1, 51688, Control_c, 0, 64, 127
1, 51854, Note_on_c, 0, 62, 51
1, 51869, Note_on_c, 0, 59, 0
1, 51966, Note_on_c, 0, 55, 0
1, 52075, Note_on_c, 0, 67, 45
1, 52088, Note_on_c, 0, 62, 0
1, 52287, Note_on_c, 0, 79, 75
1, 52287, Note_on_c, 0, 67, 0
1, 52287, Note_on_c, 0, 49, 48
1, 52290, Note_on_c, 0, 58, 48
1, 52296, Control_c, 0, 64, 0
1, 52302, Note_on_c, 0, 71, 0
1, 52359, Control_c, 0, 64, 127
1, 52504, Note_on_c, 0, 64, 52
1, 52518, Note_on_c, 0, 58, 0
1, 52612, Note_on_c, 0, 49, 0
1, 52721, Note_on_c, 0, 67, 45
1, 52734, Note_on_c, 0, 64, 0
1, 52933, Note_on_c, 0, 79, 0
1, 52933, Note_on_c, 0, 78, 71
1, 52933, Note_on_c, 0, 67, 0
1, 52936, Note_on_c, 0, 50, 48
1, 52936, Note_on_c, 0, 57, 48
1, 52952, Control_c, 0, 64, 0
1, 53005, Control_c, 0, 64, 127
1, 53150, Note_on_c, 0, 62, 51
1, 53164, Note_on_c, 0, 57, 0
1, 53257, Note_on_c, 0, 50, 0
1, 53363, Note_on_c, 0, 66, 40
1, 53376, Note_on_c, 0, 62, 0
1, 53416, Note_on_c, 0, 76, 52
1, 53429, Note_on_c, 0, 78, 0
1, 53573, Note_on_c, 0, 74, 52
1, 53573, Note_on_c, 0, 66, 0
1, 53573, Note_on_c, 0, 54, 38
1, 53576, Note_on_c, 0, 60, 38
1, 53587, Note_on_c, 0, 76, 0
1, 53602, Control_c, 0, 64, 0
1, 53657, Control_c, 0, 64, 127
1, 53797, Note_on_c, 0, 62, 40
1, 53811, Note_on_c, 0, 60, 0
1, 53908, Note_on_c, 0, 54, 0
1, 54020, Note_on_c, 0, 69, 37
1, 54034, Note_on_c, 0, 62, 0
1, 54247, Note_on_c, 0, 74, 0
1, 54247, Control_c, 0, 91, 127
1, 54247, Note_on_c, 0, 69, 0
1, 54250, Control_c, 0, 64, 0
1, 54250, Control_c, 0, 91, 127
1, 54250, Note_on_c, 0, 71, 77
1, 54253, Note_on_c, 0, 59, 48
1, 54253, Note_on_c, 0, 55, 48
1, 54421, Control_c, 0, 64, 127
1, 54466, Note_on_c, 0, 62, 51
1, 54481, Note_on_c, 0, 59, 0
1, 54577, Note_on_c, 0, 55, 0
1, 54685, Note_on_c, 0, 67, 51
1, 54699, Note_on_c, 0, 62, 0
1, 54910, Note_on_c, 0, 79, 80
1, 54910, Note_on_c, 0, 67, 0
1, 54910, Note_on_c, 0, 47, 52
1, 54913, Note_on_c, 0, 55, 52
1, 54925, Note_on_c, 0, 71, 0
1, 55132, Note_on_c, 0, 62, 56
1, 55243, Note_on_c, 0, 47, 0
1, 55354, Note_on_c, 0, 67, 56
1, 55368, Note_on_c, 0, 62, 0
1, 55576, Note_on_c, 0, 79, 0
1, 55576, Note_on_c, 0, 76, 76
1, 55576, Note_on_c, 0, 67, 0
1, 55579, Control_c, 0, 64, 0
1, 55579, Note_on_c, 0, 48, 52
1, 55651, Control_c, 0, 64, 127
1, 55801, Note_on_c, 0, 55, 0
1, 55801, Note_on_c, 0, 64, 55
1, 55909, Note_on_c, 0, 48, 0
1, 56017, Note_on_c, 0, 67, 55
1, 56030, Note_on_c, 0, 64, 0
1, 56070, Note_on_c, 0, 74, 70
1, 56084, Note_on_c, 0, 76, 0
1, 56229, Note_on_c, 0, 72, 66
1, 56229, Note_on_c, 0, 67, 0
1, 56229, Note_on_c, 0, 52, 52
1, 56232, Note_on_c, 0, 55, 52
1, 56243, Note_on_c, 0, 74, 0
1, 56248, Control_c, 0, 64, 0
1, 56307, Control_c, 0, 64, 127
1, 56452, Note_on_c, 0, 60, 55
1, 56466, Note_on_c, 0, 55, 0
1, 56564, Note_on_c, 0, 52, 0
1, 56676, Note_on_c, 0, 67, 55
1, 56689, Note_on_c, 0, 60, 0
1, 56891, Note_on_c, 0, 72, 0
1, 56891, Note_on_c, 0, 69, 68
1, 56891, Note_on_c, 0, 67, 0
1, 56894, Note_on_c, 0, 50, 40
1, 56894, Note_on_c, 0, 55, 40
1, 56901, Control_c, 0, 64, 0
1, 56955, Control_c, 0, 64, 127
1, 57112, Note_on_c, 0, 60, 45
1, 57126, Note_on_c, 0, 55, 0
1, 57225, Note_on_c, 0, 50, 0
1, 57338, Note_on_c, 0, 67, 41
1, 57353, Note_on_c, 0, 60, 0
1, 57572, Note_on_c, 0, 74, 65
1, 57572, Note_on_c, 0, 67, 0
1, 57572, Note_on_c, 0, 50, 37
1, 57575, Note_on_c, 0, 54, 37
1, 57587, Note_on_c, 0, 69, 0
1, 57609, Control_c, 0, 64, 0
1, 57654, Control_c, 0, 64, 127
1, 57806, Note_on_c, 0, 60, 43
1, 57821, Note_on_c, 0, 54, 0
1, 57923, Note_on_c, 0, 50, 0
1, 58040, Note_on_c, 0, 69, 37
1, 58055, Note_on_c, 0, 60, 0
1, 58281, Note_on_c, 0, 74, 0
1, 58281, Note_on_c, 0, 71, 61
1, 58281, Note_on_c, 0, 69, 0
1, 58284, Control_c, 0, 64, 0
1, 58284, Note_on_c, 0, 43, 35
1, 58284, Note_on_c, 0, 50, 35
1, 58365, Control_c, 0, 64, 127
1, 58522, Note_on_c, 0, 59, 40
1, 58764, Note_on_c, 0, 67, 36
1, 59005, Note_on_c, 0, 67, 0
1, 59314, Note_on_c, 0, 59, 0
1, 59314, Note_on_c, 0, 59, 35
1, 59623, Note_on_c, 0, 67, 29
1, 59642, Note_on_c, 0, 59, 0
1, 59864, Control_c, 0, 64, 0
1, 59932, Note_on_c, 0, 71, 0
1, 59932, Note_on_c, 0, 43, 0
1, 59932, Note_on_c, 0, 50, 0
1, 59935, Note_on_c, 0, 67, 0
1, 61433, End_track
0, 0, End_of_file
