0, 0, Header, 0, 1, 384
1, 0, Start_track
1, 0, Tempo, 512820
1, 0, Title_t, "Kinderszenen OpuWichtige Begeben"
1, 0, Program_c, 0, 0
1, 0, Control_c, 0, 7, 100
1, 3, Control_c, 0, 91, 127
1, 3, Program_c, 0, 0
1, 3, Control_c, 0, 7, 100
1, 6, Control_c, 0, 64, 0
1, 623, Control_c, 0, 91, 127
1, 623, Control_c, 0, 91, 127
1, 748, Note_on_c, 0, 73, 100
1, 748, Note_on_c, 0, 81, 110
1, 748, Note_on_c, 0, 76, 100
1, 751, Note_on_c, 0, 57, 87
1, 751, Note_on_c, 0, 45, 79
1, 754, Control_c, 0, 64, 127
1, 839, Note_on_c, 0, 45, 0
1, 839, Note_on_c, 0, 57, 0
1, 930, Note_on_c, 0, 61, 87
1, 930, Note_on_c, 0, 49, 79
1, 1021, Note_on_c, 0, 49, 0
1, 1021, Note_on_c, 0, 61, 0
1, 1112, Note_on_c, 0, 76, 0
1, 1112, Note_on_c, 0, 81, 0
1, 1112, Note_on_c, 0, 73, 0
1, 1115, Note_on_c, 0, 71, 100
1, 1115, Note_on_c, 0, 80, 110
1, 1115, Note_on_c, 0, 76, 100
1, 1118, Note_on_c, 0, 64, 91
1, 1118, Note_on_c, 0, 52, 82
1, 1118, Control_c, 0, 64, 0
1, 1173, Control_c, 0, 64, 127
1, 1380, Control_c, 0, 64, 0
1, 1385, Note_on_c, 0, 76, 0
1, 1385, Note_on_c, 0, 80, 0
1, 1385, Note_on_c, 0, 71, 0
1, 1388, Note_on_c, 0, 69, 91
1, 1388, Note_on_c, 0, 75, 91
1, 1388, Note_on_c, 0, 78, 100
1, 1391, Note_on_c, 0, 52, 0
1, 1391, Note_on_c, 0, 64, 0
1, 1391, Note_on_c, 0, 60, 78
1, 1394, Note_on_c, 0, 48, 71
1, 1476, Note_on_c, 0, 78, 0
1, 1476, Note_on_c, 0, 75, 0
1, 1476, Note_on_c, 0, 69, 0
1, 1479, Note_on_c, 0, 76, 104
1, 1479, Note_on_c, 0, 73, 94
1, 1479, Note_on_c, 0, 68, 94
1, 1482, Note_on_c, 0, 48, 0
1, 1482, Note_on_c, 0, 60, 0
1, 1482, Note_on_c, 0, 49, 75
1, 1485, Note_on_c, 0, 61, 83
1, 1589, Control_c, 0, 64, 127
1, 1824, Note_on_c, 0, 68, 0
1, 1824, Note_on_c, 0, 73, 0
1, 1824, Note_on_c, 0, 76, 0
1, 1827, Note_on_c, 0, 61, 0
1, 1827, Note_on_c, 0, 49, 0
1, 1827, Control_c, 0, 64, 0
1, 1839, Note_on_c, 0, 69, 89
1, 1839, Note_on_c, 0, 73, 89
1, 1839, Note_on_c, 0, 78, 98
1, 1842, Note_on_c, 0, 45, 73
1, 1842, Note_on_c, 0, 57, 81
1, 1887, Control_c, 0, 64, 127
1, 2188, Note_on_c, 0, 78, 0
1, 2188, Note_on_c, 0, 73, 0
1, 2188, Note_on_c, 0, 69, 0
1, 2191, Note_on_c, 0, 57, 0
1, 2191, Note_on_c, 0, 45, 0
1, 2203, Note_on_c, 0, 75, 99
1, 2203, Note_on_c, 0, 66, 90
1, 2203, Note_on_c, 0, 71, 90
1, 2206, Control_c, 0, 64, 0
1, 2206, Note_on_c, 0, 59, 80
1, 2206, Note_on_c, 0, 47, 73
1, 2272, Control_c, 0, 64, 127
1, 2547, Note_on_c, 0, 71, 0
1, 2547, Note_on_c, 0, 66, 0
1, 2547, Note_on_c, 0, 75, 0
1, 2550, Note_on_c, 0, 47, 0
1, 2550, Note_on_c, 0, 59, 0
1, 2562, Note_on_c, 0, 68, 91
1, 2562, Note_on_c, 0, 71, 91
1, 2562, Note_on_c, 0, 76, 101
1, 2565, Note_on_c, 0, 52, 78
1, 2565, Note_on_c, 0, 40, 71
1, 2565, Control_c, 0, 64, 0
1, 2636, Control_c, 0, 64, 127
1, 2803, Control_c, 0, 64, 0
1, 2829, Note_on_c, 0, 76, 0
1, 2829, Note_on_c, 0, 71, 0
1, 2829, Note_on_c, 0, 68, 0
1, 2832, Note_on_c, 0, 40, 0
1, 2832, Note_on_c, 0, 52, 0
1, 2916, Note_on_c, 0, 74, 101
1, 2916, Note_on_c, 0, 71, 91
1, 2916, Note_on_c, 0, 66, 101
1, 2919, Note_on_c, 0, 54, 79
1, 2919, Note_on_c, 0, 42, 72
1, 2957, Control_c, 0, 64, 127
1, 3004, Note_on_c, 0, 66, 0
1, 3004, Note_on_c, 0, 42, 0
1, 3004, Note_on_c, 0, 54, 0
1, 3092, Note_on_c, 0, 64, 101
1, 3092, Note_on_c, 0, 56, 79
1, 3092, Note_on_c, 0, 44, 72
1, 3185, Note_on_c, 0, 64, 0
1, 3185, Note_on_c, 0, 44, 0
1, 3185, Note_on_c, 0, 56, 0
1, 3277, Note_on_c, 0, 71, 0
1, 3277, Note_on_c, 0, 74, 0
1, 3277, Note_on_c, 0, 64, 92
1, 3280, Note_on_c, 0, 73, 102
1, 3280, Note_on_c, 0, 69, 92
1, 3280, Note_on_c, 0, 57, 83
1, 3283, Note_on_c, 0, 45, 75
1, 3283, Control_c, 0, 64, 0
1, 3354, Control_c, 0, 64, 127
1, 3494, Control_c, 0, 64, 0
1, 3545, Note_on_c, 0, 69, 0
1, 3545, Note_on_c, 0, 73, 0
1, 3545, Note_on_c, 0, 64, 0
1, 3548, Note_on_c, 0, 62, 88
1, 3548, Note_on_c, 0, 68, 88
1, 3548, Note_on_c, 0, 71, 97
1, 3551, Note_on_c, 0, 45, 0
1, 3551, Note_on_c, 0, 57, 0
1, 3551, Note_on_c, 0, 53, 75
1, 3554, Note_on_c, 0, 41, 68
1, 3635, Note_on_c, 0, 71, 0
1, 3635, Note_on_c, 0, 68, 0
1, 3635, Note_on_c, 0, 62, 0
1, 3638, Note_on_c, 0, 69, 97
1, 3638, Note_on_c, 0, 66, 88
1, 3638, Note_on_c, 0, 61, 88
1, 3641, Note_on_c, 0, 41, 0
1, 3641, Note_on_c, 0, 53, 0
1, 3641, Note_on_c, 0, 42, 68
1, 3644, Note_on_c, 0, 54, 75
1, 3746, Control_c, 0, 64, 127
1, 3978, Note_on_c, 0, 61, 0
1, 3978, Note_on_c, 0, 66, 0
1, 3978, Note_on_c, 0, 69, 0
1, 3981, Note_on_c, 0, 54, 0
1, 3981, Note_on_c, 0, 42, 0
1, 3992, Note_on_c, 0, 62, 91
1, 3992, Note_on_c, 0, 66, 91
1, 3992, Note_on_c, 0, 71, 100
1, 3995, Note_on_c, 0, 38, 71
1, 3995, Note_on_c, 0, 50, 78
1, 4001, Control_c, 0, 64, 0
1, 4083, Control_c, 0, 64, 127
1, 4341, Note_on_c, 0, 71, 0
1, 4341, Note_on_c, 0, 66, 0
1, 4341, Note_on_c, 0, 62, 0
1, 4344, Note_on_c, 0, 50, 0
1, 4344, Note_on_c, 0, 38, 0
1, 4356, Note_on_c, 0, 68, 97
1, 4356, Note_on_c, 0, 59, 88
1, 4356, Note_on_c, 0, 64, 88
1, 4359, Control_c, 0, 64, 0
1, 4359, Note_on_c, 0, 52, 74
1, 4359, Note_on_c, 0, 40, 67
1, 4441, Control_c, 0, 64, 127
1, 4702, Note_on_c, 0, 64, 0
1, 4702, Note_on_c, 0, 59, 0
1, 4702, Note_on_c, 0, 68, 0
1, 4705, Note_on_c, 0, 40, 0
1, 4705, Note_on_c, 0, 52, 0
1, 4712, Control_c, 0, 64, 0
1, 4717, Note_on_c, 0, 61, 88
1, 4717, Note_on_c, 0, 64, 88
1, 4717, Note_on_c, 0, 69, 97
1, 4720, Note_on_c, 0, 45, 74
1, 4720, Note_on_c, 0, 33, 67
1, 4770, Control_c, 0, 64, 127
1, 4913, Control_c, 0, 64, 0
1, 4987, Note_on_c, 0, 69, 0
1, 4987, Note_on_c, 0, 64, 0
1, 4987, Note_on_c, 0, 61, 0
1, 4990, Note_on_c, 0, 33, 0
1, 4990, Note_on_c, 0, 45, 0
1, 5078, Note_on_c, 0, 64, 86
1, 5078, Note_on_c, 0, 61, 86
1, 5078, Note_on_c, 0, 69, 95
1, 5081, Note_on_c, 0, 45, 75
1, 5081, Note_on_c, 0, 33, 68
1, 5119, Control_c, 0, 64, 127
1, 5167, Note_on_c, 0, 33, 0
1, 5167, Note_on_c, 0, 45, 0
1, 5256, Note_on_c, 0, 37, 68
1, 5256, Note_on_c, 0, 49, 75
1, 5346, Note_on_c, 0, 49, 0
1, 5346, Note_on_c, 0, 37, 0
1, 5435, Note_on_c, 0, 69, 0
1, 5435, Note_on_c, 0, 61, 0
1, 5435, Note_on_c, 0, 64, 0
1, 5438, Note_on_c, 0, 59, 86
1, 5438, Note_on_c, 0, 64, 95
1, 5438, Note_on_c, 0, 68, 95
1, 5441, Control_c, 0, 64, 0
1, 5441, Note_on_c, 0, 40, 71
1, 5441, Note_on_c, 0, 52, 78
1, 5490, Control_c, 0, 64, 127
1, 5669, Control_c, 0, 64, 0
1, 5703, Note_on_c, 0, 68, 0
1, 5703, Note_on_c, 0, 64, 0
1, 5703, Note_on_c, 0, 59, 0
1, 5706, Note_on_c, 0, 63, 86
1, 5706, Note_on_c, 0, 57, 78
1, 5706, Note_on_c, 0, 66, 86
1, 5709, Note_on_c, 0, 52, 0
1, 5709, Note_on_c, 0, 40, 0
1, 5709, Note_on_c, 0, 36, 61
1, 5712, Note_on_c, 0, 48, 67
1, 5793, Note_on_c, 0, 66, 0
1, 5793, Note_on_c, 0, 57, 0
1, 5793, Note_on_c, 0, 63, 0
1, 5796, Note_on_c, 0, 56, 81
1, 5796, Note_on_c, 0, 64, 89
1, 5796, Note_on_c, 0, 61, 81
1, 5799, Note_on_c, 0, 48, 0
1, 5799, Note_on_c, 0, 36, 0
1, 5799, Note_on_c, 0, 37, 65
1, 5802, Note_on_c, 0, 49, 72
1, 5866, Control_c, 0, 64, 127
1, 6141, Note_on_c, 0, 61, 0
1, 6141, Note_on_c, 0, 64, 0
1, 6141, Note_on_c, 0, 56, 0
1, 6144, Note_on_c, 0, 49, 0
1, 6144, Note_on_c, 0, 37, 0
1, 6157, Note_on_c, 0, 61, 76
1, 6157, Note_on_c, 0, 57, 76
1, 6157, Note_on_c, 0, 66, 84
1, 6160, Note_on_c, 0, 33, 64
1, 6160, Note_on_c, 0, 45, 70
1, 6191, Control_c, 0, 64, 0
1, 6278, Control_c, 0, 64, 127
1, 6505, Note_on_c, 0, 66, 0
1, 6505, Note_on_c, 0, 57, 0
1, 6505, Note_on_c, 0, 61, 0
1, 6508, Note_on_c, 0, 45, 0
1, 6508, Note_on_c, 0, 33, 0
1, 6520, Note_on_c, 0, 54, 77
1, 6520, Note_on_c, 0, 63, 85
1, 6520, Note_on_c, 0, 59, 77
1, 6523, Control_c, 0, 64, 0
1, 6523, Note_on_c, 0, 35, 63
1, 6523, Note_on_c, 0, 47, 69
1, 6568, Control_c, 0, 64, 127
1, 6864, Note_on_c, 0, 59, 0
1, 6864, Note_on_c, 0, 63, 0
1, 6864, Note_on_c, 0, 54, 0
1, 6867, Note_on_c, 0, 47, 0
1, 6867, Note_on_c, 0, 35, 0
1, 6879, Note_on_c, 0, 56, 79
1, 6879, Note_on_c, 0, 59, 79
1, 6879, Note_on_c, 0, 64, 87
1, 6882, Note_on_c, 0, 28, 61
1, 6882, Note_on_c, 0, 40, 67
1, 6895, Control_c, 0, 64, 0
1, 6959, Control_c, 0, 64, 127
1, 7110, Control_c, 0, 64, 0
1, 7146, Note_on_c, 0, 64, 0
1, 7146, Note_on_c, 0, 59, 0
1, 7146, Note_on_c, 0, 56, 0
1, 7149, Note_on_c, 0, 40, 0
1, 7149, Note_on_c, 0, 28, 0
1, 7233, Note_on_c, 0, 62, 84
1, 7233, Note_on_c, 0, 59, 76
1, 7233, Note_on_c, 0, 54, 84
1, 7236, Note_on_c, 0, 42, 64
1, 7236, Note_on_c, 0, 30, 58
1, 7248, Control_c, 0, 64, 127
1, 7321, Note_on_c, 0, 54, 0
1, 7321, Note_on_c, 0, 30, 0
1, 7321, Note_on_c, 0, 42, 0
1, 7409, Note_on_c, 0, 52, 84
1, 7409, Note_on_c, 0, 32, 58
1, 7409, Note_on_c, 0, 44, 64
1, 7502, Note_on_c, 0, 52, 0
1, 7502, Note_on_c, 0, 44, 0
1, 7502, Note_on_c, 0, 32, 0
1, 7594, Note_on_c, 0, 59, 0
1, 7594, Note_on_c, 0, 62, 0
1, 7594, Note_on_c, 0, 52, 78
1, 7597, Note_on_c, 0, 57, 86
1, 7597, Note_on_c, 0, 61, 86
1, 7597, Control_c, 0, 64, 0
1, 7600, Note_on_c, 0, 33, 67
1, 7600, Note_on_c, 0, 45, 67
1, 7671, Control_c, 0, 64, 127
1, 7841, Control_c, 0, 64, 0
1, 7863, Note_on_c, 0, 61, 0
1, 7863, Note_on_c, 0, 57, 0
1, 7863, Note_on_c, 0, 52, 0
1, 7866, Note_on_c, 0, 56, 70
1, 7866, Note_on_c, 0, 50, 70
1, 7866, Note_on_c, 0, 59, 77
1, 7869, Note_on_c, 0, 45, 0
1, 7869, Note_on_c, 0, 33, 0
1, 7869, Note_on_c, 0, 29, 53
1, 7872, Note_on_c, 0, 41, 58
1, 7952, Note_on_c, 0, 59, 0
1, 7952, Note_on_c, 0, 50, 0
1, 7952, Note_on_c, 0, 56, 0
1, 7955, Note_on_c, 0, 49, 70
1, 7955, Note_on_c, 0, 57, 77
1, 7955, Note_on_c, 0, 54, 70
1, 7958, Note_on_c, 0, 41, 0
1, 7958, Note_on_c, 0, 29, 0
1, 7958, Note_on_c, 0, 30, 53
1, 7961, Note_on_c, 0, 42, 58
1, 8123, Control_c, 0, 64, 127
1, 8295, Note_on_c, 0, 54, 0
1, 8295, Note_on_c, 0, 57, 0
1, 8295, Note_on_c, 0, 49, 0
1, 8298, Note_on_c, 0, 42, 0
1, 8298, Note_on_c, 0, 30, 0
1, 8305, Control_c, 0, 64, 0
1, 8310, Note_on_c, 0, 54, 73
1, 8310, Note_on_c, 0, 50, 73
1, 8310, Note_on_c, 0, 59, 81
1, 8313, Note_on_c, 0, 26, 54
1, 8313, Note_on_c, 0, 38, 59
1, 8450, Control_c, 0, 64, 127
1, 8652, Note_on_c, 0, 59, 0
1, 8652, Note_on_c, 0, 50, 0
1, 8652, Note_on_c, 0, 54, 0
1, 8655, Note_on_c, 0, 38, 0
1, 8655, Note_on_c, 0, 26, 0
1, 8667, Note_on_c, 0, 47, 70
1, 8667, Note_on_c, 0, 56, 77
1, 8667, Note_on_c, 0, 52, 70
1, 8670, Control_c, 0, 64, 0
1, 8670, Note_on_c, 0, 28, 51
1, 8670, Note_on_c, 0, 40, 56
1, 8779, Control_c, 0, 64, 127
1, 9016, Note_on_c, 0, 52, 0
1, 9016, Note_on_c, 0, 56, 0
1, 9016, Note_on_c, 0, 47, 0
1, 9019, Note_on_c, 0, 40, 0
1, 9019, Note_on_c, 0, 28, 0
1, 9031, Note_on_c, 0, 49, 66
1, 9031, Note_on_c, 0, 52, 66
1, 9031, Note_on_c, 0, 57, 73
1, 9034, Note_on_c, 0, 33, 46
1, 9034, Note_on_c, 0, 40, 51
1, 9090, Control_c, 0, 64, 0
1, 9154, Control_c, 0, 64, 127
1, 9261, Control_c, 0, 64, 0
1, 9304, Note_on_c, 0, 57, 0
1, 9304, Note_on_c, 0, 52, 0
1, 9304, Note_on_c, 0, 49, 0
1, 9307, Note_on_c, 0, 40, 0
1, 9307, Note_on_c, 0, 33, 0
1, 9395, Note_on_c, 0, 57, 76
1, 9395, Note_on_c, 0, 61, 76
1, 9395, Note_on_c, 0, 64, 76
1, 9398, Note_on_c, 0, 69, 84
1, 9398, Note_on_c, 0, 33, 77
1, 9398, Note_on_c, 0, 45, 85
1, 9480, Note_on_c, 0, 45, 0
1, 9480, Note_on_c, 0, 33, 0
1, 9500, Control_c, 0, 64, 127
1, 9565, Note_on_c, 0, 49, 85
1, 9651, Note_on_c, 0, 49, 0
1, 9685, Control_c, 0, 64, 0
1, 9736, Note_on_c, 0, 69, 0
1, 9736, Note_on_c, 0, 57, 0
1, 9736, Note_on_c, 0, 61, 0
1, 9739, Note_on_c, 0, 64, 0
1, 9739, Note_on_c, 0, 57, 82
1, 9739, Note_on_c, 0, 62, 82
1, 9742, Note_on_c, 0, 66, 82
1, 9742, Note_on_c, 0, 69, 90
1, 9742, Note_on_c, 0, 38, 91
1, 9745, Note_on_c, 0, 50, 101
1, 9821, Note_on_c, 0, 50, 0
1, 9821, Note_on_c, 0, 38, 0
1, 9907, Note_on_c, 0, 33, 82
1, 9907, Note_on_c, 0, 45, 91
1, 9995, Note_on_c, 0, 45, 0
1, 9995, Note_on_c, 0, 33, 0
1, 10083, Note_on_c, 0, 31, 82
1, 10083, Note_on_c, 0, 43, 91
1, 10172, Note_on_c, 0, 43, 0
1, 10172, Note_on_c, 0, 31, 0
1, 10262, Note_on_c, 0, 30, 82
1, 10262, Note_on_c, 0, 42, 91
1, 10354, Note_on_c, 0, 42, 0
1, 10354, Note_on_c, 0, 30, 0
1, 10445, Note_on_c, 0, 69, 0
1, 10445, Note_on_c, 0, 57, 0
1, 10445, Note_on_c, 0, 62, 0
1, 10448, Note_on_c, 0, 66, 0
1, 10448, Note_on_c, 0, 57, 74
1, 10448, Note_on_c, 0, 62, 74
1, 10451, Note_on_c, 0, 66, 74
1, 10451, Note_on_c, 0, 69, 82
1, 10451, Note_on_c, 0, 30, 88
1, 10454, Note_on_c, 0, 42, 97
1, 10483, Control_c, 0, 64, 127
1, 10753, Control_c, 0, 64, 0
1, 10795, Note_on_c, 0, 69, 0
1, 10795, Note_on_c, 0, 57, 0
1, 10795, Note_on_c, 0, 62, 0
1, 10798, Note_on_c, 0, 66, 0
1, 10798, Note_on_c, 0, 71, 89
1, 10798, Note_on_c, 0, 62, 81
1, 10801, Note_on_c, 0, 64, 81
1, 10801, Note_on_c, 0, 67, 81
1, 10801, Note_on_c, 0, 42, 0
1, 10804, Note_on_c, 0, 30, 0
1, 10804, Note_on_c, 0, 38, 91
1, 10804, Note_on_c, 0, 50, 100
1, 10880, Note_on_c, 0, 50, 0
1, 10880, Note_on_c, 0, 38, 0
1, 10965, Note_on_c, 0, 35, 80
1, 10965, Note_on_c, 0, 47, 88
1, 11053, Note_on_c, 0, 47, 0
1, 11053, Note_on_c, 0, 35, 0
1, 11140, Note_on_c, 0, 33, 79
1, 11140, Note_on_c, 0, 45, 87
1, 11229, Note_on_c, 0, 45, 0
1, 11229, Note_on_c, 0, 33, 0
1, 11317, Note_on_c, 0, 31, 79
1, 11317, Note_on_c, 0, 43, 87
1, 11408, Note_on_c, 0, 43, 0
1, 11408, Note_on_c, 0, 31, 0
1, 11498, Note_on_c, 0, 67, 0
1, 11498, Note_on_c, 0, 71, 0
1, 11498, Note_on_c, 0, 62, 0
1, 11501, Note_on_c, 0, 64, 0
1, 11501, Note_on_c, 0, 62, 74
1, 11501, Note_on_c, 0, 64, 74
1, 11504, Note_on_c, 0, 67, 74
1, 11504, Note_on_c, 0, 71, 82
1, 11504, Note_on_c, 0, 31, 87
1, 11507, Note_on_c, 0, 43, 96
1, 11540, Control_c, 0, 64, 127
1, 11803, Control_c, 0, 64, 0
1, 11849, Note_on_c, 0, 71, 0
1, 11849, Note_on_c, 0, 62, 0
1, 11849, Note_on_c, 0, 64, 0
1, 11852, Note_on_c, 0, 67, 0
1, 11852, Note_on_c, 0, 55, 65
1, 11852, Note_on_c, 0, 57, 65
1, 11855, Note_on_c, 0, 61, 65
1, 11855, Note_on_c, 0, 64, 72
1, 11855, Note_on_c, 0, 43, 0
1, 11858, Note_on_c, 0, 31, 0
1, 11858, Note_on_c, 0, 33, 88
1, 11858, Note_on_c, 0, 45, 97
1, 11935, Note_on_c, 0, 45, 0
1, 11935, Note_on_c, 0, 33, 0
1, 12020, Note_on_c, 0, 64, 0
1, 12020, Note_on_c, 0, 55, 0
1, 12020, Note_on_c, 0, 57, 0
1, 12023, Note_on_c, 0, 61, 0
1, 12023, Note_on_c, 0, 28, 79
1, 12023, Note_on_c, 0, 40, 87
1, 12106, Note_on_c, 0, 40, 0
1, 12106, Note_on_c, 0, 28, 0
1, 12192, Note_on_c, 0, 55, 65
1, 12192, Note_on_c, 0, 57, 65
1, 12192, Note_on_c, 0, 61, 65
1, 12195, Note_on_c, 0, 64, 72
1, 12195, Note_on_c, 0, 26, 79
1, 12195, Note_on_c, 0, 38, 87
1, 12280, Note_on_c, 0, 38, 0
1, 12280, Note_on_c, 0, 26, 0
1, 12369, Note_on_c, 0, 64, 0
1, 12369, Note_on_c, 0, 55, 0
1, 12369, Note_on_c, 0, 57, 0
1, 12372, Note_on_c, 0, 61, 0
1, 12372, Note_on_c, 0, 25, 79
1, 12372, Note_on_c, 0, 37, 87
1, 12458, Note_on_c, 0, 37, 0
1, 12458, Note_on_c, 0, 25, 0
1, 12546, Note_on_c, 0, 55, 65
1, 12546, Note_on_c, 0, 57, 65
1, 12546, Note_on_c, 0, 61, 65
1, 12549, Note_on_c, 0, 64, 72
1, 12549, Note_on_c, 0, 25, 85
1, 12549, Note_on_c, 0, 37, 94
1, 12588, Control_c, 0, 64, 127
1, 12720, Note_on_c, 0, 64, 0
1, 12720, Note_on_c, 0, 55, 0
1, 12720, Note_on_c, 0, 57, 0
1, 12723, Note_on_c, 0, 61, 0
1, 12843, Control_c, 0, 64, 0
1, 12894, Note_on_c, 0, 60, 74
1, 12894, Note_on_c, 0, 62, 74
1, 12894, Note_on_c, 0, 69, 82
1, 12897, Note_on_c, 0, 37, 0
1, 12897, Note_on_c, 0, 25, 0
1, 12897, Note_on_c, 0, 38, 91
1, 12900, Note_on_c, 0, 50, 100
1, 12980, Note_on_c, 0, 50, 0
1, 12980, Note_on_c, 0, 38, 0
1, 13065, Note_on_c, 0, 33, 81
1, 13065, Note_on_c, 0, 45, 89
1, 13152, Note_on_c, 0, 45, 0
1, 13152, Note_on_c, 0, 33, 0
1, 13238, Note_on_c, 0, 31, 81
1, 13238, Note_on_c, 0, 43, 89
1, 13326, Note_on_c, 0, 43, 0
1, 13326, Note_on_c, 0, 31, 0
1, 13414, Note_on_c, 0, 30, 81
1, 13414, Note_on_c, 0, 42, 89
1, 13502, Note_on_c, 0, 42, 0
1, 13502, Note_on_c, 0, 30, 0
1, 13590, Note_on_c, 0, 30, 86
1, 13590, Note_on_c, 0, 42, 95
1, 13633, Control_c, 0, 64, 127
1, 13876, Control_c, 0, 64, 0
1, 13948, Note_on_c, 0, 69, 0
1, 13948, Note_on_c, 0, 62, 0
1, 13948, Note_on_c, 0, 60, 0
1, 13951, Note_on_c, 0, 55, 63
1, 13951, Note_on_c, 0, 60, 63
1, 13951, Note_on_c, 0, 62, 69
1, 13954, Note_on_c, 0, 42, 0
1, 13954, Note_on_c, 0, 30, 0
1, 13954, Note_on_c, 0, 31, 74
1, 13957, Note_on_c, 0, 43, 82
1, 14033, Note_on_c, 0, 43, 0
1, 14033, Note_on_c, 0, 31, 0
1, 14119, Note_on_c, 0, 62, 0
1, 14119, Note_on_c, 0, 60, 0
1, 14119, Note_on_c, 0, 55, 0
1, 14122, Note_on_c, 0, 33, 76
1, 14122, Note_on_c, 0, 45, 84
1, 14204, Note_on_c, 0, 45, 0
1, 14204, Note_on_c, 0, 33, 0
1, 14290, Note_on_c, 0, 55, 65
1, 14290, Note_on_c, 0, 60, 65
1, 14290, Note_on_c, 0, 62, 72
1, 14293, Note_on_c, 0, 35, 79
1, 14293, Note_on_c, 0, 47, 87
1, 14376, Note_on_c, 0, 47, 0
1, 14376, Note_on_c, 0, 35, 0
1, 14461, Note_on_c, 0, 62, 0
1, 14461, Note_on_c, 0, 60, 0
1, 14461, Note_on_c, 0, 55, 0
1, 14464, Note_on_c, 0, 36, 81
1, 14464, Note_on_c, 0, 48, 89
1, 14547, Note_on_c, 0, 48, 0
1, 14547, Note_on_c, 0, 36, 0
1, 14632, Note_on_c, 0, 55, 68
1, 14632, Note_on_c, 0, 60, 68
1, 14632, Note_on_c, 0, 62, 75
1, 14635, Note_on_c, 0, 38, 82
1, 14635, Note_on_c, 0, 50, 91
1, 14718, Note_on_c, 0, 50, 0
1, 14718, Note_on_c, 0, 38, 0
1, 14804, Note_on_c, 0, 62, 0
1, 14804, Note_on_c, 0, 60, 0
1, 14804, Note_on_c, 0, 55, 0
1, 14807, Note_on_c, 0, 40, 84
1, 14807, Note_on_c, 0, 52, 93
1, 14889, Note_on_c, 0, 52, 0
1, 14889, Note_on_c, 0, 40, 0
1, 14975, Note_on_c, 0, 55, 73
1, 14975, Note_on_c, 0, 59, 73
1, 14975, Note_on_c, 0, 62, 81
1, 14978, Note_on_c, 0, 38, 87
1, 14978, Note_on_c, 0, 50, 96
1, 15317, Note_on_c, 0, 62, 0
1, 15317, Note_on_c, 0, 59, 0
1, 15317, Note_on_c, 0, 55, 0
1, 15320, Note_on_c, 0, 55, 82
1, 15320, Note_on_c, 0, 62, 82
1, 15320, Note_on_c, 0, 67, 90
1, 15323, Note_on_c, 0, 50, 0
1, 15323, Note_on_c, 0, 38, 0
1, 15323, Note_on_c, 0, 35, 84
1, 15326, Note_on_c, 0, 47, 93
1, 15492, Note_on_c, 0, 67, 0
1, 15492, Note_on_c, 0, 62, 0
1, 15492, Note_on_c, 0, 55, 0
1, 15495, Note_on_c, 0, 47, 0
1, 15495, Note_on_c, 0, 35, 0
1, 15668, Note_on_c, 0, 57, 76
1, 15668, Note_on_c, 0, 62, 76
1, 15668, Note_on_c, 0, 66, 84
1, 15671, Note_on_c, 0, 33, 75
1, 15671, Note_on_c, 0, 45, 83
1, 15843, Note_on_c, 0, 66, 0
1, 15843, Note_on_c, 0, 62, 0
1, 15843, Note_on_c, 0, 57, 0
1, 15846, Note_on_c, 0, 45, 0
1, 15846, Note_on_c, 0, 33, 0
1, 16018, Note_on_c, 0, 59, 75
1, 16018, Note_on_c, 0, 62, 75
1, 16018, Note_on_c, 0, 64, 83
1, 16021, Note_on_c, 0, 31, 76
1, 16021, Note_on_c, 0, 43, 84
1, 16034, Control_c, 0, 64, 127
1, 16196, Note_on_c, 0, 64, 0
1, 16196, Note_on_c, 0, 62, 0
1, 16196, Note_on_c, 0, 59, 0
1, 16199, Note_on_c, 0, 43, 0
1, 16199, Note_on_c, 0, 31, 0
1, 16253, Control_c, 0, 64, 0
1, 16284, Note_on_c, 0, 59, 78
1, 16284, Note_on_c, 0, 62, 78
1, 16284, Note_on_c, 0, 66, 86
1, 16287, Note_on_c, 0, 30, 78
1, 16287, Note_on_c, 0, 42, 86
1, 16370, Note_on_c, 0, 66, 0
1, 16370, Note_on_c, 0, 62, 0
1, 16370, Note_on_c, 0, 59, 0
1, 16373, Note_on_c, 0, 59, 90
1, 16373, Note_on_c, 0, 62, 90
1, 16373, Note_on_c, 0, 67, 99
1, 16376, Note_on_c, 0, 42, 0
1, 16376, Note_on_c, 0, 30, 0
1, 16376, Note_on_c, 0, 28, 89
1, 16379, Note_on_c, 0, 40, 98
1, 16410, Control_c, 0, 64, 127
1, 16543, Note_on_c, 0, 67, 0
1, 16543, Note_on_c, 0, 62, 0
1, 16543, Note_on_c, 0, 59, 0
1, 16546, Note_on_c, 0, 40, 0
1, 16546, Note_on_c, 0, 28, 0
1, 16553, Control_c, 0, 64, 0
1, 16716, Note_on_c, 0, 55, 71
1, 16716, Note_on_c, 0, 57, 71
1, 16716, Note_on_c, 0, 61, 71
1, 16719, Note_on_c, 0, 64, 78
1, 16719, Note_on_c, 0, 33, 73
1, 16719, Note_on_c, 0, 45, 80
1, 16761, Control_c, 0, 64, 127
1, 17100, Note_on_c, 0, 64, 0
1, 17100, Note_on_c, 0, 55, 0
1, 17100, Note_on_c, 0, 57, 0
1, 17103, Note_on_c, 0, 61, 0
1, 17103, Note_on_c, 0, 54, 80
1, 17103, Note_on_c, 0, 57, 80
1, 17106, Note_on_c, 0, 62, 88
1, 17106, Note_on_c, 0, 45, 0
1, 17106, Note_on_c, 0, 33, 0
1, 17109, Control_c, 0, 64, 0
1, 17109, Note_on_c, 0, 38, 80
1, 17109, Note_on_c, 0, 50, 88
1, 17193, Control_c, 0, 64, 127
1, 17405, Control_c, 0, 64, 0
1, 17452, Note_on_c, 0, 62, 0
1, 17452, Note_on_c, 0, 57, 0
1, 17452, Note_on_c, 0, 54, 0
1, 17455, Note_on_c, 0, 50, 0
1, 17455, Note_on_c, 0, 38, 0
1, 17805, Note_on_c, 0, 57, 76
1, 17805, Note_on_c, 0, 61, 76
1, 17805, Note_on_c, 0, 64, 76
1, 17808, Note_on_c, 0, 69, 84
1, 17808, Note_on_c, 0, 33, 77
1, 17808, Note_on_c, 0, 45, 85
1, 17825, Control_c, 0, 64, 127
1, 17890, Note_on_c, 0, 45, 0
1, 17890, Note_on_c, 0, 33, 0
1, 17975, Note_on_c, 0, 49, 85
1, 18061, Note_on_c, 0, 49, 0
1, 18111, Control_c, 0, 64, 0
1, 18146, Note_on_c, 0, 69, 0
1, 18146, Note_on_c, 0, 57, 0
1, 18146, Note_on_c, 0, 61, 0
1, 18149, Note_on_c, 0, 64, 0
1, 18149, Note_on_c, 0, 57, 82
1, 18149, Note_on_c, 0, 62, 82
1, 18152, Note_on_c, 0, 66, 82
1, 18152, Note_on_c, 0, 69, 90
1, 18152, Note_on_c, 0, 38, 91
1, 18155, Note_on_c, 0, 50, 101
1, 18231, Note_on_c, 0, 50, 0
1, 18231, Note_on_c, 0, 38, 0
1, 18317, Note_on_c, 0, 33, 82
1, 18317, Note_on_c, 0, 45, 91
1, 18405, Note_on_c, 0, 45, 0
1, 18405, Note_on_c, 0, 33, 0
1, 18493, Note_on_c, 0, 31, 82
1, 18493, Note_on_c, 0, 43, 91
1, 18582, Note_on_c, 0, 43, 0
1, 18582, Note_on_c, 0, 31, 0
1, 18672, Note_on_c, 0, 30, 82
1, 18672, Note_on_c, 0, 42, 91
1, 18764, Note_on_c, 0, 42, 0
1, 18764, Note_on_c, 0, 30, 0
1, 18855, Note_on_c, 0, 69, 0
1, 18855, Note_on_c, 0, 57, 0
1, 18855, Note_on_c, 0, 62, 0
1, 18858, Note_on_c, 0, 66, 0
1, 18858, Note_on_c, 0, 57, 74
1, 18858, Note_on_c, 0, 62, 74
1, 18861, Note_on_c, 0, 66, 74
1, 18861, Note_on_c, 0, 69, 82
1, 18861, Note_on_c, 0, 30, 88
1, 18864, Note_on_c, 0, 42, 97
1, 18885, Control_c, 0, 64, 127
1, 19159, Control_c, 0, 64, 0
1, 19205, Note_on_c, 0, 69, 0
1, 19205, Note_on_c, 0, 57, 0
1, 19205, Note_on_c, 0, 62, 0
1, 19208, Note_on_c, 0, 66, 0
1, 19208, Note_on_c, 0, 71, 89
1, 19208, Note_on_c, 0, 62, 81
1, 19211, Note_on_c, 0, 64, 81
1, 19211, Note_on_c, 0, 67, 81
1, 19211, Note_on_c, 0, 42, 0
1, 19214, Note_on_c, 0, 30, 0
1, 19214, Note_on_c, 0, 38, 91
1, 19214, Note_on_c, 0, 50, 100
1, 19290, Note_on_c, 0, 50, 0
1, 19290, Note_on_c, 0, 38, 0
1, 19375, Note_on_c, 0, 35, 80
1, 19375, Note_on_c, 0, 47, 88
1, 19463, Note_on_c, 0, 47, 0
1, 19463, Note_on_c, 0, 35, 0
1, 19550, Note_on_c, 0, 33, 79
1, 19550, Note_on_c, 0, 45, 87
1, 19639, Note_on_c, 0, 45, 0
1, 19639, Note_on_c, 0, 33, 0
1, 19727, Note_on_c, 0, 31, 79
1, 19727, Note_on_c, 0, 43, 87
1, 19818, Note_on_c, 0, 43, 0
1, 19818, Note_on_c, 0, 31, 0
1, 19908, Note_on_c, 0, 67, 0
1, 19908, Note_on_c, 0, 71, 0
1, 19908, Note_on_c, 0, 62, 0
1, 19911, Note_on_c, 0, 64, 0
1, 19911, Note_on_c, 0, 62, 74
1, 19911, Note_on_c, 0, 64, 74
1, 19914, Note_on_c, 0, 67, 74
1, 19914, Note_on_c, 0, 71, 82
1, 19914, Note_on_c, 0, 31, 87
1, 19917, Note_on_c, 0, 43, 96
1, 19946, Control_c, 0, 64, 127
1, 20188, Control_c, 0, 64, 0
1, 20259, Note_on_c, 0, 71, 0
1, 20259, Note_on_c, 0, 62, 0
1, 20259, Note_on_c, 0, 64, 0
1, 20262, Note_on_c, 0, 67, 0
1, 20262, Note_on_c, 0, 55, 64
1, 20262, Note_on_c, 0, 57, 64
1, 20265, Note_on_c, 0, 61, 64
1, 20265, Note_on_c, 0, 64, 71
1, 20265, Note_on_c, 0, 43, 0
1, 20268, Note_on_c, 0, 31, 0
1, 20268, Note_on_c, 0, 33, 88
1, 20268, Note_on_c, 0, 45, 97
1, 20345, Note_on_c, 0, 45, 0
1, 20345, Note_on_c, 0, 33, 0
1, 20430, Note_on_c, 0, 64, 0
1, 20430, Note_on_c, 0, 55, 0
1, 20430, Note_on_c, 0, 57, 0
1, 20433, Note_on_c, 0, 61, 0
1, 20433, Note_on_c, 0, 28, 79
1, 20433, Note_on_c, 0, 40, 87
1, 20516, Note_on_c, 0, 40, 0
1, 20516, Note_on_c, 0, 28, 0
1, 20602, Note_on_c, 0, 55, 64
1, 20602, Note_on_c, 0, 57, 64
1, 20602, Note_on_c, 0, 61, 64
1, 20605, Note_on_c, 0, 64, 71
1, 20605, Note_on_c, 0, 26, 79
1, 20605, Note_on_c, 0, 38, 87
1, 20690, Note_on_c, 0, 38, 0
1, 20690, Note_on_c, 0, 26, 0
1, 20779, Note_on_c, 0, 64, 0
1, 20779, Note_on_c, 0, 55, 0
1, 20779, Note_on_c, 0, 57, 0
1, 20782, Note_on_c, 0, 61, 0
1, 20782, Note_on_c, 0, 25, 79
1, 20782, Note_on_c, 0, 37, 87
1, 20868, Note_on_c, 0, 37, 0
1, 20868, Note_on_c, 0, 25, 0
1, 20956, Note_on_c, 0, 55, 64
1, 20956, Note_on_c, 0, 57, 64
1, 20956, Note_on_c, 0, 61, 64
1, 20959, Note_on_c, 0, 64, 71
1, 20959, Note_on_c, 0, 25, 85
1, 20959, Note_on_c, 0, 37, 94
1, 20994, Control_c, 0, 64, 127
1, 21130, Note_on_c, 0, 64, 0
1, 21130, Note_on_c, 0, 55, 0
1, 21130, Note_on_c, 0, 57, 0
1, 21133, Note_on_c, 0, 61, 0
1, 21257, Control_c, 0, 64, 0
1, 21304, Note_on_c, 0, 60, 74
1, 21304, Note_on_c, 0, 62, 74
1, 21304, Note_on_c, 0, 69, 82
1, 21307, Note_on_c, 0, 37, 0
1, 21307, Note_on_c, 0, 25, 0
1, 21307, Note_on_c, 0, 38, 91
1, 21310, Note_on_c, 0, 50, 100
1, 21390, Note_on_c, 0, 50, 0
1, 21390, Note_on_c, 0, 38, 0
1, 21475, Note_on_c, 0, 33, 81
1, 21475, Note_on_c, 0, 45, 89
1, 21562, Note_on_c, 0, 45, 0
1, 21562, Note_on_c, 0, 33, 0
1, 21648, Note_on_c, 0, 31, 81
1, 21648, Note_on_c, 0, 43, 89
1, 21736, Note_on_c, 0, 43, 0
1, 21736, Note_on_c, 0, 31, 0
1, 21824, Note_on_c, 0, 30, 81
1, 21824, Note_on_c, 0, 42, 89
1, 21912, Note_on_c, 0, 42, 0
1, 21912, Note_on_c, 0, 30, 0
1, 22000, Note_on_c, 0, 30, 86
1, 22000, Note_on_c, 0, 42, 95
1, 22052, Control_c, 0, 64, 127
1, 22311, Control_c, 0, 64, 0
1, 22358, Note_on_c, 0, 69, 0
1, 22358, Note_on_c, 0, 62, 0
1, 22358, Note_on_c, 0, 60, 0
1, 22361, Note_on_c, 0, 55, 63
1, 22361, Note_on_c, 0, 60, 63
1, 22361, Note_on_c, 0, 62, 69
1, 22364, Note_on_c, 0, 42, 0
1, 22364, Note_on_c, 0, 30, 0
1, 22364, Note_on_c, 0, 31, 74
1, 22367, Note_on_c, 0, 43, 82
1, 22443, Note_on_c, 0, 43, 0
1, 22443, Note_on_c, 0, 31, 0
1, 22529, Note_on_c, 0, 62, 0
1, 22529, Note_on_c, 0, 60, 0
1, 22529, Note_on_c, 0, 55, 0
1, 22532, Note_on_c, 0, 33, 76
1, 22532, Note_on_c, 0, 45, 84
1, 22614, Note_on_c, 0, 45, 0
1, 22614, Note_on_c, 0, 33, 0
1, 22700, Note_on_c, 0, 55, 65
1, 22700, Note_on_c, 0, 60, 65
1, 22700, Note_on_c, 0, 62, 72
1, 22703, Note_on_c, 0, 35, 79
1, 22703, Note_on_c, 0, 47, 87
1, 22786, Note_on_c, 0, 47, 0
1, 22786, Note_on_c, 0, 35, 0
1, 22871, Note_on_c, 0, 62, 0
1, 22871, Note_on_c, 0, 60, 0
1, 22871, Note_on_c, 0, 55, 0
1, 22874, Note_on_c, 0, 36, 81
1, 22874, Note_on_c, 0, 48, 89
1, 22957, Note_on_c, 0, 48, 0
1, 22957, Note_on_c, 0, 36, 0
1, 23042, Note_on_c, 0, 55, 68
1, 23042, Note_on_c, 0, 60, 68
1, 23042, Note_on_c, 0, 62, 75
1, 23045, Note_on_c, 0, 38, 82
1, 23045, Note_on_c, 0, 50, 91
1, 23128, Note_on_c, 0, 50, 0
1, 23128, Note_on_c, 0, 38, 0
1, 23214, Note_on_c, 0, 62, 0
1, 23214, Note_on_c, 0, 60, 0
1, 23214, Note_on_c, 0, 55, 0
1, 23217, Note_on_c, 0, 40, 84
1, 23217, Note_on_c, 0, 52, 93
1, 23299, Note_on_c, 0, 52, 0
1, 23299, Note_on_c, 0, 40, 0
1, 23385, Note_on_c, 0, 55, 73
1, 23385, Note_on_c, 0, 59, 73
1, 23385, Note_on_c, 0, 62, 81
1, 23388, Note_on_c, 0, 38, 87
1, 23388, Note_on_c, 0, 50, 96
1, 23727, Note_on_c, 0, 62, 0
1, 23727, Note_on_c, 0, 59, 0
1, 23727, Note_on_c, 0, 55, 0
1, 23730, Note_on_c, 0, 55, 82
1, 23730, Note_on_c, 0, 62, 82
1, 23730, Note_on_c, 0, 67, 90
1, 23733, Note_on_c, 0, 50, 0
1, 23733, Note_on_c, 0, 38, 0
1, 23733, Note_on_c, 0, 35, 84
1, 23736, Note_on_c, 0, 47, 93
1, 23902, Note_on_c, 0, 67, 0
1, 23902, Note_on_c, 0, 62, 0
1, 23902, Note_on_c, 0, 55, 0
1, 23905, Note_on_c, 0, 47, 0
1, 23905, Note_on_c, 0, 35, 0
1, 24078, Note_on_c, 0, 57, 76
1, 24078, Note_on_c, 0, 62, 76
1, 24078, Note_on_c, 0, 66, 84
1, 24081, Note_on_c, 0, 33, 75
1, 24081, Note_on_c, 0, 45, 83
1, 24253, Note_on_c, 0, 66, 0
1, 24253, Note_on_c, 0, 62, 0
1, 24253, Note_on_c, 0, 57, 0
1, 24256, Note_on_c, 0, 45, 0
1, 24256, Note_on_c, 0, 33, 0
1, 24428, Note_on_c, 0, 59, 75
1, 24428, Note_on_c, 0, 62, 75
1, 24428, Note_on_c, 0, 64, 83
1, 24431, Note_on_c, 0, 31, 76
1, 24431, Note_on_c, 0, 43, 84
1, 24444, Control_c, 0, 64, 127
1, 24606, Note_on_c, 0, 64, 0
1, 24606, Note_on_c, 0, 62, 0
1, 24606, Note_on_c, 0, 59, 0
1, 24609, Note_on_c, 0, 43, 0
1, 24609, Note_on_c, 0, 31, 0
1, 24689, Control_c, 0, 64, 0
1, 24694, Note_on_c, 0, 59, 78
1, 24694, Note_on_c, 0, 62, 78
1, 24694, Note_on_c, 0, 66, 86
1, 24697, Note_on_c, 0, 30, 78
1, 24697, Note_on_c, 0, 42, 86
1, 24780, Note_on_c, 0, 66, 0
1, 24780, Note_on_c, 0, 62, 0
1, 24780, Note_on_c, 0, 59, 0
1, 24783, Note_on_c, 0, 59, 90
1, 24783, Note_on_c, 0, 62, 90
1, 24783, Note_on_c, 0, 67, 99
1, 24786, Note_on_c, 0, 42, 0
1, 24786, Note_on_c, 0, 30, 0
1, 24786, Note_on_c, 0, 28, 89
1, 24789, Note_on_c, 0, 40, 98
1, 24836, Control_c, 0, 64, 127
1, 24917, Control_c, 0, 64, 0
1, 24953, Note_on_c, 0, 67, 0
1, 24953, Note_on_c, 0, 62, 0
1, 24953, Note_on_c, 0, 59, 0
1, 24956, Note_on_c, 0, 40, 0
1, 24956, Note_on_c, 0, 28, 0
1, 25126, Note_on_c, 0, 55, 71
1, 25126, Note_on_c, 0, 57, 71
1, 25126, Note_on_c, 0, 61, 71
1, 25129, Note_on_c, 0, 64, 78
1, 25129, Note_on_c, 0, 33, 73
1, 25129, Note_on_c, 0, 45, 80
1, 25165, Control_c, 0, 64, 127
1, 25453, Control_c, 0, 64, 0
1, 25510, Note_on_c, 0, 64, 0
1, 25510, Note_on_c, 0, 55, 0
1, 25510, Note_on_c, 0, 57, 0
1, 25513, Note_on_c, 0, 61, 0
1, 25513, Note_on_c, 0, 54, 80
1, 25513, Note_on_c, 0, 57, 80
1, 25516, Note_on_c, 0, 62, 88
1, 25516, Note_on_c, 0, 45, 0
1, 25516, Note_on_c, 0, 33, 0
1, 25519, Note_on_c, 0, 38, 80
1, 25519, Note_on_c, 0, 50, 88
1, 25538, Control_c, 0, 64, 127
1, 25804, Control_c, 0, 64, 0
1, 25894, Note_on_c, 0, 62, 0
1, 25894, Note_on_c, 0, 57, 0
1, 25894, Note_on_c, 0, 54, 0
1, 25897, Note_on_c, 0, 50, 0
1, 25897, Note_on_c, 0, 38, 0
1, 26278, Note_on_c, 0, 81, 100
1, 26278, Note_on_c, 0, 73, 91
1, 26278, Note_on_c, 0, 76, 91
1, 26281, Note_on_c, 0, 45, 72
1, 26281, Note_on_c, 0, 57, 79
1, 26299, Control_c, 0, 64, 127
1, 26369, Note_on_c, 0, 57, 0
1, 26369, Note_on_c, 0, 45, 0
1, 26460, Note_on_c, 0, 49, 72
1, 26460, Note_on_c, 0, 61, 79
1, 26551, Note_on_c, 0, 61, 0
1, 26551, Note_on_c, 0, 49, 0
1, 26642, Note_on_c, 0, 76, 0
1, 26642, Note_on_c, 0, 73, 0
1, 26642, Note_on_c, 0, 81, 0
1, 26645, Note_on_c, 0, 71, 91
1, 26645, Note_on_c, 0, 76, 91
1, 26645, Note_on_c, 0, 80, 100
1, 26648, Control_c, 0, 64, 0
1, 26648, Note_on_c, 0, 52, 74
1, 26648, Note_on_c, 0, 64, 82
1, 26711, Control_c, 0, 64, 127
1, 26877, Control_c, 0, 64, 0
1, 26916, Note_on_c, 0, 80, 0
1, 26916, Note_on_c, 0, 76, 0
1, 26916, Note_on_c, 0, 71, 0
1, 26919, Note_on_c, 0, 69, 82
1, 26919, Note_on_c, 0, 75, 82
1, 26919, Note_on_c, 0, 78, 91
1, 26922, Note_on_c, 0, 64, 0
1, 26922, Note_on_c, 0, 52, 0
1, 26922, Note_on_c, 0, 48, 64
1, 26925, Note_on_c, 0, 60, 71
1, 27007, Note_on_c, 0, 78, 0
1, 27007, Note_on_c, 0, 75, 0
1, 27007, Note_on_c, 0, 69, 0
1, 27010, Note_on_c, 0, 68, 85
1, 27010, Note_on_c, 0, 73, 85
1, 27010, Note_on_c, 0, 76, 94
1, 27013, Note_on_c, 0, 60, 0
1, 27013, Note_on_c, 0, 48, 0
1, 27013, Note_on_c, 0, 49, 68
1, 27016, Note_on_c, 0, 61, 75
1, 27106, Control_c, 0, 64, 127
1, 27356, Note_on_c, 0, 76, 0
1, 27356, Note_on_c, 0, 73, 0
1, 27356, Note_on_c, 0, 68, 0
1, 27359, Note_on_c, 0, 61, 0
1, 27359, Note_on_c, 0, 49, 0
1, 27371, Note_on_c, 0, 69, 81
1, 27371, Note_on_c, 0, 73, 81
1, 27371, Note_on_c, 0, 78, 89
1, 27374, Note_on_c, 0, 45, 66
1, 27374, Note_on_c, 0, 57, 73
1, 27393, Control_c, 0, 64, 0
1, 27471, Control_c, 0, 64, 127
1, 27721, Note_on_c, 0, 78, 0
1, 27721, Note_on_c, 0, 73, 0
1, 27721, Note_on_c, 0, 69, 0
1, 27724, Note_on_c, 0, 57, 0
1, 27724, Note_on_c, 0, 45, 0
1, 27736, Note_on_c, 0, 66, 82
1, 27736, Note_on_c, 0, 71, 82
1, 27736, Note_on_c, 0, 75, 90
1, 27739, Control_c, 0, 64, 0
1, 27739, Note_on_c, 0, 47, 66
1, 27739, Note_on_c, 0, 59, 73
1, 27826, Control_c, 0, 64, 127
1, 28081, Note_on_c, 0, 75, 0
1, 28081, Note_on_c, 0, 71, 0
1, 28081, Note_on_c, 0, 66, 0
1, 28084, Note_on_c, 0, 59, 0
1, 28084, Note_on_c, 0, 47, 0
1, 28096, Note_on_c, 0, 68, 82
1, 28096, Note_on_c, 0, 71, 82
1, 28096, Note_on_c, 0, 76, 91
1, 28099, Note_on_c, 0, 40, 64
1, 28099, Note_on_c, 0, 52, 71
1, 28154, Control_c, 0, 64, 0
1, 28191, Control_c, 0, 64, 127
1, 28301, Control_c, 0, 64, 0
1, 28363, Note_on_c, 0, 76, 0
1, 28363, Note_on_c, 0, 71, 0
1, 28363, Note_on_c, 0, 68, 0
1, 28366, Note_on_c, 0, 52, 0
1, 28366, Note_on_c, 0, 40, 0
1, 28450, Note_on_c, 0, 66, 91
1, 28450, Note_on_c, 0, 71, 82
1, 28450, Note_on_c, 0, 74, 91
1, 28453, Note_on_c, 0, 42, 65
1, 28453, Note_on_c, 0, 54, 72
1, 28470, Control_c, 0, 64, 127
1, 28538, Note_on_c, 0, 66, 0
1, 28538, Note_on_c, 0, 54, 0
1, 28538, Note_on_c, 0, 42, 0
1, 28627, Note_on_c, 0, 64, 91
1, 28627, Note_on_c, 0, 44, 65
1, 28627, Note_on_c, 0, 56, 72
1, 28719, Note_on_c, 0, 64, 0
1, 28719, Note_on_c, 0, 56, 0
1, 28719, Note_on_c, 0, 44, 0
1, 28812, Note_on_c, 0, 74, 0
1, 28812, Note_on_c, 0, 71, 0
1, 28812, Note_on_c, 0, 64, 83
1, 28815, Note_on_c, 0, 69, 83
1, 28815, Note_on_c, 0, 73, 92
1, 28815, Control_c, 0, 64, 0
1, 28818, Note_on_c, 0, 45, 68
1, 28818, Note_on_c, 0, 57, 75
1, 28855, Control_c, 0, 64, 127
1, 29034, Control_c, 0, 64, 0
1, 29081, Note_on_c, 0, 73, 0
1, 29081, Note_on_c, 0, 69, 0
1, 29081, Note_on_c, 0, 64, 0
1, 29084, Note_on_c, 0, 62, 80
1, 29084, Note_on_c, 0, 68, 80
1, 29084, Note_on_c, 0, 71, 88
1, 29087, Note_on_c, 0, 57, 0
1, 29087, Note_on_c, 0, 45, 0
1, 29087, Note_on_c, 0, 41, 62
1, 29090, Note_on_c, 0, 53, 68
1, 29170, Note_on_c, 0, 71, 0
1, 29170, Note_on_c, 0, 68, 0
1, 29170, Note_on_c, 0, 62, 0
1, 29173, Note_on_c, 0, 61, 80
1, 29173, Note_on_c, 0, 66, 80
1, 29173, Note_on_c, 0, 69, 88
1, 29176, Note_on_c, 0, 53, 0
1, 29176, Note_on_c, 0, 41, 0
1, 29176, Note_on_c, 0, 42, 62
1, 29179, Note_on_c, 0, 54, 68
1, 29285, Control_c, 0, 64, 127
1, 29514, Note_on_c, 0, 69, 0
1, 29514, Note_on_c, 0, 66, 0
1, 29514, Note_on_c, 0, 61, 0
1, 29517, Note_on_c, 0, 54, 0
1, 29517, Note_on_c, 0, 42, 0
1, 29529, Note_on_c, 0, 62, 82
1, 29529, Note_on_c, 0, 66, 82
1, 29529, Note_on_c, 0, 71, 91
1, 29532, Note_on_c, 0, 38, 64
1, 29532, Note_on_c, 0, 50, 71
1, 29585, Control_c, 0, 64, 0
1, 29620, Control_c, 0, 64, 127
1, 29878, Note_on_c, 0, 71, 0
1, 29878, Note_on_c, 0, 66, 0
1, 29878, Note_on_c, 0, 62, 0
1, 29881, Note_on_c, 0, 50, 0
1, 29881, Note_on_c, 0, 38, 0
1, 29893, Note_on_c, 0, 59, 80
1, 29893, Note_on_c, 0, 64, 80
1, 29893, Note_on_c, 0, 68, 88
1, 29896, Control_c, 0, 64, 0
1, 29896, Note_on_c, 0, 40, 61
1, 29896, Note_on_c, 0, 52, 67
1, 29968, Control_c, 0, 64, 127
1, 30138, Control_c, 0, 64, 0
1, 30240, Note_on_c, 0, 68, 0
1, 30240, Note_on_c, 0, 64, 0
1, 30240, Note_on_c, 0, 59, 0
1, 30243, Note_on_c, 0, 52, 0
1, 30243, Note_on_c, 0, 40, 0
1, 30255, Note_on_c, 0, 61, 80
1, 30255, Note_on_c, 0, 64, 80
1, 30255, Note_on_c, 0, 69, 88
1, 30258, Note_on_c, 0, 33, 61
1, 30258, Note_on_c, 0, 45, 67
1, 30297, Control_c, 0, 64, 127
1, 30425, Control_c, 0, 64, 0
1, 30526, Note_on_c, 0, 69, 0
1, 30526, Note_on_c, 0, 64, 0
1, 30526, Note_on_c, 0, 61, 0
1, 30529, Note_on_c, 0, 45, 0
1, 30529, Note_on_c, 0, 33, 0
1, 30616, Note_on_c, 0, 69, 86
1, 30616, Note_on_c, 0, 61, 78
1, 30616, Note_on_c, 0, 64, 78
1, 30619, Note_on_c, 0, 33, 62
1, 30619, Note_on_c, 0, 45, 68
1, 30626, Control_c, 0, 64, 127
1, 30706, Note_on_c, 0, 45, 0
1, 30706, Note_on_c, 0, 33, 0
1, 30795, Note_on_c, 0, 37, 62
1, 30795, Note_on_c, 0, 49, 68
1, 30885, Note_on_c, 0, 49, 0
1, 30885, Note_on_c, 0, 37, 0
1, 30974, Note_on_c, 0, 64, 0
1, 30974, Note_on_c, 0, 61, 0
1, 30974, Note_on_c, 0, 69, 0
1, 30977, Note_on_c, 0, 59, 78
1, 30977, Note_on_c, 0, 64, 78
1, 30977, Note_on_c, 0, 68, 86
1, 30980, Control_c, 0, 64, 0
1, 30980, Note_on_c, 0, 40, 64
1, 30980, Note_on_c, 0, 52, 71
1, 31009, Control_c, 0, 64, 127
1, 31196, Control_c, 0, 64, 0
1, 31243, Note_on_c, 0, 68, 0
1, 31243, Note_on_c, 0, 64, 0
1, 31243, Note_on_c, 0, 59, 0
1, 31246, Note_on_c, 0, 57, 71
1, 31246, Note_on_c, 0, 63, 71
1, 31246, Note_on_c, 0, 66, 78
1, 31249, Note_on_c, 0, 52, 0
1, 31249, Note_on_c, 0, 40, 0
1, 31249, Note_on_c, 0, 36, 55
1, 31252, Note_on_c, 0, 48, 61
1, 31333, Note_on_c, 0, 66, 0
1, 31333, Note_on_c, 0, 63, 0
1, 31333, Note_on_c, 0, 57, 0
1, 31336, Note_on_c, 0, 56, 73
1, 31336, Note_on_c, 0, 61, 73
1, 31336, Note_on_c, 0, 64, 81
1, 31339, Note_on_c, 0, 48, 0
1, 31339, Note_on_c, 0, 36, 0
1, 31339, Note_on_c, 0, 37, 59
1, 31342, Note_on_c, 0, 49, 65
1, 31446, Control_c, 0, 64, 127
1, 31682, Note_on_c, 0, 64, 0
1, 31682, Note_on_c, 0, 61, 0
1, 31682, Note_on_c, 0, 56, 0
1, 31685, Note_on_c, 0, 49, 0
1, 31685, Note_on_c, 0, 37, 0
1, 31697, Note_on_c, 0, 57, 69
1, 31697, Note_on_c, 0, 61, 69
1, 31697, Note_on_c, 0, 66, 76
1, 31700, Control_c, 0, 64, 0
1, 31700, Note_on_c, 0, 33, 58
1, 31700, Note_on_c, 0, 45, 64
1, 31823, Control_c, 0, 64, 127
1, 32046, Note_on_c, 0, 66, 0
1, 32046, Note_on_c, 0, 61, 0
1, 32046, Note_on_c, 0, 57, 0
1, 32049, Note_on_c, 0, 45, 0
1, 32049, Note_on_c, 0, 33, 0
1, 32062, Note_on_c, 0, 54, 70
1, 32062, Note_on_c, 0, 59, 70
1, 32062, Note_on_c, 0, 63, 77
1, 32065, Control_c, 0, 64, 0
1, 32065, Note_on_c, 0, 35, 57
1, 32065, Note_on_c, 0, 47, 63
1, 32142, Control_c, 0, 64, 127
1, 32299, Control_c, 0, 64, 0
1, 32412, Note_on_c, 0, 63, 0
1, 32412, Note_on_c, 0, 59, 0
1, 32412, Note_on_c, 0, 54, 0
1, 32415, Note_on_c, 0, 47, 0
1, 32415, Note_on_c, 0, 35, 0
1, 32428, Note_on_c, 0, 56, 72
1, 32428, Note_on_c, 0, 59, 72
1, 32428, Note_on_c, 0, 64, 79
1, 32431, Note_on_c, 0, 28, 55
1, 32431, Note_on_c, 0, 40, 61
1, 32497, Control_c, 0, 64, 127
1, 32654, Control_c, 0, 64, 0
1, 32695, Note_on_c, 0, 64, 0
1, 32695, Note_on_c, 0, 59, 0
1, 32695, Note_on_c, 0, 56, 0
1, 32698, Note_on_c, 0, 40, 0
1, 32698, Note_on_c, 0, 28, 0
1, 32783, Note_on_c, 0, 54, 69
1, 32783, Note_on_c, 0, 59, 63
1, 32783, Note_on_c, 0, 62, 69
1, 32786, Note_on_c, 0, 30, 48
1, 32786, Note_on_c, 0, 42, 53
1, 32814, Control_c, 0, 64, 127
1, 32872, Note_on_c, 0, 54, 0
1, 32872, Note_on_c, 0, 42, 0
1, 32872, Note_on_c, 0, 30, 0
1, 32961, Note_on_c, 0, 52, 69
1, 32961, Note_on_c, 0, 32, 48
1, 32961, Note_on_c, 0, 44, 53
1, 33057, Note_on_c, 0, 52, 0
1, 33057, Note_on_c, 0, 44, 0
1, 33057, Note_on_c, 0, 32, 0
1, 33152, Note_on_c, 0, 62, 0
1, 33152, Note_on_c, 0, 59, 0
1, 33152, Note_on_c, 0, 52, 64
1, 33155, Note_on_c, 0, 57, 64
1, 33155, Note_on_c, 0, 61, 71
1, 33155, Note_on_c, 0, 33, 50
1, 33158, Note_on_c, 0, 45, 55
1, 33183, Control_c, 0, 64, 0
1, 33237, Control_c, 0, 64, 127
1, 33395, Control_c, 0, 64, 0
1, 33431, Note_on_c, 0, 61, 0
1, 33431, Note_on_c, 0, 57, 0
1, 33431, Note_on_c, 0, 52, 0
1, 33434, Note_on_c, 0, 50, 55
1, 33434, Note_on_c, 0, 56, 55
1, 33434, Note_on_c, 0, 59, 60
1, 33437, Note_on_c, 0, 45, 0
1, 33437, Note_on_c, 0, 33, 0
1, 33437, Note_on_c, 0, 29, 40
1, 33440, Note_on_c, 0, 41, 44
1, 33524, Note_on_c, 0, 59, 0
1, 33524, Note_on_c, 0, 56, 0
1, 33524, Note_on_c, 0, 50, 0
1, 33527, Note_on_c, 0, 49, 58
1, 33527, Note_on_c, 0, 54, 58
1, 33527, Note_on_c, 0, 57, 64
1, 33530, Note_on_c, 0, 41, 0
1, 33530, Note_on_c, 0, 29, 0
1, 33530, Note_on_c, 0, 30, 45
1, 33533, Note_on_c, 0, 42, 49
1, 33685, Control_c, 0, 64, 127
1, 33930, Note_on_c, 0, 57, 0
1, 33930, Note_on_c, 0, 54, 0
1, 33930, Note_on_c, 0, 49, 0
1, 33933, Note_on_c, 0, 42, 0
1, 33933, Note_on_c, 0, 30, 0
1, 33948, Note_on_c, 0, 50, 59
1, 33948, Note_on_c, 0, 54, 59
1, 33948, Note_on_c, 0, 59, 65
1, 33951, Note_on_c, 0, 26, 43
1, 33951, Note_on_c, 0, 38, 47
1, 34009, Control_c, 0, 64, 0
1, 34110, Control_c, 0, 64, 127
1, 34398, Note_on_c, 0, 59, 0
1, 34398, Note_on_c, 0, 54, 0
1, 34398, Note_on_c, 0, 50, 0
1, 34401, Note_on_c, 0, 38, 0
1, 34401, Note_on_c, 0, 26, 0
1, 34418, Note_on_c, 0, 47, 52
1, 34418, Note_on_c, 0, 52, 52
1, 34418, Note_on_c, 0, 56, 57
1, 34421, Control_c, 0, 64, 0
1, 34421, Note_on_c, 0, 28, 39
1, 34421, Note_on_c, 0, 40, 43
1, 34656, Control_c, 0, 64, 127
1, 34995, Control_c, 0, 64, 0
1, 35004, Note_on_c, 0, 56, 0
1, 35004, Note_on_c, 0, 52, 0
1, 35004, Note_on_c, 0, 47, 0
1, 35007, Note_on_c, 0, 40, 0
1, 35007, Note_on_c, 0, 28, 0
1, 35029, Note_on_c, 0, 49, 48
1, 35029, Note_on_c, 0, 52, 48
1, 35029, Note_on_c, 0, 57, 53
1, 35032, Note_on_c, 0, 33, 37
1, 35032, Note_on_c, 0, 40, 40
1, 35471, Control_c, 0, 64, 127
1, 35618, Note_on_c, 0, 57, 0
1, 35618, Note_on_c, 0, 52, 0
1, 35618, Note_on_c, 0, 49, 0
1, 35621, Note_on_c, 0, 40, 0
1, 35621, Note_on_c, 0, 33, 0
1, 35909, Control_c, 0, 64, 0
1, 37407, End_track
0, 0, End_of_file
