0, 0, Header, 0, 1, 384
1, 0, Start_track
1, 0, Tempo, 512820
1, 0, Title_t, "Kinderszenen OpuFürchtenmachen"
1, 0, Program_c, 0, 0
1, 0, Control_c, 0, 7, 100
1, 3, Control_c, 0, 64, 0
1, 3, Control_c, 0, 91, 127
1, 748, Note_on_c, 0, 71, 64
1, 748, Control_c, 0, 91, 127
1, 748, Program_c, 0, 0
1, 751, Control_c, 0, 7, 100
1, 751, Control_c, 0, 91, 127
1, 751, Control_c, 0, 64, 0
1, 754, Control_c, 0, 64, 0
1, 979, Note_on_c, 0, 64, 47
1, 979, Note_on_c, 0, 67, 47
1, 1209, Note_on_c, 0, 67, 0
1, 1209, Note_on_c, 0, 64, 0
1, 1209, Note_on_c, 0, 71, 0
1, 1212, Note_on_c, 0, 63, 39
1, 1212, Note_on_c, 0, 66, 39
1, 1212, Note_on_c, 0, 71, 64
1, 1434, Note_on_c, 0, 66, 0
1, 1434, Note_on_c, 0, 63, 0
1, 1434, Note_on_c, 0, 62, 47
1, 1437, Note_on_c, 0, 65, 45
1, 1546, Note_on_c, 0, 71, 0
1, 1546, Note_on_c, 0, 71, 53
1, 1658, Note_on_c, 0, 71, 0
1, 1658, Note_on_c, 0, 65, 0
1, 1658, Note_on_c, 0, 62, 0
1, 1661, Note_on_c, 0, 61, 44
1, 1661, Note_on_c, 0, 71, 64
1, 1661, Note_on_c, 0, 64, 44
1, 1883, Note_on_c, 0, 71, 0
1, 1883, Note_on_c, 0, 70, 60
1, 2112, Note_on_c, 0, 70, 0
1, 2112, Note_on_c, 0, 76, 63
1, 2330, Note_on_c, 0, 76, 0
1, 2330, Note_on_c, 0, 64, 0
1, 2330, Note_on_c, 0, 61, 0
1, 2333, Note_on_c, 0, 69, 44
1, 2333, Note_on_c, 0, 60, 44
1, 2333, Note_on_c, 0, 63, 44
1, 2336, Note_on_c, 0, 75, 61
1, 2552, Note_on_c, 0, 75, 0
1, 2552, Note_on_c, 0, 63, 0
1, 2552, Note_on_c, 0, 60, 0
1, 2555, Note_on_c, 0, 74, 64
1, 2555, Note_on_c, 0, 59, 54
1, 2555, Note_on_c, 0, 62, 54
1, 2776, Note_on_c, 0, 74, 0
1, 2776, Note_on_c, 0, 69, 0
1, 2776, Note_on_c, 0, 67, 55
1, 3013, Note_on_c, 0, 67, 0
1, 3013, Note_on_c, 0, 66, 45
1, 3013, Note_on_c, 0, 72, 61
1, 3016, Note_on_c, 0, 62, 0
1, 3016, Note_on_c, 0, 59, 0
1, 3016, Note_on_c, 0, 62, 51
1, 3019, Note_on_c, 0, 57, 51
1, 3239, Note_on_c, 0, 66, 0
1, 3239, Note_on_c, 0, 67, 51
1, 3353, Note_on_c, 0, 72, 0
1, 3353, Note_on_c, 0, 71, 59
1, 3353, Note_on_c, 0, 57, 0
1, 3356, Note_on_c, 0, 62, 0
1, 3356, Note_on_c, 0, 62, 45
1, 3356, Note_on_c, 0, 55, 45
1, 3469, Note_on_c, 0, 71, 0
1, 3469, Note_on_c, 0, 67, 0
1, 3469, Note_on_c, 0, 67, 60
1, 3472, Note_on_c, 0, 71, 60
1, 3472, Note_on_c, 0, 55, 0
1, 3472, Note_on_c, 0, 62, 0
1, 3475, Note_on_c, 0, 62, 50
1, 3475, Note_on_c, 0, 55, 50
1, 3702, Note_on_c, 0, 55, 0
1, 3702, Note_on_c, 0, 59, 51
1, 3934, Note_on_c, 0, 71, 0
1, 3934, Note_on_c, 0, 67, 0
1, 3934, Note_on_c, 0, 69, 59
1, 3937, Note_on_c, 0, 66, 59
1, 3937, Note_on_c, 0, 59, 0
1, 3937, Note_on_c, 0, 62, 0
1, 3940, Note_on_c, 0, 62, 53
1, 4167, Note_on_c, 0, 50, 50
1, 4400, Note_on_c, 0, 66, 0
1, 4400, Note_on_c, 0, 69, 0
1, 4400, Note_on_c, 0, 62, 0
1, 4403, Note_on_c, 0, 62, 78
1, 4629, Note_on_c, 0, 79, 60
1, 4629, Note_on_c, 0, 71, 60
1, 4629, Note_on_c, 0, 74, 60
1, 4858, Note_on_c, 0, 74, 0
1, 4858, Note_on_c, 0, 71, 0
1, 4858, Note_on_c, 0, 79, 0
1, 4861, Note_on_c, 0, 78, 63
1, 4861, Note_on_c, 0, 69, 63
1, 4861, Note_on_c, 0, 74, 63
1, 4864, Note_on_c, 0, 62, 0
1, 4864, Note_on_c, 0, 62, 77
1, 5084, Note_on_c, 0, 74, 0
1, 5084, Note_on_c, 0, 69, 0
1, 5084, Note_on_c, 0, 78, 0
1, 5087, Note_on_c, 0, 76, 65
1, 5087, Note_on_c, 0, 67, 65
1, 5087, Note_on_c, 0, 73, 65
1, 5197, Note_on_c, 0, 62, 0
1, 5197, Note_on_c, 0, 62, 72
1, 5310, Note_on_c, 0, 73, 0
1, 5310, Note_on_c, 0, 67, 0
1, 5310, Note_on_c, 0, 76, 0
1, 5313, Note_on_c, 0, 74, 72
1, 5313, Note_on_c, 0, 66, 72
1, 5313, Note_on_c, 0, 69, 72
1, 5316, Note_on_c, 0, 62, 0
1, 5316, Note_on_c, 0, 50, 0
1, 5316, Note_on_c, 0, 62, 77
1, 5535, Note_on_c, 0, 62, 0
1, 5535, Note_on_c, 0, 60, 72
1, 5765, Note_on_c, 0, 60, 0
1, 5765, Note_on_c, 0, 64, 75
1, 5980, Note_on_c, 0, 64, 0
1, 5980, Note_on_c, 0, 62, 71
1, 6201, Note_on_c, 0, 62, 0
1, 6201, Note_on_c, 0, 60, 74
1, 6426, Note_on_c, 0, 69, 0
1, 6426, Note_on_c, 0, 66, 0
1, 6426, Note_on_c, 0, 74, 0
1, 6429, Note_on_c, 0, 67, 59
1, 6429, Note_on_c, 0, 74, 59
1, 6429, Note_on_c, 0, 60, 0
1, 6432, Note_on_c, 0, 59, 66
1, 6432, Note_on_c, 0, 62, 66
1, 6658, Note_on_c, 0, 74, 0
1, 6658, Note_on_c, 0, 67, 0
1, 6658, Note_on_c, 0, 66, 55
1, 6661, Note_on_c, 0, 72, 55
1, 6661, Note_on_c, 0, 62, 0
1, 6661, Note_on_c, 0, 59, 0
1, 6664, Note_on_c, 0, 57, 71
1, 6664, Note_on_c, 0, 62, 71
1, 6893, Note_on_c, 0, 66, 0
1, 6893, Note_on_c, 0, 67, 54
1, 7011, Note_on_c, 0, 72, 0
1, 7011, Note_on_c, 0, 71, 54
1, 7011, Note_on_c, 0, 62, 0
1, 7014, Note_on_c, 0, 57, 0
1, 7014, Note_on_c, 0, 55, 59
1, 7014, Note_on_c, 0, 62, 59
1, 7134, Note_on_c, 0, 71, 0
1, 7134, Note_on_c, 0, 67, 0
1, 7134, Note_on_c, 0, 67, 58
1, 7137, Note_on_c, 0, 71, 58
1, 7137, Note_on_c, 0, 62, 0
1, 7137, Note_on_c, 0, 55, 0
1, 7140, Note_on_c, 0, 55, 65
1, 7140, Note_on_c, 0, 62, 65
1, 7397, Note_on_c, 0, 55, 0
1, 7397, Note_on_c, 0, 59, 47
1, 7637, Note_on_c, 0, 71, 0
1, 7637, Note_on_c, 0, 67, 0
1, 7637, Note_on_c, 0, 69, 53
1, 7640, Note_on_c, 0, 66, 53
1, 7640, Note_on_c, 0, 59, 0
1, 7640, Note_on_c, 0, 62, 0
1, 7643, Note_on_c, 0, 62, 50
1, 7894, Note_on_c, 0, 50, 44
1, 8164, Note_on_c, 0, 66, 0
1, 8164, Note_on_c, 0, 69, 0
1, 8164, Control_c, 0, 91, 127
1, 8167, Note_on_c, 0, 71, 64
1, 8167, Note_on_c, 0, 50, 0
1, 8167, Note_on_c, 0, 62, 0
1, 8170, Control_c, 0, 91, 127
1, 8395, Note_on_c, 0, 64, 47
1, 8395, Note_on_c, 0, 67, 47
1, 8625, Note_on_c, 0, 67, 0
1, 8625, Note_on_c, 0, 64, 0
1, 8625, Note_on_c, 0, 71, 0
1, 8628, Note_on_c, 0, 63, 39
1, 8628, Note_on_c, 0, 66, 39
1, 8628, Note_on_c, 0, 71, 64
1, 8850, Note_on_c, 0, 66, 0
1, 8850, Note_on_c, 0, 63, 0
1, 8850, Note_on_c, 0, 62, 47
1, 8853, Note_on_c, 0, 65, 45
1, 8962, Note_on_c, 0, 71, 0
1, 8962, Note_on_c, 0, 71, 53
1, 9075, Note_on_c, 0, 71, 0
1, 9075, Note_on_c, 0, 65, 0
1, 9075, Note_on_c, 0, 62, 0
1, 9078, Note_on_c, 0, 61, 44
1, 9078, Note_on_c, 0, 64, 44
1, 9078, Note_on_c, 0, 71, 64
1, 9299, Note_on_c, 0, 71, 0
1, 9299, Note_on_c, 0, 70, 60
1, 9528, Note_on_c, 0, 70, 0
1, 9528, Note_on_c, 0, 76, 63
1, 9747, Note_on_c, 0, 76, 0
1, 9747, Note_on_c, 0, 64, 0
1, 9747, Note_on_c, 0, 61, 0
1, 9750, Note_on_c, 0, 60, 44
1, 9750, Note_on_c, 0, 63, 44
1, 9750, Note_on_c, 0, 69, 44
1, 9753, Note_on_c, 0, 75, 61
1, 9968, Note_on_c, 0, 75, 0
1, 9968, Note_on_c, 0, 60, 0
1, 9968, Note_on_c, 0, 63, 0
1, 9971, Note_on_c, 0, 74, 64
1, 9971, Note_on_c, 0, 62, 54
1, 9971, Note_on_c, 0, 59, 54
1, 10192, Note_on_c, 0, 74, 0
1, 10192, Note_on_c, 0, 69, 0
1, 10192, Note_on_c, 0, 67, 55
1, 10429, Note_on_c, 0, 67, 0
1, 10429, Note_on_c, 0, 66, 45
1, 10429, Note_on_c, 0, 72, 61
1, 10432, Note_on_c, 0, 59, 0
1, 10432, Note_on_c, 0, 62, 0
1, 10432, Note_on_c, 0, 57, 51
1, 10435, Note_on_c, 0, 62, 51
1, 10655, Note_on_c, 0, 66, 0
1, 10655, Note_on_c, 0, 67, 51
1, 10769, Note_on_c, 0, 72, 0
1, 10769, Note_on_c, 0, 71, 59
1, 10769, Note_on_c, 0, 62, 0
1, 10772, Note_on_c, 0, 57, 0
1, 10772, Note_on_c, 0, 55, 45
1, 10772, Note_on_c, 0, 62, 45
1, 10885, Note_on_c, 0, 71, 0
1, 10885, Note_on_c, 0, 67, 0
1, 10885, Note_on_c, 0, 67, 60
1, 10888, Note_on_c, 0, 71, 60
1, 10888, Note_on_c, 0, 62, 0
1, 10888, Note_on_c, 0, 55, 0
1, 10891, Note_on_c, 0, 55, 50
1, 10891, Note_on_c, 0, 62, 50
1, 11118, Note_on_c, 0, 55, 0
1, 11118, Note_on_c, 0, 59, 51
1, 11351, Note_on_c, 0, 71, 0
1, 11351, Note_on_c, 0, 67, 0
1, 11351, Note_on_c, 0, 66, 59
1, 11354, Note_on_c, 0, 69, 59
1, 11354, Note_on_c, 0, 59, 0
1, 11354, Note_on_c, 0, 62, 0
1, 11357, Note_on_c, 0, 62, 53
1, 11583, Note_on_c, 0, 50, 50
1, 11816, Note_on_c, 0, 69, 0
1, 11816, Note_on_c, 0, 66, 0
1, 11816, Note_on_c, 0, 62, 0
1, 11819, Note_on_c, 0, 62, 78
1, 12044, Note_on_c, 0, 71, 60
1, 12044, Note_on_c, 0, 74, 60
1, 12044, Note_on_c, 0, 79, 60
1, 12272, Note_on_c, 0, 79, 0
1, 12272, Note_on_c, 0, 74, 0
1, 12272, Note_on_c, 0, 71, 0
1, 12275, Note_on_c, 0, 69, 63
1, 12275, Note_on_c, 0, 74, 63
1, 12275, Note_on_c, 0, 78, 63
1, 12278, Note_on_c, 0, 62, 0
1, 12278, Note_on_c, 0, 62, 77
1, 12498, Note_on_c, 0, 78, 0
1, 12498, Note_on_c, 0, 74, 0
1, 12498, Note_on_c, 0, 69, 0
1, 12501, Note_on_c, 0, 67, 65
1, 12501, Note_on_c, 0, 73, 65
1, 12501, Note_on_c, 0, 76, 65
1, 12611, Note_on_c, 0, 62, 0
1, 12611, Note_on_c, 0, 62, 72
1, 12724, Note_on_c, 0, 76, 0
1, 12724, Note_on_c, 0, 73, 0
1, 12724, Note_on_c, 0, 67, 0
1, 12727, Note_on_c, 0, 66, 72
1, 12727, Note_on_c, 0, 69, 72
1, 12727, Note_on_c, 0, 74, 72
1, 12730, Note_on_c, 0, 62, 0
1, 12730, Note_on_c, 0, 50, 0
1, 12730, Note_on_c, 0, 62, 77
1, 12948, Note_on_c, 0, 62, 0
1, 12948, Note_on_c, 0, 60, 72
1, 13179, Note_on_c, 0, 60, 0
1, 13179, Note_on_c, 0, 64, 75
1, 13396, Note_on_c, 0, 64, 0
1, 13396, Note_on_c, 0, 62, 71
1, 13616, Note_on_c, 0, 62, 0
1, 13616, Note_on_c, 0, 60, 74
1, 13841, Note_on_c, 0, 74, 0
1, 13841, Note_on_c, 0, 69, 0
1, 13841, Note_on_c, 0, 66, 0
1, 13844, Note_on_c, 0, 67, 59
1, 13844, Note_on_c, 0, 74, 59
1, 13844, Note_on_c, 0, 60, 0
1, 13847, Note_on_c, 0, 59, 66
1, 13847, Note_on_c, 0, 62, 66
1, 14076, Note_on_c, 0, 74, 0
1, 14076, Note_on_c, 0, 67, 0
1, 14076, Note_on_c, 0, 72, 55
1, 14079, Note_on_c, 0, 66, 55
1, 14079, Note_on_c, 0, 62, 0
1, 14079, Note_on_c, 0, 59, 0
1, 14082, Note_on_c, 0, 57, 71
1, 14082, Note_on_c, 0, 62, 71
1, 14318, Note_on_c, 0, 66, 0
1, 14318, Note_on_c, 0, 67, 54
1, 14439, Note_on_c, 0, 72, 0
1, 14439, Note_on_c, 0, 71, 54
1, 14439, Note_on_c, 0, 62, 0
1, 14442, Note_on_c, 0, 57, 0
1, 14442, Note_on_c, 0, 55, 59
1, 14442, Note_on_c, 0, 62, 59
1, 14569, Note_on_c, 0, 71, 0
1, 14569, Note_on_c, 0, 67, 0
1, 14569, Note_on_c, 0, 67, 58
1, 14572, Note_on_c, 0, 71, 58
1, 14572, Note_on_c, 0, 62, 0
1, 14572, Note_on_c, 0, 55, 0
1, 14575, Note_on_c, 0, 55, 65
1, 14575, Note_on_c, 0, 62, 65
1, 14857, Note_on_c, 0, 55, 0
1, 14857, Note_on_c, 0, 59, 47
1, 15097, Note_on_c, 0, 71, 0
1, 15097, Note_on_c, 0, 67, 0
1, 15097, Note_on_c, 0, 66, 53
1, 15100, Note_on_c, 0, 69, 53
1, 15100, Note_on_c, 0, 59, 0
1, 15100, Note_on_c, 0, 62, 0
1, 15103, Note_on_c, 0, 62, 50
1, 15354, Note_on_c, 0, 50, 44
1, 15655, Note_on_c, 0, 69, 0
1, 15655, Note_on_c, 0, 66, 0
1, 15655, Note_on_c, 0, 50, 0
1, 15658, Note_on_c, 0, 62, 0
1, 15658, Note_on_c, 0, 52, 47
1, 15751, Note_on_c, 0, 59, 36
1, 15751, Note_on_c, 0, 64, 36
1, 15751, Note_on_c, 0, 67, 36
1, 15848, Note_on_c, 0, 67, 0
1, 15848, Note_on_c, 0, 64, 0
1, 15848, Note_on_c, 0, 59, 0
1, 15851, Note_on_c, 0, 52, 0
1, 15851, Note_on_c, 0, 54, 43
1, 15942, Note_on_c, 0, 59, 38
1, 15942, Note_on_c, 0, 64, 38
1, 15942, Note_on_c, 0, 67, 38
1, 15945, Note_on_c, 0, 54, 0
1, 15945, Note_on_c, 0, 55, 43
1, 16035, Note_on_c, 0, 67, 0
1, 16035, Note_on_c, 0, 64, 0
1, 16035, Note_on_c, 0, 59, 0
1, 16038, Note_on_c, 0, 55, 0
1, 16038, Note_on_c, 0, 57, 47
1, 16129, Note_on_c, 0, 66, 42
1, 16129, Note_on_c, 0, 64, 42
1, 16129, Note_on_c, 0, 60, 42
1, 16223, Note_on_c, 0, 60, 0
1, 16223, Note_on_c, 0, 64, 0
1, 16223, Note_on_c, 0, 66, 0
1, 16226, Note_on_c, 0, 57, 0
1, 16226, Note_on_c, 0, 45, 43
1, 16321, Note_on_c, 0, 66, 36
1, 16321, Note_on_c, 0, 64, 36
1, 16321, Note_on_c, 0, 60, 36
1, 16418, Note_on_c, 0, 60, 0
1, 16418, Note_on_c, 0, 64, 0
1, 16418, Note_on_c, 0, 66, 0
1, 16421, Note_on_c, 0, 45, 0
1, 16421, Note_on_c, 0, 47, 47
1, 16514, Note_on_c, 0, 59, 36
1, 16514, Note_on_c, 0, 63, 36
1, 16514, Note_on_c, 0, 66, 36
1, 16610, Note_on_c, 0, 66, 0
1, 16610, Note_on_c, 0, 63, 0
1, 16610, Note_on_c, 0, 59, 0
1, 16613, Note_on_c, 0, 47, 0
1, 16613, Note_on_c, 0, 35, 43
1, 16708, Note_on_c, 0, 59, 37
1, 16708, Note_on_c, 0, 63, 37
1, 16708, Note_on_c, 0, 66, 37
1, 16807, Note_on_c, 0, 66, 0
1, 16807, Note_on_c, 0, 63, 0
1, 16807, Note_on_c, 0, 59, 0
1, 16810, Note_on_c, 0, 35, 0
1, 16810, Note_on_c, 0, 40, 54
1, 16905, Note_on_c, 0, 59, 42
1, 16905, Note_on_c, 0, 64, 42
1, 16905, Note_on_c, 0, 67, 42
1, 17003, Note_on_c, 0, 67, 0
1, 17003, Note_on_c, 0, 64, 0
1, 17003, Note_on_c, 0, 59, 0
1, 17006, Note_on_c, 0, 40, 0
1, 17006, Note_on_c, 0, 43, 64
1, 17105, Note_on_c, 0, 55, 51
1, 17105, Note_on_c, 0, 59, 51
1, 17105, Note_on_c, 0, 62, 51
1, 17207, Note_on_c, 0, 62, 0
1, 17207, Note_on_c, 0, 59, 0
1, 17207, Note_on_c, 0, 55, 0
1, 17210, Note_on_c, 0, 43, 0
1, 17210, Note_on_c, 0, 48, 60
1, 17303, Note_on_c, 0, 55, 40
1, 17303, Note_on_c, 0, 60, 40
1, 17303, Note_on_c, 0, 64, 40
1, 17399, Note_on_c, 0, 64, 0
1, 17399, Note_on_c, 0, 60, 0
1, 17399, Note_on_c, 0, 55, 0
1, 17402, Note_on_c, 0, 48, 0
1, 17402, Note_on_c, 0, 50, 54
1, 17491, Note_on_c, 0, 55, 42
1, 17491, Note_on_c, 0, 60, 42
1, 17491, Note_on_c, 0, 64, 42
1, 17494, Note_on_c, 0, 50, 0
1, 17494, Note_on_c, 0, 52, 54
1, 17583, Note_on_c, 0, 64, 0
1, 17583, Note_on_c, 0, 60, 0
1, 17583, Note_on_c, 0, 55, 0
1, 17586, Note_on_c, 0, 52, 0
1, 17586, Note_on_c, 0, 53, 59
1, 17675, Note_on_c, 0, 57, 43
1, 17675, Note_on_c, 0, 60, 43
1, 17675, Note_on_c, 0, 62, 43
1, 17767, Note_on_c, 0, 62, 0
1, 17767, Note_on_c, 0, 60, 0
1, 17767, Note_on_c, 0, 57, 0
1, 17770, Note_on_c, 0, 53, 0
1, 17770, Note_on_c, 0, 41, 53
1, 17865, Note_on_c, 0, 57, 38
1, 17865, Note_on_c, 0, 60, 38
1, 17865, Note_on_c, 0, 62, 38
1, 17963, Note_on_c, 0, 62, 0
1, 17963, Note_on_c, 0, 60, 0
1, 17963, Note_on_c, 0, 57, 0
1, 17966, Note_on_c, 0, 41, 0
1, 17966, Note_on_c, 0, 43, 58
1, 18059, Note_on_c, 0, 55, 42
1, 18059, Note_on_c, 0, 59, 42
1, 18059, Note_on_c, 0, 62, 42
1, 18155, Note_on_c, 0, 62, 0
1, 18155, Note_on_c, 0, 59, 0
1, 18155, Note_on_c, 0, 55, 0
1, 18158, Note_on_c, 0, 43, 0
1, 18158, Note_on_c, 0, 31, 53
1, 18252, Note_on_c, 0, 55, 43
1, 18252, Note_on_c, 0, 59, 43
1, 18252, Note_on_c, 0, 62, 43
1, 18349, Note_on_c, 0, 62, 0
1, 18349, Note_on_c, 0, 59, 0
1, 18349, Note_on_c, 0, 55, 0
1, 18352, Note_on_c, 0, 31, 0
1, 18352, Note_on_c, 0, 36, 63
1, 18451, Note_on_c, 0, 55, 54
1, 18451, Note_on_c, 0, 60, 54
1, 18451, Note_on_c, 0, 64, 54
1, 18553, Note_on_c, 0, 36, 0
1, 18553, Note_on_c, 0, 35, 67
1, 18757, Note_on_c, 0, 64, 0
1, 18757, Note_on_c, 0, 60, 0
1, 18757, Note_on_c, 0, 55, 0
1, 18760, Note_on_c, 0, 35, 0
1, 18760, Note_on_c, 0, 52, 58
1, 18853, Note_on_c, 0, 59, 39
1, 18853, Note_on_c, 0, 64, 39
1, 18853, Note_on_c, 0, 67, 39
1, 18950, Note_on_c, 0, 67, 0
1, 18950, Note_on_c, 0, 64, 0
1, 18950, Note_on_c, 0, 59, 0
1, 18953, Note_on_c, 0, 52, 0
1, 18953, Note_on_c, 0, 54, 54
1, 19044, Note_on_c, 0, 59, 44
1, 19044, Note_on_c, 0, 64, 44
1, 19044, Note_on_c, 0, 67, 44
1, 19047, Note_on_c, 0, 54, 0
1, 19047, Note_on_c, 0, 55, 60
1, 19137, Note_on_c, 0, 67, 0
1, 19137, Note_on_c, 0, 64, 0
1, 19137, Note_on_c, 0, 59, 0
1, 19140, Note_on_c, 0, 55, 0
1, 19140, Note_on_c, 0, 57, 66
1, 19231, Note_on_c, 0, 66, 48
1, 19231, Note_on_c, 0, 64, 48
1, 19231, Note_on_c, 0, 60, 48
1, 19325, Note_on_c, 0, 60, 0
1, 19325, Note_on_c, 0, 64, 0
1, 19325, Note_on_c, 0, 66, 0
1, 19328, Note_on_c, 0, 57, 0
1, 19328, Note_on_c, 0, 45, 54
1, 19423, Note_on_c, 0, 66, 38
1, 19423, Note_on_c, 0, 64, 38
1, 19423, Note_on_c, 0, 60, 38
1, 19520, Note_on_c, 0, 60, 0
1, 19520, Note_on_c, 0, 64, 0
1, 19520, Note_on_c, 0, 66, 0
1, 19523, Note_on_c, 0, 45, 0
1, 19523, Note_on_c, 0, 47, 64
1, 19616, Note_on_c, 0, 59, 38
1, 19616, Note_on_c, 0, 63, 38
1, 19616, Note_on_c, 0, 66, 38
1, 19712, Note_on_c, 0, 66, 0
1, 19712, Note_on_c, 0, 63, 0
1, 19712, Note_on_c, 0, 59, 0
1, 19715, Note_on_c, 0, 47, 0
1, 19715, Note_on_c, 0, 35, 53
1, 19810, Note_on_c, 0, 59, 39
1, 19810, Note_on_c, 0, 63, 39
1, 19810, Note_on_c, 0, 66, 39
1, 19909, Note_on_c, 0, 66, 0
1, 19909, Note_on_c, 0, 63, 0
1, 19909, Note_on_c, 0, 59, 0
1, 19912, Note_on_c, 0, 35, 0
1, 19912, Note_on_c, 0, 40, 63
1, 20007, Note_on_c, 0, 59, 45
1, 20007, Note_on_c, 0, 64, 45
1, 20007, Note_on_c, 0, 67, 45
1, 20105, Note_on_c, 0, 67, 0
1, 20105, Note_on_c, 0, 64, 0
1, 20105, Note_on_c, 0, 59, 0
1, 20108, Note_on_c, 0, 40, 0
1, 20108, Note_on_c, 0, 43, 69
1, 20207, Note_on_c, 0, 55, 55
1, 20207, Note_on_c, 0, 59, 55
1, 20207, Note_on_c, 0, 62, 55
1, 20309, Note_on_c, 0, 62, 0
1, 20309, Note_on_c, 0, 59, 0
1, 20309, Note_on_c, 0, 55, 0
1, 20312, Note_on_c, 0, 43, 0
1, 20312, Note_on_c, 0, 48, 69
1, 20405, Note_on_c, 0, 55, 43
1, 20405, Note_on_c, 0, 60, 43
1, 20405, Note_on_c, 0, 64, 43
1, 20501, Note_on_c, 0, 64, 0
1, 20501, Note_on_c, 0, 60, 0
1, 20501, Note_on_c, 0, 55, 0
1, 20504, Note_on_c, 0, 48, 0
1, 20504, Note_on_c, 0, 50, 61
1, 20593, Note_on_c, 0, 55, 45
1, 20593, Note_on_c, 0, 60, 45
1, 20593, Note_on_c, 0, 64, 45
1, 20596, Note_on_c, 0, 50, 0
1, 20596, Note_on_c, 0, 52, 65
1, 20685, Note_on_c, 0, 64, 0
1, 20685, Note_on_c, 0, 60, 0
1, 20685, Note_on_c, 0, 55, 0
1, 20688, Note_on_c, 0, 52, 0
1, 20688, Note_on_c, 0, 53, 67
1, 20777, Note_on_c, 0, 57, 48
1, 20777, Note_on_c, 0, 60, 48
1, 20777, Note_on_c, 0, 62, 48
1, 20869, Note_on_c, 0, 62, 0
1, 20869, Note_on_c, 0, 60, 0
1, 20869, Note_on_c, 0, 57, 0
1, 20872, Note_on_c, 0, 53, 0
1, 20872, Note_on_c, 0, 41, 67
1, 20969, Note_on_c, 0, 57, 42
1, 20969, Note_on_c, 0, 60, 42
1, 20969, Note_on_c, 0, 62, 42
1, 21069, Note_on_c, 0, 62, 0
1, 21069, Note_on_c, 0, 60, 0
1, 21069, Note_on_c, 0, 57, 0
1, 21072, Note_on_c, 0, 41, 0
1, 21072, Note_on_c, 0, 43, 71
1, 21165, Note_on_c, 0, 55, 47
1, 21165, Note_on_c, 0, 59, 47
1, 21165, Note_on_c, 0, 62, 47
1, 21262, Note_on_c, 0, 62, 0
1, 21262, Note_on_c, 0, 59, 0
1, 21262, Note_on_c, 0, 55, 0
1, 21265, Note_on_c, 0, 43, 0
1, 21265, Note_on_c, 0, 31, 65
1, 21361, Note_on_c, 0, 55, 51
1, 21361, Note_on_c, 0, 59, 51
1, 21361, Note_on_c, 0, 62, 51
1, 21460, Note_on_c, 0, 62, 0
1, 21460, Note_on_c, 0, 59, 0
1, 21460, Note_on_c, 0, 55, 0
1, 21463, Note_on_c, 0, 31, 0
1, 21463, Note_on_c, 0, 36, 69
1, 21567, Note_on_c, 0, 55, 64
1, 21567, Note_on_c, 0, 60, 64
1, 21567, Note_on_c, 0, 64, 64
1, 21674, Note_on_c, 0, 36, 0
1, 21674, Note_on_c, 0, 35, 80
1, 21934, Note_on_c, 0, 64, 0
1, 21934, Note_on_c, 0, 60, 0
1, 21934, Note_on_c, 0, 55, 0
1, 21937, Note_on_c, 0, 35, 0
1, 21971, Control_c, 0, 91, 127
1, 21971, Note_on_c, 0, 71, 64
1, 21971, Control_c, 0, 91, 127
1, 22201, Note_on_c, 0, 64, 47
1, 22201, Note_on_c, 0, 67, 47
1, 22432, Note_on_c, 0, 67, 0
1, 22432, Note_on_c, 0, 64, 0
1, 22432, Note_on_c, 0, 71, 0
1, 22435, Note_on_c, 0, 63, 39
1, 22435, Note_on_c, 0, 66, 39
1, 22435, Note_on_c, 0, 71, 64
1, 22656, Note_on_c, 0, 66, 0
1, 22656, Note_on_c, 0, 63, 0
1, 22656, Note_on_c, 0, 62, 47
1, 22659, Note_on_c, 0, 65, 45
1, 22769, Note_on_c, 0, 71, 0
1, 22769, Note_on_c, 0, 71, 53
1, 22881, Note_on_c, 0, 71, 0
1, 22881, Note_on_c, 0, 65, 0
1, 22881, Note_on_c, 0, 62, 0
1, 22884, Note_on_c, 0, 61, 44
1, 22884, Note_on_c, 0, 64, 44
1, 22884, Note_on_c, 0, 71, 64
1, 23106, Note_on_c, 0, 71, 0
1, 23106, Note_on_c, 0, 70, 60
1, 23335, Note_on_c, 0, 76, 63
1, 23553, Note_on_c, 0, 76, 0
1, 23553, Note_on_c, 0, 61, 0
1, 23553, Note_on_c, 0, 64, 0
1, 23556, Note_on_c, 0, 70, 0
1, 23556, Note_on_c, 0, 60, 44
1, 23556, Note_on_c, 0, 63, 44
1, 23559, Note_on_c, 0, 69, 44
1, 23559, Note_on_c, 0, 75, 61
1, 23775, Note_on_c, 0, 75, 0
1, 23775, Note_on_c, 0, 60, 0
1, 23775, Note_on_c, 0, 63, 0
1, 23778, Note_on_c, 0, 74, 64
1, 23778, Note_on_c, 0, 62, 54
1, 23778, Note_on_c, 0, 59, 54
1, 24000, Note_on_c, 0, 74, 0
1, 24000, Note_on_c, 0, 69, 0
1, 24000, Note_on_c, 0, 67, 55
1, 24236, Note_on_c, 0, 67, 0
1, 24236, Note_on_c, 0, 66, 45
1, 24236, Note_on_c, 0, 72, 61
1, 24239, Note_on_c, 0, 59, 0
1, 24239, Note_on_c, 0, 62, 0
1, 24239, Note_on_c, 0, 57, 51
1, 24242, Note_on_c, 0, 62, 51
1, 24462, Note_on_c, 0, 66, 0
1, 24462, Note_on_c, 0, 67, 51
1, 24577, Note_on_c, 0, 72, 0
1, 24577, Note_on_c, 0, 71, 59
1, 24577, Note_on_c, 0, 62, 0
1, 24580, Note_on_c, 0, 57, 0
1, 24580, Note_on_c, 0, 55, 45
1, 24580, Note_on_c, 0, 62, 45
1, 24692, Note_on_c, 0, 71, 0
1, 24692, Note_on_c, 0, 67, 0
1, 24692, Note_on_c, 0, 67, 60
1, 24695, Note_on_c, 0, 71, 60
1, 24695, Note_on_c, 0, 62, 0
1, 24695, Note_on_c, 0, 55, 0
1, 24698, Note_on_c, 0, 55, 50
1, 24698, Note_on_c, 0, 62, 50
1, 24925, Note_on_c, 0, 55, 0
1, 24925, Note_on_c, 0, 59, 51
1, 25158, Note_on_c, 0, 71, 0
1, 25158, Note_on_c, 0, 67, 0
1, 25158, Note_on_c, 0, 66, 59
1, 25161, Note_on_c, 0, 69, 59
1, 25161, Note_on_c, 0, 59, 0
1, 25161, Note_on_c, 0, 62, 0
1, 25164, Note_on_c, 0, 62, 53
1, 25391, Note_on_c, 0, 50, 50
1, 25624, Note_on_c, 0, 69, 0
1, 25624, Note_on_c, 0, 66, 0
1, 25624, Note_on_c, 0, 62, 0
1, 25627, Note_on_c, 0, 62, 78
1, 25856, Note_on_c, 0, 71, 60
1, 25856, Note_on_c, 0, 74, 60
1, 25856, Note_on_c, 0, 79, 60
1, 26089, Note_on_c, 0, 79, 0
1, 26089, Note_on_c, 0, 74, 0
1, 26089, Note_on_c, 0, 71, 0
1, 26092, Note_on_c, 0, 69, 63
1, 26092, Note_on_c, 0, 74, 63
1, 26092, Note_on_c, 0, 78, 63
1, 26095, Note_on_c, 0, 62, 0
1, 26095, Note_on_c, 0, 62, 77
1, 26315, Note_on_c, 0, 78, 0
1, 26315, Note_on_c, 0, 74, 0
1, 26315, Note_on_c, 0, 69, 0
1, 26318, Note_on_c, 0, 67, 65
1, 26318, Note_on_c, 0, 73, 65
1, 26318, Note_on_c, 0, 76, 65
1, 26428, Note_on_c, 0, 62, 0
1, 26428, Note_on_c, 0, 62, 72
1, 26541, Note_on_c, 0, 76, 0
1, 26541, Note_on_c, 0, 73, 0
1, 26541, Note_on_c, 0, 67, 0
1, 26544, Note_on_c, 0, 66, 72
1, 26544, Note_on_c, 0, 69, 72
1, 26544, Note_on_c, 0, 74, 72
1, 26547, Note_on_c, 0, 62, 0
1, 26547, Note_on_c, 0, 50, 0
1, 26547, Note_on_c, 0, 62, 77
1, 26765, Note_on_c, 0, 62, 0
1, 26765, Note_on_c, 0, 60, 72
1, 26996, Note_on_c, 0, 60, 0
1, 26996, Note_on_c, 0, 64, 75
1, 27211, Note_on_c, 0, 64, 0
1, 27211, Note_on_c, 0, 62, 71
1, 27431, Note_on_c, 0, 62, 0
1, 27431, Note_on_c, 0, 60, 74
1, 27656, Note_on_c, 0, 74, 0
1, 27656, Note_on_c, 0, 69, 0
1, 27656, Note_on_c, 0, 66, 0
1, 27659, Note_on_c, 0, 67, 59
1, 27659, Note_on_c, 0, 74, 59
1, 27659, Note_on_c, 0, 60, 0
1, 27662, Note_on_c, 0, 59, 66
1, 27662, Note_on_c, 0, 62, 66
1, 27888, Note_on_c, 0, 74, 0
1, 27888, Note_on_c, 0, 67, 0
1, 27888, Note_on_c, 0, 72, 55
1, 27891, Note_on_c, 0, 66, 55
1, 27891, Note_on_c, 0, 62, 0
1, 27891, Note_on_c, 0, 59, 0
1, 27894, Note_on_c, 0, 57, 71
1, 27894, Note_on_c, 0, 62, 71
1, 28123, Note_on_c, 0, 66, 0
1, 28123, Note_on_c, 0, 67, 54
1, 28240, Note_on_c, 0, 72, 0
1, 28240, Note_on_c, 0, 71, 54
1, 28240, Note_on_c, 0, 62, 0
1, 28243, Note_on_c, 0, 57, 0
1, 28243, Note_on_c, 0, 55, 59
1, 28243, Note_on_c, 0, 62, 59
1, 28364, Note_on_c, 0, 71, 0
1, 28364, Note_on_c, 0, 67, 0
1, 28364, Note_on_c, 0, 67, 58
1, 28367, Note_on_c, 0, 71, 58
1, 28367, Note_on_c, 0, 62, 0
1, 28367, Note_on_c, 0, 55, 0
1, 28370, Note_on_c, 0, 55, 65
1, 28370, Note_on_c, 0, 62, 65
1, 28627, Note_on_c, 0, 55, 0
1, 28627, Note_on_c, 0, 59, 47
1, 28867, Note_on_c, 0, 71, 0
1, 28867, Note_on_c, 0, 67, 0
1, 28867, Note_on_c, 0, 66, 53
1, 28870, Note_on_c, 0, 69, 53
1, 28870, Note_on_c, 0, 59, 0
1, 28870, Note_on_c, 0, 62, 0
1, 28873, Note_on_c, 0, 62, 50
1, 29124, Note_on_c, 0, 50, 44
1, 29394, Note_on_c, 0, 69, 0
1, 29394, Note_on_c, 0, 66, 0
1, 29394, Note_on_c, 0, 71, 76
1, 29397, Note_on_c, 0, 67, 76
1, 29397, Note_on_c, 0, 50, 0
1, 29397, Note_on_c, 0, 62, 0
1, 29400, Note_on_c, 0, 55, 76
1, 29400, Note_on_c, 0, 62, 76
1, 29498, Note_on_c, 0, 71, 0
1, 29498, Note_on_c, 0, 72, 69
1, 29498, Note_on_c, 0, 62, 0
1, 29501, Note_on_c, 0, 64, 69
1, 29600, Note_on_c, 0, 72, 0
1, 29600, Note_on_c, 0, 69, 69
1, 29600, Note_on_c, 0, 64, 0
1, 29603, Note_on_c, 0, 60, 69
1, 29702, Note_on_c, 0, 69, 0
1, 29702, Note_on_c, 0, 71, 69
1, 29702, Note_on_c, 0, 60, 0
1, 29705, Note_on_c, 0, 62, 69
1, 29804, Note_on_c, 0, 71, 0
1, 29804, Note_on_c, 0, 67, 0
1, 29804, Note_on_c, 0, 67, 76
1, 29807, Note_on_c, 0, 62, 0
1, 29807, Note_on_c, 0, 59, 76
1, 29913, Note_on_c, 0, 67, 0
1, 29913, Note_on_c, 0, 59, 0
1, 30023, Note_on_c, 0, 71, 82
1, 30023, Note_on_c, 0, 68, 82
1, 30023, Note_on_c, 0, 76, 82
1, 30026, Note_on_c, 0, 55, 0
1, 30026, Note_on_c, 0, 52, 82
1, 30026, Note_on_c, 0, 64, 82
1, 30130, Note_on_c, 0, 76, 0
1, 30130, Note_on_c, 0, 68, 0
1, 30130, Note_on_c, 0, 71, 0
1, 30133, Note_on_c, 0, 64, 0
1, 30133, Note_on_c, 0, 52, 0
1, 30237, Note_on_c, 0, 45, 76
1, 30447, Note_on_c, 0, 76, 80
1, 30447, Note_on_c, 0, 69, 80
1, 30447, Note_on_c, 0, 72, 80
1, 30450, Note_on_c, 0, 45, 0
1, 30450, Note_on_c, 0, 64, 80
1, 30450, Note_on_c, 0, 52, 80
1, 30552, Note_on_c, 0, 72, 0
1, 30552, Note_on_c, 0, 69, 0
1, 30552, Note_on_c, 0, 76, 0
1, 30555, Note_on_c, 0, 52, 0
1, 30555, Note_on_c, 0, 64, 0
1, 30657, Note_on_c, 0, 50, 76
1, 30863, Note_on_c, 0, 69, 80
1, 30863, Note_on_c, 0, 74, 80
1, 30863, Note_on_c, 0, 72, 80
1, 30866, Note_on_c, 0, 50, 0
1, 30866, Note_on_c, 0, 62, 80
1, 30866, Note_on_c, 0, 54, 80
1, 30869, Note_on_c, 0, 50, 80
1, 31018, Note_on_c, 0, 72, 0
1, 31018, Note_on_c, 0, 74, 0
1, 31018, Note_on_c, 0, 69, 0
1, 31021, Note_on_c, 0, 50, 0
1, 31021, Note_on_c, 0, 54, 0
1, 31021, Note_on_c, 0, 62, 0
1, 31069, Note_on_c, 0, 67, 76
1, 31069, Note_on_c, 0, 71, 76
1, 31069, Note_on_c, 0, 55, 76
1, 31072, Note_on_c, 0, 62, 76
1, 31171, Note_on_c, 0, 71, 0
1, 31171, Note_on_c, 0, 72, 69
1, 31171, Note_on_c, 0, 62, 0
1, 31174, Note_on_c, 0, 64, 67
1, 31273, Note_on_c, 0, 72, 0
1, 31273, Note_on_c, 0, 69, 69
1, 31273, Note_on_c, 0, 64, 0
1, 31276, Note_on_c, 0, 60, 67
1, 31375, Note_on_c, 0, 69, 0
1, 31375, Note_on_c, 0, 71, 69
1, 31375, Note_on_c, 0, 60, 0
1, 31378, Note_on_c, 0, 62, 67
1, 31477, Note_on_c, 0, 71, 0
1, 31477, Note_on_c, 0, 67, 0
1, 31477, Note_on_c, 0, 67, 76
1, 31480, Note_on_c, 0, 62, 0
1, 31480, Note_on_c, 0, 59, 76
1, 31587, Note_on_c, 0, 67, 0
1, 31587, Note_on_c, 0, 59, 0
1, 31696, Note_on_c, 0, 73, 81
1, 31696, Note_on_c, 0, 78, 81
1, 31696, Note_on_c, 0, 70, 81
1, 31699, Note_on_c, 0, 55, 0
1, 31699, Note_on_c, 0, 66, 85
1, 31699, Note_on_c, 0, 54, 85
1, 31858, Note_on_c, 0, 70, 0
1, 31858, Note_on_c, 0, 78, 0
1, 31858, Note_on_c, 0, 73, 0
1, 31861, Note_on_c, 0, 54, 0
1, 31861, Note_on_c, 0, 66, 0
1, 31912, Note_on_c, 0, 47, 76
1, 32127, Note_on_c, 0, 78, 80
1, 32127, Note_on_c, 0, 71, 80
1, 32127, Note_on_c, 0, 74, 80
1, 32130, Note_on_c, 0, 47, 0
1, 32130, Note_on_c, 0, 66, 80
1, 32130, Note_on_c, 0, 54, 80
1, 32301, Note_on_c, 0, 74, 0
1, 32301, Note_on_c, 0, 71, 0
1, 32301, Note_on_c, 0, 78, 0
1, 32304, Note_on_c, 0, 54, 0
1, 32304, Note_on_c, 0, 66, 0
1, 32359, Note_on_c, 0, 74, 81
1, 32359, Note_on_c, 0, 69, 81
1, 32359, Note_on_c, 0, 78, 81
1, 32362, Note_on_c, 0, 50, 80
1, 32362, Note_on_c, 0, 62, 80
1, 32605, Note_on_c, 0, 78, 0
1, 32605, Note_on_c, 0, 69, 0
1, 32605, Note_on_c, 0, 74, 0
1, 32608, Note_on_c, 0, 74, 76
1, 32608, Note_on_c, 0, 71, 76
1, 32608, Note_on_c, 0, 79, 76
1, 32611, Note_on_c, 0, 62, 0
1, 32611, Note_on_c, 0, 50, 0
1, 32611, Note_on_c, 0, 62, 76
1, 32614, Note_on_c, 0, 55, 76
1, 32808, Note_on_c, 0, 79, 0
1, 32808, Note_on_c, 0, 71, 0
1, 32808, Note_on_c, 0, 74, 0
1, 32811, Note_on_c, 0, 55, 0
1, 32811, Note_on_c, 0, 62, 0
1, 32876, Note_on_c, 0, 79, 90
1, 32876, Control_c, 0, 64, 127
1, 32876, Note_on_c, 0, 52, 60
1, 33094, Note_on_c, 0, 52, 0
1, 33094, Note_on_c, 0, 67, 49
1, 33094, Note_on_c, 0, 64, 49
1, 33097, Note_on_c, 0, 59, 49
1, 33171, Control_c, 0, 64, 0
1, 33312, Note_on_c, 0, 79, 0
1, 33312, Note_on_c, 0, 78, 85
1, 33312, Note_on_c, 0, 59, 0
1, 33315, Note_on_c, 0, 64, 0
1, 33315, Note_on_c, 0, 67, 0
1, 33315, Note_on_c, 0, 45, 60
1, 33377, Control_c, 0, 64, 127
1, 33530, Note_on_c, 0, 45, 0
1, 33530, Note_on_c, 0, 66, 49
1, 33530, Note_on_c, 0, 60, 49
1, 33533, Note_on_c, 0, 57, 49
1, 33671, Control_c, 0, 64, 0
1, 33748, Note_on_c, 0, 78, 0
1, 33748, Note_on_c, 0, 75, 76
1, 33748, Note_on_c, 0, 57, 0
1, 33751, Note_on_c, 0, 60, 0
1, 33751, Note_on_c, 0, 66, 0
1, 33751, Note_on_c, 0, 47, 53
1, 33801, Control_c, 0, 64, 127
1, 33968, Note_on_c, 0, 47, 0
1, 33968, Note_on_c, 0, 63, 42
1, 33968, Note_on_c, 0, 54, 42
1, 33971, Note_on_c, 0, 57, 42
1, 34042, Control_c, 0, 64, 0
1, 34189, Note_on_c, 0, 75, 0
1, 34189, Note_on_c, 0, 76, 63
1, 34189, Note_on_c, 0, 57, 0
1, 34192, Note_on_c, 0, 54, 0
1, 34192, Note_on_c, 0, 63, 0
1, 34192, Note_on_c, 0, 48, 48
1, 34255, Control_c, 0, 64, 127
1, 34420, Note_on_c, 0, 48, 0
1, 34420, Note_on_c, 0, 64, 38
1, 34420, Note_on_c, 0, 55, 38
1, 34423, Note_on_c, 0, 52, 38
1, 34530, Control_c, 0, 64, 0
1, 34652, Note_on_c, 0, 76, 0
1, 34652, Note_on_c, 0, 74, 65
1, 34652, Note_on_c, 0, 52, 0
1, 34655, Note_on_c, 0, 55, 0
1, 34655, Note_on_c, 0, 64, 0
1, 34655, Note_on_c, 0, 50, 50
1, 34742, Control_c, 0, 64, 127
1, 34871, Note_on_c, 0, 50, 0
1, 34871, Note_on_c, 0, 54, 37
1, 34871, Note_on_c, 0, 62, 37
1, 35000, Control_c, 0, 64, 0
1, 35090, Note_on_c, 0, 74, 0
1, 35090, Note_on_c, 0, 72, 59
1, 35090, Note_on_c, 0, 62, 0
1, 35093, Note_on_c, 0, 54, 0
1, 35093, Note_on_c, 0, 52, 49
1, 35141, Control_c, 0, 64, 127
1, 35309, Note_on_c, 0, 52, 0
1, 35309, Note_on_c, 0, 60, 37
1, 35309, Note_on_c, 0, 55, 37
1, 35464, Control_c, 0, 64, 0
1, 35529, Note_on_c, 0, 72, 0
1, 35529, Note_on_c, 0, 70, 55
1, 35529, Note_on_c, 0, 55, 0
1, 35532, Note_on_c, 0, 60, 0
1, 35532, Note_on_c, 0, 54, 45
1, 35607, Control_c, 0, 64, 127
1, 35765, Note_on_c, 0, 54, 0
1, 35765, Note_on_c, 0, 64, 36
1, 35765, Note_on_c, 0, 61, 36
1, 35912, Control_c, 0, 64, 0
1, 36001, Note_on_c, 0, 70, 0
1, 36001, Note_on_c, 0, 71, 50
1, 36001, Note_on_c, 0, 61, 0
1, 36004, Note_on_c, 0, 64, 0
1, 36004, Note_on_c, 0, 59, 39
1, 36071, Control_c, 0, 64, 127
1, 36244, Note_on_c, 0, 66, 37
1, 36244, Note_on_c, 0, 63, 37
1, 36364, Control_c, 0, 64, 0
1, 36523, Note_on_c, 0, 71, 0
1, 36523, Control_c, 0, 91, 127
1, 36523, Note_on_c, 0, 71, 64
1, 36526, Note_on_c, 0, 63, 0
1, 36526, Note_on_c, 0, 66, 0
1, 36526, Control_c, 0, 91, 127
1, 36762, Note_on_c, 0, 67, 47
1, 36762, Note_on_c, 0, 64, 47
1, 37001, Note_on_c, 0, 64, 0
1, 37001, Note_on_c, 0, 67, 0
1, 37001, Note_on_c, 0, 71, 0
1, 37004, Note_on_c, 0, 66, 39
1, 37004, Note_on_c, 0, 71, 64
1, 37004, Note_on_c, 0, 63, 39
1, 37229, Note_on_c, 0, 63, 0
1, 37229, Note_on_c, 0, 66, 0
1, 37229, Note_on_c, 0, 65, 45
1, 37232, Note_on_c, 0, 62, 47
1, 37343, Note_on_c, 0, 71, 0
1, 37343, Note_on_c, 0, 71, 53
1, 37457, Note_on_c, 0, 71, 0
1, 37457, Note_on_c, 0, 62, 0
1, 37457, Note_on_c, 0, 65, 0
1, 37460, Note_on_c, 0, 61, 44
1, 37460, Note_on_c, 0, 71, 64
1, 37460, Note_on_c, 0, 64, 44
1, 37463, Note_on_c, 0, 59, 0
1, 37685, Note_on_c, 0, 71, 0
1, 37685, Note_on_c, 0, 70, 60
1, 37915, Note_on_c, 0, 70, 0
1, 37915, Note_on_c, 0, 76, 63
1, 38133, Note_on_c, 0, 76, 0
1, 38133, Note_on_c, 0, 64, 0
1, 38133, Note_on_c, 0, 61, 0
1, 38136, Note_on_c, 0, 63, 44
1, 38136, Note_on_c, 0, 69, 44
1, 38136, Note_on_c, 0, 75, 61
1, 38139, Note_on_c, 0, 60, 44
1, 38354, Note_on_c, 0, 60, 0
1, 38354, Note_on_c, 0, 75, 0
1, 38354, Note_on_c, 0, 63, 0
1, 38357, Note_on_c, 0, 74, 64
1, 38357, Note_on_c, 0, 62, 54
1, 38357, Note_on_c, 0, 59, 54
1, 38579, Note_on_c, 0, 74, 0
1, 38579, Note_on_c, 0, 69, 0
1, 38579, Note_on_c, 0, 67, 55
1, 38815, Note_on_c, 0, 67, 0
1, 38815, Note_on_c, 0, 72, 61
1, 38815, Note_on_c, 0, 66, 45
1, 38818, Note_on_c, 0, 59, 0
1, 38818, Note_on_c, 0, 62, 0
1, 38818, Note_on_c, 0, 57, 51
1, 38821, Note_on_c, 0, 62, 51
1, 39041, Note_on_c, 0, 66, 0
1, 39041, Note_on_c, 0, 67, 51
1, 39156, Note_on_c, 0, 72, 0
1, 39156, Note_on_c, 0, 71, 59
1, 39156, Note_on_c, 0, 62, 0
1, 39159, Note_on_c, 0, 57, 0
1, 39159, Note_on_c, 0, 55, 45
1, 39159, Note_on_c, 0, 62, 45
1, 39271, Note_on_c, 0, 71, 0
1, 39271, Note_on_c, 0, 67, 0
1, 39271, Note_on_c, 0, 67, 60
1, 39274, Note_on_c, 0, 71, 60
1, 39274, Note_on_c, 0, 62, 0
1, 39274, Note_on_c, 0, 55, 0
1, 39277, Note_on_c, 0, 55, 50
1, 39277, Note_on_c, 0, 62, 50
1, 39504, Note_on_c, 0, 55, 0
1, 39504, Note_on_c, 0, 59, 51
1, 39737, Note_on_c, 0, 71, 0
1, 39737, Note_on_c, 0, 67, 0
1, 39737, Note_on_c, 0, 66, 59
1, 39740, Note_on_c, 0, 69, 59
1, 39740, Note_on_c, 0, 59, 0
1, 39740, Note_on_c, 0, 62, 0
1, 39743, Note_on_c, 0, 62, 53
1, 39970, Note_on_c, 0, 50, 50
1, 40202, Note_on_c, 0, 69, 0
1, 40202, Note_on_c, 0, 66, 0
1, 40202, Note_on_c, 0, 62, 0
1, 40205, Note_on_c, 0, 62, 78
1, 40432, Note_on_c, 0, 79, 60
1, 40432, Note_on_c, 0, 71, 60
1, 40432, Note_on_c, 0, 74, 60
1, 40661, Note_on_c, 0, 74, 0
1, 40661, Note_on_c, 0, 71, 0
1, 40661, Note_on_c, 0, 79, 0
1, 40664, Note_on_c, 0, 74, 63
1, 40664, Note_on_c, 0, 78, 63
1, 40664, Note_on_c, 0, 69, 63
1, 40667, Note_on_c, 0, 62, 0
1, 40667, Note_on_c, 0, 62, 77
1, 40887, Note_on_c, 0, 69, 0
1, 40887, Note_on_c, 0, 78, 0
1, 40887, Note_on_c, 0, 74, 0
1, 40890, Note_on_c, 0, 67, 65
1, 40890, Note_on_c, 0, 73, 65
1, 40890, Note_on_c, 0, 76, 65
1, 41000, Note_on_c, 0, 62, 0
1, 41000, Note_on_c, 0, 62, 72
1, 41112, Note_on_c, 0, 76, 0
1, 41112, Note_on_c, 0, 73, 0
1, 41112, Note_on_c, 0, 67, 0
1, 41115, Note_on_c, 0, 69, 72
1, 41115, Note_on_c, 0, 74, 72
1, 41115, Note_on_c, 0, 66, 72
1, 41118, Note_on_c, 0, 62, 0
1, 41118, Note_on_c, 0, 50, 0
1, 41118, Note_on_c, 0, 62, 77
1, 41337, Note_on_c, 0, 62, 0
1, 41337, Note_on_c, 0, 60, 72
1, 41567, Note_on_c, 0, 60, 0
1, 41567, Note_on_c, 0, 64, 75
1, 41787, Note_on_c, 0, 64, 0
1, 41787, Note_on_c, 0, 62, 71
1, 42008, Note_on_c, 0, 62, 0
1, 42008, Note_on_c, 0, 60, 74
1, 42233, Note_on_c, 0, 66, 0
1, 42233, Note_on_c, 0, 74, 0
1, 42233, Note_on_c, 0, 69, 0
1, 42236, Note_on_c, 0, 74, 59
1, 42236, Note_on_c, 0, 67, 59
1, 42236, Note_on_c, 0, 60, 0
1, 42239, Note_on_c, 0, 59, 66
1, 42239, Note_on_c, 0, 62, 66
1, 42465, Note_on_c, 0, 67, 0
1, 42465, Note_on_c, 0, 74, 0
1, 42465, Note_on_c, 0, 66, 55
1, 42468, Note_on_c, 0, 72, 55
1, 42468, Note_on_c, 0, 62, 0
1, 42468, Note_on_c, 0, 59, 0
1, 42471, Note_on_c, 0, 57, 71
1, 42471, Note_on_c, 0, 62, 71
1, 42700, Note_on_c, 0, 66, 0
1, 42700, Note_on_c, 0, 67, 54
1, 42817, Note_on_c, 0, 72, 0
1, 42817, Note_on_c, 0, 71, 54
1, 42817, Note_on_c, 0, 62, 0
1, 42820, Note_on_c, 0, 57, 0
1, 42820, Note_on_c, 0, 55, 59
1, 42820, Note_on_c, 0, 62, 59
1, 42941, Note_on_c, 0, 71, 0
1, 42941, Note_on_c, 0, 67, 0
1, 42941, Note_on_c, 0, 71, 58
1, 42944, Note_on_c, 0, 67, 58
1, 42944, Note_on_c, 0, 62, 0
1, 42944, Note_on_c, 0, 55, 0
1, 42947, Note_on_c, 0, 55, 65
1, 42947, Note_on_c, 0, 62, 65
1, 43204, Note_on_c, 0, 55, 0
1, 43204, Note_on_c, 0, 59, 47
1, 43444, Note_on_c, 0, 67, 0
1, 43444, Note_on_c, 0, 71, 0
1, 43444, Note_on_c, 0, 69, 53
1, 43447, Note_on_c, 0, 66, 53
1, 43447, Note_on_c, 0, 59, 0
1, 43447, Note_on_c, 0, 62, 0
1, 43450, Note_on_c, 0, 62, 50
1, 43701, Note_on_c, 0, 50, 44
1, 43971, Note_on_c, 0, 66, 0
1, 43971, Note_on_c, 0, 69, 0
1, 43971, Note_on_c, 0, 50, 0
1, 43974, Note_on_c, 0, 62, 0
1, 43974, Note_on_c, 0, 52, 47
1, 44068, Note_on_c, 0, 67, 36
1, 44068, Note_on_c, 0, 64, 36
1, 44068, Note_on_c, 0, 59, 36
1, 44164, Note_on_c, 0, 59, 0
1, 44164, Note_on_c, 0, 64, 0
1, 44164, Note_on_c, 0, 67, 0
1, 44167, Note_on_c, 0, 52, 0
1, 44167, Note_on_c, 0, 54, 43
1, 44258, Note_on_c, 0, 59, 38
1, 44258, Note_on_c, 0, 67, 38
1, 44258, Note_on_c, 0, 64, 38
1, 44261, Note_on_c, 0, 54, 0
1, 44261, Note_on_c, 0, 55, 43
1, 44352, Note_on_c, 0, 64, 0
1, 44352, Note_on_c, 0, 67, 0
1, 44352, Note_on_c, 0, 59, 0
1, 44355, Note_on_c, 0, 55, 0
1, 44355, Note_on_c, 0, 57, 47
1, 44446, Note_on_c, 0, 60, 42
1, 44446, Note_on_c, 0, 66, 42
1, 44446, Note_on_c, 0, 64, 42
1, 44540, Note_on_c, 0, 64, 0
1, 44540, Note_on_c, 0, 66, 0
1, 44540, Note_on_c, 0, 60, 0
1, 44543, Note_on_c, 0, 57, 0
1, 44543, Note_on_c, 0, 45, 43
1, 44638, Note_on_c, 0, 66, 36
1, 44638, Note_on_c, 0, 64, 36
1, 44638, Note_on_c, 0, 60, 36
1, 44736, Note_on_c, 0, 60, 0
1, 44736, Note_on_c, 0, 64, 0
1, 44736, Note_on_c, 0, 66, 0
1, 44739, Note_on_c, 0, 45, 0
1, 44739, Note_on_c, 0, 47, 47
1, 44832, Note_on_c, 0, 66, 36
1, 44832, Note_on_c, 0, 63, 36
1, 44832, Note_on_c, 0, 59, 36
1, 44929, Note_on_c, 0, 59, 0
1, 44929, Note_on_c, 0, 63, 0
1, 44929, Note_on_c, 0, 66, 0
1, 44932, Note_on_c, 0, 47, 0
1, 44932, Note_on_c, 0, 35, 43
1, 45027, Note_on_c, 0, 66, 37
1, 45027, Note_on_c, 0, 63, 37
1, 45027, Note_on_c, 0, 59, 37
1, 45125, Note_on_c, 0, 59, 0
1, 45125, Note_on_c, 0, 63, 0
1, 45125, Note_on_c, 0, 66, 0
1, 45128, Note_on_c, 0, 35, 0
1, 45128, Note_on_c, 0, 40, 54
1, 45224, Note_on_c, 0, 59, 42
1, 45224, Note_on_c, 0, 64, 42
1, 45224, Note_on_c, 0, 67, 42
1, 45322, Note_on_c, 0, 67, 0
1, 45322, Note_on_c, 0, 64, 0
1, 45322, Note_on_c, 0, 59, 0
1, 45325, Note_on_c, 0, 40, 0
1, 45325, Note_on_c, 0, 43, 64
1, 45424, Note_on_c, 0, 62, 51
1, 45424, Note_on_c, 0, 55, 51
1, 45424, Note_on_c, 0, 59, 51
1, 45526, Note_on_c, 0, 59, 0
1, 45526, Note_on_c, 0, 55, 0
1, 45526, Note_on_c, 0, 62, 0
1, 45529, Note_on_c, 0, 43, 0
1, 45529, Note_on_c, 0, 48, 60
1, 45623, Note_on_c, 0, 55, 40
1, 45623, Note_on_c, 0, 64, 40
1, 45623, Note_on_c, 0, 60, 40
1, 45719, Note_on_c, 0, 60, 0
1, 45719, Note_on_c, 0, 64, 0
1, 45719, Note_on_c, 0, 55, 0
1, 45722, Note_on_c, 0, 48, 0
1, 45722, Note_on_c, 0, 50, 54
1, 45811, Note_on_c, 0, 55, 42
1, 45811, Note_on_c, 0, 60, 42
1, 45811, Note_on_c, 0, 64, 42
1, 45814, Note_on_c, 0, 50, 0
1, 45814, Note_on_c, 0, 52, 54
1, 45903, Note_on_c, 0, 64, 0
1, 45903, Note_on_c, 0, 60, 0
1, 45903, Note_on_c, 0, 55, 0
1, 45906, Note_on_c, 0, 52, 0
1, 45906, Note_on_c, 0, 53, 59
1, 45996, Note_on_c, 0, 57, 43
1, 45996, Note_on_c, 0, 60, 43
1, 45996, Note_on_c, 0, 62, 43
1, 46088, Note_on_c, 0, 62, 0
1, 46088, Note_on_c, 0, 60, 0
1, 46088, Note_on_c, 0, 57, 0
1, 46091, Note_on_c, 0, 53, 0
1, 46091, Note_on_c, 0, 41, 53
1, 46186, Note_on_c, 0, 57, 38
1, 46186, Note_on_c, 0, 62, 38
1, 46186, Note_on_c, 0, 60, 38
1, 46284, Note_on_c, 0, 60, 0
1, 46284, Note_on_c, 0, 62, 0
1, 46284, Note_on_c, 0, 57, 0
1, 46287, Note_on_c, 0, 41, 0
1, 46287, Note_on_c, 0, 43, 58
1, 46380, Note_on_c, 0, 62, 42
1, 46380, Note_on_c, 0, 55, 42
1, 46380, Note_on_c, 0, 59, 42
1, 46476, Note_on_c, 0, 59, 0
1, 46476, Note_on_c, 0, 55, 0
1, 46476, Note_on_c, 0, 62, 0
1, 46479, Note_on_c, 0, 43, 0
1, 46479, Note_on_c, 0, 31, 53
1, 46574, Note_on_c, 0, 59, 43
1, 46574, Note_on_c, 0, 55, 43
1, 46574, Note_on_c, 0, 62, 43
1, 46671, Note_on_c, 0, 62, 0
1, 46671, Note_on_c, 0, 55, 0
1, 46671, Note_on_c, 0, 59, 0
1, 46674, Note_on_c, 0, 31, 0
1, 46674, Note_on_c, 0, 36, 63
1, 46773, Note_on_c, 0, 64, 54
1, 46773, Note_on_c, 0, 55, 54
1, 46773, Note_on_c, 0, 60, 54
1, 46876, Note_on_c, 0, 36, 0
1, 46876, Note_on_c, 0, 35, 67
1, 47080, Note_on_c, 0, 60, 0
1, 47080, Note_on_c, 0, 55, 0
1, 47080, Note_on_c, 0, 64, 0
1, 47083, Note_on_c, 0, 35, 0
1, 47083, Note_on_c, 0, 52, 54
1, 47177, Note_on_c, 0, 59, 42
1, 47177, Note_on_c, 0, 67, 42
1, 47177, Note_on_c, 0, 64, 42
1, 47273, Note_on_c, 0, 64, 0
1, 47273, Note_on_c, 0, 67, 0
1, 47273, Note_on_c, 0, 59, 0
1, 47276, Note_on_c, 0, 52, 0
1, 47276, Note_on_c, 0, 54, 61
1, 47367, Note_on_c, 0, 64, 44
1, 47367, Note_on_c, 0, 59, 44
1, 47367, Note_on_c, 0, 67, 44
1, 47370, Note_on_c, 0, 54, 0
1, 47370, Note_on_c, 0, 55, 64
1, 47461, Note_on_c, 0, 67, 0
1, 47461, Note_on_c, 0, 59, 0
1, 47461, Note_on_c, 0, 64, 0
1, 47464, Note_on_c, 0, 55, 0
1, 47464, Note_on_c, 0, 57, 69
1, 47555, Note_on_c, 0, 60, 49
1, 47555, Note_on_c, 0, 66, 49
1, 47555, Note_on_c, 0, 64, 49
1, 47649, Note_on_c, 0, 64, 0
1, 47649, Note_on_c, 0, 66, 0
1, 47649, Note_on_c, 0, 60, 0
1, 47652, Note_on_c, 0, 57, 0
1, 47652, Note_on_c, 0, 45, 54
1, 47747, Note_on_c, 0, 64, 38
1, 47747, Note_on_c, 0, 66, 38
1, 47747, Note_on_c, 0, 60, 38
1, 47845, Note_on_c, 0, 60, 0
1, 47845, Note_on_c, 0, 66, 0
1, 47845, Note_on_c, 0, 64, 0
1, 47848, Note_on_c, 0, 45, 0
1, 47848, Note_on_c, 0, 47, 61
1, 47941, Note_on_c, 0, 59, 38
1, 47941, Note_on_c, 0, 63, 38
1, 47941, Note_on_c, 0, 66, 38
1, 48037, Note_on_c, 0, 66, 0
1, 48037, Note_on_c, 0, 63, 0
1, 48037, Note_on_c, 0, 59, 0
1, 48040, Note_on_c, 0, 47, 0
1, 48040, Note_on_c, 0, 35, 53
1, 48136, Note_on_c, 0, 59, 39
1, 48136, Note_on_c, 0, 66, 39
1, 48136, Note_on_c, 0, 63, 39
1, 48234, Note_on_c, 0, 63, 0
1, 48234, Note_on_c, 0, 66, 0
1, 48234, Note_on_c, 0, 59, 0
1, 48237, Note_on_c, 0, 35, 0
1, 48237, Note_on_c, 0, 40, 60
1, 48333, Note_on_c, 0, 64, 45
1, 48333, Note_on_c, 0, 59, 45
1, 48333, Note_on_c, 0, 67, 45
1, 48431, Note_on_c, 0, 67, 0
1, 48431, Note_on_c, 0, 59, 0
1, 48431, Note_on_c, 0, 64, 0
1, 48434, Note_on_c, 0, 40, 0
1, 48434, Note_on_c, 0, 43, 69
1, 48533, Note_on_c, 0, 55, 55
1, 48533, Note_on_c, 0, 62, 55
1, 48533, Note_on_c, 0, 59, 55
1, 48635, Note_on_c, 0, 59, 0
1, 48635, Note_on_c, 0, 62, 0
1, 48635, Note_on_c, 0, 55, 0
1, 48638, Note_on_c, 0, 43, 0
1, 48638, Note_on_c, 0, 48, 76
1, 48731, Note_on_c, 0, 64, 47
1, 48731, Note_on_c, 0, 55, 47
1, 48731, Note_on_c, 0, 60, 47
1, 48828, Note_on_c, 0, 60, 0
1, 48828, Note_on_c, 0, 55, 0
1, 48828, Note_on_c, 0, 64, 0
1, 48831, Note_on_c, 0, 48, 0
1, 48831, Note_on_c, 0, 50, 66
1, 48920, Note_on_c, 0, 60, 47
1, 48920, Note_on_c, 0, 55, 47
1, 48920, Note_on_c, 0, 64, 47
1, 48923, Note_on_c, 0, 50, 0
1, 48923, Note_on_c, 0, 52, 71
1, 49012, Note_on_c, 0, 64, 0
1, 49012, Note_on_c, 0, 55, 0
1, 49012, Note_on_c, 0, 60, 0
1, 49015, Note_on_c, 0, 52, 0
1, 49015, Note_on_c, 0, 53, 76
1, 49105, Note_on_c, 0, 57, 49
1, 49105, Note_on_c, 0, 60, 49
1, 49105, Note_on_c, 0, 62, 49
1, 49197, Note_on_c, 0, 62, 0
1, 49197, Note_on_c, 0, 60, 0
1, 49197, Note_on_c, 0, 57, 0
1, 49200, Note_on_c, 0, 53, 0
1, 49200, Note_on_c, 0, 41, 64
1, 49297, Note_on_c, 0, 57, 42
1, 49297, Note_on_c, 0, 60, 42
1, 49297, Note_on_c, 0, 62, 42
1, 49397, Note_on_c, 0, 62, 0
1, 49397, Note_on_c, 0, 60, 0
1, 49397, Note_on_c, 0, 57, 0
1, 49400, Note_on_c, 0, 41, 0
1, 49400, Note_on_c, 0, 43, 72
1, 49494, Note_on_c, 0, 62, 47
1, 49494, Note_on_c, 0, 55, 47
1, 49494, Note_on_c, 0, 59, 47
1, 49591, Note_on_c, 0, 59, 0
1, 49591, Note_on_c, 0, 55, 0
1, 49591, Note_on_c, 0, 62, 0
1, 49594, Note_on_c, 0, 43, 0
1, 49594, Note_on_c, 0, 31, 65
1, 49690, Note_on_c, 0, 59, 51
1, 49690, Note_on_c, 0, 55, 51
1, 49690, Note_on_c, 0, 62, 51
1, 49789, Note_on_c, 0, 62, 0
1, 49789, Note_on_c, 0, 55, 0
1, 49789, Note_on_c, 0, 59, 0
1, 49792, Note_on_c, 0, 31, 0
1, 49792, Note_on_c, 0, 36, 72
1, 49896, Note_on_c, 0, 60, 64
1, 49896, Note_on_c, 0, 64, 64
1, 49896, Note_on_c, 0, 55, 64
1, 50003, Note_on_c, 0, 36, 0
1, 50003, Note_on_c, 0, 35, 80
1, 50264, Note_on_c, 0, 55, 0
1, 50264, Note_on_c, 0, 64, 0
1, 50264, Note_on_c, 0, 60, 0
1, 50267, Note_on_c, 0, 35, 0
1, 50301, Note_on_c, 0, 71, 64
1, 50301, Control_c, 0, 91, 127
1, 50301, Control_c, 0, 91, 127
1, 50531, Note_on_c, 0, 67, 47
1, 50531, Note_on_c, 0, 64, 47
1, 50762, Note_on_c, 0, 64, 0
1, 50762, Note_on_c, 0, 67, 0
1, 50762, Note_on_c, 0, 71, 0
1, 50765, Note_on_c, 0, 66, 39
1, 50765, Note_on_c, 0, 71, 64
1, 50765, Note_on_c, 0, 63, 39
1, 50986, Note_on_c, 0, 63, 0
1, 50986, Note_on_c, 0, 66, 0
1, 50986, Note_on_c, 0, 65, 45
1, 50989, Note_on_c, 0, 62, 47
1, 51099, Note_on_c, 0, 71, 0
1, 51099, Note_on_c, 0, 71, 53
1, 51211, Note_on_c, 0, 71, 0
1, 51211, Note_on_c, 0, 62, 0
1, 51211, Note_on_c, 0, 65, 0
1, 51214, Note_on_c, 0, 61, 44
1, 51214, Note_on_c, 0, 71, 64
1, 51214, Note_on_c, 0, 64, 44
1, 51436, Note_on_c, 0, 71, 0
1, 51436, Note_on_c, 0, 70, 60
1, 51665, Note_on_c, 0, 76, 63
1, 51883, Note_on_c, 0, 76, 0
1, 51883, Note_on_c, 0, 61, 0
1, 51883, Note_on_c, 0, 64, 0
1, 51886, Note_on_c, 0, 70, 0
1, 51886, Note_on_c, 0, 63, 44
1, 51886, Note_on_c, 0, 75, 61
1, 51889, Note_on_c, 0, 60, 44
1, 51889, Note_on_c, 0, 69, 44
1, 52104, Note_on_c, 0, 60, 0
1, 52104, Note_on_c, 0, 63, 0
1, 52104, Note_on_c, 0, 75, 0
1, 52107, Note_on_c, 0, 74, 64
1, 52107, Note_on_c, 0, 62, 54
1, 52107, Note_on_c, 0, 59, 54
1, 52329, Note_on_c, 0, 74, 0
1, 52329, Note_on_c, 0, 69, 0
1, 52329, Note_on_c, 0, 67, 55
1, 52565, Note_on_c, 0, 67, 0
1, 52565, Note_on_c, 0, 72, 61
1, 52565, Note_on_c, 0, 66, 45
1, 52568, Note_on_c, 0, 59, 0
1, 52568, Note_on_c, 0, 62, 0
1, 52568, Note_on_c, 0, 57, 51
1, 52571, Note_on_c, 0, 62, 51
1, 52791, Note_on_c, 0, 66, 0
1, 52791, Note_on_c, 0, 67, 51
1, 52906, Note_on_c, 0, 72, 0
1, 52906, Note_on_c, 0, 71, 59
1, 52906, Note_on_c, 0, 62, 0
1, 52909, Note_on_c, 0, 57, 0
1, 52909, Note_on_c, 0, 55, 45
1, 52909, Note_on_c, 0, 62, 45
1, 53021, Note_on_c, 0, 71, 0
1, 53021, Note_on_c, 0, 67, 0
1, 53021, Note_on_c, 0, 67, 60
1, 53024, Note_on_c, 0, 71, 60
1, 53024, Note_on_c, 0, 62, 0
1, 53024, Note_on_c, 0, 55, 0
1, 53027, Note_on_c, 0, 55, 50
1, 53027, Note_on_c, 0, 62, 50
1, 53254, Note_on_c, 0, 55, 0
1, 53254, Note_on_c, 0, 59, 51
1, 53487, Note_on_c, 0, 71, 0
1, 53487, Note_on_c, 0, 67, 0
1, 53487, Note_on_c, 0, 66, 59
1, 53490, Note_on_c, 0, 69, 59
1, 53490, Note_on_c, 0, 59, 0
1, 53490, Note_on_c, 0, 62, 0
1, 53493, Note_on_c, 0, 62, 53
1, 53720, Note_on_c, 0, 50, 50
1, 53953, Note_on_c, 0, 69, 0
1, 53953, Note_on_c, 0, 66, 0
1, 53953, Note_on_c, 0, 62, 0
1, 53956, Note_on_c, 0, 62, 78
1, 54181, Note_on_c, 0, 79, 60
1, 54181, Note_on_c, 0, 71, 60
1, 54181, Note_on_c, 0, 74, 60
1, 54409, Note_on_c, 0, 74, 0
1, 54409, Note_on_c, 0, 71, 0
1, 54409, Note_on_c, 0, 79, 0
1, 54412, Note_on_c, 0, 69, 63
1, 54412, Note_on_c, 0, 74, 63
1, 54412, Note_on_c, 0, 78, 63
1, 54415, Note_on_c, 0, 62, 0
1, 54415, Note_on_c, 0, 62, 77
1, 54635, Note_on_c, 0, 78, 0
1, 54635, Note_on_c, 0, 74, 0
1, 54635, Note_on_c, 0, 69, 0
1, 54638, Note_on_c, 0, 67, 65
1, 54638, Note_on_c, 0, 73, 65
1, 54638, Note_on_c, 0, 76, 65
1, 54747, Note_on_c, 0, 62, 0
1, 54747, Note_on_c, 0, 62, 72
1, 54860, Note_on_c, 0, 76, 0
1, 54860, Note_on_c, 0, 73, 0
1, 54860, Note_on_c, 0, 67, 0
1, 54863, Note_on_c, 0, 69, 72
1, 54863, Note_on_c, 0, 74, 72
1, 54863, Note_on_c, 0, 66, 72
1, 54866, Note_on_c, 0, 62, 0
1, 54866, Note_on_c, 0, 50, 0
1, 54866, Note_on_c, 0, 62, 77
1, 55090, Note_on_c, 0, 62, 0
1, 55090, Note_on_c, 0, 60, 72
1, 55326, Note_on_c, 0, 60, 0
1, 55326, Note_on_c, 0, 64, 75
1, 55552, Note_on_c, 0, 64, 0
1, 55552, Note_on_c, 0, 62, 71
1, 55775, Note_on_c, 0, 62, 0
1, 55775, Note_on_c, 0, 60, 74
1, 56002, Note_on_c, 0, 66, 0
1, 56002, Note_on_c, 0, 74, 0
1, 56002, Note_on_c, 0, 69, 0
1, 56005, Note_on_c, 0, 74, 59
1, 56005, Note_on_c, 0, 67, 59
1, 56005, Note_on_c, 0, 60, 0
1, 56008, Note_on_c, 0, 59, 66
1, 56008, Note_on_c, 0, 62, 66
1, 56245, Note_on_c, 0, 74, 0
1, 56245, Note_on_c, 0, 72, 55
1, 56245, Note_on_c, 0, 62, 0
1, 56248, Note_on_c, 0, 59, 0
1, 56248, Note_on_c, 0, 57, 71
1, 56248, Note_on_c, 0, 64, 71
1, 56500, Note_on_c, 0, 72, 0
1, 56500, Note_on_c, 0, 67, 0
1, 56500, Note_on_c, 0, 64, 0
1, 56503, Note_on_c, 0, 57, 0
1, 56628, Note_on_c, 0, 60, 49
1, 56628, Note_on_c, 0, 66, 49
1, 56628, Note_on_c, 0, 50, 53
1, 56631, Note_on_c, 0, 57, 53
1, 56763, Note_on_c, 0, 66, 0
1, 56763, Note_on_c, 0, 60, 0
1, 56763, Note_on_c, 0, 60, 54
1, 56766, Note_on_c, 0, 66, 54
1, 56766, Note_on_c, 0, 57, 0
1, 56766, Note_on_c, 0, 50, 0
1, 56769, Note_on_c, 0, 50, 59
1, 56769, Note_on_c, 0, 57, 59
1, 57362, Note_on_c, 0, 66, 0
1, 57362, Note_on_c, 0, 60, 0
1, 57362, Note_on_c, 0, 67, 48
1, 57365, Note_on_c, 0, 59, 48
1, 57365, Note_on_c, 0, 57, 0
1, 57365, Note_on_c, 0, 43, 48
1, 57961, Note_on_c, 0, 59, 0
1, 57961, Note_on_c, 0, 67, 0
1, 57961, Note_on_c, 0, 43, 0
1, 57964, Note_on_c, 0, 50, 0
1, 59462, End_track
0, 0, End_of_file
