0, 0, Header, 0, 1, 384
1, 0, Start_track
1, 0, Tempo, 512820
1, 0, Title_t, "Kinderszenen OpuKind im Einschlu"
1, 0, Program_c, 0, 0
1, 0, Control_c, 0, 7, 100
1, 3, Control_c, 0, 91, 127
1, 3, Program_c, 0, 0
1, 3, Control_c, 0, 7, 100
1, 6, Control_c, 0, 91, 127
1, 748, Note_on_c, 0, 52, 53
1, 748, Note_on_c, 0, 55, 53
1, 748, Note_on_c, 0, 59, 75
1, 751, Control_c, 0, 64, 0
1, 1226, Note_on_c, 0, 59, 0
1, 1226, Note_on_c, 0, 60, 68
1, 1465, Note_on_c, 0, 60, 0
1, 1465, Note_on_c, 0, 59, 68
1, 1704, Note_on_c, 0, 71, 70
1, 1704, Note_on_c, 0, 59, 0
1, 1704, Note_on_c, 0, 55, 0
1, 1707, Note_on_c, 0, 52, 0
1, 1707, Note_on_c, 0, 51, 47
1, 1707, Note_on_c, 0, 59, 72
1, 1710, Note_on_c, 0, 54, 47
1, 1802, Control_c, 0, 64, 127
1, 1943, Note_on_c, 0, 59, 0
1, 1943, Note_on_c, 0, 66, 61
1, 2182, Note_on_c, 0, 78, 57
1, 2421, Note_on_c, 0, 78, 0
1, 2421, Note_on_c, 0, 71, 51
1, 2660, Note_on_c, 0, 71, 0
1, 2660, Note_on_c, 0, 71, 0
1, 2660, Note_on_c, 0, 71, 68
1, 2663, Note_on_c, 0, 66, 0
1, 2663, Note_on_c, 0, 54, 0
1, 2663, Note_on_c, 0, 51, 0
1, 2666, Control_c, 0, 64, 0
1, 2666, Note_on_c, 0, 52, 51
1, 2666, Note_on_c, 0, 59, 68
1, 2669, Note_on_c, 0, 55, 51
1, 2758, Control_c, 0, 64, 127
1, 2899, Note_on_c, 0, 79, 67
1, 3138, Note_on_c, 0, 59, 0
1, 3138, Note_on_c, 0, 60, 68
1, 3377, Note_on_c, 0, 60, 0
1, 3377, Note_on_c, 0, 59, 68
1, 3602, Control_c, 0, 64, 0
1, 3616, Note_on_c, 0, 79, 0
1, 3616, Note_on_c, 0, 71, 0
1, 3616, Note_on_c, 0, 71, 63
1, 3619, Note_on_c, 0, 59, 0
1, 3619, Note_on_c, 0, 55, 0
1, 3619, Note_on_c, 0, 52, 0
1, 3622, Note_on_c, 0, 51, 42
1, 3622, Note_on_c, 0, 59, 66
1, 3622, Note_on_c, 0, 54, 42
1, 3728, Control_c, 0, 64, 127
1, 3855, Note_on_c, 0, 59, 0
1, 3855, Note_on_c, 0, 66, 55
1, 4094, Note_on_c, 0, 78, 52
1, 4333, Note_on_c, 0, 78, 0
1, 4333, Note_on_c, 0, 71, 43
1, 4572, Note_on_c, 0, 71, 0
1, 4572, Note_on_c, 0, 71, 0
1, 4572, Note_on_c, 0, 71, 63
1, 4575, Note_on_c, 0, 66, 0
1, 4575, Note_on_c, 0, 54, 0
1, 4575, Note_on_c, 0, 51, 0
1, 4578, Control_c, 0, 64, 0
1, 4578, Note_on_c, 0, 52, 43
1, 4578, Note_on_c, 0, 59, 57
1, 4581, Note_on_c, 0, 55, 43
1, 4670, Control_c, 0, 64, 127
1, 4811, Note_on_c, 0, 79, 57
1, 5050, Note_on_c, 0, 59, 0
1, 5050, Note_on_c, 0, 60, 57
1, 5289, Note_on_c, 0, 60, 0
1, 5289, Note_on_c, 0, 59, 57
1, 5486, Control_c, 0, 64, 0
1, 5528, Note_on_c, 0, 79, 0
1, 5528, Note_on_c, 0, 71, 0
1, 5528, Note_on_c, 0, 71, 56
1, 5531, Note_on_c, 0, 59, 0
1, 5531, Note_on_c, 0, 55, 0
1, 5531, Note_on_c, 0, 52, 0
1, 5534, Note_on_c, 0, 50, 38
1, 5534, Note_on_c, 0, 54, 38
1, 5534, Note_on_c, 0, 59, 55
1, 5660, Control_c, 0, 64, 127
1, 5775, Note_on_c, 0, 59, 0
1, 5775, Note_on_c, 0, 66, 50
1, 6022, Note_on_c, 0, 78, 48
1, 6261, Note_on_c, 0, 78, 0
1, 6261, Note_on_c, 0, 71, 40
1, 6500, Note_on_c, 0, 71, 0
1, 6500, Note_on_c, 0, 71, 0
1, 6500, Note_on_c, 0, 71, 55
1, 6503, Note_on_c, 0, 66, 0
1, 6503, Note_on_c, 0, 54, 0
1, 6503, Note_on_c, 0, 50, 0
1, 6506, Control_c, 0, 64, 0
1, 6506, Note_on_c, 0, 48, 35
1, 6506, Note_on_c, 0, 52, 33
1, 6509, Note_on_c, 0, 59, 52
1, 6620, Control_c, 0, 64, 127
1, 6758, Note_on_c, 0, 76, 43
1, 7002, Note_on_c, 0, 59, 0
1, 7002, Note_on_c, 0, 60, 47
1, 7246, Note_on_c, 0, 60, 0
1, 7246, Note_on_c, 0, 59, 48
1, 7490, Note_on_c, 0, 76, 0
1, 7490, Note_on_c, 0, 71, 0
1, 7490, Note_on_c, 0, 71, 55
1, 7493, Note_on_c, 0, 59, 0
1, 7493, Note_on_c, 0, 52, 0
1, 7493, Note_on_c, 0, 48, 0
1, 7496, Note_on_c, 0, 47, 30
1, 7496, Note_on_c, 0, 51, 30
1, 7496, Note_on_c, 0, 59, 51
1, 7519, Control_c, 0, 64, 0
1, 7734, Note_on_c, 0, 59, 0
1, 7734, Control_c, 0, 64, 127
1, 7734, Note_on_c, 0, 66, 45
1, 7984, Note_on_c, 0, 78, 43
1, 8242, Note_on_c, 0, 78, 0
1, 8242, Note_on_c, 0, 71, 37
1, 8348, Control_c, 0, 64, 0
1, 8500, Note_on_c, 0, 71, 0
1, 8500, Note_on_c, 0, 71, 0
1, 8500, Control_c, 0, 91, 127
1, 8503, Note_on_c, 0, 71, 66
1, 8503, Note_on_c, 0, 66, 0
1, 8503, Note_on_c, 0, 51, 0
1, 8506, Note_on_c, 0, 47, 0
1, 8506, Control_c, 0, 91, 127
1, 8506, Note_on_c, 0, 52, 45
1, 8509, Note_on_c, 0, 59, 65
1, 8509, Note_on_c, 0, 55, 48
1, 8598, Control_c, 0, 64, 127
1, 8739, Note_on_c, 0, 83, 67
1, 8978, Note_on_c, 0, 59, 0
1, 8978, Note_on_c, 0, 60, 62
1, 9217, Note_on_c, 0, 60, 0
1, 9217, Note_on_c, 0, 59, 62
1, 9428, Control_c, 0, 64, 0
1, 9456, Note_on_c, 0, 83, 0
1, 9456, Note_on_c, 0, 71, 0
1, 9456, Note_on_c, 0, 71, 63
1, 9459, Note_on_c, 0, 59, 0
1, 9459, Note_on_c, 0, 55, 0
1, 9459, Note_on_c, 0, 52, 0
1, 9462, Note_on_c, 0, 51, 42
1, 9462, Note_on_c, 0, 54, 42
1, 9462, Note_on_c, 0, 59, 66
1, 9568, Control_c, 0, 64, 127
1, 9695, Note_on_c, 0, 59, 0
1, 9695, Note_on_c, 0, 66, 55
1, 9934, Note_on_c, 0, 78, 52
1, 10173, Note_on_c, 0, 78, 0
1, 10173, Note_on_c, 0, 71, 45
1, 10412, Note_on_c, 0, 71, 0
1, 10412, Note_on_c, 0, 71, 0
1, 10412, Note_on_c, 0, 71, 68
1, 10415, Note_on_c, 0, 66, 0
1, 10415, Note_on_c, 0, 54, 0
1, 10415, Note_on_c, 0, 51, 0
1, 10418, Control_c, 0, 64, 0
1, 10418, Note_on_c, 0, 52, 50
1, 10418, Note_on_c, 0, 55, 50
1, 10421, Note_on_c, 0, 59, 66
1, 10540, Control_c, 0, 64, 127
1, 10651, Note_on_c, 0, 79, 67
1, 10890, Note_on_c, 0, 59, 0
1, 10890, Note_on_c, 0, 60, 68
1, 11129, Note_on_c, 0, 60, 0
1, 11129, Note_on_c, 0, 59, 68
1, 11326, Control_c, 0, 64, 0
1, 11368, Note_on_c, 0, 79, 0
1, 11368, Note_on_c, 0, 71, 0
1, 11368, Note_on_c, 0, 71, 58
1, 11371, Note_on_c, 0, 59, 0
1, 11371, Note_on_c, 0, 55, 0
1, 11371, Note_on_c, 0, 52, 0
1, 11374, Note_on_c, 0, 51, 40
1, 11374, Note_on_c, 0, 54, 40
1, 11374, Note_on_c, 0, 59, 62
1, 11480, Control_c, 0, 64, 127
1, 11607, Note_on_c, 0, 59, 0
1, 11607, Note_on_c, 0, 66, 55
1, 11846, Note_on_c, 0, 78, 52
1, 12085, Note_on_c, 0, 78, 0
1, 12085, Note_on_c, 0, 71, 43
1, 12324, Note_on_c, 0, 71, 0
1, 12324, Note_on_c, 0, 71, 0
1, 12324, Note_on_c, 0, 71, 57
1, 12327, Note_on_c, 0, 66, 0
1, 12327, Note_on_c, 0, 54, 0
1, 12327, Note_on_c, 0, 51, 0
1, 12330, Control_c, 0, 64, 0
1, 12330, Note_on_c, 0, 52, 42
1, 12330, Note_on_c, 0, 55, 42
1, 12333, Note_on_c, 0, 59, 55
1, 12408, Control_c, 0, 64, 127
1, 12563, Note_on_c, 0, 79, 55
1, 12802, Note_on_c, 0, 59, 0
1, 12802, Note_on_c, 0, 60, 52
1, 13041, Note_on_c, 0, 60, 0
1, 13041, Note_on_c, 0, 59, 51
1, 13280, Note_on_c, 0, 79, 0
1, 13280, Note_on_c, 0, 71, 0
1, 13280, Note_on_c, 0, 71, 55
1, 13283, Note_on_c, 0, 59, 0
1, 13283, Note_on_c, 0, 55, 0
1, 13283, Note_on_c, 0, 52, 0
1, 13286, Control_c, 0, 64, 0
1, 13286, Note_on_c, 0, 54, 37
1, 13286, Note_on_c, 0, 59, 51
1, 13289, Note_on_c, 0, 50, 37
1, 13412, Control_c, 0, 64, 127
1, 13527, Note_on_c, 0, 59, 0
1, 13527, Note_on_c, 0, 66, 47
1, 13774, Note_on_c, 0, 78, 45
1, 14013, Note_on_c, 0, 78, 0
1, 14013, Note_on_c, 0, 71, 37
1, 14252, Note_on_c, 0, 71, 0
1, 14252, Note_on_c, 0, 71, 0
1, 14252, Note_on_c, 0, 71, 53
1, 14255, Note_on_c, 0, 66, 0
1, 14255, Note_on_c, 0, 50, 0
1, 14255, Note_on_c, 0, 54, 0
1, 14258, Control_c, 0, 64, 0
1, 14258, Note_on_c, 0, 52, 30
1, 14258, Note_on_c, 0, 59, 48
1, 14261, Note_on_c, 0, 48, 31
1, 14338, Control_c, 0, 64, 127
1, 14516, Note_on_c, 0, 76, 41
1, 14766, Note_on_c, 0, 59, 0
1, 14766, Note_on_c, 0, 60, 42
1, 15015, Note_on_c, 0, 60, 0
1, 15015, Note_on_c, 0, 59, 43
1, 15236, Control_c, 0, 64, 0
1, 15265, Note_on_c, 0, 76, 0
1, 15265, Note_on_c, 0, 71, 0
1, 15265, Note_on_c, 0, 71, 48
1, 15268, Note_on_c, 0, 59, 0
1, 15268, Note_on_c, 0, 48, 0
1, 15268, Note_on_c, 0, 52, 0
1, 15271, Note_on_c, 0, 51, 26
1, 15271, Note_on_c, 0, 59, 43
1, 15271, Note_on_c, 0, 47, 26
1, 15381, Control_c, 0, 64, 127
1, 15514, Note_on_c, 0, 59, 0
1, 15514, Note_on_c, 0, 66, 41
1, 15776, Note_on_c, 0, 78, 38
1, 15938, Control_c, 0, 64, 0
1, 16050, Note_on_c, 0, 78, 0
1, 16050, Note_on_c, 0, 71, 36
1, 16338, Note_on_c, 0, 71, 0
1, 16338, Note_on_c, 0, 71, 0
1, 16338, Note_on_c, 0, 80, 41
1, 16341, Note_on_c, 0, 71, 41
1, 16341, Note_on_c, 0, 76, 41
1, 16341, Note_on_c, 0, 83, 55
1, 16344, Note_on_c, 0, 66, 0
1, 16344, Note_on_c, 0, 47, 0
1, 16344, Note_on_c, 0, 51, 0
1, 16347, Note_on_c, 0, 40, 48
1, 16347, Note_on_c, 0, 47, 48
1, 16347, Control_c, 0, 64, 127
1, 16848, Note_on_c, 0, 47, 0
1, 16848, Note_on_c, 0, 49, 56
1, 17017, Control_c, 0, 64, 0
1, 17087, Note_on_c, 0, 49, 0
1, 17087, Note_on_c, 0, 47, 53
1, 17326, Note_on_c, 0, 83, 0
1, 17326, Note_on_c, 0, 80, 0
1, 17326, Note_on_c, 0, 71, 0
1, 17329, Note_on_c, 0, 76, 0
1, 17329, Note_on_c, 0, 71, 56
1, 17329, Note_on_c, 0, 83, 43
1, 17332, Note_on_c, 0, 78, 43
1, 17332, Note_on_c, 0, 75, 43
1, 17332, Note_on_c, 0, 69, 43
1, 17335, Note_on_c, 0, 47, 0
1, 17335, Note_on_c, 0, 40, 0
1, 17335, Note_on_c, 0, 40, 47
1, 17338, Note_on_c, 0, 47, 53
1, 17587, Note_on_c, 0, 71, 0
1, 17587, Note_on_c, 0, 80, 58
1, 17587, Note_on_c, 0, 47, 0
1, 17590, Note_on_c, 0, 56, 56
1, 18065, Note_on_c, 0, 80, 0
1, 18065, Note_on_c, 0, 78, 53
1, 18065, Note_on_c, 0, 56, 0
1, 18068, Note_on_c, 0, 54, 51
1, 18304, Note_on_c, 0, 78, 0
1, 18304, Note_on_c, 0, 75, 0
1, 18304, Note_on_c, 0, 83, 0
1, 18307, Note_on_c, 0, 78, 0
1, 18307, Note_on_c, 0, 69, 0
1, 18307, Note_on_c, 0, 68, 42
1, 18310, Note_on_c, 0, 71, 42
1, 18310, Note_on_c, 0, 76, 55
1, 18310, Note_on_c, 0, 54, 0
1, 18313, Note_on_c, 0, 40, 0
1, 18313, Note_on_c, 0, 40, 47
1, 18313, Note_on_c, 0, 47, 53
1, 18460, Control_c, 0, 64, 127
1, 18782, Note_on_c, 0, 47, 0
1, 18782, Note_on_c, 0, 49, 52
1, 19016, Note_on_c, 0, 49, 0
1, 19016, Note_on_c, 0, 47, 52
1, 19057, Control_c, 0, 64, 0
1, 19250, Note_on_c, 0, 76, 0
1, 19250, Note_on_c, 0, 71, 0
1, 19250, Note_on_c, 0, 68, 0
1, 19253, Note_on_c, 0, 59, 56
1, 19253, Note_on_c, 0, 57, 42
1, 19253, Note_on_c, 0, 63, 42
1, 19256, Note_on_c, 0, 66, 42
1, 19256, Note_on_c, 0, 71, 42
1, 19256, Note_on_c, 0, 47, 0
1, 19259, Note_on_c, 0, 40, 0
1, 19259, Note_on_c, 0, 40, 47
1, 19259, Note_on_c, 0, 47, 53
1, 19511, Note_on_c, 0, 59, 0
1, 19511, Note_on_c, 0, 68, 56
1, 19511, Note_on_c, 0, 47, 0
1, 19514, Note_on_c, 0, 56, 53
1, 19989, Note_on_c, 0, 68, 0
1, 19989, Note_on_c, 0, 66, 52
1, 19989, Note_on_c, 0, 56, 0
1, 19992, Note_on_c, 0, 54, 50
1, 20228, Note_on_c, 0, 66, 0
1, 20228, Note_on_c, 0, 66, 0
1, 20228, Note_on_c, 0, 57, 0
1, 20231, Note_on_c, 0, 63, 0
1, 20231, Note_on_c, 0, 71, 0
1, 20231, Note_on_c, 0, 56, 42
1, 20234, Note_on_c, 0, 59, 42
1, 20234, Note_on_c, 0, 64, 53
1, 20234, Note_on_c, 0, 54, 0
1, 20237, Note_on_c, 0, 40, 0
1, 20237, Note_on_c, 0, 40, 47
1, 20237, Note_on_c, 0, 47, 53
1, 20389, Control_c, 0, 64, 127
1, 20722, Note_on_c, 0, 47, 0
1, 20722, Note_on_c, 0, 49, 50
1, 20958, Note_on_c, 0, 49, 0
1, 20958, Note_on_c, 0, 47, 50
1, 21014, Control_c, 0, 64, 0
1, 21195, Note_on_c, 0, 64, 0
1, 21195, Note_on_c, 0, 59, 0
1, 21195, Note_on_c, 0, 56, 0
1, 21198, Note_on_c, 0, 63, 42
1, 21198, Note_on_c, 0, 59, 42
1, 21198, Note_on_c, 0, 54, 51
1, 21201, Note_on_c, 0, 47, 0
1, 21201, Note_on_c, 0, 40, 0
1, 21201, Note_on_c, 0, 47, 47
1, 21204, Note_on_c, 0, 42, 48
1, 21466, Note_on_c, 0, 54, 0
1, 21466, Note_on_c, 0, 56, 55
1, 21466, Note_on_c, 0, 42, 0
1, 21469, Note_on_c, 0, 44, 51
1, 21965, Note_on_c, 0, 56, 0
1, 21965, Note_on_c, 0, 54, 50
1, 21965, Note_on_c, 0, 44, 0
1, 21968, Note_on_c, 0, 42, 47
1, 22214, Note_on_c, 0, 54, 0
1, 22214, Note_on_c, 0, 59, 0
1, 22214, Note_on_c, 0, 63, 0
1, 22217, Note_on_c, 0, 52, 51
1, 22217, Note_on_c, 0, 58, 37
1, 22217, Note_on_c, 0, 61, 38
1, 22220, Note_on_c, 0, 42, 0
1, 22220, Note_on_c, 0, 47, 0
1, 22220, Note_on_c, 0, 42, 40
1, 22697, Note_on_c, 0, 61, 0
1, 22697, Note_on_c, 0, 63, 47
1, 22934, Note_on_c, 0, 63, 0
1, 22934, Note_on_c, 0, 61, 43
1, 23170, Note_on_c, 0, 61, 0
1, 23170, Note_on_c, 0, 58, 0
1, 23170, Note_on_c, 0, 52, 0
1, 23173, Note_on_c, 0, 51, 40
1, 23173, Note_on_c, 0, 59, 40
1, 23173, Note_on_c, 0, 42, 0
1, 23176, Note_on_c, 0, 30, 47
1, 23176, Note_on_c, 0, 42, 47
1, 23441, Note_on_c, 0, 42, 0
1, 23441, Note_on_c, 0, 30, 0
1, 23441, Note_on_c, 0, 32, 47
1, 23444, Note_on_c, 0, 44, 47
1, 23946, Note_on_c, 0, 44, 0
1, 23946, Note_on_c, 0, 32, 0
1, 23946, Note_on_c, 0, 30, 40
1, 23949, Note_on_c, 0, 42, 40
1, 24227, Note_on_c, 0, 59, 0
1, 24227, Note_on_c, 0, 51, 0
1, 24227, Note_on_c, 0, 71, 51
1, 24230, Note_on_c, 0, 80, 51
1, 24230, Note_on_c, 0, 76, 51
1, 24230, Note_on_c, 0, 83, 58
1, 24233, Note_on_c, 0, 42, 0
1, 24233, Note_on_c, 0, 30, 0
1, 24233, Note_on_c, 0, 28, 51
1, 24236, Note_on_c, 0, 40, 51
1, 24354, Control_c, 0, 64, 127
1, 24705, Note_on_c, 0, 40, 0
1, 24705, Note_on_c, 0, 28, 0
1, 24705, Note_on_c, 0, 49, 53
1, 24939, Note_on_c, 0, 49, 0
1, 24939, Note_on_c, 0, 47, 51
1, 25048, Control_c, 0, 64, 0
1, 25173, Note_on_c, 0, 83, 0
1, 25173, Note_on_c, 0, 71, 0
1, 25173, Note_on_c, 0, 80, 0
1, 25176, Note_on_c, 0, 76, 0
1, 25176, Note_on_c, 0, 71, 56
1, 25176, Note_on_c, 0, 83, 40
1, 25179, Note_on_c, 0, 78, 40
1, 25179, Note_on_c, 0, 75, 40
1, 25179, Note_on_c, 0, 69, 40
1, 25182, Note_on_c, 0, 47, 0
1, 25182, Note_on_c, 0, 40, 47
1, 25182, Note_on_c, 0, 47, 48
1, 25434, Note_on_c, 0, 71, 0
1, 25434, Note_on_c, 0, 80, 58
1, 25434, Note_on_c, 0, 47, 0
1, 25437, Note_on_c, 0, 56, 56
1, 25912, Note_on_c, 0, 80, 0
1, 25912, Note_on_c, 0, 78, 53
1, 25912, Note_on_c, 0, 56, 0
1, 25915, Note_on_c, 0, 54, 51
1, 26151, Note_on_c, 0, 78, 0
1, 26151, Note_on_c, 0, 75, 0
1, 26151, Note_on_c, 0, 83, 0
1, 26154, Note_on_c, 0, 78, 0
1, 26154, Note_on_c, 0, 69, 0
1, 26154, Note_on_c, 0, 68, 42
1, 26157, Note_on_c, 0, 71, 42
1, 26157, Note_on_c, 0, 76, 55
1, 26157, Note_on_c, 0, 54, 0
1, 26160, Note_on_c, 0, 40, 0
1, 26160, Note_on_c, 0, 40, 47
1, 26160, Note_on_c, 0, 47, 53
1, 26248, Control_c, 0, 64, 127
1, 26629, Note_on_c, 0, 47, 0
1, 26629, Note_on_c, 0, 49, 52
1, 26863, Note_on_c, 0, 49, 0
1, 26863, Note_on_c, 0, 47, 51
1, 26988, Control_c, 0, 64, 0
1, 27097, Note_on_c, 0, 76, 0
1, 27097, Note_on_c, 0, 71, 0
1, 27097, Note_on_c, 0, 68, 0
1, 27100, Note_on_c, 0, 59, 56
1, 27100, Note_on_c, 0, 57, 42
1, 27100, Note_on_c, 0, 63, 42
1, 27103, Note_on_c, 0, 66, 42
1, 27103, Note_on_c, 0, 71, 42
1, 27103, Note_on_c, 0, 47, 0
1, 27106, Note_on_c, 0, 40, 0
1, 27106, Note_on_c, 0, 40, 47
1, 27106, Note_on_c, 0, 47, 53
1, 27358, Note_on_c, 0, 59, 0
1, 27358, Note_on_c, 0, 68, 56
1, 27358, Note_on_c, 0, 47, 0
1, 27361, Note_on_c, 0, 56, 53
1, 27836, Note_on_c, 0, 68, 0
1, 27836, Note_on_c, 0, 66, 52
1, 27836, Note_on_c, 0, 56, 0
1, 27839, Note_on_c, 0, 54, 50
1, 28075, Note_on_c, 0, 66, 0
1, 28075, Note_on_c, 0, 66, 0
1, 28075, Note_on_c, 0, 57, 0
1, 28078, Note_on_c, 0, 63, 0
1, 28078, Note_on_c, 0, 71, 0
1, 28078, Note_on_c, 0, 56, 42
1, 28081, Note_on_c, 0, 59, 42
1, 28081, Note_on_c, 0, 64, 53
1, 28081, Note_on_c, 0, 54, 0
1, 28084, Note_on_c, 0, 40, 0
1, 28084, Note_on_c, 0, 40, 47
1, 28084, Note_on_c, 0, 47, 53
1, 28147, Control_c, 0, 64, 127
1, 28569, Note_on_c, 0, 47, 0
1, 28569, Note_on_c, 0, 49, 50
1, 28805, Note_on_c, 0, 49, 0
1, 28805, Note_on_c, 0, 47, 50
1, 28874, Control_c, 0, 64, 0
1, 29042, Note_on_c, 0, 64, 0
1, 29042, Note_on_c, 0, 59, 0
1, 29042, Note_on_c, 0, 56, 0
1, 29045, Note_on_c, 0, 63, 42
1, 29045, Note_on_c, 0, 59, 42
1, 29045, Note_on_c, 0, 54, 51
1, 29048, Note_on_c, 0, 47, 0
1, 29048, Note_on_c, 0, 40, 0
1, 29048, Note_on_c, 0, 47, 47
1, 29051, Note_on_c, 0, 42, 48
1, 29315, Note_on_c, 0, 54, 0
1, 29315, Note_on_c, 0, 56, 55
1, 29315, Note_on_c, 0, 42, 0
1, 29318, Note_on_c, 0, 44, 51
1, 29815, Note_on_c, 0, 56, 0
1, 29815, Note_on_c, 0, 54, 50
1, 29815, Note_on_c, 0, 44, 0
1, 29818, Note_on_c, 0, 42, 47
1, 30064, Note_on_c, 0, 54, 0
1, 30064, Note_on_c, 0, 59, 0
1, 30064, Note_on_c, 0, 63, 0
1, 30067, Note_on_c, 0, 52, 51
1, 30067, Note_on_c, 0, 58, 37
1, 30067, Note_on_c, 0, 61, 38
1, 30070, Note_on_c, 0, 42, 0
1, 30070, Note_on_c, 0, 47, 0
1, 30070, Note_on_c, 0, 42, 40
1, 30547, Note_on_c, 0, 61, 0
1, 30547, Note_on_c, 0, 63, 43
1, 30784, Note_on_c, 0, 63, 0
1, 30784, Note_on_c, 0, 61, 41
1, 31020, Note_on_c, 0, 61, 0
1, 31020, Note_on_c, 0, 58, 0
1, 31020, Note_on_c, 0, 52, 0
1, 31023, Note_on_c, 0, 51, 37
1, 31023, Note_on_c, 0, 59, 37
1, 31023, Note_on_c, 0, 42, 0
1, 31026, Note_on_c, 0, 30, 43
1, 31026, Note_on_c, 0, 42, 43
1, 31316, Note_on_c, 0, 42, 0
1, 31316, Note_on_c, 0, 30, 0
1, 31316, Note_on_c, 0, 32, 43
1, 31319, Note_on_c, 0, 44, 43
1, 31821, Note_on_c, 0, 44, 0
1, 31821, Note_on_c, 0, 32, 0
1, 31821, Note_on_c, 0, 30, 35
1, 31824, Note_on_c, 0, 42, 35
1, 32073, Note_on_c, 0, 59, 0
1, 32073, Note_on_c, 0, 51, 0
1, 32073, Control_c, 0, 91, 127
1, 32076, Note_on_c, 0, 62, 52
1, 32076, Note_on_c, 0, 59, 38
1, 32076, Note_on_c, 0, 54, 38
1, 32079, Note_on_c, 0, 42, 0
1, 32079, Note_on_c, 0, 30, 0
1, 32079, Note_on_c, 0, 35, 58
1, 32082, Control_c, 0, 91, 127
1, 32543, Note_on_c, 0, 35, 0
1, 32543, Note_on_c, 0, 37, 50
1, 32777, Note_on_c, 0, 37, 0
1, 32777, Note_on_c, 0, 35, 50
1, 33012, Note_on_c, 0, 62, 0
1, 33012, Note_on_c, 0, 61, 48
1, 33012, Note_on_c, 0, 35, 0
1, 33015, Note_on_c, 0, 30, 48
1, 33240, Note_on_c, 0, 30, 0
1, 33240, Note_on_c, 0, 42, 48
1, 33467, Note_on_c, 0, 57, 46
1, 33695, Note_on_c, 0, 42, 0
1, 33695, Note_on_c, 0, 30, 47
1, 33923, Note_on_c, 0, 61, 0
1, 33923, Note_on_c, 0, 54, 0
1, 33923, Note_on_c, 0, 64, 52
1, 33926, Note_on_c, 0, 30, 0
1, 33926, Note_on_c, 0, 28, 48
1, 34378, Note_on_c, 0, 57, 0
1, 34378, Note_on_c, 0, 56, 46
1, 34378, Note_on_c, 0, 28, 0
1, 34381, Note_on_c, 0, 30, 48
1, 34606, Note_on_c, 0, 30, 0
1, 34606, Note_on_c, 0, 28, 48
1, 34834, Note_on_c, 0, 56, 0
1, 34834, Note_on_c, 0, 59, 0
1, 34834, Note_on_c, 0, 57, 45
1, 34837, Note_on_c, 0, 61, 50
1, 34837, Note_on_c, 0, 28, 0
1, 34837, Note_on_c, 0, 33, 52
1, 35068, Note_on_c, 0, 33, 0
1, 35068, Note_on_c, 0, 45, 56
1, 35538, Note_on_c, 0, 45, 0
1, 35538, Note_on_c, 0, 44, 52
1, 35772, Note_on_c, 0, 61, 0
1, 35772, Note_on_c, 0, 57, 0
1, 35772, Note_on_c, 0, 64, 0
1, 35775, Note_on_c, 0, 61, 48
1, 35775, Note_on_c, 0, 66, 53
1, 35775, Note_on_c, 0, 69, 53
1, 35778, Note_on_c, 0, 44, 0
1, 35778, Note_on_c, 0, 42, 50
1, 36242, Note_on_c, 0, 42, 0
1, 36242, Note_on_c, 0, 44, 48
1, 36477, Note_on_c, 0, 44, 0
1, 36477, Note_on_c, 0, 42, 48
1, 36711, Note_on_c, 0, 69, 0
1, 36711, Note_on_c, 0, 68, 50
1, 36711, Note_on_c, 0, 42, 0
1, 36714, Note_on_c, 0, 37, 43
1, 36939, Note_on_c, 0, 37, 0
1, 36939, Note_on_c, 0, 49, 47
1, 37167, Note_on_c, 0, 66, 0
1, 37167, Note_on_c, 0, 64, 48
1, 37399, Note_on_c, 0, 49, 0
1, 37399, Note_on_c, 0, 37, 38
1, 37631, Note_on_c, 0, 68, 0
1, 37631, Note_on_c, 0, 68, 48
1, 37631, Note_on_c, 0, 70, 61
1, 37634, Note_on_c, 0, 37, 0
1, 37634, Note_on_c, 0, 42, 47
1, 37862, Note_on_c, 0, 42, 0
1, 37862, Note_on_c, 0, 54, 52
1, 38095, Note_on_c, 0, 68, 0
1, 38095, Note_on_c, 0, 66, 53
1, 38331, Note_on_c, 0, 54, 0
1, 38331, Note_on_c, 0, 42, 48
1, 38571, Note_on_c, 0, 61, 0
1, 38571, Note_on_c, 0, 70, 0
1, 38571, Note_on_c, 0, 64, 0
1, 38574, Note_on_c, 0, 63, 45
1, 38574, Note_on_c, 0, 71, 53
1, 38574, Note_on_c, 0, 42, 0
1, 38577, Note_on_c, 0, 35, 52
1, 38805, Note_on_c, 0, 35, 0
1, 38805, Note_on_c, 0, 47, 57
1, 39273, Note_on_c, 0, 47, 0
1, 39273, Note_on_c, 0, 47, 57
1, 39507, Note_on_c, 0, 71, 0
1, 39507, Note_on_c, 0, 63, 0
1, 39507, Note_on_c, 0, 66, 0
1, 39510, Note_on_c, 0, 71, 48
1, 39510, Note_on_c, 0, 64, 48
1, 39510, Note_on_c, 0, 47, 0
1, 39513, Note_on_c, 0, 48, 45
1, 39513, Note_on_c, 0, 59, 66
1, 39975, Note_on_c, 0, 59, 0
1, 39975, Note_on_c, 0, 60, 63
1, 40209, Note_on_c, 0, 60, 0
1, 40209, Note_on_c, 0, 59, 62
1, 40443, Note_on_c, 0, 64, 0
1, 40443, Note_on_c, 0, 71, 0
1, 40443, Note_on_c, 0, 64, 42
1, 40446, Note_on_c, 0, 69, 42
1, 40446, Note_on_c, 0, 59, 0
1, 40446, Note_on_c, 0, 59, 66
1, 40684, Note_on_c, 0, 59, 0
1, 40684, Note_on_c, 0, 62, 68
1, 41152, Note_on_c, 0, 62, 0
1, 41152, Note_on_c, 0, 60, 61
1, 41386, Note_on_c, 0, 69, 0
1, 41386, Note_on_c, 0, 64, 0
1, 41386, Note_on_c, 0, 66, 42
1, 41389, Note_on_c, 0, 60, 63
1, 41389, Note_on_c, 0, 60, 0
1, 41389, Note_on_c, 0, 48, 0
1, 41392, Note_on_c, 0, 59, 48
1, 41392, Note_on_c, 0, 50, 42
1, 41854, Note_on_c, 0, 60, 0
1, 41854, Note_on_c, 0, 62, 62
1, 41854, Note_on_c, 0, 59, 0
1, 41857, Note_on_c, 0, 57, 42
1, 42088, Note_on_c, 0, 62, 0
1, 42088, Note_on_c, 0, 60, 58
1, 42322, Note_on_c, 0, 60, 0
1, 42322, Note_on_c, 0, 66, 0
1, 42322, Note_on_c, 0, 67, 42
1, 42325, Note_on_c, 0, 59, 55
1, 42325, Note_on_c, 0, 57, 0
1, 42325, Note_on_c, 0, 50, 0
1, 42328, Note_on_c, 0, 55, 47
1, 42566, Note_on_c, 0, 59, 0
1, 42566, Note_on_c, 0, 64, 52
1, 42566, Note_on_c, 0, 60, 52
1, 43083, Note_on_c, 0, 64, 0
1, 43083, Note_on_c, 0, 62, 48
1, 43083, Note_on_c, 0, 60, 0
1, 43086, Note_on_c, 0, 59, 48
1, 43317, Note_on_c, 0, 62, 0
1, 43327, Note_on_c, 0, 67, 0
1, 43327, Note_on_c, 0, 71, 41
1, 43327, Note_on_c, 0, 64, 41
1, 43330, Note_on_c, 0, 59, 0
1, 43330, Note_on_c, 0, 55, 0
1, 43330, Note_on_c, 0, 48, 42
1, 43333, Note_on_c, 0, 59, 55
1, 43800, Note_on_c, 0, 59, 0
1, 43800, Note_on_c, 0, 60, 47
1, 44036, Note_on_c, 0, 60, 0
1, 44036, Note_on_c, 0, 59, 47
1, 44273, Note_on_c, 0, 64, 0
1, 44273, Note_on_c, 0, 71, 0
1, 44273, Note_on_c, 0, 64, 38
1, 44276, Note_on_c, 0, 69, 38
1, 44276, Note_on_c, 0, 59, 0
1, 44276, Note_on_c, 0, 59, 51
1, 44525, Note_on_c, 0, 59, 0
1, 44525, Note_on_c, 0, 62, 53
1, 45003, Note_on_c, 0, 62, 0
1, 45003, Note_on_c, 0, 60, 47
1, 45242, Note_on_c, 0, 69, 0
1, 45242, Note_on_c, 0, 64, 0
1, 45242, Note_on_c, 0, 66, 36
1, 45245, Note_on_c, 0, 60, 51
1, 45245, Note_on_c, 0, 60, 0
1, 45245, Note_on_c, 0, 48, 0
1, 45248, Note_on_c, 0, 59, 42
1, 45248, Note_on_c, 0, 50, 36
1, 45736, Note_on_c, 0, 60, 0
1, 45736, Note_on_c, 0, 62, 50
1, 45736, Note_on_c, 0, 59, 0
1, 45739, Note_on_c, 0, 57, 38
1, 46000, Note_on_c, 0, 62, 0
1, 46000, Note_on_c, 0, 60, 48
1, 46265, Note_on_c, 0, 60, 0
1, 46265, Note_on_c, 0, 66, 0
1, 46265, Note_on_c, 0, 71, 38
1, 46268, Note_on_c, 0, 59, 43
1, 46268, Note_on_c, 0, 57, 0
1, 46268, Note_on_c, 0, 50, 0
1, 46271, Note_on_c, 0, 55, 38
1, 46271, Note_on_c, 0, 51, 42
1, 46553, Note_on_c, 0, 59, 0
1, 46553, Note_on_c, 0, 67, 42
1, 46553, Note_on_c, 0, 55, 0
1, 46556, Note_on_c, 0, 59, 42
1, 47194, Note_on_c, 0, 67, 0
1, 47194, Note_on_c, 0, 66, 38
1, 47194, Note_on_c, 0, 59, 0
1, 47197, Note_on_c, 0, 57, 38
1, 47502, Note_on_c, 0, 66, 0
1, 47515, Note_on_c, 0, 71, 0
1, 47515, Control_c, 0, 91, 127
1, 47515, Note_on_c, 0, 57, 0
1, 47518, Note_on_c, 0, 51, 0
1, 47518, Control_c, 0, 91, 127
1, 47518, Note_on_c, 0, 52, 45
1, 47521, Note_on_c, 0, 55, 45
1, 48004, Note_on_c, 0, 55, 0
1, 48004, Note_on_c, 0, 60, 56
1, 48248, Note_on_c, 0, 60, 0
1, 48248, Note_on_c, 0, 59, 56
1, 48492, Note_on_c, 0, 71, 58
1, 48492, Note_on_c, 0, 59, 0
1, 48492, Note_on_c, 0, 52, 0
1, 48495, Note_on_c, 0, 51, 40
1, 48495, Note_on_c, 0, 54, 40
1, 48495, Note_on_c, 0, 59, 58
1, 48506, Control_c, 0, 64, 127
1, 48731, Note_on_c, 0, 59, 0
1, 48731, Note_on_c, 0, 66, 52
1, 48970, Note_on_c, 0, 78, 52
1, 49209, Note_on_c, 0, 78, 0
1, 49209, Note_on_c, 0, 71, 47
1, 49448, Note_on_c, 0, 71, 0
1, 49448, Note_on_c, 0, 71, 0
1, 49448, Note_on_c, 0, 71, 58
1, 49451, Note_on_c, 0, 66, 0
1, 49451, Note_on_c, 0, 54, 0
1, 49451, Note_on_c, 0, 51, 0
1, 49454, Control_c, 0, 64, 0
1, 49454, Note_on_c, 0, 52, 43
1, 49454, Note_on_c, 0, 55, 43
1, 49457, Note_on_c, 0, 59, 58
1, 49559, Control_c, 0, 64, 127
1, 49687, Note_on_c, 0, 79, 57
1, 49926, Note_on_c, 0, 59, 0
1, 49926, Note_on_c, 0, 60, 58
1, 50165, Note_on_c, 0, 60, 0
1, 50165, Note_on_c, 0, 59, 58
1, 50404, Note_on_c, 0, 79, 0
1, 50404, Note_on_c, 0, 71, 0
1, 50404, Note_on_c, 0, 71, 53
1, 50407, Note_on_c, 0, 59, 0
1, 50407, Note_on_c, 0, 55, 0
1, 50407, Note_on_c, 0, 52, 0
1, 50410, Note_on_c, 0, 51, 36
1, 50410, Note_on_c, 0, 54, 36
1, 50410, Note_on_c, 0, 59, 56
1, 50432, Control_c, 0, 64, 0
1, 50573, Control_c, 0, 64, 127
1, 50643, Note_on_c, 0, 59, 0
1, 50643, Note_on_c, 0, 66, 47
1, 50882, Note_on_c, 0, 78, 47
1, 51121, Note_on_c, 0, 78, 0
1, 51121, Note_on_c, 0, 71, 37
1, 51360, Note_on_c, 0, 71, 0
1, 51360, Note_on_c, 0, 71, 0
1, 51360, Note_on_c, 0, 71, 56
1, 51363, Note_on_c, 0, 66, 0
1, 51363, Note_on_c, 0, 54, 0
1, 51363, Note_on_c, 0, 51, 0
1, 51366, Control_c, 0, 64, 0
1, 51366, Note_on_c, 0, 52, 41
1, 51366, Note_on_c, 0, 55, 41
1, 51369, Note_on_c, 0, 59, 53
1, 51490, Control_c, 0, 64, 127
1, 51604, Note_on_c, 0, 83, 57
1, 51848, Note_on_c, 0, 59, 0
1, 51848, Note_on_c, 0, 60, 53
1, 52098, Note_on_c, 0, 60, 0
1, 52098, Note_on_c, 0, 59, 52
1, 52318, Control_c, 0, 64, 0
1, 52347, Note_on_c, 0, 83, 0
1, 52347, Note_on_c, 0, 71, 0
1, 52347, Note_on_c, 0, 72, 52
1, 52350, Note_on_c, 0, 59, 0
1, 52350, Note_on_c, 0, 55, 0
1, 52350, Note_on_c, 0, 52, 0
1, 52353, Note_on_c, 0, 57, 35
1, 52353, Note_on_c, 0, 60, 52
1, 52522, Control_c, 0, 64, 127
1, 52594, Note_on_c, 0, 60, 0
1, 52594, Note_on_c, 0, 71, 46
1, 52849, Note_on_c, 0, 83, 42
1, 53115, Note_on_c, 0, 83, 0
1, 53115, Note_on_c, 0, 72, 36
1, 53376, Note_on_c, 0, 72, 0
1, 53376, Note_on_c, 0, 72, 0
1, 53376, Note_on_c, 0, 72, 40
1, 53379, Note_on_c, 0, 71, 0
1, 53379, Note_on_c, 0, 57, 0
1, 53379, Control_c, 0, 64, 0
1, 53382, Note_on_c, 0, 50, 35
1, 53382, Note_on_c, 0, 54, 35
1, 53382, Note_on_c, 0, 60, 46
1, 53483, Control_c, 0, 64, 127
1, 53637, Note_on_c, 0, 81, 41
1, 53898, Note_on_c, 0, 60, 0
1, 53898, Note_on_c, 0, 62, 42
1, 54145, Note_on_c, 0, 62, 0
1, 54145, Note_on_c, 0, 60, 42
1, 54392, Note_on_c, 0, 81, 0
1, 54392, Note_on_c, 0, 72, 0
1, 54392, Note_on_c, 0, 71, 47
1, 54395, Note_on_c, 0, 60, 0
1, 54395, Note_on_c, 0, 54, 0
1, 54395, Note_on_c, 0, 50, 0
1, 54398, Note_on_c, 0, 55, 33
1, 54398, Note_on_c, 0, 59, 45
1, 54436, Control_c, 0, 64, 0
1, 54600, Control_c, 0, 64, 127
1, 54645, Note_on_c, 0, 59, 0
1, 54645, Note_on_c, 0, 69, 45
1, 54906, Note_on_c, 0, 81, 38
1, 55176, Note_on_c, 0, 81, 0
1, 55176, Note_on_c, 0, 71, 33
1, 55444, Note_on_c, 0, 71, 0
1, 55444, Note_on_c, 0, 71, 0
1, 55444, Note_on_c, 0, 71, 38
1, 55447, Note_on_c, 0, 69, 0
1, 55447, Note_on_c, 0, 55, 0
1, 55447, Control_c, 0, 64, 0
1, 55450, Note_on_c, 0, 48, 33
1, 55450, Note_on_c, 0, 52, 33
1, 55450, Note_on_c, 0, 59, 45
1, 55583, Control_c, 0, 64, 127
1, 55705, Note_on_c, 0, 79, 38
1, 55966, Note_on_c, 0, 59, 0
1, 55966, Note_on_c, 0, 60, 41
1, 56237, Note_on_c, 0, 60, 0
1, 56237, Note_on_c, 0, 59, 41
1, 56525, Note_on_c, 0, 79, 0
1, 56525, Note_on_c, 0, 71, 0
1, 56525, Note_on_c, 0, 69, 46
1, 56528, Note_on_c, 0, 59, 0
1, 56528, Note_on_c, 0, 52, 0
1, 56528, Note_on_c, 0, 48, 0
1, 56531, Note_on_c, 0, 54, 33
1, 56531, Note_on_c, 0, 57, 43
1, 56540, Control_c, 0, 64, 0
1, 56697, Control_c, 0, 64, 127
1, 56789, Note_on_c, 0, 57, 0
1, 56789, Note_on_c, 0, 67, 41
1, 57070, Note_on_c, 0, 79, 37
1, 57369, Note_on_c, 0, 79, 0
1, 57369, Note_on_c, 0, 69, 32
1, 57661, Note_on_c, 0, 69, 0
1, 57661, Note_on_c, 0, 69, 0
1, 57661, Note_on_c, 0, 69, 37
1, 57664, Note_on_c, 0, 67, 0
1, 57664, Note_on_c, 0, 54, 0
1, 57664, Control_c, 0, 64, 0
1, 57667, Note_on_c, 0, 47, 32
1, 57667, Note_on_c, 0, 51, 32
1, 57667, Note_on_c, 0, 57, 40
1, 57762, Control_c, 0, 64, 127
1, 57949, Note_on_c, 0, 78, 38
1, 58257, Note_on_c, 0, 57, 0
1, 58257, Note_on_c, 0, 59, 37
1, 58644, Note_on_c, 0, 59, 0
1, 58644, Note_on_c, 0, 57, 36
1, 59268, Note_on_c, 0, 78, 0
1, 59268, Note_on_c, 0, 69, 0
1, 59268, Note_on_c, 0, 69, 31
1, 59271, Note_on_c, 0, 76, 31
1, 59271, Note_on_c, 0, 51, 0
1, 59271, Note_on_c, 0, 47, 0
1, 59274, Note_on_c, 0, 60, 31
1, 59274, Note_on_c, 0, 52, 31
1, 59282, Control_c, 0, 64, 0
1, 59507, Control_c, 0, 64, 127
1, 62136, Note_on_c, 0, 45, 24
1, 62827, Control_c, 0, 64, 0
1, 63092, Note_on_c, 0, 76, 0
1, 63092, Note_on_c, 0, 69, 0
1, 63092, Note_on_c, 0, 45, 0
1, 63095, Note_on_c, 0, 57, 0
1, 63095, Note_on_c, 0, 60, 0
1, 63095, Note_on_c, 0, 52, 0
1, 64593, End_track
0, 0, End_of_file
