0, 0, Header, 0, 1, 384
1, 0, Start_track
1, 0, Tempo, 512820
1, 0, Title_t, "Kreisleriana 3"
1, 0, Program_c, 0, 0
1, 0, Control_c, 0, 91, 127
1, 3, Program_c, 0, 0
1, 3, Program_c, 0, 0
1, 748, Note_on_c, 0, 50, 56
1, 795, Note_on_c, 0, 50, 0
1, 937, Note_on_c, 0, 55, 60
1, 937, Note_on_c, 0, 43, 60
1, 937, Note_on_c, 0, 31, 52
1, 940, Control_c, 0, 64, 127
1, 994, Note_on_c, 0, 55, 0
1, 994, Note_on_c, 0, 50, 46
1, 1050, Note_on_c, 0, 50, 0
1, 1050, Note_on_c, 0, 57, 46
1, 1106, Note_on_c, 0, 57, 0
1, 1106, Note_on_c, 0, 58, 60
1, 1116, Control_c, 0, 64, 0
1, 1156, Note_on_c, 0, 58, 0
1, 1306, Note_on_c, 0, 57, 60
1, 1336, Control_c, 0, 64, 127
1, 1363, Note_on_c, 0, 57, 0
1, 1363, Note_on_c, 0, 50, 46
1, 1420, Note_on_c, 0, 50, 0
1, 1420, Note_on_c, 0, 58, 46
1, 1476, Note_on_c, 0, 58, 0
1, 1476, Note_on_c, 0, 60, 60
1, 1485, Control_c, 0, 64, 0
1, 1526, Note_on_c, 0, 60, 0
1, 1677, Note_on_c, 0, 58, 60
1, 1692, Control_c, 0, 64, 127
1, 1734, Note_on_c, 0, 58, 0
1, 1734, Note_on_c, 0, 50, 45
1, 1790, Note_on_c, 0, 50, 0
1, 1790, Note_on_c, 0, 60, 45
1, 1847, Note_on_c, 0, 60, 0
1, 1847, Note_on_c, 0, 62, 60
1, 1850, Control_c, 0, 64, 0
1, 1897, Note_on_c, 0, 62, 0
1, 2045, Note_on_c, 0, 55, 60
1, 2045, Note_on_c, 0, 31, 0
1, 2045, Note_on_c, 0, 43, 0
1, 2060, Control_c, 0, 64, 127
1, 2102, Note_on_c, 0, 55, 0
1, 2102, Note_on_c, 0, 50, 46
1, 2158, Note_on_c, 0, 50, 0
1, 2158, Note_on_c, 0, 57, 46
1, 2215, Note_on_c, 0, 57, 0
1, 2215, Note_on_c, 0, 58, 60
1, 2215, Note_on_c, 0, 34, 47
1, 2218, Note_on_c, 0, 46, 54
1, 2223, Control_c, 0, 64, 0
1, 2265, Note_on_c, 0, 58, 0
1, 2265, Note_on_c, 0, 46, 0
1, 2265, Note_on_c, 0, 34, 0
1, 2413, Note_on_c, 0, 57, 60
1, 2413, Note_on_c, 0, 48, 60
1, 2413, Note_on_c, 0, 36, 52
1, 2423, Control_c, 0, 64, 127
1, 2470, Note_on_c, 0, 57, 0
1, 2470, Note_on_c, 0, 51, 48
1, 2498, Note_on_c, 0, 36, 0
1, 2498, Note_on_c, 0, 48, 0
1, 2527, Note_on_c, 0, 51, 0
1, 2527, Note_on_c, 0, 58, 48
1, 2583, Note_on_c, 0, 58, 0
1, 2583, Note_on_c, 0, 60, 60
1, 2596, Control_c, 0, 64, 0
1, 2633, Note_on_c, 0, 60, 0
1, 2780, Note_on_c, 0, 54, 60
1, 2780, Note_on_c, 0, 38, 50
1, 2780, Note_on_c, 0, 50, 58
1, 2802, Control_c, 0, 64, 127
1, 2837, Note_on_c, 0, 54, 0
1, 2837, Note_on_c, 0, 48, 50
1, 2866, Note_on_c, 0, 50, 0
1, 2866, Note_on_c, 0, 38, 0
1, 2894, Note_on_c, 0, 48, 0
1, 2894, Note_on_c, 0, 55, 50
1, 2951, Note_on_c, 0, 55, 0
1, 2951, Note_on_c, 0, 57, 60
1, 2958, Control_c, 0, 64, 0
1, 3000, Note_on_c, 0, 57, 0
1, 3147, Note_on_c, 0, 55, 60
1, 3147, Note_on_c, 0, 43, 60
1, 3147, Note_on_c, 0, 31, 52
1, 3154, Control_c, 0, 64, 127
1, 3203, Note_on_c, 0, 55, 0
1, 3203, Note_on_c, 0, 50, 50
1, 3260, Note_on_c, 0, 50, 0
1, 3260, Note_on_c, 0, 57, 51
1, 3317, Note_on_c, 0, 57, 0
1, 3317, Note_on_c, 0, 58, 60
1, 3317, Note_on_c, 0, 31, 0
1, 3320, Note_on_c, 0, 43, 0
1, 3329, Control_c, 0, 64, 0
1, 3366, Note_on_c, 0, 58, 0
1, 3512, Note_on_c, 0, 57, 60
1, 3601, Note_on_c, 0, 57, 0
1, 3646, Note_on_c, 0, 54, 54
1, 3690, Note_on_c, 0, 54, 0
1, 3690, Note_on_c, 0, 50, 68
1, 3690, Note_on_c, 0, 38, 57
1, 3737, Note_on_c, 0, 50, 0
1, 3737, Note_on_c, 0, 38, 0
1, 3879, Note_on_c, 0, 55, 60
1, 3879, Note_on_c, 0, 43, 60
1, 3879, Note_on_c, 0, 31, 52
1, 3882, Control_c, 0, 64, 127
1, 3935, Note_on_c, 0, 55, 0
1, 3935, Note_on_c, 0, 50, 48
1, 3992, Note_on_c, 0, 50, 0
1, 3992, Note_on_c, 0, 57, 48
1, 4048, Note_on_c, 0, 57, 0
1, 4048, Note_on_c, 0, 58, 60
1, 4058, Control_c, 0, 64, 0
1, 4098, Note_on_c, 0, 58, 0
1, 4248, Note_on_c, 0, 57, 60
1, 4278, Control_c, 0, 64, 127
1, 4305, Note_on_c, 0, 57, 0
1, 4305, Note_on_c, 0, 50, 48
1, 4362, Note_on_c, 0, 50, 0
1, 4362, Note_on_c, 0, 58, 48
1, 4418, Note_on_c, 0, 58, 0
1, 4418, Note_on_c, 0, 60, 60
1, 4427, Control_c, 0, 64, 0
1, 4468, Note_on_c, 0, 60, 0
1, 4619, Note_on_c, 0, 58, 60
1, 4634, Control_c, 0, 64, 127
1, 4676, Note_on_c, 0, 58, 0
1, 4676, Note_on_c, 0, 50, 47
1, 4732, Note_on_c, 0, 50, 0
1, 4732, Note_on_c, 0, 60, 47
1, 4789, Note_on_c, 0, 60, 0
1, 4789, Note_on_c, 0, 62, 60
1, 4792, Control_c, 0, 64, 0
1, 4839, Note_on_c, 0, 62, 0
1, 4987, Note_on_c, 0, 55, 60
1, 4987, Note_on_c, 0, 31, 0
1, 4987, Note_on_c, 0, 43, 0
1, 5002, Control_c, 0, 64, 127
1, 5044, Note_on_c, 0, 55, 0
1, 5044, Note_on_c, 0, 50, 50
1, 5100, Note_on_c, 0, 50, 0
1, 5100, Note_on_c, 0, 57, 50
1, 5157, Note_on_c, 0, 57, 0
1, 5157, Note_on_c, 0, 58, 60
1, 5157, Note_on_c, 0, 46, 54
1, 5160, Note_on_c, 0, 34, 47
1, 5165, Control_c, 0, 64, 0
1, 5207, Note_on_c, 0, 58, 0
1, 5207, Note_on_c, 0, 34, 0
1, 5207, Note_on_c, 0, 46, 0
1, 5355, Note_on_c, 0, 57, 60
1, 5355, Note_on_c, 0, 48, 60
1, 5355, Note_on_c, 0, 36, 52
1, 5365, Control_c, 0, 64, 127
1, 5412, Note_on_c, 0, 57, 0
1, 5412, Note_on_c, 0, 51, 50
1, 5440, Note_on_c, 0, 36, 0
1, 5440, Note_on_c, 0, 48, 0
1, 5469, Note_on_c, 0, 51, 0
1, 5469, Note_on_c, 0, 58, 50
1, 5525, Note_on_c, 0, 58, 0
1, 5525, Note_on_c, 0, 60, 60
1, 5538, Control_c, 0, 64, 0
1, 5575, Note_on_c, 0, 60, 0
1, 5722, Note_on_c, 0, 59, 60
1, 5722, Note_on_c, 0, 38, 50
1, 5722, Note_on_c, 0, 50, 58
1, 5744, Control_c, 0, 64, 127
1, 5779, Note_on_c, 0, 59, 0
1, 5779, Note_on_c, 0, 50, 49
1, 5808, Note_on_c, 0, 50, 0
1, 5808, Note_on_c, 0, 38, 0
1, 5836, Note_on_c, 0, 50, 0
1, 5836, Note_on_c, 0, 60, 50
1, 5893, Note_on_c, 0, 60, 0
1, 5893, Note_on_c, 0, 62, 60
1, 5900, Control_c, 0, 64, 0
1, 5942, Note_on_c, 0, 62, 0
1, 6088, Note_on_c, 0, 60, 60
1, 6088, Note_on_c, 0, 39, 52
1, 6088, Note_on_c, 0, 51, 60
1, 6096, Control_c, 0, 64, 127
1, 6145, Note_on_c, 0, 60, 0
1, 6145, Note_on_c, 0, 55, 51
1, 6202, Note_on_c, 0, 55, 0
1, 6202, Note_on_c, 0, 62, 51
1, 6259, Note_on_c, 0, 62, 0
1, 6259, Note_on_c, 0, 63, 60
1, 6259, Note_on_c, 0, 51, 0
1, 6262, Note_on_c, 0, 39, 0
1, 6270, Control_c, 0, 64, 0
1, 6304, Note_on_c, 0, 63, 0
1, 6440, Note_on_c, 0, 59, 64
1, 6451, Control_c, 0, 64, 127
1, 6494, Note_on_c, 0, 59, 0
1, 6494, Note_on_c, 0, 53, 55
1, 6547, Note_on_c, 0, 53, 0
1, 6547, Note_on_c, 0, 60, 55
1, 6601, Note_on_c, 0, 60, 0
1, 6601, Note_on_c, 0, 62, 66
1, 6601, Note_on_c, 0, 38, 45
1, 6604, Note_on_c, 0, 50, 52
1, 6608, Control_c, 0, 64, 0
1, 6649, Note_on_c, 0, 62, 0
1, 6697, Note_on_c, 0, 50, 0
1, 6697, Note_on_c, 0, 38, 0
1, 6793, Note_on_c, 0, 60, 69
1, 6793, Note_on_c, 0, 39, 56
1, 6793, Note_on_c, 0, 51, 65
1, 6802, Control_c, 0, 64, 127
1, 6849, Note_on_c, 0, 60, 0
1, 6849, Note_on_c, 0, 55, 58
1, 6878, Note_on_c, 0, 51, 0
1, 6878, Note_on_c, 0, 39, 0
1, 6906, Note_on_c, 0, 55, 0
1, 6906, Note_on_c, 0, 62, 58
1, 6963, Note_on_c, 0, 62, 0
1, 6963, Note_on_c, 0, 63, 69
1, 6976, Control_c, 0, 64, 0
1, 7012, Note_on_c, 0, 63, 0
1, 7160, Note_on_c, 0, 63, 73
1, 7160, Note_on_c, 0, 36, 58
1, 7160, Note_on_c, 0, 48, 67
1, 7182, Control_c, 0, 64, 127
1, 7217, Note_on_c, 0, 63, 0
1, 7217, Note_on_c, 0, 55, 61
1, 7245, Note_on_c, 0, 48, 0
1, 7245, Note_on_c, 0, 36, 0
1, 7274, Note_on_c, 0, 55, 0
1, 7274, Note_on_c, 0, 65, 61
1, 7331, Note_on_c, 0, 65, 0
1, 7331, Note_on_c, 0, 67, 71
1, 7337, Control_c, 0, 64, 0
1, 7379, Note_on_c, 0, 67, 0
1, 7526, Note_on_c, 0, 66, 80
1, 7526, Note_on_c, 0, 38, 60
1, 7526, Note_on_c, 0, 50, 69
1, 7536, Control_c, 0, 64, 127
1, 7583, Note_on_c, 0, 66, 0
1, 7583, Note_on_c, 0, 54, 63
1, 7639, Note_on_c, 0, 54, 0
1, 7639, Note_on_c, 0, 67, 64
1, 7696, Note_on_c, 0, 67, 0
1, 7696, Note_on_c, 0, 69, 81
1, 7696, Note_on_c, 0, 50, 0
1, 7699, Note_on_c, 0, 38, 0
1, 7709, Control_c, 0, 64, 0
1, 7745, Note_on_c, 0, 69, 0
1, 7893, Note_on_c, 0, 62, 77
1, 7942, Note_on_c, 0, 62, 0
1, 8090, Note_on_c, 0, 62, 74
1, 8090, Note_on_c, 0, 50, 71
1, 8137, Note_on_c, 0, 62, 0
1, 8137, Note_on_c, 0, 50, 0
1, 8279, Note_on_c, 0, 67, 74
1, 8279, Note_on_c, 0, 43, 74
1, 8279, Note_on_c, 0, 46, 74
1, 8282, Note_on_c, 0, 55, 86
1, 8282, Control_c, 0, 64, 127
1, 8337, Note_on_c, 0, 67, 0
1, 8337, Note_on_c, 0, 62, 58
1, 8395, Note_on_c, 0, 62, 0
1, 8395, Note_on_c, 0, 69, 58
1, 8453, Note_on_c, 0, 69, 0
1, 8453, Note_on_c, 0, 70, 74
1, 8466, Control_c, 0, 64, 0
1, 8503, Note_on_c, 0, 70, 0
1, 8653, Note_on_c, 0, 69, 74
1, 8653, Note_on_c, 0, 55, 0
1, 8653, Note_on_c, 0, 46, 0
1, 8656, Note_on_c, 0, 50, 78
1, 8656, Note_on_c, 0, 57, 90
1, 8704, Control_c, 0, 64, 127
1, 8711, Note_on_c, 0, 69, 0
1, 8711, Note_on_c, 0, 62, 60
1, 8769, Note_on_c, 0, 62, 0
1, 8769, Note_on_c, 0, 70, 60
1, 8828, Note_on_c, 0, 70, 0
1, 8828, Note_on_c, 0, 72, 74
1, 8845, Control_c, 0, 64, 0
1, 8878, Note_on_c, 0, 72, 0
1, 9028, Note_on_c, 0, 70, 74
1, 9028, Note_on_c, 0, 57, 0
1, 9028, Note_on_c, 0, 50, 0
1, 9031, Note_on_c, 0, 43, 0
1, 9031, Note_on_c, 0, 58, 94
1, 9031, Note_on_c, 0, 55, 81
1, 9067, Control_c, 0, 64, 127
1, 9086, Note_on_c, 0, 70, 0
1, 9086, Note_on_c, 0, 62, 59
1, 9145, Note_on_c, 0, 62, 0
1, 9145, Note_on_c, 0, 72, 59
1, 9203, Note_on_c, 0, 72, 0
1, 9203, Note_on_c, 0, 74, 74
1, 9223, Control_c, 0, 64, 0
1, 9253, Note_on_c, 0, 74, 0
1, 9401, Note_on_c, 0, 67, 74
1, 9401, Note_on_c, 0, 55, 0
1, 9401, Note_on_c, 0, 58, 0
1, 9451, Control_c, 0, 64, 127
1, 9458, Note_on_c, 0, 67, 0
1, 9458, Note_on_c, 0, 62, 60
1, 9514, Note_on_c, 0, 62, 0
1, 9514, Note_on_c, 0, 69, 62
1, 9571, Note_on_c, 0, 69, 0
1, 9571, Note_on_c, 0, 70, 74
1, 9571, Note_on_c, 0, 55, 82
1, 9574, Note_on_c, 0, 46, 71
1, 9579, Control_c, 0, 64, 0
1, 9621, Note_on_c, 0, 70, 0
1, 9621, Note_on_c, 0, 46, 0
1, 9621, Note_on_c, 0, 55, 0
1, 9769, Note_on_c, 0, 69, 74
1, 9769, Note_on_c, 0, 57, 89
1, 9769, Note_on_c, 0, 55, 77
1, 9772, Note_on_c, 0, 48, 77
1, 9779, Control_c, 0, 64, 127
1, 9826, Note_on_c, 0, 69, 0
1, 9826, Note_on_c, 0, 63, 62
1, 9884, Note_on_c, 0, 63, 0
1, 9884, Note_on_c, 0, 70, 62
1, 9941, Note_on_c, 0, 70, 0
1, 9941, Note_on_c, 0, 72, 74
1, 9944, Control_c, 0, 64, 0
1, 9990, Note_on_c, 0, 72, 0
1, 10138, Note_on_c, 0, 66, 74
1, 10138, Note_on_c, 0, 48, 0
1, 10138, Note_on_c, 0, 55, 0
1, 10141, Note_on_c, 0, 57, 0
1, 10141, Note_on_c, 0, 62, 87
1, 10141, Note_on_c, 0, 54, 76
1, 10144, Note_on_c, 0, 50, 71
1, 10161, Control_c, 0, 64, 127
1, 10196, Note_on_c, 0, 66, 0
1, 10196, Note_on_c, 0, 60, 61
1, 10254, Note_on_c, 0, 60, 0
1, 10254, Note_on_c, 0, 67, 61
1, 10312, Note_on_c, 0, 67, 0
1, 10312, Note_on_c, 0, 69, 74
1, 10319, Control_c, 0, 64, 0
1, 10361, Note_on_c, 0, 69, 0
1, 10507, Note_on_c, 0, 67, 74
1, 10507, Note_on_c, 0, 50, 0
1, 10507, Note_on_c, 0, 54, 0
1, 10510, Note_on_c, 0, 62, 0
1, 10510, Note_on_c, 0, 55, 91
1, 10510, Note_on_c, 0, 43, 78
1, 10513, Note_on_c, 0, 46, 78
1, 10544, Control_c, 0, 64, 127
1, 10565, Note_on_c, 0, 67, 0
1, 10565, Note_on_c, 0, 62, 64
1, 10622, Note_on_c, 0, 62, 0
1, 10622, Note_on_c, 0, 69, 64
1, 10680, Note_on_c, 0, 69, 0
1, 10680, Note_on_c, 0, 70, 74
1, 10690, Control_c, 0, 64, 0
1, 10725, Note_on_c, 0, 70, 0
1, 10862, Note_on_c, 0, 69, 74
1, 10862, Note_on_c, 0, 46, 0
1, 10862, Note_on_c, 0, 43, 0
1, 10865, Note_on_c, 0, 55, 0
1, 10948, Note_on_c, 0, 69, 0
1, 10991, Note_on_c, 0, 66, 62
1, 11034, Note_on_c, 0, 66, 0
1, 11034, Note_on_c, 0, 62, 81
1, 11034, Note_on_c, 0, 50, 91
1, 11081, Note_on_c, 0, 62, 0
1, 11081, Note_on_c, 0, 50, 0
1, 11223, Note_on_c, 0, 67, 74
1, 11223, Note_on_c, 0, 43, 78
1, 11223, Note_on_c, 0, 46, 78
1, 11226, Note_on_c, 0, 55, 90
1, 11226, Control_c, 0, 64, 127
1, 11281, Note_on_c, 0, 67, 0
1, 11281, Note_on_c, 0, 62, 59
1, 11339, Note_on_c, 0, 62, 0
1, 11339, Note_on_c, 0, 69, 60
1, 11397, Note_on_c, 0, 69, 0
1, 11397, Note_on_c, 0, 70, 74
1, 11406, Control_c, 0, 64, 0
1, 11447, Note_on_c, 0, 70, 0
1, 11596, Note_on_c, 0, 69, 74
1, 11596, Note_on_c, 0, 55, 0
1, 11596, Note_on_c, 0, 46, 0
1, 11599, Note_on_c, 0, 50, 78
1, 11599, Note_on_c, 0, 57, 91
1, 11627, Control_c, 0, 64, 127
1, 11655, Note_on_c, 0, 69, 0
1, 11655, Note_on_c, 0, 62, 61
1, 11713, Note_on_c, 0, 62, 0
1, 11713, Note_on_c, 0, 70, 62
1, 11771, Note_on_c, 0, 70, 0
1, 11771, Note_on_c, 0, 72, 74
1, 11775, Control_c, 0, 64, 0
1, 11821, Note_on_c, 0, 72, 0
1, 11971, Note_on_c, 0, 70, 74
1, 11971, Note_on_c, 0, 57, 0
1, 11971, Note_on_c, 0, 50, 0
1, 11974, Note_on_c, 0, 43, 0
1, 11974, Note_on_c, 0, 58, 95
1, 11974, Note_on_c, 0, 55, 82
1, 11997, Control_c, 0, 64, 127
1, 12029, Note_on_c, 0, 70, 0
1, 12029, Note_on_c, 0, 62, 65
1, 12087, Note_on_c, 0, 62, 0
1, 12087, Note_on_c, 0, 72, 65
1, 12145, Note_on_c, 0, 72, 0
1, 12145, Note_on_c, 0, 74, 74
1, 12149, Control_c, 0, 64, 0
1, 12198, Note_on_c, 0, 74, 0
1, 12355, Note_on_c, 0, 75, 81
1, 12355, Note_on_c, 0, 55, 0
1, 12355, Note_on_c, 0, 58, 0
1, 12369, Control_c, 0, 64, 127
1, 12410, Note_on_c, 0, 75, 0
1, 12410, Note_on_c, 0, 67, 66
1, 12466, Note_on_c, 0, 67, 0
1, 12466, Note_on_c, 0, 77, 66
1, 12521, Note_on_c, 0, 77, 0
1, 12521, Note_on_c, 0, 79, 74
1, 12521, Note_on_c, 0, 51, 63
1, 12524, Note_on_c, 0, 39, 55
1, 12529, Control_c, 0, 64, 0
1, 12570, Note_on_c, 0, 79, 0
1, 12570, Note_on_c, 0, 39, 0
1, 12570, Note_on_c, 0, 51, 0
1, 12719, Note_on_c, 0, 69, 69
1, 12719, Note_on_c, 0, 41, 72
1, 12719, Note_on_c, 0, 53, 84
1, 12729, Control_c, 0, 64, 127
1, 12777, Note_on_c, 0, 69, 0
1, 12777, Note_on_c, 0, 60, 57
1, 12806, Note_on_c, 0, 53, 0
1, 12806, Note_on_c, 0, 41, 0
1, 12835, Note_on_c, 0, 60, 0
1, 12835, Note_on_c, 0, 70, 57
1, 12894, Note_on_c, 0, 70, 0
1, 12894, Note_on_c, 0, 72, 69
1, 12906, Control_c, 0, 64, 0
1, 12939, Note_on_c, 0, 72, 0
1, 13076, Note_on_c, 0, 74, 81
1, 13076, Note_on_c, 0, 34, 65
1, 13076, Note_on_c, 0, 46, 75
1, 13097, Control_c, 0, 64, 127
1, 13131, Note_on_c, 0, 74, 0
1, 13131, Note_on_c, 0, 65, 62
1, 13158, Note_on_c, 0, 46, 0
1, 13158, Note_on_c, 0, 34, 0
1, 13185, Note_on_c, 0, 65, 0
1, 13185, Note_on_c, 0, 75, 65
1, 13240, Note_on_c, 0, 75, 0
1, 13240, Note_on_c, 0, 77, 75
1, 13247, Control_c, 0, 64, 0
1, 13289, Note_on_c, 0, 77, 0
1, 13435, Note_on_c, 0, 67, 69
1, 13435, Note_on_c, 0, 51, 85
1, 13435, Note_on_c, 0, 39, 73
1, 13443, Control_c, 0, 64, 127
1, 13494, Note_on_c, 0, 67, 0
1, 13494, Note_on_c, 0, 58, 54
1, 13552, Note_on_c, 0, 58, 0
1, 13552, Note_on_c, 0, 69, 54
1, 13610, Note_on_c, 0, 69, 0
1, 13610, Note_on_c, 0, 70, 69
1, 13610, Note_on_c, 0, 39, 0
1, 13613, Note_on_c, 0, 51, 0
1, 13621, Control_c, 0, 64, 0
1, 13657, Note_on_c, 0, 70, 0
1, 13796, Note_on_c, 0, 72, 78
1, 13808, Control_c, 0, 64, 127
1, 13852, Note_on_c, 0, 72, 0
1, 13852, Note_on_c, 0, 63, 61
1, 13907, Note_on_c, 0, 63, 0
1, 13907, Note_on_c, 0, 74, 61
1, 13963, Note_on_c, 0, 74, 0
1, 13963, Note_on_c, 0, 75, 76
1, 13963, Note_on_c, 0, 45, 91
1, 13966, Note_on_c, 0, 33, 78
1, 13969, Control_c, 0, 64, 0
1, 14011, Note_on_c, 0, 75, 0
1, 14154, Note_on_c, 0, 66, 69
1, 14154, Note_on_c, 0, 33, 0
1, 14154, Note_on_c, 0, 45, 0
1, 14157, Note_on_c, 0, 50, 84
1, 14157, Note_on_c, 0, 38, 72
1, 14164, Control_c, 0, 64, 127
1, 14212, Note_on_c, 0, 66, 0
1, 14212, Note_on_c, 0, 57, 55
1, 14269, Note_on_c, 0, 57, 0
1, 14269, Note_on_c, 0, 67, 55
1, 14327, Note_on_c, 0, 67, 0
1, 14327, Note_on_c, 0, 69, 68
1, 14340, Control_c, 0, 64, 0
1, 14376, Note_on_c, 0, 69, 0
1, 14524, Note_on_c, 0, 72, 76
1, 14524, Note_on_c, 0, 38, 0
1, 14524, Note_on_c, 0, 50, 0
1, 14546, Control_c, 0, 64, 127
1, 14581, Note_on_c, 0, 72, 0
1, 14581, Note_on_c, 0, 63, 60
1, 14638, Note_on_c, 0, 63, 0
1, 14638, Note_on_c, 0, 74, 61
1, 14695, Note_on_c, 0, 74, 0
1, 14695, Note_on_c, 0, 75, 75
1, 14695, Note_on_c, 0, 32, 75
1, 14698, Note_on_c, 0, 44, 87
1, 14701, Control_c, 0, 64, 0
1, 14744, Note_on_c, 0, 75, 0
1, 14890, Note_on_c, 0, 66, 72
1, 14890, Note_on_c, 0, 44, 0
1, 14890, Note_on_c, 0, 32, 0
1, 14893, Note_on_c, 0, 50, 78
1, 14893, Note_on_c, 0, 38, 67
1, 14900, Control_c, 0, 64, 127
1, 14947, Note_on_c, 0, 66, 0
1, 14947, Note_on_c, 0, 57, 57
1, 15004, Note_on_c, 0, 57, 0
1, 15004, Note_on_c, 0, 67, 61
1, 15062, Note_on_c, 0, 67, 0
1, 15062, Note_on_c, 0, 69, 70
1, 15075, Control_c, 0, 64, 0
1, 15111, Note_on_c, 0, 69, 0
1, 15259, Note_on_c, 0, 72, 76
1, 15259, Note_on_c, 0, 38, 0
1, 15259, Note_on_c, 0, 50, 0
1, 15304, Control_c, 0, 64, 127
1, 15316, Note_on_c, 0, 72, 0
1, 15316, Note_on_c, 0, 63, 63
1, 15373, Note_on_c, 0, 63, 0
1, 15373, Note_on_c, 0, 74, 60
1, 15430, Note_on_c, 0, 74, 0
1, 15430, Note_on_c, 0, 75, 75
1, 15430, Note_on_c, 0, 33, 75
1, 15433, Note_on_c, 0, 45, 87
1, 15436, Control_c, 0, 64, 0
1, 15478, Note_on_c, 0, 75, 0
1, 15625, Note_on_c, 0, 66, 76
1, 15625, Note_on_c, 0, 45, 0
1, 15625, Note_on_c, 0, 33, 0
1, 15628, Note_on_c, 0, 50, 78
1, 15628, Note_on_c, 0, 38, 67
1, 15635, Control_c, 0, 64, 127
1, 15682, Note_on_c, 0, 66, 0
1, 15682, Note_on_c, 0, 57, 61
1, 15740, Note_on_c, 0, 57, 0
1, 15740, Note_on_c, 0, 67, 61
1, 15797, Note_on_c, 0, 67, 0
1, 15797, Note_on_c, 0, 69, 74
1, 15805, Control_c, 0, 64, 0
1, 15846, Note_on_c, 0, 69, 0
1, 15994, Note_on_c, 0, 60, 69
1, 16044, Control_c, 0, 64, 127
1, 16053, Note_on_c, 0, 60, 0
1, 16053, Note_on_c, 0, 57, 57
1, 16112, Note_on_c, 0, 57, 0
1, 16112, Note_on_c, 0, 62, 55
1, 16171, Note_on_c, 0, 62, 0
1, 16171, Note_on_c, 0, 63, 66
1, 16179, Control_c, 0, 64, 0
1, 16221, Note_on_c, 0, 63, 0
1, 16373, Note_on_c, 0, 54, 64
1, 16373, Note_on_c, 0, 50, 0
1, 16399, Control_c, 0, 64, 127
1, 16433, Note_on_c, 0, 54, 0
1, 16433, Note_on_c, 0, 50, 48
1, 16493, Note_on_c, 0, 50, 0
1, 16493, Note_on_c, 0, 55, 48
1, 16553, Note_on_c, 0, 55, 0
1, 16553, Note_on_c, 0, 57, 62
1, 16566, Control_c, 0, 64, 0
1, 16602, Note_on_c, 0, 57, 0
1, 16750, Note_on_c, 0, 50, 60
1, 16750, Note_on_c, 0, 38, 0
1, 16799, Note_on_c, 0, 50, 0
1, 16947, Note_on_c, 0, 50, 62
1, 16947, Note_on_c, 0, 38, 62
1, 16994, Note_on_c, 0, 50, 0
1, 16994, Note_on_c, 0, 38, 0
1, 17136, Note_on_c, 0, 55, 60
1, 17136, Note_on_c, 0, 31, 52
1, 17136, Note_on_c, 0, 43, 60
1, 17139, Control_c, 0, 64, 127
1, 17194, Note_on_c, 0, 55, 0
1, 17194, Note_on_c, 0, 50, 47
1, 17252, Note_on_c, 0, 50, 0
1, 17252, Note_on_c, 0, 57, 47
1, 17310, Note_on_c, 0, 57, 0
1, 17310, Note_on_c, 0, 58, 60
1, 17320, Control_c, 0, 64, 0
1, 17360, Note_on_c, 0, 58, 0
1, 17510, Note_on_c, 0, 57, 60
1, 17540, Control_c, 0, 64, 127
1, 17568, Note_on_c, 0, 57, 0
1, 17568, Note_on_c, 0, 50, 48
1, 17626, Note_on_c, 0, 50, 0
1, 17626, Note_on_c, 0, 58, 48
1, 17684, Note_on_c, 0, 58, 0
1, 17684, Note_on_c, 0, 60, 60
1, 17693, Control_c, 0, 64, 0
1, 17735, Note_on_c, 0, 60, 0
1, 17885, Note_on_c, 0, 58, 60
1, 17900, Control_c, 0, 64, 127
1, 17943, Note_on_c, 0, 58, 0
1, 17943, Note_on_c, 0, 50, 47
1, 18000, Note_on_c, 0, 50, 0
1, 18000, Note_on_c, 0, 60, 49
1, 18058, Note_on_c, 0, 60, 0
1, 18058, Note_on_c, 0, 62, 61
1, 18061, Control_c, 0, 64, 0
1, 18108, Note_on_c, 0, 62, 0
1, 18256, Note_on_c, 0, 55, 62
1, 18256, Note_on_c, 0, 43, 0
1, 18256, Note_on_c, 0, 31, 0
1, 18271, Control_c, 0, 64, 127
1, 18313, Note_on_c, 0, 55, 0
1, 18313, Note_on_c, 0, 50, 50
1, 18369, Note_on_c, 0, 50, 0
1, 18369, Note_on_c, 0, 57, 50
1, 18426, Note_on_c, 0, 57, 0
1, 18426, Note_on_c, 0, 58, 63
1, 18426, Note_on_c, 0, 46, 57
1, 18429, Note_on_c, 0, 34, 49
1, 18434, Control_c, 0, 64, 0
1, 18476, Note_on_c, 0, 58, 0
1, 18476, Note_on_c, 0, 34, 0
1, 18476, Note_on_c, 0, 46, 0
1, 18624, Note_on_c, 0, 57, 65
1, 18624, Note_on_c, 0, 36, 56
1, 18624, Note_on_c, 0, 48, 65
1, 18634, Control_c, 0, 64, 127
1, 18681, Note_on_c, 0, 57, 0
1, 18681, Note_on_c, 0, 51, 52
1, 18738, Note_on_c, 0, 51, 0
1, 18738, Note_on_c, 0, 58, 52
1, 18794, Note_on_c, 0, 58, 0
1, 18794, Note_on_c, 0, 60, 66
1, 18807, Control_c, 0, 64, 0
1, 18844, Note_on_c, 0, 60, 0
1, 18991, Note_on_c, 0, 59, 67
1, 18991, Note_on_c, 0, 48, 0
1, 18991, Note_on_c, 0, 36, 0
1, 18994, Note_on_c, 0, 38, 56
1, 18994, Note_on_c, 0, 50, 65
1, 19013, Control_c, 0, 64, 127
1, 19048, Note_on_c, 0, 59, 0
1, 19048, Note_on_c, 0, 53, 54
1, 19105, Note_on_c, 0, 53, 0
1, 19105, Note_on_c, 0, 60, 59
1, 19162, Note_on_c, 0, 60, 0
1, 19162, Note_on_c, 0, 62, 68
1, 19169, Control_c, 0, 64, 0
1, 19211, Note_on_c, 0, 62, 0
1, 19358, Note_on_c, 0, 60, 70
1, 19358, Note_on_c, 0, 50, 0
1, 19358, Note_on_c, 0, 38, 0
1, 19361, Note_on_c, 0, 51, 70
1, 19361, Note_on_c, 0, 39, 60
1, 19367, Control_c, 0, 64, 127
1, 19414, Note_on_c, 0, 60, 0
1, 19414, Note_on_c, 0, 51, 58
1, 19471, Note_on_c, 0, 51, 0
1, 19471, Note_on_c, 0, 62, 59
1, 19528, Note_on_c, 0, 62, 0
1, 19528, Note_on_c, 0, 63, 71
1, 19540, Control_c, 0, 64, 0
1, 19573, Note_on_c, 0, 63, 0
1, 19708, Note_on_c, 0, 59, 72
1, 19708, Note_on_c, 0, 39, 0
1, 19708, Note_on_c, 0, 51, 0
1, 19730, Control_c, 0, 64, 127
1, 19765, Note_on_c, 0, 59, 0
1, 19765, Note_on_c, 0, 53, 63
1, 19822, Note_on_c, 0, 53, 0
1, 19822, Note_on_c, 0, 60, 64
1, 19879, Note_on_c, 0, 60, 0
1, 19879, Note_on_c, 0, 62, 73
1, 19879, Note_on_c, 0, 38, 60
1, 19882, Note_on_c, 0, 50, 70
1, 19885, Control_c, 0, 64, 0
1, 19928, Note_on_c, 0, 62, 0
1, 19977, Note_on_c, 0, 50, 0
1, 19977, Note_on_c, 0, 38, 0
1, 20074, Note_on_c, 0, 60, 75
1, 20074, Note_on_c, 0, 48, 75
1, 20074, Note_on_c, 0, 36, 64
1, 20084, Control_c, 0, 64, 127
1, 20131, Note_on_c, 0, 60, 0
1, 20131, Note_on_c, 0, 55, 65
1, 20188, Note_on_c, 0, 55, 0
1, 20188, Note_on_c, 0, 62, 66
1, 20244, Note_on_c, 0, 62, 0
1, 20244, Note_on_c, 0, 63, 76
1, 20333, Note_on_c, 0, 63, 0
1, 20333, Note_on_c, 0, 60, 73
1, 20421, Note_on_c, 0, 60, 0
1, 20421, Note_on_c, 0, 62, 77
1, 20421, Note_on_c, 0, 36, 0
1, 20424, Note_on_c, 0, 48, 0
1, 20424, Note_on_c, 0, 38, 64
1, 20424, Note_on_c, 0, 50, 74
1, 20427, Control_c, 0, 64, 0
1, 20468, Control_c, 0, 64, 127
1, 20478, Note_on_c, 0, 62, 0
1, 20478, Note_on_c, 0, 55, 68
1, 20535, Note_on_c, 0, 55, 0
1, 20535, Note_on_c, 0, 63, 68
1, 20591, Note_on_c, 0, 63, 0
1, 20591, Note_on_c, 0, 65, 78
1, 20598, Control_c, 0, 64, 0
1, 20643, Note_on_c, 0, 65, 0
1, 20799, Note_on_c, 0, 64, 80
1, 20799, Note_on_c, 0, 50, 0
1, 20799, Note_on_c, 0, 38, 0
1, 20802, Note_on_c, 0, 37, 68
1, 20802, Note_on_c, 0, 49, 80
1, 20809, Control_c, 0, 64, 127
1, 20858, Note_on_c, 0, 64, 0
1, 20858, Note_on_c, 0, 55, 70
1, 20917, Note_on_c, 0, 55, 0
1, 20917, Note_on_c, 0, 66, 70
1, 20977, Note_on_c, 0, 66, 0
1, 20977, Note_on_c, 0, 67, 80
1, 20986, Control_c, 0, 64, 0
1, 21082, Note_on_c, 0, 67, 0
1, 21187, Note_on_c, 0, 67, 85
1, 21240, Control_c, 0, 64, 127
1, 21250, Note_on_c, 0, 67, 0
1, 21250, Note_on_c, 0, 58, 75
1, 21313, Note_on_c, 0, 58, 0
1, 21313, Note_on_c, 0, 69, 74
1, 21376, Note_on_c, 0, 69, 0
1, 21376, Note_on_c, 0, 70, 85
1, 21376, Note_on_c, 0, 49, 0
1, 21379, Note_on_c, 0, 37, 0
1, 21379, Note_on_c, 0, 37, 66
1, 21379, Note_on_c, 0, 49, 77
1, 21384, Control_c, 0, 64, 0
1, 21496, Note_on_c, 0, 70, 0
1, 21615, Note_on_c, 0, 62, 83
1, 21615, Note_on_c, 0, 74, 96
1, 21615, Note_on_c, 0, 49, 0
1, 21618, Note_on_c, 0, 37, 0
1, 21618, Note_on_c, 0, 50, 95
1, 21618, Note_on_c, 0, 38, 82
1, 22029, Note_on_c, 0, 74, 0
1, 22029, Note_on_c, 0, 62, 0
1, 22029, Note_on_c, 0, 62, 76
1, 22032, Note_on_c, 0, 66, 88
1, 22032, Note_on_c, 0, 57, 76
1, 22032, Note_on_c, 0, 38, 0
1, 22035, Note_on_c, 0, 50, 0
1, 22035, Note_on_c, 0, 38, 74
1, 22035, Note_on_c, 0, 50, 87
1, 22443, Note_on_c, 0, 57, 0
1, 22443, Note_on_c, 0, 66, 0
1, 22443, Note_on_c, 0, 62, 0
1, 22446, Note_on_c, 0, 64, 80
1, 22446, Note_on_c, 0, 50, 0
1, 22446, Note_on_c, 0, 38, 0
1, 22449, Note_on_c, 0, 49, 80
1, 22449, Note_on_c, 0, 37, 68
1, 22460, Control_c, 0, 64, 127
1, 22502, Note_on_c, 0, 64, 0
1, 22502, Note_on_c, 0, 55, 70
1, 22560, Note_on_c, 0, 55, 0
1, 22560, Note_on_c, 0, 66, 70
1, 22619, Note_on_c, 0, 66, 0
1, 22619, Note_on_c, 0, 67, 80
1, 22626, Control_c, 0, 64, 0
1, 22723, Note_on_c, 0, 67, 0
1, 22827, Note_on_c, 0, 67, 87
1, 22879, Control_c, 0, 64, 127
1, 22889, Note_on_c, 0, 67, 0
1, 22889, Note_on_c, 0, 58, 77
1, 22951, Note_on_c, 0, 58, 0
1, 22951, Note_on_c, 0, 69, 80
1, 23013, Note_on_c, 0, 69, 0
1, 23013, Note_on_c, 0, 70, 92
1, 23013, Note_on_c, 0, 37, 0
1, 23016, Note_on_c, 0, 49, 0
1, 23016, Note_on_c, 0, 49, 77
1, 23016, Note_on_c, 0, 37, 66
1, 23022, Control_c, 0, 64, 0
1, 23141, Note_on_c, 0, 70, 0
1, 23269, Note_on_c, 0, 74, 90
1, 23269, Note_on_c, 0, 70, 90
1, 23269, Note_on_c, 0, 79, 104
1, 23272, Note_on_c, 0, 37, 0
1, 23272, Note_on_c, 0, 49, 0
1, 23272, Note_on_c, 0, 38, 89
1, 23275, Note_on_c, 0, 50, 103
1, 23358, Control_c, 0, 64, 127
1, 23699, Note_on_c, 0, 79, 0
1, 23699, Note_on_c, 0, 70, 0
1, 23699, Note_on_c, 0, 74, 0
1, 23702, Note_on_c, 0, 66, 82
1, 23702, Note_on_c, 0, 74, 95
1, 23702, Note_on_c, 0, 69, 82
1, 23705, Note_on_c, 0, 50, 0
1, 23705, Note_on_c, 0, 38, 0
1, 23705, Note_on_c, 0, 38, 80
1, 23708, Note_on_c, 0, 50, 94
1, 23711, Control_c, 0, 64, 0
1, 23846, Control_c, 0, 64, 127
1, 24271, Note_on_c, 0, 69, 0
1, 24271, Note_on_c, 0, 74, 0
1, 24271, Note_on_c, 0, 66, 0
1, 24274, Note_on_c, 0, 62, 82
1, 24274, Note_on_c, 0, 67, 95
1, 24274, Note_on_c, 0, 58, 82
1, 24277, Note_on_c, 0, 50, 0
1, 24277, Note_on_c, 0, 38, 0
1, 24277, Note_on_c, 0, 43, 94
1, 24280, Note_on_c, 0, 31, 80
1, 24280, Control_c, 0, 64, 0
1, 24525, Control_c, 0, 64, 127
1, 24843, Note_on_c, 0, 58, 0
1, 24843, Note_on_c, 0, 67, 0
1, 24843, Note_on_c, 0, 62, 0
1, 24846, Note_on_c, 0, 31, 0
1, 24846, Note_on_c, 0, 43, 0
1, 25002, Control_c, 0, 64, 0
1, 25412, Note_on_c, 0, 53, 53
1, 25416, Note_on_c, 0, 34, 60
1, 25416, Note_on_c, 0, 46, 60
1, 25416, Control_c, 0, 64, 127
1, 25555, Note_on_c, 0, 50, 40
1, 25688, Note_on_c, 0, 55, 53
1, 25688, Note_on_c, 0, 53, 0
1, 25694, Note_on_c, 0, 50, 0
1, 25966, Note_on_c, 0, 55, 0
1, 25976, Note_on_c, 0, 57, 53
1, 25976, Control_c, 0, 64, 0
1, 26069, Control_c, 0, 64, 127
1, 26110, Note_on_c, 0, 50, 46
1, 26249, Note_on_c, 0, 58, 53
1, 26249, Note_on_c, 0, 50, 0
1, 26254, Note_on_c, 0, 57, 0
1, 26525, Note_on_c, 0, 58, 0
1, 26528, Control_c, 0, 64, 0
1, 26528, Note_on_c, 0, 60, 53
1, 26642, Control_c, 0, 64, 127
1, 26658, Note_on_c, 0, 50, 41
1, 26789, Note_on_c, 0, 62, 56
1, 26789, Note_on_c, 0, 50, 0
1, 26794, Note_on_c, 0, 60, 0
1, 27050, Note_on_c, 0, 62, 0
1, 27050, Note_on_c, 0, 46, 0
1, 27050, Note_on_c, 0, 34, 0
1, 27050, Note_on_c, 0, 48, 60
1, 27050, Note_on_c, 0, 32, 60
1, 27053, Note_on_c, 0, 63, 59
1, 27058, Control_c, 0, 64, 0
1, 27112, Control_c, 0, 64, 127
1, 27181, Note_on_c, 0, 50, 41
1, 27305, Note_on_c, 0, 65, 66
1, 27308, Note_on_c, 0, 50, 0
1, 27311, Note_on_c, 0, 63, 0
1, 27593, Note_on_c, 0, 65, 0
1, 27597, Note_on_c, 0, 32, 0
1, 27597, Note_on_c, 0, 48, 0
1, 27597, Note_on_c, 0, 47, 60
1, 27600, Note_on_c, 0, 31, 60
1, 27600, Control_c, 0, 64, 0
1, 27619, Note_on_c, 0, 67, 72
1, 27730, Note_on_c, 0, 50, 45
1, 27730, Control_c, 0, 64, 127
1, 27863, Note_on_c, 0, 65, 69
1, 27863, Note_on_c, 0, 50, 0
1, 28129, Note_on_c, 0, 65, 0
1, 28129, Note_on_c, 0, 63, 66
1, 28143, Control_c, 0, 64, 0
1, 28247, Control_c, 0, 64, 127
1, 28263, Note_on_c, 0, 50, 42
1, 28396, Note_on_c, 0, 63, 0
1, 28396, Note_on_c, 0, 62, 60
1, 28396, Note_on_c, 0, 50, 0
1, 28662, Note_on_c, 0, 62, 0
1, 28662, Note_on_c, 0, 67, 0
1, 28662, Note_on_c, 0, 67, 69
1, 28665, Note_on_c, 0, 60, 53
1, 28669, Control_c, 0, 64, 0
1, 28724, Control_c, 0, 64, 127
1, 28795, Note_on_c, 0, 50, 40
1, 28929, Note_on_c, 0, 50, 0
1, 28929, Note_on_c, 0, 60, 0
1, 28929, Note_on_c, 0, 59, 51
1, 29195, Note_on_c, 0, 67, 0
1, 29195, Note_on_c, 0, 59, 0
1, 29195, Note_on_c, 0, 31, 0
1, 29198, Note_on_c, 0, 47, 0
1, 29198, Note_on_c, 0, 57, 53
1, 29198, Note_on_c, 0, 69, 65
1, 29202, Control_c, 0, 64, 0
1, 29230, Control_c, 0, 64, 127
1, 29327, Note_on_c, 0, 50, 40
1, 29457, Note_on_c, 0, 71, 69
1, 29457, Note_on_c, 0, 50, 0
1, 29457, Note_on_c, 0, 57, 0
1, 29457, Note_on_c, 0, 55, 50
1, 29457, Note_on_c, 0, 69, 0
1, 29675, Note_on_c, 0, 63, 70
1, 29753, Note_on_c, 0, 71, 0
1, 29753, Note_on_c, 0, 55, 0
1, 29753, Note_on_c, 0, 48, 55
1, 29753, Control_c, 0, 64, 0
1, 29777, Note_on_c, 0, 75, 79
1, 29881, Control_c, 0, 64, 127
1, 29889, Note_on_c, 0, 36, 41
1, 30024, Note_on_c, 0, 36, 0
1, 30024, Note_on_c, 0, 48, 0
1, 30024, Note_on_c, 0, 50, 52
1, 30293, Note_on_c, 0, 50, 0
1, 30293, Note_on_c, 0, 51, 57
1, 30307, Control_c, 0, 64, 0
1, 30410, Control_c, 0, 64, 127
1, 30426, Note_on_c, 0, 48, 42
1, 30558, Note_on_c, 0, 48, 0
1, 30558, Note_on_c, 0, 51, 0
1, 30558, Note_on_c, 0, 53, 52
1, 30823, Note_on_c, 0, 53, 0
1, 30823, Note_on_c, 0, 55, 58
1, 30823, Control_c, 0, 64, 0
1, 30881, Control_c, 0, 64, 127
1, 30954, Note_on_c, 0, 48, 42
1, 31085, Note_on_c, 0, 75, 0
1, 31085, Note_on_c, 0, 63, 0
1, 31085, Note_on_c, 0, 74, 61
1, 31088, Note_on_c, 0, 48, 0
1, 31088, Note_on_c, 0, 55, 0
1, 31088, Note_on_c, 0, 57, 49
1, 31347, Note_on_c, 0, 57, 0
1, 31347, Note_on_c, 0, 59, 52
1, 31353, Control_c, 0, 64, 0
1, 31407, Control_c, 0, 64, 127
1, 31455, Note_on_c, 0, 74, 0
1, 31455, Note_on_c, 0, 72, 65
1, 31527, Note_on_c, 0, 59, 0
1, 31527, Note_on_c, 0, 60, 57
1, 31564, Note_on_c, 0, 72, 0
1, 31564, Note_on_c, 0, 70, 63
1, 31675, Note_on_c, 0, 70, 0
1, 31675, Note_on_c, 0, 69, 61
1, 31713, Note_on_c, 0, 60, 0
1, 31713, Note_on_c, 0, 62, 62
1, 31795, Note_on_c, 0, 69, 0
1, 31795, Note_on_c, 0, 67, 60
1, 31929, Note_on_c, 0, 67, 0
1, 31929, Note_on_c, 0, 65, 69
1, 31929, Note_on_c, 0, 62, 0
1, 31932, Note_on_c, 0, 57, 67
1, 31932, Note_on_c, 0, 41, 67
1, 31932, Control_c, 0, 64, 0
1, 31937, Note_on_c, 0, 63, 69
1, 32042, Control_c, 0, 64, 127
1, 32066, Note_on_c, 0, 53, 42
1, 32203, Note_on_c, 0, 53, 0
1, 32203, Note_on_c, 0, 62, 63
1, 32211, Note_on_c, 0, 63, 0
1, 32479, Note_on_c, 0, 62, 0
1, 32479, Note_on_c, 0, 60, 59
1, 32487, Control_c, 0, 64, 0
1, 32554, Control_c, 0, 64, 127
1, 32609, Note_on_c, 0, 53, 42
1, 32731, Note_on_c, 0, 58, 58
1, 32740, Note_on_c, 0, 53, 0
1, 32740, Note_on_c, 0, 60, 0
1, 32993, Note_on_c, 0, 58, 0
1, 33001, Note_on_c, 0, 57, 0
1, 33001, Note_on_c, 0, 57, 57
1, 33007, Control_c, 0, 64, 0
1, 33067, Control_c, 0, 64, 127
1, 33132, Note_on_c, 0, 53, 42
1, 33263, Note_on_c, 0, 53, 0
1, 33263, Note_on_c, 0, 57, 0
1, 33263, Note_on_c, 0, 55, 53
1, 33525, Note_on_c, 0, 55, 0
1, 33525, Note_on_c, 0, 53, 56
1, 33532, Control_c, 0, 64, 0
1, 33577, Control_c, 0, 64, 127
1, 33634, Note_on_c, 0, 65, 0
1, 33634, Note_on_c, 0, 67, 52
1, 33662, Note_on_c, 0, 53, 0
1, 33662, Note_on_c, 0, 51, 55
1, 33746, Note_on_c, 0, 67, 0
1, 33746, Note_on_c, 0, 69, 56
1, 33803, Note_on_c, 0, 51, 0
1, 33803, Note_on_c, 0, 50, 54
1, 33862, Note_on_c, 0, 69, 0
1, 33862, Note_on_c, 0, 70, 60
1, 33956, Note_on_c, 0, 50, 0
1, 33956, Note_on_c, 0, 48, 52
1, 33988, Note_on_c, 0, 70, 0
1, 33988, Note_on_c, 0, 72, 64
1, 34133, Note_on_c, 0, 72, 0
1, 34133, Note_on_c, 0, 74, 73
1, 34133, Note_on_c, 0, 48, 0
1, 34136, Note_on_c, 0, 41, 0
1, 34136, Note_on_c, 0, 34, 44
1, 34136, Note_on_c, 0, 46, 51
1, 34139, Control_c, 0, 64, 0
1, 34225, Control_c, 0, 64, 127
1, 34265, Note_on_c, 0, 62, 42
1, 34396, Note_on_c, 0, 62, 0
1, 34396, Note_on_c, 0, 74, 0
1, 34396, Note_on_c, 0, 72, 66
1, 34677, Note_on_c, 0, 72, 0
1, 34677, Note_on_c, 0, 70, 73
1, 34677, Note_on_c, 0, 46, 0
1, 34680, Note_on_c, 0, 34, 0
1, 34683, Note_on_c, 0, 79, 73
1, 34702, Control_c, 0, 64, 0
1, 34793, Control_c, 0, 64, 127
1, 34817, Note_on_c, 0, 58, 42
1, 34957, Note_on_c, 0, 58, 0
1, 34957, Note_on_c, 0, 70, 0
1, 34957, Note_on_c, 0, 69, 64
1, 35219, Note_on_c, 0, 69, 0
1, 35219, Note_on_c, 0, 67, 58
1, 35219, Control_c, 0, 64, 0
1, 35296, Control_c, 0, 64, 127
1, 35357, Note_on_c, 0, 58, 47
1, 35495, Note_on_c, 0, 67, 0
1, 35495, Note_on_c, 0, 65, 54
1, 35495, Note_on_c, 0, 77, 62
1, 35501, Note_on_c, 0, 79, 0
1, 35771, Note_on_c, 0, 77, 0
1, 35771, Note_on_c, 0, 65, 0
1, 35771, Note_on_c, 0, 64, 57
1, 35774, Note_on_c, 0, 76, 66
1, 35779, Control_c, 0, 64, 0
1, 35833, Control_c, 0, 64, 127
1, 35928, Note_on_c, 0, 76, 0
1, 35928, Note_on_c, 0, 77, 42
1, 35990, Note_on_c, 0, 77, 0
1, 35990, Note_on_c, 0, 76, 42
1, 36051, Note_on_c, 0, 76, 0
1, 36051, Note_on_c, 0, 64, 0
1, 36051, Note_on_c, 0, 62, 55
1, 36054, Note_on_c, 0, 74, 63
1, 36200, Note_on_c, 0, 62, 0
1, 36200, Note_on_c, 0, 72, 58
1, 36200, Note_on_c, 0, 60, 50
1, 36203, Note_on_c, 0, 74, 0
1, 36347, Note_on_c, 0, 72, 0
1, 36350, Note_on_c, 0, 58, 0
1, 36350, Note_on_c, 0, 72, 63
1, 36350, Note_on_c, 0, 45, 51
1, 36353, Control_c, 0, 64, 0
1, 36353, Note_on_c, 0, 60, 0
1, 36441, Control_c, 0, 64, 127
1, 36480, Note_on_c, 0, 60, 42
1, 36610, Note_on_c, 0, 60, 0
1, 36610, Note_on_c, 0, 72, 0
1, 36610, Note_on_c, 0, 70, 63
1, 36893, Note_on_c, 0, 70, 0
1, 36893, Note_on_c, 0, 69, 59
1, 36893, Note_on_c, 0, 45, 0
1, 36898, Note_on_c, 0, 77, 68
1, 36917, Control_c, 0, 64, 0
1, 37005, Control_c, 0, 64, 127
1, 37029, Note_on_c, 0, 57, 42
1, 37166, Note_on_c, 0, 57, 0
1, 37166, Note_on_c, 0, 69, 0
1, 37166, Note_on_c, 0, 67, 64
1, 37439, Note_on_c, 0, 67, 0
1, 37439, Note_on_c, 0, 65, 58
1, 37439, Control_c, 0, 64, 0
1, 37517, Control_c, 0, 64, 127
1, 37579, Note_on_c, 0, 57, 47
1, 37720, Note_on_c, 0, 65, 0
1, 37720, Note_on_c, 0, 76, 62
1, 37720, Note_on_c, 0, 64, 54
1, 37726, Note_on_c, 0, 77, 0
1, 38020, Note_on_c, 0, 64, 0
1, 38020, Note_on_c, 0, 76, 0
1, 38020, Note_on_c, 0, 62, 57
1, 38023, Note_on_c, 0, 74, 66
1, 38023, Note_on_c, 0, 56, 51
1, 38023, Note_on_c, 0, 47, 51
1, 38029, Control_c, 0, 64, 0
1, 38089, Control_c, 0, 64, 127
1, 38195, Note_on_c, 0, 74, 0
1, 38195, Note_on_c, 0, 76, 53
1, 38233, Note_on_c, 0, 76, 0
1, 38233, Note_on_c, 0, 74, 54
1, 38272, Note_on_c, 0, 74, 0
1, 38272, Note_on_c, 0, 73, 55
1, 38311, Note_on_c, 0, 73, 0
1, 38311, Note_on_c, 0, 74, 56
1, 38345, Note_on_c, 0, 76, 64
1, 38349, Note_on_c, 0, 74, 0
1, 38349, Note_on_c, 0, 62, 0
1, 38352, Note_on_c, 0, 64, 55
1, 38505, Note_on_c, 0, 76, 0
1, 38510, Note_on_c, 0, 65, 56
1, 38510, Note_on_c, 0, 64, 0
1, 38510, Note_on_c, 0, 77, 65
1, 38689, Note_on_c, 0, 77, 0
1, 38692, Note_on_c, 0, 57, 0
1, 38692, Note_on_c, 0, 77, 71
1, 38692, Note_on_c, 0, 47, 0
1, 38695, Note_on_c, 0, 56, 0
1, 38695, Note_on_c, 0, 60, 51
1, 38695, Note_on_c, 0, 57, 51
1, 38698, Note_on_c, 0, 48, 51
1, 38698, Control_c, 0, 64, 0
1, 38698, Note_on_c, 0, 65, 0
1, 38818, Control_c, 0, 64, 127
1, 38856, Note_on_c, 0, 65, 47
1, 39021, Note_on_c, 0, 65, 0
1, 39021, Note_on_c, 0, 77, 0
1, 39021, Note_on_c, 0, 76, 63
1, 39336, Note_on_c, 0, 76, 0
1, 39336, Note_on_c, 0, 74, 68
1, 39336, Control_c, 0, 64, 0
1, 39429, Control_c, 0, 64, 127
1, 39481, Note_on_c, 0, 65, 40
1, 39626, Note_on_c, 0, 65, 0
1, 39787, Note_on_c, 0, 74, 0
1, 39787, Note_on_c, 0, 72, 62
1, 39948, Note_on_c, 0, 72, 0
1, 39948, Note_on_c, 0, 72, 68
1, 39948, Note_on_c, 0, 48, 0
1, 39951, Note_on_c, 0, 57, 0
1, 39951, Note_on_c, 0, 60, 0
1, 39951, Note_on_c, 0, 58, 51
1, 39954, Note_on_c, 0, 64, 51
1, 39954, Note_on_c, 0, 48, 51
1, 39954, Control_c, 0, 64, 0
1, 40066, Control_c, 0, 64, 127
1, 40102, Note_on_c, 0, 60, 47
1, 40257, Note_on_c, 0, 60, 0
1, 40257, Note_on_c, 0, 72, 0
1, 40257, Note_on_c, 0, 70, 63
1, 40565, Note_on_c, 0, 70, 0
1, 40565, Note_on_c, 0, 69, 68
1, 40565, Control_c, 0, 64, 0
1, 40664, Control_c, 0, 64, 127
1, 40719, Note_on_c, 0, 60, 41
1, 40874, Note_on_c, 0, 60, 0
1, 41033, Note_on_c, 0, 69, 0
1, 41033, Note_on_c, 0, 67, 62
1, 41193, Note_on_c, 0, 67, 0
1, 41193, Note_on_c, 0, 67, 53
1, 41193, Note_on_c, 0, 48, 0
1, 41196, Note_on_c, 0, 64, 0
1, 41196, Note_on_c, 0, 58, 0
1, 41196, Note_on_c, 0, 53, 53
1, 41199, Control_c, 0, 64, 0
1, 41199, Note_on_c, 0, 60, 53
1, 41329, Control_c, 0, 64, 127
1, 41347, Note_on_c, 0, 58, 47
1, 41501, Note_on_c, 0, 52, 53
1, 41501, Note_on_c, 0, 53, 0
1, 41807, Note_on_c, 0, 50, 53
1, 41810, Note_on_c, 0, 52, 0
1, 41824, Control_c, 0, 64, 0
1, 41964, Note_on_c, 0, 58, 0
1, 41964, Note_on_c, 0, 58, 47
1, 41982, Control_c, 0, 64, 127
1, 42116, Note_on_c, 0, 50, 0
1, 42116, Note_on_c, 0, 48, 53
1, 42426, Note_on_c, 0, 48, 0
1, 42426, Note_on_c, 0, 58, 0
1, 42426, Note_on_c, 0, 67, 0
1, 42426, Note_on_c, 0, 65, 53
1, 42426, Control_c, 0, 64, 0
1, 42436, Note_on_c, 0, 53, 53
1, 42547, Control_c, 0, 64, 127
1, 42584, Note_on_c, 0, 57, 41
1, 42744, Note_on_c, 0, 65, 0
1, 42744, Note_on_c, 0, 63, 53
1, 43077, Note_on_c, 0, 63, 0
1, 43077, Note_on_c, 0, 57, 0
1, 43077, Note_on_c, 0, 62, 57
1, 43080, Note_on_c, 0, 41, 53
1, 43080, Note_on_c, 0, 60, 0
1, 43157, Control_c, 0, 64, 0
1, 43251, Note_on_c, 0, 51, 41
1, 43323, Control_c, 0, 64, 127
1, 43428, Note_on_c, 0, 62, 0
1, 43428, Note_on_c, 0, 61, 50
1, 43792, Note_on_c, 0, 53, 53
1, 43799, Note_on_c, 0, 51, 0
1, 43799, Note_on_c, 0, 41, 0
1, 43799, Note_on_c, 0, 46, 60
1, 43802, Note_on_c, 0, 34, 60
1, 43802, Note_on_c, 0, 53, 0
1, 43806, Control_c, 0, 64, 0
1, 43897, Control_c, 0, 64, 127
1, 43938, Note_on_c, 0, 50, 40
1, 44069, Note_on_c, 0, 55, 53
1, 44072, Note_on_c, 0, 53, 0
1, 44077, Note_on_c, 0, 61, 0
1, 44077, Note_on_c, 0, 62, 53
1, 44077, Note_on_c, 0, 50, 0
1, 44347, Note_on_c, 0, 55, 0
1, 44355, Note_on_c, 0, 62, 0
1, 44361, Note_on_c, 0, 57, 53
1, 44361, Control_c, 0, 64, 0
1, 44450, Control_c, 0, 64, 127
1, 44490, Note_on_c, 0, 50, 46
1, 44625, Note_on_c, 0, 50, 0
1, 44630, Note_on_c, 0, 57, 0
1, 44630, Note_on_c, 0, 58, 53
1, 44892, Note_on_c, 0, 60, 53
1, 44898, Control_c, 0, 64, 0
1, 44898, Note_on_c, 0, 58, 0
1, 45013, Control_c, 0, 64, 127
1, 45028, Note_on_c, 0, 50, 41
1, 45155, Note_on_c, 0, 62, 56
1, 45158, Note_on_c, 0, 60, 0
1, 45161, Note_on_c, 0, 50, 0
1, 45417, Note_on_c, 0, 62, 0
1, 45422, Note_on_c, 0, 46, 0
1, 45422, Note_on_c, 0, 34, 0
1, 45422, Note_on_c, 0, 48, 60
1, 45425, Note_on_c, 0, 32, 60
1, 45429, Note_on_c, 0, 63, 59
1, 45429, Control_c, 0, 64, 0
1, 45483, Control_c, 0, 64, 127
1, 45551, Note_on_c, 0, 50, 41
1, 45679, Note_on_c, 0, 50, 0
1, 45685, Note_on_c, 0, 65, 66
1, 45685, Note_on_c, 0, 63, 0
1, 45967, Note_on_c, 0, 32, 0
1, 45967, Note_on_c, 0, 48, 0
1, 45967, Note_on_c, 0, 31, 60
1, 45970, Note_on_c, 0, 47, 60
1, 45970, Control_c, 0, 64, 0
1, 45973, Note_on_c, 0, 65, 0
1, 45973, Note_on_c, 0, 67, 72
1, 46101, Note_on_c, 0, 50, 45
1, 46101, Control_c, 0, 64, 127
1, 46234, Note_on_c, 0, 65, 69
1, 46234, Note_on_c, 0, 50, 0
1, 46500, Note_on_c, 0, 65, 0
1, 46500, Note_on_c, 0, 63, 66
1, 46513, Control_c, 0, 64, 0
1, 46618, Control_c, 0, 64, 127
1, 46633, Note_on_c, 0, 50, 42
1, 46767, Note_on_c, 0, 63, 0
1, 46767, Note_on_c, 0, 62, 60
1, 46767, Note_on_c, 0, 50, 0
1, 47032, Note_on_c, 0, 67, 0
1, 47032, Note_on_c, 0, 62, 0
1, 47032, Note_on_c, 0, 67, 69
1, 47032, Note_on_c, 0, 60, 53
1, 47040, Control_c, 0, 64, 0
1, 47095, Control_c, 0, 64, 127
1, 47166, Note_on_c, 0, 50, 40
1, 47299, Note_on_c, 0, 50, 0
1, 47299, Note_on_c, 0, 60, 0
1, 47299, Note_on_c, 0, 59, 51
1, 47566, Note_on_c, 0, 67, 0
1, 47566, Note_on_c, 0, 59, 0
1, 47566, Note_on_c, 0, 47, 0
1, 47569, Note_on_c, 0, 31, 0
1, 47569, Note_on_c, 0, 57, 53
1, 47569, Note_on_c, 0, 69, 65
1, 47572, Control_c, 0, 64, 0
1, 47601, Control_c, 0, 64, 127
1, 47697, Note_on_c, 0, 50, 40
1, 47829, Note_on_c, 0, 50, 0
1, 47829, Note_on_c, 0, 57, 0
1, 47829, Note_on_c, 0, 55, 50
1, 47833, Note_on_c, 0, 71, 69
1, 47833, Note_on_c, 0, 69, 0
1, 48046, Note_on_c, 0, 63, 70
1, 48125, Note_on_c, 0, 55, 0
1, 48125, Note_on_c, 0, 48, 55
1, 48125, Control_c, 0, 64, 0
1, 48128, Note_on_c, 0, 71, 0
1, 48131, Note_on_c, 0, 75, 79
1, 48252, Control_c, 0, 64, 127
1, 48260, Note_on_c, 0, 36, 41
1, 48395, Note_on_c, 0, 36, 0
1, 48395, Note_on_c, 0, 48, 0
1, 48395, Note_on_c, 0, 50, 52
1, 48664, Note_on_c, 0, 50, 0
1, 48664, Note_on_c, 0, 51, 57
1, 48677, Control_c, 0, 64, 0
1, 48781, Control_c, 0, 64, 127
1, 48797, Note_on_c, 0, 48, 42
1, 48929, Note_on_c, 0, 48, 0
1, 48929, Note_on_c, 0, 51, 0
1, 48929, Note_on_c, 0, 53, 52
1, 49194, Note_on_c, 0, 53, 0
1, 49194, Note_on_c, 0, 55, 58
1, 49194, Control_c, 0, 64, 0
1, 49252, Control_c, 0, 64, 127
1, 49325, Note_on_c, 0, 48, 42
1, 49456, Note_on_c, 0, 75, 0
1, 49456, Note_on_c, 0, 63, 0
1, 49456, Note_on_c, 0, 74, 61
1, 49459, Note_on_c, 0, 48, 0
1, 49459, Note_on_c, 0, 55, 0
1, 49459, Note_on_c, 0, 57, 49
1, 49717, Note_on_c, 0, 57, 0
1, 49717, Note_on_c, 0, 59, 52
1, 49724, Control_c, 0, 64, 0
1, 49777, Control_c, 0, 64, 127
1, 49826, Note_on_c, 0, 74, 0
1, 49826, Note_on_c, 0, 72, 65
1, 49898, Note_on_c, 0, 59, 0
1, 49898, Note_on_c, 0, 60, 57
1, 49934, Note_on_c, 0, 72, 0
1, 49934, Note_on_c, 0, 70, 63
1, 50046, Note_on_c, 0, 70, 0
1, 50046, Note_on_c, 0, 69, 61
1, 50084, Note_on_c, 0, 60, 0
1, 50084, Note_on_c, 0, 62, 62
1, 50166, Note_on_c, 0, 69, 0
1, 50166, Note_on_c, 0, 67, 60
1, 50291, Note_on_c, 0, 63, 69
1, 50300, Note_on_c, 0, 67, 0
1, 50300, Note_on_c, 0, 65, 69
1, 50300, Note_on_c, 0, 62, 0
1, 50303, Note_on_c, 0, 41, 67
1, 50303, Note_on_c, 0, 57, 67
1, 50303, Control_c, 0, 64, 0
1, 50413, Control_c, 0, 64, 127
1, 50437, Note_on_c, 0, 53, 42
1, 50566, Note_on_c, 0, 63, 0
1, 50571, Note_on_c, 0, 62, 63
1, 50574, Note_on_c, 0, 53, 0
1, 50845, Note_on_c, 0, 62, 0
1, 50854, Note_on_c, 0, 60, 59
1, 50857, Control_c, 0, 64, 0
1, 50925, Control_c, 0, 64, 127
1, 50980, Note_on_c, 0, 53, 42
1, 51103, Note_on_c, 0, 58, 58
1, 51110, Note_on_c, 0, 53, 0
1, 51116, Note_on_c, 0, 60, 0
1, 51365, Note_on_c, 0, 58, 0
1, 51369, Note_on_c, 0, 57, 0
1, 51369, Note_on_c, 0, 57, 57
1, 51378, Control_c, 0, 64, 0
1, 51438, Control_c, 0, 64, 127
1, 51503, Note_on_c, 0, 53, 42
1, 51632, Note_on_c, 0, 55, 53
1, 51632, Note_on_c, 0, 57, 0
1, 51632, Note_on_c, 0, 53, 0
1, 51894, Note_on_c, 0, 55, 0
1, 51894, Note_on_c, 0, 53, 56
1, 51903, Control_c, 0, 64, 0
1, 51948, Control_c, 0, 64, 127
1, 52005, Note_on_c, 0, 65, 0
1, 52005, Note_on_c, 0, 67, 52
1, 52033, Note_on_c, 0, 53, 0
1, 52033, Note_on_c, 0, 51, 55
1, 52117, Note_on_c, 0, 67, 0
1, 52117, Note_on_c, 0, 69, 56
1, 52174, Note_on_c, 0, 51, 0
1, 52174, Note_on_c, 0, 50, 54
1, 52233, Note_on_c, 0, 69, 0
1, 52233, Note_on_c, 0, 70, 60
1, 52327, Note_on_c, 0, 50, 0
1, 52327, Note_on_c, 0, 48, 52
1, 52359, Note_on_c, 0, 70, 0
1, 52359, Note_on_c, 0, 72, 64
1, 52504, Note_on_c, 0, 72, 0
1, 52504, Note_on_c, 0, 74, 73
1, 52504, Note_on_c, 0, 48, 0
1, 52507, Note_on_c, 0, 41, 0
1, 52507, Note_on_c, 0, 46, 51
1, 52507, Note_on_c, 0, 34, 44
1, 52510, Control_c, 0, 64, 0
1, 52596, Control_c, 0, 64, 127
1, 52635, Note_on_c, 0, 62, 42
1, 52767, Note_on_c, 0, 62, 0
1, 52767, Note_on_c, 0, 74, 0
1, 52767, Note_on_c, 0, 72, 66
1, 53048, Note_on_c, 0, 72, 0
1, 53048, Note_on_c, 0, 70, 73
1, 53048, Note_on_c, 0, 34, 0
1, 53051, Note_on_c, 0, 46, 0
1, 53054, Note_on_c, 0, 79, 73
1, 53073, Control_c, 0, 64, 0
1, 53163, Control_c, 0, 64, 127
1, 53188, Note_on_c, 0, 58, 42
1, 53328, Note_on_c, 0, 58, 0
1, 53328, Note_on_c, 0, 70, 0
1, 53328, Note_on_c, 0, 69, 64
1, 53590, Note_on_c, 0, 69, 0
1, 53590, Note_on_c, 0, 67, 58
1, 53590, Control_c, 0, 64, 0
1, 53667, Control_c, 0, 64, 127
1, 53728, Note_on_c, 0, 58, 47
1, 53866, Note_on_c, 0, 67, 0
1, 53866, Note_on_c, 0, 65, 54
1, 53866, Note_on_c, 0, 79, 0
1, 53870, Note_on_c, 0, 77, 62
1, 54142, Note_on_c, 0, 65, 0
1, 54142, Note_on_c, 0, 64, 57
1, 54142, Note_on_c, 0, 76, 66
1, 54147, Note_on_c, 0, 77, 0
1, 54150, Control_c, 0, 64, 0
1, 54203, Control_c, 0, 64, 127
1, 54298, Note_on_c, 0, 76, 0
1, 54298, Note_on_c, 0, 77, 42
1, 54360, Note_on_c, 0, 77, 0
1, 54360, Note_on_c, 0, 76, 42
1, 54418, Note_on_c, 0, 74, 63
1, 54422, Note_on_c, 0, 76, 0
1, 54422, Note_on_c, 0, 64, 0
1, 54422, Note_on_c, 0, 62, 55
1, 54566, Note_on_c, 0, 74, 0
1, 54571, Note_on_c, 0, 62, 0
1, 54571, Note_on_c, 0, 60, 50
1, 54580, Note_on_c, 0, 72, 58
1, 54719, Note_on_c, 0, 72, 0
1, 54719, Note_on_c, 0, 58, 0
1, 54719, Note_on_c, 0, 72, 63
1, 54719, Note_on_c, 0, 45, 51
1, 54719, Control_c, 0, 64, 0
1, 54719, Note_on_c, 0, 60, 0
1, 54811, Control_c, 0, 64, 127
1, 54850, Note_on_c, 0, 60, 42
1, 54981, Note_on_c, 0, 60, 0
1, 54981, Note_on_c, 0, 72, 0
1, 54981, Note_on_c, 0, 70, 63
1, 55264, Note_on_c, 0, 70, 0
1, 55264, Note_on_c, 0, 69, 59
1, 55264, Note_on_c, 0, 45, 0
1, 55268, Note_on_c, 0, 77, 68
1, 55287, Control_c, 0, 64, 0
1, 55376, Control_c, 0, 64, 127
1, 55400, Note_on_c, 0, 57, 42
1, 55536, Note_on_c, 0, 57, 0
1, 55536, Note_on_c, 0, 69, 0
1, 55536, Note_on_c, 0, 67, 64
1, 55809, Note_on_c, 0, 67, 0
1, 55809, Note_on_c, 0, 65, 58
1, 55809, Control_c, 0, 64, 0
1, 55888, Control_c, 0, 64, 127
1, 55950, Note_on_c, 0, 57, 47
1, 56091, Note_on_c, 0, 65, 0
1, 56091, Note_on_c, 0, 77, 0
1, 56091, Note_on_c, 0, 64, 54
1, 56094, Note_on_c, 0, 76, 62
1, 56391, Note_on_c, 0, 76, 0
1, 56391, Note_on_c, 0, 64, 0
1, 56391, Note_on_c, 0, 74, 66
1, 56394, Note_on_c, 0, 62, 57
1, 56394, Note_on_c, 0, 47, 51
1, 56394, Note_on_c, 0, 56, 51
1, 56400, Control_c, 0, 64, 0
1, 56459, Control_c, 0, 64, 127
1, 56566, Note_on_c, 0, 74, 0
1, 56566, Note_on_c, 0, 76, 53
1, 56604, Note_on_c, 0, 76, 0
1, 56604, Note_on_c, 0, 74, 54
1, 56643, Note_on_c, 0, 74, 0
1, 56643, Note_on_c, 0, 73, 55
1, 56681, Note_on_c, 0, 73, 0
1, 56681, Note_on_c, 0, 74, 56
1, 56713, Note_on_c, 0, 76, 64
1, 56720, Note_on_c, 0, 74, 0
1, 56720, Note_on_c, 0, 62, 0
1, 56720, Note_on_c, 0, 64, 55
1, 56873, Note_on_c, 0, 76, 0
1, 56877, Note_on_c, 0, 77, 65
1, 56881, Note_on_c, 0, 64, 0
1, 56886, Note_on_c, 0, 65, 56
1, 57060, Note_on_c, 0, 77, 0
1, 57063, Note_on_c, 0, 57, 0
1, 57063, Note_on_c, 0, 77, 71
1, 57063, Note_on_c, 0, 56, 0
1, 57066, Note_on_c, 0, 47, 0
1, 57066, Note_on_c, 0, 57, 51
1, 57066, Note_on_c, 0, 48, 51
1, 57069, Note_on_c, 0, 60, 51
1, 57069, Control_c, 0, 64, 0
1, 57069, Note_on_c, 0, 65, 0
1, 57189, Control_c, 0, 64, 127
1, 57227, Note_on_c, 0, 65, 47
1, 57392, Note_on_c, 0, 65, 0
1, 57392, Note_on_c, 0, 77, 0
1, 57392, Note_on_c, 0, 76, 63
1, 57707, Note_on_c, 0, 76, 0
1, 57707, Note_on_c, 0, 74, 68
1, 57707, Control_c, 0, 64, 0
1, 57800, Control_c, 0, 64, 127
1, 57852, Note_on_c, 0, 65, 40
1, 57997, Note_on_c, 0, 65, 0
1, 58158, Note_on_c, 0, 74, 0
1, 58158, Note_on_c, 0, 72, 62
1, 58319, Note_on_c, 0, 72, 0
1, 58319, Note_on_c, 0, 72, 68
1, 58319, Note_on_c, 0, 60, 0
1, 58322, Note_on_c, 0, 48, 0
1, 58322, Note_on_c, 0, 57, 0
1, 58322, Note_on_c, 0, 64, 51
1, 58325, Note_on_c, 0, 58, 51
1, 58325, Note_on_c, 0, 48, 51
1, 58325, Control_c, 0, 64, 0
1, 58437, Control_c, 0, 64, 127
1, 58473, Note_on_c, 0, 60, 47
1, 58627, Note_on_c, 0, 60, 0
1, 58627, Note_on_c, 0, 72, 0
1, 58627, Note_on_c, 0, 70, 63
1, 58936, Note_on_c, 0, 70, 0
1, 58936, Note_on_c, 0, 69, 68
1, 58936, Control_c, 0, 64, 0
1, 59035, Control_c, 0, 64, 127
1, 59090, Note_on_c, 0, 60, 41
1, 59244, Note_on_c, 0, 60, 0
1, 59404, Note_on_c, 0, 69, 0
1, 59404, Note_on_c, 0, 67, 62
1, 59562, Note_on_c, 0, 53, 53
1, 59562, Note_on_c, 0, 67, 0
1, 59562, Note_on_c, 0, 67, 53
1, 59562, Note_on_c, 0, 48, 0
1, 59562, Note_on_c, 0, 64, 0
1, 59562, Note_on_c, 0, 58, 0
1, 59562, Note_on_c, 0, 60, 53
1, 59562, Control_c, 0, 64, 0
1, 59700, Control_c, 0, 64, 127
1, 59718, Note_on_c, 0, 58, 47
1, 59871, Note_on_c, 0, 53, 0
1, 59881, Note_on_c, 0, 52, 53
1, 60174, Note_on_c, 0, 50, 53
1, 60190, Note_on_c, 0, 52, 0
1, 60196, Control_c, 0, 64, 0
1, 60343, Note_on_c, 0, 58, 0
1, 60343, Note_on_c, 0, 58, 47
1, 60362, Control_c, 0, 64, 127
1, 60498, Note_on_c, 0, 50, 0
1, 60503, Note_on_c, 0, 48, 53
1, 60860, Note_on_c, 0, 48, 0
1, 60860, Note_on_c, 0, 58, 0
1, 60860, Note_on_c, 0, 67, 0
1, 60860, Note_on_c, 0, 65, 53
1, 60860, Control_c, 0, 64, 0
1, 60870, Note_on_c, 0, 53, 53
1, 61005, Control_c, 0, 64, 127
1, 61048, Note_on_c, 0, 57, 41
1, 61606, Note_on_c, 0, 57, 0
1, 61606, Note_on_c, 0, 65, 0
1, 61606, Note_on_c, 0, 60, 0
1, 61614, Note_on_c, 0, 53, 0
1, 61693, Control_c, 0, 64, 0
1, 62258, Note_on_c, 0, 41, 60
1, 62342, Note_on_c, 0, 65, 53
1, 62352, Note_on_c, 0, 57, 60
1, 62352, Control_c, 0, 64, 127
1, 62484, Note_on_c, 0, 63, 40
1, 62610, Note_on_c, 0, 65, 0
1, 62610, Note_on_c, 0, 67, 53
1, 62616, Note_on_c, 0, 63, 0
1, 62873, Note_on_c, 0, 69, 53
1, 62876, Note_on_c, 0, 67, 0
1, 62887, Control_c, 0, 64, 0
1, 62974, Control_c, 0, 64, 127
1, 63013, Note_on_c, 0, 63, 46
1, 63138, Note_on_c, 0, 69, 0
1, 63146, Note_on_c, 0, 63, 0
1, 63150, Note_on_c, 0, 70, 53
1, 63410, Note_on_c, 0, 72, 53
1, 63413, Control_c, 0, 64, 0
1, 63413, Note_on_c, 0, 70, 0
1, 63528, Control_c, 0, 64, 127
1, 63543, Note_on_c, 0, 63, 41
1, 63673, Note_on_c, 0, 74, 56
1, 63673, Note_on_c, 0, 63, 0
1, 63673, Note_on_c, 0, 72, 0
1, 63934, Note_on_c, 0, 74, 0
1, 63937, Note_on_c, 0, 75, 59
1, 63943, Control_c, 0, 64, 0
1, 63997, Control_c, 0, 64, 127
1, 64066, Note_on_c, 0, 63, 41
1, 64190, Note_on_c, 0, 77, 66
1, 64194, Note_on_c, 0, 63, 0
1, 64194, Note_on_c, 0, 75, 0
1, 64411, Note_on_c, 0, 39, 60
1, 64479, Note_on_c, 0, 77, 0
1, 64484, Note_on_c, 0, 57, 0
1, 64484, Note_on_c, 0, 41, 0
1, 64484, Note_on_c, 0, 58, 60
1, 64487, Control_c, 0, 64, 0
1, 64495, Note_on_c, 0, 78, 72
1, 64615, Note_on_c, 0, 63, 45
1, 64615, Control_c, 0, 64, 127
1, 64746, Note_on_c, 0, 63, 0
1, 64746, Note_on_c, 0, 77, 69
1, 64757, Note_on_c, 0, 78, 0
1, 65002, Note_on_c, 0, 75, 66
1, 65010, Note_on_c, 0, 77, 0
1, 65020, Control_c, 0, 64, 0
1, 65123, Control_c, 0, 64, 127
1, 65138, Note_on_c, 0, 63, 42
1, 65264, Note_on_c, 0, 75, 0
1, 65264, Note_on_c, 0, 73, 60
1, 65269, Note_on_c, 0, 63, 0
1, 65527, Note_on_c, 0, 73, 0
1, 65531, Note_on_c, 0, 58, 0
1, 65531, Note_on_c, 0, 48, 60
1, 65531, Note_on_c, 0, 72, 53
1, 65537, Control_c, 0, 64, 0
1, 65593, Control_c, 0, 64, 127
1, 65664, Note_on_c, 0, 63, 40
1, 65797, Note_on_c, 0, 63, 0
1, 65797, Note_on_c, 0, 72, 0
1, 65800, Note_on_c, 0, 70, 51
1, 66067, Note_on_c, 0, 69, 53
1, 66067, Note_on_c, 0, 70, 0
1, 66070, Control_c, 0, 64, 0
1, 66099, Control_c, 0, 64, 127
1, 66195, Note_on_c, 0, 63, 40
1, 66327, Note_on_c, 0, 63, 0
1, 66330, Note_on_c, 0, 69, 0
1, 66335, Note_on_c, 0, 70, 50
1, 66623, Note_on_c, 0, 65, 46
1, 66623, Note_on_c, 0, 39, 0
1, 66623, Note_on_c, 0, 41, 52
1, 66630, Note_on_c, 0, 69, 46
1, 66630, Note_on_c, 0, 70, 0
1, 66633, Control_c, 0, 64, 0
1, 66700, Control_c, 0, 64, 127
1, 66755, Note_on_c, 0, 63, 35
1, 66887, Note_on_c, 0, 63, 0
1, 66887, Note_on_c, 0, 65, 0
1, 66890, Note_on_c, 0, 67, 46
1, 66895, Note_on_c, 0, 69, 0
1, 67143, Note_on_c, 0, 69, 46
1, 67154, Note_on_c, 0, 67, 0
1, 67158, Control_c, 0, 64, 0
1, 67245, Control_c, 0, 64, 127
1, 67284, Note_on_c, 0, 63, 40
1, 67408, Note_on_c, 0, 69, 0
1, 67416, Note_on_c, 0, 70, 46
1, 67416, Note_on_c, 0, 63, 0
1, 67678, Note_on_c, 0, 72, 46
1, 67678, Note_on_c, 0, 70, 0
1, 67684, Control_c, 0, 64, 0
1, 67799, Control_c, 0, 64, 127
1, 67814, Note_on_c, 0, 63, 36
1, 67937, Note_on_c, 0, 73, 49
1, 67943, Note_on_c, 0, 72, 0
1, 67946, Note_on_c, 0, 63, 0
1, 67946, Note_on_c, 0, 41, 0
1, 67946, Note_on_c, 0, 48, 0
1, 68199, Note_on_c, 0, 73, 0
1, 68209, Note_on_c, 0, 75, 51
1, 68214, Control_c, 0, 64, 0
1, 68268, Control_c, 0, 64, 127
1, 68337, Note_on_c, 0, 63, 36
1, 68461, Note_on_c, 0, 77, 57
1, 68465, Note_on_c, 0, 63, 0
1, 68465, Note_on_c, 0, 75, 0
1, 68683, Note_on_c, 0, 39, 52
1, 68750, Note_on_c, 0, 77, 0
1, 68755, Note_on_c, 0, 58, 52
1, 68755, Control_c, 0, 64, 0
1, 68766, Note_on_c, 0, 78, 62
1, 68886, Note_on_c, 0, 63, 39
1, 68886, Control_c, 0, 64, 127
1, 69017, Note_on_c, 0, 63, 0
1, 69017, Note_on_c, 0, 77, 60
1, 69028, Note_on_c, 0, 78, 0
1, 69278, Note_on_c, 0, 77, 0
1, 69278, Note_on_c, 0, 75, 57
1, 69291, Control_c, 0, 64, 0
1, 69394, Control_c, 0, 64, 127
1, 69409, Note_on_c, 0, 63, 37
1, 69540, Note_on_c, 0, 63, 0
1, 69671, Note_on_c, 0, 75, 0
1, 69671, Note_on_c, 0, 73, 52
1, 69802, Note_on_c, 0, 73, 0
1, 69802, Note_on_c, 0, 58, 0
1, 69802, Note_on_c, 0, 39, 0
1, 69805, Note_on_c, 0, 42, 52
1, 69808, Control_c, 0, 64, 0
1, 69813, Note_on_c, 0, 73, 46
1, 69864, Control_c, 0, 64, 127
1, 69935, Note_on_c, 0, 63, 35
1, 70068, Note_on_c, 0, 63, 0
1, 70068, Note_on_c, 0, 72, 44
1, 70076, Note_on_c, 0, 73, 0
1, 70334, Note_on_c, 0, 72, 0
1, 70334, Note_on_c, 0, 70, 46
1, 70341, Control_c, 0, 64, 0
1, 70370, Control_c, 0, 64, 127
1, 70400, Note_on_c, 0, 70, 0
1, 70400, Note_on_c, 0, 72, 46
1, 70466, Note_on_c, 0, 72, 0
1, 70466, Note_on_c, 0, 70, 46
1, 70466, Note_on_c, 0, 60, 35
1, 70598, Note_on_c, 0, 60, 0
1, 70598, Note_on_c, 0, 44, 44
1, 70735, Note_on_c, 0, 70, 0
1, 70735, Note_on_c, 0, 68, 44
1, 70894, Note_on_c, 0, 68, 0
1, 70894, Note_on_c, 0, 44, 0
1, 70894, Note_on_c, 0, 42, 0
1, 70897, Note_on_c, 0, 49, 44
1, 70897, Note_on_c, 0, 41, 44
1, 70905, Note_on_c, 0, 73, 46
1, 70944, Control_c, 0, 64, 0
1, 71029, Note_on_c, 0, 61, 46
1, 71037, Control_c, 0, 64, 127
1, 71162, Note_on_c, 0, 51, 39
1, 71162, Note_on_c, 0, 49, 0
1, 71424, Note_on_c, 0, 53, 44
1, 71430, Note_on_c, 0, 51, 0
1, 71430, Note_on_c, 0, 41, 0
1, 71438, Control_c, 0, 64, 0
1, 71565, Note_on_c, 0, 61, 0
1, 71565, Note_on_c, 0, 61, 46
1, 71565, Control_c, 0, 64, 127
1, 71693, Note_on_c, 0, 54, 44
1, 71956, Note_on_c, 0, 54, 0
1, 71956, Note_on_c, 0, 56, 46
1, 71968, Control_c, 0, 64, 0
1, 72027, Control_c, 0, 64, 127
1, 72089, Note_on_c, 0, 61, 0
1, 72089, Note_on_c, 0, 61, 46
1, 72216, Note_on_c, 0, 56, 0
1, 72216, Note_on_c, 0, 58, 46
1, 72478, Note_on_c, 0, 58, 0
1, 72478, Note_on_c, 0, 73, 0
1, 72484, Note_on_c, 0, 60, 48
1, 72492, Control_c, 0, 64, 0
1, 72553, Control_c, 0, 64, 127
1, 72609, Note_on_c, 0, 61, 0
1, 72609, Note_on_c, 0, 61, 46
1, 72739, Note_on_c, 0, 61, 0
1, 72739, Note_on_c, 0, 61, 48
1, 72744, Note_on_c, 0, 60, 0
1, 73052, Control_c, 0, 64, 0
1, 73058, Note_on_c, 0, 62, 50
1, 73140, Control_c, 0, 64, 127
1, 73178, Note_on_c, 0, 61, 0
1, 73178, Note_on_c, 0, 61, 46
1, 73310, Note_on_c, 0, 59, 49
1, 73321, Note_on_c, 0, 62, 0
1, 73573, Note_on_c, 0, 59, 0
1, 73573, Note_on_c, 0, 56, 48
1, 73705, Note_on_c, 0, 61, 0
1, 73705, Note_on_c, 0, 61, 46
1, 73836, Note_on_c, 0, 56, 0
1, 73836, Note_on_c, 0, 53, 47
1, 74092, Note_on_c, 0, 53, 0
1, 74099, Note_on_c, 0, 53, 0
1, 74099, Note_on_c, 0, 49, 46
1, 74106, Control_c, 0, 64, 0
1, 74206, Control_c, 0, 64, 127
1, 74232, Note_on_c, 0, 61, 0
1, 74232, Note_on_c, 0, 61, 46
1, 74364, Note_on_c, 0, 47, 45
1, 74632, Note_on_c, 0, 47, 0
1, 74632, Note_on_c, 0, 44, 44
1, 74767, Note_on_c, 0, 61, 0
1, 74767, Note_on_c, 0, 61, 46
1, 74903, Note_on_c, 0, 44, 0
1, 74903, Note_on_c, 0, 41, 43
1, 75040, Note_on_c, 0, 61, 0
1, 75040, Note_on_c, 0, 61, 46
1, 75177, Note_on_c, 0, 41, 0
1, 75177, Note_on_c, 0, 42, 46
1, 75185, Control_c, 0, 64, 0
1, 75313, Note_on_c, 0, 58, 40
1, 75329, Control_c, 0, 64, 127
1, 75448, Note_on_c, 0, 58, 0
1, 75448, Note_on_c, 0, 61, 0
1, 75448, Note_on_c, 0, 63, 39
1, 75716, Note_on_c, 0, 63, 0
1, 75716, Note_on_c, 0, 65, 47
1, 75729, Control_c, 0, 64, 0
1, 75809, Control_c, 0, 64, 127
1, 75848, Note_on_c, 0, 58, 40
1, 75980, Note_on_c, 0, 58, 0
1, 75980, Note_on_c, 0, 65, 0
1, 75980, Note_on_c, 0, 66, 49
1, 76243, Note_on_c, 0, 66, 0
1, 76243, Note_on_c, 0, 68, 51
1, 76250, Control_c, 0, 64, 0
1, 76342, Control_c, 0, 64, 127
1, 76373, Note_on_c, 0, 58, 46
1, 76503, Note_on_c, 0, 58, 0
1, 76503, Note_on_c, 0, 68, 0
1, 76503, Note_on_c, 0, 70, 53
1, 76763, Note_on_c, 0, 70, 0
1, 76763, Note_on_c, 0, 71, 54
1, 76770, Control_c, 0, 64, 0
1, 76839, Control_c, 0, 64, 127
1, 76893, Note_on_c, 0, 58, 40
1, 77023, Note_on_c, 0, 58, 0
1, 77023, Note_on_c, 0, 71, 0
1, 77023, Note_on_c, 0, 73, 53
1, 77161, Note_on_c, 0, 42, 0
1, 77161, Note_on_c, 0, 49, 0
1, 77161, Note_on_c, 0, 49, 47
1, 77164, Note_on_c, 0, 42, 47
1, 77331, Note_on_c, 0, 73, 0
1, 77331, Note_on_c, 0, 49, 0
1, 77331, Note_on_c, 0, 50, 55
1, 77334, Control_c, 0, 64, 0
1, 77342, Note_on_c, 0, 74, 60
1, 77420, Control_c, 0, 64, 127
1, 77464, Note_on_c, 0, 59, 45
1, 77598, Note_on_c, 0, 59, 0
1, 77598, Note_on_c, 0, 74, 0
1, 77598, Note_on_c, 0, 71, 51
1, 77866, Note_on_c, 0, 71, 0
1, 77866, Note_on_c, 0, 68, 55
1, 77866, Note_on_c, 0, 62, 59
1, 78000, Note_on_c, 0, 59, 40
1, 78134, Note_on_c, 0, 59, 0
1, 78134, Note_on_c, 0, 68, 0
1, 78134, Note_on_c, 0, 65, 51
1, 78402, Note_on_c, 0, 65, 0
1, 78402, Note_on_c, 0, 62, 56
1, 78534, Note_on_c, 0, 56, 47
1, 78668, Note_on_c, 0, 56, 0
1, 78668, Note_on_c, 0, 62, 0
1, 78668, Note_on_c, 0, 59, 51
1, 78941, Note_on_c, 0, 59, 0
1, 78941, Note_on_c, 0, 56, 50
1, 78941, Note_on_c, 0, 62, 0
1, 79084, Note_on_c, 0, 56, 0
1, 79084, Note_on_c, 0, 53, 48
1, 79233, Note_on_c, 0, 53, 0
1, 79233, Note_on_c, 0, 50, 46
1, 79233, Note_on_c, 0, 50, 0
1, 79388, Note_on_c, 0, 50, 0
1, 79388, Note_on_c, 0, 47, 44
1, 79564, Note_on_c, 0, 47, 0
1, 79564, Note_on_c, 0, 61, 46
1, 79564, Note_on_c, 0, 42, 0
1, 79567, Note_on_c, 0, 49, 46
1, 79567, Note_on_c, 0, 42, 46
1, 79572, Control_c, 0, 64, 0
1, 79700, Note_on_c, 0, 58, 40
1, 79715, Control_c, 0, 64, 127
1, 79835, Note_on_c, 0, 58, 0
1, 79835, Note_on_c, 0, 61, 0
1, 79835, Note_on_c, 0, 63, 39
1, 80102, Note_on_c, 0, 63, 0
1, 80102, Note_on_c, 0, 65, 47
1, 80116, Control_c, 0, 64, 0
1, 80196, Control_c, 0, 64, 127
1, 80235, Note_on_c, 0, 58, 40
1, 80367, Note_on_c, 0, 58, 0
1, 80367, Note_on_c, 0, 65, 0
1, 80367, Note_on_c, 0, 66, 49
1, 80630, Note_on_c, 0, 66, 0
1, 80630, Note_on_c, 0, 68, 51
1, 80637, Control_c, 0, 64, 0
1, 80729, Control_c, 0, 64, 127
1, 80760, Note_on_c, 0, 58, 46
1, 80890, Note_on_c, 0, 58, 0
1, 80890, Note_on_c, 0, 68, 0
1, 80890, Note_on_c, 0, 70, 53
1, 81150, Note_on_c, 0, 70, 0
1, 81150, Note_on_c, 0, 71, 54
1, 81157, Control_c, 0, 64, 0
1, 81226, Control_c, 0, 64, 127
1, 81280, Note_on_c, 0, 58, 40
1, 81410, Note_on_c, 0, 58, 0
1, 81410, Note_on_c, 0, 71, 0
1, 81410, Note_on_c, 0, 72, 53
1, 81548, Note_on_c, 0, 49, 0
1, 81548, Note_on_c, 0, 49, 47
1, 81717, Note_on_c, 0, 72, 0
1, 81717, Note_on_c, 0, 49, 0
1, 81717, Note_on_c, 0, 42, 0
1, 81720, Note_on_c, 0, 52, 55
1, 81720, Note_on_c, 0, 36, 55
1, 81720, Control_c, 0, 64, 0
1, 81723, Note_on_c, 0, 73, 60
1, 81808, Control_c, 0, 64, 127
1, 81854, Note_on_c, 0, 58, 45
1, 81990, Note_on_c, 0, 58, 0
1, 81990, Note_on_c, 0, 73, 0
1, 81990, Note_on_c, 0, 70, 51
1, 82264, Note_on_c, 0, 70, 0
1, 82264, Note_on_c, 0, 67, 55
1, 82264, Note_on_c, 0, 61, 51
1, 82403, Note_on_c, 0, 58, 40
1, 82541, Note_on_c, 0, 58, 0
1, 82541, Note_on_c, 0, 67, 0
1, 82541, Note_on_c, 0, 64, 51
1, 82819, Note_on_c, 0, 64, 0
1, 82819, Note_on_c, 0, 61, 53
1, 82819, Note_on_c, 0, 61, 0
1, 82964, Note_on_c, 0, 55, 43
1, 83110, Note_on_c, 0, 55, 0
1, 83110, Note_on_c, 0, 61, 0
1, 83110, Note_on_c, 0, 58, 51
1, 83405, Note_on_c, 0, 58, 0
1, 83405, Note_on_c, 0, 57, 56
1, 83405, Note_on_c, 0, 36, 0
1, 83408, Note_on_c, 0, 52, 0
1, 83408, Note_on_c, 0, 41, 44
1, 83629, Note_on_c, 0, 53, 42
1, 83866, Note_on_c, 0, 51, 37
1, 83996, Control_c, 0, 64, 0
1, 84011, Note_on_c, 0, 51, 0
1, 84011, Note_on_c, 0, 53, 0
1, 84011, Note_on_c, 0, 57, 0
1, 84014, Note_on_c, 0, 58, 46
1, 84095, Note_on_c, 0, 58, 0
1, 84095, Note_on_c, 0, 58, 46
1, 84095, Note_on_c, 0, 53, 44
1, 84098, Note_on_c, 0, 41, 0
1, 84098, Note_on_c, 0, 34, 50
1, 84098, Note_on_c, 0, 46, 50
1, 84176, Control_c, 0, 64, 127
1, 84234, Note_on_c, 0, 50, 34
1, 84373, Note_on_c, 0, 53, 0
1, 84373, Note_on_c, 0, 58, 0
1, 84373, Note_on_c, 0, 55, 45
1, 84376, Note_on_c, 0, 50, 0
1, 84651, Note_on_c, 0, 55, 0
1, 84651, Note_on_c, 0, 57, 46
1, 84657, Control_c, 0, 64, 0
1, 84749, Control_c, 0, 64, 127
1, 84790, Note_on_c, 0, 50, 40
1, 84929, Note_on_c, 0, 57, 0
1, 84929, Note_on_c, 0, 58, 47
1, 84929, Note_on_c, 0, 50, 0
1, 85205, Note_on_c, 0, 58, 0
1, 85205, Note_on_c, 0, 60, 48
1, 85208, Control_c, 0, 64, 0
1, 85322, Control_c, 0, 64, 127
1, 85338, Note_on_c, 0, 50, 38
1, 85470, Note_on_c, 0, 60, 0
1, 85470, Note_on_c, 0, 62, 52
1, 85470, Note_on_c, 0, 50, 0
1, 85731, Note_on_c, 0, 62, 0
1, 85731, Note_on_c, 0, 63, 56
1, 85731, Note_on_c, 0, 46, 0
1, 85734, Note_on_c, 0, 34, 0
1, 85734, Note_on_c, 0, 48, 57
1, 85734, Note_on_c, 0, 32, 57
1, 85738, Control_c, 0, 64, 0
1, 85792, Control_c, 0, 64, 127
1, 85860, Note_on_c, 0, 50, 39
1, 85988, Note_on_c, 0, 63, 0
1, 85988, Note_on_c, 0, 65, 64
1, 85988, Note_on_c, 0, 50, 0
1, 86276, Note_on_c, 0, 65, 0
1, 86276, Note_on_c, 0, 32, 0
1, 86276, Note_on_c, 0, 48, 0
1, 86279, Note_on_c, 0, 31, 60
1, 86279, Note_on_c, 0, 47, 60
1, 86279, Control_c, 0, 64, 0
1, 86286, Note_on_c, 0, 67, 72
1, 86410, Note_on_c, 0, 50, 45
1, 86410, Control_c, 0, 64, 127
1, 86543, Note_on_c, 0, 65, 69
1, 86543, Note_on_c, 0, 50, 0
1, 86809, Note_on_c, 0, 65, 0
1, 86809, Note_on_c, 0, 63, 66
1, 86822, Control_c, 0, 64, 0
1, 86927, Control_c, 0, 64, 127
1, 86942, Note_on_c, 0, 50, 42
1, 87076, Note_on_c, 0, 63, 0
1, 87076, Note_on_c, 0, 62, 60
1, 87076, Note_on_c, 0, 50, 0
1, 87342, Note_on_c, 0, 62, 0
1, 87342, Note_on_c, 0, 67, 0
1, 87342, Note_on_c, 0, 67, 69
1, 87345, Note_on_c, 0, 60, 53
1, 87349, Control_c, 0, 64, 0
1, 87404, Control_c, 0, 64, 127
1, 87475, Note_on_c, 0, 50, 40
1, 87608, Note_on_c, 0, 50, 0
1, 87608, Note_on_c, 0, 60, 0
1, 87608, Note_on_c, 0, 59, 51
1, 87869, Note_on_c, 0, 69, 65
1, 87875, Note_on_c, 0, 67, 0
1, 87875, Note_on_c, 0, 59, 0
1, 87875, Note_on_c, 0, 47, 0
1, 87878, Note_on_c, 0, 31, 0
1, 87878, Note_on_c, 0, 57, 53
1, 87881, Control_c, 0, 64, 0
1, 87910, Control_c, 0, 64, 127
1, 88006, Note_on_c, 0, 50, 40
1, 88133, Note_on_c, 0, 69, 0
1, 88133, Note_on_c, 0, 71, 69
1, 88138, Note_on_c, 0, 50, 0
1, 88138, Note_on_c, 0, 57, 0
1, 88138, Note_on_c, 0, 55, 50
1, 88355, Note_on_c, 0, 63, 70
1, 88430, Note_on_c, 0, 71, 0
1, 88434, Note_on_c, 0, 55, 0
1, 88434, Note_on_c, 0, 48, 55
1, 88434, Control_c, 0, 64, 0
1, 88441, Note_on_c, 0, 75, 79
1, 88561, Control_c, 0, 64, 127
1, 88569, Note_on_c, 0, 36, 41
1, 88704, Note_on_c, 0, 36, 0
1, 88704, Note_on_c, 0, 48, 0
1, 88704, Note_on_c, 0, 50, 52
1, 88973, Note_on_c, 0, 50, 0
1, 88973, Note_on_c, 0, 51, 57
1, 88986, Control_c, 0, 64, 0
1, 89090, Control_c, 0, 64, 127
1, 89106, Note_on_c, 0, 48, 42
1, 89238, Note_on_c, 0, 48, 0
1, 89238, Note_on_c, 0, 51, 0
1, 89238, Note_on_c, 0, 53, 52
1, 89503, Note_on_c, 0, 53, 0
1, 89503, Note_on_c, 0, 55, 58
1, 89503, Control_c, 0, 64, 0
1, 89561, Control_c, 0, 64, 127
1, 89634, Note_on_c, 0, 48, 42
1, 89765, Note_on_c, 0, 63, 0
1, 89765, Note_on_c, 0, 74, 61
1, 89765, Note_on_c, 0, 48, 0
1, 89768, Note_on_c, 0, 55, 0
1, 89768, Note_on_c, 0, 57, 49
1, 89771, Note_on_c, 0, 75, 0
1, 90026, Note_on_c, 0, 57, 0
1, 90026, Note_on_c, 0, 59, 52
1, 90033, Control_c, 0, 64, 0
1, 90086, Control_c, 0, 64, 127
1, 90135, Note_on_c, 0, 74, 0
1, 90135, Note_on_c, 0, 72, 65
1, 90207, Note_on_c, 0, 59, 0
1, 90207, Note_on_c, 0, 60, 57
1, 90243, Note_on_c, 0, 72, 0
1, 90243, Note_on_c, 0, 70, 63
1, 90355, Note_on_c, 0, 70, 0
1, 90355, Note_on_c, 0, 69, 61
1, 90393, Note_on_c, 0, 60, 0
1, 90393, Note_on_c, 0, 62, 62
1, 90475, Note_on_c, 0, 69, 0
1, 90475, Note_on_c, 0, 67, 60
1, 90609, Note_on_c, 0, 67, 0
1, 90609, Note_on_c, 0, 63, 69
1, 90609, Note_on_c, 0, 65, 69
1, 90612, Note_on_c, 0, 62, 0
1, 90612, Note_on_c, 0, 57, 67
1, 90612, Note_on_c, 0, 41, 67
1, 90615, Control_c, 0, 64, 0
1, 90722, Control_c, 0, 64, 127
1, 90746, Note_on_c, 0, 53, 42
1, 90883, Note_on_c, 0, 63, 0
1, 90883, Note_on_c, 0, 62, 63
1, 90883, Note_on_c, 0, 53, 0
1, 91158, Note_on_c, 0, 62, 0
1, 91158, Note_on_c, 0, 60, 59
1, 91166, Control_c, 0, 64, 0
1, 91234, Control_c, 0, 64, 127
1, 91289, Note_on_c, 0, 53, 42
1, 91419, Note_on_c, 0, 60, 0
1, 91419, Note_on_c, 0, 58, 58
1, 91419, Note_on_c, 0, 53, 0
1, 91681, Note_on_c, 0, 58, 0
1, 91681, Note_on_c, 0, 57, 0
1, 91681, Note_on_c, 0, 57, 57
1, 91687, Control_c, 0, 64, 0
1, 91747, Control_c, 0, 64, 127
1, 91812, Note_on_c, 0, 53, 42
1, 91943, Note_on_c, 0, 53, 0
1, 91943, Note_on_c, 0, 57, 0
1, 91943, Note_on_c, 0, 55, 53
1, 92205, Note_on_c, 0, 55, 0
1, 92205, Note_on_c, 0, 53, 56
1, 92212, Control_c, 0, 64, 0
1, 92257, Control_c, 0, 64, 127
1, 92314, Note_on_c, 0, 65, 0
1, 92314, Note_on_c, 0, 67, 52
1, 92342, Note_on_c, 0, 53, 0
1, 92342, Note_on_c, 0, 51, 55
1, 92426, Note_on_c, 0, 67, 0
1, 92426, Note_on_c, 0, 69, 56
1, 92483, Note_on_c, 0, 51, 0
1, 92483, Note_on_c, 0, 50, 54
1, 92542, Note_on_c, 0, 69, 0
1, 92542, Note_on_c, 0, 70, 60
1, 92636, Note_on_c, 0, 50, 0
1, 92636, Note_on_c, 0, 48, 52
1, 92668, Note_on_c, 0, 70, 0
1, 92668, Note_on_c, 0, 72, 64
1, 92813, Note_on_c, 0, 72, 0
1, 92813, Note_on_c, 0, 74, 73
1, 92813, Note_on_c, 0, 48, 0
1, 92816, Note_on_c, 0, 41, 0
1, 92816, Note_on_c, 0, 46, 51
1, 92816, Note_on_c, 0, 34, 44
1, 92819, Control_c, 0, 64, 0
1, 92905, Control_c, 0, 64, 127
1, 92944, Note_on_c, 0, 62, 42
1, 93076, Note_on_c, 0, 62, 0
1, 93076, Note_on_c, 0, 74, 0
1, 93076, Note_on_c, 0, 72, 66
1, 93357, Note_on_c, 0, 72, 0
1, 93357, Note_on_c, 0, 70, 73
1, 93357, Note_on_c, 0, 34, 0
1, 93360, Note_on_c, 0, 46, 0
1, 93369, Note_on_c, 0, 79, 73
1, 93382, Control_c, 0, 64, 0
1, 93472, Control_c, 0, 64, 127
1, 93497, Note_on_c, 0, 58, 42
1, 93637, Note_on_c, 0, 58, 0
1, 93637, Note_on_c, 0, 70, 0
1, 93637, Note_on_c, 0, 69, 64
1, 93899, Note_on_c, 0, 69, 0
1, 93899, Note_on_c, 0, 67, 58
1, 93899, Control_c, 0, 64, 0
1, 93976, Control_c, 0, 64, 127
1, 94037, Note_on_c, 0, 58, 47
1, 94175, Note_on_c, 0, 67, 0
1, 94175, Note_on_c, 0, 79, 0
1, 94175, Note_on_c, 0, 65, 54
1, 94181, Note_on_c, 0, 77, 62
1, 94451, Note_on_c, 0, 77, 0
1, 94451, Note_on_c, 0, 65, 0
1, 94451, Note_on_c, 0, 76, 66
1, 94454, Note_on_c, 0, 64, 57
1, 94459, Control_c, 0, 64, 0
1, 94512, Control_c, 0, 64, 127
1, 94607, Note_on_c, 0, 76, 0
1, 94607, Note_on_c, 0, 77, 42
1, 94669, Note_on_c, 0, 77, 0
1, 94669, Note_on_c, 0, 76, 42
1, 94731, Note_on_c, 0, 76, 0
1, 94731, Note_on_c, 0, 64, 0
1, 94731, Note_on_c, 0, 62, 55
1, 94737, Note_on_c, 0, 74, 63
1, 94873, Note_on_c, 0, 72, 58
1, 94881, Note_on_c, 0, 62, 0
1, 94886, Note_on_c, 0, 60, 50
1, 94886, Note_on_c, 0, 74, 0
1, 95022, Note_on_c, 0, 72, 0
1, 95029, Note_on_c, 0, 58, 0
1, 95029, Note_on_c, 0, 72, 63
1, 95029, Note_on_c, 0, 45, 51
1, 95032, Control_c, 0, 64, 0
1, 95035, Note_on_c, 0, 60, 0
1, 95120, Control_c, 0, 64, 127
1, 95159, Note_on_c, 0, 60, 42
1, 95290, Note_on_c, 0, 60, 0
1, 95290, Note_on_c, 0, 72, 0
1, 95290, Note_on_c, 0, 70, 63
1, 95573, Note_on_c, 0, 70, 0
1, 95573, Note_on_c, 0, 69, 59
1, 95573, Note_on_c, 0, 45, 0
1, 95581, Note_on_c, 0, 77, 68
1, 95596, Control_c, 0, 64, 0
1, 95685, Control_c, 0, 64, 127
1, 95709, Note_on_c, 0, 57, 42
1, 95845, Note_on_c, 0, 57, 0
1, 95845, Note_on_c, 0, 69, 0
1, 95845, Note_on_c, 0, 67, 64
1, 96118, Note_on_c, 0, 67, 0
1, 96118, Note_on_c, 0, 65, 58
1, 96118, Control_c, 0, 64, 0
1, 96197, Control_c, 0, 64, 127
1, 96259, Note_on_c, 0, 57, 47
1, 96400, Note_on_c, 0, 65, 0
1, 96400, Note_on_c, 0, 77, 0
1, 96400, Note_on_c, 0, 64, 54
1, 96403, Note_on_c, 0, 76, 62
1, 96700, Note_on_c, 0, 76, 0
1, 96700, Note_on_c, 0, 64, 0
1, 96700, Note_on_c, 0, 62, 57
1, 96703, Note_on_c, 0, 74, 66
1, 96703, Note_on_c, 0, 47, 51
1, 96703, Note_on_c, 0, 56, 51
1, 96709, Control_c, 0, 64, 0
1, 96768, Control_c, 0, 64, 127
1, 96875, Note_on_c, 0, 74, 0
1, 96875, Note_on_c, 0, 76, 53
1, 96913, Note_on_c, 0, 76, 0
1, 96913, Note_on_c, 0, 74, 54
1, 96952, Note_on_c, 0, 74, 0
1, 96952, Note_on_c, 0, 73, 55
1, 96990, Note_on_c, 0, 73, 0
1, 96990, Note_on_c, 0, 74, 56
1, 97025, Note_on_c, 0, 64, 55
1, 97029, Note_on_c, 0, 74, 0
1, 97029, Note_on_c, 0, 62, 0
1, 97032, Note_on_c, 0, 76, 64
1, 97181, Note_on_c, 0, 65, 56
1, 97185, Note_on_c, 0, 64, 0
1, 97189, Note_on_c, 0, 77, 65
1, 97192, Note_on_c, 0, 76, 0
1, 97363, Note_on_c, 0, 65, 0
1, 97372, Note_on_c, 0, 57, 0
1, 97372, Note_on_c, 0, 77, 0
1, 97372, Note_on_c, 0, 77, 71
1, 97375, Note_on_c, 0, 56, 0
1, 97375, Note_on_c, 0, 47, 0
1, 97375, Note_on_c, 0, 48, 51
1, 97378, Note_on_c, 0, 60, 51
1, 97378, Note_on_c, 0, 57, 51
1, 97378, Control_c, 0, 64, 0
1, 97498, Control_c, 0, 64, 127
1, 97536, Note_on_c, 0, 65, 47
1, 97701, Note_on_c, 0, 65, 0
1, 97701, Note_on_c, 0, 77, 0
1, 97701, Note_on_c, 0, 76, 63
1, 98016, Note_on_c, 0, 76, 0
1, 98016, Note_on_c, 0, 74, 68
1, 98016, Control_c, 0, 64, 0
1, 98109, Control_c, 0, 64, 127
1, 98161, Note_on_c, 0, 65, 40
1, 98306, Note_on_c, 0, 65, 0
1, 98467, Note_on_c, 0, 74, 0
1, 98467, Note_on_c, 0, 72, 62
1, 98628, Note_on_c, 0, 72, 0
1, 98628, Note_on_c, 0, 72, 68
1, 98628, Note_on_c, 0, 57, 0
1, 98631, Note_on_c, 0, 60, 0
1, 98631, Note_on_c, 0, 48, 0
1, 98631, Note_on_c, 0, 64, 51
1, 98634, Note_on_c, 0, 58, 51
1, 98634, Note_on_c, 0, 48, 51
1, 98634, Control_c, 0, 64, 0
1, 98746, Control_c, 0, 64, 127
1, 98782, Note_on_c, 0, 60, 47
1, 98936, Note_on_c, 0, 60, 0
1, 98936, Note_on_c, 0, 72, 0
1, 98936, Note_on_c, 0, 70, 63
1, 99245, Note_on_c, 0, 70, 0
1, 99245, Note_on_c, 0, 69, 68
1, 99245, Control_c, 0, 64, 0
1, 99344, Control_c, 0, 64, 127
1, 99399, Note_on_c, 0, 60, 41
1, 99553, Note_on_c, 0, 60, 0
1, 99713, Note_on_c, 0, 69, 0
1, 99713, Note_on_c, 0, 67, 62
1, 99873, Note_on_c, 0, 67, 0
1, 99873, Note_on_c, 0, 67, 53
1, 99873, Note_on_c, 0, 48, 0
1, 99876, Note_on_c, 0, 58, 0
1, 99876, Note_on_c, 0, 64, 0
1, 99876, Note_on_c, 0, 60, 53
1, 99879, Note_on_c, 0, 53, 53
1, 99879, Control_c, 0, 64, 0
1, 100009, Control_c, 0, 64, 127
1, 100027, Note_on_c, 0, 58, 47
1, 100181, Note_on_c, 0, 53, 0
1, 100181, Note_on_c, 0, 52, 53
1, 100490, Note_on_c, 0, 52, 0
1, 100490, Note_on_c, 0, 50, 53
1, 100505, Control_c, 0, 64, 0
1, 100652, Note_on_c, 0, 58, 0
1, 100652, Note_on_c, 0, 58, 47
1, 100671, Control_c, 0, 64, 127
1, 100814, Note_on_c, 0, 50, 0
1, 100814, Note_on_c, 0, 48, 53
1, 101171, Note_on_c, 0, 67, 0
1, 101171, Note_on_c, 0, 65, 53
1, 101171, Note_on_c, 0, 48, 0
1, 101174, Note_on_c, 0, 53, 53
1, 101174, Control_c, 0, 64, 0
1, 101314, Control_c, 0, 64, 127
1, 101357, Note_on_c, 0, 58, 0
1, 101357, Note_on_c, 0, 57, 41
1, 101915, Note_on_c, 0, 57, 0
1, 101915, Note_on_c, 0, 65, 0
1, 101915, Note_on_c, 0, 53, 0
1, 101918, Note_on_c, 0, 60, 0
1, 102002, Control_c, 0, 64, 0
1, 102660, Note_on_c, 0, 57, 60
1, 102660, Note_on_c, 0, 41, 60
1, 102660, Control_c, 0, 64, 127
1, 102666, Note_on_c, 0, 65, 53
1, 102792, Note_on_c, 0, 63, 40
1, 102916, Note_on_c, 0, 67, 53
1, 102924, Note_on_c, 0, 63, 0
1, 102931, Note_on_c, 0, 65, 0
1, 103180, Note_on_c, 0, 67, 0
1, 103187, Note_on_c, 0, 69, 53
1, 103195, Control_c, 0, 64, 0
1, 103282, Control_c, 0, 64, 127
1, 103321, Note_on_c, 0, 63, 46
1, 103452, Note_on_c, 0, 69, 0
1, 103452, Note_on_c, 0, 63, 0
1, 103460, Note_on_c, 0, 70, 53
1, 103714, Note_on_c, 0, 72, 53
1, 103721, Control_c, 0, 64, 0
1, 103725, Note_on_c, 0, 70, 0
1, 103836, Control_c, 0, 64, 127
1, 103851, Note_on_c, 0, 63, 41
1, 103978, Note_on_c, 0, 74, 56
1, 103978, Note_on_c, 0, 72, 0
1, 103983, Note_on_c, 0, 63, 0
1, 104239, Note_on_c, 0, 74, 0
1, 104251, Control_c, 0, 64, 0
1, 104251, Note_on_c, 0, 75, 59
1, 104305, Control_c, 0, 64, 127
1, 104374, Note_on_c, 0, 63, 41
1, 104502, Note_on_c, 0, 63, 0
1, 104509, Note_on_c, 0, 77, 66
1, 104509, Note_on_c, 0, 75, 0
1, 104719, Note_on_c, 0, 39, 60
1, 104792, Note_on_c, 0, 41, 0
1, 104792, Note_on_c, 0, 57, 0
1, 104792, Note_on_c, 0, 58, 60
1, 104795, Control_c, 0, 64, 0
1, 104799, Note_on_c, 0, 77, 0
1, 104802, Note_on_c, 0, 78, 72
1, 104923, Note_on_c, 0, 63, 45
1, 104923, Control_c, 0, 64, 127
1, 105054, Note_on_c, 0, 63, 0
1, 105054, Note_on_c, 0, 78, 0
1, 105054, Note_on_c, 0, 77, 69
1, 105315, Note_on_c, 0, 77, 0
1, 105320, Note_on_c, 0, 75, 66
1, 105328, Control_c, 0, 64, 0
1, 105431, Control_c, 0, 64, 127
1, 105446, Note_on_c, 0, 63, 42
1, 105572, Note_on_c, 0, 73, 60
1, 105577, Note_on_c, 0, 63, 0
1, 105581, Note_on_c, 0, 75, 0
1, 105833, Note_on_c, 0, 73, 0
1, 105839, Note_on_c, 0, 72, 53
1, 105839, Note_on_c, 0, 58, 0
1, 105839, Note_on_c, 0, 48, 60
1, 105845, Control_c, 0, 64, 0
1, 105901, Control_c, 0, 64, 127
1, 105972, Note_on_c, 0, 63, 40
1, 106105, Note_on_c, 0, 63, 0
1, 106105, Note_on_c, 0, 72, 0
1, 106112, Note_on_c, 0, 70, 51
1, 106377, Note_on_c, 0, 69, 53
1, 106377, Note_on_c, 0, 70, 0
1, 106377, Control_c, 0, 64, 0
1, 106407, Control_c, 0, 64, 127
1, 106503, Note_on_c, 0, 63, 40
1, 106633, Note_on_c, 0, 70, 50
1, 106633, Note_on_c, 0, 63, 0
1, 106640, Note_on_c, 0, 69, 0
1, 106923, Note_on_c, 0, 69, 46
1, 106928, Note_on_c, 0, 70, 0
1, 106931, Note_on_c, 0, 65, 46
1, 106931, Note_on_c, 0, 39, 0
1, 106931, Note_on_c, 0, 41, 52
1, 106941, Control_c, 0, 64, 0
1, 107008, Control_c, 0, 64, 127
1, 107063, Note_on_c, 0, 63, 35
1, 107189, Note_on_c, 0, 69, 0
1, 107195, Note_on_c, 0, 63, 0
1, 107195, Note_on_c, 0, 65, 0
1, 107203, Note_on_c, 0, 67, 46
1, 107460, Note_on_c, 0, 69, 46
1, 107466, Control_c, 0, 64, 0
1, 107466, Note_on_c, 0, 67, 0
1, 107553, Control_c, 0, 64, 127
1, 107592, Note_on_c, 0, 63, 40
1, 107721, Note_on_c, 0, 70, 46
1, 107725, Note_on_c, 0, 63, 0
1, 107725, Note_on_c, 0, 69, 0
1, 107986, Note_on_c, 0, 70, 0
1, 107992, Control_c, 0, 64, 0
1, 107997, Note_on_c, 0, 72, 46
1, 108107, Control_c, 0, 64, 127
1, 108122, Note_on_c, 0, 63, 36
1, 108246, Note_on_c, 0, 73, 49
1, 108254, Note_on_c, 0, 63, 0
1, 108254, Note_on_c, 0, 41, 0
1, 108254, Note_on_c, 0, 48, 0
1, 108262, Note_on_c, 0, 72, 0
1, 108508, Note_on_c, 0, 73, 0
1, 108522, Note_on_c, 0, 75, 51
1, 108522, Control_c, 0, 64, 0
1, 108576, Control_c, 0, 64, 127
1, 108645, Note_on_c, 0, 63, 36
1, 108768, Note_on_c, 0, 77, 57
1, 108773, Note_on_c, 0, 63, 0
1, 108780, Note_on_c, 0, 75, 0
1, 108991, Note_on_c, 0, 39, 52
1, 109057, Note_on_c, 0, 77, 0
1, 109063, Note_on_c, 0, 58, 52
1, 109063, Control_c, 0, 64, 0
1, 109074, Note_on_c, 0, 78, 62
1, 109194, Note_on_c, 0, 63, 39
1, 109194, Control_c, 0, 64, 127
1, 109325, Note_on_c, 0, 63, 0
1, 109325, Note_on_c, 0, 77, 60
1, 109336, Note_on_c, 0, 78, 0
1, 109586, Note_on_c, 0, 77, 0
1, 109586, Note_on_c, 0, 75, 57
1, 109599, Control_c, 0, 64, 0
1, 109702, Control_c, 0, 64, 127
1, 109717, Note_on_c, 0, 63, 37
1, 109848, Note_on_c, 0, 63, 0
1, 109979, Note_on_c, 0, 75, 0
1, 109979, Note_on_c, 0, 73, 52
1, 110110, Note_on_c, 0, 73, 0
1, 110110, Note_on_c, 0, 73, 46
1, 110110, Note_on_c, 0, 58, 0
1, 110113, Note_on_c, 0, 39, 0
1, 110113, Note_on_c, 0, 42, 52
1, 110116, Control_c, 0, 64, 0
1, 110172, Control_c, 0, 64, 127
1, 110243, Note_on_c, 0, 63, 35
1, 110376, Note_on_c, 0, 63, 0
1, 110376, Note_on_c, 0, 73, 0
1, 110376, Note_on_c, 0, 72, 44
1, 110642, Note_on_c, 0, 72, 0
1, 110642, Note_on_c, 0, 70, 46
1, 110649, Control_c, 0, 64, 0
1, 110678, Control_c, 0, 64, 127
1, 110708, Note_on_c, 0, 70, 0
1, 110708, Note_on_c, 0, 72, 46
1, 110774, Note_on_c, 0, 72, 0
1, 110774, Note_on_c, 0, 70, 46
1, 110774, Note_on_c, 0, 60, 35
1, 110906, Note_on_c, 0, 60, 0
1, 110906, Note_on_c, 0, 44, 44
1, 111043, Note_on_c, 0, 70, 0
1, 111043, Note_on_c, 0, 68, 44
1, 111200, Note_on_c, 0, 49, 44
1, 111200, Note_on_c, 0, 68, 0
1, 111200, Note_on_c, 0, 73, 46
1, 111200, Note_on_c, 0, 44, 0
1, 111200, Note_on_c, 0, 42, 0
1, 111200, Note_on_c, 0, 41, 44
1, 111252, Control_c, 0, 64, 0
1, 111337, Note_on_c, 0, 61, 46
1, 111345, Control_c, 0, 64, 127
1, 111471, Note_on_c, 0, 49, 0
1, 111474, Note_on_c, 0, 51, 39
1, 111740, Note_on_c, 0, 41, 0
1, 111740, Note_on_c, 0, 51, 0
1, 111743, Note_on_c, 0, 53, 44
1, 111746, Control_c, 0, 64, 0
1, 111873, Note_on_c, 0, 61, 0
1, 111873, Note_on_c, 0, 61, 46
1, 111873, Control_c, 0, 64, 127
1, 112005, Note_on_c, 0, 54, 44
1, 112267, Note_on_c, 0, 54, 0
1, 112272, Note_on_c, 0, 56, 46
1, 112276, Control_c, 0, 64, 0
1, 112335, Control_c, 0, 64, 127
1, 112397, Note_on_c, 0, 61, 0
1, 112397, Note_on_c, 0, 61, 46
1, 112532, Note_on_c, 0, 56, 0
1, 112532, Note_on_c, 0, 58, 46
1, 112786, Note_on_c, 0, 60, 48
1, 112786, Note_on_c, 0, 73, 0
1, 112794, Note_on_c, 0, 58, 0
1, 112800, Control_c, 0, 64, 0
1, 112861, Control_c, 0, 64, 127
1, 112917, Note_on_c, 0, 61, 0
1, 112917, Note_on_c, 0, 61, 46
1, 113046, Note_on_c, 0, 60, 0
1, 113046, Note_on_c, 0, 61, 0
1, 113046, Note_on_c, 0, 61, 48
1, 113360, Control_c, 0, 64, 0
1, 113366, Note_on_c, 0, 62, 50
1, 113448, Control_c, 0, 64, 127
1, 113486, Note_on_c, 0, 61, 0
1, 113486, Note_on_c, 0, 61, 46
1, 113618, Note_on_c, 0, 62, 0
1, 113618, Note_on_c, 0, 59, 49
1, 113881, Note_on_c, 0, 59, 0
1, 113881, Note_on_c, 0, 56, 48
1, 114013, Note_on_c, 0, 61, 0
1, 114013, Note_on_c, 0, 61, 46
1, 114144, Note_on_c, 0, 56, 0
1, 114144, Note_on_c, 0, 53, 47
1, 114407, Note_on_c, 0, 53, 0
1, 114407, Note_on_c, 0, 49, 46
1, 114411, Note_on_c, 0, 53, 0
1, 114414, Control_c, 0, 64, 0
1, 114514, Control_c, 0, 64, 127
1, 114540, Note_on_c, 0, 61, 0
1, 114540, Note_on_c, 0, 61, 46
1, 114672, Note_on_c, 0, 47, 45
1, 114940, Note_on_c, 0, 47, 0
1, 114940, Note_on_c, 0, 44, 44
1, 115075, Note_on_c, 0, 61, 0
1, 115075, Note_on_c, 0, 61, 46
1, 115211, Note_on_c, 0, 44, 0
1, 115211, Note_on_c, 0, 41, 43
1, 115348, Note_on_c, 0, 61, 0
1, 115348, Note_on_c, 0, 61, 46
1, 115485, Note_on_c, 0, 41, 0
1, 115485, Note_on_c, 0, 42, 46
1, 115493, Control_c, 0, 64, 0
1, 115621, Note_on_c, 0, 58, 40
1, 115637, Control_c, 0, 64, 127
1, 115756, Note_on_c, 0, 58, 0
1, 115756, Note_on_c, 0, 61, 0
1, 115756, Note_on_c, 0, 63, 39
1, 116024, Note_on_c, 0, 63, 0
1, 116024, Note_on_c, 0, 65, 47
1, 116037, Control_c, 0, 64, 0
1, 116117, Control_c, 0, 64, 127
1, 116156, Note_on_c, 0, 58, 40
1, 116288, Note_on_c, 0, 58, 0
1, 116288, Note_on_c, 0, 65, 0
1, 116288, Note_on_c, 0, 66, 49
1, 116551, Note_on_c, 0, 66, 0
1, 116551, Note_on_c, 0, 68, 51
1, 116558, Control_c, 0, 64, 0
1, 116650, Control_c, 0, 64, 127
1, 116681, Note_on_c, 0, 58, 46
1, 116811, Note_on_c, 0, 58, 0
1, 116811, Note_on_c, 0, 68, 0
1, 116811, Note_on_c, 0, 70, 53
1, 117071, Note_on_c, 0, 70, 0
1, 117071, Note_on_c, 0, 71, 54
1, 117078, Control_c, 0, 64, 0
1, 117147, Control_c, 0, 64, 127
1, 117201, Note_on_c, 0, 58, 40
1, 117331, Note_on_c, 0, 58, 0
1, 117331, Note_on_c, 0, 71, 0
1, 117331, Note_on_c, 0, 73, 53
1, 117469, Note_on_c, 0, 42, 0
1, 117469, Note_on_c, 0, 49, 0
1, 117469, Note_on_c, 0, 49, 47
1, 117472, Note_on_c, 0, 42, 47
1, 117639, Note_on_c, 0, 73, 0
1, 117639, Note_on_c, 0, 49, 0
1, 117639, Note_on_c, 0, 50, 55
1, 117642, Control_c, 0, 64, 0
1, 117650, Note_on_c, 0, 74, 60
1, 117728, Control_c, 0, 64, 127
1, 117772, Note_on_c, 0, 59, 45
1, 117906, Note_on_c, 0, 59, 0
1, 117906, Note_on_c, 0, 71, 51
1, 117918, Note_on_c, 0, 74, 0
1, 118174, Note_on_c, 0, 71, 0
1, 118174, Note_on_c, 0, 68, 55
1, 118174, Note_on_c, 0, 62, 59
1, 118308, Note_on_c, 0, 59, 40
1, 118442, Note_on_c, 0, 59, 0
1, 118442, Note_on_c, 0, 68, 0
1, 118442, Note_on_c, 0, 65, 51
1, 118710, Note_on_c, 0, 65, 0
1, 118710, Note_on_c, 0, 62, 56
1, 118842, Note_on_c, 0, 56, 47
1, 118976, Note_on_c, 0, 56, 0
1, 118976, Note_on_c, 0, 62, 0
1, 118976, Note_on_c, 0, 59, 51
1, 119249, Note_on_c, 0, 59, 0
1, 119249, Note_on_c, 0, 56, 50
1, 119249, Note_on_c, 0, 62, 0
1, 119392, Note_on_c, 0, 56, 0
1, 119392, Note_on_c, 0, 53, 48
1, 119541, Note_on_c, 0, 53, 0
1, 119541, Note_on_c, 0, 50, 46
1, 119541, Note_on_c, 0, 50, 0
1, 119696, Note_on_c, 0, 50, 0
1, 119696, Note_on_c, 0, 47, 44
1, 119872, Note_on_c, 0, 47, 0
1, 119872, Note_on_c, 0, 61, 46
1, 119872, Note_on_c, 0, 42, 0
1, 119875, Note_on_c, 0, 49, 46
1, 119875, Note_on_c, 0, 42, 46
1, 119880, Control_c, 0, 64, 0
1, 120008, Note_on_c, 0, 58, 40
1, 120023, Control_c, 0, 64, 127
1, 120143, Note_on_c, 0, 58, 0
1, 120143, Note_on_c, 0, 61, 0
1, 120143, Note_on_c, 0, 63, 39
1, 120410, Note_on_c, 0, 63, 0
1, 120410, Note_on_c, 0, 65, 47
1, 120424, Control_c, 0, 64, 0
1, 120504, Control_c, 0, 64, 127
1, 120543, Note_on_c, 0, 58, 40
1, 120675, Note_on_c, 0, 58, 0
1, 120675, Note_on_c, 0, 65, 0
1, 120675, Note_on_c, 0, 66, 49
1, 120938, Note_on_c, 0, 66, 0
1, 120938, Note_on_c, 0, 68, 51
1, 120945, Control_c, 0, 64, 0
1, 121037, Control_c, 0, 64, 127
1, 121068, Note_on_c, 0, 58, 46
1, 121198, Note_on_c, 0, 58, 0
1, 121198, Note_on_c, 0, 68, 0
1, 121198, Note_on_c, 0, 70, 53
1, 121458, Note_on_c, 0, 70, 0
1, 121458, Note_on_c, 0, 71, 54
1, 121465, Control_c, 0, 64, 0
1, 121534, Control_c, 0, 64, 127
1, 121588, Note_on_c, 0, 58, 40
1, 121718, Note_on_c, 0, 58, 0
1, 121718, Note_on_c, 0, 71, 0
1, 121718, Note_on_c, 0, 72, 53
1, 121856, Note_on_c, 0, 49, 0
1, 121856, Note_on_c, 0, 49, 47
1, 122025, Note_on_c, 0, 72, 0
1, 122025, Note_on_c, 0, 49, 0
1, 122025, Note_on_c, 0, 42, 0
1, 122028, Note_on_c, 0, 36, 55
1, 122028, Note_on_c, 0, 52, 55
1, 122028, Control_c, 0, 64, 0
1, 122036, Note_on_c, 0, 73, 60
1, 122116, Control_c, 0, 64, 127
1, 122162, Note_on_c, 0, 58, 45
1, 122298, Note_on_c, 0, 58, 0
1, 122298, Note_on_c, 0, 70, 51
1, 122308, Note_on_c, 0, 73, 0
1, 122572, Note_on_c, 0, 70, 0
1, 122572, Note_on_c, 0, 67, 55
1, 122572, Note_on_c, 0, 61, 51
1, 122711, Note_on_c, 0, 58, 40
1, 122849, Note_on_c, 0, 58, 0
1, 122849, Note_on_c, 0, 67, 0
1, 122849, Note_on_c, 0, 64, 51
1, 123127, Note_on_c, 0, 64, 0
1, 123127, Note_on_c, 0, 61, 53
1, 123127, Note_on_c, 0, 61, 0
1, 123272, Note_on_c, 0, 55, 43
1, 123418, Note_on_c, 0, 55, 0
1, 123418, Note_on_c, 0, 61, 0
1, 123418, Note_on_c, 0, 58, 51
1, 123713, Note_on_c, 0, 58, 0
1, 123713, Note_on_c, 0, 57, 56
1, 123713, Note_on_c, 0, 52, 0
1, 123716, Note_on_c, 0, 36, 0
1, 123716, Note_on_c, 0, 41, 44
1, 123937, Note_on_c, 0, 53, 42
1, 124174, Note_on_c, 0, 51, 37
1, 124304, Control_c, 0, 64, 0
1, 124319, Note_on_c, 0, 51, 0
1, 124319, Note_on_c, 0, 53, 0
1, 124319, Note_on_c, 0, 57, 0
1, 124322, Note_on_c, 0, 58, 46
1, 124403, Note_on_c, 0, 58, 0
1, 124403, Note_on_c, 0, 53, 44
1, 124403, Note_on_c, 0, 58, 46
1, 124406, Note_on_c, 0, 41, 0
1, 124406, Note_on_c, 0, 34, 50
1, 124406, Note_on_c, 0, 46, 50
1, 124542, Note_on_c, 0, 50, 34
1, 124542, Control_c, 0, 64, 127
1, 124680, Note_on_c, 0, 55, 45
1, 124680, Note_on_c, 0, 58, 0
1, 124680, Note_on_c, 0, 53, 0
1, 124680, Note_on_c, 0, 50, 0
1, 124951, Note_on_c, 0, 57, 46
1, 124958, Note_on_c, 0, 55, 0
1, 124965, Control_c, 0, 64, 0
1, 125057, Control_c, 0, 64, 127
1, 125098, Note_on_c, 0, 50, 40
1, 125229, Note_on_c, 0, 57, 0
1, 125235, Note_on_c, 0, 58, 47
1, 125235, Note_on_c, 0, 50, 0
1, 125510, Note_on_c, 0, 58, 0
1, 125515, Note_on_c, 0, 60, 48
1, 125515, Control_c, 0, 64, 0
1, 125630, Control_c, 0, 64, 127
1, 125646, Note_on_c, 0, 50, 38
1, 125778, Note_on_c, 0, 50, 0
1, 125778, Note_on_c, 0, 62, 52
1, 125778, Note_on_c, 0, 60, 0
1, 126031, Note_on_c, 0, 63, 56
1, 126039, Note_on_c, 0, 46, 0
1, 126039, Note_on_c, 0, 34, 0
1, 126039, Note_on_c, 0, 48, 57
1, 126042, Note_on_c, 0, 32, 57
1, 126042, Note_on_c, 0, 62, 0
1, 126046, Control_c, 0, 64, 0
1, 126100, Control_c, 0, 64, 127
1, 126168, Note_on_c, 0, 50, 39
1, 126289, Note_on_c, 0, 63, 0
1, 126296, Note_on_c, 0, 50, 0
1, 126301, Note_on_c, 0, 65, 64
1, 126584, Note_on_c, 0, 32, 0
1, 126584, Note_on_c, 0, 48, 0
1, 126584, Note_on_c, 0, 47, 60
1, 126587, Note_on_c, 0, 31, 60
1, 126587, Control_c, 0, 64, 0
1, 126587, Note_on_c, 0, 65, 0
1, 126595, Note_on_c, 0, 67, 72
1, 126718, Note_on_c, 0, 50, 45
1, 126718, Control_c, 0, 64, 127
1, 126851, Note_on_c, 0, 65, 69
1, 126851, Note_on_c, 0, 50, 0
1, 127117, Note_on_c, 0, 65, 0
1, 127117, Note_on_c, 0, 63, 66
1, 127130, Control_c, 0, 64, 0
1, 127235, Control_c, 0, 64, 127
1, 127250, Note_on_c, 0, 50, 42
1, 127384, Note_on_c, 0, 63, 0
1, 127384, Note_on_c, 0, 62, 60
1, 127384, Note_on_c, 0, 50, 0
1, 127650, Note_on_c, 0, 62, 0
1, 127650, Note_on_c, 0, 67, 0
1, 127650, Note_on_c, 0, 67, 69
1, 127653, Note_on_c, 0, 60, 53
1, 127657, Control_c, 0, 64, 0
1, 127712, Control_c, 0, 64, 127
1, 127783, Note_on_c, 0, 50, 40
1, 127916, Note_on_c, 0, 50, 0
1, 127916, Note_on_c, 0, 60, 0
1, 127916, Note_on_c, 0, 59, 51
1, 128183, Note_on_c, 0, 67, 0
1, 128183, Note_on_c, 0, 69, 65
1, 128183, Note_on_c, 0, 59, 0
1, 128186, Note_on_c, 0, 31, 0
1, 128186, Note_on_c, 0, 47, 0
1, 128186, Note_on_c, 0, 57, 53
1, 128189, Control_c, 0, 64, 0
1, 128218, Control_c, 0, 64, 127
1, 128314, Note_on_c, 0, 50, 40
1, 128446, Note_on_c, 0, 69, 0
1, 128446, Note_on_c, 0, 71, 69
1, 128446, Note_on_c, 0, 50, 0
1, 128449, Note_on_c, 0, 57, 0
1, 128449, Note_on_c, 0, 55, 50
1, 128663, Note_on_c, 0, 63, 70
1, 128737, Note_on_c, 0, 48, 55
1, 128742, Note_on_c, 0, 71, 0
1, 128742, Note_on_c, 0, 75, 79
1, 128742, Note_on_c, 0, 55, 0
1, 128745, Control_c, 0, 64, 0
1, 128869, Control_c, 0, 64, 127
1, 128877, Note_on_c, 0, 36, 41
1, 129004, Note_on_c, 0, 50, 52
1, 129007, Note_on_c, 0, 48, 0
1, 129012, Note_on_c, 0, 36, 0
1, 129273, Note_on_c, 0, 50, 0
1, 129287, Note_on_c, 0, 51, 57
1, 129294, Control_c, 0, 64, 0
1, 129398, Control_c, 0, 64, 127
1, 129414, Note_on_c, 0, 48, 42
1, 129546, Note_on_c, 0, 48, 0
1, 129546, Note_on_c, 0, 53, 52
1, 129552, Note_on_c, 0, 51, 0
1, 129811, Control_c, 0, 64, 0
1, 129811, Note_on_c, 0, 53, 0
1, 129815, Note_on_c, 0, 55, 58
1, 129869, Control_c, 0, 64, 127
1, 129942, Note_on_c, 0, 48, 42
1, 130073, Note_on_c, 0, 75, 0
1, 130073, Note_on_c, 0, 63, 0
1, 130073, Note_on_c, 0, 74, 61
1, 130076, Note_on_c, 0, 48, 0
1, 130076, Note_on_c, 0, 55, 0
1, 130079, Note_on_c, 0, 57, 49
1, 130334, Note_on_c, 0, 59, 52
1, 130341, Note_on_c, 0, 57, 0
1, 130341, Control_c, 0, 64, 0
1, 130394, Control_c, 0, 64, 127
1, 130443, Note_on_c, 0, 74, 0
1, 130443, Note_on_c, 0, 72, 65
1, 130515, Note_on_c, 0, 59, 0
1, 130515, Note_on_c, 0, 60, 57
1, 130551, Note_on_c, 0, 72, 0
1, 130551, Note_on_c, 0, 70, 63
1, 130663, Note_on_c, 0, 70, 0
1, 130663, Note_on_c, 0, 69, 61
1, 130701, Note_on_c, 0, 60, 0
1, 130701, Note_on_c, 0, 62, 62
1, 130783, Note_on_c, 0, 69, 0
1, 130783, Note_on_c, 0, 67, 60
1, 130917, Note_on_c, 0, 67, 0
1, 130917, Note_on_c, 0, 65, 69
1, 130917, Note_on_c, 0, 63, 69
1, 130920, Note_on_c, 0, 62, 0
1, 130920, Note_on_c, 0, 57, 67
1, 130920, Note_on_c, 0, 41, 67
1, 130923, Control_c, 0, 64, 0
1, 131030, Control_c, 0, 64, 127
1, 131054, Note_on_c, 0, 53, 42
1, 131191, Note_on_c, 0, 63, 0
1, 131191, Note_on_c, 0, 62, 63
1, 131191, Note_on_c, 0, 53, 0
1, 131466, Note_on_c, 0, 62, 0
1, 131466, Note_on_c, 0, 60, 59
1, 131474, Control_c, 0, 64, 0
1, 131542, Control_c, 0, 64, 127
1, 131597, Note_on_c, 0, 53, 42
1, 131727, Note_on_c, 0, 60, 0
1, 131727, Note_on_c, 0, 58, 58
1, 131727, Note_on_c, 0, 53, 0
1, 131989, Note_on_c, 0, 58, 0
1, 131989, Note_on_c, 0, 57, 0
1, 131989, Note_on_c, 0, 57, 57
1, 131995, Control_c, 0, 64, 0
1, 132055, Control_c, 0, 64, 127
1, 132120, Note_on_c, 0, 53, 42
1, 132251, Note_on_c, 0, 53, 0
1, 132251, Note_on_c, 0, 57, 0
1, 132251, Note_on_c, 0, 55, 53
1, 132513, Note_on_c, 0, 55, 0
1, 132513, Note_on_c, 0, 53, 56
1, 132520, Control_c, 0, 64, 0
1, 132565, Control_c, 0, 64, 127
1, 132622, Note_on_c, 0, 65, 0
1, 132622, Note_on_c, 0, 67, 52
1, 132650, Note_on_c, 0, 53, 0
1, 132650, Note_on_c, 0, 51, 55
1, 132734, Note_on_c, 0, 67, 0
1, 132734, Note_on_c, 0, 69, 56
1, 132791, Note_on_c, 0, 51, 0
1, 132791, Note_on_c, 0, 50, 54
1, 132850, Note_on_c, 0, 69, 0
1, 132850, Note_on_c, 0, 70, 60
1, 132944, Note_on_c, 0, 50, 0
1, 132944, Note_on_c, 0, 48, 52
1, 132976, Note_on_c, 0, 70, 0
1, 132976, Note_on_c, 0, 72, 64
1, 133121, Note_on_c, 0, 72, 0
1, 133121, Note_on_c, 0, 74, 69
1, 133121, Note_on_c, 0, 48, 0
1, 133124, Note_on_c, 0, 41, 0
1, 133124, Note_on_c, 0, 34, 44
1, 133124, Note_on_c, 0, 46, 51
1, 133127, Control_c, 0, 64, 0
1, 133213, Control_c, 0, 64, 127
1, 133252, Note_on_c, 0, 62, 42
1, 133384, Note_on_c, 0, 62, 0
1, 133384, Note_on_c, 0, 74, 0
1, 133384, Note_on_c, 0, 72, 65
1, 133665, Note_on_c, 0, 72, 0
1, 133665, Note_on_c, 0, 70, 75
1, 133665, Note_on_c, 0, 46, 0
1, 133668, Note_on_c, 0, 34, 0
1, 133668, Note_on_c, 0, 66, 50
1, 133690, Control_c, 0, 64, 0
1, 133780, Control_c, 0, 64, 127
1, 133805, Note_on_c, 0, 62, 42
1, 133945, Note_on_c, 0, 62, 0
1, 133945, Note_on_c, 0, 70, 0
1, 133945, Note_on_c, 0, 69, 64
1, 134207, Note_on_c, 0, 69, 0
1, 134207, Control_c, 0, 64, 0
1, 134218, Note_on_c, 0, 79, 79
1, 134299, Control_c, 0, 64, 127
1, 134338, Note_on_c, 0, 67, 42
1, 134338, Note_on_c, 0, 66, 0
1, 134338, Note_on_c, 0, 67, 40
1, 134470, Note_on_c, 0, 67, 0
1, 134470, Note_on_c, 0, 79, 0
1, 134470, Note_on_c, 0, 77, 66
1, 134751, Note_on_c, 0, 77, 0
1, 134751, Note_on_c, 0, 75, 74
1, 134751, Note_on_c, 0, 67, 0
1, 134754, Note_on_c, 0, 69, 42
1, 134775, Control_c, 0, 64, 0
1, 134866, Control_c, 0, 64, 127
1, 134891, Note_on_c, 0, 65, 42
1, 135031, Note_on_c, 0, 65, 0
1, 135031, Note_on_c, 0, 75, 0
1, 135031, Note_on_c, 0, 74, 64
1, 135034, Note_on_c, 0, 69, 0
1, 135034, Note_on_c, 0, 70, 40
1, 135292, Note_on_c, 0, 74, 0
1, 135292, Note_on_c, 0, 72, 69
1, 135292, Note_on_c, 0, 70, 0
1, 135295, Note_on_c, 0, 46, 51
1, 135295, Control_c, 0, 64, 0
1, 135385, Control_c, 0, 64, 127
1, 135424, Note_on_c, 0, 60, 42
1, 135556, Note_on_c, 0, 60, 0
1, 135556, Note_on_c, 0, 72, 0
1, 135556, Note_on_c, 0, 70, 61
1, 135837, Note_on_c, 0, 70, 0
1, 135837, Note_on_c, 0, 68, 67
1, 135837, Note_on_c, 0, 46, 0
1, 135840, Note_on_c, 0, 63, 50
1, 135861, Control_c, 0, 64, 0
1, 135952, Control_c, 0, 64, 127
1, 135977, Note_on_c, 0, 60, 42
1, 136117, Note_on_c, 0, 60, 0
1, 136117, Note_on_c, 0, 68, 0
1, 136117, Note_on_c, 0, 67, 62
1, 136378, Note_on_c, 0, 67, 0
1, 136378, Control_c, 0, 64, 0
1, 136389, Note_on_c, 0, 77, 75
1, 136470, Control_c, 0, 64, 127
1, 136510, Note_on_c, 0, 65, 42
1, 136510, Note_on_c, 0, 63, 0
1, 136510, Note_on_c, 0, 65, 40
1, 136642, Note_on_c, 0, 65, 0
1, 136642, Note_on_c, 0, 77, 0
1, 136642, Note_on_c, 0, 75, 66
1, 136923, Note_on_c, 0, 75, 0
1, 136923, Note_on_c, 0, 74, 74
1, 136923, Note_on_c, 0, 65, 0
1, 136926, Note_on_c, 0, 67, 42
1, 136947, Control_c, 0, 64, 0
1, 137038, Control_c, 0, 64, 127
1, 137063, Note_on_c, 0, 63, 42
1, 137202, Note_on_c, 0, 63, 0
1, 137202, Note_on_c, 0, 74, 0
1, 137202, Note_on_c, 0, 72, 64
1, 137205, Note_on_c, 0, 67, 0
1, 137205, Note_on_c, 0, 68, 40
1, 137464, Note_on_c, 0, 72, 0
1, 137464, Note_on_c, 0, 70, 69
1, 137464, Note_on_c, 0, 68, 0
1, 137467, Note_on_c, 0, 46, 51
1, 137467, Control_c, 0, 64, 0
1, 137556, Control_c, 0, 64, 127
1, 137596, Note_on_c, 0, 62, 42
1, 137728, Note_on_c, 0, 62, 0
1, 137728, Note_on_c, 0, 70, 0
1, 137728, Note_on_c, 0, 68, 61
1, 138009, Note_on_c, 0, 68, 0
1, 138009, Note_on_c, 0, 67, 67
1, 138033, Control_c, 0, 64, 0
1, 138124, Control_c, 0, 64, 127
1, 138149, Note_on_c, 0, 56, 42
1, 138288, Note_on_c, 0, 56, 0
1, 138288, Note_on_c, 0, 67, 0
1, 138288, Note_on_c, 0, 66, 62
1, 138291, Note_on_c, 0, 34, 51
1, 138558, Note_on_c, 0, 66, 0
1, 138558, Note_on_c, 0, 67, 69
1, 138558, Note_on_c, 0, 34, 0
1, 138561, Note_on_c, 0, 46, 0
1, 138561, Note_on_c, 0, 39, 51
1, 138561, Control_c, 0, 64, 0
1, 138655, Control_c, 0, 64, 127
1, 138696, Note_on_c, 0, 55, 42
1, 138833, Note_on_c, 0, 55, 0
1, 138833, Note_on_c, 0, 67, 0
1, 138833, Note_on_c, 0, 63, 61
1, 139122, Note_on_c, 0, 63, 0
1, 139122, Note_on_c, 0, 62, 63
1, 139122, Note_on_c, 0, 39, 0
1, 139125, Note_on_c, 0, 33, 39
1, 139125, Note_on_c, 0, 45, 45
1, 139147, Control_c, 0, 64, 0
1, 139239, Control_c, 0, 64, 127
1, 139264, Note_on_c, 0, 55, 42
1, 139407, Note_on_c, 0, 55, 0
1, 139407, Note_on_c, 0, 62, 0
1, 139407, Note_on_c, 0, 61, 58
1, 139722, Note_on_c, 0, 61, 0
1, 139722, Note_on_c, 0, 62, 63
1, 139722, Note_on_c, 0, 33, 0
1, 139725, Note_on_c, 0, 38, 46
1, 139725, Control_c, 0, 64, 0
1, 139807, Control_c, 0, 64, 127
1, 139915, Note_on_c, 0, 62, 0
1, 139915, Note_on_c, 0, 57, 51
1, 140108, Note_on_c, 0, 57, 0
1, 140108, Note_on_c, 0, 55, 51
1, 140301, Note_on_c, 0, 55, 0
1, 140301, Note_on_c, 0, 54, 58
1, 140316, Control_c, 0, 64, 0
1, 140406, Control_c, 0, 64, 127
1, 140601, Note_on_c, 0, 54, 0
1, 140601, Note_on_c, 0, 55, 44
1, 140601, Note_on_c, 0, 52, 38
1, 140604, Note_on_c, 0, 45, 0
1, 140604, Note_on_c, 0, 46, 41
1, 140803, Control_c, 0, 64, 0
1, 140854, Note_on_c, 0, 38, 45
1, 140938, Note_on_c, 0, 52, 0
1, 140938, Note_on_c, 0, 55, 0
1, 140938, Note_on_c, 0, 54, 50
1, 140941, Note_on_c, 0, 57, 58
1, 140941, Note_on_c, 0, 62, 58
1, 140941, Note_on_c, 0, 46, 0
1, 140944, Note_on_c, 0, 38, 0
1, 140944, Note_on_c, 0, 45, 51
1, 140987, Control_c, 0, 64, 127
1, 141461, Control_c, 0, 64, 0
1, 141516, Note_on_c, 0, 62, 0
1, 141516, Note_on_c, 0, 57, 0
1, 141516, Note_on_c, 0, 54, 0
1, 141519, Note_on_c, 0, 45, 0
1, 141519, Note_on_c, 0, 38, 0
1, 141741, Note_on_c, 0, 50, 56
1, 141741, Note_on_c, 0, 38, 52
1, 141788, Note_on_c, 0, 50, 0
1, 141788, Note_on_c, 0, 38, 0
1, 141929, Note_on_c, 0, 55, 60
1, 141929, Note_on_c, 0, 43, 60
1, 141929, Note_on_c, 0, 31, 52
1, 141959, Control_c, 0, 64, 127
1, 141986, Note_on_c, 0, 55, 0
1, 141986, Note_on_c, 0, 50, 45
1, 142042, Note_on_c, 0, 50, 0
1, 142042, Note_on_c, 0, 57, 45
1, 142099, Note_on_c, 0, 57, 0
1, 142099, Note_on_c, 0, 58, 60
1, 142109, Control_c, 0, 64, 0
1, 142149, Note_on_c, 0, 58, 0
1, 142299, Note_on_c, 0, 57, 60
1, 142328, Control_c, 0, 64, 127
1, 142355, Note_on_c, 0, 57, 0
1, 142355, Note_on_c, 0, 50, 48
1, 142412, Note_on_c, 0, 50, 0
1, 142412, Note_on_c, 0, 58, 49
1, 142469, Note_on_c, 0, 58, 0
1, 142469, Note_on_c, 0, 60, 60
1, 142477, Control_c, 0, 64, 0
1, 142519, Note_on_c, 0, 60, 0
1, 142669, Note_on_c, 0, 58, 60
1, 142684, Control_c, 0, 64, 127
1, 142726, Note_on_c, 0, 58, 0
1, 142726, Note_on_c, 0, 50, 46
1, 142783, Note_on_c, 0, 50, 0
1, 142783, Note_on_c, 0, 60, 46
1, 142840, Note_on_c, 0, 60, 0
1, 142840, Note_on_c, 0, 62, 60
1, 142843, Control_c, 0, 64, 0
1, 142889, Note_on_c, 0, 62, 0
1, 143037, Note_on_c, 0, 55, 60
1, 143037, Note_on_c, 0, 31, 0
1, 143037, Note_on_c, 0, 43, 0
1, 143052, Control_c, 0, 64, 127
1, 143094, Note_on_c, 0, 55, 0
1, 143094, Note_on_c, 0, 50, 47
1, 143151, Note_on_c, 0, 50, 0
1, 143151, Note_on_c, 0, 57, 47
1, 143208, Note_on_c, 0, 57, 0
1, 143208, Note_on_c, 0, 58, 60
1, 143208, Note_on_c, 0, 34, 47
1, 143211, Note_on_c, 0, 46, 54
1, 143216, Control_c, 0, 64, 0
1, 143257, Note_on_c, 0, 58, 0
1, 143257, Note_on_c, 0, 46, 0
1, 143257, Note_on_c, 0, 34, 0
1, 143406, Note_on_c, 0, 57, 60
1, 143406, Note_on_c, 0, 36, 52
1, 143406, Note_on_c, 0, 48, 60
1, 143415, Control_c, 0, 64, 127
1, 143462, Note_on_c, 0, 57, 0
1, 143462, Note_on_c, 0, 51, 48
1, 143491, Note_on_c, 0, 48, 0
1, 143491, Note_on_c, 0, 36, 0
1, 143519, Note_on_c, 0, 51, 0
1, 143519, Note_on_c, 0, 58, 48
1, 143576, Note_on_c, 0, 58, 0
1, 143576, Note_on_c, 0, 60, 60
1, 143589, Control_c, 0, 64, 0
1, 143625, Note_on_c, 0, 60, 0
1, 143773, Note_on_c, 0, 54, 60
1, 143773, Note_on_c, 0, 38, 50
1, 143773, Note_on_c, 0, 50, 58
1, 143795, Control_c, 0, 64, 127
1, 143830, Note_on_c, 0, 54, 0
1, 143830, Note_on_c, 0, 48, 47
1, 143858, Note_on_c, 0, 50, 0
1, 143858, Note_on_c, 0, 38, 0
1, 143887, Note_on_c, 0, 48, 0
1, 143887, Note_on_c, 0, 55, 47
1, 143944, Note_on_c, 0, 55, 0
1, 143944, Note_on_c, 0, 57, 60
1, 143950, Control_c, 0, 64, 0
1, 143992, Note_on_c, 0, 57, 0
1, 144139, Note_on_c, 0, 55, 60
1, 144139, Note_on_c, 0, 31, 52
1, 144139, Note_on_c, 0, 43, 60
1, 144147, Control_c, 0, 64, 127
1, 144196, Note_on_c, 0, 55, 0
1, 144196, Note_on_c, 0, 50, 49
1, 144253, Note_on_c, 0, 50, 0
1, 144253, Note_on_c, 0, 57, 49
1, 144310, Note_on_c, 0, 57, 0
1, 144310, Note_on_c, 0, 58, 60
1, 144310, Note_on_c, 0, 43, 0
1, 144313, Note_on_c, 0, 31, 0
1, 144321, Control_c, 0, 64, 0
1, 144358, Note_on_c, 0, 58, 0
1, 144504, Note_on_c, 0, 57, 60
1, 144593, Note_on_c, 0, 57, 0
1, 144638, Note_on_c, 0, 54, 54
1, 144683, Note_on_c, 0, 54, 0
1, 144683, Note_on_c, 0, 50, 68
1, 144683, Note_on_c, 0, 38, 59
1, 144730, Note_on_c, 0, 50, 0
1, 144730, Note_on_c, 0, 38, 0
1, 144871, Note_on_c, 0, 55, 60
1, 144871, Note_on_c, 0, 31, 52
1, 144871, Note_on_c, 0, 43, 60
1, 144874, Control_c, 0, 64, 127
1, 144928, Note_on_c, 0, 55, 0
1, 144928, Note_on_c, 0, 50, 47
1, 144984, Note_on_c, 0, 50, 0
1, 144984, Note_on_c, 0, 57, 47
1, 145041, Note_on_c, 0, 57, 0
1, 145041, Note_on_c, 0, 58, 60
1, 145051, Control_c, 0, 64, 0
1, 145091, Note_on_c, 0, 58, 0
1, 145241, Note_on_c, 0, 57, 60
1, 145270, Control_c, 0, 64, 127
1, 145297, Note_on_c, 0, 57, 0
1, 145297, Note_on_c, 0, 50, 49
1, 145354, Note_on_c, 0, 50, 0
1, 145354, Note_on_c, 0, 58, 49
1, 145411, Note_on_c, 0, 58, 0
1, 145411, Note_on_c, 0, 60, 60
1, 145419, Control_c, 0, 64, 0
1, 145461, Note_on_c, 0, 60, 0
1, 145611, Note_on_c, 0, 58, 60
1, 145626, Control_c, 0, 64, 127
1, 145668, Note_on_c, 0, 58, 0
1, 145668, Note_on_c, 0, 50, 47
1, 145725, Note_on_c, 0, 50, 0
1, 145725, Note_on_c, 0, 60, 47
1, 145782, Note_on_c, 0, 60, 0
1, 145782, Note_on_c, 0, 62, 60
1, 145785, Control_c, 0, 64, 0
1, 145831, Note_on_c, 0, 62, 0
1, 145979, Note_on_c, 0, 55, 60
1, 145979, Note_on_c, 0, 43, 0
1, 145979, Note_on_c, 0, 31, 0
1, 145994, Control_c, 0, 64, 127
1, 146036, Note_on_c, 0, 55, 0
1, 146036, Note_on_c, 0, 50, 49
1, 146093, Note_on_c, 0, 50, 0
1, 146093, Note_on_c, 0, 57, 49
1, 146150, Note_on_c, 0, 57, 0
1, 146150, Note_on_c, 0, 58, 60
1, 146150, Note_on_c, 0, 34, 47
1, 146153, Note_on_c, 0, 46, 54
1, 146158, Control_c, 0, 64, 0
1, 146199, Note_on_c, 0, 58, 0
1, 146199, Note_on_c, 0, 46, 0
1, 146199, Note_on_c, 0, 34, 0
1, 146348, Note_on_c, 0, 57, 60
1, 146348, Note_on_c, 0, 36, 52
1, 146348, Note_on_c, 0, 48, 60
1, 146357, Control_c, 0, 64, 127
1, 146404, Note_on_c, 0, 57, 0
1, 146404, Note_on_c, 0, 51, 49
1, 146433, Note_on_c, 0, 48, 0
1, 146433, Note_on_c, 0, 36, 0
1, 146461, Note_on_c, 0, 51, 0
1, 146461, Note_on_c, 0, 58, 49
1, 146518, Note_on_c, 0, 58, 0
1, 146518, Note_on_c, 0, 60, 60
1, 146531, Control_c, 0, 64, 0
1, 146567, Note_on_c, 0, 60, 0
1, 146715, Note_on_c, 0, 59, 60
1, 146715, Note_on_c, 0, 38, 50
1, 146715, Note_on_c, 0, 50, 58
1, 146737, Control_c, 0, 64, 127
1, 146772, Note_on_c, 0, 59, 0
1, 146772, Note_on_c, 0, 50, 48
1, 146800, Note_on_c, 0, 50, 0
1, 146800, Note_on_c, 0, 38, 0
1, 146829, Note_on_c, 0, 50, 0
1, 146829, Note_on_c, 0, 60, 48
1, 146886, Note_on_c, 0, 60, 0
1, 146886, Note_on_c, 0, 62, 60
1, 146892, Control_c, 0, 64, 0
1, 146934, Note_on_c, 0, 62, 0
1, 147081, Note_on_c, 0, 60, 60
1, 147081, Note_on_c, 0, 51, 60
1, 147081, Note_on_c, 0, 39, 52
1, 147089, Control_c, 0, 64, 127
1, 147138, Note_on_c, 0, 60, 0
1, 147138, Note_on_c, 0, 55, 52
1, 147195, Note_on_c, 0, 55, 0
1, 147195, Note_on_c, 0, 62, 54
1, 147252, Note_on_c, 0, 62, 0
1, 147252, Note_on_c, 0, 63, 60
1, 147252, Note_on_c, 0, 39, 0
1, 147255, Note_on_c, 0, 51, 0
1, 147262, Control_c, 0, 64, 0
1, 147297, Note_on_c, 0, 63, 0
1, 147432, Note_on_c, 0, 59, 64
1, 147444, Control_c, 0, 64, 127
1, 147486, Note_on_c, 0, 59, 0
1, 147486, Note_on_c, 0, 53, 60
1, 147540, Note_on_c, 0, 53, 0
1, 147540, Note_on_c, 0, 60, 60
1, 147594, Note_on_c, 0, 60, 0
1, 147594, Note_on_c, 0, 62, 66
1, 147594, Note_on_c, 0, 38, 45
1, 147597, Note_on_c, 0, 50, 52
1, 147600, Control_c, 0, 64, 0
1, 147642, Note_on_c, 0, 62, 0
1, 147689, Note_on_c, 0, 50, 0
1, 147689, Note_on_c, 0, 38, 0
1, 147785, Note_on_c, 0, 60, 69
1, 147785, Note_on_c, 0, 51, 65
1, 147785, Note_on_c, 0, 39, 56
1, 147795, Control_c, 0, 64, 127
1, 147842, Note_on_c, 0, 60, 0
1, 147842, Note_on_c, 0, 55, 61
1, 147870, Note_on_c, 0, 39, 0
1, 147870, Note_on_c, 0, 51, 0
1, 147898, Note_on_c, 0, 55, 0
1, 147898, Note_on_c, 0, 62, 61
1, 147955, Note_on_c, 0, 62, 0
1, 147955, Note_on_c, 0, 63, 69
1, 147968, Control_c, 0, 64, 0
1, 148004, Note_on_c, 0, 63, 0
1, 148152, Note_on_c, 0, 63, 73
1, 148152, Note_on_c, 0, 48, 67
1, 148152, Note_on_c, 0, 36, 58
1, 148174, Control_c, 0, 64, 127
1, 148209, Note_on_c, 0, 63, 0
1, 148209, Note_on_c, 0, 55, 63
1, 148238, Note_on_c, 0, 36, 0
1, 148238, Note_on_c, 0, 48, 0
1, 148266, Note_on_c, 0, 55, 0
1, 148266, Note_on_c, 0, 65, 64
1, 148323, Note_on_c, 0, 65, 0
1, 148323, Note_on_c, 0, 67, 71
1, 148330, Control_c, 0, 64, 0
1, 148372, Note_on_c, 0, 67, 0
1, 148518, Note_on_c, 0, 66, 80
1, 148518, Note_on_c, 0, 38, 60
1, 148518, Note_on_c, 0, 50, 69
1, 148528, Control_c, 0, 64, 127
1, 148575, Note_on_c, 0, 66, 0
1, 148575, Note_on_c, 0, 54, 67
1, 148632, Note_on_c, 0, 54, 0
1, 148632, Note_on_c, 0, 67, 67
1, 148689, Note_on_c, 0, 67, 0
1, 148689, Note_on_c, 0, 69, 81
1, 148689, Note_on_c, 0, 50, 0
1, 148692, Note_on_c, 0, 38, 0
1, 148702, Control_c, 0, 64, 0
1, 148738, Note_on_c, 0, 69, 0
1, 148886, Note_on_c, 0, 62, 77
1, 148935, Note_on_c, 0, 62, 0
1, 149083, Note_on_c, 0, 62, 83
1, 149083, Note_on_c, 0, 50, 80
1, 149130, Note_on_c, 0, 62, 0
1, 149130, Note_on_c, 0, 50, 0
1, 149271, Note_on_c, 0, 67, 74
1, 149271, Note_on_c, 0, 46, 74
1, 149271, Note_on_c, 0, 55, 86
1, 149274, Note_on_c, 0, 43, 74
1, 149274, Control_c, 0, 64, 127
1, 149329, Note_on_c, 0, 67, 0
1, 149329, Note_on_c, 0, 62, 59
1, 149388, Note_on_c, 0, 62, 0
1, 149388, Note_on_c, 0, 69, 59
1, 149446, Note_on_c, 0, 69, 0
1, 149446, Note_on_c, 0, 70, 74
1, 149458, Control_c, 0, 64, 0
1, 149496, Note_on_c, 0, 70, 0
1, 149645, Note_on_c, 0, 69, 74
1, 149645, Note_on_c, 0, 55, 0
1, 149645, Note_on_c, 0, 46, 0
1, 149648, Note_on_c, 0, 57, 90
1, 149648, Note_on_c, 0, 50, 78
1, 149696, Control_c, 0, 64, 127
1, 149704, Note_on_c, 0, 69, 0
1, 149704, Note_on_c, 0, 62, 60
1, 149762, Note_on_c, 0, 62, 0
1, 149762, Note_on_c, 0, 70, 60
1, 149820, Note_on_c, 0, 70, 0
1, 149820, Note_on_c, 0, 72, 74
1, 149838, Control_c, 0, 64, 0
1, 149870, Note_on_c, 0, 72, 0
1, 150021, Note_on_c, 0, 70, 74
1, 150021, Note_on_c, 0, 50, 0
1, 150021, Note_on_c, 0, 57, 0
1, 150024, Note_on_c, 0, 43, 0
1, 150024, Note_on_c, 0, 55, 81
1, 150024, Note_on_c, 0, 58, 94
1, 150059, Control_c, 0, 64, 127
1, 150079, Note_on_c, 0, 70, 0
1, 150079, Note_on_c, 0, 62, 59
1, 150137, Note_on_c, 0, 62, 0
1, 150137, Note_on_c, 0, 72, 59
1, 150195, Note_on_c, 0, 72, 0
1, 150195, Note_on_c, 0, 74, 74
1, 150215, Control_c, 0, 64, 0
1, 150245, Note_on_c, 0, 74, 0
1, 150393, Note_on_c, 0, 67, 74
1, 150393, Note_on_c, 0, 58, 0
1, 150393, Note_on_c, 0, 55, 0
1, 150443, Control_c, 0, 64, 127
1, 150450, Note_on_c, 0, 67, 0
1, 150450, Note_on_c, 0, 62, 61
1, 150507, Note_on_c, 0, 62, 0
1, 150507, Note_on_c, 0, 69, 61
1, 150564, Note_on_c, 0, 69, 0
1, 150564, Note_on_c, 0, 70, 74
1, 150564, Note_on_c, 0, 55, 82
1, 150567, Note_on_c, 0, 46, 71
1, 150572, Control_c, 0, 64, 0
1, 150613, Note_on_c, 0, 70, 0
1, 150613, Note_on_c, 0, 46, 0
1, 150613, Note_on_c, 0, 55, 0
1, 150761, Note_on_c, 0, 69, 74
1, 150761, Note_on_c, 0, 48, 77
1, 150761, Note_on_c, 0, 57, 89
1, 150764, Note_on_c, 0, 55, 77
1, 150772, Control_c, 0, 64, 127
1, 150819, Note_on_c, 0, 69, 0
1, 150819, Note_on_c, 0, 63, 60
1, 150876, Note_on_c, 0, 63, 0
1, 150876, Note_on_c, 0, 70, 60
1, 150934, Note_on_c, 0, 70, 0
1, 150934, Note_on_c, 0, 72, 74
1, 150937, Control_c, 0, 64, 0
1, 150983, Note_on_c, 0, 72, 0
1, 151131, Note_on_c, 0, 66, 74
1, 151131, Note_on_c, 0, 55, 0
1, 151131, Note_on_c, 0, 57, 0
1, 151134, Note_on_c, 0, 48, 0
1, 151134, Note_on_c, 0, 62, 87
1, 151134, Note_on_c, 0, 54, 76
1, 151137, Note_on_c, 0, 50, 71
1, 151153, Control_c, 0, 64, 127
1, 151189, Note_on_c, 0, 66, 0
1, 151189, Note_on_c, 0, 60, 60
1, 151246, Note_on_c, 0, 60, 0
1, 151246, Note_on_c, 0, 67, 60
1, 151304, Note_on_c, 0, 67, 0
1, 151304, Note_on_c, 0, 69, 74
1, 151311, Control_c, 0, 64, 0
1, 151353, Note_on_c, 0, 69, 0
1, 151499, Note_on_c, 0, 67, 74
1, 151499, Note_on_c, 0, 50, 0
1, 151499, Note_on_c, 0, 54, 0
1, 151502, Note_on_c, 0, 62, 0
1, 151502, Note_on_c, 0, 55, 91
1, 151502, Note_on_c, 0, 46, 78
1, 151505, Note_on_c, 0, 50, 78
1, 151536, Control_c, 0, 64, 127
1, 151557, Note_on_c, 0, 67, 0
1, 151557, Note_on_c, 0, 62, 61
1, 151615, Note_on_c, 0, 62, 0
1, 151615, Note_on_c, 0, 69, 61
1, 151672, Note_on_c, 0, 69, 0
1, 151672, Note_on_c, 0, 70, 74
1, 151683, Control_c, 0, 64, 0
1, 151718, Note_on_c, 0, 70, 0
1, 151854, Note_on_c, 0, 69, 74
1, 151854, Note_on_c, 0, 50, 0
1, 151854, Note_on_c, 0, 46, 0
1, 151857, Note_on_c, 0, 55, 0
1, 151940, Note_on_c, 0, 69, 0
1, 151983, Note_on_c, 0, 66, 62
1, 152026, Note_on_c, 0, 66, 0
1, 152026, Note_on_c, 0, 62, 72
1, 152026, Note_on_c, 0, 50, 81
1, 152074, Note_on_c, 0, 62, 0
1, 152074, Note_on_c, 0, 50, 0
1, 152215, Note_on_c, 0, 67, 74
1, 152215, Note_on_c, 0, 43, 78
1, 152215, Note_on_c, 0, 46, 78
1, 152218, Note_on_c, 0, 55, 90
1, 152218, Control_c, 0, 64, 127
1, 152273, Note_on_c, 0, 67, 0
1, 152273, Note_on_c, 0, 62, 59
1, 152331, Note_on_c, 0, 62, 0
1, 152331, Note_on_c, 0, 69, 59
1, 152389, Note_on_c, 0, 69, 0
1, 152389, Note_on_c, 0, 70, 74
1, 152398, Control_c, 0, 64, 0
1, 152439, Note_on_c, 0, 70, 0
1, 152589, Note_on_c, 0, 69, 74
1, 152589, Note_on_c, 0, 55, 0
1, 152589, Note_on_c, 0, 46, 0
1, 152592, Note_on_c, 0, 57, 91
1, 152592, Note_on_c, 0, 50, 78
1, 152619, Control_c, 0, 64, 127
1, 152647, Note_on_c, 0, 69, 0
1, 152647, Note_on_c, 0, 62, 62
1, 152705, Note_on_c, 0, 62, 0
1, 152705, Note_on_c, 0, 70, 62
1, 152763, Note_on_c, 0, 70, 0
1, 152763, Note_on_c, 0, 72, 74
1, 152767, Control_c, 0, 64, 0
1, 152813, Note_on_c, 0, 72, 0
1, 152964, Note_on_c, 0, 70, 74
1, 152964, Note_on_c, 0, 50, 0
1, 152964, Note_on_c, 0, 57, 0
1, 152967, Note_on_c, 0, 43, 0
1, 152967, Note_on_c, 0, 55, 82
1, 152967, Note_on_c, 0, 58, 95
1, 152989, Control_c, 0, 64, 127
1, 153022, Note_on_c, 0, 70, 0
1, 153022, Note_on_c, 0, 62, 59
1, 153080, Note_on_c, 0, 62, 0
1, 153080, Note_on_c, 0, 72, 59
1, 153138, Note_on_c, 0, 72, 0
1, 153138, Note_on_c, 0, 74, 74
1, 153141, Control_c, 0, 64, 0
1, 153192, Note_on_c, 0, 74, 0
1, 153354, Note_on_c, 0, 75, 81
1, 153354, Note_on_c, 0, 58, 0
1, 153354, Note_on_c, 0, 55, 0
1, 153368, Control_c, 0, 64, 127
1, 153408, Note_on_c, 0, 75, 0
1, 153408, Note_on_c, 0, 67, 61
1, 153461, Note_on_c, 0, 67, 0
1, 153461, Note_on_c, 0, 77, 61
1, 153515, Note_on_c, 0, 77, 0
1, 153515, Note_on_c, 0, 79, 74
1, 153515, Note_on_c, 0, 51, 63
1, 153518, Note_on_c, 0, 39, 55
1, 153523, Control_c, 0, 64, 0
1, 153565, Note_on_c, 0, 79, 0
1, 153565, Note_on_c, 0, 39, 0
1, 153565, Note_on_c, 0, 51, 0
1, 153713, Note_on_c, 0, 69, 69
1, 153713, Note_on_c, 0, 53, 84
1, 153713, Note_on_c, 0, 41, 72
1, 153723, Control_c, 0, 64, 127
1, 153771, Note_on_c, 0, 69, 0
1, 153771, Note_on_c, 0, 60, 56
1, 153800, Note_on_c, 0, 41, 0
1, 153800, Note_on_c, 0, 53, 0
1, 153830, Note_on_c, 0, 60, 0
1, 153830, Note_on_c, 0, 70, 61
1, 153888, Note_on_c, 0, 70, 0
1, 153888, Note_on_c, 0, 72, 69
1, 153902, Control_c, 0, 64, 0
1, 153941, Note_on_c, 0, 72, 0
1, 154100, Note_on_c, 0, 74, 81
1, 154100, Note_on_c, 0, 34, 65
1, 154100, Note_on_c, 0, 46, 75
1, 154121, Control_c, 0, 64, 127
1, 154154, Note_on_c, 0, 74, 0
1, 154154, Note_on_c, 0, 65, 63
1, 154181, Note_on_c, 0, 46, 0
1, 154181, Note_on_c, 0, 34, 0
1, 154208, Note_on_c, 0, 65, 0
1, 154208, Note_on_c, 0, 75, 63
1, 154262, Note_on_c, 0, 75, 0
1, 154262, Note_on_c, 0, 77, 75
1, 154269, Control_c, 0, 64, 0
1, 154311, Note_on_c, 0, 77, 0
1, 154458, Note_on_c, 0, 67, 69
1, 154458, Note_on_c, 0, 51, 85
1, 154458, Note_on_c, 0, 39, 73
1, 154466, Control_c, 0, 64, 127
1, 154516, Note_on_c, 0, 67, 0
1, 154516, Note_on_c, 0, 58, 57
1, 154574, Note_on_c, 0, 58, 0
1, 154574, Note_on_c, 0, 69, 57
1, 154632, Note_on_c, 0, 69, 0
1, 154632, Note_on_c, 0, 70, 69
1, 154632, Note_on_c, 0, 39, 0
1, 154635, Note_on_c, 0, 51, 0
1, 154643, Control_c, 0, 64, 0
1, 154678, Note_on_c, 0, 70, 0
1, 154815, Note_on_c, 0, 72, 78
1, 154827, Control_c, 0, 64, 127
1, 154870, Note_on_c, 0, 72, 0
1, 154870, Note_on_c, 0, 63, 64
1, 154926, Note_on_c, 0, 63, 0
1, 154926, Note_on_c, 0, 74, 64
1, 154981, Note_on_c, 0, 74, 0
1, 154981, Note_on_c, 0, 75, 76
1, 154981, Note_on_c, 0, 33, 78
1, 154984, Note_on_c, 0, 45, 91
1, 154987, Control_c, 0, 64, 0
1, 155029, Note_on_c, 0, 75, 0
1, 155172, Note_on_c, 0, 66, 69
1, 155172, Note_on_c, 0, 45, 0
1, 155172, Note_on_c, 0, 33, 0
1, 155175, Note_on_c, 0, 50, 84
1, 155175, Note_on_c, 0, 38, 72
1, 155182, Control_c, 0, 64, 127
1, 155230, Note_on_c, 0, 66, 0
1, 155230, Note_on_c, 0, 57, 56
1, 155287, Note_on_c, 0, 57, 0
1, 155287, Note_on_c, 0, 67, 56
1, 155345, Note_on_c, 0, 67, 0
1, 155345, Note_on_c, 0, 69, 68
1, 155358, Control_c, 0, 64, 0
1, 155394, Note_on_c, 0, 69, 0
1, 155542, Note_on_c, 0, 72, 76
1, 155542, Note_on_c, 0, 38, 0
1, 155542, Note_on_c, 0, 50, 0
1, 155564, Control_c, 0, 64, 127
1, 155599, Note_on_c, 0, 72, 0
1, 155599, Note_on_c, 0, 63, 61
1, 155656, Note_on_c, 0, 63, 0
1, 155656, Note_on_c, 0, 74, 61
1, 155713, Note_on_c, 0, 74, 0
1, 155713, Note_on_c, 0, 75, 75
1, 155713, Note_on_c, 0, 44, 87
1, 155716, Note_on_c, 0, 32, 75
1, 155719, Control_c, 0, 64, 0
1, 155761, Note_on_c, 0, 75, 0
1, 155908, Note_on_c, 0, 66, 72
1, 155908, Note_on_c, 0, 32, 0
1, 155908, Note_on_c, 0, 44, 0
1, 155911, Note_on_c, 0, 50, 78
1, 155911, Note_on_c, 0, 38, 67
1, 155918, Control_c, 0, 64, 127
1, 155965, Note_on_c, 0, 66, 0
1, 155965, Note_on_c, 0, 57, 61
1, 156022, Note_on_c, 0, 57, 0
1, 156022, Note_on_c, 0, 67, 56
1, 156079, Note_on_c, 0, 67, 0
1, 156079, Note_on_c, 0, 69, 70
1, 156093, Control_c, 0, 64, 0
1, 156129, Note_on_c, 0, 69, 0
1, 156276, Note_on_c, 0, 72, 76
1, 156276, Note_on_c, 0, 38, 0
1, 156276, Note_on_c, 0, 50, 0
1, 156321, Control_c, 0, 64, 127
1, 156333, Note_on_c, 0, 72, 0
1, 156333, Note_on_c, 0, 63, 60
1, 156390, Note_on_c, 0, 63, 0
1, 156390, Note_on_c, 0, 74, 60
1, 156447, Note_on_c, 0, 74, 0
1, 156447, Note_on_c, 0, 75, 75
1, 156447, Note_on_c, 0, 33, 75
1, 156450, Note_on_c, 0, 45, 87
1, 156454, Control_c, 0, 64, 0
1, 156496, Note_on_c, 0, 75, 0
1, 156643, Note_on_c, 0, 66, 76
1, 156643, Note_on_c, 0, 45, 0
1, 156643, Note_on_c, 0, 33, 0
1, 156646, Note_on_c, 0, 38, 67
1, 156646, Note_on_c, 0, 50, 78
1, 156653, Control_c, 0, 64, 127
1, 156701, Note_on_c, 0, 66, 0
1, 156701, Note_on_c, 0, 57, 63
1, 156759, Note_on_c, 0, 57, 0
1, 156759, Note_on_c, 0, 67, 63
1, 156818, Note_on_c, 0, 67, 0
1, 156818, Note_on_c, 0, 69, 74
1, 156826, Control_c, 0, 64, 0
1, 156866, Note_on_c, 0, 69, 0
1, 157012, Note_on_c, 0, 60, 69
1, 157063, Control_c, 0, 64, 127
1, 157072, Note_on_c, 0, 60, 0
1, 157072, Note_on_c, 0, 57, 57
1, 157132, Note_on_c, 0, 57, 0
1, 157132, Note_on_c, 0, 62, 57
1, 157192, Note_on_c, 0, 62, 0
1, 157192, Note_on_c, 0, 63, 66
1, 157200, Control_c, 0, 64, 0
1, 157242, Note_on_c, 0, 63, 0
1, 157390, Note_on_c, 0, 54, 61
1, 157390, Note_on_c, 0, 50, 0
1, 157416, Control_c, 0, 64, 127
1, 157450, Note_on_c, 0, 54, 0
1, 157450, Note_on_c, 0, 50, 53
1, 157510, Note_on_c, 0, 50, 0
1, 157510, Note_on_c, 0, 55, 53
1, 157570, Note_on_c, 0, 55, 0
1, 157570, Note_on_c, 0, 57, 62
1, 157583, Control_c, 0, 64, 0
1, 157619, Note_on_c, 0, 57, 0
1, 157767, Note_on_c, 0, 50, 60
1, 157767, Note_on_c, 0, 38, 0
1, 157816, Note_on_c, 0, 50, 0
1, 157964, Note_on_c, 0, 50, 62
1, 157964, Note_on_c, 0, 38, 62
1, 158011, Note_on_c, 0, 50, 0
1, 158011, Note_on_c, 0, 38, 0
1, 158153, Note_on_c, 0, 55, 60
1, 158153, Note_on_c, 0, 31, 52
1, 158153, Note_on_c, 0, 43, 60
1, 158156, Control_c, 0, 64, 127
1, 158209, Note_on_c, 0, 55, 0
1, 158209, Note_on_c, 0, 50, 48
1, 158266, Note_on_c, 0, 50, 0
1, 158266, Note_on_c, 0, 57, 49
1, 158322, Note_on_c, 0, 57, 0
1, 158322, Note_on_c, 0, 58, 60
1, 158332, Control_c, 0, 64, 0
1, 158372, Note_on_c, 0, 58, 0
1, 158522, Note_on_c, 0, 57, 60
1, 158552, Control_c, 0, 64, 127
1, 158579, Note_on_c, 0, 57, 0
1, 158579, Note_on_c, 0, 50, 49
1, 158635, Note_on_c, 0, 50, 0
1, 158635, Note_on_c, 0, 58, 49
1, 158692, Note_on_c, 0, 58, 0
1, 158692, Note_on_c, 0, 60, 60
1, 158700, Control_c, 0, 64, 0
1, 158742, Note_on_c, 0, 60, 0
1, 158893, Note_on_c, 0, 58, 60
1, 158907, Control_c, 0, 64, 127
1, 158949, Note_on_c, 0, 58, 0
1, 158949, Note_on_c, 0, 50, 48
1, 159006, Note_on_c, 0, 50, 0
1, 159006, Note_on_c, 0, 60, 48
1, 159063, Note_on_c, 0, 60, 0
1, 159063, Note_on_c, 0, 62, 61
1, 159066, Control_c, 0, 64, 0
1, 159112, Note_on_c, 0, 62, 0
1, 159261, Note_on_c, 0, 55, 62
1, 159261, Note_on_c, 0, 43, 0
1, 159261, Note_on_c, 0, 31, 0
1, 159276, Control_c, 0, 64, 127
1, 159317, Note_on_c, 0, 55, 0
1, 159317, Note_on_c, 0, 50, 52
1, 159374, Note_on_c, 0, 50, 0
1, 159374, Note_on_c, 0, 57, 52
1, 159431, Note_on_c, 0, 57, 0
1, 159431, Note_on_c, 0, 58, 63
1, 159431, Note_on_c, 0, 46, 57
1, 159434, Note_on_c, 0, 34, 49
1, 159439, Control_c, 0, 64, 0
1, 159480, Note_on_c, 0, 58, 0
1, 159480, Note_on_c, 0, 34, 0
1, 159480, Note_on_c, 0, 46, 0
1, 159629, Note_on_c, 0, 57, 65
1, 159629, Note_on_c, 0, 48, 65
1, 159629, Note_on_c, 0, 36, 56
1, 159639, Control_c, 0, 64, 127
1, 159686, Note_on_c, 0, 57, 0
1, 159686, Note_on_c, 0, 51, 53
1, 159742, Note_on_c, 0, 51, 0
1, 159742, Note_on_c, 0, 58, 53
1, 159799, Note_on_c, 0, 58, 0
1, 159799, Note_on_c, 0, 60, 66
1, 159812, Control_c, 0, 64, 0
1, 159848, Note_on_c, 0, 60, 0
1, 159996, Note_on_c, 0, 59, 67
1, 159996, Note_on_c, 0, 36, 0
1, 159996, Note_on_c, 0, 48, 0
1, 159999, Note_on_c, 0, 50, 65
1, 159999, Note_on_c, 0, 38, 56
1, 160018, Control_c, 0, 64, 127
1, 160053, Note_on_c, 0, 59, 0
1, 160053, Note_on_c, 0, 53, 56
1, 160110, Note_on_c, 0, 53, 0
1, 160110, Note_on_c, 0, 60, 56
1, 160167, Note_on_c, 0, 60, 0
1, 160167, Note_on_c, 0, 62, 68
1, 160173, Control_c, 0, 64, 0
1, 160216, Note_on_c, 0, 62, 0
1, 160362, Note_on_c, 0, 60, 70
1, 160362, Note_on_c, 0, 38, 0
1, 160362, Note_on_c, 0, 50, 0
1, 160365, Note_on_c, 0, 39, 60
1, 160365, Note_on_c, 0, 51, 70
1, 160372, Control_c, 0, 64, 127
1, 160419, Note_on_c, 0, 60, 0
1, 160419, Note_on_c, 0, 51, 58
1, 160476, Note_on_c, 0, 51, 0
1, 160476, Note_on_c, 0, 62, 59
1, 160532, Note_on_c, 0, 62, 0
1, 160532, Note_on_c, 0, 63, 71
1, 160544, Control_c, 0, 64, 0
1, 160577, Note_on_c, 0, 63, 0
1, 160713, Note_on_c, 0, 59, 72
1, 160713, Note_on_c, 0, 51, 0
1, 160713, Note_on_c, 0, 39, 0
1, 160735, Control_c, 0, 64, 127
1, 160770, Note_on_c, 0, 59, 0
1, 160770, Note_on_c, 0, 53, 61
1, 160827, Note_on_c, 0, 53, 0
1, 160827, Note_on_c, 0, 60, 62
1, 160884, Note_on_c, 0, 60, 0
1, 160884, Note_on_c, 0, 62, 73
1, 160884, Note_on_c, 0, 38, 60
1, 160887, Note_on_c, 0, 50, 70
1, 160890, Control_c, 0, 64, 0
1, 160932, Note_on_c, 0, 62, 0
1, 160981, Note_on_c, 0, 50, 0
1, 160981, Note_on_c, 0, 38, 0
1, 161079, Note_on_c, 0, 60, 75
1, 161079, Note_on_c, 0, 48, 75
1, 161079, Note_on_c, 0, 36, 64
1, 161089, Control_c, 0, 64, 127
1, 161136, Note_on_c, 0, 60, 0
1, 161136, Note_on_c, 0, 55, 65
1, 161192, Note_on_c, 0, 55, 0
1, 161192, Note_on_c, 0, 62, 66
1, 161249, Note_on_c, 0, 62, 0
1, 161249, Note_on_c, 0, 63, 76
1, 161337, Note_on_c, 0, 63, 0
1, 161337, Note_on_c, 0, 60, 73
1, 161425, Note_on_c, 0, 60, 0
1, 161425, Note_on_c, 0, 62, 77
1, 161425, Note_on_c, 0, 36, 0
1, 161428, Note_on_c, 0, 48, 0
1, 161428, Note_on_c, 0, 50, 74
1, 161428, Note_on_c, 0, 38, 64
1, 161431, Control_c, 0, 64, 0
1, 161473, Control_c, 0, 64, 127
1, 161482, Note_on_c, 0, 62, 0
1, 161482, Note_on_c, 0, 55, 68
1, 161539, Note_on_c, 0, 55, 0
1, 161539, Note_on_c, 0, 63, 68
1, 161596, Note_on_c, 0, 63, 0
1, 161596, Note_on_c, 0, 65, 78
1, 161603, Control_c, 0, 64, 0
1, 161648, Note_on_c, 0, 65, 0
1, 161803, Note_on_c, 0, 64, 80
1, 161803, Note_on_c, 0, 38, 0
1, 161803, Note_on_c, 0, 50, 0
1, 161806, Note_on_c, 0, 49, 80
1, 161806, Note_on_c, 0, 37, 68
1, 161814, Control_c, 0, 64, 127
1, 161863, Note_on_c, 0, 64, 0
1, 161863, Note_on_c, 0, 55, 70
1, 161922, Note_on_c, 0, 55, 0
1, 161922, Note_on_c, 0, 66, 70
1, 161982, Note_on_c, 0, 66, 0
1, 161982, Note_on_c, 0, 67, 80
1, 161990, Control_c, 0, 64, 0
1, 162086, Note_on_c, 0, 67, 0
1, 162191, Note_on_c, 0, 67, 85
1, 162244, Control_c, 0, 64, 127
1, 162255, Note_on_c, 0, 67, 0
1, 162255, Note_on_c, 0, 58, 75
1, 162318, Note_on_c, 0, 58, 0
1, 162318, Note_on_c, 0, 69, 74
1, 162381, Note_on_c, 0, 69, 0
1, 162381, Note_on_c, 0, 70, 85
1, 162381, Note_on_c, 0, 37, 0
1, 162384, Note_on_c, 0, 49, 0
1, 162384, Note_on_c, 0, 37, 66
1, 162384, Note_on_c, 0, 49, 77
1, 162389, Control_c, 0, 64, 0
1, 162441, Note_on_c, 0, 70, 0
1, 162620, Note_on_c, 0, 62, 83
1, 162620, Note_on_c, 0, 74, 96
1, 162620, Note_on_c, 0, 49, 0
1, 162623, Note_on_c, 0, 37, 0
1, 162623, Note_on_c, 0, 38, 82
1, 162623, Note_on_c, 0, 50, 95
1, 163034, Note_on_c, 0, 74, 0
1, 163034, Note_on_c, 0, 62, 0
1, 163034, Note_on_c, 0, 57, 76
1, 163037, Note_on_c, 0, 62, 76
1, 163037, Note_on_c, 0, 66, 88
1, 163037, Note_on_c, 0, 50, 0
1, 163040, Note_on_c, 0, 38, 0
1, 163040, Note_on_c, 0, 38, 74
1, 163040, Note_on_c, 0, 50, 87
1, 163448, Note_on_c, 0, 66, 0
1, 163448, Note_on_c, 0, 62, 0
1, 163448, Note_on_c, 0, 57, 0
1, 163451, Note_on_c, 0, 64, 80
1, 163451, Note_on_c, 0, 50, 0
1, 163451, Note_on_c, 0, 38, 0
1, 163454, Note_on_c, 0, 37, 68
1, 163454, Note_on_c, 0, 49, 80
1, 163465, Control_c, 0, 64, 127
1, 163507, Note_on_c, 0, 64, 0
1, 163507, Note_on_c, 0, 55, 70
1, 163565, Note_on_c, 0, 55, 0
1, 163565, Note_on_c, 0, 66, 70
1, 163624, Note_on_c, 0, 66, 0
1, 163624, Note_on_c, 0, 67, 80
1, 163631, Control_c, 0, 64, 0
1, 163728, Note_on_c, 0, 67, 0
1, 163832, Note_on_c, 0, 67, 87
1, 163884, Control_c, 0, 64, 127
1, 163894, Note_on_c, 0, 67, 0
1, 163894, Note_on_c, 0, 58, 77
1, 163956, Note_on_c, 0, 58, 0
1, 163956, Note_on_c, 0, 69, 80
1, 164018, Note_on_c, 0, 69, 0
1, 164018, Note_on_c, 0, 70, 92
1, 164018, Note_on_c, 0, 49, 0
1, 164021, Note_on_c, 0, 37, 0
1, 164021, Note_on_c, 0, 37, 66
1, 164021, Note_on_c, 0, 49, 77
1, 164027, Control_c, 0, 64, 0
1, 164082, Note_on_c, 0, 70, 0
1, 164273, Note_on_c, 0, 74, 90
1, 164273, Note_on_c, 0, 70, 90
1, 164273, Note_on_c, 0, 79, 104
1, 164276, Note_on_c, 0, 49, 0
1, 164276, Note_on_c, 0, 37, 0
1, 164276, Note_on_c, 0, 38, 89
1, 164279, Note_on_c, 0, 50, 103
1, 164363, Control_c, 0, 64, 127
1, 164703, Note_on_c, 0, 79, 0
1, 164703, Note_on_c, 0, 70, 0
1, 164703, Note_on_c, 0, 74, 0
1, 164706, Note_on_c, 0, 66, 82
1, 164706, Note_on_c, 0, 69, 82
1, 164706, Note_on_c, 0, 74, 95
1, 164709, Note_on_c, 0, 50, 0
1, 164709, Note_on_c, 0, 38, 0
1, 164709, Note_on_c, 0, 50, 94
1, 164712, Note_on_c, 0, 38, 80
1, 164715, Control_c, 0, 64, 0
1, 164851, Control_c, 0, 64, 127
1, 164989, Note_on_c, 0, 74, 0
1, 164989, Note_on_c, 0, 69, 0
1, 164989, Note_on_c, 0, 66, 0
1, 164992, Note_on_c, 0, 65, 89
1, 165001, Control_c, 0, 64, 0
1, 165276, Note_on_c, 0, 65, 0
1, 165276, Note_on_c, 0, 80, 95
1, 165276, Note_on_c, 0, 38, 0
1, 165279, Note_on_c, 0, 50, 0
1, 165279, Note_on_c, 0, 43, 94
1, 165279, Note_on_c, 0, 31, 80
1, 165308, Control_c, 0, 64, 127
1, 165326, Note_on_c, 0, 80, 0
1, 165326, Note_on_c, 0, 68, 74
1, 165377, Note_on_c, 0, 68, 0
1, 165377, Note_on_c, 0, 80, 74
1, 165427, Note_on_c, 0, 80, 0
1, 165427, Note_on_c, 0, 77, 87
1, 165427, Note_on_c, 0, 56, 82
1, 165427, Control_c, 0, 64, 0
1, 165509, Note_on_c, 0, 77, 0
1, 165509, Note_on_c, 0, 56, 0
1, 165591, Note_on_c, 0, 77, 95
1, 165591, Note_on_c, 0, 31, 0
1, 165591, Note_on_c, 0, 43, 0
1, 165594, Note_on_c, 0, 69, 80
1, 165623, Control_c, 0, 64, 127
1, 165641, Note_on_c, 0, 77, 0
1, 165641, Note_on_c, 0, 65, 73
1, 165641, Note_on_c, 0, 69, 0
1, 165644, Note_on_c, 0, 56, 66
1, 165692, Note_on_c, 0, 65, 0
1, 165692, Note_on_c, 0, 75, 73
1, 165692, Note_on_c, 0, 56, 0
1, 165695, Note_on_c, 0, 58, 66
1, 165743, Note_on_c, 0, 75, 0
1, 165743, Note_on_c, 0, 74, 87
1, 165743, Note_on_c, 0, 58, 0
1, 165746, Note_on_c, 0, 59, 76
1, 165746, Control_c, 0, 64, 0
1, 165824, Note_on_c, 0, 74, 0
1, 165824, Note_on_c, 0, 59, 0
1, 165906, Note_on_c, 0, 74, 95
1, 165906, Note_on_c, 0, 65, 80
1, 165938, Control_c, 0, 64, 127
1, 165957, Note_on_c, 0, 74, 0
1, 165957, Note_on_c, 0, 62, 75
1, 165957, Note_on_c, 0, 65, 0
1, 165960, Note_on_c, 0, 53, 66
1, 166007, Note_on_c, 0, 62, 0
1, 166007, Note_on_c, 0, 72, 75
1, 166007, Note_on_c, 0, 53, 0
1, 166010, Note_on_c, 0, 55, 66
1, 166058, Note_on_c, 0, 72, 0
1, 166058, Note_on_c, 0, 71, 87
1, 166058, Note_on_c, 0, 55, 0
1, 166061, Note_on_c, 0, 56, 76
1, 166061, Control_c, 0, 64, 0
1, 166139, Note_on_c, 0, 71, 0
1, 166139, Note_on_c, 0, 56, 0
1, 166221, Note_on_c, 0, 71, 95
1, 166221, Note_on_c, 0, 62, 80
1, 166253, Control_c, 0, 64, 127
1, 166272, Note_on_c, 0, 71, 0
1, 166272, Note_on_c, 0, 59, 75
1, 166272, Note_on_c, 0, 62, 0
1, 166275, Note_on_c, 0, 50, 66
1, 166322, Note_on_c, 0, 59, 0
1, 166322, Note_on_c, 0, 68, 75
1, 166322, Note_on_c, 0, 50, 0
1, 166325, Note_on_c, 0, 51, 66
1, 166373, Note_on_c, 0, 68, 0
1, 166373, Note_on_c, 0, 67, 87
1, 166373, Note_on_c, 0, 51, 0
1, 166376, Note_on_c, 0, 53, 76
1, 166376, Control_c, 0, 64, 0
1, 166454, Note_on_c, 0, 67, 0
1, 166454, Note_on_c, 0, 53, 0
1, 166536, Note_on_c, 0, 67, 95
1, 166536, Note_on_c, 0, 63, 76
1, 166536, Note_on_c, 0, 51, 76
1, 166549, Control_c, 0, 64, 127
1, 166588, Note_on_c, 0, 67, 0
1, 166588, Note_on_c, 0, 60, 77
1, 166614, Note_on_c, 0, 51, 0
1, 166614, Note_on_c, 0, 63, 0
1, 166639, Note_on_c, 0, 60, 0
1, 166639, Note_on_c, 0, 71, 77
1, 166691, Note_on_c, 0, 71, 0
1, 166691, Note_on_c, 0, 72, 87
1, 166696, Control_c, 0, 64, 0
1, 166776, Note_on_c, 0, 72, 0
1, 166860, Note_on_c, 0, 72, 96
1, 166860, Note_on_c, 0, 31, 85
1, 166860, Note_on_c, 0, 43, 85
1, 166865, Control_c, 0, 64, 127
1, 166912, Note_on_c, 0, 72, 0
1, 166912, Note_on_c, 0, 63, 81
1, 166964, Note_on_c, 0, 63, 0
1, 166964, Note_on_c, 0, 74, 78
1, 167016, Note_on_c, 0, 74, 0
1, 167016, Note_on_c, 0, 75, 89
1, 167101, Note_on_c, 0, 75, 0
1, 167187, Note_on_c, 0, 75, 104
1, 167239, Note_on_c, 0, 75, 0
1, 167239, Note_on_c, 0, 67, 90
1, 167291, Note_on_c, 0, 67, 0
1, 167291, Note_on_c, 0, 77, 87
1, 167343, Note_on_c, 0, 77, 0
1, 167343, Note_on_c, 0, 79, 102
1, 167343, Note_on_c, 0, 43, 0
1, 167346, Note_on_c, 0, 31, 0
1, 167346, Note_on_c, 0, 36, 77
1, 167346, Note_on_c, 0, 48, 77
1, 167430, Note_on_c, 0, 79, 0
1, 167516, Note_on_c, 0, 79, 100
1, 167516, Note_on_c, 0, 48, 0
1, 167516, Note_on_c, 0, 36, 0
1, 167519, Note_on_c, 0, 51, 83
1, 167519, Note_on_c, 0, 39, 83
1, 167570, Note_on_c, 0, 79, 0
1, 167570, Note_on_c, 0, 72, 91
1, 167623, Note_on_c, 0, 72, 0
1, 167623, Note_on_c, 0, 83, 93
1, 167676, Note_on_c, 0, 83, 0
1, 167676, Note_on_c, 0, 84, 107
1, 167676, Note_on_c, 0, 39, 0
1, 167679, Note_on_c, 0, 51, 0
1, 167679, Note_on_c, 0, 43, 80
1, 167679, Note_on_c, 0, 55, 80
1, 167775, Note_on_c, 0, 84, 0
1, 167775, Note_on_c, 0, 55, 0
1, 167775, Note_on_c, 0, 43, 0
1, 167782, Control_c, 0, 64, 0
1, 167874, Note_on_c, 0, 87, 107
1, 167874, Note_on_c, 0, 45, 90
1, 167874, Note_on_c, 0, 43, 90
1, 167877, Note_on_c, 0, 57, 106
1, 167907, Control_c, 0, 64, 127
1, 167925, Note_on_c, 0, 87, 0
1, 167925, Note_on_c, 0, 75, 87
1, 167976, Note_on_c, 0, 75, 0
1, 167976, Note_on_c, 0, 86, 87
1, 168026, Note_on_c, 0, 86, 0
1, 168026, Note_on_c, 0, 84, 97
1, 168026, Note_on_c, 0, 66, 92
1, 168029, Control_c, 0, 64, 0
1, 168109, Note_on_c, 0, 84, 0
1, 168109, Note_on_c, 0, 66, 0
1, 168192, Note_on_c, 0, 84, 105
1, 168192, Note_on_c, 0, 45, 0
1, 168192, Note_on_c, 0, 43, 0
1, 168195, Note_on_c, 0, 57, 0
1, 168195, Note_on_c, 0, 78, 88
1, 168224, Control_c, 0, 64, 127
1, 168243, Note_on_c, 0, 84, 0
1, 168243, Note_on_c, 0, 72, 84
1, 168243, Note_on_c, 0, 78, 0
1, 168246, Note_on_c, 0, 66, 72
1, 168293, Note_on_c, 0, 72, 0
1, 168293, Note_on_c, 0, 82, 84
1, 168293, Note_on_c, 0, 66, 0
1, 168296, Note_on_c, 0, 67, 71
1, 168344, Note_on_c, 0, 82, 0
1, 168344, Note_on_c, 0, 81, 94
1, 168344, Note_on_c, 0, 67, 0
1, 168347, Note_on_c, 0, 69, 82
1, 168347, Control_c, 0, 64, 0
1, 168427, Note_on_c, 0, 81, 0
1, 168427, Note_on_c, 0, 69, 0
1, 168509, Note_on_c, 0, 81, 101
1, 168509, Note_on_c, 0, 75, 85
1, 168542, Control_c, 0, 64, 127
1, 168560, Note_on_c, 0, 81, 0
1, 168560, Note_on_c, 0, 67, 81
1, 168560, Note_on_c, 0, 75, 0
1, 168563, Note_on_c, 0, 63, 69
1, 168611, Note_on_c, 0, 67, 0
1, 168611, Note_on_c, 0, 79, 81
1, 168611, Note_on_c, 0, 63, 0
1, 168614, Note_on_c, 0, 65, 69
1, 168661, Note_on_c, 0, 79, 0
1, 168661, Note_on_c, 0, 78, 91
1, 168661, Note_on_c, 0, 65, 0
1, 168664, Note_on_c, 0, 66, 79
1, 168664, Control_c, 0, 64, 0
1, 168744, Note_on_c, 0, 78, 0
1, 168744, Note_on_c, 0, 66, 0
1, 168827, Note_on_c, 0, 78, 98
1, 168827, Note_on_c, 0, 69, 82
1, 168859, Control_c, 0, 64, 127
1, 168877, Note_on_c, 0, 78, 0
1, 168877, Note_on_c, 0, 66, 78
1, 168877, Note_on_c, 0, 69, 0
1, 168880, Note_on_c, 0, 60, 68
1, 168928, Note_on_c, 0, 66, 0
1, 168928, Note_on_c, 0, 75, 78
1, 168928, Note_on_c, 0, 60, 0
1, 168931, Note_on_c, 0, 61, 67
1, 168978, Note_on_c, 0, 75, 0
1, 168978, Note_on_c, 0, 74, 88
1, 168978, Note_on_c, 0, 61, 0
1, 168981, Note_on_c, 0, 62, 77
1, 168981, Control_c, 0, 64, 0
1, 169069, Note_on_c, 0, 74, 0
1, 169069, Note_on_c, 0, 62, 0
1, 169160, Note_on_c, 0, 82, 103
1, 169160, Note_on_c, 0, 55, 102
1, 169160, Note_on_c, 0, 43, 87
1, 169193, Control_c, 0, 64, 127
1, 169211, Note_on_c, 0, 82, 0
1, 169211, Note_on_c, 0, 70, 84
1, 169262, Note_on_c, 0, 70, 0
1, 169262, Note_on_c, 0, 81, 84
1, 169313, Note_on_c, 0, 81, 0
1, 169313, Note_on_c, 0, 79, 93
1, 169313, Note_on_c, 0, 63, 88
1, 169313, Control_c, 0, 64, 0
1, 169396, Note_on_c, 0, 79, 0
1, 169396, Note_on_c, 0, 63, 0
1, 169480, Note_on_c, 0, 79, 101
1, 169480, Note_on_c, 0, 43, 0
1, 169480, Note_on_c, 0, 55, 0
1, 169483, Note_on_c, 0, 75, 85
1, 169513, Control_c, 0, 64, 127
1, 169531, Note_on_c, 0, 79, 0
1, 169531, Note_on_c, 0, 67, 81
1, 169531, Note_on_c, 0, 75, 0
1, 169534, Note_on_c, 0, 63, 70
1, 169582, Note_on_c, 0, 67, 0
1, 169582, Note_on_c, 0, 77, 81
1, 169582, Note_on_c, 0, 63, 0
1, 169585, Note_on_c, 0, 65, 69
1, 169633, Note_on_c, 0, 77, 0
1, 169633, Note_on_c, 0, 75, 92
1, 169633, Note_on_c, 0, 65, 0
1, 169636, Note_on_c, 0, 67, 80
1, 169636, Control_c, 0, 64, 0
1, 169717, Note_on_c, 0, 75, 0
1, 169717, Note_on_c, 0, 67, 0
1, 169800, Note_on_c, 0, 82, 99
1, 169800, Note_on_c, 0, 55, 98
1, 169833, Control_c, 0, 64, 127
1, 169852, Note_on_c, 0, 82, 0
1, 169852, Note_on_c, 0, 70, 78
1, 169903, Note_on_c, 0, 70, 0
1, 169903, Note_on_c, 0, 81, 78
1, 169954, Note_on_c, 0, 81, 0
1, 169954, Note_on_c, 0, 79, 90
1, 169954, Note_on_c, 0, 63, 78
1, 169954, Control_c, 0, 64, 0
1, 170038, Note_on_c, 0, 79, 0
1, 170038, Note_on_c, 0, 63, 0
1, 170122, Note_on_c, 0, 79, 97
1, 170122, Note_on_c, 0, 55, 0
1, 170122, Note_on_c, 0, 75, 82
1, 170154, Control_c, 0, 64, 127
1, 170172, Note_on_c, 0, 79, 0
1, 170172, Note_on_c, 0, 67, 77
1, 170172, Note_on_c, 0, 75, 0
1, 170175, Note_on_c, 0, 63, 67
1, 170223, Note_on_c, 0, 67, 0
1, 170223, Note_on_c, 0, 77, 77
1, 170223, Note_on_c, 0, 63, 0
1, 170226, Note_on_c, 0, 65, 67
1, 170273, Note_on_c, 0, 77, 0
1, 170273, Note_on_c, 0, 75, 88
1, 170273, Note_on_c, 0, 65, 0
1, 170276, Note_on_c, 0, 67, 77
1, 170276, Control_c, 0, 64, 0
1, 170354, Note_on_c, 0, 75, 0
1, 170354, Note_on_c, 0, 67, 0
1, 170435, Note_on_c, 0, 82, 95
1, 170435, Note_on_c, 0, 55, 94
1, 170467, Control_c, 0, 64, 127
1, 170485, Note_on_c, 0, 82, 0
1, 170485, Note_on_c, 0, 70, 77
1, 170536, Note_on_c, 0, 70, 0
1, 170536, Note_on_c, 0, 81, 77
1, 170586, Note_on_c, 0, 81, 0
1, 170586, Note_on_c, 0, 79, 87
1, 170586, Note_on_c, 0, 63, 76
1, 170586, Control_c, 0, 64, 0
1, 170668, Note_on_c, 0, 79, 0
1, 170668, Note_on_c, 0, 63, 0
1, 170750, Note_on_c, 0, 79, 95
1, 170750, Note_on_c, 0, 55, 0
1, 170750, Note_on_c, 0, 75, 80
1, 170782, Control_c, 0, 64, 127
1, 170800, Note_on_c, 0, 79, 0
1, 170800, Note_on_c, 0, 67, 74
1, 170800, Note_on_c, 0, 75, 0
1, 170803, Note_on_c, 0, 63, 65
1, 170850, Note_on_c, 0, 67, 0
1, 170850, Note_on_c, 0, 77, 74
1, 170850, Note_on_c, 0, 63, 0
1, 170853, Note_on_c, 0, 65, 65
1, 170901, Note_on_c, 0, 77, 0
1, 170901, Note_on_c, 0, 75, 86
1, 170901, Note_on_c, 0, 65, 0
1, 170904, Note_on_c, 0, 67, 75
1, 170904, Control_c, 0, 64, 0
1, 170982, Note_on_c, 0, 75, 0
1, 170982, Note_on_c, 0, 67, 0
1, 171064, Note_on_c, 0, 75, 94
1, 171064, Note_on_c, 0, 72, 79
1, 171096, Control_c, 0, 64, 127
1, 171114, Note_on_c, 0, 75, 0
1, 171114, Note_on_c, 0, 63, 75
1, 171114, Note_on_c, 0, 72, 0
1, 171117, Note_on_c, 0, 60, 64
1, 171164, Note_on_c, 0, 63, 0
1, 171164, Note_on_c, 0, 74, 75
1, 171164, Note_on_c, 0, 60, 0
1, 171167, Note_on_c, 0, 62, 64
1, 171215, Note_on_c, 0, 74, 0
1, 171215, Note_on_c, 0, 72, 85
1, 171215, Note_on_c, 0, 62, 0
1, 171218, Note_on_c, 0, 63, 74
1, 171218, Control_c, 0, 64, 0
1, 171296, Note_on_c, 0, 72, 0
1, 171296, Note_on_c, 0, 63, 0
1, 171378, Note_on_c, 0, 72, 93
1, 171378, Note_on_c, 0, 66, 74
1, 171410, Control_c, 0, 64, 127
1, 171428, Note_on_c, 0, 72, 0
1, 171428, Note_on_c, 0, 60, 72
1, 171478, Note_on_c, 0, 60, 0
1, 171478, Note_on_c, 0, 70, 72
1, 171529, Note_on_c, 0, 70, 0
1, 171529, Note_on_c, 0, 69, 84
1, 171529, Note_on_c, 0, 66, 0
1, 171532, Note_on_c, 0, 50, 74
1, 171532, Control_c, 0, 64, 0
1, 171610, Note_on_c, 0, 69, 0
1, 171691, Note_on_c, 0, 70, 92
1, 171691, Note_on_c, 0, 50, 0
1, 171691, Note_on_c, 0, 43, 74
1, 171723, Control_c, 0, 64, 127
1, 171741, Note_on_c, 0, 70, 0
1, 171741, Note_on_c, 0, 58, 72
1, 171791, Note_on_c, 0, 58, 0
1, 171791, Note_on_c, 0, 69, 72
1, 171842, Note_on_c, 0, 69, 0
1, 171842, Note_on_c, 0, 67, 83
1, 171842, Note_on_c, 0, 43, 0
1, 171845, Note_on_c, 0, 51, 73
1, 171845, Control_c, 0, 64, 0
1, 171923, Note_on_c, 0, 67, 0
1, 172004, Note_on_c, 0, 67, 91
1, 172004, Note_on_c, 0, 51, 0
1, 172004, Note_on_c, 0, 63, 77
1, 172036, Control_c, 0, 64, 127
1, 172055, Note_on_c, 0, 67, 0
1, 172055, Note_on_c, 0, 55, 73
1, 172055, Note_on_c, 0, 63, 0
1, 172058, Note_on_c, 0, 51, 63
1, 172105, Note_on_c, 0, 55, 0
1, 172105, Note_on_c, 0, 65, 73
1, 172105, Note_on_c, 0, 51, 0
1, 172108, Note_on_c, 0, 53, 63
1, 172156, Note_on_c, 0, 65, 0
1, 172156, Note_on_c, 0, 63, 83
1, 172156, Note_on_c, 0, 53, 0
1, 172159, Note_on_c, 0, 55, 72
1, 172159, Control_c, 0, 64, 0
1, 172237, Note_on_c, 0, 63, 0
1, 172237, Note_on_c, 0, 55, 0
1, 172318, Note_on_c, 0, 70, 90
1, 172318, Note_on_c, 0, 43, 72
1, 172350, Control_c, 0, 64, 127
1, 172369, Note_on_c, 0, 70, 0
1, 172369, Note_on_c, 0, 58, 72
1, 172419, Note_on_c, 0, 58, 0
1, 172419, Note_on_c, 0, 69, 72
1, 172470, Note_on_c, 0, 69, 0
1, 172470, Note_on_c, 0, 67, 82
1, 172470, Note_on_c, 0, 43, 0
1, 172473, Note_on_c, 0, 51, 72
1, 172473, Control_c, 0, 64, 0
1, 172551, Note_on_c, 0, 67, 0
1, 172632, Note_on_c, 0, 67, 89
1, 172632, Note_on_c, 0, 51, 0
1, 172632, Note_on_c, 0, 63, 75
1, 172664, Control_c, 0, 64, 127
1, 172683, Note_on_c, 0, 67, 0
1, 172683, Note_on_c, 0, 55, 70
1, 172683, Note_on_c, 0, 63, 0
1, 172686, Note_on_c, 0, 51, 62
1, 172733, Note_on_c, 0, 55, 0
1, 172733, Note_on_c, 0, 65, 70
1, 172733, Note_on_c, 0, 51, 0
1, 172736, Note_on_c, 0, 53, 62
1, 172784, Note_on_c, 0, 65, 0
1, 172784, Note_on_c, 0, 63, 81
1, 172784, Note_on_c, 0, 53, 0
1, 172787, Note_on_c, 0, 55, 71
1, 172787, Control_c, 0, 64, 0
1, 172865, Note_on_c, 0, 63, 0
1, 172865, Note_on_c, 0, 55, 0
1, 172946, Note_on_c, 0, 70, 89
1, 172946, Note_on_c, 0, 43, 71
1, 172977, Control_c, 0, 64, 127
1, 172995, Note_on_c, 0, 70, 0
1, 172995, Note_on_c, 0, 58, 71
1, 173045, Note_on_c, 0, 58, 0
1, 173045, Note_on_c, 0, 69, 71
1, 173095, Note_on_c, 0, 69, 0
1, 173095, Note_on_c, 0, 67, 81
1, 173095, Note_on_c, 0, 43, 0
1, 173098, Note_on_c, 0, 51, 71
1, 173098, Control_c, 0, 64, 0
1, 173176, Note_on_c, 0, 67, 0
1, 173257, Note_on_c, 0, 67, 88
1, 173257, Note_on_c, 0, 51, 0
1, 173257, Note_on_c, 0, 63, 74
1, 173288, Control_c, 0, 64, 127
1, 173307, Note_on_c, 0, 67, 0
1, 173307, Note_on_c, 0, 55, 69
1, 173307, Note_on_c, 0, 63, 0
1, 173310, Note_on_c, 0, 51, 61
1, 173356, Note_on_c, 0, 55, 0
1, 173356, Note_on_c, 0, 65, 69
1, 173356, Note_on_c, 0, 51, 0
1, 173359, Note_on_c, 0, 53, 61
1, 173406, Note_on_c, 0, 65, 0
1, 173406, Note_on_c, 0, 63, 80
1, 173406, Note_on_c, 0, 53, 0
1, 173409, Note_on_c, 0, 55, 70
1, 173409, Control_c, 0, 64, 0
1, 173487, Note_on_c, 0, 63, 0
1, 173487, Note_on_c, 0, 55, 0
1, 173567, Note_on_c, 0, 63, 87
1, 173567, Note_on_c, 0, 60, 73
1, 173599, Control_c, 0, 64, 127
1, 173617, Note_on_c, 0, 63, 0
1, 173617, Note_on_c, 0, 51, 68
1, 173617, Note_on_c, 0, 60, 0
1, 173620, Note_on_c, 0, 48, 60
1, 173667, Note_on_c, 0, 51, 0
1, 173667, Note_on_c, 0, 62, 68
1, 173667, Note_on_c, 0, 48, 0
1, 173670, Note_on_c, 0, 50, 60
1, 173717, Note_on_c, 0, 62, 0
1, 173717, Note_on_c, 0, 60, 80
1, 173717, Note_on_c, 0, 50, 0
1, 173720, Note_on_c, 0, 51, 70
1, 173720, Control_c, 0, 64, 0
1, 173798, Note_on_c, 0, 60, 0
1, 173798, Note_on_c, 0, 51, 0
1, 173879, Note_on_c, 0, 60, 86
1, 173879, Note_on_c, 0, 54, 69
1, 173911, Control_c, 0, 64, 127
1, 173929, Note_on_c, 0, 60, 0
1, 173929, Note_on_c, 0, 48, 68
1, 173979, Note_on_c, 0, 48, 0
1, 173979, Note_on_c, 0, 58, 70
1, 174029, Note_on_c, 0, 58, 0
1, 174029, Note_on_c, 0, 57, 79
1, 174029, Note_on_c, 0, 54, 0
1, 174032, Note_on_c, 0, 38, 69
1, 174032, Control_c, 0, 64, 0
1, 174110, Note_on_c, 0, 57, 0
1, 174192, Note_on_c, 0, 58, 85
1, 174192, Note_on_c, 0, 38, 0
1, 174192, Note_on_c, 0, 31, 68
1, 174223, Control_c, 0, 64, 127
1, 174241, Note_on_c, 0, 58, 0
1, 174241, Note_on_c, 0, 46, 68
1, 174291, Note_on_c, 0, 46, 0
1, 174291, Note_on_c, 0, 57, 68
1, 174341, Note_on_c, 0, 57, 0
1, 174341, Note_on_c, 0, 55, 78
1, 174341, Note_on_c, 0, 31, 0
1, 174344, Note_on_c, 0, 38, 68
1, 174344, Control_c, 0, 64, 0
1, 174419, Note_on_c, 0, 55, 0
1, 174498, Note_on_c, 0, 60, 84
1, 174498, Note_on_c, 0, 38, 0
1, 174498, Note_on_c, 0, 54, 68
1, 174530, Control_c, 0, 64, 127
1, 174548, Note_on_c, 0, 60, 0
1, 174548, Note_on_c, 0, 48, 68
1, 174597, Note_on_c, 0, 48, 0
1, 174597, Note_on_c, 0, 58, 72
1, 174647, Note_on_c, 0, 58, 0
1, 174647, Note_on_c, 0, 57, 77
1, 174647, Note_on_c, 0, 54, 0
1, 174650, Note_on_c, 0, 38, 68
1, 174650, Control_c, 0, 64, 0
1, 174724, Note_on_c, 0, 57, 0
1, 174801, Note_on_c, 0, 58, 83
1, 174801, Note_on_c, 0, 38, 0
1, 174801, Note_on_c, 0, 31, 67
1, 174832, Control_c, 0, 64, 127
1, 174850, Note_on_c, 0, 58, 0
1, 174850, Note_on_c, 0, 46, 67
1, 174899, Note_on_c, 0, 46, 0
1, 174899, Note_on_c, 0, 57, 67
1, 174948, Note_on_c, 0, 57, 0
1, 174948, Note_on_c, 0, 55, 76
1, 174948, Note_on_c, 0, 31, 0
1, 174951, Note_on_c, 0, 38, 67
1, 174951, Control_c, 0, 64, 0
1, 175025, Note_on_c, 0, 55, 0
1, 175102, Note_on_c, 0, 60, 83
1, 175102, Note_on_c, 0, 38, 0
1, 175102, Note_on_c, 0, 54, 66
1, 175133, Control_c, 0, 64, 127
1, 175150, Note_on_c, 0, 60, 0
1, 175150, Note_on_c, 0, 48, 70
1, 175199, Note_on_c, 0, 48, 0
1, 175199, Note_on_c, 0, 58, 69
1, 175247, Note_on_c, 0, 58, 0
1, 175247, Note_on_c, 0, 57, 76
1, 175247, Note_on_c, 0, 54, 0
1, 175250, Note_on_c, 0, 38, 66
1, 175250, Control_c, 0, 64, 0
1, 175324, Note_on_c, 0, 57, 0
1, 175401, Note_on_c, 0, 62, 86
1, 175401, Note_on_c, 0, 38, 0
1, 175401, Note_on_c, 0, 31, 69
1, 175404, Note_on_c, 0, 43, 69
1, 175432, Control_c, 0, 64, 127
1, 175449, Note_on_c, 0, 62, 0
1, 175449, Note_on_c, 0, 46, 72
1, 175498, Note_on_c, 0, 46, 0
1, 175498, Note_on_c, 0, 60, 72
1, 175546, Note_on_c, 0, 60, 0
1, 175546, Note_on_c, 0, 58, 80
1, 175546, Control_c, 0, 64, 0
1, 175621, Note_on_c, 0, 58, 0
1, 175696, Note_on_c, 0, 67, 89
1, 175727, Control_c, 0, 64, 127
1, 175744, Note_on_c, 0, 67, 0
1, 175744, Note_on_c, 0, 55, 74
1, 175792, Note_on_c, 0, 55, 0
1, 175792, Note_on_c, 0, 63, 74
1, 175840, Note_on_c, 0, 63, 0
1, 175840, Note_on_c, 0, 62, 82
1, 175840, Control_c, 0, 64, 0
1, 175915, Note_on_c, 0, 62, 0
1, 175991, Note_on_c, 0, 70, 91
1, 176007, Control_c, 0, 64, 127
1, 176038, Note_on_c, 0, 70, 0
1, 176038, Note_on_c, 0, 58, 77
1, 176086, Note_on_c, 0, 58, 0
1, 176086, Note_on_c, 0, 69, 78
1, 176133, Note_on_c, 0, 69, 0
1, 176133, Note_on_c, 0, 67, 84
1, 176142, Control_c, 0, 64, 0
1, 176209, Note_on_c, 0, 67, 0
1, 176284, Note_on_c, 0, 74, 94
1, 176284, Note_on_c, 0, 43, 0
1, 176284, Note_on_c, 0, 31, 0
1, 176296, Control_c, 0, 64, 127
1, 176331, Note_on_c, 0, 74, 0
1, 176331, Note_on_c, 0, 62, 79
1, 176378, Note_on_c, 0, 62, 0
1, 176378, Note_on_c, 0, 70, 81
1, 176425, Note_on_c, 0, 70, 0
1, 176425, Note_on_c, 0, 69, 87
1, 176425, Note_on_c, 0, 38, 76
1, 176428, Note_on_c, 0, 50, 76
1, 176432, Control_c, 0, 64, 0
1, 176500, Note_on_c, 0, 69, 0
1, 176575, Note_on_c, 0, 79, 96
1, 176575, Note_on_c, 0, 50, 0
1, 176575, Note_on_c, 0, 38, 0
1, 176578, Note_on_c, 0, 31, 77
1, 176578, Note_on_c, 0, 43, 77
1, 176604, Control_c, 0, 64, 127
1, 176622, Note_on_c, 0, 79, 0
1, 176622, Note_on_c, 0, 67, 82
1, 176669, Note_on_c, 0, 67, 0
1, 176669, Note_on_c, 0, 75, 83
1, 176716, Note_on_c, 0, 75, 0
1, 176716, Note_on_c, 0, 74, 90
1, 176724, Control_c, 0, 64, 0
1, 176791, Note_on_c, 0, 74, 0
1, 176866, Note_on_c, 0, 82, 99
1, 176901, Control_c, 0, 64, 127
1, 176913, Note_on_c, 0, 82, 0
1, 176913, Note_on_c, 0, 70, 84
1, 176960, Note_on_c, 0, 70, 0
1, 176960, Note_on_c, 0, 81, 85
1, 177007, Note_on_c, 0, 81, 0
1, 177007, Note_on_c, 0, 79, 92
1, 177013, Control_c, 0, 64, 0
1, 177081, Note_on_c, 0, 79, 0
1, 177155, Note_on_c, 0, 86, 101
1, 177180, Control_c, 0, 64, 127
1, 177202, Note_on_c, 0, 86, 0
1, 177202, Note_on_c, 0, 74, 86
1, 177249, Note_on_c, 0, 74, 0
1, 177249, Note_on_c, 0, 84, 87
1, 177296, Note_on_c, 0, 84, 0
1, 177296, Note_on_c, 0, 82, 94
1, 177304, Control_c, 0, 64, 0
1, 177371, Note_on_c, 0, 82, 0
1, 177445, Note_on_c, 0, 91, 104
1, 177445, Note_on_c, 0, 43, 0
1, 177445, Note_on_c, 0, 31, 0
1, 177468, Control_c, 0, 64, 127
1, 177492, Note_on_c, 0, 91, 0
1, 177492, Note_on_c, 0, 79, 88
1, 177539, Note_on_c, 0, 79, 0
1, 177539, Note_on_c, 0, 87, 89
1, 177586, Note_on_c, 0, 87, 0
1, 177586, Note_on_c, 0, 86, 97
1, 177586, Note_on_c, 0, 38, 84
1, 177589, Note_on_c, 0, 50, 84
1, 177594, Control_c, 0, 64, 0
1, 177625, Control_c, 0, 64, 127
1, 177670, Note_on_c, 0, 86, 0
1, 177753, Note_on_c, 0, 94, 119
1, 177753, Note_on_c, 0, 82, 98
1, 177753, Note_on_c, 0, 50, 0
1, 177756, Note_on_c, 0, 38, 0
1, 177756, Note_on_c, 0, 31, 78
1, 177756, Note_on_c, 0, 43, 86
1, 177759, Control_c, 0, 64, 0
1, 177821, Control_c, 0, 64, 127
1, 177909, Note_on_c, 0, 43, 0
1, 177909, Note_on_c, 0, 31, 0
1, 178063, Note_on_c, 0, 82, 0
1, 178063, Note_on_c, 0, 94, 0
1, 178063, Note_on_c, 0, 79, 91
1, 178066, Note_on_c, 0, 91, 98
1, 178185, Note_on_c, 0, 82, 98
1, 178307, Note_on_c, 0, 91, 0
1, 178307, Note_on_c, 0, 79, 0
1, 178307, Note_on_c, 0, 74, 91
1, 178310, Note_on_c, 0, 86, 98
1, 178429, Note_on_c, 0, 82, 0
1, 178429, Note_on_c, 0, 79, 98
1, 178551, Note_on_c, 0, 86, 0
1, 178551, Note_on_c, 0, 74, 0
1, 178551, Note_on_c, 0, 70, 91
1, 178554, Note_on_c, 0, 82, 98
1, 178673, Note_on_c, 0, 79, 0
1, 178673, Note_on_c, 0, 74, 98
1, 178795, Note_on_c, 0, 82, 0
1, 178795, Note_on_c, 0, 70, 0
1, 178795, Note_on_c, 0, 67, 91
1, 178798, Note_on_c, 0, 79, 98
1, 178917, Note_on_c, 0, 74, 0
1, 178917, Note_on_c, 0, 70, 98
1, 179041, Note_on_c, 0, 79, 0
1, 179041, Note_on_c, 0, 67, 0
1, 179041, Note_on_c, 0, 62, 91
1, 179044, Note_on_c, 0, 74, 98
1, 179165, Note_on_c, 0, 70, 0
1, 179165, Note_on_c, 0, 67, 98
1, 179289, Note_on_c, 0, 74, 0
1, 179289, Note_on_c, 0, 62, 0
1, 179289, Note_on_c, 0, 58, 91
1, 179292, Note_on_c, 0, 70, 98
1, 179411, Note_on_c, 0, 67, 0
1, 179411, Note_on_c, 0, 62, 98
1, 179535, Note_on_c, 0, 70, 0
1, 179535, Note_on_c, 0, 58, 0
1, 179535, Note_on_c, 0, 55, 91
1, 179538, Note_on_c, 0, 67, 98
1, 179659, Note_on_c, 0, 62, 0
1, 179659, Note_on_c, 0, 58, 98
1, 179822, Note_on_c, 0, 67, 0
1, 179822, Note_on_c, 0, 60, 78
1, 179822, Note_on_c, 0, 63, 98
1, 179825, Note_on_c, 0, 68, 106
1, 179825, Note_on_c, 0, 58, 0
1, 179825, Note_on_c, 0, 48, 108
1, 179828, Control_c, 0, 64, 0
1, 179951, Control_c, 0, 64, 127
1, 180094, Note_on_c, 0, 55, 0
1, 180094, Note_on_c, 0, 56, 102
1, 180222, Note_on_c, 0, 54, 88
1, 180349, Note_on_c, 0, 56, 0
1, 180349, Note_on_c, 0, 68, 0
1, 180349, Note_on_c, 0, 63, 0
1, 180352, Note_on_c, 0, 60, 0
1, 180352, Note_on_c, 0, 57, 88
1, 180352, Note_on_c, 0, 69, 95
1, 180476, Note_on_c, 0, 54, 0
1, 180476, Note_on_c, 0, 51, 88
1, 180603, Note_on_c, 0, 57, 0
1, 180603, Note_on_c, 0, 60, 88
1, 180729, Note_on_c, 0, 51, 0
1, 180729, Note_on_c, 0, 48, 88
1, 180855, Note_on_c, 0, 63, 88
1, 180855, Note_on_c, 0, 48, 0
1, 180981, Note_on_c, 0, 45, 88
1, 181106, Note_on_c, 0, 66, 88
1, 181231, Note_on_c, 0, 45, 0
1, 181231, Note_on_c, 0, 42, 88
1, 181355, Note_on_c, 0, 69, 0
1, 181355, Note_on_c, 0, 69, 88
1, 181479, Note_on_c, 0, 42, 0
1, 181479, Note_on_c, 0, 39, 88
1, 181602, Note_on_c, 0, 72, 88
1, 181727, Note_on_c, 0, 39, 0
1, 181727, Note_on_c, 0, 36, 88
1, 181869, Note_on_c, 0, 72, 0
1, 181869, Note_on_c, 0, 60, 0
1, 181869, Note_on_c, 0, 66, 0
1, 181872, Note_on_c, 0, 63, 0
1, 181872, Note_on_c, 0, 69, 0
1, 181872, Note_on_c, 0, 62, 88
1, 181875, Note_on_c, 0, 67, 92
1, 181875, Note_on_c, 0, 70, 98
1, 181875, Note_on_c, 0, 36, 0
1, 181878, Note_on_c, 0, 48, 0
1, 181878, Note_on_c, 0, 31, 88
1, 181878, Note_on_c, 0, 43, 95
1, 181881, Control_c, 0, 64, 0
1, 182131, Note_on_c, 0, 70, 0
1, 182131, Note_on_c, 0, 67, 0
1, 182131, Note_on_c, 0, 62, 0
1, 182134, Note_on_c, 0, 67, 95
1, 182134, Note_on_c, 0, 79, 102
1, 182134, Note_on_c, 0, 43, 0
1, 182137, Note_on_c, 0, 31, 0
1, 182253, Note_on_c, 0, 70, 102
1, 182376, Note_on_c, 0, 79, 0
1, 182376, Note_on_c, 0, 67, 0
1, 182376, Note_on_c, 0, 62, 95
1, 182379, Note_on_c, 0, 74, 102
1, 182497, Note_on_c, 0, 70, 0
1, 182497, Note_on_c, 0, 67, 102
1, 182621, Note_on_c, 0, 74, 0
1, 182621, Note_on_c, 0, 62, 0
1, 182621, Note_on_c, 0, 58, 95
1, 182624, Note_on_c, 0, 70, 102
1, 182742, Note_on_c, 0, 67, 0
1, 182742, Note_on_c, 0, 62, 102
1, 182867, Note_on_c, 0, 70, 0
1, 182867, Note_on_c, 0, 58, 0
1, 182867, Note_on_c, 0, 55, 95
1, 182870, Note_on_c, 0, 67, 102
1, 182989, Note_on_c, 0, 62, 0
1, 182989, Note_on_c, 0, 58, 102
1, 183111, Note_on_c, 0, 67, 0
1, 183111, Note_on_c, 0, 55, 0
1, 183111, Note_on_c, 0, 50, 95
1, 183114, Note_on_c, 0, 62, 102
1, 183234, Note_on_c, 0, 58, 0
1, 183234, Note_on_c, 0, 55, 102
1, 183356, Note_on_c, 0, 62, 0
1, 183356, Note_on_c, 0, 50, 0
1, 183356, Note_on_c, 0, 46, 95
1, 183359, Note_on_c, 0, 58, 102
1, 183489, Note_on_c, 0, 55, 0
1, 183489, Note_on_c, 0, 50, 102
1, 183622, Note_on_c, 0, 58, 0
1, 183622, Note_on_c, 0, 46, 0
1, 183622, Note_on_c, 0, 43, 95
1, 183625, Note_on_c, 0, 55, 102
1, 183766, Note_on_c, 0, 50, 0
1, 183766, Note_on_c, 0, 46, 102
1, 183930, Note_on_c, 0, 55, 0
1, 183930, Note_on_c, 0, 48, 78
1, 183930, Note_on_c, 0, 51, 93
1, 183933, Note_on_c, 0, 56, 105
1, 183933, Note_on_c, 0, 46, 0
1, 183933, Note_on_c, 0, 36, 110
1, 183936, Control_c, 0, 64, 0
1, 184062, Control_c, 0, 64, 127
1, 184207, Note_on_c, 0, 43, 0
1, 184207, Note_on_c, 0, 44, 102
1, 184337, Note_on_c, 0, 42, 88
1, 184469, Note_on_c, 0, 44, 0
1, 184469, Note_on_c, 0, 56, 0
1, 184469, Note_on_c, 0, 51, 0
1, 184472, Note_on_c, 0, 48, 0
1, 184472, Note_on_c, 0, 45, 88
1, 184472, Note_on_c, 0, 57, 95
1, 184599, Note_on_c, 0, 42, 0
1, 184599, Note_on_c, 0, 39, 88
1, 184730, Note_on_c, 0, 45, 0
1, 184730, Note_on_c, 0, 48, 88
1, 184861, Note_on_c, 0, 39, 0
1, 184861, Note_on_c, 0, 36, 88
1, 184993, Note_on_c, 0, 51, 88
1, 184993, Note_on_c, 0, 36, 0
1, 184993, Note_on_c, 0, 36, 0
1, 184996, Note_on_c, 0, 36, 88
1, 185123, Note_on_c, 0, 33, 88
1, 185255, Note_on_c, 0, 54, 88
1, 185385, Note_on_c, 0, 33, 0
1, 185385, Note_on_c, 0, 30, 88
1, 185520, Note_on_c, 0, 54, 0
1, 185520, Note_on_c, 0, 57, 0
1, 185520, Note_on_c, 0, 57, 88
1, 185651, Note_on_c, 0, 30, 0
1, 185651, Note_on_c, 0, 27, 88
1, 185786, Note_on_c, 0, 60, 88
1, 185918, Note_on_c, 0, 27, 0
1, 185918, Note_on_c, 0, 24, 88
1, 186080, Note_on_c, 0, 60, 0
1, 186080, Note_on_c, 0, 48, 0
1, 186080, Note_on_c, 0, 51, 0
1, 186083, Note_on_c, 0, 57, 0
1, 186083, Note_on_c, 0, 50, 85
1, 186083, Note_on_c, 0, 55, 89
1, 186086, Note_on_c, 0, 58, 98
1, 186086, Note_on_c, 0, 24, 0
1, 186086, Note_on_c, 0, 36, 0
1, 186089, Note_on_c, 0, 31, 91
1, 186089, Control_c, 0, 64, 0
1, 186222, Control_c, 0, 64, 127
1, 186363, Note_on_c, 0, 58, 0
1, 186363, Note_on_c, 0, 55, 0
1, 186363, Note_on_c, 0, 50, 0
1, 186366, Note_on_c, 0, 46, 88
1, 186366, Note_on_c, 0, 31, 0
1, 186501, Note_on_c, 0, 62, 88
1, 186643, Note_on_c, 0, 46, 0
1, 186643, Note_on_c, 0, 50, 89
1, 186786, Note_on_c, 0, 62, 0
1, 186786, Note_on_c, 0, 58, 91
1, 186935, Note_on_c, 0, 50, 0
1, 186935, Note_on_c, 0, 55, 91
1, 187079, Note_on_c, 0, 55, 0
1, 187079, Note_on_c, 0, 58, 0
1, 187079, Note_on_c, 0, 55, 92
1, 187234, Note_on_c, 0, 58, 95
1, 187385, Note_on_c, 0, 55, 0
1, 187385, Note_on_c, 0, 50, 95
1, 187543, Note_on_c, 0, 58, 0
1, 187543, Note_on_c, 0, 62, 97
1, 187699, Note_on_c, 0, 50, 0
1, 187699, Note_on_c, 0, 46, 98
1, 187862, Note_on_c, 0, 62, 0
1, 187862, Note_on_c, 0, 67, 98
1, 188025, Note_on_c, 0, 46, 0
1, 188025, Note_on_c, 0, 43, 104
1, 188196, Note_on_c, 0, 67, 0
1, 188196, Note_on_c, 0, 70, 101
1, 188369, Note_on_c, 0, 43, 0
1, 188369, Note_on_c, 0, 31, 113
1, 188596, Note_on_c, 0, 79, 111
1, 189356, Note_on_c, 0, 79, 0
1, 189356, Note_on_c, 0, 70, 0
1, 189356, Note_on_c, 0, 31, 0
1, 190875, Control_c, 0, 64, 0
1, 192373, End_track
0, 0, End_of_file
