0, 0, Header, 0, 1, 384
1, 0, Start_track
1, 0, Tempo, 512820
1, 0, Title_t, "Kreisleriana No. 7"
1, 0, Program_c, 0, 0
1, 0, Program_c, 0, 0
1, 3, Program_c, 0, 0
1, 748, Note_on_c, 0, 67, 63
1, 773, Note_on_c, 0, 72, 53
1, 786, Note_on_c, 0, 43, 61
1, 798, Note_on_c, 0, 72, 0
1, 798, Note_on_c, 0, 74, 53
1, 804, Note_on_c, 0, 48, 68
1, 823, Note_on_c, 0, 74, 0
1, 823, Note_on_c, 0, 67, 0
1, 823, Note_on_c, 0, 75, 89
1, 826, Note_on_c, 0, 57, 75
1, 857, Control_c, 0, 64, 127
1, 899, Note_on_c, 0, 75, 0
1, 899, Note_on_c, 0, 66, 60
1, 976, Note_on_c, 0, 66, 0
1, 976, Note_on_c, 0, 72, 63
1, 976, Note_on_c, 0, 57, 0
1, 979, Note_on_c, 0, 48, 0
1, 979, Note_on_c, 0, 43, 0
1, 994, Control_c, 0, 64, 0
1, 1052, Note_on_c, 0, 72, 0
1, 1052, Note_on_c, 0, 75, 63
1, 1090, Note_on_c, 0, 43, 69
1, 1109, Note_on_c, 0, 50, 74
1, 1128, Note_on_c, 0, 75, 0
1, 1128, Note_on_c, 0, 74, 88
1, 1128, Note_on_c, 0, 59, 78
1, 1166, Control_c, 0, 64, 127
1, 1205, Note_on_c, 0, 74, 0
1, 1205, Note_on_c, 0, 65, 58
1, 1281, Note_on_c, 0, 65, 0
1, 1281, Note_on_c, 0, 71, 63
1, 1281, Note_on_c, 0, 59, 0
1, 1284, Note_on_c, 0, 50, 0
1, 1284, Note_on_c, 0, 43, 0
1, 1297, Control_c, 0, 64, 0
1, 1363, Note_on_c, 0, 71, 0
1, 1363, Note_on_c, 0, 74, 63
1, 1403, Note_on_c, 0, 43, 65
1, 1424, Note_on_c, 0, 51, 68
1, 1444, Note_on_c, 0, 74, 0
1, 1444, Note_on_c, 0, 72, 88
1, 1444, Note_on_c, 0, 60, 73
1, 1484, Control_c, 0, 64, 127
1, 1520, Note_on_c, 0, 72, 0
1, 1520, Note_on_c, 0, 69, 59
1, 1596, Note_on_c, 0, 69, 0
1, 1596, Note_on_c, 0, 66, 63
1, 1596, Note_on_c, 0, 60, 0
1, 1599, Note_on_c, 0, 51, 0
1, 1599, Note_on_c, 0, 43, 0
1, 1672, Note_on_c, 0, 66, 0
1, 1672, Note_on_c, 0, 63, 63
1, 1748, Note_on_c, 0, 63, 0
1, 1748, Note_on_c, 0, 60, 66
1, 1824, Note_on_c, 0, 60, 0
1, 1824, Note_on_c, 0, 57, 65
1, 1900, Note_on_c, 0, 57, 0
1, 1900, Note_on_c, 0, 54, 63
1, 1985, Note_on_c, 0, 67, 63
1, 1985, Note_on_c, 0, 54, 0
1, 1985, Note_on_c, 0, 51, 63
1, 2013, Note_on_c, 0, 72, 53
1, 2016, Control_c, 0, 64, 0
1, 2041, Note_on_c, 0, 72, 0
1, 2041, Note_on_c, 0, 74, 53
1, 2070, Note_on_c, 0, 74, 0
1, 2070, Note_on_c, 0, 67, 0
1, 2070, Note_on_c, 0, 75, 89
1, 2073, Note_on_c, 0, 51, 0
1, 2073, Note_on_c, 0, 43, 61
1, 2073, Note_on_c, 0, 48, 66
1, 2076, Note_on_c, 0, 57, 75
1, 2131, Control_c, 0, 64, 127
1, 2146, Note_on_c, 0, 75, 0
1, 2146, Note_on_c, 0, 66, 60
1, 2222, Note_on_c, 0, 66, 0
1, 2222, Note_on_c, 0, 72, 63
1, 2222, Note_on_c, 0, 57, 0
1, 2225, Note_on_c, 0, 48, 0
1, 2225, Note_on_c, 0, 43, 0
1, 2247, Control_c, 0, 64, 0
1, 2298, Note_on_c, 0, 72, 0
1, 2298, Note_on_c, 0, 75, 63
1, 2374, Note_on_c, 0, 75, 0
1, 2374, Note_on_c, 0, 74, 88
1, 2374, Note_on_c, 0, 43, 65
1, 2377, Note_on_c, 0, 50, 69
1, 2377, Note_on_c, 0, 59, 75
1, 2432, Control_c, 0, 64, 127
1, 2450, Note_on_c, 0, 74, 0
1, 2450, Note_on_c, 0, 65, 58
1, 2526, Note_on_c, 0, 65, 0
1, 2526, Note_on_c, 0, 71, 63
1, 2526, Note_on_c, 0, 59, 0
1, 2529, Note_on_c, 0, 50, 0
1, 2529, Note_on_c, 0, 43, 0
1, 2556, Control_c, 0, 64, 0
1, 2607, Note_on_c, 0, 71, 0
1, 2607, Note_on_c, 0, 74, 63
1, 2689, Note_on_c, 0, 74, 0
1, 2689, Note_on_c, 0, 72, 88
1, 2689, Note_on_c, 0, 43, 59
1, 2692, Note_on_c, 0, 51, 65
1, 2692, Note_on_c, 0, 60, 72
1, 2717, Control_c, 0, 64, 127
1, 2765, Note_on_c, 0, 72, 0
1, 2765, Note_on_c, 0, 69, 59
1, 2841, Note_on_c, 0, 69, 0
1, 2841, Note_on_c, 0, 66, 63
1, 2841, Note_on_c, 0, 60, 0
1, 2844, Note_on_c, 0, 51, 0
1, 2844, Note_on_c, 0, 43, 0
1, 2917, Note_on_c, 0, 66, 0
1, 2917, Note_on_c, 0, 63, 63
1, 2993, Note_on_c, 0, 63, 0
1, 2993, Note_on_c, 0, 60, 66
1, 3069, Note_on_c, 0, 60, 0
1, 3069, Note_on_c, 0, 57, 65
1, 3145, Note_on_c, 0, 57, 0
1, 3145, Note_on_c, 0, 54, 63
1, 3228, Note_on_c, 0, 63, 63
1, 3228, Note_on_c, 0, 54, 0
1, 3228, Note_on_c, 0, 51, 63
1, 3256, Note_on_c, 0, 67, 53
1, 3259, Control_c, 0, 64, 0
1, 3269, Note_on_c, 0, 43, 52
1, 3283, Note_on_c, 0, 67, 0
1, 3283, Note_on_c, 0, 68, 53
1, 3311, Note_on_c, 0, 68, 0
1, 3311, Note_on_c, 0, 63, 0
1, 3311, Note_on_c, 0, 70, 88
1, 3314, Note_on_c, 0, 51, 0
1, 3314, Note_on_c, 0, 52, 73
1, 3347, Control_c, 0, 64, 127
1, 3387, Note_on_c, 0, 70, 0
1, 3387, Note_on_c, 0, 61, 54
1, 3463, Note_on_c, 0, 61, 0
1, 3463, Note_on_c, 0, 67, 60
1, 3492, Control_c, 0, 64, 0
1, 3539, Note_on_c, 0, 67, 0
1, 3539, Note_on_c, 0, 70, 52
1, 3577, Note_on_c, 0, 52, 0
1, 3577, Note_on_c, 0, 43, 0
1, 3577, Note_on_c, 0, 43, 55
1, 3615, Note_on_c, 0, 70, 0
1, 3615, Note_on_c, 0, 68, 82
1, 3615, Note_on_c, 0, 53, 78
1, 3651, Control_c, 0, 64, 127
1, 3691, Note_on_c, 0, 68, 0
1, 3691, Note_on_c, 0, 60, 52
1, 3767, Note_on_c, 0, 60, 0
1, 3767, Note_on_c, 0, 65, 59
1, 3783, Control_c, 0, 64, 0
1, 3848, Note_on_c, 0, 65, 0
1, 3848, Note_on_c, 0, 68, 54
1, 3888, Note_on_c, 0, 53, 0
1, 3888, Note_on_c, 0, 43, 0
1, 3888, Note_on_c, 0, 43, 51
1, 3929, Note_on_c, 0, 68, 0
1, 3929, Note_on_c, 0, 67, 82
1, 3929, Note_on_c, 0, 55, 61
1, 3965, Control_c, 0, 64, 127
1, 4005, Note_on_c, 0, 67, 0
1, 4005, Note_on_c, 0, 64, 52
1, 4081, Note_on_c, 0, 64, 0
1, 4081, Note_on_c, 0, 61, 58
1, 4157, Note_on_c, 0, 61, 0
1, 4157, Note_on_c, 0, 58, 52
1, 4233, Note_on_c, 0, 58, 0
1, 4233, Note_on_c, 0, 55, 0
1, 4233, Note_on_c, 0, 43, 0
1, 4236, Note_on_c, 0, 55, 66
1, 4294, Note_on_c, 0, 55, 0
1, 4294, Note_on_c, 0, 52, 65
1, 4355, Note_on_c, 0, 52, 0
1, 4355, Note_on_c, 0, 49, 63
1, 4419, Note_on_c, 0, 49, 0
1, 4419, Note_on_c, 0, 46, 63
1, 4467, Control_c, 0, 64, 0
1, 4471, Note_on_c, 0, 58, 63
1, 4488, Note_on_c, 0, 46, 0
1, 4488, Note_on_c, 0, 43, 63
1, 4500, Note_on_c, 0, 61, 53
1, 4528, Note_on_c, 0, 61, 0
1, 4528, Note_on_c, 0, 64, 53
1, 4557, Note_on_c, 0, 64, 0
1, 4557, Note_on_c, 0, 58, 0
1, 4557, Note_on_c, 0, 65, 83
1, 4560, Note_on_c, 0, 43, 0
1, 4560, Note_on_c, 0, 31, 70
1, 4560, Note_on_c, 0, 43, 86
1, 4600, Control_c, 0, 64, 127
1, 4633, Note_on_c, 0, 65, 0
1, 4633, Note_on_c, 0, 56, 54
1, 4710, Note_on_c, 0, 56, 0
1, 4710, Note_on_c, 0, 60, 60
1, 4787, Note_on_c, 0, 60, 0
1, 4787, Note_on_c, 0, 65, 52
1, 4863, Note_on_c, 0, 65, 0
1, 4863, Note_on_c, 0, 62, 82
1, 4863, Note_on_c, 0, 43, 0
1, 4866, Note_on_c, 0, 31, 0
1, 4866, Note_on_c, 0, 31, 75
1, 4866, Note_on_c, 0, 43, 86
1, 4870, Control_c, 0, 64, 0
1, 4926, Control_c, 0, 64, 127
1, 4941, Note_on_c, 0, 62, 0
1, 4941, Note_on_c, 0, 53, 52
1, 5019, Note_on_c, 0, 53, 0
1, 5019, Note_on_c, 0, 59, 59
1, 5102, Note_on_c, 0, 59, 0
1, 5102, Note_on_c, 0, 62, 54
1, 5186, Note_on_c, 0, 62, 0
1, 5186, Note_on_c, 0, 60, 82
1, 5186, Note_on_c, 0, 43, 0
1, 5189, Note_on_c, 0, 31, 0
1, 5189, Note_on_c, 0, 36, 68
1, 5189, Note_on_c, 0, 43, 83
1, 5192, Control_c, 0, 64, 0
1, 5227, Control_c, 0, 64, 127
1, 5252, Note_on_c, 0, 60, 0
1, 5252, Note_on_c, 0, 55, 52
1, 5318, Note_on_c, 0, 55, 0
1, 5318, Note_on_c, 0, 51, 58
1, 5386, Note_on_c, 0, 51, 0
1, 5386, Note_on_c, 0, 48, 52
1, 5455, Note_on_c, 0, 48, 0
1, 5455, Note_on_c, 0, 43, 52
1, 5525, Note_on_c, 0, 43, 0
1, 5525, Note_on_c, 0, 43, 0
1, 5525, Note_on_c, 0, 36, 0
1, 5528, Note_on_c, 0, 36, 96
1, 5528, Control_c, 0, 64, 0
1, 5557, Control_c, 0, 64, 127
1, 5783, Control_c, 0, 64, 0
1, 5802, Note_on_c, 0, 67, 63
1, 5827, Note_on_c, 0, 72, 53
1, 5840, Note_on_c, 0, 43, 72
1, 5852, Note_on_c, 0, 72, 0
1, 5852, Note_on_c, 0, 74, 53
1, 5859, Note_on_c, 0, 48, 75
1, 5877, Note_on_c, 0, 74, 0
1, 5877, Note_on_c, 0, 67, 0
1, 5877, Note_on_c, 0, 75, 89
1, 5880, Note_on_c, 0, 36, 0
1, 5880, Note_on_c, 0, 57, 80
1, 5911, Control_c, 0, 64, 127
1, 5954, Note_on_c, 0, 75, 0
1, 5954, Note_on_c, 0, 66, 60
1, 6030, Note_on_c, 0, 66, 0
1, 6030, Note_on_c, 0, 72, 63
1, 6030, Note_on_c, 0, 57, 0
1, 6033, Note_on_c, 0, 48, 0
1, 6033, Note_on_c, 0, 43, 0
1, 6048, Control_c, 0, 64, 0
1, 6106, Note_on_c, 0, 72, 0
1, 6106, Note_on_c, 0, 75, 63
1, 6144, Note_on_c, 0, 43, 69
1, 6163, Note_on_c, 0, 50, 73
1, 6182, Note_on_c, 0, 75, 0
1, 6182, Note_on_c, 0, 74, 88
1, 6182, Note_on_c, 0, 59, 75
1, 6221, Control_c, 0, 64, 127
1, 6259, Note_on_c, 0, 74, 0
1, 6259, Note_on_c, 0, 65, 58
1, 6335, Note_on_c, 0, 65, 0
1, 6335, Note_on_c, 0, 71, 63
1, 6335, Note_on_c, 0, 59, 0
1, 6338, Note_on_c, 0, 50, 0
1, 6338, Note_on_c, 0, 43, 0
1, 6351, Control_c, 0, 64, 0
1, 6417, Note_on_c, 0, 71, 0
1, 6417, Note_on_c, 0, 74, 63
1, 6457, Note_on_c, 0, 43, 69
1, 6478, Note_on_c, 0, 51, 74
1, 6498, Note_on_c, 0, 74, 0
1, 6498, Note_on_c, 0, 72, 88
1, 6498, Note_on_c, 0, 60, 78
1, 6538, Control_c, 0, 64, 127
1, 6574, Note_on_c, 0, 72, 0
1, 6574, Note_on_c, 0, 69, 59
1, 6650, Note_on_c, 0, 69, 0
1, 6650, Note_on_c, 0, 66, 63
1, 6650, Note_on_c, 0, 60, 0
1, 6653, Note_on_c, 0, 51, 0
1, 6653, Note_on_c, 0, 43, 0
1, 6726, Note_on_c, 0, 66, 0
1, 6726, Note_on_c, 0, 63, 63
1, 6802, Note_on_c, 0, 63, 0
1, 6802, Note_on_c, 0, 60, 66
1, 6878, Note_on_c, 0, 60, 0
1, 6878, Note_on_c, 0, 57, 65
1, 6955, Note_on_c, 0, 57, 0
1, 6955, Note_on_c, 0, 54, 63
1, 7039, Note_on_c, 0, 67, 63
1, 7039, Note_on_c, 0, 54, 0
1, 7039, Note_on_c, 0, 51, 63
1, 7067, Note_on_c, 0, 72, 53
1, 7070, Control_c, 0, 64, 0
1, 7096, Note_on_c, 0, 72, 0
1, 7096, Note_on_c, 0, 74, 53
1, 7124, Note_on_c, 0, 74, 0
1, 7124, Note_on_c, 0, 67, 0
1, 7124, Note_on_c, 0, 75, 89
1, 7127, Note_on_c, 0, 51, 0
1, 7127, Note_on_c, 0, 43, 61
1, 7127, Note_on_c, 0, 48, 66
1, 7130, Note_on_c, 0, 57, 75
1, 7185, Control_c, 0, 64, 127
1, 7200, Note_on_c, 0, 75, 0
1, 7200, Note_on_c, 0, 66, 60
1, 7276, Note_on_c, 0, 66, 0
1, 7276, Note_on_c, 0, 72, 63
1, 7276, Note_on_c, 0, 57, 0
1, 7279, Note_on_c, 0, 48, 0
1, 7279, Note_on_c, 0, 43, 0
1, 7301, Control_c, 0, 64, 0
1, 7352, Note_on_c, 0, 72, 0
1, 7352, Note_on_c, 0, 75, 63
1, 7428, Note_on_c, 0, 75, 0
1, 7428, Note_on_c, 0, 74, 88
1, 7428, Note_on_c, 0, 43, 65
1, 7431, Note_on_c, 0, 50, 69
1, 7431, Note_on_c, 0, 59, 75
1, 7486, Control_c, 0, 64, 127
1, 7504, Note_on_c, 0, 74, 0
1, 7504, Note_on_c, 0, 65, 58
1, 7580, Note_on_c, 0, 65, 0
1, 7580, Note_on_c, 0, 71, 63
1, 7580, Note_on_c, 0, 59, 0
1, 7583, Note_on_c, 0, 50, 0
1, 7583, Note_on_c, 0, 43, 0
1, 7611, Control_c, 0, 64, 0
1, 7661, Note_on_c, 0, 71, 0
1, 7661, Note_on_c, 0, 74, 63
1, 7743, Note_on_c, 0, 74, 0
1, 7743, Note_on_c, 0, 72, 88
1, 7743, Note_on_c, 0, 43, 59
1, 7746, Note_on_c, 0, 51, 65
1, 7746, Note_on_c, 0, 60, 72
1, 7771, Control_c, 0, 64, 127
1, 7819, Note_on_c, 0, 72, 0
1, 7819, Note_on_c, 0, 69, 59
1, 7895, Note_on_c, 0, 69, 0
1, 7895, Note_on_c, 0, 66, 63
1, 7895, Note_on_c, 0, 60, 0
1, 7898, Note_on_c, 0, 51, 0
1, 7898, Note_on_c, 0, 43, 0
1, 7971, Note_on_c, 0, 66, 0
1, 7971, Note_on_c, 0, 63, 63
1, 8047, Note_on_c, 0, 63, 0
1, 8047, Note_on_c, 0, 60, 66
1, 8123, Note_on_c, 0, 60, 0
1, 8123, Note_on_c, 0, 57, 65
1, 8199, Note_on_c, 0, 57, 0
1, 8199, Note_on_c, 0, 54, 63
1, 8282, Note_on_c, 0, 63, 63
1, 8282, Note_on_c, 0, 54, 0
1, 8282, Note_on_c, 0, 51, 63
1, 8310, Note_on_c, 0, 67, 53
1, 8313, Control_c, 0, 64, 0
1, 8324, Note_on_c, 0, 43, 52
1, 8337, Note_on_c, 0, 67, 0
1, 8337, Note_on_c, 0, 68, 53
1, 8365, Note_on_c, 0, 68, 0
1, 8365, Note_on_c, 0, 63, 0
1, 8365, Note_on_c, 0, 70, 88
1, 8368, Note_on_c, 0, 51, 0
1, 8368, Note_on_c, 0, 52, 63
1, 8401, Control_c, 0, 64, 127
1, 8441, Note_on_c, 0, 70, 0
1, 8441, Note_on_c, 0, 61, 54
1, 8517, Note_on_c, 0, 61, 0
1, 8517, Note_on_c, 0, 67, 60
1, 8546, Control_c, 0, 64, 0
1, 8593, Note_on_c, 0, 67, 0
1, 8593, Note_on_c, 0, 70, 52
1, 8631, Note_on_c, 0, 52, 0
1, 8631, Note_on_c, 0, 43, 0
1, 8631, Note_on_c, 0, 43, 55
1, 8669, Note_on_c, 0, 70, 0
1, 8669, Note_on_c, 0, 68, 82
1, 8669, Note_on_c, 0, 53, 63
1, 8705, Control_c, 0, 64, 127
1, 8745, Note_on_c, 0, 68, 0
1, 8745, Note_on_c, 0, 60, 52
1, 8821, Note_on_c, 0, 60, 0
1, 8821, Note_on_c, 0, 65, 59
1, 8838, Control_c, 0, 64, 0
1, 8902, Note_on_c, 0, 65, 0
1, 8902, Note_on_c, 0, 68, 54
1, 8943, Note_on_c, 0, 53, 0
1, 8943, Note_on_c, 0, 43, 0
1, 8943, Note_on_c, 0, 43, 51
1, 8983, Note_on_c, 0, 68, 0
1, 8983, Note_on_c, 0, 67, 82
1, 8983, Note_on_c, 0, 55, 61
1, 9019, Control_c, 0, 64, 127
1, 9059, Note_on_c, 0, 67, 0
1, 9059, Note_on_c, 0, 64, 52
1, 9135, Note_on_c, 0, 64, 0
1, 9135, Note_on_c, 0, 61, 58
1, 9211, Note_on_c, 0, 61, 0
1, 9211, Note_on_c, 0, 58, 52
1, 9287, Note_on_c, 0, 58, 0
1, 9287, Note_on_c, 0, 55, 0
1, 9287, Note_on_c, 0, 43, 0
1, 9290, Note_on_c, 0, 55, 66
1, 9348, Note_on_c, 0, 55, 0
1, 9348, Note_on_c, 0, 52, 65
1, 9409, Note_on_c, 0, 52, 0
1, 9409, Note_on_c, 0, 49, 63
1, 9474, Note_on_c, 0, 49, 0
1, 9474, Note_on_c, 0, 46, 63
1, 9521, Control_c, 0, 64, 0
1, 9525, Note_on_c, 0, 58, 63
1, 9542, Note_on_c, 0, 46, 0
1, 9542, Note_on_c, 0, 43, 63
1, 9554, Note_on_c, 0, 61, 53
1, 9582, Note_on_c, 0, 61, 0
1, 9582, Note_on_c, 0, 64, 53
1, 9611, Note_on_c, 0, 64, 0
1, 9611, Note_on_c, 0, 58, 0
1, 9611, Note_on_c, 0, 65, 83
1, 9614, Note_on_c, 0, 43, 0
1, 9614, Note_on_c, 0, 31, 70
1, 9614, Note_on_c, 0, 43, 86
1, 9654, Control_c, 0, 64, 127
1, 9688, Note_on_c, 0, 65, 0
1, 9688, Note_on_c, 0, 56, 54
1, 9764, Note_on_c, 0, 56, 0
1, 9764, Note_on_c, 0, 60, 60
1, 9841, Note_on_c, 0, 60, 0
1, 9841, Note_on_c, 0, 65, 52
1, 9917, Note_on_c, 0, 65, 0
1, 9917, Note_on_c, 0, 62, 82
1, 9917, Note_on_c, 0, 43, 0
1, 9920, Note_on_c, 0, 31, 0
1, 9920, Note_on_c, 0, 31, 75
1, 9920, Note_on_c, 0, 43, 86
1, 9924, Control_c, 0, 64, 0
1, 9980, Control_c, 0, 64, 127
1, 9995, Note_on_c, 0, 62, 0
1, 9995, Note_on_c, 0, 53, 52
1, 10073, Note_on_c, 0, 53, 0
1, 10073, Note_on_c, 0, 59, 59
1, 10157, Note_on_c, 0, 59, 0
1, 10157, Note_on_c, 0, 62, 54
1, 10240, Note_on_c, 0, 62, 0
1, 10240, Note_on_c, 0, 60, 82
1, 10240, Note_on_c, 0, 43, 0
1, 10243, Note_on_c, 0, 31, 0
1, 10243, Note_on_c, 0, 36, 68
1, 10243, Note_on_c, 0, 43, 83
1, 10246, Control_c, 0, 64, 0
1, 10281, Control_c, 0, 64, 127
1, 10306, Note_on_c, 0, 60, 0
1, 10306, Note_on_c, 0, 55, 52
1, 10373, Note_on_c, 0, 55, 0
1, 10373, Note_on_c, 0, 51, 58
1, 10440, Note_on_c, 0, 51, 0
1, 10440, Note_on_c, 0, 48, 52
1, 10509, Note_on_c, 0, 48, 0
1, 10509, Note_on_c, 0, 43, 52
1, 10579, Note_on_c, 0, 43, 0
1, 10579, Note_on_c, 0, 43, 0
1, 10579, Note_on_c, 0, 36, 0
1, 10582, Note_on_c, 0, 36, 98
1, 10582, Control_c, 0, 64, 0
1, 10612, Control_c, 0, 64, 127
1, 10766, Note_on_c, 0, 62, 74
1, 10776, Control_c, 0, 64, 0
1, 10822, Control_c, 0, 64, 127
1, 10853, Note_on_c, 0, 62, 0
1, 10853, Note_on_c, 0, 63, 55
1, 10933, Note_on_c, 0, 63, 0
1, 10933, Note_on_c, 0, 62, 83
1, 10933, Note_on_c, 0, 36, 0
1, 10936, Note_on_c, 0, 43, 66
1, 10936, Control_c, 0, 64, 0
1, 10986, Control_c, 0, 64, 127
1, 11013, Note_on_c, 0, 58, 53
1, 11094, Note_on_c, 0, 58, 0
1, 11094, Note_on_c, 0, 57, 59
1, 11168, Note_on_c, 0, 57, 0
1, 11168, Note_on_c, 0, 55, 51
1, 11243, Note_on_c, 0, 55, 0
1, 11243, Note_on_c, 0, 43, 0
1, 11243, Note_on_c, 0, 50, 54
1, 11393, Note_on_c, 0, 62, 0
1, 11393, Note_on_c, 0, 62, 72
1, 11393, Note_on_c, 0, 67, 72
1, 11405, Control_c, 0, 64, 0
1, 11441, Control_c, 0, 64, 127
1, 11471, Note_on_c, 0, 62, 0
1, 11471, Note_on_c, 0, 63, 59
1, 11510, Note_on_c, 0, 67, 0
1, 11549, Note_on_c, 0, 63, 0
1, 11549, Note_on_c, 0, 62, 86
1, 11549, Note_on_c, 0, 66, 86
1, 11552, Note_on_c, 0, 50, 0
1, 11552, Note_on_c, 0, 38, 65
1, 11552, Control_c, 0, 64, 0
1, 11618, Control_c, 0, 64, 127
1, 11629, Note_on_c, 0, 62, 0
1, 11629, Note_on_c, 0, 60, 57
1, 11709, Note_on_c, 0, 60, 0
1, 11709, Note_on_c, 0, 58, 58
1, 11784, Note_on_c, 0, 58, 0
1, 11784, Note_on_c, 0, 57, 58
1, 11859, Note_on_c, 0, 57, 0
1, 11859, Note_on_c, 0, 38, 0
1, 11859, Note_on_c, 0, 50, 55
1, 12010, Note_on_c, 0, 66, 0
1, 12010, Note_on_c, 0, 62, 77
1, 12018, Control_c, 0, 64, 0
1, 12055, Control_c, 0, 64, 127
1, 12090, Note_on_c, 0, 63, 58
1, 12130, Note_on_c, 0, 62, 0
1, 12170, Note_on_c, 0, 63, 0
1, 12170, Note_on_c, 0, 62, 89
1, 12170, Note_on_c, 0, 50, 0
1, 12173, Note_on_c, 0, 43, 66
1, 12173, Control_c, 0, 64, 0
1, 12235, Control_c, 0, 64, 127
1, 12251, Note_on_c, 0, 58, 53
1, 12331, Note_on_c, 0, 58, 0
1, 12331, Note_on_c, 0, 57, 59
1, 12406, Note_on_c, 0, 57, 0
1, 12406, Note_on_c, 0, 55, 51
1, 12481, Note_on_c, 0, 55, 0
1, 12481, Note_on_c, 0, 43, 0
1, 12481, Note_on_c, 0, 50, 54
1, 12630, Note_on_c, 0, 62, 0
1, 12630, Note_on_c, 0, 62, 67
1, 12630, Note_on_c, 0, 67, 67
1, 12639, Control_c, 0, 64, 0
1, 12697, Control_c, 0, 64, 127
1, 12708, Note_on_c, 0, 62, 0
1, 12708, Note_on_c, 0, 63, 59
1, 12747, Note_on_c, 0, 67, 0
1, 12787, Note_on_c, 0, 63, 0
1, 12787, Note_on_c, 0, 62, 85
1, 12787, Note_on_c, 0, 66, 85
1, 12790, Note_on_c, 0, 50, 0
1, 12790, Note_on_c, 0, 38, 65
1, 12790, Control_c, 0, 64, 0
1, 12858, Control_c, 0, 64, 127
1, 12866, Note_on_c, 0, 62, 0
1, 12866, Note_on_c, 0, 60, 57
1, 12946, Note_on_c, 0, 60, 0
1, 12946, Note_on_c, 0, 58, 58
1, 13021, Note_on_c, 0, 58, 0
1, 13021, Note_on_c, 0, 57, 58
1, 13097, Note_on_c, 0, 57, 0
1, 13097, Note_on_c, 0, 38, 0
1, 13097, Note_on_c, 0, 50, 55
1, 13247, Note_on_c, 0, 66, 0
1, 13247, Note_on_c, 0, 62, 72
1, 13255, Control_c, 0, 64, 0
1, 13308, Control_c, 0, 64, 127
1, 13327, Note_on_c, 0, 63, 58
1, 13408, Note_on_c, 0, 63, 0
1, 13408, Note_on_c, 0, 62, 0
1, 13408, Note_on_c, 0, 62, 84
1, 13411, Note_on_c, 0, 50, 0
1, 13411, Note_on_c, 0, 43, 85
1, 13411, Control_c, 0, 64, 0
1, 13461, Control_c, 0, 64, 127
1, 13488, Note_on_c, 0, 58, 53
1, 13568, Note_on_c, 0, 58, 0
1, 13568, Note_on_c, 0, 57, 59
1, 13643, Note_on_c, 0, 57, 0
1, 13643, Note_on_c, 0, 55, 51
1, 13718, Note_on_c, 0, 55, 0
1, 13718, Note_on_c, 0, 62, 0
1, 13718, Note_on_c, 0, 70, 85
1, 13721, Note_on_c, 0, 43, 0
1, 13721, Note_on_c, 0, 50, 54
1, 13868, Note_on_c, 0, 70, 0
1, 13868, Note_on_c, 0, 63, 67
1, 13946, Note_on_c, 0, 65, 59
1, 14024, Note_on_c, 0, 65, 0
1, 14024, Note_on_c, 0, 63, 0
1, 14024, Note_on_c, 0, 63, 86
1, 14027, Note_on_c, 0, 50, 0
1, 14027, Note_on_c, 0, 36, 89
1, 14027, Control_c, 0, 64, 0
1, 14093, Control_c, 0, 64, 127
1, 14104, Note_on_c, 0, 58, 53
1, 14185, Note_on_c, 0, 58, 0
1, 14185, Note_on_c, 0, 57, 59
1, 14259, Note_on_c, 0, 57, 0
1, 14259, Note_on_c, 0, 55, 51
1, 14334, Note_on_c, 0, 55, 0
1, 14334, Note_on_c, 0, 63, 0
1, 14334, Note_on_c, 0, 75, 93
1, 14337, Note_on_c, 0, 36, 0
1, 14337, Note_on_c, 0, 48, 54
1, 14484, Note_on_c, 0, 75, 0
1, 14484, Note_on_c, 0, 63, 67
1, 14562, Note_on_c, 0, 65, 59
1, 14640, Note_on_c, 0, 65, 0
1, 14640, Note_on_c, 0, 63, 0
1, 14640, Note_on_c, 0, 63, 86
1, 14643, Note_on_c, 0, 48, 0
1, 14643, Note_on_c, 0, 41, 92
1, 14643, Control_c, 0, 64, 0
1, 14709, Control_c, 0, 64, 127
1, 14721, Note_on_c, 0, 57, 53
1, 14801, Note_on_c, 0, 57, 0
1, 14801, Note_on_c, 0, 55, 59
1, 14874, Note_on_c, 0, 55, 0
1, 14874, Note_on_c, 0, 53, 51
1, 14947, Note_on_c, 0, 53, 0
1, 14947, Note_on_c, 0, 63, 0
1, 14947, Note_on_c, 0, 69, 90
1, 14950, Note_on_c, 0, 41, 0
1, 14950, Note_on_c, 0, 48, 54
1, 15093, Note_on_c, 0, 69, 0
1, 15093, Note_on_c, 0, 62, 67
1, 15178, Note_on_c, 0, 63, 59
1, 15264, Note_on_c, 0, 63, 0
1, 15264, Note_on_c, 0, 62, 0
1, 15264, Note_on_c, 0, 62, 86
1, 15267, Note_on_c, 0, 48, 0
1, 15267, Note_on_c, 0, 34, 98
1, 15267, Control_c, 0, 64, 0
1, 15333, Control_c, 0, 64, 127
1, 15344, Note_on_c, 0, 57, 53
1, 15424, Note_on_c, 0, 57, 0
1, 15424, Note_on_c, 0, 55, 59
1, 15499, Note_on_c, 0, 55, 0
1, 15499, Note_on_c, 0, 53, 51
1, 15574, Note_on_c, 0, 53, 0
1, 15574, Note_on_c, 0, 62, 0
1, 15574, Note_on_c, 0, 74, 93
1, 15577, Note_on_c, 0, 34, 0
1, 15577, Note_on_c, 0, 46, 54
1, 15723, Note_on_c, 0, 74, 0
1, 15723, Note_on_c, 0, 62, 67
1, 15802, Note_on_c, 0, 63, 59
1, 15880, Note_on_c, 0, 63, 0
1, 15880, Note_on_c, 0, 62, 0
1, 15880, Note_on_c, 0, 62, 86
1, 15883, Note_on_c, 0, 46, 0
1, 15883, Note_on_c, 0, 39, 89
1, 15883, Control_c, 0, 64, 0
1, 15949, Control_c, 0, 64, 127
1, 15960, Note_on_c, 0, 55, 53
1, 16041, Note_on_c, 0, 55, 0
1, 16041, Note_on_c, 0, 53, 59
1, 16115, Note_on_c, 0, 53, 0
1, 16115, Note_on_c, 0, 51, 51
1, 16190, Note_on_c, 0, 51, 0
1, 16190, Note_on_c, 0, 62, 0
1, 16190, Note_on_c, 0, 67, 90
1, 16193, Note_on_c, 0, 39, 0
1, 16193, Note_on_c, 0, 46, 54
1, 16340, Note_on_c, 0, 67, 0
1, 16340, Note_on_c, 0, 60, 67
1, 16424, Note_on_c, 0, 62, 59
1, 16507, Note_on_c, 0, 62, 0
1, 16507, Note_on_c, 0, 60, 0
1, 16507, Note_on_c, 0, 60, 86
1, 16510, Note_on_c, 0, 46, 0
1, 16510, Note_on_c, 0, 33, 88
1, 16510, Control_c, 0, 64, 0
1, 16576, Control_c, 0, 64, 127
1, 16588, Note_on_c, 0, 55, 53
1, 16668, Note_on_c, 0, 55, 0
1, 16668, Note_on_c, 0, 53, 59
1, 16743, Note_on_c, 0, 53, 0
1, 16743, Note_on_c, 0, 51, 51
1, 16818, Note_on_c, 0, 51, 0
1, 16818, Note_on_c, 0, 60, 0
1, 16818, Note_on_c, 0, 72, 93
1, 16821, Note_on_c, 0, 33, 0
1, 16821, Note_on_c, 0, 45, 54
1, 16967, Note_on_c, 0, 72, 0
1, 16967, Note_on_c, 0, 60, 67
1, 17045, Note_on_c, 0, 62, 59
1, 17124, Note_on_c, 0, 62, 0
1, 17124, Note_on_c, 0, 60, 0
1, 17124, Note_on_c, 0, 60, 86
1, 17127, Note_on_c, 0, 45, 0
1, 17127, Note_on_c, 0, 38, 83
1, 17127, Control_c, 0, 64, 0
1, 17193, Control_c, 0, 64, 127
1, 17204, Note_on_c, 0, 54, 53
1, 17284, Note_on_c, 0, 54, 0
1, 17284, Note_on_c, 0, 52, 59
1, 17359, Note_on_c, 0, 52, 0
1, 17359, Note_on_c, 0, 50, 51
1, 17434, Note_on_c, 0, 50, 0
1, 17434, Note_on_c, 0, 60, 0
1, 17434, Note_on_c, 0, 66, 90
1, 17437, Note_on_c, 0, 38, 0
1, 17437, Note_on_c, 0, 45, 54
1, 17584, Note_on_c, 0, 66, 0
1, 17584, Note_on_c, 0, 72, 67
1, 17662, Note_on_c, 0, 74, 59
1, 17740, Note_on_c, 0, 74, 0
1, 17740, Note_on_c, 0, 72, 0
1, 17740, Note_on_c, 0, 72, 86
1, 17743, Note_on_c, 0, 45, 0
1, 17743, Note_on_c, 0, 38, 84
1, 17743, Control_c, 0, 64, 0
1, 17809, Control_c, 0, 64, 127
1, 17820, Note_on_c, 0, 66, 53
1, 17901, Note_on_c, 0, 66, 0
1, 17901, Note_on_c, 0, 64, 59
1, 17975, Note_on_c, 0, 64, 0
1, 17975, Note_on_c, 0, 62, 51
1, 18050, Note_on_c, 0, 62, 0
1, 18050, Note_on_c, 0, 72, 0
1, 18050, Note_on_c, 0, 78, 90
1, 18053, Note_on_c, 0, 38, 0
1, 18053, Note_on_c, 0, 57, 54
1, 18216, Note_on_c, 0, 78, 0
1, 18216, Note_on_c, 0, 74, 80
1, 18224, Control_c, 0, 64, 0
1, 18224, Control_c, 0, 64, 0
1, 18260, Control_c, 0, 64, 127
1, 18266, Control_c, 0, 64, 127
1, 18294, Note_on_c, 0, 75, 60
1, 18334, Note_on_c, 0, 74, 0
1, 18373, Note_on_c, 0, 75, 0
1, 18373, Note_on_c, 0, 74, 90
1, 18373, Note_on_c, 0, 57, 0
1, 18376, Note_on_c, 0, 43, 66
1, 18376, Note_on_c, 0, 55, 66
1, 18376, Control_c, 0, 64, 0
1, 18426, Control_c, 0, 64, 127
1, 18453, Note_on_c, 0, 70, 58
1, 18533, Note_on_c, 0, 70, 0
1, 18533, Note_on_c, 0, 69, 63
1, 18607, Note_on_c, 0, 69, 0
1, 18607, Note_on_c, 0, 67, 54
1, 18682, Note_on_c, 0, 67, 0
1, 18682, Note_on_c, 0, 55, 0
1, 18682, Note_on_c, 0, 43, 0
1, 18685, Note_on_c, 0, 62, 54
1, 18832, Note_on_c, 0, 74, 0
1, 18832, Note_on_c, 0, 74, 77
1, 18832, Note_on_c, 0, 79, 77
1, 18843, Control_c, 0, 64, 0
1, 18880, Control_c, 0, 64, 127
1, 18910, Note_on_c, 0, 74, 0
1, 18910, Note_on_c, 0, 75, 63
1, 18949, Note_on_c, 0, 79, 0
1, 18988, Note_on_c, 0, 75, 0
1, 18988, Note_on_c, 0, 74, 94
1, 18988, Note_on_c, 0, 78, 94
1, 18991, Note_on_c, 0, 62, 0
1, 18991, Note_on_c, 0, 62, 65
1, 18991, Note_on_c, 0, 50, 65
1, 18991, Control_c, 0, 64, 0
1, 19057, Control_c, 0, 64, 127
1, 19068, Note_on_c, 0, 74, 0
1, 19068, Note_on_c, 0, 72, 61
1, 19148, Note_on_c, 0, 72, 0
1, 19148, Note_on_c, 0, 70, 62
1, 19223, Note_on_c, 0, 70, 0
1, 19223, Note_on_c, 0, 69, 62
1, 19298, Note_on_c, 0, 69, 0
1, 19298, Note_on_c, 0, 50, 0
1, 19298, Note_on_c, 0, 62, 0
1, 19301, Note_on_c, 0, 62, 55
1, 19449, Note_on_c, 0, 78, 0
1, 19449, Note_on_c, 0, 74, 84
1, 19457, Control_c, 0, 64, 0
1, 19494, Control_c, 0, 64, 127
1, 19529, Note_on_c, 0, 75, 62
1, 19569, Note_on_c, 0, 74, 0
1, 19609, Note_on_c, 0, 75, 0
1, 19609, Note_on_c, 0, 74, 97
1, 19609, Note_on_c, 0, 62, 0
1, 19612, Note_on_c, 0, 67, 66
1, 19612, Note_on_c, 0, 55, 66
1, 19612, Control_c, 0, 64, 0
1, 19674, Control_c, 0, 64, 127
1, 19690, Note_on_c, 0, 70, 58
1, 19770, Note_on_c, 0, 70, 0
1, 19770, Note_on_c, 0, 69, 63
1, 19845, Note_on_c, 0, 69, 0
1, 19845, Note_on_c, 0, 67, 54
1, 19920, Note_on_c, 0, 67, 0
1, 19920, Note_on_c, 0, 55, 0
1, 19920, Note_on_c, 0, 67, 0
1, 19923, Note_on_c, 0, 62, 54
1, 20069, Note_on_c, 0, 74, 0
1, 20069, Note_on_c, 0, 74, 73
1, 20069, Note_on_c, 0, 79, 73
1, 20078, Control_c, 0, 64, 0
1, 20136, Control_c, 0, 64, 127
1, 20147, Note_on_c, 0, 74, 0
1, 20147, Note_on_c, 0, 75, 63
1, 20186, Note_on_c, 0, 79, 0
1, 20225, Note_on_c, 0, 75, 0
1, 20225, Note_on_c, 0, 74, 92
1, 20225, Note_on_c, 0, 78, 92
1, 20228, Note_on_c, 0, 62, 0
1, 20228, Note_on_c, 0, 62, 65
1, 20228, Note_on_c, 0, 50, 65
1, 20228, Control_c, 0, 64, 0
1, 20297, Control_c, 0, 64, 127
1, 20305, Note_on_c, 0, 74, 0
1, 20305, Note_on_c, 0, 72, 61
1, 20385, Note_on_c, 0, 72, 0
1, 20385, Note_on_c, 0, 70, 62
1, 20460, Note_on_c, 0, 70, 0
1, 20460, Note_on_c, 0, 69, 62
1, 20536, Note_on_c, 0, 69, 0
1, 20536, Note_on_c, 0, 50, 0
1, 20536, Note_on_c, 0, 62, 0
1, 20539, Note_on_c, 0, 62, 55
1, 20686, Note_on_c, 0, 78, 0
1, 20686, Note_on_c, 0, 74, 77
1, 20694, Control_c, 0, 64, 0
1, 20747, Control_c, 0, 64, 127
1, 20766, Note_on_c, 0, 75, 62
1, 20846, Note_on_c, 0, 75, 0
1, 20846, Note_on_c, 0, 74, 0
1, 20846, Note_on_c, 0, 74, 91
1, 20849, Note_on_c, 0, 62, 0
1, 20849, Note_on_c, 0, 43, 77
1, 20849, Note_on_c, 0, 55, 77
1, 20852, Control_c, 0, 64, 0
1, 20900, Control_c, 0, 64, 127
1, 20927, Note_on_c, 0, 70, 58
1, 21007, Note_on_c, 0, 70, 0
1, 21007, Note_on_c, 0, 69, 63
1, 21080, Note_on_c, 0, 69, 0
1, 21080, Note_on_c, 0, 67, 54
1, 21154, Note_on_c, 0, 67, 0
1, 21154, Note_on_c, 0, 74, 0
1, 21154, Note_on_c, 0, 82, 92
1, 21157, Note_on_c, 0, 55, 0
1, 21157, Note_on_c, 0, 43, 0
1, 21157, Note_on_c, 0, 62, 54
1, 21300, Note_on_c, 0, 82, 0
1, 21300, Note_on_c, 0, 75, 73
1, 21378, Note_on_c, 0, 77, 63
1, 21456, Note_on_c, 0, 77, 0
1, 21456, Note_on_c, 0, 75, 0
1, 21456, Note_on_c, 0, 75, 94
1, 21459, Note_on_c, 0, 62, 0
1, 21459, Note_on_c, 0, 48, 77
1, 21459, Control_c, 0, 64, 0
1, 21525, Control_c, 0, 64, 127
1, 21537, Note_on_c, 0, 70, 58
1, 21617, Note_on_c, 0, 70, 0
1, 21617, Note_on_c, 0, 69, 63
1, 21690, Note_on_c, 0, 69, 0
1, 21690, Note_on_c, 0, 67, 54
1, 21763, Note_on_c, 0, 67, 0
1, 21763, Note_on_c, 0, 75, 0
1, 21763, Note_on_c, 0, 87, 101
1, 21766, Note_on_c, 0, 48, 0
1, 21766, Note_on_c, 0, 60, 54
1, 21909, Note_on_c, 0, 87, 0
1, 21909, Note_on_c, 0, 75, 73
1, 21993, Note_on_c, 0, 77, 63
1, 22076, Note_on_c, 0, 77, 0
1, 22076, Note_on_c, 0, 75, 0
1, 22076, Note_on_c, 0, 75, 94
1, 22079, Note_on_c, 0, 60, 0
1, 22079, Note_on_c, 0, 41, 77
1, 22079, Control_c, 0, 64, 0
1, 22145, Control_c, 0, 64, 127
1, 22156, Note_on_c, 0, 69, 58
1, 22237, Note_on_c, 0, 69, 0
1, 22237, Note_on_c, 0, 67, 63
1, 22309, Note_on_c, 0, 67, 0
1, 22309, Note_on_c, 0, 65, 54
1, 22382, Note_on_c, 0, 65, 0
1, 22382, Note_on_c, 0, 75, 0
1, 22382, Note_on_c, 0, 81, 81
1, 22385, Note_on_c, 0, 41, 0
1, 22385, Note_on_c, 0, 60, 54
1, 22528, Note_on_c, 0, 81, 0
1, 22528, Note_on_c, 0, 74, 73
1, 22606, Note_on_c, 0, 75, 63
1, 22684, Note_on_c, 0, 75, 0
1, 22684, Note_on_c, 0, 74, 0
1, 22684, Note_on_c, 0, 74, 94
1, 22687, Note_on_c, 0, 60, 0
1, 22687, Note_on_c, 0, 46, 77
1, 22687, Control_c, 0, 64, 0
1, 22753, Control_c, 0, 64, 127
1, 22765, Note_on_c, 0, 69, 58
1, 22845, Note_on_c, 0, 69, 0
1, 22845, Note_on_c, 0, 67, 63
1, 22920, Note_on_c, 0, 67, 0
1, 22920, Note_on_c, 0, 65, 54
1, 22995, Note_on_c, 0, 65, 0
1, 22995, Note_on_c, 0, 74, 0
1, 22995, Note_on_c, 0, 86, 98
1, 22998, Note_on_c, 0, 46, 0
1, 22998, Note_on_c, 0, 58, 54
1, 23144, Note_on_c, 0, 86, 0
1, 23144, Note_on_c, 0, 74, 73
1, 23223, Note_on_c, 0, 75, 63
1, 23301, Note_on_c, 0, 75, 0
1, 23301, Note_on_c, 0, 74, 0
1, 23301, Note_on_c, 0, 74, 94
1, 23304, Note_on_c, 0, 58, 0
1, 23304, Note_on_c, 0, 39, 77
1, 23304, Control_c, 0, 64, 0
1, 23370, Control_c, 0, 64, 127
1, 23381, Note_on_c, 0, 67, 58
1, 23462, Note_on_c, 0, 67, 0
1, 23462, Note_on_c, 0, 65, 63
1, 23536, Note_on_c, 0, 65, 0
1, 23536, Note_on_c, 0, 63, 54
1, 23611, Note_on_c, 0, 63, 0
1, 23611, Note_on_c, 0, 74, 0
1, 23611, Note_on_c, 0, 79, 85
1, 23614, Note_on_c, 0, 39, 0
1, 23614, Note_on_c, 0, 58, 54
1, 23761, Note_on_c, 0, 79, 0
1, 23761, Note_on_c, 0, 72, 73
1, 23844, Note_on_c, 0, 74, 63
1, 23928, Note_on_c, 0, 74, 0
1, 23928, Note_on_c, 0, 72, 0
1, 23928, Note_on_c, 0, 72, 94
1, 23931, Note_on_c, 0, 58, 0
1, 23931, Note_on_c, 0, 45, 81
1, 23931, Control_c, 0, 64, 0
1, 23997, Control_c, 0, 64, 127
1, 24009, Note_on_c, 0, 67, 58
1, 24089, Note_on_c, 0, 67, 0
1, 24089, Note_on_c, 0, 65, 63
1, 24164, Note_on_c, 0, 65, 0
1, 24164, Note_on_c, 0, 63, 54
1, 24239, Note_on_c, 0, 63, 0
1, 24239, Note_on_c, 0, 72, 0
1, 24239, Note_on_c, 0, 84, 101
1, 24242, Note_on_c, 0, 45, 0
1, 24242, Note_on_c, 0, 57, 54
1, 24388, Note_on_c, 0, 84, 0
1, 24388, Note_on_c, 0, 72, 67
1, 24466, Note_on_c, 0, 74, 59
1, 24544, Note_on_c, 0, 74, 0
1, 24544, Note_on_c, 0, 72, 0
1, 24544, Note_on_c, 0, 72, 86
1, 24547, Note_on_c, 0, 57, 0
1, 24547, Note_on_c, 0, 50, 83
1, 24547, Control_c, 0, 64, 0
1, 24613, Control_c, 0, 64, 127
1, 24625, Note_on_c, 0, 66, 53
1, 24705, Note_on_c, 0, 66, 0
1, 24705, Note_on_c, 0, 64, 59
1, 24780, Note_on_c, 0, 64, 0
1, 24780, Note_on_c, 0, 62, 51
1, 24855, Note_on_c, 0, 62, 0
1, 24855, Note_on_c, 0, 72, 0
1, 24855, Note_on_c, 0, 78, 84
1, 24858, Note_on_c, 0, 50, 0
1, 24858, Note_on_c, 0, 57, 54
1, 25004, Note_on_c, 0, 78, 0
1, 25004, Note_on_c, 0, 72, 67
1, 25083, Note_on_c, 0, 74, 59
1, 25161, Note_on_c, 0, 74, 0
1, 25161, Note_on_c, 0, 72, 0
1, 25161, Note_on_c, 0, 72, 86
1, 25164, Note_on_c, 0, 57, 0
1, 25164, Note_on_c, 0, 38, 84
1, 25164, Note_on_c, 0, 50, 84
1, 25164, Control_c, 0, 64, 0
1, 25230, Control_c, 0, 64, 127
1, 25241, Note_on_c, 0, 66, 53
1, 25322, Note_on_c, 0, 66, 0
1, 25322, Note_on_c, 0, 64, 59
1, 25396, Note_on_c, 0, 64, 0
1, 25396, Note_on_c, 0, 62, 51
1, 25471, Note_on_c, 0, 62, 0
1, 25471, Note_on_c, 0, 72, 0
1, 25471, Note_on_c, 0, 84, 90
1, 25474, Note_on_c, 0, 50, 0
1, 25474, Note_on_c, 0, 38, 0
1, 25474, Note_on_c, 0, 57, 54
1, 25621, Note_on_c, 0, 84, 0
1, 25699, Note_on_c, 0, 74, 77
1, 25724, Note_on_c, 0, 79, 67
1, 25749, Note_on_c, 0, 79, 0
1, 25749, Note_on_c, 0, 81, 70
1, 25774, Note_on_c, 0, 81, 0
1, 25774, Note_on_c, 0, 74, 0
1, 25774, Note_on_c, 0, 82, 97
1, 25777, Note_on_c, 0, 57, 0
1, 25777, Note_on_c, 0, 50, 57
1, 25777, Note_on_c, 0, 55, 61
1, 25780, Note_on_c, 0, 64, 69
1, 25808, Control_c, 0, 64, 127
1, 25851, Note_on_c, 0, 82, 0
1, 25851, Note_on_c, 0, 73, 65
1, 25927, Note_on_c, 0, 73, 0
1, 25927, Note_on_c, 0, 79, 69
1, 25927, Note_on_c, 0, 64, 0
1, 25930, Note_on_c, 0, 55, 0
1, 25930, Note_on_c, 0, 50, 0
1, 25945, Control_c, 0, 64, 0
1, 26003, Note_on_c, 0, 79, 0
1, 26003, Note_on_c, 0, 82, 69
1, 26079, Note_on_c, 0, 82, 0
1, 26079, Note_on_c, 0, 81, 96
1, 26079, Note_on_c, 0, 50, 60
1, 26082, Note_on_c, 0, 57, 63
1, 26082, Note_on_c, 0, 66, 69
1, 26118, Control_c, 0, 64, 127
1, 26156, Note_on_c, 0, 81, 0
1, 26156, Note_on_c, 0, 72, 62
1, 26232, Note_on_c, 0, 72, 0
1, 26232, Note_on_c, 0, 78, 69
1, 26232, Note_on_c, 0, 66, 0
1, 26235, Note_on_c, 0, 57, 0
1, 26235, Note_on_c, 0, 50, 0
1, 26248, Control_c, 0, 64, 0
1, 26314, Note_on_c, 0, 78, 0
1, 26314, Note_on_c, 0, 81, 69
1, 26395, Note_on_c, 0, 81, 0
1, 26395, Note_on_c, 0, 79, 96
1, 26395, Note_on_c, 0, 50, 54
1, 26398, Note_on_c, 0, 58, 60
1, 26398, Note_on_c, 0, 67, 66
1, 26435, Control_c, 0, 64, 127
1, 26471, Note_on_c, 0, 79, 0
1, 26471, Note_on_c, 0, 76, 76
1, 26547, Note_on_c, 0, 76, 0
1, 26547, Note_on_c, 0, 73, 81
1, 26547, Note_on_c, 0, 67, 0
1, 26550, Note_on_c, 0, 58, 0
1, 26550, Note_on_c, 0, 50, 0
1, 26623, Note_on_c, 0, 73, 0
1, 26623, Note_on_c, 0, 70, 85
1, 26699, Note_on_c, 0, 70, 0
1, 26699, Note_on_c, 0, 67, 76
1, 26776, Note_on_c, 0, 67, 0
1, 26776, Note_on_c, 0, 64, 82
1, 26852, Note_on_c, 0, 64, 0
1, 26852, Note_on_c, 0, 61, 69
1, 26936, Note_on_c, 0, 74, 80
1, 26936, Note_on_c, 0, 61, 0
1, 26936, Note_on_c, 0, 58, 69
1, 26964, Note_on_c, 0, 79, 70
1, 26967, Control_c, 0, 64, 0
1, 26993, Note_on_c, 0, 79, 0
1, 26993, Note_on_c, 0, 81, 73
1, 27021, Note_on_c, 0, 81, 0
1, 27021, Note_on_c, 0, 74, 0
1, 27021, Note_on_c, 0, 82, 97
1, 27024, Note_on_c, 0, 58, 0
1, 27024, Note_on_c, 0, 50, 57
1, 27024, Note_on_c, 0, 55, 61
1, 27027, Note_on_c, 0, 64, 69
1, 27082, Control_c, 0, 64, 127
1, 27097, Note_on_c, 0, 82, 0
1, 27097, Note_on_c, 0, 73, 65
1, 27173, Note_on_c, 0, 73, 0
1, 27173, Note_on_c, 0, 79, 69
1, 27173, Note_on_c, 0, 64, 0
1, 27176, Note_on_c, 0, 55, 0
1, 27176, Note_on_c, 0, 50, 0
1, 27198, Control_c, 0, 64, 0
1, 27249, Note_on_c, 0, 79, 0
1, 27249, Note_on_c, 0, 82, 69
1, 27325, Note_on_c, 0, 82, 0
1, 27325, Note_on_c, 0, 81, 96
1, 27325, Note_on_c, 0, 50, 60
1, 27328, Note_on_c, 0, 57, 63
1, 27328, Note_on_c, 0, 66, 69
1, 27383, Control_c, 0, 64, 127
1, 27401, Note_on_c, 0, 81, 0
1, 27401, Note_on_c, 0, 72, 62
1, 27477, Note_on_c, 0, 72, 0
1, 27477, Note_on_c, 0, 78, 69
1, 27477, Note_on_c, 0, 66, 0
1, 27480, Note_on_c, 0, 57, 0
1, 27480, Note_on_c, 0, 50, 0
1, 27508, Control_c, 0, 64, 0
1, 27558, Note_on_c, 0, 78, 0
1, 27558, Note_on_c, 0, 81, 69
1, 27640, Note_on_c, 0, 81, 0
1, 27640, Note_on_c, 0, 79, 96
1, 27640, Note_on_c, 0, 50, 54
1, 27643, Note_on_c, 0, 58, 60
1, 27643, Note_on_c, 0, 67, 66
1, 27668, Control_c, 0, 64, 127
1, 27716, Note_on_c, 0, 79, 0
1, 27716, Note_on_c, 0, 76, 73
1, 27792, Note_on_c, 0, 76, 0
1, 27792, Note_on_c, 0, 73, 77
1, 27792, Note_on_c, 0, 67, 0
1, 27795, Note_on_c, 0, 58, 0
1, 27795, Note_on_c, 0, 50, 0
1, 27868, Note_on_c, 0, 73, 0
1, 27868, Note_on_c, 0, 70, 81
1, 27944, Note_on_c, 0, 70, 0
1, 27944, Note_on_c, 0, 67, 76
1, 28020, Note_on_c, 0, 67, 0
1, 28020, Note_on_c, 0, 64, 82
1, 28096, Note_on_c, 0, 64, 0
1, 28096, Note_on_c, 0, 61, 69
1, 28179, Note_on_c, 0, 70, 78
1, 28179, Note_on_c, 0, 61, 0
1, 28179, Note_on_c, 0, 58, 69
1, 28207, Note_on_c, 0, 74, 65
1, 28210, Control_c, 0, 64, 0
1, 28221, Note_on_c, 0, 50, 57
1, 28235, Note_on_c, 0, 74, 0
1, 28235, Note_on_c, 0, 75, 72
1, 28262, Note_on_c, 0, 75, 0
1, 28262, Note_on_c, 0, 70, 0
1, 28262, Note_on_c, 0, 77, 96
1, 28265, Note_on_c, 0, 58, 0
1, 28265, Note_on_c, 0, 59, 77
1, 28298, Control_c, 0, 64, 127
1, 28338, Note_on_c, 0, 77, 0
1, 28338, Note_on_c, 0, 68, 59
1, 28414, Note_on_c, 0, 68, 0
1, 28414, Note_on_c, 0, 74, 65
1, 28443, Control_c, 0, 64, 0
1, 28490, Note_on_c, 0, 74, 0
1, 28490, Note_on_c, 0, 77, 57
1, 28528, Note_on_c, 0, 59, 0
1, 28528, Note_on_c, 0, 50, 0
1, 28528, Note_on_c, 0, 50, 60
1, 28566, Note_on_c, 0, 77, 0
1, 28566, Note_on_c, 0, 75, 89
1, 28566, Note_on_c, 0, 60, 73
1, 28602, Control_c, 0, 64, 127
1, 28642, Note_on_c, 0, 75, 0
1, 28642, Note_on_c, 0, 67, 57
1, 28719, Note_on_c, 0, 67, 0
1, 28719, Note_on_c, 0, 72, 63
1, 28735, Control_c, 0, 64, 0
1, 28799, Note_on_c, 0, 72, 0
1, 28799, Note_on_c, 0, 75, 59
1, 28840, Note_on_c, 0, 60, 0
1, 28840, Note_on_c, 0, 50, 0
1, 28840, Note_on_c, 0, 50, 54
1, 28880, Note_on_c, 0, 75, 0
1, 28880, Note_on_c, 0, 74, 89
1, 28880, Note_on_c, 0, 62, 66
1, 28916, Control_c, 0, 64, 127
1, 28956, Note_on_c, 0, 74, 0
1, 28956, Note_on_c, 0, 71, 57
1, 29032, Note_on_c, 0, 71, 0
1, 29032, Note_on_c, 0, 68, 62
1, 29108, Note_on_c, 0, 68, 0
1, 29108, Note_on_c, 0, 65, 57
1, 29184, Note_on_c, 0, 65, 0
1, 29184, Note_on_c, 0, 62, 0
1, 29184, Note_on_c, 0, 50, 0
1, 29187, Note_on_c, 0, 62, 72
1, 29245, Note_on_c, 0, 62, 0
1, 29245, Note_on_c, 0, 59, 70
1, 29306, Note_on_c, 0, 59, 0
1, 29306, Note_on_c, 0, 56, 69
1, 29371, Note_on_c, 0, 65, 78
1, 29371, Note_on_c, 0, 56, 0
1, 29371, Note_on_c, 0, 53, 69
1, 29394, Control_c, 0, 64, 0
1, 29416, Note_on_c, 0, 68, 58
1, 29439, Note_on_c, 0, 53, 0
1, 29439, Note_on_c, 0, 50, 69
1, 29462, Note_on_c, 0, 68, 0
1, 29462, Note_on_c, 0, 71, 70
1, 29508, Note_on_c, 0, 71, 0
1, 29508, Note_on_c, 0, 65, 0
1, 29508, Note_on_c, 0, 72, 90
1, 29511, Note_on_c, 0, 50, 0
1, 29511, Note_on_c, 0, 38, 57
1, 29511, Note_on_c, 0, 50, 69
1, 29551, Control_c, 0, 64, 127
1, 29585, Note_on_c, 0, 72, 0
1, 29585, Note_on_c, 0, 63, 59
1, 29661, Note_on_c, 0, 63, 0
1, 29661, Note_on_c, 0, 67, 65
1, 29738, Note_on_c, 0, 67, 0
1, 29738, Note_on_c, 0, 72, 57
1, 29814, Note_on_c, 0, 72, 0
1, 29814, Note_on_c, 0, 69, 89
1, 29814, Note_on_c, 0, 50, 0
1, 29817, Note_on_c, 0, 38, 0
1, 29817, Note_on_c, 0, 38, 60
1, 29817, Note_on_c, 0, 50, 69
1, 29822, Control_c, 0, 64, 0
1, 29877, Control_c, 0, 64, 127
1, 29892, Note_on_c, 0, 69, 0
1, 29892, Note_on_c, 0, 60, 57
1, 29970, Note_on_c, 0, 60, 0
1, 29970, Note_on_c, 0, 66, 63
1, 30054, Note_on_c, 0, 66, 0
1, 30054, Note_on_c, 0, 69, 59
1, 30137, Note_on_c, 0, 69, 0
1, 30137, Note_on_c, 0, 67, 89
1, 30137, Note_on_c, 0, 50, 0
1, 30140, Note_on_c, 0, 38, 0
1, 30140, Note_on_c, 0, 43, 54
1, 30140, Note_on_c, 0, 50, 66
1, 30143, Control_c, 0, 64, 0
1, 30178, Control_c, 0, 64, 127
1, 30203, Note_on_c, 0, 67, 0
1, 30203, Note_on_c, 0, 62, 66
1, 30270, Note_on_c, 0, 62, 0
1, 30270, Note_on_c, 0, 58, 69
1, 30337, Note_on_c, 0, 58, 0
1, 30337, Note_on_c, 0, 55, 73
1, 30407, Note_on_c, 0, 55, 0
1, 30407, Note_on_c, 0, 50, 76
1, 30477, Note_on_c, 0, 50, 0
1, 30477, Note_on_c, 0, 50, 0
1, 30477, Note_on_c, 0, 43, 0
1, 30480, Note_on_c, 0, 43, 100
1, 30480, Control_c, 0, 64, 0
1, 30508, Control_c, 0, 64, 127
1, 30655, Note_on_c, 0, 43, 0
1, 30655, Note_on_c, 0, 55, 75
1, 30671, Control_c, 0, 64, 0
1, 30735, Note_on_c, 0, 54, 59
1, 30752, Note_on_c, 0, 55, 0
1, 30816, Note_on_c, 0, 54, 0
1, 30816, Note_on_c, 0, 55, 84
1, 30894, Note_on_c, 0, 56, 63
1, 30910, Note_on_c, 0, 55, 0
1, 30972, Note_on_c, 0, 56, 0
1, 30972, Note_on_c, 0, 53, 73
1, 31050, Note_on_c, 0, 55, 62
1, 31066, Note_on_c, 0, 53, 0
1, 31128, Note_on_c, 0, 55, 0
1, 31128, Note_on_c, 0, 51, 75
1, 31205, Note_on_c, 0, 53, 63
1, 31221, Note_on_c, 0, 51, 0
1, 31282, Note_on_c, 0, 53, 0
1, 31282, Note_on_c, 0, 50, 70
1, 31359, Note_on_c, 0, 51, 61
1, 31375, Note_on_c, 0, 50, 0
1, 31440, Note_on_c, 0, 51, 0
1, 31440, Note_on_c, 0, 48, 75
1, 31494, Control_c, 0, 64, 127
1, 31517, Note_on_c, 0, 48, 0
1, 31517, Note_on_c, 0, 50, 65
1, 31593, Note_on_c, 0, 50, 0
1, 31593, Note_on_c, 0, 51, 65
1, 31670, Note_on_c, 0, 51, 0
1, 31670, Note_on_c, 0, 55, 72
1, 31747, Note_on_c, 0, 55, 0
1, 31747, Note_on_c, 0, 60, 70
1, 31753, Control_c, 0, 64, 0
1, 31802, Control_c, 0, 64, 127
1, 31825, Note_on_c, 0, 60, 0
1, 31825, Note_on_c, 0, 62, 75
1, 31903, Note_on_c, 0, 62, 0
1, 31903, Note_on_c, 0, 63, 81
1, 31981, Note_on_c, 0, 63, 0
1, 31981, Note_on_c, 0, 59, 70
1, 32058, Note_on_c, 0, 59, 0
1, 32058, Note_on_c, 0, 60, 83
1, 32058, Control_c, 0, 64, 0
1, 32135, Note_on_c, 0, 59, 65
1, 32150, Note_on_c, 0, 60, 0
1, 32212, Note_on_c, 0, 59, 0
1, 32212, Note_on_c, 0, 60, 74
1, 32289, Note_on_c, 0, 55, 65
1, 32305, Note_on_c, 0, 60, 0
1, 32366, Note_on_c, 0, 55, 0
1, 32366, Note_on_c, 0, 56, 75
1, 32443, Note_on_c, 0, 55, 61
1, 32458, Note_on_c, 0, 56, 0
1, 32520, Note_on_c, 0, 55, 0
1, 32520, Note_on_c, 0, 56, 68
1, 32596, Note_on_c, 0, 52, 60
1, 32612, Note_on_c, 0, 56, 0
1, 32673, Note_on_c, 0, 52, 0
1, 32673, Note_on_c, 0, 53, 73
1, 32750, Note_on_c, 0, 52, 63
1, 32765, Note_on_c, 0, 53, 0
1, 32827, Note_on_c, 0, 52, 0
1, 32827, Note_on_c, 0, 53, 68
1, 32904, Note_on_c, 0, 50, 61
1, 32920, Note_on_c, 0, 53, 0
1, 32984, Note_on_c, 0, 50, 0
1, 32984, Note_on_c, 0, 55, 72
1, 33039, Control_c, 0, 64, 127
1, 33061, Note_on_c, 0, 55, 0
1, 33061, Note_on_c, 0, 53, 70
1, 33138, Note_on_c, 0, 60, 68
1, 33138, Note_on_c, 0, 53, 0
1, 33138, Note_on_c, 0, 51, 69
1, 33216, Note_on_c, 0, 60, 0
1, 33216, Note_on_c, 0, 59, 53
1, 33216, Note_on_c, 0, 51, 0
1, 33219, Note_on_c, 0, 50, 68
1, 33235, Control_c, 0, 64, 0
1, 33295, Note_on_c, 0, 59, 0
1, 33295, Note_on_c, 0, 60, 76
1, 33295, Note_on_c, 0, 50, 0
1, 33298, Note_on_c, 0, 51, 69
1, 33372, Note_on_c, 0, 62, 58
1, 33387, Note_on_c, 0, 60, 0
1, 33448, Note_on_c, 0, 62, 0
1, 33448, Note_on_c, 0, 60, 66
1, 33448, Note_on_c, 0, 51, 0
1, 33451, Note_on_c, 0, 51, 67
1, 33525, Note_on_c, 0, 62, 57
1, 33525, Note_on_c, 0, 51, 0
1, 33541, Note_on_c, 0, 60, 0
1, 33602, Note_on_c, 0, 62, 0
1, 33602, Note_on_c, 0, 58, 68
1, 33602, Note_on_c, 0, 50, 74
1, 33679, Note_on_c, 0, 60, 58
1, 33679, Note_on_c, 0, 50, 0
1, 33694, Note_on_c, 0, 58, 0
1, 33756, Note_on_c, 0, 60, 0
1, 33756, Note_on_c, 0, 57, 63
1, 33756, Note_on_c, 0, 48, 67
1, 33832, Note_on_c, 0, 58, 55
1, 33832, Note_on_c, 0, 48, 0
1, 33848, Note_on_c, 0, 57, 0
1, 33911, Note_on_c, 0, 58, 0
1, 33911, Note_on_c, 0, 55, 68
1, 33911, Note_on_c, 0, 46, 74
1, 33915, Control_c, 0, 64, 127
1, 33988, Note_on_c, 0, 55, 0
1, 33988, Note_on_c, 0, 57, 58
1, 34065, Note_on_c, 0, 57, 0
1, 34065, Note_on_c, 0, 58, 58
1, 34142, Note_on_c, 0, 58, 0
1, 34142, Note_on_c, 0, 62, 65
1, 34219, Note_on_c, 0, 62, 0
1, 34219, Note_on_c, 0, 67, 63
1, 34228, Control_c, 0, 64, 0
1, 34270, Control_c, 0, 64, 127
1, 34296, Note_on_c, 0, 67, 0
1, 34296, Note_on_c, 0, 69, 68
1, 34373, Note_on_c, 0, 69, 0
1, 34373, Note_on_c, 0, 70, 73
1, 34373, Note_on_c, 0, 46, 0
1, 34376, Note_on_c, 0, 45, 67
1, 34450, Note_on_c, 0, 70, 0
1, 34450, Note_on_c, 0, 66, 63
1, 34530, Note_on_c, 0, 66, 0
1, 34530, Note_on_c, 0, 67, 75
1, 34530, Note_on_c, 0, 45, 0
1, 34533, Note_on_c, 0, 46, 76
1, 34533, Control_c, 0, 64, 0
1, 34607, Note_on_c, 0, 66, 58
1, 34622, Note_on_c, 0, 67, 0
1, 34683, Note_on_c, 0, 66, 0
1, 34683, Note_on_c, 0, 67, 67
1, 34683, Note_on_c, 0, 46, 0
1, 34686, Note_on_c, 0, 47, 69
1, 34760, Note_on_c, 0, 62, 58
1, 34760, Note_on_c, 0, 47, 0
1, 34776, Note_on_c, 0, 67, 0
1, 34837, Note_on_c, 0, 62, 0
1, 34837, Note_on_c, 0, 63, 68
1, 34837, Note_on_c, 0, 48, 76
1, 34915, Note_on_c, 0, 62, 55
1, 34915, Note_on_c, 0, 48, 0
1, 34931, Note_on_c, 0, 63, 0
1, 34993, Note_on_c, 0, 62, 0
1, 34993, Note_on_c, 0, 63, 61
1, 34993, Note_on_c, 0, 50, 69
1, 35071, Note_on_c, 0, 59, 54
1, 35071, Note_on_c, 0, 50, 0
1, 35086, Note_on_c, 0, 63, 0
1, 35150, Note_on_c, 0, 59, 0
1, 35150, Note_on_c, 0, 60, 66
1, 35150, Note_on_c, 0, 51, 81
1, 35228, Note_on_c, 0, 59, 58
1, 35228, Note_on_c, 0, 51, 0
1, 35243, Note_on_c, 0, 60, 0
1, 35306, Note_on_c, 0, 59, 0
1, 35306, Note_on_c, 0, 60, 61
1, 35306, Note_on_c, 0, 48, 69
1, 35383, Note_on_c, 0, 55, 55
1, 35383, Note_on_c, 0, 48, 0
1, 35399, Note_on_c, 0, 60, 0
1, 35461, Note_on_c, 0, 55, 0
1, 35461, Note_on_c, 0, 59, 65
1, 35461, Note_on_c, 0, 50, 69
1, 35539, Note_on_c, 0, 55, 63
1, 35539, Note_on_c, 0, 50, 0
1, 35554, Note_on_c, 0, 59, 0
1, 35617, Note_on_c, 0, 55, 0
1, 35617, Note_on_c, 0, 67, 82
1, 35617, Note_on_c, 0, 53, 73
1, 35696, Note_on_c, 0, 66, 63
1, 35696, Note_on_c, 0, 50, 66
1, 35711, Note_on_c, 0, 67, 0
1, 35711, Note_on_c, 0, 53, 0
1, 35775, Note_on_c, 0, 66, 0
1, 35775, Note_on_c, 0, 67, 91
1, 35775, Note_on_c, 0, 50, 0
1, 35778, Note_on_c, 0, 51, 80
1, 35852, Note_on_c, 0, 68, 69
1, 35868, Note_on_c, 0, 67, 0
1, 35930, Note_on_c, 0, 68, 0
1, 35930, Note_on_c, 0, 65, 78
1, 35930, Note_on_c, 0, 51, 0
1, 35933, Note_on_c, 0, 38, 69
1, 35933, Note_on_c, 0, 50, 69
1, 36008, Note_on_c, 0, 67, 67
1, 36008, Note_on_c, 0, 50, 0
1, 36008, Note_on_c, 0, 38, 0
1, 36023, Note_on_c, 0, 65, 0
1, 36086, Note_on_c, 0, 67, 0
1, 36086, Note_on_c, 0, 63, 82
1, 36086, Note_on_c, 0, 36, 76
1, 36089, Note_on_c, 0, 48, 76
1, 36166, Note_on_c, 0, 65, 69
1, 36166, Note_on_c, 0, 48, 0
1, 36166, Note_on_c, 0, 36, 0
1, 36181, Note_on_c, 0, 63, 0
1, 36245, Note_on_c, 0, 65, 0
1, 36245, Note_on_c, 0, 62, 76
1, 36245, Note_on_c, 0, 34, 69
1, 36248, Note_on_c, 0, 46, 69
1, 36326, Note_on_c, 0, 63, 66
1, 36326, Note_on_c, 0, 46, 0
1, 36326, Note_on_c, 0, 34, 0
1, 36343, Note_on_c, 0, 62, 0
1, 36410, Note_on_c, 0, 63, 0
1, 36410, Note_on_c, 0, 60, 82
1, 36410, Note_on_c, 0, 33, 82
1, 36413, Note_on_c, 0, 45, 82
1, 36438, Control_c, 0, 64, 127
1, 36495, Note_on_c, 0, 60, 0
1, 36495, Note_on_c, 0, 62, 70
1, 36574, Note_on_c, 0, 62, 0
1, 36574, Note_on_c, 0, 63, 70
1, 36653, Note_on_c, 0, 63, 0
1, 36653, Note_on_c, 0, 67, 77
1, 36732, Note_on_c, 0, 67, 0
1, 36732, Note_on_c, 0, 72, 76
1, 36738, Control_c, 0, 64, 0
1, 36811, Note_on_c, 0, 72, 0
1, 36811, Note_on_c, 0, 74, 82
1, 36818, Control_c, 0, 64, 127
1, 36890, Note_on_c, 0, 74, 0
1, 36890, Note_on_c, 0, 75, 88
1, 36890, Note_on_c, 0, 45, 0
1, 36893, Note_on_c, 0, 33, 0
1, 36893, Note_on_c, 0, 33, 70
1, 36893, Note_on_c, 0, 45, 70
1, 36975, Note_on_c, 0, 75, 0
1, 36975, Note_on_c, 0, 66, 76
1, 37060, Note_on_c, 0, 66, 0
1, 37060, Note_on_c, 0, 74, 90
1, 37060, Note_on_c, 0, 45, 0
1, 37063, Note_on_c, 0, 33, 0
1, 37063, Note_on_c, 0, 34, 76
1, 37063, Note_on_c, 0, 46, 76
1, 37066, Control_c, 0, 64, 0
1, 37120, Control_c, 0, 64, 127
1, 37144, Note_on_c, 0, 74, 0
1, 37144, Note_on_c, 0, 67, 70
1, 37228, Note_on_c, 0, 67, 0
1, 37228, Note_on_c, 0, 70, 80
1, 37313, Note_on_c, 0, 70, 0
1, 37313, Note_on_c, 0, 74, 70
1, 37397, Note_on_c, 0, 74, 0
1, 37397, Note_on_c, 0, 72, 82
1, 37397, Note_on_c, 0, 46, 0
1, 37400, Note_on_c, 0, 34, 0
1, 37400, Note_on_c, 0, 36, 75
1, 37400, Note_on_c, 0, 48, 75
1, 37404, Control_c, 0, 64, 0
1, 37445, Control_c, 0, 64, 127
1, 37481, Note_on_c, 0, 72, 0
1, 37481, Note_on_c, 0, 63, 66
1, 37566, Note_on_c, 0, 63, 0
1, 37566, Note_on_c, 0, 69, 74
1, 37650, Note_on_c, 0, 69, 0
1, 37650, Note_on_c, 0, 72, 65
1, 37736, Note_on_c, 0, 72, 0
1, 37736, Note_on_c, 0, 66, 78
1, 37736, Note_on_c, 0, 48, 0
1, 37739, Note_on_c, 0, 36, 0
1, 37739, Note_on_c, 0, 38, 78
1, 37739, Note_on_c, 0, 50, 78
1, 37742, Control_c, 0, 64, 0
1, 37799, Control_c, 0, 64, 127
1, 37825, Note_on_c, 0, 66, 0
1, 37825, Note_on_c, 0, 60, 69
1, 37916, Note_on_c, 0, 60, 0
1, 37916, Note_on_c, 0, 62, 74
1, 38011, Note_on_c, 0, 62, 0
1, 38011, Note_on_c, 0, 66, 66
1, 38167, Note_on_c, 0, 66, 0
1, 38167, Note_on_c, 0, 59, 74
1, 38167, Note_on_c, 0, 67, 86
1, 38170, Note_on_c, 0, 50, 0
1, 38170, Note_on_c, 0, 38, 0
1, 38170, Note_on_c, 0, 43, 68
1, 38173, Note_on_c, 0, 50, 80
1, 38178, Control_c, 0, 64, 0
1, 38383, Note_on_c, 0, 67, 0
1, 38383, Note_on_c, 0, 59, 0
1, 38383, Note_on_c, 0, 50, 0
1, 38386, Note_on_c, 0, 43, 0
1, 38386, Note_on_c, 0, 55, 75
1, 38399, Control_c, 0, 64, 0
1, 38464, Note_on_c, 0, 54, 59
1, 38480, Note_on_c, 0, 55, 0
1, 38545, Note_on_c, 0, 54, 0
1, 38545, Note_on_c, 0, 55, 84
1, 38623, Note_on_c, 0, 56, 63
1, 38638, Note_on_c, 0, 55, 0
1, 38701, Note_on_c, 0, 56, 0
1, 38701, Note_on_c, 0, 53, 73
1, 38779, Note_on_c, 0, 55, 62
1, 38794, Note_on_c, 0, 53, 0
1, 38857, Note_on_c, 0, 55, 0
1, 38857, Note_on_c, 0, 51, 75
1, 38933, Note_on_c, 0, 53, 63
1, 38949, Note_on_c, 0, 51, 0
1, 39010, Note_on_c, 0, 53, 0
1, 39010, Note_on_c, 0, 50, 70
1, 39087, Note_on_c, 0, 51, 61
1, 39104, Note_on_c, 0, 50, 0
1, 39168, Note_on_c, 0, 51, 0
1, 39168, Note_on_c, 0, 48, 75
1, 39223, Control_c, 0, 64, 127
1, 39245, Note_on_c, 0, 48, 0
1, 39245, Note_on_c, 0, 50, 65
1, 39322, Note_on_c, 0, 50, 0
1, 39322, Note_on_c, 0, 51, 65
1, 39398, Note_on_c, 0, 51, 0
1, 39398, Note_on_c, 0, 55, 72
1, 39475, Note_on_c, 0, 55, 0
1, 39475, Note_on_c, 0, 60, 70
1, 39482, Control_c, 0, 64, 0
1, 39531, Control_c, 0, 64, 127
1, 39553, Note_on_c, 0, 60, 0
1, 39553, Note_on_c, 0, 62, 75
1, 39632, Note_on_c, 0, 62, 0
1, 39632, Note_on_c, 0, 63, 81
1, 39709, Note_on_c, 0, 63, 0
1, 39709, Note_on_c, 0, 59, 70
1, 39786, Note_on_c, 0, 59, 0
1, 39786, Note_on_c, 0, 60, 83
1, 39786, Control_c, 0, 64, 0
1, 39863, Note_on_c, 0, 59, 65
1, 39879, Note_on_c, 0, 60, 0
1, 39940, Note_on_c, 0, 59, 0
1, 39940, Note_on_c, 0, 60, 74
1, 40018, Note_on_c, 0, 55, 65
1, 40033, Note_on_c, 0, 60, 0
1, 40095, Note_on_c, 0, 55, 0
1, 40095, Note_on_c, 0, 56, 75
1, 40171, Note_on_c, 0, 55, 61
1, 40187, Note_on_c, 0, 56, 0
1, 40248, Note_on_c, 0, 55, 0
1, 40248, Note_on_c, 0, 56, 68
1, 40325, Note_on_c, 0, 52, 60
1, 40340, Note_on_c, 0, 56, 0
1, 40401, Note_on_c, 0, 52, 0
1, 40401, Note_on_c, 0, 53, 73
1, 40478, Note_on_c, 0, 52, 63
1, 40494, Note_on_c, 0, 53, 0
1, 40555, Note_on_c, 0, 52, 0
1, 40555, Note_on_c, 0, 53, 68
1, 40632, Note_on_c, 0, 50, 61
1, 40648, Note_on_c, 0, 53, 0
1, 40712, Note_on_c, 0, 50, 0
1, 40712, Note_on_c, 0, 55, 72
1, 40767, Control_c, 0, 64, 127
1, 40789, Note_on_c, 0, 55, 0
1, 40789, Note_on_c, 0, 53, 70
1, 40866, Note_on_c, 0, 60, 68
1, 40866, Note_on_c, 0, 53, 0
1, 40866, Note_on_c, 0, 51, 69
1, 40945, Note_on_c, 0, 60, 0
1, 40945, Note_on_c, 0, 59, 53
1, 40945, Note_on_c, 0, 51, 0
1, 40948, Note_on_c, 0, 50, 68
1, 40963, Control_c, 0, 64, 0
1, 41023, Note_on_c, 0, 59, 0
1, 41023, Note_on_c, 0, 60, 76
1, 41023, Note_on_c, 0, 50, 0
1, 41026, Note_on_c, 0, 51, 69
1, 41100, Note_on_c, 0, 62, 58
1, 41115, Note_on_c, 0, 60, 0
1, 41177, Note_on_c, 0, 62, 0
1, 41177, Note_on_c, 0, 60, 66
1, 41177, Note_on_c, 0, 51, 0
1, 41180, Note_on_c, 0, 51, 67
1, 41254, Note_on_c, 0, 62, 57
1, 41254, Note_on_c, 0, 51, 0
1, 41269, Note_on_c, 0, 60, 0
1, 41331, Note_on_c, 0, 62, 0
1, 41331, Note_on_c, 0, 58, 68
1, 41331, Note_on_c, 0, 50, 74
1, 41407, Note_on_c, 0, 60, 58
1, 41407, Note_on_c, 0, 50, 0
1, 41423, Note_on_c, 0, 58, 0
1, 41484, Note_on_c, 0, 60, 0
1, 41484, Note_on_c, 0, 57, 63
1, 41484, Note_on_c, 0, 48, 67
1, 41561, Note_on_c, 0, 58, 55
1, 41561, Note_on_c, 0, 48, 0
1, 41576, Note_on_c, 0, 57, 0
1, 41640, Note_on_c, 0, 58, 0
1, 41640, Note_on_c, 0, 55, 68
1, 41640, Note_on_c, 0, 46, 74
1, 41643, Control_c, 0, 64, 127
1, 41717, Note_on_c, 0, 55, 0
1, 41717, Note_on_c, 0, 57, 58
1, 41794, Note_on_c, 0, 57, 0
1, 41794, Note_on_c, 0, 58, 58
1, 41871, Note_on_c, 0, 58, 0
1, 41871, Note_on_c, 0, 62, 65
1, 41947, Note_on_c, 0, 62, 0
1, 41947, Note_on_c, 0, 67, 63
1, 41956, Control_c, 0, 64, 0
1, 41999, Control_c, 0, 64, 127
1, 42024, Note_on_c, 0, 67, 0
1, 42024, Note_on_c, 0, 69, 68
1, 42101, Note_on_c, 0, 69, 0
1, 42101, Note_on_c, 0, 70, 73
1, 42101, Note_on_c, 0, 46, 0
1, 42104, Note_on_c, 0, 45, 67
1, 42178, Note_on_c, 0, 70, 0
1, 42178, Note_on_c, 0, 66, 63
1, 42258, Note_on_c, 0, 66, 0
1, 42258, Note_on_c, 0, 67, 75
1, 42258, Note_on_c, 0, 45, 0
1, 42261, Note_on_c, 0, 46, 76
1, 42261, Control_c, 0, 64, 0
1, 42335, Note_on_c, 0, 66, 58
1, 42350, Note_on_c, 0, 67, 0
1, 42412, Note_on_c, 0, 66, 0
1, 42412, Note_on_c, 0, 67, 67
1, 42412, Note_on_c, 0, 46, 0
1, 42415, Note_on_c, 0, 47, 69
1, 42489, Note_on_c, 0, 62, 58
1, 42489, Note_on_c, 0, 47, 0
1, 42504, Note_on_c, 0, 67, 0
1, 42566, Note_on_c, 0, 62, 0
1, 42566, Note_on_c, 0, 63, 68
1, 42566, Note_on_c, 0, 48, 76
1, 42643, Note_on_c, 0, 62, 55
1, 42643, Note_on_c, 0, 48, 0
1, 42659, Note_on_c, 0, 63, 0
1, 42721, Note_on_c, 0, 62, 0
1, 42721, Note_on_c, 0, 63, 61
1, 42721, Note_on_c, 0, 50, 69
1, 42799, Note_on_c, 0, 59, 54
1, 42799, Note_on_c, 0, 50, 0
1, 42815, Note_on_c, 0, 63, 0
1, 42878, Note_on_c, 0, 59, 0
1, 42878, Note_on_c, 0, 60, 66
1, 42878, Note_on_c, 0, 51, 81
1, 42956, Note_on_c, 0, 59, 58
1, 42956, Note_on_c, 0, 51, 0
1, 42972, Note_on_c, 0, 60, 0
1, 43034, Note_on_c, 0, 59, 0
1, 43034, Note_on_c, 0, 60, 61
1, 43034, Note_on_c, 0, 48, 69
1, 43112, Note_on_c, 0, 55, 55
1, 43112, Note_on_c, 0, 48, 0
1, 43127, Note_on_c, 0, 60, 0
1, 43189, Note_on_c, 0, 55, 0
1, 43189, Note_on_c, 0, 59, 65
1, 43189, Note_on_c, 0, 50, 69
1, 43267, Note_on_c, 0, 55, 63
1, 43267, Note_on_c, 0, 50, 0
1, 43283, Note_on_c, 0, 59, 0
1, 43345, Note_on_c, 0, 55, 0
1, 43345, Note_on_c, 0, 67, 82
1, 43345, Note_on_c, 0, 53, 73
1, 43424, Note_on_c, 0, 66, 63
1, 43424, Note_on_c, 0, 50, 66
1, 43440, Note_on_c, 0, 67, 0
1, 43440, Note_on_c, 0, 53, 0
1, 43503, Note_on_c, 0, 66, 0
1, 43503, Note_on_c, 0, 67, 91
1, 43503, Note_on_c, 0, 50, 0
1, 43506, Note_on_c, 0, 51, 80
1, 43581, Note_on_c, 0, 68, 69
1, 43596, Note_on_c, 0, 67, 0
1, 43659, Note_on_c, 0, 68, 0
1, 43659, Note_on_c, 0, 65, 78
1, 43659, Note_on_c, 0, 51, 0
1, 43662, Note_on_c, 0, 38, 69
1, 43662, Note_on_c, 0, 50, 69
1, 43736, Note_on_c, 0, 67, 67
1, 43736, Note_on_c, 0, 50, 0
1, 43736, Note_on_c, 0, 38, 0
1, 43752, Note_on_c, 0, 65, 0
1, 43814, Note_on_c, 0, 67, 0
1, 43814, Note_on_c, 0, 63, 82
1, 43814, Note_on_c, 0, 36, 76
1, 43817, Note_on_c, 0, 48, 76
1, 43894, Note_on_c, 0, 65, 69
1, 43894, Note_on_c, 0, 48, 0
1, 43894, Note_on_c, 0, 36, 0
1, 43910, Note_on_c, 0, 63, 0
1, 43974, Note_on_c, 0, 65, 0
1, 43974, Note_on_c, 0, 62, 76
1, 43974, Note_on_c, 0, 34, 69
1, 43977, Note_on_c, 0, 46, 69
1, 44054, Note_on_c, 0, 63, 66
1, 44054, Note_on_c, 0, 46, 0
1, 44054, Note_on_c, 0, 34, 0
1, 44071, Note_on_c, 0, 62, 0
1, 44139, Note_on_c, 0, 63, 0
1, 44139, Note_on_c, 0, 60, 82
1, 44139, Note_on_c, 0, 33, 82
1, 44142, Note_on_c, 0, 45, 82
1, 44167, Control_c, 0, 64, 127
1, 44223, Note_on_c, 0, 60, 0
1, 44223, Note_on_c, 0, 62, 70
1, 44302, Note_on_c, 0, 62, 0
1, 44302, Note_on_c, 0, 63, 70
1, 44381, Note_on_c, 0, 63, 0
1, 44381, Note_on_c, 0, 67, 77
1, 44460, Note_on_c, 0, 67, 0
1, 44460, Note_on_c, 0, 72, 76
1, 44467, Control_c, 0, 64, 0
1, 44539, Note_on_c, 0, 72, 0
1, 44539, Note_on_c, 0, 74, 82
1, 44546, Control_c, 0, 64, 127
1, 44618, Note_on_c, 0, 74, 0
1, 44618, Note_on_c, 0, 75, 88
1, 44618, Note_on_c, 0, 45, 0
1, 44621, Note_on_c, 0, 33, 0
1, 44621, Note_on_c, 0, 33, 70
1, 44621, Note_on_c, 0, 45, 70
1, 44703, Note_on_c, 0, 75, 0
1, 44703, Note_on_c, 0, 66, 76
1, 44788, Note_on_c, 0, 66, 0
1, 44788, Note_on_c, 0, 74, 90
1, 44788, Note_on_c, 0, 45, 0
1, 44791, Note_on_c, 0, 33, 0
1, 44791, Note_on_c, 0, 34, 76
1, 44791, Note_on_c, 0, 46, 76
1, 44794, Control_c, 0, 64, 0
1, 44848, Control_c, 0, 64, 127
1, 44872, Note_on_c, 0, 74, 0
1, 44872, Note_on_c, 0, 67, 70
1, 44957, Note_on_c, 0, 67, 0
1, 44957, Note_on_c, 0, 70, 80
1, 45041, Note_on_c, 0, 70, 0
1, 45041, Note_on_c, 0, 74, 70
1, 45125, Note_on_c, 0, 74, 0
1, 45125, Note_on_c, 0, 72, 82
1, 45125, Note_on_c, 0, 46, 0
1, 45128, Note_on_c, 0, 34, 0
1, 45128, Note_on_c, 0, 36, 75
1, 45128, Note_on_c, 0, 48, 75
1, 45132, Control_c, 0, 64, 0
1, 45173, Control_c, 0, 64, 127
1, 45210, Note_on_c, 0, 72, 0
1, 45210, Note_on_c, 0, 63, 66
1, 45294, Note_on_c, 0, 63, 0
1, 45294, Note_on_c, 0, 69, 74
1, 45378, Note_on_c, 0, 69, 0
1, 45378, Note_on_c, 0, 72, 65
1, 45464, Note_on_c, 0, 72, 0
1, 45464, Note_on_c, 0, 66, 78
1, 45464, Note_on_c, 0, 48, 0
1, 45467, Note_on_c, 0, 36, 0
1, 45467, Note_on_c, 0, 38, 78
1, 45467, Note_on_c, 0, 50, 78
1, 45470, Control_c, 0, 64, 0
1, 45527, Control_c, 0, 64, 127
1, 45553, Note_on_c, 0, 66, 0
1, 45553, Note_on_c, 0, 60, 69
1, 45645, Note_on_c, 0, 60, 0
1, 45645, Note_on_c, 0, 62, 74
1, 45739, Note_on_c, 0, 62, 0
1, 45739, Note_on_c, 0, 66, 66
1, 45896, Note_on_c, 0, 66, 0
1, 45896, Note_on_c, 0, 59, 74
1, 45896, Note_on_c, 0, 67, 86
1, 45899, Note_on_c, 0, 50, 0
1, 45899, Note_on_c, 0, 38, 0
1, 45899, Note_on_c, 0, 43, 68
1, 45902, Note_on_c, 0, 50, 80
1, 45907, Control_c, 0, 64, 0
1, 46117, Note_on_c, 0, 67, 0
1, 46117, Note_on_c, 0, 59, 0
1, 46117, Note_on_c, 0, 72, 68
1, 46120, Note_on_c, 0, 50, 0
1, 46120, Note_on_c, 0, 43, 0
1, 46195, Note_on_c, 0, 72, 0
1, 46195, Note_on_c, 0, 71, 53
1, 46273, Note_on_c, 0, 71, 0
1, 46273, Note_on_c, 0, 72, 76
1, 46273, Note_on_c, 0, 36, 82
1, 46276, Control_c, 0, 64, 127
1, 46352, Note_on_c, 0, 72, 0
1, 46352, Note_on_c, 0, 73, 58
1, 46432, Note_on_c, 0, 73, 0
1, 46432, Note_on_c, 0, 70, 66
1, 46432, Note_on_c, 0, 36, 0
1, 46435, Note_on_c, 0, 48, 78
1, 46439, Control_c, 0, 64, 0
1, 46484, Control_c, 0, 64, 127
1, 46511, Note_on_c, 0, 70, 0
1, 46511, Note_on_c, 0, 72, 57
1, 46590, Note_on_c, 0, 72, 0
1, 46590, Note_on_c, 0, 68, 68
1, 46667, Note_on_c, 0, 68, 0
1, 46667, Note_on_c, 0, 70, 58
1, 46743, Note_on_c, 0, 70, 0
1, 46743, Note_on_c, 0, 67, 63
1, 46743, Note_on_c, 0, 48, 0
1, 46746, Note_on_c, 0, 52, 81
1, 46820, Note_on_c, 0, 67, 0
1, 46820, Note_on_c, 0, 68, 55
1, 46899, Note_on_c, 0, 68, 0
1, 46899, Note_on_c, 0, 65, 68
1, 46899, Note_on_c, 0, 52, 0
1, 46902, Note_on_c, 0, 53, 86
1, 46902, Control_c, 0, 64, 0
1, 46972, Control_c, 0, 64, 127
1, 46976, Note_on_c, 0, 65, 0
1, 46976, Note_on_c, 0, 67, 58
1, 47053, Note_on_c, 0, 67, 0
1, 47053, Note_on_c, 0, 68, 58
1, 47053, Note_on_c, 0, 41, 78
1, 47062, Control_c, 0, 64, 0
1, 47126, Control_c, 0, 64, 127
1, 47130, Note_on_c, 0, 68, 0
1, 47130, Note_on_c, 0, 72, 65
1, 47207, Note_on_c, 0, 72, 0
1, 47207, Note_on_c, 0, 77, 63
1, 47284, Note_on_c, 0, 77, 0
1, 47284, Note_on_c, 0, 79, 68
1, 47361, Note_on_c, 0, 79, 0
1, 47361, Note_on_c, 0, 80, 73
1, 47361, Note_on_c, 0, 41, 0
1, 47364, Note_on_c, 0, 44, 78
1, 47438, Note_on_c, 0, 80, 0
1, 47438, Note_on_c, 0, 75, 63
1, 47517, Note_on_c, 0, 75, 0
1, 47517, Note_on_c, 0, 74, 75
1, 47517, Note_on_c, 0, 44, 0
1, 47520, Note_on_c, 0, 46, 88
1, 47520, Control_c, 0, 64, 0
1, 47580, Control_c, 0, 64, 127
1, 47600, Note_on_c, 0, 74, 0
1, 47600, Note_on_c, 0, 75, 58
1, 47683, Note_on_c, 0, 75, 0
1, 47683, Note_on_c, 0, 72, 67
1, 47683, Note_on_c, 0, 53, 0
1, 47686, Note_on_c, 0, 53, 78
1, 47765, Note_on_c, 0, 72, 0
1, 47765, Note_on_c, 0, 74, 58
1, 47846, Note_on_c, 0, 74, 0
1, 47846, Note_on_c, 0, 70, 68
1, 47846, Note_on_c, 0, 53, 0
1, 47849, Note_on_c, 0, 55, 84
1, 47869, Control_c, 0, 64, 0
1, 47908, Control_c, 0, 64, 127
1, 47927, Note_on_c, 0, 70, 0
1, 47927, Note_on_c, 0, 72, 55
1, 48007, Note_on_c, 0, 72, 0
1, 48007, Note_on_c, 0, 69, 61
1, 48007, Note_on_c, 0, 55, 0
1, 48010, Note_on_c, 0, 57, 85
1, 48087, Note_on_c, 0, 69, 0
1, 48087, Note_on_c, 0, 70, 54
1, 48165, Note_on_c, 0, 70, 0
1, 48165, Note_on_c, 0, 67, 68
1, 48165, Note_on_c, 0, 57, 0
1, 48168, Note_on_c, 0, 58, 86
1, 48168, Control_c, 0, 64, 0
1, 48228, Control_c, 0, 64, 127
1, 48242, Note_on_c, 0, 67, 0
1, 48242, Note_on_c, 0, 69, 61
1, 48319, Note_on_c, 0, 69, 0
1, 48319, Note_on_c, 0, 70, 61
1, 48319, Note_on_c, 0, 46, 0
1, 48322, Note_on_c, 0, 46, 78
1, 48334, Control_c, 0, 64, 0
1, 48382, Control_c, 0, 64, 127
1, 48396, Note_on_c, 0, 70, 0
1, 48396, Note_on_c, 0, 74, 65
1, 48473, Note_on_c, 0, 74, 0
1, 48473, Note_on_c, 0, 79, 63
1, 48550, Note_on_c, 0, 79, 0
1, 48550, Note_on_c, 0, 81, 68
1, 48627, Note_on_c, 0, 81, 0
1, 48627, Note_on_c, 0, 82, 73
1, 48627, Note_on_c, 0, 46, 0
1, 48630, Note_on_c, 0, 50, 78
1, 48704, Note_on_c, 0, 82, 0
1, 48704, Note_on_c, 0, 78, 63
1, 48784, Note_on_c, 0, 78, 0
1, 48784, Note_on_c, 0, 79, 75
1, 48784, Note_on_c, 0, 50, 0
1, 48787, Note_on_c, 0, 51, 88
1, 48787, Control_c, 0, 64, 0
1, 48857, Control_c, 0, 64, 127
1, 48866, Note_on_c, 0, 79, 0
1, 48866, Note_on_c, 0, 80, 67
1, 48949, Note_on_c, 0, 80, 0
1, 48949, Note_on_c, 0, 77, 75
1, 48949, Note_on_c, 0, 58, 0
1, 48952, Note_on_c, 0, 59, 78
1, 49030, Note_on_c, 0, 77, 0
1, 49030, Note_on_c, 0, 79, 65
1, 49111, Note_on_c, 0, 79, 0
1, 49111, Note_on_c, 0, 75, 76
1, 49111, Note_on_c, 0, 59, 0
1, 49114, Note_on_c, 0, 60, 84
1, 49152, Control_c, 0, 64, 0
1, 49189, Note_on_c, 0, 75, 0
1, 49189, Note_on_c, 0, 77, 63
1, 49193, Control_c, 0, 64, 127
1, 49266, Note_on_c, 0, 77, 0
1, 49266, Note_on_c, 0, 74, 69
1, 49266, Note_on_c, 0, 60, 0
1, 49269, Note_on_c, 0, 62, 85
1, 49344, Note_on_c, 0, 74, 0
1, 49344, Note_on_c, 0, 75, 66
1, 49424, Note_on_c, 0, 75, 0
1, 49424, Note_on_c, 0, 72, 76
1, 49424, Note_on_c, 0, 62, 0
1, 49427, Note_on_c, 0, 63, 86
1, 49427, Control_c, 0, 64, 0
1, 49482, Control_c, 0, 64, 127
1, 49501, Note_on_c, 0, 72, 0
1, 49501, Note_on_c, 0, 74, 63
1, 49578, Note_on_c, 0, 74, 0
1, 49578, Note_on_c, 0, 75, 63
1, 49578, Note_on_c, 0, 51, 0
1, 49581, Note_on_c, 0, 51, 78
1, 49585, Control_c, 0, 64, 0
1, 49621, Control_c, 0, 64, 127
1, 49655, Note_on_c, 0, 75, 0
1, 49655, Note_on_c, 0, 79, 69
1, 49731, Note_on_c, 0, 79, 0
1, 49731, Note_on_c, 0, 84, 70
1, 49808, Note_on_c, 0, 84, 0
1, 49808, Note_on_c, 0, 86, 75
1, 49885, Note_on_c, 0, 86, 0
1, 49885, Note_on_c, 0, 87, 81
1, 49885, Note_on_c, 0, 51, 0
1, 49888, Note_on_c, 0, 55, 78
1, 49962, Note_on_c, 0, 87, 0
1, 49962, Note_on_c, 0, 83, 70
1, 50042, Note_on_c, 0, 83, 0
1, 50042, Note_on_c, 0, 84, 88
1, 50042, Note_on_c, 0, 55, 0
1, 50045, Note_on_c, 0, 56, 92
1, 50045, Control_c, 0, 64, 0
1, 50092, Control_c, 0, 64, 127
1, 50123, Note_on_c, 0, 84, 0
1, 50123, Note_on_c, 0, 86, 68
1, 50204, Note_on_c, 0, 86, 0
1, 50204, Note_on_c, 0, 87, 78
1, 50204, Note_on_c, 0, 63, 0
1, 50207, Note_on_c, 0, 63, 89
1, 50207, Note_on_c, 0, 60, 76
1, 50286, Note_on_c, 0, 87, 0
1, 50286, Note_on_c, 0, 83, 67
1, 50359, Control_c, 0, 64, 0
1, 50367, Note_on_c, 0, 83, 0
1, 50367, Note_on_c, 0, 84, 84
1, 50367, Note_on_c, 0, 56, 0
1, 50370, Note_on_c, 0, 57, 90
1, 50398, Control_c, 0, 64, 127
1, 50450, Note_on_c, 0, 84, 0
1, 50450, Note_on_c, 0, 86, 67
1, 50532, Note_on_c, 0, 86, 0
1, 50532, Note_on_c, 0, 87, 74
1, 50532, Note_on_c, 0, 60, 0
1, 50535, Note_on_c, 0, 63, 0
1, 50535, Note_on_c, 0, 66, 91
1, 50535, Note_on_c, 0, 63, 77
1, 50538, Note_on_c, 0, 60, 66
1, 50614, Note_on_c, 0, 87, 0
1, 50614, Note_on_c, 0, 78, 65
1, 50697, Note_on_c, 0, 78, 0
1, 50697, Note_on_c, 0, 79, 75
1, 50697, Note_on_c, 0, 60, 0
1, 50700, Note_on_c, 0, 57, 0
1, 50700, Note_on_c, 0, 66, 0
1, 50700, Note_on_c, 0, 63, 0
1, 50703, Note_on_c, 0, 59, 63
1, 50703, Note_on_c, 0, 62, 67
1, 50703, Note_on_c, 0, 67, 88
1, 50706, Note_on_c, 0, 65, 75
1, 50706, Control_c, 0, 64, 0
1, 50756, Control_c, 0, 64, 127
1, 50781, Note_on_c, 0, 79, 0
1, 50781, Note_on_c, 0, 80, 69
1, 50865, Note_on_c, 0, 80, 0
1, 50865, Note_on_c, 0, 79, 78
1, 50865, Note_on_c, 0, 65, 0
1, 50868, Note_on_c, 0, 59, 0
1, 50868, Note_on_c, 0, 62, 0
1, 50868, Note_on_c, 0, 67, 0
1, 50871, Note_on_c, 0, 60, 68
1, 50871, Note_on_c, 0, 63, 68
1, 50871, Note_on_c, 0, 68, 80
1, 50875, Control_c, 0, 64, 0
1, 50919, Control_c, 0, 64, 127
1, 50949, Note_on_c, 0, 79, 0
1, 50949, Note_on_c, 0, 80, 75
1, 51033, Note_on_c, 0, 80, 0
1, 51033, Note_on_c, 0, 79, 82
1, 51033, Note_on_c, 0, 68, 0
1, 51036, Note_on_c, 0, 63, 0
1, 51036, Note_on_c, 0, 60, 0
1, 51036, Note_on_c, 0, 62, 63
1, 51039, Note_on_c, 0, 65, 70
1, 51039, Note_on_c, 0, 67, 70
1, 51039, Note_on_c, 0, 71, 83
1, 51039, Control_c, 0, 64, 0
1, 51091, Control_c, 0, 64, 127
1, 51116, Note_on_c, 0, 79, 0
1, 51116, Note_on_c, 0, 80, 76
1, 51200, Note_on_c, 0, 80, 0
1, 51200, Note_on_c, 0, 79, 80
1, 51200, Note_on_c, 0, 71, 0
1, 51203, Note_on_c, 0, 62, 0
1, 51203, Note_on_c, 0, 65, 0
1, 51203, Note_on_c, 0, 67, 0
1, 51206, Note_on_c, 0, 63, 72
1, 51206, Note_on_c, 0, 67, 72
1, 51206, Note_on_c, 0, 72, 84
1, 51210, Control_c, 0, 64, 0
1, 51259, Control_c, 0, 64, 127
1, 51284, Note_on_c, 0, 79, 0
1, 51284, Note_on_c, 0, 80, 69
1, 51368, Note_on_c, 0, 80, 0
1, 51368, Note_on_c, 0, 79, 82
1, 51368, Note_on_c, 0, 72, 0
1, 51371, Note_on_c, 0, 67, 0
1, 51371, Note_on_c, 0, 63, 0
1, 51371, Note_on_c, 0, 67, 84
1, 51374, Note_on_c, 0, 65, 84
1, 51374, Note_on_c, 0, 74, 98
1, 51374, Control_c, 0, 64, 0
1, 51436, Control_c, 0, 64, 127
1, 51450, Note_on_c, 0, 79, 0
1, 51450, Note_on_c, 0, 80, 75
1, 51532, Note_on_c, 0, 80, 0
1, 51532, Note_on_c, 0, 77, 81
1, 51532, Note_on_c, 0, 74, 0
1, 51535, Note_on_c, 0, 65, 0
1, 51535, Note_on_c, 0, 67, 0
1, 51535, Note_on_c, 0, 55, 77
1, 51538, Note_on_c, 0, 67, 90
1, 51541, Control_c, 0, 64, 0
1, 51613, Note_on_c, 0, 77, 0
1, 51613, Note_on_c, 0, 79, 72
1, 51622, Control_c, 0, 64, 127
1, 51693, Note_on_c, 0, 79, 0
1, 51693, Note_on_c, 0, 75, 78
1, 51773, Note_on_c, 0, 75, 0
1, 51773, Note_on_c, 0, 77, 68
1, 51854, Note_on_c, 0, 77, 0
1, 51854, Note_on_c, 0, 74, 78
1, 51854, Note_on_c, 0, 67, 0
1, 51857, Note_on_c, 0, 55, 0
1, 51857, Note_on_c, 0, 55, 70
1, 51857, Note_on_c, 0, 67, 85
1, 51865, Control_c, 0, 64, 0
1, 51937, Note_on_c, 0, 74, 0
1, 51937, Note_on_c, 0, 75, 68
1, 51947, Control_c, 0, 64, 127
1, 52021, Note_on_c, 0, 75, 0
1, 52021, Note_on_c, 0, 72, 76
1, 52021, Note_on_c, 0, 55, 0
1, 52024, Note_on_c, 0, 60, 68
1, 52024, Control_c, 0, 64, 0
1, 52076, Control_c, 0, 64, 127
1, 52104, Note_on_c, 0, 72, 0
1, 52104, Note_on_c, 0, 74, 70
1, 52187, Note_on_c, 0, 74, 0
1, 52187, Note_on_c, 0, 75, 75
1, 52187, Note_on_c, 0, 60, 0
1, 52190, Note_on_c, 0, 67, 0
1, 52190, Note_on_c, 0, 63, 84
1, 52271, Note_on_c, 0, 75, 0
1, 52271, Note_on_c, 0, 79, 78
1, 52353, Note_on_c, 0, 79, 0
1, 52353, Note_on_c, 0, 84, 81
1, 52353, Note_on_c, 0, 63, 0
1, 52356, Note_on_c, 0, 69, 85
1, 52361, Control_c, 0, 64, 0
1, 52392, Control_c, 0, 64, 127
1, 52436, Note_on_c, 0, 84, 0
1, 52436, Note_on_c, 0, 86, 78
1, 52518, Note_on_c, 0, 86, 0
1, 52518, Note_on_c, 0, 79, 73
1, 52518, Note_on_c, 0, 87, 84
1, 52521, Note_on_c, 0, 69, 0
1, 52521, Note_on_c, 0, 72, 88
1, 52600, Note_on_c, 0, 87, 0
1, 52600, Note_on_c, 0, 79, 0
1, 52600, Note_on_c, 0, 78, 76
1, 52684, Note_on_c, 0, 78, 0
1, 52684, Note_on_c, 0, 79, 82
1, 52684, Note_on_c, 0, 72, 0
1, 52687, Note_on_c, 0, 65, 75
1, 52687, Note_on_c, 0, 62, 63
1, 52687, Note_on_c, 0, 71, 91
1, 52690, Control_c, 0, 64, 0
1, 52752, Control_c, 0, 64, 127
1, 52766, Note_on_c, 0, 79, 0
1, 52766, Note_on_c, 0, 80, 75
1, 52848, Note_on_c, 0, 80, 0
1, 52848, Note_on_c, 0, 77, 81
1, 52848, Note_on_c, 0, 71, 0
1, 52851, Note_on_c, 0, 62, 0
1, 52851, Note_on_c, 0, 65, 0
1, 52851, Note_on_c, 0, 55, 77
1, 52854, Note_on_c, 0, 67, 90
1, 52857, Control_c, 0, 64, 0
1, 52929, Note_on_c, 0, 77, 0
1, 52929, Note_on_c, 0, 79, 72
1, 52938, Control_c, 0, 64, 127
1, 53009, Note_on_c, 0, 79, 0
1, 53009, Note_on_c, 0, 75, 78
1, 53089, Note_on_c, 0, 75, 0
1, 53089, Note_on_c, 0, 77, 68
1, 53170, Note_on_c, 0, 77, 0
1, 53170, Note_on_c, 0, 74, 78
1, 53170, Note_on_c, 0, 67, 0
1, 53173, Note_on_c, 0, 55, 0
1, 53173, Note_on_c, 0, 55, 70
1, 53173, Note_on_c, 0, 67, 85
1, 53181, Control_c, 0, 64, 0
1, 53253, Note_on_c, 0, 74, 0
1, 53253, Note_on_c, 0, 75, 68
1, 53263, Control_c, 0, 64, 127
1, 53337, Note_on_c, 0, 75, 0
1, 53337, Note_on_c, 0, 72, 76
1, 53337, Note_on_c, 0, 55, 0
1, 53340, Note_on_c, 0, 60, 68
1, 53340, Control_c, 0, 64, 0
1, 53392, Control_c, 0, 64, 127
1, 53420, Note_on_c, 0, 72, 0
1, 53420, Note_on_c, 0, 74, 70
1, 53503, Note_on_c, 0, 74, 0
1, 53503, Note_on_c, 0, 75, 75
1, 53503, Note_on_c, 0, 60, 0
1, 53506, Note_on_c, 0, 67, 0
1, 53506, Note_on_c, 0, 63, 84
1, 53587, Note_on_c, 0, 75, 0
1, 53587, Note_on_c, 0, 79, 78
1, 53669, Note_on_c, 0, 79, 0
1, 53669, Note_on_c, 0, 84, 81
1, 53669, Note_on_c, 0, 63, 0
1, 53672, Note_on_c, 0, 69, 90
1, 53677, Control_c, 0, 64, 0
1, 53708, Control_c, 0, 64, 127
1, 53752, Note_on_c, 0, 84, 0
1, 53752, Note_on_c, 0, 86, 66
1, 53833, Note_on_c, 0, 86, 0
1, 53833, Note_on_c, 0, 79, 77
1, 53833, Note_on_c, 0, 87, 77
1, 53836, Note_on_c, 0, 69, 0
1, 53836, Note_on_c, 0, 72, 88
1, 53916, Note_on_c, 0, 87, 0
1, 53916, Note_on_c, 0, 79, 0
1, 53916, Note_on_c, 0, 78, 69
1, 53974, Control_c, 0, 64, 0
1, 53999, Note_on_c, 0, 78, 0
1, 53999, Note_on_c, 0, 79, 83
1, 53999, Note_on_c, 0, 72, 0
1, 54002, Note_on_c, 0, 62, 60
1, 54002, Note_on_c, 0, 65, 74
1, 54002, Note_on_c, 0, 71, 91
1, 54005, Control_c, 0, 64, 127
1, 54086, Note_on_c, 0, 79, 0
1, 54086, Note_on_c, 0, 80, 66
1, 54172, Note_on_c, 0, 80, 0
1, 54172, Note_on_c, 0, 77, 72
1, 54172, Note_on_c, 0, 71, 0
1, 54175, Note_on_c, 0, 65, 0
1, 54175, Note_on_c, 0, 62, 0
1, 54175, Note_on_c, 0, 55, 85
1, 54258, Note_on_c, 0, 77, 0
1, 54258, Note_on_c, 0, 89, 66
1, 54343, Note_on_c, 0, 89, 0
1, 54343, Note_on_c, 0, 77, 84
1, 54343, Note_on_c, 0, 55, 0
1, 54346, Note_on_c, 0, 63, 60
1, 54346, Note_on_c, 0, 67, 74
1, 54346, Note_on_c, 0, 72, 91
1, 54351, Control_c, 0, 64, 0
1, 54418, Control_c, 0, 64, 127
1, 54427, Note_on_c, 0, 77, 0
1, 54427, Note_on_c, 0, 79, 66
1, 54511, Note_on_c, 0, 79, 0
1, 54511, Note_on_c, 0, 75, 72
1, 54511, Note_on_c, 0, 72, 0
1, 54514, Note_on_c, 0, 67, 0
1, 54514, Note_on_c, 0, 63, 0
1, 54514, Note_on_c, 0, 55, 85
1, 54594, Note_on_c, 0, 75, 0
1, 54594, Note_on_c, 0, 87, 68
1, 54677, Note_on_c, 0, 87, 0
1, 54677, Note_on_c, 0, 75, 84
1, 54677, Note_on_c, 0, 55, 0
1, 54680, Note_on_c, 0, 65, 75
1, 54680, Note_on_c, 0, 68, 92
1, 54685, Control_c, 0, 64, 0
1, 54760, Note_on_c, 0, 75, 0
1, 54760, Note_on_c, 0, 77, 68
1, 54765, Control_c, 0, 64, 127
1, 54843, Note_on_c, 0, 77, 0
1, 54843, Note_on_c, 0, 74, 73
1, 54843, Note_on_c, 0, 68, 0
1, 54846, Note_on_c, 0, 65, 0
1, 54846, Note_on_c, 0, 55, 83
1, 54926, Note_on_c, 0, 74, 0
1, 54926, Note_on_c, 0, 86, 68
1, 55008, Note_on_c, 0, 86, 0
1, 55008, Note_on_c, 0, 74, 85
1, 55008, Note_on_c, 0, 55, 0
1, 55011, Note_on_c, 0, 63, 72
1, 55011, Note_on_c, 0, 67, 90
1, 55017, Control_c, 0, 64, 0
1, 55091, Note_on_c, 0, 74, 0
1, 55091, Note_on_c, 0, 75, 69
1, 55100, Control_c, 0, 64, 127
1, 55173, Note_on_c, 0, 75, 0
1, 55173, Note_on_c, 0, 72, 73
1, 55173, Note_on_c, 0, 55, 86
1, 55255, Note_on_c, 0, 72, 0
1, 55255, Note_on_c, 0, 84, 69
1, 55336, Note_on_c, 0, 84, 0
1, 55336, Note_on_c, 0, 72, 86
1, 55336, Note_on_c, 0, 67, 0
1, 55339, Note_on_c, 0, 63, 0
1, 55339, Note_on_c, 0, 62, 74
1, 55339, Note_on_c, 0, 65, 94
1, 55342, Control_c, 0, 64, 0
1, 55409, Control_c, 0, 64, 127
1, 55418, Note_on_c, 0, 72, 0
1, 55418, Note_on_c, 0, 74, 69
1, 55500, Note_on_c, 0, 74, 0
1, 55500, Note_on_c, 0, 70, 69
1, 55500, Note_on_c, 0, 55, 0
1, 55503, Note_on_c, 0, 55, 88
1, 55581, Note_on_c, 0, 70, 0
1, 55581, Note_on_c, 0, 82, 69
1, 55662, Note_on_c, 0, 82, 0
1, 55662, Note_on_c, 0, 70, 90
1, 55662, Note_on_c, 0, 65, 0
1, 55665, Note_on_c, 0, 62, 0
1, 55665, Note_on_c, 0, 60, 72
1, 55665, Note_on_c, 0, 63, 96
1, 55670, Control_c, 0, 64, 0
1, 55738, Control_c, 0, 64, 127
1, 55743, Note_on_c, 0, 70, 0
1, 55743, Note_on_c, 0, 72, 69
1, 55824, Note_on_c, 0, 72, 0
1, 55824, Note_on_c, 0, 68, 69
1, 55824, Note_on_c, 0, 55, 0
1, 55827, Note_on_c, 0, 55, 91
1, 55904, Note_on_c, 0, 68, 0
1, 55904, Note_on_c, 0, 80, 69
1, 55984, Note_on_c, 0, 80, 0
1, 55984, Note_on_c, 0, 68, 93
1, 55984, Note_on_c, 0, 63, 0
1, 55987, Note_on_c, 0, 60, 0
1, 55987, Note_on_c, 0, 59, 69
1, 55987, Note_on_c, 0, 62, 86
1, 55987, Control_c, 0, 64, 0
1, 56064, Note_on_c, 0, 68, 0
1, 56064, Note_on_c, 0, 70, 70
1, 56069, Control_c, 0, 64, 127
1, 56144, Note_on_c, 0, 70, 0
1, 56144, Note_on_c, 0, 67, 72
1, 56144, Note_on_c, 0, 62, 0
1, 56147, Note_on_c, 0, 59, 0
1, 56147, Note_on_c, 0, 55, 0
1, 56147, Note_on_c, 0, 55, 106
1, 56224, Note_on_c, 0, 67, 0
1, 56224, Note_on_c, 0, 79, 72
1, 56305, Note_on_c, 0, 79, 0
1, 56305, Note_on_c, 0, 67, 88
1, 56309, Control_c, 0, 64, 0
1, 56385, Note_on_c, 0, 67, 0
1, 56385, Note_on_c, 0, 79, 69
1, 56385, Control_c, 0, 64, 127
1, 56466, Note_on_c, 0, 79, 0
1, 56466, Note_on_c, 0, 67, 93
1, 56466, Note_on_c, 0, 55, 0
1, 56469, Note_on_c, 0, 43, 80
1, 56469, Note_on_c, 0, 55, 98
1, 56547, Note_on_c, 0, 68, 69
1, 56588, Note_on_c, 0, 67, 0
1, 56629, Note_on_c, 0, 68, 0
1, 56629, Note_on_c, 0, 67, 94
1, 56629, Note_on_c, 0, 55, 0
1, 56632, Note_on_c, 0, 43, 0
1, 56632, Note_on_c, 0, 36, 93
1, 56632, Note_on_c, 0, 48, 109
1, 56635, Control_c, 0, 64, 0
1, 56635, Control_c, 0, 64, 0
1, 56687, Control_c, 0, 64, 127
1, 56716, Note_on_c, 0, 63, 60
1, 56803, Note_on_c, 0, 63, 0
1, 56803, Note_on_c, 0, 62, 66
1, 56879, Note_on_c, 0, 62, 0
1, 56879, Note_on_c, 0, 60, 57
1, 56954, Note_on_c, 0, 60, 0
1, 56954, Note_on_c, 0, 48, 0
1, 56954, Note_on_c, 0, 36, 0
1, 56957, Note_on_c, 0, 55, 90
1, 57105, Note_on_c, 0, 67, 0
1, 57105, Note_on_c, 0, 67, 81
1, 57105, Note_on_c, 0, 72, 81
1, 57117, Control_c, 0, 64, 0
1, 57156, Control_c, 0, 64, 127
1, 57189, Note_on_c, 0, 67, 0
1, 57189, Note_on_c, 0, 68, 66
1, 57230, Note_on_c, 0, 72, 0
1, 57272, Note_on_c, 0, 68, 0
1, 57272, Note_on_c, 0, 67, 98
1, 57272, Note_on_c, 0, 71, 98
1, 57275, Note_on_c, 0, 55, 0
1, 57275, Note_on_c, 0, 55, 108
1, 57275, Note_on_c, 0, 43, 92
1, 57275, Control_c, 0, 64, 0
1, 57342, Control_c, 0, 64, 127
1, 57353, Note_on_c, 0, 67, 0
1, 57353, Note_on_c, 0, 65, 63
1, 57434, Note_on_c, 0, 65, 0
1, 57434, Note_on_c, 0, 63, 65
1, 57509, Note_on_c, 0, 63, 0
1, 57509, Note_on_c, 0, 62, 65
1, 57584, Note_on_c, 0, 62, 0
1, 57584, Note_on_c, 0, 43, 0
1, 57584, Note_on_c, 0, 55, 0
1, 57587, Note_on_c, 0, 55, 92
1, 57733, Note_on_c, 0, 71, 0
1, 57733, Note_on_c, 0, 67, 88
1, 57741, Control_c, 0, 64, 0
1, 57777, Control_c, 0, 64, 127
1, 57811, Note_on_c, 0, 68, 65
1, 57850, Note_on_c, 0, 67, 0
1, 57889, Note_on_c, 0, 68, 0
1, 57889, Note_on_c, 0, 67, 100
1, 57889, Note_on_c, 0, 55, 0
1, 57892, Note_on_c, 0, 60, 107
1, 57892, Note_on_c, 0, 48, 91
1, 57892, Control_c, 0, 64, 0
1, 57954, Control_c, 0, 64, 127
1, 57969, Note_on_c, 0, 63, 60
1, 58050, Note_on_c, 0, 63, 0
1, 58050, Note_on_c, 0, 62, 66
1, 58123, Note_on_c, 0, 62, 0
1, 58123, Note_on_c, 0, 60, 57
1, 58197, Note_on_c, 0, 60, 0
1, 58197, Note_on_c, 0, 48, 0
1, 58197, Note_on_c, 0, 60, 0
1, 58200, Note_on_c, 0, 55, 92
1, 58345, Note_on_c, 0, 67, 0
1, 58345, Note_on_c, 0, 67, 75
1, 58345, Note_on_c, 0, 72, 75
1, 58354, Control_c, 0, 64, 0
1, 58417, Control_c, 0, 64, 127
1, 58429, Note_on_c, 0, 67, 0
1, 58429, Note_on_c, 0, 68, 66
1, 58471, Note_on_c, 0, 72, 0
1, 58512, Note_on_c, 0, 68, 0
1, 58512, Note_on_c, 0, 67, 97
1, 58512, Note_on_c, 0, 71, 97
1, 58515, Note_on_c, 0, 55, 0
1, 58515, Note_on_c, 0, 43, 92
1, 58515, Control_c, 0, 64, 0
1, 58515, Note_on_c, 0, 55, 108
1, 58585, Control_c, 0, 64, 127
1, 58593, Note_on_c, 0, 67, 0
1, 58593, Note_on_c, 0, 65, 63
1, 58674, Note_on_c, 0, 65, 0
1, 58674, Note_on_c, 0, 63, 65
1, 58747, Note_on_c, 0, 63, 0
1, 58747, Note_on_c, 0, 62, 65
1, 58820, Note_on_c, 0, 62, 0
1, 58820, Note_on_c, 0, 43, 0
1, 58820, Note_on_c, 0, 55, 93
1, 58825, Note_on_c, 0, 55, 0
1, 58967, Note_on_c, 0, 71, 0
1, 58967, Note_on_c, 0, 67, 81
1, 58974, Control_c, 0, 64, 0
1, 59025, Control_c, 0, 64, 127
1, 59044, Note_on_c, 0, 68, 65
1, 59082, Note_on_c, 0, 67, 0
1, 59121, Note_on_c, 0, 68, 0
1, 59121, Note_on_c, 0, 67, 96
1, 59121, Note_on_c, 0, 55, 0
1, 59124, Note_on_c, 0, 36, 83
1, 59124, Note_on_c, 0, 48, 97
1, 59124, Control_c, 0, 64, 0
1, 59175, Control_c, 0, 64, 127
1, 59203, Note_on_c, 0, 63, 60
1, 59285, Note_on_c, 0, 63, 0
1, 59285, Note_on_c, 0, 62, 66
1, 59358, Note_on_c, 0, 62, 0
1, 59358, Note_on_c, 0, 60, 57
1, 59431, Note_on_c, 0, 60, 0
1, 59431, Note_on_c, 0, 67, 0
1, 59431, Note_on_c, 0, 75, 97
1, 59434, Note_on_c, 0, 48, 0
1, 59434, Note_on_c, 0, 36, 0
1, 59434, Note_on_c, 0, 55, 72
1, 59576, Note_on_c, 0, 75, 0
1, 59576, Note_on_c, 0, 68, 75
1, 59652, Note_on_c, 0, 70, 66
1, 59728, Note_on_c, 0, 70, 0
1, 59728, Note_on_c, 0, 68, 0
1, 59728, Note_on_c, 0, 68, 98
1, 59731, Note_on_c, 0, 55, 0
1, 59731, Note_on_c, 0, 53, 100
1, 59731, Note_on_c, 0, 41, 85
1, 59731, Control_c, 0, 64, 0
1, 59799, Control_c, 0, 64, 127
1, 59811, Note_on_c, 0, 63, 60
1, 59894, Note_on_c, 0, 63, 0
1, 59894, Note_on_c, 0, 65, 66
1, 59966, Note_on_c, 0, 65, 0
1, 59966, Note_on_c, 0, 60, 57
1, 60039, Note_on_c, 0, 60, 0
1, 60039, Note_on_c, 0, 68, 0
1, 60039, Note_on_c, 0, 80, 106
1, 60042, Note_on_c, 0, 41, 0
1, 60042, Note_on_c, 0, 53, 0
1, 60042, Note_on_c, 0, 53, 77
1, 60183, Note_on_c, 0, 80, 0
1, 60183, Note_on_c, 0, 68, 75
1, 60269, Note_on_c, 0, 70, 66
1, 60355, Note_on_c, 0, 70, 0
1, 60355, Note_on_c, 0, 68, 0
1, 60355, Note_on_c, 0, 68, 98
1, 60358, Note_on_c, 0, 53, 0
1, 60358, Note_on_c, 0, 34, 90
1, 60358, Note_on_c, 0, 46, 105
1, 60358, Control_c, 0, 64, 0
1, 60426, Control_c, 0, 64, 127
1, 60437, Note_on_c, 0, 62, 60
1, 60520, Note_on_c, 0, 62, 0
1, 60520, Note_on_c, 0, 60, 66
1, 60593, Note_on_c, 0, 60, 0
1, 60593, Note_on_c, 0, 58, 57
1, 60665, Note_on_c, 0, 58, 0
1, 60665, Note_on_c, 0, 68, 0
1, 60665, Note_on_c, 0, 74, 101
1, 60668, Note_on_c, 0, 46, 0
1, 60668, Note_on_c, 0, 34, 0
1, 60668, Note_on_c, 0, 53, 76
1, 60811, Note_on_c, 0, 74, 0
1, 60811, Note_on_c, 0, 67, 74
1, 60887, Note_on_c, 0, 68, 65
1, 60963, Note_on_c, 0, 68, 0
1, 60963, Note_on_c, 0, 67, 0
1, 60963, Note_on_c, 0, 67, 97
1, 60966, Note_on_c, 0, 53, 0
1, 60966, Note_on_c, 0, 51, 111
1, 60966, Note_on_c, 0, 39, 94
1, 60966, Control_c, 0, 64, 0
1, 61032, Control_c, 0, 64, 127
1, 61043, Note_on_c, 0, 62, 59
1, 61124, Note_on_c, 0, 62, 0
1, 61124, Note_on_c, 0, 63, 63
1, 61196, Note_on_c, 0, 63, 0
1, 61196, Note_on_c, 0, 58, 55
1, 61269, Note_on_c, 0, 58, 0
1, 61269, Note_on_c, 0, 67, 0
1, 61269, Note_on_c, 0, 79, 104
1, 61272, Note_on_c, 0, 39, 0
1, 61272, Note_on_c, 0, 51, 0
1, 61272, Note_on_c, 0, 51, 75
1, 61414, Note_on_c, 0, 79, 0
1, 61414, Note_on_c, 0, 67, 73
1, 61490, Note_on_c, 0, 68, 63
1, 61566, Note_on_c, 0, 68, 0
1, 61566, Note_on_c, 0, 67, 0
1, 61566, Note_on_c, 0, 67, 94
1, 61569, Note_on_c, 0, 51, 0
1, 61569, Note_on_c, 0, 32, 82
1, 61569, Note_on_c, 0, 44, 97
1, 61569, Control_c, 0, 64, 0
1, 61637, Control_c, 0, 64, 127
1, 61648, Note_on_c, 0, 60, 58
1, 61730, Note_on_c, 0, 60, 0
1, 61730, Note_on_c, 0, 58, 63
1, 61803, Note_on_c, 0, 58, 0
1, 61803, Note_on_c, 0, 56, 54
1, 61876, Note_on_c, 0, 56, 0
1, 61876, Note_on_c, 0, 67, 0
1, 61876, Note_on_c, 0, 72, 97
1, 61879, Note_on_c, 0, 44, 0
1, 61879, Note_on_c, 0, 32, 0
1, 61879, Note_on_c, 0, 51, 72
1, 62022, Note_on_c, 0, 72, 0
1, 62022, Note_on_c, 0, 65, 72
1, 62098, Note_on_c, 0, 67, 62
1, 62173, Note_on_c, 0, 67, 0
1, 62173, Note_on_c, 0, 65, 0
1, 62173, Note_on_c, 0, 65, 93
1, 62176, Note_on_c, 0, 51, 0
1, 62176, Note_on_c, 0, 50, 93
1, 62176, Note_on_c, 0, 38, 80
1, 62176, Control_c, 0, 64, 0
1, 62243, Control_c, 0, 64, 127
1, 62255, Note_on_c, 0, 60, 57
1, 62337, Note_on_c, 0, 60, 0
1, 62337, Note_on_c, 0, 62, 62
1, 62409, Note_on_c, 0, 62, 0
1, 62409, Note_on_c, 0, 56, 53
1, 62482, Note_on_c, 0, 56, 0
1, 62482, Note_on_c, 0, 65, 0
1, 62482, Note_on_c, 0, 77, 99
1, 62485, Note_on_c, 0, 38, 0
1, 62485, Note_on_c, 0, 50, 0
1, 62485, Note_on_c, 0, 50, 70
1, 62627, Note_on_c, 0, 77, 0
1, 62627, Note_on_c, 0, 65, 70
1, 62713, Note_on_c, 0, 67, 61
1, 62799, Note_on_c, 0, 67, 0
1, 62799, Note_on_c, 0, 65, 0
1, 62799, Note_on_c, 0, 65, 92
1, 62802, Note_on_c, 0, 50, 0
1, 62802, Note_on_c, 0, 31, 76
1, 62802, Note_on_c, 0, 43, 89
1, 62802, Control_c, 0, 64, 0
1, 62869, Control_c, 0, 64, 127
1, 62881, Note_on_c, 0, 59, 55
1, 62962, Note_on_c, 0, 59, 0
1, 62962, Note_on_c, 0, 57, 61
1, 63035, Note_on_c, 0, 57, 0
1, 63035, Note_on_c, 0, 55, 52
1, 63107, Note_on_c, 0, 55, 0
1, 63107, Note_on_c, 0, 65, 0
1, 63107, Note_on_c, 0, 71, 94
1, 63110, Note_on_c, 0, 43, 0
1, 63110, Note_on_c, 0, 31, 0
1, 63110, Note_on_c, 0, 50, 70
1, 63252, Note_on_c, 0, 71, 0
1, 63252, Note_on_c, 0, 65, 69
1, 63328, Note_on_c, 0, 67, 60
1, 63403, Note_on_c, 0, 67, 0
1, 63403, Note_on_c, 0, 65, 0
1, 63403, Note_on_c, 0, 65, 90
1, 63406, Note_on_c, 0, 50, 0
1, 63406, Note_on_c, 0, 31, 75
1, 63406, Note_on_c, 0, 43, 88
1, 63406, Control_c, 0, 64, 0
1, 63472, Control_c, 0, 64, 127
1, 63484, Note_on_c, 0, 59, 55
1, 63564, Note_on_c, 0, 59, 0
1, 63564, Note_on_c, 0, 62, 60
1, 63637, Note_on_c, 0, 62, 0
1, 63637, Note_on_c, 0, 55, 52
1, 63709, Note_on_c, 0, 55, 0
1, 63709, Note_on_c, 0, 65, 0
1, 63709, Note_on_c, 0, 77, 92
1, 63712, Note_on_c, 0, 43, 0
1, 63712, Note_on_c, 0, 31, 0
1, 63712, Note_on_c, 0, 50, 72
1, 63854, Note_on_c, 0, 77, 0
1, 63952, Note_on_c, 0, 67, 66
1, 63977, Note_on_c, 0, 72, 55
1, 63989, Note_on_c, 0, 43, 63
1, 64002, Note_on_c, 0, 72, 0
1, 64002, Note_on_c, 0, 74, 55
1, 64008, Note_on_c, 0, 48, 70
1, 64027, Note_on_c, 0, 74, 0
1, 64027, Note_on_c, 0, 67, 0
1, 64027, Note_on_c, 0, 75, 92
1, 64030, Note_on_c, 0, 50, 0
1, 64030, Note_on_c, 0, 57, 78
1, 64059, Control_c, 0, 64, 127
1, 64101, Note_on_c, 0, 75, 0
1, 64101, Note_on_c, 0, 66, 62
1, 64175, Note_on_c, 0, 66, 0
1, 64175, Note_on_c, 0, 72, 66
1, 64175, Note_on_c, 0, 57, 0
1, 64178, Note_on_c, 0, 48, 0
1, 64178, Note_on_c, 0, 43, 0
1, 64192, Control_c, 0, 64, 0
1, 64249, Note_on_c, 0, 72, 0
1, 64249, Note_on_c, 0, 75, 66
1, 64286, Note_on_c, 0, 43, 72
1, 64305, Note_on_c, 0, 50, 76
1, 64323, Note_on_c, 0, 75, 0
1, 64323, Note_on_c, 0, 74, 91
1, 64323, Note_on_c, 0, 59, 82
1, 64360, Control_c, 0, 64, 127
1, 64397, Note_on_c, 0, 74, 0
1, 64397, Note_on_c, 0, 65, 60
1, 64471, Note_on_c, 0, 65, 0
1, 64471, Note_on_c, 0, 71, 66
1, 64471, Note_on_c, 0, 59, 0
1, 64474, Note_on_c, 0, 50, 0
1, 64474, Note_on_c, 0, 43, 0
1, 64487, Control_c, 0, 64, 0
1, 64551, Note_on_c, 0, 71, 0
1, 64551, Note_on_c, 0, 74, 66
1, 64591, Note_on_c, 0, 43, 67
1, 64611, Note_on_c, 0, 51, 70
1, 64631, Note_on_c, 0, 74, 0
1, 64631, Note_on_c, 0, 72, 91
1, 64631, Note_on_c, 0, 60, 75
1, 64669, Control_c, 0, 64, 127
1, 64704, Note_on_c, 0, 72, 0
1, 64704, Note_on_c, 0, 69, 61
1, 64778, Note_on_c, 0, 69, 0
1, 64778, Note_on_c, 0, 66, 66
1, 64778, Note_on_c, 0, 60, 0
1, 64781, Note_on_c, 0, 51, 0
1, 64781, Note_on_c, 0, 43, 0
1, 64852, Note_on_c, 0, 66, 0
1, 64852, Note_on_c, 0, 63, 66
1, 64925, Note_on_c, 0, 63, 0
1, 64925, Note_on_c, 0, 60, 68
1, 64999, Note_on_c, 0, 60, 0
1, 64999, Note_on_c, 0, 57, 67
1, 65073, Note_on_c, 0, 57, 0
1, 65073, Note_on_c, 0, 54, 66
1, 65155, Note_on_c, 0, 67, 66
1, 65155, Note_on_c, 0, 54, 0
1, 65155, Note_on_c, 0, 51, 66
1, 65182, Note_on_c, 0, 72, 55
1, 65185, Control_c, 0, 64, 0
1, 65210, Note_on_c, 0, 72, 0
1, 65210, Note_on_c, 0, 74, 55
1, 65237, Note_on_c, 0, 74, 0
1, 65237, Note_on_c, 0, 67, 0
1, 65237, Note_on_c, 0, 75, 92
1, 65240, Note_on_c, 0, 51, 0
1, 65240, Note_on_c, 0, 43, 63
1, 65240, Note_on_c, 0, 48, 68
1, 65243, Note_on_c, 0, 57, 78
1, 65297, Control_c, 0, 64, 127
1, 65311, Note_on_c, 0, 75, 0
1, 65311, Note_on_c, 0, 66, 62
1, 65385, Note_on_c, 0, 66, 0
1, 65385, Note_on_c, 0, 72, 66
1, 65385, Note_on_c, 0, 57, 0
1, 65388, Note_on_c, 0, 48, 0
1, 65388, Note_on_c, 0, 43, 0
1, 65410, Control_c, 0, 64, 0
1, 65459, Note_on_c, 0, 72, 0
1, 65459, Note_on_c, 0, 75, 66
1, 65533, Note_on_c, 0, 75, 0
1, 65533, Note_on_c, 0, 74, 91
1, 65533, Note_on_c, 0, 43, 67
1, 65536, Note_on_c, 0, 50, 72
1, 65536, Note_on_c, 0, 59, 78
1, 65589, Control_c, 0, 64, 127
1, 65607, Note_on_c, 0, 74, 0
1, 65607, Note_on_c, 0, 65, 60
1, 65681, Note_on_c, 0, 65, 0
1, 65681, Note_on_c, 0, 71, 66
1, 65681, Note_on_c, 0, 59, 0
1, 65684, Note_on_c, 0, 50, 0
1, 65684, Note_on_c, 0, 43, 0
1, 65711, Control_c, 0, 64, 0
1, 65762, Note_on_c, 0, 71, 0
1, 65762, Note_on_c, 0, 74, 66
1, 65843, Note_on_c, 0, 74, 0
1, 65843, Note_on_c, 0, 72, 91
1, 65843, Note_on_c, 0, 43, 61
1, 65846, Note_on_c, 0, 51, 67
1, 65846, Note_on_c, 0, 60, 74
1, 65871, Control_c, 0, 64, 127
1, 65918, Note_on_c, 0, 72, 0
1, 65918, Note_on_c, 0, 69, 61
1, 65992, Note_on_c, 0, 69, 0
1, 65992, Note_on_c, 0, 66, 66
1, 65992, Note_on_c, 0, 60, 0
1, 65995, Note_on_c, 0, 51, 0
1, 65995, Note_on_c, 0, 43, 0
1, 66067, Note_on_c, 0, 66, 0
1, 66067, Note_on_c, 0, 63, 66
1, 66142, Note_on_c, 0, 63, 0
1, 66142, Note_on_c, 0, 60, 68
1, 66216, Note_on_c, 0, 60, 0
1, 66216, Note_on_c, 0, 57, 67
1, 66291, Note_on_c, 0, 57, 0
1, 66291, Note_on_c, 0, 54, 66
1, 66374, Note_on_c, 0, 63, 66
1, 66374, Note_on_c, 0, 54, 0
1, 66374, Note_on_c, 0, 51, 66
1, 66402, Note_on_c, 0, 67, 55
1, 66405, Control_c, 0, 64, 0
1, 66416, Note_on_c, 0, 43, 54
1, 66429, Note_on_c, 0, 67, 0
1, 66429, Note_on_c, 0, 68, 55
1, 66457, Note_on_c, 0, 68, 0
1, 66457, Note_on_c, 0, 63, 0
1, 66457, Note_on_c, 0, 70, 91
1, 66460, Note_on_c, 0, 51, 0
1, 66460, Note_on_c, 0, 52, 75
1, 66492, Control_c, 0, 64, 127
1, 66532, Note_on_c, 0, 70, 0
1, 66532, Note_on_c, 0, 61, 57
1, 66607, Note_on_c, 0, 61, 0
1, 66607, Note_on_c, 0, 67, 62
1, 66636, Control_c, 0, 64, 0
1, 66682, Note_on_c, 0, 67, 0
1, 66682, Note_on_c, 0, 70, 54
1, 66720, Note_on_c, 0, 52, 0
1, 66720, Note_on_c, 0, 43, 0
1, 66720, Note_on_c, 0, 43, 58
1, 66758, Note_on_c, 0, 70, 0
1, 66758, Note_on_c, 0, 68, 85
1, 66758, Note_on_c, 0, 53, 82
1, 66793, Control_c, 0, 64, 127
1, 66833, Note_on_c, 0, 68, 0
1, 66833, Note_on_c, 0, 60, 54
1, 66908, Note_on_c, 0, 60, 0
1, 66908, Note_on_c, 0, 65, 61
1, 66924, Control_c, 0, 64, 0
1, 66989, Note_on_c, 0, 65, 0
1, 66989, Note_on_c, 0, 68, 57
1, 67029, Note_on_c, 0, 53, 0
1, 67029, Note_on_c, 0, 43, 0
1, 67029, Note_on_c, 0, 43, 52
1, 67069, Note_on_c, 0, 68, 0
1, 67069, Note_on_c, 0, 67, 85
1, 67069, Note_on_c, 0, 55, 63
1, 67105, Control_c, 0, 64, 127
1, 67145, Note_on_c, 0, 67, 0
1, 67145, Note_on_c, 0, 64, 54
1, 67220, Note_on_c, 0, 64, 0
1, 67220, Note_on_c, 0, 61, 60
1, 67295, Note_on_c, 0, 61, 0
1, 67295, Note_on_c, 0, 58, 54
1, 67371, Note_on_c, 0, 58, 0
1, 67371, Note_on_c, 0, 55, 0
1, 67371, Note_on_c, 0, 43, 0
1, 67374, Note_on_c, 0, 55, 68
1, 67431, Note_on_c, 0, 55, 0
1, 67431, Note_on_c, 0, 52, 67
1, 67491, Note_on_c, 0, 52, 0
1, 67491, Note_on_c, 0, 49, 66
1, 67556, Note_on_c, 0, 58, 66
1, 67556, Note_on_c, 0, 49, 0
1, 67556, Note_on_c, 0, 46, 66
1, 67582, Control_c, 0, 64, 0
1, 67602, Note_on_c, 0, 61, 55
1, 67625, Note_on_c, 0, 46, 0
1, 67625, Note_on_c, 0, 43, 66
1, 67648, Note_on_c, 0, 61, 0
1, 67648, Note_on_c, 0, 64, 55
1, 67693, Note_on_c, 0, 64, 0
1, 67693, Note_on_c, 0, 58, 0
1, 67693, Note_on_c, 0, 65, 86
1, 67696, Note_on_c, 0, 43, 0
1, 67696, Note_on_c, 0, 31, 73
1, 67696, Note_on_c, 0, 43, 90
1, 67737, Control_c, 0, 64, 127
1, 67770, Note_on_c, 0, 65, 0
1, 67770, Note_on_c, 0, 56, 57
1, 67847, Note_on_c, 0, 56, 0
1, 67847, Note_on_c, 0, 60, 62
1, 67923, Note_on_c, 0, 60, 0
1, 67923, Note_on_c, 0, 65, 54
1, 68000, Note_on_c, 0, 65, 0
1, 68000, Note_on_c, 0, 62, 85
1, 68000, Note_on_c, 0, 43, 0
1, 68003, Note_on_c, 0, 31, 0
1, 68003, Note_on_c, 0, 31, 78
1, 68003, Note_on_c, 0, 43, 90
1, 68007, Control_c, 0, 64, 0
1, 68063, Control_c, 0, 64, 127
1, 68078, Note_on_c, 0, 62, 0
1, 68078, Note_on_c, 0, 53, 54
1, 68156, Note_on_c, 0, 53, 0
1, 68156, Note_on_c, 0, 59, 61
1, 68239, Note_on_c, 0, 59, 0
1, 68239, Note_on_c, 0, 62, 57
1, 68322, Note_on_c, 0, 62, 0
1, 68322, Note_on_c, 0, 60, 85
1, 68322, Note_on_c, 0, 43, 0
1, 68325, Note_on_c, 0, 31, 0
1, 68325, Note_on_c, 0, 36, 70
1, 68325, Note_on_c, 0, 43, 86
1, 68328, Control_c, 0, 64, 0
1, 68363, Control_c, 0, 64, 127
1, 68388, Note_on_c, 0, 60, 0
1, 68388, Note_on_c, 0, 55, 54
1, 68455, Note_on_c, 0, 55, 0
1, 68455, Note_on_c, 0, 51, 60
1, 68523, Note_on_c, 0, 51, 0
1, 68523, Note_on_c, 0, 48, 54
1, 68592, Note_on_c, 0, 48, 0
1, 68592, Note_on_c, 0, 43, 54
1, 68662, Note_on_c, 0, 43, 0
1, 68662, Note_on_c, 0, 43, 0
1, 68662, Note_on_c, 0, 36, 0
1, 68665, Note_on_c, 0, 36, 99
1, 68665, Control_c, 0, 64, 0
1, 68694, Control_c, 0, 64, 127
1, 68811, Control_c, 0, 64, 0
1, 68847, Note_on_c, 0, 58, 51
1, 68847, Note_on_c, 0, 63, 51
1, 68847, Note_on_c, 0, 67, 60
1, 68850, Note_on_c, 0, 36, 0
1, 68850, Note_on_c, 0, 51, 45
1, 68850, Note_on_c, 0, 55, 38
1, 69010, Note_on_c, 0, 67, 0
1, 69010, Note_on_c, 0, 63, 0
1, 69010, Note_on_c, 0, 58, 0
1, 69013, Note_on_c, 0, 55, 0
1, 69013, Note_on_c, 0, 51, 0
1, 69028, Note_on_c, 0, 58, 54
1, 69028, Note_on_c, 0, 65, 54
1, 69028, Note_on_c, 0, 50, 50
1, 69031, Note_on_c, 0, 53, 43
1, 69112, Control_c, 0, 64, 127
1, 69364, Note_on_c, 0, 65, 0
1, 69364, Note_on_c, 0, 58, 0
1, 69364, Note_on_c, 0, 53, 0
1, 69367, Note_on_c, 0, 50, 0
1, 69381, Note_on_c, 0, 57, 51
1, 69381, Note_on_c, 0, 63, 51
1, 69381, Note_on_c, 0, 69, 60
1, 69384, Note_on_c, 0, 48, 46
1, 69384, Note_on_c, 0, 53, 39
1, 69392, Control_c, 0, 64, 0
1, 69523, Control_c, 0, 64, 127
1, 69734, Note_on_c, 0, 69, 0
1, 69734, Note_on_c, 0, 63, 0
1, 69734, Note_on_c, 0, 57, 0
1, 69737, Note_on_c, 0, 53, 0
1, 69737, Note_on_c, 0, 48, 0
1, 69752, Note_on_c, 0, 58, 54
1, 69752, Note_on_c, 0, 62, 54
1, 69752, Note_on_c, 0, 70, 63
1, 69755, Note_on_c, 0, 46, 52
1, 69758, Control_c, 0, 64, 0
1, 69772, Note_on_c, 0, 53, 45
1, 69880, Control_c, 0, 64, 127
1, 70072, Control_c, 0, 64, 0
1, 70096, Note_on_c, 0, 70, 0
1, 70096, Note_on_c, 0, 62, 0
1, 70096, Note_on_c, 0, 58, 0
1, 70099, Note_on_c, 0, 46, 0
1, 70116, Note_on_c, 0, 53, 0
1, 70296, Note_on_c, 0, 58, 51
1, 70296, Note_on_c, 0, 63, 51
1, 70296, Note_on_c, 0, 67, 60
1, 70299, Note_on_c, 0, 51, 46
1, 70299, Note_on_c, 0, 55, 39
1, 70478, Note_on_c, 0, 67, 0
1, 70478, Note_on_c, 0, 63, 0
1, 70478, Note_on_c, 0, 58, 0
1, 70481, Note_on_c, 0, 58, 54
1, 70481, Note_on_c, 0, 65, 54
1, 70481, Note_on_c, 0, 55, 0
1, 70484, Note_on_c, 0, 51, 0
1, 70484, Note_on_c, 0, 50, 50
1, 70484, Note_on_c, 0, 53, 43
1, 70562, Control_c, 0, 64, 127
1, 70815, Note_on_c, 0, 65, 0
1, 70815, Note_on_c, 0, 58, 0
1, 70815, Note_on_c, 0, 53, 0
1, 70818, Note_on_c, 0, 50, 0
1, 70833, Note_on_c, 0, 57, 51
1, 70833, Note_on_c, 0, 63, 51
1, 70833, Note_on_c, 0, 69, 60
1, 70836, Note_on_c, 0, 48, 46
1, 70836, Note_on_c, 0, 53, 39
1, 70836, Control_c, 0, 64, 0
1, 71057, Control_c, 0, 64, 127
1, 71177, Note_on_c, 0, 69, 0
1, 71177, Note_on_c, 0, 63, 0
1, 71177, Note_on_c, 0, 57, 0
1, 71180, Note_on_c, 0, 53, 0
1, 71180, Note_on_c, 0, 48, 0
1, 71195, Note_on_c, 0, 58, 54
1, 71195, Note_on_c, 0, 62, 54
1, 71195, Note_on_c, 0, 70, 63
1, 71198, Note_on_c, 0, 46, 52
1, 71204, Control_c, 0, 64, 0
1, 71214, Note_on_c, 0, 53, 45
1, 71280, Control_c, 0, 64, 127
1, 71482, Control_c, 0, 64, 0
1, 71539, Note_on_c, 0, 70, 0
1, 71539, Note_on_c, 0, 62, 0
1, 71539, Note_on_c, 0, 58, 0
1, 71542, Note_on_c, 0, 46, 0
1, 71558, Note_on_c, 0, 53, 0
1, 71738, Note_on_c, 0, 58, 58
1, 71738, Note_on_c, 0, 62, 58
1, 71738, Note_on_c, 0, 65, 67
1, 71741, Note_on_c, 0, 46, 44
1, 71741, Note_on_c, 0, 53, 51
1, 71918, Note_on_c, 0, 65, 0
1, 71918, Note_on_c, 0, 62, 0
1, 71918, Note_on_c, 0, 58, 0
1, 71921, Note_on_c, 0, 67, 72
1, 71921, Note_on_c, 0, 58, 61
1, 71921, Note_on_c, 0, 63, 61
1, 71924, Note_on_c, 0, 53, 0
1, 71924, Note_on_c, 0, 46, 0
1, 71924, Note_on_c, 0, 39, 47
1, 71927, Note_on_c, 0, 51, 55
1, 71998, Control_c, 0, 64, 127
1, 72280, Note_on_c, 0, 63, 0
1, 72280, Note_on_c, 0, 58, 0
1, 72280, Note_on_c, 0, 67, 0
1, 72283, Note_on_c, 0, 55, 58
1, 72283, Note_on_c, 0, 58, 58
1, 72283, Note_on_c, 0, 63, 68
1, 72286, Note_on_c, 0, 51, 0
1, 72286, Note_on_c, 0, 39, 0
1, 72286, Note_on_c, 0, 51, 53
1, 72289, Note_on_c, 0, 43, 45
1, 72289, Control_c, 0, 64, 0
1, 72467, Control_c, 0, 64, 127
1, 72653, Note_on_c, 0, 63, 0
1, 72653, Note_on_c, 0, 58, 0
1, 72653, Note_on_c, 0, 55, 0
1, 72656, Note_on_c, 0, 53, 62
1, 72656, Note_on_c, 0, 58, 62
1, 72656, Note_on_c, 0, 65, 73
1, 72659, Note_on_c, 0, 43, 0
1, 72659, Note_on_c, 0, 51, 0
1, 72659, Note_on_c, 0, 50, 59
1, 72662, Note_on_c, 0, 46, 51
1, 72662, Control_c, 0, 64, 0
1, 72783, Control_c, 0, 64, 127
1, 73022, Note_on_c, 0, 65, 0
1, 73022, Note_on_c, 0, 58, 0
1, 73022, Note_on_c, 0, 53, 0
1, 73025, Note_on_c, 0, 46, 0
1, 73025, Note_on_c, 0, 50, 0
1, 73043, Control_c, 0, 64, 0
1, 73204, Note_on_c, 0, 53, 58
1, 73204, Note_on_c, 0, 58, 58
1, 73204, Note_on_c, 0, 65, 68
1, 73207, Note_on_c, 0, 46, 45
1, 73207, Note_on_c, 0, 50, 53
1, 73387, Note_on_c, 0, 65, 0
1, 73387, Note_on_c, 0, 58, 0
1, 73387, Note_on_c, 0, 53, 0
1, 73390, Note_on_c, 0, 67, 74
1, 73390, Note_on_c, 0, 55, 63
1, 73390, Note_on_c, 0, 50, 0
1, 73393, Note_on_c, 0, 46, 0
1, 73393, Note_on_c, 0, 39, 51
1, 73393, Note_on_c, 0, 51, 59
1, 73466, Control_c, 0, 64, 127
1, 73748, Note_on_c, 0, 55, 0
1, 73748, Note_on_c, 0, 67, 0
1, 73748, Note_on_c, 0, 55, 58
1, 73751, Note_on_c, 0, 58, 58
1, 73751, Note_on_c, 0, 63, 68
1, 73751, Note_on_c, 0, 51, 0
1, 73754, Note_on_c, 0, 39, 0
1, 73754, Note_on_c, 0, 51, 55
1, 73754, Note_on_c, 0, 43, 47
1, 73757, Control_c, 0, 64, 0
1, 73936, Control_c, 0, 64, 127
1, 74123, Note_on_c, 0, 63, 0
1, 74123, Note_on_c, 0, 58, 0
1, 74123, Note_on_c, 0, 55, 0
1, 74126, Note_on_c, 0, 53, 65
1, 74126, Note_on_c, 0, 58, 65
1, 74126, Note_on_c, 0, 65, 75
1, 74129, Note_on_c, 0, 43, 0
1, 74129, Note_on_c, 0, 51, 0
1, 74129, Note_on_c, 0, 50, 61
1, 74132, Note_on_c, 0, 46, 52
1, 74166, Control_c, 0, 64, 0
1, 74252, Control_c, 0, 64, 127
1, 74425, Control_c, 0, 64, 0
1, 74490, Note_on_c, 0, 65, 0
1, 74490, Note_on_c, 0, 58, 0
1, 74490, Note_on_c, 0, 53, 0
1, 74493, Note_on_c, 0, 46, 0
1, 74493, Note_on_c, 0, 50, 0
1, 74674, Note_on_c, 0, 53, 46
1, 74674, Note_on_c, 0, 58, 46
1, 74674, Note_on_c, 0, 62, 54
1, 74677, Note_on_c, 0, 46, 34
1, 74677, Note_on_c, 0, 50, 39
1, 74860, Note_on_c, 0, 62, 0
1, 74860, Note_on_c, 0, 58, 0
1, 74860, Note_on_c, 0, 53, 0
1, 74863, Note_on_c, 0, 58, 52
1, 74863, Note_on_c, 0, 63, 61
1, 74863, Note_on_c, 0, 55, 52
1, 74866, Note_on_c, 0, 50, 0
1, 74866, Note_on_c, 0, 46, 0
1, 74866, Note_on_c, 0, 46, 39
1, 74869, Note_on_c, 0, 48, 46
1, 74950, Control_c, 0, 64, 127
1, 75238, Note_on_c, 0, 55, 0
1, 75238, Note_on_c, 0, 63, 0
1, 75238, Note_on_c, 0, 58, 0
1, 75241, Note_on_c, 0, 53, 45
1, 75241, Note_on_c, 0, 60, 45
1, 75241, Note_on_c, 0, 63, 53
1, 75244, Note_on_c, 0, 48, 0
1, 75244, Note_on_c, 0, 46, 0
1, 75244, Note_on_c, 0, 48, 42
1, 75247, Note_on_c, 0, 45, 36
1, 75252, Control_c, 0, 64, 0
1, 75426, Control_c, 0, 64, 127
1, 75633, Note_on_c, 0, 63, 0
1, 75633, Note_on_c, 0, 60, 0
1, 75633, Note_on_c, 0, 53, 0
1, 75636, Note_on_c, 0, 53, 52
1, 75636, Note_on_c, 0, 60, 52
1, 75636, Note_on_c, 0, 62, 61
1, 75639, Note_on_c, 0, 45, 0
1, 75639, Note_on_c, 0, 48, 0
1, 75639, Note_on_c, 0, 46, 46
1, 75642, Note_on_c, 0, 45, 39
1, 75645, Control_c, 0, 64, 0
1, 75769, Control_c, 0, 64, 127
1, 75947, Control_c, 0, 64, 0
1, 76021, Note_on_c, 0, 62, 0
1, 76021, Note_on_c, 0, 60, 0
1, 76021, Note_on_c, 0, 53, 0
1, 76024, Note_on_c, 0, 45, 0
1, 76024, Note_on_c, 0, 46, 0
1, 76223, Note_on_c, 0, 53, 39
1, 76223, Note_on_c, 0, 58, 39
1, 76223, Note_on_c, 0, 62, 46
1, 76226, Note_on_c, 0, 46, 37
1, 76425, Note_on_c, 0, 62, 0
1, 76425, Note_on_c, 0, 58, 0
1, 76425, Note_on_c, 0, 53, 0
1, 76428, Note_on_c, 0, 58, 47
1, 76428, Note_on_c, 0, 60, 55
1, 76428, Note_on_c, 0, 55, 47
1, 76431, Note_on_c, 0, 46, 0
1, 76431, Note_on_c, 0, 39, 39
1, 76431, Note_on_c, 0, 46, 46
1, 76562, Control_c, 0, 64, 127
1, 76836, Note_on_c, 0, 55, 0
1, 76836, Note_on_c, 0, 60, 0
1, 76836, Note_on_c, 0, 58, 0
1, 76839, Note_on_c, 0, 53, 42
1, 76839, Note_on_c, 0, 60, 49
1, 76839, Note_on_c, 0, 46, 0
1, 76842, Note_on_c, 0, 39, 0
1, 76842, Note_on_c, 0, 41, 35
1, 76842, Note_on_c, 0, 45, 41
1, 76846, Control_c, 0, 64, 0
1, 77061, Control_c, 0, 64, 127
1, 77266, Note_on_c, 0, 60, 0
1, 77266, Note_on_c, 0, 53, 0
1, 77266, Note_on_c, 0, 58, 55
1, 77269, Note_on_c, 0, 45, 0
1, 77269, Note_on_c, 0, 41, 0
1, 77269, Note_on_c, 0, 46, 47
1, 77272, Note_on_c, 0, 34, 41
1, 77275, Control_c, 0, 64, 0
1, 77429, Control_c, 0, 64, 127
1, 77693, Note_on_c, 0, 58, 0
1, 77794, Control_c, 0, 64, 0
1, 77906, Note_on_c, 0, 63, 50
1, 77906, Note_on_c, 0, 68, 50
1, 77906, Note_on_c, 0, 72, 58
1, 77909, Note_on_c, 0, 56, 45
1, 77909, Note_on_c, 0, 60, 38
1, 78096, Note_on_c, 0, 72, 0
1, 78096, Note_on_c, 0, 68, 0
1, 78096, Note_on_c, 0, 63, 0
1, 78099, Note_on_c, 0, 63, 53
1, 78099, Note_on_c, 0, 70, 62
1, 78099, Note_on_c, 0, 60, 0
1, 78102, Note_on_c, 0, 56, 0
1, 78102, Note_on_c, 0, 55, 50
1, 78102, Note_on_c, 0, 58, 43
1, 78198, Control_c, 0, 64, 127
1, 78446, Note_on_c, 0, 70, 0
1, 78446, Note_on_c, 0, 63, 0
1, 78446, Note_on_c, 0, 58, 0
1, 78449, Note_on_c, 0, 55, 0
1, 78464, Note_on_c, 0, 62, 47
1, 78464, Note_on_c, 0, 68, 47
1, 78464, Note_on_c, 0, 74, 55
1, 78467, Note_on_c, 0, 34, 0
1, 78467, Note_on_c, 0, 46, 0
1, 78467, Note_on_c, 0, 53, 46
1, 78470, Note_on_c, 0, 58, 39
1, 78474, Control_c, 0, 64, 0
1, 78677, Control_c, 0, 64, 127
1, 78828, Note_on_c, 0, 74, 0
1, 78828, Note_on_c, 0, 68, 0
1, 78828, Note_on_c, 0, 62, 0
1, 78831, Note_on_c, 0, 58, 0
1, 78831, Note_on_c, 0, 53, 0
1, 78847, Note_on_c, 0, 63, 53
1, 78847, Note_on_c, 0, 67, 53
1, 78847, Note_on_c, 0, 75, 62
1, 78850, Note_on_c, 0, 58, 45
1, 78850, Note_on_c, 0, 51, 52
1, 78858, Control_c, 0, 64, 0
1, 78970, Control_c, 0, 64, 127
1, 79204, Control_c, 0, 64, 0
1, 79207, Note_on_c, 0, 75, 0
1, 79207, Note_on_c, 0, 67, 0
1, 79207, Note_on_c, 0, 63, 0
1, 79210, Note_on_c, 0, 51, 0
1, 79210, Note_on_c, 0, 58, 0
1, 79412, Note_on_c, 0, 63, 47
1, 79412, Note_on_c, 0, 72, 55
1, 79412, Note_on_c, 0, 56, 43
1, 79415, Note_on_c, 0, 60, 37
1, 79599, Note_on_c, 0, 72, 0
1, 79599, Note_on_c, 0, 63, 0
1, 79599, Note_on_c, 0, 63, 54
1, 79602, Note_on_c, 0, 70, 63
1, 79602, Note_on_c, 0, 60, 0
1, 79602, Note_on_c, 0, 56, 0
1, 79605, Note_on_c, 0, 55, 50
1, 79605, Note_on_c, 0, 58, 43
1, 79806, Control_c, 0, 64, 127
1, 79954, Note_on_c, 0, 70, 0
1, 79954, Note_on_c, 0, 63, 0
1, 79954, Note_on_c, 0, 58, 0
1, 79957, Note_on_c, 0, 55, 0
1, 79973, Note_on_c, 0, 62, 49
1, 79973, Note_on_c, 0, 68, 49
1, 79973, Note_on_c, 0, 74, 57
1, 79976, Note_on_c, 0, 53, 44
1, 79976, Note_on_c, 0, 58, 38
1, 79982, Control_c, 0, 64, 0
1, 80166, Control_c, 0, 64, 127
1, 80340, Note_on_c, 0, 74, 0
1, 80340, Note_on_c, 0, 68, 0
1, 80340, Note_on_c, 0, 62, 0
1, 80343, Note_on_c, 0, 58, 0
1, 80343, Note_on_c, 0, 53, 0
1, 80359, Note_on_c, 0, 63, 52
1, 80359, Note_on_c, 0, 67, 52
1, 80359, Note_on_c, 0, 75, 61
1, 80362, Note_on_c, 0, 58, 46
1, 80362, Note_on_c, 0, 51, 54
1, 80369, Control_c, 0, 64, 0
1, 80495, Control_c, 0, 64, 127
1, 80723, Control_c, 0, 64, 0
1, 80726, Note_on_c, 0, 75, 0
1, 80726, Note_on_c, 0, 67, 0
1, 80726, Note_on_c, 0, 63, 0
1, 80729, Note_on_c, 0, 51, 0
1, 80729, Note_on_c, 0, 58, 0
1, 80936, Note_on_c, 0, 67, 51
1, 80936, Note_on_c, 0, 63, 51
1, 80936, Note_on_c, 0, 70, 51
1, 80939, Note_on_c, 0, 51, 45
1, 80939, Note_on_c, 0, 58, 45
1, 81127, Note_on_c, 0, 70, 0
1, 81127, Note_on_c, 0, 63, 0
1, 81127, Note_on_c, 0, 67, 0
1, 81130, Note_on_c, 0, 67, 58
1, 81130, Note_on_c, 0, 63, 58
1, 81130, Note_on_c, 0, 75, 67
1, 81133, Note_on_c, 0, 58, 0
1, 81133, Note_on_c, 0, 51, 0
1, 81133, Note_on_c, 0, 48, 47
1, 81136, Note_on_c, 0, 58, 55
1, 81200, Control_c, 0, 64, 127
1, 81516, Note_on_c, 0, 75, 0
1, 81516, Note_on_c, 0, 63, 0
1, 81516, Note_on_c, 0, 67, 0
1, 81519, Note_on_c, 0, 62, 58
1, 81519, Note_on_c, 0, 66, 58
1, 81519, Note_on_c, 0, 74, 67
1, 81522, Note_on_c, 0, 58, 0
1, 81522, Note_on_c, 0, 48, 0
1, 81522, Note_on_c, 0, 50, 46
1, 81525, Note_on_c, 0, 57, 54
1, 81529, Control_c, 0, 64, 0
1, 81686, Control_c, 0, 64, 127
1, 81913, Note_on_c, 0, 74, 0
1, 81913, Note_on_c, 0, 66, 0
1, 81913, Note_on_c, 0, 62, 0
1, 81916, Note_on_c, 0, 62, 61
1, 81916, Note_on_c, 0, 67, 61
1, 81916, Note_on_c, 0, 70, 72
1, 81919, Note_on_c, 0, 57, 0
1, 81919, Note_on_c, 0, 50, 0
1, 81919, Note_on_c, 0, 55, 58
1, 81922, Note_on_c, 0, 43, 50
1, 81922, Control_c, 0, 64, 0
1, 82026, Control_c, 0, 64, 127
1, 82243, Control_c, 0, 64, 0
1, 82309, Note_on_c, 0, 70, 0
1, 82309, Note_on_c, 0, 67, 0
1, 82309, Note_on_c, 0, 62, 0
1, 82312, Note_on_c, 0, 43, 0
1, 82312, Note_on_c, 0, 55, 0
1, 82504, Note_on_c, 0, 61, 45
1, 82504, Note_on_c, 0, 70, 53
1, 82504, Note_on_c, 0, 43, 34
1, 82507, Note_on_c, 0, 51, 39
1, 82726, Note_on_c, 0, 70, 0
1, 82726, Note_on_c, 0, 61, 0
1, 82726, Note_on_c, 0, 60, 51
1, 82729, Note_on_c, 0, 72, 60
1, 82729, Note_on_c, 0, 51, 0
1, 82729, Note_on_c, 0, 43, 0
1, 82732, Note_on_c, 0, 44, 39
1, 82732, Note_on_c, 0, 51, 46
1, 82890, Control_c, 0, 64, 127
1, 83151, Note_on_c, 0, 72, 0
1, 83151, Note_on_c, 0, 60, 0
1, 83151, Note_on_c, 0, 65, 45
1, 83154, Note_on_c, 0, 70, 53
1, 83154, Note_on_c, 0, 51, 0
1, 83154, Note_on_c, 0, 44, 0
1, 83157, Note_on_c, 0, 46, 37
1, 83157, Note_on_c, 0, 50, 43
1, 83160, Control_c, 0, 64, 0
1, 83394, Control_c, 0, 64, 127
1, 83590, Note_on_c, 0, 70, 0
1, 83590, Note_on_c, 0, 65, 0
1, 83590, Note_on_c, 0, 58, 52
1, 83593, Note_on_c, 0, 64, 52
1, 83593, Note_on_c, 0, 67, 61
1, 83593, Note_on_c, 0, 50, 0
1, 83596, Note_on_c, 0, 46, 0
1, 83596, Note_on_c, 0, 48, 45
1, 83599, Control_c, 0, 64, 0
1, 83691, Control_c, 0, 64, 127
1, 83974, Control_c, 0, 64, 0
1, 84014, Note_on_c, 0, 67, 0
1, 84014, Note_on_c, 0, 64, 0
1, 84014, Note_on_c, 0, 58, 0
1, 84017, Note_on_c, 0, 48, 0
1, 84227, Note_on_c, 0, 58, 45
1, 84227, Note_on_c, 0, 64, 45
1, 84227, Note_on_c, 0, 67, 53
1, 84230, Note_on_c, 0, 48, 39
1, 84427, Note_on_c, 0, 67, 0
1, 84427, Note_on_c, 0, 64, 0
1, 84427, Note_on_c, 0, 58, 0
1, 84430, Note_on_c, 0, 65, 51
1, 84430, Note_on_c, 0, 60, 51
1, 84430, Note_on_c, 0, 68, 60
1, 84433, Note_on_c, 0, 48, 0
1, 84433, Note_on_c, 0, 41, 46
1, 84529, Control_c, 0, 64, 127
1, 84836, Note_on_c, 0, 68, 0
1, 84836, Note_on_c, 0, 60, 0
1, 84836, Note_on_c, 0, 65, 0
1, 84839, Note_on_c, 0, 56, 45
1, 84839, Note_on_c, 0, 62, 45
1, 84839, Note_on_c, 0, 65, 53
1, 84842, Note_on_c, 0, 41, 0
1, 84842, Note_on_c, 0, 46, 43
1, 84846, Control_c, 0, 64, 0
1, 84936, Control_c, 0, 64, 127
1, 85153, Note_on_c, 0, 56, 0
1, 85153, Note_on_c, 0, 57, 45
1, 85259, Note_on_c, 0, 57, 0
1, 85259, Note_on_c, 0, 65, 0
1, 85259, Note_on_c, 0, 62, 0
1, 85262, Note_on_c, 0, 58, 52
1, 85262, Note_on_c, 0, 62, 52
1, 85262, Note_on_c, 0, 67, 61
1, 85265, Note_on_c, 0, 46, 0
1, 85265, Note_on_c, 0, 43, 45
1, 85265, Control_c, 0, 64, 0
1, 85429, Control_c, 0, 64, 127
1, 85681, Note_on_c, 0, 67, 0
1, 85681, Note_on_c, 0, 62, 0
1, 85681, Note_on_c, 0, 58, 0
1, 85684, Note_on_c, 0, 43, 0
1, 85701, Control_c, 0, 64, 0
1, 85889, Note_on_c, 0, 58, 45
1, 85889, Note_on_c, 0, 64, 45
1, 85889, Note_on_c, 0, 67, 53
1, 85892, Note_on_c, 0, 48, 39
1, 86089, Note_on_c, 0, 67, 0
1, 86089, Note_on_c, 0, 64, 0
1, 86089, Note_on_c, 0, 58, 0
1, 86092, Note_on_c, 0, 65, 51
1, 86092, Note_on_c, 0, 60, 51
1, 86092, Note_on_c, 0, 68, 60
1, 86095, Note_on_c, 0, 48, 0
1, 86095, Note_on_c, 0, 41, 46
1, 86156, Control_c, 0, 64, 127
1, 86493, Note_on_c, 0, 68, 0
1, 86493, Note_on_c, 0, 60, 0
1, 86493, Note_on_c, 0, 65, 0
1, 86496, Note_on_c, 0, 56, 45
1, 86496, Note_on_c, 0, 62, 45
1, 86496, Note_on_c, 0, 65, 53
1, 86499, Note_on_c, 0, 41, 0
1, 86499, Note_on_c, 0, 46, 43
1, 86503, Control_c, 0, 64, 0
1, 86705, Control_c, 0, 64, 127
1, 86918, Note_on_c, 0, 65, 0
1, 86918, Note_on_c, 0, 62, 0
1, 86918, Note_on_c, 0, 56, 0
1, 86921, Note_on_c, 0, 55, 52
1, 86921, Note_on_c, 0, 63, 61
1, 86921, Note_on_c, 0, 46, 0
1, 86924, Note_on_c, 0, 39, 45
1, 86929, Control_c, 0, 64, 0
1, 87092, Control_c, 0, 64, 127
1, 87317, Control_c, 0, 64, 0
1, 87342, Note_on_c, 0, 63, 0
1, 87342, Note_on_c, 0, 55, 0
1, 87342, Note_on_c, 0, 39, 0
1, 87555, Note_on_c, 0, 55, 45
1, 87555, Note_on_c, 0, 63, 53
1, 87555, Note_on_c, 0, 39, 39
1, 87760, Note_on_c, 0, 55, 0
1, 87760, Note_on_c, 0, 60, 51
1, 87760, Note_on_c, 0, 39, 0
1, 87763, Note_on_c, 0, 44, 46
1, 87884, Control_c, 0, 64, 127
1, 88194, Note_on_c, 0, 60, 0
1, 88194, Note_on_c, 0, 59, 45
1, 88643, Note_on_c, 0, 59, 0
1, 88643, Note_on_c, 0, 58, 52
1, 88643, Note_on_c, 0, 44, 0
1, 88646, Note_on_c, 0, 43, 45
1, 88656, Control_c, 0, 64, 0
1, 88814, Control_c, 0, 64, 127
1, 89078, Control_c, 0, 64, 0
1, 89091, Note_on_c, 0, 58, 0
1, 89091, Note_on_c, 0, 63, 0
1, 89091, Note_on_c, 0, 43, 0
1, 89316, Note_on_c, 0, 39, 36
1, 89316, Note_on_c, 0, 51, 36
1, 89316, Note_on_c, 0, 63, 36
1, 89568, Note_on_c, 0, 39, 0
1, 89568, Note_on_c, 0, 48, 45
1, 89568, Note_on_c, 0, 56, 42
1, 89571, Control_c, 0, 64, 127
1, 90125, Note_on_c, 0, 48, 0
1, 90125, Note_on_c, 0, 47, 43
1, 90873, Note_on_c, 0, 47, 0
1, 90873, Note_on_c, 0, 56, 0
1, 90873, Note_on_c, 0, 46, 41
1, 90876, Note_on_c, 0, 55, 33
1, 90890, Control_c, 0, 64, 0
1, 91205, Control_c, 0, 64, 127
1, 91620, Note_on_c, 0, 55, 0
1, 91620, Note_on_c, 0, 51, 0
1, 91620, Note_on_c, 0, 63, 0
1, 91623, Note_on_c, 0, 46, 0
1, 93405, Control_c, 0, 64, 0
1, 94903, End_track
0, 0, End_of_file
