0, 0, Header, 0, 1, 384
1, 0, Start_track
1, 0, Time_signature, 4, 2, 24, 8
1, 0, Key_signature, 0, "major"
1, 0, Tempo, 512821
1, 0, Program_c, 0, 0
1, 0, Control_c, 0, 7, 104
1, 0, Control_c, 0, 10, 77
1, 0, Control_c, 0, 64, 0
1, 0, Program_c, 0, 0
1, 0, Control_c, 0, 7, 104
1, 0, Control_c, 0, 10, 43
1, 3, Control_c, 0, 64, 0
1, 431, Control_c, 0, 64, 0
1, 748, Note_on_c, 0, 61, 68
1, 748, Note_on_c, 0, 64, 68
1, 748, Note_on_c, 0, 68, 68
1, 751, Note_on_c, 0, 73, 90
1, 751, Control_c, 0, 64, 0
1, 751, Control_c, 0, 64, 0
1, 762, Note_on_c, 0, 37, 61
1, 762, Note_on_c, 0, 44, 49
1, 1119, Control_c, 0, 64, 127
1, 1119, Control_c, 0, 64, 127
1, 1612, Note_on_c, 0, 68, 0
1, 1612, Note_on_c, 0, 61, 0
1, 1612, Note_on_c, 0, 64, 0
1, 1615, Note_on_c, 0, 56, 65
1, 1615, Note_on_c, 0, 61, 65
1, 1615, Note_on_c, 0, 64, 65
1, 1618, Note_on_c, 0, 68, 86
1, 1629, Note_on_c, 0, 73, 0
1, 1708, Control_c, 0, 64, 0
1, 1708, Control_c, 0, 64, 0
1, 1924, Control_c, 0, 64, 127
1, 1924, Control_c, 0, 64, 127
1, 2476, Note_on_c, 0, 61, 0
1, 2476, Note_on_c, 0, 56, 0
1, 2476, Note_on_c, 0, 64, 0
1, 2479, Note_on_c, 0, 52, 63
1, 2479, Note_on_c, 0, 56, 63
1, 2479, Note_on_c, 0, 61, 63
1, 2482, Note_on_c, 0, 64, 82
1, 2493, Note_on_c, 0, 68, 0
1, 2551, Control_c, 0, 64, 0
1, 2551, Control_c, 0, 64, 0
1, 2797, Control_c, 0, 64, 127
1, 2797, Control_c, 0, 64, 127
1, 3340, Note_on_c, 0, 56, 0
1, 3340, Note_on_c, 0, 52, 0
1, 3340, Note_on_c, 0, 61, 0
1, 3343, Note_on_c, 0, 61, 75
1, 3343, Note_on_c, 0, 49, 57
1, 3343, Note_on_c, 0, 52, 57
1, 3346, Note_on_c, 0, 56, 57
1, 3357, Note_on_c, 0, 64, 0
1, 3436, Control_c, 0, 64, 0
1, 3436, Control_c, 0, 64, 0
1, 3580, Control_c, 0, 64, 127
1, 3580, Control_c, 0, 64, 127
1, 3988, Note_on_c, 0, 61, 0
1, 3988, Note_on_c, 0, 54, 66
1, 4096, Note_on_c, 0, 61, 66
1, 4204, Note_on_c, 0, 49, 0
1, 4204, Note_on_c, 0, 52, 0
1, 4204, Control_c, 0, 64, 127
1, 4207, Note_on_c, 0, 56, 0
1, 4207, Note_on_c, 0, 69, 89
1, 4207, Control_c, 0, 64, 127
1, 4210, Control_c, 0, 64, 0
1, 4210, Note_on_c, 0, 30, 59
1, 4210, Note_on_c, 0, 42, 59
1, 4221, Note_on_c, 0, 37, 0
1, 4221, Note_on_c, 0, 44, 0
1, 4278, Control_c, 0, 64, 0
1, 4278, Control_c, 0, 64, 0
1, 4618, Control_c, 0, 64, 127
1, 4618, Control_c, 0, 64, 127
1, 5068, Note_on_c, 0, 60, 70
1, 5080, Control_c, 0, 64, 0
1, 5080, Control_c, 0, 64, 0
1, 5085, Note_on_c, 0, 61, 0
1, 5500, Note_on_c, 0, 68, 80
1, 5522, Note_on_c, 0, 69, 0
1, 5522, Control_c, 0, 64, 127
1, 5522, Control_c, 0, 64, 127
1, 5781, Note_on_c, 0, 68, 0
1, 5781, Note_on_c, 0, 52, 66
1, 5796, Note_on_c, 0, 54, 0
1, 5796, Note_on_c, 0, 60, 0
1, 5875, Note_on_c, 0, 61, 66
1, 5968, Note_on_c, 0, 68, 77
1, 5968, Note_on_c, 0, 25, 55
1, 5968, Note_on_c, 0, 37, 55
1, 5985, Note_on_c, 0, 30, 0
1, 5985, Note_on_c, 0, 42, 0
1, 5993, Control_c, 0, 64, 0
1, 5993, Control_c, 0, 64, 0
1, 6211, Control_c, 0, 64, 127
1, 6211, Control_c, 0, 64, 127
1, 6832, Note_on_c, 0, 61, 0
1, 6832, Note_on_c, 0, 68, 0
1, 6832, Note_on_c, 0, 52, 0
1, 6835, Note_on_c, 0, 68, 84
1, 6849, Note_on_c, 0, 37, 0
1, 6849, Note_on_c, 0, 25, 0
1, 7556, Note_on_c, 0, 51, 65
1, 7626, Note_on_c, 0, 60, 65
1, 7696, Control_c, 0, 64, 127
1, 7696, Note_on_c, 0, 66, 84
1, 7696, Control_c, 0, 64, 127
1, 7699, Control_c, 0, 64, 0
1, 7699, Note_on_c, 0, 32, 55
1, 7699, Note_on_c, 0, 44, 55
1, 7713, Note_on_c, 0, 68, 0
1, 7770, Control_c, 0, 64, 0
1, 7770, Control_c, 0, 64, 0
1, 8037, Control_c, 0, 64, 127
1, 8037, Control_c, 0, 64, 127
1, 8560, Note_on_c, 0, 68, 84
1, 8577, Note_on_c, 0, 66, 0
1, 9323, Note_on_c, 0, 49, 65
1, 9374, Note_on_c, 0, 56, 65
1, 9424, Note_on_c, 0, 64, 84
1, 9424, Note_on_c, 0, 25, 49
1, 9424, Note_on_c, 0, 37, 49
1, 9441, Note_on_c, 0, 60, 0
1, 9441, Note_on_c, 0, 51, 0
1, 9441, Note_on_c, 0, 68, 0
1, 9444, Note_on_c, 0, 44, 0
1, 9444, Note_on_c, 0, 32, 0
1, 9449, Control_c, 0, 64, 0
1, 9449, Control_c, 0, 64, 0
1, 9862, Control_c, 0, 64, 127
1, 9862, Control_c, 0, 64, 127
1, 10120, Note_on_c, 0, 56, 0
1, 10120, Note_on_c, 0, 49, 0
1, 10148, Note_on_c, 0, 49, 65
1, 10203, Control_c, 0, 64, 127
1, 10203, Control_c, 0, 64, 127
1, 10218, Note_on_c, 0, 57, 65
1, 10288, Note_on_c, 0, 66, 84
1, 10288, Note_on_c, 0, 30, 54
1, 10288, Note_on_c, 0, 42, 54
1, 10305, Note_on_c, 0, 37, 0
1, 10305, Note_on_c, 0, 25, 0
1, 10305, Note_on_c, 0, 64, 0
1, 10422, Control_c, 0, 64, 0
1, 10422, Control_c, 0, 64, 0
1, 10641, Control_c, 0, 64, 127
1, 10641, Control_c, 0, 64, 127
1, 10899, Note_on_c, 0, 48, 65
1, 11026, Note_on_c, 0, 56, 65
1, 11152, Note_on_c, 0, 49, 0
1, 11152, Control_c, 0, 64, 127
1, 11152, Note_on_c, 0, 63, 84
1, 11155, Control_c, 0, 64, 127
1, 11155, Control_c, 0, 64, 0
1, 11155, Note_on_c, 0, 32, 53
1, 11158, Note_on_c, 0, 44, 58
1, 11169, Note_on_c, 0, 66, 0
1, 11169, Note_on_c, 0, 57, 0
1, 11169, Note_on_c, 0, 30, 0
1, 11172, Note_on_c, 0, 42, 0
1, 11226, Control_c, 0, 64, 0
1, 11226, Control_c, 0, 64, 0
1, 11712, Control_c, 0, 64, 127
1, 11712, Control_c, 0, 64, 127
1, 12016, Note_on_c, 0, 63, 0
1, 12016, Note_on_c, 0, 56, 0
1, 12016, Note_on_c, 0, 48, 0
1, 12019, Note_on_c, 0, 49, 60
1, 12019, Note_on_c, 0, 58, 69
1, 12019, Note_on_c, 0, 55, 60
1, 12022, Note_on_c, 0, 39, 50
1, 12022, Note_on_c, 0, 49, 55
1, 12038, Note_on_c, 0, 44, 0
1, 12038, Note_on_c, 0, 32, 0
1, 12095, Control_c, 0, 64, 0
1, 12095, Control_c, 0, 64, 0
1, 12285, Control_c, 0, 64, 127
1, 12285, Control_c, 0, 64, 127
1, 12578, Note_on_c, 0, 55, 0
1, 12578, Note_on_c, 0, 53, 65
1, 13012, Note_on_c, 0, 48, 54
1, 13116, Note_on_c, 0, 51, 54
1, 13220, Note_on_c, 0, 58, 0
1, 13220, Note_on_c, 0, 49, 0
1, 13220, Control_c, 0, 64, 0
1, 13223, Note_on_c, 0, 53, 0
1, 13223, Note_on_c, 0, 63, 70
1, 13223, Control_c, 0, 64, 0
1, 13226, Note_on_c, 0, 32, 48
1, 13226, Note_on_c, 0, 44, 53
1, 13245, Note_on_c, 0, 49, 0
1, 13245, Note_on_c, 0, 39, 0
1, 13653, Control_c, 0, 64, 127
1, 13653, Control_c, 0, 64, 127
1, 14503, Note_on_c, 0, 48, 0
1, 14503, Note_on_c, 0, 63, 0
1, 14503, Note_on_c, 0, 51, 0
1, 14506, Note_on_c, 0, 44, 0
1, 14506, Note_on_c, 0, 32, 0
1, 14978, Control_c, 0, 64, 0
1, 14978, Control_c, 0, 64, 0
1, 15367, Control_c, 0, 64, 0
1, 15367, Control_c, 0, 64, 0
1, 15367, Note_on_c, 0, 61, 69
1, 15370, Note_on_c, 0, 64, 69
1, 15370, Note_on_c, 0, 68, 69
1, 15370, Note_on_c, 0, 73, 92
1, 15373, Control_c, 0, 64, 0
1, 15373, Control_c, 0, 64, 0
1, 15373, Control_c, 0, 64, 0
1, 15376, Control_c, 0, 64, 0
1, 15376, Note_on_c, 0, 37, 61
1, 15376, Note_on_c, 0, 44, 49
1, 15738, Control_c, 0, 64, 127
1, 15738, Control_c, 0, 64, 127
1, 16231, Note_on_c, 0, 68, 0
1, 16231, Note_on_c, 0, 61, 0
1, 16231, Note_on_c, 0, 64, 0
1, 16234, Note_on_c, 0, 73, 0
1, 16234, Note_on_c, 0, 56, 62
1, 16234, Note_on_c, 0, 61, 62
1, 16237, Note_on_c, 0, 64, 62
1, 16237, Note_on_c, 0, 68, 87
1, 16328, Control_c, 0, 64, 0
1, 16328, Control_c, 0, 64, 0
1, 16544, Control_c, 0, 64, 127
1, 16544, Control_c, 0, 64, 127
1, 17095, Note_on_c, 0, 64, 0
1, 17095, Note_on_c, 0, 61, 0
1, 17095, Note_on_c, 0, 56, 0
1, 17098, Note_on_c, 0, 68, 0
1, 17098, Note_on_c, 0, 52, 65
1, 17098, Note_on_c, 0, 56, 65
1, 17101, Note_on_c, 0, 61, 65
1, 17101, Note_on_c, 0, 64, 90
1, 17166, Control_c, 0, 64, 0
1, 17166, Control_c, 0, 64, 0
1, 17399, Control_c, 0, 64, 127
1, 17399, Control_c, 0, 64, 127
1, 17912, Note_on_c, 0, 61, 0
1, 17912, Note_on_c, 0, 56, 0
1, 17912, Note_on_c, 0, 52, 0
1, 17915, Note_on_c, 0, 64, 0
1, 17915, Note_on_c, 0, 49, 64
1, 17915, Note_on_c, 0, 52, 64
1, 17918, Note_on_c, 0, 56, 64
1, 17918, Note_on_c, 0, 61, 93
1, 18003, Control_c, 0, 64, 0
1, 18003, Control_c, 0, 64, 0
1, 18139, Control_c, 0, 64, 127
1, 18139, Control_c, 0, 64, 127
1, 18525, Note_on_c, 0, 37, 0
1, 18525, Note_on_c, 0, 44, 0
1, 18525, Note_on_c, 0, 33, 84
1, 18729, Note_on_c, 0, 52, 0
1, 18729, Note_on_c, 0, 49, 0
1, 18729, Control_c, 0, 64, 127
1, 18732, Note_on_c, 0, 61, 0
1, 18732, Note_on_c, 0, 56, 0
1, 18732, Note_on_c, 0, 57, 77
1, 18735, Note_on_c, 0, 61, 77
1, 18735, Note_on_c, 0, 64, 77
1, 18735, Note_on_c, 0, 69, 95
1, 18738, Control_c, 0, 64, 127
1, 18738, Control_c, 0, 64, 0
1, 18738, Note_on_c, 0, 52, 72
1, 18850, Control_c, 0, 64, 0
1, 18850, Control_c, 0, 64, 0
1, 19354, Control_c, 0, 64, 127
1, 19354, Control_c, 0, 64, 127
1, 19546, Note_on_c, 0, 64, 0
1, 19546, Note_on_c, 0, 61, 0
1, 19546, Note_on_c, 0, 57, 0
1, 19549, Note_on_c, 0, 69, 0
1, 19549, Note_on_c, 0, 61, 76
1, 19549, Note_on_c, 0, 64, 76
1, 19552, Note_on_c, 0, 69, 76
1, 19552, Note_on_c, 0, 73, 96
1, 19552, Note_on_c, 0, 57, 77
1, 19562, Note_on_c, 0, 52, 0
1, 19954, Note_on_c, 0, 69, 0
1, 19954, Note_on_c, 0, 64, 0
1, 19954, Note_on_c, 0, 61, 0
1, 19957, Note_on_c, 0, 73, 0
1, 19957, Note_on_c, 0, 64, 79
1, 19957, Note_on_c, 0, 69, 79
1, 19960, Note_on_c, 0, 73, 79
1, 19960, Note_on_c, 0, 76, 99
1, 19960, Note_on_c, 0, 61, 79
1, 19974, Note_on_c, 0, 57, 0
1, 20454, Note_on_c, 0, 73, 0
1, 20454, Note_on_c, 0, 69, 0
1, 20454, Note_on_c, 0, 64, 0
1, 20457, Note_on_c, 0, 76, 0
1, 20457, Note_on_c, 0, 69, 81
1, 20457, Note_on_c, 0, 73, 81
1, 20460, Note_on_c, 0, 76, 81
1, 20460, Note_on_c, 0, 81, 102
1, 20460, Note_on_c, 0, 64, 81
1, 20473, Note_on_c, 0, 61, 0
1, 21452, Note_on_c, 0, 76, 0
1, 21452, Note_on_c, 0, 73, 0
1, 21452, Note_on_c, 0, 69, 0
1, 21455, Note_on_c, 0, 81, 0
1, 21455, Note_on_c, 0, 69, 77
1, 21455, Note_on_c, 0, 78, 77
1, 21458, Note_on_c, 0, 33, 0
1, 21458, Note_on_c, 0, 81, 95
1, 21458, Note_on_c, 0, 63, 68
1, 21461, Note_on_c, 0, 48, 68
1, 21469, Note_on_c, 0, 64, 0
1, 21503, Control_c, 0, 64, 0
1, 21503, Control_c, 0, 64, 0
1, 21884, Control_c, 0, 64, 127
1, 21884, Control_c, 0, 64, 127
1, 22316, Note_on_c, 0, 78, 0
1, 22316, Note_on_c, 0, 69, 0
1, 22316, Control_c, 0, 64, 127
1, 22319, Note_on_c, 0, 81, 0
1, 22319, Note_on_c, 0, 68, 73
1, 22319, Note_on_c, 0, 76, 73
1, 22322, Note_on_c, 0, 80, 89
1, 22322, Control_c, 0, 64, 127
1, 22322, Control_c, 0, 64, 0
1, 22325, Note_on_c, 0, 49, 68
1, 22325, Note_on_c, 0, 64, 68
1, 22333, Note_on_c, 0, 63, 0
1, 22333, Note_on_c, 0, 48, 0
1, 22417, Control_c, 0, 64, 0
1, 22417, Control_c, 0, 64, 0
1, 22697, Control_c, 0, 64, 127
1, 22697, Control_c, 0, 64, 127
1, 23180, Note_on_c, 0, 78, 95
1, 23180, Note_on_c, 0, 66, 71
1, 23180, Note_on_c, 0, 73, 71
1, 23183, Note_on_c, 0, 46, 63
1, 23183, Note_on_c, 0, 61, 61
1, 23183, Note_on_c, 0, 52, 68
1, 23200, Note_on_c, 0, 76, 0
1, 23200, Note_on_c, 0, 80, 0
1, 23200, Note_on_c, 0, 68, 0
1, 23203, Note_on_c, 0, 64, 0
1, 23203, Note_on_c, 0, 49, 0
1, 23239, Control_c, 0, 64, 0
1, 23239, Control_c, 0, 64, 0
1, 23562, Control_c, 0, 64, 127
1, 23562, Control_c, 0, 64, 127
1, 23679, Note_on_c, 0, 64, 71
1, 23679, Note_on_c, 0, 54, 68
1, 23696, Note_on_c, 0, 73, 0
1, 23696, Note_on_c, 0, 52, 0
1, 23696, Note_on_c, 0, 66, 0
1, 23895, Note_on_c, 0, 76, 90
1, 23920, Note_on_c, 0, 78, 0
1, 24216, Note_on_c, 0, 69, 70
1, 24216, Note_on_c, 0, 47, 68
1, 24216, Note_on_c, 0, 59, 68
1, 24233, Note_on_c, 0, 61, 0
1, 24233, Note_on_c, 0, 46, 0
1, 24295, Control_c, 0, 64, 0
1, 24295, Control_c, 0, 64, 0
1, 24582, Control_c, 0, 64, 127
1, 24582, Control_c, 0, 64, 127
1, 24648, Note_on_c, 0, 63, 70
1, 24648, Note_on_c, 0, 75, 89
1, 24665, Note_on_c, 0, 64, 0
1, 24665, Note_on_c, 0, 76, 0
1, 25080, Note_on_c, 0, 73, 82
1, 25080, Note_on_c, 0, 57, 68
1, 25097, Note_on_c, 0, 75, 0
1, 25097, Note_on_c, 0, 59, 0
1, 25154, Control_c, 0, 64, 0
1, 25154, Control_c, 0, 64, 0
1, 25327, Control_c, 0, 64, 127
1, 25327, Control_c, 0, 64, 127
1, 25482, Control_c, 0, 64, 127
1, 25482, Control_c, 0, 64, 127
1, 25512, Note_on_c, 0, 63, 0
1, 25512, Note_on_c, 0, 63, 60
1, 25512, Note_on_c, 0, 71, 87
1, 25541, Note_on_c, 0, 73, 0
1, 25887, Note_on_c, 0, 63, 0
1, 25887, Note_on_c, 0, 63, 75
1, 25995, Note_on_c, 0, 71, 0
1, 25995, Note_on_c, 0, 71, 75
1, 26182, Control_c, 0, 64, 127
1, 26182, Note_on_c, 0, 78, 93
1, 26182, Control_c, 0, 64, 127
1, 26185, Note_on_c, 0, 47, 0
1, 26185, Note_on_c, 0, 54, 0
1, 26185, Control_c, 0, 64, 0
1, 26188, Note_on_c, 0, 40, 62
1, 26201, Note_on_c, 0, 69, 0
1, 26681, Note_on_c, 0, 57, 0
1, 26681, Note_on_c, 0, 57, 69
1, 27088, Control_c, 0, 64, 127
1, 27088, Control_c, 0, 64, 127
1, 27113, Note_on_c, 0, 61, 69
1, 27132, Note_on_c, 0, 57, 0
1, 27612, Note_on_c, 0, 59, 62
1, 27634, Note_on_c, 0, 61, 0
1, 28174, Note_on_c, 0, 40, 0
1, 28174, Note_on_c, 0, 64, 60
1, 28174, Note_on_c, 0, 76, 72
1, 28177, Note_on_c, 0, 52, 48
1, 28177, Note_on_c, 0, 56, 55
1, 28203, Note_on_c, 0, 78, 0
1, 28203, Note_on_c, 0, 63, 0
1, 28203, Note_on_c, 0, 59, 0
1, 28262, Control_c, 0, 64, 0
1, 28262, Control_c, 0, 64, 0
1, 28482, Control_c, 0, 64, 127
1, 28482, Control_c, 0, 64, 127
1, 28747, Control_c, 0, 64, 0
1, 28747, Control_c, 0, 64, 0
1, 28923, Note_on_c, 0, 71, 0
1, 28923, Note_on_c, 0, 64, 0
1, 28923, Note_on_c, 0, 76, 0
1, 28926, Note_on_c, 0, 64, 63
1, 28926, Note_on_c, 0, 68, 78
1, 28926, Note_on_c, 0, 59, 68
1, 28929, Note_on_c, 0, 56, 0
1, 28929, Note_on_c, 0, 52, 0
1, 28929, Note_on_c, 0, 52, 49
1, 29422, Note_on_c, 0, 60, 70
1, 29422, Note_on_c, 0, 51, 56
1, 29439, Note_on_c, 0, 52, 0
1, 29439, Note_on_c, 0, 59, 0
1, 29854, Note_on_c, 0, 68, 0
1, 29854, Note_on_c, 0, 64, 0
1, 29854, Note_on_c, 0, 61, 73
1, 29857, Note_on_c, 0, 64, 63
1, 29857, Note_on_c, 0, 68, 83
1, 29857, Note_on_c, 0, 49, 62
1, 29876, Note_on_c, 0, 51, 0
1, 29876, Note_on_c, 0, 60, 0
1, 29972, Control_c, 0, 64, 127
1, 29972, Control_c, 0, 64, 127
1, 30415, Note_on_c, 0, 68, 0
1, 30415, Note_on_c, 0, 64, 0
1, 30415, Control_c, 0, 64, 0
1, 30418, Note_on_c, 0, 63, 65
1, 30418, Note_on_c, 0, 68, 77
1, 30418, Control_c, 0, 64, 0
1, 30421, Control_c, 0, 64, 0
1, 30421, Note_on_c, 0, 48, 63
1, 30421, Note_on_c, 0, 56, 63
1, 30437, Note_on_c, 0, 49, 0
1, 30437, Note_on_c, 0, 61, 0
1, 30447, Control_c, 0, 64, 127
1, 30447, Control_c, 0, 64, 127
1, 30605, Control_c, 0, 64, 0
1, 30605, Control_c, 0, 64, 0
1, 30922, Control_c, 0, 64, 127
1, 30922, Control_c, 0, 64, 127
1, 30977, Note_on_c, 0, 72, 81
1, 30994, Note_on_c, 0, 68, 0
1, 31409, Note_on_c, 0, 75, 82
1, 31425, Note_on_c, 0, 72, 0
1, 31581, Control_c, 0, 64, 0
1, 31581, Control_c, 0, 64, 0
1, 31817, Note_on_c, 0, 73, 81
1, 31833, Note_on_c, 0, 75, 0
1, 32226, Note_on_c, 0, 72, 77
1, 32245, Note_on_c, 0, 73, 0
1, 32725, Note_on_c, 0, 63, 0
1, 32725, Note_on_c, 0, 69, 74
1, 32725, Note_on_c, 0, 63, 74
1, 32728, Note_on_c, 0, 48, 0
1, 32728, Note_on_c, 0, 54, 60
1, 32728, Note_on_c, 0, 48, 53
1, 32731, Control_c, 0, 64, 127
1, 32731, Control_c, 0, 64, 127
1, 32741, Note_on_c, 0, 56, 0
1, 32741, Note_on_c, 0, 72, 0
1, 33053, Control_c, 0, 64, 0
1, 33053, Control_c, 0, 64, 0
1, 33133, Note_on_c, 0, 68, 71
1, 33133, Note_on_c, 0, 56, 63
1, 33149, Note_on_c, 0, 69, 0
1, 33149, Note_on_c, 0, 54, 0
1, 33214, Control_c, 0, 64, 127
1, 33214, Control_c, 0, 64, 127
1, 33542, Note_on_c, 0, 63, 0
1, 33542, Note_on_c, 0, 66, 68
1, 33542, Note_on_c, 0, 63, 68
1, 33545, Note_on_c, 0, 48, 0
1, 33545, Note_on_c, 0, 57, 66
1, 33545, Note_on_c, 0, 48, 59
1, 33561, Note_on_c, 0, 68, 0
1, 33561, Note_on_c, 0, 56, 0
1, 33591, Control_c, 0, 64, 0
1, 33591, Control_c, 0, 64, 0
1, 33844, Control_c, 0, 64, 127
1, 33844, Control_c, 0, 64, 127
1, 34041, Note_on_c, 0, 63, 0
1, 34041, Note_on_c, 0, 66, 0
1, 34041, Control_c, 0, 64, 127
1, 34044, Note_on_c, 0, 66, 79
1, 34044, Note_on_c, 0, 60, 79
1, 34044, Control_c, 0, 64, 127
1, 34047, Note_on_c, 0, 57, 0
1, 34047, Control_c, 0, 64, 0
1, 34047, Note_on_c, 0, 49, 55
1, 34050, Note_on_c, 0, 57, 68
1, 34061, Note_on_c, 0, 48, 0
1, 34126, Control_c, 0, 64, 0
1, 34126, Control_c, 0, 64, 0
1, 34540, Note_on_c, 0, 64, 76
1, 34540, Note_on_c, 0, 56, 65
1, 34556, Note_on_c, 0, 57, 0
1, 34556, Note_on_c, 0, 66, 0
1, 34949, Note_on_c, 0, 63, 74
1, 34949, Note_on_c, 0, 54, 61
1, 34965, Note_on_c, 0, 64, 0
1, 34965, Note_on_c, 0, 56, 0
1, 35357, Note_on_c, 0, 64, 72
1, 35357, Note_on_c, 0, 56, 58
1, 35377, Note_on_c, 0, 63, 0
1, 35377, Note_on_c, 0, 54, 0
1, 35534, Control_c, 0, 64, 127
1, 35534, Control_c, 0, 64, 127
1, 35856, Note_on_c, 0, 56, 0
1, 35856, Note_on_c, 0, 56, 55
1, 35856, Note_on_c, 0, 61, 65
1, 35859, Note_on_c, 0, 52, 51
1, 35876, Note_on_c, 0, 64, 0
1, 35876, Note_on_c, 0, 60, 0
1, 35886, Control_c, 0, 64, 0
1, 35886, Control_c, 0, 64, 0
1, 36447, Control_c, 0, 64, 127
1, 36447, Control_c, 0, 64, 127
1, 36730, Note_on_c, 0, 57, 59
1, 36855, Note_on_c, 0, 61, 0
1, 36855, Note_on_c, 0, 52, 0
1, 36855, Note_on_c, 0, 61, 73
1, 36858, Note_on_c, 0, 49, 0
1, 36858, Note_on_c, 0, 49, 64
1, 36858, Note_on_c, 0, 52, 64
1, 36861, Note_on_c, 0, 57, 0
1, 36861, Note_on_c, 0, 56, 53
1, 36872, Note_on_c, 0, 56, 0
1, 36926, Note_on_c, 0, 56, 0
1, 36926, Note_on_c, 0, 57, 59
1, 36999, Note_on_c, 0, 57, 0
1, 36999, Note_on_c, 0, 56, 57
1, 37071, Note_on_c, 0, 56, 0
1, 37071, Note_on_c, 0, 57, 58
1, 37142, Note_on_c, 0, 57, 0
1, 37142, Note_on_c, 0, 56, 64
1, 37215, Note_on_c, 0, 56, 0
1, 37215, Note_on_c, 0, 57, 65
1, 37287, Note_on_c, 0, 49, 0
1, 37287, Note_on_c, 0, 61, 0
1, 37287, Note_on_c, 0, 61, 76
1, 37290, Note_on_c, 0, 52, 0
1, 37290, Note_on_c, 0, 57, 0
1, 37290, Note_on_c, 0, 56, 64
1, 37293, Note_on_c, 0, 49, 65
1, 37293, Note_on_c, 0, 52, 65
1, 37370, Note_on_c, 0, 56, 0
1, 37370, Note_on_c, 0, 57, 59
1, 37453, Note_on_c, 0, 57, 0
1, 37453, Note_on_c, 0, 56, 58
1, 37536, Note_on_c, 0, 56, 0
1, 37536, Note_on_c, 0, 57, 59
1, 37619, Note_on_c, 0, 57, 0
1, 37619, Note_on_c, 0, 56, 54
1, 37703, Note_on_c, 0, 56, 0
1, 37703, Note_on_c, 0, 57, 61
1, 37786, Note_on_c, 0, 61, 0
1, 37786, Control_c, 0, 64, 127
1, 37786, Note_on_c, 0, 61, 80
1, 37789, Note_on_c, 0, 57, 0
1, 37789, Control_c, 0, 64, 127
1, 37789, Control_c, 0, 64, 0
1, 37792, Note_on_c, 0, 52, 0
1, 37792, Note_on_c, 0, 49, 0
1, 37792, Note_on_c, 0, 56, 76
1, 37795, Note_on_c, 0, 49, 67
1, 37795, Note_on_c, 0, 52, 67
1, 37972, Note_on_c, 0, 56, 0
1, 37972, Note_on_c, 0, 57, 64
1, 37985, Control_c, 0, 64, 0
1, 37985, Control_c, 0, 64, 0
1, 38056, Note_on_c, 0, 57, 0
1, 38056, Note_on_c, 0, 56, 56
1, 38128, Note_on_c, 0, 56, 0
1, 38128, Note_on_c, 0, 57, 63
1, 38159, Control_c, 0, 64, 127
1, 38159, Control_c, 0, 64, 127
1, 38200, Note_on_c, 0, 57, 0
1, 38200, Note_on_c, 0, 56, 64
1, 38272, Note_on_c, 0, 56, 0
1, 38272, Note_on_c, 0, 57, 58
1, 38344, Note_on_c, 0, 57, 0
1, 38344, Note_on_c, 0, 56, 61
1, 38416, Note_on_c, 0, 56, 0
1, 38416, Note_on_c, 0, 57, 61
1, 38488, Note_on_c, 0, 57, 0
1, 38488, Note_on_c, 0, 56, 63
1, 38560, Note_on_c, 0, 56, 0
1, 38560, Note_on_c, 0, 57, 63
1, 38632, Note_on_c, 0, 57, 0
1, 38632, Note_on_c, 0, 56, 57
1, 38704, Note_on_c, 0, 56, 0
1, 38704, Note_on_c, 0, 57, 65
1, 38776, Note_on_c, 0, 63, 82
1, 38776, Note_on_c, 0, 48, 69
1, 38776, Note_on_c, 0, 51, 69
1, 38779, Note_on_c, 0, 57, 0
1, 38779, Note_on_c, 0, 56, 62
1, 38793, Note_on_c, 0, 61, 0
1, 38793, Note_on_c, 0, 52, 0
1, 38793, Note_on_c, 0, 49, 0
1, 38838, Control_c, 0, 64, 0
1, 38838, Control_c, 0, 64, 0
1, 38848, Note_on_c, 0, 56, 0
1, 38848, Note_on_c, 0, 57, 59
1, 38920, Note_on_c, 0, 57, 0
1, 38920, Note_on_c, 0, 56, 61
1, 38982, Control_c, 0, 64, 127
1, 38982, Control_c, 0, 64, 127
1, 38992, Note_on_c, 0, 56, 0
1, 38992, Note_on_c, 0, 57, 61
1, 39064, Note_on_c, 0, 57, 0
1, 39064, Note_on_c, 0, 56, 63
1, 39136, Note_on_c, 0, 56, 0
1, 39136, Note_on_c, 0, 57, 62
1, 39208, Note_on_c, 0, 61, 85
1, 39208, Note_on_c, 0, 49, 70
1, 39208, Note_on_c, 0, 52, 70
1, 39211, Note_on_c, 0, 57, 0
1, 39211, Note_on_c, 0, 56, 57
1, 39225, Note_on_c, 0, 51, 0
1, 39225, Note_on_c, 0, 63, 0
1, 39225, Note_on_c, 0, 48, 0
1, 39280, Note_on_c, 0, 56, 0
1, 39280, Note_on_c, 0, 57, 64
1, 39352, Note_on_c, 0, 57, 0
1, 39352, Note_on_c, 0, 56, 67
1, 39424, Note_on_c, 0, 56, 0
1, 39424, Note_on_c, 0, 57, 65
1, 39496, Note_on_c, 0, 57, 0
1, 39496, Note_on_c, 0, 56, 61
1, 39568, Note_on_c, 0, 56, 0
1, 39568, Note_on_c, 0, 57, 59
1, 39640, Note_on_c, 0, 60, 88
1, 39640, Note_on_c, 0, 51, 71
1, 39640, Note_on_c, 0, 54, 71
1, 39643, Note_on_c, 0, 57, 0
1, 39643, Note_on_c, 0, 56, 67
1, 39660, Note_on_c, 0, 52, 0
1, 39660, Note_on_c, 0, 61, 0
1, 39660, Note_on_c, 0, 49, 0
1, 39711, Control_c, 0, 64, 0
1, 39711, Control_c, 0, 64, 0
1, 39723, Note_on_c, 0, 56, 0
1, 39723, Note_on_c, 0, 57, 69
1, 39807, Note_on_c, 0, 57, 0
1, 39807, Note_on_c, 0, 56, 70
1, 39854, Control_c, 0, 64, 127
1, 39854, Control_c, 0, 64, 127
1, 39890, Note_on_c, 0, 56, 0
1, 39890, Note_on_c, 0, 57, 56
1, 39972, Note_on_c, 0, 57, 0
1, 39972, Note_on_c, 0, 56, 65
1, 40056, Note_on_c, 0, 56, 0
1, 40056, Note_on_c, 0, 57, 62
1, 40139, Note_on_c, 0, 57, 0
1, 40139, Note_on_c, 0, 56, 56
1, 40222, Note_on_c, 0, 56, 0
1, 40222, Note_on_c, 0, 57, 57
1, 40306, Note_on_c, 0, 57, 0
1, 40306, Note_on_c, 0, 56, 67
1, 40389, Note_on_c, 0, 56, 0
1, 40389, Note_on_c, 0, 57, 67
1, 40472, Note_on_c, 0, 57, 0
1, 40472, Note_on_c, 0, 56, 62
1, 40556, Note_on_c, 0, 56, 0
1, 40556, Note_on_c, 0, 57, 63
1, 40638, Control_c, 0, 64, 0
1, 40638, Note_on_c, 0, 61, 77
1, 40638, Control_c, 0, 64, 0
1, 40641, Note_on_c, 0, 57, 0
1, 40641, Note_on_c, 0, 49, 66
1, 40641, Note_on_c, 0, 52, 66
1, 40644, Note_on_c, 0, 56, 67
1, 40655, Note_on_c, 0, 54, 0
1, 40655, Note_on_c, 0, 60, 0
1, 40655, Note_on_c, 0, 51, 0
1, 40710, Note_on_c, 0, 56, 0
1, 40710, Note_on_c, 0, 57, 57
1, 40779, Control_c, 0, 64, 127
1, 40779, Control_c, 0, 64, 127
1, 40783, Note_on_c, 0, 57, 0
1, 40783, Note_on_c, 0, 56, 59
1, 40854, Note_on_c, 0, 56, 0
1, 40854, Note_on_c, 0, 57, 61
1, 40926, Note_on_c, 0, 57, 0
1, 40926, Note_on_c, 0, 56, 64
1, 40999, Note_on_c, 0, 56, 0
1, 40999, Note_on_c, 0, 57, 58
1, 41070, Note_on_c, 0, 57, 0
1, 41070, Note_on_c, 0, 56, 68
1, 41142, Note_on_c, 0, 56, 0
1, 41142, Note_on_c, 0, 57, 65
1, 41215, Note_on_c, 0, 57, 0
1, 41215, Note_on_c, 0, 56, 69
1, 41286, Note_on_c, 0, 56, 0
1, 41286, Note_on_c, 0, 57, 70
1, 41358, Note_on_c, 0, 57, 0
1, 41358, Note_on_c, 0, 56, 68
1, 41431, Note_on_c, 0, 56, 0
1, 41431, Note_on_c, 0, 57, 65
1, 41502, Control_c, 0, 64, 127
1, 41502, Note_on_c, 0, 64, 85
1, 41502, Control_c, 0, 64, 127
1, 41505, Note_on_c, 0, 57, 0
1, 41505, Note_on_c, 0, 49, 0
1, 41505, Control_c, 0, 64, 0
1, 41508, Note_on_c, 0, 56, 56
1, 41508, Note_on_c, 0, 44, 68
1, 41508, Note_on_c, 0, 49, 73
1, 41519, Note_on_c, 0, 61, 0
1, 41519, Note_on_c, 0, 52, 0
1, 41574, Note_on_c, 0, 56, 0
1, 41574, Note_on_c, 0, 57, 61
1, 41577, Control_c, 0, 64, 0
1, 41577, Control_c, 0, 64, 0
1, 41647, Note_on_c, 0, 57, 0
1, 41647, Note_on_c, 0, 56, 55
1, 41718, Note_on_c, 0, 56, 0
1, 41718, Note_on_c, 0, 57, 61
1, 41728, Control_c, 0, 64, 127
1, 41728, Control_c, 0, 64, 127
1, 41790, Note_on_c, 0, 57, 0
1, 41790, Note_on_c, 0, 56, 64
1, 41863, Note_on_c, 0, 56, 0
1, 41863, Note_on_c, 0, 57, 60
1, 41934, Note_on_c, 0, 57, 0
1, 41934, Note_on_c, 0, 56, 59
1, 42006, Note_on_c, 0, 56, 0
1, 42006, Note_on_c, 0, 57, 60
1, 42079, Note_on_c, 0, 57, 0
1, 42079, Note_on_c, 0, 56, 54
1, 42150, Note_on_c, 0, 56, 0
1, 42150, Note_on_c, 0, 57, 58
1, 42222, Note_on_c, 0, 57, 0
1, 42222, Note_on_c, 0, 56, 55
1, 42295, Note_on_c, 0, 56, 0
1, 42295, Note_on_c, 0, 57, 62
1, 42366, Note_on_c, 0, 57, 0
1, 42366, Note_on_c, 0, 56, 62
1, 42438, Note_on_c, 0, 56, 0
1, 42438, Note_on_c, 0, 57, 66
1, 42511, Note_on_c, 0, 57, 0
1, 42511, Note_on_c, 0, 56, 55
1, 42582, Note_on_c, 0, 56, 0
1, 42582, Note_on_c, 0, 57, 58
1, 42654, Note_on_c, 0, 57, 0
1, 42654, Note_on_c, 0, 56, 61
1, 42727, Note_on_c, 0, 56, 0
1, 42727, Note_on_c, 0, 57, 56
1, 42798, Note_on_c, 0, 57, 0
1, 42798, Note_on_c, 0, 56, 57
1, 42870, Note_on_c, 0, 56, 0
1, 42870, Note_on_c, 0, 57, 64
1, 42943, Note_on_c, 0, 57, 0
1, 42943, Note_on_c, 0, 56, 66
1, 43014, Note_on_c, 0, 56, 0
1, 43014, Note_on_c, 0, 57, 58
1, 43086, Note_on_c, 0, 57, 0
1, 43086, Note_on_c, 0, 56, 59
1, 43212, Note_on_c, 0, 56, 0
1, 43212, Note_on_c, 0, 55, 60
1, 43336, Control_c, 0, 64, 0
1, 43336, Note_on_c, 0, 63, 65
1, 43336, Control_c, 0, 64, 0
1, 43339, Note_on_c, 0, 55, 0
1, 43339, Note_on_c, 0, 48, 58
1, 43339, Note_on_c, 0, 56, 61
1, 43353, Note_on_c, 0, 64, 0
1, 43353, Note_on_c, 0, 49, 0
1, 43768, Note_on_c, 0, 48, 0
1, 43768, Note_on_c, 0, 42, 66
1, 43785, Note_on_c, 0, 44, 0
1, 44200, Note_on_c, 0, 63, 0
1, 44200, Note_on_c, 0, 56, 0
1, 44200, Note_on_c, 0, 40, 71
1, 44220, Note_on_c, 0, 42, 0
1, 44699, Note_on_c, 0, 39, 75
1, 44724, Note_on_c, 0, 40, 0
1, 45341, Control_c, 0, 64, 0
1, 45341, Control_c, 0, 64, 0
1, 45341, Note_on_c, 0, 61, 66
1, 45344, Note_on_c, 0, 64, 66
1, 45344, Note_on_c, 0, 68, 66
1, 45344, Note_on_c, 0, 73, 89
1, 45347, Control_c, 0, 64, 0
1, 45347, Control_c, 0, 64, 0
1, 45347, Control_c, 0, 64, 0
1, 45350, Control_c, 0, 64, 0
1, 45350, Note_on_c, 0, 37, 65
1, 45350, Note_on_c, 0, 44, 53
1, 45358, Note_on_c, 0, 39, 0
1, 45712, Control_c, 0, 64, 127
1, 45712, Control_c, 0, 64, 127
1, 46205, Note_on_c, 0, 68, 0
1, 46205, Note_on_c, 0, 61, 0
1, 46205, Note_on_c, 0, 64, 0
1, 46208, Note_on_c, 0, 73, 0
1, 46208, Note_on_c, 0, 56, 62
1, 46208, Note_on_c, 0, 61, 62
1, 46211, Note_on_c, 0, 64, 62
1, 46211, Note_on_c, 0, 68, 87
1, 46301, Control_c, 0, 64, 0
1, 46301, Control_c, 0, 64, 0
1, 46517, Control_c, 0, 64, 127
1, 46517, Control_c, 0, 64, 127
1, 47069, Note_on_c, 0, 64, 0
1, 47069, Note_on_c, 0, 61, 0
1, 47069, Note_on_c, 0, 56, 0
1, 47072, Note_on_c, 0, 68, 0
1, 47072, Note_on_c, 0, 52, 65
1, 47072, Note_on_c, 0, 56, 65
1, 47075, Note_on_c, 0, 61, 65
1, 47075, Note_on_c, 0, 64, 90
1, 47139, Control_c, 0, 64, 0
1, 47139, Control_c, 0, 64, 0
1, 47372, Control_c, 0, 64, 127
1, 47372, Control_c, 0, 64, 127
1, 47886, Note_on_c, 0, 61, 0
1, 47886, Note_on_c, 0, 56, 0
1, 47886, Note_on_c, 0, 52, 0
1, 47889, Note_on_c, 0, 64, 0
1, 47889, Note_on_c, 0, 49, 64
1, 47889, Note_on_c, 0, 52, 64
1, 47892, Note_on_c, 0, 56, 64
1, 47892, Note_on_c, 0, 61, 93
1, 47977, Control_c, 0, 64, 0
1, 47977, Control_c, 0, 64, 0
1, 48113, Control_c, 0, 64, 127
1, 48113, Control_c, 0, 64, 127
1, 48499, Note_on_c, 0, 37, 0
1, 48499, Note_on_c, 0, 44, 0
1, 48499, Note_on_c, 0, 33, 84
1, 48703, Note_on_c, 0, 52, 0
1, 48703, Note_on_c, 0, 49, 0
1, 48703, Control_c, 0, 64, 127
1, 48706, Note_on_c, 0, 61, 0
1, 48706, Note_on_c, 0, 56, 0
1, 48706, Note_on_c, 0, 55, 82
1, 48709, Note_on_c, 0, 57, 82
1, 48709, Note_on_c, 0, 61, 82
1, 48709, Note_on_c, 0, 69, 100
1, 48712, Control_c, 0, 64, 127
1, 48712, Control_c, 0, 64, 0
1, 48712, Note_on_c, 0, 52, 77
1, 48893, Control_c, 0, 64, 0
1, 48893, Control_c, 0, 64, 0
1, 49272, Control_c, 0, 64, 127
1, 49272, Control_c, 0, 64, 127
1, 49545, Note_on_c, 0, 61, 0
1, 49545, Note_on_c, 0, 57, 0
1, 49545, Note_on_c, 0, 55, 0
1, 49548, Note_on_c, 0, 69, 0
1, 49548, Note_on_c, 0, 67, 81
1, 49548, Note_on_c, 0, 69, 81
1, 49551, Note_on_c, 0, 52, 0
1, 49551, Note_on_c, 0, 73, 81
1, 49551, Note_on_c, 0, 81, 102
1, 49554, Note_on_c, 0, 64, 86
1, 49813, Note_on_c, 0, 73, 0
1, 49813, Note_on_c, 0, 69, 0
1, 49813, Note_on_c, 0, 67, 0
1, 49816, Note_on_c, 0, 81, 0
1, 49816, Note_on_c, 0, 67, 85
1, 49816, Note_on_c, 0, 69, 85
1, 49819, Note_on_c, 0, 73, 85
1, 49819, Note_on_c, 0, 76, 85
1, 49819, Note_on_c, 0, 81, 109
1, 49822, Note_on_c, 0, 64, 0
1, 49822, Note_on_c, 0, 57, 77
1, 49822, Note_on_c, 0, 64, 86
1, 51952, Note_on_c, 0, 73, 0
1, 51952, Note_on_c, 0, 69, 0
1, 51952, Note_on_c, 0, 67, 0
1, 51955, Note_on_c, 0, 81, 0
1, 51955, Note_on_c, 0, 76, 0
1, 51955, Note_on_c, 0, 69, 74
1, 51958, Note_on_c, 0, 33, 0
1, 51958, Note_on_c, 0, 78, 74
1, 51958, Note_on_c, 0, 81, 93
1, 51961, Note_on_c, 0, 57, 0
1, 51961, Note_on_c, 0, 64, 0
1, 51961, Note_on_c, 0, 54, 59
1, 51964, Note_on_c, 0, 63, 68
1, 51964, Note_on_c, 0, 48, 59
1, 51989, Control_c, 0, 64, 0
1, 51989, Control_c, 0, 64, 0
1, 52208, Control_c, 0, 64, 127
1, 52208, Control_c, 0, 64, 127
1, 52816, Control_c, 0, 64, 0
1, 52816, Note_on_c, 0, 68, 72
1, 52816, Note_on_c, 0, 76, 72
1, 52819, Note_on_c, 0, 80, 88
1, 52819, Control_c, 0, 64, 0
1, 52819, Control_c, 0, 64, 0
1, 52822, Note_on_c, 0, 49, 53
1, 52822, Note_on_c, 0, 52, 53
1, 52822, Note_on_c, 0, 64, 62
1, 52833, Note_on_c, 0, 69, 0
1, 52833, Note_on_c, 0, 81, 0
1, 52833, Note_on_c, 0, 78, 0
1, 52836, Note_on_c, 0, 54, 0
1, 52836, Note_on_c, 0, 63, 0
1, 52836, Note_on_c, 0, 48, 0
1, 52841, Control_c, 0, 64, 127
1, 52841, Control_c, 0, 64, 127
1, 52962, Control_c, 0, 64, 0
1, 52962, Control_c, 0, 64, 0
1, 53254, Control_c, 0, 64, 127
1, 53254, Control_c, 0, 64, 127
1, 53680, Note_on_c, 0, 73, 81
1, 53680, Note_on_c, 0, 61, 66
1, 53680, Note_on_c, 0, 57, 64
1, 53700, Note_on_c, 0, 80, 0
1, 53700, Note_on_c, 0, 76, 0
1, 53700, Note_on_c, 0, 68, 0
1, 53703, Note_on_c, 0, 64, 0
1, 53703, Note_on_c, 0, 49, 0
1, 53703, Note_on_c, 0, 52, 0
1, 53722, Control_c, 0, 64, 0
1, 53722, Control_c, 0, 64, 0
1, 54060, Control_c, 0, 64, 127
1, 54060, Control_c, 0, 64, 127
1, 54179, Note_on_c, 0, 63, 69
1, 54199, Note_on_c, 0, 61, 0
1, 54429, Note_on_c, 0, 75, 86
1, 54454, Note_on_c, 0, 73, 0
1, 54750, Note_on_c, 0, 68, 66
1, 54750, Note_on_c, 0, 73, 66
1, 54750, Note_on_c, 0, 76, 91
1, 54753, Note_on_c, 0, 56, 58
1, 54753, Note_on_c, 0, 64, 66
1, 54769, Note_on_c, 0, 63, 0
1, 54769, Note_on_c, 0, 75, 0
1, 54769, Note_on_c, 0, 57, 0
1, 54862, Control_c, 0, 64, 0
1, 54862, Control_c, 0, 64, 0
1, 54975, Control_c, 0, 64, 0
1, 54975, Control_c, 0, 64, 0
1, 55256, Control_c, 0, 64, 127
1, 55256, Control_c, 0, 64, 127
1, 55748, Note_on_c, 0, 68, 0
1, 55748, Note_on_c, 0, 66, 64
1, 55748, Note_on_c, 0, 68, 64
1, 55751, Note_on_c, 0, 56, 0
1, 55751, Note_on_c, 0, 72, 64
1, 55751, Note_on_c, 0, 75, 87
1, 55754, Note_on_c, 0, 56, 46
1, 55754, Note_on_c, 0, 63, 54
1, 55765, Note_on_c, 0, 76, 0
1, 55765, Note_on_c, 0, 64, 0
1, 55765, Note_on_c, 0, 73, 0
1, 55809, Control_c, 0, 64, 0
1, 55809, Control_c, 0, 64, 0
1, 55834, Control_c, 0, 64, 0
1, 55834, Control_c, 0, 64, 0
1, 56028, Control_c, 0, 64, 127
1, 56028, Control_c, 0, 64, 127
1, 56612, Note_on_c, 0, 68, 0
1, 56612, Control_c, 0, 64, 127
1, 56612, Note_on_c, 0, 64, 55
1, 56615, Note_on_c, 0, 68, 55
1, 56615, Note_on_c, 0, 73, 78
1, 56615, Control_c, 0, 64, 127
1, 56618, Control_c, 0, 64, 0
1, 56618, Note_on_c, 0, 61, 58
1, 56634, Note_on_c, 0, 75, 0
1, 56634, Note_on_c, 0, 66, 0
1, 56634, Note_on_c, 0, 72, 0
1, 56637, Note_on_c, 0, 63, 0
1, 56805, Control_c, 0, 64, 0
1, 56805, Control_c, 0, 64, 0
1, 57447, Control_c, 0, 64, 127
1, 57447, Control_c, 0, 64, 127
1, 57736, Note_on_c, 0, 68, 0
1, 57736, Note_on_c, 0, 73, 0
1, 57736, Note_on_c, 0, 64, 0
1, 57739, Note_on_c, 0, 61, 0
1, 57739, Note_on_c, 0, 71, 71
1, 57739, Note_on_c, 0, 66, 64
1, 57742, Note_on_c, 0, 54, 61
1, 57742, Note_on_c, 0, 61, 61
1, 57761, Note_on_c, 0, 56, 0
1, 57842, Control_c, 0, 64, 0
1, 57842, Control_c, 0, 64, 0
1, 58306, Control_c, 0, 64, 127
1, 58306, Control_c, 0, 64, 127
1, 58377, Note_on_c, 0, 71, 0
1, 58377, Note_on_c, 0, 69, 78
1, 59126, Note_on_c, 0, 69, 0
1, 59126, Note_on_c, 0, 66, 0
1, 59126, Note_on_c, 0, 63, 64
1, 59129, Note_on_c, 0, 68, 83
1, 59129, Note_on_c, 0, 48, 61
1, 59129, Note_on_c, 0, 56, 61
1, 59155, Note_on_c, 0, 54, 0
1, 59155, Note_on_c, 0, 61, 0
1, 59212, Control_c, 0, 64, 0
1, 59212, Control_c, 0, 64, 0
1, 62121, Note_on_c, 0, 68, 0
1, 62121, Note_on_c, 0, 63, 0
1, 62121, Control_c, 0, 64, 0
1, 62124, Note_on_c, 0, 56, 0
1, 62124, Note_on_c, 0, 48, 0
1, 62124, Control_c, 0, 64, 0
1, 62127, Note_on_c, 0, 37, 63
1, 62202, Note_on_c, 0, 37, 0
1, 62442, Note_on_c, 0, 32, 65
1, 62482, Note_on_c, 0, 32, 0
1, 62683, Note_on_c, 0, 32, 66
1, 62703, Note_on_c, 0, 32, 0
1, 62763, Note_on_c, 0, 37, 66
1, 62843, Note_on_c, 0, 37, 0
1, 63084, Note_on_c, 0, 39, 68
1, 63159, Note_on_c, 0, 39, 0
1, 63384, Note_on_c, 0, 40, 70
1, 63459, Note_on_c, 0, 40, 0
1, 63683, Note_on_c, 0, 42, 71
1, 63758, Note_on_c, 0, 42, 0
1, 63983, Note_on_c, 0, 45, 77
1, 64143, Note_on_c, 0, 44, 71
1, 64155, Note_on_c, 0, 45, 0
1, 64293, Note_on_c, 0, 42, 70
1, 64305, Note_on_c, 0, 44, 0
1, 64443, Note_on_c, 0, 40, 68
1, 64454, Note_on_c, 0, 42, 0
1, 64492, Note_on_c, 0, 40, 0
1, 64592, Control_c, 0, 64, 0
1, 64592, Control_c, 0, 64, 0
1, 64592, Note_on_c, 0, 45, 66
1, 64595, Note_on_c, 0, 54, 66
1, 64667, Note_on_c, 0, 54, 0
1, 64667, Note_on_c, 0, 45, 0
1, 64892, Note_on_c, 0, 49, 68
1, 65042, Note_on_c, 0, 49, 0
1, 65117, Note_on_c, 0, 49, 69
1, 65135, Note_on_c, 0, 49, 0
1, 65191, Note_on_c, 0, 54, 70
1, 65191, Note_on_c, 0, 39, 70
1, 65266, Note_on_c, 0, 39, 0
1, 65266, Note_on_c, 0, 54, 0
1, 65491, Note_on_c, 0, 56, 72
1, 65566, Note_on_c, 0, 56, 0
1, 65790, Note_on_c, 0, 57, 73
1, 65865, Note_on_c, 0, 57, 0
1, 66090, Note_on_c, 0, 59, 75
1, 66165, Note_on_c, 0, 59, 0
1, 66390, Note_on_c, 0, 61, 81
1, 66390, Note_on_c, 0, 40, 77
1, 66470, Note_on_c, 0, 40, 0
1, 66550, Note_on_c, 0, 59, 74
1, 66562, Note_on_c, 0, 61, 0
1, 66700, Note_on_c, 0, 57, 72
1, 66711, Note_on_c, 0, 59, 0
1, 66850, Note_on_c, 0, 56, 69
1, 66861, Note_on_c, 0, 57, 0
1, 66899, Note_on_c, 0, 56, 0
1, 66999, Control_c, 0, 64, 0
1, 66999, Note_on_c, 0, 54, 54
1, 66999, Note_on_c, 0, 63, 72
1, 67002, Control_c, 0, 64, 0
1, 67002, Note_on_c, 0, 36, 61
1, 67002, Note_on_c, 0, 44, 54
1, 67074, Note_on_c, 0, 36, 0
1, 67074, Note_on_c, 0, 54, 0
1, 67074, Note_on_c, 0, 63, 0
1, 67077, Note_on_c, 0, 44, 0
1, 67299, Note_on_c, 0, 56, 68
1, 67336, Note_on_c, 0, 56, 0
1, 67523, Note_on_c, 0, 56, 70
1, 67542, Note_on_c, 0, 56, 0
1, 67598, Note_on_c, 0, 54, 59
1, 67598, Note_on_c, 0, 63, 77
1, 67598, Note_on_c, 0, 32, 62
1, 67601, Note_on_c, 0, 44, 55
1, 67673, Note_on_c, 0, 32, 0
1, 67673, Note_on_c, 0, 54, 0
1, 67673, Note_on_c, 0, 63, 0
1, 67676, Note_on_c, 0, 44, 0
1, 67898, Note_on_c, 0, 64, 74
1, 67973, Note_on_c, 0, 64, 0
1, 68197, Note_on_c, 0, 66, 75
1, 68272, Note_on_c, 0, 66, 0
1, 68497, Note_on_c, 0, 68, 78
1, 68572, Note_on_c, 0, 68, 0
1, 68796, Note_on_c, 0, 61, 70
1, 68796, Note_on_c, 0, 66, 85
1, 68796, Note_on_c, 0, 37, 63
1, 68799, Note_on_c, 0, 44, 56
1, 68880, Note_on_c, 0, 44, 0
1, 68880, Note_on_c, 0, 37, 0
1, 68964, Note_on_c, 0, 64, 78
1, 68976, Note_on_c, 0, 66, 0
1, 68976, Note_on_c, 0, 61, 0
1, 69114, Note_on_c, 0, 63, 73
1, 69125, Note_on_c, 0, 64, 0
1, 69264, Note_on_c, 0, 61, 69
1, 69275, Note_on_c, 0, 63, 0
1, 69313, Note_on_c, 0, 61, 0
1, 69413, Control_c, 0, 64, 0
1, 69413, Note_on_c, 0, 60, 68
1, 69413, Note_on_c, 0, 68, 81
1, 69416, Control_c, 0, 64, 0
1, 69416, Control_c, 0, 64, 0
1, 69416, Note_on_c, 0, 44, 57
1, 69419, Note_on_c, 0, 51, 57
1, 69488, Note_on_c, 0, 44, 0
1, 69488, Note_on_c, 0, 60, 0
1, 69488, Note_on_c, 0, 68, 0
1, 69491, Note_on_c, 0, 51, 0
1, 69572, Control_c, 0, 64, 0
1, 69572, Control_c, 0, 64, 0
1, 69713, Note_on_c, 0, 63, 84
1, 69748, Note_on_c, 0, 63, 0
1, 69748, Control_c, 0, 64, 127
1, 69748, Control_c, 0, 64, 127
1, 69801, Control_c, 0, 64, 127
1, 69801, Control_c, 0, 64, 127
1, 69937, Note_on_c, 0, 63, 86
1, 70012, Note_on_c, 0, 63, 0
1, 70012, Note_on_c, 0, 60, 69
1, 70012, Note_on_c, 0, 68, 87
1, 70015, Note_on_c, 0, 44, 58
1, 70015, Note_on_c, 0, 51, 58
1, 70047, Control_c, 0, 64, 0
1, 70047, Control_c, 0, 64, 0
1, 70087, Note_on_c, 0, 44, 0
1, 70087, Note_on_c, 0, 60, 0
1, 70087, Note_on_c, 0, 68, 0
1, 70090, Note_on_c, 0, 51, 0
1, 70312, Note_on_c, 0, 70, 92
1, 70387, Note_on_c, 0, 70, 0
1, 70611, Note_on_c, 0, 72, 96
1, 70692, Note_on_c, 0, 72, 0
1, 70932, Note_on_c, 0, 73, 97
1, 71019, Note_on_c, 0, 73, 0
1, 71278, Note_on_c, 0, 76, 98
1, 71278, Note_on_c, 0, 66, 70
1, 71278, Note_on_c, 0, 56, 63
1, 71281, Note_on_c, 0, 60, 73
1, 71322, Control_c, 0, 64, 127
1, 71322, Control_c, 0, 64, 127
1, 71465, Note_on_c, 0, 75, 92
1, 71478, Note_on_c, 0, 76, 0
1, 71495, Control_c, 0, 64, 127
1, 71495, Control_c, 0, 64, 127
1, 71626, Note_on_c, 0, 73, 89
1, 71639, Note_on_c, 0, 75, 0
1, 71798, Note_on_c, 0, 72, 85
1, 71812, Note_on_c, 0, 73, 0
1, 71855, Note_on_c, 0, 72, 0
1, 71912, Control_c, 0, 64, 0
1, 71912, Control_c, 0, 64, 0
1, 71971, Control_c, 0, 64, 0
1, 71971, Note_on_c, 0, 61, 65
1, 71971, Note_on_c, 0, 64, 65
1, 71974, Note_on_c, 0, 68, 65
1, 71974, Note_on_c, 0, 73, 75
1, 71974, Control_c, 0, 64, 0
1, 71977, Note_on_c, 0, 60, 0
1, 71977, Note_on_c, 0, 56, 0
1, 71977, Control_c, 0, 64, 0
1, 71980, Note_on_c, 0, 37, 63
1, 71983, Note_on_c, 0, 66, 0
1, 72046, Note_on_c, 0, 37, 0
1, 72271, Note_on_c, 0, 64, 0
1, 72271, Note_on_c, 0, 68, 0
1, 72271, Note_on_c, 0, 73, 0
1, 72274, Note_on_c, 0, 32, 65
1, 72308, Note_on_c, 0, 32, 0
1, 72495, Note_on_c, 0, 32, 66
1, 72514, Note_on_c, 0, 32, 0
1, 72570, Note_on_c, 0, 61, 0
1, 72570, Note_on_c, 0, 61, 63
1, 72570, Note_on_c, 0, 64, 63
1, 72573, Note_on_c, 0, 68, 74
1, 72573, Note_on_c, 0, 56, 63
1, 72573, Note_on_c, 0, 37, 66
1, 72645, Note_on_c, 0, 37, 0
1, 72870, Note_on_c, 0, 61, 0
1, 72870, Note_on_c, 0, 68, 0
1, 72870, Note_on_c, 0, 64, 0
1, 72873, Note_on_c, 0, 39, 68
1, 72945, Note_on_c, 0, 39, 0
1, 73169, Note_on_c, 0, 56, 62
1, 73169, Note_on_c, 0, 61, 62
1, 73169, Note_on_c, 0, 64, 71
1, 73172, Note_on_c, 0, 56, 0
1, 73172, Note_on_c, 0, 52, 62
1, 73172, Note_on_c, 0, 40, 70
1, 73244, Note_on_c, 0, 40, 0
1, 73469, Note_on_c, 0, 64, 0
1, 73469, Note_on_c, 0, 56, 0
1, 73469, Note_on_c, 0, 61, 0
1, 73472, Note_on_c, 0, 42, 71
1, 73544, Note_on_c, 0, 42, 0
1, 73768, Note_on_c, 0, 52, 0
1, 73768, Note_on_c, 0, 52, 60
1, 73768, Note_on_c, 0, 61, 70
1, 73771, Note_on_c, 0, 49, 60
1, 73771, Note_on_c, 0, 45, 77
1, 73929, Note_on_c, 0, 44, 71
1, 73941, Note_on_c, 0, 45, 0
1, 74028, Control_c, 0, 64, 127
1, 74028, Control_c, 0, 64, 127
1, 74089, Note_on_c, 0, 61, 0
1, 74089, Note_on_c, 0, 52, 0
1, 74089, Note_on_c, 0, 42, 70
1, 74102, Note_on_c, 0, 44, 0
1, 74228, Control_c, 0, 64, 0
1, 74228, Control_c, 0, 64, 0
1, 74250, Note_on_c, 0, 40, 68
1, 74267, Note_on_c, 0, 42, 0
1, 74321, Note_on_c, 0, 40, 0
1, 74466, Note_on_c, 0, 49, 0
1, 74466, Control_c, 0, 64, 0
1, 74466, Note_on_c, 0, 49, 59
1, 74469, Note_on_c, 0, 52, 60
1, 74469, Note_on_c, 0, 57, 61
1, 74469, Note_on_c, 0, 61, 81
1, 74472, Control_c, 0, 64, 0
1, 74472, Control_c, 0, 64, 0
1, 74472, Note_on_c, 0, 45, 66
1, 74475, Note_on_c, 0, 33, 55
1, 74541, Note_on_c, 0, 45, 0
1, 74713, Control_c, 0, 64, 127
1, 74713, Control_c, 0, 64, 127
1, 74765, Note_on_c, 0, 40, 73
1, 74915, Note_on_c, 0, 40, 0
1, 74990, Note_on_c, 0, 40, 73
1, 75009, Note_on_c, 0, 40, 0
1, 75065, Control_c, 0, 64, 0
1, 75065, Control_c, 0, 64, 0
1, 75065, Note_on_c, 0, 45, 73
1, 75182, Control_c, 0, 64, 127
1, 75182, Control_c, 0, 64, 127
1, 75364, Note_on_c, 0, 52, 0
1, 75364, Note_on_c, 0, 47, 60
1, 75364, Note_on_c, 0, 52, 60
1, 75367, Note_on_c, 0, 33, 0
1, 75367, Note_on_c, 0, 45, 0
1, 75367, Note_on_c, 0, 59, 81
1, 75370, Note_on_c, 0, 32, 48
1, 75370, Note_on_c, 0, 44, 57
1, 75377, Note_on_c, 0, 57, 0
1, 75377, Note_on_c, 0, 49, 0
1, 75377, Note_on_c, 0, 61, 0
1, 75433, Control_c, 0, 64, 0
1, 75433, Control_c, 0, 64, 0
1, 75522, Control_c, 0, 64, 127
1, 75522, Control_c, 0, 64, 127
1, 75673, Control_c, 0, 64, 0
1, 75673, Control_c, 0, 64, 0
1, 75685, Note_on_c, 0, 49, 61
1, 75685, Note_on_c, 0, 57, 61
1, 75685, Note_on_c, 0, 61, 83
1, 75688, Note_on_c, 0, 31, 55
1, 75688, Note_on_c, 0, 43, 64
1, 75698, Note_on_c, 0, 52, 0
1, 75698, Note_on_c, 0, 47, 0
1, 75698, Note_on_c, 0, 59, 0
1, 75701, Note_on_c, 0, 32, 0
1, 75701, Note_on_c, 0, 44, 0
1, 75811, Control_c, 0, 64, 127
1, 75811, Control_c, 0, 64, 127
1, 76006, Note_on_c, 0, 57, 0
1, 76006, Note_on_c, 0, 50, 57
1, 76006, Note_on_c, 0, 57, 57
1, 76009, Note_on_c, 0, 62, 79
1, 76009, Note_on_c, 0, 30, 61
1, 76009, Note_on_c, 0, 42, 70
1, 76013, Control_c, 0, 64, 0
1, 76013, Control_c, 0, 64, 0
1, 76021, Note_on_c, 0, 31, 0
1, 76021, Note_on_c, 0, 43, 0
1, 76028, Note_on_c, 0, 61, 0
1, 76028, Note_on_c, 0, 49, 0
1, 76160, Control_c, 0, 64, 127
1, 76160, Control_c, 0, 64, 127
1, 76380, Note_on_c, 0, 57, 0
1, 76380, Note_on_c, 0, 57, 68
1, 76380, Note_on_c, 0, 52, 63
1, 76383, Note_on_c, 0, 64, 80
1, 76383, Note_on_c, 0, 29, 62
1, 76383, Note_on_c, 0, 41, 71
1, 76396, Note_on_c, 0, 30, 0
1, 76396, Note_on_c, 0, 42, 0
1, 76404, Note_on_c, 0, 50, 0
1, 76404, Note_on_c, 0, 62, 0
1, 76444, Control_c, 0, 64, 0
1, 76444, Control_c, 0, 64, 0
1, 76557, Control_c, 0, 64, 127
1, 76557, Control_c, 0, 64, 127
1, 76585, Note_on_c, 0, 51, 63
1, 76585, Note_on_c, 0, 63, 77
1, 76597, Note_on_c, 0, 52, 0
1, 76597, Note_on_c, 0, 64, 0
1, 76701, Control_c, 0, 64, 0
1, 76701, Control_c, 0, 64, 0
1, 76745, Note_on_c, 0, 49, 63
1, 76745, Note_on_c, 0, 61, 77
1, 76745, Note_on_c, 0, 30, 51
1, 76748, Note_on_c, 0, 42, 60
1, 76758, Note_on_c, 0, 51, 0
1, 76758, Note_on_c, 0, 29, 0
1, 76758, Note_on_c, 0, 63, 0
1, 76761, Note_on_c, 0, 41, 0
1, 76906, Note_on_c, 0, 48, 60
1, 76906, Note_on_c, 0, 60, 74
1, 76920, Note_on_c, 0, 61, 0
1, 76920, Note_on_c, 0, 49, 0
1, 77093, Control_c, 0, 64, 0
1, 77093, Note_on_c, 0, 49, 63
1, 77093, Note_on_c, 0, 61, 77
1, 77096, Control_c, 0, 64, 0
1, 77096, Control_c, 0, 64, 0
1, 77096, Note_on_c, 0, 28, 59
1, 77099, Note_on_c, 0, 40, 68
1, 77104, Note_on_c, 0, 48, 0
1, 77104, Note_on_c, 0, 30, 0
1, 77104, Note_on_c, 0, 60, 0
1, 77107, Note_on_c, 0, 42, 0
1, 77178, Control_c, 0, 64, 127
1, 77178, Control_c, 0, 64, 127
1, 77392, Note_on_c, 0, 57, 0
1, 77392, Note_on_c, 0, 56, 66
1, 77414, Control_c, 0, 64, 0
1, 77414, Control_c, 0, 64, 0
1, 77430, Note_on_c, 0, 56, 0
1, 77617, Note_on_c, 0, 56, 66
1, 77692, Note_on_c, 0, 56, 0
1, 77692, Note_on_c, 0, 61, 77
1, 77790, Control_c, 0, 64, 127
1, 77790, Control_c, 0, 64, 127
1, 77991, Note_on_c, 0, 61, 0
1, 77991, Note_on_c, 0, 49, 0
1, 77991, Note_on_c, 0, 49, 63
1, 77994, Note_on_c, 0, 28, 0
1, 77994, Note_on_c, 0, 57, 63
1, 77994, Note_on_c, 0, 63, 81
1, 77997, Note_on_c, 0, 40, 0
1, 77997, Note_on_c, 0, 30, 65
1, 77997, Note_on_c, 0, 42, 74
1, 78029, Note_on_c, 0, 42, 0
1, 78029, Note_on_c, 0, 30, 0
1, 78040, Control_c, 0, 64, 0
1, 78040, Control_c, 0, 64, 0
1, 78117, Control_c, 0, 64, 0
1, 78117, Control_c, 0, 64, 0
1, 78216, Note_on_c, 0, 30, 65
1, 78216, Note_on_c, 0, 42, 74
1, 78235, Note_on_c, 0, 42, 0
1, 78235, Note_on_c, 0, 30, 0
1, 78291, Note_on_c, 0, 61, 0
1, 78291, Note_on_c, 0, 56, 63
1, 78291, Note_on_c, 0, 61, 81
1, 78294, Note_on_c, 0, 28, 65
1, 78294, Note_on_c, 0, 40, 74
1, 78303, Note_on_c, 0, 63, 0
1, 78303, Note_on_c, 0, 57, 0
1, 78323, Control_c, 0, 64, 0
1, 78323, Control_c, 0, 64, 0
1, 78408, Control_c, 0, 64, 127
1, 78408, Control_c, 0, 64, 127
1, 78590, Note_on_c, 0, 49, 0
1, 78590, Note_on_c, 0, 49, 68
1, 78590, Note_on_c, 0, 57, 68
1, 78593, Note_on_c, 0, 28, 0
1, 78593, Note_on_c, 0, 40, 0
1, 78593, Note_on_c, 0, 63, 82
1, 78596, Note_on_c, 0, 30, 65
1, 78596, Note_on_c, 0, 42, 74
1, 78603, Note_on_c, 0, 61, 0
1, 78603, Note_on_c, 0, 56, 0
1, 78630, Note_on_c, 0, 30, 0
1, 78630, Note_on_c, 0, 42, 0
1, 78636, Control_c, 0, 64, 0
1, 78636, Control_c, 0, 64, 0
1, 78671, Control_c, 0, 64, 0
1, 78671, Control_c, 0, 64, 0
1, 78831, Note_on_c, 0, 30, 65
1, 78831, Note_on_c, 0, 42, 74
1, 78851, Note_on_c, 0, 42, 0
1, 78851, Note_on_c, 0, 30, 0
1, 78911, Note_on_c, 0, 56, 71
1, 78911, Note_on_c, 0, 64, 85
1, 78911, Note_on_c, 0, 32, 65
1, 78914, Note_on_c, 0, 44, 74
1, 78925, Note_on_c, 0, 57, 0
1, 78925, Note_on_c, 0, 63, 0
1, 78936, Control_c, 0, 64, 0
1, 78936, Control_c, 0, 64, 0
1, 79047, Control_c, 0, 64, 127
1, 79047, Control_c, 0, 64, 127
1, 79257, Note_on_c, 0, 49, 0
1, 79257, Note_on_c, 0, 49, 66
1, 79257, Note_on_c, 0, 63, 77
1, 79260, Note_on_c, 0, 32, 0
1, 79260, Note_on_c, 0, 44, 0
1, 79260, Note_on_c, 0, 32, 55
1, 79263, Note_on_c, 0, 44, 64
1, 79272, Note_on_c, 0, 64, 0
1, 79284, Control_c, 0, 64, 0
1, 79284, Control_c, 0, 64, 0
1, 79444, Note_on_c, 0, 48, 66
1, 79459, Note_on_c, 0, 49, 0
1, 79631, Note_on_c, 0, 56, 0
1, 79631, Note_on_c, 0, 49, 49
1, 79631, Note_on_c, 0, 52, 50
1, 79634, Note_on_c, 0, 56, 49
1, 79634, Note_on_c, 0, 61, 70
1, 79634, Control_c, 0, 64, 0
1, 79637, Note_on_c, 0, 32, 0
1, 79637, Note_on_c, 0, 37, 46
1, 79643, Note_on_c, 0, 63, 0
1, 79643, Note_on_c, 0, 48, 0
1, 79931, Note_on_c, 0, 56, 0
1, 79931, Note_on_c, 0, 49, 0
1, 79931, Note_on_c, 0, 52, 0
1, 79934, Note_on_c, 0, 37, 0
1, 79934, Note_on_c, 0, 61, 0
1, 79934, Note_on_c, 0, 68, 77
1, 79937, Note_on_c, 0, 44, 0
1, 79937, Note_on_c, 0, 56, 69
1, 79968, Note_on_c, 0, 56, 0
1, 79968, Note_on_c, 0, 68, 0
1, 80155, Note_on_c, 0, 68, 83
1, 80155, Note_on_c, 0, 56, 74
1, 80230, Note_on_c, 0, 68, 0
1, 80230, Note_on_c, 0, 64, 71
1, 80230, Note_on_c, 0, 73, 83
1, 80233, Note_on_c, 0, 56, 0
1, 80233, Note_on_c, 0, 52, 62
1, 80233, Note_on_c, 0, 61, 74
1, 80305, Note_on_c, 0, 52, 0
1, 80305, Note_on_c, 0, 64, 0
1, 80305, Note_on_c, 0, 73, 0
1, 80308, Note_on_c, 0, 61, 0
1, 80530, Note_on_c, 0, 80, 91
1, 80530, Note_on_c, 0, 68, 72
1, 80530, Note_on_c, 0, 72, 72
1, 80533, Note_on_c, 0, 75, 72
1, 80533, Note_on_c, 0, 63, 77
1, 80533, Note_on_c, 0, 56, 65
1, 80624, Control_c, 0, 64, 127
1, 80624, Control_c, 0, 64, 127
1, 80624, Control_c, 0, 64, 127
1, 80627, Control_c, 0, 64, 127
1, 80712, Control_c, 0, 64, 127
1, 80712, Control_c, 0, 64, 127
1, 80875, Note_on_c, 0, 73, 62
1, 80875, Note_on_c, 0, 76, 74
1, 80875, Note_on_c, 0, 61, 56
1, 80878, Note_on_c, 0, 64, 68
1, 80888, Note_on_c, 0, 75, 0
1, 80888, Note_on_c, 0, 72, 0
1, 80888, Note_on_c, 0, 68, 0
1, 80891, Note_on_c, 0, 63, 0
1, 80956, Note_on_c, 0, 76, 0
1, 80956, Note_on_c, 0, 73, 0
1, 80956, Control_c, 0, 64, 0
1, 80959, Note_on_c, 0, 64, 0
1, 80959, Note_on_c, 0, 61, 0
1, 80959, Control_c, 0, 64, 0
1, 81059, Control_c, 0, 64, 0
1, 81059, Control_c, 0, 64, 0
1, 81151, Control_c, 0, 64, 0
1, 81151, Control_c, 0, 64, 0
1, 81196, Note_on_c, 0, 80, 0
1, 81196, Note_on_c, 0, 80, 61
1, 81196, Note_on_c, 0, 84, 61
1, 81199, Note_on_c, 0, 56, 0
1, 81199, Note_on_c, 0, 92, 84
1, 81199, Note_on_c, 0, 68, 65
1, 81202, Note_on_c, 0, 75, 77
1, 81317, Control_c, 0, 64, 127
1, 81317, Control_c, 0, 64, 127
1, 81317, Control_c, 0, 64, 127
1, 81320, Control_c, 0, 64, 127
1, 81571, Note_on_c, 0, 85, 51
1, 81571, Note_on_c, 0, 88, 63
1, 81571, Note_on_c, 0, 73, 56
1, 81574, Note_on_c, 0, 76, 68
1, 81585, Note_on_c, 0, 75, 0
1, 81585, Note_on_c, 0, 84, 0
1, 81585, Note_on_c, 0, 80, 0
1, 81611, Control_c, 0, 64, 0
1, 81611, Control_c, 0, 64, 0
1, 81664, Note_on_c, 0, 85, 0
1, 81664, Note_on_c, 0, 73, 0
1, 81664, Note_on_c, 0, 88, 0
1, 81667, Note_on_c, 0, 76, 0
1, 81678, Control_c, 0, 64, 127
1, 81678, Control_c, 0, 64, 127
1, 81691, Control_c, 0, 64, 0
1, 81691, Control_c, 0, 64, 0
1, 81945, Note_on_c, 0, 92, 0
1, 81945, Control_c, 0, 64, 0
1, 81945, Control_c, 0, 64, 0
1, 81948, Note_on_c, 0, 68, 0
1, 82245, Control_c, 0, 64, 0
1, 82245, Note_on_c, 0, 60, 84
1, 82245, Note_on_c, 0, 68, 98
1, 82248, Control_c, 0, 64, 0
1, 82248, Control_c, 0, 64, 0
1, 82248, Note_on_c, 0, 56, 84
1, 82251, Note_on_c, 0, 44, 84
1, 82330, Control_c, 0, 64, 127
1, 82330, Control_c, 0, 64, 127
1, 82509, Control_c, 0, 64, 0
1, 82509, Control_c, 0, 64, 0
1, 82590, Note_on_c, 0, 68, 0
1, 82590, Note_on_c, 0, 60, 0
1, 82590, Note_on_c, 0, 63, 92
1, 82593, Note_on_c, 0, 56, 0
1, 82593, Note_on_c, 0, 51, 80
1, 82628, Note_on_c, 0, 51, 0
1, 82628, Note_on_c, 0, 63, 0
1, 82658, Control_c, 0, 64, 127
1, 82658, Control_c, 0, 64, 127
1, 82815, Note_on_c, 0, 63, 95
1, 82815, Note_on_c, 0, 51, 81
1, 82832, Note_on_c, 0, 51, 0
1, 82832, Control_c, 0, 64, 0
1, 82832, Control_c, 0, 64, 0
1, 82890, Note_on_c, 0, 63, 0
1, 82890, Note_on_c, 0, 60, 83
1, 82890, Note_on_c, 0, 68, 96
1, 82893, Note_on_c, 0, 44, 0
1, 82893, Note_on_c, 0, 44, 81
1, 82893, Note_on_c, 0, 56, 81
1, 82942, Control_c, 0, 64, 127
1, 82942, Control_c, 0, 64, 127
1, 83189, Note_on_c, 0, 61, 86
1, 83189, Note_on_c, 0, 64, 86
1, 83189, Note_on_c, 0, 70, 100
1, 83192, Note_on_c, 0, 55, 83
1, 83201, Note_on_c, 0, 56, 0
1, 83201, Note_on_c, 0, 68, 0
1, 83201, Note_on_c, 0, 60, 0
1, 83227, Control_c, 0, 64, 0
1, 83227, Control_c, 0, 64, 0
1, 83292, Control_c, 0, 64, 127
1, 83292, Control_c, 0, 64, 127
1, 83489, Note_on_c, 0, 63, 89
1, 83489, Note_on_c, 0, 69, 89
1, 83489, Note_on_c, 0, 72, 104
1, 83492, Note_on_c, 0, 54, 85
1, 83501, Note_on_c, 0, 64, 0
1, 83501, Note_on_c, 0, 61, 0
1, 83501, Note_on_c, 0, 70, 0
1, 83504, Note_on_c, 0, 55, 0
1, 83504, Control_c, 0, 64, 0
1, 83504, Control_c, 0, 64, 0
1, 83572, Control_c, 0, 64, 127
1, 83572, Control_c, 0, 64, 127
1, 83810, Note_on_c, 0, 61, 92
1, 83810, Note_on_c, 0, 68, 92
1, 83810, Note_on_c, 0, 73, 108
1, 83813, Note_on_c, 0, 52, 87
1, 83824, Note_on_c, 0, 69, 0
1, 83824, Note_on_c, 0, 72, 0
1, 83824, Note_on_c, 0, 63, 0
1, 83827, Note_on_c, 0, 54, 0
1, 83853, Control_c, 0, 64, 0
1, 83853, Control_c, 0, 64, 0
1, 83931, Control_c, 0, 64, 127
1, 83931, Control_c, 0, 64, 127
1, 84172, Note_on_c, 0, 60, 84
1, 84172, Note_on_c, 0, 66, 86
1, 84172, Note_on_c, 0, 76, 103
1, 84175, Note_on_c, 0, 44, 0
1, 84175, Note_on_c, 0, 44, 71
1, 84175, Note_on_c, 0, 51, 80
1, 84189, Note_on_c, 0, 73, 0
1, 84189, Note_on_c, 0, 68, 0
1, 84189, Note_on_c, 0, 61, 0
1, 84192, Note_on_c, 0, 52, 0
1, 84215, Control_c, 0, 64, 0
1, 84215, Control_c, 0, 64, 0
1, 84321, Control_c, 0, 64, 127
1, 84321, Control_c, 0, 64, 127
1, 84388, Note_on_c, 0, 75, 104
1, 84403, Note_on_c, 0, 76, 0
1, 84575, Note_on_c, 0, 66, 0
1, 84575, Note_on_c, 0, 73, 101
1, 84575, Note_on_c, 0, 63, 77
1, 84578, Note_on_c, 0, 66, 77
1, 84578, Note_on_c, 0, 56, 76
1, 84590, Note_on_c, 0, 60, 0
1, 84590, Note_on_c, 0, 51, 0
1, 84590, Note_on_c, 0, 75, 0
1, 84651, Control_c, 0, 64, 0
1, 84651, Control_c, 0, 64, 0
1, 84762, Note_on_c, 0, 72, 98
1, 84778, Note_on_c, 0, 73, 0
1, 84904, Control_c, 0, 64, 127
1, 84904, Control_c, 0, 64, 127
1, 84967, Control_c, 0, 64, 127
1, 84967, Note_on_c, 0, 73, 92
1, 84967, Note_on_c, 0, 64, 83
1, 84970, Note_on_c, 0, 44, 0
1, 84970, Control_c, 0, 64, 127
1, 84970, Control_c, 0, 64, 0
1, 84973, Note_on_c, 0, 49, 77
1, 84980, Note_on_c, 0, 66, 0
1, 84980, Note_on_c, 0, 63, 0
1, 84980, Note_on_c, 0, 72, 0
1, 85019, Control_c, 0, 64, 0
1, 85019, Control_c, 0, 64, 0
1, 85136, Control_c, 0, 64, 127
1, 85136, Control_c, 0, 64, 127
1, 85312, Note_on_c, 0, 73, 0
1, 85312, Note_on_c, 0, 68, 89
1, 85312, Note_on_c, 0, 52, 77
1, 85325, Note_on_c, 0, 56, 0
1, 85346, Control_c, 0, 64, 0
1, 85346, Control_c, 0, 64, 0
1, 85385, Control_c, 0, 64, 127
1, 85385, Control_c, 0, 64, 127
1, 85414, Control_c, 0, 64, 127
1, 85414, Control_c, 0, 64, 127
1, 85473, Note_on_c, 0, 68, 0
1, 85553, Note_on_c, 0, 68, 89
1, 85573, Note_on_c, 0, 68, 0
1, 85631, Note_on_c, 0, 64, 0
1, 85631, Note_on_c, 0, 49, 0
1, 85631, Control_c, 0, 64, 0
1, 85631, Note_on_c, 0, 64, 83
1, 85631, Note_on_c, 0, 73, 99
1, 85631, Control_c, 0, 64, 0
1, 85631, Note_on_c, 0, 49, 74
1, 85631, Note_on_c, 0, 61, 80
1, 85647, Note_on_c, 0, 52, 0
1, 85768, Control_c, 0, 64, 127
1, 85768, Control_c, 0, 64, 127
1, 85979, Note_on_c, 0, 63, 89
1, 85979, Note_on_c, 0, 68, 89
1, 85979, Note_on_c, 0, 75, 107
1, 85982, Note_on_c, 0, 47, 77
1, 85982, Note_on_c, 0, 59, 84
1, 85993, Note_on_c, 0, 49, 0
1, 85993, Note_on_c, 0, 64, 0
1, 85993, Note_on_c, 0, 73, 0
1, 85996, Note_on_c, 0, 61, 0
1, 86026, Control_c, 0, 64, 0
1, 86026, Control_c, 0, 64, 0
1, 86141, Control_c, 0, 64, 127
1, 86141, Control_c, 0, 64, 127
1, 86353, Note_on_c, 0, 68, 0
1, 86353, Note_on_c, 0, 64, 91
1, 86353, Note_on_c, 0, 67, 91
1, 86356, Note_on_c, 0, 73, 91
1, 86356, Note_on_c, 0, 76, 111
1, 86356, Note_on_c, 0, 45, 79
1, 86359, Control_c, 0, 64, 0
1, 86359, Note_on_c, 0, 57, 87
1, 86359, Control_c, 0, 64, 0
1, 86369, Note_on_c, 0, 63, 0
1, 86369, Note_on_c, 0, 75, 0
1, 86369, Note_on_c, 0, 47, 0
1, 86372, Note_on_c, 0, 59, 0
1, 86510, Control_c, 0, 64, 127
1, 86510, Control_c, 0, 64, 127
1, 86760, Control_c, 0, 64, 0
1, 86760, Note_on_c, 0, 66, 93
1, 86760, Note_on_c, 0, 69, 93
1, 86760, Note_on_c, 0, 72, 93
1, 86760, Note_on_c, 0, 74, 93
1, 86760, Note_on_c, 0, 78, 113
1, 86760, Control_c, 0, 64, 0
1, 86760, Note_on_c, 0, 38, 89
1, 86760, Note_on_c, 0, 50, 98
1, 86784, Note_on_c, 0, 73, 0
1, 86784, Note_on_c, 0, 64, 0
1, 86784, Note_on_c, 0, 67, 0
1, 86787, Note_on_c, 0, 57, 0
1, 86787, Note_on_c, 0, 45, 0
1, 86787, Note_on_c, 0, 76, 0
1, 86949, Control_c, 0, 64, 127
1, 86949, Control_c, 0, 64, 127
1, 87323, Note_on_c, 0, 74, 0
1, 87323, Note_on_c, 0, 67, 93
1, 87323, Note_on_c, 0, 79, 116
1, 87326, Note_on_c, 0, 71, 93
1, 87326, Note_on_c, 0, 74, 93
1, 87326, Note_on_c, 0, 31, 93
1, 87329, Note_on_c, 0, 43, 102
1, 87343, Note_on_c, 0, 69, 0
1, 87343, Note_on_c, 0, 66, 0
1, 87343, Control_c, 0, 64, 0
1, 87346, Note_on_c, 0, 72, 0
1, 87346, Note_on_c, 0, 78, 0
1, 87346, Control_c, 0, 64, 0
1, 87349, Note_on_c, 0, 50, 0
1, 87349, Note_on_c, 0, 38, 0
1, 87465, Control_c, 0, 64, 127
1, 87465, Control_c, 0, 64, 127
1, 87817, Control_c, 0, 64, 0
1, 87817, Control_c, 0, 64, 0
1, 87822, Note_on_c, 0, 66, 93
1, 87822, Note_on_c, 0, 78, 106
1, 87837, Note_on_c, 0, 79, 0
1, 87837, Note_on_c, 0, 67, 0
1, 87921, Control_c, 0, 64, 127
1, 87921, Control_c, 0, 64, 127
1, 88197, Note_on_c, 0, 71, 0
1, 88197, Note_on_c, 0, 74, 0
1, 88197, Control_c, 0, 64, 127
1, 88200, Note_on_c, 0, 64, 93
1, 88200, Note_on_c, 0, 76, 105
1, 88200, Note_on_c, 0, 74, 102
1, 88203, Note_on_c, 0, 31, 0
1, 88203, Control_c, 0, 64, 127
1, 88203, Control_c, 0, 64, 0
1, 88206, Note_on_c, 0, 43, 0
1, 88206, Note_on_c, 0, 35, 93
1, 88206, Note_on_c, 0, 47, 105
1, 88214, Note_on_c, 0, 66, 0
1, 88214, Note_on_c, 0, 78, 0
1, 88290, Control_c, 0, 64, 0
1, 88290, Control_c, 0, 64, 0
1, 88430, Control_c, 0, 64, 127
1, 88430, Control_c, 0, 64, 127
1, 88629, Note_on_c, 0, 73, 93
1, 88629, Note_on_c, 0, 34, 89
1, 88629, Note_on_c, 0, 46, 99
1, 88643, Note_on_c, 0, 74, 0
1, 88643, Note_on_c, 0, 35, 0
1, 88643, Note_on_c, 0, 47, 0
1, 88679, Control_c, 0, 64, 0
1, 88679, Control_c, 0, 64, 0
1, 88794, Control_c, 0, 64, 127
1, 88794, Control_c, 0, 64, 127
1, 88994, Control_c, 0, 64, 0
1, 88994, Control_c, 0, 64, 0
1, 89003, Note_on_c, 0, 72, 91
1, 89003, Note_on_c, 0, 66, 91
1, 89003, Note_on_c, 0, 78, 103
1, 89006, Note_on_c, 0, 33, 84
1, 89006, Note_on_c, 0, 45, 94
1, 89020, Note_on_c, 0, 76, 0
1, 89020, Note_on_c, 0, 64, 0
1, 89020, Note_on_c, 0, 73, 0
1, 89023, Note_on_c, 0, 46, 0
1, 89023, Note_on_c, 0, 34, 0
1, 89110, Control_c, 0, 64, 127
1, 89110, Control_c, 0, 64, 127
1, 89421, Control_c, 0, 64, 0
1, 89421, Control_c, 0, 64, 0
1, 89435, Note_on_c, 0, 64, 90
1, 89435, Note_on_c, 0, 76, 102
1, 89450, Note_on_c, 0, 78, 0
1, 89450, Note_on_c, 0, 66, 0
1, 89535, Control_c, 0, 64, 127
1, 89535, Control_c, 0, 64, 127
1, 89810, Note_on_c, 0, 72, 0
1, 89810, Note_on_c, 0, 72, 91
1, 89810, Note_on_c, 0, 62, 84
1, 89813, Note_on_c, 0, 74, 96
1, 89827, Note_on_c, 0, 64, 0
1, 89827, Note_on_c, 0, 76, 0
1, 89827, Control_c, 0, 64, 0
1, 89827, Control_c, 0, 64, 0
1, 89958, Control_c, 0, 64, 127
1, 89958, Control_c, 0, 64, 127
1, 90242, Note_on_c, 0, 71, 91
1, 90242, Note_on_c, 0, 32, 79
1, 90242, Note_on_c, 0, 44, 91
1, 90256, Note_on_c, 0, 72, 0
1, 90256, Note_on_c, 0, 33, 0
1, 90256, Note_on_c, 0, 45, 0
1, 90275, Control_c, 0, 64, 0
1, 90275, Control_c, 0, 64, 0
1, 90367, Control_c, 0, 64, 127
1, 90367, Control_c, 0, 64, 127
1, 90613, Control_c, 0, 64, 0
1, 90613, Control_c, 0, 64, 0
1, 90616, Note_on_c, 0, 70, 74
1, 90616, Note_on_c, 0, 64, 74
1, 90616, Note_on_c, 0, 76, 94
1, 90619, Note_on_c, 0, 31, 66
1, 90619, Note_on_c, 0, 43, 85
1, 90633, Note_on_c, 0, 74, 0
1, 90633, Note_on_c, 0, 62, 0
1, 90633, Note_on_c, 0, 71, 0
1, 90636, Note_on_c, 0, 32, 0
1, 90636, Note_on_c, 0, 44, 0
1, 90768, Control_c, 0, 64, 127
1, 90768, Control_c, 0, 64, 127
1, 91048, Note_on_c, 0, 71, 73
1, 91048, Note_on_c, 0, 62, 73
1, 91048, Note_on_c, 0, 74, 92
1, 91051, Note_on_c, 0, 32, 60
1, 91051, Note_on_c, 0, 44, 79
1, 91062, Note_on_c, 0, 64, 0
1, 91062, Note_on_c, 0, 76, 0
1, 91062, Note_on_c, 0, 70, 0
1, 91065, Note_on_c, 0, 31, 0
1, 91065, Note_on_c, 0, 43, 0
1, 91083, Control_c, 0, 64, 0
1, 91083, Control_c, 0, 64, 0
1, 91166, Control_c, 0, 64, 127
1, 91166, Control_c, 0, 64, 127
1, 91394, Control_c, 0, 64, 0
1, 91394, Note_on_c, 0, 61, 79
1, 91394, Note_on_c, 0, 69, 79
1, 91397, Note_on_c, 0, 73, 91
1, 91397, Control_c, 0, 64, 0
1, 91397, Control_c, 0, 64, 0
1, 91400, Note_on_c, 0, 33, 64
1, 91400, Note_on_c, 0, 45, 76
1, 91403, Control_c, 0, 64, 127
1, 91403, Control_c, 0, 64, 127
1, 91406, Note_on_c, 0, 62, 0
1, 91406, Note_on_c, 0, 74, 0
1, 91406, Note_on_c, 0, 71, 0
1, 91409, Note_on_c, 0, 32, 0
1, 91409, Note_on_c, 0, 44, 0
1, 91442, Control_c, 0, 64, 0
1, 91442, Control_c, 0, 64, 0
1, 91538, Control_c, 0, 64, 127
1, 91538, Control_c, 0, 64, 127
1, 91715, Note_on_c, 0, 62, 77
1, 91715, Note_on_c, 0, 66, 77
1, 91715, Note_on_c, 0, 71, 90
1, 91718, Note_on_c, 0, 45, 0
1, 91718, Note_on_c, 0, 35, 61
1, 91718, Note_on_c, 0, 47, 70
1, 91727, Note_on_c, 0, 69, 0
1, 91727, Note_on_c, 0, 73, 0
1, 91727, Note_on_c, 0, 61, 0
1, 91730, Note_on_c, 0, 33, 0
1, 91739, Control_c, 0, 64, 0
1, 91739, Control_c, 0, 64, 0
1, 91819, Note_on_c, 0, 47, 0
1, 91819, Note_on_c, 0, 47, 71
1, 91922, Note_on_c, 0, 47, 0
1, 91922, Note_on_c, 0, 47, 71
1, 92027, Note_on_c, 0, 66, 0
1, 92027, Note_on_c, 0, 61, 77
1, 92027, Note_on_c, 0, 66, 77
1, 92030, Note_on_c, 0, 47, 0
1, 92030, Note_on_c, 0, 69, 88
1, 92030, Note_on_c, 0, 49, 72
1, 92033, Note_on_c, 0, 37, 65
1, 92039, Note_on_c, 0, 62, 0
1, 92039, Note_on_c, 0, 35, 0
1, 92039, Note_on_c, 0, 71, 0
1, 92339, Note_on_c, 0, 59, 75
1, 92339, Note_on_c, 0, 65, 75
1, 92339, Note_on_c, 0, 68, 87
1, 92342, Note_on_c, 0, 37, 0
1, 92342, Note_on_c, 0, 49, 0
1, 92342, Note_on_c, 0, 49, 72
1, 92345, Note_on_c, 0, 37, 69
1, 92351, Note_on_c, 0, 69, 0
1, 92351, Note_on_c, 0, 66, 0
1, 92351, Note_on_c, 0, 61, 0
1, 92443, Note_on_c, 0, 49, 0
1, 92443, Note_on_c, 0, 49, 73
1, 92546, Note_on_c, 0, 49, 0
1, 92546, Note_on_c, 0, 49, 72
1, 92651, Note_on_c, 0, 57, 74
1, 92651, Note_on_c, 0, 66, 85
1, 92651, Note_on_c, 0, 42, 73
1, 92663, Note_on_c, 0, 65, 0
1, 92663, Note_on_c, 0, 68, 0
1, 92663, Note_on_c, 0, 59, 0
1, 92666, Note_on_c, 0, 37, 0
1, 92963, Note_on_c, 0, 57, 0
1, 92963, Note_on_c, 0, 58, 73
1, 92963, Note_on_c, 0, 64, 83
1, 92966, Note_on_c, 0, 49, 0
1, 92966, Note_on_c, 0, 49, 72
1, 92966, Note_on_c, 0, 43, 75
1, 92975, Note_on_c, 0, 42, 0
1, 92975, Note_on_c, 0, 66, 0
1, 93070, Note_on_c, 0, 49, 0
1, 93070, Note_on_c, 0, 49, 71
1, 93176, Note_on_c, 0, 49, 0
1, 93176, Note_on_c, 0, 49, 71
1, 93283, Note_on_c, 0, 49, 0
1, 93283, Note_on_c, 0, 56, 68
1, 93283, Note_on_c, 0, 49, 70
1, 93286, Note_on_c, 0, 44, 76
1, 93296, Note_on_c, 0, 58, 0
1, 93296, Note_on_c, 0, 43, 0
1, 93391, Note_on_c, 0, 49, 0
1, 93391, Note_on_c, 0, 49, 70
1, 93497, Note_on_c, 0, 49, 0
1, 93497, Note_on_c, 0, 49, 70
1, 93604, Note_on_c, 0, 49, 0
1, 93604, Note_on_c, 0, 54, 61
1, 93604, Note_on_c, 0, 63, 70
1, 93607, Note_on_c, 0, 44, 0
1, 93607, Note_on_c, 0, 49, 69
1, 93607, Note_on_c, 0, 44, 69
1, 93618, Note_on_c, 0, 56, 0
1, 93618, Note_on_c, 0, 64, 0
1, 93720, Note_on_c, 0, 49, 0
1, 93720, Note_on_c, 0, 49, 69
1, 93835, Note_on_c, 0, 49, 0
1, 93835, Note_on_c, 0, 48, 68
1, 93950, Note_on_c, 0, 63, 0
1, 93950, Note_on_c, 0, 54, 0
1, 93950, Control_c, 0, 64, 0
1, 93953, Note_on_c, 0, 61, 77
1, 93953, Note_on_c, 0, 52, 68
1, 93953, Control_c, 0, 64, 0
1, 93956, Note_on_c, 0, 44, 0
1, 93956, Note_on_c, 0, 48, 0
1, 93956, Control_c, 0, 64, 0
1, 93959, Note_on_c, 0, 37, 63
1, 94025, Note_on_c, 0, 37, 0
1, 94250, Note_on_c, 0, 32, 65
1, 94287, Note_on_c, 0, 32, 0
1, 94474, Note_on_c, 0, 32, 66
1, 94493, Note_on_c, 0, 32, 0
1, 94549, Note_on_c, 0, 56, 76
1, 94549, Note_on_c, 0, 37, 66
1, 94561, Note_on_c, 0, 61, 0
1, 94624, Note_on_c, 0, 37, 0
1, 94849, Note_on_c, 0, 39, 68
1, 94923, Note_on_c, 0, 39, 0
1, 95148, Note_on_c, 0, 52, 74
1, 95148, Note_on_c, 0, 40, 70
1, 95160, Note_on_c, 0, 56, 0
1, 95223, Note_on_c, 0, 40, 0
1, 95448, Note_on_c, 0, 42, 71
1, 95522, Note_on_c, 0, 42, 0
1, 95747, Note_on_c, 0, 49, 73
1, 95747, Note_on_c, 0, 45, 77
1, 95760, Note_on_c, 0, 52, 0
1, 95908, Note_on_c, 0, 44, 71
1, 95920, Note_on_c, 0, 45, 0
1, 96068, Note_on_c, 0, 42, 70
1, 96081, Note_on_c, 0, 44, 0
1, 96228, Note_on_c, 0, 40, 68
1, 96245, Note_on_c, 0, 42, 0
1, 96299, Note_on_c, 0, 40, 0
1, 96444, Note_on_c, 0, 52, 0
1, 96444, Control_c, 0, 64, 0
1, 96444, Note_on_c, 0, 49, 59
1, 96447, Note_on_c, 0, 52, 60
1, 96447, Note_on_c, 0, 57, 61
1, 96447, Note_on_c, 0, 61, 81
1, 96450, Control_c, 0, 64, 0
1, 96450, Control_c, 0, 64, 0
1, 96450, Note_on_c, 0, 45, 66
1, 96453, Note_on_c, 0, 33, 55
1, 96456, Note_on_c, 0, 49, 0
1, 96519, Note_on_c, 0, 45, 0
1, 96691, Control_c, 0, 64, 127
1, 96691, Control_c, 0, 64, 127
1, 96744, Note_on_c, 0, 40, 66
1, 96781, Note_on_c, 0, 40, 0
1, 96969, Note_on_c, 0, 40, 66
1, 97044, Note_on_c, 0, 40, 0
1, 97044, Control_c, 0, 64, 0
1, 97044, Control_c, 0, 64, 0
1, 97047, Note_on_c, 0, 45, 66
1, 97161, Control_c, 0, 64, 127
1, 97161, Control_c, 0, 64, 127
1, 97343, Note_on_c, 0, 52, 0
1, 97343, Note_on_c, 0, 47, 66
1, 97343, Note_on_c, 0, 52, 66
1, 97346, Note_on_c, 0, 33, 0
1, 97346, Note_on_c, 0, 45, 0
1, 97346, Note_on_c, 0, 59, 81
1, 97349, Note_on_c, 0, 32, 48
1, 97349, Note_on_c, 0, 44, 57
1, 97356, Note_on_c, 0, 61, 0
1, 97356, Note_on_c, 0, 49, 0
1, 97356, Note_on_c, 0, 57, 0
1, 97412, Control_c, 0, 64, 0
1, 97412, Control_c, 0, 64, 0
1, 97500, Control_c, 0, 64, 127
1, 97500, Control_c, 0, 64, 127
1, 97651, Control_c, 0, 64, 0
1, 97651, Control_c, 0, 64, 0
1, 97664, Note_on_c, 0, 49, 67
1, 97664, Note_on_c, 0, 57, 67
1, 97664, Note_on_c, 0, 61, 83
1, 97667, Note_on_c, 0, 31, 55
1, 97667, Note_on_c, 0, 43, 64
1, 97676, Note_on_c, 0, 52, 0
1, 97676, Note_on_c, 0, 47, 0
1, 97676, Note_on_c, 0, 59, 0
1, 97679, Note_on_c, 0, 32, 0
1, 97679, Note_on_c, 0, 44, 0
1, 97790, Control_c, 0, 64, 127
1, 97790, Control_c, 0, 64, 127
1, 97985, Note_on_c, 0, 57, 0
1, 97985, Note_on_c, 0, 50, 63
1, 97985, Note_on_c, 0, 57, 63
1, 97988, Note_on_c, 0, 62, 79
1, 97988, Note_on_c, 0, 30, 61
1, 97988, Note_on_c, 0, 42, 70
1, 97991, Control_c, 0, 64, 0
1, 97991, Control_c, 0, 64, 0
1, 97997, Note_on_c, 0, 31, 0
1, 97997, Note_on_c, 0, 61, 0
1, 97997, Note_on_c, 0, 49, 0
1, 98000, Note_on_c, 0, 43, 0
1, 98117, Control_c, 0, 64, 127
1, 98117, Control_c, 0, 64, 127
1, 98306, Note_on_c, 0, 57, 0
1, 98306, Note_on_c, 0, 57, 63
1, 98306, Note_on_c, 0, 52, 63
1, 98309, Note_on_c, 0, 64, 80
1, 98309, Note_on_c, 0, 29, 62
1, 98309, Note_on_c, 0, 41, 78
1, 98320, Note_on_c, 0, 50, 0
1, 98320, Note_on_c, 0, 62, 0
1, 98320, Note_on_c, 0, 30, 0
1, 98323, Note_on_c, 0, 42, 0
1, 98364, Control_c, 0, 64, 0
1, 98364, Control_c, 0, 64, 0
1, 98467, Control_c, 0, 64, 127
1, 98467, Control_c, 0, 64, 127
1, 98493, Note_on_c, 0, 51, 63
1, 98493, Note_on_c, 0, 63, 77
1, 98506, Note_on_c, 0, 52, 0
1, 98506, Note_on_c, 0, 64, 0
1, 98610, Control_c, 0, 64, 0
1, 98610, Control_c, 0, 64, 0
1, 98653, Note_on_c, 0, 49, 63
1, 98653, Note_on_c, 0, 61, 77
1, 98653, Note_on_c, 0, 30, 51
1, 98656, Note_on_c, 0, 42, 60
1, 98666, Note_on_c, 0, 51, 0
1, 98666, Note_on_c, 0, 29, 0
1, 98666, Note_on_c, 0, 63, 0
1, 98669, Note_on_c, 0, 41, 0
1, 98814, Note_on_c, 0, 48, 59
1, 98814, Note_on_c, 0, 60, 73
1, 98829, Note_on_c, 0, 61, 0
1, 98829, Note_on_c, 0, 49, 0
1, 99001, Control_c, 0, 64, 0
1, 99001, Note_on_c, 0, 49, 63
1, 99001, Note_on_c, 0, 61, 77
1, 99004, Control_c, 0, 64, 0
1, 99004, Control_c, 0, 64, 0
1, 99004, Note_on_c, 0, 28, 59
1, 99007, Note_on_c, 0, 40, 68
1, 99013, Note_on_c, 0, 48, 0
1, 99013, Note_on_c, 0, 30, 0
1, 99013, Note_on_c, 0, 60, 0
1, 99016, Note_on_c, 0, 42, 0
1, 99087, Control_c, 0, 64, 127
1, 99087, Control_c, 0, 64, 127
1, 99301, Note_on_c, 0, 57, 0
1, 99301, Note_on_c, 0, 56, 66
1, 99322, Control_c, 0, 64, 0
1, 99322, Control_c, 0, 64, 0
1, 99338, Note_on_c, 0, 56, 0
1, 99525, Note_on_c, 0, 56, 66
1, 99600, Note_on_c, 0, 56, 0
1, 99600, Note_on_c, 0, 61, 66
1, 99698, Control_c, 0, 64, 127
1, 99698, Control_c, 0, 64, 127
1, 99900, Note_on_c, 0, 61, 0
1, 99900, Note_on_c, 0, 49, 0
1, 99900, Note_on_c, 0, 49, 63
1, 99903, Note_on_c, 0, 28, 0
1, 99903, Note_on_c, 0, 57, 63
1, 99903, Note_on_c, 0, 63, 81
1, 99906, Note_on_c, 0, 40, 0
1, 99906, Note_on_c, 0, 30, 65
1, 99906, Note_on_c, 0, 42, 74
1, 99937, Note_on_c, 0, 42, 0
1, 99937, Note_on_c, 0, 30, 0
1, 99949, Control_c, 0, 64, 0
1, 99949, Control_c, 0, 64, 0
1, 100025, Control_c, 0, 64, 0
1, 100025, Control_c, 0, 64, 0
1, 100124, Note_on_c, 0, 30, 65
1, 100124, Note_on_c, 0, 42, 74
1, 100143, Note_on_c, 0, 42, 0
1, 100143, Note_on_c, 0, 30, 0
1, 100199, Note_on_c, 0, 61, 0
1, 100199, Note_on_c, 0, 56, 63
1, 100199, Note_on_c, 0, 61, 81
1, 100202, Note_on_c, 0, 28, 65
1, 100202, Note_on_c, 0, 40, 74
1, 100211, Note_on_c, 0, 63, 0
1, 100211, Note_on_c, 0, 57, 0
1, 100231, Control_c, 0, 64, 0
1, 100231, Control_c, 0, 64, 0
1, 100317, Control_c, 0, 64, 127
1, 100317, Control_c, 0, 64, 127
1, 100499, Note_on_c, 0, 49, 0
1, 100499, Note_on_c, 0, 49, 68
1, 100499, Note_on_c, 0, 57, 68
1, 100502, Note_on_c, 0, 28, 0
1, 100502, Note_on_c, 0, 40, 0
1, 100502, Note_on_c, 0, 63, 82
1, 100505, Note_on_c, 0, 30, 65
1, 100505, Note_on_c, 0, 42, 74
1, 100511, Note_on_c, 0, 61, 0
1, 100511, Note_on_c, 0, 56, 0
1, 100539, Note_on_c, 0, 30, 0
1, 100539, Note_on_c, 0, 42, 0
1, 100544, Control_c, 0, 64, 0
1, 100544, Control_c, 0, 64, 0
1, 100579, Control_c, 0, 64, 0
1, 100579, Control_c, 0, 64, 0
1, 100739, Note_on_c, 0, 30, 65
1, 100739, Note_on_c, 0, 42, 74
1, 100759, Note_on_c, 0, 42, 0
1, 100759, Note_on_c, 0, 30, 0
1, 100820, Note_on_c, 0, 56, 71
1, 100820, Note_on_c, 0, 64, 85
1, 100820, Note_on_c, 0, 32, 65
1, 100823, Note_on_c, 0, 44, 74
1, 100833, Note_on_c, 0, 57, 0
1, 100833, Note_on_c, 0, 63, 0
1, 100845, Control_c, 0, 64, 0
1, 100845, Control_c, 0, 64, 0
1, 100955, Control_c, 0, 64, 127
1, 100955, Control_c, 0, 64, 127
1, 101165, Note_on_c, 0, 49, 0
1, 101165, Note_on_c, 0, 49, 66
1, 101165, Note_on_c, 0, 63, 77
1, 101168, Note_on_c, 0, 32, 0
1, 101168, Note_on_c, 0, 44, 0
1, 101168, Note_on_c, 0, 32, 55
1, 101171, Note_on_c, 0, 44, 64
1, 101180, Note_on_c, 0, 64, 0
1, 101192, Control_c, 0, 64, 0
1, 101192, Control_c, 0, 64, 0
1, 101352, Note_on_c, 0, 48, 66
1, 101367, Note_on_c, 0, 49, 0
1, 101540, Note_on_c, 0, 56, 0
1, 101540, Note_on_c, 0, 49, 49
1, 101540, Note_on_c, 0, 52, 50
1, 101543, Note_on_c, 0, 56, 49
1, 101543, Note_on_c, 0, 61, 70
1, 101543, Control_c, 0, 64, 0
1, 101546, Note_on_c, 0, 32, 0
1, 101546, Note_on_c, 0, 37, 46
1, 101551, Note_on_c, 0, 63, 0
1, 101551, Note_on_c, 0, 48, 0
1, 101839, Note_on_c, 0, 56, 0
1, 101839, Note_on_c, 0, 49, 0
1, 101839, Note_on_c, 0, 52, 0
1, 101842, Note_on_c, 0, 37, 0
1, 101842, Note_on_c, 0, 61, 0
1, 101842, Note_on_c, 0, 68, 77
1, 101845, Note_on_c, 0, 44, 0
1, 101845, Note_on_c, 0, 56, 69
1, 101877, Note_on_c, 0, 56, 0
1, 101877, Note_on_c, 0, 68, 0
1, 102064, Note_on_c, 0, 68, 83
1, 102064, Note_on_c, 0, 56, 74
1, 102139, Note_on_c, 0, 68, 0
1, 102139, Note_on_c, 0, 64, 71
1, 102139, Note_on_c, 0, 73, 83
1, 102142, Note_on_c, 0, 56, 0
1, 102142, Note_on_c, 0, 52, 62
1, 102142, Note_on_c, 0, 61, 74
1, 102214, Note_on_c, 0, 52, 0
1, 102214, Note_on_c, 0, 64, 0
1, 102214, Note_on_c, 0, 73, 0
1, 102217, Note_on_c, 0, 61, 0
1, 102438, Note_on_c, 0, 80, 91
1, 102438, Note_on_c, 0, 68, 72
1, 102438, Note_on_c, 0, 72, 72
1, 102441, Note_on_c, 0, 75, 72
1, 102441, Note_on_c, 0, 63, 77
1, 102441, Note_on_c, 0, 56, 65
1, 102533, Control_c, 0, 64, 127
1, 102533, Control_c, 0, 64, 127
1, 102620, Control_c, 0, 64, 127
1, 102620, Control_c, 0, 64, 127
1, 102784, Note_on_c, 0, 73, 57
1, 102784, Note_on_c, 0, 76, 69
1, 102784, Note_on_c, 0, 61, 56
1, 102787, Note_on_c, 0, 64, 68
1, 102796, Note_on_c, 0, 75, 0
1, 102796, Note_on_c, 0, 72, 0
1, 102796, Note_on_c, 0, 68, 0
1, 102799, Note_on_c, 0, 63, 0
1, 102864, Note_on_c, 0, 73, 0
1, 102864, Note_on_c, 0, 61, 0
1, 102864, Note_on_c, 0, 76, 0
1, 102867, Note_on_c, 0, 64, 0
1, 102898, Control_c, 0, 64, 0
1, 102898, Control_c, 0, 64, 0
1, 103059, Control_c, 0, 64, 0
1, 103059, Control_c, 0, 64, 0
1, 103105, Note_on_c, 0, 80, 0
1, 103105, Note_on_c, 0, 80, 61
1, 103105, Note_on_c, 0, 84, 61
1, 103108, Note_on_c, 0, 56, 0
1, 103108, Note_on_c, 0, 92, 84
1, 103108, Note_on_c, 0, 68, 65
1, 103111, Note_on_c, 0, 75, 77
1, 103216, Control_c, 0, 64, 127
1, 103216, Control_c, 0, 64, 127
1, 103450, Note_on_c, 0, 85, 51
1, 103450, Note_on_c, 0, 88, 63
1, 103450, Note_on_c, 0, 73, 56
1, 103453, Note_on_c, 0, 76, 68
1, 103462, Note_on_c, 0, 75, 0
1, 103462, Note_on_c, 0, 84, 0
1, 103462, Note_on_c, 0, 80, 0
1, 103482, Control_c, 0, 64, 0
1, 103482, Control_c, 0, 64, 0
1, 103525, Note_on_c, 0, 85, 0
1, 103525, Note_on_c, 0, 73, 0
1, 103525, Note_on_c, 0, 88, 0
1, 103528, Note_on_c, 0, 76, 0
1, 103536, Control_c, 0, 64, 127
1, 103536, Control_c, 0, 64, 127
1, 103750, Note_on_c, 0, 92, 0
1, 103750, Control_c, 0, 64, 0
1, 103750, Control_c, 0, 64, 0
1, 103753, Note_on_c, 0, 68, 0
1, 104049, Control_c, 0, 64, 0
1, 104049, Note_on_c, 0, 60, 84
1, 104049, Note_on_c, 0, 68, 98
1, 104052, Control_c, 0, 64, 0
1, 104052, Control_c, 0, 64, 0
1, 104052, Note_on_c, 0, 56, 84
1, 104055, Note_on_c, 0, 44, 84
1, 104134, Control_c, 0, 64, 127
1, 104134, Control_c, 0, 64, 127
1, 104314, Control_c, 0, 64, 0
1, 104314, Control_c, 0, 64, 0
1, 104395, Note_on_c, 0, 68, 0
1, 104395, Note_on_c, 0, 60, 0
1, 104395, Note_on_c, 0, 63, 92
1, 104398, Note_on_c, 0, 56, 0
1, 104398, Note_on_c, 0, 51, 80
1, 104432, Note_on_c, 0, 51, 0
1, 104432, Note_on_c, 0, 63, 0
1, 104463, Control_c, 0, 64, 127
1, 104463, Control_c, 0, 64, 127
1, 104620, Note_on_c, 0, 63, 95
1, 104620, Note_on_c, 0, 51, 81
1, 104637, Note_on_c, 0, 51, 0
1, 104637, Control_c, 0, 64, 0
1, 104637, Control_c, 0, 64, 0
1, 104694, Note_on_c, 0, 63, 0
1, 104694, Note_on_c, 0, 60, 83
1, 104694, Note_on_c, 0, 68, 96
1, 104697, Note_on_c, 0, 44, 0
1, 104697, Note_on_c, 0, 44, 81
1, 104697, Note_on_c, 0, 56, 81
1, 104747, Control_c, 0, 64, 127
1, 104747, Control_c, 0, 64, 127
1, 104994, Note_on_c, 0, 61, 86
1, 104994, Note_on_c, 0, 64, 86
1, 104994, Note_on_c, 0, 70, 100
1, 104997, Note_on_c, 0, 55, 83
1, 105006, Note_on_c, 0, 56, 0
1, 105006, Note_on_c, 0, 68, 0
1, 105006, Note_on_c, 0, 60, 0
1, 105032, Control_c, 0, 64, 0
1, 105032, Control_c, 0, 64, 0
1, 105096, Control_c, 0, 64, 127
1, 105096, Control_c, 0, 64, 127
1, 105293, Note_on_c, 0, 63, 89
1, 105293, Note_on_c, 0, 69, 89
1, 105293, Note_on_c, 0, 72, 104
1, 105296, Note_on_c, 0, 54, 85
1, 105306, Note_on_c, 0, 64, 0
1, 105306, Note_on_c, 0, 61, 0
1, 105306, Note_on_c, 0, 70, 0
1, 105309, Note_on_c, 0, 55, 0
1, 105309, Control_c, 0, 64, 0
1, 105309, Control_c, 0, 64, 0
1, 105377, Control_c, 0, 64, 127
1, 105377, Control_c, 0, 64, 127
1, 105614, Note_on_c, 0, 61, 92
1, 105614, Note_on_c, 0, 68, 92
1, 105614, Note_on_c, 0, 73, 108
1, 105617, Note_on_c, 0, 52, 87
1, 105629, Note_on_c, 0, 69, 0
1, 105629, Note_on_c, 0, 72, 0
1, 105629, Note_on_c, 0, 63, 0
1, 105632, Note_on_c, 0, 54, 0
1, 105658, Control_c, 0, 64, 0
1, 105658, Control_c, 0, 64, 0
1, 105735, Control_c, 0, 64, 127
1, 105735, Control_c, 0, 64, 127
1, 105977, Note_on_c, 0, 60, 84
1, 105977, Note_on_c, 0, 66, 86
1, 105977, Note_on_c, 0, 76, 103
1, 105980, Note_on_c, 0, 44, 0
1, 105980, Note_on_c, 0, 44, 71
1, 105980, Note_on_c, 0, 51, 80
1, 105994, Note_on_c, 0, 73, 0
1, 105994, Note_on_c, 0, 68, 0
1, 105994, Note_on_c, 0, 61, 0
1, 105997, Note_on_c, 0, 52, 0
1, 106020, Control_c, 0, 64, 0
1, 106020, Control_c, 0, 64, 0
1, 106126, Control_c, 0, 64, 127
1, 106126, Control_c, 0, 64, 127
1, 106193, Note_on_c, 0, 75, 104
1, 106207, Note_on_c, 0, 76, 0
1, 106380, Note_on_c, 0, 66, 0
1, 106380, Note_on_c, 0, 73, 101
1, 106380, Note_on_c, 0, 63, 77
1, 106383, Note_on_c, 0, 66, 77
1, 106383, Note_on_c, 0, 56, 76
1, 106395, Note_on_c, 0, 60, 0
1, 106395, Note_on_c, 0, 51, 0
1, 106395, Note_on_c, 0, 75, 0
1, 106456, Control_c, 0, 64, 0
1, 106456, Control_c, 0, 64, 0
1, 106567, Note_on_c, 0, 72, 98
1, 106583, Note_on_c, 0, 73, 0
1, 106709, Control_c, 0, 64, 127
1, 106709, Control_c, 0, 64, 127
1, 106771, Control_c, 0, 64, 127
1, 106771, Note_on_c, 0, 73, 92
1, 106771, Note_on_c, 0, 64, 83
1, 106774, Note_on_c, 0, 44, 0
1, 106774, Control_c, 0, 64, 127
1, 106774, Control_c, 0, 64, 0
1, 106777, Note_on_c, 0, 49, 77
1, 106785, Note_on_c, 0, 66, 0
1, 106785, Note_on_c, 0, 63, 0
1, 106785, Note_on_c, 0, 72, 0
1, 106824, Control_c, 0, 64, 0
1, 106824, Control_c, 0, 64, 0
1, 106941, Control_c, 0, 64, 127
1, 106941, Control_c, 0, 64, 127
1, 107117, Note_on_c, 0, 73, 0
1, 107117, Note_on_c, 0, 68, 89
1, 107117, Note_on_c, 0, 52, 77
1, 107129, Note_on_c, 0, 56, 0
1, 107150, Control_c, 0, 64, 0
1, 107150, Control_c, 0, 64, 0
1, 107190, Control_c, 0, 64, 127
1, 107190, Control_c, 0, 64, 127
1, 107219, Control_c, 0, 64, 127
1, 107219, Control_c, 0, 64, 127
1, 107277, Note_on_c, 0, 68, 0
1, 107358, Note_on_c, 0, 68, 89
1, 107378, Note_on_c, 0, 68, 0
1, 107435, Control_c, 0, 64, 0
1, 107435, Control_c, 0, 64, 0
1, 107438, Note_on_c, 0, 64, 0
1, 107438, Note_on_c, 0, 64, 83
1, 107438, Note_on_c, 0, 73, 99
1, 107441, Note_on_c, 0, 49, 0
1, 107441, Note_on_c, 0, 49, 74
1, 107441, Note_on_c, 0, 61, 80
1, 107451, Note_on_c, 0, 52, 0
1, 107573, Control_c, 0, 64, 127
1, 107573, Control_c, 0, 64, 127
1, 107783, Note_on_c, 0, 63, 89
1, 107783, Note_on_c, 0, 68, 89
1, 107783, Note_on_c, 0, 75, 107
1, 107786, Note_on_c, 0, 47, 77
1, 107786, Note_on_c, 0, 59, 84
1, 107798, Note_on_c, 0, 49, 0
1, 107798, Note_on_c, 0, 73, 0
1, 107798, Note_on_c, 0, 64, 0
1, 107801, Note_on_c, 0, 61, 0
1, 107831, Control_c, 0, 64, 0
1, 107831, Control_c, 0, 64, 0
1, 107946, Control_c, 0, 64, 127
1, 107946, Control_c, 0, 64, 127
1, 108158, Note_on_c, 0, 68, 0
1, 108158, Note_on_c, 0, 64, 91
1, 108158, Note_on_c, 0, 67, 91
1, 108161, Note_on_c, 0, 73, 91
1, 108161, Note_on_c, 0, 76, 111
1, 108161, Note_on_c, 0, 45, 79
1, 108164, Control_c, 0, 64, 0
1, 108164, Note_on_c, 0, 57, 87
1, 108164, Control_c, 0, 64, 0
1, 108174, Note_on_c, 0, 63, 0
1, 108174, Note_on_c, 0, 75, 0
1, 108174, Note_on_c, 0, 47, 0
1, 108177, Note_on_c, 0, 59, 0
1, 108314, Control_c, 0, 64, 127
1, 108314, Control_c, 0, 64, 127
1, 108565, Control_c, 0, 64, 0
1, 108565, Note_on_c, 0, 66, 93
1, 108565, Note_on_c, 0, 69, 93
1, 108565, Note_on_c, 0, 72, 93
1, 108565, Note_on_c, 0, 74, 93
1, 108565, Note_on_c, 0, 78, 113
1, 108565, Control_c, 0, 64, 0
1, 108565, Note_on_c, 0, 38, 89
1, 108565, Note_on_c, 0, 50, 98
1, 108588, Note_on_c, 0, 73, 0
1, 108588, Note_on_c, 0, 64, 0
1, 108588, Note_on_c, 0, 67, 0
1, 108591, Note_on_c, 0, 57, 0
1, 108591, Note_on_c, 0, 45, 0
1, 108591, Note_on_c, 0, 76, 0
1, 108754, Control_c, 0, 64, 127
1, 108754, Control_c, 0, 64, 127
1, 109128, Note_on_c, 0, 74, 0
1, 109128, Note_on_c, 0, 67, 93
1, 109128, Note_on_c, 0, 79, 116
1, 109131, Note_on_c, 0, 71, 93
1, 109131, Note_on_c, 0, 74, 93
1, 109131, Note_on_c, 0, 31, 93
1, 109134, Note_on_c, 0, 43, 102
1, 109147, Note_on_c, 0, 69, 0
1, 109147, Note_on_c, 0, 66, 0
1, 109147, Control_c, 0, 64, 0
1, 109150, Note_on_c, 0, 72, 0
1, 109150, Note_on_c, 0, 78, 0
1, 109150, Control_c, 0, 64, 0
1, 109153, Note_on_c, 0, 50, 0
1, 109153, Note_on_c, 0, 38, 0
1, 109269, Control_c, 0, 64, 127
1, 109269, Control_c, 0, 64, 127
1, 109621, Control_c, 0, 64, 0
1, 109621, Control_c, 0, 64, 0
1, 109627, Note_on_c, 0, 66, 93
1, 109627, Note_on_c, 0, 78, 106
1, 109642, Note_on_c, 0, 79, 0
1, 109642, Note_on_c, 0, 67, 0
1, 109726, Control_c, 0, 64, 127
1, 109726, Control_c, 0, 64, 127
1, 110001, Note_on_c, 0, 71, 0
1, 110001, Note_on_c, 0, 74, 0
1, 110001, Control_c, 0, 64, 127
1, 110004, Note_on_c, 0, 64, 93
1, 110004, Note_on_c, 0, 76, 105
1, 110004, Note_on_c, 0, 74, 102
1, 110007, Note_on_c, 0, 31, 0
1, 110007, Control_c, 0, 64, 127
1, 110007, Control_c, 0, 64, 0
1, 110010, Note_on_c, 0, 43, 0
1, 110010, Note_on_c, 0, 35, 93
1, 110010, Note_on_c, 0, 47, 105
1, 110018, Note_on_c, 0, 66, 0
1, 110018, Note_on_c, 0, 78, 0
1, 110094, Control_c, 0, 64, 0
1, 110094, Control_c, 0, 64, 0
1, 110234, Control_c, 0, 64, 127
1, 110234, Control_c, 0, 64, 127
1, 110433, Note_on_c, 0, 73, 93
1, 110433, Note_on_c, 0, 34, 89
1, 110433, Note_on_c, 0, 46, 99
1, 110448, Note_on_c, 0, 74, 0
1, 110448, Note_on_c, 0, 35, 0
1, 110448, Note_on_c, 0, 47, 0
1, 110484, Control_c, 0, 64, 0
1, 110484, Control_c, 0, 64, 0
1, 110599, Control_c, 0, 64, 127
1, 110599, Control_c, 0, 64, 127
1, 110799, Control_c, 0, 64, 0
1, 110799, Control_c, 0, 64, 0
1, 110808, Note_on_c, 0, 72, 91
1, 110808, Note_on_c, 0, 66, 91
1, 110808, Note_on_c, 0, 78, 103
1, 110811, Note_on_c, 0, 33, 84
1, 110811, Note_on_c, 0, 45, 94
1, 110825, Note_on_c, 0, 76, 0
1, 110825, Note_on_c, 0, 64, 0
1, 110825, Note_on_c, 0, 73, 0
1, 110828, Note_on_c, 0, 46, 0
1, 110828, Note_on_c, 0, 34, 0
1, 110915, Control_c, 0, 64, 127
1, 110915, Control_c, 0, 64, 127
1, 111226, Control_c, 0, 64, 0
1, 111226, Control_c, 0, 64, 0
1, 111240, Note_on_c, 0, 64, 90
1, 111240, Note_on_c, 0, 76, 102
1, 111255, Note_on_c, 0, 78, 0
1, 111255, Note_on_c, 0, 66, 0
1, 111339, Control_c, 0, 64, 127
1, 111339, Control_c, 0, 64, 127
1, 111614, Note_on_c, 0, 72, 0
1, 111614, Note_on_c, 0, 72, 91
1, 111614, Note_on_c, 0, 62, 84
1, 111617, Note_on_c, 0, 74, 96
1, 111631, Note_on_c, 0, 64, 0
1, 111631, Note_on_c, 0, 76, 0
1, 111634, Control_c, 0, 64, 0
1, 111634, Control_c, 0, 64, 0
1, 111763, Control_c, 0, 64, 127
1, 111763, Control_c, 0, 64, 127
1, 112046, Note_on_c, 0, 71, 91
1, 112046, Note_on_c, 0, 32, 79
1, 112046, Note_on_c, 0, 44, 91
1, 112061, Note_on_c, 0, 72, 0
1, 112061, Note_on_c, 0, 33, 0
1, 112061, Note_on_c, 0, 45, 0
1, 112079, Control_c, 0, 64, 0
1, 112079, Control_c, 0, 64, 0
1, 112171, Control_c, 0, 64, 127
1, 112171, Control_c, 0, 64, 127
1, 112418, Control_c, 0, 64, 0
1, 112418, Control_c, 0, 64, 0
1, 112421, Note_on_c, 0, 70, 74
1, 112421, Note_on_c, 0, 64, 74
1, 112421, Note_on_c, 0, 76, 94
1, 112424, Note_on_c, 0, 31, 66
1, 112424, Note_on_c, 0, 43, 85
1, 112438, Note_on_c, 0, 74, 0
1, 112438, Note_on_c, 0, 62, 0
1, 112438, Note_on_c, 0, 71, 0
1, 112441, Note_on_c, 0, 32, 0
1, 112441, Note_on_c, 0, 44, 0
1, 112573, Control_c, 0, 64, 127
1, 112573, Control_c, 0, 64, 127
1, 112853, Note_on_c, 0, 71, 73
1, 112853, Note_on_c, 0, 62, 73
1, 112853, Note_on_c, 0, 74, 92
1, 112856, Note_on_c, 0, 32, 60
1, 112856, Note_on_c, 0, 44, 79
1, 112866, Note_on_c, 0, 64, 0
1, 112866, Note_on_c, 0, 76, 0
1, 112866, Note_on_c, 0, 70, 0
1, 112869, Note_on_c, 0, 31, 0
1, 112869, Note_on_c, 0, 43, 0
1, 112888, Control_c, 0, 64, 0
1, 112888, Control_c, 0, 64, 0
1, 112971, Control_c, 0, 64, 127
1, 112971, Control_c, 0, 64, 127
1, 113198, Control_c, 0, 64, 0
1, 113198, Note_on_c, 0, 61, 79
1, 113198, Note_on_c, 0, 69, 79
1, 113201, Note_on_c, 0, 73, 91
1, 113201, Control_c, 0, 64, 0
1, 113201, Control_c, 0, 64, 0
1, 113204, Note_on_c, 0, 33, 64
1, 113204, Note_on_c, 0, 45, 76
1, 113208, Control_c, 0, 64, 127
1, 113208, Control_c, 0, 64, 127
1, 113211, Note_on_c, 0, 62, 0
1, 113211, Note_on_c, 0, 74, 0
1, 113211, Note_on_c, 0, 71, 0
1, 113214, Note_on_c, 0, 32, 0
1, 113214, Note_on_c, 0, 44, 0
1, 113247, Control_c, 0, 64, 0
1, 113247, Control_c, 0, 64, 0
1, 113342, Control_c, 0, 64, 127
1, 113342, Control_c, 0, 64, 127
1, 113519, Note_on_c, 0, 62, 77
1, 113519, Note_on_c, 0, 66, 77
1, 113519, Note_on_c, 0, 71, 90
1, 113522, Note_on_c, 0, 45, 0
1, 113522, Note_on_c, 0, 35, 61
1, 113522, Note_on_c, 0, 47, 70
1, 113531, Note_on_c, 0, 69, 0
1, 113531, Note_on_c, 0, 73, 0
1, 113531, Note_on_c, 0, 61, 0
1, 113534, Note_on_c, 0, 33, 0
1, 113544, Control_c, 0, 64, 0
1, 113544, Control_c, 0, 64, 0
1, 113623, Note_on_c, 0, 47, 0
1, 113623, Note_on_c, 0, 47, 71
1, 113727, Note_on_c, 0, 47, 0
1, 113727, Note_on_c, 0, 47, 71
1, 113831, Note_on_c, 0, 66, 0
1, 113831, Note_on_c, 0, 61, 77
1, 113831, Note_on_c, 0, 66, 77
1, 113834, Note_on_c, 0, 47, 0
1, 113834, Note_on_c, 0, 69, 88
1, 113834, Note_on_c, 0, 49, 72
1, 113837, Note_on_c, 0, 37, 65
1, 113843, Note_on_c, 0, 62, 0
1, 113843, Note_on_c, 0, 35, 0
1, 113843, Note_on_c, 0, 71, 0
1, 114143, Note_on_c, 0, 59, 75
1, 114143, Note_on_c, 0, 65, 75
1, 114143, Note_on_c, 0, 68, 87
1, 114146, Note_on_c, 0, 37, 0
1, 114146, Note_on_c, 0, 49, 0
1, 114146, Note_on_c, 0, 49, 72
1, 114149, Note_on_c, 0, 37, 69
1, 114155, Note_on_c, 0, 69, 0
1, 114155, Note_on_c, 0, 66, 0
1, 114155, Note_on_c, 0, 61, 0
1, 114247, Note_on_c, 0, 49, 0
1, 114247, Note_on_c, 0, 49, 73
1, 114351, Note_on_c, 0, 49, 0
1, 114351, Note_on_c, 0, 49, 72
1, 114455, Note_on_c, 0, 57, 74
1, 114455, Note_on_c, 0, 66, 85
1, 114455, Note_on_c, 0, 42, 73
1, 114467, Note_on_c, 0, 65, 0
1, 114467, Note_on_c, 0, 68, 0
1, 114467, Note_on_c, 0, 59, 0
1, 114470, Note_on_c, 0, 37, 0
1, 114767, Note_on_c, 0, 57, 0
1, 114767, Note_on_c, 0, 58, 73
1, 114767, Note_on_c, 0, 64, 83
1, 114770, Note_on_c, 0, 49, 0
1, 114770, Note_on_c, 0, 49, 72
1, 114770, Note_on_c, 0, 43, 75
1, 114780, Note_on_c, 0, 42, 0
1, 114780, Note_on_c, 0, 66, 0
1, 114874, Note_on_c, 0, 49, 0
1, 114874, Note_on_c, 0, 49, 71
1, 114981, Note_on_c, 0, 49, 0
1, 114981, Note_on_c, 0, 49, 71
1, 115088, Note_on_c, 0, 49, 0
1, 115088, Note_on_c, 0, 56, 68
1, 115088, Note_on_c, 0, 49, 70
1, 115091, Note_on_c, 0, 44, 76
1, 115101, Note_on_c, 0, 58, 0
1, 115101, Note_on_c, 0, 43, 0
1, 115195, Note_on_c, 0, 49, 0
1, 115195, Note_on_c, 0, 49, 70
1, 115302, Note_on_c, 0, 49, 0
1, 115302, Note_on_c, 0, 49, 70
1, 115409, Note_on_c, 0, 49, 0
1, 115409, Note_on_c, 0, 54, 61
1, 115409, Note_on_c, 0, 63, 70
1, 115412, Note_on_c, 0, 44, 0
1, 115412, Note_on_c, 0, 49, 69
1, 115412, Note_on_c, 0, 44, 69
1, 115423, Note_on_c, 0, 56, 0
1, 115423, Note_on_c, 0, 64, 0
1, 115524, Note_on_c, 0, 49, 0
1, 115524, Note_on_c, 0, 49, 69
1, 115639, Note_on_c, 0, 49, 0
1, 115639, Note_on_c, 0, 48, 68
1, 115755, Note_on_c, 0, 63, 0
1, 115755, Note_on_c, 0, 54, 0
1, 115755, Control_c, 0, 64, 0
1, 115758, Note_on_c, 0, 61, 77
1, 115758, Note_on_c, 0, 52, 68
1, 115758, Control_c, 0, 64, 0
1, 115761, Note_on_c, 0, 44, 0
1, 115761, Note_on_c, 0, 48, 0
1, 115761, Control_c, 0, 64, 0
1, 115764, Note_on_c, 0, 37, 63
1, 115830, Note_on_c, 0, 37, 0
1, 116054, Note_on_c, 0, 32, 65
1, 116092, Note_on_c, 0, 32, 0
1, 116279, Note_on_c, 0, 32, 66
1, 116298, Note_on_c, 0, 32, 0
1, 116354, Note_on_c, 0, 56, 76
1, 116354, Note_on_c, 0, 37, 66
1, 116365, Note_on_c, 0, 61, 0
1, 116429, Note_on_c, 0, 37, 0
1, 116653, Note_on_c, 0, 39, 68
1, 116728, Note_on_c, 0, 39, 0
1, 116953, Note_on_c, 0, 52, 74
1, 116953, Note_on_c, 0, 40, 70
1, 116964, Note_on_c, 0, 56, 0
1, 117028, Note_on_c, 0, 40, 0
1, 117252, Note_on_c, 0, 42, 71
1, 117327, Note_on_c, 0, 42, 0
1, 117552, Note_on_c, 0, 49, 73
1, 117552, Note_on_c, 0, 45, 77
1, 117564, Note_on_c, 0, 52, 0
1, 117712, Note_on_c, 0, 44, 71
1, 117725, Note_on_c, 0, 45, 0
1, 117873, Note_on_c, 0, 42, 70
1, 117885, Note_on_c, 0, 44, 0
1, 118033, Note_on_c, 0, 40, 68
1, 118050, Note_on_c, 0, 42, 0
1, 118104, Note_on_c, 0, 40, 0
1, 118249, Note_on_c, 0, 52, 0
1, 118249, Control_c, 0, 64, 0
1, 118249, Note_on_c, 0, 49, 59
1, 118252, Note_on_c, 0, 52, 60
1, 118252, Note_on_c, 0, 57, 61
1, 118252, Note_on_c, 0, 61, 81
1, 118255, Control_c, 0, 64, 0
1, 118255, Control_c, 0, 64, 0
1, 118255, Note_on_c, 0, 45, 66
1, 118258, Note_on_c, 0, 33, 55
1, 118261, Note_on_c, 0, 49, 0
1, 118324, Note_on_c, 0, 45, 0
1, 118496, Control_c, 0, 64, 127
1, 118496, Control_c, 0, 64, 127
1, 118549, Note_on_c, 0, 40, 66
1, 118586, Note_on_c, 0, 40, 0
1, 118773, Note_on_c, 0, 40, 66
1, 118848, Note_on_c, 0, 40, 0
1, 118848, Control_c, 0, 64, 0
1, 118848, Control_c, 0, 64, 0
1, 118851, Note_on_c, 0, 45, 66
1, 118966, Control_c, 0, 64, 127
1, 118966, Control_c, 0, 64, 127
1, 119148, Note_on_c, 0, 52, 0
1, 119148, Note_on_c, 0, 47, 66
1, 119148, Note_on_c, 0, 52, 66
1, 119151, Note_on_c, 0, 33, 0
1, 119151, Note_on_c, 0, 45, 0
1, 119151, Note_on_c, 0, 59, 81
1, 119154, Note_on_c, 0, 32, 48
1, 119154, Note_on_c, 0, 44, 57
1, 119160, Note_on_c, 0, 61, 0
1, 119160, Note_on_c, 0, 49, 0
1, 119160, Note_on_c, 0, 57, 0
1, 119217, Control_c, 0, 64, 0
1, 119217, Control_c, 0, 64, 0
1, 119305, Control_c, 0, 64, 127
1, 119305, Control_c, 0, 64, 127
1, 119456, Control_c, 0, 64, 0
1, 119456, Control_c, 0, 64, 0
1, 119469, Note_on_c, 0, 49, 67
1, 119469, Note_on_c, 0, 57, 67
1, 119469, Note_on_c, 0, 61, 83
1, 119472, Note_on_c, 0, 31, 55
1, 119472, Note_on_c, 0, 43, 64
1, 119481, Note_on_c, 0, 52, 0
1, 119481, Note_on_c, 0, 47, 0
1, 119481, Note_on_c, 0, 59, 0
1, 119484, Note_on_c, 0, 32, 0
1, 119484, Note_on_c, 0, 44, 0
1, 119595, Control_c, 0, 64, 127
1, 119595, Control_c, 0, 64, 127
1, 119790, Note_on_c, 0, 57, 0
1, 119790, Note_on_c, 0, 50, 63
1, 119790, Note_on_c, 0, 57, 63
1, 119793, Note_on_c, 0, 62, 79
1, 119793, Note_on_c, 0, 30, 61
1, 119793, Note_on_c, 0, 42, 70
1, 119796, Control_c, 0, 64, 0
1, 119796, Control_c, 0, 64, 0
1, 119802, Note_on_c, 0, 31, 0
1, 119802, Note_on_c, 0, 61, 0
1, 119802, Note_on_c, 0, 49, 0
1, 119805, Note_on_c, 0, 43, 0
1, 119922, Control_c, 0, 64, 127
1, 119922, Control_c, 0, 64, 127
1, 120110, Note_on_c, 0, 57, 0
1, 120110, Note_on_c, 0, 57, 63
1, 120110, Note_on_c, 0, 52, 63
1, 120113, Note_on_c, 0, 64, 80
1, 120113, Note_on_c, 0, 29, 62
1, 120113, Note_on_c, 0, 41, 78
1, 120125, Note_on_c, 0, 50, 0
1, 120125, Note_on_c, 0, 62, 0
1, 120125, Note_on_c, 0, 30, 0
1, 120128, Note_on_c, 0, 42, 0
1, 120169, Control_c, 0, 64, 0
1, 120169, Control_c, 0, 64, 0
1, 120272, Control_c, 0, 64, 127
1, 120272, Control_c, 0, 64, 127
1, 120298, Note_on_c, 0, 51, 63
1, 120298, Note_on_c, 0, 63, 77
1, 120310, Note_on_c, 0, 52, 0
1, 120310, Note_on_c, 0, 64, 0
1, 120414, Control_c, 0, 64, 0
1, 120414, Control_c, 0, 64, 0
1, 120458, Note_on_c, 0, 49, 63
1, 120458, Note_on_c, 0, 61, 77
1, 120458, Note_on_c, 0, 30, 51
1, 120461, Note_on_c, 0, 42, 60
1, 120471, Note_on_c, 0, 51, 0
1, 120471, Note_on_c, 0, 29, 0
1, 120471, Note_on_c, 0, 63, 0
1, 120474, Note_on_c, 0, 41, 0
1, 120619, Note_on_c, 0, 48, 59
1, 120619, Note_on_c, 0, 60, 73
1, 120633, Note_on_c, 0, 61, 0
1, 120633, Note_on_c, 0, 49, 0
1, 120806, Control_c, 0, 64, 0
1, 120806, Note_on_c, 0, 49, 63
1, 120806, Note_on_c, 0, 61, 77
1, 120809, Control_c, 0, 64, 0
1, 120809, Control_c, 0, 64, 0
1, 120809, Note_on_c, 0, 28, 59
1, 120812, Note_on_c, 0, 40, 68
1, 120817, Note_on_c, 0, 48, 0
1, 120817, Note_on_c, 0, 30, 0
1, 120817, Note_on_c, 0, 60, 0
1, 120820, Note_on_c, 0, 42, 0
1, 120891, Control_c, 0, 64, 127
1, 120891, Control_c, 0, 64, 127
1, 121105, Note_on_c, 0, 57, 0
1, 121105, Note_on_c, 0, 56, 66
1, 121127, Control_c, 0, 64, 0
1, 121127, Control_c, 0, 64, 0
1, 121143, Note_on_c, 0, 56, 0
1, 121330, Note_on_c, 0, 56, 66
1, 121405, Note_on_c, 0, 56, 0
1, 121405, Note_on_c, 0, 61, 66
1, 121503, Control_c, 0, 64, 127
1, 121503, Control_c, 0, 64, 127
1, 121704, Note_on_c, 0, 61, 0
1, 121704, Note_on_c, 0, 49, 0
1, 121704, Note_on_c, 0, 49, 63
1, 121707, Note_on_c, 0, 28, 0
1, 121707, Note_on_c, 0, 57, 63
1, 121707, Note_on_c, 0, 63, 81
1, 121710, Note_on_c, 0, 40, 0
1, 121710, Note_on_c, 0, 30, 65
1, 121710, Note_on_c, 0, 42, 74
1, 121742, Note_on_c, 0, 42, 0
1, 121742, Note_on_c, 0, 30, 0
1, 121753, Control_c, 0, 64, 0
1, 121753, Control_c, 0, 64, 0
1, 121829, Control_c, 0, 64, 0
1, 121829, Control_c, 0, 64, 0
1, 121929, Note_on_c, 0, 30, 65
1, 121929, Note_on_c, 0, 42, 74
1, 121948, Note_on_c, 0, 42, 0
1, 121948, Note_on_c, 0, 30, 0
1, 122004, Note_on_c, 0, 61, 0
1, 122004, Note_on_c, 0, 56, 63
1, 122004, Note_on_c, 0, 61, 81
1, 122007, Note_on_c, 0, 28, 65
1, 122007, Note_on_c, 0, 40, 74
1, 122016, Note_on_c, 0, 63, 0
1, 122016, Note_on_c, 0, 57, 0
1, 122036, Control_c, 0, 64, 0
1, 122036, Control_c, 0, 64, 0
1, 122121, Control_c, 0, 64, 127
1, 122121, Control_c, 0, 64, 127
1, 122303, Note_on_c, 0, 49, 0
1, 122303, Note_on_c, 0, 49, 68
1, 122303, Note_on_c, 0, 57, 68
1, 122306, Note_on_c, 0, 28, 0
1, 122306, Note_on_c, 0, 40, 0
1, 122306, Note_on_c, 0, 63, 82
1, 122309, Note_on_c, 0, 30, 65
1, 122309, Note_on_c, 0, 42, 74
1, 122316, Note_on_c, 0, 61, 0
1, 122316, Note_on_c, 0, 56, 0
1, 122343, Note_on_c, 0, 30, 0
1, 122343, Note_on_c, 0, 42, 0
1, 122349, Control_c, 0, 64, 0
1, 122349, Control_c, 0, 64, 0
1, 122384, Control_c, 0, 64, 0
1, 122384, Control_c, 0, 64, 0
1, 122544, Note_on_c, 0, 30, 65
1, 122544, Note_on_c, 0, 42, 74
1, 122564, Note_on_c, 0, 42, 0
1, 122564, Note_on_c, 0, 30, 0
1, 122624, Note_on_c, 0, 56, 71
1, 122624, Note_on_c, 0, 64, 85
1, 122624, Note_on_c, 0, 32, 65
1, 122627, Note_on_c, 0, 44, 74
1, 122638, Note_on_c, 0, 57, 0
1, 122638, Note_on_c, 0, 63, 0
1, 122649, Control_c, 0, 64, 0
1, 122649, Control_c, 0, 64, 0
1, 122760, Control_c, 0, 64, 127
1, 122760, Control_c, 0, 64, 127
1, 122970, Note_on_c, 0, 49, 0
1, 122970, Note_on_c, 0, 49, 66
1, 122970, Note_on_c, 0, 63, 77
1, 122973, Note_on_c, 0, 32, 0
1, 122973, Note_on_c, 0, 44, 0
1, 122973, Note_on_c, 0, 32, 55
1, 122976, Note_on_c, 0, 44, 64
1, 122984, Note_on_c, 0, 64, 0
1, 122997, Control_c, 0, 64, 0
1, 122997, Control_c, 0, 64, 0
1, 123157, Note_on_c, 0, 48, 66
1, 123172, Note_on_c, 0, 49, 0
1, 123344, Note_on_c, 0, 56, 0
1, 123344, Note_on_c, 0, 49, 49
1, 123344, Note_on_c, 0, 52, 50
1, 123347, Note_on_c, 0, 56, 49
1, 123347, Note_on_c, 0, 61, 70
1, 123347, Control_c, 0, 64, 0
1, 123350, Note_on_c, 0, 32, 0
1, 123350, Note_on_c, 0, 44, 0
1, 123350, Note_on_c, 0, 37, 46
1, 123353, Note_on_c, 0, 44, 58
1, 123356, Note_on_c, 0, 48, 0
1, 123356, Note_on_c, 0, 63, 0
1, 123644, Note_on_c, 0, 56, 0
1, 123644, Note_on_c, 0, 49, 0
1, 123644, Note_on_c, 0, 52, 0
1, 123647, Note_on_c, 0, 61, 0
1, 123647, Note_on_c, 0, 37, 0
1, 123647, Note_on_c, 0, 68, 77
1, 123650, Note_on_c, 0, 44, 0
1, 123650, Note_on_c, 0, 56, 69
1, 123681, Note_on_c, 0, 56, 0
1, 123681, Note_on_c, 0, 68, 0
1, 123868, Note_on_c, 0, 68, 83
1, 123868, Note_on_c, 0, 56, 74
1, 123943, Note_on_c, 0, 68, 0
1, 123943, Note_on_c, 0, 64, 71
1, 123943, Note_on_c, 0, 73, 83
1, 123946, Note_on_c, 0, 56, 0
1, 123946, Note_on_c, 0, 52, 62
1, 123946, Note_on_c, 0, 61, 74
1, 124018, Note_on_c, 0, 52, 0
1, 124018, Note_on_c, 0, 64, 0
1, 124018, Note_on_c, 0, 73, 0
1, 124021, Note_on_c, 0, 61, 0
1, 124243, Note_on_c, 0, 80, 91
1, 124243, Note_on_c, 0, 68, 67
1, 124243, Note_on_c, 0, 72, 67
1, 124246, Note_on_c, 0, 75, 67
1, 124246, Note_on_c, 0, 63, 77
1, 124246, Note_on_c, 0, 56, 65
1, 124337, Control_c, 0, 64, 127
1, 124337, Control_c, 0, 64, 127
1, 124425, Control_c, 0, 64, 127
1, 124425, Control_c, 0, 64, 127
1, 124588, Note_on_c, 0, 73, 57
1, 124588, Note_on_c, 0, 76, 69
1, 124588, Note_on_c, 0, 61, 56
1, 124591, Note_on_c, 0, 64, 68
1, 124604, Note_on_c, 0, 75, 0
1, 124604, Note_on_c, 0, 72, 0
1, 124604, Note_on_c, 0, 68, 0
1, 124607, Note_on_c, 0, 63, 0
1, 124691, Note_on_c, 0, 73, 0
1, 124691, Note_on_c, 0, 61, 0
1, 124691, Note_on_c, 0, 76, 0
1, 124694, Note_on_c, 0, 64, 0
1, 124734, Control_c, 0, 64, 0
1, 124734, Control_c, 0, 64, 0
1, 124837, Control_c, 0, 64, 0
1, 124837, Control_c, 0, 64, 0
1, 124939, Control_c, 0, 64, 0
1, 124939, Control_c, 0, 64, 0
1, 124997, Note_on_c, 0, 80, 0
1, 124997, Note_on_c, 0, 80, 61
1, 124997, Note_on_c, 0, 84, 61
1, 125000, Note_on_c, 0, 56, 0
1, 125000, Note_on_c, 0, 92, 84
1, 125000, Note_on_c, 0, 68, 65
1, 125003, Note_on_c, 0, 75, 77
1, 125158, Control_c, 0, 64, 127
1, 125158, Control_c, 0, 64, 127
1, 125496, Note_on_c, 0, 85, 51
1, 125496, Note_on_c, 0, 88, 63
1, 125496, Note_on_c, 0, 73, 56
1, 125499, Note_on_c, 0, 76, 68
1, 125516, Note_on_c, 0, 75, 0
1, 125516, Note_on_c, 0, 84, 0
1, 125516, Note_on_c, 0, 80, 0
1, 125516, Control_c, 0, 64, 127
1, 125516, Control_c, 0, 64, 127
1, 125596, Control_c, 0, 64, 0
1, 125596, Control_c, 0, 64, 0
1, 125757, Control_c, 0, 64, 127
1, 125757, Control_c, 0, 64, 127
1, 126058, Note_on_c, 0, 85, 0
1, 126058, Note_on_c, 0, 92, 0
1, 126058, Note_on_c, 0, 88, 0
1, 126061, Note_on_c, 0, 76, 0
1, 126061, Note_on_c, 0, 73, 0
1, 126061, Note_on_c, 0, 68, 0
1, 126282, Control_c, 0, 64, 0
1, 126282, Control_c, 0, 64, 0
1, 126956, Control_c, 0, 64, 0
1, 126956, Control_c, 0, 64, 0
1, 126956, Control_c, 0, 64, 0
1, 126959, Note_on_c, 0, 61, 71
1, 127097, Note_on_c, 0, 64, 64
1, 127140, Control_c, 0, 64, 127
1, 127140, Control_c, 0, 64, 127
1, 127190, Note_on_c, 0, 73, 62
1, 127277, Note_on_c, 0, 73, 0
1, 127277, Note_on_c, 0, 75, 60
1, 127363, Note_on_c, 0, 75, 0
1, 127363, Note_on_c, 0, 64, 0
1, 127363, Note_on_c, 0, 76, 62
1, 127449, Note_on_c, 0, 76, 0
1, 127449, Note_on_c, 0, 75, 62
1, 127530, Note_on_c, 0, 75, 0
1, 127530, Note_on_c, 0, 73, 59
1, 127540, Control_c, 0, 64, 127
1, 127540, Control_c, 0, 64, 127
1, 127610, Note_on_c, 0, 73, 0
1, 127610, Note_on_c, 0, 64, 53
1, 127685, Note_on_c, 0, 64, 0
1, 127685, Note_on_c, 0, 57, 74
1, 127696, Note_on_c, 0, 61, 0
1, 127760, Note_on_c, 0, 66, 72
1, 127830, Note_on_c, 0, 73, 67
1, 127900, Note_on_c, 0, 73, 0
1, 127900, Note_on_c, 0, 75, 61
1, 127970, Note_on_c, 0, 75, 0
1, 127970, Note_on_c, 0, 66, 0
1, 127970, Note_on_c, 0, 76, 65
1, 128040, Note_on_c, 0, 76, 0
1, 128040, Note_on_c, 0, 75, 66
1, 128111, Note_on_c, 0, 75, 0
1, 128111, Note_on_c, 0, 73, 68
1, 128181, Note_on_c, 0, 73, 0
1, 128181, Note_on_c, 0, 66, 59
1, 128204, Control_c, 0, 64, 127
1, 128204, Control_c, 0, 64, 127
1, 128251, Note_on_c, 0, 66, 0
1, 128251, Note_on_c, 0, 52, 77
1, 128264, Note_on_c, 0, 57, 0
1, 128331, Note_on_c, 0, 67, 76
1, 128334, Control_c, 0, 64, 127
1, 128334, Control_c, 0, 64, 127
1, 128364, Control_c, 0, 64, 0
1, 128364, Control_c, 0, 64, 0
1, 128394, Control_c, 0, 64, 127
1, 128394, Control_c, 0, 64, 127
1, 128411, Note_on_c, 0, 73, 69
1, 128482, Note_on_c, 0, 73, 0
1, 128482, Note_on_c, 0, 75, 69
1, 128552, Note_on_c, 0, 75, 0
1, 128552, Note_on_c, 0, 67, 0
1, 128552, Note_on_c, 0, 76, 67
1, 128622, Note_on_c, 0, 76, 0
1, 128622, Note_on_c, 0, 75, 66
1, 128692, Note_on_c, 0, 75, 0
1, 128692, Note_on_c, 0, 73, 66
1, 128706, Control_c, 0, 64, 127
1, 128706, Control_c, 0, 64, 127
1, 128762, Note_on_c, 0, 73, 0
1, 128762, Note_on_c, 0, 67, 59
1, 128833, Note_on_c, 0, 67, 0
1, 128833, Note_on_c, 0, 49, 79
1, 128844, Note_on_c, 0, 52, 0
1, 128895, Control_c, 0, 64, 0
1, 128895, Control_c, 0, 64, 0
1, 128903, Note_on_c, 0, 68, 70
1, 128938, Control_c, 0, 64, 127
1, 128938, Control_c, 0, 64, 127
1, 128973, Note_on_c, 0, 73, 65
1, 129043, Note_on_c, 0, 73, 0
1, 129043, Note_on_c, 0, 75, 68
1, 129113, Note_on_c, 0, 75, 0
1, 129113, Note_on_c, 0, 68, 0
1, 129113, Note_on_c, 0, 76, 64
1, 129184, Note_on_c, 0, 76, 0
1, 129184, Note_on_c, 0, 75, 64
1, 129254, Note_on_c, 0, 75, 0
1, 129254, Note_on_c, 0, 73, 68
1, 129324, Note_on_c, 0, 73, 0
1, 129324, Note_on_c, 0, 68, 61
1, 129369, Control_c, 0, 64, 0
1, 129369, Control_c, 0, 64, 0
1, 129394, Note_on_c, 0, 68, 0
1, 129394, Control_c, 0, 64, 0
1, 129394, Control_c, 0, 64, 0
1, 129397, Control_c, 0, 64, 0
1, 129397, Control_c, 0, 64, 0
1, 129397, Control_c, 0, 64, 0
1, 129400, Note_on_c, 0, 54, 76
1, 129407, Note_on_c, 0, 49, 0
1, 129475, Note_on_c, 0, 69, 75
1, 129512, Control_c, 0, 64, 127
1, 129512, Control_c, 0, 64, 127
1, 129555, Note_on_c, 0, 69, 0
1, 129555, Note_on_c, 0, 78, 63
1, 129625, Note_on_c, 0, 78, 0
1, 129625, Note_on_c, 0, 80, 64
1, 129695, Note_on_c, 0, 80, 0
1, 129695, Note_on_c, 0, 81, 65
1, 129765, Note_on_c, 0, 81, 0
1, 129765, Note_on_c, 0, 80, 63
1, 129836, Note_on_c, 0, 80, 0
1, 129836, Note_on_c, 0, 78, 66
1, 129845, Control_c, 0, 64, 127
1, 129845, Control_c, 0, 64, 127
1, 129906, Note_on_c, 0, 78, 0
1, 129906, Note_on_c, 0, 69, 57
1, 129976, Note_on_c, 0, 69, 0
1, 129976, Note_on_c, 0, 50, 81
1, 129987, Note_on_c, 0, 54, 0
1, 130046, Note_on_c, 0, 71, 81
1, 130116, Note_on_c, 0, 71, 0
1, 130116, Note_on_c, 0, 78, 68
1, 130187, Note_on_c, 0, 78, 0
1, 130187, Note_on_c, 0, 80, 70
1, 130257, Note_on_c, 0, 80, 0
1, 130257, Note_on_c, 0, 81, 72
1, 130327, Note_on_c, 0, 81, 0
1, 130327, Note_on_c, 0, 80, 72
1, 130397, Note_on_c, 0, 80, 0
1, 130397, Note_on_c, 0, 78, 75
1, 130421, Control_c, 0, 64, 127
1, 130421, Control_c, 0, 64, 127
1, 130467, Note_on_c, 0, 78, 0
1, 130467, Note_on_c, 0, 71, 59
1, 130538, Note_on_c, 0, 71, 0
1, 130538, Note_on_c, 0, 45, 81
1, 130549, Note_on_c, 0, 50, 0
1, 130597, Control_c, 0, 64, 0
1, 130597, Control_c, 0, 64, 0
1, 130612, Note_on_c, 0, 72, 79
1, 130633, Control_c, 0, 64, 127
1, 130633, Control_c, 0, 64, 127
1, 130683, Note_on_c, 0, 72, 0
1, 130683, Note_on_c, 0, 78, 69
1, 130753, Note_on_c, 0, 78, 0
1, 130753, Note_on_c, 0, 80, 73
1, 130823, Note_on_c, 0, 80, 0
1, 130823, Note_on_c, 0, 81, 77
1, 130893, Note_on_c, 0, 81, 0
1, 130893, Note_on_c, 0, 80, 68
1, 130963, Note_on_c, 0, 80, 0
1, 130963, Note_on_c, 0, 78, 66
1, 131029, Control_c, 0, 64, 127
1, 131029, Control_c, 0, 64, 127
1, 131034, Note_on_c, 0, 78, 0
1, 131034, Note_on_c, 0, 72, 56
1, 131104, Note_on_c, 0, 72, 0
1, 131104, Note_on_c, 0, 42, 81
1, 131115, Note_on_c, 0, 45, 0
1, 131174, Note_on_c, 0, 73, 78
1, 131174, Control_c, 0, 64, 0
1, 131174, Control_c, 0, 64, 0
1, 131201, Control_c, 0, 64, 127
1, 131201, Control_c, 0, 64, 127
1, 131244, Note_on_c, 0, 73, 0
1, 131244, Note_on_c, 0, 78, 71
1, 131314, Note_on_c, 0, 78, 0
1, 131314, Note_on_c, 0, 80, 69
1, 131385, Note_on_c, 0, 80, 0
1, 131385, Note_on_c, 0, 81, 72
1, 131455, Note_on_c, 0, 81, 0
1, 131455, Note_on_c, 0, 80, 72
1, 131525, Note_on_c, 0, 80, 0
1, 131525, Note_on_c, 0, 78, 69
1, 131595, Note_on_c, 0, 78, 0
1, 131595, Note_on_c, 0, 73, 56
1, 131640, Control_c, 0, 64, 0
1, 131640, Control_c, 0, 64, 0
1, 131665, Control_c, 0, 64, 0
1, 131665, Control_c, 0, 64, 0
1, 131665, Control_c, 0, 64, 0
1, 131668, Note_on_c, 0, 73, 0
1, 131668, Control_c, 0, 64, 0
1, 131668, Control_c, 0, 64, 0
1, 131671, Control_c, 0, 64, 0
1, 131671, Control_c, 0, 64, 0
1, 131671, Control_c, 0, 64, 0
1, 131674, Note_on_c, 0, 44, 82
1, 131679, Note_on_c, 0, 42, 0
1, 131752, Note_on_c, 0, 72, 79
1, 131792, Control_c, 0, 64, 127
1, 131792, Control_c, 0, 64, 127
1, 131838, Note_on_c, 0, 72, 0
1, 131838, Note_on_c, 0, 78, 63
1, 131918, Note_on_c, 0, 78, 0
1, 131918, Note_on_c, 0, 80, 63
1, 131999, Note_on_c, 0, 80, 0
1, 131999, Note_on_c, 0, 81, 64
1, 132074, Note_on_c, 0, 81, 0
1, 132074, Note_on_c, 0, 80, 62
1, 132148, Note_on_c, 0, 80, 0
1, 132148, Note_on_c, 0, 78, 65
1, 132158, Control_c, 0, 64, 127
1, 132158, Control_c, 0, 64, 127
1, 132223, Note_on_c, 0, 78, 0
1, 132223, Note_on_c, 0, 72, 56
1, 132298, Note_on_c, 0, 46, 76
1, 132312, Note_on_c, 0, 44, 0
1, 132385, Note_on_c, 0, 72, 0
1, 132385, Note_on_c, 0, 73, 82
1, 132471, Note_on_c, 0, 78, 66
1, 132546, Note_on_c, 0, 78, 0
1, 132546, Note_on_c, 0, 73, 0
1, 132546, Note_on_c, 0, 80, 67
1, 132621, Note_on_c, 0, 80, 0
1, 132621, Note_on_c, 0, 81, 69
1, 132621, Note_on_c, 0, 48, 74
1, 132632, Note_on_c, 0, 46, 0
1, 132691, Note_on_c, 0, 81, 0
1, 132691, Note_on_c, 0, 80, 69
1, 132761, Note_on_c, 0, 80, 0
1, 132761, Note_on_c, 0, 78, 71
1, 132831, Note_on_c, 0, 78, 0
1, 132831, Note_on_c, 0, 75, 83
1, 132854, Control_c, 0, 64, 127
1, 132854, Control_c, 0, 64, 127
1, 132902, Note_on_c, 0, 49, 71
1, 132913, Note_on_c, 0, 48, 0
1, 132972, Note_on_c, 0, 75, 0
1, 132972, Note_on_c, 0, 73, 84
1, 132992, Control_c, 0, 64, 127
1, 132992, Control_c, 0, 64, 127
1, 133000, Control_c, 0, 64, 0
1, 133000, Control_c, 0, 64, 0
1, 133042, Note_on_c, 0, 76, 65
1, 133042, Control_c, 0, 64, 127
1, 133042, Control_c, 0, 64, 127
1, 133112, Note_on_c, 0, 76, 0
1, 133112, Note_on_c, 0, 73, 0
1, 133112, Note_on_c, 0, 78, 68
1, 133182, Note_on_c, 0, 78, 0
1, 133182, Note_on_c, 0, 80, 71
1, 133253, Note_on_c, 0, 80, 0
1, 133253, Note_on_c, 0, 78, 68
1, 133323, Note_on_c, 0, 78, 0
1, 133323, Note_on_c, 0, 76, 66
1, 133393, Note_on_c, 0, 76, 0
1, 133393, Note_on_c, 0, 73, 56
1, 133463, Note_on_c, 0, 80, 74
1, 133463, Control_c, 0, 64, 0
1, 133463, Note_on_c, 0, 52, 80
1, 133463, Control_c, 0, 64, 0
1, 133474, Note_on_c, 0, 49, 0
1, 133517, Control_c, 0, 64, 127
1, 133517, Control_c, 0, 64, 127
1, 133533, Note_on_c, 0, 73, 0
1, 133533, Note_on_c, 0, 80, 0
1, 133533, Note_on_c, 0, 71, 83
1, 133620, Note_on_c, 0, 76, 71
1, 133706, Note_on_c, 0, 76, 0
1, 133706, Note_on_c, 0, 71, 0
1, 133706, Note_on_c, 0, 78, 69
1, 133781, Note_on_c, 0, 78, 0
1, 133781, Note_on_c, 0, 80, 72
1, 133856, Note_on_c, 0, 80, 0
1, 133856, Note_on_c, 0, 78, 72
1, 133931, Note_on_c, 0, 78, 0
1, 133931, Note_on_c, 0, 76, 69
1, 134006, Note_on_c, 0, 76, 0
1, 134006, Note_on_c, 0, 69, 78
1, 134107, Control_c, 0, 64, 0
1, 134107, Control_c, 0, 64, 0
1, 134166, Control_c, 0, 64, 127
1, 134166, Control_c, 0, 64, 127
1, 134166, Control_c, 0, 64, 0
1, 134169, Note_on_c, 0, 56, 70
1, 134169, Note_on_c, 0, 68, 82
1, 134191, Note_on_c, 0, 52, 0
1, 134327, Note_on_c, 0, 69, 0
1, 134327, Note_on_c, 0, 72, 68
1, 134334, Control_c, 0, 64, 0
1, 134334, Control_c, 0, 64, 0
1, 134380, Control_c, 0, 64, 127
1, 134380, Control_c, 0, 64, 127
1, 134401, Note_on_c, 0, 72, 0
1, 134401, Note_on_c, 0, 80, 72
1, 134476, Note_on_c, 0, 80, 0
1, 134476, Note_on_c, 0, 82, 76
1, 134551, Note_on_c, 0, 82, 0
1, 134551, Note_on_c, 0, 84, 80
1, 134621, Note_on_c, 0, 84, 0
1, 134621, Note_on_c, 0, 82, 79
1, 134692, Note_on_c, 0, 82, 0
1, 134692, Note_on_c, 0, 80, 74
1, 134762, Note_on_c, 0, 80, 0
1, 134762, Note_on_c, 0, 75, 68
1, 134832, Note_on_c, 0, 75, 0
1, 134832, Note_on_c, 0, 64, 76
1, 134832, Note_on_c, 0, 76, 91
1, 134852, Note_on_c, 0, 56, 0
1, 134852, Note_on_c, 0, 68, 0
1, 134852, Control_c, 0, 64, 127
1, 134852, Control_c, 0, 64, 127
1, 134863, Control_c, 0, 64, 0
1, 134863, Control_c, 0, 64, 0
1, 134926, Note_on_c, 0, 73, 71
1, 134932, Control_c, 0, 64, 127
1, 134932, Control_c, 0, 64, 127
1, 135019, Note_on_c, 0, 73, 0
1, 135019, Note_on_c, 0, 79, 75
1, 135099, Note_on_c, 0, 79, 0
1, 135099, Note_on_c, 0, 80, 79
1, 135180, Note_on_c, 0, 80, 0
1, 135180, Note_on_c, 0, 82, 83
1, 135250, Note_on_c, 0, 82, 0
1, 135250, Note_on_c, 0, 80, 79
1, 135320, Note_on_c, 0, 80, 0
1, 135320, Note_on_c, 0, 79, 75
1, 135390, Note_on_c, 0, 79, 0
1, 135390, Note_on_c, 0, 73, 71
1, 135447, Control_c, 0, 64, 0
1, 135447, Control_c, 0, 64, 0
1, 135460, Note_on_c, 0, 73, 0
1, 135460, Note_on_c, 0, 63, 72
1, 135460, Note_on_c, 0, 75, 84
1, 135478, Note_on_c, 0, 64, 0
1, 135478, Note_on_c, 0, 76, 0
1, 135502, Control_c, 0, 64, 127
1, 135502, Control_c, 0, 64, 127
1, 135535, Note_on_c, 0, 72, 68
1, 135610, Note_on_c, 0, 72, 0
1, 135610, Note_on_c, 0, 78, 70
1, 135685, Note_on_c, 0, 78, 0
1, 135685, Note_on_c, 0, 80, 73
1, 135755, Note_on_c, 0, 80, 0
1, 135755, Note_on_c, 0, 81, 75
1, 135826, Note_on_c, 0, 81, 0
1, 135826, Note_on_c, 0, 80, 73
1, 135896, Note_on_c, 0, 80, 0
1, 135896, Note_on_c, 0, 78, 70
1, 135966, Note_on_c, 0, 78, 0
1, 135966, Note_on_c, 0, 72, 68
1, 136030, Control_c, 0, 64, 0
1, 136030, Control_c, 0, 64, 0
1, 136036, Note_on_c, 0, 72, 0
1, 136036, Note_on_c, 0, 56, 60
1, 136036, Note_on_c, 0, 68, 71
1, 136055, Note_on_c, 0, 63, 0
1, 136055, Note_on_c, 0, 75, 0
1, 136078, Control_c, 0, 64, 127
1, 136078, Control_c, 0, 64, 127
1, 136116, Note_on_c, 0, 60, 63
1, 136197, Note_on_c, 0, 60, 0
1, 136197, Note_on_c, 0, 66, 65
1, 136277, Note_on_c, 0, 66, 0
1, 136277, Note_on_c, 0, 68, 68
1, 136357, Note_on_c, 0, 68, 0
1, 136357, Note_on_c, 0, 69, 68
1, 136437, Note_on_c, 0, 69, 0
1, 136437, Note_on_c, 0, 68, 65
1, 136524, Note_on_c, 0, 68, 0
1, 136524, Note_on_c, 0, 66, 63
1, 136610, Note_on_c, 0, 66, 0
1, 136610, Note_on_c, 0, 60, 60
1, 136654, Control_c, 0, 64, 0
1, 136654, Control_c, 0, 64, 0
1, 136696, Note_on_c, 0, 60, 0
1, 136696, Control_c, 0, 64, 0
1, 136696, Control_c, 0, 64, 0
1, 136699, Control_c, 0, 64, 0
1, 136699, Note_on_c, 0, 61, 71
1, 136718, Note_on_c, 0, 56, 0
1, 136718, Note_on_c, 0, 68, 0
1, 136790, Note_on_c, 0, 64, 73
1, 136834, Control_c, 0, 64, 127
1, 136834, Control_c, 0, 64, 127
1, 136884, Note_on_c, 0, 73, 65
1, 136970, Note_on_c, 0, 73, 0
1, 136970, Note_on_c, 0, 75, 63
1, 137056, Note_on_c, 0, 75, 0
1, 137056, Note_on_c, 0, 64, 0
1, 137056, Note_on_c, 0, 76, 66
1, 137143, Note_on_c, 0, 76, 0
1, 137143, Note_on_c, 0, 75, 65
1, 137223, Note_on_c, 0, 75, 0
1, 137223, Note_on_c, 0, 73, 62
1, 137234, Control_c, 0, 64, 127
1, 137234, Control_c, 0, 64, 127
1, 137303, Note_on_c, 0, 73, 0
1, 137303, Note_on_c, 0, 64, 55
1, 137378, Note_on_c, 0, 64, 0
1, 137378, Note_on_c, 0, 57, 75
1, 137390, Note_on_c, 0, 61, 0
1, 137453, Note_on_c, 0, 66, 76
1, 137523, Note_on_c, 0, 73, 70
1, 137593, Note_on_c, 0, 73, 0
1, 137593, Note_on_c, 0, 75, 63
1, 137664, Note_on_c, 0, 75, 0
1, 137664, Note_on_c, 0, 66, 0
1, 137664, Note_on_c, 0, 76, 68
1, 137734, Note_on_c, 0, 76, 0
1, 137734, Note_on_c, 0, 75, 68
1, 137804, Note_on_c, 0, 75, 0
1, 137804, Note_on_c, 0, 73, 70
1, 137874, Note_on_c, 0, 73, 0
1, 137874, Note_on_c, 0, 66, 61
1, 137897, Control_c, 0, 64, 127
1, 137897, Control_c, 0, 64, 127
1, 137944, Note_on_c, 0, 66, 0
1, 137944, Note_on_c, 0, 52, 78
1, 137957, Note_on_c, 0, 57, 0
1, 138025, Note_on_c, 0, 67, 79
1, 138028, Control_c, 0, 64, 127
1, 138028, Control_c, 0, 64, 127
1, 138057, Control_c, 0, 64, 0
1, 138057, Control_c, 0, 64, 0
1, 138087, Control_c, 0, 64, 127
1, 138087, Control_c, 0, 64, 127
1, 138105, Note_on_c, 0, 73, 72
1, 138175, Note_on_c, 0, 73, 0
1, 138175, Note_on_c, 0, 75, 72
1, 138245, Note_on_c, 0, 75, 0
1, 138245, Note_on_c, 0, 67, 0
1, 138245, Note_on_c, 0, 76, 70
1, 138316, Note_on_c, 0, 76, 0
1, 138316, Note_on_c, 0, 75, 69
1, 138386, Note_on_c, 0, 75, 0
1, 138386, Note_on_c, 0, 73, 69
1, 138399, Control_c, 0, 64, 127
1, 138399, Control_c, 0, 64, 127
1, 138456, Note_on_c, 0, 73, 0
1, 138456, Note_on_c, 0, 67, 62
1, 138526, Note_on_c, 0, 67, 0
1, 138526, Note_on_c, 0, 49, 81
1, 138537, Note_on_c, 0, 52, 0
1, 138589, Control_c, 0, 64, 0
1, 138589, Control_c, 0, 64, 0
1, 138596, Note_on_c, 0, 68, 79
1, 138631, Control_c, 0, 64, 127
1, 138631, Control_c, 0, 64, 127
1, 138667, Note_on_c, 0, 73, 69
1, 138737, Note_on_c, 0, 73, 0
1, 138737, Note_on_c, 0, 75, 73
1, 138807, Note_on_c, 0, 75, 0
1, 138807, Note_on_c, 0, 68, 0
1, 138807, Note_on_c, 0, 76, 68
1, 138877, Note_on_c, 0, 76, 0
1, 138877, Note_on_c, 0, 75, 68
1, 138947, Note_on_c, 0, 75, 0
1, 138947, Note_on_c, 0, 73, 73
1, 139018, Note_on_c, 0, 73, 0
1, 139018, Note_on_c, 0, 68, 65
1, 139062, Control_c, 0, 64, 0
1, 139062, Control_c, 0, 64, 0
1, 139088, Note_on_c, 0, 68, 0
1, 139088, Control_c, 0, 64, 127
1, 139088, Control_c, 0, 64, 0
1, 139091, Control_c, 0, 64, 127
1, 139091, Control_c, 0, 64, 0
1, 139091, Control_c, 0, 64, 0
1, 139094, Control_c, 0, 64, 0
1, 139094, Note_on_c, 0, 45, 70
1, 139094, Note_on_c, 0, 57, 82
1, 139100, Note_on_c, 0, 49, 0
1, 139168, Note_on_c, 0, 61, 68
1, 139175, Control_c, 0, 64, 0
1, 139175, Control_c, 0, 64, 0
1, 139218, Control_c, 0, 64, 127
1, 139218, Control_c, 0, 64, 127
1, 139238, Note_on_c, 0, 61, 0
1, 139238, Note_on_c, 0, 64, 74
1, 139308, Note_on_c, 0, 64, 0
1, 139308, Note_on_c, 0, 69, 79
1, 139379, Note_on_c, 0, 69, 0
1, 139379, Note_on_c, 0, 76, 90
1, 139449, Note_on_c, 0, 76, 0
1, 139449, Note_on_c, 0, 69, 79
1, 139519, Note_on_c, 0, 69, 0
1, 139519, Note_on_c, 0, 64, 74
1, 139589, Note_on_c, 0, 64, 0
1, 139589, Note_on_c, 0, 61, 68
1, 139659, Note_on_c, 0, 61, 0
1, 139659, Note_on_c, 0, 40, 71
1, 139659, Note_on_c, 0, 52, 83
1, 139673, Note_on_c, 0, 57, 0
1, 139673, Note_on_c, 0, 45, 0
1, 139678, Control_c, 0, 64, 127
1, 139678, Control_c, 0, 64, 127
1, 139688, Control_c, 0, 64, 0
1, 139688, Control_c, 0, 64, 0
1, 139746, Note_on_c, 0, 59, 71
1, 139752, Control_c, 0, 64, 127
1, 139752, Control_c, 0, 64, 127
1, 139832, Note_on_c, 0, 59, 0
1, 139832, Note_on_c, 0, 64, 75
1, 139902, Note_on_c, 0, 64, 0
1, 139902, Note_on_c, 0, 68, 79
1, 139973, Note_on_c, 0, 68, 0
1, 139973, Note_on_c, 0, 76, 88
1, 140043, Note_on_c, 0, 76, 0
1, 140043, Note_on_c, 0, 68, 79
1, 140113, Note_on_c, 0, 68, 0
1, 140113, Note_on_c, 0, 64, 75
1, 140183, Note_on_c, 0, 64, 0
1, 140183, Note_on_c, 0, 59, 71
1, 140240, Control_c, 0, 64, 0
1, 140240, Control_c, 0, 64, 0
1, 140253, Note_on_c, 0, 59, 0
1, 140253, Note_on_c, 0, 37, 70
1, 140253, Note_on_c, 0, 49, 82
1, 140267, Note_on_c, 0, 40, 0
1, 140267, Note_on_c, 0, 52, 0
1, 140301, Control_c, 0, 64, 127
1, 140301, Control_c, 0, 64, 127
1, 140340, Note_on_c, 0, 58, 74
1, 140426, Note_on_c, 0, 58, 0
1, 140426, Note_on_c, 0, 64, 76
1, 140496, Note_on_c, 0, 64, 0
1, 140496, Note_on_c, 0, 66, 79
1, 140567, Note_on_c, 0, 66, 0
1, 140567, Note_on_c, 0, 76, 91
1, 140637, Note_on_c, 0, 76, 0
1, 140637, Note_on_c, 0, 66, 79
1, 140707, Note_on_c, 0, 66, 0
1, 140707, Note_on_c, 0, 64, 76
1, 140777, Note_on_c, 0, 64, 0
1, 140777, Note_on_c, 0, 58, 74
1, 140841, Control_c, 0, 64, 0
1, 140841, Control_c, 0, 64, 0
1, 140847, Note_on_c, 0, 58, 0
1, 140847, Note_on_c, 0, 34, 68
1, 140847, Note_on_c, 0, 46, 80
1, 140861, Note_on_c, 0, 37, 0
1, 140861, Note_on_c, 0, 49, 0
1, 140893, Control_c, 0, 64, 127
1, 140893, Control_c, 0, 64, 127
1, 140934, Note_on_c, 0, 61, 75
1, 141004, Note_on_c, 0, 61, 0
1, 141004, Note_on_c, 0, 64, 77
1, 141074, Note_on_c, 0, 64, 0
1, 141074, Note_on_c, 0, 66, 80
1, 141144, Note_on_c, 0, 66, 0
1, 141144, Note_on_c, 0, 76, 90
1, 141215, Note_on_c, 0, 76, 0
1, 141215, Note_on_c, 0, 66, 77
1, 141285, Note_on_c, 0, 66, 0
1, 141285, Note_on_c, 0, 64, 75
1, 141355, Note_on_c, 0, 64, 0
1, 141355, Note_on_c, 0, 61, 72
1, 141391, Control_c, 0, 64, 0
1, 141391, Control_c, 0, 64, 0
1, 141425, Control_c, 0, 64, 127
1, 141425, Control_c, 0, 64, 0
1, 141425, Control_c, 0, 64, 0
1, 141428, Note_on_c, 0, 61, 0
1, 141428, Control_c, 0, 64, 127
1, 141428, Control_c, 0, 64, 0
1, 141431, Control_c, 0, 64, 0
1, 141431, Control_c, 0, 64, 0
1, 141431, Control_c, 0, 64, 0
1, 141434, Note_on_c, 0, 34, 0
1, 141434, Note_on_c, 0, 46, 0
1, 141434, Control_c, 0, 64, 0
1, 141434, Note_on_c, 0, 35, 70
1, 141434, Note_on_c, 0, 47, 82
1, 141495, Note_on_c, 0, 59, 71
1, 141502, Control_c, 0, 64, 0
1, 141502, Control_c, 0, 64, 0
1, 141546, Control_c, 0, 64, 127
1, 141546, Control_c, 0, 64, 127
1, 141566, Note_on_c, 0, 59, 0
1, 141566, Note_on_c, 0, 64, 77
1, 141636, Note_on_c, 0, 64, 0
1, 141636, Note_on_c, 0, 68, 82
1, 141706, Note_on_c, 0, 68, 0
1, 141706, Note_on_c, 0, 76, 87
1, 141776, Note_on_c, 0, 76, 0
1, 141776, Note_on_c, 0, 68, 82
1, 141846, Note_on_c, 0, 68, 0
1, 141846, Note_on_c, 0, 64, 77
1, 141917, Note_on_c, 0, 64, 0
1, 141917, Note_on_c, 0, 59, 71
1, 141987, Note_on_c, 0, 59, 0
1, 141987, Note_on_c, 0, 36, 68
1, 141987, Note_on_c, 0, 48, 80
1, 142002, Note_on_c, 0, 47, 0
1, 142002, Note_on_c, 0, 35, 0
1, 142002, Control_c, 0, 64, 127
1, 142002, Control_c, 0, 64, 127
1, 142010, Control_c, 0, 64, 0
1, 142010, Control_c, 0, 64, 0
1, 142057, Note_on_c, 0, 55, 71
1, 142062, Control_c, 0, 64, 127
1, 142062, Control_c, 0, 64, 127
1, 142127, Note_on_c, 0, 55, 0
1, 142127, Note_on_c, 0, 60, 75
1, 142197, Note_on_c, 0, 60, 0
1, 142197, Note_on_c, 0, 64, 79
1, 142268, Note_on_c, 0, 64, 0
1, 142268, Note_on_c, 0, 72, 82
1, 142338, Note_on_c, 0, 72, 0
1, 142338, Note_on_c, 0, 64, 79
1, 142408, Note_on_c, 0, 64, 0
1, 142408, Note_on_c, 0, 60, 75
1, 142478, Note_on_c, 0, 60, 0
1, 142478, Note_on_c, 0, 55, 71
1, 142535, Control_c, 0, 64, 0
1, 142535, Control_c, 0, 64, 0
1, 142548, Note_on_c, 0, 55, 0
1, 142548, Note_on_c, 0, 33, 67
1, 142548, Note_on_c, 0, 45, 78
1, 142569, Note_on_c, 0, 36, 0
1, 142569, Note_on_c, 0, 48, 0
1, 142596, Control_c, 0, 64, 127
1, 142596, Control_c, 0, 64, 127
1, 142635, Note_on_c, 0, 53, 70
1, 142721, Note_on_c, 0, 53, 0
1, 142721, Note_on_c, 0, 57, 72
1, 142791, Note_on_c, 0, 57, 0
1, 142791, Note_on_c, 0, 60, 75
1, 142862, Note_on_c, 0, 60, 0
1, 142862, Note_on_c, 0, 69, 81
1, 142932, Note_on_c, 0, 69, 0
1, 142932, Note_on_c, 0, 60, 75
1, 143002, Note_on_c, 0, 60, 0
1, 143002, Note_on_c, 0, 57, 72
1, 143072, Note_on_c, 0, 57, 0
1, 143072, Note_on_c, 0, 53, 70
1, 143136, Control_c, 0, 64, 0
1, 143136, Control_c, 0, 64, 0
1, 143142, Note_on_c, 0, 53, 0
1, 143142, Note_on_c, 0, 35, 57
1, 143142, Note_on_c, 0, 47, 67
1, 143159, Note_on_c, 0, 33, 0
1, 143159, Note_on_c, 0, 45, 0
1, 143162, Control_c, 0, 64, 0
1, 143162, Control_c, 0, 64, 0
1, 143213, Note_on_c, 0, 42, 66
1, 143239, Control_c, 0, 64, 0
1, 143239, Control_c, 0, 64, 0
1, 143283, Note_on_c, 0, 42, 0
1, 143283, Note_on_c, 0, 45, 68
1, 143353, Note_on_c, 0, 45, 0
1, 143353, Note_on_c, 0, 51, 71
1, 143423, Note_on_c, 0, 51, 0
1, 143423, Note_on_c, 0, 59, 75
1, 143429, Control_c, 0, 64, 127
1, 143429, Control_c, 0, 64, 127
1, 143493, Note_on_c, 0, 59, 0
1, 143493, Note_on_c, 0, 51, 68
1, 143564, Note_on_c, 0, 51, 0
1, 143564, Note_on_c, 0, 45, 66
1, 143634, Note_on_c, 0, 45, 0
1, 143634, Note_on_c, 0, 42, 63
1, 143669, Control_c, 0, 64, 0
1, 143669, Control_c, 0, 64, 0
1, 143704, Control_c, 0, 64, 127
1, 143704, Control_c, 0, 64, 0
1, 143704, Control_c, 0, 64, 0
1, 143707, Note_on_c, 0, 42, 0
1, 143707, Control_c, 0, 64, 0
1, 143707, Control_c, 0, 64, 127
1, 143710, Control_c, 0, 64, 0
1, 143710, Control_c, 0, 64, 0
1, 143710, Control_c, 0, 64, 0
1, 143713, Control_c, 0, 64, 0
1, 143713, Control_c, 0, 64, 0
1, 143713, Control_c, 0, 64, 0
1, 143716, Control_c, 0, 64, 0
1, 143716, Note_on_c, 0, 28, 52
1, 143716, Note_on_c, 0, 40, 64
1, 143724, Note_on_c, 0, 35, 0
1, 143724, Note_on_c, 0, 47, 0
1, 143790, Note_on_c, 0, 44, 64
1, 143798, Control_c, 0, 64, 0
1, 143798, Control_c, 0, 64, 0
1, 143835, Control_c, 0, 64, 0
1, 143835, Control_c, 0, 64, 0
1, 143865, Note_on_c, 0, 44, 0
1, 143865, Note_on_c, 0, 47, 69
1, 143940, Note_on_c, 0, 47, 0
1, 143940, Note_on_c, 0, 52, 73
1, 144015, Note_on_c, 0, 52, 0
1, 144015, Note_on_c, 0, 59, 77
1, 144028, Control_c, 0, 64, 127
1, 144028, Control_c, 0, 64, 127
1, 144090, Note_on_c, 0, 59, 0
1, 144090, Note_on_c, 0, 52, 73
1, 144165, Note_on_c, 0, 52, 0
1, 144165, Note_on_c, 0, 47, 69
1, 144240, Note_on_c, 0, 47, 0
1, 144240, Note_on_c, 0, 44, 64
1, 144315, Note_on_c, 0, 44, 0
1, 144315, Note_on_c, 0, 33, 68
1, 144336, Note_on_c, 0, 28, 0
1, 144336, Note_on_c, 0, 40, 0
1, 144346, Control_c, 0, 64, 0
1, 144346, Control_c, 0, 64, 0
1, 144408, Note_on_c, 0, 45, 64
1, 144483, Note_on_c, 0, 45, 0
1, 144483, Note_on_c, 0, 48, 68
1, 144558, Note_on_c, 0, 48, 0
1, 144558, Note_on_c, 0, 52, 71
1, 144633, Note_on_c, 0, 52, 0
1, 144633, Note_on_c, 0, 60, 73
1, 144643, Control_c, 0, 64, 127
1, 144643, Control_c, 0, 64, 127
1, 144708, Note_on_c, 0, 60, 0
1, 144708, Note_on_c, 0, 52, 71
1, 144783, Note_on_c, 0, 52, 0
1, 144783, Note_on_c, 0, 48, 68
1, 144857, Note_on_c, 0, 48, 0
1, 144857, Note_on_c, 0, 45, 64
1, 144932, Note_on_c, 0, 45, 0
1, 144932, Note_on_c, 0, 40, 67
1, 144947, Control_c, 0, 64, 0
1, 144947, Control_c, 0, 64, 0
1, 144951, Note_on_c, 0, 33, 0
1, 145013, Note_on_c, 0, 44, 64
1, 145093, Note_on_c, 0, 44, 0
1, 145093, Note_on_c, 0, 47, 65
1, 145173, Note_on_c, 0, 47, 0
1, 145173, Note_on_c, 0, 52, 68
1, 145253, Note_on_c, 0, 52, 0
1, 145253, Note_on_c, 0, 59, 72
1, 145291, Control_c, 0, 64, 127
1, 145291, Control_c, 0, 64, 127
1, 145333, Note_on_c, 0, 59, 0
1, 145333, Note_on_c, 0, 52, 68
1, 145420, Note_on_c, 0, 52, 0
1, 145420, Note_on_c, 0, 47, 65
1, 145513, Note_on_c, 0, 47, 0
1, 145513, Note_on_c, 0, 44, 64
1, 145545, Control_c, 0, 64, 0
1, 145545, Control_c, 0, 64, 0
1, 145621, Note_on_c, 0, 44, 0
1, 145621, Note_on_c, 0, 28, 57
1, 145647, Note_on_c, 0, 40, 0
1, 146070, Note_on_c, 0, 28, 0
1, 146334, Control_c, 0, 64, 0
1, 146334, Control_c, 0, 64, 0
1, 146334, Control_c, 0, 64, 0
1, 146337, Note_on_c, 0, 61, 71
1, 146475, Note_on_c, 0, 64, 64
1, 146519, Control_c, 0, 64, 127
1, 146519, Control_c, 0, 64, 127
1, 146568, Note_on_c, 0, 73, 62
1, 146655, Note_on_c, 0, 73, 0
1, 146655, Note_on_c, 0, 75, 60
1, 146741, Note_on_c, 0, 75, 0
1, 146741, Note_on_c, 0, 64, 0
1, 146741, Note_on_c, 0, 76, 62
1, 146827, Note_on_c, 0, 76, 0
1, 146827, Note_on_c, 0, 75, 62
1, 146908, Note_on_c, 0, 75, 0
1, 146908, Note_on_c, 0, 73, 59
1, 146918, Control_c, 0, 64, 127
1, 146918, Control_c, 0, 64, 127
1, 146988, Note_on_c, 0, 73, 0
1, 146988, Note_on_c, 0, 64, 53
1, 147063, Note_on_c, 0, 64, 0
1, 147063, Note_on_c, 0, 57, 74
1, 147074, Note_on_c, 0, 61, 0
1, 147138, Note_on_c, 0, 66, 72
1, 147208, Note_on_c, 0, 73, 67
1, 147278, Note_on_c, 0, 73, 0
1, 147278, Note_on_c, 0, 75, 61
1, 147348, Note_on_c, 0, 75, 0
1, 147348, Note_on_c, 0, 66, 0
1, 147348, Note_on_c, 0, 76, 65
1, 147418, Note_on_c, 0, 76, 0
1, 147418, Note_on_c, 0, 75, 66
1, 147489, Note_on_c, 0, 75, 0
1, 147489, Note_on_c, 0, 73, 68
1, 147559, Note_on_c, 0, 73, 0
1, 147559, Note_on_c, 0, 66, 59
1, 147582, Control_c, 0, 64, 127
1, 147582, Control_c, 0, 64, 127
1, 147629, Note_on_c, 0, 66, 0
1, 147629, Note_on_c, 0, 52, 77
1, 147642, Note_on_c, 0, 57, 0
1, 147709, Note_on_c, 0, 67, 76
1, 147712, Control_c, 0, 64, 127
1, 147712, Control_c, 0, 64, 127
1, 147742, Control_c, 0, 64, 0
1, 147742, Control_c, 0, 64, 0
1, 147772, Control_c, 0, 64, 127
1, 147772, Control_c, 0, 64, 127
1, 147790, Note_on_c, 0, 73, 69
1, 147860, Note_on_c, 0, 73, 0
1, 147860, Note_on_c, 0, 75, 69
1, 147930, Note_on_c, 0, 75, 0
1, 147930, Note_on_c, 0, 67, 0
1, 147930, Note_on_c, 0, 76, 67
1, 148000, Note_on_c, 0, 76, 0
1, 148000, Note_on_c, 0, 75, 66
1, 148070, Note_on_c, 0, 75, 0
1, 148070, Note_on_c, 0, 73, 66
1, 148084, Control_c, 0, 64, 127
1, 148084, Control_c, 0, 64, 127
1, 148141, Note_on_c, 0, 73, 0
1, 148141, Note_on_c, 0, 67, 59
1, 148211, Note_on_c, 0, 67, 0
1, 148211, Note_on_c, 0, 49, 79
1, 148222, Note_on_c, 0, 52, 0
1, 148273, Control_c, 0, 64, 0
1, 148273, Control_c, 0, 64, 0
1, 148281, Note_on_c, 0, 68, 70
1, 148316, Control_c, 0, 64, 127
1, 148316, Control_c, 0, 64, 127
1, 148351, Note_on_c, 0, 73, 65
1, 148421, Note_on_c, 0, 73, 0
1, 148421, Note_on_c, 0, 75, 68
1, 148492, Note_on_c, 0, 75, 0
1, 148492, Note_on_c, 0, 68, 0
1, 148492, Note_on_c, 0, 76, 64
1, 148562, Note_on_c, 0, 76, 0
1, 148562, Note_on_c, 0, 75, 64
1, 148632, Note_on_c, 0, 75, 0
1, 148632, Note_on_c, 0, 73, 68
1, 148702, Note_on_c, 0, 73, 0
1, 148702, Note_on_c, 0, 68, 61
1, 148747, Control_c, 0, 64, 0
1, 148747, Control_c, 0, 64, 0
1, 148772, Note_on_c, 0, 68, 0
1, 148772, Control_c, 0, 64, 0
1, 148772, Control_c, 0, 64, 0
1, 148775, Control_c, 0, 64, 0
1, 148775, Control_c, 0, 64, 0
1, 148775, Control_c, 0, 64, 0
1, 148778, Note_on_c, 0, 54, 76
1, 148785, Note_on_c, 0, 49, 0
1, 148853, Note_on_c, 0, 69, 75
1, 148890, Control_c, 0, 64, 127
1, 148890, Control_c, 0, 64, 127
1, 148933, Note_on_c, 0, 69, 0
1, 148933, Note_on_c, 0, 78, 63
1, 149003, Note_on_c, 0, 78, 0
1, 149003, Note_on_c, 0, 80, 64
1, 149073, Note_on_c, 0, 80, 0
1, 149073, Note_on_c, 0, 81, 65
1, 149143, Note_on_c, 0, 81, 0
1, 149143, Note_on_c, 0, 80, 63
1, 149214, Note_on_c, 0, 80, 0
1, 149214, Note_on_c, 0, 78, 66
1, 149223, Control_c, 0, 64, 127
1, 149223, Control_c, 0, 64, 127
1, 149284, Note_on_c, 0, 78, 0
1, 149284, Note_on_c, 0, 69, 57
1, 149354, Note_on_c, 0, 69, 0
1, 149354, Note_on_c, 0, 50, 81
1, 149365, Note_on_c, 0, 54, 0
1, 149424, Note_on_c, 0, 71, 81
1, 149494, Note_on_c, 0, 71, 0
1, 149494, Note_on_c, 0, 78, 68
1, 149565, Note_on_c, 0, 78, 0
1, 149565, Note_on_c, 0, 80, 70
1, 149635, Note_on_c, 0, 80, 0
1, 149635, Note_on_c, 0, 81, 72
1, 149705, Note_on_c, 0, 81, 0
1, 149705, Note_on_c, 0, 80, 72
1, 149775, Note_on_c, 0, 80, 0
1, 149775, Note_on_c, 0, 78, 75
1, 149799, Control_c, 0, 64, 127
1, 149799, Control_c, 0, 64, 127
1, 149845, Note_on_c, 0, 78, 0
1, 149845, Note_on_c, 0, 71, 59
1, 149916, Note_on_c, 0, 71, 0
1, 149916, Note_on_c, 0, 45, 81
1, 149927, Note_on_c, 0, 50, 0
1, 149975, Control_c, 0, 64, 0
1, 149975, Control_c, 0, 64, 0
1, 149990, Note_on_c, 0, 72, 79
1, 150011, Control_c, 0, 64, 127
1, 150011, Control_c, 0, 64, 127
1, 150061, Note_on_c, 0, 72, 0
1, 150061, Note_on_c, 0, 78, 69
1, 150131, Note_on_c, 0, 78, 0
1, 150131, Note_on_c, 0, 80, 73
1, 150201, Note_on_c, 0, 80, 0
1, 150201, Note_on_c, 0, 81, 77
1, 150271, Note_on_c, 0, 81, 0
1, 150271, Note_on_c, 0, 80, 68
1, 150341, Note_on_c, 0, 80, 0
1, 150341, Note_on_c, 0, 78, 66
1, 150407, Control_c, 0, 64, 127
1, 150407, Control_c, 0, 64, 127
1, 150412, Note_on_c, 0, 78, 0
1, 150412, Note_on_c, 0, 72, 56
1, 150482, Note_on_c, 0, 72, 0
1, 150482, Note_on_c, 0, 42, 81
1, 150493, Note_on_c, 0, 45, 0
1, 150552, Note_on_c, 0, 73, 78
1, 150552, Control_c, 0, 64, 0
1, 150552, Control_c, 0, 64, 0
1, 150579, Control_c, 0, 64, 127
1, 150579, Control_c, 0, 64, 127
1, 150622, Note_on_c, 0, 73, 0
1, 150622, Note_on_c, 0, 78, 71
1, 150692, Note_on_c, 0, 78, 0
1, 150692, Note_on_c, 0, 80, 69
1, 150763, Note_on_c, 0, 80, 0
1, 150763, Note_on_c, 0, 81, 72
1, 150833, Note_on_c, 0, 81, 0
1, 150833, Note_on_c, 0, 80, 72
1, 150903, Note_on_c, 0, 80, 0
1, 150903, Note_on_c, 0, 78, 69
1, 150973, Note_on_c, 0, 78, 0
1, 150973, Note_on_c, 0, 73, 56
1, 151018, Control_c, 0, 64, 0
1, 151018, Control_c, 0, 64, 0
1, 151043, Control_c, 0, 64, 0
1, 151043, Control_c, 0, 64, 0
1, 151043, Control_c, 0, 64, 0
1, 151046, Note_on_c, 0, 73, 0
1, 151046, Control_c, 0, 64, 0
1, 151046, Control_c, 0, 64, 0
1, 151049, Control_c, 0, 64, 0
1, 151049, Control_c, 0, 64, 0
1, 151049, Control_c, 0, 64, 0
1, 151052, Note_on_c, 0, 44, 82
1, 151057, Note_on_c, 0, 42, 0
1, 151130, Note_on_c, 0, 72, 79
1, 151170, Control_c, 0, 64, 127
1, 151170, Control_c, 0, 64, 127
1, 151216, Note_on_c, 0, 72, 0
1, 151216, Note_on_c, 0, 78, 63
1, 151296, Note_on_c, 0, 78, 0
1, 151296, Note_on_c, 0, 80, 63
1, 151377, Note_on_c, 0, 80, 0
1, 151377, Note_on_c, 0, 81, 64
1, 151452, Note_on_c, 0, 81, 0
1, 151452, Note_on_c, 0, 80, 62
1, 151526, Note_on_c, 0, 80, 0
1, 151526, Note_on_c, 0, 78, 65
1, 151536, Control_c, 0, 64, 127
1, 151536, Control_c, 0, 64, 127
1, 151601, Note_on_c, 0, 78, 0
1, 151601, Note_on_c, 0, 72, 56
1, 151676, Note_on_c, 0, 46, 76
1, 151690, Note_on_c, 0, 44, 0
1, 151763, Note_on_c, 0, 72, 0
1, 151763, Note_on_c, 0, 73, 82
1, 151849, Note_on_c, 0, 78, 66
1, 151924, Note_on_c, 0, 78, 0
1, 151924, Note_on_c, 0, 73, 0
1, 151924, Note_on_c, 0, 80, 67
1, 151999, Note_on_c, 0, 80, 0
1, 151999, Note_on_c, 0, 81, 69
1, 151999, Note_on_c, 0, 48, 74
1, 152010, Note_on_c, 0, 46, 0
1, 152069, Note_on_c, 0, 81, 0
1, 152069, Note_on_c, 0, 80, 69
1, 152139, Note_on_c, 0, 80, 0
1, 152139, Note_on_c, 0, 78, 71
1, 152209, Note_on_c, 0, 78, 0
1, 152209, Note_on_c, 0, 75, 83
1, 152232, Control_c, 0, 64, 127
1, 152232, Control_c, 0, 64, 127
1, 152280, Note_on_c, 0, 49, 71
1, 152291, Note_on_c, 0, 48, 0
1, 152350, Note_on_c, 0, 75, 0
1, 152350, Note_on_c, 0, 73, 84
1, 152370, Control_c, 0, 64, 127
1, 152370, Control_c, 0, 64, 127
1, 152378, Control_c, 0, 64, 0
1, 152378, Control_c, 0, 64, 0
1, 152420, Note_on_c, 0, 76, 65
1, 152420, Control_c, 0, 64, 127
1, 152420, Control_c, 0, 64, 127
1, 152490, Note_on_c, 0, 76, 0
1, 152490, Note_on_c, 0, 73, 0
1, 152490, Note_on_c, 0, 78, 68
1, 152560, Note_on_c, 0, 78, 0
1, 152560, Note_on_c, 0, 80, 71
1, 152631, Note_on_c, 0, 80, 0
1, 152631, Note_on_c, 0, 78, 68
1, 152701, Note_on_c, 0, 78, 0
1, 152701, Note_on_c, 0, 76, 66
1, 152771, Note_on_c, 0, 76, 0
1, 152771, Note_on_c, 0, 73, 56
1, 152841, Note_on_c, 0, 80, 74
1, 152841, Control_c, 0, 64, 0
1, 152841, Note_on_c, 0, 52, 80
1, 152841, Control_c, 0, 64, 0
1, 152852, Note_on_c, 0, 49, 0
1, 152895, Control_c, 0, 64, 127
1, 152895, Control_c, 0, 64, 127
1, 152911, Note_on_c, 0, 73, 0
1, 152911, Note_on_c, 0, 80, 0
1, 152911, Note_on_c, 0, 71, 83
1, 152998, Note_on_c, 0, 76, 71
1, 153084, Note_on_c, 0, 76, 0
1, 153084, Note_on_c, 0, 71, 0
1, 153084, Note_on_c, 0, 78, 69
1, 153159, Note_on_c, 0, 78, 0
1, 153159, Note_on_c, 0, 80, 72
1, 153234, Note_on_c, 0, 80, 0
1, 153234, Note_on_c, 0, 78, 72
1, 153309, Note_on_c, 0, 78, 0
1, 153309, Note_on_c, 0, 76, 69
1, 153384, Note_on_c, 0, 76, 0
1, 153384, Note_on_c, 0, 69, 78
1, 153485, Control_c, 0, 64, 0
1, 153485, Control_c, 0, 64, 0
1, 153544, Control_c, 0, 64, 127
1, 153544, Control_c, 0, 64, 127
1, 153544, Control_c, 0, 64, 0
1, 153547, Note_on_c, 0, 56, 70
1, 153547, Note_on_c, 0, 68, 82
1, 153569, Note_on_c, 0, 52, 0
1, 153705, Note_on_c, 0, 69, 0
1, 153705, Note_on_c, 0, 72, 68
1, 153712, Control_c, 0, 64, 0
1, 153712, Control_c, 0, 64, 0
1, 153758, Control_c, 0, 64, 127
1, 153758, Control_c, 0, 64, 127
1, 153779, Note_on_c, 0, 72, 0
1, 153779, Note_on_c, 0, 80, 72
1, 153854, Note_on_c, 0, 80, 0
1, 153854, Note_on_c, 0, 82, 76
1, 153929, Note_on_c, 0, 82, 0
1, 153929, Note_on_c, 0, 84, 80
1, 153999, Note_on_c, 0, 84, 0
1, 153999, Note_on_c, 0, 82, 79
1, 154070, Note_on_c, 0, 82, 0
1, 154070, Note_on_c, 0, 80, 74
1, 154140, Note_on_c, 0, 80, 0
1, 154140, Note_on_c, 0, 75, 68
1, 154210, Note_on_c, 0, 75, 0
1, 154210, Note_on_c, 0, 64, 76
1, 154210, Note_on_c, 0, 76, 91
1, 154230, Note_on_c, 0, 56, 0
1, 154230, Note_on_c, 0, 68, 0
1, 154230, Control_c, 0, 64, 127
1, 154230, Control_c, 0, 64, 127
1, 154241, Control_c, 0, 64, 0
1, 154241, Control_c, 0, 64, 0
1, 154304, Note_on_c, 0, 73, 71
1, 154310, Control_c, 0, 64, 127
1, 154310, Control_c, 0, 64, 127
1, 154397, Note_on_c, 0, 73, 0
1, 154397, Note_on_c, 0, 79, 75
1, 154477, Note_on_c, 0, 79, 0
1, 154477, Note_on_c, 0, 80, 79
1, 154558, Note_on_c, 0, 80, 0
1, 154558, Note_on_c, 0, 82, 83
1, 154628, Note_on_c, 0, 82, 0
1, 154628, Note_on_c, 0, 80, 79
1, 154698, Note_on_c, 0, 80, 0
1, 154698, Note_on_c, 0, 79, 75
1, 154768, Note_on_c, 0, 79, 0
1, 154768, Note_on_c, 0, 73, 71
1, 154825, Control_c, 0, 64, 0
1, 154825, Control_c, 0, 64, 0
1, 154839, Note_on_c, 0, 73, 0
1, 154839, Note_on_c, 0, 63, 72
1, 154839, Note_on_c, 0, 75, 84
1, 154856, Note_on_c, 0, 64, 0
1, 154856, Note_on_c, 0, 76, 0
1, 154880, Control_c, 0, 64, 127
1, 154880, Control_c, 0, 64, 127
1, 154913, Note_on_c, 0, 72, 68
1, 154988, Note_on_c, 0, 72, 0
1, 154988, Note_on_c, 0, 78, 70
1, 155063, Note_on_c, 0, 78, 0
1, 155063, Note_on_c, 0, 80, 73
1, 155133, Note_on_c, 0, 80, 0
1, 155133, Note_on_c, 0, 81, 75
1, 155204, Note_on_c, 0, 81, 0
1, 155204, Note_on_c, 0, 80, 73
1, 155274, Note_on_c, 0, 80, 0
1, 155274, Note_on_c, 0, 78, 70
1, 155344, Note_on_c, 0, 78, 0
1, 155344, Note_on_c, 0, 72, 68
1, 155408, Control_c, 0, 64, 0
1, 155408, Control_c, 0, 64, 0
1, 155414, Note_on_c, 0, 72, 0
1, 155414, Note_on_c, 0, 56, 60
1, 155414, Note_on_c, 0, 68, 71
1, 155433, Note_on_c, 0, 63, 0
1, 155433, Note_on_c, 0, 75, 0
1, 155456, Control_c, 0, 64, 127
1, 155456, Control_c, 0, 64, 127
1, 155494, Note_on_c, 0, 60, 63
1, 155575, Note_on_c, 0, 60, 0
1, 155575, Note_on_c, 0, 66, 65
1, 155655, Note_on_c, 0, 66, 0
1, 155655, Note_on_c, 0, 68, 68
1, 155735, Note_on_c, 0, 68, 0
1, 155735, Note_on_c, 0, 69, 68
1, 155815, Note_on_c, 0, 69, 0
1, 155815, Note_on_c, 0, 68, 65
1, 155902, Note_on_c, 0, 68, 0
1, 155902, Note_on_c, 0, 66, 63
1, 155988, Note_on_c, 0, 66, 0
1, 155988, Note_on_c, 0, 60, 60
1, 156032, Control_c, 0, 64, 0
1, 156032, Control_c, 0, 64, 0
1, 156074, Note_on_c, 0, 60, 0
1, 156074, Control_c, 0, 64, 0
1, 156074, Control_c, 0, 64, 0
1, 156077, Control_c, 0, 64, 0
1, 156077, Note_on_c, 0, 61, 71
1, 156096, Note_on_c, 0, 56, 0
1, 156096, Note_on_c, 0, 68, 0
1, 156168, Note_on_c, 0, 64, 73
1, 156212, Control_c, 0, 64, 127
1, 156212, Control_c, 0, 64, 127
1, 156262, Note_on_c, 0, 73, 65
1, 156348, Note_on_c, 0, 73, 0
1, 156348, Note_on_c, 0, 75, 63
1, 156434, Note_on_c, 0, 75, 0
1, 156434, Note_on_c, 0, 64, 0
1, 156434, Note_on_c, 0, 76, 66
1, 156521, Note_on_c, 0, 76, 0
1, 156521, Note_on_c, 0, 75, 65
1, 156601, Note_on_c, 0, 75, 0
1, 156601, Note_on_c, 0, 73, 62
1, 156612, Control_c, 0, 64, 127
1, 156612, Control_c, 0, 64, 127
1, 156681, Note_on_c, 0, 73, 0
1, 156681, Note_on_c, 0, 64, 55
1, 156756, Note_on_c, 0, 64, 0
1, 156756, Note_on_c, 0, 57, 75
1, 156768, Note_on_c, 0, 61, 0
1, 156831, Note_on_c, 0, 66, 76
1, 156901, Note_on_c, 0, 73, 70
1, 156972, Note_on_c, 0, 73, 0
1, 156972, Note_on_c, 0, 75, 63
1, 157042, Note_on_c, 0, 75, 0
1, 157042, Note_on_c, 0, 66, 0
1, 157042, Note_on_c, 0, 76, 68
1, 157112, Note_on_c, 0, 76, 0
1, 157112, Note_on_c, 0, 75, 68
1, 157182, Note_on_c, 0, 75, 0
1, 157182, Note_on_c, 0, 73, 70
1, 157252, Note_on_c, 0, 73, 0
1, 157252, Note_on_c, 0, 66, 61
1, 157275, Control_c, 0, 64, 127
1, 157275, Control_c, 0, 64, 127
1, 157323, Note_on_c, 0, 66, 0
1, 157323, Note_on_c, 0, 52, 78
1, 157335, Note_on_c, 0, 57, 0
1, 157403, Note_on_c, 0, 67, 79
1, 157406, Control_c, 0, 64, 127
1, 157406, Control_c, 0, 64, 127
1, 157435, Control_c, 0, 64, 0
1, 157435, Control_c, 0, 64, 0
1, 157465, Control_c, 0, 64, 127
1, 157465, Control_c, 0, 64, 127
1, 157483, Note_on_c, 0, 73, 72
1, 157553, Note_on_c, 0, 73, 0
1, 157553, Note_on_c, 0, 75, 72
1, 157623, Note_on_c, 0, 75, 0
1, 157623, Note_on_c, 0, 67, 0
1, 157623, Note_on_c, 0, 76, 70
1, 157694, Note_on_c, 0, 76, 0
1, 157694, Note_on_c, 0, 75, 69
1, 157764, Note_on_c, 0, 75, 0
1, 157764, Note_on_c, 0, 73, 69
1, 157777, Control_c, 0, 64, 127
1, 157777, Control_c, 0, 64, 127
1, 157834, Note_on_c, 0, 73, 0
1, 157834, Note_on_c, 0, 67, 62
1, 157904, Note_on_c, 0, 67, 0
1, 157904, Note_on_c, 0, 49, 81
1, 157915, Note_on_c, 0, 52, 0
1, 157967, Control_c, 0, 64, 0
1, 157967, Control_c, 0, 64, 0
1, 157974, Note_on_c, 0, 68, 79
1, 158009, Control_c, 0, 64, 127
1, 158009, Control_c, 0, 64, 127
1, 158045, Note_on_c, 0, 73, 69
1, 158115, Note_on_c, 0, 73, 0
1, 158115, Note_on_c, 0, 75, 73
1, 158185, Note_on_c, 0, 75, 0
1, 158185, Note_on_c, 0, 68, 0
1, 158185, Note_on_c, 0, 76, 68
1, 158255, Note_on_c, 0, 76, 0
1, 158255, Note_on_c, 0, 75, 68
1, 158325, Note_on_c, 0, 75, 0
1, 158325, Note_on_c, 0, 73, 73
1, 158396, Note_on_c, 0, 73, 0
1, 158396, Note_on_c, 0, 68, 65
1, 158440, Control_c, 0, 64, 0
1, 158440, Control_c, 0, 64, 0
1, 158466, Note_on_c, 0, 68, 0
1, 158466, Control_c, 0, 64, 127
1, 158466, Control_c, 0, 64, 0
1, 158469, Control_c, 0, 64, 127
1, 158469, Control_c, 0, 64, 0
1, 158469, Control_c, 0, 64, 0
1, 158472, Control_c, 0, 64, 0
1, 158472, Note_on_c, 0, 45, 70
1, 158472, Note_on_c, 0, 57, 82
1, 158478, Note_on_c, 0, 49, 0
1, 158546, Note_on_c, 0, 61, 68
1, 158553, Control_c, 0, 64, 0
1, 158553, Control_c, 0, 64, 0
1, 158596, Control_c, 0, 64, 127
1, 158596, Control_c, 0, 64, 127
1, 158616, Note_on_c, 0, 61, 0
1, 158616, Note_on_c, 0, 64, 74
1, 158686, Note_on_c, 0, 64, 0
1, 158686, Note_on_c, 0, 69, 79
1, 158757, Note_on_c, 0, 69, 0
1, 158757, Note_on_c, 0, 76, 90
1, 158827, Note_on_c, 0, 76, 0
1, 158827, Note_on_c, 0, 69, 79
1, 158897, Note_on_c, 0, 69, 0
1, 158897, Note_on_c, 0, 64, 74
1, 158967, Note_on_c, 0, 64, 0
1, 158967, Note_on_c, 0, 61, 68
1, 159037, Note_on_c, 0, 61, 0
1, 159037, Note_on_c, 0, 40, 71
1, 159037, Note_on_c, 0, 52, 83
1, 159051, Note_on_c, 0, 57, 0
1, 159051, Note_on_c, 0, 45, 0
1, 159056, Control_c, 0, 64, 127
1, 159056, Control_c, 0, 64, 127
1, 159066, Control_c, 0, 64, 0
1, 159066, Control_c, 0, 64, 0
1, 159124, Note_on_c, 0, 59, 71
1, 159130, Control_c, 0, 64, 127
1, 159130, Control_c, 0, 64, 127
1, 159210, Note_on_c, 0, 59, 0
1, 159210, Note_on_c, 0, 64, 75
1, 159280, Note_on_c, 0, 64, 0
1, 159280, Note_on_c, 0, 68, 79
1, 159351, Note_on_c, 0, 68, 0
1, 159351, Note_on_c, 0, 76, 88
1, 159421, Note_on_c, 0, 76, 0
1, 159421, Note_on_c, 0, 68, 79
1, 159491, Note_on_c, 0, 68, 0
1, 159491, Note_on_c, 0, 64, 75
1, 159561, Note_on_c, 0, 64, 0
1, 159561, Note_on_c, 0, 59, 71
1, 159618, Control_c, 0, 64, 0
1, 159618, Control_c, 0, 64, 0
1, 159631, Note_on_c, 0, 59, 0
1, 159631, Note_on_c, 0, 37, 70
1, 159631, Note_on_c, 0, 49, 82
1, 159645, Note_on_c, 0, 40, 0
1, 159645, Note_on_c, 0, 52, 0
1, 159679, Control_c, 0, 64, 127
1, 159679, Control_c, 0, 64, 127
1, 159718, Note_on_c, 0, 58, 74
1, 159804, Note_on_c, 0, 58, 0
1, 159804, Note_on_c, 0, 64, 76
1, 159874, Note_on_c, 0, 64, 0
1, 159874, Note_on_c, 0, 66, 79
1, 159945, Note_on_c, 0, 66, 0
1, 159945, Note_on_c, 0, 76, 91
1, 160015, Note_on_c, 0, 76, 0
1, 160015, Note_on_c, 0, 66, 79
1, 160085, Note_on_c, 0, 66, 0
1, 160085, Note_on_c, 0, 64, 76
1, 160155, Note_on_c, 0, 64, 0
1, 160155, Note_on_c, 0, 58, 74
1, 160219, Control_c, 0, 64, 0
1, 160219, Control_c, 0, 64, 0
1, 160225, Note_on_c, 0, 58, 0
1, 160225, Note_on_c, 0, 34, 68
1, 160225, Note_on_c, 0, 46, 80
1, 160239, Note_on_c, 0, 37, 0
1, 160239, Note_on_c, 0, 49, 0
1, 160271, Control_c, 0, 64, 127
1, 160271, Control_c, 0, 64, 127
1, 160312, Note_on_c, 0, 61, 75
1, 160382, Note_on_c, 0, 61, 0
1, 160382, Note_on_c, 0, 64, 77
1, 160452, Note_on_c, 0, 64, 0
1, 160452, Note_on_c, 0, 66, 80
1, 160522, Note_on_c, 0, 66, 0
1, 160522, Note_on_c, 0, 76, 90
1, 160593, Note_on_c, 0, 76, 0
1, 160593, Note_on_c, 0, 66, 77
1, 160663, Note_on_c, 0, 66, 0
1, 160663, Note_on_c, 0, 64, 75
1, 160733, Note_on_c, 0, 64, 0
1, 160733, Note_on_c, 0, 61, 72
1, 160769, Control_c, 0, 64, 0
1, 160769, Control_c, 0, 64, 0
1, 160803, Control_c, 0, 64, 127
1, 160803, Control_c, 0, 64, 0
1, 160803, Control_c, 0, 64, 0
1, 160806, Note_on_c, 0, 61, 0
1, 160806, Control_c, 0, 64, 127
1, 160806, Control_c, 0, 64, 0
1, 160809, Control_c, 0, 64, 0
1, 160809, Control_c, 0, 64, 0
1, 160809, Control_c, 0, 64, 0
1, 160812, Note_on_c, 0, 34, 0
1, 160812, Note_on_c, 0, 46, 0
1, 160812, Control_c, 0, 64, 0
1, 160812, Note_on_c, 0, 35, 70
1, 160812, Note_on_c, 0, 47, 82
1, 160873, Note_on_c, 0, 59, 71
1, 160881, Control_c, 0, 64, 0
1, 160881, Control_c, 0, 64, 0
1, 160924, Control_c, 0, 64, 127
1, 160924, Control_c, 0, 64, 127
1, 160944, Note_on_c, 0, 59, 0
1, 160944, Note_on_c, 0, 64, 77
1, 161014, Note_on_c, 0, 64, 0
1, 161014, Note_on_c, 0, 68, 82
1, 161084, Note_on_c, 0, 68, 0
1, 161084, Note_on_c, 0, 76, 87
1, 161154, Note_on_c, 0, 76, 0
1, 161154, Note_on_c, 0, 68, 82
1, 161224, Note_on_c, 0, 68, 0
1, 161224, Note_on_c, 0, 64, 77
1, 161295, Note_on_c, 0, 64, 0
1, 161295, Note_on_c, 0, 59, 71
1, 161365, Note_on_c, 0, 59, 0
1, 161365, Note_on_c, 0, 36, 68
1, 161365, Note_on_c, 0, 48, 80
1, 161380, Note_on_c, 0, 47, 0
1, 161380, Note_on_c, 0, 35, 0
1, 161380, Control_c, 0, 64, 127
1, 161380, Control_c, 0, 64, 127
1, 161388, Control_c, 0, 64, 0
1, 161388, Control_c, 0, 64, 0
1, 161435, Note_on_c, 0, 55, 71
1, 161440, Control_c, 0, 64, 127
1, 161440, Control_c, 0, 64, 127
1, 161505, Note_on_c, 0, 55, 0
1, 161505, Note_on_c, 0, 60, 75
1, 161575, Note_on_c, 0, 60, 0
1, 161575, Note_on_c, 0, 64, 79
1, 161646, Note_on_c, 0, 64, 0
1, 161646, Note_on_c, 0, 72, 82
1, 161716, Note_on_c, 0, 72, 0
1, 161716, Note_on_c, 0, 64, 79
1, 161786, Note_on_c, 0, 64, 0
1, 161786, Note_on_c, 0, 60, 75
1, 161856, Note_on_c, 0, 60, 0
1, 161856, Note_on_c, 0, 55, 71
1, 161913, Control_c, 0, 64, 0
1, 161913, Control_c, 0, 64, 0
1, 161926, Note_on_c, 0, 55, 0
1, 161926, Note_on_c, 0, 33, 67
1, 161926, Note_on_c, 0, 45, 78
1, 161947, Note_on_c, 0, 36, 0
1, 161947, Note_on_c, 0, 48, 0
1, 161974, Control_c, 0, 64, 127
1, 161974, Control_c, 0, 64, 127
1, 162013, Note_on_c, 0, 53, 70
1, 162099, Note_on_c, 0, 53, 0
1, 162099, Note_on_c, 0, 57, 72
1, 162169, Note_on_c, 0, 57, 0
1, 162169, Note_on_c, 0, 60, 75
1, 162240, Note_on_c, 0, 60, 0
1, 162240, Note_on_c, 0, 69, 81
1, 162310, Note_on_c, 0, 69, 0
1, 162310, Note_on_c, 0, 60, 75
1, 162380, Note_on_c, 0, 60, 0
1, 162380, Note_on_c, 0, 57, 72
1, 162450, Note_on_c, 0, 57, 0
1, 162450, Note_on_c, 0, 53, 70
1, 162514, Control_c, 0, 64, 0
1, 162514, Control_c, 0, 64, 0
1, 162520, Note_on_c, 0, 53, 0
1, 162520, Note_on_c, 0, 35, 57
1, 162520, Note_on_c, 0, 47, 67
1, 162537, Note_on_c, 0, 33, 0
1, 162537, Note_on_c, 0, 45, 0
1, 162540, Control_c, 0, 64, 0
1, 162540, Control_c, 0, 64, 0
1, 162591, Note_on_c, 0, 42, 66
1, 162617, Control_c, 0, 64, 0
1, 162617, Control_c, 0, 64, 0
1, 162661, Note_on_c, 0, 42, 0
1, 162661, Note_on_c, 0, 45, 68
1, 162731, Note_on_c, 0, 45, 0
1, 162731, Note_on_c, 0, 51, 71
1, 162801, Note_on_c, 0, 51, 0
1, 162801, Note_on_c, 0, 59, 75
1, 162807, Control_c, 0, 64, 127
1, 162807, Control_c, 0, 64, 127
1, 162871, Note_on_c, 0, 59, 0
1, 162871, Note_on_c, 0, 51, 68
1, 162942, Note_on_c, 0, 51, 0
1, 162942, Note_on_c, 0, 45, 66
1, 163012, Note_on_c, 0, 45, 0
1, 163012, Note_on_c, 0, 42, 63
1, 163047, Control_c, 0, 64, 0
1, 163047, Control_c, 0, 64, 0
1, 163082, Control_c, 0, 64, 127
1, 163082, Control_c, 0, 64, 0
1, 163082, Control_c, 0, 64, 0
1, 163085, Note_on_c, 0, 42, 0
1, 163085, Control_c, 0, 64, 0
1, 163085, Control_c, 0, 64, 127
1, 163088, Control_c, 0, 64, 0
1, 163088, Control_c, 0, 64, 0
1, 163088, Control_c, 0, 64, 0
1, 163091, Control_c, 0, 64, 0
1, 163091, Control_c, 0, 64, 0
1, 163091, Control_c, 0, 64, 0
1, 163094, Control_c, 0, 64, 0
1, 163094, Note_on_c, 0, 28, 52
1, 163094, Note_on_c, 0, 40, 64
1, 163102, Note_on_c, 0, 35, 0
1, 163102, Note_on_c, 0, 47, 0
1, 163168, Note_on_c, 0, 44, 64
1, 163176, Control_c, 0, 64, 0
1, 163176, Control_c, 0, 64, 0
1, 163213, Control_c, 0, 64, 0
1, 163213, Control_c, 0, 64, 0
1, 163243, Note_on_c, 0, 44, 0
1, 163243, Note_on_c, 0, 47, 69
1, 163318, Note_on_c, 0, 47, 0
1, 163318, Note_on_c, 0, 52, 73
1, 163393, Note_on_c, 0, 52, 0
1, 163393, Note_on_c, 0, 59, 77
1, 163406, Control_c, 0, 64, 127
1, 163406, Control_c, 0, 64, 127
1, 163468, Note_on_c, 0, 59, 0
1, 163468, Note_on_c, 0, 52, 73
1, 163543, Note_on_c, 0, 52, 0
1, 163543, Note_on_c, 0, 47, 69
1, 163618, Note_on_c, 0, 47, 0
1, 163618, Note_on_c, 0, 44, 64
1, 163693, Note_on_c, 0, 44, 0
1, 163693, Note_on_c, 0, 33, 68
1, 163714, Note_on_c, 0, 28, 0
1, 163714, Note_on_c, 0, 40, 0
1, 163724, Control_c, 0, 64, 0
1, 163724, Control_c, 0, 64, 0
1, 163786, Note_on_c, 0, 45, 64
1, 163861, Note_on_c, 0, 45, 0
1, 163861, Note_on_c, 0, 48, 68
1, 163936, Note_on_c, 0, 48, 0
1, 163936, Note_on_c, 0, 52, 71
1, 164011, Note_on_c, 0, 52, 0
1, 164011, Note_on_c, 0, 60, 73
1, 164021, Control_c, 0, 64, 127
1, 164021, Control_c, 0, 64, 127
1, 164086, Note_on_c, 0, 60, 0
1, 164086, Note_on_c, 0, 52, 71
1, 164161, Note_on_c, 0, 52, 0
1, 164161, Note_on_c, 0, 48, 68
1, 164235, Note_on_c, 0, 48, 0
1, 164235, Note_on_c, 0, 45, 64
1, 164310, Note_on_c, 0, 45, 0
1, 164310, Note_on_c, 0, 40, 67
1, 164325, Control_c, 0, 64, 0
1, 164325, Control_c, 0, 64, 0
1, 164329, Note_on_c, 0, 33, 0
1, 164391, Note_on_c, 0, 44, 64
1, 164471, Note_on_c, 0, 44, 0
1, 164471, Note_on_c, 0, 47, 65
1, 164551, Note_on_c, 0, 47, 0
1, 164551, Note_on_c, 0, 52, 68
1, 164631, Note_on_c, 0, 52, 0
1, 164631, Note_on_c, 0, 59, 72
1, 164669, Control_c, 0, 64, 127
1, 164669, Control_c, 0, 64, 127
1, 164711, Note_on_c, 0, 59, 0
1, 164711, Note_on_c, 0, 52, 68
1, 164798, Note_on_c, 0, 52, 0
1, 164798, Note_on_c, 0, 47, 65
1, 164891, Note_on_c, 0, 47, 0
1, 164891, Note_on_c, 0, 44, 64
1, 164924, Control_c, 0, 64, 0
1, 164924, Control_c, 0, 64, 0
1, 164999, Note_on_c, 0, 44, 0
1, 164999, Note_on_c, 0, 28, 57
1, 165025, Note_on_c, 0, 40, 0
1, 165448, Note_on_c, 0, 28, 0
1, 165712, Control_c, 0, 64, 0
1, 165712, Note_on_c, 0, 63, 70
1, 165712, Note_on_c, 0, 66, 70
1, 165715, Note_on_c, 0, 75, 86
1, 165715, Control_c, 0, 64, 0
1, 165715, Control_c, 0, 64, 0
1, 165764, Control_c, 0, 64, 0
1, 165764, Control_c, 0, 64, 0
1, 165853, Note_on_c, 0, 48, 68
1, 165923, Note_on_c, 0, 54, 62
1, 165929, Control_c, 0, 64, 127
1, 165929, Control_c, 0, 64, 127
1, 165993, Note_on_c, 0, 54, 0
1, 165993, Note_on_c, 0, 56, 62
1, 166063, Note_on_c, 0, 56, 0
1, 166063, Note_on_c, 0, 48, 0
1, 166063, Note_on_c, 0, 57, 62
1, 166133, Note_on_c, 0, 57, 0
1, 166133, Note_on_c, 0, 56, 63
1, 166204, Note_on_c, 0, 56, 0
1, 166204, Note_on_c, 0, 54, 64
1, 166247, Control_c, 0, 64, 127
1, 166247, Control_c, 0, 64, 127
1, 166274, Note_on_c, 0, 54, 0
1, 166274, Note_on_c, 0, 48, 56
1, 166344, Note_on_c, 0, 69, 78
1, 166344, Note_on_c, 0, 78, 78
1, 166344, Note_on_c, 0, 81, 92
1, 166366, Note_on_c, 0, 75, 0
1, 166366, Note_on_c, 0, 63, 0
1, 166366, Note_on_c, 0, 66, 0
1, 166443, Note_on_c, 0, 48, 0
1, 166484, Note_on_c, 0, 49, 70
1, 166498, Control_c, 0, 64, 0
1, 166498, Control_c, 0, 64, 0
1, 166555, Note_on_c, 0, 54, 62
1, 166584, Control_c, 0, 64, 127
1, 166584, Control_c, 0, 64, 127
1, 166625, Note_on_c, 0, 54, 0
1, 166625, Note_on_c, 0, 56, 62
1, 166695, Note_on_c, 0, 56, 0
1, 166695, Note_on_c, 0, 49, 0
1, 166695, Note_on_c, 0, 57, 64
1, 166765, Note_on_c, 0, 57, 0
1, 166765, Note_on_c, 0, 56, 64
1, 166835, Note_on_c, 0, 56, 0
1, 166835, Note_on_c, 0, 54, 64
1, 166906, Note_on_c, 0, 54, 0
1, 166906, Note_on_c, 0, 49, 56
1, 166920, Control_c, 0, 64, 127
1, 166920, Control_c, 0, 64, 127
1, 166976, Note_on_c, 0, 68, 75
1, 166976, Note_on_c, 0, 72, 75
1, 166976, Note_on_c, 0, 80, 89
1, 166998, Note_on_c, 0, 81, 0
1, 166998, Note_on_c, 0, 69, 0
1, 166998, Note_on_c, 0, 78, 0
1, 167075, Note_on_c, 0, 49, 0
1, 167116, Note_on_c, 0, 50, 71
1, 167119, Control_c, 0, 64, 0
1, 167119, Control_c, 0, 64, 0
1, 167186, Note_on_c, 0, 54, 68
1, 167223, Control_c, 0, 64, 127
1, 167223, Control_c, 0, 64, 127
1, 167257, Note_on_c, 0, 54, 0
1, 167257, Note_on_c, 0, 56, 63
1, 167327, Note_on_c, 0, 56, 0
1, 167327, Note_on_c, 0, 50, 0
1, 167327, Note_on_c, 0, 57, 62
1, 167397, Note_on_c, 0, 57, 0
1, 167397, Note_on_c, 0, 56, 65
1, 167467, Note_on_c, 0, 56, 0
1, 167467, Note_on_c, 0, 54, 69
1, 167537, Note_on_c, 0, 54, 0
1, 167537, Note_on_c, 0, 50, 56
1, 167601, Control_c, 0, 64, 127
1, 167601, Control_c, 0, 64, 127
1, 167608, Note_on_c, 0, 72, 0
1, 167608, Note_on_c, 0, 66, 73
1, 167608, Note_on_c, 0, 72, 73
1, 167611, Note_on_c, 0, 78, 86
1, 167630, Note_on_c, 0, 68, 0
1, 167630, Note_on_c, 0, 80, 0
1, 167706, Note_on_c, 0, 50, 0
1, 167748, Note_on_c, 0, 51, 73
1, 167766, Control_c, 0, 64, 0
1, 167766, Control_c, 0, 64, 0
1, 167818, Note_on_c, 0, 54, 61
1, 167852, Control_c, 0, 64, 127
1, 167852, Control_c, 0, 64, 127
1, 167888, Note_on_c, 0, 54, 0
1, 167888, Note_on_c, 0, 56, 67
1, 167959, Note_on_c, 0, 56, 0
1, 167959, Note_on_c, 0, 51, 0
1, 167959, Note_on_c, 0, 57, 70
1, 168029, Note_on_c, 0, 57, 0
1, 168029, Note_on_c, 0, 56, 64
1, 168099, Note_on_c, 0, 56, 0
1, 168099, Note_on_c, 0, 54, 69
1, 168119, Control_c, 0, 64, 127
1, 168119, Control_c, 0, 64, 127
1, 168169, Note_on_c, 0, 54, 0
1, 168169, Note_on_c, 0, 51, 56
1, 168239, Control_c, 0, 64, 127
1, 168239, Note_on_c, 0, 64, 76
1, 168239, Note_on_c, 0, 73, 76
1, 168242, Note_on_c, 0, 76, 89
1, 168242, Control_c, 0, 64, 127
1, 168242, Control_c, 0, 64, 0
1, 168261, Note_on_c, 0, 66, 0
1, 168261, Note_on_c, 0, 72, 0
1, 168261, Note_on_c, 0, 78, 0
1, 168338, Note_on_c, 0, 51, 0
1, 168360, Control_c, 0, 64, 0
1, 168360, Control_c, 0, 64, 0
1, 168380, Note_on_c, 0, 52, 73
1, 168450, Note_on_c, 0, 61, 67
1, 168456, Control_c, 0, 64, 127
1, 168456, Control_c, 0, 64, 127
1, 168456, Control_c, 0, 64, 127
1, 168459, Control_c, 0, 64, 127
1, 168520, Note_on_c, 0, 61, 0
1, 168520, Note_on_c, 0, 63, 67
1, 168590, Note_on_c, 0, 63, 0
1, 168590, Note_on_c, 0, 52, 0
1, 168590, Note_on_c, 0, 64, 67
1, 168661, Note_on_c, 0, 64, 0
1, 168661, Note_on_c, 0, 63, 68
1, 168731, Note_on_c, 0, 63, 0
1, 168731, Note_on_c, 0, 61, 69
1, 168774, Control_c, 0, 64, 127
1, 168774, Control_c, 0, 64, 127
1, 168801, Note_on_c, 0, 61, 0
1, 168801, Note_on_c, 0, 52, 61
1, 168871, Note_on_c, 0, 76, 0
1, 168871, Note_on_c, 0, 64, 0
1, 168871, Note_on_c, 0, 73, 0
1, 168874, Note_on_c, 0, 73, 83
1, 168874, Note_on_c, 0, 76, 83
1, 168874, Note_on_c, 0, 85, 97
1, 168884, Control_c, 0, 64, 0
1, 168884, Control_c, 0, 64, 0
1, 168954, Control_c, 0, 64, 0
1, 168954, Control_c, 0, 64, 0
1, 168970, Note_on_c, 0, 52, 0
1, 169012, Note_on_c, 0, 54, 75
1, 169025, Control_c, 0, 64, 0
1, 169025, Control_c, 0, 64, 0
1, 169082, Note_on_c, 0, 61, 67
1, 169111, Control_c, 0, 64, 127
1, 169111, Control_c, 0, 64, 127
1, 169111, Control_c, 0, 64, 127
1, 169114, Control_c, 0, 64, 127
1, 169152, Note_on_c, 0, 61, 0
1, 169152, Note_on_c, 0, 63, 67
1, 169222, Note_on_c, 0, 63, 0
1, 169222, Note_on_c, 0, 54, 0
1, 169222, Note_on_c, 0, 64, 69
1, 169292, Note_on_c, 0, 64, 0
1, 169292, Note_on_c, 0, 63, 69
1, 169363, Note_on_c, 0, 63, 0
1, 169363, Note_on_c, 0, 61, 69
1, 169433, Note_on_c, 0, 61, 0
1, 169433, Note_on_c, 0, 54, 61
1, 169447, Control_c, 0, 64, 127
1, 169447, Control_c, 0, 64, 127
1, 169499, Control_c, 0, 64, 0
1, 169499, Control_c, 0, 64, 0
1, 169503, Note_on_c, 0, 76, 0
1, 169503, Note_on_c, 0, 71, 82
1, 169503, Note_on_c, 0, 76, 82
1, 169506, Note_on_c, 0, 83, 98
1, 169525, Note_on_c, 0, 85, 0
1, 169525, Note_on_c, 0, 73, 0
1, 169546, Control_c, 0, 64, 0
1, 169546, Control_c, 0, 64, 0
1, 169602, Note_on_c, 0, 54, 0
1, 169643, Note_on_c, 0, 55, 76
1, 169646, Control_c, 0, 64, 0
1, 169646, Control_c, 0, 64, 0
1, 169714, Note_on_c, 0, 61, 73
1, 169741, Control_c, 0, 64, 127
1, 169741, Control_c, 0, 64, 127
1, 169750, Control_c, 0, 64, 127
1, 169750, Control_c, 0, 64, 127
1, 169784, Note_on_c, 0, 61, 0
1, 169784, Note_on_c, 0, 63, 68
1, 169854, Note_on_c, 0, 63, 0
1, 169854, Note_on_c, 0, 55, 0
1, 169854, Note_on_c, 0, 64, 67
1, 169924, Note_on_c, 0, 64, 0
1, 169924, Note_on_c, 0, 63, 70
1, 169994, Note_on_c, 0, 63, 0
1, 169994, Note_on_c, 0, 61, 74
1, 170065, Note_on_c, 0, 76, 0
1, 170065, Note_on_c, 0, 69, 74
1, 170065, Note_on_c, 0, 76, 74
1, 170068, Note_on_c, 0, 61, 0
1, 170068, Note_on_c, 0, 81, 90
1, 170068, Note_on_c, 0, 55, 61
1, 170081, Note_on_c, 0, 71, 0
1, 170081, Note_on_c, 0, 83, 0
1, 170157, Control_c, 0, 64, 127
1, 170157, Control_c, 0, 64, 127
1, 170167, Note_on_c, 0, 76, 0
1, 170167, Note_on_c, 0, 68, 74
1, 170167, Note_on_c, 0, 76, 74
1, 170170, Note_on_c, 0, 80, 90
1, 170170, Control_c, 0, 64, 0
1, 170170, Control_c, 0, 64, 0
1, 170178, Note_on_c, 0, 69, 0
1, 170178, Note_on_c, 0, 81, 0
1, 170197, Control_c, 0, 64, 0
1, 170197, Control_c, 0, 64, 0
1, 170219, Note_on_c, 0, 55, 0
1, 170242, Note_on_c, 0, 56, 78
1, 170261, Control_c, 0, 64, 0
1, 170261, Control_c, 0, 64, 0
1, 170317, Note_on_c, 0, 61, 66
1, 170353, Control_c, 0, 64, 127
1, 170353, Control_c, 0, 64, 127
1, 170353, Control_c, 0, 64, 127
1, 170356, Control_c, 0, 64, 127
1, 170391, Note_on_c, 0, 61, 0
1, 170391, Note_on_c, 0, 63, 72
1, 170466, Note_on_c, 0, 63, 0
1, 170466, Note_on_c, 0, 56, 0
1, 170466, Note_on_c, 0, 64, 75
1, 170541, Note_on_c, 0, 64, 0
1, 170541, Note_on_c, 0, 63, 69
1, 170616, Note_on_c, 0, 63, 0
1, 170616, Note_on_c, 0, 61, 74
1, 170691, Note_on_c, 0, 61, 0
1, 170691, Note_on_c, 0, 56, 61
1, 170711, Control_c, 0, 64, 127
1, 170711, Control_c, 0, 64, 127
1, 170766, Note_on_c, 0, 68, 0
1, 170766, Control_c, 0, 64, 0
1, 170766, Control_c, 0, 64, 0
1, 170769, Note_on_c, 0, 80, 0
1, 170769, Note_on_c, 0, 76, 0
1, 170769, Note_on_c, 0, 67, 81
1, 170772, Note_on_c, 0, 73, 81
1, 170772, Note_on_c, 0, 76, 94
1, 170772, Note_on_c, 0, 79, 81
1, 170775, Control_c, 0, 64, 0
1, 170775, Control_c, 0, 64, 0
1, 170775, Control_c, 0, 64, 0
1, 170778, Note_on_c, 0, 56, 0
1, 170778, Control_c, 0, 64, 0
1, 170800, Control_c, 0, 64, 0
1, 170800, Control_c, 0, 64, 0
1, 170859, Note_on_c, 0, 57, 76
1, 170934, Note_on_c, 0, 57, 0
1, 170934, Note_on_c, 0, 64, 74
1, 170941, Control_c, 0, 64, 127
1, 170941, Control_c, 0, 64, 127
1, 171009, Note_on_c, 0, 64, 0
1, 171009, Note_on_c, 0, 66, 74
1, 171084, Note_on_c, 0, 66, 0
1, 171084, Note_on_c, 0, 67, 75
1, 171159, Note_on_c, 0, 67, 0
1, 171159, Note_on_c, 0, 66, 76
1, 171234, Note_on_c, 0, 66, 0
1, 171234, Note_on_c, 0, 64, 78
1, 171280, Control_c, 0, 64, 127
1, 171280, Control_c, 0, 64, 127
1, 171309, Note_on_c, 0, 64, 0
1, 171309, Note_on_c, 0, 57, 71
1, 171384, Note_on_c, 0, 79, 0
1, 171384, Note_on_c, 0, 79, 91
1, 171384, Note_on_c, 0, 85, 91
1, 171387, Note_on_c, 0, 57, 0
1, 171387, Note_on_c, 0, 88, 104
1, 171387, Note_on_c, 0, 91, 91
1, 171398, Note_on_c, 0, 76, 0
1, 171398, Note_on_c, 0, 67, 0
1, 171398, Note_on_c, 0, 73, 0
1, 171477, Note_on_c, 0, 58, 81
1, 171492, Control_c, 0, 64, 0
1, 171492, Control_c, 0, 64, 0
1, 171552, Note_on_c, 0, 58, 0
1, 171552, Note_on_c, 0, 64, 77
1, 171584, Control_c, 0, 64, 127
1, 171584, Control_c, 0, 64, 127
1, 171627, Note_on_c, 0, 64, 0
1, 171627, Note_on_c, 0, 66, 77
1, 171702, Note_on_c, 0, 66, 0
1, 171702, Note_on_c, 0, 67, 80
1, 171777, Note_on_c, 0, 67, 0
1, 171777, Note_on_c, 0, 66, 80
1, 171852, Note_on_c, 0, 66, 0
1, 171852, Note_on_c, 0, 64, 80
1, 171926, Note_on_c, 0, 64, 0
1, 171926, Note_on_c, 0, 58, 73
1, 171942, Control_c, 0, 64, 127
1, 171942, Control_c, 0, 64, 127
1, 172001, Note_on_c, 0, 78, 92
1, 172001, Note_on_c, 0, 83, 92
1, 172001, Note_on_c, 0, 88, 105
1, 172004, Note_on_c, 0, 58, 0
1, 172004, Note_on_c, 0, 90, 92
1, 172016, Note_on_c, 0, 79, 0
1, 172016, Note_on_c, 0, 85, 0
1, 172016, Note_on_c, 0, 88, 0
1, 172019, Note_on_c, 0, 91, 0
1, 172095, Note_on_c, 0, 59, 84
1, 172098, Control_c, 0, 64, 0
1, 172098, Control_c, 0, 64, 0
1, 172170, Note_on_c, 0, 59, 0
1, 172170, Note_on_c, 0, 64, 85
1, 172208, Control_c, 0, 64, 127
1, 172208, Control_c, 0, 64, 127
1, 172245, Note_on_c, 0, 64, 0
1, 172245, Note_on_c, 0, 66, 81
1, 172320, Note_on_c, 0, 66, 0
1, 172320, Note_on_c, 0, 67, 80
1, 172394, Note_on_c, 0, 67, 0
1, 172394, Note_on_c, 0, 66, 84
1, 172469, Note_on_c, 0, 66, 0
1, 172469, Note_on_c, 0, 64, 87
1, 172544, Note_on_c, 0, 64, 0
1, 172544, Note_on_c, 0, 59, 75
1, 172612, Control_c, 0, 64, 127
1, 172612, Control_c, 0, 64, 127
1, 172619, Note_on_c, 0, 88, 0
1, 172619, Note_on_c, 0, 90, 0
1, 172619, Note_on_c, 0, 78, 0
1, 172622, Note_on_c, 0, 76, 93
1, 172622, Note_on_c, 0, 82, 93
1, 172622, Note_on_c, 0, 88, 106
1, 172625, Note_on_c, 0, 59, 0
1, 172634, Note_on_c, 0, 83, 0
1, 172713, Note_on_c, 0, 60, 89
1, 172732, Control_c, 0, 64, 0
1, 172732, Control_c, 0, 64, 0
1, 172788, Note_on_c, 0, 60, 0
1, 172788, Note_on_c, 0, 64, 81
1, 172824, Control_c, 0, 64, 127
1, 172824, Control_c, 0, 64, 127
1, 172862, Note_on_c, 0, 64, 0
1, 172862, Note_on_c, 0, 66, 88
1, 172937, Note_on_c, 0, 66, 0
1, 172937, Note_on_c, 0, 67, 92
1, 173012, Note_on_c, 0, 67, 0
1, 173012, Note_on_c, 0, 66, 86
1, 173087, Note_on_c, 0, 66, 0
1, 173087, Note_on_c, 0, 64, 90
1, 173108, Control_c, 0, 64, 127
1, 173108, Control_c, 0, 64, 127
1, 173162, Note_on_c, 0, 64, 0
1, 173162, Note_on_c, 0, 60, 78
1, 173237, Note_on_c, 0, 76, 0
1, 173237, Control_c, 0, 64, 127
1, 173237, Control_c, 0, 64, 0
1, 173240, Note_on_c, 0, 88, 0
1, 173240, Note_on_c, 0, 82, 0
1, 173240, Note_on_c, 0, 76, 96
1, 173243, Note_on_c, 0, 79, 96
1, 173243, Note_on_c, 0, 82, 111
1, 173243, Note_on_c, 0, 88, 96
1, 173246, Control_c, 0, 64, 127
1, 173246, Control_c, 0, 64, 0
1, 173246, Control_c, 0, 64, 0
1, 173249, Note_on_c, 0, 60, 0
1, 173249, Control_c, 0, 64, 0
1, 173317, Control_c, 0, 64, 0
1, 173317, Control_c, 0, 64, 0
1, 173330, Note_on_c, 0, 61, 91
1, 173405, Note_on_c, 0, 67, 88
1, 173412, Control_c, 0, 64, 127
1, 173412, Control_c, 0, 64, 127
1, 173412, Control_c, 0, 64, 127
1, 173415, Control_c, 0, 64, 127
1, 173480, Note_on_c, 0, 67, 0
1, 173480, Note_on_c, 0, 61, 0
1, 173480, Note_on_c, 0, 69, 86
1, 173555, Note_on_c, 0, 69, 0
1, 173555, Note_on_c, 0, 70, 86
1, 173630, Note_on_c, 0, 70, 0
1, 173630, Note_on_c, 0, 69, 89
1, 173705, Note_on_c, 0, 69, 0
1, 173705, Note_on_c, 0, 67, 89
1, 173751, Control_c, 0, 64, 127
1, 173751, Control_c, 0, 64, 127
1, 173780, Note_on_c, 0, 67, 0
1, 173780, Note_on_c, 0, 61, 74
1, 173855, Note_on_c, 0, 82, 0
1, 173855, Note_on_c, 0, 82, 99
1, 173855, Note_on_c, 0, 86, 99
1, 173858, Note_on_c, 0, 61, 0
1, 173858, Note_on_c, 0, 94, 113
1, 173863, Control_c, 0, 64, 0
1, 173863, Control_c, 0, 64, 0
1, 173869, Note_on_c, 0, 88, 0
1, 173869, Note_on_c, 0, 76, 0
1, 173869, Note_on_c, 0, 79, 0
1, 173909, Control_c, 0, 64, 0
1, 173909, Control_c, 0, 64, 0
1, 173948, Note_on_c, 0, 62, 93
1, 173963, Control_c, 0, 64, 0
1, 173963, Control_c, 0, 64, 0
1, 174023, Note_on_c, 0, 67, 84
1, 174055, Control_c, 0, 64, 127
1, 174055, Control_c, 0, 64, 127
1, 174055, Control_c, 0, 64, 127
1, 174058, Control_c, 0, 64, 127
1, 174098, Note_on_c, 0, 67, 0
1, 174098, Note_on_c, 0, 62, 0
1, 174098, Note_on_c, 0, 69, 84
1, 174173, Note_on_c, 0, 69, 0
1, 174173, Note_on_c, 0, 70, 85
1, 174248, Note_on_c, 0, 70, 0
1, 174248, Note_on_c, 0, 69, 85
1, 174323, Note_on_c, 0, 69, 0
1, 174323, Note_on_c, 0, 67, 86
1, 174397, Note_on_c, 0, 67, 0
1, 174397, Note_on_c, 0, 62, 72
1, 174413, Control_c, 0, 64, 127
1, 174413, Control_c, 0, 64, 127
1, 174468, Control_c, 0, 64, 0
1, 174468, Control_c, 0, 64, 0
1, 174472, Note_on_c, 0, 81, 100
1, 174472, Note_on_c, 0, 85, 100
1, 174472, Note_on_c, 0, 93, 115
1, 174475, Note_on_c, 0, 62, 0
1, 174487, Note_on_c, 0, 94, 0
1, 174487, Note_on_c, 0, 86, 0
1, 174487, Note_on_c, 0, 82, 0
1, 174501, Control_c, 0, 64, 0
1, 174501, Control_c, 0, 64, 0
1, 174566, Note_on_c, 0, 63, 94
1, 174570, Control_c, 0, 64, 0
1, 174570, Control_c, 0, 64, 0
1, 174660, Note_on_c, 0, 67, 88
1, 174689, Control_c, 0, 64, 127
1, 174689, Control_c, 0, 64, 127
1, 174698, Control_c, 0, 64, 127
1, 174698, Control_c, 0, 64, 127
1, 174734, Note_on_c, 0, 67, 0
1, 174734, Note_on_c, 0, 63, 0
1, 174734, Note_on_c, 0, 69, 82
1, 174809, Note_on_c, 0, 69, 0
1, 174809, Note_on_c, 0, 70, 81
1, 174884, Note_on_c, 0, 70, 0
1, 174884, Note_on_c, 0, 69, 84
1, 174959, Note_on_c, 0, 69, 0
1, 174959, Note_on_c, 0, 67, 89
1, 175034, Note_on_c, 0, 67, 0
1, 175034, Note_on_c, 0, 79, 92
1, 175034, Note_on_c, 0, 91, 105
1, 175037, Note_on_c, 0, 63, 70
1, 175056, Note_on_c, 0, 85, 0
1, 175056, Note_on_c, 0, 93, 0
1, 175056, Note_on_c, 0, 81, 0
1, 175161, Control_c, 0, 64, 127
1, 175161, Control_c, 0, 64, 127
1, 175174, Note_on_c, 0, 78, 91
1, 175174, Note_on_c, 0, 84, 91
1, 175174, Note_on_c, 0, 90, 103
1, 175177, Note_on_c, 0, 63, 0
1, 175177, Control_c, 0, 64, 0
1, 175177, Control_c, 0, 64, 0
1, 175196, Note_on_c, 0, 79, 0
1, 175196, Note_on_c, 0, 91, 0
1, 175230, Control_c, 0, 64, 0
1, 175230, Control_c, 0, 64, 0
1, 175315, Note_on_c, 0, 68, 88
1, 175339, Control_c, 0, 64, 0
1, 175339, Control_c, 0, 64, 0
1, 175408, Note_on_c, 0, 72, 73
1, 175447, Control_c, 0, 64, 127
1, 175447, Control_c, 0, 64, 127
1, 175447, Control_c, 0, 64, 127
1, 175450, Control_c, 0, 64, 127
1, 175489, Note_on_c, 0, 72, 0
1, 175489, Note_on_c, 0, 68, 0
1, 175489, Note_on_c, 0, 73, 77
1, 175563, Note_on_c, 0, 73, 0
1, 175563, Note_on_c, 0, 75, 77
1, 175638, Note_on_c, 0, 75, 0
1, 175638, Note_on_c, 0, 73, 71
1, 175719, Note_on_c, 0, 73, 0
1, 175719, Note_on_c, 0, 72, 73
1, 175799, Note_on_c, 0, 72, 0
1, 175799, Note_on_c, 0, 68, 59
1, 175822, Control_c, 0, 64, 127
1, 175822, Control_c, 0, 64, 127
1, 175885, Note_on_c, 0, 78, 0
1, 175885, Control_c, 0, 64, 0
1, 175885, Control_c, 0, 64, 0
1, 175888, Note_on_c, 0, 90, 0
1, 175888, Note_on_c, 0, 84, 0
1, 175888, Control_c, 0, 64, 0
1, 175891, Control_c, 0, 64, 0
1, 175891, Control_c, 0, 64, 0
1, 175891, Control_c, 0, 64, 0
1, 175894, Note_on_c, 0, 68, 0
1, 175894, Note_on_c, 0, 61, 66
1, 175894, Note_on_c, 0, 73, 78
1, 175979, Note_on_c, 0, 64, 80
1, 176023, Control_c, 0, 64, 127
1, 176023, Control_c, 0, 64, 127
1, 176072, Note_on_c, 0, 64, 0
1, 176072, Note_on_c, 0, 73, 67
1, 176159, Note_on_c, 0, 73, 0
1, 176159, Note_on_c, 0, 75, 70
1, 176245, Note_on_c, 0, 75, 0
1, 176245, Note_on_c, 0, 76, 72
1, 176332, Note_on_c, 0, 76, 0
1, 176332, Note_on_c, 0, 75, 72
1, 176412, Note_on_c, 0, 75, 0
1, 176412, Note_on_c, 0, 73, 69
1, 176422, Control_c, 0, 64, 127
1, 176422, Control_c, 0, 64, 127
1, 176492, Note_on_c, 0, 73, 0
1, 176492, Note_on_c, 0, 64, 62
1, 176567, Note_on_c, 0, 64, 0
1, 176567, Note_on_c, 0, 57, 69
1, 176567, Note_on_c, 0, 69, 81
1, 176579, Note_on_c, 0, 73, 0
1, 176579, Note_on_c, 0, 61, 0
1, 176642, Note_on_c, 0, 66, 82
1, 176712, Note_on_c, 0, 73, 76
1, 176782, Note_on_c, 0, 73, 0
1, 176782, Note_on_c, 0, 66, 0
1, 176782, Note_on_c, 0, 75, 70
1, 176852, Note_on_c, 0, 75, 0
1, 176852, Note_on_c, 0, 76, 75
1, 176923, Note_on_c, 0, 76, 0
1, 176923, Note_on_c, 0, 75, 75
1, 176993, Note_on_c, 0, 75, 0
1, 176993, Note_on_c, 0, 73, 77
1, 177063, Note_on_c, 0, 73, 0
1, 177063, Note_on_c, 0, 66, 68
1, 177086, Control_c, 0, 64, 127
1, 177086, Control_c, 0, 64, 127
1, 177133, Note_on_c, 0, 66, 0
1, 177133, Note_on_c, 0, 52, 72
1, 177133, Note_on_c, 0, 64, 84
1, 177146, Note_on_c, 0, 57, 0
1, 177146, Note_on_c, 0, 69, 0
1, 177213, Note_on_c, 0, 67, 86
1, 177217, Control_c, 0, 64, 127
1, 177217, Control_c, 0, 64, 127
1, 177246, Control_c, 0, 64, 0
1, 177246, Control_c, 0, 64, 0
1, 177276, Control_c, 0, 64, 127
1, 177276, Control_c, 0, 64, 127
1, 177294, Note_on_c, 0, 73, 79
1, 177364, Note_on_c, 0, 73, 0
1, 177364, Note_on_c, 0, 67, 0
1, 177364, Note_on_c, 0, 75, 79
1, 177434, Note_on_c, 0, 75, 0
1, 177434, Note_on_c, 0, 76, 76
1, 177504, Note_on_c, 0, 76, 0
1, 177504, Note_on_c, 0, 75, 76
1, 177574, Note_on_c, 0, 75, 0
1, 177574, Note_on_c, 0, 73, 76
1, 177588, Control_c, 0, 64, 127
1, 177588, Control_c, 0, 64, 127
1, 177645, Note_on_c, 0, 73, 0
1, 177645, Note_on_c, 0, 67, 68
1, 177715, Note_on_c, 0, 67, 0
1, 177715, Note_on_c, 0, 49, 74
1, 177715, Note_on_c, 0, 61, 87
1, 177726, Note_on_c, 0, 52, 0
1, 177726, Note_on_c, 0, 64, 0
1, 177777, Control_c, 0, 64, 0
1, 177777, Control_c, 0, 64, 0
1, 177785, Note_on_c, 0, 68, 89
1, 177820, Control_c, 0, 64, 127
1, 177820, Control_c, 0, 64, 127
1, 177855, Note_on_c, 0, 73, 75
1, 177925, Note_on_c, 0, 73, 0
1, 177925, Note_on_c, 0, 68, 0
1, 177925, Note_on_c, 0, 75, 78
1, 177996, Note_on_c, 0, 75, 0
1, 177996, Note_on_c, 0, 76, 74
1, 178066, Note_on_c, 0, 76, 0
1, 178066, Note_on_c, 0, 75, 74
1, 178136, Note_on_c, 0, 75, 0
1, 178136, Note_on_c, 0, 73, 79
1, 178206, Note_on_c, 0, 73, 0
1, 178206, Note_on_c, 0, 68, 72
1, 178251, Control_c, 0, 64, 0
1, 178251, Control_c, 0, 64, 0
1, 178276, Control_c, 0, 64, 127
1, 178276, Control_c, 0, 64, 0
1, 178276, Control_c, 0, 64, 0
1, 178279, Note_on_c, 0, 68, 0
1, 178279, Control_c, 0, 64, 127
1, 178279, Control_c, 0, 64, 0
1, 178282, Control_c, 0, 64, 0
1, 178282, Control_c, 0, 64, 0
1, 178282, Control_c, 0, 64, 0
1, 178285, Control_c, 0, 64, 0
1, 178285, Note_on_c, 0, 45, 77
1, 178285, Note_on_c, 0, 57, 89
1, 178289, Note_on_c, 0, 49, 0
1, 178289, Note_on_c, 0, 61, 0
1, 178357, Note_on_c, 0, 61, 78
1, 178364, Control_c, 0, 64, 0
1, 178364, Control_c, 0, 64, 0
1, 178407, Control_c, 0, 64, 127
1, 178407, Control_c, 0, 64, 127
1, 178427, Note_on_c, 0, 61, 0
1, 178427, Note_on_c, 0, 64, 84
1, 178497, Note_on_c, 0, 64, 0
1, 178497, Note_on_c, 0, 69, 89
1, 178567, Note_on_c, 0, 69, 0
1, 178567, Note_on_c, 0, 76, 100
1, 178638, Note_on_c, 0, 76, 0
1, 178638, Note_on_c, 0, 69, 89
1, 178708, Note_on_c, 0, 69, 0
1, 178708, Note_on_c, 0, 64, 84
1, 178778, Note_on_c, 0, 64, 0
1, 178778, Note_on_c, 0, 61, 78
1, 178848, Note_on_c, 0, 61, 0
1, 178848, Note_on_c, 0, 40, 75
1, 178848, Note_on_c, 0, 52, 87
1, 178862, Note_on_c, 0, 45, 0
1, 178862, Note_on_c, 0, 57, 0
1, 178866, Control_c, 0, 64, 127
1, 178866, Control_c, 0, 64, 127
1, 178877, Control_c, 0, 64, 0
1, 178877, Control_c, 0, 64, 0
1, 178935, Note_on_c, 0, 59, 78
1, 178941, Control_c, 0, 64, 127
1, 178941, Control_c, 0, 64, 127
1, 179021, Note_on_c, 0, 59, 0
1, 179021, Note_on_c, 0, 64, 82
1, 179091, Note_on_c, 0, 64, 0
1, 179091, Note_on_c, 0, 68, 86
1, 179161, Note_on_c, 0, 68, 0
1, 179161, Note_on_c, 0, 76, 95
1, 179232, Note_on_c, 0, 76, 0
1, 179232, Note_on_c, 0, 68, 86
1, 179302, Note_on_c, 0, 68, 0
1, 179302, Note_on_c, 0, 64, 82
1, 179372, Note_on_c, 0, 64, 0
1, 179372, Note_on_c, 0, 59, 78
1, 179429, Control_c, 0, 64, 0
1, 179429, Control_c, 0, 64, 0
1, 179442, Note_on_c, 0, 59, 0
1, 179442, Note_on_c, 0, 37, 77
1, 179442, Note_on_c, 0, 49, 89
1, 179456, Note_on_c, 0, 40, 0
1, 179456, Note_on_c, 0, 52, 0
1, 179490, Control_c, 0, 64, 127
1, 179490, Control_c, 0, 64, 127
1, 179529, Note_on_c, 0, 58, 81
1, 179615, Note_on_c, 0, 58, 0
1, 179615, Note_on_c, 0, 64, 83
1, 179685, Note_on_c, 0, 64, 0
1, 179685, Note_on_c, 0, 67, 86
1, 179755, Note_on_c, 0, 67, 0
1, 179755, Note_on_c, 0, 76, 98
1, 179826, Note_on_c, 0, 76, 0
1, 179826, Note_on_c, 0, 67, 86
1, 179896, Note_on_c, 0, 67, 0
1, 179896, Note_on_c, 0, 64, 83
1, 179966, Note_on_c, 0, 64, 0
1, 179966, Note_on_c, 0, 58, 81
1, 180030, Control_c, 0, 64, 0
1, 180030, Control_c, 0, 64, 0
1, 180036, Note_on_c, 0, 58, 0
1, 180036, Note_on_c, 0, 36, 69
1, 180036, Note_on_c, 0, 48, 81
1, 180050, Note_on_c, 0, 37, 0
1, 180050, Note_on_c, 0, 49, 0
1, 180081, Control_c, 0, 64, 127
1, 180081, Control_c, 0, 64, 127
1, 180123, Note_on_c, 0, 57, 82
1, 180193, Note_on_c, 0, 57, 0
1, 180193, Note_on_c, 0, 63, 84
1, 180263, Note_on_c, 0, 63, 0
1, 180263, Note_on_c, 0, 66, 87
1, 180333, Note_on_c, 0, 66, 0
1, 180333, Note_on_c, 0, 75, 97
1, 180403, Note_on_c, 0, 75, 0
1, 180403, Note_on_c, 0, 66, 84
1, 180474, Note_on_c, 0, 66, 0
1, 180474, Note_on_c, 0, 63, 82
1, 180544, Note_on_c, 0, 63, 0
1, 180544, Note_on_c, 0, 57, 79
1, 180579, Control_c, 0, 64, 0
1, 180579, Control_c, 0, 64, 0
1, 180614, Note_on_c, 0, 57, 0
1, 180614, Control_c, 0, 64, 0
1, 180614, Control_c, 0, 64, 0
1, 180617, Control_c, 0, 64, 0
1, 180617, Control_c, 0, 64, 0
1, 180617, Control_c, 0, 64, 0
1, 180620, Control_c, 0, 64, 0
1, 180620, Note_on_c, 0, 37, 79
1, 180620, Note_on_c, 0, 49, 92
1, 180625, Note_on_c, 0, 36, 0
1, 180625, Note_on_c, 0, 48, 0
1, 180684, Note_on_c, 0, 56, 80
1, 180691, Control_c, 0, 64, 0
1, 180691, Control_c, 0, 64, 0
1, 180735, Control_c, 0, 64, 127
1, 180735, Control_c, 0, 64, 127
1, 180754, Note_on_c, 0, 56, 0
1, 180754, Note_on_c, 0, 62, 78
1, 180825, Note_on_c, 0, 62, 0
1, 180825, Note_on_c, 0, 65, 86
1, 180895, Note_on_c, 0, 65, 0
1, 180895, Note_on_c, 0, 74, 93
1, 180965, Note_on_c, 0, 74, 0
1, 180965, Note_on_c, 0, 65, 91
1, 181035, Note_on_c, 0, 65, 0
1, 181035, Note_on_c, 0, 62, 86
1, 181105, Note_on_c, 0, 62, 0
1, 181105, Note_on_c, 0, 56, 79
1, 181176, Note_on_c, 0, 56, 0
1, 181176, Note_on_c, 0, 30, 75
1, 181176, Note_on_c, 0, 42, 88
1, 181190, Note_on_c, 0, 37, 0
1, 181190, Note_on_c, 0, 49, 0
1, 181190, Control_c, 0, 64, 127
1, 181190, Control_c, 0, 64, 127
1, 181199, Control_c, 0, 64, 0
1, 181199, Control_c, 0, 64, 0
1, 181246, Note_on_c, 0, 57, 79
1, 181251, Control_c, 0, 64, 127
1, 181251, Control_c, 0, 64, 127
1, 181316, Note_on_c, 0, 57, 0
1, 181316, Note_on_c, 0, 61, 83
1, 181386, Note_on_c, 0, 61, 0
1, 181386, Note_on_c, 0, 66, 87
1, 181456, Note_on_c, 0, 66, 0
1, 181456, Note_on_c, 0, 73, 90
1, 181527, Note_on_c, 0, 73, 0
1, 181527, Note_on_c, 0, 66, 87
1, 181597, Note_on_c, 0, 66, 0
1, 181597, Note_on_c, 0, 61, 83
1, 181667, Note_on_c, 0, 61, 0
1, 181667, Note_on_c, 0, 57, 78
1, 181724, Control_c, 0, 64, 0
1, 181724, Control_c, 0, 64, 0
1, 181737, Note_on_c, 0, 57, 0
1, 181737, Note_on_c, 0, 32, 74
1, 181737, Note_on_c, 0, 44, 85
1, 181757, Note_on_c, 0, 30, 0
1, 181757, Note_on_c, 0, 42, 0
1, 181785, Control_c, 0, 64, 127
1, 181785, Control_c, 0, 64, 127
1, 181824, Note_on_c, 0, 56, 77
1, 181910, Note_on_c, 0, 56, 0
1, 181910, Note_on_c, 0, 61, 79
1, 181980, Note_on_c, 0, 61, 0
1, 181980, Note_on_c, 0, 66, 82
1, 182050, Note_on_c, 0, 66, 0
1, 182050, Note_on_c, 0, 73, 88
1, 182121, Note_on_c, 0, 73, 0
1, 182121, Note_on_c, 0, 66, 81
1, 182191, Note_on_c, 0, 66, 0
1, 182191, Note_on_c, 0, 61, 78
1, 182261, Note_on_c, 0, 61, 0
1, 182261, Note_on_c, 0, 56, 76
1, 182325, Control_c, 0, 64, 0
1, 182325, Control_c, 0, 64, 0
1, 182331, Note_on_c, 0, 56, 0
1, 182331, Note_on_c, 0, 32, 0
1, 182331, Note_on_c, 0, 32, 81
1, 182348, Note_on_c, 0, 44, 0
1, 182348, Control_c, 0, 64, 0
1, 182348, Control_c, 0, 64, 0
1, 182401, Note_on_c, 0, 54, 76
1, 182422, Control_c, 0, 64, 127
1, 182422, Control_c, 0, 64, 127
1, 182472, Note_on_c, 0, 54, 0
1, 182472, Note_on_c, 0, 60, 78
1, 182542, Note_on_c, 0, 60, 0
1, 182542, Note_on_c, 0, 63, 81
1, 182612, Note_on_c, 0, 63, 0
1, 182612, Note_on_c, 0, 72, 84
1, 182682, Note_on_c, 0, 72, 0
1, 182682, Note_on_c, 0, 63, 77
1, 182752, Note_on_c, 0, 63, 0
1, 182752, Note_on_c, 0, 60, 75
1, 182823, Note_on_c, 0, 60, 0
1, 182823, Note_on_c, 0, 54, 72
1, 182858, Control_c, 0, 64, 0
1, 182858, Control_c, 0, 64, 0
1, 182893, Note_on_c, 0, 54, 0
1, 182893, Control_c, 0, 64, 0
1, 182893, Control_c, 0, 64, 0
1, 182896, Control_c, 0, 64, 0
1, 182896, Control_c, 0, 64, 0
1, 182896, Control_c, 0, 64, 0
1, 182899, Control_c, 0, 64, 0
1, 182899, Control_c, 0, 64, 0
1, 182899, Note_on_c, 0, 37, 82
1, 182913, Note_on_c, 0, 32, 0
1, 182979, Note_on_c, 0, 52, 67
1, 182996, Control_c, 0, 64, 0
1, 182996, Control_c, 0, 64, 0
1, 183054, Note_on_c, 0, 52, 0
1, 183054, Note_on_c, 0, 61, 73
1, 183129, Note_on_c, 0, 61, 0
1, 183129, Note_on_c, 0, 64, 77
1, 183204, Note_on_c, 0, 64, 0
1, 183204, Note_on_c, 0, 73, 81
1, 183244, Control_c, 0, 64, 127
1, 183244, Control_c, 0, 64, 127
1, 183279, Note_on_c, 0, 73, 0
1, 183279, Note_on_c, 0, 64, 76
1, 183354, Note_on_c, 0, 64, 0
1, 183354, Note_on_c, 0, 61, 72
1, 183428, Note_on_c, 0, 61, 0
1, 183428, Note_on_c, 0, 52, 66
1, 183503, Note_on_c, 0, 52, 0
1, 183503, Note_on_c, 0, 42, 79
1, 183523, Note_on_c, 0, 37, 0
1, 183523, Control_c, 0, 64, 0
1, 183523, Control_c, 0, 64, 0
1, 183597, Note_on_c, 0, 54, 66
1, 183672, Note_on_c, 0, 54, 0
1, 183672, Note_on_c, 0, 57, 70
1, 183747, Note_on_c, 0, 57, 0
1, 183747, Note_on_c, 0, 61, 73
1, 183822, Note_on_c, 0, 61, 0
1, 183822, Note_on_c, 0, 69, 75
1, 183868, Control_c, 0, 64, 127
1, 183868, Control_c, 0, 64, 127
1, 183896, Note_on_c, 0, 69, 0
1, 183896, Note_on_c, 0, 61, 73
1, 183971, Note_on_c, 0, 61, 0
1, 183971, Note_on_c, 0, 57, 69
1, 184046, Note_on_c, 0, 57, 0
1, 184046, Note_on_c, 0, 51, 65
1, 184121, Note_on_c, 0, 51, 0
1, 184121, Note_on_c, 0, 37, 76
1, 184136, Control_c, 0, 64, 0
1, 184136, Control_c, 0, 64, 0
1, 184140, Note_on_c, 0, 42, 0
1, 184201, Note_on_c, 0, 49, 65
1, 184281, Note_on_c, 0, 49, 0
1, 184281, Note_on_c, 0, 52, 66
1, 184362, Note_on_c, 0, 52, 0
1, 184362, Note_on_c, 0, 56, 69
1, 184442, Note_on_c, 0, 56, 0
1, 184442, Note_on_c, 0, 64, 72
1, 184472, Control_c, 0, 64, 127
1, 184472, Control_c, 0, 64, 127
1, 184528, Note_on_c, 0, 64, 0
1, 184528, Note_on_c, 0, 56, 68
1, 184615, Note_on_c, 0, 56, 0
1, 184615, Note_on_c, 0, 52, 65
1, 184708, Note_on_c, 0, 52, 0
1, 184708, Note_on_c, 0, 49, 64
1, 184810, Note_on_c, 0, 49, 0
1, 184810, Note_on_c, 0, 37, 0
1, 184810, Note_on_c, 0, 25, 55
1, 184813, Note_on_c, 0, 37, 55
1, 184826, Control_c, 0, 64, 0
1, 184826, Control_c, 0, 64, 0
1, 185235, Note_on_c, 0, 37, 0
1, 185235, Note_on_c, 0, 25, 0
1, 185500, Control_c, 0, 64, 0
1, 185500, Note_on_c, 0, 63, 70
1, 185500, Note_on_c, 0, 66, 70
1, 185503, Note_on_c, 0, 75, 86
1, 185503, Control_c, 0, 64, 0
1, 185503, Control_c, 0, 64, 0
1, 185551, Control_c, 0, 64, 0
1, 185551, Control_c, 0, 64, 0
1, 185640, Note_on_c, 0, 48, 68
1, 185710, Note_on_c, 0, 54, 62
1, 185716, Control_c, 0, 64, 127
1, 185716, Control_c, 0, 64, 127
1, 185780, Note_on_c, 0, 54, 0
1, 185780, Note_on_c, 0, 56, 62
1, 185851, Note_on_c, 0, 56, 0
1, 185851, Note_on_c, 0, 48, 0
1, 185851, Note_on_c, 0, 57, 62
1, 185921, Note_on_c, 0, 57, 0
1, 185921, Note_on_c, 0, 56, 63
1, 185991, Note_on_c, 0, 56, 0
1, 185991, Note_on_c, 0, 54, 64
1, 186034, Control_c, 0, 64, 127
1, 186034, Control_c, 0, 64, 127
1, 186061, Note_on_c, 0, 54, 0
1, 186061, Note_on_c, 0, 48, 56
1, 186131, Note_on_c, 0, 69, 78
1, 186131, Note_on_c, 0, 78, 78
1, 186131, Note_on_c, 0, 81, 92
1, 186153, Note_on_c, 0, 75, 0
1, 186153, Note_on_c, 0, 63, 0
1, 186153, Note_on_c, 0, 66, 0
1, 186230, Note_on_c, 0, 48, 0
1, 186272, Note_on_c, 0, 49, 70
1, 186286, Control_c, 0, 64, 0
1, 186286, Control_c, 0, 64, 0
1, 186342, Note_on_c, 0, 54, 62
1, 186372, Control_c, 0, 64, 127
1, 186372, Control_c, 0, 64, 127
1, 186412, Note_on_c, 0, 54, 0
1, 186412, Note_on_c, 0, 56, 62
1, 186482, Note_on_c, 0, 56, 0
1, 186482, Note_on_c, 0, 49, 0
1, 186482, Note_on_c, 0, 57, 64
1, 186553, Note_on_c, 0, 57, 0
1, 186553, Note_on_c, 0, 56, 64
1, 186623, Note_on_c, 0, 56, 0
1, 186623, Note_on_c, 0, 54, 64
1, 186693, Note_on_c, 0, 54, 0
1, 186693, Note_on_c, 0, 49, 56
1, 186707, Control_c, 0, 64, 127
1, 186707, Control_c, 0, 64, 127
1, 186763, Note_on_c, 0, 68, 75
1, 186763, Note_on_c, 0, 72, 75
1, 186763, Note_on_c, 0, 80, 89
1, 186785, Note_on_c, 0, 81, 0
1, 186785, Note_on_c, 0, 69, 0
1, 186785, Note_on_c, 0, 78, 0
1, 186862, Note_on_c, 0, 49, 0
1, 186904, Control_c, 0, 64, 0
1, 186904, Note_on_c, 0, 50, 71
1, 186904, Control_c, 0, 64, 0
1, 186974, Note_on_c, 0, 54, 68
1, 187010, Control_c, 0, 64, 127
1, 187010, Control_c, 0, 64, 127
1, 187044, Note_on_c, 0, 54, 0
1, 187044, Note_on_c, 0, 56, 63
1, 187114, Note_on_c, 0, 56, 0
1, 187114, Note_on_c, 0, 50, 0
1, 187114, Note_on_c, 0, 57, 62
1, 187184, Note_on_c, 0, 57, 0
1, 187184, Note_on_c, 0, 56, 65
1, 187255, Note_on_c, 0, 56, 0
1, 187255, Note_on_c, 0, 54, 69
1, 187325, Note_on_c, 0, 54, 0
1, 187325, Note_on_c, 0, 50, 56
1, 187389, Control_c, 0, 64, 127
1, 187389, Control_c, 0, 64, 127
1, 187395, Note_on_c, 0, 72, 0
1, 187395, Note_on_c, 0, 66, 73
1, 187395, Note_on_c, 0, 72, 73
1, 187398, Note_on_c, 0, 78, 86
1, 187417, Note_on_c, 0, 68, 0
1, 187417, Note_on_c, 0, 80, 0
1, 187494, Note_on_c, 0, 50, 0
1, 187535, Note_on_c, 0, 51, 73
1, 187554, Control_c, 0, 64, 0
1, 187554, Control_c, 0, 64, 0
1, 187606, Note_on_c, 0, 54, 61
1, 187640, Control_c, 0, 64, 127
1, 187640, Control_c, 0, 64, 127
1, 187676, Note_on_c, 0, 54, 0
1, 187676, Note_on_c, 0, 56, 67
1, 187746, Note_on_c, 0, 56, 0
1, 187746, Note_on_c, 0, 51, 0
1, 187746, Note_on_c, 0, 57, 70
1, 187816, Note_on_c, 0, 57, 0
1, 187816, Note_on_c, 0, 56, 64
1, 187886, Note_on_c, 0, 56, 0
1, 187886, Note_on_c, 0, 54, 69
1, 187906, Control_c, 0, 64, 127
1, 187906, Control_c, 0, 64, 127
1, 187957, Note_on_c, 0, 54, 0
1, 187957, Note_on_c, 0, 51, 56
1, 188027, Control_c, 0, 64, 127
1, 188027, Note_on_c, 0, 64, 76
1, 188027, Note_on_c, 0, 73, 76
1, 188030, Note_on_c, 0, 76, 89
1, 188030, Control_c, 0, 64, 127
1, 188030, Control_c, 0, 64, 0
1, 188049, Note_on_c, 0, 66, 0
1, 188049, Note_on_c, 0, 72, 0
1, 188049, Note_on_c, 0, 78, 0
1, 188126, Note_on_c, 0, 51, 0
1, 188148, Control_c, 0, 64, 0
1, 188148, Control_c, 0, 64, 0
1, 188167, Note_on_c, 0, 52, 73
1, 188237, Note_on_c, 0, 61, 67
1, 188244, Control_c, 0, 64, 127
1, 188244, Control_c, 0, 64, 127
1, 188244, Control_c, 0, 64, 127
1, 188247, Control_c, 0, 64, 127
1, 188308, Note_on_c, 0, 61, 0
1, 188308, Note_on_c, 0, 63, 67
1, 188378, Note_on_c, 0, 63, 0
1, 188378, Note_on_c, 0, 52, 0
1, 188378, Note_on_c, 0, 64, 67
1, 188448, Note_on_c, 0, 64, 0
1, 188448, Note_on_c, 0, 63, 68
1, 188518, Note_on_c, 0, 63, 0
1, 188518, Note_on_c, 0, 61, 69
1, 188562, Control_c, 0, 64, 127
1, 188562, Control_c, 0, 64, 127
1, 188588, Note_on_c, 0, 61, 0
1, 188588, Note_on_c, 0, 52, 61
1, 188659, Note_on_c, 0, 76, 0
1, 188659, Note_on_c, 0, 64, 0
1, 188659, Note_on_c, 0, 73, 0
1, 188662, Note_on_c, 0, 73, 83
1, 188662, Note_on_c, 0, 76, 83
1, 188662, Note_on_c, 0, 85, 97
1, 188672, Control_c, 0, 64, 0
1, 188672, Control_c, 0, 64, 0
1, 188741, Control_c, 0, 64, 0
1, 188741, Control_c, 0, 64, 0
1, 188757, Note_on_c, 0, 52, 0
1, 188799, Note_on_c, 0, 54, 75
1, 188813, Control_c, 0, 64, 0
1, 188813, Control_c, 0, 64, 0
1, 188869, Note_on_c, 0, 61, 67
1, 188899, Control_c, 0, 64, 127
1, 188899, Control_c, 0, 64, 127
1, 188899, Control_c, 0, 64, 127
1, 188902, Control_c, 0, 64, 127
1, 188939, Note_on_c, 0, 61, 0
1, 188939, Note_on_c, 0, 63, 67
1, 189010, Note_on_c, 0, 63, 0
1, 189010, Note_on_c, 0, 54, 0
1, 189010, Note_on_c, 0, 64, 69
1, 189080, Note_on_c, 0, 64, 0
1, 189080, Note_on_c, 0, 63, 69
1, 189150, Note_on_c, 0, 63, 0
1, 189150, Note_on_c, 0, 61, 69
1, 189220, Note_on_c, 0, 61, 0
1, 189220, Note_on_c, 0, 54, 61
1, 189235, Control_c, 0, 64, 127
1, 189235, Control_c, 0, 64, 127
1, 189286, Control_c, 0, 64, 0
1, 189286, Control_c, 0, 64, 0
1, 189290, Note_on_c, 0, 76, 0
1, 189290, Note_on_c, 0, 71, 82
1, 189290, Note_on_c, 0, 76, 82
1, 189293, Note_on_c, 0, 83, 98
1, 189312, Note_on_c, 0, 85, 0
1, 189312, Note_on_c, 0, 73, 0
1, 189333, Control_c, 0, 64, 0
1, 189333, Control_c, 0, 64, 0
1, 189389, Note_on_c, 0, 54, 0
1, 189431, Note_on_c, 0, 55, 76
1, 189434, Control_c, 0, 64, 0
1, 189434, Control_c, 0, 64, 0
1, 189501, Note_on_c, 0, 61, 73
1, 189529, Control_c, 0, 64, 127
1, 189529, Control_c, 0, 64, 127
1, 189537, Control_c, 0, 64, 127
1, 189537, Control_c, 0, 64, 127
1, 189571, Note_on_c, 0, 61, 0
1, 189571, Note_on_c, 0, 63, 68
1, 189641, Note_on_c, 0, 63, 0
1, 189641, Note_on_c, 0, 55, 0
1, 189641, Note_on_c, 0, 64, 67
1, 189712, Note_on_c, 0, 64, 0
1, 189712, Note_on_c, 0, 63, 70
1, 189782, Note_on_c, 0, 63, 0
1, 189782, Note_on_c, 0, 61, 74
1, 189852, Note_on_c, 0, 76, 0
1, 189852, Note_on_c, 0, 69, 74
1, 189852, Note_on_c, 0, 76, 74
1, 189855, Note_on_c, 0, 61, 0
1, 189855, Note_on_c, 0, 81, 90
1, 189855, Note_on_c, 0, 55, 61
1, 189868, Note_on_c, 0, 71, 0
1, 189868, Note_on_c, 0, 83, 0
1, 189945, Control_c, 0, 64, 127
1, 189945, Control_c, 0, 64, 127
1, 189954, Note_on_c, 0, 76, 0
1, 189954, Note_on_c, 0, 68, 74
1, 189954, Note_on_c, 0, 76, 74
1, 189957, Note_on_c, 0, 80, 90
1, 189957, Control_c, 0, 64, 0
1, 189957, Control_c, 0, 64, 0
1, 189966, Note_on_c, 0, 69, 0
1, 189966, Note_on_c, 0, 81, 0
1, 189984, Control_c, 0, 64, 0
1, 189984, Control_c, 0, 64, 0
1, 190007, Note_on_c, 0, 55, 0
1, 190029, Note_on_c, 0, 56, 78
1, 190048, Control_c, 0, 64, 0
1, 190048, Control_c, 0, 64, 0
1, 190104, Note_on_c, 0, 61, 66
1, 190140, Control_c, 0, 64, 127
1, 190140, Control_c, 0, 64, 127
1, 190140, Control_c, 0, 64, 127
1, 190143, Control_c, 0, 64, 127
1, 190179, Note_on_c, 0, 61, 0
1, 190179, Note_on_c, 0, 63, 72
1, 190254, Note_on_c, 0, 63, 0
1, 190254, Note_on_c, 0, 56, 0
1, 190254, Note_on_c, 0, 64, 75
1, 190329, Note_on_c, 0, 64, 0
1, 190329, Note_on_c, 0, 63, 69
1, 190403, Note_on_c, 0, 63, 0
1, 190403, Note_on_c, 0, 61, 74
1, 190478, Note_on_c, 0, 61, 0
1, 190478, Note_on_c, 0, 56, 61
1, 190498, Control_c, 0, 64, 127
1, 190498, Control_c, 0, 64, 127
1, 190553, Note_on_c, 0, 68, 0
1, 190553, Control_c, 0, 64, 0
1, 190553, Control_c, 0, 64, 0
1, 190556, Note_on_c, 0, 80, 0
1, 190556, Note_on_c, 0, 76, 0
1, 190556, Note_on_c, 0, 67, 81
1, 190559, Note_on_c, 0, 73, 81
1, 190559, Note_on_c, 0, 76, 94
1, 190559, Note_on_c, 0, 79, 81
1, 190562, Control_c, 0, 64, 0
1, 190562, Control_c, 0, 64, 0
1, 190562, Control_c, 0, 64, 0
1, 190565, Note_on_c, 0, 56, 0
1, 190565, Control_c, 0, 64, 0
1, 190588, Control_c, 0, 64, 0
1, 190588, Control_c, 0, 64, 0
1, 190647, Note_on_c, 0, 57, 76
1, 190722, Note_on_c, 0, 57, 0
1, 190722, Note_on_c, 0, 64, 74
1, 190728, Control_c, 0, 64, 127
1, 190728, Control_c, 0, 64, 127
1, 190797, Note_on_c, 0, 64, 0
1, 190797, Note_on_c, 0, 66, 74
1, 190871, Note_on_c, 0, 66, 0
1, 190871, Note_on_c, 0, 67, 75
1, 190946, Note_on_c, 0, 67, 0
1, 190946, Note_on_c, 0, 66, 76
1, 191021, Note_on_c, 0, 66, 0
1, 191021, Note_on_c, 0, 64, 78
1, 191067, Control_c, 0, 64, 127
1, 191067, Control_c, 0, 64, 127
1, 191096, Note_on_c, 0, 64, 0
1, 191096, Note_on_c, 0, 57, 71
1, 191171, Note_on_c, 0, 79, 0
1, 191171, Note_on_c, 0, 79, 91
1, 191171, Note_on_c, 0, 85, 91
1, 191174, Note_on_c, 0, 57, 0
1, 191174, Note_on_c, 0, 88, 104
1, 191174, Note_on_c, 0, 91, 91
1, 191186, Note_on_c, 0, 76, 0
1, 191186, Note_on_c, 0, 67, 0
1, 191186, Note_on_c, 0, 73, 0
1, 191265, Note_on_c, 0, 58, 81
1, 191279, Control_c, 0, 64, 0
1, 191279, Control_c, 0, 64, 0
1, 191339, Note_on_c, 0, 58, 0
1, 191339, Note_on_c, 0, 64, 77
1, 191371, Control_c, 0, 64, 127
1, 191371, Control_c, 0, 64, 127
1, 191414, Note_on_c, 0, 64, 0
1, 191414, Note_on_c, 0, 66, 77
1, 191489, Note_on_c, 0, 66, 0
1, 191489, Note_on_c, 0, 67, 80
1, 191564, Note_on_c, 0, 67, 0
1, 191564, Note_on_c, 0, 66, 80
1, 191639, Note_on_c, 0, 66, 0
1, 191639, Note_on_c, 0, 64, 80
1, 191714, Note_on_c, 0, 64, 0
1, 191714, Note_on_c, 0, 58, 73
1, 191729, Control_c, 0, 64, 127
1, 191729, Control_c, 0, 64, 127
1, 191789, Note_on_c, 0, 78, 92
1, 191789, Note_on_c, 0, 83, 92
1, 191789, Note_on_c, 0, 88, 105
1, 191792, Note_on_c, 0, 58, 0
1, 191792, Note_on_c, 0, 90, 92
1, 191803, Note_on_c, 0, 79, 0
1, 191803, Note_on_c, 0, 85, 0
1, 191803, Note_on_c, 0, 88, 0
1, 191806, Note_on_c, 0, 91, 0
1, 191882, Note_on_c, 0, 59, 84
1, 191885, Control_c, 0, 64, 0
1, 191885, Control_c, 0, 64, 0
1, 191957, Note_on_c, 0, 59, 0
1, 191957, Note_on_c, 0, 64, 85
1, 191996, Control_c, 0, 64, 127
1, 191996, Control_c, 0, 64, 127
1, 192032, Note_on_c, 0, 64, 0
1, 192032, Note_on_c, 0, 66, 81
1, 192107, Note_on_c, 0, 66, 0
1, 192107, Note_on_c, 0, 67, 80
1, 192182, Note_on_c, 0, 67, 0
1, 192182, Note_on_c, 0, 66, 84
1, 192257, Note_on_c, 0, 66, 0
1, 192257, Note_on_c, 0, 64, 87
1, 192332, Note_on_c, 0, 64, 0
1, 192332, Note_on_c, 0, 59, 75
1, 192399, Control_c, 0, 64, 127
1, 192399, Control_c, 0, 64, 127
1, 192407, Note_on_c, 0, 88, 0
1, 192407, Note_on_c, 0, 90, 0
1, 192407, Note_on_c, 0, 78, 0
1, 192410, Note_on_c, 0, 76, 93
1, 192410, Note_on_c, 0, 82, 93
1, 192410, Note_on_c, 0, 88, 106
1, 192413, Note_on_c, 0, 59, 0
1, 192421, Note_on_c, 0, 83, 0
1, 192500, Note_on_c, 0, 60, 89
1, 192519, Control_c, 0, 64, 0
1, 192519, Control_c, 0, 64, 0
1, 192575, Note_on_c, 0, 60, 0
1, 192575, Note_on_c, 0, 64, 81
1, 192611, Control_c, 0, 64, 127
1, 192611, Control_c, 0, 64, 127
1, 192650, Note_on_c, 0, 64, 0
1, 192650, Note_on_c, 0, 66, 88
1, 192725, Note_on_c, 0, 66, 0
1, 192725, Note_on_c, 0, 67, 92
1, 192800, Note_on_c, 0, 67, 0
1, 192800, Note_on_c, 0, 66, 86
1, 192875, Note_on_c, 0, 66, 0
1, 192875, Note_on_c, 0, 64, 90
1, 192896, Control_c, 0, 64, 127
1, 192896, Control_c, 0, 64, 127
1, 192949, Note_on_c, 0, 64, 0
1, 192949, Note_on_c, 0, 60, 78
1, 193024, Note_on_c, 0, 76, 0
1, 193024, Control_c, 0, 64, 127
1, 193024, Control_c, 0, 64, 0
1, 193027, Note_on_c, 0, 88, 0
1, 193027, Note_on_c, 0, 82, 0
1, 193027, Note_on_c, 0, 76, 96
1, 193030, Note_on_c, 0, 79, 96
1, 193030, Note_on_c, 0, 82, 111
1, 193030, Note_on_c, 0, 88, 96
1, 193033, Control_c, 0, 64, 127
1, 193033, Control_c, 0, 64, 0
1, 193033, Control_c, 0, 64, 0
1, 193036, Note_on_c, 0, 60, 0
1, 193036, Control_c, 0, 64, 0
1, 193105, Control_c, 0, 64, 0
1, 193105, Control_c, 0, 64, 0
1, 193118, Note_on_c, 0, 61, 91
1, 193193, Note_on_c, 0, 67, 88
1, 193199, Control_c, 0, 64, 127
1, 193199, Control_c, 0, 64, 127
1, 193199, Control_c, 0, 64, 127
1, 193202, Control_c, 0, 64, 127
1, 193268, Note_on_c, 0, 67, 0
1, 193268, Note_on_c, 0, 61, 0
1, 193268, Note_on_c, 0, 69, 86
1, 193343, Note_on_c, 0, 69, 0
1, 193343, Note_on_c, 0, 70, 86
1, 193417, Note_on_c, 0, 70, 0
1, 193417, Note_on_c, 0, 69, 89
1, 193492, Note_on_c, 0, 69, 0
1, 193492, Note_on_c, 0, 67, 89
1, 193538, Control_c, 0, 64, 127
1, 193538, Control_c, 0, 64, 127
1, 193567, Note_on_c, 0, 67, 0
1, 193567, Note_on_c, 0, 61, 74
1, 193642, Note_on_c, 0, 82, 0
1, 193642, Note_on_c, 0, 82, 99
1, 193642, Note_on_c, 0, 86, 99
1, 193645, Note_on_c, 0, 61, 0
1, 193645, Note_on_c, 0, 94, 113
1, 193651, Control_c, 0, 64, 0
1, 193651, Control_c, 0, 64, 0
1, 193657, Note_on_c, 0, 88, 0
1, 193657, Note_on_c, 0, 76, 0
1, 193657, Note_on_c, 0, 79, 0
1, 193697, Control_c, 0, 64, 0
1, 193697, Control_c, 0, 64, 0
1, 193736, Note_on_c, 0, 62, 93
1, 193750, Control_c, 0, 64, 0
1, 193750, Control_c, 0, 64, 0
1, 193811, Note_on_c, 0, 67, 84
1, 193842, Control_c, 0, 64, 127
1, 193842, Control_c, 0, 64, 127
1, 193842, Control_c, 0, 64, 127
1, 193845, Control_c, 0, 64, 127
1, 193885, Note_on_c, 0, 67, 0
1, 193885, Note_on_c, 0, 62, 0
1, 193885, Note_on_c, 0, 69, 84
1, 193960, Note_on_c, 0, 69, 0
1, 193960, Note_on_c, 0, 70, 85
1, 194035, Note_on_c, 0, 70, 0
1, 194035, Note_on_c, 0, 69, 85
1, 194110, Note_on_c, 0, 69, 0
1, 194110, Note_on_c, 0, 67, 86
1, 194185, Note_on_c, 0, 67, 0
1, 194185, Note_on_c, 0, 62, 72
1, 194200, Control_c, 0, 64, 127
1, 194200, Control_c, 0, 64, 127
1, 194255, Control_c, 0, 64, 0
1, 194255, Control_c, 0, 64, 0
1, 194260, Note_on_c, 0, 81, 100
1, 194260, Note_on_c, 0, 85, 100
1, 194260, Note_on_c, 0, 93, 115
1, 194263, Note_on_c, 0, 62, 0
1, 194274, Note_on_c, 0, 94, 0
1, 194274, Note_on_c, 0, 86, 0
1, 194274, Note_on_c, 0, 82, 0
1, 194288, Control_c, 0, 64, 0
1, 194288, Control_c, 0, 64, 0
1, 194353, Note_on_c, 0, 63, 94
1, 194357, Control_c, 0, 64, 0
1, 194357, Control_c, 0, 64, 0
1, 194447, Note_on_c, 0, 67, 88
1, 194476, Control_c, 0, 64, 127
1, 194476, Control_c, 0, 64, 127
1, 194486, Control_c, 0, 64, 127
1, 194486, Control_c, 0, 64, 127
1, 194522, Note_on_c, 0, 67, 0
1, 194522, Note_on_c, 0, 63, 0
1, 194522, Note_on_c, 0, 69, 82
1, 194597, Note_on_c, 0, 69, 0
1, 194597, Note_on_c, 0, 70, 81
1, 194672, Note_on_c, 0, 70, 0
1, 194672, Note_on_c, 0, 69, 84
1, 194747, Note_on_c, 0, 69, 0
1, 194747, Note_on_c, 0, 67, 89
1, 194821, Note_on_c, 0, 67, 0
1, 194821, Note_on_c, 0, 79, 92
1, 194821, Note_on_c, 0, 91, 105
1, 194824, Note_on_c, 0, 63, 70
1, 194843, Note_on_c, 0, 85, 0
1, 194843, Note_on_c, 0, 93, 0
1, 194843, Note_on_c, 0, 81, 0
1, 194949, Control_c, 0, 64, 127
1, 194949, Control_c, 0, 64, 127
1, 194962, Note_on_c, 0, 78, 91
1, 194962, Note_on_c, 0, 84, 91
1, 194962, Note_on_c, 0, 90, 103
1, 194965, Note_on_c, 0, 63, 0
1, 194965, Control_c, 0, 64, 0
1, 194965, Control_c, 0, 64, 0
1, 194984, Note_on_c, 0, 79, 0
1, 194984, Note_on_c, 0, 91, 0
1, 195018, Control_c, 0, 64, 0
1, 195018, Control_c, 0, 64, 0
1, 195102, Note_on_c, 0, 68, 88
1, 195126, Control_c, 0, 64, 0
1, 195126, Control_c, 0, 64, 0
1, 195196, Note_on_c, 0, 72, 73
1, 195235, Control_c, 0, 64, 127
1, 195235, Control_c, 0, 64, 127
1, 195235, Control_c, 0, 64, 127
1, 195238, Control_c, 0, 64, 127
1, 195276, Note_on_c, 0, 72, 0
1, 195276, Note_on_c, 0, 68, 0
1, 195276, Note_on_c, 0, 73, 77
1, 195351, Note_on_c, 0, 73, 0
1, 195351, Note_on_c, 0, 75, 77
1, 195426, Note_on_c, 0, 75, 0
1, 195426, Note_on_c, 0, 73, 71
1, 195506, Note_on_c, 0, 73, 0
1, 195506, Note_on_c, 0, 72, 73
1, 195586, Note_on_c, 0, 72, 0
1, 195586, Note_on_c, 0, 68, 59
1, 195609, Control_c, 0, 64, 127
1, 195609, Control_c, 0, 64, 127
1, 195673, Note_on_c, 0, 78, 0
1, 195673, Control_c, 0, 64, 0
1, 195673, Control_c, 0, 64, 0
1, 195676, Note_on_c, 0, 90, 0
1, 195676, Note_on_c, 0, 84, 0
1, 195676, Control_c, 0, 64, 0
1, 195679, Control_c, 0, 64, 0
1, 195679, Control_c, 0, 64, 0
1, 195679, Control_c, 0, 64, 0
1, 195682, Note_on_c, 0, 68, 0
1, 195682, Note_on_c, 0, 61, 66
1, 195682, Note_on_c, 0, 73, 78
1, 195766, Note_on_c, 0, 64, 80
1, 195810, Control_c, 0, 64, 127
1, 195810, Control_c, 0, 64, 127
1, 195860, Note_on_c, 0, 64, 0
1, 195860, Note_on_c, 0, 73, 67
1, 195946, Note_on_c, 0, 73, 0
1, 195946, Note_on_c, 0, 75, 70
1, 196033, Note_on_c, 0, 75, 0
1, 196033, Note_on_c, 0, 76, 72
1, 196119, Note_on_c, 0, 76, 0
1, 196119, Note_on_c, 0, 75, 72
1, 196199, Note_on_c, 0, 75, 0
1, 196199, Note_on_c, 0, 73, 69
1, 196210, Control_c, 0, 64, 127
1, 196210, Control_c, 0, 64, 127
1, 196279, Note_on_c, 0, 73, 0
1, 196279, Note_on_c, 0, 64, 62
1, 196354, Note_on_c, 0, 64, 0
1, 196354, Note_on_c, 0, 57, 69
1, 196354, Note_on_c, 0, 69, 81
1, 196366, Note_on_c, 0, 73, 0
1, 196366, Note_on_c, 0, 61, 0
1, 196429, Note_on_c, 0, 66, 82
1, 196499, Note_on_c, 0, 73, 76
1, 196570, Note_on_c, 0, 73, 0
1, 196570, Note_on_c, 0, 66, 0
1, 196570, Note_on_c, 0, 75, 70
1, 196640, Note_on_c, 0, 75, 0
1, 196640, Note_on_c, 0, 76, 75
1, 196710, Note_on_c, 0, 76, 0
1, 196710, Note_on_c, 0, 75, 75
1, 196780, Note_on_c, 0, 75, 0
1, 196780, Note_on_c, 0, 73, 77
1, 196850, Note_on_c, 0, 73, 0
1, 196850, Note_on_c, 0, 66, 68
1, 196873, Control_c, 0, 64, 127
1, 196873, Control_c, 0, 64, 127
1, 196921, Note_on_c, 0, 66, 0
1, 196921, Note_on_c, 0, 52, 72
1, 196921, Note_on_c, 0, 64, 84
1, 196933, Note_on_c, 0, 57, 0
1, 196933, Note_on_c, 0, 69, 0
1, 197001, Note_on_c, 0, 67, 86
1, 197004, Control_c, 0, 64, 127
1, 197004, Control_c, 0, 64, 127
1, 197033, Control_c, 0, 64, 0
1, 197033, Control_c, 0, 64, 0
1, 197064, Control_c, 0, 64, 127
1, 197064, Control_c, 0, 64, 127
1, 197081, Note_on_c, 0, 73, 79
1, 197151, Note_on_c, 0, 73, 0
1, 197151, Note_on_c, 0, 67, 0
1, 197151, Note_on_c, 0, 75, 79
1, 197222, Note_on_c, 0, 75, 0
1, 197222, Note_on_c, 0, 76, 76
1, 197292, Note_on_c, 0, 76, 0
1, 197292, Note_on_c, 0, 75, 76
1, 197362, Note_on_c, 0, 75, 0
1, 197362, Note_on_c, 0, 73, 76
1, 197376, Control_c, 0, 64, 127
1, 197376, Control_c, 0, 64, 127
1, 197432, Note_on_c, 0, 73, 0
1, 197432, Note_on_c, 0, 67, 68
1, 197502, Note_on_c, 0, 67, 0
1, 197502, Note_on_c, 0, 49, 74
1, 197502, Note_on_c, 0, 61, 87
1, 197513, Note_on_c, 0, 52, 0
1, 197513, Note_on_c, 0, 64, 0
1, 197565, Control_c, 0, 64, 0
1, 197565, Control_c, 0, 64, 0
1, 197573, Note_on_c, 0, 68, 89
1, 197608, Control_c, 0, 64, 127
1, 197608, Control_c, 0, 64, 127
1, 197643, Note_on_c, 0, 73, 75
1, 197713, Note_on_c, 0, 73, 0
1, 197713, Note_on_c, 0, 68, 0
1, 197713, Note_on_c, 0, 75, 78
1, 197783, Note_on_c, 0, 75, 0
1, 197783, Note_on_c, 0, 76, 74
1, 197853, Note_on_c, 0, 76, 0
1, 197853, Note_on_c, 0, 75, 74
1, 197924, Note_on_c, 0, 75, 0
1, 197924, Note_on_c, 0, 73, 79
1, 197994, Note_on_c, 0, 73, 0
1, 197994, Note_on_c, 0, 68, 72
1, 198038, Control_c, 0, 64, 0
1, 198038, Control_c, 0, 64, 0
1, 198064, Control_c, 0, 64, 127
1, 198064, Control_c, 0, 64, 0
1, 198064, Control_c, 0, 64, 0
1, 198067, Note_on_c, 0, 68, 0
1, 198067, Control_c, 0, 64, 127
1, 198067, Control_c, 0, 64, 0
1, 198070, Control_c, 0, 64, 0
1, 198070, Control_c, 0, 64, 0
1, 198070, Control_c, 0, 64, 0
1, 198073, Control_c, 0, 64, 0
1, 198073, Note_on_c, 0, 45, 77
1, 198073, Note_on_c, 0, 57, 89
1, 198076, Note_on_c, 0, 49, 0
1, 198076, Note_on_c, 0, 61, 0
1, 198144, Note_on_c, 0, 61, 78
1, 198151, Control_c, 0, 64, 0
1, 198151, Control_c, 0, 64, 0
1, 198195, Control_c, 0, 64, 127
1, 198195, Control_c, 0, 64, 127
1, 198214, Note_on_c, 0, 61, 0
1, 198214, Note_on_c, 0, 64, 84
1, 198285, Note_on_c, 0, 64, 0
1, 198285, Note_on_c, 0, 69, 89
1, 198355, Note_on_c, 0, 69, 0
1, 198355, Note_on_c, 0, 76, 100
1, 198425, Note_on_c, 0, 76, 0
1, 198425, Note_on_c, 0, 69, 89
1, 198495, Note_on_c, 0, 69, 0
1, 198495, Note_on_c, 0, 64, 84
1, 198565, Note_on_c, 0, 64, 0
1, 198565, Note_on_c, 0, 61, 78
1, 198636, Note_on_c, 0, 61, 0
1, 198636, Note_on_c, 0, 40, 75
1, 198636, Note_on_c, 0, 52, 87
1, 198649, Note_on_c, 0, 45, 0
1, 198649, Note_on_c, 0, 57, 0
1, 198654, Control_c, 0, 64, 127
1, 198654, Control_c, 0, 64, 127
1, 198665, Control_c, 0, 64, 0
1, 198665, Control_c, 0, 64, 0
1, 198722, Note_on_c, 0, 59, 78
1, 198728, Control_c, 0, 64, 127
1, 198728, Control_c, 0, 64, 127
1, 198808, Note_on_c, 0, 59, 0
1, 198808, Note_on_c, 0, 64, 82
1, 198879, Note_on_c, 0, 64, 0
1, 198879, Note_on_c, 0, 68, 86
1, 198949, Note_on_c, 0, 68, 0
1, 198949, Note_on_c, 0, 76, 95
1, 199019, Note_on_c, 0, 76, 0
1, 199019, Note_on_c, 0, 68, 86
1, 199089, Note_on_c, 0, 68, 0
1, 199089, Note_on_c, 0, 64, 82
1, 199159, Note_on_c, 0, 64, 0
1, 199159, Note_on_c, 0, 59, 78
1, 199216, Control_c, 0, 64, 0
1, 199216, Control_c, 0, 64, 0
1, 199230, Note_on_c, 0, 59, 0
1, 199230, Note_on_c, 0, 37, 77
1, 199230, Note_on_c, 0, 49, 89
1, 199243, Note_on_c, 0, 40, 0
1, 199243, Note_on_c, 0, 52, 0
1, 199277, Control_c, 0, 64, 127
1, 199277, Control_c, 0, 64, 127
1, 199316, Note_on_c, 0, 58, 81
1, 199402, Note_on_c, 0, 58, 0
1, 199402, Note_on_c, 0, 64, 83
1, 199473, Note_on_c, 0, 64, 0
1, 199473, Note_on_c, 0, 67, 86
1, 199543, Note_on_c, 0, 67, 0
1, 199543, Note_on_c, 0, 76, 98
1, 199613, Note_on_c, 0, 76, 0
1, 199613, Note_on_c, 0, 67, 86
1, 199683, Note_on_c, 0, 67, 0
1, 199683, Note_on_c, 0, 64, 83
1, 199753, Note_on_c, 0, 64, 0
1, 199753, Note_on_c, 0, 58, 81
1, 199817, Control_c, 0, 64, 0
1, 199817, Control_c, 0, 64, 0
1, 199824, Note_on_c, 0, 58, 0
1, 199824, Note_on_c, 0, 36, 69
1, 199824, Note_on_c, 0, 48, 81
1, 199837, Note_on_c, 0, 37, 0
1, 199837, Note_on_c, 0, 49, 0
1, 199869, Control_c, 0, 64, 127
1, 199869, Control_c, 0, 64, 127
1, 199910, Note_on_c, 0, 57, 82
1, 199980, Note_on_c, 0, 57, 0
1, 199980, Note_on_c, 0, 63, 84
1, 200050, Note_on_c, 0, 63, 0
1, 200050, Note_on_c, 0, 66, 87
1, 200121, Note_on_c, 0, 66, 0
1, 200121, Note_on_c, 0, 75, 97
1, 200191, Note_on_c, 0, 75, 0
1, 200191, Note_on_c, 0, 66, 84
1, 200261, Note_on_c, 0, 66, 0
1, 200261, Note_on_c, 0, 63, 82
1, 200331, Note_on_c, 0, 63, 0
1, 200331, Note_on_c, 0, 57, 79
1, 200367, Control_c, 0, 64, 0
1, 200367, Control_c, 0, 64, 0
1, 200401, Note_on_c, 0, 57, 0
1, 200401, Control_c, 0, 64, 0
1, 200401, Control_c, 0, 64, 0
1, 200404, Control_c, 0, 64, 0
1, 200404, Control_c, 0, 64, 0
1, 200404, Control_c, 0, 64, 0
1, 200407, Control_c, 0, 64, 0
1, 200407, Note_on_c, 0, 37, 79
1, 200407, Note_on_c, 0, 49, 92
1, 200412, Note_on_c, 0, 36, 0
1, 200412, Note_on_c, 0, 48, 0
1, 200472, Note_on_c, 0, 56, 80
1, 200479, Control_c, 0, 64, 0
1, 200479, Control_c, 0, 64, 0
1, 200522, Control_c, 0, 64, 127
1, 200522, Control_c, 0, 64, 127
1, 200542, Note_on_c, 0, 56, 0
1, 200542, Note_on_c, 0, 62, 78
1, 200612, Note_on_c, 0, 62, 0
1, 200612, Note_on_c, 0, 65, 86
1, 200682, Note_on_c, 0, 65, 0
1, 200682, Note_on_c, 0, 74, 93
1, 200752, Note_on_c, 0, 74, 0
1, 200752, Note_on_c, 0, 65, 91
1, 200823, Note_on_c, 0, 65, 0
1, 200823, Note_on_c, 0, 62, 86
1, 200893, Note_on_c, 0, 62, 0
1, 200893, Note_on_c, 0, 56, 79
1, 200963, Note_on_c, 0, 56, 0
1, 200963, Note_on_c, 0, 30, 75
1, 200963, Note_on_c, 0, 42, 88
1, 200978, Note_on_c, 0, 37, 0
1, 200978, Note_on_c, 0, 49, 0
1, 200978, Control_c, 0, 64, 127
1, 200978, Control_c, 0, 64, 127
1, 200987, Control_c, 0, 64, 0
1, 200987, Control_c, 0, 64, 0
1, 201033, Note_on_c, 0, 57, 79
1, 201038, Control_c, 0, 64, 127
1, 201038, Control_c, 0, 64, 127
1, 201103, Note_on_c, 0, 57, 0
1, 201103, Note_on_c, 0, 61, 83
1, 201174, Note_on_c, 0, 61, 0
1, 201174, Note_on_c, 0, 66, 87
1, 201244, Note_on_c, 0, 66, 0
1, 201244, Note_on_c, 0, 73, 90
1, 201314, Note_on_c, 0, 73, 0
1, 201314, Note_on_c, 0, 66, 87
1, 201384, Note_on_c, 0, 66, 0
1, 201384, Note_on_c, 0, 61, 83
1, 201454, Note_on_c, 0, 61, 0
1, 201454, Note_on_c, 0, 57, 78
1, 201511, Control_c, 0, 64, 0
1, 201511, Control_c, 0, 64, 0
1, 201525, Note_on_c, 0, 57, 0
1, 201525, Note_on_c, 0, 32, 74
1, 201525, Note_on_c, 0, 44, 85
1, 201545, Note_on_c, 0, 30, 0
1, 201545, Note_on_c, 0, 42, 0
1, 201572, Control_c, 0, 64, 127
1, 201572, Control_c, 0, 64, 127
1, 201611, Note_on_c, 0, 56, 77
1, 201697, Note_on_c, 0, 56, 0
1, 201697, Note_on_c, 0, 61, 79
1, 201768, Note_on_c, 0, 61, 0
1, 201768, Note_on_c, 0, 66, 82
1, 201838, Note_on_c, 0, 66, 0
1, 201838, Note_on_c, 0, 73, 88
1, 201908, Note_on_c, 0, 73, 0
1, 201908, Note_on_c, 0, 66, 81
1, 201978, Note_on_c, 0, 66, 0
1, 201978, Note_on_c, 0, 61, 78
1, 202048, Note_on_c, 0, 61, 0
1, 202048, Note_on_c, 0, 56, 76
1, 202112, Control_c, 0, 64, 0
1, 202112, Control_c, 0, 64, 0
1, 202119, Note_on_c, 0, 56, 0
1, 202119, Note_on_c, 0, 32, 0
1, 202119, Note_on_c, 0, 32, 81
1, 202135, Note_on_c, 0, 44, 0
1, 202138, Control_c, 0, 64, 0
1, 202138, Control_c, 0, 64, 0
1, 202189, Note_on_c, 0, 54, 76
1, 202209, Control_c, 0, 64, 127
1, 202209, Control_c, 0, 64, 127
1, 202259, Note_on_c, 0, 54, 0
1, 202259, Note_on_c, 0, 60, 78
1, 202329, Note_on_c, 0, 60, 0
1, 202329, Note_on_c, 0, 63, 81
1, 202399, Note_on_c, 0, 63, 0
1, 202399, Note_on_c, 0, 72, 84
1, 202470, Note_on_c, 0, 72, 0
1, 202470, Note_on_c, 0, 63, 77
1, 202540, Note_on_c, 0, 63, 0
1, 202540, Note_on_c, 0, 60, 75
1, 202610, Note_on_c, 0, 60, 0
1, 202610, Note_on_c, 0, 54, 72
1, 202646, Control_c, 0, 64, 0
1, 202646, Control_c, 0, 64, 0
1, 202680, Note_on_c, 0, 54, 0
1, 202680, Control_c, 0, 64, 0
1, 202680, Control_c, 0, 64, 0
1, 202683, Control_c, 0, 64, 0
1, 202683, Control_c, 0, 64, 0
1, 202683, Control_c, 0, 64, 0
1, 202686, Control_c, 0, 64, 0
1, 202686, Control_c, 0, 64, 0
1, 202686, Note_on_c, 0, 37, 78
1, 202700, Note_on_c, 0, 32, 0
1, 202767, Note_on_c, 0, 52, 72
1, 202775, Control_c, 0, 64, 127
1, 202775, Control_c, 0, 64, 127
1, 202841, Note_on_c, 0, 61, 73
1, 202916, Note_on_c, 0, 61, 0
1, 202916, Note_on_c, 0, 64, 77
1, 202977, Control_c, 0, 64, 0
1, 202977, Control_c, 0, 64, 0
1, 202991, Note_on_c, 0, 64, 0
1, 202991, Note_on_c, 0, 73, 81
1, 203032, Control_c, 0, 64, 127
1, 203032, Control_c, 0, 64, 127
1, 203066, Note_on_c, 0, 73, 0
1, 203066, Note_on_c, 0, 52, 0
1, 203066, Note_on_c, 0, 64, 76
1, 203141, Note_on_c, 0, 64, 0
1, 203141, Note_on_c, 0, 61, 72
1, 203216, Note_on_c, 0, 61, 0
1, 203216, Note_on_c, 0, 52, 66
1, 203291, Note_on_c, 0, 52, 0
1, 203291, Note_on_c, 0, 42, 79
1, 203310, Control_c, 0, 64, 0
1, 203310, Control_c, 0, 64, 0
1, 203313, Note_on_c, 0, 37, 0
1, 203384, Note_on_c, 0, 54, 71
1, 203447, Control_c, 0, 64, 127
1, 203447, Control_c, 0, 64, 127
1, 203471, Note_on_c, 0, 57, 70
1, 203557, Note_on_c, 0, 57, 0
1, 203557, Note_on_c, 0, 61, 73
1, 203644, Note_on_c, 0, 61, 0
1, 203644, Note_on_c, 0, 69, 75
1, 203684, Control_c, 0, 64, 0
1, 203684, Control_c, 0, 64, 0
1, 203737, Note_on_c, 0, 69, 0
1, 203737, Note_on_c, 0, 54, 0
1, 203737, Note_on_c, 0, 61, 73
1, 203741, Control_c, 0, 64, 127
1, 203741, Control_c, 0, 64, 127
1, 203831, Note_on_c, 0, 61, 0
1, 203831, Note_on_c, 0, 57, 69
1, 203924, Note_on_c, 0, 57, 0
1, 203924, Note_on_c, 0, 51, 70
1, 204018, Note_on_c, 0, 37, 76
1, 204034, Control_c, 0, 64, 0
1, 204034, Control_c, 0, 64, 0
1, 204038, Note_on_c, 0, 42, 0
1, 204104, Note_on_c, 0, 51, 0
1, 204104, Note_on_c, 0, 49, 77
1, 204167, Control_c, 0, 64, 127
1, 204167, Control_c, 0, 64, 127
1, 204191, Note_on_c, 0, 52, 66
1, 204284, Note_on_c, 0, 52, 0
1, 204284, Note_on_c, 0, 56, 69
1, 204386, Note_on_c, 0, 56, 0
1, 204386, Note_on_c, 0, 64, 72
1, 204419, Control_c, 0, 64, 0
1, 204419, Control_c, 0, 64, 0
1, 204494, Note_on_c, 0, 64, 0
1, 204494, Note_on_c, 0, 49, 0
1, 204494, Note_on_c, 0, 56, 68
1, 204530, Control_c, 0, 64, 127
1, 204530, Control_c, 0, 64, 127
1, 204619, Note_on_c, 0, 56, 0
1, 204619, Note_on_c, 0, 52, 65
1, 204723, Control_c, 0, 64, 127
1, 204723, Control_c, 0, 64, 127
1, 204780, Note_on_c, 0, 52, 0
1, 204780, Note_on_c, 0, 49, 64
1, 205060, Note_on_c, 0, 49, 0
1, 205060, Note_on_c, 0, 37, 0
1, 205060, Note_on_c, 0, 25, 55
1, 205063, Note_on_c, 0, 37, 40
1, 206184, Control_c, 0, 64, 0
1, 206184, Control_c, 0, 64, 0
1, 206271, Note_on_c, 0, 37, 0
1, 206271, Note_on_c, 0, 25, 0
1, 207681, Control_c, 0, 64, 0
1, 207681, Note_on_c, 0, 73, 90
1, 207681, Control_c, 0, 64, 0
1, 207684, Control_c, 0, 64, 0
1, 207684, Note_on_c, 0, 49, 80
1, 207867, Control_c, 0, 64, 127
1, 207867, Control_c, 0, 64, 127
1, 207931, Note_on_c, 0, 64, 61
1, 207931, Note_on_c, 0, 56, 52
1, 207931, Note_on_c, 0, 68, 61
1, 208144, Note_on_c, 0, 56, 0
1, 208144, Note_on_c, 0, 64, 0
1, 208144, Note_on_c, 0, 64, 63
1, 208147, Note_on_c, 0, 68, 0
1, 208147, Note_on_c, 0, 56, 53
1, 208147, Note_on_c, 0, 68, 63
1, 208332, Note_on_c, 0, 56, 0
1, 208332, Note_on_c, 0, 64, 0
1, 208332, Note_on_c, 0, 64, 65
1, 208335, Note_on_c, 0, 68, 0
1, 208335, Note_on_c, 0, 56, 55
1, 208335, Note_on_c, 0, 68, 65
1, 208499, Note_on_c, 0, 56, 0
1, 208499, Note_on_c, 0, 64, 0
1, 208499, Note_on_c, 0, 64, 67
1, 208502, Note_on_c, 0, 68, 0
1, 208502, Note_on_c, 0, 56, 56
1, 208502, Note_on_c, 0, 68, 67
1, 208642, Note_on_c, 0, 56, 0
1, 208642, Note_on_c, 0, 64, 0
1, 208642, Note_on_c, 0, 64, 69
1, 208645, Note_on_c, 0, 68, 0
1, 208645, Note_on_c, 0, 56, 58
1, 208645, Note_on_c, 0, 68, 69
1, 208759, Control_c, 0, 64, 0
1, 208759, Control_c, 0, 64, 0
1, 208786, Note_on_c, 0, 56, 0
1, 208786, Note_on_c, 0, 64, 0
1, 208786, Note_on_c, 0, 75, 95
1, 208789, Note_on_c, 0, 68, 0
1, 208789, Note_on_c, 0, 44, 82
1, 208812, Note_on_c, 0, 73, 0
1, 208812, Note_on_c, 0, 49, 0
1, 208969, Control_c, 0, 64, 127
1, 208969, Control_c, 0, 64, 127
1, 209001, Note_on_c, 0, 68, 53
1, 209001, Note_on_c, 0, 71, 61
1, 209001, Note_on_c, 0, 51, 52
1, 209004, Note_on_c, 0, 63, 61
1, 209144, Note_on_c, 0, 71, 0
1, 209144, Note_on_c, 0, 68, 0
1, 209144, Note_on_c, 0, 68, 55
1, 209147, Note_on_c, 0, 51, 0
1, 209147, Note_on_c, 0, 63, 0
1, 209147, Note_on_c, 0, 71, 64
1, 209150, Note_on_c, 0, 51, 54
1, 209150, Note_on_c, 0, 63, 64
1, 209289, Note_on_c, 0, 71, 0
1, 209289, Note_on_c, 0, 68, 0
1, 209289, Note_on_c, 0, 68, 57
1, 209292, Note_on_c, 0, 51, 0
1, 209292, Note_on_c, 0, 63, 0
1, 209292, Note_on_c, 0, 71, 66
1, 209295, Note_on_c, 0, 51, 56
1, 209295, Note_on_c, 0, 63, 66
1, 209433, Note_on_c, 0, 71, 0
1, 209433, Note_on_c, 0, 68, 0
1, 209433, Note_on_c, 0, 68, 59
1, 209436, Note_on_c, 0, 51, 0
1, 209436, Note_on_c, 0, 63, 0
1, 209436, Note_on_c, 0, 71, 69
1, 209439, Note_on_c, 0, 51, 58
1, 209439, Note_on_c, 0, 63, 69
1, 209576, Note_on_c, 0, 71, 0
1, 209576, Note_on_c, 0, 68, 0
1, 209576, Note_on_c, 0, 68, 60
1, 209579, Note_on_c, 0, 51, 0
1, 209579, Note_on_c, 0, 63, 0
1, 209579, Note_on_c, 0, 71, 71
1, 209582, Note_on_c, 0, 51, 59
1, 209582, Note_on_c, 0, 63, 71
1, 209613, Note_on_c, 0, 75, 97
1, 209632, Note_on_c, 0, 75, 0
1, 209737, Note_on_c, 0, 68, 0
1, 209737, Note_on_c, 0, 71, 0
1, 209737, Note_on_c, 0, 75, 0
1, 209740, Note_on_c, 0, 63, 0
1, 209740, Note_on_c, 0, 51, 0
1, 209740, Note_on_c, 0, 80, 93
1, 209743, Note_on_c, 0, 40, 84
1, 209762, Note_on_c, 0, 44, 0
1, 209777, Control_c, 0, 64, 0
1, 209777, Control_c, 0, 64, 0
1, 209909, Control_c, 0, 64, 127
1, 209909, Control_c, 0, 64, 127
1, 209952, Note_on_c, 0, 68, 55
1, 209952, Note_on_c, 0, 71, 63
1, 209952, Note_on_c, 0, 47, 54
1, 209955, Note_on_c, 0, 59, 63
1, 210117, Note_on_c, 0, 71, 0
1, 210117, Note_on_c, 0, 68, 0
1, 210117, Note_on_c, 0, 68, 57
1, 210120, Note_on_c, 0, 47, 0
1, 210120, Note_on_c, 0, 59, 0
1, 210120, Note_on_c, 0, 71, 65
1, 210123, Note_on_c, 0, 47, 55
1, 210123, Note_on_c, 0, 59, 65
1, 210262, Note_on_c, 0, 71, 0
1, 210262, Note_on_c, 0, 68, 0
1, 210262, Note_on_c, 0, 68, 58
1, 210265, Note_on_c, 0, 47, 0
1, 210265, Note_on_c, 0, 59, 0
1, 210265, Note_on_c, 0, 71, 68
1, 210268, Note_on_c, 0, 47, 57
1, 210268, Note_on_c, 0, 59, 68
1, 210406, Note_on_c, 0, 71, 0
1, 210406, Note_on_c, 0, 68, 0
1, 210406, Note_on_c, 0, 68, 60
1, 210409, Note_on_c, 0, 47, 0
1, 210409, Note_on_c, 0, 59, 0
1, 210409, Note_on_c, 0, 71, 70
1, 210412, Note_on_c, 0, 47, 59
1, 210412, Note_on_c, 0, 59, 70
1, 210549, Note_on_c, 0, 71, 0
1, 210549, Note_on_c, 0, 68, 0
1, 210549, Note_on_c, 0, 68, 63
1, 210552, Note_on_c, 0, 47, 0
1, 210552, Note_on_c, 0, 59, 0
1, 210552, Note_on_c, 0, 71, 73
1, 210555, Note_on_c, 0, 47, 62
1, 210555, Note_on_c, 0, 59, 73
1, 210694, Note_on_c, 0, 47, 0
1, 210694, Note_on_c, 0, 71, 0
1, 210694, Note_on_c, 0, 68, 0
1, 210697, Note_on_c, 0, 59, 0
1, 210697, Note_on_c, 0, 37, 85
1, 210713, Note_on_c, 0, 40, 0
1, 210713, Control_c, 0, 64, 0
1, 210713, Control_c, 0, 64, 0
1, 210847, Control_c, 0, 64, 127
1, 210847, Control_c, 0, 64, 127
1, 210860, Note_on_c, 0, 65, 56
1, 210860, Note_on_c, 0, 71, 64
1, 210860, Note_on_c, 0, 44, 55
1, 210863, Note_on_c, 0, 56, 64
1, 210928, Note_on_c, 0, 73, 92
1, 210944, Note_on_c, 0, 80, 0
1, 210996, Note_on_c, 0, 71, 0
1, 210996, Note_on_c, 0, 65, 0
1, 210996, Note_on_c, 0, 65, 58
1, 210999, Note_on_c, 0, 44, 0
1, 210999, Note_on_c, 0, 56, 0
1, 210999, Note_on_c, 0, 71, 66
1, 211002, Note_on_c, 0, 44, 57
1, 211002, Note_on_c, 0, 56, 66
1, 211100, Note_on_c, 0, 76, 88
1, 211120, Note_on_c, 0, 73, 0
1, 211163, Note_on_c, 0, 71, 0
1, 211163, Note_on_c, 0, 65, 0
1, 211163, Note_on_c, 0, 65, 59
1, 211166, Note_on_c, 0, 44, 0
1, 211166, Note_on_c, 0, 71, 69
1, 211166, Note_on_c, 0, 74, 93
1, 211169, Note_on_c, 0, 56, 0
1, 211169, Note_on_c, 0, 44, 58
1, 211169, Note_on_c, 0, 56, 69
1, 211185, Note_on_c, 0, 76, 0
1, 211350, Note_on_c, 0, 71, 0
1, 211350, Note_on_c, 0, 65, 0
1, 211350, Note_on_c, 0, 65, 63
1, 211353, Note_on_c, 0, 56, 0
1, 211353, Note_on_c, 0, 44, 0
1, 211353, Note_on_c, 0, 71, 72
1, 211356, Note_on_c, 0, 44, 61
1, 211356, Note_on_c, 0, 56, 72
1, 211444, Note_on_c, 0, 73, 93
1, 211466, Note_on_c, 0, 74, 0
1, 211537, Note_on_c, 0, 71, 0
1, 211537, Note_on_c, 0, 65, 0
1, 211537, Note_on_c, 0, 65, 64
1, 211540, Note_on_c, 0, 44, 0
1, 211540, Note_on_c, 0, 56, 0
1, 211540, Note_on_c, 0, 71, 75
1, 211543, Note_on_c, 0, 44, 63
1, 211543, Note_on_c, 0, 56, 75
1, 211724, Note_on_c, 0, 71, 0
1, 211724, Note_on_c, 0, 65, 0
1, 211724, Control_c, 0, 64, 0
1, 211727, Note_on_c, 0, 78, 99
1, 211727, Control_c, 0, 64, 0
1, 211727, Control_c, 0, 64, 0
1, 211730, Note_on_c, 0, 44, 0
1, 211730, Note_on_c, 0, 56, 0
1, 211730, Note_on_c, 0, 45, 91
1, 211749, Note_on_c, 0, 37, 0
1, 211749, Note_on_c, 0, 73, 0
1, 211906, Control_c, 0, 64, 127
1, 211906, Control_c, 0, 64, 127
1, 211939, Note_on_c, 0, 66, 56
1, 211939, Note_on_c, 0, 73, 65
1, 211939, Note_on_c, 0, 57, 57
1, 211942, Note_on_c, 0, 61, 66
1, 212082, Note_on_c, 0, 73, 0
1, 212082, Note_on_c, 0, 66, 0
1, 212082, Note_on_c, 0, 66, 57
1, 212085, Note_on_c, 0, 57, 0
1, 212085, Note_on_c, 0, 61, 0
1, 212085, Note_on_c, 0, 73, 66
1, 212088, Note_on_c, 0, 57, 58
1, 212088, Note_on_c, 0, 61, 67
1, 212226, Note_on_c, 0, 73, 0
1, 212226, Note_on_c, 0, 66, 0
1, 212226, Note_on_c, 0, 66, 58
1, 212229, Note_on_c, 0, 57, 0
1, 212229, Note_on_c, 0, 61, 0
1, 212229, Note_on_c, 0, 73, 67
1, 212232, Note_on_c, 0, 57, 59
1, 212232, Note_on_c, 0, 61, 68
1, 212371, Note_on_c, 0, 73, 0
1, 212371, Note_on_c, 0, 66, 0
1, 212371, Note_on_c, 0, 66, 59
1, 212374, Note_on_c, 0, 57, 0
1, 212374, Note_on_c, 0, 61, 0
1, 212374, Note_on_c, 0, 73, 69
1, 212377, Note_on_c, 0, 57, 60
1, 212377, Note_on_c, 0, 61, 70
1, 212514, Note_on_c, 0, 73, 0
1, 212514, Note_on_c, 0, 66, 0
1, 212514, Note_on_c, 0, 66, 60
1, 212517, Note_on_c, 0, 57, 0
1, 212517, Note_on_c, 0, 61, 0
1, 212517, Note_on_c, 0, 73, 69
1, 212520, Note_on_c, 0, 57, 62
1, 212520, Note_on_c, 0, 61, 71
1, 212658, Note_on_c, 0, 73, 0
1, 212658, Note_on_c, 0, 66, 0
1, 212658, Note_on_c, 0, 80, 99
1, 212661, Note_on_c, 0, 57, 0
1, 212661, Note_on_c, 0, 61, 0
1, 212675, Note_on_c, 0, 78, 0
1, 212803, Note_on_c, 0, 68, 62
1, 212803, Note_on_c, 0, 73, 72
1, 212803, Note_on_c, 0, 57, 64
1, 212806, Note_on_c, 0, 59, 64
1, 212806, Note_on_c, 0, 65, 73
1, 212946, Note_on_c, 0, 73, 0
1, 212946, Note_on_c, 0, 68, 0
1, 212946, Note_on_c, 0, 68, 63
1, 212949, Note_on_c, 0, 57, 0
1, 212949, Note_on_c, 0, 59, 0
1, 212949, Note_on_c, 0, 73, 73
1, 212952, Note_on_c, 0, 65, 0
1, 212952, Note_on_c, 0, 57, 65
1, 212952, Note_on_c, 0, 59, 65
1, 212955, Note_on_c, 0, 65, 75
1, 213090, Note_on_c, 0, 73, 0
1, 213090, Note_on_c, 0, 68, 0
1, 213090, Note_on_c, 0, 68, 64
1, 213093, Note_on_c, 0, 57, 0
1, 213093, Note_on_c, 0, 59, 0
1, 213093, Note_on_c, 0, 73, 74
1, 213096, Note_on_c, 0, 65, 0
1, 213096, Note_on_c, 0, 57, 65
1, 213096, Note_on_c, 0, 59, 65
1, 213099, Note_on_c, 0, 65, 76
1, 213235, Note_on_c, 0, 73, 0
1, 213235, Note_on_c, 0, 68, 0
1, 213235, Note_on_c, 0, 68, 65
1, 213238, Note_on_c, 0, 57, 0
1, 213238, Note_on_c, 0, 59, 0
1, 213238, Note_on_c, 0, 73, 75
1, 213241, Note_on_c, 0, 65, 0
1, 213241, Note_on_c, 0, 57, 67
1, 213241, Note_on_c, 0, 59, 67
1, 213244, Note_on_c, 0, 65, 77
1, 213378, Note_on_c, 0, 73, 0
1, 213378, Note_on_c, 0, 68, 0
1, 213378, Note_on_c, 0, 68, 66
1, 213381, Note_on_c, 0, 57, 0
1, 213381, Note_on_c, 0, 59, 0
1, 213381, Note_on_c, 0, 73, 77
1, 213384, Note_on_c, 0, 65, 0
1, 213384, Note_on_c, 0, 57, 69
1, 213384, Note_on_c, 0, 59, 69
1, 213387, Note_on_c, 0, 65, 79
1, 213414, Note_on_c, 0, 80, 100
1, 213458, Note_on_c, 0, 80, 0
1, 213601, Note_on_c, 0, 80, 0
1, 213601, Note_on_c, 0, 80, 100
1, 213695, Note_on_c, 0, 73, 0
1, 213695, Note_on_c, 0, 68, 0
1, 213695, Note_on_c, 0, 85, 100
1, 213698, Note_on_c, 0, 65, 0
1, 213698, Note_on_c, 0, 57, 0
1, 213698, Note_on_c, 0, 59, 0
1, 213725, Note_on_c, 0, 80, 0
1, 213765, Control_c, 0, 64, 0
1, 213765, Control_c, 0, 64, 0
1, 213925, Control_c, 0, 64, 127
1, 213925, Control_c, 0, 64, 127
1, 213945, Note_on_c, 0, 66, 56
1, 213945, Note_on_c, 0, 73, 65
1, 213945, Note_on_c, 0, 57, 57
1, 213948, Note_on_c, 0, 61, 66
1, 214089, Note_on_c, 0, 73, 0
1, 214089, Note_on_c, 0, 66, 0
1, 214089, Note_on_c, 0, 66, 57
1, 214092, Note_on_c, 0, 57, 0
1, 214092, Note_on_c, 0, 61, 0
1, 214092, Note_on_c, 0, 73, 66
1, 214095, Note_on_c, 0, 57, 58
1, 214095, Note_on_c, 0, 61, 67
1, 214233, Note_on_c, 0, 73, 0
1, 214233, Note_on_c, 0, 66, 0
1, 214233, Note_on_c, 0, 66, 57
1, 214236, Note_on_c, 0, 85, 0
1, 214236, Note_on_c, 0, 73, 67
1, 214236, Note_on_c, 0, 78, 98
1, 214239, Note_on_c, 0, 61, 0
1, 214239, Note_on_c, 0, 57, 0
1, 214239, Note_on_c, 0, 57, 58
1, 214242, Note_on_c, 0, 61, 68
1, 214377, Note_on_c, 0, 66, 0
1, 214377, Note_on_c, 0, 73, 0
1, 214377, Note_on_c, 0, 66, 58
1, 214380, Note_on_c, 0, 57, 0
1, 214380, Note_on_c, 0, 61, 0
1, 214380, Note_on_c, 0, 73, 68
1, 214383, Note_on_c, 0, 57, 59
1, 214383, Note_on_c, 0, 61, 69
1, 214521, Note_on_c, 0, 73, 0
1, 214521, Note_on_c, 0, 66, 0
1, 214521, Note_on_c, 0, 66, 59
1, 214524, Note_on_c, 0, 57, 0
1, 214524, Note_on_c, 0, 61, 0
1, 214524, Note_on_c, 0, 73, 69
1, 214527, Note_on_c, 0, 57, 60
1, 214527, Note_on_c, 0, 61, 70
1, 214665, Note_on_c, 0, 57, 0
1, 214665, Note_on_c, 0, 73, 0
1, 214665, Note_on_c, 0, 66, 0
1, 214668, Note_on_c, 0, 61, 0
1, 214668, Note_on_c, 0, 44, 86
1, 214687, Note_on_c, 0, 45, 0
1, 214705, Control_c, 0, 64, 0
1, 214705, Control_c, 0, 64, 0
1, 214853, Note_on_c, 0, 64, 60
1, 214853, Note_on_c, 0, 73, 71
1, 214853, Note_on_c, 0, 56, 61
1, 214856, Note_on_c, 0, 61, 72
1, 214859, Control_c, 0, 64, 127
1, 214859, Control_c, 0, 64, 127
1, 214996, Note_on_c, 0, 73, 0
1, 214996, Note_on_c, 0, 64, 0
1, 214996, Note_on_c, 0, 64, 61
1, 214999, Note_on_c, 0, 56, 0
1, 214999, Note_on_c, 0, 61, 0
1, 214999, Note_on_c, 0, 73, 72
1, 215002, Note_on_c, 0, 56, 62
1, 215002, Note_on_c, 0, 61, 73
1, 215140, Note_on_c, 0, 73, 0
1, 215140, Note_on_c, 0, 64, 0
1, 215140, Note_on_c, 0, 64, 62
1, 215143, Note_on_c, 0, 56, 0
1, 215143, Note_on_c, 0, 73, 73
1, 215143, Note_on_c, 0, 76, 100
1, 215146, Note_on_c, 0, 61, 0
1, 215146, Note_on_c, 0, 56, 63
1, 215146, Note_on_c, 0, 61, 74
1, 215160, Note_on_c, 0, 78, 0
1, 215307, Note_on_c, 0, 73, 0
1, 215307, Note_on_c, 0, 64, 0
1, 215307, Note_on_c, 0, 64, 62
1, 215310, Note_on_c, 0, 61, 0
1, 215310, Note_on_c, 0, 56, 0
1, 215310, Note_on_c, 0, 73, 74
1, 215313, Note_on_c, 0, 56, 63
1, 215313, Note_on_c, 0, 61, 75
1, 215494, Note_on_c, 0, 73, 0
1, 215494, Note_on_c, 0, 64, 0
1, 215494, Note_on_c, 0, 64, 63
1, 215497, Note_on_c, 0, 56, 0
1, 215497, Note_on_c, 0, 61, 0
1, 215497, Note_on_c, 0, 73, 75
1, 215500, Note_on_c, 0, 56, 64
1, 215500, Note_on_c, 0, 61, 76
1, 215681, Note_on_c, 0, 73, 0
1, 215681, Note_on_c, 0, 64, 0
1, 215681, Control_c, 0, 64, 127
1, 215684, Note_on_c, 0, 75, 95
1, 215684, Control_c, 0, 64, 127
1, 215684, Control_c, 0, 64, 0
1, 215687, Note_on_c, 0, 56, 0
1, 215687, Note_on_c, 0, 61, 0
1, 215687, Note_on_c, 0, 42, 82
1, 215706, Note_on_c, 0, 44, 0
1, 215706, Note_on_c, 0, 76, 0
1, 215751, Control_c, 0, 64, 0
1, 215751, Control_c, 0, 64, 0
1, 215844, Control_c, 0, 64, 127
1, 215844, Control_c, 0, 64, 127
1, 215895, Note_on_c, 0, 69, 56
1, 215895, Note_on_c, 0, 72, 65
1, 215895, Note_on_c, 0, 57, 50
1, 215898, Note_on_c, 0, 60, 51
1, 215898, Note_on_c, 0, 63, 52
1, 215898, Note_on_c, 0, 66, 62
1, 216061, Note_on_c, 0, 72, 0
1, 216061, Note_on_c, 0, 69, 0
1, 216061, Note_on_c, 0, 69, 58
1, 216064, Note_on_c, 0, 57, 0
1, 216064, Note_on_c, 0, 60, 0
1, 216064, Note_on_c, 0, 72, 68
1, 216067, Note_on_c, 0, 63, 0
1, 216067, Note_on_c, 0, 66, 0
1, 216067, Note_on_c, 0, 57, 51
1, 216070, Note_on_c, 0, 60, 51
1, 216070, Note_on_c, 0, 63, 51
1, 216070, Note_on_c, 0, 66, 61
1, 216124, Note_on_c, 0, 75, 0
1, 216124, Note_on_c, 0, 78, 96
1, 216249, Note_on_c, 0, 72, 0
1, 216249, Note_on_c, 0, 69, 0
1, 216249, Note_on_c, 0, 69, 60
1, 216252, Note_on_c, 0, 78, 0
1, 216252, Note_on_c, 0, 72, 71
1, 216252, Note_on_c, 0, 81, 96
1, 216255, Note_on_c, 0, 60, 0
1, 216255, Note_on_c, 0, 57, 0
1, 216255, Note_on_c, 0, 63, 0
1, 216258, Note_on_c, 0, 66, 0
1, 216258, Note_on_c, 0, 57, 52
1, 216258, Note_on_c, 0, 60, 52
1, 216261, Note_on_c, 0, 63, 52
1, 216261, Note_on_c, 0, 66, 63
1, 216393, Note_on_c, 0, 69, 0
1, 216393, Note_on_c, 0, 72, 0
1, 216393, Note_on_c, 0, 69, 62
1, 216396, Note_on_c, 0, 57, 0
1, 216396, Note_on_c, 0, 60, 0
1, 216396, Note_on_c, 0, 72, 73
1, 216399, Note_on_c, 0, 63, 0
1, 216399, Note_on_c, 0, 66, 0
1, 216399, Note_on_c, 0, 57, 54
1, 216402, Note_on_c, 0, 60, 54
1, 216402, Note_on_c, 0, 63, 54
1, 216402, Note_on_c, 0, 66, 66
1, 216537, Note_on_c, 0, 69, 0
1, 216537, Note_on_c, 0, 72, 0
1, 216537, Note_on_c, 0, 69, 64
1, 216540, Note_on_c, 0, 57, 0
1, 216540, Note_on_c, 0, 60, 0
1, 216540, Note_on_c, 0, 72, 76
1, 216543, Note_on_c, 0, 63, 0
1, 216543, Note_on_c, 0, 66, 0
1, 216543, Note_on_c, 0, 57, 55
1, 216546, Note_on_c, 0, 60, 55
1, 216546, Note_on_c, 0, 63, 55
1, 216546, Note_on_c, 0, 66, 68
1, 216681, Note_on_c, 0, 42, 0
1, 216681, Note_on_c, 0, 69, 0
1, 216681, Note_on_c, 0, 72, 0
1, 216684, Note_on_c, 0, 60, 0
1, 216684, Note_on_c, 0, 57, 0
1, 216684, Note_on_c, 0, 63, 0
1, 216687, Note_on_c, 0, 66, 0
1, 216687, Note_on_c, 0, 44, 82
1, 216727, Control_c, 0, 64, 0
1, 216727, Control_c, 0, 64, 0
1, 216856, Control_c, 0, 64, 127
1, 216856, Control_c, 0, 64, 127
1, 216895, Note_on_c, 0, 68, 56
1, 216895, Note_on_c, 0, 72, 65
1, 216895, Note_on_c, 0, 56, 50
1, 216898, Note_on_c, 0, 60, 51
1, 216898, Note_on_c, 0, 63, 52
1, 216898, Note_on_c, 0, 66, 62
1, 217039, Note_on_c, 0, 72, 0
1, 217039, Note_on_c, 0, 68, 0
1, 217039, Note_on_c, 0, 68, 58
1, 217042, Note_on_c, 0, 56, 0
1, 217042, Note_on_c, 0, 60, 0
1, 217042, Note_on_c, 0, 72, 67
1, 217045, Note_on_c, 0, 63, 0
1, 217045, Note_on_c, 0, 66, 0
1, 217045, Note_on_c, 0, 56, 50
1, 217048, Note_on_c, 0, 60, 50
1, 217048, Note_on_c, 0, 63, 50
1, 217048, Note_on_c, 0, 66, 60
1, 217183, Note_on_c, 0, 68, 0
1, 217183, Note_on_c, 0, 72, 0
1, 217183, Note_on_c, 0, 68, 59
1, 217186, Note_on_c, 0, 81, 0
1, 217186, Note_on_c, 0, 72, 70
1, 217186, Note_on_c, 0, 75, 93
1, 217189, Note_on_c, 0, 63, 0
1, 217189, Note_on_c, 0, 56, 0
1, 217189, Note_on_c, 0, 60, 0
1, 217192, Note_on_c, 0, 66, 0
1, 217192, Note_on_c, 0, 56, 51
1, 217192, Note_on_c, 0, 60, 51
1, 217195, Note_on_c, 0, 63, 51
1, 217195, Note_on_c, 0, 66, 61
1, 217327, Note_on_c, 0, 68, 0
1, 217327, Note_on_c, 0, 72, 0
1, 217327, Note_on_c, 0, 68, 61
1, 217330, Note_on_c, 0, 56, 0
1, 217330, Note_on_c, 0, 60, 0
1, 217330, Note_on_c, 0, 72, 72
1, 217333, Note_on_c, 0, 63, 0
1, 217333, Note_on_c, 0, 66, 0
1, 217333, Note_on_c, 0, 56, 52
1, 217336, Note_on_c, 0, 60, 52
1, 217336, Note_on_c, 0, 63, 52
1, 217336, Note_on_c, 0, 66, 63
1, 217471, Note_on_c, 0, 68, 0
1, 217471, Note_on_c, 0, 72, 0
1, 217471, Note_on_c, 0, 68, 63
1, 217474, Note_on_c, 0, 56, 0
1, 217474, Note_on_c, 0, 60, 0
1, 217474, Note_on_c, 0, 72, 75
1, 217477, Note_on_c, 0, 63, 0
1, 217477, Note_on_c, 0, 66, 0
1, 217477, Note_on_c, 0, 56, 53
1, 217480, Note_on_c, 0, 60, 53
1, 217480, Note_on_c, 0, 63, 53
1, 217480, Note_on_c, 0, 66, 64
1, 217615, Note_on_c, 0, 75, 0
1, 217615, Note_on_c, 0, 68, 0
1, 217615, Note_on_c, 0, 72, 0
1, 217618, Note_on_c, 0, 56, 0
1, 217618, Note_on_c, 0, 60, 0
1, 217618, Note_on_c, 0, 73, 89
1, 217621, Note_on_c, 0, 66, 0
1, 217621, Note_on_c, 0, 63, 0
1, 217621, Note_on_c, 0, 44, 0
1, 217624, Note_on_c, 0, 40, 86
1, 217642, Control_c, 0, 64, 0
1, 217642, Control_c, 0, 64, 0
1, 217724, Control_c, 0, 64, 127
1, 217724, Control_c, 0, 64, 127
1, 217782, Note_on_c, 0, 64, 56
1, 217782, Note_on_c, 0, 68, 65
1, 217782, Note_on_c, 0, 56, 49
1, 217785, Note_on_c, 0, 61, 58
1, 217925, Note_on_c, 0, 68, 0
1, 217925, Note_on_c, 0, 64, 0
1, 217925, Note_on_c, 0, 64, 58
1, 217928, Note_on_c, 0, 56, 0
1, 217928, Note_on_c, 0, 61, 0
1, 217928, Note_on_c, 0, 68, 67
1, 217931, Note_on_c, 0, 56, 50
1, 217931, Note_on_c, 0, 61, 60
1, 217988, Note_on_c, 0, 73, 0
1, 217988, Note_on_c, 0, 76, 96
1, 218113, Note_on_c, 0, 68, 0
1, 218113, Note_on_c, 0, 64, 0
1, 218113, Note_on_c, 0, 64, 59
1, 218116, Note_on_c, 0, 76, 0
1, 218116, Note_on_c, 0, 68, 70
1, 218116, Note_on_c, 0, 80, 96
1, 218119, Note_on_c, 0, 61, 0
1, 218119, Note_on_c, 0, 56, 0
1, 218119, Note_on_c, 0, 56, 51
1, 218122, Note_on_c, 0, 61, 62
1, 218257, Note_on_c, 0, 64, 0
1, 218257, Note_on_c, 0, 68, 0
1, 218257, Note_on_c, 0, 64, 61
1, 218260, Note_on_c, 0, 56, 0
1, 218260, Note_on_c, 0, 61, 0
1, 218260, Note_on_c, 0, 68, 72
1, 218263, Note_on_c, 0, 56, 53
1, 218263, Note_on_c, 0, 61, 64
1, 218401, Note_on_c, 0, 68, 0
1, 218401, Note_on_c, 0, 64, 0
1, 218401, Note_on_c, 0, 64, 63
1, 218404, Note_on_c, 0, 56, 0
1, 218404, Note_on_c, 0, 61, 0
1, 218404, Note_on_c, 0, 68, 75
1, 218407, Note_on_c, 0, 56, 54
1, 218407, Note_on_c, 0, 61, 66
1, 218545, Note_on_c, 0, 56, 0
1, 218545, Note_on_c, 0, 68, 0
1, 218545, Note_on_c, 0, 64, 0
1, 218548, Note_on_c, 0, 40, 0
1, 218548, Note_on_c, 0, 61, 0
1, 218548, Note_on_c, 0, 42, 82
1, 218590, Control_c, 0, 64, 0
1, 218590, Control_c, 0, 64, 0
1, 218712, Note_on_c, 0, 63, 56
1, 218712, Note_on_c, 0, 69, 65
1, 218712, Note_on_c, 0, 54, 51
1, 218715, Note_on_c, 0, 61, 62
1, 218731, Control_c, 0, 64, 127
1, 218731, Control_c, 0, 64, 127
1, 218855, Note_on_c, 0, 69, 0
1, 218855, Note_on_c, 0, 63, 0
1, 218855, Note_on_c, 0, 63, 58
1, 218858, Note_on_c, 0, 54, 0
1, 218858, Note_on_c, 0, 61, 0
1, 218858, Note_on_c, 0, 69, 68
1, 218861, Note_on_c, 0, 54, 50
1, 218861, Note_on_c, 0, 61, 60
1, 218999, Note_on_c, 0, 69, 0
1, 218999, Note_on_c, 0, 63, 0
1, 218999, Note_on_c, 0, 63, 60
1, 219002, Note_on_c, 0, 80, 0
1, 219002, Note_on_c, 0, 69, 71
1, 219002, Note_on_c, 0, 73, 96
1, 219005, Note_on_c, 0, 61, 0
1, 219005, Note_on_c, 0, 54, 0
1, 219005, Note_on_c, 0, 54, 52
1, 219008, Note_on_c, 0, 61, 63
1, 219166, Note_on_c, 0, 63, 0
1, 219166, Note_on_c, 0, 69, 0
1, 219166, Note_on_c, 0, 63, 62
1, 219169, Note_on_c, 0, 54, 0
1, 219169, Note_on_c, 0, 61, 0
1, 219169, Note_on_c, 0, 69, 73
1, 219172, Note_on_c, 0, 54, 53
1, 219172, Note_on_c, 0, 61, 65
1, 219353, Note_on_c, 0, 69, 0
1, 219353, Note_on_c, 0, 63, 0
1, 219353, Note_on_c, 0, 63, 64
1, 219356, Note_on_c, 0, 54, 0
1, 219356, Note_on_c, 0, 61, 0
1, 219356, Note_on_c, 0, 69, 76
1, 219359, Note_on_c, 0, 54, 55
1, 219359, Note_on_c, 0, 61, 67
1, 219540, Note_on_c, 0, 63, 0
1, 219540, Control_c, 0, 64, 127
1, 219540, Control_c, 0, 64, 0
1, 219543, Note_on_c, 0, 69, 0
1, 219543, Note_on_c, 0, 73, 0
1, 219543, Note_on_c, 0, 72, 89
1, 219546, Control_c, 0, 64, 127
1, 219546, Control_c, 0, 64, 0
1, 219546, Control_c, 0, 64, 0
1, 219549, Note_on_c, 0, 61, 0
1, 219549, Note_on_c, 0, 54, 0
1, 219549, Control_c, 0, 64, 0
1, 219552, Note_on_c, 0, 42, 0
1, 219552, Note_on_c, 0, 39, 88
1, 219610, Control_c, 0, 64, 0
1, 219610, Control_c, 0, 64, 0
1, 219703, Control_c, 0, 64, 127
1, 219703, Control_c, 0, 64, 127
1, 219754, Note_on_c, 0, 66, 61
1, 219754, Note_on_c, 0, 69, 70
1, 219754, Note_on_c, 0, 48, 49
1, 219757, Note_on_c, 0, 51, 49
1, 219757, Note_on_c, 0, 54, 49
1, 219757, Note_on_c, 0, 57, 58
1, 219760, Note_on_c, 0, 60, 49
1, 219920, Note_on_c, 0, 69, 0
1, 219920, Note_on_c, 0, 66, 0
1, 219920, Note_on_c, 0, 66, 61
1, 219923, Note_on_c, 0, 48, 0
1, 219923, Note_on_c, 0, 51, 0
1, 219923, Note_on_c, 0, 69, 71
1, 219926, Note_on_c, 0, 60, 0
1, 219926, Note_on_c, 0, 57, 0
1, 219926, Note_on_c, 0, 54, 0
1, 219929, Note_on_c, 0, 48, 49
1, 219929, Note_on_c, 0, 51, 49
1, 219929, Note_on_c, 0, 54, 49
1, 219932, Note_on_c, 0, 57, 59
1, 219932, Note_on_c, 0, 60, 49
1, 219962, Note_on_c, 0, 72, 0
1, 219962, Note_on_c, 0, 75, 99
1, 220087, Note_on_c, 0, 69, 0
1, 220087, Note_on_c, 0, 66, 0
1, 220087, Note_on_c, 0, 66, 63
1, 220090, Note_on_c, 0, 75, 0
1, 220090, Note_on_c, 0, 69, 73
1, 220090, Note_on_c, 0, 78, 100
1, 220093, Note_on_c, 0, 48, 0
1, 220093, Note_on_c, 0, 54, 0
1, 220093, Note_on_c, 0, 51, 0
1, 220096, Note_on_c, 0, 60, 0
1, 220096, Note_on_c, 0, 57, 0
1, 220096, Note_on_c, 0, 48, 49
1, 220099, Note_on_c, 0, 51, 49
1, 220099, Note_on_c, 0, 54, 49
1, 220099, Note_on_c, 0, 57, 61
1, 220102, Note_on_c, 0, 60, 49
1, 220231, Note_on_c, 0, 69, 0
1, 220231, Note_on_c, 0, 66, 0
1, 220231, Note_on_c, 0, 66, 64
1, 220234, Note_on_c, 0, 48, 0
1, 220234, Note_on_c, 0, 51, 0
1, 220234, Note_on_c, 0, 69, 73
1, 220237, Note_on_c, 0, 54, 0
1, 220237, Note_on_c, 0, 60, 0
1, 220237, Note_on_c, 0, 57, 0
1, 220240, Note_on_c, 0, 48, 52
1, 220240, Note_on_c, 0, 51, 52
1, 220240, Note_on_c, 0, 54, 52
1, 220243, Note_on_c, 0, 57, 61
1, 220243, Note_on_c, 0, 60, 52
1, 220375, Note_on_c, 0, 69, 0
1, 220375, Note_on_c, 0, 66, 0
1, 220375, Note_on_c, 0, 66, 64
1, 220378, Note_on_c, 0, 48, 0
1, 220378, Note_on_c, 0, 51, 0
1, 220378, Note_on_c, 0, 69, 76
1, 220381, Note_on_c, 0, 60, 0
1, 220381, Note_on_c, 0, 57, 0
1, 220381, Note_on_c, 0, 54, 0
1, 220384, Note_on_c, 0, 48, 52
1, 220384, Note_on_c, 0, 51, 52
1, 220384, Note_on_c, 0, 54, 52
1, 220387, Note_on_c, 0, 57, 61
1, 220387, Note_on_c, 0, 60, 52
1, 220562, Note_on_c, 0, 78, 0
1, 220562, Note_on_c, 0, 69, 0
1, 220562, Note_on_c, 0, 66, 0
1, 220565, Note_on_c, 0, 48, 0
1, 220565, Note_on_c, 0, 39, 0
1, 220565, Note_on_c, 0, 74, 97
1, 220568, Note_on_c, 0, 54, 0
1, 220568, Note_on_c, 0, 57, 0
1, 220568, Note_on_c, 0, 51, 0
1, 220571, Note_on_c, 0, 60, 0
1, 220571, Note_on_c, 0, 34, 98
1, 220609, Control_c, 0, 64, 0
1, 220609, Control_c, 0, 64, 0
1, 220738, Control_c, 0, 64, 127
1, 220738, Control_c, 0, 64, 127
1, 220777, Note_on_c, 0, 65, 62
1, 220777, Note_on_c, 0, 68, 73
1, 220777, Note_on_c, 0, 50, 55
1, 220780, Note_on_c, 0, 53, 55
1, 220780, Note_on_c, 0, 56, 55
1, 220780, Note_on_c, 0, 59, 66
1, 220783, Note_on_c, 0, 62, 56
1, 220920, Note_on_c, 0, 68, 0
1, 220920, Note_on_c, 0, 65, 0
1, 220920, Note_on_c, 0, 65, 62
1, 220923, Note_on_c, 0, 50, 0
1, 220923, Note_on_c, 0, 53, 0
1, 220923, Note_on_c, 0, 68, 74
1, 220926, Note_on_c, 0, 62, 0
1, 220926, Note_on_c, 0, 59, 0
1, 220926, Note_on_c, 0, 56, 0
1, 220929, Note_on_c, 0, 50, 58
1, 220929, Note_on_c, 0, 53, 58
1, 220929, Note_on_c, 0, 56, 58
1, 220932, Note_on_c, 0, 59, 69
1, 220932, Note_on_c, 0, 62, 58
1, 220956, Note_on_c, 0, 74, 0
1, 220956, Note_on_c, 0, 77, 108
1, 221081, Note_on_c, 0, 68, 0
1, 221081, Note_on_c, 0, 65, 0
1, 221081, Note_on_c, 0, 65, 64
1, 221084, Note_on_c, 0, 77, 0
1, 221084, Note_on_c, 0, 68, 76
1, 221084, Note_on_c, 0, 80, 115
1, 221087, Note_on_c, 0, 50, 0
1, 221087, Note_on_c, 0, 56, 0
1, 221087, Note_on_c, 0, 53, 0
1, 221090, Note_on_c, 0, 62, 0
1, 221090, Note_on_c, 0, 59, 0
1, 221090, Note_on_c, 0, 50, 59
1, 221093, Note_on_c, 0, 53, 59
1, 221093, Note_on_c, 0, 56, 59
1, 221093, Note_on_c, 0, 59, 71
1, 221096, Note_on_c, 0, 62, 59
1, 221248, Note_on_c, 0, 68, 0
1, 221248, Note_on_c, 0, 65, 0
1, 221248, Note_on_c, 0, 65, 65
1, 221251, Note_on_c, 0, 50, 0
1, 221251, Note_on_c, 0, 53, 0
1, 221251, Note_on_c, 0, 68, 77
1, 221254, Note_on_c, 0, 56, 0
1, 221254, Note_on_c, 0, 62, 0
1, 221254, Note_on_c, 0, 59, 0
1, 221257, Note_on_c, 0, 50, 59
1, 221257, Note_on_c, 0, 53, 59
1, 221257, Note_on_c, 0, 56, 59
1, 221260, Note_on_c, 0, 59, 71
1, 221260, Note_on_c, 0, 62, 59
1, 221414, Note_on_c, 0, 68, 0
1, 221414, Note_on_c, 0, 65, 0
1, 221414, Note_on_c, 0, 65, 65
1, 221417, Note_on_c, 0, 50, 0
1, 221417, Note_on_c, 0, 53, 0
1, 221417, Note_on_c, 0, 68, 77
1, 221420, Note_on_c, 0, 62, 0
1, 221420, Note_on_c, 0, 59, 0
1, 221420, Note_on_c, 0, 56, 0
1, 221423, Note_on_c, 0, 50, 59
1, 221423, Note_on_c, 0, 53, 59
1, 221423, Note_on_c, 0, 56, 59
1, 221426, Note_on_c, 0, 59, 73
1, 221426, Note_on_c, 0, 62, 59
1, 221628, Note_on_c, 0, 80, 0
1, 221628, Note_on_c, 0, 68, 0
1, 221628, Note_on_c, 0, 65, 0
1, 221631, Note_on_c, 0, 50, 0
1, 221631, Note_on_c, 0, 53, 0
1, 221631, Note_on_c, 0, 79, 113
1, 221634, Note_on_c, 0, 59, 0
1, 221634, Note_on_c, 0, 56, 0
1, 221634, Note_on_c, 0, 62, 0
1, 221637, Note_on_c, 0, 34, 0
1, 221637, Note_on_c, 0, 27, 108
1, 221663, Control_c, 0, 64, 0
1, 221663, Control_c, 0, 64, 0
1, 221768, Control_c, 0, 64, 127
1, 221768, Control_c, 0, 64, 127
1, 221842, Note_on_c, 0, 67, 73
1, 221842, Note_on_c, 0, 70, 86
1, 221842, Note_on_c, 0, 52, 58
1, 221845, Note_on_c, 0, 55, 71
1, 221845, Note_on_c, 0, 58, 58
1, 221845, Note_on_c, 0, 61, 71
1, 221848, Note_on_c, 0, 64, 58
1, 221986, Note_on_c, 0, 70, 0
1, 221986, Note_on_c, 0, 67, 0
1, 221986, Note_on_c, 0, 67, 74
1, 221989, Note_on_c, 0, 52, 0
1, 221989, Note_on_c, 0, 55, 0
1, 221989, Note_on_c, 0, 70, 89
1, 221992, Note_on_c, 0, 64, 0
1, 221992, Note_on_c, 0, 61, 0
1, 221992, Note_on_c, 0, 58, 0
1, 221995, Note_on_c, 0, 52, 58
1, 221995, Note_on_c, 0, 55, 73
1, 221995, Note_on_c, 0, 58, 58
1, 221998, Note_on_c, 0, 61, 73
1, 221998, Note_on_c, 0, 64, 58
1, 222022, Note_on_c, 0, 79, 0
1, 222022, Note_on_c, 0, 82, 117
1, 222147, Note_on_c, 0, 70, 0
1, 222147, Note_on_c, 0, 67, 0
1, 222147, Note_on_c, 0, 67, 74
1, 222150, Note_on_c, 0, 52, 0
1, 222150, Note_on_c, 0, 55, 0
1, 222150, Note_on_c, 0, 70, 89
1, 222153, Note_on_c, 0, 61, 0
1, 222153, Note_on_c, 0, 64, 0
1, 222153, Note_on_c, 0, 58, 0
1, 222156, Note_on_c, 0, 52, 59
1, 222156, Note_on_c, 0, 55, 74
1, 222156, Note_on_c, 0, 58, 59
1, 222159, Note_on_c, 0, 61, 74
1, 222159, Note_on_c, 0, 64, 59
1, 222201, Note_on_c, 0, 82, 0
1, 222201, Note_on_c, 0, 85, 117
1, 222291, Note_on_c, 0, 70, 0
1, 222291, Note_on_c, 0, 67, 0
1, 222291, Note_on_c, 0, 67, 77
1, 222294, Note_on_c, 0, 52, 0
1, 222294, Note_on_c, 0, 55, 0
1, 222294, Note_on_c, 0, 70, 89
1, 222297, Note_on_c, 0, 61, 0
1, 222297, Note_on_c, 0, 64, 0
1, 222297, Note_on_c, 0, 58, 0
1, 222300, Note_on_c, 0, 52, 59
1, 222300, Note_on_c, 0, 55, 74
1, 222300, Note_on_c, 0, 58, 59
1, 222303, Note_on_c, 0, 61, 74
1, 222303, Note_on_c, 0, 64, 59
1, 222435, Note_on_c, 0, 70, 0
1, 222435, Note_on_c, 0, 67, 0
1, 222435, Note_on_c, 0, 67, 77
1, 222438, Note_on_c, 0, 52, 0
1, 222438, Note_on_c, 0, 55, 0
1, 222438, Note_on_c, 0, 70, 92
1, 222441, Note_on_c, 0, 64, 0
1, 222441, Note_on_c, 0, 61, 0
1, 222441, Note_on_c, 0, 58, 0
1, 222444, Note_on_c, 0, 52, 61
1, 222444, Note_on_c, 0, 55, 77
1, 222444, Note_on_c, 0, 58, 61
1, 222447, Note_on_c, 0, 61, 77
1, 222447, Note_on_c, 0, 64, 61
1, 222649, Note_on_c, 0, 52, 0
1, 222649, Note_on_c, 0, 70, 0
1, 222649, Note_on_c, 0, 67, 0
1, 222652, Note_on_c, 0, 55, 0
1, 222652, Note_on_c, 0, 61, 0
1, 222652, Note_on_c, 0, 58, 0
1, 222655, Note_on_c, 0, 27, 0
1, 222655, Note_on_c, 0, 64, 0
1, 222655, Note_on_c, 0, 32, 103
1, 222707, Control_c, 0, 64, 0
1, 222707, Control_c, 0, 64, 0
1, 222863, Note_on_c, 0, 66, 75
1, 222863, Note_on_c, 0, 68, 91
1, 222863, Note_on_c, 0, 51, 62
1, 222866, Note_on_c, 0, 56, 77
1, 222866, Note_on_c, 0, 60, 62
1, 222866, Note_on_c, 0, 63, 77
1, 222886, Control_c, 0, 64, 127
1, 222886, Control_c, 0, 64, 127
1, 223029, Note_on_c, 0, 68, 0
1, 223029, Note_on_c, 0, 66, 0
1, 223029, Note_on_c, 0, 66, 75
1, 223032, Note_on_c, 0, 51, 0
1, 223032, Note_on_c, 0, 56, 0
1, 223032, Note_on_c, 0, 68, 92
1, 223035, Note_on_c, 0, 60, 0
1, 223035, Note_on_c, 0, 63, 0
1, 223035, Note_on_c, 0, 51, 62
1, 223038, Note_on_c, 0, 56, 80
1, 223038, Note_on_c, 0, 60, 62
1, 223038, Note_on_c, 0, 63, 80
1, 223196, Note_on_c, 0, 66, 0
1, 223196, Note_on_c, 0, 68, 0
1, 223196, Note_on_c, 0, 66, 77
1, 223199, Note_on_c, 0, 51, 0
1, 223199, Note_on_c, 0, 56, 0
1, 223199, Note_on_c, 0, 68, 94
1, 223202, Note_on_c, 0, 60, 0
1, 223202, Note_on_c, 0, 63, 0
1, 223202, Note_on_c, 0, 51, 64
1, 223205, Note_on_c, 0, 56, 81
1, 223205, Note_on_c, 0, 60, 64
1, 223205, Note_on_c, 0, 63, 81
1, 223266, Note_on_c, 0, 85, 0
1, 223266, Note_on_c, 0, 84, 117
1, 223400, Note_on_c, 0, 66, 0
1, 223400, Note_on_c, 0, 68, 0
1, 223400, Note_on_c, 0, 66, 79
1, 223403, Note_on_c, 0, 51, 0
1, 223403, Note_on_c, 0, 56, 0
1, 223403, Note_on_c, 0, 68, 96
1, 223406, Note_on_c, 0, 60, 0
1, 223406, Note_on_c, 0, 63, 0
1, 223406, Note_on_c, 0, 51, 65
1, 223409, Note_on_c, 0, 56, 82
1, 223409, Note_on_c, 0, 60, 65
1, 223409, Note_on_c, 0, 63, 82
1, 223613, Note_on_c, 0, 66, 0
1, 223613, Note_on_c, 0, 68, 0
1, 223613, Note_on_c, 0, 66, 80
1, 223616, Note_on_c, 0, 51, 0
1, 223616, Note_on_c, 0, 56, 0
1, 223616, Note_on_c, 0, 68, 99
1, 223619, Note_on_c, 0, 60, 0
1, 223619, Note_on_c, 0, 63, 0
1, 223619, Note_on_c, 0, 51, 65
1, 223622, Note_on_c, 0, 56, 84
1, 223622, Note_on_c, 0, 60, 65
1, 223622, Note_on_c, 0, 63, 84
1, 223913, Control_c, 0, 64, 127
1, 223913, Control_c, 0, 64, 0
1, 223913, Control_c, 0, 64, 0
1, 223916, Note_on_c, 0, 84, 0
1, 223916, Note_on_c, 0, 66, 0
1, 223916, Note_on_c, 0, 68, 0
1, 223919, Note_on_c, 0, 61, 116
1, 223919, Control_c, 0, 64, 127
1, 223919, Control_c, 0, 64, 0
1, 223922, Note_on_c, 0, 51, 0
1, 223922, Control_c, 0, 64, 0
1, 223922, Control_c, 0, 64, 0
1, 223925, Note_on_c, 0, 56, 0
1, 223925, Note_on_c, 0, 63, 0
1, 223925, Note_on_c, 0, 60, 0
1, 223928, Note_on_c, 0, 32, 0
1, 223928, Note_on_c, 0, 37, 93
1, 223928, Note_on_c, 0, 49, 105
1, 223995, Control_c, 0, 64, 0
1, 223995, Control_c, 0, 64, 0
1, 224103, Control_c, 0, 64, 127
1, 224103, Control_c, 0, 64, 127
1, 224163, Note_on_c, 0, 64, 65
1, 224163, Note_on_c, 0, 68, 65
1, 224163, Note_on_c, 0, 73, 73
1, 224166, Note_on_c, 0, 52, 65
1, 224166, Note_on_c, 0, 56, 65
1, 224166, Note_on_c, 0, 61, 73
1, 224376, Note_on_c, 0, 73, 0
1, 224376, Note_on_c, 0, 64, 0
1, 224376, Note_on_c, 0, 68, 0
1, 224379, Note_on_c, 0, 64, 69
1, 224379, Note_on_c, 0, 68, 69
1, 224379, Note_on_c, 0, 73, 78
1, 224382, Note_on_c, 0, 56, 0
1, 224382, Note_on_c, 0, 61, 0
1, 224382, Note_on_c, 0, 52, 0
1, 224385, Note_on_c, 0, 52, 70
1, 224385, Note_on_c, 0, 56, 70
1, 224385, Note_on_c, 0, 61, 80
1, 224564, Note_on_c, 0, 68, 0
1, 224564, Note_on_c, 0, 73, 0
1, 224564, Note_on_c, 0, 64, 0
1, 224567, Note_on_c, 0, 64, 75
1, 224567, Note_on_c, 0, 68, 76
1, 224567, Note_on_c, 0, 73, 89
1, 224570, Note_on_c, 0, 56, 0
1, 224570, Note_on_c, 0, 61, 0
1, 224570, Note_on_c, 0, 52, 0
1, 224573, Note_on_c, 0, 52, 79
1, 224573, Note_on_c, 0, 56, 80
1, 224573, Note_on_c, 0, 61, 93
1, 224731, Note_on_c, 0, 68, 0
1, 224731, Note_on_c, 0, 73, 0
1, 224731, Note_on_c, 0, 64, 0
1, 224734, Note_on_c, 0, 64, 79
1, 224734, Note_on_c, 0, 68, 79
1, 224734, Note_on_c, 0, 73, 91
1, 224737, Note_on_c, 0, 56, 0
1, 224737, Note_on_c, 0, 61, 0
1, 224737, Note_on_c, 0, 52, 0
1, 224740, Note_on_c, 0, 52, 85
1, 224740, Note_on_c, 0, 56, 85
1, 224740, Note_on_c, 0, 61, 98
1, 224874, Note_on_c, 0, 68, 0
1, 224874, Note_on_c, 0, 73, 0
1, 224874, Note_on_c, 0, 64, 0
1, 224877, Note_on_c, 0, 64, 84
1, 224877, Note_on_c, 0, 68, 84
1, 224877, Note_on_c, 0, 73, 96
1, 224880, Note_on_c, 0, 56, 0
1, 224880, Note_on_c, 0, 61, 0
1, 224880, Note_on_c, 0, 52, 0
1, 224883, Note_on_c, 0, 52, 93
1, 224883, Note_on_c, 0, 56, 93
1, 224883, Note_on_c, 0, 61, 107
1, 225018, Note_on_c, 0, 68, 0
1, 225018, Note_on_c, 0, 73, 0
1, 225018, Note_on_c, 0, 64, 0
1, 225021, Note_on_c, 0, 56, 0
1, 225021, Note_on_c, 0, 52, 0
1, 225021, Note_on_c, 0, 63, 116
1, 225024, Note_on_c, 0, 61, 0
1, 225024, Note_on_c, 0, 39, 93
1, 225024, Note_on_c, 0, 51, 105
1, 225044, Note_on_c, 0, 49, 0
1, 225044, Note_on_c, 0, 37, 0
1, 225056, Note_on_c, 0, 61, 0
1, 225065, Control_c, 0, 64, 0
1, 225065, Control_c, 0, 64, 0
1, 225194, Control_c, 0, 64, 127
1, 225194, Control_c, 0, 64, 127
1, 225233, Note_on_c, 0, 66, 65
1, 225233, Note_on_c, 0, 68, 65
1, 225233, Note_on_c, 0, 73, 73
1, 225236, Note_on_c, 0, 54, 65
1, 225236, Note_on_c, 0, 56, 65
1, 225236, Note_on_c, 0, 61, 73
1, 225399, Note_on_c, 0, 73, 0
1, 225399, Note_on_c, 0, 66, 0
1, 225399, Note_on_c, 0, 68, 0
1, 225402, Note_on_c, 0, 66, 70
1, 225402, Note_on_c, 0, 68, 70
1, 225402, Note_on_c, 0, 73, 80
1, 225405, Note_on_c, 0, 56, 0
1, 225405, Note_on_c, 0, 61, 0
1, 225405, Note_on_c, 0, 54, 0
1, 225408, Note_on_c, 0, 54, 69
1, 225408, Note_on_c, 0, 56, 69
1, 225408, Note_on_c, 0, 61, 79
1, 225535, Note_on_c, 0, 68, 0
1, 225535, Note_on_c, 0, 73, 0
1, 225535, Note_on_c, 0, 66, 0
1, 225538, Note_on_c, 0, 66, 78
1, 225538, Note_on_c, 0, 68, 79
1, 225538, Note_on_c, 0, 73, 92
1, 225541, Note_on_c, 0, 56, 0
1, 225541, Note_on_c, 0, 61, 0
1, 225541, Note_on_c, 0, 54, 0
1, 225544, Note_on_c, 0, 54, 78
1, 225544, Note_on_c, 0, 56, 79
1, 225544, Note_on_c, 0, 61, 92
1, 225671, Note_on_c, 0, 68, 0
1, 225671, Note_on_c, 0, 73, 0
1, 225671, Note_on_c, 0, 66, 0
1, 225674, Note_on_c, 0, 66, 83
1, 225674, Note_on_c, 0, 68, 83
1, 225674, Note_on_c, 0, 73, 96
1, 225677, Note_on_c, 0, 56, 0
1, 225677, Note_on_c, 0, 61, 0
1, 225677, Note_on_c, 0, 54, 0
1, 225680, Note_on_c, 0, 54, 83
1, 225680, Note_on_c, 0, 56, 83
1, 225680, Note_on_c, 0, 61, 96
1, 225807, Note_on_c, 0, 68, 0
1, 225807, Note_on_c, 0, 73, 0
1, 225807, Note_on_c, 0, 66, 0
1, 225810, Note_on_c, 0, 66, 91
1, 225810, Note_on_c, 0, 68, 91
1, 225810, Note_on_c, 0, 73, 104
1, 225813, Note_on_c, 0, 56, 0
1, 225813, Note_on_c, 0, 61, 0
1, 225813, Note_on_c, 0, 54, 0
1, 225816, Note_on_c, 0, 54, 90
1, 225816, Note_on_c, 0, 56, 90
1, 225816, Note_on_c, 0, 61, 104
1, 225870, Note_on_c, 0, 39, 0
1, 225870, Note_on_c, 0, 63, 0
1, 225870, Note_on_c, 0, 63, 116
1, 225873, Note_on_c, 0, 51, 0
1, 225873, Note_on_c, 0, 39, 93
1, 225873, Note_on_c, 0, 51, 105
1, 225957, Control_c, 0, 64, 0
1, 225957, Control_c, 0, 64, 0
1, 225995, Note_on_c, 0, 73, 0
1, 225995, Note_on_c, 0, 66, 0
1, 225995, Note_on_c, 0, 68, 0
1, 225998, Note_on_c, 0, 56, 0
1, 225998, Note_on_c, 0, 54, 0
1, 225998, Note_on_c, 0, 68, 107
1, 226001, Note_on_c, 0, 61, 0
1, 226001, Note_on_c, 0, 44, 93
1, 226001, Note_on_c, 0, 56, 105
1, 226024, Note_on_c, 0, 39, 0
1, 226024, Note_on_c, 0, 51, 0
1, 226039, Note_on_c, 0, 63, 0
1, 226158, Control_c, 0, 64, 127
1, 226158, Control_c, 0, 64, 127
1, 226245, Note_on_c, 0, 64, 68
1, 226245, Note_on_c, 0, 68, 68
1, 226245, Note_on_c, 0, 73, 77
1, 226248, Note_on_c, 0, 52, 68
1, 226248, Note_on_c, 0, 56, 68
1, 226248, Note_on_c, 0, 61, 77
1, 226380, Note_on_c, 0, 73, 0
1, 226380, Note_on_c, 0, 68, 0
1, 226380, Note_on_c, 0, 64, 0
1, 226383, Note_on_c, 0, 64, 70
1, 226383, Note_on_c, 0, 68, 70
1, 226383, Note_on_c, 0, 73, 80
1, 226386, Note_on_c, 0, 56, 0
1, 226386, Note_on_c, 0, 61, 0
1, 226386, Note_on_c, 0, 52, 0
1, 226389, Note_on_c, 0, 52, 70
1, 226389, Note_on_c, 0, 56, 70
1, 226389, Note_on_c, 0, 61, 80
1, 226517, Note_on_c, 0, 73, 0
1, 226517, Note_on_c, 0, 68, 0
1, 226517, Note_on_c, 0, 64, 0
1, 226520, Note_on_c, 0, 56, 0
1, 226520, Note_on_c, 0, 52, 0
1, 226520, Note_on_c, 0, 61, 116
1, 226523, Note_on_c, 0, 61, 0
1, 226523, Note_on_c, 0, 37, 93
1, 226523, Note_on_c, 0, 49, 105
1, 226542, Note_on_c, 0, 56, 0
1, 226542, Note_on_c, 0, 44, 0
1, 226554, Note_on_c, 0, 68, 0
1, 226731, Note_on_c, 0, 64, 77
1, 226731, Note_on_c, 0, 68, 77
1, 226731, Note_on_c, 0, 73, 88
1, 226734, Note_on_c, 0, 52, 77
1, 226734, Note_on_c, 0, 56, 77
1, 226734, Note_on_c, 0, 61, 88
1, 226897, Note_on_c, 0, 73, 0
1, 226897, Note_on_c, 0, 64, 0
1, 226897, Note_on_c, 0, 68, 0
1, 226900, Note_on_c, 0, 64, 79
1, 226900, Note_on_c, 0, 68, 79
1, 226900, Note_on_c, 0, 73, 90
1, 226903, Note_on_c, 0, 56, 0
1, 226903, Note_on_c, 0, 61, 0
1, 226903, Note_on_c, 0, 52, 0
1, 226906, Note_on_c, 0, 52, 79
1, 226906, Note_on_c, 0, 56, 79
1, 226906, Note_on_c, 0, 61, 90
1, 227007, Control_c, 0, 64, 127
1, 227007, Control_c, 0, 64, 127
1, 227064, Note_on_c, 0, 68, 0
1, 227064, Note_on_c, 0, 73, 0
1, 227064, Note_on_c, 0, 64, 0
1, 227067, Note_on_c, 0, 64, 83
1, 227067, Note_on_c, 0, 68, 84
1, 227067, Note_on_c, 0, 73, 97
1, 227070, Note_on_c, 0, 56, 0
1, 227070, Note_on_c, 0, 61, 0
1, 227070, Note_on_c, 0, 52, 0
1, 227073, Note_on_c, 0, 52, 83
1, 227073, Note_on_c, 0, 56, 84
1, 227073, Note_on_c, 0, 61, 97
1, 227200, Note_on_c, 0, 68, 0
1, 227200, Note_on_c, 0, 73, 0
1, 227200, Note_on_c, 0, 64, 0
1, 227203, Note_on_c, 0, 64, 84
1, 227203, Note_on_c, 0, 68, 84
1, 227203, Note_on_c, 0, 73, 97
1, 227206, Note_on_c, 0, 56, 0
1, 227206, Note_on_c, 0, 61, 0
1, 227206, Note_on_c, 0, 52, 0
1, 227209, Note_on_c, 0, 52, 84
1, 227209, Note_on_c, 0, 56, 84
1, 227209, Note_on_c, 0, 61, 97
1, 227336, Note_on_c, 0, 68, 0
1, 227336, Note_on_c, 0, 73, 0
1, 227336, Note_on_c, 0, 64, 0
1, 227339, Note_on_c, 0, 64, 88
1, 227339, Note_on_c, 0, 68, 88
1, 227339, Note_on_c, 0, 73, 101
1, 227342, Note_on_c, 0, 56, 0
1, 227342, Note_on_c, 0, 61, 0
1, 227342, Note_on_c, 0, 52, 0
1, 227345, Note_on_c, 0, 52, 88
1, 227345, Note_on_c, 0, 56, 88
1, 227345, Note_on_c, 0, 61, 101
1, 227464, Control_c, 0, 64, 0
1, 227464, Control_c, 0, 64, 0
1, 227472, Note_on_c, 0, 68, 0
1, 227472, Note_on_c, 0, 73, 0
1, 227472, Note_on_c, 0, 64, 0
1, 227475, Note_on_c, 0, 56, 0
1, 227475, Note_on_c, 0, 52, 0
1, 227475, Note_on_c, 0, 64, 116
1, 227478, Note_on_c, 0, 61, 0
1, 227478, Note_on_c, 0, 40, 93
1, 227478, Note_on_c, 0, 52, 105
1, 227501, Note_on_c, 0, 37, 0
1, 227501, Note_on_c, 0, 49, 0
1, 227516, Note_on_c, 0, 61, 0
1, 227585, Control_c, 0, 64, 127
1, 227585, Control_c, 0, 64, 127
1, 227722, Note_on_c, 0, 62, 75
1, 227722, Note_on_c, 0, 68, 75
1, 227722, Note_on_c, 0, 71, 84
1, 227725, Note_on_c, 0, 52, 75
1, 227725, Note_on_c, 0, 56, 75
1, 227725, Note_on_c, 0, 59, 84
1, 227909, Note_on_c, 0, 71, 0
1, 227909, Note_on_c, 0, 62, 0
1, 227909, Note_on_c, 0, 68, 0
1, 227912, Note_on_c, 0, 62, 75
1, 227912, Note_on_c, 0, 68, 75
1, 227912, Note_on_c, 0, 71, 84
1, 227915, Note_on_c, 0, 56, 0
1, 227915, Note_on_c, 0, 59, 0
1, 227915, Note_on_c, 0, 52, 0
1, 227918, Note_on_c, 0, 52, 75
1, 227918, Note_on_c, 0, 56, 75
1, 227918, Note_on_c, 0, 59, 84
1, 227963, Note_on_c, 0, 59, 116
1, 227963, Note_on_c, 0, 35, 93
1, 227963, Note_on_c, 0, 47, 105
1, 227984, Note_on_c, 0, 52, 0
1, 227984, Note_on_c, 0, 40, 0
1, 227995, Note_on_c, 0, 64, 0
1, 228103, Control_c, 0, 64, 127
1, 228103, Control_c, 0, 64, 0
1, 228103, Control_c, 0, 64, 0
1, 228106, Note_on_c, 0, 62, 0
1, 228106, Note_on_c, 0, 68, 0
1, 228106, Control_c, 0, 64, 0
1, 228109, Note_on_c, 0, 71, 0
1, 228109, Note_on_c, 0, 57, 110
1, 228109, Control_c, 0, 64, 127
1, 228112, Control_c, 0, 64, 0
1, 228112, Control_c, 0, 64, 0
1, 228112, Control_c, 0, 64, 0
1, 228115, Note_on_c, 0, 56, 0
1, 228115, Note_on_c, 0, 52, 0
1, 228115, Control_c, 0, 64, 0
1, 228118, Note_on_c, 0, 59, 0
1, 228118, Note_on_c, 0, 33, 98
1, 228118, Note_on_c, 0, 45, 110
1, 228138, Note_on_c, 0, 35, 0
1, 228138, Note_on_c, 0, 47, 0
1, 228156, Note_on_c, 0, 59, 0
1, 228201, Control_c, 0, 64, 0
1, 228201, Control_c, 0, 64, 0
1, 228331, Control_c, 0, 64, 127
1, 228331, Control_c, 0, 64, 127
1, 228403, Note_on_c, 0, 69, 117
1, 228403, Note_on_c, 0, 57, 113
1, 228701, Note_on_c, 0, 57, 0
1, 228701, Note_on_c, 0, 61, 68
1, 228701, Note_on_c, 0, 64, 77
1, 228704, Note_on_c, 0, 33, 0
1, 228704, Note_on_c, 0, 45, 0
1, 228704, Note_on_c, 0, 45, 68
1, 228707, Note_on_c, 0, 52, 77
1, 228916, Note_on_c, 0, 61, 0
1, 228916, Note_on_c, 0, 64, 0
1, 228916, Note_on_c, 0, 61, 72
1, 228919, Note_on_c, 0, 45, 0
1, 228919, Note_on_c, 0, 52, 0
1, 228919, Note_on_c, 0, 64, 81
1, 228922, Note_on_c, 0, 45, 70
1, 228922, Note_on_c, 0, 52, 80
1, 229082, Note_on_c, 0, 64, 0
1, 229082, Note_on_c, 0, 61, 0
1, 229082, Note_on_c, 0, 61, 75
1, 229085, Note_on_c, 0, 45, 0
1, 229085, Note_on_c, 0, 52, 0
1, 229085, Note_on_c, 0, 64, 86
1, 229088, Note_on_c, 0, 45, 73
1, 229088, Note_on_c, 0, 52, 83
1, 229248, Note_on_c, 0, 64, 0
1, 229248, Note_on_c, 0, 61, 0
1, 229248, Note_on_c, 0, 61, 79
1, 229251, Note_on_c, 0, 45, 0
1, 229251, Note_on_c, 0, 52, 0
1, 229251, Note_on_c, 0, 64, 90
1, 229254, Note_on_c, 0, 45, 75
1, 229254, Note_on_c, 0, 52, 86
1, 229415, Note_on_c, 0, 64, 0
1, 229415, Note_on_c, 0, 61, 0
1, 229415, Note_on_c, 0, 71, 110
1, 229418, Note_on_c, 0, 45, 0
1, 229418, Note_on_c, 0, 52, 0
1, 229418, Note_on_c, 0, 59, 110
1, 229437, Note_on_c, 0, 69, 0
1, 229437, Note_on_c, 0, 57, 0
1, 229456, Control_c, 0, 64, 0
1, 229456, Control_c, 0, 64, 0
1, 229569, Control_c, 0, 64, 127
1, 229569, Control_c, 0, 64, 127
1, 229603, Note_on_c, 0, 62, 72
1, 229603, Note_on_c, 0, 64, 72
1, 229603, Note_on_c, 0, 68, 81
1, 229606, Note_on_c, 0, 45, 68
1, 229606, Note_on_c, 0, 52, 77
1, 229746, Note_on_c, 0, 68, 0
1, 229746, Note_on_c, 0, 64, 0
1, 229746, Note_on_c, 0, 62, 0
1, 229749, Note_on_c, 0, 62, 74
1, 229749, Note_on_c, 0, 64, 74
1, 229749, Note_on_c, 0, 68, 84
1, 229752, Note_on_c, 0, 45, 0
1, 229752, Note_on_c, 0, 52, 0
1, 229752, Note_on_c, 0, 45, 71
1, 229755, Note_on_c, 0, 52, 81
1, 229890, Note_on_c, 0, 64, 0
1, 229890, Note_on_c, 0, 62, 0
1, 229890, Note_on_c, 0, 68, 0
1, 229893, Note_on_c, 0, 62, 76
1, 229893, Note_on_c, 0, 64, 76
1, 229893, Note_on_c, 0, 68, 87
1, 229896, Note_on_c, 0, 52, 0
1, 229896, Note_on_c, 0, 45, 0
1, 229896, Note_on_c, 0, 45, 74
1, 229899, Note_on_c, 0, 52, 85
1, 230035, Note_on_c, 0, 64, 0
1, 230035, Note_on_c, 0, 62, 0
1, 230035, Note_on_c, 0, 68, 0
1, 230038, Note_on_c, 0, 62, 78
1, 230038, Note_on_c, 0, 64, 78
1, 230038, Note_on_c, 0, 68, 90
1, 230041, Note_on_c, 0, 52, 0
1, 230041, Note_on_c, 0, 45, 0
1, 230041, Note_on_c, 0, 45, 77
1, 230044, Note_on_c, 0, 52, 88
1, 230178, Note_on_c, 0, 64, 0
1, 230178, Note_on_c, 0, 62, 0
1, 230178, Note_on_c, 0, 68, 0
1, 230181, Note_on_c, 0, 62, 80
1, 230181, Note_on_c, 0, 64, 80
1, 230181, Note_on_c, 0, 68, 92
1, 230184, Note_on_c, 0, 52, 0
1, 230184, Note_on_c, 0, 45, 0
1, 230184, Note_on_c, 0, 45, 80
1, 230187, Note_on_c, 0, 52, 92
1, 230241, Note_on_c, 0, 71, 0
1, 230241, Note_on_c, 0, 59, 0
1, 230241, Note_on_c, 0, 71, 110
1, 230244, Note_on_c, 0, 59, 110
1, 230328, Control_c, 0, 64, 0
1, 230328, Control_c, 0, 64, 0
1, 230366, Note_on_c, 0, 62, 0
1, 230366, Note_on_c, 0, 64, 0
1, 230366, Note_on_c, 0, 76, 115
1, 230369, Note_on_c, 0, 45, 0
1, 230369, Note_on_c, 0, 68, 0
1, 230369, Note_on_c, 0, 64, 110
1, 230372, Note_on_c, 0, 52, 0
1, 230395, Note_on_c, 0, 71, 0
1, 230395, Note_on_c, 0, 59, 0
1, 230529, Control_c, 0, 64, 127
1, 230529, Control_c, 0, 64, 127
1, 230616, Note_on_c, 0, 61, 68
1, 230616, Note_on_c, 0, 64, 77
1, 230616, Note_on_c, 0, 45, 77
1, 230619, Note_on_c, 0, 52, 86
1, 230781, Note_on_c, 0, 64, 0
1, 230781, Note_on_c, 0, 61, 0
1, 230781, Note_on_c, 0, 61, 68
1, 230784, Note_on_c, 0, 45, 0
1, 230784, Note_on_c, 0, 52, 0
1, 230784, Note_on_c, 0, 64, 77
1, 230787, Note_on_c, 0, 45, 77
1, 230787, Note_on_c, 0, 52, 86
1, 230948, Note_on_c, 0, 64, 0
1, 230948, Note_on_c, 0, 61, 0
1, 230948, Note_on_c, 0, 69, 110
1, 230951, Note_on_c, 0, 45, 0
1, 230951, Note_on_c, 0, 52, 0
1, 230951, Note_on_c, 0, 57, 110
1, 230968, Note_on_c, 0, 64, 0
1, 230968, Note_on_c, 0, 76, 0
1, 231115, Note_on_c, 0, 61, 68
1, 231115, Note_on_c, 0, 64, 77
1, 231115, Note_on_c, 0, 45, 68
1, 231118, Note_on_c, 0, 52, 77
1, 231281, Note_on_c, 0, 64, 0
1, 231281, Note_on_c, 0, 61, 0
1, 231281, Note_on_c, 0, 61, 70
1, 231284, Note_on_c, 0, 45, 0
1, 231284, Note_on_c, 0, 52, 0
1, 231284, Note_on_c, 0, 64, 80
1, 231287, Note_on_c, 0, 45, 70
1, 231287, Note_on_c, 0, 52, 79
1, 231376, Control_c, 0, 64, 127
1, 231376, Control_c, 0, 64, 127
1, 231425, Note_on_c, 0, 64, 0
1, 231425, Note_on_c, 0, 61, 0
1, 231425, Note_on_c, 0, 61, 73
1, 231428, Note_on_c, 0, 45, 0
1, 231428, Note_on_c, 0, 52, 0
1, 231428, Note_on_c, 0, 64, 83
1, 231431, Note_on_c, 0, 45, 72
1, 231431, Note_on_c, 0, 52, 81
1, 231569, Note_on_c, 0, 64, 0
1, 231569, Note_on_c, 0, 61, 0
1, 231569, Note_on_c, 0, 61, 75
1, 231572, Note_on_c, 0, 45, 0
1, 231572, Note_on_c, 0, 52, 0
1, 231572, Note_on_c, 0, 64, 85
1, 231575, Note_on_c, 0, 45, 73
1, 231575, Note_on_c, 0, 52, 84
1, 231713, Note_on_c, 0, 64, 0
1, 231713, Note_on_c, 0, 61, 0
1, 231713, Note_on_c, 0, 61, 77
1, 231716, Note_on_c, 0, 45, 0
1, 231716, Note_on_c, 0, 52, 0
1, 231716, Note_on_c, 0, 64, 88
1, 231719, Note_on_c, 0, 45, 75
1, 231719, Note_on_c, 0, 52, 86
1, 231914, Control_c, 0, 64, 0
1, 231914, Control_c, 0, 64, 0
1, 231927, Note_on_c, 0, 64, 0
1, 231927, Note_on_c, 0, 61, 0
1, 231927, Note_on_c, 0, 56, 110
1, 231930, Note_on_c, 0, 45, 0
1, 231930, Note_on_c, 0, 52, 0
1, 231930, Note_on_c, 0, 44, 110
1, 231952, Note_on_c, 0, 57, 0
1, 231952, Note_on_c, 0, 69, 0
1, 232024, Control_c, 0, 64, 127
1, 232024, Control_c, 0, 64, 127
1, 232141, Note_on_c, 0, 60, 77
1, 232141, Note_on_c, 0, 63, 86
1, 232141, Note_on_c, 0, 48, 69
1, 232144, Note_on_c, 0, 51, 77
1, 232307, Note_on_c, 0, 63, 0
1, 232307, Note_on_c, 0, 60, 0
1, 232307, Note_on_c, 0, 60, 77
1, 232310, Note_on_c, 0, 48, 0
1, 232310, Note_on_c, 0, 51, 0
1, 232310, Note_on_c, 0, 63, 86
1, 232313, Note_on_c, 0, 48, 69
1, 232313, Note_on_c, 0, 51, 77
1, 232370, Note_on_c, 0, 54, 110
1, 232370, Note_on_c, 0, 42, 110
1, 232390, Note_on_c, 0, 44, 0
1, 232390, Note_on_c, 0, 56, 0
1, 232495, Note_on_c, 0, 63, 0
1, 232495, Note_on_c, 0, 60, 0
1, 232495, Control_c, 0, 64, 127
1, 232498, Note_on_c, 0, 52, 110
1, 232498, Control_c, 0, 64, 127
1, 232498, Control_c, 0, 64, 0
1, 232501, Note_on_c, 0, 48, 0
1, 232501, Note_on_c, 0, 51, 0
1, 232501, Note_on_c, 0, 40, 103
1, 232514, Note_on_c, 0, 42, 0
1, 232514, Note_on_c, 0, 54, 0
1, 232562, Control_c, 0, 64, 0
1, 232562, Control_c, 0, 64, 0
1, 232662, Note_on_c, 0, 61, 80
1, 232662, Note_on_c, 0, 64, 89
1, 232662, Note_on_c, 0, 49, 68
1, 232665, Control_c, 0, 64, 127
1, 232665, Note_on_c, 0, 52, 77
1, 232665, Control_c, 0, 64, 127
1, 232827, Note_on_c, 0, 64, 0
1, 232827, Note_on_c, 0, 61, 0
1, 232827, Note_on_c, 0, 61, 80
1, 232830, Note_on_c, 0, 49, 0
1, 232830, Note_on_c, 0, 52, 0
1, 232830, Note_on_c, 0, 64, 89
1, 232833, Note_on_c, 0, 49, 77
1, 232833, Note_on_c, 0, 52, 77
1, 232890, Note_on_c, 0, 54, 110
1, 232890, Note_on_c, 0, 42, 103
1, 232910, Note_on_c, 0, 40, 0
1, 232910, Note_on_c, 0, 52, 0
1, 233015, Note_on_c, 0, 64, 0
1, 233015, Note_on_c, 0, 61, 0
1, 233015, Note_on_c, 0, 56, 110
1, 233018, Note_on_c, 0, 49, 0
1, 233018, Note_on_c, 0, 52, 0
1, 233018, Note_on_c, 0, 44, 103
1, 233032, Note_on_c, 0, 42, 0
1, 233032, Note_on_c, 0, 54, 0
1, 233032, Control_c, 0, 64, 0
1, 233032, Control_c, 0, 64, 0
1, 233133, Control_c, 0, 64, 127
1, 233133, Control_c, 0, 64, 127
1, 233182, Note_on_c, 0, 61, 68
1, 233182, Note_on_c, 0, 64, 77
1, 233182, Note_on_c, 0, 49, 72
1, 233185, Note_on_c, 0, 52, 81
1, 233325, Note_on_c, 0, 64, 0
1, 233325, Note_on_c, 0, 61, 0
1, 233325, Note_on_c, 0, 61, 70
1, 233328, Note_on_c, 0, 49, 0
1, 233328, Note_on_c, 0, 52, 0
1, 233328, Note_on_c, 0, 64, 80
1, 233331, Note_on_c, 0, 49, 73
1, 233331, Note_on_c, 0, 52, 84
1, 233469, Note_on_c, 0, 64, 0
1, 233469, Note_on_c, 0, 61, 0
1, 233469, Note_on_c, 0, 61, 73
1, 233472, Note_on_c, 0, 49, 0
1, 233472, Note_on_c, 0, 52, 0
1, 233472, Note_on_c, 0, 64, 83
1, 233475, Note_on_c, 0, 49, 75
1, 233475, Note_on_c, 0, 52, 86
1, 233614, Note_on_c, 0, 64, 0
1, 233614, Note_on_c, 0, 61, 0
1, 233614, Note_on_c, 0, 61, 75
1, 233617, Note_on_c, 0, 49, 0
1, 233617, Note_on_c, 0, 52, 0
1, 233617, Note_on_c, 0, 64, 85
1, 233620, Note_on_c, 0, 49, 77
1, 233620, Note_on_c, 0, 52, 88
1, 233757, Note_on_c, 0, 64, 0
1, 233757, Note_on_c, 0, 61, 0
1, 233757, Note_on_c, 0, 61, 77
1, 233760, Note_on_c, 0, 49, 0
1, 233760, Note_on_c, 0, 52, 0
1, 233760, Note_on_c, 0, 64, 88
1, 233763, Note_on_c, 0, 49, 79
1, 233763, Note_on_c, 0, 52, 90
1, 233972, Note_on_c, 0, 64, 0
1, 233972, Note_on_c, 0, 61, 0
1, 233972, Note_on_c, 0, 64, 102
1, 233975, Note_on_c, 0, 49, 0
1, 233975, Note_on_c, 0, 52, 0
1, 233975, Note_on_c, 0, 76, 116
1, 233978, Note_on_c, 0, 40, 102
1, 233978, Note_on_c, 0, 52, 116
1, 234001, Note_on_c, 0, 44, 0
1, 234001, Note_on_c, 0, 56, 0
1, 234005, Control_c, 0, 64, 0
1, 234005, Control_c, 0, 64, 0
1, 234125, Control_c, 0, 64, 127
1, 234125, Control_c, 0, 64, 127
1, 234222, Note_on_c, 0, 68, 68
1, 234222, Note_on_c, 0, 71, 77
1, 234222, Note_on_c, 0, 59, 68
1, 234225, Note_on_c, 0, 64, 77
1, 234470, Note_on_c, 0, 71, 0
1, 234470, Note_on_c, 0, 68, 0
1, 234470, Note_on_c, 0, 68, 68
1, 234473, Note_on_c, 0, 64, 0
1, 234473, Note_on_c, 0, 59, 0
1, 234473, Note_on_c, 0, 71, 77
1, 234476, Note_on_c, 0, 59, 68
1, 234476, Note_on_c, 0, 64, 77
1, 234524, Note_on_c, 0, 66, 97
1, 234524, Note_on_c, 0, 78, 113
1, 234524, Note_on_c, 0, 42, 97
1, 234527, Note_on_c, 0, 54, 112
1, 234544, Note_on_c, 0, 40, 0
1, 234544, Note_on_c, 0, 76, 0
1, 234544, Note_on_c, 0, 64, 0
1, 234547, Note_on_c, 0, 52, 0
1, 234649, Note_on_c, 0, 68, 0
1, 234649, Note_on_c, 0, 71, 0
1, 234649, Note_on_c, 0, 68, 105
1, 234652, Note_on_c, 0, 64, 0
1, 234652, Note_on_c, 0, 59, 0
1, 234652, Note_on_c, 0, 80, 117
1, 234655, Note_on_c, 0, 44, 104
1, 234655, Note_on_c, 0, 56, 117
1, 234668, Note_on_c, 0, 66, 0
1, 234668, Note_on_c, 0, 78, 0
1, 234668, Note_on_c, 0, 42, 0
1, 234671, Note_on_c, 0, 54, 0
1, 234671, Control_c, 0, 64, 0
1, 234671, Control_c, 0, 64, 0
1, 234773, Control_c, 0, 64, 127
1, 234773, Control_c, 0, 64, 127
1, 234816, Note_on_c, 0, 68, 68
1, 234816, Note_on_c, 0, 71, 77
1, 234816, Note_on_c, 0, 59, 68
1, 234819, Note_on_c, 0, 64, 77
1, 234981, Note_on_c, 0, 71, 0
1, 234981, Note_on_c, 0, 68, 0
1, 234981, Note_on_c, 0, 68, 68
1, 234984, Note_on_c, 0, 64, 0
1, 234984, Note_on_c, 0, 59, 0
1, 234984, Note_on_c, 0, 71, 77
1, 234987, Note_on_c, 0, 59, 68
1, 234987, Note_on_c, 0, 64, 77
1, 235023, Note_on_c, 0, 68, 0
1, 235023, Note_on_c, 0, 69, 101
1, 235023, Note_on_c, 0, 81, 117
1, 235026, Note_on_c, 0, 45, 100
1, 235026, Note_on_c, 0, 57, 115
1, 235043, Note_on_c, 0, 56, 0
1, 235043, Note_on_c, 0, 80, 0
1, 235043, Note_on_c, 0, 44, 0
1, 235148, Note_on_c, 0, 68, 0
1, 235148, Note_on_c, 0, 71, 0
1, 235148, Note_on_c, 0, 71, 111
1, 235151, Note_on_c, 0, 64, 0
1, 235151, Note_on_c, 0, 59, 0
1, 235151, Note_on_c, 0, 83, 117
1, 235154, Note_on_c, 0, 47, 110
1, 235154, Note_on_c, 0, 59, 117
1, 235168, Note_on_c, 0, 69, 0
1, 235168, Note_on_c, 0, 81, 0
1, 235168, Note_on_c, 0, 45, 0
1, 235171, Note_on_c, 0, 57, 0
1, 235187, Control_c, 0, 64, 0
1, 235187, Control_c, 0, 64, 0
1, 235289, Control_c, 0, 64, 127
1, 235289, Control_c, 0, 64, 127
1, 235315, Note_on_c, 0, 68, 68
1, 235315, Note_on_c, 0, 71, 77
1, 235315, Note_on_c, 0, 59, 68
1, 235318, Note_on_c, 0, 64, 77
1, 235481, Note_on_c, 0, 68, 0
1, 235481, Note_on_c, 0, 71, 0
1, 235481, Note_on_c, 0, 68, 70
1, 235484, Note_on_c, 0, 64, 0
1, 235484, Note_on_c, 0, 59, 0
1, 235484, Note_on_c, 0, 71, 80
1, 235487, Note_on_c, 0, 59, 71
1, 235487, Note_on_c, 0, 64, 81
1, 235625, Note_on_c, 0, 71, 0
1, 235625, Note_on_c, 0, 68, 0
1, 235625, Note_on_c, 0, 68, 73
1, 235628, Note_on_c, 0, 64, 0
1, 235628, Note_on_c, 0, 59, 0
1, 235628, Note_on_c, 0, 71, 84
1, 235631, Note_on_c, 0, 59, 74
1, 235631, Note_on_c, 0, 64, 85
1, 235769, Note_on_c, 0, 71, 0
1, 235769, Note_on_c, 0, 68, 0
1, 235769, Note_on_c, 0, 68, 76
1, 235772, Note_on_c, 0, 64, 0
1, 235772, Note_on_c, 0, 59, 0
1, 235772, Note_on_c, 0, 71, 87
1, 235775, Note_on_c, 0, 59, 77
1, 235775, Note_on_c, 0, 64, 88
1, 235913, Note_on_c, 0, 71, 0
1, 235913, Note_on_c, 0, 68, 0
1, 235913, Note_on_c, 0, 68, 79
1, 235916, Note_on_c, 0, 64, 0
1, 235916, Note_on_c, 0, 59, 0
1, 235916, Note_on_c, 0, 71, 90
1, 235919, Note_on_c, 0, 59, 80
1, 235919, Note_on_c, 0, 64, 92
1, 235949, Note_on_c, 0, 49, 117
1, 236057, Note_on_c, 0, 71, 0
1, 236057, Note_on_c, 0, 71, 0
1, 236057, Note_on_c, 0, 68, 0
1, 236060, Note_on_c, 0, 59, 0
1, 236060, Note_on_c, 0, 73, 110
1, 236060, Note_on_c, 0, 85, 117
1, 236063, Note_on_c, 0, 64, 0
1, 236063, Note_on_c, 0, 59, 0
1, 236063, Note_on_c, 0, 61, 117
1, 236086, Note_on_c, 0, 83, 0
1, 236086, Note_on_c, 0, 47, 0
1, 236115, Control_c, 0, 64, 0
1, 236115, Control_c, 0, 64, 0
1, 236216, Control_c, 0, 64, 127
1, 236216, Control_c, 0, 64, 127
1, 236307, Note_on_c, 0, 69, 80
1, 236307, Note_on_c, 0, 71, 89
1, 236307, Note_on_c, 0, 59, 80
1, 236310, Note_on_c, 0, 63, 80
1, 236310, Note_on_c, 0, 66, 89
1, 236556, Note_on_c, 0, 71, 0
1, 236556, Note_on_c, 0, 69, 0
1, 236556, Note_on_c, 0, 69, 80
1, 236559, Note_on_c, 0, 63, 0
1, 236559, Note_on_c, 0, 59, 0
1, 236559, Note_on_c, 0, 71, 89
1, 236562, Note_on_c, 0, 66, 0
1, 236562, Note_on_c, 0, 59, 80
1, 236562, Note_on_c, 0, 63, 80
1, 236565, Note_on_c, 0, 66, 89
1, 236618, Note_on_c, 0, 75, 112
1, 236618, Note_on_c, 0, 87, 117
1, 236618, Note_on_c, 0, 51, 117
1, 236621, Note_on_c, 0, 63, 117
1, 236638, Note_on_c, 0, 73, 0
1, 236638, Note_on_c, 0, 49, 0
1, 236638, Note_on_c, 0, 85, 0
1, 236641, Note_on_c, 0, 61, 0
1, 236698, Control_c, 0, 64, 0
1, 236698, Control_c, 0, 64, 0
1, 236743, Note_on_c, 0, 71, 0
1, 236743, Note_on_c, 0, 69, 0
1, 236743, Control_c, 0, 64, 0
1, 236746, Note_on_c, 0, 76, 115
1, 236746, Note_on_c, 0, 88, 117
1, 236746, Control_c, 0, 64, 0
1, 236749, Note_on_c, 0, 63, 0
1, 236749, Note_on_c, 0, 59, 0
1, 236749, Control_c, 0, 64, 0
1, 236752, Note_on_c, 0, 63, 0
1, 236752, Note_on_c, 0, 66, 0
1, 236752, Note_on_c, 0, 40, 99
1, 236755, Note_on_c, 0, 52, 111
1, 236763, Note_on_c, 0, 75, 0
1, 236763, Note_on_c, 0, 87, 0
1, 236763, Note_on_c, 0, 51, 0
1, 236871, Control_c, 0, 64, 127
1, 236871, Control_c, 0, 64, 127
1, 236910, Note_on_c, 0, 68, 68
1, 236910, Note_on_c, 0, 71, 77
1, 236910, Note_on_c, 0, 59, 68
1, 236913, Note_on_c, 0, 64, 77
1, 237053, Note_on_c, 0, 71, 0
1, 237053, Note_on_c, 0, 68, 0
1, 237053, Note_on_c, 0, 68, 68
1, 237056, Note_on_c, 0, 64, 0
1, 237056, Note_on_c, 0, 59, 0
1, 237056, Note_on_c, 0, 71, 77
1, 237059, Note_on_c, 0, 59, 68
1, 237059, Note_on_c, 0, 64, 77
1, 237198, Note_on_c, 0, 71, 0
1, 237198, Note_on_c, 0, 68, 0
1, 237198, Note_on_c, 0, 68, 68
1, 237201, Note_on_c, 0, 64, 0
1, 237201, Note_on_c, 0, 59, 0
1, 237201, Note_on_c, 0, 71, 77
1, 237204, Note_on_c, 0, 59, 68
1, 237204, Note_on_c, 0, 64, 77
1, 237364, Note_on_c, 0, 71, 0
1, 237364, Note_on_c, 0, 68, 0
1, 237364, Note_on_c, 0, 68, 68
1, 237367, Note_on_c, 0, 64, 0
1, 237367, Note_on_c, 0, 59, 0
1, 237367, Note_on_c, 0, 71, 77
1, 237370, Note_on_c, 0, 59, 68
1, 237370, Note_on_c, 0, 64, 77
1, 237551, Note_on_c, 0, 71, 0
1, 237551, Note_on_c, 0, 68, 0
1, 237551, Note_on_c, 0, 68, 68
1, 237554, Note_on_c, 0, 64, 0
1, 237554, Note_on_c, 0, 59, 0
1, 237554, Note_on_c, 0, 71, 77
1, 237557, Note_on_c, 0, 59, 68
1, 237557, Note_on_c, 0, 64, 77
1, 237765, Note_on_c, 0, 88, 0
1, 237765, Note_on_c, 0, 76, 0
1, 237765, Note_on_c, 0, 68, 0
1, 237768, Note_on_c, 0, 40, 0
1, 237768, Note_on_c, 0, 68, 68
1, 237768, Note_on_c, 0, 80, 112
1, 237771, Note_on_c, 0, 52, 0
1, 237771, Note_on_c, 0, 52, 99
1, 237779, Control_c, 0, 64, 0
1, 237779, Control_c, 0, 64, 0
1, 239049, Note_on_c, 0, 68, 0
1, 239049, Note_on_c, 0, 71, 0
1, 239049, Control_c, 0, 64, 0
1, 239052, Note_on_c, 0, 80, 0
1, 239052, Note_on_c, 0, 73, 90
1, 239052, Control_c, 0, 64, 0
1, 239055, Note_on_c, 0, 59, 0
1, 239055, Note_on_c, 0, 64, 0
1, 239055, Control_c, 0, 64, 0
1, 239058, Note_on_c, 0, 52, 0
1, 239058, Note_on_c, 0, 49, 80
1, 239235, Control_c, 0, 64, 127
1, 239235, Control_c, 0, 64, 127
1, 239299, Note_on_c, 0, 64, 61
1, 239299, Note_on_c, 0, 56, 52
1, 239299, Note_on_c, 0, 68, 61
1, 239512, Note_on_c, 0, 56, 0
1, 239512, Note_on_c, 0, 64, 0
1, 239512, Note_on_c, 0, 64, 63
1, 239515, Note_on_c, 0, 68, 0
1, 239515, Note_on_c, 0, 56, 53
1, 239515, Note_on_c, 0, 68, 63
1, 239700, Note_on_c, 0, 56, 0
1, 239700, Note_on_c, 0, 64, 0
1, 239700, Note_on_c, 0, 64, 65
1, 239703, Note_on_c, 0, 68, 0
1, 239703, Note_on_c, 0, 56, 55
1, 239703, Note_on_c, 0, 68, 65
1, 239866, Note_on_c, 0, 56, 0
1, 239866, Note_on_c, 0, 64, 0
1, 239866, Note_on_c, 0, 64, 67
1, 239869, Note_on_c, 0, 68, 0
1, 239869, Note_on_c, 0, 56, 56
1, 239869, Note_on_c, 0, 68, 67
1, 240010, Note_on_c, 0, 56, 0
1, 240010, Note_on_c, 0, 64, 0
1, 240010, Note_on_c, 0, 64, 69
1, 240013, Note_on_c, 0, 68, 0
1, 240013, Note_on_c, 0, 56, 58
1, 240013, Note_on_c, 0, 68, 69
1, 240127, Control_c, 0, 64, 0
1, 240127, Control_c, 0, 64, 0
1, 240154, Note_on_c, 0, 56, 0
1, 240154, Note_on_c, 0, 64, 0
1, 240154, Note_on_c, 0, 75, 95
1, 240157, Note_on_c, 0, 68, 0
1, 240157, Note_on_c, 0, 44, 82
1, 240179, Note_on_c, 0, 73, 0
1, 240179, Note_on_c, 0, 49, 0
1, 240337, Control_c, 0, 64, 127
1, 240337, Control_c, 0, 64, 127
1, 240369, Note_on_c, 0, 68, 53
1, 240369, Note_on_c, 0, 71, 61
1, 240369, Note_on_c, 0, 51, 52
1, 240372, Note_on_c, 0, 63, 61
1, 240512, Note_on_c, 0, 71, 0
1, 240512, Note_on_c, 0, 68, 0
1, 240512, Note_on_c, 0, 68, 55
1, 240515, Note_on_c, 0, 51, 0
1, 240515, Note_on_c, 0, 63, 0
1, 240515, Note_on_c, 0, 71, 64
1, 240518, Note_on_c, 0, 51, 54
1, 240518, Note_on_c, 0, 63, 64
1, 240656, Note_on_c, 0, 71, 0
1, 240656, Note_on_c, 0, 68, 0
1, 240656, Note_on_c, 0, 68, 57
1, 240659, Note_on_c, 0, 51, 0
1, 240659, Note_on_c, 0, 63, 0
1, 240659, Note_on_c, 0, 71, 66
1, 240662, Note_on_c, 0, 51, 56
1, 240662, Note_on_c, 0, 63, 66
1, 240801, Note_on_c, 0, 71, 0
1, 240801, Note_on_c, 0, 68, 0
1, 240801, Note_on_c, 0, 68, 59
1, 240804, Note_on_c, 0, 51, 0
1, 240804, Note_on_c, 0, 63, 0
1, 240804, Note_on_c, 0, 71, 69
1, 240807, Note_on_c, 0, 51, 58
1, 240807, Note_on_c, 0, 63, 69
1, 240944, Note_on_c, 0, 71, 0
1, 240944, Note_on_c, 0, 68, 0
1, 240944, Note_on_c, 0, 68, 60
1, 240947, Note_on_c, 0, 51, 0
1, 240947, Note_on_c, 0, 63, 0
1, 240947, Note_on_c, 0, 71, 71
1, 240950, Note_on_c, 0, 51, 59
1, 240950, Note_on_c, 0, 63, 71
1, 240980, Note_on_c, 0, 75, 97
1, 241000, Note_on_c, 0, 75, 0
1, 241105, Note_on_c, 0, 68, 0
1, 241105, Note_on_c, 0, 71, 0
1, 241105, Note_on_c, 0, 75, 0
1, 241108, Note_on_c, 0, 63, 0
1, 241108, Note_on_c, 0, 51, 0
1, 241108, Note_on_c, 0, 80, 93
1, 241111, Note_on_c, 0, 40, 84
1, 241130, Note_on_c, 0, 44, 0
1, 241145, Control_c, 0, 64, 0
1, 241145, Control_c, 0, 64, 0
1, 241277, Control_c, 0, 64, 127
1, 241277, Control_c, 0, 64, 127
1, 241319, Note_on_c, 0, 68, 55
1, 241319, Note_on_c, 0, 71, 63
1, 241319, Note_on_c, 0, 47, 54
1, 241322, Note_on_c, 0, 59, 63
1, 241485, Note_on_c, 0, 71, 0
1, 241485, Note_on_c, 0, 68, 0
1, 241485, Note_on_c, 0, 68, 57
1, 241488, Note_on_c, 0, 47, 0
1, 241488, Note_on_c, 0, 59, 0
1, 241488, Note_on_c, 0, 71, 65
1, 241491, Note_on_c, 0, 47, 55
1, 241491, Note_on_c, 0, 59, 65
1, 241629, Note_on_c, 0, 71, 0
1, 241629, Note_on_c, 0, 68, 0
1, 241629, Note_on_c, 0, 68, 58
1, 241632, Note_on_c, 0, 47, 0
1, 241632, Note_on_c, 0, 59, 0
1, 241632, Note_on_c, 0, 71, 68
1, 241635, Note_on_c, 0, 47, 57
1, 241635, Note_on_c, 0, 59, 68
1, 241774, Note_on_c, 0, 71, 0
1, 241774, Note_on_c, 0, 68, 0
1, 241774, Note_on_c, 0, 68, 60
1, 241777, Note_on_c, 0, 47, 0
1, 241777, Note_on_c, 0, 59, 0
1, 241777, Note_on_c, 0, 71, 70
1, 241780, Note_on_c, 0, 47, 59
1, 241780, Note_on_c, 0, 59, 70
1, 241917, Note_on_c, 0, 71, 0
1, 241917, Note_on_c, 0, 68, 0
1, 241917, Note_on_c, 0, 68, 63
1, 241920, Note_on_c, 0, 47, 0
1, 241920, Note_on_c, 0, 59, 0
1, 241920, Note_on_c, 0, 71, 73
1, 241923, Note_on_c, 0, 47, 62
1, 241923, Note_on_c, 0, 59, 73
1, 242061, Note_on_c, 0, 47, 0
1, 242061, Note_on_c, 0, 71, 0
1, 242061, Note_on_c, 0, 68, 0
1, 242064, Note_on_c, 0, 59, 0
1, 242064, Note_on_c, 0, 37, 85
1, 242081, Note_on_c, 0, 40, 0
1, 242081, Control_c, 0, 64, 0
1, 242081, Control_c, 0, 64, 0
1, 242214, Control_c, 0, 64, 127
1, 242214, Control_c, 0, 64, 127
1, 242228, Note_on_c, 0, 65, 56
1, 242228, Note_on_c, 0, 71, 64
1, 242228, Note_on_c, 0, 44, 55
1, 242231, Note_on_c, 0, 56, 64
1, 242296, Note_on_c, 0, 73, 92
1, 242312, Note_on_c, 0, 80, 0
1, 242364, Note_on_c, 0, 71, 0
1, 242364, Note_on_c, 0, 65, 0
1, 242364, Note_on_c, 0, 65, 58
1, 242367, Note_on_c, 0, 44, 0
1, 242367, Note_on_c, 0, 56, 0
1, 242367, Note_on_c, 0, 71, 66
1, 242370, Note_on_c, 0, 44, 57
1, 242370, Note_on_c, 0, 56, 66
1, 242468, Note_on_c, 0, 76, 88
1, 242488, Note_on_c, 0, 73, 0
1, 242530, Note_on_c, 0, 71, 0
1, 242530, Note_on_c, 0, 65, 0
1, 242530, Note_on_c, 0, 65, 59
1, 242533, Note_on_c, 0, 44, 0
1, 242533, Note_on_c, 0, 71, 69
1, 242533, Note_on_c, 0, 74, 93
1, 242536, Note_on_c, 0, 56, 0
1, 242536, Note_on_c, 0, 44, 58
1, 242536, Note_on_c, 0, 56, 69
1, 242552, Note_on_c, 0, 76, 0
1, 242718, Note_on_c, 0, 71, 0
1, 242718, Note_on_c, 0, 65, 0
1, 242718, Note_on_c, 0, 65, 63
1, 242721, Note_on_c, 0, 56, 0
1, 242721, Note_on_c, 0, 44, 0
1, 242721, Note_on_c, 0, 71, 72
1, 242724, Note_on_c, 0, 44, 61
1, 242724, Note_on_c, 0, 56, 72
1, 242811, Note_on_c, 0, 73, 93
1, 242833, Note_on_c, 0, 74, 0
1, 242905, Note_on_c, 0, 71, 0
1, 242905, Note_on_c, 0, 65, 0
1, 242905, Note_on_c, 0, 65, 64
1, 242908, Note_on_c, 0, 44, 0
1, 242908, Note_on_c, 0, 56, 0
1, 242908, Note_on_c, 0, 71, 75
1, 242911, Note_on_c, 0, 44, 63
1, 242911, Note_on_c, 0, 56, 75
1, 243092, Note_on_c, 0, 71, 0
1, 243092, Note_on_c, 0, 65, 0
1, 243092, Control_c, 0, 64, 0
1, 243095, Note_on_c, 0, 78, 99
1, 243095, Control_c, 0, 64, 0
1, 243095, Control_c, 0, 64, 0
1, 243098, Note_on_c, 0, 44, 0
1, 243098, Note_on_c, 0, 56, 0
1, 243098, Note_on_c, 0, 45, 91
1, 243117, Note_on_c, 0, 37, 0
1, 243117, Note_on_c, 0, 73, 0
1, 243274, Control_c, 0, 64, 127
1, 243274, Control_c, 0, 64, 127
1, 243306, Note_on_c, 0, 66, 56
1, 243306, Note_on_c, 0, 73, 65
1, 243306, Note_on_c, 0, 57, 57
1, 243309, Note_on_c, 0, 61, 66
1, 243450, Note_on_c, 0, 73, 0
1, 243450, Note_on_c, 0, 66, 0
1, 243450, Note_on_c, 0, 66, 57
1, 243453, Note_on_c, 0, 57, 0
1, 243453, Note_on_c, 0, 61, 0
1, 243453, Note_on_c, 0, 73, 66
1, 243456, Note_on_c, 0, 57, 58
1, 243456, Note_on_c, 0, 61, 67
1, 243594, Note_on_c, 0, 73, 0
1, 243594, Note_on_c, 0, 66, 0
1, 243594, Note_on_c, 0, 66, 58
1, 243597, Note_on_c, 0, 57, 0
1, 243597, Note_on_c, 0, 61, 0
1, 243597, Note_on_c, 0, 73, 67
1, 243600, Note_on_c, 0, 57, 59
1, 243600, Note_on_c, 0, 61, 68
1, 243738, Note_on_c, 0, 73, 0
1, 243738, Note_on_c, 0, 66, 0
1, 243738, Note_on_c, 0, 66, 59
1, 243741, Note_on_c, 0, 57, 0
1, 243741, Note_on_c, 0, 61, 0
1, 243741, Note_on_c, 0, 73, 69
1, 243744, Note_on_c, 0, 57, 60
1, 243744, Note_on_c, 0, 61, 70
1, 243882, Note_on_c, 0, 73, 0
1, 243882, Note_on_c, 0, 66, 0
1, 243882, Note_on_c, 0, 66, 60
1, 243885, Note_on_c, 0, 57, 0
1, 243885, Note_on_c, 0, 61, 0
1, 243885, Note_on_c, 0, 73, 69
1, 243888, Note_on_c, 0, 57, 62
1, 243888, Note_on_c, 0, 61, 71
1, 244026, Note_on_c, 0, 73, 0
1, 244026, Note_on_c, 0, 66, 0
1, 244026, Note_on_c, 0, 80, 99
1, 244029, Note_on_c, 0, 57, 0
1, 244029, Note_on_c, 0, 61, 0
1, 244043, Note_on_c, 0, 78, 0
1, 244170, Note_on_c, 0, 68, 62
1, 244170, Note_on_c, 0, 73, 72
1, 244170, Note_on_c, 0, 57, 64
1, 244173, Note_on_c, 0, 59, 64
1, 244173, Note_on_c, 0, 65, 73
1, 244314, Note_on_c, 0, 73, 0
1, 244314, Note_on_c, 0, 68, 0
1, 244314, Note_on_c, 0, 68, 63
1, 244317, Note_on_c, 0, 57, 0
1, 244317, Note_on_c, 0, 59, 0
1, 244317, Note_on_c, 0, 73, 73
1, 244320, Note_on_c, 0, 65, 0
1, 244320, Note_on_c, 0, 57, 65
1, 244320, Note_on_c, 0, 59, 65
1, 244323, Note_on_c, 0, 65, 75
1, 244458, Note_on_c, 0, 73, 0
1, 244458, Note_on_c, 0, 68, 0
1, 244458, Note_on_c, 0, 68, 64
1, 244461, Note_on_c, 0, 57, 0
1, 244461, Note_on_c, 0, 59, 0
1, 244461, Note_on_c, 0, 73, 74
1, 244464, Note_on_c, 0, 65, 0
1, 244464, Note_on_c, 0, 57, 65
1, 244464, Note_on_c, 0, 59, 65
1, 244467, Note_on_c, 0, 65, 76
1, 244602, Note_on_c, 0, 73, 0
1, 244602, Note_on_c, 0, 68, 0
1, 244602, Note_on_c, 0, 68, 65
1, 244605, Note_on_c, 0, 57, 0
1, 244605, Note_on_c, 0, 59, 0
1, 244605, Note_on_c, 0, 73, 75
1, 244608, Note_on_c, 0, 65, 0
1, 244608, Note_on_c, 0, 57, 67
1, 244608, Note_on_c, 0, 59, 67
1, 244611, Note_on_c, 0, 65, 77
1, 244746, Note_on_c, 0, 73, 0
1, 244746, Note_on_c, 0, 68, 0
1, 244746, Note_on_c, 0, 68, 66
1, 244749, Note_on_c, 0, 57, 0
1, 244749, Note_on_c, 0, 59, 0
1, 244749, Note_on_c, 0, 73, 77
1, 244752, Note_on_c, 0, 65, 0
1, 244752, Note_on_c, 0, 57, 69
1, 244752, Note_on_c, 0, 59, 69
1, 244755, Note_on_c, 0, 65, 79
1, 244782, Note_on_c, 0, 80, 100
1, 244826, Note_on_c, 0, 80, 0
1, 244969, Note_on_c, 0, 80, 0
1, 244969, Note_on_c, 0, 80, 100
1, 245063, Note_on_c, 0, 73, 0
1, 245063, Note_on_c, 0, 68, 0
1, 245063, Note_on_c, 0, 85, 100
1, 245066, Note_on_c, 0, 65, 0
1, 245066, Note_on_c, 0, 57, 0
1, 245066, Note_on_c, 0, 59, 0
1, 245092, Note_on_c, 0, 80, 0
1, 245133, Control_c, 0, 64, 0
1, 245133, Control_c, 0, 64, 0
1, 245293, Control_c, 0, 64, 127
1, 245293, Control_c, 0, 64, 127
1, 245313, Note_on_c, 0, 66, 56
1, 245313, Note_on_c, 0, 73, 65
1, 245313, Note_on_c, 0, 57, 57
1, 245316, Note_on_c, 0, 61, 66
1, 245456, Note_on_c, 0, 73, 0
1, 245456, Note_on_c, 0, 66, 0
1, 245456, Note_on_c, 0, 66, 57
1, 245459, Note_on_c, 0, 57, 0
1, 245459, Note_on_c, 0, 61, 0
1, 245459, Note_on_c, 0, 73, 66
1, 245462, Note_on_c, 0, 57, 58
1, 245462, Note_on_c, 0, 61, 67
1, 245601, Note_on_c, 0, 73, 0
1, 245601, Note_on_c, 0, 66, 0
1, 245601, Note_on_c, 0, 66, 57
1, 245604, Note_on_c, 0, 85, 0
1, 245604, Note_on_c, 0, 73, 67
1, 245604, Note_on_c, 0, 78, 98
1, 245607, Note_on_c, 0, 61, 0
1, 245607, Note_on_c, 0, 57, 0
1, 245607, Note_on_c, 0, 57, 58
1, 245610, Note_on_c, 0, 61, 68
1, 245745, Note_on_c, 0, 66, 0
1, 245745, Note_on_c, 0, 73, 0
1, 245745, Note_on_c, 0, 66, 58
1, 245748, Note_on_c, 0, 57, 0
1, 245748, Note_on_c, 0, 61, 0
1, 245748, Note_on_c, 0, 73, 68
1, 245751, Note_on_c, 0, 57, 59
1, 245751, Note_on_c, 0, 61, 69
1, 245888, Note_on_c, 0, 73, 0
1, 245888, Note_on_c, 0, 66, 0
1, 245888, Note_on_c, 0, 66, 59
1, 245891, Note_on_c, 0, 57, 0
1, 245891, Note_on_c, 0, 61, 0
1, 245891, Note_on_c, 0, 73, 69
1, 245894, Note_on_c, 0, 57, 60
1, 245894, Note_on_c, 0, 61, 70
1, 246033, Note_on_c, 0, 57, 0
1, 246033, Note_on_c, 0, 73, 0
1, 246033, Note_on_c, 0, 66, 0
1, 246036, Note_on_c, 0, 61, 0
1, 246036, Note_on_c, 0, 44, 86
1, 246055, Note_on_c, 0, 45, 0
1, 246072, Control_c, 0, 64, 0
1, 246072, Control_c, 0, 64, 0
1, 246220, Note_on_c, 0, 64, 60
1, 246220, Note_on_c, 0, 73, 71
1, 246220, Note_on_c, 0, 56, 61
1, 246223, Note_on_c, 0, 61, 72
1, 246227, Control_c, 0, 64, 127
1, 246227, Control_c, 0, 64, 127
1, 246364, Note_on_c, 0, 73, 0
1, 246364, Note_on_c, 0, 64, 0
1, 246364, Note_on_c, 0, 64, 61
1, 246367, Note_on_c, 0, 56, 0
1, 246367, Note_on_c, 0, 61, 0
1, 246367, Note_on_c, 0, 73, 72
1, 246370, Note_on_c, 0, 56, 62
1, 246370, Note_on_c, 0, 61, 73
1, 246508, Note_on_c, 0, 73, 0
1, 246508, Note_on_c, 0, 64, 0
1, 246508, Note_on_c, 0, 64, 62
1, 246511, Note_on_c, 0, 56, 0
1, 246511, Note_on_c, 0, 73, 73
1, 246511, Note_on_c, 0, 76, 100
1, 246514, Note_on_c, 0, 61, 0
1, 246514, Note_on_c, 0, 56, 63
1, 246514, Note_on_c, 0, 61, 74
1, 246528, Note_on_c, 0, 78, 0
1, 246675, Note_on_c, 0, 73, 0
1, 246675, Note_on_c, 0, 64, 0
1, 246675, Note_on_c, 0, 64, 62
1, 246678, Note_on_c, 0, 61, 0
1, 246678, Note_on_c, 0, 56, 0
1, 246678, Note_on_c, 0, 73, 74
1, 246681, Note_on_c, 0, 56, 63
1, 246681, Note_on_c, 0, 61, 75
1, 246861, Note_on_c, 0, 73, 0
1, 246861, Note_on_c, 0, 64, 0
1, 246861, Note_on_c, 0, 64, 63
1, 246864, Note_on_c, 0, 56, 0
1, 246864, Note_on_c, 0, 61, 0
1, 246864, Note_on_c, 0, 73, 75
1, 246867, Note_on_c, 0, 56, 64
1, 246867, Note_on_c, 0, 61, 76
1, 247049, Note_on_c, 0, 73, 0
1, 247049, Note_on_c, 0, 64, 0
1, 247049, Control_c, 0, 64, 127
1, 247052, Note_on_c, 0, 75, 95
1, 247052, Control_c, 0, 64, 127
1, 247052, Control_c, 0, 64, 0
1, 247055, Note_on_c, 0, 56, 0
1, 247055, Note_on_c, 0, 61, 0
1, 247055, Note_on_c, 0, 42, 82
1, 247074, Note_on_c, 0, 44, 0
1, 247074, Note_on_c, 0, 76, 0
1, 247119, Control_c, 0, 64, 0
1, 247119, Control_c, 0, 64, 0
1, 247212, Control_c, 0, 64, 127
1, 247212, Control_c, 0, 64, 127
1, 247263, Note_on_c, 0, 69, 56
1, 247263, Note_on_c, 0, 72, 65
1, 247263, Note_on_c, 0, 57, 50
1, 247266, Note_on_c, 0, 60, 51
1, 247266, Note_on_c, 0, 63, 52
1, 247266, Note_on_c, 0, 66, 62
1, 247429, Note_on_c, 0, 72, 0
1, 247429, Note_on_c, 0, 69, 0
1, 247429, Note_on_c, 0, 69, 58
1, 247432, Note_on_c, 0, 57, 0
1, 247432, Note_on_c, 0, 60, 0
1, 247432, Note_on_c, 0, 72, 68
1, 247435, Note_on_c, 0, 63, 0
1, 247435, Note_on_c, 0, 66, 0
1, 247435, Note_on_c, 0, 57, 51
1, 247438, Note_on_c, 0, 60, 51
1, 247438, Note_on_c, 0, 63, 51
1, 247438, Note_on_c, 0, 66, 61
1, 247492, Note_on_c, 0, 75, 0
1, 247492, Note_on_c, 0, 78, 96
1, 247617, Note_on_c, 0, 72, 0
1, 247617, Note_on_c, 0, 69, 0
1, 247617, Note_on_c, 0, 69, 60
1, 247620, Note_on_c, 0, 78, 0
1, 247620, Note_on_c, 0, 72, 71
1, 247620, Note_on_c, 0, 81, 96
1, 247623, Note_on_c, 0, 60, 0
1, 247623, Note_on_c, 0, 57, 0
1, 247623, Note_on_c, 0, 63, 0
1, 247626, Note_on_c, 0, 66, 0
1, 247626, Note_on_c, 0, 57, 52
1, 247626, Note_on_c, 0, 60, 52
1, 247629, Note_on_c, 0, 63, 52
1, 247629, Note_on_c, 0, 66, 63
1, 247761, Note_on_c, 0, 69, 0
1, 247761, Note_on_c, 0, 72, 0
1, 247761, Note_on_c, 0, 69, 62
1, 247764, Note_on_c, 0, 57, 0
1, 247764, Note_on_c, 0, 60, 0
1, 247764, Note_on_c, 0, 72, 73
1, 247767, Note_on_c, 0, 63, 0
1, 247767, Note_on_c, 0, 66, 0
1, 247767, Note_on_c, 0, 57, 54
1, 247770, Note_on_c, 0, 60, 54
1, 247770, Note_on_c, 0, 63, 54
1, 247770, Note_on_c, 0, 66, 66
1, 247904, Note_on_c, 0, 69, 0
1, 247904, Note_on_c, 0, 72, 0
1, 247904, Note_on_c, 0, 69, 64
1, 247907, Note_on_c, 0, 57, 0
1, 247907, Note_on_c, 0, 60, 0
1, 247907, Note_on_c, 0, 72, 76
1, 247910, Note_on_c, 0, 63, 0
1, 247910, Note_on_c, 0, 66, 0
1, 247910, Note_on_c, 0, 57, 55
1, 247913, Note_on_c, 0, 60, 55
1, 247913, Note_on_c, 0, 63, 55
1, 247913, Note_on_c, 0, 66, 68
1, 248049, Note_on_c, 0, 42, 0
1, 248049, Note_on_c, 0, 69, 0
1, 248049, Note_on_c, 0, 72, 0
1, 248052, Note_on_c, 0, 60, 0
1, 248052, Note_on_c, 0, 57, 0
1, 248052, Note_on_c, 0, 63, 0
1, 248055, Note_on_c, 0, 66, 0
1, 248055, Note_on_c, 0, 44, 82
1, 248095, Control_c, 0, 64, 0
1, 248095, Control_c, 0, 64, 0
1, 248224, Control_c, 0, 64, 127
1, 248224, Control_c, 0, 64, 127
1, 248263, Note_on_c, 0, 68, 56
1, 248263, Note_on_c, 0, 72, 65
1, 248263, Note_on_c, 0, 56, 50
1, 248266, Note_on_c, 0, 60, 51
1, 248266, Note_on_c, 0, 63, 52
1, 248266, Note_on_c, 0, 66, 62
1, 248406, Note_on_c, 0, 72, 0
1, 248406, Note_on_c, 0, 68, 0
1, 248406, Note_on_c, 0, 68, 58
1, 248409, Note_on_c, 0, 56, 0
1, 248409, Note_on_c, 0, 60, 0
1, 248409, Note_on_c, 0, 72, 67
1, 248412, Note_on_c, 0, 63, 0
1, 248412, Note_on_c, 0, 66, 0
1, 248412, Note_on_c, 0, 56, 50
1, 248415, Note_on_c, 0, 60, 50
1, 248415, Note_on_c, 0, 63, 50
1, 248415, Note_on_c, 0, 66, 60
1, 248551, Note_on_c, 0, 68, 0
1, 248551, Note_on_c, 0, 72, 0
1, 248551, Note_on_c, 0, 68, 59
1, 248554, Note_on_c, 0, 81, 0
1, 248554, Note_on_c, 0, 72, 70
1, 248554, Note_on_c, 0, 75, 93
1, 248557, Note_on_c, 0, 63, 0
1, 248557, Note_on_c, 0, 56, 0
1, 248557, Note_on_c, 0, 60, 0
1, 248560, Note_on_c, 0, 66, 0
1, 248560, Note_on_c, 0, 56, 51
1, 248560, Note_on_c, 0, 60, 51
1, 248563, Note_on_c, 0, 63, 51
1, 248563, Note_on_c, 0, 66, 61
1, 248695, Note_on_c, 0, 68, 0
1, 248695, Note_on_c, 0, 72, 0
1, 248695, Note_on_c, 0, 68, 61
1, 248698, Note_on_c, 0, 56, 0
1, 248698, Note_on_c, 0, 60, 0
1, 248698, Note_on_c, 0, 72, 72
1, 248701, Note_on_c, 0, 63, 0
1, 248701, Note_on_c, 0, 66, 0
1, 248701, Note_on_c, 0, 56, 52
1, 248704, Note_on_c, 0, 60, 52
1, 248704, Note_on_c, 0, 63, 52
1, 248704, Note_on_c, 0, 66, 63
1, 248838, Note_on_c, 0, 68, 0
1, 248838, Note_on_c, 0, 72, 0
1, 248838, Note_on_c, 0, 68, 63
1, 248841, Note_on_c, 0, 56, 0
1, 248841, Note_on_c, 0, 60, 0
1, 248841, Note_on_c, 0, 72, 75
1, 248844, Note_on_c, 0, 63, 0
1, 248844, Note_on_c, 0, 66, 0
1, 248844, Note_on_c, 0, 56, 53
1, 248847, Note_on_c, 0, 60, 53
1, 248847, Note_on_c, 0, 63, 53
1, 248847, Note_on_c, 0, 66, 64
1, 248983, Note_on_c, 0, 75, 0
1, 248983, Note_on_c, 0, 68, 0
1, 248983, Note_on_c, 0, 72, 0
1, 248986, Note_on_c, 0, 56, 0
1, 248986, Note_on_c, 0, 60, 0
1, 248986, Note_on_c, 0, 73, 89
1, 248989, Note_on_c, 0, 66, 0
1, 248989, Note_on_c, 0, 63, 0
1, 248989, Note_on_c, 0, 44, 0
1, 248992, Note_on_c, 0, 40, 86
1, 249010, Control_c, 0, 64, 0
1, 249010, Control_c, 0, 64, 0
1, 249092, Control_c, 0, 64, 127
1, 249092, Control_c, 0, 64, 127
1, 249149, Note_on_c, 0, 64, 56
1, 249149, Note_on_c, 0, 68, 65
1, 249149, Note_on_c, 0, 56, 49
1, 249152, Note_on_c, 0, 61, 58
1, 249293, Note_on_c, 0, 68, 0
1, 249293, Note_on_c, 0, 64, 0
1, 249293, Note_on_c, 0, 64, 58
1, 249296, Note_on_c, 0, 56, 0
1, 249296, Note_on_c, 0, 61, 0
1, 249296, Note_on_c, 0, 68, 67
1, 249299, Note_on_c, 0, 56, 50
1, 249299, Note_on_c, 0, 61, 60
1, 249356, Note_on_c, 0, 73, 0
1, 249356, Note_on_c, 0, 76, 96
1, 249481, Note_on_c, 0, 68, 0
1, 249481, Note_on_c, 0, 64, 0
1, 249481, Note_on_c, 0, 64, 59
1, 249484, Note_on_c, 0, 76, 0
1, 249484, Note_on_c, 0, 68, 70
1, 249484, Note_on_c, 0, 80, 96
1, 249487, Note_on_c, 0, 61, 0
1, 249487, Note_on_c, 0, 56, 0
1, 249487, Note_on_c, 0, 56, 51
1, 249490, Note_on_c, 0, 61, 62
1, 249625, Note_on_c, 0, 64, 0
1, 249625, Note_on_c, 0, 68, 0
1, 249625, Note_on_c, 0, 64, 61
1, 249628, Note_on_c, 0, 56, 0
1, 249628, Note_on_c, 0, 61, 0
1, 249628, Note_on_c, 0, 68, 72
1, 249631, Note_on_c, 0, 56, 53
1, 249631, Note_on_c, 0, 61, 64
1, 249768, Note_on_c, 0, 68, 0
1, 249768, Note_on_c, 0, 64, 0
1, 249768, Note_on_c, 0, 64, 63
1, 249771, Note_on_c, 0, 56, 0
1, 249771, Note_on_c, 0, 61, 0
1, 249771, Note_on_c, 0, 68, 75
1, 249774, Note_on_c, 0, 56, 54
1, 249774, Note_on_c, 0, 61, 66
1, 249913, Note_on_c, 0, 56, 0
1, 249913, Note_on_c, 0, 68, 0
1, 249913, Note_on_c, 0, 64, 0
1, 249916, Note_on_c, 0, 40, 0
1, 249916, Note_on_c, 0, 61, 0
1, 249916, Note_on_c, 0, 42, 82
1, 249957, Control_c, 0, 64, 0
1, 249957, Control_c, 0, 64, 0
1, 250079, Note_on_c, 0, 63, 56
1, 250079, Note_on_c, 0, 69, 65
1, 250079, Note_on_c, 0, 54, 51
1, 250082, Note_on_c, 0, 61, 62
1, 250099, Control_c, 0, 64, 127
1, 250099, Control_c, 0, 64, 127
1, 250223, Note_on_c, 0, 69, 0
1, 250223, Note_on_c, 0, 63, 0
1, 250223, Note_on_c, 0, 63, 58
1, 250226, Note_on_c, 0, 54, 0
1, 250226, Note_on_c, 0, 61, 0
1, 250226, Note_on_c, 0, 69, 68
1, 250229, Note_on_c, 0, 54, 50
1, 250229, Note_on_c, 0, 61, 60
1, 250367, Note_on_c, 0, 69, 0
1, 250367, Note_on_c, 0, 63, 0
1, 250367, Note_on_c, 0, 63, 60
1, 250370, Note_on_c, 0, 80, 0
1, 250370, Note_on_c, 0, 69, 71
1, 250370, Note_on_c, 0, 73, 96
1, 250373, Note_on_c, 0, 61, 0
1, 250373, Note_on_c, 0, 54, 0
1, 250373, Note_on_c, 0, 54, 52
1, 250376, Note_on_c, 0, 61, 63
1, 250534, Note_on_c, 0, 63, 0
1, 250534, Note_on_c, 0, 69, 0
1, 250534, Note_on_c, 0, 63, 62
1, 250537, Note_on_c, 0, 54, 0
1, 250537, Note_on_c, 0, 61, 0
1, 250537, Note_on_c, 0, 69, 73
1, 250540, Note_on_c, 0, 54, 53
1, 250540, Note_on_c, 0, 61, 65
1, 250720, Note_on_c, 0, 69, 0
1, 250720, Note_on_c, 0, 63, 0
1, 250720, Note_on_c, 0, 63, 64
1, 250723, Note_on_c, 0, 54, 0
1, 250723, Note_on_c, 0, 61, 0
1, 250723, Note_on_c, 0, 69, 76
1, 250726, Note_on_c, 0, 54, 55
1, 250726, Note_on_c, 0, 61, 67
1, 250908, Note_on_c, 0, 63, 0
1, 250908, Control_c, 0, 64, 127
1, 250908, Control_c, 0, 64, 0
1, 250911, Note_on_c, 0, 69, 0
1, 250911, Note_on_c, 0, 73, 0
1, 250911, Note_on_c, 0, 72, 89
1, 250914, Control_c, 0, 64, 127
1, 250914, Control_c, 0, 64, 0
1, 250914, Control_c, 0, 64, 0
1, 250917, Note_on_c, 0, 61, 0
1, 250917, Note_on_c, 0, 54, 0
1, 250917, Control_c, 0, 64, 0
1, 250920, Note_on_c, 0, 42, 0
1, 250920, Note_on_c, 0, 39, 88
1, 250978, Control_c, 0, 64, 0
1, 250978, Control_c, 0, 64, 0
1, 251071, Control_c, 0, 64, 127
1, 251071, Control_c, 0, 64, 127
1, 251122, Note_on_c, 0, 66, 61
1, 251122, Note_on_c, 0, 69, 70
1, 251122, Note_on_c, 0, 48, 49
1, 251125, Note_on_c, 0, 51, 49
1, 251125, Note_on_c, 0, 54, 49
1, 251125, Note_on_c, 0, 57, 58
1, 251128, Note_on_c, 0, 60, 49
1, 251288, Note_on_c, 0, 69, 0
1, 251288, Note_on_c, 0, 66, 0
1, 251288, Note_on_c, 0, 66, 61
1, 251291, Note_on_c, 0, 48, 0
1, 251291, Note_on_c, 0, 51, 0
1, 251291, Note_on_c, 0, 69, 71
1, 251294, Note_on_c, 0, 60, 0
1, 251294, Note_on_c, 0, 57, 0
1, 251294, Note_on_c, 0, 54, 0
1, 251297, Note_on_c, 0, 48, 49
1, 251297, Note_on_c, 0, 51, 49
1, 251297, Note_on_c, 0, 54, 49
1, 251300, Note_on_c, 0, 57, 59
1, 251300, Note_on_c, 0, 60, 49
1, 251330, Note_on_c, 0, 72, 0
1, 251330, Note_on_c, 0, 75, 99
1, 251455, Note_on_c, 0, 69, 0
1, 251455, Note_on_c, 0, 66, 0
1, 251455, Note_on_c, 0, 66, 63
1, 251458, Note_on_c, 0, 75, 0
1, 251458, Note_on_c, 0, 69, 73
1, 251458, Note_on_c, 0, 78, 100
1, 251461, Note_on_c, 0, 48, 0
1, 251461, Note_on_c, 0, 54, 0
1, 251461, Note_on_c, 0, 51, 0
1, 251464, Note_on_c, 0, 60, 0
1, 251464, Note_on_c, 0, 57, 0
1, 251464, Note_on_c, 0, 48, 49
1, 251467, Note_on_c, 0, 51, 49
1, 251467, Note_on_c, 0, 54, 49
1, 251467, Note_on_c, 0, 57, 61
1, 251470, Note_on_c, 0, 60, 49
1, 251599, Note_on_c, 0, 69, 0
1, 251599, Note_on_c, 0, 66, 0
1, 251599, Note_on_c, 0, 66, 64
1, 251602, Note_on_c, 0, 48, 0
1, 251602, Note_on_c, 0, 51, 0
1, 251602, Note_on_c, 0, 69, 73
1, 251605, Note_on_c, 0, 54, 0
1, 251605, Note_on_c, 0, 60, 0
1, 251605, Note_on_c, 0, 57, 0
1, 251608, Note_on_c, 0, 48, 52
1, 251608, Note_on_c, 0, 51, 52
1, 251608, Note_on_c, 0, 54, 52
1, 251611, Note_on_c, 0, 57, 61
1, 251611, Note_on_c, 0, 60, 52
1, 251742, Note_on_c, 0, 69, 0
1, 251742, Note_on_c, 0, 66, 0
1, 251742, Note_on_c, 0, 66, 64
1, 251745, Note_on_c, 0, 48, 0
1, 251745, Note_on_c, 0, 51, 0
1, 251745, Note_on_c, 0, 69, 76
1, 251748, Note_on_c, 0, 60, 0
1, 251748, Note_on_c, 0, 57, 0
1, 251748, Note_on_c, 0, 54, 0
1, 251751, Note_on_c, 0, 48, 52
1, 251751, Note_on_c, 0, 51, 52
1, 251751, Note_on_c, 0, 54, 52
1, 251754, Note_on_c, 0, 57, 61
1, 251754, Note_on_c, 0, 60, 52
1, 251930, Note_on_c, 0, 78, 0
1, 251930, Note_on_c, 0, 69, 0
1, 251930, Note_on_c, 0, 66, 0
1, 251933, Note_on_c, 0, 48, 0
1, 251933, Note_on_c, 0, 39, 0
1, 251933, Note_on_c, 0, 74, 97
1, 251936, Note_on_c, 0, 54, 0
1, 251936, Note_on_c, 0, 57, 0
1, 251936, Note_on_c, 0, 51, 0
1, 251939, Note_on_c, 0, 60, 0
1, 251939, Note_on_c, 0, 34, 98
1, 251976, Control_c, 0, 64, 0
1, 251976, Control_c, 0, 64, 0
1, 252105, Control_c, 0, 64, 127
1, 252105, Control_c, 0, 64, 127
1, 252144, Note_on_c, 0, 65, 62
1, 252144, Note_on_c, 0, 68, 73
1, 252144, Note_on_c, 0, 50, 55
1, 252147, Note_on_c, 0, 53, 55
1, 252147, Note_on_c, 0, 56, 55
1, 252147, Note_on_c, 0, 59, 66
1, 252150, Note_on_c, 0, 62, 56
1, 252288, Note_on_c, 0, 68, 0
1, 252288, Note_on_c, 0, 65, 0
1, 252288, Note_on_c, 0, 65, 62
1, 252291, Note_on_c, 0, 50, 0
1, 252291, Note_on_c, 0, 53, 0
1, 252291, Note_on_c, 0, 68, 74
1, 252294, Note_on_c, 0, 62, 0
1, 252294, Note_on_c, 0, 59, 0
1, 252294, Note_on_c, 0, 56, 0
1, 252297, Note_on_c, 0, 50, 58
1, 252297, Note_on_c, 0, 53, 58
1, 252297, Note_on_c, 0, 56, 58
1, 252300, Note_on_c, 0, 59, 69
1, 252300, Note_on_c, 0, 62, 58
1, 252324, Note_on_c, 0, 74, 0
1, 252324, Note_on_c, 0, 77, 108
1, 252449, Note_on_c, 0, 68, 0
1, 252449, Note_on_c, 0, 65, 0
1, 252449, Note_on_c, 0, 65, 64
1, 252452, Note_on_c, 0, 77, 0
1, 252452, Note_on_c, 0, 68, 76
1, 252452, Note_on_c, 0, 80, 115
1, 252455, Note_on_c, 0, 50, 0
1, 252455, Note_on_c, 0, 56, 0
1, 252455, Note_on_c, 0, 53, 0
1, 252458, Note_on_c, 0, 62, 0
1, 252458, Note_on_c, 0, 59, 0
1, 252458, Note_on_c, 0, 50, 59
1, 252461, Note_on_c, 0, 53, 59
1, 252461, Note_on_c, 0, 56, 59
1, 252461, Note_on_c, 0, 59, 71
1, 252464, Note_on_c, 0, 62, 59
1, 252615, Note_on_c, 0, 68, 0
1, 252615, Note_on_c, 0, 65, 0
1, 252615, Note_on_c, 0, 65, 65
1, 252618, Note_on_c, 0, 50, 0
1, 252618, Note_on_c, 0, 53, 0
1, 252618, Note_on_c, 0, 68, 77
1, 252621, Note_on_c, 0, 56, 0
1, 252621, Note_on_c, 0, 62, 0
1, 252621, Note_on_c, 0, 59, 0
1, 252624, Note_on_c, 0, 50, 59
1, 252624, Note_on_c, 0, 53, 59
1, 252624, Note_on_c, 0, 56, 59
1, 252627, Note_on_c, 0, 59, 71
1, 252627, Note_on_c, 0, 62, 59
1, 252781, Note_on_c, 0, 68, 0
1, 252781, Note_on_c, 0, 65, 0
1, 252781, Note_on_c, 0, 65, 65
1, 252784, Note_on_c, 0, 50, 0
1, 252784, Note_on_c, 0, 53, 0
1, 252784, Note_on_c, 0, 68, 77
1, 252787, Note_on_c, 0, 62, 0
1, 252787, Note_on_c, 0, 59, 0
1, 252787, Note_on_c, 0, 56, 0
1, 252790, Note_on_c, 0, 50, 59
1, 252790, Note_on_c, 0, 53, 59
1, 252790, Note_on_c, 0, 56, 59
1, 252793, Note_on_c, 0, 59, 73
1, 252793, Note_on_c, 0, 62, 59
1, 252996, Note_on_c, 0, 80, 0
1, 252996, Note_on_c, 0, 68, 0
1, 252996, Note_on_c, 0, 65, 0
1, 252999, Note_on_c, 0, 50, 0
1, 252999, Note_on_c, 0, 53, 0
1, 252999, Note_on_c, 0, 79, 113
1, 253002, Note_on_c, 0, 59, 0
1, 253002, Note_on_c, 0, 56, 0
1, 253002, Note_on_c, 0, 62, 0
1, 253005, Note_on_c, 0, 34, 0
1, 253005, Note_on_c, 0, 27, 108
1, 253031, Control_c, 0, 64, 0
1, 253031, Control_c, 0, 64, 0
1, 253136, Control_c, 0, 64, 127
1, 253136, Control_c, 0, 64, 127
1, 253210, Note_on_c, 0, 67, 73
1, 253210, Note_on_c, 0, 70, 86
1, 253210, Note_on_c, 0, 52, 58
1, 253213, Note_on_c, 0, 55, 71
1, 253213, Note_on_c, 0, 58, 58
1, 253213, Note_on_c, 0, 61, 71
1, 253216, Note_on_c, 0, 64, 58
1, 253353, Note_on_c, 0, 70, 0
1, 253353, Note_on_c, 0, 67, 0
1, 253353, Note_on_c, 0, 67, 74
1, 253356, Note_on_c, 0, 52, 0
1, 253356, Note_on_c, 0, 55, 0
1, 253356, Note_on_c, 0, 70, 89
1, 253359, Note_on_c, 0, 64, 0
1, 253359, Note_on_c, 0, 61, 0
1, 253359, Note_on_c, 0, 58, 0
1, 253362, Note_on_c, 0, 52, 58
1, 253362, Note_on_c, 0, 55, 73
1, 253362, Note_on_c, 0, 58, 58
1, 253365, Note_on_c, 0, 61, 73
1, 253365, Note_on_c, 0, 64, 58
1, 253390, Note_on_c, 0, 79, 0
1, 253390, Note_on_c, 0, 82, 117
1, 253514, Note_on_c, 0, 70, 0
1, 253514, Note_on_c, 0, 67, 0
1, 253514, Note_on_c, 0, 67, 74
1, 253517, Note_on_c, 0, 52, 0
1, 253517, Note_on_c, 0, 55, 0
1, 253517, Note_on_c, 0, 70, 89
1, 253520, Note_on_c, 0, 61, 0
1, 253520, Note_on_c, 0, 64, 0
1, 253520, Note_on_c, 0, 58, 0
1, 253523, Note_on_c, 0, 52, 59
1, 253523, Note_on_c, 0, 55, 74
1, 253523, Note_on_c, 0, 58, 59
1, 253526, Note_on_c, 0, 61, 74
1, 253526, Note_on_c, 0, 64, 59
1, 253568, Note_on_c, 0, 82, 0
1, 253568, Note_on_c, 0, 85, 117
1, 253659, Note_on_c, 0, 70, 0
1, 253659, Note_on_c, 0, 67, 0
1, 253659, Note_on_c, 0, 67, 77
1, 253662, Note_on_c, 0, 52, 0
1, 253662, Note_on_c, 0, 55, 0
1, 253662, Note_on_c, 0, 70, 89
1, 253665, Note_on_c, 0, 61, 0
1, 253665, Note_on_c, 0, 64, 0
1, 253665, Note_on_c, 0, 58, 0
1, 253668, Note_on_c, 0, 52, 59
1, 253668, Note_on_c, 0, 55, 74
1, 253668, Note_on_c, 0, 58, 59
1, 253671, Note_on_c, 0, 61, 74
1, 253671, Note_on_c, 0, 64, 59
1, 253802, Note_on_c, 0, 70, 0
1, 253802, Note_on_c, 0, 67, 0
1, 253802, Note_on_c, 0, 67, 77
1, 253805, Note_on_c, 0, 52, 0
1, 253805, Note_on_c, 0, 55, 0
1, 253805, Note_on_c, 0, 70, 92
1, 253808, Note_on_c, 0, 64, 0
1, 253808, Note_on_c, 0, 61, 0
1, 253808, Note_on_c, 0, 58, 0
1, 253811, Note_on_c, 0, 52, 61
1, 253811, Note_on_c, 0, 55, 77
1, 253811, Note_on_c, 0, 58, 61
1, 253814, Note_on_c, 0, 61, 77
1, 253814, Note_on_c, 0, 64, 61
1, 254017, Note_on_c, 0, 52, 0
1, 254017, Note_on_c, 0, 70, 0
1, 254017, Note_on_c, 0, 67, 0
1, 254020, Note_on_c, 0, 55, 0
1, 254020, Note_on_c, 0, 61, 0
1, 254020, Note_on_c, 0, 58, 0
1, 254023, Note_on_c, 0, 27, 0
1, 254023, Note_on_c, 0, 64, 0
1, 254023, Note_on_c, 0, 32, 103
1, 254074, Control_c, 0, 64, 0
1, 254074, Control_c, 0, 64, 0
1, 254231, Note_on_c, 0, 66, 75
1, 254231, Note_on_c, 0, 68, 91
1, 254231, Note_on_c, 0, 51, 62
1, 254234, Note_on_c, 0, 56, 77
1, 254234, Note_on_c, 0, 60, 62
1, 254234, Note_on_c, 0, 63, 77
1, 254253, Control_c, 0, 64, 127
1, 254253, Control_c, 0, 64, 127
1, 254397, Note_on_c, 0, 68, 0
1, 254397, Note_on_c, 0, 66, 0
1, 254397, Note_on_c, 0, 66, 75
1, 254400, Note_on_c, 0, 51, 0
1, 254400, Note_on_c, 0, 56, 0
1, 254400, Note_on_c, 0, 68, 92
1, 254403, Note_on_c, 0, 60, 0
1, 254403, Note_on_c, 0, 63, 0
1, 254403, Note_on_c, 0, 51, 62
1, 254406, Note_on_c, 0, 56, 80
1, 254406, Note_on_c, 0, 60, 62
1, 254406, Note_on_c, 0, 63, 80
1, 254563, Note_on_c, 0, 66, 0
1, 254563, Note_on_c, 0, 68, 0
1, 254563, Note_on_c, 0, 66, 77
1, 254566, Note_on_c, 0, 51, 0
1, 254566, Note_on_c, 0, 56, 0
1, 254566, Note_on_c, 0, 68, 94
1, 254569, Note_on_c, 0, 60, 0
1, 254569, Note_on_c, 0, 63, 0
1, 254569, Note_on_c, 0, 51, 64
1, 254572, Note_on_c, 0, 56, 81
1, 254572, Note_on_c, 0, 60, 64
1, 254572, Note_on_c, 0, 63, 81
1, 254634, Note_on_c, 0, 85, 0
1, 254634, Note_on_c, 0, 84, 117
1, 254768, Note_on_c, 0, 66, 0
1, 254768, Note_on_c, 0, 68, 0
1, 254768, Note_on_c, 0, 66, 79
1, 254771, Note_on_c, 0, 51, 0
1, 254771, Note_on_c, 0, 56, 0
1, 254771, Note_on_c, 0, 68, 96
1, 254774, Note_on_c, 0, 60, 0
1, 254774, Note_on_c, 0, 63, 0
1, 254774, Note_on_c, 0, 51, 65
1, 254777, Note_on_c, 0, 56, 82
1, 254777, Note_on_c, 0, 60, 65
1, 254777, Note_on_c, 0, 63, 82
1, 254981, Note_on_c, 0, 66, 0
1, 254981, Note_on_c, 0, 68, 0
1, 254981, Note_on_c, 0, 66, 80
1, 254984, Note_on_c, 0, 51, 0
1, 254984, Note_on_c, 0, 56, 0
1, 254984, Note_on_c, 0, 68, 99
1, 254987, Note_on_c, 0, 60, 0
1, 254987, Note_on_c, 0, 63, 0
1, 254987, Note_on_c, 0, 51, 65
1, 254990, Note_on_c, 0, 56, 84
1, 254990, Note_on_c, 0, 60, 65
1, 254990, Note_on_c, 0, 63, 84
1, 255281, Control_c, 0, 64, 127
1, 255281, Control_c, 0, 64, 0
1, 255281, Control_c, 0, 64, 0
1, 255284, Note_on_c, 0, 84, 0
1, 255284, Note_on_c, 0, 66, 0
1, 255284, Note_on_c, 0, 68, 0
1, 255287, Note_on_c, 0, 61, 116
1, 255287, Control_c, 0, 64, 127
1, 255287, Control_c, 0, 64, 0
1, 255290, Note_on_c, 0, 51, 0
1, 255290, Control_c, 0, 64, 0
1, 255290, Control_c, 0, 64, 0
1, 255293, Note_on_c, 0, 56, 0
1, 255293, Note_on_c, 0, 63, 0
1, 255293, Note_on_c, 0, 60, 0
1, 255296, Note_on_c, 0, 32, 0
1, 255296, Note_on_c, 0, 37, 93
1, 255296, Note_on_c, 0, 49, 105
1, 255363, Control_c, 0, 64, 0
1, 255363, Control_c, 0, 64, 0
1, 255471, Control_c, 0, 64, 127
1, 255471, Control_c, 0, 64, 127
1, 255531, Note_on_c, 0, 64, 65
1, 255531, Note_on_c, 0, 68, 65
1, 255531, Note_on_c, 0, 73, 73
1, 255534, Note_on_c, 0, 52, 65
1, 255534, Note_on_c, 0, 56, 65
1, 255534, Note_on_c, 0, 61, 73
1, 255744, Note_on_c, 0, 73, 0
1, 255744, Note_on_c, 0, 64, 0
1, 255744, Note_on_c, 0, 68, 0
1, 255747, Note_on_c, 0, 64, 69
1, 255747, Note_on_c, 0, 68, 69
1, 255747, Note_on_c, 0, 73, 78
1, 255750, Note_on_c, 0, 56, 0
1, 255750, Note_on_c, 0, 61, 0
1, 255750, Note_on_c, 0, 52, 0
1, 255753, Note_on_c, 0, 52, 70
1, 255753, Note_on_c, 0, 56, 70
1, 255753, Note_on_c, 0, 61, 80
1, 255932, Note_on_c, 0, 68, 0
1, 255932, Note_on_c, 0, 73, 0
1, 255932, Note_on_c, 0, 64, 0
1, 255935, Note_on_c, 0, 64, 75
1, 255935, Note_on_c, 0, 68, 76
1, 255935, Note_on_c, 0, 73, 89
1, 255938, Note_on_c, 0, 56, 0
1, 255938, Note_on_c, 0, 61, 0
1, 255938, Note_on_c, 0, 52, 0
1, 255941, Note_on_c, 0, 52, 79
1, 255941, Note_on_c, 0, 56, 80
1, 255941, Note_on_c, 0, 61, 93
1, 256098, Note_on_c, 0, 68, 0
1, 256098, Note_on_c, 0, 73, 0
1, 256098, Note_on_c, 0, 64, 0
1, 256101, Note_on_c, 0, 64, 79
1, 256101, Note_on_c, 0, 68, 79
1, 256101, Note_on_c, 0, 73, 91
1, 256104, Note_on_c, 0, 56, 0
1, 256104, Note_on_c, 0, 61, 0
1, 256104, Note_on_c, 0, 52, 0
1, 256107, Note_on_c, 0, 52, 85
1, 256107, Note_on_c, 0, 56, 85
1, 256107, Note_on_c, 0, 61, 98
1, 256242, Note_on_c, 0, 68, 0
1, 256242, Note_on_c, 0, 73, 0
1, 256242, Note_on_c, 0, 64, 0
1, 256245, Note_on_c, 0, 64, 84
1, 256245, Note_on_c, 0, 68, 84
1, 256245, Note_on_c, 0, 73, 96
1, 256248, Note_on_c, 0, 56, 0
1, 256248, Note_on_c, 0, 61, 0
1, 256248, Note_on_c, 0, 52, 0
1, 256251, Note_on_c, 0, 52, 93
1, 256251, Note_on_c, 0, 56, 93
1, 256251, Note_on_c, 0, 61, 107
1, 256386, Note_on_c, 0, 68, 0
1, 256386, Note_on_c, 0, 73, 0
1, 256386, Note_on_c, 0, 64, 0
1, 256389, Note_on_c, 0, 56, 0
1, 256389, Note_on_c, 0, 52, 0
1, 256389, Note_on_c, 0, 63, 116
1, 256392, Note_on_c, 0, 61, 0
1, 256392, Note_on_c, 0, 39, 93
1, 256392, Note_on_c, 0, 51, 105
1, 256411, Note_on_c, 0, 49, 0
1, 256411, Note_on_c, 0, 37, 0
1, 256424, Note_on_c, 0, 61, 0
1, 256432, Control_c, 0, 64, 0
1, 256432, Control_c, 0, 64, 0
1, 256562, Control_c, 0, 64, 127
1, 256562, Control_c, 0, 64, 127
1, 256600, Note_on_c, 0, 66, 65
1, 256600, Note_on_c, 0, 68, 65
1, 256600, Note_on_c, 0, 73, 73
1, 256603, Note_on_c, 0, 54, 65
1, 256603, Note_on_c, 0, 56, 65
1, 256603, Note_on_c, 0, 61, 73
1, 256766, Note_on_c, 0, 73, 0
1, 256766, Note_on_c, 0, 66, 0
1, 256766, Note_on_c, 0, 68, 0
1, 256769, Note_on_c, 0, 66, 70
1, 256769, Note_on_c, 0, 68, 70
1, 256769, Note_on_c, 0, 73, 80
1, 256772, Note_on_c, 0, 56, 0
1, 256772, Note_on_c, 0, 61, 0
1, 256772, Note_on_c, 0, 54, 0
1, 256775, Note_on_c, 0, 54, 69
1, 256775, Note_on_c, 0, 56, 69
1, 256775, Note_on_c, 0, 61, 79
1, 256903, Note_on_c, 0, 68, 0
1, 256903, Note_on_c, 0, 73, 0
1, 256903, Note_on_c, 0, 66, 0
1, 256906, Note_on_c, 0, 66, 78
1, 256906, Note_on_c, 0, 68, 79
1, 256906, Note_on_c, 0, 73, 92
1, 256909, Note_on_c, 0, 56, 0
1, 256909, Note_on_c, 0, 61, 0
1, 256909, Note_on_c, 0, 54, 0
1, 256912, Note_on_c, 0, 54, 78
1, 256912, Note_on_c, 0, 56, 79
1, 256912, Note_on_c, 0, 61, 92
1, 257039, Note_on_c, 0, 68, 0
1, 257039, Note_on_c, 0, 73, 0
1, 257039, Note_on_c, 0, 66, 0
1, 257042, Note_on_c, 0, 66, 83
1, 257042, Note_on_c, 0, 68, 83
1, 257042, Note_on_c, 0, 73, 96
1, 257045, Note_on_c, 0, 56, 0
1, 257045, Note_on_c, 0, 61, 0
1, 257045, Note_on_c, 0, 54, 0
1, 257048, Note_on_c, 0, 54, 83
1, 257048, Note_on_c, 0, 56, 83
1, 257048, Note_on_c, 0, 61, 96
1, 257175, Note_on_c, 0, 68, 0
1, 257175, Note_on_c, 0, 73, 0
1, 257175, Note_on_c, 0, 66, 0
1, 257178, Note_on_c, 0, 66, 91
1, 257178, Note_on_c, 0, 68, 91
1, 257178, Note_on_c, 0, 73, 104
1, 257181, Note_on_c, 0, 56, 0
1, 257181, Note_on_c, 0, 61, 0
1, 257181, Note_on_c, 0, 54, 0
1, 257184, Note_on_c, 0, 54, 90
1, 257184, Note_on_c, 0, 56, 90
1, 257184, Note_on_c, 0, 61, 104
1, 257238, Note_on_c, 0, 39, 0
1, 257238, Note_on_c, 0, 63, 0
1, 257238, Note_on_c, 0, 63, 116
1, 257241, Note_on_c, 0, 51, 0
1, 257241, Note_on_c, 0, 39, 93
1, 257241, Note_on_c, 0, 51, 105
1, 257324, Control_c, 0, 64, 0
1, 257324, Control_c, 0, 64, 0
1, 257362, Note_on_c, 0, 73, 0
1, 257362, Note_on_c, 0, 66, 0
1, 257362, Note_on_c, 0, 68, 0
1, 257365, Note_on_c, 0, 56, 0
1, 257365, Note_on_c, 0, 54, 0
1, 257365, Note_on_c, 0, 68, 107
1, 257368, Note_on_c, 0, 61, 0
1, 257368, Note_on_c, 0, 44, 93
1, 257368, Note_on_c, 0, 56, 105
1, 257392, Note_on_c, 0, 39, 0
1, 257392, Note_on_c, 0, 51, 0
1, 257406, Note_on_c, 0, 63, 0
1, 257526, Control_c, 0, 64, 127
1, 257526, Control_c, 0, 64, 127
1, 257612, Note_on_c, 0, 64, 68
1, 257612, Note_on_c, 0, 68, 68
1, 257612, Note_on_c, 0, 73, 77
1, 257615, Note_on_c, 0, 52, 68
1, 257615, Note_on_c, 0, 56, 68
1, 257615, Note_on_c, 0, 61, 77
1, 257748, Note_on_c, 0, 73, 0
1, 257748, Note_on_c, 0, 68, 0
1, 257748, Note_on_c, 0, 64, 0
1, 257751, Note_on_c, 0, 64, 70
1, 257751, Note_on_c, 0, 68, 70
1, 257751, Note_on_c, 0, 73, 80
1, 257754, Note_on_c, 0, 56, 0
1, 257754, Note_on_c, 0, 61, 0
1, 257754, Note_on_c, 0, 52, 0
1, 257757, Note_on_c, 0, 52, 70
1, 257757, Note_on_c, 0, 56, 70
1, 257757, Note_on_c, 0, 61, 80
1, 257884, Note_on_c, 0, 73, 0
1, 257884, Note_on_c, 0, 68, 0
1, 257884, Note_on_c, 0, 64, 0
1, 257887, Note_on_c, 0, 56, 0
1, 257887, Note_on_c, 0, 52, 0
1, 257887, Note_on_c, 0, 61, 116
1, 257890, Note_on_c, 0, 61, 0
1, 257890, Note_on_c, 0, 37, 93
1, 257890, Note_on_c, 0, 49, 105
1, 257910, Note_on_c, 0, 56, 0
1, 257910, Note_on_c, 0, 44, 0
1, 257922, Note_on_c, 0, 68, 0
1, 258099, Note_on_c, 0, 64, 77
1, 258099, Note_on_c, 0, 68, 77
1, 258099, Note_on_c, 0, 73, 88
1, 258102, Note_on_c, 0, 52, 77
1, 258102, Note_on_c, 0, 56, 77
1, 258102, Note_on_c, 0, 61, 88
1, 258265, Note_on_c, 0, 73, 0
1, 258265, Note_on_c, 0, 64, 0
1, 258265, Note_on_c, 0, 68, 0
1, 258268, Note_on_c, 0, 64, 79
1, 258268, Note_on_c, 0, 68, 79
1, 258268, Note_on_c, 0, 73, 90
1, 258271, Note_on_c, 0, 56, 0
1, 258271, Note_on_c, 0, 61, 0
1, 258271, Note_on_c, 0, 52, 0
1, 258274, Note_on_c, 0, 52, 79
1, 258274, Note_on_c, 0, 56, 79
1, 258274, Note_on_c, 0, 61, 90
1, 258375, Control_c, 0, 64, 127
1, 258375, Control_c, 0, 64, 127
1, 258431, Note_on_c, 0, 68, 0
1, 258431, Note_on_c, 0, 73, 0
1, 258431, Note_on_c, 0, 64, 0
1, 258434, Note_on_c, 0, 64, 83
1, 258434, Note_on_c, 0, 68, 84
1, 258434, Note_on_c, 0, 73, 97
1, 258437, Note_on_c, 0, 56, 0
1, 258437, Note_on_c, 0, 61, 0
1, 258437, Note_on_c, 0, 52, 0
1, 258440, Note_on_c, 0, 52, 83
1, 258440, Note_on_c, 0, 56, 84
1, 258440, Note_on_c, 0, 61, 97
1, 258568, Note_on_c, 0, 68, 0
1, 258568, Note_on_c, 0, 73, 0
1, 258568, Note_on_c, 0, 64, 0
1, 258571, Note_on_c, 0, 64, 84
1, 258571, Note_on_c, 0, 68, 84
1, 258571, Note_on_c, 0, 73, 97
1, 258574, Note_on_c, 0, 56, 0
1, 258574, Note_on_c, 0, 61, 0
1, 258574, Note_on_c, 0, 52, 0
1, 258577, Note_on_c, 0, 52, 84
1, 258577, Note_on_c, 0, 56, 84
1, 258577, Note_on_c, 0, 61, 97
1, 258703, Note_on_c, 0, 68, 0
1, 258703, Note_on_c, 0, 73, 0
1, 258703, Note_on_c, 0, 64, 0
1, 258706, Note_on_c, 0, 64, 88
1, 258706, Note_on_c, 0, 68, 88
1, 258706, Note_on_c, 0, 73, 101
1, 258709, Note_on_c, 0, 56, 0
1, 258709, Note_on_c, 0, 61, 0
1, 258709, Note_on_c, 0, 52, 0
1, 258712, Note_on_c, 0, 52, 88
1, 258712, Note_on_c, 0, 56, 88
1, 258712, Note_on_c, 0, 61, 101
1, 258832, Control_c, 0, 64, 0
1, 258832, Control_c, 0, 64, 0
1, 258840, Note_on_c, 0, 68, 0
1, 258840, Note_on_c, 0, 73, 0
1, 258840, Note_on_c, 0, 64, 0
1, 258843, Note_on_c, 0, 56, 0
1, 258843, Note_on_c, 0, 52, 0
1, 258843, Note_on_c, 0, 64, 116
1, 258846, Note_on_c, 0, 61, 0
1, 258846, Note_on_c, 0, 40, 93
1, 258846, Note_on_c, 0, 52, 105
1, 258869, Note_on_c, 0, 37, 0
1, 258869, Note_on_c, 0, 49, 0
1, 258884, Note_on_c, 0, 61, 0
1, 258952, Control_c, 0, 64, 127
1, 258952, Control_c, 0, 64, 127
1, 259090, Note_on_c, 0, 62, 75
1, 259090, Note_on_c, 0, 68, 75
1, 259090, Note_on_c, 0, 71, 84
1, 259093, Note_on_c, 0, 52, 75
1, 259093, Note_on_c, 0, 56, 75
1, 259093, Note_on_c, 0, 59, 84
1, 259276, Note_on_c, 0, 71, 0
1, 259276, Note_on_c, 0, 62, 0
1, 259276, Note_on_c, 0, 68, 0
1, 259279, Note_on_c, 0, 62, 75
1, 259279, Note_on_c, 0, 68, 75
1, 259279, Note_on_c, 0, 71, 84
1, 259282, Note_on_c, 0, 56, 0
1, 259282, Note_on_c, 0, 59, 0
1, 259282, Note_on_c, 0, 52, 0
1, 259285, Note_on_c, 0, 52, 75
1, 259285, Note_on_c, 0, 56, 75
1, 259285, Note_on_c, 0, 59, 84
1, 259330, Note_on_c, 0, 59, 116
1, 259330, Note_on_c, 0, 35, 93
1, 259330, Note_on_c, 0, 47, 105
1, 259352, Note_on_c, 0, 52, 0
1, 259352, Note_on_c, 0, 40, 0
1, 259363, Note_on_c, 0, 64, 0
1, 259471, Control_c, 0, 64, 127
1, 259471, Control_c, 0, 64, 0
1, 259471, Control_c, 0, 64, 0
1, 259474, Note_on_c, 0, 62, 0
1, 259474, Note_on_c, 0, 68, 0
1, 259474, Control_c, 0, 64, 0
1, 259477, Note_on_c, 0, 71, 0
1, 259477, Note_on_c, 0, 57, 110
1, 259477, Control_c, 0, 64, 127
1, 259480, Control_c, 0, 64, 0
1, 259480, Control_c, 0, 64, 0
1, 259480, Control_c, 0, 64, 0
1, 259483, Note_on_c, 0, 56, 0
1, 259483, Note_on_c, 0, 52, 0
1, 259483, Control_c, 0, 64, 0
1, 259486, Note_on_c, 0, 59, 0
1, 259486, Note_on_c, 0, 33, 98
1, 259486, Note_on_c, 0, 45, 110
1, 259506, Note_on_c, 0, 35, 0
1, 259506, Note_on_c, 0, 47, 0
1, 259523, Note_on_c, 0, 59, 0
1, 259569, Control_c, 0, 64, 0
1, 259569, Control_c, 0, 64, 0
1, 259699, Control_c, 0, 64, 127
1, 259699, Control_c, 0, 64, 127
1, 259771, Note_on_c, 0, 69, 117
1, 259771, Note_on_c, 0, 57, 113
1, 260069, Note_on_c, 0, 57, 0
1, 260069, Note_on_c, 0, 61, 68
1, 260069, Note_on_c, 0, 64, 77
1, 260072, Note_on_c, 0, 33, 0
1, 260072, Note_on_c, 0, 45, 0
1, 260072, Note_on_c, 0, 45, 68
1, 260075, Note_on_c, 0, 52, 77
1, 260283, Note_on_c, 0, 61, 0
1, 260283, Note_on_c, 0, 64, 0
1, 260283, Note_on_c, 0, 61, 72
1, 260286, Note_on_c, 0, 45, 0
1, 260286, Note_on_c, 0, 52, 0
1, 260286, Note_on_c, 0, 64, 81
1, 260289, Note_on_c, 0, 45, 70
1, 260289, Note_on_c, 0, 52, 80
1, 260450, Note_on_c, 0, 64, 0
1, 260450, Note_on_c, 0, 61, 0
1, 260450, Note_on_c, 0, 61, 75
1, 260453, Note_on_c, 0, 45, 0
1, 260453, Note_on_c, 0, 52, 0
1, 260453, Note_on_c, 0, 64, 86
1, 260456, Note_on_c, 0, 45, 73
1, 260456, Note_on_c, 0, 52, 83
1, 260616, Note_on_c, 0, 64, 0
1, 260616, Note_on_c, 0, 61, 0
1, 260616, Note_on_c, 0, 61, 79
1, 260619, Note_on_c, 0, 45, 0
1, 260619, Note_on_c, 0, 52, 0
1, 260619, Note_on_c, 0, 64, 90
1, 260622, Note_on_c, 0, 45, 75
1, 260622, Note_on_c, 0, 52, 86
1, 260783, Note_on_c, 0, 64, 0
1, 260783, Note_on_c, 0, 61, 0
1, 260783, Note_on_c, 0, 71, 110
1, 260786, Note_on_c, 0, 45, 0
1, 260786, Note_on_c, 0, 52, 0
1, 260786, Note_on_c, 0, 59, 110
1, 260805, Note_on_c, 0, 69, 0
1, 260805, Note_on_c, 0, 57, 0
1, 260823, Control_c, 0, 64, 0
1, 260823, Control_c, 0, 64, 0
1, 260936, Control_c, 0, 64, 127
1, 260936, Control_c, 0, 64, 127
1, 260970, Note_on_c, 0, 62, 72
1, 260970, Note_on_c, 0, 64, 72
1, 260970, Note_on_c, 0, 68, 81
1, 260973, Note_on_c, 0, 45, 68
1, 260973, Note_on_c, 0, 52, 77
1, 261114, Note_on_c, 0, 68, 0
1, 261114, Note_on_c, 0, 64, 0
1, 261114, Note_on_c, 0, 62, 0
1, 261117, Note_on_c, 0, 62, 74
1, 261117, Note_on_c, 0, 64, 74
1, 261117, Note_on_c, 0, 68, 84
1, 261120, Note_on_c, 0, 45, 0
1, 261120, Note_on_c, 0, 52, 0
1, 261120, Note_on_c, 0, 45, 71
1, 261123, Note_on_c, 0, 52, 81
1, 261258, Note_on_c, 0, 64, 0
1, 261258, Note_on_c, 0, 62, 0
1, 261258, Note_on_c, 0, 68, 0
1, 261261, Note_on_c, 0, 62, 76
1, 261261, Note_on_c, 0, 64, 76
1, 261261, Note_on_c, 0, 68, 87
1, 261264, Note_on_c, 0, 52, 0
1, 261264, Note_on_c, 0, 45, 0
1, 261264, Note_on_c, 0, 45, 74
1, 261267, Note_on_c, 0, 52, 85
1, 261402, Note_on_c, 0, 64, 0
1, 261402, Note_on_c, 0, 62, 0
1, 261402, Note_on_c, 0, 68, 0
1, 261405, Note_on_c, 0, 62, 78
1, 261405, Note_on_c, 0, 64, 78
1, 261405, Note_on_c, 0, 68, 90
1, 261408, Note_on_c, 0, 52, 0
1, 261408, Note_on_c, 0, 45, 0
1, 261408, Note_on_c, 0, 45, 77
1, 261411, Note_on_c, 0, 52, 88
1, 261546, Note_on_c, 0, 64, 0
1, 261546, Note_on_c, 0, 62, 0
1, 261546, Note_on_c, 0, 68, 0
1, 261549, Note_on_c, 0, 62, 80
1, 261549, Note_on_c, 0, 64, 80
1, 261549, Note_on_c, 0, 68, 92
1, 261552, Note_on_c, 0, 52, 0
1, 261552, Note_on_c, 0, 45, 0
1, 261552, Note_on_c, 0, 45, 80
1, 261555, Note_on_c, 0, 52, 92
1, 261608, Note_on_c, 0, 71, 0
1, 261608, Note_on_c, 0, 59, 0
1, 261608, Note_on_c, 0, 71, 110
1, 261611, Note_on_c, 0, 59, 110
1, 261695, Control_c, 0, 64, 0
1, 261695, Control_c, 0, 64, 0
1, 261733, Note_on_c, 0, 62, 0
1, 261733, Note_on_c, 0, 64, 0
1, 261733, Note_on_c, 0, 76, 115
1, 261736, Note_on_c, 0, 45, 0
1, 261736, Note_on_c, 0, 68, 0
1, 261736, Note_on_c, 0, 64, 110
1, 261739, Note_on_c, 0, 52, 0
1, 261763, Note_on_c, 0, 71, 0
1, 261763, Note_on_c, 0, 59, 0
1, 261897, Control_c, 0, 64, 127
1, 261897, Control_c, 0, 64, 127
1, 261983, Note_on_c, 0, 61, 68
1, 261983, Note_on_c, 0, 64, 77
1, 261983, Note_on_c, 0, 45, 77
1, 261986, Note_on_c, 0, 52, 86
1, 262149, Note_on_c, 0, 64, 0
1, 262149, Note_on_c, 0, 61, 0
1, 262149, Note_on_c, 0, 61, 68
1, 262152, Note_on_c, 0, 45, 0
1, 262152, Note_on_c, 0, 52, 0
1, 262152, Note_on_c, 0, 64, 77
1, 262155, Note_on_c, 0, 45, 77
1, 262155, Note_on_c, 0, 52, 86
1, 262316, Note_on_c, 0, 64, 0
1, 262316, Note_on_c, 0, 61, 0
1, 262316, Note_on_c, 0, 69, 110
1, 262319, Note_on_c, 0, 45, 0
1, 262319, Note_on_c, 0, 52, 0
1, 262319, Note_on_c, 0, 57, 110
1, 262335, Note_on_c, 0, 64, 0
1, 262335, Note_on_c, 0, 76, 0
1, 262483, Note_on_c, 0, 61, 68
1, 262483, Note_on_c, 0, 64, 77
1, 262483, Note_on_c, 0, 45, 68
1, 262486, Note_on_c, 0, 52, 77
1, 262648, Note_on_c, 0, 64, 0
1, 262648, Note_on_c, 0, 61, 0
1, 262648, Note_on_c, 0, 61, 70
1, 262651, Note_on_c, 0, 45, 0
1, 262651, Note_on_c, 0, 52, 0
1, 262651, Note_on_c, 0, 64, 80
1, 262654, Note_on_c, 0, 45, 70
1, 262654, Note_on_c, 0, 52, 79
1, 262744, Control_c, 0, 64, 127
1, 262744, Control_c, 0, 64, 127
1, 262793, Note_on_c, 0, 64, 0
1, 262793, Note_on_c, 0, 61, 0
1, 262793, Note_on_c, 0, 61, 73
1, 262796, Note_on_c, 0, 45, 0
1, 262796, Note_on_c, 0, 52, 0
1, 262796, Note_on_c, 0, 64, 83
1, 262799, Note_on_c, 0, 45, 72
1, 262799, Note_on_c, 0, 52, 81
1, 262937, Note_on_c, 0, 64, 0
1, 262937, Note_on_c, 0, 61, 0
1, 262937, Note_on_c, 0, 61, 75
1, 262940, Note_on_c, 0, 45, 0
1, 262940, Note_on_c, 0, 52, 0
1, 262940, Note_on_c, 0, 64, 85
1, 262943, Note_on_c, 0, 45, 73
1, 262943, Note_on_c, 0, 52, 84
1, 263080, Note_on_c, 0, 64, 0
1, 263080, Note_on_c, 0, 61, 0
1, 263080, Note_on_c, 0, 61, 77
1, 263083, Note_on_c, 0, 45, 0
1, 263083, Note_on_c, 0, 52, 0
1, 263083, Note_on_c, 0, 64, 88
1, 263086, Note_on_c, 0, 45, 75
1, 263086, Note_on_c, 0, 52, 86
1, 263282, Control_c, 0, 64, 0
1, 263282, Control_c, 0, 64, 0
1, 263295, Note_on_c, 0, 64, 0
1, 263295, Note_on_c, 0, 61, 0
1, 263295, Note_on_c, 0, 56, 110
1, 263298, Note_on_c, 0, 45, 0
1, 263298, Note_on_c, 0, 52, 0
1, 263298, Note_on_c, 0, 44, 110
1, 263320, Note_on_c, 0, 57, 0
1, 263320, Note_on_c, 0, 69, 0
1, 263391, Control_c, 0, 64, 127
1, 263391, Control_c, 0, 64, 127
1, 263509, Note_on_c, 0, 60, 77
1, 263509, Note_on_c, 0, 63, 86
1, 263509, Note_on_c, 0, 48, 69
1, 263512, Note_on_c, 0, 51, 77
1, 263675, Note_on_c, 0, 63, 0
1, 263675, Note_on_c, 0, 60, 0
1, 263675, Note_on_c, 0, 60, 77
1, 263678, Note_on_c, 0, 48, 0
1, 263678, Note_on_c, 0, 51, 0
1, 263678, Note_on_c, 0, 63, 86
1, 263681, Note_on_c, 0, 48, 69
1, 263681, Note_on_c, 0, 51, 77
1, 263738, Note_on_c, 0, 54, 110
1, 263738, Note_on_c, 0, 42, 110
1, 263757, Note_on_c, 0, 44, 0
1, 263757, Note_on_c, 0, 56, 0
1, 263862, Note_on_c, 0, 63, 0
1, 263862, Note_on_c, 0, 60, 0
1, 263862, Control_c, 0, 64, 127
1, 263865, Note_on_c, 0, 52, 110
1, 263865, Control_c, 0, 64, 127
1, 263865, Control_c, 0, 64, 0
1, 263868, Note_on_c, 0, 48, 0
1, 263868, Note_on_c, 0, 51, 0
1, 263868, Note_on_c, 0, 40, 103
1, 263882, Note_on_c, 0, 42, 0
1, 263882, Note_on_c, 0, 54, 0
1, 263930, Control_c, 0, 64, 0
1, 263930, Control_c, 0, 64, 0
1, 264029, Note_on_c, 0, 61, 80
1, 264029, Note_on_c, 0, 64, 89
1, 264029, Note_on_c, 0, 49, 68
1, 264032, Control_c, 0, 64, 127
1, 264032, Note_on_c, 0, 52, 77
1, 264032, Control_c, 0, 64, 127
1, 264195, Note_on_c, 0, 64, 0
1, 264195, Note_on_c, 0, 61, 0
1, 264195, Note_on_c, 0, 61, 80
1, 264198, Note_on_c, 0, 49, 0
1, 264198, Note_on_c, 0, 52, 0
1, 264198, Note_on_c, 0, 64, 89
1, 264201, Note_on_c, 0, 49, 77
1, 264201, Note_on_c, 0, 52, 77
1, 264258, Note_on_c, 0, 54, 110
1, 264258, Note_on_c, 0, 42, 103
1, 264277, Note_on_c, 0, 40, 0
1, 264277, Note_on_c, 0, 52, 0
1, 264383, Note_on_c, 0, 64, 0
1, 264383, Note_on_c, 0, 61, 0
1, 264383, Note_on_c, 0, 56, 110
1, 264386, Note_on_c, 0, 49, 0
1, 264386, Note_on_c, 0, 52, 0
1, 264386, Note_on_c, 0, 44, 103
1, 264399, Control_c, 0, 64, 0
1, 264399, Control_c, 0, 64, 0
1, 264402, Note_on_c, 0, 42, 0
1, 264402, Note_on_c, 0, 54, 0
1, 264501, Control_c, 0, 64, 127
1, 264501, Control_c, 0, 64, 127
1, 264549, Note_on_c, 0, 61, 68
1, 264549, Note_on_c, 0, 64, 77
1, 264549, Note_on_c, 0, 49, 72
1, 264552, Note_on_c, 0, 52, 81
1, 264693, Note_on_c, 0, 64, 0
1, 264693, Note_on_c, 0, 61, 0
1, 264693, Note_on_c, 0, 61, 70
1, 264696, Note_on_c, 0, 49, 0
1, 264696, Note_on_c, 0, 52, 0
1, 264696, Note_on_c, 0, 64, 80
1, 264699, Note_on_c, 0, 49, 73
1, 264699, Note_on_c, 0, 52, 84
1, 264837, Note_on_c, 0, 64, 0
1, 264837, Note_on_c, 0, 61, 0
1, 264837, Note_on_c, 0, 61, 73
1, 264840, Note_on_c, 0, 49, 0
1, 264840, Note_on_c, 0, 52, 0
1, 264840, Note_on_c, 0, 64, 83
1, 264843, Note_on_c, 0, 49, 75
1, 264843, Note_on_c, 0, 52, 86
1, 264981, Note_on_c, 0, 64, 0
1, 264981, Note_on_c, 0, 61, 0
1, 264981, Note_on_c, 0, 61, 75
1, 264984, Note_on_c, 0, 49, 0
1, 264984, Note_on_c, 0, 52, 0
1, 264984, Note_on_c, 0, 64, 85
1, 264987, Note_on_c, 0, 49, 77
1, 264987, Note_on_c, 0, 52, 88
1, 265125, Note_on_c, 0, 64, 0
1, 265125, Note_on_c, 0, 61, 0
1, 265125, Note_on_c, 0, 61, 77
1, 265128, Note_on_c, 0, 49, 0
1, 265128, Note_on_c, 0, 52, 0
1, 265128, Note_on_c, 0, 64, 88
1, 265131, Note_on_c, 0, 49, 79
1, 265131, Note_on_c, 0, 52, 90
1, 265339, Note_on_c, 0, 64, 0
1, 265339, Note_on_c, 0, 61, 0
1, 265339, Note_on_c, 0, 64, 102
1, 265342, Note_on_c, 0, 49, 0
1, 265342, Note_on_c, 0, 52, 0
1, 265342, Note_on_c, 0, 76, 116
1, 265345, Note_on_c, 0, 40, 102
1, 265345, Note_on_c, 0, 52, 116
1, 265368, Note_on_c, 0, 44, 0
1, 265368, Note_on_c, 0, 56, 0
1, 265373, Control_c, 0, 64, 0
1, 265373, Control_c, 0, 64, 0
1, 265493, Control_c, 0, 64, 127
1, 265493, Control_c, 0, 64, 127
1, 265589, Note_on_c, 0, 68, 68
1, 265589, Note_on_c, 0, 71, 77
1, 265589, Note_on_c, 0, 59, 68
1, 265592, Note_on_c, 0, 64, 77
1, 265838, Note_on_c, 0, 71, 0
1, 265838, Note_on_c, 0, 68, 0
1, 265838, Note_on_c, 0, 68, 68
1, 265841, Note_on_c, 0, 64, 0
1, 265841, Note_on_c, 0, 59, 0
1, 265841, Note_on_c, 0, 71, 77
1, 265844, Note_on_c, 0, 59, 68
1, 265844, Note_on_c, 0, 64, 77
1, 265892, Note_on_c, 0, 66, 97
1, 265892, Note_on_c, 0, 78, 113
1, 265892, Note_on_c, 0, 42, 97
1, 265895, Note_on_c, 0, 54, 112
1, 265911, Note_on_c, 0, 40, 0
1, 265911, Note_on_c, 0, 76, 0
1, 265911, Note_on_c, 0, 64, 0
1, 265914, Note_on_c, 0, 52, 0
1, 266017, Note_on_c, 0, 68, 0
1, 266017, Note_on_c, 0, 71, 0
1, 266017, Note_on_c, 0, 68, 105
1, 266020, Note_on_c, 0, 64, 0
1, 266020, Note_on_c, 0, 59, 0
1, 266020, Note_on_c, 0, 80, 117
1, 266023, Note_on_c, 0, 44, 104
1, 266023, Note_on_c, 0, 56, 117
1, 266036, Note_on_c, 0, 66, 0
1, 266036, Note_on_c, 0, 78, 0
1, 266036, Note_on_c, 0, 42, 0
1, 266039, Note_on_c, 0, 54, 0
1, 266039, Control_c, 0, 64, 0
1, 266039, Control_c, 0, 64, 0
1, 266140, Control_c, 0, 64, 127
1, 266140, Control_c, 0, 64, 127
1, 266183, Note_on_c, 0, 68, 68
1, 266183, Note_on_c, 0, 71, 77
1, 266183, Note_on_c, 0, 59, 68
1, 266186, Note_on_c, 0, 64, 77
1, 266349, Note_on_c, 0, 71, 0
1, 266349, Note_on_c, 0, 68, 0
1, 266349, Note_on_c, 0, 68, 68
1, 266352, Note_on_c, 0, 64, 0
1, 266352, Note_on_c, 0, 59, 0
1, 266352, Note_on_c, 0, 71, 77
1, 266355, Note_on_c, 0, 59, 68
1, 266355, Note_on_c, 0, 64, 77
1, 266391, Note_on_c, 0, 68, 0
1, 266391, Note_on_c, 0, 69, 101
1, 266391, Note_on_c, 0, 81, 117
1, 266394, Note_on_c, 0, 45, 100
1, 266394, Note_on_c, 0, 57, 115
1, 266410, Note_on_c, 0, 56, 0
1, 266410, Note_on_c, 0, 80, 0
1, 266410, Note_on_c, 0, 44, 0
1, 266516, Note_on_c, 0, 68, 0
1, 266516, Note_on_c, 0, 71, 0
1, 266516, Note_on_c, 0, 71, 111
1, 266519, Note_on_c, 0, 64, 0
1, 266519, Note_on_c, 0, 59, 0
1, 266519, Note_on_c, 0, 83, 117
1, 266522, Note_on_c, 0, 47, 110
1, 266522, Note_on_c, 0, 59, 117
1, 266535, Note_on_c, 0, 69, 0
1, 266535, Note_on_c, 0, 81, 0
1, 266535, Note_on_c, 0, 45, 0
1, 266538, Note_on_c, 0, 57, 0
1, 266555, Control_c, 0, 64, 0
1, 266555, Control_c, 0, 64, 0
1, 266656, Control_c, 0, 64, 127
1, 266656, Control_c, 0, 64, 127
1, 266683, Note_on_c, 0, 68, 68
1, 266683, Note_on_c, 0, 71, 77
1, 266683, Note_on_c, 0, 59, 68
1, 266686, Note_on_c, 0, 64, 77
1, 266848, Note_on_c, 0, 68, 0
1, 266848, Note_on_c, 0, 71, 0
1, 266848, Note_on_c, 0, 68, 70
1, 266851, Note_on_c, 0, 64, 0
1, 266851, Note_on_c, 0, 59, 0
1, 266851, Note_on_c, 0, 71, 80
1, 266854, Note_on_c, 0, 59, 71
1, 266854, Note_on_c, 0, 64, 81
1, 266993, Note_on_c, 0, 71, 0
1, 266993, Note_on_c, 0, 68, 0
1, 266993, Note_on_c, 0, 68, 73
1, 266996, Note_on_c, 0, 64, 0
1, 266996, Note_on_c, 0, 59, 0
1, 266996, Note_on_c, 0, 71, 84
1, 266999, Note_on_c, 0, 59, 74
1, 266999, Note_on_c, 0, 64, 85
1, 267137, Note_on_c, 0, 71, 0
1, 267137, Note_on_c, 0, 68, 0
1, 267137, Note_on_c, 0, 68, 76
1, 267140, Note_on_c, 0, 64, 0
1, 267140, Note_on_c, 0, 59, 0
1, 267140, Note_on_c, 0, 71, 87
1, 267143, Note_on_c, 0, 59, 77
1, 267143, Note_on_c, 0, 64, 88
1, 267280, Note_on_c, 0, 71, 0
1, 267280, Note_on_c, 0, 68, 0
1, 267280, Note_on_c, 0, 68, 79
1, 267283, Note_on_c, 0, 64, 0
1, 267283, Note_on_c, 0, 59, 0
1, 267283, Note_on_c, 0, 71, 90
1, 267286, Note_on_c, 0, 59, 80
1, 267286, Note_on_c, 0, 64, 92
1, 267317, Note_on_c, 0, 49, 117
1, 267425, Note_on_c, 0, 71, 0
1, 267425, Note_on_c, 0, 71, 0
1, 267425, Note_on_c, 0, 68, 0
1, 267428, Note_on_c, 0, 59, 0
1, 267428, Note_on_c, 0, 73, 110
1, 267428, Note_on_c, 0, 85, 117
1, 267431, Note_on_c, 0, 64, 0
1, 267431, Note_on_c, 0, 59, 0
1, 267431, Note_on_c, 0, 61, 117
1, 267454, Note_on_c, 0, 83, 0
1, 267454, Note_on_c, 0, 47, 0
1, 267483, Control_c, 0, 64, 0
1, 267483, Control_c, 0, 64, 0
1, 267584, Control_c, 0, 64, 127
1, 267584, Control_c, 0, 64, 127
1, 267675, Note_on_c, 0, 69, 80
1, 267675, Note_on_c, 0, 71, 89
1, 267675, Note_on_c, 0, 59, 80
1, 267678, Note_on_c, 0, 63, 80
1, 267678, Note_on_c, 0, 66, 89
1, 267923, Note_on_c, 0, 71, 0
1, 267923, Note_on_c, 0, 69, 0
1, 267923, Note_on_c, 0, 69, 80
1, 267926, Note_on_c, 0, 63, 0
1, 267926, Note_on_c, 0, 59, 0
1, 267926, Note_on_c, 0, 71, 89
1, 267929, Note_on_c, 0, 66, 0
1, 267929, Note_on_c, 0, 59, 80
1, 267929, Note_on_c, 0, 63, 80
1, 267932, Note_on_c, 0, 66, 89
1, 267986, Note_on_c, 0, 75, 112
1, 267986, Note_on_c, 0, 87, 117
1, 267986, Note_on_c, 0, 51, 117
1, 267989, Note_on_c, 0, 63, 117
1, 268006, Note_on_c, 0, 73, 0
1, 268006, Note_on_c, 0, 49, 0
1, 268006, Note_on_c, 0, 85, 0
1, 268009, Note_on_c, 0, 61, 0
1, 268066, Control_c, 0, 64, 0
1, 268066, Control_c, 0, 64, 0
1, 268111, Note_on_c, 0, 69, 0
1, 268111, Control_c, 0, 64, 0
1, 268111, Control_c, 0, 64, 0
1, 268114, Note_on_c, 0, 71, 0
1, 268114, Note_on_c, 0, 76, 106
1, 268114, Note_on_c, 0, 88, 117
1, 268117, Control_c, 0, 64, 0
1, 268117, Control_c, 0, 64, 0
1, 268117, Control_c, 0, 64, 0
1, 268120, Note_on_c, 0, 63, 0
1, 268120, Note_on_c, 0, 59, 0
1, 268120, Control_c, 0, 64, 0
1, 268123, Note_on_c, 0, 63, 0
1, 268123, Note_on_c, 0, 66, 0
1, 268123, Note_on_c, 0, 40, 99
1, 268126, Note_on_c, 0, 52, 111
1, 268130, Note_on_c, 0, 75, 0
1, 268130, Note_on_c, 0, 87, 0
1, 268130, Note_on_c, 0, 51, 0
1, 268239, Control_c, 0, 64, 127
1, 268239, Control_c, 0, 64, 127
1, 268278, Note_on_c, 0, 68, 68
1, 268278, Note_on_c, 0, 71, 77
1, 268278, Note_on_c, 0, 59, 68
1, 268281, Note_on_c, 0, 64, 77
1, 268421, Note_on_c, 0, 71, 0
1, 268421, Note_on_c, 0, 68, 0
1, 268421, Note_on_c, 0, 68, 68
1, 268424, Note_on_c, 0, 64, 0
1, 268424, Note_on_c, 0, 59, 0
1, 268424, Note_on_c, 0, 71, 77
1, 268427, Note_on_c, 0, 59, 68
1, 268427, Note_on_c, 0, 64, 77
1, 268565, Note_on_c, 0, 71, 0
1, 268565, Note_on_c, 0, 68, 0
1, 268565, Note_on_c, 0, 68, 68
1, 268568, Note_on_c, 0, 64, 0
1, 268568, Note_on_c, 0, 59, 0
1, 268568, Note_on_c, 0, 71, 77
1, 268571, Note_on_c, 0, 59, 68
1, 268571, Note_on_c, 0, 64, 77
1, 268732, Note_on_c, 0, 71, 0
1, 268732, Note_on_c, 0, 68, 0
1, 268732, Note_on_c, 0, 68, 68
1, 268735, Note_on_c, 0, 64, 0
1, 268735, Note_on_c, 0, 59, 0
1, 268735, Note_on_c, 0, 71, 77
1, 268738, Note_on_c, 0, 59, 68
1, 268738, Note_on_c, 0, 64, 77
1, 268919, Note_on_c, 0, 71, 0
1, 268919, Note_on_c, 0, 68, 0
1, 268919, Note_on_c, 0, 68, 68
1, 268922, Note_on_c, 0, 64, 0
1, 268922, Note_on_c, 0, 59, 0
1, 268922, Note_on_c, 0, 71, 77
1, 268925, Note_on_c, 0, 59, 68
1, 268925, Note_on_c, 0, 64, 77
1, 269133, Note_on_c, 0, 88, 0
1, 269133, Note_on_c, 0, 76, 0
1, 269133, Note_on_c, 0, 68, 0
1, 269136, Note_on_c, 0, 40, 0
1, 269136, Note_on_c, 0, 68, 68
1, 269136, Note_on_c, 0, 80, 103
1, 269139, Note_on_c, 0, 52, 0
1, 269139, Note_on_c, 0, 52, 99
1, 269147, Control_c, 0, 64, 0
1, 269147, Control_c, 0, 64, 0
1, 269669, Control_c, 0, 64, 127
1, 269669, Control_c, 0, 64, 127
1, 269775, Note_on_c, 0, 52, 0
1, 269775, Note_on_c, 0, 59, 0
1, 269775, Note_on_c, 0, 64, 0
1, 269778, Note_on_c, 0, 56, 99
1, 270224, Note_on_c, 0, 56, 0
1, 270224, Note_on_c, 0, 56, 99
1, 270385, Note_on_c, 0, 32, 88
1, 270385, Note_on_c, 0, 44, 88
1, 270609, Note_on_c, 0, 71, 0
1, 270609, Note_on_c, 0, 68, 0
1, 270609, Control_c, 0, 64, 0
1, 270612, Note_on_c, 0, 80, 0
1, 270612, Note_on_c, 0, 78, 92
1, 270612, Control_c, 0, 64, 0
1, 270615, Note_on_c, 0, 56, 0
1, 270615, Control_c, 0, 64, 0
1, 270615, Note_on_c, 0, 56, 92
1, 270834, Control_c, 0, 64, 127
1, 270834, Control_c, 0, 64, 127
1, 270909, Note_on_c, 0, 72, 70
1, 270909, Note_on_c, 0, 75, 79
1, 271075, Note_on_c, 0, 75, 0
1, 271075, Note_on_c, 0, 72, 0
1, 271075, Note_on_c, 0, 72, 64
1, 271078, Note_on_c, 0, 75, 73
1, 271138, Note_on_c, 0, 80, 93
1, 271157, Note_on_c, 0, 78, 0
1, 271263, Note_on_c, 0, 72, 0
1, 271263, Note_on_c, 0, 75, 0
1, 271263, Note_on_c, 0, 81, 95
1, 271266, Note_on_c, 0, 60, 92
1, 271282, Note_on_c, 0, 56, 0
1, 271282, Note_on_c, 0, 80, 0
1, 271325, Control_c, 0, 64, 0
1, 271325, Control_c, 0, 64, 0
1, 271398, Control_c, 0, 64, 127
1, 271398, Control_c, 0, 64, 127
1, 271429, Note_on_c, 0, 69, 70
1, 271429, Note_on_c, 0, 72, 79
1, 271595, Note_on_c, 0, 72, 0
1, 271595, Note_on_c, 0, 69, 0
1, 271595, Note_on_c, 0, 69, 64
1, 271598, Note_on_c, 0, 72, 73
1, 271658, Note_on_c, 0, 80, 94
1, 271678, Note_on_c, 0, 81, 0
1, 271783, Note_on_c, 0, 69, 0
1, 271783, Note_on_c, 0, 72, 0
1, 271783, Control_c, 0, 64, 0
1, 271786, Note_on_c, 0, 78, 93
1, 271786, Control_c, 0, 64, 0
1, 271786, Note_on_c, 0, 63, 97
1, 271802, Note_on_c, 0, 80, 0
1, 271802, Note_on_c, 0, 60, 0
1, 271856, Control_c, 0, 64, 127
1, 271856, Control_c, 0, 64, 127
1, 271950, Note_on_c, 0, 66, 70
1, 271950, Note_on_c, 0, 69, 79
1, 272115, Note_on_c, 0, 69, 0
1, 272115, Note_on_c, 0, 66, 0
1, 272115, Note_on_c, 0, 66, 64
1, 272118, Note_on_c, 0, 69, 73
1, 272178, Note_on_c, 0, 76, 92
1, 272198, Note_on_c, 0, 78, 0
1, 272303, Note_on_c, 0, 66, 0
1, 272303, Note_on_c, 0, 69, 0
1, 272303, Note_on_c, 0, 75, 92
1, 272306, Note_on_c, 0, 61, 90
1, 272323, Note_on_c, 0, 76, 0
1, 272323, Note_on_c, 0, 63, 0
1, 272351, Control_c, 0, 64, 0
1, 272351, Control_c, 0, 64, 0
1, 272435, Control_c, 0, 64, 127
1, 272435, Control_c, 0, 64, 127
1, 272470, Note_on_c, 0, 66, 70
1, 272470, Note_on_c, 0, 69, 79
1, 272635, Note_on_c, 0, 69, 0
1, 272635, Note_on_c, 0, 66, 0
1, 272635, Note_on_c, 0, 66, 64
1, 272638, Note_on_c, 0, 69, 73
1, 272698, Note_on_c, 0, 32, 0
1, 272698, Note_on_c, 0, 44, 0
1, 272698, Note_on_c, 0, 76, 90
1, 272701, Note_on_c, 0, 32, 77
1, 272701, Note_on_c, 0, 44, 77
1, 272718, Note_on_c, 0, 75, 0
1, 272823, Note_on_c, 0, 66, 0
1, 272823, Note_on_c, 0, 69, 0
1, 272823, Note_on_c, 0, 75, 90
1, 272826, Note_on_c, 0, 60, 88
1, 272848, Note_on_c, 0, 76, 0
1, 272848, Note_on_c, 0, 61, 0
1, 272848, Control_c, 0, 64, 0
1, 272848, Control_c, 0, 64, 0
1, 272944, Control_c, 0, 64, 127
1, 272944, Control_c, 0, 64, 127
1, 273038, Note_on_c, 0, 66, 70
1, 273038, Note_on_c, 0, 69, 79
1, 273251, Note_on_c, 0, 69, 0
1, 273251, Note_on_c, 0, 66, 0
1, 273251, Note_on_c, 0, 66, 64
1, 273254, Note_on_c, 0, 69, 73
1, 273314, Note_on_c, 0, 76, 93
1, 273333, Note_on_c, 0, 75, 0
1, 273438, Note_on_c, 0, 66, 0
1, 273438, Note_on_c, 0, 69, 0
1, 273438, Note_on_c, 0, 78, 96
1, 273441, Note_on_c, 0, 57, 88
1, 273458, Note_on_c, 0, 76, 0
1, 273458, Note_on_c, 0, 60, 0
1, 273490, Control_c, 0, 64, 0
1, 273490, Control_c, 0, 64, 0
1, 273584, Control_c, 0, 64, 127
1, 273584, Control_c, 0, 64, 127
1, 273605, Note_on_c, 0, 63, 70
1, 273605, Note_on_c, 0, 66, 79
1, 273771, Note_on_c, 0, 66, 0
1, 273771, Note_on_c, 0, 63, 0
1, 273771, Note_on_c, 0, 63, 64
1, 273774, Note_on_c, 0, 66, 73
1, 273834, Note_on_c, 0, 73, 95
1, 273853, Note_on_c, 0, 78, 0
1, 273958, Note_on_c, 0, 63, 0
1, 273958, Note_on_c, 0, 66, 0
1, 273958, Note_on_c, 0, 72, 94
1, 273961, Note_on_c, 0, 56, 86
1, 273969, Control_c, 0, 64, 0
1, 273969, Control_c, 0, 64, 0
1, 273978, Note_on_c, 0, 73, 0
1, 273978, Note_on_c, 0, 57, 0
1, 274063, Control_c, 0, 64, 127
1, 274063, Control_c, 0, 64, 127
1, 274125, Note_on_c, 0, 63, 70
1, 274125, Note_on_c, 0, 66, 79
1, 274291, Note_on_c, 0, 66, 0
1, 274291, Note_on_c, 0, 63, 0
1, 274291, Note_on_c, 0, 63, 64
1, 274294, Note_on_c, 0, 66, 73
1, 274354, Note_on_c, 0, 73, 90
1, 274373, Note_on_c, 0, 72, 0
1, 274479, Note_on_c, 0, 63, 0
1, 274479, Note_on_c, 0, 66, 0
1, 274479, Note_on_c, 0, 75, 89
1, 274482, Note_on_c, 0, 54, 87
1, 274498, Note_on_c, 0, 73, 0
1, 274498, Note_on_c, 0, 56, 0
1, 274530, Control_c, 0, 64, 0
1, 274530, Control_c, 0, 64, 0
1, 274603, Control_c, 0, 64, 127
1, 274603, Control_c, 0, 64, 127
1, 274645, Note_on_c, 0, 60, 70
1, 274645, Note_on_c, 0, 63, 79
1, 274811, Note_on_c, 0, 63, 0
1, 274811, Note_on_c, 0, 60, 0
1, 274811, Note_on_c, 0, 60, 64
1, 274814, Note_on_c, 0, 63, 73
1, 274874, Note_on_c, 0, 44, 0
1, 274874, Note_on_c, 0, 32, 0
1, 274874, Note_on_c, 0, 69, 85
1, 274877, Note_on_c, 0, 32, 73
1, 274877, Note_on_c, 0, 44, 73
1, 274894, Note_on_c, 0, 75, 0
1, 274968, Control_c, 0, 64, 0
1, 274968, Control_c, 0, 64, 0
1, 274999, Note_on_c, 0, 60, 0
1, 274999, Control_c, 0, 64, 0
1, 274999, Control_c, 0, 64, 0
1, 275002, Note_on_c, 0, 63, 0
1, 275002, Note_on_c, 0, 68, 86
1, 275002, Control_c, 0, 64, 0
1, 275005, Control_c, 0, 64, 0
1, 275005, Control_c, 0, 64, 0
1, 275005, Control_c, 0, 64, 0
1, 275008, Note_on_c, 0, 54, 0
1, 275008, Note_on_c, 0, 54, 88
1, 275018, Note_on_c, 0, 69, 0
1, 275124, Control_c, 0, 64, 127
1, 275124, Control_c, 0, 64, 127
1, 275166, Note_on_c, 0, 60, 65
1, 275166, Note_on_c, 0, 63, 73
1, 275331, Note_on_c, 0, 63, 0
1, 275331, Note_on_c, 0, 60, 0
1, 275331, Note_on_c, 0, 60, 60
1, 275334, Note_on_c, 0, 63, 68
1, 275394, Note_on_c, 0, 69, 85
1, 275414, Note_on_c, 0, 68, 0
1, 275519, Note_on_c, 0, 60, 0
1, 275519, Note_on_c, 0, 63, 0
1, 275519, Note_on_c, 0, 68, 86
1, 275522, Note_on_c, 0, 52, 85
1, 275538, Note_on_c, 0, 54, 0
1, 275538, Note_on_c, 0, 69, 0
1, 275581, Control_c, 0, 64, 0
1, 275581, Control_c, 0, 64, 0
1, 275655, Control_c, 0, 64, 127
1, 275655, Control_c, 0, 64, 127
1, 275686, Note_on_c, 0, 61, 65
1, 275686, Note_on_c, 0, 64, 72
1, 275851, Note_on_c, 0, 64, 0
1, 275851, Note_on_c, 0, 61, 0
1, 275851, Note_on_c, 0, 61, 59
1, 275854, Note_on_c, 0, 64, 67
1, 275914, Note_on_c, 0, 44, 0
1, 275914, Note_on_c, 0, 32, 0
1, 275914, Note_on_c, 0, 69, 85
1, 275917, Note_on_c, 0, 32, 69
1, 275917, Note_on_c, 0, 44, 69
1, 275934, Note_on_c, 0, 68, 0
1, 276039, Note_on_c, 0, 61, 0
1, 276039, Note_on_c, 0, 64, 0
1, 276039, Control_c, 0, 64, 0
1, 276042, Note_on_c, 0, 68, 83
1, 276042, Control_c, 0, 64, 0
1, 276042, Note_on_c, 0, 51, 81
1, 276059, Note_on_c, 0, 69, 0
1, 276059, Note_on_c, 0, 52, 0
1, 276112, Control_c, 0, 64, 127
1, 276112, Control_c, 0, 64, 127
1, 276206, Note_on_c, 0, 60, 63
1, 276206, Note_on_c, 0, 66, 71
1, 276372, Note_on_c, 0, 66, 0
1, 276372, Note_on_c, 0, 60, 0
1, 276372, Note_on_c, 0, 60, 58
1, 276375, Note_on_c, 0, 66, 65
1, 276435, Note_on_c, 0, 69, 81
1, 276454, Note_on_c, 0, 68, 0
1, 276559, Note_on_c, 0, 60, 0
1, 276559, Note_on_c, 0, 66, 0
1, 276559, Note_on_c, 0, 68, 85
1, 276562, Note_on_c, 0, 52, 84
1, 276579, Note_on_c, 0, 69, 0
1, 276579, Note_on_c, 0, 51, 0
1, 276607, Control_c, 0, 64, 0
1, 276607, Control_c, 0, 64, 0
1, 276691, Control_c, 0, 64, 127
1, 276691, Control_c, 0, 64, 127
1, 276726, Note_on_c, 0, 61, 59
1, 276726, Note_on_c, 0, 64, 67
1, 276892, Note_on_c, 0, 64, 0
1, 276892, Note_on_c, 0, 61, 0
1, 276892, Note_on_c, 0, 61, 54
1, 276895, Note_on_c, 0, 64, 61
1, 276955, Note_on_c, 0, 71, 86
1, 276984, Note_on_c, 0, 68, 0
1, 277142, Note_on_c, 0, 61, 0
1, 277142, Note_on_c, 0, 64, 0
1, 277142, Note_on_c, 0, 69, 86
1, 277145, Note_on_c, 0, 32, 0
1, 277145, Note_on_c, 0, 44, 0
1, 277145, Note_on_c, 0, 37, 75
1, 277148, Note_on_c, 0, 49, 89
1, 277167, Note_on_c, 0, 71, 0
1, 277167, Note_on_c, 0, 52, 0
1, 277167, Control_c, 0, 64, 0
1, 277167, Control_c, 0, 64, 0
1, 277262, Control_c, 0, 64, 127
1, 277262, Control_c, 0, 64, 127
1, 277356, Note_on_c, 0, 57, 70
1, 277356, Note_on_c, 0, 64, 79
1, 277569, Note_on_c, 0, 64, 0
1, 277569, Note_on_c, 0, 57, 0
1, 277569, Note_on_c, 0, 57, 65
1, 277572, Note_on_c, 0, 64, 74
1, 277632, Note_on_c, 0, 76, 93
1, 277652, Note_on_c, 0, 69, 0
1, 277757, Note_on_c, 0, 64, 0
1, 277757, Note_on_c, 0, 57, 0
1, 277757, Note_on_c, 0, 75, 96
1, 277760, Note_on_c, 0, 35, 70
1, 277760, Note_on_c, 0, 47, 82
1, 277777, Note_on_c, 0, 37, 0
1, 277777, Note_on_c, 0, 49, 0
1, 277777, Note_on_c, 0, 76, 0
1, 277809, Control_c, 0, 64, 0
1, 277809, Control_c, 0, 64, 0
1, 277902, Control_c, 0, 64, 127
1, 277902, Control_c, 0, 64, 127
1, 277924, Note_on_c, 0, 63, 70
1, 277924, Note_on_c, 0, 68, 79
1, 278090, Note_on_c, 0, 68, 0
1, 278090, Note_on_c, 0, 63, 0
1, 278090, Note_on_c, 0, 63, 65
1, 278093, Note_on_c, 0, 68, 74
1, 278152, Note_on_c, 0, 68, 90
1, 278172, Note_on_c, 0, 75, 0
1, 278277, Note_on_c, 0, 68, 0
1, 278277, Note_on_c, 0, 63, 0
1, 278277, Note_on_c, 0, 66, 89
1, 278280, Note_on_c, 0, 33, 68
1, 278280, Note_on_c, 0, 45, 78
1, 278288, Control_c, 0, 64, 0
1, 278288, Control_c, 0, 64, 0
1, 278297, Note_on_c, 0, 47, 0
1, 278297, Note_on_c, 0, 35, 0
1, 278297, Note_on_c, 0, 68, 0
1, 278382, Control_c, 0, 64, 127
1, 278382, Control_c, 0, 64, 127
1, 278444, Note_on_c, 0, 54, 70
1, 278444, Note_on_c, 0, 61, 79
1, 278610, Note_on_c, 0, 61, 0
1, 278610, Note_on_c, 0, 54, 0
1, 278610, Note_on_c, 0, 54, 65
1, 278613, Note_on_c, 0, 61, 74
1, 278673, Note_on_c, 0, 73, 90
1, 278694, Note_on_c, 0, 66, 0
1, 278813, Note_on_c, 0, 61, 0
1, 278813, Note_on_c, 0, 54, 0
1, 278813, Note_on_c, 0, 71, 89
1, 278816, Note_on_c, 0, 32, 66
1, 278816, Note_on_c, 0, 44, 75
1, 278835, Note_on_c, 0, 45, 0
1, 278835, Note_on_c, 0, 33, 0
1, 278835, Note_on_c, 0, 73, 0
1, 278871, Control_c, 0, 64, 0
1, 278871, Control_c, 0, 64, 0
1, 278953, Control_c, 0, 64, 127
1, 278953, Control_c, 0, 64, 127
1, 279001, Note_on_c, 0, 59, 70
1, 279001, Note_on_c, 0, 64, 79
1, 279214, Note_on_c, 0, 64, 0
1, 279214, Note_on_c, 0, 59, 0
1, 279214, Note_on_c, 0, 59, 59
1, 279217, Note_on_c, 0, 64, 63
1, 279289, Note_on_c, 0, 64, 85
1, 279324, Note_on_c, 0, 71, 0
1, 279458, Control_c, 0, 64, 0
1, 279458, Control_c, 0, 64, 0
1, 279514, Note_on_c, 0, 64, 0
1, 279514, Note_on_c, 0, 59, 0
1, 279514, Control_c, 0, 64, 0
1, 279517, Note_on_c, 0, 63, 86
1, 279517, Control_c, 0, 64, 0
1, 279517, Control_c, 0, 64, 0
1, 279520, Note_on_c, 0, 30, 68
1, 279520, Note_on_c, 0, 42, 77
1, 279539, Note_on_c, 0, 44, 0
1, 279539, Note_on_c, 0, 32, 0
1, 279539, Note_on_c, 0, 64, 0
1, 279615, Control_c, 0, 64, 127
1, 279615, Control_c, 0, 64, 127
1, 279728, Note_on_c, 0, 57, 53
1, 279728, Note_on_c, 0, 60, 66
1, 279941, Note_on_c, 0, 60, 0
1, 279941, Note_on_c, 0, 57, 0
1, 279941, Note_on_c, 0, 57, 53
1, 279944, Note_on_c, 0, 60, 61
1, 280004, Note_on_c, 0, 66, 88
1, 280004, Note_on_c, 0, 76, 83
1, 280029, Note_on_c, 0, 63, 0
1, 280165, Note_on_c, 0, 57, 0
1, 280165, Note_on_c, 0, 75, 92
1, 280165, Note_on_c, 0, 69, 88
1, 280168, Note_on_c, 0, 60, 0
1, 280186, Note_on_c, 0, 66, 0
1, 280186, Note_on_c, 0, 76, 0
1, 280226, Control_c, 0, 64, 0
1, 280226, Control_c, 0, 64, 0
1, 280348, Control_c, 0, 64, 127
1, 280348, Control_c, 0, 64, 127
1, 280352, Note_on_c, 0, 57, 64
1, 280352, Note_on_c, 0, 60, 65
1, 280539, Note_on_c, 0, 60, 0
1, 280539, Note_on_c, 0, 57, 0
1, 280539, Note_on_c, 0, 57, 57
1, 280542, Note_on_c, 0, 60, 60
1, 280601, Note_on_c, 0, 78, 85
1, 280621, Note_on_c, 0, 75, 0
1, 280726, Note_on_c, 0, 57, 0
1, 280726, Note_on_c, 0, 60, 0
1, 280726, Note_on_c, 0, 81, 79
1, 280751, Note_on_c, 0, 78, 0
1, 280941, Note_on_c, 0, 57, 63
1, 280941, Note_on_c, 0, 60, 64
1, 281154, Note_on_c, 0, 60, 0
1, 281154, Note_on_c, 0, 57, 0
1, 281154, Note_on_c, 0, 57, 56
1, 281157, Note_on_c, 0, 60, 59
1, 281217, Note_on_c, 0, 64, 90
1, 281236, Note_on_c, 0, 69, 0
1, 281267, Control_c, 0, 64, 0
1, 281267, Control_c, 0, 64, 0
1, 281341, Note_on_c, 0, 81, 0
1, 281341, Note_on_c, 0, 30, 0
1, 281341, Note_on_c, 0, 63, 90
1, 281344, Note_on_c, 0, 57, 0
1, 281344, Note_on_c, 0, 42, 0
1, 281344, Note_on_c, 0, 60, 0
1, 281347, Note_on_c, 0, 30, 68
1, 281347, Note_on_c, 0, 42, 77
1, 281363, Note_on_c, 0, 64, 0
1, 281458, Control_c, 0, 64, 127
1, 281458, Control_c, 0, 64, 127
1, 281529, Note_on_c, 0, 57, 68
1, 281529, Note_on_c, 0, 60, 64
1, 281715, Note_on_c, 0, 60, 0
1, 281715, Note_on_c, 0, 57, 0
1, 281715, Note_on_c, 0, 57, 56
1, 281718, Note_on_c, 0, 60, 58
1, 281778, Note_on_c, 0, 63, 0
1, 281778, Note_on_c, 0, 63, 82
1, 281919, Control_c, 0, 64, 0
1, 281919, Note_on_c, 0, 61, 90
1, 281919, Control_c, 0, 64, 0
1, 281922, Note_on_c, 0, 57, 0
1, 281922, Note_on_c, 0, 60, 0
1, 281922, Note_on_c, 0, 28, 68
1, 281925, Note_on_c, 0, 40, 77
1, 281941, Note_on_c, 0, 63, 0
1, 281941, Note_on_c, 0, 42, 0
1, 281941, Note_on_c, 0, 30, 0
1, 282053, Control_c, 0, 64, 127
1, 282053, Control_c, 0, 64, 127
1, 282106, Note_on_c, 0, 52, 56
1, 282106, Note_on_c, 0, 56, 63
1, 282319, Note_on_c, 0, 56, 0
1, 282319, Note_on_c, 0, 52, 0
1, 282319, Note_on_c, 0, 52, 50
1, 282322, Note_on_c, 0, 56, 58
1, 282367, Note_on_c, 0, 64, 88
1, 282367, Note_on_c, 0, 75, 83
1, 282392, Note_on_c, 0, 61, 0
1, 282527, Note_on_c, 0, 52, 0
1, 282527, Note_on_c, 0, 73, 86
1, 282527, Note_on_c, 0, 68, 88
1, 282530, Note_on_c, 0, 56, 0
1, 282549, Note_on_c, 0, 64, 0
1, 282549, Note_on_c, 0, 75, 0
1, 282565, Control_c, 0, 64, 0
1, 282565, Control_c, 0, 64, 0
1, 282710, Control_c, 0, 64, 127
1, 282710, Control_c, 0, 64, 127
1, 282715, Note_on_c, 0, 52, 55
1, 282715, Note_on_c, 0, 56, 63
1, 282901, Note_on_c, 0, 56, 0
1, 282901, Note_on_c, 0, 52, 0
1, 282901, Note_on_c, 0, 52, 50
1, 282904, Note_on_c, 0, 56, 58
1, 282964, Note_on_c, 0, 76, 87
1, 282983, Note_on_c, 0, 73, 0
1, 283089, Note_on_c, 0, 52, 0
1, 283089, Note_on_c, 0, 56, 0
1, 283089, Note_on_c, 0, 80, 83
1, 283114, Note_on_c, 0, 76, 0
1, 283303, Note_on_c, 0, 52, 55
1, 283303, Note_on_c, 0, 56, 62
1, 283516, Note_on_c, 0, 56, 0
1, 283516, Note_on_c, 0, 52, 0
1, 283516, Note_on_c, 0, 52, 50
1, 283519, Note_on_c, 0, 56, 59
1, 283579, Note_on_c, 0, 63, 81
1, 283601, Note_on_c, 0, 68, 0
1, 283692, Control_c, 0, 64, 0
1, 283692, Control_c, 0, 64, 0
1, 283720, Note_on_c, 0, 52, 0
1, 283720, Note_on_c, 0, 80, 0
1, 283720, Note_on_c, 0, 61, 83
1, 283723, Note_on_c, 0, 28, 0
1, 283723, Note_on_c, 0, 40, 0
1, 283723, Note_on_c, 0, 56, 0
1, 283726, Note_on_c, 0, 28, 68
1, 283726, Note_on_c, 0, 40, 77
1, 283741, Note_on_c, 0, 63, 0
1, 283814, Control_c, 0, 64, 127
1, 283814, Control_c, 0, 64, 127
1, 283907, Note_on_c, 0, 52, 58
1, 283907, Note_on_c, 0, 56, 66
1, 284120, Note_on_c, 0, 56, 0
1, 284120, Note_on_c, 0, 52, 0
1, 284120, Note_on_c, 0, 52, 55
1, 284123, Note_on_c, 0, 56, 63
1, 284183, Note_on_c, 0, 61, 0
1, 284183, Note_on_c, 0, 61, 88
1, 284279, Control_c, 0, 64, 0
1, 284279, Control_c, 0, 64, 0
1, 284323, Control_c, 0, 64, 0
1, 284323, Control_c, 0, 64, 0
1, 284323, Control_c, 0, 64, 0
1, 284326, Note_on_c, 0, 61, 0
1, 284326, Note_on_c, 0, 60, 89
1, 284326, Control_c, 0, 64, 0
1, 284329, Control_c, 0, 64, 0
1, 284329, Control_c, 0, 64, 0
1, 284329, Control_c, 0, 64, 0
1, 284332, Note_on_c, 0, 56, 0
1, 284332, Note_on_c, 0, 52, 0
1, 284332, Note_on_c, 0, 27, 67
1, 284335, Note_on_c, 0, 39, 77
1, 284353, Note_on_c, 0, 40, 0
1, 284353, Note_on_c, 0, 28, 0
1, 284511, Control_c, 0, 64, 127
1, 284511, Control_c, 0, 64, 127
1, 284574, Note_on_c, 0, 54, 61
1, 284574, Note_on_c, 0, 56, 68
1, 284698, Note_on_c, 0, 37, 66
1, 284698, Note_on_c, 0, 49, 82
1, 284727, Note_on_c, 0, 39, 0
1, 284727, Note_on_c, 0, 27, 0
1, 284809, Note_on_c, 0, 36, 67
1, 284822, Note_on_c, 0, 56, 0
1, 284822, Note_on_c, 0, 54, 0
1, 284822, Note_on_c, 0, 54, 55
1, 284825, Note_on_c, 0, 56, 63
1, 284825, Note_on_c, 0, 48, 87
1, 284857, Note_on_c, 0, 37, 0
1, 284857, Note_on_c, 0, 49, 0
1, 284898, Note_on_c, 0, 63, 90
1, 284920, Note_on_c, 0, 60, 0
1, 284982, Control_c, 0, 64, 0
1, 284982, Control_c, 0, 64, 0
1, 285038, Note_on_c, 0, 54, 0
1, 285038, Note_on_c, 0, 56, 0
1, 285038, Note_on_c, 0, 61, 92
1, 285041, Note_on_c, 0, 36, 0
1, 285041, Note_on_c, 0, 48, 0
1, 285041, Note_on_c, 0, 28, 70
1, 285044, Note_on_c, 0, 40, 82
1, 285060, Note_on_c, 0, 63, 0
1, 285191, Control_c, 0, 64, 127
1, 285191, Control_c, 0, 64, 127
1, 285226, Note_on_c, 0, 52, 65
1, 285226, Note_on_c, 0, 56, 73
1, 285319, Note_on_c, 0, 39, 71
1, 285319, Note_on_c, 0, 51, 87
1, 285348, Note_on_c, 0, 40, 0
1, 285348, Note_on_c, 0, 28, 0
1, 285430, Note_on_c, 0, 37, 72
1, 285443, Note_on_c, 0, 56, 0
1, 285443, Note_on_c, 0, 52, 0
1, 285443, Note_on_c, 0, 52, 59
1, 285446, Note_on_c, 0, 56, 67
1, 285446, Note_on_c, 0, 49, 93
1, 285472, Note_on_c, 0, 39, 0
1, 285472, Note_on_c, 0, 51, 0
1, 285506, Note_on_c, 0, 64, 89
1, 285521, Control_c, 0, 64, 0
1, 285521, Control_c, 0, 64, 0
1, 285526, Note_on_c, 0, 61, 0
1, 285631, Note_on_c, 0, 52, 0
1, 285631, Note_on_c, 0, 56, 0
1, 285631, Note_on_c, 0, 63, 92
1, 285634, Note_on_c, 0, 37, 0
1, 285634, Note_on_c, 0, 49, 0
1, 285634, Note_on_c, 0, 30, 74
1, 285637, Note_on_c, 0, 42, 86
1, 285650, Note_on_c, 0, 64, 0
1, 285704, Control_c, 0, 64, 127
1, 285704, Control_c, 0, 64, 127
1, 285798, Note_on_c, 0, 57, 68
1, 285798, Note_on_c, 0, 61, 76
1, 285880, Note_on_c, 0, 40, 74
1, 285880, Note_on_c, 0, 52, 92
1, 285910, Note_on_c, 0, 42, 0
1, 285910, Note_on_c, 0, 30, 0
1, 285992, Note_on_c, 0, 39, 75
1, 286005, Note_on_c, 0, 61, 0
1, 286005, Note_on_c, 0, 57, 0
1, 286005, Note_on_c, 0, 57, 62
1, 286008, Note_on_c, 0, 61, 71
1, 286008, Note_on_c, 0, 51, 98
1, 286030, Note_on_c, 0, 40, 0
1, 286030, Note_on_c, 0, 52, 0
1, 286059, Note_on_c, 0, 66, 95
1, 286076, Note_on_c, 0, 63, 0
1, 286141, Control_c, 0, 64, 0
1, 286141, Control_c, 0, 64, 0
1, 286167, Note_on_c, 0, 57, 0
1, 286167, Note_on_c, 0, 61, 0
1, 286167, Note_on_c, 0, 65, 97
1, 286170, Note_on_c, 0, 39, 0
1, 286170, Note_on_c, 0, 51, 0
1, 286170, Note_on_c, 0, 32, 79
1, 286173, Note_on_c, 0, 44, 92
1, 286184, Note_on_c, 0, 66, 0
1, 286208, Control_c, 0, 64, 0
1, 286208, Control_c, 0, 64, 0
1, 286281, Control_c, 0, 64, 127
1, 286281, Control_c, 0, 64, 127
1, 286311, Note_on_c, 0, 59, 71
1, 286311, Note_on_c, 0, 61, 81
1, 286383, Note_on_c, 0, 42, 79
1, 286383, Note_on_c, 0, 54, 97
1, 286412, Note_on_c, 0, 44, 0
1, 286412, Note_on_c, 0, 32, 0
1, 286494, Note_on_c, 0, 41, 80
1, 286507, Note_on_c, 0, 61, 0
1, 286507, Note_on_c, 0, 59, 0
1, 286507, Note_on_c, 0, 59, 65
1, 286510, Note_on_c, 0, 61, 75
1, 286510, Note_on_c, 0, 53, 103
1, 286532, Note_on_c, 0, 42, 0
1, 286532, Note_on_c, 0, 54, 0
1, 286561, Note_on_c, 0, 68, 100
1, 286578, Note_on_c, 0, 65, 0
1, 286634, Control_c, 0, 64, 0
1, 286634, Control_c, 0, 64, 0
1, 286669, Note_on_c, 0, 59, 0
1, 286669, Note_on_c, 0, 61, 0
1, 286669, Note_on_c, 0, 66, 102
1, 286672, Note_on_c, 0, 41, 0
1, 286672, Note_on_c, 0, 53, 0
1, 286672, Note_on_c, 0, 33, 83
1, 286675, Note_on_c, 0, 45, 98
1, 286694, Note_on_c, 0, 68, 0
1, 286789, Control_c, 0, 64, 127
1, 286789, Control_c, 0, 64, 127
1, 286883, Note_on_c, 0, 57, 75
1, 286883, Note_on_c, 0, 61, 86
1, 286976, Note_on_c, 0, 44, 83
1, 286976, Note_on_c, 0, 56, 103
1, 287006, Note_on_c, 0, 45, 0
1, 287006, Note_on_c, 0, 33, 0
1, 287088, Note_on_c, 0, 42, 84
1, 287101, Note_on_c, 0, 61, 0
1, 287101, Note_on_c, 0, 57, 0
1, 287101, Note_on_c, 0, 57, 68
1, 287104, Note_on_c, 0, 61, 80
1, 287104, Note_on_c, 0, 54, 109
1, 287130, Note_on_c, 0, 44, 0
1, 287130, Note_on_c, 0, 56, 0
1, 287164, Note_on_c, 0, 75, 105
1, 287183, Note_on_c, 0, 66, 0
1, 287288, Note_on_c, 0, 57, 0
1, 287288, Note_on_c, 0, 61, 0
1, 287288, Note_on_c, 0, 73, 106
1, 287291, Note_on_c, 0, 42, 0
1, 287291, Note_on_c, 0, 54, 0
1, 287291, Note_on_c, 0, 34, 86
1, 287294, Note_on_c, 0, 46, 102
1, 287308, Note_on_c, 0, 75, 0
1, 287340, Control_c, 0, 64, 0
1, 287340, Control_c, 0, 64, 0
1, 287434, Control_c, 0, 64, 127
1, 287434, Control_c, 0, 64, 127
1, 287455, Note_on_c, 0, 64, 78
1, 287455, Note_on_c, 0, 66, 90
1, 287538, Note_on_c, 0, 51, 87
1, 287538, Note_on_c, 0, 63, 106
1, 287573, Note_on_c, 0, 46, 0
1, 287573, Note_on_c, 0, 34, 0
1, 287671, Note_on_c, 0, 49, 87
1, 287687, Note_on_c, 0, 66, 0
1, 287687, Note_on_c, 0, 64, 0
1, 287687, Note_on_c, 0, 64, 72
1, 287690, Note_on_c, 0, 66, 76
1, 287690, Note_on_c, 0, 61, 112
1, 287717, Note_on_c, 0, 51, 0
1, 287717, Note_on_c, 0, 63, 0
1, 287750, Note_on_c, 0, 64, 111
1, 287772, Note_on_c, 0, 73, 0
1, 287891, Note_on_c, 0, 64, 0
1, 287891, Note_on_c, 0, 66, 0
1, 287891, Note_on_c, 0, 63, 114
1, 287894, Note_on_c, 0, 49, 0
1, 287894, Note_on_c, 0, 61, 0
1, 287894, Note_on_c, 0, 35, 90
1, 287897, Note_on_c, 0, 47, 106
1, 287907, Control_c, 0, 64, 0
1, 287907, Control_c, 0, 64, 0
1, 287920, Note_on_c, 0, 64, 0
1, 288047, Control_c, 0, 64, 127
1, 288047, Control_c, 0, 64, 127
1, 288141, Note_on_c, 0, 54, 82
1, 288141, Note_on_c, 0, 57, 95
1, 288265, Note_on_c, 0, 40, 90
1, 288265, Note_on_c, 0, 52, 111
1, 288294, Note_on_c, 0, 47, 0
1, 288294, Note_on_c, 0, 35, 0
1, 288376, Note_on_c, 0, 39, 90
1, 288389, Note_on_c, 0, 57, 0
1, 288389, Note_on_c, 0, 54, 0
1, 288389, Note_on_c, 0, 54, 76
1, 288392, Note_on_c, 0, 57, 89
1, 288392, Note_on_c, 0, 51, 116
1, 288424, Note_on_c, 0, 40, 0
1, 288424, Note_on_c, 0, 52, 0
1, 288465, Note_on_c, 0, 76, 117
1, 288487, Note_on_c, 0, 63, 0
1, 288605, Note_on_c, 0, 54, 0
1, 288605, Note_on_c, 0, 57, 0
1, 288605, Note_on_c, 0, 75, 117
1, 288608, Note_on_c, 0, 39, 0
1, 288608, Note_on_c, 0, 51, 0
1, 288608, Note_on_c, 0, 36, 94
1, 288611, Note_on_c, 0, 48, 111
1, 288634, Note_on_c, 0, 76, 0
1, 288683, Control_c, 0, 64, 0
1, 288683, Control_c, 0, 64, 0
1, 288792, Control_c, 0, 64, 127
1, 288792, Control_c, 0, 64, 127
1, 288855, Note_on_c, 0, 66, 85
1, 288855, Note_on_c, 0, 68, 98
1, 289004, Note_on_c, 0, 52, 98
1, 289004, Note_on_c, 0, 64, 117
1, 289048, Note_on_c, 0, 48, 0
1, 289048, Note_on_c, 0, 36, 0
1, 289171, Note_on_c, 0, 51, 100
1, 289191, Note_on_c, 0, 68, 0
1, 289191, Note_on_c, 0, 66, 0
1, 289191, Note_on_c, 0, 66, 80
1, 289194, Note_on_c, 0, 68, 94
1, 289194, Note_on_c, 0, 63, 117
1, 289279, Note_on_c, 0, 52, 0
1, 289279, Note_on_c, 0, 64, 0
1, 289380, Note_on_c, 0, 68, 117
1, 289409, Note_on_c, 0, 75, 0
1, 289473, Note_on_c, 0, 56, 117
1, 289520, Control_c, 0, 64, 0
1, 289520, Control_c, 0, 64, 0
1, 289567, Note_on_c, 0, 66, 0
1, 289567, Note_on_c, 0, 68, 0
1, 289567, Control_c, 0, 64, 0
1, 289570, Note_on_c, 0, 73, 117
1, 289570, Control_c, 0, 64, 0
1, 289570, Control_c, 0, 64, 0
1, 289573, Note_on_c, 0, 63, 0
1, 289573, Note_on_c, 0, 51, 0
1, 289573, Note_on_c, 0, 56, 0
1, 289576, Note_on_c, 0, 61, 113
1, 289596, Note_on_c, 0, 68, 0
1, 289817, Note_on_c, 0, 64, 75
1, 289817, Note_on_c, 0, 68, 86
1, 289817, Note_on_c, 0, 49, 73
1, 289820, Note_on_c, 0, 56, 84
1, 289824, Control_c, 0, 64, 127
1, 289824, Control_c, 0, 64, 127
1, 289983, Note_on_c, 0, 68, 0
1, 289983, Note_on_c, 0, 64, 0
1, 289983, Note_on_c, 0, 64, 78
1, 289986, Note_on_c, 0, 49, 0
1, 289986, Note_on_c, 0, 56, 0
1, 289986, Note_on_c, 0, 68, 88
1, 289989, Note_on_c, 0, 49, 74
1, 289989, Note_on_c, 0, 56, 85
1, 290127, Note_on_c, 0, 68, 0
1, 290127, Note_on_c, 0, 64, 0
1, 290127, Note_on_c, 0, 64, 79
1, 290130, Note_on_c, 0, 49, 0
1, 290130, Note_on_c, 0, 56, 0
1, 290130, Note_on_c, 0, 68, 91
1, 290133, Note_on_c, 0, 49, 76
1, 290133, Note_on_c, 0, 56, 88
1, 290271, Note_on_c, 0, 68, 0
1, 290271, Note_on_c, 0, 64, 0
1, 290271, Note_on_c, 0, 64, 81
1, 290274, Note_on_c, 0, 49, 0
1, 290274, Note_on_c, 0, 56, 0
1, 290274, Note_on_c, 0, 68, 93
1, 290277, Note_on_c, 0, 49, 78
1, 290277, Note_on_c, 0, 56, 89
1, 290415, Note_on_c, 0, 68, 0
1, 290415, Note_on_c, 0, 64, 0
1, 290415, Note_on_c, 0, 64, 82
1, 290418, Note_on_c, 0, 49, 0
1, 290418, Note_on_c, 0, 56, 0
1, 290418, Note_on_c, 0, 68, 95
1, 290421, Note_on_c, 0, 49, 79
1, 290421, Note_on_c, 0, 56, 90
1, 290559, Note_on_c, 0, 68, 0
1, 290559, Note_on_c, 0, 64, 0
1, 290559, Note_on_c, 0, 75, 117
1, 290562, Note_on_c, 0, 49, 0
1, 290562, Note_on_c, 0, 56, 0
1, 290562, Note_on_c, 0, 63, 103
1, 290584, Note_on_c, 0, 73, 0
1, 290584, Note_on_c, 0, 61, 0
1, 290584, Control_c, 0, 64, 0
1, 290584, Control_c, 0, 64, 0
1, 290742, Control_c, 0, 64, 127
1, 290742, Control_c, 0, 64, 127
1, 290773, Note_on_c, 0, 68, 81
1, 290773, Note_on_c, 0, 71, 92
1, 290773, Note_on_c, 0, 56, 78
1, 290776, Note_on_c, 0, 59, 87
1, 290960, Note_on_c, 0, 71, 0
1, 290960, Note_on_c, 0, 68, 0
1, 290960, Note_on_c, 0, 68, 82
1, 290963, Note_on_c, 0, 56, 0
1, 290963, Note_on_c, 0, 59, 0
1, 290963, Note_on_c, 0, 71, 94
1, 290966, Note_on_c, 0, 56, 79
1, 290966, Note_on_c, 0, 59, 90
1, 291126, Note_on_c, 0, 71, 0
1, 291126, Note_on_c, 0, 68, 0
1, 291126, Note_on_c, 0, 68, 84
1, 291129, Note_on_c, 0, 56, 0
1, 291129, Note_on_c, 0, 59, 0
1, 291129, Note_on_c, 0, 71, 95
1, 291132, Note_on_c, 0, 56, 81
1, 291132, Note_on_c, 0, 59, 92
1, 291271, Note_on_c, 0, 71, 0
1, 291271, Note_on_c, 0, 68, 0
1, 291271, Note_on_c, 0, 68, 85
1, 291274, Note_on_c, 0, 56, 0
1, 291274, Note_on_c, 0, 59, 0
1, 291274, Note_on_c, 0, 71, 97
1, 291277, Note_on_c, 0, 56, 83
1, 291277, Note_on_c, 0, 59, 94
1, 291414, Note_on_c, 0, 71, 0
1, 291414, Note_on_c, 0, 68, 0
1, 291414, Note_on_c, 0, 68, 86
1, 291417, Note_on_c, 0, 56, 0
1, 291417, Note_on_c, 0, 59, 0
1, 291417, Note_on_c, 0, 71, 98
1, 291420, Note_on_c, 0, 56, 85
1, 291420, Note_on_c, 0, 59, 96
1, 291477, Note_on_c, 0, 63, 0
1, 291477, Note_on_c, 0, 75, 0
1, 291477, Note_on_c, 0, 75, 117
1, 291480, Note_on_c, 0, 63, 103
1, 291560, Control_c, 0, 64, 0
1, 291560, Control_c, 0, 64, 0
1, 291617, Note_on_c, 0, 71, 0
1, 291617, Note_on_c, 0, 68, 0
1, 291617, Note_on_c, 0, 80, 117
1, 291620, Note_on_c, 0, 56, 0
1, 291620, Note_on_c, 0, 59, 0
1, 291620, Note_on_c, 0, 68, 103
1, 291652, Note_on_c, 0, 75, 0
1, 291652, Note_on_c, 0, 63, 0
1, 291917, Note_on_c, 0, 68, 73
1, 291917, Note_on_c, 0, 71, 84
1, 291917, Note_on_c, 0, 52, 72
1, 291920, Note_on_c, 0, 59, 81
1, 291953, Control_c, 0, 64, 127
1, 291953, Control_c, 0, 64, 127
1, 292131, Note_on_c, 0, 71, 0
1, 292131, Note_on_c, 0, 68, 0
1, 292131, Note_on_c, 0, 68, 71
1, 292134, Note_on_c, 0, 52, 0
1, 292134, Note_on_c, 0, 59, 0
1, 292134, Note_on_c, 0, 71, 81
1, 292137, Note_on_c, 0, 52, 69
1, 292137, Note_on_c, 0, 59, 79
1, 292318, Note_on_c, 0, 71, 0
1, 292318, Note_on_c, 0, 68, 0
1, 292318, Note_on_c, 0, 68, 69
1, 292321, Note_on_c, 0, 52, 0
1, 292321, Note_on_c, 0, 59, 0
1, 292321, Note_on_c, 0, 71, 78
1, 292324, Note_on_c, 0, 52, 67
1, 292324, Note_on_c, 0, 59, 76
1, 292506, Note_on_c, 0, 71, 0
1, 292506, Note_on_c, 0, 68, 0
1, 292506, Note_on_c, 0, 68, 67
1, 292509, Note_on_c, 0, 52, 0
1, 292509, Note_on_c, 0, 59, 0
1, 292509, Note_on_c, 0, 71, 75
1, 292512, Note_on_c, 0, 52, 65
1, 292512, Note_on_c, 0, 59, 73
1, 292719, Note_on_c, 0, 71, 0
1, 292719, Note_on_c, 0, 68, 0
1, 292719, Note_on_c, 0, 68, 65
1, 292722, Note_on_c, 0, 52, 0
1, 292722, Note_on_c, 0, 59, 0
1, 292722, Note_on_c, 0, 71, 73
1, 292725, Note_on_c, 0, 52, 63
1, 292725, Note_on_c, 0, 59, 70
1, 292954, Control_c, 0, 64, 0
1, 292954, Control_c, 0, 64, 0
1, 292969, Note_on_c, 0, 71, 0
1, 292969, Note_on_c, 0, 68, 0
1, 292969, Note_on_c, 0, 74, 81
1, 292972, Note_on_c, 0, 52, 0
1, 292972, Note_on_c, 0, 59, 0
1, 292972, Note_on_c, 0, 78, 95
1, 292975, Note_on_c, 0, 62, 75
1, 292975, Note_on_c, 0, 66, 90
1, 293004, Note_on_c, 0, 68, 0
1, 293004, Note_on_c, 0, 80, 0
1, 293169, Control_c, 0, 64, 127
1, 293169, Control_c, 0, 64, 127
1, 293269, Note_on_c, 0, 68, 63
1, 293269, Note_on_c, 0, 71, 72
1, 293269, Note_on_c, 0, 52, 60
1, 293272, Note_on_c, 0, 59, 68
1, 293456, Note_on_c, 0, 71, 0
1, 293456, Note_on_c, 0, 68, 0
1, 293456, Note_on_c, 0, 68, 57
1, 293459, Note_on_c, 0, 59, 0
1, 293459, Note_on_c, 0, 52, 0
1, 293459, Note_on_c, 0, 71, 66
1, 293462, Note_on_c, 0, 52, 52
1, 293462, Note_on_c, 0, 59, 59
1, 293643, Note_on_c, 0, 71, 0
1, 293643, Note_on_c, 0, 68, 0
1, 293643, Note_on_c, 0, 73, 74
1, 293646, Note_on_c, 0, 59, 0
1, 293646, Note_on_c, 0, 52, 0
1, 293646, Note_on_c, 0, 76, 87
1, 293649, Note_on_c, 0, 61, 69
1, 293649, Note_on_c, 0, 64, 81
1, 293666, Control_c, 0, 64, 0
1, 293666, Control_c, 0, 64, 0
1, 293672, Note_on_c, 0, 62, 0
1, 293672, Note_on_c, 0, 78, 0
1, 293672, Note_on_c, 0, 74, 0
1, 293675, Note_on_c, 0, 66, 0
1, 293893, Control_c, 0, 64, 127
1, 293893, Note_on_c, 0, 68, 51
1, 293893, Note_on_c, 0, 71, 60
1, 293896, Control_c, 0, 64, 127
1, 293896, Note_on_c, 0, 52, 54
1, 293896, Note_on_c, 0, 59, 61
1, 294142, Note_on_c, 0, 71, 0
1, 294142, Note_on_c, 0, 68, 0
1, 294142, Note_on_c, 0, 68, 45
1, 294145, Note_on_c, 0, 59, 0
1, 294145, Note_on_c, 0, 52, 0
1, 294145, Note_on_c, 0, 71, 54
1, 294148, Note_on_c, 0, 52, 47
1, 294148, Note_on_c, 0, 59, 53
1, 294427, Control_c, 0, 64, 0
1, 294427, Control_c, 0, 64, 0
1, 294517, Note_on_c, 0, 71, 0
1, 294517, Note_on_c, 0, 68, 0
1, 294517, Control_c, 0, 64, 0
1, 294520, Note_on_c, 0, 57, 83
1, 294520, Control_c, 0, 64, 0
1, 294520, Control_c, 0, 64, 0
1, 294523, Note_on_c, 0, 59, 0
1, 294523, Note_on_c, 0, 52, 0
1, 294523, Note_on_c, 0, 33, 68
1, 294526, Note_on_c, 0, 45, 77
1, 294546, Note_on_c, 0, 73, 0
1, 294546, Note_on_c, 0, 76, 0
1, 294546, Note_on_c, 0, 61, 0
1, 294549, Note_on_c, 0, 64, 0
1, 294678, Control_c, 0, 64, 127
1, 294678, Control_c, 0, 64, 127
1, 294767, Note_on_c, 0, 64, 59
1, 294767, Note_on_c, 0, 69, 59
1, 294767, Note_on_c, 0, 73, 59
1, 294770, Note_on_c, 0, 76, 67
1, 294770, Note_on_c, 0, 49, 58
1, 294770, Note_on_c, 0, 52, 58
1, 294773, Note_on_c, 0, 57, 64
1, 294953, Note_on_c, 0, 73, 0
1, 294953, Note_on_c, 0, 64, 0
1, 294953, Note_on_c, 0, 69, 0
1, 294956, Note_on_c, 0, 76, 0
1, 294956, Note_on_c, 0, 64, 60
1, 294956, Note_on_c, 0, 69, 60
1, 294959, Note_on_c, 0, 49, 0
1, 294959, Note_on_c, 0, 73, 60
1, 294959, Note_on_c, 0, 76, 68
1, 294962, Note_on_c, 0, 52, 0
1, 294962, Note_on_c, 0, 57, 0
1, 294962, Note_on_c, 0, 49, 58
1, 294965, Note_on_c, 0, 52, 58
1, 294965, Note_on_c, 0, 57, 65
1, 295120, Note_on_c, 0, 73, 0
1, 295120, Note_on_c, 0, 69, 0
1, 295120, Note_on_c, 0, 64, 0
1, 295123, Note_on_c, 0, 76, 0
1, 295123, Note_on_c, 0, 64, 62
1, 295123, Note_on_c, 0, 69, 62
1, 295126, Note_on_c, 0, 49, 0
1, 295126, Note_on_c, 0, 73, 62
1, 295126, Note_on_c, 0, 76, 69
1, 295129, Note_on_c, 0, 57, 0
1, 295129, Note_on_c, 0, 52, 0
1, 295129, Note_on_c, 0, 49, 59
1, 295132, Note_on_c, 0, 52, 59
1, 295132, Note_on_c, 0, 57, 66
1, 295264, Note_on_c, 0, 73, 0
1, 295264, Note_on_c, 0, 69, 0
1, 295264, Note_on_c, 0, 64, 0
1, 295267, Note_on_c, 0, 76, 0
1, 295267, Note_on_c, 0, 64, 63
1, 295267, Note_on_c, 0, 69, 63
1, 295270, Note_on_c, 0, 49, 0
1, 295270, Note_on_c, 0, 73, 63
1, 295270, Note_on_c, 0, 76, 71
1, 295273, Note_on_c, 0, 52, 0
1, 295273, Note_on_c, 0, 57, 0
1, 295273, Note_on_c, 0, 49, 60
1, 295276, Note_on_c, 0, 52, 60
1, 295276, Note_on_c, 0, 57, 67
1, 295408, Note_on_c, 0, 73, 0
1, 295408, Note_on_c, 0, 69, 0
1, 295408, Note_on_c, 0, 64, 0
1, 295411, Note_on_c, 0, 76, 0
1, 295411, Note_on_c, 0, 64, 64
1, 295411, Note_on_c, 0, 69, 64
1, 295414, Note_on_c, 0, 49, 0
1, 295414, Note_on_c, 0, 73, 64
1, 295414, Note_on_c, 0, 76, 72
1, 295417, Note_on_c, 0, 57, 0
1, 295417, Note_on_c, 0, 52, 0
1, 295417, Note_on_c, 0, 49, 61
1, 295420, Note_on_c, 0, 52, 61
1, 295420, Note_on_c, 0, 57, 68
1, 295643, Control_c, 0, 64, 0
1, 295643, Control_c, 0, 64, 0
1, 295658, Note_on_c, 0, 73, 0
1, 295658, Note_on_c, 0, 69, 0
1, 295658, Note_on_c, 0, 64, 0
1, 295661, Note_on_c, 0, 49, 0
1, 295661, Note_on_c, 0, 76, 0
1, 295661, Note_on_c, 0, 58, 88
1, 295664, Note_on_c, 0, 52, 0
1, 295664, Note_on_c, 0, 57, 0
1, 295664, Note_on_c, 0, 34, 74
1, 295667, Note_on_c, 0, 46, 83
1, 295687, Note_on_c, 0, 33, 0
1, 295687, Note_on_c, 0, 57, 0
1, 295687, Note_on_c, 0, 45, 0
1, 295908, Note_on_c, 0, 62, 59
1, 295908, Note_on_c, 0, 64, 59
1, 295908, Note_on_c, 0, 68, 59
1, 295911, Note_on_c, 0, 76, 67
1, 295911, Note_on_c, 0, 50, 58
1, 295911, Note_on_c, 0, 52, 58
1, 295914, Note_on_c, 0, 56, 64
1, 295939, Control_c, 0, 64, 127
1, 295939, Control_c, 0, 64, 127
1, 296074, Note_on_c, 0, 68, 0
1, 296074, Note_on_c, 0, 62, 0
1, 296074, Note_on_c, 0, 64, 0
1, 296077, Note_on_c, 0, 76, 0
1, 296077, Note_on_c, 0, 62, 62
1, 296077, Note_on_c, 0, 64, 62
1, 296080, Note_on_c, 0, 50, 0
1, 296080, Note_on_c, 0, 68, 62
1, 296080, Note_on_c, 0, 76, 69
1, 296083, Note_on_c, 0, 52, 0
1, 296083, Note_on_c, 0, 56, 0
1, 296083, Note_on_c, 0, 50, 58
1, 296086, Note_on_c, 0, 52, 58
1, 296086, Note_on_c, 0, 56, 65
1, 296218, Note_on_c, 0, 68, 0
1, 296218, Note_on_c, 0, 64, 0
1, 296218, Note_on_c, 0, 62, 0
1, 296221, Note_on_c, 0, 76, 0
1, 296221, Note_on_c, 0, 62, 64
1, 296221, Note_on_c, 0, 64, 64
1, 296224, Note_on_c, 0, 50, 0
1, 296224, Note_on_c, 0, 68, 64
1, 296224, Note_on_c, 0, 76, 72
1, 296227, Note_on_c, 0, 56, 0
1, 296227, Note_on_c, 0, 52, 0
1, 296227, Note_on_c, 0, 50, 59
1, 296230, Note_on_c, 0, 52, 59
1, 296230, Note_on_c, 0, 56, 66
1, 296362, Note_on_c, 0, 68, 0
1, 296362, Note_on_c, 0, 64, 0
1, 296362, Note_on_c, 0, 62, 0
1, 296365, Note_on_c, 0, 76, 0
1, 296365, Note_on_c, 0, 62, 66
1, 296365, Note_on_c, 0, 64, 66
1, 296368, Note_on_c, 0, 50, 0
1, 296368, Note_on_c, 0, 68, 66
1, 296368, Note_on_c, 0, 76, 75
1, 296371, Note_on_c, 0, 52, 0
1, 296371, Note_on_c, 0, 56, 0
1, 296371, Note_on_c, 0, 50, 60
1, 296374, Note_on_c, 0, 52, 60
1, 296374, Note_on_c, 0, 56, 67
1, 296506, Note_on_c, 0, 68, 0
1, 296506, Note_on_c, 0, 64, 0
1, 296506, Note_on_c, 0, 62, 0
1, 296509, Note_on_c, 0, 76, 0
1, 296509, Note_on_c, 0, 62, 68
1, 296509, Note_on_c, 0, 64, 68
1, 296512, Note_on_c, 0, 50, 0
1, 296512, Note_on_c, 0, 68, 68
1, 296512, Note_on_c, 0, 76, 78
1, 296515, Note_on_c, 0, 56, 0
1, 296515, Note_on_c, 0, 52, 0
1, 296515, Note_on_c, 0, 50, 61
1, 296518, Note_on_c, 0, 52, 61
1, 296518, Note_on_c, 0, 56, 68
1, 296569, Note_on_c, 0, 59, 98
1, 296569, Note_on_c, 0, 35, 84
1, 296569, Note_on_c, 0, 47, 93
1, 296591, Note_on_c, 0, 46, 0
1, 296591, Note_on_c, 0, 58, 0
1, 296591, Note_on_c, 0, 34, 0
1, 296698, Control_c, 0, 64, 0
1, 296698, Control_c, 0, 64, 0
1, 296709, Note_on_c, 0, 68, 0
1, 296709, Note_on_c, 0, 64, 0
1, 296709, Note_on_c, 0, 62, 0
1, 296712, Note_on_c, 0, 50, 0
1, 296712, Note_on_c, 0, 76, 0
1, 296712, Note_on_c, 0, 64, 99
1, 296715, Note_on_c, 0, 52, 0
1, 296715, Note_on_c, 0, 56, 0
1, 296715, Note_on_c, 0, 40, 85
1, 296718, Note_on_c, 0, 52, 94
1, 296738, Note_on_c, 0, 59, 0
1, 296738, Note_on_c, 0, 47, 0
1, 296738, Note_on_c, 0, 35, 0
1, 296959, Note_on_c, 0, 64, 65
1, 296959, Note_on_c, 0, 69, 65
1, 296959, Note_on_c, 0, 73, 65
1, 296962, Note_on_c, 0, 76, 77
1, 296962, Note_on_c, 0, 49, 56
1, 296962, Note_on_c, 0, 52, 56
1, 296965, Note_on_c, 0, 57, 65
1, 296970, Control_c, 0, 64, 127
1, 296970, Control_c, 0, 64, 127
1, 297146, Note_on_c, 0, 73, 0
1, 297146, Note_on_c, 0, 64, 0
1, 297146, Note_on_c, 0, 69, 0
1, 297149, Note_on_c, 0, 76, 0
1, 297149, Note_on_c, 0, 64, 65
1, 297149, Note_on_c, 0, 69, 65
1, 297152, Note_on_c, 0, 49, 0
1, 297152, Note_on_c, 0, 73, 65
1, 297152, Note_on_c, 0, 76, 77
1, 297155, Note_on_c, 0, 52, 0
1, 297155, Note_on_c, 0, 57, 0
1, 297155, Note_on_c, 0, 49, 56
1, 297158, Note_on_c, 0, 52, 56
1, 297158, Note_on_c, 0, 57, 65
1, 297333, Note_on_c, 0, 73, 0
1, 297333, Note_on_c, 0, 69, 0
1, 297333, Note_on_c, 0, 64, 0
1, 297336, Note_on_c, 0, 49, 0
1, 297336, Note_on_c, 0, 76, 0
1, 297336, Note_on_c, 0, 57, 88
1, 297339, Note_on_c, 0, 52, 0
1, 297339, Note_on_c, 0, 57, 0
1, 297339, Note_on_c, 0, 33, 65
1, 297342, Note_on_c, 0, 45, 77
1, 297358, Note_on_c, 0, 40, 0
1, 297358, Note_on_c, 0, 64, 0
1, 297358, Note_on_c, 0, 52, 0
1, 297421, Control_c, 0, 64, 0
1, 297421, Control_c, 0, 64, 0
1, 297523, Control_c, 0, 64, 127
1, 297523, Control_c, 0, 64, 127
1, 297548, Note_on_c, 0, 64, 64
1, 297548, Note_on_c, 0, 69, 64
1, 297548, Note_on_c, 0, 73, 64
1, 297551, Note_on_c, 0, 76, 72
1, 297551, Note_on_c, 0, 49, 58
1, 297551, Note_on_c, 0, 52, 58
1, 297554, Note_on_c, 0, 57, 64
1, 297713, Note_on_c, 0, 73, 0
1, 297713, Note_on_c, 0, 64, 0
1, 297713, Note_on_c, 0, 69, 0
1, 297716, Note_on_c, 0, 76, 0
1, 297716, Note_on_c, 0, 64, 65
1, 297716, Note_on_c, 0, 69, 65
1, 297719, Note_on_c, 0, 49, 0
1, 297719, Note_on_c, 0, 73, 65
1, 297719, Note_on_c, 0, 76, 73
1, 297722, Note_on_c, 0, 52, 0
1, 297722, Note_on_c, 0, 57, 0
1, 297722, Note_on_c, 0, 49, 58
1, 297725, Note_on_c, 0, 52, 58
1, 297725, Note_on_c, 0, 57, 65
1, 297858, Note_on_c, 0, 73, 0
1, 297858, Note_on_c, 0, 69, 0
1, 297858, Note_on_c, 0, 64, 0
1, 297861, Note_on_c, 0, 76, 0
1, 297861, Note_on_c, 0, 64, 66
1, 297861, Note_on_c, 0, 69, 66
1, 297864, Note_on_c, 0, 49, 0
1, 297864, Note_on_c, 0, 73, 66
1, 297864, Note_on_c, 0, 76, 75
1, 297867, Note_on_c, 0, 57, 0
1, 297867, Note_on_c, 0, 52, 0
1, 297867, Note_on_c, 0, 49, 59
1, 297870, Note_on_c, 0, 52, 59
1, 297870, Note_on_c, 0, 57, 66
1, 298002, Note_on_c, 0, 73, 0
1, 298002, Note_on_c, 0, 69, 0
1, 298002, Note_on_c, 0, 64, 0
1, 298005, Note_on_c, 0, 76, 0
1, 298005, Note_on_c, 0, 64, 67
1, 298005, Note_on_c, 0, 69, 67
1, 298008, Note_on_c, 0, 49, 0
1, 298008, Note_on_c, 0, 73, 67
1, 298008, Note_on_c, 0, 76, 77
1, 298011, Note_on_c, 0, 52, 0
1, 298011, Note_on_c, 0, 57, 0
1, 298011, Note_on_c, 0, 49, 60
1, 298014, Note_on_c, 0, 52, 60
1, 298014, Note_on_c, 0, 57, 67
1, 298145, Note_on_c, 0, 73, 0
1, 298145, Note_on_c, 0, 69, 0
1, 298145, Note_on_c, 0, 64, 0
1, 298148, Note_on_c, 0, 76, 0
1, 298148, Note_on_c, 0, 64, 68
1, 298148, Note_on_c, 0, 69, 68
1, 298151, Note_on_c, 0, 49, 0
1, 298151, Note_on_c, 0, 73, 68
1, 298151, Note_on_c, 0, 76, 78
1, 298154, Note_on_c, 0, 57, 0
1, 298154, Note_on_c, 0, 52, 0
1, 298154, Note_on_c, 0, 49, 61
1, 298157, Note_on_c, 0, 52, 61
1, 298157, Note_on_c, 0, 57, 68
1, 298273, Control_c, 0, 64, 0
1, 298273, Control_c, 0, 64, 0
1, 298290, Note_on_c, 0, 73, 0
1, 298290, Note_on_c, 0, 69, 0
1, 298290, Note_on_c, 0, 64, 0
1, 298293, Note_on_c, 0, 49, 0
1, 298293, Note_on_c, 0, 76, 0
1, 298293, Note_on_c, 0, 64, 103
1, 298296, Note_on_c, 0, 52, 0
1, 298296, Note_on_c, 0, 57, 0
1, 298296, Note_on_c, 0, 52, 99
1, 298315, Note_on_c, 0, 33, 0
1, 298315, Note_on_c, 0, 45, 0
1, 298315, Note_on_c, 0, 57, 0
1, 298390, Control_c, 0, 64, 127
1, 298390, Control_c, 0, 64, 127
1, 298504, Note_on_c, 0, 56, 68
1, 298504, Note_on_c, 0, 60, 77
1, 298504, Note_on_c, 0, 44, 56
1, 298507, Note_on_c, 0, 48, 65
1, 298670, Note_on_c, 0, 60, 0
1, 298670, Note_on_c, 0, 56, 0
1, 298670, Note_on_c, 0, 56, 68
1, 298673, Note_on_c, 0, 44, 0
1, 298673, Note_on_c, 0, 48, 0
1, 298673, Note_on_c, 0, 60, 77
1, 298676, Note_on_c, 0, 44, 56
1, 298676, Note_on_c, 0, 48, 65
1, 298733, Note_on_c, 0, 63, 103
1, 298733, Note_on_c, 0, 51, 99
1, 298752, Note_on_c, 0, 52, 0
1, 298752, Note_on_c, 0, 64, 0
1, 298818, Control_c, 0, 64, 0
1, 298818, Control_c, 0, 64, 0
1, 298857, Note_on_c, 0, 56, 0
1, 298857, Control_c, 0, 64, 127
1, 298857, Control_c, 0, 64, 0
1, 298860, Note_on_c, 0, 60, 0
1, 298860, Note_on_c, 0, 61, 110
1, 298860, Control_c, 0, 64, 127
1, 298863, Control_c, 0, 64, 0
1, 298863, Control_c, 0, 64, 0
1, 298863, Control_c, 0, 64, 0
1, 298866, Note_on_c, 0, 44, 0
1, 298866, Note_on_c, 0, 48, 0
1, 298866, Note_on_c, 0, 49, 103
1, 298877, Note_on_c, 0, 51, 0
1, 298877, Note_on_c, 0, 63, 0
1, 298925, Control_c, 0, 64, 0
1, 298925, Control_c, 0, 64, 0
1, 299024, Note_on_c, 0, 52, 80
1, 299024, Note_on_c, 0, 56, 89
1, 299024, Note_on_c, 0, 40, 68
1, 299027, Control_c, 0, 64, 127
1, 299027, Note_on_c, 0, 44, 77
1, 299027, Control_c, 0, 64, 127
1, 299190, Note_on_c, 0, 56, 0
1, 299190, Note_on_c, 0, 52, 0
1, 299190, Note_on_c, 0, 52, 80
1, 299193, Note_on_c, 0, 40, 0
1, 299193, Note_on_c, 0, 44, 0
1, 299193, Note_on_c, 0, 56, 89
1, 299196, Note_on_c, 0, 40, 77
1, 299196, Note_on_c, 0, 44, 77
1, 299253, Note_on_c, 0, 63, 110
1, 299253, Note_on_c, 0, 51, 103
1, 299272, Note_on_c, 0, 49, 0
1, 299272, Note_on_c, 0, 61, 0
1, 299378, Note_on_c, 0, 56, 0
1, 299378, Note_on_c, 0, 52, 0
1, 299378, Note_on_c, 0, 64, 110
1, 299381, Note_on_c, 0, 40, 0
1, 299381, Note_on_c, 0, 44, 0
1, 299381, Note_on_c, 0, 52, 103
1, 299394, Control_c, 0, 64, 0
1, 299394, Control_c, 0, 64, 0
1, 299397, Note_on_c, 0, 51, 0
1, 299397, Note_on_c, 0, 63, 0
1, 299496, Control_c, 0, 64, 127
1, 299496, Control_c, 0, 64, 127
1, 299544, Note_on_c, 0, 56, 68
1, 299544, Note_on_c, 0, 61, 77
1, 299544, Note_on_c, 0, 44, 72
1, 299547, Note_on_c, 0, 49, 81
1, 299688, Note_on_c, 0, 61, 0
1, 299688, Note_on_c, 0, 56, 0
1, 299688, Note_on_c, 0, 56, 70
1, 299691, Note_on_c, 0, 44, 0
1, 299691, Note_on_c, 0, 49, 0
1, 299691, Note_on_c, 0, 61, 80
1, 299694, Note_on_c, 0, 44, 73
1, 299694, Note_on_c, 0, 49, 84
1, 299832, Note_on_c, 0, 61, 0
1, 299832, Note_on_c, 0, 56, 0
1, 299832, Note_on_c, 0, 56, 73
1, 299835, Note_on_c, 0, 44, 0
1, 299835, Note_on_c, 0, 49, 0
1, 299835, Note_on_c, 0, 61, 83
1, 299838, Note_on_c, 0, 44, 75
1, 299838, Note_on_c, 0, 49, 86
1, 299976, Note_on_c, 0, 61, 0
1, 299976, Note_on_c, 0, 56, 0
1, 299976, Note_on_c, 0, 56, 75
1, 299979, Note_on_c, 0, 44, 0
1, 299979, Note_on_c, 0, 49, 0
1, 299979, Note_on_c, 0, 61, 85
1, 299982, Note_on_c, 0, 44, 77
1, 299982, Note_on_c, 0, 49, 88
1, 300120, Note_on_c, 0, 61, 0
1, 300120, Note_on_c, 0, 56, 0
1, 300120, Note_on_c, 0, 56, 77
1, 300123, Note_on_c, 0, 44, 0
1, 300123, Note_on_c, 0, 49, 0
1, 300123, Note_on_c, 0, 61, 88
1, 300126, Note_on_c, 0, 44, 79
1, 300126, Note_on_c, 0, 49, 90
1, 300334, Note_on_c, 0, 61, 0
1, 300334, Note_on_c, 0, 56, 0
1, 300334, Note_on_c, 0, 61, 102
1, 300337, Note_on_c, 0, 44, 0
1, 300337, Note_on_c, 0, 49, 0
1, 300337, Note_on_c, 0, 73, 116
1, 300340, Note_on_c, 0, 37, 102
1, 300340, Note_on_c, 0, 49, 116
1, 300363, Note_on_c, 0, 52, 0
1, 300363, Note_on_c, 0, 64, 0
1, 300368, Control_c, 0, 64, 0
1, 300368, Control_c, 0, 64, 0
1, 300488, Control_c, 0, 64, 127
1, 300488, Control_c, 0, 64, 127
1, 300584, Note_on_c, 0, 64, 68
1, 300584, Note_on_c, 0, 68, 77
1, 300584, Note_on_c, 0, 56, 68
1, 300587, Note_on_c, 0, 61, 77
1, 300833, Note_on_c, 0, 68, 0
1, 300833, Note_on_c, 0, 64, 0
1, 300833, Note_on_c, 0, 64, 68
1, 300836, Note_on_c, 0, 61, 0
1, 300836, Note_on_c, 0, 56, 0
1, 300836, Note_on_c, 0, 68, 77
1, 300839, Note_on_c, 0, 56, 68
1, 300839, Note_on_c, 0, 61, 77
1, 300887, Note_on_c, 0, 63, 97
1, 300887, Note_on_c, 0, 75, 113
1, 300887, Note_on_c, 0, 39, 97
1, 300890, Note_on_c, 0, 51, 112
1, 300906, Note_on_c, 0, 37, 0
1, 300906, Note_on_c, 0, 73, 0
1, 300906, Note_on_c, 0, 61, 0
1, 300909, Note_on_c, 0, 49, 0
1, 301012, Note_on_c, 0, 64, 0
1, 301012, Note_on_c, 0, 68, 0
1, 301012, Note_on_c, 0, 64, 105
1, 301015, Note_on_c, 0, 61, 0
1, 301015, Note_on_c, 0, 56, 0
1, 301015, Note_on_c, 0, 76, 117
1, 301018, Note_on_c, 0, 40, 104
1, 301018, Note_on_c, 0, 52, 117
1, 301031, Note_on_c, 0, 63, 0
1, 301031, Note_on_c, 0, 75, 0
1, 301031, Note_on_c, 0, 39, 0
1, 301034, Note_on_c, 0, 51, 0
1, 301034, Control_c, 0, 64, 0
1, 301034, Control_c, 0, 64, 0
1, 301135, Control_c, 0, 64, 127
1, 301135, Control_c, 0, 64, 127
1, 301178, Note_on_c, 0, 64, 68
1, 301178, Note_on_c, 0, 68, 77
1, 301178, Note_on_c, 0, 56, 68
1, 301181, Note_on_c, 0, 61, 77
1, 301344, Note_on_c, 0, 68, 0
1, 301344, Note_on_c, 0, 64, 0
1, 301344, Note_on_c, 0, 64, 68
1, 301347, Note_on_c, 0, 61, 0
1, 301347, Note_on_c, 0, 56, 0
1, 301347, Note_on_c, 0, 68, 77
1, 301350, Note_on_c, 0, 56, 68
1, 301350, Note_on_c, 0, 61, 77
1, 301386, Note_on_c, 0, 64, 0
1, 301386, Note_on_c, 0, 66, 101
1, 301386, Note_on_c, 0, 78, 117
1, 301389, Note_on_c, 0, 42, 100
1, 301389, Note_on_c, 0, 54, 115
1, 301405, Note_on_c, 0, 52, 0
1, 301405, Note_on_c, 0, 76, 0
1, 301405, Note_on_c, 0, 40, 0
1, 301511, Note_on_c, 0, 64, 0
1, 301511, Note_on_c, 0, 68, 0
1, 301511, Note_on_c, 0, 68, 111
1, 301514, Note_on_c, 0, 61, 0
1, 301514, Note_on_c, 0, 56, 0
1, 301514, Note_on_c, 0, 80, 117
1, 301517, Note_on_c, 0, 44, 110
1, 301517, Note_on_c, 0, 56, 117
1, 301530, Note_on_c, 0, 66, 0
1, 301530, Note_on_c, 0, 78, 0
1, 301530, Note_on_c, 0, 42, 0
1, 301533, Note_on_c, 0, 54, 0
1, 301550, Control_c, 0, 64, 0
1, 301550, Control_c, 0, 64, 0
1, 301651, Control_c, 0, 64, 127
1, 301651, Control_c, 0, 64, 127
1, 301677, Note_on_c, 0, 64, 68
1, 301677, Note_on_c, 0, 68, 77
1, 301677, Note_on_c, 0, 56, 68
1, 301680, Note_on_c, 0, 61, 77
1, 301843, Note_on_c, 0, 64, 0
1, 301843, Note_on_c, 0, 68, 0
1, 301843, Note_on_c, 0, 64, 70
1, 301846, Note_on_c, 0, 61, 0
1, 301846, Note_on_c, 0, 56, 0
1, 301846, Note_on_c, 0, 68, 80
1, 301849, Note_on_c, 0, 56, 71
1, 301849, Note_on_c, 0, 61, 81
1, 301987, Note_on_c, 0, 68, 0
1, 301987, Note_on_c, 0, 64, 0
1, 301987, Note_on_c, 0, 64, 73
1, 301990, Note_on_c, 0, 61, 0
1, 301990, Note_on_c, 0, 56, 0
1, 301990, Note_on_c, 0, 68, 84
1, 301993, Note_on_c, 0, 56, 74
1, 301993, Note_on_c, 0, 61, 85
1, 302132, Note_on_c, 0, 68, 0
1, 302132, Note_on_c, 0, 64, 0
1, 302132, Note_on_c, 0, 64, 76
1, 302135, Note_on_c, 0, 61, 0
1, 302135, Note_on_c, 0, 56, 0
1, 302135, Note_on_c, 0, 68, 87
1, 302138, Note_on_c, 0, 56, 77
1, 302138, Note_on_c, 0, 61, 88
1, 302275, Note_on_c, 0, 68, 0
1, 302275, Note_on_c, 0, 64, 0
1, 302275, Note_on_c, 0, 64, 79
1, 302278, Note_on_c, 0, 61, 0
1, 302278, Note_on_c, 0, 56, 0
1, 302278, Note_on_c, 0, 68, 90
1, 302281, Note_on_c, 0, 56, 80
1, 302281, Note_on_c, 0, 61, 92
1, 302311, Note_on_c, 0, 46, 117
1, 302419, Note_on_c, 0, 68, 0
1, 302419, Note_on_c, 0, 68, 0
1, 302419, Note_on_c, 0, 64, 0
1, 302422, Note_on_c, 0, 56, 0
1, 302422, Note_on_c, 0, 70, 110
1, 302422, Note_on_c, 0, 82, 117
1, 302425, Note_on_c, 0, 61, 0
1, 302425, Note_on_c, 0, 56, 0
1, 302425, Note_on_c, 0, 58, 117
1, 302449, Note_on_c, 0, 80, 0
1, 302449, Note_on_c, 0, 44, 0
1, 302478, Control_c, 0, 64, 0
1, 302478, Control_c, 0, 64, 0
1, 302579, Control_c, 0, 64, 127
1, 302579, Control_c, 0, 64, 127
1, 302670, Note_on_c, 0, 66, 80
1, 302670, Note_on_c, 0, 68, 89
1, 302670, Note_on_c, 0, 56, 80
1, 302673, Note_on_c, 0, 60, 80
1, 302673, Note_on_c, 0, 63, 89
1, 302918, Note_on_c, 0, 68, 0
1, 302918, Note_on_c, 0, 66, 0
1, 302918, Note_on_c, 0, 66, 80
1, 302921, Note_on_c, 0, 60, 0
1, 302921, Note_on_c, 0, 56, 0
1, 302921, Note_on_c, 0, 68, 89
1, 302924, Note_on_c, 0, 63, 0
1, 302924, Note_on_c, 0, 56, 80
1, 302924, Note_on_c, 0, 60, 80
1, 302927, Note_on_c, 0, 63, 89
1, 302981, Note_on_c, 0, 72, 112
1, 302981, Note_on_c, 0, 84, 117
1, 302981, Note_on_c, 0, 48, 117
1, 302984, Note_on_c, 0, 60, 117
1, 303001, Note_on_c, 0, 70, 0
1, 303001, Note_on_c, 0, 46, 0
1, 303001, Note_on_c, 0, 82, 0
1, 303004, Note_on_c, 0, 58, 0
1, 303061, Control_c, 0, 64, 0
1, 303061, Control_c, 0, 64, 0
1, 303106, Note_on_c, 0, 66, 0
1, 303106, Control_c, 0, 64, 0
1, 303106, Control_c, 0, 64, 0
1, 303109, Note_on_c, 0, 68, 0
1, 303109, Note_on_c, 0, 73, 115
1, 303109, Note_on_c, 0, 85, 117
1, 303112, Control_c, 0, 64, 0
1, 303112, Control_c, 0, 64, 0
1, 303112, Control_c, 0, 64, 0
1, 303115, Note_on_c, 0, 60, 0
1, 303115, Note_on_c, 0, 56, 0
1, 303115, Control_c, 0, 64, 0
1, 303118, Note_on_c, 0, 60, 0
1, 303118, Note_on_c, 0, 63, 0
1, 303118, Note_on_c, 0, 37, 99
1, 303121, Note_on_c, 0, 49, 111
1, 303125, Note_on_c, 0, 72, 0
1, 303125, Note_on_c, 0, 84, 0
1, 303125, Note_on_c, 0, 48, 0
1, 303234, Control_c, 0, 64, 127
1, 303234, Control_c, 0, 64, 127
1, 303273, Note_on_c, 0, 64, 68
1, 303273, Note_on_c, 0, 68, 77
1, 303273, Note_on_c, 0, 56, 68
1, 303276, Note_on_c, 0, 61, 77
1, 303416, Note_on_c, 0, 68, 0
1, 303416, Note_on_c, 0, 64, 0
1, 303416, Note_on_c, 0, 64, 70
1, 303419, Note_on_c, 0, 61, 0
1, 303419, Note_on_c, 0, 56, 0
1, 303419, Note_on_c, 0, 68, 81
1, 303422, Note_on_c, 0, 56, 70
1, 303422, Note_on_c, 0, 61, 79
1, 303560, Note_on_c, 0, 68, 0
1, 303560, Note_on_c, 0, 64, 0
1, 303560, Note_on_c, 0, 64, 74
1, 303563, Note_on_c, 0, 61, 0
1, 303563, Note_on_c, 0, 56, 0
1, 303563, Note_on_c, 0, 68, 85
1, 303566, Note_on_c, 0, 56, 72
1, 303566, Note_on_c, 0, 61, 81
1, 303727, Note_on_c, 0, 68, 0
1, 303727, Note_on_c, 0, 64, 0
1, 303727, Note_on_c, 0, 64, 76
1, 303730, Note_on_c, 0, 61, 0
1, 303730, Note_on_c, 0, 56, 0
1, 303730, Note_on_c, 0, 68, 87
1, 303733, Note_on_c, 0, 56, 73
1, 303733, Note_on_c, 0, 61, 84
1, 303914, Note_on_c, 0, 68, 0
1, 303914, Note_on_c, 0, 64, 0
1, 303914, Note_on_c, 0, 64, 79
1, 303917, Note_on_c, 0, 61, 0
1, 303917, Note_on_c, 0, 56, 0
1, 303917, Note_on_c, 0, 68, 92
1, 303920, Note_on_c, 0, 56, 75
1, 303920, Note_on_c, 0, 61, 86
1, 304128, Note_on_c, 0, 85, 0
1, 304128, Note_on_c, 0, 73, 0
1, 304128, Note_on_c, 0, 64, 0
1, 304131, Note_on_c, 0, 68, 0
1, 304131, Note_on_c, 0, 64, 68
1, 304131, Note_on_c, 0, 68, 77
1, 304134, Note_on_c, 0, 37, 0
1, 304134, Note_on_c, 0, 49, 0
1, 304134, Note_on_c, 0, 76, 112
1, 304137, Note_on_c, 0, 49, 99
1, 304142, Control_c, 0, 64, 0
1, 304142, Control_c, 0, 64, 0
1, 304692, Control_c, 0, 64, 127
1, 304692, Control_c, 0, 64, 127
1, 304770, Note_on_c, 0, 49, 0
1, 304770, Note_on_c, 0, 56, 0
1, 304770, Note_on_c, 0, 61, 0
1, 304773, Note_on_c, 0, 56, 99
1, 305219, Note_on_c, 0, 56, 0
1, 305219, Note_on_c, 0, 56, 99
1, 305379, Note_on_c, 0, 32, 88
1, 305379, Note_on_c, 0, 44, 88
1, 305604, Note_on_c, 0, 64, 0
1, 305604, Note_on_c, 0, 68, 0
1, 305604, Control_c, 0, 64, 0
1, 305607, Note_on_c, 0, 76, 0
1, 305607, Note_on_c, 0, 78, 92
1, 305607, Control_c, 0, 64, 0
1, 305610, Note_on_c, 0, 56, 0
1, 305610, Control_c, 0, 64, 0
1, 305610, Note_on_c, 0, 56, 92
1, 305829, Control_c, 0, 64, 127
1, 305829, Control_c, 0, 64, 127
1, 305904, Note_on_c, 0, 72, 70
1, 305904, Note_on_c, 0, 75, 79
1, 306070, Note_on_c, 0, 75, 0
1, 306070, Note_on_c, 0, 72, 0
1, 306070, Note_on_c, 0, 72, 64
1, 306073, Note_on_c, 0, 75, 73
1, 306133, Note_on_c, 0, 80, 93
1, 306152, Note_on_c, 0, 78, 0
1, 306258, Note_on_c, 0, 72, 0
1, 306258, Note_on_c, 0, 75, 0
1, 306258, Note_on_c, 0, 81, 95
1, 306261, Note_on_c, 0, 60, 92
1, 306277, Note_on_c, 0, 56, 0
1, 306277, Note_on_c, 0, 80, 0
1, 306320, Control_c, 0, 64, 0
1, 306320, Control_c, 0, 64, 0
1, 306393, Control_c, 0, 64, 127
1, 306393, Control_c, 0, 64, 127
1, 306424, Note_on_c, 0, 69, 70
1, 306424, Note_on_c, 0, 72, 79
1, 306590, Note_on_c, 0, 72, 0
1, 306590, Note_on_c, 0, 69, 0
1, 306590, Note_on_c, 0, 69, 64
1, 306593, Note_on_c, 0, 72, 73
1, 306653, Note_on_c, 0, 80, 94
1, 306673, Note_on_c, 0, 81, 0
1, 306778, Note_on_c, 0, 69, 0
1, 306778, Note_on_c, 0, 72, 0
1, 306778, Control_c, 0, 64, 0
1, 306781, Note_on_c, 0, 78, 93
1, 306781, Control_c, 0, 64, 0
1, 306781, Note_on_c, 0, 63, 97
1, 306797, Note_on_c, 0, 80, 0
1, 306797, Note_on_c, 0, 60, 0
1, 306851, Control_c, 0, 64, 127
1, 306851, Control_c, 0, 64, 127
1, 306945, Note_on_c, 0, 66, 70
1, 306945, Note_on_c, 0, 69, 79
1, 307110, Note_on_c, 0, 69, 0
1, 307110, Note_on_c, 0, 66, 0
1, 307110, Note_on_c, 0, 66, 64
1, 307113, Note_on_c, 0, 69, 73
1, 307173, Note_on_c, 0, 76, 92
1, 307193, Note_on_c, 0, 78, 0
1, 307298, Note_on_c, 0, 66, 0
1, 307298, Note_on_c, 0, 69, 0
1, 307298, Note_on_c, 0, 75, 92
1, 307301, Note_on_c, 0, 61, 90
1, 307317, Note_on_c, 0, 76, 0
1, 307317, Note_on_c, 0, 63, 0
1, 307346, Control_c, 0, 64, 0
1, 307346, Control_c, 0, 64, 0
1, 307430, Control_c, 0, 64, 127
1, 307430, Control_c, 0, 64, 127
1, 307465, Note_on_c, 0, 66, 70
1, 307465, Note_on_c, 0, 69, 79
1, 307630, Note_on_c, 0, 69, 0
1, 307630, Note_on_c, 0, 66, 0
1, 307630, Note_on_c, 0, 66, 64
1, 307633, Note_on_c, 0, 69, 73
1, 307693, Note_on_c, 0, 44, 0
1, 307693, Note_on_c, 0, 32, 0
1, 307693, Note_on_c, 0, 76, 90
1, 307696, Note_on_c, 0, 32, 77
1, 307696, Note_on_c, 0, 44, 77
1, 307713, Note_on_c, 0, 75, 0
1, 307818, Note_on_c, 0, 66, 0
1, 307818, Note_on_c, 0, 69, 0
1, 307818, Note_on_c, 0, 75, 90
1, 307821, Note_on_c, 0, 60, 88
1, 307843, Note_on_c, 0, 76, 0
1, 307843, Note_on_c, 0, 61, 0
1, 307843, Control_c, 0, 64, 0
1, 307843, Control_c, 0, 64, 0
1, 307938, Control_c, 0, 64, 127
1, 307938, Control_c, 0, 64, 127
1, 308032, Note_on_c, 0, 66, 70
1, 308032, Note_on_c, 0, 69, 79
1, 308246, Note_on_c, 0, 69, 0
1, 308246, Note_on_c, 0, 66, 0
1, 308246, Note_on_c, 0, 66, 64
1, 308249, Note_on_c, 0, 69, 73
1, 308308, Note_on_c, 0, 76, 93
1, 308328, Note_on_c, 0, 75, 0
1, 308433, Note_on_c, 0, 66, 0
1, 308433, Note_on_c, 0, 69, 0
1, 308433, Note_on_c, 0, 78, 96
1, 308436, Note_on_c, 0, 57, 88
1, 308453, Note_on_c, 0, 76, 0
1, 308453, Note_on_c, 0, 60, 0
1, 308485, Control_c, 0, 64, 0
1, 308485, Control_c, 0, 64, 0
1, 308579, Control_c, 0, 64, 127
1, 308579, Control_c, 0, 64, 127
1, 308600, Note_on_c, 0, 63, 70
1, 308600, Note_on_c, 0, 66, 79
1, 308766, Note_on_c, 0, 66, 0
1, 308766, Note_on_c, 0, 63, 0
1, 308766, Note_on_c, 0, 63, 64
1, 308769, Note_on_c, 0, 66, 73
1, 308829, Note_on_c, 0, 73, 95
1, 308848, Note_on_c, 0, 78, 0
1, 308953, Note_on_c, 0, 63, 0
1, 308953, Note_on_c, 0, 66, 0
1, 308953, Note_on_c, 0, 72, 94
1, 308956, Note_on_c, 0, 56, 86
1, 308964, Control_c, 0, 64, 0
1, 308964, Control_c, 0, 64, 0
1, 308973, Note_on_c, 0, 73, 0
1, 308973, Note_on_c, 0, 57, 0
1, 309058, Control_c, 0, 64, 127
1, 309058, Control_c, 0, 64, 127
1, 309120, Note_on_c, 0, 63, 70
1, 309120, Note_on_c, 0, 66, 79
1, 309286, Note_on_c, 0, 66, 0
1, 309286, Note_on_c, 0, 63, 0
1, 309286, Note_on_c, 0, 63, 64
1, 309289, Note_on_c, 0, 66, 73
1, 309349, Note_on_c, 0, 73, 90
1, 309368, Note_on_c, 0, 72, 0
1, 309474, Note_on_c, 0, 63, 0
1, 309474, Note_on_c, 0, 66, 0
1, 309474, Note_on_c, 0, 75, 89
1, 309477, Note_on_c, 0, 54, 87
1, 309493, Note_on_c, 0, 73, 0
1, 309493, Note_on_c, 0, 56, 0
1, 309525, Control_c, 0, 64, 0
1, 309525, Control_c, 0, 64, 0
1, 309598, Control_c, 0, 64, 127
1, 309598, Control_c, 0, 64, 127
1, 309640, Note_on_c, 0, 60, 70
1, 309640, Note_on_c, 0, 63, 79
1, 309806, Note_on_c, 0, 63, 0
1, 309806, Note_on_c, 0, 60, 0
1, 309806, Note_on_c, 0, 60, 64
1, 309809, Note_on_c, 0, 63, 73
1, 309869, Note_on_c, 0, 44, 0
1, 309869, Note_on_c, 0, 32, 0
1, 309869, Note_on_c, 0, 69, 85
1, 309872, Note_on_c, 0, 32, 73
1, 309872, Note_on_c, 0, 44, 73
1, 309888, Note_on_c, 0, 75, 0
1, 309963, Control_c, 0, 64, 0
1, 309963, Control_c, 0, 64, 0
1, 309994, Note_on_c, 0, 60, 0
1, 309994, Control_c, 0, 64, 0
1, 309994, Control_c, 0, 64, 0
1, 309997, Note_on_c, 0, 63, 0
1, 309997, Note_on_c, 0, 68, 86
1, 309997, Control_c, 0, 64, 0
1, 310000, Control_c, 0, 64, 0
1, 310000, Control_c, 0, 64, 0
1, 310000, Control_c, 0, 64, 0
1, 310003, Note_on_c, 0, 54, 0
1, 310003, Note_on_c, 0, 54, 88
1, 310013, Note_on_c, 0, 69, 0
1, 310119, Control_c, 0, 64, 127
1, 310119, Control_c, 0, 64, 127
1, 310160, Note_on_c, 0, 60, 65
1, 310160, Note_on_c, 0, 63, 73
1, 310326, Note_on_c, 0, 63, 0
1, 310326, Note_on_c, 0, 60, 0
1, 310326, Note_on_c, 0, 60, 60
1, 310329, Note_on_c, 0, 63, 68
1, 310389, Note_on_c, 0, 69, 85
1, 310409, Note_on_c, 0, 68, 0
1, 310514, Note_on_c, 0, 60, 0
1, 310514, Note_on_c, 0, 63, 0
1, 310514, Note_on_c, 0, 68, 86
1, 310517, Note_on_c, 0, 52, 85
1, 310533, Note_on_c, 0, 54, 0
1, 310533, Note_on_c, 0, 69, 0
1, 310576, Control_c, 0, 64, 0
1, 310576, Control_c, 0, 64, 0
1, 310649, Control_c, 0, 64, 127
1, 310649, Control_c, 0, 64, 127
1, 310681, Note_on_c, 0, 61, 65
1, 310681, Note_on_c, 0, 64, 72
1, 310846, Note_on_c, 0, 64, 0
1, 310846, Note_on_c, 0, 61, 0
1, 310846, Note_on_c, 0, 61, 59
1, 310849, Note_on_c, 0, 64, 67
1, 310909, Note_on_c, 0, 44, 0
1, 310909, Note_on_c, 0, 32, 0
1, 310909, Note_on_c, 0, 69, 85
1, 310912, Note_on_c, 0, 32, 69
1, 310912, Note_on_c, 0, 44, 69
1, 310929, Note_on_c, 0, 68, 0
1, 311034, Note_on_c, 0, 61, 0
1, 311034, Note_on_c, 0, 64, 0
1, 311034, Control_c, 0, 64, 0
1, 311037, Note_on_c, 0, 68, 83
1, 311037, Control_c, 0, 64, 0
1, 311037, Note_on_c, 0, 51, 81
1, 311054, Note_on_c, 0, 69, 0
1, 311054, Note_on_c, 0, 52, 0
1, 311107, Control_c, 0, 64, 127
1, 311107, Control_c, 0, 64, 127
1, 311201, Note_on_c, 0, 60, 63
1, 311201, Note_on_c, 0, 66, 71
1, 311367, Note_on_c, 0, 66, 0
1, 311367, Note_on_c, 0, 60, 0
1, 311367, Note_on_c, 0, 60, 58
1, 311370, Note_on_c, 0, 66, 65
1, 311429, Note_on_c, 0, 69, 81
1, 311449, Note_on_c, 0, 68, 0
1, 311554, Note_on_c, 0, 60, 0
1, 311554, Note_on_c, 0, 66, 0
1, 311554, Note_on_c, 0, 68, 85
1, 311557, Note_on_c, 0, 52, 84
1, 311574, Note_on_c, 0, 69, 0
1, 311574, Note_on_c, 0, 51, 0
1, 311602, Control_c, 0, 64, 0
1, 311602, Control_c, 0, 64, 0
1, 311686, Control_c, 0, 64, 127
1, 311686, Control_c, 0, 64, 127
1, 311721, Note_on_c, 0, 61, 59
1, 311721, Note_on_c, 0, 64, 67
1, 311887, Note_on_c, 0, 64, 0
1, 311887, Note_on_c, 0, 61, 0
1, 311887, Note_on_c, 0, 61, 54
1, 311890, Note_on_c, 0, 64, 61
1, 311950, Note_on_c, 0, 71, 86
1, 311979, Note_on_c, 0, 68, 0
1, 312137, Note_on_c, 0, 61, 0
1, 312137, Note_on_c, 0, 64, 0
1, 312137, Note_on_c, 0, 69, 86
1, 312140, Note_on_c, 0, 32, 0
1, 312140, Note_on_c, 0, 44, 0
1, 312140, Note_on_c, 0, 37, 75
1, 312143, Note_on_c, 0, 49, 89
1, 312162, Note_on_c, 0, 71, 0
1, 312162, Note_on_c, 0, 52, 0
1, 312162, Control_c, 0, 64, 0
1, 312162, Control_c, 0, 64, 0
1, 312257, Control_c, 0, 64, 127
1, 312257, Control_c, 0, 64, 127
1, 312351, Note_on_c, 0, 57, 70
1, 312351, Note_on_c, 0, 64, 79
1, 312564, Note_on_c, 0, 64, 0
1, 312564, Note_on_c, 0, 57, 0
1, 312564, Note_on_c, 0, 57, 65
1, 312567, Note_on_c, 0, 64, 74
1, 312627, Note_on_c, 0, 76, 93
1, 312647, Note_on_c, 0, 69, 0
1, 312752, Note_on_c, 0, 64, 0
1, 312752, Note_on_c, 0, 57, 0
1, 312752, Note_on_c, 0, 75, 96
1, 312755, Note_on_c, 0, 35, 70
1, 312755, Note_on_c, 0, 47, 82
1, 312771, Note_on_c, 0, 37, 0
1, 312771, Note_on_c, 0, 49, 0
1, 312771, Note_on_c, 0, 76, 0
1, 312804, Control_c, 0, 64, 0
1, 312804, Control_c, 0, 64, 0
1, 312897, Control_c, 0, 64, 127
1, 312897, Control_c, 0, 64, 127
1, 312919, Note_on_c, 0, 63, 70
1, 312919, Note_on_c, 0, 68, 79
1, 313084, Note_on_c, 0, 68, 0
1, 313084, Note_on_c, 0, 63, 0
1, 313084, Note_on_c, 0, 63, 65
1, 313087, Note_on_c, 0, 68, 74
1, 313147, Note_on_c, 0, 68, 90
1, 313167, Note_on_c, 0, 75, 0
1, 313272, Note_on_c, 0, 68, 0
1, 313272, Note_on_c, 0, 63, 0
1, 313272, Note_on_c, 0, 66, 89
1, 313275, Note_on_c, 0, 33, 68
1, 313275, Note_on_c, 0, 45, 78
1, 313283, Control_c, 0, 64, 0
1, 313283, Control_c, 0, 64, 0
1, 313292, Note_on_c, 0, 47, 0
1, 313292, Note_on_c, 0, 35, 0
1, 313292, Note_on_c, 0, 68, 0
1, 313376, Control_c, 0, 64, 127
1, 313376, Control_c, 0, 64, 127
1, 313439, Note_on_c, 0, 54, 70
1, 313439, Note_on_c, 0, 61, 79
1, 313605, Note_on_c, 0, 61, 0
1, 313605, Note_on_c, 0, 54, 0
1, 313605, Note_on_c, 0, 54, 65
1, 313608, Note_on_c, 0, 61, 74
1, 313668, Note_on_c, 0, 73, 90
1, 313689, Note_on_c, 0, 66, 0
1, 313808, Note_on_c, 0, 61, 0
1, 313808, Note_on_c, 0, 54, 0
1, 313808, Note_on_c, 0, 71, 89
1, 313811, Note_on_c, 0, 32, 66
1, 313811, Note_on_c, 0, 44, 75
1, 313830, Note_on_c, 0, 45, 0
1, 313830, Note_on_c, 0, 33, 0
1, 313830, Note_on_c, 0, 73, 0
1, 313866, Control_c, 0, 64, 0
1, 313866, Control_c, 0, 64, 0
1, 313948, Control_c, 0, 64, 127
1, 313948, Control_c, 0, 64, 127
1, 313995, Note_on_c, 0, 59, 70
1, 313995, Note_on_c, 0, 64, 79
1, 314209, Note_on_c, 0, 64, 0
1, 314209, Note_on_c, 0, 59, 0
1, 314209, Note_on_c, 0, 59, 59
1, 314212, Note_on_c, 0, 64, 63
1, 314284, Note_on_c, 0, 64, 85
1, 314319, Note_on_c, 0, 71, 0
1, 314453, Control_c, 0, 64, 0
1, 314453, Control_c, 0, 64, 0
1, 314509, Note_on_c, 0, 64, 0
1, 314509, Note_on_c, 0, 59, 0
1, 314509, Control_c, 0, 64, 0
1, 314512, Note_on_c, 0, 63, 86
1, 314512, Control_c, 0, 64, 0
1, 314512, Control_c, 0, 64, 0
1, 314515, Note_on_c, 0, 30, 68
1, 314515, Note_on_c, 0, 42, 77
1, 314534, Note_on_c, 0, 44, 0
1, 314534, Note_on_c, 0, 32, 0
1, 314534, Note_on_c, 0, 64, 0
1, 314610, Control_c, 0, 64, 127
1, 314610, Control_c, 0, 64, 127
1, 314723, Note_on_c, 0, 57, 53
1, 314723, Note_on_c, 0, 60, 66
1, 314936, Note_on_c, 0, 60, 0
1, 314936, Note_on_c, 0, 57, 0
1, 314936, Note_on_c, 0, 57, 53
1, 314939, Note_on_c, 0, 60, 61
1, 314999, Note_on_c, 0, 66, 88
1, 314999, Note_on_c, 0, 76, 83
1, 315024, Note_on_c, 0, 63, 0
1, 315159, Note_on_c, 0, 57, 0
1, 315159, Note_on_c, 0, 75, 92
1, 315159, Note_on_c, 0, 69, 88
1, 315162, Note_on_c, 0, 60, 0
1, 315181, Note_on_c, 0, 66, 0
1, 315181, Note_on_c, 0, 76, 0
1, 315221, Control_c, 0, 64, 0
1, 315221, Control_c, 0, 64, 0
1, 315343, Control_c, 0, 64, 127
1, 315343, Control_c, 0, 64, 127
1, 315347, Note_on_c, 0, 57, 64
1, 315347, Note_on_c, 0, 60, 65
1, 315534, Note_on_c, 0, 60, 0
1, 315534, Note_on_c, 0, 57, 0
1, 315534, Note_on_c, 0, 57, 57
1, 315537, Note_on_c, 0, 60, 60
1, 315596, Note_on_c, 0, 78, 85
1, 315616, Note_on_c, 0, 75, 0
1, 315721, Note_on_c, 0, 57, 0
1, 315721, Note_on_c, 0, 60, 0
1, 315721, Note_on_c, 0, 81, 79
1, 315746, Note_on_c, 0, 78, 0
1, 315936, Note_on_c, 0, 57, 63
1, 315936, Note_on_c, 0, 60, 64
1, 316149, Note_on_c, 0, 60, 0
1, 316149, Note_on_c, 0, 57, 0
1, 316149, Note_on_c, 0, 57, 56
1, 316152, Note_on_c, 0, 60, 59
1, 316212, Note_on_c, 0, 64, 90
1, 316231, Note_on_c, 0, 69, 0
1, 316262, Control_c, 0, 64, 0
1, 316262, Control_c, 0, 64, 0
1, 316336, Note_on_c, 0, 81, 0
1, 316336, Note_on_c, 0, 30, 0
1, 316336, Note_on_c, 0, 63, 90
1, 316339, Note_on_c, 0, 57, 0
1, 316339, Note_on_c, 0, 42, 0
1, 316339, Note_on_c, 0, 60, 0
1, 316342, Note_on_c, 0, 30, 68
1, 316342, Note_on_c, 0, 42, 77
1, 316358, Note_on_c, 0, 64, 0
1, 316453, Control_c, 0, 64, 127
1, 316453, Control_c, 0, 64, 127
1, 316524, Note_on_c, 0, 57, 68
1, 316524, Note_on_c, 0, 60, 64
1, 316710, Note_on_c, 0, 60, 0
1, 316710, Note_on_c, 0, 57, 0
1, 316710, Note_on_c, 0, 57, 56
1, 316713, Note_on_c, 0, 60, 58
1, 316773, Note_on_c, 0, 63, 0
1, 316773, Note_on_c, 0, 63, 82
1, 316914, Control_c, 0, 64, 0
1, 316914, Note_on_c, 0, 61, 90
1, 316914, Control_c, 0, 64, 0
1, 316917, Note_on_c, 0, 57, 0
1, 316917, Note_on_c, 0, 60, 0
1, 316917, Note_on_c, 0, 28, 68
1, 316920, Note_on_c, 0, 40, 77
1, 316936, Note_on_c, 0, 63, 0
1, 316936, Note_on_c, 0, 42, 0
1, 316936, Note_on_c, 0, 30, 0
1, 317048, Control_c, 0, 64, 127
1, 317048, Control_c, 0, 64, 127
1, 317101, Note_on_c, 0, 52, 56
1, 317101, Note_on_c, 0, 56, 63
1, 317314, Note_on_c, 0, 56, 0
1, 317314, Note_on_c, 0, 52, 0
1, 317314, Note_on_c, 0, 52, 50
1, 317317, Note_on_c, 0, 56, 58
1, 317362, Note_on_c, 0, 64, 88
1, 317362, Note_on_c, 0, 75, 83
1, 317387, Note_on_c, 0, 61, 0
1, 317522, Note_on_c, 0, 52, 0
1, 317522, Note_on_c, 0, 73, 86
1, 317522, Note_on_c, 0, 68, 88
1, 317525, Note_on_c, 0, 56, 0
1, 317544, Note_on_c, 0, 64, 0
1, 317544, Note_on_c, 0, 75, 0
1, 317560, Control_c, 0, 64, 0
1, 317560, Control_c, 0, 64, 0
1, 317705, Control_c, 0, 64, 127
1, 317705, Control_c, 0, 64, 127
1, 317710, Note_on_c, 0, 52, 55
1, 317710, Note_on_c, 0, 56, 63
1, 317896, Note_on_c, 0, 56, 0
1, 317896, Note_on_c, 0, 52, 0
1, 317896, Note_on_c, 0, 52, 50
1, 317899, Note_on_c, 0, 56, 58
1, 317959, Note_on_c, 0, 76, 87
1, 317978, Note_on_c, 0, 73, 0
1, 318084, Note_on_c, 0, 52, 0
1, 318084, Note_on_c, 0, 56, 0
1, 318084, Note_on_c, 0, 80, 83
1, 318109, Note_on_c, 0, 76, 0
1, 318298, Note_on_c, 0, 52, 55
1, 318298, Note_on_c, 0, 56, 62
1, 318511, Note_on_c, 0, 56, 0
1, 318511, Note_on_c, 0, 52, 0
1, 318511, Note_on_c, 0, 52, 50
1, 318514, Note_on_c, 0, 56, 59
1, 318574, Note_on_c, 0, 63, 81
1, 318596, Note_on_c, 0, 68, 0
1, 318687, Control_c, 0, 64, 0
1, 318687, Control_c, 0, 64, 0
1, 318714, Note_on_c, 0, 52, 0
1, 318714, Note_on_c, 0, 80, 0
1, 318714, Note_on_c, 0, 61, 83
1, 318717, Note_on_c, 0, 28, 0
1, 318717, Note_on_c, 0, 40, 0
1, 318717, Note_on_c, 0, 56, 0
1, 318720, Note_on_c, 0, 28, 68
1, 318720, Note_on_c, 0, 40, 77
1, 318736, Note_on_c, 0, 63, 0
1, 318809, Control_c, 0, 64, 127
1, 318809, Control_c, 0, 64, 127
1, 318902, Note_on_c, 0, 52, 58
1, 318902, Note_on_c, 0, 56, 66
1, 319115, Note_on_c, 0, 56, 0
1, 319115, Note_on_c, 0, 52, 0
1, 319115, Note_on_c, 0, 52, 55
1, 319118, Note_on_c, 0, 56, 63
1, 319178, Note_on_c, 0, 61, 0
1, 319178, Note_on_c, 0, 61, 88
1, 319273, Control_c, 0, 64, 0
1, 319273, Control_c, 0, 64, 0
1, 319318, Control_c, 0, 64, 0
1, 319318, Control_c, 0, 64, 0
1, 319318, Control_c, 0, 64, 0
1, 319321, Note_on_c, 0, 61, 0
1, 319321, Note_on_c, 0, 60, 89
1, 319321, Control_c, 0, 64, 0
1, 319324, Control_c, 0, 64, 0
1, 319324, Control_c, 0, 64, 0
1, 319324, Control_c, 0, 64, 0
1, 319327, Note_on_c, 0, 56, 0
1, 319327, Note_on_c, 0, 52, 0
1, 319327, Note_on_c, 0, 27, 67
1, 319330, Note_on_c, 0, 39, 77
1, 319348, Note_on_c, 0, 40, 0
1, 319348, Note_on_c, 0, 28, 0
1, 319506, Control_c, 0, 64, 127
1, 319506, Control_c, 0, 64, 127
1, 319569, Note_on_c, 0, 54, 61
1, 319569, Note_on_c, 0, 56, 68
1, 319693, Note_on_c, 0, 37, 66
1, 319693, Note_on_c, 0, 49, 82
1, 319722, Note_on_c, 0, 39, 0
1, 319722, Note_on_c, 0, 27, 0
1, 319804, Note_on_c, 0, 36, 67
1, 319817, Note_on_c, 0, 56, 0
1, 319817, Note_on_c, 0, 54, 0
1, 319817, Note_on_c, 0, 54, 55
1, 319820, Note_on_c, 0, 56, 63
1, 319820, Note_on_c, 0, 48, 87
1, 319852, Note_on_c, 0, 37, 0
1, 319852, Note_on_c, 0, 49, 0
1, 319893, Note_on_c, 0, 63, 90
1, 319915, Note_on_c, 0, 60, 0
1, 319977, Control_c, 0, 64, 0
1, 319977, Control_c, 0, 64, 0
1, 320033, Note_on_c, 0, 54, 0
1, 320033, Note_on_c, 0, 56, 0
1, 320033, Note_on_c, 0, 61, 92
1, 320036, Note_on_c, 0, 36, 0
1, 320036, Note_on_c, 0, 48, 0
1, 320036, Note_on_c, 0, 28, 70
1, 320039, Note_on_c, 0, 40, 82
1, 320055, Note_on_c, 0, 63, 0
1, 320185, Control_c, 0, 64, 127
1, 320185, Control_c, 0, 64, 127
1, 320221, Note_on_c, 0, 52, 65
1, 320221, Note_on_c, 0, 56, 73
1, 320314, Note_on_c, 0, 39, 71
1, 320314, Note_on_c, 0, 51, 87
1, 320343, Note_on_c, 0, 40, 0
1, 320343, Note_on_c, 0, 28, 0
1, 320425, Note_on_c, 0, 37, 72
1, 320438, Note_on_c, 0, 56, 0
1, 320438, Note_on_c, 0, 52, 0
1, 320438, Note_on_c, 0, 52, 59
1, 320441, Note_on_c, 0, 56, 67
1, 320441, Note_on_c, 0, 49, 93
1, 320467, Note_on_c, 0, 39, 0
1, 320467, Note_on_c, 0, 51, 0
1, 320501, Note_on_c, 0, 64, 89
1, 320516, Control_c, 0, 64, 0
1, 320516, Control_c, 0, 64, 0
1, 320520, Note_on_c, 0, 61, 0
1, 320626, Note_on_c, 0, 52, 0
1, 320626, Note_on_c, 0, 56, 0
1, 320626, Note_on_c, 0, 63, 92
1, 320629, Note_on_c, 0, 37, 0
1, 320629, Note_on_c, 0, 49, 0
1, 320629, Note_on_c, 0, 30, 74
1, 320632, Note_on_c, 0, 42, 86
1, 320645, Note_on_c, 0, 64, 0
1, 320699, Control_c, 0, 64, 127
1, 320699, Control_c, 0, 64, 127
1, 320793, Note_on_c, 0, 57, 68
1, 320793, Note_on_c, 0, 61, 76
1, 320875, Note_on_c, 0, 40, 74
1, 320875, Note_on_c, 0, 52, 92
1, 320905, Note_on_c, 0, 42, 0
1, 320905, Note_on_c, 0, 30, 0
1, 320987, Note_on_c, 0, 39, 75
1, 321000, Note_on_c, 0, 61, 0
1, 321000, Note_on_c, 0, 57, 0
1, 321000, Note_on_c, 0, 57, 62
1, 321003, Note_on_c, 0, 61, 71
1, 321003, Note_on_c, 0, 51, 98
1, 321025, Note_on_c, 0, 40, 0
1, 321025, Note_on_c, 0, 52, 0
1, 321054, Note_on_c, 0, 66, 95
1, 321070, Note_on_c, 0, 63, 0
1, 321135, Control_c, 0, 64, 0
1, 321135, Control_c, 0, 64, 0
1, 321162, Note_on_c, 0, 57, 0
1, 321162, Note_on_c, 0, 61, 0
1, 321162, Note_on_c, 0, 65, 97
1, 321165, Note_on_c, 0, 39, 0
1, 321165, Note_on_c, 0, 51, 0
1, 321165, Note_on_c, 0, 32, 79
1, 321168, Note_on_c, 0, 44, 92
1, 321178, Note_on_c, 0, 66, 0
1, 321203, Control_c, 0, 64, 0
1, 321203, Control_c, 0, 64, 0
1, 321276, Control_c, 0, 64, 127
1, 321276, Control_c, 0, 64, 127
1, 321306, Note_on_c, 0, 59, 71
1, 321306, Note_on_c, 0, 61, 81
1, 321378, Note_on_c, 0, 42, 79
1, 321378, Note_on_c, 0, 54, 97
1, 321407, Note_on_c, 0, 44, 0
1, 321407, Note_on_c, 0, 32, 0
1, 321489, Note_on_c, 0, 41, 80
1, 321502, Note_on_c, 0, 61, 0
1, 321502, Note_on_c, 0, 59, 0
1, 321502, Note_on_c, 0, 59, 65
1, 321505, Note_on_c, 0, 61, 75
1, 321505, Note_on_c, 0, 53, 103
1, 321527, Note_on_c, 0, 42, 0
1, 321527, Note_on_c, 0, 54, 0
1, 321556, Note_on_c, 0, 68, 100
1, 321573, Note_on_c, 0, 65, 0
1, 321629, Control_c, 0, 64, 0
1, 321629, Control_c, 0, 64, 0
1, 321664, Note_on_c, 0, 59, 0
1, 321664, Note_on_c, 0, 61, 0
1, 321664, Note_on_c, 0, 66, 102
1, 321667, Note_on_c, 0, 41, 0
1, 321667, Note_on_c, 0, 53, 0
1, 321667, Note_on_c, 0, 33, 83
1, 321670, Note_on_c, 0, 45, 98
1, 321689, Note_on_c, 0, 68, 0
1, 321784, Control_c, 0, 64, 127
1, 321784, Control_c, 0, 64, 127
1, 321878, Note_on_c, 0, 57, 75
1, 321878, Note_on_c, 0, 61, 86
1, 321971, Note_on_c, 0, 44, 83
1, 321971, Note_on_c, 0, 56, 103
1, 322001, Note_on_c, 0, 45, 0
1, 322001, Note_on_c, 0, 33, 0
1, 322083, Note_on_c, 0, 42, 84
1, 322096, Note_on_c, 0, 61, 0
1, 322096, Note_on_c, 0, 57, 0
1, 322096, Note_on_c, 0, 57, 68
1, 322099, Note_on_c, 0, 61, 80
1, 322099, Note_on_c, 0, 54, 109
1, 322125, Note_on_c, 0, 44, 0
1, 322125, Note_on_c, 0, 56, 0
1, 322159, Note_on_c, 0, 75, 105
1, 322178, Note_on_c, 0, 66, 0
1, 322283, Note_on_c, 0, 57, 0
1, 322283, Note_on_c, 0, 61, 0
1, 322283, Note_on_c, 0, 73, 106
1, 322286, Note_on_c, 0, 42, 0
1, 322286, Note_on_c, 0, 54, 0
1, 322286, Note_on_c, 0, 34, 86
1, 322289, Note_on_c, 0, 46, 102
1, 322303, Note_on_c, 0, 75, 0
1, 322335, Control_c, 0, 64, 0
1, 322335, Control_c, 0, 64, 0
1, 322429, Control_c, 0, 64, 127
1, 322429, Control_c, 0, 64, 127
1, 322450, Note_on_c, 0, 64, 78
1, 322450, Note_on_c, 0, 66, 90
1, 322533, Note_on_c, 0, 51, 87
1, 322533, Note_on_c, 0, 63, 106
1, 322568, Note_on_c, 0, 46, 0
1, 322568, Note_on_c, 0, 34, 0
1, 322666, Note_on_c, 0, 49, 87
1, 322682, Note_on_c, 0, 66, 0
1, 322682, Note_on_c, 0, 64, 0
1, 322682, Note_on_c, 0, 64, 72
1, 322685, Note_on_c, 0, 66, 76
1, 322685, Note_on_c, 0, 61, 112
1, 322711, Note_on_c, 0, 51, 0
1, 322711, Note_on_c, 0, 63, 0
1, 322745, Note_on_c, 0, 64, 111
1, 322767, Note_on_c, 0, 73, 0
1, 322885, Note_on_c, 0, 64, 0
1, 322885, Note_on_c, 0, 66, 0
1, 322885, Note_on_c, 0, 63, 114
1, 322888, Note_on_c, 0, 49, 0
1, 322888, Note_on_c, 0, 61, 0
1, 322888, Note_on_c, 0, 35, 90
1, 322891, Note_on_c, 0, 47, 106
1, 322902, Control_c, 0, 64, 0
1, 322902, Control_c, 0, 64, 0
1, 322915, Note_on_c, 0, 64, 0
1, 323042, Control_c, 0, 64, 127
1, 323042, Control_c, 0, 64, 127
1, 323136, Note_on_c, 0, 54, 82
1, 323136, Note_on_c, 0, 57, 95
1, 323260, Note_on_c, 0, 40, 90
1, 323260, Note_on_c, 0, 52, 111
1, 323289, Note_on_c, 0, 47, 0
1, 323289, Note_on_c, 0, 35, 0
1, 323371, Note_on_c, 0, 39, 90
1, 323384, Note_on_c, 0, 57, 0
1, 323384, Note_on_c, 0, 54, 0
1, 323384, Note_on_c, 0, 54, 76
1, 323387, Note_on_c, 0, 57, 89
1, 323387, Note_on_c, 0, 51, 116
1, 323419, Note_on_c, 0, 40, 0
1, 323419, Note_on_c, 0, 52, 0
1, 323460, Note_on_c, 0, 76, 117
1, 323482, Note_on_c, 0, 63, 0
1, 323600, Note_on_c, 0, 54, 0
1, 323600, Note_on_c, 0, 57, 0
1, 323600, Note_on_c, 0, 75, 117
1, 323603, Note_on_c, 0, 39, 0
1, 323603, Note_on_c, 0, 51, 0
1, 323603, Note_on_c, 0, 36, 94
1, 323606, Note_on_c, 0, 48, 111
1, 323629, Note_on_c, 0, 76, 0
1, 323678, Control_c, 0, 64, 0
1, 323678, Control_c, 0, 64, 0
1, 323787, Control_c, 0, 64, 127
1, 323787, Control_c, 0, 64, 127
1, 323850, Note_on_c, 0, 66, 85
1, 323850, Note_on_c, 0, 68, 98
1, 323999, Note_on_c, 0, 52, 98
1, 323999, Note_on_c, 0, 64, 117
1, 324043, Note_on_c, 0, 48, 0
1, 324043, Note_on_c, 0, 36, 0
1, 324166, Note_on_c, 0, 51, 100
1, 324186, Note_on_c, 0, 68, 0
1, 324186, Note_on_c, 0, 66, 0
1, 324186, Note_on_c, 0, 66, 80
1, 324189, Note_on_c, 0, 68, 94
1, 324189, Note_on_c, 0, 63, 117
1, 324274, Note_on_c, 0, 52, 0
1, 324274, Note_on_c, 0, 64, 0
1, 324374, Note_on_c, 0, 68, 117
1, 324404, Note_on_c, 0, 75, 0
1, 324468, Note_on_c, 0, 56, 117
1, 324515, Control_c, 0, 64, 0
1, 324515, Control_c, 0, 64, 0
1, 324562, Note_on_c, 0, 66, 0
1, 324562, Note_on_c, 0, 68, 0
1, 324562, Control_c, 0, 64, 0
1, 324565, Note_on_c, 0, 73, 117
1, 324565, Control_c, 0, 64, 0
1, 324565, Control_c, 0, 64, 0
1, 324568, Note_on_c, 0, 63, 0
1, 324568, Note_on_c, 0, 51, 0
1, 324568, Note_on_c, 0, 56, 0
1, 324571, Note_on_c, 0, 61, 113
1, 324591, Note_on_c, 0, 68, 0
1, 324812, Note_on_c, 0, 64, 75
1, 324812, Note_on_c, 0, 68, 86
1, 324812, Note_on_c, 0, 49, 73
1, 324815, Note_on_c, 0, 56, 84
1, 324819, Control_c, 0, 64, 127
1, 324819, Control_c, 0, 64, 127
1, 324977, Note_on_c, 0, 68, 0
1, 324977, Note_on_c, 0, 64, 0
1, 324977, Note_on_c, 0, 64, 78
1, 324980, Note_on_c, 0, 49, 0
1, 324980, Note_on_c, 0, 56, 0
1, 324980, Note_on_c, 0, 68, 88
1, 324983, Note_on_c, 0, 49, 74
1, 324983, Note_on_c, 0, 56, 85
1, 325122, Note_on_c, 0, 68, 0
1, 325122, Note_on_c, 0, 64, 0
1, 325122, Note_on_c, 0, 64, 79
1, 325125, Note_on_c, 0, 49, 0
1, 325125, Note_on_c, 0, 56, 0
1, 325125, Note_on_c, 0, 68, 91
1, 325128, Note_on_c, 0, 49, 76
1, 325128, Note_on_c, 0, 56, 88
1, 325266, Note_on_c, 0, 68, 0
1, 325266, Note_on_c, 0, 64, 0
1, 325266, Note_on_c, 0, 64, 81
1, 325269, Note_on_c, 0, 49, 0
1, 325269, Note_on_c, 0, 56, 0
1, 325269, Note_on_c, 0, 68, 93
1, 325272, Note_on_c, 0, 49, 78
1, 325272, Note_on_c, 0, 56, 89
1, 325409, Note_on_c, 0, 68, 0
1, 325409, Note_on_c, 0, 64, 0
1, 325409, Note_on_c, 0, 64, 82
1, 325412, Note_on_c, 0, 49, 0
1, 325412, Note_on_c, 0, 56, 0
1, 325412, Note_on_c, 0, 68, 95
1, 325415, Note_on_c, 0, 49, 79
1, 325415, Note_on_c, 0, 56, 90
1, 325554, Note_on_c, 0, 68, 0
1, 325554, Note_on_c, 0, 64, 0
1, 325554, Note_on_c, 0, 75, 117
1, 325557, Note_on_c, 0, 49, 0
1, 325557, Note_on_c, 0, 56, 0
1, 325557, Note_on_c, 0, 63, 103
1, 325579, Note_on_c, 0, 73, 0
1, 325579, Note_on_c, 0, 61, 0
1, 325579, Control_c, 0, 64, 0
1, 325579, Control_c, 0, 64, 0
1, 325737, Control_c, 0, 64, 127
1, 325737, Control_c, 0, 64, 127
1, 325768, Note_on_c, 0, 68, 81
1, 325768, Note_on_c, 0, 71, 92
1, 325768, Note_on_c, 0, 56, 78
1, 325771, Note_on_c, 0, 59, 87
1, 325955, Note_on_c, 0, 71, 0
1, 325955, Note_on_c, 0, 68, 0
1, 325955, Note_on_c, 0, 68, 82
1, 325958, Note_on_c, 0, 56, 0
1, 325958, Note_on_c, 0, 59, 0
1, 325958, Note_on_c, 0, 71, 94
1, 325961, Note_on_c, 0, 56, 79
1, 325961, Note_on_c, 0, 59, 90
1, 326121, Note_on_c, 0, 71, 0
1, 326121, Note_on_c, 0, 68, 0
1, 326121, Note_on_c, 0, 68, 84
1, 326124, Note_on_c, 0, 56, 0
1, 326124, Note_on_c, 0, 59, 0
1, 326124, Note_on_c, 0, 71, 95
1, 326127, Note_on_c, 0, 56, 81
1, 326127, Note_on_c, 0, 59, 92
1, 326266, Note_on_c, 0, 71, 0
1, 326266, Note_on_c, 0, 68, 0
1, 326266, Note_on_c, 0, 68, 85
1, 326269, Note_on_c, 0, 56, 0
1, 326269, Note_on_c, 0, 59, 0
1, 326269, Note_on_c, 0, 71, 97
1, 326272, Note_on_c, 0, 56, 83
1, 326272, Note_on_c, 0, 59, 94
1, 326409, Note_on_c, 0, 71, 0
1, 326409, Note_on_c, 0, 68, 0
1, 326409, Note_on_c, 0, 68, 86
1, 326412, Note_on_c, 0, 56, 0
1, 326412, Note_on_c, 0, 59, 0
1, 326412, Note_on_c, 0, 71, 98
1, 326415, Note_on_c, 0, 56, 85
1, 326415, Note_on_c, 0, 59, 96
1, 326472, Note_on_c, 0, 63, 0
1, 326472, Note_on_c, 0, 75, 0
1, 326472, Note_on_c, 0, 75, 117
1, 326475, Note_on_c, 0, 63, 103
1, 326555, Control_c, 0, 64, 0
1, 326555, Control_c, 0, 64, 0
1, 326612, Note_on_c, 0, 71, 0
1, 326612, Note_on_c, 0, 68, 0
1, 326612, Note_on_c, 0, 80, 117
1, 326615, Note_on_c, 0, 56, 0
1, 326615, Note_on_c, 0, 59, 0
1, 326615, Note_on_c, 0, 68, 103
1, 326647, Note_on_c, 0, 75, 0
1, 326647, Note_on_c, 0, 63, 0
1, 326912, Note_on_c, 0, 68, 73
1, 326912, Note_on_c, 0, 71, 84
1, 326912, Note_on_c, 0, 52, 72
1, 326915, Note_on_c, 0, 59, 81
1, 326948, Control_c, 0, 64, 127
1, 326948, Control_c, 0, 64, 127
1, 327126, Note_on_c, 0, 71, 0
1, 327126, Note_on_c, 0, 68, 0
1, 327126, Note_on_c, 0, 68, 71
1, 327129, Note_on_c, 0, 52, 0
1, 327129, Note_on_c, 0, 59, 0
1, 327129, Note_on_c, 0, 71, 81
1, 327132, Note_on_c, 0, 52, 69
1, 327132, Note_on_c, 0, 59, 79
1, 327313, Note_on_c, 0, 71, 0
1, 327313, Note_on_c, 0, 68, 0
1, 327313, Note_on_c, 0, 68, 69
1, 327316, Note_on_c, 0, 52, 0
1, 327316, Note_on_c, 0, 59, 0
1, 327316, Note_on_c, 0, 71, 78
1, 327319, Note_on_c, 0, 52, 67
1, 327319, Note_on_c, 0, 59, 76
1, 327501, Note_on_c, 0, 71, 0
1, 327501, Note_on_c, 0, 68, 0
1, 327501, Note_on_c, 0, 68, 67
1, 327504, Note_on_c, 0, 52, 0
1, 327504, Note_on_c, 0, 59, 0
1, 327504, Note_on_c, 0, 71, 75
1, 327507, Note_on_c, 0, 52, 65
1, 327507, Note_on_c, 0, 59, 73
1, 327714, Note_on_c, 0, 71, 0
1, 327714, Note_on_c, 0, 68, 0
1, 327714, Note_on_c, 0, 68, 65
1, 327717, Note_on_c, 0, 52, 0
1, 327717, Note_on_c, 0, 59, 0
1, 327717, Note_on_c, 0, 71, 73
1, 327720, Note_on_c, 0, 52, 63
1, 327720, Note_on_c, 0, 59, 70
1, 327949, Control_c, 0, 64, 0
1, 327949, Control_c, 0, 64, 0
1, 327964, Note_on_c, 0, 71, 0
1, 327964, Note_on_c, 0, 68, 0
1, 327964, Note_on_c, 0, 74, 81
1, 327967, Note_on_c, 0, 52, 0
1, 327967, Note_on_c, 0, 59, 0
1, 327967, Note_on_c, 0, 78, 95
1, 327970, Note_on_c, 0, 62, 75
1, 327970, Note_on_c, 0, 66, 90
1, 327999, Note_on_c, 0, 68, 0
1, 327999, Note_on_c, 0, 80, 0
1, 328164, Control_c, 0, 64, 127
1, 328164, Control_c, 0, 64, 127
1, 328264, Note_on_c, 0, 68, 63
1, 328264, Note_on_c, 0, 71, 72
1, 328264, Note_on_c, 0, 52, 60
1, 328267, Note_on_c, 0, 59, 68
1, 328450, Note_on_c, 0, 71, 0
1, 328450, Note_on_c, 0, 68, 0
1, 328450, Note_on_c, 0, 68, 57
1, 328453, Note_on_c, 0, 59, 0
1, 328453, Note_on_c, 0, 52, 0
1, 328453, Note_on_c, 0, 71, 66
1, 328456, Note_on_c, 0, 52, 52
1, 328456, Note_on_c, 0, 59, 59
1, 328638, Note_on_c, 0, 71, 0
1, 328638, Note_on_c, 0, 68, 0
1, 328638, Note_on_c, 0, 73, 74
1, 328641, Note_on_c, 0, 59, 0
1, 328641, Note_on_c, 0, 52, 0
1, 328641, Note_on_c, 0, 76, 87
1, 328644, Note_on_c, 0, 61, 69
1, 328644, Note_on_c, 0, 64, 81
1, 328661, Control_c, 0, 64, 0
1, 328661, Control_c, 0, 64, 0
1, 328667, Note_on_c, 0, 62, 0
1, 328667, Note_on_c, 0, 78, 0
1, 328667, Note_on_c, 0, 74, 0
1, 328670, Note_on_c, 0, 66, 0
1, 328888, Control_c, 0, 64, 127
1, 328888, Note_on_c, 0, 68, 51
1, 328888, Note_on_c, 0, 71, 60
1, 328891, Control_c, 0, 64, 127
1, 328891, Note_on_c, 0, 52, 54
1, 328891, Note_on_c, 0, 59, 61
1, 329137, Note_on_c, 0, 71, 0
1, 329137, Note_on_c, 0, 68, 0
1, 329137, Note_on_c, 0, 68, 45
1, 329140, Note_on_c, 0, 59, 0
1, 329140, Note_on_c, 0, 52, 0
1, 329140, Note_on_c, 0, 71, 54
1, 329143, Note_on_c, 0, 52, 47
1, 329143, Note_on_c, 0, 59, 53
1, 329422, Control_c, 0, 64, 0
1, 329422, Control_c, 0, 64, 0
1, 329512, Note_on_c, 0, 71, 0
1, 329512, Note_on_c, 0, 68, 0
1, 329512, Control_c, 0, 64, 0
1, 329515, Note_on_c, 0, 57, 83
1, 329515, Control_c, 0, 64, 0
1, 329515, Control_c, 0, 64, 0
1, 329518, Note_on_c, 0, 59, 0
1, 329518, Note_on_c, 0, 52, 0
1, 329518, Note_on_c, 0, 33, 68
1, 329521, Note_on_c, 0, 45, 77
1, 329541, Note_on_c, 0, 73, 0
1, 329541, Note_on_c, 0, 76, 0
1, 329541, Note_on_c, 0, 61, 0
1, 329544, Note_on_c, 0, 64, 0
1, 329673, Control_c, 0, 64, 127
1, 329673, Control_c, 0, 64, 127
1, 329762, Note_on_c, 0, 64, 59
1, 329762, Note_on_c, 0, 69, 59
1, 329762, Note_on_c, 0, 73, 59
1, 329765, Note_on_c, 0, 76, 67
1, 329765, Note_on_c, 0, 49, 58
1, 329765, Note_on_c, 0, 52, 58
1, 329768, Note_on_c, 0, 57, 64
1, 329948, Note_on_c, 0, 73, 0
1, 329948, Note_on_c, 0, 64, 0
1, 329948, Note_on_c, 0, 69, 0
1, 329951, Note_on_c, 0, 76, 0
1, 329951, Note_on_c, 0, 64, 60
1, 329951, Note_on_c, 0, 69, 60
1, 329954, Note_on_c, 0, 49, 0
1, 329954, Note_on_c, 0, 73, 60
1, 329954, Note_on_c, 0, 76, 68
1, 329957, Note_on_c, 0, 52, 0
1, 329957, Note_on_c, 0, 57, 0
1, 329957, Note_on_c, 0, 49, 58
1, 329960, Note_on_c, 0, 52, 58
1, 329960, Note_on_c, 0, 57, 65
1, 330115, Note_on_c, 0, 73, 0
1, 330115, Note_on_c, 0, 69, 0
1, 330115, Note_on_c, 0, 64, 0
1, 330118, Note_on_c, 0, 76, 0
1, 330118, Note_on_c, 0, 64, 62
1, 330118, Note_on_c, 0, 69, 62
1, 330121, Note_on_c, 0, 49, 0
1, 330121, Note_on_c, 0, 73, 62
1, 330121, Note_on_c, 0, 76, 69
1, 330124, Note_on_c, 0, 57, 0
1, 330124, Note_on_c, 0, 52, 0
1, 330124, Note_on_c, 0, 49, 59
1, 330127, Note_on_c, 0, 52, 59
1, 330127, Note_on_c, 0, 57, 66
1, 330259, Note_on_c, 0, 73, 0
1, 330259, Note_on_c, 0, 69, 0
1, 330259, Note_on_c, 0, 64, 0
1, 330262, Note_on_c, 0, 76, 0
1, 330262, Note_on_c, 0, 64, 63
1, 330262, Note_on_c, 0, 69, 63
1, 330265, Note_on_c, 0, 49, 0
1, 330265, Note_on_c, 0, 73, 63
1, 330265, Note_on_c, 0, 76, 71
1, 330268, Note_on_c, 0, 52, 0
1, 330268, Note_on_c, 0, 57, 0
1, 330268, Note_on_c, 0, 49, 60
1, 330271, Note_on_c, 0, 52, 60
1, 330271, Note_on_c, 0, 57, 67
1, 330403, Note_on_c, 0, 73, 0
1, 330403, Note_on_c, 0, 69, 0
1, 330403, Note_on_c, 0, 64, 0
1, 330406, Note_on_c, 0, 76, 0
1, 330406, Note_on_c, 0, 64, 64
1, 330406, Note_on_c, 0, 69, 64
1, 330409, Note_on_c, 0, 49, 0
1, 330409, Note_on_c, 0, 73, 64
1, 330409, Note_on_c, 0, 76, 72
1, 330412, Note_on_c, 0, 57, 0
1, 330412, Note_on_c, 0, 52, 0
1, 330412, Note_on_c, 0, 49, 61
1, 330415, Note_on_c, 0, 52, 61
1, 330415, Note_on_c, 0, 57, 68
1, 330638, Control_c, 0, 64, 0
1, 330638, Control_c, 0, 64, 0
1, 330653, Note_on_c, 0, 73, 0
1, 330653, Note_on_c, 0, 69, 0
1, 330653, Note_on_c, 0, 64, 0
1, 330656, Note_on_c, 0, 49, 0
1, 330656, Note_on_c, 0, 76, 0
1, 330656, Note_on_c, 0, 58, 88
1, 330659, Note_on_c, 0, 52, 0
1, 330659, Note_on_c, 0, 57, 0
1, 330659, Note_on_c, 0, 34, 74
1, 330662, Note_on_c, 0, 46, 83
1, 330682, Note_on_c, 0, 33, 0
1, 330682, Note_on_c, 0, 57, 0
1, 330682, Note_on_c, 0, 45, 0
1, 330903, Note_on_c, 0, 62, 59
1, 330903, Note_on_c, 0, 64, 59
1, 330903, Note_on_c, 0, 68, 59
1, 330906, Note_on_c, 0, 76, 67
1, 330906, Note_on_c, 0, 50, 58
1, 330906, Note_on_c, 0, 52, 58
1, 330909, Note_on_c, 0, 56, 64
1, 330934, Control_c, 0, 64, 127
1, 330934, Control_c, 0, 64, 127
1, 331069, Note_on_c, 0, 68, 0
1, 331069, Note_on_c, 0, 62, 0
1, 331069, Note_on_c, 0, 64, 0
1, 331072, Note_on_c, 0, 76, 0
1, 331072, Note_on_c, 0, 62, 62
1, 331072, Note_on_c, 0, 64, 62
1, 331075, Note_on_c, 0, 50, 0
1, 331075, Note_on_c, 0, 68, 62
1, 331075, Note_on_c, 0, 76, 69
1, 331078, Note_on_c, 0, 52, 0
1, 331078, Note_on_c, 0, 56, 0
1, 331078, Note_on_c, 0, 50, 58
1, 331081, Note_on_c, 0, 52, 58
1, 331081, Note_on_c, 0, 56, 65
1, 331213, Note_on_c, 0, 68, 0
1, 331213, Note_on_c, 0, 64, 0
1, 331213, Note_on_c, 0, 62, 0
1, 331216, Note_on_c, 0, 76, 0
1, 331216, Note_on_c, 0, 62, 64
1, 331216, Note_on_c, 0, 64, 64
1, 331219, Note_on_c, 0, 50, 0
1, 331219, Note_on_c, 0, 68, 64
1, 331219, Note_on_c, 0, 76, 72
1, 331222, Note_on_c, 0, 56, 0
1, 331222, Note_on_c, 0, 52, 0
1, 331222, Note_on_c, 0, 50, 59
1, 331225, Note_on_c, 0, 52, 59
1, 331225, Note_on_c, 0, 56, 66
1, 331357, Note_on_c, 0, 68, 0
1, 331357, Note_on_c, 0, 64, 0
1, 331357, Note_on_c, 0, 62, 0
1, 331360, Note_on_c, 0, 76, 0
1, 331360, Note_on_c, 0, 62, 66
1, 331360, Note_on_c, 0, 64, 66
1, 331363, Note_on_c, 0, 50, 0
1, 331363, Note_on_c, 0, 68, 66
1, 331363, Note_on_c, 0, 76, 75
1, 331366, Note_on_c, 0, 52, 0
1, 331366, Note_on_c, 0, 56, 0
1, 331366, Note_on_c, 0, 50, 60
1, 331369, Note_on_c, 0, 52, 60
1, 331369, Note_on_c, 0, 56, 67
1, 331501, Note_on_c, 0, 68, 0
1, 331501, Note_on_c, 0, 64, 0
1, 331501, Note_on_c, 0, 62, 0
1, 331504, Note_on_c, 0, 76, 0
1, 331504, Note_on_c, 0, 62, 68
1, 331504, Note_on_c, 0, 64, 68
1, 331507, Note_on_c, 0, 50, 0
1, 331507, Note_on_c, 0, 68, 68
1, 331507, Note_on_c, 0, 76, 78
1, 331510, Note_on_c, 0, 56, 0
1, 331510, Note_on_c, 0, 52, 0
1, 331510, Note_on_c, 0, 50, 61
1, 331513, Note_on_c, 0, 52, 61
1, 331513, Note_on_c, 0, 56, 68
1, 331564, Note_on_c, 0, 59, 98
1, 331564, Note_on_c, 0, 35, 84
1, 331564, Note_on_c, 0, 47, 93
1, 331586, Note_on_c, 0, 46, 0
1, 331586, Note_on_c, 0, 58, 0
1, 331586, Note_on_c, 0, 34, 0
1, 331693, Control_c, 0, 64, 0
1, 331693, Control_c, 0, 64, 0
1, 331704, Note_on_c, 0, 68, 0
1, 331704, Note_on_c, 0, 64, 0
1, 331704, Note_on_c, 0, 62, 0
1, 331707, Note_on_c, 0, 50, 0
1, 331707, Note_on_c, 0, 76, 0
1, 331707, Note_on_c, 0, 64, 99
1, 331710, Note_on_c, 0, 52, 0
1, 331710, Note_on_c, 0, 56, 0
1, 331710, Note_on_c, 0, 40, 85
1, 331713, Note_on_c, 0, 52, 94
1, 331733, Note_on_c, 0, 59, 0
1, 331733, Note_on_c, 0, 47, 0
1, 331733, Note_on_c, 0, 35, 0
1, 331954, Note_on_c, 0, 64, 65
1, 331954, Note_on_c, 0, 69, 65
1, 331954, Note_on_c, 0, 73, 65
1, 331957, Note_on_c, 0, 76, 77
1, 331957, Note_on_c, 0, 49, 56
1, 331957, Note_on_c, 0, 52, 56
1, 331960, Note_on_c, 0, 57, 65
1, 331965, Control_c, 0, 64, 127
1, 331965, Control_c, 0, 64, 127
1, 332141, Note_on_c, 0, 73, 0
1, 332141, Note_on_c, 0, 64, 0
1, 332141, Note_on_c, 0, 69, 0
1, 332144, Note_on_c, 0, 76, 0
1, 332144, Note_on_c, 0, 64, 65
1, 332144, Note_on_c, 0, 69, 65
1, 332147, Note_on_c, 0, 49, 0
1, 332147, Note_on_c, 0, 73, 65
1, 332147, Note_on_c, 0, 76, 77
1, 332150, Note_on_c, 0, 52, 0
1, 332150, Note_on_c, 0, 57, 0
1, 332150, Note_on_c, 0, 49, 56
1, 332153, Note_on_c, 0, 52, 56
1, 332153, Note_on_c, 0, 57, 65
1, 332328, Note_on_c, 0, 73, 0
1, 332328, Note_on_c, 0, 69, 0
1, 332328, Note_on_c, 0, 64, 0
1, 332331, Note_on_c, 0, 49, 0
1, 332331, Note_on_c, 0, 76, 0
1, 332331, Note_on_c, 0, 57, 88
1, 332334, Note_on_c, 0, 52, 0
1, 332334, Note_on_c, 0, 57, 0
1, 332334, Note_on_c, 0, 33, 65
1, 332337, Note_on_c, 0, 45, 77
1, 332353, Note_on_c, 0, 40, 0
1, 332353, Note_on_c, 0, 64, 0
1, 332353, Note_on_c, 0, 52, 0
1, 332416, Control_c, 0, 64, 0
1, 332416, Control_c, 0, 64, 0
1, 332517, Control_c, 0, 64, 127
1, 332517, Control_c, 0, 64, 127
1, 332543, Note_on_c, 0, 64, 64
1, 332543, Note_on_c, 0, 69, 64
1, 332543, Note_on_c, 0, 73, 64
1, 332546, Note_on_c, 0, 76, 72
1, 332546, Note_on_c, 0, 49, 58
1, 332546, Note_on_c, 0, 52, 58
1, 332549, Note_on_c, 0, 57, 64
1, 332708, Note_on_c, 0, 73, 0
1, 332708, Note_on_c, 0, 64, 0
1, 332708, Note_on_c, 0, 69, 0
1, 332711, Note_on_c, 0, 76, 0
1, 332711, Note_on_c, 0, 64, 65
1, 332711, Note_on_c, 0, 69, 65
1, 332714, Note_on_c, 0, 49, 0
1, 332714, Note_on_c, 0, 73, 65
1, 332714, Note_on_c, 0, 76, 73
1, 332717, Note_on_c, 0, 52, 0
1, 332717, Note_on_c, 0, 57, 0
1, 332717, Note_on_c, 0, 49, 58
1, 332720, Note_on_c, 0, 52, 58
1, 332720, Note_on_c, 0, 57, 65
1, 332853, Note_on_c, 0, 73, 0
1, 332853, Note_on_c, 0, 69, 0
1, 332853, Note_on_c, 0, 64, 0
1, 332856, Note_on_c, 0, 76, 0
1, 332856, Note_on_c, 0, 64, 66
1, 332856, Note_on_c, 0, 69, 66
1, 332859, Note_on_c, 0, 49, 0
1, 332859, Note_on_c, 0, 73, 66
1, 332859, Note_on_c, 0, 76, 75
1, 332862, Note_on_c, 0, 57, 0
1, 332862, Note_on_c, 0, 52, 0
1, 332862, Note_on_c, 0, 49, 59
1, 332865, Note_on_c, 0, 52, 59
1, 332865, Note_on_c, 0, 57, 66
1, 332997, Note_on_c, 0, 73, 0
1, 332997, Note_on_c, 0, 69, 0
1, 332997, Note_on_c, 0, 64, 0
1, 333000, Note_on_c, 0, 76, 0
1, 333000, Note_on_c, 0, 64, 67
1, 333000, Note_on_c, 0, 69, 67
1, 333003, Note_on_c, 0, 49, 0
1, 333003, Note_on_c, 0, 73, 67
1, 333003, Note_on_c, 0, 76, 77
1, 333006, Note_on_c, 0, 52, 0
1, 333006, Note_on_c, 0, 57, 0
1, 333006, Note_on_c, 0, 49, 60
1, 333009, Note_on_c, 0, 52, 60
1, 333009, Note_on_c, 0, 57, 67
1, 333140, Note_on_c, 0, 73, 0
1, 333140, Note_on_c, 0, 69, 0
1, 333140, Note_on_c, 0, 64, 0
1, 333143, Note_on_c, 0, 76, 0
1, 333143, Note_on_c, 0, 64, 68
1, 333143, Note_on_c, 0, 69, 68
1, 333146, Note_on_c, 0, 49, 0
1, 333146, Note_on_c, 0, 73, 68
1, 333146, Note_on_c, 0, 76, 78
1, 333149, Note_on_c, 0, 57, 0
1, 333149, Note_on_c, 0, 52, 0
1, 333149, Note_on_c, 0, 49, 61
1, 333152, Note_on_c, 0, 52, 61
1, 333152, Note_on_c, 0, 57, 68
1, 333268, Control_c, 0, 64, 0
1, 333268, Control_c, 0, 64, 0
1, 333285, Note_on_c, 0, 73, 0
1, 333285, Note_on_c, 0, 69, 0
1, 333285, Note_on_c, 0, 64, 0
1, 333288, Note_on_c, 0, 49, 0
1, 333288, Note_on_c, 0, 76, 0
1, 333288, Note_on_c, 0, 64, 103
1, 333291, Note_on_c, 0, 52, 0
1, 333291, Note_on_c, 0, 57, 0
1, 333291, Note_on_c, 0, 52, 99
1, 333310, Note_on_c, 0, 33, 0
1, 333310, Note_on_c, 0, 45, 0
1, 333310, Note_on_c, 0, 57, 0
1, 333385, Control_c, 0, 64, 127
1, 333385, Control_c, 0, 64, 127
1, 333499, Note_on_c, 0, 56, 68
1, 333499, Note_on_c, 0, 60, 77
1, 333499, Note_on_c, 0, 44, 56
1, 333502, Note_on_c, 0, 48, 65
1, 333665, Note_on_c, 0, 60, 0
1, 333665, Note_on_c, 0, 56, 0
1, 333665, Note_on_c, 0, 56, 68
1, 333668, Note_on_c, 0, 44, 0
1, 333668, Note_on_c, 0, 48, 0
1, 333668, Note_on_c, 0, 60, 77
1, 333671, Note_on_c, 0, 44, 56
1, 333671, Note_on_c, 0, 48, 65
1, 333728, Note_on_c, 0, 63, 103
1, 333728, Note_on_c, 0, 51, 99
1, 333747, Note_on_c, 0, 52, 0
1, 333747, Note_on_c, 0, 64, 0
1, 333813, Control_c, 0, 64, 0
1, 333813, Control_c, 0, 64, 0
1, 333852, Note_on_c, 0, 56, 0
1, 333852, Control_c, 0, 64, 127
1, 333852, Control_c, 0, 64, 0
1, 333855, Note_on_c, 0, 60, 0
1, 333855, Note_on_c, 0, 61, 110
1, 333855, Control_c, 0, 64, 127
1, 333858, Control_c, 0, 64, 0
1, 333858, Control_c, 0, 64, 0
1, 333858, Control_c, 0, 64, 0
1, 333861, Note_on_c, 0, 44, 0
1, 333861, Note_on_c, 0, 48, 0
1, 333861, Note_on_c, 0, 49, 103
1, 333872, Note_on_c, 0, 51, 0
1, 333872, Note_on_c, 0, 63, 0
1, 333920, Control_c, 0, 64, 0
1, 333920, Control_c, 0, 64, 0
1, 334019, Note_on_c, 0, 52, 80
1, 334019, Note_on_c, 0, 56, 89
1, 334019, Note_on_c, 0, 40, 68
1, 334022, Control_c, 0, 64, 127
1, 334022, Note_on_c, 0, 44, 77
1, 334022, Control_c, 0, 64, 127
1, 334185, Note_on_c, 0, 56, 0
1, 334185, Note_on_c, 0, 52, 0
1, 334185, Note_on_c, 0, 52, 80
1, 334188, Note_on_c, 0, 40, 0
1, 334188, Note_on_c, 0, 44, 0
1, 334188, Note_on_c, 0, 56, 89
1, 334191, Note_on_c, 0, 40, 77
1, 334191, Note_on_c, 0, 44, 77
1, 334248, Note_on_c, 0, 63, 110
1, 334248, Note_on_c, 0, 51, 103
1, 334267, Note_on_c, 0, 49, 0
1, 334267, Note_on_c, 0, 61, 0
1, 334373, Note_on_c, 0, 56, 0
1, 334373, Note_on_c, 0, 52, 0
1, 334373, Note_on_c, 0, 64, 110
1, 334376, Note_on_c, 0, 40, 0
1, 334376, Note_on_c, 0, 44, 0
1, 334376, Note_on_c, 0, 52, 103
1, 334389, Control_c, 0, 64, 0
1, 334389, Control_c, 0, 64, 0
1, 334392, Note_on_c, 0, 51, 0
1, 334392, Note_on_c, 0, 63, 0
1, 334491, Control_c, 0, 64, 127
1, 334491, Control_c, 0, 64, 127
1, 334539, Note_on_c, 0, 56, 68
1, 334539, Note_on_c, 0, 61, 77
1, 334539, Note_on_c, 0, 44, 72
1, 334542, Note_on_c, 0, 49, 81
1, 334683, Note_on_c, 0, 61, 0
1, 334683, Note_on_c, 0, 56, 0
1, 334683, Note_on_c, 0, 56, 70
1, 334686, Note_on_c, 0, 44, 0
1, 334686, Note_on_c, 0, 49, 0
1, 334686, Note_on_c, 0, 61, 80
1, 334689, Note_on_c, 0, 44, 73
1, 334689, Note_on_c, 0, 49, 84
1, 334827, Note_on_c, 0, 61, 0
1, 334827, Note_on_c, 0, 56, 0
1, 334827, Note_on_c, 0, 56, 73
1, 334830, Note_on_c, 0, 44, 0
1, 334830, Note_on_c, 0, 49, 0
1, 334830, Note_on_c, 0, 61, 83
1, 334833, Note_on_c, 0, 44, 75
1, 334833, Note_on_c, 0, 49, 86
1, 334971, Note_on_c, 0, 61, 0
1, 334971, Note_on_c, 0, 56, 0
1, 334971, Note_on_c, 0, 56, 75
1, 334974, Note_on_c, 0, 44, 0
1, 334974, Note_on_c, 0, 49, 0
1, 334974, Note_on_c, 0, 61, 85
1, 334977, Note_on_c, 0, 44, 77
1, 334977, Note_on_c, 0, 49, 88
1, 335115, Note_on_c, 0, 61, 0
1, 335115, Note_on_c, 0, 56, 0
1, 335115, Note_on_c, 0, 56, 77
1, 335118, Note_on_c, 0, 44, 0
1, 335118, Note_on_c, 0, 49, 0
1, 335118, Note_on_c, 0, 61, 88
1, 335121, Note_on_c, 0, 44, 79
1, 335121, Note_on_c, 0, 49, 90
1, 335329, Note_on_c, 0, 61, 0
1, 335329, Note_on_c, 0, 56, 0
1, 335329, Note_on_c, 0, 61, 102
1, 335332, Note_on_c, 0, 44, 0
1, 335332, Note_on_c, 0, 49, 0
1, 335332, Note_on_c, 0, 73, 116
1, 335335, Note_on_c, 0, 37, 102
1, 335335, Note_on_c, 0, 49, 116
1, 335358, Note_on_c, 0, 52, 0
1, 335358, Note_on_c, 0, 64, 0
1, 335363, Control_c, 0, 64, 0
1, 335363, Control_c, 0, 64, 0
1, 335483, Control_c, 0, 64, 127
1, 335483, Control_c, 0, 64, 127
1, 335579, Note_on_c, 0, 64, 68
1, 335579, Note_on_c, 0, 68, 77
1, 335579, Note_on_c, 0, 56, 68
1, 335582, Note_on_c, 0, 61, 77
1, 335828, Note_on_c, 0, 68, 0
1, 335828, Note_on_c, 0, 64, 0
1, 335828, Note_on_c, 0, 64, 68
1, 335831, Note_on_c, 0, 61, 0
1, 335831, Note_on_c, 0, 56, 0
1, 335831, Note_on_c, 0, 68, 77
1, 335834, Note_on_c, 0, 56, 68
1, 335834, Note_on_c, 0, 61, 77
1, 335882, Note_on_c, 0, 63, 97
1, 335882, Note_on_c, 0, 75, 113
1, 335882, Note_on_c, 0, 39, 97
1, 335885, Note_on_c, 0, 51, 112
1, 335901, Note_on_c, 0, 37, 0
1, 335901, Note_on_c, 0, 73, 0
1, 335901, Note_on_c, 0, 61, 0
1, 335904, Note_on_c, 0, 49, 0
1, 336006, Note_on_c, 0, 64, 0
1, 336006, Note_on_c, 0, 68, 0
1, 336006, Note_on_c, 0, 64, 105
1, 336009, Note_on_c, 0, 61, 0
1, 336009, Note_on_c, 0, 56, 0
1, 336009, Note_on_c, 0, 76, 117
1, 336012, Note_on_c, 0, 40, 104
1, 336012, Note_on_c, 0, 52, 117
1, 336026, Note_on_c, 0, 63, 0
1, 336026, Note_on_c, 0, 75, 0
1, 336026, Note_on_c, 0, 39, 0
1, 336029, Note_on_c, 0, 51, 0
1, 336029, Control_c, 0, 64, 0
1, 336029, Control_c, 0, 64, 0
1, 336130, Control_c, 0, 64, 127
1, 336130, Control_c, 0, 64, 127
1, 336173, Note_on_c, 0, 64, 68
1, 336173, Note_on_c, 0, 68, 77
1, 336173, Note_on_c, 0, 56, 68
1, 336176, Note_on_c, 0, 61, 77
1, 336339, Note_on_c, 0, 68, 0
1, 336339, Note_on_c, 0, 64, 0
1, 336339, Note_on_c, 0, 64, 68
1, 336342, Note_on_c, 0, 61, 0
1, 336342, Note_on_c, 0, 56, 0
1, 336342, Note_on_c, 0, 68, 77
1, 336345, Note_on_c, 0, 56, 68
1, 336345, Note_on_c, 0, 61, 77
1, 336381, Note_on_c, 0, 64, 0
1, 336381, Note_on_c, 0, 66, 101
1, 336381, Note_on_c, 0, 78, 117
1, 336384, Note_on_c, 0, 42, 100
1, 336384, Note_on_c, 0, 54, 115
1, 336400, Note_on_c, 0, 52, 0
1, 336400, Note_on_c, 0, 76, 0
1, 336400, Note_on_c, 0, 40, 0
1, 336506, Note_on_c, 0, 64, 0
1, 336506, Note_on_c, 0, 68, 0
1, 336506, Note_on_c, 0, 68, 111
1, 336509, Note_on_c, 0, 61, 0
1, 336509, Note_on_c, 0, 56, 0
1, 336509, Note_on_c, 0, 80, 117
1, 336512, Note_on_c, 0, 44, 110
1, 336512, Note_on_c, 0, 56, 117
1, 336525, Note_on_c, 0, 66, 0
1, 336525, Note_on_c, 0, 78, 0
1, 336525, Note_on_c, 0, 42, 0
1, 336528, Note_on_c, 0, 54, 0
1, 336545, Control_c, 0, 64, 0
1, 336545, Control_c, 0, 64, 0
1, 336646, Control_c, 0, 64, 127
1, 336646, Control_c, 0, 64, 127
1, 336672, Note_on_c, 0, 64, 68
1, 336672, Note_on_c, 0, 68, 77
1, 336672, Note_on_c, 0, 56, 68
1, 336675, Note_on_c, 0, 61, 77
1, 336838, Note_on_c, 0, 64, 0
1, 336838, Note_on_c, 0, 68, 0
1, 336838, Note_on_c, 0, 64, 70
1, 336841, Note_on_c, 0, 61, 0
1, 336841, Note_on_c, 0, 56, 0
1, 336841, Note_on_c, 0, 68, 80
1, 336844, Note_on_c, 0, 56, 71
1, 336844, Note_on_c, 0, 61, 81
1, 336982, Note_on_c, 0, 68, 0
1, 336982, Note_on_c, 0, 64, 0
1, 336982, Note_on_c, 0, 64, 73
1, 336985, Note_on_c, 0, 61, 0
1, 336985, Note_on_c, 0, 56, 0
1, 336985, Note_on_c, 0, 68, 84
1, 336988, Note_on_c, 0, 56, 74
1, 336988, Note_on_c, 0, 61, 85
1, 337127, Note_on_c, 0, 68, 0
1, 337127, Note_on_c, 0, 64, 0
1, 337127, Note_on_c, 0, 64, 76
1, 337130, Note_on_c, 0, 61, 0
1, 337130, Note_on_c, 0, 56, 0
1, 337130, Note_on_c, 0, 68, 87
1, 337133, Note_on_c, 0, 56, 77
1, 337133, Note_on_c, 0, 61, 88
1, 337270, Note_on_c, 0, 68, 0
1, 337270, Note_on_c, 0, 64, 0
1, 337270, Note_on_c, 0, 64, 79
1, 337273, Note_on_c, 0, 61, 0
1, 337273, Note_on_c, 0, 56, 0
1, 337273, Note_on_c, 0, 68, 90
1, 337276, Note_on_c, 0, 56, 80
1, 337276, Note_on_c, 0, 61, 92
1, 337306, Note_on_c, 0, 46, 117
1, 337414, Note_on_c, 0, 68, 0
1, 337414, Note_on_c, 0, 68, 0
1, 337414, Note_on_c, 0, 64, 0
1, 337417, Note_on_c, 0, 56, 0
1, 337417, Note_on_c, 0, 70, 110
1, 337417, Note_on_c, 0, 82, 117
1, 337420, Note_on_c, 0, 61, 0
1, 337420, Note_on_c, 0, 56, 0
1, 337420, Note_on_c, 0, 58, 117
1, 337444, Note_on_c, 0, 80, 0
1, 337444, Note_on_c, 0, 44, 0
1, 337473, Control_c, 0, 64, 0
1, 337473, Control_c, 0, 64, 0
1, 337574, Control_c, 0, 64, 127
1, 337574, Control_c, 0, 64, 127
1, 337665, Note_on_c, 0, 66, 80
1, 337665, Note_on_c, 0, 68, 89
1, 337665, Note_on_c, 0, 56, 80
1, 337668, Note_on_c, 0, 60, 80
1, 337668, Note_on_c, 0, 63, 89
1, 337913, Note_on_c, 0, 68, 0
1, 337913, Note_on_c, 0, 66, 0
1, 337913, Note_on_c, 0, 66, 80
1, 337916, Note_on_c, 0, 60, 0
1, 337916, Note_on_c, 0, 56, 0
1, 337916, Note_on_c, 0, 68, 89
1, 337919, Note_on_c, 0, 63, 0
1, 337919, Note_on_c, 0, 56, 80
1, 337919, Note_on_c, 0, 60, 80
1, 337922, Note_on_c, 0, 63, 89
1, 337976, Note_on_c, 0, 72, 112
1, 337976, Note_on_c, 0, 84, 117
1, 337976, Note_on_c, 0, 48, 117
1, 337979, Note_on_c, 0, 60, 117
1, 337996, Note_on_c, 0, 70, 0
1, 337996, Note_on_c, 0, 46, 0
1, 337996, Note_on_c, 0, 82, 0
1, 337999, Note_on_c, 0, 58, 0
1, 338056, Control_c, 0, 64, 0
1, 338056, Control_c, 0, 64, 0
1, 338101, Note_on_c, 0, 66, 0
1, 338101, Control_c, 0, 64, 0
1, 338101, Control_c, 0, 64, 0
1, 338104, Note_on_c, 0, 68, 0
1, 338104, Note_on_c, 0, 73, 115
1, 338104, Note_on_c, 0, 85, 117
1, 338107, Control_c, 0, 64, 0
1, 338107, Control_c, 0, 64, 0
1, 338107, Control_c, 0, 64, 0
1, 338110, Note_on_c, 0, 60, 0
1, 338110, Note_on_c, 0, 56, 0
1, 338110, Control_c, 0, 64, 0
1, 338113, Note_on_c, 0, 60, 0
1, 338113, Note_on_c, 0, 63, 0
1, 338113, Note_on_c, 0, 37, 99
1, 338116, Note_on_c, 0, 49, 111
1, 338120, Note_on_c, 0, 72, 0
1, 338120, Note_on_c, 0, 84, 0
1, 338120, Note_on_c, 0, 48, 0
1, 338229, Control_c, 0, 64, 127
1, 338229, Control_c, 0, 64, 127
1, 338268, Note_on_c, 0, 64, 68
1, 338268, Note_on_c, 0, 68, 77
1, 338268, Note_on_c, 0, 56, 68
1, 338271, Note_on_c, 0, 61, 77
1, 338433, Note_on_c, 0, 68, 0
1, 338433, Note_on_c, 0, 64, 0
1, 338433, Note_on_c, 0, 64, 70
1, 338436, Note_on_c, 0, 61, 0
1, 338436, Note_on_c, 0, 56, 0
1, 338436, Note_on_c, 0, 68, 80
1, 338439, Note_on_c, 0, 56, 70
1, 338439, Note_on_c, 0, 61, 80
1, 338621, Note_on_c, 0, 68, 0
1, 338621, Note_on_c, 0, 64, 0
1, 338621, Note_on_c, 0, 64, 73
1, 338624, Note_on_c, 0, 61, 0
1, 338624, Note_on_c, 0, 56, 0
1, 338624, Note_on_c, 0, 68, 83
1, 338627, Note_on_c, 0, 56, 73
1, 338627, Note_on_c, 0, 61, 83
1, 338835, Note_on_c, 0, 68, 0
1, 338835, Note_on_c, 0, 64, 0
1, 338835, Note_on_c, 0, 64, 75
1, 338838, Note_on_c, 0, 61, 0
1, 338838, Note_on_c, 0, 56, 0
1, 338838, Note_on_c, 0, 68, 85
1, 338841, Note_on_c, 0, 56, 75
1, 338841, Note_on_c, 0, 61, 85
1, 339084, Note_on_c, 0, 68, 0
1, 339084, Note_on_c, 0, 64, 0
1, 339084, Note_on_c, 0, 64, 77
1, 339087, Note_on_c, 0, 61, 0
1, 339087, Note_on_c, 0, 56, 0
1, 339087, Note_on_c, 0, 68, 88
1, 339090, Note_on_c, 0, 56, 77
1, 339090, Note_on_c, 0, 61, 88
1, 339384, Note_on_c, 0, 85, 0
1, 339384, Note_on_c, 0, 73, 0
1, 339384, Note_on_c, 0, 64, 0
1, 339387, Note_on_c, 0, 68, 0
1, 339387, Note_on_c, 0, 64, 68
1, 339387, Note_on_c, 0, 68, 77
1, 339390, Note_on_c, 0, 37, 0
1, 339390, Note_on_c, 0, 49, 0
1, 339390, Note_on_c, 0, 76, 103
1, 339393, Note_on_c, 0, 49, 99
1, 339408, Control_c, 0, 64, 0
1, 339408, Control_c, 0, 64, 0
1, 341630, Note_on_c, 0, 64, 0
1, 341630, Note_on_c, 0, 68, 0
1, 341630, Control_c, 0, 64, 0
1, 341633, Note_on_c, 0, 76, 0
1, 341633, Note_on_c, 0, 64, 61
1, 341633, Control_c, 0, 64, 0
1, 341636, Note_on_c, 0, 61, 0
1, 341636, Note_on_c, 0, 56, 0
1, 341636, Control_c, 0, 64, 0
1, 341639, Note_on_c, 0, 49, 0
1, 341639, Note_on_c, 0, 49, 65
1, 341654, Note_on_c, 0, 64, 0
1, 341674, Control_c, 0, 64, 127
1, 341674, Control_c, 0, 64, 127
1, 341724, Note_on_c, 0, 73, 66
1, 341747, Note_on_c, 0, 73, 0
1, 341818, Note_on_c, 0, 76, 70
1, 341838, Note_on_c, 0, 76, 0
1, 341898, Note_on_c, 0, 85, 75
1, 341905, Control_c, 0, 64, 0
1, 341905, Control_c, 0, 64, 0
1, 341918, Note_on_c, 0, 85, 0
1, 341978, Note_on_c, 0, 85, 75
1, 341978, Note_on_c, 0, 56, 86
1, 341998, Note_on_c, 0, 85, 0
1, 342024, Control_c, 0, 64, 127
1, 342024, Control_c, 0, 64, 127
1, 342058, Note_on_c, 0, 76, 71
1, 342078, Note_on_c, 0, 76, 0
1, 342138, Note_on_c, 0, 73, 68
1, 342159, Note_on_c, 0, 73, 0
1, 342219, Note_on_c, 0, 64, 70
1, 342239, Note_on_c, 0, 64, 0
1, 342239, Control_c, 0, 64, 0
1, 342239, Control_c, 0, 64, 0
1, 342299, Note_on_c, 0, 64, 70
1, 342299, Note_on_c, 0, 57, 90
1, 342315, Note_on_c, 0, 56, 0
1, 342324, Note_on_c, 0, 64, 0
1, 342383, Control_c, 0, 64, 127
1, 342383, Control_c, 0, 64, 127
1, 342401, Note_on_c, 0, 73, 68
1, 342424, Note_on_c, 0, 73, 0
1, 342495, Note_on_c, 0, 76, 71
1, 342516, Note_on_c, 0, 76, 0
1, 342575, Control_c, 0, 64, 0
1, 342575, Control_c, 0, 64, 0
1, 342581, Note_on_c, 0, 85, 75
1, 342603, Note_on_c, 0, 85, 0
1, 342663, Control_c, 0, 64, 127
1, 342663, Control_c, 0, 64, 127
1, 342667, Note_on_c, 0, 85, 75
1, 342667, Note_on_c, 0, 42, 65
1, 342667, Note_on_c, 0, 58, 93
1, 342681, Note_on_c, 0, 49, 0
1, 342681, Note_on_c, 0, 57, 0
1, 342689, Note_on_c, 0, 85, 0
1, 342754, Note_on_c, 0, 76, 71
1, 342777, Note_on_c, 0, 76, 0
1, 342847, Note_on_c, 0, 73, 68
1, 342879, Note_on_c, 0, 73, 0
1, 342972, Note_on_c, 0, 64, 70
1, 342975, Note_on_c, 0, 47, 65
1, 342985, Control_c, 0, 64, 127
1, 342985, Control_c, 0, 64, 127
1, 343003, Note_on_c, 0, 64, 0
1, 343097, Control_c, 0, 64, 127
1, 343097, Note_on_c, 0, 62, 67
1, 343097, Control_c, 0, 64, 127
1, 343100, Control_c, 0, 64, 0
1, 343100, Note_on_c, 0, 61, 97
1, 343100, Note_on_c, 0, 54, 65
1, 343117, Note_on_c, 0, 58, 0
1, 343117, Note_on_c, 0, 42, 0
1, 343128, Note_on_c, 0, 62, 0
1, 343155, Control_c, 0, 64, 0
1, 343155, Control_c, 0, 64, 0
1, 343183, Control_c, 0, 64, 127
1, 343183, Control_c, 0, 64, 127
1, 343222, Note_on_c, 0, 73, 66
1, 343245, Note_on_c, 0, 73, 0
1, 343315, Note_on_c, 0, 74, 70
1, 343339, Note_on_c, 0, 74, 0
1, 343409, Note_on_c, 0, 85, 75
1, 343416, Control_c, 0, 64, 0
1, 343416, Control_c, 0, 64, 0
1, 343429, Note_on_c, 0, 85, 0
1, 343489, Note_on_c, 0, 85, 75
1, 343509, Note_on_c, 0, 85, 0
1, 343535, Control_c, 0, 64, 127
1, 343535, Control_c, 0, 64, 127
1, 343570, Note_on_c, 0, 74, 71
1, 343590, Note_on_c, 0, 74, 0
1, 343650, Note_on_c, 0, 73, 68
1, 343670, Note_on_c, 0, 73, 0
1, 343730, Note_on_c, 0, 62, 70
1, 343750, Note_on_c, 0, 62, 0
1, 343753, Control_c, 0, 64, 0
1, 343753, Control_c, 0, 64, 0
1, 343810, Note_on_c, 0, 62, 70
1, 343810, Note_on_c, 0, 59, 86
1, 343823, Note_on_c, 0, 61, 0
1, 343830, Note_on_c, 0, 62, 0
1, 343876, Control_c, 0, 64, 127
1, 343876, Control_c, 0, 64, 127
1, 343890, Note_on_c, 0, 71, 68
1, 343910, Note_on_c, 0, 71, 0
1, 343971, Note_on_c, 0, 74, 71
1, 343991, Note_on_c, 0, 74, 0
1, 344045, Control_c, 0, 64, 0
1, 344045, Control_c, 0, 64, 0
1, 344051, Note_on_c, 0, 83, 75
1, 344071, Note_on_c, 0, 83, 0
1, 344127, Control_c, 0, 64, 127
1, 344127, Control_c, 0, 64, 127
1, 344131, Note_on_c, 0, 83, 75
1, 344131, Note_on_c, 0, 44, 69
1, 344131, Note_on_c, 0, 52, 77
1, 344145, Note_on_c, 0, 59, 0
1, 344145, Note_on_c, 0, 47, 0
1, 344145, Note_on_c, 0, 54, 0
1, 344153, Note_on_c, 0, 83, 0
1, 344218, Note_on_c, 0, 74, 71
1, 344239, Note_on_c, 0, 74, 0
1, 344304, Note_on_c, 0, 71, 68
1, 344329, Note_on_c, 0, 71, 0
1, 344406, Note_on_c, 0, 62, 70
1, 344437, Note_on_c, 0, 62, 0
1, 344489, Control_c, 0, 64, 0
1, 344489, Control_c, 0, 64, 0
1, 344531, Control_c, 0, 64, 0
1, 344531, Control_c, 0, 64, 0
1, 344531, Note_on_c, 0, 61, 67
1, 344534, Control_c, 0, 64, 0
1, 344534, Control_c, 0, 64, 0
1, 344534, Control_c, 0, 64, 0
1, 344537, Note_on_c, 0, 45, 69
1, 344548, Note_on_c, 0, 44, 0
1, 344558, Note_on_c, 0, 61, 0
1, 344581, Control_c, 0, 64, 127
1, 344581, Control_c, 0, 64, 127
1, 344639, Note_on_c, 0, 71, 66
1, 344659, Note_on_c, 0, 71, 0
1, 344719, Note_on_c, 0, 73, 70
1, 344739, Note_on_c, 0, 73, 0
1, 344799, Note_on_c, 0, 83, 75
1, 344806, Control_c, 0, 64, 0
1, 344806, Control_c, 0, 64, 0
1, 344819, Note_on_c, 0, 83, 0
1, 344880, Note_on_c, 0, 83, 75
1, 344880, Note_on_c, 0, 53, 82
1, 344892, Note_on_c, 0, 52, 0
1, 344900, Note_on_c, 0, 83, 0
1, 344925, Control_c, 0, 64, 127
1, 344925, Control_c, 0, 64, 127
1, 344960, Note_on_c, 0, 73, 71
1, 344980, Note_on_c, 0, 73, 0
1, 345040, Note_on_c, 0, 71, 68
1, 345060, Note_on_c, 0, 71, 0
1, 345120, Note_on_c, 0, 61, 70
1, 345140, Note_on_c, 0, 61, 0
1, 345143, Control_c, 0, 64, 0
1, 345143, Control_c, 0, 64, 0
1, 345200, Note_on_c, 0, 61, 70
1, 345200, Note_on_c, 0, 54, 87
1, 345213, Note_on_c, 0, 53, 0
1, 345220, Note_on_c, 0, 61, 0
1, 345266, Control_c, 0, 64, 127
1, 345266, Control_c, 0, 64, 127
1, 345281, Note_on_c, 0, 69, 68
1, 345301, Note_on_c, 0, 69, 0
1, 345361, Note_on_c, 0, 73, 71
1, 345381, Note_on_c, 0, 73, 0
1, 345435, Control_c, 0, 64, 0
1, 345435, Control_c, 0, 64, 0
1, 345441, Note_on_c, 0, 81, 75
1, 345461, Note_on_c, 0, 81, 0
1, 345517, Control_c, 0, 64, 127
1, 345517, Control_c, 0, 64, 127
1, 345521, Note_on_c, 0, 45, 0
1, 345521, Note_on_c, 0, 81, 75
1, 345521, Note_on_c, 0, 45, 69
1, 345524, Note_on_c, 0, 52, 83
1, 345534, Note_on_c, 0, 54, 0
1, 345541, Note_on_c, 0, 81, 0
1, 345602, Note_on_c, 0, 73, 71
1, 345622, Note_on_c, 0, 73, 0
1, 345682, Note_on_c, 0, 69, 68
1, 345702, Note_on_c, 0, 69, 0
1, 345762, Note_on_c, 0, 61, 64
1, 345788, Note_on_c, 0, 61, 0
1, 345830, Control_c, 0, 64, 0
1, 345830, Control_c, 0, 64, 0
1, 345864, Control_c, 0, 64, 0
1, 345864, Control_c, 0, 64, 0
1, 345864, Note_on_c, 0, 59, 61
1, 345867, Control_c, 0, 64, 0
1, 345867, Control_c, 0, 64, 0
1, 345867, Control_c, 0, 64, 0
1, 345870, Note_on_c, 0, 47, 69
1, 345870, Note_on_c, 0, 51, 83
1, 345884, Note_on_c, 0, 45, 0
1, 345884, Note_on_c, 0, 52, 0
1, 345895, Note_on_c, 0, 59, 0
1, 345922, Control_c, 0, 64, 127
1, 345922, Control_c, 0, 64, 127
1, 345989, Note_on_c, 0, 66, 66
1, 346012, Note_on_c, 0, 66, 0
1, 346083, Note_on_c, 0, 71, 70
1, 346106, Note_on_c, 0, 71, 0
1, 346176, Note_on_c, 0, 78, 75
1, 346183, Control_c, 0, 64, 0
1, 346183, Control_c, 0, 64, 0
1, 346196, Note_on_c, 0, 78, 0
1, 346256, Note_on_c, 0, 78, 75
1, 346256, Note_on_c, 0, 59, 76
1, 346269, Note_on_c, 0, 51, 0
1, 346276, Note_on_c, 0, 78, 0
1, 346302, Control_c, 0, 64, 127
1, 346302, Control_c, 0, 64, 127
1, 346337, Note_on_c, 0, 71, 71
1, 346357, Note_on_c, 0, 71, 0
1, 346417, Note_on_c, 0, 66, 68
1, 346437, Note_on_c, 0, 66, 0
1, 346497, Note_on_c, 0, 59, 71
1, 346517, Note_on_c, 0, 59, 0
1, 346520, Control_c, 0, 64, 0
1, 346520, Control_c, 0, 64, 0
1, 346577, Note_on_c, 0, 59, 71
1, 346590, Note_on_c, 0, 59, 0
1, 346597, Note_on_c, 0, 59, 0
1, 346643, Control_c, 0, 64, 127
1, 346643, Control_c, 0, 64, 127
1, 346657, Note_on_c, 0, 67, 68
1, 346678, Note_on_c, 0, 67, 0
1, 346738, Note_on_c, 0, 71, 71
1, 346758, Note_on_c, 0, 71, 0
1, 346812, Control_c, 0, 64, 0
1, 346812, Control_c, 0, 64, 0
1, 346818, Note_on_c, 0, 79, 75
1, 346838, Note_on_c, 0, 79, 0
1, 346894, Control_c, 0, 64, 127
1, 346894, Control_c, 0, 64, 127
1, 346898, Note_on_c, 0, 47, 0
1, 346898, Note_on_c, 0, 79, 75
1, 346898, Note_on_c, 0, 47, 83
1, 346918, Note_on_c, 0, 79, 0
1, 346978, Note_on_c, 0, 71, 71
1, 346998, Note_on_c, 0, 71, 0
1, 347059, Note_on_c, 0, 67, 68
1, 347079, Note_on_c, 0, 67, 0
1, 347139, Note_on_c, 0, 59, 64
1, 347159, Note_on_c, 0, 59, 0
1, 347192, Control_c, 0, 64, 0
1, 347192, Control_c, 0, 64, 0
1, 347219, Control_c, 0, 64, 0
1, 347219, Note_on_c, 0, 59, 67
1, 347219, Control_c, 0, 64, 0
1, 347222, Control_c, 0, 64, 0
1, 347222, Note_on_c, 0, 40, 66
1, 347242, Note_on_c, 0, 59, 0
1, 347278, Note_on_c, 0, 47, 0
1, 347313, Note_on_c, 0, 68, 71
1, 347336, Note_on_c, 0, 68, 0
1, 347406, Note_on_c, 0, 71, 75
1, 347426, Note_on_c, 0, 71, 0
1, 347487, Note_on_c, 0, 80, 79
1, 347507, Note_on_c, 0, 80, 0
1, 347567, Note_on_c, 0, 80, 79
1, 347567, Note_on_c, 0, 47, 83
1, 347587, Note_on_c, 0, 80, 0
1, 347647, Note_on_c, 0, 71, 75
1, 347667, Note_on_c, 0, 71, 0
1, 347727, Note_on_c, 0, 68, 72
1, 347747, Note_on_c, 0, 68, 0
1, 347807, Note_on_c, 0, 59, 69
1, 347827, Note_on_c, 0, 59, 0
1, 347888, Note_on_c, 0, 59, 68
1, 347888, Note_on_c, 0, 49, 87
1, 347900, Note_on_c, 0, 47, 0
1, 347908, Note_on_c, 0, 59, 0
1, 347953, Control_c, 0, 64, 127
1, 347953, Control_c, 0, 64, 127
1, 347968, Note_on_c, 0, 68, 72
1, 347988, Note_on_c, 0, 68, 0
1, 348048, Note_on_c, 0, 71, 75
1, 348068, Note_on_c, 0, 71, 0
1, 348123, Control_c, 0, 64, 0
1, 348123, Control_c, 0, 64, 0
1, 348128, Note_on_c, 0, 80, 78
1, 348148, Note_on_c, 0, 80, 0
1, 348204, Control_c, 0, 64, 127
1, 348204, Control_c, 0, 64, 127
1, 348209, Note_on_c, 0, 80, 78
1, 348209, Note_on_c, 0, 50, 90
1, 348209, Note_on_c, 0, 41, 66
1, 348223, Note_on_c, 0, 40, 0
1, 348223, Note_on_c, 0, 49, 0
1, 348232, Note_on_c, 0, 80, 0
1, 348302, Note_on_c, 0, 71, 74
1, 348328, Note_on_c, 0, 71, 0
1, 348404, Note_on_c, 0, 68, 72
1, 348431, Note_on_c, 0, 68, 0
1, 348493, Control_c, 0, 64, 127
1, 348493, Control_c, 0, 64, 127
1, 348512, Note_on_c, 0, 59, 68
1, 348539, Note_on_c, 0, 59, 0
1, 348620, Control_c, 0, 64, 127
1, 348620, Control_c, 0, 64, 0
1, 348620, Note_on_c, 0, 59, 65
1, 348623, Control_c, 0, 64, 127
1, 348623, Control_c, 0, 64, 0
1, 348623, Control_c, 0, 64, 0
1, 348626, Note_on_c, 0, 50, 0
1, 348626, Control_c, 0, 64, 0
1, 348626, Note_on_c, 0, 42, 67
1, 348629, Note_on_c, 0, 50, 88
1, 348636, Note_on_c, 0, 41, 0
1, 348646, Note_on_c, 0, 59, 0
1, 348667, Control_c, 0, 64, 0
1, 348667, Control_c, 0, 64, 0
1, 348690, Control_c, 0, 64, 127
1, 348690, Control_c, 0, 64, 127
1, 348722, Note_on_c, 0, 68, 70
1, 348746, Note_on_c, 0, 68, 0
1, 348816, Note_on_c, 0, 71, 73
1, 348839, Note_on_c, 0, 71, 0
1, 348910, Note_on_c, 0, 80, 77
1, 348916, Control_c, 0, 64, 0
1, 348916, Control_c, 0, 64, 0
1, 348930, Note_on_c, 0, 80, 0
1, 348990, Note_on_c, 0, 80, 76
1, 349010, Note_on_c, 0, 80, 0
1, 349036, Control_c, 0, 64, 127
1, 349036, Control_c, 0, 64, 127
1, 349070, Note_on_c, 0, 71, 72
1, 349090, Note_on_c, 0, 71, 0
1, 349150, Note_on_c, 0, 68, 70
1, 349170, Note_on_c, 0, 68, 0
1, 349231, Note_on_c, 0, 59, 66
1, 349251, Note_on_c, 0, 59, 0
1, 349251, Control_c, 0, 64, 0
1, 349251, Control_c, 0, 64, 0
1, 349311, Note_on_c, 0, 57, 66
1, 349311, Note_on_c, 0, 49, 83
1, 349323, Note_on_c, 0, 50, 0
1, 349331, Note_on_c, 0, 57, 0
1, 349377, Control_c, 0, 64, 127
1, 349377, Control_c, 0, 64, 127
1, 349391, Note_on_c, 0, 66, 69
1, 349411, Note_on_c, 0, 66, 0
1, 349471, Note_on_c, 0, 69, 72
1, 349491, Note_on_c, 0, 69, 0
1, 349546, Control_c, 0, 64, 0
1, 349546, Control_c, 0, 64, 0
1, 349551, Note_on_c, 0, 78, 74
1, 349571, Note_on_c, 0, 78, 0
1, 349627, Control_c, 0, 64, 127
1, 349627, Control_c, 0, 64, 127
1, 349632, Note_on_c, 0, 78, 74
1, 349632, Note_on_c, 0, 48, 86
1, 349632, Note_on_c, 0, 39, 67
1, 349645, Note_on_c, 0, 42, 0
1, 349645, Note_on_c, 0, 49, 0
1, 349653, Note_on_c, 0, 78, 0
1, 349718, Note_on_c, 0, 69, 70
1, 349740, Note_on_c, 0, 69, 0
1, 349804, Control_c, 0, 64, 0
1, 349804, Note_on_c, 0, 66, 68
1, 349804, Control_c, 0, 64, 0
1, 349826, Note_on_c, 0, 66, 0
1, 349891, Note_on_c, 0, 57, 64
1, 349896, Control_c, 0, 64, 127
1, 349896, Control_c, 0, 64, 127
1, 349912, Note_on_c, 0, 57, 0
1, 349977, Control_c, 0, 64, 127
1, 349977, Note_on_c, 0, 56, 62
1, 349977, Control_c, 0, 64, 127
1, 349980, Control_c, 0, 64, 0
1, 349980, Control_c, 0, 64, 0
1, 349980, Note_on_c, 0, 40, 60
1, 349983, Note_on_c, 0, 47, 83
1, 349991, Note_on_c, 0, 48, 0
1, 349991, Note_on_c, 0, 39, 0
1, 349999, Note_on_c, 0, 56, 0
1, 350018, Control_c, 0, 64, 0
1, 350018, Control_c, 0, 64, 0
1, 350060, Control_c, 0, 64, 127
1, 350060, Control_c, 0, 64, 127
1, 350064, Note_on_c, 0, 64, 66
1, 350085, Note_on_c, 0, 64, 0
1, 350150, Note_on_c, 0, 68, 68
1, 350172, Note_on_c, 0, 68, 0
1, 350236, Note_on_c, 0, 76, 72
1, 350244, Control_c, 0, 64, 0
1, 350244, Control_c, 0, 64, 0
1, 350258, Note_on_c, 0, 76, 0
1, 350323, Note_on_c, 0, 76, 72
1, 350323, Note_on_c, 0, 45, 81
1, 350323, Note_on_c, 0, 33, 60
1, 350336, Note_on_c, 0, 40, 0
1, 350336, Note_on_c, 0, 47, 0
1, 350344, Note_on_c, 0, 76, 0
1, 350372, Control_c, 0, 64, 127
1, 350372, Control_c, 0, 64, 127
1, 350409, Note_on_c, 0, 66, 68
1, 350431, Note_on_c, 0, 66, 0
1, 350496, Note_on_c, 0, 64, 66
1, 350517, Note_on_c, 0, 64, 0
1, 350582, Note_on_c, 0, 54, 62
1, 350582, Note_on_c, 0, 44, 79
1, 350599, Note_on_c, 0, 45, 0
1, 350609, Note_on_c, 0, 54, 0
1, 350612, Control_c, 0, 64, 0
1, 350612, Control_c, 0, 64, 0
1, 350690, Note_on_c, 0, 54, 62
1, 350690, Note_on_c, 0, 42, 79
1, 350690, Note_on_c, 0, 35, 60
1, 350705, Note_on_c, 0, 33, 0
1, 350705, Note_on_c, 0, 44, 0
1, 350713, Note_on_c, 0, 54, 0
1, 350767, Control_c, 0, 64, 127
1, 350767, Control_c, 0, 64, 127
1, 350784, Note_on_c, 0, 63, 65
1, 350807, Note_on_c, 0, 63, 0
1, 350877, Note_on_c, 0, 66, 67
1, 350901, Note_on_c, 0, 66, 0
1, 350964, Control_c, 0, 64, 0
1, 350964, Control_c, 0, 64, 0
1, 350971, Note_on_c, 0, 75, 70
1, 350994, Note_on_c, 0, 75, 0
1, 351059, Control_c, 0, 64, 127
1, 351059, Control_c, 0, 64, 127
1, 351064, Note_on_c, 0, 75, 70
1, 351064, Note_on_c, 0, 45, 77
1, 351079, Note_on_c, 0, 42, 0
1, 351088, Note_on_c, 0, 75, 0
1, 351158, Note_on_c, 0, 66, 66
1, 351181, Note_on_c, 0, 66, 0
1, 351252, Note_on_c, 0, 63, 64
1, 351275, Note_on_c, 0, 63, 0
1, 351345, Note_on_c, 0, 54, 61
1, 351369, Note_on_c, 0, 54, 0
1, 351373, Control_c, 0, 64, 0
1, 351373, Control_c, 0, 64, 0
1, 351406, Control_c, 0, 64, 127
1, 351406, Control_c, 0, 64, 127
1, 351439, Control_c, 0, 64, 127
1, 351439, Note_on_c, 0, 54, 54
1, 351439, Control_c, 0, 64, 127
1, 351442, Note_on_c, 0, 45, 0
1, 351442, Control_c, 0, 64, 0
1, 351442, Note_on_c, 0, 40, 54
1, 351445, Note_on_c, 0, 45, 77
1, 351453, Note_on_c, 0, 35, 0
1, 351462, Note_on_c, 0, 54, 0
1, 351494, Control_c, 0, 64, 0
1, 351494, Control_c, 0, 64, 0
1, 351532, Note_on_c, 0, 63, 57
1, 351554, Note_on_c, 0, 63, 0
1, 351559, Control_c, 0, 64, 127
1, 351559, Control_c, 0, 64, 127
1, 351619, Note_on_c, 0, 66, 60
1, 351640, Note_on_c, 0, 66, 0
1, 351705, Note_on_c, 0, 75, 63
1, 351727, Note_on_c, 0, 75, 0
1, 351792, Note_on_c, 0, 75, 63
1, 351813, Note_on_c, 0, 75, 0
1, 351878, Note_on_c, 0, 66, 59
1, 351900, Note_on_c, 0, 66, 0
1, 351964, Note_on_c, 0, 63, 57
1, 351986, Note_on_c, 0, 63, 0
1, 352051, Note_on_c, 0, 54, 55
1, 352072, Note_on_c, 0, 54, 0
1, 352127, Control_c, 0, 64, 0
1, 352127, Control_c, 0, 64, 0
1, 352137, Note_on_c, 0, 52, 54
1, 352137, Note_on_c, 0, 44, 65
1, 352151, Note_on_c, 0, 45, 0
1, 352159, Note_on_c, 0, 52, 0
1, 352224, Note_on_c, 0, 64, 56
1, 352249, Note_on_c, 0, 64, 0
1, 352254, Control_c, 0, 64, 127
1, 352254, Control_c, 0, 64, 127
1, 352326, Note_on_c, 0, 64, 58
1, 352351, Note_on_c, 0, 64, 0
1, 352428, Note_on_c, 0, 76, 61
1, 352463, Note_on_c, 0, 76, 0
1, 352486, Control_c, 0, 64, 127
1, 352486, Control_c, 0, 64, 127
1, 352568, Note_on_c, 0, 76, 60
1, 352709, Note_on_c, 0, 76, 0
1, 352783, Control_c, 0, 64, 0
1, 352783, Control_c, 0, 64, 0
1, 353130, Control_c, 0, 64, 0
1, 353130, Note_on_c, 0, 64, 61
1, 353130, Control_c, 0, 64, 0
1, 353133, Note_on_c, 0, 40, 0
1, 353133, Note_on_c, 0, 44, 0
1, 353133, Control_c, 0, 64, 0
1, 353136, Note_on_c, 0, 49, 65
1, 353153, Note_on_c, 0, 64, 0
1, 353173, Control_c, 0, 64, 127
1, 353173, Control_c, 0, 64, 127
1, 353223, Note_on_c, 0, 73, 66
1, 353247, Note_on_c, 0, 73, 0
1, 353317, Note_on_c, 0, 76, 70
1, 353337, Note_on_c, 0, 76, 0
1, 353397, Note_on_c, 0, 85, 75
1, 353404, Control_c, 0, 64, 0
1, 353404, Control_c, 0, 64, 0
1, 353417, Note_on_c, 0, 85, 0
1, 353478, Note_on_c, 0, 85, 75
1, 353478, Note_on_c, 0, 56, 86
1, 353498, Note_on_c, 0, 85, 0
1, 353523, Control_c, 0, 64, 127
1, 353523, Control_c, 0, 64, 127
1, 353558, Note_on_c, 0, 76, 71
1, 353578, Note_on_c, 0, 76, 0
1, 353638, Note_on_c, 0, 73, 68
1, 353658, Note_on_c, 0, 73, 0
1, 353718, Note_on_c, 0, 64, 70
1, 353738, Note_on_c, 0, 64, 0
1, 353741, Control_c, 0, 64, 0
1, 353741, Control_c, 0, 64, 0
1, 353798, Note_on_c, 0, 64, 70
1, 353798, Note_on_c, 0, 57, 90
1, 353814, Note_on_c, 0, 56, 0
1, 353824, Note_on_c, 0, 64, 0
1, 353882, Control_c, 0, 64, 127
1, 353882, Control_c, 0, 64, 127
1, 353901, Note_on_c, 0, 73, 68
1, 353924, Note_on_c, 0, 73, 0
1, 353994, Note_on_c, 0, 76, 71
1, 354016, Note_on_c, 0, 76, 0
1, 354074, Control_c, 0, 64, 0
1, 354074, Control_c, 0, 64, 0
1, 354081, Note_on_c, 0, 85, 75
1, 354102, Note_on_c, 0, 85, 0
1, 354162, Control_c, 0, 64, 127
1, 354162, Control_c, 0, 64, 127
1, 354167, Note_on_c, 0, 85, 75
1, 354167, Note_on_c, 0, 42, 65
1, 354167, Note_on_c, 0, 58, 93
1, 354180, Note_on_c, 0, 49, 0
1, 354180, Note_on_c, 0, 57, 0
1, 354189, Note_on_c, 0, 85, 0
1, 354253, Note_on_c, 0, 76, 71
1, 354277, Note_on_c, 0, 76, 0
1, 354347, Note_on_c, 0, 73, 68
1, 354378, Note_on_c, 0, 73, 0
1, 354472, Note_on_c, 0, 64, 70
1, 354475, Note_on_c, 0, 47, 65
1, 354484, Control_c, 0, 64, 127
1, 354484, Control_c, 0, 64, 127
1, 354503, Note_on_c, 0, 64, 0
1, 354597, Control_c, 0, 64, 127
1, 354597, Note_on_c, 0, 62, 67
1, 354597, Control_c, 0, 64, 127
1, 354600, Control_c, 0, 64, 0
1, 354600, Note_on_c, 0, 61, 97
1, 354600, Note_on_c, 0, 54, 65
1, 354616, Note_on_c, 0, 58, 0
1, 354616, Note_on_c, 0, 42, 0
1, 354628, Note_on_c, 0, 62, 0
1, 354654, Control_c, 0, 64, 0
1, 354654, Control_c, 0, 64, 0
1, 354682, Control_c, 0, 64, 127
1, 354682, Control_c, 0, 64, 127
1, 354721, Note_on_c, 0, 73, 66
1, 354745, Note_on_c, 0, 73, 0
1, 354815, Note_on_c, 0, 74, 70
1, 354838, Note_on_c, 0, 74, 0
1, 354909, Note_on_c, 0, 85, 75
1, 354915, Control_c, 0, 64, 0
1, 354915, Control_c, 0, 64, 0
1, 354929, Note_on_c, 0, 85, 0
1, 354989, Note_on_c, 0, 85, 75
1, 355009, Note_on_c, 0, 85, 0
1, 355035, Control_c, 0, 64, 127
1, 355035, Control_c, 0, 64, 127
1, 355069, Note_on_c, 0, 74, 71
1, 355089, Note_on_c, 0, 74, 0
1, 355149, Note_on_c, 0, 73, 68
1, 355169, Note_on_c, 0, 73, 0
1, 355229, Note_on_c, 0, 62, 70
1, 355250, Note_on_c, 0, 62, 0
1, 355250, Control_c, 0, 64, 0
1, 355250, Control_c, 0, 64, 0
1, 355310, Note_on_c, 0, 62, 70
1, 355310, Note_on_c, 0, 59, 86
1, 355322, Note_on_c, 0, 61, 0
1, 355330, Note_on_c, 0, 62, 0
1, 355376, Control_c, 0, 64, 127
1, 355376, Control_c, 0, 64, 127
1, 355390, Note_on_c, 0, 71, 68
1, 355410, Note_on_c, 0, 71, 0
1, 355470, Note_on_c, 0, 74, 71
1, 355490, Note_on_c, 0, 74, 0
1, 355545, Control_c, 0, 64, 0
1, 355545, Control_c, 0, 64, 0
1, 355550, Note_on_c, 0, 83, 75
1, 355570, Note_on_c, 0, 83, 0
1, 355626, Control_c, 0, 64, 127
1, 355626, Control_c, 0, 64, 127
1, 355631, Note_on_c, 0, 83, 75
1, 355631, Note_on_c, 0, 44, 69
1, 355631, Note_on_c, 0, 52, 77
1, 355644, Note_on_c, 0, 59, 0
1, 355644, Note_on_c, 0, 47, 0
1, 355644, Note_on_c, 0, 54, 0
1, 355652, Note_on_c, 0, 83, 0
1, 355717, Note_on_c, 0, 74, 71
1, 355739, Note_on_c, 0, 74, 0
1, 355803, Note_on_c, 0, 71, 68
1, 355829, Note_on_c, 0, 71, 0
1, 355906, Note_on_c, 0, 62, 70
1, 355937, Note_on_c, 0, 62, 0
1, 355988, Control_c, 0, 64, 0
1, 355988, Control_c, 0, 64, 0
1, 356030, Control_c, 0, 64, 0
1, 356030, Control_c, 0, 64, 0
1, 356030, Note_on_c, 0, 61, 67
1, 356033, Control_c, 0, 64, 0
1, 356033, Control_c, 0, 64, 0
1, 356033, Control_c, 0, 64, 0
1, 356036, Note_on_c, 0, 45, 69
1, 356047, Note_on_c, 0, 44, 0
1, 356057, Note_on_c, 0, 61, 0
1, 356080, Control_c, 0, 64, 127
1, 356080, Control_c, 0, 64, 127
1, 356138, Note_on_c, 0, 71, 66
1, 356158, Note_on_c, 0, 71, 0
1, 356219, Note_on_c, 0, 73, 70
1, 356239, Note_on_c, 0, 73, 0
1, 356299, Note_on_c, 0, 83, 75
1, 356306, Control_c, 0, 64, 0
1, 356306, Control_c, 0, 64, 0
1, 356319, Note_on_c, 0, 83, 0
1, 356379, Note_on_c, 0, 83, 75
1, 356379, Note_on_c, 0, 53, 82
1, 356392, Note_on_c, 0, 52, 0
1, 356399, Note_on_c, 0, 83, 0
1, 356425, Control_c, 0, 64, 127
1, 356425, Control_c, 0, 64, 127
1, 356459, Note_on_c, 0, 73, 71
1, 356479, Note_on_c, 0, 73, 0
1, 356539, Note_on_c, 0, 71, 68
1, 356560, Note_on_c, 0, 71, 0
1, 356620, Note_on_c, 0, 61, 70
1, 356640, Note_on_c, 0, 61, 0
1, 356640, Control_c, 0, 64, 0
1, 356640, Control_c, 0, 64, 0
1, 356700, Note_on_c, 0, 61, 70
1, 356700, Note_on_c, 0, 54, 87
1, 356712, Note_on_c, 0, 53, 0
1, 356720, Note_on_c, 0, 61, 0
1, 356766, Control_c, 0, 64, 127
1, 356766, Control_c, 0, 64, 127
1, 356780, Note_on_c, 0, 69, 68
1, 356800, Note_on_c, 0, 69, 0
1, 356860, Note_on_c, 0, 73, 71
1, 356880, Note_on_c, 0, 73, 0
1, 356935, Control_c, 0, 64, 0
1, 356935, Control_c, 0, 64, 0
1, 356941, Note_on_c, 0, 81, 75
1, 356961, Note_on_c, 0, 81, 0
1, 357016, Control_c, 0, 64, 127
1, 357016, Control_c, 0, 64, 127
1, 357021, Note_on_c, 0, 45, 0
1, 357021, Note_on_c, 0, 81, 75
1, 357021, Note_on_c, 0, 45, 69
1, 357024, Note_on_c, 0, 52, 83
1, 357033, Note_on_c, 0, 54, 0
1, 357041, Note_on_c, 0, 81, 0
1, 357101, Note_on_c, 0, 73, 71
1, 357121, Note_on_c, 0, 73, 0
1, 357181, Note_on_c, 0, 69, 68
1, 357201, Note_on_c, 0, 69, 0
1, 357262, Note_on_c, 0, 61, 64
1, 357287, Note_on_c, 0, 61, 0
1, 357329, Control_c, 0, 64, 0
1, 357329, Control_c, 0, 64, 0
1, 357364, Control_c, 0, 64, 0
1, 357364, Control_c, 0, 64, 0
1, 357364, Note_on_c, 0, 59, 61
1, 357367, Control_c, 0, 64, 0
1, 357367, Control_c, 0, 64, 0
1, 357367, Control_c, 0, 64, 0
1, 357370, Note_on_c, 0, 47, 69
1, 357370, Note_on_c, 0, 51, 83
1, 357383, Note_on_c, 0, 45, 0
1, 357383, Note_on_c, 0, 52, 0
1, 357395, Note_on_c, 0, 59, 0
1, 357421, Control_c, 0, 64, 127
1, 357421, Control_c, 0, 64, 127
1, 357488, Note_on_c, 0, 66, 66
1, 357512, Note_on_c, 0, 66, 0
1, 357582, Note_on_c, 0, 71, 70
1, 357605, Note_on_c, 0, 71, 0
1, 357676, Note_on_c, 0, 78, 75
1, 357683, Control_c, 0, 64, 0
1, 357683, Control_c, 0, 64, 0
1, 357696, Note_on_c, 0, 78, 0
1, 357756, Note_on_c, 0, 78, 75
1, 357756, Note_on_c, 0, 59, 76
1, 357768, Note_on_c, 0, 51, 0
1, 357776, Note_on_c, 0, 78, 0
1, 357802, Control_c, 0, 64, 127
1, 357802, Control_c, 0, 64, 127
1, 357836, Note_on_c, 0, 71, 71
1, 357856, Note_on_c, 0, 71, 0
1, 357916, Note_on_c, 0, 66, 68
1, 357936, Note_on_c, 0, 66, 0
1, 357997, Note_on_c, 0, 59, 71
1, 358017, Note_on_c, 0, 59, 0
1, 358017, Control_c, 0, 64, 0
1, 358017, Control_c, 0, 64, 0
1, 358077, Note_on_c, 0, 59, 71
1, 358089, Note_on_c, 0, 59, 0
1, 358097, Note_on_c, 0, 59, 0
1, 358143, Control_c, 0, 64, 127
1, 358143, Control_c, 0, 64, 127
1, 358157, Note_on_c, 0, 67, 68
1, 358177, Note_on_c, 0, 67, 0
1, 358237, Note_on_c, 0, 71, 71
1, 358257, Note_on_c, 0, 71, 0
1, 358312, Control_c, 0, 64, 0
1, 358312, Control_c, 0, 64, 0
1, 358317, Note_on_c, 0, 79, 75
1, 358338, Note_on_c, 0, 79, 0
1, 358393, Control_c, 0, 64, 127
1, 358393, Control_c, 0, 64, 127
1, 358398, Note_on_c, 0, 47, 0
1, 358398, Note_on_c, 0, 79, 75
1, 358398, Note_on_c, 0, 47, 83
1, 358418, Note_on_c, 0, 79, 0
1, 358478, Note_on_c, 0, 71, 71
1, 358498, Note_on_c, 0, 71, 0
1, 358558, Note_on_c, 0, 67, 68
1, 358578, Note_on_c, 0, 67, 0
1, 358638, Note_on_c, 0, 59, 64
1, 358658, Note_on_c, 0, 59, 0
1, 358692, Control_c, 0, 64, 0
1, 358692, Control_c, 0, 64, 0
1, 358719, Control_c, 0, 64, 0
1, 358719, Note_on_c, 0, 59, 67
1, 358719, Control_c, 0, 64, 0
1, 358722, Control_c, 0, 64, 0
1, 358722, Note_on_c, 0, 40, 66
1, 358742, Note_on_c, 0, 59, 0
1, 358777, Note_on_c, 0, 47, 0
1, 358812, Note_on_c, 0, 68, 71
1, 358836, Note_on_c, 0, 68, 0
1, 358906, Note_on_c, 0, 71, 75
1, 358926, Note_on_c, 0, 71, 0
1, 358986, Note_on_c, 0, 80, 79
1, 359006, Note_on_c, 0, 80, 0
1, 359066, Note_on_c, 0, 80, 79
1, 359066, Note_on_c, 0, 47, 83
1, 359086, Note_on_c, 0, 80, 0
1, 359146, Note_on_c, 0, 71, 75
1, 359167, Note_on_c, 0, 71, 0
1, 359227, Note_on_c, 0, 68, 72
1, 359247, Note_on_c, 0, 68, 0
1, 359307, Note_on_c, 0, 59, 69
1, 359327, Note_on_c, 0, 59, 0
1, 359387, Note_on_c, 0, 59, 68
1, 359387, Note_on_c, 0, 49, 87
1, 359400, Note_on_c, 0, 47, 0
1, 359407, Note_on_c, 0, 59, 0
1, 359453, Control_c, 0, 64, 127
1, 359453, Control_c, 0, 64, 127
1, 359467, Note_on_c, 0, 68, 72
1, 359487, Note_on_c, 0, 68, 0
1, 359548, Note_on_c, 0, 71, 75
1, 359568, Note_on_c, 0, 71, 0
1, 359622, Control_c, 0, 64, 0
1, 359622, Control_c, 0, 64, 0
1, 359628, Note_on_c, 0, 80, 78
1, 359648, Note_on_c, 0, 80, 0
1, 359704, Control_c, 0, 64, 127
1, 359704, Control_c, 0, 64, 127
1, 359708, Note_on_c, 0, 80, 78
1, 359708, Note_on_c, 0, 50, 90
1, 359708, Note_on_c, 0, 41, 66
1, 359723, Note_on_c, 0, 40, 0
1, 359723, Note_on_c, 0, 49, 0
1, 359731, Note_on_c, 0, 80, 0
1, 359802, Note_on_c, 0, 71, 74
1, 359827, Note_on_c, 0, 71, 0
1, 359904, Note_on_c, 0, 68, 72
1, 359931, Note_on_c, 0, 68, 0
1, 359992, Control_c, 0, 64, 127
1, 359992, Control_c, 0, 64, 127
1, 360012, Note_on_c, 0, 59, 68
1, 360039, Note_on_c, 0, 59, 0
1, 360120, Control_c, 0, 64, 127
1, 360120, Control_c, 0, 64, 0
1, 360120, Note_on_c, 0, 59, 65
1, 360123, Control_c, 0, 64, 127
1, 360123, Control_c, 0, 64, 0
1, 360123, Control_c, 0, 64, 0
1, 360126, Note_on_c, 0, 50, 0
1, 360126, Control_c, 0, 64, 0
1, 360126, Note_on_c, 0, 42, 67
1, 360129, Note_on_c, 0, 50, 88
1, 360136, Note_on_c, 0, 41, 0
1, 360145, Note_on_c, 0, 59, 0
1, 360167, Control_c, 0, 64, 0
1, 360167, Control_c, 0, 64, 0
1, 360190, Control_c, 0, 64, 127
1, 360190, Control_c, 0, 64, 127
1, 360222, Note_on_c, 0, 68, 70
1, 360245, Note_on_c, 0, 68, 0
1, 360315, Note_on_c, 0, 71, 73
1, 360339, Note_on_c, 0, 71, 0
1, 360409, Note_on_c, 0, 80, 77
1, 360416, Control_c, 0, 64, 0
1, 360416, Control_c, 0, 64, 0
1, 360429, Note_on_c, 0, 80, 0
1, 360489, Note_on_c, 0, 80, 76
1, 360509, Note_on_c, 0, 80, 0
1, 360535, Control_c, 0, 64, 127
1, 360535, Control_c, 0, 64, 127
1, 360570, Note_on_c, 0, 71, 72
1, 360590, Note_on_c, 0, 71, 0
1, 360650, Note_on_c, 0, 68, 70
1, 360670, Note_on_c, 0, 68, 0
1, 360730, Note_on_c, 0, 59, 66
1, 360750, Note_on_c, 0, 59, 0
1, 360753, Control_c, 0, 64, 0
1, 360753, Control_c, 0, 64, 0
1, 360810, Note_on_c, 0, 57, 66
1, 360810, Note_on_c, 0, 49, 83
1, 360823, Note_on_c, 0, 50, 0
1, 360830, Note_on_c, 0, 57, 0
1, 360876, Control_c, 0, 64, 127
1, 360876, Control_c, 0, 64, 127
1, 360890, Note_on_c, 0, 66, 69
1, 360911, Note_on_c, 0, 66, 0
1, 360971, Note_on_c, 0, 69, 72
1, 360991, Note_on_c, 0, 69, 0
1, 361045, Control_c, 0, 64, 0
1, 361045, Control_c, 0, 64, 0
1, 361051, Note_on_c, 0, 78, 74
1, 361071, Note_on_c, 0, 78, 0
1, 361127, Control_c, 0, 64, 127
1, 361127, Control_c, 0, 64, 127
1, 361131, Note_on_c, 0, 78, 74
1, 361131, Note_on_c, 0, 48, 86
1, 361131, Note_on_c, 0, 39, 67
1, 361145, Note_on_c, 0, 42, 0
1, 361145, Note_on_c, 0, 49, 0
1, 361153, Note_on_c, 0, 78, 0
1, 361218, Note_on_c, 0, 69, 70
1, 361239, Note_on_c, 0, 69, 0
1, 361304, Control_c, 0, 64, 0
1, 361304, Note_on_c, 0, 66, 68
1, 361304, Control_c, 0, 64, 0
1, 361326, Note_on_c, 0, 66, 0
1, 361390, Note_on_c, 0, 57, 64
1, 361396, Control_c, 0, 64, 127
1, 361396, Control_c, 0, 64, 127
1, 361412, Note_on_c, 0, 57, 0
1, 361477, Control_c, 0, 64, 127
1, 361477, Note_on_c, 0, 56, 62
1, 361477, Control_c, 0, 64, 127
1, 361480, Control_c, 0, 64, 0
1, 361480, Control_c, 0, 64, 0
1, 361480, Note_on_c, 0, 40, 60
1, 361483, Note_on_c, 0, 47, 83
1, 361490, Note_on_c, 0, 48, 0
1, 361490, Note_on_c, 0, 39, 0
1, 361498, Note_on_c, 0, 56, 0
1, 361518, Control_c, 0, 64, 0
1, 361518, Control_c, 0, 64, 0
1, 361559, Control_c, 0, 64, 127
1, 361559, Control_c, 0, 64, 127
1, 361563, Note_on_c, 0, 64, 66
1, 361585, Note_on_c, 0, 64, 0
1, 361650, Note_on_c, 0, 68, 68
1, 361671, Note_on_c, 0, 68, 0
1, 361736, Note_on_c, 0, 76, 72
1, 361743, Control_c, 0, 64, 0
1, 361743, Control_c, 0, 64, 0
1, 361758, Note_on_c, 0, 76, 0
1, 361822, Note_on_c, 0, 76, 72
1, 361822, Note_on_c, 0, 45, 81
1, 361822, Note_on_c, 0, 33, 60
1, 361836, Note_on_c, 0, 40, 0
1, 361836, Note_on_c, 0, 47, 0
1, 361844, Note_on_c, 0, 76, 0
1, 361872, Control_c, 0, 64, 127
1, 361872, Control_c, 0, 64, 127
1, 361909, Note_on_c, 0, 66, 68
1, 361930, Note_on_c, 0, 66, 0
1, 361995, Note_on_c, 0, 64, 66
1, 362017, Note_on_c, 0, 64, 0
1, 362082, Note_on_c, 0, 54, 62
1, 362082, Note_on_c, 0, 44, 79
1, 362098, Note_on_c, 0, 45, 0
1, 362109, Note_on_c, 0, 54, 0
1, 362112, Control_c, 0, 64, 0
1, 362112, Control_c, 0, 64, 0
1, 362190, Note_on_c, 0, 54, 62
1, 362190, Note_on_c, 0, 42, 79
1, 362190, Note_on_c, 0, 35, 60
1, 362204, Note_on_c, 0, 33, 0
1, 362204, Note_on_c, 0, 44, 0
1, 362213, Note_on_c, 0, 54, 0
1, 362266, Control_c, 0, 64, 127
1, 362266, Control_c, 0, 64, 127
1, 362283, Note_on_c, 0, 63, 65
1, 362307, Note_on_c, 0, 63, 0
1, 362377, Note_on_c, 0, 66, 67
1, 362400, Note_on_c, 0, 66, 0
1, 362464, Control_c, 0, 64, 0
1, 362464, Control_c, 0, 64, 0
1, 362470, Note_on_c, 0, 75, 70
1, 362494, Note_on_c, 0, 75, 0
1, 362559, Control_c, 0, 64, 127
1, 362559, Control_c, 0, 64, 127
1, 362564, Note_on_c, 0, 75, 70
1, 362564, Note_on_c, 0, 45, 77
1, 362579, Note_on_c, 0, 42, 0
1, 362587, Note_on_c, 0, 75, 0
1, 362658, Note_on_c, 0, 66, 66
1, 362681, Note_on_c, 0, 66, 0
1, 362751, Note_on_c, 0, 63, 64
1, 362775, Note_on_c, 0, 63, 0
1, 362845, Note_on_c, 0, 54, 61
1, 362868, Note_on_c, 0, 54, 0
1, 362873, Control_c, 0, 64, 0
1, 362873, Control_c, 0, 64, 0
1, 362905, Control_c, 0, 64, 127
1, 362905, Control_c, 0, 64, 127
1, 362938, Control_c, 0, 64, 127
1, 362938, Note_on_c, 0, 54, 54
1, 362938, Control_c, 0, 64, 127
1, 362941, Note_on_c, 0, 45, 0
1, 362941, Control_c, 0, 64, 0
1, 362941, Note_on_c, 0, 40, 54
1, 362944, Note_on_c, 0, 45, 77
1, 362953, Note_on_c, 0, 35, 0
1, 362962, Note_on_c, 0, 54, 0
1, 362994, Control_c, 0, 64, 0
1, 362994, Control_c, 0, 64, 0
1, 363032, Note_on_c, 0, 63, 57
1, 363054, Note_on_c, 0, 63, 0
1, 363059, Control_c, 0, 64, 127
1, 363059, Control_c, 0, 64, 127
1, 363118, Note_on_c, 0, 66, 60
1, 363140, Note_on_c, 0, 66, 0
1, 363205, Note_on_c, 0, 75, 63
1, 363226, Note_on_c, 0, 75, 0
1, 363291, Note_on_c, 0, 75, 63
1, 363313, Note_on_c, 0, 75, 0
1, 363378, Note_on_c, 0, 66, 59
1, 363399, Note_on_c, 0, 66, 0
1, 363464, Note_on_c, 0, 63, 57
1, 363486, Note_on_c, 0, 63, 0
1, 363550, Note_on_c, 0, 54, 55
1, 363572, Note_on_c, 0, 54, 0
1, 363627, Control_c, 0, 64, 0
1, 363627, Control_c, 0, 64, 0
1, 363637, Note_on_c, 0, 52, 54
1, 363637, Note_on_c, 0, 44, 65
1, 363650, Note_on_c, 0, 45, 0
1, 363658, Note_on_c, 0, 52, 0
1, 363723, Note_on_c, 0, 64, 56
1, 363749, Note_on_c, 0, 64, 0
1, 363753, Control_c, 0, 64, 127
1, 363753, Control_c, 0, 64, 127
1, 363825, Note_on_c, 0, 64, 58
1, 363851, Note_on_c, 0, 64, 0
1, 363927, Note_on_c, 0, 76, 61
1, 363962, Note_on_c, 0, 76, 0
1, 363986, Control_c, 0, 64, 127
1, 363986, Control_c, 0, 64, 127
1, 364068, Note_on_c, 0, 76, 60
1, 364208, Note_on_c, 0, 76, 0
1, 364283, Control_c, 0, 64, 0
1, 364283, Control_c, 0, 64, 0
1, 364629, Control_c, 0, 64, 0
1, 364629, Note_on_c, 0, 63, 88
1, 364629, Control_c, 0, 64, 0
1, 364632, Note_on_c, 0, 40, 0
1, 364632, Note_on_c, 0, 44, 0
1, 364632, Control_c, 0, 64, 0
1, 364635, Note_on_c, 0, 48, 77
1, 364740, Control_c, 0, 64, 127
1, 364740, Control_c, 0, 64, 127
1, 364790, Note_on_c, 0, 48, 0
1, 364790, Note_on_c, 0, 63, 0
1, 364790, Note_on_c, 0, 68, 78
1, 364793, Note_on_c, 0, 56, 70
1, 364892, Note_on_c, 0, 56, 0
1, 364892, Note_on_c, 0, 68, 0
1, 364892, Note_on_c, 0, 69, 81
1, 364895, Note_on_c, 0, 57, 73
1, 364986, Note_on_c, 0, 57, 0
1, 364986, Note_on_c, 0, 69, 0
1, 364986, Note_on_c, 0, 71, 84
1, 364989, Note_on_c, 0, 59, 76
1, 365072, Note_on_c, 0, 59, 0
1, 365072, Note_on_c, 0, 71, 0
1, 365072, Note_on_c, 0, 69, 87
1, 365075, Note_on_c, 0, 57, 79
1, 365158, Note_on_c, 0, 57, 0
1, 365158, Note_on_c, 0, 69, 0
1, 365158, Note_on_c, 0, 68, 89
1, 365161, Note_on_c, 0, 56, 82
1, 365245, Note_on_c, 0, 56, 0
1, 365245, Note_on_c, 0, 68, 0
1, 365245, Note_on_c, 0, 69, 92
1, 365248, Note_on_c, 0, 57, 86
1, 365385, Note_on_c, 0, 57, 0
1, 365385, Note_on_c, 0, 81, 101
1, 365572, Note_on_c, 0, 66, 93
1, 365623, Control_c, 0, 64, 0
1, 365623, Control_c, 0, 64, 0
1, 365680, Note_on_c, 0, 66, 0
1, 365680, Note_on_c, 0, 63, 85
1, 365747, Control_c, 0, 64, 127
1, 365747, Control_c, 0, 64, 127
1, 365782, Note_on_c, 0, 63, 0
1, 365782, Note_on_c, 0, 60, 83
1, 365876, Note_on_c, 0, 60, 0
1, 365876, Note_on_c, 0, 57, 82
1, 365962, Note_on_c, 0, 57, 0
1, 365962, Note_on_c, 0, 54, 81
1, 366049, Note_on_c, 0, 54, 0
1, 366049, Note_on_c, 0, 51, 80
1, 366135, Note_on_c, 0, 51, 0
1, 366135, Note_on_c, 0, 48, 78
1, 366182, Control_c, 0, 64, 0
1, 366182, Control_c, 0, 64, 0
1, 366222, Note_on_c, 0, 48, 0
1, 366222, Note_on_c, 0, 44, 77
1, 366308, Control_c, 0, 64, 0
1, 366308, Control_c, 0, 64, 0
1, 366308, Control_c, 0, 64, 0
1, 366311, Note_on_c, 0, 81, 0
1, 366311, Note_on_c, 0, 69, 0
1, 366311, Note_on_c, 0, 64, 88
1, 366314, Control_c, 0, 64, 0
1, 366314, Control_c, 0, 64, 0
1, 366314, Control_c, 0, 64, 0
1, 366317, Note_on_c, 0, 44, 0
1, 366317, Control_c, 0, 64, 0
1, 366317, Note_on_c, 0, 49, 83
1, 366405, Control_c, 0, 64, 127
1, 366405, Control_c, 0, 64, 127
1, 366405, Control_c, 0, 64, 127
1, 366408, Control_c, 0, 64, 127
1, 366448, Note_on_c, 0, 64, 0
1, 366448, Note_on_c, 0, 68, 78
1, 366535, Note_on_c, 0, 68, 0
1, 366535, Note_on_c, 0, 69, 81
1, 366621, Note_on_c, 0, 69, 0
1, 366621, Note_on_c, 0, 71, 84
1, 366708, Note_on_c, 0, 71, 0
1, 366708, Note_on_c, 0, 49, 0
1, 366708, Note_on_c, 0, 69, 87
1, 366794, Note_on_c, 0, 69, 0
1, 366794, Note_on_c, 0, 68, 89
1, 366880, Note_on_c, 0, 68, 0
1, 366880, Note_on_c, 0, 69, 92
1, 366967, Note_on_c, 0, 69, 0
1, 366967, Note_on_c, 0, 85, 105
1, 367154, Note_on_c, 0, 73, 99
1, 367220, Control_c, 0, 64, 0
1, 367220, Control_c, 0, 64, 0
1, 367294, Note_on_c, 0, 73, 0
1, 367294, Note_on_c, 0, 69, 91
1, 367361, Control_c, 0, 64, 127
1, 367361, Control_c, 0, 64, 127
1, 367397, Note_on_c, 0, 69, 0
1, 367397, Note_on_c, 0, 64, 89
1, 367490, Note_on_c, 0, 64, 0
1, 367490, Note_on_c, 0, 61, 88
1, 367577, Note_on_c, 0, 61, 0
1, 367577, Note_on_c, 0, 57, 86
1, 367663, Note_on_c, 0, 57, 0
1, 367663, Note_on_c, 0, 52, 85
1, 367749, Note_on_c, 0, 52, 0
1, 367749, Note_on_c, 0, 49, 84
1, 367796, Control_c, 0, 64, 0
1, 367796, Control_c, 0, 64, 0
1, 367796, Control_c, 0, 64, 0
1, 367799, Control_c, 0, 64, 0
1, 367836, Note_on_c, 0, 49, 0
1, 367836, Note_on_c, 0, 44, 82
1, 367922, Control_c, 0, 64, 0
1, 367922, Control_c, 0, 64, 0
1, 367922, Control_c, 0, 64, 0
1, 367925, Note_on_c, 0, 85, 0
1, 367925, Note_on_c, 0, 67, 88
1, 367925, Control_c, 0, 64, 0
1, 367928, Control_c, 0, 64, 0
1, 367928, Control_c, 0, 64, 0
1, 367928, Control_c, 0, 64, 0
1, 367931, Note_on_c, 0, 44, 0
1, 367931, Note_on_c, 0, 51, 88
1, 368019, Control_c, 0, 64, 127
1, 368019, Control_c, 0, 64, 127
1, 368019, Control_c, 0, 64, 127
1, 368022, Control_c, 0, 64, 127
1, 368063, Note_on_c, 0, 67, 0
1, 368063, Note_on_c, 0, 72, 79
1, 368149, Note_on_c, 0, 72, 0
1, 368149, Note_on_c, 0, 73, 82
1, 368235, Note_on_c, 0, 73, 0
1, 368235, Note_on_c, 0, 75, 85
1, 368322, Note_on_c, 0, 75, 0
1, 368322, Note_on_c, 0, 51, 0
1, 368322, Note_on_c, 0, 73, 89
1, 368408, Note_on_c, 0, 73, 0
1, 368408, Note_on_c, 0, 72, 91
1, 368495, Note_on_c, 0, 72, 0
1, 368495, Note_on_c, 0, 73, 95
1, 368581, Note_on_c, 0, 73, 0
1, 368581, Note_on_c, 0, 76, 99
1, 368721, Note_on_c, 0, 88, 112
1, 368721, Note_on_c, 0, 73, 99
1, 368772, Control_c, 0, 64, 0
1, 368772, Control_c, 0, 64, 0
1, 368829, Note_on_c, 0, 73, 0
1, 368829, Note_on_c, 0, 70, 91
1, 368896, Control_c, 0, 64, 127
1, 368896, Control_c, 0, 64, 127
1, 368931, Note_on_c, 0, 70, 0
1, 368931, Note_on_c, 0, 67, 89
1, 369025, Note_on_c, 0, 67, 0
1, 369025, Note_on_c, 0, 64, 88
1, 369111, Note_on_c, 0, 64, 0
1, 369111, Note_on_c, 0, 61, 86
1, 369198, Note_on_c, 0, 61, 0
1, 369198, Note_on_c, 0, 58, 85
1, 369284, Note_on_c, 0, 58, 0
1, 369284, Note_on_c, 0, 55, 84
1, 369331, Control_c, 0, 64, 0
1, 369331, Control_c, 0, 64, 0
1, 369331, Control_c, 0, 64, 0
1, 369334, Control_c, 0, 64, 0
1, 369371, Note_on_c, 0, 55, 0
1, 369371, Note_on_c, 0, 44, 82
1, 369457, Control_c, 0, 64, 0
1, 369457, Control_c, 0, 64, 0
1, 369457, Control_c, 0, 64, 0
1, 369460, Note_on_c, 0, 88, 0
1, 369460, Note_on_c, 0, 76, 0
1, 369460, Note_on_c, 0, 72, 93
1, 369463, Control_c, 0, 64, 0
1, 369463, Control_c, 0, 64, 0
1, 369463, Control_c, 0, 64, 0
1, 369466, Note_on_c, 0, 44, 0
1, 369466, Control_c, 0, 64, 0
1, 369466, Note_on_c, 0, 51, 88
1, 369554, Control_c, 0, 64, 127
1, 369554, Control_c, 0, 64, 127
1, 369554, Control_c, 0, 64, 127
1, 369557, Control_c, 0, 64, 127
1, 369597, Note_on_c, 0, 72, 0
1, 369597, Note_on_c, 0, 77, 83
1, 369684, Note_on_c, 0, 77, 0
1, 369684, Note_on_c, 0, 78, 86
1, 369770, Note_on_c, 0, 78, 0
1, 369770, Note_on_c, 0, 80, 90
1, 369857, Note_on_c, 0, 80, 0
1, 369857, Note_on_c, 0, 51, 0
1, 369857, Note_on_c, 0, 78, 94
1, 369943, Note_on_c, 0, 78, 0
1, 369943, Note_on_c, 0, 77, 98
1, 370029, Note_on_c, 0, 77, 0
1, 370029, Note_on_c, 0, 78, 102
1, 370137, Note_on_c, 0, 78, 0
1, 370137, Note_on_c, 0, 81, 106
1, 370325, Note_on_c, 0, 93, 117
1, 370325, Note_on_c, 0, 78, 99
1, 370390, Control_c, 0, 64, 0
1, 370390, Control_c, 0, 64, 0
1, 370465, Note_on_c, 0, 78, 0
1, 370465, Note_on_c, 0, 75, 89
1, 370535, Control_c, 0, 64, 127
1, 370535, Control_c, 0, 64, 127
1, 370573, Note_on_c, 0, 75, 0
1, 370573, Note_on_c, 0, 72, 86
1, 370675, Note_on_c, 0, 72, 0
1, 370675, Note_on_c, 0, 69, 83
1, 370769, Note_on_c, 0, 69, 0
1, 370769, Note_on_c, 0, 66, 80
1, 370862, Note_on_c, 0, 66, 0
1, 370862, Note_on_c, 0, 63, 77
1, 370956, Note_on_c, 0, 63, 0
1, 370956, Note_on_c, 0, 60, 74
1, 371006, Control_c, 0, 64, 0
1, 371006, Control_c, 0, 64, 0
1, 371006, Control_c, 0, 64, 0
1, 371009, Control_c, 0, 64, 0
1, 371050, Note_on_c, 0, 60, 0
1, 371050, Note_on_c, 0, 57, 71
1, 371174, Note_on_c, 0, 81, 0
1, 371174, Control_c, 0, 64, 0
1, 371174, Control_c, 0, 64, 0
1, 371177, Note_on_c, 0, 93, 0
1, 371177, Note_on_c, 0, 64, 60
1, 371177, Control_c, 0, 64, 0
1, 371180, Control_c, 0, 64, 0
1, 371180, Control_c, 0, 64, 0
1, 371180, Control_c, 0, 64, 0
1, 371183, Note_on_c, 0, 57, 0
1, 371183, Note_on_c, 0, 49, 64
1, 371198, Note_on_c, 0, 64, 0
1, 371218, Control_c, 0, 64, 127
1, 371218, Control_c, 0, 64, 127
1, 371268, Note_on_c, 0, 73, 65
1, 371291, Note_on_c, 0, 73, 0
1, 371362, Note_on_c, 0, 76, 69
1, 371382, Note_on_c, 0, 76, 0
1, 371442, Note_on_c, 0, 85, 74
1, 371449, Control_c, 0, 64, 0
1, 371449, Control_c, 0, 64, 0
1, 371462, Note_on_c, 0, 85, 0
1, 371522, Note_on_c, 0, 85, 74
1, 371522, Note_on_c, 0, 56, 85
1, 371542, Note_on_c, 0, 85, 0
1, 371568, Control_c, 0, 64, 127
1, 371568, Control_c, 0, 64, 127
1, 371602, Note_on_c, 0, 76, 70
1, 371622, Note_on_c, 0, 76, 0
1, 371682, Note_on_c, 0, 73, 67
1, 371703, Note_on_c, 0, 73, 0
1, 371763, Note_on_c, 0, 64, 69
1, 371783, Note_on_c, 0, 64, 0
1, 371783, Control_c, 0, 64, 0
1, 371783, Control_c, 0, 64, 0
1, 371843, Note_on_c, 0, 64, 69
1, 371843, Note_on_c, 0, 57, 89
1, 371859, Note_on_c, 0, 56, 0
1, 371868, Note_on_c, 0, 64, 0
1, 371927, Control_c, 0, 64, 127
1, 371927, Control_c, 0, 64, 127
1, 371945, Note_on_c, 0, 73, 67
1, 371968, Note_on_c, 0, 73, 0
1, 372039, Note_on_c, 0, 76, 70
1, 372060, Note_on_c, 0, 76, 0
1, 372096, Note_on_c, 0, 49, 0
1, 372096, Note_on_c, 0, 42, 82
1, 372119, Control_c, 0, 64, 0
1, 372119, Control_c, 0, 64, 0
1, 372125, Note_on_c, 0, 85, 74
1, 372147, Note_on_c, 0, 85, 0
1, 372207, Control_c, 0, 64, 127
1, 372207, Control_c, 0, 64, 127
1, 372211, Note_on_c, 0, 85, 74
1, 372211, Note_on_c, 0, 58, 92
1, 372227, Note_on_c, 0, 57, 0
1, 372237, Note_on_c, 0, 85, 0
1, 372270, Note_on_c, 0, 59, 82
1, 372286, Note_on_c, 0, 58, 0
1, 372314, Note_on_c, 0, 76, 70
1, 372328, Note_on_c, 0, 59, 0
1, 372328, Note_on_c, 0, 58, 82
1, 372339, Note_on_c, 0, 76, 0
1, 372386, Note_on_c, 0, 58, 0
1, 372386, Note_on_c, 0, 59, 82
1, 372416, Note_on_c, 0, 73, 67
1, 372447, Note_on_c, 0, 73, 0
1, 372452, Note_on_c, 0, 59, 0
1, 372452, Note_on_c, 0, 58, 82
1, 372523, Note_on_c, 0, 58, 0
1, 372523, Note_on_c, 0, 56, 82
1, 372540, Note_on_c, 0, 64, 69
1, 372553, Control_c, 0, 64, 127
1, 372553, Control_c, 0, 64, 127
1, 372572, Note_on_c, 0, 64, 0
1, 372594, Note_on_c, 0, 56, 0
1, 372594, Note_on_c, 0, 58, 82
1, 372686, Control_c, 0, 64, 127
1, 372686, Control_c, 0, 64, 0
1, 372686, Note_on_c, 0, 62, 66
1, 372689, Control_c, 0, 64, 127
1, 372689, Control_c, 0, 64, 0
1, 372689, Control_c, 0, 64, 0
1, 372692, Note_on_c, 0, 58, 0
1, 372692, Control_c, 0, 64, 0
1, 372692, Note_on_c, 0, 61, 96
1, 372695, Note_on_c, 0, 47, 64
1, 372695, Note_on_c, 0, 54, 64
1, 372711, Note_on_c, 0, 42, 0
1, 372726, Note_on_c, 0, 62, 0
1, 372760, Control_c, 0, 64, 0
1, 372760, Control_c, 0, 64, 0
1, 372796, Control_c, 0, 64, 127
1, 372796, Control_c, 0, 64, 127
1, 372846, Note_on_c, 0, 73, 65
1, 372869, Note_on_c, 0, 73, 0
1, 372940, Note_on_c, 0, 74, 69
1, 372963, Note_on_c, 0, 74, 0
1, 373033, Note_on_c, 0, 85, 74
1, 373040, Control_c, 0, 64, 0
1, 373040, Control_c, 0, 64, 0
1, 373053, Note_on_c, 0, 85, 0
1, 373113, Note_on_c, 0, 85, 74
1, 373134, Note_on_c, 0, 85, 0
1, 373159, Control_c, 0, 64, 127
1, 373159, Control_c, 0, 64, 127
1, 373194, Note_on_c, 0, 74, 70
1, 373214, Note_on_c, 0, 74, 0
1, 373274, Note_on_c, 0, 73, 67
1, 373294, Note_on_c, 0, 73, 0
1, 373354, Note_on_c, 0, 62, 69
1, 373374, Note_on_c, 0, 62, 0
1, 373377, Control_c, 0, 64, 0
1, 373377, Control_c, 0, 64, 0
1, 373434, Note_on_c, 0, 62, 69
1, 373434, Note_on_c, 0, 59, 85
1, 373447, Note_on_c, 0, 61, 0
1, 373454, Note_on_c, 0, 62, 0
1, 373500, Control_c, 0, 64, 127
1, 373500, Control_c, 0, 64, 127
1, 373515, Note_on_c, 0, 71, 67
1, 373535, Note_on_c, 0, 71, 0
1, 373595, Note_on_c, 0, 74, 70
1, 373615, Note_on_c, 0, 74, 0
1, 373669, Control_c, 0, 64, 0
1, 373669, Control_c, 0, 64, 0
1, 373675, Note_on_c, 0, 83, 74
1, 373695, Note_on_c, 0, 83, 0
1, 373751, Control_c, 0, 64, 127
1, 373751, Control_c, 0, 64, 127
1, 373755, Note_on_c, 0, 83, 74
1, 373755, Note_on_c, 0, 44, 68
1, 373755, Note_on_c, 0, 52, 76
1, 373769, Note_on_c, 0, 59, 0
1, 373769, Note_on_c, 0, 54, 0
1, 373769, Note_on_c, 0, 47, 0
1, 373777, Note_on_c, 0, 83, 0
1, 373842, Note_on_c, 0, 74, 70
1, 373863, Note_on_c, 0, 74, 0
1, 373928, Note_on_c, 0, 71, 67
1, 373950, Note_on_c, 0, 71, 0
1, 374015, Note_on_c, 0, 62, 69
1, 374036, Note_on_c, 0, 62, 0
1, 374072, Control_c, 0, 64, 0
1, 374072, Control_c, 0, 64, 0
1, 374101, Control_c, 0, 64, 0
1, 374101, Control_c, 0, 64, 0
1, 374101, Control_c, 0, 64, 0
1, 374104, Note_on_c, 0, 61, 66
1, 374104, Control_c, 0, 64, 0
1, 374104, Control_c, 0, 64, 0
1, 374107, Control_c, 0, 64, 0
1, 374107, Control_c, 0, 64, 0
1, 374107, Control_c, 0, 64, 0
1, 374110, Note_on_c, 0, 45, 68
1, 374118, Note_on_c, 0, 44, 0
1, 374128, Note_on_c, 0, 61, 0
1, 374151, Control_c, 0, 64, 127
1, 374151, Control_c, 0, 64, 127
1, 374209, Note_on_c, 0, 71, 65
1, 374229, Note_on_c, 0, 71, 0
1, 374289, Note_on_c, 0, 73, 69
1, 374309, Note_on_c, 0, 73, 0
1, 374369, Note_on_c, 0, 83, 74
1, 374376, Control_c, 0, 64, 0
1, 374376, Control_c, 0, 64, 0
1, 374389, Note_on_c, 0, 83, 0
1, 374450, Note_on_c, 0, 83, 74
1, 374450, Note_on_c, 0, 53, 81
1, 374462, Note_on_c, 0, 52, 0
1, 374470, Note_on_c, 0, 83, 0
1, 374495, Control_c, 0, 64, 127
1, 374495, Control_c, 0, 64, 127
1, 374530, Note_on_c, 0, 73, 70
1, 374550, Note_on_c, 0, 73, 0
1, 374610, Note_on_c, 0, 71, 67
1, 374630, Note_on_c, 0, 71, 0
1, 374690, Note_on_c, 0, 61, 69
1, 374710, Note_on_c, 0, 61, 0
1, 374713, Control_c, 0, 64, 0
1, 374713, Control_c, 0, 64, 0
1, 374771, Note_on_c, 0, 61, 69
1, 374771, Note_on_c, 0, 54, 86
1, 374783, Note_on_c, 0, 53, 0
1, 374791, Note_on_c, 0, 61, 0
1, 374836, Control_c, 0, 64, 127
1, 374836, Control_c, 0, 64, 127
1, 374851, Note_on_c, 0, 69, 67
1, 374871, Note_on_c, 0, 69, 0
1, 374931, Note_on_c, 0, 73, 70
1, 374951, Note_on_c, 0, 73, 0
1, 375006, Control_c, 0, 64, 0
1, 375006, Control_c, 0, 64, 0
1, 375011, Note_on_c, 0, 81, 74
1, 375031, Note_on_c, 0, 81, 0
1, 375087, Control_c, 0, 64, 127
1, 375087, Control_c, 0, 64, 127
1, 375091, Note_on_c, 0, 45, 0
1, 375091, Note_on_c, 0, 81, 74
1, 375091, Note_on_c, 0, 45, 68
1, 375094, Note_on_c, 0, 52, 82
1, 375105, Note_on_c, 0, 54, 0
1, 375113, Note_on_c, 0, 81, 0
1, 375178, Note_on_c, 0, 73, 70
1, 375201, Note_on_c, 0, 73, 0
1, 375271, Note_on_c, 0, 69, 67
1, 375295, Note_on_c, 0, 69, 0
1, 375365, Note_on_c, 0, 61, 63
1, 375391, Note_on_c, 0, 61, 0
1, 375433, Control_c, 0, 64, 0
1, 375433, Control_c, 0, 64, 0
1, 375467, Control_c, 0, 64, 0
1, 375467, Control_c, 0, 64, 0
1, 375467, Control_c, 0, 64, 0
1, 375470, Note_on_c, 0, 59, 60
1, 375470, Control_c, 0, 64, 0
1, 375470, Control_c, 0, 64, 0
1, 375473, Control_c, 0, 64, 0
1, 375473, Control_c, 0, 64, 0
1, 375473, Note_on_c, 0, 47, 69
1, 375476, Note_on_c, 0, 51, 83
1, 375487, Note_on_c, 0, 45, 0
1, 375487, Note_on_c, 0, 52, 0
1, 375498, Note_on_c, 0, 59, 0
1, 375525, Control_c, 0, 64, 127
1, 375525, Control_c, 0, 64, 127
1, 375592, Note_on_c, 0, 66, 65
1, 375615, Note_on_c, 0, 66, 0
1, 375686, Note_on_c, 0, 71, 69
1, 375709, Note_on_c, 0, 71, 0
1, 375779, Note_on_c, 0, 78, 74
1, 375786, Control_c, 0, 64, 0
1, 375786, Control_c, 0, 64, 0
1, 375799, Note_on_c, 0, 78, 0
1, 375859, Note_on_c, 0, 78, 74
1, 375859, Note_on_c, 0, 59, 76
1, 375872, Note_on_c, 0, 51, 0
1, 375879, Note_on_c, 0, 78, 0
1, 375905, Control_c, 0, 64, 127
1, 375905, Control_c, 0, 64, 127
1, 375940, Note_on_c, 0, 71, 70
1, 375960, Note_on_c, 0, 71, 0
1, 376020, Note_on_c, 0, 66, 67
1, 376040, Note_on_c, 0, 66, 0
1, 376100, Note_on_c, 0, 59, 70
1, 376120, Note_on_c, 0, 59, 0
1, 376123, Control_c, 0, 64, 0
1, 376123, Control_c, 0, 64, 0
1, 376180, Note_on_c, 0, 59, 70
1, 376193, Note_on_c, 0, 59, 0
1, 376200, Note_on_c, 0, 59, 0
1, 376246, Control_c, 0, 64, 127
1, 376246, Control_c, 0, 64, 127
1, 376261, Note_on_c, 0, 67, 67
1, 376281, Note_on_c, 0, 67, 0
1, 376341, Note_on_c, 0, 71, 70
1, 376361, Note_on_c, 0, 71, 0
1, 376415, Control_c, 0, 64, 0
1, 376415, Control_c, 0, 64, 0
1, 376421, Note_on_c, 0, 79, 74
1, 376441, Note_on_c, 0, 79, 0
1, 376497, Control_c, 0, 64, 127
1, 376497, Control_c, 0, 64, 127
1, 376501, Note_on_c, 0, 47, 0
1, 376501, Note_on_c, 0, 79, 74
1, 376501, Note_on_c, 0, 47, 83
1, 376521, Note_on_c, 0, 79, 0
1, 376581, Note_on_c, 0, 71, 70
1, 376601, Note_on_c, 0, 71, 0
1, 376662, Note_on_c, 0, 67, 67
1, 376682, Note_on_c, 0, 67, 0
1, 376742, Note_on_c, 0, 59, 63
1, 376762, Note_on_c, 0, 59, 0
1, 376795, Control_c, 0, 64, 0
1, 376795, Control_c, 0, 64, 0
1, 376822, Control_c, 0, 64, 0
1, 376822, Control_c, 0, 64, 0
1, 376822, Note_on_c, 0, 59, 66
1, 376825, Control_c, 0, 64, 0
1, 376825, Control_c, 0, 64, 0
1, 376825, Control_c, 0, 64, 0
1, 376828, Control_c, 0, 64, 0
1, 376828, Note_on_c, 0, 40, 65
1, 376846, Note_on_c, 0, 59, 0
1, 376881, Note_on_c, 0, 47, 0
1, 376916, Note_on_c, 0, 68, 70
1, 376939, Note_on_c, 0, 68, 0
1, 377009, Note_on_c, 0, 71, 74
1, 377029, Note_on_c, 0, 71, 0
1, 377090, Note_on_c, 0, 80, 78
1, 377110, Note_on_c, 0, 80, 0
1, 377170, Note_on_c, 0, 80, 78
1, 377170, Note_on_c, 0, 47, 82
1, 377190, Note_on_c, 0, 80, 0
1, 377250, Note_on_c, 0, 71, 74
1, 377270, Note_on_c, 0, 71, 0
1, 377330, Note_on_c, 0, 68, 71
1, 377350, Note_on_c, 0, 68, 0
1, 377410, Note_on_c, 0, 59, 68
1, 377431, Note_on_c, 0, 59, 0
1, 377491, Note_on_c, 0, 59, 67
1, 377491, Note_on_c, 0, 49, 86
1, 377503, Note_on_c, 0, 47, 0
1, 377511, Note_on_c, 0, 59, 0
1, 377556, Control_c, 0, 64, 127
1, 377556, Control_c, 0, 64, 127
1, 377571, Note_on_c, 0, 68, 71
1, 377591, Note_on_c, 0, 68, 0
1, 377651, Note_on_c, 0, 71, 74
1, 377671, Note_on_c, 0, 71, 0
1, 377726, Control_c, 0, 64, 0
1, 377726, Control_c, 0, 64, 0
1, 377731, Note_on_c, 0, 80, 77
1, 377751, Note_on_c, 0, 80, 0
1, 377807, Control_c, 0, 64, 127
1, 377807, Control_c, 0, 64, 127
1, 377812, Note_on_c, 0, 80, 77
1, 377812, Note_on_c, 0, 50, 89
1, 377812, Note_on_c, 0, 41, 65
1, 377826, Note_on_c, 0, 40, 0
1, 377826, Note_on_c, 0, 49, 0
1, 377835, Note_on_c, 0, 80, 0
1, 377905, Note_on_c, 0, 71, 73
1, 377931, Note_on_c, 0, 71, 0
1, 378007, Note_on_c, 0, 68, 71
1, 378034, Note_on_c, 0, 68, 0
1, 378096, Control_c, 0, 64, 127
1, 378096, Control_c, 0, 64, 127
1, 378115, Note_on_c, 0, 59, 67
1, 378142, Note_on_c, 0, 59, 0
1, 378223, Control_c, 0, 64, 127
1, 378223, Control_c, 0, 64, 0
1, 378223, Control_c, 0, 64, 0
1, 378226, Note_on_c, 0, 59, 64
1, 378226, Control_c, 0, 64, 127
1, 378226, Control_c, 0, 64, 0
1, 378229, Control_c, 0, 64, 0
1, 378229, Control_c, 0, 64, 0
1, 378229, Control_c, 0, 64, 0
1, 378232, Note_on_c, 0, 50, 0
1, 378232, Control_c, 0, 64, 0
1, 378232, Note_on_c, 0, 42, 66
1, 378235, Note_on_c, 0, 50, 87
1, 378239, Note_on_c, 0, 41, 0
1, 378249, Note_on_c, 0, 59, 0
1, 378270, Control_c, 0, 64, 0
1, 378270, Control_c, 0, 64, 0
1, 378294, Control_c, 0, 64, 127
1, 378294, Control_c, 0, 64, 127
1, 378325, Note_on_c, 0, 68, 69
1, 378349, Note_on_c, 0, 68, 0
1, 378419, Note_on_c, 0, 71, 72
1, 378442, Note_on_c, 0, 71, 0
1, 378513, Note_on_c, 0, 80, 76
1, 378520, Control_c, 0, 64, 0
1, 378520, Control_c, 0, 64, 0
1, 378533, Note_on_c, 0, 80, 0
1, 378593, Note_on_c, 0, 80, 75
1, 378613, Note_on_c, 0, 80, 0
1, 378639, Control_c, 0, 64, 127
1, 378639, Control_c, 0, 64, 127
1, 378673, Note_on_c, 0, 71, 71
1, 378693, Note_on_c, 0, 71, 0
1, 378753, Note_on_c, 0, 68, 69
1, 378773, Note_on_c, 0, 68, 0
1, 378834, Note_on_c, 0, 59, 65
1, 378854, Note_on_c, 0, 59, 0
1, 378854, Control_c, 0, 64, 0
1, 378854, Control_c, 0, 64, 0
1, 378914, Note_on_c, 0, 57, 65
1, 378914, Note_on_c, 0, 49, 82
1, 378926, Note_on_c, 0, 50, 0
1, 378934, Note_on_c, 0, 57, 0
1, 378980, Control_c, 0, 64, 127
1, 378980, Control_c, 0, 64, 127
1, 378994, Note_on_c, 0, 66, 68
1, 379014, Note_on_c, 0, 66, 0
1, 379074, Note_on_c, 0, 69, 71
1, 379094, Note_on_c, 0, 69, 0
1, 379149, Control_c, 0, 64, 0
1, 379149, Control_c, 0, 64, 0
1, 379154, Note_on_c, 0, 78, 73
1, 379174, Note_on_c, 0, 78, 0
1, 379230, Control_c, 0, 64, 127
1, 379230, Control_c, 0, 64, 127
1, 379235, Note_on_c, 0, 78, 73
1, 379235, Note_on_c, 0, 48, 85
1, 379235, Note_on_c, 0, 39, 66
1, 379248, Note_on_c, 0, 42, 0
1, 379248, Note_on_c, 0, 49, 0
1, 379256, Note_on_c, 0, 78, 0
1, 379321, Note_on_c, 0, 69, 69
1, 379343, Note_on_c, 0, 69, 0
1, 379407, Control_c, 0, 64, 0
1, 379407, Note_on_c, 0, 66, 67
1, 379407, Control_c, 0, 64, 0
1, 379429, Note_on_c, 0, 66, 0
1, 379494, Note_on_c, 0, 57, 63
1, 379499, Control_c, 0, 64, 127
1, 379499, Control_c, 0, 64, 127
1, 379515, Note_on_c, 0, 57, 0
1, 379580, Control_c, 0, 64, 127
1, 379580, Control_c, 0, 64, 0
1, 379580, Note_on_c, 0, 56, 61
1, 379583, Control_c, 0, 64, 127
1, 379583, Control_c, 0, 64, 0
1, 379583, Control_c, 0, 64, 0
1, 379586, Control_c, 0, 64, 0
1, 379586, Control_c, 0, 64, 0
1, 379586, Note_on_c, 0, 40, 59
1, 379589, Note_on_c, 0, 47, 82
1, 379594, Note_on_c, 0, 48, 0
1, 379594, Note_on_c, 0, 39, 0
1, 379602, Note_on_c, 0, 56, 0
1, 379621, Control_c, 0, 64, 0
1, 379621, Control_c, 0, 64, 0
1, 379663, Control_c, 0, 64, 127
1, 379663, Control_c, 0, 64, 127
1, 379667, Note_on_c, 0, 64, 65
1, 379688, Note_on_c, 0, 64, 0
1, 379753, Note_on_c, 0, 68, 67
1, 379775, Note_on_c, 0, 68, 0
1, 379839, Note_on_c, 0, 76, 71
1, 379847, Control_c, 0, 64, 0
1, 379847, Control_c, 0, 64, 0
1, 379861, Note_on_c, 0, 76, 0
1, 379926, Note_on_c, 0, 76, 71
1, 379926, Note_on_c, 0, 45, 80
1, 379926, Note_on_c, 0, 33, 59
1, 379939, Note_on_c, 0, 40, 0
1, 379939, Note_on_c, 0, 47, 0
1, 379947, Note_on_c, 0, 76, 0
1, 379975, Control_c, 0, 64, 127
1, 379975, Control_c, 0, 64, 127
1, 380012, Note_on_c, 0, 66, 67
1, 380034, Note_on_c, 0, 66, 0
1, 380099, Note_on_c, 0, 64, 65
1, 380120, Note_on_c, 0, 64, 0
1, 380185, Note_on_c, 0, 54, 61
1, 380185, Note_on_c, 0, 44, 78
1, 380202, Note_on_c, 0, 45, 0
1, 380212, Note_on_c, 0, 54, 0
1, 380215, Control_c, 0, 64, 0
1, 380215, Control_c, 0, 64, 0
1, 380293, Note_on_c, 0, 54, 61
1, 380293, Note_on_c, 0, 42, 78
1, 380293, Note_on_c, 0, 35, 59
1, 380308, Note_on_c, 0, 33, 0
1, 380308, Note_on_c, 0, 44, 0
1, 380316, Note_on_c, 0, 54, 0
1, 380370, Control_c, 0, 64, 127
1, 380370, Control_c, 0, 64, 127
1, 380387, Note_on_c, 0, 63, 64
1, 380410, Note_on_c, 0, 63, 0
1, 380480, Note_on_c, 0, 66, 66
1, 380504, Note_on_c, 0, 66, 0
1, 380567, Control_c, 0, 64, 0
1, 380567, Control_c, 0, 64, 0
1, 380574, Note_on_c, 0, 75, 69
1, 380597, Note_on_c, 0, 75, 0
1, 380662, Control_c, 0, 64, 127
1, 380662, Control_c, 0, 64, 127
1, 380667, Note_on_c, 0, 75, 69
1, 380667, Note_on_c, 0, 45, 76
1, 380682, Note_on_c, 0, 42, 0
1, 380691, Note_on_c, 0, 75, 0
1, 380761, Note_on_c, 0, 66, 65
1, 380784, Note_on_c, 0, 66, 0
1, 380855, Note_on_c, 0, 63, 63
1, 380878, Note_on_c, 0, 63, 0
1, 380948, Note_on_c, 0, 54, 60
1, 380972, Note_on_c, 0, 54, 0
1, 380976, Control_c, 0, 64, 0
1, 380976, Control_c, 0, 64, 0
1, 381009, Control_c, 0, 64, 127
1, 381009, Control_c, 0, 64, 127
1, 381042, Control_c, 0, 64, 127
1, 381042, Note_on_c, 0, 54, 54
1, 381042, Control_c, 0, 64, 127
1, 381045, Note_on_c, 0, 45, 0
1, 381045, Control_c, 0, 64, 0
1, 381045, Control_c, 0, 64, 0
1, 381048, Note_on_c, 0, 40, 54
1, 381048, Note_on_c, 0, 45, 77
1, 381056, Note_on_c, 0, 35, 0
1, 381065, Note_on_c, 0, 54, 0
1, 381097, Control_c, 0, 64, 0
1, 381097, Control_c, 0, 64, 0
1, 381135, Note_on_c, 0, 63, 57
1, 381157, Note_on_c, 0, 63, 0
1, 381162, Control_c, 0, 64, 127
1, 381162, Control_c, 0, 64, 127
1, 381222, Note_on_c, 0, 66, 60
1, 381243, Note_on_c, 0, 66, 0
1, 381308, Note_on_c, 0, 75, 63
1, 381330, Note_on_c, 0, 75, 0
1, 381395, Note_on_c, 0, 75, 63
1, 381416, Note_on_c, 0, 75, 0
1, 381481, Note_on_c, 0, 66, 59
1, 381503, Note_on_c, 0, 66, 0
1, 381567, Note_on_c, 0, 63, 57
1, 381589, Note_on_c, 0, 63, 0
1, 381654, Note_on_c, 0, 54, 55
1, 381675, Note_on_c, 0, 54, 0
1, 381730, Control_c, 0, 64, 0
1, 381730, Control_c, 0, 64, 0
1, 381740, Note_on_c, 0, 52, 54
1, 381740, Note_on_c, 0, 44, 65
1, 381754, Note_on_c, 0, 45, 0
1, 381762, Note_on_c, 0, 52, 0
1, 381827, Note_on_c, 0, 64, 56
1, 381852, Note_on_c, 0, 64, 0
1, 381857, Control_c, 0, 64, 127
1, 381857, Control_c, 0, 64, 127
1, 381929, Note_on_c, 0, 64, 58
1, 381954, Note_on_c, 0, 64, 0
1, 382031, Note_on_c, 0, 76, 61
1, 382066, Note_on_c, 0, 76, 0
1, 382089, Control_c, 0, 64, 127
1, 382089, Control_c, 0, 64, 127
1, 382171, Note_on_c, 0, 76, 60
1, 382312, Note_on_c, 0, 76, 0
1, 382386, Control_c, 0, 64, 0
1, 382386, Control_c, 0, 64, 0
1, 382733, Control_c, 0, 64, 0
1, 382733, Note_on_c, 0, 63, 88
1, 382733, Control_c, 0, 64, 0
1, 382736, Note_on_c, 0, 40, 0
1, 382736, Note_on_c, 0, 44, 0
1, 382736, Control_c, 0, 64, 0
1, 382739, Note_on_c, 0, 48, 77
1, 382843, Control_c, 0, 64, 127
1, 382843, Control_c, 0, 64, 127
1, 382893, Note_on_c, 0, 48, 0
1, 382893, Note_on_c, 0, 63, 0
1, 382893, Note_on_c, 0, 68, 78
1, 382896, Note_on_c, 0, 56, 70
1, 382995, Note_on_c, 0, 56, 0
1, 382995, Note_on_c, 0, 68, 0
1, 382995, Note_on_c, 0, 69, 81
1, 382998, Note_on_c, 0, 57, 73
1, 383089, Note_on_c, 0, 57, 0
1, 383089, Note_on_c, 0, 69, 0
1, 383089, Note_on_c, 0, 71, 84
1, 383092, Note_on_c, 0, 59, 76
1, 383175, Note_on_c, 0, 59, 0
1, 383175, Note_on_c, 0, 71, 0
1, 383175, Note_on_c, 0, 69, 87
1, 383178, Note_on_c, 0, 57, 79
1, 383262, Note_on_c, 0, 57, 0
1, 383262, Note_on_c, 0, 69, 0
1, 383262, Note_on_c, 0, 68, 89
1, 383265, Note_on_c, 0, 56, 82
1, 383348, Note_on_c, 0, 56, 0
1, 383348, Note_on_c, 0, 68, 0
1, 383348, Note_on_c, 0, 69, 92
1, 383351, Note_on_c, 0, 57, 86
1, 383489, Note_on_c, 0, 57, 0
1, 383489, Note_on_c, 0, 81, 101
1, 383676, Note_on_c, 0, 66, 93
1, 383726, Control_c, 0, 64, 0
1, 383726, Control_c, 0, 64, 0
1, 383784, Note_on_c, 0, 66, 0
1, 383784, Note_on_c, 0, 63, 85
1, 383850, Control_c, 0, 64, 127
1, 383850, Control_c, 0, 64, 127
1, 383886, Note_on_c, 0, 63, 0
1, 383886, Note_on_c, 0, 60, 83
1, 383980, Note_on_c, 0, 60, 0
1, 383980, Note_on_c, 0, 57, 82
1, 384066, Note_on_c, 0, 57, 0
1, 384066, Note_on_c, 0, 54, 81
1, 384152, Note_on_c, 0, 54, 0
1, 384152, Note_on_c, 0, 51, 80
1, 384239, Note_on_c, 0, 51, 0
1, 384239, Note_on_c, 0, 48, 78
1, 384285, Control_c, 0, 64, 0
1, 384285, Control_c, 0, 64, 0
1, 384325, Note_on_c, 0, 48, 0
1, 384325, Note_on_c, 0, 44, 77
1, 384412, Control_c, 0, 64, 0
1, 384412, Control_c, 0, 64, 0
1, 384412, Control_c, 0, 64, 0
1, 384415, Note_on_c, 0, 81, 0
1, 384415, Note_on_c, 0, 69, 0
1, 384415, Note_on_c, 0, 64, 88
1, 384418, Control_c, 0, 64, 0
1, 384418, Control_c, 0, 64, 0
1, 384418, Control_c, 0, 64, 0
1, 384421, Note_on_c, 0, 44, 0
1, 384421, Control_c, 0, 64, 0
1, 384421, Note_on_c, 0, 49, 83
1, 384508, Control_c, 0, 64, 127
1, 384508, Control_c, 0, 64, 127
1, 384508, Control_c, 0, 64, 127
1, 384511, Control_c, 0, 64, 127
1, 384552, Note_on_c, 0, 64, 0
1, 384552, Note_on_c, 0, 68, 78
1, 384638, Note_on_c, 0, 68, 0
1, 384638, Note_on_c, 0, 69, 81
1, 384725, Note_on_c, 0, 69, 0
1, 384725, Note_on_c, 0, 71, 84
1, 384811, Note_on_c, 0, 71, 0
1, 384811, Note_on_c, 0, 49, 0
1, 384811, Note_on_c, 0, 69, 87
1, 384898, Note_on_c, 0, 69, 0
1, 384898, Note_on_c, 0, 68, 89
1, 384984, Note_on_c, 0, 68, 0
1, 384984, Note_on_c, 0, 69, 92
1, 385070, Note_on_c, 0, 69, 0
1, 385070, Note_on_c, 0, 85, 105
1, 385258, Note_on_c, 0, 73, 99
1, 385323, Control_c, 0, 64, 0
1, 385323, Control_c, 0, 64, 0
1, 385398, Note_on_c, 0, 73, 0
1, 385398, Note_on_c, 0, 69, 91
1, 385464, Control_c, 0, 64, 127
1, 385464, Control_c, 0, 64, 127
1, 385500, Note_on_c, 0, 69, 0
1, 385500, Note_on_c, 0, 64, 89
1, 385594, Note_on_c, 0, 64, 0
1, 385594, Note_on_c, 0, 61, 88
1, 385680, Note_on_c, 0, 61, 0
1, 385680, Note_on_c, 0, 57, 86
1, 385766, Note_on_c, 0, 57, 0
1, 385766, Note_on_c, 0, 52, 85
1, 385853, Note_on_c, 0, 52, 0
1, 385853, Note_on_c, 0, 49, 84
1, 385899, Control_c, 0, 64, 0
1, 385899, Control_c, 0, 64, 0
1, 385899, Control_c, 0, 64, 0
1, 385902, Control_c, 0, 64, 0
1, 385939, Note_on_c, 0, 49, 0
1, 385939, Note_on_c, 0, 44, 82
1, 386026, Control_c, 0, 64, 0
1, 386026, Control_c, 0, 64, 0
1, 386026, Control_c, 0, 64, 0
1, 386029, Note_on_c, 0, 85, 0
1, 386029, Note_on_c, 0, 67, 88
1, 386029, Control_c, 0, 64, 0
1, 386032, Control_c, 0, 64, 0
1, 386032, Control_c, 0, 64, 0
1, 386032, Control_c, 0, 64, 0
1, 386035, Note_on_c, 0, 44, 0
1, 386035, Note_on_c, 0, 51, 88
1, 386122, Control_c, 0, 64, 127
1, 386122, Control_c, 0, 64, 127
1, 386122, Control_c, 0, 64, 127
1, 386125, Control_c, 0, 64, 127
1, 386166, Note_on_c, 0, 67, 0
1, 386166, Note_on_c, 0, 72, 79
1, 386252, Note_on_c, 0, 72, 0
1, 386252, Note_on_c, 0, 73, 82
1, 386339, Note_on_c, 0, 73, 0
1, 386339, Note_on_c, 0, 75, 85
1, 386425, Note_on_c, 0, 75, 0
1, 386425, Note_on_c, 0, 51, 0
1, 386425, Note_on_c, 0, 73, 89
1, 386512, Note_on_c, 0, 73, 0
1, 386512, Note_on_c, 0, 72, 91
1, 386598, Note_on_c, 0, 72, 0
1, 386598, Note_on_c, 0, 73, 95
1, 386684, Note_on_c, 0, 73, 0
1, 386684, Note_on_c, 0, 76, 99
1, 386825, Note_on_c, 0, 88, 112
1, 386825, Note_on_c, 0, 73, 99
1, 386875, Control_c, 0, 64, 0
1, 386875, Control_c, 0, 64, 0
1, 386933, Note_on_c, 0, 73, 0
1, 386933, Note_on_c, 0, 70, 91
1, 386999, Control_c, 0, 64, 127
1, 386999, Control_c, 0, 64, 127
1, 387035, Note_on_c, 0, 70, 0
1, 387035, Note_on_c, 0, 67, 89
1, 387129, Note_on_c, 0, 67, 0
1, 387129, Note_on_c, 0, 64, 88
1, 387215, Note_on_c, 0, 64, 0
1, 387215, Note_on_c, 0, 61, 86
1, 387301, Note_on_c, 0, 61, 0
1, 387301, Note_on_c, 0, 58, 85
1, 387388, Note_on_c, 0, 58, 0
1, 387388, Note_on_c, 0, 55, 84
1, 387434, Control_c, 0, 64, 0
1, 387434, Control_c, 0, 64, 0
1, 387434, Control_c, 0, 64, 0
1, 387437, Control_c, 0, 64, 0
1, 387474, Note_on_c, 0, 55, 0
1, 387474, Note_on_c, 0, 44, 82
1, 387561, Control_c, 0, 64, 0
1, 387561, Control_c, 0, 64, 0
1, 387561, Control_c, 0, 64, 0
1, 387564, Note_on_c, 0, 88, 0
1, 387564, Note_on_c, 0, 76, 0
1, 387564, Note_on_c, 0, 72, 93
1, 387567, Control_c, 0, 64, 0
1, 387567, Control_c, 0, 64, 0
1, 387567, Control_c, 0, 64, 0
1, 387570, Note_on_c, 0, 44, 0
1, 387570, Control_c, 0, 64, 0
1, 387570, Note_on_c, 0, 51, 88
1, 387657, Control_c, 0, 64, 127
1, 387657, Control_c, 0, 64, 127
1, 387657, Control_c, 0, 64, 127
1, 387660, Control_c, 0, 64, 127
1, 387701, Note_on_c, 0, 72, 0
1, 387701, Note_on_c, 0, 77, 83
1, 387787, Note_on_c, 0, 77, 0
1, 387787, Note_on_c, 0, 78, 86
1, 387874, Note_on_c, 0, 78, 0
1, 387874, Note_on_c, 0, 80, 90
1, 387960, Note_on_c, 0, 80, 0
1, 387960, Note_on_c, 0, 51, 0
1, 387960, Note_on_c, 0, 78, 94
1, 388047, Note_on_c, 0, 78, 0
1, 388047, Note_on_c, 0, 77, 98
1, 388133, Note_on_c, 0, 77, 0
1, 388133, Note_on_c, 0, 78, 102
1, 388241, Note_on_c, 0, 78, 0
1, 388241, Note_on_c, 0, 81, 106
1, 388428, Note_on_c, 0, 93, 117
1, 388428, Note_on_c, 0, 78, 99
1, 388494, Control_c, 0, 64, 0
1, 388494, Control_c, 0, 64, 0
1, 388569, Note_on_c, 0, 78, 0
1, 388569, Note_on_c, 0, 75, 89
1, 388639, Control_c, 0, 64, 127
1, 388639, Control_c, 0, 64, 127
1, 388677, Note_on_c, 0, 75, 0
1, 388677, Note_on_c, 0, 72, 86
1, 388779, Note_on_c, 0, 72, 0
1, 388779, Note_on_c, 0, 69, 83
1, 388872, Note_on_c, 0, 69, 0
1, 388872, Note_on_c, 0, 66, 80
1, 388966, Note_on_c, 0, 66, 0
1, 388966, Note_on_c, 0, 63, 77
1, 389059, Note_on_c, 0, 63, 0
1, 389059, Note_on_c, 0, 60, 74
1, 389110, Control_c, 0, 64, 0
1, 389110, Control_c, 0, 64, 0
1, 389110, Control_c, 0, 64, 0
1, 389113, Control_c, 0, 64, 0
1, 389153, Note_on_c, 0, 60, 0
1, 389153, Note_on_c, 0, 57, 71
1, 389278, Note_on_c, 0, 81, 0
1, 389278, Control_c, 0, 64, 0
1, 389278, Control_c, 0, 64, 0
1, 389281, Note_on_c, 0, 93, 0
1, 389281, Note_on_c, 0, 64, 60
1, 389281, Control_c, 0, 64, 0
1, 389284, Control_c, 0, 64, 0
1, 389284, Control_c, 0, 64, 0
1, 389284, Control_c, 0, 64, 0
1, 389287, Note_on_c, 0, 57, 0
1, 389287, Note_on_c, 0, 49, 64
1, 389301, Note_on_c, 0, 64, 0
1, 389321, Control_c, 0, 64, 127
1, 389321, Control_c, 0, 64, 127
1, 389371, Note_on_c, 0, 73, 65
1, 389395, Note_on_c, 0, 73, 0
1, 389465, Note_on_c, 0, 76, 69
1, 389485, Note_on_c, 0, 76, 0
1, 389545, Note_on_c, 0, 85, 74
1, 389552, Control_c, 0, 64, 0
1, 389552, Control_c, 0, 64, 0
1, 389565, Note_on_c, 0, 85, 0
1, 389626, Note_on_c, 0, 85, 74
1, 389626, Note_on_c, 0, 56, 85
1, 389646, Note_on_c, 0, 85, 0
1, 389671, Control_c, 0, 64, 127
1, 389671, Control_c, 0, 64, 127
1, 389706, Note_on_c, 0, 76, 70
1, 389726, Note_on_c, 0, 76, 0
1, 389786, Note_on_c, 0, 73, 67
1, 389806, Note_on_c, 0, 73, 0
1, 389866, Note_on_c, 0, 64, 69
1, 389886, Note_on_c, 0, 64, 0
1, 389889, Control_c, 0, 64, 0
1, 389889, Control_c, 0, 64, 0
1, 389946, Note_on_c, 0, 64, 69
1, 389946, Note_on_c, 0, 57, 89
1, 389962, Note_on_c, 0, 56, 0
1, 389972, Note_on_c, 0, 64, 0
1, 390030, Control_c, 0, 64, 127
1, 390030, Control_c, 0, 64, 127
1, 390049, Note_on_c, 0, 73, 67
1, 390072, Note_on_c, 0, 73, 0
1, 390142, Note_on_c, 0, 76, 70
1, 390164, Note_on_c, 0, 76, 0
1, 390200, Note_on_c, 0, 49, 0
1, 390200, Note_on_c, 0, 42, 82
1, 390222, Control_c, 0, 64, 0
1, 390222, Control_c, 0, 64, 0
1, 390229, Note_on_c, 0, 85, 74
1, 390250, Note_on_c, 0, 85, 0
1, 390310, Control_c, 0, 64, 127
1, 390310, Control_c, 0, 64, 127
1, 390315, Note_on_c, 0, 85, 74
1, 390315, Note_on_c, 0, 58, 92
1, 390331, Note_on_c, 0, 57, 0
1, 390340, Note_on_c, 0, 85, 0
1, 390373, Note_on_c, 0, 59, 82
1, 390389, Note_on_c, 0, 58, 0
1, 390417, Note_on_c, 0, 76, 70
1, 390431, Note_on_c, 0, 59, 0
1, 390431, Note_on_c, 0, 58, 82
1, 390443, Note_on_c, 0, 76, 0
1, 390490, Note_on_c, 0, 58, 0
1, 390490, Note_on_c, 0, 59, 82
1, 390519, Note_on_c, 0, 73, 67
1, 390550, Note_on_c, 0, 73, 0
1, 390555, Note_on_c, 0, 59, 0
1, 390555, Note_on_c, 0, 58, 82
1, 390626, Note_on_c, 0, 58, 0
1, 390626, Note_on_c, 0, 56, 82
1, 390644, Note_on_c, 0, 64, 69
1, 390657, Control_c, 0, 64, 127
1, 390657, Control_c, 0, 64, 127
1, 390675, Note_on_c, 0, 64, 0
1, 390698, Note_on_c, 0, 56, 0
1, 390698, Note_on_c, 0, 58, 82
1, 390789, Control_c, 0, 64, 127
1, 390789, Control_c, 0, 64, 0
1, 390789, Note_on_c, 0, 62, 66
1, 390792, Control_c, 0, 64, 127
1, 390792, Control_c, 0, 64, 0
1, 390792, Control_c, 0, 64, 0
1, 390795, Note_on_c, 0, 58, 0
1, 390795, Control_c, 0, 64, 0
1, 390795, Note_on_c, 0, 61, 96
1, 390798, Note_on_c, 0, 47, 64
1, 390798, Note_on_c, 0, 54, 64
1, 390814, Note_on_c, 0, 42, 0
1, 390829, Note_on_c, 0, 62, 0
1, 390863, Control_c, 0, 64, 0
1, 390863, Control_c, 0, 64, 0
1, 390899, Control_c, 0, 64, 127
1, 390899, Control_c, 0, 64, 127
1, 390950, Note_on_c, 0, 73, 65
1, 390973, Note_on_c, 0, 73, 0
1, 391043, Note_on_c, 0, 74, 69
1, 391067, Note_on_c, 0, 74, 0
1, 391137, Note_on_c, 0, 85, 74
1, 391144, Control_c, 0, 64, 0
1, 391144, Control_c, 0, 64, 0
1, 391157, Note_on_c, 0, 85, 0
1, 391217, Note_on_c, 0, 85, 74
1, 391237, Note_on_c, 0, 85, 0
1, 391263, Control_c, 0, 64, 127
1, 391263, Control_c, 0, 64, 127
1, 391297, Note_on_c, 0, 74, 70
1, 391317, Note_on_c, 0, 74, 0
1, 391377, Note_on_c, 0, 73, 67
1, 391398, Note_on_c, 0, 73, 0
1, 391458, Note_on_c, 0, 62, 69
1, 391478, Note_on_c, 0, 62, 0
1, 391478, Control_c, 0, 64, 0
1, 391478, Control_c, 0, 64, 0
1, 391538, Note_on_c, 0, 62, 69
1, 391538, Note_on_c, 0, 59, 85
1, 391550, Note_on_c, 0, 61, 0
1, 391558, Note_on_c, 0, 62, 0
1, 391604, Control_c, 0, 64, 127
1, 391604, Control_c, 0, 64, 127
1, 391618, Note_on_c, 0, 71, 67
1, 391638, Note_on_c, 0, 71, 0
1, 391698, Note_on_c, 0, 74, 70
1, 391718, Note_on_c, 0, 74, 0
1, 391773, Control_c, 0, 64, 0
1, 391773, Control_c, 0, 64, 0
1, 391779, Note_on_c, 0, 83, 74
1, 391799, Note_on_c, 0, 83, 0
1, 391854, Control_c, 0, 64, 127
1, 391854, Control_c, 0, 64, 127
1, 391859, Note_on_c, 0, 83, 74
1, 391859, Note_on_c, 0, 44, 68
1, 391859, Note_on_c, 0, 52, 76
1, 391872, Note_on_c, 0, 59, 0
1, 391872, Note_on_c, 0, 54, 0
1, 391872, Note_on_c, 0, 47, 0
1, 391880, Note_on_c, 0, 83, 0
1, 391945, Note_on_c, 0, 74, 70
1, 391967, Note_on_c, 0, 74, 0
1, 392032, Note_on_c, 0, 71, 67
1, 392053, Note_on_c, 0, 71, 0
1, 392118, Note_on_c, 0, 62, 69
1, 392140, Note_on_c, 0, 62, 0
1, 392175, Control_c, 0, 64, 0
1, 392175, Control_c, 0, 64, 0
1, 392204, Control_c, 0, 64, 0
1, 392204, Control_c, 0, 64, 0
1, 392204, Control_c, 0, 64, 0
1, 392207, Note_on_c, 0, 61, 66
1, 392207, Control_c, 0, 64, 0
1, 392207, Control_c, 0, 64, 0
1, 392210, Control_c, 0, 64, 0
1, 392210, Control_c, 0, 64, 0
1, 392210, Control_c, 0, 64, 0
1, 392213, Note_on_c, 0, 45, 68
1, 392221, Note_on_c, 0, 44, 0
1, 392231, Note_on_c, 0, 61, 0
1, 392254, Control_c, 0, 64, 127
1, 392254, Control_c, 0, 64, 127
1, 392312, Note_on_c, 0, 71, 65
1, 392332, Note_on_c, 0, 71, 0
1, 392393, Note_on_c, 0, 73, 69
1, 392413, Note_on_c, 0, 73, 0
1, 392473, Note_on_c, 0, 83, 74
1, 392480, Control_c, 0, 64, 0
1, 392480, Control_c, 0, 64, 0
1, 392493, Note_on_c, 0, 83, 0
1, 392553, Note_on_c, 0, 83, 74
1, 392553, Note_on_c, 0, 53, 81
1, 392566, Note_on_c, 0, 52, 0
1, 392573, Note_on_c, 0, 83, 0
1, 392599, Control_c, 0, 64, 127
1, 392599, Control_c, 0, 64, 127
1, 392633, Note_on_c, 0, 73, 70
1, 392653, Note_on_c, 0, 73, 0
1, 392714, Note_on_c, 0, 71, 67
1, 392734, Note_on_c, 0, 71, 0
1, 392794, Note_on_c, 0, 61, 69
1, 392814, Note_on_c, 0, 61, 0
1, 392814, Control_c, 0, 64, 0
1, 392814, Control_c, 0, 64, 0
1, 392874, Note_on_c, 0, 61, 69
1, 392874, Note_on_c, 0, 54, 86
1, 392887, Note_on_c, 0, 53, 0
1, 392894, Note_on_c, 0, 61, 0
1, 392940, Control_c, 0, 64, 127
1, 392940, Control_c, 0, 64, 127
1, 392954, Note_on_c, 0, 69, 67
1, 392974, Note_on_c, 0, 69, 0
1, 393034, Note_on_c, 0, 73, 70
1, 393055, Note_on_c, 0, 73, 0
1, 393109, Control_c, 0, 64, 0
1, 393109, Control_c, 0, 64, 0
1, 393115, Note_on_c, 0, 81, 74
1, 393135, Note_on_c, 0, 81, 0
1, 393191, Control_c, 0, 64, 127
1, 393191, Control_c, 0, 64, 127
1, 393195, Note_on_c, 0, 45, 0
1, 393195, Note_on_c, 0, 81, 74
1, 393195, Note_on_c, 0, 45, 68
1, 393198, Note_on_c, 0, 52, 82
1, 393208, Note_on_c, 0, 54, 0
1, 393217, Note_on_c, 0, 81, 0
1, 393281, Note_on_c, 0, 73, 70
1, 393305, Note_on_c, 0, 73, 0
1, 393375, Note_on_c, 0, 69, 67
1, 393398, Note_on_c, 0, 69, 0
1, 393469, Note_on_c, 0, 61, 63
1, 393494, Note_on_c, 0, 61, 0
1, 393536, Control_c, 0, 64, 0
1, 393536, Control_c, 0, 64, 0
1, 393571, Control_c, 0, 64, 0
1, 393571, Control_c, 0, 64, 0
1, 393571, Control_c, 0, 64, 0
1, 393574, Note_on_c, 0, 59, 60
1, 393574, Control_c, 0, 64, 0
1, 393574, Control_c, 0, 64, 0
1, 393577, Control_c, 0, 64, 0
1, 393577, Control_c, 0, 64, 0
1, 393577, Note_on_c, 0, 47, 69
1, 393580, Note_on_c, 0, 51, 83
1, 393590, Note_on_c, 0, 45, 0
1, 393590, Note_on_c, 0, 52, 0
1, 393602, Note_on_c, 0, 59, 0
1, 393628, Control_c, 0, 64, 127
1, 393628, Control_c, 0, 64, 127
1, 393695, Note_on_c, 0, 66, 65
1, 393719, Note_on_c, 0, 66, 0
1, 393789, Note_on_c, 0, 71, 69
1, 393812, Note_on_c, 0, 71, 0
1, 393883, Note_on_c, 0, 78, 74
1, 393890, Control_c, 0, 64, 0
1, 393890, Control_c, 0, 64, 0
1, 393903, Note_on_c, 0, 78, 0
1, 393963, Note_on_c, 0, 78, 74
1, 393963, Note_on_c, 0, 59, 76
1, 393975, Note_on_c, 0, 51, 0
1, 393983, Note_on_c, 0, 78, 0
1, 394009, Control_c, 0, 64, 127
1, 394009, Control_c, 0, 64, 127
1, 394043, Note_on_c, 0, 71, 70
1, 394063, Note_on_c, 0, 71, 0
1, 394123, Note_on_c, 0, 66, 67
1, 394143, Note_on_c, 0, 66, 0
1, 394204, Note_on_c, 0, 59, 70
1, 394224, Note_on_c, 0, 59, 0
1, 394224, Control_c, 0, 64, 0
1, 394224, Control_c, 0, 64, 0
1, 394284, Note_on_c, 0, 59, 70
1, 394296, Note_on_c, 0, 59, 0
1, 394304, Note_on_c, 0, 59, 0
1, 394350, Control_c, 0, 64, 127
1, 394350, Control_c, 0, 64, 127
1, 394364, Note_on_c, 0, 67, 67
1, 394384, Note_on_c, 0, 67, 0
1, 394444, Note_on_c, 0, 71, 70
1, 394464, Note_on_c, 0, 71, 0
1, 394519, Control_c, 0, 64, 0
1, 394519, Control_c, 0, 64, 0
1, 394524, Note_on_c, 0, 79, 74
1, 394545, Note_on_c, 0, 79, 0
1, 394600, Control_c, 0, 64, 127
1, 394600, Control_c, 0, 64, 127
1, 394605, Note_on_c, 0, 47, 0
1, 394605, Note_on_c, 0, 79, 74
1, 394605, Note_on_c, 0, 47, 83
1, 394625, Note_on_c, 0, 79, 0
1, 394685, Note_on_c, 0, 71, 70
1, 394705, Note_on_c, 0, 71, 0
1, 394765, Note_on_c, 0, 67, 67
1, 394785, Note_on_c, 0, 67, 0
1, 394845, Note_on_c, 0, 59, 63
1, 394865, Note_on_c, 0, 59, 0
1, 394899, Control_c, 0, 64, 0
1, 394899, Control_c, 0, 64, 0
1, 394926, Control_c, 0, 64, 0
1, 394926, Control_c, 0, 64, 0
1, 394926, Note_on_c, 0, 59, 66
1, 394929, Control_c, 0, 64, 0
1, 394929, Control_c, 0, 64, 0
1, 394929, Control_c, 0, 64, 0
1, 394932, Control_c, 0, 64, 0
1, 394932, Note_on_c, 0, 40, 65
1, 394949, Note_on_c, 0, 59, 0
1, 394984, Note_on_c, 0, 47, 0
1, 395019, Note_on_c, 0, 68, 70
1, 395043, Note_on_c, 0, 68, 0
1, 395113, Note_on_c, 0, 71, 74
1, 395133, Note_on_c, 0, 71, 0
1, 395193, Note_on_c, 0, 80, 78
1, 395213, Note_on_c, 0, 80, 0
1, 395273, Note_on_c, 0, 80, 78
1, 395273, Note_on_c, 0, 47, 82
1, 395293, Note_on_c, 0, 80, 0
1, 395354, Note_on_c, 0, 71, 74
1, 395374, Note_on_c, 0, 71, 0
1, 395434, Note_on_c, 0, 68, 71
1, 395454, Note_on_c, 0, 68, 0
1, 395514, Note_on_c, 0, 59, 68
1, 395534, Note_on_c, 0, 59, 0
1, 395594, Note_on_c, 0, 59, 67
1, 395594, Note_on_c, 0, 49, 86
1, 395607, Note_on_c, 0, 47, 0
1, 395614, Note_on_c, 0, 59, 0
1, 395660, Control_c, 0, 64, 127
1, 395660, Control_c, 0, 64, 127
1, 395674, Note_on_c, 0, 68, 71
1, 395694, Note_on_c, 0, 68, 0
1, 395755, Note_on_c, 0, 71, 74
1, 395775, Note_on_c, 0, 71, 0
1, 395829, Control_c, 0, 64, 0
1, 395829, Control_c, 0, 64, 0
1, 395835, Note_on_c, 0, 80, 77
1, 395855, Note_on_c, 0, 80, 0
1, 395911, Control_c, 0, 64, 127
1, 395911, Control_c, 0, 64, 127
1, 395915, Note_on_c, 0, 80, 77
1, 395915, Note_on_c, 0, 50, 89
1, 395915, Note_on_c, 0, 41, 65
1, 395930, Note_on_c, 0, 40, 0
1, 395930, Note_on_c, 0, 49, 0
1, 395939, Note_on_c, 0, 80, 0
1, 396009, Note_on_c, 0, 71, 73
1, 396034, Note_on_c, 0, 71, 0
1, 396111, Note_on_c, 0, 68, 71
1, 396138, Note_on_c, 0, 68, 0
1, 396199, Control_c, 0, 64, 127
1, 396199, Control_c, 0, 64, 127
1, 396219, Note_on_c, 0, 59, 67
1, 396246, Note_on_c, 0, 59, 0
1, 396327, Control_c, 0, 64, 127
1, 396327, Control_c, 0, 64, 0
1, 396327, Control_c, 0, 64, 0
1, 396330, Note_on_c, 0, 59, 64
1, 396330, Control_c, 0, 64, 127
1, 396330, Control_c, 0, 64, 0
1, 396333, Control_c, 0, 64, 0
1, 396333, Control_c, 0, 64, 0
1, 396333, Control_c, 0, 64, 0
1, 396336, Note_on_c, 0, 50, 0
1, 396336, Control_c, 0, 64, 0
1, 396336, Note_on_c, 0, 42, 66
1, 396339, Note_on_c, 0, 50, 87
1, 396343, Note_on_c, 0, 41, 0
1, 396352, Note_on_c, 0, 59, 0
1, 396374, Control_c, 0, 64, 0
1, 396374, Control_c, 0, 64, 0
1, 396397, Control_c, 0, 64, 127
1, 396397, Control_c, 0, 64, 127
1, 396429, Note_on_c, 0, 68, 69
1, 396452, Note_on_c, 0, 68, 0
1, 396523, Note_on_c, 0, 71, 72
1, 396546, Note_on_c, 0, 71, 0
1, 396616, Note_on_c, 0, 80, 76
1, 396623, Control_c, 0, 64, 0
1, 396623, Control_c, 0, 64, 0
1, 396636, Note_on_c, 0, 80, 0
1, 396696, Note_on_c, 0, 80, 75
1, 396716, Note_on_c, 0, 80, 0
1, 396742, Control_c, 0, 64, 127
1, 396742, Control_c, 0, 64, 127
1, 396777, Note_on_c, 0, 71, 71
1, 396797, Note_on_c, 0, 71, 0
1, 396857, Note_on_c, 0, 68, 69
1, 396877, Note_on_c, 0, 68, 0
1, 396937, Note_on_c, 0, 59, 65
1, 396957, Note_on_c, 0, 59, 0
1, 396960, Control_c, 0, 64, 0
1, 396960, Control_c, 0, 64, 0
1, 397017, Note_on_c, 0, 57, 65
1, 397017, Note_on_c, 0, 49, 82
1, 397030, Note_on_c, 0, 50, 0
1, 397037, Note_on_c, 0, 57, 0
1, 397083, Control_c, 0, 64, 127
1, 397083, Control_c, 0, 64, 127
1, 397097, Note_on_c, 0, 66, 68
1, 397118, Note_on_c, 0, 66, 0
1, 397178, Note_on_c, 0, 69, 71
1, 397198, Note_on_c, 0, 69, 0
1, 397252, Control_c, 0, 64, 0
1, 397252, Control_c, 0, 64, 0
1, 397258, Note_on_c, 0, 78, 73
1, 397278, Note_on_c, 0, 78, 0
1, 397334, Control_c, 0, 64, 127
1, 397334, Control_c, 0, 64, 127
1, 397338, Note_on_c, 0, 78, 73
1, 397338, Note_on_c, 0, 48, 85
1, 397338, Note_on_c, 0, 39, 66
1, 397352, Note_on_c, 0, 42, 0
1, 397352, Note_on_c, 0, 49, 0
1, 397360, Note_on_c, 0, 78, 0
1, 397425, Note_on_c, 0, 69, 69
1, 397446, Note_on_c, 0, 69, 0
1, 397511, Control_c, 0, 64, 0
1, 397511, Note_on_c, 0, 66, 67
1, 397511, Control_c, 0, 64, 0
1, 397533, Note_on_c, 0, 66, 0
1, 397597, Note_on_c, 0, 57, 63
1, 397603, Control_c, 0, 64, 127
1, 397603, Control_c, 0, 64, 127
1, 397619, Note_on_c, 0, 57, 0
1, 397684, Control_c, 0, 64, 127
1, 397684, Control_c, 0, 64, 0
1, 397684, Note_on_c, 0, 56, 61
1, 397687, Control_c, 0, 64, 127
1, 397687, Control_c, 0, 64, 0
1, 397687, Control_c, 0, 64, 0
1, 397690, Control_c, 0, 64, 0
1, 397690, Control_c, 0, 64, 0
1, 397690, Note_on_c, 0, 40, 59
1, 397693, Note_on_c, 0, 47, 82
1, 397697, Note_on_c, 0, 48, 0
1, 397697, Note_on_c, 0, 39, 0
1, 397705, Note_on_c, 0, 56, 0
1, 397725, Control_c, 0, 64, 0
1, 397725, Control_c, 0, 64, 0
1, 397766, Control_c, 0, 64, 127
1, 397766, Control_c, 0, 64, 127
1, 397770, Note_on_c, 0, 64, 65
1, 397792, Note_on_c, 0, 64, 0
1, 397857, Note_on_c, 0, 68, 67
1, 397878, Note_on_c, 0, 68, 0
1, 397943, Note_on_c, 0, 76, 71
1, 397950, Control_c, 0, 64, 0
1, 397950, Control_c, 0, 64, 0
1, 397965, Note_on_c, 0, 76, 0
1, 398029, Note_on_c, 0, 76, 71
1, 398029, Note_on_c, 0, 45, 80
1, 398029, Note_on_c, 0, 33, 59
1, 398043, Note_on_c, 0, 40, 0
1, 398043, Note_on_c, 0, 47, 0
1, 398051, Note_on_c, 0, 76, 0
1, 398079, Control_c, 0, 64, 127
1, 398079, Control_c, 0, 64, 127
1, 398116, Note_on_c, 0, 66, 67
1, 398137, Note_on_c, 0, 66, 0
1, 398202, Note_on_c, 0, 64, 65
1, 398224, Note_on_c, 0, 64, 0
1, 398289, Note_on_c, 0, 54, 61
1, 398289, Note_on_c, 0, 44, 78
1, 398305, Note_on_c, 0, 45, 0
1, 398316, Note_on_c, 0, 54, 0
1, 398319, Control_c, 0, 64, 0
1, 398319, Control_c, 0, 64, 0
1, 398397, Note_on_c, 0, 54, 61
1, 398397, Note_on_c, 0, 42, 78
1, 398397, Note_on_c, 0, 35, 59
1, 398411, Note_on_c, 0, 33, 0
1, 398411, Note_on_c, 0, 44, 0
1, 398420, Note_on_c, 0, 54, 0
1, 398473, Control_c, 0, 64, 127
1, 398473, Control_c, 0, 64, 127
1, 398490, Note_on_c, 0, 63, 64
1, 398514, Note_on_c, 0, 63, 0
1, 398584, Note_on_c, 0, 66, 66
1, 398607, Note_on_c, 0, 66, 0
1, 398671, Control_c, 0, 64, 0
1, 398671, Control_c, 0, 64, 0
1, 398677, Note_on_c, 0, 75, 69
1, 398701, Note_on_c, 0, 75, 0
1, 398766, Control_c, 0, 64, 127
1, 398766, Control_c, 0, 64, 127
1, 398771, Note_on_c, 0, 75, 69
1, 398771, Note_on_c, 0, 45, 76
1, 398786, Note_on_c, 0, 42, 0
1, 398794, Note_on_c, 0, 75, 0
1, 398865, Note_on_c, 0, 66, 65
1, 398888, Note_on_c, 0, 66, 0
1, 398958, Note_on_c, 0, 63, 63
1, 398982, Note_on_c, 0, 63, 0
1, 399052, Note_on_c, 0, 54, 60
1, 399075, Note_on_c, 0, 54, 0
1, 399080, Control_c, 0, 64, 0
1, 399080, Control_c, 0, 64, 0
1, 399112, Control_c, 0, 64, 127
1, 399112, Control_c, 0, 64, 127
1, 399145, Control_c, 0, 64, 127
1, 399145, Note_on_c, 0, 54, 54
1, 399145, Control_c, 0, 64, 127
1, 399148, Note_on_c, 0, 45, 0
1, 399148, Control_c, 0, 64, 0
1, 399148, Control_c, 0, 64, 0
1, 399151, Note_on_c, 0, 40, 54
1, 399151, Note_on_c, 0, 45, 77
1, 399160, Note_on_c, 0, 35, 0
1, 399169, Note_on_c, 0, 54, 0
1, 399201, Control_c, 0, 64, 0
1, 399201, Control_c, 0, 64, 0
1, 399239, Note_on_c, 0, 63, 57
1, 399261, Note_on_c, 0, 63, 0
1, 399266, Control_c, 0, 64, 127
1, 399266, Control_c, 0, 64, 127
1, 399325, Note_on_c, 0, 66, 60
1, 399347, Note_on_c, 0, 66, 0
1, 399412, Note_on_c, 0, 75, 63
1, 399433, Note_on_c, 0, 75, 0
1, 399498, Note_on_c, 0, 75, 63
1, 399520, Note_on_c, 0, 75, 0
1, 399585, Note_on_c, 0, 66, 59
1, 399606, Note_on_c, 0, 66, 0
1, 399671, Note_on_c, 0, 63, 57
1, 399693, Note_on_c, 0, 63, 0
1, 399757, Note_on_c, 0, 54, 55
1, 399779, Note_on_c, 0, 54, 0
1, 399834, Control_c, 0, 64, 0
1, 399834, Control_c, 0, 64, 0
1, 399844, Note_on_c, 0, 52, 54
1, 399844, Note_on_c, 0, 44, 65
1, 399857, Note_on_c, 0, 45, 0
1, 399865, Note_on_c, 0, 52, 0
1, 399930, Note_on_c, 0, 64, 56
1, 399956, Note_on_c, 0, 64, 0
1, 399960, Control_c, 0, 64, 127
1, 399960, Control_c, 0, 64, 127
1, 400032, Note_on_c, 0, 64, 58
1, 400058, Note_on_c, 0, 64, 0
1, 400134, Note_on_c, 0, 76, 61
1, 400170, Note_on_c, 0, 76, 0
1, 400193, Control_c, 0, 64, 127
1, 400193, Control_c, 0, 64, 127
1, 400275, Note_on_c, 0, 76, 60
1, 400415, Note_on_c, 0, 76, 0
1, 400490, Control_c, 0, 64, 0
1, 400490, Control_c, 0, 64, 0
1, 400836, Control_c, 0, 64, 0
1, 400836, Control_c, 0, 64, 0
1, 400836, Control_c, 0, 64, 0
1, 400839, Note_on_c, 0, 40, 0
1, 400839, Note_on_c, 0, 44, 0
1, 401528, Note_on_c, 0, 73, 95
1, 401528, Note_on_c, 0, 76, 95
1, 401528, Note_on_c, 0, 80, 95
1, 401531, Note_on_c, 0, 85, 106
1, 401691, Note_on_c, 0, 80, 0
1, 401691, Note_on_c, 0, 73, 0
1, 401691, Note_on_c, 0, 76, 0
1, 401694, Note_on_c, 0, 85, 0
1, 401955, Note_on_c, 0, 68, 87
1, 401955, Note_on_c, 0, 73, 87
1, 401955, Note_on_c, 0, 76, 87
1, 401958, Note_on_c, 0, 80, 97
1, 402112, Note_on_c, 0, 76, 0
1, 402112, Note_on_c, 0, 68, 0
1, 402112, Note_on_c, 0, 73, 0
1, 402115, Note_on_c, 0, 80, 0
1, 402364, Control_c, 0, 64, 0
1, 402364, Note_on_c, 0, 64, 85
1, 402364, Note_on_c, 0, 68, 85
1, 402367, Note_on_c, 0, 73, 85
1, 402367, Note_on_c, 0, 76, 95
1, 402367, Control_c, 0, 64, 0
1, 402370, Control_c, 0, 64, 0
1, 402370, Note_on_c, 0, 49, 87
1, 402370, Note_on_c, 0, 52, 87
1, 402373, Note_on_c, 0, 56, 87
1, 402373, Note_on_c, 0, 61, 98
1, 402528, Note_on_c, 0, 73, 0
1, 402528, Note_on_c, 0, 64, 0
1, 402528, Note_on_c, 0, 68, 0
1, 402531, Note_on_c, 0, 76, 0
1, 402531, Note_on_c, 0, 49, 0
1, 402531, Note_on_c, 0, 52, 0
1, 402534, Note_on_c, 0, 61, 0
1, 402534, Note_on_c, 0, 56, 0
1, 402792, Note_on_c, 0, 61, 84
1, 402792, Note_on_c, 0, 64, 84
1, 402792, Note_on_c, 0, 68, 84
1, 402795, Note_on_c, 0, 73, 94
1, 402795, Note_on_c, 0, 44, 79
1, 402795, Note_on_c, 0, 49, 79
1, 402798, Note_on_c, 0, 52, 79
1, 402798, Note_on_c, 0, 56, 90
1, 402948, Note_on_c, 0, 68, 0
1, 402948, Note_on_c, 0, 61, 0
1, 402948, Note_on_c, 0, 64, 0
1, 402951, Note_on_c, 0, 73, 0
1, 402951, Note_on_c, 0, 44, 0
1, 402951, Note_on_c, 0, 49, 0
1, 402954, Note_on_c, 0, 56, 0
1, 402954, Note_on_c, 0, 52, 0
1, 403200, Control_c, 0, 64, 0
1, 403200, Note_on_c, 0, 71, 97
1, 403200, Note_on_c, 0, 73, 97
1, 403203, Note_on_c, 0, 76, 97
1, 403203, Note_on_c, 0, 83, 108
1, 403203, Control_c, 0, 64, 0
1, 403206, Control_c, 0, 64, 0
1, 403206, Note_on_c, 0, 40, 77
1, 403206, Note_on_c, 0, 45, 77
1, 403209, Note_on_c, 0, 52, 88
1, 403357, Note_on_c, 0, 76, 0
1, 403357, Note_on_c, 0, 71, 0
1, 403357, Note_on_c, 0, 73, 0
1, 403360, Note_on_c, 0, 40, 0
1, 403360, Note_on_c, 0, 83, 0
1, 403360, Note_on_c, 0, 45, 0
1, 403363, Note_on_c, 0, 52, 0
1, 403609, Note_on_c, 0, 69, 89
1, 403609, Note_on_c, 0, 73, 89
1, 403609, Note_on_c, 0, 76, 89
1, 403612, Note_on_c, 0, 81, 99
1, 403612, Note_on_c, 0, 37, 77
1, 403612, Note_on_c, 0, 45, 77
1, 403615, Note_on_c, 0, 49, 87
1, 403765, Note_on_c, 0, 76, 0
1, 403765, Note_on_c, 0, 69, 0
1, 403765, Note_on_c, 0, 73, 0
1, 403768, Note_on_c, 0, 37, 0
1, 403768, Note_on_c, 0, 81, 0
1, 403768, Note_on_c, 0, 45, 0
1, 403771, Note_on_c, 0, 49, 0
1, 404017, Note_on_c, 0, 68, 87
1, 404017, Note_on_c, 0, 73, 87
1, 404017, Note_on_c, 0, 76, 87
1, 404020, Note_on_c, 0, 80, 98
1, 404020, Note_on_c, 0, 47, 89
1, 404020, Note_on_c, 0, 52, 89
1, 404023, Note_on_c, 0, 59, 107
1, 404173, Note_on_c, 0, 76, 0
1, 404173, Note_on_c, 0, 68, 0
1, 404173, Note_on_c, 0, 73, 0
1, 404176, Note_on_c, 0, 47, 0
1, 404176, Note_on_c, 0, 80, 0
1, 404176, Note_on_c, 0, 52, 0
1, 404179, Note_on_c, 0, 59, 0
1, 404426, Note_on_c, 0, 66, 86
1, 404426, Note_on_c, 0, 69, 86
1, 404426, Note_on_c, 0, 73, 86
1, 404429, Note_on_c, 0, 78, 96
1, 404429, Note_on_c, 0, 45, 82
1, 404429, Note_on_c, 0, 52, 82
1, 404432, Note_on_c, 0, 57, 92
1, 404582, Note_on_c, 0, 73, 0
1, 404582, Note_on_c, 0, 66, 0
1, 404582, Note_on_c, 0, 69, 0
1, 404585, Note_on_c, 0, 45, 0
1, 404585, Note_on_c, 0, 78, 0
1, 404585, Note_on_c, 0, 52, 0
1, 404588, Note_on_c, 0, 57, 0
1, 404834, Control_c, 0, 64, 0
1, 404834, Note_on_c, 0, 64, 86
1, 404834, Note_on_c, 0, 68, 86
1, 404837, Note_on_c, 0, 73, 86
1, 404837, Note_on_c, 0, 76, 97
1, 404837, Control_c, 0, 64, 0
1, 404840, Control_c, 0, 64, 0
1, 404840, Note_on_c, 0, 44, 81
1, 404840, Note_on_c, 0, 49, 81
1, 404843, Note_on_c, 0, 52, 81
1, 404843, Note_on_c, 0, 56, 92
1, 404990, Note_on_c, 0, 73, 0
1, 404990, Note_on_c, 0, 64, 0
1, 404990, Note_on_c, 0, 68, 0
1, 404993, Note_on_c, 0, 76, 0
1, 404993, Note_on_c, 0, 44, 0
1, 404993, Note_on_c, 0, 49, 0
1, 404996, Note_on_c, 0, 56, 0
1, 404996, Note_on_c, 0, 52, 0
1, 405242, Note_on_c, 0, 63, 87
1, 405242, Note_on_c, 0, 68, 87
1, 405242, Note_on_c, 0, 72, 87
1, 405245, Note_on_c, 0, 75, 98
1, 405245, Note_on_c, 0, 42, 81
1, 405245, Note_on_c, 0, 44, 81
1, 405248, Note_on_c, 0, 48, 81
1, 405248, Note_on_c, 0, 51, 81
1, 405248, Note_on_c, 0, 54, 92
1, 405399, Note_on_c, 0, 72, 0
1, 405399, Note_on_c, 0, 63, 0
1, 405399, Note_on_c, 0, 68, 0
1, 405402, Note_on_c, 0, 75, 0
1, 405402, Note_on_c, 0, 42, 0
1, 405402, Note_on_c, 0, 44, 0
1, 405405, Note_on_c, 0, 54, 0
1, 405405, Note_on_c, 0, 48, 0
1, 405405, Note_on_c, 0, 51, 0
1, 405651, Note_on_c, 0, 68, 102
1, 405651, Note_on_c, 0, 73, 102
1, 405651, Note_on_c, 0, 76, 102
1, 405654, Note_on_c, 0, 80, 114
1, 405654, Note_on_c, 0, 40, 81
1, 405654, Note_on_c, 0, 44, 81
1, 405657, Note_on_c, 0, 49, 81
1, 405657, Note_on_c, 0, 52, 92
1, 405807, Note_on_c, 0, 76, 0
1, 405807, Note_on_c, 0, 68, 0
1, 405807, Note_on_c, 0, 73, 0
1, 405810, Note_on_c, 0, 80, 0
1, 405810, Note_on_c, 0, 40, 0
1, 405810, Note_on_c, 0, 44, 0
1, 405813, Note_on_c, 0, 52, 0
1, 405813, Note_on_c, 0, 49, 0
1, 406059, Note_on_c, 0, 66, 92
1, 406059, Note_on_c, 0, 68, 92
1, 406059, Note_on_c, 0, 75, 92
1, 406062, Note_on_c, 0, 78, 104
1, 406062, Note_on_c, 0, 39, 80
1, 406062, Note_on_c, 0, 44, 80
1, 406065, Note_on_c, 0, 48, 80
1, 406065, Note_on_c, 0, 51, 91
1, 406216, Note_on_c, 0, 75, 0
1, 406216, Note_on_c, 0, 66, 0
1, 406216, Note_on_c, 0, 68, 0
1, 406219, Note_on_c, 0, 78, 0
1, 406219, Note_on_c, 0, 39, 0
1, 406219, Note_on_c, 0, 44, 0
1, 406222, Note_on_c, 0, 51, 0
1, 406222, Note_on_c, 0, 48, 0
1, 406468, Control_c, 0, 64, 0
1, 406468, Note_on_c, 0, 64, 92
1, 406468, Note_on_c, 0, 68, 92
1, 406471, Note_on_c, 0, 73, 92
1, 406471, Note_on_c, 0, 76, 104
1, 406471, Control_c, 0, 64, 0
1, 406474, Control_c, 0, 64, 0
1, 406474, Note_on_c, 0, 44, 94
1, 406474, Note_on_c, 0, 49, 94
1, 406477, Note_on_c, 0, 52, 94
1, 406477, Note_on_c, 0, 56, 106
1, 406624, Note_on_c, 0, 73, 0
1, 406624, Note_on_c, 0, 64, 0
1, 406624, Note_on_c, 0, 68, 0
1, 406627, Note_on_c, 0, 76, 0
1, 406627, Note_on_c, 0, 44, 0
1, 406627, Note_on_c, 0, 49, 0
1, 406630, Note_on_c, 0, 56, 0
1, 406630, Note_on_c, 0, 52, 0
1, 406876, Note_on_c, 0, 63, 91
1, 406876, Note_on_c, 0, 68, 91
1, 406876, Note_on_c, 0, 72, 91
1, 406879, Note_on_c, 0, 75, 104
1, 406879, Note_on_c, 0, 42, 85
1, 406879, Note_on_c, 0, 44, 85
1, 406882, Note_on_c, 0, 48, 85
1, 406882, Note_on_c, 0, 51, 85
1, 406882, Note_on_c, 0, 54, 98
1, 407033, Note_on_c, 0, 72, 0
1, 407033, Note_on_c, 0, 63, 0
1, 407033, Note_on_c, 0, 68, 0
1, 407036, Note_on_c, 0, 75, 0
1, 407036, Note_on_c, 0, 42, 0
1, 407036, Note_on_c, 0, 44, 0
1, 407039, Note_on_c, 0, 54, 0
1, 407039, Note_on_c, 0, 48, 0
1, 407039, Note_on_c, 0, 51, 0
1, 407285, Note_on_c, 0, 61, 91
1, 407285, Note_on_c, 0, 64, 91
1, 407285, Note_on_c, 0, 68, 91
1, 407288, Note_on_c, 0, 73, 102
1, 407288, Note_on_c, 0, 40, 85
1, 407288, Note_on_c, 0, 44, 85
1, 407291, Note_on_c, 0, 49, 85
1, 407291, Note_on_c, 0, 52, 97
1, 407441, Note_on_c, 0, 68, 0
1, 407441, Note_on_c, 0, 61, 0
1, 407441, Note_on_c, 0, 64, 0
1, 407444, Note_on_c, 0, 73, 0
1, 407444, Note_on_c, 0, 40, 0
1, 407444, Note_on_c, 0, 44, 0
1, 407447, Note_on_c, 0, 52, 0
1, 407447, Note_on_c, 0, 49, 0
1, 407693, Note_on_c, 0, 60, 90
1, 407693, Note_on_c, 0, 63, 90
1, 407693, Note_on_c, 0, 68, 90
1, 407696, Note_on_c, 0, 72, 101
1, 407696, Note_on_c, 0, 39, 84
1, 407696, Note_on_c, 0, 44, 84
1, 407699, Note_on_c, 0, 48, 84
1, 407699, Note_on_c, 0, 51, 95
1, 407849, Note_on_c, 0, 68, 0
1, 407849, Note_on_c, 0, 60, 0
1, 407849, Note_on_c, 0, 63, 0
1, 407852, Note_on_c, 0, 72, 0
1, 407852, Note_on_c, 0, 39, 0
1, 407852, Note_on_c, 0, 44, 0
1, 407855, Note_on_c, 0, 51, 0
1, 407855, Note_on_c, 0, 48, 0
1, 408101, Control_c, 0, 64, 0
1, 408101, Note_on_c, 0, 73, 105
1, 408101, Note_on_c, 0, 76, 105
1, 408104, Note_on_c, 0, 80, 105
1, 408104, Note_on_c, 0, 85, 117
1, 408104, Control_c, 0, 64, 0
1, 408107, Control_c, 0, 64, 0
1, 408107, Note_on_c, 0, 37, 84
1, 408107, Note_on_c, 0, 44, 84
1, 408110, Note_on_c, 0, 49, 95
1, 408265, Note_on_c, 0, 80, 0
1, 408265, Note_on_c, 0, 73, 0
1, 408265, Note_on_c, 0, 76, 0
1, 408268, Note_on_c, 0, 37, 0
1, 408268, Note_on_c, 0, 85, 0
1, 408268, Note_on_c, 0, 44, 0
1, 408271, Note_on_c, 0, 49, 0
1, 408529, Note_on_c, 0, 68, 95
1, 408529, Note_on_c, 0, 75, 95
1, 408529, Note_on_c, 0, 80, 108
1, 408532, Note_on_c, 0, 36, 83
1, 408532, Note_on_c, 0, 39, 83
1, 408532, Note_on_c, 0, 44, 83
1, 408535, Note_on_c, 0, 48, 95
1, 408686, Note_on_c, 0, 80, 0
1, 408686, Note_on_c, 0, 68, 0
1, 408686, Note_on_c, 0, 75, 0
1, 408689, Note_on_c, 0, 39, 0
1, 408689, Note_on_c, 0, 36, 0
1, 408689, Note_on_c, 0, 44, 0
1, 408692, Note_on_c, 0, 48, 0
1, 408938, Note_on_c, 0, 64, 94
1, 408938, Note_on_c, 0, 68, 94
1, 408938, Note_on_c, 0, 73, 94
1, 408941, Note_on_c, 0, 76, 106
1, 408941, Note_on_c, 0, 49, 97
1, 408941, Note_on_c, 0, 52, 97
1, 408944, Note_on_c, 0, 56, 97
1, 408944, Note_on_c, 0, 61, 114
1, 409102, Note_on_c, 0, 73, 0
1, 409102, Note_on_c, 0, 64, 0
1, 409102, Note_on_c, 0, 68, 0
1, 409105, Note_on_c, 0, 76, 0
1, 409105, Note_on_c, 0, 49, 0
1, 409105, Note_on_c, 0, 52, 0
1, 409108, Note_on_c, 0, 61, 0
1, 409108, Note_on_c, 0, 56, 0
1, 409366, Note_on_c, 0, 61, 92
1, 409366, Note_on_c, 0, 64, 92
1, 409366, Note_on_c, 0, 68, 92
1, 409369, Note_on_c, 0, 73, 104
1, 409369, Note_on_c, 0, 44, 88
1, 409369, Note_on_c, 0, 49, 88
1, 409372, Note_on_c, 0, 52, 88
1, 409372, Note_on_c, 0, 56, 100
1, 409522, Note_on_c, 0, 68, 0
1, 409522, Note_on_c, 0, 61, 0
1, 409522, Note_on_c, 0, 64, 0
1, 409525, Note_on_c, 0, 73, 0
1, 409525, Note_on_c, 0, 44, 0
1, 409525, Note_on_c, 0, 49, 0
1, 409528, Note_on_c, 0, 56, 0
1, 409528, Note_on_c, 0, 52, 0
1, 409774, Control_c, 0, 64, 0
1, 409774, Note_on_c, 0, 64, 93
1, 409774, Note_on_c, 0, 69, 93
1, 409777, Note_on_c, 0, 73, 93
1, 409777, Note_on_c, 0, 76, 105
1, 409777, Control_c, 0, 64, 0
1, 409780, Control_c, 0, 64, 0
1, 409780, Note_on_c, 0, 40, 87
1, 409780, Note_on_c, 0, 45, 87
1, 409783, Note_on_c, 0, 52, 99
1, 409930, Note_on_c, 0, 73, 0
1, 409930, Note_on_c, 0, 64, 0
1, 409930, Note_on_c, 0, 69, 0
1, 409933, Note_on_c, 0, 40, 0
1, 409933, Note_on_c, 0, 76, 0
1, 409933, Note_on_c, 0, 45, 0
1, 409936, Note_on_c, 0, 52, 0
1, 410183, Note_on_c, 0, 69, 96
1, 410183, Note_on_c, 0, 73, 96
1, 410183, Note_on_c, 0, 76, 96
1, 410186, Note_on_c, 0, 81, 108
1, 410186, Note_on_c, 0, 37, 85
1, 410186, Note_on_c, 0, 45, 85
1, 410189, Note_on_c, 0, 49, 97
1, 410246, Control_c, 0, 64, 127
1, 410246, Control_c, 0, 64, 127
1, 410342, Note_on_c, 0, 76, 0
1, 410342, Note_on_c, 0, 69, 0
1, 410342, Note_on_c, 0, 73, 0
1, 410345, Note_on_c, 0, 37, 0
1, 410345, Note_on_c, 0, 81, 0
1, 410345, Note_on_c, 0, 45, 0
1, 410348, Note_on_c, 0, 49, 0
1, 410495, Note_on_c, 0, 71, 101
1, 410495, Note_on_c, 0, 83, 114
1, 410546, Note_on_c, 0, 83, 0
1, 410546, Note_on_c, 0, 71, 0
1, 410592, Note_on_c, 0, 73, 109
1, 410592, Note_on_c, 0, 76, 109
1, 410592, Note_on_c, 0, 81, 109
1, 410595, Note_on_c, 0, 85, 117
1, 410595, Note_on_c, 0, 40, 85
1, 410595, Note_on_c, 0, 45, 85
1, 410598, Note_on_c, 0, 52, 97
1, 410604, Control_c, 0, 64, 0
1, 410604, Control_c, 0, 64, 0
1, 410751, Note_on_c, 0, 76, 0
1, 410751, Note_on_c, 0, 73, 0
1, 410751, Control_c, 0, 64, 127
1, 410754, Note_on_c, 0, 85, 0
1, 410754, Note_on_c, 0, 81, 0
1, 410754, Control_c, 0, 64, 127
1, 410757, Note_on_c, 0, 52, 0
1, 410757, Note_on_c, 0, 40, 0
1, 410757, Note_on_c, 0, 45, 0
1, 410904, Note_on_c, 0, 71, 99
1, 410904, Note_on_c, 0, 83, 112
1, 410956, Note_on_c, 0, 83, 0
1, 410956, Note_on_c, 0, 71, 0
1, 410968, Control_c, 0, 64, 0
1, 410968, Control_c, 0, 64, 0
1, 411002, Note_on_c, 0, 69, 98
1, 411002, Note_on_c, 0, 73, 98
1, 411002, Note_on_c, 0, 76, 98
1, 411005, Note_on_c, 0, 81, 111
1, 411005, Note_on_c, 0, 45, 85
1, 411005, Note_on_c, 0, 52, 85
1, 411008, Note_on_c, 0, 57, 97
1, 411088, Control_c, 0, 64, 127
1, 411088, Control_c, 0, 64, 127
1, 411161, Note_on_c, 0, 76, 0
1, 411161, Note_on_c, 0, 69, 0
1, 411161, Note_on_c, 0, 73, 0
1, 411164, Note_on_c, 0, 45, 0
1, 411164, Note_on_c, 0, 81, 0
1, 411164, Note_on_c, 0, 52, 0
1, 411167, Note_on_c, 0, 57, 0
1, 411314, Note_on_c, 0, 68, 94
1, 411314, Note_on_c, 0, 80, 106
1, 411314, Note_on_c, 0, 47, 92
1, 411317, Note_on_c, 0, 59, 105
1, 411343, Control_c, 0, 64, 0
1, 411343, Control_c, 0, 64, 0
1, 411366, Note_on_c, 0, 47, 0
1, 411366, Note_on_c, 0, 68, 0
1, 411366, Note_on_c, 0, 80, 0
1, 411369, Note_on_c, 0, 59, 0
1, 411412, Control_c, 0, 64, 0
1, 411412, Control_c, 0, 64, 0
1, 411412, Note_on_c, 0, 66, 93
1, 411415, Note_on_c, 0, 70, 93
1, 411415, Note_on_c, 0, 73, 93
1, 411415, Note_on_c, 0, 76, 93
1, 411418, Note_on_c, 0, 78, 105
1, 411418, Control_c, 0, 64, 0
1, 411418, Control_c, 0, 64, 0
1, 411421, Control_c, 0, 64, 0
1, 411421, Note_on_c, 0, 49, 102
1, 411421, Note_on_c, 0, 54, 102
1, 411424, Note_on_c, 0, 58, 102
1, 411424, Note_on_c, 0, 61, 116
1, 411492, Control_c, 0, 64, 127
1, 411492, Control_c, 0, 64, 127
1, 411561, Note_on_c, 0, 73, 0
1, 411561, Note_on_c, 0, 66, 0
1, 411561, Note_on_c, 0, 70, 0
1, 411564, Note_on_c, 0, 76, 0
1, 411564, Note_on_c, 0, 78, 0
1, 411564, Note_on_c, 0, 49, 0
1, 411567, Note_on_c, 0, 61, 0
1, 411567, Note_on_c, 0, 54, 0
1, 411567, Note_on_c, 0, 58, 0
1, 411705, Note_on_c, 0, 47, 91
1, 411705, Note_on_c, 0, 59, 104
1, 411756, Note_on_c, 0, 47, 0
1, 411756, Control_c, 0, 64, 0
1, 411756, Control_c, 0, 64, 0
1, 411759, Note_on_c, 0, 59, 0
1, 411802, Note_on_c, 0, 70, 96
1, 411802, Note_on_c, 0, 73, 96
1, 411802, Note_on_c, 0, 76, 93
1, 411805, Note_on_c, 0, 78, 96
1, 411805, Note_on_c, 0, 82, 109
1, 411805, Note_on_c, 0, 46, 90
1, 411808, Note_on_c, 0, 49, 90
1, 411808, Note_on_c, 0, 54, 90
1, 411808, Note_on_c, 0, 58, 103
1, 411861, Control_c, 0, 64, 127
1, 411861, Control_c, 0, 64, 127
1, 411952, Note_on_c, 0, 76, 0
1, 411952, Note_on_c, 0, 70, 0
1, 411952, Note_on_c, 0, 73, 0
1, 411955, Note_on_c, 0, 78, 0
1, 411955, Note_on_c, 0, 82, 0
1, 411955, Note_on_c, 0, 46, 0
1, 411958, Note_on_c, 0, 58, 0
1, 411958, Note_on_c, 0, 49, 0
1, 411958, Note_on_c, 0, 54, 0
1, 412095, Note_on_c, 0, 73, 101
1, 412095, Note_on_c, 0, 85, 114
1, 412095, Note_on_c, 0, 44, 86
1, 412098, Note_on_c, 0, 56, 98
1, 412147, Note_on_c, 0, 44, 0
1, 412147, Note_on_c, 0, 73, 0
1, 412147, Note_on_c, 0, 85, 0
1, 412150, Note_on_c, 0, 56, 0
1, 412193, Note_on_c, 0, 78, 110
1, 412193, Note_on_c, 0, 85, 110
1, 412193, Note_on_c, 0, 90, 117
1, 412196, Note_on_c, 0, 42, 85
1, 412196, Note_on_c, 0, 46, 85
1, 412196, Note_on_c, 0, 49, 85
1, 412199, Note_on_c, 0, 54, 97
1, 412205, Control_c, 0, 64, 0
1, 412205, Control_c, 0, 64, 0
1, 412352, Note_on_c, 0, 85, 0
1, 412352, Note_on_c, 0, 78, 0
1, 412352, Control_c, 0, 64, 127
1, 412355, Note_on_c, 0, 42, 0
1, 412355, Note_on_c, 0, 90, 0
1, 412355, Control_c, 0, 64, 127
1, 412358, Note_on_c, 0, 54, 0
1, 412358, Note_on_c, 0, 46, 0
1, 412358, Note_on_c, 0, 49, 0
1, 412499, Note_on_c, 0, 76, 99
1, 412499, Note_on_c, 0, 88, 112
1, 412550, Note_on_c, 0, 88, 0
1, 412550, Note_on_c, 0, 76, 0
1, 412562, Control_c, 0, 64, 0
1, 412562, Control_c, 0, 64, 0
1, 412596, Note_on_c, 0, 75, 98
1, 412596, Note_on_c, 0, 78, 98
1, 412596, Note_on_c, 0, 82, 98
1, 412599, Note_on_c, 0, 87, 111
1, 412599, Note_on_c, 0, 46, 85
1, 412599, Note_on_c, 0, 49, 85
1, 412602, Note_on_c, 0, 54, 85
1, 412602, Note_on_c, 0, 58, 97
1, 412677, Control_c, 0, 64, 127
1, 412677, Control_c, 0, 64, 127
1, 412746, Note_on_c, 0, 82, 0
1, 412746, Note_on_c, 0, 75, 0
1, 412746, Note_on_c, 0, 78, 0
1, 412749, Note_on_c, 0, 87, 0
1, 412749, Note_on_c, 0, 46, 0
1, 412749, Note_on_c, 0, 49, 0
1, 412752, Note_on_c, 0, 58, 0
1, 412752, Note_on_c, 0, 54, 0
1, 412889, Note_on_c, 0, 73, 94
1, 412889, Note_on_c, 0, 85, 106
1, 412889, Note_on_c, 0, 49, 93
1, 412892, Note_on_c, 0, 61, 106
1, 412918, Control_c, 0, 64, 0
1, 412918, Control_c, 0, 64, 0
1, 412941, Note_on_c, 0, 49, 0
1, 412941, Note_on_c, 0, 73, 0
1, 412941, Note_on_c, 0, 85, 0
1, 412944, Note_on_c, 0, 61, 0
1, 412987, Control_c, 0, 64, 0
1, 412987, Note_on_c, 0, 69, 93
1, 412987, Note_on_c, 0, 71, 93
1, 412990, Note_on_c, 0, 75, 93
1, 412990, Note_on_c, 0, 78, 93
1, 412990, Note_on_c, 0, 81, 93
1, 412993, Note_on_c, 0, 83, 105
1, 412993, Control_c, 0, 64, 0
1, 412993, Control_c, 0, 64, 0
1, 412996, Note_on_c, 0, 54, 103
1, 412996, Note_on_c, 0, 59, 103
1, 412996, Note_on_c, 0, 63, 103
1, 412999, Note_on_c, 0, 66, 117
1, 413107, Control_c, 0, 64, 127
1, 413107, Control_c, 0, 64, 127
1, 413143, Note_on_c, 0, 75, 0
1, 413143, Note_on_c, 0, 69, 0
1, 413143, Note_on_c, 0, 71, 0
1, 413146, Note_on_c, 0, 78, 0
1, 413146, Note_on_c, 0, 81, 0
1, 413146, Note_on_c, 0, 83, 0
1, 413149, Note_on_c, 0, 54, 0
1, 413149, Note_on_c, 0, 59, 0
1, 413149, Note_on_c, 0, 63, 0
1, 413152, Note_on_c, 0, 66, 0
1, 413293, Note_on_c, 0, 52, 92
1, 413293, Note_on_c, 0, 64, 106
1, 413348, Note_on_c, 0, 52, 0
1, 413348, Control_c, 0, 64, 0
1, 413348, Control_c, 0, 64, 0
1, 413351, Note_on_c, 0, 64, 0
1, 413395, Note_on_c, 0, 79, 101
1, 413395, Note_on_c, 0, 83, 101
1, 413395, Note_on_c, 0, 87, 101
1, 413398, Note_on_c, 0, 91, 113
1, 413398, Note_on_c, 0, 51, 91
1, 413398, Note_on_c, 0, 55, 91
1, 413401, Note_on_c, 0, 59, 91
1, 413401, Note_on_c, 0, 63, 104
1, 413519, Control_c, 0, 64, 127
1, 413519, Control_c, 0, 64, 127
1, 413552, Note_on_c, 0, 87, 0
1, 413552, Note_on_c, 0, 79, 0
1, 413552, Note_on_c, 0, 83, 0
1, 413555, Note_on_c, 0, 91, 0
1, 413654, Note_on_c, 0, 51, 0
1, 413654, Note_on_c, 0, 55, 0
1, 413654, Note_on_c, 0, 59, 0
1, 413657, Note_on_c, 0, 63, 0
1, 413702, Note_on_c, 0, 49, 86
1, 413702, Note_on_c, 0, 61, 98
1, 413756, Note_on_c, 0, 61, 0
1, 413756, Note_on_c, 0, 49, 0
1, 413767, Control_c, 0, 64, 0
1, 413767, Control_c, 0, 64, 0
1, 413804, Note_on_c, 0, 80, 101
1, 413804, Note_on_c, 0, 83, 101
1, 413804, Note_on_c, 0, 88, 101
1, 413807, Note_on_c, 0, 92, 113
1, 413807, Note_on_c, 0, 47, 85
1, 413807, Note_on_c, 0, 52, 85
1, 413810, Note_on_c, 0, 56, 85
1, 413810, Note_on_c, 0, 59, 97
1, 413960, Note_on_c, 0, 88, 0
1, 413960, Note_on_c, 0, 80, 0
1, 413960, Note_on_c, 0, 83, 0
1, 413963, Note_on_c, 0, 92, 0
1, 413963, Note_on_c, 0, 47, 0
1, 413963, Note_on_c, 0, 52, 0
1, 413966, Note_on_c, 0, 59, 0
1, 413966, Note_on_c, 0, 56, 0
1, 414212, Note_on_c, 0, 55, 93
1, 414212, Note_on_c, 0, 61, 93
1, 414212, Note_on_c, 0, 64, 93
1, 414215, Note_on_c, 0, 67, 105
1, 414369, Note_on_c, 0, 64, 0
1, 414369, Note_on_c, 0, 55, 0
1, 414369, Note_on_c, 0, 61, 0
1, 414372, Note_on_c, 0, 67, 0
1, 414621, Control_c, 0, 64, 0
1, 414621, Note_on_c, 0, 73, 95
1, 414621, Note_on_c, 0, 76, 95
1, 414624, Note_on_c, 0, 80, 95
1, 414624, Note_on_c, 0, 85, 107
1, 414624, Control_c, 0, 64, 0
1, 414627, Control_c, 0, 64, 0
1, 414627, Note_on_c, 0, 56, 84
1, 414627, Note_on_c, 0, 61, 84
1, 414630, Note_on_c, 0, 64, 84
1, 414630, Note_on_c, 0, 68, 96
1, 414835, Note_on_c, 0, 80, 0
1, 414835, Note_on_c, 0, 73, 0
1, 414835, Note_on_c, 0, 76, 0
1, 414838, Note_on_c, 0, 85, 0
1, 414838, Note_on_c, 0, 56, 0
1, 414838, Note_on_c, 0, 61, 0
1, 414841, Note_on_c, 0, 68, 0
1, 414841, Note_on_c, 0, 64, 0
1, 415049, Note_on_c, 0, 68, 87
1, 415049, Note_on_c, 0, 73, 87
1, 415049, Note_on_c, 0, 76, 87
1, 415052, Note_on_c, 0, 80, 99
1, 415253, Note_on_c, 0, 76, 0
1, 415253, Note_on_c, 0, 68, 0
1, 415253, Note_on_c, 0, 73, 0
1, 415256, Note_on_c, 0, 80, 0
1, 415457, Control_c, 0, 64, 0
1, 415457, Note_on_c, 0, 64, 85
1, 415457, Note_on_c, 0, 68, 85
1, 415460, Note_on_c, 0, 73, 85
1, 415460, Note_on_c, 0, 76, 95
1, 415460, Control_c, 0, 64, 0
1, 415463, Control_c, 0, 64, 0
1, 415463, Note_on_c, 0, 49, 87
1, 415463, Note_on_c, 0, 52, 87
1, 415466, Note_on_c, 0, 56, 87
1, 415466, Note_on_c, 0, 61, 98
1, 415621, Note_on_c, 0, 73, 0
1, 415621, Note_on_c, 0, 64, 0
1, 415621, Note_on_c, 0, 68, 0
1, 415624, Note_on_c, 0, 76, 0
1, 415624, Note_on_c, 0, 49, 0
1, 415624, Note_on_c, 0, 52, 0
1, 415627, Note_on_c, 0, 61, 0
1, 415627, Note_on_c, 0, 56, 0
1, 415885, Note_on_c, 0, 61, 84
1, 415885, Note_on_c, 0, 64, 84
1, 415885, Note_on_c, 0, 68, 84
1, 415888, Note_on_c, 0, 73, 94
1, 415888, Note_on_c, 0, 44, 79
1, 415888, Note_on_c, 0, 49, 79
1, 415891, Note_on_c, 0, 52, 79
1, 415891, Note_on_c, 0, 56, 90
1, 416041, Note_on_c, 0, 68, 0
1, 416041, Note_on_c, 0, 61, 0
1, 416041, Note_on_c, 0, 64, 0
1, 416044, Note_on_c, 0, 73, 0
1, 416044, Note_on_c, 0, 44, 0
1, 416044, Note_on_c, 0, 49, 0
1, 416047, Note_on_c, 0, 56, 0
1, 416047, Note_on_c, 0, 52, 0
1, 416293, Control_c, 0, 64, 0
1, 416293, Note_on_c, 0, 71, 97
1, 416293, Note_on_c, 0, 73, 97
1, 416296, Note_on_c, 0, 76, 97
1, 416296, Note_on_c, 0, 83, 108
1, 416296, Control_c, 0, 64, 0
1, 416299, Control_c, 0, 64, 0
1, 416299, Note_on_c, 0, 40, 77
1, 416299, Note_on_c, 0, 45, 77
1, 416302, Note_on_c, 0, 52, 88
1, 416450, Note_on_c, 0, 76, 0
1, 416450, Note_on_c, 0, 71, 0
1, 416450, Note_on_c, 0, 73, 0
1, 416453, Note_on_c, 0, 40, 0
1, 416453, Note_on_c, 0, 83, 0
1, 416453, Note_on_c, 0, 45, 0
1, 416456, Note_on_c, 0, 52, 0
1, 416702, Note_on_c, 0, 69, 89
1, 416702, Note_on_c, 0, 73, 89
1, 416702, Note_on_c, 0, 76, 89
1, 416705, Note_on_c, 0, 81, 99
1, 416705, Note_on_c, 0, 37, 77
1, 416705, Note_on_c, 0, 45, 77
1, 416708, Note_on_c, 0, 49, 87
1, 416858, Note_on_c, 0, 76, 0
1, 416858, Note_on_c, 0, 69, 0
1, 416858, Note_on_c, 0, 73, 0
1, 416861, Note_on_c, 0, 37, 0
1, 416861, Note_on_c, 0, 81, 0
1, 416861, Note_on_c, 0, 45, 0
1, 416864, Note_on_c, 0, 49, 0
1, 417110, Note_on_c, 0, 68, 87
1, 417110, Note_on_c, 0, 73, 87
1, 417110, Note_on_c, 0, 76, 87
1, 417113, Note_on_c, 0, 80, 98
1, 417113, Note_on_c, 0, 47, 89
1, 417113, Note_on_c, 0, 52, 89
1, 417116, Note_on_c, 0, 59, 107
1, 417267, Note_on_c, 0, 76, 0
1, 417267, Note_on_c, 0, 68, 0
1, 417267, Note_on_c, 0, 73, 0
1, 417270, Note_on_c, 0, 47, 0
1, 417270, Note_on_c, 0, 80, 0
1, 417270, Note_on_c, 0, 52, 0
1, 417273, Note_on_c, 0, 59, 0
1, 417519, Note_on_c, 0, 66, 86
1, 417519, Note_on_c, 0, 69, 86
1, 417519, Note_on_c, 0, 73, 86
1, 417522, Note_on_c, 0, 78, 96
1, 417522, Note_on_c, 0, 45, 82
1, 417522, Note_on_c, 0, 52, 82
1, 417525, Note_on_c, 0, 57, 92
1, 417675, Note_on_c, 0, 73, 0
1, 417675, Note_on_c, 0, 66, 0
1, 417675, Note_on_c, 0, 69, 0
1, 417678, Note_on_c, 0, 45, 0
1, 417678, Note_on_c, 0, 78, 0
1, 417678, Note_on_c, 0, 52, 0
1, 417681, Note_on_c, 0, 57, 0
1, 417927, Control_c, 0, 64, 0
1, 417927, Note_on_c, 0, 64, 86
1, 417927, Note_on_c, 0, 68, 86
1, 417930, Note_on_c, 0, 73, 86
1, 417930, Note_on_c, 0, 76, 97
1, 417930, Control_c, 0, 64, 0
1, 417933, Control_c, 0, 64, 0
1, 417933, Note_on_c, 0, 44, 81
1, 417933, Note_on_c, 0, 49, 81
1, 417936, Note_on_c, 0, 52, 81
1, 417936, Note_on_c, 0, 56, 92
1, 418083, Note_on_c, 0, 73, 0
1, 418083, Note_on_c, 0, 64, 0
1, 418083, Note_on_c, 0, 68, 0
1, 418086, Note_on_c, 0, 76, 0
1, 418086, Note_on_c, 0, 44, 0
1, 418086, Note_on_c, 0, 49, 0
1, 418089, Note_on_c, 0, 56, 0
1, 418089, Note_on_c, 0, 52, 0
1, 418335, Note_on_c, 0, 63, 87
1, 418335, Note_on_c, 0, 68, 87
1, 418335, Note_on_c, 0, 72, 87
1, 418338, Note_on_c, 0, 75, 98
1, 418338, Note_on_c, 0, 42, 81
1, 418338, Note_on_c, 0, 44, 81
1, 418341, Note_on_c, 0, 48, 81
1, 418341, Note_on_c, 0, 51, 81
1, 418341, Note_on_c, 0, 54, 92
1, 418492, Note_on_c, 0, 72, 0
1, 418492, Note_on_c, 0, 63, 0
1, 418492, Note_on_c, 0, 68, 0
1, 418495, Note_on_c, 0, 75, 0
1, 418495, Note_on_c, 0, 42, 0
1, 418495, Note_on_c, 0, 44, 0
1, 418498, Note_on_c, 0, 54, 0
1, 418498, Note_on_c, 0, 48, 0
1, 418498, Note_on_c, 0, 51, 0
1, 418744, Note_on_c, 0, 68, 102
1, 418744, Note_on_c, 0, 73, 102
1, 418744, Note_on_c, 0, 76, 102
1, 418747, Note_on_c, 0, 80, 114
1, 418747, Note_on_c, 0, 40, 81
1, 418747, Note_on_c, 0, 44, 81
1, 418750, Note_on_c, 0, 49, 81
1, 418750, Note_on_c, 0, 52, 92
1, 418900, Note_on_c, 0, 76, 0
1, 418900, Note_on_c, 0, 68, 0
1, 418900, Note_on_c, 0, 73, 0
1, 418903, Note_on_c, 0, 80, 0
1, 418903, Note_on_c, 0, 40, 0
1, 418903, Note_on_c, 0, 44, 0
1, 418906, Note_on_c, 0, 52, 0
1, 418906, Note_on_c, 0, 49, 0
1, 419152, Note_on_c, 0, 66, 92
1, 419152, Note_on_c, 0, 68, 92
1, 419152, Note_on_c, 0, 75, 92
1, 419155, Note_on_c, 0, 78, 104
1, 419155, Note_on_c, 0, 39, 80
1, 419155, Note_on_c, 0, 44, 80
1, 419158, Note_on_c, 0, 48, 80
1, 419158, Note_on_c, 0, 51, 91
1, 419309, Note_on_c, 0, 75, 0
1, 419309, Note_on_c, 0, 66, 0
1, 419309, Note_on_c, 0, 68, 0
1, 419312, Note_on_c, 0, 78, 0
1, 419312, Note_on_c, 0, 39, 0
1, 419312, Note_on_c, 0, 44, 0
1, 419315, Note_on_c, 0, 51, 0
1, 419315, Note_on_c, 0, 48, 0
1, 419561, Control_c, 0, 64, 0
1, 419561, Note_on_c, 0, 64, 92
1, 419561, Note_on_c, 0, 68, 92
1, 419564, Note_on_c, 0, 73, 92
1, 419564, Note_on_c, 0, 76, 104
1, 419564, Control_c, 0, 64, 0
1, 419567, Control_c, 0, 64, 0
1, 419567, Note_on_c, 0, 44, 94
1, 419567, Note_on_c, 0, 49, 94
1, 419570, Note_on_c, 0, 52, 94
1, 419570, Note_on_c, 0, 56, 106
1, 419717, Note_on_c, 0, 73, 0
1, 419717, Note_on_c, 0, 64, 0
1, 419717, Note_on_c, 0, 68, 0
1, 419720, Note_on_c, 0, 76, 0
1, 419720, Note_on_c, 0, 44, 0
1, 419720, Note_on_c, 0, 49, 0
1, 419723, Note_on_c, 0, 56, 0
1, 419723, Note_on_c, 0, 52, 0
1, 419969, Note_on_c, 0, 63, 91
1, 419969, Note_on_c, 0, 68, 91
1, 419969, Note_on_c, 0, 72, 91
1, 419972, Note_on_c, 0, 75, 104
1, 419972, Note_on_c, 0, 42, 85
1, 419972, Note_on_c, 0, 44, 85
1, 419975, Note_on_c, 0, 48, 85
1, 419975, Note_on_c, 0, 51, 85
1, 419975, Note_on_c, 0, 54, 98
1, 420126, Note_on_c, 0, 72, 0
1, 420126, Note_on_c, 0, 63, 0
1, 420126, Note_on_c, 0, 68, 0
1, 420129, Note_on_c, 0, 75, 0
1, 420129, Note_on_c, 0, 42, 0
1, 420129, Note_on_c, 0, 44, 0
1, 420132, Note_on_c, 0, 54, 0
1, 420132, Note_on_c, 0, 48, 0
1, 420132, Note_on_c, 0, 51, 0
1, 420378, Note_on_c, 0, 61, 91
1, 420378, Note_on_c, 0, 64, 91
1, 420378, Note_on_c, 0, 68, 91
1, 420381, Note_on_c, 0, 73, 102
1, 420381, Note_on_c, 0, 40, 85
1, 420381, Note_on_c, 0, 44, 85
1, 420384, Note_on_c, 0, 49, 85
1, 420384, Note_on_c, 0, 52, 97
1, 420534, Note_on_c, 0, 68, 0
1, 420534, Note_on_c, 0, 61, 0
1, 420534, Note_on_c, 0, 64, 0
1, 420537, Note_on_c, 0, 73, 0
1, 420537, Note_on_c, 0, 40, 0
1, 420537, Note_on_c, 0, 44, 0
1, 420540, Note_on_c, 0, 52, 0
1, 420540, Note_on_c, 0, 49, 0
1, 420786, Note_on_c, 0, 60, 90
1, 420786, Note_on_c, 0, 63, 90
1, 420786, Note_on_c, 0, 68, 90
1, 420789, Note_on_c, 0, 72, 101
1, 420789, Note_on_c, 0, 39, 84
1, 420789, Note_on_c, 0, 44, 84
1, 420792, Note_on_c, 0, 48, 84
1, 420792, Note_on_c, 0, 51, 95
1, 420942, Note_on_c, 0, 68, 0
1, 420942, Note_on_c, 0, 60, 0
1, 420942, Note_on_c, 0, 63, 0
1, 420945, Note_on_c, 0, 72, 0
1, 420945, Note_on_c, 0, 39, 0
1, 420945, Note_on_c, 0, 44, 0
1, 420948, Note_on_c, 0, 51, 0
1, 420948, Note_on_c, 0, 48, 0
1, 421195, Control_c, 0, 64, 0
1, 421195, Note_on_c, 0, 73, 105
1, 421195, Note_on_c, 0, 76, 105
1, 421198, Note_on_c, 0, 80, 105
1, 421198, Note_on_c, 0, 85, 117
1, 421198, Control_c, 0, 64, 0
1, 421201, Control_c, 0, 64, 0
1, 421201, Note_on_c, 0, 37, 84
1, 421201, Note_on_c, 0, 44, 84
1, 421204, Note_on_c, 0, 49, 95
1, 421358, Note_on_c, 0, 80, 0
1, 421358, Note_on_c, 0, 73, 0
1, 421358, Note_on_c, 0, 76, 0
1, 421361, Note_on_c, 0, 37, 0
1, 421361, Note_on_c, 0, 85, 0
1, 421361, Note_on_c, 0, 44, 0
1, 421364, Note_on_c, 0, 49, 0
1, 421622, Note_on_c, 0, 68, 95
1, 421622, Note_on_c, 0, 75, 95
1, 421622, Note_on_c, 0, 80, 108
1, 421625, Note_on_c, 0, 36, 83
1, 421625, Note_on_c, 0, 39, 83
1, 421625, Note_on_c, 0, 44, 83
1, 421628, Note_on_c, 0, 48, 95
1, 421779, Note_on_c, 0, 80, 0
1, 421779, Note_on_c, 0, 68, 0
1, 421779, Note_on_c, 0, 75, 0
1, 421782, Note_on_c, 0, 39, 0
1, 421782, Note_on_c, 0, 36, 0
1, 421782, Note_on_c, 0, 44, 0
1, 421785, Note_on_c, 0, 48, 0
1, 422031, Note_on_c, 0, 64, 94
1, 422031, Note_on_c, 0, 68, 94
1, 422031, Note_on_c, 0, 73, 94
1, 422034, Note_on_c, 0, 76, 106
1, 422034, Note_on_c, 0, 49, 97
1, 422034, Note_on_c, 0, 52, 97
1, 422037, Note_on_c, 0, 56, 97
1, 422037, Note_on_c, 0, 61, 114
1, 422195, Note_on_c, 0, 73, 0
1, 422195, Note_on_c, 0, 64, 0
1, 422195, Note_on_c, 0, 68, 0
1, 422198, Note_on_c, 0, 76, 0
1, 422198, Note_on_c, 0, 49, 0
1, 422198, Note_on_c, 0, 52, 0
1, 422201, Note_on_c, 0, 61, 0
1, 422201, Note_on_c, 0, 56, 0
1, 422459, Note_on_c, 0, 61, 92
1, 422459, Note_on_c, 0, 64, 92
1, 422459, Note_on_c, 0, 68, 92
1, 422462, Note_on_c, 0, 73, 104
1, 422462, Note_on_c, 0, 44, 88
1, 422462, Note_on_c, 0, 49, 88
1, 422465, Note_on_c, 0, 52, 88
1, 422465, Note_on_c, 0, 56, 100
1, 422615, Note_on_c, 0, 68, 0
1, 422615, Note_on_c, 0, 61, 0
1, 422615, Note_on_c, 0, 64, 0
1, 422618, Note_on_c, 0, 73, 0
1, 422618, Note_on_c, 0, 44, 0
1, 422618, Note_on_c, 0, 49, 0
1, 422621, Note_on_c, 0, 56, 0
1, 422621, Note_on_c, 0, 52, 0
1, 422867, Control_c, 0, 64, 0
1, 422867, Note_on_c, 0, 64, 93
1, 422867, Note_on_c, 0, 69, 93
1, 422870, Note_on_c, 0, 73, 93
1, 422870, Note_on_c, 0, 76, 105
1, 422870, Control_c, 0, 64, 0
1, 422873, Control_c, 0, 64, 0
1, 422873, Note_on_c, 0, 40, 87
1, 422873, Note_on_c, 0, 45, 87
1, 422876, Note_on_c, 0, 52, 99
1, 423024, Note_on_c, 0, 73, 0
1, 423024, Note_on_c, 0, 64, 0
1, 423024, Note_on_c, 0, 69, 0
1, 423027, Note_on_c, 0, 40, 0
1, 423027, Note_on_c, 0, 76, 0
1, 423027, Note_on_c, 0, 45, 0
1, 423030, Note_on_c, 0, 52, 0
1, 423276, Note_on_c, 0, 69, 96
1, 423276, Note_on_c, 0, 73, 96
1, 423276, Note_on_c, 0, 76, 96
1, 423279, Note_on_c, 0, 81, 108
1, 423279, Note_on_c, 0, 37, 85
1, 423279, Note_on_c, 0, 45, 85
1, 423282, Note_on_c, 0, 49, 97
1, 423339, Control_c, 0, 64, 127
1, 423339, Control_c, 0, 64, 127
1, 423435, Note_on_c, 0, 76, 0
1, 423435, Note_on_c, 0, 69, 0
1, 423435, Note_on_c, 0, 73, 0
1, 423438, Note_on_c, 0, 37, 0
1, 423438, Note_on_c, 0, 81, 0
1, 423438, Note_on_c, 0, 45, 0
1, 423441, Note_on_c, 0, 49, 0
1, 423588, Note_on_c, 0, 71, 101
1, 423588, Note_on_c, 0, 83, 114
1, 423640, Note_on_c, 0, 83, 0
1, 423640, Note_on_c, 0, 71, 0
1, 423685, Note_on_c, 0, 73, 109
1, 423685, Note_on_c, 0, 76, 109
1, 423685, Note_on_c, 0, 81, 109
1, 423688, Note_on_c, 0, 85, 117
1, 423688, Note_on_c, 0, 40, 85
1, 423688, Note_on_c, 0, 45, 85
1, 423691, Note_on_c, 0, 52, 97
1, 423697, Control_c, 0, 64, 0
1, 423697, Control_c, 0, 64, 0
1, 423845, Note_on_c, 0, 76, 0
1, 423845, Note_on_c, 0, 73, 0
1, 423845, Control_c, 0, 64, 127
1, 423848, Note_on_c, 0, 85, 0
1, 423848, Note_on_c, 0, 81, 0
1, 423848, Control_c, 0, 64, 127
1, 423851, Note_on_c, 0, 52, 0
1, 423851, Note_on_c, 0, 40, 0
1, 423851, Note_on_c, 0, 45, 0
1, 423997, Note_on_c, 0, 71, 99
1, 423997, Note_on_c, 0, 83, 112
1, 424049, Note_on_c, 0, 83, 0
1, 424049, Note_on_c, 0, 71, 0
1, 424061, Control_c, 0, 64, 0
1, 424061, Control_c, 0, 64, 0
1, 424095, Note_on_c, 0, 69, 98
1, 424095, Note_on_c, 0, 73, 98
1, 424095, Note_on_c, 0, 76, 98
1, 424098, Note_on_c, 0, 81, 111
1, 424098, Note_on_c, 0, 45, 85
1, 424098, Note_on_c, 0, 52, 85
1, 424101, Note_on_c, 0, 57, 97
1, 424181, Control_c, 0, 64, 127
1, 424181, Control_c, 0, 64, 127
1, 424254, Note_on_c, 0, 76, 0
1, 424254, Note_on_c, 0, 69, 0
1, 424254, Note_on_c, 0, 73, 0
1, 424257, Note_on_c, 0, 45, 0
1, 424257, Note_on_c, 0, 81, 0
1, 424257, Note_on_c, 0, 52, 0
1, 424260, Note_on_c, 0, 57, 0
1, 424407, Note_on_c, 0, 68, 94
1, 424407, Note_on_c, 0, 80, 106
1, 424407, Note_on_c, 0, 47, 92
1, 424410, Note_on_c, 0, 59, 105
1, 424436, Control_c, 0, 64, 0
1, 424436, Control_c, 0, 64, 0
1, 424459, Note_on_c, 0, 47, 0
1, 424459, Note_on_c, 0, 68, 0
1, 424459, Note_on_c, 0, 80, 0
1, 424462, Note_on_c, 0, 59, 0
1, 424505, Control_c, 0, 64, 0
1, 424505, Control_c, 0, 64, 0
1, 424505, Note_on_c, 0, 66, 93
1, 424508, Note_on_c, 0, 70, 93
1, 424508, Note_on_c, 0, 73, 93
1, 424508, Note_on_c, 0, 76, 93
1, 424511, Note_on_c, 0, 78, 105
1, 424511, Control_c, 0, 64, 0
1, 424511, Control_c, 0, 64, 0
1, 424514, Control_c, 0, 64, 0
1, 424514, Note_on_c, 0, 49, 102
1, 424514, Note_on_c, 0, 54, 102
1, 424517, Note_on_c, 0, 58, 102
1, 424517, Note_on_c, 0, 61, 116
1, 424585, Control_c, 0, 64, 127
1, 424585, Control_c, 0, 64, 127
1, 424654, Note_on_c, 0, 73, 0
1, 424654, Note_on_c, 0, 66, 0
1, 424654, Note_on_c, 0, 70, 0
1, 424657, Note_on_c, 0, 76, 0
1, 424657, Note_on_c, 0, 78, 0
1, 424657, Note_on_c, 0, 49, 0
1, 424660, Note_on_c, 0, 61, 0
1, 424660, Note_on_c, 0, 54, 0
1, 424660, Note_on_c, 0, 58, 0
1, 424798, Note_on_c, 0, 47, 91
1, 424798, Note_on_c, 0, 59, 104
1, 424850, Note_on_c, 0, 47, 0
1, 424850, Control_c, 0, 64, 0
1, 424850, Control_c, 0, 64, 0
1, 424853, Note_on_c, 0, 59, 0
1, 424895, Note_on_c, 0, 70, 96
1, 424895, Note_on_c, 0, 73, 96
1, 424895, Note_on_c, 0, 76, 93
1, 424898, Note_on_c, 0, 78, 96
1, 424898, Note_on_c, 0, 82, 109
1, 424898, Note_on_c, 0, 46, 90
1, 424901, Note_on_c, 0, 49, 90
1, 424901, Note_on_c, 0, 54, 90
1, 424901, Note_on_c, 0, 58, 103
1, 424954, Control_c, 0, 64, 127
1, 424954, Control_c, 0, 64, 127
1, 425045, Note_on_c, 0, 76, 0
1, 425045, Note_on_c, 0, 70, 0
1, 425045, Note_on_c, 0, 73, 0
1, 425048, Note_on_c, 0, 78, 0
1, 425048, Note_on_c, 0, 82, 0
1, 425048, Note_on_c, 0, 46, 0
1, 425051, Note_on_c, 0, 58, 0
1, 425051, Note_on_c, 0, 49, 0
1, 425051, Note_on_c, 0, 54, 0
1, 425188, Note_on_c, 0, 73, 101
1, 425188, Note_on_c, 0, 85, 114
1, 425188, Note_on_c, 0, 44, 86
1, 425191, Note_on_c, 0, 56, 98
1, 425240, Note_on_c, 0, 44, 0
1, 425240, Note_on_c, 0, 73, 0
1, 425240, Note_on_c, 0, 85, 0
1, 425243, Note_on_c, 0, 56, 0
1, 425286, Note_on_c, 0, 78, 110
1, 425286, Note_on_c, 0, 85, 110
1, 425286, Note_on_c, 0, 90, 117
1, 425289, Note_on_c, 0, 42, 85
1, 425289, Note_on_c, 0, 46, 85
1, 425289, Note_on_c, 0, 49, 85
1, 425292, Note_on_c, 0, 54, 97
1, 425298, Control_c, 0, 64, 0
1, 425298, Control_c, 0, 64, 0
1, 425445, Note_on_c, 0, 85, 0
1, 425445, Note_on_c, 0, 78, 0
1, 425445, Control_c, 0, 64, 127
1, 425448, Note_on_c, 0, 42, 0
1, 425448, Note_on_c, 0, 90, 0
1, 425448, Control_c, 0, 64, 127
1, 425451, Note_on_c, 0, 54, 0
1, 425451, Note_on_c, 0, 46, 0
1, 425451, Note_on_c, 0, 49, 0
1, 425592, Note_on_c, 0, 76, 99
1, 425592, Note_on_c, 0, 88, 112
1, 425644, Note_on_c, 0, 88, 0
1, 425644, Note_on_c, 0, 76, 0
1, 425655, Control_c, 0, 64, 0
1, 425655, Control_c, 0, 64, 0
1, 425689, Note_on_c, 0, 75, 98
1, 425689, Note_on_c, 0, 78, 98
1, 425689, Note_on_c, 0, 82, 98
1, 425692, Note_on_c, 0, 87, 111
1, 425692, Note_on_c, 0, 46, 85
1, 425692, Note_on_c, 0, 49, 85
1, 425695, Note_on_c, 0, 54, 85
1, 425695, Note_on_c, 0, 58, 97
1, 425770, Control_c, 0, 64, 127
1, 425770, Control_c, 0, 64, 127
1, 425839, Note_on_c, 0, 82, 0
1, 425839, Note_on_c, 0, 75, 0
1, 425839, Note_on_c, 0, 78, 0
1, 425842, Note_on_c, 0, 87, 0
1, 425842, Note_on_c, 0, 46, 0
1, 425842, Note_on_c, 0, 49, 0
1, 425845, Note_on_c, 0, 58, 0
1, 425845, Note_on_c, 0, 54, 0
1, 425982, Note_on_c, 0, 73, 94
1, 425982, Note_on_c, 0, 85, 106
1, 425982, Note_on_c, 0, 49, 93
1, 425985, Note_on_c, 0, 61, 106
1, 426011, Control_c, 0, 64, 0
1, 426011, Control_c, 0, 64, 0
1, 426034, Note_on_c, 0, 49, 0
1, 426034, Note_on_c, 0, 73, 0
1, 426034, Note_on_c, 0, 85, 0
1, 426037, Note_on_c, 0, 61, 0
1, 426080, Control_c, 0, 64, 0
1, 426080, Control_c, 0, 64, 0
1, 426080, Note_on_c, 0, 69, 93
1, 426083, Note_on_c, 0, 71, 93
1, 426083, Note_on_c, 0, 75, 93
1, 426083, Note_on_c, 0, 78, 93
1, 426086, Note_on_c, 0, 81, 93
1, 426086, Note_on_c, 0, 83, 105
1, 426086, Control_c, 0, 64, 0
1, 426089, Control_c, 0, 64, 0
1, 426089, Control_c, 0, 64, 0
1, 426089, Control_c, 0, 64, 0
1, 426092, Control_c, 0, 64, 0
1, 426092, Note_on_c, 0, 54, 93
1, 426092, Note_on_c, 0, 59, 93
1, 426095, Note_on_c, 0, 63, 93
1, 426095, Note_on_c, 0, 66, 105
1, 426136, Control_c, 0, 64, 127
1, 426136, Control_c, 0, 64, 127
1, 426136, Control_c, 0, 64, 127
1, 426195, Control_c, 0, 64, 127
1, 426195, Control_c, 0, 64, 127
1, 426195, Control_c, 0, 64, 127
1, 426230, Note_on_c, 0, 75, 0
1, 426230, Note_on_c, 0, 69, 0
1, 426230, Note_on_c, 0, 71, 0
1, 426233, Note_on_c, 0, 78, 0
1, 426233, Note_on_c, 0, 81, 0
1, 426233, Note_on_c, 0, 83, 0
1, 426236, Note_on_c, 0, 54, 0
1, 426236, Note_on_c, 0, 59, 0
1, 426236, Note_on_c, 0, 63, 0
1, 426239, Note_on_c, 0, 66, 0
1, 426289, Control_c, 0, 64, 0
1, 426289, Control_c, 0, 64, 0
1, 426289, Control_c, 0, 64, 0
1, 426373, Note_on_c, 0, 52, 85
1, 426373, Note_on_c, 0, 64, 97
1, 426425, Control_c, 0, 64, 0
1, 426425, Control_c, 0, 64, 0
1, 426425, Control_c, 0, 64, 0
1, 426428, Note_on_c, 0, 64, 0
1, 426428, Note_on_c, 0, 52, 0
1, 426471, Note_on_c, 0, 67, 101
1, 426471, Note_on_c, 0, 71, 101
1, 426471, Note_on_c, 0, 75, 101
1, 426474, Note_on_c, 0, 79, 113
1, 426474, Note_on_c, 0, 51, 85
1, 426474, Note_on_c, 0, 55, 85
1, 426477, Note_on_c, 0, 59, 85
1, 426477, Note_on_c, 0, 63, 97
1, 426535, Control_c, 0, 64, 127
1, 426535, Control_c, 0, 64, 127
1, 426535, Control_c, 0, 64, 127
1, 426589, Control_c, 0, 64, 127
1, 426589, Control_c, 0, 64, 127
1, 426589, Control_c, 0, 64, 127
1, 426620, Note_on_c, 0, 75, 0
1, 426620, Note_on_c, 0, 67, 0
1, 426620, Note_on_c, 0, 71, 0
1, 426623, Note_on_c, 0, 79, 0
1, 426698, Control_c, 0, 64, 0
1, 426698, Control_c, 0, 64, 0
1, 426698, Control_c, 0, 64, 0
1, 426718, Note_on_c, 0, 51, 0
1, 426718, Note_on_c, 0, 55, 0
1, 426718, Note_on_c, 0, 59, 0
1, 426721, Note_on_c, 0, 63, 0
1, 426748, Control_c, 0, 64, 0
1, 426748, Control_c, 0, 64, 0
1, 426748, Control_c, 0, 64, 0
1, 426764, Note_on_c, 0, 49, 85
1, 426764, Note_on_c, 0, 61, 97
1, 426816, Note_on_c, 0, 61, 0
1, 426816, Note_on_c, 0, 49, 0
1, 426826, Control_c, 0, 64, 0
1, 426826, Control_c, 0, 64, 0
1, 426826, Control_c, 0, 64, 0
1, 426861, Note_on_c, 0, 68, 101
1, 426861, Note_on_c, 0, 71, 101
1, 426861, Note_on_c, 0, 76, 101
1, 426864, Note_on_c, 0, 80, 113
1, 426864, Note_on_c, 0, 47, 85
1, 426864, Note_on_c, 0, 52, 85
1, 426867, Note_on_c, 0, 56, 85
1, 426867, Note_on_c, 0, 59, 97
1, 426882, Control_c, 0, 64, 0
1, 426882, Control_c, 0, 64, 0
1, 426882, Control_c, 0, 64, 0
1, 426938, Control_c, 0, 64, 127
1, 426938, Control_c, 0, 64, 127
1, 426938, Control_c, 0, 64, 127
1, 427011, Note_on_c, 0, 76, 0
1, 427011, Note_on_c, 0, 68, 0
1, 427011, Note_on_c, 0, 71, 0
1, 427014, Note_on_c, 0, 80, 0
1, 427014, Note_on_c, 0, 47, 0
1, 427014, Note_on_c, 0, 52, 0
1, 427017, Note_on_c, 0, 59, 0
1, 427017, Note_on_c, 0, 56, 0
1, 427085, Control_c, 0, 64, 0
1, 427085, Control_c, 0, 64, 0
1, 427085, Control_c, 0, 64, 0
1, 427106, Control_c, 0, 64, 0
1, 427106, Control_c, 0, 64, 0
1, 427106, Control_c, 0, 64, 0
1, 427252, Note_on_c, 0, 43, 93
1, 427252, Note_on_c, 0, 49, 93
1, 427252, Note_on_c, 0, 52, 93
1, 427255, Note_on_c, 0, 55, 105
1, 427266, Control_c, 0, 64, 0
1, 427266, Control_c, 0, 64, 0
1, 427266, Control_c, 0, 64, 0
1, 427329, Control_c, 0, 64, 127
1, 427329, Control_c, 0, 64, 127
1, 427329, Control_c, 0, 64, 127
1, 427402, Note_on_c, 0, 52, 0
1, 427402, Note_on_c, 0, 43, 0
1, 427402, Note_on_c, 0, 49, 0
1, 427405, Note_on_c, 0, 55, 0
1, 427462, Control_c, 0, 64, 0
1, 427462, Control_c, 0, 64, 0
1, 427462, Control_c, 0, 64, 0
1, 427594, Note_on_c, 0, 83, 105
1, 427643, Note_on_c, 0, 83, 0
1, 427643, Control_c, 0, 64, 0
1, 427643, Note_on_c, 0, 72, 93
1, 427646, Note_on_c, 0, 75, 93
1, 427646, Note_on_c, 0, 78, 93
1, 427646, Note_on_c, 0, 81, 111
1, 427649, Control_c, 0, 64, 0
1, 427649, Control_c, 0, 64, 0
1, 427649, Note_on_c, 0, 44, 86
1, 427652, Note_on_c, 0, 48, 86
1, 427652, Note_on_c, 0, 51, 86
1, 427652, Note_on_c, 0, 56, 98
1, 427799, Note_on_c, 0, 78, 0
1, 427799, Note_on_c, 0, 72, 0
1, 427799, Note_on_c, 0, 75, 0
1, 427802, Note_on_c, 0, 81, 0
1, 427802, Note_on_c, 0, 44, 0
1, 427802, Note_on_c, 0, 48, 0
1, 427805, Note_on_c, 0, 56, 0
1, 427805, Note_on_c, 0, 51, 0
1, 428051, Note_on_c, 0, 68, 93
1, 428051, Note_on_c, 0, 73, 93
1, 428051, Note_on_c, 0, 76, 93
1, 428054, Note_on_c, 0, 80, 105
1, 428208, Note_on_c, 0, 76, 0
1, 428208, Note_on_c, 0, 68, 0
1, 428208, Note_on_c, 0, 73, 0
1, 428211, Note_on_c, 0, 80, 0
1, 428409, Note_on_c, 0, 59, 77
1, 428409, Note_on_c, 0, 71, 87
1, 428460, Control_c, 0, 64, 0
1, 428460, Note_on_c, 0, 72, 97
1, 428460, Note_on_c, 0, 75, 97
1, 428463, Note_on_c, 0, 78, 106
1, 428463, Control_c, 0, 64, 0
1, 428463, Control_c, 0, 64, 0
1, 428466, Note_on_c, 0, 71, 0
1, 428466, Note_on_c, 0, 59, 0
1, 428466, Note_on_c, 0, 57, 77
1, 428469, Note_on_c, 0, 63, 77
1, 428469, Note_on_c, 0, 66, 77
1, 428469, Note_on_c, 0, 69, 87
1, 428616, Note_on_c, 0, 75, 0
1, 428616, Note_on_c, 0, 78, 0
1, 428616, Note_on_c, 0, 72, 0
1, 428619, Note_on_c, 0, 63, 0
1, 428619, Note_on_c, 0, 57, 0
1, 428619, Note_on_c, 0, 66, 0
1, 428622, Note_on_c, 0, 69, 0
1, 428868, Note_on_c, 0, 73, 91
1, 428868, Note_on_c, 0, 76, 100
1, 428868, Note_on_c, 0, 56, 75
1, 428871, Note_on_c, 0, 64, 75
1, 428871, Note_on_c, 0, 68, 85
1, 429024, Note_on_c, 0, 56, 0
1, 429024, Note_on_c, 0, 73, 0
1, 429024, Note_on_c, 0, 76, 0
1, 429027, Note_on_c, 0, 64, 0
1, 429027, Note_on_c, 0, 68, 0
1, 429225, Note_on_c, 0, 76, 110
1, 429276, Note_on_c, 0, 76, 0
1, 429276, Control_c, 0, 64, 0
1, 429276, Note_on_c, 0, 69, 98
1, 429279, Note_on_c, 0, 72, 98
1, 429279, Note_on_c, 0, 75, 112
1, 429279, Control_c, 0, 64, 0
1, 429282, Control_c, 0, 64, 0
1, 429282, Note_on_c, 0, 54, 75
1, 429282, Note_on_c, 0, 60, 75
1, 429285, Note_on_c, 0, 63, 75
1, 429285, Note_on_c, 0, 66, 84
1, 429433, Note_on_c, 0, 75, 0
1, 429433, Note_on_c, 0, 69, 0
1, 429433, Note_on_c, 0, 72, 0
1, 429436, Note_on_c, 0, 60, 0
1, 429436, Note_on_c, 0, 54, 0
1, 429436, Note_on_c, 0, 63, 0
1, 429439, Note_on_c, 0, 66, 0
1, 429685, Note_on_c, 0, 68, 92
1, 429685, Note_on_c, 0, 73, 102
1, 429685, Note_on_c, 0, 52, 70
1, 429688, Note_on_c, 0, 61, 70
1, 429688, Note_on_c, 0, 64, 78
1, 429841, Note_on_c, 0, 52, 0
1, 429841, Note_on_c, 0, 68, 0
1, 429841, Note_on_c, 0, 73, 0
1, 429844, Note_on_c, 0, 61, 0
1, 429844, Note_on_c, 0, 64, 0
1, 430042, Note_on_c, 0, 52, 75
1, 430042, Note_on_c, 0, 64, 85
1, 430093, Note_on_c, 0, 66, 97
1, 430093, Note_on_c, 0, 68, 97
1, 430093, Note_on_c, 0, 72, 108
1, 430096, Note_on_c, 0, 64, 0
1, 430096, Note_on_c, 0, 52, 0
1, 430096, Note_on_c, 0, 51, 75
1, 430099, Note_on_c, 0, 56, 75
1, 430099, Note_on_c, 0, 63, 85
1, 430250, Note_on_c, 0, 68, 0
1, 430250, Note_on_c, 0, 72, 0
1, 430250, Note_on_c, 0, 66, 0
1, 430253, Note_on_c, 0, 51, 0
1, 430253, Note_on_c, 0, 56, 0
1, 430253, Note_on_c, 0, 63, 0
1, 430502, Note_on_c, 0, 64, 91
1, 430502, Note_on_c, 0, 68, 91
1, 430502, Note_on_c, 0, 73, 100
1, 430505, Note_on_c, 0, 49, 72
1, 430505, Note_on_c, 0, 56, 72
1, 430505, Note_on_c, 0, 61, 82
1, 430658, Note_on_c, 0, 73, 0
1, 430658, Note_on_c, 0, 64, 0
1, 430658, Note_on_c, 0, 68, 0
1, 430661, Note_on_c, 0, 49, 0
1, 430661, Note_on_c, 0, 56, 0
1, 430661, Note_on_c, 0, 61, 0
1, 430859, Note_on_c, 0, 76, 108
1, 430910, Note_on_c, 0, 76, 0
1, 430910, Control_c, 0, 64, 0
1, 430910, Note_on_c, 0, 66, 97
1, 430913, Note_on_c, 0, 68, 97
1, 430913, Note_on_c, 0, 75, 115
1, 430913, Control_c, 0, 64, 0
1, 430916, Control_c, 0, 64, 0
1, 430916, Note_on_c, 0, 48, 80
1, 430916, Note_on_c, 0, 51, 80
1, 430919, Note_on_c, 0, 56, 80
1, 430919, Note_on_c, 0, 60, 91
1, 431067, Note_on_c, 0, 75, 0
1, 431067, Note_on_c, 0, 66, 0
1, 431067, Note_on_c, 0, 68, 0
1, 431070, Note_on_c, 0, 51, 0
1, 431070, Note_on_c, 0, 48, 0
1, 431070, Note_on_c, 0, 56, 0
1, 431073, Note_on_c, 0, 60, 0
1, 431319, Note_on_c, 0, 64, 93
1, 431319, Note_on_c, 0, 68, 93
1, 431319, Note_on_c, 0, 73, 104
1, 431322, Note_on_c, 0, 49, 76
1, 431322, Note_on_c, 0, 56, 76
1, 431322, Note_on_c, 0, 61, 87
1, 431475, Note_on_c, 0, 73, 0
1, 431475, Note_on_c, 0, 64, 0
1, 431475, Note_on_c, 0, 68, 0
1, 431478, Note_on_c, 0, 49, 0
1, 431478, Note_on_c, 0, 56, 0
1, 431478, Note_on_c, 0, 61, 0
1, 431676, Note_on_c, 0, 52, 84
1, 431676, Note_on_c, 0, 64, 97
1, 431727, Note_on_c, 0, 66, 101
1, 431727, Note_on_c, 0, 68, 101
1, 431727, Note_on_c, 0, 72, 114
1, 431730, Note_on_c, 0, 64, 0
1, 431730, Note_on_c, 0, 52, 0
1, 431730, Note_on_c, 0, 51, 84
1, 431733, Note_on_c, 0, 56, 84
1, 431733, Note_on_c, 0, 63, 97
1, 431883, Note_on_c, 0, 68, 0
1, 431883, Note_on_c, 0, 72, 0
1, 431883, Note_on_c, 0, 66, 0
1, 431886, Note_on_c, 0, 51, 0
1, 431886, Note_on_c, 0, 56, 0
1, 431886, Note_on_c, 0, 63, 0
1, 432136, Note_on_c, 0, 64, 98
1, 432136, Note_on_c, 0, 68, 98
1, 432136, Note_on_c, 0, 73, 111
1, 432139, Note_on_c, 0, 49, 81
1, 432139, Note_on_c, 0, 56, 81
1, 432139, Note_on_c, 0, 61, 93
1, 432292, Note_on_c, 0, 73, 0
1, 432292, Note_on_c, 0, 64, 0
1, 432292, Note_on_c, 0, 68, 0
1, 432295, Note_on_c, 0, 49, 0
1, 432295, Note_on_c, 0, 56, 0
1, 432295, Note_on_c, 0, 61, 0
1, 432493, Note_on_c, 0, 69, 114
1, 432544, Note_on_c, 0, 69, 0
1, 432544, Control_c, 0, 64, 0
1, 432544, Note_on_c, 0, 63, 101
1, 432547, Note_on_c, 0, 68, 117
1, 432547, Control_c, 0, 64, 0
1, 432547, Control_c, 0, 64, 0
1, 432550, Note_on_c, 0, 48, 90
1, 432550, Note_on_c, 0, 51, 90
1, 432550, Note_on_c, 0, 56, 90
1, 432553, Note_on_c, 0, 60, 103
1, 432700, Note_on_c, 0, 48, 0
1, 432700, Note_on_c, 0, 63, 0
1, 432700, Note_on_c, 0, 68, 0
1, 432703, Note_on_c, 0, 51, 0
1, 432703, Note_on_c, 0, 56, 0
1, 432703, Note_on_c, 0, 60, 0
1, 432952, Note_on_c, 0, 64, 97
1, 432952, Note_on_c, 0, 68, 112
1, 432952, Note_on_c, 0, 49, 86
1, 432955, Note_on_c, 0, 56, 86
1, 432955, Note_on_c, 0, 61, 101
1, 433109, Note_on_c, 0, 49, 0
1, 433109, Note_on_c, 0, 64, 0
1, 433109, Note_on_c, 0, 68, 0
1, 433112, Note_on_c, 0, 56, 0
1, 433112, Note_on_c, 0, 61, 0
1, 433317, Note_on_c, 0, 45, 97
1, 433317, Note_on_c, 0, 57, 112
1, 433371, Note_on_c, 0, 61, 109
1, 433371, Note_on_c, 0, 64, 109
1, 433371, Note_on_c, 0, 68, 109
1, 433374, Note_on_c, 0, 57, 0
1, 433374, Note_on_c, 0, 45, 0
1, 433374, Note_on_c, 0, 73, 117
1, 433377, Note_on_c, 0, 44, 92
1, 433377, Note_on_c, 0, 52, 92
1, 433377, Note_on_c, 0, 56, 107
1, 433534, Note_on_c, 0, 64, 0
1, 433534, Note_on_c, 0, 68, 0
1, 433534, Note_on_c, 0, 61, 0
1, 433537, Note_on_c, 0, 44, 0
1, 433537, Note_on_c, 0, 73, 0
1, 433537, Note_on_c, 0, 52, 0
1, 433540, Note_on_c, 0, 56, 0
1, 433798, Note_on_c, 0, 60, 104
1, 433798, Note_on_c, 0, 63, 104
1, 433798, Note_on_c, 0, 68, 104
1, 433801, Note_on_c, 0, 72, 117
1, 433801, Note_on_c, 0, 44, 88
1, 433801, Note_on_c, 0, 51, 88
1, 433804, Note_on_c, 0, 56, 103
1, 433970, Note_on_c, 0, 68, 0
1, 433970, Note_on_c, 0, 60, 0
1, 433970, Note_on_c, 0, 63, 0
1, 433973, Note_on_c, 0, 44, 0
1, 433973, Note_on_c, 0, 72, 0
1, 433973, Note_on_c, 0, 51, 0
1, 433976, Note_on_c, 0, 56, 0
1, 434248, Control_c, 0, 64, 0
1, 434248, Note_on_c, 0, 73, 110
1, 434248, Note_on_c, 0, 76, 110
1, 434251, Note_on_c, 0, 80, 110
1, 434251, Note_on_c, 0, 85, 117
1, 434251, Control_c, 0, 64, 0
1, 434254, Control_c, 0, 64, 0
1, 434254, Note_on_c, 0, 49, 87
1, 434254, Note_on_c, 0, 52, 87
1, 434257, Note_on_c, 0, 56, 87
1, 434257, Note_on_c, 0, 61, 101
1, 434420, Note_on_c, 0, 80, 0
1, 434420, Note_on_c, 0, 73, 0
1, 434420, Note_on_c, 0, 76, 0
1, 434423, Note_on_c, 0, 85, 0
1, 434423, Note_on_c, 0, 49, 0
1, 434423, Note_on_c, 0, 52, 0
1, 434426, Note_on_c, 0, 61, 0
1, 434426, Note_on_c, 0, 56, 0
1, 434697, Note_on_c, 0, 68, 98
1, 434697, Note_on_c, 0, 75, 98
1, 434697, Note_on_c, 0, 80, 111
1, 434700, Note_on_c, 0, 48, 86
1, 434700, Note_on_c, 0, 51, 86
1, 434700, Note_on_c, 0, 56, 86
1, 434703, Note_on_c, 0, 60, 100
1, 434856, Note_on_c, 0, 80, 0
1, 434856, Note_on_c, 0, 68, 0
1, 434856, Note_on_c, 0, 75, 0
1, 434859, Note_on_c, 0, 51, 0
1, 434859, Note_on_c, 0, 48, 0
1, 434859, Note_on_c, 0, 56, 0
1, 434862, Note_on_c, 0, 60, 0
1, 435113, Note_on_c, 0, 64, 95
1, 435113, Note_on_c, 0, 68, 95
1, 435113, Note_on_c, 0, 73, 95
1, 435116, Note_on_c, 0, 76, 107
1, 435116, Note_on_c, 0, 49, 94
1, 435116, Note_on_c, 0, 52, 94
1, 435119, Note_on_c, 0, 56, 94
1, 435119, Note_on_c, 0, 61, 114
1, 435277, Note_on_c, 0, 73, 0
1, 435277, Note_on_c, 0, 64, 0
1, 435277, Note_on_c, 0, 68, 0
1, 435280, Note_on_c, 0, 76, 0
1, 435280, Note_on_c, 0, 49, 0
1, 435280, Note_on_c, 0, 52, 0
1, 435283, Note_on_c, 0, 61, 0
1, 435283, Note_on_c, 0, 56, 0
1, 435541, Note_on_c, 0, 61, 91
1, 435541, Note_on_c, 0, 64, 91
1, 435541, Note_on_c, 0, 68, 91
1, 435544, Note_on_c, 0, 73, 103
1, 435544, Note_on_c, 0, 44, 83
1, 435544, Note_on_c, 0, 49, 83
1, 435547, Note_on_c, 0, 52, 83
1, 435547, Note_on_c, 0, 56, 97
1, 435697, Note_on_c, 0, 68, 0
1, 435697, Note_on_c, 0, 61, 0
1, 435697, Note_on_c, 0, 64, 0
1, 435700, Note_on_c, 0, 73, 0
1, 435700, Note_on_c, 0, 44, 0
1, 435700, Note_on_c, 0, 49, 0
1, 435703, Note_on_c, 0, 56, 0
1, 435703, Note_on_c, 0, 52, 0
1, 435949, Control_c, 0, 64, 0
1, 435949, Note_on_c, 0, 71, 108
1, 435949, Note_on_c, 0, 73, 108
1, 435952, Note_on_c, 0, 76, 108
1, 435952, Note_on_c, 0, 83, 117
1, 435952, Control_c, 0, 64, 0
1, 435955, Control_c, 0, 64, 0
1, 435955, Note_on_c, 0, 40, 81
1, 435955, Note_on_c, 0, 45, 81
1, 435958, Note_on_c, 0, 52, 93
1, 436121, Note_on_c, 0, 76, 0
1, 436121, Note_on_c, 0, 71, 0
1, 436121, Note_on_c, 0, 73, 0
1, 436124, Note_on_c, 0, 40, 0
1, 436124, Note_on_c, 0, 83, 0
1, 436124, Note_on_c, 0, 45, 0
1, 436127, Note_on_c, 0, 52, 0
1, 436399, Note_on_c, 0, 69, 97
1, 436399, Note_on_c, 0, 73, 97
1, 436399, Note_on_c, 0, 76, 97
1, 436402, Note_on_c, 0, 81, 110
1, 436402, Note_on_c, 0, 37, 79
1, 436402, Note_on_c, 0, 45, 79
1, 436405, Note_on_c, 0, 49, 91
1, 436555, Note_on_c, 0, 76, 0
1, 436555, Note_on_c, 0, 69, 0
1, 436555, Note_on_c, 0, 73, 0
1, 436558, Note_on_c, 0, 37, 0
1, 436558, Note_on_c, 0, 81, 0
1, 436558, Note_on_c, 0, 45, 0
1, 436561, Note_on_c, 0, 49, 0
1, 436807, Note_on_c, 0, 68, 94
1, 436807, Note_on_c, 0, 73, 94
1, 436807, Note_on_c, 0, 76, 94
1, 436810, Note_on_c, 0, 80, 106
1, 436810, Note_on_c, 0, 47, 95
1, 436810, Note_on_c, 0, 52, 91
1, 436813, Note_on_c, 0, 59, 115
1, 436963, Note_on_c, 0, 76, 0
1, 436963, Note_on_c, 0, 68, 0
1, 436963, Note_on_c, 0, 73, 0
1, 436966, Note_on_c, 0, 47, 0
1, 436966, Note_on_c, 0, 80, 0
1, 436966, Note_on_c, 0, 52, 0
1, 436969, Note_on_c, 0, 59, 0
1, 437215, Note_on_c, 0, 66, 92
1, 437215, Note_on_c, 0, 69, 92
1, 437215, Note_on_c, 0, 73, 92
1, 437218, Note_on_c, 0, 78, 104
1, 437218, Note_on_c, 0, 45, 82
1, 437218, Note_on_c, 0, 52, 82
1, 437221, Note_on_c, 0, 57, 94
1, 437372, Note_on_c, 0, 73, 0
1, 437372, Note_on_c, 0, 66, 0
1, 437372, Note_on_c, 0, 69, 0
1, 437375, Note_on_c, 0, 45, 0
1, 437375, Note_on_c, 0, 78, 0
1, 437375, Note_on_c, 0, 52, 0
1, 437378, Note_on_c, 0, 57, 0
1, 437624, Control_c, 0, 64, 0
1, 437624, Note_on_c, 0, 64, 97
1, 437624, Note_on_c, 0, 68, 97
1, 437627, Note_on_c, 0, 73, 97
1, 437627, Note_on_c, 0, 76, 110
1, 437627, Control_c, 0, 64, 0
1, 437630, Control_c, 0, 64, 0
1, 437630, Note_on_c, 0, 44, 79
1, 437630, Note_on_c, 0, 49, 79
1, 437633, Note_on_c, 0, 52, 79
1, 437633, Note_on_c, 0, 56, 91
1, 437780, Note_on_c, 0, 73, 0
1, 437780, Note_on_c, 0, 64, 0
1, 437780, Note_on_c, 0, 68, 0
1, 437783, Note_on_c, 0, 76, 0
1, 437783, Note_on_c, 0, 44, 0
1, 437783, Note_on_c, 0, 49, 0
1, 437786, Note_on_c, 0, 56, 0
1, 437786, Note_on_c, 0, 52, 0
1, 438032, Note_on_c, 0, 63, 95
1, 438032, Note_on_c, 0, 68, 95
1, 438032, Note_on_c, 0, 72, 95
1, 438035, Note_on_c, 0, 75, 108
1, 438035, Note_on_c, 0, 42, 77
1, 438035, Note_on_c, 0, 44, 77
1, 438038, Note_on_c, 0, 48, 77
1, 438038, Note_on_c, 0, 51, 77
1, 438038, Note_on_c, 0, 54, 89
1, 438189, Note_on_c, 0, 72, 0
1, 438189, Note_on_c, 0, 63, 0
1, 438189, Note_on_c, 0, 68, 0
1, 438192, Note_on_c, 0, 75, 0
1, 438192, Note_on_c, 0, 42, 0
1, 438192, Note_on_c, 0, 44, 0
1, 438195, Note_on_c, 0, 54, 0
1, 438195, Note_on_c, 0, 48, 0
1, 438195, Note_on_c, 0, 51, 0
1, 438441, Note_on_c, 0, 68, 108
1, 438441, Note_on_c, 0, 73, 108
1, 438441, Note_on_c, 0, 76, 108
1, 438444, Note_on_c, 0, 80, 117
1, 438444, Note_on_c, 0, 40, 77
1, 438444, Note_on_c, 0, 44, 77
1, 438447, Note_on_c, 0, 49, 77
1, 438447, Note_on_c, 0, 52, 88
1, 438597, Note_on_c, 0, 76, 0
1, 438597, Note_on_c, 0, 68, 0
1, 438597, Note_on_c, 0, 73, 0
1, 438600, Note_on_c, 0, 80, 0
1, 438600, Note_on_c, 0, 40, 0
1, 438600, Note_on_c, 0, 44, 0
1, 438603, Note_on_c, 0, 52, 0
1, 438603, Note_on_c, 0, 49, 0
1, 438849, Note_on_c, 0, 66, 90
1, 438849, Note_on_c, 0, 68, 90
1, 438849, Note_on_c, 0, 75, 90
1, 438852, Note_on_c, 0, 78, 102
1, 438852, Note_on_c, 0, 39, 76
1, 438852, Note_on_c, 0, 44, 76
1, 438855, Note_on_c, 0, 48, 76
1, 438855, Note_on_c, 0, 51, 88
1, 439006, Note_on_c, 0, 75, 0
1, 439006, Note_on_c, 0, 66, 0
1, 439006, Note_on_c, 0, 68, 0
1, 439009, Note_on_c, 0, 78, 0
1, 439009, Note_on_c, 0, 39, 0
1, 439009, Note_on_c, 0, 44, 0
1, 439012, Note_on_c, 0, 51, 0
1, 439012, Note_on_c, 0, 48, 0
1, 439258, Control_c, 0, 64, 0
1, 439258, Note_on_c, 0, 64, 90
1, 439258, Note_on_c, 0, 68, 90
1, 439261, Note_on_c, 0, 73, 90
1, 439261, Note_on_c, 0, 76, 101
1, 439261, Control_c, 0, 64, 0
1, 439264, Control_c, 0, 64, 0
1, 439264, Note_on_c, 0, 44, 88
1, 439264, Note_on_c, 0, 49, 88
1, 439267, Note_on_c, 0, 52, 88
1, 439267, Note_on_c, 0, 56, 107
1, 439414, Note_on_c, 0, 73, 0
1, 439414, Note_on_c, 0, 64, 0
1, 439414, Note_on_c, 0, 68, 0
1, 439417, Note_on_c, 0, 76, 0
1, 439417, Note_on_c, 0, 44, 0
1, 439417, Note_on_c, 0, 49, 0
1, 439420, Note_on_c, 0, 56, 0
1, 439420, Note_on_c, 0, 52, 0
1, 439666, Note_on_c, 0, 63, 87
1, 439666, Note_on_c, 0, 68, 87
1, 439666, Note_on_c, 0, 72, 87
1, 439669, Note_on_c, 0, 75, 97
1, 439669, Note_on_c, 0, 42, 79
1, 439669, Note_on_c, 0, 44, 79
1, 439672, Note_on_c, 0, 48, 79
1, 439672, Note_on_c, 0, 51, 79
1, 439672, Note_on_c, 0, 54, 90
1, 439822, Note_on_c, 0, 72, 0
1, 439822, Note_on_c, 0, 63, 0
1, 439822, Note_on_c, 0, 68, 0
1, 439825, Note_on_c, 0, 75, 0
1, 439825, Note_on_c, 0, 42, 0
1, 439825, Note_on_c, 0, 44, 0
1, 439828, Note_on_c, 0, 54, 0
1, 439828, Note_on_c, 0, 48, 0
1, 439828, Note_on_c, 0, 51, 0
1, 440075, Note_on_c, 0, 61, 83
1, 440075, Note_on_c, 0, 64, 83
1, 440075, Note_on_c, 0, 68, 83
1, 440078, Note_on_c, 0, 73, 93
1, 440078, Note_on_c, 0, 40, 77
1, 440078, Note_on_c, 0, 44, 77
1, 440081, Note_on_c, 0, 49, 77
1, 440081, Note_on_c, 0, 52, 88
1, 440231, Note_on_c, 0, 68, 0
1, 440231, Note_on_c, 0, 61, 0
1, 440231, Note_on_c, 0, 64, 0
1, 440234, Note_on_c, 0, 73, 0
1, 440234, Note_on_c, 0, 40, 0
1, 440234, Note_on_c, 0, 44, 0
1, 440237, Note_on_c, 0, 52, 0
1, 440237, Note_on_c, 0, 49, 0
1, 440483, Note_on_c, 0, 39, 75
1, 440483, Note_on_c, 0, 44, 75
1, 440483, Note_on_c, 0, 48, 75
1, 440486, Note_on_c, 0, 51, 86
1, 440639, Note_on_c, 0, 48, 0
1, 440639, Note_on_c, 0, 39, 0
1, 440639, Note_on_c, 0, 44, 0
1, 440642, Note_on_c, 0, 51, 0
1, 440840, Note_on_c, 0, 83, 113
1, 440891, Note_on_c, 0, 83, 0
1, 440891, Control_c, 0, 64, 0
1, 440891, Note_on_c, 0, 72, 93
1, 440894, Note_on_c, 0, 75, 93
1, 440894, Note_on_c, 0, 78, 93
1, 440894, Note_on_c, 0, 81, 105
1, 440897, Control_c, 0, 64, 0
1, 440897, Control_c, 0, 64, 0
1, 440897, Note_on_c, 0, 37, 74
1, 440900, Note_on_c, 0, 44, 74
1, 440900, Note_on_c, 0, 49, 84
1, 441048, Note_on_c, 0, 78, 0
1, 441048, Note_on_c, 0, 72, 0
1, 441048, Note_on_c, 0, 75, 0
1, 441051, Note_on_c, 0, 37, 0
1, 441051, Note_on_c, 0, 81, 0
1, 441051, Note_on_c, 0, 44, 0
1, 441054, Note_on_c, 0, 49, 0
1, 441300, Note_on_c, 0, 73, 93
1, 441300, Note_on_c, 0, 76, 93
1, 441300, Note_on_c, 0, 80, 105
1, 441456, Note_on_c, 0, 80, 0
1, 441456, Note_on_c, 0, 76, 0
1, 441456, Note_on_c, 0, 73, 0
1, 441657, Note_on_c, 0, 59, 77
1, 441657, Note_on_c, 0, 71, 87
1, 441708, Control_c, 0, 64, 0
1, 441708, Note_on_c, 0, 72, 97
1, 441708, Note_on_c, 0, 75, 97
1, 441711, Note_on_c, 0, 78, 106
1, 441711, Control_c, 0, 64, 0
1, 441711, Control_c, 0, 64, 0
1, 441714, Note_on_c, 0, 71, 0
1, 441714, Note_on_c, 0, 59, 0
1, 441714, Note_on_c, 0, 57, 77
1, 441717, Note_on_c, 0, 63, 77
1, 441717, Note_on_c, 0, 66, 77
1, 441717, Note_on_c, 0, 69, 87
1, 441865, Note_on_c, 0, 75, 0
1, 441865, Note_on_c, 0, 78, 0
1, 441865, Note_on_c, 0, 72, 0
1, 441868, Note_on_c, 0, 63, 0
1, 441868, Note_on_c, 0, 57, 0
1, 441868, Note_on_c, 0, 66, 0
1, 441871, Note_on_c, 0, 69, 0
1, 442117, Note_on_c, 0, 73, 91
1, 442117, Note_on_c, 0, 76, 100
1, 442117, Note_on_c, 0, 56, 75
1, 442120, Note_on_c, 0, 64, 75
1, 442120, Note_on_c, 0, 68, 85
1, 442273, Note_on_c, 0, 56, 0
1, 442273, Note_on_c, 0, 73, 0
1, 442273, Note_on_c, 0, 76, 0
1, 442276, Note_on_c, 0, 64, 0
1, 442276, Note_on_c, 0, 68, 0
1, 442474, Note_on_c, 0, 76, 110
1, 442525, Note_on_c, 0, 76, 0
1, 442525, Control_c, 0, 64, 0
1, 442525, Note_on_c, 0, 69, 98
1, 442528, Note_on_c, 0, 72, 98
1, 442528, Note_on_c, 0, 75, 112
1, 442528, Control_c, 0, 64, 0
1, 442531, Control_c, 0, 64, 0
1, 442531, Note_on_c, 0, 54, 75
1, 442531, Note_on_c, 0, 60, 75
1, 442534, Note_on_c, 0, 63, 75
1, 442534, Note_on_c, 0, 66, 84
1, 442681, Note_on_c, 0, 75, 0
1, 442681, Note_on_c, 0, 69, 0
1, 442681, Note_on_c, 0, 72, 0
1, 442684, Note_on_c, 0, 60, 0
1, 442684, Note_on_c, 0, 54, 0
1, 442684, Note_on_c, 0, 63, 0
1, 442687, Note_on_c, 0, 66, 0
1, 442934, Note_on_c, 0, 68, 92
1, 442934, Note_on_c, 0, 73, 102
1, 442934, Note_on_c, 0, 52, 70
1, 442937, Note_on_c, 0, 61, 70
1, 442937, Note_on_c, 0, 64, 78
1, 443090, Note_on_c, 0, 52, 0
1, 443090, Note_on_c, 0, 68, 0
1, 443090, Note_on_c, 0, 73, 0
1, 443093, Note_on_c, 0, 61, 0
1, 443093, Note_on_c, 0, 64, 0
1, 443291, Note_on_c, 0, 52, 75
1, 443291, Note_on_c, 0, 64, 85
1, 443342, Note_on_c, 0, 66, 97
1, 443342, Note_on_c, 0, 68, 97
1, 443342, Note_on_c, 0, 72, 108
1, 443345, Note_on_c, 0, 64, 0
1, 443345, Note_on_c, 0, 52, 0
1, 443345, Note_on_c, 0, 51, 75
1, 443348, Note_on_c, 0, 56, 75
1, 443348, Note_on_c, 0, 63, 85
1, 443498, Note_on_c, 0, 68, 0
1, 443498, Note_on_c, 0, 72, 0
1, 443498, Note_on_c, 0, 66, 0
1, 443501, Note_on_c, 0, 51, 0
1, 443501, Note_on_c, 0, 56, 0
1, 443501, Note_on_c, 0, 63, 0
1, 443750, Note_on_c, 0, 64, 91
1, 443750, Note_on_c, 0, 68, 91
1, 443750, Note_on_c, 0, 73, 100
1, 443753, Note_on_c, 0, 49, 72
1, 443753, Note_on_c, 0, 56, 72
1, 443753, Note_on_c, 0, 61, 82
1, 443907, Note_on_c, 0, 73, 0
1, 443907, Note_on_c, 0, 64, 0
1, 443907, Note_on_c, 0, 68, 0
1, 443910, Note_on_c, 0, 49, 0
1, 443910, Note_on_c, 0, 56, 0
1, 443910, Note_on_c, 0, 61, 0
1, 444108, Note_on_c, 0, 76, 108
1, 444159, Note_on_c, 0, 76, 0
1, 444159, Control_c, 0, 64, 0
1, 444159, Note_on_c, 0, 66, 97
1, 444162, Note_on_c, 0, 68, 97
1, 444162, Note_on_c, 0, 75, 115
1, 444162, Control_c, 0, 64, 0
1, 444165, Control_c, 0, 64, 0
1, 444165, Note_on_c, 0, 48, 80
1, 444165, Note_on_c, 0, 51, 80
1, 444168, Note_on_c, 0, 56, 80
1, 444168, Note_on_c, 0, 60, 91
1, 444315, Note_on_c, 0, 75, 0
1, 444315, Note_on_c, 0, 66, 0
1, 444315, Note_on_c, 0, 68, 0
1, 444318, Note_on_c, 0, 51, 0
1, 444318, Note_on_c, 0, 48, 0
1, 444318, Note_on_c, 0, 56, 0
1, 444321, Note_on_c, 0, 60, 0
1, 444567, Note_on_c, 0, 64, 93
1, 444567, Note_on_c, 0, 68, 93
1, 444567, Note_on_c, 0, 73, 104
1, 444570, Note_on_c, 0, 49, 76
1, 444570, Note_on_c, 0, 56, 76
1, 444570, Note_on_c, 0, 61, 87
1, 444724, Note_on_c, 0, 73, 0
1, 444724, Note_on_c, 0, 64, 0
1, 444724, Note_on_c, 0, 68, 0
1, 444727, Note_on_c, 0, 49, 0
1, 444727, Note_on_c, 0, 56, 0
1, 444727, Note_on_c, 0, 61, 0
1, 444925, Note_on_c, 0, 52, 84
1, 444925, Note_on_c, 0, 64, 97
1, 444976, Note_on_c, 0, 66, 101
1, 444976, Note_on_c, 0, 68, 101
1, 444976, Note_on_c, 0, 72, 114
1, 444979, Note_on_c, 0, 64, 0
1, 444979, Note_on_c, 0, 52, 0
1, 444979, Note_on_c, 0, 51, 84
1, 444982, Note_on_c, 0, 56, 84
1, 444982, Note_on_c, 0, 63, 97
1, 445132, Note_on_c, 0, 68, 0
1, 445132, Note_on_c, 0, 72, 0
1, 445132, Note_on_c, 0, 66, 0
1, 445135, Note_on_c, 0, 51, 0
1, 445135, Note_on_c, 0, 56, 0
1, 445135, Note_on_c, 0, 63, 0
1, 445384, Note_on_c, 0, 64, 98
1, 445384, Note_on_c, 0, 68, 98
1, 445384, Note_on_c, 0, 73, 111
1, 445387, Note_on_c, 0, 49, 81
1, 445387, Note_on_c, 0, 56, 81
1, 445387, Note_on_c, 0, 61, 93
1, 445541, Note_on_c, 0, 73, 0
1, 445541, Note_on_c, 0, 64, 0
1, 445541, Note_on_c, 0, 68, 0
1, 445544, Note_on_c, 0, 49, 0
1, 445544, Note_on_c, 0, 56, 0
1, 445544, Note_on_c, 0, 61, 0
1, 445742, Note_on_c, 0, 69, 114
1, 445793, Note_on_c, 0, 69, 0
1, 445793, Control_c, 0, 64, 0
1, 445793, Note_on_c, 0, 63, 101
1, 445796, Note_on_c, 0, 68, 117
1, 445796, Control_c, 0, 64, 0
1, 445796, Control_c, 0, 64, 0
1, 445799, Note_on_c, 0, 48, 90
1, 445799, Note_on_c, 0, 51, 90
1, 445799, Note_on_c, 0, 56, 90
1, 445802, Note_on_c, 0, 60, 103
1, 445949, Note_on_c, 0, 48, 0
1, 445949, Note_on_c, 0, 63, 0
1, 445949, Note_on_c, 0, 68, 0
1, 445952, Note_on_c, 0, 51, 0
1, 445952, Note_on_c, 0, 56, 0
1, 445952, Note_on_c, 0, 60, 0
1, 446201, Note_on_c, 0, 64, 97
1, 446201, Note_on_c, 0, 68, 112
1, 446201, Note_on_c, 0, 49, 86
1, 446204, Note_on_c, 0, 56, 86
1, 446204, Note_on_c, 0, 61, 101
1, 446357, Note_on_c, 0, 49, 0
1, 446357, Note_on_c, 0, 64, 0
1, 446357, Note_on_c, 0, 68, 0
1, 446360, Note_on_c, 0, 56, 0
1, 446360, Note_on_c, 0, 61, 0
1, 446566, Note_on_c, 0, 45, 97
1, 446566, Note_on_c, 0, 57, 112
1, 446619, Note_on_c, 0, 61, 109
1, 446619, Note_on_c, 0, 64, 109
1, 446619, Note_on_c, 0, 68, 109
1, 446622, Note_on_c, 0, 57, 0
1, 446622, Note_on_c, 0, 45, 0
1, 446622, Note_on_c, 0, 73, 117
1, 446625, Note_on_c, 0, 44, 92
1, 446625, Note_on_c, 0, 52, 92
1, 446625, Note_on_c, 0, 56, 107
1, 446783, Note_on_c, 0, 64, 0
1, 446783, Note_on_c, 0, 68, 0
1, 446783, Note_on_c, 0, 61, 0
1, 446786, Note_on_c, 0, 44, 0
1, 446786, Note_on_c, 0, 73, 0
1, 446786, Note_on_c, 0, 52, 0
1, 446789, Note_on_c, 0, 56, 0
1, 447047, Note_on_c, 0, 60, 104
1, 447047, Note_on_c, 0, 63, 104
1, 447047, Note_on_c, 0, 68, 104
1, 447050, Note_on_c, 0, 72, 117
1, 447050, Note_on_c, 0, 44, 88
1, 447050, Note_on_c, 0, 51, 88
1, 447053, Note_on_c, 0, 56, 103
1, 447219, Note_on_c, 0, 68, 0
1, 447219, Note_on_c, 0, 60, 0
1, 447219, Note_on_c, 0, 63, 0
1, 447222, Note_on_c, 0, 44, 0
1, 447222, Note_on_c, 0, 72, 0
1, 447222, Note_on_c, 0, 51, 0
1, 447225, Note_on_c, 0, 56, 0
1, 447496, Control_c, 0, 64, 0
1, 447496, Note_on_c, 0, 73, 110
1, 447496, Note_on_c, 0, 76, 110
1, 447499, Note_on_c, 0, 80, 110
1, 447499, Note_on_c, 0, 85, 117
1, 447499, Control_c, 0, 64, 0
1, 447502, Control_c, 0, 64, 0
1, 447502, Note_on_c, 0, 49, 87
1, 447502, Note_on_c, 0, 52, 87
1, 447505, Note_on_c, 0, 56, 87
1, 447505, Note_on_c, 0, 61, 101
1, 447668, Note_on_c, 0, 80, 0
1, 447668, Note_on_c, 0, 73, 0
1, 447668, Note_on_c, 0, 76, 0
1, 447671, Note_on_c, 0, 85, 0
1, 447671, Note_on_c, 0, 49, 0
1, 447671, Note_on_c, 0, 52, 0
1, 447674, Note_on_c, 0, 61, 0
1, 447674, Note_on_c, 0, 56, 0
1, 447946, Note_on_c, 0, 68, 98
1, 447946, Note_on_c, 0, 75, 98
1, 447946, Note_on_c, 0, 80, 111
1, 447949, Note_on_c, 0, 48, 86
1, 447949, Note_on_c, 0, 51, 86
1, 447949, Note_on_c, 0, 56, 86
1, 447952, Note_on_c, 0, 60, 100
1, 448105, Note_on_c, 0, 80, 0
1, 448105, Note_on_c, 0, 68, 0
1, 448105, Note_on_c, 0, 75, 0
1, 448108, Note_on_c, 0, 51, 0
1, 448108, Note_on_c, 0, 48, 0
1, 448108, Note_on_c, 0, 56, 0
1, 448111, Note_on_c, 0, 60, 0
1, 448362, Note_on_c, 0, 64, 95
1, 448362, Note_on_c, 0, 68, 95
1, 448362, Note_on_c, 0, 73, 95
1, 448365, Note_on_c, 0, 76, 107
1, 448365, Note_on_c, 0, 49, 94
1, 448365, Note_on_c, 0, 52, 94
1, 448368, Note_on_c, 0, 56, 94
1, 448368, Note_on_c, 0, 61, 114
1, 448525, Note_on_c, 0, 73, 0
1, 448525, Note_on_c, 0, 64, 0
1, 448525, Note_on_c, 0, 68, 0
1, 448528, Note_on_c, 0, 76, 0
1, 448528, Note_on_c, 0, 49, 0
1, 448528, Note_on_c, 0, 52, 0
1, 448531, Note_on_c, 0, 61, 0
1, 448531, Note_on_c, 0, 56, 0
1, 448790, Note_on_c, 0, 61, 91
1, 448790, Note_on_c, 0, 64, 91
1, 448790, Note_on_c, 0, 68, 91
1, 448793, Note_on_c, 0, 73, 103
1, 448793, Note_on_c, 0, 44, 83
1, 448793, Note_on_c, 0, 49, 83
1, 448796, Note_on_c, 0, 52, 83
1, 448796, Note_on_c, 0, 56, 97
1, 448946, Note_on_c, 0, 68, 0
1, 448946, Note_on_c, 0, 61, 0
1, 448946, Note_on_c, 0, 64, 0
1, 448949, Note_on_c, 0, 73, 0
1, 448949, Note_on_c, 0, 44, 0
1, 448949, Note_on_c, 0, 49, 0
1, 448952, Note_on_c, 0, 56, 0
1, 448952, Note_on_c, 0, 52, 0
1, 449198, Control_c, 0, 64, 0
1, 449198, Note_on_c, 0, 71, 108
1, 449198, Note_on_c, 0, 73, 108
1, 449201, Note_on_c, 0, 76, 108
1, 449201, Note_on_c, 0, 83, 117
1, 449201, Control_c, 0, 64, 0
1, 449204, Control_c, 0, 64, 0
1, 449204, Note_on_c, 0, 40, 81
1, 449204, Note_on_c, 0, 45, 81
1, 449207, Note_on_c, 0, 52, 93
1, 449370, Note_on_c, 0, 76, 0
1, 449370, Note_on_c, 0, 71, 0
1, 449370, Note_on_c, 0, 73, 0
1, 449373, Note_on_c, 0, 40, 0
1, 449373, Note_on_c, 0, 83, 0
1, 449373, Note_on_c, 0, 45, 0
1, 449376, Note_on_c, 0, 52, 0
1, 449647, Note_on_c, 0, 69, 97
1, 449647, Note_on_c, 0, 73, 97
1, 449647, Note_on_c, 0, 76, 97
1, 449650, Note_on_c, 0, 81, 110
1, 449650, Note_on_c, 0, 37, 79
1, 449650, Note_on_c, 0, 45, 79
1, 449653, Note_on_c, 0, 49, 91
1, 449804, Note_on_c, 0, 76, 0
1, 449804, Note_on_c, 0, 69, 0
1, 449804, Note_on_c, 0, 73, 0
1, 449807, Note_on_c, 0, 37, 0
1, 449807, Note_on_c, 0, 81, 0
1, 449807, Note_on_c, 0, 45, 0
1, 449810, Note_on_c, 0, 49, 0
1, 450056, Note_on_c, 0, 68, 94
1, 450056, Note_on_c, 0, 73, 94
1, 450056, Note_on_c, 0, 76, 94
1, 450059, Note_on_c, 0, 80, 106
1, 450059, Note_on_c, 0, 47, 95
1, 450059, Note_on_c, 0, 52, 91
1, 450062, Note_on_c, 0, 59, 115
1, 450212, Note_on_c, 0, 76, 0
1, 450212, Note_on_c, 0, 68, 0
1, 450212, Note_on_c, 0, 73, 0
1, 450215, Note_on_c, 0, 47, 0
1, 450215, Note_on_c, 0, 80, 0
1, 450215, Note_on_c, 0, 52, 0
1, 450218, Note_on_c, 0, 59, 0
1, 450464, Note_on_c, 0, 66, 92
1, 450464, Note_on_c, 0, 69, 92
1, 450464, Note_on_c, 0, 73, 92
1, 450467, Note_on_c, 0, 78, 104
1, 450467, Note_on_c, 0, 45, 82
1, 450467, Note_on_c, 0, 52, 82
1, 450470, Note_on_c, 0, 57, 94
1, 450620, Note_on_c, 0, 73, 0
1, 450620, Note_on_c, 0, 66, 0
1, 450620, Note_on_c, 0, 69, 0
1, 450623, Note_on_c, 0, 45, 0
1, 450623, Note_on_c, 0, 78, 0
1, 450623, Note_on_c, 0, 52, 0
1, 450626, Note_on_c, 0, 57, 0
1, 450873, Control_c, 0, 64, 0
1, 450873, Note_on_c, 0, 64, 97
1, 450873, Note_on_c, 0, 68, 97
1, 450876, Note_on_c, 0, 73, 97
1, 450876, Note_on_c, 0, 76, 110
1, 450876, Control_c, 0, 64, 0
1, 450879, Control_c, 0, 64, 0
1, 450879, Note_on_c, 0, 44, 79
1, 450879, Note_on_c, 0, 49, 79
1, 450882, Note_on_c, 0, 52, 79
1, 450882, Note_on_c, 0, 56, 91
1, 451029, Note_on_c, 0, 73, 0
1, 451029, Note_on_c, 0, 64, 0
1, 451029, Note_on_c, 0, 68, 0
1, 451032, Note_on_c, 0, 76, 0
1, 451032, Note_on_c, 0, 44, 0
1, 451032, Note_on_c, 0, 49, 0
1, 451035, Note_on_c, 0, 56, 0
1, 451035, Note_on_c, 0, 52, 0
1, 451281, Note_on_c, 0, 63, 95
1, 451281, Note_on_c, 0, 68, 95
1, 451281, Note_on_c, 0, 72, 95
1, 451284, Note_on_c, 0, 75, 108
1, 451284, Note_on_c, 0, 42, 77
1, 451284, Note_on_c, 0, 44, 77
1, 451287, Note_on_c, 0, 48, 77
1, 451287, Note_on_c, 0, 51, 77
1, 451287, Note_on_c, 0, 54, 89
1, 451437, Note_on_c, 0, 72, 0
1, 451437, Note_on_c, 0, 63, 0
1, 451437, Note_on_c, 0, 68, 0
1, 451440, Note_on_c, 0, 75, 0
1, 451440, Note_on_c, 0, 42, 0
1, 451440, Note_on_c, 0, 44, 0
1, 451443, Note_on_c, 0, 54, 0
1, 451443, Note_on_c, 0, 48, 0
1, 451443, Note_on_c, 0, 51, 0
1, 451689, Note_on_c, 0, 68, 108
1, 451689, Note_on_c, 0, 73, 108
1, 451689, Note_on_c, 0, 76, 108
1, 451692, Note_on_c, 0, 80, 117
1, 451692, Note_on_c, 0, 40, 77
1, 451692, Note_on_c, 0, 44, 77
1, 451695, Note_on_c, 0, 49, 77
1, 451695, Note_on_c, 0, 52, 88
1, 451846, Note_on_c, 0, 76, 0
1, 451846, Note_on_c, 0, 68, 0
1, 451846, Note_on_c, 0, 73, 0
1, 451849, Note_on_c, 0, 80, 0
1, 451849, Note_on_c, 0, 40, 0
1, 451849, Note_on_c, 0, 44, 0
1, 451852, Note_on_c, 0, 52, 0
1, 451852, Note_on_c, 0, 49, 0
1, 452098, Note_on_c, 0, 66, 90
1, 452098, Note_on_c, 0, 68, 90
1, 452098, Note_on_c, 0, 75, 90
1, 452101, Note_on_c, 0, 78, 102
1, 452101, Note_on_c, 0, 39, 76
1, 452101, Note_on_c, 0, 44, 76
1, 452104, Note_on_c, 0, 48, 76
1, 452104, Note_on_c, 0, 51, 88
1, 452254, Note_on_c, 0, 75, 0
1, 452254, Note_on_c, 0, 66, 0
1, 452254, Note_on_c, 0, 68, 0
1, 452257, Note_on_c, 0, 78, 0
1, 452257, Note_on_c, 0, 39, 0
1, 452257, Note_on_c, 0, 44, 0
1, 452260, Note_on_c, 0, 51, 0
1, 452260, Note_on_c, 0, 48, 0
1, 452506, Control_c, 0, 64, 0
1, 452506, Note_on_c, 0, 64, 95
1, 452506, Note_on_c, 0, 68, 95
1, 452509, Note_on_c, 0, 73, 95
1, 452509, Note_on_c, 0, 76, 108
1, 452509, Control_c, 0, 64, 0
1, 452512, Control_c, 0, 64, 0
1, 452512, Note_on_c, 0, 44, 88
1, 452512, Note_on_c, 0, 49, 88
1, 452515, Note_on_c, 0, 52, 88
1, 452515, Note_on_c, 0, 56, 101
1, 452666, Note_on_c, 0, 73, 0
1, 452666, Note_on_c, 0, 64, 0
1, 452666, Note_on_c, 0, 68, 0
1, 452669, Note_on_c, 0, 76, 0
1, 452669, Note_on_c, 0, 44, 0
1, 452669, Note_on_c, 0, 49, 0
1, 452672, Note_on_c, 0, 56, 0
1, 452672, Note_on_c, 0, 52, 0
1, 452922, Note_on_c, 0, 63, 95
1, 452922, Note_on_c, 0, 68, 95
1, 452922, Note_on_c, 0, 72, 95
1, 452925, Note_on_c, 0, 75, 107
1, 452925, Note_on_c, 0, 42, 82
1, 452925, Note_on_c, 0, 44, 82
1, 452928, Note_on_c, 0, 48, 82
1, 452928, Note_on_c, 0, 51, 82
1, 452928, Note_on_c, 0, 54, 94
1, 453086, Note_on_c, 0, 72, 0
1, 453086, Note_on_c, 0, 63, 0
1, 453086, Note_on_c, 0, 68, 0
1, 453089, Note_on_c, 0, 75, 0
1, 453089, Note_on_c, 0, 42, 0
1, 453089, Note_on_c, 0, 44, 0
1, 453092, Note_on_c, 0, 54, 0
1, 453092, Note_on_c, 0, 48, 0
1, 453092, Note_on_c, 0, 51, 0
1, 453350, Note_on_c, 0, 61, 94
1, 453350, Note_on_c, 0, 64, 94
1, 453350, Note_on_c, 0, 68, 94
1, 453353, Note_on_c, 0, 73, 106
1, 453353, Note_on_c, 0, 40, 83
1, 453353, Note_on_c, 0, 44, 83
1, 453356, Note_on_c, 0, 49, 83
1, 453356, Note_on_c, 0, 52, 96
1, 453522, Note_on_c, 0, 68, 0
1, 453522, Note_on_c, 0, 61, 0
1, 453522, Note_on_c, 0, 64, 0
1, 453525, Note_on_c, 0, 73, 0
1, 453525, Note_on_c, 0, 40, 0
1, 453525, Note_on_c, 0, 44, 0
1, 453528, Note_on_c, 0, 52, 0
1, 453528, Note_on_c, 0, 49, 0
1, 453799, Note_on_c, 0, 39, 85
1, 453799, Note_on_c, 0, 44, 85
1, 453799, Note_on_c, 0, 51, 98
1, 453991, Note_on_c, 0, 51, 0
1, 453991, Note_on_c, 0, 44, 0
1, 453991, Note_on_c, 0, 39, 0
1, 454299, Note_on_c, 0, 73, 77
1, 454299, Note_on_c, 0, 76, 77
1, 454299, Note_on_c, 0, 80, 77
1, 454302, Note_on_c, 0, 85, 96
1, 454302, Note_on_c, 0, 37, 77
1, 454302, Note_on_c, 0, 44, 77
1, 454305, Note_on_c, 0, 49, 77
1, 454359, Note_on_c, 0, 80, 0
1, 454359, Note_on_c, 0, 73, 0
1, 454359, Note_on_c, 0, 76, 0
1, 454362, Note_on_c, 0, 85, 0
1, 454376, Note_on_c, 0, 49, 0
1, 454376, Note_on_c, 0, 44, 0
1, 454376, Note_on_c, 0, 37, 0
1, 454558, Note_on_c, 0, 75, 77
1, 454558, Note_on_c, 0, 87, 89
1, 454586, Note_on_c, 0, 87, 0
1, 454586, Note_on_c, 0, 75, 0
1, 454638, Note_on_c, 0, 76, 77
1, 454638, Note_on_c, 0, 88, 94
1, 454699, Note_on_c, 0, 88, 0
1, 454699, Note_on_c, 0, 76, 0
1, 454811, Note_on_c, 0, 76, 77
1, 454811, Note_on_c, 0, 80, 77
1, 454811, Note_on_c, 0, 88, 98
1, 454814, Note_on_c, 0, 61, 77
1, 454814, Note_on_c, 0, 73, 89
1, 454867, Note_on_c, 0, 88, 0
1, 454867, Note_on_c, 0, 76, 0
1, 454867, Note_on_c, 0, 80, 0
1, 454870, Note_on_c, 0, 61, 0
1, 454870, Note_on_c, 0, 73, 0
1, 455052, Note_on_c, 0, 63, 77
1, 455052, Note_on_c, 0, 75, 89
1, 455080, Note_on_c, 0, 75, 0
1, 455080, Note_on_c, 0, 63, 0
1, 455132, Note_on_c, 0, 64, 77
1, 455132, Note_on_c, 0, 76, 89
1, 455192, Note_on_c, 0, 76, 0
1, 455192, Note_on_c, 0, 64, 0
1, 455305, Note_on_c, 0, 64, 77
1, 455305, Note_on_c, 0, 76, 96
1, 455305, Note_on_c, 0, 68, 77
1, 455308, Note_on_c, 0, 80, 96
1, 455361, Note_on_c, 0, 68, 0
1, 455361, Note_on_c, 0, 64, 0
1, 455361, Note_on_c, 0, 76, 0
1, 455364, Note_on_c, 0, 80, 0
1, 455545, Note_on_c, 0, 69, 77
1, 455545, Note_on_c, 0, 81, 94
1, 455574, Note_on_c, 0, 81, 0
1, 455574, Note_on_c, 0, 69, 0
1, 455626, Note_on_c, 0, 71, 77
1, 455626, Note_on_c, 0, 83, 89
1, 455686, Note_on_c, 0, 83, 0
1, 455686, Note_on_c, 0, 71, 0
1, 455798, Note_on_c, 0, 56, 77
1, 455798, Note_on_c, 0, 68, 89
1, 455798, Note_on_c, 0, 71, 77
1, 455801, Note_on_c, 0, 76, 77
1, 455801, Note_on_c, 0, 83, 98
1, 455854, Note_on_c, 0, 71, 0
1, 455854, Note_on_c, 0, 56, 0
1, 455854, Note_on_c, 0, 68, 0
1, 455857, Note_on_c, 0, 76, 0
1, 455857, Note_on_c, 0, 83, 0
1, 456039, Note_on_c, 0, 57, 77
1, 456039, Note_on_c, 0, 69, 89
1, 456067, Note_on_c, 0, 69, 0
1, 456067, Note_on_c, 0, 57, 0
1, 456119, Note_on_c, 0, 59, 77
1, 456119, Note_on_c, 0, 71, 89
1, 456180, Note_on_c, 0, 71, 0
1, 456180, Note_on_c, 0, 59, 0
1, 456292, Note_on_c, 0, 66, 77
1, 456292, Note_on_c, 0, 76, 77
1, 456292, Note_on_c, 0, 78, 96
1, 456295, Note_on_c, 0, 59, 77
1, 456295, Note_on_c, 0, 71, 96
1, 456348, Note_on_c, 0, 78, 0
1, 456348, Note_on_c, 0, 66, 0
1, 456348, Note_on_c, 0, 76, 0
1, 456351, Note_on_c, 0, 59, 0
1, 456351, Note_on_c, 0, 71, 0
1, 456533, Note_on_c, 0, 68, 77
1, 456533, Note_on_c, 0, 80, 94
1, 456561, Note_on_c, 0, 80, 0
1, 456561, Note_on_c, 0, 68, 0
1, 456613, Note_on_c, 0, 69, 77
1, 456613, Note_on_c, 0, 81, 89
1, 456673, Note_on_c, 0, 81, 0
1, 456673, Note_on_c, 0, 69, 0
1, 456786, Note_on_c, 0, 54, 77
1, 456786, Note_on_c, 0, 66, 89
1, 456786, Note_on_c, 0, 69, 77
1, 456789, Note_on_c, 0, 76, 77
1, 456789, Note_on_c, 0, 81, 98
1, 456842, Note_on_c, 0, 69, 0
1, 456842, Note_on_c, 0, 54, 0
1, 456842, Note_on_c, 0, 66, 0
1, 456845, Note_on_c, 0, 76, 0
1, 456845, Note_on_c, 0, 81, 0
1, 457026, Note_on_c, 0, 56, 77
1, 457026, Note_on_c, 0, 68, 89
1, 457055, Note_on_c, 0, 68, 0
1, 457055, Note_on_c, 0, 56, 0
1, 457107, Note_on_c, 0, 57, 77
1, 457107, Note_on_c, 0, 69, 89
1, 457167, Note_on_c, 0, 69, 0
1, 457167, Note_on_c, 0, 57, 0
1, 457279, Note_on_c, 0, 57, 77
1, 457279, Note_on_c, 0, 69, 96
1, 457279, Note_on_c, 0, 64, 77
1, 457282, Note_on_c, 0, 73, 77
1, 457282, Note_on_c, 0, 76, 96
1, 457336, Note_on_c, 0, 64, 0
1, 457336, Note_on_c, 0, 57, 0
1, 457336, Note_on_c, 0, 69, 0
1, 457339, Note_on_c, 0, 73, 0
1, 457339, Note_on_c, 0, 76, 0
1, 457520, Note_on_c, 0, 66, 77
1, 457520, Note_on_c, 0, 78, 94
1, 457548, Note_on_c, 0, 78, 0
1, 457548, Note_on_c, 0, 66, 0
1, 457600, Note_on_c, 0, 68, 77
1, 457600, Note_on_c, 0, 80, 89
1, 457661, Note_on_c, 0, 80, 0
1, 457661, Note_on_c, 0, 68, 0
1, 457773, Note_on_c, 0, 52, 77
1, 457773, Note_on_c, 0, 64, 89
1, 457773, Note_on_c, 0, 68, 77
1, 457776, Note_on_c, 0, 76, 77
1, 457776, Note_on_c, 0, 80, 98
1, 457829, Note_on_c, 0, 68, 0
1, 457829, Note_on_c, 0, 52, 0
1, 457829, Note_on_c, 0, 64, 0
1, 457832, Note_on_c, 0, 76, 0
1, 457832, Note_on_c, 0, 80, 0
1, 458014, Note_on_c, 0, 54, 77
1, 458014, Note_on_c, 0, 66, 89
1, 458042, Note_on_c, 0, 66, 0
1, 458042, Note_on_c, 0, 54, 0
1, 458094, Note_on_c, 0, 56, 77
1, 458094, Note_on_c, 0, 68, 89
1, 458155, Note_on_c, 0, 68, 0
1, 458155, Note_on_c, 0, 56, 0
1, 458267, Note_on_c, 0, 72, 70
1, 458267, Note_on_c, 0, 80, 88
1, 458267, Note_on_c, 0, 56, 70
1, 458270, Note_on_c, 0, 68, 81
1, 458327, Note_on_c, 0, 56, 0
1, 458327, Note_on_c, 0, 72, 0
1, 458327, Note_on_c, 0, 80, 0
1, 458330, Note_on_c, 0, 68, 0
1, 458526, Note_on_c, 0, 78, 71
1, 458526, Note_on_c, 0, 81, 81
1, 458554, Note_on_c, 0, 81, 0
1, 458554, Note_on_c, 0, 78, 0
1, 458606, Note_on_c, 0, 72, 71
1, 458606, Note_on_c, 0, 80, 81
1, 458667, Note_on_c, 0, 80, 0
1, 458667, Note_on_c, 0, 72, 0
1, 458779, Note_on_c, 0, 78, 71
1, 458779, Note_on_c, 0, 87, 89
1, 458779, Note_on_c, 0, 56, 71
1, 458782, Note_on_c, 0, 69, 91
1, 458840, Note_on_c, 0, 56, 0
1, 458840, Note_on_c, 0, 78, 0
1, 458840, Note_on_c, 0, 87, 0
1, 458843, Note_on_c, 0, 69, 0
1, 459038, Note_on_c, 0, 68, 82
1, 459067, Note_on_c, 0, 68, 0
1, 459119, Note_on_c, 0, 72, 72
1, 459119, Note_on_c, 0, 80, 82
1, 459119, Note_on_c, 0, 66, 82
1, 459190, Note_on_c, 0, 66, 0
1, 459190, Note_on_c, 0, 80, 0
1, 459190, Note_on_c, 0, 72, 0
1, 459323, Note_on_c, 0, 73, 72
1, 459323, Note_on_c, 0, 80, 90
1, 459323, Note_on_c, 0, 56, 72
1, 459326, Note_on_c, 0, 64, 89
1, 459379, Note_on_c, 0, 56, 0
1, 459379, Note_on_c, 0, 73, 0
1, 459379, Note_on_c, 0, 80, 0
1, 459382, Note_on_c, 0, 64, 0
1, 459563, Note_on_c, 0, 76, 73
1, 459563, Note_on_c, 0, 81, 83
1, 459592, Note_on_c, 0, 81, 0
1, 459592, Note_on_c, 0, 76, 0
1, 459644, Note_on_c, 0, 73, 73
1, 459644, Note_on_c, 0, 80, 83
1, 459704, Note_on_c, 0, 80, 0
1, 459704, Note_on_c, 0, 73, 0
1, 459816, Note_on_c, 0, 76, 73
1, 459816, Note_on_c, 0, 85, 91
1, 459816, Note_on_c, 0, 56, 73
1, 459819, Note_on_c, 0, 68, 93
1, 459873, Note_on_c, 0, 56, 0
1, 459873, Note_on_c, 0, 76, 0
1, 459873, Note_on_c, 0, 85, 0
1, 459876, Note_on_c, 0, 68, 0
1, 460057, Note_on_c, 0, 66, 85
1, 460085, Note_on_c, 0, 66, 0
1, 460137, Note_on_c, 0, 73, 73
1, 460137, Note_on_c, 0, 80, 85
1, 460137, Note_on_c, 0, 64, 85
1, 460209, Note_on_c, 0, 64, 0
1, 460209, Note_on_c, 0, 80, 0
1, 460209, Note_on_c, 0, 73, 0
1, 460342, Note_on_c, 0, 72, 74
1, 460342, Note_on_c, 0, 80, 92
1, 460342, Note_on_c, 0, 56, 74
1, 460345, Note_on_c, 0, 63, 91
1, 460402, Note_on_c, 0, 56, 0
1, 460402, Note_on_c, 0, 72, 0
1, 460402, Note_on_c, 0, 80, 0
1, 460405, Note_on_c, 0, 63, 0
1, 460601, Note_on_c, 0, 75, 75
1, 460601, Note_on_c, 0, 82, 87
1, 460627, Note_on_c, 0, 82, 0
1, 460627, Note_on_c, 0, 75, 0
1, 460676, Note_on_c, 0, 72, 76
1, 460676, Note_on_c, 0, 80, 88
1, 460732, Note_on_c, 0, 80, 0
1, 460732, Note_on_c, 0, 72, 0
1, 460836, Note_on_c, 0, 73, 76
1, 460836, Note_on_c, 0, 85, 97
1, 460836, Note_on_c, 0, 61, 74
1, 460839, Note_on_c, 0, 68, 92
1, 460897, Note_on_c, 0, 61, 0
1, 460897, Note_on_c, 0, 73, 0
1, 460897, Note_on_c, 0, 85, 0
1, 460900, Note_on_c, 0, 68, 0
1, 461095, Note_on_c, 0, 80, 78
1, 461095, Note_on_c, 0, 87, 90
1, 461095, Note_on_c, 0, 53, 75
1, 461124, Note_on_c, 0, 53, 0
1, 461124, Note_on_c, 0, 87, 0
1, 461124, Note_on_c, 0, 80, 0
1, 461176, Note_on_c, 0, 73, 79
1, 461176, Note_on_c, 0, 85, 92
1, 461176, Note_on_c, 0, 61, 75
1, 461179, Note_on_c, 0, 68, 87
1, 461247, Note_on_c, 0, 61, 0
1, 461247, Note_on_c, 0, 73, 0
1, 461247, Note_on_c, 0, 85, 0
1, 461250, Note_on_c, 0, 68, 0
1, 461380, Note_on_c, 0, 73, 80
1, 461380, Note_on_c, 0, 79, 101
1, 461380, Note_on_c, 0, 63, 68
1, 461383, Note_on_c, 0, 67, 86
1, 461440, Note_on_c, 0, 63, 0
1, 461440, Note_on_c, 0, 73, 0
1, 461440, Note_on_c, 0, 79, 0
1, 461443, Note_on_c, 0, 67, 0
1, 461639, Note_on_c, 0, 75, 82
1, 461639, Note_on_c, 0, 84, 95
1, 461639, Note_on_c, 0, 51, 76
1, 461665, Note_on_c, 0, 51, 0
1, 461665, Note_on_c, 0, 84, 0
1, 461665, Note_on_c, 0, 75, 0
1, 461714, Note_on_c, 0, 73, 82
1, 461714, Note_on_c, 0, 82, 96
1, 461714, Note_on_c, 0, 63, 76
1, 461717, Note_on_c, 0, 67, 88
1, 461785, Note_on_c, 0, 63, 0
1, 461785, Note_on_c, 0, 73, 0
1, 461785, Note_on_c, 0, 82, 0
1, 461788, Note_on_c, 0, 67, 0
1, 461918, Note_on_c, 0, 72, 76
1, 461918, Note_on_c, 0, 80, 95
1, 461918, Note_on_c, 0, 56, 76
1, 461921, Note_on_c, 0, 63, 76
1, 461921, Note_on_c, 0, 68, 88
1, 461979, Note_on_c, 0, 56, 0
1, 461979, Note_on_c, 0, 72, 0
1, 461979, Note_on_c, 0, 80, 0
1, 461982, Note_on_c, 0, 63, 0
1, 461982, Note_on_c, 0, 68, 0
1, 462177, Note_on_c, 0, 75, 77
1, 462177, Note_on_c, 0, 82, 88
1, 462204, Note_on_c, 0, 82, 0
1, 462204, Note_on_c, 0, 75, 0
1, 462252, Note_on_c, 0, 72, 77
1, 462252, Note_on_c, 0, 80, 88
1, 462324, Note_on_c, 0, 80, 0
1, 462324, Note_on_c, 0, 72, 0
1, 462456, Note_on_c, 0, 73, 77
1, 462456, Note_on_c, 0, 76, 77
1, 462456, Note_on_c, 0, 80, 77
1, 462459, Note_on_c, 0, 85, 96
1, 462517, Note_on_c, 0, 80, 0
1, 462517, Note_on_c, 0, 73, 0
1, 462517, Note_on_c, 0, 76, 0
1, 462520, Note_on_c, 0, 85, 0
1, 462716, Note_on_c, 0, 75, 77
1, 462716, Note_on_c, 0, 87, 89
1, 462744, Note_on_c, 0, 87, 0
1, 462744, Note_on_c, 0, 75, 0
1, 462796, Note_on_c, 0, 76, 77
1, 462796, Note_on_c, 0, 88, 94
1, 462856, Note_on_c, 0, 88, 0
1, 462856, Note_on_c, 0, 76, 0
1, 462969, Note_on_c, 0, 76, 77
1, 462969, Note_on_c, 0, 80, 77
1, 462969, Note_on_c, 0, 88, 98
1, 462972, Note_on_c, 0, 61, 77
1, 462972, Note_on_c, 0, 73, 89
1, 463025, Note_on_c, 0, 88, 0
1, 463025, Note_on_c, 0, 76, 0
1, 463025, Note_on_c, 0, 80, 0
1, 463028, Note_on_c, 0, 61, 0
1, 463028, Note_on_c, 0, 73, 0
1, 463209, Note_on_c, 0, 63, 77
1, 463209, Note_on_c, 0, 75, 89
1, 463238, Note_on_c, 0, 75, 0
1, 463238, Note_on_c, 0, 63, 0
1, 463290, Note_on_c, 0, 64, 77
1, 463290, Note_on_c, 0, 76, 89
1, 463350, Note_on_c, 0, 76, 0
1, 463350, Note_on_c, 0, 64, 0
1, 463462, Note_on_c, 0, 64, 77
1, 463462, Note_on_c, 0, 76, 96
1, 463462, Note_on_c, 0, 68, 77
1, 463465, Note_on_c, 0, 71, 96
1, 463465, Note_on_c, 0, 80, 77
1, 463518, Note_on_c, 0, 68, 0
1, 463518, Note_on_c, 0, 64, 0
1, 463518, Note_on_c, 0, 76, 0
1, 463521, Note_on_c, 0, 71, 0
1, 463521, Note_on_c, 0, 80, 0
1, 463703, Note_on_c, 0, 69, 77
1, 463703, Note_on_c, 0, 81, 94
1, 463731, Note_on_c, 0, 81, 0
1, 463731, Note_on_c, 0, 69, 0
1, 463783, Note_on_c, 0, 71, 77
1, 463783, Note_on_c, 0, 83, 89
1, 463844, Note_on_c, 0, 83, 0
1, 463844, Note_on_c, 0, 71, 0
1, 463956, Note_on_c, 0, 52, 77
1, 463956, Note_on_c, 0, 64, 89
1, 463956, Note_on_c, 0, 71, 77
1, 463959, Note_on_c, 0, 74, 77
1, 463959, Note_on_c, 0, 83, 98
1, 464012, Note_on_c, 0, 71, 0
1, 464012, Note_on_c, 0, 52, 0
1, 464012, Note_on_c, 0, 64, 0
1, 464015, Note_on_c, 0, 74, 0
1, 464015, Note_on_c, 0, 83, 0
1, 464197, Note_on_c, 0, 54, 77
1, 464197, Note_on_c, 0, 64, 89
1, 464225, Note_on_c, 0, 64, 0
1, 464225, Note_on_c, 0, 54, 0
1, 464277, Note_on_c, 0, 56, 77
1, 464277, Note_on_c, 0, 64, 89
1, 464337, Note_on_c, 0, 64, 0
1, 464337, Note_on_c, 0, 56, 0
1, 464450, Note_on_c, 0, 73, 73
1, 464450, Note_on_c, 0, 81, 73
1, 464450, Note_on_c, 0, 85, 92
1, 464453, Note_on_c, 0, 57, 73
1, 464453, Note_on_c, 0, 64, 83
1, 464506, Note_on_c, 0, 85, 0
1, 464506, Note_on_c, 0, 73, 0
1, 464506, Note_on_c, 0, 81, 0
1, 464509, Note_on_c, 0, 57, 0
1, 464509, Note_on_c, 0, 64, 0
1, 464690, Note_on_c, 0, 76, 74
1, 464690, Note_on_c, 0, 80, 86
1, 464690, Note_on_c, 0, 86, 74
1, 464719, Note_on_c, 0, 86, 0
1, 464719, Note_on_c, 0, 80, 0
1, 464719, Note_on_c, 0, 76, 0
1, 464771, Note_on_c, 0, 76, 75
1, 464771, Note_on_c, 0, 81, 91
1, 464771, Note_on_c, 0, 85, 75
1, 464831, Note_on_c, 0, 85, 0
1, 464831, Note_on_c, 0, 81, 0
1, 464831, Note_on_c, 0, 76, 0
1, 464943, Note_on_c, 0, 76, 76
1, 464943, Note_on_c, 0, 81, 76
1, 464943, Note_on_c, 0, 85, 97
1, 464946, Note_on_c, 0, 61, 76
1, 464946, Note_on_c, 0, 69, 88
1, 465000, Note_on_c, 0, 85, 0
1, 465000, Note_on_c, 0, 76, 0
1, 465000, Note_on_c, 0, 81, 0
1, 465003, Note_on_c, 0, 61, 0
1, 465003, Note_on_c, 0, 69, 0
1, 465184, Note_on_c, 0, 64, 77
1, 465184, Note_on_c, 0, 71, 90
1, 465212, Note_on_c, 0, 71, 0
1, 465212, Note_on_c, 0, 64, 0
1, 465264, Note_on_c, 0, 69, 78
1, 465264, Note_on_c, 0, 73, 91
1, 465325, Note_on_c, 0, 73, 0
1, 465325, Note_on_c, 0, 69, 0
1, 465437, Note_on_c, 0, 81, 79
1, 465437, Note_on_c, 0, 85, 99
1, 465437, Note_on_c, 0, 69, 79
1, 465440, Note_on_c, 0, 73, 92
1, 465493, Note_on_c, 0, 69, 0
1, 465493, Note_on_c, 0, 81, 0
1, 465493, Note_on_c, 0, 85, 0
1, 465496, Note_on_c, 0, 73, 0
1, 465678, Note_on_c, 0, 81, 81
1, 465678, Note_on_c, 0, 86, 99
1, 465708, Note_on_c, 0, 86, 0
1, 465708, Note_on_c, 0, 81, 0
1, 465764, Note_on_c, 0, 81, 81
1, 465764, Note_on_c, 0, 88, 95
1, 465825, Note_on_c, 0, 88, 0
1, 465825, Note_on_c, 0, 81, 0
1, 465937, Note_on_c, 0, 81, 93
1, 465937, Note_on_c, 0, 90, 106
1, 465937, Note_on_c, 0, 72, 83
1, 465940, Note_on_c, 0, 75, 96
1, 465993, Note_on_c, 0, 75, 0
1, 465993, Note_on_c, 0, 72, 0
1, 466178, Note_on_c, 0, 73, 84
1, 466178, Note_on_c, 0, 76, 98
1, 466206, Note_on_c, 0, 76, 0
1, 466206, Note_on_c, 0, 73, 0
1, 466258, Note_on_c, 0, 72, 85
1, 466258, Note_on_c, 0, 75, 99
1, 466318, Note_on_c, 0, 75, 0
1, 466318, Note_on_c, 0, 72, 0
1, 466431, Note_on_c, 0, 80, 77
1, 466431, Note_on_c, 0, 88, 89
1, 466431, Note_on_c, 0, 73, 65
1, 466434, Note_on_c, 0, 76, 77
1, 466440, Note_on_c, 0, 90, 0
1, 466440, Note_on_c, 0, 81, 0
1, 466487, Note_on_c, 0, 88, 0
1, 466487, Note_on_c, 0, 80, 0
1, 466509, Note_on_c, 0, 76, 0
1, 466509, Note_on_c, 0, 73, 0
1, 466655, Note_on_c, 0, 73, 65
1, 466655, Note_on_c, 0, 76, 77
1, 466721, Note_on_c, 0, 76, 0
1, 466721, Note_on_c, 0, 73, 0
1, 466843, Note_on_c, 0, 78, 77
1, 466843, Note_on_c, 0, 87, 89
1, 466843, Note_on_c, 0, 69, 65
1, 466846, Note_on_c, 0, 72, 77
1, 466903, Note_on_c, 0, 69, 0
1, 466903, Note_on_c, 0, 78, 0
1, 466903, Note_on_c, 0, 87, 0
1, 466906, Note_on_c, 0, 72, 0
1, 467015, Note_on_c, 0, 76, 77
1, 467015, Note_on_c, 0, 85, 89
1, 467015, Note_on_c, 0, 68, 65
1, 467018, Note_on_c, 0, 73, 77
1, 467072, Note_on_c, 0, 68, 0
1, 467072, Note_on_c, 0, 76, 0
1, 467072, Note_on_c, 0, 85, 0
1, 467075, Note_on_c, 0, 73, 0
1, 467176, Note_on_c, 0, 76, 77
1, 467176, Note_on_c, 0, 85, 89
1, 467228, Note_on_c, 0, 85, 0
1, 467228, Note_on_c, 0, 76, 0
1, 467326, Note_on_c, 0, 74, 77
1, 467326, Note_on_c, 0, 83, 89
1, 467326, Note_on_c, 0, 65, 65
1, 467329, Note_on_c, 0, 68, 77
1, 467378, Note_on_c, 0, 65, 0
1, 467378, Note_on_c, 0, 74, 0
1, 467378, Note_on_c, 0, 83, 0
1, 467381, Note_on_c, 0, 68, 0
1, 467475, Note_on_c, 0, 73, 77
1, 467475, Note_on_c, 0, 81, 89
1, 467475, Note_on_c, 0, 64, 65
1, 467478, Note_on_c, 0, 69, 77
1, 467525, Note_on_c, 0, 64, 0
1, 467525, Note_on_c, 0, 73, 0
1, 467525, Note_on_c, 0, 81, 0
1, 467528, Note_on_c, 0, 69, 0
1, 467616, Note_on_c, 0, 64, 65
1, 467616, Note_on_c, 0, 69, 77
1, 467665, Note_on_c, 0, 69, 0
1, 467665, Note_on_c, 0, 64, 0
1, 467756, Note_on_c, 0, 71, 77
1, 467756, Note_on_c, 0, 80, 88
1, 467756, Note_on_c, 0, 62, 65
1, 467759, Note_on_c, 0, 65, 77
1, 467805, Note_on_c, 0, 62, 0
1, 467805, Note_on_c, 0, 71, 0
1, 467805, Note_on_c, 0, 80, 0
1, 467808, Note_on_c, 0, 65, 0
1, 467897, Note_on_c, 0, 70, 75
1, 467897, Note_on_c, 0, 78, 85
1, 467897, Note_on_c, 0, 61, 65
1, 467900, Note_on_c, 0, 66, 77
1, 467946, Note_on_c, 0, 61, 0
1, 467946, Note_on_c, 0, 70, 0
1, 467946, Note_on_c, 0, 78, 0
1, 467949, Note_on_c, 0, 66, 0
1, 468037, Note_on_c, 0, 70, 72
1, 468037, Note_on_c, 0, 78, 83
1, 468086, Note_on_c, 0, 78, 0
1, 468086, Note_on_c, 0, 70, 0
1, 468177, Note_on_c, 0, 70, 63
1, 468177, Note_on_c, 0, 79, 83
1, 468177, Note_on_c, 0, 60, 65
1, 468180, Note_on_c, 0, 64, 77
1, 468243, Note_on_c, 0, 60, 0
1, 468243, Note_on_c, 0, 70, 0
1, 468243, Note_on_c, 0, 79, 0
1, 468246, Note_on_c, 0, 64, 0
1, 468365, Note_on_c, 0, 69, 68
1, 468365, Note_on_c, 0, 71, 68
1, 468365, Note_on_c, 0, 80, 89
1, 468368, Note_on_c, 0, 59, 65
1, 468368, Note_on_c, 0, 63, 77
1, 468605, Note_on_c, 0, 80, 0
1, 468605, Note_on_c, 0, 69, 0
1, 468605, Note_on_c, 0, 71, 0
1, 468608, Note_on_c, 0, 69, 77
1, 468608, Note_on_c, 0, 71, 77
1, 468608, Note_on_c, 0, 81, 89
1, 468686, Note_on_c, 0, 81, 0
1, 468686, Note_on_c, 0, 69, 0
1, 468686, Note_on_c, 0, 71, 0
1, 468689, Note_on_c, 0, 69, 77
1, 468689, Note_on_c, 0, 71, 77
1, 468689, Note_on_c, 0, 82, 89
1, 468751, Note_on_c, 0, 82, 0
1, 468751, Note_on_c, 0, 69, 0
1, 468751, Note_on_c, 0, 71, 0
1, 468873, Note_on_c, 0, 69, 77
1, 468873, Note_on_c, 0, 71, 77
1, 468873, Note_on_c, 0, 78, 77
1, 468876, Note_on_c, 0, 59, 0
1, 468876, Note_on_c, 0, 63, 0
1, 468876, Note_on_c, 0, 83, 98
1, 468879, Note_on_c, 0, 35, 65
1, 468879, Note_on_c, 0, 47, 77
1, 469132, Note_on_c, 0, 47, 0
1, 469132, Note_on_c, 0, 35, 0
1, 469132, Note_on_c, 0, 37, 65
1, 469135, Note_on_c, 0, 49, 77
1, 469218, Note_on_c, 0, 49, 0
1, 469218, Note_on_c, 0, 37, 0
1, 469218, Note_on_c, 0, 39, 65
1, 469221, Note_on_c, 0, 51, 77
1, 469279, Note_on_c, 0, 51, 0
1, 469279, Note_on_c, 0, 39, 0
1, 469391, Note_on_c, 0, 68, 77
1, 469391, Note_on_c, 0, 76, 77
1, 469391, Note_on_c, 0, 80, 89
1, 469394, Note_on_c, 0, 40, 65
1, 469394, Note_on_c, 0, 52, 77
1, 469398, Note_on_c, 0, 78, 0
1, 469398, Note_on_c, 0, 71, 0
1, 469398, Note_on_c, 0, 69, 0
1, 469401, Note_on_c, 0, 83, 0
1, 469578, Note_on_c, 0, 80, 0
1, 469578, Note_on_c, 0, 68, 0
1, 469578, Note_on_c, 0, 76, 0
1, 469672, Note_on_c, 0, 52, 0
1, 469672, Note_on_c, 0, 40, 0
1, 469672, Note_on_c, 0, 56, 73
1, 469774, Note_on_c, 0, 56, 0
1, 469774, Note_on_c, 0, 69, 65
1, 469774, Note_on_c, 0, 73, 77
1, 469777, Note_on_c, 0, 57, 70
1, 470024, Note_on_c, 0, 68, 58
1, 470024, Note_on_c, 0, 76, 70
1, 470024, Note_on_c, 0, 52, 50
1, 470027, Note_on_c, 0, 64, 59
1, 470032, Note_on_c, 0, 57, 0
1, 470032, Note_on_c, 0, 69, 0
1, 470032, Note_on_c, 0, 73, 0
1, 470432, Note_on_c, 0, 76, 0
1, 470432, Note_on_c, 0, 68, 0
1, 470432, Note_on_c, 0, 52, 0
1, 470435, Note_on_c, 0, 64, 0
1, 470636, Note_on_c, 0, 73, 77
1, 470636, Note_on_c, 0, 76, 77
1, 470636, Note_on_c, 0, 80, 77
1, 470639, Note_on_c, 0, 85, 96
1, 470639, Note_on_c, 0, 37, 77
1, 470639, Note_on_c, 0, 44, 77
1, 470642, Note_on_c, 0, 49, 77
1, 470697, Note_on_c, 0, 80, 0
1, 470697, Note_on_c, 0, 73, 0
1, 470697, Note_on_c, 0, 76, 0
1, 470700, Note_on_c, 0, 85, 0
1, 470714, Note_on_c, 0, 49, 0
1, 470714, Note_on_c, 0, 44, 0
1, 470714, Note_on_c, 0, 37, 0
1, 470895, Note_on_c, 0, 75, 77
1, 470895, Note_on_c, 0, 87, 89
1, 470924, Note_on_c, 0, 87, 0
1, 470924, Note_on_c, 0, 75, 0
1, 470976, Note_on_c, 0, 76, 77
1, 470976, Note_on_c, 0, 88, 94
1, 471036, Note_on_c, 0, 88, 0
1, 471036, Note_on_c, 0, 76, 0
1, 471149, Note_on_c, 0, 76, 77
1, 471149, Note_on_c, 0, 80, 77
1, 471149, Note_on_c, 0, 88, 98
1, 471152, Note_on_c, 0, 61, 77
1, 471152, Note_on_c, 0, 73, 89
1, 471205, Note_on_c, 0, 88, 0
1, 471205, Note_on_c, 0, 76, 0
1, 471205, Note_on_c, 0, 80, 0
1, 471208, Note_on_c, 0, 61, 0
1, 471208, Note_on_c, 0, 73, 0
1, 471389, Note_on_c, 0, 63, 77
1, 471389, Note_on_c, 0, 75, 89
1, 471417, Note_on_c, 0, 75, 0
1, 471417, Note_on_c, 0, 63, 0
1, 471469, Note_on_c, 0, 64, 77
1, 471469, Note_on_c, 0, 76, 89
1, 471530, Note_on_c, 0, 76, 0
1, 471530, Note_on_c, 0, 64, 0
1, 471642, Note_on_c, 0, 64, 77
1, 471642, Note_on_c, 0, 76, 96
1, 471642, Note_on_c, 0, 68, 77
1, 471645, Note_on_c, 0, 80, 96
1, 471698, Note_on_c, 0, 68, 0
1, 471698, Note_on_c, 0, 64, 0
1, 471698, Note_on_c, 0, 76, 0
1, 471701, Note_on_c, 0, 80, 0
1, 471883, Note_on_c, 0, 69, 77
1, 471883, Note_on_c, 0, 81, 94
1, 471911, Note_on_c, 0, 81, 0
1, 471911, Note_on_c, 0, 69, 0
1, 471963, Note_on_c, 0, 71, 77
1, 471963, Note_on_c, 0, 83, 89
1, 472024, Note_on_c, 0, 83, 0
1, 472024, Note_on_c, 0, 71, 0
1, 472136, Note_on_c, 0, 56, 77
1, 472136, Note_on_c, 0, 68, 89
1, 472136, Note_on_c, 0, 71, 77
1, 472139, Note_on_c, 0, 76, 77
1, 472139, Note_on_c, 0, 83, 98
1, 472192, Note_on_c, 0, 71, 0
1, 472192, Note_on_c, 0, 56, 0
1, 472192, Note_on_c, 0, 68, 0
1, 472195, Note_on_c, 0, 76, 0
1, 472195, Note_on_c, 0, 83, 0
1, 472377, Note_on_c, 0, 57, 77
1, 472377, Note_on_c, 0, 69, 89
1, 472405, Note_on_c, 0, 69, 0
1, 472405, Note_on_c, 0, 57, 0
1, 472457, Note_on_c, 0, 59, 77
1, 472457, Note_on_c, 0, 71, 89
1, 472517, Note_on_c, 0, 71, 0
1, 472517, Note_on_c, 0, 59, 0
1, 472630, Note_on_c, 0, 66, 77
1, 472630, Note_on_c, 0, 76, 77
1, 472630, Note_on_c, 0, 78, 96
1, 472633, Note_on_c, 0, 59, 77
1, 472633, Note_on_c, 0, 71, 96
1, 472686, Note_on_c, 0, 78, 0
1, 472686, Note_on_c, 0, 66, 0
1, 472686, Note_on_c, 0, 76, 0
1, 472689, Note_on_c, 0, 59, 0
1, 472689, Note_on_c, 0, 71, 0
1, 472870, Note_on_c, 0, 68, 77
1, 472870, Note_on_c, 0, 80, 94
1, 472899, Note_on_c, 0, 80, 0
1, 472899, Note_on_c, 0, 68, 0
1, 472951, Note_on_c, 0, 69, 77
1, 472951, Note_on_c, 0, 81, 89
1, 473011, Note_on_c, 0, 81, 0
1, 473011, Note_on_c, 0, 69, 0
1, 473123, Note_on_c, 0, 54, 77
1, 473123, Note_on_c, 0, 66, 89
1, 473123, Note_on_c, 0, 69, 77
1, 473126, Note_on_c, 0, 76, 77
1, 473126, Note_on_c, 0, 81, 98
1, 473179, Note_on_c, 0, 69, 0
1, 473179, Note_on_c, 0, 54, 0
1, 473179, Note_on_c, 0, 66, 0
1, 473182, Note_on_c, 0, 76, 0
1, 473182, Note_on_c, 0, 81, 0
1, 473364, Note_on_c, 0, 56, 77
1, 473364, Note_on_c, 0, 68, 89
1, 473392, Note_on_c, 0, 68, 0
1, 473392, Note_on_c, 0, 56, 0
1, 473444, Note_on_c, 0, 57, 77
1, 473444, Note_on_c, 0, 69, 89
1, 473505, Note_on_c, 0, 69, 0
1, 473505, Note_on_c, 0, 57, 0
1, 473617, Note_on_c, 0, 57, 77
1, 473617, Note_on_c, 0, 69, 96
1, 473617, Note_on_c, 0, 64, 77
1, 473620, Note_on_c, 0, 73, 77
1, 473620, Note_on_c, 0, 76, 96
1, 473673, Note_on_c, 0, 64, 0
1, 473673, Note_on_c, 0, 57, 0
1, 473673, Note_on_c, 0, 69, 0
1, 473676, Note_on_c, 0, 73, 0
1, 473676, Note_on_c, 0, 76, 0
1, 473858, Note_on_c, 0, 66, 77
1, 473858, Note_on_c, 0, 78, 94
1, 473886, Note_on_c, 0, 78, 0
1, 473886, Note_on_c, 0, 66, 0
1, 473938, Note_on_c, 0, 68, 77
1, 473938, Note_on_c, 0, 80, 89
1, 473998, Note_on_c, 0, 80, 0
1, 473998, Note_on_c, 0, 68, 0
1, 474111, Note_on_c, 0, 52, 77
1, 474111, Note_on_c, 0, 64, 89
1, 474111, Note_on_c, 0, 68, 77
1, 474114, Note_on_c, 0, 76, 77
1, 474114, Note_on_c, 0, 80, 98
1, 474167, Note_on_c, 0, 68, 0
1, 474167, Note_on_c, 0, 52, 0
1, 474167, Note_on_c, 0, 64, 0
1, 474170, Note_on_c, 0, 76, 0
1, 474170, Note_on_c, 0, 80, 0
1, 474351, Note_on_c, 0, 54, 77
1, 474351, Note_on_c, 0, 66, 89
1, 474380, Note_on_c, 0, 66, 0
1, 474380, Note_on_c, 0, 54, 0
1, 474432, Note_on_c, 0, 56, 77
1, 474432, Note_on_c, 0, 68, 89
1, 474492, Note_on_c, 0, 68, 0
1, 474492, Note_on_c, 0, 56, 0
1, 474605, Note_on_c, 0, 72, 70
1, 474605, Note_on_c, 0, 80, 88
1, 474605, Note_on_c, 0, 56, 70
1, 474608, Note_on_c, 0, 68, 81
1, 474665, Note_on_c, 0, 56, 0
1, 474665, Note_on_c, 0, 72, 0
1, 474665, Note_on_c, 0, 80, 0
1, 474668, Note_on_c, 0, 68, 0
1, 474864, Note_on_c, 0, 78, 71
1, 474864, Note_on_c, 0, 81, 81
1, 474892, Note_on_c, 0, 81, 0
1, 474892, Note_on_c, 0, 78, 0
1, 474944, Note_on_c, 0, 72, 71
1, 474944, Note_on_c, 0, 80, 81
1, 475004, Note_on_c, 0, 80, 0
1, 475004, Note_on_c, 0, 72, 0
1, 475117, Note_on_c, 0, 78, 71
1, 475117, Note_on_c, 0, 87, 89
1, 475117, Note_on_c, 0, 56, 71
1, 475120, Note_on_c, 0, 69, 91
1, 475177, Note_on_c, 0, 56, 0
1, 475177, Note_on_c, 0, 78, 0
1, 475177, Note_on_c, 0, 87, 0
1, 475180, Note_on_c, 0, 69, 0
1, 475376, Note_on_c, 0, 68, 82
1, 475404, Note_on_c, 0, 68, 0
1, 475456, Note_on_c, 0, 72, 72
1, 475456, Note_on_c, 0, 80, 82
1, 475456, Note_on_c, 0, 66, 82
1, 475528, Note_on_c, 0, 66, 0
1, 475528, Note_on_c, 0, 80, 0
1, 475528, Note_on_c, 0, 72, 0
1, 475660, Note_on_c, 0, 73, 72
1, 475660, Note_on_c, 0, 80, 90
1, 475660, Note_on_c, 0, 56, 72
1, 475663, Note_on_c, 0, 64, 89
1, 475716, Note_on_c, 0, 56, 0
1, 475716, Note_on_c, 0, 73, 0
1, 475716, Note_on_c, 0, 80, 0
1, 475719, Note_on_c, 0, 64, 0
1, 475901, Note_on_c, 0, 76, 73
1, 475901, Note_on_c, 0, 81, 83
1, 475929, Note_on_c, 0, 81, 0
1, 475929, Note_on_c, 0, 76, 0
1, 475981, Note_on_c, 0, 73, 73
1, 475981, Note_on_c, 0, 80, 83
1, 476042, Note_on_c, 0, 80, 0
1, 476042, Note_on_c, 0, 73, 0
1, 476154, Note_on_c, 0, 76, 73
1, 476154, Note_on_c, 0, 85, 91
1, 476154, Note_on_c, 0, 56, 73
1, 476157, Note_on_c, 0, 68, 93
1, 476210, Note_on_c, 0, 56, 0
1, 476210, Note_on_c, 0, 76, 0
1, 476210, Note_on_c, 0, 85, 0
1, 476213, Note_on_c, 0, 68, 0
1, 476395, Note_on_c, 0, 66, 85
1, 476423, Note_on_c, 0, 66, 0
1, 476475, Note_on_c, 0, 73, 73
1, 476475, Note_on_c, 0, 80, 85
1, 476475, Note_on_c, 0, 64, 85
1, 476546, Note_on_c, 0, 64, 0
1, 476546, Note_on_c, 0, 80, 0
1, 476546, Note_on_c, 0, 73, 0
1, 476679, Note_on_c, 0, 72, 74
1, 476679, Note_on_c, 0, 80, 92
1, 476679, Note_on_c, 0, 56, 74
1, 476682, Note_on_c, 0, 63, 91
1, 476740, Note_on_c, 0, 56, 0
1, 476740, Note_on_c, 0, 72, 0
1, 476740, Note_on_c, 0, 80, 0
1, 476743, Note_on_c, 0, 63, 0
1, 476938, Note_on_c, 0, 75, 75
1, 476938, Note_on_c, 0, 82, 87
1, 476965, Note_on_c, 0, 82, 0
1, 476965, Note_on_c, 0, 75, 0
1, 477013, Note_on_c, 0, 72, 76
1, 477013, Note_on_c, 0, 80, 88
1, 477069, Note_on_c, 0, 80, 0
1, 477069, Note_on_c, 0, 72, 0
1, 477174, Note_on_c, 0, 73, 76
1, 477174, Note_on_c, 0, 85, 97
1, 477174, Note_on_c, 0, 61, 74
1, 477177, Note_on_c, 0, 68, 92
1, 477234, Note_on_c, 0, 61, 0
1, 477234, Note_on_c, 0, 73, 0
1, 477234, Note_on_c, 0, 85, 0
1, 477237, Note_on_c, 0, 68, 0
1, 477433, Note_on_c, 0, 80, 78
1, 477433, Note_on_c, 0, 87, 90
1, 477433, Note_on_c, 0, 53, 75
1, 477461, Note_on_c, 0, 53, 0
1, 477461, Note_on_c, 0, 87, 0
1, 477461, Note_on_c, 0, 80, 0
1, 477513, Note_on_c, 0, 73, 79
1, 477513, Note_on_c, 0, 85, 92
1, 477513, Note_on_c, 0, 61, 75
1, 477516, Note_on_c, 0, 68, 87
1, 477585, Note_on_c, 0, 61, 0
1, 477585, Note_on_c, 0, 73, 0
1, 477585, Note_on_c, 0, 85, 0
1, 477588, Note_on_c, 0, 68, 0
1, 477717, Note_on_c, 0, 73, 80
1, 477717, Note_on_c, 0, 79, 101
1, 477717, Note_on_c, 0, 63, 68
1, 477720, Note_on_c, 0, 67, 86
1, 477778, Note_on_c, 0, 63, 0
1, 477778, Note_on_c, 0, 73, 0
1, 477778, Note_on_c, 0, 79, 0
1, 477781, Note_on_c, 0, 67, 0
1, 477977, Note_on_c, 0, 75, 82
1, 477977, Note_on_c, 0, 84, 95
1, 477977, Note_on_c, 0, 51, 76
1, 478003, Note_on_c, 0, 51, 0
1, 478003, Note_on_c, 0, 84, 0
1, 478003, Note_on_c, 0, 75, 0
1, 478052, Note_on_c, 0, 73, 82
1, 478052, Note_on_c, 0, 82, 96
1, 478052, Note_on_c, 0, 63, 76
1, 478055, Note_on_c, 0, 67, 88
1, 478123, Note_on_c, 0, 63, 0
1, 478123, Note_on_c, 0, 73, 0
1, 478123, Note_on_c, 0, 82, 0
1, 478126, Note_on_c, 0, 67, 0
1, 478256, Note_on_c, 0, 72, 76
1, 478256, Note_on_c, 0, 80, 95
1, 478256, Note_on_c, 0, 56, 76
1, 478259, Note_on_c, 0, 63, 76
1, 478259, Note_on_c, 0, 68, 88
1, 478316, Note_on_c, 0, 56, 0
1, 478316, Note_on_c, 0, 72, 0
1, 478316, Note_on_c, 0, 80, 0
1, 478319, Note_on_c, 0, 63, 0
1, 478319, Note_on_c, 0, 68, 0
1, 478515, Note_on_c, 0, 75, 77
1, 478515, Note_on_c, 0, 82, 88
1, 478541, Note_on_c, 0, 82, 0
1, 478541, Note_on_c, 0, 75, 0
1, 478590, Note_on_c, 0, 72, 77
1, 478590, Note_on_c, 0, 80, 88
1, 478661, Note_on_c, 0, 80, 0
1, 478661, Note_on_c, 0, 72, 0
1, 478794, Note_on_c, 0, 73, 77
1, 478794, Note_on_c, 0, 76, 77
1, 478794, Note_on_c, 0, 80, 77
1, 478797, Note_on_c, 0, 85, 96
1, 478854, Note_on_c, 0, 80, 0
1, 478854, Note_on_c, 0, 73, 0
1, 478854, Note_on_c, 0, 76, 0
1, 478857, Note_on_c, 0, 85, 0
1, 479053, Note_on_c, 0, 75, 77
1, 479053, Note_on_c, 0, 87, 89
1, 479081, Note_on_c, 0, 87, 0
1, 479081, Note_on_c, 0, 75, 0
1, 479133, Note_on_c, 0, 76, 77
1, 479133, Note_on_c, 0, 88, 94
1, 479194, Note_on_c, 0, 88, 0
1, 479194, Note_on_c, 0, 76, 0
1, 479306, Note_on_c, 0, 76, 77
1, 479306, Note_on_c, 0, 80, 77
1, 479306, Note_on_c, 0, 88, 98
1, 479309, Note_on_c, 0, 61, 77
1, 479309, Note_on_c, 0, 73, 89
1, 479362, Note_on_c, 0, 88, 0
1, 479362, Note_on_c, 0, 76, 0
1, 479362, Note_on_c, 0, 80, 0
1, 479365, Note_on_c, 0, 61, 0
1, 479365, Note_on_c, 0, 73, 0
1, 479547, Note_on_c, 0, 63, 77
1, 479547, Note_on_c, 0, 75, 89
1, 479575, Note_on_c, 0, 75, 0
1, 479575, Note_on_c, 0, 63, 0
1, 479627, Note_on_c, 0, 64, 77
1, 479627, Note_on_c, 0, 76, 89
1, 479688, Note_on_c, 0, 76, 0
1, 479688, Note_on_c, 0, 64, 0
1, 479800, Note_on_c, 0, 64, 77
1, 479800, Note_on_c, 0, 76, 96
1, 479800, Note_on_c, 0, 68, 77
1, 479803, Note_on_c, 0, 71, 96
1, 479803, Note_on_c, 0, 80, 77
1, 479856, Note_on_c, 0, 68, 0
1, 479856, Note_on_c, 0, 64, 0
1, 479856, Note_on_c, 0, 76, 0
1, 479859, Note_on_c, 0, 71, 0
1, 479859, Note_on_c, 0, 80, 0
1, 480041, Note_on_c, 0, 69, 77
1, 480041, Note_on_c, 0, 81, 94
1, 480069, Note_on_c, 0, 81, 0
1, 480069, Note_on_c, 0, 69, 0
1, 480121, Note_on_c, 0, 71, 77
1, 480121, Note_on_c, 0, 83, 89
1, 480181, Note_on_c, 0, 83, 0
1, 480181, Note_on_c, 0, 71, 0
1, 480294, Note_on_c, 0, 52, 77
1, 480294, Note_on_c, 0, 64, 89
1, 480294, Note_on_c, 0, 71, 77
1, 480297, Note_on_c, 0, 74, 77
1, 480297, Note_on_c, 0, 83, 98
1, 480350, Note_on_c, 0, 71, 0
1, 480350, Note_on_c, 0, 52, 0
1, 480350, Note_on_c, 0, 64, 0
1, 480353, Note_on_c, 0, 74, 0
1, 480353, Note_on_c, 0, 83, 0
1, 480534, Note_on_c, 0, 54, 77
1, 480534, Note_on_c, 0, 64, 89
1, 480563, Note_on_c, 0, 64, 0
1, 480563, Note_on_c, 0, 54, 0
1, 480615, Note_on_c, 0, 56, 77
1, 480615, Note_on_c, 0, 64, 89
1, 480675, Note_on_c, 0, 64, 0
1, 480675, Note_on_c, 0, 56, 0
1, 480787, Note_on_c, 0, 73, 73
1, 480787, Note_on_c, 0, 81, 73
1, 480787, Note_on_c, 0, 85, 92
1, 480790, Note_on_c, 0, 57, 73
1, 480790, Note_on_c, 0, 64, 83
1, 480843, Note_on_c, 0, 85, 0
1, 480843, Note_on_c, 0, 73, 0
1, 480843, Note_on_c, 0, 81, 0
1, 480846, Note_on_c, 0, 57, 0
1, 480846, Note_on_c, 0, 64, 0
1, 481028, Note_on_c, 0, 76, 74
1, 481028, Note_on_c, 0, 80, 86
1, 481028, Note_on_c, 0, 86, 74
1, 481056, Note_on_c, 0, 86, 0
1, 481056, Note_on_c, 0, 80, 0
1, 481056, Note_on_c, 0, 76, 0
1, 481108, Note_on_c, 0, 76, 75
1, 481108, Note_on_c, 0, 81, 91
1, 481108, Note_on_c, 0, 85, 75
1, 481169, Note_on_c, 0, 85, 0
1, 481169, Note_on_c, 0, 81, 0
1, 481169, Note_on_c, 0, 76, 0
1, 481281, Note_on_c, 0, 76, 76
1, 481281, Note_on_c, 0, 81, 76
1, 481281, Note_on_c, 0, 85, 97
1, 481284, Note_on_c, 0, 61, 76
1, 481284, Note_on_c, 0, 69, 88
1, 481337, Note_on_c, 0, 85, 0
1, 481337, Note_on_c, 0, 76, 0
1, 481337, Note_on_c, 0, 81, 0
1, 481340, Note_on_c, 0, 61, 0
1, 481340, Note_on_c, 0, 69, 0
1, 481522, Note_on_c, 0, 64, 77
1, 481522, Note_on_c, 0, 71, 90
1, 481550, Note_on_c, 0, 71, 0
1, 481550, Note_on_c, 0, 64, 0
1, 481602, Note_on_c, 0, 69, 78
1, 481602, Note_on_c, 0, 73, 91
1, 481662, Note_on_c, 0, 73, 0
1, 481662, Note_on_c, 0, 69, 0
1, 481775, Note_on_c, 0, 81, 79
1, 481775, Note_on_c, 0, 85, 99
1, 481775, Note_on_c, 0, 69, 79
1, 481778, Note_on_c, 0, 73, 92
1, 481831, Note_on_c, 0, 69, 0
1, 481831, Note_on_c, 0, 81, 0
1, 481831, Note_on_c, 0, 85, 0
1, 481834, Note_on_c, 0, 73, 0
1, 482016, Note_on_c, 0, 81, 81
1, 482016, Note_on_c, 0, 86, 99
1, 482046, Note_on_c, 0, 86, 0
1, 482046, Note_on_c, 0, 81, 0
1, 482102, Note_on_c, 0, 81, 81
1, 482102, Note_on_c, 0, 88, 95
1, 482162, Note_on_c, 0, 88, 0
1, 482162, Note_on_c, 0, 81, 0
1, 482275, Note_on_c, 0, 81, 93
1, 482275, Note_on_c, 0, 90, 106
1, 482275, Note_on_c, 0, 72, 83
1, 482278, Note_on_c, 0, 75, 96
1, 482331, Note_on_c, 0, 75, 0
1, 482331, Note_on_c, 0, 72, 0
1, 482515, Note_on_c, 0, 73, 84
1, 482515, Note_on_c, 0, 76, 98
1, 482544, Note_on_c, 0, 76, 0
1, 482544, Note_on_c, 0, 73, 0
1, 482596, Note_on_c, 0, 72, 85
1, 482596, Note_on_c, 0, 75, 99
1, 482656, Note_on_c, 0, 75, 0
1, 482656, Note_on_c, 0, 72, 0
1, 482768, Note_on_c, 0, 80, 77
1, 482768, Note_on_c, 0, 88, 89
1, 482768, Note_on_c, 0, 73, 65
1, 482771, Note_on_c, 0, 76, 77
1, 482777, Note_on_c, 0, 90, 0
1, 482777, Note_on_c, 0, 81, 0
1, 482825, Note_on_c, 0, 88, 0
1, 482825, Note_on_c, 0, 80, 0
1, 482847, Note_on_c, 0, 76, 0
1, 482847, Note_on_c, 0, 73, 0
1, 482993, Note_on_c, 0, 73, 65
1, 482993, Note_on_c, 0, 76, 77
1, 483059, Note_on_c, 0, 76, 0
1, 483059, Note_on_c, 0, 73, 0
1, 483180, Note_on_c, 0, 78, 77
1, 483180, Note_on_c, 0, 87, 89
1, 483180, Note_on_c, 0, 69, 65
1, 483183, Note_on_c, 0, 72, 77
1, 483241, Note_on_c, 0, 69, 0
1, 483241, Note_on_c, 0, 78, 0
1, 483241, Note_on_c, 0, 87, 0
1, 483244, Note_on_c, 0, 72, 0
1, 483353, Note_on_c, 0, 76, 77
1, 483353, Note_on_c, 0, 85, 89
1, 483353, Note_on_c, 0, 68, 65
1, 483356, Note_on_c, 0, 73, 77
1, 483409, Note_on_c, 0, 68, 0
1, 483409, Note_on_c, 0, 76, 0
1, 483409, Note_on_c, 0, 85, 0
1, 483412, Note_on_c, 0, 73, 0
1, 483514, Note_on_c, 0, 76, 77
1, 483514, Note_on_c, 0, 85, 89
1, 483566, Note_on_c, 0, 85, 0
1, 483566, Note_on_c, 0, 76, 0
1, 483663, Note_on_c, 0, 74, 77
1, 483663, Note_on_c, 0, 83, 89
1, 483663, Note_on_c, 0, 65, 65
1, 483666, Note_on_c, 0, 68, 77
1, 483716, Note_on_c, 0, 65, 0
1, 483716, Note_on_c, 0, 74, 0
1, 483716, Note_on_c, 0, 83, 0
1, 483719, Note_on_c, 0, 68, 0
1, 483813, Note_on_c, 0, 73, 77
1, 483813, Note_on_c, 0, 81, 89
1, 483813, Note_on_c, 0, 64, 65
1, 483816, Note_on_c, 0, 69, 77
1, 483862, Note_on_c, 0, 64, 0
1, 483862, Note_on_c, 0, 73, 0
1, 483862, Note_on_c, 0, 81, 0
1, 483865, Note_on_c, 0, 69, 0
1, 483953, Note_on_c, 0, 64, 65
1, 483953, Note_on_c, 0, 69, 77
1, 484003, Note_on_c, 0, 69, 0
1, 484003, Note_on_c, 0, 64, 0
1, 484094, Note_on_c, 0, 71, 77
1, 484094, Note_on_c, 0, 80, 88
1, 484094, Note_on_c, 0, 62, 65
1, 484097, Note_on_c, 0, 65, 77
1, 484143, Note_on_c, 0, 62, 0
1, 484143, Note_on_c, 0, 71, 0
1, 484143, Note_on_c, 0, 80, 0
1, 484146, Note_on_c, 0, 65, 0
1, 484234, Note_on_c, 0, 70, 75
1, 484234, Note_on_c, 0, 78, 85
1, 484234, Note_on_c, 0, 61, 65
1, 484237, Note_on_c, 0, 66, 77
1, 484283, Note_on_c, 0, 61, 0
1, 484283, Note_on_c, 0, 70, 0
1, 484283, Note_on_c, 0, 78, 0
1, 484286, Note_on_c, 0, 66, 0
1, 484375, Note_on_c, 0, 70, 72
1, 484375, Note_on_c, 0, 78, 83
1, 484424, Note_on_c, 0, 78, 0
1, 484424, Note_on_c, 0, 70, 0
1, 484515, Note_on_c, 0, 70, 63
1, 484515, Note_on_c, 0, 79, 83
1, 484515, Note_on_c, 0, 60, 65
1, 484518, Note_on_c, 0, 64, 77
1, 484580, Note_on_c, 0, 60, 0
1, 484580, Note_on_c, 0, 70, 0
1, 484580, Note_on_c, 0, 79, 0
1, 484583, Note_on_c, 0, 64, 0
1, 484702, Note_on_c, 0, 69, 68
1, 484702, Note_on_c, 0, 71, 68
1, 484702, Note_on_c, 0, 80, 89
1, 484705, Note_on_c, 0, 59, 65
1, 484705, Note_on_c, 0, 63, 77
1, 484943, Note_on_c, 0, 80, 0
1, 484943, Note_on_c, 0, 69, 0
1, 484943, Note_on_c, 0, 71, 0
1, 484946, Note_on_c, 0, 69, 77
1, 484946, Note_on_c, 0, 71, 77
1, 484946, Note_on_c, 0, 81, 89
1, 485023, Note_on_c, 0, 81, 0
1, 485023, Note_on_c, 0, 69, 0
1, 485023, Note_on_c, 0, 71, 0
1, 485026, Note_on_c, 0, 69, 77
1, 485026, Note_on_c, 0, 71, 77
1, 485026, Note_on_c, 0, 82, 89
1, 485089, Note_on_c, 0, 82, 0
1, 485089, Note_on_c, 0, 69, 0
1, 485089, Note_on_c, 0, 71, 0
1, 485210, Note_on_c, 0, 69, 77
1, 485210, Note_on_c, 0, 71, 77
1, 485210, Note_on_c, 0, 78, 77
1, 485213, Note_on_c, 0, 59, 0
1, 485213, Note_on_c, 0, 63, 0
1, 485213, Note_on_c, 0, 83, 98
1, 485216, Note_on_c, 0, 35, 65
1, 485216, Note_on_c, 0, 47, 77
1, 485470, Note_on_c, 0, 47, 0
1, 485470, Note_on_c, 0, 35, 0
1, 485470, Note_on_c, 0, 37, 65
1, 485473, Note_on_c, 0, 49, 77
1, 485556, Note_on_c, 0, 49, 0
1, 485556, Note_on_c, 0, 37, 0
1, 485556, Note_on_c, 0, 39, 65
1, 485559, Note_on_c, 0, 51, 77
1, 485616, Note_on_c, 0, 51, 0
1, 485616, Note_on_c, 0, 39, 0
1, 485729, Note_on_c, 0, 68, 77
1, 485729, Note_on_c, 0, 76, 77
1, 485729, Note_on_c, 0, 80, 89
1, 485732, Note_on_c, 0, 40, 65
1, 485732, Note_on_c, 0, 52, 77
1, 485736, Note_on_c, 0, 78, 0
1, 485736, Note_on_c, 0, 71, 0
1, 485736, Note_on_c, 0, 69, 0
1, 485739, Note_on_c, 0, 83, 0
1, 485916, Note_on_c, 0, 80, 0
1, 485916, Note_on_c, 0, 68, 0
1, 485916, Note_on_c, 0, 76, 0
1, 486010, Note_on_c, 0, 52, 0
1, 486010, Note_on_c, 0, 40, 0
1, 486010, Note_on_c, 0, 56, 73
1, 486112, Note_on_c, 0, 56, 0
1, 486112, Note_on_c, 0, 69, 65
1, 486112, Note_on_c, 0, 73, 77
1, 486115, Note_on_c, 0, 57, 70
1, 486361, Note_on_c, 0, 68, 58
1, 486361, Note_on_c, 0, 76, 70
1, 486361, Note_on_c, 0, 52, 50
1, 486364, Note_on_c, 0, 64, 59
1, 486369, Note_on_c, 0, 57, 0
1, 486369, Note_on_c, 0, 69, 0
1, 486369, Note_on_c, 0, 73, 0
1, 486770, Note_on_c, 0, 76, 0
1, 486770, Note_on_c, 0, 68, 0
1, 486770, Note_on_c, 0, 52, 0
1, 486773, Note_on_c, 0, 64, 0
1, 486974, Note_on_c, 0, 72, 100
1, 486974, Note_on_c, 0, 75, 100
1, 486974, Note_on_c, 0, 78, 100
1, 486977, Note_on_c, 0, 81, 112
1, 486977, Note_on_c, 0, 56, 100
1, 486977, Note_on_c, 0, 66, 112
1, 487030, Note_on_c, 0, 66, 0
1, 487030, Note_on_c, 0, 56, 0
1, 487092, Control_c, 0, 64, 127
1, 487092, Control_c, 0, 64, 127
1, 487215, Note_on_c, 0, 68, 78
1, 487243, Note_on_c, 0, 68, 0
1, 487295, Note_on_c, 0, 69, 79
1, 487355, Note_on_c, 0, 69, 0
1, 487468, Note_on_c, 0, 68, 81
1, 487500, Control_c, 0, 64, 0
1, 487500, Control_c, 0, 64, 0
1, 487524, Note_on_c, 0, 68, 0
1, 487628, Note_on_c, 0, 78, 0
1, 487628, Note_on_c, 0, 72, 0
1, 487628, Note_on_c, 0, 75, 0
1, 487631, Note_on_c, 0, 81, 0
1, 487708, Note_on_c, 0, 72, 76
1, 487708, Note_on_c, 0, 75, 76
1, 487708, Note_on_c, 0, 78, 76
1, 487711, Note_on_c, 0, 81, 86
1, 487711, Note_on_c, 0, 66, 84
1, 487737, Note_on_c, 0, 78, 0
1, 487737, Note_on_c, 0, 72, 0
1, 487737, Note_on_c, 0, 75, 0
1, 487740, Note_on_c, 0, 81, 0
1, 487740, Note_on_c, 0, 66, 0
1, 487770, Control_c, 0, 64, 0
1, 487770, Control_c, 0, 64, 0
1, 487789, Note_on_c, 0, 72, 76
1, 487789, Note_on_c, 0, 75, 76
1, 487789, Note_on_c, 0, 78, 76
1, 487792, Note_on_c, 0, 81, 87
1, 487792, Note_on_c, 0, 64, 86
1, 487849, Note_on_c, 0, 78, 0
1, 487849, Note_on_c, 0, 72, 0
1, 487849, Note_on_c, 0, 75, 0
1, 487852, Note_on_c, 0, 81, 0
1, 487852, Note_on_c, 0, 64, 0
1, 487961, Note_on_c, 0, 63, 88
1, 488017, Note_on_c, 0, 63, 0
1, 488202, Note_on_c, 0, 72, 87
1, 488202, Note_on_c, 0, 75, 87
1, 488202, Note_on_c, 0, 78, 87
1, 488205, Note_on_c, 0, 81, 99
1, 488205, Note_on_c, 0, 61, 91
1, 488230, Note_on_c, 0, 78, 0
1, 488230, Note_on_c, 0, 72, 0
1, 488230, Note_on_c, 0, 75, 0
1, 488233, Note_on_c, 0, 81, 0
1, 488233, Note_on_c, 0, 61, 0
1, 488282, Note_on_c, 0, 72, 88
1, 488282, Note_on_c, 0, 75, 88
1, 488282, Note_on_c, 0, 78, 88
1, 488285, Note_on_c, 0, 81, 100
1, 488285, Note_on_c, 0, 60, 93
1, 488354, Note_on_c, 0, 78, 0
1, 488354, Note_on_c, 0, 72, 0
1, 488354, Note_on_c, 0, 75, 0
1, 488357, Note_on_c, 0, 81, 0
1, 488357, Note_on_c, 0, 60, 0
1, 488486, Note_on_c, 0, 60, 100
1, 488486, Note_on_c, 0, 72, 112
1, 488486, Note_on_c, 0, 57, 95
1, 488543, Note_on_c, 0, 57, 0
1, 488543, Note_on_c, 0, 72, 0
1, 488543, Note_on_c, 0, 60, 0
1, 488727, Note_on_c, 0, 61, 88
1, 488727, Note_on_c, 0, 73, 100
1, 488727, Note_on_c, 0, 56, 100
1, 488755, Note_on_c, 0, 56, 0
1, 488755, Note_on_c, 0, 73, 0
1, 488755, Note_on_c, 0, 61, 0
1, 488807, Note_on_c, 0, 63, 88
1, 488807, Note_on_c, 0, 75, 100
1, 488807, Note_on_c, 0, 54, 100
1, 488879, Note_on_c, 0, 54, 0
1, 488879, Note_on_c, 0, 75, 0
1, 488879, Note_on_c, 0, 63, 0
1, 489012, Control_c, 0, 64, 0
1, 489012, Note_on_c, 0, 68, 100
1, 489012, Note_on_c, 0, 76, 100
1, 489015, Control_c, 0, 64, 0
1, 489015, Note_on_c, 0, 44, 90
1, 489015, Note_on_c, 0, 52, 81
1, 489018, Note_on_c, 0, 64, 104
1, 489130, Control_c, 0, 64, 127
1, 489130, Control_c, 0, 64, 127
1, 489172, Note_on_c, 0, 44, 0
1, 489172, Note_on_c, 0, 68, 0
1, 489172, Note_on_c, 0, 76, 0
1, 489175, Note_on_c, 0, 52, 0
1, 489175, Note_on_c, 0, 64, 0
1, 489252, Note_on_c, 0, 66, 83
1, 489280, Note_on_c, 0, 66, 0
1, 489333, Note_on_c, 0, 68, 84
1, 489393, Note_on_c, 0, 68, 0
1, 489505, Note_on_c, 0, 66, 81
1, 489537, Control_c, 0, 64, 0
1, 489537, Control_c, 0, 64, 0
1, 489561, Note_on_c, 0, 66, 0
1, 489746, Note_on_c, 0, 68, 76
1, 489746, Note_on_c, 0, 73, 76
1, 489746, Note_on_c, 0, 76, 76
1, 489749, Note_on_c, 0, 80, 86
1, 489749, Note_on_c, 0, 64, 85
1, 489774, Note_on_c, 0, 76, 0
1, 489774, Note_on_c, 0, 68, 0
1, 489774, Note_on_c, 0, 73, 0
1, 489777, Note_on_c, 0, 80, 0
1, 489777, Note_on_c, 0, 64, 0
1, 489808, Control_c, 0, 64, 0
1, 489808, Control_c, 0, 64, 0
1, 489826, Note_on_c, 0, 68, 76
1, 489826, Note_on_c, 0, 73, 76
1, 489826, Note_on_c, 0, 76, 76
1, 489829, Note_on_c, 0, 80, 87
1, 489829, Note_on_c, 0, 63, 86
1, 489887, Note_on_c, 0, 76, 0
1, 489887, Note_on_c, 0, 68, 0
1, 489887, Note_on_c, 0, 73, 0
1, 489890, Note_on_c, 0, 80, 0
1, 489890, Note_on_c, 0, 63, 0
1, 489999, Note_on_c, 0, 61, 89
1, 490055, Note_on_c, 0, 61, 0
1, 490240, Note_on_c, 0, 68, 87
1, 490240, Note_on_c, 0, 73, 87
1, 490240, Note_on_c, 0, 76, 87
1, 490243, Note_on_c, 0, 80, 99
1, 490243, Note_on_c, 0, 59, 94
1, 490268, Note_on_c, 0, 76, 0
1, 490268, Note_on_c, 0, 68, 0
1, 490268, Note_on_c, 0, 73, 0
1, 490271, Note_on_c, 0, 80, 0
1, 490271, Note_on_c, 0, 59, 0
1, 490320, Note_on_c, 0, 68, 88
1, 490320, Note_on_c, 0, 73, 88
1, 490320, Note_on_c, 0, 76, 88
1, 490323, Note_on_c, 0, 80, 100
1, 490323, Note_on_c, 0, 57, 95
1, 490391, Note_on_c, 0, 76, 0
1, 490391, Note_on_c, 0, 68, 0
1, 490391, Note_on_c, 0, 73, 0
1, 490394, Note_on_c, 0, 80, 0
1, 490394, Note_on_c, 0, 57, 0
1, 490524, Note_on_c, 0, 61, 100
1, 490524, Note_on_c, 0, 73, 112
1, 490524, Note_on_c, 0, 56, 98
1, 490585, Note_on_c, 0, 56, 0
1, 490585, Note_on_c, 0, 73, 0
1, 490585, Note_on_c, 0, 61, 0
1, 490783, Note_on_c, 0, 63, 88
1, 490783, Note_on_c, 0, 75, 100
1, 490783, Note_on_c, 0, 54, 103
1, 490814, Note_on_c, 0, 54, 0
1, 490814, Note_on_c, 0, 75, 0
1, 490814, Note_on_c, 0, 63, 0
1, 490870, Note_on_c, 0, 64, 88
1, 490870, Note_on_c, 0, 76, 100
1, 490870, Note_on_c, 0, 52, 103
1, 490941, Note_on_c, 0, 52, 0
1, 490941, Note_on_c, 0, 76, 0
1, 490941, Note_on_c, 0, 64, 0
1, 491074, Note_on_c, 0, 73, 91
1, 491074, Note_on_c, 0, 78, 103
1, 491074, Note_on_c, 0, 44, 90
1, 491077, Note_on_c, 0, 51, 104
1, 491134, Note_on_c, 0, 44, 0
1, 491134, Note_on_c, 0, 73, 0
1, 491134, Note_on_c, 0, 78, 0
1, 491137, Note_on_c, 0, 51, 0
1, 491333, Note_on_c, 0, 80, 103
1, 491333, Note_on_c, 0, 59, 91
1, 491360, Note_on_c, 0, 59, 0
1, 491360, Note_on_c, 0, 80, 0
1, 491408, Note_on_c, 0, 81, 103
1, 491408, Note_on_c, 0, 61, 91
1, 491468, Note_on_c, 0, 61, 0
1, 491468, Note_on_c, 0, 81, 0
1, 491581, Note_on_c, 0, 80, 112
1, 491581, Note_on_c, 0, 59, 100
1, 491637, Note_on_c, 0, 59, 0
1, 491637, Note_on_c, 0, 80, 0
1, 491822, Note_on_c, 0, 79, 103
1, 491822, Note_on_c, 0, 58, 91
1, 491848, Note_on_c, 0, 58, 0
1, 491848, Note_on_c, 0, 79, 0
1, 491896, Note_on_c, 0, 78, 103
1, 491896, Note_on_c, 0, 57, 91
1, 491957, Note_on_c, 0, 57, 0
1, 491957, Note_on_c, 0, 78, 0
1, 492069, Note_on_c, 0, 71, 91
1, 492069, Note_on_c, 0, 76, 103
1, 492069, Note_on_c, 0, 44, 79
1, 492072, Note_on_c, 0, 56, 91
1, 492125, Note_on_c, 0, 44, 0
1, 492125, Note_on_c, 0, 71, 0
1, 492125, Note_on_c, 0, 76, 0
1, 492128, Note_on_c, 0, 56, 0
1, 492310, Note_on_c, 0, 78, 103
1, 492310, Note_on_c, 0, 57, 91
1, 492336, Note_on_c, 0, 57, 0
1, 492336, Note_on_c, 0, 78, 0
1, 492385, Note_on_c, 0, 80, 103
1, 492385, Note_on_c, 0, 59, 91
1, 492445, Note_on_c, 0, 59, 0
1, 492445, Note_on_c, 0, 80, 0
1, 492558, Note_on_c, 0, 79, 112
1, 492558, Note_on_c, 0, 58, 100
1, 492614, Note_on_c, 0, 58, 0
1, 492614, Note_on_c, 0, 79, 0
1, 492798, Note_on_c, 0, 78, 103
1, 492798, Note_on_c, 0, 57, 91
1, 492825, Note_on_c, 0, 57, 0
1, 492825, Note_on_c, 0, 78, 0
1, 492873, Note_on_c, 0, 76, 103
1, 492873, Note_on_c, 0, 56, 91
1, 492934, Note_on_c, 0, 56, 0
1, 492934, Note_on_c, 0, 76, 0
1, 493046, Note_on_c, 0, 69, 91
1, 493046, Note_on_c, 0, 75, 103
1, 493046, Note_on_c, 0, 44, 79
1, 493049, Note_on_c, 0, 54, 91
1, 493102, Note_on_c, 0, 44, 0
1, 493102, Note_on_c, 0, 69, 0
1, 493102, Note_on_c, 0, 75, 0
1, 493105, Note_on_c, 0, 54, 0
1, 493287, Note_on_c, 0, 71, 91
1, 493287, Note_on_c, 0, 76, 103
1, 493287, Note_on_c, 0, 56, 91
1, 493313, Note_on_c, 0, 56, 0
1, 493313, Note_on_c, 0, 76, 0
1, 493313, Note_on_c, 0, 71, 0
1, 493362, Note_on_c, 0, 69, 91
1, 493362, Note_on_c, 0, 75, 103
1, 493362, Note_on_c, 0, 54, 91
1, 493422, Note_on_c, 0, 54, 0
1, 493422, Note_on_c, 0, 75, 0
1, 493422, Note_on_c, 0, 69, 0
1, 493534, Note_on_c, 0, 73, 100
1, 493534, Note_on_c, 0, 80, 112
1, 493534, Note_on_c, 0, 64, 100
1, 493590, Note_on_c, 0, 64, 0
1, 493590, Note_on_c, 0, 80, 0
1, 493590, Note_on_c, 0, 73, 0
1, 493775, Note_on_c, 0, 68, 91
1, 493775, Note_on_c, 0, 73, 103
1, 493775, Note_on_c, 0, 52, 91
1, 493801, Note_on_c, 0, 52, 0
1, 493801, Note_on_c, 0, 73, 0
1, 493801, Note_on_c, 0, 68, 0
1, 493850, Note_on_c, 0, 69, 91
1, 493850, Note_on_c, 0, 75, 103
1, 493850, Note_on_c, 0, 54, 91
1, 493910, Note_on_c, 0, 54, 0
1, 493910, Note_on_c, 0, 75, 0
1, 493910, Note_on_c, 0, 69, 0
1, 494023, Note_on_c, 0, 66, 91
1, 494023, Note_on_c, 0, 72, 103
1, 494023, Note_on_c, 0, 44, 79
1, 494026, Note_on_c, 0, 51, 79
1, 494079, Note_on_c, 0, 44, 0
1, 494079, Note_on_c, 0, 66, 0
1, 494079, Note_on_c, 0, 72, 0
1, 494082, Note_on_c, 0, 51, 0
1, 494263, Note_on_c, 0, 68, 91
1, 494263, Note_on_c, 0, 73, 103
1, 494263, Note_on_c, 0, 52, 91
1, 494290, Note_on_c, 0, 52, 0
1, 494290, Note_on_c, 0, 73, 0
1, 494290, Note_on_c, 0, 68, 0
1, 494338, Note_on_c, 0, 66, 91
1, 494338, Note_on_c, 0, 72, 103
1, 494338, Note_on_c, 0, 51, 91
1, 494410, Note_on_c, 0, 51, 0
1, 494410, Note_on_c, 0, 72, 0
1, 494410, Note_on_c, 0, 66, 0
1, 494542, Note_on_c, 0, 66, 91
1, 494542, Note_on_c, 0, 68, 100
1, 494542, Note_on_c, 0, 75, 100
1, 494545, Note_on_c, 0, 80, 112
1, 494545, Note_on_c, 0, 32, 79
1, 494545, Note_on_c, 0, 44, 100
1, 494599, Note_on_c, 0, 44, 0
1, 494599, Note_on_c, 0, 32, 0
1, 494663, Control_c, 0, 64, 127
1, 494663, Control_c, 0, 64, 127
1, 494711, Note_on_c, 0, 66, 0
1, 494711, Note_on_c, 0, 75, 0
1, 494711, Note_on_c, 0, 68, 0
1, 494714, Note_on_c, 0, 80, 0
1, 494783, Note_on_c, 0, 34, 79
1, 494783, Note_on_c, 0, 46, 91
1, 494814, Note_on_c, 0, 46, 0
1, 494814, Note_on_c, 0, 34, 0
1, 494870, Note_on_c, 0, 36, 68
1, 494870, Note_on_c, 0, 48, 78
1, 494930, Note_on_c, 0, 48, 0
1, 494930, Note_on_c, 0, 36, 0
1, 495008, Control_c, 0, 64, 0
1, 495008, Control_c, 0, 64, 0
1, 495042, Note_on_c, 0, 73, 77
1, 495042, Note_on_c, 0, 76, 77
1, 495042, Note_on_c, 0, 80, 77
1, 495045, Note_on_c, 0, 85, 96
1, 495045, Note_on_c, 0, 37, 88
1, 495045, Note_on_c, 0, 49, 88
1, 495103, Note_on_c, 0, 80, 0
1, 495103, Note_on_c, 0, 73, 0
1, 495103, Note_on_c, 0, 76, 0
1, 495106, Note_on_c, 0, 85, 0
1, 495106, Note_on_c, 0, 37, 0
1, 495106, Note_on_c, 0, 49, 0
1, 495302, Note_on_c, 0, 75, 77
1, 495302, Note_on_c, 0, 87, 89
1, 495330, Note_on_c, 0, 87, 0
1, 495330, Note_on_c, 0, 75, 0
1, 495382, Note_on_c, 0, 76, 77
1, 495382, Note_on_c, 0, 88, 94
1, 495442, Note_on_c, 0, 88, 0
1, 495442, Note_on_c, 0, 76, 0
1, 495555, Note_on_c, 0, 76, 77
1, 495555, Note_on_c, 0, 80, 77
1, 495555, Note_on_c, 0, 88, 98
1, 495558, Note_on_c, 0, 61, 77
1, 495558, Note_on_c, 0, 73, 89
1, 495611, Note_on_c, 0, 88, 0
1, 495611, Note_on_c, 0, 76, 0
1, 495611, Note_on_c, 0, 80, 0
1, 495614, Note_on_c, 0, 61, 0
1, 495614, Note_on_c, 0, 73, 0
1, 495795, Note_on_c, 0, 63, 77
1, 495795, Note_on_c, 0, 75, 89
1, 495823, Note_on_c, 0, 75, 0
1, 495823, Note_on_c, 0, 63, 0
1, 495875, Note_on_c, 0, 64, 77
1, 495875, Note_on_c, 0, 76, 89
1, 495936, Note_on_c, 0, 76, 0
1, 495936, Note_on_c, 0, 64, 0
1, 496048, Note_on_c, 0, 64, 77
1, 496048, Note_on_c, 0, 76, 96
1, 496048, Note_on_c, 0, 68, 77
1, 496051, Note_on_c, 0, 71, 96
1, 496051, Note_on_c, 0, 80, 77
1, 496104, Note_on_c, 0, 68, 0
1, 496104, Note_on_c, 0, 64, 0
1, 496104, Note_on_c, 0, 76, 0
1, 496107, Note_on_c, 0, 71, 0
1, 496107, Note_on_c, 0, 80, 0
1, 496289, Note_on_c, 0, 69, 77
1, 496289, Note_on_c, 0, 81, 94
1, 496317, Note_on_c, 0, 81, 0
1, 496317, Note_on_c, 0, 69, 0
1, 496369, Note_on_c, 0, 71, 77
1, 496369, Note_on_c, 0, 83, 89
1, 496430, Note_on_c, 0, 83, 0
1, 496430, Note_on_c, 0, 71, 0
1, 496542, Note_on_c, 0, 52, 77
1, 496542, Note_on_c, 0, 64, 89
1, 496542, Note_on_c, 0, 71, 77
1, 496545, Note_on_c, 0, 74, 77
1, 496545, Note_on_c, 0, 83, 98
1, 496598, Note_on_c, 0, 71, 0
1, 496598, Note_on_c, 0, 52, 0
1, 496598, Note_on_c, 0, 64, 0
1, 496601, Note_on_c, 0, 74, 0
1, 496601, Note_on_c, 0, 83, 0
1, 496783, Note_on_c, 0, 54, 77
1, 496783, Note_on_c, 0, 64, 89
1, 496811, Note_on_c, 0, 64, 0
1, 496811, Note_on_c, 0, 54, 0
1, 496863, Note_on_c, 0, 56, 77
1, 496863, Note_on_c, 0, 64, 89
1, 496923, Note_on_c, 0, 64, 0
1, 496923, Note_on_c, 0, 56, 0
1, 497036, Note_on_c, 0, 73, 73
1, 497036, Note_on_c, 0, 81, 73
1, 497036, Note_on_c, 0, 85, 92
1, 497039, Note_on_c, 0, 57, 73
1, 497039, Note_on_c, 0, 64, 83
1, 497092, Note_on_c, 0, 85, 0
1, 497092, Note_on_c, 0, 73, 0
1, 497092, Note_on_c, 0, 81, 0
1, 497095, Note_on_c, 0, 57, 0
1, 497095, Note_on_c, 0, 64, 0
1, 497276, Note_on_c, 0, 76, 74
1, 497276, Note_on_c, 0, 80, 86
1, 497276, Note_on_c, 0, 86, 74
1, 497305, Note_on_c, 0, 86, 0
1, 497305, Note_on_c, 0, 80, 0
1, 497305, Note_on_c, 0, 76, 0
1, 497357, Note_on_c, 0, 76, 75
1, 497357, Note_on_c, 0, 81, 91
1, 497357, Note_on_c, 0, 85, 75
1, 497417, Note_on_c, 0, 85, 0
1, 497417, Note_on_c, 0, 81, 0
1, 497417, Note_on_c, 0, 76, 0
1, 497529, Note_on_c, 0, 76, 76
1, 497529, Note_on_c, 0, 81, 76
1, 497529, Note_on_c, 0, 85, 97
1, 497532, Note_on_c, 0, 61, 76
1, 497532, Note_on_c, 0, 69, 88
1, 497586, Note_on_c, 0, 85, 0
1, 497586, Note_on_c, 0, 76, 0
1, 497586, Note_on_c, 0, 81, 0
1, 497589, Note_on_c, 0, 61, 0
1, 497589, Note_on_c, 0, 69, 0
1, 497770, Note_on_c, 0, 64, 77
1, 497770, Note_on_c, 0, 71, 90
1, 497798, Note_on_c, 0, 71, 0
1, 497798, Note_on_c, 0, 64, 0
1, 497850, Note_on_c, 0, 69, 78
1, 497850, Note_on_c, 0, 73, 91
1, 497911, Note_on_c, 0, 73, 0
1, 497911, Note_on_c, 0, 69, 0
1, 498023, Note_on_c, 0, 81, 79
1, 498023, Note_on_c, 0, 85, 99
1, 498023, Note_on_c, 0, 69, 79
1, 498026, Note_on_c, 0, 73, 92
1, 498079, Note_on_c, 0, 69, 0
1, 498079, Note_on_c, 0, 81, 0
1, 498079, Note_on_c, 0, 85, 0
1, 498082, Note_on_c, 0, 73, 0
1, 498264, Note_on_c, 0, 81, 81
1, 498264, Note_on_c, 0, 86, 99
1, 498294, Note_on_c, 0, 86, 0
1, 498294, Note_on_c, 0, 81, 0
1, 498350, Note_on_c, 0, 81, 81
1, 498350, Note_on_c, 0, 88, 95
1, 498411, Note_on_c, 0, 88, 0
1, 498411, Note_on_c, 0, 81, 0
1, 498523, Note_on_c, 0, 81, 93
1, 498523, Note_on_c, 0, 90, 106
1, 498523, Note_on_c, 0, 72, 83
1, 498526, Note_on_c, 0, 75, 96
1, 498579, Note_on_c, 0, 75, 0
1, 498579, Note_on_c, 0, 72, 0
1, 498764, Note_on_c, 0, 73, 84
1, 498764, Note_on_c, 0, 76, 98
1, 498792, Note_on_c, 0, 76, 0
1, 498792, Note_on_c, 0, 73, 0
1, 498844, Note_on_c, 0, 72, 85
1, 498844, Note_on_c, 0, 75, 99
1, 498915, Note_on_c, 0, 75, 0
1, 498915, Note_on_c, 0, 72, 0
1, 499048, Note_on_c, 0, 80, 77
1, 499048, Note_on_c, 0, 88, 89
1, 499048, Note_on_c, 0, 73, 65
1, 499051, Note_on_c, 0, 76, 77
1, 499056, Note_on_c, 0, 90, 0
1, 499056, Note_on_c, 0, 81, 0
1, 499099, Note_on_c, 0, 88, 0
1, 499099, Note_on_c, 0, 80, 0
1, 499120, Note_on_c, 0, 76, 0
1, 499120, Note_on_c, 0, 73, 0
1, 499252, Note_on_c, 0, 73, 65
1, 499252, Note_on_c, 0, 76, 77
1, 499308, Note_on_c, 0, 76, 0
1, 499308, Note_on_c, 0, 73, 0
1, 499413, Note_on_c, 0, 78, 77
1, 499413, Note_on_c, 0, 87, 89
1, 499413, Note_on_c, 0, 69, 65
1, 499416, Note_on_c, 0, 72, 77
1, 499473, Note_on_c, 0, 69, 0
1, 499473, Note_on_c, 0, 78, 0
1, 499473, Note_on_c, 0, 87, 0
1, 499476, Note_on_c, 0, 72, 0
1, 499586, Note_on_c, 0, 76, 77
1, 499586, Note_on_c, 0, 85, 89
1, 499586, Note_on_c, 0, 68, 65
1, 499589, Note_on_c, 0, 73, 77
1, 499642, Note_on_c, 0, 68, 0
1, 499642, Note_on_c, 0, 76, 0
1, 499642, Note_on_c, 0, 85, 0
1, 499645, Note_on_c, 0, 73, 0
1, 499746, Note_on_c, 0, 76, 77
1, 499746, Note_on_c, 0, 85, 89
1, 499798, Note_on_c, 0, 85, 0
1, 499798, Note_on_c, 0, 76, 0
1, 499896, Note_on_c, 0, 74, 77
1, 499896, Note_on_c, 0, 83, 89
1, 499896, Note_on_c, 0, 65, 65
1, 499899, Note_on_c, 0, 68, 77
1, 499948, Note_on_c, 0, 65, 0
1, 499948, Note_on_c, 0, 74, 0
1, 499948, Note_on_c, 0, 83, 0
1, 499951, Note_on_c, 0, 68, 0
1, 500046, Note_on_c, 0, 73, 77
1, 500046, Note_on_c, 0, 81, 89
1, 500046, Note_on_c, 0, 64, 65
1, 500049, Note_on_c, 0, 69, 77
1, 500095, Note_on_c, 0, 64, 0
1, 500095, Note_on_c, 0, 73, 0
1, 500095, Note_on_c, 0, 81, 0
1, 500098, Note_on_c, 0, 69, 0
1, 500186, Note_on_c, 0, 64, 65
1, 500186, Note_on_c, 0, 69, 77
1, 500235, Note_on_c, 0, 69, 0
1, 500235, Note_on_c, 0, 64, 0
1, 500326, Note_on_c, 0, 71, 77
1, 500326, Note_on_c, 0, 80, 88
1, 500326, Note_on_c, 0, 62, 65
1, 500329, Note_on_c, 0, 65, 77
1, 500376, Note_on_c, 0, 62, 0
1, 500376, Note_on_c, 0, 71, 0
1, 500376, Note_on_c, 0, 80, 0
1, 500379, Note_on_c, 0, 65, 0
1, 500467, Note_on_c, 0, 70, 75
1, 500467, Note_on_c, 0, 78, 85
1, 500467, Note_on_c, 0, 61, 65
1, 500470, Note_on_c, 0, 66, 77
1, 500516, Note_on_c, 0, 61, 0
1, 500516, Note_on_c, 0, 70, 0
1, 500516, Note_on_c, 0, 78, 0
1, 500519, Note_on_c, 0, 66, 0
1, 500607, Note_on_c, 0, 70, 72
1, 500607, Note_on_c, 0, 78, 83
1, 500656, Note_on_c, 0, 78, 0
1, 500656, Note_on_c, 0, 70, 0
1, 500748, Note_on_c, 0, 70, 63
1, 500748, Note_on_c, 0, 79, 83
1, 500748, Note_on_c, 0, 60, 65
1, 500751, Note_on_c, 0, 64, 77
1, 500813, Note_on_c, 0, 60, 0
1, 500813, Note_on_c, 0, 70, 0
1, 500813, Note_on_c, 0, 79, 0
1, 500816, Note_on_c, 0, 64, 0
1, 500935, Note_on_c, 0, 69, 68
1, 500935, Note_on_c, 0, 71, 68
1, 500935, Note_on_c, 0, 80, 89
1, 500938, Note_on_c, 0, 59, 65
1, 500938, Note_on_c, 0, 63, 77
1, 501176, Note_on_c, 0, 80, 0
1, 501176, Note_on_c, 0, 69, 0
1, 501176, Note_on_c, 0, 71, 0
1, 501179, Note_on_c, 0, 69, 77
1, 501179, Note_on_c, 0, 71, 77
1, 501179, Note_on_c, 0, 81, 89
1, 501256, Note_on_c, 0, 81, 0
1, 501256, Note_on_c, 0, 69, 0
1, 501256, Note_on_c, 0, 71, 0
1, 501259, Note_on_c, 0, 69, 77
1, 501259, Note_on_c, 0, 71, 77
1, 501259, Note_on_c, 0, 82, 89
1, 501321, Note_on_c, 0, 82, 0
1, 501321, Note_on_c, 0, 69, 0
1, 501321, Note_on_c, 0, 71, 0
1, 501443, Note_on_c, 0, 69, 77
1, 501443, Note_on_c, 0, 71, 77
1, 501443, Note_on_c, 0, 78, 77
1, 501446, Note_on_c, 0, 59, 0
1, 501446, Note_on_c, 0, 63, 0
1, 501446, Note_on_c, 0, 83, 98
1, 501449, Note_on_c, 0, 35, 65
1, 501449, Note_on_c, 0, 47, 77
1, 501702, Note_on_c, 0, 47, 0
1, 501702, Note_on_c, 0, 35, 0
1, 501702, Note_on_c, 0, 37, 65
1, 501705, Note_on_c, 0, 49, 77
1, 501789, Note_on_c, 0, 49, 0
1, 501789, Note_on_c, 0, 37, 0
1, 501789, Note_on_c, 0, 39, 65
1, 501792, Note_on_c, 0, 51, 77
1, 501849, Note_on_c, 0, 51, 0
1, 501849, Note_on_c, 0, 39, 0
1, 501961, Note_on_c, 0, 68, 70
1, 501961, Note_on_c, 0, 76, 70
1, 501961, Note_on_c, 0, 80, 89
1, 501964, Note_on_c, 0, 40, 65
1, 501964, Note_on_c, 0, 52, 77
1, 501973, Note_on_c, 0, 78, 0
1, 501973, Note_on_c, 0, 71, 0
1, 501973, Note_on_c, 0, 69, 0
1, 501976, Note_on_c, 0, 83, 0
1, 502102, Note_on_c, 0, 80, 0
1, 502102, Note_on_c, 0, 68, 0
1, 502102, Note_on_c, 0, 76, 0
1, 502268, Note_on_c, 0, 52, 0
1, 502268, Note_on_c, 0, 40, 0
1, 502268, Note_on_c, 0, 56, 73
1, 502348, Note_on_c, 0, 56, 0
1, 502348, Note_on_c, 0, 69, 65
1, 502348, Note_on_c, 0, 73, 77
1, 502351, Note_on_c, 0, 57, 70
1, 502573, Note_on_c, 0, 68, 58
1, 502573, Note_on_c, 0, 76, 70
1, 502573, Note_on_c, 0, 52, 50
1, 502576, Note_on_c, 0, 64, 59
1, 502580, Note_on_c, 0, 57, 0
1, 502580, Note_on_c, 0, 69, 0
1, 502580, Note_on_c, 0, 73, 0
1, 502947, Note_on_c, 0, 76, 0
1, 502947, Note_on_c, 0, 68, 0
1, 502947, Note_on_c, 0, 52, 0
1, 502950, Note_on_c, 0, 64, 0
1, 503134, Note_on_c, 0, 72, 100
1, 503134, Note_on_c, 0, 75, 100
1, 503134, Note_on_c, 0, 78, 100
1, 503137, Note_on_c, 0, 81, 112
1, 503137, Note_on_c, 0, 56, 100
1, 503137, Note_on_c, 0, 66, 112
1, 503190, Note_on_c, 0, 66, 0
1, 503190, Note_on_c, 0, 56, 0
1, 503253, Control_c, 0, 64, 127
1, 503253, Control_c, 0, 64, 127
1, 503375, Note_on_c, 0, 68, 78
1, 503403, Note_on_c, 0, 68, 0
1, 503455, Note_on_c, 0, 69, 79
1, 503515, Note_on_c, 0, 69, 0
1, 503628, Note_on_c, 0, 68, 81
1, 503660, Control_c, 0, 64, 0
1, 503660, Control_c, 0, 64, 0
1, 503684, Note_on_c, 0, 68, 0
1, 503788, Note_on_c, 0, 78, 0
1, 503788, Note_on_c, 0, 72, 0
1, 503788, Note_on_c, 0, 75, 0
1, 503791, Note_on_c, 0, 81, 0
1, 503869, Note_on_c, 0, 72, 76
1, 503869, Note_on_c, 0, 75, 76
1, 503869, Note_on_c, 0, 78, 76
1, 503872, Note_on_c, 0, 81, 86
1, 503872, Note_on_c, 0, 66, 84
1, 503897, Note_on_c, 0, 78, 0
1, 503897, Note_on_c, 0, 72, 0
1, 503897, Note_on_c, 0, 75, 0
1, 503900, Note_on_c, 0, 81, 0
1, 503900, Note_on_c, 0, 66, 0
1, 503931, Control_c, 0, 64, 0
1, 503931, Control_c, 0, 64, 0
1, 503949, Note_on_c, 0, 72, 76
1, 503949, Note_on_c, 0, 75, 76
1, 503949, Note_on_c, 0, 78, 76
1, 503952, Note_on_c, 0, 81, 87
1, 503952, Note_on_c, 0, 64, 86
1, 504009, Note_on_c, 0, 78, 0
1, 504009, Note_on_c, 0, 72, 0
1, 504009, Note_on_c, 0, 75, 0
1, 504012, Note_on_c, 0, 81, 0
1, 504012, Note_on_c, 0, 64, 0
1, 504122, Note_on_c, 0, 63, 88
1, 504178, Note_on_c, 0, 63, 0
1, 504362, Note_on_c, 0, 72, 87
1, 504362, Note_on_c, 0, 75, 87
1, 504362, Note_on_c, 0, 78, 87
1, 504365, Note_on_c, 0, 81, 99
1, 504365, Note_on_c, 0, 61, 91
1, 504390, Note_on_c, 0, 78, 0
1, 504390, Note_on_c, 0, 72, 0
1, 504390, Note_on_c, 0, 75, 0
1, 504393, Note_on_c, 0, 81, 0
1, 504393, Note_on_c, 0, 61, 0
1, 504442, Note_on_c, 0, 72, 88
1, 504442, Note_on_c, 0, 75, 88
1, 504442, Note_on_c, 0, 78, 88
1, 504445, Note_on_c, 0, 81, 100
1, 504445, Note_on_c, 0, 60, 93
1, 504514, Note_on_c, 0, 78, 0
1, 504514, Note_on_c, 0, 72, 0
1, 504514, Note_on_c, 0, 75, 0
1, 504517, Note_on_c, 0, 81, 0
1, 504517, Note_on_c, 0, 60, 0
1, 504647, Note_on_c, 0, 60, 100
1, 504647, Note_on_c, 0, 72, 112
1, 504647, Note_on_c, 0, 57, 95
1, 504703, Note_on_c, 0, 57, 0
1, 504703, Note_on_c, 0, 72, 0
1, 504703, Note_on_c, 0, 60, 0
1, 504887, Note_on_c, 0, 61, 88
1, 504887, Note_on_c, 0, 73, 100
1, 504887, Note_on_c, 0, 56, 100
1, 504916, Note_on_c, 0, 56, 0
1, 504916, Note_on_c, 0, 73, 0
1, 504916, Note_on_c, 0, 61, 0
1, 504968, Note_on_c, 0, 63, 88
1, 504968, Note_on_c, 0, 75, 100
1, 504968, Note_on_c, 0, 54, 100
1, 505039, Note_on_c, 0, 54, 0
1, 505039, Note_on_c, 0, 75, 0
1, 505039, Note_on_c, 0, 63, 0
1, 505172, Control_c, 0, 64, 0
1, 505172, Note_on_c, 0, 68, 100
1, 505172, Note_on_c, 0, 76, 100
1, 505175, Control_c, 0, 64, 0
1, 505175, Note_on_c, 0, 44, 90
1, 505175, Note_on_c, 0, 52, 81
1, 505178, Note_on_c, 0, 64, 104
1, 505290, Control_c, 0, 64, 127
1, 505290, Control_c, 0, 64, 127
1, 505332, Note_on_c, 0, 44, 0
1, 505332, Note_on_c, 0, 68, 0
1, 505332, Note_on_c, 0, 76, 0
1, 505335, Note_on_c, 0, 52, 0
1, 505335, Note_on_c, 0, 64, 0
1, 505413, Note_on_c, 0, 66, 83
1, 505441, Note_on_c, 0, 66, 0
1, 505493, Note_on_c, 0, 68, 84
1, 505553, Note_on_c, 0, 68, 0
1, 505666, Note_on_c, 0, 66, 81
1, 505697, Control_c, 0, 64, 0
1, 505697, Control_c, 0, 64, 0
1, 505722, Note_on_c, 0, 66, 0
1, 505906, Note_on_c, 0, 68, 76
1, 505906, Note_on_c, 0, 73, 76
1, 505906, Note_on_c, 0, 76, 76
1, 505909, Note_on_c, 0, 80, 86
1, 505909, Note_on_c, 0, 64, 85
1, 505934, Note_on_c, 0, 76, 0
1, 505934, Note_on_c, 0, 68, 0
1, 505934, Note_on_c, 0, 73, 0
1, 505937, Note_on_c, 0, 80, 0
1, 505937, Note_on_c, 0, 64, 0
1, 505968, Control_c, 0, 64, 0
1, 505968, Control_c, 0, 64, 0
1, 505986, Note_on_c, 0, 68, 76
1, 505986, Note_on_c, 0, 73, 76
1, 505986, Note_on_c, 0, 76, 76
1, 505989, Note_on_c, 0, 80, 87
1, 505989, Note_on_c, 0, 63, 86
1, 506047, Note_on_c, 0, 76, 0
1, 506047, Note_on_c, 0, 68, 0
1, 506047, Note_on_c, 0, 73, 0
1, 506050, Note_on_c, 0, 80, 0
1, 506050, Note_on_c, 0, 63, 0
1, 506159, Note_on_c, 0, 61, 89
1, 506215, Note_on_c, 0, 61, 0
1, 506400, Note_on_c, 0, 68, 87
1, 506400, Note_on_c, 0, 73, 87
1, 506400, Note_on_c, 0, 76, 87
1, 506403, Note_on_c, 0, 80, 99
1, 506403, Note_on_c, 0, 59, 94
1, 506428, Note_on_c, 0, 76, 0
1, 506428, Note_on_c, 0, 68, 0
1, 506428, Note_on_c, 0, 73, 0
1, 506431, Note_on_c, 0, 80, 0
1, 506431, Note_on_c, 0, 59, 0
1, 506480, Note_on_c, 0, 68, 88
1, 506480, Note_on_c, 0, 73, 88
1, 506480, Note_on_c, 0, 76, 88
1, 506483, Note_on_c, 0, 80, 100
1, 506483, Note_on_c, 0, 57, 95
1, 506552, Note_on_c, 0, 76, 0
1, 506552, Note_on_c, 0, 68, 0
1, 506552, Note_on_c, 0, 73, 0
1, 506555, Note_on_c, 0, 80, 0
1, 506555, Note_on_c, 0, 57, 0
1, 506684, Note_on_c, 0, 61, 100
1, 506684, Note_on_c, 0, 73, 112
1, 506684, Note_on_c, 0, 56, 98
1, 506745, Note_on_c, 0, 56, 0
1, 506745, Note_on_c, 0, 73, 0
1, 506745, Note_on_c, 0, 61, 0
1, 506944, Note_on_c, 0, 63, 88
1, 506944, Note_on_c, 0, 75, 100
1, 506944, Note_on_c, 0, 54, 103
1, 506974, Note_on_c, 0, 54, 0
1, 506974, Note_on_c, 0, 75, 0
1, 506974, Note_on_c, 0, 63, 0
1, 507030, Note_on_c, 0, 64, 88
1, 507030, Note_on_c, 0, 76, 100
1, 507030, Note_on_c, 0, 52, 103
1, 507101, Note_on_c, 0, 52, 0
1, 507101, Note_on_c, 0, 76, 0
1, 507101, Note_on_c, 0, 64, 0
1, 507234, Note_on_c, 0, 73, 91
1, 507234, Note_on_c, 0, 78, 103
1, 507234, Note_on_c, 0, 44, 90
1, 507237, Note_on_c, 0, 51, 104
1, 507295, Note_on_c, 0, 44, 0
1, 507295, Note_on_c, 0, 73, 0
1, 507295, Note_on_c, 0, 78, 0
1, 507298, Note_on_c, 0, 51, 0
1, 507493, Note_on_c, 0, 80, 103
1, 507493, Note_on_c, 0, 59, 91
1, 507520, Note_on_c, 0, 59, 0
1, 507520, Note_on_c, 0, 80, 0
1, 507568, Note_on_c, 0, 81, 103
1, 507568, Note_on_c, 0, 61, 91
1, 507629, Note_on_c, 0, 61, 0
1, 507629, Note_on_c, 0, 81, 0
1, 507741, Note_on_c, 0, 80, 112
1, 507741, Note_on_c, 0, 59, 100
1, 507797, Note_on_c, 0, 59, 0
1, 507797, Note_on_c, 0, 80, 0
1, 507982, Note_on_c, 0, 79, 103
1, 507982, Note_on_c, 0, 58, 91
1, 508008, Note_on_c, 0, 58, 0
1, 508008, Note_on_c, 0, 79, 0
1, 508057, Note_on_c, 0, 78, 103
1, 508057, Note_on_c, 0, 57, 91
1, 508117, Note_on_c, 0, 57, 0
1, 508117, Note_on_c, 0, 78, 0
1, 508229, Note_on_c, 0, 71, 91
1, 508229, Note_on_c, 0, 76, 103
1, 508229, Note_on_c, 0, 44, 79
1, 508232, Note_on_c, 0, 56, 91
1, 508286, Note_on_c, 0, 44, 0
1, 508286, Note_on_c, 0, 71, 0
1, 508286, Note_on_c, 0, 76, 0
1, 508289, Note_on_c, 0, 56, 0
1, 508470, Note_on_c, 0, 78, 103
1, 508470, Note_on_c, 0, 57, 91
1, 508496, Note_on_c, 0, 57, 0
1, 508496, Note_on_c, 0, 78, 0
1, 508545, Note_on_c, 0, 80, 103
1, 508545, Note_on_c, 0, 59, 91
1, 508605, Note_on_c, 0, 59, 0
1, 508605, Note_on_c, 0, 80, 0
1, 508718, Note_on_c, 0, 79, 112
1, 508718, Note_on_c, 0, 58, 100
1, 508774, Note_on_c, 0, 58, 0
1, 508774, Note_on_c, 0, 79, 0
1, 508958, Note_on_c, 0, 78, 103
1, 508958, Note_on_c, 0, 57, 91
1, 508985, Note_on_c, 0, 57, 0
1, 508985, Note_on_c, 0, 78, 0
1, 509033, Note_on_c, 0, 76, 103
1, 509033, Note_on_c, 0, 56, 91
1, 509094, Note_on_c, 0, 56, 0
1, 509094, Note_on_c, 0, 76, 0
1, 509206, Note_on_c, 0, 69, 91
1, 509206, Note_on_c, 0, 75, 103
1, 509206, Note_on_c, 0, 44, 79
1, 509209, Note_on_c, 0, 54, 91
1, 509262, Note_on_c, 0, 44, 0
1, 509262, Note_on_c, 0, 69, 0
1, 509262, Note_on_c, 0, 75, 0
1, 509265, Note_on_c, 0, 54, 0
1, 509447, Note_on_c, 0, 71, 91
1, 509447, Note_on_c, 0, 76, 103
1, 509447, Note_on_c, 0, 56, 91
1, 509473, Note_on_c, 0, 56, 0
1, 509473, Note_on_c, 0, 76, 0
1, 509473, Note_on_c, 0, 71, 0
1, 509522, Note_on_c, 0, 69, 91
1, 509522, Note_on_c, 0, 75, 103
1, 509522, Note_on_c, 0, 54, 91
1, 509582, Note_on_c, 0, 54, 0
1, 509582, Note_on_c, 0, 75, 0
1, 509582, Note_on_c, 0, 69, 0
1, 509695, Note_on_c, 0, 73, 100
1, 509695, Note_on_c, 0, 80, 112
1, 509695, Note_on_c, 0, 64, 100
1, 509751, Note_on_c, 0, 64, 0
1, 509751, Note_on_c, 0, 80, 0
1, 509751, Note_on_c, 0, 73, 0
1, 509935, Note_on_c, 0, 68, 91
1, 509935, Note_on_c, 0, 73, 103
1, 509935, Note_on_c, 0, 52, 91
1, 509962, Note_on_c, 0, 52, 0
1, 509962, Note_on_c, 0, 73, 0
1, 509962, Note_on_c, 0, 68, 0
1, 510010, Note_on_c, 0, 69, 91
1, 510010, Note_on_c, 0, 75, 103
1, 510010, Note_on_c, 0, 54, 91
1, 510071, Note_on_c, 0, 54, 0
1, 510071, Note_on_c, 0, 75, 0
1, 510071, Note_on_c, 0, 69, 0
1, 510183, Note_on_c, 0, 66, 91
1, 510183, Note_on_c, 0, 72, 103
1, 510183, Note_on_c, 0, 44, 79
1, 510186, Note_on_c, 0, 51, 79
1, 510239, Note_on_c, 0, 44, 0
1, 510239, Note_on_c, 0, 66, 0
1, 510239, Note_on_c, 0, 72, 0
1, 510242, Note_on_c, 0, 51, 0
1, 510424, Note_on_c, 0, 68, 91
1, 510424, Note_on_c, 0, 73, 103
1, 510424, Note_on_c, 0, 52, 91
1, 510450, Note_on_c, 0, 52, 0
1, 510450, Note_on_c, 0, 73, 0
1, 510450, Note_on_c, 0, 68, 0
1, 510498, Note_on_c, 0, 66, 91
1, 510498, Note_on_c, 0, 72, 103
1, 510498, Note_on_c, 0, 51, 91
1, 510570, Note_on_c, 0, 51, 0
1, 510570, Note_on_c, 0, 72, 0
1, 510570, Note_on_c, 0, 66, 0
1, 510703, Note_on_c, 0, 66, 91
1, 510703, Note_on_c, 0, 68, 100
1, 510703, Note_on_c, 0, 75, 100
1, 510706, Note_on_c, 0, 80, 112
1, 510706, Note_on_c, 0, 32, 79
1, 510706, Note_on_c, 0, 44, 100
1, 510759, Note_on_c, 0, 44, 0
1, 510759, Note_on_c, 0, 32, 0
1, 510823, Control_c, 0, 64, 127
1, 510823, Control_c, 0, 64, 127
1, 510871, Note_on_c, 0, 66, 0
1, 510871, Note_on_c, 0, 75, 0
1, 510871, Note_on_c, 0, 68, 0
1, 510874, Note_on_c, 0, 80, 0
1, 510943, Note_on_c, 0, 34, 79
1, 510943, Note_on_c, 0, 46, 91
1, 510974, Note_on_c, 0, 46, 0
1, 510974, Note_on_c, 0, 34, 0
1, 511030, Note_on_c, 0, 36, 68
1, 511030, Note_on_c, 0, 48, 78
1, 511090, Note_on_c, 0, 48, 0
1, 511090, Note_on_c, 0, 36, 0
1, 511168, Control_c, 0, 64, 0
1, 511168, Control_c, 0, 64, 0
1, 511203, Note_on_c, 0, 73, 77
1, 511203, Note_on_c, 0, 76, 77
1, 511203, Note_on_c, 0, 80, 77
1, 511206, Note_on_c, 0, 85, 96
1, 511206, Note_on_c, 0, 37, 88
1, 511206, Note_on_c, 0, 49, 88
1, 511263, Note_on_c, 0, 80, 0
1, 511263, Note_on_c, 0, 73, 0
1, 511263, Note_on_c, 0, 76, 0
1, 511266, Note_on_c, 0, 85, 0
1, 511266, Note_on_c, 0, 37, 0
1, 511266, Note_on_c, 0, 49, 0
1, 511462, Note_on_c, 0, 75, 77
1, 511462, Note_on_c, 0, 87, 89
1, 511490, Note_on_c, 0, 87, 0
1, 511490, Note_on_c, 0, 75, 0
1, 511542, Note_on_c, 0, 76, 77
1, 511542, Note_on_c, 0, 88, 94
1, 511602, Note_on_c, 0, 88, 0
1, 511602, Note_on_c, 0, 76, 0
1, 511715, Note_on_c, 0, 76, 77
1, 511715, Note_on_c, 0, 80, 77
1, 511715, Note_on_c, 0, 88, 98
1, 511718, Note_on_c, 0, 61, 77
1, 511718, Note_on_c, 0, 73, 89
1, 511771, Note_on_c, 0, 88, 0
1, 511771, Note_on_c, 0, 76, 0
1, 511771, Note_on_c, 0, 80, 0
1, 511774, Note_on_c, 0, 61, 0
1, 511774, Note_on_c, 0, 73, 0
1, 511955, Note_on_c, 0, 63, 77
1, 511955, Note_on_c, 0, 75, 89
1, 511984, Note_on_c, 0, 75, 0
1, 511984, Note_on_c, 0, 63, 0
1, 512036, Note_on_c, 0, 64, 77
1, 512036, Note_on_c, 0, 76, 89
1, 512096, Note_on_c, 0, 76, 0
1, 512096, Note_on_c, 0, 64, 0
1, 512209, Note_on_c, 0, 64, 77
1, 512209, Note_on_c, 0, 76, 96
1, 512209, Note_on_c, 0, 68, 77
1, 512212, Note_on_c, 0, 71, 96
1, 512212, Note_on_c, 0, 80, 77
1, 512265, Note_on_c, 0, 68, 0
1, 512265, Note_on_c, 0, 64, 0
1, 512265, Note_on_c, 0, 76, 0
1, 512268, Note_on_c, 0, 71, 0
1, 512268, Note_on_c, 0, 80, 0
1, 512449, Note_on_c, 0, 69, 77
1, 512449, Note_on_c, 0, 81, 94
1, 512477, Note_on_c, 0, 81, 0
1, 512477, Note_on_c, 0, 69, 0
1, 512529, Note_on_c, 0, 71, 77
1, 512529, Note_on_c, 0, 83, 89
1, 512590, Note_on_c, 0, 83, 0
1, 512590, Note_on_c, 0, 71, 0
1, 512702, Note_on_c, 0, 52, 77
1, 512702, Note_on_c, 0, 64, 89
1, 512702, Note_on_c, 0, 71, 77
1, 512705, Note_on_c, 0, 74, 77
1, 512705, Note_on_c, 0, 83, 98
1, 512758, Note_on_c, 0, 71, 0
1, 512758, Note_on_c, 0, 52, 0
1, 512758, Note_on_c, 0, 64, 0
1, 512761, Note_on_c, 0, 74, 0
1, 512761, Note_on_c, 0, 83, 0
1, 512943, Note_on_c, 0, 54, 77
1, 512943, Note_on_c, 0, 64, 89
1, 512971, Note_on_c, 0, 64, 0
1, 512971, Note_on_c, 0, 54, 0
1, 513023, Note_on_c, 0, 56, 77
1, 513023, Note_on_c, 0, 64, 89
1, 513084, Note_on_c, 0, 64, 0
1, 513084, Note_on_c, 0, 56, 0
1, 513196, Note_on_c, 0, 73, 73
1, 513196, Note_on_c, 0, 81, 73
1, 513196, Note_on_c, 0, 85, 92
1, 513199, Note_on_c, 0, 57, 73
1, 513199, Note_on_c, 0, 64, 83
1, 513252, Note_on_c, 0, 85, 0
1, 513252, Note_on_c, 0, 73, 0
1, 513252, Note_on_c, 0, 81, 0
1, 513255, Note_on_c, 0, 57, 0
1, 513255, Note_on_c, 0, 64, 0
1, 513437, Note_on_c, 0, 76, 74
1, 513437, Note_on_c, 0, 80, 86
1, 513437, Note_on_c, 0, 86, 74
1, 513465, Note_on_c, 0, 86, 0
1, 513465, Note_on_c, 0, 80, 0
1, 513465, Note_on_c, 0, 76, 0
1, 513517, Note_on_c, 0, 76, 75
1, 513517, Note_on_c, 0, 81, 91
1, 513517, Note_on_c, 0, 85, 75
1, 513577, Note_on_c, 0, 85, 0
1, 513577, Note_on_c, 0, 81, 0
1, 513577, Note_on_c, 0, 76, 0
1, 513690, Note_on_c, 0, 76, 76
1, 513690, Note_on_c, 0, 81, 76
1, 513690, Note_on_c, 0, 85, 97
1, 513693, Note_on_c, 0, 61, 76
1, 513693, Note_on_c, 0, 69, 88
1, 513746, Note_on_c, 0, 85, 0
1, 513746, Note_on_c, 0, 76, 0
1, 513746, Note_on_c, 0, 81, 0
1, 513749, Note_on_c, 0, 61, 0
1, 513749, Note_on_c, 0, 69, 0
1, 513930, Note_on_c, 0, 64, 77
1, 513930, Note_on_c, 0, 71, 90
1, 513959, Note_on_c, 0, 71, 0
1, 513959, Note_on_c, 0, 64, 0
1, 514011, Note_on_c, 0, 69, 78
1, 514011, Note_on_c, 0, 73, 91
1, 514071, Note_on_c, 0, 73, 0
1, 514071, Note_on_c, 0, 69, 0
1, 514183, Note_on_c, 0, 81, 79
1, 514183, Note_on_c, 0, 85, 99
1, 514183, Note_on_c, 0, 69, 79
1, 514186, Note_on_c, 0, 73, 92
1, 514239, Note_on_c, 0, 69, 0
1, 514239, Note_on_c, 0, 81, 0
1, 514239, Note_on_c, 0, 85, 0
1, 514242, Note_on_c, 0, 73, 0
1, 514424, Note_on_c, 0, 81, 81
1, 514424, Note_on_c, 0, 86, 99
1, 514454, Note_on_c, 0, 86, 0
1, 514454, Note_on_c, 0, 81, 0
1, 514510, Note_on_c, 0, 81, 81
1, 514510, Note_on_c, 0, 88, 95
1, 514571, Note_on_c, 0, 88, 0
1, 514571, Note_on_c, 0, 81, 0
1, 514683, Note_on_c, 0, 81, 93
1, 514683, Note_on_c, 0, 90, 106
1, 514683, Note_on_c, 0, 72, 83
1, 514686, Note_on_c, 0, 75, 96
1, 514739, Note_on_c, 0, 75, 0
1, 514739, Note_on_c, 0, 72, 0
1, 514924, Note_on_c, 0, 73, 84
1, 514924, Note_on_c, 0, 76, 98
1, 514952, Note_on_c, 0, 76, 0
1, 514952, Note_on_c, 0, 73, 0
1, 515004, Note_on_c, 0, 72, 85
1, 515004, Note_on_c, 0, 75, 99
1, 515076, Note_on_c, 0, 75, 0
1, 515076, Note_on_c, 0, 72, 0
1, 515208, Note_on_c, 0, 80, 77
1, 515208, Note_on_c, 0, 88, 89
1, 515208, Note_on_c, 0, 73, 65
1, 515211, Note_on_c, 0, 76, 77
1, 515218, Note_on_c, 0, 90, 0
1, 515218, Note_on_c, 0, 81, 0
1, 515271, Note_on_c, 0, 88, 0
1, 515271, Note_on_c, 0, 80, 0
1, 515296, Note_on_c, 0, 76, 0
1, 515296, Note_on_c, 0, 73, 0
1, 515458, Note_on_c, 0, 73, 65
1, 515458, Note_on_c, 0, 76, 77
1, 515529, Note_on_c, 0, 76, 0
1, 515529, Note_on_c, 0, 73, 0
1, 515662, Note_on_c, 0, 78, 77
1, 515662, Note_on_c, 0, 87, 89
1, 515662, Note_on_c, 0, 69, 65
1, 515665, Note_on_c, 0, 72, 77
1, 515723, Note_on_c, 0, 69, 0
1, 515723, Note_on_c, 0, 78, 0
1, 515723, Note_on_c, 0, 87, 0
1, 515726, Note_on_c, 0, 72, 0
1, 515835, Note_on_c, 0, 76, 77
1, 515835, Note_on_c, 0, 85, 89
1, 515835, Note_on_c, 0, 68, 65
1, 515838, Note_on_c, 0, 73, 77
1, 515891, Note_on_c, 0, 68, 0
1, 515891, Note_on_c, 0, 76, 0
1, 515891, Note_on_c, 0, 85, 0
1, 515894, Note_on_c, 0, 73, 0
1, 515995, Note_on_c, 0, 76, 77
1, 515995, Note_on_c, 0, 85, 89
1, 516048, Note_on_c, 0, 85, 0
1, 516048, Note_on_c, 0, 76, 0
1, 516145, Note_on_c, 0, 74, 77
1, 516145, Note_on_c, 0, 83, 89
1, 516145, Note_on_c, 0, 65, 65
1, 516148, Note_on_c, 0, 68, 77
1, 516198, Note_on_c, 0, 65, 0
1, 516198, Note_on_c, 0, 74, 0
1, 516198, Note_on_c, 0, 83, 0
1, 516201, Note_on_c, 0, 68, 0
1, 516295, Note_on_c, 0, 73, 77
1, 516295, Note_on_c, 0, 81, 89
1, 516295, Note_on_c, 0, 64, 65
1, 516298, Note_on_c, 0, 69, 77
1, 516344, Note_on_c, 0, 64, 0
1, 516344, Note_on_c, 0, 73, 0
1, 516344, Note_on_c, 0, 81, 0
1, 516347, Note_on_c, 0, 69, 0
1, 516435, Note_on_c, 0, 64, 65
1, 516435, Note_on_c, 0, 69, 77
1, 516484, Note_on_c, 0, 69, 0
1, 516484, Note_on_c, 0, 64, 0
1, 516576, Note_on_c, 0, 71, 77
1, 516576, Note_on_c, 0, 80, 88
1, 516576, Note_on_c, 0, 62, 65
1, 516579, Note_on_c, 0, 65, 77
1, 516625, Note_on_c, 0, 62, 0
1, 516625, Note_on_c, 0, 71, 0
1, 516625, Note_on_c, 0, 80, 0
1, 516628, Note_on_c, 0, 65, 0
1, 516716, Note_on_c, 0, 70, 75
1, 516716, Note_on_c, 0, 78, 85
1, 516716, Note_on_c, 0, 61, 65
1, 516719, Note_on_c, 0, 66, 77
1, 516765, Note_on_c, 0, 61, 0
1, 516765, Note_on_c, 0, 70, 0
1, 516765, Note_on_c, 0, 78, 0
1, 516768, Note_on_c, 0, 66, 0
1, 516857, Note_on_c, 0, 70, 72
1, 516857, Note_on_c, 0, 78, 83
1, 516906, Note_on_c, 0, 78, 0
1, 516906, Note_on_c, 0, 70, 0
1, 516997, Note_on_c, 0, 70, 63
1, 516997, Note_on_c, 0, 79, 83
1, 516997, Note_on_c, 0, 60, 65
1, 517000, Note_on_c, 0, 64, 77
1, 517062, Note_on_c, 0, 60, 0
1, 517062, Note_on_c, 0, 70, 0
1, 517062, Note_on_c, 0, 79, 0
1, 517065, Note_on_c, 0, 64, 0
1, 517184, Note_on_c, 0, 69, 68
1, 517184, Note_on_c, 0, 71, 68
1, 517184, Note_on_c, 0, 80, 89
1, 517187, Note_on_c, 0, 59, 65
1, 517187, Note_on_c, 0, 63, 77
1, 517425, Note_on_c, 0, 80, 0
1, 517425, Note_on_c, 0, 69, 0
1, 517425, Note_on_c, 0, 71, 0
1, 517428, Note_on_c, 0, 69, 77
1, 517428, Note_on_c, 0, 71, 77
1, 517428, Note_on_c, 0, 81, 89
1, 517505, Note_on_c, 0, 81, 0
1, 517505, Note_on_c, 0, 69, 0
1, 517505, Note_on_c, 0, 71, 0
1, 517508, Note_on_c, 0, 69, 77
1, 517508, Note_on_c, 0, 71, 77
1, 517508, Note_on_c, 0, 82, 89
1, 517571, Note_on_c, 0, 82, 0
1, 517571, Note_on_c, 0, 69, 0
1, 517571, Note_on_c, 0, 71, 0
1, 517692, Note_on_c, 0, 69, 77
1, 517692, Note_on_c, 0, 71, 77
1, 517692, Note_on_c, 0, 78, 77
1, 517695, Note_on_c, 0, 59, 0
1, 517695, Note_on_c, 0, 63, 0
1, 517695, Note_on_c, 0, 83, 98
1, 517698, Note_on_c, 0, 35, 65
1, 517698, Note_on_c, 0, 47, 77
1, 517951, Note_on_c, 0, 47, 0
1, 517951, Note_on_c, 0, 35, 0
1, 517951, Note_on_c, 0, 37, 65
1, 517954, Note_on_c, 0, 49, 77
1, 518038, Note_on_c, 0, 49, 0
1, 518038, Note_on_c, 0, 37, 0
1, 518038, Note_on_c, 0, 39, 65
1, 518041, Note_on_c, 0, 51, 77
1, 518098, Note_on_c, 0, 51, 0
1, 518098, Note_on_c, 0, 39, 0
1, 518211, Note_on_c, 0, 68, 70
1, 518211, Note_on_c, 0, 76, 70
1, 518211, Note_on_c, 0, 80, 89
1, 518214, Note_on_c, 0, 40, 65
1, 518214, Note_on_c, 0, 52, 77
1, 518222, Note_on_c, 0, 78, 0
1, 518222, Note_on_c, 0, 71, 0
1, 518222, Note_on_c, 0, 69, 0
1, 518225, Note_on_c, 0, 83, 0
1, 518398, Note_on_c, 0, 80, 0
1, 518398, Note_on_c, 0, 68, 0
1, 518398, Note_on_c, 0, 76, 0
1, 518491, Note_on_c, 0, 52, 0
1, 518491, Note_on_c, 0, 40, 0
1, 518491, Note_on_c, 0, 56, 73
1, 518604, Note_on_c, 0, 56, 0
1, 518604, Note_on_c, 0, 69, 65
1, 518604, Note_on_c, 0, 73, 77
1, 518607, Note_on_c, 0, 57, 70
1, 518885, Note_on_c, 0, 68, 56
1, 518885, Note_on_c, 0, 76, 68
1, 518885, Note_on_c, 0, 52, 48
1, 518888, Note_on_c, 0, 64, 57
1, 518893, Note_on_c, 0, 57, 0
1, 518893, Note_on_c, 0, 69, 0
1, 518893, Note_on_c, 0, 73, 0
1, 519293, Note_on_c, 0, 76, 0
1, 519293, Note_on_c, 0, 68, 0
1, 519293, Note_on_c, 0, 52, 0
1, 519296, Note_on_c, 0, 64, 0
1, 519684, Note_on_c, 0, 73, 117
1, 519703, Control_c, 0, 64, 127
1, 519703, Control_c, 0, 64, 127
1, 519872, Control_c, 0, 64, 127
1, 519872, Note_on_c, 0, 76, 97
1, 519872, Note_on_c, 0, 80, 97
1, 519875, Note_on_c, 0, 85, 113
1, 519875, Control_c, 0, 64, 127
1, 519996, Note_on_c, 0, 73, 0
1, 519996, Note_on_c, 0, 49, 113
1, 520121, Note_on_c, 0, 73, 112
1, 520246, Note_on_c, 0, 49, 0
1, 520246, Note_on_c, 0, 68, 117
1, 520340, Note_on_c, 0, 76, 0
1, 520340, Note_on_c, 0, 85, 0
1, 520340, Note_on_c, 0, 80, 0
1, 520343, Note_on_c, 0, 73, 0
1, 520343, Note_on_c, 0, 73, 96
1, 520343, Note_on_c, 0, 76, 96
1, 520346, Note_on_c, 0, 80, 112
1, 520433, Note_on_c, 0, 68, 0
1, 520433, Note_on_c, 0, 49, 112
1, 520527, Note_on_c, 0, 68, 111
1, 520620, Note_on_c, 0, 49, 0
1, 520620, Note_on_c, 0, 64, 117
1, 520701, Note_on_c, 0, 73, 0
1, 520701, Note_on_c, 0, 68, 0
1, 520701, Note_on_c, 0, 76, 0
1, 520704, Note_on_c, 0, 80, 0
1, 520704, Note_on_c, 0, 68, 95
1, 520704, Note_on_c, 0, 73, 95
1, 520707, Note_on_c, 0, 76, 110
1, 520781, Note_on_c, 0, 64, 0
1, 520781, Note_on_c, 0, 49, 110
1, 520861, Note_on_c, 0, 64, 109
1, 520941, Note_on_c, 0, 49, 0
1, 520941, Note_on_c, 0, 61, 115
1, 521022, Note_on_c, 0, 68, 0
1, 521022, Note_on_c, 0, 64, 0
1, 521022, Note_on_c, 0, 73, 0
1, 521025, Note_on_c, 0, 76, 0
1, 521025, Note_on_c, 0, 64, 94
1, 521025, Note_on_c, 0, 68, 94
1, 521028, Note_on_c, 0, 73, 109
1, 521102, Note_on_c, 0, 61, 0
1, 521102, Note_on_c, 0, 49, 109
1, 521182, Note_on_c, 0, 61, 108
1, 521254, Control_c, 0, 64, 0
1, 521254, Control_c, 0, 64, 0
1, 521262, Note_on_c, 0, 49, 0
1, 521262, Note_on_c, 0, 59, 114
1, 521314, Control_c, 0, 64, 127
1, 521314, Control_c, 0, 64, 127
1, 521387, Note_on_c, 0, 64, 0
1, 521387, Note_on_c, 0, 61, 0
1, 521387, Control_c, 0, 64, 127
1, 521390, Note_on_c, 0, 73, 0
1, 521390, Note_on_c, 0, 68, 0
1, 521390, Note_on_c, 0, 61, 93
1, 521393, Note_on_c, 0, 65, 93
1, 521393, Note_on_c, 0, 71, 107
1, 521393, Control_c, 0, 64, 127
1, 521512, Note_on_c, 0, 42, 107
1, 521637, Note_on_c, 0, 59, 107
1, 521717, Note_on_c, 0, 59, 0
1, 521717, Note_on_c, 0, 57, 112
1, 521721, Control_c, 0, 64, 0
1, 521721, Control_c, 0, 64, 0
1, 521774, Control_c, 0, 64, 127
1, 521774, Control_c, 0, 64, 127
1, 521797, Note_on_c, 0, 71, 0
1, 521797, Note_on_c, 0, 61, 0
1, 521797, Note_on_c, 0, 65, 0
1, 521800, Note_on_c, 0, 59, 0
1, 521800, Note_on_c, 0, 61, 92
1, 521800, Note_on_c, 0, 66, 92
1, 521803, Note_on_c, 0, 69, 107
1, 521877, Note_on_c, 0, 42, 0
1, 521877, Note_on_c, 0, 42, 106
1, 521958, Note_on_c, 0, 57, 106
1, 522038, Note_on_c, 0, 42, 0
1, 522038, Note_on_c, 0, 57, 0
1, 522038, Note_on_c, 0, 56, 111
1, 522050, Control_c, 0, 64, 0
1, 522050, Control_c, 0, 64, 0
1, 522107, Control_c, 0, 64, 127
1, 522107, Control_c, 0, 64, 127
1, 522118, Note_on_c, 0, 66, 0
1, 522118, Note_on_c, 0, 61, 0
1, 522118, Note_on_c, 0, 57, 0
1, 522121, Note_on_c, 0, 69, 0
1, 522121, Note_on_c, 0, 60, 91
1, 522121, Note_on_c, 0, 63, 91
1, 522124, Note_on_c, 0, 68, 105
1, 522198, Note_on_c, 0, 44, 104
1, 522279, Note_on_c, 0, 56, 104
1, 522359, Note_on_c, 0, 56, 0
1, 522359, Note_on_c, 0, 54, 109
1, 522374, Control_c, 0, 64, 0
1, 522374, Control_c, 0, 64, 0
1, 522436, Control_c, 0, 64, 127
1, 522436, Control_c, 0, 64, 127
1, 522439, Note_on_c, 0, 63, 0
1, 522439, Note_on_c, 0, 60, 0
1, 522439, Note_on_c, 0, 56, 0
1, 522442, Note_on_c, 0, 68, 0
1, 522442, Note_on_c, 0, 56, 90
1, 522442, Note_on_c, 0, 60, 90
1, 522445, Note_on_c, 0, 66, 104
1, 522519, Note_on_c, 0, 44, 0
1, 522519, Note_on_c, 0, 44, 103
1, 522599, Note_on_c, 0, 54, 103
1, 522680, Note_on_c, 0, 44, 0
1, 522680, Note_on_c, 0, 54, 0
1, 522680, Note_on_c, 0, 52, 107
1, 522683, Control_c, 0, 64, 0
1, 522683, Control_c, 0, 64, 0
1, 522756, Control_c, 0, 64, 127
1, 522756, Control_c, 0, 64, 127
1, 522804, Note_on_c, 0, 56, 0
1, 522804, Note_on_c, 0, 54, 0
1, 522804, Control_c, 0, 64, 127
1, 522807, Note_on_c, 0, 60, 0
1, 522807, Note_on_c, 0, 66, 0
1, 522807, Note_on_c, 0, 56, 89
1, 522810, Note_on_c, 0, 61, 89
1, 522810, Note_on_c, 0, 64, 102
1, 522810, Control_c, 0, 64, 127
1, 522907, Note_on_c, 0, 37, 102
1, 522990, Control_c, 0, 64, 127
1, 522990, Control_c, 0, 64, 127
1, 523009, Note_on_c, 0, 52, 103
1, 523111, Note_on_c, 0, 52, 0
1, 523111, Note_on_c, 0, 56, 109
1, 523213, Note_on_c, 0, 64, 0
1, 523213, Note_on_c, 0, 56, 0
1, 523213, Note_on_c, 0, 61, 0
1, 523216, Note_on_c, 0, 61, 90
1, 523216, Note_on_c, 0, 64, 90
1, 523216, Note_on_c, 0, 68, 104
1, 523219, Note_on_c, 0, 37, 0
1, 523293, Note_on_c, 0, 40, 104
1, 523373, Note_on_c, 0, 52, 0
1, 523373, Note_on_c, 0, 56, 105
1, 523454, Note_on_c, 0, 56, 0
1, 523454, Note_on_c, 0, 54, 111
1, 523471, Control_c, 0, 64, 0
1, 523471, Control_c, 0, 64, 0
1, 523529, Control_c, 0, 64, 127
1, 523529, Control_c, 0, 64, 127
1, 523534, Note_on_c, 0, 61, 0
1, 523534, Note_on_c, 0, 64, 0
1, 523534, Note_on_c, 0, 56, 0
1, 523537, Note_on_c, 0, 68, 0
1, 523537, Note_on_c, 0, 56, 92
1, 523537, Note_on_c, 0, 60, 92
1, 523540, Note_on_c, 0, 40, 0
1, 523540, Note_on_c, 0, 66, 106
1, 523614, Note_on_c, 0, 39, 106
1, 523694, Note_on_c, 0, 54, 107
1, 523774, Note_on_c, 0, 54, 0
1, 523774, Note_on_c, 0, 56, 113
1, 523805, Control_c, 0, 64, 0
1, 523805, Control_c, 0, 64, 0
1, 523855, Note_on_c, 0, 56, 0
1, 523855, Note_on_c, 0, 60, 0
1, 523855, Note_on_c, 0, 54, 0
1, 523858, Note_on_c, 0, 66, 0
1, 523858, Note_on_c, 0, 60, 93
1, 523858, Note_on_c, 0, 63, 93
1, 523861, Note_on_c, 0, 39, 0
1, 523861, Note_on_c, 0, 68, 108
1, 523861, Control_c, 0, 64, 127
1, 523864, Control_c, 0, 64, 127
1, 523935, Note_on_c, 0, 42, 107
1, 524015, Note_on_c, 0, 56, 109
1, 524095, Note_on_c, 0, 56, 0
1, 524095, Note_on_c, 0, 56, 0
1, 524095, Note_on_c, 0, 56, 116
1, 524115, Control_c, 0, 64, 0
1, 524115, Control_c, 0, 64, 0
1, 524171, Control_c, 0, 64, 127
1, 524171, Control_c, 0, 64, 127
1, 524220, Note_on_c, 0, 63, 0
1, 524220, Note_on_c, 0, 60, 0
1, 524220, Control_c, 0, 64, 127
1, 524223, Note_on_c, 0, 68, 0
1, 524223, Note_on_c, 0, 61, 94
1, 524223, Note_on_c, 0, 64, 94
1, 524226, Note_on_c, 0, 42, 0
1, 524226, Note_on_c, 0, 68, 109
1, 524226, Control_c, 0, 64, 127
1, 524300, Note_on_c, 0, 56, 0
1, 524300, Note_on_c, 0, 40, 110
1, 524381, Note_on_c, 0, 56, 110
1, 524450, Control_c, 0, 64, 0
1, 524450, Control_c, 0, 64, 0
1, 524461, Note_on_c, 0, 40, 0
1, 524461, Note_on_c, 0, 61, 117
1, 524503, Control_c, 0, 64, 127
1, 524503, Control_c, 0, 64, 127
1, 524554, Note_on_c, 0, 64, 0
1, 524554, Note_on_c, 0, 68, 0
1, 524554, Note_on_c, 0, 61, 0
1, 524557, Note_on_c, 0, 56, 0
1, 524557, Note_on_c, 0, 64, 96
1, 524557, Note_on_c, 0, 67, 96
1, 524560, Note_on_c, 0, 73, 112
1, 524648, Note_on_c, 0, 61, 0
1, 524648, Note_on_c, 0, 45, 112
1, 524742, Note_on_c, 0, 61, 112
1, 524832, Control_c, 0, 64, 0
1, 524832, Control_c, 0, 64, 0
1, 524835, Note_on_c, 0, 45, 0
1, 524835, Note_on_c, 0, 61, 117
1, 524936, Control_c, 0, 64, 127
1, 524936, Control_c, 0, 64, 127
1, 524960, Note_on_c, 0, 64, 0
1, 524960, Note_on_c, 0, 61, 0
1, 524960, Note_on_c, 0, 67, 0
1, 524963, Note_on_c, 0, 73, 0
1, 524963, Note_on_c, 0, 64, 97
1, 524963, Note_on_c, 0, 68, 97
1, 524966, Note_on_c, 0, 73, 113
1, 525085, Note_on_c, 0, 61, 0
1, 525085, Note_on_c, 0, 44, 98
1, 525210, Note_on_c, 0, 61, 114
1, 525290, Note_on_c, 0, 44, 0
1, 525290, Note_on_c, 0, 60, 117
1, 525295, Control_c, 0, 64, 0
1, 525295, Control_c, 0, 64, 0
1, 525344, Control_c, 0, 64, 127
1, 525344, Control_c, 0, 64, 127
1, 525384, Note_on_c, 0, 64, 0
1, 525384, Note_on_c, 0, 61, 0
1, 525384, Note_on_c, 0, 68, 0
1, 525387, Note_on_c, 0, 73, 0
1, 525387, Note_on_c, 0, 63, 99
1, 525387, Note_on_c, 0, 68, 99
1, 525390, Note_on_c, 0, 72, 115
1, 525477, Note_on_c, 0, 60, 0
1, 525477, Note_on_c, 0, 44, 115
1, 525571, Note_on_c, 0, 60, 116
1, 525696, Note_on_c, 0, 44, 0
1, 525696, Note_on_c, 0, 73, 117
1, 525699, Control_c, 0, 64, 0
1, 525699, Control_c, 0, 64, 0
1, 525793, Control_c, 0, 64, 127
1, 525793, Control_c, 0, 64, 127
1, 525856, Note_on_c, 0, 63, 0
1, 525856, Note_on_c, 0, 60, 0
1, 525856, Control_c, 0, 64, 127
1, 525859, Note_on_c, 0, 72, 0
1, 525859, Note_on_c, 0, 68, 0
1, 525859, Note_on_c, 0, 76, 97
1, 525862, Note_on_c, 0, 80, 97
1, 525862, Note_on_c, 0, 85, 113
1, 525862, Control_c, 0, 64, 127
1, 525981, Note_on_c, 0, 73, 0
1, 525981, Note_on_c, 0, 49, 113
1, 526106, Note_on_c, 0, 73, 112
1, 526230, Note_on_c, 0, 49, 0
1, 526230, Note_on_c, 0, 68, 117
1, 526324, Note_on_c, 0, 76, 0
1, 526324, Note_on_c, 0, 85, 0
1, 526324, Note_on_c, 0, 80, 0
1, 526327, Note_on_c, 0, 73, 0
1, 526327, Note_on_c, 0, 73, 96
1, 526327, Note_on_c, 0, 76, 96
1, 526330, Note_on_c, 0, 80, 112
1, 526418, Note_on_c, 0, 68, 0
1, 526418, Note_on_c, 0, 49, 112
1, 526511, Note_on_c, 0, 68, 111
1, 526605, Note_on_c, 0, 49, 0
1, 526605, Note_on_c, 0, 64, 117
1, 526685, Note_on_c, 0, 73, 0
1, 526685, Note_on_c, 0, 68, 0
1, 526685, Note_on_c, 0, 76, 0
1, 526688, Note_on_c, 0, 80, 0
1, 526688, Note_on_c, 0, 68, 95
1, 526688, Note_on_c, 0, 73, 95
1, 526691, Note_on_c, 0, 76, 110
1, 526765, Note_on_c, 0, 64, 0
1, 526765, Note_on_c, 0, 49, 110
1, 526845, Note_on_c, 0, 64, 109
1, 526926, Note_on_c, 0, 49, 0
1, 526926, Note_on_c, 0, 61, 115
1, 527006, Note_on_c, 0, 68, 0
1, 527006, Note_on_c, 0, 64, 0
1, 527006, Note_on_c, 0, 73, 0
1, 527009, Note_on_c, 0, 76, 0
1, 527009, Note_on_c, 0, 64, 94
1, 527009, Note_on_c, 0, 68, 94
1, 527012, Note_on_c, 0, 73, 109
1, 527086, Note_on_c, 0, 61, 0
1, 527086, Note_on_c, 0, 49, 109
1, 527166, Note_on_c, 0, 61, 108
1, 527238, Control_c, 0, 64, 0
1, 527238, Control_c, 0, 64, 0
1, 527247, Note_on_c, 0, 49, 0
1, 527247, Note_on_c, 0, 60, 114
1, 527298, Control_c, 0, 64, 127
1, 527298, Control_c, 0, 64, 127
1, 527371, Note_on_c, 0, 64, 0
1, 527371, Note_on_c, 0, 61, 0
1, 527371, Control_c, 0, 64, 127
1, 527374, Note_on_c, 0, 73, 0
1, 527374, Note_on_c, 0, 68, 0
1, 527374, Note_on_c, 0, 64, 93
1, 527377, Note_on_c, 0, 67, 93
1, 527377, Note_on_c, 0, 72, 107
1, 527377, Control_c, 0, 64, 127
1, 527496, Note_on_c, 0, 60, 0
1, 527496, Note_on_c, 0, 45, 113
1, 527621, Note_on_c, 0, 60, 108
1, 527701, Note_on_c, 0, 61, 112
1, 527706, Control_c, 0, 64, 0
1, 527706, Control_c, 0, 64, 0
1, 527758, Control_c, 0, 64, 127
1, 527758, Control_c, 0, 64, 127
1, 527781, Note_on_c, 0, 64, 0
1, 527781, Note_on_c, 0, 72, 0
1, 527781, Note_on_c, 0, 67, 0
1, 527784, Note_on_c, 0, 60, 0
1, 527784, Note_on_c, 0, 64, 94
1, 527784, Note_on_c, 0, 67, 94
1, 527787, Note_on_c, 0, 73, 109
1, 527862, Note_on_c, 0, 61, 0
1, 527862, Note_on_c, 0, 45, 0
1, 527862, Note_on_c, 0, 33, 112
1, 527942, Note_on_c, 0, 61, 109
1, 528022, Note_on_c, 0, 62, 111
1, 528035, Control_c, 0, 64, 0
1, 528035, Control_c, 0, 64, 0
1, 528092, Control_c, 0, 64, 127
1, 528092, Control_c, 0, 64, 127
1, 528102, Note_on_c, 0, 61, 0
1, 528102, Note_on_c, 0, 67, 0
1, 528102, Note_on_c, 0, 64, 0
1, 528105, Note_on_c, 0, 73, 0
1, 528105, Note_on_c, 0, 66, 94
1, 528105, Note_on_c, 0, 69, 94
1, 528108, Note_on_c, 0, 33, 0
1, 528108, Note_on_c, 0, 74, 109
1, 528183, Note_on_c, 0, 62, 0
1, 528183, Note_on_c, 0, 50, 110
1, 528263, Note_on_c, 0, 62, 109
1, 528343, Note_on_c, 0, 63, 110
1, 528358, Control_c, 0, 64, 0
1, 528358, Control_c, 0, 64, 0
1, 528421, Note_on_c, 0, 62, 0
1, 528421, Note_on_c, 0, 50, 0
1, 528421, Note_on_c, 0, 69, 0
1, 528421, Note_on_c, 0, 74, 0
1, 528421, Note_on_c, 0, 66, 0
1, 528421, Control_c, 0, 64, 127
1, 528421, Note_on_c, 0, 66, 95
1, 528421, Note_on_c, 0, 69, 95
1, 528421, Note_on_c, 0, 75, 110
1, 528421, Control_c, 0, 64, 127
1, 528504, Note_on_c, 0, 63, 0
1, 528504, Note_on_c, 0, 48, 110
1, 528584, Note_on_c, 0, 63, 110
1, 528664, Control_c, 0, 64, 0
1, 528664, Note_on_c, 0, 64, 109
1, 528664, Control_c, 0, 64, 0
1, 528713, Control_c, 0, 64, 127
1, 528713, Control_c, 0, 64, 127
1, 528744, Note_on_c, 0, 63, 0
1, 528744, Note_on_c, 0, 66, 0
1, 528744, Control_c, 0, 64, 127
1, 528747, Note_on_c, 0, 75, 0
1, 528747, Note_on_c, 0, 69, 0
1, 528747, Note_on_c, 0, 68, 95
1, 528750, Note_on_c, 0, 73, 95
1, 528750, Note_on_c, 0, 76, 109
1, 528750, Control_c, 0, 64, 127
1, 528753, Note_on_c, 0, 48, 0
1, 528824, Note_on_c, 0, 64, 0
1, 528824, Note_on_c, 0, 49, 111
1, 528890, Control_c, 0, 64, 127
1, 528890, Control_c, 0, 64, 127
1, 528905, Note_on_c, 0, 64, 111
1, 528985, Note_on_c, 0, 66, 113
1, 528991, Control_c, 0, 64, 0
1, 528991, Control_c, 0, 64, 0
1, 529038, Control_c, 0, 64, 127
1, 529038, Control_c, 0, 64, 127
1, 529065, Note_on_c, 0, 73, 0
1, 529065, Note_on_c, 0, 76, 0
1, 529065, Note_on_c, 0, 68, 0
1, 529068, Note_on_c, 0, 64, 0
1, 529068, Note_on_c, 0, 73, 87
1, 529068, Note_on_c, 0, 76, 87
1, 529071, Note_on_c, 0, 66, 0
1, 529071, Note_on_c, 0, 78, 103
1, 529071, Note_on_c, 0, 66, 103
1, 529145, Note_on_c, 0, 66, 0
1, 529145, Note_on_c, 0, 49, 0
1, 529145, Note_on_c, 0, 46, 114
1, 529226, Note_on_c, 0, 66, 114
1, 529306, Note_on_c, 0, 68, 116
1, 529333, Control_c, 0, 64, 0
1, 529333, Control_c, 0, 64, 0
1, 529423, Control_c, 0, 64, 127
1, 529423, Control_c, 0, 64, 127
1, 529431, Note_on_c, 0, 66, 0
1, 529431, Note_on_c, 0, 76, 0
1, 529431, Note_on_c, 0, 73, 0
1, 529434, Note_on_c, 0, 78, 0
1, 529434, Note_on_c, 0, 71, 94
1, 529434, Note_on_c, 0, 76, 94
1, 529437, Note_on_c, 0, 46, 0
1, 529437, Note_on_c, 0, 80, 110
1, 529539, Note_on_c, 0, 68, 0
1, 529539, Note_on_c, 0, 47, 117
1, 529647, Note_on_c, 0, 68, 110
1, 529755, Note_on_c, 0, 66, 117
1, 529790, Control_c, 0, 64, 0
1, 529790, Control_c, 0, 64, 0
1, 529848, Note_on_c, 0, 68, 0
1, 529848, Note_on_c, 0, 76, 0
1, 529848, Note_on_c, 0, 71, 0
1, 529851, Note_on_c, 0, 80, 0
1, 529851, Note_on_c, 0, 71, 86
1, 529851, Note_on_c, 0, 75, 86
1, 529854, Note_on_c, 0, 78, 104
1, 529854, Control_c, 0, 64, 127
1, 529854, Control_c, 0, 64, 127
1, 529928, Note_on_c, 0, 66, 0
1, 529928, Note_on_c, 0, 47, 0
1, 529928, Note_on_c, 0, 47, 114
1, 530009, Note_on_c, 0, 66, 109
1, 530089, Note_on_c, 0, 47, 0
1, 530089, Note_on_c, 0, 64, 108
1, 530108, Control_c, 0, 64, 0
1, 530108, Control_c, 0, 64, 0
1, 530165, Control_c, 0, 64, 127
1, 530165, Control_c, 0, 64, 127
1, 530214, Note_on_c, 0, 71, 0
1, 530214, Note_on_c, 0, 66, 0
1, 530214, Control_c, 0, 64, 127
1, 530217, Note_on_c, 0, 78, 0
1, 530217, Note_on_c, 0, 75, 0
1, 530217, Note_on_c, 0, 68, 87
1, 530220, Note_on_c, 0, 71, 87
1, 530220, Note_on_c, 0, 76, 102
1, 530220, Control_c, 0, 64, 127
1, 530294, Note_on_c, 0, 64, 0
1, 530294, Note_on_c, 0, 52, 102
1, 530374, Note_on_c, 0, 64, 109
1, 530422, Control_c, 0, 64, 127
1, 530422, Control_c, 0, 64, 127
1, 530454, Note_on_c, 0, 52, 0
1, 530454, Note_on_c, 0, 61, 106
1, 530467, Control_c, 0, 64, 0
1, 530467, Control_c, 0, 64, 0
1, 530473, Control_c, 0, 64, 0
1, 530473, Control_c, 0, 64, 0
1, 530536, Control_c, 0, 64, 127
1, 530536, Control_c, 0, 64, 127
1, 530548, Note_on_c, 0, 68, 0
1, 530548, Note_on_c, 0, 76, 0
1, 530548, Note_on_c, 0, 71, 0
1, 530551, Note_on_c, 0, 64, 0
1, 530551, Note_on_c, 0, 64, 85
1, 530551, Note_on_c, 0, 69, 85
1, 530554, Note_on_c, 0, 73, 100
1, 530642, Note_on_c, 0, 61, 0
1, 530642, Note_on_c, 0, 45, 101
1, 530735, Note_on_c, 0, 61, 105
1, 530767, Control_c, 0, 64, 127
1, 530767, Control_c, 0, 64, 127
1, 530829, Note_on_c, 0, 45, 0
1, 530829, Note_on_c, 0, 59, 104
1, 530862, Control_c, 0, 64, 0
1, 530862, Control_c, 0, 64, 0
1, 530904, Control_c, 0, 64, 0
1, 530904, Control_c, 0, 64, 0
1, 530937, Control_c, 0, 64, 0
1, 530937, Control_c, 0, 64, 0
1, 530954, Note_on_c, 0, 64, 0
1, 530954, Note_on_c, 0, 61, 0
1, 530954, Note_on_c, 0, 69, 0
1, 530957, Note_on_c, 0, 73, 0
1, 530957, Note_on_c, 0, 64, 80
1, 530957, Note_on_c, 0, 68, 80
1, 530960, Note_on_c, 0, 71, 93
1, 531029, Control_c, 0, 64, 127
1, 531029, Control_c, 0, 64, 127
1, 531078, Note_on_c, 0, 59, 0
1, 531078, Note_on_c, 0, 40, 86
1, 531203, Note_on_c, 0, 59, 100
1, 531229, Control_c, 0, 64, 127
1, 531229, Control_c, 0, 64, 127
1, 531328, Note_on_c, 0, 40, 0
1, 531328, Note_on_c, 0, 52, 101
1, 531400, Control_c, 0, 64, 127
1, 531400, Control_c, 0, 64, 127
1, 531453, Note_on_c, 0, 64, 0
1, 531453, Note_on_c, 0, 59, 0
1, 531453, Note_on_c, 0, 68, 0
1, 531456, Note_on_c, 0, 71, 0
1, 531456, Note_on_c, 0, 64, 99
1, 531702, Note_on_c, 0, 64, 0
1, 531702, Note_on_c, 0, 52, 0
1, 531827, Note_on_c, 0, 73, 117
1, 531831, Control_c, 0, 64, 0
1, 531831, Control_c, 0, 64, 0
1, 531925, Control_c, 0, 64, 127
1, 531925, Control_c, 0, 64, 127
1, 531988, Control_c, 0, 64, 127
1, 531988, Note_on_c, 0, 76, 97
1, 531988, Note_on_c, 0, 80, 97
1, 531991, Note_on_c, 0, 85, 113
1, 531991, Control_c, 0, 64, 127
1, 532112, Note_on_c, 0, 73, 0
1, 532112, Note_on_c, 0, 49, 113
1, 532237, Note_on_c, 0, 73, 112
1, 532362, Note_on_c, 0, 49, 0
1, 532362, Note_on_c, 0, 68, 117
1, 532456, Note_on_c, 0, 76, 0
1, 532456, Note_on_c, 0, 85, 0
1, 532456, Note_on_c, 0, 80, 0
1, 532459, Note_on_c, 0, 73, 0
1, 532459, Note_on_c, 0, 73, 96
1, 532459, Note_on_c, 0, 76, 96
1, 532462, Note_on_c, 0, 80, 112
1, 532549, Note_on_c, 0, 68, 0
1, 532549, Note_on_c, 0, 49, 112
1, 532643, Note_on_c, 0, 68, 111
1, 532736, Note_on_c, 0, 49, 0
1, 532736, Note_on_c, 0, 64, 117
1, 532817, Note_on_c, 0, 73, 0
1, 532817, Note_on_c, 0, 68, 0
1, 532817, Note_on_c, 0, 76, 0
1, 532820, Note_on_c, 0, 80, 0
1, 532820, Note_on_c, 0, 68, 95
1, 532820, Note_on_c, 0, 73, 95
1, 532823, Note_on_c, 0, 76, 110
1, 532897, Note_on_c, 0, 64, 0
1, 532897, Note_on_c, 0, 49, 110
1, 532977, Note_on_c, 0, 64, 109
1, 533057, Note_on_c, 0, 49, 0
1, 533057, Note_on_c, 0, 61, 115
1, 533138, Note_on_c, 0, 68, 0
1, 533138, Note_on_c, 0, 64, 0
1, 533138, Note_on_c, 0, 73, 0
1, 533141, Note_on_c, 0, 76, 0
1, 533141, Note_on_c, 0, 64, 94
1, 533141, Note_on_c, 0, 68, 94
1, 533144, Note_on_c, 0, 73, 109
1, 533218, Note_on_c, 0, 61, 0
1, 533218, Note_on_c, 0, 49, 109
1, 533298, Note_on_c, 0, 61, 108
1, 533369, Control_c, 0, 64, 0
1, 533369, Control_c, 0, 64, 0
1, 533378, Note_on_c, 0, 49, 0
1, 533378, Note_on_c, 0, 59, 114
1, 533430, Control_c, 0, 64, 127
1, 533430, Control_c, 0, 64, 127
1, 533503, Note_on_c, 0, 64, 0
1, 533503, Note_on_c, 0, 61, 0
1, 533503, Control_c, 0, 64, 127
1, 533506, Note_on_c, 0, 73, 0
1, 533506, Note_on_c, 0, 68, 0
1, 533506, Note_on_c, 0, 61, 93
1, 533509, Note_on_c, 0, 65, 93
1, 533509, Note_on_c, 0, 71, 107
1, 533509, Control_c, 0, 64, 127
1, 533628, Note_on_c, 0, 42, 107
1, 533753, Note_on_c, 0, 59, 107
1, 533833, Note_on_c, 0, 59, 0
1, 533833, Note_on_c, 0, 57, 112
1, 533837, Control_c, 0, 64, 0
1, 533837, Control_c, 0, 64, 0
1, 533890, Control_c, 0, 64, 127
1, 533890, Control_c, 0, 64, 127
1, 533913, Note_on_c, 0, 71, 0
1, 533913, Note_on_c, 0, 61, 0
1, 533913, Note_on_c, 0, 65, 0
1, 533916, Note_on_c, 0, 59, 0
1, 533916, Note_on_c, 0, 61, 92
1, 533916, Note_on_c, 0, 66, 92
1, 533919, Note_on_c, 0, 69, 107
1, 533993, Note_on_c, 0, 42, 0
1, 533993, Note_on_c, 0, 42, 106
1, 534074, Note_on_c, 0, 57, 106
1, 534154, Note_on_c, 0, 42, 0
1, 534154, Note_on_c, 0, 57, 0
1, 534154, Note_on_c, 0, 56, 111
1, 534166, Control_c, 0, 64, 0
1, 534166, Control_c, 0, 64, 0
1, 534223, Control_c, 0, 64, 127
1, 534223, Control_c, 0, 64, 127
1, 534234, Note_on_c, 0, 66, 0
1, 534234, Note_on_c, 0, 61, 0
1, 534234, Note_on_c, 0, 57, 0
1, 534237, Note_on_c, 0, 69, 0
1, 534237, Note_on_c, 0, 60, 91
1, 534237, Note_on_c, 0, 63, 91
1, 534240, Note_on_c, 0, 68, 105
1, 534314, Note_on_c, 0, 44, 104
1, 534394, Note_on_c, 0, 56, 104
1, 534475, Note_on_c, 0, 56, 0
1, 534475, Note_on_c, 0, 54, 109
1, 534490, Control_c, 0, 64, 0
1, 534490, Control_c, 0, 64, 0
1, 534552, Control_c, 0, 64, 127
1, 534552, Control_c, 0, 64, 127
1, 534555, Note_on_c, 0, 63, 0
1, 534555, Note_on_c, 0, 60, 0
1, 534555, Note_on_c, 0, 56, 0
1, 534558, Note_on_c, 0, 68, 0
1, 534558, Note_on_c, 0, 56, 90
1, 534558, Note_on_c, 0, 60, 90
1, 534561, Note_on_c, 0, 66, 104
1, 534635, Note_on_c, 0, 44, 0
1, 534635, Note_on_c, 0, 44, 103
1, 534715, Note_on_c, 0, 54, 103
1, 534796, Note_on_c, 0, 44, 0
1, 534796, Note_on_c, 0, 54, 0
1, 534796, Note_on_c, 0, 52, 107
1, 534799, Control_c, 0, 64, 0
1, 534799, Control_c, 0, 64, 0
1, 534872, Control_c, 0, 64, 127
1, 534872, Control_c, 0, 64, 127
1, 534920, Note_on_c, 0, 56, 0
1, 534920, Note_on_c, 0, 54, 0
1, 534920, Control_c, 0, 64, 127
1, 534923, Note_on_c, 0, 60, 0
1, 534923, Note_on_c, 0, 66, 0
1, 534923, Note_on_c, 0, 56, 89
1, 534926, Note_on_c, 0, 61, 89
1, 534926, Note_on_c, 0, 64, 102
1, 534926, Control_c, 0, 64, 127
1, 535023, Note_on_c, 0, 37, 102
1, 535106, Control_c, 0, 64, 127
1, 535106, Control_c, 0, 64, 127
1, 535125, Note_on_c, 0, 52, 103
1, 535227, Note_on_c, 0, 52, 0
1, 535227, Note_on_c, 0, 56, 109
1, 535329, Note_on_c, 0, 64, 0
1, 535329, Note_on_c, 0, 56, 0
1, 535329, Note_on_c, 0, 61, 0
1, 535332, Note_on_c, 0, 61, 90
1, 535332, Note_on_c, 0, 64, 90
1, 535332, Note_on_c, 0, 68, 104
1, 535335, Note_on_c, 0, 37, 0
1, 535409, Note_on_c, 0, 40, 104
1, 535489, Note_on_c, 0, 52, 0
1, 535489, Note_on_c, 0, 56, 105
1, 535570, Note_on_c, 0, 56, 0
1, 535570, Note_on_c, 0, 54, 111
1, 535587, Control_c, 0, 64, 0
1, 535587, Control_c, 0, 64, 0
1, 535645, Control_c, 0, 64, 127
1, 535645, Control_c, 0, 64, 127
1, 535650, Note_on_c, 0, 61, 0
1, 535650, Note_on_c, 0, 64, 0
1, 535650, Note_on_c, 0, 56, 0
1, 535653, Note_on_c, 0, 68, 0
1, 535653, Note_on_c, 0, 56, 92
1, 535653, Note_on_c, 0, 60, 92
1, 535656, Note_on_c, 0, 40, 0
1, 535656, Note_on_c, 0, 66, 106
1, 535730, Note_on_c, 0, 39, 106
1, 535810, Note_on_c, 0, 54, 107
1, 535890, Note_on_c, 0, 54, 0
1, 535890, Note_on_c, 0, 56, 113
1, 535921, Control_c, 0, 64, 0
1, 535921, Control_c, 0, 64, 0
1, 535971, Note_on_c, 0, 56, 0
1, 535971, Note_on_c, 0, 60, 0
1, 535971, Note_on_c, 0, 54, 0
1, 535974, Note_on_c, 0, 66, 0
1, 535974, Note_on_c, 0, 60, 93
1, 535974, Note_on_c, 0, 63, 93
1, 535977, Note_on_c, 0, 39, 0
1, 535977, Note_on_c, 0, 68, 108
1, 535977, Control_c, 0, 64, 127
1, 535980, Control_c, 0, 64, 127
1, 536051, Note_on_c, 0, 42, 107
1, 536131, Note_on_c, 0, 56, 109
1, 536211, Note_on_c, 0, 56, 0
1, 536211, Note_on_c, 0, 56, 0
1, 536211, Note_on_c, 0, 56, 116
1, 536231, Control_c, 0, 64, 0
1, 536231, Control_c, 0, 64, 0
1, 536287, Control_c, 0, 64, 127
1, 536287, Control_c, 0, 64, 127
1, 536336, Note_on_c, 0, 63, 0
1, 536336, Note_on_c, 0, 60, 0
1, 536336, Control_c, 0, 64, 127
1, 536339, Note_on_c, 0, 68, 0
1, 536339, Note_on_c, 0, 61, 94
1, 536339, Note_on_c, 0, 64, 94
1, 536342, Note_on_c, 0, 42, 0
1, 536342, Note_on_c, 0, 68, 109
1, 536342, Control_c, 0, 64, 127
1, 536416, Note_on_c, 0, 56, 0
1, 536416, Note_on_c, 0, 40, 110
1, 536497, Note_on_c, 0, 56, 110
1, 536566, Control_c, 0, 64, 0
1, 536566, Control_c, 0, 64, 0
1, 536577, Note_on_c, 0, 40, 0
1, 536577, Note_on_c, 0, 61, 117
1, 536619, Control_c, 0, 64, 127
1, 536619, Control_c, 0, 64, 127
1, 536670, Note_on_c, 0, 64, 0
1, 536670, Note_on_c, 0, 68, 0
1, 536670, Note_on_c, 0, 61, 0
1, 536673, Note_on_c, 0, 56, 0
1, 536673, Note_on_c, 0, 64, 96
1, 536673, Note_on_c, 0, 67, 96
1, 536676, Note_on_c, 0, 73, 112
1, 536764, Note_on_c, 0, 61, 0
1, 536764, Note_on_c, 0, 45, 112
1, 536858, Note_on_c, 0, 61, 112
1, 536948, Control_c, 0, 64, 0
1, 536948, Control_c, 0, 64, 0
1, 536951, Note_on_c, 0, 45, 0
1, 536951, Note_on_c, 0, 61, 117
1, 537052, Control_c, 0, 64, 127
1, 537052, Control_c, 0, 64, 127
1, 537076, Note_on_c, 0, 64, 0
1, 537076, Note_on_c, 0, 61, 0
1, 537076, Note_on_c, 0, 67, 0
1, 537079, Note_on_c, 0, 73, 0
1, 537079, Note_on_c, 0, 64, 97
1, 537079, Note_on_c, 0, 68, 97
1, 537082, Note_on_c, 0, 73, 113
1, 537201, Note_on_c, 0, 61, 0
1, 537201, Note_on_c, 0, 44, 98
1, 537326, Note_on_c, 0, 61, 114
1, 537406, Note_on_c, 0, 44, 0
1, 537406, Note_on_c, 0, 60, 117
1, 537411, Control_c, 0, 64, 0
1, 537411, Control_c, 0, 64, 0
1, 537460, Control_c, 0, 64, 127
1, 537460, Control_c, 0, 64, 127
1, 537499, Note_on_c, 0, 64, 0
1, 537499, Note_on_c, 0, 61, 0
1, 537499, Note_on_c, 0, 68, 0
1, 537502, Note_on_c, 0, 73, 0
1, 537502, Note_on_c, 0, 63, 99
1, 537502, Note_on_c, 0, 68, 99
1, 537505, Note_on_c, 0, 72, 115
1, 537593, Note_on_c, 0, 60, 0
1, 537593, Note_on_c, 0, 44, 115
1, 537687, Note_on_c, 0, 60, 116
1, 537811, Note_on_c, 0, 44, 0
1, 537811, Note_on_c, 0, 73, 117
1, 537815, Control_c, 0, 64, 0
1, 537815, Control_c, 0, 64, 0
1, 537909, Control_c, 0, 64, 127
1, 537909, Control_c, 0, 64, 127
1, 537972, Note_on_c, 0, 63, 0
1, 537972, Note_on_c, 0, 60, 0
1, 537972, Control_c, 0, 64, 127
1, 537975, Note_on_c, 0, 72, 0
1, 537975, Note_on_c, 0, 68, 0
1, 537975, Note_on_c, 0, 76, 97
1, 537978, Note_on_c, 0, 80, 97
1, 537978, Note_on_c, 0, 85, 113
1, 537978, Control_c, 0, 64, 127
1, 538097, Note_on_c, 0, 73, 0
1, 538097, Note_on_c, 0, 49, 113
1, 538222, Note_on_c, 0, 73, 112
1, 538346, Note_on_c, 0, 49, 0
1, 538346, Note_on_c, 0, 68, 117
1, 538440, Note_on_c, 0, 76, 0
1, 538440, Note_on_c, 0, 85, 0
1, 538440, Note_on_c, 0, 80, 0
1, 538443, Note_on_c, 0, 73, 0
1, 538443, Note_on_c, 0, 73, 96
1, 538443, Note_on_c, 0, 76, 96
1, 538446, Note_on_c, 0, 80, 112
1, 538534, Note_on_c, 0, 68, 0
1, 538534, Note_on_c, 0, 49, 112
1, 538627, Note_on_c, 0, 68, 111
1, 538721, Note_on_c, 0, 49, 0
1, 538721, Note_on_c, 0, 64, 117
1, 538801, Note_on_c, 0, 73, 0
1, 538801, Note_on_c, 0, 68, 0
1, 538801, Note_on_c, 0, 76, 0
1, 538804, Note_on_c, 0, 80, 0
1, 538804, Note_on_c, 0, 68, 95
1, 538804, Note_on_c, 0, 73, 95
1, 538807, Note_on_c, 0, 76, 110
1, 538881, Note_on_c, 0, 64, 0
1, 538881, Note_on_c, 0, 49, 110
1, 538961, Note_on_c, 0, 64, 109
1, 539042, Note_on_c, 0, 49, 0
1, 539042, Note_on_c, 0, 61, 115
1, 539122, Note_on_c, 0, 68, 0
1, 539122, Note_on_c, 0, 64, 0
1, 539122, Note_on_c, 0, 73, 0
1, 539125, Note_on_c, 0, 76, 0
1, 539125, Note_on_c, 0, 64, 94
1, 539125, Note_on_c, 0, 68, 94
1, 539128, Note_on_c, 0, 73, 109
1, 539202, Note_on_c, 0, 61, 0
1, 539202, Note_on_c, 0, 49, 109
1, 539282, Note_on_c, 0, 61, 108
1, 539354, Control_c, 0, 64, 0
1, 539354, Control_c, 0, 64, 0
1, 539363, Note_on_c, 0, 49, 0
1, 539363, Note_on_c, 0, 60, 114
1, 539414, Control_c, 0, 64, 127
1, 539414, Control_c, 0, 64, 127
1, 539487, Note_on_c, 0, 64, 0
1, 539487, Note_on_c, 0, 61, 0
1, 539487, Control_c, 0, 64, 127
1, 539490, Note_on_c, 0, 73, 0
1, 539490, Note_on_c, 0, 68, 0
1, 539490, Note_on_c, 0, 64, 93
1, 539493, Note_on_c, 0, 67, 93
1, 539493, Note_on_c, 0, 72, 107
1, 539493, Control_c, 0, 64, 127
1, 539612, Note_on_c, 0, 60, 0
1, 539612, Note_on_c, 0, 45, 113
1, 539737, Note_on_c, 0, 60, 108
1, 539817, Note_on_c, 0, 61, 112
1, 539822, Control_c, 0, 64, 0
1, 539822, Control_c, 0, 64, 0
1, 539874, Control_c, 0, 64, 127
1, 539874, Control_c, 0, 64, 127
1, 539897, Note_on_c, 0, 64, 0
1, 539897, Note_on_c, 0, 72, 0
1, 539897, Note_on_c, 0, 67, 0
1, 539900, Note_on_c, 0, 60, 0
1, 539900, Note_on_c, 0, 64, 94
1, 539900, Note_on_c, 0, 67, 94
1, 539903, Note_on_c, 0, 73, 109
1, 539978, Note_on_c, 0, 61, 0
1, 539978, Note_on_c, 0, 45, 0
1, 539978, Note_on_c, 0, 33, 112
1, 540058, Note_on_c, 0, 61, 109
1, 540138, Note_on_c, 0, 62, 111
1, 540151, Control_c, 0, 64, 0
1, 540151, Control_c, 0, 64, 0
1, 540208, Control_c, 0, 64, 127
1, 540208, Control_c, 0, 64, 127
1, 540218, Note_on_c, 0, 61, 0
1, 540218, Note_on_c, 0, 67, 0
1, 540218, Note_on_c, 0, 64, 0
1, 540221, Note_on_c, 0, 73, 0
1, 540221, Note_on_c, 0, 66, 94
1, 540221, Note_on_c, 0, 69, 94
1, 540224, Note_on_c, 0, 33, 0
1, 540224, Note_on_c, 0, 74, 109
1, 540299, Note_on_c, 0, 62, 0
1, 540299, Note_on_c, 0, 50, 110
1, 540379, Note_on_c, 0, 62, 109
1, 540459, Note_on_c, 0, 63, 110
1, 540474, Control_c, 0, 64, 0
1, 540474, Control_c, 0, 64, 0
1, 540537, Note_on_c, 0, 62, 0
1, 540537, Note_on_c, 0, 50, 0
1, 540537, Note_on_c, 0, 69, 0
1, 540537, Note_on_c, 0, 74, 0
1, 540537, Note_on_c, 0, 66, 0
1, 540537, Control_c, 0, 64, 127
1, 540537, Note_on_c, 0, 66, 95
1, 540537, Note_on_c, 0, 69, 95
1, 540537, Note_on_c, 0, 75, 110
1, 540537, Control_c, 0, 64, 127
1, 540619, Note_on_c, 0, 63, 0
1, 540619, Note_on_c, 0, 48, 110
1, 540700, Note_on_c, 0, 63, 110
1, 540780, Control_c, 0, 64, 0
1, 540780, Note_on_c, 0, 64, 109
1, 540780, Control_c, 0, 64, 0
1, 540829, Control_c, 0, 64, 127
1, 540829, Control_c, 0, 64, 127
1, 540860, Note_on_c, 0, 63, 0
1, 540860, Note_on_c, 0, 66, 0
1, 540860, Control_c, 0, 64, 127
1, 540863, Note_on_c, 0, 75, 0
1, 540863, Note_on_c, 0, 69, 0
1, 540863, Note_on_c, 0, 68, 95
1, 540866, Note_on_c, 0, 73, 95
1, 540866, Note_on_c, 0, 76, 109
1, 540866, Control_c, 0, 64, 127
1, 540869, Note_on_c, 0, 48, 0
1, 540940, Note_on_c, 0, 64, 0
1, 540940, Note_on_c, 0, 49, 111
1, 541006, Control_c, 0, 64, 127
1, 541006, Control_c, 0, 64, 127
1, 541021, Note_on_c, 0, 64, 111
1, 541101, Note_on_c, 0, 66, 113
1, 541107, Control_c, 0, 64, 0
1, 541107, Control_c, 0, 64, 0
1, 541154, Control_c, 0, 64, 127
1, 541154, Control_c, 0, 64, 127
1, 541181, Note_on_c, 0, 73, 0
1, 541181, Note_on_c, 0, 76, 0
1, 541181, Note_on_c, 0, 68, 0
1, 541184, Note_on_c, 0, 64, 0
1, 541184, Note_on_c, 0, 73, 87
1, 541184, Note_on_c, 0, 76, 87
1, 541187, Note_on_c, 0, 66, 0
1, 541187, Note_on_c, 0, 78, 103
1, 541187, Note_on_c, 0, 66, 103
1, 541261, Note_on_c, 0, 66, 0
1, 541261, Note_on_c, 0, 49, 0
1, 541261, Note_on_c, 0, 46, 114
1, 541342, Note_on_c, 0, 66, 114
1, 541422, Note_on_c, 0, 68, 116
1, 541449, Control_c, 0, 64, 0
1, 541449, Control_c, 0, 64, 0
1, 541539, Control_c, 0, 64, 127
1, 541539, Control_c, 0, 64, 127
1, 541547, Note_on_c, 0, 66, 0
1, 541547, Note_on_c, 0, 76, 0
1, 541547, Note_on_c, 0, 73, 0
1, 541550, Note_on_c, 0, 78, 0
1, 541550, Note_on_c, 0, 71, 94
1, 541550, Note_on_c, 0, 76, 94
1, 541553, Note_on_c, 0, 46, 0
1, 541553, Note_on_c, 0, 80, 110
1, 541655, Note_on_c, 0, 68, 0
1, 541655, Note_on_c, 0, 47, 117
1, 541763, Note_on_c, 0, 68, 110
1, 541871, Note_on_c, 0, 66, 117
1, 541906, Control_c, 0, 64, 0
1, 541906, Control_c, 0, 64, 0
1, 541964, Note_on_c, 0, 68, 0
1, 541964, Note_on_c, 0, 76, 0
1, 541964, Note_on_c, 0, 71, 0
1, 541967, Note_on_c, 0, 80, 0
1, 541967, Note_on_c, 0, 71, 86
1, 541967, Note_on_c, 0, 75, 86
1, 541970, Note_on_c, 0, 78, 104
1, 541970, Control_c, 0, 64, 127
1, 541970, Control_c, 0, 64, 127
1, 542044, Note_on_c, 0, 66, 0
1, 542044, Note_on_c, 0, 47, 0
1, 542044, Note_on_c, 0, 47, 114
1, 542125, Note_on_c, 0, 66, 109
1, 542205, Note_on_c, 0, 47, 0
1, 542205, Note_on_c, 0, 64, 108
1, 542224, Control_c, 0, 64, 0
1, 542224, Control_c, 0, 64, 0
1, 542281, Control_c, 0, 64, 127
1, 542281, Control_c, 0, 64, 127
1, 542330, Note_on_c, 0, 71, 0
1, 542330, Note_on_c, 0, 66, 0
1, 542330, Control_c, 0, 64, 127
1, 542333, Note_on_c, 0, 78, 0
1, 542333, Note_on_c, 0, 75, 0
1, 542333, Note_on_c, 0, 68, 87
1, 542336, Note_on_c, 0, 71, 87
1, 542336, Note_on_c, 0, 76, 102
1, 542336, Control_c, 0, 64, 127
1, 542339, Note_on_c, 0, 64, 0
1, 542339, Note_on_c, 0, 64, 88
1, 542410, Note_on_c, 0, 64, 0
1, 542410, Note_on_c, 0, 52, 102
1, 542490, Note_on_c, 0, 64, 109
1, 542538, Control_c, 0, 64, 127
1, 542538, Control_c, 0, 64, 127
1, 542570, Note_on_c, 0, 52, 0
1, 542570, Note_on_c, 0, 61, 106
1, 542583, Control_c, 0, 64, 0
1, 542583, Control_c, 0, 64, 0
1, 542589, Control_c, 0, 64, 0
1, 542589, Control_c, 0, 64, 0
1, 542652, Control_c, 0, 64, 127
1, 542652, Control_c, 0, 64, 127
1, 542664, Note_on_c, 0, 76, 0
1, 542664, Note_on_c, 0, 68, 0
1, 542664, Note_on_c, 0, 71, 0
1, 542667, Note_on_c, 0, 64, 0
1, 542667, Note_on_c, 0, 64, 85
1, 542667, Note_on_c, 0, 69, 85
1, 542670, Note_on_c, 0, 73, 100
1, 542758, Note_on_c, 0, 61, 0
1, 542758, Note_on_c, 0, 45, 101
1, 542851, Note_on_c, 0, 61, 105
1, 542883, Control_c, 0, 64, 127
1, 542883, Control_c, 0, 64, 127
1, 542945, Note_on_c, 0, 45, 0
1, 542945, Note_on_c, 0, 59, 104
1, 542978, Control_c, 0, 64, 0
1, 542978, Control_c, 0, 64, 0
1, 543020, Control_c, 0, 64, 0
1, 543020, Control_c, 0, 64, 0
1, 543053, Control_c, 0, 64, 0
1, 543053, Control_c, 0, 64, 0
1, 543070, Note_on_c, 0, 64, 0
1, 543070, Note_on_c, 0, 73, 0
1, 543070, Note_on_c, 0, 69, 0
1, 543073, Note_on_c, 0, 61, 0
1, 543073, Note_on_c, 0, 64, 80
1, 543073, Note_on_c, 0, 68, 80
1, 543076, Note_on_c, 0, 71, 93
1, 543145, Control_c, 0, 64, 127
1, 543145, Control_c, 0, 64, 127
1, 543194, Note_on_c, 0, 59, 0
1, 543194, Note_on_c, 0, 40, 86
1, 543319, Note_on_c, 0, 59, 100
1, 543345, Control_c, 0, 64, 127
1, 543345, Control_c, 0, 64, 127
1, 543444, Note_on_c, 0, 40, 0
1, 543444, Note_on_c, 0, 52, 101
1, 543516, Control_c, 0, 64, 127
1, 543516, Control_c, 0, 64, 127
1, 543569, Note_on_c, 0, 64, 0
1, 543569, Note_on_c, 0, 71, 0
1, 543569, Note_on_c, 0, 68, 0
1, 543572, Note_on_c, 0, 59, 0
1, 543572, Note_on_c, 0, 64, 99
1, 543818, Note_on_c, 0, 64, 0
1, 543818, Note_on_c, 0, 52, 0
1, 543943, Note_on_c, 0, 56, 104
1, 543947, Control_c, 0, 64, 0
1, 543947, Control_c, 0, 64, 0
1, 544041, Control_c, 0, 64, 127
1, 544041, Control_c, 0, 64, 127
1, 544104, Control_c, 0, 64, 127
1, 544104, Control_c, 0, 64, 0
1, 544104, Note_on_c, 0, 60, 78
1, 544107, Note_on_c, 0, 63, 78
1, 544107, Note_on_c, 0, 68, 88
1, 544107, Control_c, 0, 64, 127
1, 544110, Control_c, 0, 64, 0
1, 544197, Note_on_c, 0, 44, 89
1, 544291, Note_on_c, 0, 56, 90
1, 544341, Control_c, 0, 64, 127
1, 544341, Control_c, 0, 64, 127
1, 544384, Note_on_c, 0, 56, 0
1, 544384, Note_on_c, 0, 57, 96
1, 544406, Control_c, 0, 64, 0
1, 544406, Control_c, 0, 64, 0
1, 544433, Control_c, 0, 64, 0
1, 544433, Control_c, 0, 64, 0
1, 544465, Note_on_c, 0, 68, 0
1, 544465, Note_on_c, 0, 60, 0
1, 544465, Note_on_c, 0, 63, 0
1, 544468, Note_on_c, 0, 56, 0
1, 544468, Note_on_c, 0, 60, 81
1, 544468, Note_on_c, 0, 63, 81
1, 544471, Note_on_c, 0, 69, 93
1, 544471, Control_c, 0, 64, 127
1, 544471, Control_c, 0, 64, 127
1, 544545, Note_on_c, 0, 44, 0
1, 544545, Note_on_c, 0, 42, 93
1, 544625, Note_on_c, 0, 57, 95
1, 544695, Control_c, 0, 64, 127
1, 544695, Control_c, 0, 64, 127
1, 544705, Note_on_c, 0, 57, 0
1, 544705, Note_on_c, 0, 56, 101
1, 544732, Control_c, 0, 64, 0
1, 544732, Control_c, 0, 64, 0
1, 544759, Control_c, 0, 64, 0
1, 544759, Control_c, 0, 64, 0
1, 544786, Note_on_c, 0, 60, 0
1, 544786, Note_on_c, 0, 63, 0
1, 544786, Note_on_c, 0, 57, 0
1, 544789, Note_on_c, 0, 69, 0
1, 544789, Note_on_c, 0, 61, 85
1, 544789, Note_on_c, 0, 64, 85
1, 544792, Note_on_c, 0, 42, 0
1, 544792, Note_on_c, 0, 68, 97
1, 544792, Control_c, 0, 64, 127
1, 544795, Control_c, 0, 64, 127
1, 544866, Note_on_c, 0, 40, 97
1, 544946, Note_on_c, 0, 56, 99
1, 545026, Note_on_c, 0, 56, 0
1, 545026, Control_c, 0, 64, 127
1, 545026, Control_c, 0, 64, 127
1, 545029, Note_on_c, 0, 60, 105
1, 545053, Control_c, 0, 64, 0
1, 545053, Control_c, 0, 64, 0
1, 545085, Control_c, 0, 64, 0
1, 545085, Control_c, 0, 64, 0
1, 545106, Note_on_c, 0, 61, 0
1, 545106, Note_on_c, 0, 64, 0
1, 545106, Note_on_c, 0, 56, 0
1, 545109, Note_on_c, 0, 68, 0
1, 545109, Note_on_c, 0, 63, 88
1, 545109, Note_on_c, 0, 66, 88
1, 545112, Note_on_c, 0, 40, 0
1, 545112, Note_on_c, 0, 68, 101
1, 545112, Note_on_c, 0, 72, 88
1, 545115, Control_c, 0, 64, 127
1, 545115, Control_c, 0, 64, 127
1, 545187, Note_on_c, 0, 39, 101
1, 545267, Note_on_c, 0, 60, 104
1, 545315, Control_c, 0, 64, 127
1, 545315, Control_c, 0, 64, 127
1, 545347, Note_on_c, 0, 60, 0
1, 545347, Note_on_c, 0, 61, 111
1, 545422, Control_c, 0, 64, 0
1, 545422, Control_c, 0, 64, 0
1, 545472, Control_c, 0, 64, 127
1, 545472, Control_c, 0, 64, 0
1, 545472, Control_c, 0, 64, 0
1, 545475, Note_on_c, 0, 63, 0
1, 545475, Note_on_c, 0, 66, 0
1, 545475, Note_on_c, 0, 60, 0
1, 545478, Note_on_c, 0, 72, 0
1, 545478, Note_on_c, 0, 68, 0
1, 545478, Note_on_c, 0, 64, 86
1, 545481, Note_on_c, 0, 68, 86
1, 545481, Note_on_c, 0, 73, 99
1, 545481, Control_c, 0, 64, 127
1, 545484, Note_on_c, 0, 39, 0
1, 545484, Control_c, 0, 64, 0
1, 545484, Control_c, 0, 64, 0
1, 545597, Note_on_c, 0, 37, 99
1, 545722, Note_on_c, 0, 61, 101
1, 545771, Control_c, 0, 64, 127
1, 545771, Control_c, 0, 64, 127
1, 545815, Note_on_c, 0, 61, 0
1, 545815, Note_on_c, 0, 62, 107
1, 545840, Control_c, 0, 64, 0
1, 545840, Control_c, 0, 64, 0
1, 545871, Control_c, 0, 64, 0
1, 545871, Control_c, 0, 64, 0
1, 545909, Note_on_c, 0, 73, 0
1, 545909, Note_on_c, 0, 68, 0
1, 545909, Note_on_c, 0, 64, 0
1, 545912, Note_on_c, 0, 61, 0
1, 545912, Note_on_c, 0, 65, 89
1, 545912, Note_on_c, 0, 68, 89
1, 545915, Note_on_c, 0, 37, 0
1, 545915, Note_on_c, 0, 74, 103
1, 545915, Control_c, 0, 64, 127
1, 545918, Control_c, 0, 64, 127
1, 545989, Note_on_c, 0, 47, 104
1, 546069, Note_on_c, 0, 62, 106
1, 546139, Control_c, 0, 64, 127
1, 546139, Control_c, 0, 64, 127
1, 546149, Note_on_c, 0, 62, 0
1, 546149, Note_on_c, 0, 61, 113
1, 546176, Control_c, 0, 64, 0
1, 546176, Control_c, 0, 64, 0
1, 546203, Control_c, 0, 64, 0
1, 546203, Control_c, 0, 64, 0
1, 546230, Note_on_c, 0, 65, 0
1, 546230, Note_on_c, 0, 68, 0
1, 546230, Note_on_c, 0, 62, 0
1, 546233, Note_on_c, 0, 74, 0
1, 546233, Note_on_c, 0, 66, 94
1, 546233, Note_on_c, 0, 69, 94
1, 546236, Note_on_c, 0, 47, 0
1, 546236, Note_on_c, 0, 73, 108
1, 546236, Control_c, 0, 64, 127
1, 546239, Control_c, 0, 64, 127
1, 546310, Note_on_c, 0, 45, 108
1, 546390, Note_on_c, 0, 61, 110
1, 546470, Note_on_c, 0, 61, 0
1, 546470, Control_c, 0, 64, 127
1, 546470, Control_c, 0, 64, 127
1, 546473, Note_on_c, 0, 65, 117
1, 546497, Control_c, 0, 64, 0
1, 546497, Control_c, 0, 64, 0
1, 546529, Control_c, 0, 64, 0
1, 546529, Control_c, 0, 64, 0
1, 546551, Note_on_c, 0, 66, 0
1, 546551, Note_on_c, 0, 69, 0
1, 546551, Note_on_c, 0, 61, 0
1, 546554, Note_on_c, 0, 73, 0
1, 546554, Note_on_c, 0, 68, 97
1, 546554, Note_on_c, 0, 71, 97
1, 546557, Note_on_c, 0, 45, 0
1, 546557, Note_on_c, 0, 73, 113
1, 546557, Note_on_c, 0, 77, 97
1, 546560, Control_c, 0, 64, 127
1, 546560, Control_c, 0, 64, 127
1, 546631, Note_on_c, 0, 44, 112
1, 546711, Note_on_c, 0, 65, 115
1, 546759, Control_c, 0, 64, 127
1, 546759, Control_c, 0, 64, 127
1, 546791, Note_on_c, 0, 65, 0
1, 546791, Note_on_c, 0, 66, 117
1, 546866, Control_c, 0, 64, 0
1, 546866, Control_c, 0, 64, 0
1, 546916, Control_c, 0, 64, 127
1, 546916, Control_c, 0, 64, 0
1, 546916, Control_c, 0, 64, 0
1, 546919, Note_on_c, 0, 68, 0
1, 546919, Note_on_c, 0, 71, 0
1, 546919, Note_on_c, 0, 65, 0
1, 546922, Note_on_c, 0, 77, 0
1, 546922, Note_on_c, 0, 73, 0
1, 546922, Note_on_c, 0, 69, 97
1, 546925, Note_on_c, 0, 73, 97
1, 546925, Note_on_c, 0, 78, 112
1, 546925, Control_c, 0, 64, 127
1, 546928, Note_on_c, 0, 44, 0
1, 546928, Control_c, 0, 64, 0
1, 546928, Control_c, 0, 64, 0
1, 547041, Note_on_c, 0, 42, 111
1, 547166, Note_on_c, 0, 66, 111
1, 547232, Control_c, 0, 64, 127
1, 547232, Control_c, 0, 64, 127
1, 547290, Note_on_c, 0, 66, 0
1, 547290, Note_on_c, 0, 62, 117
1, 547312, Control_c, 0, 64, 0
1, 547312, Control_c, 0, 64, 0
1, 547339, Control_c, 0, 64, 0
1, 547339, Control_c, 0, 64, 0
1, 547371, Note_on_c, 0, 78, 0
1, 547371, Note_on_c, 0, 73, 0
1, 547371, Note_on_c, 0, 69, 0
1, 547374, Note_on_c, 0, 66, 0
1, 547374, Note_on_c, 0, 66, 95
1, 547374, Note_on_c, 0, 71, 95
1, 547377, Note_on_c, 0, 42, 0
1, 547377, Note_on_c, 0, 74, 110
1, 547377, Control_c, 0, 64, 127
1, 547380, Control_c, 0, 64, 127
1, 547451, Note_on_c, 0, 47, 109
1, 547531, Note_on_c, 0, 62, 109
1, 547601, Control_c, 0, 64, 127
1, 547601, Control_c, 0, 64, 127
1, 547611, Note_on_c, 0, 62, 0
1, 547611, Note_on_c, 0, 61, 114
1, 547638, Control_c, 0, 64, 0
1, 547638, Control_c, 0, 64, 0
1, 547665, Control_c, 0, 64, 0
1, 547665, Control_c, 0, 64, 0
1, 547692, Note_on_c, 0, 66, 0
1, 547692, Note_on_c, 0, 71, 0
1, 547692, Note_on_c, 0, 62, 0
1, 547695, Note_on_c, 0, 74, 0
1, 547695, Note_on_c, 0, 66, 93
1, 547695, Note_on_c, 0, 69, 93
1, 547698, Note_on_c, 0, 47, 0
1, 547698, Note_on_c, 0, 73, 107
1, 547698, Control_c, 0, 64, 127
1, 547701, Control_c, 0, 64, 127
1, 547772, Note_on_c, 0, 49, 107
1, 547852, Note_on_c, 0, 61, 106
1, 547932, Note_on_c, 0, 61, 0
1, 547932, Control_c, 0, 64, 127
1, 547932, Control_c, 0, 64, 127
1, 547935, Note_on_c, 0, 59, 111
1, 547959, Control_c, 0, 64, 0
1, 547959, Control_c, 0, 64, 0
1, 547991, Control_c, 0, 64, 0
1, 547991, Control_c, 0, 64, 0
1, 548013, Note_on_c, 0, 66, 0
1, 548013, Note_on_c, 0, 69, 0
1, 548013, Note_on_c, 0, 61, 0
1, 548016, Note_on_c, 0, 73, 0
1, 548016, Note_on_c, 0, 65, 91
1, 548016, Note_on_c, 0, 68, 91
1, 548019, Note_on_c, 0, 49, 0
1, 548019, Note_on_c, 0, 71, 105
1, 548019, Control_c, 0, 64, 127
1, 548022, Control_c, 0, 64, 127
1, 548093, Note_on_c, 0, 37, 103
1, 548173, Note_on_c, 0, 59, 104
1, 548221, Control_c, 0, 64, 127
1, 548221, Control_c, 0, 64, 127
1, 548253, Note_on_c, 0, 59, 0
1, 548253, Note_on_c, 0, 57, 109
1, 548301, Control_c, 0, 64, 0
1, 548301, Control_c, 0, 64, 0
1, 548333, Control_c, 0, 64, 127
1, 548333, Control_c, 0, 64, 0
1, 548333, Control_c, 0, 64, 0
1, 548336, Note_on_c, 0, 65, 0
1, 548336, Note_on_c, 0, 68, 0
1, 548336, Note_on_c, 0, 59, 0
1, 548339, Note_on_c, 0, 71, 0
1, 548339, Note_on_c, 0, 61, 83
1, 548339, Note_on_c, 0, 66, 83
1, 548342, Note_on_c, 0, 69, 95
1, 548342, Control_c, 0, 64, 127
1, 548342, Control_c, 0, 64, 0
1, 548345, Note_on_c, 0, 37, 0
1, 548345, Control_c, 0, 64, 0
1, 548414, Note_on_c, 0, 42, 96
1, 548494, Note_on_c, 0, 57, 98
1, 548537, Control_c, 0, 64, 127
1, 548537, Control_c, 0, 64, 127
1, 548574, Note_on_c, 0, 57, 0
1, 548574, Note_on_c, 0, 54, 104
1, 548595, Control_c, 0, 64, 0
1, 548595, Control_c, 0, 64, 0
1, 548622, Control_c, 0, 64, 0
1, 548622, Control_c, 0, 64, 0
1, 548654, Note_on_c, 0, 69, 0
1, 548654, Note_on_c, 0, 66, 0
1, 548654, Note_on_c, 0, 61, 0
1, 548657, Note_on_c, 0, 57, 0
1, 548657, Note_on_c, 0, 57, 87
1, 548657, Note_on_c, 0, 61, 87
1, 548660, Note_on_c, 0, 42, 0
1, 548660, Note_on_c, 0, 66, 100
1, 548660, Control_c, 0, 64, 127
1, 548663, Control_c, 0, 64, 127
1, 548735, Note_on_c, 0, 45, 101
1, 548815, Note_on_c, 0, 54, 104
1, 548884, Control_c, 0, 64, 127
1, 548884, Control_c, 0, 64, 127
1, 548895, Note_on_c, 0, 54, 0
1, 548895, Note_on_c, 0, 52, 110
1, 548926, Control_c, 0, 64, 0
1, 548926, Control_c, 0, 64, 0
1, 548957, Control_c, 0, 64, 0
1, 548957, Control_c, 0, 64, 0
1, 548989, Note_on_c, 0, 57, 0
1, 548989, Note_on_c, 0, 61, 0
1, 548989, Note_on_c, 0, 54, 0
1, 548992, Note_on_c, 0, 66, 0
1, 548992, Note_on_c, 0, 56, 92
1, 548992, Note_on_c, 0, 61, 92
1, 548995, Note_on_c, 0, 45, 0
1, 548995, Note_on_c, 0, 64, 106
1, 548995, Control_c, 0, 64, 127
1, 548998, Control_c, 0, 64, 127
1, 549082, Note_on_c, 0, 44, 107
1, 549176, Note_on_c, 0, 52, 109
1, 549269, Note_on_c, 0, 52, 0
1, 549269, Control_c, 0, 64, 127
1, 549269, Control_c, 0, 64, 127
1, 549272, Note_on_c, 0, 51, 116
1, 549311, Control_c, 0, 64, 0
1, 549311, Control_c, 0, 64, 0
1, 549361, Control_c, 0, 64, 0
1, 549361, Control_c, 0, 64, 0
1, 549394, Note_on_c, 0, 56, 0
1, 549394, Note_on_c, 0, 61, 0
1, 549394, Note_on_c, 0, 52, 0
1, 549397, Note_on_c, 0, 64, 0
1, 549397, Note_on_c, 0, 56, 96
1, 549397, Note_on_c, 0, 60, 96
1, 549400, Note_on_c, 0, 63, 112
1, 549403, Control_c, 0, 64, 127
1, 549403, Control_c, 0, 64, 127
1, 549519, Note_on_c, 0, 44, 0
1, 549519, Note_on_c, 0, 51, 0
1, 549519, Note_on_c, 0, 32, 111
1, 549644, Note_on_c, 0, 60, 0
1, 549644, Note_on_c, 0, 56, 0
1, 549644, Note_on_c, 0, 51, 115
1, 549647, Note_on_c, 0, 63, 0
1, 549647, Note_on_c, 0, 32, 0
1, 549698, Control_c, 0, 64, 0
1, 549698, Control_c, 0, 64, 0
1, 549804, Note_on_c, 0, 51, 0
1, 549804, Note_on_c, 0, 73, 117
1, 549816, Control_c, 0, 64, 0
1, 549816, Control_c, 0, 64, 0
1, 549965, Control_c, 0, 64, 127
1, 549965, Note_on_c, 0, 76, 97
1, 549965, Note_on_c, 0, 80, 97
1, 549968, Note_on_c, 0, 85, 113
1, 549968, Control_c, 0, 64, 127
1, 550090, Note_on_c, 0, 73, 0
1, 550090, Note_on_c, 0, 49, 113
1, 550214, Note_on_c, 0, 73, 112
1, 550339, Note_on_c, 0, 49, 0
1, 550339, Note_on_c, 0, 68, 117
1, 550433, Note_on_c, 0, 76, 0
1, 550433, Note_on_c, 0, 85, 0
1, 550433, Note_on_c, 0, 80, 0
1, 550436, Note_on_c, 0, 73, 0
1, 550436, Note_on_c, 0, 73, 96
1, 550436, Note_on_c, 0, 76, 96
1, 550439, Note_on_c, 0, 80, 112
1, 550526, Note_on_c, 0, 68, 0
1, 550526, Note_on_c, 0, 49, 112
1, 550620, Note_on_c, 0, 68, 111
1, 550714, Note_on_c, 0, 49, 0
1, 550714, Note_on_c, 0, 64, 117
1, 550794, Note_on_c, 0, 73, 0
1, 550794, Note_on_c, 0, 68, 0
1, 550794, Note_on_c, 0, 76, 0
1, 550797, Note_on_c, 0, 80, 0
1, 550797, Note_on_c, 0, 68, 95
1, 550797, Note_on_c, 0, 73, 95
1, 550800, Note_on_c, 0, 76, 110
1, 550874, Note_on_c, 0, 64, 0
1, 550874, Note_on_c, 0, 49, 110
1, 550954, Note_on_c, 0, 64, 109
1, 551034, Note_on_c, 0, 49, 0
1, 551034, Note_on_c, 0, 61, 115
1, 551115, Note_on_c, 0, 68, 0
1, 551115, Note_on_c, 0, 64, 0
1, 551115, Note_on_c, 0, 73, 0
1, 551118, Note_on_c, 0, 76, 0
1, 551118, Note_on_c, 0, 64, 94
1, 551118, Note_on_c, 0, 68, 94
1, 551121, Note_on_c, 0, 73, 109
1, 551195, Note_on_c, 0, 61, 0
1, 551195, Note_on_c, 0, 49, 109
1, 551275, Note_on_c, 0, 61, 108
1, 551347, Control_c, 0, 64, 0
1, 551347, Control_c, 0, 64, 0
1, 551355, Note_on_c, 0, 60, 114
1, 551407, Control_c, 0, 64, 127
1, 551407, Control_c, 0, 64, 127
1, 551480, Note_on_c, 0, 61, 0
1, 551480, Note_on_c, 0, 64, 0
1, 551480, Control_c, 0, 64, 127
1, 551483, Note_on_c, 0, 73, 0
1, 551483, Note_on_c, 0, 68, 0
1, 551483, Note_on_c, 0, 64, 93
1, 551486, Note_on_c, 0, 67, 93
1, 551486, Note_on_c, 0, 72, 107
1, 551486, Control_c, 0, 64, 127
1, 551489, Note_on_c, 0, 49, 0
1, 551588, Note_on_c, 0, 45, 107
1, 551696, Note_on_c, 0, 60, 108
1, 551776, Note_on_c, 0, 60, 0
1, 551776, Note_on_c, 0, 61, 112
1, 551781, Control_c, 0, 64, 0
1, 551781, Control_c, 0, 64, 0
1, 551833, Control_c, 0, 64, 127
1, 551833, Control_c, 0, 64, 127
1, 551857, Note_on_c, 0, 72, 0
1, 551857, Note_on_c, 0, 67, 0
1, 551857, Note_on_c, 0, 64, 0
1, 551860, Note_on_c, 0, 60, 0
1, 551860, Note_on_c, 0, 64, 94
1, 551860, Note_on_c, 0, 67, 94
1, 551863, Note_on_c, 0, 45, 0
1, 551863, Note_on_c, 0, 73, 109
1, 551937, Note_on_c, 0, 45, 106
1, 552017, Note_on_c, 0, 64, 0
1, 552017, Note_on_c, 0, 61, 109
1, 552097, Note_on_c, 0, 61, 0
1, 552097, Note_on_c, 0, 64, 117
1, 552114, Control_c, 0, 64, 0
1, 552114, Control_c, 0, 64, 0
1, 552191, Control_c, 0, 64, 127
1, 552191, Control_c, 0, 64, 127
1, 552205, Note_on_c, 0, 73, 0
1, 552205, Note_on_c, 0, 61, 0
1, 552205, Note_on_c, 0, 67, 0
1, 552208, Note_on_c, 0, 66, 94
1, 552208, Note_on_c, 0, 69, 94
1, 552208, Note_on_c, 0, 76, 109
1, 552211, Note_on_c, 0, 45, 0
1, 552299, Note_on_c, 0, 50, 104
1, 552393, Note_on_c, 0, 64, 109
1, 552486, Note_on_c, 0, 64, 0
1, 552486, Note_on_c, 0, 62, 117
1, 552501, Control_c, 0, 64, 0
1, 552501, Control_c, 0, 64, 0
1, 552564, Note_on_c, 0, 66, 0
1, 552564, Note_on_c, 0, 50, 0
1, 552564, Note_on_c, 0, 76, 0
1, 552564, Note_on_c, 0, 69, 0
1, 552564, Note_on_c, 0, 64, 0
1, 552564, Control_c, 0, 64, 127
1, 552564, Note_on_c, 0, 62, 90
1, 552564, Note_on_c, 0, 66, 90
1, 552564, Note_on_c, 0, 69, 90
1, 552564, Note_on_c, 0, 74, 106
1, 552564, Control_c, 0, 64, 127
1, 552647, Note_on_c, 0, 62, 0
1, 552647, Note_on_c, 0, 61, 117
1, 552652, Control_c, 0, 64, 0
1, 552652, Control_c, 0, 64, 0
1, 552716, Control_c, 0, 64, 127
1, 552716, Control_c, 0, 64, 127
1, 552727, Note_on_c, 0, 69, 0
1, 552727, Note_on_c, 0, 62, 0
1, 552727, Note_on_c, 0, 66, 0
1, 552730, Note_on_c, 0, 74, 0
1, 552730, Note_on_c, 0, 61, 90
1, 552730, Note_on_c, 0, 66, 90
1, 552733, Note_on_c, 0, 69, 90
1, 552733, Note_on_c, 0, 73, 106
1, 552829, Note_on_c, 0, 61, 0
1, 552829, Note_on_c, 0, 59, 117
1, 552832, Control_c, 0, 64, 0
1, 552832, Control_c, 0, 64, 0
1, 552905, Control_c, 0, 64, 127
1, 552905, Control_c, 0, 64, 127
1, 552954, Note_on_c, 0, 61, 0
1, 552954, Note_on_c, 0, 66, 0
1, 552954, Control_c, 0, 64, 127
1, 552957, Note_on_c, 0, 69, 0
1, 552957, Note_on_c, 0, 73, 0
1, 552957, Note_on_c, 0, 62, 95
1, 552960, Note_on_c, 0, 66, 95
1, 552960, Note_on_c, 0, 71, 109
1, 552960, Control_c, 0, 64, 127
1, 553047, Note_on_c, 0, 44, 105
1, 553124, Control_c, 0, 64, 127
1, 553124, Control_c, 0, 64, 127
1, 553141, Note_on_c, 0, 59, 111
1, 553235, Note_on_c, 0, 59, 0
1, 553235, Note_on_c, 0, 62, 113
1, 553240, Control_c, 0, 64, 0
1, 553240, Control_c, 0, 64, 0
1, 553288, Control_c, 0, 64, 127
1, 553288, Control_c, 0, 64, 127
1, 553315, Note_on_c, 0, 71, 0
1, 553315, Note_on_c, 0, 62, 0
1, 553315, Note_on_c, 0, 66, 0
1, 553318, Note_on_c, 0, 59, 0
1, 553318, Note_on_c, 0, 66, 87
1, 553318, Note_on_c, 0, 71, 87
1, 553321, Note_on_c, 0, 44, 0
1, 553321, Note_on_c, 0, 74, 103
1, 553395, Note_on_c, 0, 56, 108
1, 553475, Note_on_c, 0, 62, 114
1, 553555, Note_on_c, 0, 62, 0
1, 553555, Note_on_c, 0, 61, 116
1, 553576, Control_c, 0, 64, 0
1, 553576, Control_c, 0, 64, 0
1, 553643, Control_c, 0, 64, 127
1, 553643, Control_c, 0, 64, 127
1, 553649, Note_on_c, 0, 66, 0
1, 553649, Note_on_c, 0, 71, 0
1, 553649, Note_on_c, 0, 62, 0
1, 553652, Note_on_c, 0, 74, 0
1, 553652, Note_on_c, 0, 65, 94
1, 553652, Note_on_c, 0, 68, 94
1, 553655, Note_on_c, 0, 73, 110
1, 553743, Note_on_c, 0, 56, 0
1, 553743, Note_on_c, 0, 61, 0
1, 553743, Note_on_c, 0, 49, 111
1, 553823, Note_on_c, 0, 61, 110
1, 553903, Note_on_c, 0, 60, 117
1, 553939, Control_c, 0, 64, 0
1, 553939, Control_c, 0, 64, 0
1, 553997, Note_on_c, 0, 61, 0
1, 553997, Note_on_c, 0, 68, 0
1, 553997, Note_on_c, 0, 65, 0
1, 554000, Note_on_c, 0, 73, 0
1, 554000, Note_on_c, 0, 60, 86
1, 554000, Note_on_c, 0, 65, 86
1, 554003, Note_on_c, 0, 49, 0
1, 554003, Note_on_c, 0, 68, 104
1, 554003, Note_on_c, 0, 72, 86
1, 554006, Control_c, 0, 64, 127
1, 554006, Control_c, 0, 64, 127
1, 554090, Note_on_c, 0, 60, 0
1, 554090, Note_on_c, 0, 59, 110
1, 554184, Note_on_c, 0, 68, 0
1, 554184, Note_on_c, 0, 65, 0
1, 554184, Note_on_c, 0, 60, 0
1, 554187, Note_on_c, 0, 72, 0
1, 554187, Note_on_c, 0, 59, 88
1, 554187, Note_on_c, 0, 65, 88
1, 554190, Note_on_c, 0, 68, 88
1, 554190, Note_on_c, 0, 71, 104
1, 554286, Note_on_c, 0, 59, 0
1, 554286, Note_on_c, 0, 57, 110
1, 554305, Control_c, 0, 64, 0
1, 554305, Control_c, 0, 64, 0
1, 554344, Control_c, 0, 64, 0
1, 554344, Control_c, 0, 64, 0
1, 554411, Note_on_c, 0, 59, 0
1, 554411, Note_on_c, 0, 65, 0
1, 554411, Control_c, 0, 64, 0
1, 554414, Note_on_c, 0, 68, 0
1, 554414, Note_on_c, 0, 71, 0
1, 554414, Note_on_c, 0, 61, 87
1, 554417, Note_on_c, 0, 66, 87
1, 554417, Note_on_c, 0, 69, 102
1, 554417, Control_c, 0, 64, 0
1, 554432, Control_c, 0, 64, 127
1, 554432, Control_c, 0, 64, 127
1, 554491, Note_on_c, 0, 42, 102
1, 554571, Note_on_c, 0, 57, 109
1, 554620, Control_c, 0, 64, 127
1, 554620, Control_c, 0, 64, 127
1, 554651, Note_on_c, 0, 57, 0
1, 554651, Note_on_c, 0, 56, 106
1, 554664, Control_c, 0, 64, 0
1, 554664, Control_c, 0, 64, 0
1, 554670, Control_c, 0, 64, 0
1, 554670, Control_c, 0, 64, 0
1, 554720, Control_c, 0, 64, 0
1, 554720, Control_c, 0, 64, 0
1, 554745, Note_on_c, 0, 69, 0
1, 554745, Note_on_c, 0, 61, 0
1, 554745, Note_on_c, 0, 66, 0
1, 554748, Note_on_c, 0, 57, 0
1, 554748, Note_on_c, 0, 60, 85
1, 554748, Note_on_c, 0, 63, 85
1, 554751, Note_on_c, 0, 42, 0
1, 554751, Note_on_c, 0, 68, 100
1, 554770, Control_c, 0, 64, 127
1, 554770, Control_c, 0, 64, 127
1, 554839, Note_on_c, 0, 44, 101
1, 554932, Note_on_c, 0, 56, 105
1, 554964, Control_c, 0, 64, 127
1, 554964, Control_c, 0, 64, 127
1, 555026, Note_on_c, 0, 56, 0
1, 555026, Note_on_c, 0, 49, 104
1, 555051, Control_c, 0, 64, 0
1, 555051, Control_c, 0, 64, 0
1, 555082, Control_c, 0, 64, 0
1, 555082, Control_c, 0, 64, 0
1, 555107, Control_c, 0, 64, 0
1, 555107, Control_c, 0, 64, 0
1, 555119, Note_on_c, 0, 60, 0
1, 555119, Note_on_c, 0, 63, 0
1, 555119, Note_on_c, 0, 56, 0
1, 555122, Note_on_c, 0, 68, 0
1, 555122, Note_on_c, 0, 54, 80
1, 555122, Note_on_c, 0, 57, 80
1, 555125, Note_on_c, 0, 44, 0
1, 555125, Note_on_c, 0, 61, 93
1, 555176, Control_c, 0, 64, 127
1, 555176, Control_c, 0, 64, 127
1, 555213, Note_on_c, 0, 49, 0
1, 555213, Note_on_c, 0, 37, 86
1, 555321, Note_on_c, 0, 49, 100
1, 555343, Control_c, 0, 64, 127
1, 555343, Control_c, 0, 64, 127
1, 555429, Note_on_c, 0, 49, 101
1, 555472, Control_c, 0, 64, 0
1, 555472, Control_c, 0, 64, 0
1, 555537, Note_on_c, 0, 49, 0
1, 555537, Note_on_c, 0, 54, 0
1, 555537, Control_c, 0, 64, 127
1, 555540, Note_on_c, 0, 61, 0
1, 555540, Note_on_c, 0, 57, 0
1, 555540, Note_on_c, 0, 52, 77
1, 555543, Note_on_c, 0, 56, 77
1, 555543, Note_on_c, 0, 61, 89
1, 555543, Control_c, 0, 64, 127
1, 555770, Control_c, 0, 64, 0
1, 555770, Control_c, 0, 64, 0
1, 555787, Note_on_c, 0, 61, 0
1, 555787, Note_on_c, 0, 52, 0
1, 555787, Note_on_c, 0, 56, 0
1, 555790, Note_on_c, 0, 37, 0
1, 555790, Note_on_c, 0, 49, 0
1, 555911, Note_on_c, 0, 56, 101
1, 555915, Control_c, 0, 64, 0
1, 555915, Control_c, 0, 64, 0
1, 556009, Control_c, 0, 64, 127
1, 556009, Control_c, 0, 64, 127
1, 556072, Control_c, 0, 64, 127
1, 556072, Control_c, 0, 64, 0
1, 556072, Note_on_c, 0, 60, 78
1, 556075, Note_on_c, 0, 63, 78
1, 556075, Note_on_c, 0, 68, 88
1, 556075, Control_c, 0, 64, 127
1, 556078, Control_c, 0, 64, 0
1, 556166, Note_on_c, 0, 44, 89
1, 556259, Note_on_c, 0, 56, 90
1, 556309, Control_c, 0, 64, 127
1, 556309, Control_c, 0, 64, 127
1, 556353, Note_on_c, 0, 56, 0
1, 556353, Note_on_c, 0, 57, 96
1, 556374, Control_c, 0, 64, 0
1, 556374, Control_c, 0, 64, 0
1, 556401, Control_c, 0, 64, 0
1, 556401, Control_c, 0, 64, 0
1, 556433, Note_on_c, 0, 68, 0
1, 556433, Note_on_c, 0, 60, 0
1, 556433, Note_on_c, 0, 63, 0
1, 556436, Note_on_c, 0, 56, 0
1, 556436, Note_on_c, 0, 60, 81
1, 556436, Note_on_c, 0, 63, 81
1, 556439, Note_on_c, 0, 69, 93
1, 556439, Control_c, 0, 64, 127
1, 556439, Control_c, 0, 64, 127
1, 556513, Note_on_c, 0, 44, 0
1, 556513, Note_on_c, 0, 42, 93
1, 556593, Note_on_c, 0, 57, 95
1, 556663, Control_c, 0, 64, 127
1, 556663, Control_c, 0, 64, 127
1, 556674, Note_on_c, 0, 57, 0
1, 556674, Note_on_c, 0, 56, 101
1, 556701, Control_c, 0, 64, 0
1, 556701, Control_c, 0, 64, 0
1, 556727, Control_c, 0, 64, 0
1, 556727, Control_c, 0, 64, 0
1, 556754, Note_on_c, 0, 60, 0
1, 556754, Note_on_c, 0, 63, 0
1, 556754, Note_on_c, 0, 57, 0
1, 556757, Note_on_c, 0, 69, 0
1, 556757, Note_on_c, 0, 61, 85
1, 556757, Note_on_c, 0, 64, 85
1, 556760, Note_on_c, 0, 42, 0
1, 556760, Note_on_c, 0, 68, 97
1, 556760, Control_c, 0, 64, 127
1, 556763, Control_c, 0, 64, 127
1, 556834, Note_on_c, 0, 40, 97
1, 556914, Note_on_c, 0, 56, 99
1, 556995, Note_on_c, 0, 56, 0
1, 556995, Control_c, 0, 64, 127
1, 556995, Control_c, 0, 64, 127
1, 556998, Note_on_c, 0, 60, 105
1, 557022, Control_c, 0, 64, 0
1, 557022, Control_c, 0, 64, 0
1, 557053, Control_c, 0, 64, 0
1, 557053, Control_c, 0, 64, 0
1, 557075, Note_on_c, 0, 61, 0
1, 557075, Note_on_c, 0, 64, 0
1, 557075, Note_on_c, 0, 56, 0
1, 557078, Note_on_c, 0, 68, 0
1, 557078, Note_on_c, 0, 63, 88
1, 557078, Note_on_c, 0, 66, 88
1, 557081, Note_on_c, 0, 40, 0
1, 557081, Note_on_c, 0, 68, 101
1, 557081, Note_on_c, 0, 72, 88
1, 557084, Control_c, 0, 64, 127
1, 557084, Control_c, 0, 64, 127
1, 557155, Note_on_c, 0, 39, 101
1, 557235, Note_on_c, 0, 60, 104
1, 557284, Control_c, 0, 64, 127
1, 557284, Control_c, 0, 64, 127
1, 557315, Note_on_c, 0, 60, 0
1, 557315, Note_on_c, 0, 61, 111
1, 557391, Control_c, 0, 64, 0
1, 557391, Control_c, 0, 64, 0
1, 557440, Control_c, 0, 64, 127
1, 557440, Control_c, 0, 64, 0
1, 557440, Control_c, 0, 64, 0
1, 557443, Note_on_c, 0, 63, 0
1, 557443, Note_on_c, 0, 66, 0
1, 557443, Note_on_c, 0, 60, 0
1, 557446, Note_on_c, 0, 72, 0
1, 557446, Note_on_c, 0, 68, 0
1, 557446, Note_on_c, 0, 64, 86
1, 557449, Note_on_c, 0, 68, 86
1, 557449, Note_on_c, 0, 73, 99
1, 557449, Control_c, 0, 64, 127
1, 557452, Note_on_c, 0, 39, 0
1, 557452, Control_c, 0, 64, 0
1, 557452, Control_c, 0, 64, 0
1, 557565, Note_on_c, 0, 37, 99
1, 557690, Note_on_c, 0, 61, 101
1, 557740, Control_c, 0, 64, 127
1, 557740, Control_c, 0, 64, 127
1, 557783, Note_on_c, 0, 61, 0
1, 557783, Note_on_c, 0, 62, 107
1, 557808, Control_c, 0, 64, 0
1, 557808, Control_c, 0, 64, 0
1, 557840, Control_c, 0, 64, 0
1, 557840, Control_c, 0, 64, 0
1, 557877, Note_on_c, 0, 73, 0
1, 557877, Note_on_c, 0, 68, 0
1, 557877, Note_on_c, 0, 64, 0
1, 557880, Note_on_c, 0, 61, 0
1, 557880, Note_on_c, 0, 65, 89
1, 557880, Note_on_c, 0, 68, 89
1, 557883, Note_on_c, 0, 37, 0
1, 557883, Note_on_c, 0, 74, 103
1, 557883, Control_c, 0, 64, 127
1, 557886, Control_c, 0, 64, 127
1, 557957, Note_on_c, 0, 47, 104
1, 558038, Note_on_c, 0, 62, 106
1, 558107, Control_c, 0, 64, 127
1, 558107, Control_c, 0, 64, 127
1, 558118, Note_on_c, 0, 62, 0
1, 558118, Note_on_c, 0, 61, 113
1, 558145, Control_c, 0, 64, 0
1, 558145, Control_c, 0, 64, 0
1, 558171, Control_c, 0, 64, 0
1, 558171, Control_c, 0, 64, 0
1, 558198, Note_on_c, 0, 65, 0
1, 558198, Note_on_c, 0, 68, 0
1, 558198, Note_on_c, 0, 62, 0
1, 558201, Note_on_c, 0, 74, 0
1, 558201, Note_on_c, 0, 66, 94
1, 558201, Note_on_c, 0, 69, 94
1, 558204, Note_on_c, 0, 47, 0
1, 558204, Note_on_c, 0, 73, 108
1, 558204, Control_c, 0, 64, 127
1, 558207, Control_c, 0, 64, 127
1, 558278, Note_on_c, 0, 45, 108
1, 558358, Note_on_c, 0, 61, 110
1, 558439, Note_on_c, 0, 61, 0
1, 558439, Control_c, 0, 64, 127
1, 558439, Control_c, 0, 64, 127
1, 558442, Note_on_c, 0, 65, 117
1, 558466, Control_c, 0, 64, 0
1, 558466, Control_c, 0, 64, 0
1, 558498, Control_c, 0, 64, 0
1, 558498, Control_c, 0, 64, 0
1, 558519, Note_on_c, 0, 66, 0
1, 558519, Note_on_c, 0, 69, 0
1, 558519, Note_on_c, 0, 61, 0
1, 558522, Note_on_c, 0, 73, 0
1, 558522, Note_on_c, 0, 68, 97
1, 558522, Note_on_c, 0, 71, 97
1, 558525, Note_on_c, 0, 45, 0
1, 558525, Note_on_c, 0, 73, 113
1, 558525, Note_on_c, 0, 77, 97
1, 558528, Control_c, 0, 64, 127
1, 558528, Control_c, 0, 64, 127
1, 558599, Note_on_c, 0, 44, 112
1, 558679, Note_on_c, 0, 65, 115
1, 558728, Control_c, 0, 64, 127
1, 558728, Control_c, 0, 64, 127
1, 558760, Note_on_c, 0, 65, 0
1, 558760, Note_on_c, 0, 66, 117
1, 558835, Control_c, 0, 64, 0
1, 558835, Control_c, 0, 64, 0
1, 558884, Control_c, 0, 64, 127
1, 558884, Control_c, 0, 64, 0
1, 558884, Control_c, 0, 64, 0
1, 558887, Note_on_c, 0, 68, 0
1, 558887, Note_on_c, 0, 71, 0
1, 558887, Note_on_c, 0, 65, 0
1, 558890, Note_on_c, 0, 77, 0
1, 558890, Note_on_c, 0, 73, 0
1, 558890, Note_on_c, 0, 69, 97
1, 558893, Note_on_c, 0, 73, 97
1, 558893, Note_on_c, 0, 78, 112
1, 558893, Control_c, 0, 64, 127
1, 558896, Note_on_c, 0, 44, 0
1, 558896, Control_c, 0, 64, 0
1, 558896, Control_c, 0, 64, 0
1, 559009, Note_on_c, 0, 42, 111
1, 559134, Note_on_c, 0, 66, 111
1, 559200, Control_c, 0, 64, 127
1, 559200, Control_c, 0, 64, 127
1, 559259, Note_on_c, 0, 66, 0
1, 559259, Note_on_c, 0, 62, 117
1, 559280, Control_c, 0, 64, 0
1, 559280, Control_c, 0, 64, 0
1, 559307, Control_c, 0, 64, 0
1, 559307, Control_c, 0, 64, 0
1, 559339, Note_on_c, 0, 78, 0
1, 559339, Note_on_c, 0, 73, 0
1, 559339, Note_on_c, 0, 69, 0
1, 559342, Note_on_c, 0, 66, 0
1, 559342, Note_on_c, 0, 66, 95
1, 559342, Note_on_c, 0, 71, 95
1, 559345, Note_on_c, 0, 42, 0
1, 559345, Note_on_c, 0, 74, 110
1, 559345, Control_c, 0, 64, 127
1, 559348, Control_c, 0, 64, 127
1, 559419, Note_on_c, 0, 47, 109
1, 559499, Note_on_c, 0, 62, 109
1, 559569, Control_c, 0, 64, 127
1, 559569, Control_c, 0, 64, 127
1, 559580, Note_on_c, 0, 62, 0
1, 559580, Note_on_c, 0, 61, 114
1, 559607, Control_c, 0, 64, 0
1, 559607, Control_c, 0, 64, 0
1, 559633, Control_c, 0, 64, 0
1, 559633, Control_c, 0, 64, 0
1, 559660, Note_on_c, 0, 66, 0
1, 559660, Note_on_c, 0, 71, 0
1, 559660, Note_on_c, 0, 62, 0
1, 559663, Note_on_c, 0, 74, 0
1, 559663, Note_on_c, 0, 66, 93
1, 559663, Note_on_c, 0, 69, 93
1, 559666, Note_on_c, 0, 47, 0
1, 559666, Note_on_c, 0, 73, 107
1, 559666, Control_c, 0, 64, 127
1, 559669, Control_c, 0, 64, 127
1, 559740, Note_on_c, 0, 49, 107
1, 559820, Note_on_c, 0, 61, 106
1, 559901, Note_on_c, 0, 61, 0
1, 559901, Control_c, 0, 64, 127
1, 559901, Control_c, 0, 64, 127
1, 559904, Note_on_c, 0, 59, 111
1, 559928, Control_c, 0, 64, 0
1, 559928, Control_c, 0, 64, 0
1, 559960, Control_c, 0, 64, 0
1, 559960, Control_c, 0, 64, 0
1, 559981, Note_on_c, 0, 66, 0
1, 559981, Note_on_c, 0, 69, 0
1, 559981, Note_on_c, 0, 61, 0
1, 559984, Note_on_c, 0, 73, 0
1, 559984, Note_on_c, 0, 65, 91
1, 559984, Note_on_c, 0, 68, 91
1, 559987, Note_on_c, 0, 49, 0
1, 559987, Note_on_c, 0, 71, 105
1, 559987, Control_c, 0, 64, 127
1, 559990, Control_c, 0, 64, 127
1, 560061, Note_on_c, 0, 37, 103
1, 560141, Note_on_c, 0, 59, 104
1, 560190, Control_c, 0, 64, 127
1, 560190, Control_c, 0, 64, 127
1, 560222, Note_on_c, 0, 59, 0
1, 560222, Note_on_c, 0, 57, 109
1, 560270, Control_c, 0, 64, 0
1, 560270, Control_c, 0, 64, 0
1, 560302, Control_c, 0, 64, 127
1, 560302, Control_c, 0, 64, 0
1, 560302, Control_c, 0, 64, 0
1, 560305, Note_on_c, 0, 65, 0
1, 560305, Note_on_c, 0, 68, 0
1, 560305, Note_on_c, 0, 59, 0
1, 560308, Note_on_c, 0, 71, 0
1, 560308, Note_on_c, 0, 61, 83
1, 560308, Note_on_c, 0, 66, 83
1, 560311, Note_on_c, 0, 69, 95
1, 560311, Control_c, 0, 64, 127
1, 560311, Control_c, 0, 64, 0
1, 560314, Note_on_c, 0, 37, 0
1, 560314, Control_c, 0, 64, 0
1, 560382, Note_on_c, 0, 42, 96
1, 560462, Note_on_c, 0, 57, 98
1, 560505, Control_c, 0, 64, 127
1, 560505, Control_c, 0, 64, 127
1, 560542, Note_on_c, 0, 57, 0
1, 560542, Note_on_c, 0, 54, 104
1, 560564, Control_c, 0, 64, 0
1, 560564, Control_c, 0, 64, 0
1, 560591, Control_c, 0, 64, 0
1, 560591, Control_c, 0, 64, 0
1, 560623, Note_on_c, 0, 69, 0
1, 560623, Note_on_c, 0, 66, 0
1, 560623, Note_on_c, 0, 61, 0
1, 560626, Note_on_c, 0, 57, 0
1, 560626, Note_on_c, 0, 57, 87
1, 560626, Note_on_c, 0, 61, 87
1, 560629, Note_on_c, 0, 42, 0
1, 560629, Note_on_c, 0, 66, 100
1, 560629, Control_c, 0, 64, 127
1, 560632, Control_c, 0, 64, 127
1, 560703, Note_on_c, 0, 45, 101
1, 560783, Note_on_c, 0, 54, 104
1, 560853, Control_c, 0, 64, 127
1, 560853, Control_c, 0, 64, 127
1, 560863, Note_on_c, 0, 54, 0
1, 560863, Note_on_c, 0, 52, 110
1, 560895, Control_c, 0, 64, 0
1, 560895, Control_c, 0, 64, 0
1, 560926, Control_c, 0, 64, 0
1, 560926, Control_c, 0, 64, 0
1, 560957, Note_on_c, 0, 57, 0
1, 560957, Note_on_c, 0, 61, 0
1, 560957, Note_on_c, 0, 54, 0
1, 560960, Note_on_c, 0, 66, 0
1, 560960, Note_on_c, 0, 56, 92
1, 560960, Note_on_c, 0, 61, 92
1, 560963, Note_on_c, 0, 45, 0
1, 560963, Note_on_c, 0, 64, 106
1, 560963, Control_c, 0, 64, 127
1, 560963, Control_c, 0, 64, 127
1, 561051, Note_on_c, 0, 44, 107
1, 561144, Note_on_c, 0, 52, 109
1, 561238, Note_on_c, 0, 52, 0
1, 561238, Control_c, 0, 64, 127
1, 561238, Control_c, 0, 64, 127
1, 561241, Note_on_c, 0, 51, 116
1, 561280, Control_c, 0, 64, 0
1, 561280, Control_c, 0, 64, 0
1, 561329, Control_c, 0, 64, 0
1, 561329, Control_c, 0, 64, 0
1, 561363, Note_on_c, 0, 56, 0
1, 561363, Note_on_c, 0, 61, 0
1, 561363, Note_on_c, 0, 52, 0
1, 561366, Note_on_c, 0, 64, 0
1, 561366, Note_on_c, 0, 56, 96
1, 561366, Note_on_c, 0, 60, 96
1, 561369, Note_on_c, 0, 63, 112
1, 561369, Control_c, 0, 64, 127
1, 561369, Control_c, 0, 64, 127
1, 561487, Note_on_c, 0, 44, 0
1, 561487, Note_on_c, 0, 51, 0
1, 561487, Note_on_c, 0, 32, 111
1, 561612, Note_on_c, 0, 60, 0
1, 561612, Note_on_c, 0, 56, 0
1, 561612, Note_on_c, 0, 51, 115
1, 561615, Note_on_c, 0, 63, 0
1, 561615, Note_on_c, 0, 32, 0
1, 561666, Control_c, 0, 64, 0
1, 561666, Control_c, 0, 64, 0
1, 561773, Note_on_c, 0, 51, 0
1, 561773, Note_on_c, 0, 73, 117
1, 561784, Control_c, 0, 64, 0
1, 561784, Control_c, 0, 64, 0
1, 561933, Control_c, 0, 64, 127
1, 561933, Note_on_c, 0, 76, 97
1, 561933, Note_on_c, 0, 80, 97
1, 561936, Note_on_c, 0, 85, 113
1, 561936, Control_c, 0, 64, 127
1, 562058, Note_on_c, 0, 73, 0
1, 562058, Note_on_c, 0, 49, 113
1, 562183, Note_on_c, 0, 73, 112
1, 562307, Note_on_c, 0, 49, 0
1, 562307, Note_on_c, 0, 68, 117
1, 562401, Note_on_c, 0, 76, 0
1, 562401, Note_on_c, 0, 85, 0
1, 562401, Note_on_c, 0, 80, 0
1, 562404, Note_on_c, 0, 73, 0
1, 562404, Note_on_c, 0, 73, 96
1, 562404, Note_on_c, 0, 76, 96
1, 562407, Note_on_c, 0, 80, 112
1, 562495, Note_on_c, 0, 68, 0
1, 562495, Note_on_c, 0, 49, 112
1, 562588, Note_on_c, 0, 68, 111
1, 562682, Note_on_c, 0, 49, 0
1, 562682, Note_on_c, 0, 64, 117
1, 562762, Note_on_c, 0, 73, 0
1, 562762, Note_on_c, 0, 68, 0
1, 562762, Note_on_c, 0, 76, 0
1, 562765, Note_on_c, 0, 80, 0
1, 562765, Note_on_c, 0, 68, 95
1, 562765, Note_on_c, 0, 73, 95
1, 562768, Note_on_c, 0, 76, 110
1, 562842, Note_on_c, 0, 64, 0
1, 562842, Note_on_c, 0, 49, 110
1, 562923, Note_on_c, 0, 64, 109
1, 563003, Note_on_c, 0, 49, 0
1, 563003, Note_on_c, 0, 61, 115
1, 563083, Note_on_c, 0, 68, 0
1, 563083, Note_on_c, 0, 64, 0
1, 563083, Note_on_c, 0, 73, 0
1, 563086, Note_on_c, 0, 76, 0
1, 563086, Note_on_c, 0, 64, 94
1, 563086, Note_on_c, 0, 68, 94
1, 563089, Note_on_c, 0, 73, 109
1, 563163, Note_on_c, 0, 61, 0
1, 563163, Note_on_c, 0, 49, 109
1, 563243, Note_on_c, 0, 61, 108
1, 563315, Control_c, 0, 64, 0
1, 563315, Control_c, 0, 64, 0
1, 563324, Note_on_c, 0, 60, 114
1, 563375, Control_c, 0, 64, 127
1, 563375, Control_c, 0, 64, 127
1, 563449, Note_on_c, 0, 61, 0
1, 563449, Note_on_c, 0, 64, 0
1, 563449, Control_c, 0, 64, 127
1, 563452, Note_on_c, 0, 73, 0
1, 563452, Note_on_c, 0, 68, 0
1, 563452, Note_on_c, 0, 64, 93
1, 563455, Note_on_c, 0, 67, 93
1, 563455, Note_on_c, 0, 72, 107
1, 563455, Control_c, 0, 64, 127
1, 563458, Note_on_c, 0, 49, 0
1, 563458, Note_on_c, 0, 60, 0
1, 563458, Note_on_c, 0, 60, 93
1, 563573, Note_on_c, 0, 45, 107
1, 563698, Note_on_c, 0, 60, 108
1, 563778, Note_on_c, 0, 60, 0
1, 563778, Note_on_c, 0, 61, 112
1, 563783, Control_c, 0, 64, 0
1, 563783, Control_c, 0, 64, 0
1, 563835, Control_c, 0, 64, 127
1, 563835, Control_c, 0, 64, 127
1, 563859, Note_on_c, 0, 67, 0
1, 563859, Note_on_c, 0, 72, 0
1, 563859, Note_on_c, 0, 64, 0
1, 563862, Note_on_c, 0, 60, 0
1, 563862, Note_on_c, 0, 64, 94
1, 563862, Note_on_c, 0, 67, 94
1, 563865, Note_on_c, 0, 45, 0
1, 563865, Note_on_c, 0, 73, 109
1, 563939, Note_on_c, 0, 45, 106
1, 564019, Note_on_c, 0, 64, 0
1, 564019, Note_on_c, 0, 61, 109
1, 564099, Note_on_c, 0, 61, 0
1, 564099, Note_on_c, 0, 64, 113
1, 564124, Control_c, 0, 64, 0
1, 564124, Control_c, 0, 64, 0
1, 564238, Control_c, 0, 64, 127
1, 564238, Control_c, 0, 64, 127
1, 564260, Note_on_c, 0, 73, 0
1, 564260, Note_on_c, 0, 61, 0
1, 564260, Note_on_c, 0, 67, 0
1, 564263, Note_on_c, 0, 66, 94
1, 564263, Note_on_c, 0, 69, 94
1, 564263, Note_on_c, 0, 76, 109
1, 564266, Note_on_c, 0, 45, 0
1, 564420, Note_on_c, 0, 50, 104
1, 564561, Note_on_c, 0, 64, 109
1, 564701, Note_on_c, 0, 64, 0
1, 564701, Note_on_c, 0, 62, 117
1, 564719, Control_c, 0, 64, 0
1, 564719, Control_c, 0, 64, 0
1, 564792, Control_c, 0, 64, 127
1, 564792, Control_c, 0, 64, 127
1, 564795, Note_on_c, 0, 66, 0
1, 564795, Note_on_c, 0, 69, 0
1, 564795, Note_on_c, 0, 64, 0
1, 564798, Note_on_c, 0, 76, 0
1, 564798, Note_on_c, 0, 62, 90
1, 564798, Note_on_c, 0, 66, 90
1, 564801, Note_on_c, 0, 50, 0
1, 564801, Note_on_c, 0, 69, 90
1, 564801, Note_on_c, 0, 74, 106
1, 564903, Note_on_c, 0, 62, 0
1, 564903, Note_on_c, 0, 61, 117
1, 564910, Control_c, 0, 64, 0
1, 564910, Control_c, 0, 64, 0
1, 564996, Control_c, 0, 64, 127
1, 564996, Control_c, 0, 64, 127
1, 565011, Note_on_c, 0, 69, 0
1, 565011, Note_on_c, 0, 66, 0
1, 565011, Note_on_c, 0, 62, 0
1, 565014, Note_on_c, 0, 74, 0
1, 565014, Note_on_c, 0, 61, 90
1, 565014, Note_on_c, 0, 66, 90
1, 565017, Note_on_c, 0, 69, 90
1, 565017, Note_on_c, 0, 73, 106
1, 565119, Note_on_c, 0, 61, 0
1, 565119, Control_c, 0, 64, 0
1, 565119, Note_on_c, 0, 59, 117
1, 565119, Control_c, 0, 64, 0
1, 565195, Control_c, 0, 64, 127
1, 565195, Control_c, 0, 64, 127
1, 565243, Note_on_c, 0, 61, 0
1, 565243, Note_on_c, 0, 66, 0
1, 565243, Control_c, 0, 64, 127
1, 565246, Note_on_c, 0, 69, 0
1, 565246, Note_on_c, 0, 73, 0
1, 565246, Note_on_c, 0, 62, 95
1, 565249, Note_on_c, 0, 66, 95
1, 565249, Note_on_c, 0, 71, 109
1, 565249, Control_c, 0, 64, 127
1, 565337, Note_on_c, 0, 44, 105
1, 565414, Control_c, 0, 64, 127
1, 565414, Control_c, 0, 64, 127
1, 565431, Note_on_c, 0, 59, 111
1, 565524, Note_on_c, 0, 59, 0
1, 565524, Note_on_c, 0, 62, 113
1, 565530, Control_c, 0, 64, 0
1, 565530, Control_c, 0, 64, 0
1, 565577, Control_c, 0, 64, 127
1, 565577, Control_c, 0, 64, 127
1, 565604, Note_on_c, 0, 71, 0
1, 565604, Note_on_c, 0, 62, 0
1, 565604, Note_on_c, 0, 66, 0
1, 565607, Note_on_c, 0, 59, 0
1, 565607, Note_on_c, 0, 66, 87
1, 565607, Note_on_c, 0, 71, 87
1, 565610, Note_on_c, 0, 44, 0
1, 565610, Note_on_c, 0, 74, 103
1, 565685, Note_on_c, 0, 56, 108
1, 565765, Note_on_c, 0, 62, 114
1, 565845, Note_on_c, 0, 62, 0
1, 565845, Note_on_c, 0, 61, 116
1, 565872, Control_c, 0, 64, 0
1, 565872, Control_c, 0, 64, 0
1, 565962, Control_c, 0, 64, 127
1, 565962, Control_c, 0, 64, 127
1, 565970, Note_on_c, 0, 66, 0
1, 565970, Note_on_c, 0, 71, 0
1, 565970, Note_on_c, 0, 62, 0
1, 565973, Note_on_c, 0, 74, 0
1, 565973, Note_on_c, 0, 65, 94
1, 565973, Note_on_c, 0, 68, 94
1, 565976, Note_on_c, 0, 73, 110
1, 566110, Note_on_c, 0, 56, 0
1, 566110, Note_on_c, 0, 61, 0
1, 566110, Note_on_c, 0, 49, 111
1, 566191, Note_on_c, 0, 61, 110
1, 566271, Note_on_c, 0, 60, 117
1, 566307, Control_c, 0, 64, 0
1, 566307, Control_c, 0, 64, 0
1, 566364, Note_on_c, 0, 61, 0
1, 566364, Note_on_c, 0, 68, 0
1, 566364, Note_on_c, 0, 65, 0
1, 566367, Note_on_c, 0, 73, 0
1, 566367, Note_on_c, 0, 60, 87
1, 566367, Note_on_c, 0, 65, 87
1, 566370, Note_on_c, 0, 49, 0
1, 566370, Note_on_c, 0, 68, 87
1, 566370, Note_on_c, 0, 72, 103
1, 566373, Control_c, 0, 64, 127
1, 566373, Control_c, 0, 64, 127
1, 566458, Note_on_c, 0, 60, 0
1, 566458, Note_on_c, 0, 59, 110
1, 566552, Note_on_c, 0, 68, 0
1, 566552, Note_on_c, 0, 65, 0
1, 566552, Note_on_c, 0, 60, 0
1, 566555, Note_on_c, 0, 72, 0
1, 566555, Note_on_c, 0, 59, 87
1, 566555, Note_on_c, 0, 65, 87
1, 566558, Note_on_c, 0, 68, 87
1, 566558, Note_on_c, 0, 71, 103
1, 566654, Note_on_c, 0, 59, 0
1, 566654, Note_on_c, 0, 57, 110
1, 566673, Control_c, 0, 64, 0
1, 566673, Control_c, 0, 64, 0
1, 566712, Control_c, 0, 64, 0
1, 566712, Control_c, 0, 64, 0
1, 566778, Note_on_c, 0, 59, 0
1, 566778, Note_on_c, 0, 65, 0
1, 566778, Control_c, 0, 64, 0
1, 566781, Note_on_c, 0, 68, 0
1, 566781, Note_on_c, 0, 71, 0
1, 566781, Note_on_c, 0, 61, 87
1, 566784, Note_on_c, 0, 66, 87
1, 566784, Note_on_c, 0, 69, 102
1, 566784, Control_c, 0, 64, 0
1, 566803, Control_c, 0, 64, 127
1, 566803, Control_c, 0, 64, 127
1, 566872, Note_on_c, 0, 42, 101
1, 566966, Note_on_c, 0, 57, 107
1, 567022, Control_c, 0, 64, 127
1, 567022, Control_c, 0, 64, 127
1, 567059, Note_on_c, 0, 57, 0
1, 567059, Note_on_c, 0, 56, 102
1, 567072, Control_c, 0, 64, 0
1, 567072, Control_c, 0, 64, 0
1, 567078, Control_c, 0, 64, 0
1, 567078, Control_c, 0, 64, 0
1, 567128, Control_c, 0, 64, 0
1, 567128, Control_c, 0, 64, 0
1, 567153, Note_on_c, 0, 69, 0
1, 567153, Note_on_c, 0, 61, 0
1, 567153, Note_on_c, 0, 66, 0
1, 567156, Note_on_c, 0, 57, 0
1, 567156, Note_on_c, 0, 60, 82
1, 567156, Note_on_c, 0, 63, 82
1, 567159, Note_on_c, 0, 42, 0
1, 567159, Note_on_c, 0, 68, 96
1, 567178, Control_c, 0, 64, 127
1, 567178, Control_c, 0, 64, 127
1, 567246, Note_on_c, 0, 44, 96
1, 567340, Note_on_c, 0, 56, 99
1, 567371, Control_c, 0, 64, 127
1, 567371, Control_c, 0, 64, 127
1, 567434, Note_on_c, 0, 56, 0
1, 567434, Note_on_c, 0, 49, 96
1, 567471, Control_c, 0, 64, 0
1, 567471, Control_c, 0, 64, 0
1, 567518, Control_c, 0, 64, 0
1, 567518, Control_c, 0, 64, 0
1, 567555, Control_c, 0, 64, 0
1, 567555, Control_c, 0, 64, 0
1, 567574, Note_on_c, 0, 68, 0
1, 567574, Note_on_c, 0, 63, 0
1, 567574, Note_on_c, 0, 60, 0
1, 567577, Note_on_c, 0, 56, 0
1, 567577, Note_on_c, 0, 54, 74
1, 567577, Note_on_c, 0, 57, 74
1, 567580, Note_on_c, 0, 44, 0
1, 567580, Note_on_c, 0, 61, 91
1, 567658, Control_c, 0, 64, 127
1, 567658, Control_c, 0, 64, 127
1, 567714, Note_on_c, 0, 37, 79
1, 567855, Note_on_c, 0, 49, 89
1, 567883, Control_c, 0, 64, 127
1, 567883, Control_c, 0, 64, 127
1, 567995, Note_on_c, 0, 49, 0
1, 567995, Control_c, 0, 64, 127
1, 567995, Control_c, 0, 64, 127
1, 567998, Note_on_c, 0, 49, 89
1, 568095, Control_c, 0, 64, 0
1, 568095, Control_c, 0, 64, 0
1, 568182, Note_on_c, 0, 57, 0
1, 568182, Note_on_c, 0, 54, 0
1, 568182, Control_c, 0, 64, 127
1, 568185, Note_on_c, 0, 61, 0
1, 568185, Note_on_c, 0, 52, 69
1, 568185, Note_on_c, 0, 56, 69
1, 568188, Note_on_c, 0, 61, 84
1, 568188, Control_c, 0, 64, 127
1, 568707, Control_c, 0, 64, 0
1, 568707, Control_c, 0, 64, 0
1, 568950, Control_c, 0, 64, 0
1, 568950, Control_c, 0, 64, 0
1, 569306, Note_on_c, 0, 61, 0
1, 569306, Note_on_c, 0, 52, 0
1, 569306, Note_on_c, 0, 56, 0
1, 569309, Note_on_c, 0, 37, 0
1, 569309, Note_on_c, 0, 49, 0
1, 569309, Note_on_c, 0, 49, 0
1, 571668, Note_on_c, 0, 56, 65
1, 571751, Note_on_c, 0, 61, 65
1, 571833, Control_c, 0, 64, 127
1, 571833, Control_c, 0, 64, 127
1, 571833, Note_on_c, 0, 64, 77
1, 572394, Note_on_c, 0, 64, 0
1, 572394, Note_on_c, 0, 61, 0
1, 572394, Note_on_c, 0, 56, 0
1, 572397, Note_on_c, 0, 49, 65
1, 572956, Note_on_c, 0, 85, 95
1, 573353, Note_on_c, 0, 56, 65
1, 573435, Note_on_c, 0, 60, 65
1, 573518, Note_on_c, 0, 49, 0
1, 573518, Note_on_c, 0, 66, 77
1, 573598, Control_c, 0, 64, 0
1, 573598, Control_c, 0, 64, 0
1, 573778, Control_c, 0, 64, 127
1, 573778, Control_c, 0, 64, 127
1, 574079, Note_on_c, 0, 66, 0
1, 574079, Note_on_c, 0, 60, 0
1, 574079, Note_on_c, 0, 56, 0
1, 574082, Note_on_c, 0, 51, 65
1, 574641, Note_on_c, 0, 80, 95
1, 574653, Note_on_c, 0, 85, 0
1, 575095, Note_on_c, 0, 56, 65
1, 575189, Note_on_c, 0, 61, 65
1, 575283, Note_on_c, 0, 51, 0
1, 575283, Note_on_c, 0, 68, 77
1, 575376, Control_c, 0, 64, 0
1, 575376, Control_c, 0, 64, 0
1, 575488, Control_c, 0, 64, 127
1, 575488, Control_c, 0, 64, 127
1, 575844, Note_on_c, 0, 52, 65
1, 576406, Note_on_c, 0, 78, 89
1, 576419, Note_on_c, 0, 80, 0
1, 576450, Control_c, 0, 64, 0
1, 576450, Control_c, 0, 64, 0
1, 576606, Control_c, 0, 64, 127
1, 576606, Control_c, 0, 64, 127
1, 576924, Note_on_c, 0, 76, 89
1, 576938, Note_on_c, 0, 78, 0
1, 577097, Note_on_c, 0, 52, 0
1, 577097, Note_on_c, 0, 76, 0
1, 577097, Note_on_c, 0, 76, 89
1, 577100, Note_on_c, 0, 61, 0
1, 577100, Note_on_c, 0, 56, 0
1, 577100, Note_on_c, 0, 68, 0
1, 577103, Note_on_c, 0, 61, 65
1, 577103, Note_on_c, 0, 63, 65
1, 577103, Note_on_c, 0, 69, 77
1, 577177, Control_c, 0, 64, 0
1, 577177, Control_c, 0, 64, 0
1, 577397, Control_c, 0, 64, 127
1, 577397, Control_c, 0, 64, 127
1, 577696, Note_on_c, 0, 54, 65
1, 578276, Control_c, 0, 64, 0
1, 578276, Control_c, 0, 64, 0
1, 578295, Note_on_c, 0, 75, 81
1, 578307, Note_on_c, 0, 76, 0
1, 578469, Control_c, 0, 64, 127
1, 578469, Control_c, 0, 64, 127
1, 578836, Control_c, 0, 64, 0
1, 578836, Control_c, 0, 64, 0
1, 578894, Note_on_c, 0, 54, 0
1, 578894, Note_on_c, 0, 61, 0
1, 578894, Note_on_c, 0, 75, 0
1, 578897, Note_on_c, 0, 69, 0
1, 578897, Note_on_c, 0, 63, 0
1, 578897, Note_on_c, 0, 61, 56
1, 578900, Note_on_c, 0, 64, 56
1, 578900, Note_on_c, 0, 70, 73
1, 579088, Control_c, 0, 64, 127
1, 579088, Control_c, 0, 64, 127
1, 579456, Note_on_c, 0, 55, 55
1, 579997, Control_c, 0, 64, 0
1, 579997, Control_c, 0, 64, 0
1, 580017, Note_on_c, 0, 73, 80
1, 580017, Note_on_c, 0, 69, 55
1, 580030, Note_on_c, 0, 70, 0
1, 580210, Control_c, 0, 64, 127
1, 580210, Control_c, 0, 64, 127
1, 580659, Note_on_c, 0, 55, 0
1, 580659, Note_on_c, 0, 61, 0
1, 580659, Note_on_c, 0, 64, 0
1, 580662, Note_on_c, 0, 60, 61
1, 580662, Note_on_c, 0, 63, 61
1, 580662, Note_on_c, 0, 68, 61
1, 580672, Note_on_c, 0, 69, 0
1, 580741, Control_c, 0, 64, 0
1, 580741, Control_c, 0, 64, 0
1, 580906, Control_c, 0, 64, 127
1, 580906, Control_c, 0, 64, 127
1, 581301, Note_on_c, 0, 56, 50
1, 581622, Control_c, 0, 64, 0
1, 581622, Note_on_c, 0, 72, 74
1, 581622, Control_c, 0, 64, 0
1, 581634, Note_on_c, 0, 73, 0
1, 581764, Control_c, 0, 64, 126
1, 581764, Control_c, 0, 64, 126
1, 581921, Note_on_c, 0, 76, 80
1, 581921, Note_on_c, 0, 66, 55
1, 581932, Note_on_c, 0, 68, 0
1, 582034, Control_c, 0, 64, 0
1, 582034, Control_c, 0, 64, 0
1, 582202, Note_on_c, 0, 75, 72
1, 582218, Note_on_c, 0, 76, 0
1, 582420, Control_c, 0, 64, 127
1, 582420, Control_c, 0, 64, 127
1, 582611, Note_on_c, 0, 72, 0
1, 582611, Note_on_c, 0, 75, 0
1, 582611, Control_c, 0, 64, 127
1, 582614, Note_on_c, 0, 56, 0
1, 582614, Note_on_c, 0, 60, 0
1, 582614, Control_c, 0, 64, 127
1, 582617, Note_on_c, 0, 63, 0
1, 582617, Note_on_c, 0, 64, 58
1, 582617, Note_on_c, 0, 61, 58
1, 582622, Note_on_c, 0, 66, 0
1, 582708, Control_c, 0, 64, 0
1, 582708, Control_c, 0, 64, 0
1, 583172, Note_on_c, 0, 61, 0
1, 583172, Note_on_c, 0, 73, 72
1, 583172, Note_on_c, 0, 57, 55
1, 583247, Control_c, 0, 64, 127
1, 583247, Control_c, 0, 64, 127
1, 584183, Control_c, 0, 64, 0
1, 584183, Control_c, 0, 64, 0
1, 584296, Note_on_c, 0, 57, 0
1, 584296, Note_on_c, 0, 73, 0
1, 584296, Note_on_c, 0, 64, 0
1, 584299, Note_on_c, 0, 61, 56
1, 584299, Note_on_c, 0, 64, 68
1, 584630, Control_c, 0, 64, 127
1, 584630, Control_c, 0, 64, 127
1, 584857, Note_on_c, 0, 64, 0
1, 584857, Note_on_c, 0, 61, 0
1, 584857, Note_on_c, 0, 79, 92
1, 584860, Note_on_c, 0, 56, 56
1, 585419, Note_on_c, 0, 56, 0
1, 585419, Note_on_c, 0, 52, 56
1, 585764, Note_on_c, 0, 80, 89
1, 585775, Note_on_c, 0, 79, 0
1, 586045, Note_on_c, 0, 80, 0
1, 586045, Control_c, 0, 64, 127
1, 586045, Note_on_c, 0, 80, 92
1, 586048, Note_on_c, 0, 52, 0
1, 586048, Control_c, 0, 64, 127
1, 586048, Note_on_c, 0, 56, 56
1, 586051, Note_on_c, 0, 60, 56
1, 586051, Note_on_c, 0, 66, 68
1, 586144, Control_c, 0, 64, 0
1, 586144, Control_c, 0, 64, 0
1, 586293, Control_c, 0, 64, 127
1, 586293, Control_c, 0, 64, 127
1, 586607, Note_on_c, 0, 51, 55
1, 587168, Control_c, 0, 64, 0
1, 587168, Note_on_c, 0, 72, 72
1, 587168, Control_c, 0, 64, 0
1, 587181, Note_on_c, 0, 80, 0
1, 587333, Control_c, 0, 64, 127
1, 587333, Control_c, 0, 64, 127
1, 587737, Control_c, 0, 64, 0
1, 587737, Control_c, 0, 64, 0
1, 587810, Note_on_c, 0, 51, 0
1, 587810, Note_on_c, 0, 56, 0
1, 587810, Note_on_c, 0, 72, 0
1, 587813, Note_on_c, 0, 66, 0
1, 587813, Note_on_c, 0, 60, 0
1, 587813, Note_on_c, 0, 56, 56
1, 587816, Note_on_c, 0, 60, 56
1, 587816, Note_on_c, 0, 66, 68
1, 588021, Control_c, 0, 64, 127
1, 588021, Control_c, 0, 64, 127
1, 588372, Note_on_c, 0, 44, 55
1, 588653, Note_on_c, 0, 75, 83
1, 588933, Note_on_c, 0, 81, 94
1, 588948, Note_on_c, 0, 75, 0
1, 589308, Note_on_c, 0, 80, 88
1, 589319, Note_on_c, 0, 81, 0
1, 589353, Control_c, 0, 64, 0
1, 589353, Control_c, 0, 64, 0
1, 589571, Control_c, 0, 64, 127
1, 589571, Control_c, 0, 64, 127
1, 589607, Note_on_c, 0, 44, 0
1, 589607, Note_on_c, 0, 60, 0
1, 589607, Note_on_c, 0, 56, 0
1, 589610, Note_on_c, 0, 66, 0
1, 589610, Note_on_c, 0, 56, 56
1, 589610, Note_on_c, 0, 61, 56
1, 589613, Note_on_c, 0, 64, 68
1, 589888, Note_on_c, 0, 78, 86
1, 589897, Note_on_c, 0, 80, 0
1, 589897, Control_c, 0, 64, 0
1, 589897, Control_c, 0, 64, 0
1, 590118, Control_c, 0, 64, 127
1, 590118, Control_c, 0, 64, 127
1, 590169, Note_on_c, 0, 52, 55
1, 590450, Note_on_c, 0, 76, 88
1, 590461, Note_on_c, 0, 78, 0
1, 590467, Control_c, 0, 64, 0
1, 590467, Control_c, 0, 64, 0
1, 590714, Control_c, 0, 64, 127
1, 590714, Control_c, 0, 64, 127
1, 590749, Note_on_c, 0, 85, 95
1, 590765, Note_on_c, 0, 76, 0
1, 591158, Note_on_c, 0, 75, 88
1, 591239, Control_c, 0, 64, 0
1, 591239, Control_c, 0, 64, 0
1, 591463, Control_c, 0, 64, 127
1, 591463, Control_c, 0, 64, 127
1, 591503, Note_on_c, 0, 52, 0
1, 591503, Note_on_c, 0, 56, 0
1, 591503, Note_on_c, 0, 85, 0
1, 591506, Note_on_c, 0, 64, 0
1, 591506, Note_on_c, 0, 61, 0
1, 591506, Note_on_c, 0, 56, 55
1, 591509, Note_on_c, 0, 61, 55
1, 591509, Note_on_c, 0, 64, 71
1, 591628, Control_c, 0, 64, 0
1, 591628, Control_c, 0, 64, 0
1, 591753, Control_c, 0, 64, 127
1, 591753, Control_c, 0, 64, 127
1, 591784, Note_on_c, 0, 75, 0
1, 591784, Note_on_c, 0, 75, 88
1, 592065, Note_on_c, 0, 44, 55
1, 592346, Note_on_c, 0, 73, 84
1, 592357, Note_on_c, 0, 75, 0
1, 592645, Note_on_c, 0, 80, 94
1, 592661, Note_on_c, 0, 73, 0
1, 592711, Control_c, 0, 64, 0
1, 592711, Control_c, 0, 64, 0
1, 592910, Control_c, 0, 64, 127
1, 592910, Control_c, 0, 64, 127
1, 593054, Note_on_c, 0, 73, 88
1, 593186, Note_on_c, 0, 51, 58
1, 593280, Note_on_c, 0, 60, 58
1, 593374, Note_on_c, 0, 44, 0
1, 593374, Note_on_c, 0, 56, 0
1, 593374, Note_on_c, 0, 61, 0
1, 593377, Note_on_c, 0, 64, 0
1, 593377, Note_on_c, 0, 68, 70
1, 593440, Control_c, 0, 64, 0
1, 593440, Control_c, 0, 64, 0
1, 593540, Control_c, 0, 64, 127
1, 593540, Control_c, 0, 64, 127
1, 593936, Note_on_c, 0, 39, 58
1, 594558, Control_c, 0, 64, 0
1, 594558, Control_c, 0, 64, 0
1, 594578, Note_on_c, 0, 80, 0
1, 594578, Note_on_c, 0, 72, 65
1, 594578, Note_on_c, 0, 80, 58
1, 594591, Note_on_c, 0, 73, 0
1, 594829, Control_c, 0, 64, 127
1, 594829, Control_c, 0, 64, 127
1, 595269, Note_on_c, 0, 72, 0
1, 595269, Note_on_c, 0, 80, 0
1, 595269, Control_c, 0, 64, 127
1, 595272, Note_on_c, 0, 51, 0
1, 595272, Note_on_c, 0, 39, 0
1, 595272, Control_c, 0, 64, 127
1, 595275, Note_on_c, 0, 60, 0
1, 595275, Note_on_c, 0, 68, 0
1, 595275, Note_on_c, 0, 61, 44
1, 595278, Note_on_c, 0, 63, 56
1, 595448, Control_c, 0, 64, 0
1, 595448, Control_c, 0, 64, 0
1, 595541, Note_on_c, 0, 67, 71
1, 595550, Control_c, 0, 64, 127
1, 595550, Control_c, 0, 64, 127
1, 595814, Note_on_c, 0, 72, 75
1, 595826, Note_on_c, 0, 67, 0
1, 596028, Note_on_c, 0, 61, 0
1, 596028, Note_on_c, 0, 63, 0
1, 596028, Note_on_c, 0, 75, 80
1, 596031, Note_on_c, 0, 39, 56
1, 596037, Note_on_c, 0, 72, 0
1, 596194, Note_on_c, 0, 79, 84
1, 596204, Note_on_c, 0, 75, 0
1, 596361, Note_on_c, 0, 84, 89
1, 596380, Note_on_c, 0, 79, 0
1, 596693, Note_on_c, 0, 91, 99
1, 597306, Note_on_c, 0, 82, 82
1, 597322, Note_on_c, 0, 84, 0
1, 597510, Note_on_c, 0, 39, 0
1, 597510, Note_on_c, 0, 82, 0
1, 597510, Note_on_c, 0, 82, 90
1, 597513, Note_on_c, 0, 61, 44
1, 597513, Note_on_c, 0, 63, 56
1, 597612, Control_c, 0, 64, 0
1, 597612, Control_c, 0, 64, 0
1, 597797, Control_c, 0, 64, 127
1, 597797, Control_c, 0, 64, 127
1, 598152, Note_on_c, 0, 44, 56
1, 598794, Note_on_c, 0, 80, 68
1, 598794, Note_on_c, 0, 92, 68
1, 598806, Note_on_c, 0, 82, 0
1, 598806, Note_on_c, 0, 91, 0
1, 598859, Control_c, 0, 64, 0
1, 598859, Control_c, 0, 64, 0
1, 599041, Control_c, 0, 64, 127
1, 599041, Control_c, 0, 64, 127
1, 599435, Note_on_c, 0, 63, 0
1, 599435, Note_on_c, 0, 44, 0
1, 599435, Note_on_c, 0, 61, 0
1, 599438, Note_on_c, 0, 60, 55
1, 599438, Note_on_c, 0, 63, 55
1, 599673, Control_c, 0, 64, 127
1, 599673, Control_c, 0, 64, 127
1, 599909, Control_c, 0, 64, 127
1, 599909, Control_c, 0, 64, 127
1, 600127, Note_on_c, 0, 92, 0
1, 600127, Note_on_c, 0, 80, 0
1, 600127, Note_on_c, 0, 32, 43
1, 601509, Note_on_c, 0, 32, 0
1, 601509, Note_on_c, 0, 60, 0
1, 601509, Note_on_c, 0, 63, 0
1, 601512, Note_on_c, 0, 56, 55
1, 601512, Note_on_c, 0, 61, 55
1, 601512, Note_on_c, 0, 64, 68
1, 601781, Control_c, 0, 64, 127
1, 601781, Control_c, 0, 64, 127
1, 602071, Note_on_c, 0, 49, 55
1, 602351, Note_on_c, 0, 84, 82
1, 602524, Note_on_c, 0, 84, 0
1, 602524, Note_on_c, 0, 85, 88
1, 602674, Note_on_c, 0, 85, 0
1, 602674, Note_on_c, 0, 87, 87
1, 602824, Note_on_c, 0, 87, 0
1, 602824, Note_on_c, 0, 85, 88
1, 602974, Note_on_c, 0, 85, 0
1, 602974, Note_on_c, 0, 92, 92
1, 603067, Control_c, 0, 64, 127
1, 603067, Control_c, 0, 64, 127
1, 603161, Note_on_c, 0, 92, 0
1, 603161, Note_on_c, 0, 80, 82
1, 603365, Note_on_c, 0, 80, 0
1, 603365, Control_c, 0, 64, 127
1, 603365, Control_c, 0, 64, 127
1, 603368, Note_on_c, 0, 49, 0
1, 603368, Note_on_c, 0, 56, 0
1, 603368, Note_on_c, 0, 61, 0
1, 603371, Note_on_c, 0, 64, 0
1, 603371, Note_on_c, 0, 56, 55
1, 603371, Note_on_c, 0, 60, 55
1, 603374, Note_on_c, 0, 66, 68
1, 603437, Control_c, 0, 64, 0
1, 603437, Control_c, 0, 64, 0
1, 603709, Control_c, 0, 64, 127
1, 603709, Control_c, 0, 64, 127
1, 603927, Note_on_c, 0, 51, 55
1, 604207, Note_on_c, 0, 79, 82
1, 604368, Note_on_c, 0, 79, 0
1, 604368, Note_on_c, 0, 80, 88
1, 604518, Note_on_c, 0, 80, 0
1, 604518, Note_on_c, 0, 81, 87
1, 604667, Note_on_c, 0, 81, 0
1, 604667, Note_on_c, 0, 80, 88
1, 604817, Note_on_c, 0, 80, 0
1, 604817, Note_on_c, 0, 87, 92
1, 605004, Note_on_c, 0, 87, 0
1, 605004, Note_on_c, 0, 75, 82
1, 605209, Note_on_c, 0, 75, 0
1, 605209, Control_c, 0, 64, 127
1, 605209, Control_c, 0, 64, 127
1, 605212, Note_on_c, 0, 51, 0
1, 605212, Note_on_c, 0, 56, 0
1, 605212, Note_on_c, 0, 60, 0
1, 605215, Note_on_c, 0, 66, 0
1, 605215, Note_on_c, 0, 56, 55
1, 605215, Note_on_c, 0, 61, 55
1, 605218, Note_on_c, 0, 68, 68
1, 605281, Control_c, 0, 64, 0
1, 605281, Control_c, 0, 64, 0
1, 605553, Control_c, 0, 64, 127
1, 605553, Control_c, 0, 64, 127
1, 605770, Note_on_c, 0, 52, 55
1, 606051, Note_on_c, 0, 72, 77
1, 606201, Note_on_c, 0, 72, 0
1, 606201, Note_on_c, 0, 73, 81
1, 606350, Note_on_c, 0, 73, 0
1, 606350, Note_on_c, 0, 75, 77
1, 606500, Note_on_c, 0, 75, 0
1, 606500, Note_on_c, 0, 73, 76
1, 606650, Note_on_c, 0, 73, 0
1, 606650, Note_on_c, 0, 80, 76
1, 606810, Note_on_c, 0, 80, 0
1, 606810, Note_on_c, 0, 68, 63
1, 607060, Note_on_c, 0, 68, 0
1, 607060, Control_c, 0, 64, 127
1, 607060, Control_c, 0, 64, 127
1, 607063, Note_on_c, 0, 52, 0
1, 607063, Note_on_c, 0, 56, 0
1, 607063, Note_on_c, 0, 61, 0
1, 607066, Note_on_c, 0, 68, 0
1, 607066, Note_on_c, 0, 56, 55
1, 607066, Note_on_c, 0, 59, 55
1, 607069, Note_on_c, 0, 64, 68
1, 607132, Control_c, 0, 64, 0
1, 607132, Control_c, 0, 64, 0
1, 607404, Control_c, 0, 64, 127
1, 607404, Control_c, 0, 64, 127
1, 607622, Note_on_c, 0, 50, 55
1, 607902, Note_on_c, 0, 67, 68
1, 608063, Note_on_c, 0, 68, 74
1, 608075, Note_on_c, 0, 67, 0
1, 608223, Note_on_c, 0, 69, 73
1, 608237, Note_on_c, 0, 68, 0
1, 608396, Note_on_c, 0, 68, 74
1, 608412, Note_on_c, 0, 69, 0
1, 608533, Control_c, 0, 64, 127
1, 608533, Control_c, 0, 64, 127
1, 608600, Note_on_c, 0, 76, 78
1, 608622, Note_on_c, 0, 68, 0
1, 608764, Control_c, 0, 64, 0
1, 608764, Control_c, 0, 64, 0
1, 608858, Control_c, 0, 64, 0
1, 608858, Control_c, 0, 64, 0
1, 608916, Note_on_c, 0, 76, 0
1, 609106, Note_on_c, 0, 64, 68
1, 609139, Control_c, 0, 64, 127
1, 609139, Control_c, 0, 64, 127
1, 609245, Control_c, 0, 64, 127
1, 609245, Control_c, 0, 64, 127
1, 609293, Note_on_c, 0, 50, 0
1, 609293, Note_on_c, 0, 76, 86
1, 609293, Note_on_c, 0, 71, 77
1, 609296, Note_on_c, 0, 64, 0
1, 609296, Note_on_c, 0, 56, 0
1, 609296, Note_on_c, 0, 59, 0
1, 609299, Note_on_c, 0, 37, 69
1, 609531, Control_c, 0, 64, 0
1, 609531, Control_c, 0, 64, 0
1, 609984, Note_on_c, 0, 69, 68
1, 609996, Note_on_c, 0, 71, 0
1, 610057, Control_c, 0, 64, 127
1, 610057, Control_c, 0, 64, 127
1, 610284, Note_on_c, 0, 56, 61
1, 610457, Note_on_c, 0, 56, 0
1, 610457, Note_on_c, 0, 57, 67
1, 610587, Control_c, 0, 64, 127
1, 610587, Control_c, 0, 64, 127
1, 610606, Note_on_c, 0, 57, 0
1, 610606, Note_on_c, 0, 59, 66
1, 610756, Note_on_c, 0, 59, 0
1, 610756, Note_on_c, 0, 57, 67
1, 610896, Note_on_c, 0, 57, 0
1, 610896, Note_on_c, 0, 64, 71
1, 611084, Note_on_c, 0, 64, 0
1, 611084, Note_on_c, 0, 52, 61
1, 611128, Note_on_c, 0, 69, 0
1, 611183, Control_c, 0, 64, 0
1, 611183, Control_c, 0, 64, 0
1, 611186, Note_on_c, 0, 69, 61
1, 611288, Note_on_c, 0, 64, 0
1, 611288, Note_on_c, 0, 76, 0
1, 611288, Note_on_c, 0, 81, 92
1, 611291, Note_on_c, 0, 37, 0
1, 611291, Note_on_c, 0, 52, 0
1, 611291, Note_on_c, 0, 74, 66
1, 611294, Note_on_c, 0, 35, 71
1, 611525, Control_c, 0, 64, 0
1, 611525, Control_c, 0, 64, 0
1, 611979, Note_on_c, 0, 68, 67
1, 611979, Note_on_c, 0, 80, 79
1, 611993, Note_on_c, 0, 69, 0
1, 611993, Note_on_c, 0, 81, 0
1, 612063, Control_c, 0, 64, 127
1, 612063, Control_c, 0, 64, 127
1, 612325, Note_on_c, 0, 63, 62
1, 612497, Note_on_c, 0, 63, 0
1, 612497, Note_on_c, 0, 64, 68
1, 612628, Control_c, 0, 64, 127
1, 612628, Control_c, 0, 64, 127
1, 612647, Note_on_c, 0, 64, 0
1, 612647, Note_on_c, 0, 66, 67
1, 612797, Note_on_c, 0, 66, 0
1, 612797, Note_on_c, 0, 64, 69
1, 612937, Note_on_c, 0, 64, 0
1, 612937, Note_on_c, 0, 71, 73
1, 613125, Note_on_c, 0, 71, 0
1, 613125, Note_on_c, 0, 59, 62
1, 613169, Note_on_c, 0, 74, 0
1, 613224, Control_c, 0, 64, 0
1, 613224, Control_c, 0, 64, 0
1, 613227, Note_on_c, 0, 74, 75
1, 613329, Note_on_c, 0, 80, 0
1, 613329, Note_on_c, 0, 68, 0
1, 613329, Note_on_c, 0, 86, 91
1, 613332, Note_on_c, 0, 35, 0
1, 613332, Note_on_c, 0, 59, 0
1, 613332, Note_on_c, 0, 79, 75
1, 613335, Note_on_c, 0, 33, 73
1, 613549, Control_c, 0, 64, 0
1, 613549, Control_c, 0, 64, 0
1, 613971, Note_on_c, 0, 73, 67
1, 613971, Note_on_c, 0, 85, 79
1, 613983, Note_on_c, 0, 74, 0
1, 613983, Note_on_c, 0, 86, 0
1, 614048, Control_c, 0, 64, 127
1, 614048, Control_c, 0, 64, 127
1, 614292, Note_on_c, 0, 60, 70
1, 614452, Note_on_c, 0, 60, 0
1, 614452, Note_on_c, 0, 61, 77
1, 614582, Control_c, 0, 64, 127
1, 614582, Control_c, 0, 64, 127
1, 614602, Note_on_c, 0, 61, 0
1, 614602, Note_on_c, 0, 62, 76
1, 614752, Note_on_c, 0, 62, 0
1, 614752, Note_on_c, 0, 61, 77
1, 614892, Note_on_c, 0, 61, 0
1, 614892, Note_on_c, 0, 69, 82
1, 615079, Note_on_c, 0, 69, 0
1, 615079, Note_on_c, 0, 57, 70
1, 615178, Control_c, 0, 64, 0
1, 615178, Control_c, 0, 64, 0
1, 615181, Note_on_c, 0, 76, 85
1, 615283, Note_on_c, 0, 79, 0
1, 615283, Note_on_c, 0, 73, 0
1, 615283, Note_on_c, 0, 85, 0
1, 615286, Note_on_c, 0, 33, 0
1, 615286, Note_on_c, 0, 88, 101
1, 615286, Note_on_c, 0, 81, 85
1, 615289, Note_on_c, 0, 57, 0
1, 615289, Note_on_c, 0, 36, 74
1, 615489, Control_c, 0, 64, 0
1, 615489, Control_c, 0, 64, 0
1, 615882, Note_on_c, 0, 75, 78
1, 615882, Note_on_c, 0, 87, 90
1, 615894, Note_on_c, 0, 76, 0
1, 615894, Note_on_c, 0, 88, 0
1, 615955, Control_c, 0, 64, 127
1, 615955, Control_c, 0, 64, 127
1, 616182, Note_on_c, 0, 55, 66
1, 616332, Note_on_c, 0, 55, 0
1, 616332, Note_on_c, 0, 56, 73
1, 616462, Control_c, 0, 64, 127
1, 616462, Control_c, 0, 64, 127
1, 616481, Note_on_c, 0, 56, 0
1, 616481, Note_on_c, 0, 57, 72
1, 616631, Note_on_c, 0, 57, 0
1, 616631, Note_on_c, 0, 56, 75
1, 616772, Note_on_c, 0, 56, 0
1, 616772, Note_on_c, 0, 63, 79
1, 616959, Note_on_c, 0, 63, 0
1, 616959, Note_on_c, 0, 51, 68
1, 617058, Control_c, 0, 64, 0
1, 617058, Control_c, 0, 64, 0
1, 617061, Note_on_c, 0, 78, 90
1, 617163, Note_on_c, 0, 75, 0
1, 617163, Note_on_c, 0, 81, 0
1, 617163, Note_on_c, 0, 87, 0
1, 617166, Note_on_c, 0, 80, 90
1, 617166, Note_on_c, 0, 85, 90
1, 617166, Note_on_c, 0, 90, 103
1, 617169, Note_on_c, 0, 36, 0
1, 617169, Note_on_c, 0, 51, 0
1, 617169, Note_on_c, 0, 37, 79
1, 617356, Control_c, 0, 64, 0
1, 617356, Control_c, 0, 64, 0
1, 617725, Note_on_c, 0, 78, 0
1, 617725, Note_on_c, 0, 85, 0
1, 617725, Note_on_c, 0, 76, 64
1, 617728, Note_on_c, 0, 80, 64
1, 617728, Note_on_c, 0, 85, 64
1, 617728, Note_on_c, 0, 88, 88
1, 617736, Note_on_c, 0, 80, 0
1, 617736, Note_on_c, 0, 90, 0
1, 617793, Control_c, 0, 64, 127
1, 617793, Control_c, 0, 64, 127
1, 618005, Note_on_c, 0, 55, 69
1, 618146, Note_on_c, 0, 55, 0
1, 618146, Note_on_c, 0, 56, 78
1, 618276, Control_c, 0, 64, 127
1, 618276, Control_c, 0, 64, 127
1, 618296, Note_on_c, 0, 56, 0
1, 618296, Note_on_c, 0, 57, 76
1, 618445, Note_on_c, 0, 57, 0
1, 618445, Note_on_c, 0, 56, 78
1, 618586, Note_on_c, 0, 56, 0
1, 618586, Note_on_c, 0, 61, 84
1, 618773, Note_on_c, 0, 61, 0
1, 618773, Note_on_c, 0, 49, 71
1, 618818, Note_on_c, 0, 80, 0
1, 618872, Control_c, 0, 64, 0
1, 618872, Control_c, 0, 64, 0
1, 618875, Note_on_c, 0, 80, 96
1, 618977, Note_on_c, 0, 85, 0
1, 618977, Note_on_c, 0, 76, 0
1, 618977, Note_on_c, 0, 88, 0
1, 618980, Note_on_c, 0, 85, 96
1, 618980, Note_on_c, 0, 88, 96
1, 618980, Note_on_c, 0, 92, 114
1, 618983, Note_on_c, 0, 37, 0
1, 618983, Note_on_c, 0, 49, 0
1, 618983, Note_on_c, 0, 33, 84
1, 619235, Control_c, 0, 64, 0
1, 619235, Control_c, 0, 64, 0
1, 619726, Note_on_c, 0, 85, 0
1, 619726, Note_on_c, 0, 88, 0
1, 619726, Note_on_c, 0, 78, 74
1, 619729, Note_on_c, 0, 85, 74
1, 619729, Note_on_c, 0, 88, 67
1, 619729, Note_on_c, 0, 90, 101
1, 619741, Note_on_c, 0, 80, 0
1, 619741, Note_on_c, 0, 92, 0
1, 619817, Control_c, 0, 64, 127
1, 619817, Control_c, 0, 64, 127
1, 620100, Note_on_c, 0, 53, 67
1, 620273, Note_on_c, 0, 53, 0
1, 620273, Note_on_c, 0, 54, 76
1, 620404, Control_c, 0, 64, 127
1, 620404, Control_c, 0, 64, 127
1, 620423, Note_on_c, 0, 54, 0
1, 620423, Note_on_c, 0, 56, 75
1, 620573, Note_on_c, 0, 56, 0
1, 620573, Note_on_c, 0, 54, 77
1, 620745, Note_on_c, 0, 54, 0
1, 620745, Note_on_c, 0, 61, 84
1, 620933, Note_on_c, 0, 61, 0
1, 620933, Note_on_c, 0, 49, 69
1, 621032, Control_c, 0, 64, 0
1, 621032, Control_c, 0, 64, 0
1, 621137, Note_on_c, 0, 88, 0
1, 621137, Note_on_c, 0, 78, 0
1, 621137, Note_on_c, 0, 85, 0
1, 621140, Note_on_c, 0, 90, 0
1, 621140, Note_on_c, 0, 69, 77
1, 621140, Note_on_c, 0, 75, 77
1, 621143, Note_on_c, 0, 49, 0
1, 621143, Note_on_c, 0, 33, 0
1, 621143, Note_on_c, 0, 78, 91
1, 621146, Note_on_c, 0, 35, 69
1, 621312, Control_c, 0, 64, 127
1, 621312, Control_c, 0, 64, 127
1, 621698, Note_on_c, 0, 78, 0
1, 621698, Note_on_c, 0, 75, 0
1, 621698, Note_on_c, 0, 69, 0
1, 621701, Note_on_c, 0, 73, 71
1, 621701, Note_on_c, 0, 75, 71
1, 621701, Note_on_c, 0, 81, 88
1, 621903, Note_on_c, 0, 81, 0
1, 621903, Note_on_c, 0, 75, 0
1, 621903, Note_on_c, 0, 73, 0
1, 621906, Note_on_c, 0, 71, 69
1, 621906, Note_on_c, 0, 75, 69
1, 621906, Note_on_c, 0, 80, 85
1, 621943, Control_c, 0, 64, 0
1, 621943, Control_c, 0, 64, 0
1, 622251, Control_c, 0, 64, 127
1, 622251, Control_c, 0, 64, 127
1, 622311, Note_on_c, 0, 51, 66
1, 622515, Note_on_c, 0, 51, 0
1, 622515, Note_on_c, 0, 56, 68
1, 622678, Control_c, 0, 64, 127
1, 622678, Control_c, 0, 64, 127
1, 622703, Note_on_c, 0, 56, 0
1, 622703, Note_on_c, 0, 59, 70
1, 622875, Note_on_c, 0, 59, 0
1, 622875, Note_on_c, 0, 63, 73
1, 623048, Note_on_c, 0, 63, 0
1, 623048, Note_on_c, 0, 68, 70
1, 623235, Note_on_c, 0, 68, 0
1, 623235, Note_on_c, 0, 71, 64
1, 623285, Control_c, 0, 64, 127
1, 623285, Control_c, 0, 64, 127
1, 623451, Note_on_c, 0, 75, 0
1, 623451, Note_on_c, 0, 71, 0
1, 623451, Control_c, 0, 64, 127
1, 623454, Note_on_c, 0, 80, 0
1, 623454, Note_on_c, 0, 66, 65
1, 623454, Note_on_c, 0, 71, 65
1, 623457, Note_on_c, 0, 35, 0
1, 623457, Note_on_c, 0, 75, 79
1, 623457, Control_c, 0, 64, 127
1, 623460, Note_on_c, 0, 71, 0
1, 623460, Note_on_c, 0, 40, 66
1, 623600, Control_c, 0, 64, 0
1, 623600, Control_c, 0, 64, 0
1, 623748, Control_c, 0, 64, 127
1, 623748, Control_c, 0, 64, 127
1, 624064, Note_on_c, 0, 71, 0
1, 624064, Note_on_c, 0, 75, 0
1, 624064, Note_on_c, 0, 66, 0
1, 624067, Note_on_c, 0, 69, 59
1, 624067, Note_on_c, 0, 71, 59
1, 624067, Note_on_c, 0, 78, 76
1, 624280, Note_on_c, 0, 78, 0
1, 624280, Note_on_c, 0, 71, 0
1, 624280, Note_on_c, 0, 69, 0
1, 624283, Note_on_c, 0, 68, 57
1, 624283, Note_on_c, 0, 71, 57
1, 624283, Note_on_c, 0, 76, 73
1, 624322, Control_c, 0, 64, 0
1, 624322, Control_c, 0, 64, 0
1, 624649, Control_c, 0, 64, 127
1, 624649, Control_c, 0, 64, 127
1, 624712, Note_on_c, 0, 52, 66
1, 625021, Control_c, 0, 64, 0
1, 625021, Control_c, 0, 64, 0
1, 625086, Note_on_c, 0, 76, 0
1, 625086, Note_on_c, 0, 71, 0
1, 625086, Note_on_c, 0, 68, 0
1, 625089, Note_on_c, 0, 40, 0
1, 625089, Note_on_c, 0, 51, 66
1, 625100, Note_on_c, 0, 52, 0
1, 625432, Note_on_c, 0, 49, 66
1, 625452, Note_on_c, 0, 51, 0
1, 625803, Control_c, 0, 64, 0
1, 625803, Control_c, 0, 64, 0
1, 625931, Note_on_c, 0, 56, 55
1, 625931, Note_on_c, 0, 63, 55
1, 625931, Note_on_c, 0, 66, 64
1, 625951, Note_on_c, 0, 49, 0
1, 626430, Note_on_c, 0, 81, 86
1, 626442, Control_c, 0, 64, 0
1, 626442, Control_c, 0, 64, 0
1, 626737, Control_c, 0, 64, 127
1, 626737, Control_c, 0, 64, 127
1, 626805, Note_on_c, 0, 48, 55
1, 627179, Note_on_c, 0, 80, 88
1, 627193, Note_on_c, 0, 81, 0
1, 627199, Control_c, 0, 64, 0
1, 627199, Control_c, 0, 64, 0
1, 627484, Control_c, 0, 64, 127
1, 627484, Control_c, 0, 64, 127
1, 627525, Note_on_c, 0, 87, 95
1, 627933, Note_on_c, 0, 87, 0
1, 627933, Note_on_c, 0, 80, 0
1, 627933, Note_on_c, 0, 78, 88
1, 628014, Control_c, 0, 64, 0
1, 628014, Control_c, 0, 64, 0
1, 628238, Control_c, 0, 64, 127
1, 628238, Control_c, 0, 64, 127
1, 628279, Note_on_c, 0, 48, 0
1, 628279, Control_c, 0, 64, 127
1, 628279, Control_c, 0, 64, 127
1, 628282, Note_on_c, 0, 56, 0
1, 628282, Note_on_c, 0, 66, 0
1, 628282, Note_on_c, 0, 63, 0
1, 628285, Note_on_c, 0, 56, 55
1, 628285, Note_on_c, 0, 61, 55
1, 628285, Note_on_c, 0, 66, 64
1, 628422, Control_c, 0, 64, 0
1, 628422, Control_c, 0, 64, 0
1, 628564, Control_c, 0, 64, 127
1, 628564, Control_c, 0, 64, 127
1, 628600, Note_on_c, 0, 78, 0
1, 628600, Note_on_c, 0, 78, 88
1, 628921, Note_on_c, 0, 49, 55
1, 629242, Note_on_c, 0, 76, 84
1, 629253, Note_on_c, 0, 78, 0
1, 629541, Note_on_c, 0, 75, 77
1, 629553, Note_on_c, 0, 76, 0
1, 629590, Control_c, 0, 64, 0
1, 629590, Control_c, 0, 64, 0
1, 629735, Control_c, 0, 64, 127
1, 629735, Control_c, 0, 64, 127
1, 629841, Note_on_c, 0, 73, 77
1, 629853, Note_on_c, 0, 75, 0
1, 630162, Note_on_c, 0, 49, 0
1, 630162, Control_c, 0, 64, 127
1, 630162, Control_c, 0, 64, 127
1, 630165, Note_on_c, 0, 56, 0
1, 630165, Note_on_c, 0, 66, 0
1, 630165, Note_on_c, 0, 61, 0
1, 630168, Note_on_c, 0, 56, 55
1, 630168, Note_on_c, 0, 61, 55
1, 630168, Note_on_c, 0, 66, 64
1, 630507, Note_on_c, 0, 73, 0
1, 630507, Note_on_c, 0, 73, 79
1, 630518, Control_c, 0, 64, 0
1, 630518, Control_c, 0, 64, 0
1, 630790, Control_c, 0, 64, 127
1, 630790, Control_c, 0, 64, 127
1, 630853, Note_on_c, 0, 51, 55
1, 631198, Note_on_c, 0, 72, 81
1, 631215, Note_on_c, 0, 73, 0
1, 631224, Control_c, 0, 64, 0
1, 631224, Control_c, 0, 64, 0
1, 631580, Control_c, 0, 64, 127
1, 631580, Control_c, 0, 64, 127
1, 631630, Note_on_c, 0, 78, 79
1, 632039, Note_on_c, 0, 78, 0
1, 632039, Note_on_c, 0, 72, 0
1, 632039, Note_on_c, 0, 69, 81
1, 632120, Control_c, 0, 64, 0
1, 632120, Control_c, 0, 64, 0
1, 632344, Control_c, 0, 64, 127
1, 632344, Control_c, 0, 64, 127
1, 632384, Note_on_c, 0, 51, 0
1, 632384, Control_c, 0, 64, 127
1, 632384, Control_c, 0, 64, 127
1, 632387, Note_on_c, 0, 56, 0
1, 632387, Note_on_c, 0, 66, 0
1, 632387, Note_on_c, 0, 61, 0
1, 632390, Note_on_c, 0, 56, 55
1, 632390, Note_on_c, 0, 60, 55
1, 632390, Note_on_c, 0, 66, 64
1, 632527, Control_c, 0, 64, 0
1, 632527, Control_c, 0, 64, 0
1, 632670, Control_c, 0, 64, 127
1, 632670, Control_c, 0, 64, 127
1, 632705, Note_on_c, 0, 69, 0
1, 632705, Note_on_c, 0, 69, 81
1, 633026, Note_on_c, 0, 44, 55
1, 633347, Note_on_c, 0, 68, 73
1, 633359, Note_on_c, 0, 69, 0
1, 633647, Note_on_c, 0, 67, 70
1, 633661, Note_on_c, 0, 68, 0
1, 633707, Control_c, 0, 64, 0
1, 633707, Control_c, 0, 64, 0
1, 633889, Control_c, 0, 64, 127
1, 633889, Control_c, 0, 64, 127
1, 634021, Note_on_c, 0, 66, 76
1, 634034, Note_on_c, 0, 67, 0
1, 634342, Note_on_c, 0, 44, 0
1, 634342, Control_c, 0, 64, 127
1, 634342, Control_c, 0, 64, 127
1, 634345, Note_on_c, 0, 56, 0
1, 634345, Note_on_c, 0, 66, 0
1, 634345, Note_on_c, 0, 60, 0
1, 634348, Note_on_c, 0, 61, 55
1, 634348, Note_on_c, 0, 64, 64
1, 634496, Control_c, 0, 64, 0
1, 634496, Control_c, 0, 64, 0
1, 634649, Control_c, 0, 64, 127
1, 634649, Control_c, 0, 64, 127
1, 634688, Note_on_c, 0, 66, 0
1, 634688, Note_on_c, 0, 66, 77
1, 635033, Note_on_c, 0, 49, 55
1, 635379, Note_on_c, 0, 66, 0
1, 635379, Note_on_c, 0, 64, 77
1, 635678, Note_on_c, 0, 73, 77
1, 635744, Control_c, 0, 64, 0
1, 635744, Control_c, 0, 64, 0
1, 635943, Control_c, 0, 64, 127
1, 635943, Control_c, 0, 64, 127
1, 636087, Note_on_c, 0, 73, 0
1, 636087, Note_on_c, 0, 64, 0
1, 636087, Note_on_c, 0, 63, 77
1, 636432, Note_on_c, 0, 49, 0
1, 636432, Control_c, 0, 64, 127
1, 636432, Control_c, 0, 64, 127
1, 636435, Note_on_c, 0, 61, 0
1, 636435, Note_on_c, 0, 64, 0
1, 636435, Note_on_c, 0, 56, 55
1, 636438, Note_on_c, 0, 61, 64
1, 636586, Control_c, 0, 64, 0
1, 636586, Control_c, 0, 64, 0
1, 636739, Control_c, 0, 64, 127
1, 636739, Control_c, 0, 64, 127
1, 636778, Note_on_c, 0, 63, 0
1, 636778, Note_on_c, 0, 63, 77
1, 637123, Note_on_c, 0, 44, 62
1, 637469, Note_on_c, 0, 61, 77
1, 637481, Note_on_c, 0, 63, 0
1, 637769, Note_on_c, 0, 59, 77
1, 637780, Note_on_c, 0, 61, 0
1, 637817, Control_c, 0, 64, 0
1, 637817, Control_c, 0, 64, 0
1, 637963, Control_c, 0, 64, 127
1, 637963, Control_c, 0, 64, 127
1, 638068, Note_on_c, 0, 57, 77
1, 638082, Note_on_c, 0, 59, 0
1, 638414, Note_on_c, 0, 56, 0
1, 638414, Control_c, 0, 64, 127
1, 638414, Control_c, 0, 64, 127
1, 638417, Note_on_c, 0, 61, 0
1, 638417, Note_on_c, 0, 49, 55
1, 638417, Note_on_c, 0, 52, 64
1, 638533, Control_c, 0, 64, 0
1, 638533, Control_c, 0, 64, 0
1, 638846, Note_on_c, 0, 56, 66
1, 638860, Note_on_c, 0, 57, 0
1, 639048, Control_c, 0, 64, 127
1, 639048, Control_c, 0, 64, 127
1, 639220, Note_on_c, 0, 44, 0
1, 639220, Note_on_c, 0, 37, 65
1, 639595, Note_on_c, 0, 57, 68
1, 639607, Note_on_c, 0, 56, 0
1, 639716, Control_c, 0, 64, 127
1, 639716, Control_c, 0, 64, 127
1, 639915, Note_on_c, 0, 59, 69
1, 639928, Note_on_c, 0, 57, 0
1, 640072, Control_c, 0, 64, 127
1, 640072, Control_c, 0, 64, 127
1, 640236, Note_on_c, 0, 60, 70
1, 640249, Note_on_c, 0, 59, 0
1, 640557, Control_c, 0, 64, 127
1, 640557, Control_c, 0, 64, 0
1, 640557, Control_c, 0, 64, 127
1, 640560, Note_on_c, 0, 52, 0
1, 640560, Note_on_c, 0, 49, 0
1, 640560, Control_c, 0, 64, 0
1, 640563, Note_on_c, 0, 49, 55
1, 640563, Note_on_c, 0, 52, 64
1, 640660, Control_c, 0, 64, 0
1, 640660, Control_c, 0, 64, 0
1, 640932, Note_on_c, 0, 63, 72
1, 640944, Note_on_c, 0, 60, 0
1, 641105, Control_c, 0, 64, 127
1, 641105, Control_c, 0, 64, 127
1, 641253, Note_on_c, 0, 37, 0
1, 641253, Note_on_c, 0, 35, 67
1, 641574, Note_on_c, 0, 61, 69
1, 641585, Note_on_c, 0, 63, 0
1, 641687, Control_c, 0, 64, 127
1, 641687, Control_c, 0, 64, 127
1, 641873, Note_on_c, 0, 60, 70
1, 641885, Note_on_c, 0, 61, 0
1, 642019, Control_c, 0, 64, 127
1, 642019, Control_c, 0, 64, 127
1, 642173, Note_on_c, 0, 61, 71
1, 642184, Note_on_c, 0, 60, 0
1, 642472, Control_c, 0, 64, 127
1, 642472, Control_c, 0, 64, 0
1, 642472, Control_c, 0, 64, 127
1, 642475, Note_on_c, 0, 52, 0
1, 642475, Note_on_c, 0, 49, 0
1, 642475, Control_c, 0, 64, 0
1, 642478, Note_on_c, 0, 49, 55
1, 642478, Note_on_c, 0, 52, 67
1, 642555, Control_c, 0, 64, 0
1, 642555, Control_c, 0, 64, 0
1, 642772, Note_on_c, 0, 61, 0
1, 642772, Note_on_c, 0, 63, 78
1, 642934, Control_c, 0, 64, 127
1, 642934, Control_c, 0, 64, 127
1, 643071, Note_on_c, 0, 35, 0
1, 643071, Note_on_c, 0, 33, 70
1, 643371, Note_on_c, 0, 64, 81
1, 643382, Note_on_c, 0, 63, 0
1, 643484, Control_c, 0, 64, 127
1, 643484, Control_c, 0, 64, 127
1, 643670, Note_on_c, 0, 68, 82
1, 643682, Note_on_c, 0, 64, 0
1, 643816, Control_c, 0, 64, 127
1, 643816, Control_c, 0, 64, 127
1, 643970, Note_on_c, 0, 73, 83
1, 643982, Note_on_c, 0, 68, 0
1, 644291, Control_c, 0, 64, 127
1, 644291, Control_c, 0, 64, 0
1, 644291, Control_c, 0, 64, 127
1, 644294, Note_on_c, 0, 52, 0
1, 644294, Note_on_c, 0, 49, 0
1, 644294, Control_c, 0, 64, 0
1, 644297, Note_on_c, 0, 49, 58
1, 644297, Note_on_c, 0, 52, 58
1, 644297, Note_on_c, 0, 61, 71
1, 644379, Control_c, 0, 64, 0
1, 644379, Control_c, 0, 64, 0
1, 644611, Note_on_c, 0, 75, 86
1, 644622, Note_on_c, 0, 73, 0
1, 644763, Control_c, 0, 64, 127
1, 644763, Control_c, 0, 64, 127
1, 644892, Note_on_c, 0, 33, 0
1, 644892, Note_on_c, 0, 32, 76
1, 645173, Note_on_c, 0, 73, 82
1, 645184, Note_on_c, 0, 75, 0
1, 645279, Control_c, 0, 64, 127
1, 645279, Control_c, 0, 64, 127
1, 645454, Note_on_c, 0, 72, 84
1, 645466, Note_on_c, 0, 73, 0
1, 645610, Control_c, 0, 64, 127
1, 645610, Control_c, 0, 64, 127
1, 645775, Note_on_c, 0, 73, 85
1, 645786, Note_on_c, 0, 72, 0
1, 646056, Control_c, 0, 64, 127
1, 646056, Control_c, 0, 64, 0
1, 646056, Control_c, 0, 64, 127
1, 646059, Note_on_c, 0, 49, 0
1, 646059, Note_on_c, 0, 52, 0
1, 646059, Control_c, 0, 64, 0
1, 646062, Note_on_c, 0, 61, 0
1, 646062, Note_on_c, 0, 49, 60
1, 646062, Note_on_c, 0, 52, 60
1, 646065, Note_on_c, 0, 61, 75
1, 646133, Control_c, 0, 64, 0
1, 646133, Control_c, 0, 64, 0
1, 646336, Note_on_c, 0, 75, 93
1, 646347, Note_on_c, 0, 73, 0
1, 646479, Control_c, 0, 64, 127
1, 646479, Control_c, 0, 64, 127
1, 646601, Note_on_c, 0, 32, 0
1, 646601, Note_on_c, 0, 30, 82
1, 646865, Note_on_c, 0, 76, 95
1, 646875, Note_on_c, 0, 75, 0
1, 646965, Control_c, 0, 64, 127
1, 646965, Control_c, 0, 64, 127
1, 647129, Note_on_c, 0, 80, 97
1, 647140, Note_on_c, 0, 76, 0
1, 647258, Control_c, 0, 64, 127
1, 647258, Control_c, 0, 64, 127
1, 647394, Note_on_c, 0, 85, 99
1, 647404, Note_on_c, 0, 80, 0
1, 647658, Control_c, 0, 64, 127
1, 647658, Control_c, 0, 64, 0
1, 647658, Control_c, 0, 64, 127
1, 647661, Note_on_c, 0, 49, 0
1, 647661, Note_on_c, 0, 52, 0
1, 647661, Control_c, 0, 64, 0
1, 647664, Note_on_c, 0, 61, 0
1, 647664, Note_on_c, 0, 49, 63
1, 647664, Note_on_c, 0, 52, 63
1, 647667, Note_on_c, 0, 61, 80
1, 647731, Control_c, 0, 64, 0
1, 647731, Control_c, 0, 64, 0
1, 647922, Note_on_c, 0, 87, 100
1, 647932, Note_on_c, 0, 85, 0
1, 648057, Control_c, 0, 64, 127
1, 648057, Control_c, 0, 64, 127
1, 648172, Note_on_c, 0, 30, 0
1, 648172, Note_on_c, 0, 28, 84
1, 648421, Note_on_c, 0, 85, 97
1, 648431, Note_on_c, 0, 87, 0
1, 648516, Control_c, 0, 64, 127
1, 648516, Control_c, 0, 64, 127
1, 648671, Note_on_c, 0, 84, 99
1, 648681, Note_on_c, 0, 85, 0
1, 648792, Control_c, 0, 64, 127
1, 648792, Control_c, 0, 64, 127
1, 648920, Note_on_c, 0, 85, 100
1, 648931, Note_on_c, 0, 84, 0
1, 649201, Control_c, 0, 64, 127
1, 649201, Control_c, 0, 64, 0
1, 649201, Control_c, 0, 64, 127
1, 649204, Note_on_c, 0, 49, 0
1, 649204, Note_on_c, 0, 52, 0
1, 649204, Control_c, 0, 64, 0
1, 649207, Note_on_c, 0, 61, 0
1, 649207, Note_on_c, 0, 49, 66
1, 649207, Note_on_c, 0, 52, 66
1, 649210, Note_on_c, 0, 61, 84
1, 649279, Control_c, 0, 64, 0
1, 649279, Control_c, 0, 64, 0
1, 649482, Note_on_c, 0, 87, 108
1, 649492, Note_on_c, 0, 85, 0
1, 649617, Control_c, 0, 64, 127
1, 649617, Control_c, 0, 64, 127
1, 649732, Note_on_c, 0, 28, 0
1, 649732, Note_on_c, 0, 33, 92
1, 649981, Note_on_c, 0, 88, 112
1, 649991, Note_on_c, 0, 87, 0
1, 650076, Control_c, 0, 64, 127
1, 650076, Control_c, 0, 64, 127
1, 650231, Note_on_c, 0, 92, 114
1, 650243, Note_on_c, 0, 88, 0
1, 650387, Control_c, 0, 64, 127
1, 650387, Control_c, 0, 64, 127
1, 650552, Note_on_c, 0, 97, 115
1, 650565, Note_on_c, 0, 92, 0
1, 650897, Control_c, 0, 64, 127
1, 650897, Control_c, 0, 64, 127
1, 650897, Control_c, 0, 64, 127
1, 650900, Control_c, 0, 64, 127
1, 650900, Control_c, 0, 64, 127
1, 650900, Control_c, 0, 64, 127
1, 650903, Note_on_c, 0, 49, 0
1, 650903, Note_on_c, 0, 52, 0
1, 650903, Note_on_c, 0, 61, 0
1, 650906, Note_on_c, 0, 51, 69
1, 650906, Note_on_c, 0, 55, 69
1, 650906, Note_on_c, 0, 61, 89
1, 650986, Control_c, 0, 64, 0
1, 650986, Control_c, 0, 64, 0
1, 650986, Control_c, 0, 64, 0
1, 650989, Control_c, 0, 64, 0
1, 650989, Control_c, 0, 64, 0
1, 650989, Control_c, 0, 64, 0
1, 651218, Note_on_c, 0, 99, 108
1, 651231, Note_on_c, 0, 97, 0
1, 651392, Control_c, 0, 64, 127
1, 651392, Control_c, 0, 64, 127
1, 651392, Control_c, 0, 64, 127
1, 651395, Control_c, 0, 64, 127
1, 651395, Control_c, 0, 64, 127
1, 651395, Control_c, 0, 64, 127
1, 651539, Note_on_c, 0, 33, 0
1, 651539, Note_on_c, 0, 39, 70
1, 651860, Note_on_c, 0, 97, 103
1, 651873, Note_on_c, 0, 99, 0
1, 651982, Control_c, 0, 64, 127
1, 651982, Control_c, 0, 64, 127
1, 651982, Control_c, 0, 64, 127
1, 651985, Control_c, 0, 64, 127
1, 652134, Control_c, 0, 64, 0
1, 652134, Control_c, 0, 64, 0
1, 652181, Note_on_c, 0, 96, 102
1, 652196, Note_on_c, 0, 97, 0
1, 652291, Control_c, 0, 64, 127
1, 652291, Control_c, 0, 64, 127
1, 652363, Control_c, 0, 64, 127
1, 652363, Control_c, 0, 64, 127
1, 652363, Control_c, 0, 64, 127
1, 652366, Control_c, 0, 64, 127
1, 652555, Note_on_c, 0, 97, 99
1, 652559, Control_c, 0, 64, 0
1, 652559, Control_c, 0, 64, 0
1, 652571, Note_on_c, 0, 96, 0
1, 652829, Control_c, 0, 64, 127
1, 652829, Control_c, 0, 64, 127
1, 652964, Note_on_c, 0, 39, 0
1, 652964, Control_c, 0, 64, 127
1, 652964, Control_c, 0, 64, 127
1, 652967, Note_on_c, 0, 51, 0
1, 652967, Note_on_c, 0, 55, 0
1, 652967, Note_on_c, 0, 61, 0
1, 652970, Note_on_c, 0, 51, 63
1, 652970, Note_on_c, 0, 56, 63
1, 652970, Note_on_c, 0, 60, 63
1, 652973, Note_on_c, 0, 66, 75
1, 653090, Control_c, 0, 64, 0
1, 653090, Control_c, 0, 64, 0
1, 653392, Control_c, 0, 64, 127
1, 653392, Control_c, 0, 64, 127
1, 653396, Note_on_c, 0, 89, 92
1, 653408, Note_on_c, 0, 97, 0
1, 653717, Note_on_c, 0, 44, 63
1, 654038, Note_on_c, 0, 87, 89
1, 654051, Note_on_c, 0, 89, 0
1, 654383, Note_on_c, 0, 85, 88
1, 654397, Note_on_c, 0, 87, 0
1, 654729, Note_on_c, 0, 84, 86
1, 654742, Note_on_c, 0, 85, 0
1, 655075, Control_c, 0, 64, 127
1, 655075, Note_on_c, 0, 82, 82
1, 655075, Control_c, 0, 64, 127
1, 655078, Note_on_c, 0, 51, 0
1, 655078, Note_on_c, 0, 44, 0
1, 655078, Note_on_c, 0, 56, 0
1, 655081, Note_on_c, 0, 66, 0
1, 655081, Note_on_c, 0, 60, 0
1, 655081, Note_on_c, 0, 51, 55
1, 655084, Note_on_c, 0, 56, 55
1, 655084, Note_on_c, 0, 60, 55
1, 655084, Note_on_c, 0, 66, 66
1, 655094, Note_on_c, 0, 84, 0
1, 655365, Control_c, 0, 64, 0
1, 655365, Control_c, 0, 64, 0
1, 655574, Note_on_c, 0, 81, 84
1, 655587, Note_on_c, 0, 82, 0
1, 655611, Control_c, 0, 64, 127
1, 655611, Control_c, 0, 64, 127
1, 655919, Note_on_c, 0, 80, 82
1, 655934, Note_on_c, 0, 81, 0
1, 656294, Note_on_c, 0, 75, 81
1, 656310, Note_on_c, 0, 80, 0
1, 656686, Control_c, 0, 64, 0
1, 656686, Control_c, 0, 64, 0
1, 656702, Note_on_c, 0, 80, 77
1, 656702, Note_on_c, 0, 52, 55
1, 656702, Note_on_c, 0, 64, 64
1, 656719, Note_on_c, 0, 66, 0
1, 656719, Note_on_c, 0, 51, 0
1, 656719, Note_on_c, 0, 75, 0
1, 656987, Control_c, 0, 64, 127
1, 656987, Control_c, 0, 64, 127
1, 657134, Note_on_c, 0, 76, 66
1, 657154, Note_on_c, 0, 80, 0
1, 657633, Control_c, 0, 64, 127
1, 657633, Control_c, 0, 64, 127
1, 657633, Note_on_c, 0, 61, 55
1, 657646, Note_on_c, 0, 60, 0
1, 658269, Control_c, 0, 64, 0
1, 658269, Control_c, 0, 64, 0
1, 658275, Note_on_c, 0, 76, 0
1, 658275, Note_on_c, 0, 49, 55
1, 658874, Note_on_c, 0, 85, 88
1, 659436, Note_on_c, 0, 49, 0
1, 659436, Control_c, 0, 64, 127
1, 659436, Control_c, 0, 64, 127
1, 659439, Note_on_c, 0, 52, 0
1, 659439, Note_on_c, 0, 56, 0
1, 659439, Note_on_c, 0, 61, 0
1, 659442, Note_on_c, 0, 64, 0
1, 659442, Note_on_c, 0, 56, 56
1, 659442, Note_on_c, 0, 60, 56
1, 659445, Note_on_c, 0, 66, 68
1, 659997, Note_on_c, 0, 51, 56
1, 660559, Note_on_c, 0, 85, 0
1, 660559, Note_on_c, 0, 80, 86
1, 661121, Note_on_c, 0, 56, 0
1, 661121, Note_on_c, 0, 51, 0
1, 661121, Note_on_c, 0, 60, 0
1, 661124, Note_on_c, 0, 66, 0
1, 661124, Note_on_c, 0, 56, 56
1, 661124, Note_on_c, 0, 61, 56
1, 661127, Note_on_c, 0, 68, 68
1, 661201, Control_c, 0, 64, 0
1, 661201, Control_c, 0, 64, 0
1, 661381, Control_c, 0, 64, 127
1, 661381, Control_c, 0, 64, 127
1, 661682, Note_on_c, 0, 52, 56
1, 662244, Note_on_c, 0, 78, 86
1, 662257, Note_on_c, 0, 80, 0
1, 662762, Note_on_c, 0, 78, 0
1, 662762, Note_on_c, 0, 76, 74
1, 663043, Note_on_c, 0, 56, 0
1, 663043, Note_on_c, 0, 52, 0
1, 663043, Note_on_c, 0, 61, 0
1, 663046, Note_on_c, 0, 68, 0
1, 663046, Note_on_c, 0, 56, 49
1, 663046, Note_on_c, 0, 59, 49
1, 663049, Note_on_c, 0, 64, 61
1, 663137, Control_c, 0, 64, 0
1, 663137, Control_c, 0, 64, 0
1, 663249, Control_c, 0, 64, 127
1, 663249, Control_c, 0, 64, 127
1, 663605, Note_on_c, 0, 76, 75
1, 663605, Note_on_c, 0, 50, 49
1, 663617, Note_on_c, 0, 76, 0
1, 664215, Control_c, 0, 64, 127
1, 664215, Control_c, 0, 64, 127
1, 664728, Note_on_c, 0, 76, 0
1, 664728, Note_on_c, 0, 68, 63
1, 664915, Note_on_c, 0, 50, 0
1, 664915, Note_on_c, 0, 76, 75
1, 664915, Note_on_c, 0, 71, 63
1, 664918, Note_on_c, 0, 59, 0
1, 664918, Note_on_c, 0, 56, 0
1, 664918, Note_on_c, 0, 64, 0
1, 664921, Note_on_c, 0, 37, 69
1, 665008, Control_c, 0, 64, 0
1, 665008, Control_c, 0, 64, 0
1, 665153, Control_c, 0, 64, 0
1, 665153, Control_c, 0, 64, 0
1, 665261, Control_c, 0, 64, 127
1, 665261, Control_c, 0, 64, 127
1, 665606, Note_on_c, 0, 71, 0
1, 665606, Note_on_c, 0, 69, 62
1, 665618, Note_on_c, 0, 68, 0
1, 665679, Control_c, 0, 64, 127
1, 665679, Control_c, 0, 64, 127
1, 665906, Note_on_c, 0, 56, 61
1, 666079, Note_on_c, 0, 56, 0
1, 666079, Note_on_c, 0, 57, 67
1, 666209, Control_c, 0, 64, 127
1, 666209, Control_c, 0, 64, 0
1, 666209, Control_c, 0, 64, 127
1, 666212, Control_c, 0, 64, 0
1, 666228, Note_on_c, 0, 57, 0
1, 666228, Note_on_c, 0, 59, 66
1, 666378, Note_on_c, 0, 59, 0
1, 666378, Note_on_c, 0, 57, 67
1, 666401, Control_c, 0, 64, 127
1, 666401, Control_c, 0, 64, 127
1, 666518, Note_on_c, 0, 57, 0
1, 666518, Note_on_c, 0, 64, 71
1, 666706, Note_on_c, 0, 64, 0
1, 666706, Note_on_c, 0, 52, 61
1, 666750, Note_on_c, 0, 69, 0
1, 666805, Control_c, 0, 64, 0
1, 666805, Control_c, 0, 64, 0
1, 666808, Note_on_c, 0, 69, 71
1, 666831, Control_c, 0, 64, 0
1, 666831, Control_c, 0, 64, 0
1, 666910, Note_on_c, 0, 76, 0
1, 666910, Note_on_c, 0, 81, 84
1, 666910, Note_on_c, 0, 74, 62
1, 666913, Note_on_c, 0, 52, 0
1, 666913, Note_on_c, 0, 37, 0
1, 666913, Note_on_c, 0, 35, 71
1, 667147, Control_c, 0, 64, 0
1, 667147, Control_c, 0, 64, 0
1, 667601, Note_on_c, 0, 68, 63
1, 667601, Note_on_c, 0, 80, 74
1, 667615, Note_on_c, 0, 69, 0
1, 667615, Note_on_c, 0, 81, 0
1, 667685, Control_c, 0, 64, 127
1, 667685, Control_c, 0, 64, 127
1, 667947, Note_on_c, 0, 63, 62
1, 668119, Note_on_c, 0, 63, 0
1, 668119, Note_on_c, 0, 64, 68
1, 668250, Control_c, 0, 64, 127
1, 668250, Control_c, 0, 64, 127
1, 668269, Note_on_c, 0, 64, 0
1, 668269, Note_on_c, 0, 66, 67
1, 668419, Note_on_c, 0, 66, 0
1, 668419, Note_on_c, 0, 64, 69
1, 668559, Note_on_c, 0, 64, 0
1, 668559, Note_on_c, 0, 71, 73
1, 668747, Note_on_c, 0, 71, 0
1, 668747, Note_on_c, 0, 59, 62
1, 668791, Note_on_c, 0, 74, 0
1, 668846, Control_c, 0, 64, 0
1, 668846, Control_c, 0, 64, 0
1, 668849, Note_on_c, 0, 74, 77
1, 668951, Note_on_c, 0, 80, 0
1, 668951, Note_on_c, 0, 68, 0
1, 668951, Note_on_c, 0, 86, 92
1, 668954, Note_on_c, 0, 35, 0
1, 668954, Note_on_c, 0, 59, 0
1, 668954, Note_on_c, 0, 79, 77
1, 668957, Note_on_c, 0, 33, 73
1, 669171, Control_c, 0, 64, 0
1, 669171, Control_c, 0, 64, 0
1, 669593, Note_on_c, 0, 73, 71
1, 669593, Note_on_c, 0, 85, 82
1, 669605, Note_on_c, 0, 74, 0
1, 669605, Note_on_c, 0, 86, 0
1, 669670, Control_c, 0, 64, 127
1, 669670, Control_c, 0, 64, 127
1, 669914, Note_on_c, 0, 60, 70
1, 670074, Note_on_c, 0, 60, 0
1, 670074, Note_on_c, 0, 61, 77
1, 670204, Control_c, 0, 64, 127
1, 670204, Control_c, 0, 64, 127
1, 670224, Note_on_c, 0, 61, 0
1, 670224, Note_on_c, 0, 62, 76
1, 670374, Note_on_c, 0, 62, 0
1, 670374, Note_on_c, 0, 61, 77
1, 670514, Note_on_c, 0, 61, 0
1, 670514, Note_on_c, 0, 69, 82
1, 670701, Note_on_c, 0, 69, 0
1, 670701, Note_on_c, 0, 57, 70
1, 670800, Control_c, 0, 64, 0
1, 670800, Control_c, 0, 64, 0
1, 670803, Note_on_c, 0, 76, 85
1, 670905, Note_on_c, 0, 79, 0
1, 670905, Note_on_c, 0, 73, 0
1, 670905, Note_on_c, 0, 85, 0
1, 670908, Note_on_c, 0, 33, 0
1, 670908, Note_on_c, 0, 88, 101
1, 670908, Note_on_c, 0, 81, 85
1, 670911, Note_on_c, 0, 57, 0
1, 670911, Note_on_c, 0, 36, 74
1, 671111, Control_c, 0, 64, 0
1, 671111, Control_c, 0, 64, 0
1, 671504, Note_on_c, 0, 75, 78
1, 671504, Note_on_c, 0, 87, 90
1, 671516, Note_on_c, 0, 76, 0
1, 671516, Note_on_c, 0, 88, 0
1, 671577, Control_c, 0, 64, 127
1, 671577, Control_c, 0, 64, 127
1, 671804, Note_on_c, 0, 55, 66
1, 671954, Note_on_c, 0, 55, 0
1, 671954, Note_on_c, 0, 56, 73
1, 672084, Control_c, 0, 64, 127
1, 672084, Control_c, 0, 64, 127
1, 672103, Note_on_c, 0, 56, 0
1, 672103, Note_on_c, 0, 57, 72
1, 672253, Note_on_c, 0, 57, 0
1, 672253, Note_on_c, 0, 56, 75
1, 672394, Note_on_c, 0, 56, 0
1, 672394, Note_on_c, 0, 63, 79
1, 672581, Note_on_c, 0, 63, 0
1, 672581, Note_on_c, 0, 51, 68
1, 672680, Control_c, 0, 64, 0
1, 672680, Control_c, 0, 64, 0
1, 672683, Note_on_c, 0, 78, 86
1, 672785, Note_on_c, 0, 75, 0
1, 672785, Note_on_c, 0, 81, 0
1, 672785, Note_on_c, 0, 87, 0
1, 672788, Note_on_c, 0, 80, 86
1, 672788, Note_on_c, 0, 85, 86
1, 672788, Note_on_c, 0, 90, 99
1, 672791, Note_on_c, 0, 36, 0
1, 672791, Note_on_c, 0, 51, 0
1, 672791, Note_on_c, 0, 37, 79
1, 672978, Control_c, 0, 64, 0
1, 672978, Control_c, 0, 64, 0
1, 673347, Note_on_c, 0, 78, 0
1, 673347, Note_on_c, 0, 85, 0
1, 673347, Note_on_c, 0, 76, 60
1, 673350, Note_on_c, 0, 80, 60
1, 673350, Note_on_c, 0, 85, 60
1, 673350, Note_on_c, 0, 88, 84
1, 673358, Note_on_c, 0, 80, 0
1, 673358, Note_on_c, 0, 90, 0
1, 673415, Control_c, 0, 64, 127
1, 673415, Control_c, 0, 64, 127
1, 673627, Note_on_c, 0, 55, 69
1, 673768, Note_on_c, 0, 55, 0
1, 673768, Note_on_c, 0, 56, 78
1, 673898, Control_c, 0, 64, 127
1, 673898, Control_c, 0, 64, 127
1, 673918, Note_on_c, 0, 56, 0
1, 673918, Note_on_c, 0, 57, 76
1, 674067, Note_on_c, 0, 57, 0
1, 674067, Note_on_c, 0, 56, 78
1, 674208, Note_on_c, 0, 56, 0
1, 674208, Note_on_c, 0, 61, 84
1, 674395, Note_on_c, 0, 61, 0
1, 674395, Note_on_c, 0, 49, 71
1, 674450, Note_on_c, 0, 80, 0
1, 674516, Control_c, 0, 64, 0
1, 674516, Control_c, 0, 64, 0
1, 674520, Note_on_c, 0, 80, 84
1, 674645, Note_on_c, 0, 85, 0
1, 674645, Note_on_c, 0, 76, 0
1, 674645, Note_on_c, 0, 88, 0
1, 674648, Note_on_c, 0, 85, 84
1, 674648, Note_on_c, 0, 88, 84
1, 674648, Note_on_c, 0, 92, 102
1, 674651, Note_on_c, 0, 37, 0
1, 674651, Note_on_c, 0, 49, 0
1, 674651, Note_on_c, 0, 33, 72
1, 674902, Control_c, 0, 64, 0
1, 674902, Control_c, 0, 64, 0
1, 675393, Note_on_c, 0, 85, 0
1, 675393, Note_on_c, 0, 88, 0
1, 675393, Note_on_c, 0, 78, 62
1, 675396, Note_on_c, 0, 85, 62
1, 675396, Note_on_c, 0, 88, 55
1, 675396, Note_on_c, 0, 90, 89
1, 675408, Note_on_c, 0, 80, 0
1, 675408, Note_on_c, 0, 92, 0
1, 675484, Control_c, 0, 64, 127
1, 675484, Control_c, 0, 64, 127
1, 675768, Note_on_c, 0, 53, 55
1, 675941, Note_on_c, 0, 53, 0
1, 675941, Note_on_c, 0, 54, 64
1, 676071, Control_c, 0, 64, 127
1, 676071, Control_c, 0, 64, 127
1, 676090, Note_on_c, 0, 54, 0
1, 676090, Note_on_c, 0, 56, 63
1, 676240, Note_on_c, 0, 56, 0
1, 676240, Note_on_c, 0, 54, 65
1, 676413, Note_on_c, 0, 54, 0
1, 676413, Note_on_c, 0, 61, 72
1, 676617, Note_on_c, 0, 61, 0
1, 676617, Note_on_c, 0, 49, 57
1, 676738, Control_c, 0, 64, 0
1, 676738, Control_c, 0, 64, 0
1, 676867, Note_on_c, 0, 88, 0
1, 676867, Note_on_c, 0, 78, 0
1, 676867, Note_on_c, 0, 85, 0
1, 676870, Note_on_c, 0, 90, 0
1, 676870, Note_on_c, 0, 66, 67
1, 676870, Note_on_c, 0, 72, 67
1, 676873, Note_on_c, 0, 49, 0
1, 676873, Note_on_c, 0, 33, 0
1, 676873, Note_on_c, 0, 75, 86
1, 676876, Note_on_c, 0, 32, 47
1, 677041, Control_c, 0, 64, 127
1, 677041, Control_c, 0, 64, 127
1, 677428, Note_on_c, 0, 75, 0
1, 677428, Note_on_c, 0, 72, 0
1, 677428, Note_on_c, 0, 66, 0
1, 677431, Note_on_c, 0, 69, 61
1, 677431, Note_on_c, 0, 72, 61
1, 677431, Note_on_c, 0, 78, 83
1, 677632, Note_on_c, 0, 78, 0
1, 677632, Note_on_c, 0, 72, 0
1, 677632, Note_on_c, 0, 69, 0
1, 677635, Note_on_c, 0, 68, 59
1, 677635, Note_on_c, 0, 72, 59
1, 677635, Note_on_c, 0, 76, 80
1, 677638, Note_on_c, 0, 32, 0
1, 677672, Control_c, 0, 64, 0
1, 677672, Control_c, 0, 64, 0
1, 677981, Control_c, 0, 64, 127
1, 677981, Control_c, 0, 64, 127
1, 678041, Note_on_c, 0, 48, 54
1, 678245, Note_on_c, 0, 48, 0
1, 678245, Note_on_c, 0, 52, 56
1, 678408, Control_c, 0, 64, 127
1, 678408, Control_c, 0, 64, 127
1, 678432, Note_on_c, 0, 52, 0
1, 678432, Note_on_c, 0, 56, 58
1, 678605, Note_on_c, 0, 56, 0
1, 678605, Note_on_c, 0, 60, 61
1, 678778, Note_on_c, 0, 60, 0
1, 678778, Note_on_c, 0, 64, 58
1, 678965, Note_on_c, 0, 64, 0
1, 678965, Note_on_c, 0, 68, 52
1, 679015, Control_c, 0, 64, 127
1, 679015, Control_c, 0, 64, 127
1, 679181, Note_on_c, 0, 68, 0
1, 679181, Note_on_c, 0, 72, 0
1, 679181, Control_c, 0, 64, 127
1, 679184, Note_on_c, 0, 76, 0
1, 679184, Note_on_c, 0, 63, 53
1, 679184, Note_on_c, 0, 68, 53
1, 679187, Note_on_c, 0, 68, 0
1, 679187, Note_on_c, 0, 72, 72
1, 679187, Control_c, 0, 64, 127
1, 679190, Note_on_c, 0, 37, 54
1, 679190, Note_on_c, 0, 44, 54
1, 679330, Control_c, 0, 64, 0
1, 679330, Control_c, 0, 64, 0
1, 679478, Control_c, 0, 64, 127
1, 679478, Control_c, 0, 64, 127
1, 679794, Note_on_c, 0, 72, 0
1, 679794, Note_on_c, 0, 63, 0
1, 679794, Note_on_c, 0, 68, 0
1, 679797, Note_on_c, 0, 66, 47
1, 679797, Note_on_c, 0, 68, 47
1, 679797, Note_on_c, 0, 75, 69
1, 680010, Note_on_c, 0, 75, 0
1, 680010, Note_on_c, 0, 66, 0
1, 680010, Note_on_c, 0, 68, 0
1, 680013, Note_on_c, 0, 64, 45
1, 680013, Note_on_c, 0, 68, 45
1, 680013, Note_on_c, 0, 73, 66
1, 680052, Control_c, 0, 64, 0
1, 680052, Control_c, 0, 64, 0
1, 680379, Control_c, 0, 64, 127
1, 680379, Control_c, 0, 64, 127
1, 680442, Note_on_c, 0, 37, 0
1, 680442, Note_on_c, 0, 44, 0
1, 680442, Note_on_c, 0, 52, 54
1, 680750, Control_c, 0, 64, 0
1, 680750, Control_c, 0, 64, 0
1, 680816, Note_on_c, 0, 51, 54
1, 680830, Note_on_c, 0, 52, 0
1, 681162, Note_on_c, 0, 49, 54
1, 681179, Note_on_c, 0, 51, 0
1, 681482, Control_c, 0, 64, 0
1, 681482, Control_c, 0, 64, 0
1, 681594, Note_on_c, 0, 68, 0
1, 681594, Note_on_c, 0, 73, 0
1, 681594, Note_on_c, 0, 64, 0
1, 681597, Note_on_c, 0, 56, 55
1, 681597, Note_on_c, 0, 63, 55
1, 681597, Note_on_c, 0, 66, 64
1, 681611, Note_on_c, 0, 49, 0
1, 682026, Note_on_c, 0, 81, 86
1, 682038, Control_c, 0, 64, 0
1, 682038, Control_c, 0, 64, 0
1, 682332, Control_c, 0, 64, 127
1, 682332, Control_c, 0, 64, 127
1, 682400, Note_on_c, 0, 48, 55
1, 682775, Note_on_c, 0, 80, 88
1, 682788, Note_on_c, 0, 81, 0
1, 682795, Control_c, 0, 64, 0
1, 682795, Control_c, 0, 64, 0
1, 683080, Control_c, 0, 64, 127
1, 683080, Control_c, 0, 64, 127
1, 683120, Note_on_c, 0, 87, 95
1, 683529, Note_on_c, 0, 87, 0
1, 683529, Note_on_c, 0, 80, 0
1, 683529, Note_on_c, 0, 78, 88
1, 683610, Control_c, 0, 64, 0
1, 683610, Control_c, 0, 64, 0
1, 683834, Control_c, 0, 64, 127
1, 683834, Control_c, 0, 64, 127
1, 683874, Note_on_c, 0, 48, 0
1, 683874, Control_c, 0, 64, 127
1, 683874, Control_c, 0, 64, 127
1, 683877, Note_on_c, 0, 56, 0
1, 683877, Note_on_c, 0, 66, 0
1, 683877, Note_on_c, 0, 63, 0
1, 683880, Note_on_c, 0, 56, 55
1, 683880, Note_on_c, 0, 61, 55
1, 683880, Note_on_c, 0, 66, 64
1, 684017, Control_c, 0, 64, 0
1, 684017, Control_c, 0, 64, 0
1, 684159, Control_c, 0, 64, 127
1, 684159, Control_c, 0, 64, 127
1, 684195, Note_on_c, 0, 78, 0
1, 684195, Note_on_c, 0, 78, 88
1, 684516, Note_on_c, 0, 49, 55
1, 684837, Note_on_c, 0, 76, 84
1, 684849, Note_on_c, 0, 78, 0
1, 685137, Note_on_c, 0, 75, 77
1, 685148, Note_on_c, 0, 76, 0
1, 685185, Control_c, 0, 64, 0
1, 685185, Control_c, 0, 64, 0
1, 685331, Control_c, 0, 64, 127
1, 685331, Control_c, 0, 64, 127
1, 685436, Note_on_c, 0, 73, 77
1, 685449, Note_on_c, 0, 75, 0
1, 685757, Note_on_c, 0, 49, 0
1, 685757, Control_c, 0, 64, 127
1, 685757, Control_c, 0, 64, 127
1, 685760, Note_on_c, 0, 56, 0
1, 685760, Note_on_c, 0, 66, 0
1, 685760, Note_on_c, 0, 61, 0
1, 685763, Note_on_c, 0, 56, 55
1, 685763, Note_on_c, 0, 61, 55
1, 685763, Note_on_c, 0, 66, 64
1, 686103, Note_on_c, 0, 73, 0
1, 686103, Note_on_c, 0, 73, 79
1, 686113, Control_c, 0, 64, 0
1, 686113, Control_c, 0, 64, 0
1, 686385, Control_c, 0, 64, 127
1, 686385, Control_c, 0, 64, 127
1, 686448, Note_on_c, 0, 51, 55
1, 686794, Note_on_c, 0, 72, 81
1, 686811, Note_on_c, 0, 73, 0
1, 686819, Control_c, 0, 64, 0
1, 686819, Control_c, 0, 64, 0
1, 687175, Control_c, 0, 64, 127
1, 687175, Control_c, 0, 64, 127
1, 687226, Note_on_c, 0, 78, 79
1, 687634, Note_on_c, 0, 78, 0
1, 687634, Note_on_c, 0, 72, 0
1, 687634, Note_on_c, 0, 69, 81
1, 687715, Control_c, 0, 64, 0
1, 687715, Control_c, 0, 64, 0
1, 687939, Control_c, 0, 64, 127
1, 687939, Control_c, 0, 64, 127
1, 687980, Note_on_c, 0, 51, 0
1, 687980, Control_c, 0, 64, 127
1, 687980, Control_c, 0, 64, 127
1, 687983, Note_on_c, 0, 56, 0
1, 687983, Note_on_c, 0, 66, 0
1, 687983, Note_on_c, 0, 61, 0
1, 687986, Note_on_c, 0, 56, 55
1, 687986, Note_on_c, 0, 60, 55
1, 687986, Note_on_c, 0, 66, 64
1, 688123, Control_c, 0, 64, 0
1, 688123, Control_c, 0, 64, 0
1, 688265, Control_c, 0, 64, 127
1, 688265, Control_c, 0, 64, 127
1, 688301, Note_on_c, 0, 69, 0
1, 688301, Note_on_c, 0, 69, 81
1, 688622, Note_on_c, 0, 44, 55
1, 688943, Note_on_c, 0, 68, 73
1, 688954, Note_on_c, 0, 69, 0
1, 689242, Note_on_c, 0, 67, 70
1, 689257, Note_on_c, 0, 68, 0
1, 689303, Control_c, 0, 64, 0
1, 689303, Control_c, 0, 64, 0
1, 689485, Control_c, 0, 64, 127
1, 689485, Control_c, 0, 64, 127
1, 689616, Note_on_c, 0, 66, 76
1, 689629, Note_on_c, 0, 67, 0
1, 689937, Note_on_c, 0, 44, 0
1, 689937, Control_c, 0, 64, 127
1, 689937, Control_c, 0, 64, 127
1, 689940, Note_on_c, 0, 56, 0
1, 689940, Note_on_c, 0, 66, 0
1, 689940, Note_on_c, 0, 60, 0
1, 689943, Note_on_c, 0, 61, 55
1, 689943, Note_on_c, 0, 64, 64
1, 690091, Control_c, 0, 64, 0
1, 690091, Control_c, 0, 64, 0
1, 690244, Control_c, 0, 64, 127
1, 690244, Control_c, 0, 64, 127
1, 690283, Note_on_c, 0, 66, 0
1, 690283, Note_on_c, 0, 66, 77
1, 690629, Note_on_c, 0, 49, 55
1, 690974, Note_on_c, 0, 66, 0
1, 690974, Note_on_c, 0, 64, 77
1, 691274, Note_on_c, 0, 73, 77
1, 691340, Control_c, 0, 64, 0
1, 691340, Control_c, 0, 64, 0
1, 691539, Control_c, 0, 64, 127
1, 691539, Control_c, 0, 64, 127
1, 691682, Note_on_c, 0, 73, 0
1, 691682, Note_on_c, 0, 64, 0
1, 691682, Note_on_c, 0, 63, 77
1, 692028, Note_on_c, 0, 49, 0
1, 692028, Control_c, 0, 64, 127
1, 692028, Control_c, 0, 64, 127
1, 692031, Note_on_c, 0, 61, 0
1, 692031, Note_on_c, 0, 64, 0
1, 692031, Note_on_c, 0, 56, 55
1, 692034, Note_on_c, 0, 61, 64
1, 692182, Control_c, 0, 64, 0
1, 692182, Control_c, 0, 64, 0
1, 692335, Control_c, 0, 64, 127
1, 692335, Control_c, 0, 64, 127
1, 692373, Note_on_c, 0, 63, 0
1, 692373, Note_on_c, 0, 63, 77
1, 692719, Note_on_c, 0, 44, 62
1, 693065, Note_on_c, 0, 61, 77
1, 693076, Note_on_c, 0, 63, 0
1, 693364, Note_on_c, 0, 59, 77
1, 693376, Note_on_c, 0, 61, 0
1, 693413, Control_c, 0, 64, 0
1, 693413, Control_c, 0, 64, 0
1, 693558, Control_c, 0, 64, 127
1, 693558, Control_c, 0, 64, 127
1, 693664, Note_on_c, 0, 57, 77
1, 693677, Note_on_c, 0, 59, 0
1, 694009, Note_on_c, 0, 56, 0
1, 694009, Control_c, 0, 64, 127
1, 694009, Control_c, 0, 64, 127
1, 694012, Note_on_c, 0, 61, 0
1, 694012, Note_on_c, 0, 49, 55
1, 694012, Note_on_c, 0, 52, 64
1, 694128, Control_c, 0, 64, 0
1, 694128, Control_c, 0, 64, 0
1, 694441, Note_on_c, 0, 56, 66
1, 694456, Note_on_c, 0, 57, 0
1, 694644, Control_c, 0, 64, 127
1, 694644, Control_c, 0, 64, 127
1, 694816, Note_on_c, 0, 44, 0
1, 694816, Note_on_c, 0, 37, 65
1, 695190, Note_on_c, 0, 57, 68
1, 695202, Note_on_c, 0, 56, 0
1, 695312, Control_c, 0, 64, 127
1, 695312, Control_c, 0, 64, 127
1, 695511, Note_on_c, 0, 59, 69
1, 695523, Note_on_c, 0, 57, 0
1, 695667, Control_c, 0, 64, 127
1, 695667, Control_c, 0, 64, 127
1, 695832, Note_on_c, 0, 60, 70
1, 695844, Note_on_c, 0, 59, 0
1, 696153, Control_c, 0, 64, 127
1, 696153, Control_c, 0, 64, 0
1, 696153, Control_c, 0, 64, 127
1, 696156, Note_on_c, 0, 52, 0
1, 696156, Note_on_c, 0, 49, 0
1, 696156, Control_c, 0, 64, 0
1, 696159, Note_on_c, 0, 49, 55
1, 696159, Note_on_c, 0, 52, 64
1, 696256, Control_c, 0, 64, 0
1, 696256, Control_c, 0, 64, 0
1, 696527, Note_on_c, 0, 63, 72
1, 696540, Note_on_c, 0, 60, 0
1, 696701, Control_c, 0, 64, 127
1, 696701, Control_c, 0, 64, 127
1, 696848, Note_on_c, 0, 37, 0
1, 696848, Note_on_c, 0, 35, 67
1, 697169, Note_on_c, 0, 61, 69
1, 697181, Note_on_c, 0, 63, 0
1, 697282, Control_c, 0, 64, 127
1, 697282, Control_c, 0, 64, 127
1, 697468, Note_on_c, 0, 60, 70
1, 697480, Note_on_c, 0, 61, 0
1, 697614, Control_c, 0, 64, 127
1, 697614, Control_c, 0, 64, 127
1, 697768, Note_on_c, 0, 61, 71
1, 697780, Note_on_c, 0, 60, 0
1, 698067, Control_c, 0, 64, 127
1, 698067, Control_c, 0, 64, 0
1, 698067, Control_c, 0, 64, 127
1, 698070, Note_on_c, 0, 52, 0
1, 698070, Note_on_c, 0, 49, 0
1, 698070, Control_c, 0, 64, 0
1, 698073, Note_on_c, 0, 49, 55
1, 698073, Note_on_c, 0, 52, 67
1, 698150, Control_c, 0, 64, 0
1, 698150, Control_c, 0, 64, 0
1, 698367, Note_on_c, 0, 61, 0
1, 698367, Note_on_c, 0, 63, 78
1, 698529, Control_c, 0, 64, 127
1, 698529, Control_c, 0, 64, 127
1, 698667, Note_on_c, 0, 35, 0
1, 698667, Note_on_c, 0, 33, 70
1, 698966, Note_on_c, 0, 64, 81
1, 698978, Note_on_c, 0, 63, 0
1, 699080, Control_c, 0, 64, 127
1, 699080, Control_c, 0, 64, 127
1, 699266, Note_on_c, 0, 68, 82
1, 699277, Note_on_c, 0, 64, 0
1, 699411, Control_c, 0, 64, 127
1, 699411, Control_c, 0, 64, 127
1, 699565, Note_on_c, 0, 73, 83
1, 699578, Note_on_c, 0, 68, 0
1, 699886, Control_c, 0, 64, 127
1, 699886, Control_c, 0, 64, 0
1, 699886, Control_c, 0, 64, 127
1, 699889, Note_on_c, 0, 52, 0
1, 699889, Note_on_c, 0, 49, 0
1, 699889, Control_c, 0, 64, 0
1, 699892, Note_on_c, 0, 49, 58
1, 699892, Note_on_c, 0, 52, 58
1, 699892, Note_on_c, 0, 61, 71
1, 699974, Control_c, 0, 64, 0
1, 699974, Control_c, 0, 64, 0
1, 700207, Note_on_c, 0, 75, 86
1, 700218, Note_on_c, 0, 73, 0
1, 700359, Control_c, 0, 64, 127
1, 700359, Control_c, 0, 64, 127
1, 700488, Note_on_c, 0, 33, 0
1, 700488, Note_on_c, 0, 32, 76
1, 700769, Note_on_c, 0, 73, 82
1, 700779, Note_on_c, 0, 75, 0
1, 700875, Control_c, 0, 64, 127
1, 700875, Control_c, 0, 64, 127
1, 701049, Note_on_c, 0, 72, 84
1, 701062, Note_on_c, 0, 73, 0
1, 701205, Control_c, 0, 64, 127
1, 701205, Control_c, 0, 64, 127
1, 701370, Note_on_c, 0, 73, 85
1, 701381, Note_on_c, 0, 72, 0
1, 701651, Control_c, 0, 64, 127
1, 701651, Control_c, 0, 64, 0
1, 701651, Control_c, 0, 64, 127
1, 701654, Note_on_c, 0, 49, 0
1, 701654, Note_on_c, 0, 52, 0
1, 701654, Control_c, 0, 64, 0
1, 701657, Note_on_c, 0, 61, 0
1, 701657, Note_on_c, 0, 49, 60
1, 701657, Note_on_c, 0, 52, 60
1, 701660, Note_on_c, 0, 61, 75
1, 701728, Control_c, 0, 64, 0
1, 701728, Control_c, 0, 64, 0
1, 701932, Note_on_c, 0, 75, 93
1, 701942, Note_on_c, 0, 73, 0
1, 702075, Control_c, 0, 64, 127
1, 702075, Control_c, 0, 64, 127
1, 702196, Note_on_c, 0, 32, 0
1, 702196, Note_on_c, 0, 30, 82
1, 702460, Note_on_c, 0, 76, 95
1, 702471, Note_on_c, 0, 75, 0
1, 702561, Control_c, 0, 64, 127
1, 702561, Control_c, 0, 64, 127
1, 702725, Note_on_c, 0, 80, 97
1, 702735, Note_on_c, 0, 76, 0
1, 702853, Control_c, 0, 64, 127
1, 702853, Control_c, 0, 64, 127
1, 702989, Note_on_c, 0, 85, 99
1, 702999, Note_on_c, 0, 80, 0
1, 703253, Control_c, 0, 64, 127
1, 703253, Control_c, 0, 64, 0
1, 703253, Control_c, 0, 64, 127
1, 703256, Note_on_c, 0, 49, 0
1, 703256, Note_on_c, 0, 52, 0
1, 703256, Control_c, 0, 64, 0
1, 703259, Note_on_c, 0, 61, 0
1, 703259, Note_on_c, 0, 49, 63
1, 703259, Note_on_c, 0, 52, 63
1, 703262, Note_on_c, 0, 61, 80
1, 703326, Control_c, 0, 64, 0
1, 703326, Control_c, 0, 64, 0
1, 703518, Note_on_c, 0, 87, 100
1, 703527, Note_on_c, 0, 85, 0
1, 703653, Control_c, 0, 64, 127
1, 703653, Control_c, 0, 64, 127
1, 703767, Note_on_c, 0, 30, 0
1, 703767, Note_on_c, 0, 28, 84
1, 704017, Note_on_c, 0, 85, 97
1, 704026, Note_on_c, 0, 87, 0
1, 704111, Control_c, 0, 64, 127
1, 704111, Control_c, 0, 64, 127
1, 704266, Note_on_c, 0, 84, 99
1, 704276, Note_on_c, 0, 85, 0
1, 704388, Control_c, 0, 64, 127
1, 704388, Control_c, 0, 64, 127
1, 704516, Note_on_c, 0, 85, 100
1, 704527, Note_on_c, 0, 84, 0
1, 704797, Control_c, 0, 64, 127
1, 704797, Control_c, 0, 64, 0
1, 704797, Control_c, 0, 64, 127
1, 704800, Note_on_c, 0, 49, 0
1, 704800, Note_on_c, 0, 52, 0
1, 704800, Control_c, 0, 64, 0
1, 704803, Note_on_c, 0, 61, 0
1, 704803, Note_on_c, 0, 49, 66
1, 704803, Note_on_c, 0, 52, 66
1, 704806, Note_on_c, 0, 61, 84
1, 704874, Control_c, 0, 64, 0
1, 704874, Control_c, 0, 64, 0
1, 705078, Note_on_c, 0, 87, 108
1, 705087, Note_on_c, 0, 85, 0
1, 705213, Control_c, 0, 64, 127
1, 705213, Control_c, 0, 64, 127
1, 705327, Note_on_c, 0, 28, 0
1, 705327, Note_on_c, 0, 33, 92
1, 705577, Note_on_c, 0, 88, 112
1, 705586, Note_on_c, 0, 87, 0
1, 705671, Control_c, 0, 64, 127
1, 705671, Control_c, 0, 64, 127
1, 705826, Note_on_c, 0, 92, 114
1, 705839, Note_on_c, 0, 88, 0
1, 705982, Control_c, 0, 64, 127
1, 705982, Control_c, 0, 64, 127
1, 706147, Note_on_c, 0, 97, 115
1, 706161, Note_on_c, 0, 92, 0
1, 706493, Control_c, 0, 64, 127
1, 706493, Control_c, 0, 64, 127
1, 706493, Control_c, 0, 64, 127
1, 706496, Control_c, 0, 64, 127
1, 706496, Control_c, 0, 64, 127
1, 706496, Control_c, 0, 64, 127
1, 706499, Note_on_c, 0, 49, 0
1, 706499, Note_on_c, 0, 52, 0
1, 706499, Note_on_c, 0, 61, 0
1, 706502, Note_on_c, 0, 51, 69
1, 706502, Note_on_c, 0, 55, 69
1, 706502, Note_on_c, 0, 61, 89
1, 706581, Control_c, 0, 64, 0
1, 706581, Control_c, 0, 64, 0
1, 706581, Control_c, 0, 64, 0
1, 706584, Control_c, 0, 64, 0
1, 706584, Control_c, 0, 64, 0
1, 706584, Control_c, 0, 64, 0
1, 706814, Note_on_c, 0, 99, 108
1, 706826, Note_on_c, 0, 97, 0
1, 706987, Control_c, 0, 64, 127
1, 706987, Control_c, 0, 64, 127
1, 706987, Control_c, 0, 64, 127
1, 706990, Control_c, 0, 64, 127
1, 706990, Control_c, 0, 64, 127
1, 706990, Control_c, 0, 64, 127
1, 707135, Note_on_c, 0, 33, 0
1, 707135, Note_on_c, 0, 39, 70
1, 707456, Note_on_c, 0, 97, 103
1, 707468, Note_on_c, 0, 99, 0
1, 707577, Control_c, 0, 64, 127
1, 707577, Control_c, 0, 64, 127
1, 707577, Control_c, 0, 64, 127
1, 707580, Control_c, 0, 64, 127
1, 707729, Control_c, 0, 64, 0
1, 707729, Control_c, 0, 64, 0
1, 707776, Note_on_c, 0, 96, 102
1, 707791, Note_on_c, 0, 97, 0
1, 707886, Control_c, 0, 64, 127
1, 707886, Control_c, 0, 64, 127
1, 707959, Control_c, 0, 64, 127
1, 707959, Control_c, 0, 64, 127
1, 707959, Control_c, 0, 64, 127
1, 707962, Control_c, 0, 64, 127
1, 708151, Note_on_c, 0, 97, 99
1, 708155, Control_c, 0, 64, 0
1, 708155, Control_c, 0, 64, 0
1, 708167, Note_on_c, 0, 96, 0
1, 708424, Control_c, 0, 64, 127
1, 708424, Control_c, 0, 64, 127
1, 708559, Note_on_c, 0, 39, 0
1, 708559, Control_c, 0, 64, 127
1, 708559, Control_c, 0, 64, 127
1, 708562, Note_on_c, 0, 51, 0
1, 708562, Note_on_c, 0, 55, 0
1, 708562, Note_on_c, 0, 61, 0
1, 708565, Note_on_c, 0, 51, 63
1, 708565, Note_on_c, 0, 56, 63
1, 708565, Note_on_c, 0, 60, 63
1, 708568, Note_on_c, 0, 66, 75
1, 708685, Control_c, 0, 64, 0
1, 708685, Control_c, 0, 64, 0
1, 708987, Control_c, 0, 64, 127
1, 708987, Control_c, 0, 64, 127
1, 708991, Note_on_c, 0, 89, 92
1, 709004, Note_on_c, 0, 97, 0
1, 709312, Note_on_c, 0, 44, 63
1, 709633, Note_on_c, 0, 87, 89
1, 709647, Note_on_c, 0, 89, 0
1, 709979, Note_on_c, 0, 85, 88
1, 709992, Note_on_c, 0, 87, 0
1, 710324, Note_on_c, 0, 84, 86
1, 710338, Note_on_c, 0, 85, 0
1, 710670, Control_c, 0, 64, 127
1, 710670, Note_on_c, 0, 82, 82
1, 710670, Control_c, 0, 64, 127
1, 710673, Note_on_c, 0, 51, 0
1, 710673, Note_on_c, 0, 44, 0
1, 710673, Note_on_c, 0, 56, 0
1, 710676, Note_on_c, 0, 66, 0
1, 710676, Note_on_c, 0, 60, 0
1, 710676, Note_on_c, 0, 51, 55
1, 710679, Note_on_c, 0, 56, 55
1, 710679, Note_on_c, 0, 60, 55
1, 710679, Note_on_c, 0, 66, 66
1, 710689, Note_on_c, 0, 84, 0
1, 710960, Control_c, 0, 64, 0
1, 710960, Control_c, 0, 64, 0
1, 711169, Note_on_c, 0, 81, 84
1, 711183, Note_on_c, 0, 82, 0
1, 711206, Control_c, 0, 64, 127
1, 711206, Control_c, 0, 64, 127
1, 711515, Note_on_c, 0, 80, 82
1, 711529, Note_on_c, 0, 81, 0
1, 711889, Note_on_c, 0, 75, 81
1, 711905, Note_on_c, 0, 80, 0
1, 712282, Control_c, 0, 64, 0
1, 712282, Control_c, 0, 64, 0
1, 712298, Note_on_c, 0, 80, 77
1, 712298, Note_on_c, 0, 52, 55
1, 712298, Note_on_c, 0, 64, 64
1, 712314, Note_on_c, 0, 66, 0
1, 712314, Note_on_c, 0, 51, 0
1, 712314, Note_on_c, 0, 75, 0
1, 712583, Control_c, 0, 64, 127
1, 712583, Control_c, 0, 64, 127
1, 712730, Note_on_c, 0, 76, 66
1, 712749, Note_on_c, 0, 80, 0
1, 713229, Control_c, 0, 64, 127
1, 713229, Control_c, 0, 64, 127
1, 713229, Note_on_c, 0, 61, 55
1, 713241, Note_on_c, 0, 60, 0
1, 713864, Control_c, 0, 64, 0
1, 713864, Control_c, 0, 64, 0
1, 713871, Note_on_c, 0, 76, 0
1, 713871, Note_on_c, 0, 49, 55
1, 714470, Note_on_c, 0, 85, 88
1, 715031, Note_on_c, 0, 49, 0
1, 715031, Control_c, 0, 64, 127
1, 715031, Control_c, 0, 64, 127
1, 715034, Note_on_c, 0, 52, 0
1, 715034, Note_on_c, 0, 56, 0
1, 715034, Note_on_c, 0, 61, 0
1, 715037, Note_on_c, 0, 64, 0
1, 715037, Note_on_c, 0, 56, 56
1, 715037, Note_on_c, 0, 60, 56
1, 715040, Note_on_c, 0, 66, 68
1, 715593, Note_on_c, 0, 51, 56
1, 716154, Note_on_c, 0, 85, 0
1, 716154, Note_on_c, 0, 80, 86
1, 716716, Note_on_c, 0, 56, 0
1, 716716, Note_on_c, 0, 51, 0
1, 716716, Note_on_c, 0, 60, 0
1, 716719, Note_on_c, 0, 66, 0
1, 716719, Note_on_c, 0, 56, 56
1, 716719, Note_on_c, 0, 61, 56
1, 716722, Note_on_c, 0, 68, 68
1, 716796, Control_c, 0, 64, 0
1, 716796, Control_c, 0, 64, 0
1, 716977, Control_c, 0, 64, 127
1, 716977, Control_c, 0, 64, 127
1, 717278, Note_on_c, 0, 52, 56
1, 717839, Note_on_c, 0, 78, 86
1, 717853, Note_on_c, 0, 80, 0
1, 718358, Note_on_c, 0, 78, 0
1, 718358, Note_on_c, 0, 76, 74
1, 718638, Note_on_c, 0, 56, 0
1, 718638, Note_on_c, 0, 52, 0
1, 718638, Note_on_c, 0, 61, 0
1, 718641, Note_on_c, 0, 68, 0
1, 718641, Note_on_c, 0, 56, 49
1, 718641, Note_on_c, 0, 59, 49
1, 718644, Note_on_c, 0, 64, 61
1, 718732, Control_c, 0, 64, 0
1, 718732, Control_c, 0, 64, 0
1, 718844, Control_c, 0, 64, 127
1, 718844, Control_c, 0, 64, 127
1, 719200, Note_on_c, 0, 76, 75
1, 719200, Note_on_c, 0, 50, 49
1, 719213, Note_on_c, 0, 76, 0
1, 719811, Control_c, 0, 64, 127
1, 719811, Control_c, 0, 64, 127
1, 720323, Note_on_c, 0, 76, 0
1, 720323, Note_on_c, 0, 68, 63
1, 720510, Note_on_c, 0, 50, 0
1, 720510, Note_on_c, 0, 76, 75
1, 720510, Note_on_c, 0, 71, 63
1, 720513, Note_on_c, 0, 59, 0
1, 720513, Note_on_c, 0, 56, 0
1, 720513, Note_on_c, 0, 64, 0
1, 720516, Note_on_c, 0, 37, 69
1, 720603, Control_c, 0, 64, 0
1, 720603, Control_c, 0, 64, 0
1, 720748, Control_c, 0, 64, 0
1, 720748, Control_c, 0, 64, 0
1, 720856, Control_c, 0, 64, 127
1, 720856, Control_c, 0, 64, 127
1, 721202, Note_on_c, 0, 71, 0
1, 721202, Note_on_c, 0, 69, 62
1, 721213, Note_on_c, 0, 68, 0
1, 721274, Control_c, 0, 64, 127
1, 721274, Control_c, 0, 64, 127
1, 721501, Note_on_c, 0, 56, 61
1, 721674, Note_on_c, 0, 56, 0
1, 721674, Note_on_c, 0, 57, 67
1, 721804, Control_c, 0, 64, 127
1, 721804, Control_c, 0, 64, 0
1, 721804, Control_c, 0, 64, 127
1, 721807, Control_c, 0, 64, 0
1, 721824, Note_on_c, 0, 57, 0
1, 721824, Note_on_c, 0, 59, 66
1, 721973, Note_on_c, 0, 59, 0
1, 721973, Note_on_c, 0, 57, 67
1, 721996, Control_c, 0, 64, 127
1, 721996, Control_c, 0, 64, 127
1, 722114, Note_on_c, 0, 57, 0
1, 722114, Note_on_c, 0, 64, 71
1, 722301, Note_on_c, 0, 64, 0
1, 722301, Note_on_c, 0, 52, 61
1, 722346, Note_on_c, 0, 69, 0
1, 722400, Control_c, 0, 64, 0
1, 722400, Control_c, 0, 64, 0
1, 722403, Note_on_c, 0, 69, 71
1, 722426, Control_c, 0, 64, 0
1, 722426, Control_c, 0, 64, 0
1, 722505, Note_on_c, 0, 76, 0
1, 722505, Note_on_c, 0, 81, 84
1, 722505, Note_on_c, 0, 74, 62
1, 722508, Note_on_c, 0, 52, 0
1, 722508, Note_on_c, 0, 37, 0
1, 722508, Note_on_c, 0, 35, 71
1, 722743, Control_c, 0, 64, 0
1, 722743, Control_c, 0, 64, 0
1, 723196, Note_on_c, 0, 68, 63
1, 723196, Note_on_c, 0, 80, 74
1, 723210, Note_on_c, 0, 69, 0
1, 723210, Note_on_c, 0, 81, 0
1, 723280, Control_c, 0, 64, 127
1, 723280, Control_c, 0, 64, 127
1, 723542, Note_on_c, 0, 63, 62
1, 723715, Note_on_c, 0, 63, 0
1, 723715, Note_on_c, 0, 64, 68
1, 723845, Control_c, 0, 64, 127
1, 723845, Control_c, 0, 64, 127
1, 723865, Note_on_c, 0, 64, 0
1, 723865, Note_on_c, 0, 66, 67
1, 724014, Note_on_c, 0, 66, 0
1, 724014, Note_on_c, 0, 64, 69
1, 724155, Note_on_c, 0, 64, 0
1, 724155, Note_on_c, 0, 71, 73
1, 724342, Note_on_c, 0, 71, 0
1, 724342, Note_on_c, 0, 59, 62
1, 724387, Note_on_c, 0, 74, 0
1, 724441, Control_c, 0, 64, 0
1, 724441, Control_c, 0, 64, 0
1, 724444, Note_on_c, 0, 74, 77
1, 724546, Note_on_c, 0, 80, 0
1, 724546, Note_on_c, 0, 68, 0
1, 724546, Note_on_c, 0, 86, 92
1, 724549, Note_on_c, 0, 35, 0
1, 724549, Note_on_c, 0, 59, 0
1, 724549, Note_on_c, 0, 79, 77
1, 724552, Note_on_c, 0, 33, 73
1, 724767, Control_c, 0, 64, 0
1, 724767, Control_c, 0, 64, 0
1, 725188, Note_on_c, 0, 73, 71
1, 725188, Note_on_c, 0, 85, 82
1, 725201, Note_on_c, 0, 74, 0
1, 725201, Note_on_c, 0, 86, 0
1, 725266, Control_c, 0, 64, 127
1, 725266, Control_c, 0, 64, 127
1, 725509, Note_on_c, 0, 60, 70
1, 725669, Note_on_c, 0, 60, 0
1, 725669, Note_on_c, 0, 61, 77
1, 725800, Control_c, 0, 64, 127
1, 725800, Control_c, 0, 64, 127
1, 725819, Note_on_c, 0, 61, 0
1, 725819, Note_on_c, 0, 62, 76
1, 725969, Note_on_c, 0, 62, 0
1, 725969, Note_on_c, 0, 61, 77
1, 726109, Note_on_c, 0, 61, 0
1, 726109, Note_on_c, 0, 69, 82
1, 726297, Note_on_c, 0, 69, 0
1, 726297, Note_on_c, 0, 57, 70
1, 726395, Control_c, 0, 64, 0
1, 726395, Control_c, 0, 64, 0
1, 726399, Note_on_c, 0, 76, 85
1, 726501, Note_on_c, 0, 79, 0
1, 726501, Note_on_c, 0, 73, 0
1, 726501, Note_on_c, 0, 85, 0
1, 726504, Note_on_c, 0, 33, 0
1, 726504, Note_on_c, 0, 88, 101
1, 726504, Note_on_c, 0, 81, 85
1, 726507, Note_on_c, 0, 57, 0
1, 726507, Note_on_c, 0, 36, 74
1, 726707, Control_c, 0, 64, 0
1, 726707, Control_c, 0, 64, 0
1, 727100, Note_on_c, 0, 75, 78
1, 727100, Note_on_c, 0, 87, 90
1, 727112, Note_on_c, 0, 76, 0
1, 727112, Note_on_c, 0, 88, 0
1, 727172, Control_c, 0, 64, 127
1, 727172, Control_c, 0, 64, 127
1, 727399, Note_on_c, 0, 55, 66
1, 727549, Note_on_c, 0, 55, 0
1, 727549, Note_on_c, 0, 56, 73
1, 727680, Control_c, 0, 64, 127
1, 727680, Control_c, 0, 64, 127
1, 727699, Note_on_c, 0, 56, 0
1, 727699, Note_on_c, 0, 57, 72
1, 727849, Note_on_c, 0, 57, 0
1, 727849, Note_on_c, 0, 56, 75
1, 727989, Note_on_c, 0, 56, 0
1, 727989, Note_on_c, 0, 63, 79
1, 728176, Note_on_c, 0, 63, 0
1, 728176, Note_on_c, 0, 51, 68
1, 728275, Control_c, 0, 64, 0
1, 728275, Control_c, 0, 64, 0
1, 728278, Note_on_c, 0, 78, 86
1, 728380, Note_on_c, 0, 75, 0
1, 728380, Note_on_c, 0, 81, 0
1, 728380, Note_on_c, 0, 87, 0
1, 728383, Note_on_c, 0, 80, 86
1, 728383, Note_on_c, 0, 85, 86
1, 728383, Note_on_c, 0, 90, 99
1, 728386, Note_on_c, 0, 36, 0
1, 728386, Note_on_c, 0, 51, 0
1, 728386, Note_on_c, 0, 37, 79
1, 728573, Control_c, 0, 64, 0
1, 728573, Control_c, 0, 64, 0
1, 728942, Note_on_c, 0, 78, 0
1, 728942, Note_on_c, 0, 85, 0
1, 728942, Note_on_c, 0, 76, 60
1, 728945, Note_on_c, 0, 80, 60
1, 728945, Note_on_c, 0, 85, 60
1, 728945, Note_on_c, 0, 88, 84
1, 728953, Note_on_c, 0, 80, 0
1, 728953, Note_on_c, 0, 90, 0
1, 729010, Control_c, 0, 64, 127
1, 729010, Control_c, 0, 64, 127
1, 729223, Note_on_c, 0, 55, 69
1, 729363, Note_on_c, 0, 55, 0
1, 729363, Note_on_c, 0, 56, 78
1, 729494, Control_c, 0, 64, 127
1, 729494, Control_c, 0, 64, 127
1, 729513, Note_on_c, 0, 56, 0
1, 729513, Note_on_c, 0, 57, 76
1, 729663, Note_on_c, 0, 57, 0
1, 729663, Note_on_c, 0, 56, 78
1, 729803, Note_on_c, 0, 56, 0
1, 729803, Note_on_c, 0, 61, 84
1, 729990, Note_on_c, 0, 61, 0
1, 729990, Note_on_c, 0, 49, 71
1, 730045, Note_on_c, 0, 80, 0
1, 730111, Control_c, 0, 64, 0
1, 730111, Control_c, 0, 64, 0
1, 730115, Note_on_c, 0, 80, 84
1, 730240, Note_on_c, 0, 85, 0
1, 730240, Note_on_c, 0, 76, 0
1, 730240, Note_on_c, 0, 88, 0
1, 730243, Note_on_c, 0, 85, 84
1, 730243, Note_on_c, 0, 88, 84
1, 730243, Note_on_c, 0, 92, 102
1, 730246, Note_on_c, 0, 37, 0
1, 730246, Note_on_c, 0, 49, 0
1, 730246, Note_on_c, 0, 33, 72
1, 730497, Control_c, 0, 64, 0
1, 730497, Control_c, 0, 64, 0
1, 730989, Note_on_c, 0, 85, 0
1, 730989, Note_on_c, 0, 88, 0
1, 730989, Note_on_c, 0, 78, 62
1, 730992, Note_on_c, 0, 85, 62
1, 730992, Note_on_c, 0, 88, 55
1, 730992, Note_on_c, 0, 90, 89
1, 731003, Note_on_c, 0, 80, 0
1, 731003, Note_on_c, 0, 92, 0
1, 731079, Control_c, 0, 64, 127
1, 731079, Control_c, 0, 64, 127
1, 731363, Note_on_c, 0, 53, 55
1, 731536, Note_on_c, 0, 53, 0
1, 731536, Note_on_c, 0, 54, 64
1, 731666, Control_c, 0, 64, 127
1, 731666, Control_c, 0, 64, 127
1, 731686, Note_on_c, 0, 54, 0
1, 731686, Note_on_c, 0, 56, 63
1, 731835, Note_on_c, 0, 56, 0
1, 731835, Note_on_c, 0, 54, 65
1, 732008, Note_on_c, 0, 54, 0
1, 732008, Note_on_c, 0, 61, 72
1, 732212, Note_on_c, 0, 61, 0
1, 732212, Note_on_c, 0, 49, 57
1, 732333, Control_c, 0, 64, 0
1, 732333, Control_c, 0, 64, 0
1, 732462, Note_on_c, 0, 88, 0
1, 732462, Note_on_c, 0, 78, 0
1, 732462, Note_on_c, 0, 85, 0
1, 732465, Note_on_c, 0, 90, 0
1, 732465, Note_on_c, 0, 66, 67
1, 732465, Note_on_c, 0, 72, 67
1, 732468, Note_on_c, 0, 49, 0
1, 732468, Note_on_c, 0, 33, 0
1, 732468, Note_on_c, 0, 75, 86
1, 732471, Note_on_c, 0, 32, 47
1, 732637, Control_c, 0, 64, 127
1, 732637, Control_c, 0, 64, 127
1, 733024, Note_on_c, 0, 75, 0
1, 733024, Note_on_c, 0, 72, 0
1, 733024, Note_on_c, 0, 66, 0
1, 733027, Note_on_c, 0, 69, 61
1, 733027, Note_on_c, 0, 72, 61
1, 733027, Note_on_c, 0, 78, 83
1, 733228, Note_on_c, 0, 78, 0
1, 733228, Note_on_c, 0, 72, 0
1, 733228, Note_on_c, 0, 69, 0
1, 733231, Note_on_c, 0, 68, 59
1, 733231, Note_on_c, 0, 72, 59
1, 733231, Note_on_c, 0, 76, 80
1, 733234, Note_on_c, 0, 32, 0
1, 733268, Control_c, 0, 64, 0
1, 733268, Control_c, 0, 64, 0
1, 733577, Control_c, 0, 64, 127
1, 733577, Control_c, 0, 64, 127
1, 733636, Note_on_c, 0, 48, 54
1, 733841, Note_on_c, 0, 48, 0
1, 733841, Note_on_c, 0, 52, 56
1, 734004, Control_c, 0, 64, 127
1, 734004, Control_c, 0, 64, 127
1, 734028, Note_on_c, 0, 52, 0
1, 734028, Note_on_c, 0, 56, 58
1, 734201, Note_on_c, 0, 56, 0
1, 734201, Note_on_c, 0, 60, 61
1, 734373, Note_on_c, 0, 60, 0
1, 734373, Note_on_c, 0, 64, 58
1, 734561, Note_on_c, 0, 64, 0
1, 734561, Note_on_c, 0, 68, 52
1, 734610, Control_c, 0, 64, 127
1, 734610, Control_c, 0, 64, 127
1, 734777, Note_on_c, 0, 68, 0
1, 734777, Note_on_c, 0, 72, 0
1, 734777, Control_c, 0, 64, 127
1, 734780, Note_on_c, 0, 76, 0
1, 734780, Note_on_c, 0, 63, 53
1, 734780, Note_on_c, 0, 68, 53
1, 734783, Note_on_c, 0, 68, 0
1, 734783, Note_on_c, 0, 72, 72
1, 734783, Control_c, 0, 64, 127
1, 734786, Note_on_c, 0, 37, 54
1, 734786, Note_on_c, 0, 44, 54
1, 734981, Control_c, 0, 64, 0
1, 734981, Control_c, 0, 64, 0
1, 735185, Control_c, 0, 64, 127
1, 735185, Control_c, 0, 64, 127
1, 735619, Note_on_c, 0, 72, 0
1, 735619, Note_on_c, 0, 63, 0
1, 735619, Note_on_c, 0, 68, 0
1, 735622, Note_on_c, 0, 66, 47
1, 735622, Note_on_c, 0, 68, 47
1, 735622, Note_on_c, 0, 75, 69
1, 735940, Note_on_c, 0, 75, 0
1, 735940, Note_on_c, 0, 66, 0
1, 735940, Note_on_c, 0, 68, 0
1, 735943, Note_on_c, 0, 64, 45
1, 735943, Note_on_c, 0, 68, 45
1, 735943, Note_on_c, 0, 73, 66
1, 736003, Control_c, 0, 64, 0
1, 736003, Control_c, 0, 64, 0
1, 736488, Control_c, 0, 64, 127
1, 736488, Control_c, 0, 64, 127
1, 737111, Control_c, 0, 64, 0
1, 737111, Control_c, 0, 64, 0
1, 737224, Note_on_c, 0, 37, 0
1, 737224, Note_on_c, 0, 44, 0
1, 738342, Control_c, 0, 64, 0
1, 738342, Control_c, 0, 64, 0
1, 738507, Note_on_c, 0, 68, 0
1, 738507, Note_on_c, 0, 64, 0
1, 738507, Note_on_c, 0, 73, 0
1, 738510, Note_on_c, 0, 56, 99
1, 738510, Note_on_c, 0, 59, 111
1, 738510, Note_on_c, 0, 40, 102
1, 738513, Note_on_c, 0, 47, 93
1, 738530, Control_c, 0, 64, 127
1, 738530, Control_c, 0, 64, 127
1, 738668, Note_on_c, 0, 59, 0
1, 738668, Note_on_c, 0, 56, 0
1, 738668, Control_c, 0, 64, 127
1, 738671, Note_on_c, 0, 56, 99
1, 738671, Note_on_c, 0, 59, 111
1, 738671, Control_c, 0, 64, 127
1, 738674, Note_on_c, 0, 40, 0
1, 738674, Note_on_c, 0, 47, 0
1, 738674, Note_on_c, 0, 40, 108
1, 738677, Note_on_c, 0, 47, 99
1, 738705, Control_c, 0, 64, 0
1, 738705, Control_c, 0, 64, 0
1, 738763, Control_c, 0, 64, 0
1, 738763, Control_c, 0, 64, 0
1, 738828, Note_on_c, 0, 55, 99
1, 738828, Note_on_c, 0, 46, 93
1, 738930, Note_on_c, 0, 46, 0
1, 738930, Note_on_c, 0, 55, 0
1, 738930, Note_on_c, 0, 56, 99
1, 738933, Note_on_c, 0, 47, 93
1, 739032, Note_on_c, 0, 59, 0
1, 739032, Note_on_c, 0, 56, 0
1, 739032, Note_on_c, 0, 61, 99
1, 739035, Note_on_c, 0, 56, 0
1, 739035, Note_on_c, 0, 40, 0
1, 739035, Note_on_c, 0, 68, 111
1, 739038, Note_on_c, 0, 47, 0
1, 739038, Note_on_c, 0, 52, 108
1, 739038, Note_on_c, 0, 57, 99
1, 739041, Note_on_c, 0, 47, 0
1, 739088, Control_c, 0, 64, 127
1, 739088, Control_c, 0, 64, 127
1, 739157, Note_on_c, 0, 68, 0
1, 739157, Note_on_c, 0, 61, 0
1, 739157, Note_on_c, 0, 61, 99
1, 739160, Note_on_c, 0, 52, 0
1, 739160, Note_on_c, 0, 57, 0
1, 739160, Note_on_c, 0, 68, 111
1, 739163, Note_on_c, 0, 52, 108
1, 739163, Note_on_c, 0, 57, 99
1, 739257, Control_c, 0, 64, 0
1, 739257, Control_c, 0, 64, 0
1, 739282, Note_on_c, 0, 60, 99
1, 739282, Note_on_c, 0, 56, 93
1, 739384, Note_on_c, 0, 56, 0
1, 739384, Note_on_c, 0, 60, 0
1, 739384, Note_on_c, 0, 61, 99
1, 739387, Note_on_c, 0, 57, 93
1, 739455, Control_c, 0, 64, 0
1, 739455, Control_c, 0, 64, 0
1, 739486, Note_on_c, 0, 61, 0
1, 739486, Note_on_c, 0, 68, 0
1, 739486, Note_on_c, 0, 57, 99
1, 739489, Note_on_c, 0, 61, 0
1, 739489, Note_on_c, 0, 63, 99
1, 739489, Note_on_c, 0, 66, 111
1, 739492, Note_on_c, 0, 57, 0
1, 739492, Note_on_c, 0, 52, 0
1, 739492, Note_on_c, 0, 40, 108
1, 739495, Note_on_c, 0, 57, 0
1, 739495, Note_on_c, 0, 47, 99
1, 739534, Control_c, 0, 64, 127
1, 739534, Control_c, 0, 64, 127
1, 739611, Note_on_c, 0, 63, 0
1, 739611, Note_on_c, 0, 57, 0
1, 739611, Control_c, 0, 64, 127
1, 739614, Note_on_c, 0, 66, 0
1, 739614, Note_on_c, 0, 56, 99
1, 739614, Note_on_c, 0, 64, 111
1, 739617, Note_on_c, 0, 40, 0
1, 739617, Note_on_c, 0, 47, 0
1, 739617, Control_c, 0, 64, 127
1, 739620, Note_on_c, 0, 40, 108
1, 739620, Note_on_c, 0, 47, 99
1, 739640, Control_c, 0, 64, 0
1, 739640, Control_c, 0, 64, 0
1, 739667, Control_c, 0, 64, 0
1, 739667, Control_c, 0, 64, 0
1, 739736, Note_on_c, 0, 55, 99
1, 739736, Note_on_c, 0, 46, 93
1, 739838, Note_on_c, 0, 46, 0
1, 739838, Note_on_c, 0, 55, 0
1, 739838, Note_on_c, 0, 56, 99
1, 739841, Note_on_c, 0, 47, 93
1, 739940, Note_on_c, 0, 64, 0
1, 739940, Note_on_c, 0, 56, 0
1, 739940, Note_on_c, 0, 61, 99
1, 739943, Note_on_c, 0, 56, 0
1, 739943, Note_on_c, 0, 40, 0
1, 739943, Note_on_c, 0, 68, 111
1, 739946, Note_on_c, 0, 47, 0
1, 739946, Note_on_c, 0, 52, 108
1, 739946, Note_on_c, 0, 57, 99
1, 739949, Note_on_c, 0, 47, 0
1, 739996, Control_c, 0, 64, 127
1, 739996, Control_c, 0, 64, 127
1, 740065, Note_on_c, 0, 68, 0
1, 740065, Note_on_c, 0, 61, 0
1, 740065, Note_on_c, 0, 61, 99
1, 740068, Note_on_c, 0, 52, 0
1, 740068, Note_on_c, 0, 57, 0
1, 740068, Note_on_c, 0, 68, 111
1, 740071, Note_on_c, 0, 52, 108
1, 740071, Note_on_c, 0, 57, 99
1, 740173, Control_c, 0, 64, 0
1, 740173, Control_c, 0, 64, 0
1, 740190, Note_on_c, 0, 60, 99
1, 740190, Note_on_c, 0, 56, 93
1, 740292, Note_on_c, 0, 56, 0
1, 740292, Note_on_c, 0, 60, 0
1, 740292, Note_on_c, 0, 61, 99
1, 740295, Note_on_c, 0, 57, 93
1, 740362, Control_c, 0, 64, 0
1, 740362, Control_c, 0, 64, 0
1, 740394, Note_on_c, 0, 61, 0
1, 740394, Note_on_c, 0, 68, 0
1, 740394, Note_on_c, 0, 57, 99
1, 740397, Note_on_c, 0, 61, 0
1, 740397, Note_on_c, 0, 63, 99
1, 740397, Note_on_c, 0, 66, 111
1, 740400, Note_on_c, 0, 57, 0
1, 740400, Note_on_c, 0, 52, 0
1, 740400, Note_on_c, 0, 40, 108
1, 740403, Note_on_c, 0, 57, 0
1, 740403, Note_on_c, 0, 47, 99
1, 740433, Control_c, 0, 64, 127
1, 740433, Control_c, 0, 64, 127
1, 740496, Note_on_c, 0, 63, 0
1, 740496, Note_on_c, 0, 57, 0
1, 740496, Control_c, 0, 64, 127
1, 740499, Note_on_c, 0, 66, 0
1, 740499, Note_on_c, 0, 56, 99
1, 740499, Note_on_c, 0, 64, 111
1, 740502, Note_on_c, 0, 40, 0
1, 740502, Note_on_c, 0, 47, 0
1, 740502, Control_c, 0, 64, 127
1, 740505, Note_on_c, 0, 40, 102
1, 740505, Note_on_c, 0, 47, 92
1, 740520, Control_c, 0, 64, 0
1, 740520, Control_c, 0, 64, 0
1, 740549, Control_c, 0, 64, 0
1, 740549, Control_c, 0, 64, 0
1, 740598, Note_on_c, 0, 55, 99
1, 740598, Note_on_c, 0, 46, 88
1, 740700, Note_on_c, 0, 46, 0
1, 740700, Note_on_c, 0, 55, 0
1, 740700, Note_on_c, 0, 56, 99
1, 740703, Note_on_c, 0, 47, 89
1, 740802, Note_on_c, 0, 64, 0
1, 740802, Note_on_c, 0, 56, 0
1, 740802, Note_on_c, 0, 60, 92
1, 740805, Note_on_c, 0, 56, 0
1, 740805, Note_on_c, 0, 40, 0
1, 740805, Note_on_c, 0, 64, 103
1, 740808, Note_on_c, 0, 47, 0
1, 740808, Note_on_c, 0, 48, 87
1, 740808, Note_on_c, 0, 55, 95
1, 740811, Note_on_c, 0, 47, 0
1, 740848, Control_c, 0, 64, 127
1, 740848, Control_c, 0, 64, 127
1, 740904, Note_on_c, 0, 64, 0
1, 740904, Note_on_c, 0, 60, 0
1, 740904, Note_on_c, 0, 60, 94
1, 740907, Note_on_c, 0, 48, 0
1, 740907, Note_on_c, 0, 55, 0
1, 740907, Note_on_c, 0, 64, 105
1, 740910, Note_on_c, 0, 48, 87
1, 740910, Note_on_c, 0, 55, 96
1, 740993, Control_c, 0, 64, 0
1, 740993, Control_c, 0, 64, 0
1, 741006, Note_on_c, 0, 54, 91
1, 741109, Note_on_c, 0, 54, 0
1, 741109, Note_on_c, 0, 55, 92
1, 741179, Control_c, 0, 64, 0
1, 741179, Control_c, 0, 64, 0
1, 741211, Note_on_c, 0, 60, 0
1, 741211, Note_on_c, 0, 64, 0
1, 741211, Note_on_c, 0, 60, 97
1, 741214, Note_on_c, 0, 55, 0
1, 741214, Note_on_c, 0, 48, 0
1, 741214, Note_on_c, 0, 65, 109
1, 741217, Note_on_c, 0, 55, 0
1, 741217, Note_on_c, 0, 38, 89
1, 741217, Note_on_c, 0, 45, 98
1, 741250, Control_c, 0, 64, 127
1, 741250, Control_c, 0, 64, 127
1, 741313, Note_on_c, 0, 65, 0
1, 741313, Note_on_c, 0, 60, 0
1, 741313, Control_c, 0, 64, 127
1, 741316, Note_on_c, 0, 60, 98
1, 741316, Note_on_c, 0, 65, 110
1, 741316, Control_c, 0, 64, 127
1, 741319, Note_on_c, 0, 38, 0
1, 741319, Note_on_c, 0, 45, 0
1, 741319, Note_on_c, 0, 38, 91
1, 741322, Note_on_c, 0, 45, 100
1, 741337, Control_c, 0, 64, 0
1, 741337, Control_c, 0, 64, 0
1, 741358, Control_c, 0, 64, 0
1, 741358, Control_c, 0, 64, 0
1, 741415, Note_on_c, 0, 59, 100
1, 741415, Note_on_c, 0, 44, 94
1, 741517, Note_on_c, 0, 44, 0
1, 741517, Note_on_c, 0, 59, 0
1, 741517, Note_on_c, 0, 60, 100
1, 741520, Note_on_c, 0, 45, 95
1, 741619, Note_on_c, 0, 65, 0
1, 741619, Note_on_c, 0, 60, 0
1, 741619, Note_on_c, 0, 59, 102
1, 741622, Note_on_c, 0, 60, 0
1, 741622, Note_on_c, 0, 38, 0
1, 741622, Note_on_c, 0, 67, 114
1, 741625, Note_on_c, 0, 45, 0
1, 741625, Note_on_c, 0, 43, 94
1, 741625, Note_on_c, 0, 50, 102
1, 741628, Note_on_c, 0, 45, 0
1, 741665, Control_c, 0, 64, 127
1, 741665, Control_c, 0, 64, 127
1, 741721, Note_on_c, 0, 67, 0
1, 741721, Note_on_c, 0, 59, 0
1, 741721, Note_on_c, 0, 59, 103
1, 741724, Note_on_c, 0, 43, 0
1, 741724, Note_on_c, 0, 50, 0
1, 741724, Note_on_c, 0, 67, 116
1, 741727, Note_on_c, 0, 43, 94
1, 741727, Note_on_c, 0, 50, 103
1, 741818, Control_c, 0, 64, 0
1, 741818, Control_c, 0, 64, 0
1, 741823, Note_on_c, 0, 58, 104
1, 741823, Note_on_c, 0, 49, 97
1, 741925, Note_on_c, 0, 49, 0
1, 741925, Note_on_c, 0, 58, 0
1, 741925, Note_on_c, 0, 59, 105
1, 741928, Note_on_c, 0, 50, 98
1, 741996, Control_c, 0, 64, 0
1, 741996, Control_c, 0, 64, 0
1, 742028, Note_on_c, 0, 59, 0
1, 742028, Note_on_c, 0, 67, 0
1, 742028, Note_on_c, 0, 64, 106
1, 742031, Note_on_c, 0, 59, 0
1, 742031, Note_on_c, 0, 43, 0
1, 742031, Note_on_c, 0, 72, 106
1, 742034, Note_on_c, 0, 50, 0
1, 742034, Note_on_c, 0, 36, 97
1, 742034, Note_on_c, 0, 43, 106
1, 742037, Note_on_c, 0, 50, 0
1, 742075, Control_c, 0, 64, 127
1, 742075, Control_c, 0, 64, 127
1, 742152, Note_on_c, 0, 72, 0
1, 742152, Note_on_c, 0, 64, 0
1, 742152, Control_c, 0, 64, 127
1, 742155, Note_on_c, 0, 64, 112
1, 742155, Note_on_c, 0, 72, 117
1, 742155, Control_c, 0, 64, 127
1, 742158, Note_on_c, 0, 36, 0
1, 742158, Note_on_c, 0, 43, 0
1, 742158, Note_on_c, 0, 36, 116
1, 742161, Note_on_c, 0, 43, 111
1, 742245, Control_c, 0, 64, 0
1, 742245, Control_c, 0, 64, 0
1, 742277, Note_on_c, 0, 63, 102
1, 742277, Note_on_c, 0, 42, 104
1, 742296, Control_c, 0, 64, 127
1, 742296, Control_c, 0, 64, 127
1, 742379, Note_on_c, 0, 42, 0
1, 742379, Note_on_c, 0, 63, 0
1, 742379, Note_on_c, 0, 64, 102
1, 742382, Note_on_c, 0, 43, 104
1, 742478, Control_c, 0, 64, 127
1, 742478, Control_c, 0, 64, 127
1, 742481, Note_on_c, 0, 64, 0
1, 742481, Note_on_c, 0, 72, 0
1, 742481, Note_on_c, 0, 64, 0
1, 742484, Note_on_c, 0, 65, 104
1, 742484, Note_on_c, 0, 71, 104
1, 742484, Note_on_c, 0, 76, 117
1, 742487, Note_on_c, 0, 43, 0
1, 742487, Note_on_c, 0, 36, 0
1, 742487, Note_on_c, 0, 43, 0
1, 742490, Note_on_c, 0, 48, 92
1, 742490, Note_on_c, 0, 55, 99
1, 742583, Note_on_c, 0, 65, 0
1, 742583, Note_on_c, 0, 76, 0
1, 742583, Note_on_c, 0, 71, 0
1, 742586, Note_on_c, 0, 65, 105
1, 742586, Note_on_c, 0, 71, 105
1, 742586, Note_on_c, 0, 76, 117
1, 742589, Note_on_c, 0, 48, 0
1, 742589, Note_on_c, 0, 55, 0
1, 742589, Note_on_c, 0, 48, 92
1, 742592, Note_on_c, 0, 55, 99
1, 742647, Control_c, 0, 64, 0
1, 742647, Control_c, 0, 64, 0
1, 742708, Note_on_c, 0, 70, 103
1, 742708, Note_on_c, 0, 54, 92
1, 742727, Control_c, 0, 64, 127
1, 742727, Control_c, 0, 64, 127
1, 742833, Note_on_c, 0, 54, 0
1, 742833, Note_on_c, 0, 70, 0
1, 742833, Note_on_c, 0, 71, 103
1, 742836, Note_on_c, 0, 55, 92
1, 742935, Note_on_c, 0, 71, 0
1, 742935, Note_on_c, 0, 65, 0
1, 742935, Note_on_c, 0, 71, 0
1, 742938, Note_on_c, 0, 76, 0
1, 742938, Note_on_c, 0, 65, 100
1, 742938, Note_on_c, 0, 71, 100
1, 742941, Note_on_c, 0, 48, 0
1, 742941, Note_on_c, 0, 55, 0
1, 742941, Note_on_c, 0, 74, 117
1, 742944, Note_on_c, 0, 55, 0
1, 742944, Note_on_c, 0, 36, 104
1, 742944, Note_on_c, 0, 43, 111
1, 742948, Control_c, 0, 64, 127
1, 742948, Control_c, 0, 64, 127
1, 743037, Note_on_c, 0, 71, 0
1, 743037, Note_on_c, 0, 65, 0
1, 743037, Control_c, 0, 64, 127
1, 743040, Note_on_c, 0, 74, 0
1, 743040, Note_on_c, 0, 64, 112
1, 743040, Note_on_c, 0, 72, 117
1, 743043, Note_on_c, 0, 43, 0
1, 743043, Note_on_c, 0, 36, 0
1, 743043, Control_c, 0, 64, 127
1, 743046, Note_on_c, 0, 36, 117
1, 743046, Note_on_c, 0, 43, 111
1, 743113, Control_c, 0, 64, 0
1, 743113, Control_c, 0, 64, 0
1, 743139, Note_on_c, 0, 63, 102
1, 743139, Note_on_c, 0, 42, 104
1, 743181, Control_c, 0, 64, 127
1, 743181, Control_c, 0, 64, 127
1, 743241, Note_on_c, 0, 42, 0
1, 743241, Note_on_c, 0, 63, 0
1, 743241, Note_on_c, 0, 64, 102
1, 743244, Note_on_c, 0, 43, 104
1, 743340, Control_c, 0, 64, 127
1, 743340, Control_c, 0, 64, 127
1, 743344, Note_on_c, 0, 64, 0
1, 743344, Note_on_c, 0, 72, 0
1, 743344, Note_on_c, 0, 64, 0
1, 743347, Note_on_c, 0, 65, 104
1, 743347, Note_on_c, 0, 71, 104
1, 743347, Note_on_c, 0, 76, 117
1, 743350, Note_on_c, 0, 43, 0
1, 743350, Note_on_c, 0, 36, 0
1, 743350, Note_on_c, 0, 43, 0
1, 743353, Note_on_c, 0, 48, 99
1, 743353, Note_on_c, 0, 55, 99
1, 743446, Note_on_c, 0, 65, 0
1, 743446, Note_on_c, 0, 76, 0
1, 743446, Note_on_c, 0, 71, 0
1, 743449, Note_on_c, 0, 65, 105
1, 743449, Note_on_c, 0, 71, 105
1, 743449, Note_on_c, 0, 76, 117
1, 743452, Note_on_c, 0, 48, 0
1, 743452, Note_on_c, 0, 55, 0
1, 743452, Note_on_c, 0, 48, 99
1, 743455, Note_on_c, 0, 55, 99
1, 743509, Control_c, 0, 64, 0
1, 743509, Control_c, 0, 64, 0
1, 743570, Note_on_c, 0, 70, 103
1, 743570, Note_on_c, 0, 54, 92
1, 743590, Control_c, 0, 64, 127
1, 743590, Control_c, 0, 64, 127
1, 743695, Note_on_c, 0, 54, 0
1, 743695, Note_on_c, 0, 70, 0
1, 743695, Note_on_c, 0, 71, 103
1, 743698, Note_on_c, 0, 55, 92
1, 743797, Note_on_c, 0, 71, 0
1, 743797, Note_on_c, 0, 65, 0
1, 743797, Note_on_c, 0, 71, 0
1, 743800, Note_on_c, 0, 76, 0
1, 743800, Note_on_c, 0, 65, 100
1, 743800, Note_on_c, 0, 71, 100
1, 743803, Note_on_c, 0, 48, 0
1, 743803, Note_on_c, 0, 55, 0
1, 743803, Note_on_c, 0, 74, 117
1, 743806, Note_on_c, 0, 55, 0
1, 743806, Note_on_c, 0, 36, 111
1, 743806, Note_on_c, 0, 43, 111
1, 743811, Control_c, 0, 64, 127
1, 743811, Control_c, 0, 64, 127
1, 743900, Note_on_c, 0, 71, 0
1, 743900, Note_on_c, 0, 65, 0
1, 743900, Control_c, 0, 64, 127
1, 743903, Note_on_c, 0, 74, 0
1, 743903, Note_on_c, 0, 64, 103
1, 743903, Note_on_c, 0, 72, 117
1, 743906, Note_on_c, 0, 43, 0
1, 743906, Note_on_c, 0, 36, 0
1, 743906, Control_c, 0, 64, 127
1, 743909, Note_on_c, 0, 36, 111
1, 743909, Note_on_c, 0, 43, 99
1, 743923, Control_c, 0, 64, 0
1, 743923, Control_c, 0, 64, 0
1, 743945, Control_c, 0, 64, 0
1, 743945, Control_c, 0, 64, 0
1, 743975, Control_c, 0, 64, 0
1, 743975, Control_c, 0, 64, 0
1, 744002, Note_on_c, 0, 63, 103
1, 744002, Note_on_c, 0, 42, 92
1, 744104, Note_on_c, 0, 42, 0
1, 744104, Note_on_c, 0, 63, 0
1, 744104, Note_on_c, 0, 64, 103
1, 744107, Note_on_c, 0, 43, 92
1, 744202, Control_c, 0, 64, 127
1, 744202, Control_c, 0, 64, 127
1, 744206, Note_on_c, 0, 64, 0
1, 744206, Note_on_c, 0, 72, 0
1, 744206, Note_on_c, 0, 64, 0
1, 744209, Note_on_c, 0, 36, 0
1, 744209, Note_on_c, 0, 64, 103
1, 744209, Note_on_c, 0, 71, 117
1, 744212, Note_on_c, 0, 43, 0
1, 744212, Note_on_c, 0, 43, 0
1, 744212, Note_on_c, 0, 48, 99
1, 744215, Note_on_c, 0, 55, 99
1, 744252, Control_c, 0, 64, 127
1, 744252, Control_c, 0, 64, 127
1, 744308, Note_on_c, 0, 64, 0
1, 744308, Note_on_c, 0, 71, 0
1, 744308, Note_on_c, 0, 64, 103
1, 744311, Note_on_c, 0, 48, 0
1, 744311, Note_on_c, 0, 55, 0
1, 744311, Note_on_c, 0, 71, 117
1, 744314, Note_on_c, 0, 48, 99
1, 744314, Note_on_c, 0, 55, 99
1, 744360, Control_c, 0, 64, 0
1, 744360, Control_c, 0, 64, 0
1, 744404, Control_c, 0, 64, 0
1, 744404, Control_c, 0, 64, 0
1, 744410, Note_on_c, 0, 63, 103
1, 744410, Note_on_c, 0, 54, 92
1, 744512, Note_on_c, 0, 54, 0
1, 744512, Note_on_c, 0, 63, 0
1, 744512, Note_on_c, 0, 64, 103
1, 744515, Note_on_c, 0, 55, 92
1, 744583, Control_c, 0, 64, 0
1, 744583, Control_c, 0, 64, 0
1, 744614, Note_on_c, 0, 64, 0
1, 744614, Note_on_c, 0, 64, 0
1, 744614, Note_on_c, 0, 71, 0
1, 744617, Note_on_c, 0, 55, 0
1, 744617, Note_on_c, 0, 64, 103
1, 744617, Note_on_c, 0, 70, 115
1, 744620, Note_on_c, 0, 55, 0
1, 744620, Note_on_c, 0, 48, 0
1, 744620, Note_on_c, 0, 36, 99
1, 744623, Note_on_c, 0, 43, 99
1, 744630, Control_c, 0, 64, 127
1, 744630, Control_c, 0, 64, 127
1, 744662, Control_c, 0, 64, 127
1, 744662, Control_c, 0, 64, 127
1, 744739, Note_on_c, 0, 64, 0
1, 744739, Note_on_c, 0, 70, 0
1, 744739, Control_c, 0, 64, 127
1, 744742, Note_on_c, 0, 64, 103
1, 744742, Note_on_c, 0, 70, 117
1, 744742, Control_c, 0, 64, 127
1, 744745, Note_on_c, 0, 36, 0
1, 744745, Note_on_c, 0, 43, 0
1, 744745, Note_on_c, 0, 36, 111
1, 744748, Note_on_c, 0, 43, 99
1, 744768, Control_c, 0, 64, 0
1, 744768, Control_c, 0, 64, 0
1, 744795, Control_c, 0, 64, 0
1, 744795, Control_c, 0, 64, 0
1, 744864, Note_on_c, 0, 63, 103
1, 744864, Note_on_c, 0, 42, 92
1, 744989, Note_on_c, 0, 42, 0
1, 744989, Note_on_c, 0, 63, 0
1, 744989, Note_on_c, 0, 64, 103
1, 744992, Note_on_c, 0, 43, 92
1, 745113, Note_on_c, 0, 64, 0
1, 745113, Note_on_c, 0, 70, 0
1, 745113, Note_on_c, 0, 64, 0
1, 745116, Note_on_c, 0, 36, 0
1, 745116, Note_on_c, 0, 63, 103
1, 745116, Note_on_c, 0, 71, 115
1, 745119, Note_on_c, 0, 43, 0
1, 745119, Note_on_c, 0, 43, 0
1, 745119, Note_on_c, 0, 47, 99
1, 745122, Note_on_c, 0, 54, 99
1, 745159, Control_c, 0, 64, 127
1, 745159, Control_c, 0, 64, 127
1, 745216, Note_on_c, 0, 63, 0
1, 745216, Note_on_c, 0, 71, 0
1, 745216, Note_on_c, 0, 63, 103
1, 745219, Note_on_c, 0, 47, 0
1, 745219, Note_on_c, 0, 54, 0
1, 745219, Note_on_c, 0, 71, 117
1, 745222, Note_on_c, 0, 47, 99
1, 745222, Note_on_c, 0, 54, 99
1, 745312, Control_c, 0, 64, 0
1, 745312, Control_c, 0, 64, 0
1, 745318, Note_on_c, 0, 62, 103
1, 745318, Note_on_c, 0, 53, 92
1, 745420, Note_on_c, 0, 53, 0
1, 745420, Note_on_c, 0, 62, 0
1, 745420, Note_on_c, 0, 63, 103
1, 745423, Note_on_c, 0, 54, 92
1, 745490, Control_c, 0, 64, 0
1, 745490, Control_c, 0, 64, 0
1, 745522, Note_on_c, 0, 63, 0
1, 745522, Note_on_c, 0, 63, 0
1, 745522, Note_on_c, 0, 71, 0
1, 745525, Note_on_c, 0, 54, 0
1, 745525, Note_on_c, 0, 56, 99
1, 745525, Note_on_c, 0, 59, 111
1, 745528, Note_on_c, 0, 54, 0
1, 745528, Note_on_c, 0, 47, 0
1, 745528, Note_on_c, 0, 40, 102
1, 745531, Note_on_c, 0, 47, 93
1, 745545, Control_c, 0, 64, 127
1, 745545, Control_c, 0, 64, 127
1, 745583, Control_c, 0, 64, 127
1, 745583, Control_c, 0, 64, 127
1, 745682, Note_on_c, 0, 56, 0
1, 745682, Note_on_c, 0, 59, 0
1, 745682, Control_c, 0, 64, 127
1, 745685, Note_on_c, 0, 56, 99
1, 745685, Note_on_c, 0, 59, 111
1, 745685, Control_c, 0, 64, 127
1, 745688, Note_on_c, 0, 40, 0
1, 745688, Note_on_c, 0, 47, 0
1, 745688, Note_on_c, 0, 40, 108
1, 745691, Note_on_c, 0, 47, 99
1, 745720, Control_c, 0, 64, 0
1, 745720, Control_c, 0, 64, 0
1, 745778, Control_c, 0, 64, 0
1, 745778, Control_c, 0, 64, 0
1, 745843, Note_on_c, 0, 55, 99
1, 745843, Note_on_c, 0, 46, 93
1, 745945, Note_on_c, 0, 46, 0
1, 745945, Note_on_c, 0, 55, 0
1, 745945, Note_on_c, 0, 56, 99
1, 745948, Note_on_c, 0, 47, 93
1, 746047, Note_on_c, 0, 59, 0
1, 746047, Note_on_c, 0, 56, 0
1, 746047, Note_on_c, 0, 61, 99
1, 746050, Note_on_c, 0, 56, 0
1, 746050, Note_on_c, 0, 40, 0
1, 746050, Note_on_c, 0, 68, 111
1, 746053, Note_on_c, 0, 47, 0
1, 746053, Note_on_c, 0, 52, 108
1, 746053, Note_on_c, 0, 57, 99
1, 746056, Note_on_c, 0, 47, 0
1, 746103, Control_c, 0, 64, 127
1, 746103, Control_c, 0, 64, 127
1, 746172, Note_on_c, 0, 68, 0
1, 746172, Note_on_c, 0, 61, 0
1, 746172, Note_on_c, 0, 61, 99
1, 746175, Note_on_c, 0, 52, 0
1, 746175, Note_on_c, 0, 57, 0
1, 746175, Note_on_c, 0, 68, 111
1, 746178, Note_on_c, 0, 52, 108
1, 746178, Note_on_c, 0, 57, 99
1, 746272, Control_c, 0, 64, 0
1, 746272, Control_c, 0, 64, 0
1, 746297, Note_on_c, 0, 60, 99
1, 746297, Note_on_c, 0, 56, 93
1, 746399, Note_on_c, 0, 56, 0
1, 746399, Note_on_c, 0, 60, 0
1, 746399, Note_on_c, 0, 61, 99
1, 746402, Note_on_c, 0, 57, 93
1, 746469, Control_c, 0, 64, 0
1, 746469, Control_c, 0, 64, 0
1, 746501, Note_on_c, 0, 61, 0
1, 746501, Note_on_c, 0, 68, 0
1, 746501, Note_on_c, 0, 57, 99
1, 746504, Note_on_c, 0, 61, 0
1, 746504, Note_on_c, 0, 63, 99
1, 746504, Note_on_c, 0, 66, 111
1, 746507, Note_on_c, 0, 57, 0
1, 746507, Note_on_c, 0, 52, 0
1, 746507, Note_on_c, 0, 40, 108
1, 746510, Note_on_c, 0, 57, 0
1, 746510, Note_on_c, 0, 47, 99
1, 746549, Control_c, 0, 64, 127
1, 746549, Control_c, 0, 64, 127
1, 746626, Note_on_c, 0, 63, 0
1, 746626, Note_on_c, 0, 57, 0
1, 746626, Control_c, 0, 64, 127
1, 746629, Note_on_c, 0, 66, 0
1, 746629, Note_on_c, 0, 56, 99
1, 746629, Note_on_c, 0, 64, 111
1, 746632, Note_on_c, 0, 40, 0
1, 746632, Note_on_c, 0, 47, 0
1, 746632, Control_c, 0, 64, 127
1, 746635, Note_on_c, 0, 40, 108
1, 746635, Note_on_c, 0, 47, 99
1, 746655, Control_c, 0, 64, 0
1, 746655, Control_c, 0, 64, 0
1, 746681, Control_c, 0, 64, 0
1, 746681, Control_c, 0, 64, 0
1, 746750, Note_on_c, 0, 55, 99
1, 746750, Note_on_c, 0, 46, 93
1, 746853, Note_on_c, 0, 46, 0
1, 746853, Note_on_c, 0, 55, 0
1, 746853, Note_on_c, 0, 56, 99
1, 746856, Note_on_c, 0, 47, 93
1, 746955, Note_on_c, 0, 64, 0
1, 746955, Note_on_c, 0, 56, 0
1, 746955, Note_on_c, 0, 61, 99
1, 746958, Note_on_c, 0, 56, 0
1, 746958, Note_on_c, 0, 40, 0
1, 746958, Note_on_c, 0, 68, 111
1, 746961, Note_on_c, 0, 47, 0
1, 746961, Note_on_c, 0, 52, 108
1, 746961, Note_on_c, 0, 57, 99
1, 746964, Note_on_c, 0, 47, 0
1, 747011, Control_c, 0, 64, 127
1, 747011, Control_c, 0, 64, 127
1, 747079, Note_on_c, 0, 68, 0
1, 747079, Note_on_c, 0, 61, 0
1, 747079, Note_on_c, 0, 61, 99
1, 747082, Note_on_c, 0, 52, 0
1, 747082, Note_on_c, 0, 57, 0
1, 747082, Note_on_c, 0, 68, 111
1, 747085, Note_on_c, 0, 52, 108
1, 747085, Note_on_c, 0, 57, 99
1, 747188, Control_c, 0, 64, 0
1, 747188, Control_c, 0, 64, 0
1, 747204, Note_on_c, 0, 60, 99
1, 747204, Note_on_c, 0, 56, 93
1, 747306, Note_on_c, 0, 56, 0
1, 747306, Note_on_c, 0, 60, 0
1, 747306, Note_on_c, 0, 61, 99
1, 747309, Note_on_c, 0, 57, 93
1, 747377, Control_c, 0, 64, 0
1, 747377, Control_c, 0, 64, 0
1, 747408, Note_on_c, 0, 61, 0
1, 747408, Note_on_c, 0, 68, 0
1, 747408, Note_on_c, 0, 57, 99
1, 747411, Note_on_c, 0, 61, 0
1, 747411, Note_on_c, 0, 63, 99
1, 747411, Note_on_c, 0, 66, 111
1, 747414, Note_on_c, 0, 57, 0
1, 747414, Note_on_c, 0, 52, 0
1, 747414, Note_on_c, 0, 40, 108
1, 747417, Note_on_c, 0, 57, 0
1, 747417, Note_on_c, 0, 47, 99
1, 747448, Control_c, 0, 64, 127
1, 747448, Control_c, 0, 64, 127
1, 747511, Note_on_c, 0, 63, 0
1, 747511, Note_on_c, 0, 57, 0
1, 747511, Control_c, 0, 64, 127
1, 747514, Note_on_c, 0, 66, 0
1, 747514, Note_on_c, 0, 56, 99
1, 747514, Note_on_c, 0, 64, 111
1, 747517, Note_on_c, 0, 40, 0
1, 747517, Note_on_c, 0, 47, 0
1, 747517, Control_c, 0, 64, 127
1, 747520, Note_on_c, 0, 40, 102
1, 747520, Note_on_c, 0, 47, 92
1, 747535, Control_c, 0, 64, 0
1, 747535, Control_c, 0, 64, 0
1, 747564, Control_c, 0, 64, 0
1, 747564, Control_c, 0, 64, 0
1, 747613, Note_on_c, 0, 55, 99
1, 747613, Note_on_c, 0, 46, 88
1, 747715, Note_on_c, 0, 46, 0
1, 747715, Note_on_c, 0, 55, 0
1, 747715, Note_on_c, 0, 56, 99
1, 747718, Note_on_c, 0, 47, 89
1, 747817, Note_on_c, 0, 64, 0
1, 747817, Note_on_c, 0, 56, 0
1, 747817, Note_on_c, 0, 60, 92
1, 747820, Note_on_c, 0, 56, 0
1, 747820, Note_on_c, 0, 40, 0
1, 747820, Note_on_c, 0, 64, 103
1, 747823, Note_on_c, 0, 47, 0
1, 747823, Note_on_c, 0, 48, 87
1, 747823, Note_on_c, 0, 55, 95
1, 747826, Note_on_c, 0, 47, 0
1, 747863, Control_c, 0, 64, 127
1, 747863, Control_c, 0, 64, 127
1, 747919, Note_on_c, 0, 64, 0
1, 747919, Note_on_c, 0, 60, 0
1, 747919, Note_on_c, 0, 60, 94
1, 747922, Note_on_c, 0, 48, 0
1, 747922, Note_on_c, 0, 55, 0
1, 747922, Note_on_c, 0, 64, 105
1, 747925, Note_on_c, 0, 48, 87
1, 747925, Note_on_c, 0, 55, 96
1, 748008, Control_c, 0, 64, 0
1, 748008, Control_c, 0, 64, 0
1, 748021, Note_on_c, 0, 54, 91
1, 748123, Note_on_c, 0, 54, 0
1, 748123, Note_on_c, 0, 55, 92
1, 748194, Control_c, 0, 64, 0
1, 748194, Control_c, 0, 64, 0
1, 748225, Note_on_c, 0, 60, 0
1, 748225, Note_on_c, 0, 64, 0
1, 748225, Note_on_c, 0, 60, 97
1, 748228, Note_on_c, 0, 55, 0
1, 748228, Note_on_c, 0, 48, 0
1, 748228, Note_on_c, 0, 65, 109
1, 748231, Note_on_c, 0, 55, 0
1, 748231, Note_on_c, 0, 38, 89
1, 748231, Note_on_c, 0, 45, 98
1, 748264, Control_c, 0, 64, 127
1, 748264, Control_c, 0, 64, 127
1, 748327, Note_on_c, 0, 65, 0
1, 748327, Note_on_c, 0, 60, 0
1, 748327, Control_c, 0, 64, 127
1, 748330, Note_on_c, 0, 60, 98
1, 748330, Note_on_c, 0, 65, 110
1, 748330, Control_c, 0, 64, 127
1, 748333, Note_on_c, 0, 38, 0
1, 748333, Note_on_c, 0, 45, 0
1, 748333, Note_on_c, 0, 38, 91
1, 748336, Note_on_c, 0, 45, 100
1, 748351, Control_c, 0, 64, 0
1, 748351, Control_c, 0, 64, 0
1, 748373, Control_c, 0, 64, 0
1, 748373, Control_c, 0, 64, 0
1, 748430, Note_on_c, 0, 59, 100
1, 748430, Note_on_c, 0, 44, 94
1, 748532, Note_on_c, 0, 44, 0
1, 748532, Note_on_c, 0, 59, 0
1, 748532, Note_on_c, 0, 60, 100
1, 748535, Note_on_c, 0, 45, 95
1, 748634, Note_on_c, 0, 65, 0
1, 748634, Note_on_c, 0, 60, 0
1, 748634, Note_on_c, 0, 59, 102
1, 748637, Note_on_c, 0, 60, 0
1, 748637, Note_on_c, 0, 38, 0
1, 748637, Note_on_c, 0, 67, 114
1, 748640, Note_on_c, 0, 45, 0
1, 748640, Note_on_c, 0, 43, 94
1, 748640, Note_on_c, 0, 50, 102
1, 748643, Note_on_c, 0, 45, 0
1, 748680, Control_c, 0, 64, 127
1, 748680, Control_c, 0, 64, 127
1, 748736, Note_on_c, 0, 67, 0
1, 748736, Note_on_c, 0, 59, 0
1, 748736, Note_on_c, 0, 59, 103
1, 748739, Note_on_c, 0, 43, 0
1, 748739, Note_on_c, 0, 50, 0
1, 748739, Note_on_c, 0, 67, 116
1, 748742, Note_on_c, 0, 43, 94
1, 748742, Note_on_c, 0, 50, 103
1, 748832, Control_c, 0, 64, 0
1, 748832, Control_c, 0, 64, 0
1, 748838, Note_on_c, 0, 58, 104
1, 748838, Note_on_c, 0, 49, 97
1, 748940, Note_on_c, 0, 49, 0
1, 748940, Note_on_c, 0, 58, 0
1, 748940, Note_on_c, 0, 59, 105
1, 748943, Note_on_c, 0, 50, 98
1, 749011, Control_c, 0, 64, 0
1, 749011, Control_c, 0, 64, 0
1, 749042, Note_on_c, 0, 59, 0
1, 749042, Note_on_c, 0, 67, 0
1, 749042, Note_on_c, 0, 64, 106
1, 749045, Note_on_c, 0, 59, 0
1, 749045, Note_on_c, 0, 43, 0
1, 749045, Note_on_c, 0, 72, 106
1, 749048, Note_on_c, 0, 50, 0
1, 749048, Note_on_c, 0, 36, 97
1, 749048, Note_on_c, 0, 43, 106
1, 749051, Note_on_c, 0, 50, 0
1, 749090, Control_c, 0, 64, 127
1, 749090, Control_c, 0, 64, 127
1, 749167, Note_on_c, 0, 72, 0
1, 749167, Note_on_c, 0, 64, 0
1, 749167, Control_c, 0, 64, 127
1, 749170, Note_on_c, 0, 64, 112
1, 749170, Note_on_c, 0, 72, 117
1, 749170, Control_c, 0, 64, 127
1, 749173, Note_on_c, 0, 36, 0
1, 749173, Note_on_c, 0, 43, 0
1, 749173, Note_on_c, 0, 36, 116
1, 749176, Note_on_c, 0, 43, 111
1, 749260, Control_c, 0, 64, 0
1, 749260, Control_c, 0, 64, 0
1, 749292, Note_on_c, 0, 63, 102
1, 749292, Note_on_c, 0, 42, 104
1, 749311, Control_c, 0, 64, 127
1, 749311, Control_c, 0, 64, 127
1, 749394, Note_on_c, 0, 42, 0
1, 749394, Note_on_c, 0, 63, 0
1, 749394, Note_on_c, 0, 64, 102
1, 749397, Note_on_c, 0, 43, 104
1, 749492, Control_c, 0, 64, 127
1, 749492, Control_c, 0, 64, 127
1, 749496, Note_on_c, 0, 64, 0
1, 749496, Note_on_c, 0, 72, 0
1, 749496, Note_on_c, 0, 64, 0
1, 749499, Note_on_c, 0, 65, 104
1, 749499, Note_on_c, 0, 71, 104
1, 749499, Note_on_c, 0, 76, 117
1, 749502, Note_on_c, 0, 43, 0
1, 749502, Note_on_c, 0, 36, 0
1, 749502, Note_on_c, 0, 43, 0
1, 749505, Note_on_c, 0, 48, 92
1, 749505, Note_on_c, 0, 55, 99
1, 749598, Note_on_c, 0, 65, 0
1, 749598, Note_on_c, 0, 76, 0
1, 749598, Note_on_c, 0, 71, 0
1, 749601, Note_on_c, 0, 65, 105
1, 749601, Note_on_c, 0, 71, 105
1, 749601, Note_on_c, 0, 76, 117
1, 749604, Note_on_c, 0, 48, 0
1, 749604, Note_on_c, 0, 55, 0
1, 749604, Note_on_c, 0, 48, 92
1, 749607, Note_on_c, 0, 55, 99
1, 749662, Control_c, 0, 64, 0
1, 749662, Control_c, 0, 64, 0
1, 749723, Note_on_c, 0, 70, 103
1, 749723, Note_on_c, 0, 54, 92
1, 749742, Control_c, 0, 64, 127
1, 749742, Control_c, 0, 64, 127
1, 749848, Note_on_c, 0, 54, 0
1, 749848, Note_on_c, 0, 70, 0
1, 749848, Note_on_c, 0, 71, 103
1, 749851, Note_on_c, 0, 55, 92
1, 749950, Note_on_c, 0, 71, 0
1, 749950, Note_on_c, 0, 65, 0
1, 749950, Note_on_c, 0, 71, 0
1, 749953, Note_on_c, 0, 76, 0
1, 749953, Note_on_c, 0, 65, 100
1, 749953, Note_on_c, 0, 71, 100
1, 749956, Note_on_c, 0, 48, 0
1, 749956, Note_on_c, 0, 55, 0
1, 749956, Note_on_c, 0, 74, 117
1, 749959, Note_on_c, 0, 55, 0
1, 749959, Note_on_c, 0, 36, 104
1, 749959, Note_on_c, 0, 43, 111
1, 749963, Control_c, 0, 64, 127
1, 749963, Control_c, 0, 64, 127
1, 750052, Note_on_c, 0, 71, 0
1, 750052, Note_on_c, 0, 65, 0
1, 750052, Control_c, 0, 64, 127
1, 750055, Note_on_c, 0, 74, 0
1, 750055, Note_on_c, 0, 64, 112
1, 750055, Note_on_c, 0, 72, 117
1, 750058, Note_on_c, 0, 43, 0
1, 750058, Note_on_c, 0, 36, 0
1, 750058, Control_c, 0, 64, 127
1, 750061, Note_on_c, 0, 36, 117
1, 750061, Note_on_c, 0, 43, 111
1, 750128, Control_c, 0, 64, 0
1, 750128, Control_c, 0, 64, 0
1, 750154, Note_on_c, 0, 63, 102
1, 750154, Note_on_c, 0, 42, 104
1, 750196, Control_c, 0, 64, 127
1, 750196, Control_c, 0, 64, 127
1, 750256, Note_on_c, 0, 42, 0
1, 750256, Note_on_c, 0, 63, 0
1, 750256, Note_on_c, 0, 64, 102
1, 750259, Note_on_c, 0, 43, 104
1, 750355, Control_c, 0, 64, 127
1, 750355, Control_c, 0, 64, 127
1, 750358, Note_on_c, 0, 64, 0
1, 750358, Note_on_c, 0, 72, 0
1, 750358, Note_on_c, 0, 64, 0
1, 750361, Note_on_c, 0, 65, 104
1, 750361, Note_on_c, 0, 71, 104
1, 750361, Note_on_c, 0, 76, 117
1, 750364, Note_on_c, 0, 43, 0
1, 750364, Note_on_c, 0, 36, 0
1, 750364, Note_on_c, 0, 43, 0
1, 750367, Note_on_c, 0, 48, 99
1, 750367, Note_on_c, 0, 55, 99
1, 750460, Note_on_c, 0, 65, 0
1, 750460, Note_on_c, 0, 76, 0
1, 750460, Note_on_c, 0, 71, 0
1, 750463, Note_on_c, 0, 65, 105
1, 750463, Note_on_c, 0, 71, 105
1, 750463, Note_on_c, 0, 76, 117
1, 750466, Note_on_c, 0, 48, 0
1, 750466, Note_on_c, 0, 55, 0
1, 750466, Note_on_c, 0, 48, 99
1, 750469, Note_on_c, 0, 55, 99
1, 750524, Control_c, 0, 64, 0
1, 750524, Control_c, 0, 64, 0
1, 750585, Note_on_c, 0, 70, 103
1, 750585, Note_on_c, 0, 54, 92
1, 750604, Control_c, 0, 64, 127
1, 750604, Control_c, 0, 64, 127
1, 750710, Note_on_c, 0, 54, 0
1, 750710, Note_on_c, 0, 70, 0
1, 750710, Note_on_c, 0, 71, 103
1, 750713, Note_on_c, 0, 55, 92
1, 750812, Note_on_c, 0, 71, 0
1, 750812, Note_on_c, 0, 65, 0
1, 750812, Note_on_c, 0, 71, 0
1, 750815, Note_on_c, 0, 76, 0
1, 750815, Note_on_c, 0, 65, 100
1, 750815, Note_on_c, 0, 71, 100
1, 750818, Note_on_c, 0, 48, 0
1, 750818, Note_on_c, 0, 55, 0
1, 750818, Note_on_c, 0, 74, 117
1, 750821, Note_on_c, 0, 55, 0
1, 750821, Note_on_c, 0, 36, 111
1, 750821, Note_on_c, 0, 43, 111
1, 750825, Control_c, 0, 64, 127
1, 750825, Control_c, 0, 64, 127
1, 750914, Note_on_c, 0, 71, 0
1, 750914, Note_on_c, 0, 65, 0
1, 750914, Control_c, 0, 64, 127
1, 750917, Note_on_c, 0, 74, 0
1, 750917, Note_on_c, 0, 64, 103
1, 750917, Note_on_c, 0, 72, 117
1, 750920, Note_on_c, 0, 43, 0
1, 750920, Note_on_c, 0, 36, 0
1, 750920, Control_c, 0, 64, 127
1, 750923, Note_on_c, 0, 36, 111
1, 750923, Note_on_c, 0, 43, 99
1, 750938, Control_c, 0, 64, 0
1, 750938, Control_c, 0, 64, 0
1, 750960, Control_c, 0, 64, 0
1, 750960, Control_c, 0, 64, 0
1, 750990, Control_c, 0, 64, 0
1, 750990, Control_c, 0, 64, 0
1, 751016, Note_on_c, 0, 63, 103
1, 751016, Note_on_c, 0, 42, 92
1, 751118, Note_on_c, 0, 42, 0
1, 751118, Note_on_c, 0, 63, 0
1, 751118, Note_on_c, 0, 64, 103
1, 751121, Note_on_c, 0, 43, 92
1, 751217, Control_c, 0, 64, 127
1, 751217, Control_c, 0, 64, 127
1, 751221, Note_on_c, 0, 64, 0
1, 751221, Note_on_c, 0, 72, 0
1, 751221, Note_on_c, 0, 64, 0
1, 751224, Note_on_c, 0, 36, 0
1, 751224, Note_on_c, 0, 64, 103
1, 751224, Note_on_c, 0, 71, 117
1, 751227, Note_on_c, 0, 43, 0
1, 751227, Note_on_c, 0, 43, 0
1, 751227, Note_on_c, 0, 48, 99
1, 751230, Note_on_c, 0, 55, 99
1, 751266, Control_c, 0, 64, 127
1, 751266, Control_c, 0, 64, 127
1, 751323, Note_on_c, 0, 64, 0
1, 751323, Note_on_c, 0, 71, 0
1, 751323, Note_on_c, 0, 64, 103
1, 751326, Note_on_c, 0, 48, 0
1, 751326, Note_on_c, 0, 55, 0
1, 751326, Note_on_c, 0, 71, 117
1, 751329, Note_on_c, 0, 48, 99
1, 751329, Note_on_c, 0, 55, 99
1, 751375, Control_c, 0, 64, 0
1, 751375, Control_c, 0, 64, 0
1, 751419, Control_c, 0, 64, 0
1, 751419, Control_c, 0, 64, 0
1, 751425, Note_on_c, 0, 63, 103
1, 751425, Note_on_c, 0, 54, 92
1, 751527, Note_on_c, 0, 54, 0
1, 751527, Note_on_c, 0, 63, 0
1, 751527, Note_on_c, 0, 64, 103
1, 751530, Note_on_c, 0, 55, 92
1, 751597, Control_c, 0, 64, 0
1, 751597, Control_c, 0, 64, 0
1, 751629, Note_on_c, 0, 64, 0
1, 751629, Note_on_c, 0, 64, 0
1, 751629, Note_on_c, 0, 71, 0
1, 751632, Note_on_c, 0, 55, 0
1, 751632, Note_on_c, 0, 64, 103
1, 751632, Note_on_c, 0, 70, 115
1, 751635, Note_on_c, 0, 55, 0
1, 751635, Note_on_c, 0, 48, 0
1, 751635, Note_on_c, 0, 36, 99
1, 751638, Note_on_c, 0, 43, 99
1, 751645, Control_c, 0, 64, 127
1, 751645, Control_c, 0, 64, 127
1, 751677, Control_c, 0, 64, 127
1, 751677, Control_c, 0, 64, 127
1, 751754, Note_on_c, 0, 64, 0
1, 751754, Note_on_c, 0, 70, 0
1, 751754, Control_c, 0, 64, 127
1, 751757, Note_on_c, 0, 64, 103
1, 751757, Note_on_c, 0, 70, 117
1, 751757, Control_c, 0, 64, 127
1, 751760, Note_on_c, 0, 36, 0
1, 751760, Note_on_c, 0, 43, 0
1, 751760, Note_on_c, 0, 36, 111
1, 751763, Note_on_c, 0, 43, 99
1, 751783, Control_c, 0, 64, 0
1, 751783, Control_c, 0, 64, 0
1, 751809, Control_c, 0, 64, 0
1, 751809, Control_c, 0, 64, 0
1, 751879, Note_on_c, 0, 63, 103
1, 751879, Note_on_c, 0, 42, 92
1, 752003, Note_on_c, 0, 42, 0
1, 752003, Note_on_c, 0, 63, 0
1, 752003, Note_on_c, 0, 64, 103
1, 752006, Note_on_c, 0, 43, 92
1, 752128, Note_on_c, 0, 64, 0
1, 752128, Note_on_c, 0, 70, 0
1, 752128, Note_on_c, 0, 64, 0
1, 752131, Note_on_c, 0, 36, 0
1, 752131, Note_on_c, 0, 63, 103
1, 752131, Note_on_c, 0, 71, 115
1, 752134, Note_on_c, 0, 43, 0
1, 752134, Note_on_c, 0, 43, 0
1, 752134, Note_on_c, 0, 47, 99
1, 752137, Note_on_c, 0, 54, 99
1, 752174, Control_c, 0, 64, 127
1, 752174, Control_c, 0, 64, 127
1, 752230, Note_on_c, 0, 63, 0
1, 752230, Note_on_c, 0, 71, 0
1, 752230, Note_on_c, 0, 63, 103
1, 752233, Note_on_c, 0, 47, 0
1, 752233, Note_on_c, 0, 54, 0
1, 752233, Note_on_c, 0, 71, 117
1, 752236, Note_on_c, 0, 47, 99
1, 752236, Note_on_c, 0, 54, 99
1, 752327, Control_c, 0, 64, 0
1, 752327, Control_c, 0, 64, 0
1, 752332, Note_on_c, 0, 62, 103
1, 752332, Note_on_c, 0, 53, 92
1, 752435, Note_on_c, 0, 53, 0
1, 752435, Note_on_c, 0, 62, 0
1, 752435, Note_on_c, 0, 63, 103
1, 752438, Note_on_c, 0, 54, 92
1, 752505, Control_c, 0, 64, 0
1, 752505, Control_c, 0, 64, 0
1, 752537, Note_on_c, 0, 63, 0
1, 752537, Note_on_c, 0, 63, 0
1, 752537, Note_on_c, 0, 71, 0
1, 752540, Note_on_c, 0, 54, 0
1, 752540, Note_on_c, 0, 62, 87
1, 752540, Note_on_c, 0, 68, 99
1, 752543, Note_on_c, 0, 54, 0
1, 752543, Note_on_c, 0, 47, 0
1, 752543, Note_on_c, 0, 35, 99
1, 752546, Note_on_c, 0, 40, 87
1, 752576, Control_c, 0, 64, 127
1, 752576, Control_c, 0, 64, 127
1, 752581, Control_c, 0, 64, 127
1, 752581, Control_c, 0, 64, 127
1, 752639, Note_on_c, 0, 62, 0
1, 752639, Note_on_c, 0, 68, 0
1, 752639, Control_c, 0, 64, 127
1, 752642, Note_on_c, 0, 62, 88
1, 752642, Note_on_c, 0, 68, 101
1, 752642, Control_c, 0, 64, 127
1, 752645, Note_on_c, 0, 35, 0
1, 752645, Note_on_c, 0, 40, 0
1, 752645, Note_on_c, 0, 35, 101
1, 752648, Note_on_c, 0, 40, 89
1, 752730, Control_c, 0, 64, 0
1, 752730, Control_c, 0, 64, 0
1, 752741, Note_on_c, 0, 61, 88
1, 752843, Note_on_c, 0, 61, 0
1, 752843, Note_on_c, 0, 62, 89
1, 752945, Note_on_c, 0, 62, 0
1, 752945, Note_on_c, 0, 62, 0
1, 752945, Note_on_c, 0, 68, 0
1, 752948, Note_on_c, 0, 35, 0
1, 752948, Note_on_c, 0, 62, 90
1, 752948, Note_on_c, 0, 69, 108
1, 752951, Note_on_c, 0, 40, 0
1, 752951, Note_on_c, 0, 33, 109
1, 752951, Note_on_c, 0, 40, 95
1, 752956, Control_c, 0, 64, 127
1, 752956, Control_c, 0, 64, 127
1, 753047, Note_on_c, 0, 69, 0
1, 753047, Note_on_c, 0, 62, 0
1, 753047, Note_on_c, 0, 62, 90
1, 753050, Note_on_c, 0, 33, 0
1, 753050, Note_on_c, 0, 40, 0
1, 753050, Note_on_c, 0, 69, 110
1, 753053, Note_on_c, 0, 33, 110
1, 753053, Note_on_c, 0, 40, 97
1, 753149, Note_on_c, 0, 61, 91
1, 753251, Note_on_c, 0, 61, 0
1, 753251, Note_on_c, 0, 62, 91
1, 753354, Note_on_c, 0, 62, 0
1, 753354, Note_on_c, 0, 69, 0
1, 753354, Note_on_c, 0, 62, 0
1, 753357, Note_on_c, 0, 62, 87
1, 753357, Note_on_c, 0, 64, 87
1, 753357, Note_on_c, 0, 70, 87
1, 753360, Note_on_c, 0, 33, 0
1, 753360, Note_on_c, 0, 40, 0
1, 753360, Note_on_c, 0, 76, 109
1, 753363, Note_on_c, 0, 31, 117
1, 753363, Note_on_c, 0, 40, 96
1, 753478, Note_on_c, 0, 64, 0
1, 753478, Note_on_c, 0, 70, 0
1, 753478, Note_on_c, 0, 62, 0
1, 753481, Note_on_c, 0, 76, 0
1, 753481, Note_on_c, 0, 62, 82
1, 753481, Note_on_c, 0, 64, 82
1, 753484, Note_on_c, 0, 31, 0
1, 753484, Note_on_c, 0, 70, 82
1, 753484, Note_on_c, 0, 76, 110
1, 753487, Note_on_c, 0, 40, 0
1, 753487, Note_on_c, 0, 31, 117
1, 753487, Note_on_c, 0, 40, 99
1, 753543, Control_c, 0, 64, 0
1, 753543, Control_c, 0, 64, 0
1, 753603, Note_on_c, 0, 76, 0
1, 753603, Note_on_c, 0, 75, 109
1, 753622, Control_c, 0, 64, 127
1, 753622, Control_c, 0, 64, 127
1, 753705, Note_on_c, 0, 75, 0
1, 753705, Note_on_c, 0, 76, 112
1, 753807, Note_on_c, 0, 62, 0
1, 753807, Note_on_c, 0, 64, 0
1, 753807, Note_on_c, 0, 70, 0
1, 753810, Note_on_c, 0, 76, 0
1, 753810, Note_on_c, 0, 76, 115
1, 753810, Note_on_c, 0, 62, 87
1, 753813, Note_on_c, 0, 31, 0
1, 753813, Note_on_c, 0, 64, 87
1, 753813, Note_on_c, 0, 71, 87
1, 753816, Note_on_c, 0, 40, 0
1, 753816, Note_on_c, 0, 32, 117
1, 753816, Note_on_c, 0, 40, 98
1, 753841, Control_c, 0, 64, 0
1, 753841, Control_c, 0, 64, 0
1, 753909, Note_on_c, 0, 62, 0
1, 753909, Note_on_c, 0, 76, 0
1, 753909, Note_on_c, 0, 76, 117
1, 753912, Note_on_c, 0, 71, 0
1, 753912, Note_on_c, 0, 64, 0
1, 753912, Note_on_c, 0, 62, 87
1, 753915, Note_on_c, 0, 32, 0
1, 753915, Note_on_c, 0, 64, 87
1, 753915, Note_on_c, 0, 71, 87
1, 753918, Note_on_c, 0, 40, 0
1, 753918, Note_on_c, 0, 32, 117
1, 753918, Note_on_c, 0, 40, 100
1, 753932, Control_c, 0, 64, 127
1, 753932, Control_c, 0, 64, 127
1, 754012, Note_on_c, 0, 76, 0
1, 754012, Note_on_c, 0, 75, 117
1, 754114, Note_on_c, 0, 75, 0
1, 754114, Note_on_c, 0, 76, 117
1, 754147, Control_c, 0, 64, 0
1, 754147, Control_c, 0, 64, 0
1, 754246, Note_on_c, 0, 76, 0
1, 754246, Note_on_c, 0, 64, 0
1, 754246, Note_on_c, 0, 62, 0
1, 754249, Note_on_c, 0, 71, 0
1, 754249, Note_on_c, 0, 62, 97
1, 754249, Note_on_c, 0, 67, 97
1, 754252, Note_on_c, 0, 32, 0
1, 754252, Note_on_c, 0, 40, 0
1, 754252, Note_on_c, 0, 71, 112
1, 754255, Note_on_c, 0, 53, 112
1, 754255, Note_on_c, 0, 55, 97
1, 754301, Control_c, 0, 64, 127
1, 754301, Control_c, 0, 64, 127
1, 754358, Note_on_c, 0, 62, 0
1, 754358, Note_on_c, 0, 67, 0
1, 754358, Control_c, 0, 64, 127
1, 754361, Note_on_c, 0, 71, 0
1, 754361, Note_on_c, 0, 62, 88
1, 754361, Note_on_c, 0, 67, 101
1, 754364, Note_on_c, 0, 53, 0
1, 754364, Note_on_c, 0, 71, 88
1, 754364, Control_c, 0, 64, 127
1, 754367, Note_on_c, 0, 55, 0
1, 754367, Note_on_c, 0, 55, 89
1, 754367, Note_on_c, 0, 53, 103
1, 754449, Control_c, 0, 64, 0
1, 754449, Control_c, 0, 64, 0
1, 754460, Note_on_c, 0, 53, 0
1, 754460, Note_on_c, 0, 52, 105
1, 754562, Note_on_c, 0, 52, 0
1, 754562, Note_on_c, 0, 53, 106
1, 754664, Note_on_c, 0, 67, 0
1, 754664, Note_on_c, 0, 71, 0
1, 754664, Note_on_c, 0, 62, 0
1, 754667, Note_on_c, 0, 60, 90
1, 754667, Note_on_c, 0, 67, 108
1, 754667, Note_on_c, 0, 72, 115
1, 754670, Note_on_c, 0, 55, 0
1, 754670, Note_on_c, 0, 53, 0
1, 754670, Note_on_c, 0, 52, 108
1, 754673, Note_on_c, 0, 55, 95
1, 754676, Control_c, 0, 64, 127
1, 754676, Control_c, 0, 64, 127
1, 754767, Note_on_c, 0, 67, 0
1, 754767, Note_on_c, 0, 72, 0
1, 754767, Note_on_c, 0, 60, 0
1, 754770, Note_on_c, 0, 60, 90
1, 754770, Note_on_c, 0, 67, 110
1, 754770, Note_on_c, 0, 72, 115
1, 754773, Note_on_c, 0, 52, 0
1, 754773, Note_on_c, 0, 55, 0
1, 754773, Note_on_c, 0, 52, 110
1, 754776, Note_on_c, 0, 55, 110
1, 754869, Note_on_c, 0, 52, 0
1, 754869, Note_on_c, 0, 51, 111
1, 754971, Note_on_c, 0, 51, 0
1, 754971, Note_on_c, 0, 52, 113
1, 755073, Note_on_c, 0, 72, 0
1, 755073, Note_on_c, 0, 67, 0
1, 755073, Note_on_c, 0, 60, 0
1, 755076, Note_on_c, 0, 65, 84
1, 755076, Note_on_c, 0, 67, 84
1, 755076, Note_on_c, 0, 73, 84
1, 755079, Note_on_c, 0, 55, 0
1, 755079, Note_on_c, 0, 52, 0
1, 755079, Note_on_c, 0, 79, 111
1, 755082, Note_on_c, 0, 46, 117
1, 755082, Note_on_c, 0, 55, 96
1, 755198, Note_on_c, 0, 67, 0
1, 755198, Note_on_c, 0, 73, 0
1, 755198, Note_on_c, 0, 65, 0
1, 755201, Note_on_c, 0, 79, 0
1, 755201, Note_on_c, 0, 65, 82
1, 755201, Note_on_c, 0, 67, 82
1, 755204, Note_on_c, 0, 46, 0
1, 755204, Note_on_c, 0, 73, 82
1, 755204, Note_on_c, 0, 79, 110
1, 755207, Note_on_c, 0, 55, 0
1, 755207, Note_on_c, 0, 46, 117
1, 755207, Note_on_c, 0, 55, 99
1, 755263, Control_c, 0, 64, 0
1, 755263, Control_c, 0, 64, 0
1, 755322, Note_on_c, 0, 79, 0
1, 755322, Note_on_c, 0, 78, 109
1, 755341, Control_c, 0, 64, 127
1, 755341, Control_c, 0, 64, 127
1, 755425, Note_on_c, 0, 78, 0
1, 755425, Note_on_c, 0, 79, 102
1, 755527, Note_on_c, 0, 65, 0
1, 755527, Note_on_c, 0, 67, 0
1, 755527, Note_on_c, 0, 73, 0
1, 755530, Note_on_c, 0, 79, 0
1, 755530, Note_on_c, 0, 79, 115
1, 755530, Note_on_c, 0, 65, 87
1, 755533, Note_on_c, 0, 46, 0
1, 755533, Note_on_c, 0, 67, 87
1, 755533, Note_on_c, 0, 74, 87
1, 755536, Note_on_c, 0, 55, 0
1, 755536, Note_on_c, 0, 47, 117
1, 755536, Note_on_c, 0, 55, 98
1, 755561, Control_c, 0, 64, 0
1, 755561, Control_c, 0, 64, 0
1, 755629, Note_on_c, 0, 65, 0
1, 755629, Note_on_c, 0, 79, 0
1, 755629, Note_on_c, 0, 79, 117
1, 755632, Note_on_c, 0, 74, 0
1, 755632, Note_on_c, 0, 67, 0
1, 755632, Note_on_c, 0, 65, 87
1, 755635, Note_on_c, 0, 47, 0
1, 755635, Note_on_c, 0, 67, 87
1, 755635, Note_on_c, 0, 74, 87
1, 755638, Note_on_c, 0, 55, 0
1, 755638, Note_on_c, 0, 47, 117
1, 755638, Note_on_c, 0, 55, 100
1, 755651, Control_c, 0, 64, 127
1, 755651, Control_c, 0, 64, 127
1, 755731, Note_on_c, 0, 79, 0
1, 755731, Note_on_c, 0, 78, 117
1, 755833, Note_on_c, 0, 78, 0
1, 755833, Note_on_c, 0, 79, 117
1, 755867, Control_c, 0, 64, 0
1, 755867, Control_c, 0, 64, 0
1, 755965, Note_on_c, 0, 79, 0
1, 755965, Note_on_c, 0, 67, 0
1, 755965, Note_on_c, 0, 65, 0
1, 755968, Note_on_c, 0, 74, 0
1, 755968, Note_on_c, 0, 47, 0
1, 755968, Note_on_c, 0, 55, 0
1, 755971, Note_on_c, 0, 48, 112
1, 755971, Note_on_c, 0, 55, 97
1, 756030, Control_c, 0, 64, 127
1, 756030, Control_c, 0, 64, 127
1, 756097, Note_on_c, 0, 72, 103
1, 756097, Note_on_c, 0, 76, 103
1, 756097, Note_on_c, 0, 79, 103
1, 756100, Note_on_c, 0, 55, 0
1, 756100, Note_on_c, 0, 48, 0
1, 756100, Note_on_c, 0, 84, 117
1, 756103, Note_on_c, 0, 48, 117
1, 756103, Note_on_c, 0, 55, 106
1, 756162, Control_c, 0, 64, 0
1, 756162, Control_c, 0, 64, 0
1, 756222, Note_on_c, 0, 54, 92
1, 756236, Control_c, 0, 64, 127
1, 756236, Control_c, 0, 64, 127
1, 756347, Note_on_c, 0, 54, 0
1, 756347, Note_on_c, 0, 55, 92
1, 756449, Note_on_c, 0, 55, 0
1, 756449, Note_on_c, 0, 55, 0
1, 756449, Note_on_c, 0, 48, 0
1, 756452, Note_on_c, 0, 55, 106
1, 756452, Note_on_c, 0, 62, 99
1, 756551, Note_on_c, 0, 76, 0
1, 756551, Note_on_c, 0, 72, 0
1, 756551, Control_c, 0, 64, 0
1, 756554, Note_on_c, 0, 84, 0
1, 756554, Note_on_c, 0, 79, 0
1, 756554, Note_on_c, 0, 67, 103
1, 756557, Note_on_c, 0, 71, 103
1, 756557, Note_on_c, 0, 74, 103
1, 756557, Note_on_c, 0, 79, 117
1, 756560, Note_on_c, 0, 62, 0
1, 756560, Note_on_c, 0, 55, 0
1, 756560, Control_c, 0, 64, 0
1, 756563, Note_on_c, 0, 55, 106
1, 756563, Note_on_c, 0, 62, 99
1, 756633, Control_c, 0, 64, 127
1, 756633, Control_c, 0, 64, 127
1, 756653, Note_on_c, 0, 61, 99
1, 756755, Note_on_c, 0, 61, 0
1, 756755, Note_on_c, 0, 62, 99
1, 756857, Note_on_c, 0, 62, 0
1, 756857, Note_on_c, 0, 62, 0
1, 756857, Note_on_c, 0, 55, 0
1, 756860, Note_on_c, 0, 48, 117
1, 756860, Note_on_c, 0, 55, 106
1, 756960, Note_on_c, 0, 71, 0
1, 756960, Note_on_c, 0, 74, 0
1, 756960, Note_on_c, 0, 67, 0
1, 756963, Note_on_c, 0, 79, 0
1, 756963, Note_on_c, 0, 64, 103
1, 756963, Note_on_c, 0, 67, 103
1, 756966, Note_on_c, 0, 48, 0
1, 756966, Note_on_c, 0, 72, 103
1, 756966, Note_on_c, 0, 76, 117
1, 756969, Note_on_c, 0, 55, 0
1, 756969, Note_on_c, 0, 48, 117
1, 756969, Note_on_c, 0, 55, 106
1, 756990, Control_c, 0, 64, 0
1, 756990, Control_c, 0, 64, 0
1, 757062, Note_on_c, 0, 54, 92
1, 757065, Control_c, 0, 64, 127
1, 757065, Control_c, 0, 64, 127
1, 757164, Note_on_c, 0, 54, 0
1, 757164, Note_on_c, 0, 55, 92
1, 757266, Note_on_c, 0, 55, 0
1, 757266, Note_on_c, 0, 55, 0
1, 757266, Note_on_c, 0, 48, 0
1, 757269, Note_on_c, 0, 55, 106
1, 757269, Note_on_c, 0, 62, 99
1, 757368, Note_on_c, 0, 67, 0
1, 757368, Note_on_c, 0, 64, 0
1, 757368, Control_c, 0, 64, 0
1, 757371, Note_on_c, 0, 76, 0
1, 757371, Note_on_c, 0, 72, 0
1, 757371, Note_on_c, 0, 59, 103
1, 757374, Note_on_c, 0, 65, 103
1, 757374, Note_on_c, 0, 67, 103
1, 757374, Note_on_c, 0, 71, 117
1, 757377, Note_on_c, 0, 62, 0
1, 757377, Note_on_c, 0, 55, 0
1, 757377, Control_c, 0, 64, 0
1, 757380, Note_on_c, 0, 55, 106
1, 757380, Note_on_c, 0, 62, 99
1, 757465, Control_c, 0, 64, 127
1, 757465, Control_c, 0, 64, 127
1, 757470, Note_on_c, 0, 61, 99
1, 757572, Note_on_c, 0, 61, 0
1, 757572, Note_on_c, 0, 62, 93
1, 757674, Note_on_c, 0, 62, 0
1, 757674, Note_on_c, 0, 62, 0
1, 757674, Note_on_c, 0, 55, 0
1, 757677, Note_on_c, 0, 48, 117
1, 757677, Note_on_c, 0, 55, 106
1, 757776, Note_on_c, 0, 65, 0
1, 757776, Note_on_c, 0, 67, 0
1, 757776, Note_on_c, 0, 59, 0
1, 757779, Note_on_c, 0, 71, 0
1, 757779, Note_on_c, 0, 60, 98
1, 757779, Note_on_c, 0, 64, 98
1, 757782, Note_on_c, 0, 48, 0
1, 757782, Note_on_c, 0, 55, 0
1, 757782, Note_on_c, 0, 72, 117
1, 757785, Note_on_c, 0, 48, 111
1, 757785, Note_on_c, 0, 55, 99
1, 757829, Control_c, 0, 64, 0
1, 757829, Control_c, 0, 64, 0
1, 757879, Note_on_c, 0, 54, 92
1, 757905, Control_c, 0, 64, 127
1, 757905, Control_c, 0, 64, 127
1, 757981, Note_on_c, 0, 54, 0
1, 757981, Note_on_c, 0, 55, 92
1, 758083, Note_on_c, 0, 60, 0
1, 758083, Note_on_c, 0, 64, 0
1, 758083, Note_on_c, 0, 72, 0
1, 758086, Note_on_c, 0, 59, 98
1, 758086, Note_on_c, 0, 64, 98
1, 758086, Note_on_c, 0, 71, 117
1, 758089, Note_on_c, 0, 48, 0
1, 758089, Note_on_c, 0, 55, 0
1, 758089, Note_on_c, 0, 55, 0
1, 758092, Note_on_c, 0, 48, 111
1, 758092, Note_on_c, 0, 55, 99
1, 758185, Note_on_c, 0, 59, 0
1, 758185, Note_on_c, 0, 71, 0
1, 758185, Note_on_c, 0, 64, 0
1, 758188, Note_on_c, 0, 57, 98
1, 758188, Note_on_c, 0, 64, 98
1, 758188, Note_on_c, 0, 69, 117
1, 758191, Note_on_c, 0, 48, 0
1, 758191, Note_on_c, 0, 55, 0
1, 758191, Note_on_c, 0, 48, 111
1, 758194, Control_c, 0, 64, 0
1, 758194, Note_on_c, 0, 55, 99
1, 758194, Control_c, 0, 64, 0
1, 758274, Control_c, 0, 64, 127
1, 758274, Control_c, 0, 64, 127
1, 758287, Note_on_c, 0, 54, 92
1, 758389, Note_on_c, 0, 54, 0
1, 758389, Note_on_c, 0, 55, 92
1, 758491, Note_on_c, 0, 57, 0
1, 758491, Note_on_c, 0, 69, 0
1, 758491, Note_on_c, 0, 64, 0
1, 758494, Note_on_c, 0, 58, 98
1, 758494, Note_on_c, 0, 64, 98
1, 758494, Note_on_c, 0, 70, 117
1, 758497, Note_on_c, 0, 48, 0
1, 758497, Note_on_c, 0, 55, 0
1, 758497, Note_on_c, 0, 55, 0
1, 758500, Note_on_c, 0, 48, 111
1, 758500, Note_on_c, 0, 54, 99
1, 758652, Note_on_c, 0, 58, 0
1, 758652, Note_on_c, 0, 70, 0
1, 758652, Note_on_c, 0, 64, 0
1, 758655, Note_on_c, 0, 71, 103
1, 758655, Note_on_c, 0, 75, 103
1, 758655, Note_on_c, 0, 78, 103
1, 758658, Note_on_c, 0, 48, 0
1, 758658, Note_on_c, 0, 54, 0
1, 758658, Note_on_c, 0, 83, 117
1, 758661, Note_on_c, 0, 47, 117
1, 758661, Note_on_c, 0, 54, 106
1, 758705, Control_c, 0, 64, 0
1, 758705, Control_c, 0, 64, 0
1, 758754, Note_on_c, 0, 53, 92
1, 758765, Control_c, 0, 64, 127
1, 758765, Control_c, 0, 64, 127
1, 758856, Note_on_c, 0, 53, 0
1, 758856, Note_on_c, 0, 54, 92
1, 758958, Note_on_c, 0, 54, 0
1, 758958, Note_on_c, 0, 54, 0
1, 758958, Note_on_c, 0, 47, 0
1, 758961, Note_on_c, 0, 54, 106
1, 758961, Note_on_c, 0, 61, 99
1, 759060, Note_on_c, 0, 75, 0
1, 759060, Note_on_c, 0, 71, 0
1, 759060, Control_c, 0, 64, 0
1, 759063, Note_on_c, 0, 83, 0
1, 759063, Note_on_c, 0, 78, 0
1, 759063, Note_on_c, 0, 66, 103
1, 759066, Note_on_c, 0, 70, 103
1, 759066, Note_on_c, 0, 73, 103
1, 759066, Note_on_c, 0, 78, 117
1, 759069, Note_on_c, 0, 61, 0
1, 759069, Note_on_c, 0, 54, 0
1, 759069, Control_c, 0, 64, 0
1, 759072, Note_on_c, 0, 54, 106
1, 759072, Note_on_c, 0, 61, 99
1, 759142, Control_c, 0, 64, 127
1, 759142, Control_c, 0, 64, 127
1, 759162, Note_on_c, 0, 60, 99
1, 759264, Note_on_c, 0, 60, 0
1, 759264, Note_on_c, 0, 61, 99
1, 759366, Note_on_c, 0, 61, 0
1, 759366, Note_on_c, 0, 61, 0
1, 759366, Note_on_c, 0, 54, 0
1, 759369, Note_on_c, 0, 47, 117
1, 759369, Note_on_c, 0, 54, 106
1, 759469, Note_on_c, 0, 70, 0
1, 759469, Note_on_c, 0, 73, 0
1, 759469, Note_on_c, 0, 66, 0
1, 759472, Note_on_c, 0, 78, 0
1, 759472, Note_on_c, 0, 63, 103
1, 759472, Note_on_c, 0, 66, 103
1, 759475, Note_on_c, 0, 47, 0
1, 759475, Note_on_c, 0, 71, 103
1, 759475, Note_on_c, 0, 75, 117
1, 759478, Note_on_c, 0, 54, 0
1, 759478, Note_on_c, 0, 47, 117
1, 759478, Note_on_c, 0, 54, 106
1, 759499, Control_c, 0, 64, 0
1, 759499, Control_c, 0, 64, 0
1, 759571, Note_on_c, 0, 53, 92
1, 759574, Control_c, 0, 64, 127
1, 759574, Control_c, 0, 64, 127
1, 759673, Note_on_c, 0, 53, 0
1, 759673, Note_on_c, 0, 54, 92
1, 759775, Note_on_c, 0, 54, 0
1, 759775, Note_on_c, 0, 54, 0
1, 759775, Note_on_c, 0, 47, 0
1, 759778, Note_on_c, 0, 54, 106
1, 759778, Note_on_c, 0, 61, 99
1, 759877, Note_on_c, 0, 66, 0
1, 759877, Note_on_c, 0, 63, 0
1, 759877, Control_c, 0, 64, 0
1, 759880, Note_on_c, 0, 75, 0
1, 759880, Note_on_c, 0, 71, 0
1, 759880, Note_on_c, 0, 58, 103
1, 759883, Note_on_c, 0, 64, 103
1, 759883, Note_on_c, 0, 66, 103
1, 759883, Note_on_c, 0, 70, 117
1, 759886, Note_on_c, 0, 61, 0
1, 759886, Note_on_c, 0, 54, 0
1, 759886, Control_c, 0, 64, 0
1, 759889, Note_on_c, 0, 54, 106
1, 759889, Note_on_c, 0, 61, 99
1, 759973, Control_c, 0, 64, 127
1, 759973, Control_c, 0, 64, 127
1, 759979, Note_on_c, 0, 60, 99
1, 760081, Note_on_c, 0, 60, 0
1, 760081, Note_on_c, 0, 61, 99
1, 760183, Note_on_c, 0, 58, 0
1, 760183, Note_on_c, 0, 64, 0
1, 760183, Note_on_c, 0, 66, 0
1, 760186, Note_on_c, 0, 70, 0
1, 760186, Note_on_c, 0, 59, 110
1, 760186, Note_on_c, 0, 63, 110
1, 760189, Note_on_c, 0, 54, 0
1, 760189, Note_on_c, 0, 61, 0
1, 760189, Note_on_c, 0, 71, 117
1, 760192, Note_on_c, 0, 61, 0
1, 760192, Note_on_c, 0, 47, 117
1, 760192, Note_on_c, 0, 54, 106
1, 760324, Note_on_c, 0, 59, 0
1, 760324, Note_on_c, 0, 71, 0
1, 760324, Note_on_c, 0, 63, 0
1, 760327, Note_on_c, 0, 59, 110
1, 760327, Note_on_c, 0, 63, 110
1, 760327, Note_on_c, 0, 71, 117
1, 760330, Note_on_c, 0, 47, 0
1, 760330, Note_on_c, 0, 54, 0
1, 760330, Note_on_c, 0, 47, 111
1, 760333, Note_on_c, 0, 54, 110
1, 760389, Control_c, 0, 64, 0
1, 760389, Control_c, 0, 64, 0
1, 760448, Note_on_c, 0, 54, 0
1, 760448, Note_on_c, 0, 55, 106
1, 760481, Control_c, 0, 64, 127
1, 760481, Control_c, 0, 64, 127
1, 760573, Note_on_c, 0, 55, 0
1, 760573, Note_on_c, 0, 56, 106
1, 760698, Note_on_c, 0, 63, 0
1, 760698, Note_on_c, 0, 71, 0
1, 760698, Note_on_c, 0, 59, 0
1, 760701, Note_on_c, 0, 56, 0
1, 760701, Note_on_c, 0, 61, 110
1, 760701, Note_on_c, 0, 69, 117
1, 760704, Note_on_c, 0, 57, 106
1, 760823, Note_on_c, 0, 69, 0
1, 760823, Note_on_c, 0, 61, 0
1, 760823, Note_on_c, 0, 68, 117
1, 760826, Note_on_c, 0, 47, 0
1, 760826, Note_on_c, 0, 59, 117
1, 760826, Note_on_c, 0, 63, 110
1, 760829, Note_on_c, 0, 57, 0
1, 760829, Note_on_c, 0, 47, 111
1, 760833, Control_c, 0, 64, 0
1, 760833, Control_c, 0, 64, 0
1, 760938, Control_c, 0, 64, 127
1, 760938, Control_c, 0, 64, 127
1, 760955, Note_on_c, 0, 63, 0
1, 760955, Note_on_c, 0, 59, 0
1, 760955, Note_on_c, 0, 60, 117
1, 761026, Control_c, 0, 64, 0
1, 761026, Control_c, 0, 64, 0
1, 761087, Note_on_c, 0, 60, 0
1, 761087, Note_on_c, 0, 61, 117
1, 761219, Note_on_c, 0, 61, 0
1, 761219, Note_on_c, 0, 68, 0
1, 761219, Note_on_c, 0, 57, 110
1, 761222, Note_on_c, 0, 47, 0
1, 761222, Note_on_c, 0, 63, 110
1, 761222, Note_on_c, 0, 66, 117
1, 761225, Note_on_c, 0, 35, 111
1, 761225, Note_on_c, 0, 47, 99
1, 761230, Control_c, 0, 64, 127
1, 761230, Control_c, 0, 64, 127
1, 761316, Control_c, 0, 64, 0
1, 761316, Control_c, 0, 64, 0
1, 761360, Note_on_c, 0, 63, 0
1, 761360, Note_on_c, 0, 57, 0
1, 761360, Control_c, 0, 64, 127
1, 761363, Note_on_c, 0, 66, 0
1, 761363, Note_on_c, 0, 56, 92
1, 761363, Note_on_c, 0, 64, 116
1, 761366, Note_on_c, 0, 35, 0
1, 761366, Note_on_c, 0, 47, 0
1, 761366, Control_c, 0, 64, 127
1, 761369, Note_on_c, 0, 40, 111
1, 761369, Note_on_c, 0, 47, 99
1, 761422, Control_c, 0, 64, 0
1, 761422, Control_c, 0, 64, 0
1, 761439, Control_c, 0, 64, 0
1, 761439, Control_c, 0, 64, 0
1, 761472, Note_on_c, 0, 55, 99
1, 761472, Control_c, 0, 64, 127
1, 761472, Note_on_c, 0, 46, 93
1, 761472, Control_c, 0, 64, 127
1, 761584, Note_on_c, 0, 46, 0
1, 761584, Note_on_c, 0, 55, 0
1, 761584, Note_on_c, 0, 56, 99
1, 761587, Note_on_c, 0, 47, 93
1, 761709, Note_on_c, 0, 64, 0
1, 761709, Note_on_c, 0, 56, 0
1, 761709, Note_on_c, 0, 61, 103
1, 761712, Note_on_c, 0, 56, 0
1, 761712, Note_on_c, 0, 40, 0
1, 761712, Note_on_c, 0, 68, 117
1, 761715, Note_on_c, 0, 47, 0
1, 761715, Note_on_c, 0, 52, 99
1, 761715, Note_on_c, 0, 57, 99
1, 761718, Note_on_c, 0, 47, 0
1, 761834, Note_on_c, 0, 68, 0
1, 761834, Note_on_c, 0, 61, 0
1, 761834, Note_on_c, 0, 61, 103
1, 761837, Note_on_c, 0, 52, 0
1, 761837, Note_on_c, 0, 57, 0
1, 761837, Note_on_c, 0, 68, 117
1, 761840, Note_on_c, 0, 52, 111
1, 761840, Note_on_c, 0, 57, 99
1, 761863, Control_c, 0, 64, 0
1, 761863, Control_c, 0, 64, 0
1, 761959, Control_c, 0, 64, 127
1, 761959, Note_on_c, 0, 60, 103
1, 761959, Control_c, 0, 64, 127
1, 761962, Note_on_c, 0, 56, 93
1, 762084, Note_on_c, 0, 56, 0
1, 762084, Note_on_c, 0, 60, 0
1, 762084, Note_on_c, 0, 61, 103
1, 762087, Note_on_c, 0, 57, 93
1, 762186, Note_on_c, 0, 61, 0
1, 762186, Note_on_c, 0, 68, 0
1, 762186, Note_on_c, 0, 57, 99
1, 762189, Note_on_c, 0, 61, 0
1, 762189, Note_on_c, 0, 63, 99
1, 762189, Note_on_c, 0, 66, 117
1, 762192, Note_on_c, 0, 57, 0
1, 762192, Note_on_c, 0, 52, 0
1, 762192, Note_on_c, 0, 40, 111
1, 762195, Note_on_c, 0, 57, 0
1, 762195, Note_on_c, 0, 47, 99
1, 762288, Note_on_c, 0, 63, 0
1, 762288, Note_on_c, 0, 57, 0
1, 762288, Control_c, 0, 64, 127
1, 762291, Note_on_c, 0, 66, 0
1, 762291, Note_on_c, 0, 56, 92
1, 762291, Note_on_c, 0, 64, 116
1, 762294, Note_on_c, 0, 40, 0
1, 762294, Note_on_c, 0, 47, 0
1, 762294, Control_c, 0, 64, 127
1, 762297, Note_on_c, 0, 40, 111
1, 762297, Note_on_c, 0, 47, 99
1, 762344, Control_c, 0, 64, 0
1, 762344, Control_c, 0, 64, 0
1, 762360, Control_c, 0, 64, 0
1, 762360, Control_c, 0, 64, 0
1, 762390, Note_on_c, 0, 55, 99
1, 762390, Control_c, 0, 64, 127
1, 762390, Note_on_c, 0, 46, 93
1, 762390, Control_c, 0, 64, 127
1, 762492, Note_on_c, 0, 46, 0
1, 762492, Note_on_c, 0, 55, 0
1, 762492, Note_on_c, 0, 56, 99
1, 762495, Note_on_c, 0, 47, 93
1, 762594, Note_on_c, 0, 64, 0
1, 762594, Note_on_c, 0, 56, 0
1, 762594, Note_on_c, 0, 61, 103
1, 762597, Note_on_c, 0, 56, 0
1, 762597, Note_on_c, 0, 40, 0
1, 762597, Note_on_c, 0, 68, 117
1, 762600, Note_on_c, 0, 47, 0
1, 762600, Note_on_c, 0, 52, 99
1, 762600, Note_on_c, 0, 57, 99
1, 762603, Note_on_c, 0, 47, 0
1, 762696, Note_on_c, 0, 68, 0
1, 762696, Note_on_c, 0, 61, 0
1, 762696, Note_on_c, 0, 61, 103
1, 762699, Note_on_c, 0, 52, 0
1, 762699, Note_on_c, 0, 57, 0
1, 762699, Note_on_c, 0, 68, 117
1, 762702, Note_on_c, 0, 52, 111
1, 762702, Note_on_c, 0, 57, 99
1, 762720, Control_c, 0, 64, 0
1, 762720, Control_c, 0, 64, 0
1, 762798, Control_c, 0, 64, 127
1, 762798, Note_on_c, 0, 60, 103
1, 762798, Control_c, 0, 64, 127
1, 762801, Note_on_c, 0, 56, 93
1, 762900, Note_on_c, 0, 56, 0
1, 762900, Note_on_c, 0, 60, 0
1, 762900, Note_on_c, 0, 61, 103
1, 762903, Note_on_c, 0, 57, 93
1, 763003, Note_on_c, 0, 61, 0
1, 763003, Note_on_c, 0, 68, 0
1, 763003, Note_on_c, 0, 57, 99
1, 763006, Note_on_c, 0, 61, 0
1, 763006, Note_on_c, 0, 63, 99
1, 763006, Note_on_c, 0, 66, 117
1, 763009, Note_on_c, 0, 57, 0
1, 763009, Note_on_c, 0, 52, 0
1, 763009, Note_on_c, 0, 40, 111
1, 763012, Note_on_c, 0, 57, 0
1, 763012, Note_on_c, 0, 47, 99
1, 763105, Note_on_c, 0, 63, 0
1, 763105, Note_on_c, 0, 57, 0
1, 763105, Control_c, 0, 64, 127
1, 763108, Note_on_c, 0, 66, 0
1, 763108, Note_on_c, 0, 56, 110
1, 763108, Note_on_c, 0, 64, 117
1, 763111, Note_on_c, 0, 40, 0
1, 763111, Note_on_c, 0, 47, 0
1, 763111, Control_c, 0, 64, 127
1, 763114, Note_on_c, 0, 40, 90
1, 763114, Note_on_c, 0, 47, 90
1, 763155, Control_c, 0, 64, 0
1, 763155, Control_c, 0, 64, 0
1, 763217, Note_on_c, 0, 47, 0
1, 763217, Note_on_c, 0, 46, 91
1, 763329, Note_on_c, 0, 46, 0
1, 763329, Note_on_c, 0, 47, 91
1, 763442, Note_on_c, 0, 56, 0
1, 763442, Note_on_c, 0, 64, 0
1, 763442, Note_on_c, 0, 55, 85
1, 763445, Note_on_c, 0, 40, 0
1, 763445, Note_on_c, 0, 47, 0
1, 763445, Note_on_c, 0, 60, 103
1, 763448, Note_on_c, 0, 40, 92
1, 763448, Note_on_c, 0, 48, 92
1, 763554, Note_on_c, 0, 60, 0
1, 763554, Note_on_c, 0, 55, 0
1, 763554, Note_on_c, 0, 55, 86
1, 763557, Note_on_c, 0, 40, 0
1, 763557, Note_on_c, 0, 48, 0
1, 763557, Note_on_c, 0, 60, 105
1, 763560, Note_on_c, 0, 40, 93
1, 763560, Note_on_c, 0, 48, 93
1, 763666, Note_on_c, 0, 40, 0
1, 763666, Note_on_c, 0, 39, 94
1, 763779, Note_on_c, 0, 39, 0
1, 763779, Note_on_c, 0, 40, 94
1, 763891, Note_on_c, 0, 55, 0
1, 763891, Note_on_c, 0, 60, 0
1, 763891, Note_on_c, 0, 57, 89
1, 763894, Note_on_c, 0, 48, 0
1, 763894, Note_on_c, 0, 40, 0
1, 763894, Note_on_c, 0, 62, 109
1, 763897, Note_on_c, 0, 41, 95
1, 763897, Note_on_c, 0, 48, 95
1, 764003, Note_on_c, 0, 62, 0
1, 764003, Note_on_c, 0, 57, 0
1, 764003, Note_on_c, 0, 57, 90
1, 764006, Note_on_c, 0, 41, 0
1, 764006, Note_on_c, 0, 48, 0
1, 764006, Note_on_c, 0, 62, 110
1, 764009, Note_on_c, 0, 41, 96
1, 764009, Note_on_c, 0, 48, 96
1, 764116, Note_on_c, 0, 48, 0
1, 764116, Note_on_c, 0, 47, 97
1, 764228, Note_on_c, 0, 47, 0
1, 764228, Note_on_c, 0, 48, 97
1, 764340, Note_on_c, 0, 62, 0
1, 764340, Note_on_c, 0, 57, 0
1, 764340, Note_on_c, 0, 53, 93
1, 764343, Note_on_c, 0, 41, 0
1, 764343, Note_on_c, 0, 55, 93
1, 764343, Note_on_c, 0, 62, 107
1, 764346, Note_on_c, 0, 48, 0
1, 764346, Note_on_c, 0, 43, 98
1, 764346, Note_on_c, 0, 47, 98
1, 764452, Note_on_c, 0, 53, 0
1, 764452, Note_on_c, 0, 62, 0
1, 764452, Note_on_c, 0, 55, 0
1, 764455, Note_on_c, 0, 53, 95
1, 764455, Note_on_c, 0, 55, 95
1, 764455, Note_on_c, 0, 62, 108
1, 764458, Note_on_c, 0, 43, 0
1, 764458, Note_on_c, 0, 47, 0
1, 764458, Note_on_c, 0, 43, 99
1, 764461, Note_on_c, 0, 47, 99
1, 764565, Note_on_c, 0, 43, 0
1, 764565, Note_on_c, 0, 42, 100
1, 764677, Note_on_c, 0, 42, 0
1, 764677, Note_on_c, 0, 43, 100
1, 764789, Note_on_c, 0, 62, 0
1, 764789, Note_on_c, 0, 55, 0
1, 764789, Note_on_c, 0, 53, 0
1, 764792, Note_on_c, 0, 52, 98
1, 764792, Note_on_c, 0, 55, 98
1, 764792, Note_on_c, 0, 60, 112
1, 764795, Note_on_c, 0, 47, 0
1, 764795, Note_on_c, 0, 43, 0
1, 764795, Note_on_c, 0, 36, 101
1, 764798, Note_on_c, 0, 43, 101
1, 764902, Note_on_c, 0, 55, 0
1, 764902, Note_on_c, 0, 60, 0
1, 764902, Note_on_c, 0, 52, 0
1, 764905, Note_on_c, 0, 52, 108
1, 764905, Note_on_c, 0, 55, 108
1, 764905, Note_on_c, 0, 60, 117
1, 764908, Note_on_c, 0, 36, 0
1, 764908, Note_on_c, 0, 43, 0
1, 764908, Note_on_c, 0, 36, 117
1, 764911, Note_on_c, 0, 43, 99
1, 764985, Control_c, 0, 64, 127
1, 764985, Control_c, 0, 64, 127
1, 765027, Note_on_c, 0, 42, 92
1, 765129, Note_on_c, 0, 42, 0
1, 765129, Note_on_c, 0, 43, 92
1, 765231, Note_on_c, 0, 52, 0
1, 765231, Note_on_c, 0, 60, 0
1, 765231, Note_on_c, 0, 55, 0
1, 765234, Note_on_c, 0, 65, 108
1, 765234, Note_on_c, 0, 67, 108
1, 765234, Note_on_c, 0, 76, 108
1, 765237, Note_on_c, 0, 36, 0
1, 765237, Note_on_c, 0, 43, 0
1, 765237, Note_on_c, 0, 79, 117
1, 765240, Note_on_c, 0, 43, 0
1, 765240, Note_on_c, 0, 48, 99
1, 765240, Note_on_c, 0, 55, 103
1, 765356, Note_on_c, 0, 67, 0
1, 765356, Note_on_c, 0, 65, 0
1, 765356, Note_on_c, 0, 76, 0
1, 765359, Note_on_c, 0, 79, 0
1, 765359, Note_on_c, 0, 65, 108
1, 765359, Note_on_c, 0, 67, 108
1, 765362, Note_on_c, 0, 48, 0
1, 765362, Note_on_c, 0, 76, 108
1, 765362, Note_on_c, 0, 79, 117
1, 765365, Note_on_c, 0, 55, 0
1, 765365, Note_on_c, 0, 48, 99
1, 765365, Note_on_c, 0, 55, 103
1, 765401, Control_c, 0, 64, 0
1, 765401, Control_c, 0, 64, 0
1, 765480, Note_on_c, 0, 54, 103
1, 765505, Control_c, 0, 64, 127
1, 765505, Control_c, 0, 64, 127
1, 765582, Note_on_c, 0, 54, 0
1, 765582, Note_on_c, 0, 55, 103
1, 765685, Note_on_c, 0, 65, 0
1, 765685, Note_on_c, 0, 67, 0
1, 765685, Note_on_c, 0, 76, 0
1, 765688, Note_on_c, 0, 79, 0
1, 765688, Note_on_c, 0, 55, 0
1, 765688, Note_on_c, 0, 74, 114
1, 765691, Note_on_c, 0, 55, 0
1, 765691, Note_on_c, 0, 48, 0
1, 765691, Note_on_c, 0, 36, 111
1, 765694, Note_on_c, 0, 43, 99
1, 765809, Note_on_c, 0, 74, 0
1, 765809, Control_c, 0, 64, 127
1, 765809, Note_on_c, 0, 64, 99
1, 765812, Note_on_c, 0, 36, 0
1, 765812, Note_on_c, 0, 72, 114
1, 765812, Control_c, 0, 64, 127
1, 765815, Note_on_c, 0, 43, 0
1, 765815, Note_on_c, 0, 36, 117
1, 765815, Note_on_c, 0, 43, 99
1, 765862, Control_c, 0, 64, 0
1, 765862, Control_c, 0, 64, 0
1, 765912, Note_on_c, 0, 42, 92
1, 765930, Control_c, 0, 64, 127
1, 765930, Control_c, 0, 64, 127
1, 766014, Note_on_c, 0, 42, 0
1, 766014, Note_on_c, 0, 43, 92
1, 766116, Note_on_c, 0, 64, 0
1, 766116, Note_on_c, 0, 72, 0
1, 766116, Note_on_c, 0, 65, 108
1, 766119, Note_on_c, 0, 67, 108
1, 766119, Note_on_c, 0, 76, 108
1, 766119, Note_on_c, 0, 79, 117
1, 766122, Note_on_c, 0, 43, 0
1, 766122, Note_on_c, 0, 43, 0
1, 766122, Note_on_c, 0, 36, 0
1, 766125, Note_on_c, 0, 48, 99
1, 766125, Note_on_c, 0, 55, 103
1, 766218, Note_on_c, 0, 67, 0
1, 766218, Note_on_c, 0, 65, 0
1, 766218, Note_on_c, 0, 76, 0
1, 766221, Note_on_c, 0, 79, 0
1, 766221, Note_on_c, 0, 65, 108
1, 766221, Note_on_c, 0, 67, 108
1, 766224, Note_on_c, 0, 48, 0
1, 766224, Note_on_c, 0, 76, 108
1, 766224, Note_on_c, 0, 79, 117
1, 766227, Note_on_c, 0, 55, 0
1, 766227, Note_on_c, 0, 48, 99
1, 766227, Note_on_c, 0, 55, 103
1, 766233, Control_c, 0, 64, 0
1, 766233, Control_c, 0, 64, 0
1, 766307, Control_c, 0, 64, 127
1, 766307, Control_c, 0, 64, 127
1, 766320, Note_on_c, 0, 54, 103
1, 766422, Note_on_c, 0, 54, 0
1, 766422, Note_on_c, 0, 55, 103
1, 766524, Note_on_c, 0, 65, 0
1, 766524, Note_on_c, 0, 67, 0
1, 766524, Note_on_c, 0, 76, 0
1, 766527, Note_on_c, 0, 79, 0
1, 766527, Note_on_c, 0, 55, 0
1, 766527, Note_on_c, 0, 74, 114
1, 766530, Note_on_c, 0, 55, 0
1, 766530, Note_on_c, 0, 48, 0
1, 766530, Note_on_c, 0, 36, 111
1, 766533, Note_on_c, 0, 43, 99
1, 766649, Note_on_c, 0, 74, 0
1, 766649, Control_c, 0, 64, 127
1, 766649, Note_on_c, 0, 64, 99
1, 766652, Note_on_c, 0, 36, 0
1, 766652, Note_on_c, 0, 72, 108
1, 766652, Control_c, 0, 64, 127
1, 766655, Note_on_c, 0, 43, 0
1, 766655, Note_on_c, 0, 36, 117
1, 766655, Note_on_c, 0, 43, 99
1, 766686, Control_c, 0, 64, 0
1, 766686, Control_c, 0, 64, 0
1, 766774, Note_on_c, 0, 43, 0
1, 766774, Note_on_c, 0, 36, 0
1, 766774, Note_on_c, 0, 42, 99
1, 766899, Note_on_c, 0, 42, 0
1, 766899, Note_on_c, 0, 43, 100
1, 767019, Control_c, 0, 64, 127
1, 767019, Control_c, 0, 64, 127
1, 767023, Note_on_c, 0, 72, 0
1, 767023, Note_on_c, 0, 64, 0
1, 767023, Note_on_c, 0, 64, 89
1, 767026, Note_on_c, 0, 66, 89
1, 767026, Note_on_c, 0, 70, 89
1, 767026, Note_on_c, 0, 73, 99
1, 767029, Note_on_c, 0, 43, 0
1, 767029, Note_on_c, 0, 30, 88
1, 767029, Note_on_c, 0, 42, 100
1, 767136, Note_on_c, 0, 70, 0
1, 767136, Note_on_c, 0, 64, 0
1, 767136, Note_on_c, 0, 66, 0
1, 767139, Note_on_c, 0, 73, 0
1, 767139, Note_on_c, 0, 64, 89
1, 767139, Note_on_c, 0, 66, 89
1, 767142, Note_on_c, 0, 30, 0
1, 767142, Note_on_c, 0, 70, 89
1, 767142, Note_on_c, 0, 73, 99
1, 767145, Note_on_c, 0, 42, 0
1, 767145, Note_on_c, 0, 30, 100
1, 767145, Note_on_c, 0, 42, 112
1, 767176, Control_c, 0, 64, 0
1, 767176, Control_c, 0, 64, 0
1, 767248, Note_on_c, 0, 42, 0
1, 767248, Note_on_c, 0, 30, 0
1, 767248, Note_on_c, 0, 29, 91
1, 767251, Note_on_c, 0, 41, 103
1, 767360, Note_on_c, 0, 41, 0
1, 767360, Note_on_c, 0, 29, 0
1, 767360, Note_on_c, 0, 30, 92
1, 767363, Note_on_c, 0, 42, 104
1, 767473, Note_on_c, 0, 70, 0
1, 767473, Note_on_c, 0, 66, 0
1, 767473, Note_on_c, 0, 64, 0
1, 767476, Note_on_c, 0, 73, 0
1, 767476, Note_on_c, 0, 63, 91
1, 767476, Note_on_c, 0, 66, 91
1, 767479, Note_on_c, 0, 30, 0
1, 767479, Note_on_c, 0, 71, 91
1, 767479, Note_on_c, 0, 75, 102
1, 767482, Note_on_c, 0, 42, 0
1, 767482, Note_on_c, 0, 33, 92
1, 767482, Note_on_c, 0, 45, 104
1, 767485, Control_c, 0, 64, 127
1, 767485, Control_c, 0, 64, 127
1, 767585, Note_on_c, 0, 66, 0
1, 767585, Note_on_c, 0, 63, 0
1, 767585, Control_c, 0, 64, 127
1, 767588, Note_on_c, 0, 75, 0
1, 767588, Note_on_c, 0, 71, 0
1, 767588, Note_on_c, 0, 63, 92
1, 767591, Note_on_c, 0, 66, 92
1, 767591, Note_on_c, 0, 71, 92
1, 767591, Note_on_c, 0, 75, 103
1, 767594, Note_on_c, 0, 45, 0
1, 767594, Note_on_c, 0, 33, 0
1, 767594, Control_c, 0, 64, 127
1, 767597, Note_on_c, 0, 33, 101
1, 767597, Note_on_c, 0, 45, 113
1, 767677, Control_c, 0, 64, 0
1, 767677, Control_c, 0, 64, 0
1, 767697, Note_on_c, 0, 45, 0
1, 767697, Note_on_c, 0, 33, 0
1, 767697, Note_on_c, 0, 32, 93
1, 767700, Note_on_c, 0, 44, 105
1, 767810, Note_on_c, 0, 44, 0
1, 767810, Note_on_c, 0, 32, 0
1, 767810, Note_on_c, 0, 33, 93
1, 767813, Note_on_c, 0, 45, 105
1, 767922, Note_on_c, 0, 71, 0
1, 767922, Note_on_c, 0, 66, 0
1, 767922, Note_on_c, 0, 63, 0
1, 767925, Note_on_c, 0, 75, 0
1, 767925, Note_on_c, 0, 64, 94
1, 767925, Note_on_c, 0, 71, 94
1, 767928, Note_on_c, 0, 33, 0
1, 767928, Note_on_c, 0, 45, 0
1, 767928, Note_on_c, 0, 76, 105
1, 767931, Note_on_c, 0, 32, 93
1, 767931, Note_on_c, 0, 44, 105
1, 767934, Control_c, 0, 64, 127
1, 767934, Control_c, 0, 64, 127
1, 768034, Note_on_c, 0, 76, 0
1, 768034, Note_on_c, 0, 71, 0
1, 768034, Note_on_c, 0, 64, 0
1, 768037, Note_on_c, 0, 64, 96
1, 768037, Note_on_c, 0, 71, 96
1, 768037, Note_on_c, 0, 76, 117
1, 768040, Note_on_c, 0, 32, 0
1, 768040, Note_on_c, 0, 44, 0
1, 768040, Note_on_c, 0, 32, 103
1, 768043, Note_on_c, 0, 44, 115
1, 768079, Control_c, 0, 64, 0
1, 768079, Control_c, 0, 64, 0
1, 768136, Note_on_c, 0, 44, 0
1, 768136, Note_on_c, 0, 32, 0
1, 768136, Note_on_c, 0, 31, 94
1, 768139, Note_on_c, 0, 43, 106
1, 768238, Note_on_c, 0, 43, 0
1, 768238, Note_on_c, 0, 31, 0
1, 768238, Note_on_c, 0, 32, 94
1, 768241, Note_on_c, 0, 44, 106
1, 768341, Note_on_c, 0, 44, 0
1, 768341, Note_on_c, 0, 32, 0
1, 768341, Note_on_c, 0, 31, 94
1, 768344, Note_on_c, 0, 43, 106
1, 768443, Note_on_c, 0, 31, 0
1, 768443, Control_c, 0, 64, 127
1, 768443, Control_c, 0, 64, 127
1, 768446, Note_on_c, 0, 43, 0
1, 768446, Note_on_c, 0, 31, 101
1, 768446, Note_on_c, 0, 43, 113
1, 768526, Control_c, 0, 64, 0
1, 768526, Control_c, 0, 64, 0
1, 768545, Note_on_c, 0, 43, 0
1, 768545, Note_on_c, 0, 31, 0
1, 768545, Note_on_c, 0, 30, 94
1, 768548, Note_on_c, 0, 42, 106
1, 768647, Note_on_c, 0, 42, 0
1, 768647, Note_on_c, 0, 30, 0
1, 768647, Note_on_c, 0, 31, 95
1, 768650, Note_on_c, 0, 43, 107
1, 768749, Note_on_c, 0, 71, 0
1, 768749, Note_on_c, 0, 76, 0
1, 768749, Note_on_c, 0, 64, 0
1, 768752, Note_on_c, 0, 66, 102
1, 768752, Note_on_c, 0, 70, 102
1, 768752, Note_on_c, 0, 73, 102
1, 768755, Note_on_c, 0, 31, 0
1, 768755, Note_on_c, 0, 43, 0
1, 768755, Note_on_c, 0, 78, 117
1, 768758, Control_c, 0, 64, 127
1, 768758, Note_on_c, 0, 30, 95
1, 768758, Note_on_c, 0, 42, 108
1, 768758, Control_c, 0, 64, 127
1, 768851, Note_on_c, 0, 70, 0
1, 768851, Note_on_c, 0, 73, 0
1, 768851, Note_on_c, 0, 66, 0
1, 768854, Note_on_c, 0, 78, 0
1, 768854, Note_on_c, 0, 66, 103
1, 768854, Note_on_c, 0, 70, 103
1, 768857, Note_on_c, 0, 30, 0
1, 768857, Note_on_c, 0, 73, 103
1, 768857, Note_on_c, 0, 78, 117
1, 768860, Note_on_c, 0, 42, 0
1, 768860, Note_on_c, 0, 30, 106
1, 768860, Note_on_c, 0, 42, 117
1, 768896, Control_c, 0, 64, 0
1, 768896, Control_c, 0, 64, 0
1, 768953, Note_on_c, 0, 42, 0
1, 768953, Note_on_c, 0, 30, 0
1, 768953, Note_on_c, 0, 29, 98
1, 768956, Note_on_c, 0, 41, 111
1, 769055, Note_on_c, 0, 41, 0
1, 769055, Note_on_c, 0, 29, 0
1, 769055, Note_on_c, 0, 30, 99
1, 769058, Note_on_c, 0, 42, 112
1, 769157, Note_on_c, 0, 73, 0
1, 769157, Note_on_c, 0, 70, 0
1, 769157, Note_on_c, 0, 66, 0
1, 769160, Note_on_c, 0, 78, 0
1, 769160, Note_on_c, 0, 66, 105
1, 769160, Note_on_c, 0, 71, 105
1, 769163, Note_on_c, 0, 30, 0
1, 769163, Note_on_c, 0, 75, 105
1, 769163, Note_on_c, 0, 78, 117
1, 769166, Note_on_c, 0, 42, 0
1, 769166, Note_on_c, 0, 33, 100
1, 769166, Note_on_c, 0, 45, 113
1, 769260, Note_on_c, 0, 71, 0
1, 769260, Note_on_c, 0, 66, 0
1, 769260, Control_c, 0, 64, 127
1, 769263, Note_on_c, 0, 78, 0
1, 769263, Note_on_c, 0, 75, 0
1, 769263, Note_on_c, 0, 66, 106
1, 769266, Note_on_c, 0, 71, 106
1, 769266, Note_on_c, 0, 75, 106
1, 769266, Note_on_c, 0, 78, 117
1, 769269, Note_on_c, 0, 45, 0
1, 769269, Note_on_c, 0, 33, 0
1, 769269, Control_c, 0, 64, 127
1, 769272, Note_on_c, 0, 33, 107
1, 769272, Note_on_c, 0, 45, 117
1, 769343, Control_c, 0, 64, 0
1, 769343, Control_c, 0, 64, 0
1, 769362, Note_on_c, 0, 45, 0
1, 769362, Note_on_c, 0, 33, 0
1, 769362, Note_on_c, 0, 32, 100
1, 769365, Note_on_c, 0, 44, 114
1, 769464, Note_on_c, 0, 44, 0
1, 769464, Note_on_c, 0, 32, 0
1, 769464, Note_on_c, 0, 33, 101
1, 769467, Note_on_c, 0, 45, 115
1, 769566, Note_on_c, 0, 75, 0
1, 769566, Note_on_c, 0, 71, 0
1, 769566, Note_on_c, 0, 66, 0
1, 769569, Note_on_c, 0, 78, 0
1, 769569, Note_on_c, 0, 71, 107
1, 769569, Note_on_c, 0, 76, 107
1, 769572, Note_on_c, 0, 33, 0
1, 769572, Note_on_c, 0, 45, 0
1, 769572, Note_on_c, 0, 83, 117
1, 769575, Control_c, 0, 64, 127
1, 769575, Note_on_c, 0, 32, 102
1, 769575, Note_on_c, 0, 44, 116
1, 769575, Control_c, 0, 64, 127
1, 769668, Note_on_c, 0, 83, 0
1, 769668, Note_on_c, 0, 76, 0
1, 769668, Note_on_c, 0, 71, 0
1, 769671, Note_on_c, 0, 71, 107
1, 769671, Note_on_c, 0, 76, 107
1, 769671, Note_on_c, 0, 83, 117
1, 769674, Note_on_c, 0, 32, 0
1, 769674, Note_on_c, 0, 44, 0
1, 769674, Note_on_c, 0, 32, 113
1, 769677, Note_on_c, 0, 44, 117
1, 769713, Control_c, 0, 64, 0
1, 769713, Control_c, 0, 64, 0
1, 769770, Note_on_c, 0, 44, 0
1, 769770, Note_on_c, 0, 32, 0
1, 769770, Note_on_c, 0, 31, 105
1, 769773, Note_on_c, 0, 43, 117
1, 769872, Note_on_c, 0, 43, 0
1, 769872, Note_on_c, 0, 31, 0
1, 769872, Note_on_c, 0, 32, 106
1, 769875, Note_on_c, 0, 44, 117
1, 769974, Note_on_c, 0, 44, 0
1, 769974, Note_on_c, 0, 32, 0
1, 769974, Note_on_c, 0, 31, 106
1, 769977, Note_on_c, 0, 43, 117
1, 770076, Note_on_c, 0, 31, 0
1, 770076, Control_c, 0, 64, 127
1, 770076, Control_c, 0, 64, 127
1, 770079, Note_on_c, 0, 43, 0
1, 770079, Note_on_c, 0, 31, 114
1, 770079, Note_on_c, 0, 43, 117
1, 770160, Control_c, 0, 64, 0
1, 770160, Control_c, 0, 64, 0
1, 770179, Note_on_c, 0, 43, 0
1, 770179, Note_on_c, 0, 31, 0
1, 770179, Note_on_c, 0, 30, 107
1, 770182, Note_on_c, 0, 42, 117
1, 770281, Note_on_c, 0, 42, 0
1, 770281, Note_on_c, 0, 30, 0
1, 770281, Note_on_c, 0, 31, 108
1, 770284, Note_on_c, 0, 43, 117
1, 770383, Note_on_c, 0, 76, 0
1, 770383, Note_on_c, 0, 83, 0
1, 770383, Note_on_c, 0, 71, 0
1, 770386, Note_on_c, 0, 73, 109
1, 770386, Note_on_c, 0, 78, 109
1, 770386, Note_on_c, 0, 82, 109
1, 770389, Note_on_c, 0, 31, 0
1, 770389, Note_on_c, 0, 43, 0
1, 770389, Note_on_c, 0, 85, 117
1, 770392, Control_c, 0, 64, 127
1, 770392, Note_on_c, 0, 30, 108
1, 770392, Note_on_c, 0, 42, 117
1, 770392, Control_c, 0, 64, 127
1, 770485, Note_on_c, 0, 78, 0
1, 770485, Note_on_c, 0, 82, 0
1, 770485, Note_on_c, 0, 73, 0
1, 770488, Note_on_c, 0, 85, 0
1, 770488, Note_on_c, 0, 73, 110
1, 770488, Note_on_c, 0, 78, 110
1, 770491, Note_on_c, 0, 30, 0
1, 770491, Note_on_c, 0, 82, 110
1, 770491, Note_on_c, 0, 85, 117
1, 770494, Note_on_c, 0, 42, 0
1, 770494, Note_on_c, 0, 30, 117
1, 770494, Note_on_c, 0, 42, 117
1, 770530, Control_c, 0, 64, 0
1, 770530, Control_c, 0, 64, 0
1, 770587, Note_on_c, 0, 42, 0
1, 770587, Note_on_c, 0, 30, 0
1, 770587, Note_on_c, 0, 29, 111
1, 770590, Note_on_c, 0, 41, 117
1, 770689, Note_on_c, 0, 41, 0
1, 770689, Note_on_c, 0, 29, 0
1, 770689, Note_on_c, 0, 30, 112
1, 770692, Note_on_c, 0, 42, 117
1, 770791, Note_on_c, 0, 82, 0
1, 770791, Note_on_c, 0, 78, 0
1, 770791, Note_on_c, 0, 73, 0
1, 770794, Note_on_c, 0, 85, 0
1, 770794, Note_on_c, 0, 75, 111
1, 770794, Note_on_c, 0, 78, 111
1, 770797, Note_on_c, 0, 30, 0
1, 770797, Note_on_c, 0, 83, 111
1, 770797, Note_on_c, 0, 87, 117
1, 770800, Note_on_c, 0, 42, 0
1, 770800, Note_on_c, 0, 35, 113
1, 770800, Note_on_c, 0, 47, 117
1, 770893, Note_on_c, 0, 78, 0
1, 770893, Note_on_c, 0, 75, 0
1, 770893, Control_c, 0, 64, 0
1, 770896, Note_on_c, 0, 87, 0
1, 770896, Note_on_c, 0, 83, 0
1, 770896, Note_on_c, 0, 75, 111
1, 770899, Note_on_c, 0, 78, 111
1, 770899, Note_on_c, 0, 83, 111
1, 770899, Note_on_c, 0, 87, 117
1, 770902, Note_on_c, 0, 35, 0
1, 770902, Control_c, 0, 64, 0
1, 770902, Control_c, 0, 64, 0
1, 770905, Note_on_c, 0, 47, 0
1, 770905, Note_on_c, 0, 35, 117
1, 770905, Note_on_c, 0, 47, 117
1, 770995, Note_on_c, 0, 47, 0
1, 770995, Note_on_c, 0, 35, 0
1, 770995, Note_on_c, 0, 34, 114
1, 770998, Note_on_c, 0, 46, 117
1, 771098, Note_on_c, 0, 46, 0
1, 771098, Note_on_c, 0, 34, 0
1, 771098, Note_on_c, 0, 35, 114
1, 771101, Note_on_c, 0, 47, 117
1, 771200, Note_on_c, 0, 83, 0
1, 771200, Note_on_c, 0, 78, 0
1, 771200, Note_on_c, 0, 75, 0
1, 771203, Note_on_c, 0, 87, 0
1, 771203, Note_on_c, 0, 76, 112
1, 771203, Note_on_c, 0, 80, 112
1, 771206, Note_on_c, 0, 35, 0
1, 771206, Note_on_c, 0, 83, 112
1, 771206, Note_on_c, 0, 88, 117
1, 771209, Note_on_c, 0, 47, 0
1, 771209, Note_on_c, 0, 28, 115
1, 771209, Note_on_c, 0, 40, 117
1, 771332, Note_on_c, 0, 83, 0
1, 771332, Note_on_c, 0, 80, 0
1, 771332, Note_on_c, 0, 76, 0
1, 771335, Note_on_c, 0, 88, 0
1, 771335, Note_on_c, 0, 76, 112
1, 771335, Note_on_c, 0, 80, 112
1, 771338, Note_on_c, 0, 28, 0
1, 771338, Note_on_c, 0, 83, 112
1, 771338, Note_on_c, 0, 88, 117
1, 771341, Note_on_c, 0, 40, 0
1, 771341, Note_on_c, 0, 28, 117
1, 771341, Note_on_c, 0, 40, 117
1, 771706, Note_on_c, 0, 83, 0
1, 771706, Note_on_c, 0, 80, 0
1, 771706, Note_on_c, 0, 76, 0
1, 771709, Note_on_c, 0, 88, 0
1, 771709, Note_on_c, 0, 62, 87
1, 771709, Note_on_c, 0, 68, 99
1, 771712, Note_on_c, 0, 28, 0
1, 771712, Note_on_c, 0, 40, 0
1, 771712, Note_on_c, 0, 35, 99
1, 771715, Note_on_c, 0, 40, 87
1, 771761, Control_c, 0, 64, 127
1, 771761, Control_c, 0, 64, 127
1, 771831, Note_on_c, 0, 62, 0
1, 771831, Note_on_c, 0, 68, 0
1, 771831, Control_c, 0, 64, 127
1, 771834, Note_on_c, 0, 62, 88
1, 771834, Note_on_c, 0, 68, 101
1, 771834, Control_c, 0, 64, 127
1, 771837, Note_on_c, 0, 35, 0
1, 771837, Note_on_c, 0, 40, 0
1, 771837, Note_on_c, 0, 35, 101
1, 771840, Note_on_c, 0, 40, 89
1, 771922, Control_c, 0, 64, 0
1, 771922, Control_c, 0, 64, 0
1, 771933, Note_on_c, 0, 61, 88
1, 772035, Note_on_c, 0, 61, 0
1, 772035, Note_on_c, 0, 62, 89
1, 772137, Note_on_c, 0, 62, 0
1, 772137, Note_on_c, 0, 62, 0
1, 772137, Note_on_c, 0, 68, 0
1, 772140, Note_on_c, 0, 35, 0
1, 772140, Note_on_c, 0, 62, 90
1, 772140, Note_on_c, 0, 69, 108
1, 772143, Note_on_c, 0, 40, 0
1, 772143, Note_on_c, 0, 33, 109
1, 772143, Note_on_c, 0, 40, 95
1, 772148, Control_c, 0, 64, 127
1, 772148, Control_c, 0, 64, 127
1, 772239, Note_on_c, 0, 69, 0
1, 772239, Note_on_c, 0, 62, 0
1, 772239, Note_on_c, 0, 62, 90
1, 772242, Note_on_c, 0, 33, 0
1, 772242, Note_on_c, 0, 40, 0
1, 772242, Note_on_c, 0, 69, 110
1, 772245, Note_on_c, 0, 33, 110
1, 772245, Note_on_c, 0, 40, 97
1, 772342, Note_on_c, 0, 61, 91
1, 772444, Note_on_c, 0, 61, 0
1, 772444, Note_on_c, 0, 62, 91
1, 772546, Note_on_c, 0, 62, 0
1, 772546, Note_on_c, 0, 69, 0
1, 772546, Note_on_c, 0, 62, 0
1, 772549, Note_on_c, 0, 62, 87
1, 772549, Note_on_c, 0, 64, 87
1, 772549, Note_on_c, 0, 70, 87
1, 772552, Note_on_c, 0, 33, 0
1, 772552, Note_on_c, 0, 40, 0
1, 772552, Note_on_c, 0, 76, 109
1, 772555, Note_on_c, 0, 31, 117
1, 772555, Note_on_c, 0, 40, 96
1, 772671, Note_on_c, 0, 64, 0
1, 772671, Note_on_c, 0, 70, 0
1, 772671, Note_on_c, 0, 62, 0
1, 772674, Note_on_c, 0, 76, 0
1, 772674, Note_on_c, 0, 62, 82
1, 772674, Note_on_c, 0, 64, 82
1, 772677, Note_on_c, 0, 31, 0
1, 772677, Note_on_c, 0, 70, 82
1, 772677, Note_on_c, 0, 76, 110
1, 772680, Note_on_c, 0, 40, 0
1, 772680, Note_on_c, 0, 31, 117
1, 772680, Note_on_c, 0, 40, 99
1, 772735, Control_c, 0, 64, 0
1, 772735, Control_c, 0, 64, 0
1, 772795, Note_on_c, 0, 76, 0
1, 772795, Note_on_c, 0, 75, 109
1, 772814, Control_c, 0, 64, 127
1, 772814, Control_c, 0, 64, 127
1, 772897, Note_on_c, 0, 75, 0
1, 772897, Note_on_c, 0, 76, 112
1, 773000, Note_on_c, 0, 62, 0
1, 773000, Note_on_c, 0, 64, 0
1, 773000, Note_on_c, 0, 70, 0
1, 773003, Note_on_c, 0, 76, 0
1, 773003, Note_on_c, 0, 76, 115
1, 773003, Note_on_c, 0, 62, 87
1, 773006, Note_on_c, 0, 31, 0
1, 773006, Note_on_c, 0, 64, 87
1, 773006, Note_on_c, 0, 71, 87
1, 773009, Note_on_c, 0, 40, 0
1, 773009, Note_on_c, 0, 32, 117
1, 773009, Note_on_c, 0, 40, 98
1, 773033, Control_c, 0, 64, 0
1, 773033, Control_c, 0, 64, 0
1, 773102, Note_on_c, 0, 62, 0
1, 773102, Note_on_c, 0, 76, 0
1, 773102, Note_on_c, 0, 76, 117
1, 773105, Note_on_c, 0, 71, 0
1, 773105, Note_on_c, 0, 64, 0
1, 773105, Note_on_c, 0, 62, 87
1, 773108, Note_on_c, 0, 32, 0
1, 773108, Note_on_c, 0, 64, 87
1, 773108, Note_on_c, 0, 71, 87
1, 773111, Note_on_c, 0, 40, 0
1, 773111, Note_on_c, 0, 32, 117
1, 773111, Note_on_c, 0, 40, 100
1, 773124, Control_c, 0, 64, 127
1, 773124, Control_c, 0, 64, 127
1, 773204, Note_on_c, 0, 76, 0
1, 773204, Note_on_c, 0, 75, 117
1, 773306, Note_on_c, 0, 75, 0
1, 773306, Note_on_c, 0, 76, 117
1, 773339, Control_c, 0, 64, 0
1, 773339, Control_c, 0, 64, 0
1, 773438, Note_on_c, 0, 76, 0
1, 773438, Note_on_c, 0, 64, 0
1, 773438, Note_on_c, 0, 62, 0
1, 773441, Note_on_c, 0, 71, 0
1, 773441, Note_on_c, 0, 62, 97
1, 773441, Note_on_c, 0, 67, 97
1, 773444, Note_on_c, 0, 32, 0
1, 773444, Note_on_c, 0, 40, 0
1, 773444, Note_on_c, 0, 71, 112
1, 773447, Note_on_c, 0, 53, 112
1, 773447, Note_on_c, 0, 55, 97
1, 773493, Control_c, 0, 64, 127
1, 773493, Control_c, 0, 64, 127
1, 773550, Note_on_c, 0, 62, 0
1, 773550, Note_on_c, 0, 67, 0
1, 773550, Control_c, 0, 64, 127
1, 773553, Note_on_c, 0, 71, 0
1, 773553, Note_on_c, 0, 62, 88
1, 773553, Note_on_c, 0, 67, 101
1, 773556, Note_on_c, 0, 53, 0
1, 773556, Note_on_c, 0, 71, 88
1, 773556, Control_c, 0, 64, 127
1, 773559, Note_on_c, 0, 55, 0
1, 773559, Note_on_c, 0, 55, 89
1, 773559, Note_on_c, 0, 53, 103
1, 773641, Control_c, 0, 64, 0
1, 773641, Control_c, 0, 64, 0
1, 773652, Note_on_c, 0, 53, 0
1, 773652, Note_on_c, 0, 52, 105
1, 773755, Note_on_c, 0, 52, 0
1, 773755, Note_on_c, 0, 53, 106
1, 773857, Note_on_c, 0, 67, 0
1, 773857, Note_on_c, 0, 71, 0
1, 773857, Note_on_c, 0, 62, 0
1, 773860, Note_on_c, 0, 60, 90
1, 773860, Note_on_c, 0, 67, 108
1, 773860, Note_on_c, 0, 72, 115
1, 773863, Note_on_c, 0, 55, 0
1, 773863, Note_on_c, 0, 53, 0
1, 773863, Note_on_c, 0, 52, 108
1, 773866, Control_c, 0, 64, 127
1, 773866, Note_on_c, 0, 55, 95
1, 773866, Control_c, 0, 64, 127
1, 773959, Note_on_c, 0, 67, 0
1, 773959, Note_on_c, 0, 72, 0
1, 773959, Note_on_c, 0, 60, 0
1, 773962, Note_on_c, 0, 60, 90
1, 773962, Note_on_c, 0, 67, 110
1, 773962, Note_on_c, 0, 72, 115
1, 773965, Note_on_c, 0, 52, 0
1, 773965, Note_on_c, 0, 55, 0
1, 773965, Note_on_c, 0, 52, 110
1, 773968, Note_on_c, 0, 55, 110
1, 774061, Note_on_c, 0, 52, 0
1, 774061, Note_on_c, 0, 51, 111
1, 774163, Note_on_c, 0, 51, 0
1, 774163, Note_on_c, 0, 52, 113
1, 774265, Note_on_c, 0, 72, 0
1, 774265, Note_on_c, 0, 67, 0
1, 774265, Note_on_c, 0, 60, 0
1, 774268, Note_on_c, 0, 65, 84
1, 774268, Note_on_c, 0, 67, 84
1, 774268, Note_on_c, 0, 73, 84
1, 774271, Note_on_c, 0, 55, 0
1, 774271, Note_on_c, 0, 52, 0
1, 774271, Note_on_c, 0, 79, 111
1, 774274, Note_on_c, 0, 46, 117
1, 774274, Note_on_c, 0, 55, 96
1, 774390, Note_on_c, 0, 67, 0
1, 774390, Note_on_c, 0, 73, 0
1, 774390, Note_on_c, 0, 65, 0
1, 774393, Note_on_c, 0, 79, 0
1, 774393, Note_on_c, 0, 65, 82
1, 774393, Note_on_c, 0, 67, 82
1, 774396, Note_on_c, 0, 46, 0
1, 774396, Note_on_c, 0, 73, 82
1, 774396, Note_on_c, 0, 79, 110
1, 774399, Note_on_c, 0, 55, 0
1, 774399, Note_on_c, 0, 46, 117
1, 774399, Note_on_c, 0, 55, 99
1, 774455, Control_c, 0, 64, 0
1, 774455, Control_c, 0, 64, 0
1, 774515, Note_on_c, 0, 79, 0
1, 774515, Note_on_c, 0, 78, 109
1, 774533, Control_c, 0, 64, 127
1, 774533, Control_c, 0, 64, 127
1, 774617, Note_on_c, 0, 78, 0
1, 774617, Note_on_c, 0, 79, 102
1, 774719, Note_on_c, 0, 65, 0
1, 774719, Note_on_c, 0, 67, 0
1, 774719, Note_on_c, 0, 73, 0
1, 774722, Note_on_c, 0, 79, 0
1, 774722, Note_on_c, 0, 79, 115
1, 774722, Note_on_c, 0, 65, 87
1, 774725, Note_on_c, 0, 46, 0
1, 774725, Note_on_c, 0, 67, 87
1, 774725, Note_on_c, 0, 74, 87
1, 774728, Note_on_c, 0, 55, 0
1, 774728, Note_on_c, 0, 47, 117
1, 774728, Note_on_c, 0, 55, 98
1, 774753, Control_c, 0, 64, 0
1, 774753, Control_c, 0, 64, 0
1, 774821, Note_on_c, 0, 65, 0
1, 774821, Note_on_c, 0, 79, 0
1, 774821, Note_on_c, 0, 79, 117
1, 774824, Note_on_c, 0, 74, 0
1, 774824, Note_on_c, 0, 67, 0
1, 774824, Note_on_c, 0, 65, 87
1, 774827, Note_on_c, 0, 47, 0
1, 774827, Note_on_c, 0, 67, 87
1, 774827, Note_on_c, 0, 74, 87
1, 774830, Note_on_c, 0, 55, 0
1, 774830, Note_on_c, 0, 47, 117
1, 774830, Note_on_c, 0, 55, 100
1, 774843, Control_c, 0, 64, 127
1, 774843, Control_c, 0, 64, 127
1, 774923, Note_on_c, 0, 79, 0
1, 774923, Note_on_c, 0, 78, 117
1, 775025, Note_on_c, 0, 78, 0
1, 775025, Note_on_c, 0, 79, 117
1, 775059, Control_c, 0, 64, 0
1, 775059, Control_c, 0, 64, 0
1, 775157, Note_on_c, 0, 79, 0
1, 775157, Note_on_c, 0, 67, 0
1, 775157, Note_on_c, 0, 65, 0
1, 775160, Note_on_c, 0, 74, 0
1, 775160, Note_on_c, 0, 47, 0
1, 775160, Note_on_c, 0, 55, 0
1, 775163, Note_on_c, 0, 48, 112
1, 775163, Note_on_c, 0, 55, 97
1, 775222, Control_c, 0, 64, 127
1, 775222, Control_c, 0, 64, 127
1, 775290, Note_on_c, 0, 72, 103
1, 775290, Note_on_c, 0, 76, 103
1, 775290, Note_on_c, 0, 79, 103
1, 775293, Note_on_c, 0, 55, 0
1, 775293, Note_on_c, 0, 48, 0
1, 775293, Note_on_c, 0, 84, 117
1, 775296, Note_on_c, 0, 48, 117
1, 775296, Note_on_c, 0, 55, 106
1, 775354, Control_c, 0, 64, 0
1, 775354, Control_c, 0, 64, 0
1, 775414, Note_on_c, 0, 54, 92
1, 775428, Control_c, 0, 64, 127
1, 775428, Control_c, 0, 64, 127
1, 775539, Note_on_c, 0, 54, 0
1, 775539, Note_on_c, 0, 55, 92
1, 775641, Note_on_c, 0, 55, 0
1, 775641, Note_on_c, 0, 55, 0
1, 775641, Note_on_c, 0, 48, 0
1, 775644, Note_on_c, 0, 55, 106
1, 775644, Note_on_c, 0, 62, 99
1, 775743, Note_on_c, 0, 76, 0
1, 775743, Note_on_c, 0, 72, 0
1, 775743, Control_c, 0, 64, 0
1, 775746, Note_on_c, 0, 84, 0
1, 775746, Note_on_c, 0, 79, 0
1, 775746, Note_on_c, 0, 67, 103
1, 775749, Note_on_c, 0, 71, 103
1, 775749, Note_on_c, 0, 74, 103
1, 775749, Note_on_c, 0, 79, 117
1, 775752, Note_on_c, 0, 62, 0
1, 775752, Note_on_c, 0, 55, 0
1, 775752, Control_c, 0, 64, 0
1, 775755, Note_on_c, 0, 55, 106
1, 775755, Note_on_c, 0, 62, 99
1, 775825, Control_c, 0, 64, 127
1, 775825, Control_c, 0, 64, 127
1, 775845, Note_on_c, 0, 61, 99
1, 775948, Note_on_c, 0, 61, 0
1, 775948, Note_on_c, 0, 62, 99
1, 776050, Note_on_c, 0, 62, 0
1, 776050, Note_on_c, 0, 62, 0
1, 776050, Note_on_c, 0, 55, 0
1, 776053, Note_on_c, 0, 48, 117
1, 776053, Note_on_c, 0, 55, 106
1, 776152, Note_on_c, 0, 71, 0
1, 776152, Note_on_c, 0, 74, 0
1, 776152, Note_on_c, 0, 67, 0
1, 776155, Note_on_c, 0, 79, 0
1, 776155, Note_on_c, 0, 64, 103
1, 776155, Note_on_c, 0, 67, 103
1, 776158, Note_on_c, 0, 48, 0
1, 776158, Note_on_c, 0, 72, 103
1, 776158, Note_on_c, 0, 76, 117
1, 776161, Note_on_c, 0, 55, 0
1, 776161, Note_on_c, 0, 48, 117
1, 776161, Note_on_c, 0, 55, 106
1, 776182, Control_c, 0, 64, 0
1, 776182, Control_c, 0, 64, 0
1, 776254, Note_on_c, 0, 54, 92
1, 776257, Control_c, 0, 64, 127
1, 776257, Control_c, 0, 64, 127
1, 776356, Note_on_c, 0, 54, 0
1, 776356, Note_on_c, 0, 55, 92
1, 776458, Note_on_c, 0, 55, 0
1, 776458, Note_on_c, 0, 55, 0
1, 776458, Note_on_c, 0, 48, 0
1, 776461, Note_on_c, 0, 55, 106
1, 776461, Note_on_c, 0, 62, 99
1, 776560, Note_on_c, 0, 67, 0
1, 776560, Note_on_c, 0, 64, 0
1, 776560, Control_c, 0, 64, 0
1, 776563, Note_on_c, 0, 76, 0
1, 776563, Note_on_c, 0, 72, 0
1, 776563, Note_on_c, 0, 59, 103
1, 776566, Note_on_c, 0, 65, 103
1, 776566, Note_on_c, 0, 67, 103
1, 776566, Note_on_c, 0, 71, 117
1, 776569, Note_on_c, 0, 62, 0
1, 776569, Note_on_c, 0, 55, 0
1, 776569, Control_c, 0, 64, 0
1, 776572, Note_on_c, 0, 55, 106
1, 776572, Note_on_c, 0, 62, 99
1, 776657, Control_c, 0, 64, 127
1, 776657, Control_c, 0, 64, 127
1, 776662, Note_on_c, 0, 61, 99
1, 776764, Note_on_c, 0, 61, 0
1, 776764, Note_on_c, 0, 62, 93
1, 776867, Note_on_c, 0, 62, 0
1, 776867, Note_on_c, 0, 62, 0
1, 776867, Note_on_c, 0, 55, 0
1, 776870, Note_on_c, 0, 48, 117
1, 776870, Note_on_c, 0, 55, 106
1, 776969, Note_on_c, 0, 65, 0
1, 776969, Note_on_c, 0, 67, 0
1, 776969, Note_on_c, 0, 59, 0
1, 776972, Note_on_c, 0, 71, 0
1, 776972, Note_on_c, 0, 60, 98
1, 776972, Note_on_c, 0, 64, 98
1, 776975, Note_on_c, 0, 48, 0
1, 776975, Note_on_c, 0, 55, 0
1, 776975, Note_on_c, 0, 72, 117
1, 776978, Note_on_c, 0, 48, 111
1, 776978, Note_on_c, 0, 55, 99
1, 777022, Control_c, 0, 64, 0
1, 777022, Control_c, 0, 64, 0
1, 777071, Note_on_c, 0, 54, 92
1, 777097, Control_c, 0, 64, 127
1, 777097, Control_c, 0, 64, 127
1, 777173, Note_on_c, 0, 54, 0
1, 777173, Note_on_c, 0, 55, 92
1, 777275, Note_on_c, 0, 60, 0
1, 777275, Note_on_c, 0, 64, 0
1, 777275, Note_on_c, 0, 72, 0
1, 777278, Note_on_c, 0, 59, 98
1, 777278, Note_on_c, 0, 64, 98
1, 777278, Note_on_c, 0, 71, 117
1, 777281, Note_on_c, 0, 48, 0
1, 777281, Note_on_c, 0, 55, 0
1, 777281, Note_on_c, 0, 55, 0
1, 777284, Note_on_c, 0, 48, 111
1, 777284, Note_on_c, 0, 55, 99
1, 777377, Note_on_c, 0, 59, 0
1, 777377, Note_on_c, 0, 71, 0
1, 777377, Note_on_c, 0, 64, 0
1, 777380, Note_on_c, 0, 57, 98
1, 777380, Note_on_c, 0, 64, 98
1, 777380, Note_on_c, 0, 69, 117
1, 777383, Note_on_c, 0, 48, 0
1, 777383, Note_on_c, 0, 55, 0
1, 777383, Note_on_c, 0, 48, 111
1, 777386, Control_c, 0, 64, 0
1, 777386, Note_on_c, 0, 55, 99
1, 777386, Control_c, 0, 64, 0
1, 777466, Control_c, 0, 64, 127
1, 777466, Control_c, 0, 64, 127
1, 777479, Note_on_c, 0, 54, 92
1, 777581, Note_on_c, 0, 54, 0
1, 777581, Note_on_c, 0, 55, 92
1, 777683, Note_on_c, 0, 57, 0
1, 777683, Note_on_c, 0, 69, 0
1, 777683, Note_on_c, 0, 64, 0
1, 777686, Note_on_c, 0, 58, 98
1, 777686, Note_on_c, 0, 64, 98
1, 777686, Note_on_c, 0, 70, 117
1, 777689, Note_on_c, 0, 48, 0
1, 777689, Note_on_c, 0, 55, 0
1, 777689, Note_on_c, 0, 55, 0
1, 777692, Note_on_c, 0, 48, 111
1, 777692, Note_on_c, 0, 54, 99
1, 777844, Note_on_c, 0, 58, 0
1, 777844, Note_on_c, 0, 70, 0
1, 777844, Note_on_c, 0, 64, 0
1, 777847, Note_on_c, 0, 71, 103
1, 777847, Note_on_c, 0, 75, 103
1, 777847, Note_on_c, 0, 78, 103
1, 777850, Note_on_c, 0, 48, 0
1, 777850, Note_on_c, 0, 54, 0
1, 777850, Note_on_c, 0, 83, 117
1, 777853, Note_on_c, 0, 47, 117
1, 777853, Note_on_c, 0, 54, 106
1, 777897, Control_c, 0, 64, 0
1, 777897, Control_c, 0, 64, 0
1, 777946, Note_on_c, 0, 53, 92
1, 777957, Control_c, 0, 64, 127
1, 777957, Control_c, 0, 64, 127
1, 778048, Note_on_c, 0, 53, 0
1, 778048, Note_on_c, 0, 54, 92
1, 778150, Note_on_c, 0, 54, 0
1, 778150, Note_on_c, 0, 54, 0
1, 778150, Note_on_c, 0, 47, 0
1, 778153, Note_on_c, 0, 54, 106
1, 778153, Note_on_c, 0, 61, 99
1, 778252, Note_on_c, 0, 75, 0
1, 778252, Note_on_c, 0, 71, 0
1, 778252, Control_c, 0, 64, 0
1, 778255, Note_on_c, 0, 83, 0
1, 778255, Note_on_c, 0, 78, 0
1, 778255, Note_on_c, 0, 66, 103
1, 778258, Note_on_c, 0, 70, 103
1, 778258, Note_on_c, 0, 73, 103
1, 778258, Note_on_c, 0, 78, 117
1, 778261, Note_on_c, 0, 61, 0
1, 778261, Note_on_c, 0, 54, 0
1, 778261, Control_c, 0, 64, 0
1, 778264, Note_on_c, 0, 54, 106
1, 778264, Note_on_c, 0, 61, 99
1, 778334, Control_c, 0, 64, 127
1, 778334, Control_c, 0, 64, 127
1, 778354, Note_on_c, 0, 60, 99
1, 778457, Note_on_c, 0, 60, 0
1, 778457, Note_on_c, 0, 61, 99
1, 778559, Note_on_c, 0, 61, 0
1, 778559, Note_on_c, 0, 61, 0
1, 778559, Note_on_c, 0, 54, 0
1, 778562, Note_on_c, 0, 47, 117
1, 778562, Note_on_c, 0, 54, 106
1, 778661, Note_on_c, 0, 70, 0
1, 778661, Note_on_c, 0, 73, 0
1, 778661, Note_on_c, 0, 66, 0
1, 778664, Note_on_c, 0, 78, 0
1, 778664, Note_on_c, 0, 63, 103
1, 778664, Note_on_c, 0, 66, 103
1, 778667, Note_on_c, 0, 47, 0
1, 778667, Note_on_c, 0, 71, 103
1, 778667, Note_on_c, 0, 75, 117
1, 778670, Note_on_c, 0, 54, 0
1, 778670, Note_on_c, 0, 47, 117
1, 778670, Note_on_c, 0, 54, 106
1, 778691, Control_c, 0, 64, 0
1, 778691, Control_c, 0, 64, 0
1, 778763, Note_on_c, 0, 53, 92
1, 778766, Control_c, 0, 64, 127
1, 778766, Control_c, 0, 64, 127
1, 778865, Note_on_c, 0, 53, 0
1, 778865, Note_on_c, 0, 54, 92
1, 778967, Note_on_c, 0, 54, 0
1, 778967, Note_on_c, 0, 54, 0
1, 778967, Note_on_c, 0, 47, 0
1, 778970, Note_on_c, 0, 54, 106
1, 778970, Note_on_c, 0, 61, 99
1, 779069, Note_on_c, 0, 66, 0
1, 779069, Note_on_c, 0, 63, 0
1, 779069, Control_c, 0, 64, 0
1, 779072, Note_on_c, 0, 75, 0
1, 779072, Note_on_c, 0, 71, 0
1, 779072, Note_on_c, 0, 58, 103
1, 779075, Note_on_c, 0, 64, 103
1, 779075, Note_on_c, 0, 66, 103
1, 779075, Note_on_c, 0, 70, 117
1, 779078, Note_on_c, 0, 61, 0
1, 779078, Note_on_c, 0, 54, 0
1, 779078, Control_c, 0, 64, 0
1, 779081, Note_on_c, 0, 54, 106
1, 779081, Note_on_c, 0, 61, 99
1, 779166, Control_c, 0, 64, 127
1, 779166, Control_c, 0, 64, 127
1, 779171, Note_on_c, 0, 60, 99
1, 779273, Note_on_c, 0, 60, 0
1, 779273, Note_on_c, 0, 61, 99
1, 779375, Note_on_c, 0, 58, 0
1, 779375, Note_on_c, 0, 64, 0
1, 779375, Note_on_c, 0, 66, 0
1, 779378, Note_on_c, 0, 70, 0
1, 779378, Note_on_c, 0, 59, 110
1, 779378, Note_on_c, 0, 63, 110
1, 779381, Note_on_c, 0, 54, 0
1, 779381, Note_on_c, 0, 61, 0
1, 779381, Note_on_c, 0, 71, 117
1, 779384, Note_on_c, 0, 61, 0
1, 779384, Note_on_c, 0, 47, 117
1, 779384, Note_on_c, 0, 54, 106
1, 779516, Note_on_c, 0, 59, 0
1, 779516, Note_on_c, 0, 71, 0
1, 779516, Note_on_c, 0, 63, 0
1, 779519, Note_on_c, 0, 59, 110
1, 779519, Note_on_c, 0, 63, 110
1, 779519, Note_on_c, 0, 71, 117
1, 779522, Note_on_c, 0, 47, 0
1, 779522, Note_on_c, 0, 54, 0
1, 779522, Note_on_c, 0, 47, 111
1, 779525, Note_on_c, 0, 54, 110
1, 779581, Control_c, 0, 64, 0
1, 779581, Control_c, 0, 64, 0
1, 779641, Note_on_c, 0, 54, 0
1, 779641, Note_on_c, 0, 55, 106
1, 779673, Control_c, 0, 64, 127
1, 779673, Control_c, 0, 64, 127
1, 779765, Note_on_c, 0, 55, 0
1, 779765, Note_on_c, 0, 56, 106
1, 779890, Note_on_c, 0, 63, 0
1, 779890, Note_on_c, 0, 71, 0
1, 779890, Note_on_c, 0, 59, 0
1, 779893, Note_on_c, 0, 56, 0
1, 779893, Note_on_c, 0, 61, 110
1, 779893, Note_on_c, 0, 69, 117
1, 779896, Note_on_c, 0, 57, 106
1, 780015, Note_on_c, 0, 69, 0
1, 780015, Note_on_c, 0, 61, 0
1, 780015, Note_on_c, 0, 68, 117
1, 780018, Note_on_c, 0, 47, 0
1, 780018, Note_on_c, 0, 59, 117
1, 780018, Note_on_c, 0, 63, 110
1, 780021, Note_on_c, 0, 57, 0
1, 780021, Note_on_c, 0, 47, 111
1, 780025, Control_c, 0, 64, 0
1, 780025, Control_c, 0, 64, 0
1, 780130, Control_c, 0, 64, 127
1, 780130, Control_c, 0, 64, 127
1, 780147, Note_on_c, 0, 63, 0
1, 780147, Note_on_c, 0, 59, 0
1, 780147, Note_on_c, 0, 60, 117
1, 780218, Control_c, 0, 64, 0
1, 780218, Control_c, 0, 64, 0
1, 780279, Note_on_c, 0, 60, 0
1, 780279, Note_on_c, 0, 61, 117
1, 780412, Note_on_c, 0, 61, 0
1, 780412, Note_on_c, 0, 68, 0
1, 780412, Note_on_c, 0, 57, 110
1, 780415, Note_on_c, 0, 47, 0
1, 780415, Note_on_c, 0, 63, 110
1, 780415, Note_on_c, 0, 66, 117
1, 780418, Note_on_c, 0, 35, 111
1, 780418, Note_on_c, 0, 47, 99
1, 780422, Control_c, 0, 64, 127
1, 780422, Control_c, 0, 64, 127
1, 780509, Control_c, 0, 64, 0
1, 780509, Control_c, 0, 64, 0
1, 780552, Note_on_c, 0, 63, 0
1, 780552, Note_on_c, 0, 57, 0
1, 780552, Control_c, 0, 64, 127
1, 780555, Note_on_c, 0, 66, 0
1, 780555, Note_on_c, 0, 56, 92
1, 780555, Note_on_c, 0, 64, 116
1, 780558, Note_on_c, 0, 35, 0
1, 780558, Note_on_c, 0, 47, 0
1, 780558, Control_c, 0, 64, 127
1, 780561, Note_on_c, 0, 40, 111
1, 780561, Note_on_c, 0, 47, 99
1, 780614, Control_c, 0, 64, 0
1, 780614, Control_c, 0, 64, 0
1, 780631, Control_c, 0, 64, 0
1, 780631, Control_c, 0, 64, 0
1, 780664, Note_on_c, 0, 55, 99
1, 780664, Control_c, 0, 64, 127
1, 780664, Note_on_c, 0, 46, 93
1, 780664, Control_c, 0, 64, 127
1, 780777, Note_on_c, 0, 46, 0
1, 780777, Note_on_c, 0, 55, 0
1, 780777, Note_on_c, 0, 56, 99
1, 780780, Note_on_c, 0, 47, 93
1, 780901, Note_on_c, 0, 64, 0
1, 780901, Note_on_c, 0, 56, 0
1, 780901, Note_on_c, 0, 61, 103
1, 780904, Note_on_c, 0, 56, 0
1, 780904, Note_on_c, 0, 40, 0
1, 780904, Note_on_c, 0, 68, 117
1, 780907, Note_on_c, 0, 47, 0
1, 780907, Note_on_c, 0, 52, 99
1, 780907, Note_on_c, 0, 57, 99
1, 780910, Note_on_c, 0, 47, 0
1, 781026, Note_on_c, 0, 68, 0
1, 781026, Note_on_c, 0, 61, 0
1, 781026, Note_on_c, 0, 61, 103
1, 781029, Note_on_c, 0, 52, 0
1, 781029, Note_on_c, 0, 57, 0
1, 781029, Note_on_c, 0, 68, 117
1, 781032, Note_on_c, 0, 52, 111
1, 781032, Note_on_c, 0, 57, 99
1, 781055, Control_c, 0, 64, 0
1, 781055, Control_c, 0, 64, 0
1, 781151, Control_c, 0, 64, 127
1, 781151, Note_on_c, 0, 60, 103
1, 781151, Control_c, 0, 64, 127
1, 781154, Note_on_c, 0, 56, 93
1, 781276, Note_on_c, 0, 56, 0
1, 781276, Note_on_c, 0, 60, 0
1, 781276, Note_on_c, 0, 61, 103
1, 781279, Note_on_c, 0, 57, 93
1, 781378, Note_on_c, 0, 61, 0
1, 781378, Note_on_c, 0, 68, 0
1, 781378, Note_on_c, 0, 57, 99
1, 781381, Note_on_c, 0, 61, 0
1, 781381, Note_on_c, 0, 63, 99
1, 781381, Note_on_c, 0, 66, 117
1, 781384, Note_on_c, 0, 57, 0
1, 781384, Note_on_c, 0, 52, 0
1, 781384, Note_on_c, 0, 40, 111
1, 781387, Note_on_c, 0, 57, 0
1, 781387, Note_on_c, 0, 47, 99
1, 781480, Note_on_c, 0, 63, 0
1, 781480, Note_on_c, 0, 57, 0
1, 781480, Control_c, 0, 64, 127
1, 781483, Note_on_c, 0, 66, 0
1, 781483, Note_on_c, 0, 56, 92
1, 781483, Note_on_c, 0, 64, 116
1, 781486, Note_on_c, 0, 40, 0
1, 781486, Note_on_c, 0, 47, 0
1, 781486, Control_c, 0, 64, 127
1, 781489, Note_on_c, 0, 40, 111
1, 781489, Note_on_c, 0, 47, 99
1, 781536, Control_c, 0, 64, 0
1, 781536, Control_c, 0, 64, 0
1, 781552, Control_c, 0, 64, 0
1, 781552, Control_c, 0, 64, 0
1, 781582, Note_on_c, 0, 55, 99
1, 781582, Control_c, 0, 64, 127
1, 781582, Note_on_c, 0, 46, 93
1, 781582, Control_c, 0, 64, 127
1, 781684, Note_on_c, 0, 46, 0
1, 781684, Note_on_c, 0, 55, 0
1, 781684, Note_on_c, 0, 56, 99
1, 781687, Note_on_c, 0, 47, 93
1, 781786, Note_on_c, 0, 64, 0
1, 781786, Note_on_c, 0, 56, 0
1, 781786, Note_on_c, 0, 61, 103
1, 781789, Note_on_c, 0, 56, 0
1, 781789, Note_on_c, 0, 40, 0
1, 781789, Note_on_c, 0, 68, 117
1, 781792, Note_on_c, 0, 47, 0
1, 781792, Note_on_c, 0, 52, 99
1, 781792, Note_on_c, 0, 57, 99
1, 781795, Note_on_c, 0, 47, 0
1, 781888, Note_on_c, 0, 68, 0
1, 781888, Note_on_c, 0, 61, 0
1, 781888, Note_on_c, 0, 61, 103
1, 781891, Note_on_c, 0, 52, 0
1, 781891, Note_on_c, 0, 57, 0
1, 781891, Note_on_c, 0, 68, 117
1, 781894, Note_on_c, 0, 52, 111
1, 781894, Note_on_c, 0, 57, 99
1, 781912, Control_c, 0, 64, 0
1, 781912, Control_c, 0, 64, 0
1, 781991, Control_c, 0, 64, 127
1, 781991, Note_on_c, 0, 60, 103
1, 781991, Control_c, 0, 64, 127
1, 781994, Note_on_c, 0, 56, 93
1, 782093, Note_on_c, 0, 56, 0
1, 782093, Note_on_c, 0, 60, 0
1, 782093, Note_on_c, 0, 61, 103
1, 782096, Note_on_c, 0, 57, 93
1, 782195, Note_on_c, 0, 61, 0
1, 782195, Note_on_c, 0, 68, 0
1, 782195, Note_on_c, 0, 57, 99
1, 782198, Note_on_c, 0, 61, 0
1, 782198, Note_on_c, 0, 63, 99
1, 782198, Note_on_c, 0, 66, 117
1, 782201, Note_on_c, 0, 57, 0
1, 782201, Note_on_c, 0, 52, 0
1, 782201, Note_on_c, 0, 40, 111
1, 782204, Note_on_c, 0, 57, 0
1, 782204, Note_on_c, 0, 47, 99
1, 782297, Note_on_c, 0, 63, 0
1, 782297, Note_on_c, 0, 57, 0
1, 782297, Control_c, 0, 64, 127
1, 782300, Note_on_c, 0, 66, 0
1, 782300, Note_on_c, 0, 56, 110
1, 782300, Note_on_c, 0, 64, 117
1, 782303, Note_on_c, 0, 40, 0
1, 782303, Note_on_c, 0, 47, 0
1, 782303, Control_c, 0, 64, 127
1, 782306, Note_on_c, 0, 40, 90
1, 782306, Note_on_c, 0, 47, 90
1, 782347, Control_c, 0, 64, 0
1, 782347, Control_c, 0, 64, 0
1, 782409, Note_on_c, 0, 47, 0
1, 782409, Note_on_c, 0, 46, 91
1, 782521, Note_on_c, 0, 46, 0
1, 782521, Note_on_c, 0, 47, 91
1, 782634, Note_on_c, 0, 56, 0
1, 782634, Note_on_c, 0, 64, 0
1, 782634, Note_on_c, 0, 55, 85
1, 782637, Note_on_c, 0, 40, 0
1, 782637, Note_on_c, 0, 47, 0
1, 782637, Note_on_c, 0, 60, 103
1, 782640, Note_on_c, 0, 40, 92
1, 782640, Note_on_c, 0, 48, 92
1, 782746, Note_on_c, 0, 60, 0
1, 782746, Note_on_c, 0, 55, 0
1, 782746, Note_on_c, 0, 55, 86
1, 782749, Note_on_c, 0, 40, 0
1, 782749, Note_on_c, 0, 48, 0
1, 782749, Note_on_c, 0, 60, 105
1, 782752, Note_on_c, 0, 40, 93
1, 782752, Note_on_c, 0, 48, 93
1, 782858, Note_on_c, 0, 40, 0
1, 782858, Note_on_c, 0, 39, 94
1, 782971, Note_on_c, 0, 39, 0
1, 782971, Note_on_c, 0, 40, 94
1, 783083, Note_on_c, 0, 55, 0
1, 783083, Note_on_c, 0, 60, 0
1, 783083, Note_on_c, 0, 57, 89
1, 783086, Note_on_c, 0, 48, 0
1, 783086, Note_on_c, 0, 40, 0
1, 783086, Note_on_c, 0, 62, 109
1, 783089, Note_on_c, 0, 41, 95
1, 783089, Note_on_c, 0, 48, 95
1, 783195, Note_on_c, 0, 62, 0
1, 783195, Note_on_c, 0, 57, 0
1, 783195, Note_on_c, 0, 57, 90
1, 783198, Note_on_c, 0, 41, 0
1, 783198, Note_on_c, 0, 48, 0
1, 783198, Note_on_c, 0, 62, 110
1, 783201, Note_on_c, 0, 41, 96
1, 783201, Note_on_c, 0, 48, 96
1, 783308, Note_on_c, 0, 48, 0
1, 783308, Note_on_c, 0, 47, 97
1, 783420, Note_on_c, 0, 47, 0
1, 783420, Note_on_c, 0, 48, 97
1, 783532, Note_on_c, 0, 62, 0
1, 783532, Note_on_c, 0, 57, 0
1, 783532, Note_on_c, 0, 53, 93
1, 783535, Note_on_c, 0, 41, 0
1, 783535, Note_on_c, 0, 55, 93
1, 783535, Note_on_c, 0, 62, 107
1, 783538, Note_on_c, 0, 48, 0
1, 783538, Note_on_c, 0, 43, 98
1, 783538, Note_on_c, 0, 47, 98
1, 783645, Note_on_c, 0, 53, 0
1, 783645, Note_on_c, 0, 62, 0
1, 783645, Note_on_c, 0, 55, 0
1, 783648, Note_on_c, 0, 53, 95
1, 783648, Note_on_c, 0, 55, 95
1, 783648, Note_on_c, 0, 62, 108
1, 783651, Note_on_c, 0, 43, 0
1, 783651, Note_on_c, 0, 47, 0
1, 783651, Note_on_c, 0, 43, 99
1, 783654, Note_on_c, 0, 47, 99
1, 783757, Note_on_c, 0, 43, 0
1, 783757, Note_on_c, 0, 42, 100
1, 783869, Note_on_c, 0, 42, 0
1, 783869, Note_on_c, 0, 43, 100
1, 783982, Note_on_c, 0, 62, 0
1, 783982, Note_on_c, 0, 55, 0
1, 783982, Note_on_c, 0, 53, 0
1, 783985, Note_on_c, 0, 52, 98
1, 783985, Note_on_c, 0, 55, 98
1, 783985, Note_on_c, 0, 60, 112
1, 783988, Note_on_c, 0, 47, 0
1, 783988, Note_on_c, 0, 43, 0
1, 783988, Note_on_c, 0, 36, 101
1, 783991, Note_on_c, 0, 43, 101
1, 784094, Note_on_c, 0, 55, 0
1, 784094, Note_on_c, 0, 60, 0
1, 784094, Note_on_c, 0, 52, 0
1, 784097, Note_on_c, 0, 52, 108
1, 784097, Note_on_c, 0, 55, 108
1, 784097, Note_on_c, 0, 60, 117
1, 784100, Note_on_c, 0, 36, 0
1, 784100, Note_on_c, 0, 43, 0
1, 784100, Note_on_c, 0, 36, 117
1, 784103, Note_on_c, 0, 43, 99
1, 784177, Control_c, 0, 64, 127
1, 784177, Control_c, 0, 64, 127
1, 784219, Note_on_c, 0, 42, 92
1, 784321, Note_on_c, 0, 42, 0
1, 784321, Note_on_c, 0, 43, 92
1, 784423, Note_on_c, 0, 52, 0
1, 784423, Note_on_c, 0, 60, 0
1, 784423, Note_on_c, 0, 55, 0
1, 784426, Note_on_c, 0, 65, 108
1, 784426, Note_on_c, 0, 67, 108
1, 784426, Note_on_c, 0, 76, 108
1, 784429, Note_on_c, 0, 36, 0
1, 784429, Note_on_c, 0, 43, 0
1, 784429, Note_on_c, 0, 79, 117
1, 784432, Note_on_c, 0, 43, 0
1, 784432, Note_on_c, 0, 48, 99
1, 784432, Note_on_c, 0, 55, 103
1, 784548, Note_on_c, 0, 67, 0
1, 784548, Note_on_c, 0, 65, 0
1, 784548, Note_on_c, 0, 76, 0
1, 784551, Note_on_c, 0, 79, 0
1, 784551, Note_on_c, 0, 65, 108
1, 784551, Note_on_c, 0, 67, 108
1, 784554, Note_on_c, 0, 48, 0
1, 784554, Note_on_c, 0, 76, 108
1, 784554, Note_on_c, 0, 79, 117
1, 784557, Note_on_c, 0, 55, 0
1, 784557, Note_on_c, 0, 48, 99
1, 784557, Note_on_c, 0, 55, 103
1, 784593, Control_c, 0, 64, 0
1, 784593, Control_c, 0, 64, 0
1, 784673, Note_on_c, 0, 54, 103
1, 784697, Control_c, 0, 64, 127
1, 784697, Control_c, 0, 64, 127
1, 784775, Note_on_c, 0, 54, 0
1, 784775, Note_on_c, 0, 55, 103
1, 784877, Note_on_c, 0, 65, 0
1, 784877, Note_on_c, 0, 67, 0
1, 784877, Note_on_c, 0, 76, 0
1, 784880, Note_on_c, 0, 79, 0
1, 784880, Note_on_c, 0, 55, 0
1, 784880, Note_on_c, 0, 74, 114
1, 784883, Note_on_c, 0, 55, 0
1, 784883, Note_on_c, 0, 48, 0
1, 784883, Note_on_c, 0, 36, 111
1, 784886, Note_on_c, 0, 43, 99
1, 785002, Note_on_c, 0, 74, 0
1, 785002, Control_c, 0, 64, 127
1, 785002, Note_on_c, 0, 64, 99
1, 785005, Note_on_c, 0, 36, 0
1, 785005, Note_on_c, 0, 72, 114
1, 785005, Control_c, 0, 64, 127
1, 785008, Note_on_c, 0, 43, 0
1, 785008, Note_on_c, 0, 36, 117
1, 785008, Note_on_c, 0, 43, 99
1, 785055, Control_c, 0, 64, 0
1, 785055, Control_c, 0, 64, 0
1, 785104, Note_on_c, 0, 42, 92
1, 785122, Control_c, 0, 64, 127
1, 785122, Control_c, 0, 64, 127
1, 785206, Note_on_c, 0, 42, 0
1, 785206, Note_on_c, 0, 43, 92
1, 785308, Note_on_c, 0, 64, 0
1, 785308, Note_on_c, 0, 72, 0
1, 785308, Note_on_c, 0, 65, 108
1, 785311, Note_on_c, 0, 67, 108
1, 785311, Note_on_c, 0, 76, 108
1, 785311, Note_on_c, 0, 79, 117
1, 785314, Note_on_c, 0, 43, 0
1, 785314, Note_on_c, 0, 43, 0
1, 785314, Note_on_c, 0, 36, 0
1, 785317, Note_on_c, 0, 48, 99
1, 785317, Note_on_c, 0, 55, 103
1, 785410, Note_on_c, 0, 67, 0
1, 785410, Note_on_c, 0, 65, 0
1, 785410, Note_on_c, 0, 76, 0
1, 785413, Note_on_c, 0, 79, 0
1, 785413, Note_on_c, 0, 65, 108
1, 785413, Note_on_c, 0, 67, 108
1, 785416, Note_on_c, 0, 48, 0
1, 785416, Note_on_c, 0, 76, 108
1, 785416, Note_on_c, 0, 79, 117
1, 785419, Note_on_c, 0, 55, 0
1, 785419, Note_on_c, 0, 48, 99
1, 785419, Note_on_c, 0, 55, 103
1, 785425, Control_c, 0, 64, 0
1, 785425, Control_c, 0, 64, 0
1, 785499, Control_c, 0, 64, 127
1, 785499, Control_c, 0, 64, 127
1, 785512, Note_on_c, 0, 54, 103
1, 785614, Note_on_c, 0, 54, 0
1, 785614, Note_on_c, 0, 55, 103
1, 785716, Note_on_c, 0, 65, 0
1, 785716, Note_on_c, 0, 67, 0
1, 785716, Note_on_c, 0, 76, 0
1, 785719, Note_on_c, 0, 79, 0
1, 785719, Note_on_c, 0, 55, 0
1, 785719, Note_on_c, 0, 74, 114
1, 785722, Note_on_c, 0, 55, 0
1, 785722, Note_on_c, 0, 48, 0
1, 785722, Note_on_c, 0, 36, 111
1, 785725, Note_on_c, 0, 43, 99
1, 785841, Note_on_c, 0, 74, 0
1, 785841, Control_c, 0, 64, 127
1, 785841, Note_on_c, 0, 64, 99
1, 785844, Note_on_c, 0, 36, 0
1, 785844, Note_on_c, 0, 72, 108
1, 785844, Control_c, 0, 64, 127
1, 785847, Note_on_c, 0, 43, 0
1, 785847, Note_on_c, 0, 36, 117
1, 785847, Note_on_c, 0, 43, 99
1, 785878, Control_c, 0, 64, 0
1, 785878, Control_c, 0, 64, 0
1, 785966, Note_on_c, 0, 43, 0
1, 785966, Note_on_c, 0, 36, 0
1, 785966, Note_on_c, 0, 42, 99
1, 786091, Note_on_c, 0, 42, 0
1, 786091, Note_on_c, 0, 43, 100
1, 786211, Control_c, 0, 64, 127
1, 786211, Control_c, 0, 64, 127
1, 786216, Note_on_c, 0, 72, 0
1, 786216, Note_on_c, 0, 64, 0
1, 786216, Note_on_c, 0, 64, 89
1, 786219, Note_on_c, 0, 66, 89
1, 786219, Note_on_c, 0, 70, 89
1, 786219, Note_on_c, 0, 73, 99
1, 786222, Note_on_c, 0, 43, 0
1, 786222, Note_on_c, 0, 30, 88
1, 786222, Note_on_c, 0, 42, 100
1, 786328, Note_on_c, 0, 70, 0
1, 786328, Note_on_c, 0, 64, 0
1, 786328, Note_on_c, 0, 66, 0
1, 786331, Note_on_c, 0, 73, 0
1, 786331, Note_on_c, 0, 64, 89
1, 786331, Note_on_c, 0, 66, 89
1, 786334, Note_on_c, 0, 30, 0
1, 786334, Note_on_c, 0, 70, 89
1, 786334, Note_on_c, 0, 73, 99
1, 786337, Note_on_c, 0, 42, 0
1, 786337, Note_on_c, 0, 30, 100
1, 786337, Note_on_c, 0, 42, 112
1, 786369, Control_c, 0, 64, 0
1, 786369, Control_c, 0, 64, 0
1, 786440, Note_on_c, 0, 42, 0
1, 786440, Note_on_c, 0, 30, 0
1, 786440, Note_on_c, 0, 29, 91
1, 786443, Note_on_c, 0, 41, 103
1, 786553, Note_on_c, 0, 41, 0
1, 786553, Note_on_c, 0, 29, 0
1, 786553, Note_on_c, 0, 30, 92
1, 786556, Note_on_c, 0, 42, 104
1, 786665, Note_on_c, 0, 70, 0
1, 786665, Note_on_c, 0, 66, 0
1, 786665, Note_on_c, 0, 64, 0
1, 786668, Note_on_c, 0, 73, 0
1, 786668, Note_on_c, 0, 63, 91
1, 786668, Note_on_c, 0, 66, 91
1, 786671, Note_on_c, 0, 30, 0
1, 786671, Note_on_c, 0, 71, 91
1, 786671, Note_on_c, 0, 75, 102
1, 786674, Note_on_c, 0, 42, 0
1, 786674, Note_on_c, 0, 33, 92
1, 786674, Note_on_c, 0, 45, 104
1, 786677, Control_c, 0, 64, 127
1, 786677, Control_c, 0, 64, 127
1, 786777, Note_on_c, 0, 66, 0
1, 786777, Note_on_c, 0, 63, 0
1, 786777, Control_c, 0, 64, 127
1, 786780, Note_on_c, 0, 75, 0
1, 786780, Note_on_c, 0, 71, 0
1, 786780, Note_on_c, 0, 63, 92
1, 786783, Note_on_c, 0, 66, 92
1, 786783, Note_on_c, 0, 71, 92
1, 786783, Note_on_c, 0, 75, 103
1, 786786, Note_on_c, 0, 45, 0
1, 786786, Note_on_c, 0, 33, 0
1, 786786, Control_c, 0, 64, 127
1, 786789, Note_on_c, 0, 33, 101
1, 786789, Note_on_c, 0, 45, 113
1, 786869, Control_c, 0, 64, 0
1, 786869, Control_c, 0, 64, 0
1, 786889, Note_on_c, 0, 45, 0
1, 786889, Note_on_c, 0, 33, 0
1, 786889, Note_on_c, 0, 32, 93
1, 786892, Note_on_c, 0, 44, 105
1, 787002, Note_on_c, 0, 44, 0
1, 787002, Note_on_c, 0, 32, 0
1, 787002, Note_on_c, 0, 33, 93
1, 787005, Note_on_c, 0, 45, 105
1, 787114, Note_on_c, 0, 71, 0
1, 787114, Note_on_c, 0, 66, 0
1, 787114, Note_on_c, 0, 63, 0
1, 787117, Note_on_c, 0, 75, 0
1, 787117, Note_on_c, 0, 64, 94
1, 787117, Note_on_c, 0, 71, 94
1, 787120, Note_on_c, 0, 33, 0
1, 787120, Note_on_c, 0, 45, 0
1, 787120, Note_on_c, 0, 76, 105
1, 787123, Note_on_c, 0, 32, 93
1, 787123, Note_on_c, 0, 44, 105
1, 787126, Control_c, 0, 64, 127
1, 787126, Control_c, 0, 64, 127
1, 787226, Note_on_c, 0, 76, 0
1, 787226, Note_on_c, 0, 71, 0
1, 787226, Note_on_c, 0, 64, 0
1, 787229, Note_on_c, 0, 64, 96
1, 787229, Note_on_c, 0, 71, 96
1, 787229, Note_on_c, 0, 76, 117
1, 787232, Note_on_c, 0, 32, 0
1, 787232, Note_on_c, 0, 44, 0
1, 787232, Note_on_c, 0, 32, 103
1, 787235, Note_on_c, 0, 44, 115
1, 787271, Control_c, 0, 64, 0
1, 787271, Control_c, 0, 64, 0
1, 787329, Note_on_c, 0, 44, 0
1, 787329, Note_on_c, 0, 32, 0
1, 787329, Note_on_c, 0, 31, 94
1, 787332, Note_on_c, 0, 43, 106
1, 787431, Note_on_c, 0, 43, 0
1, 787431, Note_on_c, 0, 31, 0
1, 787431, Note_on_c, 0, 32, 94
1, 787434, Note_on_c, 0, 44, 106
1, 787533, Note_on_c, 0, 44, 0
1, 787533, Note_on_c, 0, 32, 0
1, 787533, Note_on_c, 0, 31, 94
1, 787536, Note_on_c, 0, 43, 106
1, 787635, Note_on_c, 0, 31, 0
1, 787635, Control_c, 0, 64, 127
1, 787635, Control_c, 0, 64, 127
1, 787638, Note_on_c, 0, 43, 0
1, 787638, Note_on_c, 0, 31, 101
1, 787638, Note_on_c, 0, 43, 113
1, 787718, Control_c, 0, 64, 0
1, 787718, Control_c, 0, 64, 0
1, 787737, Note_on_c, 0, 43, 0
1, 787737, Note_on_c, 0, 31, 0
1, 787737, Note_on_c, 0, 30, 94
1, 787740, Note_on_c, 0, 42, 106
1, 787839, Note_on_c, 0, 42, 0
1, 787839, Note_on_c, 0, 30, 0
1, 787839, Note_on_c, 0, 31, 95
1, 787842, Note_on_c, 0, 43, 107
1, 787941, Note_on_c, 0, 71, 0
1, 787941, Note_on_c, 0, 76, 0
1, 787941, Note_on_c, 0, 64, 0
1, 787944, Note_on_c, 0, 66, 102
1, 787944, Note_on_c, 0, 70, 102
1, 787944, Note_on_c, 0, 73, 102
1, 787947, Note_on_c, 0, 31, 0
1, 787947, Note_on_c, 0, 43, 0
1, 787947, Note_on_c, 0, 78, 117
1, 787950, Control_c, 0, 64, 127
1, 787950, Note_on_c, 0, 30, 95
1, 787950, Note_on_c, 0, 42, 108
1, 787950, Control_c, 0, 64, 127
1, 788043, Note_on_c, 0, 70, 0
1, 788043, Note_on_c, 0, 73, 0
1, 788043, Note_on_c, 0, 66, 0
1, 788046, Note_on_c, 0, 78, 0
1, 788046, Note_on_c, 0, 66, 103
1, 788046, Note_on_c, 0, 70, 103
1, 788049, Note_on_c, 0, 30, 0
1, 788049, Note_on_c, 0, 73, 103
1, 788049, Note_on_c, 0, 78, 117
1, 788052, Note_on_c, 0, 42, 0
1, 788052, Note_on_c, 0, 30, 106
1, 788052, Note_on_c, 0, 42, 117
1, 788088, Control_c, 0, 64, 0
1, 788088, Control_c, 0, 64, 0
1, 788145, Note_on_c, 0, 42, 0
1, 788145, Note_on_c, 0, 30, 0
1, 788145, Note_on_c, 0, 29, 98
1, 788148, Note_on_c, 0, 41, 111
1, 788248, Note_on_c, 0, 41, 0
1, 788248, Note_on_c, 0, 29, 0
1, 788248, Note_on_c, 0, 30, 99
1, 788251, Note_on_c, 0, 42, 112
1, 788350, Note_on_c, 0, 73, 0
1, 788350, Note_on_c, 0, 70, 0
1, 788350, Note_on_c, 0, 66, 0
1, 788353, Note_on_c, 0, 78, 0
1, 788353, Note_on_c, 0, 66, 105
1, 788353, Note_on_c, 0, 71, 105
1, 788356, Note_on_c, 0, 30, 0
1, 788356, Note_on_c, 0, 75, 105
1, 788356, Note_on_c, 0, 78, 117
1, 788359, Note_on_c, 0, 42, 0
1, 788359, Note_on_c, 0, 33, 100
1, 788359, Note_on_c, 0, 45, 113
1, 788452, Note_on_c, 0, 71, 0
1, 788452, Note_on_c, 0, 66, 0
1, 788452, Control_c, 0, 64, 127
1, 788455, Note_on_c, 0, 78, 0
1, 788455, Note_on_c, 0, 75, 0
1, 788455, Note_on_c, 0, 66, 106
1, 788458, Note_on_c, 0, 71, 106
1, 788458, Note_on_c, 0, 75, 106
1, 788458, Note_on_c, 0, 78, 117
1, 788461, Note_on_c, 0, 45, 0
1, 788461, Note_on_c, 0, 33, 0
1, 788461, Control_c, 0, 64, 127
1, 788464, Note_on_c, 0, 33, 107
1, 788464, Note_on_c, 0, 45, 117
1, 788535, Control_c, 0, 64, 0
1, 788535, Control_c, 0, 64, 0
1, 788554, Note_on_c, 0, 45, 0
1, 788554, Note_on_c, 0, 33, 0
1, 788554, Note_on_c, 0, 32, 100
1, 788557, Note_on_c, 0, 44, 114
1, 788656, Note_on_c, 0, 44, 0
1, 788656, Note_on_c, 0, 32, 0
1, 788656, Note_on_c, 0, 33, 101
1, 788659, Note_on_c, 0, 45, 115
1, 788758, Note_on_c, 0, 75, 0
1, 788758, Note_on_c, 0, 71, 0
1, 788758, Note_on_c, 0, 66, 0
1, 788761, Note_on_c, 0, 78, 0
1, 788761, Note_on_c, 0, 71, 107
1, 788761, Note_on_c, 0, 76, 107
1, 788764, Note_on_c, 0, 33, 0
1, 788764, Note_on_c, 0, 45, 0
1, 788764, Note_on_c, 0, 83, 117
1, 788767, Control_c, 0, 64, 127
1, 788767, Note_on_c, 0, 32, 102
1, 788767, Note_on_c, 0, 44, 116
1, 788767, Control_c, 0, 64, 127
1, 788860, Note_on_c, 0, 83, 0
1, 788860, Note_on_c, 0, 76, 0
1, 788860, Note_on_c, 0, 71, 0
1, 788863, Note_on_c, 0, 71, 107
1, 788863, Note_on_c, 0, 76, 107
1, 788863, Note_on_c, 0, 83, 117
1, 788866, Note_on_c, 0, 32, 0
1, 788866, Note_on_c, 0, 44, 0
1, 788866, Note_on_c, 0, 32, 113
1, 788869, Note_on_c, 0, 44, 117
1, 788905, Control_c, 0, 64, 0
1, 788905, Control_c, 0, 64, 0
1, 788962, Note_on_c, 0, 44, 0
1, 788962, Note_on_c, 0, 32, 0
1, 788962, Note_on_c, 0, 31, 105
1, 788965, Note_on_c, 0, 43, 117
1, 789064, Note_on_c, 0, 43, 0
1, 789064, Note_on_c, 0, 31, 0
1, 789064, Note_on_c, 0, 32, 106
1, 789067, Note_on_c, 0, 44, 117
1, 789167, Note_on_c, 0, 44, 0
1, 789167, Note_on_c, 0, 32, 0
1, 789167, Note_on_c, 0, 31, 106
1, 789170, Note_on_c, 0, 43, 117
1, 789269, Note_on_c, 0, 31, 0
1, 789269, Control_c, 0, 64, 127
1, 789269, Control_c, 0, 64, 127
1, 789272, Note_on_c, 0, 43, 0
1, 789272, Note_on_c, 0, 31, 114
1, 789272, Note_on_c, 0, 43, 117
1, 789352, Control_c, 0, 64, 0
1, 789352, Control_c, 0, 64, 0
1, 789371, Note_on_c, 0, 43, 0
1, 789371, Note_on_c, 0, 31, 0
1, 789371, Note_on_c, 0, 30, 107
1, 789374, Note_on_c, 0, 42, 117
1, 789473, Note_on_c, 0, 42, 0
1, 789473, Note_on_c, 0, 30, 0
1, 789473, Note_on_c, 0, 31, 108
1, 789476, Note_on_c, 0, 43, 117
1, 789575, Note_on_c, 0, 76, 0
1, 789575, Note_on_c, 0, 83, 0
1, 789575, Note_on_c, 0, 71, 0
1, 789578, Note_on_c, 0, 73, 109
1, 789578, Note_on_c, 0, 78, 109
1, 789578, Note_on_c, 0, 82, 109
1, 789581, Note_on_c, 0, 31, 0
1, 789581, Note_on_c, 0, 43, 0
1, 789581, Note_on_c, 0, 85, 117
1, 789584, Control_c, 0, 64, 127
1, 789584, Note_on_c, 0, 30, 108
1, 789584, Note_on_c, 0, 42, 117
1, 789584, Control_c, 0, 64, 127
1, 789677, Note_on_c, 0, 78, 0
1, 789677, Note_on_c, 0, 82, 0
1, 789677, Note_on_c, 0, 73, 0
1, 789680, Note_on_c, 0, 85, 0
1, 789680, Note_on_c, 0, 73, 110
1, 789680, Note_on_c, 0, 78, 110
1, 789683, Note_on_c, 0, 30, 0
1, 789683, Note_on_c, 0, 82, 110
1, 789683, Note_on_c, 0, 85, 117
1, 789686, Note_on_c, 0, 42, 0
1, 789686, Note_on_c, 0, 30, 117
1, 789686, Note_on_c, 0, 42, 117
1, 789722, Control_c, 0, 64, 0
1, 789722, Control_c, 0, 64, 0
1, 789779, Note_on_c, 0, 42, 0
1, 789779, Note_on_c, 0, 30, 0
1, 789779, Note_on_c, 0, 29, 111
1, 789782, Note_on_c, 0, 41, 117
1, 789881, Note_on_c, 0, 41, 0
1, 789881, Note_on_c, 0, 29, 0
1, 789881, Note_on_c, 0, 30, 112
1, 789884, Note_on_c, 0, 42, 117
1, 789983, Note_on_c, 0, 82, 0
1, 789983, Note_on_c, 0, 78, 0
1, 789983, Note_on_c, 0, 73, 0
1, 789986, Note_on_c, 0, 85, 0
1, 789986, Note_on_c, 0, 75, 111
1, 789986, Note_on_c, 0, 78, 111
1, 789989, Note_on_c, 0, 30, 0
1, 789989, Note_on_c, 0, 83, 111
1, 789989, Note_on_c, 0, 87, 117
1, 789992, Note_on_c, 0, 42, 0
1, 789992, Note_on_c, 0, 35, 113
1, 789992, Note_on_c, 0, 47, 117
1, 790085, Note_on_c, 0, 78, 0
1, 790085, Note_on_c, 0, 75, 0
1, 790085, Control_c, 0, 64, 0
1, 790088, Note_on_c, 0, 87, 0
1, 790088, Note_on_c, 0, 83, 0
1, 790088, Note_on_c, 0, 75, 111
1, 790091, Note_on_c, 0, 78, 111
1, 790091, Note_on_c, 0, 83, 111
1, 790091, Note_on_c, 0, 87, 117
1, 790094, Note_on_c, 0, 35, 0
1, 790094, Control_c, 0, 64, 0
1, 790094, Control_c, 0, 64, 0
1, 790097, Note_on_c, 0, 47, 0
1, 790097, Note_on_c, 0, 35, 117
1, 790097, Note_on_c, 0, 47, 117
1, 790188, Note_on_c, 0, 47, 0
1, 790188, Note_on_c, 0, 35, 0
1, 790188, Note_on_c, 0, 34, 114
1, 790191, Note_on_c, 0, 46, 117
1, 790290, Note_on_c, 0, 46, 0
1, 790290, Note_on_c, 0, 34, 0
1, 790290, Note_on_c, 0, 35, 114
1, 790293, Note_on_c, 0, 47, 117
1, 790392, Note_on_c, 0, 83, 0
1, 790392, Note_on_c, 0, 78, 0
1, 790392, Note_on_c, 0, 75, 0
1, 790395, Note_on_c, 0, 87, 0
1, 790395, Note_on_c, 0, 76, 112
1, 790395, Note_on_c, 0, 80, 112
1, 790398, Note_on_c, 0, 35, 0
1, 790398, Note_on_c, 0, 83, 112
1, 790398, Note_on_c, 0, 88, 117
1, 790401, Note_on_c, 0, 47, 0
1, 790401, Note_on_c, 0, 28, 115
1, 790401, Note_on_c, 0, 40, 117
1, 790524, Note_on_c, 0, 83, 0
1, 790524, Note_on_c, 0, 80, 0
1, 790524, Note_on_c, 0, 76, 0
1, 790527, Note_on_c, 0, 88, 0
1, 790527, Note_on_c, 0, 76, 112
1, 790527, Note_on_c, 0, 80, 112
1, 790530, Note_on_c, 0, 28, 0
1, 790530, Note_on_c, 0, 83, 112
1, 790530, Note_on_c, 0, 88, 117
1, 790533, Note_on_c, 0, 40, 0
1, 790533, Note_on_c, 0, 28, 117
1, 790533, Note_on_c, 0, 40, 117
1, 790898, Note_on_c, 0, 83, 0
1, 790898, Note_on_c, 0, 80, 0
1, 790898, Note_on_c, 0, 76, 0
1, 790901, Note_on_c, 0, 88, 0
1, 790901, Note_on_c, 0, 28, 0
1, 790901, Note_on_c, 0, 40, 0
1, 793225, Note_on_c, 0, 75, 85
1, 793305, Note_on_c, 0, 75, 0
1, 793305, Control_c, 0, 64, 127
1, 793305, Note_on_c, 0, 73, 90
1, 793308, Control_c, 0, 64, 127
1, 793308, Note_on_c, 0, 59, 61
1, 793308, Note_on_c, 0, 61, 61
1, 793311, Note_on_c, 0, 65, 61
1, 793311, Note_on_c, 0, 68, 73
1, 793626, Note_on_c, 0, 73, 0
1, 793787, Note_on_c, 0, 72, 86
1, 793947, Note_on_c, 0, 59, 0
1, 793947, Note_on_c, 0, 61, 0
1, 793947, Note_on_c, 0, 73, 86
1, 793950, Note_on_c, 0, 65, 0
1, 793950, Note_on_c, 0, 68, 0
1, 793950, Note_on_c, 0, 59, 59
1, 793953, Note_on_c, 0, 61, 59
1, 793953, Note_on_c, 0, 65, 59
1, 793953, Note_on_c, 0, 68, 70
1, 793957, Note_on_c, 0, 72, 0
1, 793977, Control_c, 0, 64, 0
1, 793977, Control_c, 0, 64, 0
1, 794113, Control_c, 0, 64, 127
1, 794113, Control_c, 0, 64, 127
1, 794446, Note_on_c, 0, 65, 0
1, 794446, Note_on_c, 0, 61, 0
1, 794446, Note_on_c, 0, 59, 0
1, 794449, Note_on_c, 0, 68, 0
1, 794449, Note_on_c, 0, 59, 59
1, 794449, Note_on_c, 0, 61, 59
1, 794452, Note_on_c, 0, 65, 59
1, 794452, Note_on_c, 0, 68, 70
1, 794696, Note_on_c, 0, 75, 88
1, 794706, Note_on_c, 0, 73, 0
1, 794945, Note_on_c, 0, 59, 0
1, 794945, Note_on_c, 0, 61, 0
1, 794945, Note_on_c, 0, 77, 89
1, 794948, Note_on_c, 0, 65, 0
1, 794948, Note_on_c, 0, 68, 0
1, 794948, Note_on_c, 0, 59, 62
1, 794951, Note_on_c, 0, 61, 62
1, 794951, Note_on_c, 0, 65, 62
1, 794951, Note_on_c, 0, 68, 74
1, 794958, Note_on_c, 0, 75, 0
1, 794965, Control_c, 0, 64, 0
1, 794965, Control_c, 0, 64, 0
1, 795162, Control_c, 0, 64, 127
1, 795162, Control_c, 0, 64, 127
1, 795266, Note_on_c, 0, 78, 91
1, 795276, Note_on_c, 0, 77, 0
1, 795516, Note_on_c, 0, 61, 0
1, 795516, Note_on_c, 0, 59, 0
1, 795516, Note_on_c, 0, 80, 92
1, 795519, Note_on_c, 0, 68, 0
1, 795519, Note_on_c, 0, 65, 0
1, 795519, Note_on_c, 0, 59, 59
1, 795522, Note_on_c, 0, 61, 59
1, 795522, Note_on_c, 0, 65, 59
1, 795522, Note_on_c, 0, 68, 70
1, 795526, Note_on_c, 0, 78, 0
1, 795766, Note_on_c, 0, 82, 95
1, 795775, Note_on_c, 0, 80, 0
1, 795980, Control_c, 0, 64, 0
1, 795980, Control_c, 0, 64, 0
1, 796015, Note_on_c, 0, 61, 0
1, 796015, Note_on_c, 0, 59, 0
1, 796015, Note_on_c, 0, 83, 96
1, 796018, Note_on_c, 0, 68, 0
1, 796018, Note_on_c, 0, 65, 0
1, 796018, Note_on_c, 0, 59, 59
1, 796021, Note_on_c, 0, 61, 59
1, 796021, Note_on_c, 0, 65, 59
1, 796021, Note_on_c, 0, 68, 70
1, 796025, Note_on_c, 0, 82, 0
1, 796086, Control_c, 0, 64, 127
1, 796086, Control_c, 0, 64, 127
1, 796265, Note_on_c, 0, 85, 97
1, 796277, Note_on_c, 0, 83, 0
1, 796586, Note_on_c, 0, 61, 0
1, 796586, Note_on_c, 0, 59, 0
1, 796586, Note_on_c, 0, 86, 99
1, 796589, Note_on_c, 0, 68, 0
1, 796589, Note_on_c, 0, 65, 0
1, 796589, Note_on_c, 0, 59, 63
1, 796592, Note_on_c, 0, 61, 63
1, 796592, Note_on_c, 0, 65, 63
1, 796592, Note_on_c, 0, 73, 82
1, 796596, Note_on_c, 0, 85, 0
1, 796602, Control_c, 0, 64, 0
1, 796602, Control_c, 0, 64, 0
1, 796746, Control_c, 0, 64, 127
1, 796746, Control_c, 0, 64, 127
1, 797114, Note_on_c, 0, 65, 0
1, 797114, Note_on_c, 0, 61, 0
1, 797114, Note_on_c, 0, 59, 0
1, 797117, Note_on_c, 0, 73, 0
1, 797117, Note_on_c, 0, 59, 58
1, 797117, Note_on_c, 0, 61, 58
1, 797120, Note_on_c, 0, 65, 58
1, 797120, Note_on_c, 0, 68, 70
1, 797364, Note_on_c, 0, 87, 97
1, 797374, Note_on_c, 0, 86, 0
1, 797613, Note_on_c, 0, 59, 0
1, 797613, Note_on_c, 0, 61, 0
1, 797613, Note_on_c, 0, 89, 98
1, 797616, Note_on_c, 0, 65, 0
1, 797616, Note_on_c, 0, 68, 0
1, 797616, Note_on_c, 0, 59, 54
1, 797619, Note_on_c, 0, 61, 54
1, 797619, Note_on_c, 0, 65, 54
1, 797619, Note_on_c, 0, 68, 65
1, 797626, Note_on_c, 0, 87, 0
1, 797633, Control_c, 0, 64, 0
1, 797633, Control_c, 0, 64, 0
1, 797827, Control_c, 0, 64, 127
1, 797827, Control_c, 0, 64, 127
1, 797934, Note_on_c, 0, 87, 90
1, 797946, Note_on_c, 0, 89, 0
1, 798159, Note_on_c, 0, 87, 90
1, 798234, Note_on_c, 0, 87, 0
1, 798234, Note_on_c, 0, 87, 0
1, 798234, Note_on_c, 0, 80, 84
1, 798237, Note_on_c, 0, 65, 0
1, 798237, Note_on_c, 0, 61, 0
1, 798237, Note_on_c, 0, 59, 0
1, 798240, Note_on_c, 0, 68, 0
1, 798240, Note_on_c, 0, 59, 59
1, 798240, Note_on_c, 0, 61, 59
1, 798243, Note_on_c, 0, 65, 59
1, 798243, Note_on_c, 0, 73, 72
1, 798833, Note_on_c, 0, 65, 0
1, 798833, Note_on_c, 0, 61, 0
1, 798833, Note_on_c, 0, 59, 0
1, 798836, Note_on_c, 0, 73, 0
1, 798836, Note_on_c, 0, 59, 53
1, 798836, Note_on_c, 0, 61, 57
1, 798839, Note_on_c, 0, 65, 53
1, 798839, Note_on_c, 0, 68, 63
1, 799332, Note_on_c, 0, 65, 0
1, 799332, Note_on_c, 0, 61, 0
1, 799332, Note_on_c, 0, 59, 0
1, 799335, Note_on_c, 0, 68, 0
1, 799335, Note_on_c, 0, 59, 52
1, 799335, Note_on_c, 0, 61, 52
1, 799338, Note_on_c, 0, 65, 52
1, 799338, Note_on_c, 0, 68, 61
1, 799769, Note_on_c, 0, 51, 80
1, 799801, Control_c, 0, 64, 0
1, 799801, Control_c, 0, 64, 0
1, 799831, Note_on_c, 0, 51, 0
1, 799831, Note_on_c, 0, 80, 0
1, 799831, Control_c, 0, 64, 0
1, 799834, Note_on_c, 0, 59, 0
1, 799834, Note_on_c, 0, 61, 0
1, 799834, Note_on_c, 0, 49, 85
1, 799837, Note_on_c, 0, 65, 0
1, 799837, Note_on_c, 0, 68, 0
1, 799837, Note_on_c, 0, 58, 61
1, 799840, Note_on_c, 0, 61, 61
1, 799840, Note_on_c, 0, 66, 61
1, 799840, Note_on_c, 0, 73, 73
1, 799976, Control_c, 0, 64, 127
1, 799976, Control_c, 0, 64, 127
1, 800096, Note_on_c, 0, 49, 0
1, 800228, Note_on_c, 0, 48, 80
1, 800360, Note_on_c, 0, 58, 0
1, 800360, Note_on_c, 0, 61, 0
1, 800360, Note_on_c, 0, 49, 80
1, 800363, Note_on_c, 0, 66, 0
1, 800363, Note_on_c, 0, 73, 0
1, 800363, Note_on_c, 0, 58, 50
1, 800366, Note_on_c, 0, 61, 50
1, 800366, Note_on_c, 0, 66, 59
1, 800370, Note_on_c, 0, 48, 0
1, 800467, Control_c, 0, 64, 0
1, 800467, Control_c, 0, 64, 0
1, 800482, Control_c, 0, 64, 0
1, 800482, Control_c, 0, 64, 0
1, 800634, Control_c, 0, 64, 127
1, 800634, Control_c, 0, 64, 127
1, 800859, Note_on_c, 0, 61, 0
1, 800859, Note_on_c, 0, 66, 0
1, 800859, Note_on_c, 0, 58, 0
1, 800862, Note_on_c, 0, 58, 50
1, 800862, Note_on_c, 0, 61, 50
1, 800862, Note_on_c, 0, 66, 59
1, 800938, Control_c, 0, 64, 0
1, 800938, Control_c, 0, 64, 0
1, 800968, Control_c, 0, 64, 0
1, 800968, Control_c, 0, 64, 0
1, 801089, Control_c, 0, 64, 127
1, 801089, Control_c, 0, 64, 127
1, 801109, Note_on_c, 0, 49, 0
1, 801109, Note_on_c, 0, 48, 79
1, 801358, Note_on_c, 0, 58, 0
1, 801358, Note_on_c, 0, 61, 0
1, 801358, Note_on_c, 0, 47, 78
1, 801361, Note_on_c, 0, 66, 0
1, 801361, Note_on_c, 0, 58, 62
1, 801361, Note_on_c, 0, 61, 62
1, 801364, Note_on_c, 0, 66, 62
1, 801364, Note_on_c, 0, 73, 74
1, 801370, Note_on_c, 0, 48, 0
1, 801381, Control_c, 0, 64, 0
1, 801381, Control_c, 0, 64, 0
1, 801490, Control_c, 0, 64, 0
1, 801490, Control_c, 0, 64, 0
1, 801599, Control_c, 0, 64, 127
1, 801599, Control_c, 0, 64, 127
1, 801658, Note_on_c, 0, 46, 76
1, 801668, Note_on_c, 0, 47, 0
1, 801907, Note_on_c, 0, 61, 0
1, 801907, Note_on_c, 0, 58, 0
1, 801907, Note_on_c, 0, 44, 74
1, 801910, Note_on_c, 0, 73, 0
1, 801910, Note_on_c, 0, 66, 0
1, 801910, Note_on_c, 0, 58, 50
1, 801913, Note_on_c, 0, 61, 50
1, 801913, Note_on_c, 0, 66, 59
1, 801917, Note_on_c, 0, 46, 0
1, 801988, Control_c, 0, 64, 0
1, 801988, Control_c, 0, 64, 0
1, 802034, Control_c, 0, 64, 0
1, 802034, Control_c, 0, 64, 0
1, 802140, Control_c, 0, 64, 127
1, 802140, Control_c, 0, 64, 127
1, 802157, Note_on_c, 0, 42, 74
1, 802167, Note_on_c, 0, 44, 0
1, 802407, Note_on_c, 0, 61, 0
1, 802407, Note_on_c, 0, 58, 0
1, 802407, Note_on_c, 0, 41, 71
1, 802410, Note_on_c, 0, 66, 0
1, 802410, Note_on_c, 0, 58, 50
1, 802410, Note_on_c, 0, 61, 50
1, 802413, Note_on_c, 0, 66, 59
1, 802417, Note_on_c, 0, 42, 0
1, 802510, Control_c, 0, 64, 0
1, 802510, Control_c, 0, 64, 0
1, 802542, Control_c, 0, 64, 0
1, 802542, Control_c, 0, 64, 0
1, 802670, Control_c, 0, 64, 127
1, 802670, Note_on_c, 0, 39, 69
1, 802670, Control_c, 0, 64, 127
1, 802681, Note_on_c, 0, 41, 0
1, 802935, Note_on_c, 0, 61, 0
1, 802935, Note_on_c, 0, 58, 0
1, 802935, Note_on_c, 0, 37, 71
1, 802938, Note_on_c, 0, 66, 0
1, 802938, Note_on_c, 0, 58, 56
1, 802938, Note_on_c, 0, 61, 56
1, 802941, Note_on_c, 0, 66, 56
1, 802941, Note_on_c, 0, 73, 73
1, 802945, Note_on_c, 0, 39, 0
1, 802975, Control_c, 0, 64, 0
1, 802975, Control_c, 0, 64, 0
1, 803023, Control_c, 0, 64, 0
1, 803023, Control_c, 0, 64, 0
1, 803152, Control_c, 0, 64, 127
1, 803152, Control_c, 0, 64, 127
1, 803464, Note_on_c, 0, 66, 0
1, 803464, Note_on_c, 0, 61, 0
1, 803464, Note_on_c, 0, 58, 0
1, 803467, Note_on_c, 0, 73, 0
1, 803467, Note_on_c, 0, 58, 48
1, 803467, Note_on_c, 0, 61, 48
1, 803470, Note_on_c, 0, 66, 57
1, 803489, Control_c, 0, 64, 0
1, 803489, Control_c, 0, 64, 0
1, 803538, Control_c, 0, 64, 0
1, 803538, Control_c, 0, 64, 0
1, 803618, Control_c, 0, 64, 127
1, 803618, Control_c, 0, 64, 127
1, 803728, Note_on_c, 0, 36, 73
1, 803740, Note_on_c, 0, 37, 0
1, 804028, Note_on_c, 0, 58, 0
1, 804028, Note_on_c, 0, 61, 0
1, 804028, Note_on_c, 0, 39, 73
1, 804031, Note_on_c, 0, 66, 0
1, 804031, Note_on_c, 0, 58, 49
1, 804031, Note_on_c, 0, 61, 49
1, 804034, Note_on_c, 0, 66, 58
1, 804040, Note_on_c, 0, 36, 0
1, 804060, Control_c, 0, 64, 0
1, 804060, Control_c, 0, 64, 0
1, 804197, Control_c, 0, 64, 0
1, 804197, Control_c, 0, 64, 0
1, 804313, Control_c, 0, 64, 127
1, 804313, Control_c, 0, 64, 127
1, 804348, Note_on_c, 0, 37, 67
1, 804361, Note_on_c, 0, 39, 0
1, 804589, Note_on_c, 0, 37, 66
1, 804664, Control_c, 0, 64, 0
1, 804664, Control_c, 0, 64, 0
1, 804669, Note_on_c, 0, 37, 0
1, 804669, Note_on_c, 0, 37, 0
1, 804669, Note_on_c, 0, 30, 62
1, 804672, Note_on_c, 0, 61, 0
1, 804672, Note_on_c, 0, 66, 0
1, 804672, Note_on_c, 0, 58, 0
1, 804675, Note_on_c, 0, 58, 56
1, 804675, Note_on_c, 0, 61, 56
1, 804675, Note_on_c, 0, 66, 56
1, 804678, Note_on_c, 0, 73, 66
1, 804762, Control_c, 0, 64, 0
1, 804762, Control_c, 0, 64, 0
1, 805230, Control_c, 0, 64, 127
1, 805230, Control_c, 0, 64, 127
1, 805311, Note_on_c, 0, 66, 0
1, 805311, Note_on_c, 0, 61, 0
1, 805311, Note_on_c, 0, 58, 0
1, 805314, Note_on_c, 0, 73, 0
1, 805314, Note_on_c, 0, 58, 47
1, 805314, Note_on_c, 0, 61, 47
1, 805317, Note_on_c, 0, 66, 56
1, 805810, Note_on_c, 0, 66, 0
1, 805810, Note_on_c, 0, 61, 0
1, 805810, Note_on_c, 0, 58, 0
1, 805813, Note_on_c, 0, 58, 47
1, 805813, Note_on_c, 0, 61, 47
1, 805813, Note_on_c, 0, 66, 56
1, 806372, Note_on_c, 0, 77, 82
1, 806372, Control_c, 0, 64, 0
1, 806372, Control_c, 0, 64, 0
1, 806452, Control_c, 0, 64, 127
1, 806452, Control_c, 0, 64, 127
1, 806452, Control_c, 0, 64, 0
1, 806455, Note_on_c, 0, 77, 0
1, 806455, Note_on_c, 0, 30, 0
1, 806455, Note_on_c, 0, 75, 87
1, 806458, Control_c, 0, 64, 127
1, 806458, Control_c, 0, 64, 127
1, 806458, Control_c, 0, 64, 0
1, 806461, Note_on_c, 0, 58, 0
1, 806461, Note_on_c, 0, 66, 0
1, 806461, Note_on_c, 0, 61, 0
1, 806464, Note_on_c, 0, 58, 57
1, 806464, Note_on_c, 0, 63, 57
1, 806464, Note_on_c, 0, 67, 69
1, 806467, Note_on_c, 0, 73, 57
1, 806627, Control_c, 0, 64, 127
1, 806627, Control_c, 0, 64, 127
1, 806773, Note_on_c, 0, 75, 0
1, 806934, Note_on_c, 0, 74, 86
1, 807094, Note_on_c, 0, 58, 0
1, 807094, Note_on_c, 0, 63, 0
1, 807094, Note_on_c, 0, 75, 86
1, 807097, Note_on_c, 0, 67, 0
1, 807097, Note_on_c, 0, 73, 0
1, 807097, Note_on_c, 0, 58, 50
1, 807100, Note_on_c, 0, 63, 50
1, 807100, Note_on_c, 0, 67, 59
1, 807104, Note_on_c, 0, 74, 0
1, 807124, Control_c, 0, 64, 0
1, 807124, Control_c, 0, 64, 0
1, 807124, Control_c, 0, 64, 0
1, 807127, Control_c, 0, 64, 0
1, 807127, Control_c, 0, 64, 0
1, 807127, Control_c, 0, 64, 0
1, 807260, Control_c, 0, 64, 127
1, 807260, Control_c, 0, 64, 127
1, 807260, Control_c, 0, 64, 127
1, 807263, Control_c, 0, 64, 127
1, 807263, Control_c, 0, 64, 127
1, 807263, Control_c, 0, 64, 127
1, 807593, Note_on_c, 0, 63, 0
1, 807593, Note_on_c, 0, 67, 0
1, 807593, Note_on_c, 0, 58, 0
1, 807596, Note_on_c, 0, 58, 50
1, 807596, Note_on_c, 0, 63, 50
1, 807596, Note_on_c, 0, 67, 59
1, 807843, Note_on_c, 0, 77, 88
1, 807853, Note_on_c, 0, 75, 0
1, 808092, Note_on_c, 0, 58, 0
1, 808092, Note_on_c, 0, 63, 0
1, 808092, Note_on_c, 0, 79, 89
1, 808095, Note_on_c, 0, 67, 0
1, 808095, Note_on_c, 0, 58, 62
1, 808095, Note_on_c, 0, 63, 62
1, 808098, Note_on_c, 0, 67, 62
1, 808098, Note_on_c, 0, 73, 74
1, 808105, Note_on_c, 0, 77, 0
1, 808112, Control_c, 0, 64, 0
1, 808112, Control_c, 0, 64, 0
1, 808112, Control_c, 0, 64, 0
1, 808115, Control_c, 0, 64, 0
1, 808115, Control_c, 0, 64, 0
1, 808115, Control_c, 0, 64, 0
1, 808309, Control_c, 0, 64, 127
1, 808309, Control_c, 0, 64, 127
1, 808309, Control_c, 0, 64, 127
1, 808312, Control_c, 0, 64, 127
1, 808312, Control_c, 0, 64, 127
1, 808312, Control_c, 0, 64, 127
1, 808413, Note_on_c, 0, 80, 91
1, 808423, Note_on_c, 0, 79, 0
1, 808663, Note_on_c, 0, 63, 0
1, 808663, Note_on_c, 0, 58, 0
1, 808663, Note_on_c, 0, 82, 92
1, 808666, Note_on_c, 0, 73, 0
1, 808666, Note_on_c, 0, 67, 0
1, 808666, Note_on_c, 0, 58, 50
1, 808669, Note_on_c, 0, 63, 50
1, 808669, Note_on_c, 0, 67, 59
1, 808673, Note_on_c, 0, 80, 0
1, 808913, Note_on_c, 0, 84, 95
1, 808922, Note_on_c, 0, 82, 0
1, 809127, Control_c, 0, 64, 0
1, 809127, Control_c, 0, 64, 0
1, 809127, Control_c, 0, 64, 0
1, 809130, Control_c, 0, 64, 0
1, 809130, Control_c, 0, 64, 0
1, 809130, Control_c, 0, 64, 0
1, 809162, Note_on_c, 0, 63, 0
1, 809162, Note_on_c, 0, 58, 0
1, 809162, Note_on_c, 0, 85, 96
1, 809165, Note_on_c, 0, 67, 0
1, 809165, Note_on_c, 0, 58, 50
1, 809165, Note_on_c, 0, 63, 50
1, 809168, Note_on_c, 0, 67, 59
1, 809172, Note_on_c, 0, 84, 0
1, 809233, Control_c, 0, 64, 127
1, 809233, Control_c, 0, 64, 127
1, 809233, Control_c, 0, 64, 127
1, 809236, Control_c, 0, 64, 127
1, 809236, Control_c, 0, 64, 127
1, 809236, Control_c, 0, 64, 127
1, 809412, Note_on_c, 0, 87, 97
1, 809424, Note_on_c, 0, 85, 0
1, 809733, Note_on_c, 0, 63, 0
1, 809733, Note_on_c, 0, 58, 0
1, 809733, Note_on_c, 0, 88, 99
1, 809736, Note_on_c, 0, 67, 0
1, 809736, Note_on_c, 0, 58, 63
1, 809736, Note_on_c, 0, 63, 63
1, 809739, Note_on_c, 0, 67, 63
1, 809739, Note_on_c, 0, 73, 82
1, 809744, Note_on_c, 0, 87, 0
1, 809750, Control_c, 0, 64, 0
1, 809750, Control_c, 0, 64, 0
1, 809750, Control_c, 0, 64, 0
1, 809753, Control_c, 0, 64, 0
1, 809753, Control_c, 0, 64, 0
1, 809753, Control_c, 0, 64, 0
1, 809903, Control_c, 0, 64, 127
1, 809903, Control_c, 0, 64, 127
1, 809903, Control_c, 0, 64, 127
1, 809906, Control_c, 0, 64, 127
1, 809906, Control_c, 0, 64, 127
1, 809906, Control_c, 0, 64, 127
1, 810294, Note_on_c, 0, 67, 0
1, 810294, Note_on_c, 0, 63, 0
1, 810294, Note_on_c, 0, 58, 0
1, 810297, Note_on_c, 0, 73, 0
1, 810297, Note_on_c, 0, 58, 49
1, 810297, Note_on_c, 0, 63, 49
1, 810300, Note_on_c, 0, 67, 58
1, 810544, Note_on_c, 0, 89, 97
1, 810554, Note_on_c, 0, 88, 0
1, 810793, Note_on_c, 0, 58, 0
1, 810793, Note_on_c, 0, 63, 0
1, 810793, Note_on_c, 0, 91, 98
1, 810796, Note_on_c, 0, 67, 0
1, 810796, Note_on_c, 0, 58, 50
1, 810796, Note_on_c, 0, 63, 50
1, 810799, Note_on_c, 0, 67, 59
1, 810807, Note_on_c, 0, 89, 0
1, 810814, Control_c, 0, 64, 0
1, 810814, Control_c, 0, 64, 0
1, 810814, Control_c, 0, 64, 0
1, 810817, Control_c, 0, 64, 0
1, 810817, Control_c, 0, 64, 0
1, 810817, Control_c, 0, 64, 0
1, 811024, Control_c, 0, 64, 127
1, 811024, Control_c, 0, 64, 127
1, 811024, Control_c, 0, 64, 127
1, 811027, Control_c, 0, 64, 127
1, 811027, Control_c, 0, 64, 127
1, 811027, Control_c, 0, 64, 127
1, 811139, Note_on_c, 0, 89, 90
1, 811152, Note_on_c, 0, 91, 0
1, 811380, Note_on_c, 0, 89, 90
1, 811460, Note_on_c, 0, 89, 0
1, 811460, Note_on_c, 0, 89, 0
1, 811460, Note_on_c, 0, 82, 84
1, 811463, Note_on_c, 0, 63, 0
1, 811463, Note_on_c, 0, 67, 0
1, 811463, Note_on_c, 0, 58, 0
1, 811466, Note_on_c, 0, 58, 56
1, 811466, Note_on_c, 0, 63, 56
1, 811466, Note_on_c, 0, 67, 56
1, 811469, Note_on_c, 0, 73, 69
1, 812102, Note_on_c, 0, 67, 0
1, 812102, Note_on_c, 0, 63, 0
1, 812102, Note_on_c, 0, 58, 0
1, 812105, Note_on_c, 0, 73, 0
1, 812105, Note_on_c, 0, 58, 48
1, 812105, Note_on_c, 0, 63, 48
1, 812108, Note_on_c, 0, 67, 57
1, 812601, Note_on_c, 0, 67, 0
1, 812601, Note_on_c, 0, 63, 0
1, 812601, Note_on_c, 0, 58, 0
1, 812604, Note_on_c, 0, 58, 48
1, 812604, Note_on_c, 0, 63, 48
1, 812604, Note_on_c, 0, 67, 57
1, 813038, Note_on_c, 0, 46, 72
1, 813070, Control_c, 0, 64, 0
1, 813070, Control_c, 0, 64, 0
1, 813070, Control_c, 0, 64, 0
1, 813073, Control_c, 0, 64, 0
1, 813073, Control_c, 0, 64, 0
1, 813073, Control_c, 0, 64, 0
1, 813100, Control_c, 0, 64, 0
1, 813100, Control_c, 0, 64, 0
1, 813100, Control_c, 0, 64, 0
1, 813103, Note_on_c, 0, 46, 0
1, 813103, Note_on_c, 0, 82, 0
1, 813103, Control_c, 0, 64, 0
1, 813106, Note_on_c, 0, 58, 0
1, 813106, Note_on_c, 0, 44, 76
1, 813106, Control_c, 0, 64, 0
1, 813109, Note_on_c, 0, 63, 0
1, 813109, Note_on_c, 0, 67, 0
1, 813109, Note_on_c, 0, 60, 61
1, 813112, Note_on_c, 0, 63, 61
1, 813112, Note_on_c, 0, 66, 61
1, 813112, Note_on_c, 0, 75, 73
1, 813245, Control_c, 0, 64, 127
1, 813245, Control_c, 0, 64, 127
1, 813364, Note_on_c, 0, 44, 0
1, 813497, Note_on_c, 0, 43, 76
1, 813629, Note_on_c, 0, 60, 0
1, 813629, Note_on_c, 0, 63, 0
1, 813629, Note_on_c, 0, 44, 77
1, 813632, Note_on_c, 0, 66, 0
1, 813632, Note_on_c, 0, 75, 0
1, 813632, Note_on_c, 0, 60, 50
1, 813635, Note_on_c, 0, 63, 50
1, 813635, Note_on_c, 0, 66, 59
1, 813639, Note_on_c, 0, 43, 0
1, 813736, Control_c, 0, 64, 0
1, 813736, Control_c, 0, 64, 0
1, 813751, Control_c, 0, 64, 0
1, 813751, Control_c, 0, 64, 0
1, 813903, Control_c, 0, 64, 127
1, 813903, Control_c, 0, 64, 127
1, 814128, Note_on_c, 0, 63, 0
1, 814128, Note_on_c, 0, 66, 0
1, 814128, Note_on_c, 0, 60, 0
1, 814131, Note_on_c, 0, 60, 50
1, 814131, Note_on_c, 0, 63, 50
1, 814131, Note_on_c, 0, 66, 59
1, 814206, Control_c, 0, 64, 0
1, 814206, Control_c, 0, 64, 0
1, 814237, Control_c, 0, 64, 0
1, 814237, Control_c, 0, 64, 0
1, 814358, Control_c, 0, 64, 127
1, 814358, Control_c, 0, 64, 127
1, 814378, Note_on_c, 0, 46, 83
1, 814387, Note_on_c, 0, 44, 0
1, 814627, Note_on_c, 0, 60, 0
1, 814627, Note_on_c, 0, 63, 0
1, 814627, Note_on_c, 0, 48, 84
1, 814630, Note_on_c, 0, 66, 0
1, 814630, Note_on_c, 0, 60, 62
1, 814630, Note_on_c, 0, 63, 62
1, 814633, Note_on_c, 0, 66, 62
1, 814633, Note_on_c, 0, 75, 74
1, 814640, Note_on_c, 0, 46, 0
1, 814652, Control_c, 0, 64, 0
1, 814652, Control_c, 0, 64, 0
1, 814769, Control_c, 0, 64, 0
1, 814769, Control_c, 0, 64, 0
1, 814885, Control_c, 0, 64, 127
1, 814885, Control_c, 0, 64, 127
1, 814948, Note_on_c, 0, 49, 84
1, 814958, Note_on_c, 0, 48, 0
1, 815198, Note_on_c, 0, 63, 0
1, 815198, Note_on_c, 0, 60, 0
1, 815198, Note_on_c, 0, 51, 84
1, 815201, Note_on_c, 0, 75, 0
1, 815201, Note_on_c, 0, 66, 0
1, 815201, Note_on_c, 0, 60, 50
1, 815204, Note_on_c, 0, 63, 50
1, 815204, Note_on_c, 0, 66, 59
1, 815207, Note_on_c, 0, 49, 0
1, 815279, Control_c, 0, 64, 0
1, 815279, Control_c, 0, 64, 0
1, 815324, Control_c, 0, 64, 0
1, 815324, Control_c, 0, 64, 0
1, 815430, Control_c, 0, 64, 127
1, 815430, Control_c, 0, 64, 127
1, 815447, Note_on_c, 0, 52, 86
1, 815457, Note_on_c, 0, 51, 0
1, 815697, Note_on_c, 0, 63, 0
1, 815697, Note_on_c, 0, 60, 0
1, 815697, Note_on_c, 0, 54, 84
1, 815700, Note_on_c, 0, 66, 0
1, 815700, Note_on_c, 0, 60, 50
1, 815700, Note_on_c, 0, 63, 50
1, 815703, Note_on_c, 0, 66, 59
1, 815707, Note_on_c, 0, 52, 0
1, 815800, Control_c, 0, 64, 0
1, 815800, Control_c, 0, 64, 0
1, 815832, Control_c, 0, 64, 0
1, 815832, Control_c, 0, 64, 0
1, 815961, Control_c, 0, 64, 127
1, 815961, Note_on_c, 0, 56, 84
1, 815961, Control_c, 0, 64, 127
1, 815974, Note_on_c, 0, 54, 0
1, 816282, Note_on_c, 0, 63, 0
1, 816282, Note_on_c, 0, 60, 0
1, 816282, Note_on_c, 0, 57, 89
1, 816285, Note_on_c, 0, 66, 0
1, 816285, Note_on_c, 0, 60, 56
1, 816285, Note_on_c, 0, 63, 56
1, 816288, Note_on_c, 0, 66, 56
1, 816288, Note_on_c, 0, 75, 75
1, 816293, Note_on_c, 0, 56, 0
1, 816325, Control_c, 0, 64, 0
1, 816325, Control_c, 0, 64, 0
1, 816376, Control_c, 0, 64, 0
1, 816376, Control_c, 0, 64, 0
1, 816512, Control_c, 0, 64, 127
1, 816512, Control_c, 0, 64, 127
1, 816844, Note_on_c, 0, 66, 0
1, 816844, Note_on_c, 0, 63, 0
1, 816844, Note_on_c, 0, 60, 0
1, 816847, Note_on_c, 0, 75, 0
1, 816847, Note_on_c, 0, 60, 49
1, 816847, Note_on_c, 0, 63, 49
1, 816850, Note_on_c, 0, 66, 58
1, 816868, Control_c, 0, 64, 0
1, 816868, Control_c, 0, 64, 0
1, 816913, Control_c, 0, 64, 0
1, 816913, Control_c, 0, 64, 0
1, 816989, Control_c, 0, 64, 127
1, 816989, Control_c, 0, 64, 127
1, 817343, Note_on_c, 0, 66, 0
1, 817343, Note_on_c, 0, 63, 0
1, 817343, Note_on_c, 0, 60, 0
1, 817346, Note_on_c, 0, 60, 50
1, 817346, Note_on_c, 0, 63, 50
1, 817346, Note_on_c, 0, 66, 59
1, 817368, Control_c, 0, 64, 0
1, 817368, Control_c, 0, 64, 0
1, 817474, Control_c, 0, 64, 0
1, 817474, Control_c, 0, 64, 0
1, 817565, Control_c, 0, 64, 127
1, 817565, Control_c, 0, 64, 127
1, 817838, Control_c, 0, 64, 0
1, 817838, Control_c, 0, 64, 0
1, 817842, Note_on_c, 0, 63, 0
1, 817842, Note_on_c, 0, 60, 0
1, 817842, Note_on_c, 0, 56, 62
1, 817845, Note_on_c, 0, 66, 0
1, 817845, Note_on_c, 0, 60, 56
1, 817845, Note_on_c, 0, 63, 56
1, 817848, Note_on_c, 0, 66, 56
1, 817848, Note_on_c, 0, 75, 67
1, 817852, Note_on_c, 0, 57, 0
1, 817918, Control_c, 0, 64, 0
1, 817918, Control_c, 0, 64, 0
1, 818304, Control_c, 0, 64, 127
1, 818304, Control_c, 0, 64, 127
1, 818371, Note_on_c, 0, 63, 0
1, 818371, Note_on_c, 0, 56, 0
1, 818371, Note_on_c, 0, 60, 0
1, 818374, Note_on_c, 0, 75, 0
1, 818374, Note_on_c, 0, 66, 0
1, 818374, Note_on_c, 0, 60, 48
1, 818377, Note_on_c, 0, 63, 48
1, 818377, Note_on_c, 0, 66, 57
1, 818870, Note_on_c, 0, 66, 0
1, 818870, Note_on_c, 0, 63, 0
1, 818870, Note_on_c, 0, 60, 0
1, 818873, Note_on_c, 0, 60, 48
1, 818873, Note_on_c, 0, 63, 48
1, 818873, Note_on_c, 0, 66, 57
1, 819309, Control_c, 0, 64, 0
1, 819309, Control_c, 0, 64, 0
1, 819369, Note_on_c, 0, 63, 0
1, 819369, Note_on_c, 0, 60, 0
1, 819369, Note_on_c, 0, 85, 95
1, 819372, Note_on_c, 0, 66, 0
1, 819372, Note_on_c, 0, 37, 69
1, 819483, Control_c, 0, 64, 127
1, 819483, Control_c, 0, 64, 127
1, 819556, Note_on_c, 0, 37, 0
1, 819556, Note_on_c, 0, 73, 77
1, 819556, Note_on_c, 0, 44, 65
1, 819706, Note_on_c, 0, 73, 0
1, 819706, Note_on_c, 0, 85, 0
1, 819706, Note_on_c, 0, 85, 84
1, 819709, Note_on_c, 0, 44, 0
1, 819709, Note_on_c, 0, 49, 68
1, 819846, Note_on_c, 0, 49, 0
1, 819846, Note_on_c, 0, 85, 0
1, 819846, Note_on_c, 0, 73, 75
1, 819849, Note_on_c, 0, 51, 71
1, 819979, Note_on_c, 0, 51, 0
1, 819979, Note_on_c, 0, 73, 0
1, 819979, Note_on_c, 0, 85, 83
1, 819982, Note_on_c, 0, 52, 71
1, 820091, Note_on_c, 0, 52, 0
1, 820091, Note_on_c, 0, 85, 0
1, 820091, Note_on_c, 0, 73, 74
1, 820094, Note_on_c, 0, 51, 67
1, 820203, Note_on_c, 0, 51, 0
1, 820203, Note_on_c, 0, 73, 0
1, 820203, Note_on_c, 0, 85, 79
1, 820206, Note_on_c, 0, 52, 66
1, 820315, Note_on_c, 0, 52, 0
1, 820315, Note_on_c, 0, 85, 0
1, 820315, Note_on_c, 0, 73, 72
1, 820318, Note_on_c, 0, 51, 66
1, 820428, Note_on_c, 0, 51, 0
1, 820428, Note_on_c, 0, 73, 0
1, 820428, Note_on_c, 0, 85, 80
1, 820431, Note_on_c, 0, 52, 65
1, 820540, Note_on_c, 0, 52, 0
1, 820540, Note_on_c, 0, 85, 0
1, 820540, Note_on_c, 0, 73, 69
1, 820543, Note_on_c, 0, 51, 63
1, 820652, Note_on_c, 0, 51, 0
1, 820652, Note_on_c, 0, 73, 0
1, 820652, Note_on_c, 0, 85, 77
1, 820655, Note_on_c, 0, 49, 59
1, 820765, Note_on_c, 0, 49, 0
1, 820765, Note_on_c, 0, 85, 0
1, 820765, Note_on_c, 0, 73, 70
1, 820768, Note_on_c, 0, 44, 56
1, 820839, Control_c, 0, 64, 0
1, 820839, Control_c, 0, 64, 0
1, 820877, Note_on_c, 0, 44, 0
1, 820877, Note_on_c, 0, 73, 0
1, 820877, Note_on_c, 0, 80, 94
1, 820880, Note_on_c, 0, 37, 69
1, 820966, Control_c, 0, 64, 127
1, 820966, Control_c, 0, 64, 127
1, 821017, Note_on_c, 0, 37, 0
1, 821017, Note_on_c, 0, 68, 74
1, 821017, Note_on_c, 0, 44, 65
1, 821158, Note_on_c, 0, 68, 0
1, 821158, Note_on_c, 0, 80, 0
1, 821158, Note_on_c, 0, 80, 81
1, 821161, Note_on_c, 0, 44, 0
1, 821161, Note_on_c, 0, 49, 69
1, 821270, Note_on_c, 0, 49, 0
1, 821270, Note_on_c, 0, 80, 0
1, 821270, Note_on_c, 0, 68, 74
1, 821273, Note_on_c, 0, 51, 71
1, 821383, Note_on_c, 0, 51, 0
1, 821383, Note_on_c, 0, 68, 0
1, 821383, Note_on_c, 0, 80, 77
1, 821386, Note_on_c, 0, 52, 71
1, 821495, Note_on_c, 0, 52, 0
1, 821495, Note_on_c, 0, 80, 0
1, 821495, Note_on_c, 0, 68, 72
1, 821498, Note_on_c, 0, 51, 67
1, 821607, Note_on_c, 0, 51, 0
1, 821607, Note_on_c, 0, 68, 0
1, 821607, Note_on_c, 0, 80, 75
1, 821610, Note_on_c, 0, 52, 66
1, 821719, Note_on_c, 0, 52, 0
1, 821719, Note_on_c, 0, 80, 0
1, 821719, Note_on_c, 0, 68, 70
1, 821722, Note_on_c, 0, 51, 66
1, 821832, Note_on_c, 0, 51, 0
1, 821832, Note_on_c, 0, 68, 0
1, 821832, Note_on_c, 0, 80, 75
1, 821835, Note_on_c, 0, 52, 65
1, 821944, Note_on_c, 0, 52, 0
1, 821944, Note_on_c, 0, 80, 0
1, 821944, Note_on_c, 0, 68, 67
1, 821947, Note_on_c, 0, 51, 63
1, 822056, Note_on_c, 0, 51, 0
1, 822056, Note_on_c, 0, 68, 0
1, 822056, Note_on_c, 0, 80, 69
1, 822059, Note_on_c, 0, 49, 59
1, 822169, Note_on_c, 0, 49, 0
1, 822169, Note_on_c, 0, 80, 0
1, 822169, Note_on_c, 0, 68, 64
1, 822172, Note_on_c, 0, 44, 56
1, 822247, Control_c, 0, 64, 0
1, 822247, Control_c, 0, 64, 0
1, 822281, Note_on_c, 0, 44, 0
1, 822281, Note_on_c, 0, 68, 0
1, 822281, Note_on_c, 0, 76, 92
1, 822284, Note_on_c, 0, 37, 69
1, 822399, Control_c, 0, 64, 127
1, 822399, Control_c, 0, 64, 127
1, 822431, Note_on_c, 0, 37, 0
1, 822431, Note_on_c, 0, 64, 77
1, 822431, Note_on_c, 0, 44, 65
1, 822543, Note_on_c, 0, 64, 0
1, 822543, Note_on_c, 0, 76, 0
1, 822543, Note_on_c, 0, 76, 76
1, 822546, Note_on_c, 0, 44, 0
1, 822546, Note_on_c, 0, 49, 69
1, 822655, Note_on_c, 0, 49, 0
1, 822655, Note_on_c, 0, 76, 0
1, 822655, Note_on_c, 0, 64, 71
1, 822658, Note_on_c, 0, 51, 71
1, 822768, Note_on_c, 0, 51, 0
1, 822768, Note_on_c, 0, 64, 0
1, 822768, Note_on_c, 0, 76, 76
1, 822771, Note_on_c, 0, 52, 71
1, 822880, Note_on_c, 0, 52, 0
1, 822880, Note_on_c, 0, 76, 0
1, 822880, Note_on_c, 0, 64, 71
1, 822883, Note_on_c, 0, 51, 71
1, 822992, Note_on_c, 0, 51, 0
1, 822992, Note_on_c, 0, 64, 0
1, 822992, Note_on_c, 0, 76, 75
1, 822995, Note_on_c, 0, 52, 67
1, 823105, Note_on_c, 0, 52, 0
1, 823105, Note_on_c, 0, 76, 0
1, 823105, Note_on_c, 0, 64, 67
1, 823108, Note_on_c, 0, 51, 66
1, 823217, Note_on_c, 0, 51, 0
1, 823217, Note_on_c, 0, 64, 0
1, 823217, Note_on_c, 0, 76, 76
1, 823220, Note_on_c, 0, 52, 66
1, 823329, Note_on_c, 0, 52, 0
1, 823329, Note_on_c, 0, 76, 0
1, 823329, Note_on_c, 0, 64, 68
1, 823332, Note_on_c, 0, 51, 63
1, 823442, Note_on_c, 0, 51, 0
1, 823442, Note_on_c, 0, 64, 0
1, 823442, Note_on_c, 0, 76, 74
1, 823445, Note_on_c, 0, 49, 59
1, 823554, Note_on_c, 0, 49, 0
1, 823554, Note_on_c, 0, 76, 0
1, 823554, Note_on_c, 0, 64, 64
1, 823557, Note_on_c, 0, 44, 56
1, 823636, Control_c, 0, 64, 0
1, 823636, Control_c, 0, 64, 0
1, 823666, Note_on_c, 0, 44, 0
1, 823666, Note_on_c, 0, 64, 0
1, 823666, Note_on_c, 0, 73, 88
1, 823669, Note_on_c, 0, 37, 69
1, 823740, Control_c, 0, 64, 127
1, 823740, Control_c, 0, 64, 127
1, 823827, Note_on_c, 0, 37, 0
1, 823827, Note_on_c, 0, 61, 75
1, 823827, Note_on_c, 0, 44, 65
1, 823939, Note_on_c, 0, 61, 0
1, 823939, Note_on_c, 0, 73, 0
1, 823939, Note_on_c, 0, 73, 78
1, 823942, Note_on_c, 0, 44, 0
1, 823942, Note_on_c, 0, 49, 69
1, 824051, Note_on_c, 0, 49, 0
1, 824051, Note_on_c, 0, 73, 0
1, 824051, Note_on_c, 0, 61, 74
1, 824054, Note_on_c, 0, 51, 71
1, 824164, Note_on_c, 0, 51, 0
1, 824164, Note_on_c, 0, 61, 0
1, 824164, Note_on_c, 0, 73, 74
1, 824167, Note_on_c, 0, 52, 71
1, 824276, Note_on_c, 0, 52, 0
1, 824276, Note_on_c, 0, 73, 0
1, 824276, Note_on_c, 0, 61, 69
1, 824279, Note_on_c, 0, 51, 71
1, 824388, Note_on_c, 0, 51, 0
1, 824388, Note_on_c, 0, 61, 0
1, 824388, Note_on_c, 0, 73, 75
1, 824391, Note_on_c, 0, 52, 67
1, 824462, Control_c, 0, 64, 0
1, 824462, Control_c, 0, 64, 0
1, 824501, Note_on_c, 0, 52, 0
1, 824501, Note_on_c, 0, 73, 0
1, 824501, Note_on_c, 0, 61, 66
1, 824504, Note_on_c, 0, 51, 66
1, 824613, Note_on_c, 0, 61, 0
1, 824613, Note_on_c, 0, 73, 76
1, 824613, Note_on_c, 0, 52, 66
1, 824622, Note_on_c, 0, 51, 0
1, 824725, Note_on_c, 0, 73, 0
1, 824725, Note_on_c, 0, 61, 66
1, 824725, Note_on_c, 0, 50, 63
1, 824734, Note_on_c, 0, 52, 0
1, 824838, Note_on_c, 0, 61, 0
1, 824838, Note_on_c, 0, 73, 73
1, 824838, Note_on_c, 0, 49, 59
1, 824846, Note_on_c, 0, 50, 0
1, 824950, Note_on_c, 0, 73, 0
1, 824950, Note_on_c, 0, 61, 65
1, 824950, Note_on_c, 0, 47, 56
1, 824959, Note_on_c, 0, 49, 0
1, 825062, Note_on_c, 0, 61, 0
1, 825062, Note_on_c, 0, 69, 60
1, 825062, Note_on_c, 0, 73, 66
1, 825065, Note_on_c, 0, 45, 77
1, 825073, Note_on_c, 0, 47, 0
1, 825203, Note_on_c, 0, 61, 63
1, 825267, Control_c, 0, 64, 127
1, 825267, Control_c, 0, 64, 127
1, 825312, Note_on_c, 0, 69, 0
1, 825312, Note_on_c, 0, 73, 0
1, 825343, Note_on_c, 0, 69, 61
1, 825343, Note_on_c, 0, 73, 59
1, 825431, Note_on_c, 0, 61, 0
1, 825455, Note_on_c, 0, 61, 59
1, 825543, Note_on_c, 0, 73, 0
1, 825543, Note_on_c, 0, 69, 0
1, 825568, Note_on_c, 0, 69, 61
1, 825568, Note_on_c, 0, 73, 61
1, 825581, Note_on_c, 0, 45, 0
1, 825596, Control_c, 0, 64, 127
1, 825596, Control_c, 0, 64, 127
1, 825651, Control_c, 0, 64, 0
1, 825651, Control_c, 0, 64, 0
1, 825656, Note_on_c, 0, 61, 0
1, 825680, Note_on_c, 0, 61, 58
1, 825680, Note_on_c, 0, 49, 68
1, 825768, Note_on_c, 0, 69, 0
1, 825768, Note_on_c, 0, 73, 0
1, 825792, Note_on_c, 0, 69, 61
1, 825792, Note_on_c, 0, 73, 60
1, 825792, Note_on_c, 0, 50, 70
1, 825832, Note_on_c, 0, 49, 0
1, 825880, Note_on_c, 0, 61, 0
1, 825905, Note_on_c, 0, 61, 60
1, 825905, Note_on_c, 0, 52, 73
1, 825944, Note_on_c, 0, 50, 0
1, 825993, Note_on_c, 0, 73, 0
1, 825993, Note_on_c, 0, 69, 0
1, 826017, Note_on_c, 0, 69, 64
1, 826017, Note_on_c, 0, 74, 67
1, 826017, Note_on_c, 0, 53, 76
1, 826057, Note_on_c, 0, 52, 0
1, 826105, Note_on_c, 0, 61, 0
1, 826129, Note_on_c, 0, 62, 61
1, 826129, Note_on_c, 0, 55, 78
1, 826173, Note_on_c, 0, 53, 0
1, 826227, Note_on_c, 0, 74, 0
1, 826227, Note_on_c, 0, 69, 0
1, 826254, Note_on_c, 0, 69, 64
1, 826254, Note_on_c, 0, 74, 66
1, 826254, Note_on_c, 0, 57, 80
1, 826298, Note_on_c, 0, 55, 0
1, 826352, Note_on_c, 0, 62, 0
1, 826379, Note_on_c, 0, 62, 60
1, 826379, Note_on_c, 0, 58, 82
1, 826423, Note_on_c, 0, 57, 0
1, 826476, Note_on_c, 0, 74, 0
1, 826476, Note_on_c, 0, 69, 0
1, 826504, Note_on_c, 0, 69, 59
1, 826504, Note_on_c, 0, 73, 60
1, 826504, Note_on_c, 0, 57, 78
1, 826556, Note_on_c, 0, 58, 0
1, 826621, Note_on_c, 0, 62, 0
1, 826654, Note_on_c, 0, 61, 63
1, 826727, Control_c, 0, 64, 127
1, 826727, Control_c, 0, 64, 127
1, 826771, Note_on_c, 0, 73, 0
1, 826771, Note_on_c, 0, 69, 0
1, 826803, Note_on_c, 0, 69, 63
1, 826803, Note_on_c, 0, 73, 64
1, 826803, Note_on_c, 0, 45, 69
1, 826843, Note_on_c, 0, 57, 0
1, 826891, Note_on_c, 0, 61, 0
1, 826916, Note_on_c, 0, 61, 59
1, 827003, Note_on_c, 0, 73, 0
1, 827003, Note_on_c, 0, 69, 0
1, 827028, Note_on_c, 0, 69, 62
1, 827028, Note_on_c, 0, 73, 65
1, 827041, Note_on_c, 0, 45, 0
1, 827116, Note_on_c, 0, 61, 0
1, 827140, Note_on_c, 0, 61, 65
1, 827140, Control_c, 0, 64, 0
1, 827140, Note_on_c, 0, 45, 70
1, 827140, Control_c, 0, 64, 0
1, 827244, Note_on_c, 0, 69, 0
1, 827244, Note_on_c, 0, 73, 0
1, 827272, Note_on_c, 0, 69, 64
1, 827272, Note_on_c, 0, 73, 59
1, 827272, Note_on_c, 0, 47, 71
1, 827301, Control_c, 0, 64, 0
1, 827301, Control_c, 0, 64, 0
1, 827316, Note_on_c, 0, 45, 0
1, 827370, Note_on_c, 0, 61, 0
1, 827397, Note_on_c, 0, 61, 56
1, 827397, Note_on_c, 0, 49, 73
1, 827437, Note_on_c, 0, 47, 0
1, 827485, Note_on_c, 0, 73, 0
1, 827485, Note_on_c, 0, 69, 0
1, 827510, Note_on_c, 0, 69, 64
1, 827510, Note_on_c, 0, 72, 63
1, 827510, Note_on_c, 0, 50, 74
1, 827549, Note_on_c, 0, 49, 0
1, 827597, Note_on_c, 0, 61, 0
1, 827622, Note_on_c, 0, 60, 62
1, 827622, Note_on_c, 0, 51, 75
1, 827661, Note_on_c, 0, 50, 0
1, 827710, Note_on_c, 0, 72, 0
1, 827710, Note_on_c, 0, 69, 0
1, 827734, Note_on_c, 0, 69, 67
1, 827734, Note_on_c, 0, 72, 63
1, 827734, Note_on_c, 0, 52, 76
1, 827774, Note_on_c, 0, 51, 0
1, 827822, Note_on_c, 0, 60, 0
1, 827846, Note_on_c, 0, 60, 67
1, 827846, Note_on_c, 0, 53, 77
1, 827886, Note_on_c, 0, 52, 0
1, 827934, Note_on_c, 0, 72, 0
1, 827934, Note_on_c, 0, 69, 0
1, 827959, Note_on_c, 0, 69, 65
1, 827959, Note_on_c, 0, 73, 64
1, 827959, Note_on_c, 0, 52, 71
1, 828008, Note_on_c, 0, 53, 0
1, 828069, Note_on_c, 0, 60, 0
1, 828099, Note_on_c, 0, 61, 61
1, 828209, Note_on_c, 0, 73, 0
1, 828209, Note_on_c, 0, 69, 0
1, 828223, Control_c, 0, 64, 127
1, 828223, Control_c, 0, 64, 127
1, 828240, Note_on_c, 0, 69, 63
1, 828240, Note_on_c, 0, 73, 61
1, 828240, Note_on_c, 0, 45, 62
1, 828279, Note_on_c, 0, 52, 0
1, 828327, Note_on_c, 0, 61, 0
1, 828352, Note_on_c, 0, 61, 58
1, 828363, Control_c, 0, 64, 127
1, 828363, Control_c, 0, 64, 127
1, 828440, Note_on_c, 0, 73, 0
1, 828440, Note_on_c, 0, 69, 0
1, 828464, Note_on_c, 0, 69, 59
1, 828464, Note_on_c, 0, 73, 60
1, 828477, Note_on_c, 0, 45, 0
1, 828552, Note_on_c, 0, 61, 0
1, 828568, Control_c, 0, 64, 0
1, 828568, Control_c, 0, 64, 0
1, 828577, Note_on_c, 0, 61, 61
1, 828577, Note_on_c, 0, 49, 68
1, 828664, Note_on_c, 0, 69, 0
1, 828664, Note_on_c, 0, 73, 0
1, 828689, Note_on_c, 0, 69, 63
1, 828689, Note_on_c, 0, 73, 58
1, 828689, Note_on_c, 0, 50, 70
1, 828728, Note_on_c, 0, 49, 0
1, 828777, Note_on_c, 0, 61, 0
1, 828801, Note_on_c, 0, 61, 56
1, 828801, Note_on_c, 0, 52, 73
1, 828841, Note_on_c, 0, 50, 0
1, 828889, Note_on_c, 0, 73, 0
1, 828889, Note_on_c, 0, 69, 0
1, 828914, Note_on_c, 0, 69, 65
1, 828914, Note_on_c, 0, 74, 64
1, 828914, Note_on_c, 0, 53, 76
1, 828953, Note_on_c, 0, 52, 0
1, 829001, Note_on_c, 0, 61, 0
1, 829026, Note_on_c, 0, 62, 62
1, 829026, Note_on_c, 0, 55, 78
1, 829065, Note_on_c, 0, 53, 0
1, 829114, Note_on_c, 0, 74, 0
1, 829114, Note_on_c, 0, 69, 0
1, 829138, Note_on_c, 0, 69, 66
1, 829138, Note_on_c, 0, 74, 59
1, 829138, Note_on_c, 0, 57, 80
1, 829188, Note_on_c, 0, 55, 0
1, 829248, Note_on_c, 0, 62, 0
1, 829279, Note_on_c, 0, 62, 64
1, 829279, Note_on_c, 0, 58, 82
1, 829328, Note_on_c, 0, 57, 0
1, 829388, Note_on_c, 0, 74, 0
1, 829388, Note_on_c, 0, 69, 0
1, 829419, Note_on_c, 0, 69, 67
1, 829419, Note_on_c, 0, 73, 59
1, 829419, Note_on_c, 0, 57, 78
1, 829453, Control_c, 0, 64, 0
1, 829453, Control_c, 0, 64, 0
1, 829475, Note_on_c, 0, 58, 0
1, 829544, Note_on_c, 0, 62, 0
1, 829579, Note_on_c, 0, 61, 63
1, 829705, Note_on_c, 0, 73, 0
1, 829705, Note_on_c, 0, 69, 0
1, 829740, Note_on_c, 0, 69, 62
1, 829740, Note_on_c, 0, 73, 63
1, 829740, Note_on_c, 0, 45, 69
1, 829753, Note_on_c, 0, 57, 0
1, 829757, Control_c, 0, 64, 127
1, 829757, Control_c, 0, 64, 127
1, 829828, Note_on_c, 0, 61, 0
1, 829852, Note_on_c, 0, 61, 61
1, 829940, Note_on_c, 0, 73, 0
1, 829940, Note_on_c, 0, 69, 0
1, 829965, Note_on_c, 0, 69, 66
1, 829965, Note_on_c, 0, 73, 60
1, 829978, Note_on_c, 0, 45, 0
1, 830030, Control_c, 0, 64, 0
1, 830030, Control_c, 0, 64, 0
1, 830052, Note_on_c, 0, 61, 0
1, 830077, Note_on_c, 0, 61, 62
1, 830077, Note_on_c, 0, 47, 81
1, 830174, Note_on_c, 0, 69, 0
1, 830174, Note_on_c, 0, 73, 0
1, 830202, Note_on_c, 0, 69, 60
1, 830202, Note_on_c, 0, 73, 59
1, 830202, Note_on_c, 0, 49, 80
1, 830246, Note_on_c, 0, 47, 0
1, 830299, Note_on_c, 0, 61, 0
1, 830326, Note_on_c, 0, 61, 62
1, 830326, Note_on_c, 0, 50, 78
1, 830370, Note_on_c, 0, 49, 0
1, 830424, Note_on_c, 0, 73, 0
1, 830424, Note_on_c, 0, 69, 0
1, 830451, Note_on_c, 0, 69, 62
1, 830451, Note_on_c, 0, 73, 57
1, 830451, Note_on_c, 0, 52, 77
1, 830498, Note_on_c, 0, 50, 0
1, 830554, Note_on_c, 0, 61, 0
1, 830583, Note_on_c, 0, 61, 59
1, 830583, Note_on_c, 0, 54, 76
1, 830629, Control_c, 0, 64, 0
1, 830629, Control_c, 0, 64, 0
1, 830633, Note_on_c, 0, 52, 0
1, 830693, Note_on_c, 0, 73, 0
1, 830693, Note_on_c, 0, 69, 0
1, 830724, Note_on_c, 0, 69, 62
1, 830724, Note_on_c, 0, 73, 60
1, 830724, Note_on_c, 0, 56, 74
1, 830776, Note_on_c, 0, 54, 0
1, 830841, Note_on_c, 0, 61, 0
1, 830874, Note_on_c, 0, 61, 56
1, 830874, Note_on_c, 0, 57, 73
1, 830930, Note_on_c, 0, 56, 0
1, 830999, Note_on_c, 0, 73, 0
1, 830999, Note_on_c, 0, 69, 0
1, 831034, Note_on_c, 0, 71, 87
1, 831034, Note_on_c, 0, 35, 79
1, 831122, Note_on_c, 0, 57, 0
1, 831216, Control_c, 0, 64, 127
1, 831216, Control_c, 0, 64, 127
1, 831229, Note_on_c, 0, 61, 0
1, 831284, Note_on_c, 0, 59, 60
1, 831284, Note_on_c, 0, 47, 63
1, 831396, Note_on_c, 0, 47, 0
1, 831396, Note_on_c, 0, 59, 0
1, 831396, Note_on_c, 0, 54, 60
1, 831399, Note_on_c, 0, 51, 63
1, 831508, Note_on_c, 0, 54, 0
1, 831508, Note_on_c, 0, 71, 0
1, 831508, Note_on_c, 0, 59, 58
1, 831511, Note_on_c, 0, 35, 0
1, 831511, Note_on_c, 0, 51, 0
1, 831511, Note_on_c, 0, 47, 61
1, 831621, Note_on_c, 0, 47, 0
1, 831621, Note_on_c, 0, 59, 0
1, 831621, Note_on_c, 0, 54, 60
1, 831624, Note_on_c, 0, 51, 61
1, 831733, Note_on_c, 0, 51, 0
1, 831733, Note_on_c, 0, 54, 0
1, 831733, Note_on_c, 0, 59, 58
1, 831736, Note_on_c, 0, 47, 60
1, 831845, Note_on_c, 0, 47, 0
1, 831845, Note_on_c, 0, 59, 0
1, 831845, Note_on_c, 0, 54, 63
1, 831848, Note_on_c, 0, 51, 64
1, 831958, Note_on_c, 0, 51, 0
1, 831958, Note_on_c, 0, 54, 0
1, 831958, Note_on_c, 0, 59, 63
1, 831961, Note_on_c, 0, 47, 63
1, 832070, Note_on_c, 0, 47, 0
1, 832070, Note_on_c, 0, 59, 0
1, 832070, Note_on_c, 0, 54, 60
1, 832073, Note_on_c, 0, 51, 62
1, 832182, Note_on_c, 0, 51, 0
1, 832182, Note_on_c, 0, 54, 0
1, 832182, Note_on_c, 0, 59, 57
1, 832185, Note_on_c, 0, 47, 59
1, 832294, Note_on_c, 0, 47, 0
1, 832294, Note_on_c, 0, 59, 0
1, 832294, Note_on_c, 0, 54, 60
1, 832297, Note_on_c, 0, 51, 61
1, 832407, Note_on_c, 0, 51, 0
1, 832407, Note_on_c, 0, 54, 0
1, 832407, Note_on_c, 0, 59, 55
1, 832410, Note_on_c, 0, 47, 57
1, 832519, Note_on_c, 0, 47, 0
1, 832519, Note_on_c, 0, 59, 0
1, 832519, Note_on_c, 0, 66, 83
1, 832522, Note_on_c, 0, 39, 79
1, 832560, Control_c, 0, 64, 0
1, 832560, Control_c, 0, 64, 0
1, 832669, Note_on_c, 0, 59, 58
1, 832669, Control_c, 0, 64, 127
1, 832669, Note_on_c, 0, 47, 59
1, 832672, Control_c, 0, 64, 127
1, 832781, Note_on_c, 0, 47, 0
1, 832781, Note_on_c, 0, 59, 0
1, 832781, Note_on_c, 0, 54, 58
1, 832784, Note_on_c, 0, 51, 59
1, 832894, Note_on_c, 0, 54, 0
1, 832894, Note_on_c, 0, 66, 0
1, 832894, Note_on_c, 0, 59, 55
1, 832897, Note_on_c, 0, 39, 0
1, 832897, Note_on_c, 0, 51, 0
1, 832897, Note_on_c, 0, 47, 57
1, 833006, Note_on_c, 0, 47, 0
1, 833006, Note_on_c, 0, 59, 0
1, 833006, Note_on_c, 0, 54, 58
1, 833009, Note_on_c, 0, 51, 59
1, 833118, Note_on_c, 0, 51, 0
1, 833118, Note_on_c, 0, 54, 0
1, 833118, Note_on_c, 0, 59, 62
1, 833121, Note_on_c, 0, 47, 62
1, 833230, Note_on_c, 0, 47, 0
1, 833230, Note_on_c, 0, 59, 0
1, 833230, Note_on_c, 0, 54, 62
1, 833233, Note_on_c, 0, 51, 62
1, 833343, Note_on_c, 0, 51, 0
1, 833343, Note_on_c, 0, 54, 0
1, 833343, Note_on_c, 0, 59, 53
1, 833346, Note_on_c, 0, 47, 55
1, 833455, Note_on_c, 0, 47, 0
1, 833455, Note_on_c, 0, 59, 0
1, 833455, Note_on_c, 0, 54, 58
1, 833458, Note_on_c, 0, 51, 58
1, 833567, Note_on_c, 0, 51, 0
1, 833567, Note_on_c, 0, 54, 0
1, 833567, Note_on_c, 0, 59, 56
1, 833570, Note_on_c, 0, 47, 56
1, 833680, Note_on_c, 0, 47, 0
1, 833680, Note_on_c, 0, 59, 0
1, 833680, Note_on_c, 0, 54, 61
1, 833683, Note_on_c, 0, 51, 61
1, 833792, Note_on_c, 0, 51, 0
1, 833792, Note_on_c, 0, 54, 0
1, 833792, Note_on_c, 0, 59, 61
1, 833795, Note_on_c, 0, 47, 60
1, 833897, Control_c, 0, 64, 0
1, 833897, Control_c, 0, 64, 0
1, 833904, Note_on_c, 0, 47, 0
1, 833904, Note_on_c, 0, 59, 0
1, 833904, Note_on_c, 0, 63, 79
1, 833907, Note_on_c, 0, 42, 75
1, 834031, Control_c, 0, 64, 127
1, 834031, Control_c, 0, 64, 127
1, 834065, Note_on_c, 0, 57, 55
1, 834065, Note_on_c, 0, 47, 55
1, 834177, Note_on_c, 0, 47, 0
1, 834177, Note_on_c, 0, 57, 0
1, 834177, Note_on_c, 0, 54, 57
1, 834180, Note_on_c, 0, 51, 57
1, 834290, Note_on_c, 0, 54, 0
1, 834290, Note_on_c, 0, 63, 0
1, 834290, Note_on_c, 0, 57, 52
1, 834293, Note_on_c, 0, 42, 0
1, 834293, Note_on_c, 0, 51, 0
1, 834293, Note_on_c, 0, 47, 54
1, 834402, Note_on_c, 0, 47, 0
1, 834402, Note_on_c, 0, 57, 0
1, 834402, Note_on_c, 0, 54, 53
1, 834405, Note_on_c, 0, 51, 53
1, 834514, Note_on_c, 0, 51, 0
1, 834514, Note_on_c, 0, 54, 0
1, 834514, Note_on_c, 0, 57, 56
1, 834517, Note_on_c, 0, 47, 56
1, 834626, Note_on_c, 0, 47, 0
1, 834626, Note_on_c, 0, 57, 0
1, 834626, Note_on_c, 0, 54, 59
1, 834629, Note_on_c, 0, 51, 58
1, 834739, Note_on_c, 0, 51, 0
1, 834739, Note_on_c, 0, 54, 0
1, 834739, Note_on_c, 0, 57, 52
1, 834742, Note_on_c, 0, 47, 52
1, 834851, Note_on_c, 0, 47, 0
1, 834851, Note_on_c, 0, 57, 0
1, 834851, Note_on_c, 0, 54, 57
1, 834854, Note_on_c, 0, 51, 57
1, 834963, Note_on_c, 0, 51, 0
1, 834963, Note_on_c, 0, 54, 0
1, 834963, Note_on_c, 0, 57, 54
1, 834966, Note_on_c, 0, 47, 54
1, 835076, Note_on_c, 0, 47, 0
1, 835076, Note_on_c, 0, 57, 0
1, 835076, Note_on_c, 0, 54, 58
1, 835079, Note_on_c, 0, 51, 57
1, 835188, Note_on_c, 0, 51, 0
1, 835188, Note_on_c, 0, 54, 0
1, 835188, Note_on_c, 0, 57, 56
1, 835191, Note_on_c, 0, 47, 55
1, 835300, Note_on_c, 0, 47, 0
1, 835300, Note_on_c, 0, 57, 0
1, 835300, Note_on_c, 0, 59, 73
1, 835303, Note_on_c, 0, 51, 57
1, 835488, Note_on_c, 0, 51, 0
1, 835488, Note_on_c, 0, 59, 0
1, 835488, Note_on_c, 0, 57, 55
1, 835491, Note_on_c, 0, 47, 54
1, 835675, Note_on_c, 0, 47, 0
1, 835675, Note_on_c, 0, 57, 0
1, 835675, Note_on_c, 0, 54, 54
1, 835678, Note_on_c, 0, 51, 53
1, 835787, Note_on_c, 0, 51, 0
1, 835787, Note_on_c, 0, 54, 0
1, 835787, Note_on_c, 0, 57, 53
1, 835790, Note_on_c, 0, 47, 53
1, 835899, Note_on_c, 0, 47, 0
1, 835899, Note_on_c, 0, 57, 0
1, 835899, Note_on_c, 0, 54, 58
1, 835902, Note_on_c, 0, 51, 56
1, 836012, Note_on_c, 0, 51, 0
1, 836012, Note_on_c, 0, 54, 0
1, 836012, Note_on_c, 0, 57, 54
1, 836015, Note_on_c, 0, 47, 53
1, 836124, Note_on_c, 0, 47, 0
1, 836124, Note_on_c, 0, 57, 0
1, 836124, Note_on_c, 0, 54, 52
1, 836127, Note_on_c, 0, 51, 52
1, 836236, Note_on_c, 0, 51, 0
1, 836236, Note_on_c, 0, 54, 0
1, 836236, Note_on_c, 0, 57, 55
1, 836239, Note_on_c, 0, 47, 54
1, 836349, Note_on_c, 0, 47, 0
1, 836349, Note_on_c, 0, 57, 0
1, 836349, Note_on_c, 0, 54, 55
1, 836352, Note_on_c, 0, 51, 53
1, 836461, Note_on_c, 0, 51, 0
1, 836461, Note_on_c, 0, 54, 0
1, 836461, Note_on_c, 0, 57, 51
1, 836464, Note_on_c, 0, 47, 51
1, 836586, Note_on_c, 0, 47, 0
1, 836586, Note_on_c, 0, 57, 0
1, 836586, Note_on_c, 0, 54, 55
1, 836589, Note_on_c, 0, 51, 53
1, 836726, Note_on_c, 0, 51, 0
1, 836726, Note_on_c, 0, 54, 0
1, 836726, Note_on_c, 0, 57, 49
1, 836729, Note_on_c, 0, 47, 49
1, 836789, Control_c, 0, 64, 0
1, 836789, Control_c, 0, 64, 0
1, 836887, Note_on_c, 0, 47, 0
1, 836887, Note_on_c, 0, 57, 0
1, 836887, Note_on_c, 0, 64, 77
1, 836890, Note_on_c, 0, 40, 64
1, 837059, Note_on_c, 0, 59, 62
1, 837059, Note_on_c, 0, 52, 56
1, 837200, Note_on_c, 0, 55, 65
1, 837200, Note_on_c, 0, 47, 70
1, 837209, Note_on_c, 0, 40, 0
1, 837213, Note_on_c, 0, 59, 0
1, 837312, Note_on_c, 0, 52, 0
1, 837312, Note_on_c, 0, 56, 67
1, 837312, Note_on_c, 0, 52, 60
1, 837325, Note_on_c, 0, 55, 0
1, 837425, Note_on_c, 0, 57, 70
1, 837425, Note_on_c, 0, 48, 75
1, 837433, Note_on_c, 0, 47, 0
1, 837438, Note_on_c, 0, 56, 0
1, 837537, Note_on_c, 0, 52, 0
1, 837537, Note_on_c, 0, 58, 72
1, 837537, Note_on_c, 0, 52, 63
1, 837550, Note_on_c, 0, 57, 0
1, 837649, Note_on_c, 0, 59, 75
1, 837649, Note_on_c, 0, 47, 78
1, 837658, Note_on_c, 0, 48, 0
1, 837662, Note_on_c, 0, 58, 0
1, 837761, Note_on_c, 0, 52, 0
1, 837761, Note_on_c, 0, 60, 77
1, 837761, Note_on_c, 0, 52, 57
1, 837775, Note_on_c, 0, 59, 0
1, 837874, Note_on_c, 0, 63, 73
1, 837874, Note_on_c, 0, 66, 84
1, 837874, Note_on_c, 0, 45, 70
1, 837885, Note_on_c, 0, 64, 0
1, 837885, Note_on_c, 0, 47, 0
1, 837890, Note_on_c, 0, 60, 0
1, 838014, Note_on_c, 0, 63, 0
1, 838014, Note_on_c, 0, 52, 0
1, 838014, Note_on_c, 0, 60, 70
1, 838017, Note_on_c, 0, 52, 55
1, 838155, Note_on_c, 0, 57, 66
1, 838155, Note_on_c, 0, 48, 66
1, 838166, Note_on_c, 0, 45, 0
1, 838171, Note_on_c, 0, 60, 0
1, 838295, Note_on_c, 0, 52, 0
1, 838295, Note_on_c, 0, 54, 62
1, 838295, Note_on_c, 0, 52, 53
1, 838311, Note_on_c, 0, 57, 0
1, 838435, Note_on_c, 0, 64, 76
1, 838435, Note_on_c, 0, 40, 64
1, 838446, Note_on_c, 0, 66, 0
1, 838446, Note_on_c, 0, 48, 0
1, 838452, Note_on_c, 0, 54, 0
1, 838576, Note_on_c, 0, 52, 0
1, 838576, Note_on_c, 0, 59, 53
1, 838576, Note_on_c, 0, 52, 53
1, 838688, Note_on_c, 0, 55, 56
1, 838688, Note_on_c, 0, 47, 76
1, 838697, Note_on_c, 0, 40, 0
1, 838701, Note_on_c, 0, 59, 0
1, 838800, Note_on_c, 0, 52, 0
1, 838800, Note_on_c, 0, 56, 58
1, 838800, Note_on_c, 0, 52, 56
1, 838814, Note_on_c, 0, 55, 0
1, 838913, Note_on_c, 0, 57, 61
1, 838913, Note_on_c, 0, 48, 82
1, 838922, Note_on_c, 0, 47, 0
1, 838926, Note_on_c, 0, 56, 0
1, 839025, Note_on_c, 0, 52, 0
1, 839025, Note_on_c, 0, 58, 63
1, 839025, Note_on_c, 0, 52, 60
1, 839038, Note_on_c, 0, 57, 0
1, 839137, Note_on_c, 0, 59, 66
1, 839137, Note_on_c, 0, 47, 84
1, 839146, Note_on_c, 0, 48, 0
1, 839151, Note_on_c, 0, 58, 0
1, 839250, Note_on_c, 0, 52, 0
1, 839250, Note_on_c, 0, 60, 68
1, 839250, Note_on_c, 0, 52, 57
1, 839263, Note_on_c, 0, 59, 0
1, 839362, Note_on_c, 0, 63, 64
1, 839362, Note_on_c, 0, 66, 75
1, 839362, Note_on_c, 0, 45, 78
1, 839372, Note_on_c, 0, 64, 0
1, 839372, Note_on_c, 0, 47, 0
1, 839377, Note_on_c, 0, 60, 0
1, 839487, Note_on_c, 0, 63, 0
1, 839487, Note_on_c, 0, 52, 0
1, 839487, Note_on_c, 0, 60, 61
1, 839490, Note_on_c, 0, 52, 54
1, 839612, Note_on_c, 0, 57, 57
1, 839612, Note_on_c, 0, 48, 74
1, 839623, Note_on_c, 0, 45, 0
1, 839628, Note_on_c, 0, 60, 0
1, 839752, Note_on_c, 0, 52, 0
1, 839752, Note_on_c, 0, 54, 53
1, 839752, Note_on_c, 0, 52, 52
1, 839768, Note_on_c, 0, 57, 0
1, 839892, Note_on_c, 0, 52, 0
1, 839892, Note_on_c, 0, 64, 68
1, 839892, Note_on_c, 0, 40, 73
1, 839903, Note_on_c, 0, 66, 0
1, 839903, Note_on_c, 0, 48, 0
1, 839909, Note_on_c, 0, 54, 0
1, 839986, Control_c, 0, 64, 127
1, 839986, Control_c, 0, 64, 127
1, 840033, Note_on_c, 0, 59, 62
1, 840033, Note_on_c, 0, 52, 53
1, 840173, Note_on_c, 0, 52, 0
1, 840173, Note_on_c, 0, 59, 0
1, 840173, Note_on_c, 0, 55, 63
1, 840176, Note_on_c, 0, 47, 61
1, 840314, Note_on_c, 0, 47, 0
1, 840314, Note_on_c, 0, 55, 0
1, 840314, Note_on_c, 0, 56, 64
1, 840317, Note_on_c, 0, 52, 54
1, 840438, Note_on_c, 0, 52, 0
1, 840438, Note_on_c, 0, 56, 0
1, 840438, Note_on_c, 0, 55, 65
1, 840441, Note_on_c, 0, 47, 63
1, 840563, Note_on_c, 0, 47, 0
1, 840563, Note_on_c, 0, 55, 0
1, 840563, Note_on_c, 0, 56, 65
1, 840566, Note_on_c, 0, 52, 56
1, 840688, Note_on_c, 0, 52, 0
1, 840688, Note_on_c, 0, 56, 0
1, 840688, Note_on_c, 0, 55, 67
1, 840691, Note_on_c, 0, 47, 65
1, 840800, Note_on_c, 0, 47, 0
1, 840800, Note_on_c, 0, 55, 0
1, 840800, Note_on_c, 0, 56, 67
1, 840803, Note_on_c, 0, 52, 57
1, 840913, Note_on_c, 0, 52, 0
1, 840913, Note_on_c, 0, 56, 0
1, 840913, Note_on_c, 0, 55, 69
1, 840916, Note_on_c, 0, 48, 68
1, 841025, Note_on_c, 0, 48, 0
1, 841025, Note_on_c, 0, 55, 0
1, 841025, Note_on_c, 0, 56, 70
1, 841028, Note_on_c, 0, 52, 58
1, 841137, Note_on_c, 0, 52, 0
1, 841137, Note_on_c, 0, 56, 0
1, 841137, Note_on_c, 0, 55, 71
1, 841140, Note_on_c, 0, 48, 69
1, 841250, Note_on_c, 0, 48, 0
1, 841250, Note_on_c, 0, 55, 0
1, 841250, Note_on_c, 0, 56, 72
1, 841253, Note_on_c, 0, 52, 60
1, 841362, Note_on_c, 0, 56, 0
1, 841362, Note_on_c, 0, 40, 0
1, 841362, Note_on_c, 0, 55, 72
1, 841365, Note_on_c, 0, 52, 0
1, 841365, Note_on_c, 0, 49, 72
1, 841494, Note_on_c, 0, 49, 0
1, 841494, Note_on_c, 0, 55, 0
1, 841494, Note_on_c, 0, 56, 74
1, 841497, Note_on_c, 0, 52, 60
1, 841606, Note_on_c, 0, 52, 0
1, 841606, Note_on_c, 0, 56, 0
1, 841606, Note_on_c, 0, 55, 75
1, 841609, Note_on_c, 0, 49, 71
1, 841719, Note_on_c, 0, 49, 0
1, 841719, Note_on_c, 0, 55, 0
1, 841719, Note_on_c, 0, 56, 78
1, 841722, Note_on_c, 0, 52, 60
1, 841831, Note_on_c, 0, 52, 0
1, 841831, Note_on_c, 0, 56, 0
1, 841831, Note_on_c, 0, 55, 72
1, 841834, Note_on_c, 0, 49, 72
1, 841943, Note_on_c, 0, 49, 0
1, 841943, Note_on_c, 0, 55, 0
1, 841943, Note_on_c, 0, 56, 81
1, 841946, Note_on_c, 0, 52, 60
1, 842028, Control_c, 0, 64, 0
1, 842028, Control_c, 0, 64, 0
1, 842068, Note_on_c, 0, 52, 0
1, 842068, Note_on_c, 0, 56, 0
1, 842068, Note_on_c, 0, 61, 85
1, 842071, Note_on_c, 0, 49, 71
1, 842138, Control_c, 0, 64, 127
1, 842138, Control_c, 0, 64, 127
1, 842200, Note_on_c, 0, 49, 0
1, 842200, Note_on_c, 0, 61, 0
1, 842200, Note_on_c, 0, 64, 90
1, 842203, Note_on_c, 0, 52, 60
1, 842361, Note_on_c, 0, 64, 0
1, 842361, Note_on_c, 0, 64, 0
1, 842361, Note_on_c, 0, 68, 85
1, 842364, Note_on_c, 0, 52, 0
1, 842364, Note_on_c, 0, 49, 72
1, 842548, Note_on_c, 0, 49, 0
1, 842548, Note_on_c, 0, 68, 0
1, 842548, Note_on_c, 0, 76, 92
1, 842551, Note_on_c, 0, 52, 59
1, 842708, Note_on_c, 0, 52, 0
1, 842708, Note_on_c, 0, 76, 0
1, 842708, Note_on_c, 0, 75, 91
1, 842711, Note_on_c, 0, 49, 71
1, 842896, Note_on_c, 0, 49, 0
1, 842896, Note_on_c, 0, 75, 0
1, 842896, Note_on_c, 0, 73, 92
1, 842899, Note_on_c, 0, 52, 59
1, 842997, Control_c, 0, 64, 0
1, 842997, Control_c, 0, 64, 0
1, 843083, Note_on_c, 0, 73, 0
1, 843083, Note_on_c, 0, 73, 88
1, 843176, Note_on_c, 0, 52, 0
1, 843176, Note_on_c, 0, 72, 88
1, 843176, Note_on_c, 0, 37, 69
1, 843186, Note_on_c, 0, 73, 0
1, 843245, Control_c, 0, 64, 127
1, 843245, Control_c, 0, 64, 127
1, 843426, Note_on_c, 0, 72, 0
1, 843426, Note_on_c, 0, 63, 63
1, 843509, Note_on_c, 0, 66, 63
1, 843551, Note_on_c, 0, 71, 88
1, 843592, Note_on_c, 0, 66, 0
1, 843592, Note_on_c, 0, 69, 63
1, 843653, Control_c, 0, 64, 0
1, 843653, Control_c, 0, 64, 0
1, 843676, Note_on_c, 0, 69, 0
1, 843676, Note_on_c, 0, 71, 0
1, 843676, Note_on_c, 0, 72, 88
1, 843679, Note_on_c, 0, 63, 0
1, 843679, Note_on_c, 0, 63, 63
1, 843716, Control_c, 0, 64, 127
1, 843716, Control_c, 0, 64, 127
1, 843751, Note_on_c, 0, 66, 63
1, 843825, Note_on_c, 0, 66, 0
1, 843825, Note_on_c, 0, 69, 63
1, 843900, Note_on_c, 0, 69, 0
1, 843900, Note_on_c, 0, 63, 0
1, 843900, Note_on_c, 0, 63, 63
1, 843975, Note_on_c, 0, 66, 63
1, 844050, Note_on_c, 0, 66, 0
1, 844050, Note_on_c, 0, 69, 63
1, 844125, Note_on_c, 0, 69, 0
1, 844125, Note_on_c, 0, 63, 0
1, 844125, Note_on_c, 0, 63, 63
1, 844200, Note_on_c, 0, 66, 63
1, 844275, Note_on_c, 0, 66, 0
1, 844275, Note_on_c, 0, 69, 63
1, 844350, Note_on_c, 0, 69, 0
1, 844350, Note_on_c, 0, 63, 0
1, 844350, Note_on_c, 0, 73, 85
1, 844353, Note_on_c, 0, 63, 63
1, 844358, Note_on_c, 0, 72, 0
1, 844425, Note_on_c, 0, 66, 63
1, 844499, Note_on_c, 0, 66, 0
1, 844499, Note_on_c, 0, 69, 63
1, 844574, Note_on_c, 0, 69, 0
1, 844574, Note_on_c, 0, 63, 0
1, 844574, Note_on_c, 0, 75, 88
1, 844577, Note_on_c, 0, 56, 71
1, 844585, Note_on_c, 0, 73, 0
1, 844598, Control_c, 0, 64, 0
1, 844598, Control_c, 0, 64, 0
1, 844640, Note_on_c, 0, 63, 63
1, 844706, Note_on_c, 0, 63, 0
1, 844706, Note_on_c, 0, 66, 63
1, 844742, Control_c, 0, 64, 127
1, 844742, Control_c, 0, 64, 127
1, 844772, Note_on_c, 0, 66, 0
1, 844772, Note_on_c, 0, 69, 63
1, 844838, Note_on_c, 0, 69, 0
1, 844838, Note_on_c, 0, 56, 0
1, 844838, Note_on_c, 0, 76, 91
1, 844841, Note_on_c, 0, 63, 63
1, 844847, Note_on_c, 0, 75, 0
1, 844914, Note_on_c, 0, 66, 63
1, 844988, Note_on_c, 0, 66, 0
1, 844988, Note_on_c, 0, 69, 63
1, 845063, Note_on_c, 0, 69, 0
1, 845063, Note_on_c, 0, 37, 0
1, 845063, Note_on_c, 0, 78, 94
1, 845066, Note_on_c, 0, 63, 0
1, 845066, Note_on_c, 0, 63, 63
1, 845072, Note_on_c, 0, 76, 0
1, 845138, Note_on_c, 0, 66, 63
1, 845213, Note_on_c, 0, 66, 0
1, 845213, Note_on_c, 0, 69, 63
1, 845288, Note_on_c, 0, 69, 0
1, 845288, Note_on_c, 0, 63, 0
1, 845288, Note_on_c, 0, 80, 89
1, 845291, Note_on_c, 0, 63, 63
1, 845299, Note_on_c, 0, 78, 0
1, 845382, Note_on_c, 0, 66, 63
1, 845428, Control_c, 0, 64, 0
1, 845428, Note_on_c, 0, 78, 92
1, 845428, Control_c, 0, 64, 0
1, 845475, Note_on_c, 0, 66, 0
1, 845475, Note_on_c, 0, 69, 63
1, 845498, Note_on_c, 0, 78, 0
1, 845498, Note_on_c, 0, 80, 92
1, 845569, Note_on_c, 0, 69, 0
1, 845569, Note_on_c, 0, 80, 0
1, 845569, Note_on_c, 0, 81, 92
1, 845572, Note_on_c, 0, 63, 0
1, 845572, Note_on_c, 0, 63, 63
1, 845581, Note_on_c, 0, 80, 0
1, 845612, Control_c, 0, 64, 127
1, 845612, Control_c, 0, 64, 127
1, 845676, Note_on_c, 0, 66, 63
1, 845782, Note_on_c, 0, 66, 0
1, 845782, Note_on_c, 0, 69, 63
1, 845889, Note_on_c, 0, 69, 0
1, 845889, Note_on_c, 0, 63, 0
1, 845889, Note_on_c, 0, 80, 88
1, 845892, Note_on_c, 0, 63, 63
1, 845900, Note_on_c, 0, 81, 0
1, 845978, Note_on_c, 0, 66, 63
1, 846065, Note_on_c, 0, 66, 0
1, 846065, Note_on_c, 0, 69, 63
1, 846154, Note_on_c, 0, 69, 0
1, 846154, Note_on_c, 0, 63, 0
1, 846154, Note_on_c, 0, 78, 88
1, 846157, Note_on_c, 0, 56, 71
1, 846164, Note_on_c, 0, 80, 0
1, 846202, Control_c, 0, 64, 0
1, 846202, Control_c, 0, 64, 0
1, 846220, Note_on_c, 0, 63, 63
1, 846286, Note_on_c, 0, 63, 0
1, 846286, Note_on_c, 0, 66, 63
1, 846323, Control_c, 0, 64, 127
1, 846323, Control_c, 0, 64, 127
1, 846352, Note_on_c, 0, 66, 0
1, 846352, Note_on_c, 0, 69, 63
1, 846418, Note_on_c, 0, 69, 0
1, 846418, Note_on_c, 0, 56, 0
1, 846418, Note_on_c, 0, 63, 63
1, 846493, Note_on_c, 0, 66, 63
1, 846568, Note_on_c, 0, 66, 0
1, 846568, Note_on_c, 0, 69, 63
1, 846643, Note_on_c, 0, 69, 0
1, 846643, Note_on_c, 0, 63, 0
1, 846643, Note_on_c, 0, 63, 63
1, 846718, Note_on_c, 0, 66, 63
1, 846792, Note_on_c, 0, 66, 0
1, 846792, Note_on_c, 0, 69, 63
1, 846867, Note_on_c, 0, 69, 0
1, 846867, Note_on_c, 0, 63, 0
1, 846867, Note_on_c, 0, 76, 88
1, 846870, Note_on_c, 0, 63, 63
1, 846878, Note_on_c, 0, 78, 0
1, 846956, Note_on_c, 0, 66, 63
1, 847043, Note_on_c, 0, 66, 0
1, 847043, Note_on_c, 0, 69, 63
1, 847132, Note_on_c, 0, 69, 0
1, 847132, Note_on_c, 0, 63, 0
1, 847132, Note_on_c, 0, 75, 88
1, 847135, Note_on_c, 0, 63, 63
1, 847142, Note_on_c, 0, 76, 0
1, 847220, Note_on_c, 0, 66, 63
1, 847308, Note_on_c, 0, 66, 0
1, 847308, Note_on_c, 0, 69, 63
1, 847396, Note_on_c, 0, 69, 0
1, 847396, Note_on_c, 0, 63, 0
1, 847396, Note_on_c, 0, 73, 88
1, 847399, Note_on_c, 0, 63, 63
1, 847412, Note_on_c, 0, 75, 0
1, 847532, Note_on_c, 0, 66, 63
1, 847668, Note_on_c, 0, 66, 0
1, 847668, Note_on_c, 0, 69, 63
1, 847702, Note_on_c, 0, 72, 88
1, 847767, Control_c, 0, 64, 127
1, 847767, Control_c, 0, 64, 127
1, 847804, Note_on_c, 0, 72, 0
1, 847804, Note_on_c, 0, 69, 0
1, 847804, Note_on_c, 0, 75, 88
1, 847807, Note_on_c, 0, 63, 0
1, 847807, Note_on_c, 0, 56, 71
1, 847817, Note_on_c, 0, 73, 0
1, 847862, Control_c, 0, 64, 0
1, 847862, Control_c, 0, 64, 0
1, 847885, Note_on_c, 0, 63, 63
1, 847949, Control_c, 0, 64, 0
1, 847949, Control_c, 0, 64, 0
1, 847965, Note_on_c, 0, 63, 0
1, 847965, Note_on_c, 0, 66, 63
1, 848007, Control_c, 0, 64, 127
1, 848007, Control_c, 0, 64, 127
1, 848045, Note_on_c, 0, 66, 0
1, 848045, Note_on_c, 0, 68, 63
1, 848125, Note_on_c, 0, 68, 0
1, 848125, Note_on_c, 0, 56, 0
1, 848125, Note_on_c, 0, 63, 63
1, 848200, Note_on_c, 0, 66, 63
1, 848275, Note_on_c, 0, 66, 0
1, 848275, Note_on_c, 0, 68, 63
1, 848350, Note_on_c, 0, 68, 0
1, 848350, Note_on_c, 0, 75, 0
1, 848350, Note_on_c, 0, 44, 75
1, 848353, Note_on_c, 0, 63, 0
1, 848353, Note_on_c, 0, 51, 87
1, 848353, Note_on_c, 0, 63, 63
1, 848425, Note_on_c, 0, 66, 63
1, 848499, Note_on_c, 0, 66, 0
1, 848499, Note_on_c, 0, 68, 63
1, 848575, Note_on_c, 0, 68, 0
1, 848575, Note_on_c, 0, 63, 0
1, 848575, Note_on_c, 0, 63, 63
1, 848650, Note_on_c, 0, 66, 63
1, 848724, Note_on_c, 0, 66, 0
1, 848724, Note_on_c, 0, 68, 63
1, 848799, Note_on_c, 0, 68, 0
1, 848799, Note_on_c, 0, 51, 0
1, 848799, Note_on_c, 0, 44, 0
1, 848802, Note_on_c, 0, 63, 0
1, 848802, Note_on_c, 0, 44, 75
1, 848802, Note_on_c, 0, 51, 87
1, 848805, Note_on_c, 0, 63, 63
1, 848874, Note_on_c, 0, 66, 63
1, 848949, Note_on_c, 0, 66, 0
1, 848949, Note_on_c, 0, 68, 63
1, 849024, Note_on_c, 0, 68, 0
1, 849024, Note_on_c, 0, 63, 0
1, 849024, Note_on_c, 0, 63, 63
1, 849099, Note_on_c, 0, 66, 63
1, 849173, Note_on_c, 0, 66, 0
1, 849173, Note_on_c, 0, 68, 63
1, 849192, Note_on_c, 0, 37, 83
1, 849198, Control_c, 0, 64, 0
1, 849198, Control_c, 0, 64, 0
1, 849248, Note_on_c, 0, 68, 0
1, 849248, Note_on_c, 0, 44, 0
1, 849248, Note_on_c, 0, 51, 0
1, 849251, Note_on_c, 0, 63, 0
1, 849251, Note_on_c, 0, 44, 78
1, 849251, Note_on_c, 0, 52, 90
1, 849254, Note_on_c, 0, 56, 70
1, 849329, Note_on_c, 0, 61, 59
1, 849386, Control_c, 0, 64, 127
1, 849386, Control_c, 0, 64, 127
1, 849409, Note_on_c, 0, 61, 0
1, 849409, Note_on_c, 0, 64, 63
1, 849471, Note_on_c, 0, 64, 0
1, 849471, Note_on_c, 0, 68, 60
1, 849534, Note_on_c, 0, 68, 0
1, 849534, Note_on_c, 0, 56, 0
1, 849534, Note_on_c, 0, 61, 64
1, 849617, Note_on_c, 0, 64, 61
1, 849700, Note_on_c, 0, 64, 0
1, 849700, Note_on_c, 0, 68, 66
1, 849783, Note_on_c, 0, 68, 0
1, 849783, Note_on_c, 0, 61, 0
1, 849783, Note_on_c, 0, 61, 63
1, 849867, Note_on_c, 0, 64, 63
1, 849950, Note_on_c, 0, 64, 0
1, 849950, Note_on_c, 0, 68, 61
1, 850033, Note_on_c, 0, 44, 0
1, 850033, Note_on_c, 0, 44, 70
1, 850033, Note_on_c, 0, 51, 82
1, 850036, Note_on_c, 0, 61, 0
1, 850036, Note_on_c, 0, 68, 0
1, 850036, Note_on_c, 0, 61, 64
1, 850043, Note_on_c, 0, 52, 0
1, 850116, Note_on_c, 0, 64, 67
1, 850199, Note_on_c, 0, 64, 0
1, 850199, Note_on_c, 0, 68, 66
1, 850282, Note_on_c, 0, 37, 0
1, 850282, Note_on_c, 0, 44, 0
1, 850282, Note_on_c, 0, 44, 70
1, 850285, Note_on_c, 0, 68, 0
1, 850285, Note_on_c, 0, 61, 0
1, 850285, Note_on_c, 0, 49, 82
1, 850288, Note_on_c, 0, 61, 64
1, 850292, Note_on_c, 0, 51, 0
1, 850366, Note_on_c, 0, 64, 60
1, 850369, Control_c, 0, 64, 0
1, 850369, Control_c, 0, 64, 0
1, 850449, Note_on_c, 0, 64, 0
1, 850449, Note_on_c, 0, 68, 61
1, 850507, Control_c, 0, 64, 127
1, 850507, Control_c, 0, 64, 127
1, 850532, Note_on_c, 0, 68, 0
1, 850532, Note_on_c, 0, 61, 0
1, 850532, Note_on_c, 0, 61, 65
1, 850615, Note_on_c, 0, 64, 65
1, 850698, Note_on_c, 0, 64, 0
1, 850698, Note_on_c, 0, 68, 63
1, 850782, Note_on_c, 0, 44, 0
1, 850782, Note_on_c, 0, 49, 0
1, 850782, Note_on_c, 0, 44, 67
1, 850785, Note_on_c, 0, 61, 0
1, 850785, Note_on_c, 0, 68, 0
1, 850785, Note_on_c, 0, 49, 85
1, 850788, Note_on_c, 0, 56, 70
1, 850844, Note_on_c, 0, 61, 61
1, 850906, Note_on_c, 0, 61, 0
1, 850906, Note_on_c, 0, 64, 66
1, 850969, Note_on_c, 0, 64, 0
1, 850969, Note_on_c, 0, 68, 61
1, 851031, Note_on_c, 0, 68, 0
1, 851031, Note_on_c, 0, 56, 0
1, 851031, Note_on_c, 0, 61, 61
1, 851115, Note_on_c, 0, 64, 62
1, 851198, Note_on_c, 0, 64, 0
1, 851198, Note_on_c, 0, 68, 64
1, 851281, Note_on_c, 0, 44, 0
1, 851281, Note_on_c, 0, 44, 69
1, 851281, Note_on_c, 0, 48, 88
1, 851284, Note_on_c, 0, 68, 0
1, 851284, Note_on_c, 0, 61, 0
1, 851284, Note_on_c, 0, 61, 63
1, 851290, Note_on_c, 0, 49, 0
1, 851356, Note_on_c, 0, 64, 59
1, 851431, Note_on_c, 0, 64, 0
1, 851431, Note_on_c, 0, 68, 64
1, 851506, Note_on_c, 0, 68, 0
1, 851506, Note_on_c, 0, 61, 0
1, 851506, Note_on_c, 0, 61, 67
1, 851581, Note_on_c, 0, 64, 63
1, 851655, Note_on_c, 0, 64, 0
1, 851655, Note_on_c, 0, 68, 59
1, 851730, Note_on_c, 0, 44, 0
1, 851730, Note_on_c, 0, 44, 72
1, 851730, Note_on_c, 0, 49, 92
1, 851733, Note_on_c, 0, 68, 0
1, 851733, Note_on_c, 0, 61, 0
1, 851733, Note_on_c, 0, 61, 62
1, 851739, Note_on_c, 0, 48, 0
1, 851805, Note_on_c, 0, 64, 63
1, 851880, Note_on_c, 0, 64, 0
1, 851880, Note_on_c, 0, 68, 64
1, 851987, Note_on_c, 0, 68, 0
1, 851987, Note_on_c, 0, 61, 0
1, 851987, Note_on_c, 0, 61, 63
1, 852094, Note_on_c, 0, 64, 67
1, 852201, Note_on_c, 0, 64, 0
1, 852201, Note_on_c, 0, 68, 59
1, 852308, Note_on_c, 0, 44, 0
1, 852308, Note_on_c, 0, 37, 69
1, 852308, Note_on_c, 0, 44, 69
1, 852311, Note_on_c, 0, 68, 0
1, 852311, Note_on_c, 0, 61, 0
1, 852311, Note_on_c, 0, 51, 89
1, 852314, Note_on_c, 0, 56, 70
1, 852320, Note_on_c, 0, 49, 0
1, 852388, Note_on_c, 0, 61, 59
1, 852407, Control_c, 0, 64, 0
1, 852407, Control_c, 0, 64, 0
1, 852468, Note_on_c, 0, 61, 0
1, 852468, Note_on_c, 0, 63, 63
1, 852549, Note_on_c, 0, 63, 0
1, 852549, Note_on_c, 0, 68, 64
1, 852577, Control_c, 0, 64, 127
1, 852577, Control_c, 0, 64, 127
1, 852611, Note_on_c, 0, 68, 0
1, 852611, Note_on_c, 0, 56, 0
1, 852611, Note_on_c, 0, 61, 61
1, 852694, Note_on_c, 0, 63, 61
1, 852777, Note_on_c, 0, 63, 0
1, 852777, Note_on_c, 0, 68, 60
1, 852861, Note_on_c, 0, 68, 0
1, 852861, Note_on_c, 0, 61, 0
1, 852861, Note_on_c, 0, 61, 66
1, 852944, Note_on_c, 0, 63, 65
1, 853027, Note_on_c, 0, 63, 0
1, 853027, Note_on_c, 0, 68, 63
1, 853110, Note_on_c, 0, 68, 0
1, 853110, Note_on_c, 0, 61, 0
1, 853110, Note_on_c, 0, 61, 59
1, 853194, Note_on_c, 0, 63, 61
1, 853276, Note_on_c, 0, 63, 0
1, 853276, Note_on_c, 0, 68, 66
1, 853360, Note_on_c, 0, 68, 0
1, 853360, Note_on_c, 0, 61, 0
1, 853360, Note_on_c, 0, 61, 63
1, 853443, Note_on_c, 0, 63, 63
1, 853526, Note_on_c, 0, 63, 0
1, 853526, Note_on_c, 0, 68, 62
1, 853609, Note_on_c, 0, 68, 0
1, 853609, Note_on_c, 0, 61, 0
1, 853609, Note_on_c, 0, 61, 62
1, 853693, Note_on_c, 0, 63, 65
1, 853776, Note_on_c, 0, 63, 0
1, 853776, Note_on_c, 0, 68, 65
1, 853891, Note_on_c, 0, 68, 0
1, 853891, Note_on_c, 0, 61, 0
1, 853891, Note_on_c, 0, 56, 70
1, 853977, Note_on_c, 0, 60, 62
1, 853996, Control_c, 0, 64, 0
1, 853996, Control_c, 0, 64, 0
1, 854064, Note_on_c, 0, 60, 0
1, 854064, Note_on_c, 0, 63, 63
1, 854150, Note_on_c, 0, 63, 0
1, 854150, Note_on_c, 0, 68, 60
1, 854205, Control_c, 0, 64, 127
1, 854205, Control_c, 0, 64, 127
1, 854237, Note_on_c, 0, 68, 0
1, 854237, Note_on_c, 0, 56, 0
1, 854237, Note_on_c, 0, 60, 63
1, 854247, Control_c, 0, 64, 127
1, 854247, Control_c, 0, 64, 127
1, 854352, Note_on_c, 0, 63, 67
1, 854427, Note_on_c, 0, 63, 0
1, 854427, Note_on_c, 0, 68, 65
1, 854502, Note_on_c, 0, 51, 0
1, 854502, Note_on_c, 0, 37, 0
1, 854502, Note_on_c, 0, 44, 0
1, 854505, Note_on_c, 0, 60, 0
1, 854505, Note_on_c, 0, 68, 0
1, 854505, Note_on_c, 0, 60, 62
1, 854577, Note_on_c, 0, 63, 62
1, 854651, Note_on_c, 0, 63, 0
1, 854651, Note_on_c, 0, 68, 61
1, 854726, Note_on_c, 0, 68, 0
1, 854726, Note_on_c, 0, 60, 0
1, 854726, Note_on_c, 0, 60, 63
1, 854801, Note_on_c, 0, 63, 61
1, 854876, Note_on_c, 0, 63, 0
1, 854876, Note_on_c, 0, 68, 63
1, 854951, Note_on_c, 0, 68, 0
1, 854951, Note_on_c, 0, 60, 0
1, 854951, Note_on_c, 0, 60, 60
1, 855026, Note_on_c, 0, 63, 64
1, 855101, Note_on_c, 0, 63, 0
1, 855101, Note_on_c, 0, 68, 63
1, 855176, Note_on_c, 0, 68, 0
1, 855176, Note_on_c, 0, 60, 0
1, 855176, Note_on_c, 0, 60, 62
1, 855251, Note_on_c, 0, 63, 64
1, 855325, Note_on_c, 0, 63, 0
1, 855325, Note_on_c, 0, 68, 59
1, 855359, Control_c, 0, 64, 0
1, 855359, Control_c, 0, 64, 0
1, 855400, Note_on_c, 0, 68, 0
1, 855400, Note_on_c, 0, 73, 89
1, 855400, Note_on_c, 0, 85, 105
1, 855403, Note_on_c, 0, 60, 0
1, 855403, Note_on_c, 0, 56, 71
1, 855456, Note_on_c, 0, 61, 65
1, 855513, Note_on_c, 0, 61, 0
1, 855513, Note_on_c, 0, 64, 65
1, 855524, Control_c, 0, 64, 127
1, 855524, Control_c, 0, 64, 127
1, 855569, Note_on_c, 0, 64, 0
1, 855569, Note_on_c, 0, 68, 66
1, 855625, Note_on_c, 0, 68, 0
1, 855625, Note_on_c, 0, 56, 0
1, 855625, Note_on_c, 0, 61, 63
1, 855700, Note_on_c, 0, 64, 66
1, 855774, Note_on_c, 0, 64, 0
1, 855774, Note_on_c, 0, 68, 65
1, 855850, Note_on_c, 0, 68, 0
1, 855850, Note_on_c, 0, 61, 0
1, 855850, Note_on_c, 0, 61, 64
1, 855925, Note_on_c, 0, 64, 63
1, 855999, Note_on_c, 0, 64, 0
1, 855999, Note_on_c, 0, 68, 65
1, 856074, Note_on_c, 0, 68, 0
1, 856074, Note_on_c, 0, 61, 0
1, 856074, Note_on_c, 0, 61, 63
1, 856149, Note_on_c, 0, 64, 68
1, 856224, Note_on_c, 0, 64, 0
1, 856224, Note_on_c, 0, 68, 64
1, 856299, Note_on_c, 0, 68, 0
1, 856299, Note_on_c, 0, 61, 0
1, 856299, Note_on_c, 0, 61, 68
1, 856374, Note_on_c, 0, 64, 66
1, 856448, Note_on_c, 0, 64, 0
1, 856448, Note_on_c, 0, 68, 70
1, 856523, Note_on_c, 0, 68, 0
1, 856523, Note_on_c, 0, 61, 0
1, 856523, Note_on_c, 0, 61, 66
1, 856598, Note_on_c, 0, 64, 67
1, 856673, Note_on_c, 0, 64, 0
1, 856673, Note_on_c, 0, 68, 67
1, 856748, Note_on_c, 0, 68, 0
1, 856748, Note_on_c, 0, 75, 89
1, 856748, Note_on_c, 0, 87, 105
1, 856751, Note_on_c, 0, 61, 0
1, 856751, Note_on_c, 0, 56, 76
1, 856757, Note_on_c, 0, 73, 0
1, 856757, Note_on_c, 0, 85, 0
1, 856776, Control_c, 0, 64, 0
1, 856776, Control_c, 0, 64, 0
1, 856804, Note_on_c, 0, 61, 64
1, 856860, Note_on_c, 0, 61, 0
1, 856860, Note_on_c, 0, 63, 65
1, 856913, Control_c, 0, 64, 127
1, 856913, Control_c, 0, 64, 127
1, 856917, Note_on_c, 0, 63, 0
1, 856917, Note_on_c, 0, 68, 66
1, 856973, Note_on_c, 0, 68, 0
1, 856973, Note_on_c, 0, 56, 0
1, 856973, Note_on_c, 0, 61, 67
1, 857048, Note_on_c, 0, 63, 65
1, 857122, Note_on_c, 0, 63, 0
1, 857122, Note_on_c, 0, 68, 66
1, 857197, Note_on_c, 0, 68, 0
1, 857197, Note_on_c, 0, 61, 0
1, 857197, Note_on_c, 0, 61, 66
1, 857272, Note_on_c, 0, 63, 71
1, 857347, Note_on_c, 0, 63, 0
1, 857347, Note_on_c, 0, 68, 68
1, 857422, Note_on_c, 0, 68, 0
1, 857422, Note_on_c, 0, 61, 0
1, 857422, Note_on_c, 0, 61, 70
1, 857497, Note_on_c, 0, 63, 68
1, 857572, Note_on_c, 0, 63, 0
1, 857572, Note_on_c, 0, 68, 67
1, 857647, Note_on_c, 0, 68, 0
1, 857647, Note_on_c, 0, 61, 0
1, 857647, Note_on_c, 0, 61, 71
1, 857722, Note_on_c, 0, 63, 72
1, 857796, Note_on_c, 0, 63, 0
1, 857796, Note_on_c, 0, 68, 72
1, 857871, Note_on_c, 0, 68, 0
1, 857871, Note_on_c, 0, 61, 0
1, 857871, Note_on_c, 0, 61, 69
1, 857946, Note_on_c, 0, 63, 73
1, 857984, Note_on_c, 0, 87, 0
1, 857984, Note_on_c, 0, 75, 0
1, 857984, Note_on_c, 0, 75, 96
1, 857987, Note_on_c, 0, 87, 114
1, 858037, Note_on_c, 0, 63, 0
1, 858037, Note_on_c, 0, 68, 67
1, 858144, Note_on_c, 0, 68, 0
1, 858144, Note_on_c, 0, 80, 97
1, 858144, Note_on_c, 0, 92, 115
1, 858147, Note_on_c, 0, 61, 0
1, 858147, Note_on_c, 0, 56, 81
1, 858157, Note_on_c, 0, 87, 0
1, 858157, Note_on_c, 0, 75, 0
1, 858204, Control_c, 0, 64, 0
1, 858204, Control_c, 0, 64, 0
1, 858224, Note_on_c, 0, 60, 74
1, 858304, Note_on_c, 0, 60, 0
1, 858304, Note_on_c, 0, 63, 71
1, 858382, Control_c, 0, 64, 127
1, 858382, Control_c, 0, 64, 127
1, 858385, Note_on_c, 0, 63, 0
1, 858385, Note_on_c, 0, 66, 74
1, 858465, Note_on_c, 0, 66, 0
1, 858465, Note_on_c, 0, 56, 0
1, 858465, Note_on_c, 0, 60, 67
1, 858572, Note_on_c, 0, 63, 69
1, 858647, Note_on_c, 0, 63, 0
1, 858647, Note_on_c, 0, 66, 71
1, 858722, Note_on_c, 0, 66, 0
1, 858722, Note_on_c, 0, 60, 0
1, 858722, Note_on_c, 0, 60, 71
1, 858797, Note_on_c, 0, 63, 67
1, 858871, Note_on_c, 0, 63, 0
1, 858871, Note_on_c, 0, 66, 75
1, 858946, Note_on_c, 0, 66, 0
1, 858946, Note_on_c, 0, 60, 0
1, 858946, Note_on_c, 0, 60, 72
1, 859021, Note_on_c, 0, 63, 71
1, 859096, Note_on_c, 0, 63, 0
1, 859096, Note_on_c, 0, 66, 74
1, 859171, Note_on_c, 0, 66, 0
1, 859171, Note_on_c, 0, 60, 0
1, 859171, Note_on_c, 0, 60, 73
1, 859246, Note_on_c, 0, 63, 73
1, 859321, Note_on_c, 0, 63, 0
1, 859321, Note_on_c, 0, 66, 75
1, 859396, Note_on_c, 0, 66, 0
1, 859396, Note_on_c, 0, 60, 0
1, 859396, Note_on_c, 0, 60, 77
1, 859471, Note_on_c, 0, 63, 74
1, 859545, Note_on_c, 0, 63, 0
1, 859545, Note_on_c, 0, 66, 71
1, 859620, Note_on_c, 0, 66, 0
1, 859620, Note_on_c, 0, 92, 0
1, 859620, Note_on_c, 0, 80, 0
1, 859623, Note_on_c, 0, 60, 0
1, 859623, Note_on_c, 0, 56, 85
1, 859676, Note_on_c, 0, 59, 72
1, 859733, Note_on_c, 0, 59, 0
1, 859733, Note_on_c, 0, 61, 76
1, 859789, Note_on_c, 0, 61, 0
1, 859789, Note_on_c, 0, 65, 73
1, 859845, Note_on_c, 0, 65, 0
1, 859845, Note_on_c, 0, 56, 0
1, 859845, Note_on_c, 0, 59, 76
1, 859920, Note_on_c, 0, 61, 77
1, 859995, Note_on_c, 0, 61, 0
1, 859995, Note_on_c, 0, 65, 77
1, 860070, Note_on_c, 0, 65, 0
1, 860070, Note_on_c, 0, 59, 0
1, 860070, Note_on_c, 0, 59, 78
1, 860145, Note_on_c, 0, 61, 76
1, 860219, Note_on_c, 0, 61, 0
1, 860219, Note_on_c, 0, 65, 72
1, 860294, Note_on_c, 0, 65, 0
1, 860294, Note_on_c, 0, 59, 0
1, 860294, Note_on_c, 0, 59, 76
1, 860356, Control_c, 0, 64, 0
1, 860356, Control_c, 0, 64, 0
1, 860369, Note_on_c, 0, 61, 74
1, 860407, Note_on_c, 0, 49, 101
1, 860444, Note_on_c, 0, 61, 0
1, 860444, Note_on_c, 0, 65, 80
1, 860463, Note_on_c, 0, 52, 101
1, 860510, Control_c, 0, 64, 0
1, 860510, Control_c, 0, 64, 0
1, 860519, Note_on_c, 0, 52, 0
1, 860519, Note_on_c, 0, 49, 0
1, 860519, Note_on_c, 0, 50, 101
1, 860522, Note_on_c, 0, 65, 0
1, 860522, Note_on_c, 0, 59, 0
1, 860522, Note_on_c, 0, 59, 77
1, 860607, Note_on_c, 0, 61, 77
1, 860667, Control_c, 0, 64, 127
1, 860667, Control_c, 0, 64, 127
1, 860695, Note_on_c, 0, 61, 0
1, 860695, Note_on_c, 0, 65, 76
1, 860783, Note_on_c, 0, 65, 0
1, 860783, Note_on_c, 0, 59, 0
1, 860783, Note_on_c, 0, 50, 0
1, 860786, Note_on_c, 0, 59, 78
1, 860871, Note_on_c, 0, 61, 74
1, 860915, Note_on_c, 0, 49, 101
1, 860959, Note_on_c, 0, 61, 0
1, 860959, Note_on_c, 0, 65, 78
1, 861015, Control_c, 0, 64, 0
1, 861015, Control_c, 0, 64, 0
1, 861047, Control_c, 0, 64, 0
1, 861047, Note_on_c, 0, 42, 91
1, 861047, Note_on_c, 0, 54, 100
1, 861050, Note_on_c, 0, 65, 0
1, 861050, Note_on_c, 0, 59, 0
1, 861050, Control_c, 0, 64, 0
1, 861053, Note_on_c, 0, 57, 88
1, 861056, Note_on_c, 0, 49, 0
1, 861104, Note_on_c, 0, 61, 76
1, 861144, Control_c, 0, 64, 0
1, 861144, Control_c, 0, 64, 0
1, 861160, Note_on_c, 0, 61, 0
1, 861160, Note_on_c, 0, 66, 70
1, 861216, Note_on_c, 0, 66, 0
1, 861216, Note_on_c, 0, 69, 70
1, 861226, Control_c, 0, 64, 127
1, 861226, Control_c, 0, 64, 127
1, 861272, Note_on_c, 0, 69, 0
1, 861272, Note_on_c, 0, 61, 78
1, 861347, Note_on_c, 0, 66, 79
1, 861422, Note_on_c, 0, 66, 0
1, 861422, Note_on_c, 0, 69, 75
1, 861497, Note_on_c, 0, 69, 0
1, 861497, Note_on_c, 0, 61, 0
1, 861497, Note_on_c, 0, 61, 77
1, 861572, Note_on_c, 0, 66, 70
1, 861646, Note_on_c, 0, 66, 0
1, 861646, Note_on_c, 0, 69, 74
1, 861721, Note_on_c, 0, 69, 0
1, 861721, Note_on_c, 0, 61, 0
1, 861721, Note_on_c, 0, 57, 0
1, 861724, Note_on_c, 0, 61, 73
1, 861796, Note_on_c, 0, 66, 76
1, 861871, Note_on_c, 0, 66, 0
1, 861871, Note_on_c, 0, 69, 75
1, 861946, Note_on_c, 0, 69, 0
1, 861946, Note_on_c, 0, 61, 0
1, 861946, Note_on_c, 0, 61, 74
1, 862021, Note_on_c, 0, 66, 72
1, 862096, Note_on_c, 0, 66, 0
1, 862096, Note_on_c, 0, 69, 76
1, 862171, Note_on_c, 0, 69, 0
1, 862171, Note_on_c, 0, 61, 0
1, 862171, Note_on_c, 0, 61, 80
1, 862246, Note_on_c, 0, 66, 76
1, 862320, Note_on_c, 0, 66, 0
1, 862320, Note_on_c, 0, 69, 79
1, 862395, Note_on_c, 0, 69, 0
1, 862395, Note_on_c, 0, 44, 96
1, 862395, Note_on_c, 0, 56, 82
1, 862398, Note_on_c, 0, 61, 0
1, 862398, Note_on_c, 0, 59, 88
1, 862404, Note_on_c, 0, 42, 0
1, 862404, Note_on_c, 0, 54, 0
1, 862437, Control_c, 0, 64, 0
1, 862437, Control_c, 0, 64, 0
1, 862451, Note_on_c, 0, 61, 75
1, 862508, Note_on_c, 0, 61, 0
1, 862508, Note_on_c, 0, 65, 80
1, 862564, Note_on_c, 0, 65, 0
1, 862564, Note_on_c, 0, 71, 75
1, 862574, Control_c, 0, 64, 127
1, 862574, Control_c, 0, 64, 127
1, 862620, Note_on_c, 0, 71, 0
1, 862620, Note_on_c, 0, 61, 80
1, 862695, Note_on_c, 0, 65, 73
1, 862770, Note_on_c, 0, 65, 0
1, 862770, Note_on_c, 0, 71, 76
1, 862845, Note_on_c, 0, 71, 0
1, 862845, Note_on_c, 0, 61, 0
1, 862845, Note_on_c, 0, 59, 0
1, 862848, Note_on_c, 0, 61, 74
1, 862920, Note_on_c, 0, 65, 74
1, 862994, Note_on_c, 0, 65, 0
1, 862994, Note_on_c, 0, 71, 75
1, 863069, Note_on_c, 0, 71, 0
1, 863069, Note_on_c, 0, 61, 0
1, 863069, Note_on_c, 0, 61, 75
1, 863144, Note_on_c, 0, 65, 72
1, 863219, Note_on_c, 0, 65, 0
1, 863219, Note_on_c, 0, 71, 74
1, 863294, Note_on_c, 0, 71, 0
1, 863294, Note_on_c, 0, 61, 0
1, 863294, Note_on_c, 0, 61, 75
1, 863369, Note_on_c, 0, 65, 71
1, 863443, Note_on_c, 0, 65, 0
1, 863443, Note_on_c, 0, 71, 72
1, 863518, Note_on_c, 0, 71, 0
1, 863518, Note_on_c, 0, 61, 0
1, 863518, Note_on_c, 0, 61, 75
1, 863593, Note_on_c, 0, 65, 80
1, 863631, Note_on_c, 0, 56, 0
1, 863631, Note_on_c, 0, 44, 0
1, 863631, Note_on_c, 0, 44, 101
1, 863634, Note_on_c, 0, 56, 88
1, 863684, Note_on_c, 0, 65, 0
1, 863684, Note_on_c, 0, 71, 75
1, 863791, Note_on_c, 0, 71, 0
1, 863791, Note_on_c, 0, 61, 0
1, 863791, Note_on_c, 0, 49, 105
1, 863794, Note_on_c, 0, 59, 88
1, 863804, Note_on_c, 0, 44, 0
1, 863804, Note_on_c, 0, 56, 0
1, 863871, Control_c, 0, 64, 0
1, 863871, Control_c, 0, 64, 0
1, 863871, Note_on_c, 0, 61, 78
1, 863952, Note_on_c, 0, 61, 0
1, 863952, Note_on_c, 0, 65, 74
1, 864032, Note_on_c, 0, 65, 0
1, 864032, Note_on_c, 0, 71, 71
1, 864049, Control_c, 0, 64, 127
1, 864049, Control_c, 0, 64, 127
1, 864112, Note_on_c, 0, 71, 0
1, 864112, Note_on_c, 0, 61, 78
1, 864187, Note_on_c, 0, 65, 70
1, 864262, Note_on_c, 0, 65, 0
1, 864262, Note_on_c, 0, 71, 76
1, 864337, Note_on_c, 0, 71, 0
1, 864337, Note_on_c, 0, 61, 0
1, 864337, Note_on_c, 0, 59, 0
1, 864340, Note_on_c, 0, 61, 70
1, 864412, Note_on_c, 0, 65, 80
1, 864486, Note_on_c, 0, 65, 0
1, 864486, Note_on_c, 0, 71, 75
1, 864561, Note_on_c, 0, 71, 0
1, 864561, Note_on_c, 0, 61, 0
1, 864561, Note_on_c, 0, 61, 78
1, 864636, Note_on_c, 0, 65, 71
1, 864711, Note_on_c, 0, 65, 0
1, 864711, Note_on_c, 0, 71, 78
1, 864786, Note_on_c, 0, 71, 0
1, 864786, Note_on_c, 0, 61, 0
1, 864786, Note_on_c, 0, 61, 80
1, 864861, Note_on_c, 0, 65, 70
1, 864936, Note_on_c, 0, 65, 0
1, 864936, Note_on_c, 0, 71, 70
1, 865011, Note_on_c, 0, 71, 0
1, 865011, Note_on_c, 0, 61, 0
1, 865011, Note_on_c, 0, 61, 78
1, 865086, Note_on_c, 0, 65, 75
1, 865160, Note_on_c, 0, 65, 0
1, 865160, Note_on_c, 0, 71, 70
1, 865235, Note_on_c, 0, 71, 0
1, 865235, Note_on_c, 0, 42, 79
1, 865235, Note_on_c, 0, 54, 67
1, 865238, Note_on_c, 0, 61, 0
1, 865238, Note_on_c, 0, 57, 88
1, 865244, Note_on_c, 0, 49, 0
1, 865290, Control_c, 0, 64, 0
1, 865290, Control_c, 0, 64, 0
1, 865290, Note_on_c, 0, 61, 73
1, 865348, Note_on_c, 0, 61, 0
1, 865348, Note_on_c, 0, 66, 70
1, 865404, Note_on_c, 0, 66, 0
1, 865404, Note_on_c, 0, 69, 73
1, 865439, Control_c, 0, 64, 127
1, 865439, Control_c, 0, 64, 127
1, 865460, Note_on_c, 0, 69, 0
1, 865460, Note_on_c, 0, 61, 73
1, 865535, Note_on_c, 0, 66, 76
1, 865610, Note_on_c, 0, 66, 0
1, 865610, Note_on_c, 0, 69, 71
1, 865685, Note_on_c, 0, 69, 0
1, 865685, Note_on_c, 0, 61, 0
1, 865685, Note_on_c, 0, 57, 0
1, 865688, Note_on_c, 0, 61, 74
1, 865760, Note_on_c, 0, 66, 66
1, 865834, Note_on_c, 0, 66, 0
1, 865834, Note_on_c, 0, 69, 71
1, 865909, Note_on_c, 0, 69, 0
1, 865909, Note_on_c, 0, 61, 0
1, 865909, Note_on_c, 0, 61, 72
1, 865984, Note_on_c, 0, 66, 67
1, 866059, Note_on_c, 0, 66, 0
1, 866059, Note_on_c, 0, 69, 69
1, 866134, Note_on_c, 0, 69, 0
1, 866134, Note_on_c, 0, 61, 0
1, 866134, Note_on_c, 0, 61, 66
1, 866209, Note_on_c, 0, 66, 64
1, 866284, Note_on_c, 0, 66, 0
1, 866284, Note_on_c, 0, 69, 62
1, 866344, Control_c, 0, 64, 127
1, 866344, Control_c, 0, 64, 127
1, 866359, Note_on_c, 0, 69, 0
1, 866359, Note_on_c, 0, 61, 0
1, 866359, Note_on_c, 0, 61, 68
1, 866434, Note_on_c, 0, 66, 60
1, 866508, Note_on_c, 0, 69, 66
1, 866583, Note_on_c, 0, 42, 0
1, 866583, Note_on_c, 0, 54, 0
1, 866596, Note_on_c, 0, 66, 0
1, 866639, Control_c, 0, 64, 0
1, 866639, Note_on_c, 0, 70, 77
1, 866639, Control_c, 0, 64, 0
1, 866679, Note_on_c, 0, 61, 0
1, 866679, Note_on_c, 0, 69, 0
1, 866710, Control_c, 0, 64, 0
1, 866710, Note_on_c, 0, 68, 90
1, 866710, Control_c, 0, 64, 0
1, 866713, Note_on_c, 0, 44, 73
1, 866721, Note_on_c, 0, 70, 0
1, 866794, Control_c, 0, 64, 127
1, 866794, Control_c, 0, 64, 127
1, 866850, Note_on_c, 0, 51, 66
1, 866975, Note_on_c, 0, 51, 0
1, 866975, Note_on_c, 0, 68, 0
1, 866975, Note_on_c, 0, 54, 66
1, 867100, Note_on_c, 0, 54, 0
1, 867100, Note_on_c, 0, 67, 86
1, 867100, Note_on_c, 0, 60, 66
1, 867224, Note_on_c, 0, 60, 0
1, 867224, Note_on_c, 0, 68, 86
1, 867224, Note_on_c, 0, 63, 66
1, 867234, Note_on_c, 0, 67, 0
1, 867255, Control_c, 0, 64, 0
1, 867255, Control_c, 0, 64, 0
1, 867349, Note_on_c, 0, 63, 0
1, 867349, Note_on_c, 0, 60, 66
1, 867391, Control_c, 0, 64, 127
1, 867391, Control_c, 0, 64, 127
1, 867474, Note_on_c, 0, 60, 0
1, 867474, Note_on_c, 0, 54, 66
1, 867599, Note_on_c, 0, 54, 0
1, 867599, Note_on_c, 0, 51, 66
1, 867724, Note_on_c, 0, 51, 0
1, 867724, Note_on_c, 0, 44, 0
1, 867724, Note_on_c, 0, 44, 73
1, 867848, Note_on_c, 0, 51, 66
1, 867973, Note_on_c, 0, 51, 0
1, 867973, Note_on_c, 0, 70, 88
1, 867973, Note_on_c, 0, 54, 66
1, 867983, Note_on_c, 0, 68, 0
1, 868098, Note_on_c, 0, 54, 0
1, 868098, Note_on_c, 0, 60, 66
1, 868223, Note_on_c, 0, 44, 0
1, 868223, Note_on_c, 0, 72, 89
1, 868223, Note_on_c, 0, 44, 73
1, 868226, Note_on_c, 0, 60, 0
1, 868235, Note_on_c, 0, 70, 0
1, 868242, Control_c, 0, 64, 0
1, 868242, Control_c, 0, 64, 0
1, 868383, Note_on_c, 0, 51, 66
1, 868439, Control_c, 0, 64, 127
1, 868439, Control_c, 0, 64, 127
1, 868544, Note_on_c, 0, 51, 0
1, 868544, Note_on_c, 0, 73, 91
1, 868544, Note_on_c, 0, 54, 66
1, 868553, Note_on_c, 0, 72, 0
1, 868668, Note_on_c, 0, 54, 0
1, 868668, Note_on_c, 0, 60, 66
1, 868793, Note_on_c, 0, 60, 0
1, 868793, Note_on_c, 0, 75, 92
1, 868793, Note_on_c, 0, 63, 66
1, 868803, Note_on_c, 0, 73, 0
1, 868918, Note_on_c, 0, 63, 0
1, 868918, Note_on_c, 0, 60, 66
1, 869043, Note_on_c, 0, 60, 0
1, 869043, Note_on_c, 0, 77, 95
1, 869043, Note_on_c, 0, 54, 66
1, 869053, Note_on_c, 0, 75, 0
1, 869168, Note_on_c, 0, 54, 0
1, 869168, Note_on_c, 0, 51, 66
1, 869257, Control_c, 0, 64, 0
1, 869257, Control_c, 0, 64, 0
1, 869292, Note_on_c, 0, 44, 0
1, 869292, Note_on_c, 0, 78, 96
1, 869292, Note_on_c, 0, 44, 73
1, 869295, Note_on_c, 0, 51, 0
1, 869302, Note_on_c, 0, 77, 0
1, 869364, Control_c, 0, 64, 127
1, 869364, Control_c, 0, 64, 127
1, 869417, Note_on_c, 0, 51, 66
1, 869542, Note_on_c, 0, 51, 0
1, 869542, Note_on_c, 0, 80, 97
1, 869542, Note_on_c, 0, 54, 66
1, 869555, Note_on_c, 0, 78, 0
1, 869703, Note_on_c, 0, 54, 0
1, 869703, Note_on_c, 0, 60, 66
1, 869863, Note_on_c, 0, 44, 0
1, 869863, Note_on_c, 0, 81, 99
1, 869863, Note_on_c, 0, 44, 73
1, 869866, Note_on_c, 0, 60, 0
1, 869876, Note_on_c, 0, 80, 0
1, 869882, Control_c, 0, 64, 0
1, 869882, Control_c, 0, 64, 0
1, 870023, Note_on_c, 0, 51, 66
1, 870050, Control_c, 0, 64, 127
1, 870050, Control_c, 0, 64, 127
1, 870148, Note_on_c, 0, 51, 0
1, 870148, Note_on_c, 0, 54, 66
1, 870273, Note_on_c, 0, 54, 0
1, 870273, Note_on_c, 0, 60, 66
1, 870398, Note_on_c, 0, 60, 0
1, 870398, Note_on_c, 0, 63, 66
1, 870523, Note_on_c, 0, 63, 0
1, 870523, Note_on_c, 0, 60, 66
1, 870647, Note_on_c, 0, 60, 0
1, 870647, Note_on_c, 0, 82, 95
1, 870647, Note_on_c, 0, 54, 66
1, 870660, Note_on_c, 0, 81, 0
1, 870808, Note_on_c, 0, 54, 0
1, 870808, Note_on_c, 0, 51, 66
1, 870968, Note_on_c, 0, 44, 0
1, 870968, Note_on_c, 0, 84, 96
1, 870968, Note_on_c, 0, 44, 73
1, 870971, Note_on_c, 0, 51, 0
1, 870982, Note_on_c, 0, 82, 0
1, 870989, Control_c, 0, 64, 0
1, 870989, Control_c, 0, 64, 0
1, 871141, Note_on_c, 0, 51, 66
1, 871199, Control_c, 0, 64, 127
1, 871199, Control_c, 0, 64, 127
1, 871314, Note_on_c, 0, 51, 0
1, 871314, Note_on_c, 0, 82, 88
1, 871314, Note_on_c, 0, 54, 66
1, 871330, Note_on_c, 0, 84, 0
1, 871480, Control_c, 0, 64, 0
1, 871480, Control_c, 0, 64, 0
1, 871518, Note_on_c, 0, 54, 0
1, 871518, Note_on_c, 0, 82, 0
1, 871518, Note_on_c, 0, 82, 82
1, 871521, Note_on_c, 0, 60, 66
1, 871565, Control_c, 0, 64, 127
1, 871565, Control_c, 0, 64, 127
1, 871571, Note_on_c, 0, 75, 83
1, 871625, Note_on_c, 0, 70, 83
1, 871679, Note_on_c, 0, 44, 0
1, 871679, Note_on_c, 0, 63, 83
1, 871679, Note_on_c, 0, 44, 73
1, 871682, Note_on_c, 0, 60, 0
1, 871839, Note_on_c, 0, 51, 66
1, 871971, Note_on_c, 0, 51, 0
1, 871971, Note_on_c, 0, 54, 66
1, 872103, Note_on_c, 0, 54, 0
1, 872103, Note_on_c, 0, 60, 66
1, 872236, Note_on_c, 0, 60, 0
1, 872236, Note_on_c, 0, 63, 66
1, 872360, Note_on_c, 0, 63, 0
1, 872360, Note_on_c, 0, 60, 66
1, 872485, Note_on_c, 0, 60, 0
1, 872485, Note_on_c, 0, 54, 66
1, 872610, Note_on_c, 0, 54, 0
1, 872610, Note_on_c, 0, 51, 66
1, 872735, Note_on_c, 0, 51, 0
1, 872735, Note_on_c, 0, 44, 0
1, 872735, Note_on_c, 0, 44, 73
1, 872860, Note_on_c, 0, 51, 66
1, 872984, Note_on_c, 0, 51, 0
1, 872984, Note_on_c, 0, 54, 66
1, 873099, Control_c, 0, 64, 0
1, 873099, Control_c, 0, 64, 0
1, 873109, Note_on_c, 0, 54, 0
1, 873109, Note_on_c, 0, 60, 66
1, 873172, Note_on_c, 0, 75, 87
1, 873204, Control_c, 0, 64, 0
1, 873204, Control_c, 0, 64, 0
1, 873234, Note_on_c, 0, 63, 0
1, 873234, Control_c, 0, 64, 0
1, 873234, Control_c, 0, 64, 0
1, 873237, Note_on_c, 0, 70, 0
1, 873237, Note_on_c, 0, 82, 0
1, 873237, Note_on_c, 0, 75, 0
1, 873240, Note_on_c, 0, 75, 0
1, 873240, Note_on_c, 0, 73, 97
1, 873240, Control_c, 0, 64, 0
1, 873243, Note_on_c, 0, 44, 0
1, 873243, Control_c, 0, 64, 0
1, 873243, Control_c, 0, 64, 0
1, 873246, Note_on_c, 0, 60, 0
1, 873246, Note_on_c, 0, 44, 73
1, 873309, Control_c, 0, 64, 127
1, 873309, Control_c, 0, 64, 127
1, 873359, Note_on_c, 0, 49, 67
1, 873484, Note_on_c, 0, 49, 0
1, 873484, Note_on_c, 0, 73, 0
1, 873484, Note_on_c, 0, 53, 67
1, 873608, Note_on_c, 0, 53, 0
1, 873608, Note_on_c, 0, 72, 93
1, 873608, Note_on_c, 0, 59, 68
1, 873733, Note_on_c, 0, 59, 0
1, 873733, Note_on_c, 0, 73, 93
1, 873733, Note_on_c, 0, 61, 68
1, 873743, Note_on_c, 0, 72, 0
1, 873763, Control_c, 0, 64, 0
1, 873763, Control_c, 0, 64, 0
1, 873858, Note_on_c, 0, 61, 0
1, 873858, Note_on_c, 0, 59, 68
1, 873899, Control_c, 0, 64, 127
1, 873899, Control_c, 0, 64, 127
1, 873983, Note_on_c, 0, 59, 0
1, 873983, Note_on_c, 0, 53, 69
1, 874108, Note_on_c, 0, 53, 0
1, 874108, Note_on_c, 0, 49, 69
1, 874232, Note_on_c, 0, 44, 0
1, 874232, Note_on_c, 0, 61, 82
1, 874232, Note_on_c, 0, 44, 75
1, 874235, Note_on_c, 0, 49, 0
1, 874357, Note_on_c, 0, 49, 69
1, 874482, Note_on_c, 0, 49, 0
1, 874482, Note_on_c, 0, 63, 83
1, 874482, Note_on_c, 0, 75, 95
1, 874485, Note_on_c, 0, 53, 69
1, 874492, Note_on_c, 0, 73, 0
1, 874492, Note_on_c, 0, 61, 0
1, 874607, Note_on_c, 0, 53, 0
1, 874607, Note_on_c, 0, 59, 70
1, 874732, Note_on_c, 0, 44, 0
1, 874732, Note_on_c, 0, 65, 84
1, 874732, Note_on_c, 0, 77, 96
1, 874735, Note_on_c, 0, 59, 0
1, 874735, Note_on_c, 0, 44, 77
1, 874744, Note_on_c, 0, 63, 0
1, 874744, Note_on_c, 0, 75, 0
1, 874751, Control_c, 0, 64, 0
1, 874751, Control_c, 0, 64, 0
1, 874892, Note_on_c, 0, 49, 70
1, 874948, Control_c, 0, 64, 127
1, 874948, Control_c, 0, 64, 127
1, 875052, Note_on_c, 0, 49, 0
1, 875052, Note_on_c, 0, 66, 86
1, 875052, Note_on_c, 0, 78, 98
1, 875055, Note_on_c, 0, 53, 71
1, 875062, Note_on_c, 0, 77, 0
1, 875062, Note_on_c, 0, 65, 0
1, 875177, Note_on_c, 0, 53, 0
1, 875177, Note_on_c, 0, 59, 71
1, 875302, Note_on_c, 0, 59, 0
1, 875302, Note_on_c, 0, 68, 87
1, 875302, Note_on_c, 0, 80, 99
1, 875305, Note_on_c, 0, 61, 71
1, 875312, Note_on_c, 0, 66, 0
1, 875312, Note_on_c, 0, 78, 0
1, 875427, Note_on_c, 0, 61, 0
1, 875427, Note_on_c, 0, 59, 71
1, 875552, Note_on_c, 0, 59, 0
1, 875552, Note_on_c, 0, 70, 90
1, 875552, Note_on_c, 0, 82, 102
1, 875555, Note_on_c, 0, 53, 71
1, 875561, Note_on_c, 0, 80, 0
1, 875561, Note_on_c, 0, 68, 0
1, 875676, Note_on_c, 0, 53, 0
1, 875676, Note_on_c, 0, 49, 72
1, 875766, Control_c, 0, 64, 0
1, 875766, Control_c, 0, 64, 0
1, 875801, Note_on_c, 0, 44, 0
1, 875801, Note_on_c, 0, 71, 91
1, 875801, Note_on_c, 0, 83, 103
1, 875804, Note_on_c, 0, 49, 0
1, 875804, Note_on_c, 0, 44, 79
1, 875812, Note_on_c, 0, 70, 0
1, 875812, Note_on_c, 0, 82, 0
1, 875877, Control_c, 0, 64, 127
1, 875877, Control_c, 0, 64, 127
1, 875933, Note_on_c, 0, 49, 72
1, 876066, Note_on_c, 0, 49, 0
1, 876066, Note_on_c, 0, 73, 92
1, 876066, Note_on_c, 0, 85, 104
1, 876069, Note_on_c, 0, 53, 73
1, 876078, Note_on_c, 0, 83, 0
1, 876078, Note_on_c, 0, 71, 0
1, 876226, Note_on_c, 0, 53, 0
1, 876226, Note_on_c, 0, 59, 73
1, 876386, Note_on_c, 0, 44, 0
1, 876386, Note_on_c, 0, 74, 94
1, 876386, Note_on_c, 0, 86, 106
1, 876389, Note_on_c, 0, 59, 0
1, 876389, Note_on_c, 0, 44, 80
1, 876399, Note_on_c, 0, 73, 0
1, 876399, Note_on_c, 0, 85, 0
1, 876406, Control_c, 0, 64, 0
1, 876406, Control_c, 0, 64, 0
1, 876547, Note_on_c, 0, 49, 73
1, 876573, Control_c, 0, 64, 127
1, 876573, Control_c, 0, 64, 127
1, 876672, Note_on_c, 0, 49, 0
1, 876672, Note_on_c, 0, 53, 73
1, 876796, Note_on_c, 0, 53, 0
1, 876796, Note_on_c, 0, 59, 73
1, 876921, Note_on_c, 0, 59, 0
1, 876921, Note_on_c, 0, 61, 73
1, 877046, Note_on_c, 0, 61, 0
1, 877046, Note_on_c, 0, 59, 73
1, 877171, Note_on_c, 0, 59, 0
1, 877171, Note_on_c, 0, 75, 88
1, 877171, Note_on_c, 0, 87, 100
1, 877174, Note_on_c, 0, 53, 73
1, 877183, Note_on_c, 0, 86, 0
1, 877183, Note_on_c, 0, 74, 0
1, 877321, Note_on_c, 0, 53, 0
1, 877321, Note_on_c, 0, 49, 73
1, 877470, Note_on_c, 0, 44, 0
1, 877470, Note_on_c, 0, 77, 89
1, 877470, Note_on_c, 0, 89, 101
1, 877473, Note_on_c, 0, 49, 0
1, 877473, Note_on_c, 0, 44, 80
1, 877485, Note_on_c, 0, 75, 0
1, 877485, Note_on_c, 0, 87, 0
1, 877493, Control_c, 0, 64, 0
1, 877493, Control_c, 0, 64, 0
1, 877658, Note_on_c, 0, 49, 73
1, 877720, Control_c, 0, 64, 127
1, 877720, Control_c, 0, 64, 127
1, 877845, Note_on_c, 0, 49, 0
1, 877845, Note_on_c, 0, 75, 81
1, 877845, Note_on_c, 0, 87, 93
1, 877848, Note_on_c, 0, 53, 73
1, 877861, Note_on_c, 0, 89, 0
1, 877861, Note_on_c, 0, 77, 0
1, 878011, Control_c, 0, 64, 0
1, 878011, Control_c, 0, 64, 0
1, 878049, Note_on_c, 0, 87, 0
1, 878049, Note_on_c, 0, 75, 0
1, 878049, Note_on_c, 0, 87, 87
1, 878052, Note_on_c, 0, 53, 0
1, 878052, Note_on_c, 0, 59, 73
1, 878108, Control_c, 0, 64, 127
1, 878108, Control_c, 0, 64, 127
1, 878117, Note_on_c, 0, 80, 83
1, 878185, Note_on_c, 0, 75, 83
1, 878253, Note_on_c, 0, 44, 0
1, 878253, Note_on_c, 0, 68, 83
1, 878253, Note_on_c, 0, 44, 80
1, 878256, Note_on_c, 0, 59, 0
1, 878457, Note_on_c, 0, 49, 65
1, 878598, Note_on_c, 0, 49, 0
1, 878598, Note_on_c, 0, 53, 64
1, 878738, Note_on_c, 0, 53, 0
1, 878738, Note_on_c, 0, 59, 64
1, 878879, Note_on_c, 0, 59, 0
1, 878879, Note_on_c, 0, 61, 63
1, 879003, Note_on_c, 0, 61, 0
1, 879003, Note_on_c, 0, 59, 62
1, 879128, Note_on_c, 0, 59, 0
1, 879128, Note_on_c, 0, 53, 62
1, 879253, Note_on_c, 0, 53, 0
1, 879253, Note_on_c, 0, 49, 61
1, 879378, Note_on_c, 0, 49, 0
1, 879378, Note_on_c, 0, 44, 0
1, 879378, Note_on_c, 0, 44, 73
1, 879503, Note_on_c, 0, 49, 60
1, 879627, Note_on_c, 0, 49, 0
1, 879627, Note_on_c, 0, 53, 59
1, 879742, Control_c, 0, 64, 0
1, 879742, Control_c, 0, 64, 0
1, 879752, Note_on_c, 0, 53, 0
1, 879752, Note_on_c, 0, 59, 58
1, 879847, Control_c, 0, 64, 0
1, 879847, Control_c, 0, 64, 0
1, 879877, Note_on_c, 0, 75, 0
1, 879877, Note_on_c, 0, 68, 0
1, 879877, Control_c, 0, 64, 0
1, 879880, Note_on_c, 0, 80, 0
1, 879880, Note_on_c, 0, 87, 0
1, 879880, Note_on_c, 0, 70, 96
1, 879883, Note_on_c, 0, 73, 96
1, 879883, Note_on_c, 0, 78, 96
1, 879883, Note_on_c, 0, 82, 112
1, 879886, Note_on_c, 0, 59, 0
1, 879886, Note_on_c, 0, 44, 0
1, 879886, Control_c, 0, 64, 0
1, 879889, Note_on_c, 0, 42, 77
1, 880021, Note_on_c, 0, 73, 0
1, 880021, Note_on_c, 0, 73, 82
1, 880021, Note_on_c, 0, 85, 97
1, 880093, Note_on_c, 0, 49, 66
1, 880104, Control_c, 0, 64, 127
1, 880104, Control_c, 0, 64, 127
1, 880218, Note_on_c, 0, 49, 0
1, 880218, Note_on_c, 0, 54, 66
1, 880284, Control_c, 0, 64, 127
1, 880284, Control_c, 0, 64, 127
1, 880343, Note_on_c, 0, 54, 0
1, 880343, Note_on_c, 0, 56, 66
1, 880467, Note_on_c, 0, 56, 0
1, 880467, Note_on_c, 0, 58, 66
1, 880592, Note_on_c, 0, 58, 0
1, 880592, Note_on_c, 0, 56, 66
1, 880717, Note_on_c, 0, 56, 0
1, 880717, Note_on_c, 0, 58, 66
1, 880842, Note_on_c, 0, 58, 0
1, 880842, Note_on_c, 0, 56, 66
1, 880967, Note_on_c, 0, 56, 0
1, 880967, Note_on_c, 0, 58, 66
1, 881091, Note_on_c, 0, 58, 0
1, 881091, Note_on_c, 0, 56, 66
1, 881216, Note_on_c, 0, 56, 0
1, 881216, Note_on_c, 0, 54, 66
1, 881341, Note_on_c, 0, 54, 0
1, 881341, Note_on_c, 0, 49, 66
1, 881466, Note_on_c, 0, 73, 0
1, 881466, Note_on_c, 0, 78, 0
1, 881466, Note_on_c, 0, 70, 0
1, 881469, Note_on_c, 0, 82, 0
1, 881469, Note_on_c, 0, 85, 0
1, 881469, Note_on_c, 0, 66, 86
1, 881472, Note_on_c, 0, 70, 86
1, 881472, Note_on_c, 0, 73, 86
1, 881472, Note_on_c, 0, 78, 110
1, 881475, Note_on_c, 0, 42, 0
1, 881475, Note_on_c, 0, 49, 0
1, 881475, Note_on_c, 0, 42, 77
1, 881492, Control_c, 0, 64, 0
1, 881492, Control_c, 0, 64, 0
1, 881492, Control_c, 0, 64, 0
1, 881495, Control_c, 0, 64, 0
1, 881495, Control_c, 0, 64, 0
1, 881495, Control_c, 0, 64, 0
1, 881610, Note_on_c, 0, 70, 0
1, 881610, Note_on_c, 0, 70, 86
1, 881610, Note_on_c, 0, 82, 97
1, 881682, Note_on_c, 0, 49, 66
1, 881725, Control_c, 0, 64, 127
1, 881725, Control_c, 0, 64, 127
1, 881725, Control_c, 0, 64, 127
1, 881728, Control_c, 0, 64, 127
1, 881728, Control_c, 0, 64, 127
1, 881728, Control_c, 0, 64, 127
1, 881807, Note_on_c, 0, 49, 0
1, 881807, Note_on_c, 0, 54, 66
1, 881931, Note_on_c, 0, 54, 0
1, 881931, Note_on_c, 0, 56, 66
1, 882056, Note_on_c, 0, 56, 0
1, 882056, Note_on_c, 0, 58, 66
1, 882181, Note_on_c, 0, 58, 0
1, 882181, Note_on_c, 0, 56, 66
1, 882250, Control_c, 0, 64, 127
1, 882250, Control_c, 0, 64, 127
1, 882306, Note_on_c, 0, 56, 0
1, 882306, Note_on_c, 0, 58, 66
1, 882431, Note_on_c, 0, 58, 0
1, 882431, Note_on_c, 0, 56, 66
1, 882555, Note_on_c, 0, 56, 0
1, 882555, Note_on_c, 0, 58, 66
1, 882680, Note_on_c, 0, 58, 0
1, 882680, Note_on_c, 0, 56, 66
1, 882805, Note_on_c, 0, 56, 0
1, 882805, Note_on_c, 0, 54, 66
1, 882930, Note_on_c, 0, 54, 0
1, 882930, Note_on_c, 0, 49, 66
1, 883055, Note_on_c, 0, 70, 0
1, 883055, Note_on_c, 0, 73, 0
1, 883055, Note_on_c, 0, 66, 0
1, 883058, Note_on_c, 0, 78, 0
1, 883058, Note_on_c, 0, 82, 0
1, 883058, Note_on_c, 0, 61, 77
1, 883061, Note_on_c, 0, 66, 77
1, 883061, Note_on_c, 0, 70, 77
1, 883061, Note_on_c, 0, 73, 108
1, 883064, Note_on_c, 0, 42, 0
1, 883064, Note_on_c, 0, 49, 0
1, 883064, Note_on_c, 0, 42, 77
1, 883081, Control_c, 0, 64, 0
1, 883081, Control_c, 0, 64, 0
1, 883081, Control_c, 0, 64, 0
1, 883084, Control_c, 0, 64, 0
1, 883084, Control_c, 0, 64, 0
1, 883084, Control_c, 0, 64, 0
1, 883199, Note_on_c, 0, 66, 0
1, 883199, Note_on_c, 0, 66, 86
1, 883199, Note_on_c, 0, 78, 97
1, 883271, Note_on_c, 0, 49, 66
1, 883297, Control_c, 0, 64, 127
1, 883297, Control_c, 0, 64, 127
1, 883297, Control_c, 0, 64, 127
1, 883300, Control_c, 0, 64, 127
1, 883300, Control_c, 0, 64, 127
1, 883300, Control_c, 0, 64, 127
1, 883395, Note_on_c, 0, 49, 0
1, 883395, Note_on_c, 0, 54, 66
1, 883520, Note_on_c, 0, 54, 0
1, 883520, Note_on_c, 0, 56, 66
1, 883645, Note_on_c, 0, 56, 0
1, 883645, Note_on_c, 0, 58, 66
1, 883770, Note_on_c, 0, 58, 0
1, 883770, Note_on_c, 0, 56, 66
1, 883895, Note_on_c, 0, 56, 0
1, 883895, Note_on_c, 0, 58, 66
1, 884019, Note_on_c, 0, 58, 0
1, 884019, Note_on_c, 0, 56, 66
1, 884053, Control_c, 0, 64, 127
1, 884053, Control_c, 0, 64, 127
1, 884144, Note_on_c, 0, 56, 0
1, 884144, Note_on_c, 0, 58, 66
1, 884269, Note_on_c, 0, 58, 0
1, 884269, Note_on_c, 0, 56, 66
1, 884394, Note_on_c, 0, 56, 0
1, 884394, Note_on_c, 0, 54, 66
1, 884519, Note_on_c, 0, 54, 0
1, 884519, Note_on_c, 0, 49, 66
1, 884643, Note_on_c, 0, 66, 0
1, 884643, Note_on_c, 0, 70, 0
1, 884643, Note_on_c, 0, 61, 0
1, 884646, Note_on_c, 0, 73, 0
1, 884646, Note_on_c, 0, 78, 0
1, 884646, Note_on_c, 0, 63, 93
1, 884649, Note_on_c, 0, 66, 93
1, 884649, Note_on_c, 0, 69, 93
1, 884649, Note_on_c, 0, 72, 108
1, 884652, Note_on_c, 0, 42, 0
1, 884652, Note_on_c, 0, 75, 78
1, 884652, Note_on_c, 0, 42, 77
1, 884655, Note_on_c, 0, 49, 0
1, 884667, Control_c, 0, 64, 0
1, 884667, Control_c, 0, 64, 0
1, 884788, Note_on_c, 0, 66, 0
1, 884788, Note_on_c, 0, 66, 97
1, 884788, Note_on_c, 0, 78, 97
1, 884858, Control_c, 0, 64, 127
1, 884858, Control_c, 0, 64, 127
1, 884858, Note_on_c, 0, 49, 66
1, 884984, Note_on_c, 0, 49, 0
1, 884984, Note_on_c, 0, 54, 66
1, 885109, Note_on_c, 0, 54, 0
1, 885109, Note_on_c, 0, 56, 66
1, 885234, Note_on_c, 0, 56, 0
1, 885234, Note_on_c, 0, 57, 66
1, 885359, Note_on_c, 0, 57, 0
1, 885359, Note_on_c, 0, 56, 66
1, 885483, Note_on_c, 0, 56, 0
1, 885483, Note_on_c, 0, 57, 66
1, 885608, Note_on_c, 0, 57, 0
1, 885608, Note_on_c, 0, 56, 66
1, 885733, Note_on_c, 0, 56, 0
1, 885733, Note_on_c, 0, 57, 66
1, 885858, Note_on_c, 0, 57, 0
1, 885858, Note_on_c, 0, 56, 66
1, 885983, Note_on_c, 0, 56, 0
1, 885983, Note_on_c, 0, 54, 66
1, 886107, Note_on_c, 0, 54, 0
1, 886107, Note_on_c, 0, 49, 66
1, 886164, Control_c, 0, 64, 0
1, 886164, Control_c, 0, 64, 0
1, 886232, Note_on_c, 0, 63, 0
1, 886232, Control_c, 0, 64, 0
1, 886232, Control_c, 0, 64, 0
1, 886235, Note_on_c, 0, 72, 0
1, 886235, Note_on_c, 0, 69, 0
1, 886235, Note_on_c, 0, 66, 0
1, 886238, Note_on_c, 0, 78, 0
1, 886238, Note_on_c, 0, 75, 0
1, 886238, Note_on_c, 0, 65, 82
1, 886241, Note_on_c, 0, 68, 82
1, 886241, Note_on_c, 0, 73, 82
1, 886241, Note_on_c, 0, 77, 96
1, 886244, Note_on_c, 0, 42, 0
1, 886244, Control_c, 0, 64, 0
1, 886244, Control_c, 0, 64, 0
1, 886247, Note_on_c, 0, 49, 0
1, 886247, Note_on_c, 0, 37, 73
1, 886377, Note_on_c, 0, 68, 0
1, 886377, Note_on_c, 0, 68, 69
1, 886377, Note_on_c, 0, 80, 83
1, 886448, Note_on_c, 0, 44, 63
1, 886459, Control_c, 0, 64, 127
1, 886459, Control_c, 0, 64, 127
1, 886573, Note_on_c, 0, 44, 0
1, 886573, Note_on_c, 0, 49, 62
1, 886639, Control_c, 0, 64, 127
1, 886639, Control_c, 0, 64, 127
1, 886698, Note_on_c, 0, 49, 0
1, 886698, Note_on_c, 0, 51, 62
1, 886823, Note_on_c, 0, 51, 0
1, 886823, Note_on_c, 0, 53, 62
1, 886947, Note_on_c, 0, 53, 0
1, 886947, Note_on_c, 0, 51, 62
1, 887072, Note_on_c, 0, 51, 0
1, 887072, Note_on_c, 0, 53, 62
1, 887197, Note_on_c, 0, 53, 0
1, 887197, Note_on_c, 0, 51, 62
1, 887322, Note_on_c, 0, 51, 0
1, 887322, Note_on_c, 0, 53, 62
1, 887447, Note_on_c, 0, 53, 0
1, 887447, Note_on_c, 0, 51, 61
1, 887571, Note_on_c, 0, 51, 0
1, 887571, Note_on_c, 0, 49, 61
1, 887696, Note_on_c, 0, 49, 0
1, 887696, Note_on_c, 0, 44, 61
1, 887821, Note_on_c, 0, 68, 0
1, 887821, Note_on_c, 0, 73, 0
1, 887821, Note_on_c, 0, 65, 0
1, 887824, Note_on_c, 0, 77, 0
1, 887824, Note_on_c, 0, 80, 0
1, 887824, Note_on_c, 0, 61, 71
1, 887827, Note_on_c, 0, 65, 71
1, 887827, Note_on_c, 0, 68, 71
1, 887827, Note_on_c, 0, 73, 91
1, 887830, Note_on_c, 0, 37, 0
1, 887830, Note_on_c, 0, 44, 0
1, 887830, Note_on_c, 0, 37, 70
1, 887847, Control_c, 0, 64, 0
1, 887847, Control_c, 0, 64, 0
1, 887847, Control_c, 0, 64, 0
1, 887850, Control_c, 0, 64, 0
1, 887850, Control_c, 0, 64, 0
1, 887850, Control_c, 0, 64, 0
1, 887965, Note_on_c, 0, 65, 0
1, 887965, Note_on_c, 0, 65, 71
1, 887965, Note_on_c, 0, 77, 80
1, 888037, Note_on_c, 0, 44, 61
1, 888080, Control_c, 0, 64, 127
1, 888080, Control_c, 0, 64, 127
1, 888080, Control_c, 0, 64, 127
1, 888083, Control_c, 0, 64, 127
1, 888083, Control_c, 0, 64, 127
1, 888083, Control_c, 0, 64, 127
1, 888162, Note_on_c, 0, 44, 0
1, 888162, Note_on_c, 0, 49, 61
1, 888287, Note_on_c, 0, 49, 0
1, 888287, Note_on_c, 0, 51, 61
1, 888411, Note_on_c, 0, 51, 0
1, 888411, Note_on_c, 0, 53, 60
1, 888536, Note_on_c, 0, 53, 0
1, 888536, Note_on_c, 0, 51, 60
1, 888605, Control_c, 0, 64, 127
1, 888605, Control_c, 0, 64, 127
1, 888661, Note_on_c, 0, 51, 0
1, 888661, Note_on_c, 0, 53, 60
1, 888786, Note_on_c, 0, 53, 0
1, 888786, Note_on_c, 0, 51, 60
1, 888911, Note_on_c, 0, 51, 0
1, 888911, Note_on_c, 0, 53, 60
1, 889035, Note_on_c, 0, 53, 0
1, 889035, Note_on_c, 0, 51, 60
1, 889160, Note_on_c, 0, 51, 0
1, 889160, Note_on_c, 0, 49, 60
1, 889285, Note_on_c, 0, 49, 0
1, 889285, Note_on_c, 0, 44, 59
1, 889410, Note_on_c, 0, 65, 0
1, 889410, Note_on_c, 0, 68, 0
1, 889410, Note_on_c, 0, 61, 0
1, 889413, Note_on_c, 0, 73, 0
1, 889413, Note_on_c, 0, 77, 0
1, 889413, Note_on_c, 0, 56, 62
1, 889416, Note_on_c, 0, 61, 62
1, 889416, Note_on_c, 0, 65, 62
1, 889416, Note_on_c, 0, 68, 87
1, 889419, Note_on_c, 0, 37, 0
1, 889419, Note_on_c, 0, 44, 0
1, 889419, Note_on_c, 0, 37, 68
1, 889436, Control_c, 0, 64, 0
1, 889436, Control_c, 0, 64, 0
1, 889436, Control_c, 0, 64, 0
1, 889439, Control_c, 0, 64, 0
1, 889439, Control_c, 0, 64, 0
1, 889439, Control_c, 0, 64, 0
1, 889554, Note_on_c, 0, 61, 0
1, 889554, Note_on_c, 0, 61, 69
1, 889554, Note_on_c, 0, 73, 78
1, 889626, Note_on_c, 0, 44, 59
1, 889652, Control_c, 0, 64, 127
1, 889652, Control_c, 0, 64, 127
1, 889652, Control_c, 0, 64, 127
1, 889655, Control_c, 0, 64, 127
1, 889655, Control_c, 0, 64, 127
1, 889655, Control_c, 0, 64, 127
1, 889751, Note_on_c, 0, 44, 0
1, 889751, Note_on_c, 0, 49, 59
1, 889875, Note_on_c, 0, 49, 0
1, 889875, Note_on_c, 0, 51, 59
1, 890000, Note_on_c, 0, 51, 0
1, 890000, Note_on_c, 0, 53, 59
1, 890125, Note_on_c, 0, 53, 0
1, 890125, Note_on_c, 0, 51, 59
1, 890250, Note_on_c, 0, 51, 0
1, 890250, Note_on_c, 0, 53, 58
1, 890375, Note_on_c, 0, 53, 0
1, 890375, Note_on_c, 0, 51, 58
1, 890408, Control_c, 0, 64, 127
1, 890408, Control_c, 0, 64, 127
1, 890499, Note_on_c, 0, 51, 0
1, 890499, Note_on_c, 0, 53, 58
1, 890624, Note_on_c, 0, 53, 0
1, 890624, Note_on_c, 0, 51, 58
1, 890749, Note_on_c, 0, 51, 0
1, 890749, Note_on_c, 0, 49, 58
1, 890874, Note_on_c, 0, 49, 0
1, 890874, Note_on_c, 0, 44, 58
1, 890999, Note_on_c, 0, 61, 0
1, 890999, Note_on_c, 0, 65, 0
1, 890999, Note_on_c, 0, 56, 0
1, 891002, Note_on_c, 0, 68, 0
1, 891002, Note_on_c, 0, 73, 0
1, 891002, Note_on_c, 0, 53, 73
1, 891005, Note_on_c, 0, 56, 73
1, 891005, Note_on_c, 0, 61, 73
1, 891005, Note_on_c, 0, 65, 85
1, 891008, Note_on_c, 0, 37, 0
1, 891008, Note_on_c, 0, 44, 0
1, 891008, Note_on_c, 0, 37, 66
1, 891022, Control_c, 0, 64, 0
1, 891022, Control_c, 0, 64, 0
1, 891143, Note_on_c, 0, 56, 0
1, 891143, Note_on_c, 0, 56, 76
1, 891143, Note_on_c, 0, 68, 76
1, 891213, Control_c, 0, 64, 127
1, 891213, Control_c, 0, 64, 127
1, 891213, Note_on_c, 0, 44, 58
1, 891339, Note_on_c, 0, 44, 0
1, 891339, Note_on_c, 0, 49, 57
1, 891464, Note_on_c, 0, 49, 0
1, 891464, Note_on_c, 0, 51, 57
1, 891589, Note_on_c, 0, 51, 0
1, 891589, Note_on_c, 0, 53, 57
1, 891714, Note_on_c, 0, 53, 0
1, 891714, Note_on_c, 0, 51, 57
1, 891839, Note_on_c, 0, 51, 0
1, 891839, Note_on_c, 0, 53, 57
1, 891963, Note_on_c, 0, 53, 0
1, 891963, Note_on_c, 0, 51, 57
1, 892088, Note_on_c, 0, 51, 0
1, 892088, Note_on_c, 0, 53, 57
1, 892213, Note_on_c, 0, 53, 0
1, 892213, Note_on_c, 0, 51, 56
1, 892338, Note_on_c, 0, 51, 0
1, 892338, Note_on_c, 0, 49, 56
1, 892463, Note_on_c, 0, 49, 0
1, 892463, Note_on_c, 0, 44, 56
1, 892519, Control_c, 0, 64, 0
1, 892519, Control_c, 0, 64, 0
1, 892587, Note_on_c, 0, 56, 0
1, 892587, Note_on_c, 0, 61, 0
1, 892587, Note_on_c, 0, 53, 0
1, 892590, Note_on_c, 0, 65, 0
1, 892590, Note_on_c, 0, 68, 0
1, 892590, Note_on_c, 0, 53, 54
1, 892593, Note_on_c, 0, 56, 54
1, 892593, Note_on_c, 0, 61, 54
1, 892593, Note_on_c, 0, 65, 77
1, 892596, Note_on_c, 0, 37, 0
1, 892596, Note_on_c, 0, 44, 0
1, 892596, Note_on_c, 0, 37, 68
1, 892712, Note_on_c, 0, 44, 58
1, 892792, Control_c, 0, 64, 127
1, 892792, Control_c, 0, 64, 127
1, 892837, Note_on_c, 0, 44, 0
1, 892837, Note_on_c, 0, 46, 58
1, 892966, Note_on_c, 0, 46, 0
1, 892966, Note_on_c, 0, 44, 58
1, 893095, Note_on_c, 0, 44, 0
1, 893095, Note_on_c, 0, 46, 58
1, 893229, Note_on_c, 0, 46, 0
1, 893229, Note_on_c, 0, 44, 58
1, 893363, Note_on_c, 0, 44, 0
1, 893363, Note_on_c, 0, 46, 58
1, 893501, Note_on_c, 0, 46, 0
1, 893501, Note_on_c, 0, 44, 58
1, 893640, Note_on_c, 0, 44, 0
1, 893640, Note_on_c, 0, 46, 58
1, 893786, Note_on_c, 0, 46, 0
1, 893786, Note_on_c, 0, 44, 58
1, 893932, Note_on_c, 0, 44, 0
1, 893932, Note_on_c, 0, 46, 58
1, 894084, Note_on_c, 0, 46, 0
1, 894084, Note_on_c, 0, 44, 58
1, 894235, Note_on_c, 0, 44, 0
1, 894235, Note_on_c, 0, 46, 58
1, 894394, Note_on_c, 0, 46, 0
1, 894394, Note_on_c, 0, 44, 58
1, 894552, Note_on_c, 0, 44, 0
1, 894552, Note_on_c, 0, 46, 58
1, 894717, Note_on_c, 0, 46, 0
1, 894717, Note_on_c, 0, 44, 58
1, 894882, Note_on_c, 0, 44, 0
1, 894882, Note_on_c, 0, 46, 58
1, 895058, Note_on_c, 0, 46, 0
1, 895058, Note_on_c, 0, 44, 58
1, 895233, Note_on_c, 0, 44, 0
1, 895233, Note_on_c, 0, 46, 58
1, 895409, Note_on_c, 0, 46, 0
1, 895409, Note_on_c, 0, 44, 58
1, 895584, Note_on_c, 0, 44, 0
1, 895584, Note_on_c, 0, 46, 58
1, 895760, Note_on_c, 0, 46, 0
1, 895760, Note_on_c, 0, 44, 58
1, 895935, Note_on_c, 0, 44, 0
1, 895935, Note_on_c, 0, 46, 58
1, 896139, Note_on_c, 0, 46, 0
1, 896139, Note_on_c, 0, 44, 55
1, 896420, Note_on_c, 0, 44, 0
1, 896420, Note_on_c, 0, 44, 51
1, 896522, Note_on_c, 0, 44, 0
1, 896522, Control_c, 0, 64, 0
1, 896522, Control_c, 0, 64, 0
1, 896525, Note_on_c, 0, 49, 51
1, 897042, Control_c, 0, 64, 127
1, 897042, Control_c, 0, 64, 127
1, 897135, Note_on_c, 0, 49, 0
1, 897339, Note_on_c, 0, 53, 0
1, 897339, Note_on_c, 0, 56, 0
1, 897339, Note_on_c, 0, 61, 0
1, 897342, Note_on_c, 0, 65, 0
1, 897342, Note_on_c, 0, 37, 0
1, 902173, Control_c, 0, 64, 0
1, 902173, Control_c, 0, 64, 0
1, 904827, Control_c, 0, 64, 127
1, 904827, Control_c, 0, 64, 127
1, 904827, Note_on_c, 0, 37, 99
1, 904835, Control_c, 0, 64, 0
1, 904835, Control_c, 0, 64, 0
1, 904914, Control_c, 0, 64, 127
1, 904914, Control_c, 0, 64, 127
1, 905412, Control_c, 0, 64, 127
1, 905412, Control_c, 0, 64, 127
1, 905529, Note_on_c, 0, 52, 92
1, 905583, Note_on_c, 0, 52, 0
1, 905583, Note_on_c, 0, 54, 92
1, 905637, Note_on_c, 0, 54, 0
1, 905637, Note_on_c, 0, 56, 92
1, 905691, Note_on_c, 0, 56, 0
1, 905691, Note_on_c, 0, 57, 115
1, 905744, Control_c, 0, 64, 0
1, 905744, Control_c, 0, 64, 0
1, 905841, Control_c, 0, 64, 127
1, 905841, Control_c, 0, 64, 127
1, 906339, Note_on_c, 0, 57, 0
1, 906339, Note_on_c, 0, 56, 92
1, 906411, Note_on_c, 0, 56, 0
1, 906411, Note_on_c, 0, 54, 92
1, 906483, Note_on_c, 0, 54, 0
1, 906483, Note_on_c, 0, 52, 92
1, 906555, Note_on_c, 0, 52, 0
1, 906555, Note_on_c, 0, 64, 99
1, 906581, Control_c, 0, 64, 0
1, 906581, Control_c, 0, 64, 0
1, 906677, Control_c, 0, 64, 127
1, 906677, Control_c, 0, 64, 127
1, 907203, Note_on_c, 0, 64, 0
1, 907203, Note_on_c, 0, 61, 99
1, 907257, Note_on_c, 0, 64, 92
1, 907311, Note_on_c, 0, 64, 0
1, 907311, Note_on_c, 0, 66, 92
1, 907365, Note_on_c, 0, 66, 0
1, 907365, Note_on_c, 0, 68, 92
1, 907419, Note_on_c, 0, 68, 0
1, 907419, Note_on_c, 0, 37, 0
1, 907419, Note_on_c, 0, 69, 115
1, 907422, Note_on_c, 0, 61, 0
1, 907422, Note_on_c, 0, 73, 115
1, 907445, Control_c, 0, 64, 0
1, 907445, Control_c, 0, 64, 0
1, 907576, Control_c, 0, 64, 127
1, 907576, Control_c, 0, 64, 127
1, 908067, Note_on_c, 0, 69, 0
1, 908067, Note_on_c, 0, 68, 92
1, 908139, Note_on_c, 0, 68, 0
1, 908139, Note_on_c, 0, 66, 92
1, 908211, Note_on_c, 0, 66, 0
1, 908211, Note_on_c, 0, 64, 92
1, 908276, Control_c, 0, 64, 0
1, 908276, Control_c, 0, 64, 0
1, 908295, Note_on_c, 0, 64, 0
1, 908295, Note_on_c, 0, 69, 88
1, 908336, Control_c, 0, 64, 127
1, 908336, Note_on_c, 0, 76, 113
1, 908336, Control_c, 0, 64, 127
1, 908339, Note_on_c, 0, 73, 0
1, 908339, Note_on_c, 0, 37, 99
1, 908344, Control_c, 0, 64, 0
1, 908344, Control_c, 0, 64, 0
1, 908423, Control_c, 0, 64, 127
1, 908423, Control_c, 0, 64, 127
1, 908920, Control_c, 0, 64, 127
1, 908920, Control_c, 0, 64, 127
1, 908984, Note_on_c, 0, 76, 0
1, 908984, Note_on_c, 0, 69, 0
1, 908984, Note_on_c, 0, 75, 99
1, 909038, Note_on_c, 0, 66, 92
1, 909092, Note_on_c, 0, 66, 0
1, 909092, Note_on_c, 0, 68, 92
1, 909146, Note_on_c, 0, 68, 0
1, 909146, Note_on_c, 0, 69, 99
1, 909200, Note_on_c, 0, 69, 0
1, 909200, Note_on_c, 0, 75, 0
1, 909200, Note_on_c, 0, 87, 111
1, 909203, Note_on_c, 0, 71, 115
1, 909253, Control_c, 0, 64, 0
1, 909253, Control_c, 0, 64, 0
1, 909350, Control_c, 0, 64, 127
1, 909350, Control_c, 0, 64, 127
1, 909848, Note_on_c, 0, 71, 0
1, 909848, Note_on_c, 0, 69, 92
1, 909919, Note_on_c, 0, 69, 0
1, 909919, Note_on_c, 0, 68, 92
1, 909992, Note_on_c, 0, 68, 0
1, 909992, Note_on_c, 0, 66, 92
1, 910064, Note_on_c, 0, 66, 0
1, 910064, Note_on_c, 0, 87, 0
1, 910064, Note_on_c, 0, 78, 115
1, 910090, Control_c, 0, 64, 0
1, 910090, Control_c, 0, 64, 0
1, 910186, Control_c, 0, 64, 127
1, 910186, Control_c, 0, 64, 127
1, 910766, Note_on_c, 0, 80, 92
1, 910820, Note_on_c, 0, 80, 0
1, 910820, Note_on_c, 0, 81, 92
1, 910874, Note_on_c, 0, 81, 0
1, 910874, Note_on_c, 0, 83, 92
1, 910928, Note_on_c, 0, 83, 0
1, 910928, Note_on_c, 0, 78, 0
1, 910928, Note_on_c, 0, 85, 115
1, 910931, Note_on_c, 0, 37, 0
1, 910931, Note_on_c, 0, 64, 90
1, 910931, Note_on_c, 0, 68, 90
1, 910934, Note_on_c, 0, 76, 99
1, 910954, Control_c, 0, 64, 0
1, 910954, Control_c, 0, 64, 0
1, 911085, Control_c, 0, 64, 127
1, 911085, Control_c, 0, 64, 127
1, 911576, Note_on_c, 0, 85, 0
1, 911576, Note_on_c, 0, 83, 92
1, 911700, Note_on_c, 0, 83, 0
1, 911700, Note_on_c, 0, 81, 92
1, 911784, Note_on_c, 0, 81, 0
1, 911784, Note_on_c, 0, 80, 92
1, 911827, Control_c, 0, 64, 0
1, 911827, Control_c, 0, 64, 0
1, 911867, Note_on_c, 0, 80, 0
1, 911867, Control_c, 0, 64, 127
1, 911867, Note_on_c, 0, 80, 105
1, 911870, Note_on_c, 0, 64, 0
1, 911870, Note_on_c, 0, 76, 96
1, 911870, Control_c, 0, 64, 127
1, 911873, Note_on_c, 0, 76, 0
1, 911873, Note_on_c, 0, 68, 0
1, 911873, Note_on_c, 0, 36, 99
1, 911876, Control_c, 0, 64, 0
1, 911876, Note_on_c, 0, 48, 99
1, 911876, Control_c, 0, 64, 0
1, 911954, Control_c, 0, 64, 127
1, 911954, Control_c, 0, 64, 127
1, 912451, Control_c, 0, 64, 127
1, 912451, Control_c, 0, 64, 127
1, 912569, Note_on_c, 0, 63, 92
1, 912623, Note_on_c, 0, 63, 0
1, 912623, Note_on_c, 0, 64, 92
1, 912677, Note_on_c, 0, 64, 0
1, 912677, Note_on_c, 0, 66, 92
1, 912731, Note_on_c, 0, 66, 0
1, 912731, Note_on_c, 0, 76, 0
1, 912731, Note_on_c, 0, 75, 90
1, 912734, Note_on_c, 0, 68, 115
1, 912784, Control_c, 0, 64, 0
1, 912784, Control_c, 0, 64, 0
1, 912881, Control_c, 0, 64, 127
1, 912881, Control_c, 0, 64, 127
1, 913379, Note_on_c, 0, 68, 0
1, 913379, Note_on_c, 0, 66, 92
1, 913450, Note_on_c, 0, 66, 0
1, 913450, Note_on_c, 0, 64, 92
1, 913523, Note_on_c, 0, 64, 0
1, 913523, Note_on_c, 0, 63, 92
1, 913647, Note_on_c, 0, 80, 0
1, 913647, Note_on_c, 0, 75, 0
1, 913647, Note_on_c, 0, 80, 90
1, 913650, Note_on_c, 0, 36, 0
1, 913650, Note_on_c, 0, 73, 107
1, 913650, Note_on_c, 0, 85, 115
1, 913653, Note_on_c, 0, 63, 0
1, 913653, Note_on_c, 0, 48, 0
1, 913653, Note_on_c, 0, 33, 99
1, 913656, Note_on_c, 0, 45, 99
1, 913673, Control_c, 0, 64, 0
1, 913673, Control_c, 0, 64, 0
1, 913770, Control_c, 0, 64, 127
1, 913770, Control_c, 0, 64, 127
1, 914349, Note_on_c, 0, 54, 92
1, 914403, Note_on_c, 0, 54, 0
1, 914403, Note_on_c, 0, 56, 92
1, 914457, Note_on_c, 0, 56, 0
1, 914457, Note_on_c, 0, 57, 92
1, 914511, Note_on_c, 0, 57, 0
1, 914511, Note_on_c, 0, 80, 0
1, 914511, Note_on_c, 0, 78, 90
1, 914514, Note_on_c, 0, 59, 115
1, 914537, Control_c, 0, 64, 0
1, 914537, Control_c, 0, 64, 0
1, 914668, Control_c, 0, 64, 127
1, 914668, Control_c, 0, 64, 127
1, 915159, Note_on_c, 0, 59, 0
1, 915159, Note_on_c, 0, 57, 92
1, 915231, Note_on_c, 0, 57, 0
1, 915231, Note_on_c, 0, 56, 92
1, 915304, Note_on_c, 0, 56, 0
1, 915304, Note_on_c, 0, 54, 92
1, 915381, Control_c, 0, 64, 0
1, 915381, Control_c, 0, 64, 0
1, 915453, Note_on_c, 0, 73, 0
1, 915453, Note_on_c, 0, 78, 0
1, 915453, Control_c, 0, 64, 127
1, 915456, Note_on_c, 0, 85, 0
1, 915456, Note_on_c, 0, 76, 99
1, 915456, Note_on_c, 0, 80, 99
1, 915459, Note_on_c, 0, 85, 99
1, 915459, Note_on_c, 0, 88, 114
1, 915459, Control_c, 0, 64, 127
1, 915462, Note_on_c, 0, 33, 0
1, 915462, Note_on_c, 0, 45, 0
1, 915462, Note_on_c, 0, 54, 0
1, 915465, Control_c, 0, 64, 0
1, 915465, Note_on_c, 0, 32, 99
1, 915465, Note_on_c, 0, 44, 99
1, 915468, Control_c, 0, 64, 0
1, 915540, Control_c, 0, 64, 127
1, 915540, Control_c, 0, 64, 127
1, 916037, Control_c, 0, 64, 127
1, 916037, Control_c, 0, 64, 127
1, 916155, Note_on_c, 0, 52, 92
1, 916209, Note_on_c, 0, 52, 0
1, 916209, Note_on_c, 0, 54, 92
1, 916263, Note_on_c, 0, 54, 0
1, 916263, Note_on_c, 0, 56, 92
1, 916317, Note_on_c, 0, 56, 0
1, 916317, Note_on_c, 0, 57, 115
1, 916370, Control_c, 0, 64, 0
1, 916370, Control_c, 0, 64, 0
1, 916467, Control_c, 0, 64, 127
1, 916467, Control_c, 0, 64, 127
1, 916965, Note_on_c, 0, 57, 0
1, 916965, Note_on_c, 0, 56, 92
1, 917036, Note_on_c, 0, 56, 0
1, 917036, Note_on_c, 0, 54, 92
1, 917109, Note_on_c, 0, 54, 0
1, 917109, Note_on_c, 0, 52, 92
1, 917181, Note_on_c, 0, 80, 0
1, 917181, Note_on_c, 0, 76, 0
1, 917181, Note_on_c, 0, 85, 0
1, 917184, Note_on_c, 0, 88, 0
1, 917184, Note_on_c, 0, 75, 90
1, 917184, Note_on_c, 0, 80, 90
1, 917187, Note_on_c, 0, 52, 0
1, 917187, Note_on_c, 0, 84, 90
1, 917187, Note_on_c, 0, 87, 99
1, 917190, Note_on_c, 0, 56, 99
1, 917207, Control_c, 0, 64, 0
1, 917207, Control_c, 0, 64, 0
1, 917303, Control_c, 0, 64, 127
1, 917303, Control_c, 0, 64, 127
1, 917613, Note_on_c, 0, 84, 0
1, 917613, Note_on_c, 0, 75, 0
1, 917613, Note_on_c, 0, 80, 0
1, 917616, Note_on_c, 0, 87, 0
1, 917616, Note_on_c, 0, 56, 0
1, 917616, Note_on_c, 0, 44, 99
1, 917883, Note_on_c, 0, 60, 92
1, 917937, Note_on_c, 0, 60, 0
1, 917937, Note_on_c, 0, 61, 92
1, 917991, Note_on_c, 0, 61, 0
1, 917991, Note_on_c, 0, 63, 92
1, 918045, Note_on_c, 0, 63, 0
1, 918045, Note_on_c, 0, 32, 0
1, 918045, Note_on_c, 0, 64, 115
1, 918048, Note_on_c, 0, 44, 0
1, 918048, Note_on_c, 0, 44, 0
1, 918048, Note_on_c, 0, 68, 111
1, 918071, Control_c, 0, 64, 0
1, 918071, Control_c, 0, 64, 0
1, 918202, Control_c, 0, 64, 127
1, 918202, Control_c, 0, 64, 127
1, 918693, Note_on_c, 0, 64, 0
1, 918693, Note_on_c, 0, 63, 92
1, 918786, Note_on_c, 0, 63, 0
1, 918786, Note_on_c, 0, 61, 92
1, 918880, Note_on_c, 0, 61, 0
1, 918880, Note_on_c, 0, 60, 92
1, 918929, Control_c, 0, 64, 0
1, 918929, Control_c, 0, 64, 0
1, 918974, Note_on_c, 0, 60, 0
1, 918974, Control_c, 0, 64, 127
1, 918974, Note_on_c, 0, 52, 88
1, 918977, Note_on_c, 0, 56, 88
1, 918977, Note_on_c, 0, 61, 104
1, 918977, Control_c, 0, 64, 127
1, 918980, Note_on_c, 0, 68, 0
1, 918980, Control_c, 0, 64, 0
1, 918980, Note_on_c, 0, 37, 99
1, 918980, Control_c, 0, 64, 0
1, 919034, Control_c, 0, 64, 127
1, 919034, Control_c, 0, 64, 127
1, 919060, Control_c, 0, 64, 127
1, 919060, Control_c, 0, 64, 127
1, 919406, Note_on_c, 0, 52, 0
1, 919406, Note_on_c, 0, 61, 0
1, 919406, Note_on_c, 0, 56, 0
1, 919558, Control_c, 0, 64, 127
1, 919558, Control_c, 0, 64, 127
1, 919676, Note_on_c, 0, 52, 92
1, 919730, Note_on_c, 0, 52, 0
1, 919730, Note_on_c, 0, 54, 92
1, 919784, Note_on_c, 0, 54, 0
1, 919784, Note_on_c, 0, 56, 92
1, 919838, Note_on_c, 0, 56, 0
1, 919838, Note_on_c, 0, 57, 115
1, 919891, Control_c, 0, 64, 0
1, 919891, Control_c, 0, 64, 0
1, 919988, Control_c, 0, 64, 127
1, 919988, Control_c, 0, 64, 127
1, 920486, Note_on_c, 0, 57, 0
1, 920486, Note_on_c, 0, 56, 92
1, 920557, Note_on_c, 0, 56, 0
1, 920557, Note_on_c, 0, 54, 92
1, 920630, Note_on_c, 0, 54, 0
1, 920630, Note_on_c, 0, 52, 92
1, 920702, Note_on_c, 0, 52, 0
1, 920702, Note_on_c, 0, 64, 99
1, 920728, Control_c, 0, 64, 0
1, 920728, Control_c, 0, 64, 0
1, 920824, Control_c, 0, 64, 127
1, 920824, Control_c, 0, 64, 127
1, 921350, Note_on_c, 0, 64, 0
1, 921350, Note_on_c, 0, 61, 99
1, 921404, Note_on_c, 0, 64, 87
1, 921458, Note_on_c, 0, 64, 0
1, 921458, Note_on_c, 0, 66, 87
1, 921512, Note_on_c, 0, 66, 0
1, 921512, Note_on_c, 0, 68, 87
1, 921566, Note_on_c, 0, 68, 0
1, 921566, Note_on_c, 0, 37, 0
1, 921566, Note_on_c, 0, 69, 115
1, 921569, Note_on_c, 0, 61, 0
1, 921569, Note_on_c, 0, 73, 111
1, 921592, Control_c, 0, 64, 0
1, 921592, Control_c, 0, 64, 0
1, 921722, Control_c, 0, 64, 127
1, 921722, Control_c, 0, 64, 127
1, 922214, Note_on_c, 0, 69, 0
1, 922214, Note_on_c, 0, 68, 87
1, 922285, Note_on_c, 0, 68, 0
1, 922285, Note_on_c, 0, 66, 87
1, 922358, Note_on_c, 0, 66, 0
1, 922358, Note_on_c, 0, 64, 87
1, 922395, Control_c, 0, 64, 0
1, 922395, Control_c, 0, 64, 0
1, 922430, Note_on_c, 0, 64, 0
1, 922430, Control_c, 0, 64, 127
1, 922430, Note_on_c, 0, 76, 111
1, 922433, Note_on_c, 0, 73, 0
1, 922433, Note_on_c, 0, 69, 106
1, 922433, Control_c, 0, 64, 127
1, 922436, Note_on_c, 0, 35, 99
1, 922436, Note_on_c, 0, 47, 99
1, 922441, Control_c, 0, 64, 0
1, 922441, Control_c, 0, 64, 0
1, 922543, Control_c, 0, 64, 127
1, 922543, Control_c, 0, 64, 127
1, 922710, Note_on_c, 0, 76, 0
1, 922710, Note_on_c, 0, 73, 91
1, 922793, Note_on_c, 0, 73, 0
1, 922793, Note_on_c, 0, 74, 90
1, 922877, Note_on_c, 0, 74, 0
1, 922877, Note_on_c, 0, 76, 88
1, 922952, Note_on_c, 0, 74, 88
1, 922960, Note_on_c, 0, 76, 0
1, 922960, Note_on_c, 0, 69, 0
1, 923003, Note_on_c, 0, 74, 0
1, 923003, Note_on_c, 0, 76, 88
1, 923046, Note_on_c, 0, 76, 0
1, 923056, Note_on_c, 0, 74, 88
1, 923090, Note_on_c, 0, 74, 0
1, 923090, Note_on_c, 0, 76, 88
1, 923113, Control_c, 0, 64, 127
1, 923113, Control_c, 0, 64, 127
1, 923120, Note_on_c, 0, 74, 88
1, 923133, Note_on_c, 0, 76, 0
1, 923176, Note_on_c, 0, 74, 0
1, 923176, Note_on_c, 0, 76, 88
1, 923212, Note_on_c, 0, 74, 88
1, 923219, Note_on_c, 0, 76, 0
1, 923230, Note_on_c, 0, 54, 92
1, 923258, Note_on_c, 0, 76, 88
1, 923262, Note_on_c, 0, 74, 0
1, 923284, Note_on_c, 0, 54, 0
1, 923284, Note_on_c, 0, 56, 92
1, 923300, Note_on_c, 0, 74, 88
1, 923306, Note_on_c, 0, 76, 0
1, 923338, Note_on_c, 0, 56, 0
1, 923338, Note_on_c, 0, 57, 92
1, 923349, Note_on_c, 0, 74, 0
1, 923361, Note_on_c, 0, 76, 88
1, 923392, Note_on_c, 0, 76, 0
1, 923392, Note_on_c, 0, 57, 0
1, 923392, Note_on_c, 0, 59, 115
1, 923401, Note_on_c, 0, 74, 88
1, 923435, Note_on_c, 0, 74, 0
1, 923435, Note_on_c, 0, 76, 88
1, 923445, Control_c, 0, 64, 0
1, 923445, Control_c, 0, 64, 0
1, 923478, Note_on_c, 0, 76, 0
1, 923478, Note_on_c, 0, 74, 88
1, 923522, Note_on_c, 0, 74, 0
1, 923522, Note_on_c, 0, 76, 88
1, 923542, Control_c, 0, 64, 127
1, 923542, Control_c, 0, 64, 127
1, 923565, Note_on_c, 0, 76, 0
1, 923571, Note_on_c, 0, 74, 88
1, 923597, Note_on_c, 0, 76, 88
1, 923608, Note_on_c, 0, 74, 0
1, 923651, Note_on_c, 0, 76, 0
1, 923659, Note_on_c, 0, 74, 88
1, 923687, Note_on_c, 0, 76, 88
1, 923694, Note_on_c, 0, 74, 0
1, 923738, Note_on_c, 0, 76, 0
1, 923738, Note_on_c, 0, 74, 88
1, 923779, Note_on_c, 0, 74, 0
1, 923779, Note_on_c, 0, 76, 88
1, 923824, Note_on_c, 0, 76, 0
1, 923830, Note_on_c, 0, 74, 88
1, 923867, Note_on_c, 0, 74, 0
1, 923870, Note_on_c, 0, 76, 88
1, 923908, Note_on_c, 0, 76, 0
1, 923908, Note_on_c, 0, 74, 88
1, 923954, Note_on_c, 0, 74, 0
1, 923960, Note_on_c, 0, 76, 88
1, 923997, Note_on_c, 0, 76, 0
1, 923997, Note_on_c, 0, 74, 88
1, 924031, Note_on_c, 0, 76, 88
1, 924040, Note_on_c, 0, 74, 0
1, 924040, Note_on_c, 0, 59, 0
1, 924040, Note_on_c, 0, 57, 92
1, 924081, Note_on_c, 0, 76, 0
1, 924081, Note_on_c, 0, 74, 88
1, 924112, Note_on_c, 0, 57, 0
1, 924112, Note_on_c, 0, 56, 92
1, 924126, Note_on_c, 0, 74, 0
1, 924132, Note_on_c, 0, 76, 88
1, 924168, Note_on_c, 0, 76, 0
1, 924168, Note_on_c, 0, 74, 88
1, 924184, Note_on_c, 0, 56, 0
1, 924184, Note_on_c, 0, 54, 92
1, 924213, Note_on_c, 0, 74, 0
1, 924217, Note_on_c, 0, 73, 88
1, 924256, Note_on_c, 0, 73, 0
1, 924256, Note_on_c, 0, 74, 84
1, 924256, Note_on_c, 0, 83, 107
1, 924259, Note_on_c, 0, 54, 0
1, 924259, Note_on_c, 0, 47, 0
1, 924259, Note_on_c, 0, 35, 0
1, 924262, Note_on_c, 0, 66, 99
1, 924286, Control_c, 0, 64, 0
1, 924286, Control_c, 0, 64, 0
1, 924397, Control_c, 0, 64, 127
1, 924397, Control_c, 0, 64, 127
1, 924755, Note_on_c, 0, 83, 0
1, 924755, Note_on_c, 0, 81, 98
1, 925005, Note_on_c, 0, 81, 0
1, 925005, Note_on_c, 0, 66, 0
1, 925005, Note_on_c, 0, 80, 98
1, 925008, Note_on_c, 0, 39, 88
1, 925088, Note_on_c, 0, 39, 0
1, 925088, Note_on_c, 0, 40, 82
1, 925171, Note_on_c, 0, 40, 0
1, 925171, Note_on_c, 0, 42, 85
1, 925254, Note_on_c, 0, 80, 0
1, 925254, Note_on_c, 0, 74, 0
1, 925254, Note_on_c, 0, 78, 107
1, 925257, Note_on_c, 0, 42, 0
1, 925257, Note_on_c, 0, 68, 93
1, 925257, Note_on_c, 0, 74, 93
1, 925260, Note_on_c, 0, 40, 86
1, 925280, Control_c, 0, 64, 0
1, 925280, Control_c, 0, 64, 0
1, 925333, Note_on_c, 0, 40, 0
1, 925333, Note_on_c, 0, 42, 87
1, 925411, Note_on_c, 0, 42, 0
1, 925411, Control_c, 0, 64, 127
1, 925411, Control_c, 0, 64, 127
1, 925414, Note_on_c, 0, 40, 89
1, 925490, Note_on_c, 0, 40, 0
1, 925490, Note_on_c, 0, 42, 90
1, 925568, Note_on_c, 0, 42, 0
1, 925568, Note_on_c, 0, 40, 92
1, 925647, Note_on_c, 0, 40, 0
1, 925647, Note_on_c, 0, 42, 85
1, 925686, Note_on_c, 0, 78, 0
1, 925686, Note_on_c, 0, 76, 98
1, 925726, Note_on_c, 0, 42, 0
1, 925726, Note_on_c, 0, 40, 84
1, 925804, Note_on_c, 0, 40, 0
1, 925804, Note_on_c, 0, 42, 86
1, 925883, Note_on_c, 0, 42, 0
1, 925883, Note_on_c, 0, 40, 92
1, 925902, Note_on_c, 0, 76, 0
1, 925902, Note_on_c, 0, 74, 98
1, 925961, Note_on_c, 0, 40, 0
1, 925961, Note_on_c, 0, 39, 91
1, 926040, Note_on_c, 0, 39, 0
1, 926040, Note_on_c, 0, 40, 90
1, 926084, Control_c, 0, 64, 0
1, 926084, Control_c, 0, 64, 0
1, 926118, Note_on_c, 0, 68, 0
1, 926118, Note_on_c, 0, 74, 0
1, 926118, Control_c, 0, 64, 127
1, 926121, Note_on_c, 0, 74, 0
1, 926121, Note_on_c, 0, 73, 104
1, 926121, Note_on_c, 0, 71, 99
1, 926124, Note_on_c, 0, 40, 0
1, 926124, Control_c, 0, 64, 127
1, 926124, Note_on_c, 0, 33, 99
1, 926127, Control_c, 0, 64, 0
1, 926127, Control_c, 0, 64, 0
1, 926162, Control_c, 0, 64, 0
1, 926162, Control_c, 0, 64, 0
1, 926311, Control_c, 0, 64, 127
1, 926311, Control_c, 0, 64, 127
1, 926550, Note_on_c, 0, 71, 0
1, 926550, Note_on_c, 0, 69, 99
1, 926703, Control_c, 0, 64, 127
1, 926703, Control_c, 0, 64, 127
1, 926766, Note_on_c, 0, 69, 0
1, 926766, Note_on_c, 0, 68, 99
1, 926820, Note_on_c, 0, 52, 92
1, 926874, Note_on_c, 0, 52, 0
1, 926874, Note_on_c, 0, 73, 0
1, 926874, Note_on_c, 0, 54, 92
1, 926884, Note_on_c, 0, 72, 96
1, 926906, Note_on_c, 0, 73, 96
1, 926911, Note_on_c, 0, 72, 0
1, 926928, Note_on_c, 0, 54, 0
1, 926928, Note_on_c, 0, 56, 92
1, 926946, Note_on_c, 0, 73, 0
1, 926946, Note_on_c, 0, 74, 94
1, 926973, Note_on_c, 0, 73, 92
1, 926982, Note_on_c, 0, 74, 0
1, 926982, Note_on_c, 0, 56, 0
1, 926982, Note_on_c, 0, 68, 0
1, 926985, Note_on_c, 0, 66, 89
1, 926985, Note_on_c, 0, 57, 115
1, 927025, Note_on_c, 0, 73, 0
1, 927035, Note_on_c, 0, 74, 93
1, 927035, Control_c, 0, 64, 0
1, 927035, Control_c, 0, 64, 0
1, 927068, Note_on_c, 0, 74, 0
1, 927075, Note_on_c, 0, 73, 96
1, 927112, Note_on_c, 0, 73, 0
1, 927116, Note_on_c, 0, 73, 90
1, 927133, Control_c, 0, 64, 127
1, 927133, Control_c, 0, 64, 127
1, 927152, Note_on_c, 0, 74, 91
1, 927155, Note_on_c, 0, 73, 0
1, 927198, Note_on_c, 0, 74, 0
1, 927203, Note_on_c, 0, 73, 88
1, 927236, Note_on_c, 0, 74, 91
1, 927241, Note_on_c, 0, 73, 0
1, 927284, Note_on_c, 0, 74, 0
1, 927290, Note_on_c, 0, 73, 95
1, 927328, Note_on_c, 0, 73, 0
1, 927336, Note_on_c, 0, 74, 95
1, 927371, Note_on_c, 0, 74, 0
1, 927376, Note_on_c, 0, 73, 91
1, 927414, Note_on_c, 0, 73, 0
1, 927414, Note_on_c, 0, 72, 99
1, 927630, Note_on_c, 0, 72, 0
1, 927630, Note_on_c, 0, 57, 0
1, 927630, Note_on_c, 0, 73, 99
1, 927633, Note_on_c, 0, 56, 92
1, 927702, Note_on_c, 0, 56, 0
1, 927702, Note_on_c, 0, 54, 92
1, 927738, Note_on_c, 0, 73, 0
1, 927738, Note_on_c, 0, 72, 99
1, 927775, Note_on_c, 0, 54, 0
1, 927775, Note_on_c, 0, 52, 92
1, 927792, Note_on_c, 0, 72, 0
1, 927792, Note_on_c, 0, 73, 91
1, 927846, Note_on_c, 0, 52, 0
1, 927846, Note_on_c, 0, 66, 0
1, 927846, Note_on_c, 0, 81, 107
1, 927849, Note_on_c, 0, 64, 108
1, 927877, Control_c, 0, 64, 0
1, 927877, Control_c, 0, 64, 0
1, 927988, Control_c, 0, 64, 127
1, 927988, Control_c, 0, 64, 127
1, 928346, Note_on_c, 0, 81, 0
1, 928346, Note_on_c, 0, 80, 99
1, 928595, Note_on_c, 0, 80, 0
1, 928595, Note_on_c, 0, 78, 99
1, 928720, Note_on_c, 0, 64, 0
1, 928720, Note_on_c, 0, 34, 99
1, 928845, Note_on_c, 0, 78, 0
1, 928845, Note_on_c, 0, 73, 0
1, 928845, Note_on_c, 0, 76, 107
1, 928848, Note_on_c, 0, 33, 0
1, 928848, Note_on_c, 0, 64, 91
1, 928848, Note_on_c, 0, 66, 91
1, 928853, Note_on_c, 0, 46, 92
1, 928871, Control_c, 0, 64, 0
1, 928871, Control_c, 0, 64, 0
1, 928923, Note_on_c, 0, 46, 0
1, 928930, Note_on_c, 0, 47, 92
1, 929002, Note_on_c, 0, 47, 0
1, 929002, Control_c, 0, 64, 127
1, 929002, Control_c, 0, 64, 127
1, 929008, Note_on_c, 0, 46, 92
1, 929080, Note_on_c, 0, 46, 0
1, 929080, Note_on_c, 0, 47, 92
1, 929159, Note_on_c, 0, 47, 0
1, 929159, Note_on_c, 0, 46, 92
1, 929237, Note_on_c, 0, 46, 0
1, 929245, Note_on_c, 0, 47, 92
1, 929277, Note_on_c, 0, 76, 0
1, 929277, Note_on_c, 0, 75, 99
1, 929323, Note_on_c, 0, 47, 0
1, 929326, Note_on_c, 0, 46, 92
1, 929408, Note_on_c, 0, 47, 92
1, 929413, Note_on_c, 0, 46, 0
1, 929499, Note_on_c, 0, 46, 92
1, 929504, Note_on_c, 0, 47, 0
1, 929526, Note_on_c, 0, 75, 0
1, 929526, Note_on_c, 0, 73, 99
1, 929595, Note_on_c, 0, 46, 0
1, 929601, Note_on_c, 0, 44, 92
1, 929680, Note_on_c, 0, 46, 92
1, 929685, Note_on_c, 0, 44, 0
1, 929736, Control_c, 0, 64, 0
1, 929736, Control_c, 0, 64, 0
1, 929776, Note_on_c, 0, 64, 0
1, 929776, Note_on_c, 0, 73, 0
1, 929776, Control_c, 0, 64, 127
1, 929779, Note_on_c, 0, 66, 0
1, 929779, Note_on_c, 0, 59, 90
1, 929779, Note_on_c, 0, 64, 90
1, 929782, Note_on_c, 0, 68, 90
1, 929782, Note_on_c, 0, 71, 99
1, 929782, Control_c, 0, 64, 127
1, 929785, Note_on_c, 0, 34, 0
1, 929785, Note_on_c, 0, 46, 0
1, 929785, Note_on_c, 0, 35, 99
1, 929788, Control_c, 0, 64, 0
1, 929788, Note_on_c, 0, 47, 99
1, 929788, Control_c, 0, 64, 0
1, 929820, Control_c, 0, 64, 0
1, 929820, Control_c, 0, 64, 0
1, 929968, Control_c, 0, 64, 127
1, 929968, Control_c, 0, 64, 127
1, 930361, Control_c, 0, 64, 127
1, 930361, Control_c, 0, 64, 127
1, 930487, Note_on_c, 0, 57, 88
1, 930527, Note_on_c, 0, 56, 88
1, 930532, Note_on_c, 0, 57, 0
1, 930586, Note_on_c, 0, 56, 0
1, 930586, Note_on_c, 0, 54, 88
1, 930640, Note_on_c, 0, 68, 0
1, 930640, Note_on_c, 0, 61, 90
1, 930640, Note_on_c, 0, 68, 90
1, 930643, Note_on_c, 0, 54, 0
1, 930643, Note_on_c, 0, 73, 106
1, 930643, Note_on_c, 0, 53, 88
1, 930657, Note_on_c, 0, 64, 0
1, 930657, Note_on_c, 0, 59, 0
1, 930657, Note_on_c, 0, 71, 0
1, 930682, Note_on_c, 0, 54, 88
1, 930691, Note_on_c, 0, 53, 0
1, 930691, Control_c, 0, 64, 0
1, 930691, Control_c, 0, 64, 0
1, 930737, Note_on_c, 0, 53, 88
1, 930741, Note_on_c, 0, 54, 0
1, 930790, Control_c, 0, 64, 127
1, 930790, Control_c, 0, 64, 127
1, 930793, Note_on_c, 0, 53, 0
1, 930793, Note_on_c, 0, 54, 88
1, 930842, Note_on_c, 0, 54, 0
1, 930842, Note_on_c, 0, 53, 88
1, 930889, Note_on_c, 0, 54, 88
1, 930894, Note_on_c, 0, 53, 0
1, 930945, Note_on_c, 0, 54, 0
1, 930945, Note_on_c, 0, 53, 88
1, 930991, Note_on_c, 0, 54, 88
1, 930996, Note_on_c, 0, 53, 0
1, 931038, Note_on_c, 0, 53, 88
1, 931047, Note_on_c, 0, 54, 0
1, 931097, Note_on_c, 0, 53, 0
1, 931097, Note_on_c, 0, 54, 88
1, 931148, Note_on_c, 0, 54, 0
1, 931148, Note_on_c, 0, 53, 88
1, 931199, Note_on_c, 0, 53, 0
1, 931206, Note_on_c, 0, 54, 88
1, 931250, Note_on_c, 0, 54, 0
1, 931250, Note_on_c, 0, 53, 88
1, 931301, Note_on_c, 0, 53, 0
1, 931301, Note_on_c, 0, 54, 88
1, 931351, Note_on_c, 0, 54, 0
1, 931351, Note_on_c, 0, 53, 88
1, 931377, Control_c, 0, 64, 0
1, 931377, Control_c, 0, 64, 0
1, 931395, Note_on_c, 0, 51, 88
1, 931403, Note_on_c, 0, 53, 0
1, 931448, Note_on_c, 0, 53, 88
1, 931453, Note_on_c, 0, 51, 0
1, 931500, Note_on_c, 0, 54, 88
1, 931504, Note_on_c, 0, 73, 0
1, 931504, Note_on_c, 0, 61, 0
1, 931504, Note_on_c, 0, 68, 0
1, 931507, Note_on_c, 0, 81, 108
1, 931507, Note_on_c, 0, 69, 90
1, 931507, Note_on_c, 0, 73, 90
1, 931510, Note_on_c, 0, 35, 0
1, 931510, Note_on_c, 0, 53, 0
1, 931510, Note_on_c, 0, 47, 0
1, 931645, Control_c, 0, 64, 127
1, 931645, Control_c, 0, 64, 127
1, 932003, Note_on_c, 0, 81, 0
1, 932003, Note_on_c, 0, 80, 99
1, 932253, Note_on_c, 0, 80, 0
1, 932253, Note_on_c, 0, 78, 99
1, 932502, Note_on_c, 0, 69, 0
1, 932502, Note_on_c, 0, 73, 0
1, 932502, Note_on_c, 0, 69, 89
1, 932505, Note_on_c, 0, 78, 0
1, 932505, Note_on_c, 0, 73, 106
1, 932505, Note_on_c, 0, 75, 90
1, 932508, Note_on_c, 0, 54, 0
1, 932508, Note_on_c, 0, 35, 99
1, 932536, Control_c, 0, 64, 0
1, 932536, Control_c, 0, 64, 0
1, 932706, Control_c, 0, 64, 127
1, 932706, Control_c, 0, 64, 127
1, 933064, Note_on_c, 0, 69, 0
1, 933064, Note_on_c, 0, 73, 0
1, 933064, Note_on_c, 0, 68, 81
1, 933067, Note_on_c, 0, 71, 90
1, 933314, Note_on_c, 0, 71, 0
1, 933314, Note_on_c, 0, 68, 0
1, 933314, Note_on_c, 0, 66, 81
1, 933317, Note_on_c, 0, 69, 90
1, 933523, Control_c, 0, 64, 0
1, 933523, Control_c, 0, 64, 0
1, 933563, Note_on_c, 0, 69, 0
1, 933563, Note_on_c, 0, 66, 0
1, 933563, Note_on_c, 0, 75, 0
1, 933566, Note_on_c, 0, 66, 87
1, 933566, Note_on_c, 0, 71, 87
1, 933566, Note_on_c, 0, 75, 104
1, 933569, Note_on_c, 0, 35, 0
1, 933569, Note_on_c, 0, 28, 99
1, 933703, Control_c, 0, 64, 127
1, 933703, Control_c, 0, 64, 127
1, 934205, Note_on_c, 0, 30, 88
1, 934210, Note_on_c, 0, 28, 0
1, 934210, Control_c, 0, 64, 0
1, 934210, Control_c, 0, 64, 0
1, 934258, Note_on_c, 0, 32, 88
1, 934265, Note_on_c, 0, 30, 0
1, 934312, Note_on_c, 0, 33, 88
1, 934319, Note_on_c, 0, 32, 0
1, 934372, Note_on_c, 0, 33, 0
1, 934372, Note_on_c, 0, 35, 88
1, 934426, Note_on_c, 0, 35, 0
1, 934426, Note_on_c, 0, 33, 88
1, 934478, Note_on_c, 0, 33, 0
1, 934484, Note_on_c, 0, 35, 88
1, 934490, Control_c, 0, 64, 127
1, 934490, Control_c, 0, 64, 127
1, 934527, Note_on_c, 0, 35, 0
1, 934527, Note_on_c, 0, 33, 88
1, 934576, Note_on_c, 0, 35, 88
1, 934580, Note_on_c, 0, 33, 0
1, 934630, Note_on_c, 0, 35, 0
1, 934639, Note_on_c, 0, 33, 88
1, 934681, Note_on_c, 0, 33, 0
1, 934689, Note_on_c, 0, 35, 88
1, 934732, Note_on_c, 0, 35, 0
1, 934741, Note_on_c, 0, 33, 88
1, 934783, Note_on_c, 0, 33, 0
1, 934783, Note_on_c, 0, 35, 88
1, 934834, Note_on_c, 0, 35, 0
1, 934834, Note_on_c, 0, 33, 88
1, 934884, Note_on_c, 0, 33, 0
1, 934888, Note_on_c, 0, 35, 88
1, 934934, Note_on_c, 0, 35, 0
1, 934934, Note_on_c, 0, 33, 88
1, 934983, Note_on_c, 0, 35, 88
1, 934987, Note_on_c, 0, 33, 0
1, 935031, Note_on_c, 0, 33, 88
1, 935037, Note_on_c, 0, 35, 0
1, 935088, Note_on_c, 0, 33, 0
1, 935095, Note_on_c, 0, 35, 88
1, 935135, Note_on_c, 0, 33, 88
1, 935138, Note_on_c, 0, 35, 0
1, 935165, Control_c, 0, 64, 0
1, 935165, Control_c, 0, 64, 0
1, 935190, Note_on_c, 0, 33, 0
1, 935196, Note_on_c, 0, 32, 88
1, 935241, Note_on_c, 0, 32, 0
1, 935241, Note_on_c, 0, 33, 88
1, 935291, Note_on_c, 0, 71, 0
1, 935291, Note_on_c, 0, 64, 81
1, 935291, Note_on_c, 0, 71, 81
1, 935294, Note_on_c, 0, 33, 0
1, 935294, Note_on_c, 0, 76, 93
1, 935294, Note_on_c, 0, 32, 99
1, 935308, Note_on_c, 0, 75, 0
1, 935308, Note_on_c, 0, 66, 0
1, 935554, Note_on_c, 0, 32, 0
1, 935723, Note_on_c, 0, 28, 99
1, 936027, Note_on_c, 0, 28, 0
1, 936222, Note_on_c, 0, 68, 111
1, 937086, Note_on_c, 0, 76, 0
1, 937086, Note_on_c, 0, 64, 0
1, 937086, Note_on_c, 0, 71, 0
1, 937089, Note_on_c, 0, 60, 90
1, 937089, Note_on_c, 0, 63, 90
1, 937089, Note_on_c, 0, 68, 99
1, 937092, Note_on_c, 0, 68, 0
1, 937092, Note_on_c, 0, 32, 99
1, 937279, Control_c, 0, 64, 127
1, 937279, Control_c, 0, 64, 127
1, 937518, Note_on_c, 0, 60, 0
1, 937518, Note_on_c, 0, 68, 0
1, 937518, Note_on_c, 0, 63, 0
1, 937788, Note_on_c, 0, 63, 92
1, 937842, Note_on_c, 0, 63, 0
1, 937842, Note_on_c, 0, 64, 92
1, 937896, Note_on_c, 0, 64, 0
1, 937896, Note_on_c, 0, 66, 92
1, 937950, Note_on_c, 0, 66, 0
1, 937950, Note_on_c, 0, 68, 113
1, 937953, Control_c, 0, 64, 0
1, 937953, Control_c, 0, 64, 0
1, 938049, Control_c, 0, 64, 127
1, 938049, Control_c, 0, 64, 127
1, 938598, Note_on_c, 0, 66, 92
1, 938670, Note_on_c, 0, 66, 0
1, 938670, Note_on_c, 0, 64, 92
1, 938743, Note_on_c, 0, 64, 0
1, 938743, Note_on_c, 0, 63, 92
1, 938814, Note_on_c, 0, 68, 0
1, 938814, Note_on_c, 0, 68, 107
1, 938814, Note_on_c, 0, 69, 109
1, 938817, Note_on_c, 0, 63, 0
1, 938817, Note_on_c, 0, 32, 0
1, 938817, Note_on_c, 0, 64, 99
1, 938862, Control_c, 0, 64, 0
1, 938862, Control_c, 0, 64, 0
1, 938941, Control_c, 0, 64, 127
1, 938941, Control_c, 0, 64, 127
1, 939462, Note_on_c, 0, 64, 0
1, 939462, Note_on_c, 0, 63, 92
1, 939534, Note_on_c, 0, 63, 0
1, 939534, Note_on_c, 0, 61, 92
1, 939607, Note_on_c, 0, 61, 0
1, 939607, Note_on_c, 0, 60, 92
1, 939667, Control_c, 0, 64, 0
1, 939667, Control_c, 0, 64, 0
1, 939678, Note_on_c, 0, 68, 0
1, 939678, Note_on_c, 0, 69, 0
1, 939678, Note_on_c, 0, 69, 107
1, 939681, Note_on_c, 0, 60, 0
1, 939681, Note_on_c, 0, 76, 109
1, 939681, Note_on_c, 0, 61, 99
1, 939772, Control_c, 0, 64, 127
1, 939772, Control_c, 0, 64, 127
1, 940326, Note_on_c, 0, 61, 0
1, 940326, Note_on_c, 0, 59, 92
1, 940398, Note_on_c, 0, 59, 0
1, 940398, Note_on_c, 0, 57, 92
1, 940471, Note_on_c, 0, 57, 0
1, 940471, Control_c, 0, 64, 0
1, 940471, Note_on_c, 0, 56, 92
1, 940471, Control_c, 0, 64, 0
1, 940542, Note_on_c, 0, 76, 0
1, 940542, Note_on_c, 0, 69, 0
1, 940542, Note_on_c, 0, 76, 115
1, 940545, Note_on_c, 0, 56, 0
1, 940545, Note_on_c, 0, 69, 99
1, 940545, Note_on_c, 0, 54, 99
1, 940735, Control_c, 0, 64, 127
1, 940735, Control_c, 0, 64, 127
1, 940974, Note_on_c, 0, 54, 0
1, 940974, Note_on_c, 0, 32, 99
1, 941244, Note_on_c, 0, 69, 0
1, 941244, Note_on_c, 0, 69, 92
1, 941298, Note_on_c, 0, 71, 92
1, 941352, Note_on_c, 0, 71, 0
1, 941352, Note_on_c, 0, 73, 92
1, 941406, Note_on_c, 0, 73, 0
1, 941406, Note_on_c, 0, 76, 0
1, 941406, Note_on_c, 0, 74, 104
1, 941409, Control_c, 0, 64, 0
1, 941409, Note_on_c, 0, 54, 115
1, 941409, Control_c, 0, 64, 0
1, 941496, Control_c, 0, 64, 0
1, 941496, Control_c, 0, 64, 0
1, 941610, Control_c, 0, 64, 127
1, 941610, Control_c, 0, 64, 127
1, 941838, Note_on_c, 0, 32, 0
1, 942054, Note_on_c, 0, 74, 0
1, 942054, Note_on_c, 0, 73, 92
1, 942126, Note_on_c, 0, 73, 0
1, 942126, Note_on_c, 0, 71, 92
1, 942199, Note_on_c, 0, 71, 0
1, 942199, Note_on_c, 0, 69, 92
1, 942266, Control_c, 0, 64, 0
1, 942266, Control_c, 0, 64, 0
1, 942270, Note_on_c, 0, 69, 0
1, 942270, Note_on_c, 0, 54, 0
1, 942270, Note_on_c, 0, 74, 99
1, 942273, Note_on_c, 0, 53, 99
1, 942318, Control_c, 0, 64, 0
1, 942318, Control_c, 0, 64, 0
1, 942327, Control_c, 0, 64, 0
1, 942327, Control_c, 0, 64, 0
1, 942485, Control_c, 0, 64, 127
1, 942485, Control_c, 0, 64, 127
1, 942972, Note_on_c, 0, 53, 0
1, 942972, Note_on_c, 0, 52, 92
1, 943026, Note_on_c, 0, 52, 0
1, 943026, Note_on_c, 0, 54, 92
1, 943080, Note_on_c, 0, 54, 0
1, 943080, Note_on_c, 0, 56, 92
1, 943123, Control_c, 0, 64, 0
1, 943123, Control_c, 0, 64, 0
1, 943134, Note_on_c, 0, 74, 0
1, 943134, Note_on_c, 0, 69, 0
1, 943134, Note_on_c, 0, 68, 90
1, 943137, Note_on_c, 0, 56, 0
1, 943137, Note_on_c, 0, 73, 99
1, 943137, Note_on_c, 0, 57, 99
1, 943202, Control_c, 0, 64, 0
1, 943202, Control_c, 0, 64, 0
1, 943412, Control_c, 0, 64, 127
1, 943412, Control_c, 0, 64, 127
1, 943782, Note_on_c, 0, 57, 0
1, 943782, Note_on_c, 0, 56, 92
1, 943854, Note_on_c, 0, 56, 0
1, 943854, Note_on_c, 0, 54, 92
1, 943927, Note_on_c, 0, 54, 0
1, 943927, Control_c, 0, 64, 0
1, 943927, Note_on_c, 0, 52, 92
1, 943927, Control_c, 0, 64, 0
1, 943998, Note_on_c, 0, 73, 0
1, 943998, Control_c, 0, 64, 0
1, 943998, Note_on_c, 0, 73, 115
1, 944001, Note_on_c, 0, 52, 0
1, 944001, Control_c, 0, 64, 0
1, 944001, Note_on_c, 0, 51, 99
1, 944191, Control_c, 0, 64, 127
1, 944191, Control_c, 0, 64, 127
1, 944430, Note_on_c, 0, 51, 0
1, 944430, Note_on_c, 0, 32, 99
1, 944700, Note_on_c, 0, 68, 0
1, 944700, Note_on_c, 0, 66, 99
1, 944754, Note_on_c, 0, 68, 99
1, 944808, Note_on_c, 0, 68, 0
1, 944808, Note_on_c, 0, 69, 99
1, 944862, Note_on_c, 0, 69, 0
1, 944862, Note_on_c, 0, 73, 0
1, 944862, Note_on_c, 0, 71, 99
1, 944865, Control_c, 0, 64, 0
1, 944865, Note_on_c, 0, 51, 99
1, 944865, Control_c, 0, 64, 0
1, 944952, Control_c, 0, 64, 0
1, 944952, Control_c, 0, 64, 0
1, 945066, Control_c, 0, 64, 127
1, 945066, Control_c, 0, 64, 127
1, 945294, Note_on_c, 0, 32, 0
1, 945510, Note_on_c, 0, 71, 0
1, 945510, Note_on_c, 0, 69, 99
1, 945582, Note_on_c, 0, 69, 0
1, 945582, Note_on_c, 0, 68, 99
1, 945655, Note_on_c, 0, 68, 0
1, 945655, Note_on_c, 0, 66, 99
1, 945722, Control_c, 0, 64, 0
1, 945722, Control_c, 0, 64, 0
1, 945726, Note_on_c, 0, 66, 0
1, 945726, Note_on_c, 0, 66, 0
1, 945726, Note_on_c, 0, 65, 99
1, 945729, Note_on_c, 0, 51, 0
1, 945729, Note_on_c, 0, 71, 99
1, 945729, Note_on_c, 0, 50, 99
1, 945774, Control_c, 0, 64, 0
1, 945774, Control_c, 0, 64, 0
1, 945783, Control_c, 0, 64, 0
1, 945783, Control_c, 0, 64, 0
1, 945941, Control_c, 0, 64, 127
1, 945941, Control_c, 0, 64, 127
1, 946428, Note_on_c, 0, 50, 0
1, 946428, Note_on_c, 0, 49, 92
1, 946482, Note_on_c, 0, 49, 0
1, 946482, Note_on_c, 0, 51, 92
1, 946536, Note_on_c, 0, 51, 0
1, 946536, Note_on_c, 0, 53, 92
1, 946579, Control_c, 0, 64, 0
1, 946579, Control_c, 0, 64, 0
1, 946590, Note_on_c, 0, 71, 0
1, 946590, Note_on_c, 0, 65, 0
1, 946590, Note_on_c, 0, 64, 90
1, 946593, Note_on_c, 0, 53, 0
1, 946593, Note_on_c, 0, 69, 99
1, 946593, Note_on_c, 0, 54, 99
1, 946658, Control_c, 0, 64, 0
1, 946658, Control_c, 0, 64, 0
1, 946868, Control_c, 0, 64, 127
1, 946868, Control_c, 0, 64, 127
1, 947238, Note_on_c, 0, 54, 0
1, 947238, Note_on_c, 0, 52, 92
1, 947310, Note_on_c, 0, 52, 0
1, 947310, Note_on_c, 0, 51, 92
1, 947383, Note_on_c, 0, 51, 0
1, 947383, Control_c, 0, 64, 0
1, 947383, Note_on_c, 0, 49, 92
1, 947383, Control_c, 0, 64, 0
1, 947454, Note_on_c, 0, 64, 0
1, 947454, Control_c, 0, 64, 0
1, 947454, Control_c, 0, 64, 0
1, 947457, Note_on_c, 0, 64, 99
1, 947457, Control_c, 0, 64, 0
1, 947457, Control_c, 0, 64, 0
1, 947460, Note_on_c, 0, 49, 0
1, 947460, Note_on_c, 0, 48, 99
1, 947647, Control_c, 0, 64, 127
1, 947647, Control_c, 0, 64, 127
1, 947647, Control_c, 0, 64, 127
1, 947650, Control_c, 0, 64, 127
1, 947886, Note_on_c, 0, 48, 0
1, 947886, Note_on_c, 0, 32, 102
1, 948156, Note_on_c, 0, 64, 0
1, 948156, Note_on_c, 0, 63, 103
1, 948210, Note_on_c, 0, 63, 0
1, 948210, Note_on_c, 0, 64, 104
1, 948264, Note_on_c, 0, 64, 0
1, 948264, Note_on_c, 0, 66, 104
1, 948318, Note_on_c, 0, 66, 0
1, 948318, Note_on_c, 0, 69, 0
1, 948318, Note_on_c, 0, 68, 110
1, 948321, Control_c, 0, 64, 0
1, 948321, Control_c, 0, 64, 0
1, 948321, Note_on_c, 0, 48, 104
1, 948324, Control_c, 0, 64, 0
1, 948324, Control_c, 0, 64, 0
1, 948408, Control_c, 0, 64, 0
1, 948408, Control_c, 0, 64, 0
1, 948408, Control_c, 0, 64, 0
1, 948411, Control_c, 0, 64, 0
1, 948522, Control_c, 0, 64, 127
1, 948522, Control_c, 0, 64, 127
1, 948522, Control_c, 0, 64, 127
1, 948525, Control_c, 0, 64, 127
1, 948750, Note_on_c, 0, 32, 0
1, 948966, Note_on_c, 0, 66, 108
1, 949038, Note_on_c, 0, 66, 0
1, 949038, Note_on_c, 0, 64, 108
1, 949111, Note_on_c, 0, 64, 0
1, 949111, Note_on_c, 0, 63, 108
1, 949178, Control_c, 0, 64, 0
1, 949178, Control_c, 0, 64, 0
1, 949178, Control_c, 0, 64, 0
1, 949181, Note_on_c, 0, 63, 0
1, 949181, Note_on_c, 0, 48, 0
1, 949181, Note_on_c, 0, 68, 0
1, 949181, Note_on_c, 0, 62, 109
1, 949181, Note_on_c, 0, 68, 109
1, 949181, Control_c, 0, 64, 0
1, 949181, Note_on_c, 0, 47, 109
1, 949230, Control_c, 0, 64, 0
1, 949230, Control_c, 0, 64, 0
1, 949230, Control_c, 0, 64, 0
1, 949233, Control_c, 0, 64, 0
1, 949239, Control_c, 0, 64, 0
1, 949239, Control_c, 0, 64, 0
1, 949239, Control_c, 0, 64, 0
1, 949242, Control_c, 0, 64, 0
1, 949397, Control_c, 0, 64, 127
1, 949397, Control_c, 0, 64, 127
1, 949397, Control_c, 0, 64, 127
1, 949400, Control_c, 0, 64, 127
1, 949830, Note_on_c, 0, 47, 0
1, 949830, Note_on_c, 0, 45, 104
1, 949913, Note_on_c, 0, 45, 0
1, 949913, Note_on_c, 0, 44, 113
1, 949997, Note_on_c, 0, 44, 0
1, 949997, Note_on_c, 0, 42, 114
1, 950067, Control_c, 0, 64, 0
1, 950067, Control_c, 0, 64, 0
1, 950067, Control_c, 0, 64, 0
1, 950070, Control_c, 0, 64, 0
1, 950080, Note_on_c, 0, 62, 0
1, 950080, Note_on_c, 0, 59, 103
1, 950080, Note_on_c, 0, 61, 114
1, 950083, Note_on_c, 0, 42, 0
1, 950083, Note_on_c, 0, 41, 117
1, 950083, Note_on_c, 0, 37, 114
1, 950158, Control_c, 0, 64, 0
1, 950158, Control_c, 0, 64, 0
1, 950158, Control_c, 0, 64, 0
1, 950161, Control_c, 0, 64, 0
1, 950401, Control_c, 0, 64, 127
1, 950401, Control_c, 0, 64, 127
1, 950401, Control_c, 0, 64, 127
1, 950404, Control_c, 0, 64, 127
1, 950829, Note_on_c, 0, 37, 0
1, 950829, Note_on_c, 0, 35, 117
1, 950922, Note_on_c, 0, 35, 0
1, 950922, Note_on_c, 0, 33, 117
1, 951030, Note_on_c, 0, 33, 0
1, 951030, Control_c, 0, 64, 0
1, 951030, Control_c, 0, 64, 0
1, 951030, Note_on_c, 0, 32, 117
1, 951030, Control_c, 0, 64, 0
1, 951030, Control_c, 0, 64, 0
1, 951136, Note_on_c, 0, 61, 0
1, 951136, Note_on_c, 0, 59, 0
1, 951136, Control_c, 0, 64, 0
1, 951139, Note_on_c, 0, 68, 0
1, 951139, Note_on_c, 0, 59, 104
1, 951139, Note_on_c, 0, 65, 109
1, 951142, Note_on_c, 0, 68, 117
1, 951142, Note_on_c, 0, 61, 98
1, 951142, Control_c, 0, 64, 0
1, 951145, Note_on_c, 0, 32, 0
1, 951145, Note_on_c, 0, 41, 0
1, 951145, Note_on_c, 0, 30, 110
1, 951329, Control_c, 0, 64, 127
1, 951329, Control_c, 0, 64, 127
1, 951838, Note_on_c, 0, 54, 102
1, 951892, Note_on_c, 0, 54, 0
1, 951892, Note_on_c, 0, 56, 102
1, 951946, Note_on_c, 0, 56, 0
1, 951946, Note_on_c, 0, 57, 102
1, 952000, Note_on_c, 0, 68, 0
1, 952000, Note_on_c, 0, 65, 0
1, 952000, Note_on_c, 0, 59, 0
1, 952003, Note_on_c, 0, 57, 0
1, 952003, Note_on_c, 0, 66, 98
1, 952003, Note_on_c, 0, 59, 117
1, 952006, Control_c, 0, 64, 0
1, 952006, Control_c, 0, 64, 0
1, 952090, Control_c, 0, 64, 0
1, 952090, Control_c, 0, 64, 0
1, 952204, Control_c, 0, 64, 127
1, 952204, Control_c, 0, 64, 127
1, 952648, Note_on_c, 0, 59, 0
1, 952648, Note_on_c, 0, 57, 102
1, 952720, Note_on_c, 0, 57, 0
1, 952720, Note_on_c, 0, 56, 102
1, 952793, Note_on_c, 0, 56, 0
1, 952793, Note_on_c, 0, 54, 102
1, 952860, Control_c, 0, 64, 0
1, 952860, Control_c, 0, 64, 0
1, 952864, Note_on_c, 0, 54, 0
1, 952864, Note_on_c, 0, 66, 0
1, 952864, Note_on_c, 0, 61, 0
1, 952867, Note_on_c, 0, 66, 116
1, 952912, Control_c, 0, 64, 0
1, 952912, Control_c, 0, 64, 0
1, 952921, Control_c, 0, 64, 0
1, 952921, Control_c, 0, 64, 0
1, 953079, Control_c, 0, 64, 127
1, 953079, Control_c, 0, 64, 127
1, 953296, Note_on_c, 0, 66, 0
1, 953296, Note_on_c, 0, 61, 110
1, 953566, Note_on_c, 0, 65, 103
1, 953620, Note_on_c, 0, 65, 0
1, 953620, Note_on_c, 0, 66, 103
1, 953674, Note_on_c, 0, 66, 0
1, 953674, Note_on_c, 0, 68, 103
1, 953717, Control_c, 0, 64, 0
1, 953717, Control_c, 0, 64, 0
1, 953728, Note_on_c, 0, 68, 0
1, 953728, Note_on_c, 0, 30, 0
1, 953728, Note_on_c, 0, 69, 117
1, 953731, Note_on_c, 0, 61, 0
1, 953731, Note_on_c, 0, 73, 117
1, 953796, Control_c, 0, 64, 0
1, 953796, Control_c, 0, 64, 0
1, 954006, Control_c, 0, 64, 127
1, 954006, Control_c, 0, 64, 127
1, 954376, Note_on_c, 0, 69, 0
1, 954376, Note_on_c, 0, 68, 103
1, 954459, Note_on_c, 0, 68, 0
1, 954459, Note_on_c, 0, 66, 103
1, 954543, Note_on_c, 0, 66, 0
1, 954543, Note_on_c, 0, 65, 103
1, 954546, Control_c, 0, 64, 0
1, 954546, Control_c, 0, 64, 0
1, 954667, Note_on_c, 0, 65, 0
1, 954667, Control_c, 0, 64, 0
1, 954667, Note_on_c, 0, 69, 115
1, 954670, Note_on_c, 0, 76, 117
1, 954670, Note_on_c, 0, 72, 107
1, 954670, Control_c, 0, 64, 0
1, 954673, Note_on_c, 0, 73, 0
1, 954673, Note_on_c, 0, 30, 110
1, 954673, Note_on_c, 0, 42, 110
1, 954860, Control_c, 0, 64, 127
1, 954860, Control_c, 0, 64, 127
1, 955369, Note_on_c, 0, 63, 102
1, 955423, Note_on_c, 0, 63, 0
1, 955423, Note_on_c, 0, 64, 102
1, 955477, Note_on_c, 0, 64, 0
1, 955477, Note_on_c, 0, 66, 102
1, 955531, Note_on_c, 0, 69, 0
1, 955531, Note_on_c, 0, 76, 0
1, 955531, Note_on_c, 0, 75, 103
1, 955534, Note_on_c, 0, 66, 0
1, 955534, Control_c, 0, 64, 0
1, 955534, Note_on_c, 0, 68, 117
1, 955537, Control_c, 0, 64, 0
1, 955621, Control_c, 0, 64, 0
1, 955621, Control_c, 0, 64, 0
1, 955735, Control_c, 0, 64, 127
1, 955735, Control_c, 0, 64, 127
1, 956179, Note_on_c, 0, 68, 0
1, 956179, Note_on_c, 0, 66, 102
1, 956251, Note_on_c, 0, 66, 0
1, 956251, Note_on_c, 0, 64, 102
1, 956324, Note_on_c, 0, 64, 0
1, 956324, Note_on_c, 0, 63, 102
1, 956391, Control_c, 0, 64, 0
1, 956391, Control_c, 0, 64, 0
1, 956395, Note_on_c, 0, 75, 0
1, 956395, Note_on_c, 0, 72, 0
1, 956395, Note_on_c, 0, 68, 102
1, 956398, Note_on_c, 0, 63, 0
1, 956398, Note_on_c, 0, 75, 110
1, 956398, Note_on_c, 0, 80, 117
1, 956401, Note_on_c, 0, 61, 110
1, 956443, Control_c, 0, 64, 0
1, 956443, Control_c, 0, 64, 0
1, 956452, Control_c, 0, 64, 0
1, 956452, Control_c, 0, 64, 0
1, 956610, Control_c, 0, 64, 127
1, 956610, Control_c, 0, 64, 127
1, 957097, Note_on_c, 0, 68, 0
1, 957097, Note_on_c, 0, 64, 102
1, 957151, Note_on_c, 0, 64, 0
1, 957151, Note_on_c, 0, 66, 102
1, 957205, Note_on_c, 0, 66, 0
1, 957205, Note_on_c, 0, 68, 102
1, 957248, Control_c, 0, 64, 0
1, 957248, Control_c, 0, 64, 0
1, 957259, Note_on_c, 0, 68, 0
1, 957259, Note_on_c, 0, 75, 0
1, 957259, Note_on_c, 0, 69, 117
1, 957262, Note_on_c, 0, 80, 0
1, 957262, Note_on_c, 0, 30, 0
1, 957262, Note_on_c, 0, 73, 110
1, 957265, Note_on_c, 0, 42, 0
1, 957265, Note_on_c, 0, 61, 0
1, 957265, Note_on_c, 0, 28, 110
1, 957268, Note_on_c, 0, 40, 110
1, 957327, Control_c, 0, 64, 0
1, 957327, Control_c, 0, 64, 0
1, 957537, Control_c, 0, 64, 127
1, 957537, Control_c, 0, 64, 127
1, 957907, Note_on_c, 0, 69, 0
1, 957907, Note_on_c, 0, 68, 102
1, 957979, Note_on_c, 0, 68, 0
1, 957979, Note_on_c, 0, 66, 102
1, 958052, Note_on_c, 0, 66, 0
1, 958052, Note_on_c, 0, 64, 102
1, 958052, Control_c, 0, 64, 0
1, 958052, Control_c, 0, 64, 0
1, 958123, Note_on_c, 0, 64, 0
1, 958123, Note_on_c, 0, 73, 0
1, 958123, Control_c, 0, 64, 0
1, 958126, Note_on_c, 0, 66, 115
1, 958126, Note_on_c, 0, 73, 117
1, 958126, Control_c, 0, 64, 0
1, 958129, Note_on_c, 0, 28, 0
1, 958129, Note_on_c, 0, 40, 0
1, 958129, Note_on_c, 0, 26, 110
1, 958132, Note_on_c, 0, 38, 110
1, 958316, Control_c, 0, 64, 127
1, 958316, Control_c, 0, 64, 127
1, 958825, Note_on_c, 0, 59, 102
1, 958879, Note_on_c, 0, 59, 0
1, 958879, Note_on_c, 0, 61, 102
1, 958933, Note_on_c, 0, 61, 0
1, 958933, Note_on_c, 0, 62, 102
1, 958987, Note_on_c, 0, 66, 0
1, 958987, Note_on_c, 0, 73, 0
1, 958987, Note_on_c, 0, 71, 103
1, 958990, Note_on_c, 0, 62, 0
1, 958990, Control_c, 0, 64, 0
1, 958990, Note_on_c, 0, 64, 117
1, 958993, Control_c, 0, 64, 0
1, 959077, Control_c, 0, 64, 0
1, 959077, Control_c, 0, 64, 0
1, 959191, Control_c, 0, 64, 127
1, 959191, Control_c, 0, 64, 127
1, 959635, Note_on_c, 0, 64, 0
1, 959635, Note_on_c, 0, 62, 102
1, 959707, Note_on_c, 0, 62, 0
1, 959707, Note_on_c, 0, 61, 102
1, 959780, Note_on_c, 0, 61, 0
1, 959780, Note_on_c, 0, 59, 102
1, 959847, Control_c, 0, 64, 0
1, 959847, Control_c, 0, 64, 0
1, 959851, Note_on_c, 0, 71, 0
1, 959851, Note_on_c, 0, 64, 102
1, 959851, Note_on_c, 0, 71, 110
1, 959854, Note_on_c, 0, 59, 0
1, 959854, Note_on_c, 0, 76, 117
1, 959854, Note_on_c, 0, 57, 110
1, 959899, Control_c, 0, 64, 0
1, 959899, Control_c, 0, 64, 0
1, 959908, Control_c, 0, 64, 0
1, 959908, Control_c, 0, 64, 0
1, 960066, Control_c, 0, 64, 127
1, 960066, Control_c, 0, 64, 127
1, 960553, Note_on_c, 0, 64, 0
1, 960553, Note_on_c, 0, 61, 102
1, 960607, Note_on_c, 0, 61, 0
1, 960607, Note_on_c, 0, 62, 102
1, 960661, Note_on_c, 0, 62, 0
1, 960661, Note_on_c, 0, 64, 102
1, 960704, Control_c, 0, 64, 0
1, 960704, Control_c, 0, 64, 0
1, 960715, Note_on_c, 0, 64, 0
1, 960715, Note_on_c, 0, 71, 0
1, 960715, Note_on_c, 0, 66, 117
1, 960718, Note_on_c, 0, 76, 0
1, 960718, Note_on_c, 0, 26, 0
1, 960718, Note_on_c, 0, 69, 110
1, 960721, Note_on_c, 0, 38, 0
1, 960721, Note_on_c, 0, 57, 0
1, 960721, Note_on_c, 0, 25, 110
1, 960724, Note_on_c, 0, 37, 110
1, 960783, Control_c, 0, 64, 0
1, 960783, Control_c, 0, 64, 0
1, 960993, Control_c, 0, 64, 127
1, 960993, Control_c, 0, 64, 127
1, 961363, Note_on_c, 0, 66, 0
1, 961363, Note_on_c, 0, 64, 102
1, 961446, Note_on_c, 0, 64, 0
1, 961446, Note_on_c, 0, 62, 102
1, 961530, Note_on_c, 0, 62, 0
1, 961530, Note_on_c, 0, 61, 102
1, 961533, Control_c, 0, 64, 0
1, 961533, Control_c, 0, 64, 0
1, 961654, Note_on_c, 0, 61, 0
1, 961654, Note_on_c, 0, 69, 0
1, 961654, Control_c, 0, 64, 0
1, 961657, Note_on_c, 0, 62, 115
1, 961657, Note_on_c, 0, 65, 115
1, 961657, Note_on_c, 0, 69, 117
1, 961660, Note_on_c, 0, 25, 0
1, 961660, Note_on_c, 0, 37, 0
1, 961660, Control_c, 0, 64, 0
1, 961663, Note_on_c, 0, 23, 115
1, 961663, Note_on_c, 0, 35, 115
1, 961847, Control_c, 0, 64, 127
1, 961847, Control_c, 0, 64, 127
1, 962356, Note_on_c, 0, 47, 106
1, 962410, Note_on_c, 0, 47, 0
1, 962410, Note_on_c, 0, 49, 106
1, 962464, Note_on_c, 0, 49, 0
1, 962464, Note_on_c, 0, 50, 106
1, 962518, Note_on_c, 0, 50, 0
1, 962518, Note_on_c, 0, 69, 0
1, 962518, Note_on_c, 0, 68, 117
1, 962521, Control_c, 0, 64, 0
1, 962521, Note_on_c, 0, 52, 117
1, 962521, Control_c, 0, 64, 0
1, 962608, Control_c, 0, 64, 0
1, 962608, Control_c, 0, 64, 0
1, 962722, Control_c, 0, 64, 127
1, 962722, Control_c, 0, 64, 127
1, 963166, Note_on_c, 0, 52, 0
1, 963166, Note_on_c, 0, 50, 106
1, 963238, Note_on_c, 0, 50, 0
1, 963238, Note_on_c, 0, 49, 106
1, 963311, Note_on_c, 0, 49, 0
1, 963311, Note_on_c, 0, 47, 106
1, 963378, Control_c, 0, 64, 0
1, 963378, Control_c, 0, 64, 0
1, 963382, Note_on_c, 0, 62, 0
1, 963382, Note_on_c, 0, 65, 0
1, 963382, Note_on_c, 0, 68, 0
1, 963385, Note_on_c, 0, 61, 113
1, 963385, Note_on_c, 0, 68, 117
1, 963385, Note_on_c, 0, 73, 113
1, 963388, Note_on_c, 0, 23, 0
1, 963388, Note_on_c, 0, 47, 0
1, 963388, Note_on_c, 0, 35, 0
1, 963391, Note_on_c, 0, 45, 115
1, 963391, Note_on_c, 0, 59, 117
1, 963445, Control_c, 0, 64, 0
1, 963445, Control_c, 0, 64, 0
1, 963456, Control_c, 0, 64, 0
1, 963456, Control_c, 0, 64, 0
1, 963661, Control_c, 0, 64, 127
1, 963661, Control_c, 0, 64, 127
1, 963944, Note_on_c, 0, 68, 0
1, 963944, Note_on_c, 0, 66, 117
1, 964160, Note_on_c, 0, 59, 0
1, 964160, Note_on_c, 0, 57, 106
1, 964232, Note_on_c, 0, 57, 0
1, 964232, Note_on_c, 0, 56, 106
1, 964304, Note_on_c, 0, 56, 0
1, 964304, Note_on_c, 0, 54, 106
1, 964365, Control_c, 0, 64, 0
1, 964365, Control_c, 0, 64, 0
1, 964376, Note_on_c, 0, 61, 0
1, 964376, Note_on_c, 0, 66, 0
1, 964376, Note_on_c, 0, 64, 117
1, 964379, Note_on_c, 0, 73, 0
1, 964379, Note_on_c, 0, 60, 109
1, 964379, Note_on_c, 0, 72, 109
1, 964382, Note_on_c, 0, 54, 0
1, 964382, Note_on_c, 0, 45, 0
1, 964382, Note_on_c, 0, 44, 115
1, 964385, Note_on_c, 0, 56, 115
1, 964454, Control_c, 0, 64, 0
1, 964454, Control_c, 0, 64, 0
1, 964697, Control_c, 0, 64, 127
1, 964697, Control_c, 0, 64, 127
1, 965125, Note_on_c, 0, 64, 0
1, 965125, Note_on_c, 0, 63, 117
1, 965200, Control_c, 0, 64, 0
1, 965200, Control_c, 0, 64, 0
1, 965218, Note_on_c, 0, 63, 0
1, 965218, Note_on_c, 0, 61, 117
1, 965304, Control_c, 0, 64, 127
1, 965304, Control_c, 0, 64, 127
1, 965312, Note_on_c, 0, 61, 0
1, 965312, Note_on_c, 0, 60, 117
1, 965419, Note_on_c, 0, 60, 0
1, 965419, Note_on_c, 0, 60, 0
1, 965419, Control_c, 0, 64, 127
1, 965422, Note_on_c, 0, 72, 0
1, 965422, Note_on_c, 0, 60, 117
1, 965422, Note_on_c, 0, 63, 114
1, 965425, Note_on_c, 0, 66, 117
1, 965425, Note_on_c, 0, 69, 117
1, 965425, Note_on_c, 0, 72, 117
1, 965428, Note_on_c, 0, 44, 0
1, 965428, Note_on_c, 0, 56, 0
1, 965428, Control_c, 0, 64, 127
1, 965431, Note_on_c, 0, 37, 117
1, 965507, Control_c, 0, 64, 0
1, 965507, Control_c, 0, 64, 0
1, 966005, Control_c, 0, 64, 127
1, 966005, Control_c, 0, 64, 127
1, 966121, Note_on_c, 0, 37, 0
1, 966121, Note_on_c, 0, 42, 110
1, 966175, Note_on_c, 0, 42, 0
1, 966175, Note_on_c, 0, 44, 110
1, 966229, Note_on_c, 0, 44, 0
1, 966229, Note_on_c, 0, 45, 109
1, 966283, Note_on_c, 0, 45, 0
1, 966283, Note_on_c, 0, 47, 117
1, 966320, Control_c, 0, 64, 0
1, 966320, Control_c, 0, 64, 0
1, 966644, Control_c, 0, 64, 127
1, 966644, Control_c, 0, 64, 127
1, 966931, Note_on_c, 0, 47, 0
1, 966931, Note_on_c, 0, 45, 105
1, 967003, Note_on_c, 0, 45, 0
1, 967003, Note_on_c, 0, 44, 105
1, 967075, Note_on_c, 0, 44, 0
1, 967075, Note_on_c, 0, 42, 104
1, 967147, Note_on_c, 0, 61, 96
1, 967147, Note_on_c, 0, 64, 96
1, 967147, Note_on_c, 0, 68, 96
1, 967150, Note_on_c, 0, 42, 0
1, 967150, Note_on_c, 0, 73, 108
1, 967150, Note_on_c, 0, 40, 112
1, 967160, Control_c, 0, 64, 0
1, 967160, Control_c, 0, 64, 0
1, 967164, Note_on_c, 0, 66, 0
1, 967164, Note_on_c, 0, 60, 0
1, 967164, Note_on_c, 0, 63, 0
1, 967167, Note_on_c, 0, 72, 0
1, 967167, Note_on_c, 0, 69, 0
1, 967410, Note_on_c, 0, 40, 0
1, 967579, Note_on_c, 0, 37, 110
1, 967883, Note_on_c, 0, 37, 0
1, 968078, Note_on_c, 0, 61, 0
1, 968078, Note_on_c, 0, 68, 0
1, 968078, Note_on_c, 0, 64, 0
1, 968081, Note_on_c, 0, 73, 0
1, 968081, Note_on_c, 0, 61, 117
1, 968942, Note_on_c, 0, 60, 90
1, 968942, Note_on_c, 0, 63, 90
1, 968942, Note_on_c, 0, 68, 99
1, 968945, Note_on_c, 0, 61, 0
1, 968945, Note_on_c, 0, 32, 99
1, 969134, Control_c, 0, 64, 127
1, 969134, Control_c, 0, 64, 127
1, 969374, Note_on_c, 0, 60, 0
1, 969374, Note_on_c, 0, 68, 0
1, 969374, Note_on_c, 0, 63, 0
1, 969644, Note_on_c, 0, 63, 92
1, 969698, Note_on_c, 0, 63, 0
1, 969698, Note_on_c, 0, 64, 92
1, 969752, Note_on_c, 0, 64, 0
1, 969752, Note_on_c, 0, 66, 92
1, 969806, Note_on_c, 0, 66, 0
1, 969806, Note_on_c, 0, 68, 113
1, 969809, Control_c, 0, 64, 0
1, 969809, Control_c, 0, 64, 0
1, 969905, Control_c, 0, 64, 127
1, 969905, Control_c, 0, 64, 127
1, 970454, Note_on_c, 0, 66, 92
1, 970526, Note_on_c, 0, 66, 0
1, 970526, Note_on_c, 0, 64, 92
1, 970598, Note_on_c, 0, 64, 0
1, 970598, Note_on_c, 0, 63, 92
1, 970670, Note_on_c, 0, 68, 0
1, 970670, Note_on_c, 0, 68, 107
1, 970670, Note_on_c, 0, 69, 109
1, 970673, Note_on_c, 0, 63, 0
1, 970673, Note_on_c, 0, 32, 0
1, 970673, Note_on_c, 0, 64, 99
1, 970718, Control_c, 0, 64, 0
1, 970718, Control_c, 0, 64, 0
1, 970797, Control_c, 0, 64, 127
1, 970797, Control_c, 0, 64, 127
1, 971318, Note_on_c, 0, 64, 0
1, 971318, Note_on_c, 0, 63, 92
1, 971390, Note_on_c, 0, 63, 0
1, 971390, Note_on_c, 0, 61, 92
1, 971462, Note_on_c, 0, 61, 0
1, 971462, Note_on_c, 0, 60, 92
1, 971523, Control_c, 0, 64, 0
1, 971523, Control_c, 0, 64, 0
1, 971534, Note_on_c, 0, 68, 0
1, 971534, Note_on_c, 0, 69, 0
1, 971534, Note_on_c, 0, 69, 107
1, 971537, Note_on_c, 0, 60, 0
1, 971537, Note_on_c, 0, 76, 109
1, 971537, Note_on_c, 0, 61, 99
1, 971628, Control_c, 0, 64, 127
1, 971628, Control_c, 0, 64, 127
1, 972182, Note_on_c, 0, 61, 0
1, 972182, Note_on_c, 0, 59, 92
1, 972254, Note_on_c, 0, 59, 0
1, 972254, Note_on_c, 0, 57, 92
1, 972326, Note_on_c, 0, 57, 0
1, 972326, Control_c, 0, 64, 0
1, 972326, Note_on_c, 0, 56, 92
1, 972326, Control_c, 0, 64, 0
1, 972398, Note_on_c, 0, 76, 0
1, 972398, Note_on_c, 0, 69, 0
1, 972398, Note_on_c, 0, 76, 115
1, 972401, Note_on_c, 0, 56, 0
1, 972401, Note_on_c, 0, 69, 99
1, 972401, Note_on_c, 0, 54, 99
1, 972590, Control_c, 0, 64, 127
1, 972590, Control_c, 0, 64, 127
1, 972830, Note_on_c, 0, 54, 0
1, 972830, Note_on_c, 0, 32, 99
1, 973100, Note_on_c, 0, 69, 0
1, 973100, Note_on_c, 0, 69, 92
1, 973154, Note_on_c, 0, 71, 92
1, 973208, Note_on_c, 0, 71, 0
1, 973208, Note_on_c, 0, 73, 92
1, 973262, Note_on_c, 0, 73, 0
1, 973262, Note_on_c, 0, 76, 0
1, 973262, Note_on_c, 0, 74, 104
1, 973265, Control_c, 0, 64, 0
1, 973265, Note_on_c, 0, 54, 115
1, 973265, Control_c, 0, 64, 0
1, 973352, Control_c, 0, 64, 0
1, 973352, Control_c, 0, 64, 0
1, 973465, Control_c, 0, 64, 127
1, 973465, Control_c, 0, 64, 127
1, 973694, Note_on_c, 0, 32, 0
1, 973910, Note_on_c, 0, 74, 0
1, 973910, Note_on_c, 0, 73, 92
1, 973982, Note_on_c, 0, 73, 0
1, 973982, Note_on_c, 0, 71, 92
1, 974054, Note_on_c, 0, 71, 0
1, 974054, Note_on_c, 0, 69, 92
1, 974122, Control_c, 0, 64, 0
1, 974122, Control_c, 0, 64, 0
1, 974126, Note_on_c, 0, 69, 0
1, 974126, Note_on_c, 0, 54, 0
1, 974126, Note_on_c, 0, 74, 99
1, 974129, Note_on_c, 0, 53, 99
1, 974174, Control_c, 0, 64, 0
1, 974174, Control_c, 0, 64, 0
1, 974183, Control_c, 0, 64, 0
1, 974183, Control_c, 0, 64, 0
1, 974340, Control_c, 0, 64, 127
1, 974340, Control_c, 0, 64, 127
1, 974828, Note_on_c, 0, 53, 0
1, 974828, Note_on_c, 0, 52, 92
1, 974882, Note_on_c, 0, 52, 0
1, 974882, Note_on_c, 0, 54, 92
1, 974936, Note_on_c, 0, 54, 0
1, 974936, Note_on_c, 0, 56, 92
1, 974979, Control_c, 0, 64, 0
1, 974979, Control_c, 0, 64, 0
1, 974990, Note_on_c, 0, 74, 0
1, 974990, Note_on_c, 0, 69, 0
1, 974990, Note_on_c, 0, 68, 90
1, 974993, Note_on_c, 0, 56, 0
1, 974993, Note_on_c, 0, 73, 99
1, 974993, Note_on_c, 0, 57, 99
1, 975058, Control_c, 0, 64, 0
1, 975058, Control_c, 0, 64, 0
1, 975268, Control_c, 0, 64, 127
1, 975268, Control_c, 0, 64, 127
1, 975638, Note_on_c, 0, 57, 0
1, 975638, Note_on_c, 0, 56, 92
1, 975710, Note_on_c, 0, 56, 0
1, 975710, Note_on_c, 0, 54, 92
1, 975782, Note_on_c, 0, 54, 0
1, 975782, Control_c, 0, 64, 0
1, 975782, Note_on_c, 0, 52, 92
1, 975782, Control_c, 0, 64, 0
1, 975854, Note_on_c, 0, 73, 0
1, 975854, Control_c, 0, 64, 0
1, 975854, Note_on_c, 0, 73, 115
1, 975857, Note_on_c, 0, 52, 0
1, 975857, Control_c, 0, 64, 0
1, 975857, Note_on_c, 0, 51, 99
1, 976046, Control_c, 0, 64, 127
1, 976046, Control_c, 0, 64, 127
1, 976286, Note_on_c, 0, 51, 0
1, 976286, Note_on_c, 0, 32, 99
1, 976556, Note_on_c, 0, 68, 0
1, 976556, Note_on_c, 0, 66, 99
1, 976610, Note_on_c, 0, 68, 99
1, 976664, Note_on_c, 0, 68, 0
1, 976664, Note_on_c, 0, 69, 99
1, 976718, Note_on_c, 0, 69, 0
1, 976718, Note_on_c, 0, 73, 0
1, 976718, Note_on_c, 0, 71, 99
1, 976721, Control_c, 0, 64, 0
1, 976721, Note_on_c, 0, 51, 99
1, 976721, Control_c, 0, 64, 0
1, 976808, Control_c, 0, 64, 0
1, 976808, Control_c, 0, 64, 0
1, 976921, Control_c, 0, 64, 127
1, 976921, Control_c, 0, 64, 127
1, 977150, Note_on_c, 0, 32, 0
1, 977366, Note_on_c, 0, 71, 0
1, 977366, Note_on_c, 0, 69, 99
1, 977438, Note_on_c, 0, 69, 0
1, 977438, Note_on_c, 0, 68, 99
1, 977510, Note_on_c, 0, 68, 0
1, 977510, Note_on_c, 0, 66, 99
1, 977578, Control_c, 0, 64, 0
1, 977578, Control_c, 0, 64, 0
1, 977582, Note_on_c, 0, 66, 0
1, 977582, Note_on_c, 0, 66, 0
1, 977582, Note_on_c, 0, 65, 99
1, 977585, Note_on_c, 0, 51, 0
1, 977585, Note_on_c, 0, 71, 99
1, 977585, Note_on_c, 0, 50, 99
1, 977630, Control_c, 0, 64, 0
1, 977630, Control_c, 0, 64, 0
1, 977639, Control_c, 0, 64, 0
1, 977639, Control_c, 0, 64, 0
1, 977796, Control_c, 0, 64, 127
1, 977796, Control_c, 0, 64, 127
1, 978284, Note_on_c, 0, 50, 0
1, 978284, Note_on_c, 0, 49, 92
1, 978338, Note_on_c, 0, 49, 0
1, 978338, Note_on_c, 0, 51, 92
1, 978392, Note_on_c, 0, 51, 0
1, 978392, Note_on_c, 0, 53, 92
1, 978435, Control_c, 0, 64, 0
1, 978435, Control_c, 0, 64, 0
1, 978446, Note_on_c, 0, 71, 0
1, 978446, Note_on_c, 0, 65, 0
1, 978446, Note_on_c, 0, 64, 90
1, 978449, Note_on_c, 0, 53, 0
1, 978449, Note_on_c, 0, 69, 99
1, 978449, Note_on_c, 0, 54, 99
1, 978514, Control_c, 0, 64, 0
1, 978514, Control_c, 0, 64, 0
1, 978724, Control_c, 0, 64, 127
1, 978724, Control_c, 0, 64, 127
1, 979094, Note_on_c, 0, 54, 0
1, 979094, Note_on_c, 0, 52, 92
1, 979166, Note_on_c, 0, 52, 0
1, 979166, Note_on_c, 0, 51, 92
1, 979238, Note_on_c, 0, 51, 0
1, 979238, Control_c, 0, 64, 0
1, 979238, Note_on_c, 0, 49, 92
1, 979238, Control_c, 0, 64, 0
1, 979310, Note_on_c, 0, 64, 0
1, 979310, Control_c, 0, 64, 0
1, 979310, Control_c, 0, 64, 0
1, 979313, Note_on_c, 0, 64, 99
1, 979313, Control_c, 0, 64, 0
1, 979313, Control_c, 0, 64, 0
1, 979316, Note_on_c, 0, 49, 0
1, 979316, Note_on_c, 0, 48, 99
1, 979502, Control_c, 0, 64, 127
1, 979502, Control_c, 0, 64, 127
1, 979502, Control_c, 0, 64, 127
1, 979505, Control_c, 0, 64, 127
1, 979742, Note_on_c, 0, 48, 0
1, 979742, Note_on_c, 0, 32, 102
1, 980012, Note_on_c, 0, 64, 0
1, 980012, Note_on_c, 0, 63, 103
1, 980066, Note_on_c, 0, 63, 0
1, 980066, Note_on_c, 0, 64, 104
1, 980120, Note_on_c, 0, 64, 0
1, 980120, Note_on_c, 0, 66, 104
1, 980174, Note_on_c, 0, 66, 0
1, 980174, Note_on_c, 0, 69, 0
1, 980174, Note_on_c, 0, 68, 110
1, 980177, Control_c, 0, 64, 0
1, 980177, Control_c, 0, 64, 0
1, 980177, Note_on_c, 0, 48, 104
1, 980180, Control_c, 0, 64, 0
1, 980180, Control_c, 0, 64, 0
1, 980264, Control_c, 0, 64, 0
1, 980264, Control_c, 0, 64, 0
1, 980264, Control_c, 0, 64, 0
1, 980267, Control_c, 0, 64, 0
1, 980377, Control_c, 0, 64, 127
1, 980377, Control_c, 0, 64, 127
1, 980377, Control_c, 0, 64, 127
1, 980380, Control_c, 0, 64, 127
1, 980606, Note_on_c, 0, 32, 0
1, 980822, Note_on_c, 0, 66, 108
1, 980894, Note_on_c, 0, 66, 0
1, 980894, Note_on_c, 0, 64, 108
1, 980966, Note_on_c, 0, 64, 0
1, 980966, Note_on_c, 0, 63, 108
1, 981034, Control_c, 0, 64, 0
1, 981034, Control_c, 0, 64, 0
1, 981034, Control_c, 0, 64, 0
1, 981037, Note_on_c, 0, 63, 0
1, 981037, Note_on_c, 0, 48, 0
1, 981037, Note_on_c, 0, 68, 0
1, 981037, Note_on_c, 0, 62, 109
1, 981037, Note_on_c, 0, 68, 109
1, 981037, Control_c, 0, 64, 0
1, 981037, Note_on_c, 0, 47, 109
1, 981086, Control_c, 0, 64, 0
1, 981086, Control_c, 0, 64, 0
1, 981086, Control_c, 0, 64, 0
1, 981089, Control_c, 0, 64, 0
1, 981095, Control_c, 0, 64, 0
1, 981095, Control_c, 0, 64, 0
1, 981095, Control_c, 0, 64, 0
1, 981098, Control_c, 0, 64, 0
1, 981252, Control_c, 0, 64, 127
1, 981252, Control_c, 0, 64, 127
1, 981252, Control_c, 0, 64, 127
1, 981255, Control_c, 0, 64, 127
1, 981686, Note_on_c, 0, 47, 0
1, 981686, Note_on_c, 0, 45, 104
1, 981769, Note_on_c, 0, 45, 0
1, 981769, Note_on_c, 0, 44, 113
1, 981853, Note_on_c, 0, 44, 0
1, 981853, Note_on_c, 0, 42, 114
1, 981923, Control_c, 0, 64, 0
1, 981923, Control_c, 0, 64, 0
1, 981923, Control_c, 0, 64, 0
1, 981926, Control_c, 0, 64, 0
1, 981936, Note_on_c, 0, 62, 0
1, 981936, Note_on_c, 0, 59, 103
1, 981936, Note_on_c, 0, 61, 114
1, 981939, Note_on_c, 0, 42, 0
1, 981939, Note_on_c, 0, 41, 117
1, 981939, Note_on_c, 0, 37, 114
1, 982014, Control_c, 0, 64, 0
1, 982014, Control_c, 0, 64, 0
1, 982014, Control_c, 0, 64, 0
1, 982017, Control_c, 0, 64, 0
1, 982256, Control_c, 0, 64, 127
1, 982256, Control_c, 0, 64, 127
1, 982256, Control_c, 0, 64, 127
1, 982259, Control_c, 0, 64, 127
1, 982685, Note_on_c, 0, 37, 0
1, 982685, Note_on_c, 0, 35, 117
1, 982778, Note_on_c, 0, 35, 0
1, 982778, Note_on_c, 0, 33, 117
1, 982886, Note_on_c, 0, 33, 0
1, 982886, Control_c, 0, 64, 0
1, 982886, Control_c, 0, 64, 0
1, 982886, Note_on_c, 0, 32, 117
1, 982886, Control_c, 0, 64, 0
1, 982886, Control_c, 0, 64, 0
1, 982992, Note_on_c, 0, 61, 0
1, 982992, Note_on_c, 0, 59, 0
1, 982992, Control_c, 0, 64, 0
1, 982995, Note_on_c, 0, 68, 0
1, 982995, Note_on_c, 0, 59, 104
1, 982995, Note_on_c, 0, 65, 109
1, 982998, Note_on_c, 0, 68, 117
1, 982998, Note_on_c, 0, 61, 98
1, 982998, Control_c, 0, 64, 0
1, 983001, Note_on_c, 0, 32, 0
1, 983001, Note_on_c, 0, 41, 0
1, 983001, Note_on_c, 0, 30, 110
1, 983184, Control_c, 0, 64, 127
1, 983184, Control_c, 0, 64, 127
1, 983694, Note_on_c, 0, 54, 102
1, 983748, Note_on_c, 0, 54, 0
1, 983748, Note_on_c, 0, 56, 102
1, 983802, Note_on_c, 0, 56, 0
1, 983802, Note_on_c, 0, 57, 102
1, 983856, Note_on_c, 0, 68, 0
1, 983856, Note_on_c, 0, 65, 0
1, 983856, Note_on_c, 0, 59, 0
1, 983859, Note_on_c, 0, 57, 0
1, 983859, Note_on_c, 0, 66, 98
1, 983859, Note_on_c, 0, 59, 117
1, 983862, Control_c, 0, 64, 0
1, 983862, Control_c, 0, 64, 0
1, 983946, Control_c, 0, 64, 0
1, 983946, Control_c, 0, 64, 0
1, 984059, Control_c, 0, 64, 127
1, 984059, Control_c, 0, 64, 127
1, 984504, Note_on_c, 0, 59, 0
1, 984504, Note_on_c, 0, 57, 102
1, 984576, Note_on_c, 0, 57, 0
1, 984576, Note_on_c, 0, 56, 102
1, 984648, Note_on_c, 0, 56, 0
1, 984648, Note_on_c, 0, 54, 102
1, 984716, Control_c, 0, 64, 0
1, 984716, Control_c, 0, 64, 0
1, 984720, Note_on_c, 0, 54, 0
1, 984720, Note_on_c, 0, 66, 0
1, 984720, Note_on_c, 0, 61, 0
1, 984723, Note_on_c, 0, 66, 116
1, 984768, Control_c, 0, 64, 0
1, 984768, Control_c, 0, 64, 0
1, 984777, Control_c, 0, 64, 0
1, 984777, Control_c, 0, 64, 0
1, 984934, Control_c, 0, 64, 127
1, 984934, Control_c, 0, 64, 127
1, 985152, Note_on_c, 0, 66, 0
1, 985152, Note_on_c, 0, 61, 110
1, 985422, Note_on_c, 0, 65, 103
1, 985476, Note_on_c, 0, 65, 0
1, 985476, Note_on_c, 0, 66, 103
1, 985530, Note_on_c, 0, 66, 0
1, 985530, Note_on_c, 0, 68, 103
1, 985573, Control_c, 0, 64, 0
1, 985573, Control_c, 0, 64, 0
1, 985584, Note_on_c, 0, 68, 0
1, 985584, Note_on_c, 0, 30, 0
1, 985584, Note_on_c, 0, 69, 117
1, 985587, Note_on_c, 0, 61, 0
1, 985587, Note_on_c, 0, 73, 117
1, 985652, Control_c, 0, 64, 0
1, 985652, Control_c, 0, 64, 0
1, 985862, Control_c, 0, 64, 127
1, 985862, Control_c, 0, 64, 127
1, 986232, Note_on_c, 0, 69, 0
1, 986232, Note_on_c, 0, 68, 103
1, 986315, Note_on_c, 0, 68, 0
1, 986315, Note_on_c, 0, 66, 103
1, 986399, Note_on_c, 0, 66, 0
1, 986399, Note_on_c, 0, 65, 103
1, 986402, Control_c, 0, 64, 0
1, 986402, Control_c, 0, 64, 0
1, 986523, Note_on_c, 0, 65, 0
1, 986523, Control_c, 0, 64, 0
1, 986523, Note_on_c, 0, 69, 115
1, 986526, Note_on_c, 0, 76, 117
1, 986526, Note_on_c, 0, 72, 107
1, 986526, Control_c, 0, 64, 0
1, 986529, Note_on_c, 0, 73, 0
1, 986529, Note_on_c, 0, 30, 110
1, 986529, Note_on_c, 0, 42, 110
1, 986716, Control_c, 0, 64, 127
1, 986716, Control_c, 0, 64, 127
1, 987225, Note_on_c, 0, 63, 102
1, 987279, Note_on_c, 0, 63, 0
1, 987279, Note_on_c, 0, 64, 102
1, 987333, Note_on_c, 0, 64, 0
1, 987333, Note_on_c, 0, 66, 102
1, 987387, Note_on_c, 0, 69, 0
1, 987387, Note_on_c, 0, 76, 0
1, 987387, Note_on_c, 0, 75, 103
1, 987390, Note_on_c, 0, 66, 0
1, 987390, Control_c, 0, 64, 0
1, 987390, Note_on_c, 0, 68, 117
1, 987393, Control_c, 0, 64, 0
1, 987477, Control_c, 0, 64, 0
1, 987477, Control_c, 0, 64, 0
1, 987590, Control_c, 0, 64, 127
1, 987590, Control_c, 0, 64, 127
1, 988035, Note_on_c, 0, 68, 0
1, 988035, Note_on_c, 0, 66, 102
1, 988107, Note_on_c, 0, 66, 0
1, 988107, Note_on_c, 0, 64, 102
1, 988179, Note_on_c, 0, 64, 0
1, 988179, Note_on_c, 0, 63, 102
1, 988247, Control_c, 0, 64, 0
1, 988247, Control_c, 0, 64, 0
1, 988251, Note_on_c, 0, 75, 0
1, 988251, Note_on_c, 0, 72, 0
1, 988251, Note_on_c, 0, 68, 102
1, 988254, Note_on_c, 0, 63, 0
1, 988254, Note_on_c, 0, 75, 110
1, 988254, Note_on_c, 0, 80, 117
1, 988257, Note_on_c, 0, 61, 110
1, 988299, Control_c, 0, 64, 0
1, 988299, Control_c, 0, 64, 0
1, 988308, Control_c, 0, 64, 0
1, 988308, Control_c, 0, 64, 0
1, 988465, Control_c, 0, 64, 127
1, 988465, Control_c, 0, 64, 127
1, 988953, Note_on_c, 0, 68, 0
1, 988953, Note_on_c, 0, 64, 102
1, 989007, Note_on_c, 0, 64, 0
1, 989007, Note_on_c, 0, 66, 102
1, 989061, Note_on_c, 0, 66, 0
1, 989061, Note_on_c, 0, 68, 102
1, 989104, Control_c, 0, 64, 0
1, 989104, Control_c, 0, 64, 0
1, 989115, Note_on_c, 0, 68, 0
1, 989115, Note_on_c, 0, 75, 0
1, 989115, Note_on_c, 0, 69, 117
1, 989118, Note_on_c, 0, 80, 0
1, 989118, Note_on_c, 0, 30, 0
1, 989118, Note_on_c, 0, 73, 110
1, 989121, Note_on_c, 0, 42, 0
1, 989121, Note_on_c, 0, 61, 0
1, 989121, Note_on_c, 0, 28, 110
1, 989124, Note_on_c, 0, 40, 110
1, 989183, Control_c, 0, 64, 0
1, 989183, Control_c, 0, 64, 0
1, 989393, Control_c, 0, 64, 127
1, 989393, Control_c, 0, 64, 127
1, 989763, Note_on_c, 0, 69, 0
1, 989763, Note_on_c, 0, 68, 102
1, 989835, Note_on_c, 0, 68, 0
1, 989835, Note_on_c, 0, 66, 102
1, 989907, Note_on_c, 0, 66, 0
1, 989907, Note_on_c, 0, 64, 102
1, 989907, Control_c, 0, 64, 0
1, 989907, Control_c, 0, 64, 0
1, 989979, Note_on_c, 0, 64, 0
1, 989979, Note_on_c, 0, 73, 0
1, 989979, Control_c, 0, 64, 0
1, 989982, Note_on_c, 0, 66, 115
1, 989982, Note_on_c, 0, 73, 117
1, 989982, Control_c, 0, 64, 0
1, 989985, Note_on_c, 0, 28, 0
1, 989985, Note_on_c, 0, 40, 0
1, 989985, Note_on_c, 0, 26, 110
1, 989988, Note_on_c, 0, 38, 110
1, 990172, Control_c, 0, 64, 127
1, 990172, Control_c, 0, 64, 127
1, 990681, Note_on_c, 0, 59, 102
1, 990735, Note_on_c, 0, 59, 0
1, 990735, Note_on_c, 0, 61, 102
1, 990789, Note_on_c, 0, 61, 0
1, 990789, Note_on_c, 0, 62, 102
1, 990843, Note_on_c, 0, 66, 0
1, 990843, Note_on_c, 0, 73, 0
1, 990843, Note_on_c, 0, 71, 103
1, 990846, Note_on_c, 0, 62, 0
1, 990846, Control_c, 0, 64, 0
1, 990846, Note_on_c, 0, 64, 117
1, 990849, Control_c, 0, 64, 0
1, 990933, Control_c, 0, 64, 0
1, 990933, Control_c, 0, 64, 0
1, 991046, Control_c, 0, 64, 127
1, 991046, Control_c, 0, 64, 127
1, 991491, Note_on_c, 0, 64, 0
1, 991491, Note_on_c, 0, 62, 102
1, 991563, Note_on_c, 0, 62, 0
1, 991563, Note_on_c, 0, 61, 102
1, 991635, Note_on_c, 0, 61, 0
1, 991635, Note_on_c, 0, 59, 102
1, 991703, Control_c, 0, 64, 0
1, 991703, Control_c, 0, 64, 0
1, 991707, Note_on_c, 0, 71, 0
1, 991707, Note_on_c, 0, 64, 102
1, 991707, Note_on_c, 0, 71, 110
1, 991710, Note_on_c, 0, 59, 0
1, 991710, Note_on_c, 0, 76, 117
1, 991710, Note_on_c, 0, 57, 110
1, 991755, Control_c, 0, 64, 0
1, 991755, Control_c, 0, 64, 0
1, 991764, Control_c, 0, 64, 0
1, 991764, Control_c, 0, 64, 0
1, 991921, Control_c, 0, 64, 127
1, 991921, Control_c, 0, 64, 127
1, 992409, Note_on_c, 0, 64, 0
1, 992409, Note_on_c, 0, 61, 102
1, 992463, Note_on_c, 0, 61, 0
1, 992463, Note_on_c, 0, 62, 102
1, 992517, Note_on_c, 0, 62, 0
1, 992517, Note_on_c, 0, 64, 102
1, 992560, Control_c, 0, 64, 0
1, 992560, Control_c, 0, 64, 0
1, 992571, Note_on_c, 0, 64, 0
1, 992571, Note_on_c, 0, 71, 0
1, 992571, Note_on_c, 0, 66, 117
1, 992574, Note_on_c, 0, 76, 0
1, 992574, Note_on_c, 0, 26, 0
1, 992574, Note_on_c, 0, 69, 110
1, 992577, Note_on_c, 0, 38, 0
1, 992577, Note_on_c, 0, 57, 0
1, 992577, Note_on_c, 0, 25, 110
1, 992580, Note_on_c, 0, 37, 110
1, 992639, Control_c, 0, 64, 0
1, 992639, Control_c, 0, 64, 0
1, 992849, Control_c, 0, 64, 127
1, 992849, Control_c, 0, 64, 127
1, 993219, Note_on_c, 0, 66, 0
1, 993219, Note_on_c, 0, 64, 102
1, 993302, Note_on_c, 0, 64, 0
1, 993302, Note_on_c, 0, 62, 102
1, 993386, Note_on_c, 0, 62, 0
1, 993386, Note_on_c, 0, 61, 102
1, 993389, Control_c, 0, 64, 0
1, 993389, Control_c, 0, 64, 0
1, 993510, Note_on_c, 0, 61, 0
1, 993510, Note_on_c, 0, 69, 0
1, 993510, Control_c, 0, 64, 0
1, 993513, Note_on_c, 0, 62, 115
1, 993513, Note_on_c, 0, 65, 115
1, 993513, Note_on_c, 0, 69, 117
1, 993516, Note_on_c, 0, 25, 0
1, 993516, Note_on_c, 0, 37, 0
1, 993516, Control_c, 0, 64, 0
1, 993519, Note_on_c, 0, 23, 115
1, 993519, Note_on_c, 0, 35, 115
1, 993703, Control_c, 0, 64, 127
1, 993703, Control_c, 0, 64, 127
1, 994212, Note_on_c, 0, 47, 106
1, 994266, Note_on_c, 0, 47, 0
1, 994266, Note_on_c, 0, 49, 106
1, 994320, Note_on_c, 0, 49, 0
1, 994320, Note_on_c, 0, 50, 106
1, 994374, Note_on_c, 0, 50, 0
1, 994374, Note_on_c, 0, 69, 0
1, 994374, Note_on_c, 0, 68, 117
1, 994377, Control_c, 0, 64, 0
1, 994377, Note_on_c, 0, 52, 117
1, 994377, Control_c, 0, 64, 0
1, 994464, Control_c, 0, 64, 0
1, 994464, Control_c, 0, 64, 0
1, 994578, Control_c, 0, 64, 127
1, 994578, Control_c, 0, 64, 127
1, 995022, Note_on_c, 0, 52, 0
1, 995022, Note_on_c, 0, 50, 106
1, 995094, Note_on_c, 0, 50, 0
1, 995094, Note_on_c, 0, 49, 106
1, 995166, Note_on_c, 0, 49, 0
1, 995166, Note_on_c, 0, 47, 106
1, 995234, Control_c, 0, 64, 0
1, 995234, Control_c, 0, 64, 0
1, 995238, Note_on_c, 0, 62, 0
1, 995238, Note_on_c, 0, 65, 0
1, 995238, Note_on_c, 0, 68, 0
1, 995241, Note_on_c, 0, 61, 113
1, 995241, Note_on_c, 0, 68, 117
1, 995241, Note_on_c, 0, 73, 113
1, 995244, Note_on_c, 0, 23, 0
1, 995244, Note_on_c, 0, 47, 0
1, 995244, Note_on_c, 0, 35, 0
1, 995247, Note_on_c, 0, 45, 115
1, 995247, Note_on_c, 0, 59, 117
1, 995301, Control_c, 0, 64, 0
1, 995301, Control_c, 0, 64, 0
1, 995312, Control_c, 0, 64, 0
1, 995312, Control_c, 0, 64, 0
1, 995517, Control_c, 0, 64, 127
1, 995517, Control_c, 0, 64, 127
1, 995800, Note_on_c, 0, 68, 0
1, 995800, Note_on_c, 0, 66, 117
1, 996016, Note_on_c, 0, 59, 0
1, 996016, Note_on_c, 0, 57, 106
1, 996088, Note_on_c, 0, 57, 0
1, 996088, Note_on_c, 0, 56, 106
1, 996160, Note_on_c, 0, 56, 0
1, 996160, Note_on_c, 0, 54, 106
1, 996221, Control_c, 0, 64, 0
1, 996221, Control_c, 0, 64, 0
1, 996232, Note_on_c, 0, 61, 0
1, 996232, Note_on_c, 0, 66, 0
1, 996232, Note_on_c, 0, 64, 117
1, 996235, Note_on_c, 0, 73, 0
1, 996235, Note_on_c, 0, 60, 109
1, 996235, Note_on_c, 0, 72, 109
1, 996238, Note_on_c, 0, 54, 0
1, 996238, Note_on_c, 0, 45, 0
1, 996238, Note_on_c, 0, 44, 115
1, 996241, Note_on_c, 0, 56, 115
1, 996310, Control_c, 0, 64, 0
1, 996310, Control_c, 0, 64, 0
1, 996553, Control_c, 0, 64, 127
1, 996553, Control_c, 0, 64, 127
1, 996981, Note_on_c, 0, 64, 0
1, 996981, Note_on_c, 0, 63, 117
1, 997056, Control_c, 0, 64, 0
1, 997056, Control_c, 0, 64, 0
1, 997074, Note_on_c, 0, 63, 0
1, 997074, Note_on_c, 0, 61, 117
1, 997159, Control_c, 0, 64, 127
1, 997159, Control_c, 0, 64, 127
1, 997168, Note_on_c, 0, 61, 0
1, 997168, Note_on_c, 0, 60, 117
1, 997275, Note_on_c, 0, 60, 0
1, 997275, Note_on_c, 0, 60, 0
1, 997275, Control_c, 0, 64, 127
1, 997278, Note_on_c, 0, 72, 0
1, 997278, Note_on_c, 0, 60, 117
1, 997278, Note_on_c, 0, 63, 114
1, 997281, Note_on_c, 0, 66, 117
1, 997281, Note_on_c, 0, 69, 117
1, 997281, Note_on_c, 0, 72, 117
1, 997284, Note_on_c, 0, 44, 0
1, 997284, Note_on_c, 0, 56, 0
1, 997284, Control_c, 0, 64, 127
1, 997287, Note_on_c, 0, 37, 117
1, 997362, Control_c, 0, 64, 0
1, 997362, Control_c, 0, 64, 0
1, 997861, Control_c, 0, 64, 127
1, 997861, Control_c, 0, 64, 127
1, 997977, Note_on_c, 0, 37, 0
1, 997977, Note_on_c, 0, 42, 110
1, 998031, Note_on_c, 0, 42, 0
1, 998031, Note_on_c, 0, 44, 110
1, 998085, Note_on_c, 0, 44, 0
1, 998085, Note_on_c, 0, 45, 109
1, 998139, Note_on_c, 0, 45, 0
1, 998139, Note_on_c, 0, 47, 117
1, 998176, Control_c, 0, 64, 0
1, 998176, Control_c, 0, 64, 0
1, 998500, Control_c, 0, 64, 127
1, 998500, Control_c, 0, 64, 127
1, 998787, Note_on_c, 0, 47, 0
1, 998787, Note_on_c, 0, 45, 105
1, 998858, Note_on_c, 0, 45, 0
1, 998858, Note_on_c, 0, 44, 105
1, 998931, Note_on_c, 0, 44, 0
1, 998931, Note_on_c, 0, 42, 104
1, 999003, Note_on_c, 0, 61, 96
1, 999003, Note_on_c, 0, 64, 96
1, 999003, Note_on_c, 0, 68, 96
1, 999006, Note_on_c, 0, 42, 0
1, 999006, Note_on_c, 0, 73, 108
1, 999006, Note_on_c, 0, 40, 112
1, 999016, Control_c, 0, 64, 0
1, 999016, Control_c, 0, 64, 0
1, 999020, Note_on_c, 0, 66, 0
1, 999020, Note_on_c, 0, 60, 0
1, 999020, Note_on_c, 0, 63, 0
1, 999023, Note_on_c, 0, 72, 0
1, 999023, Note_on_c, 0, 69, 0
1, 999266, Note_on_c, 0, 40, 0
1, 999435, Note_on_c, 0, 37, 110
1, 999739, Note_on_c, 0, 37, 0
1, 999934, Note_on_c, 0, 61, 0
1, 999934, Note_on_c, 0, 68, 0
1, 999934, Note_on_c, 0, 64, 0
1, 999937, Note_on_c, 0, 73, 0
1, 999937, Note_on_c, 0, 61, 117
1, 1000798, Note_on_c, 0, 61, 0
1, 1001135, Note_on_c, 0, 76, 65
1, 1001135, Note_on_c, 0, 85, 86
1, 1001135, Note_on_c, 0, 61, 65
1, 1001138, Note_on_c, 0, 68, 65
1, 1001174, Note_on_c, 0, 61, 0
1, 1001174, Note_on_c, 0, 76, 0
1, 1001174, Note_on_c, 0, 85, 0
1, 1001177, Note_on_c, 0, 68, 0
1, 1001247, Note_on_c, 0, 64, 64
1, 1001247, Note_on_c, 0, 68, 64
1, 1001247, Note_on_c, 0, 76, 64
1, 1001250, Note_on_c, 0, 83, 84
1, 1001287, Note_on_c, 0, 76, 0
1, 1001287, Note_on_c, 0, 64, 0
1, 1001287, Note_on_c, 0, 68, 0
1, 1001290, Note_on_c, 0, 83, 0
1, 1001360, Note_on_c, 0, 66, 63
1, 1001360, Note_on_c, 0, 69, 63
1, 1001360, Note_on_c, 0, 73, 63
1, 1001363, Note_on_c, 0, 81, 82
1, 1001399, Note_on_c, 0, 73, 0
1, 1001399, Note_on_c, 0, 66, 0
1, 1001399, Note_on_c, 0, 69, 0
1, 1001402, Note_on_c, 0, 81, 0
1, 1001472, Note_on_c, 0, 72, 65
1, 1001472, Note_on_c, 0, 80, 86
1, 1001472, Note_on_c, 0, 63, 65
1, 1001511, Note_on_c, 0, 63, 0
1, 1001511, Note_on_c, 0, 80, 0
1, 1001511, Note_on_c, 0, 72, 0
1, 1001584, Note_on_c, 0, 60, 64
1, 1001584, Note_on_c, 0, 68, 64
1, 1001584, Note_on_c, 0, 75, 64
1, 1001587, Note_on_c, 0, 78, 84
1, 1001624, Note_on_c, 0, 75, 0
1, 1001624, Note_on_c, 0, 60, 0
1, 1001624, Note_on_c, 0, 68, 0
1, 1001627, Note_on_c, 0, 78, 0
1, 1001696, Note_on_c, 0, 61, 63
1, 1001696, Note_on_c, 0, 68, 63
1, 1001696, Note_on_c, 0, 73, 63
1, 1001699, Note_on_c, 0, 76, 82
1, 1001736, Note_on_c, 0, 73, 0
1, 1001736, Note_on_c, 0, 61, 0
1, 1001736, Note_on_c, 0, 68, 0
1, 1001739, Note_on_c, 0, 76, 0
1, 1001809, Note_on_c, 0, 69, 65
1, 1001809, Note_on_c, 0, 75, 86
1, 1001809, Note_on_c, 0, 61, 65
1, 1001812, Note_on_c, 0, 66, 65
1, 1001848, Note_on_c, 0, 61, 0
1, 1001848, Note_on_c, 0, 69, 0
1, 1001848, Note_on_c, 0, 75, 0
1, 1001851, Note_on_c, 0, 66, 0
1, 1001921, Note_on_c, 0, 54, 64
1, 1001921, Note_on_c, 0, 66, 64
1, 1001921, Note_on_c, 0, 69, 64
1, 1001924, Note_on_c, 0, 73, 84
1, 1001961, Note_on_c, 0, 69, 0
1, 1001961, Note_on_c, 0, 54, 0
1, 1001961, Note_on_c, 0, 66, 0
1, 1001964, Note_on_c, 0, 73, 0
1, 1002033, Note_on_c, 0, 56, 63
1, 1002033, Note_on_c, 0, 66, 63
1, 1002033, Note_on_c, 0, 68, 63
1, 1002036, Note_on_c, 0, 72, 82
1, 1002073, Note_on_c, 0, 68, 0
1, 1002073, Note_on_c, 0, 56, 0
1, 1002073, Note_on_c, 0, 66, 0
1, 1002076, Note_on_c, 0, 72, 0
1, 1002146, Note_on_c, 0, 68, 65
1, 1002146, Note_on_c, 0, 73, 86
1, 1002146, Note_on_c, 0, 61, 65
1, 1002149, Note_on_c, 0, 64, 65
1, 1002185, Note_on_c, 0, 61, 0
1, 1002185, Note_on_c, 0, 68, 0
1, 1002185, Note_on_c, 0, 73, 0
1, 1002188, Note_on_c, 0, 64, 0
1, 1002258, Note_on_c, 0, 54, 64
1, 1002258, Note_on_c, 0, 64, 64
1, 1002258, Note_on_c, 0, 69, 64
1, 1002261, Note_on_c, 0, 73, 84
1, 1002298, Note_on_c, 0, 69, 0
1, 1002298, Note_on_c, 0, 54, 0
1, 1002298, Note_on_c, 0, 64, 0
1, 1002301, Note_on_c, 0, 73, 0
1, 1002370, Note_on_c, 0, 61, 63
1, 1002370, Note_on_c, 0, 64, 63
1, 1002370, Note_on_c, 0, 68, 63
1, 1002373, Note_on_c, 0, 73, 82
1, 1002420, Note_on_c, 0, 68, 0
1, 1002420, Note_on_c, 0, 61, 0
1, 1002420, Note_on_c, 0, 64, 0
1, 1002423, Note_on_c, 0, 73, 0
1, 1002511, Note_on_c, 0, 64, 56
1, 1002511, Note_on_c, 0, 73, 77
1, 1002511, Note_on_c, 0, 49, 56
1, 1002514, Note_on_c, 0, 56, 56
1, 1002550, Note_on_c, 0, 49, 0
1, 1002550, Note_on_c, 0, 64, 0
1, 1002550, Note_on_c, 0, 73, 0
1, 1002553, Note_on_c, 0, 56, 0
1, 1002623, Note_on_c, 0, 64, 55
1, 1002623, Note_on_c, 0, 71, 76
1, 1002623, Note_on_c, 0, 52, 55
1, 1002626, Note_on_c, 0, 56, 55
1, 1002663, Note_on_c, 0, 52, 0
1, 1002663, Note_on_c, 0, 64, 0
1, 1002663, Note_on_c, 0, 71, 0
1, 1002666, Note_on_c, 0, 56, 0
1, 1002735, Note_on_c, 0, 61, 54
1, 1002735, Note_on_c, 0, 69, 74
1, 1002735, Note_on_c, 0, 54, 54
1, 1002738, Note_on_c, 0, 57, 54
1, 1002775, Note_on_c, 0, 54, 0
1, 1002775, Note_on_c, 0, 61, 0
1, 1002775, Note_on_c, 0, 69, 0
1, 1002778, Note_on_c, 0, 57, 0
1, 1002848, Note_on_c, 0, 60, 56
1, 1002848, Note_on_c, 0, 68, 77
1, 1002848, Note_on_c, 0, 51, 56
1, 1002851, Note_on_c, 0, 56, 56
1, 1002887, Note_on_c, 0, 51, 0
1, 1002887, Note_on_c, 0, 60, 0
1, 1002887, Note_on_c, 0, 68, 0
1, 1002890, Note_on_c, 0, 56, 0
1, 1002960, Note_on_c, 0, 63, 55
1, 1002960, Note_on_c, 0, 66, 76
1, 1002960, Note_on_c, 0, 48, 55
1, 1002963, Note_on_c, 0, 56, 55
1, 1003000, Note_on_c, 0, 48, 0
1, 1003000, Note_on_c, 0, 63, 0
1, 1003000, Note_on_c, 0, 66, 0
1, 1003003, Note_on_c, 0, 56, 0
1, 1003072, Note_on_c, 0, 61, 54
1, 1003072, Note_on_c, 0, 64, 74
1, 1003072, Note_on_c, 0, 49, 54
1, 1003075, Note_on_c, 0, 56, 54
1, 1003112, Note_on_c, 0, 49, 0
1, 1003112, Note_on_c, 0, 61, 0
1, 1003112, Note_on_c, 0, 64, 0
1, 1003115, Note_on_c, 0, 56, 0
1, 1003185, Note_on_c, 0, 57, 56
1, 1003185, Note_on_c, 0, 63, 77
1, 1003185, Note_on_c, 0, 49, 56
1, 1003188, Note_on_c, 0, 54, 56
1, 1003224, Note_on_c, 0, 49, 0
1, 1003224, Note_on_c, 0, 57, 0
1, 1003224, Note_on_c, 0, 63, 0
1, 1003227, Note_on_c, 0, 54, 0
1, 1003297, Note_on_c, 0, 57, 55
1, 1003297, Note_on_c, 0, 61, 76
1, 1003297, Note_on_c, 0, 42, 55
1, 1003300, Note_on_c, 0, 54, 55
1, 1003337, Note_on_c, 0, 42, 0
1, 1003337, Note_on_c, 0, 57, 0
1, 1003337, Note_on_c, 0, 61, 0
1, 1003340, Note_on_c, 0, 54, 0
1, 1003409, Note_on_c, 0, 56, 54
1, 1003409, Note_on_c, 0, 60, 74
1, 1003409, Note_on_c, 0, 44, 54
1, 1003412, Note_on_c, 0, 54, 54
1, 1003449, Note_on_c, 0, 44, 0
1, 1003449, Note_on_c, 0, 56, 0
1, 1003449, Note_on_c, 0, 60, 0
1, 1003452, Note_on_c, 0, 54, 0
1, 1003522, Note_on_c, 0, 56, 56
1, 1003522, Note_on_c, 0, 61, 77
1, 1003522, Note_on_c, 0, 49, 56
1, 1003525, Note_on_c, 0, 52, 56
1, 1003561, Note_on_c, 0, 49, 0
1, 1003561, Note_on_c, 0, 56, 0
1, 1003561, Note_on_c, 0, 61, 0
1, 1003564, Note_on_c, 0, 52, 0
1, 1003634, Note_on_c, 0, 57, 55
1, 1003634, Note_on_c, 0, 61, 76
1, 1003634, Note_on_c, 0, 42, 55
1, 1003637, Note_on_c, 0, 52, 55
1, 1003673, Note_on_c, 0, 42, 0
1, 1003673, Note_on_c, 0, 57, 0
1, 1003673, Note_on_c, 0, 61, 0
1, 1003676, Note_on_c, 0, 52, 0
1, 1003746, Note_on_c, 0, 56, 54
1, 1003746, Note_on_c, 0, 61, 74
1, 1003746, Note_on_c, 0, 49, 54
1, 1003749, Note_on_c, 0, 52, 54
1, 1003796, Note_on_c, 0, 49, 0
1, 1003796, Note_on_c, 0, 56, 0
1, 1003796, Note_on_c, 0, 61, 0
1, 1003799, Note_on_c, 0, 52, 0
1, 1003887, Note_on_c, 0, 52, 65
1, 1003887, Note_on_c, 0, 56, 65
1, 1003887, Note_on_c, 0, 61, 77
1, 1003890, Note_on_c, 0, 37, 66
1, 1003931, Note_on_c, 0, 61, 0
1, 1003931, Note_on_c, 0, 52, 0
1, 1003931, Note_on_c, 0, 56, 0
1, 1003934, Note_on_c, 0, 37, 0
1, 1004012, Note_on_c, 0, 51, 65
1, 1004012, Note_on_c, 0, 56, 65
1, 1004012, Note_on_c, 0, 59, 77
1, 1004015, Note_on_c, 0, 32, 66
1, 1004051, Note_on_c, 0, 59, 0
1, 1004051, Note_on_c, 0, 51, 0
1, 1004051, Note_on_c, 0, 56, 0
1, 1004054, Note_on_c, 0, 32, 0
1, 1004124, Note_on_c, 0, 52, 65
1, 1004124, Note_on_c, 0, 56, 65
1, 1004124, Note_on_c, 0, 61, 77
1, 1004127, Note_on_c, 0, 37, 66
1, 1004163, Note_on_c, 0, 61, 0
1, 1004163, Note_on_c, 0, 52, 0
1, 1004163, Note_on_c, 0, 56, 0
1, 1004166, Note_on_c, 0, 37, 0
1, 1004236, Note_on_c, 0, 52, 65
1, 1004236, Note_on_c, 0, 56, 65
1, 1004236, Note_on_c, 0, 59, 77
1, 1004239, Note_on_c, 0, 40, 66
1, 1004276, Note_on_c, 0, 59, 0
1, 1004276, Note_on_c, 0, 52, 0
1, 1004276, Note_on_c, 0, 56, 0
1, 1004279, Note_on_c, 0, 40, 0
1, 1004348, Note_on_c, 0, 52, 65
1, 1004348, Note_on_c, 0, 57, 65
1, 1004348, Note_on_c, 0, 61, 77
1, 1004351, Note_on_c, 0, 45, 66
1, 1004388, Note_on_c, 0, 61, 0
1, 1004388, Note_on_c, 0, 52, 0
1, 1004388, Note_on_c, 0, 57, 0
1, 1004391, Note_on_c, 0, 45, 0
1, 1004461, Note_on_c, 0, 52, 65
1, 1004461, Note_on_c, 0, 56, 65
1, 1004461, Note_on_c, 0, 59, 77
1, 1004464, Note_on_c, 0, 40, 66
1, 1004500, Note_on_c, 0, 59, 0
1, 1004500, Note_on_c, 0, 52, 0
1, 1004500, Note_on_c, 0, 56, 0
1, 1004503, Note_on_c, 0, 40, 0
1, 1004573, Note_on_c, 0, 57, 65
1, 1004573, Note_on_c, 0, 63, 77
1, 1004573, Note_on_c, 0, 42, 65
1, 1004576, Note_on_c, 0, 47, 77
1, 1004613, Note_on_c, 0, 42, 0
1, 1004613, Note_on_c, 0, 57, 0
1, 1004613, Note_on_c, 0, 63, 0
1, 1004616, Note_on_c, 0, 47, 0
1, 1004685, Note_on_c, 0, 57, 65
1, 1004685, Note_on_c, 0, 64, 81
1, 1004685, Note_on_c, 0, 40, 65
1, 1004688, Note_on_c, 0, 47, 81
1, 1004725, Note_on_c, 0, 40, 0
1, 1004725, Note_on_c, 0, 57, 0
1, 1004725, Note_on_c, 0, 64, 0
1, 1004728, Note_on_c, 0, 47, 0
1, 1004798, Note_on_c, 0, 57, 65
1, 1004798, Note_on_c, 0, 66, 86
1, 1004798, Note_on_c, 0, 39, 65
1, 1004801, Note_on_c, 0, 47, 86
1, 1004844, Note_on_c, 0, 39, 0
1, 1004844, Note_on_c, 0, 57, 0
1, 1004844, Note_on_c, 0, 66, 0
1, 1004847, Note_on_c, 0, 47, 0
1, 1004930, Note_on_c, 0, 57, 65
1, 1004930, Note_on_c, 0, 59, 65
1, 1004930, Note_on_c, 0, 66, 65
1, 1004933, Note_on_c, 0, 71, 90
1, 1004933, Note_on_c, 0, 47, 66
1, 1004933, Note_on_c, 0, 35, 66
1, 1004976, Note_on_c, 0, 35, 0
1, 1005062, Note_on_c, 0, 37, 68
1, 1005102, Note_on_c, 0, 37, 0
1, 1005174, Note_on_c, 0, 39, 70
1, 1005214, Note_on_c, 0, 39, 0
1, 1005287, Note_on_c, 0, 56, 65
1, 1005287, Note_on_c, 0, 64, 65
1, 1005287, Note_on_c, 0, 68, 77
1, 1005290, Note_on_c, 0, 40, 73
1, 1005295, Note_on_c, 0, 59, 0
1, 1005295, Note_on_c, 0, 57, 0
1, 1005295, Note_on_c, 0, 66, 0
1, 1005298, Note_on_c, 0, 71, 0
1, 1005326, Note_on_c, 0, 40, 0
1, 1005399, Note_on_c, 0, 56, 0
1, 1005399, Note_on_c, 0, 64, 0
1, 1005399, Note_on_c, 0, 68, 0
1, 1005402, Note_on_c, 0, 42, 75
1, 1005438, Note_on_c, 0, 42, 0
1, 1005511, Note_on_c, 0, 44, 77
1, 1005551, Note_on_c, 0, 44, 0
1, 1005624, Note_on_c, 0, 47, 0
1, 1005624, Note_on_c, 0, 61, 65
1, 1005624, Note_on_c, 0, 66, 77
1, 1005627, Note_on_c, 0, 45, 65
1, 1005663, Note_on_c, 0, 45, 0
1, 1005663, Note_on_c, 0, 66, 0
1, 1005663, Note_on_c, 0, 61, 0
1, 1005736, Note_on_c, 0, 59, 65
1, 1005736, Note_on_c, 0, 68, 81
1, 1005736, Note_on_c, 0, 44, 65
1, 1005775, Note_on_c, 0, 44, 0
1, 1005775, Note_on_c, 0, 68, 0
1, 1005775, Note_on_c, 0, 59, 0
1, 1005848, Note_on_c, 0, 57, 65
1, 1005848, Note_on_c, 0, 69, 86
1, 1005848, Note_on_c, 0, 42, 65
1, 1005888, Note_on_c, 0, 42, 0
1, 1005888, Note_on_c, 0, 69, 0
1, 1005888, Note_on_c, 0, 57, 0
1, 1005961, Note_on_c, 0, 57, 65
1, 1005961, Note_on_c, 0, 59, 65
1, 1005961, Note_on_c, 0, 66, 65
1, 1005964, Note_on_c, 0, 71, 90
1, 1005964, Note_on_c, 0, 47, 66
1, 1005964, Note_on_c, 0, 35, 66
1, 1006000, Note_on_c, 0, 35, 0
1, 1006073, Note_on_c, 0, 37, 66
1, 1006112, Note_on_c, 0, 37, 0
1, 1006185, Note_on_c, 0, 39, 66
1, 1006225, Note_on_c, 0, 39, 0
1, 1006298, Note_on_c, 0, 56, 65
1, 1006298, Note_on_c, 0, 64, 65
1, 1006298, Note_on_c, 0, 68, 77
1, 1006301, Note_on_c, 0, 40, 66
1, 1006306, Note_on_c, 0, 59, 0
1, 1006306, Note_on_c, 0, 57, 0
1, 1006306, Note_on_c, 0, 66, 0
1, 1006309, Note_on_c, 0, 71, 0
1, 1006337, Note_on_c, 0, 40, 0
1, 1006410, Note_on_c, 0, 56, 0
1, 1006410, Note_on_c, 0, 64, 0
1, 1006410, Note_on_c, 0, 68, 0
1, 1006413, Note_on_c, 0, 42, 72
1, 1006449, Note_on_c, 0, 42, 0
1, 1006522, Note_on_c, 0, 39, 77
1, 1006562, Note_on_c, 0, 39, 0
1, 1006635, Note_on_c, 0, 52, 65
1, 1006635, Note_on_c, 0, 56, 65
1, 1006635, Note_on_c, 0, 61, 77
1, 1006638, Note_on_c, 0, 47, 0
1, 1006638, Note_on_c, 0, 37, 66
1, 1006678, Note_on_c, 0, 52, 0
1, 1006678, Note_on_c, 0, 61, 0
1, 1006678, Note_on_c, 0, 56, 0
1, 1006681, Note_on_c, 0, 37, 0
1, 1006759, Note_on_c, 0, 51, 65
1, 1006759, Note_on_c, 0, 56, 65
1, 1006759, Note_on_c, 0, 59, 77
1, 1006762, Note_on_c, 0, 32, 66
1, 1006799, Note_on_c, 0, 59, 0
1, 1006799, Note_on_c, 0, 51, 0
1, 1006799, Note_on_c, 0, 56, 0
1, 1006802, Note_on_c, 0, 32, 0
1, 1006872, Note_on_c, 0, 52, 65
1, 1006872, Note_on_c, 0, 56, 65
1, 1006872, Note_on_c, 0, 61, 77
1, 1006875, Note_on_c, 0, 37, 66
1, 1006911, Note_on_c, 0, 61, 0
1, 1006911, Note_on_c, 0, 52, 0
1, 1006911, Note_on_c, 0, 56, 0
1, 1006914, Note_on_c, 0, 37, 0
1, 1006984, Note_on_c, 0, 52, 65
1, 1006984, Note_on_c, 0, 56, 65
1, 1006984, Note_on_c, 0, 59, 77
1, 1006987, Note_on_c, 0, 40, 66
1, 1007023, Note_on_c, 0, 59, 0
1, 1007023, Note_on_c, 0, 52, 0
1, 1007023, Note_on_c, 0, 56, 0
1, 1007026, Note_on_c, 0, 40, 0
1, 1007096, Note_on_c, 0, 52, 65
1, 1007096, Note_on_c, 0, 57, 65
1, 1007096, Note_on_c, 0, 61, 77
1, 1007099, Note_on_c, 0, 45, 66
1, 1007136, Note_on_c, 0, 61, 0
1, 1007136, Note_on_c, 0, 52, 0
1, 1007136, Note_on_c, 0, 57, 0
1, 1007139, Note_on_c, 0, 45, 0
1, 1007209, Note_on_c, 0, 52, 65
1, 1007209, Note_on_c, 0, 56, 65
1, 1007209, Note_on_c, 0, 59, 77
1, 1007212, Note_on_c, 0, 40, 66
1, 1007248, Note_on_c, 0, 59, 0
1, 1007248, Note_on_c, 0, 52, 0
1, 1007248, Note_on_c, 0, 56, 0
1, 1007251, Note_on_c, 0, 40, 0
1, 1007321, Note_on_c, 0, 57, 65
1, 1007321, Note_on_c, 0, 63, 77
1, 1007321, Note_on_c, 0, 42, 65
1, 1007324, Note_on_c, 0, 47, 77
1, 1007360, Note_on_c, 0, 42, 0
1, 1007360, Note_on_c, 0, 57, 0
1, 1007360, Note_on_c, 0, 63, 0
1, 1007363, Note_on_c, 0, 47, 0
1, 1007433, Note_on_c, 0, 57, 65
1, 1007433, Note_on_c, 0, 64, 81
1, 1007433, Note_on_c, 0, 40, 65
1, 1007436, Note_on_c, 0, 47, 81
1, 1007473, Note_on_c, 0, 40, 0
1, 1007473, Note_on_c, 0, 57, 0
1, 1007473, Note_on_c, 0, 64, 0
1, 1007476, Note_on_c, 0, 47, 0
1, 1007546, Note_on_c, 0, 57, 65
1, 1007546, Note_on_c, 0, 66, 86
1, 1007546, Note_on_c, 0, 39, 65
1, 1007549, Note_on_c, 0, 47, 86
1, 1007592, Note_on_c, 0, 39, 0
1, 1007592, Note_on_c, 0, 57, 0
1, 1007592, Note_on_c, 0, 66, 0
1, 1007595, Note_on_c, 0, 47, 0
1, 1007678, Note_on_c, 0, 57, 65
1, 1007678, Note_on_c, 0, 59, 65
1, 1007678, Note_on_c, 0, 66, 65
1, 1007681, Note_on_c, 0, 71, 90
1, 1007681, Note_on_c, 0, 47, 66
1, 1007681, Note_on_c, 0, 35, 66
1, 1007724, Note_on_c, 0, 35, 0
1, 1007810, Note_on_c, 0, 37, 68
1, 1007849, Note_on_c, 0, 37, 0
1, 1007922, Note_on_c, 0, 39, 70
1, 1007962, Note_on_c, 0, 39, 0
1, 1008034, Note_on_c, 0, 56, 65
1, 1008034, Note_on_c, 0, 64, 65
1, 1008034, Note_on_c, 0, 68, 77
1, 1008037, Note_on_c, 0, 40, 73
1, 1008043, Note_on_c, 0, 59, 0
1, 1008043, Note_on_c, 0, 57, 0
1, 1008043, Note_on_c, 0, 66, 0
1, 1008046, Note_on_c, 0, 71, 0
1, 1008074, Note_on_c, 0, 40, 0
1, 1008147, Note_on_c, 0, 56, 0
1, 1008147, Note_on_c, 0, 64, 0
1, 1008147, Note_on_c, 0, 68, 0
1, 1008150, Note_on_c, 0, 42, 75
1, 1008186, Note_on_c, 0, 42, 0
1, 1008259, Note_on_c, 0, 44, 77
1, 1008299, Note_on_c, 0, 44, 0
1, 1008371, Note_on_c, 0, 47, 0
1, 1008371, Note_on_c, 0, 61, 65
1, 1008371, Note_on_c, 0, 66, 77
1, 1008374, Note_on_c, 0, 45, 65
1, 1008411, Note_on_c, 0, 45, 0
1, 1008411, Note_on_c, 0, 66, 0
1, 1008411, Note_on_c, 0, 61, 0
1, 1008484, Note_on_c, 0, 59, 65
1, 1008484, Note_on_c, 0, 68, 81
1, 1008484, Note_on_c, 0, 44, 65
1, 1008523, Note_on_c, 0, 44, 0
1, 1008523, Note_on_c, 0, 68, 0
1, 1008523, Note_on_c, 0, 59, 0
1, 1008596, Note_on_c, 0, 57, 65
1, 1008596, Note_on_c, 0, 69, 86
1, 1008596, Note_on_c, 0, 42, 65
1, 1008636, Note_on_c, 0, 42, 0
1, 1008636, Note_on_c, 0, 69, 0
1, 1008636, Note_on_c, 0, 57, 0
1, 1008708, Note_on_c, 0, 57, 65
1, 1008708, Note_on_c, 0, 59, 65
1, 1008708, Note_on_c, 0, 66, 65
1, 1008711, Note_on_c, 0, 71, 90
1, 1008711, Note_on_c, 0, 47, 66
1, 1008711, Note_on_c, 0, 35, 66
1, 1008748, Note_on_c, 0, 35, 0
1, 1008821, Note_on_c, 0, 37, 66
1, 1008860, Note_on_c, 0, 37, 0
1, 1008933, Note_on_c, 0, 39, 66
1, 1008973, Note_on_c, 0, 39, 0
1, 1009045, Note_on_c, 0, 56, 77
1, 1009045, Note_on_c, 0, 64, 77
1, 1009045, Note_on_c, 0, 68, 77
1, 1009048, Note_on_c, 0, 47, 0
1, 1009048, Note_on_c, 0, 40, 66
1, 1009054, Note_on_c, 0, 66, 0
1, 1009054, Note_on_c, 0, 57, 0
1, 1009054, Note_on_c, 0, 59, 0
1, 1009057, Note_on_c, 0, 71, 0
1, 1009085, Note_on_c, 0, 40, 0
1, 1009158, Note_on_c, 0, 56, 0
1, 1009158, Note_on_c, 0, 64, 0
1, 1009158, Note_on_c, 0, 68, 0
1, 1009161, Note_on_c, 0, 42, 77
1, 1009197, Note_on_c, 0, 42, 0
1, 1009270, Note_on_c, 0, 43, 77
1, 1009309, Note_on_c, 0, 43, 0
1, 1009382, Note_on_c, 0, 56, 77
1, 1009382, Note_on_c, 0, 44, 66
1, 1009422, Note_on_c, 0, 44, 0
1, 1009495, Note_on_c, 0, 43, 67
1, 1009534, Note_on_c, 0, 43, 0
1, 1009607, Note_on_c, 0, 44, 68
1, 1009646, Note_on_c, 0, 44, 0
1, 1009719, Note_on_c, 0, 54, 77
1, 1009719, Note_on_c, 0, 46, 69
1, 1009759, Note_on_c, 0, 46, 0
1, 1009832, Note_on_c, 0, 45, 70
1, 1009871, Note_on_c, 0, 45, 0
1, 1009944, Note_on_c, 0, 46, 71
1, 1009983, Note_on_c, 0, 46, 0
1, 1010056, Note_on_c, 0, 48, 73
1, 1010096, Note_on_c, 0, 48, 0
1, 1010169, Note_on_c, 0, 47, 74
1, 1010208, Note_on_c, 0, 47, 0
1, 1010281, Note_on_c, 0, 48, 75
1, 1010320, Note_on_c, 0, 48, 0
1, 1010393, Note_on_c, 0, 54, 0
1, 1010393, Note_on_c, 0, 52, 77
1, 1010393, Note_on_c, 0, 49, 76
1, 1010433, Note_on_c, 0, 49, 0
1, 1010506, Note_on_c, 0, 48, 77
1, 1010545, Note_on_c, 0, 48, 0
1, 1010618, Note_on_c, 0, 49, 78
1, 1010667, Note_on_c, 0, 49, 0
1, 1010758, Note_on_c, 0, 52, 0
1, 1010758, Note_on_c, 0, 56, 0
1, 1010758, Note_on_c, 0, 57, 66
1, 1010761, Note_on_c, 0, 49, 69
1, 1010761, Note_on_c, 0, 52, 69
1, 1010798, Note_on_c, 0, 57, 0
1, 1010871, Note_on_c, 0, 56, 67
1, 1010910, Note_on_c, 0, 56, 0
1, 1010983, Note_on_c, 0, 57, 68
1, 1011022, Note_on_c, 0, 57, 0
1, 1011095, Note_on_c, 0, 58, 69
1, 1011095, Note_on_c, 0, 48, 70
1, 1011095, Note_on_c, 0, 55, 70
1, 1011104, Note_on_c, 0, 49, 0
1, 1011135, Note_on_c, 0, 58, 0
1, 1011208, Note_on_c, 0, 57, 70
1, 1011247, Note_on_c, 0, 57, 0
1, 1011320, Note_on_c, 0, 58, 71
1, 1011359, Note_on_c, 0, 58, 0
1, 1011432, Note_on_c, 0, 59, 72
1, 1011432, Note_on_c, 0, 47, 72
1, 1011441, Note_on_c, 0, 48, 0
1, 1011472, Note_on_c, 0, 59, 0
1, 1011544, Note_on_c, 0, 58, 72
1, 1011584, Note_on_c, 0, 58, 0
1, 1011657, Note_on_c, 0, 59, 73
1, 1011696, Note_on_c, 0, 59, 0
1, 1011769, Note_on_c, 0, 60, 74
1, 1011769, Note_on_c, 0, 46, 73
1, 1011778, Note_on_c, 0, 47, 0
1, 1011809, Note_on_c, 0, 60, 0
1, 1011881, Note_on_c, 0, 59, 75
1, 1011921, Note_on_c, 0, 59, 0
1, 1011994, Note_on_c, 0, 60, 76
1, 1012043, Note_on_c, 0, 60, 0
1, 1012134, Note_on_c, 0, 52, 0
1, 1012134, Note_on_c, 0, 61, 77
1, 1012134, Note_on_c, 0, 67, 77
1, 1012137, Note_on_c, 0, 55, 0
1, 1012137, Note_on_c, 0, 45, 75
1, 1012137, Note_on_c, 0, 52, 75
1, 1012143, Note_on_c, 0, 46, 0
1, 1012174, Note_on_c, 0, 67, 0
1, 1012246, Note_on_c, 0, 66, 78
1, 1012286, Note_on_c, 0, 66, 0
1, 1012359, Note_on_c, 0, 67, 79
1, 1012398, Note_on_c, 0, 67, 0
1, 1012471, Note_on_c, 0, 61, 0
1, 1012471, Note_on_c, 0, 68, 81
1, 1012471, Note_on_c, 0, 44, 77
1, 1012480, Note_on_c, 0, 45, 0
1, 1012511, Note_on_c, 0, 68, 0
1, 1012583, Note_on_c, 0, 67, 82
1, 1012623, Note_on_c, 0, 67, 0
1, 1012696, Note_on_c, 0, 68, 83
1, 1012735, Note_on_c, 0, 68, 0
1, 1012808, Note_on_c, 0, 69, 85
1, 1012808, Note_on_c, 0, 43, 79
1, 1012817, Note_on_c, 0, 44, 0
1, 1012848, Note_on_c, 0, 69, 0
1, 1012920, Note_on_c, 0, 68, 85
1, 1012960, Note_on_c, 0, 68, 0
1, 1013033, Note_on_c, 0, 69, 87
1, 1013072, Note_on_c, 0, 69, 0
1, 1013145, Note_on_c, 0, 70, 88
1, 1013145, Note_on_c, 0, 42, 82
1, 1013154, Note_on_c, 0, 43, 0
1, 1013185, Note_on_c, 0, 70, 0
1, 1013257, Note_on_c, 0, 69, 89
1, 1013297, Note_on_c, 0, 69, 0
1, 1013370, Note_on_c, 0, 70, 91
1, 1013419, Note_on_c, 0, 70, 0
1, 1013510, Note_on_c, 0, 59, 79
1, 1013510, Note_on_c, 0, 63, 79
1, 1013510, Note_on_c, 0, 66, 79
1, 1013513, Note_on_c, 0, 52, 0
1, 1013513, Note_on_c, 0, 42, 0
1, 1013513, Note_on_c, 0, 71, 95
1, 1013516, Note_on_c, 0, 35, 83
1, 1013516, Note_on_c, 0, 47, 92
1, 1013550, Note_on_c, 0, 47, 0
1, 1013550, Note_on_c, 0, 35, 0
1, 1013622, Note_on_c, 0, 34, 85
1, 1013622, Note_on_c, 0, 46, 95
1, 1013662, Note_on_c, 0, 46, 0
1, 1013662, Note_on_c, 0, 34, 0
1, 1013735, Note_on_c, 0, 35, 88
1, 1013735, Note_on_c, 0, 47, 97
1, 1013774, Note_on_c, 0, 47, 0
1, 1013774, Note_on_c, 0, 35, 0
1, 1013847, Note_on_c, 0, 66, 0
1, 1013847, Note_on_c, 0, 63, 0
1, 1013847, Note_on_c, 0, 59, 0
1, 1013850, Note_on_c, 0, 71, 0
1, 1013850, Note_on_c, 0, 61, 86
1, 1013850, Note_on_c, 0, 64, 86
1, 1013853, Note_on_c, 0, 69, 86
1, 1013853, Note_on_c, 0, 73, 103
1, 1013853, Note_on_c, 0, 33, 90
1, 1013856, Note_on_c, 0, 45, 99
1, 1013887, Note_on_c, 0, 45, 0
1, 1013887, Note_on_c, 0, 33, 0
1, 1013959, Note_on_c, 0, 35, 92
1, 1013959, Note_on_c, 0, 47, 102
1, 1013999, Note_on_c, 0, 47, 0
1, 1013999, Note_on_c, 0, 35, 0
1, 1014072, Note_on_c, 0, 33, 95
1, 1014072, Note_on_c, 0, 45, 105
1, 1014111, Note_on_c, 0, 45, 0
1, 1014111, Note_on_c, 0, 33, 0
1, 1014184, Note_on_c, 0, 61, 0
1, 1014184, Note_on_c, 0, 69, 0
1, 1014184, Note_on_c, 0, 64, 0
1, 1014187, Note_on_c, 0, 73, 0
1, 1014187, Note_on_c, 0, 62, 93
1, 1014187, Note_on_c, 0, 65, 93
1, 1014190, Note_on_c, 0, 68, 93
1, 1014190, Note_on_c, 0, 71, 93
1, 1014190, Note_on_c, 0, 74, 112
1, 1014193, Note_on_c, 0, 32, 97
1, 1014193, Note_on_c, 0, 44, 107
1, 1014223, Note_on_c, 0, 44, 0
1, 1014223, Note_on_c, 0, 32, 0
1, 1014296, Note_on_c, 0, 33, 100
1, 1014296, Note_on_c, 0, 45, 110
1, 1014336, Note_on_c, 0, 45, 0
1, 1014336, Note_on_c, 0, 33, 0
1, 1014409, Note_on_c, 0, 32, 103
1, 1014409, Note_on_c, 0, 44, 113
1, 1014448, Note_on_c, 0, 44, 0
1, 1014448, Note_on_c, 0, 32, 0
1, 1014521, Note_on_c, 0, 65, 0
1, 1014521, Note_on_c, 0, 62, 0
1, 1014521, Note_on_c, 0, 68, 0
1, 1014524, Note_on_c, 0, 71, 0
1, 1014524, Note_on_c, 0, 74, 0
1, 1014524, Note_on_c, 0, 63, 101
1, 1014527, Note_on_c, 0, 66, 101
1, 1014527, Note_on_c, 0, 69, 101
1, 1014527, Note_on_c, 0, 71, 101
1, 1014530, Note_on_c, 0, 75, 117
1, 1014530, Note_on_c, 0, 30, 105
1, 1014530, Note_on_c, 0, 42, 115
1, 1014560, Note_on_c, 0, 42, 0
1, 1014560, Note_on_c, 0, 30, 0
1, 1014633, Note_on_c, 0, 32, 108
1, 1014633, Note_on_c, 0, 44, 117
1, 1014673, Note_on_c, 0, 44, 0
1, 1014673, Note_on_c, 0, 32, 0
1, 1014746, Note_on_c, 0, 30, 111
1, 1014746, Note_on_c, 0, 42, 117
1, 1014798, Note_on_c, 0, 42, 0
1, 1014798, Note_on_c, 0, 30, 0
1, 1014895, Note_on_c, 0, 66, 0
1, 1014895, Note_on_c, 0, 63, 0
1, 1014895, Note_on_c, 0, 69, 0
1, 1014898, Note_on_c, 0, 71, 0
1, 1014898, Note_on_c, 0, 75, 0
1, 1014898, Note_on_c, 0, 76, 109
1, 1014901, Note_on_c, 0, 80, 109
1, 1014901, Note_on_c, 0, 83, 109
1, 1014901, Note_on_c, 0, 88, 117
1, 1014904, Control_c, 0, 64, 0
1, 1014904, Note_on_c, 0, 28, 100
1, 1014904, Note_on_c, 0, 40, 100
1, 1014971, Note_on_c, 0, 83, 0
1, 1014971, Note_on_c, 0, 76, 0
1, 1014971, Note_on_c, 0, 80, 0
1, 1014974, Note_on_c, 0, 88, 0
1, 1014974, Note_on_c, 0, 28, 0
1, 1014974, Note_on_c, 0, 40, 0
1, 1015020, Note_on_c, 0, 75, 109
1, 1015020, Note_on_c, 0, 80, 109
1, 1015020, Note_on_c, 0, 83, 109
1, 1015023, Note_on_c, 0, 87, 117
1, 1015023, Note_on_c, 0, 32, 100
1, 1015023, Note_on_c, 0, 44, 100
1, 1015089, Note_on_c, 0, 83, 0
1, 1015089, Note_on_c, 0, 75, 0
1, 1015089, Note_on_c, 0, 80, 0
1, 1015092, Note_on_c, 0, 87, 0
1, 1015092, Note_on_c, 0, 32, 0
1, 1015092, Note_on_c, 0, 44, 0
1, 1015132, Note_on_c, 0, 73, 109
1, 1015132, Note_on_c, 0, 76, 109
1, 1015132, Note_on_c, 0, 81, 109
1, 1015135, Note_on_c, 0, 85, 117
1, 1015135, Note_on_c, 0, 33, 100
1, 1015135, Note_on_c, 0, 45, 100
1, 1015201, Note_on_c, 0, 81, 0
1, 1015201, Note_on_c, 0, 73, 0
1, 1015201, Note_on_c, 0, 76, 0
1, 1015204, Note_on_c, 0, 85, 0
1, 1015204, Note_on_c, 0, 33, 0
1, 1015204, Note_on_c, 0, 45, 0
1, 1015245, Note_on_c, 0, 71, 109
1, 1015245, Note_on_c, 0, 78, 109
1, 1015245, Note_on_c, 0, 83, 117
1, 1015248, Control_c, 0, 64, 0
1, 1015248, Note_on_c, 0, 35, 100
1, 1015248, Note_on_c, 0, 47, 100
1, 1015313, Note_on_c, 0, 83, 0
1, 1015313, Note_on_c, 0, 71, 0
1, 1015313, Note_on_c, 0, 78, 0
1, 1015316, Note_on_c, 0, 35, 0
1, 1015316, Note_on_c, 0, 47, 0
1, 1015357, Note_on_c, 0, 69, 109
1, 1015357, Note_on_c, 0, 71, 109
1, 1015357, Note_on_c, 0, 78, 109
1, 1015360, Note_on_c, 0, 81, 117
1, 1015360, Note_on_c, 0, 39, 100
1, 1015360, Note_on_c, 0, 51, 100
1, 1015426, Note_on_c, 0, 78, 0
1, 1015426, Note_on_c, 0, 69, 0
1, 1015426, Note_on_c, 0, 71, 0
1, 1015429, Note_on_c, 0, 81, 0
1, 1015429, Note_on_c, 0, 39, 0
1, 1015429, Note_on_c, 0, 51, 0
1, 1015469, Note_on_c, 0, 68, 109
1, 1015469, Note_on_c, 0, 76, 109
1, 1015469, Note_on_c, 0, 80, 117
1, 1015472, Note_on_c, 0, 40, 100
1, 1015472, Note_on_c, 0, 52, 100
1, 1015538, Note_on_c, 0, 80, 0
1, 1015538, Note_on_c, 0, 68, 0
1, 1015538, Note_on_c, 0, 76, 0
1, 1015541, Note_on_c, 0, 40, 0
1, 1015541, Note_on_c, 0, 52, 0
1, 1015582, Note_on_c, 0, 69, 109
1, 1015582, Note_on_c, 0, 73, 109
1, 1015582, Note_on_c, 0, 78, 117
1, 1015585, Control_c, 0, 64, 0
1, 1015585, Note_on_c, 0, 45, 100
1, 1015585, Note_on_c, 0, 57, 100
1, 1015658, Note_on_c, 0, 78, 0
1, 1015658, Note_on_c, 0, 69, 0
1, 1015658, Note_on_c, 0, 73, 0
1, 1015661, Note_on_c, 0, 45, 0
1, 1015661, Note_on_c, 0, 57, 0
1, 1015707, Note_on_c, 0, 69, 109
1, 1015707, Note_on_c, 0, 73, 117
1, 1015707, Note_on_c, 0, 33, 100
1, 1015710, Note_on_c, 0, 45, 100
1, 1015775, Note_on_c, 0, 33, 0
1, 1015775, Note_on_c, 0, 69, 0
1, 1015775, Note_on_c, 0, 73, 0
1, 1015778, Note_on_c, 0, 45, 0
1, 1015819, Note_on_c, 0, 69, 109
1, 1015819, Note_on_c, 0, 75, 117
1, 1015819, Note_on_c, 0, 35, 100
1, 1015822, Note_on_c, 0, 47, 100
1, 1015887, Note_on_c, 0, 35, 0
1, 1015887, Note_on_c, 0, 69, 0
1, 1015887, Note_on_c, 0, 75, 0
1, 1015890, Note_on_c, 0, 47, 0
1, 1015931, Note_on_c, 0, 68, 109
1, 1015931, Note_on_c, 0, 71, 109
1, 1015931, Note_on_c, 0, 76, 117
1, 1015934, Control_c, 0, 64, 0
1, 1015934, Note_on_c, 0, 40, 100
1, 1015934, Note_on_c, 0, 52, 100
1, 1016000, Note_on_c, 0, 76, 0
1, 1016000, Note_on_c, 0, 68, 0
1, 1016000, Note_on_c, 0, 71, 0
1, 1016003, Note_on_c, 0, 40, 0
1, 1016003, Note_on_c, 0, 52, 0
1, 1016044, Note_on_c, 0, 69, 109
1, 1016044, Note_on_c, 0, 73, 109
1, 1016044, Note_on_c, 0, 76, 109
1, 1016047, Note_on_c, 0, 45, 100
1, 1016047, Note_on_c, 0, 57, 100
1, 1016112, Note_on_c, 0, 76, 0
1, 1016112, Note_on_c, 0, 69, 0
1, 1016112, Note_on_c, 0, 73, 0
1, 1016115, Note_on_c, 0, 45, 0
1, 1016115, Note_on_c, 0, 57, 0
1, 1016156, Note_on_c, 0, 68, 109
1, 1016156, Note_on_c, 0, 71, 109
1, 1016156, Note_on_c, 0, 76, 109
1, 1016159, Note_on_c, 0, 40, 100
1, 1016159, Note_on_c, 0, 52, 100
1, 1016224, Note_on_c, 0, 76, 0
1, 1016224, Note_on_c, 0, 68, 0
1, 1016224, Note_on_c, 0, 71, 0
1, 1016227, Note_on_c, 0, 40, 0
1, 1016227, Note_on_c, 0, 52, 0
1, 1016268, Note_on_c, 0, 64, 109
1, 1016268, Note_on_c, 0, 68, 109
1, 1016268, Note_on_c, 0, 71, 109
1, 1016271, Note_on_c, 0, 76, 117
1, 1016271, Control_c, 0, 64, 0
1, 1016271, Note_on_c, 0, 28, 100
1, 1016274, Note_on_c, 0, 40, 100
1, 1016337, Note_on_c, 0, 71, 0
1, 1016337, Note_on_c, 0, 64, 0
1, 1016337, Note_on_c, 0, 68, 0
1, 1016340, Note_on_c, 0, 76, 0
1, 1016340, Note_on_c, 0, 28, 0
1, 1016340, Note_on_c, 0, 40, 0
1, 1016380, Note_on_c, 0, 63, 109
1, 1016380, Note_on_c, 0, 68, 109
1, 1016380, Note_on_c, 0, 71, 109
1, 1016383, Note_on_c, 0, 75, 117
1, 1016383, Note_on_c, 0, 32, 100
1, 1016383, Note_on_c, 0, 44, 100
1, 1016449, Note_on_c, 0, 71, 0
1, 1016449, Note_on_c, 0, 63, 0
1, 1016449, Note_on_c, 0, 68, 0
1, 1016452, Note_on_c, 0, 75, 0
1, 1016452, Note_on_c, 0, 32, 0
1, 1016452, Note_on_c, 0, 44, 0
1, 1016493, Note_on_c, 0, 61, 109
1, 1016493, Note_on_c, 0, 64, 109
1, 1016493, Note_on_c, 0, 69, 109
1, 1016496, Note_on_c, 0, 73, 117
1, 1016496, Note_on_c, 0, 33, 100
1, 1016496, Note_on_c, 0, 45, 100
1, 1016561, Note_on_c, 0, 69, 0
1, 1016561, Note_on_c, 0, 61, 0
1, 1016561, Note_on_c, 0, 64, 0
1, 1016564, Note_on_c, 0, 73, 0
1, 1016564, Note_on_c, 0, 33, 0
1, 1016564, Note_on_c, 0, 45, 0
1, 1016605, Note_on_c, 0, 59, 109
1, 1016605, Note_on_c, 0, 66, 109
1, 1016605, Note_on_c, 0, 71, 117
1, 1016608, Control_c, 0, 64, 0
1, 1016608, Note_on_c, 0, 35, 100
1, 1016608, Note_on_c, 0, 47, 100
1, 1016674, Note_on_c, 0, 71, 0
1, 1016674, Note_on_c, 0, 59, 0
1, 1016674, Note_on_c, 0, 66, 0
1, 1016677, Note_on_c, 0, 35, 0
1, 1016677, Note_on_c, 0, 47, 0
1, 1016717, Note_on_c, 0, 57, 109
1, 1016717, Note_on_c, 0, 59, 109
1, 1016717, Note_on_c, 0, 66, 109
1, 1016720, Note_on_c, 0, 69, 117
1, 1016720, Note_on_c, 0, 39, 100
1, 1016720, Note_on_c, 0, 51, 100
1, 1016786, Note_on_c, 0, 66, 0
1, 1016786, Note_on_c, 0, 57, 0
1, 1016786, Note_on_c, 0, 59, 0
1, 1016789, Note_on_c, 0, 69, 0
1, 1016789, Note_on_c, 0, 39, 0
1, 1016789, Note_on_c, 0, 51, 0
1, 1016830, Note_on_c, 0, 56, 109
1, 1016830, Note_on_c, 0, 64, 109
1, 1016830, Note_on_c, 0, 68, 117
1, 1016833, Note_on_c, 0, 40, 100
1, 1016833, Note_on_c, 0, 52, 100
1, 1016898, Note_on_c, 0, 68, 0
1, 1016898, Note_on_c, 0, 56, 0
1, 1016898, Note_on_c, 0, 64, 0
1, 1016901, Note_on_c, 0, 40, 0
1, 1016901, Note_on_c, 0, 52, 0
1, 1016942, Note_on_c, 0, 54, 109
1, 1016942, Note_on_c, 0, 61, 109
1, 1016942, Note_on_c, 0, 66, 117
1, 1016945, Control_c, 0, 64, 0
1, 1016945, Note_on_c, 0, 33, 100
1, 1016945, Note_on_c, 0, 45, 100
1, 1017011, Note_on_c, 0, 66, 0
1, 1017011, Note_on_c, 0, 54, 0
1, 1017011, Note_on_c, 0, 61, 0
1, 1017014, Note_on_c, 0, 33, 0
1, 1017014, Note_on_c, 0, 45, 0
1, 1017054, Note_on_c, 0, 56, 109
1, 1017054, Note_on_c, 0, 61, 109
1, 1017054, Note_on_c, 0, 64, 117
1, 1017057, Note_on_c, 0, 32, 100
1, 1017057, Note_on_c, 0, 44, 100
1, 1017123, Note_on_c, 0, 64, 0
1, 1017123, Note_on_c, 0, 56, 0
1, 1017123, Note_on_c, 0, 61, 0
1, 1017126, Note_on_c, 0, 32, 0
1, 1017126, Note_on_c, 0, 44, 0
1, 1017167, Note_on_c, 0, 54, 109
1, 1017167, Note_on_c, 0, 60, 109
1, 1017167, Note_on_c, 0, 63, 117
1, 1017170, Note_on_c, 0, 32, 100
1, 1017170, Note_on_c, 0, 44, 100
1, 1017235, Note_on_c, 0, 63, 0
1, 1017235, Note_on_c, 0, 54, 0
1, 1017235, Note_on_c, 0, 60, 0
1, 1017238, Note_on_c, 0, 32, 0
1, 1017238, Note_on_c, 0, 44, 0
1, 1017279, Note_on_c, 0, 52, 109
1, 1017279, Note_on_c, 0, 56, 109
1, 1017279, Note_on_c, 0, 61, 117
1, 1017282, Control_c, 0, 64, 0
1, 1017282, Note_on_c, 0, 37, 100
1, 1017282, Note_on_c, 0, 49, 100
1, 1017323, Note_on_c, 0, 49, 0
1, 1017323, Note_on_c, 0, 37, 0
1, 1017404, Note_on_c, 0, 52, 0
1, 1017404, Note_on_c, 0, 56, 0
1, 1017404, Note_on_c, 0, 61, 0
1, 1017407, Note_on_c, 0, 44, 100
1, 1017443, Note_on_c, 0, 44, 0
1, 1017516, Note_on_c, 0, 37, 100
1, 1017556, Note_on_c, 0, 37, 0
1, 1017628, Note_on_c, 0, 57, 88
1, 1017628, Note_on_c, 0, 61, 88
1, 1017628, Note_on_c, 0, 66, 88
1, 1017631, Note_on_c, 0, 69, 100
1, 1017631, Note_on_c, 0, 30, 81
1, 1017631, Note_on_c, 0, 42, 93
1, 1017668, Note_on_c, 0, 42, 0
1, 1017668, Note_on_c, 0, 30, 0
1, 1017678, Control_c, 0, 64, 127
1, 1017678, Control_c, 0, 64, 127
1, 1017741, Note_on_c, 0, 44, 95
1, 1017748, Control_c, 0, 64, 0
1, 1017748, Control_c, 0, 64, 0
1, 1017775, Control_c, 0, 64, 0
1, 1017775, Control_c, 0, 64, 0
1, 1017780, Note_on_c, 0, 44, 0
1, 1017853, Note_on_c, 0, 45, 96
1, 1017893, Note_on_c, 0, 45, 0
1, 1017965, Note_on_c, 0, 57, 0
1, 1017965, Note_on_c, 0, 61, 0
1, 1017965, Control_c, 0, 64, 0
1, 1017968, Note_on_c, 0, 66, 0
1, 1017968, Note_on_c, 0, 69, 0
1, 1017968, Note_on_c, 0, 56, 92
1, 1017971, Note_on_c, 0, 61, 92
1, 1017971, Note_on_c, 0, 64, 92
1, 1017971, Note_on_c, 0, 68, 104
1, 1017974, Control_c, 0, 64, 0
1, 1017974, Note_on_c, 0, 37, 86
1, 1017974, Note_on_c, 0, 49, 98
1, 1018005, Note_on_c, 0, 49, 0
1, 1018005, Note_on_c, 0, 37, 0
1, 1018015, Control_c, 0, 64, 127
1, 1018015, Control_c, 0, 64, 127
1, 1018078, Note_on_c, 0, 51, 100
1, 1018085, Control_c, 0, 64, 0
1, 1018085, Control_c, 0, 64, 0
1, 1018112, Control_c, 0, 64, 0
1, 1018112, Control_c, 0, 64, 0
1, 1018117, Note_on_c, 0, 51, 0
1, 1018190, Note_on_c, 0, 52, 101
1, 1018230, Note_on_c, 0, 52, 0
1, 1018302, Note_on_c, 0, 56, 0
1, 1018302, Note_on_c, 0, 61, 0
1, 1018302, Control_c, 0, 64, 0
1, 1018305, Note_on_c, 0, 64, 0
1, 1018305, Note_on_c, 0, 68, 0
1, 1018305, Note_on_c, 0, 69, 95
1, 1018308, Note_on_c, 0, 72, 95
1, 1018308, Note_on_c, 0, 75, 95
1, 1018308, Note_on_c, 0, 78, 95
1, 1018311, Note_on_c, 0, 81, 111
1, 1018311, Control_c, 0, 64, 0
1, 1018311, Note_on_c, 0, 42, 91
1, 1018314, Note_on_c, 0, 54, 103
1, 1018342, Note_on_c, 0, 54, 0
1, 1018342, Note_on_c, 0, 42, 0
1, 1018352, Control_c, 0, 64, 127
1, 1018352, Control_c, 0, 64, 127
1, 1018415, Note_on_c, 0, 56, 105
1, 1018422, Control_c, 0, 64, 0
1, 1018422, Control_c, 0, 64, 0
1, 1018449, Control_c, 0, 64, 0
1, 1018449, Control_c, 0, 64, 0
1, 1018454, Note_on_c, 0, 56, 0
1, 1018527, Note_on_c, 0, 57, 106
1, 1018567, Note_on_c, 0, 57, 0
1, 1018639, Note_on_c, 0, 69, 0
1, 1018639, Note_on_c, 0, 72, 0
1, 1018639, Control_c, 0, 64, 0
1, 1018642, Note_on_c, 0, 78, 0
1, 1018642, Note_on_c, 0, 81, 0
1, 1018642, Note_on_c, 0, 75, 0
1, 1018645, Note_on_c, 0, 68, 95
1, 1018645, Note_on_c, 0, 71, 95
1, 1018645, Note_on_c, 0, 74, 95
1, 1018648, Note_on_c, 0, 77, 95
1, 1018648, Note_on_c, 0, 80, 111
1, 1018648, Control_c, 0, 64, 0
1, 1018651, Note_on_c, 0, 49, 96
1, 1018651, Note_on_c, 0, 59, 108
1, 1018679, Note_on_c, 0, 59, 0
1, 1018679, Note_on_c, 0, 49, 0
1, 1018689, Control_c, 0, 64, 127
1, 1018689, Control_c, 0, 64, 127
1, 1018752, Note_on_c, 0, 61, 110
1, 1018759, Control_c, 0, 64, 0
1, 1018759, Control_c, 0, 64, 0
1, 1018786, Control_c, 0, 64, 0
1, 1018786, Control_c, 0, 64, 0
1, 1018791, Note_on_c, 0, 61, 0
1, 1018864, Note_on_c, 0, 62, 111
1, 1018903, Note_on_c, 0, 62, 0
1, 1018976, Note_on_c, 0, 68, 0
1, 1018976, Note_on_c, 0, 71, 0
1, 1018976, Control_c, 0, 64, 0
1, 1018979, Note_on_c, 0, 77, 0
1, 1018979, Note_on_c, 0, 80, 0
1, 1018979, Note_on_c, 0, 74, 0
1, 1018982, Note_on_c, 0, 69, 95
1, 1018982, Note_on_c, 0, 73, 95
1, 1018982, Note_on_c, 0, 78, 95
1, 1018985, Note_on_c, 0, 81, 109
1, 1018985, Control_c, 0, 64, 0
1, 1018985, Note_on_c, 0, 54, 101
1, 1018988, Note_on_c, 0, 61, 113
1, 1019016, Note_on_c, 0, 61, 0
1, 1019016, Note_on_c, 0, 54, 0
1, 1019089, Note_on_c, 0, 59, 110
1, 1019128, Note_on_c, 0, 59, 0
1, 1019201, Note_on_c, 0, 57, 108
1, 1019271, Note_on_c, 0, 57, 0
1, 1019271, Note_on_c, 0, 57, 107
1, 1019306, Note_on_c, 0, 57, 0
1, 1019306, Note_on_c, 0, 59, 106
1, 1019341, Note_on_c, 0, 59, 0
1, 1019341, Control_c, 0, 64, 0
1, 1019341, Control_c, 0, 64, 0
1, 1019344, Note_on_c, 0, 57, 105
1, 1019385, Note_on_c, 0, 57, 0
1, 1019466, Note_on_c, 0, 56, 103
1, 1019506, Note_on_c, 0, 56, 0
1, 1019578, Note_on_c, 0, 54, 101
1, 1019618, Note_on_c, 0, 54, 0
1, 1019691, Note_on_c, 0, 73, 0
1, 1019691, Note_on_c, 0, 69, 0
1, 1019691, Control_c, 0, 64, 0
1, 1019694, Note_on_c, 0, 78, 0
1, 1019694, Note_on_c, 0, 81, 0
1, 1019694, Note_on_c, 0, 68, 94
1, 1019697, Note_on_c, 0, 73, 94
1, 1019697, Note_on_c, 0, 76, 94
1, 1019697, Note_on_c, 0, 80, 113
1, 1019700, Control_c, 0, 64, 0
1, 1019700, Note_on_c, 0, 56, 101
1, 1019737, Note_on_c, 0, 56, 0
1, 1019749, Control_c, 0, 64, 127
1, 1019749, Control_c, 0, 64, 127
1, 1019823, Note_on_c, 0, 68, 0
1, 1019823, Note_on_c, 0, 76, 0
1, 1019823, Note_on_c, 0, 73, 0
1, 1019826, Note_on_c, 0, 80, 0
1, 1019826, Note_on_c, 0, 44, 101
1, 1019831, Control_c, 0, 64, 0
1, 1019831, Control_c, 0, 64, 0
1, 1019867, Note_on_c, 0, 44, 0
1, 1019885, Control_c, 0, 64, 127
1, 1019885, Control_c, 0, 64, 127
1, 1019948, Note_on_c, 0, 72, 94
1, 1019948, Note_on_c, 0, 75, 94
1, 1019948, Note_on_c, 0, 80, 94
1, 1019951, Note_on_c, 0, 84, 113
1, 1019951, Note_on_c, 0, 56, 101
1, 1019970, Control_c, 0, 64, 0
1, 1019970, Control_c, 0, 64, 0
1, 1019992, Note_on_c, 0, 56, 0
1, 1020073, Note_on_c, 0, 72, 0
1, 1020073, Note_on_c, 0, 75, 0
1, 1020073, Control_c, 0, 64, 0
1, 1020076, Note_on_c, 0, 80, 0
1, 1020076, Note_on_c, 0, 84, 0
1, 1020076, Note_on_c, 0, 73, 94
1, 1020079, Note_on_c, 0, 76, 94
1, 1020079, Note_on_c, 0, 80, 94
1, 1020079, Note_on_c, 0, 85, 114
1, 1020082, Control_c, 0, 64, 0
1, 1020082, Note_on_c, 0, 49, 101
1, 1020116, Note_on_c, 0, 49, 0
1, 1020128, Control_c, 0, 64, 127
1, 1020128, Control_c, 0, 64, 127
1, 1020197, Note_on_c, 0, 73, 0
1, 1020197, Note_on_c, 0, 80, 0
1, 1020197, Note_on_c, 0, 76, 0
1, 1020200, Note_on_c, 0, 85, 0
1, 1020200, Note_on_c, 0, 37, 101
1, 1020206, Control_c, 0, 64, 0
1, 1020206, Control_c, 0, 64, 0
1, 1020241, Note_on_c, 0, 37, 0
1, 1020260, Control_c, 0, 64, 127
1, 1020260, Control_c, 0, 64, 127
1, 1020322, Note_on_c, 0, 49, 101
1, 1020344, Control_c, 0, 64, 0
1, 1020344, Control_c, 0, 64, 0
1, 1020366, Note_on_c, 0, 49, 0
1, 1020447, Control_c, 0, 64, 0
1, 1020447, Note_on_c, 0, 81, 100
1, 1020447, Note_on_c, 0, 85, 100
1, 1020450, Note_on_c, 0, 90, 100
1, 1020450, Note_on_c, 0, 93, 117
1, 1020450, Control_c, 0, 64, 0
1, 1020453, Note_on_c, 0, 42, 81
1, 1020453, Note_on_c, 0, 54, 93
1, 1020486, Note_on_c, 0, 54, 0
1, 1020486, Note_on_c, 0, 42, 0
1, 1020559, Note_on_c, 0, 56, 95
1, 1020599, Note_on_c, 0, 56, 0
1, 1020672, Note_on_c, 0, 57, 96
1, 1020711, Note_on_c, 0, 57, 0
1, 1020784, Note_on_c, 0, 81, 0
1, 1020784, Note_on_c, 0, 85, 0
1, 1020784, Control_c, 0, 64, 0
1, 1020787, Note_on_c, 0, 90, 0
1, 1020787, Note_on_c, 0, 93, 0
1, 1020787, Note_on_c, 0, 80, 106
1, 1020790, Note_on_c, 0, 85, 106
1, 1020790, Note_on_c, 0, 88, 106
1, 1020790, Note_on_c, 0, 92, 117
1, 1020793, Control_c, 0, 64, 0
1, 1020793, Note_on_c, 0, 49, 86
1, 1020793, Note_on_c, 0, 61, 98
1, 1020823, Note_on_c, 0, 61, 0
1, 1020823, Note_on_c, 0, 49, 0
1, 1020896, Note_on_c, 0, 63, 100
1, 1020936, Note_on_c, 0, 63, 0
1, 1021009, Note_on_c, 0, 64, 101
1, 1021048, Note_on_c, 0, 64, 0
1, 1021121, Note_on_c, 0, 80, 0
1, 1021121, Note_on_c, 0, 85, 0
1, 1021121, Control_c, 0, 64, 0
1, 1021124, Note_on_c, 0, 88, 0
1, 1021124, Note_on_c, 0, 92, 0
1, 1021124, Note_on_c, 0, 81, 112
1, 1021127, Note_on_c, 0, 84, 112
1, 1021127, Note_on_c, 0, 87, 112
1, 1021127, Note_on_c, 0, 90, 112
1, 1021130, Note_on_c, 0, 93, 117
1, 1021130, Control_c, 0, 64, 0
1, 1021130, Note_on_c, 0, 54, 91
1, 1021133, Note_on_c, 0, 66, 103
1, 1021160, Note_on_c, 0, 66, 0
1, 1021160, Note_on_c, 0, 54, 0
1, 1021233, Note_on_c, 0, 68, 105
1, 1021273, Note_on_c, 0, 68, 0
1, 1021345, Note_on_c, 0, 69, 106
1, 1021385, Note_on_c, 0, 69, 0
1, 1021458, Note_on_c, 0, 84, 0
1, 1021458, Note_on_c, 0, 81, 0
1, 1021458, Note_on_c, 0, 87, 0
1, 1021461, Note_on_c, 0, 90, 0
1, 1021461, Note_on_c, 0, 93, 0
1, 1021461, Note_on_c, 0, 80, 107
1, 1021464, Note_on_c, 0, 83, 107
1, 1021464, Note_on_c, 0, 86, 107
1, 1021464, Note_on_c, 0, 89, 107
1, 1021467, Note_on_c, 0, 92, 117
1, 1021467, Control_c, 0, 64, 0
1, 1021467, Note_on_c, 0, 61, 96
1, 1021470, Note_on_c, 0, 71, 108
1, 1021497, Note_on_c, 0, 71, 0
1, 1021497, Note_on_c, 0, 61, 0
1, 1021570, Note_on_c, 0, 73, 110
1, 1021610, Note_on_c, 0, 73, 0
1, 1021682, Note_on_c, 0, 74, 111
1, 1021722, Note_on_c, 0, 74, 0
1, 1021795, Note_on_c, 0, 83, 0
1, 1021795, Note_on_c, 0, 80, 0
1, 1021795, Note_on_c, 0, 86, 0
1, 1021798, Note_on_c, 0, 89, 0
1, 1021798, Note_on_c, 0, 92, 0
1, 1021798, Note_on_c, 0, 81, 107
1, 1021801, Note_on_c, 0, 85, 107
1, 1021801, Note_on_c, 0, 90, 107
1, 1021801, Note_on_c, 0, 93, 117
1, 1021804, Control_c, 0, 64, 0
1, 1021804, Note_on_c, 0, 66, 101
1, 1021804, Note_on_c, 0, 73, 113
1, 1021834, Note_on_c, 0, 73, 0
1, 1021834, Note_on_c, 0, 66, 0
1, 1021907, Note_on_c, 0, 71, 110
1, 1021947, Note_on_c, 0, 71, 0
1, 1022019, Note_on_c, 0, 69, 108
1, 1022090, Note_on_c, 0, 69, 0
1, 1022090, Note_on_c, 0, 69, 107
1, 1022125, Note_on_c, 0, 69, 0
1, 1022125, Note_on_c, 0, 71, 106
1, 1022160, Note_on_c, 0, 71, 0
1, 1022160, Control_c, 0, 64, 0
1, 1022160, Note_on_c, 0, 69, 105
1, 1022204, Note_on_c, 0, 69, 0
1, 1022285, Note_on_c, 0, 68, 103
1, 1022324, Note_on_c, 0, 68, 0
1, 1022397, Note_on_c, 0, 66, 101
1, 1022436, Note_on_c, 0, 66, 0
1, 1022509, Note_on_c, 0, 85, 0
1, 1022509, Note_on_c, 0, 81, 0
1, 1022509, Control_c, 0, 64, 0
1, 1022512, Note_on_c, 0, 90, 0
1, 1022512, Note_on_c, 0, 93, 0
1, 1022512, Note_on_c, 0, 80, 106
1, 1022515, Note_on_c, 0, 85, 106
1, 1022515, Note_on_c, 0, 88, 106
1, 1022515, Note_on_c, 0, 92, 117
1, 1022518, Control_c, 0, 64, 0
1, 1022518, Note_on_c, 0, 68, 101
1, 1022556, Note_on_c, 0, 68, 0
1, 1022568, Control_c, 0, 64, 127
1, 1022568, Control_c, 0, 64, 127
1, 1022641, Note_on_c, 0, 80, 0
1, 1022641, Note_on_c, 0, 88, 0
1, 1022641, Note_on_c, 0, 85, 0
1, 1022644, Note_on_c, 0, 92, 0
1, 1022644, Note_on_c, 0, 56, 101
1, 1022650, Control_c, 0, 64, 0
1, 1022650, Control_c, 0, 64, 0
1, 1022685, Note_on_c, 0, 56, 0
1, 1022704, Control_c, 0, 64, 127
1, 1022704, Control_c, 0, 64, 127
1, 1022766, Note_on_c, 0, 84, 106
1, 1022766, Note_on_c, 0, 87, 106
1, 1022766, Note_on_c, 0, 92, 106
1, 1022769, Note_on_c, 0, 96, 117
1, 1022769, Note_on_c, 0, 68, 101
1, 1022788, Control_c, 0, 64, 0
1, 1022788, Control_c, 0, 64, 0
1, 1022810, Note_on_c, 0, 68, 0
1, 1022891, Note_on_c, 0, 84, 0
1, 1022891, Note_on_c, 0, 87, 0
1, 1022891, Control_c, 0, 64, 0
1, 1022894, Note_on_c, 0, 92, 0
1, 1022894, Note_on_c, 0, 96, 0
1, 1022894, Note_on_c, 0, 85, 106
1, 1022897, Note_on_c, 0, 88, 106
1, 1022897, Note_on_c, 0, 92, 106
1, 1022897, Note_on_c, 0, 97, 117
1, 1022900, Control_c, 0, 64, 0
1, 1022900, Note_on_c, 0, 61, 101
1, 1022930, Note_on_c, 0, 61, 0
1, 1022941, Control_c, 0, 64, 127
1, 1022941, Control_c, 0, 64, 127
1, 1023003, Note_on_c, 0, 85, 0
1, 1023003, Note_on_c, 0, 92, 0
1, 1023003, Note_on_c, 0, 88, 0
1, 1023006, Note_on_c, 0, 97, 0
1, 1023006, Note_on_c, 0, 49, 101
1, 1023011, Control_c, 0, 64, 0
1, 1023011, Control_c, 0, 64, 0
1, 1023043, Note_on_c, 0, 49, 0
1, 1023059, Control_c, 0, 64, 127
1, 1023059, Control_c, 0, 64, 127
1, 1023116, Note_on_c, 0, 61, 101
1, 1023135, Control_c, 0, 64, 0
1, 1023135, Control_c, 0, 64, 0
1, 1023155, Note_on_c, 0, 61, 0
1, 1023163, Control_c, 0, 64, 127
1, 1023172, Note_on_c, 0, 93, 108
1, 1023195, Note_on_c, 0, 93, 0
1, 1023195, Note_on_c, 0, 90, 108
1, 1023208, Control_c, 0, 64, 127
1, 1023218, Note_on_c, 0, 90, 0
1, 1023218, Note_on_c, 0, 85, 108
1, 1023242, Note_on_c, 0, 85, 0
1, 1023242, Note_on_c, 0, 81, 117
1, 1023242, Note_on_c, 0, 66, 97
1, 1023245, Note_on_c, 0, 69, 97
1, 1023245, Note_on_c, 0, 73, 97
1, 1023245, Note_on_c, 0, 78, 110
1, 1023286, Note_on_c, 0, 81, 0
1, 1023329, Note_on_c, 0, 73, 0
1, 1023329, Note_on_c, 0, 66, 0
1, 1023329, Note_on_c, 0, 69, 0
1, 1023332, Note_on_c, 0, 78, 0
1, 1023352, Control_c, 0, 64, 0
1, 1023352, Control_c, 0, 64, 0
1, 1023367, Note_on_c, 0, 80, 109
1, 1023411, Note_on_c, 0, 80, 0
1, 1023492, Note_on_c, 0, 78, 109
1, 1023515, Note_on_c, 0, 78, 0
1, 1023554, Control_c, 0, 64, 127
1, 1023554, Control_c, 0, 64, 127
1, 1023558, Note_on_c, 0, 88, 107
1, 1023581, Note_on_c, 0, 88, 0
1, 1023581, Note_on_c, 0, 85, 107
1, 1023604, Note_on_c, 0, 85, 0
1, 1023604, Note_on_c, 0, 80, 107
1, 1023628, Note_on_c, 0, 80, 0
1, 1023628, Note_on_c, 0, 76, 117
1, 1023628, Note_on_c, 0, 61, 97
1, 1023631, Note_on_c, 0, 64, 97
1, 1023631, Note_on_c, 0, 68, 97
1, 1023631, Note_on_c, 0, 73, 110
1, 1023672, Note_on_c, 0, 76, 0
1, 1023715, Note_on_c, 0, 68, 0
1, 1023715, Note_on_c, 0, 61, 0
1, 1023715, Note_on_c, 0, 64, 0
1, 1023718, Note_on_c, 0, 73, 0
1, 1023727, Control_c, 0, 64, 0
1, 1023727, Control_c, 0, 64, 0
1, 1023753, Note_on_c, 0, 75, 108
1, 1023797, Note_on_c, 0, 75, 0
1, 1023877, Note_on_c, 0, 73, 107
1, 1023901, Note_on_c, 0, 73, 0
1, 1023922, Control_c, 0, 64, 127
1, 1023922, Control_c, 0, 64, 127
1, 1023944, Note_on_c, 0, 81, 105
1, 1023967, Note_on_c, 0, 81, 0
1, 1023967, Note_on_c, 0, 78, 105
1, 1023990, Note_on_c, 0, 78, 0
1, 1023990, Note_on_c, 0, 73, 105
1, 1024014, Note_on_c, 0, 73, 0
1, 1024014, Control_c, 0, 64, 127
1, 1024014, Note_on_c, 0, 69, 117
1, 1024017, Control_c, 0, 64, 127
1, 1024017, Note_on_c, 0, 54, 97
1, 1024017, Note_on_c, 0, 57, 97
1, 1024020, Note_on_c, 0, 61, 97
1, 1024020, Note_on_c, 0, 66, 110
1, 1024041, Control_c, 0, 64, 0
1, 1024041, Control_c, 0, 64, 0
1, 1024058, Note_on_c, 0, 69, 0
1, 1024101, Note_on_c, 0, 61, 0
1, 1024101, Note_on_c, 0, 54, 0
1, 1024101, Note_on_c, 0, 57, 0
1, 1024104, Note_on_c, 0, 66, 0
1, 1024139, Note_on_c, 0, 68, 107
1, 1024182, Note_on_c, 0, 68, 0
1, 1024263, Note_on_c, 0, 66, 106
1, 1024307, Note_on_c, 0, 66, 0
1, 1024388, Note_on_c, 0, 64, 105
1, 1024388, Note_on_c, 0, 68, 105
1, 1024388, Note_on_c, 0, 73, 105
1, 1024391, Note_on_c, 0, 76, 117
1, 1024391, Note_on_c, 0, 61, 110
1, 1024432, Note_on_c, 0, 61, 0
1, 1024513, Note_on_c, 0, 64, 0
1, 1024513, Note_on_c, 0, 73, 0
1, 1024513, Note_on_c, 0, 68, 0
1, 1024516, Note_on_c, 0, 76, 0
1, 1024516, Note_on_c, 0, 49, 110
1, 1024557, Note_on_c, 0, 49, 0
1, 1024638, Note_on_c, 0, 61, 110
1, 1024682, Note_on_c, 0, 61, 0
1, 1024691, Control_c, 0, 64, 127
1, 1024691, Control_c, 0, 64, 127
1, 1024700, Note_on_c, 0, 81, 105
1, 1024724, Note_on_c, 0, 81, 0
1, 1024724, Note_on_c, 0, 78, 105
1, 1024747, Note_on_c, 0, 78, 0
1, 1024747, Note_on_c, 0, 73, 105
1, 1024770, Note_on_c, 0, 73, 0
1, 1024770, Note_on_c, 0, 69, 117
1, 1024770, Note_on_c, 0, 54, 97
1, 1024773, Note_on_c, 0, 57, 97
1, 1024773, Note_on_c, 0, 61, 97
1, 1024773, Note_on_c, 0, 66, 110
1, 1024814, Note_on_c, 0, 69, 0
1, 1024858, Note_on_c, 0, 61, 0
1, 1024858, Note_on_c, 0, 54, 0
1, 1024858, Note_on_c, 0, 57, 0
1, 1024861, Note_on_c, 0, 66, 0
1, 1024881, Control_c, 0, 64, 0
1, 1024881, Control_c, 0, 64, 0
1, 1024895, Note_on_c, 0, 68, 103
1, 1024939, Note_on_c, 0, 68, 0
1, 1025020, Note_on_c, 0, 66, 103
1, 1025043, Note_on_c, 0, 66, 0
1, 1025082, Control_c, 0, 64, 127
1, 1025082, Control_c, 0, 64, 127
1, 1025086, Note_on_c, 0, 76, 103
1, 1025110, Note_on_c, 0, 76, 0
1, 1025110, Note_on_c, 0, 73, 103
1, 1025133, Note_on_c, 0, 73, 0
1, 1025133, Note_on_c, 0, 68, 103
1, 1025156, Note_on_c, 0, 68, 0
1, 1025156, Note_on_c, 0, 64, 115
1, 1025156, Note_on_c, 0, 49, 97
1, 1025159, Note_on_c, 0, 52, 97
1, 1025159, Note_on_c, 0, 56, 97
1, 1025159, Note_on_c, 0, 61, 110
1, 1025200, Note_on_c, 0, 64, 0
1, 1025243, Note_on_c, 0, 56, 0
1, 1025243, Note_on_c, 0, 49, 0
1, 1025243, Note_on_c, 0, 52, 0
1, 1025246, Note_on_c, 0, 61, 0
1, 1025255, Control_c, 0, 64, 0
1, 1025255, Control_c, 0, 64, 0
1, 1025281, Note_on_c, 0, 63, 102
1, 1025325, Note_on_c, 0, 63, 0
1, 1025406, Note_on_c, 0, 61, 101
1, 1025429, Note_on_c, 0, 61, 0
1, 1025451, Control_c, 0, 64, 127
1, 1025451, Control_c, 0, 64, 127
1, 1025472, Note_on_c, 0, 69, 102
1, 1025495, Note_on_c, 0, 69, 0
1, 1025495, Note_on_c, 0, 66, 102
1, 1025518, Note_on_c, 0, 66, 0
1, 1025518, Note_on_c, 0, 61, 102
1, 1025542, Note_on_c, 0, 61, 0
1, 1025542, Control_c, 0, 64, 127
1, 1025542, Note_on_c, 0, 57, 102
1, 1025545, Control_c, 0, 64, 127
1, 1025545, Note_on_c, 0, 42, 97
1, 1025545, Note_on_c, 0, 45, 97
1, 1025548, Note_on_c, 0, 49, 97
1, 1025548, Note_on_c, 0, 54, 110
1, 1025569, Control_c, 0, 64, 0
1, 1025569, Control_c, 0, 64, 0
1, 1025586, Note_on_c, 0, 57, 0
1, 1025629, Note_on_c, 0, 49, 0
1, 1025629, Note_on_c, 0, 42, 0
1, 1025629, Note_on_c, 0, 45, 0
1, 1025632, Note_on_c, 0, 54, 0
1, 1025667, Note_on_c, 0, 56, 102
1, 1025711, Note_on_c, 0, 56, 0
1, 1025792, Note_on_c, 0, 54, 101
1, 1025836, Note_on_c, 0, 54, 0
1, 1025916, Note_on_c, 0, 52, 88
1, 1025916, Note_on_c, 0, 56, 88
1, 1025916, Note_on_c, 0, 61, 88
1, 1025919, Note_on_c, 0, 64, 88
1, 1025919, Note_on_c, 0, 49, 110
1, 1025960, Note_on_c, 0, 49, 0
1, 1026041, Note_on_c, 0, 37, 110
1, 1026085, Note_on_c, 0, 37, 0
1, 1026166, Note_on_c, 0, 49, 110
1, 1026210, Note_on_c, 0, 49, 0
1, 1026291, Note_on_c, 0, 52, 0
1, 1026291, Note_on_c, 0, 61, 0
1, 1026291, Note_on_c, 0, 56, 0
1, 1026294, Note_on_c, 0, 64, 0
1, 1026294, Note_on_c, 0, 30, 65
1, 1026294, Note_on_c, 0, 33, 65
1, 1026297, Note_on_c, 0, 45, 74
1, 1026423, Control_c, 0, 64, 127
1, 1026423, Control_c, 0, 64, 127
1, 1026451, Note_on_c, 0, 36, 78
1, 1026451, Note_on_c, 0, 48, 87
1, 1026468, Note_on_c, 0, 45, 0
1, 1026468, Note_on_c, 0, 30, 0
1, 1026468, Note_on_c, 0, 33, 0
1, 1026592, Note_on_c, 0, 39, 79
1, 1026592, Note_on_c, 0, 51, 88
1, 1026607, Note_on_c, 0, 36, 0
1, 1026607, Note_on_c, 0, 48, 0
1, 1026724, Control_c, 0, 64, 127
1, 1026724, Control_c, 0, 64, 127
1, 1026724, Note_on_c, 0, 42, 81
1, 1026727, Note_on_c, 0, 54, 90
1, 1026738, Note_on_c, 0, 39, 0
1, 1026738, Note_on_c, 0, 51, 0
1, 1026849, Note_on_c, 0, 45, 82
1, 1026849, Note_on_c, 0, 57, 91
1, 1026862, Note_on_c, 0, 42, 0
1, 1026862, Note_on_c, 0, 54, 0
1, 1026961, Note_on_c, 0, 48, 83
1, 1026961, Note_on_c, 0, 60, 92
1, 1026974, Note_on_c, 0, 45, 0
1, 1026974, Note_on_c, 0, 57, 0
1, 1027073, Control_c, 0, 64, 127
1, 1027073, Control_c, 0, 64, 127
1, 1027073, Note_on_c, 0, 51, 84
1, 1027076, Note_on_c, 0, 63, 93
1, 1027086, Note_on_c, 0, 48, 0
1, 1027086, Note_on_c, 0, 60, 0
1, 1027186, Note_on_c, 0, 54, 85
1, 1027186, Note_on_c, 0, 66, 94
1, 1027199, Note_on_c, 0, 51, 0
1, 1027199, Note_on_c, 0, 63, 0
1, 1027298, Note_on_c, 0, 57, 86
1, 1027298, Note_on_c, 0, 69, 95
1, 1027311, Note_on_c, 0, 54, 0
1, 1027311, Note_on_c, 0, 66, 0
1, 1027410, Control_c, 0, 64, 127
1, 1027410, Control_c, 0, 64, 127
1, 1027410, Note_on_c, 0, 60, 88
1, 1027413, Note_on_c, 0, 72, 97
1, 1027423, Note_on_c, 0, 57, 0
1, 1027423, Note_on_c, 0, 69, 0
1, 1027523, Note_on_c, 0, 63, 89
1, 1027523, Note_on_c, 0, 75, 98
1, 1027536, Note_on_c, 0, 60, 0
1, 1027536, Note_on_c, 0, 72, 0
1, 1027635, Note_on_c, 0, 66, 90
1, 1027635, Note_on_c, 0, 78, 99
1, 1027648, Note_on_c, 0, 63, 0
1, 1027648, Note_on_c, 0, 75, 0
1, 1027747, Control_c, 0, 64, 127
1, 1027747, Control_c, 0, 64, 127
1, 1027747, Note_on_c, 0, 69, 87
1, 1027750, Note_on_c, 0, 81, 104
1, 1027763, Note_on_c, 0, 66, 0
1, 1027763, Note_on_c, 0, 78, 0
1, 1027879, Note_on_c, 0, 72, 85
1, 1027879, Note_on_c, 0, 84, 94
1, 1027894, Note_on_c, 0, 69, 0
1, 1027894, Note_on_c, 0, 81, 0
1, 1028004, Note_on_c, 0, 75, 79
1, 1028004, Note_on_c, 0, 87, 88
1, 1028019, Note_on_c, 0, 72, 0
1, 1028019, Note_on_c, 0, 84, 0
1, 1028129, Control_c, 0, 64, 127
1, 1028129, Control_c, 0, 64, 127
1, 1028129, Note_on_c, 0, 78, 73
1, 1028132, Note_on_c, 0, 90, 82
1, 1028142, Note_on_c, 0, 75, 0
1, 1028142, Note_on_c, 0, 87, 0
1, 1028241, Note_on_c, 0, 81, 72
1, 1028241, Note_on_c, 0, 93, 81
1, 1028254, Note_on_c, 0, 78, 0
1, 1028254, Note_on_c, 0, 90, 0
1, 1028354, Note_on_c, 0, 78, 71
1, 1028354, Note_on_c, 0, 90, 80
1, 1028367, Note_on_c, 0, 81, 0
1, 1028367, Note_on_c, 0, 93, 0
1, 1028466, Control_c, 0, 64, 127
1, 1028466, Control_c, 0, 64, 127
1, 1028466, Note_on_c, 0, 75, 71
1, 1028469, Note_on_c, 0, 87, 80
1, 1028479, Note_on_c, 0, 78, 0
1, 1028479, Note_on_c, 0, 90, 0
1, 1028578, Note_on_c, 0, 72, 70
1, 1028578, Note_on_c, 0, 84, 79
1, 1028591, Note_on_c, 0, 75, 0
1, 1028591, Note_on_c, 0, 87, 0
1, 1028691, Note_on_c, 0, 69, 69
1, 1028691, Note_on_c, 0, 81, 78
1, 1028704, Note_on_c, 0, 72, 0
1, 1028704, Note_on_c, 0, 84, 0
1, 1028803, Control_c, 0, 64, 127
1, 1028803, Control_c, 0, 64, 127
1, 1028803, Note_on_c, 0, 66, 68
1, 1028806, Note_on_c, 0, 78, 77
1, 1028816, Note_on_c, 0, 69, 0
1, 1028816, Note_on_c, 0, 81, 0
1, 1028915, Note_on_c, 0, 63, 68
1, 1028915, Note_on_c, 0, 75, 77
1, 1028928, Note_on_c, 0, 66, 0
1, 1028928, Note_on_c, 0, 78, 0
1, 1029028, Note_on_c, 0, 60, 67
1, 1029028, Note_on_c, 0, 72, 76
1, 1029041, Note_on_c, 0, 63, 0
1, 1029041, Note_on_c, 0, 75, 0
1, 1029107, Control_c, 0, 64, 0
1, 1029107, Control_c, 0, 64, 0
1, 1029140, Note_on_c, 0, 69, 85
1, 1029140, Note_on_c, 0, 57, 69
1, 1029153, Note_on_c, 0, 60, 0
1, 1029153, Note_on_c, 0, 72, 0
1, 1029252, Note_on_c, 0, 54, 74
1, 1029261, Note_on_c, 0, 57, 0
1, 1029364, Note_on_c, 0, 51, 74
1, 1029373, Note_on_c, 0, 54, 0
1, 1029477, Note_on_c, 0, 48, 73
1, 1029486, Note_on_c, 0, 51, 0
1, 1029589, Note_on_c, 0, 45, 72
1, 1029598, Note_on_c, 0, 48, 0
1, 1029701, Note_on_c, 0, 42, 71
1, 1029710, Note_on_c, 0, 45, 0
1, 1029814, Note_on_c, 0, 39, 71
1, 1029823, Note_on_c, 0, 42, 0
1, 1029926, Note_on_c, 0, 36, 70
1, 1029935, Note_on_c, 0, 39, 0
1, 1030038, Note_on_c, 0, 33, 69
1, 1030047, Note_on_c, 0, 36, 0
1, 1030151, Note_on_c, 0, 30, 68
1, 1030160, Note_on_c, 0, 33, 0
1, 1030276, Note_on_c, 0, 27, 68
1, 1030286, Note_on_c, 0, 30, 0
1, 1030408, Note_on_c, 0, 24, 67
1, 1030419, Note_on_c, 0, 27, 0
1, 1030548, Note_on_c, 0, 64, 44
1, 1030548, Note_on_c, 0, 68, 62
1, 1030548, Note_on_c, 0, 25, 57
1, 1030558, Note_on_c, 0, 24, 0
1, 1030564, Note_on_c, 0, 69, 0
1, 1030630, Note_on_c, 0, 68, 0
1, 1030630, Note_on_c, 0, 64, 0
1, 1030630, Note_on_c, 0, 25, 0
1, 1030944, Note_on_c, 0, 64, 51
1, 1030944, Note_on_c, 0, 73, 69
1, 1030944, Note_on_c, 0, 49, 53
1, 1030947, Note_on_c, 0, 56, 53
1, 1031026, Note_on_c, 0, 49, 0
1, 1031026, Note_on_c, 0, 64, 0
1, 1031026, Note_on_c, 0, 73, 0
1, 1031029, Note_on_c, 0, 56, 0
1, 1031341, Note_on_c, 0, 76, 51
1, 1031341, Note_on_c, 0, 85, 69
1, 1031341, Note_on_c, 0, 61, 53
1, 1031344, Note_on_c, 0, 68, 53
1, 1031422, Note_on_c, 0, 61, 0
1, 1031422, Note_on_c, 0, 76, 0
1, 1031422, Note_on_c, 0, 85, 0
1, 1031425, Note_on_c, 0, 68, 0
1, 1033852, Note_on_c, 0, 37, 74
1, 1033852, Note_on_c, 0, 44, 74
1, 1033852, Note_on_c, 0, 49, 74
1, 1033855, Note_on_c, 0, 61, 103
1, 1034010, Control_c, 0, 64, 127
1, 1034010, Control_c, 0, 64, 127
1, 1034173, Note_on_c, 0, 69, 98
1, 1034310, Control_c, 0, 64, 127
1, 1034310, Control_c, 0, 64, 127
1, 1034386, Note_on_c, 0, 69, 0
1, 1034386, Note_on_c, 0, 64, 76
1, 1034386, Note_on_c, 0, 68, 90
1, 1034559, Note_on_c, 0, 56, 96
1, 1034566, Note_on_c, 0, 61, 0
1, 1034631, Control_c, 0, 64, 127
1, 1034631, Control_c, 0, 64, 127
1, 1034732, Note_on_c, 0, 64, 0
1, 1034732, Note_on_c, 0, 68, 0
1, 1034732, Note_on_c, 0, 66, 92
1, 1034898, Control_c, 0, 64, 127
1, 1034898, Control_c, 0, 64, 127
1, 1034905, Note_on_c, 0, 66, 0
1, 1034905, Note_on_c, 0, 61, 68
1, 1034905, Note_on_c, 0, 64, 82
1, 1035078, Note_on_c, 0, 37, 0
1, 1035078, Note_on_c, 0, 49, 0
1, 1035078, Note_on_c, 0, 44, 0
1, 1035081, Note_on_c, 0, 52, 90
1, 1035084, Note_on_c, 0, 56, 0
1, 1035156, Control_c, 0, 64, 127
1, 1035156, Control_c, 0, 64, 127
1, 1035250, Note_on_c, 0, 64, 0
1, 1035250, Note_on_c, 0, 61, 0
1, 1035250, Note_on_c, 0, 63, 88
1, 1035269, Control_c, 0, 64, 0
1, 1035269, Control_c, 0, 64, 0
1, 1035348, Control_c, 0, 64, 127
1, 1035348, Control_c, 0, 64, 127
1, 1035423, Note_on_c, 0, 63, 0
1, 1035423, Note_on_c, 0, 56, 66
1, 1035423, Note_on_c, 0, 61, 78
1, 1035426, Control_c, 0, 64, 127
1, 1035426, Control_c, 0, 64, 127
1, 1035596, Note_on_c, 0, 49, 84
1, 1035603, Note_on_c, 0, 52, 0
1, 1035769, Note_on_c, 0, 56, 0
1, 1035769, Note_on_c, 0, 61, 0
1, 1035769, Note_on_c, 0, 57, 84
1, 1035781, Control_c, 0, 64, 0
1, 1035781, Control_c, 0, 64, 0
1, 1035873, Control_c, 0, 64, 127
1, 1035873, Control_c, 0, 64, 127
1, 1035942, Note_on_c, 0, 57, 0
1, 1035942, Note_on_c, 0, 52, 63
1, 1035942, Note_on_c, 0, 56, 74
1, 1035951, Control_c, 0, 64, 127
1, 1035951, Control_c, 0, 64, 127
1, 1036072, Control_c, 0, 64, 0
1, 1036072, Control_c, 0, 64, 0
1, 1036114, Note_on_c, 0, 56, 0
1, 1036114, Note_on_c, 0, 52, 0
1, 1036114, Note_on_c, 0, 73, 101
1, 1036117, Control_c, 0, 64, 0
1, 1036117, Note_on_c, 0, 57, 84
1, 1036122, Note_on_c, 0, 49, 0
1, 1036207, Control_c, 0, 64, 127
1, 1036207, Control_c, 0, 64, 127
1, 1036302, Note_on_c, 0, 68, 83
1, 1036474, Note_on_c, 0, 68, 0
1, 1036474, Note_on_c, 0, 61, 59
1, 1036474, Note_on_c, 0, 66, 74
1, 1036604, Note_on_c, 0, 72, 92
1, 1036619, Note_on_c, 0, 73, 0
1, 1036682, Control_c, 0, 64, 0
1, 1036682, Control_c, 0, 64, 0
1, 1036698, Note_on_c, 0, 73, 99
1, 1036706, Note_on_c, 0, 72, 0
1, 1036762, Control_c, 0, 64, 0
1, 1036762, Control_c, 0, 64, 0
1, 1036841, Control_c, 0, 64, 127
1, 1036841, Control_c, 0, 64, 127
1, 1036912, Note_on_c, 0, 66, 0
1, 1036912, Note_on_c, 0, 61, 0
1, 1036912, Note_on_c, 0, 65, 83
1, 1037084, Note_on_c, 0, 65, 0
1, 1037084, Note_on_c, 0, 61, 59
1, 1037084, Note_on_c, 0, 66, 74
1, 1037214, Note_on_c, 0, 75, 94
1, 1037229, Note_on_c, 0, 73, 0
1, 1037308, Control_c, 0, 64, 0
1, 1037308, Note_on_c, 0, 76, 101
1, 1037308, Control_c, 0, 64, 0
1, 1037311, Note_on_c, 0, 57, 0
1, 1037311, Note_on_c, 0, 56, 84
1, 1037316, Note_on_c, 0, 75, 0
1, 1037388, Control_c, 0, 64, 0
1, 1037388, Control_c, 0, 64, 0
1, 1037464, Control_c, 0, 64, 127
1, 1037464, Control_c, 0, 64, 127
1, 1037512, Note_on_c, 0, 66, 0
1, 1037512, Note_on_c, 0, 61, 0
1, 1037512, Note_on_c, 0, 66, 83
1, 1037685, Note_on_c, 0, 66, 0
1, 1037685, Note_on_c, 0, 61, 59
1, 1037685, Note_on_c, 0, 64, 74
1, 1037814, Note_on_c, 0, 75, 95
1, 1037829, Note_on_c, 0, 76, 0
1, 1037892, Control_c, 0, 64, 0
1, 1037892, Control_c, 0, 64, 0
1, 1037908, Note_on_c, 0, 56, 0
1, 1037908, Note_on_c, 0, 76, 102
1, 1037908, Note_on_c, 0, 56, 84
1, 1037915, Note_on_c, 0, 75, 0
1, 1037992, Control_c, 0, 64, 0
1, 1037992, Control_c, 0, 64, 0
1, 1038049, Control_c, 0, 64, 127
1, 1038049, Control_c, 0, 64, 127
1, 1038081, Note_on_c, 0, 64, 0
1, 1038081, Note_on_c, 0, 61, 0
1, 1038081, Note_on_c, 0, 63, 83
1, 1038253, Note_on_c, 0, 63, 0
1, 1038253, Note_on_c, 0, 61, 59
1, 1038253, Note_on_c, 0, 64, 74
1, 1038383, Note_on_c, 0, 78, 97
1, 1038403, Note_on_c, 0, 76, 0
1, 1038403, Control_c, 0, 64, 0
1, 1038403, Control_c, 0, 64, 0
1, 1038508, Note_on_c, 0, 61, 0
1, 1038508, Note_on_c, 0, 80, 99
1, 1038508, Control_c, 0, 64, 0
1, 1038511, Note_on_c, 0, 64, 0
1, 1038511, Note_on_c, 0, 54, 83
1, 1038517, Note_on_c, 0, 56, 0
1, 1038517, Note_on_c, 0, 78, 0
1, 1038618, Control_c, 0, 64, 127
1, 1038618, Control_c, 0, 64, 127
1, 1038732, Note_on_c, 0, 64, 82
1, 1038905, Note_on_c, 0, 64, 0
1, 1038905, Note_on_c, 0, 60, 58
1, 1038905, Note_on_c, 0, 63, 73
1, 1039071, Control_c, 0, 64, 0
1, 1039071, Control_c, 0, 64, 0
1, 1039078, Note_on_c, 0, 72, 90
1, 1039078, Note_on_c, 0, 56, 75
1, 1039086, Note_on_c, 0, 80, 0
1, 1039086, Note_on_c, 0, 54, 0
1, 1039136, Control_c, 0, 64, 0
1, 1039136, Control_c, 0, 64, 0
1, 1039235, Control_c, 0, 64, 127
1, 1039235, Control_c, 0, 64, 127
1, 1039273, Note_on_c, 0, 72, 0
1, 1039273, Note_on_c, 0, 63, 0
1, 1039273, Note_on_c, 0, 60, 0
1, 1039276, Note_on_c, 0, 62, 82
1, 1039446, Note_on_c, 0, 62, 0
1, 1039446, Note_on_c, 0, 60, 58
1, 1039446, Note_on_c, 0, 63, 73
1, 1039533, Note_on_c, 0, 80, 92
1, 1039653, Note_on_c, 0, 80, 0
1, 1039653, Note_on_c, 0, 80, 92
1, 1039747, Note_on_c, 0, 80, 0
1, 1039747, Control_c, 0, 64, 0
1, 1039747, Note_on_c, 0, 85, 101
1, 1039750, Control_c, 0, 64, 0
1, 1039750, Note_on_c, 0, 52, 83
1, 1039755, Note_on_c, 0, 56, 0
1, 1039836, Control_c, 0, 64, 0
1, 1039836, Control_c, 0, 64, 0
1, 1039934, Control_c, 0, 64, 127
1, 1039934, Control_c, 0, 64, 127
1, 1039960, Note_on_c, 0, 60, 0
1, 1039960, Note_on_c, 0, 63, 0
1, 1039960, Note_on_c, 0, 66, 76
1, 1040133, Note_on_c, 0, 66, 0
1, 1040133, Note_on_c, 0, 61, 58
1, 1040133, Note_on_c, 0, 64, 73
1, 1040263, Note_on_c, 0, 83, 96
1, 1040280, Note_on_c, 0, 85, 0
1, 1040353, Control_c, 0, 64, 0
1, 1040353, Control_c, 0, 64, 0
1, 1040371, Note_on_c, 0, 81, 104
1, 1040371, Note_on_c, 0, 56, 76
1, 1040378, Note_on_c, 0, 52, 0
1, 1040378, Note_on_c, 0, 83, 0
1, 1040429, Control_c, 0, 64, 0
1, 1040429, Control_c, 0, 64, 0
1, 1040493, Control_c, 0, 64, 127
1, 1040493, Control_c, 0, 64, 127
1, 1040544, Note_on_c, 0, 64, 0
1, 1040544, Note_on_c, 0, 61, 0
1, 1040544, Note_on_c, 0, 63, 82
1, 1040716, Note_on_c, 0, 63, 0
1, 1040716, Note_on_c, 0, 61, 58
1, 1040716, Note_on_c, 0, 64, 73
1, 1040857, Note_on_c, 0, 80, 97
1, 1040876, Note_on_c, 0, 81, 0
1, 1040879, Control_c, 0, 64, 0
1, 1040879, Control_c, 0, 64, 0
1, 1040982, Note_on_c, 0, 80, 0
1, 1040982, Control_c, 0, 64, 0
1, 1040982, Note_on_c, 0, 80, 95
1, 1040985, Note_on_c, 0, 61, 0
1, 1040985, Control_c, 0, 64, 0
1, 1040985, Control_c, 0, 64, 0
1, 1040988, Note_on_c, 0, 64, 0
1, 1040988, Note_on_c, 0, 56, 0
1, 1040988, Note_on_c, 0, 51, 82
1, 1041087, Control_c, 0, 64, 127
1, 1041087, Control_c, 0, 64, 127
1, 1041196, Note_on_c, 0, 65, 75
1, 1041383, Note_on_c, 0, 65, 0
1, 1041383, Note_on_c, 0, 60, 59
1, 1041383, Note_on_c, 0, 63, 68
1, 1041562, Control_c, 0, 64, 0
1, 1041562, Control_c, 0, 64, 0
1, 1041570, Note_on_c, 0, 79, 94
1, 1041570, Note_on_c, 0, 67, 76
1, 1041570, Note_on_c, 0, 39, 86
1, 1041580, Note_on_c, 0, 51, 0
1, 1041580, Note_on_c, 0, 80, 0
1, 1041648, Control_c, 0, 64, 0
1, 1041648, Control_c, 0, 64, 0
1, 1041702, Note_on_c, 0, 72, 86
1, 1041710, Note_on_c, 0, 67, 0
1, 1041764, Control_c, 0, 64, 127
1, 1041764, Control_c, 0, 64, 127
1, 1041804, Note_on_c, 0, 63, 0
1, 1041804, Note_on_c, 0, 60, 0
1, 1041804, Note_on_c, 0, 63, 79
1, 1042008, Note_on_c, 0, 63, 0
1, 1042008, Note_on_c, 0, 72, 0
1, 1042008, Note_on_c, 0, 58, 59
1, 1042011, Note_on_c, 0, 61, 70
1, 1042111, Note_on_c, 0, 70, 88
1, 1042243, Control_c, 0, 64, 0
1, 1042243, Note_on_c, 0, 68, 71
1, 1042243, Note_on_c, 0, 80, 93
1, 1042246, Control_c, 0, 64, 0
1, 1042246, Note_on_c, 0, 44, 90
1, 1042251, Note_on_c, 0, 70, 0
1, 1042251, Note_on_c, 0, 79, 0
1, 1042251, Note_on_c, 0, 39, 0
1, 1042332, Control_c, 0, 64, 0
1, 1042332, Control_c, 0, 64, 0
1, 1042430, Control_c, 0, 64, 127
1, 1042430, Control_c, 0, 64, 127
1, 1042457, Note_on_c, 0, 61, 0
1, 1042457, Note_on_c, 0, 58, 0
1, 1042457, Note_on_c, 0, 61, 82
1, 1042652, Note_on_c, 0, 61, 0
1, 1042652, Note_on_c, 0, 68, 0
1, 1042652, Note_on_c, 0, 80, 0
1, 1042655, Note_on_c, 0, 56, 61
1, 1042655, Note_on_c, 0, 60, 72
1, 1042839, Control_c, 0, 64, 0
1, 1042839, Control_c, 0, 64, 0
1, 1042847, Note_on_c, 0, 60, 97
1, 1042847, Note_on_c, 0, 72, 103
1, 1042847, Note_on_c, 0, 32, 92
1, 1042860, Note_on_c, 0, 44, 0
1, 1042955, Control_c, 0, 64, 0
1, 1042955, Control_c, 0, 64, 0
1, 1043008, Note_on_c, 0, 64, 98
1, 1043018, Note_on_c, 0, 60, 0
1, 1043060, Control_c, 0, 64, 127
1, 1043060, Control_c, 0, 64, 127
1, 1043133, Note_on_c, 0, 56, 0
1, 1043133, Note_on_c, 0, 60, 0
1, 1043133, Note_on_c, 0, 52, 85
1, 1043382, Note_on_c, 0, 52, 0
1, 1043382, Note_on_c, 0, 64, 0
1, 1043382, Note_on_c, 0, 51, 78
1, 1043507, Note_on_c, 0, 63, 96
1, 1043617, Control_c, 0, 64, 0
1, 1043617, Control_c, 0, 64, 0
1, 1043694, Note_on_c, 0, 72, 0
1, 1043694, Note_on_c, 0, 61, 83
1, 1043694, Note_on_c, 0, 73, 97
1, 1043697, Note_on_c, 0, 51, 0
1, 1043697, Control_c, 0, 64, 0
1, 1043697, Note_on_c, 0, 37, 80
1, 1043703, Note_on_c, 0, 63, 0
1, 1043703, Note_on_c, 0, 32, 0
1, 1043800, Control_c, 0, 64, 127
1, 1043800, Control_c, 0, 64, 127
1, 1043908, Note_on_c, 0, 69, 84
1, 1044081, Note_on_c, 0, 69, 0
1, 1044081, Note_on_c, 0, 64, 69
1, 1044081, Note_on_c, 0, 68, 77
1, 1044211, Note_on_c, 0, 72, 103
1, 1044211, Note_on_c, 0, 84, 97
1, 1044227, Note_on_c, 0, 73, 0
1, 1044227, Note_on_c, 0, 61, 0
1, 1044301, Control_c, 0, 64, 0
1, 1044301, Control_c, 0, 64, 0
1, 1044319, Note_on_c, 0, 37, 0
1, 1044319, Note_on_c, 0, 73, 103
1, 1044319, Note_on_c, 0, 85, 98
1, 1044322, Note_on_c, 0, 40, 86
1, 1044327, Note_on_c, 0, 84, 0
1, 1044327, Note_on_c, 0, 72, 0
1, 1044404, Control_c, 0, 64, 127
1, 1044404, Control_c, 0, 64, 127
1, 1044523, Note_on_c, 0, 68, 0
1, 1044523, Note_on_c, 0, 64, 0
1, 1044523, Note_on_c, 0, 66, 89
1, 1044696, Note_on_c, 0, 66, 0
1, 1044696, Note_on_c, 0, 61, 71
1, 1044696, Note_on_c, 0, 64, 81
1, 1044825, Note_on_c, 0, 85, 0
1, 1044825, Note_on_c, 0, 75, 91
1, 1044825, Note_on_c, 0, 87, 108
1, 1044842, Note_on_c, 0, 73, 0
1, 1044933, Note_on_c, 0, 75, 0
1, 1044933, Control_c, 0, 64, 0
1, 1044933, Note_on_c, 0, 76, 91
1, 1044936, Note_on_c, 0, 40, 0
1, 1044936, Note_on_c, 0, 88, 109
1, 1044936, Control_c, 0, 64, 0
1, 1044939, Note_on_c, 0, 87, 0
1, 1044939, Note_on_c, 0, 37, 91
1, 1045018, Control_c, 0, 64, 127
1, 1045018, Control_c, 0, 64, 127
1, 1045120, Note_on_c, 0, 61, 0
1, 1045120, Note_on_c, 0, 64, 0
1, 1045120, Note_on_c, 0, 63, 93
1, 1045293, Note_on_c, 0, 63, 0
1, 1045293, Note_on_c, 0, 56, 75
1, 1045293, Note_on_c, 0, 61, 85
1, 1045423, Note_on_c, 0, 75, 95
1, 1045423, Note_on_c, 0, 87, 113
1, 1045440, Note_on_c, 0, 88, 0
1, 1045440, Note_on_c, 0, 76, 0
1, 1045513, Control_c, 0, 64, 0
1, 1045513, Control_c, 0, 64, 0
1, 1045531, Note_on_c, 0, 37, 0
1, 1045531, Note_on_c, 0, 76, 95
1, 1045531, Note_on_c, 0, 88, 113
1, 1045534, Note_on_c, 0, 33, 97
1, 1045538, Note_on_c, 0, 87, 0
1, 1045538, Note_on_c, 0, 75, 0
1, 1045623, Control_c, 0, 64, 127
1, 1045623, Control_c, 0, 64, 127
1, 1045718, Note_on_c, 0, 61, 0
1, 1045718, Note_on_c, 0, 56, 0
1, 1045718, Note_on_c, 0, 57, 99
1, 1045891, Note_on_c, 0, 57, 0
1, 1045891, Note_on_c, 0, 52, 77
1, 1045891, Note_on_c, 0, 56, 89
1, 1046020, Note_on_c, 0, 78, 100
1, 1046020, Note_on_c, 0, 90, 117
1, 1046042, Note_on_c, 0, 76, 0
1, 1046042, Note_on_c, 0, 88, 0
1, 1046046, Control_c, 0, 64, 0
1, 1046046, Control_c, 0, 64, 0
1, 1046161, Note_on_c, 0, 79, 110
1, 1046161, Note_on_c, 0, 85, 110
1, 1046161, Note_on_c, 0, 88, 110
1, 1046164, Note_on_c, 0, 52, 0
1, 1046164, Note_on_c, 0, 91, 117
1, 1046164, Control_c, 0, 64, 0
1, 1046167, Note_on_c, 0, 78, 0
1, 1046167, Note_on_c, 0, 33, 0
1, 1046167, Note_on_c, 0, 56, 0
1, 1046167, Note_on_c, 0, 90, 0
1, 1046167, Note_on_c, 0, 33, 103
1, 1046253, Control_c, 0, 64, 127
1, 1046253, Control_c, 0, 64, 127
1, 1046348, Note_on_c, 0, 54, 84
1, 1046348, Note_on_c, 0, 66, 94
1, 1046552, Note_on_c, 0, 66, 0
1, 1046552, Note_on_c, 0, 54, 0
1, 1046552, Note_on_c, 0, 52, 75
1, 1046555, Note_on_c, 0, 64, 85
1, 1046718, Control_c, 0, 64, 0
1, 1046718, Control_c, 0, 64, 0
1, 1046725, Note_on_c, 0, 64, 0
1, 1046725, Note_on_c, 0, 33, 0
1, 1046725, Note_on_c, 0, 52, 0
1, 1046728, Note_on_c, 0, 33, 88
1, 1046728, Note_on_c, 0, 45, 76
1, 1046797, Control_c, 0, 64, 127
1, 1046797, Control_c, 0, 64, 127
1, 1046898, Note_on_c, 0, 57, 91
1, 1046898, Note_on_c, 0, 69, 102
1, 1047102, Note_on_c, 0, 69, 0
1, 1047102, Note_on_c, 0, 57, 0
1, 1047102, Note_on_c, 0, 52, 81
1, 1047105, Note_on_c, 0, 64, 92
1, 1047275, Note_on_c, 0, 64, 0
1, 1047275, Note_on_c, 0, 52, 0
1, 1047275, Control_c, 0, 64, 0
1, 1047278, Note_on_c, 0, 45, 0
1, 1047278, Note_on_c, 0, 33, 0
1, 1047278, Control_c, 0, 64, 0
1, 1047281, Note_on_c, 0, 33, 88
1, 1047281, Note_on_c, 0, 45, 76
1, 1047353, Control_c, 0, 64, 127
1, 1047353, Control_c, 0, 64, 127
1, 1047448, Note_on_c, 0, 62, 87
1, 1047448, Note_on_c, 0, 74, 102
1, 1047652, Note_on_c, 0, 85, 0
1, 1047652, Note_on_c, 0, 88, 0
1, 1047652, Note_on_c, 0, 79, 0
1, 1047655, Note_on_c, 0, 91, 0
1, 1047655, Note_on_c, 0, 74, 0
1, 1047655, Note_on_c, 0, 62, 0
1, 1047658, Note_on_c, 0, 61, 77
1, 1047658, Note_on_c, 0, 73, 92
1, 1047818, Control_c, 0, 64, 0
1, 1047818, Control_c, 0, 64, 0
1, 1047825, Note_on_c, 0, 73, 0
1, 1047825, Note_on_c, 0, 61, 0
1, 1047825, Note_on_c, 0, 69, 93
1, 1047828, Note_on_c, 0, 45, 0
1, 1047828, Note_on_c, 0, 33, 0
1, 1047828, Note_on_c, 0, 81, 108
1, 1047831, Note_on_c, 0, 48, 76
1, 1047925, Control_c, 0, 64, 127
1, 1047925, Control_c, 0, 64, 127
1, 1048029, Note_on_c, 0, 66, 78
1, 1048029, Note_on_c, 0, 78, 88
1, 1048202, Note_on_c, 0, 78, 0
1, 1048202, Note_on_c, 0, 66, 0
1, 1048202, Note_on_c, 0, 63, 69
1, 1048205, Note_on_c, 0, 75, 79
1, 1048296, Control_c, 0, 64, 127
1, 1048296, Control_c, 0, 64, 127
1, 1048426, Note_on_c, 0, 75, 0
1, 1048426, Note_on_c, 0, 63, 0
1, 1048426, Control_c, 0, 64, 127
1, 1048429, Note_on_c, 0, 81, 0
1, 1048429, Note_on_c, 0, 69, 0
1, 1048429, Note_on_c, 0, 68, 84
1, 1048432, Note_on_c, 0, 80, 99
1, 1048432, Control_c, 0, 64, 127
1, 1048432, Control_c, 0, 64, 0
1, 1048435, Note_on_c, 0, 48, 0
1, 1048435, Note_on_c, 0, 49, 81
1, 1048497, Control_c, 0, 64, 0
1, 1048497, Control_c, 0, 64, 0
1, 1048550, Control_c, 0, 64, 127
1, 1048550, Control_c, 0, 64, 127
1, 1048640, Note_on_c, 0, 64, 78
1, 1048640, Note_on_c, 0, 76, 86
1, 1048827, Note_on_c, 0, 76, 0
1, 1048827, Note_on_c, 0, 64, 0
1, 1048827, Note_on_c, 0, 61, 64
1, 1048830, Note_on_c, 0, 73, 73
1, 1049007, Control_c, 0, 64, 0
1, 1049007, Control_c, 0, 64, 0
1, 1049015, Note_on_c, 0, 49, 0
1, 1049015, Note_on_c, 0, 66, 84
1, 1049015, Note_on_c, 0, 78, 98
1, 1049018, Note_on_c, 0, 61, 0
1, 1049018, Note_on_c, 0, 73, 0
1, 1049018, Note_on_c, 0, 46, 77
1, 1049023, Note_on_c, 0, 68, 0
1, 1049023, Note_on_c, 0, 80, 0
1, 1049104, Control_c, 0, 64, 127
1, 1049104, Control_c, 0, 64, 127
1, 1049229, Note_on_c, 0, 64, 74
1, 1049229, Note_on_c, 0, 76, 82
1, 1049416, Note_on_c, 0, 76, 0
1, 1049416, Note_on_c, 0, 64, 0
1, 1049416, Note_on_c, 0, 61, 61
1, 1049419, Note_on_c, 0, 73, 69
1, 1049556, Note_on_c, 0, 64, 81
1, 1049556, Note_on_c, 0, 76, 94
1, 1049573, Note_on_c, 0, 66, 0
1, 1049573, Note_on_c, 0, 78, 0
1, 1049664, Note_on_c, 0, 64, 0
1, 1049664, Note_on_c, 0, 76, 0
1, 1049664, Control_c, 0, 64, 0
1, 1049667, Note_on_c, 0, 64, 81
1, 1049667, Note_on_c, 0, 76, 94
1, 1049667, Control_c, 0, 64, 0
1, 1049670, Note_on_c, 0, 61, 0
1, 1049670, Note_on_c, 0, 46, 0
1, 1049670, Note_on_c, 0, 73, 0
1, 1049673, Note_on_c, 0, 47, 79
1, 1049761, Control_c, 0, 64, 127
1, 1049761, Control_c, 0, 64, 127
1, 1049878, Note_on_c, 0, 59, 70
1, 1049878, Note_on_c, 0, 71, 78
1, 1050065, Note_on_c, 0, 71, 0
1, 1050065, Note_on_c, 0, 59, 0
1, 1050065, Note_on_c, 0, 56, 59
1, 1050068, Note_on_c, 0, 68, 66
1, 1050245, Control_c, 0, 64, 0
1, 1050245, Control_c, 0, 64, 0
1, 1050253, Note_on_c, 0, 56, 0
1, 1050253, Note_on_c, 0, 63, 77
1, 1050253, Note_on_c, 0, 75, 89
1, 1050256, Note_on_c, 0, 47, 0
1, 1050256, Note_on_c, 0, 68, 0
1, 1050256, Note_on_c, 0, 35, 74
1, 1050261, Note_on_c, 0, 76, 0
1, 1050261, Note_on_c, 0, 64, 0
1, 1050358, Control_c, 0, 64, 127
1, 1050358, Control_c, 0, 64, 127
1, 1050466, Note_on_c, 0, 57, 67
1, 1050466, Note_on_c, 0, 69, 73
1, 1050680, Note_on_c, 0, 69, 0
1, 1050680, Note_on_c, 0, 57, 0
1, 1050680, Note_on_c, 0, 54, 56
1, 1050683, Note_on_c, 0, 66, 62
1, 1050850, Control_c, 0, 64, 0
1, 1050850, Control_c, 0, 64, 0
1, 1050894, Note_on_c, 0, 62, 71
1, 1050894, Note_on_c, 0, 74, 83
1, 1050894, Control_c, 0, 64, 0
1, 1050897, Note_on_c, 0, 66, 0
1, 1050897, Note_on_c, 0, 54, 0
1, 1050897, Note_on_c, 0, 35, 0
1, 1050900, Note_on_c, 0, 40, 70
1, 1050903, Note_on_c, 0, 75, 0
1, 1050903, Note_on_c, 0, 63, 0
1, 1051005, Control_c, 0, 64, 127
1, 1051005, Control_c, 0, 64, 127
1, 1051119, Note_on_c, 0, 56, 60
1, 1051119, Note_on_c, 0, 68, 68
1, 1051333, Note_on_c, 0, 68, 0
1, 1051333, Note_on_c, 0, 56, 0
1, 1051333, Note_on_c, 0, 52, 46
1, 1051336, Note_on_c, 0, 64, 55
1, 1051538, Control_c, 0, 64, 0
1, 1051538, Control_c, 0, 64, 0
1, 1051547, Note_on_c, 0, 74, 0
1, 1051547, Note_on_c, 0, 62, 0
1, 1051547, Note_on_c, 0, 61, 69
1, 1051550, Note_on_c, 0, 52, 0
1, 1051550, Note_on_c, 0, 40, 0
1, 1051550, Note_on_c, 0, 73, 79
1, 1051553, Note_on_c, 0, 64, 0
1, 1051553, Note_on_c, 0, 33, 66
1, 1051651, Control_c, 0, 64, 127
1, 1051651, Control_c, 0, 64, 127
1, 1051796, Note_on_c, 0, 55, 56
1, 1051796, Note_on_c, 0, 67, 64
1, 1052021, Note_on_c, 0, 67, 0
1, 1052021, Note_on_c, 0, 55, 0
1, 1052021, Note_on_c, 0, 51, 43
1, 1052024, Note_on_c, 0, 63, 51
1, 1052246, Note_on_c, 0, 61, 0
1, 1052246, Note_on_c, 0, 73, 0
1, 1052246, Control_c, 0, 64, 0
1, 1052249, Note_on_c, 0, 60, 62
1, 1052249, Note_on_c, 0, 72, 70
1, 1052249, Control_c, 0, 64, 0
1, 1052252, Note_on_c, 0, 51, 0
1, 1052252, Note_on_c, 0, 63, 0
1, 1052252, Note_on_c, 0, 33, 0
1, 1052255, Note_on_c, 0, 32, 61
1, 1052349, Control_c, 0, 64, 0
1, 1052349, Control_c, 0, 64, 0
1, 1052491, Control_c, 0, 64, 127
1, 1052491, Control_c, 0, 64, 127
1, 1052510, Note_on_c, 0, 54, 52
1, 1052510, Note_on_c, 0, 66, 60
1, 1052760, Note_on_c, 0, 66, 0
1, 1052760, Note_on_c, 0, 54, 0
1, 1052760, Note_on_c, 0, 51, 41
1, 1052763, Note_on_c, 0, 63, 48
1, 1052770, Control_c, 0, 64, 127
1, 1052770, Control_c, 0, 64, 127
1, 1053009, Note_on_c, 0, 51, 0
1, 1053009, Note_on_c, 0, 72, 0
1, 1053009, Note_on_c, 0, 60, 0
1, 1053012, Note_on_c, 0, 32, 0
1, 1053012, Note_on_c, 0, 63, 0
1, 1053309, Note_on_c, 0, 56, 66
1, 1053590, Note_on_c, 0, 56, 0
1, 1053590, Note_on_c, 0, 56, 66
1, 1053675, Control_c, 0, 64, 127
1, 1053675, Control_c, 0, 64, 127
1, 1053814, Note_on_c, 0, 56, 0
1, 1053814, Control_c, 0, 64, 127
1, 1053814, Control_c, 0, 64, 127
1, 1053817, Note_on_c, 0, 56, 77
1, 1053891, Control_c, 0, 64, 0
1, 1053891, Control_c, 0, 64, 0
1, 1053953, Control_c, 0, 64, 127
1, 1053953, Control_c, 0, 64, 127
1, 1054078, Note_on_c, 0, 72, 58
1, 1054078, Note_on_c, 0, 75, 58
1, 1054078, Note_on_c, 0, 78, 58
1, 1054081, Note_on_c, 0, 81, 77
1, 1054081, Note_on_c, 0, 63, 58
1, 1054081, Note_on_c, 0, 66, 58
1, 1054084, Note_on_c, 0, 69, 67
1, 1054274, Note_on_c, 0, 60, 84
1, 1054284, Note_on_c, 0, 56, 0
1, 1054538, Note_on_c, 0, 63, 88
1, 1054546, Note_on_c, 0, 60, 0
1, 1054546, Control_c, 0, 64, 0
1, 1054546, Control_c, 0, 64, 0
1, 1054637, Control_c, 0, 64, 127
1, 1054637, Control_c, 0, 64, 127
1, 1054788, Note_on_c, 0, 72, 0
1, 1054788, Note_on_c, 0, 78, 0
1, 1054788, Note_on_c, 0, 75, 0
1, 1054791, Note_on_c, 0, 81, 0
1, 1054791, Note_on_c, 0, 72, 58
1, 1054791, Note_on_c, 0, 75, 58
1, 1054794, Note_on_c, 0, 63, 0
1, 1054794, Note_on_c, 0, 78, 58
1, 1054794, Note_on_c, 0, 81, 77
1, 1054797, Note_on_c, 0, 66, 0
1, 1054797, Note_on_c, 0, 69, 0
1, 1054797, Note_on_c, 0, 66, 58
1, 1054800, Note_on_c, 0, 69, 67
1, 1054983, Note_on_c, 0, 61, 92
1, 1054991, Note_on_c, 0, 63, 0
1, 1055178, Note_on_c, 0, 60, 91
1, 1055186, Note_on_c, 0, 61, 0
1, 1055190, Control_c, 0, 64, 0
1, 1055190, Control_c, 0, 64, 0
1, 1055261, Control_c, 0, 64, 127
1, 1055261, Control_c, 0, 64, 127
1, 1055374, Note_on_c, 0, 75, 0
1, 1055374, Note_on_c, 0, 72, 0
1, 1055374, Note_on_c, 0, 78, 0
1, 1055377, Note_on_c, 0, 81, 0
1, 1055377, Note_on_c, 0, 72, 58
1, 1055377, Note_on_c, 0, 75, 58
1, 1055380, Note_on_c, 0, 66, 0
1, 1055380, Note_on_c, 0, 78, 58
1, 1055380, Note_on_c, 0, 81, 77
1, 1055383, Note_on_c, 0, 69, 0
1, 1055383, Note_on_c, 0, 63, 58
1, 1055383, Note_on_c, 0, 66, 58
1, 1055386, Note_on_c, 0, 69, 67
1, 1055569, Note_on_c, 0, 57, 85
1, 1055577, Note_on_c, 0, 60, 0
1, 1055764, Note_on_c, 0, 56, 84
1, 1055772, Note_on_c, 0, 57, 0
1, 1055772, Control_c, 0, 64, 0
1, 1055772, Control_c, 0, 64, 0
1, 1055909, Control_c, 0, 64, 127
1, 1055909, Control_c, 0, 64, 127
1, 1055960, Note_on_c, 0, 72, 0
1, 1055960, Note_on_c, 0, 78, 0
1, 1055960, Note_on_c, 0, 75, 0
1, 1055963, Note_on_c, 0, 81, 0
1, 1055963, Note_on_c, 0, 69, 58
1, 1055963, Note_on_c, 0, 72, 58
1, 1055966, Note_on_c, 0, 75, 58
1, 1055966, Note_on_c, 0, 78, 58
1, 1055966, Note_on_c, 0, 81, 77
1, 1055969, Note_on_c, 0, 66, 0
1, 1055969, Note_on_c, 0, 69, 0
1, 1055969, Note_on_c, 0, 63, 0
1, 1055972, Note_on_c, 0, 60, 58
1, 1055972, Note_on_c, 0, 63, 67
1, 1056155, Note_on_c, 0, 54, 87
1, 1056165, Note_on_c, 0, 56, 0
1, 1056405, Note_on_c, 0, 54, 0
1, 1056405, Note_on_c, 0, 54, 87
1, 1056415, Control_c, 0, 64, 127
1, 1056415, Control_c, 0, 64, 127
1, 1056475, Control_c, 0, 64, 0
1, 1056475, Control_c, 0, 64, 0
1, 1056536, Control_c, 0, 64, 127
1, 1056536, Control_c, 0, 64, 127
1, 1056606, Control_c, 0, 64, 127
1, 1056606, Control_c, 0, 64, 127
1, 1056654, Note_on_c, 0, 75, 0
1, 1056654, Note_on_c, 0, 69, 0
1, 1056654, Note_on_c, 0, 72, 0
1, 1056657, Note_on_c, 0, 81, 0
1, 1056657, Note_on_c, 0, 78, 0
1, 1056657, Note_on_c, 0, 68, 58
1, 1056660, Note_on_c, 0, 73, 58
1, 1056660, Note_on_c, 0, 76, 58
1, 1056660, Note_on_c, 0, 80, 77
1, 1056663, Note_on_c, 0, 60, 0
1, 1056663, Note_on_c, 0, 63, 0
1, 1056663, Note_on_c, 0, 61, 58
1, 1056666, Note_on_c, 0, 64, 67
1, 1056850, Note_on_c, 0, 52, 85
1, 1056857, Note_on_c, 0, 54, 0
1, 1057045, Note_on_c, 0, 51, 84
1, 1057051, Note_on_c, 0, 52, 0
1, 1057051, Control_c, 0, 64, 0
1, 1057051, Control_c, 0, 64, 0
1, 1057122, Control_c, 0, 64, 127
1, 1057122, Control_c, 0, 64, 127
1, 1057240, Note_on_c, 0, 68, 0
1, 1057240, Note_on_c, 0, 73, 0
1, 1057240, Note_on_c, 0, 76, 0
1, 1057243, Note_on_c, 0, 80, 0
1, 1057243, Note_on_c, 0, 68, 58
1, 1057243, Note_on_c, 0, 73, 58
1, 1057246, Note_on_c, 0, 61, 0
1, 1057246, Note_on_c, 0, 76, 58
1, 1057246, Note_on_c, 0, 80, 79
1, 1057249, Note_on_c, 0, 64, 0
1, 1057249, Note_on_c, 0, 56, 58
1, 1057249, Note_on_c, 0, 61, 58
1, 1057252, Note_on_c, 0, 64, 67
1, 1057436, Note_on_c, 0, 52, 83
1, 1057443, Note_on_c, 0, 51, 0
1, 1057631, Note_on_c, 0, 49, 82
1, 1057639, Note_on_c, 0, 52, 0
1, 1057643, Control_c, 0, 64, 0
1, 1057643, Control_c, 0, 64, 0
1, 1057714, Control_c, 0, 64, 127
1, 1057714, Control_c, 0, 64, 127
1, 1057826, Note_on_c, 0, 68, 0
1, 1057826, Note_on_c, 0, 76, 0
1, 1057826, Note_on_c, 0, 73, 0
1, 1057829, Note_on_c, 0, 80, 0
1, 1057829, Note_on_c, 0, 68, 58
1, 1057829, Note_on_c, 0, 73, 58
1, 1057832, Note_on_c, 0, 56, 0
1, 1057832, Note_on_c, 0, 76, 58
1, 1057832, Note_on_c, 0, 80, 84
1, 1057835, Note_on_c, 0, 61, 0
1, 1057835, Note_on_c, 0, 64, 0
1, 1057835, Note_on_c, 0, 56, 49
1, 1057838, Note_on_c, 0, 61, 49
1, 1057838, Note_on_c, 0, 64, 61
1, 1058022, Note_on_c, 0, 49, 0
1, 1058022, Note_on_c, 0, 49, 78
1, 1058217, Note_on_c, 0, 49, 0
1, 1058217, Note_on_c, 0, 47, 78
1, 1058227, Control_c, 0, 64, 0
1, 1058227, Control_c, 0, 64, 0
1, 1058361, Control_c, 0, 64, 127
1, 1058361, Control_c, 0, 64, 127
1, 1058412, Note_on_c, 0, 73, 0
1, 1058412, Note_on_c, 0, 68, 0
1, 1058412, Note_on_c, 0, 76, 0
1, 1058415, Note_on_c, 0, 80, 0
1, 1058415, Note_on_c, 0, 68, 58
1, 1058415, Note_on_c, 0, 75, 58
1, 1058418, Note_on_c, 0, 56, 0
1, 1058418, Note_on_c, 0, 61, 0
1, 1058418, Note_on_c, 0, 80, 84
1, 1058421, Note_on_c, 0, 64, 0
1, 1058421, Note_on_c, 0, 56, 49
1, 1058421, Note_on_c, 0, 63, 61
1, 1058608, Note_on_c, 0, 47, 0
1, 1058608, Note_on_c, 0, 47, 78
1, 1058803, Note_on_c, 0, 47, 0
1, 1058803, Note_on_c, 0, 45, 75
1, 1058811, Control_c, 0, 64, 127
1, 1058811, Control_c, 0, 64, 127
1, 1058858, Control_c, 0, 64, 0
1, 1058858, Control_c, 0, 64, 0
1, 1058906, Control_c, 0, 64, 127
1, 1058906, Control_c, 0, 64, 127
1, 1058961, Control_c, 0, 64, 127
1, 1058961, Control_c, 0, 64, 127
1, 1058998, Note_on_c, 0, 75, 0
1, 1058998, Note_on_c, 0, 68, 0
1, 1058998, Note_on_c, 0, 80, 0
1, 1059001, Note_on_c, 0, 68, 55
1, 1059001, Note_on_c, 0, 73, 55
1, 1059001, Note_on_c, 0, 80, 87
1, 1059004, Note_on_c, 0, 63, 0
1, 1059004, Note_on_c, 0, 56, 0
1, 1059004, Note_on_c, 0, 52, 58
1, 1059007, Note_on_c, 0, 61, 67
1, 1059223, Note_on_c, 0, 45, 0
1, 1059223, Note_on_c, 0, 45, 75
1, 1059418, Note_on_c, 0, 45, 0
1, 1059418, Note_on_c, 0, 44, 75
1, 1059424, Control_c, 0, 64, 0
1, 1059424, Control_c, 0, 64, 0
1, 1059469, Control_c, 0, 64, 0
1, 1059469, Control_c, 0, 64, 0
1, 1059614, Note_on_c, 0, 80, 0
1, 1059614, Note_on_c, 0, 68, 0
1, 1059614, Note_on_c, 0, 73, 0
1, 1059617, Note_on_c, 0, 68, 55
1, 1059617, Note_on_c, 0, 71, 55
1, 1059617, Note_on_c, 0, 80, 95
1, 1059620, Note_on_c, 0, 61, 0
1, 1059620, Note_on_c, 0, 52, 0
1, 1059620, Note_on_c, 0, 52, 49
1, 1059623, Note_on_c, 0, 59, 61
1, 1059641, Control_c, 0, 64, 127
1, 1059641, Control_c, 0, 64, 127
1, 1059838, Note_on_c, 0, 44, 0
1, 1059838, Note_on_c, 0, 44, 75
1, 1059936, Note_on_c, 0, 80, 0
1, 1059936, Note_on_c, 0, 80, 76
1, 1059936, Note_on_c, 0, 92, 93
1, 1059944, Note_on_c, 0, 71, 0
1, 1059944, Note_on_c, 0, 68, 0
1, 1060034, Note_on_c, 0, 80, 0
1, 1060034, Note_on_c, 0, 92, 0
1, 1060034, Note_on_c, 0, 80, 76
1, 1060037, Note_on_c, 0, 44, 0
1, 1060037, Note_on_c, 0, 92, 93
1, 1060037, Note_on_c, 0, 45, 75
1, 1060045, Control_c, 0, 64, 0
1, 1060045, Control_c, 0, 64, 0
1, 1060094, Control_c, 0, 64, 0
1, 1060094, Control_c, 0, 64, 0
1, 1060229, Note_on_c, 0, 59, 0
1, 1060229, Note_on_c, 0, 52, 0
1, 1060229, Note_on_c, 0, 52, 49
1, 1060232, Note_on_c, 0, 61, 61
1, 1060263, Control_c, 0, 64, 127
1, 1060263, Control_c, 0, 64, 127
1, 1060424, Note_on_c, 0, 45, 0
1, 1060424, Note_on_c, 0, 69, 67
1, 1060424, Note_on_c, 0, 81, 79
1, 1060427, Note_on_c, 0, 45, 75
1, 1060432, Note_on_c, 0, 80, 0
1, 1060432, Note_on_c, 0, 92, 0
1, 1060620, Note_on_c, 0, 81, 0
1, 1060620, Note_on_c, 0, 69, 0
1, 1060620, Note_on_c, 0, 45, 0
1, 1060623, Note_on_c, 0, 46, 66
1, 1060632, Control_c, 0, 64, 0
1, 1060632, Control_c, 0, 64, 0
1, 1060792, Control_c, 0, 64, 0
1, 1060792, Control_c, 0, 64, 0
1, 1060869, Note_on_c, 0, 52, 0
1, 1060869, Note_on_c, 0, 68, 72
1, 1060869, Note_on_c, 0, 80, 92
1, 1060872, Note_on_c, 0, 61, 0
1, 1060872, Control_c, 0, 64, 127
1, 1060872, Note_on_c, 0, 52, 49
1, 1060872, Note_on_c, 0, 61, 61
1, 1060872, Control_c, 0, 64, 127
1, 1061073, Note_on_c, 0, 46, 0
1, 1061073, Note_on_c, 0, 46, 75
1, 1061186, Note_on_c, 0, 76, 79
1, 1061186, Note_on_c, 0, 88, 91
1, 1061195, Note_on_c, 0, 80, 0
1, 1061195, Note_on_c, 0, 68, 0
1, 1061298, Note_on_c, 0, 76, 0
1, 1061298, Note_on_c, 0, 88, 0
1, 1061298, Note_on_c, 0, 76, 83
1, 1061301, Note_on_c, 0, 46, 0
1, 1061301, Note_on_c, 0, 88, 97
1, 1061301, Note_on_c, 0, 47, 69
1, 1061306, Control_c, 0, 64, 127
1, 1061306, Control_c, 0, 64, 127
1, 1061306, Control_c, 0, 64, 127
1, 1061309, Control_c, 0, 64, 127
1, 1061353, Control_c, 0, 64, 0
1, 1061353, Control_c, 0, 64, 0
1, 1061353, Control_c, 0, 64, 0
1, 1061356, Control_c, 0, 64, 0
1, 1061401, Control_c, 0, 64, 127
1, 1061401, Control_c, 0, 64, 127
1, 1061401, Control_c, 0, 64, 127
1, 1061404, Control_c, 0, 64, 127
1, 1061456, Control_c, 0, 64, 127
1, 1061456, Control_c, 0, 64, 127
1, 1061456, Control_c, 0, 64, 127
1, 1061459, Control_c, 0, 64, 127
1, 1061493, Note_on_c, 0, 52, 0
1, 1061493, Note_on_c, 0, 61, 0
1, 1061493, Note_on_c, 0, 52, 61
1, 1061496, Note_on_c, 0, 59, 71
1, 1061689, Note_on_c, 0, 47, 0
1, 1061689, Note_on_c, 0, 68, 74
1, 1061689, Note_on_c, 0, 80, 88
1, 1061692, Note_on_c, 0, 47, 71
1, 1061697, Note_on_c, 0, 76, 0
1, 1061697, Note_on_c, 0, 88, 0
1, 1061903, Note_on_c, 0, 80, 0
1, 1061903, Note_on_c, 0, 68, 0
1, 1061903, Note_on_c, 0, 47, 0
1, 1061906, Note_on_c, 0, 48, 72
1, 1061909, Control_c, 0, 64, 0
1, 1061909, Control_c, 0, 64, 0
1, 1061909, Control_c, 0, 64, 0
1, 1061912, Control_c, 0, 64, 0
1, 1061953, Control_c, 0, 64, 0
1, 1061953, Control_c, 0, 64, 0
1, 1061980, Control_c, 0, 64, 127
1, 1061980, Control_c, 0, 64, 127
1, 1062098, Note_on_c, 0, 52, 0
1, 1062098, Note_on_c, 0, 67, 83
1, 1062098, Note_on_c, 0, 79, 97
1, 1062101, Note_on_c, 0, 59, 0
1, 1062101, Note_on_c, 0, 52, 63
1, 1062101, Note_on_c, 0, 58, 77
1, 1062121, Control_c, 0, 64, 127
1, 1062121, Control_c, 0, 64, 127
1, 1062285, Note_on_c, 0, 48, 0
1, 1062285, Note_on_c, 0, 48, 73
1, 1062383, Note_on_c, 0, 76, 88
1, 1062383, Note_on_c, 0, 88, 102
1, 1062391, Note_on_c, 0, 79, 0
1, 1062391, Note_on_c, 0, 67, 0
1, 1062481, Note_on_c, 0, 76, 0
1, 1062481, Note_on_c, 0, 88, 0
1, 1062481, Note_on_c, 0, 76, 88
1, 1062484, Note_on_c, 0, 48, 0
1, 1062484, Note_on_c, 0, 88, 102
1, 1062484, Note_on_c, 0, 49, 74
1, 1062492, Control_c, 0, 64, 0
1, 1062492, Control_c, 0, 64, 0
1, 1062492, Control_c, 0, 64, 0
1, 1062495, Control_c, 0, 64, 0
1, 1062541, Control_c, 0, 64, 0
1, 1062541, Control_c, 0, 64, 0
1, 1062563, Control_c, 0, 64, 127
1, 1062563, Control_c, 0, 64, 127
1, 1062676, Note_on_c, 0, 52, 0
1, 1062676, Note_on_c, 0, 58, 0
1, 1062676, Note_on_c, 0, 52, 53
1, 1062679, Note_on_c, 0, 57, 68
1, 1062712, Control_c, 0, 64, 127
1, 1062712, Control_c, 0, 64, 127
1, 1062880, Note_on_c, 0, 49, 0
1, 1062880, Note_on_c, 0, 67, 83
1, 1062880, Note_on_c, 0, 79, 97
1, 1062883, Note_on_c, 0, 49, 75
1, 1062892, Note_on_c, 0, 76, 0
1, 1062892, Note_on_c, 0, 88, 0
1, 1063180, Note_on_c, 0, 66, 79
1, 1063180, Note_on_c, 0, 78, 94
1, 1063180, Note_on_c, 0, 74, 94
1, 1063183, Note_on_c, 0, 52, 0
1, 1063183, Note_on_c, 0, 49, 0
1, 1063183, Note_on_c, 0, 50, 76
1, 1063186, Note_on_c, 0, 57, 0
1, 1063186, Note_on_c, 0, 57, 54
1, 1063191, Note_on_c, 0, 79, 0
1, 1063191, Note_on_c, 0, 67, 0
1, 1063195, Control_c, 0, 64, 0
1, 1063195, Control_c, 0, 64, 0
1, 1063195, Control_c, 0, 64, 0
1, 1063198, Control_c, 0, 64, 0
1, 1063387, Control_c, 0, 64, 0
1, 1063387, Control_c, 0, 64, 0
1, 1063401, Control_c, 0, 64, 127
1, 1063401, Control_c, 0, 64, 127
1, 1063479, Note_on_c, 0, 73, 101
1, 1063485, Control_c, 0, 64, 127
1, 1063485, Control_c, 0, 64, 127
1, 1063489, Note_on_c, 0, 74, 0
1, 1063729, Note_on_c, 0, 72, 101
1, 1063729, Note_on_c, 0, 68, 89
1, 1063729, Note_on_c, 0, 80, 107
1, 1063732, Note_on_c, 0, 57, 0
1, 1063732, Note_on_c, 0, 50, 0
1, 1063732, Note_on_c, 0, 51, 57
1, 1063735, Note_on_c, 0, 56, 79
1, 1063743, Note_on_c, 0, 78, 0
1, 1063743, Note_on_c, 0, 66, 0
1, 1063743, Note_on_c, 0, 73, 0
1, 1063795, Control_c, 0, 64, 0
1, 1063795, Control_c, 0, 64, 0
1, 1063995, Control_c, 0, 64, 127
1, 1063995, Control_c, 0, 64, 127
1, 1064103, Note_on_c, 0, 68, 0
1, 1064103, Note_on_c, 0, 72, 0
1, 1064103, Control_c, 0, 64, 127
1, 1064106, Note_on_c, 0, 80, 0
1, 1064106, Note_on_c, 0, 64, 88
1, 1064106, Note_on_c, 0, 68, 88
1, 1064109, Note_on_c, 0, 51, 0
1, 1064109, Note_on_c, 0, 73, 106
1, 1064109, Control_c, 0, 64, 127
1, 1064112, Note_on_c, 0, 56, 0
1, 1064112, Note_on_c, 0, 49, 100
1, 1064138, Control_c, 0, 64, 0
1, 1064138, Control_c, 0, 64, 0
1, 1064200, Control_c, 0, 64, 127
1, 1064200, Control_c, 0, 64, 127
1, 1064317, Note_on_c, 0, 61, 88
1, 1064490, Note_on_c, 0, 61, 0
1, 1064490, Note_on_c, 0, 56, 89
1, 1064620, Note_on_c, 0, 60, 89
1, 1064620, Note_on_c, 0, 72, 107
1, 1064631, Note_on_c, 0, 73, 0
1, 1064631, Note_on_c, 0, 68, 0
1, 1064631, Note_on_c, 0, 64, 0
1, 1064694, Note_on_c, 0, 61, 90
1, 1064694, Note_on_c, 0, 64, 90
1, 1064694, Note_on_c, 0, 68, 90
1, 1064697, Note_on_c, 0, 73, 108
1, 1064697, Note_on_c, 0, 44, 103
1, 1064702, Note_on_c, 0, 72, 0
1, 1064702, Note_on_c, 0, 49, 0
1, 1064702, Note_on_c, 0, 60, 0
1, 1064702, Control_c, 0, 64, 0
1, 1064702, Control_c, 0, 64, 0
1, 1064874, Control_c, 0, 64, 127
1, 1064874, Control_c, 0, 64, 127
1, 1064882, Note_on_c, 0, 56, 0
1, 1064882, Note_on_c, 0, 56, 91
1, 1065054, Note_on_c, 0, 56, 0
1, 1065054, Note_on_c, 0, 52, 92
1, 1065184, Note_on_c, 0, 63, 91
1, 1065184, Note_on_c, 0, 75, 110
1, 1065196, Note_on_c, 0, 64, 0
1, 1065196, Note_on_c, 0, 61, 0
1, 1065196, Note_on_c, 0, 68, 0
1, 1065199, Note_on_c, 0, 73, 0
1, 1065259, Note_on_c, 0, 64, 91
1, 1065259, Note_on_c, 0, 68, 91
1, 1065259, Note_on_c, 0, 73, 91
1, 1065262, Note_on_c, 0, 76, 110
1, 1065262, Note_on_c, 0, 40, 107
1, 1065266, Note_on_c, 0, 44, 0
1, 1065266, Note_on_c, 0, 75, 0
1, 1065266, Note_on_c, 0, 63, 0
1, 1065271, Control_c, 0, 64, 0
1, 1065271, Control_c, 0, 64, 0
1, 1065446, Note_on_c, 0, 52, 0
1, 1065446, Note_on_c, 0, 52, 95
1, 1065505, Control_c, 0, 64, 127
1, 1065505, Control_c, 0, 64, 127
1, 1065619, Note_on_c, 0, 52, 0
1, 1065619, Note_on_c, 0, 49, 96
1, 1065749, Note_on_c, 0, 63, 92
1, 1065749, Note_on_c, 0, 75, 111
1, 1065760, Note_on_c, 0, 68, 0
1, 1065760, Note_on_c, 0, 64, 0
1, 1065760, Note_on_c, 0, 73, 0
1, 1065763, Note_on_c, 0, 76, 0
1, 1065823, Note_on_c, 0, 64, 92
1, 1065823, Note_on_c, 0, 68, 92
1, 1065823, Note_on_c, 0, 73, 92
1, 1065826, Note_on_c, 0, 76, 112
1, 1065826, Note_on_c, 0, 37, 111
1, 1065829, Note_on_c, 0, 40, 0
1, 1065829, Note_on_c, 0, 75, 0
1, 1065829, Note_on_c, 0, 63, 0
1, 1065829, Control_c, 0, 64, 0
1, 1065829, Control_c, 0, 64, 0
1, 1066011, Note_on_c, 0, 49, 0
1, 1066011, Note_on_c, 0, 49, 98
1, 1066057, Control_c, 0, 64, 127
1, 1066057, Control_c, 0, 64, 127
1, 1066183, Note_on_c, 0, 49, 0
1, 1066183, Note_on_c, 0, 44, 99
1, 1066313, Note_on_c, 0, 66, 94
1, 1066313, Note_on_c, 0, 78, 113
1, 1066332, Note_on_c, 0, 68, 0
1, 1066332, Note_on_c, 0, 64, 0
1, 1066332, Note_on_c, 0, 73, 0
1, 1066335, Note_on_c, 0, 76, 0
1, 1066335, Control_c, 0, 64, 0
1, 1066335, Control_c, 0, 64, 0
1, 1066438, Note_on_c, 0, 67, 93
1, 1066438, Note_on_c, 0, 69, 93
1, 1066438, Note_on_c, 0, 73, 93
1, 1066441, Note_on_c, 0, 44, 0
1, 1066441, Note_on_c, 0, 76, 93
1, 1066441, Note_on_c, 0, 79, 113
1, 1066444, Note_on_c, 0, 33, 100
1, 1066444, Note_on_c, 0, 45, 88
1, 1066448, Note_on_c, 0, 66, 0
1, 1066448, Note_on_c, 0, 78, 0
1, 1066448, Note_on_c, 0, 37, 0
1, 1066558, Control_c, 0, 64, 127
1, 1066558, Control_c, 0, 64, 127
1, 1066702, Note_on_c, 0, 55, 85
1, 1066702, Note_on_c, 0, 67, 94
1, 1066875, Note_on_c, 0, 67, 0
1, 1066875, Note_on_c, 0, 55, 0
1, 1066875, Note_on_c, 0, 52, 79
1, 1066878, Note_on_c, 0, 64, 88
1, 1067048, Note_on_c, 0, 67, 0
1, 1067048, Note_on_c, 0, 73, 0
1, 1067048, Note_on_c, 0, 69, 0
1, 1067051, Note_on_c, 0, 79, 0
1, 1067051, Note_on_c, 0, 76, 0
1, 1067051, Note_on_c, 0, 66, 95
1, 1067054, Note_on_c, 0, 69, 95
1, 1067054, Note_on_c, 0, 72, 95
1, 1067054, Note_on_c, 0, 74, 95
1, 1067057, Note_on_c, 0, 45, 0
1, 1067057, Note_on_c, 0, 33, 0
1, 1067057, Note_on_c, 0, 78, 110
1, 1067060, Note_on_c, 0, 52, 0
1, 1067060, Note_on_c, 0, 64, 0
1, 1067060, Note_on_c, 0, 38, 100
1, 1067063, Control_c, 0, 64, 0
1, 1067063, Note_on_c, 0, 50, 88
1, 1067063, Control_c, 0, 64, 0
1, 1067227, Control_c, 0, 64, 127
1, 1067227, Control_c, 0, 64, 127
1, 1067235, Note_on_c, 0, 54, 85
1, 1067235, Note_on_c, 0, 66, 94
1, 1067408, Note_on_c, 0, 66, 0
1, 1067408, Note_on_c, 0, 54, 0
1, 1067408, Note_on_c, 0, 50, 79
1, 1067411, Note_on_c, 0, 62, 88
1, 1067580, Note_on_c, 0, 66, 0
1, 1067580, Note_on_c, 0, 72, 0
1, 1067580, Note_on_c, 0, 69, 0
1, 1067583, Note_on_c, 0, 78, 0
1, 1067583, Note_on_c, 0, 74, 0
1, 1067583, Note_on_c, 0, 65, 97
1, 1067586, Note_on_c, 0, 71, 97
1, 1067586, Note_on_c, 0, 74, 97
1, 1067586, Note_on_c, 0, 77, 113
1, 1067589, Note_on_c, 0, 50, 0
1, 1067589, Note_on_c, 0, 62, 0
1, 1067589, Note_on_c, 0, 38, 0
1, 1067592, Note_on_c, 0, 50, 0
1, 1067592, Note_on_c, 0, 31, 100
1, 1067592, Note_on_c, 0, 43, 88
1, 1067597, Control_c, 0, 64, 0
1, 1067597, Control_c, 0, 64, 0
1, 1067845, Note_on_c, 0, 53, 85
1, 1067845, Note_on_c, 0, 65, 94
1, 1067908, Control_c, 0, 64, 127
1, 1067908, Control_c, 0, 64, 127
1, 1068032, Note_on_c, 0, 65, 0
1, 1068032, Note_on_c, 0, 53, 0
1, 1068032, Note_on_c, 0, 50, 79
1, 1068035, Note_on_c, 0, 62, 88
1, 1068219, Note_on_c, 0, 74, 0
1, 1068219, Note_on_c, 0, 71, 0
1, 1068219, Note_on_c, 0, 65, 0
1, 1068222, Note_on_c, 0, 77, 0
1, 1068222, Note_on_c, 0, 65, 99
1, 1068222, Note_on_c, 0, 68, 99
1, 1068225, Note_on_c, 0, 71, 99
1, 1068225, Note_on_c, 0, 73, 99
1, 1068225, Note_on_c, 0, 77, 115
1, 1068228, Note_on_c, 0, 31, 0
1, 1068228, Note_on_c, 0, 62, 0
1, 1068228, Note_on_c, 0, 50, 0
1, 1068231, Note_on_c, 0, 43, 0
1, 1068231, Note_on_c, 0, 32, 100
1, 1068231, Note_on_c, 0, 44, 88
1, 1068234, Control_c, 0, 64, 0
1, 1068234, Control_c, 0, 64, 0
1, 1068433, Note_on_c, 0, 53, 85
1, 1068433, Note_on_c, 0, 65, 94
1, 1068479, Control_c, 0, 64, 127
1, 1068479, Control_c, 0, 64, 127
1, 1068606, Note_on_c, 0, 65, 0
1, 1068606, Note_on_c, 0, 53, 0
1, 1068606, Note_on_c, 0, 49, 79
1, 1068609, Note_on_c, 0, 61, 88
1, 1068743, Control_c, 0, 64, 0
1, 1068743, Control_c, 0, 64, 0
1, 1068779, Note_on_c, 0, 65, 0
1, 1068779, Note_on_c, 0, 71, 0
1, 1068779, Note_on_c, 0, 68, 0
1, 1068782, Note_on_c, 0, 77, 0
1, 1068782, Note_on_c, 0, 73, 0
1, 1068782, Note_on_c, 0, 66, 101
1, 1068785, Note_on_c, 0, 69, 101
1, 1068785, Note_on_c, 0, 73, 101
1, 1068785, Note_on_c, 0, 78, 117
1, 1068788, Note_on_c, 0, 32, 0
1, 1068788, Note_on_c, 0, 61, 0
1, 1068788, Note_on_c, 0, 49, 0
1, 1068791, Note_on_c, 0, 44, 0
1, 1068791, Note_on_c, 0, 33, 103
1, 1068791, Note_on_c, 0, 45, 88
1, 1068864, Control_c, 0, 64, 127
1, 1068864, Control_c, 0, 64, 127
1, 1068966, Note_on_c, 0, 54, 85
1, 1068966, Note_on_c, 0, 66, 94
1, 1069153, Note_on_c, 0, 66, 0
1, 1069153, Note_on_c, 0, 69, 0
1, 1069153, Note_on_c, 0, 73, 0
1, 1069156, Note_on_c, 0, 78, 0
1, 1069156, Note_on_c, 0, 33, 0
1, 1069156, Note_on_c, 0, 45, 0
1, 1069159, Note_on_c, 0, 66, 0
1, 1069159, Note_on_c, 0, 54, 0
1, 1069159, Note_on_c, 0, 49, 79
1, 1069162, Note_on_c, 0, 61, 88
1, 1069247, Note_on_c, 0, 66, 103
1, 1069247, Note_on_c, 0, 68, 103
1, 1069247, Note_on_c, 0, 75, 103
1, 1069250, Note_on_c, 0, 78, 117
1, 1069250, Note_on_c, 0, 36, 103
1, 1069250, Note_on_c, 0, 48, 88
1, 1069371, Note_on_c, 0, 75, 0
1, 1069371, Note_on_c, 0, 68, 0
1, 1069371, Note_on_c, 0, 66, 0
1, 1069374, Note_on_c, 0, 78, 0
1, 1069374, Note_on_c, 0, 64, 103
1, 1069374, Note_on_c, 0, 68, 103
1, 1069377, Note_on_c, 0, 49, 0
1, 1069377, Note_on_c, 0, 73, 103
1, 1069377, Note_on_c, 0, 76, 117
1, 1069380, Note_on_c, 0, 36, 0
1, 1069380, Note_on_c, 0, 48, 0
1, 1069380, Note_on_c, 0, 61, 0
1, 1069383, Control_c, 0, 64, 0
1, 1069383, Note_on_c, 0, 37, 103
1, 1069383, Note_on_c, 0, 49, 88
1, 1069386, Control_c, 0, 64, 0
1, 1069537, Control_c, 0, 64, 127
1, 1069537, Control_c, 0, 64, 127
1, 1069544, Note_on_c, 0, 52, 85
1, 1069544, Note_on_c, 0, 64, 94
1, 1069717, Note_on_c, 0, 64, 0
1, 1069717, Note_on_c, 0, 68, 0
1, 1069717, Note_on_c, 0, 73, 0
1, 1069720, Note_on_c, 0, 76, 0
1, 1069720, Note_on_c, 0, 64, 0
1, 1069720, Note_on_c, 0, 52, 0
1, 1069723, Note_on_c, 0, 37, 0
1, 1069723, Note_on_c, 0, 49, 79
1, 1069723, Note_on_c, 0, 61, 88
1, 1069726, Note_on_c, 0, 49, 0
1, 1069803, Note_on_c, 0, 63, 105
1, 1069803, Note_on_c, 0, 66, 105
1, 1069803, Note_on_c, 0, 69, 105
1, 1069806, Note_on_c, 0, 73, 105
1, 1069806, Note_on_c, 0, 75, 117
1, 1069806, Note_on_c, 0, 30, 103
1, 1069809, Note_on_c, 0, 42, 88
1, 1069928, Note_on_c, 0, 69, 0
1, 1069928, Note_on_c, 0, 66, 0
1, 1069928, Note_on_c, 0, 63, 0
1, 1069931, Note_on_c, 0, 73, 0
1, 1069931, Note_on_c, 0, 75, 0
1, 1069931, Note_on_c, 0, 64, 105
1, 1069934, Note_on_c, 0, 68, 105
1, 1069934, Note_on_c, 0, 73, 105
1, 1069934, Note_on_c, 0, 76, 117
1, 1069937, Note_on_c, 0, 49, 0
1, 1069937, Note_on_c, 0, 30, 0
1, 1069937, Note_on_c, 0, 61, 0
1, 1069940, Note_on_c, 0, 42, 0
1, 1069940, Note_on_c, 0, 32, 103
1, 1069940, Note_on_c, 0, 44, 88
1, 1069943, Control_c, 0, 64, 0
1, 1069943, Control_c, 0, 64, 0
1, 1070101, Note_on_c, 0, 52, 85
1, 1070101, Note_on_c, 0, 64, 94
1, 1070160, Control_c, 0, 64, 127
1, 1070160, Control_c, 0, 64, 127
1, 1070274, Note_on_c, 0, 64, 0
1, 1070274, Note_on_c, 0, 52, 0
1, 1070274, Note_on_c, 0, 49, 79
1, 1070277, Note_on_c, 0, 61, 88
1, 1070447, Note_on_c, 0, 73, 0
1, 1070447, Note_on_c, 0, 68, 0
1, 1070447, Note_on_c, 0, 64, 0
1, 1070450, Note_on_c, 0, 76, 0
1, 1070450, Note_on_c, 0, 63, 107
1, 1070450, Note_on_c, 0, 68, 107
1, 1070453, Note_on_c, 0, 49, 0
1, 1070453, Note_on_c, 0, 73, 107
1, 1070453, Note_on_c, 0, 75, 117
1, 1070456, Note_on_c, 0, 44, 0
1, 1070456, Note_on_c, 0, 61, 0
1, 1070456, Note_on_c, 0, 32, 0
1, 1070459, Control_c, 0, 64, 0
1, 1070459, Note_on_c, 0, 32, 103
1, 1070459, Note_on_c, 0, 44, 88
1, 1070462, Control_c, 0, 64, 0
1, 1070619, Note_on_c, 0, 51, 85
1, 1070619, Note_on_c, 0, 63, 94
1, 1070666, Control_c, 0, 64, 127
1, 1070666, Control_c, 0, 64, 127
1, 1070792, Note_on_c, 0, 63, 0
1, 1070792, Note_on_c, 0, 68, 0
1, 1070792, Note_on_c, 0, 73, 0
1, 1070795, Note_on_c, 0, 75, 0
1, 1070795, Note_on_c, 0, 63, 0
1, 1070795, Note_on_c, 0, 51, 0
1, 1070798, Note_on_c, 0, 49, 79
1, 1070798, Note_on_c, 0, 61, 88
1, 1070879, Note_on_c, 0, 73, 117
1, 1070961, Control_c, 0, 64, 0
1, 1070961, Control_c, 0, 64, 0
1, 1071019, Note_on_c, 0, 73, 0
1, 1071019, Note_on_c, 0, 73, 115
1, 1071019, Note_on_c, 0, 61, 102
1, 1071022, Note_on_c, 0, 49, 0
1, 1071022, Note_on_c, 0, 64, 102
1, 1071022, Note_on_c, 0, 68, 102
1, 1071025, Note_on_c, 0, 61, 0
1, 1071025, Note_on_c, 0, 32, 0
1, 1071025, Note_on_c, 0, 44, 0
1, 1071028, Note_on_c, 0, 37, 103
1, 1071028, Note_on_c, 0, 49, 88
1, 1071204, Control_c, 0, 64, 127
1, 1071204, Control_c, 0, 64, 127
1, 1071283, Note_on_c, 0, 68, 0
1, 1071283, Note_on_c, 0, 64, 0
1, 1071283, Note_on_c, 0, 64, 90
1, 1071286, Note_on_c, 0, 52, 79
1, 1071291, Note_on_c, 0, 61, 0
1, 1071488, Note_on_c, 0, 68, 97
1, 1071488, Note_on_c, 0, 56, 90
1, 1071497, Note_on_c, 0, 64, 0
1, 1071497, Note_on_c, 0, 52, 0
1, 1071737, Note_on_c, 0, 73, 0
1, 1071737, Note_on_c, 0, 69, 104
1, 1071737, Note_on_c, 0, 60, 94
1, 1071740, Note_on_c, 0, 49, 0
1, 1071740, Note_on_c, 0, 37, 0
1, 1071740, Note_on_c, 0, 63, 94
1, 1071743, Note_on_c, 0, 57, 101
1, 1071743, Note_on_c, 0, 44, 79
1, 1071749, Note_on_c, 0, 68, 0
1, 1071749, Note_on_c, 0, 56, 0
1, 1071752, Control_c, 0, 64, 0
1, 1071752, Control_c, 0, 64, 0
1, 1071913, Control_c, 0, 64, 127
1, 1071913, Control_c, 0, 64, 127
1, 1072037, Note_on_c, 0, 66, 101
1, 1072037, Note_on_c, 0, 54, 92
1, 1072046, Note_on_c, 0, 69, 0
1, 1072046, Note_on_c, 0, 57, 0
1, 1072286, Note_on_c, 0, 63, 90
1, 1072286, Note_on_c, 0, 51, 81
1, 1072296, Note_on_c, 0, 66, 0
1, 1072296, Note_on_c, 0, 54, 0
1, 1072520, Control_c, 0, 64, 0
1, 1072520, Control_c, 0, 64, 0
1, 1072536, Note_on_c, 0, 60, 0
1, 1072536, Note_on_c, 0, 63, 0
1, 1072536, Note_on_c, 0, 61, 91
1, 1072539, Note_on_c, 0, 44, 0
1, 1072539, Note_on_c, 0, 54, 64
1, 1072539, Note_on_c, 0, 57, 88
1, 1072542, Note_on_c, 0, 37, 64
1, 1072542, Note_on_c, 0, 49, 64
1, 1072546, Note_on_c, 0, 63, 0
1, 1072546, Note_on_c, 0, 51, 0
1, 1072800, Note_on_c, 0, 52, 73
1, 1072800, Note_on_c, 0, 56, 84
1, 1072810, Note_on_c, 0, 57, 0
1, 1072810, Note_on_c, 0, 54, 0
1, 1073050, Note_on_c, 0, 51, 70
1, 1073050, Note_on_c, 0, 54, 81
1, 1073060, Note_on_c, 0, 52, 0
1, 1073060, Note_on_c, 0, 56, 0
1, 1073314, Note_on_c, 0, 52, 67
1, 1073314, Note_on_c, 0, 56, 77
1, 1073327, Note_on_c, 0, 51, 0
1, 1073327, Note_on_c, 0, 54, 0
1, 1073635, Note_on_c, 0, 52, 0
1, 1073635, Note_on_c, 0, 56, 0
1, 1073635, Note_on_c, 0, 56, 76
1, 1073641, Control_c, 0, 64, 127
1, 1073641, Control_c, 0, 64, 127
1, 1073916, Note_on_c, 0, 56, 0
1, 1073916, Note_on_c, 0, 61, 0
1, 1073916, Note_on_c, 0, 56, 76
1, 1073919, Note_on_c, 0, 37, 0
1, 1073919, Note_on_c, 0, 49, 0
1, 1074165, Note_on_c, 0, 56, 0
1, 1074165, Control_c, 0, 64, 127
1, 1074165, Control_c, 0, 64, 127
1, 1074168, Note_on_c, 0, 56, 77
1, 1074242, Control_c, 0, 64, 0
1, 1074242, Control_c, 0, 64, 0
1, 1074304, Control_c, 0, 64, 127
1, 1074304, Control_c, 0, 64, 127
1, 1074430, Note_on_c, 0, 72, 58
1, 1074430, Note_on_c, 0, 75, 58
1, 1074430, Note_on_c, 0, 78, 58
1, 1074433, Note_on_c, 0, 81, 77
1, 1074433, Note_on_c, 0, 63, 58
1, 1074433, Note_on_c, 0, 66, 58
1, 1074436, Note_on_c, 0, 69, 67
1, 1074625, Note_on_c, 0, 60, 84
1, 1074635, Note_on_c, 0, 56, 0
1, 1074889, Note_on_c, 0, 63, 88
1, 1074897, Note_on_c, 0, 60, 0
1, 1074897, Control_c, 0, 64, 0
1, 1074897, Control_c, 0, 64, 0
1, 1074988, Control_c, 0, 64, 127
1, 1074988, Control_c, 0, 64, 127
1, 1075139, Note_on_c, 0, 72, 0
1, 1075139, Note_on_c, 0, 78, 0
1, 1075139, Note_on_c, 0, 75, 0
1, 1075142, Note_on_c, 0, 81, 0
1, 1075142, Note_on_c, 0, 72, 58
1, 1075142, Note_on_c, 0, 75, 58
1, 1075145, Note_on_c, 0, 63, 0
1, 1075145, Note_on_c, 0, 78, 58
1, 1075145, Note_on_c, 0, 81, 77
1, 1075148, Note_on_c, 0, 66, 0
1, 1075148, Note_on_c, 0, 69, 0
1, 1075148, Note_on_c, 0, 66, 58
1, 1075151, Note_on_c, 0, 69, 67
1, 1075334, Note_on_c, 0, 61, 92
1, 1075342, Note_on_c, 0, 63, 0
1, 1075530, Note_on_c, 0, 60, 91
1, 1075537, Note_on_c, 0, 61, 0
1, 1075541, Control_c, 0, 64, 0
1, 1075541, Control_c, 0, 64, 0
1, 1075612, Control_c, 0, 64, 127
1, 1075612, Control_c, 0, 64, 127
1, 1075725, Note_on_c, 0, 75, 0
1, 1075725, Note_on_c, 0, 72, 0
1, 1075725, Note_on_c, 0, 78, 0
1, 1075728, Note_on_c, 0, 81, 0
1, 1075728, Note_on_c, 0, 72, 58
1, 1075728, Note_on_c, 0, 75, 58
1, 1075731, Note_on_c, 0, 66, 0
1, 1075731, Note_on_c, 0, 78, 58
1, 1075731, Note_on_c, 0, 81, 77
1, 1075734, Note_on_c, 0, 69, 0
1, 1075734, Note_on_c, 0, 63, 58
1, 1075734, Note_on_c, 0, 66, 58
1, 1075737, Note_on_c, 0, 69, 67
1, 1075920, Note_on_c, 0, 57, 85
1, 1075928, Note_on_c, 0, 60, 0
1, 1076116, Note_on_c, 0, 56, 84
1, 1076123, Note_on_c, 0, 57, 0
1, 1076126, Control_c, 0, 64, 0
1, 1076126, Control_c, 0, 64, 0
1, 1076260, Control_c, 0, 64, 127
1, 1076260, Control_c, 0, 64, 127
1, 1076311, Note_on_c, 0, 72, 0
1, 1076311, Note_on_c, 0, 78, 0
1, 1076311, Note_on_c, 0, 75, 0
1, 1076314, Note_on_c, 0, 81, 0
1, 1076314, Note_on_c, 0, 69, 58
1, 1076314, Note_on_c, 0, 72, 58
1, 1076317, Note_on_c, 0, 75, 58
1, 1076317, Note_on_c, 0, 78, 58
1, 1076317, Note_on_c, 0, 81, 77
1, 1076320, Note_on_c, 0, 66, 0
1, 1076320, Note_on_c, 0, 69, 0
1, 1076320, Note_on_c, 0, 63, 0
1, 1076323, Note_on_c, 0, 60, 58
1, 1076323, Note_on_c, 0, 63, 67
1, 1076506, Note_on_c, 0, 54, 87
1, 1076516, Note_on_c, 0, 56, 0
1, 1076756, Note_on_c, 0, 54, 0
1, 1076756, Note_on_c, 0, 54, 87
1, 1076766, Control_c, 0, 64, 127
1, 1076766, Control_c, 0, 64, 127
1, 1076827, Control_c, 0, 64, 0
1, 1076827, Control_c, 0, 64, 0
1, 1076887, Control_c, 0, 64, 127
1, 1076887, Control_c, 0, 64, 127
1, 1076958, Control_c, 0, 64, 127
1, 1076958, Control_c, 0, 64, 127
1, 1077005, Note_on_c, 0, 75, 0
1, 1077005, Note_on_c, 0, 69, 0
1, 1077005, Note_on_c, 0, 72, 0
1, 1077008, Note_on_c, 0, 81, 0
1, 1077008, Note_on_c, 0, 78, 0
1, 1077008, Note_on_c, 0, 68, 58
1, 1077011, Note_on_c, 0, 73, 58
1, 1077011, Note_on_c, 0, 76, 58
1, 1077011, Note_on_c, 0, 80, 77
1, 1077014, Note_on_c, 0, 60, 0
1, 1077014, Note_on_c, 0, 63, 0
1, 1077014, Note_on_c, 0, 61, 58
1, 1077017, Note_on_c, 0, 64, 67
1, 1077201, Note_on_c, 0, 52, 85
1, 1077208, Note_on_c, 0, 54, 0
1, 1077396, Note_on_c, 0, 51, 84
1, 1077402, Note_on_c, 0, 52, 0
1, 1077402, Control_c, 0, 64, 0
1, 1077402, Control_c, 0, 64, 0
1, 1077473, Control_c, 0, 64, 127
1, 1077473, Control_c, 0, 64, 127
1, 1077591, Note_on_c, 0, 68, 0
1, 1077591, Note_on_c, 0, 73, 0
1, 1077591, Note_on_c, 0, 76, 0
1, 1077594, Note_on_c, 0, 80, 0
1, 1077594, Note_on_c, 0, 68, 58
1, 1077594, Note_on_c, 0, 73, 58
1, 1077597, Note_on_c, 0, 61, 0
1, 1077597, Note_on_c, 0, 76, 58
1, 1077597, Note_on_c, 0, 80, 79
1, 1077600, Note_on_c, 0, 64, 0
1, 1077600, Note_on_c, 0, 56, 58
1, 1077600, Note_on_c, 0, 61, 58
1, 1077603, Note_on_c, 0, 64, 67
1, 1077787, Note_on_c, 0, 52, 83
1, 1077794, Note_on_c, 0, 51, 0
1, 1077982, Note_on_c, 0, 49, 82
1, 1077990, Note_on_c, 0, 52, 0
1, 1077994, Control_c, 0, 64, 0
1, 1077994, Control_c, 0, 64, 0
1, 1078065, Control_c, 0, 64, 127
1, 1078065, Control_c, 0, 64, 127
1, 1078177, Note_on_c, 0, 68, 0
1, 1078177, Note_on_c, 0, 76, 0
1, 1078177, Note_on_c, 0, 73, 0
1, 1078180, Note_on_c, 0, 80, 0
1, 1078180, Note_on_c, 0, 68, 58
1, 1078180, Note_on_c, 0, 73, 58
1, 1078183, Note_on_c, 0, 56, 0
1, 1078183, Note_on_c, 0, 76, 58
1, 1078183, Note_on_c, 0, 80, 84
1, 1078186, Note_on_c, 0, 61, 0
1, 1078186, Note_on_c, 0, 64, 0
1, 1078186, Note_on_c, 0, 56, 49
1, 1078189, Note_on_c, 0, 61, 49
1, 1078189, Note_on_c, 0, 64, 61
1, 1078373, Note_on_c, 0, 49, 0
1, 1078373, Note_on_c, 0, 49, 78
1, 1078568, Note_on_c, 0, 49, 0
1, 1078568, Note_on_c, 0, 47, 78
1, 1078578, Control_c, 0, 64, 0
1, 1078578, Control_c, 0, 64, 0
1, 1078712, Control_c, 0, 64, 127
1, 1078712, Control_c, 0, 64, 127
1, 1078764, Note_on_c, 0, 73, 0
1, 1078764, Note_on_c, 0, 68, 0
1, 1078764, Note_on_c, 0, 76, 0
1, 1078767, Note_on_c, 0, 80, 0
1, 1078767, Note_on_c, 0, 68, 58
1, 1078767, Note_on_c, 0, 75, 58
1, 1078770, Note_on_c, 0, 56, 0
1, 1078770, Note_on_c, 0, 61, 0
1, 1078770, Note_on_c, 0, 80, 84
1, 1078773, Note_on_c, 0, 64, 0
1, 1078773, Note_on_c, 0, 56, 49
1, 1078773, Note_on_c, 0, 63, 61
1, 1078959, Note_on_c, 0, 47, 0
1, 1078959, Note_on_c, 0, 47, 78
1, 1079154, Note_on_c, 0, 47, 0
1, 1079154, Note_on_c, 0, 45, 75
1, 1079162, Control_c, 0, 64, 127
1, 1079162, Control_c, 0, 64, 127
1, 1079210, Control_c, 0, 64, 0
1, 1079210, Control_c, 0, 64, 0
1, 1079257, Control_c, 0, 64, 127
1, 1079257, Control_c, 0, 64, 127
1, 1079312, Control_c, 0, 64, 127
1, 1079312, Control_c, 0, 64, 127
1, 1079350, Note_on_c, 0, 75, 0
1, 1079350, Note_on_c, 0, 68, 0
1, 1079350, Note_on_c, 0, 80, 0
1, 1079353, Note_on_c, 0, 68, 55
1, 1079353, Note_on_c, 0, 73, 55
1, 1079353, Note_on_c, 0, 80, 87
1, 1079356, Note_on_c, 0, 63, 0
1, 1079356, Note_on_c, 0, 56, 0
1, 1079356, Note_on_c, 0, 52, 58
1, 1079359, Note_on_c, 0, 61, 67
1, 1079574, Note_on_c, 0, 45, 0
1, 1079574, Note_on_c, 0, 45, 75
1, 1079770, Note_on_c, 0, 45, 0
1, 1079770, Note_on_c, 0, 44, 75
1, 1079776, Control_c, 0, 64, 0
1, 1079776, Control_c, 0, 64, 0
1, 1079820, Control_c, 0, 64, 0
1, 1079820, Control_c, 0, 64, 0
1, 1079965, Note_on_c, 0, 80, 0
1, 1079965, Note_on_c, 0, 68, 0
1, 1079965, Note_on_c, 0, 73, 0
1, 1079968, Note_on_c, 0, 68, 55
1, 1079968, Note_on_c, 0, 71, 55
1, 1079968, Note_on_c, 0, 80, 95
1, 1079971, Note_on_c, 0, 61, 0
1, 1079971, Note_on_c, 0, 52, 0
1, 1079971, Note_on_c, 0, 52, 49
1, 1079974, Note_on_c, 0, 59, 61
1, 1079992, Control_c, 0, 64, 127
1, 1079992, Control_c, 0, 64, 127
1, 1080189, Note_on_c, 0, 44, 0
1, 1080189, Note_on_c, 0, 44, 75
1, 1080287, Note_on_c, 0, 80, 0
1, 1080287, Note_on_c, 0, 80, 76
1, 1080287, Note_on_c, 0, 92, 93
1, 1080295, Note_on_c, 0, 71, 0
1, 1080295, Note_on_c, 0, 68, 0
1, 1080385, Note_on_c, 0, 80, 0
1, 1080385, Note_on_c, 0, 92, 0
1, 1080385, Note_on_c, 0, 80, 76
1, 1080388, Note_on_c, 0, 44, 0
1, 1080388, Note_on_c, 0, 92, 93
1, 1080388, Note_on_c, 0, 45, 75
1, 1080397, Control_c, 0, 64, 0
1, 1080397, Control_c, 0, 64, 0
1, 1080445, Control_c, 0, 64, 0
1, 1080445, Control_c, 0, 64, 0
1, 1080580, Note_on_c, 0, 59, 0
1, 1080580, Note_on_c, 0, 52, 0
1, 1080580, Note_on_c, 0, 52, 49
1, 1080583, Note_on_c, 0, 61, 61
1, 1080615, Control_c, 0, 64, 127
1, 1080615, Control_c, 0, 64, 127
1, 1080776, Note_on_c, 0, 45, 0
1, 1080776, Note_on_c, 0, 69, 67
1, 1080776, Note_on_c, 0, 81, 79
1, 1080779, Note_on_c, 0, 45, 75
1, 1080783, Note_on_c, 0, 80, 0
1, 1080783, Note_on_c, 0, 92, 0
1, 1080971, Note_on_c, 0, 81, 0
1, 1080971, Note_on_c, 0, 69, 0
1, 1080971, Note_on_c, 0, 45, 0
1, 1080974, Note_on_c, 0, 46, 66
1, 1080984, Control_c, 0, 64, 0
1, 1080984, Control_c, 0, 64, 0
1, 1081143, Control_c, 0, 64, 0
1, 1081143, Control_c, 0, 64, 0
1, 1081220, Note_on_c, 0, 52, 0
1, 1081220, Note_on_c, 0, 68, 72
1, 1081220, Note_on_c, 0, 80, 92
1, 1081223, Note_on_c, 0, 61, 0
1, 1081223, Control_c, 0, 64, 127
1, 1081223, Note_on_c, 0, 52, 49
1, 1081223, Note_on_c, 0, 61, 61
1, 1081223, Control_c, 0, 64, 127
1, 1081425, Note_on_c, 0, 46, 0
1, 1081425, Note_on_c, 0, 46, 75
1, 1081537, Note_on_c, 0, 76, 79
1, 1081537, Note_on_c, 0, 88, 91
1, 1081546, Note_on_c, 0, 80, 0
1, 1081546, Note_on_c, 0, 68, 0
1, 1081649, Note_on_c, 0, 76, 0
1, 1081649, Note_on_c, 0, 88, 0
1, 1081649, Note_on_c, 0, 76, 83
1, 1081652, Note_on_c, 0, 46, 0
1, 1081652, Note_on_c, 0, 88, 97
1, 1081652, Note_on_c, 0, 47, 69
1, 1081657, Control_c, 0, 64, 127
1, 1081657, Control_c, 0, 64, 127
1, 1081657, Control_c, 0, 64, 127
1, 1081660, Control_c, 0, 64, 127
1, 1081705, Control_c, 0, 64, 0
1, 1081705, Control_c, 0, 64, 0
1, 1081705, Control_c, 0, 64, 0
1, 1081708, Control_c, 0, 64, 0
1, 1081752, Control_c, 0, 64, 127
1, 1081752, Control_c, 0, 64, 127
1, 1081752, Control_c, 0, 64, 127
1, 1081755, Control_c, 0, 64, 127
1, 1081807, Control_c, 0, 64, 127
1, 1081807, Control_c, 0, 64, 127
1, 1081807, Control_c, 0, 64, 127
1, 1081810, Control_c, 0, 64, 127
1, 1081845, Note_on_c, 0, 52, 0
1, 1081845, Note_on_c, 0, 61, 0
1, 1081845, Note_on_c, 0, 52, 61
1, 1081848, Note_on_c, 0, 59, 71
1, 1082040, Note_on_c, 0, 47, 0
1, 1082040, Note_on_c, 0, 68, 74
1, 1082040, Note_on_c, 0, 80, 88
1, 1082043, Note_on_c, 0, 47, 71
1, 1082048, Note_on_c, 0, 76, 0
1, 1082048, Note_on_c, 0, 88, 0
1, 1082254, Note_on_c, 0, 80, 0
1, 1082254, Note_on_c, 0, 68, 0
1, 1082254, Note_on_c, 0, 47, 0
1, 1082257, Note_on_c, 0, 48, 72
1, 1082260, Control_c, 0, 64, 0
1, 1082260, Control_c, 0, 64, 0
1, 1082260, Control_c, 0, 64, 0
1, 1082263, Control_c, 0, 64, 0
1, 1082304, Control_c, 0, 64, 0
1, 1082304, Control_c, 0, 64, 0
1, 1082331, Control_c, 0, 64, 127
1, 1082331, Control_c, 0, 64, 127
1, 1082449, Note_on_c, 0, 52, 0
1, 1082449, Note_on_c, 0, 67, 83
1, 1082449, Note_on_c, 0, 79, 97
1, 1082452, Note_on_c, 0, 59, 0
1, 1082452, Note_on_c, 0, 52, 63
1, 1082452, Note_on_c, 0, 58, 77
1, 1082472, Control_c, 0, 64, 127
1, 1082472, Control_c, 0, 64, 127
1, 1082636, Note_on_c, 0, 48, 0
1, 1082636, Note_on_c, 0, 48, 73
1, 1082734, Note_on_c, 0, 76, 88
1, 1082734, Note_on_c, 0, 88, 102
1, 1082742, Note_on_c, 0, 79, 0
1, 1082742, Note_on_c, 0, 67, 0
1, 1082832, Note_on_c, 0, 76, 0
1, 1082832, Note_on_c, 0, 88, 0
1, 1082832, Note_on_c, 0, 76, 88
1, 1082835, Note_on_c, 0, 48, 0
1, 1082835, Note_on_c, 0, 88, 102
1, 1082835, Note_on_c, 0, 49, 74
1, 1082844, Control_c, 0, 64, 0
1, 1082844, Control_c, 0, 64, 0
1, 1082844, Control_c, 0, 64, 0
1, 1082847, Control_c, 0, 64, 0
1, 1082892, Control_c, 0, 64, 0
1, 1082892, Control_c, 0, 64, 0
1, 1082915, Control_c, 0, 64, 127
1, 1082915, Control_c, 0, 64, 127
1, 1083027, Note_on_c, 0, 52, 0
1, 1083027, Note_on_c, 0, 58, 0
1, 1083027, Note_on_c, 0, 52, 53
1, 1083030, Note_on_c, 0, 57, 68
1, 1083063, Control_c, 0, 64, 127
1, 1083063, Control_c, 0, 64, 127
1, 1083231, Note_on_c, 0, 49, 0
1, 1083231, Note_on_c, 0, 67, 83
1, 1083231, Note_on_c, 0, 79, 97
1, 1083234, Note_on_c, 0, 49, 75
1, 1083243, Note_on_c, 0, 76, 0
1, 1083243, Note_on_c, 0, 88, 0
1, 1083531, Note_on_c, 0, 66, 79
1, 1083531, Note_on_c, 0, 78, 94
1, 1083531, Note_on_c, 0, 74, 94
1, 1083534, Note_on_c, 0, 52, 0
1, 1083534, Note_on_c, 0, 49, 0
1, 1083534, Note_on_c, 0, 50, 76
1, 1083537, Note_on_c, 0, 57, 0
1, 1083537, Note_on_c, 0, 57, 54
1, 1083543, Note_on_c, 0, 79, 0
1, 1083543, Note_on_c, 0, 67, 0
1, 1083546, Control_c, 0, 64, 0
1, 1083546, Control_c, 0, 64, 0
1, 1083546, Control_c, 0, 64, 0
1, 1083549, Control_c, 0, 64, 0
1, 1083738, Control_c, 0, 64, 0
1, 1083738, Control_c, 0, 64, 0
1, 1083752, Control_c, 0, 64, 127
1, 1083752, Control_c, 0, 64, 127
1, 1083830, Note_on_c, 0, 73, 101
1, 1083836, Control_c, 0, 64, 127
1, 1083836, Control_c, 0, 64, 127
1, 1083840, Note_on_c, 0, 74, 0
1, 1084080, Note_on_c, 0, 72, 101
1, 1084080, Note_on_c, 0, 68, 89
1, 1084080, Note_on_c, 0, 80, 107
1, 1084083, Note_on_c, 0, 57, 0
1, 1084083, Note_on_c, 0, 50, 0
1, 1084083, Note_on_c, 0, 51, 57
1, 1084086, Note_on_c, 0, 56, 79
1, 1084095, Note_on_c, 0, 78, 0
1, 1084095, Note_on_c, 0, 66, 0
1, 1084095, Note_on_c, 0, 73, 0
1, 1084146, Control_c, 0, 64, 0
1, 1084146, Control_c, 0, 64, 0
1, 1084346, Control_c, 0, 64, 127
1, 1084346, Control_c, 0, 64, 127
1, 1084454, Note_on_c, 0, 68, 0
1, 1084454, Note_on_c, 0, 72, 0
1, 1084454, Control_c, 0, 64, 127
1, 1084457, Note_on_c, 0, 80, 0
1, 1084457, Note_on_c, 0, 64, 88
1, 1084457, Note_on_c, 0, 68, 88
1, 1084460, Note_on_c, 0, 51, 0
1, 1084460, Note_on_c, 0, 73, 106
1, 1084460, Control_c, 0, 64, 127
1, 1084463, Note_on_c, 0, 56, 0
1, 1084463, Note_on_c, 0, 49, 100
1, 1084489, Control_c, 0, 64, 0
1, 1084489, Control_c, 0, 64, 0
1, 1084551, Control_c, 0, 64, 127
1, 1084551, Control_c, 0, 64, 127
1, 1084668, Note_on_c, 0, 61, 88
1, 1084841, Note_on_c, 0, 61, 0
1, 1084841, Note_on_c, 0, 56, 89
1, 1084971, Note_on_c, 0, 60, 89
1, 1084971, Note_on_c, 0, 72, 107
1, 1084982, Note_on_c, 0, 73, 0
1, 1084982, Note_on_c, 0, 68, 0
1, 1084982, Note_on_c, 0, 64, 0
1, 1085046, Note_on_c, 0, 61, 90
1, 1085046, Note_on_c, 0, 64, 90
1, 1085046, Note_on_c, 0, 68, 90
1, 1085049, Note_on_c, 0, 73, 108
1, 1085049, Note_on_c, 0, 44, 103
1, 1085053, Note_on_c, 0, 72, 0
1, 1085053, Note_on_c, 0, 49, 0
1, 1085053, Note_on_c, 0, 60, 0
1, 1085053, Control_c, 0, 64, 0
1, 1085053, Control_c, 0, 64, 0
1, 1085225, Control_c, 0, 64, 127
1, 1085225, Control_c, 0, 64, 127
1, 1085233, Note_on_c, 0, 56, 0
1, 1085233, Note_on_c, 0, 56, 91
1, 1085406, Note_on_c, 0, 56, 0
1, 1085406, Note_on_c, 0, 52, 92
1, 1085535, Note_on_c, 0, 63, 91
1, 1085535, Note_on_c, 0, 75, 110
1, 1085547, Note_on_c, 0, 64, 0
1, 1085547, Note_on_c, 0, 61, 0
1, 1085547, Note_on_c, 0, 68, 0
1, 1085550, Note_on_c, 0, 73, 0
1, 1085610, Note_on_c, 0, 64, 91
1, 1085610, Note_on_c, 0, 68, 91
1, 1085610, Note_on_c, 0, 73, 91
1, 1085613, Note_on_c, 0, 76, 110
1, 1085613, Note_on_c, 0, 40, 107
1, 1085617, Note_on_c, 0, 44, 0
1, 1085617, Note_on_c, 0, 75, 0
1, 1085617, Note_on_c, 0, 63, 0
1, 1085622, Control_c, 0, 64, 0
1, 1085622, Control_c, 0, 64, 0
1, 1085797, Note_on_c, 0, 52, 0
1, 1085797, Note_on_c, 0, 52, 95
1, 1085856, Control_c, 0, 64, 127
1, 1085856, Control_c, 0, 64, 127
1, 1085970, Note_on_c, 0, 52, 0
1, 1085970, Note_on_c, 0, 49, 96
1, 1086100, Note_on_c, 0, 63, 92
1, 1086100, Note_on_c, 0, 75, 111
1, 1086111, Note_on_c, 0, 68, 0
1, 1086111, Note_on_c, 0, 64, 0
1, 1086111, Note_on_c, 0, 73, 0
1, 1086114, Note_on_c, 0, 76, 0
1, 1086175, Note_on_c, 0, 64, 92
1, 1086175, Note_on_c, 0, 68, 92
1, 1086175, Note_on_c, 0, 73, 92
1, 1086178, Note_on_c, 0, 76, 112
1, 1086178, Control_c, 0, 64, 0
1, 1086178, Note_on_c, 0, 37, 111
1, 1086178, Control_c, 0, 64, 0
1, 1086182, Note_on_c, 0, 40, 0
1, 1086182, Note_on_c, 0, 75, 0
1, 1086182, Note_on_c, 0, 63, 0
1, 1086362, Note_on_c, 0, 49, 0
1, 1086362, Note_on_c, 0, 49, 98
1, 1086408, Control_c, 0, 64, 127
1, 1086408, Control_c, 0, 64, 127
1, 1086535, Note_on_c, 0, 49, 0
1, 1086535, Note_on_c, 0, 44, 99
1, 1086664, Note_on_c, 0, 66, 94
1, 1086664, Note_on_c, 0, 78, 113
1, 1086684, Note_on_c, 0, 68, 0
1, 1086684, Note_on_c, 0, 64, 0
1, 1086684, Note_on_c, 0, 73, 0
1, 1086687, Note_on_c, 0, 76, 0
1, 1086687, Control_c, 0, 64, 0
1, 1086687, Control_c, 0, 64, 0
1, 1086789, Note_on_c, 0, 67, 93
1, 1086789, Note_on_c, 0, 69, 93
1, 1086789, Note_on_c, 0, 73, 93
1, 1086792, Note_on_c, 0, 44, 0
1, 1086792, Note_on_c, 0, 76, 93
1, 1086792, Note_on_c, 0, 79, 113
1, 1086795, Note_on_c, 0, 33, 100
1, 1086795, Note_on_c, 0, 45, 88
1, 1086799, Note_on_c, 0, 66, 0
1, 1086799, Note_on_c, 0, 78, 0
1, 1086799, Note_on_c, 0, 37, 0
1, 1086909, Control_c, 0, 64, 127
1, 1086909, Control_c, 0, 64, 127
1, 1087053, Note_on_c, 0, 55, 85
1, 1087053, Note_on_c, 0, 67, 94
1, 1087226, Note_on_c, 0, 67, 0
1, 1087226, Note_on_c, 0, 55, 0
1, 1087226, Note_on_c, 0, 52, 79
1, 1087229, Note_on_c, 0, 64, 88
1, 1087399, Note_on_c, 0, 67, 0
1, 1087399, Note_on_c, 0, 73, 0
1, 1087399, Note_on_c, 0, 69, 0
1, 1087402, Note_on_c, 0, 79, 0
1, 1087402, Note_on_c, 0, 76, 0
1, 1087402, Note_on_c, 0, 66, 95
1, 1087405, Note_on_c, 0, 69, 95
1, 1087405, Note_on_c, 0, 72, 95
1, 1087405, Note_on_c, 0, 74, 95
1, 1087408, Note_on_c, 0, 45, 0
1, 1087408, Note_on_c, 0, 33, 0
1, 1087408, Note_on_c, 0, 78, 110
1, 1087411, Note_on_c, 0, 52, 0
1, 1087411, Note_on_c, 0, 64, 0
1, 1087411, Note_on_c, 0, 38, 100
1, 1087414, Control_c, 0, 64, 0
1, 1087414, Note_on_c, 0, 50, 88
1, 1087414, Control_c, 0, 64, 0
1, 1087578, Control_c, 0, 64, 127
1, 1087578, Control_c, 0, 64, 127
1, 1087586, Note_on_c, 0, 54, 85
1, 1087586, Note_on_c, 0, 66, 94
1, 1087759, Note_on_c, 0, 66, 0
1, 1087759, Note_on_c, 0, 54, 0
1, 1087759, Note_on_c, 0, 50, 79
1, 1087762, Note_on_c, 0, 62, 88
1, 1087932, Note_on_c, 0, 66, 0
1, 1087932, Note_on_c, 0, 72, 0
1, 1087932, Note_on_c, 0, 69, 0
1, 1087935, Note_on_c, 0, 78, 0
1, 1087935, Note_on_c, 0, 74, 0
1, 1087935, Note_on_c, 0, 65, 97
1, 1087938, Note_on_c, 0, 71, 97
1, 1087938, Note_on_c, 0, 74, 97
1, 1087938, Note_on_c, 0, 77, 113
1, 1087941, Note_on_c, 0, 50, 0
1, 1087941, Note_on_c, 0, 62, 0
1, 1087941, Note_on_c, 0, 38, 0
1, 1087944, Note_on_c, 0, 50, 0
1, 1087944, Note_on_c, 0, 31, 100
1, 1087944, Note_on_c, 0, 43, 88
1, 1087948, Control_c, 0, 64, 0
1, 1087948, Control_c, 0, 64, 0
1, 1088196, Note_on_c, 0, 53, 85
1, 1088196, Note_on_c, 0, 65, 94
1, 1088260, Control_c, 0, 64, 127
1, 1088260, Control_c, 0, 64, 127
1, 1088383, Note_on_c, 0, 65, 0
1, 1088383, Note_on_c, 0, 53, 0
1, 1088383, Note_on_c, 0, 50, 79
1, 1088386, Note_on_c, 0, 62, 88
1, 1088570, Note_on_c, 0, 74, 0
1, 1088570, Note_on_c, 0, 71, 0
1, 1088570, Note_on_c, 0, 65, 0
1, 1088573, Note_on_c, 0, 77, 0
1, 1088573, Note_on_c, 0, 65, 99
1, 1088573, Note_on_c, 0, 68, 99
1, 1088576, Note_on_c, 0, 71, 99
1, 1088576, Note_on_c, 0, 73, 99
1, 1088576, Note_on_c, 0, 77, 115
1, 1088579, Note_on_c, 0, 31, 0
1, 1088579, Note_on_c, 0, 62, 0
1, 1088579, Note_on_c, 0, 50, 0
1, 1088582, Note_on_c, 0, 43, 0
1, 1088582, Note_on_c, 0, 32, 100
1, 1088582, Note_on_c, 0, 44, 88
1, 1088585, Control_c, 0, 64, 0
1, 1088585, Control_c, 0, 64, 0
1, 1088784, Note_on_c, 0, 53, 85
1, 1088784, Note_on_c, 0, 65, 94
1, 1088831, Control_c, 0, 64, 127
1, 1088831, Control_c, 0, 64, 127
1, 1088957, Note_on_c, 0, 65, 0
1, 1088957, Note_on_c, 0, 53, 0
1, 1088957, Note_on_c, 0, 49, 79
1, 1088960, Note_on_c, 0, 61, 88
1, 1089094, Control_c, 0, 64, 0
1, 1089094, Control_c, 0, 64, 0
1, 1089130, Note_on_c, 0, 65, 0
1, 1089130, Note_on_c, 0, 71, 0
1, 1089130, Note_on_c, 0, 68, 0
1, 1089133, Note_on_c, 0, 77, 0
1, 1089133, Note_on_c, 0, 73, 0
1, 1089133, Note_on_c, 0, 66, 101
1, 1089136, Note_on_c, 0, 69, 101
1, 1089136, Note_on_c, 0, 73, 101
1, 1089136, Note_on_c, 0, 78, 117
1, 1089139, Note_on_c, 0, 32, 0
1, 1089139, Note_on_c, 0, 61, 0
1, 1089139, Note_on_c, 0, 49, 0
1, 1089142, Note_on_c, 0, 44, 0
1, 1089142, Note_on_c, 0, 33, 103
1, 1089142, Note_on_c, 0, 45, 88
1, 1089215, Control_c, 0, 64, 127
1, 1089215, Control_c, 0, 64, 127
1, 1089317, Note_on_c, 0, 54, 85
1, 1089317, Note_on_c, 0, 66, 94
1, 1089504, Note_on_c, 0, 66, 0
1, 1089504, Note_on_c, 0, 69, 0
1, 1089504, Note_on_c, 0, 73, 0
1, 1089507, Note_on_c, 0, 78, 0
1, 1089507, Note_on_c, 0, 33, 0
1, 1089507, Note_on_c, 0, 45, 0
1, 1089510, Note_on_c, 0, 66, 0
1, 1089510, Note_on_c, 0, 54, 0
1, 1089510, Note_on_c, 0, 49, 79
1, 1089513, Note_on_c, 0, 61, 88
1, 1089598, Note_on_c, 0, 66, 103
1, 1089598, Note_on_c, 0, 68, 103
1, 1089598, Note_on_c, 0, 75, 103
1, 1089601, Note_on_c, 0, 78, 117
1, 1089601, Note_on_c, 0, 36, 103
1, 1089601, Note_on_c, 0, 48, 88
1, 1089723, Note_on_c, 0, 75, 0
1, 1089723, Note_on_c, 0, 68, 0
1, 1089723, Note_on_c, 0, 66, 0
1, 1089726, Note_on_c, 0, 78, 0
1, 1089726, Note_on_c, 0, 64, 103
1, 1089726, Note_on_c, 0, 68, 103
1, 1089729, Note_on_c, 0, 49, 0
1, 1089729, Note_on_c, 0, 73, 103
1, 1089729, Note_on_c, 0, 76, 117
1, 1089732, Note_on_c, 0, 36, 0
1, 1089732, Note_on_c, 0, 48, 0
1, 1089732, Note_on_c, 0, 61, 0
1, 1089735, Control_c, 0, 64, 0
1, 1089735, Note_on_c, 0, 37, 103
1, 1089735, Note_on_c, 0, 49, 88
1, 1089738, Control_c, 0, 64, 0
1, 1089888, Control_c, 0, 64, 127
1, 1089888, Control_c, 0, 64, 127
1, 1089895, Note_on_c, 0, 52, 85
1, 1089895, Note_on_c, 0, 64, 94
1, 1090068, Note_on_c, 0, 64, 0
1, 1090068, Note_on_c, 0, 68, 0
1, 1090068, Note_on_c, 0, 73, 0
1, 1090071, Note_on_c, 0, 76, 0
1, 1090071, Note_on_c, 0, 64, 0
1, 1090071, Note_on_c, 0, 52, 0
1, 1090074, Note_on_c, 0, 37, 0
1, 1090074, Note_on_c, 0, 49, 79
1, 1090074, Note_on_c, 0, 61, 88
1, 1090077, Note_on_c, 0, 49, 0
1, 1090155, Note_on_c, 0, 63, 105
1, 1090155, Note_on_c, 0, 66, 105
1, 1090155, Note_on_c, 0, 69, 105
1, 1090158, Note_on_c, 0, 73, 105
1, 1090158, Note_on_c, 0, 75, 117
1, 1090158, Note_on_c, 0, 30, 103
1, 1090161, Note_on_c, 0, 42, 88
1, 1090279, Note_on_c, 0, 69, 0
1, 1090279, Note_on_c, 0, 66, 0
1, 1090279, Note_on_c, 0, 63, 0
1, 1090282, Note_on_c, 0, 73, 0
1, 1090282, Note_on_c, 0, 75, 0
1, 1090282, Note_on_c, 0, 64, 105
1, 1090285, Note_on_c, 0, 68, 105
1, 1090285, Note_on_c, 0, 73, 105
1, 1090285, Note_on_c, 0, 76, 117
1, 1090288, Note_on_c, 0, 49, 0
1, 1090288, Note_on_c, 0, 30, 0
1, 1090288, Note_on_c, 0, 61, 0
1, 1090291, Note_on_c, 0, 42, 0
1, 1090291, Note_on_c, 0, 32, 103
1, 1090291, Note_on_c, 0, 44, 88
1, 1090294, Control_c, 0, 64, 0
1, 1090294, Control_c, 0, 64, 0
1, 1090452, Note_on_c, 0, 52, 85
1, 1090452, Note_on_c, 0, 64, 94
1, 1090511, Control_c, 0, 64, 127
1, 1090511, Control_c, 0, 64, 127
1, 1090625, Note_on_c, 0, 64, 0
1, 1090625, Note_on_c, 0, 52, 0
1, 1090625, Note_on_c, 0, 49, 79
1, 1090628, Note_on_c, 0, 61, 88
1, 1090798, Note_on_c, 0, 73, 0
1, 1090798, Note_on_c, 0, 68, 0
1, 1090798, Note_on_c, 0, 64, 0
1, 1090801, Note_on_c, 0, 76, 0
1, 1090801, Note_on_c, 0, 63, 107
1, 1090801, Note_on_c, 0, 68, 107
1, 1090804, Note_on_c, 0, 49, 0
1, 1090804, Note_on_c, 0, 73, 107
1, 1090804, Note_on_c, 0, 75, 117
1, 1090807, Note_on_c, 0, 44, 0
1, 1090807, Note_on_c, 0, 61, 0
1, 1090807, Note_on_c, 0, 32, 0
1, 1090810, Control_c, 0, 64, 0
1, 1090810, Note_on_c, 0, 32, 103
1, 1090810, Note_on_c, 0, 44, 88
1, 1090813, Control_c, 0, 64, 0
1, 1090971, Note_on_c, 0, 51, 85
1, 1090971, Note_on_c, 0, 63, 94
1, 1091017, Control_c, 0, 64, 127
1, 1091017, Control_c, 0, 64, 127
1, 1091143, Note_on_c, 0, 63, 0
1, 1091143, Note_on_c, 0, 68, 0
1, 1091143, Note_on_c, 0, 73, 0
1, 1091146, Note_on_c, 0, 75, 0
1, 1091146, Note_on_c, 0, 63, 0
1, 1091146, Note_on_c, 0, 51, 0
1, 1091149, Note_on_c, 0, 49, 79
1, 1091149, Note_on_c, 0, 61, 88
1, 1091230, Note_on_c, 0, 73, 117
1, 1091312, Control_c, 0, 64, 0
1, 1091312, Control_c, 0, 64, 0
1, 1091370, Note_on_c, 0, 73, 0
1, 1091370, Note_on_c, 0, 73, 115
1, 1091370, Note_on_c, 0, 61, 102
1, 1091373, Note_on_c, 0, 49, 0
1, 1091373, Note_on_c, 0, 64, 102
1, 1091373, Note_on_c, 0, 68, 102
1, 1091376, Note_on_c, 0, 61, 0
1, 1091376, Note_on_c, 0, 32, 0
1, 1091376, Note_on_c, 0, 44, 0
1, 1091379, Note_on_c, 0, 37, 103
1, 1091379, Note_on_c, 0, 49, 88
1, 1091556, Control_c, 0, 64, 127
1, 1091556, Control_c, 0, 64, 127
1, 1091635, Note_on_c, 0, 68, 0
1, 1091635, Note_on_c, 0, 64, 0
1, 1091635, Note_on_c, 0, 64, 90
1, 1091638, Note_on_c, 0, 52, 79
1, 1091643, Note_on_c, 0, 61, 0
1, 1091839, Note_on_c, 0, 68, 97
1, 1091839, Note_on_c, 0, 56, 90
1, 1091849, Note_on_c, 0, 64, 0
1, 1091849, Note_on_c, 0, 52, 0
1, 1092088, Note_on_c, 0, 73, 0
1, 1092088, Note_on_c, 0, 69, 104
1, 1092088, Note_on_c, 0, 60, 94
1, 1092091, Note_on_c, 0, 49, 0
1, 1092091, Note_on_c, 0, 37, 0
1, 1092091, Note_on_c, 0, 63, 94
1, 1092094, Note_on_c, 0, 57, 101
1, 1092094, Note_on_c, 0, 44, 79
1, 1092100, Note_on_c, 0, 68, 0
1, 1092100, Note_on_c, 0, 56, 0
1, 1092104, Control_c, 0, 64, 0
1, 1092104, Control_c, 0, 64, 0
1, 1092264, Control_c, 0, 64, 127
1, 1092264, Control_c, 0, 64, 127
1, 1092388, Note_on_c, 0, 66, 101
1, 1092388, Note_on_c, 0, 54, 92
1, 1092398, Note_on_c, 0, 69, 0
1, 1092398, Note_on_c, 0, 57, 0
1, 1092638, Note_on_c, 0, 63, 90
1, 1092638, Note_on_c, 0, 51, 81
1, 1092648, Note_on_c, 0, 66, 0
1, 1092648, Note_on_c, 0, 54, 0
1, 1092885, Control_c, 0, 64, 0
1, 1092885, Control_c, 0, 64, 0
1, 1092902, Note_on_c, 0, 60, 0
1, 1092902, Note_on_c, 0, 63, 0
1, 1092902, Note_on_c, 0, 61, 91
1, 1092905, Note_on_c, 0, 44, 0
1, 1092905, Note_on_c, 0, 54, 64
1, 1092905, Note_on_c, 0, 57, 88
1, 1092908, Note_on_c, 0, 37, 64
1, 1092908, Note_on_c, 0, 49, 64
1, 1092913, Note_on_c, 0, 63, 0
1, 1092913, Note_on_c, 0, 51, 0
1, 1093183, Note_on_c, 0, 52, 73
1, 1093183, Note_on_c, 0, 56, 84
1, 1093195, Note_on_c, 0, 57, 0
1, 1093195, Note_on_c, 0, 54, 0
1, 1093503, Note_on_c, 0, 51, 70
1, 1093503, Note_on_c, 0, 54, 81
1, 1093519, Note_on_c, 0, 52, 0
1, 1093519, Note_on_c, 0, 56, 0
1, 1093912, Note_on_c, 0, 52, 67
1, 1093912, Note_on_c, 0, 56, 77
1, 1093928, Note_on_c, 0, 51, 0
1, 1093928, Note_on_c, 0, 54, 0
1, 1094329, Control_c, 0, 64, 127
1, 1094329, Control_c, 0, 64, 127
1, 1094729, Note_on_c, 0, 52, 0
1, 1094729, Note_on_c, 0, 61, 0
1, 1094729, Note_on_c, 0, 56, 0
1, 1094732, Note_on_c, 0, 49, 0
1, 1094732, Note_on_c, 0, 37, 0
1, 1094818, Control_c, 0, 64, 0
1, 1094818, Control_c, 0, 64, 0
1, 1095137, Note_on_c, 0, 73, 100
1, 1095137, Note_on_c, 0, 76, 100
1, 1095137, Note_on_c, 0, 80, 100
1, 1095140, Note_on_c, 0, 85, 117
1, 1095140, Note_on_c, 0, 49, 105
1, 1095140, Note_on_c, 0, 61, 105
1, 1095229, Control_c, 0, 64, 127
1, 1095229, Control_c, 0, 64, 127
1, 1095324, Note_on_c, 0, 61, 0
1, 1095324, Note_on_c, 0, 49, 0
1, 1095324, Note_on_c, 0, 64, 96
1, 1095431, Note_on_c, 0, 73, 0
1, 1095431, Note_on_c, 0, 80, 0
1, 1095431, Note_on_c, 0, 76, 0
1, 1095434, Note_on_c, 0, 85, 0
1, 1095434, Note_on_c, 0, 64, 0
1, 1095434, Note_on_c, 0, 66, 101
1, 1095538, Note_on_c, 0, 73, 93
1, 1095538, Note_on_c, 0, 76, 93
1, 1095538, Note_on_c, 0, 81, 93
1, 1095541, Note_on_c, 0, 66, 0
1, 1095541, Note_on_c, 0, 85, 105
1, 1095541, Note_on_c, 0, 67, 106
1, 1095645, Note_on_c, 0, 73, 0
1, 1095645, Note_on_c, 0, 81, 0
1, 1095645, Note_on_c, 0, 76, 0
1, 1095648, Note_on_c, 0, 85, 0
1, 1095648, Note_on_c, 0, 73, 93
1, 1095648, Note_on_c, 0, 76, 93
1, 1095651, Note_on_c, 0, 67, 0
1, 1095651, Note_on_c, 0, 80, 93
1, 1095651, Note_on_c, 0, 85, 114
1, 1095654, Note_on_c, 0, 68, 111
1, 1095657, Control_c, 0, 64, 0
1, 1095657, Control_c, 0, 64, 0
1, 1095749, Control_c, 0, 64, 127
1, 1095749, Control_c, 0, 64, 127
1, 1095752, Note_on_c, 0, 68, 0
1, 1095752, Note_on_c, 0, 61, 96
1, 1095859, Note_on_c, 0, 73, 0
1, 1095859, Note_on_c, 0, 80, 0
1, 1095859, Note_on_c, 0, 76, 0
1, 1095862, Note_on_c, 0, 85, 0
1, 1095862, Note_on_c, 0, 61, 0
1, 1095862, Note_on_c, 0, 62, 101
1, 1095966, Note_on_c, 0, 69, 93
1, 1095966, Note_on_c, 0, 72, 93
1, 1095966, Note_on_c, 0, 78, 93
1, 1095969, Note_on_c, 0, 62, 0
1, 1095969, Note_on_c, 0, 81, 105
1, 1095969, Note_on_c, 0, 63, 106
1, 1096073, Note_on_c, 0, 69, 0
1, 1096073, Note_on_c, 0, 72, 0
1, 1096073, Control_c, 0, 64, 0
1, 1096076, Note_on_c, 0, 78, 0
1, 1096076, Note_on_c, 0, 81, 0
1, 1096076, Note_on_c, 0, 68, 93
1, 1096079, Note_on_c, 0, 73, 93
1, 1096079, Note_on_c, 0, 76, 93
1, 1096079, Note_on_c, 0, 80, 114
1, 1096082, Note_on_c, 0, 63, 0
1, 1096082, Control_c, 0, 64, 0
1, 1096082, Note_on_c, 0, 64, 111
1, 1096166, Control_c, 0, 64, 127
1, 1096166, Control_c, 0, 64, 127
1, 1096180, Note_on_c, 0, 64, 0
1, 1096180, Note_on_c, 0, 56, 96
1, 1096287, Note_on_c, 0, 68, 0
1, 1096287, Note_on_c, 0, 76, 0
1, 1096287, Note_on_c, 0, 73, 0
1, 1096290, Note_on_c, 0, 80, 0
1, 1096290, Note_on_c, 0, 56, 0
1, 1096290, Note_on_c, 0, 58, 101
1, 1096394, Note_on_c, 0, 66, 93
1, 1096394, Note_on_c, 0, 69, 93
1, 1096394, Note_on_c, 0, 75, 93
1, 1096397, Note_on_c, 0, 58, 0
1, 1096397, Note_on_c, 0, 78, 105
1, 1096397, Note_on_c, 0, 60, 106
1, 1096501, Note_on_c, 0, 66, 0
1, 1096501, Note_on_c, 0, 75, 0
1, 1096501, Note_on_c, 0, 69, 0
1, 1096504, Note_on_c, 0, 78, 0
1, 1096504, Note_on_c, 0, 64, 93
1, 1096504, Note_on_c, 0, 68, 93
1, 1096507, Note_on_c, 0, 60, 0
1, 1096507, Note_on_c, 0, 73, 93
1, 1096507, Note_on_c, 0, 76, 114
1, 1096510, Note_on_c, 0, 61, 111
1, 1096518, Control_c, 0, 64, 0
1, 1096518, Control_c, 0, 64, 0
1, 1096598, Control_c, 0, 64, 127
1, 1096598, Control_c, 0, 64, 127
1, 1096608, Note_on_c, 0, 61, 0
1, 1096608, Note_on_c, 0, 52, 96
1, 1096715, Note_on_c, 0, 64, 0
1, 1096715, Note_on_c, 0, 73, 0
1, 1096715, Note_on_c, 0, 68, 0
1, 1096718, Note_on_c, 0, 76, 0
1, 1096718, Note_on_c, 0, 52, 0
1, 1096718, Note_on_c, 0, 54, 102
1, 1096822, Note_on_c, 0, 64, 93
1, 1096822, Note_on_c, 0, 68, 93
1, 1096822, Note_on_c, 0, 73, 105
1, 1096825, Note_on_c, 0, 54, 0
1, 1096825, Note_on_c, 0, 56, 108
1, 1096900, Control_c, 0, 64, 0
1, 1096900, Control_c, 0, 64, 0
1, 1096947, Note_on_c, 0, 64, 0
1, 1096947, Note_on_c, 0, 68, 0
1, 1096947, Control_c, 0, 64, 0
1, 1096950, Note_on_c, 0, 73, 0
1, 1096950, Note_on_c, 0, 73, 93
1, 1096950, Note_on_c, 0, 75, 93
1, 1096953, Note_on_c, 0, 56, 0
1, 1096953, Note_on_c, 0, 81, 114
1, 1096953, Control_c, 0, 64, 0
1, 1096956, Note_on_c, 0, 42, 105
1, 1096956, Note_on_c, 0, 54, 105
1, 1097025, Control_c, 0, 64, 127
1, 1097025, Control_c, 0, 64, 127
1, 1097107, Note_on_c, 0, 54, 0
1, 1097107, Note_on_c, 0, 42, 0
1, 1097107, Note_on_c, 0, 66, 96
1, 1097214, Note_on_c, 0, 73, 0
1, 1097214, Note_on_c, 0, 81, 0
1, 1097214, Note_on_c, 0, 75, 0
1, 1097217, Note_on_c, 0, 66, 0
1, 1097217, Note_on_c, 0, 67, 101
1, 1097321, Note_on_c, 0, 74, 93
1, 1097321, Note_on_c, 0, 77, 93
1, 1097321, Note_on_c, 0, 83, 105
1, 1097324, Note_on_c, 0, 67, 0
1, 1097324, Note_on_c, 0, 68, 106
1, 1097341, Control_c, 0, 64, 0
1, 1097341, Control_c, 0, 64, 0
1, 1097428, Note_on_c, 0, 74, 0
1, 1097428, Note_on_c, 0, 83, 0
1, 1097428, Note_on_c, 0, 77, 0
1, 1097431, Note_on_c, 0, 73, 93
1, 1097431, Note_on_c, 0, 78, 93
1, 1097431, Note_on_c, 0, 81, 114
1, 1097434, Note_on_c, 0, 68, 0
1, 1097434, Note_on_c, 0, 69, 111
1, 1097532, Control_c, 0, 64, 127
1, 1097532, Control_c, 0, 64, 127
1, 1097535, Note_on_c, 0, 69, 0
1, 1097535, Note_on_c, 0, 63, 96
1, 1097642, Note_on_c, 0, 81, 0
1, 1097642, Note_on_c, 0, 73, 0
1, 1097642, Note_on_c, 0, 78, 0
1, 1097645, Note_on_c, 0, 63, 0
1, 1097645, Note_on_c, 0, 64, 101
1, 1097749, Note_on_c, 0, 73, 93
1, 1097749, Note_on_c, 0, 75, 93
1, 1097749, Note_on_c, 0, 78, 105
1, 1097752, Note_on_c, 0, 64, 0
1, 1097752, Note_on_c, 0, 66, 106
1, 1097768, Control_c, 0, 64, 0
1, 1097768, Control_c, 0, 64, 0
1, 1097874, Note_on_c, 0, 73, 0
1, 1097874, Note_on_c, 0, 78, 0
1, 1097874, Note_on_c, 0, 75, 0
1, 1097877, Note_on_c, 0, 73, 93
1, 1097877, Note_on_c, 0, 76, 93
1, 1097877, Note_on_c, 0, 80, 114
1, 1097880, Note_on_c, 0, 66, 0
1, 1097880, Note_on_c, 0, 49, 111
1, 1097880, Note_on_c, 0, 61, 111
1, 1097988, Control_c, 0, 64, 127
1, 1097988, Control_c, 0, 64, 127
1, 1098006, Note_on_c, 0, 61, 0
1, 1098006, Note_on_c, 0, 49, 0
1, 1098006, Note_on_c, 0, 64, 96
1, 1098113, Note_on_c, 0, 80, 0
1, 1098113, Note_on_c, 0, 73, 0
1, 1098113, Note_on_c, 0, 76, 0
1, 1098116, Note_on_c, 0, 64, 0
1, 1098116, Note_on_c, 0, 66, 101
1, 1098220, Note_on_c, 0, 73, 93
1, 1098220, Note_on_c, 0, 76, 93
1, 1098220, Note_on_c, 0, 81, 105
1, 1098223, Note_on_c, 0, 66, 0
1, 1098223, Note_on_c, 0, 67, 106
1, 1098279, Control_c, 0, 64, 0
1, 1098279, Control_c, 0, 64, 0
1, 1098327, Note_on_c, 0, 73, 0
1, 1098327, Note_on_c, 0, 81, 0
1, 1098327, Note_on_c, 0, 76, 0
1, 1098330, Note_on_c, 0, 73, 93
1, 1098330, Note_on_c, 0, 76, 93
1, 1098330, Note_on_c, 0, 80, 114
1, 1098333, Note_on_c, 0, 67, 0
1, 1098333, Note_on_c, 0, 68, 111
1, 1098424, Control_c, 0, 64, 127
1, 1098424, Control_c, 0, 64, 127
1, 1098434, Note_on_c, 0, 68, 0
1, 1098434, Note_on_c, 0, 61, 96
1, 1098541, Note_on_c, 0, 80, 0
1, 1098541, Note_on_c, 0, 73, 0
1, 1098541, Note_on_c, 0, 76, 0
1, 1098544, Note_on_c, 0, 61, 0
1, 1098544, Note_on_c, 0, 63, 102
1, 1098648, Note_on_c, 0, 68, 93
1, 1098648, Note_on_c, 0, 73, 93
1, 1098648, Note_on_c, 0, 76, 105
1, 1098651, Note_on_c, 0, 63, 0
1, 1098651, Note_on_c, 0, 64, 108
1, 1098683, Control_c, 0, 64, 0
1, 1098683, Control_c, 0, 64, 0
1, 1098773, Note_on_c, 0, 68, 0
1, 1098773, Note_on_c, 0, 73, 0
1, 1098773, Control_c, 0, 64, 0
1, 1098776, Note_on_c, 0, 76, 0
1, 1098776, Note_on_c, 0, 69, 93
1, 1098776, Note_on_c, 0, 73, 93
1, 1098779, Note_on_c, 0, 64, 0
1, 1098779, Note_on_c, 0, 78, 114
1, 1098779, Control_c, 0, 64, 0
1, 1098782, Note_on_c, 0, 44, 105
1, 1098782, Note_on_c, 0, 56, 105
1, 1098834, Control_c, 0, 64, 127
1, 1098834, Control_c, 0, 64, 127
1, 1098897, Note_on_c, 0, 56, 0
1, 1098897, Note_on_c, 0, 44, 0
1, 1098897, Note_on_c, 0, 63, 96
1, 1099004, Note_on_c, 0, 69, 0
1, 1099004, Note_on_c, 0, 78, 0
1, 1099004, Note_on_c, 0, 73, 0
1, 1099007, Note_on_c, 0, 63, 0
1, 1099007, Note_on_c, 0, 64, 101
1, 1099111, Note_on_c, 0, 71, 93
1, 1099111, Note_on_c, 0, 74, 93
1, 1099111, Note_on_c, 0, 80, 105
1, 1099114, Note_on_c, 0, 64, 0
1, 1099114, Control_c, 0, 64, 0
1, 1099114, Note_on_c, 0, 65, 106
1, 1099117, Control_c, 0, 64, 0
1, 1099218, Note_on_c, 0, 71, 0
1, 1099218, Note_on_c, 0, 80, 0
1, 1099218, Note_on_c, 0, 74, 0
1, 1099221, Note_on_c, 0, 69, 93
1, 1099221, Note_on_c, 0, 73, 93
1, 1099221, Note_on_c, 0, 78, 114
1, 1099224, Note_on_c, 0, 65, 0
1, 1099224, Note_on_c, 0, 66, 111
1, 1099322, Control_c, 0, 64, 127
1, 1099322, Control_c, 0, 64, 127
1, 1099325, Note_on_c, 0, 66, 0
1, 1099325, Note_on_c, 0, 60, 96
1, 1099432, Note_on_c, 0, 78, 0
1, 1099432, Note_on_c, 0, 69, 0
1, 1099432, Note_on_c, 0, 73, 0
1, 1099435, Note_on_c, 0, 60, 0
1, 1099435, Note_on_c, 0, 61, 101
1, 1099539, Note_on_c, 0, 66, 93
1, 1099539, Note_on_c, 0, 69, 93
1, 1099539, Note_on_c, 0, 75, 105
1, 1099542, Note_on_c, 0, 61, 0
1, 1099542, Note_on_c, 0, 63, 106
1, 1099561, Control_c, 0, 64, 0
1, 1099561, Control_c, 0, 64, 0
1, 1099646, Note_on_c, 0, 66, 0
1, 1099646, Note_on_c, 0, 75, 0
1, 1099646, Note_on_c, 0, 69, 0
1, 1099649, Note_on_c, 0, 68, 93
1, 1099649, Note_on_c, 0, 73, 93
1, 1099649, Note_on_c, 0, 76, 114
1, 1099652, Note_on_c, 0, 63, 0
1, 1099652, Note_on_c, 0, 44, 111
1, 1099652, Note_on_c, 0, 56, 111
1, 1099739, Control_c, 0, 64, 127
1, 1099739, Control_c, 0, 64, 127
1, 1099753, Note_on_c, 0, 56, 0
1, 1099753, Note_on_c, 0, 44, 0
1, 1099753, Note_on_c, 0, 61, 96
1, 1099860, Note_on_c, 0, 76, 0
1, 1099860, Note_on_c, 0, 68, 0
1, 1099860, Note_on_c, 0, 73, 0
1, 1099863, Note_on_c, 0, 61, 0
1, 1099863, Note_on_c, 0, 62, 101
1, 1099967, Note_on_c, 0, 69, 93
1, 1099967, Note_on_c, 0, 72, 93
1, 1099967, Note_on_c, 0, 78, 105
1, 1099970, Note_on_c, 0, 62, 0
1, 1099970, Note_on_c, 0, 63, 106
1, 1100014, Control_c, 0, 64, 0
1, 1100014, Control_c, 0, 64, 0
1, 1100074, Note_on_c, 0, 69, 0
1, 1100074, Note_on_c, 0, 78, 0
1, 1100074, Note_on_c, 0, 72, 0
1, 1100077, Note_on_c, 0, 68, 93
1, 1100077, Note_on_c, 0, 73, 93
1, 1100077, Note_on_c, 0, 76, 114
1, 1100080, Note_on_c, 0, 63, 0
1, 1100080, Note_on_c, 0, 64, 111
1, 1100091, Control_c, 0, 64, 0
1, 1100091, Control_c, 0, 64, 0
1, 1100171, Control_c, 0, 64, 127
1, 1100171, Control_c, 0, 64, 127
1, 1100181, Note_on_c, 0, 64, 0
1, 1100181, Note_on_c, 0, 61, 96
1, 1100288, Note_on_c, 0, 76, 0
1, 1100288, Note_on_c, 0, 68, 0
1, 1100288, Note_on_c, 0, 73, 0
1, 1100291, Note_on_c, 0, 61, 0
1, 1100291, Note_on_c, 0, 63, 102
1, 1100390, Control_c, 0, 64, 0
1, 1100390, Control_c, 0, 64, 0
1, 1100395, Note_on_c, 0, 64, 102
1, 1100395, Note_on_c, 0, 68, 102
1, 1100395, Note_on_c, 0, 73, 114
1, 1100398, Note_on_c, 0, 63, 0
1, 1100398, Note_on_c, 0, 64, 108
1, 1100502, Note_on_c, 0, 64, 0
1, 1100502, Note_on_c, 0, 68, 0
1, 1100502, Control_c, 0, 64, 0
1, 1100505, Note_on_c, 0, 73, 0
1, 1100505, Note_on_c, 0, 63, 96
1, 1100505, Note_on_c, 0, 68, 96
1, 1100508, Note_on_c, 0, 72, 115
1, 1100508, Note_on_c, 0, 75, 96
1, 1100508, Control_c, 0, 64, 0
1, 1100511, Note_on_c, 0, 64, 0
1, 1100567, Control_c, 0, 64, 127
1, 1100567, Control_c, 0, 64, 127
1, 1100634, Note_on_c, 0, 51, 99
1, 1100759, Note_on_c, 0, 72, 0
1, 1100759, Note_on_c, 0, 63, 0
1, 1100759, Note_on_c, 0, 68, 0
1, 1100762, Note_on_c, 0, 75, 0
1, 1100762, Note_on_c, 0, 51, 0
1, 1100762, Note_on_c, 0, 53, 101
1, 1100871, Note_on_c, 0, 63, 91
1, 1100871, Note_on_c, 0, 69, 91
1, 1100871, Note_on_c, 0, 72, 102
1, 1100874, Note_on_c, 0, 53, 0
1, 1100874, Note_on_c, 0, 75, 105
1, 1100874, Note_on_c, 0, 54, 103
1, 1100978, Note_on_c, 0, 63, 0
1, 1100978, Note_on_c, 0, 72, 0
1, 1100978, Note_on_c, 0, 69, 0
1, 1100981, Note_on_c, 0, 75, 0
1, 1100981, Note_on_c, 0, 63, 92
1, 1100981, Note_on_c, 0, 70, 92
1, 1100984, Note_on_c, 0, 54, 0
1, 1100984, Note_on_c, 0, 73, 112
1, 1100984, Note_on_c, 0, 75, 92
1, 1100987, Note_on_c, 0, 55, 105
1, 1100990, Control_c, 0, 64, 0
1, 1100990, Control_c, 0, 64, 0
1, 1101082, Control_c, 0, 64, 127
1, 1101082, Control_c, 0, 64, 127
1, 1101085, Note_on_c, 0, 55, 0
1, 1101085, Note_on_c, 0, 58, 107
1, 1101192, Note_on_c, 0, 63, 0
1, 1101192, Note_on_c, 0, 73, 0
1, 1101192, Note_on_c, 0, 70, 0
1, 1101195, Note_on_c, 0, 75, 0
1, 1101195, Note_on_c, 0, 58, 0
1, 1101195, Note_on_c, 0, 60, 109
1, 1101299, Note_on_c, 0, 63, 95
1, 1101299, Note_on_c, 0, 67, 95
1, 1101299, Note_on_c, 0, 70, 108
1, 1101302, Note_on_c, 0, 60, 0
1, 1101302, Note_on_c, 0, 75, 109
1, 1101302, Note_on_c, 0, 61, 111
1, 1101406, Note_on_c, 0, 63, 0
1, 1101406, Note_on_c, 0, 67, 0
1, 1101406, Control_c, 0, 64, 0
1, 1101409, Note_on_c, 0, 70, 0
1, 1101409, Note_on_c, 0, 75, 0
1, 1101409, Note_on_c, 0, 63, 97
1, 1101412, Note_on_c, 0, 68, 97
1, 1101412, Note_on_c, 0, 72, 117
1, 1101412, Note_on_c, 0, 75, 97
1, 1101415, Note_on_c, 0, 61, 0
1, 1101415, Control_c, 0, 64, 0
1, 1101415, Note_on_c, 0, 60, 113
1, 1101520, Control_c, 0, 64, 127
1, 1101520, Control_c, 0, 64, 127
1, 1101538, Note_on_c, 0, 60, 0
1, 1101538, Note_on_c, 0, 36, 117
1, 1101538, Note_on_c, 0, 48, 105
1, 1101645, Note_on_c, 0, 63, 0
1, 1101645, Note_on_c, 0, 72, 0
1, 1101645, Note_on_c, 0, 68, 0
1, 1101648, Note_on_c, 0, 75, 0
1, 1101648, Note_on_c, 0, 36, 0
1, 1101648, Note_on_c, 0, 48, 0
1, 1101651, Note_on_c, 0, 37, 117
1, 1101651, Note_on_c, 0, 49, 110
1, 1101752, Note_on_c, 0, 65, 100
1, 1101752, Note_on_c, 0, 68, 100
1, 1101752, Note_on_c, 0, 71, 114
1, 1101755, Note_on_c, 0, 49, 0
1, 1101755, Note_on_c, 0, 37, 0
1, 1101755, Note_on_c, 0, 77, 117
1, 1101758, Note_on_c, 0, 38, 117
1, 1101758, Note_on_c, 0, 50, 115
1, 1101859, Note_on_c, 0, 68, 0
1, 1101859, Note_on_c, 0, 71, 0
1, 1101859, Note_on_c, 0, 65, 0
1, 1101862, Note_on_c, 0, 77, 0
1, 1101862, Note_on_c, 0, 66, 101
1, 1101862, Note_on_c, 0, 68, 101
1, 1101865, Note_on_c, 0, 38, 0
1, 1101865, Note_on_c, 0, 72, 117
1, 1101865, Note_on_c, 0, 78, 101
1, 1101868, Note_on_c, 0, 50, 0
1, 1101868, Note_on_c, 0, 39, 117
1, 1101868, Note_on_c, 0, 51, 117
1, 1101883, Control_c, 0, 64, 0
1, 1101883, Control_c, 0, 64, 0
1, 1101995, Control_c, 0, 64, 127
1, 1101995, Control_c, 0, 64, 127
1, 1102009, Note_on_c, 0, 51, 0
1, 1102009, Note_on_c, 0, 39, 0
1, 1102009, Note_on_c, 0, 56, 117
1, 1102116, Note_on_c, 0, 68, 0
1, 1102116, Note_on_c, 0, 72, 0
1, 1102116, Note_on_c, 0, 66, 0
1, 1102119, Note_on_c, 0, 78, 0
1, 1102119, Note_on_c, 0, 56, 0
1, 1102119, Note_on_c, 0, 58, 117
1, 1102223, Note_on_c, 0, 66, 96
1, 1102223, Note_on_c, 0, 68, 96
1, 1102223, Note_on_c, 0, 75, 117
1, 1102226, Note_on_c, 0, 58, 0
1, 1102226, Note_on_c, 0, 60, 117
1, 1102331, Control_c, 0, 64, 0
1, 1102331, Control_c, 0, 64, 0
1, 1102396, Note_on_c, 0, 66, 0
1, 1102396, Note_on_c, 0, 75, 0
1, 1102396, Note_on_c, 0, 68, 0
1, 1102399, Note_on_c, 0, 73, 100
1, 1102399, Note_on_c, 0, 76, 100
1, 1102399, Note_on_c, 0, 80, 100
1, 1102402, Note_on_c, 0, 60, 0
1, 1102402, Note_on_c, 0, 85, 117
1, 1102402, Note_on_c, 0, 49, 105
1, 1102405, Note_on_c, 0, 61, 105
1, 1102480, Control_c, 0, 64, 127
1, 1102480, Control_c, 0, 64, 127
1, 1102569, Note_on_c, 0, 61, 0
1, 1102569, Note_on_c, 0, 49, 0
1, 1102569, Note_on_c, 0, 64, 96
1, 1102701, Note_on_c, 0, 80, 0
1, 1102701, Note_on_c, 0, 73, 0
1, 1102701, Note_on_c, 0, 76, 0
1, 1102704, Note_on_c, 0, 85, 0
1, 1102704, Note_on_c, 0, 64, 0
1, 1102704, Note_on_c, 0, 66, 101
1, 1102825, Note_on_c, 0, 73, 93
1, 1102825, Note_on_c, 0, 76, 93
1, 1102825, Note_on_c, 0, 81, 93
1, 1102828, Note_on_c, 0, 66, 0
1, 1102828, Note_on_c, 0, 85, 105
1, 1102828, Note_on_c, 0, 67, 106
1, 1102846, Control_c, 0, 64, 0
1, 1102846, Control_c, 0, 64, 0
1, 1102932, Note_on_c, 0, 73, 0
1, 1102932, Note_on_c, 0, 81, 0
1, 1102932, Note_on_c, 0, 76, 0
1, 1102935, Note_on_c, 0, 85, 0
1, 1102935, Note_on_c, 0, 73, 93
1, 1102935, Note_on_c, 0, 76, 93
1, 1102938, Note_on_c, 0, 67, 0
1, 1102938, Note_on_c, 0, 80, 93
1, 1102938, Note_on_c, 0, 85, 114
1, 1102941, Note_on_c, 0, 68, 111
1, 1103036, Control_c, 0, 64, 127
1, 1103036, Control_c, 0, 64, 127
1, 1103039, Note_on_c, 0, 68, 0
1, 1103039, Note_on_c, 0, 61, 96
1, 1103146, Note_on_c, 0, 73, 0
1, 1103146, Note_on_c, 0, 80, 0
1, 1103146, Note_on_c, 0, 76, 0
1, 1103149, Note_on_c, 0, 85, 0
1, 1103149, Note_on_c, 0, 61, 0
1, 1103149, Note_on_c, 0, 62, 101
1, 1103253, Note_on_c, 0, 69, 93
1, 1103253, Note_on_c, 0, 72, 93
1, 1103253, Note_on_c, 0, 78, 93
1, 1103256, Note_on_c, 0, 62, 0
1, 1103256, Note_on_c, 0, 81, 105
1, 1103256, Note_on_c, 0, 63, 106
1, 1103275, Control_c, 0, 64, 0
1, 1103275, Control_c, 0, 64, 0
1, 1103360, Note_on_c, 0, 69, 0
1, 1103360, Note_on_c, 0, 72, 0
1, 1103360, Control_c, 0, 64, 0
1, 1103363, Note_on_c, 0, 78, 0
1, 1103363, Note_on_c, 0, 81, 0
1, 1103363, Note_on_c, 0, 68, 93
1, 1103366, Note_on_c, 0, 73, 93
1, 1103366, Note_on_c, 0, 76, 93
1, 1103366, Note_on_c, 0, 80, 114
1, 1103369, Note_on_c, 0, 63, 0
1, 1103369, Control_c, 0, 64, 0
1, 1103369, Note_on_c, 0, 64, 111
1, 1103453, Control_c, 0, 64, 127
1, 1103453, Control_c, 0, 64, 127
1, 1103467, Note_on_c, 0, 64, 0
1, 1103467, Note_on_c, 0, 56, 96
1, 1103574, Note_on_c, 0, 68, 0
1, 1103574, Note_on_c, 0, 76, 0
1, 1103574, Note_on_c, 0, 73, 0
1, 1103577, Note_on_c, 0, 80, 0
1, 1103577, Note_on_c, 0, 56, 0
1, 1103577, Note_on_c, 0, 58, 101
1, 1103681, Note_on_c, 0, 66, 93
1, 1103681, Note_on_c, 0, 69, 93
1, 1103681, Note_on_c, 0, 75, 93
1, 1103684, Note_on_c, 0, 58, 0
1, 1103684, Note_on_c, 0, 78, 105
1, 1103684, Note_on_c, 0, 60, 106
1, 1103722, Control_c, 0, 64, 0
1, 1103722, Control_c, 0, 64, 0
1, 1103788, Note_on_c, 0, 66, 0
1, 1103788, Note_on_c, 0, 75, 0
1, 1103788, Note_on_c, 0, 69, 0
1, 1103791, Note_on_c, 0, 78, 0
1, 1103791, Note_on_c, 0, 64, 84
1, 1103791, Note_on_c, 0, 68, 84
1, 1103794, Note_on_c, 0, 60, 0
1, 1103794, Note_on_c, 0, 73, 84
1, 1103794, Note_on_c, 0, 76, 105
1, 1103797, Note_on_c, 0, 61, 111
1, 1103805, Control_c, 0, 64, 0
1, 1103805, Control_c, 0, 64, 0
1, 1103885, Control_c, 0, 64, 127
1, 1103885, Control_c, 0, 64, 127
1, 1103895, Note_on_c, 0, 61, 0
1, 1103895, Note_on_c, 0, 52, 87
1, 1104002, Note_on_c, 0, 64, 0
1, 1104002, Note_on_c, 0, 73, 0
1, 1104002, Note_on_c, 0, 68, 0
1, 1104005, Note_on_c, 0, 76, 0
1, 1104005, Note_on_c, 0, 52, 0
1, 1104005, Note_on_c, 0, 54, 93
1, 1104105, Control_c, 0, 64, 0
1, 1104105, Control_c, 0, 64, 0
1, 1104109, Note_on_c, 0, 62, 89
1, 1104109, Note_on_c, 0, 65, 89
1, 1104109, Note_on_c, 0, 71, 101
1, 1104112, Note_on_c, 0, 54, 0
1, 1104112, Note_on_c, 0, 74, 89
1, 1104112, Note_on_c, 0, 56, 99
1, 1104234, Note_on_c, 0, 62, 0
1, 1104234, Note_on_c, 0, 71, 0
1, 1104234, Note_on_c, 0, 65, 0
1, 1104237, Note_on_c, 0, 74, 0
1, 1104237, Note_on_c, 0, 61, 85
1, 1104237, Note_on_c, 0, 64, 85
1, 1104240, Note_on_c, 0, 56, 0
1, 1104240, Note_on_c, 0, 69, 85
1, 1104240, Note_on_c, 0, 73, 103
1, 1104243, Note_on_c, 0, 57, 91
1, 1104286, Control_c, 0, 64, 127
1, 1104286, Control_c, 0, 64, 127
1, 1104299, Note_on_c, 0, 57, 0
1, 1104341, Note_on_c, 0, 49, 85
1, 1104406, Note_on_c, 0, 61, 0
1, 1104406, Note_on_c, 0, 69, 0
1, 1104406, Note_on_c, 0, 64, 0
1, 1104409, Note_on_c, 0, 73, 0
1, 1104409, Note_on_c, 0, 49, 0
1, 1104448, Note_on_c, 0, 50, 90
1, 1104513, Note_on_c, 0, 50, 0
1, 1104555, Note_on_c, 0, 60, 92
1, 1104555, Note_on_c, 0, 66, 92
1, 1104555, Note_on_c, 0, 69, 92
1, 1104558, Note_on_c, 0, 72, 103
1, 1104558, Control_c, 0, 64, 0
1, 1104558, Note_on_c, 0, 51, 96
1, 1104561, Control_c, 0, 64, 0
1, 1104620, Note_on_c, 0, 69, 0
1, 1104620, Note_on_c, 0, 60, 0
1, 1104620, Note_on_c, 0, 66, 0
1, 1104623, Note_on_c, 0, 72, 0
1, 1104623, Note_on_c, 0, 51, 0
1, 1104662, Note_on_c, 0, 61, 88
1, 1104662, Note_on_c, 0, 64, 88
1, 1104662, Note_on_c, 0, 69, 88
1, 1104665, Note_on_c, 0, 73, 108
1, 1104665, Note_on_c, 0, 52, 102
1, 1104727, Note_on_c, 0, 52, 0
1, 1104766, Control_c, 0, 64, 127
1, 1104766, Control_c, 0, 64, 127
1, 1104769, Note_on_c, 0, 44, 90
1, 1104834, Note_on_c, 0, 61, 0
1, 1104834, Note_on_c, 0, 69, 0
1, 1104834, Note_on_c, 0, 64, 0
1, 1104837, Note_on_c, 0, 73, 0
1, 1104837, Note_on_c, 0, 44, 0
1, 1104876, Note_on_c, 0, 45, 96
1, 1104934, Control_c, 0, 64, 0
1, 1104934, Control_c, 0, 64, 0
1, 1104941, Note_on_c, 0, 45, 0
1, 1104983, Note_on_c, 0, 56, 91
1, 1104983, Note_on_c, 0, 62, 91
1, 1104983, Note_on_c, 0, 65, 91
1, 1104986, Note_on_c, 0, 68, 103
1, 1104986, Note_on_c, 0, 47, 102
1, 1105048, Note_on_c, 0, 65, 0
1, 1105048, Note_on_c, 0, 56, 0
1, 1105048, Note_on_c, 0, 62, 0
1, 1105051, Note_on_c, 0, 68, 0
1, 1105051, Note_on_c, 0, 47, 0
1, 1105090, Control_c, 0, 64, 0
1, 1105090, Note_on_c, 0, 57, 92
1, 1105090, Note_on_c, 0, 64, 92
1, 1105093, Note_on_c, 0, 69, 112
1, 1105093, Control_c, 0, 64, 0
1, 1105093, Note_on_c, 0, 49, 108
1, 1105155, Note_on_c, 0, 49, 0
1, 1105182, Control_c, 0, 64, 127
1, 1105182, Control_c, 0, 64, 127
1, 1105197, Note_on_c, 0, 40, 95
1, 1105262, Note_on_c, 0, 57, 0
1, 1105262, Note_on_c, 0, 69, 0
1, 1105262, Note_on_c, 0, 64, 0
1, 1105265, Note_on_c, 0, 40, 0
1, 1105304, Note_on_c, 0, 42, 101
1, 1105369, Note_on_c, 0, 42, 0
1, 1105393, Control_c, 0, 64, 0
1, 1105393, Control_c, 0, 64, 0
1, 1105411, Note_on_c, 0, 54, 95
1, 1105411, Note_on_c, 0, 59, 95
1, 1105411, Note_on_c, 0, 62, 95
1, 1105414, Note_on_c, 0, 66, 107
1, 1105414, Note_on_c, 0, 44, 107
1, 1105476, Note_on_c, 0, 62, 0
1, 1105476, Note_on_c, 0, 54, 0
1, 1105476, Note_on_c, 0, 59, 0
1, 1105479, Note_on_c, 0, 66, 0
1, 1105479, Note_on_c, 0, 44, 0
1, 1105518, Note_on_c, 0, 52, 96
1, 1105518, Note_on_c, 0, 61, 96
1, 1105518, Note_on_c, 0, 64, 117
1, 1105521, Note_on_c, 0, 45, 114
1, 1105535, Control_c, 0, 64, 0
1, 1105535, Control_c, 0, 64, 0
1, 1105583, Note_on_c, 0, 45, 0
1, 1105615, Control_c, 0, 64, 127
1, 1105615, Control_c, 0, 64, 127
1, 1105625, Note_on_c, 0, 44, 100
1, 1105690, Note_on_c, 0, 52, 0
1, 1105690, Note_on_c, 0, 64, 0
1, 1105690, Note_on_c, 0, 61, 0
1, 1105693, Note_on_c, 0, 44, 0
1, 1105732, Note_on_c, 0, 45, 108
1, 1105793, Control_c, 0, 64, 0
1, 1105793, Control_c, 0, 64, 0
1, 1105797, Note_on_c, 0, 45, 0
1, 1105839, Note_on_c, 0, 55, 99
1, 1105839, Note_on_c, 0, 61, 99
1, 1105839, Note_on_c, 0, 64, 112
1, 1105842, Note_on_c, 0, 46, 116
1, 1105915, Note_on_c, 0, 64, 0
1, 1105915, Note_on_c, 0, 55, 0
1, 1105915, Note_on_c, 0, 61, 0
1, 1105918, Note_on_c, 0, 46, 0
1, 1105963, Control_c, 0, 64, 0
1, 1105963, Note_on_c, 0, 56, 93
1, 1105963, Note_on_c, 0, 59, 93
1, 1105966, Note_on_c, 0, 64, 114
1, 1105966, Control_c, 0, 64, 0
1, 1105966, Note_on_c, 0, 47, 93
1, 1106044, Note_on_c, 0, 59, 0
1, 1106044, Note_on_c, 0, 56, 0
1, 1106095, Note_on_c, 0, 56, 81
1, 1106161, Note_on_c, 0, 56, 0
1, 1106161, Note_on_c, 0, 64, 0
1, 1106161, Note_on_c, 0, 47, 0
1, 1106202, Note_on_c, 0, 57, 82
1, 1106268, Note_on_c, 0, 57, 0
1, 1106309, Note_on_c, 0, 61, 86
1, 1106309, Note_on_c, 0, 58, 83
1, 1106309, Note_on_c, 0, 52, 81
1, 1106312, Note_on_c, 0, 55, 91
1, 1106375, Note_on_c, 0, 52, 0
1, 1106375, Note_on_c, 0, 61, 0
1, 1106375, Note_on_c, 0, 58, 0
1, 1106378, Note_on_c, 0, 55, 0
1, 1106416, Note_on_c, 0, 66, 97
1, 1106416, Note_on_c, 0, 59, 85
1, 1106416, Note_on_c, 0, 51, 82
1, 1106419, Note_on_c, 0, 54, 92
1, 1106482, Note_on_c, 0, 59, 0
1, 1106523, Note_on_c, 0, 54, 85
1, 1106589, Note_on_c, 0, 54, 0
1, 1106589, Note_on_c, 0, 66, 0
1, 1106589, Note_on_c, 0, 51, 0
1, 1106592, Note_on_c, 0, 54, 0
1, 1106630, Note_on_c, 0, 55, 86
1, 1106695, Note_on_c, 0, 55, 0
1, 1106737, Note_on_c, 0, 59, 91
1, 1106737, Note_on_c, 0, 56, 88
1, 1106737, Note_on_c, 0, 50, 85
1, 1106740, Note_on_c, 0, 53, 95
1, 1106802, Note_on_c, 0, 50, 0
1, 1106802, Note_on_c, 0, 59, 0
1, 1106802, Note_on_c, 0, 56, 0
1, 1106805, Note_on_c, 0, 53, 0
1, 1106844, Note_on_c, 0, 64, 101
1, 1106844, Note_on_c, 0, 57, 89
1, 1106844, Note_on_c, 0, 49, 86
1, 1106847, Note_on_c, 0, 52, 96
1, 1106909, Note_on_c, 0, 57, 0
1, 1106951, Note_on_c, 0, 56, 90
1, 1107016, Note_on_c, 0, 56, 0
1, 1107016, Note_on_c, 0, 64, 0
1, 1107016, Note_on_c, 0, 49, 0
1, 1107019, Note_on_c, 0, 52, 0
1, 1107058, Note_on_c, 0, 57, 91
1, 1107123, Note_on_c, 0, 57, 0
1, 1107165, Note_on_c, 0, 67, 95
1, 1107165, Note_on_c, 0, 58, 92
1, 1107165, Note_on_c, 0, 48, 89
1, 1107168, Note_on_c, 0, 52, 100
1, 1107230, Note_on_c, 0, 48, 0
1, 1107230, Note_on_c, 0, 67, 0
1, 1107230, Note_on_c, 0, 58, 0
1, 1107233, Note_on_c, 0, 52, 0
1, 1107272, Note_on_c, 0, 68, 105
1, 1107272, Note_on_c, 0, 59, 93
1, 1107272, Note_on_c, 0, 47, 89
1, 1107275, Note_on_c, 0, 51, 101
1, 1107337, Note_on_c, 0, 59, 0
1, 1107379, Note_on_c, 0, 58, 94
1, 1107444, Note_on_c, 0, 58, 0
1, 1107444, Note_on_c, 0, 68, 0
1, 1107444, Note_on_c, 0, 47, 0
1, 1107447, Note_on_c, 0, 51, 0
1, 1107486, Note_on_c, 0, 59, 95
1, 1107551, Note_on_c, 0, 59, 0
1, 1107593, Note_on_c, 0, 66, 100
1, 1107593, Note_on_c, 0, 63, 97
1, 1107593, Note_on_c, 0, 45, 104
1, 1107596, Note_on_c, 0, 47, 92
1, 1107596, Note_on_c, 0, 57, 92
1, 1107658, Note_on_c, 0, 45, 0
1, 1107658, Note_on_c, 0, 66, 0
1, 1107658, Note_on_c, 0, 63, 0
1, 1107661, Note_on_c, 0, 47, 0
1, 1107661, Note_on_c, 0, 57, 0
1, 1107700, Control_c, 0, 64, 0
1, 1107700, Note_on_c, 0, 64, 98
1, 1107700, Note_on_c, 0, 71, 110
1, 1107703, Control_c, 0, 64, 0
1, 1107703, Control_c, 0, 64, 0
1, 1107703, Control_c, 0, 64, 0
1, 1107706, Note_on_c, 0, 44, 106
1, 1107706, Note_on_c, 0, 47, 94
1, 1107706, Note_on_c, 0, 56, 94
1, 1107807, Note_on_c, 0, 64, 0
1, 1107807, Note_on_c, 0, 63, 99
1, 1107914, Note_on_c, 0, 63, 0
1, 1107914, Note_on_c, 0, 71, 0
1, 1107914, Note_on_c, 0, 64, 100
1, 1107917, Note_on_c, 0, 47, 0
1, 1107917, Note_on_c, 0, 56, 0
1, 1107917, Note_on_c, 0, 44, 0
1, 1108021, Note_on_c, 0, 64, 0
1, 1108021, Note_on_c, 0, 75, 113
1, 1108021, Note_on_c, 0, 69, 101
1, 1108024, Note_on_c, 0, 42, 109
1, 1108024, Note_on_c, 0, 47, 97
1, 1108024, Note_on_c, 0, 54, 97
1, 1108128, Note_on_c, 0, 69, 0
1, 1108128, Note_on_c, 0, 75, 0
1, 1108128, Note_on_c, 0, 76, 117
1, 1108131, Note_on_c, 0, 47, 0
1, 1108131, Note_on_c, 0, 42, 0
1, 1108131, Note_on_c, 0, 68, 102
1, 1108134, Note_on_c, 0, 54, 0
1, 1108134, Note_on_c, 0, 40, 110
1, 1108134, Note_on_c, 0, 47, 97
1, 1108137, Note_on_c, 0, 52, 97
1, 1108235, Note_on_c, 0, 68, 0
1, 1108235, Note_on_c, 0, 67, 103
1, 1108342, Note_on_c, 0, 67, 0
1, 1108342, Note_on_c, 0, 76, 0
1, 1108342, Note_on_c, 0, 68, 104
1, 1108345, Note_on_c, 0, 47, 0
1, 1108345, Note_on_c, 0, 52, 0
1, 1108345, Note_on_c, 0, 40, 0
1, 1108449, Note_on_c, 0, 68, 0
1, 1108449, Note_on_c, 0, 76, 106
1, 1108449, Note_on_c, 0, 80, 117
1, 1108452, Note_on_c, 0, 71, 106
1, 1108452, Note_on_c, 0, 38, 114
1, 1108452, Note_on_c, 0, 40, 100
1, 1108455, Note_on_c, 0, 50, 100
1, 1108556, Note_on_c, 0, 80, 0
1, 1108556, Note_on_c, 0, 76, 0
1, 1108556, Note_on_c, 0, 76, 107
1, 1108559, Note_on_c, 0, 71, 0
1, 1108559, Note_on_c, 0, 81, 117
1, 1108559, Note_on_c, 0, 69, 107
1, 1108562, Note_on_c, 0, 50, 0
1, 1108562, Note_on_c, 0, 38, 0
1, 1108562, Note_on_c, 0, 40, 0
1, 1108565, Note_on_c, 0, 37, 115
1, 1108565, Note_on_c, 0, 40, 101
1, 1108565, Note_on_c, 0, 49, 101
1, 1108666, Control_c, 0, 64, 127
1, 1108666, Control_c, 0, 64, 127
1, 1108666, Control_c, 0, 64, 127
1, 1108716, Note_on_c, 0, 76, 0
1, 1108716, Note_on_c, 0, 81, 0
1, 1108716, Note_on_c, 0, 80, 117
1, 1108719, Note_on_c, 0, 69, 0
1, 1108719, Note_on_c, 0, 68, 107
1, 1108823, Note_on_c, 0, 68, 0
1, 1108823, Note_on_c, 0, 80, 0
1, 1108823, Note_on_c, 0, 81, 117
1, 1108826, Note_on_c, 0, 37, 0
1, 1108826, Note_on_c, 0, 40, 0
1, 1108826, Note_on_c, 0, 69, 109
1, 1108829, Note_on_c, 0, 49, 0
1, 1108930, Note_on_c, 0, 81, 0
1, 1108930, Note_on_c, 0, 81, 110
1, 1108930, Note_on_c, 0, 85, 117
1, 1108933, Note_on_c, 0, 69, 0
1, 1108933, Note_on_c, 0, 73, 110
1, 1108933, Note_on_c, 0, 33, 117
1, 1108936, Note_on_c, 0, 45, 104
1, 1109060, Note_on_c, 0, 45, 0
1, 1109060, Note_on_c, 0, 73, 0
1, 1109060, Note_on_c, 0, 81, 0
1, 1109060, Note_on_c, 0, 85, 0
1, 1109060, Note_on_c, 0, 33, 0
1, 1109060, Control_c, 0, 64, 0
1, 1109060, Note_on_c, 0, 80, 111
1, 1109060, Note_on_c, 0, 88, 117
1, 1109060, Note_on_c, 0, 76, 111
1, 1109060, Control_c, 0, 64, 0
1, 1109060, Control_c, 0, 64, 0
1, 1109060, Note_on_c, 0, 28, 117
1, 1109060, Note_on_c, 0, 40, 105
1, 1109162, Control_c, 0, 64, 127
1, 1109162, Control_c, 0, 64, 127
1, 1109438, Control_c, 0, 64, 0
1, 1109438, Control_c, 0, 64, 0
1, 1109513, Note_on_c, 0, 40, 0
1, 1109513, Note_on_c, 0, 28, 0
1, 1109539, Note_on_c, 0, 80, 0
1, 1109539, Note_on_c, 0, 88, 0
1, 1109539, Note_on_c, 0, 76, 0
1, 1109591, Note_on_c, 0, 73, 100
1, 1109591, Note_on_c, 0, 76, 100
1, 1109591, Note_on_c, 0, 80, 100
1, 1109594, Note_on_c, 0, 85, 117
1, 1109594, Note_on_c, 0, 49, 105
1, 1109594, Note_on_c, 0, 61, 105
1, 1109682, Control_c, 0, 64, 127
1, 1109682, Control_c, 0, 64, 127
1, 1109778, Note_on_c, 0, 61, 0
1, 1109778, Note_on_c, 0, 49, 0
1, 1109778, Note_on_c, 0, 64, 96
1, 1109885, Note_on_c, 0, 73, 0
1, 1109885, Note_on_c, 0, 80, 0
1, 1109885, Note_on_c, 0, 76, 0
1, 1109888, Note_on_c, 0, 85, 0
1, 1109888, Note_on_c, 0, 64, 0
1, 1109888, Note_on_c, 0, 66, 101
1, 1109992, Note_on_c, 0, 73, 93
1, 1109992, Note_on_c, 0, 76, 93
1, 1109992, Note_on_c, 0, 81, 93
1, 1109995, Note_on_c, 0, 66, 0
1, 1109995, Note_on_c, 0, 85, 105
1, 1109995, Note_on_c, 0, 67, 106
1, 1110099, Note_on_c, 0, 73, 0
1, 1110099, Note_on_c, 0, 81, 0
1, 1110099, Note_on_c, 0, 76, 0
1, 1110102, Note_on_c, 0, 85, 0
1, 1110102, Note_on_c, 0, 73, 93
1, 1110102, Note_on_c, 0, 76, 93
1, 1110105, Note_on_c, 0, 67, 0
1, 1110105, Note_on_c, 0, 80, 93
1, 1110105, Note_on_c, 0, 85, 114
1, 1110108, Note_on_c, 0, 68, 111
1, 1110111, Control_c, 0, 64, 0
1, 1110111, Control_c, 0, 64, 0
1, 1110203, Control_c, 0, 64, 127
1, 1110203, Control_c, 0, 64, 127
1, 1110206, Note_on_c, 0, 68, 0
1, 1110206, Note_on_c, 0, 61, 96
1, 1110313, Note_on_c, 0, 73, 0
1, 1110313, Note_on_c, 0, 80, 0
1, 1110313, Note_on_c, 0, 76, 0
1, 1110316, Note_on_c, 0, 85, 0
1, 1110316, Note_on_c, 0, 61, 0
1, 1110316, Note_on_c, 0, 62, 101
1, 1110420, Note_on_c, 0, 69, 93
1, 1110420, Note_on_c, 0, 72, 93
1, 1110420, Note_on_c, 0, 78, 93
1, 1110423, Note_on_c, 0, 62, 0
1, 1110423, Note_on_c, 0, 81, 105
1, 1110423, Note_on_c, 0, 63, 106
1, 1110527, Note_on_c, 0, 69, 0
1, 1110527, Note_on_c, 0, 72, 0
1, 1110527, Control_c, 0, 64, 0
1, 1110530, Note_on_c, 0, 78, 0
1, 1110530, Note_on_c, 0, 81, 0
1, 1110530, Note_on_c, 0, 68, 93
1, 1110533, Note_on_c, 0, 73, 93
1, 1110533, Note_on_c, 0, 76, 93
1, 1110533, Note_on_c, 0, 80, 114
1, 1110536, Note_on_c, 0, 63, 0
1, 1110536, Control_c, 0, 64, 0
1, 1110536, Note_on_c, 0, 64, 111
1, 1110619, Control_c, 0, 64, 127
1, 1110619, Control_c, 0, 64, 127
1, 1110634, Note_on_c, 0, 64, 0
1, 1110634, Note_on_c, 0, 56, 96
1, 1110741, Note_on_c, 0, 68, 0
1, 1110741, Note_on_c, 0, 76, 0
1, 1110741, Note_on_c, 0, 73, 0
1, 1110744, Note_on_c, 0, 80, 0
1, 1110744, Note_on_c, 0, 56, 0
1, 1110744, Note_on_c, 0, 58, 101
1, 1110848, Note_on_c, 0, 66, 93
1, 1110848, Note_on_c, 0, 69, 93
1, 1110848, Note_on_c, 0, 75, 93
1, 1110851, Note_on_c, 0, 58, 0
1, 1110851, Note_on_c, 0, 78, 105
1, 1110851, Note_on_c, 0, 60, 106
1, 1110955, Note_on_c, 0, 66, 0
1, 1110955, Note_on_c, 0, 75, 0
1, 1110955, Note_on_c, 0, 69, 0
1, 1110958, Note_on_c, 0, 78, 0
1, 1110958, Note_on_c, 0, 64, 93
1, 1110958, Note_on_c, 0, 68, 93
1, 1110961, Note_on_c, 0, 60, 0
1, 1110961, Note_on_c, 0, 73, 93
1, 1110961, Note_on_c, 0, 76, 114
1, 1110964, Note_on_c, 0, 61, 111
1, 1110972, Control_c, 0, 64, 0
1, 1110972, Control_c, 0, 64, 0
1, 1111052, Control_c, 0, 64, 127
1, 1111052, Control_c, 0, 64, 127
1, 1111062, Note_on_c, 0, 61, 0
1, 1111062, Note_on_c, 0, 52, 96
1, 1111169, Note_on_c, 0, 64, 0
1, 1111169, Note_on_c, 0, 73, 0
1, 1111169, Note_on_c, 0, 68, 0
1, 1111172, Note_on_c, 0, 76, 0
1, 1111172, Note_on_c, 0, 52, 0
1, 1111172, Note_on_c, 0, 54, 102
1, 1111276, Note_on_c, 0, 64, 93
1, 1111276, Note_on_c, 0, 68, 93
1, 1111276, Note_on_c, 0, 73, 105
1, 1111279, Note_on_c, 0, 54, 0
1, 1111279, Note_on_c, 0, 56, 108
1, 1111354, Control_c, 0, 64, 0
1, 1111354, Control_c, 0, 64, 0
1, 1111400, Note_on_c, 0, 64, 0
1, 1111400, Note_on_c, 0, 68, 0
1, 1111400, Control_c, 0, 64, 0
1, 1111403, Note_on_c, 0, 73, 0
1, 1111403, Note_on_c, 0, 73, 93
1, 1111403, Note_on_c, 0, 75, 93
1, 1111406, Note_on_c, 0, 56, 0
1, 1111406, Note_on_c, 0, 81, 114
1, 1111406, Control_c, 0, 64, 0
1, 1111409, Note_on_c, 0, 42, 105
1, 1111409, Note_on_c, 0, 54, 105
1, 1111479, Control_c, 0, 64, 127
1, 1111479, Control_c, 0, 64, 127
1, 1111561, Note_on_c, 0, 54, 0
1, 1111561, Note_on_c, 0, 42, 0
1, 1111561, Note_on_c, 0, 66, 96
1, 1111668, Note_on_c, 0, 73, 0
1, 1111668, Note_on_c, 0, 81, 0
1, 1111668, Note_on_c, 0, 75, 0
1, 1111671, Note_on_c, 0, 66, 0
1, 1111671, Note_on_c, 0, 67, 101
1, 1111775, Note_on_c, 0, 74, 93
1, 1111775, Note_on_c, 0, 77, 93
1, 1111775, Note_on_c, 0, 83, 105
1, 1111778, Note_on_c, 0, 67, 0
1, 1111778, Note_on_c, 0, 68, 106
1, 1111795, Control_c, 0, 64, 0
1, 1111795, Control_c, 0, 64, 0
1, 1111882, Note_on_c, 0, 74, 0
1, 1111882, Note_on_c, 0, 83, 0
1, 1111882, Note_on_c, 0, 77, 0
1, 1111885, Note_on_c, 0, 73, 93
1, 1111885, Note_on_c, 0, 78, 93
1, 1111885, Note_on_c, 0, 81, 114
1, 1111888, Note_on_c, 0, 68, 0
1, 1111888, Note_on_c, 0, 69, 111
1, 1111986, Control_c, 0, 64, 127
1, 1111986, Control_c, 0, 64, 127
1, 1111989, Note_on_c, 0, 69, 0
1, 1111989, Note_on_c, 0, 63, 96
1, 1112096, Note_on_c, 0, 81, 0
1, 1112096, Note_on_c, 0, 73, 0
1, 1112096, Note_on_c, 0, 78, 0
1, 1112099, Note_on_c, 0, 63, 0
1, 1112099, Note_on_c, 0, 64, 101
1, 1112203, Note_on_c, 0, 73, 93
1, 1112203, Note_on_c, 0, 75, 93
1, 1112203, Note_on_c, 0, 78, 105
1, 1112206, Note_on_c, 0, 64, 0
1, 1112206, Note_on_c, 0, 66, 106
1, 1112221, Control_c, 0, 64, 0
1, 1112221, Control_c, 0, 64, 0
1, 1112328, Note_on_c, 0, 73, 0
1, 1112328, Note_on_c, 0, 78, 0
1, 1112328, Note_on_c, 0, 75, 0
1, 1112331, Note_on_c, 0, 73, 93
1, 1112331, Note_on_c, 0, 76, 93
1, 1112331, Note_on_c, 0, 80, 114
1, 1112334, Note_on_c, 0, 66, 0
1, 1112334, Note_on_c, 0, 49, 111
1, 1112334, Note_on_c, 0, 61, 111
1, 1112442, Control_c, 0, 64, 127
1, 1112442, Control_c, 0, 64, 127
1, 1112460, Note_on_c, 0, 61, 0
1, 1112460, Note_on_c, 0, 49, 0
1, 1112460, Note_on_c, 0, 64, 96
1, 1112567, Note_on_c, 0, 80, 0
1, 1112567, Note_on_c, 0, 73, 0
1, 1112567, Note_on_c, 0, 76, 0
1, 1112570, Note_on_c, 0, 64, 0
1, 1112570, Note_on_c, 0, 66, 101
1, 1112674, Note_on_c, 0, 73, 93
1, 1112674, Note_on_c, 0, 76, 93
1, 1112674, Note_on_c, 0, 81, 105
1, 1112677, Note_on_c, 0, 66, 0
1, 1112677, Note_on_c, 0, 67, 106
1, 1112732, Control_c, 0, 64, 0
1, 1112732, Control_c, 0, 64, 0
1, 1112781, Note_on_c, 0, 73, 0
1, 1112781, Note_on_c, 0, 81, 0
1, 1112781, Note_on_c, 0, 76, 0
1, 1112784, Note_on_c, 0, 73, 93
1, 1112784, Note_on_c, 0, 76, 93
1, 1112784, Note_on_c, 0, 80, 114
1, 1112787, Note_on_c, 0, 67, 0
1, 1112787, Note_on_c, 0, 68, 111
1, 1112878, Control_c, 0, 64, 127
1, 1112878, Control_c, 0, 64, 127
1, 1112888, Note_on_c, 0, 68, 0
1, 1112888, Note_on_c, 0, 61, 96
1, 1112995, Note_on_c, 0, 80, 0
1, 1112995, Note_on_c, 0, 73, 0
1, 1112995, Note_on_c, 0, 76, 0
1, 1112998, Note_on_c, 0, 61, 0
1, 1112998, Note_on_c, 0, 63, 102
1, 1113102, Note_on_c, 0, 68, 93
1, 1113102, Note_on_c, 0, 73, 93
1, 1113102, Note_on_c, 0, 76, 105
1, 1113105, Note_on_c, 0, 63, 0
1, 1113105, Note_on_c, 0, 64, 108
1, 1113137, Control_c, 0, 64, 0
1, 1113137, Control_c, 0, 64, 0
1, 1113226, Note_on_c, 0, 68, 0
1, 1113226, Note_on_c, 0, 73, 0
1, 1113226, Control_c, 0, 64, 0
1, 1113229, Note_on_c, 0, 76, 0
1, 1113229, Note_on_c, 0, 69, 93
1, 1113229, Note_on_c, 0, 73, 93
1, 1113232, Note_on_c, 0, 64, 0
1, 1113232, Note_on_c, 0, 78, 114
1, 1113232, Control_c, 0, 64, 0
1, 1113235, Note_on_c, 0, 44, 105
1, 1113235, Note_on_c, 0, 56, 105
1, 1113287, Control_c, 0, 64, 127
1, 1113287, Control_c, 0, 64, 127
1, 1113351, Note_on_c, 0, 56, 0
1, 1113351, Note_on_c, 0, 44, 0
1, 1113351, Note_on_c, 0, 63, 96
1, 1113458, Note_on_c, 0, 69, 0
1, 1113458, Note_on_c, 0, 78, 0
1, 1113458, Note_on_c, 0, 73, 0
1, 1113461, Note_on_c, 0, 63, 0
1, 1113461, Note_on_c, 0, 64, 101
1, 1113565, Note_on_c, 0, 71, 93
1, 1113565, Note_on_c, 0, 74, 93
1, 1113565, Note_on_c, 0, 80, 105
1, 1113568, Note_on_c, 0, 64, 0
1, 1113568, Control_c, 0, 64, 0
1, 1113568, Note_on_c, 0, 65, 106
1, 1113571, Control_c, 0, 64, 0
1, 1113672, Note_on_c, 0, 71, 0
1, 1113672, Note_on_c, 0, 80, 0
1, 1113672, Note_on_c, 0, 74, 0
1, 1113675, Note_on_c, 0, 69, 93
1, 1113675, Note_on_c, 0, 73, 93
1, 1113675, Note_on_c, 0, 78, 114
1, 1113678, Note_on_c, 0, 65, 0
1, 1113678, Note_on_c, 0, 66, 111
1, 1113776, Control_c, 0, 64, 127
1, 1113776, Control_c, 0, 64, 127
1, 1113779, Note_on_c, 0, 66, 0
1, 1113779, Note_on_c, 0, 60, 96
1, 1113886, Note_on_c, 0, 78, 0
1, 1113886, Note_on_c, 0, 69, 0
1, 1113886, Note_on_c, 0, 73, 0
1, 1113889, Note_on_c, 0, 60, 0
1, 1113889, Note_on_c, 0, 61, 101
1, 1113993, Note_on_c, 0, 66, 93
1, 1113993, Note_on_c, 0, 69, 93
1, 1113993, Note_on_c, 0, 75, 105
1, 1113996, Note_on_c, 0, 61, 0
1, 1113996, Note_on_c, 0, 63, 106
1, 1114015, Control_c, 0, 64, 0
1, 1114015, Control_c, 0, 64, 0
1, 1114100, Note_on_c, 0, 66, 0
1, 1114100, Note_on_c, 0, 75, 0
1, 1114100, Note_on_c, 0, 69, 0
1, 1114103, Note_on_c, 0, 68, 93
1, 1114103, Note_on_c, 0, 73, 93
1, 1114103, Note_on_c, 0, 76, 114
1, 1114106, Note_on_c, 0, 63, 0
1, 1114106, Note_on_c, 0, 44, 111
1, 1114106, Note_on_c, 0, 56, 111
1, 1114192, Control_c, 0, 64, 127
1, 1114192, Control_c, 0, 64, 127
1, 1114207, Note_on_c, 0, 56, 0
1, 1114207, Note_on_c, 0, 44, 0
1, 1114207, Note_on_c, 0, 61, 96
1, 1114314, Note_on_c, 0, 76, 0
1, 1114314, Note_on_c, 0, 68, 0
1, 1114314, Note_on_c, 0, 73, 0
1, 1114317, Note_on_c, 0, 61, 0
1, 1114317, Note_on_c, 0, 62, 101
1, 1114421, Note_on_c, 0, 69, 93
1, 1114421, Note_on_c, 0, 72, 93
1, 1114421, Note_on_c, 0, 78, 105
1, 1114424, Note_on_c, 0, 62, 0
1, 1114424, Note_on_c, 0, 63, 106
1, 1114468, Control_c, 0, 64, 0
1, 1114468, Control_c, 0, 64, 0
1, 1114528, Note_on_c, 0, 69, 0
1, 1114528, Note_on_c, 0, 78, 0
1, 1114528, Note_on_c, 0, 72, 0
1, 1114531, Note_on_c, 0, 68, 93
1, 1114531, Note_on_c, 0, 73, 93
1, 1114531, Note_on_c, 0, 76, 114
1, 1114534, Note_on_c, 0, 63, 0
1, 1114534, Note_on_c, 0, 64, 111
1, 1114545, Control_c, 0, 64, 0
1, 1114545, Control_c, 0, 64, 0
1, 1114625, Control_c, 0, 64, 127
1, 1114625, Control_c, 0, 64, 127
1, 1114635, Note_on_c, 0, 64, 0
1, 1114635, Note_on_c, 0, 61, 96
1, 1114742, Note_on_c, 0, 76, 0
1, 1114742, Note_on_c, 0, 68, 0
1, 1114742, Note_on_c, 0, 73, 0
1, 1114745, Note_on_c, 0, 61, 0
1, 1114745, Note_on_c, 0, 63, 102
1, 1114844, Control_c, 0, 64, 0
1, 1114844, Control_c, 0, 64, 0
1, 1114849, Note_on_c, 0, 64, 102
1, 1114849, Note_on_c, 0, 68, 102
1, 1114849, Note_on_c, 0, 73, 114
1, 1114852, Note_on_c, 0, 63, 0
1, 1114852, Note_on_c, 0, 64, 108
1, 1114956, Note_on_c, 0, 64, 0
1, 1114956, Note_on_c, 0, 68, 0
1, 1114956, Control_c, 0, 64, 0
1, 1114959, Note_on_c, 0, 73, 0
1, 1114959, Note_on_c, 0, 63, 96
1, 1114959, Note_on_c, 0, 68, 96
1, 1114962, Note_on_c, 0, 72, 115
1, 1114962, Note_on_c, 0, 75, 96
1, 1114962, Control_c, 0, 64, 0
1, 1114965, Note_on_c, 0, 64, 0
1, 1115020, Control_c, 0, 64, 127
1, 1115020, Control_c, 0, 64, 127
1, 1115088, Note_on_c, 0, 51, 99
1, 1115213, Note_on_c, 0, 72, 0
1, 1115213, Note_on_c, 0, 63, 0
1, 1115213, Note_on_c, 0, 68, 0
1, 1115216, Note_on_c, 0, 75, 0
1, 1115216, Note_on_c, 0, 51, 0
1, 1115216, Note_on_c, 0, 53, 101
1, 1115325, Note_on_c, 0, 63, 91
1, 1115325, Note_on_c, 0, 69, 91
1, 1115325, Note_on_c, 0, 72, 102
1, 1115328, Note_on_c, 0, 53, 0
1, 1115328, Note_on_c, 0, 75, 105
1, 1115328, Note_on_c, 0, 54, 103
1, 1115432, Note_on_c, 0, 63, 0
1, 1115432, Note_on_c, 0, 72, 0
1, 1115432, Note_on_c, 0, 69, 0
1, 1115435, Note_on_c, 0, 75, 0
1, 1115435, Note_on_c, 0, 63, 92
1, 1115435, Note_on_c, 0, 70, 92
1, 1115438, Note_on_c, 0, 54, 0
1, 1115438, Note_on_c, 0, 73, 112
1, 1115438, Note_on_c, 0, 75, 92
1, 1115441, Note_on_c, 0, 55, 105
1, 1115444, Control_c, 0, 64, 0
1, 1115444, Control_c, 0, 64, 0
1, 1115536, Control_c, 0, 64, 127
1, 1115536, Control_c, 0, 64, 127
1, 1115539, Note_on_c, 0, 55, 0
1, 1115539, Note_on_c, 0, 58, 107
1, 1115646, Note_on_c, 0, 63, 0
1, 1115646, Note_on_c, 0, 73, 0
1, 1115646, Note_on_c, 0, 70, 0
1, 1115649, Note_on_c, 0, 75, 0
1, 1115649, Note_on_c, 0, 58, 0
1, 1115649, Note_on_c, 0, 60, 109
1, 1115753, Note_on_c, 0, 63, 95
1, 1115753, Note_on_c, 0, 67, 95
1, 1115753, Note_on_c, 0, 70, 108
1, 1115756, Note_on_c, 0, 60, 0
1, 1115756, Note_on_c, 0, 75, 109
1, 1115756, Note_on_c, 0, 61, 111
1, 1115860, Note_on_c, 0, 63, 0
1, 1115860, Note_on_c, 0, 67, 0
1, 1115860, Control_c, 0, 64, 0
1, 1115863, Note_on_c, 0, 70, 0
1, 1115863, Note_on_c, 0, 75, 0
1, 1115863, Note_on_c, 0, 63, 97
1, 1115866, Note_on_c, 0, 68, 97
1, 1115866, Note_on_c, 0, 72, 117
1, 1115866, Note_on_c, 0, 75, 97
1, 1115869, Note_on_c, 0, 61, 0
1, 1115869, Control_c, 0, 64, 0
1, 1115869, Note_on_c, 0, 60, 113
1, 1115974, Control_c, 0, 64, 127
1, 1115974, Control_c, 0, 64, 127
1, 1115992, Note_on_c, 0, 60, 0
1, 1115992, Note_on_c, 0, 36, 117
1, 1115992, Note_on_c, 0, 48, 105
1, 1116099, Note_on_c, 0, 63, 0
1, 1116099, Note_on_c, 0, 72, 0
1, 1116099, Note_on_c, 0, 68, 0
1, 1116102, Note_on_c, 0, 75, 0
1, 1116102, Note_on_c, 0, 36, 0
1, 1116102, Note_on_c, 0, 48, 0
1, 1116105, Note_on_c, 0, 37, 117
1, 1116105, Note_on_c, 0, 49, 110
1, 1116206, Note_on_c, 0, 65, 100
1, 1116206, Note_on_c, 0, 68, 100
1, 1116206, Note_on_c, 0, 71, 114
1, 1116209, Note_on_c, 0, 49, 0
1, 1116209, Note_on_c, 0, 37, 0
1, 1116209, Note_on_c, 0, 77, 117
1, 1116212, Note_on_c, 0, 38, 117
1, 1116212, Note_on_c, 0, 50, 115
1, 1116313, Note_on_c, 0, 68, 0
1, 1116313, Note_on_c, 0, 71, 0
1, 1116313, Note_on_c, 0, 65, 0
1, 1116316, Note_on_c, 0, 77, 0
1, 1116316, Note_on_c, 0, 66, 101
1, 1116316, Note_on_c, 0, 68, 101
1, 1116319, Note_on_c, 0, 38, 0
1, 1116319, Note_on_c, 0, 72, 117
1, 1116319, Note_on_c, 0, 78, 101
1, 1116322, Note_on_c, 0, 50, 0
1, 1116322, Note_on_c, 0, 39, 117
1, 1116322, Note_on_c, 0, 51, 117
1, 1116337, Control_c, 0, 64, 0
1, 1116337, Control_c, 0, 64, 0
1, 1116449, Control_c, 0, 64, 127
1, 1116449, Control_c, 0, 64, 127
1, 1116463, Note_on_c, 0, 51, 0
1, 1116463, Note_on_c, 0, 39, 0
1, 1116463, Note_on_c, 0, 56, 117
1, 1116570, Note_on_c, 0, 68, 0
1, 1116570, Note_on_c, 0, 72, 0
1, 1116570, Note_on_c, 0, 66, 0
1, 1116573, Note_on_c, 0, 78, 0
1, 1116573, Note_on_c, 0, 56, 0
1, 1116573, Note_on_c, 0, 58, 117
1, 1116677, Note_on_c, 0, 66, 96
1, 1116677, Note_on_c, 0, 68, 96
1, 1116677, Note_on_c, 0, 75, 117
1, 1116680, Note_on_c, 0, 58, 0
1, 1116680, Note_on_c, 0, 60, 117
1, 1116785, Control_c, 0, 64, 0
1, 1116785, Control_c, 0, 64, 0
1, 1116849, Note_on_c, 0, 66, 0
1, 1116849, Note_on_c, 0, 75, 0
1, 1116849, Note_on_c, 0, 68, 0
1, 1116852, Note_on_c, 0, 73, 100
1, 1116852, Note_on_c, 0, 76, 100
1, 1116852, Note_on_c, 0, 80, 100
1, 1116855, Note_on_c, 0, 60, 0
1, 1116855, Note_on_c, 0, 85, 117
1, 1116855, Note_on_c, 0, 49, 105
1, 1116858, Note_on_c, 0, 61, 105
1, 1116934, Control_c, 0, 64, 127
1, 1116934, Control_c, 0, 64, 127
1, 1117022, Note_on_c, 0, 61, 0
1, 1117022, Note_on_c, 0, 49, 0
1, 1117022, Note_on_c, 0, 64, 96
1, 1117154, Note_on_c, 0, 80, 0
1, 1117154, Note_on_c, 0, 73, 0
1, 1117154, Note_on_c, 0, 76, 0
1, 1117157, Note_on_c, 0, 85, 0
1, 1117157, Note_on_c, 0, 64, 0
1, 1117157, Note_on_c, 0, 66, 101
1, 1117279, Note_on_c, 0, 73, 93
1, 1117279, Note_on_c, 0, 76, 93
1, 1117279, Note_on_c, 0, 81, 93
1, 1117282, Note_on_c, 0, 66, 0
1, 1117282, Note_on_c, 0, 85, 105
1, 1117282, Note_on_c, 0, 67, 106
1, 1117299, Control_c, 0, 64, 0
1, 1117299, Control_c, 0, 64, 0
1, 1117386, Note_on_c, 0, 73, 0
1, 1117386, Note_on_c, 0, 81, 0
1, 1117386, Note_on_c, 0, 76, 0
1, 1117389, Note_on_c, 0, 85, 0
1, 1117389, Note_on_c, 0, 73, 93
1, 1117389, Note_on_c, 0, 76, 93
1, 1117392, Note_on_c, 0, 67, 0
1, 1117392, Note_on_c, 0, 80, 93
1, 1117392, Note_on_c, 0, 85, 114
1, 1117395, Note_on_c, 0, 68, 111
1, 1117490, Control_c, 0, 64, 127
1, 1117490, Control_c, 0, 64, 127
1, 1117493, Note_on_c, 0, 68, 0
1, 1117493, Note_on_c, 0, 61, 96
1, 1117600, Note_on_c, 0, 73, 0
1, 1117600, Note_on_c, 0, 80, 0
1, 1117600, Note_on_c, 0, 76, 0
1, 1117603, Note_on_c, 0, 85, 0
1, 1117603, Note_on_c, 0, 61, 0
1, 1117603, Note_on_c, 0, 62, 101
1, 1117707, Note_on_c, 0, 69, 93
1, 1117707, Note_on_c, 0, 72, 93
1, 1117707, Note_on_c, 0, 78, 93
1, 1117710, Note_on_c, 0, 62, 0
1, 1117710, Note_on_c, 0, 81, 105
1, 1117710, Note_on_c, 0, 63, 106
1, 1117729, Control_c, 0, 64, 0
1, 1117729, Control_c, 0, 64, 0
1, 1117814, Note_on_c, 0, 69, 0
1, 1117814, Note_on_c, 0, 72, 0
1, 1117814, Control_c, 0, 64, 0
1, 1117817, Note_on_c, 0, 78, 0
1, 1117817, Note_on_c, 0, 81, 0
1, 1117817, Note_on_c, 0, 68, 93
1, 1117820, Note_on_c, 0, 73, 93
1, 1117820, Note_on_c, 0, 76, 93
1, 1117820, Note_on_c, 0, 80, 114
1, 1117823, Note_on_c, 0, 63, 0
1, 1117823, Control_c, 0, 64, 0
1, 1117823, Note_on_c, 0, 64, 111
1, 1117906, Control_c, 0, 64, 127
1, 1117906, Control_c, 0, 64, 127
1, 1117921, Note_on_c, 0, 64, 0
1, 1117921, Note_on_c, 0, 56, 96
1, 1118028, Note_on_c, 0, 68, 0
1, 1118028, Note_on_c, 0, 76, 0
1, 1118028, Note_on_c, 0, 73, 0
1, 1118031, Note_on_c, 0, 80, 0
1, 1118031, Note_on_c, 0, 56, 0
1, 1118031, Note_on_c, 0, 58, 101
1, 1118135, Note_on_c, 0, 66, 93
1, 1118135, Note_on_c, 0, 69, 93
1, 1118135, Note_on_c, 0, 75, 93
1, 1118138, Note_on_c, 0, 58, 0
1, 1118138, Note_on_c, 0, 78, 105
1, 1118138, Note_on_c, 0, 60, 106
1, 1118176, Control_c, 0, 64, 0
1, 1118176, Control_c, 0, 64, 0
1, 1118242, Note_on_c, 0, 66, 0
1, 1118242, Note_on_c, 0, 75, 0
1, 1118242, Note_on_c, 0, 69, 0
1, 1118245, Note_on_c, 0, 78, 0
1, 1118245, Note_on_c, 0, 64, 84
1, 1118245, Note_on_c, 0, 68, 84
1, 1118248, Note_on_c, 0, 60, 0
1, 1118248, Note_on_c, 0, 73, 84
1, 1118248, Note_on_c, 0, 76, 105
1, 1118251, Note_on_c, 0, 61, 111
1, 1118259, Control_c, 0, 64, 0
1, 1118259, Control_c, 0, 64, 0
1, 1118339, Control_c, 0, 64, 127
1, 1118339, Control_c, 0, 64, 127
1, 1118349, Note_on_c, 0, 61, 0
1, 1118349, Note_on_c, 0, 52, 87
1, 1118456, Note_on_c, 0, 64, 0
1, 1118456, Note_on_c, 0, 73, 0
1, 1118456, Note_on_c, 0, 68, 0
1, 1118459, Note_on_c, 0, 76, 0
1, 1118459, Note_on_c, 0, 52, 0
1, 1118459, Note_on_c, 0, 54, 93
1, 1118558, Control_c, 0, 64, 0
1, 1118558, Control_c, 0, 64, 0
1, 1118563, Note_on_c, 0, 62, 89
1, 1118563, Note_on_c, 0, 65, 89
1, 1118563, Note_on_c, 0, 71, 101
1, 1118566, Note_on_c, 0, 54, 0
1, 1118566, Note_on_c, 0, 74, 89
1, 1118566, Note_on_c, 0, 56, 99
1, 1118688, Note_on_c, 0, 62, 0
1, 1118688, Note_on_c, 0, 71, 0
1, 1118688, Note_on_c, 0, 65, 0
1, 1118691, Note_on_c, 0, 74, 0
1, 1118691, Note_on_c, 0, 61, 85
1, 1118691, Note_on_c, 0, 64, 85
1, 1118694, Note_on_c, 0, 56, 0
1, 1118694, Note_on_c, 0, 69, 85
1, 1118694, Note_on_c, 0, 73, 103
1, 1118697, Note_on_c, 0, 57, 91
1, 1118740, Control_c, 0, 64, 127
1, 1118740, Control_c, 0, 64, 127
1, 1118753, Note_on_c, 0, 57, 0
1, 1118795, Note_on_c, 0, 49, 85
1, 1118860, Note_on_c, 0, 61, 0
1, 1118860, Note_on_c, 0, 69, 0
1, 1118860, Note_on_c, 0, 64, 0
1, 1118863, Note_on_c, 0, 73, 0
1, 1118863, Note_on_c, 0, 49, 0
1, 1118902, Note_on_c, 0, 50, 90
1, 1118967, Note_on_c, 0, 50, 0
1, 1119009, Note_on_c, 0, 60, 92
1, 1119009, Note_on_c, 0, 66, 92
1, 1119009, Note_on_c, 0, 69, 92
1, 1119012, Note_on_c, 0, 72, 103
1, 1119012, Control_c, 0, 64, 0
1, 1119012, Note_on_c, 0, 51, 96
1, 1119015, Control_c, 0, 64, 0
1, 1119074, Note_on_c, 0, 69, 0
1, 1119074, Note_on_c, 0, 60, 0
1, 1119074, Note_on_c, 0, 66, 0
1, 1119077, Note_on_c, 0, 72, 0
1, 1119077, Note_on_c, 0, 51, 0
1, 1119115, Note_on_c, 0, 61, 88
1, 1119115, Note_on_c, 0, 64, 88
1, 1119115, Note_on_c, 0, 69, 88
1, 1119118, Note_on_c, 0, 73, 108
1, 1119118, Note_on_c, 0, 52, 102
1, 1119181, Note_on_c, 0, 52, 0
1, 1119220, Control_c, 0, 64, 127
1, 1119220, Control_c, 0, 64, 127
1, 1119220, Note_on_c, 0, 44, 90
1, 1119288, Note_on_c, 0, 61, 0
1, 1119288, Note_on_c, 0, 69, 0
1, 1119288, Note_on_c, 0, 64, 0
1, 1119291, Note_on_c, 0, 73, 0
1, 1119291, Note_on_c, 0, 44, 0
1, 1119329, Note_on_c, 0, 45, 96
1, 1119387, Control_c, 0, 64, 0
1, 1119387, Control_c, 0, 64, 0
1, 1119395, Note_on_c, 0, 45, 0
1, 1119436, Note_on_c, 0, 56, 91
1, 1119436, Note_on_c, 0, 62, 91
1, 1119436, Note_on_c, 0, 65, 91
1, 1119439, Note_on_c, 0, 68, 103
1, 1119439, Note_on_c, 0, 47, 102
1, 1119502, Note_on_c, 0, 65, 0
1, 1119502, Note_on_c, 0, 56, 0
1, 1119502, Note_on_c, 0, 62, 0
1, 1119505, Note_on_c, 0, 68, 0
1, 1119505, Note_on_c, 0, 47, 0
1, 1119543, Control_c, 0, 64, 0
1, 1119543, Note_on_c, 0, 57, 92
1, 1119543, Note_on_c, 0, 64, 92
1, 1119546, Note_on_c, 0, 69, 112
1, 1119546, Control_c, 0, 64, 0
1, 1119546, Note_on_c, 0, 49, 108
1, 1119609, Note_on_c, 0, 49, 0
1, 1119636, Control_c, 0, 64, 127
1, 1119636, Control_c, 0, 64, 127
1, 1119650, Note_on_c, 0, 40, 95
1, 1119716, Note_on_c, 0, 57, 0
1, 1119716, Note_on_c, 0, 69, 0
1, 1119716, Note_on_c, 0, 64, 0
1, 1119719, Note_on_c, 0, 40, 0
1, 1119757, Note_on_c, 0, 42, 101
1, 1119822, Note_on_c, 0, 42, 0
1, 1119846, Control_c, 0, 64, 0
1, 1119846, Control_c, 0, 64, 0
1, 1119864, Note_on_c, 0, 54, 95
1, 1119864, Note_on_c, 0, 59, 95
1, 1119864, Note_on_c, 0, 62, 95
1, 1119867, Note_on_c, 0, 66, 107
1, 1119867, Note_on_c, 0, 44, 107
1, 1119929, Note_on_c, 0, 62, 0
1, 1119929, Note_on_c, 0, 54, 0
1, 1119929, Note_on_c, 0, 59, 0
1, 1119932, Note_on_c, 0, 66, 0
1, 1119932, Note_on_c, 0, 44, 0
1, 1119971, Note_on_c, 0, 52, 96
1, 1119971, Note_on_c, 0, 61, 96
1, 1119971, Note_on_c, 0, 64, 117
1, 1119974, Note_on_c, 0, 45, 114
1, 1119988, Control_c, 0, 64, 0
1, 1119988, Control_c, 0, 64, 0
1, 1120036, Note_on_c, 0, 45, 0
1, 1120068, Control_c, 0, 64, 127
1, 1120068, Control_c, 0, 64, 127
1, 1120078, Note_on_c, 0, 44, 100
1, 1120143, Note_on_c, 0, 52, 0
1, 1120143, Note_on_c, 0, 64, 0
1, 1120143, Note_on_c, 0, 61, 0
1, 1120146, Note_on_c, 0, 44, 0
1, 1120185, Note_on_c, 0, 45, 108
1, 1120246, Control_c, 0, 64, 0
1, 1120246, Control_c, 0, 64, 0
1, 1120250, Note_on_c, 0, 45, 0
1, 1120292, Note_on_c, 0, 55, 99
1, 1120292, Note_on_c, 0, 61, 99
1, 1120292, Note_on_c, 0, 64, 112
1, 1120295, Note_on_c, 0, 46, 116
1, 1120368, Note_on_c, 0, 64, 0
1, 1120368, Note_on_c, 0, 55, 0
1, 1120368, Note_on_c, 0, 61, 0
1, 1120371, Note_on_c, 0, 46, 0
1, 1120417, Control_c, 0, 64, 0
1, 1120417, Note_on_c, 0, 56, 93
1, 1120417, Note_on_c, 0, 59, 93
1, 1120420, Note_on_c, 0, 64, 114
1, 1120420, Control_c, 0, 64, 0
1, 1120420, Note_on_c, 0, 47, 93
1, 1120497, Note_on_c, 0, 59, 0
1, 1120497, Note_on_c, 0, 56, 0
1, 1120549, Note_on_c, 0, 56, 81
1, 1120614, Note_on_c, 0, 56, 0
1, 1120614, Note_on_c, 0, 64, 0
1, 1120614, Note_on_c, 0, 47, 0
1, 1120656, Note_on_c, 0, 57, 82
1, 1120721, Note_on_c, 0, 57, 0
1, 1120763, Note_on_c, 0, 61, 86
1, 1120763, Note_on_c, 0, 58, 83
1, 1120763, Note_on_c, 0, 52, 81
1, 1120766, Note_on_c, 0, 55, 91
1, 1120828, Note_on_c, 0, 52, 0
1, 1120828, Note_on_c, 0, 61, 0
1, 1120828, Note_on_c, 0, 58, 0
1, 1120831, Note_on_c, 0, 55, 0
1, 1120870, Note_on_c, 0, 66, 97
1, 1120870, Note_on_c, 0, 59, 85
1, 1120870, Note_on_c, 0, 51, 82
1, 1120873, Note_on_c, 0, 54, 92
1, 1120935, Note_on_c, 0, 59, 0
1, 1120977, Note_on_c, 0, 54, 85
1, 1121042, Note_on_c, 0, 54, 0
1, 1121042, Note_on_c, 0, 66, 0
1, 1121042, Note_on_c, 0, 51, 0
1, 1121045, Note_on_c, 0, 54, 0
1, 1121084, Note_on_c, 0, 55, 86
1, 1121149, Note_on_c, 0, 55, 0
1, 1121191, Note_on_c, 0, 59, 91
1, 1121191, Note_on_c, 0, 56, 88
1, 1121191, Note_on_c, 0, 50, 85
1, 1121194, Note_on_c, 0, 53, 95
1, 1121256, Note_on_c, 0, 50, 0
1, 1121256, Note_on_c, 0, 59, 0
1, 1121256, Note_on_c, 0, 56, 0
1, 1121259, Note_on_c, 0, 53, 0
1, 1121298, Note_on_c, 0, 64, 101
1, 1121298, Note_on_c, 0, 57, 89
1, 1121298, Note_on_c, 0, 49, 86
1, 1121301, Note_on_c, 0, 52, 96
1, 1121363, Note_on_c, 0, 57, 0
1, 1121405, Note_on_c, 0, 56, 90
1, 1121470, Note_on_c, 0, 56, 0
1, 1121470, Note_on_c, 0, 64, 0
1, 1121470, Note_on_c, 0, 49, 0
1, 1121473, Note_on_c, 0, 52, 0
1, 1121512, Note_on_c, 0, 57, 91
1, 1121577, Note_on_c, 0, 57, 0
1, 1121619, Note_on_c, 0, 67, 95
1, 1121619, Note_on_c, 0, 58, 92
1, 1121619, Note_on_c, 0, 48, 89
1, 1121622, Note_on_c, 0, 52, 100
1, 1121684, Note_on_c, 0, 48, 0
1, 1121684, Note_on_c, 0, 67, 0
1, 1121684, Note_on_c, 0, 58, 0
1, 1121687, Note_on_c, 0, 52, 0
1, 1121726, Note_on_c, 0, 68, 105
1, 1121726, Note_on_c, 0, 59, 93
1, 1121726, Note_on_c, 0, 47, 89
1, 1121729, Note_on_c, 0, 51, 101
1, 1121791, Note_on_c, 0, 59, 0
1, 1121833, Note_on_c, 0, 58, 94
1, 1121898, Note_on_c, 0, 58, 0
1, 1121898, Note_on_c, 0, 68, 0
1, 1121898, Note_on_c, 0, 47, 0
1, 1121901, Note_on_c, 0, 51, 0
1, 1121940, Note_on_c, 0, 59, 95
1, 1122005, Note_on_c, 0, 59, 0
1, 1122047, Note_on_c, 0, 66, 100
1, 1122047, Note_on_c, 0, 63, 97
1, 1122047, Note_on_c, 0, 45, 104
1, 1122050, Note_on_c, 0, 47, 92
1, 1122050, Note_on_c, 0, 57, 92
1, 1122112, Note_on_c, 0, 45, 0
1, 1122112, Note_on_c, 0, 66, 0
1, 1122112, Note_on_c, 0, 63, 0
1, 1122115, Note_on_c, 0, 47, 0
1, 1122115, Note_on_c, 0, 57, 0
1, 1122154, Control_c, 0, 64, 0
1, 1122154, Note_on_c, 0, 64, 98
1, 1122154, Note_on_c, 0, 71, 110
1, 1122157, Control_c, 0, 64, 0
1, 1122157, Control_c, 0, 64, 0
1, 1122157, Control_c, 0, 64, 0
1, 1122160, Note_on_c, 0, 44, 106
1, 1122160, Note_on_c, 0, 47, 94
1, 1122160, Note_on_c, 0, 56, 94
1, 1122261, Note_on_c, 0, 64, 0
1, 1122261, Note_on_c, 0, 63, 99
1, 1122368, Note_on_c, 0, 63, 0
1, 1122368, Note_on_c, 0, 71, 0
1, 1122368, Note_on_c, 0, 64, 100
1, 1122371, Note_on_c, 0, 47, 0
1, 1122371, Note_on_c, 0, 56, 0
1, 1122371, Note_on_c, 0, 44, 0
1, 1122475, Note_on_c, 0, 64, 0
1, 1122475, Note_on_c, 0, 75, 113
1, 1122475, Note_on_c, 0, 69, 101
1, 1122478, Note_on_c, 0, 42, 109
1, 1122478, Note_on_c, 0, 47, 97
1, 1122478, Note_on_c, 0, 54, 97
1, 1122582, Note_on_c, 0, 69, 0
1, 1122582, Note_on_c, 0, 75, 0
1, 1122582, Note_on_c, 0, 76, 117
1, 1122585, Note_on_c, 0, 47, 0
1, 1122585, Note_on_c, 0, 42, 0
1, 1122585, Note_on_c, 0, 68, 102
1, 1122588, Note_on_c, 0, 54, 0
1, 1122588, Note_on_c, 0, 40, 110
1, 1122588, Note_on_c, 0, 47, 97
1, 1122591, Note_on_c, 0, 52, 97
1, 1122689, Note_on_c, 0, 68, 0
1, 1122689, Note_on_c, 0, 67, 103
1, 1122795, Note_on_c, 0, 67, 0
1, 1122795, Note_on_c, 0, 76, 0
1, 1122795, Note_on_c, 0, 68, 104
1, 1122798, Note_on_c, 0, 47, 0
1, 1122798, Note_on_c, 0, 52, 0
1, 1122798, Note_on_c, 0, 40, 0
1, 1122902, Note_on_c, 0, 68, 0
1, 1122902, Note_on_c, 0, 76, 106
1, 1122902, Note_on_c, 0, 80, 117
1, 1122905, Note_on_c, 0, 71, 106
1, 1122905, Note_on_c, 0, 38, 114
1, 1122905, Note_on_c, 0, 40, 100
1, 1122908, Note_on_c, 0, 50, 100
1, 1123009, Note_on_c, 0, 80, 0
1, 1123009, Note_on_c, 0, 76, 0
1, 1123009, Note_on_c, 0, 76, 107
1, 1123012, Note_on_c, 0, 71, 0
1, 1123012, Note_on_c, 0, 81, 117
1, 1123012, Note_on_c, 0, 69, 107
1, 1123015, Note_on_c, 0, 50, 0
1, 1123015, Note_on_c, 0, 38, 0
1, 1123015, Note_on_c, 0, 40, 0
1, 1123018, Note_on_c, 0, 37, 115
1, 1123018, Note_on_c, 0, 40, 101
1, 1123018, Note_on_c, 0, 49, 101
1, 1123120, Control_c, 0, 64, 127
1, 1123120, Control_c, 0, 64, 127
1, 1123120, Control_c, 0, 64, 127
1, 1123170, Note_on_c, 0, 76, 0
1, 1123170, Note_on_c, 0, 81, 0
1, 1123170, Note_on_c, 0, 80, 117
1, 1123173, Note_on_c, 0, 69, 0
1, 1123173, Note_on_c, 0, 68, 107
1, 1123277, Note_on_c, 0, 68, 0
1, 1123277, Note_on_c, 0, 80, 0
1, 1123277, Note_on_c, 0, 81, 117
1, 1123280, Note_on_c, 0, 37, 0
1, 1123280, Note_on_c, 0, 40, 0
1, 1123280, Note_on_c, 0, 69, 109
1, 1123283, Note_on_c, 0, 49, 0
1, 1123384, Note_on_c, 0, 81, 0
1, 1123384, Note_on_c, 0, 81, 110
1, 1123384, Note_on_c, 0, 85, 117
1, 1123387, Note_on_c, 0, 69, 0
1, 1123387, Note_on_c, 0, 73, 110
1, 1123387, Note_on_c, 0, 33, 117
1, 1123390, Note_on_c, 0, 45, 104
1, 1123514, Note_on_c, 0, 45, 0
1, 1123514, Note_on_c, 0, 73, 0
1, 1123514, Note_on_c, 0, 81, 0
1, 1123514, Note_on_c, 0, 85, 0
1, 1123514, Note_on_c, 0, 33, 0
1, 1123514, Control_c, 0, 64, 0
1, 1123514, Note_on_c, 0, 80, 111
1, 1123514, Note_on_c, 0, 88, 117
1, 1123514, Note_on_c, 0, 76, 111
1, 1123514, Control_c, 0, 64, 0
1, 1123514, Control_c, 0, 64, 0
1, 1123514, Note_on_c, 0, 28, 117
1, 1123514, Note_on_c, 0, 40, 105
1, 1123616, Control_c, 0, 64, 127
1, 1123616, Control_c, 0, 64, 127
1, 1123892, Control_c, 0, 64, 0
1, 1123892, Control_c, 0, 64, 0
1, 1123967, Note_on_c, 0, 40, 0
1, 1123967, Note_on_c, 0, 28, 0
1, 1123993, Note_on_c, 0, 80, 0
1, 1123993, Note_on_c, 0, 88, 0
1, 1123993, Note_on_c, 0, 76, 0
1, 1124045, Note_on_c, 0, 72, 93
1, 1124045, Note_on_c, 0, 75, 93
1, 1124045, Note_on_c, 0, 78, 93
1, 1124048, Note_on_c, 0, 81, 114
1, 1124048, Note_on_c, 0, 44, 105
1, 1124048, Note_on_c, 0, 56, 105
1, 1124123, Control_c, 0, 64, 127
1, 1124123, Control_c, 0, 64, 127
1, 1124205, Note_on_c, 0, 56, 0
1, 1124205, Note_on_c, 0, 44, 0
1, 1124205, Note_on_c, 0, 66, 96
1, 1124312, Note_on_c, 0, 72, 0
1, 1124312, Note_on_c, 0, 78, 0
1, 1124312, Note_on_c, 0, 75, 0
1, 1124315, Note_on_c, 0, 81, 0
1, 1124315, Note_on_c, 0, 66, 0
1, 1124315, Note_on_c, 0, 67, 101
1, 1124333, Control_c, 0, 64, 127
1, 1124333, Control_c, 0, 64, 127
1, 1124419, Note_on_c, 0, 74, 93
1, 1124419, Note_on_c, 0, 77, 93
1, 1124419, Note_on_c, 0, 83, 105
1, 1124422, Note_on_c, 0, 67, 0
1, 1124422, Note_on_c, 0, 68, 106
1, 1124526, Note_on_c, 0, 74, 0
1, 1124526, Note_on_c, 0, 83, 0
1, 1124526, Note_on_c, 0, 77, 0
1, 1124529, Note_on_c, 0, 73, 93
1, 1124529, Note_on_c, 0, 76, 93
1, 1124529, Note_on_c, 0, 81, 113
1, 1124532, Note_on_c, 0, 68, 0
1, 1124532, Note_on_c, 0, 69, 111
1, 1124538, Control_c, 0, 64, 0
1, 1124538, Control_c, 0, 64, 0
1, 1124630, Control_c, 0, 64, 127
1, 1124630, Control_c, 0, 64, 127
1, 1124633, Note_on_c, 0, 69, 0
1, 1124633, Note_on_c, 0, 63, 96
1, 1124740, Note_on_c, 0, 81, 0
1, 1124740, Note_on_c, 0, 73, 0
1, 1124740, Note_on_c, 0, 76, 0
1, 1124743, Note_on_c, 0, 63, 0
1, 1124743, Note_on_c, 0, 64, 101
1, 1124790, Control_c, 0, 64, 0
1, 1124790, Control_c, 0, 64, 0
1, 1124847, Note_on_c, 0, 71, 93
1, 1124847, Note_on_c, 0, 74, 93
1, 1124847, Note_on_c, 0, 80, 105
1, 1124850, Note_on_c, 0, 64, 0
1, 1124850, Note_on_c, 0, 65, 106
1, 1124954, Note_on_c, 0, 71, 0
1, 1124954, Note_on_c, 0, 80, 0
1, 1124954, Note_on_c, 0, 74, 0
1, 1124957, Note_on_c, 0, 69, 93
1, 1124957, Note_on_c, 0, 73, 93
1, 1124957, Note_on_c, 0, 78, 113
1, 1124960, Note_on_c, 0, 65, 0
1, 1124960, Note_on_c, 0, 66, 111
1, 1125046, Control_c, 0, 64, 127
1, 1125046, Control_c, 0, 64, 127
1, 1125061, Note_on_c, 0, 66, 0
1, 1125061, Note_on_c, 0, 60, 96
1, 1125168, Note_on_c, 0, 78, 0
1, 1125168, Note_on_c, 0, 69, 0
1, 1125168, Note_on_c, 0, 73, 0
1, 1125171, Note_on_c, 0, 60, 0
1, 1125171, Note_on_c, 0, 61, 101
1, 1125250, Control_c, 0, 64, 0
1, 1125250, Control_c, 0, 64, 0
1, 1125275, Note_on_c, 0, 66, 93
1, 1125275, Note_on_c, 0, 69, 93
1, 1125275, Note_on_c, 0, 73, 105
1, 1125278, Note_on_c, 0, 61, 0
1, 1125278, Note_on_c, 0, 62, 106
1, 1125382, Note_on_c, 0, 66, 0
1, 1125382, Note_on_c, 0, 73, 0
1, 1125382, Note_on_c, 0, 69, 0
1, 1125385, Note_on_c, 0, 66, 93
1, 1125385, Note_on_c, 0, 69, 93
1, 1125385, Note_on_c, 0, 72, 113
1, 1125388, Note_on_c, 0, 62, 0
1, 1125388, Note_on_c, 0, 63, 111
1, 1125479, Control_c, 0, 64, 127
1, 1125479, Control_c, 0, 64, 127
1, 1125489, Note_on_c, 0, 63, 0
1, 1125489, Note_on_c, 0, 56, 96
1, 1125596, Note_on_c, 0, 72, 0
1, 1125596, Note_on_c, 0, 66, 0
1, 1125596, Note_on_c, 0, 69, 0
1, 1125599, Note_on_c, 0, 56, 0
1, 1125599, Note_on_c, 0, 58, 102
1, 1125637, Control_c, 0, 64, 0
1, 1125637, Control_c, 0, 64, 0
1, 1125703, Note_on_c, 0, 66, 93
1, 1125703, Note_on_c, 0, 68, 93
1, 1125703, Note_on_c, 0, 75, 105
1, 1125706, Note_on_c, 0, 58, 0
1, 1125706, Note_on_c, 0, 60, 108
1, 1125781, Control_c, 0, 64, 0
1, 1125781, Control_c, 0, 64, 0
1, 1125827, Note_on_c, 0, 66, 0
1, 1125827, Note_on_c, 0, 68, 0
1, 1125827, Control_c, 0, 64, 0
1, 1125830, Note_on_c, 0, 75, 0
1, 1125830, Note_on_c, 0, 64, 99
1, 1125830, Note_on_c, 0, 68, 99
1, 1125833, Note_on_c, 0, 73, 99
1, 1125833, Note_on_c, 0, 76, 113
1, 1125833, Control_c, 0, 64, 0
1, 1125836, Note_on_c, 0, 60, 0
1, 1125836, Note_on_c, 0, 44, 105
1, 1125836, Note_on_c, 0, 56, 105
1, 1125906, Control_c, 0, 64, 127
1, 1125906, Control_c, 0, 64, 127
1, 1125988, Note_on_c, 0, 56, 0
1, 1125988, Note_on_c, 0, 44, 0
1, 1125988, Note_on_c, 0, 64, 96
1, 1126087, Control_c, 0, 64, 127
1, 1126087, Control_c, 0, 64, 127
1, 1126095, Note_on_c, 0, 64, 0
1, 1126095, Note_on_c, 0, 73, 0
1, 1126095, Note_on_c, 0, 68, 0
1, 1126098, Note_on_c, 0, 76, 0
1, 1126098, Note_on_c, 0, 64, 0
1, 1126098, Note_on_c, 0, 66, 101
1, 1126202, Note_on_c, 0, 73, 93
1, 1126202, Note_on_c, 0, 76, 93
1, 1126202, Note_on_c, 0, 81, 105
1, 1126205, Note_on_c, 0, 66, 0
1, 1126205, Note_on_c, 0, 67, 106
1, 1126281, Control_c, 0, 64, 0
1, 1126281, Control_c, 0, 64, 0
1, 1126309, Note_on_c, 0, 73, 0
1, 1126309, Note_on_c, 0, 81, 0
1, 1126309, Note_on_c, 0, 76, 0
1, 1126312, Note_on_c, 0, 73, 93
1, 1126312, Note_on_c, 0, 76, 93
1, 1126312, Note_on_c, 0, 80, 114
1, 1126315, Note_on_c, 0, 67, 0
1, 1126315, Note_on_c, 0, 68, 111
1, 1126413, Control_c, 0, 64, 127
1, 1126413, Control_c, 0, 64, 127
1, 1126416, Note_on_c, 0, 68, 0
1, 1126416, Note_on_c, 0, 61, 96
1, 1126523, Note_on_c, 0, 80, 0
1, 1126523, Note_on_c, 0, 73, 0
1, 1126523, Note_on_c, 0, 76, 0
1, 1126526, Note_on_c, 0, 61, 0
1, 1126526, Note_on_c, 0, 62, 101
1, 1126544, Control_c, 0, 64, 0
1, 1126544, Control_c, 0, 64, 0
1, 1126630, Note_on_c, 0, 69, 93
1, 1126630, Note_on_c, 0, 72, 93
1, 1126630, Note_on_c, 0, 78, 105
1, 1126633, Note_on_c, 0, 62, 0
1, 1126633, Note_on_c, 0, 63, 106
1, 1126754, Note_on_c, 0, 69, 0
1, 1126754, Note_on_c, 0, 78, 0
1, 1126754, Note_on_c, 0, 72, 0
1, 1126757, Note_on_c, 0, 68, 93
1, 1126757, Note_on_c, 0, 73, 93
1, 1126757, Note_on_c, 0, 76, 114
1, 1126760, Note_on_c, 0, 63, 0
1, 1126760, Note_on_c, 0, 64, 111
1, 1126869, Control_c, 0, 64, 127
1, 1126869, Control_c, 0, 64, 127
1, 1126887, Note_on_c, 0, 64, 0
1, 1126887, Note_on_c, 0, 56, 96
1, 1126994, Note_on_c, 0, 76, 0
1, 1126994, Note_on_c, 0, 68, 0
1, 1126994, Note_on_c, 0, 73, 0
1, 1126997, Note_on_c, 0, 56, 0
1, 1126997, Note_on_c, 0, 58, 101
1, 1127059, Control_c, 0, 64, 0
1, 1127059, Control_c, 0, 64, 0
1, 1127101, Note_on_c, 0, 66, 93
1, 1127101, Note_on_c, 0, 69, 93
1, 1127101, Note_on_c, 0, 75, 105
1, 1127104, Note_on_c, 0, 58, 0
1, 1127104, Note_on_c, 0, 60, 106
1, 1127159, Control_c, 0, 64, 0
1, 1127159, Control_c, 0, 64, 0
1, 1127208, Note_on_c, 0, 66, 0
1, 1127208, Note_on_c, 0, 75, 0
1, 1127208, Note_on_c, 0, 69, 0
1, 1127211, Note_on_c, 0, 64, 93
1, 1127211, Note_on_c, 0, 68, 93
1, 1127211, Note_on_c, 0, 73, 114
1, 1127214, Note_on_c, 0, 60, 0
1, 1127214, Note_on_c, 0, 61, 111
1, 1127304, Control_c, 0, 64, 127
1, 1127304, Control_c, 0, 64, 127
1, 1127315, Note_on_c, 0, 61, 0
1, 1127315, Note_on_c, 0, 52, 96
1, 1127421, Note_on_c, 0, 73, 0
1, 1127421, Note_on_c, 0, 64, 0
1, 1127421, Note_on_c, 0, 68, 0
1, 1127424, Note_on_c, 0, 61, 93
1, 1127424, Note_on_c, 0, 64, 93
1, 1127424, Note_on_c, 0, 68, 105
1, 1127427, Note_on_c, 0, 52, 0
1, 1127427, Note_on_c, 0, 54, 102
1, 1127442, Control_c, 0, 64, 0
1, 1127442, Control_c, 0, 64, 0
1, 1127546, Note_on_c, 0, 54, 0
1, 1127546, Note_on_c, 0, 55, 108
1, 1127608, Control_c, 0, 64, 0
1, 1127608, Control_c, 0, 64, 0
1, 1127762, Note_on_c, 0, 68, 0
1, 1127762, Note_on_c, 0, 61, 0
1, 1127762, Note_on_c, 0, 64, 0
1, 1127765, Note_on_c, 0, 55, 0
1, 1127765, Note_on_c, 0, 61, 75
1, 1127765, Note_on_c, 0, 64, 101
1, 1127768, Note_on_c, 0, 56, 74
1, 1127768, Note_on_c, 0, 49, 84
1, 1127923, Note_on_c, 0, 55, 77
1, 1127931, Note_on_c, 0, 56, 0
1, 1128030, Note_on_c, 0, 56, 79
1, 1128038, Note_on_c, 0, 55, 0
1, 1128137, Note_on_c, 0, 57, 82
1, 1128145, Note_on_c, 0, 56, 0
1, 1128244, Note_on_c, 0, 61, 0
1, 1128244, Note_on_c, 0, 64, 0
1, 1128244, Note_on_c, 0, 61, 82
1, 1128247, Note_on_c, 0, 64, 99
1, 1128247, Note_on_c, 0, 42, 94
1, 1128247, Note_on_c, 0, 58, 84
1, 1128252, Note_on_c, 0, 49, 0
1, 1128252, Note_on_c, 0, 57, 0
1, 1128351, Note_on_c, 0, 57, 87
1, 1128359, Note_on_c, 0, 58, 0
1, 1128458, Note_on_c, 0, 58, 89
1, 1128466, Note_on_c, 0, 57, 0
1, 1128565, Note_on_c, 0, 59, 92
1, 1128573, Note_on_c, 0, 58, 0
1, 1128672, Note_on_c, 0, 61, 0
1, 1128672, Note_on_c, 0, 64, 0
1, 1128672, Note_on_c, 0, 63, 86
1, 1128675, Note_on_c, 0, 68, 103
1, 1128675, Note_on_c, 0, 35, 104
1, 1128675, Note_on_c, 0, 60, 94
1, 1128684, Note_on_c, 0, 42, 0
1, 1128684, Note_on_c, 0, 59, 0
1, 1128764, Control_c, 0, 64, 127
1, 1128764, Control_c, 0, 64, 127
1, 1128832, Note_on_c, 0, 59, 93
1, 1128842, Note_on_c, 0, 60, 0
1, 1128957, Note_on_c, 0, 58, 91
1, 1128965, Note_on_c, 0, 59, 0
1, 1129063, Control_c, 0, 64, 0
1, 1129063, Control_c, 0, 64, 0
1, 1129063, Note_on_c, 0, 57, 90
1, 1129072, Note_on_c, 0, 58, 0
1, 1129171, Note_on_c, 0, 63, 0
1, 1129171, Note_on_c, 0, 68, 0
1, 1129171, Note_on_c, 0, 63, 77
1, 1129174, Note_on_c, 0, 66, 94
1, 1129174, Note_on_c, 0, 56, 88
1, 1129179, Note_on_c, 0, 57, 0
1, 1129234, Control_c, 0, 64, 127
1, 1129234, Control_c, 0, 64, 127
1, 1129278, Note_on_c, 0, 57, 87
1, 1129286, Note_on_c, 0, 56, 0
1, 1129385, Note_on_c, 0, 59, 85
1, 1129394, Note_on_c, 0, 57, 0
1, 1129490, Control_c, 0, 64, 0
1, 1129490, Control_c, 0, 64, 0
1, 1129509, Note_on_c, 0, 57, 84
1, 1129519, Note_on_c, 0, 59, 0
1, 1129634, Note_on_c, 0, 66, 0
1, 1129634, Note_on_c, 0, 63, 0
1, 1129634, Note_on_c, 0, 56, 84
1, 1129637, Note_on_c, 0, 64, 96
1, 1129637, Note_on_c, 0, 37, 91
1, 1129637, Note_on_c, 0, 49, 81
1, 1129649, Note_on_c, 0, 35, 0
1, 1129649, Note_on_c, 0, 57, 0
1, 1129758, Control_c, 0, 64, 127
1, 1129758, Control_c, 0, 64, 127
1, 1129821, Note_on_c, 0, 51, 85
1, 1129821, Note_on_c, 0, 63, 97
1, 1129829, Note_on_c, 0, 64, 0
1, 1129829, Note_on_c, 0, 56, 0
1, 1129924, Note_on_c, 0, 52, 87
1, 1129924, Note_on_c, 0, 64, 99
1, 1129932, Note_on_c, 0, 51, 0
1, 1129932, Note_on_c, 0, 63, 0
1, 1130026, Note_on_c, 0, 54, 88
1, 1130026, Note_on_c, 0, 66, 101
1, 1130034, Note_on_c, 0, 52, 0
1, 1130034, Note_on_c, 0, 64, 0
1, 1130128, Note_on_c, 0, 55, 89
1, 1130128, Note_on_c, 0, 61, 89
1, 1130128, Note_on_c, 0, 64, 89
1, 1130131, Note_on_c, 0, 37, 0
1, 1130131, Note_on_c, 0, 49, 0
1, 1130131, Note_on_c, 0, 67, 103
1, 1130134, Control_c, 0, 64, 0
1, 1130134, Note_on_c, 0, 33, 98
1, 1130134, Note_on_c, 0, 45, 87
1, 1130137, Note_on_c, 0, 54, 0
1, 1130137, Note_on_c, 0, 66, 0
1, 1130137, Control_c, 0, 64, 0
1, 1130232, Control_c, 0, 64, 127
1, 1130232, Control_c, 0, 64, 127
1, 1130260, Note_on_c, 0, 60, 91
1, 1130260, Note_on_c, 0, 72, 105
1, 1130268, Note_on_c, 0, 61, 0
1, 1130268, Note_on_c, 0, 64, 0
1, 1130268, Note_on_c, 0, 55, 0
1, 1130271, Note_on_c, 0, 67, 0
1, 1130362, Note_on_c, 0, 61, 92
1, 1130362, Note_on_c, 0, 73, 106
1, 1130370, Note_on_c, 0, 60, 0
1, 1130370, Note_on_c, 0, 72, 0
1, 1130464, Note_on_c, 0, 63, 94
1, 1130464, Note_on_c, 0, 75, 108
1, 1130476, Note_on_c, 0, 61, 0
1, 1130476, Note_on_c, 0, 73, 0
1, 1130505, Note_on_c, 0, 32, 105
1, 1130541, Note_on_c, 0, 44, 93
1, 1130578, Note_on_c, 0, 56, 93
1, 1130614, Note_on_c, 0, 64, 104
1, 1130614, Note_on_c, 0, 68, 104
1, 1130614, Note_on_c, 0, 73, 104
1, 1130617, Note_on_c, 0, 45, 0
1, 1130617, Note_on_c, 0, 33, 0
1, 1130617, Note_on_c, 0, 76, 117
1, 1130620, Note_on_c, 0, 61, 105
1, 1130626, Note_on_c, 0, 63, 0
1, 1130626, Note_on_c, 0, 75, 0
1, 1130626, Control_c, 0, 64, 0
1, 1130629, Control_c, 0, 64, 0
1, 1130758, Control_c, 0, 64, 127
1, 1130758, Control_c, 0, 64, 127
1, 1130764, Note_on_c, 0, 63, 97
1, 1130764, Note_on_c, 0, 75, 111
1, 1130772, Note_on_c, 0, 68, 0
1, 1130772, Note_on_c, 0, 64, 0
1, 1130772, Note_on_c, 0, 73, 0
1, 1130775, Note_on_c, 0, 76, 0
1, 1130871, Note_on_c, 0, 64, 98
1, 1130871, Note_on_c, 0, 76, 113
1, 1130879, Note_on_c, 0, 63, 0
1, 1130879, Note_on_c, 0, 75, 0
1, 1130978, Note_on_c, 0, 66, 100
1, 1130978, Note_on_c, 0, 78, 115
1, 1130986, Note_on_c, 0, 76, 0
1, 1130986, Note_on_c, 0, 64, 0
1, 1131085, Note_on_c, 0, 67, 110
1, 1131085, Note_on_c, 0, 72, 110
1, 1131085, Note_on_c, 0, 75, 110
1, 1131088, Note_on_c, 0, 44, 0
1, 1131088, Note_on_c, 0, 32, 0
1, 1131088, Note_on_c, 0, 79, 117
1, 1131091, Note_on_c, 0, 56, 0
1, 1131091, Note_on_c, 0, 61, 0
1, 1131091, Note_on_c, 0, 56, 99
1, 1131094, Note_on_c, 0, 60, 99
1, 1131094, Note_on_c, 0, 63, 99
1, 1131094, Note_on_c, 0, 66, 112
1, 1131097, Note_on_c, 0, 66, 0
1, 1131097, Note_on_c, 0, 78, 0
1, 1131104, Control_c, 0, 64, 0
1, 1131104, Control_c, 0, 64, 0
1, 1131209, Note_on_c, 0, 68, 102
1, 1131209, Note_on_c, 0, 80, 117
1, 1131213, Control_c, 0, 64, 127
1, 1131213, Control_c, 0, 64, 127
1, 1131218, Note_on_c, 0, 67, 0
1, 1131218, Note_on_c, 0, 72, 0
1, 1131218, Note_on_c, 0, 75, 0
1, 1131221, Note_on_c, 0, 79, 0
1, 1131316, Note_on_c, 0, 70, 104
1, 1131316, Note_on_c, 0, 82, 117
1, 1131325, Note_on_c, 0, 68, 0
1, 1131325, Note_on_c, 0, 80, 0
1, 1131423, Note_on_c, 0, 72, 105
1, 1131423, Note_on_c, 0, 84, 117
1, 1131433, Note_on_c, 0, 82, 0
1, 1131433, Note_on_c, 0, 70, 0
1, 1131493, Control_c, 0, 64, 0
1, 1131493, Control_c, 0, 64, 0
1, 1131548, Note_on_c, 0, 73, 107
1, 1131548, Note_on_c, 0, 76, 107
1, 1131548, Note_on_c, 0, 80, 107
1, 1131551, Note_on_c, 0, 56, 0
1, 1131551, Note_on_c, 0, 60, 0
1, 1131551, Note_on_c, 0, 85, 117
1, 1131554, Note_on_c, 0, 63, 0
1, 1131554, Note_on_c, 0, 66, 0
1, 1131554, Note_on_c, 0, 49, 112
1, 1131557, Note_on_c, 0, 61, 112
1, 1131561, Note_on_c, 0, 72, 0
1, 1131561, Note_on_c, 0, 84, 0
1, 1131626, Control_c, 0, 64, 127
1, 1131626, Control_c, 0, 64, 127
1, 1131709, Note_on_c, 0, 61, 0
1, 1131709, Note_on_c, 0, 49, 0
1, 1131709, Note_on_c, 0, 64, 102
1, 1131841, Note_on_c, 0, 80, 0
1, 1131841, Note_on_c, 0, 76, 0
1, 1131841, Note_on_c, 0, 73, 0
1, 1131844, Note_on_c, 0, 85, 0
1, 1131844, Note_on_c, 0, 64, 0
1, 1131844, Note_on_c, 0, 66, 107
1, 1131966, Note_on_c, 0, 73, 98
1, 1131966, Note_on_c, 0, 76, 98
1, 1131966, Note_on_c, 0, 81, 98
1, 1131969, Note_on_c, 0, 66, 0
1, 1131969, Note_on_c, 0, 85, 111
1, 1131969, Note_on_c, 0, 67, 112
1, 1131986, Control_c, 0, 64, 0
1, 1131986, Control_c, 0, 64, 0
1, 1132073, Note_on_c, 0, 73, 0
1, 1132073, Note_on_c, 0, 81, 0
1, 1132073, Note_on_c, 0, 76, 0
1, 1132076, Note_on_c, 0, 85, 0
1, 1132076, Note_on_c, 0, 73, 97
1, 1132076, Note_on_c, 0, 76, 97
1, 1132079, Note_on_c, 0, 67, 0
1, 1132079, Note_on_c, 0, 80, 97
1, 1132079, Note_on_c, 0, 85, 117
1, 1132082, Note_on_c, 0, 68, 116
1, 1132177, Note_on_c, 0, 68, 0
1, 1132177, Control_c, 0, 64, 127
1, 1132177, Control_c, 0, 64, 127
1, 1132177, Note_on_c, 0, 61, 100
1, 1132286, Note_on_c, 0, 73, 0
1, 1132286, Note_on_c, 0, 80, 0
1, 1132286, Note_on_c, 0, 76, 0
1, 1132289, Note_on_c, 0, 85, 0
1, 1132289, Note_on_c, 0, 61, 0
1, 1132289, Note_on_c, 0, 62, 105
1, 1132393, Note_on_c, 0, 69, 97
1, 1132393, Note_on_c, 0, 72, 97
1, 1132393, Note_on_c, 0, 78, 97
1, 1132396, Note_on_c, 0, 62, 0
1, 1132396, Note_on_c, 0, 81, 109
1, 1132396, Note_on_c, 0, 63, 110
1, 1132415, Control_c, 0, 64, 0
1, 1132415, Control_c, 0, 64, 0
1, 1132500, Note_on_c, 0, 69, 0
1, 1132500, Note_on_c, 0, 72, 0
1, 1132500, Control_c, 0, 64, 0
1, 1132503, Note_on_c, 0, 78, 0
1, 1132503, Note_on_c, 0, 81, 0
1, 1132503, Note_on_c, 0, 68, 96
1, 1132506, Note_on_c, 0, 73, 96
1, 1132506, Note_on_c, 0, 76, 96
1, 1132506, Note_on_c, 0, 80, 117
1, 1132509, Note_on_c, 0, 63, 0
1, 1132509, Control_c, 0, 64, 0
1, 1132509, Note_on_c, 0, 64, 115
1, 1132593, Control_c, 0, 64, 127
1, 1132593, Control_c, 0, 64, 127
1, 1132607, Note_on_c, 0, 64, 0
1, 1132607, Note_on_c, 0, 56, 99
1, 1132714, Note_on_c, 0, 68, 0
1, 1132714, Note_on_c, 0, 76, 0
1, 1132714, Note_on_c, 0, 73, 0
1, 1132717, Note_on_c, 0, 80, 0
1, 1132717, Note_on_c, 0, 56, 0
1, 1132717, Note_on_c, 0, 58, 104
1, 1132821, Note_on_c, 0, 66, 95
1, 1132821, Note_on_c, 0, 69, 95
1, 1132821, Note_on_c, 0, 75, 95
1, 1132824, Note_on_c, 0, 58, 0
1, 1132824, Note_on_c, 0, 78, 107
1, 1132824, Note_on_c, 0, 60, 108
1, 1132862, Control_c, 0, 64, 0
1, 1132862, Control_c, 0, 64, 0
1, 1132928, Note_on_c, 0, 66, 0
1, 1132928, Note_on_c, 0, 75, 0
1, 1132928, Note_on_c, 0, 69, 0
1, 1132931, Note_on_c, 0, 78, 0
1, 1132931, Note_on_c, 0, 64, 85
1, 1132931, Note_on_c, 0, 68, 85
1, 1132934, Note_on_c, 0, 60, 0
1, 1132934, Note_on_c, 0, 73, 85
1, 1132934, Note_on_c, 0, 76, 106
1, 1132937, Note_on_c, 0, 61, 113
1, 1132945, Control_c, 0, 64, 0
1, 1132945, Control_c, 0, 64, 0
1, 1133025, Control_c, 0, 64, 127
1, 1133025, Control_c, 0, 64, 127
1, 1133035, Note_on_c, 0, 61, 0
1, 1133035, Note_on_c, 0, 52, 88
1, 1133142, Note_on_c, 0, 64, 0
1, 1133142, Note_on_c, 0, 73, 0
1, 1133142, Note_on_c, 0, 68, 0
1, 1133145, Note_on_c, 0, 76, 0
1, 1133145, Note_on_c, 0, 52, 0
1, 1133145, Note_on_c, 0, 54, 94
1, 1133245, Control_c, 0, 64, 0
1, 1133245, Control_c, 0, 64, 0
1, 1133249, Note_on_c, 0, 62, 94
1, 1133249, Note_on_c, 0, 64, 94
1, 1133249, Note_on_c, 0, 71, 106
1, 1133252, Note_on_c, 0, 54, 0
1, 1133252, Note_on_c, 0, 74, 94
1, 1133252, Note_on_c, 0, 56, 100
1, 1133374, Note_on_c, 0, 62, 0
1, 1133374, Note_on_c, 0, 71, 0
1, 1133374, Note_on_c, 0, 64, 0
1, 1133377, Note_on_c, 0, 74, 0
1, 1133377, Note_on_c, 0, 61, 89
1, 1133377, Note_on_c, 0, 69, 89
1, 1133380, Note_on_c, 0, 56, 0
1, 1133380, Note_on_c, 0, 73, 101
1, 1133380, Note_on_c, 0, 57, 91
1, 1133426, Control_c, 0, 64, 127
1, 1133426, Control_c, 0, 64, 127
1, 1133439, Note_on_c, 0, 57, 0
1, 1133481, Note_on_c, 0, 49, 86
1, 1133546, Note_on_c, 0, 61, 0
1, 1133546, Note_on_c, 0, 73, 0
1, 1133546, Note_on_c, 0, 69, 0
1, 1133549, Note_on_c, 0, 49, 0
1, 1133588, Note_on_c, 0, 50, 91
1, 1133653, Note_on_c, 0, 50, 0
1, 1133695, Note_on_c, 0, 60, 98
1, 1133695, Note_on_c, 0, 69, 98
1, 1133695, Note_on_c, 0, 72, 110
1, 1133698, Control_c, 0, 64, 0
1, 1133698, Note_on_c, 0, 51, 98
1, 1133698, Control_c, 0, 64, 0
1, 1133760, Note_on_c, 0, 72, 0
1, 1133760, Note_on_c, 0, 60, 0
1, 1133760, Note_on_c, 0, 69, 0
1, 1133763, Note_on_c, 0, 51, 0
1, 1133802, Note_on_c, 0, 61, 100
1, 1133802, Note_on_c, 0, 69, 100
1, 1133802, Note_on_c, 0, 73, 112
1, 1133805, Note_on_c, 0, 52, 105
1, 1133867, Note_on_c, 0, 52, 0
1, 1133906, Control_c, 0, 64, 127
1, 1133906, Control_c, 0, 64, 127
1, 1133909, Note_on_c, 0, 45, 93
1, 1133974, Note_on_c, 0, 61, 0
1, 1133974, Note_on_c, 0, 73, 0
1, 1133974, Note_on_c, 0, 69, 0
1, 1133977, Note_on_c, 0, 45, 0
1, 1134016, Note_on_c, 0, 47, 100
1, 1134074, Control_c, 0, 64, 0
1, 1134074, Control_c, 0, 64, 0
1, 1134081, Note_on_c, 0, 47, 0
1, 1134123, Note_on_c, 0, 56, 95
1, 1134123, Note_on_c, 0, 64, 95
1, 1134123, Note_on_c, 0, 68, 108
1, 1134126, Note_on_c, 0, 48, 107
1, 1134188, Note_on_c, 0, 68, 0
1, 1134188, Note_on_c, 0, 56, 0
1, 1134188, Note_on_c, 0, 64, 0
1, 1134191, Note_on_c, 0, 48, 0
1, 1134230, Control_c, 0, 64, 0
1, 1134230, Note_on_c, 0, 57, 97
1, 1134230, Note_on_c, 0, 64, 97
1, 1134233, Note_on_c, 0, 69, 117
1, 1134233, Control_c, 0, 64, 0
1, 1134233, Note_on_c, 0, 49, 114
1, 1134295, Note_on_c, 0, 49, 0
1, 1134322, Control_c, 0, 64, 127
1, 1134322, Control_c, 0, 64, 127
1, 1134337, Note_on_c, 0, 40, 100
1, 1134402, Note_on_c, 0, 57, 0
1, 1134402, Note_on_c, 0, 69, 0
1, 1134402, Note_on_c, 0, 64, 0
1, 1134405, Note_on_c, 0, 40, 0
1, 1134444, Note_on_c, 0, 41, 107
1, 1134509, Note_on_c, 0, 41, 0
1, 1134533, Control_c, 0, 64, 0
1, 1134533, Control_c, 0, 64, 0
1, 1134551, Note_on_c, 0, 51, 101
1, 1134551, Note_on_c, 0, 57, 101
1, 1134551, Note_on_c, 0, 60, 101
1, 1134554, Note_on_c, 0, 63, 114
1, 1134554, Note_on_c, 0, 42, 114
1, 1134616, Note_on_c, 0, 60, 0
1, 1134616, Note_on_c, 0, 51, 0
1, 1134616, Note_on_c, 0, 57, 0
1, 1134619, Note_on_c, 0, 63, 0
1, 1134619, Note_on_c, 0, 42, 0
1, 1134658, Note_on_c, 0, 52, 103
1, 1134658, Note_on_c, 0, 57, 103
1, 1134658, Note_on_c, 0, 61, 117
1, 1134661, Note_on_c, 0, 64, 103
1, 1134661, Note_on_c, 0, 43, 117
1, 1134679, Control_c, 0, 64, 0
1, 1134679, Control_c, 0, 64, 0
1, 1134738, Note_on_c, 0, 43, 0
1, 1134777, Control_c, 0, 64, 127
1, 1134777, Control_c, 0, 64, 127
1, 1134790, Note_on_c, 0, 42, 108
1, 1134858, Note_on_c, 0, 52, 0
1, 1134858, Note_on_c, 0, 61, 0
1, 1134858, Note_on_c, 0, 57, 0
1, 1134861, Note_on_c, 0, 64, 0
1, 1134861, Note_on_c, 0, 42, 0
1, 1134902, Note_on_c, 0, 43, 117
1, 1134973, Control_c, 0, 64, 0
1, 1134973, Control_c, 0, 64, 0
1, 1134978, Note_on_c, 0, 43, 0
1, 1135027, Note_on_c, 0, 52, 108
1, 1135027, Note_on_c, 0, 57, 108
1, 1135027, Note_on_c, 0, 61, 117
1, 1135030, Note_on_c, 0, 64, 108
1, 1135030, Note_on_c, 0, 31, 117
1, 1135107, Note_on_c, 0, 61, 0
1, 1135107, Note_on_c, 0, 52, 0
1, 1135107, Note_on_c, 0, 57, 0
1, 1135110, Note_on_c, 0, 64, 0
1, 1135110, Note_on_c, 0, 31, 0
1, 1135159, Control_c, 0, 64, 0
1, 1135159, Control_c, 0, 64, 0
1, 1135159, Note_on_c, 0, 52, 93
1, 1135162, Note_on_c, 0, 56, 93
1, 1135162, Note_on_c, 0, 61, 93
1, 1135162, Note_on_c, 0, 64, 114
1, 1135165, Control_c, 0, 64, 0
1, 1135165, Note_on_c, 0, 32, 93
1, 1135165, Note_on_c, 0, 44, 93
1, 1135240, Note_on_c, 0, 61, 0
1, 1135240, Note_on_c, 0, 52, 0
1, 1135240, Note_on_c, 0, 56, 0
1, 1135291, Note_on_c, 0, 63, 90
1, 1135367, Note_on_c, 0, 63, 0
1, 1135367, Note_on_c, 0, 64, 0
1, 1135367, Note_on_c, 0, 32, 0
1, 1135370, Note_on_c, 0, 44, 0
1, 1135416, Note_on_c, 0, 64, 91
1, 1135484, Note_on_c, 0, 64, 0
1, 1135528, Note_on_c, 0, 68, 86
1, 1135528, Note_on_c, 0, 65, 83
1, 1135528, Note_on_c, 0, 59, 81
1, 1135531, Note_on_c, 0, 62, 91
1, 1135597, Note_on_c, 0, 59, 0
1, 1135597, Note_on_c, 0, 68, 0
1, 1135597, Note_on_c, 0, 65, 0
1, 1135600, Note_on_c, 0, 62, 0
1, 1135641, Note_on_c, 0, 73, 97
1, 1135641, Note_on_c, 0, 66, 85
1, 1135641, Note_on_c, 0, 57, 82
1, 1135644, Note_on_c, 0, 61, 92
1, 1135706, Note_on_c, 0, 66, 0
1, 1135748, Note_on_c, 0, 61, 85
1, 1135813, Note_on_c, 0, 61, 0
1, 1135813, Note_on_c, 0, 73, 0
1, 1135813, Note_on_c, 0, 57, 0
1, 1135816, Note_on_c, 0, 61, 0
1, 1135855, Note_on_c, 0, 62, 86
1, 1135920, Note_on_c, 0, 62, 0
1, 1135962, Note_on_c, 0, 66, 91
1, 1135962, Note_on_c, 0, 63, 88
1, 1135962, Note_on_c, 0, 57, 85
1, 1135965, Note_on_c, 0, 60, 95
1, 1136027, Note_on_c, 0, 57, 0
1, 1136027, Note_on_c, 0, 66, 0
1, 1136027, Note_on_c, 0, 63, 0
1, 1136030, Note_on_c, 0, 60, 0
1, 1136069, Note_on_c, 0, 71, 101
1, 1136069, Note_on_c, 0, 65, 89
1, 1136069, Note_on_c, 0, 56, 86
1, 1136072, Note_on_c, 0, 61, 96
1, 1136134, Note_on_c, 0, 65, 0
1, 1136175, Note_on_c, 0, 64, 90
1, 1136241, Note_on_c, 0, 64, 0
1, 1136241, Note_on_c, 0, 71, 0
1, 1136241, Note_on_c, 0, 56, 0
1, 1136244, Note_on_c, 0, 61, 0
1, 1136282, Note_on_c, 0, 65, 91
1, 1136348, Note_on_c, 0, 65, 0
1, 1136389, Note_on_c, 0, 74, 95
1, 1136389, Note_on_c, 0, 68, 92
1, 1136389, Note_on_c, 0, 53, 89
1, 1136392, Note_on_c, 0, 59, 100
1, 1136455, Note_on_c, 0, 53, 0
1, 1136455, Note_on_c, 0, 74, 0
1, 1136455, Note_on_c, 0, 68, 0
1, 1136458, Note_on_c, 0, 59, 0
1, 1136496, Note_on_c, 0, 73, 105
1, 1136496, Note_on_c, 0, 69, 93
1, 1136496, Note_on_c, 0, 54, 89
1, 1136499, Note_on_c, 0, 57, 101
1, 1136562, Note_on_c, 0, 69, 0
1, 1136603, Note_on_c, 0, 68, 94
1, 1136669, Note_on_c, 0, 68, 0
1, 1136669, Note_on_c, 0, 73, 0
1, 1136669, Note_on_c, 0, 54, 0
1, 1136672, Note_on_c, 0, 57, 0
1, 1136710, Note_on_c, 0, 69, 95
1, 1136776, Note_on_c, 0, 69, 0
1, 1136817, Note_on_c, 0, 78, 109
1, 1136817, Note_on_c, 0, 72, 97
1, 1136817, Note_on_c, 0, 51, 104
1, 1136820, Note_on_c, 0, 57, 92
1, 1136883, Note_on_c, 0, 51, 0
1, 1136883, Note_on_c, 0, 78, 0
1, 1136883, Note_on_c, 0, 72, 0
1, 1136886, Note_on_c, 0, 57, 0
1, 1136924, Control_c, 0, 64, 0
1, 1136924, Note_on_c, 0, 71, 98
1, 1136924, Note_on_c, 0, 77, 110
1, 1136927, Control_c, 0, 64, 0
1, 1136927, Control_c, 0, 64, 0
1, 1136927, Note_on_c, 0, 49, 106
1, 1136930, Note_on_c, 0, 56, 94
1, 1136989, Note_on_c, 0, 71, 0
1, 1137031, Note_on_c, 0, 70, 99
1, 1137096, Note_on_c, 0, 70, 0
1, 1137096, Note_on_c, 0, 77, 0
1, 1137096, Note_on_c, 0, 49, 0
1, 1137099, Note_on_c, 0, 56, 0
1, 1137138, Note_on_c, 0, 71, 100
1, 1137203, Note_on_c, 0, 71, 0
1, 1137245, Note_on_c, 0, 80, 113
1, 1137245, Note_on_c, 0, 74, 101
1, 1137245, Note_on_c, 0, 47, 109
1, 1137248, Note_on_c, 0, 53, 97
1, 1137310, Note_on_c, 0, 47, 0
1, 1137310, Note_on_c, 0, 80, 0
1, 1137310, Note_on_c, 0, 74, 0
1, 1137313, Note_on_c, 0, 53, 0
1, 1137352, Note_on_c, 0, 78, 108
1, 1137352, Note_on_c, 0, 73, 102
1, 1137352, Note_on_c, 0, 45, 110
1, 1137355, Note_on_c, 0, 54, 97
1, 1137417, Note_on_c, 0, 73, 0
1, 1137459, Note_on_c, 0, 72, 103
1, 1137524, Note_on_c, 0, 72, 0
1, 1137524, Note_on_c, 0, 78, 0
1, 1137524, Note_on_c, 0, 45, 0
1, 1137527, Note_on_c, 0, 54, 0
1, 1137566, Note_on_c, 0, 73, 104
1, 1137631, Note_on_c, 0, 73, 0
1, 1137673, Note_on_c, 0, 83, 117
1, 1137673, Note_on_c, 0, 77, 106
1, 1137673, Note_on_c, 0, 44, 114
1, 1137676, Note_on_c, 0, 50, 100
1, 1137738, Note_on_c, 0, 44, 0
1, 1137738, Note_on_c, 0, 83, 0
1, 1137738, Note_on_c, 0, 77, 0
1, 1137741, Note_on_c, 0, 50, 0
1, 1137780, Note_on_c, 0, 81, 117
1, 1137780, Note_on_c, 0, 78, 107
1, 1137780, Note_on_c, 0, 42, 115
1, 1137783, Note_on_c, 0, 49, 101
1, 1137878, Note_on_c, 0, 78, 0
1, 1137890, Control_c, 0, 64, 127
1, 1137890, Control_c, 0, 64, 127
1, 1137941, Note_on_c, 0, 77, 107
1, 1138006, Note_on_c, 0, 77, 0
1, 1138006, Note_on_c, 0, 81, 0
1, 1138006, Note_on_c, 0, 42, 0
1, 1138009, Note_on_c, 0, 49, 0
1, 1138047, Note_on_c, 0, 78, 109
1, 1138113, Note_on_c, 0, 78, 0
1, 1138154, Note_on_c, 0, 85, 117
1, 1138154, Note_on_c, 0, 90, 117
1, 1138154, Note_on_c, 0, 93, 117
1, 1138157, Note_on_c, 0, 81, 117
1, 1138157, Note_on_c, 0, 42, 117
1, 1138157, Note_on_c, 0, 49, 104
1, 1138160, Note_on_c, 0, 54, 117
1, 1138235, Note_on_c, 0, 93, 0
1, 1138235, Note_on_c, 0, 85, 0
1, 1138235, Note_on_c, 0, 90, 0
1, 1138238, Note_on_c, 0, 42, 0
1, 1138238, Note_on_c, 0, 81, 0
1, 1138238, Note_on_c, 0, 49, 0
1, 1138241, Note_on_c, 0, 54, 0
1, 1138285, Control_c, 0, 64, 0
1, 1138285, Note_on_c, 0, 85, 111
1, 1138285, Note_on_c, 0, 88, 117
1, 1138285, Note_on_c, 0, 92, 111
1, 1138285, Note_on_c, 0, 80, 111
1, 1138285, Control_c, 0, 64, 0
1, 1138285, Note_on_c, 0, 37, 117
1, 1138285, Note_on_c, 0, 44, 105
1, 1138285, Note_on_c, 0, 49, 117
1, 1138764, Note_on_c, 0, 92, 0
1, 1138764, Note_on_c, 0, 85, 0
1, 1138764, Note_on_c, 0, 88, 0
1, 1138767, Note_on_c, 0, 37, 0
1, 1138767, Note_on_c, 0, 80, 0
1, 1138767, Note_on_c, 0, 44, 0
1, 1138770, Note_on_c, 0, 49, 0
1, 1138815, Note_on_c, 0, 72, 93
1, 1138815, Note_on_c, 0, 75, 93
1, 1138815, Note_on_c, 0, 78, 93
1, 1138818, Note_on_c, 0, 81, 114
1, 1138818, Note_on_c, 0, 44, 105
1, 1138818, Note_on_c, 0, 56, 105
1, 1138894, Control_c, 0, 64, 127
1, 1138894, Control_c, 0, 64, 127
1, 1138976, Note_on_c, 0, 56, 0
1, 1138976, Note_on_c, 0, 44, 0
1, 1138976, Note_on_c, 0, 66, 96
1, 1139083, Note_on_c, 0, 72, 0
1, 1139083, Note_on_c, 0, 78, 0
1, 1139083, Note_on_c, 0, 75, 0
1, 1139086, Note_on_c, 0, 81, 0
1, 1139086, Note_on_c, 0, 66, 0
1, 1139086, Note_on_c, 0, 67, 101
1, 1139104, Control_c, 0, 64, 127
1, 1139104, Control_c, 0, 64, 127
1, 1139190, Note_on_c, 0, 74, 93
1, 1139190, Note_on_c, 0, 77, 93
1, 1139190, Note_on_c, 0, 83, 105
1, 1139193, Note_on_c, 0, 67, 0
1, 1139193, Note_on_c, 0, 68, 106
1, 1139297, Note_on_c, 0, 74, 0
1, 1139297, Note_on_c, 0, 83, 0
1, 1139297, Note_on_c, 0, 77, 0
1, 1139300, Note_on_c, 0, 73, 93
1, 1139300, Note_on_c, 0, 76, 93
1, 1139300, Note_on_c, 0, 81, 113
1, 1139303, Note_on_c, 0, 68, 0
1, 1139303, Note_on_c, 0, 69, 111
1, 1139308, Control_c, 0, 64, 0
1, 1139308, Control_c, 0, 64, 0
1, 1139401, Control_c, 0, 64, 127
1, 1139401, Control_c, 0, 64, 127
1, 1139404, Note_on_c, 0, 69, 0
1, 1139404, Note_on_c, 0, 63, 96
1, 1139510, Note_on_c, 0, 81, 0
1, 1139510, Note_on_c, 0, 73, 0
1, 1139510, Note_on_c, 0, 76, 0
1, 1139513, Note_on_c, 0, 63, 0
1, 1139513, Note_on_c, 0, 64, 101
1, 1139560, Control_c, 0, 64, 0
1, 1139560, Control_c, 0, 64, 0
1, 1139617, Note_on_c, 0, 71, 93
1, 1139617, Note_on_c, 0, 74, 93
1, 1139617, Note_on_c, 0, 80, 105
1, 1139620, Note_on_c, 0, 64, 0
1, 1139620, Note_on_c, 0, 65, 106
1, 1139724, Note_on_c, 0, 71, 0
1, 1139724, Note_on_c, 0, 80, 0
1, 1139724, Note_on_c, 0, 74, 0
1, 1139727, Note_on_c, 0, 69, 93
1, 1139727, Note_on_c, 0, 73, 93
1, 1139727, Note_on_c, 0, 78, 113
1, 1139730, Note_on_c, 0, 65, 0
1, 1139730, Note_on_c, 0, 66, 111
1, 1139817, Control_c, 0, 64, 127
1, 1139817, Control_c, 0, 64, 127
1, 1139831, Note_on_c, 0, 66, 0
1, 1139831, Note_on_c, 0, 60, 96
1, 1139938, Note_on_c, 0, 78, 0
1, 1139938, Note_on_c, 0, 69, 0
1, 1139938, Note_on_c, 0, 73, 0
1, 1139941, Note_on_c, 0, 60, 0
1, 1139941, Note_on_c, 0, 61, 101
1, 1140021, Control_c, 0, 64, 0
1, 1140021, Control_c, 0, 64, 0
1, 1140045, Note_on_c, 0, 66, 93
1, 1140045, Note_on_c, 0, 69, 93
1, 1140045, Note_on_c, 0, 73, 105
1, 1140048, Note_on_c, 0, 61, 0
1, 1140048, Note_on_c, 0, 62, 106
1, 1140152, Note_on_c, 0, 66, 0
1, 1140152, Note_on_c, 0, 73, 0
1, 1140152, Note_on_c, 0, 69, 0
1, 1140155, Note_on_c, 0, 66, 93
1, 1140155, Note_on_c, 0, 69, 93
1, 1140155, Note_on_c, 0, 72, 113
1, 1140158, Note_on_c, 0, 62, 0
1, 1140158, Note_on_c, 0, 63, 111
1, 1140249, Control_c, 0, 64, 127
1, 1140249, Control_c, 0, 64, 127
1, 1140259, Note_on_c, 0, 63, 0
1, 1140259, Note_on_c, 0, 56, 96
1, 1140366, Note_on_c, 0, 72, 0
1, 1140366, Note_on_c, 0, 66, 0
1, 1140366, Note_on_c, 0, 69, 0
1, 1140369, Note_on_c, 0, 56, 0
1, 1140369, Note_on_c, 0, 58, 102
1, 1140407, Control_c, 0, 64, 0
1, 1140407, Control_c, 0, 64, 0
1, 1140473, Note_on_c, 0, 66, 93
1, 1140473, Note_on_c, 0, 68, 93
1, 1140473, Note_on_c, 0, 75, 105
1, 1140476, Note_on_c, 0, 58, 0
1, 1140476, Note_on_c, 0, 60, 108
1, 1140551, Control_c, 0, 64, 0
1, 1140551, Control_c, 0, 64, 0
1, 1140598, Note_on_c, 0, 66, 0
1, 1140598, Note_on_c, 0, 68, 0
1, 1140598, Control_c, 0, 64, 0
1, 1140601, Note_on_c, 0, 75, 0
1, 1140601, Note_on_c, 0, 64, 99
1, 1140601, Note_on_c, 0, 68, 99
1, 1140604, Note_on_c, 0, 73, 99
1, 1140604, Note_on_c, 0, 76, 113
1, 1140604, Control_c, 0, 64, 0
1, 1140607, Note_on_c, 0, 60, 0
1, 1140607, Note_on_c, 0, 44, 105
1, 1140607, Note_on_c, 0, 56, 105
1, 1140676, Control_c, 0, 64, 127
1, 1140676, Control_c, 0, 64, 127
1, 1140758, Note_on_c, 0, 56, 0
1, 1140758, Note_on_c, 0, 44, 0
1, 1140758, Note_on_c, 0, 64, 96
1, 1140858, Control_c, 0, 64, 127
1, 1140858, Control_c, 0, 64, 127
1, 1140865, Note_on_c, 0, 64, 0
1, 1140865, Note_on_c, 0, 73, 0
1, 1140865, Note_on_c, 0, 68, 0
1, 1140868, Note_on_c, 0, 76, 0
1, 1140868, Note_on_c, 0, 64, 0
1, 1140868, Note_on_c, 0, 66, 101
1, 1140972, Note_on_c, 0, 73, 93
1, 1140972, Note_on_c, 0, 76, 93
1, 1140972, Note_on_c, 0, 81, 105
1, 1140975, Note_on_c, 0, 66, 0
1, 1140975, Note_on_c, 0, 67, 106
1, 1141051, Control_c, 0, 64, 0
1, 1141051, Control_c, 0, 64, 0
1, 1141079, Note_on_c, 0, 73, 0
1, 1141079, Note_on_c, 0, 81, 0
1, 1141079, Note_on_c, 0, 76, 0
1, 1141082, Note_on_c, 0, 73, 93
1, 1141082, Note_on_c, 0, 76, 93
1, 1141082, Note_on_c, 0, 80, 114
1, 1141085, Note_on_c, 0, 67, 0
1, 1141085, Note_on_c, 0, 68, 111
1, 1141183, Control_c, 0, 64, 127
1, 1141183, Control_c, 0, 64, 127
1, 1141186, Note_on_c, 0, 68, 0
1, 1141186, Note_on_c, 0, 61, 96
1, 1141293, Note_on_c, 0, 80, 0
1, 1141293, Note_on_c, 0, 73, 0
1, 1141293, Note_on_c, 0, 76, 0
1, 1141296, Note_on_c, 0, 61, 0
1, 1141296, Note_on_c, 0, 62, 101
1, 1141314, Control_c, 0, 64, 0
1, 1141314, Control_c, 0, 64, 0
1, 1141400, Note_on_c, 0, 69, 93
1, 1141400, Note_on_c, 0, 72, 93
1, 1141400, Note_on_c, 0, 78, 105
1, 1141403, Note_on_c, 0, 62, 0
1, 1141403, Note_on_c, 0, 63, 106
1, 1141525, Note_on_c, 0, 69, 0
1, 1141525, Note_on_c, 0, 78, 0
1, 1141525, Note_on_c, 0, 72, 0
1, 1141528, Note_on_c, 0, 68, 93
1, 1141528, Note_on_c, 0, 73, 93
1, 1141528, Note_on_c, 0, 76, 114
1, 1141531, Note_on_c, 0, 63, 0
1, 1141531, Note_on_c, 0, 64, 111
1, 1141639, Control_c, 0, 64, 127
1, 1141639, Control_c, 0, 64, 127
1, 1141657, Note_on_c, 0, 64, 0
1, 1141657, Note_on_c, 0, 56, 96
1, 1141764, Note_on_c, 0, 76, 0
1, 1141764, Note_on_c, 0, 68, 0
1, 1141764, Note_on_c, 0, 73, 0
1, 1141767, Note_on_c, 0, 56, 0
1, 1141767, Note_on_c, 0, 58, 101
1, 1141830, Control_c, 0, 64, 0
1, 1141830, Control_c, 0, 64, 0
1, 1141871, Note_on_c, 0, 66, 93
1, 1141871, Note_on_c, 0, 69, 93
1, 1141871, Note_on_c, 0, 75, 105
1, 1141874, Note_on_c, 0, 58, 0
1, 1141874, Note_on_c, 0, 60, 106
1, 1141930, Control_c, 0, 64, 0
1, 1141930, Control_c, 0, 64, 0
1, 1141978, Note_on_c, 0, 66, 0
1, 1141978, Note_on_c, 0, 75, 0
1, 1141978, Note_on_c, 0, 69, 0
1, 1141981, Note_on_c, 0, 64, 93
1, 1141981, Note_on_c, 0, 68, 93
1, 1141981, Note_on_c, 0, 73, 114
1, 1141984, Note_on_c, 0, 60, 0
1, 1141984, Note_on_c, 0, 61, 111
1, 1142075, Control_c, 0, 64, 127
1, 1142075, Control_c, 0, 64, 127
1, 1142085, Note_on_c, 0, 61, 0
1, 1142085, Note_on_c, 0, 52, 96
1, 1142192, Note_on_c, 0, 73, 0
1, 1142192, Note_on_c, 0, 64, 0
1, 1142192, Note_on_c, 0, 68, 0
1, 1142195, Note_on_c, 0, 61, 93
1, 1142195, Note_on_c, 0, 64, 93
1, 1142195, Note_on_c, 0, 68, 105
1, 1142198, Note_on_c, 0, 52, 0
1, 1142198, Note_on_c, 0, 54, 102
1, 1142213, Control_c, 0, 64, 0
1, 1142213, Control_c, 0, 64, 0
1, 1142317, Note_on_c, 0, 54, 0
1, 1142317, Note_on_c, 0, 55, 108
1, 1142378, Control_c, 0, 64, 0
1, 1142378, Control_c, 0, 64, 0
1, 1142533, Note_on_c, 0, 68, 0
1, 1142533, Note_on_c, 0, 61, 0
1, 1142533, Note_on_c, 0, 64, 0
1, 1142536, Note_on_c, 0, 55, 0
1, 1142536, Note_on_c, 0, 61, 75
1, 1142536, Note_on_c, 0, 64, 101
1, 1142539, Note_on_c, 0, 56, 74
1, 1142539, Note_on_c, 0, 49, 84
1, 1142693, Note_on_c, 0, 55, 77
1, 1142702, Note_on_c, 0, 56, 0
1, 1142800, Note_on_c, 0, 56, 79
1, 1142809, Note_on_c, 0, 55, 0
1, 1142907, Note_on_c, 0, 57, 82
1, 1142916, Note_on_c, 0, 56, 0
1, 1143014, Note_on_c, 0, 61, 0
1, 1143014, Note_on_c, 0, 64, 0
1, 1143014, Note_on_c, 0, 61, 82
1, 1143017, Note_on_c, 0, 64, 99
1, 1143017, Note_on_c, 0, 42, 94
1, 1143017, Note_on_c, 0, 58, 84
1, 1143023, Note_on_c, 0, 49, 0
1, 1143023, Note_on_c, 0, 57, 0
1, 1143121, Note_on_c, 0, 57, 87
1, 1143130, Note_on_c, 0, 58, 0
1, 1143228, Note_on_c, 0, 58, 89
1, 1143237, Note_on_c, 0, 57, 0
1, 1143335, Note_on_c, 0, 59, 92
1, 1143344, Note_on_c, 0, 58, 0
1, 1143442, Note_on_c, 0, 61, 0
1, 1143442, Note_on_c, 0, 64, 0
1, 1143442, Note_on_c, 0, 63, 86
1, 1143445, Note_on_c, 0, 68, 103
1, 1143445, Note_on_c, 0, 35, 104
1, 1143445, Note_on_c, 0, 60, 94
1, 1143455, Note_on_c, 0, 42, 0
1, 1143455, Note_on_c, 0, 59, 0
1, 1143535, Control_c, 0, 64, 127
1, 1143535, Control_c, 0, 64, 127
1, 1143603, Note_on_c, 0, 59, 93
1, 1143612, Note_on_c, 0, 60, 0
1, 1143727, Note_on_c, 0, 58, 91
1, 1143736, Note_on_c, 0, 59, 0
1, 1143834, Control_c, 0, 64, 0
1, 1143834, Control_c, 0, 64, 0
1, 1143834, Note_on_c, 0, 57, 90
1, 1143843, Note_on_c, 0, 58, 0
1, 1143941, Note_on_c, 0, 63, 0
1, 1143941, Note_on_c, 0, 68, 0
1, 1143941, Note_on_c, 0, 63, 77
1, 1143944, Note_on_c, 0, 66, 94
1, 1143944, Note_on_c, 0, 56, 88
1, 1143950, Note_on_c, 0, 57, 0
1, 1144004, Control_c, 0, 64, 127
1, 1144004, Control_c, 0, 64, 127
1, 1144048, Note_on_c, 0, 57, 87
1, 1144057, Note_on_c, 0, 56, 0
1, 1144155, Note_on_c, 0, 59, 85
1, 1144165, Note_on_c, 0, 57, 0
1, 1144261, Control_c, 0, 64, 0
1, 1144261, Control_c, 0, 64, 0
1, 1144280, Note_on_c, 0, 57, 84
1, 1144290, Note_on_c, 0, 59, 0
1, 1144405, Note_on_c, 0, 66, 0
1, 1144405, Note_on_c, 0, 63, 0
1, 1144405, Note_on_c, 0, 56, 84
1, 1144408, Note_on_c, 0, 64, 96
1, 1144408, Note_on_c, 0, 37, 91
1, 1144408, Note_on_c, 0, 49, 81
1, 1144420, Note_on_c, 0, 35, 0
1, 1144420, Note_on_c, 0, 57, 0
1, 1144528, Control_c, 0, 64, 127
1, 1144528, Control_c, 0, 64, 127
1, 1144592, Note_on_c, 0, 51, 85
1, 1144592, Note_on_c, 0, 63, 97
1, 1144600, Note_on_c, 0, 64, 0
1, 1144600, Note_on_c, 0, 56, 0
1, 1144694, Note_on_c, 0, 52, 87
1, 1144694, Note_on_c, 0, 64, 99
1, 1144702, Note_on_c, 0, 51, 0
1, 1144702, Note_on_c, 0, 63, 0
1, 1144796, Note_on_c, 0, 54, 88
1, 1144796, Note_on_c, 0, 66, 101
1, 1144804, Note_on_c, 0, 52, 0
1, 1144804, Note_on_c, 0, 64, 0
1, 1144898, Note_on_c, 0, 55, 89
1, 1144898, Note_on_c, 0, 61, 89
1, 1144898, Note_on_c, 0, 64, 89
1, 1144901, Note_on_c, 0, 37, 0
1, 1144901, Note_on_c, 0, 49, 0
1, 1144901, Note_on_c, 0, 67, 103
1, 1144904, Control_c, 0, 64, 0
1, 1144904, Note_on_c, 0, 33, 98
1, 1144904, Note_on_c, 0, 45, 87
1, 1144907, Note_on_c, 0, 54, 0
1, 1144907, Note_on_c, 0, 66, 0
1, 1144907, Control_c, 0, 64, 0
1, 1145002, Control_c, 0, 64, 127
1, 1145002, Control_c, 0, 64, 127
1, 1145031, Note_on_c, 0, 60, 91
1, 1145031, Note_on_c, 0, 72, 105
1, 1145039, Note_on_c, 0, 61, 0
1, 1145039, Note_on_c, 0, 64, 0
1, 1145039, Note_on_c, 0, 55, 0
1, 1145042, Note_on_c, 0, 67, 0
1, 1145133, Note_on_c, 0, 61, 92
1, 1145133, Note_on_c, 0, 73, 106
1, 1145141, Note_on_c, 0, 60, 0
1, 1145141, Note_on_c, 0, 72, 0
1, 1145235, Note_on_c, 0, 63, 94
1, 1145235, Note_on_c, 0, 75, 108
1, 1145246, Note_on_c, 0, 61, 0
1, 1145246, Note_on_c, 0, 73, 0
1, 1145276, Note_on_c, 0, 32, 105
1, 1145312, Note_on_c, 0, 44, 93
1, 1145348, Note_on_c, 0, 56, 93
1, 1145385, Note_on_c, 0, 64, 104
1, 1145385, Note_on_c, 0, 68, 104
1, 1145385, Note_on_c, 0, 73, 104
1, 1145388, Note_on_c, 0, 45, 0
1, 1145388, Note_on_c, 0, 33, 0
1, 1145388, Note_on_c, 0, 76, 117
1, 1145391, Note_on_c, 0, 61, 105
1, 1145396, Note_on_c, 0, 63, 0
1, 1145396, Note_on_c, 0, 75, 0
1, 1145396, Control_c, 0, 64, 0
1, 1145396, Control_c, 0, 64, 0
1, 1145528, Control_c, 0, 64, 127
1, 1145528, Control_c, 0, 64, 127
1, 1145534, Note_on_c, 0, 63, 97
1, 1145534, Note_on_c, 0, 75, 111
1, 1145543, Note_on_c, 0, 68, 0
1, 1145543, Note_on_c, 0, 64, 0
1, 1145543, Note_on_c, 0, 73, 0
1, 1145546, Note_on_c, 0, 76, 0
1, 1145641, Note_on_c, 0, 64, 98
1, 1145641, Note_on_c, 0, 76, 113
1, 1145650, Note_on_c, 0, 63, 0
1, 1145650, Note_on_c, 0, 75, 0
1, 1145748, Note_on_c, 0, 66, 100
1, 1145748, Note_on_c, 0, 78, 115
1, 1145757, Note_on_c, 0, 76, 0
1, 1145757, Note_on_c, 0, 64, 0
1, 1145855, Note_on_c, 0, 67, 110
1, 1145855, Note_on_c, 0, 72, 110
1, 1145855, Note_on_c, 0, 75, 110
1, 1145858, Note_on_c, 0, 44, 0
1, 1145858, Note_on_c, 0, 32, 0
1, 1145858, Note_on_c, 0, 79, 117
1, 1145861, Note_on_c, 0, 56, 0
1, 1145861, Note_on_c, 0, 61, 0
1, 1145861, Note_on_c, 0, 56, 99
1, 1145864, Note_on_c, 0, 66, 0
1, 1145864, Note_on_c, 0, 78, 0
1, 1145864, Note_on_c, 0, 60, 99
1, 1145864, Note_on_c, 0, 63, 99
1, 1145864, Note_on_c, 0, 66, 112
1, 1145874, Control_c, 0, 64, 0
1, 1145874, Control_c, 0, 64, 0
1, 1145980, Note_on_c, 0, 68, 102
1, 1145980, Note_on_c, 0, 80, 117
1, 1145983, Control_c, 0, 64, 127
1, 1145983, Control_c, 0, 64, 127
1, 1145988, Note_on_c, 0, 67, 0
1, 1145988, Note_on_c, 0, 72, 0
1, 1145988, Note_on_c, 0, 75, 0
1, 1145991, Note_on_c, 0, 79, 0
1, 1146087, Note_on_c, 0, 70, 104
1, 1146087, Note_on_c, 0, 82, 117
1, 1146095, Note_on_c, 0, 68, 0
1, 1146095, Note_on_c, 0, 80, 0
1, 1146194, Note_on_c, 0, 72, 105
1, 1146194, Note_on_c, 0, 84, 117
1, 1146204, Note_on_c, 0, 82, 0
1, 1146204, Note_on_c, 0, 70, 0
1, 1146264, Control_c, 0, 64, 0
1, 1146264, Control_c, 0, 64, 0
1, 1146319, Note_on_c, 0, 73, 107
1, 1146319, Note_on_c, 0, 76, 107
1, 1146319, Note_on_c, 0, 80, 107
1, 1146322, Note_on_c, 0, 60, 0
1, 1146322, Note_on_c, 0, 56, 0
1, 1146322, Note_on_c, 0, 85, 117
1, 1146325, Note_on_c, 0, 63, 0
1, 1146325, Note_on_c, 0, 66, 0
1, 1146325, Note_on_c, 0, 49, 112
1, 1146328, Note_on_c, 0, 61, 112
1, 1146331, Note_on_c, 0, 72, 0
1, 1146331, Note_on_c, 0, 84, 0
1, 1146397, Control_c, 0, 64, 127
1, 1146397, Control_c, 0, 64, 127
1, 1146479, Note_on_c, 0, 61, 0
1, 1146479, Note_on_c, 0, 49, 0
1, 1146479, Note_on_c, 0, 64, 102
1, 1146611, Note_on_c, 0, 80, 0
1, 1146611, Note_on_c, 0, 76, 0
1, 1146611, Note_on_c, 0, 73, 0
1, 1146614, Note_on_c, 0, 85, 0
1, 1146614, Note_on_c, 0, 64, 0
1, 1146614, Note_on_c, 0, 66, 107
1, 1146736, Note_on_c, 0, 73, 98
1, 1146736, Note_on_c, 0, 76, 98
1, 1146736, Note_on_c, 0, 81, 98
1, 1146739, Note_on_c, 0, 66, 0
1, 1146739, Note_on_c, 0, 85, 111
1, 1146739, Note_on_c, 0, 67, 112
1, 1146756, Control_c, 0, 64, 0
1, 1146756, Control_c, 0, 64, 0
1, 1146843, Note_on_c, 0, 73, 0
1, 1146843, Note_on_c, 0, 81, 0
1, 1146843, Note_on_c, 0, 76, 0
1, 1146846, Note_on_c, 0, 85, 0
1, 1146846, Note_on_c, 0, 73, 97
1, 1146846, Note_on_c, 0, 76, 97
1, 1146849, Note_on_c, 0, 67, 0
1, 1146849, Note_on_c, 0, 80, 97
1, 1146849, Note_on_c, 0, 85, 117
1, 1146852, Note_on_c, 0, 68, 116
1, 1146947, Control_c, 0, 64, 127
1, 1146947, Control_c, 0, 64, 127
1, 1146950, Note_on_c, 0, 68, 0
1, 1146950, Note_on_c, 0, 61, 100
1, 1147057, Note_on_c, 0, 73, 0
1, 1147057, Note_on_c, 0, 80, 0
1, 1147057, Note_on_c, 0, 76, 0
1, 1147060, Note_on_c, 0, 85, 0
1, 1147060, Note_on_c, 0, 61, 0
1, 1147060, Note_on_c, 0, 62, 105
1, 1147164, Note_on_c, 0, 69, 97
1, 1147164, Note_on_c, 0, 72, 97
1, 1147164, Note_on_c, 0, 78, 97
1, 1147167, Note_on_c, 0, 62, 0
1, 1147167, Note_on_c, 0, 81, 109
1, 1147167, Note_on_c, 0, 63, 110
1, 1147186, Control_c, 0, 64, 0
1, 1147186, Control_c, 0, 64, 0
1, 1147271, Note_on_c, 0, 69, 0
1, 1147271, Note_on_c, 0, 72, 0
1, 1147271, Control_c, 0, 64, 0
1, 1147274, Note_on_c, 0, 78, 0
1, 1147274, Note_on_c, 0, 81, 0
1, 1147274, Note_on_c, 0, 68, 96
1, 1147277, Note_on_c, 0, 73, 96
1, 1147277, Note_on_c, 0, 76, 96
1, 1147277, Note_on_c, 0, 80, 117
1, 1147280, Note_on_c, 0, 63, 0
1, 1147280, Control_c, 0, 64, 0
1, 1147280, Note_on_c, 0, 64, 115
1, 1147363, Control_c, 0, 64, 127
1, 1147363, Control_c, 0, 64, 127
1, 1147378, Note_on_c, 0, 64, 0
1, 1147378, Note_on_c, 0, 56, 99
1, 1147485, Note_on_c, 0, 68, 0
1, 1147485, Note_on_c, 0, 76, 0
1, 1147485, Note_on_c, 0, 73, 0
1, 1147488, Note_on_c, 0, 80, 0
1, 1147488, Note_on_c, 0, 56, 0
1, 1147488, Note_on_c, 0, 58, 104
1, 1147592, Note_on_c, 0, 66, 95
1, 1147592, Note_on_c, 0, 69, 95
1, 1147592, Note_on_c, 0, 75, 95
1, 1147595, Note_on_c, 0, 58, 0
1, 1147595, Note_on_c, 0, 78, 107
1, 1147595, Note_on_c, 0, 60, 108
1, 1147633, Control_c, 0, 64, 0
1, 1147633, Control_c, 0, 64, 0
1, 1147699, Note_on_c, 0, 66, 0
1, 1147699, Note_on_c, 0, 75, 0
1, 1147699, Note_on_c, 0, 69, 0
1, 1147702, Note_on_c, 0, 78, 0
1, 1147702, Note_on_c, 0, 64, 85
1, 1147702, Note_on_c, 0, 68, 85
1, 1147705, Note_on_c, 0, 60, 0
1, 1147705, Note_on_c, 0, 73, 85
1, 1147705, Note_on_c, 0, 76, 106
1, 1147708, Note_on_c, 0, 61, 113
1, 1147716, Control_c, 0, 64, 0
1, 1147716, Control_c, 0, 64, 0
1, 1147796, Control_c, 0, 64, 127
1, 1147796, Control_c, 0, 64, 127
1, 1147806, Note_on_c, 0, 61, 0
1, 1147806, Note_on_c, 0, 52, 88
1, 1147913, Note_on_c, 0, 64, 0
1, 1147913, Note_on_c, 0, 73, 0
1, 1147913, Note_on_c, 0, 68, 0
1, 1147916, Note_on_c, 0, 76, 0
1, 1147916, Note_on_c, 0, 52, 0
1, 1147916, Note_on_c, 0, 54, 94
1, 1148015, Control_c, 0, 64, 0
1, 1148015, Control_c, 0, 64, 0
1, 1148020, Note_on_c, 0, 62, 94
1, 1148020, Note_on_c, 0, 64, 94
1, 1148020, Note_on_c, 0, 71, 106
1, 1148023, Note_on_c, 0, 54, 0
1, 1148023, Note_on_c, 0, 74, 94
1, 1148023, Note_on_c, 0, 56, 100
1, 1148145, Note_on_c, 0, 62, 0
1, 1148145, Note_on_c, 0, 71, 0
1, 1148145, Note_on_c, 0, 64, 0
1, 1148148, Note_on_c, 0, 74, 0
1, 1148148, Note_on_c, 0, 61, 89
1, 1148148, Note_on_c, 0, 69, 89
1, 1148151, Note_on_c, 0, 56, 0
1, 1148151, Note_on_c, 0, 73, 101
1, 1148151, Note_on_c, 0, 57, 91
1, 1148197, Control_c, 0, 64, 127
1, 1148197, Control_c, 0, 64, 127
1, 1148210, Note_on_c, 0, 57, 0
1, 1148252, Note_on_c, 0, 49, 86
1, 1148317, Note_on_c, 0, 61, 0
1, 1148317, Note_on_c, 0, 73, 0
1, 1148317, Note_on_c, 0, 69, 0
1, 1148320, Note_on_c, 0, 49, 0
1, 1148359, Note_on_c, 0, 50, 91
1, 1148424, Note_on_c, 0, 50, 0
1, 1148466, Note_on_c, 0, 60, 98
1, 1148466, Note_on_c, 0, 69, 98
1, 1148466, Note_on_c, 0, 72, 110
1, 1148469, Control_c, 0, 64, 0
1, 1148469, Note_on_c, 0, 51, 98
1, 1148469, Control_c, 0, 64, 0
1, 1148531, Note_on_c, 0, 72, 0
1, 1148531, Note_on_c, 0, 60, 0
1, 1148531, Note_on_c, 0, 69, 0
1, 1148534, Note_on_c, 0, 51, 0
1, 1148573, Note_on_c, 0, 61, 100
1, 1148573, Note_on_c, 0, 69, 100
1, 1148573, Note_on_c, 0, 73, 112
1, 1148576, Note_on_c, 0, 52, 105
1, 1148638, Note_on_c, 0, 52, 0
1, 1148677, Control_c, 0, 64, 127
1, 1148677, Control_c, 0, 64, 127
1, 1148677, Note_on_c, 0, 45, 93
1, 1148745, Note_on_c, 0, 61, 0
1, 1148745, Note_on_c, 0, 73, 0
1, 1148745, Note_on_c, 0, 69, 0
1, 1148748, Note_on_c, 0, 45, 0
1, 1148786, Note_on_c, 0, 47, 100
1, 1148845, Control_c, 0, 64, 0
1, 1148845, Control_c, 0, 64, 0
1, 1148852, Note_on_c, 0, 47, 0
1, 1148893, Note_on_c, 0, 56, 95
1, 1148893, Note_on_c, 0, 64, 95
1, 1148893, Note_on_c, 0, 68, 108
1, 1148896, Note_on_c, 0, 48, 107
1, 1148959, Note_on_c, 0, 68, 0
1, 1148959, Note_on_c, 0, 56, 0
1, 1148959, Note_on_c, 0, 64, 0
1, 1148962, Note_on_c, 0, 48, 0
1, 1149000, Control_c, 0, 64, 0
1, 1149000, Note_on_c, 0, 57, 97
1, 1149000, Note_on_c, 0, 64, 97
1, 1149003, Note_on_c, 0, 69, 117
1, 1149003, Control_c, 0, 64, 0
1, 1149003, Note_on_c, 0, 49, 114
1, 1149066, Note_on_c, 0, 49, 0
1, 1149093, Control_c, 0, 64, 127
1, 1149093, Control_c, 0, 64, 127
1, 1149107, Note_on_c, 0, 40, 100
1, 1149173, Note_on_c, 0, 57, 0
1, 1149173, Note_on_c, 0, 69, 0
1, 1149173, Note_on_c, 0, 64, 0
1, 1149176, Note_on_c, 0, 40, 0
1, 1149214, Note_on_c, 0, 41, 107
1, 1149280, Note_on_c, 0, 41, 0
1, 1149303, Control_c, 0, 64, 0
1, 1149303, Control_c, 0, 64, 0
1, 1149321, Note_on_c, 0, 51, 101
1, 1149321, Note_on_c, 0, 57, 101
1, 1149321, Note_on_c, 0, 60, 101
1, 1149324, Note_on_c, 0, 63, 114
1, 1149324, Note_on_c, 0, 42, 114
1, 1149386, Note_on_c, 0, 60, 0
1, 1149386, Note_on_c, 0, 51, 0
1, 1149386, Note_on_c, 0, 57, 0
1, 1149389, Note_on_c, 0, 63, 0
1, 1149389, Note_on_c, 0, 42, 0
1, 1149428, Note_on_c, 0, 52, 103
1, 1149428, Note_on_c, 0, 57, 103
1, 1149428, Note_on_c, 0, 61, 117
1, 1149431, Note_on_c, 0, 64, 103
1, 1149431, Note_on_c, 0, 43, 117
1, 1149449, Control_c, 0, 64, 0
1, 1149449, Control_c, 0, 64, 0
1, 1149509, Note_on_c, 0, 43, 0
1, 1149548, Control_c, 0, 64, 127
1, 1149548, Control_c, 0, 64, 127
1, 1149560, Note_on_c, 0, 42, 108
1, 1149629, Note_on_c, 0, 52, 0
1, 1149629, Note_on_c, 0, 61, 0
1, 1149629, Note_on_c, 0, 57, 0
1, 1149632, Note_on_c, 0, 64, 0
1, 1149632, Note_on_c, 0, 42, 0
1, 1149673, Note_on_c, 0, 43, 117
1, 1149744, Control_c, 0, 64, 0
1, 1149744, Control_c, 0, 64, 0
1, 1149749, Note_on_c, 0, 43, 0
1, 1149798, Note_on_c, 0, 52, 108
1, 1149798, Note_on_c, 0, 57, 108
1, 1149798, Note_on_c, 0, 61, 117
1, 1149801, Note_on_c, 0, 64, 108
1, 1149801, Note_on_c, 0, 31, 117
1, 1149878, Note_on_c, 0, 61, 0
1, 1149878, Note_on_c, 0, 52, 0
1, 1149878, Note_on_c, 0, 57, 0
1, 1149881, Note_on_c, 0, 64, 0
1, 1149881, Note_on_c, 0, 31, 0
1, 1149930, Control_c, 0, 64, 0
1, 1149930, Control_c, 0, 64, 0
1, 1149930, Note_on_c, 0, 52, 93
1, 1149933, Note_on_c, 0, 56, 93
1, 1149933, Note_on_c, 0, 61, 93
1, 1149933, Note_on_c, 0, 64, 114
1, 1149936, Control_c, 0, 64, 0
1, 1149936, Note_on_c, 0, 32, 93
1, 1149936, Note_on_c, 0, 44, 93
1, 1150010, Note_on_c, 0, 61, 0
1, 1150010, Note_on_c, 0, 52, 0
1, 1150010, Note_on_c, 0, 56, 0
1, 1150062, Note_on_c, 0, 63, 90
1, 1150138, Note_on_c, 0, 63, 0
1, 1150138, Note_on_c, 0, 64, 0
1, 1150138, Note_on_c, 0, 32, 0
1, 1150141, Note_on_c, 0, 44, 0
1, 1150187, Note_on_c, 0, 64, 91
1, 1150255, Note_on_c, 0, 64, 0
1, 1150299, Note_on_c, 0, 68, 86
1, 1150299, Note_on_c, 0, 65, 83
1, 1150299, Note_on_c, 0, 59, 81
1, 1150302, Note_on_c, 0, 62, 91
1, 1150367, Note_on_c, 0, 59, 0
1, 1150367, Note_on_c, 0, 68, 0
1, 1150367, Note_on_c, 0, 65, 0
1, 1150370, Note_on_c, 0, 62, 0
1, 1150411, Note_on_c, 0, 73, 97
1, 1150411, Note_on_c, 0, 66, 85
1, 1150411, Note_on_c, 0, 57, 82
1, 1150414, Note_on_c, 0, 61, 92
1, 1150476, Note_on_c, 0, 66, 0
1, 1150518, Note_on_c, 0, 61, 85
1, 1150583, Note_on_c, 0, 61, 0
1, 1150583, Note_on_c, 0, 73, 0
1, 1150583, Note_on_c, 0, 57, 0
1, 1150586, Note_on_c, 0, 61, 0
1, 1150625, Note_on_c, 0, 62, 86
1, 1150690, Note_on_c, 0, 62, 0
1, 1150732, Note_on_c, 0, 66, 91
1, 1150732, Note_on_c, 0, 63, 88
1, 1150732, Note_on_c, 0, 57, 85
1, 1150735, Note_on_c, 0, 60, 95
1, 1150797, Note_on_c, 0, 57, 0
1, 1150797, Note_on_c, 0, 66, 0
1, 1150797, Note_on_c, 0, 63, 0
1, 1150800, Note_on_c, 0, 60, 0
1, 1150839, Note_on_c, 0, 71, 101
1, 1150839, Note_on_c, 0, 65, 89
1, 1150839, Note_on_c, 0, 56, 86
1, 1150842, Note_on_c, 0, 61, 96
1, 1150904, Note_on_c, 0, 65, 0
1, 1150946, Note_on_c, 0, 64, 90
1, 1151011, Note_on_c, 0, 64, 0
1, 1151011, Note_on_c, 0, 71, 0
1, 1151011, Note_on_c, 0, 56, 0
1, 1151014, Note_on_c, 0, 61, 0
1, 1151053, Note_on_c, 0, 65, 91
1, 1151118, Note_on_c, 0, 65, 0
1, 1151160, Note_on_c, 0, 74, 95
1, 1151160, Note_on_c, 0, 68, 92
1, 1151160, Note_on_c, 0, 53, 89
1, 1151163, Note_on_c, 0, 59, 100
1, 1151225, Note_on_c, 0, 53, 0
1, 1151225, Note_on_c, 0, 74, 0
1, 1151225, Note_on_c, 0, 68, 0
1, 1151228, Note_on_c, 0, 59, 0
1, 1151267, Note_on_c, 0, 73, 105
1, 1151267, Note_on_c, 0, 69, 93
1, 1151267, Note_on_c, 0, 54, 89
1, 1151270, Note_on_c, 0, 57, 101
1, 1151332, Note_on_c, 0, 69, 0
1, 1151374, Note_on_c, 0, 68, 94
1, 1151439, Note_on_c, 0, 68, 0
1, 1151439, Note_on_c, 0, 73, 0
1, 1151439, Note_on_c, 0, 54, 0
1, 1151442, Note_on_c, 0, 57, 0
1, 1151481, Note_on_c, 0, 69, 95
1, 1151546, Note_on_c, 0, 69, 0
1, 1151588, Note_on_c, 0, 78, 109
1, 1151588, Note_on_c, 0, 72, 97
1, 1151588, Note_on_c, 0, 51, 104
1, 1151591, Note_on_c, 0, 57, 92
1, 1151653, Note_on_c, 0, 51, 0
1, 1151653, Note_on_c, 0, 78, 0
1, 1151653, Note_on_c, 0, 72, 0
1, 1151656, Note_on_c, 0, 57, 0
1, 1151695, Control_c, 0, 64, 0
1, 1151695, Note_on_c, 0, 71, 98
1, 1151695, Note_on_c, 0, 77, 110
1, 1151698, Control_c, 0, 64, 0
1, 1151698, Control_c, 0, 64, 0
1, 1151698, Control_c, 0, 64, 0
1, 1151701, Note_on_c, 0, 49, 106
1, 1151701, Note_on_c, 0, 56, 94
1, 1151760, Note_on_c, 0, 71, 0
1, 1151802, Note_on_c, 0, 70, 99
1, 1151867, Note_on_c, 0, 70, 0
1, 1151867, Note_on_c, 0, 77, 0
1, 1151867, Note_on_c, 0, 49, 0
1, 1151870, Note_on_c, 0, 56, 0
1, 1151909, Note_on_c, 0, 71, 100
1, 1151974, Note_on_c, 0, 71, 0
1, 1152016, Note_on_c, 0, 74, 101
1, 1152016, Note_on_c, 0, 80, 113
1, 1152016, Note_on_c, 0, 47, 109
1, 1152019, Note_on_c, 0, 53, 97
1, 1152081, Note_on_c, 0, 47, 0
1, 1152081, Note_on_c, 0, 74, 0
1, 1152081, Note_on_c, 0, 80, 0
1, 1152084, Note_on_c, 0, 53, 0
1, 1152123, Note_on_c, 0, 73, 102
1, 1152123, Note_on_c, 0, 78, 108
1, 1152123, Note_on_c, 0, 45, 110
1, 1152126, Note_on_c, 0, 54, 97
1, 1152188, Note_on_c, 0, 73, 0
1, 1152230, Note_on_c, 0, 72, 103
1, 1152295, Note_on_c, 0, 72, 0
1, 1152295, Note_on_c, 0, 78, 0
1, 1152295, Note_on_c, 0, 45, 0
1, 1152298, Note_on_c, 0, 54, 0
1, 1152337, Note_on_c, 0, 73, 104
1, 1152402, Note_on_c, 0, 73, 0
1, 1152444, Note_on_c, 0, 77, 106
1, 1152444, Note_on_c, 0, 83, 117
1, 1152444, Note_on_c, 0, 44, 114
1, 1152447, Note_on_c, 0, 50, 100
1, 1152509, Note_on_c, 0, 44, 0
1, 1152509, Note_on_c, 0, 77, 0
1, 1152509, Note_on_c, 0, 83, 0
1, 1152512, Note_on_c, 0, 50, 0
1, 1152551, Note_on_c, 0, 78, 107
1, 1152551, Note_on_c, 0, 81, 117
1, 1152551, Note_on_c, 0, 42, 115
1, 1152554, Note_on_c, 0, 49, 101
1, 1152648, Note_on_c, 0, 78, 0
1, 1152661, Control_c, 0, 64, 127
1, 1152661, Control_c, 0, 64, 127
1, 1152661, Control_c, 0, 64, 127
1, 1152711, Note_on_c, 0, 77, 107
1, 1152780, Note_on_c, 0, 77, 0
1, 1152780, Note_on_c, 0, 81, 0
1, 1152780, Note_on_c, 0, 42, 0
1, 1152783, Note_on_c, 0, 49, 0
1, 1152823, Note_on_c, 0, 78, 109
1, 1152900, Note_on_c, 0, 78, 0
1, 1152948, Note_on_c, 0, 81, 117
1, 1152948, Note_on_c, 0, 85, 117
1, 1152948, Note_on_c, 0, 90, 117
1, 1152951, Note_on_c, 0, 93, 117
1, 1152951, Note_on_c, 0, 42, 117
1, 1152951, Note_on_c, 0, 49, 104
1, 1152954, Note_on_c, 0, 54, 117
1, 1153080, Note_on_c, 0, 90, 0
1, 1153080, Note_on_c, 0, 81, 0
1, 1153080, Note_on_c, 0, 85, 0
1, 1153083, Note_on_c, 0, 42, 0
1, 1153083, Note_on_c, 0, 93, 0
1, 1153083, Note_on_c, 0, 49, 0
1, 1153086, Note_on_c, 0, 54, 0
1, 1153161, Control_c, 0, 64, 0
1, 1153161, Control_c, 0, 64, 0
1, 1153161, Control_c, 0, 64, 0
1, 1153164, Note_on_c, 0, 80, 111
1, 1153164, Note_on_c, 0, 85, 111
1, 1153164, Note_on_c, 0, 88, 117
1, 1153167, Note_on_c, 0, 92, 111
1, 1153167, Note_on_c, 0, 37, 117
1, 1153167, Note_on_c, 0, 44, 105
1, 1153170, Note_on_c, 0, 49, 117
1, 1154178, Note_on_c, 0, 88, 0
1, 1154178, Note_on_c, 0, 80, 0
1, 1154178, Note_on_c, 0, 85, 0
1, 1154181, Note_on_c, 0, 37, 0
1, 1154181, Note_on_c, 0, 92, 0
1, 1154181, Note_on_c, 0, 44, 0
1, 1154184, Note_on_c, 0, 49, 0
1, 1156085, Control_c, 0, 64, 127
1, 1156085, Control_c, 0, 64, 127
1, 1156085, Note_on_c, 0, 44, 73
1, 1156272, Note_on_c, 0, 59, 58
1, 1156365, Note_on_c, 0, 59, 0
1, 1156365, Note_on_c, 0, 51, 58
1, 1156365, Note_on_c, 0, 56, 58
1, 1156459, Note_on_c, 0, 56, 0
1, 1156459, Note_on_c, 0, 51, 0
1, 1156459, Note_on_c, 0, 59, 58
1, 1156539, Note_on_c, 0, 59, 0
1, 1156539, Note_on_c, 0, 50, 58
1, 1156609, Note_on_c, 0, 50, 0
1, 1156609, Note_on_c, 0, 59, 58
1, 1156680, Note_on_c, 0, 59, 0
1, 1156680, Note_on_c, 0, 51, 58
1, 1156680, Note_on_c, 0, 56, 58
1, 1156750, Note_on_c, 0, 56, 0
1, 1156750, Note_on_c, 0, 51, 0
1, 1156750, Note_on_c, 0, 59, 58
1, 1156820, Note_on_c, 0, 59, 0
1, 1156820, Note_on_c, 0, 50, 59
1, 1156890, Note_on_c, 0, 50, 0
1, 1156890, Note_on_c, 0, 59, 57
1, 1156960, Note_on_c, 0, 59, 0
1, 1156960, Note_on_c, 0, 51, 57
1, 1156960, Note_on_c, 0, 56, 57
1, 1157031, Note_on_c, 0, 56, 0
1, 1157031, Note_on_c, 0, 51, 0
1, 1157031, Note_on_c, 0, 59, 58
1, 1157101, Note_on_c, 0, 59, 0
1, 1157101, Note_on_c, 0, 50, 58
1, 1157171, Note_on_c, 0, 50, 0
1, 1157171, Note_on_c, 0, 59, 57
1, 1157241, Note_on_c, 0, 59, 0
1, 1157241, Note_on_c, 0, 51, 57
1, 1157241, Note_on_c, 0, 56, 57
1, 1157311, Note_on_c, 0, 56, 0
1, 1157311, Note_on_c, 0, 51, 0
1, 1157311, Note_on_c, 0, 59, 56
1, 1157382, Note_on_c, 0, 59, 0
1, 1157382, Note_on_c, 0, 44, 0
1, 1157382, Note_on_c, 0, 44, 66
1, 1157436, Control_c, 0, 64, 0
1, 1157436, Control_c, 0, 64, 0
1, 1157506, Note_on_c, 0, 59, 56
1, 1157525, Control_c, 0, 64, 127
1, 1157525, Control_c, 0, 64, 127
1, 1157600, Note_on_c, 0, 59, 0
1, 1157600, Note_on_c, 0, 51, 56
1, 1157600, Note_on_c, 0, 56, 56
1, 1157686, Note_on_c, 0, 56, 0
1, 1157686, Note_on_c, 0, 51, 0
1, 1157686, Note_on_c, 0, 59, 56
1, 1157757, Note_on_c, 0, 59, 0
1, 1157757, Note_on_c, 0, 50, 56
1, 1157827, Note_on_c, 0, 50, 0
1, 1157827, Note_on_c, 0, 59, 56
1, 1157897, Note_on_c, 0, 59, 0
1, 1157897, Note_on_c, 0, 51, 56
1, 1157897, Note_on_c, 0, 56, 56
1, 1157967, Note_on_c, 0, 56, 0
1, 1157967, Note_on_c, 0, 51, 0
1, 1157967, Note_on_c, 0, 59, 56
1, 1158037, Note_on_c, 0, 59, 0
1, 1158037, Note_on_c, 0, 50, 55
1, 1158108, Note_on_c, 0, 50, 0
1, 1158108, Note_on_c, 0, 59, 55
1, 1158178, Note_on_c, 0, 59, 0
1, 1158178, Note_on_c, 0, 51, 55
1, 1158178, Note_on_c, 0, 56, 55
1, 1158248, Note_on_c, 0, 56, 0
1, 1158248, Note_on_c, 0, 51, 0
1, 1158248, Note_on_c, 0, 59, 55
1, 1158323, Note_on_c, 0, 59, 0
1, 1158323, Note_on_c, 0, 50, 55
1, 1158403, Note_on_c, 0, 50, 0
1, 1158403, Note_on_c, 0, 59, 55
1, 1158490, Note_on_c, 0, 59, 0
1, 1158490, Note_on_c, 0, 51, 55
1, 1158490, Note_on_c, 0, 56, 55
1, 1158583, Note_on_c, 0, 56, 0
1, 1158583, Note_on_c, 0, 51, 0
1, 1158583, Note_on_c, 0, 59, 55
1, 1158685, Control_c, 0, 64, 0
1, 1158685, Note_on_c, 0, 80, 92
1, 1158685, Control_c, 0, 64, 0
1, 1158688, Note_on_c, 0, 59, 0
1, 1158688, Note_on_c, 0, 44, 0
1, 1158688, Note_on_c, 0, 44, 76
1, 1158872, Note_on_c, 0, 59, 55
1, 1158882, Control_c, 0, 64, 127
1, 1158882, Control_c, 0, 64, 127
1, 1158966, Note_on_c, 0, 59, 0
1, 1158966, Note_on_c, 0, 51, 55
1, 1158966, Note_on_c, 0, 56, 55
1, 1159060, Note_on_c, 0, 56, 0
1, 1159060, Note_on_c, 0, 51, 0
1, 1159060, Note_on_c, 0, 59, 55
1, 1159146, Note_on_c, 0, 59, 0
1, 1159146, Note_on_c, 0, 50, 55
1, 1159232, Note_on_c, 0, 50, 0
1, 1159232, Note_on_c, 0, 59, 55
1, 1159313, Note_on_c, 0, 59, 0
1, 1159313, Note_on_c, 0, 51, 55
1, 1159313, Note_on_c, 0, 56, 55
1, 1159393, Note_on_c, 0, 56, 0
1, 1159393, Note_on_c, 0, 51, 0
1, 1159393, Note_on_c, 0, 59, 55
1, 1159473, Note_on_c, 0, 59, 0
1, 1159473, Note_on_c, 0, 75, 92
1, 1159473, Note_on_c, 0, 50, 55
1, 1159485, Note_on_c, 0, 80, 0
1, 1159548, Note_on_c, 0, 50, 0
1, 1159548, Note_on_c, 0, 59, 55
1, 1159618, Note_on_c, 0, 59, 0
1, 1159618, Note_on_c, 0, 51, 55
1, 1159618, Note_on_c, 0, 56, 55
1, 1159688, Note_on_c, 0, 56, 0
1, 1159688, Note_on_c, 0, 51, 0
1, 1159688, Note_on_c, 0, 59, 55
1, 1159759, Note_on_c, 0, 59, 0
1, 1159759, Note_on_c, 0, 50, 55
1, 1159829, Note_on_c, 0, 50, 0
1, 1159829, Note_on_c, 0, 59, 55
1, 1159899, Note_on_c, 0, 59, 0
1, 1159899, Note_on_c, 0, 51, 55
1, 1159899, Note_on_c, 0, 56, 55
1, 1159969, Note_on_c, 0, 56, 0
1, 1159969, Note_on_c, 0, 51, 0
1, 1159969, Note_on_c, 0, 59, 55
1, 1160039, Note_on_c, 0, 59, 0
1, 1160039, Note_on_c, 0, 44, 0
1, 1160039, Note_on_c, 0, 44, 72
1, 1160094, Control_c, 0, 64, 0
1, 1160094, Control_c, 0, 64, 0
1, 1160164, Note_on_c, 0, 59, 55
1, 1160183, Control_c, 0, 64, 127
1, 1160183, Control_c, 0, 64, 127
1, 1160258, Note_on_c, 0, 59, 0
1, 1160258, Note_on_c, 0, 51, 55
1, 1160258, Note_on_c, 0, 56, 55
1, 1160344, Note_on_c, 0, 56, 0
1, 1160344, Note_on_c, 0, 51, 0
1, 1160344, Note_on_c, 0, 59, 55
1, 1160362, Note_on_c, 0, 73, 84
1, 1160379, Note_on_c, 0, 75, 0
1, 1160448, Note_on_c, 0, 59, 0
1, 1160448, Note_on_c, 0, 50, 55
1, 1160556, Note_on_c, 0, 50, 0
1, 1160556, Note_on_c, 0, 59, 55
1, 1160664, Note_on_c, 0, 59, 0
1, 1160664, Note_on_c, 0, 51, 55
1, 1160664, Note_on_c, 0, 56, 55
1, 1160707, Note_on_c, 0, 71, 86
1, 1160719, Note_on_c, 0, 73, 0
1, 1160752, Note_on_c, 0, 56, 0
1, 1160752, Note_on_c, 0, 51, 0
1, 1160752, Note_on_c, 0, 59, 55
1, 1160827, Note_on_c, 0, 59, 0
1, 1160827, Note_on_c, 0, 50, 55
1, 1160902, Note_on_c, 0, 50, 0
1, 1160902, Note_on_c, 0, 59, 55
1, 1160947, Note_on_c, 0, 70, 86
1, 1160958, Note_on_c, 0, 71, 0
1, 1160975, Note_on_c, 0, 59, 0
1, 1160975, Note_on_c, 0, 51, 55
1, 1160975, Note_on_c, 0, 56, 55
1, 1161045, Note_on_c, 0, 56, 0
1, 1161045, Note_on_c, 0, 51, 0
1, 1161045, Note_on_c, 0, 59, 54
1, 1161115, Note_on_c, 0, 59, 0
1, 1161115, Note_on_c, 0, 50, 52
1, 1161171, Note_on_c, 0, 68, 81
1, 1161188, Note_on_c, 0, 70, 0
1, 1161193, Note_on_c, 0, 50, 0
1, 1161193, Note_on_c, 0, 59, 51
1, 1161301, Note_on_c, 0, 59, 0
1, 1161301, Note_on_c, 0, 51, 50
1, 1161301, Note_on_c, 0, 56, 50
1, 1161409, Note_on_c, 0, 56, 0
1, 1161409, Note_on_c, 0, 51, 0
1, 1161409, Note_on_c, 0, 59, 48
1, 1161458, Control_c, 0, 64, 0
1, 1161458, Control_c, 0, 64, 0
1, 1161493, Control_c, 0, 64, 127
1, 1161493, Control_c, 0, 64, 127
1, 1161517, Control_c, 0, 64, 127
1, 1161517, Note_on_c, 0, 76, 89
1, 1161517, Control_c, 0, 64, 127
1, 1161520, Note_on_c, 0, 59, 0
1, 1161520, Note_on_c, 0, 44, 0
1, 1161520, Note_on_c, 0, 44, 71
1, 1161539, Note_on_c, 0, 68, 0
1, 1161608, Control_c, 0, 64, 0
1, 1161608, Control_c, 0, 64, 0
1, 1161657, Note_on_c, 0, 62, 56
1, 1161683, Control_c, 0, 64, 127
1, 1161683, Control_c, 0, 64, 127
1, 1161738, Note_on_c, 0, 62, 0
1, 1161738, Note_on_c, 0, 52, 56
1, 1161738, Note_on_c, 0, 59, 56
1, 1161818, Note_on_c, 0, 59, 0
1, 1161818, Note_on_c, 0, 52, 0
1, 1161818, Note_on_c, 0, 62, 56
1, 1161893, Note_on_c, 0, 62, 0
1, 1161893, Note_on_c, 0, 58, 55
1, 1161968, Note_on_c, 0, 58, 0
1, 1161968, Note_on_c, 0, 62, 54
1, 1162042, Note_on_c, 0, 62, 0
1, 1162042, Note_on_c, 0, 52, 55
1, 1162042, Note_on_c, 0, 59, 55
1, 1162113, Note_on_c, 0, 59, 0
1, 1162113, Note_on_c, 0, 52, 0
1, 1162113, Note_on_c, 0, 62, 55
1, 1162183, Note_on_c, 0, 62, 0
1, 1162183, Note_on_c, 0, 58, 54
1, 1162253, Note_on_c, 0, 58, 0
1, 1162253, Note_on_c, 0, 62, 53
1, 1162323, Note_on_c, 0, 62, 0
1, 1162323, Note_on_c, 0, 52, 53
1, 1162323, Note_on_c, 0, 59, 53
1, 1162393, Note_on_c, 0, 59, 0
1, 1162393, Note_on_c, 0, 52, 0
1, 1162393, Note_on_c, 0, 62, 52
1, 1162464, Note_on_c, 0, 62, 0
1, 1162464, Note_on_c, 0, 58, 53
1, 1162534, Note_on_c, 0, 58, 0
1, 1162534, Note_on_c, 0, 62, 52
1, 1162604, Note_on_c, 0, 62, 0
1, 1162604, Note_on_c, 0, 52, 51
1, 1162604, Note_on_c, 0, 59, 51
1, 1162674, Note_on_c, 0, 59, 0
1, 1162674, Note_on_c, 0, 52, 0
1, 1162674, Note_on_c, 0, 62, 51
1, 1162744, Note_on_c, 0, 62, 0
1, 1162744, Note_on_c, 0, 44, 0
1, 1162744, Note_on_c, 0, 73, 74
1, 1162747, Note_on_c, 0, 45, 63
1, 1162764, Note_on_c, 0, 76, 0
1, 1162799, Control_c, 0, 64, 0
1, 1162799, Control_c, 0, 64, 0
1, 1162869, Note_on_c, 0, 61, 49
1, 1162887, Control_c, 0, 64, 127
1, 1162887, Control_c, 0, 64, 127
1, 1162956, Note_on_c, 0, 61, 0
1, 1162956, Note_on_c, 0, 52, 49
1, 1162956, Note_on_c, 0, 57, 49
1, 1163036, Note_on_c, 0, 57, 0
1, 1163036, Note_on_c, 0, 52, 0
1, 1163036, Note_on_c, 0, 61, 49
1, 1163111, Note_on_c, 0, 61, 0
1, 1163111, Note_on_c, 0, 51, 49
1, 1163186, Note_on_c, 0, 51, 0
1, 1163186, Note_on_c, 0, 61, 49
1, 1163256, Note_on_c, 0, 61, 0
1, 1163256, Note_on_c, 0, 52, 49
1, 1163256, Note_on_c, 0, 57, 49
1, 1163326, Note_on_c, 0, 57, 0
1, 1163326, Note_on_c, 0, 52, 0
1, 1163326, Note_on_c, 0, 61, 49
1, 1163396, Note_on_c, 0, 61, 0
1, 1163396, Note_on_c, 0, 73, 0
1, 1163396, Note_on_c, 0, 51, 49
1, 1163466, Note_on_c, 0, 51, 0
1, 1163466, Note_on_c, 0, 61, 49
1, 1163541, Note_on_c, 0, 61, 0
1, 1163541, Note_on_c, 0, 52, 49
1, 1163541, Note_on_c, 0, 57, 49
1, 1163622, Note_on_c, 0, 57, 0
1, 1163622, Note_on_c, 0, 52, 0
1, 1163622, Note_on_c, 0, 61, 49
1, 1163708, Note_on_c, 0, 61, 0
1, 1163708, Note_on_c, 0, 51, 49
1, 1163802, Note_on_c, 0, 51, 0
1, 1163802, Note_on_c, 0, 61, 49
1, 1163904, Note_on_c, 0, 61, 0
1, 1163904, Note_on_c, 0, 52, 49
1, 1163904, Note_on_c, 0, 57, 49
1, 1164012, Note_on_c, 0, 57, 0
1, 1164012, Note_on_c, 0, 52, 0
1, 1164012, Note_on_c, 0, 61, 49
1, 1164068, Control_c, 0, 64, 0
1, 1164068, Control_c, 0, 64, 0
1, 1164136, Control_c, 0, 64, 0
1, 1164136, Note_on_c, 0, 75, 87
1, 1164136, Control_c, 0, 64, 0
1, 1164139, Note_on_c, 0, 61, 0
1, 1164139, Note_on_c, 0, 45, 0
1, 1164139, Note_on_c, 0, 43, 68
1, 1164322, Control_c, 0, 64, 127
1, 1164322, Control_c, 0, 64, 127
1, 1164322, Note_on_c, 0, 61, 55
1, 1164417, Note_on_c, 0, 61, 0
1, 1164417, Note_on_c, 0, 51, 55
1, 1164417, Note_on_c, 0, 58, 55
1, 1164511, Note_on_c, 0, 58, 0
1, 1164511, Note_on_c, 0, 51, 0
1, 1164511, Note_on_c, 0, 61, 55
1, 1164591, Note_on_c, 0, 61, 0
1, 1164591, Note_on_c, 0, 50, 55
1, 1164661, Note_on_c, 0, 50, 0
1, 1164661, Note_on_c, 0, 61, 55
1, 1164731, Note_on_c, 0, 61, 0
1, 1164731, Note_on_c, 0, 51, 55
1, 1164731, Note_on_c, 0, 58, 55
1, 1164802, Note_on_c, 0, 58, 0
1, 1164802, Note_on_c, 0, 51, 0
1, 1164802, Note_on_c, 0, 61, 55
1, 1164872, Note_on_c, 0, 61, 0
1, 1164872, Note_on_c, 0, 70, 81
1, 1164872, Note_on_c, 0, 50, 55
1, 1164883, Note_on_c, 0, 75, 0
1, 1164942, Note_on_c, 0, 50, 0
1, 1164942, Note_on_c, 0, 61, 55
1, 1165012, Note_on_c, 0, 61, 0
1, 1165012, Note_on_c, 0, 51, 55
1, 1165012, Note_on_c, 0, 58, 55
1, 1165082, Note_on_c, 0, 58, 0
1, 1165082, Note_on_c, 0, 51, 0
1, 1165082, Note_on_c, 0, 61, 55
1, 1165153, Note_on_c, 0, 61, 0
1, 1165153, Note_on_c, 0, 50, 55
1, 1165223, Note_on_c, 0, 50, 0
1, 1165223, Note_on_c, 0, 61, 55
1, 1165293, Note_on_c, 0, 61, 0
1, 1165293, Note_on_c, 0, 51, 55
1, 1165293, Note_on_c, 0, 58, 55
1, 1165363, Note_on_c, 0, 58, 0
1, 1165363, Note_on_c, 0, 51, 0
1, 1165363, Note_on_c, 0, 61, 55
1, 1165433, Note_on_c, 0, 61, 0
1, 1165433, Note_on_c, 0, 43, 0
1, 1165433, Note_on_c, 0, 44, 68
1, 1165488, Control_c, 0, 64, 0
1, 1165488, Control_c, 0, 64, 0
1, 1165488, Control_c, 0, 64, 0
1, 1165491, Control_c, 0, 64, 0
1, 1165558, Note_on_c, 0, 59, 55
1, 1165577, Control_c, 0, 64, 127
1, 1165577, Control_c, 0, 64, 127
1, 1165577, Control_c, 0, 64, 127
1, 1165580, Control_c, 0, 64, 127
1, 1165652, Note_on_c, 0, 59, 0
1, 1165652, Note_on_c, 0, 51, 55
1, 1165652, Note_on_c, 0, 56, 55
1, 1165738, Note_on_c, 0, 56, 0
1, 1165738, Note_on_c, 0, 51, 0
1, 1165738, Note_on_c, 0, 59, 55
1, 1165756, Note_on_c, 0, 73, 84
1, 1165773, Note_on_c, 0, 70, 0
1, 1165842, Note_on_c, 0, 59, 0
1, 1165842, Note_on_c, 0, 50, 55
1, 1165950, Note_on_c, 0, 50, 0
1, 1165950, Note_on_c, 0, 59, 55
1, 1166058, Note_on_c, 0, 59, 0
1, 1166058, Note_on_c, 0, 51, 55
1, 1166058, Note_on_c, 0, 56, 55
1, 1166101, Note_on_c, 0, 71, 86
1, 1166113, Note_on_c, 0, 73, 0
1, 1166146, Note_on_c, 0, 56, 0
1, 1166146, Note_on_c, 0, 51, 0
1, 1166146, Note_on_c, 0, 59, 55
1, 1166221, Note_on_c, 0, 59, 0
1, 1166221, Note_on_c, 0, 50, 55
1, 1166296, Note_on_c, 0, 50, 0
1, 1166296, Note_on_c, 0, 59, 55
1, 1166341, Note_on_c, 0, 70, 85
1, 1166352, Note_on_c, 0, 71, 0
1, 1166369, Note_on_c, 0, 59, 0
1, 1166369, Note_on_c, 0, 51, 55
1, 1166369, Note_on_c, 0, 56, 55
1, 1166439, Note_on_c, 0, 56, 0
1, 1166439, Note_on_c, 0, 51, 0
1, 1166439, Note_on_c, 0, 59, 55
1, 1166509, Note_on_c, 0, 59, 0
1, 1166509, Note_on_c, 0, 50, 55
1, 1166565, Note_on_c, 0, 68, 80
1, 1166582, Note_on_c, 0, 70, 0
1, 1166587, Note_on_c, 0, 50, 0
1, 1166587, Note_on_c, 0, 59, 55
1, 1166695, Note_on_c, 0, 59, 0
1, 1166695, Note_on_c, 0, 51, 55
1, 1166695, Note_on_c, 0, 56, 55
1, 1166803, Note_on_c, 0, 56, 0
1, 1166803, Note_on_c, 0, 51, 0
1, 1166803, Note_on_c, 0, 59, 55
1, 1166825, Note_on_c, 0, 68, 0
1, 1166825, Note_on_c, 0, 68, 80
1, 1166860, Control_c, 0, 64, 0
1, 1166860, Control_c, 0, 64, 0
1, 1166860, Control_c, 0, 64, 0
1, 1166863, Control_c, 0, 64, 0
1, 1166937, Control_c, 0, 64, 0
1, 1166937, Control_c, 0, 64, 0
1, 1166937, Note_on_c, 0, 70, 87
1, 1166940, Note_on_c, 0, 44, 0
1, 1166940, Control_c, 0, 64, 0
1, 1166940, Control_c, 0, 64, 0
1, 1166943, Note_on_c, 0, 59, 0
1, 1166943, Note_on_c, 0, 41, 69
1, 1166966, Note_on_c, 0, 68, 0
1, 1167102, Control_c, 0, 64, 127
1, 1167102, Control_c, 0, 64, 127
1, 1167124, Note_on_c, 0, 56, 55
1, 1167154, Control_c, 0, 64, 127
1, 1167154, Control_c, 0, 64, 127
1, 1167218, Note_on_c, 0, 56, 0
1, 1167218, Note_on_c, 0, 46, 55
1, 1167218, Note_on_c, 0, 50, 55
1, 1167311, Note_on_c, 0, 50, 0
1, 1167311, Note_on_c, 0, 46, 0
1, 1167311, Note_on_c, 0, 56, 55
1, 1167391, Note_on_c, 0, 56, 0
1, 1167391, Note_on_c, 0, 45, 55
1, 1167462, Note_on_c, 0, 45, 0
1, 1167462, Note_on_c, 0, 56, 55
1, 1167532, Note_on_c, 0, 56, 0
1, 1167532, Note_on_c, 0, 46, 55
1, 1167532, Note_on_c, 0, 50, 55
1, 1167602, Note_on_c, 0, 50, 0
1, 1167602, Note_on_c, 0, 46, 0
1, 1167602, Note_on_c, 0, 56, 55
1, 1167672, Note_on_c, 0, 56, 0
1, 1167672, Note_on_c, 0, 45, 55
1, 1167742, Note_on_c, 0, 45, 0
1, 1167742, Note_on_c, 0, 56, 55
1, 1167813, Note_on_c, 0, 56, 0
1, 1167813, Note_on_c, 0, 46, 55
1, 1167813, Note_on_c, 0, 50, 55
1, 1167883, Note_on_c, 0, 50, 0
1, 1167883, Note_on_c, 0, 46, 0
1, 1167883, Note_on_c, 0, 56, 55
1, 1167953, Note_on_c, 0, 56, 0
1, 1167953, Note_on_c, 0, 45, 55
1, 1168023, Note_on_c, 0, 45, 0
1, 1168023, Note_on_c, 0, 56, 55
1, 1168093, Note_on_c, 0, 56, 0
1, 1168093, Note_on_c, 0, 46, 55
1, 1168093, Note_on_c, 0, 50, 55
1, 1168164, Note_on_c, 0, 50, 0
1, 1168164, Note_on_c, 0, 46, 0
1, 1168164, Note_on_c, 0, 56, 55
1, 1168234, Note_on_c, 0, 41, 0
1, 1168234, Note_on_c, 0, 70, 0
1, 1168234, Note_on_c, 0, 63, 73
1, 1168237, Note_on_c, 0, 56, 0
1, 1168237, Note_on_c, 0, 39, 59
1, 1168288, Control_c, 0, 64, 0
1, 1168288, Control_c, 0, 64, 0
1, 1168288, Control_c, 0, 64, 0
1, 1168291, Control_c, 0, 64, 0
1, 1168359, Note_on_c, 0, 55, 55
1, 1168378, Control_c, 0, 64, 127
1, 1168378, Control_c, 0, 64, 127
1, 1168378, Control_c, 0, 64, 127
1, 1168381, Control_c, 0, 64, 127
1, 1168452, Note_on_c, 0, 55, 0
1, 1168452, Note_on_c, 0, 46, 55
1, 1168452, Note_on_c, 0, 51, 55
1, 1168539, Note_on_c, 0, 51, 0
1, 1168539, Note_on_c, 0, 46, 0
1, 1168539, Note_on_c, 0, 55, 55
1, 1168625, Note_on_c, 0, 55, 0
1, 1168625, Note_on_c, 0, 45, 55
1, 1168711, Note_on_c, 0, 45, 0
1, 1168711, Note_on_c, 0, 55, 55
1, 1168782, Note_on_c, 0, 55, 0
1, 1168782, Note_on_c, 0, 46, 55
1, 1168782, Note_on_c, 0, 51, 55
1, 1168852, Note_on_c, 0, 51, 0
1, 1168852, Note_on_c, 0, 46, 0
1, 1168852, Note_on_c, 0, 55, 55
1, 1168922, Note_on_c, 0, 55, 0
1, 1168922, Note_on_c, 0, 63, 0
1, 1168922, Note_on_c, 0, 45, 55
1, 1168997, Note_on_c, 0, 45, 0
1, 1168997, Note_on_c, 0, 55, 55
1, 1169077, Note_on_c, 0, 55, 0
1, 1169077, Note_on_c, 0, 46, 55
1, 1169077, Note_on_c, 0, 51, 55
1, 1169164, Note_on_c, 0, 51, 0
1, 1169164, Note_on_c, 0, 46, 0
1, 1169164, Note_on_c, 0, 55, 55
1, 1169257, Note_on_c, 0, 55, 0
1, 1169257, Note_on_c, 0, 45, 55
1, 1169359, Note_on_c, 0, 45, 0
1, 1169359, Note_on_c, 0, 55, 55
1, 1169467, Note_on_c, 0, 55, 0
1, 1169467, Note_on_c, 0, 46, 55
1, 1169467, Note_on_c, 0, 51, 55
1, 1169592, Note_on_c, 0, 51, 0
1, 1169592, Note_on_c, 0, 46, 0
1, 1169592, Note_on_c, 0, 55, 55
1, 1169656, Control_c, 0, 64, 0
1, 1169656, Control_c, 0, 64, 0
1, 1169656, Control_c, 0, 64, 0
1, 1169659, Control_c, 0, 64, 0
1, 1169732, Control_c, 0, 64, 127
1, 1169732, Note_on_c, 0, 80, 96
1, 1169732, Control_c, 0, 64, 127
1, 1169735, Note_on_c, 0, 55, 0
1, 1169735, Note_on_c, 0, 39, 0
1, 1169735, Note_on_c, 0, 44, 68
1, 1169920, Note_on_c, 0, 59, 55
1, 1170013, Note_on_c, 0, 59, 0
1, 1170013, Note_on_c, 0, 51, 55
1, 1170013, Note_on_c, 0, 56, 55
1, 1170107, Note_on_c, 0, 56, 0
1, 1170107, Note_on_c, 0, 51, 0
1, 1170107, Note_on_c, 0, 59, 55
1, 1170187, Note_on_c, 0, 59, 0
1, 1170187, Note_on_c, 0, 50, 55
1, 1170257, Note_on_c, 0, 50, 0
1, 1170257, Note_on_c, 0, 59, 55
1, 1170327, Note_on_c, 0, 59, 0
1, 1170327, Note_on_c, 0, 51, 55
1, 1170327, Note_on_c, 0, 56, 55
1, 1170398, Note_on_c, 0, 56, 0
1, 1170398, Note_on_c, 0, 51, 0
1, 1170398, Note_on_c, 0, 59, 55
1, 1170468, Note_on_c, 0, 59, 0
1, 1170468, Note_on_c, 0, 75, 96
1, 1170468, Note_on_c, 0, 50, 55
1, 1170479, Note_on_c, 0, 80, 0
1, 1170538, Note_on_c, 0, 50, 0
1, 1170538, Note_on_c, 0, 59, 55
1, 1170608, Note_on_c, 0, 59, 0
1, 1170608, Note_on_c, 0, 51, 55
1, 1170608, Note_on_c, 0, 56, 55
1, 1170678, Note_on_c, 0, 56, 0
1, 1170678, Note_on_c, 0, 51, 0
1, 1170678, Note_on_c, 0, 59, 55
1, 1170749, Note_on_c, 0, 59, 0
1, 1170749, Note_on_c, 0, 50, 55
1, 1170819, Note_on_c, 0, 50, 0
1, 1170819, Note_on_c, 0, 59, 55
1, 1170889, Note_on_c, 0, 59, 0
1, 1170889, Note_on_c, 0, 51, 55
1, 1170889, Note_on_c, 0, 56, 55
1, 1170959, Note_on_c, 0, 56, 0
1, 1170959, Note_on_c, 0, 51, 0
1, 1170959, Note_on_c, 0, 59, 55
1, 1171029, Note_on_c, 0, 59, 0
1, 1171029, Note_on_c, 0, 44, 0
1, 1171029, Note_on_c, 0, 68, 86
1, 1171032, Note_on_c, 0, 44, 68
1, 1171084, Control_c, 0, 64, 0
1, 1171084, Control_c, 0, 64, 0
1, 1171154, Note_on_c, 0, 59, 55
1, 1171173, Control_c, 0, 64, 127
1, 1171173, Control_c, 0, 64, 127
1, 1171248, Note_on_c, 0, 59, 0
1, 1171248, Note_on_c, 0, 51, 55
1, 1171248, Note_on_c, 0, 56, 55
1, 1171334, Note_on_c, 0, 56, 0
1, 1171334, Note_on_c, 0, 51, 0
1, 1171334, Note_on_c, 0, 59, 55
1, 1171352, Note_on_c, 0, 73, 90
1, 1171368, Note_on_c, 0, 75, 0
1, 1171433, Note_on_c, 0, 59, 0
1, 1171433, Note_on_c, 0, 50, 55
1, 1171535, Note_on_c, 0, 50, 0
1, 1171535, Note_on_c, 0, 59, 55
1, 1171637, Note_on_c, 0, 59, 0
1, 1171637, Note_on_c, 0, 51, 55
1, 1171637, Note_on_c, 0, 56, 55
1, 1171678, Note_on_c, 0, 71, 88
1, 1171690, Note_on_c, 0, 73, 0
1, 1171723, Note_on_c, 0, 56, 0
1, 1171723, Note_on_c, 0, 51, 0
1, 1171723, Note_on_c, 0, 59, 55
1, 1171798, Note_on_c, 0, 59, 0
1, 1171798, Note_on_c, 0, 63, 96
1, 1171798, Note_on_c, 0, 50, 55
1, 1171810, Note_on_c, 0, 68, 0
1, 1171873, Note_on_c, 0, 50, 0
1, 1171873, Note_on_c, 0, 59, 55
1, 1171918, Note_on_c, 0, 70, 86
1, 1171929, Note_on_c, 0, 71, 0
1, 1171946, Note_on_c, 0, 59, 0
1, 1171946, Note_on_c, 0, 51, 55
1, 1171946, Note_on_c, 0, 56, 55
1, 1172016, Note_on_c, 0, 56, 0
1, 1172016, Note_on_c, 0, 51, 0
1, 1172016, Note_on_c, 0, 59, 55
1, 1172086, Note_on_c, 0, 59, 0
1, 1172086, Note_on_c, 0, 50, 55
1, 1172142, Note_on_c, 0, 68, 84
1, 1172156, Note_on_c, 0, 70, 0
1, 1172160, Note_on_c, 0, 50, 0
1, 1172160, Note_on_c, 0, 59, 55
1, 1172246, Note_on_c, 0, 59, 0
1, 1172246, Note_on_c, 0, 51, 55
1, 1172246, Note_on_c, 0, 56, 55
1, 1172333, Note_on_c, 0, 56, 0
1, 1172333, Note_on_c, 0, 51, 0
1, 1172333, Note_on_c, 0, 59, 55
1, 1172372, Control_c, 0, 64, 0
1, 1172372, Control_c, 0, 64, 0
1, 1172419, Control_c, 0, 64, 0
1, 1172419, Note_on_c, 0, 71, 90
1, 1172419, Control_c, 0, 64, 0
1, 1172422, Note_on_c, 0, 59, 0
1, 1172422, Note_on_c, 0, 44, 0
1, 1172422, Note_on_c, 0, 44, 71
1, 1172448, Note_on_c, 0, 68, 0
1, 1172606, Note_on_c, 0, 59, 55
1, 1172667, Control_c, 0, 64, 127
1, 1172667, Control_c, 0, 64, 127
1, 1172700, Note_on_c, 0, 59, 0
1, 1172700, Note_on_c, 0, 49, 55
1, 1172700, Note_on_c, 0, 56, 55
1, 1172793, Note_on_c, 0, 56, 0
1, 1172793, Note_on_c, 0, 49, 0
1, 1172793, Note_on_c, 0, 59, 55
1, 1172812, Note_on_c, 0, 66, 87
1, 1172829, Note_on_c, 0, 63, 0
1, 1172899, Note_on_c, 0, 59, 0
1, 1172899, Note_on_c, 0, 48, 55
1, 1173007, Note_on_c, 0, 48, 0
1, 1173007, Note_on_c, 0, 59, 55
1, 1173115, Note_on_c, 0, 59, 0
1, 1173115, Note_on_c, 0, 49, 55
1, 1173115, Note_on_c, 0, 56, 55
1, 1173158, Note_on_c, 0, 65, 88
1, 1173169, Note_on_c, 0, 66, 0
1, 1173203, Note_on_c, 0, 56, 0
1, 1173203, Note_on_c, 0, 49, 0
1, 1173203, Note_on_c, 0, 59, 55
1, 1173277, Note_on_c, 0, 59, 0
1, 1173277, Note_on_c, 0, 48, 55
1, 1173352, Note_on_c, 0, 48, 0
1, 1173352, Note_on_c, 0, 59, 55
1, 1173397, Note_on_c, 0, 63, 87
1, 1173408, Note_on_c, 0, 65, 0
1, 1173425, Note_on_c, 0, 59, 0
1, 1173425, Note_on_c, 0, 49, 55
1, 1173425, Note_on_c, 0, 56, 55
1, 1173496, Note_on_c, 0, 56, 0
1, 1173496, Note_on_c, 0, 49, 0
1, 1173496, Note_on_c, 0, 59, 55
1, 1173566, Note_on_c, 0, 59, 0
1, 1173566, Note_on_c, 0, 48, 55
1, 1173622, Note_on_c, 0, 61, 86
1, 1173636, Note_on_c, 0, 63, 0
1, 1173641, Note_on_c, 0, 48, 0
1, 1173641, Note_on_c, 0, 59, 55
1, 1173734, Note_on_c, 0, 59, 0
1, 1173734, Note_on_c, 0, 49, 55
1, 1173734, Note_on_c, 0, 56, 55
1, 1173828, Note_on_c, 0, 56, 0
1, 1173828, Note_on_c, 0, 49, 0
1, 1173828, Note_on_c, 0, 59, 55
1, 1173922, Note_on_c, 0, 59, 0
1, 1173922, Note_on_c, 0, 44, 0
1, 1173922, Note_on_c, 0, 64, 86
1, 1173925, Note_on_c, 0, 42, 77
1, 1173941, Note_on_c, 0, 61, 0
1, 1173976, Control_c, 0, 64, 0
1, 1173976, Control_c, 0, 64, 0
1, 1174046, Note_on_c, 0, 58, 59
1, 1174065, Control_c, 0, 64, 127
1, 1174065, Control_c, 0, 64, 127
1, 1174140, Note_on_c, 0, 58, 0
1, 1174140, Note_on_c, 0, 49, 59
1, 1174226, Note_on_c, 0, 49, 0
1, 1174226, Note_on_c, 0, 71, 0
1, 1174226, Note_on_c, 0, 71, 89
1, 1174229, Note_on_c, 0, 58, 59
1, 1174313, Note_on_c, 0, 58, 0
1, 1174313, Note_on_c, 0, 48, 59
1, 1174399, Note_on_c, 0, 48, 0
1, 1174399, Note_on_c, 0, 58, 59
1, 1174486, Note_on_c, 0, 58, 0
1, 1174486, Note_on_c, 0, 70, 87
1, 1174486, Note_on_c, 0, 48, 59
1, 1174502, Note_on_c, 0, 71, 0
1, 1174594, Note_on_c, 0, 48, 0
1, 1174594, Note_on_c, 0, 58, 59
1, 1174702, Note_on_c, 0, 42, 0
1, 1174702, Note_on_c, 0, 68, 87
1, 1174702, Note_on_c, 0, 40, 79
1, 1174705, Note_on_c, 0, 58, 0
1, 1174718, Note_on_c, 0, 64, 0
1, 1174810, Note_on_c, 0, 75, 95
1, 1174810, Note_on_c, 0, 61, 59
1, 1174829, Note_on_c, 0, 70, 0
1, 1174934, Note_on_c, 0, 61, 0
1, 1174934, Note_on_c, 0, 56, 59
1, 1175059, Note_on_c, 0, 56, 0
1, 1175059, Note_on_c, 0, 61, 59
1, 1175184, Note_on_c, 0, 61, 0
1, 1175184, Note_on_c, 0, 73, 88
1, 1175184, Note_on_c, 0, 55, 59
1, 1175197, Note_on_c, 0, 75, 0
1, 1175270, Note_on_c, 0, 55, 0
1, 1175270, Note_on_c, 0, 61, 59
1, 1175357, Note_on_c, 0, 61, 0
1, 1175357, Note_on_c, 0, 56, 59
1, 1175434, Control_c, 0, 64, 0
1, 1175434, Control_c, 0, 64, 0
1, 1175443, Note_on_c, 0, 56, 0
1, 1175443, Note_on_c, 0, 66, 82
1, 1175443, Note_on_c, 0, 61, 59
1, 1175460, Note_on_c, 0, 68, 0
1, 1175481, Control_c, 0, 64, 127
1, 1175481, Control_c, 0, 64, 127
1, 1175551, Note_on_c, 0, 66, 0
1, 1175551, Control_c, 0, 64, 127
1, 1175551, Note_on_c, 0, 66, 78
1, 1175554, Note_on_c, 0, 61, 0
1, 1175554, Note_on_c, 0, 40, 0
1, 1175554, Control_c, 0, 64, 127
1, 1175557, Note_on_c, 0, 39, 78
1, 1175568, Note_on_c, 0, 73, 0
1, 1175635, Control_c, 0, 64, 0
1, 1175635, Control_c, 0, 64, 0
1, 1175658, Control_c, 0, 64, 0
1, 1175658, Note_on_c, 0, 71, 87
1, 1175658, Control_c, 0, 64, 0
1, 1175658, Note_on_c, 0, 59, 55
1, 1175710, Control_c, 0, 64, 127
1, 1175710, Control_c, 0, 64, 127
1, 1175753, Note_on_c, 0, 59, 0
1, 1175753, Note_on_c, 0, 51, 55
1, 1175753, Note_on_c, 0, 54, 55
1, 1175846, Note_on_c, 0, 54, 0
1, 1175846, Note_on_c, 0, 51, 0
1, 1175846, Note_on_c, 0, 59, 55
1, 1175927, Note_on_c, 0, 59, 0
1, 1175927, Note_on_c, 0, 50, 55
1, 1176013, Note_on_c, 0, 50, 0
1, 1176013, Note_on_c, 0, 59, 55
1, 1176107, Note_on_c, 0, 59, 0
1, 1176107, Note_on_c, 0, 51, 55
1, 1176107, Note_on_c, 0, 54, 55
1, 1176209, Note_on_c, 0, 54, 0
1, 1176209, Note_on_c, 0, 51, 0
1, 1176209, Note_on_c, 0, 59, 55
1, 1176291, Control_c, 0, 64, 0
1, 1176291, Control_c, 0, 64, 0
1, 1176311, Note_on_c, 0, 71, 0
1, 1176311, Note_on_c, 0, 66, 0
1, 1176311, Note_on_c, 0, 67, 73
1, 1176314, Note_on_c, 0, 59, 0
1, 1176314, Note_on_c, 0, 83, 89
1, 1176314, Note_on_c, 0, 50, 55
1, 1176410, Control_c, 0, 64, 127
1, 1176410, Control_c, 0, 64, 127
1, 1176436, Note_on_c, 0, 50, 0
1, 1176436, Note_on_c, 0, 59, 55
1, 1176560, Note_on_c, 0, 59, 0
1, 1176560, Note_on_c, 0, 51, 55
1, 1176560, Note_on_c, 0, 54, 55
1, 1176635, Note_on_c, 0, 54, 0
1, 1176635, Note_on_c, 0, 51, 0
1, 1176635, Note_on_c, 0, 59, 55
1, 1176710, Note_on_c, 0, 59, 0
1, 1176710, Note_on_c, 0, 50, 55
1, 1176785, Note_on_c, 0, 50, 0
1, 1176785, Note_on_c, 0, 59, 55
1, 1176855, Note_on_c, 0, 59, 0
1, 1176855, Note_on_c, 0, 51, 55
1, 1176855, Note_on_c, 0, 54, 55
1, 1176925, Note_on_c, 0, 54, 0
1, 1176925, Note_on_c, 0, 51, 0
1, 1176925, Note_on_c, 0, 59, 55
1, 1176996, Note_on_c, 0, 59, 0
1, 1176996, Note_on_c, 0, 39, 0
1, 1176996, Note_on_c, 0, 79, 82
1, 1176999, Note_on_c, 0, 40, 72
1, 1177015, Note_on_c, 0, 83, 0
1, 1177050, Control_c, 0, 64, 0
1, 1177050, Control_c, 0, 64, 0
1, 1177120, Note_on_c, 0, 59, 55
1, 1177139, Control_c, 0, 64, 127
1, 1177139, Control_c, 0, 64, 127
1, 1177214, Note_on_c, 0, 59, 0
1, 1177214, Note_on_c, 0, 52, 55
1, 1177214, Note_on_c, 0, 56, 55
1, 1177300, Note_on_c, 0, 56, 0
1, 1177300, Note_on_c, 0, 52, 0
1, 1177300, Note_on_c, 0, 59, 55
1, 1177387, Note_on_c, 0, 59, 0
1, 1177387, Note_on_c, 0, 68, 84
1, 1177387, Note_on_c, 0, 51, 55
1, 1177400, Note_on_c, 0, 67, 0
1, 1177445, Control_c, 0, 64, 0
1, 1177445, Control_c, 0, 64, 0
1, 1177473, Note_on_c, 0, 51, 0
1, 1177473, Note_on_c, 0, 59, 55
1, 1177512, Control_c, 0, 64, 127
1, 1177512, Control_c, 0, 64, 127
1, 1177560, Note_on_c, 0, 59, 0
1, 1177560, Note_on_c, 0, 52, 55
1, 1177560, Note_on_c, 0, 56, 55
1, 1177646, Note_on_c, 0, 56, 0
1, 1177646, Note_on_c, 0, 52, 0
1, 1177646, Note_on_c, 0, 59, 55
1, 1177732, Note_on_c, 0, 59, 0
1, 1177732, Note_on_c, 0, 71, 89
1, 1177732, Note_on_c, 0, 80, 74
1, 1177735, Note_on_c, 0, 51, 55
1, 1177746, Note_on_c, 0, 68, 0
1, 1177746, Note_on_c, 0, 79, 0
1, 1177819, Note_on_c, 0, 51, 0
1, 1177819, Note_on_c, 0, 59, 55
1, 1177905, Note_on_c, 0, 59, 0
1, 1177905, Note_on_c, 0, 52, 55
1, 1177905, Note_on_c, 0, 56, 55
1, 1177992, Note_on_c, 0, 56, 0
1, 1177992, Note_on_c, 0, 52, 0
1, 1177992, Note_on_c, 0, 59, 55
1, 1178078, Note_on_c, 0, 59, 0
1, 1178078, Note_on_c, 0, 76, 93
1, 1178078, Note_on_c, 0, 51, 55
1, 1178094, Note_on_c, 0, 71, 0
1, 1178180, Note_on_c, 0, 51, 0
1, 1178180, Note_on_c, 0, 59, 55
1, 1178279, Control_c, 0, 64, 127
1, 1178279, Control_c, 0, 64, 127
1, 1178288, Note_on_c, 0, 59, 0
1, 1178288, Note_on_c, 0, 52, 55
1, 1178288, Note_on_c, 0, 56, 55
1, 1178413, Note_on_c, 0, 56, 0
1, 1178413, Note_on_c, 0, 52, 0
1, 1178413, Note_on_c, 0, 59, 55
1, 1178553, Note_on_c, 0, 76, 0
1, 1178553, Note_on_c, 0, 80, 0
1, 1178553, Control_c, 0, 64, 127
1, 1178556, Note_on_c, 0, 78, 92
1, 1178556, Note_on_c, 0, 76, 80
1, 1178556, Control_c, 0, 64, 127
1, 1178559, Note_on_c, 0, 40, 0
1, 1178559, Note_on_c, 0, 59, 0
1, 1178559, Note_on_c, 0, 42, 72
1, 1178656, Control_c, 0, 64, 0
1, 1178656, Control_c, 0, 64, 0
1, 1178739, Control_c, 0, 64, 0
1, 1178739, Control_c, 0, 64, 0
1, 1178739, Note_on_c, 0, 64, 55
1, 1178781, Control_c, 0, 64, 127
1, 1178781, Control_c, 0, 64, 127
1, 1178834, Note_on_c, 0, 64, 0
1, 1178834, Note_on_c, 0, 54, 55
1, 1178834, Note_on_c, 0, 58, 55
1, 1178928, Note_on_c, 0, 58, 0
1, 1178928, Note_on_c, 0, 54, 0
1, 1178928, Note_on_c, 0, 64, 55
1, 1179008, Note_on_c, 0, 64, 0
1, 1179008, Note_on_c, 0, 53, 55
1, 1179078, Note_on_c, 0, 53, 0
1, 1179078, Note_on_c, 0, 64, 55
1, 1179148, Note_on_c, 0, 64, 0
1, 1179148, Note_on_c, 0, 54, 55
1, 1179148, Note_on_c, 0, 58, 55
1, 1179219, Note_on_c, 0, 58, 0
1, 1179219, Note_on_c, 0, 54, 0
1, 1179219, Note_on_c, 0, 66, 85
1, 1179222, Note_on_c, 0, 64, 55
1, 1179240, Note_on_c, 0, 76, 0
1, 1179359, Note_on_c, 0, 64, 0
1, 1179359, Note_on_c, 0, 88, 97
1, 1179359, Note_on_c, 0, 53, 55
1, 1179376, Note_on_c, 0, 78, 0
1, 1179467, Note_on_c, 0, 53, 0
1, 1179467, Note_on_c, 0, 64, 55
1, 1179575, Note_on_c, 0, 64, 0
1, 1179575, Note_on_c, 0, 54, 55
1, 1179575, Note_on_c, 0, 58, 55
1, 1179683, Note_on_c, 0, 58, 0
1, 1179683, Note_on_c, 0, 54, 0
1, 1179683, Note_on_c, 0, 64, 55
1, 1179791, Note_on_c, 0, 64, 0
1, 1179791, Note_on_c, 0, 87, 92
1, 1179791, Note_on_c, 0, 53, 55
1, 1179810, Note_on_c, 0, 88, 0
1, 1179916, Note_on_c, 0, 53, 0
1, 1179916, Note_on_c, 0, 64, 55
1, 1180041, Note_on_c, 0, 64, 0
1, 1180041, Note_on_c, 0, 85, 89
1, 1180041, Note_on_c, 0, 54, 55
1, 1180044, Note_on_c, 0, 58, 55
1, 1180057, Note_on_c, 0, 87, 0
1, 1180149, Note_on_c, 0, 54, 0
1, 1180149, Note_on_c, 0, 58, 0
1, 1180149, Note_on_c, 0, 64, 55
1, 1180257, Note_on_c, 0, 42, 0
1, 1180257, Note_on_c, 0, 85, 0
1, 1180257, Note_on_c, 0, 85, 94
1, 1180260, Note_on_c, 0, 64, 0
1, 1180260, Note_on_c, 0, 47, 66
1, 1180311, Control_c, 0, 64, 0
1, 1180311, Control_c, 0, 64, 0
1, 1180381, Note_on_c, 0, 66, 0
1, 1180381, Note_on_c, 0, 66, 83
1, 1180381, Note_on_c, 0, 63, 55
1, 1180400, Control_c, 0, 64, 127
1, 1180400, Control_c, 0, 64, 127
1, 1180475, Note_on_c, 0, 63, 0
1, 1180475, Note_on_c, 0, 54, 55
1, 1180475, Note_on_c, 0, 59, 55
1, 1180561, Note_on_c, 0, 59, 0
1, 1180561, Note_on_c, 0, 54, 0
1, 1180561, Note_on_c, 0, 63, 55
1, 1180648, Note_on_c, 0, 63, 0
1, 1180648, Note_on_c, 0, 68, 82
1, 1180648, Note_on_c, 0, 53, 55
1, 1180664, Note_on_c, 0, 66, 0
1, 1180716, Control_c, 0, 64, 0
1, 1180716, Control_c, 0, 64, 0
1, 1180750, Note_on_c, 0, 53, 0
1, 1180750, Note_on_c, 0, 63, 55
1, 1180795, Control_c, 0, 64, 127
1, 1180795, Control_c, 0, 64, 127
1, 1180852, Note_on_c, 0, 63, 0
1, 1180852, Note_on_c, 0, 70, 80
1, 1180852, Note_on_c, 0, 54, 55
1, 1180855, Note_on_c, 0, 59, 55
1, 1180868, Note_on_c, 0, 68, 0
1, 1180954, Note_on_c, 0, 54, 0
1, 1180954, Note_on_c, 0, 59, 0
1, 1180954, Note_on_c, 0, 63, 55
1, 1181056, Note_on_c, 0, 63, 0
1, 1181056, Note_on_c, 0, 71, 73
1, 1181056, Note_on_c, 0, 83, 87
1, 1181059, Note_on_c, 0, 53, 55
1, 1181072, Note_on_c, 0, 85, 0
1, 1181072, Note_on_c, 0, 70, 0
1, 1181158, Note_on_c, 0, 53, 0
1, 1181158, Note_on_c, 0, 63, 55
1, 1181260, Note_on_c, 0, 63, 0
1, 1181260, Note_on_c, 0, 54, 55
1, 1181260, Note_on_c, 0, 59, 55
1, 1181362, Note_on_c, 0, 59, 0
1, 1181362, Note_on_c, 0, 54, 0
1, 1181362, Note_on_c, 0, 63, 55
1, 1181465, Note_on_c, 0, 63, 0
1, 1181465, Note_on_c, 0, 82, 83
1, 1181465, Note_on_c, 0, 53, 55
1, 1181479, Note_on_c, 0, 83, 0
1, 1181558, Note_on_c, 0, 53, 0
1, 1181558, Note_on_c, 0, 63, 55
1, 1181652, Note_on_c, 0, 63, 0
1, 1181652, Note_on_c, 0, 80, 81
1, 1181652, Note_on_c, 0, 54, 55
1, 1181655, Note_on_c, 0, 59, 55
1, 1181666, Note_on_c, 0, 82, 0
1, 1181705, Control_c, 0, 64, 127
1, 1181705, Control_c, 0, 64, 127
1, 1181745, Note_on_c, 0, 54, 0
1, 1181745, Note_on_c, 0, 59, 0
1, 1181745, Note_on_c, 0, 63, 55
1, 1181839, Note_on_c, 0, 71, 0
1, 1181839, Control_c, 0, 64, 0
1, 1181839, Control_c, 0, 64, 0
1, 1181842, Note_on_c, 0, 76, 72
1, 1181842, Control_c, 0, 64, 0
1, 1181842, Control_c, 0, 64, 0
1, 1181845, Note_on_c, 0, 63, 0
1, 1181845, Note_on_c, 0, 47, 0
1, 1181845, Note_on_c, 0, 42, 66
1, 1181849, Control_c, 0, 64, 127
1, 1181849, Control_c, 0, 64, 127
1, 1181854, Note_on_c, 0, 80, 0
1, 1181933, Note_on_c, 0, 78, 84
1, 1181933, Note_on_c, 0, 64, 55
1, 1181942, Control_c, 0, 64, 0
1, 1181942, Control_c, 0, 64, 0
1, 1182014, Control_c, 0, 64, 127
1, 1182014, Control_c, 0, 64, 127
1, 1182026, Note_on_c, 0, 64, 0
1, 1182026, Note_on_c, 0, 54, 55
1, 1182026, Note_on_c, 0, 58, 55
1, 1182120, Note_on_c, 0, 58, 0
1, 1182120, Note_on_c, 0, 54, 0
1, 1182120, Note_on_c, 0, 64, 55
1, 1182200, Note_on_c, 0, 64, 0
1, 1182200, Note_on_c, 0, 53, 55
1, 1182270, Note_on_c, 0, 53, 0
1, 1182270, Note_on_c, 0, 64, 55
1, 1182340, Note_on_c, 0, 64, 0
1, 1182340, Note_on_c, 0, 54, 55
1, 1182340, Note_on_c, 0, 58, 55
1, 1182411, Note_on_c, 0, 54, 0
1, 1182411, Note_on_c, 0, 76, 0
1, 1182411, Note_on_c, 0, 66, 77
1, 1182414, Note_on_c, 0, 58, 0
1, 1182414, Note_on_c, 0, 64, 55
1, 1182571, Note_on_c, 0, 64, 0
1, 1182571, Note_on_c, 0, 78, 0
1, 1182571, Note_on_c, 0, 88, 89
1, 1182574, Note_on_c, 0, 53, 55
1, 1182679, Note_on_c, 0, 53, 0
1, 1182679, Note_on_c, 0, 64, 55
1, 1182787, Note_on_c, 0, 64, 0
1, 1182787, Note_on_c, 0, 54, 55
1, 1182787, Note_on_c, 0, 58, 55
1, 1182895, Note_on_c, 0, 58, 0
1, 1182895, Note_on_c, 0, 54, 0
1, 1182895, Note_on_c, 0, 64, 55
1, 1183003, Note_on_c, 0, 64, 0
1, 1183003, Note_on_c, 0, 88, 0
1, 1183003, Note_on_c, 0, 87, 84
1, 1183006, Note_on_c, 0, 53, 55
1, 1183143, Note_on_c, 0, 53, 0
1, 1183143, Note_on_c, 0, 64, 55
1, 1183284, Note_on_c, 0, 64, 0
1, 1183284, Note_on_c, 0, 87, 0
1, 1183284, Note_on_c, 0, 85, 81
1, 1183287, Note_on_c, 0, 54, 55
1, 1183287, Note_on_c, 0, 58, 55
1, 1183409, Note_on_c, 0, 58, 0
1, 1183409, Note_on_c, 0, 54, 0
1, 1183409, Note_on_c, 0, 64, 55
1, 1183533, Note_on_c, 0, 85, 0
1, 1183533, Note_on_c, 0, 42, 0
1, 1183533, Note_on_c, 0, 85, 86
1, 1183536, Note_on_c, 0, 64, 0
1, 1183536, Note_on_c, 0, 47, 66
1, 1183588, Control_c, 0, 64, 0
1, 1183588, Control_c, 0, 64, 0
1, 1183588, Control_c, 0, 64, 0
1, 1183591, Control_c, 0, 64, 0
1, 1183658, Note_on_c, 0, 66, 0
1, 1183658, Note_on_c, 0, 66, 75
1, 1183658, Note_on_c, 0, 63, 55
1, 1183684, Control_c, 0, 64, 127
1, 1183684, Control_c, 0, 64, 127
1, 1183684, Control_c, 0, 64, 127
1, 1183687, Control_c, 0, 64, 127
1, 1183783, Note_on_c, 0, 63, 0
1, 1183783, Note_on_c, 0, 54, 55
1, 1183783, Note_on_c, 0, 59, 55
1, 1183869, Note_on_c, 0, 59, 0
1, 1183869, Note_on_c, 0, 54, 0
1, 1183869, Note_on_c, 0, 63, 55
1, 1183956, Note_on_c, 0, 63, 0
1, 1183956, Note_on_c, 0, 66, 0
1, 1183956, Note_on_c, 0, 68, 73
1, 1183959, Note_on_c, 0, 53, 55
1, 1184028, Control_c, 0, 64, 0
1, 1184028, Control_c, 0, 64, 0
1, 1184028, Control_c, 0, 64, 0
1, 1184031, Control_c, 0, 64, 0
1, 1184064, Note_on_c, 0, 53, 0
1, 1184064, Note_on_c, 0, 63, 55
1, 1184112, Control_c, 0, 64, 127
1, 1184112, Control_c, 0, 64, 127
1, 1184112, Control_c, 0, 64, 127
1, 1184115, Control_c, 0, 64, 127
1, 1184172, Note_on_c, 0, 63, 0
1, 1184172, Note_on_c, 0, 68, 0
1, 1184172, Note_on_c, 0, 70, 70
1, 1184175, Note_on_c, 0, 54, 55
1, 1184175, Note_on_c, 0, 59, 55
1, 1184297, Note_on_c, 0, 59, 0
1, 1184297, Note_on_c, 0, 54, 0
1, 1184297, Note_on_c, 0, 63, 55
1, 1184421, Note_on_c, 0, 70, 0
1, 1184421, Note_on_c, 0, 85, 0
1, 1184421, Note_on_c, 0, 71, 67
1, 1184424, Note_on_c, 0, 63, 0
1, 1184424, Note_on_c, 0, 83, 77
1, 1184424, Note_on_c, 0, 53, 55
1, 1184546, Note_on_c, 0, 53, 0
1, 1184546, Note_on_c, 0, 63, 55
1, 1184671, Note_on_c, 0, 63, 0
1, 1184671, Note_on_c, 0, 54, 55
1, 1184671, Note_on_c, 0, 59, 55
1, 1184796, Note_on_c, 0, 59, 0
1, 1184796, Note_on_c, 0, 54, 0
1, 1184796, Note_on_c, 0, 63, 55
1, 1184936, Note_on_c, 0, 63, 0
1, 1184936, Note_on_c, 0, 53, 55
1, 1185077, Note_on_c, 0, 53, 0
1, 1185077, Note_on_c, 0, 63, 55
1, 1185217, Note_on_c, 0, 63, 0
1, 1185217, Note_on_c, 0, 54, 55
1, 1185217, Note_on_c, 0, 59, 55
1, 1185357, Note_on_c, 0, 59, 0
1, 1185357, Note_on_c, 0, 54, 0
1, 1185357, Note_on_c, 0, 63, 55
1, 1185421, Control_c, 0, 64, 0
1, 1185421, Control_c, 0, 64, 0
1, 1185421, Control_c, 0, 64, 0
1, 1185424, Control_c, 0, 64, 0
1, 1185498, Note_on_c, 0, 83, 0
1, 1185498, Note_on_c, 0, 71, 0
1, 1185498, Control_c, 0, 64, 0
1, 1185501, Note_on_c, 0, 47, 0
1, 1185501, Note_on_c, 0, 80, 92
1, 1185501, Control_c, 0, 64, 0
1, 1185504, Note_on_c, 0, 63, 0
1, 1185504, Note_on_c, 0, 44, 76
1, 1185685, Note_on_c, 0, 59, 55
1, 1185695, Control_c, 0, 64, 127
1, 1185695, Control_c, 0, 64, 127
1, 1185779, Note_on_c, 0, 59, 0
1, 1185779, Note_on_c, 0, 51, 55
1, 1185779, Note_on_c, 0, 56, 55
1, 1185872, Note_on_c, 0, 56, 0
1, 1185872, Note_on_c, 0, 51, 0
1, 1185872, Note_on_c, 0, 59, 55
1, 1185959, Note_on_c, 0, 59, 0
1, 1185959, Note_on_c, 0, 50, 55
1, 1186045, Note_on_c, 0, 50, 0
1, 1186045, Note_on_c, 0, 59, 55
1, 1186125, Note_on_c, 0, 59, 0
1, 1186125, Note_on_c, 0, 51, 55
1, 1186125, Note_on_c, 0, 56, 55
1, 1186206, Note_on_c, 0, 56, 0
1, 1186206, Note_on_c, 0, 51, 0
1, 1186206, Note_on_c, 0, 59, 55
1, 1186286, Note_on_c, 0, 59, 0
1, 1186286, Note_on_c, 0, 75, 92
1, 1186286, Note_on_c, 0, 50, 55
1, 1186297, Note_on_c, 0, 80, 0
1, 1186361, Note_on_c, 0, 50, 0
1, 1186361, Note_on_c, 0, 59, 55
1, 1186431, Note_on_c, 0, 59, 0
1, 1186431, Note_on_c, 0, 51, 55
1, 1186431, Note_on_c, 0, 56, 55
1, 1186501, Note_on_c, 0, 56, 0
1, 1186501, Note_on_c, 0, 51, 0
1, 1186501, Note_on_c, 0, 59, 55
1, 1186571, Note_on_c, 0, 59, 0
1, 1186571, Note_on_c, 0, 50, 55
1, 1186641, Note_on_c, 0, 50, 0
1, 1186641, Note_on_c, 0, 59, 55
1, 1186712, Note_on_c, 0, 59, 0
1, 1186712, Note_on_c, 0, 51, 55
1, 1186712, Note_on_c, 0, 56, 55
1, 1186782, Note_on_c, 0, 56, 0
1, 1186782, Note_on_c, 0, 51, 0
1, 1186782, Note_on_c, 0, 59, 55
1, 1186852, Note_on_c, 0, 59, 0
1, 1186852, Note_on_c, 0, 44, 0
1, 1186852, Note_on_c, 0, 44, 72
1, 1186907, Control_c, 0, 64, 0
1, 1186907, Control_c, 0, 64, 0
1, 1186977, Note_on_c, 0, 59, 55
1, 1186996, Control_c, 0, 64, 127
1, 1186996, Control_c, 0, 64, 127
1, 1187070, Note_on_c, 0, 59, 0
1, 1187070, Note_on_c, 0, 51, 55
1, 1187070, Note_on_c, 0, 56, 55
1, 1187157, Note_on_c, 0, 56, 0
1, 1187157, Note_on_c, 0, 51, 0
1, 1187157, Note_on_c, 0, 59, 55
1, 1187174, Note_on_c, 0, 73, 84
1, 1187191, Note_on_c, 0, 75, 0
1, 1187260, Note_on_c, 0, 59, 0
1, 1187260, Note_on_c, 0, 50, 55
1, 1187368, Note_on_c, 0, 50, 0
1, 1187368, Note_on_c, 0, 59, 55
1, 1187476, Note_on_c, 0, 59, 0
1, 1187476, Note_on_c, 0, 51, 55
1, 1187476, Note_on_c, 0, 56, 55
1, 1187519, Note_on_c, 0, 71, 86
1, 1187531, Note_on_c, 0, 73, 0
1, 1187565, Note_on_c, 0, 56, 0
1, 1187565, Note_on_c, 0, 51, 0
1, 1187565, Note_on_c, 0, 59, 55
1, 1187639, Note_on_c, 0, 59, 0
1, 1187639, Note_on_c, 0, 50, 55
1, 1187714, Note_on_c, 0, 50, 0
1, 1187714, Note_on_c, 0, 59, 55
1, 1187759, Note_on_c, 0, 70, 86
1, 1187770, Note_on_c, 0, 71, 0
1, 1187787, Note_on_c, 0, 59, 0
1, 1187787, Note_on_c, 0, 51, 55
1, 1187787, Note_on_c, 0, 56, 55
1, 1187858, Note_on_c, 0, 56, 0
1, 1187858, Note_on_c, 0, 51, 0
1, 1187858, Note_on_c, 0, 59, 54
1, 1187928, Note_on_c, 0, 59, 0
1, 1187928, Note_on_c, 0, 50, 52
1, 1187984, Note_on_c, 0, 68, 81
1, 1188001, Note_on_c, 0, 70, 0
1, 1188006, Note_on_c, 0, 50, 0
1, 1188006, Note_on_c, 0, 59, 51
1, 1188114, Note_on_c, 0, 59, 0
1, 1188114, Note_on_c, 0, 51, 50
1, 1188114, Note_on_c, 0, 56, 50
1, 1188222, Note_on_c, 0, 56, 0
1, 1188222, Note_on_c, 0, 51, 0
1, 1188222, Note_on_c, 0, 59, 48
1, 1188271, Control_c, 0, 64, 0
1, 1188271, Control_c, 0, 64, 0
1, 1188306, Control_c, 0, 64, 127
1, 1188306, Control_c, 0, 64, 127
1, 1188330, Control_c, 0, 64, 127
1, 1188330, Note_on_c, 0, 76, 89
1, 1188330, Control_c, 0, 64, 127
1, 1188333, Note_on_c, 0, 59, 0
1, 1188333, Note_on_c, 0, 44, 0
1, 1188333, Note_on_c, 0, 44, 71
1, 1188352, Note_on_c, 0, 68, 0
1, 1188421, Control_c, 0, 64, 0
1, 1188421, Control_c, 0, 64, 0
1, 1188470, Note_on_c, 0, 62, 56
1, 1188496, Control_c, 0, 64, 127
1, 1188496, Control_c, 0, 64, 127
1, 1188550, Note_on_c, 0, 62, 0
1, 1188550, Note_on_c, 0, 52, 56
1, 1188550, Note_on_c, 0, 59, 56
1, 1188630, Note_on_c, 0, 59, 0
1, 1188630, Note_on_c, 0, 52, 0
1, 1188630, Note_on_c, 0, 62, 56
1, 1188705, Note_on_c, 0, 62, 0
1, 1188705, Note_on_c, 0, 58, 55
1, 1188780, Note_on_c, 0, 58, 0
1, 1188780, Note_on_c, 0, 62, 54
1, 1188855, Note_on_c, 0, 62, 0
1, 1188855, Note_on_c, 0, 52, 55
1, 1188855, Note_on_c, 0, 59, 55
1, 1188925, Note_on_c, 0, 59, 0
1, 1188925, Note_on_c, 0, 52, 0
1, 1188925, Note_on_c, 0, 62, 55
1, 1188995, Note_on_c, 0, 62, 0
1, 1188995, Note_on_c, 0, 58, 54
1, 1189066, Note_on_c, 0, 58, 0
1, 1189066, Note_on_c, 0, 62, 53
1, 1189136, Note_on_c, 0, 62, 0
1, 1189136, Note_on_c, 0, 52, 53
1, 1189136, Note_on_c, 0, 59, 53
1, 1189206, Note_on_c, 0, 59, 0
1, 1189206, Note_on_c, 0, 52, 0
1, 1189206, Note_on_c, 0, 62, 52
1, 1189276, Note_on_c, 0, 62, 0
1, 1189276, Note_on_c, 0, 58, 53
1, 1189346, Note_on_c, 0, 58, 0
1, 1189346, Note_on_c, 0, 62, 52
1, 1189417, Note_on_c, 0, 62, 0
1, 1189417, Note_on_c, 0, 52, 51
1, 1189417, Note_on_c, 0, 59, 51
1, 1189487, Note_on_c, 0, 59, 0
1, 1189487, Note_on_c, 0, 52, 0
1, 1189487, Note_on_c, 0, 62, 51
1, 1189557, Note_on_c, 0, 62, 0
1, 1189557, Note_on_c, 0, 44, 0
1, 1189557, Note_on_c, 0, 73, 74
1, 1189560, Note_on_c, 0, 45, 63
1, 1189577, Note_on_c, 0, 76, 0
1, 1189612, Control_c, 0, 64, 0
1, 1189612, Control_c, 0, 64, 0
1, 1189682, Note_on_c, 0, 61, 49
1, 1189699, Control_c, 0, 64, 127
1, 1189699, Control_c, 0, 64, 127
1, 1189768, Note_on_c, 0, 61, 0
1, 1189768, Note_on_c, 0, 52, 49
1, 1189768, Note_on_c, 0, 57, 49
1, 1189849, Note_on_c, 0, 57, 0
1, 1189849, Note_on_c, 0, 52, 0
1, 1189849, Note_on_c, 0, 61, 49
1, 1189923, Note_on_c, 0, 61, 0
1, 1189923, Note_on_c, 0, 51, 49
1, 1189998, Note_on_c, 0, 51, 0
1, 1189998, Note_on_c, 0, 61, 49
1, 1190068, Note_on_c, 0, 61, 0
1, 1190068, Note_on_c, 0, 52, 49
1, 1190068, Note_on_c, 0, 57, 49
1, 1190139, Note_on_c, 0, 57, 0
1, 1190139, Note_on_c, 0, 52, 0
1, 1190139, Note_on_c, 0, 61, 49
1, 1190209, Note_on_c, 0, 61, 0
1, 1190209, Note_on_c, 0, 73, 0
1, 1190209, Note_on_c, 0, 51, 49
1, 1190279, Note_on_c, 0, 51, 0
1, 1190279, Note_on_c, 0, 61, 49
1, 1190354, Note_on_c, 0, 61, 0
1, 1190354, Note_on_c, 0, 52, 49
1, 1190354, Note_on_c, 0, 57, 49
1, 1190434, Note_on_c, 0, 57, 0
1, 1190434, Note_on_c, 0, 52, 0
1, 1190434, Note_on_c, 0, 61, 49
1, 1190521, Note_on_c, 0, 61, 0
1, 1190521, Note_on_c, 0, 51, 49
1, 1190614, Note_on_c, 0, 51, 0
1, 1190614, Note_on_c, 0, 61, 49
1, 1190716, Note_on_c, 0, 61, 0
1, 1190716, Note_on_c, 0, 52, 49
1, 1190716, Note_on_c, 0, 57, 49
1, 1190824, Note_on_c, 0, 57, 0
1, 1190824, Note_on_c, 0, 52, 0
1, 1190824, Note_on_c, 0, 61, 49
1, 1190881, Control_c, 0, 64, 0
1, 1190881, Control_c, 0, 64, 0
1, 1190949, Control_c, 0, 64, 0
1, 1190949, Note_on_c, 0, 75, 87
1, 1190949, Control_c, 0, 64, 0
1, 1190952, Note_on_c, 0, 61, 0
1, 1190952, Note_on_c, 0, 45, 0
1, 1190952, Note_on_c, 0, 43, 68
1, 1191135, Control_c, 0, 64, 127
1, 1191135, Control_c, 0, 64, 127
1, 1191135, Note_on_c, 0, 61, 55
1, 1191230, Note_on_c, 0, 61, 0
1, 1191230, Note_on_c, 0, 51, 55
1, 1191230, Note_on_c, 0, 58, 55
1, 1191323, Note_on_c, 0, 58, 0
1, 1191323, Note_on_c, 0, 51, 0
1, 1191323, Note_on_c, 0, 61, 55
1, 1191404, Note_on_c, 0, 61, 0
1, 1191404, Note_on_c, 0, 50, 55
1, 1191474, Note_on_c, 0, 50, 0
1, 1191474, Note_on_c, 0, 61, 55
1, 1191544, Note_on_c, 0, 61, 0
1, 1191544, Note_on_c, 0, 51, 55
1, 1191544, Note_on_c, 0, 58, 55
1, 1191614, Note_on_c, 0, 58, 0
1, 1191614, Note_on_c, 0, 51, 0
1, 1191614, Note_on_c, 0, 61, 55
1, 1191685, Note_on_c, 0, 61, 0
1, 1191685, Note_on_c, 0, 70, 81
1, 1191685, Note_on_c, 0, 50, 55
1, 1191695, Note_on_c, 0, 75, 0
1, 1191755, Note_on_c, 0, 50, 0
1, 1191755, Note_on_c, 0, 61, 55
1, 1191825, Note_on_c, 0, 61, 0
1, 1191825, Note_on_c, 0, 51, 55
1, 1191825, Note_on_c, 0, 58, 55
1, 1191895, Note_on_c, 0, 58, 0
1, 1191895, Note_on_c, 0, 51, 0
1, 1191895, Note_on_c, 0, 61, 55
1, 1191965, Note_on_c, 0, 61, 0
1, 1191965, Note_on_c, 0, 50, 55
1, 1192036, Note_on_c, 0, 50, 0
1, 1192036, Note_on_c, 0, 61, 55
1, 1192106, Note_on_c, 0, 61, 0
1, 1192106, Note_on_c, 0, 51, 55
1, 1192106, Note_on_c, 0, 58, 55
1, 1192176, Note_on_c, 0, 58, 0
1, 1192176, Note_on_c, 0, 51, 0
1, 1192176, Note_on_c, 0, 61, 55
1, 1192246, Note_on_c, 0, 61, 0
1, 1192246, Note_on_c, 0, 43, 0
1, 1192246, Note_on_c, 0, 44, 68
1, 1192301, Control_c, 0, 64, 0
1, 1192301, Control_c, 0, 64, 0
1, 1192301, Control_c, 0, 64, 0
1, 1192304, Control_c, 0, 64, 0
1, 1192371, Note_on_c, 0, 59, 55
1, 1192390, Control_c, 0, 64, 127
1, 1192390, Control_c, 0, 64, 127
1, 1192390, Control_c, 0, 64, 127
1, 1192393, Control_c, 0, 64, 127
1, 1192465, Note_on_c, 0, 59, 0
1, 1192465, Note_on_c, 0, 51, 55
1, 1192465, Note_on_c, 0, 56, 55
1, 1192551, Note_on_c, 0, 56, 0
1, 1192551, Note_on_c, 0, 51, 0
1, 1192551, Note_on_c, 0, 59, 55
1, 1192568, Note_on_c, 0, 73, 84
1, 1192585, Note_on_c, 0, 70, 0
1, 1192655, Note_on_c, 0, 59, 0
1, 1192655, Note_on_c, 0, 50, 55
1, 1192763, Note_on_c, 0, 50, 0
1, 1192763, Note_on_c, 0, 59, 55
1, 1192871, Note_on_c, 0, 59, 0
1, 1192871, Note_on_c, 0, 51, 55
1, 1192871, Note_on_c, 0, 56, 55
1, 1192914, Note_on_c, 0, 71, 86
1, 1192925, Note_on_c, 0, 73, 0
1, 1192959, Note_on_c, 0, 56, 0
1, 1192959, Note_on_c, 0, 51, 0
1, 1192959, Note_on_c, 0, 59, 55
1, 1193033, Note_on_c, 0, 59, 0
1, 1193033, Note_on_c, 0, 50, 55
1, 1193108, Note_on_c, 0, 50, 0
1, 1193108, Note_on_c, 0, 59, 55
1, 1193153, Note_on_c, 0, 70, 85
1, 1193164, Note_on_c, 0, 71, 0
1, 1193181, Note_on_c, 0, 59, 0
1, 1193181, Note_on_c, 0, 51, 55
1, 1193181, Note_on_c, 0, 56, 55
1, 1193252, Note_on_c, 0, 56, 0
1, 1193252, Note_on_c, 0, 51, 0
1, 1193252, Note_on_c, 0, 59, 55
1, 1193322, Note_on_c, 0, 59, 0
1, 1193322, Note_on_c, 0, 50, 55
1, 1193378, Note_on_c, 0, 68, 80
1, 1193395, Note_on_c, 0, 70, 0
1, 1193400, Note_on_c, 0, 50, 0
1, 1193400, Note_on_c, 0, 59, 55
1, 1193508, Note_on_c, 0, 59, 0
1, 1193508, Note_on_c, 0, 51, 55
1, 1193508, Note_on_c, 0, 56, 55
1, 1193616, Note_on_c, 0, 56, 0
1, 1193616, Note_on_c, 0, 51, 0
1, 1193616, Note_on_c, 0, 59, 55
1, 1193638, Note_on_c, 0, 68, 0
1, 1193638, Note_on_c, 0, 68, 80
1, 1193673, Control_c, 0, 64, 0
1, 1193673, Control_c, 0, 64, 0
1, 1193673, Control_c, 0, 64, 0
1, 1193676, Control_c, 0, 64, 0
1, 1193749, Control_c, 0, 64, 0
1, 1193749, Control_c, 0, 64, 0
1, 1193749, Note_on_c, 0, 70, 87
1, 1193752, Note_on_c, 0, 44, 0
1, 1193752, Control_c, 0, 64, 0
1, 1193752, Control_c, 0, 64, 0
1, 1193755, Note_on_c, 0, 59, 0
1, 1193755, Note_on_c, 0, 41, 69
1, 1193779, Note_on_c, 0, 68, 0
1, 1193915, Control_c, 0, 64, 127
1, 1193915, Control_c, 0, 64, 127
1, 1193937, Note_on_c, 0, 56, 55
1, 1193967, Control_c, 0, 64, 127
1, 1193967, Control_c, 0, 64, 127
1, 1194030, Note_on_c, 0, 56, 0
1, 1194030, Note_on_c, 0, 46, 55
1, 1194030, Note_on_c, 0, 50, 55
1, 1194124, Note_on_c, 0, 50, 0
1, 1194124, Note_on_c, 0, 46, 0
1, 1194124, Note_on_c, 0, 56, 55
1, 1194204, Note_on_c, 0, 56, 0
1, 1194204, Note_on_c, 0, 45, 55
1, 1194274, Note_on_c, 0, 45, 0
1, 1194274, Note_on_c, 0, 56, 55
1, 1194345, Note_on_c, 0, 56, 0
1, 1194345, Note_on_c, 0, 46, 55
1, 1194345, Note_on_c, 0, 50, 55
1, 1194415, Note_on_c, 0, 50, 0
1, 1194415, Note_on_c, 0, 46, 0
1, 1194415, Note_on_c, 0, 56, 55
1, 1194485, Note_on_c, 0, 56, 0
1, 1194485, Note_on_c, 0, 45, 55
1, 1194555, Note_on_c, 0, 45, 0
1, 1194555, Note_on_c, 0, 56, 55
1, 1194625, Note_on_c, 0, 56, 0
1, 1194625, Note_on_c, 0, 46, 55
1, 1194625, Note_on_c, 0, 50, 55
1, 1194696, Note_on_c, 0, 50, 0
1, 1194696, Note_on_c, 0, 46, 0
1, 1194696, Note_on_c, 0, 56, 55
1, 1194766, Note_on_c, 0, 56, 0
1, 1194766, Note_on_c, 0, 45, 55
1, 1194836, Note_on_c, 0, 45, 0
1, 1194836, Note_on_c, 0, 56, 55
1, 1194906, Note_on_c, 0, 56, 0
1, 1194906, Note_on_c, 0, 46, 55
1, 1194906, Note_on_c, 0, 50, 55
1, 1194976, Note_on_c, 0, 50, 0
1, 1194976, Note_on_c, 0, 46, 0
1, 1194976, Note_on_c, 0, 56, 55
1, 1195047, Note_on_c, 0, 41, 0
1, 1195047, Note_on_c, 0, 70, 0
1, 1195047, Note_on_c, 0, 63, 73
1, 1195050, Note_on_c, 0, 56, 0
1, 1195050, Note_on_c, 0, 39, 59
1, 1195101, Control_c, 0, 64, 0
1, 1195101, Control_c, 0, 64, 0
1, 1195101, Control_c, 0, 64, 0
1, 1195104, Control_c, 0, 64, 0
1, 1195171, Note_on_c, 0, 55, 55
1, 1195190, Control_c, 0, 64, 127
1, 1195190, Control_c, 0, 64, 127
1, 1195190, Control_c, 0, 64, 127
1, 1195193, Control_c, 0, 64, 127
1, 1195265, Note_on_c, 0, 55, 0
1, 1195265, Note_on_c, 0, 46, 55
1, 1195265, Note_on_c, 0, 51, 55
1, 1195351, Note_on_c, 0, 51, 0
1, 1195351, Note_on_c, 0, 46, 0
1, 1195351, Note_on_c, 0, 55, 55
1, 1195438, Note_on_c, 0, 55, 0
1, 1195438, Note_on_c, 0, 45, 55
1, 1195524, Note_on_c, 0, 45, 0
1, 1195524, Note_on_c, 0, 55, 55
1, 1195594, Note_on_c, 0, 55, 0
1, 1195594, Note_on_c, 0, 46, 55
1, 1195594, Note_on_c, 0, 51, 55
1, 1195665, Note_on_c, 0, 51, 0
1, 1195665, Note_on_c, 0, 46, 0
1, 1195665, Note_on_c, 0, 55, 55
1, 1195735, Note_on_c, 0, 55, 0
1, 1195735, Note_on_c, 0, 63, 0
1, 1195735, Note_on_c, 0, 45, 55
1, 1195810, Note_on_c, 0, 45, 0
1, 1195810, Note_on_c, 0, 55, 55
1, 1195890, Note_on_c, 0, 55, 0
1, 1195890, Note_on_c, 0, 46, 55
1, 1195890, Note_on_c, 0, 51, 55
1, 1195976, Note_on_c, 0, 51, 0
1, 1195976, Note_on_c, 0, 46, 0
1, 1195976, Note_on_c, 0, 55, 55
1, 1196070, Note_on_c, 0, 55, 0
1, 1196070, Note_on_c, 0, 45, 55
1, 1196172, Note_on_c, 0, 45, 0
1, 1196172, Note_on_c, 0, 55, 55
1, 1196280, Note_on_c, 0, 55, 0
1, 1196280, Note_on_c, 0, 46, 55
1, 1196280, Note_on_c, 0, 51, 55
1, 1196405, Note_on_c, 0, 51, 0
1, 1196405, Note_on_c, 0, 46, 0
1, 1196405, Note_on_c, 0, 55, 55
1, 1196468, Control_c, 0, 64, 0
1, 1196468, Control_c, 0, 64, 0
1, 1196468, Control_c, 0, 64, 0
1, 1196471, Control_c, 0, 64, 0
1, 1196545, Control_c, 0, 64, 127
1, 1196545, Note_on_c, 0, 80, 96
1, 1196545, Control_c, 0, 64, 127
1, 1196548, Note_on_c, 0, 55, 0
1, 1196548, Note_on_c, 0, 39, 0
1, 1196548, Note_on_c, 0, 44, 68
1, 1196732, Note_on_c, 0, 59, 55
1, 1196826, Note_on_c, 0, 59, 0
1, 1196826, Note_on_c, 0, 51, 55
1, 1196826, Note_on_c, 0, 56, 55
1, 1196920, Note_on_c, 0, 56, 0
1, 1196920, Note_on_c, 0, 51, 0
1, 1196920, Note_on_c, 0, 59, 55
1, 1197000, Note_on_c, 0, 59, 0
1, 1197000, Note_on_c, 0, 50, 55
1, 1197070, Note_on_c, 0, 50, 0
1, 1197070, Note_on_c, 0, 59, 55
1, 1197140, Note_on_c, 0, 59, 0
1, 1197140, Note_on_c, 0, 51, 55
1, 1197140, Note_on_c, 0, 56, 55
1, 1197210, Note_on_c, 0, 56, 0
1, 1197210, Note_on_c, 0, 51, 0
1, 1197210, Note_on_c, 0, 59, 55
1, 1197281, Note_on_c, 0, 59, 0
1, 1197281, Note_on_c, 0, 75, 96
1, 1197281, Note_on_c, 0, 50, 55
1, 1197292, Note_on_c, 0, 80, 0
1, 1197351, Note_on_c, 0, 50, 0
1, 1197351, Note_on_c, 0, 59, 55
1, 1197421, Note_on_c, 0, 59, 0
1, 1197421, Note_on_c, 0, 51, 55
1, 1197421, Note_on_c, 0, 56, 55
1, 1197491, Note_on_c, 0, 56, 0
1, 1197491, Note_on_c, 0, 51, 0
1, 1197491, Note_on_c, 0, 59, 55
1, 1197561, Note_on_c, 0, 59, 0
1, 1197561, Note_on_c, 0, 50, 55
1, 1197632, Note_on_c, 0, 50, 0
1, 1197632, Note_on_c, 0, 59, 55
1, 1197702, Note_on_c, 0, 59, 0
1, 1197702, Note_on_c, 0, 51, 55
1, 1197702, Note_on_c, 0, 56, 55
1, 1197772, Note_on_c, 0, 56, 0
1, 1197772, Note_on_c, 0, 51, 0
1, 1197772, Note_on_c, 0, 59, 55
1, 1197842, Note_on_c, 0, 59, 0
1, 1197842, Note_on_c, 0, 44, 0
1, 1197842, Note_on_c, 0, 68, 86
1, 1197845, Note_on_c, 0, 44, 68
1, 1197897, Control_c, 0, 64, 0
1, 1197897, Control_c, 0, 64, 0
1, 1197967, Note_on_c, 0, 59, 55
1, 1197986, Control_c, 0, 64, 127
1, 1197986, Control_c, 0, 64, 127
1, 1198061, Note_on_c, 0, 59, 0
1, 1198061, Note_on_c, 0, 51, 55
1, 1198061, Note_on_c, 0, 56, 55
1, 1198147, Note_on_c, 0, 56, 0
1, 1198147, Note_on_c, 0, 51, 0
1, 1198147, Note_on_c, 0, 59, 55
1, 1198165, Note_on_c, 0, 73, 90
1, 1198180, Note_on_c, 0, 75, 0
1, 1198246, Note_on_c, 0, 59, 0
1, 1198246, Note_on_c, 0, 50, 55
1, 1198348, Note_on_c, 0, 50, 0
1, 1198348, Note_on_c, 0, 59, 55
1, 1198450, Note_on_c, 0, 59, 0
1, 1198450, Note_on_c, 0, 51, 55
1, 1198450, Note_on_c, 0, 56, 55
1, 1198491, Note_on_c, 0, 71, 88
1, 1198502, Note_on_c, 0, 73, 0
1, 1198536, Note_on_c, 0, 56, 0
1, 1198536, Note_on_c, 0, 51, 0
1, 1198536, Note_on_c, 0, 59, 55
1, 1198611, Note_on_c, 0, 59, 0
1, 1198611, Note_on_c, 0, 63, 96
1, 1198611, Note_on_c, 0, 50, 55
1, 1198622, Note_on_c, 0, 68, 0
1, 1198686, Note_on_c, 0, 50, 0
1, 1198686, Note_on_c, 0, 59, 55
1, 1198731, Note_on_c, 0, 70, 86
1, 1198742, Note_on_c, 0, 71, 0
1, 1198759, Note_on_c, 0, 59, 0
1, 1198759, Note_on_c, 0, 51, 55
1, 1198759, Note_on_c, 0, 56, 55
1, 1198829, Note_on_c, 0, 56, 0
1, 1198829, Note_on_c, 0, 51, 0
1, 1198829, Note_on_c, 0, 59, 55
1, 1198899, Note_on_c, 0, 59, 0
1, 1198899, Note_on_c, 0, 50, 55
1, 1198955, Note_on_c, 0, 68, 84
1, 1198968, Note_on_c, 0, 70, 0
1, 1198972, Note_on_c, 0, 50, 0
1, 1198972, Note_on_c, 0, 59, 55
1, 1199059, Note_on_c, 0, 59, 0
1, 1199059, Note_on_c, 0, 51, 55
1, 1199059, Note_on_c, 0, 56, 55
1, 1199145, Note_on_c, 0, 56, 0
1, 1199145, Note_on_c, 0, 51, 0
1, 1199145, Note_on_c, 0, 59, 55
1, 1199184, Control_c, 0, 64, 0
1, 1199184, Control_c, 0, 64, 0
1, 1199232, Control_c, 0, 64, 0
1, 1199232, Note_on_c, 0, 71, 90
1, 1199232, Control_c, 0, 64, 0
1, 1199235, Note_on_c, 0, 59, 0
1, 1199235, Note_on_c, 0, 44, 0
1, 1199235, Note_on_c, 0, 44, 71
1, 1199261, Note_on_c, 0, 68, 0
1, 1199419, Note_on_c, 0, 59, 55
1, 1199480, Control_c, 0, 64, 127
1, 1199480, Control_c, 0, 64, 127
1, 1199512, Note_on_c, 0, 59, 0
1, 1199512, Note_on_c, 0, 49, 55
1, 1199512, Note_on_c, 0, 56, 55
1, 1199606, Note_on_c, 0, 56, 0
1, 1199606, Note_on_c, 0, 49, 0
1, 1199606, Note_on_c, 0, 59, 55
1, 1199625, Note_on_c, 0, 66, 87
1, 1199642, Note_on_c, 0, 63, 0
1, 1199711, Note_on_c, 0, 59, 0
1, 1199711, Note_on_c, 0, 48, 55
1, 1199819, Note_on_c, 0, 48, 0
1, 1199819, Note_on_c, 0, 59, 55
1, 1199927, Note_on_c, 0, 59, 0
1, 1199927, Note_on_c, 0, 49, 55
1, 1199927, Note_on_c, 0, 56, 55
1, 1199970, Note_on_c, 0, 65, 88
1, 1199982, Note_on_c, 0, 66, 0
1, 1200015, Note_on_c, 0, 56, 0
1, 1200015, Note_on_c, 0, 49, 0
1, 1200015, Note_on_c, 0, 59, 55
1, 1200090, Note_on_c, 0, 59, 0
1, 1200090, Note_on_c, 0, 48, 55
1, 1200165, Note_on_c, 0, 48, 0
1, 1200165, Note_on_c, 0, 59, 55
1, 1200210, Note_on_c, 0, 63, 87
1, 1200221, Note_on_c, 0, 65, 0
1, 1200238, Note_on_c, 0, 59, 0
1, 1200238, Note_on_c, 0, 49, 55
1, 1200238, Note_on_c, 0, 56, 55
1, 1200308, Note_on_c, 0, 56, 0
1, 1200308, Note_on_c, 0, 49, 0
1, 1200308, Note_on_c, 0, 59, 55
1, 1200378, Note_on_c, 0, 59, 0
1, 1200378, Note_on_c, 0, 48, 55
1, 1200434, Note_on_c, 0, 61, 86
1, 1200449, Note_on_c, 0, 63, 0
1, 1200453, Note_on_c, 0, 48, 0
1, 1200453, Note_on_c, 0, 59, 55
1, 1200547, Note_on_c, 0, 59, 0
1, 1200547, Note_on_c, 0, 49, 55
1, 1200547, Note_on_c, 0, 56, 55
1, 1200641, Note_on_c, 0, 56, 0
1, 1200641, Note_on_c, 0, 49, 0
1, 1200641, Note_on_c, 0, 59, 55
1, 1200734, Note_on_c, 0, 59, 0
1, 1200734, Note_on_c, 0, 44, 0
1, 1200734, Note_on_c, 0, 64, 86
1, 1200737, Note_on_c, 0, 42, 77
1, 1200754, Note_on_c, 0, 61, 0
1, 1200789, Control_c, 0, 64, 0
1, 1200789, Control_c, 0, 64, 0
1, 1200859, Note_on_c, 0, 58, 59
1, 1200878, Control_c, 0, 64, 127
1, 1200878, Control_c, 0, 64, 127
1, 1200953, Note_on_c, 0, 58, 0
1, 1200953, Note_on_c, 0, 49, 59
1, 1201039, Note_on_c, 0, 49, 0
1, 1201039, Note_on_c, 0, 71, 0
1, 1201039, Note_on_c, 0, 71, 89
1, 1201042, Note_on_c, 0, 58, 59
1, 1201125, Note_on_c, 0, 58, 0
1, 1201125, Note_on_c, 0, 48, 59
1, 1201212, Note_on_c, 0, 48, 0
1, 1201212, Note_on_c, 0, 58, 59
1, 1201298, Note_on_c, 0, 58, 0
1, 1201298, Note_on_c, 0, 70, 87
1, 1201298, Note_on_c, 0, 48, 59
1, 1201315, Note_on_c, 0, 71, 0
1, 1201406, Note_on_c, 0, 48, 0
1, 1201406, Note_on_c, 0, 58, 59
1, 1201514, Note_on_c, 0, 42, 0
1, 1201514, Note_on_c, 0, 68, 87
1, 1201514, Note_on_c, 0, 40, 79
1, 1201517, Note_on_c, 0, 58, 0
1, 1201531, Note_on_c, 0, 64, 0
1, 1201622, Note_on_c, 0, 75, 95
1, 1201622, Note_on_c, 0, 61, 59
1, 1201642, Note_on_c, 0, 70, 0
1, 1201747, Note_on_c, 0, 61, 0
1, 1201747, Note_on_c, 0, 56, 59
1, 1201872, Note_on_c, 0, 56, 0
1, 1201872, Note_on_c, 0, 61, 59
1, 1201997, Note_on_c, 0, 61, 0
1, 1201997, Note_on_c, 0, 73, 88
1, 1201997, Note_on_c, 0, 55, 59
1, 1202010, Note_on_c, 0, 75, 0
1, 1202083, Note_on_c, 0, 55, 0
1, 1202083, Note_on_c, 0, 61, 59
1, 1202169, Note_on_c, 0, 61, 0
1, 1202169, Note_on_c, 0, 56, 59
1, 1202247, Control_c, 0, 64, 0
1, 1202247, Control_c, 0, 64, 0
1, 1202256, Note_on_c, 0, 56, 0
1, 1202256, Note_on_c, 0, 66, 82
1, 1202256, Note_on_c, 0, 61, 59
1, 1202273, Note_on_c, 0, 68, 0
1, 1202294, Control_c, 0, 64, 127
1, 1202294, Control_c, 0, 64, 127
1, 1202364, Note_on_c, 0, 66, 0
1, 1202364, Control_c, 0, 64, 127
1, 1202364, Note_on_c, 0, 66, 78
1, 1202367, Note_on_c, 0, 61, 0
1, 1202367, Note_on_c, 0, 40, 0
1, 1202367, Control_c, 0, 64, 127
1, 1202370, Note_on_c, 0, 39, 78
1, 1202381, Note_on_c, 0, 73, 0
1, 1202447, Control_c, 0, 64, 0
1, 1202447, Control_c, 0, 64, 0
1, 1202471, Control_c, 0, 64, 0
1, 1202471, Note_on_c, 0, 71, 87
1, 1202471, Control_c, 0, 64, 0
1, 1202471, Note_on_c, 0, 59, 55
1, 1202522, Control_c, 0, 64, 127
1, 1202522, Control_c, 0, 64, 127
1, 1202565, Note_on_c, 0, 59, 0
1, 1202565, Note_on_c, 0, 51, 55
1, 1202565, Note_on_c, 0, 54, 55
1, 1202659, Note_on_c, 0, 54, 0
1, 1202659, Note_on_c, 0, 51, 0
1, 1202659, Note_on_c, 0, 59, 55
1, 1202739, Note_on_c, 0, 59, 0
1, 1202739, Note_on_c, 0, 50, 55
1, 1202826, Note_on_c, 0, 50, 0
1, 1202826, Note_on_c, 0, 59, 55
1, 1202919, Note_on_c, 0, 59, 0
1, 1202919, Note_on_c, 0, 51, 55
1, 1202919, Note_on_c, 0, 54, 55
1, 1203021, Note_on_c, 0, 54, 0
1, 1203021, Note_on_c, 0, 51, 0
1, 1203021, Note_on_c, 0, 59, 55
1, 1203103, Control_c, 0, 64, 0
1, 1203103, Control_c, 0, 64, 0
1, 1203123, Note_on_c, 0, 71, 0
1, 1203123, Note_on_c, 0, 66, 0
1, 1203123, Note_on_c, 0, 67, 73
1, 1203126, Note_on_c, 0, 59, 0
1, 1203126, Note_on_c, 0, 83, 89
1, 1203126, Note_on_c, 0, 50, 55
1, 1203223, Control_c, 0, 64, 127
1, 1203223, Control_c, 0, 64, 127
1, 1203248, Note_on_c, 0, 50, 0
1, 1203248, Note_on_c, 0, 59, 55
1, 1203373, Note_on_c, 0, 59, 0
1, 1203373, Note_on_c, 0, 51, 55
1, 1203373, Note_on_c, 0, 54, 55
1, 1203448, Note_on_c, 0, 54, 0
1, 1203448, Note_on_c, 0, 51, 0
1, 1203448, Note_on_c, 0, 59, 55
1, 1203523, Note_on_c, 0, 59, 0
1, 1203523, Note_on_c, 0, 50, 55
1, 1203598, Note_on_c, 0, 50, 0
1, 1203598, Note_on_c, 0, 59, 55
1, 1203668, Note_on_c, 0, 59, 0
1, 1203668, Note_on_c, 0, 51, 55
1, 1203668, Note_on_c, 0, 54, 55
1, 1203738, Note_on_c, 0, 54, 0
1, 1203738, Note_on_c, 0, 51, 0
1, 1203738, Note_on_c, 0, 59, 55
1, 1203808, Note_on_c, 0, 59, 0
1, 1203808, Note_on_c, 0, 39, 0
1, 1203808, Note_on_c, 0, 79, 82
1, 1203811, Note_on_c, 0, 40, 72
1, 1203828, Note_on_c, 0, 83, 0
1, 1203863, Control_c, 0, 64, 0
1, 1203863, Control_c, 0, 64, 0
1, 1203933, Note_on_c, 0, 59, 55
1, 1203952, Control_c, 0, 64, 127
1, 1203952, Control_c, 0, 64, 127
1, 1204027, Note_on_c, 0, 59, 0
1, 1204027, Note_on_c, 0, 52, 55
1, 1204027, Note_on_c, 0, 56, 55
1, 1204113, Note_on_c, 0, 56, 0
1, 1204113, Note_on_c, 0, 52, 0
1, 1204113, Note_on_c, 0, 59, 55
1, 1204199, Note_on_c, 0, 59, 0
1, 1204199, Note_on_c, 0, 68, 84
1, 1204199, Note_on_c, 0, 51, 55
1, 1204213, Note_on_c, 0, 67, 0
1, 1204258, Control_c, 0, 64, 0
1, 1204258, Control_c, 0, 64, 0
1, 1204286, Note_on_c, 0, 51, 0
1, 1204286, Note_on_c, 0, 59, 55
1, 1204324, Control_c, 0, 64, 127
1, 1204324, Control_c, 0, 64, 127
1, 1204372, Note_on_c, 0, 59, 0
1, 1204372, Note_on_c, 0, 52, 55
1, 1204372, Note_on_c, 0, 56, 55
1, 1204459, Note_on_c, 0, 56, 0
1, 1204459, Note_on_c, 0, 52, 0
1, 1204459, Note_on_c, 0, 59, 55
1, 1204545, Note_on_c, 0, 59, 0
1, 1204545, Note_on_c, 0, 71, 89
1, 1204545, Note_on_c, 0, 80, 74
1, 1204548, Note_on_c, 0, 51, 55
1, 1204559, Note_on_c, 0, 68, 0
1, 1204559, Note_on_c, 0, 79, 0
1, 1204631, Note_on_c, 0, 51, 0
1, 1204631, Note_on_c, 0, 59, 55
1, 1204718, Note_on_c, 0, 59, 0
1, 1204718, Note_on_c, 0, 52, 55
1, 1204718, Note_on_c, 0, 56, 55
1, 1204804, Note_on_c, 0, 56, 0
1, 1204804, Note_on_c, 0, 52, 0
1, 1204804, Note_on_c, 0, 59, 55
1, 1204891, Note_on_c, 0, 59, 0
1, 1204891, Note_on_c, 0, 76, 93
1, 1204891, Note_on_c, 0, 51, 55
1, 1204907, Note_on_c, 0, 71, 0
1, 1204993, Note_on_c, 0, 51, 0
1, 1204993, Note_on_c, 0, 59, 55
1, 1205091, Control_c, 0, 64, 127
1, 1205091, Control_c, 0, 64, 127
1, 1205101, Note_on_c, 0, 59, 0
1, 1205101, Note_on_c, 0, 52, 55
1, 1205101, Note_on_c, 0, 56, 55
1, 1205226, Note_on_c, 0, 56, 0
1, 1205226, Note_on_c, 0, 52, 0
1, 1205226, Note_on_c, 0, 59, 55
1, 1205366, Note_on_c, 0, 76, 0
1, 1205366, Note_on_c, 0, 80, 0
1, 1205366, Control_c, 0, 64, 127
1, 1205369, Note_on_c, 0, 78, 92
1, 1205369, Note_on_c, 0, 76, 80
1, 1205369, Control_c, 0, 64, 127
1, 1205372, Note_on_c, 0, 40, 0
1, 1205372, Note_on_c, 0, 59, 0
1, 1205372, Note_on_c, 0, 42, 72
1, 1205468, Control_c, 0, 64, 0
1, 1205468, Control_c, 0, 64, 0
1, 1205552, Control_c, 0, 64, 0
1, 1205552, Control_c, 0, 64, 0
1, 1205552, Note_on_c, 0, 64, 55
1, 1205593, Control_c, 0, 64, 127
1, 1205593, Control_c, 0, 64, 127
1, 1205647, Note_on_c, 0, 64, 0
1, 1205647, Note_on_c, 0, 54, 55
1, 1205647, Note_on_c, 0, 58, 55
1, 1205740, Note_on_c, 0, 58, 0
1, 1205740, Note_on_c, 0, 54, 0
1, 1205740, Note_on_c, 0, 64, 55
1, 1205821, Note_on_c, 0, 64, 0
1, 1205821, Note_on_c, 0, 53, 55
1, 1205891, Note_on_c, 0, 53, 0
1, 1205891, Note_on_c, 0, 64, 55
1, 1205961, Note_on_c, 0, 64, 0
1, 1205961, Note_on_c, 0, 54, 55
1, 1205961, Note_on_c, 0, 58, 55
1, 1206031, Note_on_c, 0, 58, 0
1, 1206031, Note_on_c, 0, 54, 0
1, 1206031, Note_on_c, 0, 66, 85
1, 1206034, Note_on_c, 0, 64, 55
1, 1206053, Note_on_c, 0, 76, 0
1, 1206172, Note_on_c, 0, 64, 0
1, 1206172, Note_on_c, 0, 88, 97
1, 1206172, Note_on_c, 0, 53, 55
1, 1206188, Note_on_c, 0, 78, 0
1, 1206280, Note_on_c, 0, 53, 0
1, 1206280, Note_on_c, 0, 64, 55
1, 1206388, Note_on_c, 0, 64, 0
1, 1206388, Note_on_c, 0, 54, 55
1, 1206388, Note_on_c, 0, 58, 55
1, 1206496, Note_on_c, 0, 58, 0
1, 1206496, Note_on_c, 0, 54, 0
1, 1206496, Note_on_c, 0, 64, 55
1, 1206604, Note_on_c, 0, 64, 0
1, 1206604, Note_on_c, 0, 87, 92
1, 1206604, Note_on_c, 0, 53, 55
1, 1206623, Note_on_c, 0, 88, 0
1, 1206728, Note_on_c, 0, 53, 0
1, 1206728, Note_on_c, 0, 64, 55
1, 1206853, Note_on_c, 0, 64, 0
1, 1206853, Note_on_c, 0, 85, 89
1, 1206853, Note_on_c, 0, 54, 55
1, 1206856, Note_on_c, 0, 58, 55
1, 1206870, Note_on_c, 0, 87, 0
1, 1206961, Note_on_c, 0, 54, 0
1, 1206961, Note_on_c, 0, 58, 0
1, 1206961, Note_on_c, 0, 64, 55
1, 1207069, Note_on_c, 0, 42, 0
1, 1207069, Note_on_c, 0, 85, 0
1, 1207069, Note_on_c, 0, 85, 94
1, 1207072, Note_on_c, 0, 64, 0
1, 1207072, Note_on_c, 0, 47, 66
1, 1207124, Control_c, 0, 64, 0
1, 1207124, Control_c, 0, 64, 0
1, 1207194, Note_on_c, 0, 66, 0
1, 1207194, Note_on_c, 0, 66, 83
1, 1207194, Note_on_c, 0, 63, 55
1, 1207213, Control_c, 0, 64, 127
1, 1207213, Control_c, 0, 64, 127
1, 1207288, Note_on_c, 0, 63, 0
1, 1207288, Note_on_c, 0, 54, 55
1, 1207288, Note_on_c, 0, 59, 55
1, 1207374, Note_on_c, 0, 59, 0
1, 1207374, Note_on_c, 0, 54, 0
1, 1207374, Note_on_c, 0, 63, 55
1, 1207460, Note_on_c, 0, 63, 0
1, 1207460, Note_on_c, 0, 68, 82
1, 1207460, Note_on_c, 0, 53, 55
1, 1207476, Note_on_c, 0, 66, 0
1, 1207529, Control_c, 0, 64, 0
1, 1207529, Control_c, 0, 64, 0
1, 1207563, Note_on_c, 0, 53, 0
1, 1207563, Note_on_c, 0, 63, 55
1, 1207608, Control_c, 0, 64, 127
1, 1207608, Control_c, 0, 64, 127
1, 1207665, Note_on_c, 0, 63, 0
1, 1207665, Note_on_c, 0, 70, 80
1, 1207665, Note_on_c, 0, 54, 55
1, 1207668, Note_on_c, 0, 59, 55
1, 1207681, Note_on_c, 0, 68, 0
1, 1207767, Note_on_c, 0, 54, 0
1, 1207767, Note_on_c, 0, 59, 0
1, 1207767, Note_on_c, 0, 63, 55
1, 1207869, Note_on_c, 0, 63, 0
1, 1207869, Note_on_c, 0, 71, 73
1, 1207869, Note_on_c, 0, 83, 87
1, 1207872, Note_on_c, 0, 53, 55
1, 1207885, Note_on_c, 0, 85, 0
1, 1207885, Note_on_c, 0, 70, 0
1, 1207971, Note_on_c, 0, 53, 0
1, 1207971, Note_on_c, 0, 63, 55
1, 1208073, Note_on_c, 0, 63, 0
1, 1208073, Note_on_c, 0, 54, 55
1, 1208073, Note_on_c, 0, 59, 55
1, 1208175, Note_on_c, 0, 59, 0
1, 1208175, Note_on_c, 0, 54, 0
1, 1208175, Note_on_c, 0, 63, 55
1, 1208277, Note_on_c, 0, 63, 0
1, 1208277, Note_on_c, 0, 82, 83
1, 1208277, Note_on_c, 0, 53, 55
1, 1208292, Note_on_c, 0, 83, 0
1, 1208371, Note_on_c, 0, 53, 0
1, 1208371, Note_on_c, 0, 63, 55
1, 1208464, Note_on_c, 0, 63, 0
1, 1208464, Note_on_c, 0, 80, 81
1, 1208464, Note_on_c, 0, 54, 55
1, 1208467, Note_on_c, 0, 59, 55
1, 1208479, Note_on_c, 0, 82, 0
1, 1208518, Control_c, 0, 64, 127
1, 1208518, Control_c, 0, 64, 127
1, 1208558, Note_on_c, 0, 54, 0
1, 1208558, Note_on_c, 0, 59, 0
1, 1208558, Note_on_c, 0, 63, 55
1, 1208652, Note_on_c, 0, 71, 0
1, 1208652, Control_c, 0, 64, 0
1, 1208652, Note_on_c, 0, 76, 72
1, 1208655, Note_on_c, 0, 63, 0
1, 1208655, Note_on_c, 0, 47, 0
1, 1208655, Control_c, 0, 64, 0
1, 1208658, Note_on_c, 0, 42, 66
1, 1208666, Note_on_c, 0, 80, 0
1, 1208745, Note_on_c, 0, 78, 84
1, 1208745, Note_on_c, 0, 64, 55
1, 1208765, Control_c, 0, 64, 127
1, 1208765, Control_c, 0, 64, 127
1, 1208839, Note_on_c, 0, 64, 0
1, 1208839, Note_on_c, 0, 54, 55
1, 1208839, Note_on_c, 0, 58, 55
1, 1208932, Note_on_c, 0, 58, 0
1, 1208932, Note_on_c, 0, 54, 0
1, 1208932, Note_on_c, 0, 64, 55
1, 1209013, Note_on_c, 0, 64, 0
1, 1209013, Note_on_c, 0, 53, 55
1, 1209083, Note_on_c, 0, 53, 0
1, 1209083, Note_on_c, 0, 64, 55
1, 1209153, Note_on_c, 0, 64, 0
1, 1209153, Note_on_c, 0, 54, 55
1, 1209153, Note_on_c, 0, 58, 55
1, 1209223, Note_on_c, 0, 58, 0
1, 1209223, Note_on_c, 0, 54, 0
1, 1209223, Note_on_c, 0, 66, 77
1, 1209226, Note_on_c, 0, 64, 55
1, 1209248, Note_on_c, 0, 76, 0
1, 1209384, Note_on_c, 0, 64, 0
1, 1209384, Note_on_c, 0, 78, 0
1, 1209384, Note_on_c, 0, 88, 89
1, 1209387, Note_on_c, 0, 53, 55
1, 1209492, Note_on_c, 0, 53, 0
1, 1209492, Note_on_c, 0, 64, 55
1, 1209600, Note_on_c, 0, 64, 0
1, 1209600, Note_on_c, 0, 54, 55
1, 1209600, Note_on_c, 0, 58, 55
1, 1209708, Note_on_c, 0, 58, 0
1, 1209708, Note_on_c, 0, 54, 0
1, 1209708, Note_on_c, 0, 64, 55
1, 1209816, Note_on_c, 0, 64, 0
1, 1209816, Note_on_c, 0, 87, 84
1, 1209816, Note_on_c, 0, 53, 55
1, 1209838, Note_on_c, 0, 88, 0
1, 1209956, Note_on_c, 0, 53, 0
1, 1209956, Note_on_c, 0, 64, 55
1, 1210097, Note_on_c, 0, 64, 0
1, 1210097, Note_on_c, 0, 85, 81
1, 1210097, Note_on_c, 0, 54, 55
1, 1210100, Note_on_c, 0, 58, 55
1, 1210116, Note_on_c, 0, 87, 0
1, 1210221, Note_on_c, 0, 54, 0
1, 1210221, Note_on_c, 0, 58, 0
1, 1210221, Note_on_c, 0, 64, 55
1, 1210346, Note_on_c, 0, 42, 0
1, 1210346, Note_on_c, 0, 85, 0
1, 1210346, Note_on_c, 0, 85, 86
1, 1210349, Note_on_c, 0, 64, 0
1, 1210349, Note_on_c, 0, 47, 66
1, 1210401, Control_c, 0, 64, 0
1, 1210401, Control_c, 0, 64, 0
1, 1210471, Note_on_c, 0, 66, 0
1, 1210471, Note_on_c, 0, 66, 75
1, 1210471, Note_on_c, 0, 63, 55
1, 1210496, Control_c, 0, 64, 127
1, 1210496, Control_c, 0, 64, 127
1, 1210596, Note_on_c, 0, 63, 0
1, 1210596, Note_on_c, 0, 54, 55
1, 1210596, Note_on_c, 0, 59, 55
1, 1210682, Note_on_c, 0, 59, 0
1, 1210682, Note_on_c, 0, 54, 0
1, 1210682, Note_on_c, 0, 63, 55
1, 1210731, Control_c, 0, 64, 127
1, 1210731, Control_c, 0, 64, 127
1, 1210769, Note_on_c, 0, 63, 0
1, 1210769, Note_on_c, 0, 68, 73
1, 1210769, Note_on_c, 0, 53, 55
1, 1210785, Note_on_c, 0, 66, 0
1, 1210877, Note_on_c, 0, 53, 0
1, 1210877, Note_on_c, 0, 63, 55
1, 1210985, Note_on_c, 0, 63, 0
1, 1210985, Note_on_c, 0, 70, 70
1, 1210985, Note_on_c, 0, 54, 55
1, 1210988, Note_on_c, 0, 59, 55
1, 1211004, Note_on_c, 0, 68, 0
1, 1211109, Note_on_c, 0, 54, 0
1, 1211109, Note_on_c, 0, 59, 0
1, 1211109, Note_on_c, 0, 63, 55
1, 1211234, Note_on_c, 0, 63, 0
1, 1211234, Note_on_c, 0, 71, 67
1, 1211234, Note_on_c, 0, 83, 83
1, 1211237, Note_on_c, 0, 53, 55
1, 1211250, Note_on_c, 0, 85, 0
1, 1211250, Note_on_c, 0, 70, 0
1, 1211336, Note_on_c, 0, 53, 0
1, 1211336, Note_on_c, 0, 63, 55
1, 1211461, Note_on_c, 0, 63, 0
1, 1211461, Note_on_c, 0, 54, 55
1, 1211461, Note_on_c, 0, 59, 55
1, 1211586, Note_on_c, 0, 59, 0
1, 1211586, Note_on_c, 0, 54, 0
1, 1211586, Note_on_c, 0, 63, 55
1, 1211726, Note_on_c, 0, 63, 0
1, 1211726, Note_on_c, 0, 82, 82
1, 1211726, Note_on_c, 0, 53, 55
1, 1211756, Note_on_c, 0, 83, 0
1, 1211851, Note_on_c, 0, 53, 0
1, 1211851, Note_on_c, 0, 63, 55
1, 1211976, Note_on_c, 0, 63, 0
1, 1211976, Note_on_c, 0, 80, 80
1, 1211976, Note_on_c, 0, 54, 55
1, 1211979, Note_on_c, 0, 59, 55
1, 1212005, Note_on_c, 0, 82, 0
1, 1212061, Control_c, 0, 64, 127
1, 1212061, Control_c, 0, 64, 127
1, 1212101, Note_on_c, 0, 54, 0
1, 1212101, Note_on_c, 0, 59, 0
1, 1212101, Note_on_c, 0, 63, 55
1, 1212225, Control_c, 0, 64, 127
1, 1212225, Note_on_c, 0, 79, 86
1, 1212225, Note_on_c, 0, 73, 64
1, 1212228, Note_on_c, 0, 63, 0
1, 1212228, Note_on_c, 0, 47, 0
1, 1212228, Control_c, 0, 64, 127
1, 1212231, Note_on_c, 0, 46, 74
1, 1212269, Note_on_c, 0, 71, 0
1, 1212269, Note_on_c, 0, 80, 0
1, 1212370, Control_c, 0, 64, 0
1, 1212370, Control_c, 0, 64, 0
1, 1212413, Note_on_c, 0, 61, 55
1, 1212432, Control_c, 0, 64, 127
1, 1212432, Control_c, 0, 64, 127
1, 1212506, Note_on_c, 0, 61, 0
1, 1212506, Note_on_c, 0, 51, 55
1, 1212506, Note_on_c, 0, 55, 55
1, 1212600, Note_on_c, 0, 55, 0
1, 1212600, Note_on_c, 0, 51, 0
1, 1212600, Note_on_c, 0, 61, 55
1, 1212680, Note_on_c, 0, 61, 0
1, 1212680, Note_on_c, 0, 50, 55
1, 1212750, Note_on_c, 0, 50, 0
1, 1212750, Note_on_c, 0, 61, 55
1, 1212820, Note_on_c, 0, 61, 0
1, 1212820, Note_on_c, 0, 51, 56
1, 1212820, Note_on_c, 0, 55, 56
1, 1212891, Note_on_c, 0, 55, 0
1, 1212891, Note_on_c, 0, 51, 0
1, 1212891, Note_on_c, 0, 63, 79
1, 1212894, Note_on_c, 0, 61, 56
1, 1212913, Note_on_c, 0, 73, 0
1, 1213031, Note_on_c, 0, 61, 0
1, 1213031, Note_on_c, 0, 85, 88
1, 1213031, Note_on_c, 0, 50, 56
1, 1213048, Note_on_c, 0, 79, 0
1, 1213139, Note_on_c, 0, 50, 0
1, 1213139, Note_on_c, 0, 61, 56
1, 1213247, Note_on_c, 0, 61, 0
1, 1213247, Note_on_c, 0, 51, 56
1, 1213247, Note_on_c, 0, 55, 56
1, 1213355, Note_on_c, 0, 55, 0
1, 1213355, Note_on_c, 0, 51, 0
1, 1213355, Note_on_c, 0, 61, 56
1, 1213463, Note_on_c, 0, 61, 0
1, 1213463, Note_on_c, 0, 83, 85
1, 1213463, Note_on_c, 0, 50, 56
1, 1213483, Note_on_c, 0, 85, 0
1, 1213588, Note_on_c, 0, 50, 0
1, 1213588, Note_on_c, 0, 61, 56
1, 1213713, Note_on_c, 0, 61, 0
1, 1213713, Note_on_c, 0, 82, 84
1, 1213713, Note_on_c, 0, 51, 57
1, 1213716, Note_on_c, 0, 55, 57
1, 1213735, Note_on_c, 0, 83, 0
1, 1213853, Note_on_c, 0, 51, 0
1, 1213853, Note_on_c, 0, 55, 0
1, 1213853, Note_on_c, 0, 61, 57
1, 1213924, Control_c, 0, 64, 0
1, 1213924, Control_c, 0, 64, 0
1, 1213993, Note_on_c, 0, 46, 0
1, 1213993, Note_on_c, 0, 82, 0
1, 1213993, Note_on_c, 0, 82, 83
1, 1213996, Note_on_c, 0, 61, 0
1, 1213996, Note_on_c, 0, 44, 76
1, 1214048, Control_c, 0, 64, 0
1, 1214048, Control_c, 0, 64, 0
1, 1214069, Control_c, 0, 64, 127
1, 1214069, Control_c, 0, 64, 127
1, 1214076, Note_on_c, 0, 63, 0
1, 1214076, Note_on_c, 0, 63, 78
1, 1214113, Note_on_c, 0, 59, 57
1, 1214221, Note_on_c, 0, 59, 0
1, 1214221, Note_on_c, 0, 51, 57
1, 1214221, Note_on_c, 0, 56, 57
1, 1214292, Note_on_c, 0, 65, 81
1, 1214308, Note_on_c, 0, 63, 0
1, 1214327, Note_on_c, 0, 56, 0
1, 1214327, Note_on_c, 0, 51, 0
1, 1214327, Note_on_c, 0, 59, 57
1, 1214429, Note_on_c, 0, 59, 0
1, 1214429, Note_on_c, 0, 50, 57
1, 1214531, Note_on_c, 0, 50, 0
1, 1214531, Note_on_c, 0, 59, 57
1, 1214565, Note_on_c, 0, 67, 84
1, 1214580, Note_on_c, 0, 65, 0
1, 1214627, Note_on_c, 0, 59, 0
1, 1214627, Note_on_c, 0, 51, 57
1, 1214627, Note_on_c, 0, 56, 57
1, 1214721, Note_on_c, 0, 56, 0
1, 1214721, Note_on_c, 0, 51, 0
1, 1214721, Note_on_c, 0, 59, 57
1, 1214815, Note_on_c, 0, 82, 0
1, 1214815, Note_on_c, 0, 68, 82
1, 1214815, Note_on_c, 0, 80, 83
1, 1214818, Note_on_c, 0, 59, 0
1, 1214818, Note_on_c, 0, 50, 57
1, 1214828, Note_on_c, 0, 67, 0
1, 1214901, Note_on_c, 0, 50, 0
1, 1214901, Note_on_c, 0, 59, 58
1, 1214987, Note_on_c, 0, 59, 0
1, 1214987, Note_on_c, 0, 51, 58
1, 1214987, Note_on_c, 0, 56, 58
1, 1215045, Note_on_c, 0, 70, 93
1, 1215057, Note_on_c, 0, 68, 0
1, 1215072, Note_on_c, 0, 56, 0
1, 1215072, Note_on_c, 0, 51, 0
1, 1215072, Note_on_c, 0, 59, 58
1, 1215152, Note_on_c, 0, 59, 0
1, 1215152, Note_on_c, 0, 50, 58
1, 1215232, Note_on_c, 0, 50, 0
1, 1215232, Note_on_c, 0, 59, 58
1, 1215259, Note_on_c, 0, 71, 96
1, 1215271, Note_on_c, 0, 70, 0
1, 1215309, Note_on_c, 0, 59, 0
1, 1215309, Note_on_c, 0, 51, 58
1, 1215309, Note_on_c, 0, 56, 58
1, 1215384, Note_on_c, 0, 56, 0
1, 1215384, Note_on_c, 0, 51, 0
1, 1215384, Note_on_c, 0, 59, 58
1, 1215401, Control_c, 0, 64, 0
1, 1215401, Control_c, 0, 64, 0
1, 1215409, Note_on_c, 0, 71, 0
1, 1215409, Note_on_c, 0, 71, 88
1, 1215471, Control_c, 0, 64, 127
1, 1215471, Control_c, 0, 64, 127
1, 1215502, Note_on_c, 0, 71, 0
1, 1215502, Control_c, 0, 64, 127
1, 1215502, Note_on_c, 0, 75, 94
1, 1215505, Note_on_c, 0, 44, 0
1, 1215505, Note_on_c, 0, 80, 94
1, 1215505, Control_c, 0, 64, 127
1, 1215508, Note_on_c, 0, 59, 0
1, 1215508, Note_on_c, 0, 40, 80
1, 1215531, Note_on_c, 0, 80, 0
1, 1215604, Control_c, 0, 64, 0
1, 1215604, Control_c, 0, 64, 0
1, 1215689, Note_on_c, 0, 61, 62
1, 1215709, Control_c, 0, 64, 127
1, 1215709, Control_c, 0, 64, 127
1, 1215783, Note_on_c, 0, 61, 0
1, 1215783, Note_on_c, 0, 52, 62
1, 1215783, Note_on_c, 0, 56, 62
1, 1215876, Note_on_c, 0, 56, 0
1, 1215876, Note_on_c, 0, 52, 0
1, 1215876, Note_on_c, 0, 61, 62
1, 1215957, Note_on_c, 0, 61, 0
1, 1215957, Note_on_c, 0, 51, 62
1, 1216027, Note_on_c, 0, 51, 0
1, 1216027, Note_on_c, 0, 61, 62
1, 1216097, Note_on_c, 0, 61, 0
1, 1216097, Note_on_c, 0, 52, 62
1, 1216097, Note_on_c, 0, 56, 62
1, 1216167, Note_on_c, 0, 56, 0
1, 1216167, Note_on_c, 0, 52, 0
1, 1216167, Note_on_c, 0, 73, 92
1, 1216170, Note_on_c, 0, 61, 62
1, 1216189, Note_on_c, 0, 75, 0
1, 1216308, Note_on_c, 0, 80, 0
1, 1216308, Note_on_c, 0, 88, 101
1, 1216308, Note_on_c, 0, 80, 96
1, 1216311, Note_on_c, 0, 61, 0
1, 1216311, Note_on_c, 0, 51, 62
1, 1216416, Note_on_c, 0, 51, 0
1, 1216416, Note_on_c, 0, 61, 62
1, 1216524, Note_on_c, 0, 61, 0
1, 1216524, Note_on_c, 0, 52, 62
1, 1216524, Note_on_c, 0, 56, 62
1, 1216632, Note_on_c, 0, 56, 0
1, 1216632, Note_on_c, 0, 52, 0
1, 1216632, Note_on_c, 0, 61, 62
1, 1216740, Note_on_c, 0, 61, 0
1, 1216740, Note_on_c, 0, 87, 97
1, 1216740, Note_on_c, 0, 51, 62
1, 1216757, Note_on_c, 0, 88, 0
1, 1216848, Note_on_c, 0, 51, 0
1, 1216848, Note_on_c, 0, 61, 62
1, 1216956, Note_on_c, 0, 61, 0
1, 1216956, Note_on_c, 0, 85, 97
1, 1216956, Note_on_c, 0, 52, 62
1, 1216959, Note_on_c, 0, 56, 62
1, 1216985, Note_on_c, 0, 87, 0
1, 1217143, Note_on_c, 0, 52, 0
1, 1217143, Note_on_c, 0, 56, 0
1, 1217143, Note_on_c, 0, 66, 83
1, 1217146, Note_on_c, 0, 61, 62
1, 1217172, Note_on_c, 0, 80, 0
1, 1217172, Note_on_c, 0, 73, 0
1, 1217237, Note_on_c, 0, 85, 97
1, 1217258, Note_on_c, 0, 85, 0
1, 1217307, Note_on_c, 0, 40, 0
1, 1217307, Note_on_c, 0, 78, 98
1, 1217307, Note_on_c, 0, 73, 87
1, 1217310, Note_on_c, 0, 61, 0
1, 1217310, Note_on_c, 0, 39, 80
1, 1217361, Control_c, 0, 64, 0
1, 1217361, Control_c, 0, 64, 0
1, 1217432, Note_on_c, 0, 59, 62
1, 1217451, Control_c, 0, 64, 127
1, 1217451, Control_c, 0, 64, 127
1, 1217525, Note_on_c, 0, 59, 0
1, 1217525, Note_on_c, 0, 51, 74
1, 1217612, Note_on_c, 0, 51, 0
1, 1217612, Note_on_c, 0, 59, 62
1, 1217698, Note_on_c, 0, 59, 0
1, 1217698, Note_on_c, 0, 50, 74
1, 1217756, Control_c, 0, 64, 0
1, 1217756, Control_c, 0, 64, 0
1, 1217784, Note_on_c, 0, 50, 0
1, 1217784, Note_on_c, 0, 59, 62
1, 1217823, Control_c, 0, 64, 127
1, 1217823, Control_c, 0, 64, 127
1, 1217871, Note_on_c, 0, 59, 0
1, 1217871, Note_on_c, 0, 51, 74
1, 1217957, Note_on_c, 0, 73, 0
1, 1217957, Note_on_c, 0, 66, 0
1, 1217957, Note_on_c, 0, 71, 96
1, 1217960, Note_on_c, 0, 51, 0
1, 1217960, Note_on_c, 0, 59, 62
1, 1218098, Note_on_c, 0, 78, 0
1, 1218098, Note_on_c, 0, 90, 105
1, 1218098, Note_on_c, 0, 78, 81
1, 1218101, Note_on_c, 0, 59, 0
1, 1218101, Note_on_c, 0, 53, 74
1, 1218114, Note_on_c, 0, 85, 0
1, 1218206, Note_on_c, 0, 53, 0
1, 1218206, Note_on_c, 0, 59, 62
1, 1218314, Note_on_c, 0, 59, 0
1, 1218314, Note_on_c, 0, 54, 74
1, 1218422, Note_on_c, 0, 54, 0
1, 1218422, Note_on_c, 0, 59, 62
1, 1218530, Note_on_c, 0, 59, 0
1, 1218530, Note_on_c, 0, 88, 107
1, 1218530, Note_on_c, 0, 56, 74
1, 1218546, Note_on_c, 0, 90, 0
1, 1218638, Note_on_c, 0, 56, 0
1, 1218638, Note_on_c, 0, 59, 62
1, 1218746, Note_on_c, 0, 59, 0
1, 1218746, Note_on_c, 0, 87, 111
1, 1218746, Note_on_c, 0, 58, 74
1, 1218762, Note_on_c, 0, 88, 0
1, 1218854, Note_on_c, 0, 58, 0
1, 1218854, Note_on_c, 0, 75, 96
1, 1218854, Note_on_c, 0, 59, 62
1, 1218875, Note_on_c, 0, 71, 0
1, 1218875, Note_on_c, 0, 78, 0
1, 1218917, Control_c, 0, 64, 0
1, 1218917, Control_c, 0, 64, 0
1, 1218994, Note_on_c, 0, 87, 0
1, 1218994, Control_c, 0, 64, 0
1, 1218994, Note_on_c, 0, 80, 97
1, 1218997, Note_on_c, 0, 39, 0
1, 1218997, Note_on_c, 0, 87, 109
1, 1218997, Control_c, 0, 64, 0
1, 1219000, Note_on_c, 0, 59, 0
1, 1219000, Note_on_c, 0, 40, 79
1, 1219102, Note_on_c, 0, 61, 66
1, 1219120, Control_c, 0, 64, 127
1, 1219120, Control_c, 0, 64, 127
1, 1219188, Note_on_c, 0, 61, 0
1, 1219188, Note_on_c, 0, 52, 67
1, 1219188, Note_on_c, 0, 56, 67
1, 1219275, Note_on_c, 0, 56, 0
1, 1219275, Note_on_c, 0, 52, 0
1, 1219275, Note_on_c, 0, 61, 68
1, 1219361, Note_on_c, 0, 61, 0
1, 1219361, Note_on_c, 0, 73, 91
1, 1219361, Note_on_c, 0, 85, 101
1, 1219364, Note_on_c, 0, 51, 69
1, 1219377, Note_on_c, 0, 87, 0
1, 1219377, Note_on_c, 0, 80, 0
1, 1219377, Note_on_c, 0, 75, 0
1, 1219463, Note_on_c, 0, 51, 0
1, 1219463, Note_on_c, 0, 61, 69
1, 1219565, Note_on_c, 0, 61, 0
1, 1219565, Note_on_c, 0, 71, 94
1, 1219565, Note_on_c, 0, 83, 103
1, 1219568, Note_on_c, 0, 52, 70
1, 1219568, Note_on_c, 0, 56, 70
1, 1219582, Note_on_c, 0, 73, 0
1, 1219582, Note_on_c, 0, 85, 0
1, 1219673, Note_on_c, 0, 52, 0
1, 1219673, Note_on_c, 0, 56, 0
1, 1219673, Note_on_c, 0, 61, 71
1, 1219727, Note_on_c, 0, 71, 0
1, 1219727, Note_on_c, 0, 71, 92
1, 1219749, Note_on_c, 0, 83, 0
1, 1219798, Note_on_c, 0, 40, 0
1, 1219798, Note_on_c, 0, 74, 92
1, 1219798, Note_on_c, 0, 83, 105
1, 1219801, Note_on_c, 0, 61, 0
1, 1219801, Control_c, 0, 64, 0
1, 1219801, Note_on_c, 0, 41, 91
1, 1219804, Control_c, 0, 64, 0
1, 1219891, Note_on_c, 0, 56, 73
1, 1219931, Control_c, 0, 64, 127
1, 1219931, Control_c, 0, 64, 127
1, 1219978, Note_on_c, 0, 56, 0
1, 1219978, Note_on_c, 0, 46, 74
1, 1219978, Note_on_c, 0, 50, 74
1, 1220064, Note_on_c, 0, 50, 0
1, 1220064, Note_on_c, 0, 46, 0
1, 1220064, Note_on_c, 0, 56, 74
1, 1220150, Note_on_c, 0, 71, 0
1, 1220150, Note_on_c, 0, 70, 99
1, 1220150, Note_on_c, 0, 82, 109
1, 1220153, Note_on_c, 0, 56, 0
1, 1220153, Note_on_c, 0, 45, 75
1, 1220166, Note_on_c, 0, 83, 0
1, 1220166, Note_on_c, 0, 74, 0
1, 1220252, Note_on_c, 0, 45, 0
1, 1220252, Note_on_c, 0, 56, 76
1, 1220355, Note_on_c, 0, 56, 0
1, 1220355, Note_on_c, 0, 68, 100
1, 1220355, Note_on_c, 0, 80, 111
1, 1220358, Note_on_c, 0, 46, 77
1, 1220358, Note_on_c, 0, 50, 77
1, 1220371, Note_on_c, 0, 82, 0
1, 1220371, Note_on_c, 0, 70, 0
1, 1220463, Note_on_c, 0, 46, 0
1, 1220463, Note_on_c, 0, 50, 0
1, 1220463, Note_on_c, 0, 56, 78
1, 1220517, Note_on_c, 0, 67, 106
1, 1220546, Note_on_c, 0, 80, 0
1, 1220546, Note_on_c, 0, 68, 0
1, 1220610, Note_on_c, 0, 41, 0
1, 1220610, Note_on_c, 0, 79, 109
1, 1220610, Note_on_c, 0, 75, 97
1, 1220613, Note_on_c, 0, 56, 0
1, 1220613, Note_on_c, 0, 39, 96
1, 1220665, Control_c, 0, 64, 0
1, 1220665, Control_c, 0, 64, 0
1, 1220735, Note_on_c, 0, 55, 79
1, 1220754, Control_c, 0, 64, 127
1, 1220754, Control_c, 0, 64, 127
1, 1220829, Note_on_c, 0, 55, 0
1, 1220829, Note_on_c, 0, 46, 80
1, 1220829, Note_on_c, 0, 51, 80
1, 1220915, Note_on_c, 0, 51, 0
1, 1220915, Note_on_c, 0, 46, 0
1, 1220915, Note_on_c, 0, 55, 81
1, 1220964, Control_c, 0, 64, 127
1, 1220964, Control_c, 0, 64, 127
1, 1221001, Note_on_c, 0, 55, 0
1, 1221001, Note_on_c, 0, 45, 82
1, 1221088, Note_on_c, 0, 45, 0
1, 1221088, Note_on_c, 0, 55, 83
1, 1221174, Note_on_c, 0, 55, 0
1, 1221174, Note_on_c, 0, 46, 84
1, 1221174, Note_on_c, 0, 51, 84
1, 1221261, Note_on_c, 0, 51, 0
1, 1221261, Note_on_c, 0, 46, 0
1, 1221261, Note_on_c, 0, 55, 84
1, 1221347, Note_on_c, 0, 39, 0
1, 1221347, Note_on_c, 0, 70, 106
1, 1221347, Note_on_c, 0, 82, 117
1, 1221350, Note_on_c, 0, 55, 0
1, 1221350, Note_on_c, 0, 27, 102
1, 1221364, Note_on_c, 0, 67, 0
1, 1221364, Note_on_c, 0, 79, 0
1, 1221455, Note_on_c, 0, 55, 86
1, 1221580, Note_on_c, 0, 55, 0
1, 1221580, Note_on_c, 0, 46, 87
1, 1221580, Note_on_c, 0, 51, 87
1, 1221705, Note_on_c, 0, 51, 0
1, 1221705, Note_on_c, 0, 46, 0
1, 1221705, Note_on_c, 0, 55, 88
1, 1221845, Note_on_c, 0, 55, 0
1, 1221845, Note_on_c, 0, 45, 89
1, 1221985, Note_on_c, 0, 45, 0
1, 1221985, Note_on_c, 0, 55, 89
1, 1222126, Note_on_c, 0, 55, 0
1, 1222126, Note_on_c, 0, 46, 90
1, 1222126, Note_on_c, 0, 51, 90
1, 1222286, Note_on_c, 0, 51, 0
1, 1222286, Note_on_c, 0, 46, 0
1, 1222286, Note_on_c, 0, 55, 91
1, 1222359, Control_c, 0, 64, 0
1, 1222359, Control_c, 0, 64, 0
1, 1222447, Control_c, 0, 64, 127
1, 1222447, Note_on_c, 0, 80, 111
1, 1222447, Note_on_c, 0, 92, 117
1, 1222450, Note_on_c, 0, 55, 0
1, 1222450, Note_on_c, 0, 27, 0
1, 1222450, Control_c, 0, 64, 127
1, 1222453, Note_on_c, 0, 32, 108
1, 1222476, Note_on_c, 0, 75, 0
1, 1222476, Note_on_c, 0, 82, 0
1, 1222476, Note_on_c, 0, 70, 0
1, 1222634, Note_on_c, 0, 59, 88
1, 1222727, Note_on_c, 0, 59, 0
1, 1222727, Note_on_c, 0, 51, 88
1, 1222727, Note_on_c, 0, 56, 88
1, 1222821, Note_on_c, 0, 56, 0
1, 1222821, Note_on_c, 0, 51, 0
1, 1222821, Note_on_c, 0, 59, 88
1, 1222901, Note_on_c, 0, 59, 0
1, 1222901, Note_on_c, 0, 50, 88
1, 1222971, Note_on_c, 0, 50, 0
1, 1222971, Note_on_c, 0, 59, 88
1, 1223042, Note_on_c, 0, 59, 0
1, 1223042, Note_on_c, 0, 51, 88
1, 1223042, Note_on_c, 0, 56, 88
1, 1223112, Note_on_c, 0, 56, 0
1, 1223112, Note_on_c, 0, 51, 0
1, 1223112, Note_on_c, 0, 59, 88
1, 1223182, Note_on_c, 0, 59, 0
1, 1223182, Note_on_c, 0, 75, 99
1, 1223182, Note_on_c, 0, 87, 115
1, 1223185, Note_on_c, 0, 50, 88
1, 1223193, Note_on_c, 0, 92, 0
1, 1223193, Note_on_c, 0, 80, 0
1, 1223252, Note_on_c, 0, 50, 0
1, 1223252, Note_on_c, 0, 59, 88
1, 1223322, Note_on_c, 0, 59, 0
1, 1223322, Note_on_c, 0, 51, 88
1, 1223322, Note_on_c, 0, 56, 88
1, 1223393, Note_on_c, 0, 56, 0
1, 1223393, Note_on_c, 0, 51, 0
1, 1223393, Note_on_c, 0, 59, 88
1, 1223463, Note_on_c, 0, 59, 0
1, 1223463, Note_on_c, 0, 50, 88
1, 1223533, Note_on_c, 0, 50, 0
1, 1223533, Note_on_c, 0, 59, 88
1, 1223603, Note_on_c, 0, 59, 0
1, 1223603, Note_on_c, 0, 51, 88
1, 1223603, Note_on_c, 0, 56, 88
1, 1223673, Note_on_c, 0, 56, 0
1, 1223673, Note_on_c, 0, 51, 0
1, 1223673, Note_on_c, 0, 59, 88
1, 1223744, Note_on_c, 0, 32, 0
1, 1223744, Note_on_c, 0, 80, 117
1, 1223744, Note_on_c, 0, 44, 108
1, 1223747, Note_on_c, 0, 59, 0
1, 1223798, Control_c, 0, 64, 0
1, 1223798, Control_c, 0, 64, 0
1, 1223868, Note_on_c, 0, 59, 88
1, 1223887, Control_c, 0, 64, 127
1, 1223887, Control_c, 0, 64, 127
1, 1223962, Note_on_c, 0, 59, 0
1, 1223962, Note_on_c, 0, 51, 88
1, 1223962, Note_on_c, 0, 56, 88
1, 1224048, Note_on_c, 0, 56, 0
1, 1224048, Note_on_c, 0, 51, 0
1, 1224048, Note_on_c, 0, 59, 88
1, 1224063, Note_on_c, 0, 73, 92
1, 1224063, Note_on_c, 0, 85, 108
1, 1224079, Note_on_c, 0, 75, 0
1, 1224079, Note_on_c, 0, 87, 0
1, 1224144, Note_on_c, 0, 59, 0
1, 1224144, Note_on_c, 0, 50, 88
1, 1224246, Note_on_c, 0, 50, 0
1, 1224246, Note_on_c, 0, 59, 88
1, 1224348, Note_on_c, 0, 59, 0
1, 1224348, Note_on_c, 0, 51, 88
1, 1224348, Note_on_c, 0, 56, 88
1, 1224389, Note_on_c, 0, 71, 94
1, 1224389, Note_on_c, 0, 83, 110
1, 1224402, Note_on_c, 0, 73, 0
1, 1224402, Note_on_c, 0, 85, 0
1, 1224437, Note_on_c, 0, 51, 0
1, 1224437, Note_on_c, 0, 56, 0
1, 1224437, Note_on_c, 0, 59, 88
1, 1224517, Note_on_c, 0, 59, 0
1, 1224517, Note_on_c, 0, 75, 117
1, 1224517, Note_on_c, 0, 50, 88
1, 1224530, Note_on_c, 0, 80, 0
1, 1224598, Note_on_c, 0, 50, 0
1, 1224598, Note_on_c, 0, 59, 88
1, 1224646, Note_on_c, 0, 70, 96
1, 1224646, Note_on_c, 0, 82, 113
1, 1224658, Note_on_c, 0, 71, 0
1, 1224658, Note_on_c, 0, 83, 0
1, 1224676, Note_on_c, 0, 59, 0
1, 1224676, Note_on_c, 0, 51, 88
1, 1224676, Note_on_c, 0, 56, 88
1, 1224751, Note_on_c, 0, 56, 0
1, 1224751, Note_on_c, 0, 51, 0
1, 1224751, Note_on_c, 0, 59, 88
1, 1224826, Note_on_c, 0, 59, 0
1, 1224826, Note_on_c, 0, 50, 88
1, 1224885, Note_on_c, 0, 68, 98
1, 1224885, Note_on_c, 0, 80, 116
1, 1224899, Note_on_c, 0, 70, 0
1, 1224899, Note_on_c, 0, 82, 0
1, 1224903, Note_on_c, 0, 50, 0
1, 1224903, Note_on_c, 0, 59, 88
1, 1224989, Note_on_c, 0, 59, 0
1, 1224989, Note_on_c, 0, 51, 88
1, 1224989, Note_on_c, 0, 56, 88
1, 1225076, Note_on_c, 0, 56, 0
1, 1225076, Note_on_c, 0, 51, 0
1, 1225076, Note_on_c, 0, 59, 88
1, 1225162, Note_on_c, 0, 68, 0
1, 1225162, Note_on_c, 0, 80, 0
1, 1225162, Control_c, 0, 64, 127
1, 1225165, Note_on_c, 0, 68, 106
1, 1225165, Note_on_c, 0, 80, 117
1, 1225165, Control_c, 0, 64, 127
1, 1225168, Note_on_c, 0, 59, 0
1, 1225168, Note_on_c, 0, 44, 0
1, 1225168, Note_on_c, 0, 46, 110
1, 1225349, Note_on_c, 0, 61, 87
1, 1225443, Note_on_c, 0, 61, 0
1, 1225443, Note_on_c, 0, 51, 87
1, 1225443, Note_on_c, 0, 55, 87
1, 1225536, Note_on_c, 0, 55, 0
1, 1225536, Note_on_c, 0, 51, 0
1, 1225536, Note_on_c, 0, 61, 86
1, 1225555, Note_on_c, 0, 76, 111
1, 1225570, Note_on_c, 0, 75, 0
1, 1225630, Note_on_c, 0, 61, 0
1, 1225630, Note_on_c, 0, 50, 86
1, 1225724, Note_on_c, 0, 50, 0
1, 1225724, Note_on_c, 0, 61, 85
1, 1225817, Note_on_c, 0, 61, 0
1, 1225817, Note_on_c, 0, 51, 84
1, 1225817, Note_on_c, 0, 55, 84
1, 1225854, Note_on_c, 0, 75, 108
1, 1225868, Note_on_c, 0, 76, 0
1, 1225906, Note_on_c, 0, 51, 0
1, 1225906, Note_on_c, 0, 55, 0
1, 1225906, Note_on_c, 0, 61, 84
1, 1225993, Note_on_c, 0, 46, 0
1, 1225993, Note_on_c, 0, 67, 94
1, 1225993, Note_on_c, 0, 79, 108
1, 1225996, Note_on_c, 0, 61, 0
1, 1225996, Note_on_c, 0, 49, 103
1, 1226006, Note_on_c, 0, 68, 0
1, 1226006, Note_on_c, 0, 80, 0
1, 1226079, Note_on_c, 0, 61, 83
1, 1226131, Note_on_c, 0, 74, 106
1, 1226144, Note_on_c, 0, 75, 0
1, 1226163, Note_on_c, 0, 61, 0
1, 1226163, Note_on_c, 0, 51, 82
1, 1226163, Note_on_c, 0, 55, 82
1, 1226243, Note_on_c, 0, 55, 0
1, 1226243, Note_on_c, 0, 51, 0
1, 1226243, Note_on_c, 0, 61, 81
1, 1226324, Note_on_c, 0, 61, 0
1, 1226324, Note_on_c, 0, 50, 81
1, 1226388, Note_on_c, 0, 75, 103
1, 1226399, Note_on_c, 0, 74, 0
1, 1226403, Note_on_c, 0, 50, 0
1, 1226403, Note_on_c, 0, 61, 80
1, 1226478, Note_on_c, 0, 61, 0
1, 1226478, Note_on_c, 0, 51, 80
1, 1226478, Note_on_c, 0, 55, 80
1, 1226553, Note_on_c, 0, 55, 0
1, 1226553, Note_on_c, 0, 51, 0
1, 1226553, Note_on_c, 0, 61, 79
1, 1226627, Note_on_c, 0, 79, 0
1, 1226627, Note_on_c, 0, 68, 89
1, 1226627, Note_on_c, 0, 80, 103
1, 1226630, Note_on_c, 0, 61, 0
1, 1226630, Note_on_c, 0, 49, 0
1, 1226630, Note_on_c, 0, 47, 96
1, 1226647, Note_on_c, 0, 67, 0
1, 1226682, Control_c, 0, 64, 0
1, 1226682, Control_c, 0, 64, 0
1, 1226752, Note_on_c, 0, 59, 78
1, 1226771, Control_c, 0, 64, 127
1, 1226771, Control_c, 0, 64, 127
1, 1226846, Note_on_c, 0, 59, 0
1, 1226846, Note_on_c, 0, 51, 77
1, 1226846, Note_on_c, 0, 56, 77
1, 1226932, Note_on_c, 0, 56, 0
1, 1226932, Note_on_c, 0, 51, 0
1, 1226932, Note_on_c, 0, 59, 76
1, 1226947, Note_on_c, 0, 75, 0
1, 1226947, Note_on_c, 0, 74, 99
1, 1227002, Note_on_c, 0, 59, 0
1, 1227002, Note_on_c, 0, 50, 76
1, 1227073, Note_on_c, 0, 50, 0
1, 1227073, Note_on_c, 0, 59, 75
1, 1227143, Note_on_c, 0, 59, 0
1, 1227143, Note_on_c, 0, 51, 75
1, 1227143, Note_on_c, 0, 56, 75
1, 1227171, Note_on_c, 0, 75, 95
1, 1227182, Note_on_c, 0, 74, 0
1, 1227213, Note_on_c, 0, 51, 0
1, 1227213, Note_on_c, 0, 56, 0
1, 1227213, Note_on_c, 0, 59, 74
1, 1227283, Note_on_c, 0, 47, 0
1, 1227283, Note_on_c, 0, 66, 84
1, 1227283, Note_on_c, 0, 78, 96
1, 1227286, Note_on_c, 0, 59, 0
1, 1227286, Note_on_c, 0, 48, 90
1, 1227294, Note_on_c, 0, 68, 0
1, 1227294, Note_on_c, 0, 80, 0
1, 1227353, Note_on_c, 0, 63, 73
1, 1227396, Note_on_c, 0, 67, 93
1, 1227407, Note_on_c, 0, 75, 0
1, 1227424, Note_on_c, 0, 63, 0
1, 1227424, Note_on_c, 0, 51, 73
1, 1227424, Note_on_c, 0, 56, 73
1, 1227494, Note_on_c, 0, 56, 0
1, 1227494, Note_on_c, 0, 51, 0
1, 1227494, Note_on_c, 0, 63, 72
1, 1227564, Note_on_c, 0, 63, 0
1, 1227564, Note_on_c, 0, 50, 71
1, 1227620, Note_on_c, 0, 68, 91
1, 1227639, Note_on_c, 0, 67, 0
1, 1227645, Note_on_c, 0, 50, 0
1, 1227645, Note_on_c, 0, 63, 70
1, 1227770, Note_on_c, 0, 63, 0
1, 1227770, Note_on_c, 0, 51, 70
1, 1227770, Note_on_c, 0, 56, 70
1, 1227895, Note_on_c, 0, 56, 0
1, 1227895, Note_on_c, 0, 51, 0
1, 1227895, Note_on_c, 0, 63, 69
1, 1227920, Note_on_c, 0, 64, 80
1, 1227942, Note_on_c, 0, 68, 0
1, 1228032, Control_c, 0, 64, 0
1, 1228032, Note_on_c, 0, 76, 101
1, 1228032, Control_c, 0, 64, 0
1, 1228035, Note_on_c, 0, 63, 0
1, 1228035, Note_on_c, 0, 48, 0
1, 1228035, Note_on_c, 0, 49, 77
1, 1228061, Note_on_c, 0, 78, 0
1, 1228061, Note_on_c, 0, 66, 0
1, 1228219, Note_on_c, 0, 64, 66
1, 1228249, Control_c, 0, 64, 127
1, 1228249, Control_c, 0, 64, 127
1, 1228313, Note_on_c, 0, 64, 0
1, 1228313, Note_on_c, 0, 56, 65
1, 1228313, Note_on_c, 0, 61, 65
1, 1228407, Note_on_c, 0, 61, 0
1, 1228407, Note_on_c, 0, 56, 0
1, 1228407, Note_on_c, 0, 64, 65
1, 1228487, Note_on_c, 0, 64, 0
1, 1228487, Note_on_c, 0, 55, 65
1, 1228557, Note_on_c, 0, 55, 0
1, 1228557, Note_on_c, 0, 64, 65
1, 1228627, Note_on_c, 0, 64, 0
1, 1228627, Note_on_c, 0, 56, 64
1, 1228627, Note_on_c, 0, 61, 64
1, 1228697, Note_on_c, 0, 61, 0
1, 1228697, Note_on_c, 0, 56, 0
1, 1228697, Note_on_c, 0, 68, 89
1, 1228700, Note_on_c, 0, 64, 64
1, 1228719, Note_on_c, 0, 76, 0
1, 1228719, Note_on_c, 0, 64, 0
1, 1228838, Note_on_c, 0, 64, 0
1, 1228838, Note_on_c, 0, 88, 101
1, 1228838, Note_on_c, 0, 55, 63
1, 1228978, Note_on_c, 0, 55, 0
1, 1228978, Note_on_c, 0, 64, 62
1, 1229053, Note_on_c, 0, 64, 0
1, 1229053, Note_on_c, 0, 56, 62
1, 1229053, Note_on_c, 0, 61, 62
1, 1229128, Note_on_c, 0, 61, 0
1, 1229128, Note_on_c, 0, 56, 0
1, 1229128, Note_on_c, 0, 64, 62
1, 1229203, Note_on_c, 0, 64, 0
1, 1229203, Note_on_c, 0, 55, 62
1, 1229278, Note_on_c, 0, 55, 0
1, 1229278, Note_on_c, 0, 64, 61
1, 1229353, Note_on_c, 0, 64, 0
1, 1229353, Note_on_c, 0, 70, 89
1, 1229353, Note_on_c, 0, 56, 61
1, 1229356, Note_on_c, 0, 61, 61
1, 1229378, Note_on_c, 0, 68, 0
1, 1229513, Note_on_c, 0, 56, 0
1, 1229513, Note_on_c, 0, 61, 0
1, 1229513, Note_on_c, 0, 64, 61
1, 1229674, Note_on_c, 0, 49, 0
1, 1229674, Note_on_c, 0, 80, 94
1, 1229674, Note_on_c, 0, 71, 82
1, 1229677, Note_on_c, 0, 64, 0
1, 1229677, Note_on_c, 0, 51, 65
1, 1229693, Note_on_c, 0, 70, 0
1, 1229693, Note_on_c, 0, 88, 0
1, 1229728, Control_c, 0, 64, 0
1, 1229728, Control_c, 0, 64, 0
1, 1229798, Note_on_c, 0, 63, 59
1, 1229817, Control_c, 0, 64, 127
1, 1229817, Control_c, 0, 64, 127
1, 1229892, Note_on_c, 0, 63, 0
1, 1229892, Note_on_c, 0, 56, 59
1, 1229892, Note_on_c, 0, 59, 59
1, 1229978, Note_on_c, 0, 59, 0
1, 1229978, Note_on_c, 0, 56, 0
1, 1229978, Note_on_c, 0, 63, 59
1, 1230049, Note_on_c, 0, 63, 0
1, 1230049, Note_on_c, 0, 55, 59
1, 1230119, Note_on_c, 0, 55, 0
1, 1230119, Note_on_c, 0, 63, 58
1, 1230189, Note_on_c, 0, 63, 0
1, 1230189, Note_on_c, 0, 82, 89
1, 1230189, Note_on_c, 0, 56, 58
1, 1230192, Note_on_c, 0, 59, 58
1, 1230208, Note_on_c, 0, 80, 0
1, 1230314, Note_on_c, 0, 56, 0
1, 1230314, Note_on_c, 0, 59, 0
1, 1230314, Note_on_c, 0, 63, 59
1, 1230439, Note_on_c, 0, 51, 0
1, 1230439, Note_on_c, 0, 83, 89
1, 1230439, Note_on_c, 0, 73, 89
1, 1230442, Note_on_c, 0, 63, 0
1, 1230442, Note_on_c, 0, 39, 70
1, 1230458, Note_on_c, 0, 71, 0
1, 1230458, Note_on_c, 0, 82, 0
1, 1230466, Control_c, 0, 64, 0
1, 1230466, Control_c, 0, 64, 0
1, 1230563, Note_on_c, 0, 61, 58
1, 1230579, Control_c, 0, 64, 127
1, 1230579, Control_c, 0, 64, 127
1, 1230638, Note_on_c, 0, 61, 0
1, 1230638, Note_on_c, 0, 51, 58
1, 1230638, Note_on_c, 0, 55, 58
1, 1230713, Note_on_c, 0, 55, 0
1, 1230713, Note_on_c, 0, 51, 0
1, 1230713, Note_on_c, 0, 61, 57
1, 1230788, Note_on_c, 0, 61, 0
1, 1230788, Note_on_c, 0, 49, 58
1, 1230863, Note_on_c, 0, 49, 0
1, 1230863, Note_on_c, 0, 61, 57
1, 1230938, Note_on_c, 0, 61, 0
1, 1230938, Note_on_c, 0, 82, 82
1, 1230938, Note_on_c, 0, 76, 89
1, 1230941, Note_on_c, 0, 51, 57
1, 1230941, Note_on_c, 0, 55, 57
1, 1230963, Note_on_c, 0, 73, 0
1, 1230963, Note_on_c, 0, 83, 0
1, 1231098, Note_on_c, 0, 51, 0
1, 1231098, Note_on_c, 0, 55, 0
1, 1231098, Note_on_c, 0, 61, 57
1, 1231259, Control_c, 0, 64, 0
1, 1231259, Control_c, 0, 64, 0
1, 1231259, Note_on_c, 0, 75, 81
1, 1231262, Note_on_c, 0, 39, 0
1, 1231262, Control_c, 0, 64, 0
1, 1231262, Control_c, 0, 64, 0
1, 1231265, Note_on_c, 0, 61, 0
1, 1231265, Note_on_c, 0, 44, 59
1, 1231288, Note_on_c, 0, 82, 0
1, 1231288, Note_on_c, 0, 76, 0
1, 1231446, Note_on_c, 0, 59, 55
1, 1231475, Control_c, 0, 64, 127
1, 1231475, Control_c, 0, 64, 127
1, 1231539, Note_on_c, 0, 59, 0
1, 1231539, Note_on_c, 0, 51, 55
1, 1231539, Note_on_c, 0, 56, 55
1, 1231633, Note_on_c, 0, 56, 0
1, 1231633, Note_on_c, 0, 51, 0
1, 1231633, Note_on_c, 0, 59, 55
1, 1231713, Note_on_c, 0, 59, 0
1, 1231713, Note_on_c, 0, 50, 55
1, 1231783, Note_on_c, 0, 50, 0
1, 1231783, Note_on_c, 0, 59, 55
1, 1231854, Note_on_c, 0, 59, 0
1, 1231854, Note_on_c, 0, 51, 55
1, 1231854, Note_on_c, 0, 56, 55
1, 1231924, Note_on_c, 0, 56, 0
1, 1231924, Note_on_c, 0, 51, 0
1, 1231924, Note_on_c, 0, 68, 77
1, 1231927, Note_on_c, 0, 59, 55
1, 1231946, Note_on_c, 0, 75, 0
1, 1232064, Note_on_c, 0, 59, 0
1, 1232064, Note_on_c, 0, 87, 89
1, 1232064, Note_on_c, 0, 50, 55
1, 1232205, Note_on_c, 0, 50, 0
1, 1232205, Note_on_c, 0, 59, 55
1, 1232280, Note_on_c, 0, 59, 0
1, 1232280, Note_on_c, 0, 51, 55
1, 1232280, Note_on_c, 0, 56, 55
1, 1232354, Note_on_c, 0, 56, 0
1, 1232354, Note_on_c, 0, 51, 0
1, 1232354, Note_on_c, 0, 59, 55
1, 1232429, Note_on_c, 0, 59, 0
1, 1232429, Note_on_c, 0, 50, 55
1, 1232504, Note_on_c, 0, 50, 0
1, 1232504, Note_on_c, 0, 59, 55
1, 1232579, Note_on_c, 0, 59, 0
1, 1232579, Note_on_c, 0, 70, 80
1, 1232579, Note_on_c, 0, 51, 55
1, 1232582, Note_on_c, 0, 56, 55
1, 1232604, Note_on_c, 0, 68, 0
1, 1232740, Note_on_c, 0, 51, 0
1, 1232740, Note_on_c, 0, 56, 0
1, 1232740, Note_on_c, 0, 59, 55
1, 1232900, Note_on_c, 0, 44, 0
1, 1232900, Note_on_c, 0, 80, 94
1, 1232900, Note_on_c, 0, 71, 73
1, 1232903, Note_on_c, 0, 59, 0
1, 1232903, Note_on_c, 0, 40, 66
1, 1232925, Note_on_c, 0, 70, 0
1, 1232925, Note_on_c, 0, 87, 0
1, 1232970, Control_c, 0, 64, 0
1, 1232970, Control_c, 0, 64, 0
1, 1233060, Note_on_c, 0, 59, 55
1, 1233079, Control_c, 0, 64, 127
1, 1233079, Control_c, 0, 64, 127
1, 1233154, Note_on_c, 0, 59, 0
1, 1233154, Note_on_c, 0, 50, 55
1, 1233154, Note_on_c, 0, 56, 55
1, 1233240, Note_on_c, 0, 56, 0
1, 1233240, Note_on_c, 0, 50, 0
1, 1233240, Note_on_c, 0, 59, 55
1, 1233311, Note_on_c, 0, 59, 0
1, 1233311, Note_on_c, 0, 49, 55
1, 1233381, Note_on_c, 0, 49, 0
1, 1233381, Note_on_c, 0, 59, 55
1, 1233451, Note_on_c, 0, 59, 0
1, 1233451, Note_on_c, 0, 82, 89
1, 1233451, Note_on_c, 0, 50, 55
1, 1233454, Note_on_c, 0, 56, 55
1, 1233471, Note_on_c, 0, 80, 0
1, 1233576, Note_on_c, 0, 50, 0
1, 1233576, Note_on_c, 0, 56, 0
1, 1233576, Note_on_c, 0, 59, 55
1, 1233701, Note_on_c, 0, 40, 0
1, 1233701, Note_on_c, 0, 83, 89
1, 1233701, Note_on_c, 0, 73, 80
1, 1233704, Note_on_c, 0, 59, 0
1, 1233704, Note_on_c, 0, 39, 66
1, 1233720, Note_on_c, 0, 71, 0
1, 1233720, Note_on_c, 0, 82, 0
1, 1233728, Control_c, 0, 64, 0
1, 1233728, Control_c, 0, 64, 0
1, 1233825, Note_on_c, 0, 61, 55
1, 1233841, Control_c, 0, 64, 127
1, 1233841, Control_c, 0, 64, 127
1, 1233900, Note_on_c, 0, 61, 0
1, 1233900, Note_on_c, 0, 51, 55
1, 1233900, Note_on_c, 0, 55, 55
1, 1233975, Note_on_c, 0, 55, 0
1, 1233975, Note_on_c, 0, 51, 0
1, 1233975, Note_on_c, 0, 61, 55
1, 1234050, Note_on_c, 0, 61, 0
1, 1234050, Note_on_c, 0, 50, 55
1, 1234125, Note_on_c, 0, 50, 0
1, 1234125, Note_on_c, 0, 61, 55
1, 1234200, Note_on_c, 0, 61, 0
1, 1234200, Note_on_c, 0, 82, 82
1, 1234200, Note_on_c, 0, 76, 80
1, 1234203, Note_on_c, 0, 51, 55
1, 1234203, Note_on_c, 0, 55, 55
1, 1234225, Note_on_c, 0, 73, 0
1, 1234225, Note_on_c, 0, 83, 0
1, 1234360, Note_on_c, 0, 51, 0
1, 1234360, Note_on_c, 0, 55, 0
1, 1234360, Note_on_c, 0, 61, 55
1, 1234521, Control_c, 0, 64, 0
1, 1234521, Control_c, 0, 64, 0
1, 1234521, Note_on_c, 0, 75, 70
1, 1234524, Note_on_c, 0, 80, 79
1, 1234524, Control_c, 0, 64, 0
1, 1234524, Control_c, 0, 64, 0
1, 1234527, Note_on_c, 0, 61, 0
1, 1234527, Note_on_c, 0, 39, 0
1, 1234527, Note_on_c, 0, 44, 59
1, 1234550, Note_on_c, 0, 82, 0
1, 1234550, Note_on_c, 0, 76, 0
1, 1234708, Note_on_c, 0, 59, 55
1, 1234737, Control_c, 0, 64, 127
1, 1234737, Control_c, 0, 64, 127
1, 1234802, Note_on_c, 0, 59, 0
1, 1234802, Note_on_c, 0, 51, 55
1, 1234802, Note_on_c, 0, 56, 55
1, 1234895, Note_on_c, 0, 56, 0
1, 1234895, Note_on_c, 0, 51, 0
1, 1234895, Note_on_c, 0, 59, 55
1, 1234975, Note_on_c, 0, 59, 0
1, 1234975, Note_on_c, 0, 50, 55
1, 1235050, Note_on_c, 0, 50, 0
1, 1235050, Note_on_c, 0, 59, 55
1, 1235125, Note_on_c, 0, 59, 0
1, 1235125, Note_on_c, 0, 51, 55
1, 1235125, Note_on_c, 0, 56, 55
1, 1235200, Note_on_c, 0, 51, 0
1, 1235200, Note_on_c, 0, 75, 0
1, 1235200, Note_on_c, 0, 68, 72
1, 1235203, Note_on_c, 0, 56, 0
1, 1235203, Note_on_c, 0, 59, 55
1, 1235360, Note_on_c, 0, 59, 0
1, 1235360, Note_on_c, 0, 80, 0
1, 1235360, Note_on_c, 0, 87, 80
1, 1235363, Note_on_c, 0, 50, 55
1, 1235521, Note_on_c, 0, 50, 0
1, 1235521, Note_on_c, 0, 59, 55
1, 1235601, Note_on_c, 0, 59, 0
1, 1235601, Note_on_c, 0, 51, 55
1, 1235601, Note_on_c, 0, 56, 55
1, 1235681, Note_on_c, 0, 56, 0
1, 1235681, Note_on_c, 0, 51, 0
1, 1235681, Note_on_c, 0, 59, 55
1, 1235762, Note_on_c, 0, 59, 0
1, 1235762, Note_on_c, 0, 50, 55
1, 1235842, Note_on_c, 0, 50, 0
1, 1235842, Note_on_c, 0, 59, 55
1, 1235922, Note_on_c, 0, 59, 0
1, 1235922, Note_on_c, 0, 68, 0
1, 1235922, Note_on_c, 0, 70, 71
1, 1235925, Note_on_c, 0, 51, 55
1, 1235925, Note_on_c, 0, 56, 55
1, 1236062, Note_on_c, 0, 56, 0
1, 1236062, Note_on_c, 0, 51, 0
1, 1236062, Note_on_c, 0, 59, 55
1, 1236203, Note_on_c, 0, 70, 0
1, 1236203, Note_on_c, 0, 87, 0
1, 1236203, Note_on_c, 0, 80, 85
1, 1236206, Note_on_c, 0, 44, 0
1, 1236206, Note_on_c, 0, 71, 64
1, 1236206, Note_on_c, 0, 40, 63
1, 1236209, Note_on_c, 0, 59, 0
1, 1236257, Control_c, 0, 64, 0
1, 1236257, Control_c, 0, 64, 0
1, 1236328, Note_on_c, 0, 59, 55
1, 1236347, Control_c, 0, 64, 127
1, 1236347, Control_c, 0, 64, 127
1, 1236421, Note_on_c, 0, 59, 0
1, 1236421, Note_on_c, 0, 50, 55
1, 1236421, Note_on_c, 0, 56, 55
1, 1236508, Note_on_c, 0, 56, 0
1, 1236508, Note_on_c, 0, 50, 0
1, 1236508, Note_on_c, 0, 59, 55
1, 1236594, Note_on_c, 0, 59, 0
1, 1236594, Note_on_c, 0, 49, 55
1, 1236680, Note_on_c, 0, 49, 0
1, 1236680, Note_on_c, 0, 59, 55
1, 1236767, Note_on_c, 0, 59, 0
1, 1236767, Note_on_c, 0, 80, 0
1, 1236767, Note_on_c, 0, 82, 80
1, 1236770, Note_on_c, 0, 50, 55
1, 1236770, Note_on_c, 0, 56, 55
1, 1236907, Note_on_c, 0, 56, 0
1, 1236907, Note_on_c, 0, 50, 0
1, 1236907, Note_on_c, 0, 59, 55
1, 1237048, Note_on_c, 0, 82, 0
1, 1237048, Note_on_c, 0, 71, 0
1, 1237048, Note_on_c, 0, 83, 80
1, 1237051, Note_on_c, 0, 40, 0
1, 1237051, Note_on_c, 0, 73, 71
1, 1237051, Note_on_c, 0, 39, 63
1, 1237054, Note_on_c, 0, 59, 0
1, 1237078, Control_c, 0, 64, 0
1, 1237078, Control_c, 0, 64, 0
1, 1237188, Note_on_c, 0, 61, 55
1, 1237217, Control_c, 0, 64, 127
1, 1237217, Control_c, 0, 64, 127
1, 1237328, Note_on_c, 0, 61, 0
1, 1237328, Note_on_c, 0, 51, 55
1, 1237328, Note_on_c, 0, 55, 55
1, 1237469, Note_on_c, 0, 55, 0
1, 1237469, Note_on_c, 0, 51, 0
1, 1237469, Note_on_c, 0, 61, 55
1, 1237577, Note_on_c, 0, 61, 0
1, 1237577, Note_on_c, 0, 50, 55
1, 1237685, Note_on_c, 0, 50, 0
1, 1237685, Note_on_c, 0, 61, 55
1, 1237810, Note_on_c, 0, 83, 0
1, 1237810, Note_on_c, 0, 73, 0
1, 1237810, Note_on_c, 0, 82, 73
1, 1237813, Note_on_c, 0, 61, 0
1, 1237813, Note_on_c, 0, 76, 71
1, 1237813, Note_on_c, 0, 51, 55
1, 1237816, Note_on_c, 0, 55, 55
1, 1237997, Note_on_c, 0, 55, 0
1, 1237997, Note_on_c, 0, 51, 0
1, 1237997, Note_on_c, 0, 61, 55
1, 1238184, Note_on_c, 0, 76, 0
1, 1238184, Note_on_c, 0, 82, 0
1, 1238184, Control_c, 0, 64, 127
1, 1238187, Note_on_c, 0, 80, 71
1, 1238187, Note_on_c, 0, 75, 77
1, 1238187, Control_c, 0, 64, 127
1, 1238190, Note_on_c, 0, 39, 0
1, 1238190, Note_on_c, 0, 61, 0
1, 1238190, Note_on_c, 0, 44, 59
1, 1238205, Control_c, 0, 64, 0
1, 1238205, Control_c, 0, 64, 0
1, 1238371, Note_on_c, 0, 59, 55
1, 1238421, Control_c, 0, 64, 127
1, 1238421, Control_c, 0, 64, 127
1, 1238465, Note_on_c, 0, 59, 0
1, 1238465, Note_on_c, 0, 51, 55
1, 1238465, Note_on_c, 0, 56, 55
1, 1238558, Note_on_c, 0, 56, 0
1, 1238558, Note_on_c, 0, 51, 0
1, 1238558, Note_on_c, 0, 59, 55
1, 1238639, Note_on_c, 0, 59, 0
1, 1238639, Note_on_c, 0, 50, 55
1, 1238719, Note_on_c, 0, 50, 0
1, 1238719, Note_on_c, 0, 59, 55
1, 1238799, Note_on_c, 0, 59, 0
1, 1238799, Note_on_c, 0, 51, 55
1, 1238799, Note_on_c, 0, 56, 55
1, 1238879, Note_on_c, 0, 51, 0
1, 1238879, Note_on_c, 0, 75, 0
1, 1238879, Note_on_c, 0, 68, 67
1, 1238882, Note_on_c, 0, 56, 0
1, 1238882, Note_on_c, 0, 59, 55
1, 1239040, Note_on_c, 0, 59, 0
1, 1239040, Note_on_c, 0, 80, 0
1, 1239040, Note_on_c, 0, 87, 82
1, 1239043, Note_on_c, 0, 50, 55
1, 1239200, Note_on_c, 0, 50, 0
1, 1239200, Note_on_c, 0, 59, 55
1, 1239287, Note_on_c, 0, 59, 0
1, 1239287, Note_on_c, 0, 51, 55
1, 1239287, Note_on_c, 0, 56, 55
1, 1239373, Note_on_c, 0, 56, 0
1, 1239373, Note_on_c, 0, 51, 0
1, 1239373, Note_on_c, 0, 59, 55
1, 1239459, Note_on_c, 0, 59, 0
1, 1239459, Note_on_c, 0, 50, 55
1, 1239546, Note_on_c, 0, 50, 0
1, 1239546, Note_on_c, 0, 59, 55
1, 1239632, Note_on_c, 0, 59, 0
1, 1239632, Note_on_c, 0, 51, 55
1, 1239632, Note_on_c, 0, 56, 55
1, 1239719, Note_on_c, 0, 56, 0
1, 1239719, Note_on_c, 0, 51, 0
1, 1239719, Note_on_c, 0, 59, 55
1, 1239805, Note_on_c, 0, 87, 0
1, 1239805, Note_on_c, 0, 68, 0
1, 1239805, Note_on_c, 0, 75, 75
1, 1239808, Note_on_c, 0, 44, 0
1, 1239808, Note_on_c, 0, 80, 68
1, 1239808, Note_on_c, 0, 44, 59
1, 1239811, Note_on_c, 0, 59, 0
1, 1239860, Control_c, 0, 64, 0
1, 1239860, Control_c, 0, 64, 0
1, 1239930, Note_on_c, 0, 59, 55
1, 1239949, Control_c, 0, 64, 127
1, 1239949, Control_c, 0, 64, 127
1, 1240023, Note_on_c, 0, 59, 0
1, 1240023, Note_on_c, 0, 51, 55
1, 1240023, Note_on_c, 0, 56, 55
1, 1240110, Note_on_c, 0, 56, 0
1, 1240110, Note_on_c, 0, 51, 0
1, 1240110, Note_on_c, 0, 59, 55
1, 1240196, Note_on_c, 0, 59, 0
1, 1240196, Note_on_c, 0, 50, 55
1, 1240283, Note_on_c, 0, 50, 0
1, 1240283, Note_on_c, 0, 59, 55
1, 1240369, Note_on_c, 0, 59, 0
1, 1240369, Note_on_c, 0, 51, 55
1, 1240369, Note_on_c, 0, 56, 55
1, 1240455, Note_on_c, 0, 51, 0
1, 1240455, Note_on_c, 0, 75, 0
1, 1240455, Note_on_c, 0, 68, 65
1, 1240458, Note_on_c, 0, 56, 0
1, 1240458, Note_on_c, 0, 59, 55
1, 1240643, Note_on_c, 0, 59, 0
1, 1240643, Note_on_c, 0, 80, 0
1, 1240643, Note_on_c, 0, 87, 77
1, 1240646, Note_on_c, 0, 50, 55
1, 1240830, Note_on_c, 0, 50, 0
1, 1240830, Note_on_c, 0, 59, 55
1, 1240923, Note_on_c, 0, 59, 0
1, 1240923, Note_on_c, 0, 51, 55
1, 1240923, Note_on_c, 0, 56, 55
1, 1241017, Note_on_c, 0, 56, 0
1, 1241017, Note_on_c, 0, 51, 0
1, 1241017, Note_on_c, 0, 59, 55
1, 1241111, Note_on_c, 0, 59, 0
1, 1241111, Note_on_c, 0, 50, 55
1, 1241204, Note_on_c, 0, 50, 0
1, 1241204, Note_on_c, 0, 59, 55
1, 1241306, Note_on_c, 0, 59, 0
1, 1241306, Note_on_c, 0, 51, 55
1, 1241306, Note_on_c, 0, 56, 55
1, 1241414, Note_on_c, 0, 56, 0
1, 1241414, Note_on_c, 0, 51, 0
1, 1241414, Note_on_c, 0, 59, 55
1, 1241539, Note_on_c, 0, 87, 0
1, 1241539, Note_on_c, 0, 68, 0
1, 1241539, Control_c, 0, 64, 127
1, 1241542, Note_on_c, 0, 75, 70
1, 1241542, Note_on_c, 0, 80, 73
1, 1241542, Control_c, 0, 64, 127
1, 1241545, Note_on_c, 0, 44, 0
1, 1241545, Note_on_c, 0, 59, 0
1, 1241545, Note_on_c, 0, 44, 59
1, 1241726, Note_on_c, 0, 59, 53
1, 1241820, Note_on_c, 0, 59, 0
1, 1241820, Note_on_c, 0, 51, 53
1, 1241820, Note_on_c, 0, 56, 53
1, 1241914, Note_on_c, 0, 56, 0
1, 1241914, Note_on_c, 0, 51, 0
1, 1241914, Note_on_c, 0, 59, 53
1, 1242000, Note_on_c, 0, 59, 0
1, 1242000, Note_on_c, 0, 50, 52
1, 1242086, Note_on_c, 0, 50, 0
1, 1242086, Note_on_c, 0, 59, 52
1, 1242173, Note_on_c, 0, 59, 0
1, 1242173, Note_on_c, 0, 51, 52
1, 1242173, Note_on_c, 0, 56, 52
1, 1242259, Note_on_c, 0, 56, 0
1, 1242259, Note_on_c, 0, 51, 0
1, 1242259, Note_on_c, 0, 59, 52
1, 1242346, Note_on_c, 0, 59, 0
1, 1242346, Note_on_c, 0, 80, 0
1, 1242346, Note_on_c, 0, 50, 52
1, 1242432, Note_on_c, 0, 50, 0
1, 1242432, Note_on_c, 0, 59, 52
1, 1242518, Note_on_c, 0, 59, 0
1, 1242518, Note_on_c, 0, 51, 51
1, 1242518, Note_on_c, 0, 56, 51
1, 1242605, Note_on_c, 0, 56, 0
1, 1242605, Note_on_c, 0, 51, 0
1, 1242605, Note_on_c, 0, 59, 51
1, 1242691, Note_on_c, 0, 59, 0
1, 1242691, Note_on_c, 0, 50, 51
1, 1242778, Note_on_c, 0, 50, 0
1, 1242778, Note_on_c, 0, 59, 51
1, 1242864, Note_on_c, 0, 59, 0
1, 1242864, Note_on_c, 0, 75, 0
1, 1242864, Note_on_c, 0, 68, 56
1, 1242867, Note_on_c, 0, 51, 51
1, 1242867, Note_on_c, 0, 56, 51
1, 1242950, Note_on_c, 0, 56, 0
1, 1242950, Note_on_c, 0, 51, 0
1, 1242950, Note_on_c, 0, 59, 51
1, 1243037, Note_on_c, 0, 59, 0
1, 1243037, Note_on_c, 0, 44, 0
1, 1243037, Note_on_c, 0, 87, 71
1, 1243040, Note_on_c, 0, 50, 51
1, 1243075, Control_c, 0, 64, 0
1, 1243075, Control_c, 0, 64, 0
1, 1243123, Note_on_c, 0, 50, 0
1, 1243123, Note_on_c, 0, 59, 50
1, 1243142, Control_c, 0, 64, 127
1, 1243142, Control_c, 0, 64, 127
1, 1243217, Note_on_c, 0, 59, 0
1, 1243217, Note_on_c, 0, 51, 48
1, 1243217, Note_on_c, 0, 56, 48
1, 1243303, Note_on_c, 0, 56, 0
1, 1243303, Note_on_c, 0, 51, 0
1, 1243303, Note_on_c, 0, 59, 48
1, 1243390, Note_on_c, 0, 59, 0
1, 1243390, Note_on_c, 0, 50, 48
1, 1243476, Note_on_c, 0, 50, 0
1, 1243476, Note_on_c, 0, 59, 47
1, 1243570, Note_on_c, 0, 59, 0
1, 1243570, Note_on_c, 0, 51, 46
1, 1243570, Note_on_c, 0, 56, 46
1, 1243663, Note_on_c, 0, 56, 0
1, 1243663, Note_on_c, 0, 51, 0
1, 1243663, Note_on_c, 0, 59, 46
1, 1243757, Note_on_c, 0, 59, 0
1, 1243757, Note_on_c, 0, 68, 0
1, 1243757, Note_on_c, 0, 50, 45
1, 1243859, Note_on_c, 0, 50, 0
1, 1243859, Note_on_c, 0, 59, 44
1, 1243961, Note_on_c, 0, 59, 0
1, 1243961, Note_on_c, 0, 51, 43
1, 1243961, Note_on_c, 0, 56, 43
1, 1244069, Note_on_c, 0, 56, 0
1, 1244069, Note_on_c, 0, 51, 0
1, 1244069, Note_on_c, 0, 59, 42
1, 1244177, Note_on_c, 0, 59, 0
1, 1244177, Note_on_c, 0, 50, 42
1, 1244302, Note_on_c, 0, 50, 0
1, 1244302, Note_on_c, 0, 59, 42
1, 1244442, Note_on_c, 0, 59, 0
1, 1244442, Note_on_c, 0, 51, 42
1, 1244442, Note_on_c, 0, 56, 42
1, 1244490, Control_c, 0, 64, 0
1, 1244490, Control_c, 0, 64, 0
1, 1244603, Note_on_c, 0, 56, 0
1, 1244603, Note_on_c, 0, 51, 0
1, 1244603, Note_on_c, 0, 59, 41
1, 1244614, Control_c, 0, 64, 127
1, 1244614, Control_c, 0, 64, 127
1, 1244875, Control_c, 0, 64, 127
1, 1244883, Note_on_c, 0, 87, 0
1, 1244883, Note_on_c, 0, 71, 47
1, 1244883, Note_on_c, 0, 80, 59
1, 1244886, Note_on_c, 0, 59, 0
1, 1244886, Note_on_c, 0, 32, 45
1, 1244886, Note_on_c, 0, 39, 40
1, 1249376, Note_on_c, 0, 32, 0
1, 1249376, Note_on_c, 0, 71, 0
1, 1249376, Note_on_c, 0, 80, 0
1, 1249379, Note_on_c, 0, 39, 0
1, 1252586, Control_c, 0, 64, 0
1, 1252586, Control_c, 0, 64, 0
1, 1253869, Note_on_c, 0, 101, 89
1, 1253869, Note_on_c, 0, 37, 60
1, 1254021, Control_c, 0, 64, 127
1, 1254021, Control_c, 0, 64, 127
1, 1254243, Note_on_c, 0, 94, 89
1, 1254243, Note_on_c, 0, 44, 56
1, 1254564, Note_on_c, 0, 101, 0
1, 1254564, Note_on_c, 0, 85, 65
1, 1254814, Note_on_c, 0, 37, 0
1, 1254814, Note_on_c, 0, 44, 0
1, 1254814, Note_on_c, 0, 92, 83
1, 1254817, Note_on_c, 0, 49, 57
1, 1254843, Note_on_c, 0, 94, 0
1, 1255064, Note_on_c, 0, 85, 0
1, 1255064, Note_on_c, 0, 97, 77
1, 1255313, Note_on_c, 0, 49, 0
1, 1255313, Note_on_c, 0, 90, 84
1, 1255313, Note_on_c, 0, 53, 59
1, 1255346, Note_on_c, 0, 92, 0
1, 1255594, Note_on_c, 0, 97, 0
1, 1255594, Note_on_c, 0, 80, 65
1, 1255828, Note_on_c, 0, 53, 0
1, 1255828, Note_on_c, 0, 89, 81
1, 1255828, Note_on_c, 0, 56, 60
1, 1255855, Note_on_c, 0, 90, 0
1, 1256062, Note_on_c, 0, 80, 0
1, 1256062, Note_on_c, 0, 92, 77
1, 1256296, Note_on_c, 0, 56, 0
1, 1256296, Note_on_c, 0, 87, 84
1, 1256296, Note_on_c, 0, 61, 62
1, 1256323, Note_on_c, 0, 89, 0
1, 1256530, Note_on_c, 0, 92, 0
1, 1256530, Note_on_c, 0, 77, 65
1, 1256764, Note_on_c, 0, 61, 0
1, 1256764, Note_on_c, 0, 85, 81
1, 1256764, Note_on_c, 0, 65, 63
1, 1256791, Note_on_c, 0, 87, 0
1, 1256998, Note_on_c, 0, 77, 0
1, 1256998, Note_on_c, 0, 92, 77
1, 1257232, Note_on_c, 0, 65, 0
1, 1257232, Note_on_c, 0, 84, 84
1, 1257232, Note_on_c, 0, 68, 65
1, 1257259, Note_on_c, 0, 85, 0
1, 1257279, Control_c, 0, 64, 127
1, 1257279, Control_c, 0, 64, 127
1, 1257425, Control_c, 0, 64, 127
1, 1257425, Control_c, 0, 64, 127
1, 1257466, Note_on_c, 0, 92, 0
1, 1257466, Note_on_c, 0, 77, 65
1, 1257700, Note_on_c, 0, 68, 0
1, 1257700, Note_on_c, 0, 83, 81
1, 1257700, Note_on_c, 0, 73, 66
1, 1257733, Note_on_c, 0, 84, 0
1, 1257884, Control_c, 0, 64, 127
1, 1257884, Control_c, 0, 64, 127
1, 1257981, Note_on_c, 0, 77, 0
1, 1257981, Control_c, 0, 64, 127
1, 1257981, Note_on_c, 0, 90, 83
1, 1257984, Note_on_c, 0, 73, 0
1, 1257984, Control_c, 0, 64, 127
1, 1257984, Note_on_c, 0, 42, 60
1, 1258262, Note_on_c, 0, 83, 0
1, 1258262, Note_on_c, 0, 83, 84
1, 1258262, Note_on_c, 0, 49, 51
1, 1258285, Control_c, 0, 64, 0
1, 1258285, Control_c, 0, 64, 0
1, 1258415, Control_c, 0, 64, 127
1, 1258415, Control_c, 0, 64, 127
1, 1258511, Note_on_c, 0, 90, 0
1, 1258511, Note_on_c, 0, 78, 65
1, 1258745, Note_on_c, 0, 42, 0
1, 1258745, Note_on_c, 0, 49, 0
1, 1258745, Note_on_c, 0, 82, 83
1, 1258748, Note_on_c, 0, 54, 60
1, 1258773, Note_on_c, 0, 83, 0
1, 1258979, Note_on_c, 0, 78, 0
1, 1258979, Note_on_c, 0, 90, 77
1, 1259199, Control_c, 0, 64, 127
1, 1259199, Control_c, 0, 64, 127
1, 1259213, Note_on_c, 0, 54, 0
1, 1259213, Note_on_c, 0, 81, 84
1, 1259213, Note_on_c, 0, 58, 63
1, 1259241, Note_on_c, 0, 82, 0
1, 1259447, Note_on_c, 0, 90, 0
1, 1259447, Note_on_c, 0, 73, 65
1, 1259654, Control_c, 0, 64, 127
1, 1259654, Control_c, 0, 64, 127
1, 1259681, Note_on_c, 0, 58, 0
1, 1259681, Note_on_c, 0, 82, 81
1, 1259681, Note_on_c, 0, 66, 66
1, 1259710, Note_on_c, 0, 81, 0
1, 1259931, Note_on_c, 0, 73, 0
1, 1259931, Note_on_c, 0, 66, 0
1, 1259931, Note_on_c, 0, 89, 77
1, 1259934, Note_on_c, 0, 37, 60
1, 1260180, Note_on_c, 0, 82, 0
1, 1260180, Note_on_c, 0, 82, 84
1, 1260180, Note_on_c, 0, 44, 51
1, 1260263, Control_c, 0, 64, 0
1, 1260263, Control_c, 0, 64, 0
1, 1260412, Control_c, 0, 64, 127
1, 1260412, Control_c, 0, 64, 127
1, 1260461, Note_on_c, 0, 89, 0
1, 1260461, Note_on_c, 0, 77, 65
1, 1260695, Note_on_c, 0, 37, 0
1, 1260695, Note_on_c, 0, 44, 0
1, 1260695, Note_on_c, 0, 80, 78
1, 1260698, Note_on_c, 0, 49, 60
1, 1260723, Note_on_c, 0, 82, 0
1, 1260929, Note_on_c, 0, 77, 0
1, 1260929, Note_on_c, 0, 89, 77
1, 1261081, Control_c, 0, 64, 127
1, 1261081, Control_c, 0, 64, 127
1, 1261163, Note_on_c, 0, 49, 0
1, 1261163, Note_on_c, 0, 79, 79
1, 1261163, Note_on_c, 0, 56, 63
1, 1261191, Note_on_c, 0, 80, 0
1, 1261397, Note_on_c, 0, 89, 0
1, 1261397, Note_on_c, 0, 73, 65
1, 1261631, Note_on_c, 0, 56, 0
1, 1261631, Note_on_c, 0, 80, 74
1, 1261631, Note_on_c, 0, 65, 66
1, 1261659, Note_on_c, 0, 79, 0
1, 1261865, Note_on_c, 0, 73, 0
1, 1261865, Control_c, 0, 64, 127
1, 1261865, Note_on_c, 0, 90, 83
1, 1261868, Note_on_c, 0, 65, 0
1, 1261868, Control_c, 0, 64, 127
1, 1261868, Note_on_c, 0, 36, 60
1, 1261879, Control_c, 0, 64, 127
1, 1261879, Control_c, 0, 64, 127
1, 1261893, Note_on_c, 0, 80, 0
1, 1261987, Control_c, 0, 64, 0
1, 1261987, Control_c, 0, 64, 0
1, 1262099, Note_on_c, 0, 82, 86
1, 1262099, Note_on_c, 0, 44, 49
1, 1262126, Control_c, 0, 64, 0
1, 1262126, Control_c, 0, 64, 0
1, 1262271, Control_c, 0, 64, 127
1, 1262271, Control_c, 0, 64, 127
1, 1262380, Note_on_c, 0, 90, 0
1, 1262380, Note_on_c, 0, 75, 65
1, 1262614, Note_on_c, 0, 36, 0
1, 1262614, Note_on_c, 0, 44, 0
1, 1262614, Note_on_c, 0, 81, 83
1, 1262617, Note_on_c, 0, 51, 57
1, 1262632, Note_on_c, 0, 82, 0
1, 1262848, Note_on_c, 0, 75, 0
1, 1262848, Note_on_c, 0, 51, 0
1, 1262848, Note_on_c, 0, 87, 77
1, 1262851, Note_on_c, 0, 44, 66
1, 1263068, Control_c, 0, 64, 127
1, 1263068, Control_c, 0, 64, 127
1, 1263082, Note_on_c, 0, 80, 84
1, 1263082, Note_on_c, 0, 51, 46
1, 1263100, Note_on_c, 0, 81, 0
1, 1263316, Note_on_c, 0, 87, 0
1, 1263316, Note_on_c, 0, 72, 65
1, 1263523, Control_c, 0, 64, 127
1, 1263523, Control_c, 0, 64, 127
1, 1263550, Note_on_c, 0, 51, 0
1, 1263550, Note_on_c, 0, 44, 0
1, 1263550, Note_on_c, 0, 78, 81
1, 1263553, Note_on_c, 0, 60, 54
1, 1263572, Note_on_c, 0, 80, 0
1, 1263831, Note_on_c, 0, 72, 0
1, 1263831, Note_on_c, 0, 60, 0
1, 1263831, Note_on_c, 0, 85, 77
1, 1263834, Note_on_c, 0, 46, 66
1, 1264080, Note_on_c, 0, 78, 0
1, 1264080, Note_on_c, 0, 78, 84
1, 1264080, Note_on_c, 0, 49, 49
1, 1264154, Control_c, 0, 64, 0
1, 1264154, Control_c, 0, 64, 0
1, 1264286, Control_c, 0, 64, 127
1, 1264286, Control_c, 0, 64, 127
1, 1264330, Note_on_c, 0, 85, 0
1, 1264330, Note_on_c, 0, 73, 65
1, 1264564, Note_on_c, 0, 46, 0
1, 1264564, Note_on_c, 0, 49, 0
1, 1264564, Note_on_c, 0, 77, 81
1, 1264567, Note_on_c, 0, 61, 57
1, 1264582, Note_on_c, 0, 78, 0
1, 1264798, Note_on_c, 0, 73, 0
1, 1264798, Note_on_c, 0, 61, 0
1, 1264798, Note_on_c, 0, 85, 77
1, 1264801, Note_on_c, 0, 49, 66
1, 1264950, Control_c, 0, 64, 127
1, 1264950, Control_c, 0, 64, 127
1, 1265032, Note_on_c, 0, 76, 84
1, 1265032, Note_on_c, 0, 58, 52
1, 1265050, Note_on_c, 0, 77, 0
1, 1265266, Note_on_c, 0, 85, 0
1, 1265266, Note_on_c, 0, 70, 71
1, 1265587, Note_on_c, 0, 58, 0
1, 1265587, Note_on_c, 0, 49, 0
1, 1265587, Note_on_c, 0, 77, 77
1, 1265590, Note_on_c, 0, 68, 62
1, 1265612, Note_on_c, 0, 76, 0
1, 1265908, Note_on_c, 0, 70, 0
1, 1265908, Note_on_c, 0, 77, 0
1, 1265908, Control_c, 0, 64, 127
1, 1265911, Note_on_c, 0, 68, 0
1, 1265911, Note_on_c, 0, 84, 83
1, 1265911, Control_c, 0, 64, 127
1, 1265914, Note_on_c, 0, 51, 61
1, 1266189, Note_on_c, 0, 77, 86
1, 1266189, Note_on_c, 0, 60, 49
1, 1266232, Control_c, 0, 64, 0
1, 1266232, Control_c, 0, 64, 0
1, 1266438, Note_on_c, 0, 68, 60
1, 1266457, Note_on_c, 0, 84, 0
1, 1266466, Control_c, 0, 64, 127
1, 1266466, Control_c, 0, 64, 127
1, 1266672, Note_on_c, 0, 60, 0
1, 1266672, Note_on_c, 0, 51, 0
1, 1266672, Note_on_c, 0, 75, 83
1, 1266675, Note_on_c, 0, 63, 55
1, 1266691, Note_on_c, 0, 77, 0
1, 1266906, Note_on_c, 0, 63, 0
1, 1266906, Note_on_c, 0, 82, 77
1, 1266906, Note_on_c, 0, 51, 61
1, 1267140, Note_on_c, 0, 75, 0
1, 1267140, Note_on_c, 0, 75, 84
1, 1267140, Note_on_c, 0, 61, 49
1, 1267257, Control_c, 0, 64, 0
1, 1267257, Control_c, 0, 64, 0
1, 1267390, Note_on_c, 0, 82, 0
1, 1267390, Note_on_c, 0, 67, 66
1, 1267408, Note_on_c, 0, 68, 0
1, 1267431, Control_c, 0, 64, 127
1, 1267431, Control_c, 0, 64, 127
1, 1267624, Note_on_c, 0, 61, 0
1, 1267624, Note_on_c, 0, 51, 0
1, 1267624, Note_on_c, 0, 73, 76
1, 1267627, Note_on_c, 0, 63, 55
1, 1267646, Note_on_c, 0, 75, 0
1, 1267905, Note_on_c, 0, 63, 0
1, 1267905, Note_on_c, 0, 80, 70
1, 1267905, Note_on_c, 0, 44, 61
1, 1268103, Control_c, 0, 64, 127
1, 1268103, Control_c, 0, 64, 127
1, 1268185, Note_on_c, 0, 73, 0
1, 1268185, Note_on_c, 0, 73, 78
1, 1268185, Note_on_c, 0, 51, 53
1, 1268362, Control_c, 0, 64, 127
1, 1268362, Control_c, 0, 64, 127
1, 1268435, Note_on_c, 0, 80, 0
1, 1268435, Note_on_c, 0, 66, 60
1, 1268455, Note_on_c, 0, 67, 0
1, 1268685, Note_on_c, 0, 51, 0
1, 1268685, Note_on_c, 0, 44, 0
1, 1268685, Note_on_c, 0, 72, 75
1, 1268688, Note_on_c, 0, 60, 55
1, 1268704, Note_on_c, 0, 73, 0
1, 1268934, Note_on_c, 0, 80, 77
1, 1269184, Note_on_c, 0, 60, 0
1, 1269184, Note_on_c, 0, 71, 78
1, 1269184, Note_on_c, 0, 63, 57
1, 1269206, Note_on_c, 0, 72, 0
1, 1269465, Note_on_c, 0, 80, 0
1, 1269465, Note_on_c, 0, 66, 64
1, 1269490, Note_on_c, 0, 66, 0
1, 1269786, Note_on_c, 0, 63, 0
1, 1269786, Note_on_c, 0, 72, 68
1, 1269786, Note_on_c, 0, 68, 59
1, 1269815, Note_on_c, 0, 71, 0
1, 1270160, Note_on_c, 0, 66, 0
1, 1270160, Note_on_c, 0, 72, 0
1, 1270160, Note_on_c, 0, 101, 83
1, 1270163, Note_on_c, 0, 68, 0
1, 1270163, Note_on_c, 0, 49, 60
1, 1270312, Control_c, 0, 64, 127
1, 1270312, Control_c, 0, 64, 127
1, 1270534, Note_on_c, 0, 94, 89
1, 1270534, Note_on_c, 0, 56, 49
1, 1270855, Note_on_c, 0, 101, 0
1, 1270855, Note_on_c, 0, 85, 65
1, 1271105, Note_on_c, 0, 49, 0
1, 1271105, Note_on_c, 0, 56, 0
1, 1271105, Note_on_c, 0, 92, 83
1, 1271108, Note_on_c, 0, 61, 57
1, 1271134, Note_on_c, 0, 94, 0
1, 1271354, Note_on_c, 0, 85, 0
1, 1271354, Note_on_c, 0, 97, 77
1, 1271604, Note_on_c, 0, 61, 0
1, 1271604, Note_on_c, 0, 90, 84
1, 1271604, Note_on_c, 0, 65, 59
1, 1271637, Note_on_c, 0, 92, 0
1, 1271885, Note_on_c, 0, 97, 0
1, 1271885, Note_on_c, 0, 80, 65
1, 1272119, Note_on_c, 0, 65, 0
1, 1272119, Note_on_c, 0, 89, 81
1, 1272119, Note_on_c, 0, 68, 60
1, 1272146, Note_on_c, 0, 90, 0
1, 1272353, Note_on_c, 0, 80, 0
1, 1272353, Note_on_c, 0, 92, 77
1, 1272587, Note_on_c, 0, 68, 0
1, 1272587, Note_on_c, 0, 87, 84
1, 1272587, Note_on_c, 0, 73, 62
1, 1272614, Note_on_c, 0, 89, 0
1, 1272821, Note_on_c, 0, 92, 0
1, 1272821, Note_on_c, 0, 77, 65
1, 1273055, Note_on_c, 0, 73, 0
1, 1273055, Note_on_c, 0, 85, 81
1, 1273055, Note_on_c, 0, 80, 63
1, 1273082, Note_on_c, 0, 87, 0
1, 1273289, Note_on_c, 0, 77, 0
1, 1273289, Note_on_c, 0, 80, 0
1, 1273289, Note_on_c, 0, 93, 77
1, 1273292, Note_on_c, 0, 65, 66
1, 1273338, Control_c, 0, 64, 0
1, 1273338, Control_c, 0, 64, 0
1, 1273570, Note_on_c, 0, 89, 84
1, 1273570, Note_on_c, 0, 72, 58
1, 1273599, Note_on_c, 0, 85, 0
1, 1273619, Control_c, 0, 64, 127
1, 1273619, Control_c, 0, 64, 127
1, 1273775, Control_c, 0, 64, 127
1, 1273775, Control_c, 0, 64, 127
1, 1273819, Note_on_c, 0, 93, 0
1, 1273819, Note_on_c, 0, 77, 65
1, 1274069, Note_on_c, 0, 72, 0
1, 1274069, Note_on_c, 0, 65, 0
1, 1274069, Note_on_c, 0, 87, 81
1, 1274072, Note_on_c, 0, 81, 66
1, 1274102, Note_on_c, 0, 89, 0
1, 1274253, Control_c, 0, 64, 127
1, 1274253, Control_c, 0, 64, 127
1, 1274350, Note_on_c, 0, 77, 0
1, 1274350, Note_on_c, 0, 87, 0
1, 1274350, Control_c, 0, 64, 127
1, 1274353, Note_on_c, 0, 81, 0
1, 1274353, Note_on_c, 0, 94, 83
1, 1274353, Control_c, 0, 64, 127
1, 1274356, Note_on_c, 0, 65, 60
1, 1274630, Note_on_c, 0, 87, 84
1, 1274630, Note_on_c, 0, 73, 50
1, 1274654, Control_c, 0, 64, 0
1, 1274654, Control_c, 0, 64, 0
1, 1274784, Control_c, 0, 64, 127
1, 1274784, Control_c, 0, 64, 127
1, 1274880, Note_on_c, 0, 94, 0
1, 1274880, Note_on_c, 0, 77, 65
1, 1275114, Note_on_c, 0, 85, 83
1, 1275141, Note_on_c, 0, 87, 0
1, 1275348, Note_on_c, 0, 77, 0
1, 1275348, Note_on_c, 0, 65, 0
1, 1275348, Note_on_c, 0, 89, 77
1, 1275351, Note_on_c, 0, 73, 0
1, 1275351, Note_on_c, 0, 61, 66
1, 1275568, Control_c, 0, 64, 127
1, 1275568, Control_c, 0, 64, 127
1, 1275582, Note_on_c, 0, 84, 84
1, 1275582, Note_on_c, 0, 70, 56
1, 1275609, Note_on_c, 0, 85, 0
1, 1275816, Note_on_c, 0, 89, 0
1, 1275816, Note_on_c, 0, 73, 65
1, 1276023, Control_c, 0, 64, 127
1, 1276023, Control_c, 0, 64, 127
1, 1276050, Note_on_c, 0, 82, 81
1, 1276077, Note_on_c, 0, 84, 0
1, 1276284, Note_on_c, 0, 73, 0
1, 1276284, Note_on_c, 0, 61, 0
1, 1276284, Note_on_c, 0, 85, 77
1, 1276287, Note_on_c, 0, 70, 0
1, 1276287, Note_on_c, 0, 58, 60
1, 1276518, Note_on_c, 0, 82, 0
1, 1276518, Note_on_c, 0, 78, 84
1, 1276518, Note_on_c, 0, 65, 50
1, 1276600, Control_c, 0, 64, 0
1, 1276600, Control_c, 0, 64, 0
1, 1276749, Control_c, 0, 64, 127
1, 1276749, Control_c, 0, 64, 127
1, 1276799, Note_on_c, 0, 85, 0
1, 1276799, Note_on_c, 0, 70, 65
1, 1277033, Note_on_c, 0, 77, 78
1, 1277070, Note_on_c, 0, 78, 0
1, 1277354, Note_on_c, 0, 70, 0
1, 1277354, Note_on_c, 0, 58, 0
1, 1277354, Note_on_c, 0, 80, 77
1, 1277357, Note_on_c, 0, 65, 0
1, 1277357, Note_on_c, 0, 68, 77
1, 1277357, Note_on_c, 0, 52, 61
1, 1277360, Note_on_c, 0, 58, 47
1, 1277360, Note_on_c, 0, 61, 47
1, 1277398, Note_on_c, 0, 77, 0
1, 1277597, Control_c, 0, 64, 127
1, 1277597, Control_c, 0, 64, 127
1, 1277618, Control_c, 0, 64, 0
1, 1277618, Control_c, 0, 64, 0
1, 1277728, Note_on_c, 0, 73, 55
1, 1277801, Control_c, 0, 64, 127
1, 1277801, Control_c, 0, 64, 127
1, 1277978, Note_on_c, 0, 70, 55
1, 1277978, Note_on_c, 0, 67, 63
1, 1277997, Note_on_c, 0, 73, 0
1, 1277997, Note_on_c, 0, 68, 0
1, 1278227, Note_on_c, 0, 79, 74
1, 1278247, Note_on_c, 0, 80, 0
1, 1278477, Note_on_c, 0, 79, 0
1, 1278477, Control_c, 0, 64, 127
1, 1278477, Note_on_c, 0, 79, 77
1, 1278480, Note_on_c, 0, 52, 0
1, 1278480, Note_on_c, 0, 58, 0
1, 1278480, Control_c, 0, 64, 127
1, 1278483, Note_on_c, 0, 61, 0
1, 1278483, Note_on_c, 0, 67, 0
1, 1278483, Note_on_c, 0, 67, 69
1, 1278486, Note_on_c, 0, 53, 51
1, 1278486, Note_on_c, 0, 56, 51
1, 1278486, Note_on_c, 0, 60, 51
1, 1278499, Note_on_c, 0, 70, 0
1, 1278609, Control_c, 0, 64, 0
1, 1278609, Control_c, 0, 64, 0
1, 1278708, Control_c, 0, 64, 127
1, 1278708, Control_c, 0, 64, 127
1, 1278758, Note_on_c, 0, 72, 55
1, 1279007, Note_on_c, 0, 68, 55
1, 1279007, Note_on_c, 0, 65, 64
1, 1279027, Note_on_c, 0, 72, 0
1, 1279027, Note_on_c, 0, 67, 0
1, 1279257, Note_on_c, 0, 77, 73
1, 1279276, Note_on_c, 0, 79, 0
1, 1279507, Note_on_c, 0, 53, 0
1, 1279507, Note_on_c, 0, 77, 0
1, 1279507, Note_on_c, 0, 77, 73
1, 1279510, Note_on_c, 0, 56, 0
1, 1279510, Note_on_c, 0, 60, 0
1, 1279510, Note_on_c, 0, 55, 47
1, 1279513, Note_on_c, 0, 65, 0
1, 1279513, Note_on_c, 0, 58, 47
1, 1279513, Note_on_c, 0, 61, 70
1, 1279516, Note_on_c, 0, 65, 57
1, 1279526, Note_on_c, 0, 68, 0
1, 1279580, Control_c, 0, 64, 0
1, 1279580, Control_c, 0, 64, 0
1, 1279712, Control_c, 0, 64, 127
1, 1279712, Control_c, 0, 64, 127
1, 1279756, Note_on_c, 0, 73, 55
1, 1280006, Note_on_c, 0, 70, 55
1, 1280006, Note_on_c, 0, 63, 57
1, 1280025, Note_on_c, 0, 73, 0
1, 1280025, Note_on_c, 0, 65, 0
1, 1280255, Note_on_c, 0, 75, 71
1, 1280275, Note_on_c, 0, 77, 0
1, 1280505, Note_on_c, 0, 55, 0
1, 1280505, Note_on_c, 0, 75, 0
1, 1280505, Note_on_c, 0, 73, 77
1, 1280508, Note_on_c, 0, 61, 0
1, 1280508, Note_on_c, 0, 58, 0
1, 1280508, Note_on_c, 0, 56, 47
1, 1280511, Note_on_c, 0, 61, 57
1, 1280527, Note_on_c, 0, 70, 0
1, 1280527, Note_on_c, 0, 63, 0
1, 1280620, Control_c, 0, 64, 0
1, 1280620, Control_c, 0, 64, 0
1, 1280753, Control_c, 0, 64, 127
1, 1280753, Control_c, 0, 64, 127
1, 1280786, Note_on_c, 0, 68, 55
1, 1281035, Note_on_c, 0, 63, 55
1, 1281035, Note_on_c, 0, 60, 51
1, 1281055, Note_on_c, 0, 68, 0
1, 1281055, Note_on_c, 0, 61, 0
1, 1281285, Note_on_c, 0, 72, 71
1, 1281304, Note_on_c, 0, 73, 0
1, 1281535, Note_on_c, 0, 56, 0
1, 1281535, Note_on_c, 0, 72, 0
1, 1281535, Note_on_c, 0, 72, 73
1, 1281538, Note_on_c, 0, 60, 0
1, 1281538, Note_on_c, 0, 49, 47
1, 1281538, Note_on_c, 0, 53, 47
1, 1281541, Note_on_c, 0, 60, 57
1, 1281554, Note_on_c, 0, 63, 0
1, 1281593, Control_c, 0, 64, 0
1, 1281593, Control_c, 0, 64, 0
1, 1281696, Control_c, 0, 64, 127
1, 1281696, Control_c, 0, 64, 127
1, 1281784, Note_on_c, 0, 68, 55
1, 1282034, Note_on_c, 0, 65, 55
1, 1282034, Note_on_c, 0, 58, 50
1, 1282053, Note_on_c, 0, 68, 0
1, 1282053, Note_on_c, 0, 60, 0
1, 1282283, Note_on_c, 0, 70, 71
1, 1282308, Note_on_c, 0, 72, 0
1, 1282604, Note_on_c, 0, 70, 0
1, 1282604, Control_c, 0, 64, 127
1, 1282604, Note_on_c, 0, 84, 77
1, 1282607, Note_on_c, 0, 53, 0
1, 1282607, Note_on_c, 0, 49, 0
1, 1282607, Control_c, 0, 64, 127
1, 1282610, Note_on_c, 0, 72, 66
1, 1282610, Note_on_c, 0, 61, 47
1, 1282610, Note_on_c, 0, 65, 47
1, 1282629, Note_on_c, 0, 65, 0
1, 1282629, Note_on_c, 0, 58, 0
1, 1282775, Control_c, 0, 64, 0
1, 1282775, Control_c, 0, 64, 0
1, 1282869, Control_c, 0, 64, 127
1, 1282869, Control_c, 0, 64, 127
1, 1282925, Note_on_c, 0, 80, 55
1, 1283175, Note_on_c, 0, 77, 55
1, 1283175, Note_on_c, 0, 70, 58
1, 1283194, Note_on_c, 0, 80, 0
1, 1283194, Note_on_c, 0, 72, 0
1, 1283424, Note_on_c, 0, 82, 72
1, 1283444, Note_on_c, 0, 84, 0
1, 1283674, Note_on_c, 0, 61, 0
1, 1283674, Note_on_c, 0, 82, 0
1, 1283674, Note_on_c, 0, 82, 77
1, 1283677, Note_on_c, 0, 65, 0
1, 1283677, Note_on_c, 0, 63, 40
1, 1283677, Note_on_c, 0, 70, 40
1, 1283680, Note_on_c, 0, 70, 0
1, 1283680, Note_on_c, 0, 68, 57
1, 1283696, Note_on_c, 0, 77, 0
1, 1283823, Control_c, 0, 64, 0
1, 1283823, Control_c, 0, 64, 0
1, 1283955, Note_on_c, 0, 80, 55
1, 1284004, Control_c, 0, 64, 127
1, 1284004, Control_c, 0, 64, 127
1, 1284236, Note_on_c, 0, 75, 55
1, 1284236, Note_on_c, 0, 67, 53
1, 1284258, Note_on_c, 0, 80, 0
1, 1284258, Note_on_c, 0, 68, 0
1, 1284516, Note_on_c, 0, 84, 71
1, 1284541, Note_on_c, 0, 82, 0
1, 1284837, Note_on_c, 0, 70, 0
1, 1284837, Note_on_c, 0, 84, 0
1, 1284837, Note_on_c, 0, 80, 71
1, 1284840, Note_on_c, 0, 68, 50
1, 1284840, Note_on_c, 0, 72, 42
1, 1284862, Note_on_c, 0, 75, 0
1, 1284862, Note_on_c, 0, 67, 0
1, 1284988, Control_c, 0, 64, 0
1, 1284988, Control_c, 0, 64, 0
1, 1285158, Note_on_c, 0, 75, 55
1, 1285217, Control_c, 0, 64, 127
1, 1285217, Control_c, 0, 64, 127
1, 1285408, Note_on_c, 0, 80, 58
1, 1285427, Note_on_c, 0, 75, 0
1, 1285657, Note_on_c, 0, 84, 61
1, 1285677, Note_on_c, 0, 80, 0
1, 1285907, Note_on_c, 0, 63, 0
1, 1285907, Note_on_c, 0, 87, 64
1, 1285907, Note_on_c, 0, 66, 49
1, 1285927, Note_on_c, 0, 80, 0
1, 1285927, Note_on_c, 0, 84, 0
1, 1286157, Note_on_c, 0, 92, 67
1, 1286176, Note_on_c, 0, 87, 0
1, 1286406, Note_on_c, 0, 96, 70
1, 1286426, Note_on_c, 0, 92, 0
1, 1286656, Note_on_c, 0, 99, 73
1, 1286681, Note_on_c, 0, 96, 0
1, 1286902, Control_c, 0, 64, 0
1, 1286902, Control_c, 0, 64, 0
1, 1286977, Note_on_c, 0, 68, 0
1, 1286977, Note_on_c, 0, 66, 0
1, 1286977, Note_on_c, 0, 101, 89
1, 1286980, Note_on_c, 0, 72, 0
1, 1286980, Note_on_c, 0, 37, 60
1, 1287006, Note_on_c, 0, 99, 0
1, 1287129, Control_c, 0, 64, 127
1, 1287129, Control_c, 0, 64, 127
1, 1287351, Note_on_c, 0, 94, 89
1, 1287351, Note_on_c, 0, 44, 56
1, 1287672, Note_on_c, 0, 101, 0
1, 1287672, Note_on_c, 0, 85, 65
1, 1287922, Note_on_c, 0, 37, 0
1, 1287922, Note_on_c, 0, 44, 0
1, 1287922, Note_on_c, 0, 92, 83
1, 1287925, Note_on_c, 0, 49, 57
1, 1287951, Note_on_c, 0, 94, 0
1, 1288171, Note_on_c, 0, 85, 0
1, 1288171, Note_on_c, 0, 97, 77
1, 1288421, Note_on_c, 0, 49, 0
1, 1288421, Note_on_c, 0, 90, 84
1, 1288421, Note_on_c, 0, 53, 59
1, 1288454, Note_on_c, 0, 92, 0
1, 1288702, Note_on_c, 0, 97, 0
1, 1288702, Note_on_c, 0, 80, 65
1, 1288936, Note_on_c, 0, 53, 0
1, 1288936, Note_on_c, 0, 89, 81
1, 1288936, Note_on_c, 0, 56, 60
1, 1288963, Note_on_c, 0, 90, 0
1, 1289170, Note_on_c, 0, 80, 0
1, 1289170, Note_on_c, 0, 92, 77
1, 1289404, Note_on_c, 0, 56, 0
1, 1289404, Note_on_c, 0, 87, 84
1, 1289404, Note_on_c, 0, 61, 62
1, 1289431, Note_on_c, 0, 89, 0
1, 1289638, Note_on_c, 0, 92, 0
1, 1289638, Note_on_c, 0, 77, 65
1, 1289872, Note_on_c, 0, 61, 0
1, 1289872, Note_on_c, 0, 85, 81
1, 1289872, Note_on_c, 0, 65, 63
1, 1289899, Note_on_c, 0, 87, 0
1, 1290106, Note_on_c, 0, 77, 0
1, 1290106, Note_on_c, 0, 92, 77
1, 1290340, Note_on_c, 0, 65, 0
1, 1290340, Note_on_c, 0, 84, 84
1, 1290340, Note_on_c, 0, 68, 65
1, 1290367, Note_on_c, 0, 85, 0
1, 1290386, Control_c, 0, 64, 127
1, 1290386, Control_c, 0, 64, 127
1, 1290533, Control_c, 0, 64, 127
1, 1290533, Control_c, 0, 64, 127
1, 1290574, Note_on_c, 0, 92, 0
1, 1290574, Note_on_c, 0, 77, 65
1, 1290808, Note_on_c, 0, 68, 0
1, 1290808, Note_on_c, 0, 83, 81
1, 1290808, Note_on_c, 0, 73, 66
1, 1290841, Note_on_c, 0, 84, 0
1, 1290992, Control_c, 0, 64, 127
1, 1290992, Control_c, 0, 64, 127
1, 1291088, Note_on_c, 0, 77, 0
1, 1291088, Control_c, 0, 64, 127
1, 1291088, Note_on_c, 0, 90, 83
1, 1291091, Note_on_c, 0, 73, 0
1, 1291091, Control_c, 0, 64, 127
1, 1291091, Note_on_c, 0, 42, 60
1, 1291369, Note_on_c, 0, 83, 0
1, 1291369, Note_on_c, 0, 83, 84
1, 1291369, Note_on_c, 0, 49, 51
1, 1291393, Control_c, 0, 64, 0
1, 1291393, Control_c, 0, 64, 0
1, 1291522, Control_c, 0, 64, 127
1, 1291522, Control_c, 0, 64, 127
1, 1291619, Note_on_c, 0, 90, 0
1, 1291619, Note_on_c, 0, 78, 65
1, 1291853, Note_on_c, 0, 42, 0
1, 1291853, Note_on_c, 0, 49, 0
1, 1291853, Note_on_c, 0, 82, 83
1, 1291856, Note_on_c, 0, 54, 60
1, 1291880, Note_on_c, 0, 83, 0
1, 1292087, Note_on_c, 0, 78, 0
1, 1292087, Note_on_c, 0, 90, 77
1, 1292307, Control_c, 0, 64, 127
1, 1292307, Control_c, 0, 64, 127
1, 1292321, Note_on_c, 0, 54, 0
1, 1292321, Note_on_c, 0, 81, 84
1, 1292321, Note_on_c, 0, 58, 63
1, 1292348, Note_on_c, 0, 82, 0
1, 1292555, Note_on_c, 0, 90, 0
1, 1292555, Note_on_c, 0, 73, 65
1, 1292761, Control_c, 0, 64, 127
1, 1292761, Control_c, 0, 64, 127
1, 1292789, Note_on_c, 0, 58, 0
1, 1292789, Note_on_c, 0, 82, 81
1, 1292789, Note_on_c, 0, 66, 66
1, 1292818, Note_on_c, 0, 81, 0
1, 1293038, Note_on_c, 0, 73, 0
1, 1293038, Note_on_c, 0, 66, 0
1, 1293038, Note_on_c, 0, 89, 77
1, 1293041, Note_on_c, 0, 37, 60
1, 1293288, Note_on_c, 0, 82, 0
1, 1293288, Note_on_c, 0, 82, 84
1, 1293288, Note_on_c, 0, 44, 51
1, 1293370, Control_c, 0, 64, 0
1, 1293370, Control_c, 0, 64, 0
1, 1293519, Control_c, 0, 64, 127
1, 1293519, Control_c, 0, 64, 127
1, 1293569, Note_on_c, 0, 89, 0
1, 1293569, Note_on_c, 0, 77, 65
1, 1293803, Note_on_c, 0, 37, 0
1, 1293803, Note_on_c, 0, 44, 0
1, 1293803, Note_on_c, 0, 80, 78
1, 1293806, Note_on_c, 0, 49, 60
1, 1293830, Note_on_c, 0, 82, 0
1, 1294037, Note_on_c, 0, 77, 0
1, 1294037, Note_on_c, 0, 89, 77
1, 1294189, Control_c, 0, 64, 127
1, 1294189, Control_c, 0, 64, 127
1, 1294271, Note_on_c, 0, 49, 0
1, 1294271, Note_on_c, 0, 79, 79
1, 1294271, Note_on_c, 0, 56, 63
1, 1294298, Note_on_c, 0, 80, 0
1, 1294505, Note_on_c, 0, 89, 0
1, 1294505, Note_on_c, 0, 73, 65
1, 1294739, Note_on_c, 0, 56, 0
1, 1294739, Note_on_c, 0, 80, 74
1, 1294739, Note_on_c, 0, 65, 66
1, 1294766, Note_on_c, 0, 79, 0
1, 1294973, Note_on_c, 0, 73, 0
1, 1294973, Control_c, 0, 64, 127
1, 1294973, Note_on_c, 0, 90, 83
1, 1294976, Note_on_c, 0, 65, 0
1, 1294976, Control_c, 0, 64, 127
1, 1294976, Note_on_c, 0, 36, 60
1, 1294987, Control_c, 0, 64, 127
1, 1294987, Control_c, 0, 64, 127
1, 1295000, Note_on_c, 0, 80, 0
1, 1295094, Control_c, 0, 64, 0
1, 1295094, Control_c, 0, 64, 0
1, 1295207, Note_on_c, 0, 82, 86
1, 1295207, Note_on_c, 0, 44, 49
1, 1295233, Control_c, 0, 64, 0
1, 1295233, Control_c, 0, 64, 0
1, 1295379, Control_c, 0, 64, 127
1, 1295379, Control_c, 0, 64, 127
1, 1295488, Note_on_c, 0, 90, 0
1, 1295488, Note_on_c, 0, 75, 65
1, 1295722, Note_on_c, 0, 36, 0
1, 1295722, Note_on_c, 0, 44, 0
1, 1295722, Note_on_c, 0, 81, 83
1, 1295725, Note_on_c, 0, 51, 57
1, 1295740, Note_on_c, 0, 82, 0
1, 1295956, Note_on_c, 0, 75, 0
1, 1295956, Note_on_c, 0, 51, 0
1, 1295956, Note_on_c, 0, 87, 77
1, 1295959, Note_on_c, 0, 44, 66
1, 1296176, Control_c, 0, 64, 127
1, 1296176, Control_c, 0, 64, 127
1, 1296190, Note_on_c, 0, 80, 84
1, 1296190, Note_on_c, 0, 51, 46
1, 1296208, Note_on_c, 0, 81, 0
1, 1296424, Note_on_c, 0, 87, 0
1, 1296424, Note_on_c, 0, 72, 65
1, 1296630, Control_c, 0, 64, 127
1, 1296630, Control_c, 0, 64, 127
1, 1296658, Note_on_c, 0, 51, 0
1, 1296658, Note_on_c, 0, 44, 0
1, 1296658, Note_on_c, 0, 78, 81
1, 1296661, Note_on_c, 0, 60, 54
1, 1296680, Note_on_c, 0, 80, 0
1, 1296938, Note_on_c, 0, 72, 0
1, 1296938, Note_on_c, 0, 60, 0
1, 1296938, Note_on_c, 0, 85, 77
1, 1296941, Note_on_c, 0, 46, 66
1, 1297188, Note_on_c, 0, 78, 0
1, 1297188, Note_on_c, 0, 78, 84
1, 1297188, Note_on_c, 0, 49, 49
1, 1297261, Control_c, 0, 64, 0
1, 1297261, Control_c, 0, 64, 0
1, 1297394, Control_c, 0, 64, 127
1, 1297394, Control_c, 0, 64, 127
1, 1297438, Note_on_c, 0, 85, 0
1, 1297438, Note_on_c, 0, 73, 65
1, 1297672, Note_on_c, 0, 46, 0
1, 1297672, Note_on_c, 0, 49, 0
1, 1297672, Note_on_c, 0, 77, 81
1, 1297675, Note_on_c, 0, 61, 57
1, 1297690, Note_on_c, 0, 78, 0
1, 1297906, Note_on_c, 0, 73, 0
1, 1297906, Note_on_c, 0, 61, 0
1, 1297906, Note_on_c, 0, 85, 77
1, 1297909, Note_on_c, 0, 49, 66
1, 1298057, Control_c, 0, 64, 127
1, 1298057, Control_c, 0, 64, 127
1, 1298140, Note_on_c, 0, 76, 84
1, 1298140, Note_on_c, 0, 58, 52
1, 1298158, Note_on_c, 0, 77, 0
1, 1298374, Note_on_c, 0, 85, 0
1, 1298374, Note_on_c, 0, 70, 71
1, 1298695, Note_on_c, 0, 58, 0
1, 1298695, Note_on_c, 0, 49, 0
1, 1298695, Note_on_c, 0, 77, 77
1, 1298698, Note_on_c, 0, 68, 62
1, 1298720, Note_on_c, 0, 76, 0
1, 1299015, Note_on_c, 0, 70, 0
1, 1299015, Note_on_c, 0, 77, 0
1, 1299015, Control_c, 0, 64, 127
1, 1299018, Note_on_c, 0, 68, 0
1, 1299018, Note_on_c, 0, 84, 83
1, 1299018, Control_c, 0, 64, 127
1, 1299021, Note_on_c, 0, 51, 61
1, 1299296, Note_on_c, 0, 77, 86
1, 1299296, Note_on_c, 0, 60, 49
1, 1299340, Control_c, 0, 64, 0
1, 1299340, Control_c, 0, 64, 0
1, 1299546, Note_on_c, 0, 68, 60
1, 1299564, Note_on_c, 0, 84, 0
1, 1299573, Control_c, 0, 64, 127
1, 1299573, Control_c, 0, 64, 127
1, 1299780, Note_on_c, 0, 60, 0
1, 1299780, Note_on_c, 0, 51, 0
1, 1299780, Note_on_c, 0, 75, 83
1, 1299783, Note_on_c, 0, 63, 55
1, 1299798, Note_on_c, 0, 77, 0
1, 1300014, Note_on_c, 0, 63, 0
1, 1300014, Note_on_c, 0, 82, 77
1, 1300014, Note_on_c, 0, 51, 61
1, 1300248, Note_on_c, 0, 75, 0
1, 1300248, Note_on_c, 0, 75, 84
1, 1300248, Note_on_c, 0, 61, 49
1, 1300365, Control_c, 0, 64, 0
1, 1300365, Control_c, 0, 64, 0
1, 1300497, Note_on_c, 0, 82, 0
1, 1300497, Note_on_c, 0, 67, 66
1, 1300516, Note_on_c, 0, 68, 0
1, 1300539, Control_c, 0, 64, 127
1, 1300539, Control_c, 0, 64, 127
1, 1300731, Note_on_c, 0, 61, 0
1, 1300731, Note_on_c, 0, 51, 0
1, 1300731, Note_on_c, 0, 73, 76
1, 1300734, Note_on_c, 0, 63, 55
1, 1300753, Note_on_c, 0, 75, 0
1, 1301012, Note_on_c, 0, 63, 0
1, 1301012, Note_on_c, 0, 80, 70
1, 1301012, Note_on_c, 0, 44, 61
1, 1301211, Control_c, 0, 64, 127
1, 1301211, Control_c, 0, 64, 127
1, 1301293, Note_on_c, 0, 73, 0
1, 1301293, Note_on_c, 0, 73, 78
1, 1301293, Note_on_c, 0, 51, 53
1, 1301470, Control_c, 0, 64, 127
1, 1301470, Control_c, 0, 64, 127
1, 1301543, Note_on_c, 0, 80, 0
1, 1301543, Note_on_c, 0, 66, 60
1, 1301562, Note_on_c, 0, 67, 0
1, 1301792, Note_on_c, 0, 51, 0
1, 1301792, Note_on_c, 0, 44, 0
1, 1301792, Note_on_c, 0, 72, 75
1, 1301795, Note_on_c, 0, 60, 55
1, 1301812, Note_on_c, 0, 73, 0
1, 1302042, Note_on_c, 0, 80, 77
1, 1302291, Note_on_c, 0, 60, 0
1, 1302291, Note_on_c, 0, 71, 78
1, 1302291, Note_on_c, 0, 63, 57
1, 1302313, Note_on_c, 0, 72, 0
1, 1302572, Note_on_c, 0, 80, 0
1, 1302572, Note_on_c, 0, 66, 64
1, 1302597, Note_on_c, 0, 66, 0
1, 1302893, Note_on_c, 0, 63, 0
1, 1302893, Note_on_c, 0, 72, 68
1, 1302893, Note_on_c, 0, 68, 59
1, 1302922, Note_on_c, 0, 71, 0
1, 1303268, Note_on_c, 0, 66, 0
1, 1303268, Note_on_c, 0, 72, 0
1, 1303268, Note_on_c, 0, 101, 83
1, 1303271, Note_on_c, 0, 68, 0
1, 1303271, Note_on_c, 0, 37, 60
1, 1303420, Control_c, 0, 64, 127
1, 1303420, Control_c, 0, 64, 127
1, 1303642, Note_on_c, 0, 94, 89
1, 1303642, Note_on_c, 0, 44, 56
1, 1303963, Note_on_c, 0, 101, 0
1, 1303963, Note_on_c, 0, 85, 65
1, 1304213, Note_on_c, 0, 37, 0
1, 1304213, Note_on_c, 0, 44, 0
1, 1304213, Note_on_c, 0, 92, 83
1, 1304216, Note_on_c, 0, 49, 57
1, 1304242, Note_on_c, 0, 94, 0
1, 1304462, Note_on_c, 0, 85, 0
1, 1304462, Note_on_c, 0, 97, 77
1, 1304712, Note_on_c, 0, 49, 0
1, 1304712, Note_on_c, 0, 90, 84
1, 1304712, Note_on_c, 0, 53, 59
1, 1304745, Note_on_c, 0, 92, 0
1, 1304993, Note_on_c, 0, 97, 0
1, 1304993, Note_on_c, 0, 80, 65
1, 1305227, Note_on_c, 0, 53, 0
1, 1305227, Note_on_c, 0, 89, 81
1, 1305227, Note_on_c, 0, 56, 60
1, 1305254, Note_on_c, 0, 90, 0
1, 1305461, Note_on_c, 0, 80, 0
1, 1305461, Note_on_c, 0, 92, 77
1, 1305695, Note_on_c, 0, 56, 0
1, 1305695, Note_on_c, 0, 87, 84
1, 1305695, Note_on_c, 0, 61, 62
1, 1305722, Note_on_c, 0, 89, 0
1, 1305929, Note_on_c, 0, 92, 0
1, 1305929, Note_on_c, 0, 77, 65
1, 1306163, Note_on_c, 0, 61, 0
1, 1306163, Note_on_c, 0, 85, 81
1, 1306163, Note_on_c, 0, 68, 63
1, 1306190, Note_on_c, 0, 87, 0
1, 1306397, Note_on_c, 0, 77, 0
1, 1306397, Note_on_c, 0, 68, 0
1, 1306397, Note_on_c, 0, 93, 77
1, 1306400, Note_on_c, 0, 53, 66
1, 1306446, Control_c, 0, 64, 0
1, 1306446, Control_c, 0, 64, 0
1, 1306677, Note_on_c, 0, 89, 84
1, 1306677, Note_on_c, 0, 60, 53
1, 1306707, Note_on_c, 0, 85, 0
1, 1306727, Control_c, 0, 64, 127
1, 1306727, Control_c, 0, 64, 127
1, 1306883, Control_c, 0, 64, 127
1, 1306883, Control_c, 0, 64, 127
1, 1306927, Note_on_c, 0, 93, 0
1, 1306927, Note_on_c, 0, 77, 65
1, 1307177, Note_on_c, 0, 60, 0
1, 1307177, Note_on_c, 0, 53, 0
1, 1307177, Note_on_c, 0, 87, 81
1, 1307180, Note_on_c, 0, 69, 54
1, 1307209, Note_on_c, 0, 89, 0
1, 1307361, Control_c, 0, 64, 127
1, 1307361, Control_c, 0, 64, 127
1, 1307457, Note_on_c, 0, 77, 0
1, 1307457, Note_on_c, 0, 87, 0
1, 1307457, Note_on_c, 0, 94, 77
1, 1307460, Note_on_c, 0, 69, 0
1, 1307460, Note_on_c, 0, 46, 66
1, 1307660, Control_c, 0, 64, 0
1, 1307660, Control_c, 0, 64, 0
1, 1307778, Note_on_c, 0, 87, 83
1, 1307778, Note_on_c, 0, 65, 57
1, 1307836, Control_c, 0, 64, 127
1, 1307836, Control_c, 0, 64, 127
1, 1308059, Note_on_c, 0, 46, 0
1, 1308059, Note_on_c, 0, 94, 0
1, 1308059, Note_on_c, 0, 82, 59
1, 1308062, Note_on_c, 0, 67, 58
1, 1308079, Note_on_c, 0, 65, 0
1, 1308309, Note_on_c, 0, 87, 0
1, 1308309, Note_on_c, 0, 85, 83
1, 1308309, Note_on_c, 0, 69, 59
1, 1308327, Note_on_c, 0, 67, 0
1, 1308543, Note_on_c, 0, 82, 0
1, 1308543, Note_on_c, 0, 89, 64
1, 1308543, Note_on_c, 0, 70, 61
1, 1308562, Note_on_c, 0, 69, 0
1, 1308792, Note_on_c, 0, 85, 0
1, 1308792, Note_on_c, 0, 84, 84
1, 1308792, Note_on_c, 0, 69, 62
1, 1308810, Note_on_c, 0, 70, 0
1, 1308862, Control_c, 0, 64, 0
1, 1308862, Control_c, 0, 64, 0
1, 1308996, Control_c, 0, 64, 127
1, 1308996, Control_c, 0, 64, 127
1, 1309026, Note_on_c, 0, 89, 0
1, 1309026, Note_on_c, 0, 77, 59
1, 1309026, Note_on_c, 0, 70, 63
1, 1309044, Note_on_c, 0, 69, 0
1, 1309260, Note_on_c, 0, 84, 0
1, 1309260, Note_on_c, 0, 82, 81
1, 1309260, Note_on_c, 0, 72, 64
1, 1309278, Note_on_c, 0, 70, 0
1, 1309494, Note_on_c, 0, 77, 0
1, 1309494, Note_on_c, 0, 85, 64
1, 1309494, Note_on_c, 0, 73, 66
1, 1309512, Note_on_c, 0, 72, 0
1, 1309728, Note_on_c, 0, 82, 0
1, 1309728, Note_on_c, 0, 78, 84
1, 1309728, Note_on_c, 0, 72, 67
1, 1309746, Note_on_c, 0, 73, 0
1, 1309790, Control_c, 0, 64, 0
1, 1309790, Control_c, 0, 64, 0
1, 1309912, Control_c, 0, 64, 127
1, 1309912, Control_c, 0, 64, 127
1, 1309962, Note_on_c, 0, 85, 0
1, 1309962, Note_on_c, 0, 70, 59
1, 1309962, Note_on_c, 0, 73, 68
1, 1309980, Note_on_c, 0, 72, 0
1, 1310196, Note_on_c, 0, 78, 0
1, 1310196, Note_on_c, 0, 77, 81
1, 1310196, Note_on_c, 0, 74, 69
1, 1310214, Note_on_c, 0, 73, 0
1, 1310424, Control_c, 0, 64, 0
1, 1310424, Control_c, 0, 64, 0
1, 1310430, Note_on_c, 0, 70, 0
1, 1310430, Note_on_c, 0, 77, 0
1, 1310430, Note_on_c, 0, 80, 79
1, 1310433, Note_on_c, 0, 75, 71
1, 1310452, Note_on_c, 0, 74, 0
1, 1310536, Control_c, 0, 64, 127
1, 1310536, Control_c, 0, 64, 127
1, 1310711, Note_on_c, 0, 73, 55
1, 1310961, Note_on_c, 0, 73, 0
1, 1310961, Note_on_c, 0, 70, 55
1, 1310961, Note_on_c, 0, 76, 73
1, 1310980, Note_on_c, 0, 75, 0
1, 1311210, Note_on_c, 0, 80, 0
1, 1311210, Note_on_c, 0, 79, 77
1, 1311460, Note_on_c, 0, 79, 0
1, 1311460, Note_on_c, 0, 70, 0
1, 1311460, Control_c, 0, 64, 127
1, 1311463, Note_on_c, 0, 82, 81
1, 1311463, Control_c, 0, 64, 127
1, 1311463, Note_on_c, 0, 77, 66
1, 1311479, Note_on_c, 0, 76, 0
1, 1311575, Control_c, 0, 64, 0
1, 1311575, Control_c, 0, 64, 0
1, 1311618, Control_c, 0, 64, 0
1, 1311618, Control_c, 0, 64, 0
1, 1311709, Note_on_c, 0, 75, 55
1, 1311761, Control_c, 0, 64, 127
1, 1311761, Control_c, 0, 64, 127
1, 1311959, Note_on_c, 0, 75, 0
1, 1311959, Note_on_c, 0, 72, 55
1, 1311959, Note_on_c, 0, 65, 67
1, 1311979, Note_on_c, 0, 77, 0
1, 1312209, Note_on_c, 0, 81, 83
1, 1312228, Note_on_c, 0, 82, 0
1, 1312458, Note_on_c, 0, 72, 0
1, 1312458, Note_on_c, 0, 84, 84
1, 1312458, Note_on_c, 0, 66, 70
1, 1312461, Note_on_c, 0, 51, 55
1, 1312473, Control_c, 0, 64, 0
1, 1312473, Control_c, 0, 64, 0
1, 1312478, Note_on_c, 0, 65, 0
1, 1312478, Note_on_c, 0, 81, 0
1, 1312708, Control_c, 0, 64, 127
1, 1312708, Note_on_c, 0, 77, 55
1, 1312708, Control_c, 0, 64, 127
1, 1312782, Control_c, 0, 64, 0
1, 1312782, Control_c, 0, 64, 0
1, 1312925, Control_c, 0, 64, 127
1, 1312925, Control_c, 0, 64, 127
1, 1312957, Note_on_c, 0, 77, 0
1, 1312957, Note_on_c, 0, 73, 55
1, 1312957, Note_on_c, 0, 67, 74
1, 1312976, Note_on_c, 0, 66, 0
1, 1313191, Note_on_c, 0, 82, 88
1, 1313211, Note_on_c, 0, 84, 0
1, 1313441, Note_on_c, 0, 73, 0
1, 1313441, Note_on_c, 0, 85, 88
1, 1313441, Note_on_c, 0, 56, 55
1, 1313444, Note_on_c, 0, 68, 72
1, 1313459, Note_on_c, 0, 51, 0
1, 1313459, Note_on_c, 0, 82, 0
1, 1313459, Note_on_c, 0, 67, 0
1, 1313482, Control_c, 0, 64, 0
1, 1313482, Control_c, 0, 64, 0
1, 1313675, Control_c, 0, 64, 127
1, 1313675, Note_on_c, 0, 80, 55
1, 1313675, Control_c, 0, 64, 127
1, 1313859, Control_c, 0, 64, 127
1, 1313859, Control_c, 0, 64, 127
1, 1313909, Note_on_c, 0, 80, 0
1, 1313909, Note_on_c, 0, 75, 55
1, 1313909, Note_on_c, 0, 63, 62
1, 1313927, Note_on_c, 0, 68, 0
1, 1314143, Note_on_c, 0, 84, 91
1, 1314163, Note_on_c, 0, 85, 0
1, 1314386, Control_c, 0, 64, 0
1, 1314386, Control_c, 0, 64, 0
1, 1314393, Note_on_c, 0, 75, 0
1, 1314393, Note_on_c, 0, 85, 92
1, 1314393, Note_on_c, 0, 53, 55
1, 1314396, Note_on_c, 0, 68, 72
1, 1314412, Note_on_c, 0, 63, 0
1, 1314412, Note_on_c, 0, 84, 0
1, 1314412, Note_on_c, 0, 56, 0
1, 1314486, Control_c, 0, 64, 127
1, 1314486, Control_c, 0, 64, 127
1, 1314642, Note_on_c, 0, 78, 55
1, 1314892, Note_on_c, 0, 78, 0
1, 1314892, Note_on_c, 0, 75, 55
1, 1314892, Note_on_c, 0, 69, 77
1, 1314910, Note_on_c, 0, 68, 0
1, 1315126, Note_on_c, 0, 84, 95
1, 1315148, Note_on_c, 0, 85, 0
1, 1315407, Note_on_c, 0, 75, 0
1, 1315407, Control_c, 0, 64, 127
1, 1315407, Note_on_c, 0, 87, 90
1, 1315410, Control_c, 0, 64, 127
1, 1315410, Note_on_c, 0, 70, 73
1, 1315410, Note_on_c, 0, 58, 53
1, 1315432, Note_on_c, 0, 69, 0
1, 1315432, Note_on_c, 0, 84, 0
1, 1315432, Note_on_c, 0, 53, 0
1, 1315555, Control_c, 0, 64, 0
1, 1315555, Control_c, 0, 64, 0
1, 1315610, Control_c, 0, 64, 0
1, 1315610, Control_c, 0, 64, 0
1, 1315728, Note_on_c, 0, 80, 58
1, 1315779, Control_c, 0, 64, 127
1, 1315779, Control_c, 0, 64, 127
1, 1315977, Note_on_c, 0, 80, 0
1, 1315977, Note_on_c, 0, 77, 58
1, 1315977, Note_on_c, 0, 65, 64
1, 1315997, Note_on_c, 0, 70, 0
1, 1316227, Note_on_c, 0, 85, 82
1, 1316246, Note_on_c, 0, 87, 0
1, 1316476, Note_on_c, 0, 77, 0
1, 1316476, Note_on_c, 0, 84, 84
1, 1316476, Note_on_c, 0, 63, 54
1, 1316479, Note_on_c, 0, 68, 62
1, 1316491, Control_c, 0, 64, 0
1, 1316491, Control_c, 0, 64, 0
1, 1316496, Note_on_c, 0, 65, 0
1, 1316496, Note_on_c, 0, 85, 0
1, 1316496, Note_on_c, 0, 58, 0
1, 1316726, Control_c, 0, 64, 127
1, 1316726, Note_on_c, 0, 75, 58
1, 1316726, Control_c, 0, 64, 127
1, 1316800, Control_c, 0, 64, 0
1, 1316800, Control_c, 0, 64, 0
1, 1316943, Control_c, 0, 64, 127
1, 1316943, Control_c, 0, 64, 127
1, 1316976, Note_on_c, 0, 75, 0
1, 1316976, Note_on_c, 0, 73, 58
1, 1316976, Note_on_c, 0, 67, 59
1, 1316995, Note_on_c, 0, 68, 0
1, 1317225, Note_on_c, 0, 84, 0
1, 1317225, Note_on_c, 0, 82, 77
1, 1317546, Note_on_c, 0, 73, 0
1, 1317546, Note_on_c, 0, 79, 80
1, 1317546, Note_on_c, 0, 56, 47
1, 1317549, Note_on_c, 0, 68, 54
1, 1317568, Note_on_c, 0, 67, 0
1, 1317568, Note_on_c, 0, 82, 0
1, 1317568, Note_on_c, 0, 63, 0
1, 1317595, Control_c, 0, 64, 0
1, 1317595, Control_c, 0, 64, 0
1, 1317827, Control_c, 0, 64, 127
1, 1317827, Note_on_c, 0, 72, 55
1, 1317827, Control_c, 0, 64, 127
1, 1318023, Control_c, 0, 64, 127
1, 1318023, Control_c, 0, 64, 127
1, 1318076, Note_on_c, 0, 72, 0
1, 1318076, Note_on_c, 0, 75, 55
1, 1318076, Note_on_c, 0, 63, 51
1, 1318096, Note_on_c, 0, 68, 0
1, 1318326, Note_on_c, 0, 80, 66
1, 1318346, Note_on_c, 0, 79, 0
1, 1318502, Control_c, 0, 64, 127
1, 1318502, Control_c, 0, 64, 127
1, 1318576, Note_on_c, 0, 75, 0
1, 1318576, Note_on_c, 0, 56, 0
1, 1318576, Note_on_c, 0, 84, 69
1, 1318579, Note_on_c, 0, 63, 0
1, 1318595, Note_on_c, 0, 80, 0
1, 1318825, Note_on_c, 0, 87, 75
1, 1318845, Note_on_c, 0, 84, 0
1, 1319075, Note_on_c, 0, 92, 79
1, 1319097, Note_on_c, 0, 87, 0
1, 1319356, Note_on_c, 0, 96, 86
1, 1319381, Note_on_c, 0, 92, 0
1, 1319491, Control_c, 0, 64, 127
1, 1319491, Control_c, 0, 64, 127
1, 1319677, Control_c, 0, 64, 127
1, 1319677, Note_on_c, 0, 101, 90
1, 1319677, Control_c, 0, 64, 127
1, 1319680, Note_on_c, 0, 44, 66
1, 1319706, Note_on_c, 0, 96, 0
1, 1319808, Control_c, 0, 64, 0
1, 1319808, Control_c, 0, 64, 0
1, 1319897, Control_c, 0, 64, 127
1, 1319897, Control_c, 0, 64, 127
1, 1320051, Note_on_c, 0, 99, 78
1, 1320051, Note_on_c, 0, 51, 46
1, 1320051, Note_on_c, 0, 54, 58
1, 1320072, Note_on_c, 0, 101, 0
1, 1320318, Note_on_c, 0, 96, 70
1, 1320338, Note_on_c, 0, 99, 0
1, 1320568, Note_on_c, 0, 51, 0
1, 1320568, Note_on_c, 0, 44, 0
1, 1320568, Note_on_c, 0, 87, 77
1, 1320571, Note_on_c, 0, 54, 0
1, 1320571, Note_on_c, 0, 60, 58
1, 1320587, Note_on_c, 0, 96, 0
1, 1320818, Note_on_c, 0, 60, 0
1, 1320818, Note_on_c, 0, 90, 86
1, 1320818, Note_on_c, 0, 45, 66
1, 1320837, Note_on_c, 0, 87, 0
1, 1320854, Control_c, 0, 64, 0
1, 1320854, Control_c, 0, 64, 0
1, 1320954, Control_c, 0, 64, 127
1, 1320954, Control_c, 0, 64, 127
1, 1321067, Note_on_c, 0, 87, 84
1, 1321067, Note_on_c, 0, 51, 46
1, 1321067, Note_on_c, 0, 54, 58
1, 1321085, Note_on_c, 0, 90, 0
1, 1321301, Note_on_c, 0, 83, 77
1, 1321319, Note_on_c, 0, 87, 0
1, 1321535, Note_on_c, 0, 51, 0
1, 1321535, Note_on_c, 0, 45, 0
1, 1321535, Note_on_c, 0, 84, 77
1, 1321538, Note_on_c, 0, 54, 0
1, 1321538, Note_on_c, 0, 60, 58
1, 1321553, Note_on_c, 0, 83, 0
1, 1321769, Note_on_c, 0, 60, 0
1, 1321769, Note_on_c, 0, 87, 85
1, 1321769, Note_on_c, 0, 46, 66
1, 1321787, Note_on_c, 0, 84, 0
1, 1321796, Control_c, 0, 64, 0
1, 1321796, Control_c, 0, 64, 0
1, 1321891, Control_c, 0, 64, 127
1, 1321891, Control_c, 0, 64, 127
1, 1322003, Note_on_c, 0, 85, 85
1, 1322003, Note_on_c, 0, 49, 46
1, 1322003, Note_on_c, 0, 55, 58
1, 1322021, Note_on_c, 0, 87, 0
1, 1322237, Note_on_c, 0, 82, 83
1, 1322255, Note_on_c, 0, 85, 0
1, 1322471, Note_on_c, 0, 49, 0
1, 1322471, Note_on_c, 0, 46, 0
1, 1322471, Note_on_c, 0, 79, 77
1, 1322474, Note_on_c, 0, 55, 0
1, 1322474, Note_on_c, 0, 61, 58
1, 1322489, Note_on_c, 0, 82, 0
1, 1322705, Note_on_c, 0, 61, 0
1, 1322705, Note_on_c, 0, 82, 77
1, 1322705, Note_on_c, 0, 48, 66
1, 1322725, Note_on_c, 0, 79, 0
1, 1322741, Control_c, 0, 64, 0
1, 1322741, Control_c, 0, 64, 0
1, 1322842, Control_c, 0, 64, 127
1, 1322842, Control_c, 0, 64, 127
1, 1322955, Note_on_c, 0, 80, 77
1, 1322955, Note_on_c, 0, 51, 46
1, 1322955, Note_on_c, 0, 56, 58
1, 1322973, Note_on_c, 0, 82, 0
1, 1323189, Note_on_c, 0, 74, 72
1, 1323208, Note_on_c, 0, 80, 0
1, 1323438, Note_on_c, 0, 51, 0
1, 1323438, Note_on_c, 0, 48, 0
1, 1323438, Note_on_c, 0, 75, 68
1, 1323441, Note_on_c, 0, 56, 0
1, 1323441, Note_on_c, 0, 63, 58
1, 1323460, Note_on_c, 0, 74, 0
1, 1323588, Control_c, 0, 64, 127
1, 1323588, Control_c, 0, 64, 127
1, 1323719, Control_c, 0, 64, 127
1, 1323719, Note_on_c, 0, 94, 90
1, 1323719, Control_c, 0, 64, 127
1, 1323722, Note_on_c, 0, 63, 0
1, 1323722, Note_on_c, 0, 49, 66
1, 1323748, Note_on_c, 0, 75, 0
1, 1323829, Control_c, 0, 64, 0
1, 1323829, Control_c, 0, 64, 0
1, 1324006, Control_c, 0, 64, 127
1, 1324006, Control_c, 0, 64, 127
1, 1324094, Note_on_c, 0, 92, 84
1, 1324094, Note_on_c, 0, 56, 47
1, 1324094, Note_on_c, 0, 59, 58
1, 1324113, Note_on_c, 0, 94, 0
1, 1324343, Note_on_c, 0, 89, 80
1, 1324361, Note_on_c, 0, 92, 0
1, 1324577, Note_on_c, 0, 56, 0
1, 1324577, Note_on_c, 0, 49, 0
1, 1324577, Note_on_c, 0, 80, 77
1, 1324580, Note_on_c, 0, 59, 0
1, 1324580, Note_on_c, 0, 65, 58
1, 1324595, Note_on_c, 0, 89, 0
1, 1324811, Note_on_c, 0, 65, 0
1, 1324811, Note_on_c, 0, 83, 83
1, 1324811, Note_on_c, 0, 50, 66
1, 1324829, Note_on_c, 0, 80, 0
1, 1324845, Control_c, 0, 64, 0
1, 1324845, Control_c, 0, 64, 0
1, 1324939, Control_c, 0, 64, 127
1, 1324939, Control_c, 0, 64, 127
1, 1325045, Note_on_c, 0, 80, 84
1, 1325045, Note_on_c, 0, 56, 55
1, 1325045, Note_on_c, 0, 59, 58
1, 1325063, Note_on_c, 0, 83, 0
1, 1325279, Note_on_c, 0, 76, 77
1, 1325297, Note_on_c, 0, 80, 0
1, 1325513, Note_on_c, 0, 56, 0
1, 1325513, Note_on_c, 0, 50, 0
1, 1325513, Note_on_c, 0, 77, 77
1, 1325516, Note_on_c, 0, 59, 0
1, 1325516, Note_on_c, 0, 65, 58
1, 1325531, Note_on_c, 0, 76, 0
1, 1325747, Note_on_c, 0, 65, 0
1, 1325747, Note_on_c, 0, 80, 83
1, 1325747, Note_on_c, 0, 51, 66
1, 1325765, Note_on_c, 0, 77, 0
1, 1325774, Control_c, 0, 64, 0
1, 1325774, Control_c, 0, 64, 0
1, 1325869, Control_c, 0, 64, 127
1, 1325869, Control_c, 0, 64, 127
1, 1325981, Note_on_c, 0, 78, 80
1, 1325981, Note_on_c, 0, 54, 47
1, 1325981, Note_on_c, 0, 60, 58
1, 1325999, Note_on_c, 0, 80, 0
1, 1326215, Note_on_c, 0, 75, 78
1, 1326233, Note_on_c, 0, 78, 0
1, 1326449, Note_on_c, 0, 54, 0
1, 1326449, Note_on_c, 0, 51, 0
1, 1326449, Note_on_c, 0, 72, 72
1, 1326452, Note_on_c, 0, 60, 0
1, 1326452, Note_on_c, 0, 66, 58
1, 1326467, Note_on_c, 0, 75, 0
1, 1326683, Note_on_c, 0, 66, 0
1, 1326683, Note_on_c, 0, 75, 72
1, 1326683, Note_on_c, 0, 53, 66
1, 1326705, Note_on_c, 0, 72, 0
1, 1326724, Control_c, 0, 64, 0
1, 1326724, Control_c, 0, 64, 0
1, 1326837, Control_c, 0, 64, 127
1, 1326837, Control_c, 0, 64, 127
1, 1326964, Note_on_c, 0, 73, 72
1, 1326964, Note_on_c, 0, 56, 47
1, 1326964, Note_on_c, 0, 61, 58
1, 1326983, Note_on_c, 0, 75, 0
1, 1327214, Note_on_c, 0, 67, 67
1, 1327234, Note_on_c, 0, 73, 0
1, 1327481, Note_on_c, 0, 56, 0
1, 1327481, Note_on_c, 0, 53, 0
1, 1327481, Note_on_c, 0, 68, 63
1, 1327484, Note_on_c, 0, 61, 0
1, 1327484, Note_on_c, 0, 68, 58
1, 1327502, Note_on_c, 0, 67, 0
1, 1327702, Control_c, 0, 64, 0
1, 1327702, Control_c, 0, 64, 0
1, 1327748, Note_on_c, 0, 68, 0
1, 1327748, Note_on_c, 0, 69, 62
1, 1327748, Note_on_c, 0, 54, 60
1, 1327770, Note_on_c, 0, 68, 0
1, 1327861, Control_c, 0, 64, 127
1, 1327861, Control_c, 0, 64, 127
1, 1328029, Note_on_c, 0, 70, 65
1, 1328029, Note_on_c, 0, 58, 41
1, 1328029, Note_on_c, 0, 63, 52
1, 1328048, Note_on_c, 0, 69, 0
1, 1328263, Note_on_c, 0, 72, 66
1, 1328263, Note_on_c, 0, 82, 85
1, 1328282, Note_on_c, 0, 70, 0
1, 1328497, Note_on_c, 0, 58, 0
1, 1328497, Note_on_c, 0, 54, 0
1, 1328497, Note_on_c, 0, 73, 68
1, 1328500, Note_on_c, 0, 63, 0
1, 1328500, Note_on_c, 0, 70, 52
1, 1328517, Note_on_c, 0, 72, 0
1, 1328747, Note_on_c, 0, 70, 0
1, 1328747, Note_on_c, 0, 74, 58
1, 1328747, Note_on_c, 0, 84, 87
1, 1328750, Note_on_c, 0, 48, 60
1, 1328766, Note_on_c, 0, 82, 0
1, 1328766, Note_on_c, 0, 73, 0
1, 1328783, Control_c, 0, 64, 0
1, 1328783, Control_c, 0, 64, 0
1, 1328864, Control_c, 0, 64, 0
1, 1328864, Control_c, 0, 64, 0
1, 1328996, Note_on_c, 0, 75, 67
1, 1328996, Note_on_c, 0, 54, 49
1, 1328996, Note_on_c, 0, 58, 52
1, 1329010, Control_c, 0, 64, 127
1, 1329010, Control_c, 0, 64, 127
1, 1329015, Note_on_c, 0, 74, 0
1, 1329230, Note_on_c, 0, 77, 68
1, 1329249, Note_on_c, 0, 75, 0
1, 1329464, Note_on_c, 0, 48, 0
1, 1329464, Note_on_c, 0, 78, 64
1, 1329464, Note_on_c, 0, 82, 80
1, 1329467, Note_on_c, 0, 54, 0
1, 1329467, Note_on_c, 0, 58, 0
1, 1329467, Note_on_c, 0, 66, 52
1, 1329483, Note_on_c, 0, 77, 0
1, 1329483, Note_on_c, 0, 84, 0
1, 1329698, Note_on_c, 0, 66, 0
1, 1329698, Note_on_c, 0, 67, 63
1, 1329698, Note_on_c, 0, 53, 60
1, 1329717, Note_on_c, 0, 82, 0
1, 1329717, Note_on_c, 0, 78, 0
1, 1329725, Control_c, 0, 64, 0
1, 1329725, Control_c, 0, 64, 0
1, 1329820, Control_c, 0, 64, 127
1, 1329820, Control_c, 0, 64, 127
1, 1329932, Note_on_c, 0, 68, 64
1, 1329932, Note_on_c, 0, 56, 41
1, 1329932, Note_on_c, 0, 60, 52
1, 1329951, Note_on_c, 0, 67, 0
1, 1330166, Note_on_c, 0, 71, 65
1, 1330166, Note_on_c, 0, 80, 81
1, 1330185, Note_on_c, 0, 68, 0
1, 1330400, Note_on_c, 0, 56, 0
1, 1330400, Note_on_c, 0, 53, 0
1, 1330400, Note_on_c, 0, 72, 66
1, 1330403, Note_on_c, 0, 60, 0
1, 1330403, Note_on_c, 0, 68, 52
1, 1330419, Note_on_c, 0, 71, 0
1, 1330634, Note_on_c, 0, 68, 0
1, 1330634, Note_on_c, 0, 73, 66
1, 1330634, Note_on_c, 0, 82, 87
1, 1330637, Note_on_c, 0, 46, 60
1, 1330654, Note_on_c, 0, 80, 0
1, 1330654, Note_on_c, 0, 72, 0
1, 1330671, Control_c, 0, 64, 0
1, 1330671, Control_c, 0, 64, 0
1, 1330722, Control_c, 0, 64, 0
1, 1330722, Control_c, 0, 64, 0
1, 1330840, Control_c, 0, 64, 127
1, 1330840, Control_c, 0, 64, 127
1, 1330884, Note_on_c, 0, 74, 67
1, 1330884, Note_on_c, 0, 53, 41
1, 1330884, Note_on_c, 0, 56, 52
1, 1330902, Note_on_c, 0, 73, 0
1, 1331118, Note_on_c, 0, 76, 68
1, 1331136, Note_on_c, 0, 74, 0
1, 1331352, Note_on_c, 0, 46, 0
1, 1331352, Note_on_c, 0, 77, 69
1, 1331352, Note_on_c, 0, 80, 77
1, 1331355, Note_on_c, 0, 53, 0
1, 1331355, Note_on_c, 0, 56, 0
1, 1331355, Note_on_c, 0, 62, 52
1, 1331372, Note_on_c, 0, 76, 0
1, 1331372, Note_on_c, 0, 82, 0
1, 1331559, Control_c, 0, 64, 0
1, 1331559, Control_c, 0, 64, 0
1, 1331602, Note_on_c, 0, 62, 0
1, 1331602, Note_on_c, 0, 65, 60
1, 1331602, Note_on_c, 0, 51, 58
1, 1331621, Note_on_c, 0, 80, 0
1, 1331621, Note_on_c, 0, 77, 0
1, 1331702, Control_c, 0, 64, 127
1, 1331702, Control_c, 0, 64, 127
1, 1331851, Note_on_c, 0, 66, 63
1, 1331851, Note_on_c, 0, 54, 41
1, 1331851, Note_on_c, 0, 58, 52
1, 1331870, Note_on_c, 0, 65, 0
1, 1332085, Note_on_c, 0, 69, 64
1, 1332085, Note_on_c, 0, 78, 83
1, 1332104, Note_on_c, 0, 66, 0
1, 1332319, Note_on_c, 0, 54, 0
1, 1332319, Note_on_c, 0, 51, 0
1, 1332319, Note_on_c, 0, 70, 68
1, 1332322, Note_on_c, 0, 58, 0
1, 1332322, Note_on_c, 0, 66, 54
1, 1332338, Note_on_c, 0, 69, 0
1, 1332553, Note_on_c, 0, 66, 0
1, 1332553, Note_on_c, 0, 69, 70
1, 1332553, Note_on_c, 0, 49, 64
1, 1332572, Note_on_c, 0, 70, 0
1, 1332587, Control_c, 0, 64, 0
1, 1332587, Control_c, 0, 64, 0
1, 1332681, Control_c, 0, 64, 127
1, 1332681, Control_c, 0, 64, 127
1, 1332787, Note_on_c, 0, 70, 73
1, 1332787, Note_on_c, 0, 52, 54
1, 1332787, Note_on_c, 0, 55, 57
1, 1332806, Note_on_c, 0, 69, 0
1, 1333021, Note_on_c, 0, 72, 76
1, 1333021, Note_on_c, 0, 82, 83
1, 1333040, Note_on_c, 0, 70, 0
1, 1333040, Note_on_c, 0, 78, 0
1, 1333255, Note_on_c, 0, 52, 0
1, 1333255, Note_on_c, 0, 49, 0
1, 1333255, Note_on_c, 0, 73, 79
1, 1333258, Note_on_c, 0, 55, 0
1, 1333258, Note_on_c, 0, 64, 59
1, 1333274, Note_on_c, 0, 72, 0
1, 1333489, Note_on_c, 0, 64, 0
1, 1333489, Note_on_c, 0, 74, 82
1, 1333489, Note_on_c, 0, 48, 71
1, 1333513, Note_on_c, 0, 73, 0
1, 1333524, Control_c, 0, 64, 0
1, 1333524, Control_c, 0, 64, 0
1, 1333647, Control_c, 0, 64, 127
1, 1333647, Control_c, 0, 64, 127
1, 1333793, Note_on_c, 0, 75, 83
1, 1333793, Note_on_c, 0, 51, 49
1, 1333793, Note_on_c, 0, 56, 56
1, 1333814, Note_on_c, 0, 74, 0
1, 1334060, Note_on_c, 0, 77, 82
1, 1334060, Note_on_c, 0, 82, 83
1, 1334081, Note_on_c, 0, 75, 0
1, 1334081, Note_on_c, 0, 82, 0
1, 1334328, Note_on_c, 0, 51, 0
1, 1334328, Note_on_c, 0, 48, 0
1, 1334328, Note_on_c, 0, 78, 75
1, 1334331, Note_on_c, 0, 56, 0
1, 1334331, Note_on_c, 0, 63, 53
1, 1334349, Note_on_c, 0, 77, 0
1, 1334595, Note_on_c, 0, 63, 0
1, 1334595, Note_on_c, 0, 80, 83
1, 1334595, Note_on_c, 0, 44, 61
1, 1334617, Note_on_c, 0, 82, 0
1, 1334617, Note_on_c, 0, 78, 0
1, 1334636, Control_c, 0, 64, 0
1, 1334636, Control_c, 0, 64, 0
1, 1334749, Control_c, 0, 64, 127
1, 1334749, Control_c, 0, 64, 127
1, 1334876, Note_on_c, 0, 84, 77
1, 1334876, Note_on_c, 0, 51, 42
1, 1334876, Note_on_c, 0, 54, 53
1, 1335125, Note_on_c, 0, 92, 81
1, 1335147, Note_on_c, 0, 84, 0
1, 1335406, Note_on_c, 0, 51, 0
1, 1335406, Note_on_c, 0, 44, 0
1, 1335406, Note_on_c, 0, 99, 86
1, 1335409, Note_on_c, 0, 54, 0
1, 1335409, Note_on_c, 0, 60, 53
1, 1335431, Note_on_c, 0, 92, 0
1, 1335672, Control_c, 0, 64, 0
1, 1335672, Control_c, 0, 64, 0
1, 1335727, Note_on_c, 0, 60, 0
1, 1335727, Note_on_c, 0, 101, 91
1, 1335727, Note_on_c, 0, 37, 60
1, 1335756, Note_on_c, 0, 80, 0
1, 1335756, Note_on_c, 0, 99, 0
1, 1335879, Control_c, 0, 64, 127
1, 1335879, Control_c, 0, 64, 127
1, 1336102, Note_on_c, 0, 94, 89
1, 1336102, Note_on_c, 0, 44, 56
1, 1336423, Note_on_c, 0, 101, 0
1, 1336423, Note_on_c, 0, 85, 65
1, 1336672, Note_on_c, 0, 37, 0
1, 1336672, Note_on_c, 0, 44, 0
1, 1336672, Note_on_c, 0, 92, 83
1, 1336675, Note_on_c, 0, 49, 57
1, 1336701, Note_on_c, 0, 94, 0
1, 1336922, Note_on_c, 0, 85, 0
1, 1336922, Note_on_c, 0, 97, 77
1, 1337171, Note_on_c, 0, 49, 0
1, 1337171, Note_on_c, 0, 90, 84
1, 1337171, Note_on_c, 0, 53, 59
1, 1337204, Note_on_c, 0, 92, 0
1, 1337452, Note_on_c, 0, 97, 0
1, 1337452, Note_on_c, 0, 80, 65
1, 1337686, Note_on_c, 0, 53, 0
1, 1337686, Note_on_c, 0, 89, 81
1, 1337686, Note_on_c, 0, 56, 60
1, 1337714, Note_on_c, 0, 90, 0
1, 1337920, Note_on_c, 0, 80, 0
1, 1337920, Note_on_c, 0, 92, 77
1, 1338154, Note_on_c, 0, 56, 0
1, 1338154, Note_on_c, 0, 87, 84
1, 1338154, Note_on_c, 0, 61, 62
1, 1338182, Note_on_c, 0, 89, 0
1, 1338388, Note_on_c, 0, 92, 0
1, 1338388, Note_on_c, 0, 77, 65
1, 1338622, Note_on_c, 0, 61, 0
1, 1338622, Note_on_c, 0, 85, 81
1, 1338622, Note_on_c, 0, 68, 63
1, 1338651, Note_on_c, 0, 87, 0
1, 1338872, Note_on_c, 0, 77, 0
1, 1338872, Note_on_c, 0, 68, 0
1, 1338872, Note_on_c, 0, 93, 83
1, 1338875, Note_on_c, 0, 53, 66
1, 1338921, Control_c, 0, 64, 0
1, 1338921, Control_c, 0, 64, 0
1, 1339153, Note_on_c, 0, 89, 84
1, 1339153, Note_on_c, 0, 60, 53
1, 1339182, Note_on_c, 0, 85, 0
1, 1339202, Control_c, 0, 64, 127
1, 1339202, Control_c, 0, 64, 127
1, 1339358, Control_c, 0, 64, 127
1, 1339358, Control_c, 0, 64, 127
1, 1339402, Note_on_c, 0, 93, 0
1, 1339402, Note_on_c, 0, 77, 65
1, 1339652, Note_on_c, 0, 60, 0
1, 1339652, Note_on_c, 0, 53, 0
1, 1339652, Note_on_c, 0, 87, 81
1, 1339655, Note_on_c, 0, 69, 54
1, 1339685, Note_on_c, 0, 89, 0
1, 1339836, Control_c, 0, 64, 127
1, 1339836, Control_c, 0, 64, 127
1, 1339933, Note_on_c, 0, 77, 0
1, 1339933, Note_on_c, 0, 87, 0
1, 1339933, Control_c, 0, 64, 127
1, 1339936, Note_on_c, 0, 69, 0
1, 1339936, Note_on_c, 0, 94, 83
1, 1339936, Control_c, 0, 64, 127
1, 1339939, Note_on_c, 0, 58, 60
1, 1340213, Note_on_c, 0, 87, 84
1, 1340213, Note_on_c, 0, 65, 50
1, 1340237, Control_c, 0, 64, 0
1, 1340237, Control_c, 0, 64, 0
1, 1340366, Control_c, 0, 64, 127
1, 1340366, Control_c, 0, 64, 127
1, 1340463, Note_on_c, 0, 94, 0
1, 1340463, Note_on_c, 0, 77, 65
1, 1340697, Note_on_c, 0, 58, 0
1, 1340697, Note_on_c, 0, 87, 0
1, 1340697, Note_on_c, 0, 85, 78
1, 1340700, Note_on_c, 0, 65, 0
1, 1340700, Note_on_c, 0, 70, 59
1, 1340931, Note_on_c, 0, 70, 0
1, 1340931, Note_on_c, 0, 77, 0
1, 1340931, Note_on_c, 0, 94, 77
1, 1340934, Note_on_c, 0, 58, 66
1, 1341195, Control_c, 0, 64, 127
1, 1341195, Control_c, 0, 64, 127
1, 1341212, Note_on_c, 0, 85, 0
1, 1341212, Note_on_c, 0, 89, 88
1, 1341212, Note_on_c, 0, 66, 56
1, 1341461, Note_on_c, 0, 94, 0
1, 1341461, Note_on_c, 0, 78, 58
1, 1341682, Control_c, 0, 64, 127
1, 1341682, Control_c, 0, 64, 127
1, 1341711, Note_on_c, 0, 58, 0
1, 1341711, Note_on_c, 0, 89, 0
1, 1341711, Note_on_c, 0, 87, 81
1, 1341714, Note_on_c, 0, 66, 0
1, 1341714, Note_on_c, 0, 75, 59
1, 1341961, Note_on_c, 0, 75, 0
1, 1341961, Note_on_c, 0, 78, 0
1, 1341961, Note_on_c, 0, 94, 77
1, 1341964, Note_on_c, 0, 58, 60
1, 1342210, Note_on_c, 0, 87, 0
1, 1342210, Note_on_c, 0, 87, 77
1, 1342210, Note_on_c, 0, 65, 50
1, 1342292, Control_c, 0, 64, 0
1, 1342292, Control_c, 0, 64, 0
1, 1342442, Control_c, 0, 64, 127
1, 1342442, Control_c, 0, 64, 127
1, 1342491, Note_on_c, 0, 94, 0
1, 1342491, Note_on_c, 0, 77, 58
1, 1342812, Note_on_c, 0, 58, 0
1, 1342812, Note_on_c, 0, 87, 0
1, 1342812, Note_on_c, 0, 85, 68
1, 1342815, Note_on_c, 0, 65, 0
1, 1342815, Note_on_c, 0, 73, 52
1, 1343133, Note_on_c, 0, 73, 0
1, 1343133, Note_on_c, 0, 77, 0
1, 1343133, Note_on_c, 0, 59, 55
1, 1343239, Note_on_c, 0, 61, 55
1, 1343341, Control_c, 0, 64, 127
1, 1343341, Control_c, 0, 64, 127
1, 1343347, Note_on_c, 0, 65, 55
1, 1343360, Control_c, 0, 64, 0
1, 1343360, Control_c, 0, 64, 0
1, 1343454, Note_on_c, 0, 85, 0
1, 1343454, Note_on_c, 0, 82, 86
1, 1343454, Note_on_c, 0, 70, 71
1, 1343536, Control_c, 0, 64, 127
1, 1343536, Control_c, 0, 64, 127
1, 1343734, Note_on_c, 0, 85, 73
1, 1343984, Note_on_c, 0, 85, 0
1, 1343984, Note_on_c, 0, 94, 87
1, 1344305, Note_on_c, 0, 94, 0
1, 1344305, Note_on_c, 0, 82, 0
1, 1344305, Note_on_c, 0, 92, 83
1, 1344308, Note_on_c, 0, 70, 0
1, 1344308, Note_on_c, 0, 80, 83
1, 1344308, Note_on_c, 0, 68, 60
1, 1344626, Note_on_c, 0, 80, 0
1, 1344626, Note_on_c, 0, 92, 0
1, 1344626, Control_c, 0, 64, 127
1, 1344629, Note_on_c, 0, 80, 77
1, 1344629, Note_on_c, 0, 92, 77
1, 1344629, Control_c, 0, 64, 127
1, 1344632, Note_on_c, 0, 59, 0
1, 1344632, Note_on_c, 0, 61, 0
1, 1344632, Note_on_c, 0, 68, 0
1, 1344635, Note_on_c, 0, 58, 55
1, 1344635, Note_on_c, 0, 61, 55
1, 1344635, Note_on_c, 0, 68, 69
1, 1344808, Control_c, 0, 64, 0
1, 1344808, Control_c, 0, 64, 0
1, 1344907, Note_on_c, 0, 90, 72
1, 1344926, Note_on_c, 0, 92, 0
1, 1344936, Control_c, 0, 64, 127
1, 1344936, Control_c, 0, 64, 127
1, 1345127, Control_c, 0, 64, 0
1, 1345127, Control_c, 0, 64, 0
1, 1345156, Note_on_c, 0, 65, 0
1, 1345156, Note_on_c, 0, 78, 64
1, 1345156, Note_on_c, 0, 66, 60
1, 1345176, Note_on_c, 0, 80, 0
1, 1345176, Note_on_c, 0, 68, 0
1, 1345304, Control_c, 0, 64, 127
1, 1345304, Control_c, 0, 64, 127
1, 1345406, Note_on_c, 0, 85, 70
1, 1345428, Note_on_c, 0, 90, 0
1, 1345687, Note_on_c, 0, 58, 0
1, 1345687, Note_on_c, 0, 78, 0
1, 1345687, Note_on_c, 0, 78, 77
1, 1345690, Note_on_c, 0, 66, 0
1, 1345690, Note_on_c, 0, 61, 0
1, 1345690, Note_on_c, 0, 56, 55
1, 1345693, Note_on_c, 0, 59, 55
1, 1345693, Note_on_c, 0, 62, 55
1, 1345693, Note_on_c, 0, 66, 69
1, 1345709, Note_on_c, 0, 85, 0
1, 1345753, Control_c, 0, 64, 127
1, 1345753, Control_c, 0, 64, 127
1, 1345785, Control_c, 0, 64, 0
1, 1345785, Control_c, 0, 64, 0
1, 1345918, Control_c, 0, 64, 127
1, 1345918, Control_c, 0, 64, 127
1, 1345967, Note_on_c, 0, 83, 77
1, 1346217, Note_on_c, 0, 90, 82
1, 1346242, Note_on_c, 0, 83, 0
1, 1346538, Note_on_c, 0, 89, 77
1, 1346538, Note_on_c, 0, 77, 68
1, 1346538, Note_on_c, 0, 65, 66
1, 1346562, Note_on_c, 0, 78, 0
1, 1346562, Note_on_c, 0, 90, 0
1, 1346562, Note_on_c, 0, 66, 0
1, 1346842, Note_on_c, 0, 77, 0
1, 1346842, Note_on_c, 0, 89, 0
1, 1346842, Note_on_c, 0, 89, 77
1, 1346845, Note_on_c, 0, 59, 0
1, 1346845, Note_on_c, 0, 56, 0
1, 1346845, Note_on_c, 0, 77, 77
1, 1346848, Note_on_c, 0, 65, 0
1, 1346848, Note_on_c, 0, 55, 55
1, 1346848, Note_on_c, 0, 58, 55
1, 1346851, Note_on_c, 0, 65, 69
1, 1346907, Control_c, 0, 64, 0
1, 1346907, Control_c, 0, 64, 127
1, 1346907, Control_c, 0, 64, 0
1, 1346910, Control_c, 0, 64, 127
1, 1347040, Control_c, 0, 64, 0
1, 1347040, Control_c, 0, 64, 0
1, 1347122, Note_on_c, 0, 87, 72
1, 1347142, Note_on_c, 0, 89, 0
1, 1347166, Control_c, 0, 64, 127
1, 1347166, Control_c, 0, 64, 127
1, 1347372, Note_on_c, 0, 62, 0
1, 1347372, Note_on_c, 0, 75, 61
1, 1347372, Note_on_c, 0, 63, 59
1, 1347391, Note_on_c, 0, 77, 0
1, 1347391, Note_on_c, 0, 65, 0
1, 1347622, Note_on_c, 0, 82, 70
1, 1347647, Note_on_c, 0, 87, 0
1, 1347942, Note_on_c, 0, 55, 0
1, 1347942, Note_on_c, 0, 58, 0
1, 1347942, Note_on_c, 0, 73, 77
1, 1347945, Note_on_c, 0, 58, 51
1, 1347945, Note_on_c, 0, 61, 51
1, 1347945, Note_on_c, 0, 67, 66
1, 1347948, Note_on_c, 0, 51, 51
1, 1347968, Note_on_c, 0, 75, 0
1, 1347968, Note_on_c, 0, 63, 0
1, 1347968, Note_on_c, 0, 82, 0
1, 1348018, Control_c, 0, 64, 0
1, 1348018, Control_c, 0, 64, 0
1, 1348226, Control_c, 0, 64, 127
1, 1348226, Control_c, 0, 64, 127
1, 1348263, Note_on_c, 0, 85, 83
1, 1348584, Note_on_c, 0, 84, 79
1, 1348584, Note_on_c, 0, 52, 51
1, 1348606, Note_on_c, 0, 85, 0
1, 1348606, Note_on_c, 0, 51, 0
1, 1348667, Control_c, 0, 64, 0
1, 1348667, Control_c, 0, 64, 0
1, 1348849, Control_c, 0, 64, 127
1, 1348849, Control_c, 0, 64, 127
1, 1348865, Note_on_c, 0, 82, 76
1, 1348887, Note_on_c, 0, 84, 0
1, 1349146, Note_on_c, 0, 80, 79
1, 1349146, Note_on_c, 0, 53, 55
1, 1349146, Note_on_c, 0, 56, 55
1, 1349149, Note_on_c, 0, 65, 55
1, 1349162, Control_c, 0, 64, 127
1, 1349162, Control_c, 0, 64, 127
1, 1349168, Note_on_c, 0, 67, 0
1, 1349168, Note_on_c, 0, 58, 0
1, 1349168, Note_on_c, 0, 82, 0
1, 1349171, Note_on_c, 0, 52, 0
1, 1349344, Control_c, 0, 64, 0
1, 1349344, Control_c, 0, 64, 0
1, 1349427, Note_on_c, 0, 68, 71
1, 1349446, Note_on_c, 0, 73, 0
1, 1349589, Control_c, 0, 64, 127
1, 1349589, Control_c, 0, 64, 127
1, 1349676, Note_on_c, 0, 73, 79
1, 1349696, Note_on_c, 0, 80, 0
1, 1349926, Note_on_c, 0, 53, 0
1, 1349926, Note_on_c, 0, 75, 79
1, 1349926, Note_on_c, 0, 70, 64
1, 1349929, Note_on_c, 0, 61, 0
1, 1349929, Note_on_c, 0, 65, 0
1, 1349929, Note_on_c, 0, 56, 0
1, 1349932, Note_on_c, 0, 54, 66
1, 1349932, Note_on_c, 0, 61, 54
1, 1349941, Control_c, 0, 64, 0
1, 1349941, Control_c, 0, 64, 0
1, 1349945, Note_on_c, 0, 68, 0
1, 1349945, Note_on_c, 0, 73, 0
1, 1350059, Control_c, 0, 64, 127
1, 1350059, Control_c, 0, 64, 127
1, 1350176, Note_on_c, 0, 54, 0
1, 1350176, Note_on_c, 0, 68, 58
1, 1350176, Note_on_c, 0, 77, 78
1, 1350179, Note_on_c, 0, 61, 0
1, 1350179, Note_on_c, 0, 56, 66
1, 1350179, Note_on_c, 0, 61, 54
1, 1350194, Note_on_c, 0, 75, 0
1, 1350194, Note_on_c, 0, 70, 0
1, 1350230, Control_c, 0, 64, 0
1, 1350230, Control_c, 0, 64, 0
1, 1350437, Control_c, 0, 64, 127
1, 1350437, Control_c, 0, 64, 127
1, 1350644, Note_on_c, 0, 68, 0
1, 1350644, Note_on_c, 0, 66, 55
1, 1350644, Note_on_c, 0, 68, 55
1, 1350647, Note_on_c, 0, 56, 0
1, 1350647, Note_on_c, 0, 61, 0
1, 1350647, Note_on_c, 0, 75, 73
1, 1350650, Note_on_c, 0, 56, 52
1, 1350650, Note_on_c, 0, 60, 63
1, 1350657, Control_c, 0, 64, 0
1, 1350657, Control_c, 0, 64, 0
1, 1350662, Note_on_c, 0, 77, 0
1, 1350850, Control_c, 0, 64, 127
1, 1350850, Control_c, 0, 64, 127
1, 1351112, Note_on_c, 0, 68, 0
1, 1351112, Note_on_c, 0, 65, 53
1, 1351112, Note_on_c, 0, 68, 53
1, 1351115, Note_on_c, 0, 56, 0
1, 1351115, Note_on_c, 0, 60, 0
1, 1351115, Note_on_c, 0, 73, 68
1, 1351118, Note_on_c, 0, 49, 61
1, 1351118, Note_on_c, 0, 56, 51
1, 1351118, Note_on_c, 0, 61, 51
1, 1351133, Note_on_c, 0, 75, 0
1, 1351133, Note_on_c, 0, 66, 0
1, 1351161, Control_c, 0, 64, 0
1, 1351161, Control_c, 0, 64, 0
1, 1351491, Control_c, 0, 64, 127
1, 1351491, Control_c, 0, 64, 127
1, 1351673, Note_on_c, 0, 68, 0
1, 1351673, Note_on_c, 0, 54, 49
1, 1351673, Note_on_c, 0, 58, 49
1, 1351676, Note_on_c, 0, 49, 0
1, 1351676, Note_on_c, 0, 56, 0
1, 1351676, Note_on_c, 0, 61, 70
1, 1351679, Note_on_c, 0, 61, 0
1, 1351679, Note_on_c, 0, 42, 58
1, 1351679, Note_on_c, 0, 49, 49
1, 1351698, Note_on_c, 0, 65, 0
1, 1351698, Note_on_c, 0, 73, 0
1, 1351824, Control_c, 0, 64, 0
1, 1351824, Control_c, 0, 64, 0
1, 1351994, Control_c, 0, 64, 127
1, 1351994, Control_c, 0, 64, 127
1, 1352315, Note_on_c, 0, 61, 0
1, 1352315, Note_on_c, 0, 53, 48
1, 1352315, Note_on_c, 0, 56, 48
1, 1352318, Note_on_c, 0, 49, 0
1, 1352318, Note_on_c, 0, 42, 0
1, 1352318, Note_on_c, 0, 61, 68
1, 1352321, Note_on_c, 0, 37, 56
1, 1352321, Note_on_c, 0, 49, 48
1, 1352340, Note_on_c, 0, 58, 0
1, 1352340, Note_on_c, 0, 54, 0
1, 1352409, Control_c, 0, 64, 0
1, 1352409, Control_c, 0, 64, 0
1, 1353599, Note_on_c, 0, 53, 0
1, 1353599, Note_on_c, 0, 56, 0
1, 1353599, Control_c, 0, 64, 127
1, 1353602, Note_on_c, 0, 61, 0
1, 1353602, Note_on_c, 0, 101, 90
1, 1353602, Control_c, 0, 64, 127
1, 1353605, Note_on_c, 0, 37, 0
1, 1353605, Note_on_c, 0, 49, 0
1, 1353605, Note_on_c, 0, 44, 66
1, 1353730, Control_c, 0, 64, 0
1, 1353730, Control_c, 0, 64, 0
1, 1353819, Control_c, 0, 64, 127
1, 1353819, Control_c, 0, 64, 127
1, 1353973, Note_on_c, 0, 99, 78
1, 1353973, Note_on_c, 0, 51, 46
1, 1353973, Note_on_c, 0, 54, 58
1, 1353994, Note_on_c, 0, 101, 0
1, 1354240, Note_on_c, 0, 96, 70
1, 1354260, Note_on_c, 0, 99, 0
1, 1354490, Note_on_c, 0, 51, 0
1, 1354490, Note_on_c, 0, 44, 0
1, 1354490, Note_on_c, 0, 87, 77
1, 1354493, Note_on_c, 0, 54, 0
1, 1354493, Note_on_c, 0, 60, 58
1, 1354510, Note_on_c, 0, 96, 0
1, 1354740, Note_on_c, 0, 60, 0
1, 1354740, Note_on_c, 0, 90, 86
1, 1354740, Note_on_c, 0, 45, 66
1, 1354759, Note_on_c, 0, 87, 0
1, 1354776, Control_c, 0, 64, 0
1, 1354776, Control_c, 0, 64, 0
1, 1354876, Control_c, 0, 64, 127
1, 1354876, Control_c, 0, 64, 127
1, 1354989, Note_on_c, 0, 87, 84
1, 1354989, Note_on_c, 0, 51, 46
1, 1354989, Note_on_c, 0, 54, 58
1, 1355008, Note_on_c, 0, 90, 0
1, 1355223, Note_on_c, 0, 83, 77
1, 1355242, Note_on_c, 0, 87, 0
1, 1355457, Note_on_c, 0, 51, 0
1, 1355457, Note_on_c, 0, 45, 0
1, 1355457, Note_on_c, 0, 84, 77
1, 1355460, Note_on_c, 0, 54, 0
1, 1355460, Note_on_c, 0, 60, 58
1, 1355476, Note_on_c, 0, 83, 0
1, 1355691, Note_on_c, 0, 60, 0
1, 1355691, Note_on_c, 0, 87, 85
1, 1355691, Note_on_c, 0, 46, 66
1, 1355710, Note_on_c, 0, 84, 0
1, 1355718, Control_c, 0, 64, 0
1, 1355718, Control_c, 0, 64, 0
1, 1355813, Control_c, 0, 64, 127
1, 1355813, Control_c, 0, 64, 127
1, 1355925, Note_on_c, 0, 85, 85
1, 1355925, Note_on_c, 0, 49, 46
1, 1355925, Note_on_c, 0, 55, 58
1, 1355944, Note_on_c, 0, 87, 0
1, 1356159, Note_on_c, 0, 82, 83
1, 1356178, Note_on_c, 0, 85, 0
1, 1356393, Note_on_c, 0, 49, 0
1, 1356393, Note_on_c, 0, 46, 0
1, 1356393, Note_on_c, 0, 79, 77
1, 1356396, Note_on_c, 0, 55, 0
1, 1356396, Note_on_c, 0, 61, 58
1, 1356412, Note_on_c, 0, 82, 0
1, 1356627, Note_on_c, 0, 61, 0
1, 1356627, Note_on_c, 0, 82, 77
1, 1356627, Note_on_c, 0, 48, 66
1, 1356647, Note_on_c, 0, 79, 0
1, 1356663, Control_c, 0, 64, 0
1, 1356663, Control_c, 0, 64, 0
1, 1356764, Control_c, 0, 64, 127
1, 1356764, Control_c, 0, 64, 127
1, 1356877, Note_on_c, 0, 80, 77
1, 1356877, Note_on_c, 0, 51, 46
1, 1356877, Note_on_c, 0, 56, 58
1, 1356895, Note_on_c, 0, 82, 0
1, 1357111, Note_on_c, 0, 74, 72
1, 1357130, Note_on_c, 0, 80, 0
1, 1357360, Note_on_c, 0, 51, 0
1, 1357360, Note_on_c, 0, 48, 0
1, 1357360, Note_on_c, 0, 75, 68
1, 1357363, Note_on_c, 0, 56, 0
1, 1357363, Note_on_c, 0, 63, 58
1, 1357382, Note_on_c, 0, 74, 0
1, 1357510, Control_c, 0, 64, 127
1, 1357510, Control_c, 0, 64, 127
1, 1357641, Control_c, 0, 64, 127
1, 1357641, Note_on_c, 0, 94, 90
1, 1357641, Control_c, 0, 64, 127
1, 1357644, Note_on_c, 0, 63, 0
1, 1357644, Note_on_c, 0, 49, 66
1, 1357670, Note_on_c, 0, 75, 0
1, 1357751, Control_c, 0, 64, 0
1, 1357751, Control_c, 0, 64, 0
1, 1357928, Control_c, 0, 64, 127
1, 1357928, Control_c, 0, 64, 127
1, 1358016, Note_on_c, 0, 92, 84
1, 1358016, Note_on_c, 0, 56, 47
1, 1358016, Note_on_c, 0, 59, 58
1, 1358035, Note_on_c, 0, 94, 0
1, 1358265, Note_on_c, 0, 89, 80
1, 1358284, Note_on_c, 0, 92, 0
1, 1358499, Note_on_c, 0, 56, 0
1, 1358499, Note_on_c, 0, 49, 0
1, 1358499, Note_on_c, 0, 80, 77
1, 1358502, Note_on_c, 0, 59, 0
1, 1358502, Note_on_c, 0, 65, 58
1, 1358518, Note_on_c, 0, 89, 0
1, 1358733, Note_on_c, 0, 65, 0
1, 1358733, Note_on_c, 0, 83, 83
1, 1358733, Note_on_c, 0, 50, 66
1, 1358752, Note_on_c, 0, 80, 0
1, 1358767, Control_c, 0, 64, 0
1, 1358767, Control_c, 0, 64, 0
1, 1358861, Control_c, 0, 64, 127
1, 1358861, Control_c, 0, 64, 127
1, 1358967, Note_on_c, 0, 80, 84
1, 1358967, Note_on_c, 0, 56, 55
1, 1358967, Note_on_c, 0, 59, 58
1, 1358986, Note_on_c, 0, 83, 0
1, 1359201, Note_on_c, 0, 76, 77
1, 1359220, Note_on_c, 0, 80, 0
1, 1359435, Note_on_c, 0, 56, 0
1, 1359435, Note_on_c, 0, 50, 0
1, 1359435, Note_on_c, 0, 77, 77
1, 1359438, Note_on_c, 0, 59, 0
1, 1359438, Note_on_c, 0, 65, 58
1, 1359454, Note_on_c, 0, 76, 0
1, 1359669, Note_on_c, 0, 65, 0
1, 1359669, Note_on_c, 0, 80, 83
1, 1359669, Note_on_c, 0, 51, 66
1, 1359688, Note_on_c, 0, 77, 0
1, 1359696, Control_c, 0, 64, 0
1, 1359696, Control_c, 0, 64, 0
1, 1359791, Control_c, 0, 64, 127
1, 1359791, Control_c, 0, 64, 127
1, 1359903, Note_on_c, 0, 78, 80
1, 1359903, Note_on_c, 0, 54, 47
1, 1359903, Note_on_c, 0, 60, 58
1, 1359922, Note_on_c, 0, 80, 0
1, 1360137, Note_on_c, 0, 75, 78
1, 1360156, Note_on_c, 0, 78, 0
1, 1360371, Note_on_c, 0, 54, 0
1, 1360371, Note_on_c, 0, 51, 0
1, 1360371, Note_on_c, 0, 72, 72
1, 1360374, Note_on_c, 0, 60, 0
1, 1360374, Note_on_c, 0, 66, 58
1, 1360390, Note_on_c, 0, 75, 0
1, 1360605, Note_on_c, 0, 66, 0
1, 1360605, Note_on_c, 0, 75, 72
1, 1360605, Note_on_c, 0, 53, 66
1, 1360627, Note_on_c, 0, 72, 0
1, 1360646, Control_c, 0, 64, 0
1, 1360646, Control_c, 0, 64, 0
1, 1360759, Control_c, 0, 64, 127
1, 1360759, Control_c, 0, 64, 127
1, 1360886, Note_on_c, 0, 73, 72
1, 1360886, Note_on_c, 0, 56, 47
1, 1360886, Note_on_c, 0, 61, 58
1, 1360906, Note_on_c, 0, 75, 0
1, 1361136, Note_on_c, 0, 67, 67
1, 1361157, Note_on_c, 0, 73, 0
1, 1361403, Note_on_c, 0, 56, 0
1, 1361403, Note_on_c, 0, 53, 0
1, 1361403, Note_on_c, 0, 68, 63
1, 1361406, Note_on_c, 0, 61, 0
1, 1361406, Note_on_c, 0, 68, 58
1, 1361424, Note_on_c, 0, 67, 0
1, 1361625, Control_c, 0, 64, 0
1, 1361625, Control_c, 0, 64, 0
1, 1361670, Note_on_c, 0, 68, 0
1, 1361670, Note_on_c, 0, 69, 62
1, 1361670, Note_on_c, 0, 54, 60
1, 1361692, Note_on_c, 0, 68, 0
1, 1361783, Control_c, 0, 64, 127
1, 1361783, Control_c, 0, 64, 127
1, 1361951, Note_on_c, 0, 70, 65
1, 1361951, Note_on_c, 0, 58, 41
1, 1361951, Note_on_c, 0, 63, 52
1, 1361970, Note_on_c, 0, 69, 0
1, 1362185, Note_on_c, 0, 72, 66
1, 1362185, Note_on_c, 0, 82, 85
1, 1362204, Note_on_c, 0, 70, 0
1, 1362419, Note_on_c, 0, 58, 0
1, 1362419, Note_on_c, 0, 54, 0
1, 1362419, Note_on_c, 0, 73, 68
1, 1362422, Note_on_c, 0, 63, 0
1, 1362422, Note_on_c, 0, 70, 52
1, 1362439, Note_on_c, 0, 72, 0
1, 1362669, Note_on_c, 0, 70, 0
1, 1362669, Note_on_c, 0, 74, 58
1, 1362669, Note_on_c, 0, 84, 87
1, 1362672, Note_on_c, 0, 48, 60
1, 1362688, Note_on_c, 0, 82, 0
1, 1362688, Note_on_c, 0, 73, 0
1, 1362705, Control_c, 0, 64, 0
1, 1362705, Control_c, 0, 64, 0
1, 1362786, Control_c, 0, 64, 0
1, 1362786, Control_c, 0, 64, 0
1, 1362918, Note_on_c, 0, 75, 67
1, 1362918, Note_on_c, 0, 54, 49
1, 1362918, Note_on_c, 0, 58, 52
1, 1362932, Control_c, 0, 64, 127
1, 1362932, Control_c, 0, 64, 127
1, 1362937, Note_on_c, 0, 74, 0
1, 1363152, Note_on_c, 0, 77, 68
1, 1363171, Note_on_c, 0, 75, 0
1, 1363386, Note_on_c, 0, 48, 0
1, 1363386, Note_on_c, 0, 78, 64
1, 1363386, Note_on_c, 0, 82, 80
1, 1363389, Note_on_c, 0, 54, 0
1, 1363389, Note_on_c, 0, 58, 0
1, 1363389, Note_on_c, 0, 66, 52
1, 1363405, Note_on_c, 0, 77, 0
1, 1363405, Note_on_c, 0, 84, 0
1, 1363620, Note_on_c, 0, 66, 0
1, 1363620, Note_on_c, 0, 67, 63
1, 1363620, Note_on_c, 0, 53, 60
1, 1363639, Note_on_c, 0, 82, 0
1, 1363639, Note_on_c, 0, 78, 0
1, 1363647, Control_c, 0, 64, 0
1, 1363647, Control_c, 0, 64, 0
1, 1363742, Control_c, 0, 64, 127
1, 1363742, Control_c, 0, 64, 127
1, 1363854, Note_on_c, 0, 68, 64
1, 1363854, Note_on_c, 0, 56, 41
1, 1363854, Note_on_c, 0, 60, 52
1, 1363873, Note_on_c, 0, 67, 0
1, 1364088, Note_on_c, 0, 71, 65
1, 1364088, Note_on_c, 0, 80, 81
1, 1364107, Note_on_c, 0, 68, 0
1, 1364322, Note_on_c, 0, 56, 0
1, 1364322, Note_on_c, 0, 53, 0
1, 1364322, Note_on_c, 0, 72, 66
1, 1364325, Note_on_c, 0, 60, 0
1, 1364325, Note_on_c, 0, 68, 52
1, 1364341, Note_on_c, 0, 71, 0
1, 1364556, Note_on_c, 0, 68, 0
1, 1364556, Note_on_c, 0, 73, 66
1, 1364556, Note_on_c, 0, 82, 87
1, 1364559, Note_on_c, 0, 46, 60
1, 1364576, Note_on_c, 0, 80, 0
1, 1364576, Note_on_c, 0, 72, 0
1, 1364593, Control_c, 0, 64, 0
1, 1364593, Control_c, 0, 64, 0
1, 1364644, Control_c, 0, 64, 0
1, 1364644, Control_c, 0, 64, 0
1, 1364762, Control_c, 0, 64, 127
1, 1364762, Control_c, 0, 64, 127
1, 1364806, Note_on_c, 0, 74, 67
1, 1364806, Note_on_c, 0, 53, 41
1, 1364806, Note_on_c, 0, 56, 52
1, 1364824, Note_on_c, 0, 73, 0
1, 1365040, Note_on_c, 0, 76, 68
1, 1365058, Note_on_c, 0, 74, 0
1, 1365274, Note_on_c, 0, 46, 0
1, 1365274, Note_on_c, 0, 77, 69
1, 1365274, Note_on_c, 0, 80, 77
1, 1365277, Note_on_c, 0, 53, 0
1, 1365277, Note_on_c, 0, 56, 0
1, 1365277, Note_on_c, 0, 62, 52
1, 1365294, Note_on_c, 0, 76, 0
1, 1365294, Note_on_c, 0, 82, 0
1, 1365481, Control_c, 0, 64, 0
1, 1365481, Control_c, 0, 64, 0
1, 1365524, Note_on_c, 0, 62, 0
1, 1365524, Note_on_c, 0, 65, 60
1, 1365524, Note_on_c, 0, 51, 58
1, 1365543, Note_on_c, 0, 80, 0
1, 1365543, Note_on_c, 0, 77, 0
1, 1365624, Control_c, 0, 64, 127
1, 1365624, Control_c, 0, 64, 127
1, 1365773, Note_on_c, 0, 66, 63
1, 1365773, Note_on_c, 0, 54, 41
1, 1365773, Note_on_c, 0, 58, 52
1, 1365792, Note_on_c, 0, 65, 0
1, 1366007, Note_on_c, 0, 69, 64
1, 1366007, Note_on_c, 0, 78, 83
1, 1366026, Note_on_c, 0, 66, 0
1, 1366241, Note_on_c, 0, 54, 0
1, 1366241, Note_on_c, 0, 51, 0
1, 1366241, Note_on_c, 0, 70, 68
1, 1366244, Note_on_c, 0, 58, 0
1, 1366244, Note_on_c, 0, 66, 54
1, 1366260, Note_on_c, 0, 69, 0
1, 1366475, Note_on_c, 0, 66, 0
1, 1366475, Note_on_c, 0, 69, 70
1, 1366475, Note_on_c, 0, 49, 64
1, 1366494, Note_on_c, 0, 70, 0
1, 1366509, Control_c, 0, 64, 0
1, 1366509, Control_c, 0, 64, 0
1, 1366603, Control_c, 0, 64, 127
1, 1366603, Control_c, 0, 64, 127
1, 1366709, Note_on_c, 0, 70, 73
1, 1366709, Note_on_c, 0, 52, 54
1, 1366709, Note_on_c, 0, 55, 57
1, 1366728, Note_on_c, 0, 69, 0
1, 1366943, Note_on_c, 0, 72, 76
1, 1366943, Note_on_c, 0, 82, 83
1, 1366962, Note_on_c, 0, 70, 0
1, 1366962, Note_on_c, 0, 78, 0
1, 1367177, Note_on_c, 0, 52, 0
1, 1367177, Note_on_c, 0, 49, 0
1, 1367177, Note_on_c, 0, 73, 79
1, 1367180, Note_on_c, 0, 55, 0
1, 1367180, Note_on_c, 0, 64, 59
1, 1367196, Note_on_c, 0, 72, 0
1, 1367411, Note_on_c, 0, 64, 0
1, 1367411, Note_on_c, 0, 74, 82
1, 1367411, Note_on_c, 0, 48, 71
1, 1367435, Note_on_c, 0, 73, 0
1, 1367446, Control_c, 0, 64, 0
1, 1367446, Control_c, 0, 64, 0
1, 1367569, Control_c, 0, 64, 127
1, 1367569, Control_c, 0, 64, 127
1, 1367715, Note_on_c, 0, 75, 83
1, 1367715, Note_on_c, 0, 51, 49
1, 1367715, Note_on_c, 0, 56, 56
1, 1367736, Note_on_c, 0, 74, 0
1, 1367982, Note_on_c, 0, 77, 82
1, 1367982, Note_on_c, 0, 82, 83
1, 1368003, Note_on_c, 0, 75, 0
1, 1368003, Note_on_c, 0, 82, 0
1, 1368250, Note_on_c, 0, 51, 0
1, 1368250, Note_on_c, 0, 48, 0
1, 1368250, Note_on_c, 0, 78, 75
1, 1368253, Note_on_c, 0, 56, 0
1, 1368253, Note_on_c, 0, 63, 53
1, 1368271, Note_on_c, 0, 77, 0
1, 1368517, Note_on_c, 0, 63, 0
1, 1368517, Note_on_c, 0, 80, 83
1, 1368517, Note_on_c, 0, 44, 61
1, 1368539, Note_on_c, 0, 82, 0
1, 1368539, Note_on_c, 0, 78, 0
1, 1368558, Control_c, 0, 64, 0
1, 1368558, Control_c, 0, 64, 0
1, 1368671, Control_c, 0, 64, 127
1, 1368671, Control_c, 0, 64, 127
1, 1368798, Note_on_c, 0, 84, 77
1, 1368798, Note_on_c, 0, 51, 42
1, 1368798, Note_on_c, 0, 54, 53
1, 1369048, Note_on_c, 0, 92, 81
1, 1369069, Note_on_c, 0, 84, 0
1, 1369328, Note_on_c, 0, 51, 0
1, 1369328, Note_on_c, 0, 44, 0
1, 1369328, Note_on_c, 0, 99, 86
1, 1369331, Note_on_c, 0, 54, 0
1, 1369331, Note_on_c, 0, 60, 53
1, 1369353, Note_on_c, 0, 92, 0
1, 1369594, Control_c, 0, 64, 0
1, 1369594, Control_c, 0, 64, 0
1, 1369649, Note_on_c, 0, 60, 0
1, 1369649, Note_on_c, 0, 101, 91
1, 1369649, Note_on_c, 0, 37, 60
1, 1369679, Note_on_c, 0, 80, 0
1, 1369679, Note_on_c, 0, 99, 0
1, 1369801, Control_c, 0, 64, 127
1, 1369801, Control_c, 0, 64, 127
1, 1370024, Note_on_c, 0, 94, 89
1, 1370024, Note_on_c, 0, 44, 56
1, 1370345, Note_on_c, 0, 101, 0
1, 1370345, Note_on_c, 0, 85, 65
1, 1370594, Note_on_c, 0, 37, 0
1, 1370594, Note_on_c, 0, 44, 0
1, 1370594, Note_on_c, 0, 92, 83
1, 1370597, Note_on_c, 0, 49, 57
1, 1370623, Note_on_c, 0, 94, 0
1, 1370844, Note_on_c, 0, 85, 0
1, 1370844, Note_on_c, 0, 97, 77
1, 1371093, Note_on_c, 0, 49, 0
1, 1371093, Note_on_c, 0, 90, 84
1, 1371093, Note_on_c, 0, 53, 59
1, 1371126, Note_on_c, 0, 92, 0
1, 1371374, Note_on_c, 0, 97, 0
1, 1371374, Note_on_c, 0, 80, 65
1, 1371608, Note_on_c, 0, 53, 0
1, 1371608, Note_on_c, 0, 89, 81
1, 1371608, Note_on_c, 0, 56, 60
1, 1371636, Note_on_c, 0, 90, 0
1, 1371842, Note_on_c, 0, 80, 0
1, 1371842, Note_on_c, 0, 92, 77
1, 1372076, Note_on_c, 0, 56, 0
1, 1372076, Note_on_c, 0, 87, 84
1, 1372076, Note_on_c, 0, 61, 62
1, 1372104, Note_on_c, 0, 89, 0
1, 1372310, Note_on_c, 0, 92, 0
1, 1372310, Note_on_c, 0, 77, 65
1, 1372544, Note_on_c, 0, 61, 0
1, 1372544, Note_on_c, 0, 85, 81
1, 1372544, Note_on_c, 0, 68, 63
1, 1372573, Note_on_c, 0, 87, 0
1, 1372794, Note_on_c, 0, 77, 0
1, 1372794, Note_on_c, 0, 68, 0
1, 1372794, Note_on_c, 0, 93, 83
1, 1372797, Note_on_c, 0, 53, 66
1, 1372843, Control_c, 0, 64, 0
1, 1372843, Control_c, 0, 64, 0
1, 1373075, Note_on_c, 0, 89, 84
1, 1373075, Note_on_c, 0, 60, 53
1, 1373104, Note_on_c, 0, 85, 0
1, 1373124, Control_c, 0, 64, 127
1, 1373124, Control_c, 0, 64, 127
1, 1373280, Control_c, 0, 64, 127
1, 1373280, Control_c, 0, 64, 127
1, 1373324, Note_on_c, 0, 93, 0
1, 1373324, Note_on_c, 0, 77, 65
1, 1373574, Note_on_c, 0, 60, 0
1, 1373574, Note_on_c, 0, 53, 0
1, 1373574, Note_on_c, 0, 87, 81
1, 1373577, Note_on_c, 0, 69, 54
1, 1373607, Note_on_c, 0, 89, 0
1, 1373758, Control_c, 0, 64, 127
1, 1373758, Control_c, 0, 64, 127
1, 1373855, Note_on_c, 0, 77, 0
1, 1373855, Note_on_c, 0, 87, 0
1, 1373855, Control_c, 0, 64, 127
1, 1373858, Note_on_c, 0, 69, 0
1, 1373858, Note_on_c, 0, 94, 83
1, 1373858, Control_c, 0, 64, 127
1, 1373861, Note_on_c, 0, 58, 60
1, 1374135, Note_on_c, 0, 87, 84
1, 1374135, Note_on_c, 0, 65, 50
1, 1374159, Control_c, 0, 64, 0
1, 1374159, Control_c, 0, 64, 0
1, 1374288, Control_c, 0, 64, 127
1, 1374288, Control_c, 0, 64, 127
1, 1374385, Note_on_c, 0, 94, 0
1, 1374385, Note_on_c, 0, 77, 65
1, 1374619, Note_on_c, 0, 58, 0
1, 1374619, Note_on_c, 0, 87, 0
1, 1374619, Note_on_c, 0, 85, 78
1, 1374622, Note_on_c, 0, 65, 0
1, 1374622, Note_on_c, 0, 70, 59
1, 1374853, Note_on_c, 0, 70, 0
1, 1374853, Note_on_c, 0, 77, 0
1, 1374853, Note_on_c, 0, 94, 77
1, 1374856, Note_on_c, 0, 58, 66
1, 1375117, Control_c, 0, 64, 127
1, 1375117, Control_c, 0, 64, 127
1, 1375134, Note_on_c, 0, 85, 0
1, 1375134, Note_on_c, 0, 89, 88
1, 1375134, Note_on_c, 0, 66, 56
1, 1375383, Note_on_c, 0, 94, 0
1, 1375383, Note_on_c, 0, 78, 58
1, 1375604, Control_c, 0, 64, 127
1, 1375604, Control_c, 0, 64, 127
1, 1375633, Note_on_c, 0, 58, 0
1, 1375633, Note_on_c, 0, 89, 0
1, 1375633, Note_on_c, 0, 87, 81
1, 1375636, Note_on_c, 0, 66, 0
1, 1375636, Note_on_c, 0, 75, 59
1, 1375883, Note_on_c, 0, 75, 0
1, 1375883, Note_on_c, 0, 78, 0
1, 1375883, Note_on_c, 0, 94, 77
1, 1375886, Note_on_c, 0, 58, 60
1, 1376132, Note_on_c, 0, 87, 0
1, 1376132, Note_on_c, 0, 87, 77
1, 1376132, Note_on_c, 0, 65, 50
1, 1376214, Control_c, 0, 64, 0
1, 1376214, Control_c, 0, 64, 0
1, 1376364, Control_c, 0, 64, 127
1, 1376364, Control_c, 0, 64, 127
1, 1376413, Note_on_c, 0, 94, 0
1, 1376413, Note_on_c, 0, 77, 58
1, 1376734, Note_on_c, 0, 58, 0
1, 1376734, Note_on_c, 0, 87, 0
1, 1376734, Note_on_c, 0, 85, 68
1, 1376737, Note_on_c, 0, 65, 0
1, 1376737, Note_on_c, 0, 73, 52
1, 1377055, Note_on_c, 0, 73, 0
1, 1377055, Note_on_c, 0, 77, 0
1, 1377055, Note_on_c, 0, 59, 55
1, 1377161, Note_on_c, 0, 61, 55
1, 1377263, Control_c, 0, 64, 127
1, 1377263, Control_c, 0, 64, 127
1, 1377269, Note_on_c, 0, 65, 55
1, 1377282, Control_c, 0, 64, 0
1, 1377282, Control_c, 0, 64, 0
1, 1377376, Note_on_c, 0, 85, 0
1, 1377376, Note_on_c, 0, 82, 86
1, 1377376, Note_on_c, 0, 70, 71
1, 1377458, Control_c, 0, 64, 127
1, 1377458, Control_c, 0, 64, 127
1, 1377657, Note_on_c, 0, 85, 73
1, 1377906, Note_on_c, 0, 85, 0
1, 1377906, Note_on_c, 0, 94, 87
1, 1378227, Note_on_c, 0, 94, 0
1, 1378227, Note_on_c, 0, 82, 0
1, 1378227, Note_on_c, 0, 92, 83
1, 1378230, Note_on_c, 0, 70, 0
1, 1378230, Note_on_c, 0, 80, 83
1, 1378230, Note_on_c, 0, 68, 60
1, 1378548, Note_on_c, 0, 80, 0
1, 1378548, Note_on_c, 0, 92, 0
1, 1378548, Control_c, 0, 64, 127
1, 1378551, Note_on_c, 0, 80, 77
1, 1378551, Note_on_c, 0, 92, 77
1, 1378551, Control_c, 0, 64, 127
1, 1378554, Note_on_c, 0, 59, 0
1, 1378554, Note_on_c, 0, 61, 0
1, 1378554, Note_on_c, 0, 68, 0
1, 1378557, Note_on_c, 0, 58, 55
1, 1378557, Note_on_c, 0, 61, 55
1, 1378557, Note_on_c, 0, 68, 69
1, 1378730, Control_c, 0, 64, 0
1, 1378730, Control_c, 0, 64, 0
1, 1378829, Note_on_c, 0, 90, 72
1, 1378848, Note_on_c, 0, 92, 0
1, 1378858, Control_c, 0, 64, 127
1, 1378858, Control_c, 0, 64, 127
1, 1379049, Control_c, 0, 64, 0
1, 1379049, Control_c, 0, 64, 0
1, 1379078, Note_on_c, 0, 65, 0
1, 1379078, Note_on_c, 0, 78, 64
1, 1379078, Note_on_c, 0, 66, 60
1, 1379098, Note_on_c, 0, 80, 0
1, 1379098, Note_on_c, 0, 68, 0
1, 1379226, Control_c, 0, 64, 127
1, 1379226, Control_c, 0, 64, 127
1, 1379328, Note_on_c, 0, 85, 70
1, 1379350, Note_on_c, 0, 90, 0
1, 1379609, Note_on_c, 0, 58, 0
1, 1379609, Note_on_c, 0, 78, 0
1, 1379609, Note_on_c, 0, 78, 77
1, 1379612, Note_on_c, 0, 66, 0
1, 1379612, Note_on_c, 0, 61, 0
1, 1379612, Note_on_c, 0, 56, 55
1, 1379615, Note_on_c, 0, 59, 55
1, 1379615, Note_on_c, 0, 62, 55
1, 1379615, Note_on_c, 0, 66, 69
1, 1379631, Note_on_c, 0, 85, 0
1, 1379675, Control_c, 0, 64, 127
1, 1379675, Control_c, 0, 64, 127
1, 1379707, Control_c, 0, 64, 0
1, 1379707, Control_c, 0, 64, 0
1, 1379840, Control_c, 0, 64, 127
1, 1379840, Control_c, 0, 64, 127
1, 1379890, Note_on_c, 0, 83, 77
1, 1380139, Note_on_c, 0, 90, 82
1, 1380164, Note_on_c, 0, 83, 0
1, 1380460, Note_on_c, 0, 89, 77
1, 1380460, Note_on_c, 0, 77, 68
1, 1380460, Note_on_c, 0, 65, 66
1, 1380484, Note_on_c, 0, 78, 0
1, 1380484, Note_on_c, 0, 90, 0
1, 1380484, Note_on_c, 0, 66, 0
1, 1380764, Note_on_c, 0, 77, 0
1, 1380764, Note_on_c, 0, 89, 0
1, 1380764, Note_on_c, 0, 89, 77
1, 1380767, Note_on_c, 0, 59, 0
1, 1380767, Note_on_c, 0, 56, 0
1, 1380767, Note_on_c, 0, 77, 77
1, 1380770, Note_on_c, 0, 65, 0
1, 1380770, Note_on_c, 0, 55, 55
1, 1380770, Note_on_c, 0, 58, 55
1, 1380773, Note_on_c, 0, 65, 69
1, 1380829, Control_c, 0, 64, 0
1, 1380829, Control_c, 0, 64, 127
1, 1380829, Control_c, 0, 64, 0
1, 1380832, Control_c, 0, 64, 127
1, 1380962, Control_c, 0, 64, 0
1, 1380962, Control_c, 0, 64, 0
1, 1381044, Note_on_c, 0, 87, 72
1, 1381064, Note_on_c, 0, 89, 0
1, 1381088, Control_c, 0, 64, 127
1, 1381088, Control_c, 0, 64, 127
1, 1381294, Note_on_c, 0, 62, 0
1, 1381294, Note_on_c, 0, 75, 61
1, 1381294, Note_on_c, 0, 63, 59
1, 1381314, Note_on_c, 0, 77, 0
1, 1381314, Note_on_c, 0, 65, 0
1, 1381544, Note_on_c, 0, 82, 70
1, 1381569, Note_on_c, 0, 87, 0
1, 1381865, Note_on_c, 0, 55, 0
1, 1381865, Note_on_c, 0, 58, 0
1, 1381865, Note_on_c, 0, 73, 77
1, 1381868, Note_on_c, 0, 58, 51
1, 1381868, Note_on_c, 0, 61, 51
1, 1381868, Note_on_c, 0, 67, 66
1, 1381871, Note_on_c, 0, 51, 51
1, 1381890, Note_on_c, 0, 75, 0
1, 1381890, Note_on_c, 0, 63, 0
1, 1381890, Note_on_c, 0, 82, 0
1, 1381940, Control_c, 0, 64, 0
1, 1381940, Control_c, 0, 64, 0
1, 1382148, Control_c, 0, 64, 127
1, 1382148, Control_c, 0, 64, 127
1, 1382185, Note_on_c, 0, 85, 83
1, 1382506, Note_on_c, 0, 84, 79
1, 1382506, Note_on_c, 0, 52, 51
1, 1382528, Note_on_c, 0, 85, 0
1, 1382528, Note_on_c, 0, 51, 0
1, 1382589, Control_c, 0, 64, 0
1, 1382589, Control_c, 0, 64, 0
1, 1382771, Control_c, 0, 64, 127
1, 1382771, Control_c, 0, 64, 127
1, 1382787, Note_on_c, 0, 82, 76
1, 1382809, Note_on_c, 0, 84, 0
1, 1383068, Note_on_c, 0, 73, 0
1, 1383068, Note_on_c, 0, 73, 40
1, 1383068, Note_on_c, 0, 80, 77
1, 1383071, Note_on_c, 0, 61, 0
1, 1383071, Note_on_c, 0, 53, 55
1, 1383071, Note_on_c, 0, 56, 55
1, 1383074, Note_on_c, 0, 61, 40
1, 1383074, Note_on_c, 0, 65, 55
1, 1383084, Control_c, 0, 64, 127
1, 1383084, Control_c, 0, 64, 127
1, 1383084, Control_c, 0, 64, 127
1, 1383087, Control_c, 0, 64, 127
1, 1383090, Note_on_c, 0, 82, 0
1, 1383090, Note_on_c, 0, 67, 0
1, 1383090, Note_on_c, 0, 58, 0
1, 1383093, Note_on_c, 0, 52, 0
1, 1383266, Control_c, 0, 64, 0
1, 1383266, Control_c, 0, 64, 0
1, 1383266, Control_c, 0, 64, 0
1, 1383269, Control_c, 0, 64, 0
1, 1383349, Note_on_c, 0, 68, 67
1, 1383368, Note_on_c, 0, 73, 0
1, 1383511, Control_c, 0, 64, 127
1, 1383511, Control_c, 0, 64, 127
1, 1383511, Control_c, 0, 64, 127
1, 1383514, Control_c, 0, 64, 127
1, 1383598, Note_on_c, 0, 80, 0
1, 1383598, Note_on_c, 0, 73, 77
1, 1383848, Note_on_c, 0, 73, 0
1, 1383848, Note_on_c, 0, 68, 0
1, 1383848, Note_on_c, 0, 70, 65
1, 1383851, Note_on_c, 0, 53, 0
1, 1383851, Note_on_c, 0, 56, 0
1, 1383851, Note_on_c, 0, 75, 77
1, 1383854, Note_on_c, 0, 65, 0
1, 1383854, Note_on_c, 0, 61, 0
1, 1383854, Note_on_c, 0, 54, 66
1, 1383857, Note_on_c, 0, 61, 54
1, 1383863, Control_c, 0, 64, 0
1, 1383863, Control_c, 0, 64, 0
1, 1383863, Control_c, 0, 64, 0
1, 1383866, Control_c, 0, 64, 0
1, 1383981, Control_c, 0, 64, 127
1, 1383981, Control_c, 0, 64, 127
1, 1383981, Control_c, 0, 64, 127
1, 1383984, Control_c, 0, 64, 127
1, 1384098, Note_on_c, 0, 75, 0
1, 1384098, Note_on_c, 0, 68, 58
1, 1384098, Note_on_c, 0, 77, 83
1, 1384101, Note_on_c, 0, 61, 0
1, 1384101, Note_on_c, 0, 54, 0
1, 1384101, Note_on_c, 0, 56, 66
1, 1384104, Note_on_c, 0, 61, 54
1, 1384116, Note_on_c, 0, 70, 0
1, 1384152, Control_c, 0, 64, 0
1, 1384152, Control_c, 0, 64, 0
1, 1384152, Control_c, 0, 64, 0
1, 1384155, Control_c, 0, 64, 0
1, 1384359, Control_c, 0, 64, 127
1, 1384359, Control_c, 0, 64, 127
1, 1384359, Control_c, 0, 64, 127
1, 1384362, Control_c, 0, 64, 127
1, 1384566, Note_on_c, 0, 68, 0
1, 1384566, Note_on_c, 0, 66, 57
1, 1384566, Note_on_c, 0, 68, 57
1, 1384569, Note_on_c, 0, 56, 0
1, 1384569, Note_on_c, 0, 61, 0
1, 1384569, Note_on_c, 0, 75, 77
1, 1384572, Note_on_c, 0, 56, 52
1, 1384572, Note_on_c, 0, 60, 63
1, 1384579, Control_c, 0, 64, 0
1, 1384579, Control_c, 0, 64, 0
1, 1384579, Control_c, 0, 64, 0
1, 1384582, Note_on_c, 0, 77, 0
1, 1384582, Control_c, 0, 64, 0
1, 1384772, Control_c, 0, 64, 127
1, 1384772, Control_c, 0, 64, 127
1, 1384772, Control_c, 0, 64, 127
1, 1384775, Control_c, 0, 64, 127
1, 1385034, Note_on_c, 0, 68, 0
1, 1385034, Note_on_c, 0, 65, 61
1, 1385034, Note_on_c, 0, 68, 61
1, 1385037, Note_on_c, 0, 56, 0
1, 1385037, Note_on_c, 0, 60, 0
1, 1385037, Note_on_c, 0, 73, 80
1, 1385040, Note_on_c, 0, 49, 70
1, 1385040, Note_on_c, 0, 56, 57
1, 1385040, Note_on_c, 0, 61, 57
1, 1385055, Note_on_c, 0, 66, 0
1, 1385055, Note_on_c, 0, 75, 0
1, 1385083, Control_c, 0, 64, 0
1, 1385083, Control_c, 0, 64, 0
1, 1385083, Control_c, 0, 64, 0
1, 1385086, Control_c, 0, 64, 0
1, 1385413, Control_c, 0, 64, 127
1, 1385413, Control_c, 0, 64, 127
1, 1385413, Control_c, 0, 64, 127
1, 1385416, Control_c, 0, 64, 127
1, 1385595, Note_on_c, 0, 68, 0
1, 1385595, Note_on_c, 0, 54, 78
1, 1385595, Note_on_c, 0, 58, 78
1, 1385598, Note_on_c, 0, 49, 0
1, 1385598, Note_on_c, 0, 56, 0
1, 1385598, Note_on_c, 0, 61, 91
1, 1385601, Note_on_c, 0, 61, 0
1, 1385601, Note_on_c, 0, 42, 86
1, 1385601, Note_on_c, 0, 49, 71
1, 1385624, Note_on_c, 0, 65, 0
1, 1385624, Note_on_c, 0, 73, 0
1, 1385771, Control_c, 0, 64, 0
1, 1385771, Control_c, 0, 64, 0
1, 1385771, Control_c, 0, 64, 0
1, 1385774, Control_c, 0, 64, 0
1, 1385970, Control_c, 0, 64, 127
1, 1385970, Control_c, 0, 64, 127
1, 1385970, Control_c, 0, 64, 127
1, 1385973, Control_c, 0, 64, 127
1, 1386344, Note_on_c, 0, 61, 0
1, 1386344, Note_on_c, 0, 53, 82
1, 1386344, Note_on_c, 0, 56, 82
1, 1386347, Note_on_c, 0, 49, 0
1, 1386347, Note_on_c, 0, 42, 0
1, 1386347, Note_on_c, 0, 61, 99
1, 1386350, Note_on_c, 0, 37, 93
1, 1386350, Note_on_c, 0, 49, 76
1, 1386379, Note_on_c, 0, 58, 0
1, 1386379, Note_on_c, 0, 54, 0
1, 1386476, Control_c, 0, 64, 0
1, 1386476, Control_c, 0, 64, 0
1, 1386476, Control_c, 0, 64, 0
1, 1386479, Control_c, 0, 64, 0
1, 1388141, Note_on_c, 0, 53, 0
1, 1388141, Note_on_c, 0, 61, 0
1, 1388141, Note_on_c, 0, 56, 0
1, 1388144, Note_on_c, 0, 49, 0
1, 1388144, Note_on_c, 0, 37, 0
1, 1388314, Note_on_c, 0, 68, 101
1, 1388314, Note_on_c, 0, 72, 101
1, 1388314, Note_on_c, 0, 75, 101
1, 1388317, Note_on_c, 0, 80, 117
1, 1388317, Note_on_c, 0, 44, 111
1, 1388317, Note_on_c, 0, 56, 99
1, 1388415, Note_on_c, 0, 75, 0
1, 1388415, Note_on_c, 0, 68, 0
1, 1388415, Note_on_c, 0, 72, 0
1, 1388418, Note_on_c, 0, 80, 0
1, 1388418, Note_on_c, 0, 44, 0
1, 1388418, Note_on_c, 0, 56, 0
1, 1388539, Note_on_c, 0, 65, 102
1, 1388539, Note_on_c, 0, 68, 102
1, 1388539, Note_on_c, 0, 73, 102
1, 1388542, Note_on_c, 0, 77, 116
1, 1388542, Note_on_c, 0, 49, 111
1, 1388542, Note_on_c, 0, 61, 99
1, 1388618, Control_c, 0, 64, 127
1, 1388618, Control_c, 0, 64, 127
1, 1388798, Note_on_c, 0, 73, 0
1, 1388798, Note_on_c, 0, 65, 0
1, 1388798, Note_on_c, 0, 68, 0
1, 1388801, Note_on_c, 0, 77, 0
1, 1388801, Note_on_c, 0, 68, 98
1, 1388801, Note_on_c, 0, 72, 98
1, 1388804, Note_on_c, 0, 49, 0
1, 1388804, Note_on_c, 0, 75, 98
1, 1388804, Note_on_c, 0, 80, 114
1, 1388807, Note_on_c, 0, 61, 0
1, 1388807, Note_on_c, 0, 44, 117
1, 1388807, Note_on_c, 0, 56, 104
1, 1388884, Note_on_c, 0, 75, 0
1, 1388884, Note_on_c, 0, 72, 0
1, 1388884, Note_on_c, 0, 68, 0
1, 1388887, Note_on_c, 0, 80, 0
1, 1388887, Note_on_c, 0, 73, 100
1, 1388887, Note_on_c, 0, 77, 100
1, 1388890, Note_on_c, 0, 44, 0
1, 1388890, Note_on_c, 0, 80, 100
1, 1388890, Note_on_c, 0, 85, 116
1, 1388893, Note_on_c, 0, 56, 0
1, 1388893, Note_on_c, 0, 37, 117
1, 1388893, Note_on_c, 0, 49, 106
1, 1388896, Control_c, 0, 64, 0
1, 1388896, Control_c, 0, 64, 0
1, 1388940, Note_on_c, 0, 80, 0
1, 1388940, Note_on_c, 0, 77, 0
1, 1388940, Note_on_c, 0, 73, 0
1, 1388943, Note_on_c, 0, 85, 0
1, 1388943, Note_on_c, 0, 37, 0
1, 1388943, Note_on_c, 0, 49, 0
1, 1389071, Note_on_c, 0, 75, 103
1, 1389071, Note_on_c, 0, 80, 103
1, 1389071, Note_on_c, 0, 84, 103
1, 1389074, Note_on_c, 0, 87, 117
1, 1389074, Note_on_c, 0, 32, 117
1, 1389074, Note_on_c, 0, 44, 109
1, 1389128, Note_on_c, 0, 84, 0
1, 1389128, Note_on_c, 0, 75, 0
1, 1389128, Note_on_c, 0, 80, 0
1, 1389131, Note_on_c, 0, 87, 0
1, 1389131, Note_on_c, 0, 32, 0
1, 1389131, Note_on_c, 0, 44, 0
1, 1389259, Note_on_c, 0, 77, 106
1, 1389259, Note_on_c, 0, 80, 106
1, 1389259, Note_on_c, 0, 85, 106
1, 1389262, Note_on_c, 0, 89, 117
1, 1389262, Note_on_c, 0, 25, 117
1, 1389262, Note_on_c, 0, 37, 112
1, 1389305, Control_c, 0, 64, 127
1, 1389305, Control_c, 0, 64, 127
1, 1389539, Note_on_c, 0, 85, 0
1, 1389539, Note_on_c, 0, 77, 0
1, 1389539, Note_on_c, 0, 80, 0
1, 1389542, Note_on_c, 0, 89, 0
1, 1389542, Note_on_c, 0, 75, 96
1, 1389542, Note_on_c, 0, 87, 111
1, 1389626, Note_on_c, 0, 87, 0
1, 1389626, Note_on_c, 0, 75, 0
1, 1389626, Note_on_c, 0, 73, 96
1, 1389629, Note_on_c, 0, 25, 0
1, 1389629, Note_on_c, 0, 37, 0
1, 1389629, Note_on_c, 0, 85, 111
1, 1389640, Control_c, 0, 64, 0
1, 1389640, Control_c, 0, 64, 0
1, 1389678, Note_on_c, 0, 85, 0
1, 1389678, Note_on_c, 0, 73, 0
1, 1389799, Note_on_c, 0, 72, 96
1, 1389799, Note_on_c, 0, 77, 96
1, 1389799, Note_on_c, 0, 81, 96
1, 1389802, Note_on_c, 0, 84, 111
1, 1389802, Note_on_c, 0, 53, 98
1, 1389802, Note_on_c, 0, 65, 87
1, 1389855, Note_on_c, 0, 81, 0
1, 1389855, Note_on_c, 0, 72, 0
1, 1389855, Note_on_c, 0, 77, 0
1, 1389858, Note_on_c, 0, 84, 0
1, 1389883, Note_on_c, 0, 53, 0
1, 1389883, Note_on_c, 0, 65, 0
1, 1389986, Note_on_c, 0, 73, 107
1, 1389986, Note_on_c, 0, 77, 107
1, 1389986, Note_on_c, 0, 82, 107
1, 1389989, Note_on_c, 0, 85, 117
1, 1389989, Note_on_c, 0, 58, 100
1, 1389989, Note_on_c, 0, 65, 89
1, 1390045, Control_c, 0, 64, 127
1, 1390045, Control_c, 0, 64, 127
1, 1390245, Note_on_c, 0, 82, 0
1, 1390245, Note_on_c, 0, 73, 0
1, 1390245, Note_on_c, 0, 77, 0
1, 1390248, Note_on_c, 0, 85, 0
1, 1390248, Note_on_c, 0, 72, 96
1, 1390248, Note_on_c, 0, 77, 96
1, 1390251, Note_on_c, 0, 58, 0
1, 1390251, Note_on_c, 0, 81, 96
1, 1390251, Note_on_c, 0, 84, 111
1, 1390254, Note_on_c, 0, 65, 0
1, 1390254, Note_on_c, 0, 53, 102
1, 1390254, Note_on_c, 0, 65, 91
1, 1390331, Note_on_c, 0, 81, 0
1, 1390331, Note_on_c, 0, 77, 0
1, 1390331, Note_on_c, 0, 72, 0
1, 1390334, Note_on_c, 0, 84, 0
1, 1390334, Note_on_c, 0, 73, 96
1, 1390334, Note_on_c, 0, 77, 96
1, 1390337, Note_on_c, 0, 53, 0
1, 1390337, Note_on_c, 0, 82, 96
1, 1390337, Note_on_c, 0, 85, 111
1, 1390340, Note_on_c, 0, 65, 0
1, 1390340, Control_c, 0, 64, 0
1, 1390340, Note_on_c, 0, 58, 103
1, 1390340, Note_on_c, 0, 65, 91
1, 1390340, Control_c, 0, 64, 0
1, 1390388, Note_on_c, 0, 82, 0
1, 1390388, Note_on_c, 0, 77, 0
1, 1390388, Note_on_c, 0, 73, 0
1, 1390391, Note_on_c, 0, 85, 0
1, 1390391, Note_on_c, 0, 58, 0
1, 1390391, Note_on_c, 0, 65, 0
1, 1390519, Note_on_c, 0, 72, 90
1, 1390519, Note_on_c, 0, 77, 90
1, 1390519, Note_on_c, 0, 81, 90
1, 1390522, Note_on_c, 0, 84, 112
1, 1390522, Note_on_c, 0, 53, 104
1, 1390522, Note_on_c, 0, 65, 93
1, 1390580, Note_on_c, 0, 81, 0
1, 1390580, Note_on_c, 0, 72, 0
1, 1390580, Note_on_c, 0, 77, 0
1, 1390583, Note_on_c, 0, 84, 0
1, 1390583, Note_on_c, 0, 53, 0
1, 1390583, Note_on_c, 0, 65, 0
1, 1390723, Note_on_c, 0, 73, 100
1, 1390723, Note_on_c, 0, 77, 100
1, 1390723, Note_on_c, 0, 82, 100
1, 1390726, Note_on_c, 0, 85, 115
1, 1390726, Note_on_c, 0, 58, 106
1, 1390726, Note_on_c, 0, 65, 94
1, 1390788, Control_c, 0, 64, 127
1, 1390788, Control_c, 0, 64, 127
1, 1391103, Control_c, 0, 64, 0
1, 1391103, Control_c, 0, 64, 0
1, 1391131, Note_on_c, 0, 82, 0
1, 1391131, Note_on_c, 0, 73, 0
1, 1391131, Note_on_c, 0, 77, 0
1, 1391134, Note_on_c, 0, 85, 0
1, 1391134, Note_on_c, 0, 58, 0
1, 1391134, Note_on_c, 0, 65, 0
1, 1391335, Note_on_c, 0, 55, 77
1, 1391335, Note_on_c, 0, 58, 77
1, 1391335, Note_on_c, 0, 63, 77
1, 1391338, Note_on_c, 0, 39, 76
1, 1391382, Note_on_c, 0, 63, 0
1, 1391382, Note_on_c, 0, 55, 0
1, 1391382, Note_on_c, 0, 58, 0
1, 1391385, Note_on_c, 0, 39, 0
1, 1391523, Note_on_c, 0, 56, 68
1, 1391523, Note_on_c, 0, 60, 68
1, 1391523, Note_on_c, 0, 63, 77
1, 1391526, Note_on_c, 0, 44, 79
1, 1391546, Control_c, 0, 64, 0
1, 1391546, Control_c, 0, 64, 0
1, 1391782, Note_on_c, 0, 63, 0
1, 1391782, Note_on_c, 0, 56, 0
1, 1391782, Note_on_c, 0, 60, 0
1, 1391785, Note_on_c, 0, 56, 66
1, 1391785, Note_on_c, 0, 60, 66
1, 1391785, Note_on_c, 0, 63, 76
1, 1391788, Note_on_c, 0, 44, 0
1, 1391788, Note_on_c, 0, 46, 85
1, 1391803, Note_on_c, 0, 56, 0
1, 1391803, Note_on_c, 0, 63, 0
1, 1391803, Note_on_c, 0, 60, 0
1, 1391806, Note_on_c, 0, 46, 0
1, 1391868, Note_on_c, 0, 56, 66
1, 1391868, Note_on_c, 0, 60, 66
1, 1391868, Note_on_c, 0, 63, 77
1, 1391871, Note_on_c, 0, 48, 86
1, 1391911, Note_on_c, 0, 63, 0
1, 1391911, Note_on_c, 0, 56, 0
1, 1391911, Note_on_c, 0, 60, 0
1, 1391914, Note_on_c, 0, 48, 0
1, 1392041, Note_on_c, 0, 56, 66
1, 1392041, Note_on_c, 0, 60, 66
1, 1392041, Note_on_c, 0, 63, 80
1, 1392044, Note_on_c, 0, 49, 90
1, 1392088, Note_on_c, 0, 63, 0
1, 1392088, Note_on_c, 0, 56, 0
1, 1392088, Note_on_c, 0, 60, 0
1, 1392091, Note_on_c, 0, 49, 0
1, 1392228, Note_on_c, 0, 56, 70
1, 1392228, Note_on_c, 0, 60, 70
1, 1392228, Note_on_c, 0, 63, 82
1, 1392231, Note_on_c, 0, 51, 94
1, 1392288, Control_c, 0, 64, 127
1, 1392288, Control_c, 0, 64, 127
1, 1392505, Control_c, 0, 64, 0
1, 1392505, Control_c, 0, 64, 0
1, 1392509, Note_on_c, 0, 63, 0
1, 1392509, Note_on_c, 0, 56, 0
1, 1392509, Note_on_c, 0, 60, 0
1, 1392512, Note_on_c, 0, 56, 75
1, 1392512, Note_on_c, 0, 60, 75
1, 1392512, Note_on_c, 0, 65, 86
1, 1392595, Note_on_c, 0, 65, 0
1, 1392595, Note_on_c, 0, 60, 0
1, 1392595, Note_on_c, 0, 56, 0
1, 1392598, Note_on_c, 0, 56, 75
1, 1392598, Note_on_c, 0, 60, 75
1, 1392598, Note_on_c, 0, 67, 89
1, 1392609, Control_c, 0, 64, 0
1, 1392609, Control_c, 0, 64, 0
1, 1392642, Note_on_c, 0, 67, 0
1, 1392642, Note_on_c, 0, 60, 0
1, 1392642, Note_on_c, 0, 56, 0
1, 1392783, Note_on_c, 0, 56, 73
1, 1392783, Note_on_c, 0, 60, 73
1, 1392783, Note_on_c, 0, 68, 92
1, 1392786, Note_on_c, 0, 51, 0
1, 1392786, Note_on_c, 0, 50, 86
1, 1392829, Note_on_c, 0, 56, 0
1, 1392829, Note_on_c, 0, 68, 0
1, 1392829, Note_on_c, 0, 60, 0
1, 1392832, Note_on_c, 0, 50, 0
1, 1392970, Note_on_c, 0, 56, 83
1, 1392970, Note_on_c, 0, 60, 83
1, 1392970, Note_on_c, 0, 68, 93
1, 1392973, Note_on_c, 0, 51, 83
1, 1393029, Control_c, 0, 64, 127
1, 1393029, Control_c, 0, 64, 127
1, 1393229, Note_on_c, 0, 68, 0
1, 1393229, Note_on_c, 0, 56, 0
1, 1393229, Note_on_c, 0, 60, 0
1, 1393232, Note_on_c, 0, 51, 0
1, 1393232, Note_on_c, 0, 56, 79
1, 1393232, Note_on_c, 0, 60, 90
1, 1393235, Control_c, 0, 64, 0
1, 1393235, Note_on_c, 0, 51, 79
1, 1393235, Control_c, 0, 64, 0
1, 1393252, Note_on_c, 0, 60, 0
1, 1393252, Note_on_c, 0, 56, 0
1, 1393323, Note_on_c, 0, 55, 79
1, 1393323, Note_on_c, 0, 58, 87
1, 1393323, Note_on_c, 0, 63, 77
1, 1393326, Note_on_c, 0, 51, 0
1, 1393326, Note_on_c, 0, 39, 77
1, 1393369, Note_on_c, 0, 55, 0
1, 1393369, Note_on_c, 0, 63, 0
1, 1393369, Note_on_c, 0, 58, 0
1, 1393372, Note_on_c, 0, 39, 0
1, 1393510, Note_on_c, 0, 55, 79
1, 1393510, Note_on_c, 0, 59, 87
1, 1393510, Note_on_c, 0, 63, 76
1, 1393513, Note_on_c, 0, 39, 74
1, 1393557, Note_on_c, 0, 63, 0
1, 1393557, Note_on_c, 0, 55, 0
1, 1393557, Note_on_c, 0, 59, 0
1, 1393560, Note_on_c, 0, 39, 0
1, 1393697, Note_on_c, 0, 56, 79
1, 1393697, Note_on_c, 0, 60, 87
1, 1393697, Note_on_c, 0, 63, 76
1, 1393700, Note_on_c, 0, 44, 71
1, 1393741, Control_c, 0, 64, 127
1, 1393741, Control_c, 0, 64, 127
1, 1394005, Control_c, 0, 64, 0
1, 1394005, Control_c, 0, 64, 0
1, 1394071, Note_on_c, 0, 63, 0
1, 1394071, Note_on_c, 0, 56, 0
1, 1394071, Note_on_c, 0, 60, 0
1, 1394074, Note_on_c, 0, 44, 0
1, 1394259, Note_on_c, 0, 68, 104
1, 1394259, Note_on_c, 0, 72, 104
1, 1394259, Note_on_c, 0, 75, 104
1, 1394262, Note_on_c, 0, 80, 117
1, 1394262, Note_on_c, 0, 44, 117
1, 1394262, Note_on_c, 0, 56, 117
1, 1394360, Note_on_c, 0, 75, 0
1, 1394360, Note_on_c, 0, 68, 0
1, 1394360, Note_on_c, 0, 72, 0
1, 1394363, Note_on_c, 0, 80, 0
1, 1394363, Note_on_c, 0, 44, 0
1, 1394363, Note_on_c, 0, 56, 0
1, 1394483, Note_on_c, 0, 65, 102
1, 1394483, Note_on_c, 0, 68, 102
1, 1394483, Note_on_c, 0, 73, 102
1, 1394486, Note_on_c, 0, 77, 116
1, 1394486, Note_on_c, 0, 49, 111
1, 1394486, Note_on_c, 0, 61, 99
1, 1394563, Control_c, 0, 64, 127
1, 1394563, Control_c, 0, 64, 127
1, 1394742, Note_on_c, 0, 73, 0
1, 1394742, Note_on_c, 0, 65, 0
1, 1394742, Note_on_c, 0, 68, 0
1, 1394745, Note_on_c, 0, 77, 0
1, 1394745, Note_on_c, 0, 68, 98
1, 1394745, Note_on_c, 0, 72, 98
1, 1394748, Note_on_c, 0, 49, 0
1, 1394748, Note_on_c, 0, 75, 98
1, 1394748, Note_on_c, 0, 80, 114
1, 1394751, Note_on_c, 0, 61, 0
1, 1394751, Note_on_c, 0, 44, 117
1, 1394751, Note_on_c, 0, 56, 104
1, 1394829, Note_on_c, 0, 75, 0
1, 1394829, Note_on_c, 0, 72, 0
1, 1394829, Note_on_c, 0, 68, 0
1, 1394832, Note_on_c, 0, 80, 0
1, 1394832, Note_on_c, 0, 73, 100
1, 1394832, Note_on_c, 0, 77, 100
1, 1394835, Note_on_c, 0, 44, 0
1, 1394835, Note_on_c, 0, 80, 100
1, 1394835, Note_on_c, 0, 85, 116
1, 1394838, Note_on_c, 0, 56, 0
1, 1394838, Note_on_c, 0, 37, 117
1, 1394838, Note_on_c, 0, 49, 106
1, 1394841, Control_c, 0, 64, 0
1, 1394841, Control_c, 0, 64, 0
1, 1394885, Note_on_c, 0, 80, 0
1, 1394885, Note_on_c, 0, 77, 0
1, 1394885, Note_on_c, 0, 73, 0
1, 1394888, Note_on_c, 0, 85, 0
1, 1394888, Note_on_c, 0, 37, 0
1, 1394888, Note_on_c, 0, 49, 0
1, 1395016, Note_on_c, 0, 75, 103
1, 1395016, Note_on_c, 0, 80, 103
1, 1395016, Note_on_c, 0, 84, 103
1, 1395019, Note_on_c, 0, 87, 117
1, 1395019, Note_on_c, 0, 32, 117
1, 1395019, Note_on_c, 0, 44, 109
1, 1395072, Note_on_c, 0, 84, 0
1, 1395072, Note_on_c, 0, 75, 0
1, 1395072, Note_on_c, 0, 80, 0
1, 1395075, Note_on_c, 0, 87, 0
1, 1395075, Note_on_c, 0, 32, 0
1, 1395075, Note_on_c, 0, 44, 0
1, 1395203, Note_on_c, 0, 77, 106
1, 1395203, Note_on_c, 0, 80, 106
1, 1395203, Note_on_c, 0, 85, 106
1, 1395206, Note_on_c, 0, 89, 117
1, 1395206, Note_on_c, 0, 25, 117
1, 1395206, Note_on_c, 0, 37, 112
1, 1395250, Control_c, 0, 64, 127
1, 1395250, Control_c, 0, 64, 127
1, 1395484, Note_on_c, 0, 85, 0
1, 1395484, Note_on_c, 0, 77, 0
1, 1395484, Note_on_c, 0, 80, 0
1, 1395487, Note_on_c, 0, 89, 0
1, 1395487, Note_on_c, 0, 75, 96
1, 1395487, Note_on_c, 0, 87, 111
1, 1395570, Note_on_c, 0, 87, 0
1, 1395570, Note_on_c, 0, 75, 0
1, 1395570, Note_on_c, 0, 73, 96
1, 1395573, Note_on_c, 0, 25, 0
1, 1395573, Note_on_c, 0, 37, 0
1, 1395573, Note_on_c, 0, 85, 111
1, 1395585, Control_c, 0, 64, 0
1, 1395585, Control_c, 0, 64, 0
1, 1395622, Note_on_c, 0, 85, 0
1, 1395622, Note_on_c, 0, 73, 0
1, 1395743, Note_on_c, 0, 72, 96
1, 1395743, Note_on_c, 0, 77, 96
1, 1395743, Note_on_c, 0, 81, 96
1, 1395746, Note_on_c, 0, 84, 111
1, 1395746, Note_on_c, 0, 53, 98
1, 1395746, Note_on_c, 0, 65, 87
1, 1395800, Note_on_c, 0, 81, 0
1, 1395800, Note_on_c, 0, 72, 0
1, 1395800, Note_on_c, 0, 77, 0
1, 1395803, Note_on_c, 0, 84, 0
1, 1395827, Note_on_c, 0, 53, 0
1, 1395827, Note_on_c, 0, 65, 0
1, 1395930, Note_on_c, 0, 73, 107
1, 1395930, Note_on_c, 0, 77, 107
1, 1395930, Note_on_c, 0, 82, 107
1, 1395933, Note_on_c, 0, 85, 117
1, 1395933, Note_on_c, 0, 58, 100
1, 1395933, Note_on_c, 0, 65, 89
1, 1395989, Control_c, 0, 64, 127
1, 1395989, Control_c, 0, 64, 127
1, 1396190, Note_on_c, 0, 82, 0
1, 1396190, Note_on_c, 0, 73, 0
1, 1396190, Note_on_c, 0, 77, 0
1, 1396193, Note_on_c, 0, 85, 0
1, 1396193, Note_on_c, 0, 72, 96
1, 1396193, Note_on_c, 0, 77, 96
1, 1396196, Note_on_c, 0, 58, 0
1, 1396196, Note_on_c, 0, 81, 96
1, 1396196, Note_on_c, 0, 84, 111
1, 1396199, Note_on_c, 0, 65, 0
1, 1396199, Note_on_c, 0, 53, 102
1, 1396199, Note_on_c, 0, 65, 91
1, 1396276, Note_on_c, 0, 81, 0
1, 1396276, Note_on_c, 0, 77, 0
1, 1396276, Note_on_c, 0, 72, 0
1, 1396279, Note_on_c, 0, 84, 0
1, 1396279, Note_on_c, 0, 73, 96
1, 1396279, Note_on_c, 0, 77, 96
1, 1396282, Note_on_c, 0, 53, 0
1, 1396282, Note_on_c, 0, 82, 96
1, 1396282, Note_on_c, 0, 85, 111
1, 1396285, Note_on_c, 0, 65, 0
1, 1396285, Control_c, 0, 64, 0
1, 1396285, Note_on_c, 0, 58, 103
1, 1396285, Note_on_c, 0, 65, 91
1, 1396285, Control_c, 0, 64, 0
1, 1396332, Note_on_c, 0, 82, 0
1, 1396332, Note_on_c, 0, 77, 0
1, 1396332, Note_on_c, 0, 73, 0
1, 1396335, Note_on_c, 0, 85, 0
1, 1396335, Note_on_c, 0, 58, 0
1, 1396335, Note_on_c, 0, 65, 0
1, 1396463, Note_on_c, 0, 72, 90
1, 1396463, Note_on_c, 0, 77, 90
1, 1396463, Note_on_c, 0, 81, 90
1, 1396466, Note_on_c, 0, 84, 112
1, 1396466, Note_on_c, 0, 53, 104
1, 1396466, Note_on_c, 0, 65, 93
1, 1396525, Note_on_c, 0, 81, 0
1, 1396525, Note_on_c, 0, 72, 0
1, 1396525, Note_on_c, 0, 77, 0
1, 1396528, Note_on_c, 0, 84, 0
1, 1396528, Note_on_c, 0, 53, 0
1, 1396528, Note_on_c, 0, 65, 0
1, 1396667, Note_on_c, 0, 73, 100
1, 1396667, Note_on_c, 0, 77, 100
1, 1396667, Note_on_c, 0, 82, 100
1, 1396670, Note_on_c, 0, 85, 115
1, 1396670, Note_on_c, 0, 58, 106
1, 1396670, Note_on_c, 0, 65, 94
1, 1396733, Control_c, 0, 64, 127
1, 1396733, Control_c, 0, 64, 127
1, 1397048, Control_c, 0, 64, 0
1, 1397048, Control_c, 0, 64, 0
1, 1397076, Note_on_c, 0, 82, 0
1, 1397076, Note_on_c, 0, 73, 0
1, 1397076, Note_on_c, 0, 77, 0
1, 1397079, Note_on_c, 0, 85, 0
1, 1397079, Note_on_c, 0, 58, 0
1, 1397079, Note_on_c, 0, 65, 0
1, 1397280, Note_on_c, 0, 80, 103
1, 1397280, Note_on_c, 0, 82, 103
1, 1397280, Note_on_c, 0, 89, 103
1, 1397283, Note_on_c, 0, 92, 117
1, 1397283, Note_on_c, 0, 34, 99
1, 1397283, Note_on_c, 0, 46, 108
1, 1397336, Note_on_c, 0, 46, 0
1, 1397336, Note_on_c, 0, 34, 0
1, 1397381, Note_on_c, 0, 80, 0
1, 1397381, Note_on_c, 0, 89, 0
1, 1397381, Note_on_c, 0, 82, 0
1, 1397384, Note_on_c, 0, 92, 0
1, 1397505, Note_on_c, 0, 78, 103
1, 1397505, Note_on_c, 0, 82, 103
1, 1397505, Note_on_c, 0, 87, 103
1, 1397508, Note_on_c, 0, 90, 117
1, 1397508, Note_on_c, 0, 39, 99
1, 1397508, Note_on_c, 0, 46, 99
1, 1397511, Note_on_c, 0, 51, 108
1, 1397589, Control_c, 0, 64, 127
1, 1397589, Control_c, 0, 64, 127
1, 1397764, Note_on_c, 0, 87, 0
1, 1397764, Note_on_c, 0, 78, 0
1, 1397764, Note_on_c, 0, 82, 0
1, 1397767, Note_on_c, 0, 90, 0
1, 1397767, Note_on_c, 0, 77, 103
1, 1397767, Note_on_c, 0, 82, 103
1, 1397770, Note_on_c, 0, 39, 0
1, 1397770, Note_on_c, 0, 46, 0
1, 1397770, Note_on_c, 0, 89, 115
1, 1397773, Note_on_c, 0, 51, 0
1, 1397773, Note_on_c, 0, 41, 89
1, 1397773, Note_on_c, 0, 46, 89
1, 1397776, Note_on_c, 0, 53, 97
1, 1397833, Control_c, 0, 64, 0
1, 1397833, Control_c, 0, 64, 0
1, 1397850, Note_on_c, 0, 77, 0
1, 1397850, Note_on_c, 0, 89, 0
1, 1397850, Note_on_c, 0, 82, 0
1, 1397853, Note_on_c, 0, 75, 103
1, 1397853, Note_on_c, 0, 82, 103
1, 1397853, Note_on_c, 0, 87, 115
1, 1397856, Note_on_c, 0, 41, 0
1, 1397856, Note_on_c, 0, 53, 0
1, 1397856, Note_on_c, 0, 46, 0
1, 1397859, Note_on_c, 0, 42, 90
1, 1397859, Note_on_c, 0, 46, 90
1, 1397859, Note_on_c, 0, 54, 98
1, 1397916, Note_on_c, 0, 75, 0
1, 1397916, Note_on_c, 0, 87, 0
1, 1397916, Note_on_c, 0, 82, 0
1, 1397919, Note_on_c, 0, 42, 0
1, 1397919, Note_on_c, 0, 46, 0
1, 1397919, Note_on_c, 0, 54, 0
1, 1398038, Note_on_c, 0, 73, 103
1, 1398038, Note_on_c, 0, 75, 103
1, 1398038, Note_on_c, 0, 82, 103
1, 1398041, Note_on_c, 0, 85, 115
1, 1398041, Note_on_c, 0, 43, 92
1, 1398041, Note_on_c, 0, 46, 92
1, 1398044, Note_on_c, 0, 55, 100
1, 1398103, Note_on_c, 0, 82, 0
1, 1398103, Note_on_c, 0, 73, 0
1, 1398103, Note_on_c, 0, 75, 0
1, 1398106, Note_on_c, 0, 43, 0
1, 1398106, Note_on_c, 0, 85, 0
1, 1398106, Note_on_c, 0, 46, 0
1, 1398109, Note_on_c, 0, 55, 0
1, 1398225, Note_on_c, 0, 72, 103
1, 1398225, Note_on_c, 0, 75, 103
1, 1398225, Note_on_c, 0, 80, 103
1, 1398228, Note_on_c, 0, 84, 117
1, 1398228, Note_on_c, 0, 44, 94
1, 1398228, Note_on_c, 0, 51, 94
1, 1398231, Note_on_c, 0, 56, 102
1, 1398267, Control_c, 0, 64, 127
1, 1398267, Control_c, 0, 64, 127
1, 1398484, Note_on_c, 0, 80, 0
1, 1398484, Note_on_c, 0, 72, 0
1, 1398484, Note_on_c, 0, 75, 0
1, 1398487, Note_on_c, 0, 84, 0
1, 1398487, Note_on_c, 0, 70, 103
1, 1398487, Note_on_c, 0, 75, 103
1, 1398490, Note_on_c, 0, 44, 0
1, 1398490, Note_on_c, 0, 51, 0
1, 1398490, Note_on_c, 0, 82, 115
1, 1398493, Note_on_c, 0, 56, 0
1, 1398493, Note_on_c, 0, 46, 96
1, 1398493, Note_on_c, 0, 51, 96
1, 1398496, Control_c, 0, 64, 0
1, 1398496, Note_on_c, 0, 58, 105
1, 1398496, Control_c, 0, 64, 0
1, 1398570, Note_on_c, 0, 70, 0
1, 1398570, Note_on_c, 0, 82, 0
1, 1398570, Note_on_c, 0, 75, 0
1, 1398573, Note_on_c, 0, 68, 103
1, 1398573, Note_on_c, 0, 75, 103
1, 1398573, Note_on_c, 0, 80, 115
1, 1398576, Note_on_c, 0, 46, 0
1, 1398576, Note_on_c, 0, 58, 0
1, 1398576, Note_on_c, 0, 51, 0
1, 1398579, Note_on_c, 0, 48, 97
1, 1398579, Note_on_c, 0, 51, 97
1, 1398579, Note_on_c, 0, 60, 106
1, 1398636, Note_on_c, 0, 68, 0
1, 1398636, Note_on_c, 0, 80, 0
1, 1398636, Note_on_c, 0, 75, 0
1, 1398639, Note_on_c, 0, 48, 0
1, 1398639, Note_on_c, 0, 51, 0
1, 1398639, Note_on_c, 0, 60, 0
1, 1398758, Note_on_c, 0, 65, 97
1, 1398758, Note_on_c, 0, 68, 97
1, 1398758, Note_on_c, 0, 77, 109
1, 1398761, Note_on_c, 0, 49, 99
1, 1398761, Note_on_c, 0, 56, 99
1, 1398761, Note_on_c, 0, 61, 108
1, 1398829, Note_on_c, 0, 77, 0
1, 1398829, Note_on_c, 0, 65, 0
1, 1398829, Note_on_c, 0, 68, 0
1, 1398832, Note_on_c, 0, 49, 0
1, 1398832, Note_on_c, 0, 56, 0
1, 1398832, Note_on_c, 0, 61, 0
1, 1398962, Note_on_c, 0, 63, 103
1, 1398962, Note_on_c, 0, 68, 103
1, 1398962, Note_on_c, 0, 75, 115
1, 1398965, Note_on_c, 0, 51, 99
1, 1398965, Note_on_c, 0, 56, 99
1, 1398965, Note_on_c, 0, 60, 108
1, 1398995, Control_c, 0, 64, 127
1, 1398995, Control_c, 0, 64, 127
1, 1399221, Note_on_c, 0, 75, 0
1, 1399221, Note_on_c, 0, 63, 0
1, 1399221, Note_on_c, 0, 68, 0
1, 1399224, Note_on_c, 0, 63, 100
1, 1399224, Note_on_c, 0, 68, 100
1, 1399224, Note_on_c, 0, 75, 112
1, 1399227, Note_on_c, 0, 51, 0
1, 1399227, Note_on_c, 0, 60, 0
1, 1399227, Note_on_c, 0, 56, 0
1, 1399230, Note_on_c, 0, 51, 94
1, 1399230, Note_on_c, 0, 56, 94
1, 1399230, Note_on_c, 0, 60, 102
1, 1399301, Control_c, 0, 64, 0
1, 1399301, Control_c, 0, 64, 0
1, 1399307, Note_on_c, 0, 63, 0
1, 1399307, Note_on_c, 0, 75, 0
1, 1399307, Note_on_c, 0, 68, 0
1, 1399310, Note_on_c, 0, 63, 100
1, 1399310, Note_on_c, 0, 68, 100
1, 1399310, Note_on_c, 0, 75, 111
1, 1399313, Note_on_c, 0, 51, 0
1, 1399313, Note_on_c, 0, 60, 0
1, 1399313, Note_on_c, 0, 56, 0
1, 1399316, Note_on_c, 0, 51, 92
1, 1399316, Note_on_c, 0, 56, 92
1, 1399316, Note_on_c, 0, 60, 101
1, 1399369, Note_on_c, 0, 63, 0
1, 1399369, Note_on_c, 0, 75, 0
1, 1399369, Note_on_c, 0, 68, 0
1, 1399372, Note_on_c, 0, 51, 0
1, 1399372, Note_on_c, 0, 56, 0
1, 1399372, Note_on_c, 0, 60, 0
1, 1399512, Note_on_c, 0, 61, 90
1, 1399512, Note_on_c, 0, 63, 90
1, 1399512, Note_on_c, 0, 67, 101
1, 1399515, Note_on_c, 0, 51, 89
1, 1399515, Note_on_c, 0, 58, 97
1, 1399587, Note_on_c, 0, 67, 0
1, 1399587, Note_on_c, 0, 61, 0
1, 1399587, Note_on_c, 0, 63, 0
1, 1399590, Note_on_c, 0, 51, 0
1, 1399590, Note_on_c, 0, 58, 0
1, 1399761, Note_on_c, 0, 60, 89
1, 1399761, Note_on_c, 0, 68, 100
1, 1399761, Note_on_c, 0, 44, 86
1, 1399764, Note_on_c, 0, 51, 86
1, 1399764, Note_on_c, 0, 56, 93
1, 1400170, Note_on_c, 0, 44, 0
1, 1400170, Note_on_c, 0, 60, 0
1, 1400170, Note_on_c, 0, 68, 0
1, 1400173, Note_on_c, 0, 51, 0
1, 1400173, Note_on_c, 0, 56, 0
1, 1400374, Note_on_c, 0, 68, 101
1, 1400374, Note_on_c, 0, 72, 101
1, 1400374, Note_on_c, 0, 75, 101
1, 1400377, Note_on_c, 0, 80, 117
1, 1400377, Note_on_c, 0, 44, 111
1, 1400377, Note_on_c, 0, 56, 99
1, 1400475, Note_on_c, 0, 75, 0
1, 1400475, Note_on_c, 0, 68, 0
1, 1400475, Note_on_c, 0, 72, 0
1, 1400478, Note_on_c, 0, 80, 0
1, 1400478, Note_on_c, 0, 44, 0
1, 1400478, Note_on_c, 0, 56, 0
1, 1400598, Note_on_c, 0, 65, 102
1, 1400598, Note_on_c, 0, 68, 102
1, 1400598, Note_on_c, 0, 73, 102
1, 1400601, Note_on_c, 0, 77, 116
1, 1400601, Note_on_c, 0, 49, 111
1, 1400601, Note_on_c, 0, 61, 99
1, 1400678, Control_c, 0, 64, 127
1, 1400678, Control_c, 0, 64, 127
1, 1400858, Note_on_c, 0, 73, 0
1, 1400858, Note_on_c, 0, 65, 0
1, 1400858, Note_on_c, 0, 68, 0
1, 1400861, Note_on_c, 0, 77, 0
1, 1400861, Note_on_c, 0, 68, 98
1, 1400861, Note_on_c, 0, 72, 98
1, 1400864, Note_on_c, 0, 49, 0
1, 1400864, Note_on_c, 0, 75, 98
1, 1400864, Note_on_c, 0, 80, 114
1, 1400867, Note_on_c, 0, 61, 0
1, 1400867, Note_on_c, 0, 44, 117
1, 1400867, Note_on_c, 0, 56, 104
1, 1400944, Note_on_c, 0, 75, 0
1, 1400944, Note_on_c, 0, 72, 0
1, 1400944, Note_on_c, 0, 68, 0
1, 1400947, Note_on_c, 0, 80, 0
1, 1400947, Note_on_c, 0, 73, 100
1, 1400947, Note_on_c, 0, 77, 100
1, 1400950, Note_on_c, 0, 44, 0
1, 1400950, Note_on_c, 0, 80, 100
1, 1400950, Note_on_c, 0, 85, 116
1, 1400953, Note_on_c, 0, 56, 0
1, 1400953, Note_on_c, 0, 37, 117
1, 1400953, Note_on_c, 0, 49, 106
1, 1400956, Control_c, 0, 64, 0
1, 1400956, Control_c, 0, 64, 0
1, 1401000, Note_on_c, 0, 80, 0
1, 1401000, Note_on_c, 0, 77, 0
1, 1401000, Note_on_c, 0, 73, 0
1, 1401003, Note_on_c, 0, 85, 0
1, 1401003, Note_on_c, 0, 37, 0
1, 1401003, Note_on_c, 0, 49, 0
1, 1401131, Note_on_c, 0, 75, 103
1, 1401131, Note_on_c, 0, 80, 103
1, 1401131, Note_on_c, 0, 84, 103
1, 1401134, Note_on_c, 0, 87, 117
1, 1401134, Note_on_c, 0, 32, 117
1, 1401134, Note_on_c, 0, 44, 109
1, 1401188, Note_on_c, 0, 84, 0
1, 1401188, Note_on_c, 0, 75, 0
1, 1401188, Note_on_c, 0, 80, 0
1, 1401191, Note_on_c, 0, 87, 0
1, 1401191, Note_on_c, 0, 32, 0
1, 1401191, Note_on_c, 0, 44, 0
1, 1401318, Note_on_c, 0, 77, 106
1, 1401318, Note_on_c, 0, 80, 106
1, 1401318, Note_on_c, 0, 85, 106
1, 1401321, Note_on_c, 0, 89, 117
1, 1401321, Note_on_c, 0, 25, 117
1, 1401321, Note_on_c, 0, 37, 112
1, 1401365, Control_c, 0, 64, 127
1, 1401365, Control_c, 0, 64, 127
1, 1401599, Note_on_c, 0, 85, 0
1, 1401599, Note_on_c, 0, 77, 0
1, 1401599, Note_on_c, 0, 80, 0
1, 1401602, Note_on_c, 0, 89, 0
1, 1401602, Note_on_c, 0, 75, 96
1, 1401602, Note_on_c, 0, 87, 111
1, 1401686, Note_on_c, 0, 87, 0
1, 1401686, Note_on_c, 0, 75, 0
1, 1401686, Note_on_c, 0, 73, 96
1, 1401689, Note_on_c, 0, 25, 0
1, 1401689, Note_on_c, 0, 37, 0
1, 1401689, Note_on_c, 0, 85, 111
1, 1401700, Control_c, 0, 64, 0
1, 1401700, Control_c, 0, 64, 0
1, 1401738, Note_on_c, 0, 85, 0
1, 1401738, Note_on_c, 0, 73, 0
1, 1401858, Note_on_c, 0, 72, 96
1, 1401858, Note_on_c, 0, 77, 96
1, 1401858, Note_on_c, 0, 81, 96
1, 1401861, Note_on_c, 0, 84, 111
1, 1401861, Note_on_c, 0, 53, 98
1, 1401861, Note_on_c, 0, 65, 87
1, 1401915, Note_on_c, 0, 81, 0
1, 1401915, Note_on_c, 0, 72, 0
1, 1401915, Note_on_c, 0, 77, 0
1, 1401918, Note_on_c, 0, 84, 0
1, 1401943, Note_on_c, 0, 53, 0
1, 1401943, Note_on_c, 0, 65, 0
1, 1402046, Note_on_c, 0, 73, 107
1, 1402046, Note_on_c, 0, 77, 107
1, 1402046, Note_on_c, 0, 82, 107
1, 1402049, Note_on_c, 0, 85, 117
1, 1402049, Note_on_c, 0, 58, 100
1, 1402049, Note_on_c, 0, 65, 89
1, 1402105, Control_c, 0, 64, 127
1, 1402105, Control_c, 0, 64, 127
1, 1402305, Note_on_c, 0, 82, 0
1, 1402305, Note_on_c, 0, 73, 0
1, 1402305, Note_on_c, 0, 77, 0
1, 1402308, Note_on_c, 0, 85, 0
1, 1402308, Note_on_c, 0, 72, 96
1, 1402308, Note_on_c, 0, 77, 96
1, 1402311, Note_on_c, 0, 58, 0
1, 1402311, Note_on_c, 0, 81, 96
1, 1402311, Note_on_c, 0, 84, 111
1, 1402314, Note_on_c, 0, 65, 0
1, 1402314, Note_on_c, 0, 53, 102
1, 1402314, Note_on_c, 0, 65, 91
1, 1402391, Note_on_c, 0, 81, 0
1, 1402391, Note_on_c, 0, 77, 0
1, 1402391, Note_on_c, 0, 72, 0
1, 1402394, Note_on_c, 0, 84, 0
1, 1402394, Note_on_c, 0, 73, 96
1, 1402394, Note_on_c, 0, 77, 96
1, 1402397, Note_on_c, 0, 53, 0
1, 1402397, Note_on_c, 0, 82, 96
1, 1402397, Note_on_c, 0, 85, 111
1, 1402400, Note_on_c, 0, 65, 0
1, 1402400, Control_c, 0, 64, 0
1, 1402400, Note_on_c, 0, 58, 103
1, 1402400, Note_on_c, 0, 65, 91
1, 1402400, Control_c, 0, 64, 0
1, 1402448, Note_on_c, 0, 82, 0
1, 1402448, Note_on_c, 0, 77, 0
1, 1402448, Note_on_c, 0, 73, 0
1, 1402451, Note_on_c, 0, 85, 0
1, 1402451, Note_on_c, 0, 58, 0
1, 1402451, Note_on_c, 0, 65, 0
1, 1402578, Note_on_c, 0, 72, 90
1, 1402578, Note_on_c, 0, 77, 90
1, 1402578, Note_on_c, 0, 81, 90
1, 1402581, Note_on_c, 0, 84, 112
1, 1402581, Note_on_c, 0, 53, 104
1, 1402581, Note_on_c, 0, 65, 93
1, 1402640, Note_on_c, 0, 81, 0
1, 1402640, Note_on_c, 0, 72, 0
1, 1402640, Note_on_c, 0, 77, 0
1, 1402643, Note_on_c, 0, 84, 0
1, 1402643, Note_on_c, 0, 53, 0
1, 1402643, Note_on_c, 0, 65, 0
1, 1402783, Note_on_c, 0, 73, 100
1, 1402783, Note_on_c, 0, 77, 100
1, 1402783, Note_on_c, 0, 82, 100
1, 1402786, Note_on_c, 0, 85, 115
1, 1402786, Note_on_c, 0, 58, 106
1, 1402786, Note_on_c, 0, 65, 94
1, 1402848, Control_c, 0, 64, 127
1, 1402848, Control_c, 0, 64, 127
1, 1403163, Control_c, 0, 64, 0
1, 1403163, Control_c, 0, 64, 0
1, 1403191, Note_on_c, 0, 82, 0
1, 1403191, Note_on_c, 0, 73, 0
1, 1403191, Note_on_c, 0, 77, 0
1, 1403194, Note_on_c, 0, 85, 0
1, 1403194, Note_on_c, 0, 58, 0
1, 1403194, Note_on_c, 0, 65, 0
1, 1403395, Note_on_c, 0, 55, 77
1, 1403395, Note_on_c, 0, 58, 77
1, 1403395, Note_on_c, 0, 63, 77
1, 1403398, Note_on_c, 0, 39, 76
1, 1403442, Note_on_c, 0, 63, 0
1, 1403442, Note_on_c, 0, 55, 0
1, 1403442, Note_on_c, 0, 58, 0
1, 1403445, Note_on_c, 0, 39, 0
1, 1403583, Note_on_c, 0, 56, 68
1, 1403583, Note_on_c, 0, 60, 68
1, 1403583, Note_on_c, 0, 63, 77
1, 1403586, Note_on_c, 0, 44, 79
1, 1403605, Control_c, 0, 64, 0
1, 1403605, Control_c, 0, 64, 0
1, 1403842, Note_on_c, 0, 63, 0
1, 1403842, Note_on_c, 0, 56, 0
1, 1403842, Note_on_c, 0, 60, 0
1, 1403845, Note_on_c, 0, 56, 66
1, 1403845, Note_on_c, 0, 60, 66
1, 1403845, Note_on_c, 0, 63, 76
1, 1403848, Note_on_c, 0, 44, 0
1, 1403848, Note_on_c, 0, 46, 85
1, 1403863, Note_on_c, 0, 56, 0
1, 1403863, Note_on_c, 0, 63, 0
1, 1403863, Note_on_c, 0, 60, 0
1, 1403866, Note_on_c, 0, 46, 0
1, 1403928, Note_on_c, 0, 56, 66
1, 1403928, Note_on_c, 0, 60, 66
1, 1403928, Note_on_c, 0, 63, 77
1, 1403931, Note_on_c, 0, 48, 86
1, 1403971, Note_on_c, 0, 63, 0
1, 1403971, Note_on_c, 0, 56, 0
1, 1403971, Note_on_c, 0, 60, 0
1, 1403974, Note_on_c, 0, 48, 0
1, 1404101, Note_on_c, 0, 56, 66
1, 1404101, Note_on_c, 0, 60, 66
1, 1404101, Note_on_c, 0, 63, 80
1, 1404104, Note_on_c, 0, 49, 90
1, 1404148, Note_on_c, 0, 63, 0
1, 1404148, Note_on_c, 0, 56, 0
1, 1404148, Note_on_c, 0, 60, 0
1, 1404151, Note_on_c, 0, 49, 0
1, 1404288, Note_on_c, 0, 56, 70
1, 1404288, Note_on_c, 0, 60, 70
1, 1404288, Note_on_c, 0, 63, 82
1, 1404291, Note_on_c, 0, 51, 94
1, 1404348, Control_c, 0, 64, 127
1, 1404348, Control_c, 0, 64, 127
1, 1404565, Control_c, 0, 64, 0
1, 1404565, Control_c, 0, 64, 0
1, 1404569, Note_on_c, 0, 63, 0
1, 1404569, Note_on_c, 0, 56, 0
1, 1404569, Note_on_c, 0, 60, 0
1, 1404572, Note_on_c, 0, 56, 75
1, 1404572, Note_on_c, 0, 60, 75
1, 1404572, Note_on_c, 0, 65, 86
1, 1404655, Note_on_c, 0, 65, 0
1, 1404655, Note_on_c, 0, 60, 0
1, 1404655, Note_on_c, 0, 56, 0
1, 1404658, Note_on_c, 0, 56, 75
1, 1404658, Note_on_c, 0, 60, 75
1, 1404658, Note_on_c, 0, 67, 89
1, 1404669, Control_c, 0, 64, 0
1, 1404669, Control_c, 0, 64, 0
1, 1404702, Note_on_c, 0, 67, 0
1, 1404702, Note_on_c, 0, 60, 0
1, 1404702, Note_on_c, 0, 56, 0
1, 1404843, Note_on_c, 0, 56, 73
1, 1404843, Note_on_c, 0, 60, 73
1, 1404843, Note_on_c, 0, 68, 92
1, 1404846, Note_on_c, 0, 51, 0
1, 1404846, Note_on_c, 0, 50, 86
1, 1404889, Note_on_c, 0, 56, 0
1, 1404889, Note_on_c, 0, 68, 0
1, 1404889, Note_on_c, 0, 60, 0
1, 1404892, Note_on_c, 0, 50, 0
1, 1405030, Note_on_c, 0, 56, 83
1, 1405030, Note_on_c, 0, 60, 83
1, 1405030, Note_on_c, 0, 68, 93
1, 1405033, Note_on_c, 0, 51, 83
1, 1405089, Control_c, 0, 64, 127
1, 1405089, Control_c, 0, 64, 127
1, 1405289, Note_on_c, 0, 68, 0
1, 1405289, Note_on_c, 0, 56, 0
1, 1405289, Note_on_c, 0, 60, 0
1, 1405292, Note_on_c, 0, 51, 0
1, 1405292, Note_on_c, 0, 56, 79
1, 1405292, Note_on_c, 0, 60, 90
1, 1405295, Control_c, 0, 64, 0
1, 1405295, Note_on_c, 0, 51, 79
1, 1405295, Control_c, 0, 64, 0
1, 1405312, Note_on_c, 0, 60, 0
1, 1405312, Note_on_c, 0, 56, 0
1, 1405383, Note_on_c, 0, 55, 79
1, 1405383, Note_on_c, 0, 58, 87
1, 1405383, Note_on_c, 0, 63, 77
1, 1405386, Note_on_c, 0, 51, 0
1, 1405386, Note_on_c, 0, 39, 77
1, 1405429, Note_on_c, 0, 55, 0
1, 1405429, Note_on_c, 0, 63, 0
1, 1405429, Note_on_c, 0, 58, 0
1, 1405432, Note_on_c, 0, 39, 0
1, 1405570, Note_on_c, 0, 55, 79
1, 1405570, Note_on_c, 0, 59, 87
1, 1405570, Note_on_c, 0, 63, 76
1, 1405573, Note_on_c, 0, 39, 74
1, 1405617, Note_on_c, 0, 63, 0
1, 1405617, Note_on_c, 0, 55, 0
1, 1405617, Note_on_c, 0, 59, 0
1, 1405620, Note_on_c, 0, 39, 0
1, 1405757, Note_on_c, 0, 56, 79
1, 1405757, Note_on_c, 0, 60, 87
1, 1405757, Note_on_c, 0, 63, 76
1, 1405760, Note_on_c, 0, 44, 71
1, 1405801, Control_c, 0, 64, 127
1, 1405801, Control_c, 0, 64, 127
1, 1406065, Control_c, 0, 64, 0
1, 1406065, Control_c, 0, 64, 0
1, 1406131, Note_on_c, 0, 63, 0
1, 1406131, Note_on_c, 0, 56, 0
1, 1406131, Note_on_c, 0, 60, 0
1, 1406134, Note_on_c, 0, 44, 0
1, 1406319, Note_on_c, 0, 68, 104
1, 1406319, Note_on_c, 0, 72, 104
1, 1406319, Note_on_c, 0, 75, 104
1, 1406322, Note_on_c, 0, 80, 117
1, 1406322, Note_on_c, 0, 44, 117
1, 1406322, Note_on_c, 0, 56, 117
1, 1406419, Note_on_c, 0, 75, 0
1, 1406419, Note_on_c, 0, 68, 0
1, 1406419, Note_on_c, 0, 72, 0
1, 1406422, Note_on_c, 0, 80, 0
1, 1406422, Note_on_c, 0, 44, 0
1, 1406422, Note_on_c, 0, 56, 0
1, 1406543, Note_on_c, 0, 65, 102
1, 1406543, Note_on_c, 0, 68, 102
1, 1406543, Note_on_c, 0, 73, 102
1, 1406546, Note_on_c, 0, 77, 116
1, 1406546, Note_on_c, 0, 49, 111
1, 1406546, Note_on_c, 0, 61, 99
1, 1406622, Control_c, 0, 64, 127
1, 1406622, Control_c, 0, 64, 127
1, 1406802, Note_on_c, 0, 73, 0
1, 1406802, Note_on_c, 0, 65, 0
1, 1406802, Note_on_c, 0, 68, 0
1, 1406805, Note_on_c, 0, 77, 0
1, 1406805, Note_on_c, 0, 68, 98
1, 1406805, Note_on_c, 0, 72, 98
1, 1406808, Note_on_c, 0, 49, 0
1, 1406808, Note_on_c, 0, 75, 98
1, 1406808, Note_on_c, 0, 80, 114
1, 1406811, Note_on_c, 0, 61, 0
1, 1406811, Note_on_c, 0, 44, 117
1, 1406811, Note_on_c, 0, 56, 104
1, 1406889, Note_on_c, 0, 75, 0
1, 1406889, Note_on_c, 0, 72, 0
1, 1406889, Note_on_c, 0, 68, 0
1, 1406892, Note_on_c, 0, 80, 0
1, 1406892, Note_on_c, 0, 73, 100
1, 1406892, Note_on_c, 0, 77, 100
1, 1406895, Note_on_c, 0, 44, 0
1, 1406895, Note_on_c, 0, 80, 100
1, 1406895, Note_on_c, 0, 85, 116
1, 1406898, Note_on_c, 0, 56, 0
1, 1406898, Note_on_c, 0, 37, 117
1, 1406898, Note_on_c, 0, 49, 106
1, 1406901, Control_c, 0, 64, 0
1, 1406901, Control_c, 0, 64, 0
1, 1406945, Note_on_c, 0, 80, 0
1, 1406945, Note_on_c, 0, 77, 0
1, 1406945, Note_on_c, 0, 73, 0
1, 1406948, Note_on_c, 0, 85, 0
1, 1406948, Note_on_c, 0, 37, 0
1, 1406948, Note_on_c, 0, 49, 0
1, 1407076, Note_on_c, 0, 75, 103
1, 1407076, Note_on_c, 0, 80, 103
1, 1407076, Note_on_c, 0, 84, 103
1, 1407079, Note_on_c, 0, 87, 117
1, 1407079, Note_on_c, 0, 32, 117
1, 1407079, Note_on_c, 0, 44, 109
1, 1407132, Note_on_c, 0, 84, 0
1, 1407132, Note_on_c, 0, 75, 0
1, 1407132, Note_on_c, 0, 80, 0
1, 1407135, Note_on_c, 0, 87, 0
1, 1407135, Note_on_c, 0, 32, 0
1, 1407135, Note_on_c, 0, 44, 0
1, 1407263, Note_on_c, 0, 77, 106
1, 1407263, Note_on_c, 0, 80, 106
1, 1407263, Note_on_c, 0, 85, 106
1, 1407266, Note_on_c, 0, 89, 117
1, 1407266, Note_on_c, 0, 25, 117
1, 1407266, Note_on_c, 0, 37, 112
1, 1407310, Control_c, 0, 64, 127
1, 1407310, Control_c, 0, 64, 127
1, 1407544, Note_on_c, 0, 85, 0
1, 1407544, Note_on_c, 0, 77, 0
1, 1407544, Note_on_c, 0, 80, 0
1, 1407547, Note_on_c, 0, 89, 0
1, 1407547, Note_on_c, 0, 75, 96
1, 1407547, Note_on_c, 0, 87, 111
1, 1407630, Note_on_c, 0, 87, 0
1, 1407630, Note_on_c, 0, 75, 0
1, 1407630, Note_on_c, 0, 73, 96
1, 1407633, Note_on_c, 0, 25, 0
1, 1407633, Note_on_c, 0, 37, 0
1, 1407633, Note_on_c, 0, 85, 111
1, 1407645, Control_c, 0, 64, 0
1, 1407645, Control_c, 0, 64, 0
1, 1407682, Note_on_c, 0, 85, 0
1, 1407682, Note_on_c, 0, 73, 0
1, 1407803, Note_on_c, 0, 72, 96
1, 1407803, Note_on_c, 0, 77, 96
1, 1407803, Note_on_c, 0, 81, 96
1, 1407806, Note_on_c, 0, 84, 111
1, 1407806, Note_on_c, 0, 53, 98
1, 1407806, Note_on_c, 0, 65, 87
1, 1407859, Note_on_c, 0, 81, 0
1, 1407859, Note_on_c, 0, 72, 0
1, 1407859, Note_on_c, 0, 77, 0
1, 1407862, Note_on_c, 0, 84, 0
1, 1407887, Note_on_c, 0, 53, 0
1, 1407887, Note_on_c, 0, 65, 0
1, 1407990, Note_on_c, 0, 73, 107
1, 1407990, Note_on_c, 0, 77, 107
1, 1407990, Note_on_c, 0, 82, 107
1, 1407993, Note_on_c, 0, 85, 117
1, 1407993, Note_on_c, 0, 58, 100
1, 1407993, Note_on_c, 0, 65, 89
1, 1408049, Control_c, 0, 64, 127
1, 1408049, Control_c, 0, 64, 127
1, 1408250, Note_on_c, 0, 82, 0
1, 1408250, Note_on_c, 0, 73, 0
1, 1408250, Note_on_c, 0, 77, 0
1, 1408253, Note_on_c, 0, 85, 0
1, 1408253, Note_on_c, 0, 72, 96
1, 1408253, Note_on_c, 0, 77, 96
1, 1408256, Note_on_c, 0, 58, 0
1, 1408256, Note_on_c, 0, 81, 96
1, 1408256, Note_on_c, 0, 84, 111
1, 1408259, Note_on_c, 0, 65, 0
1, 1408259, Note_on_c, 0, 53, 102
1, 1408259, Note_on_c, 0, 65, 91
1, 1408336, Note_on_c, 0, 81, 0
1, 1408336, Note_on_c, 0, 77, 0
1, 1408336, Note_on_c, 0, 72, 0
1, 1408339, Note_on_c, 0, 84, 0
1, 1408339, Note_on_c, 0, 73, 96
1, 1408339, Note_on_c, 0, 77, 96
1, 1408342, Note_on_c, 0, 53, 0
1, 1408342, Note_on_c, 0, 82, 96
1, 1408342, Note_on_c, 0, 85, 111
1, 1408345, Note_on_c, 0, 65, 0
1, 1408345, Control_c, 0, 64, 0
1, 1408345, Note_on_c, 0, 58, 103
1, 1408345, Note_on_c, 0, 65, 91
1, 1408345, Control_c, 0, 64, 0
1, 1408392, Note_on_c, 0, 82, 0
1, 1408392, Note_on_c, 0, 77, 0
1, 1408392, Note_on_c, 0, 73, 0
1, 1408395, Note_on_c, 0, 85, 0
1, 1408395, Note_on_c, 0, 58, 0
1, 1408395, Note_on_c, 0, 65, 0
1, 1408523, Note_on_c, 0, 72, 90
1, 1408523, Note_on_c, 0, 77, 90
1, 1408523, Note_on_c, 0, 81, 90
1, 1408526, Note_on_c, 0, 84, 112
1, 1408526, Note_on_c, 0, 53, 104
1, 1408526, Note_on_c, 0, 65, 93
1, 1408585, Note_on_c, 0, 81, 0
1, 1408585, Note_on_c, 0, 72, 0
1, 1408585, Note_on_c, 0, 77, 0
1, 1408588, Note_on_c, 0, 84, 0
1, 1408588, Note_on_c, 0, 53, 0
1, 1408588, Note_on_c, 0, 65, 0
1, 1408727, Note_on_c, 0, 73, 100
1, 1408727, Note_on_c, 0, 77, 100
1, 1408727, Note_on_c, 0, 82, 100
1, 1408730, Note_on_c, 0, 85, 115
1, 1408730, Note_on_c, 0, 58, 106
1, 1408730, Note_on_c, 0, 65, 94
1, 1408793, Control_c, 0, 64, 127
1, 1408793, Control_c, 0, 64, 127
1, 1409108, Control_c, 0, 64, 0
1, 1409108, Control_c, 0, 64, 0
1, 1409136, Note_on_c, 0, 82, 0
1, 1409136, Note_on_c, 0, 73, 0
1, 1409136, Note_on_c, 0, 77, 0
1, 1409139, Note_on_c, 0, 85, 0
1, 1409139, Note_on_c, 0, 58, 0
1, 1409139, Note_on_c, 0, 65, 0
1, 1409340, Note_on_c, 0, 80, 103
1, 1409340, Note_on_c, 0, 82, 103
1, 1409340, Note_on_c, 0, 89, 103
1, 1409343, Note_on_c, 0, 92, 117
1, 1409343, Note_on_c, 0, 34, 99
1, 1409343, Note_on_c, 0, 46, 108
1, 1409396, Note_on_c, 0, 46, 0
1, 1409396, Note_on_c, 0, 34, 0
1, 1409441, Note_on_c, 0, 80, 0
1, 1409441, Note_on_c, 0, 89, 0
1, 1409441, Note_on_c, 0, 82, 0
1, 1409444, Note_on_c, 0, 92, 0
1, 1409565, Note_on_c, 0, 78, 103
1, 1409565, Note_on_c, 0, 82, 103
1, 1409565, Note_on_c, 0, 87, 103
1, 1409568, Note_on_c, 0, 90, 117
1, 1409568, Note_on_c, 0, 39, 99
1, 1409568, Note_on_c, 0, 46, 99
1, 1409571, Note_on_c, 0, 51, 108
1, 1409649, Control_c, 0, 64, 127
1, 1409649, Control_c, 0, 64, 127
1, 1409824, Note_on_c, 0, 87, 0
1, 1409824, Note_on_c, 0, 78, 0
1, 1409824, Note_on_c, 0, 82, 0
1, 1409827, Note_on_c, 0, 90, 0
1, 1409827, Note_on_c, 0, 77, 103
1, 1409827, Note_on_c, 0, 82, 103
1, 1409830, Note_on_c, 0, 39, 0
1, 1409830, Note_on_c, 0, 46, 0
1, 1409830, Note_on_c, 0, 89, 115
1, 1409833, Note_on_c, 0, 51, 0
1, 1409833, Note_on_c, 0, 41, 89
1, 1409833, Note_on_c, 0, 46, 89
1, 1409836, Note_on_c, 0, 53, 97
1, 1409893, Control_c, 0, 64, 0
1, 1409893, Control_c, 0, 64, 0
1, 1409910, Note_on_c, 0, 77, 0
1, 1409910, Note_on_c, 0, 89, 0
1, 1409910, Note_on_c, 0, 82, 0
1, 1409913, Note_on_c, 0, 75, 103
1, 1409913, Note_on_c, 0, 82, 103
1, 1409913, Note_on_c, 0, 87, 115
1, 1409916, Note_on_c, 0, 41, 0
1, 1409916, Note_on_c, 0, 53, 0
1, 1409916, Note_on_c, 0, 46, 0
1, 1409919, Note_on_c, 0, 42, 90
1, 1409919, Note_on_c, 0, 46, 90
1, 1409919, Note_on_c, 0, 54, 98
1, 1409976, Note_on_c, 0, 75, 0
1, 1409976, Note_on_c, 0, 87, 0
1, 1409976, Note_on_c, 0, 82, 0
1, 1409979, Note_on_c, 0, 42, 0
1, 1409979, Note_on_c, 0, 46, 0
1, 1409979, Note_on_c, 0, 54, 0
1, 1410097, Note_on_c, 0, 73, 103
1, 1410097, Note_on_c, 0, 75, 103
1, 1410097, Note_on_c, 0, 82, 103
1, 1410100, Note_on_c, 0, 85, 115
1, 1410100, Note_on_c, 0, 43, 92
1, 1410100, Note_on_c, 0, 46, 92
1, 1410103, Note_on_c, 0, 55, 100
1, 1410163, Note_on_c, 0, 82, 0
1, 1410163, Note_on_c, 0, 73, 0
1, 1410163, Note_on_c, 0, 75, 0
1, 1410166, Note_on_c, 0, 43, 0
1, 1410166, Note_on_c, 0, 85, 0
1, 1410166, Note_on_c, 0, 46, 0
1, 1410169, Note_on_c, 0, 55, 0
1, 1410285, Note_on_c, 0, 72, 103
1, 1410285, Note_on_c, 0, 75, 103
1, 1410285, Note_on_c, 0, 80, 103
1, 1410288, Note_on_c, 0, 84, 117
1, 1410288, Note_on_c, 0, 44, 94
1, 1410288, Note_on_c, 0, 51, 94
1, 1410291, Note_on_c, 0, 56, 102
1, 1410327, Control_c, 0, 64, 127
1, 1410327, Control_c, 0, 64, 127
1, 1410544, Note_on_c, 0, 80, 0
1, 1410544, Note_on_c, 0, 72, 0
1, 1410544, Note_on_c, 0, 75, 0
1, 1410547, Note_on_c, 0, 84, 0
1, 1410547, Note_on_c, 0, 70, 103
1, 1410547, Note_on_c, 0, 75, 103
1, 1410550, Note_on_c, 0, 44, 0
1, 1410550, Note_on_c, 0, 51, 0
1, 1410550, Note_on_c, 0, 82, 115
1, 1410553, Note_on_c, 0, 56, 0
1, 1410553, Note_on_c, 0, 46, 96
1, 1410553, Note_on_c, 0, 51, 96
1, 1410556, Control_c, 0, 64, 0
1, 1410556, Note_on_c, 0, 58, 105
1, 1410556, Control_c, 0, 64, 0
1, 1410630, Note_on_c, 0, 70, 0
1, 1410630, Note_on_c, 0, 82, 0
1, 1410630, Note_on_c, 0, 75, 0
1, 1410633, Note_on_c, 0, 68, 103
1, 1410633, Note_on_c, 0, 75, 103
1, 1410633, Note_on_c, 0, 80, 115
1, 1410636, Note_on_c, 0, 46, 0
1, 1410636, Note_on_c, 0, 58, 0
1, 1410636, Note_on_c, 0, 51, 0
1, 1410639, Note_on_c, 0, 48, 97
1, 1410639, Note_on_c, 0, 51, 97
1, 1410639, Note_on_c, 0, 60, 106
1, 1410696, Note_on_c, 0, 68, 0
1, 1410696, Note_on_c, 0, 80, 0
1, 1410696, Note_on_c, 0, 75, 0
1, 1410699, Note_on_c, 0, 48, 0
1, 1410699, Note_on_c, 0, 51, 0
1, 1410699, Note_on_c, 0, 60, 0
1, 1410817, Note_on_c, 0, 65, 97
1, 1410817, Note_on_c, 0, 68, 97
1, 1410817, Note_on_c, 0, 77, 109
1, 1410820, Note_on_c, 0, 49, 99
1, 1410820, Note_on_c, 0, 56, 99
1, 1410820, Note_on_c, 0, 61, 108
1, 1410889, Note_on_c, 0, 77, 0
1, 1410889, Note_on_c, 0, 65, 0
1, 1410889, Note_on_c, 0, 68, 0
1, 1410892, Note_on_c, 0, 49, 0
1, 1410892, Note_on_c, 0, 56, 0
1, 1410892, Note_on_c, 0, 61, 0
1, 1411022, Note_on_c, 0, 63, 103
1, 1411022, Note_on_c, 0, 68, 103
1, 1411022, Note_on_c, 0, 75, 115
1, 1411025, Note_on_c, 0, 51, 99
1, 1411025, Note_on_c, 0, 56, 99
1, 1411025, Note_on_c, 0, 60, 108
1, 1411055, Control_c, 0, 64, 127
1, 1411055, Control_c, 0, 64, 127
1, 1411281, Note_on_c, 0, 75, 0
1, 1411281, Note_on_c, 0, 63, 0
1, 1411281, Note_on_c, 0, 68, 0
1, 1411284, Note_on_c, 0, 63, 100
1, 1411284, Note_on_c, 0, 68, 100
1, 1411284, Note_on_c, 0, 75, 112
1, 1411287, Note_on_c, 0, 51, 0
1, 1411287, Note_on_c, 0, 60, 0
1, 1411287, Note_on_c, 0, 56, 0
1, 1411290, Note_on_c, 0, 51, 94
1, 1411290, Note_on_c, 0, 56, 94
1, 1411290, Note_on_c, 0, 60, 102
1, 1411361, Control_c, 0, 64, 0
1, 1411361, Control_c, 0, 64, 0
1, 1411367, Note_on_c, 0, 63, 0
1, 1411367, Note_on_c, 0, 75, 0
1, 1411367, Note_on_c, 0, 68, 0
1, 1411370, Note_on_c, 0, 63, 100
1, 1411370, Note_on_c, 0, 68, 100
1, 1411370, Note_on_c, 0, 75, 111
1, 1411373, Note_on_c, 0, 51, 0
1, 1411373, Note_on_c, 0, 60, 0
1, 1411373, Note_on_c, 0, 56, 0
1, 1411376, Note_on_c, 0, 51, 92
1, 1411376, Note_on_c, 0, 56, 92
1, 1411376, Note_on_c, 0, 60, 101
1, 1411429, Note_on_c, 0, 63, 0
1, 1411429, Note_on_c, 0, 75, 0
1, 1411429, Note_on_c, 0, 68, 0
1, 1411432, Note_on_c, 0, 51, 0
1, 1411432, Note_on_c, 0, 56, 0
1, 1411432, Note_on_c, 0, 60, 0
1, 1411572, Note_on_c, 0, 61, 90
1, 1411572, Note_on_c, 0, 63, 90
1, 1411572, Note_on_c, 0, 67, 101
1, 1411575, Note_on_c, 0, 51, 89
1, 1411575, Note_on_c, 0, 58, 97
1, 1411647, Note_on_c, 0, 67, 0
1, 1411647, Note_on_c, 0, 61, 0
1, 1411647, Note_on_c, 0, 63, 0
1, 1411650, Note_on_c, 0, 51, 0
1, 1411650, Note_on_c, 0, 58, 0
1, 1411821, Note_on_c, 0, 60, 89
1, 1411821, Note_on_c, 0, 68, 100
1, 1411821, Note_on_c, 0, 44, 86
1, 1411824, Note_on_c, 0, 51, 86
1, 1411824, Note_on_c, 0, 56, 93
1, 1412230, Note_on_c, 0, 44, 0
1, 1412230, Note_on_c, 0, 60, 0
1, 1412230, Note_on_c, 0, 68, 0
1, 1412233, Note_on_c, 0, 51, 0
1, 1412233, Note_on_c, 0, 56, 0
1, 1412434, Note_on_c, 0, 63, 85
1, 1412434, Note_on_c, 0, 51, 72
1, 1412505, Note_on_c, 0, 51, 0
1, 1412505, Note_on_c, 0, 63, 0
1, 1412638, Note_on_c, 0, 60, 78
1, 1412638, Note_on_c, 0, 63, 78
1, 1412638, Note_on_c, 0, 68, 90
1, 1412641, Note_on_c, 0, 44, 65
1, 1412641, Note_on_c, 0, 56, 75
1, 1412719, Control_c, 0, 64, 127
1, 1412719, Control_c, 0, 64, 127
1, 1412897, Note_on_c, 0, 68, 0
1, 1412897, Note_on_c, 0, 60, 0
1, 1412897, Note_on_c, 0, 63, 0
1, 1412900, Note_on_c, 0, 64, 80
1, 1412900, Note_on_c, 0, 67, 80
1, 1412900, Note_on_c, 0, 70, 92
1, 1412903, Note_on_c, 0, 44, 0
1, 1412903, Note_on_c, 0, 56, 0
1, 1412903, Note_on_c, 0, 52, 67
1, 1412906, Note_on_c, 0, 55, 67
1, 1412906, Note_on_c, 0, 58, 77
1, 1412954, Control_c, 0, 64, 0
1, 1412954, Control_c, 0, 64, 0
1, 1412984, Note_on_c, 0, 67, 0
1, 1412984, Note_on_c, 0, 70, 0
1, 1412984, Note_on_c, 0, 64, 0
1, 1412987, Note_on_c, 0, 63, 80
1, 1412987, Note_on_c, 0, 68, 80
1, 1412987, Note_on_c, 0, 72, 93
1, 1412990, Note_on_c, 0, 52, 0
1, 1412990, Note_on_c, 0, 58, 0
1, 1412990, Note_on_c, 0, 55, 0
1, 1412993, Note_on_c, 0, 51, 67
1, 1412993, Note_on_c, 0, 56, 67
1, 1412993, Note_on_c, 0, 60, 78
1, 1413040, Note_on_c, 0, 63, 0
1, 1413040, Note_on_c, 0, 72, 0
1, 1413040, Note_on_c, 0, 68, 0
1, 1413043, Note_on_c, 0, 51, 0
1, 1413043, Note_on_c, 0, 56, 0
1, 1413043, Note_on_c, 0, 60, 0
1, 1413171, Note_on_c, 0, 67, 81
1, 1413171, Note_on_c, 0, 70, 81
1, 1413171, Note_on_c, 0, 73, 94
1, 1413174, Note_on_c, 0, 55, 69
1, 1413174, Note_on_c, 0, 58, 69
1, 1413174, Note_on_c, 0, 61, 80
1, 1413227, Note_on_c, 0, 73, 0
1, 1413227, Note_on_c, 0, 67, 0
1, 1413227, Note_on_c, 0, 70, 0
1, 1413230, Note_on_c, 0, 55, 0
1, 1413230, Note_on_c, 0, 58, 0
1, 1413230, Note_on_c, 0, 61, 0
1, 1413358, Note_on_c, 0, 69, 82
1, 1413358, Note_on_c, 0, 72, 82
1, 1413358, Note_on_c, 0, 75, 96
1, 1413361, Note_on_c, 0, 54, 70
1, 1413361, Note_on_c, 0, 60, 70
1, 1413361, Note_on_c, 0, 63, 81
1, 1413426, Note_on_c, 0, 75, 0
1, 1413426, Note_on_c, 0, 69, 0
1, 1413426, Note_on_c, 0, 72, 0
1, 1413429, Note_on_c, 0, 54, 0
1, 1413429, Note_on_c, 0, 60, 0
1, 1413429, Note_on_c, 0, 63, 0
1, 1413583, Note_on_c, 0, 69, 84
1, 1413583, Note_on_c, 0, 72, 84
1, 1413583, Note_on_c, 0, 77, 98
1, 1413586, Note_on_c, 0, 53, 71
1, 1413586, Note_on_c, 0, 60, 71
1, 1413586, Note_on_c, 0, 65, 83
1, 1413662, Note_on_c, 0, 77, 0
1, 1413662, Note_on_c, 0, 69, 0
1, 1413662, Note_on_c, 0, 72, 0
1, 1413665, Note_on_c, 0, 53, 0
1, 1413665, Note_on_c, 0, 60, 0
1, 1413665, Note_on_c, 0, 65, 0
1, 1413847, Note_on_c, 0, 69, 92
1, 1413847, Note_on_c, 0, 72, 92
1, 1413847, Note_on_c, 0, 78, 106
1, 1413850, Note_on_c, 0, 51, 77
1, 1413850, Note_on_c, 0, 60, 77
1, 1413850, Note_on_c, 0, 66, 89
1, 1413916, Control_c, 0, 64, 127
1, 1413916, Control_c, 0, 64, 127
1, 1414255, Note_on_c, 0, 51, 0
1, 1414255, Note_on_c, 0, 72, 0
1, 1414255, Note_on_c, 0, 69, 0
1, 1414258, Note_on_c, 0, 60, 0
1, 1414273, Control_c, 0, 64, 127
1, 1414273, Control_c, 0, 64, 127
1, 1414460, Note_on_c, 0, 78, 0
1, 1414460, Note_on_c, 0, 68, 86
1, 1414460, Note_on_c, 0, 73, 86
1, 1414463, Note_on_c, 0, 66, 0
1, 1414463, Note_on_c, 0, 77, 100
1, 1414463, Note_on_c, 0, 53, 83
1, 1414466, Note_on_c, 0, 61, 71
1, 1414466, Note_on_c, 0, 65, 70
1, 1414490, Control_c, 0, 64, 0
1, 1414490, Control_c, 0, 64, 0
1, 1414664, Note_on_c, 0, 77, 0
1, 1414664, Note_on_c, 0, 68, 0
1, 1414664, Note_on_c, 0, 73, 0
1, 1414667, Note_on_c, 0, 69, 83
1, 1414667, Note_on_c, 0, 72, 83
1, 1414667, Note_on_c, 0, 75, 97
1, 1414670, Note_on_c, 0, 53, 0
1, 1414670, Note_on_c, 0, 65, 0
1, 1414670, Note_on_c, 0, 61, 0
1, 1414673, Note_on_c, 0, 54, 81
1, 1414673, Note_on_c, 0, 60, 69
1, 1414673, Note_on_c, 0, 63, 68
1, 1414868, Note_on_c, 0, 69, 0
1, 1414868, Note_on_c, 0, 75, 0
1, 1414868, Note_on_c, 0, 72, 0
1, 1414871, Note_on_c, 0, 70, 81
1, 1414871, Note_on_c, 0, 73, 81
1, 1414871, Note_on_c, 0, 75, 94
1, 1414874, Note_on_c, 0, 54, 0
1, 1414874, Note_on_c, 0, 63, 0
1, 1414874, Note_on_c, 0, 60, 0
1, 1414877, Note_on_c, 0, 55, 79
1, 1414877, Note_on_c, 0, 61, 67
1, 1414877, Note_on_c, 0, 63, 66
1, 1415093, Note_on_c, 0, 70, 0
1, 1415093, Note_on_c, 0, 75, 0
1, 1415093, Note_on_c, 0, 73, 0
1, 1415096, Note_on_c, 0, 68, 79
1, 1415096, Note_on_c, 0, 72, 79
1, 1415096, Note_on_c, 0, 75, 91
1, 1415099, Note_on_c, 0, 55, 0
1, 1415099, Note_on_c, 0, 63, 0
1, 1415099, Note_on_c, 0, 61, 0
1, 1415102, Note_on_c, 0, 56, 78
1, 1415102, Note_on_c, 0, 60, 66
1, 1415102, Note_on_c, 0, 63, 64
1, 1415121, Control_c, 0, 64, 127
1, 1415121, Control_c, 0, 64, 127
1, 1415317, Note_on_c, 0, 68, 0
1, 1415317, Note_on_c, 0, 75, 0
1, 1415317, Note_on_c, 0, 72, 0
1, 1415320, Note_on_c, 0, 68, 83
1, 1415320, Note_on_c, 0, 73, 83
1, 1415320, Note_on_c, 0, 76, 94
1, 1415323, Note_on_c, 0, 56, 0
1, 1415323, Note_on_c, 0, 63, 0
1, 1415323, Note_on_c, 0, 60, 0
1, 1415326, Note_on_c, 0, 56, 64
1, 1415326, Note_on_c, 0, 61, 64
1, 1415326, Note_on_c, 0, 64, 74
1, 1415344, Control_c, 0, 64, 0
1, 1415344, Control_c, 0, 64, 0
1, 1415407, Control_c, 0, 64, 127
1, 1415407, Control_c, 0, 64, 127
1, 1415567, Note_on_c, 0, 68, 0
1, 1415567, Note_on_c, 0, 76, 0
1, 1415567, Note_on_c, 0, 73, 0
1, 1415570, Note_on_c, 0, 68, 75
1, 1415570, Note_on_c, 0, 72, 75
1, 1415570, Note_on_c, 0, 75, 86
1, 1415573, Note_on_c, 0, 56, 0
1, 1415573, Note_on_c, 0, 64, 0
1, 1415573, Note_on_c, 0, 61, 0
1, 1415576, Note_on_c, 0, 56, 62
1, 1415576, Note_on_c, 0, 60, 62
1, 1415576, Note_on_c, 0, 63, 72
1, 1415641, Control_c, 0, 64, 0
1, 1415641, Control_c, 0, 64, 0
1, 1415816, Note_on_c, 0, 68, 0
1, 1415816, Note_on_c, 0, 75, 0
1, 1415816, Note_on_c, 0, 72, 0
1, 1415819, Note_on_c, 0, 56, 0
1, 1415819, Note_on_c, 0, 60, 0
1, 1415819, Note_on_c, 0, 68, 85
1, 1415822, Note_on_c, 0, 63, 0
1, 1416041, Note_on_c, 0, 68, 0
1, 1416041, Note_on_c, 0, 64, 83
1, 1416041, Note_on_c, 0, 61, 77
1, 1416044, Note_on_c, 0, 49, 77
1, 1416200, Control_c, 0, 64, 127
1, 1416200, Control_c, 0, 64, 127
1, 1416266, Note_on_c, 0, 68, 87
1, 1416453, Note_on_c, 0, 73, 91
1, 1416453, Note_on_c, 0, 59, 80
1, 1416460, Note_on_c, 0, 68, 0
1, 1416460, Note_on_c, 0, 61, 0
1, 1416640, Note_on_c, 0, 75, 95
1, 1416647, Note_on_c, 0, 73, 0
1, 1416827, Note_on_c, 0, 64, 0
1, 1416827, Note_on_c, 0, 64, 77
1, 1416827, Note_on_c, 0, 76, 95
1, 1416830, Control_c, 0, 64, 0
1, 1416830, Note_on_c, 0, 42, 80
1, 1416830, Note_on_c, 0, 58, 85
1, 1416830, Control_c, 0, 64, 0
1, 1416835, Note_on_c, 0, 49, 0
1, 1416835, Note_on_c, 0, 75, 0
1, 1416835, Note_on_c, 0, 59, 0
1, 1417134, Note_on_c, 0, 75, 93
1, 1417142, Note_on_c, 0, 76, 0
1, 1417236, Note_on_c, 0, 73, 89
1, 1417236, Note_on_c, 0, 43, 82
1, 1417244, Note_on_c, 0, 75, 0
1, 1417244, Note_on_c, 0, 42, 0
1, 1417310, Control_c, 0, 64, 127
1, 1417310, Control_c, 0, 64, 127
1, 1417440, Note_on_c, 0, 57, 78
1, 1417449, Note_on_c, 0, 58, 0
1, 1417605, Control_c, 0, 64, 0
1, 1417605, Control_c, 0, 64, 0
1, 1417665, Note_on_c, 0, 64, 0
1, 1417665, Note_on_c, 0, 56, 88
1, 1417665, Note_on_c, 0, 64, 71
1, 1417668, Note_on_c, 0, 68, 71
1, 1417668, Note_on_c, 0, 44, 74
1, 1417673, Note_on_c, 0, 73, 0
1, 1417673, Note_on_c, 0, 57, 0
1, 1417673, Note_on_c, 0, 43, 0
1, 1417754, Control_c, 0, 64, 127
1, 1417754, Control_c, 0, 64, 127
1, 1417889, Note_on_c, 0, 61, 94
1, 1417897, Note_on_c, 0, 56, 0
1, 1418094, Note_on_c, 0, 64, 0
1, 1418094, Note_on_c, 0, 68, 0
1, 1418094, Note_on_c, 0, 64, 99
1, 1418101, Note_on_c, 0, 61, 0
1, 1418281, Note_on_c, 0, 66, 104
1, 1418281, Note_on_c, 0, 52, 88
1, 1418288, Note_on_c, 0, 64, 0
1, 1418423, Control_c, 0, 64, 0
1, 1418423, Control_c, 0, 64, 0
1, 1418468, Note_on_c, 0, 44, 0
1, 1418468, Note_on_c, 0, 64, 90
1, 1418468, Note_on_c, 0, 68, 104
1, 1418471, Note_on_c, 0, 49, 86
1, 1418471, Note_on_c, 0, 44, 78
1, 1418477, Note_on_c, 0, 66, 0
1, 1418477, Note_on_c, 0, 52, 0
1, 1418532, Control_c, 0, 64, 127
1, 1418532, Control_c, 0, 64, 127
1, 1418693, Note_on_c, 0, 52, 93
1, 1418701, Note_on_c, 0, 49, 0
1, 1418805, Note_on_c, 0, 64, 0
1, 1418805, Note_on_c, 0, 61, 85
1, 1418805, Note_on_c, 0, 64, 95
1, 1418814, Note_on_c, 0, 68, 0
1, 1418917, Note_on_c, 0, 60, 78
1, 1418917, Note_on_c, 0, 63, 89
1, 1418917, Note_on_c, 0, 56, 99
1, 1418926, Note_on_c, 0, 61, 0
1, 1418926, Note_on_c, 0, 64, 0
1, 1418926, Note_on_c, 0, 52, 0
1, 1418929, Control_c, 0, 64, 0
1, 1418929, Control_c, 0, 64, 0
1, 1419142, Note_on_c, 0, 68, 106
1, 1419142, Note_on_c, 0, 75, 106
1, 1419142, Note_on_c, 0, 80, 117
1, 1419145, Note_on_c, 0, 56, 0
1, 1419145, Note_on_c, 0, 60, 103
1, 1419145, Note_on_c, 0, 48, 83
1, 1419151, Note_on_c, 0, 60, 0
1, 1419151, Note_on_c, 0, 44, 0
1, 1419151, Note_on_c, 0, 63, 0
1, 1419209, Note_on_c, 0, 80, 0
1, 1419209, Note_on_c, 0, 68, 0
1, 1419209, Note_on_c, 0, 75, 0
1, 1419212, Note_on_c, 0, 48, 0
1, 1419212, Note_on_c, 0, 60, 0
1, 1419366, Note_on_c, 0, 65, 102
1, 1419366, Note_on_c, 0, 73, 102
1, 1419366, Note_on_c, 0, 77, 116
1, 1419369, Note_on_c, 0, 49, 111
1, 1419369, Note_on_c, 0, 61, 99
1, 1419446, Control_c, 0, 64, 127
1, 1419446, Control_c, 0, 64, 127
1, 1419626, Note_on_c, 0, 77, 0
1, 1419626, Note_on_c, 0, 65, 0
1, 1419626, Note_on_c, 0, 73, 0
1, 1419629, Note_on_c, 0, 68, 98
1, 1419629, Note_on_c, 0, 75, 98
1, 1419629, Note_on_c, 0, 80, 114
1, 1419632, Note_on_c, 0, 49, 0
1, 1419632, Note_on_c, 0, 61, 0
1, 1419632, Note_on_c, 0, 48, 117
1, 1419635, Note_on_c, 0, 60, 104
1, 1419712, Note_on_c, 0, 75, 0
1, 1419712, Note_on_c, 0, 80, 0
1, 1419712, Note_on_c, 0, 68, 0
1, 1419715, Note_on_c, 0, 73, 100
1, 1419715, Note_on_c, 0, 77, 100
1, 1419715, Note_on_c, 0, 85, 116
1, 1419718, Note_on_c, 0, 48, 0
1, 1419718, Note_on_c, 0, 60, 0
1, 1419718, Note_on_c, 0, 46, 117
1, 1419721, Control_c, 0, 64, 0
1, 1419721, Note_on_c, 0, 58, 106
1, 1419721, Control_c, 0, 64, 0
1, 1419768, Note_on_c, 0, 77, 0
1, 1419768, Note_on_c, 0, 85, 0
1, 1419768, Note_on_c, 0, 73, 0
1, 1419778, Note_on_c, 0, 46, 0
1, 1419778, Note_on_c, 0, 58, 0
1, 1419899, Note_on_c, 0, 75, 103
1, 1419899, Note_on_c, 0, 80, 103
1, 1419899, Note_on_c, 0, 84, 103
1, 1419902, Note_on_c, 0, 87, 117
1, 1419902, Note_on_c, 0, 44, 117
1, 1419902, Note_on_c, 0, 56, 109
1, 1419956, Note_on_c, 0, 84, 0
1, 1419956, Note_on_c, 0, 75, 0
1, 1419956, Note_on_c, 0, 80, 0
1, 1419959, Note_on_c, 0, 87, 0
1, 1419965, Note_on_c, 0, 44, 0
1, 1419965, Note_on_c, 0, 56, 0
1, 1420086, Note_on_c, 0, 77, 106
1, 1420086, Note_on_c, 0, 80, 106
1, 1420086, Note_on_c, 0, 85, 106
1, 1420089, Note_on_c, 0, 89, 117
1, 1420089, Note_on_c, 0, 37, 117
1, 1420089, Note_on_c, 0, 49, 112
1, 1420133, Control_c, 0, 64, 127
1, 1420133, Control_c, 0, 64, 127
1, 1420367, Note_on_c, 0, 85, 0
1, 1420367, Note_on_c, 0, 77, 0
1, 1420367, Note_on_c, 0, 80, 0
1, 1420370, Note_on_c, 0, 89, 0
1, 1420370, Note_on_c, 0, 75, 96
1, 1420370, Note_on_c, 0, 87, 111
1, 1420454, Note_on_c, 0, 87, 0
1, 1420454, Note_on_c, 0, 75, 0
1, 1420454, Note_on_c, 0, 73, 96
1, 1420457, Note_on_c, 0, 37, 0
1, 1420457, Note_on_c, 0, 49, 0
1, 1420457, Note_on_c, 0, 85, 111
1, 1420468, Control_c, 0, 64, 0
1, 1420468, Control_c, 0, 64, 0
1, 1420506, Note_on_c, 0, 85, 0
1, 1420506, Note_on_c, 0, 73, 0
1, 1420626, Note_on_c, 0, 72, 96
1, 1420626, Note_on_c, 0, 77, 96
1, 1420626, Note_on_c, 0, 81, 96
1, 1420629, Note_on_c, 0, 84, 111
1, 1420629, Note_on_c, 0, 53, 98
1, 1420629, Note_on_c, 0, 65, 87
1, 1420683, Note_on_c, 0, 81, 0
1, 1420683, Note_on_c, 0, 72, 0
1, 1420683, Note_on_c, 0, 77, 0
1, 1420686, Note_on_c, 0, 84, 0
1, 1420686, Note_on_c, 0, 53, 0
1, 1420686, Note_on_c, 0, 65, 0
1, 1420814, Note_on_c, 0, 73, 107
1, 1420814, Note_on_c, 0, 77, 107
1, 1420814, Note_on_c, 0, 82, 107
1, 1420817, Note_on_c, 0, 85, 117
1, 1420817, Note_on_c, 0, 58, 100
1, 1420817, Note_on_c, 0, 65, 89
1, 1420873, Control_c, 0, 64, 127
1, 1420873, Control_c, 0, 64, 127
1, 1421073, Note_on_c, 0, 82, 0
1, 1421073, Note_on_c, 0, 73, 0
1, 1421073, Note_on_c, 0, 77, 0
1, 1421076, Note_on_c, 0, 85, 0
1, 1421076, Note_on_c, 0, 72, 96
1, 1421076, Note_on_c, 0, 77, 96
1, 1421079, Note_on_c, 0, 58, 0
1, 1421079, Note_on_c, 0, 81, 96
1, 1421079, Note_on_c, 0, 84, 111
1, 1421082, Note_on_c, 0, 65, 0
1, 1421082, Note_on_c, 0, 53, 102
1, 1421082, Note_on_c, 0, 65, 91
1, 1421159, Note_on_c, 0, 81, 0
1, 1421159, Note_on_c, 0, 77, 0
1, 1421159, Note_on_c, 0, 72, 0
1, 1421162, Note_on_c, 0, 84, 0
1, 1421162, Note_on_c, 0, 73, 96
1, 1421162, Note_on_c, 0, 77, 96
1, 1421165, Note_on_c, 0, 53, 0
1, 1421165, Note_on_c, 0, 82, 96
1, 1421165, Note_on_c, 0, 85, 111
1, 1421168, Note_on_c, 0, 65, 0
1, 1421168, Control_c, 0, 64, 0
1, 1421168, Note_on_c, 0, 58, 103
1, 1421168, Note_on_c, 0, 65, 91
1, 1421168, Control_c, 0, 64, 0
1, 1421216, Note_on_c, 0, 82, 0
1, 1421216, Note_on_c, 0, 77, 0
1, 1421216, Note_on_c, 0, 73, 0
1, 1421219, Note_on_c, 0, 85, 0
1, 1421219, Note_on_c, 0, 58, 0
1, 1421219, Note_on_c, 0, 65, 0
1, 1421346, Note_on_c, 0, 72, 90
1, 1421346, Note_on_c, 0, 77, 90
1, 1421346, Note_on_c, 0, 81, 90
1, 1421349, Note_on_c, 0, 84, 112
1, 1421349, Note_on_c, 0, 53, 104
1, 1421349, Note_on_c, 0, 65, 93
1, 1421408, Note_on_c, 0, 81, 0
1, 1421408, Note_on_c, 0, 72, 0
1, 1421408, Note_on_c, 0, 77, 0
1, 1421411, Note_on_c, 0, 84, 0
1, 1421411, Note_on_c, 0, 53, 0
1, 1421411, Note_on_c, 0, 65, 0
1, 1421551, Note_on_c, 0, 73, 100
1, 1421551, Note_on_c, 0, 77, 100
1, 1421551, Note_on_c, 0, 82, 100
1, 1421554, Note_on_c, 0, 85, 115
1, 1421554, Note_on_c, 0, 58, 106
1, 1421554, Note_on_c, 0, 65, 94
1, 1421616, Control_c, 0, 64, 127
1, 1421616, Control_c, 0, 64, 127
1, 1421931, Control_c, 0, 64, 0
1, 1421931, Control_c, 0, 64, 0
1, 1421959, Note_on_c, 0, 82, 0
1, 1421959, Note_on_c, 0, 73, 0
1, 1421959, Note_on_c, 0, 77, 0
1, 1421962, Note_on_c, 0, 85, 0
1, 1421962, Note_on_c, 0, 58, 0
1, 1421962, Note_on_c, 0, 65, 0
1, 1422074, Note_on_c, 0, 34, 92
1, 1422163, Note_on_c, 0, 80, 89
1, 1422163, Note_on_c, 0, 82, 89
1, 1422163, Note_on_c, 0, 89, 89
1, 1422166, Note_on_c, 0, 92, 104
1, 1422166, Note_on_c, 0, 53, 101
1, 1422242, Note_on_c, 0, 89, 0
1, 1422242, Note_on_c, 0, 82, 0
1, 1422242, Note_on_c, 0, 80, 0
1, 1422245, Note_on_c, 0, 34, 0
1, 1422245, Note_on_c, 0, 92, 0
1, 1422245, Note_on_c, 0, 53, 0
1, 1422388, Note_on_c, 0, 78, 89
1, 1422388, Note_on_c, 0, 82, 89
1, 1422388, Note_on_c, 0, 87, 89
1, 1422391, Note_on_c, 0, 90, 101
1, 1422391, Note_on_c, 0, 39, 78
1, 1422391, Note_on_c, 0, 54, 85
1, 1422459, Note_on_c, 0, 87, 0
1, 1422459, Note_on_c, 0, 78, 0
1, 1422459, Note_on_c, 0, 82, 0
1, 1422462, Note_on_c, 0, 90, 0
1, 1422462, Note_on_c, 0, 39, 0
1, 1422462, Note_on_c, 0, 54, 0
1, 1422592, Note_on_c, 0, 77, 90
1, 1422592, Note_on_c, 0, 85, 90
1, 1422592, Note_on_c, 0, 89, 103
1, 1422595, Note_on_c, 0, 41, 79
1, 1422595, Note_on_c, 0, 56, 86
1, 1422658, Note_on_c, 0, 89, 0
1, 1422658, Note_on_c, 0, 77, 0
1, 1422658, Note_on_c, 0, 85, 0
1, 1422661, Note_on_c, 0, 41, 0
1, 1422661, Note_on_c, 0, 56, 0
1, 1422779, Note_on_c, 0, 75, 92
1, 1422779, Note_on_c, 0, 84, 92
1, 1422779, Note_on_c, 0, 87, 105
1, 1422782, Note_on_c, 0, 42, 82
1, 1422782, Note_on_c, 0, 57, 89
1, 1422840, Note_on_c, 0, 87, 0
1, 1422840, Note_on_c, 0, 75, 0
1, 1422840, Note_on_c, 0, 84, 0
1, 1422843, Note_on_c, 0, 42, 0
1, 1422843, Note_on_c, 0, 57, 0
1, 1422952, Note_on_c, 0, 73, 94
1, 1422952, Note_on_c, 0, 82, 94
1, 1422952, Note_on_c, 0, 85, 107
1, 1422955, Note_on_c, 0, 43, 84
1, 1422955, Note_on_c, 0, 58, 91
1, 1423013, Note_on_c, 0, 85, 0
1, 1423013, Note_on_c, 0, 73, 0
1, 1423013, Note_on_c, 0, 82, 0
1, 1423016, Note_on_c, 0, 43, 0
1, 1423016, Note_on_c, 0, 58, 0
1, 1423049, Note_on_c, 0, 44, 86
1, 1423125, Note_on_c, 0, 72, 95
1, 1423125, Note_on_c, 0, 80, 95
1, 1423125, Note_on_c, 0, 84, 109
1, 1423128, Note_on_c, 0, 60, 93
1, 1423185, Note_on_c, 0, 84, 0
1, 1423185, Note_on_c, 0, 80, 0
1, 1423185, Note_on_c, 0, 72, 0
1, 1423188, Note_on_c, 0, 44, 0
1, 1423188, Note_on_c, 0, 60, 0
1, 1423298, Note_on_c, 0, 70, 96
1, 1423298, Note_on_c, 0, 78, 96
1, 1423298, Note_on_c, 0, 82, 110
1, 1423301, Note_on_c, 0, 46, 89
1, 1423301, Note_on_c, 0, 61, 96
1, 1423358, Note_on_c, 0, 82, 0
1, 1423358, Note_on_c, 0, 70, 0
1, 1423358, Note_on_c, 0, 78, 0
1, 1423361, Note_on_c, 0, 46, 0
1, 1423361, Note_on_c, 0, 61, 0
1, 1423471, Note_on_c, 0, 68, 98
1, 1423471, Note_on_c, 0, 77, 98
1, 1423471, Note_on_c, 0, 80, 113
1, 1423474, Note_on_c, 0, 47, 92
1, 1423474, Note_on_c, 0, 62, 99
1, 1423531, Note_on_c, 0, 80, 0
1, 1423531, Note_on_c, 0, 68, 0
1, 1423531, Note_on_c, 0, 77, 0
1, 1423534, Note_on_c, 0, 47, 0
1, 1423534, Note_on_c, 0, 62, 0
1, 1423643, Note_on_c, 0, 66, 100
1, 1423643, Note_on_c, 0, 75, 100
1, 1423643, Note_on_c, 0, 78, 114
1, 1423646, Note_on_c, 0, 48, 94
1, 1423646, Note_on_c, 0, 63, 101
1, 1423709, Note_on_c, 0, 78, 0
1, 1423709, Note_on_c, 0, 66, 0
1, 1423709, Note_on_c, 0, 75, 0
1, 1423712, Note_on_c, 0, 48, 0
1, 1423712, Note_on_c, 0, 63, 0
1, 1423831, Note_on_c, 0, 65, 101
1, 1423831, Note_on_c, 0, 73, 101
1, 1423831, Note_on_c, 0, 77, 116
1, 1423834, Note_on_c, 0, 49, 94
1, 1423834, Note_on_c, 0, 61, 103
1, 1423887, Note_on_c, 0, 77, 0
1, 1423887, Note_on_c, 0, 65, 0
1, 1423887, Note_on_c, 0, 73, 0
1, 1423896, Note_on_c, 0, 49, 0
1, 1423896, Note_on_c, 0, 61, 0
1, 1424018, Note_on_c, 0, 70, 101
1, 1424018, Note_on_c, 0, 73, 101
1, 1424018, Note_on_c, 0, 82, 116
1, 1424021, Note_on_c, 0, 54, 96
1, 1424021, Note_on_c, 0, 66, 105
1, 1424074, Note_on_c, 0, 82, 0
1, 1424074, Note_on_c, 0, 70, 0
1, 1424074, Note_on_c, 0, 73, 0
1, 1424083, Note_on_c, 0, 54, 0
1, 1424083, Note_on_c, 0, 66, 0
1, 1424205, Note_on_c, 0, 68, 101
1, 1424205, Note_on_c, 0, 73, 101
1, 1424205, Note_on_c, 0, 80, 116
1, 1424208, Note_on_c, 0, 56, 98
1, 1424208, Note_on_c, 0, 65, 107
1, 1424266, Note_on_c, 0, 80, 0
1, 1424266, Note_on_c, 0, 68, 0
1, 1424266, Note_on_c, 0, 73, 0
1, 1424276, Note_on_c, 0, 56, 0
1, 1424276, Note_on_c, 0, 65, 0
1, 1424409, Note_on_c, 0, 66, 94
1, 1424409, Note_on_c, 0, 68, 94
1, 1424409, Note_on_c, 0, 72, 108
1, 1424412, Note_on_c, 0, 56, 99
1, 1424412, Note_on_c, 0, 63, 108
1, 1424484, Note_on_c, 0, 72, 0
1, 1424484, Note_on_c, 0, 66, 0
1, 1424484, Note_on_c, 0, 68, 0
1, 1424496, Note_on_c, 0, 56, 0
1, 1424496, Note_on_c, 0, 63, 0
1, 1424659, Note_on_c, 0, 65, 87
1, 1424659, Note_on_c, 0, 68, 87
1, 1424659, Note_on_c, 0, 73, 105
1, 1424662, Note_on_c, 0, 49, 92
1, 1424662, Note_on_c, 0, 56, 92
1, 1424662, Note_on_c, 0, 61, 101
1, 1425158, Note_on_c, 0, 73, 0
1, 1425158, Note_on_c, 0, 65, 0
1, 1425158, Note_on_c, 0, 68, 0
1, 1425161, Note_on_c, 0, 49, 0
1, 1425161, Note_on_c, 0, 56, 0
1, 1425161, Note_on_c, 0, 61, 0
1, 1425408, Note_on_c, 0, 63, 85
1, 1425408, Note_on_c, 0, 51, 72
1, 1425479, Note_on_c, 0, 51, 0
1, 1425479, Note_on_c, 0, 63, 0
1, 1425612, Note_on_c, 0, 60, 78
1, 1425612, Note_on_c, 0, 63, 78
1, 1425612, Note_on_c, 0, 68, 90
1, 1425615, Note_on_c, 0, 44, 65
1, 1425615, Note_on_c, 0, 56, 75
1, 1425693, Control_c, 0, 64, 127
1, 1425693, Control_c, 0, 64, 127
1, 1425871, Note_on_c, 0, 68, 0
1, 1425871, Note_on_c, 0, 60, 0
1, 1425871, Note_on_c, 0, 63, 0
1, 1425874, Note_on_c, 0, 64, 80
1, 1425874, Note_on_c, 0, 67, 80
1, 1425874, Note_on_c, 0, 70, 92
1, 1425877, Note_on_c, 0, 44, 0
1, 1425877, Note_on_c, 0, 56, 0
1, 1425877, Note_on_c, 0, 52, 67
1, 1425880, Note_on_c, 0, 55, 67
1, 1425880, Note_on_c, 0, 58, 77
1, 1425928, Control_c, 0, 64, 0
1, 1425928, Control_c, 0, 64, 0
1, 1425957, Note_on_c, 0, 67, 0
1, 1425957, Note_on_c, 0, 70, 0
1, 1425957, Note_on_c, 0, 64, 0
1, 1425960, Note_on_c, 0, 63, 80
1, 1425960, Note_on_c, 0, 68, 80
1, 1425960, Note_on_c, 0, 72, 93
1, 1425963, Note_on_c, 0, 52, 0
1, 1425963, Note_on_c, 0, 58, 0
1, 1425963, Note_on_c, 0, 55, 0
1, 1425966, Note_on_c, 0, 51, 67
1, 1425966, Note_on_c, 0, 56, 67
1, 1425966, Note_on_c, 0, 60, 78
1, 1426014, Note_on_c, 0, 63, 0
1, 1426014, Note_on_c, 0, 72, 0
1, 1426014, Note_on_c, 0, 68, 0
1, 1426017, Note_on_c, 0, 51, 0
1, 1426017, Note_on_c, 0, 56, 0
1, 1426017, Note_on_c, 0, 60, 0
1, 1426145, Note_on_c, 0, 67, 81
1, 1426145, Note_on_c, 0, 70, 81
1, 1426145, Note_on_c, 0, 73, 94
1, 1426148, Note_on_c, 0, 55, 69
1, 1426148, Note_on_c, 0, 58, 69
1, 1426148, Note_on_c, 0, 61, 80
1, 1426201, Note_on_c, 0, 73, 0
1, 1426201, Note_on_c, 0, 67, 0
1, 1426201, Note_on_c, 0, 70, 0
1, 1426204, Note_on_c, 0, 55, 0
1, 1426204, Note_on_c, 0, 58, 0
1, 1426204, Note_on_c, 0, 61, 0
1, 1426332, Note_on_c, 0, 69, 82
1, 1426332, Note_on_c, 0, 72, 82
1, 1426332, Note_on_c, 0, 75, 96
1, 1426335, Note_on_c, 0, 54, 70
1, 1426335, Note_on_c, 0, 60, 70
1, 1426335, Note_on_c, 0, 63, 81
1, 1426399, Note_on_c, 0, 75, 0
1, 1426399, Note_on_c, 0, 69, 0
1, 1426399, Note_on_c, 0, 72, 0
1, 1426402, Note_on_c, 0, 54, 0
1, 1426402, Note_on_c, 0, 60, 0
1, 1426402, Note_on_c, 0, 63, 0
1, 1426556, Note_on_c, 0, 69, 84
1, 1426556, Note_on_c, 0, 72, 84
1, 1426556, Note_on_c, 0, 77, 98
1, 1426559, Note_on_c, 0, 53, 71
1, 1426559, Note_on_c, 0, 60, 71
1, 1426559, Note_on_c, 0, 65, 83
1, 1426636, Note_on_c, 0, 77, 0
1, 1426636, Note_on_c, 0, 69, 0
1, 1426636, Note_on_c, 0, 72, 0
1, 1426639, Note_on_c, 0, 53, 0
1, 1426639, Note_on_c, 0, 60, 0
1, 1426639, Note_on_c, 0, 65, 0
1, 1426821, Note_on_c, 0, 69, 92
1, 1426821, Note_on_c, 0, 72, 92
1, 1426821, Note_on_c, 0, 78, 106
1, 1426824, Note_on_c, 0, 51, 77
1, 1426824, Note_on_c, 0, 60, 77
1, 1426824, Note_on_c, 0, 66, 89
1, 1426890, Control_c, 0, 64, 127
1, 1426890, Control_c, 0, 64, 127
1, 1427229, Note_on_c, 0, 51, 0
1, 1427229, Note_on_c, 0, 72, 0
1, 1427229, Note_on_c, 0, 69, 0
1, 1427232, Note_on_c, 0, 60, 0
1, 1427247, Control_c, 0, 64, 127
1, 1427247, Control_c, 0, 64, 127
1, 1427433, Note_on_c, 0, 78, 0
1, 1427433, Note_on_c, 0, 68, 86
1, 1427433, Note_on_c, 0, 73, 86
1, 1427436, Note_on_c, 0, 66, 0
1, 1427436, Note_on_c, 0, 77, 100
1, 1427436, Note_on_c, 0, 53, 83
1, 1427439, Note_on_c, 0, 61, 71
1, 1427439, Note_on_c, 0, 65, 70
1, 1427464, Control_c, 0, 64, 0
1, 1427464, Control_c, 0, 64, 0
1, 1427638, Note_on_c, 0, 77, 0
1, 1427638, Note_on_c, 0, 68, 0
1, 1427638, Note_on_c, 0, 73, 0
1, 1427641, Note_on_c, 0, 69, 83
1, 1427641, Note_on_c, 0, 72, 83
1, 1427641, Note_on_c, 0, 75, 97
1, 1427644, Note_on_c, 0, 53, 0
1, 1427644, Note_on_c, 0, 65, 0
1, 1427644, Note_on_c, 0, 61, 0
1, 1427647, Note_on_c, 0, 54, 81
1, 1427647, Note_on_c, 0, 60, 69
1, 1427647, Note_on_c, 0, 63, 68
1, 1427842, Note_on_c, 0, 69, 0
1, 1427842, Note_on_c, 0, 75, 0
1, 1427842, Note_on_c, 0, 72, 0
1, 1427845, Note_on_c, 0, 70, 81
1, 1427845, Note_on_c, 0, 73, 81
1, 1427845, Note_on_c, 0, 75, 94
1, 1427848, Note_on_c, 0, 54, 0
1, 1427848, Note_on_c, 0, 63, 0
1, 1427848, Note_on_c, 0, 60, 0
1, 1427851, Note_on_c, 0, 55, 79
1, 1427851, Note_on_c, 0, 61, 67
1, 1427851, Note_on_c, 0, 63, 66
1, 1428066, Note_on_c, 0, 70, 0
1, 1428066, Note_on_c, 0, 75, 0
1, 1428066, Note_on_c, 0, 73, 0
1, 1428069, Note_on_c, 0, 68, 79
1, 1428069, Note_on_c, 0, 72, 79
1, 1428069, Note_on_c, 0, 75, 91
1, 1428072, Note_on_c, 0, 55, 0
1, 1428072, Note_on_c, 0, 63, 0
1, 1428072, Note_on_c, 0, 61, 0
1, 1428075, Note_on_c, 0, 56, 78
1, 1428075, Note_on_c, 0, 60, 66
1, 1428075, Note_on_c, 0, 63, 64
1, 1428095, Control_c, 0, 64, 127
1, 1428095, Control_c, 0, 64, 127
1, 1428291, Note_on_c, 0, 68, 0
1, 1428291, Note_on_c, 0, 75, 0
1, 1428291, Note_on_c, 0, 72, 0
1, 1428294, Note_on_c, 0, 68, 83
1, 1428294, Note_on_c, 0, 73, 83
1, 1428294, Note_on_c, 0, 76, 94
1, 1428297, Note_on_c, 0, 56, 0
1, 1428297, Note_on_c, 0, 63, 0
1, 1428297, Note_on_c, 0, 60, 0
1, 1428300, Note_on_c, 0, 56, 64
1, 1428300, Note_on_c, 0, 61, 64
1, 1428300, Note_on_c, 0, 64, 74
1, 1428317, Control_c, 0, 64, 0
1, 1428317, Control_c, 0, 64, 0
1, 1428381, Control_c, 0, 64, 127
1, 1428381, Control_c, 0, 64, 127
1, 1428541, Note_on_c, 0, 68, 0
1, 1428541, Note_on_c, 0, 76, 0
1, 1428541, Note_on_c, 0, 73, 0
1, 1428544, Note_on_c, 0, 68, 75
1, 1428544, Note_on_c, 0, 72, 75
1, 1428544, Note_on_c, 0, 75, 86
1, 1428547, Note_on_c, 0, 56, 0
1, 1428547, Note_on_c, 0, 64, 0
1, 1428547, Note_on_c, 0, 61, 0
1, 1428550, Note_on_c, 0, 56, 62
1, 1428550, Note_on_c, 0, 60, 62
1, 1428550, Note_on_c, 0, 63, 72
1, 1428615, Control_c, 0, 64, 0
1, 1428615, Control_c, 0, 64, 0
1, 1428790, Note_on_c, 0, 68, 0
1, 1428790, Note_on_c, 0, 75, 0
1, 1428790, Note_on_c, 0, 72, 0
1, 1428793, Note_on_c, 0, 56, 0
1, 1428793, Note_on_c, 0, 60, 0
1, 1428793, Note_on_c, 0, 68, 85
1, 1428796, Note_on_c, 0, 63, 0
1, 1429015, Note_on_c, 0, 68, 0
1, 1429015, Note_on_c, 0, 64, 83
1, 1429015, Note_on_c, 0, 61, 77
1, 1429018, Note_on_c, 0, 49, 77
1, 1429174, Control_c, 0, 64, 127
1, 1429174, Control_c, 0, 64, 127
1, 1429240, Note_on_c, 0, 68, 87
1, 1429427, Note_on_c, 0, 73, 91
1, 1429427, Note_on_c, 0, 59, 80
1, 1429434, Note_on_c, 0, 68, 0
1, 1429434, Note_on_c, 0, 61, 0
1, 1429614, Note_on_c, 0, 75, 95
1, 1429621, Note_on_c, 0, 73, 0
1, 1429801, Note_on_c, 0, 64, 0
1, 1429801, Note_on_c, 0, 64, 77
1, 1429801, Note_on_c, 0, 76, 95
1, 1429804, Control_c, 0, 64, 0
1, 1429804, Note_on_c, 0, 42, 80
1, 1429804, Note_on_c, 0, 58, 85
1, 1429804, Control_c, 0, 64, 0
1, 1429809, Note_on_c, 0, 49, 0
1, 1429809, Note_on_c, 0, 75, 0
1, 1429809, Note_on_c, 0, 59, 0
1, 1430108, Note_on_c, 0, 75, 93
1, 1430116, Note_on_c, 0, 76, 0
1, 1430210, Note_on_c, 0, 73, 89
1, 1430210, Note_on_c, 0, 43, 82
1, 1430218, Note_on_c, 0, 75, 0
1, 1430218, Note_on_c, 0, 42, 0
1, 1430284, Control_c, 0, 64, 127
1, 1430284, Control_c, 0, 64, 127
1, 1430414, Note_on_c, 0, 57, 78
1, 1430423, Note_on_c, 0, 58, 0
1, 1430579, Control_c, 0, 64, 0
1, 1430579, Control_c, 0, 64, 0
1, 1430639, Note_on_c, 0, 64, 0
1, 1430639, Note_on_c, 0, 56, 88
1, 1430639, Note_on_c, 0, 64, 71
1, 1430642, Note_on_c, 0, 68, 71
1, 1430642, Note_on_c, 0, 44, 74
1, 1430647, Note_on_c, 0, 73, 0
1, 1430647, Note_on_c, 0, 57, 0
1, 1430647, Note_on_c, 0, 43, 0
1, 1430728, Control_c, 0, 64, 127
1, 1430728, Control_c, 0, 64, 127
1, 1430863, Note_on_c, 0, 61, 94
1, 1430871, Note_on_c, 0, 56, 0
1, 1431067, Note_on_c, 0, 64, 0
1, 1431067, Note_on_c, 0, 68, 0
1, 1431067, Note_on_c, 0, 64, 99
1, 1431075, Note_on_c, 0, 61, 0
1, 1431255, Note_on_c, 0, 66, 104
1, 1431255, Note_on_c, 0, 52, 88
1, 1431262, Note_on_c, 0, 64, 0
1, 1431396, Control_c, 0, 64, 0
1, 1431396, Control_c, 0, 64, 0
1, 1431442, Note_on_c, 0, 44, 0
1, 1431442, Note_on_c, 0, 64, 90
1, 1431442, Note_on_c, 0, 68, 104
1, 1431445, Note_on_c, 0, 49, 86
1, 1431445, Note_on_c, 0, 44, 78
1, 1431451, Note_on_c, 0, 66, 0
1, 1431451, Note_on_c, 0, 52, 0
1, 1431506, Control_c, 0, 64, 127
1, 1431506, Control_c, 0, 64, 127
1, 1431666, Note_on_c, 0, 52, 93
1, 1431675, Note_on_c, 0, 49, 0
1, 1431779, Note_on_c, 0, 64, 0
1, 1431779, Note_on_c, 0, 61, 85
1, 1431779, Note_on_c, 0, 64, 95
1, 1431788, Note_on_c, 0, 68, 0
1, 1431891, Note_on_c, 0, 60, 78
1, 1431891, Note_on_c, 0, 63, 89
1, 1431891, Note_on_c, 0, 56, 99
1, 1431900, Note_on_c, 0, 61, 0
1, 1431900, Note_on_c, 0, 64, 0
1, 1431900, Note_on_c, 0, 52, 0
1, 1431903, Control_c, 0, 64, 0
1, 1431903, Control_c, 0, 64, 0
1, 1432116, Note_on_c, 0, 68, 106
1, 1432116, Note_on_c, 0, 75, 106
1, 1432116, Note_on_c, 0, 80, 117
1, 1432119, Note_on_c, 0, 56, 0
1, 1432119, Note_on_c, 0, 60, 103
1, 1432119, Note_on_c, 0, 48, 83
1, 1432124, Note_on_c, 0, 60, 0
1, 1432124, Note_on_c, 0, 44, 0
1, 1432124, Note_on_c, 0, 63, 0
1, 1432183, Note_on_c, 0, 80, 0
1, 1432183, Note_on_c, 0, 68, 0
1, 1432183, Note_on_c, 0, 75, 0
1, 1432186, Note_on_c, 0, 48, 0
1, 1432186, Note_on_c, 0, 60, 0
1, 1432340, Note_on_c, 0, 65, 102
1, 1432340, Note_on_c, 0, 73, 102
1, 1432340, Note_on_c, 0, 77, 116
1, 1432343, Note_on_c, 0, 49, 111
1, 1432343, Note_on_c, 0, 61, 99
1, 1432420, Control_c, 0, 64, 127
1, 1432420, Control_c, 0, 64, 127
1, 1432600, Note_on_c, 0, 77, 0
1, 1432600, Note_on_c, 0, 65, 0
1, 1432600, Note_on_c, 0, 73, 0
1, 1432603, Note_on_c, 0, 68, 98
1, 1432603, Note_on_c, 0, 75, 98
1, 1432603, Note_on_c, 0, 80, 114
1, 1432606, Note_on_c, 0, 49, 0
1, 1432606, Note_on_c, 0, 61, 0
1, 1432606, Note_on_c, 0, 48, 117
1, 1432609, Note_on_c, 0, 60, 104
1, 1432686, Note_on_c, 0, 75, 0
1, 1432686, Note_on_c, 0, 80, 0
1, 1432686, Note_on_c, 0, 68, 0
1, 1432689, Note_on_c, 0, 73, 100
1, 1432689, Note_on_c, 0, 77, 100
1, 1432689, Note_on_c, 0, 85, 116
1, 1432692, Note_on_c, 0, 48, 0
1, 1432692, Note_on_c, 0, 60, 0
1, 1432692, Note_on_c, 0, 46, 117
1, 1432695, Control_c, 0, 64, 0
1, 1432695, Note_on_c, 0, 58, 106
1, 1432695, Control_c, 0, 64, 0
1, 1432742, Note_on_c, 0, 77, 0
1, 1432742, Note_on_c, 0, 85, 0
1, 1432742, Note_on_c, 0, 73, 0
1, 1432751, Note_on_c, 0, 46, 0
1, 1432751, Note_on_c, 0, 58, 0
1, 1432873, Note_on_c, 0, 75, 103
1, 1432873, Note_on_c, 0, 80, 103
1, 1432873, Note_on_c, 0, 84, 103
1, 1432876, Note_on_c, 0, 87, 117
1, 1432876, Note_on_c, 0, 44, 117
1, 1432876, Note_on_c, 0, 56, 109
1, 1432929, Note_on_c, 0, 84, 0
1, 1432929, Note_on_c, 0, 75, 0
1, 1432929, Note_on_c, 0, 80, 0
1, 1432932, Note_on_c, 0, 87, 0
1, 1432939, Note_on_c, 0, 44, 0
1, 1432939, Note_on_c, 0, 56, 0
1, 1433060, Note_on_c, 0, 77, 106
1, 1433060, Note_on_c, 0, 80, 106
1, 1433060, Note_on_c, 0, 85, 106
1, 1433063, Note_on_c, 0, 89, 117
1, 1433063, Note_on_c, 0, 37, 117
1, 1433063, Note_on_c, 0, 49, 112
1, 1433107, Control_c, 0, 64, 127
1, 1433107, Control_c, 0, 64, 127
1, 1433341, Note_on_c, 0, 85, 0
1, 1433341, Note_on_c, 0, 77, 0
1, 1433341, Note_on_c, 0, 80, 0
1, 1433344, Note_on_c, 0, 89, 0
1, 1433344, Note_on_c, 0, 75, 96
1, 1433344, Note_on_c, 0, 87, 111
1, 1433428, Note_on_c, 0, 87, 0
1, 1433428, Note_on_c, 0, 75, 0
1, 1433428, Note_on_c, 0, 73, 96
1, 1433431, Note_on_c, 0, 37, 0
1, 1433431, Note_on_c, 0, 49, 0
1, 1433431, Note_on_c, 0, 85, 111
1, 1433442, Control_c, 0, 64, 0
1, 1433442, Control_c, 0, 64, 0
1, 1433480, Note_on_c, 0, 85, 0
1, 1433480, Note_on_c, 0, 73, 0
1, 1433600, Note_on_c, 0, 72, 96
1, 1433600, Note_on_c, 0, 77, 96
1, 1433600, Note_on_c, 0, 81, 96
1, 1433603, Note_on_c, 0, 84, 111
1, 1433603, Note_on_c, 0, 53, 98
1, 1433603, Note_on_c, 0, 65, 87
1, 1433657, Note_on_c, 0, 81, 0
1, 1433657, Note_on_c, 0, 72, 0
1, 1433657, Note_on_c, 0, 77, 0
1, 1433660, Note_on_c, 0, 84, 0
1, 1433660, Note_on_c, 0, 53, 0
1, 1433660, Note_on_c, 0, 65, 0
1, 1433788, Note_on_c, 0, 73, 107
1, 1433788, Note_on_c, 0, 77, 107
1, 1433788, Note_on_c, 0, 82, 107
1, 1433791, Note_on_c, 0, 85, 117
1, 1433791, Note_on_c, 0, 58, 100
1, 1433791, Note_on_c, 0, 65, 89
1, 1433847, Control_c, 0, 64, 127
1, 1433847, Control_c, 0, 64, 127
1, 1434047, Note_on_c, 0, 82, 0
1, 1434047, Note_on_c, 0, 73, 0
1, 1434047, Note_on_c, 0, 77, 0
1, 1434050, Note_on_c, 0, 85, 0
1, 1434050, Note_on_c, 0, 72, 96
1, 1434050, Note_on_c, 0, 77, 96
1, 1434053, Note_on_c, 0, 58, 0
1, 1434053, Note_on_c, 0, 81, 96
1, 1434053, Note_on_c, 0, 84, 111
1, 1434056, Note_on_c, 0, 65, 0
1, 1434056, Note_on_c, 0, 53, 102
1, 1434056, Note_on_c, 0, 65, 91
1, 1434133, Note_on_c, 0, 81, 0
1, 1434133, Note_on_c, 0, 77, 0
1, 1434133, Note_on_c, 0, 72, 0
1, 1434136, Note_on_c, 0, 84, 0
1, 1434136, Note_on_c, 0, 73, 96
1, 1434136, Note_on_c, 0, 77, 96
1, 1434139, Note_on_c, 0, 53, 0
1, 1434139, Note_on_c, 0, 82, 96
1, 1434139, Note_on_c, 0, 85, 111
1, 1434142, Note_on_c, 0, 65, 0
1, 1434142, Control_c, 0, 64, 0
1, 1434142, Note_on_c, 0, 58, 103
1, 1434142, Note_on_c, 0, 65, 91
1, 1434142, Control_c, 0, 64, 0
1, 1434189, Note_on_c, 0, 82, 0
1, 1434189, Note_on_c, 0, 77, 0
1, 1434189, Note_on_c, 0, 73, 0
1, 1434192, Note_on_c, 0, 85, 0
1, 1434192, Note_on_c, 0, 58, 0
1, 1434192, Note_on_c, 0, 65, 0
1, 1434320, Note_on_c, 0, 72, 90
1, 1434320, Note_on_c, 0, 77, 90
1, 1434320, Note_on_c, 0, 81, 90
1, 1434323, Note_on_c, 0, 84, 112
1, 1434323, Note_on_c, 0, 53, 104
1, 1434323, Note_on_c, 0, 65, 93
1, 1434382, Note_on_c, 0, 81, 0
1, 1434382, Note_on_c, 0, 72, 0
1, 1434382, Note_on_c, 0, 77, 0
1, 1434385, Note_on_c, 0, 84, 0
1, 1434385, Note_on_c, 0, 53, 0
1, 1434385, Note_on_c, 0, 65, 0
1, 1434525, Note_on_c, 0, 73, 100
1, 1434525, Note_on_c, 0, 77, 100
1, 1434525, Note_on_c, 0, 82, 100
1, 1434528, Note_on_c, 0, 85, 115
1, 1434528, Note_on_c, 0, 58, 106
1, 1434528, Note_on_c, 0, 65, 94
1, 1434590, Control_c, 0, 64, 127
1, 1434590, Control_c, 0, 64, 127
1, 1434905, Control_c, 0, 64, 0
1, 1434905, Control_c, 0, 64, 0
1, 1434933, Note_on_c, 0, 82, 0
1, 1434933, Note_on_c, 0, 73, 0
1, 1434933, Note_on_c, 0, 77, 0
1, 1434936, Note_on_c, 0, 85, 0
1, 1434936, Note_on_c, 0, 58, 0
1, 1434936, Note_on_c, 0, 65, 0
1, 1435047, Note_on_c, 0, 34, 92
1, 1435137, Note_on_c, 0, 80, 89
1, 1435137, Note_on_c, 0, 82, 89
1, 1435137, Note_on_c, 0, 89, 89
1, 1435140, Note_on_c, 0, 92, 104
1, 1435140, Note_on_c, 0, 53, 101
1, 1435216, Note_on_c, 0, 89, 0
1, 1435216, Note_on_c, 0, 82, 0
1, 1435216, Note_on_c, 0, 80, 0
1, 1435219, Note_on_c, 0, 34, 0
1, 1435219, Note_on_c, 0, 92, 0
1, 1435219, Note_on_c, 0, 53, 0
1, 1435362, Note_on_c, 0, 78, 89
1, 1435362, Note_on_c, 0, 82, 89
1, 1435362, Note_on_c, 0, 87, 89
1, 1435365, Note_on_c, 0, 90, 101
1, 1435365, Note_on_c, 0, 39, 78
1, 1435365, Note_on_c, 0, 54, 85
1, 1435433, Note_on_c, 0, 87, 0
1, 1435433, Note_on_c, 0, 78, 0
1, 1435433, Note_on_c, 0, 82, 0
1, 1435436, Note_on_c, 0, 90, 0
1, 1435436, Note_on_c, 0, 39, 0
1, 1435436, Note_on_c, 0, 54, 0
1, 1435566, Note_on_c, 0, 77, 90
1, 1435566, Note_on_c, 0, 85, 90
1, 1435566, Note_on_c, 0, 89, 103
1, 1435569, Note_on_c, 0, 41, 79
1, 1435569, Note_on_c, 0, 56, 86
1, 1435632, Note_on_c, 0, 89, 0
1, 1435632, Note_on_c, 0, 77, 0
1, 1435632, Note_on_c, 0, 85, 0
1, 1435635, Note_on_c, 0, 41, 0
1, 1435635, Note_on_c, 0, 56, 0
1, 1435753, Note_on_c, 0, 75, 92
1, 1435753, Note_on_c, 0, 84, 92
1, 1435753, Note_on_c, 0, 87, 105
1, 1435756, Note_on_c, 0, 42, 82
1, 1435756, Note_on_c, 0, 57, 89
1, 1435814, Note_on_c, 0, 87, 0
1, 1435814, Note_on_c, 0, 75, 0
1, 1435814, Note_on_c, 0, 84, 0
1, 1435817, Note_on_c, 0, 42, 0
1, 1435817, Note_on_c, 0, 57, 0
1, 1435926, Note_on_c, 0, 73, 94
1, 1435926, Note_on_c, 0, 82, 94
1, 1435926, Note_on_c, 0, 85, 107
1, 1435929, Note_on_c, 0, 43, 84
1, 1435929, Note_on_c, 0, 58, 91
1, 1435986, Note_on_c, 0, 85, 0
1, 1435986, Note_on_c, 0, 73, 0
1, 1435986, Note_on_c, 0, 82, 0
1, 1435989, Note_on_c, 0, 43, 0
1, 1435989, Note_on_c, 0, 58, 0
1, 1436023, Note_on_c, 0, 44, 86
1, 1436099, Note_on_c, 0, 72, 95
1, 1436099, Note_on_c, 0, 80, 95
1, 1436099, Note_on_c, 0, 84, 109
1, 1436102, Note_on_c, 0, 60, 93
1, 1436159, Note_on_c, 0, 84, 0
1, 1436159, Note_on_c, 0, 80, 0
1, 1436159, Note_on_c, 0, 72, 0
1, 1436162, Note_on_c, 0, 44, 0
1, 1436162, Note_on_c, 0, 60, 0
1, 1436272, Note_on_c, 0, 70, 96
1, 1436272, Note_on_c, 0, 78, 96
1, 1436272, Note_on_c, 0, 82, 110
1, 1436275, Note_on_c, 0, 46, 89
1, 1436275, Note_on_c, 0, 61, 96
1, 1436332, Note_on_c, 0, 82, 0
1, 1436332, Note_on_c, 0, 70, 0
1, 1436332, Note_on_c, 0, 78, 0
1, 1436335, Note_on_c, 0, 46, 0
1, 1436335, Note_on_c, 0, 61, 0
1, 1436444, Note_on_c, 0, 68, 98
1, 1436444, Note_on_c, 0, 77, 98
1, 1436444, Note_on_c, 0, 80, 113
1, 1436447, Note_on_c, 0, 47, 92
1, 1436447, Note_on_c, 0, 62, 99
1, 1436505, Note_on_c, 0, 80, 0
1, 1436505, Note_on_c, 0, 68, 0
1, 1436505, Note_on_c, 0, 77, 0
1, 1436508, Note_on_c, 0, 47, 0
1, 1436508, Note_on_c, 0, 62, 0
1, 1436617, Note_on_c, 0, 66, 100
1, 1436617, Note_on_c, 0, 75, 100
1, 1436617, Note_on_c, 0, 78, 114
1, 1436620, Note_on_c, 0, 48, 94
1, 1436620, Note_on_c, 0, 63, 101
1, 1436683, Note_on_c, 0, 78, 0
1, 1436683, Note_on_c, 0, 66, 0
1, 1436683, Note_on_c, 0, 75, 0
1, 1436686, Note_on_c, 0, 48, 0
1, 1436686, Note_on_c, 0, 63, 0
1, 1436804, Note_on_c, 0, 65, 101
1, 1436804, Note_on_c, 0, 73, 101
1, 1436804, Note_on_c, 0, 77, 116
1, 1436807, Note_on_c, 0, 49, 94
1, 1436807, Note_on_c, 0, 61, 103
1, 1436861, Note_on_c, 0, 77, 0
1, 1436861, Note_on_c, 0, 65, 0
1, 1436861, Note_on_c, 0, 73, 0
1, 1436870, Note_on_c, 0, 49, 0
1, 1436870, Note_on_c, 0, 61, 0
1, 1436992, Note_on_c, 0, 70, 101
1, 1436992, Note_on_c, 0, 73, 101
1, 1436992, Note_on_c, 0, 82, 116
1, 1436995, Note_on_c, 0, 54, 96
1, 1436995, Note_on_c, 0, 66, 105
1, 1437048, Note_on_c, 0, 82, 0
1, 1437048, Note_on_c, 0, 70, 0
1, 1437048, Note_on_c, 0, 73, 0
1, 1437057, Note_on_c, 0, 54, 0
1, 1437057, Note_on_c, 0, 66, 0
1, 1437179, Note_on_c, 0, 68, 101
1, 1437179, Note_on_c, 0, 73, 101
1, 1437179, Note_on_c, 0, 80, 116
1, 1437182, Note_on_c, 0, 56, 98
1, 1437182, Note_on_c, 0, 65, 107
1, 1437240, Note_on_c, 0, 80, 0
1, 1437240, Note_on_c, 0, 68, 0
1, 1437240, Note_on_c, 0, 73, 0
1, 1437250, Note_on_c, 0, 56, 0
1, 1437250, Note_on_c, 0, 65, 0
1, 1437383, Note_on_c, 0, 66, 94
1, 1437383, Note_on_c, 0, 68, 94
1, 1437383, Note_on_c, 0, 72, 108
1, 1437386, Note_on_c, 0, 56, 99
1, 1437386, Note_on_c, 0, 63, 108
1, 1437458, Note_on_c, 0, 72, 0
1, 1437458, Note_on_c, 0, 66, 0
1, 1437458, Note_on_c, 0, 68, 0
1, 1437470, Note_on_c, 0, 56, 0
1, 1437470, Note_on_c, 0, 63, 0
1, 1437633, Note_on_c, 0, 65, 87
1, 1437633, Note_on_c, 0, 68, 87
1, 1437633, Note_on_c, 0, 73, 105
1, 1437636, Note_on_c, 0, 49, 92
1, 1437636, Note_on_c, 0, 56, 92
1, 1437636, Note_on_c, 0, 61, 101
1, 1438132, Note_on_c, 0, 73, 0
1, 1438132, Note_on_c, 0, 65, 0
1, 1438132, Note_on_c, 0, 68, 0
1, 1438135, Note_on_c, 0, 49, 0
1, 1438135, Note_on_c, 0, 56, 0
1, 1438135, Note_on_c, 0, 61, 0
1, 1438511, Note_on_c, 0, 56, 66
1, 1438511, Note_on_c, 0, 60, 78
1, 1438554, Note_on_c, 0, 63, 77
1, 1438554, Note_on_c, 0, 68, 77
1, 1438554, Note_on_c, 0, 72, 89
1, 1438623, Control_c, 0, 64, 127
1, 1438623, Control_c, 0, 64, 127
1, 1438813, Note_on_c, 0, 60, 0
1, 1438813, Note_on_c, 0, 56, 0
1, 1438813, Note_on_c, 0, 56, 66
1, 1438816, Note_on_c, 0, 60, 78
1, 1438844, Note_on_c, 0, 60, 0
1, 1438844, Note_on_c, 0, 56, 0
1, 1438861, Control_c, 0, 64, 0
1, 1438861, Control_c, 0, 64, 0
1, 1438900, Control_c, 0, 64, 0
1, 1438900, Control_c, 0, 64, 0
1, 1438900, Note_on_c, 0, 56, 66
1, 1438903, Note_on_c, 0, 60, 78
1, 1438947, Note_on_c, 0, 60, 0
1, 1438947, Note_on_c, 0, 56, 0
1, 1439087, Note_on_c, 0, 56, 66
1, 1439087, Note_on_c, 0, 60, 78
1, 1439138, Note_on_c, 0, 60, 0
1, 1439138, Note_on_c, 0, 56, 0
1, 1439212, Note_on_c, 0, 63, 0
1, 1439240, Note_on_c, 0, 53, 66
1, 1439240, Note_on_c, 0, 63, 78
1, 1439291, Note_on_c, 0, 68, 0
1, 1439291, Note_on_c, 0, 72, 0
1, 1439291, Note_on_c, 0, 65, 77
1, 1439294, Note_on_c, 0, 68, 77
1, 1439294, Note_on_c, 0, 75, 96
1, 1439338, Control_c, 0, 64, 127
1, 1439338, Control_c, 0, 64, 127
1, 1439550, Note_on_c, 0, 53, 0
1, 1439550, Note_on_c, 0, 63, 0
1, 1439550, Note_on_c, 0, 53, 66
1, 1439553, Note_on_c, 0, 63, 78
1, 1439581, Note_on_c, 0, 63, 0
1, 1439581, Note_on_c, 0, 53, 0
1, 1439606, Control_c, 0, 64, 0
1, 1439606, Control_c, 0, 64, 0
1, 1439637, Note_on_c, 0, 75, 0
1, 1439637, Note_on_c, 0, 73, 89
1, 1439637, Note_on_c, 0, 53, 66
1, 1439640, Note_on_c, 0, 61, 78
1, 1439684, Note_on_c, 0, 61, 0
1, 1439684, Note_on_c, 0, 53, 0
1, 1439824, Note_on_c, 0, 53, 66
1, 1439824, Note_on_c, 0, 61, 78
1, 1439875, Note_on_c, 0, 61, 0
1, 1439875, Note_on_c, 0, 53, 0
1, 1439977, Note_on_c, 0, 55, 66
1, 1439977, Note_on_c, 0, 61, 78
1, 1440028, Note_on_c, 0, 73, 0
1, 1440028, Note_on_c, 0, 68, 0
1, 1440028, Note_on_c, 0, 65, 0
1, 1440031, Note_on_c, 0, 67, 77
1, 1440031, Note_on_c, 0, 70, 89
1, 1440097, Control_c, 0, 64, 127
1, 1440097, Control_c, 0, 64, 127
1, 1440288, Note_on_c, 0, 55, 0
1, 1440288, Note_on_c, 0, 61, 0
1, 1440288, Note_on_c, 0, 55, 66
1, 1440291, Note_on_c, 0, 61, 78
1, 1440318, Note_on_c, 0, 61, 0
1, 1440318, Note_on_c, 0, 55, 0
1, 1440335, Control_c, 0, 64, 0
1, 1440335, Control_c, 0, 64, 0
1, 1440374, Control_c, 0, 64, 0
1, 1440374, Control_c, 0, 64, 0
1, 1440374, Note_on_c, 0, 55, 66
1, 1440377, Note_on_c, 0, 61, 78
1, 1440421, Note_on_c, 0, 61, 0
1, 1440421, Note_on_c, 0, 55, 0
1, 1440561, Note_on_c, 0, 55, 66
1, 1440561, Note_on_c, 0, 61, 78
1, 1440612, Note_on_c, 0, 61, 0
1, 1440612, Note_on_c, 0, 55, 0
1, 1440714, Note_on_c, 0, 56, 66
1, 1440714, Note_on_c, 0, 61, 78
1, 1440765, Note_on_c, 0, 67, 0
1, 1440765, Note_on_c, 0, 70, 0
1, 1440765, Note_on_c, 0, 67, 77
1, 1440768, Note_on_c, 0, 73, 96
1, 1440812, Control_c, 0, 64, 127
1, 1440812, Control_c, 0, 64, 127
1, 1441025, Note_on_c, 0, 56, 0
1, 1441025, Note_on_c, 0, 61, 0
1, 1441025, Note_on_c, 0, 56, 66
1, 1441028, Note_on_c, 0, 61, 78
1, 1441055, Note_on_c, 0, 61, 0
1, 1441055, Note_on_c, 0, 56, 0
1, 1441080, Control_c, 0, 64, 0
1, 1441080, Control_c, 0, 64, 0
1, 1441111, Note_on_c, 0, 67, 0
1, 1441111, Note_on_c, 0, 73, 0
1, 1441111, Note_on_c, 0, 68, 77
1, 1441114, Note_on_c, 0, 72, 89
1, 1441114, Note_on_c, 0, 56, 66
1, 1441114, Note_on_c, 0, 60, 78
1, 1441158, Note_on_c, 0, 60, 0
1, 1441158, Note_on_c, 0, 56, 0
1, 1441298, Note_on_c, 0, 56, 66
1, 1441298, Note_on_c, 0, 60, 78
1, 1441349, Note_on_c, 0, 60, 0
1, 1441349, Note_on_c, 0, 56, 0
1, 1441451, Note_on_c, 0, 53, 66
1, 1441451, Note_on_c, 0, 58, 78
1, 1441502, Note_on_c, 0, 72, 0
1, 1441502, Note_on_c, 0, 68, 0
1, 1441502, Note_on_c, 0, 62, 77
1, 1441505, Note_on_c, 0, 68, 89
1, 1441572, Control_c, 0, 64, 127
1, 1441572, Control_c, 0, 64, 127
1, 1441762, Note_on_c, 0, 53, 0
1, 1441762, Note_on_c, 0, 58, 0
1, 1441762, Note_on_c, 0, 53, 66
1, 1441765, Note_on_c, 0, 58, 78
1, 1441792, Note_on_c, 0, 58, 0
1, 1441792, Note_on_c, 0, 53, 0
1, 1441809, Control_c, 0, 64, 0
1, 1441809, Control_c, 0, 64, 0
1, 1441848, Control_c, 0, 64, 0
1, 1441848, Control_c, 0, 64, 0
1, 1441848, Note_on_c, 0, 53, 66
1, 1441851, Note_on_c, 0, 58, 78
1, 1441895, Note_on_c, 0, 58, 0
1, 1441895, Note_on_c, 0, 53, 0
1, 1442035, Note_on_c, 0, 53, 66
1, 1442035, Note_on_c, 0, 58, 78
1, 1442086, Note_on_c, 0, 58, 0
1, 1442086, Note_on_c, 0, 53, 0
1, 1442188, Note_on_c, 0, 52, 66
1, 1442188, Note_on_c, 0, 59, 78
1, 1442239, Note_on_c, 0, 62, 0
1, 1442239, Note_on_c, 0, 68, 0
1, 1442239, Note_on_c, 0, 62, 77
1, 1442242, Note_on_c, 0, 67, 89
1, 1442286, Control_c, 0, 64, 127
1, 1442286, Control_c, 0, 64, 127
1, 1442499, Note_on_c, 0, 52, 0
1, 1442499, Note_on_c, 0, 59, 0
1, 1442499, Note_on_c, 0, 52, 66
1, 1442502, Note_on_c, 0, 59, 78
1, 1442529, Note_on_c, 0, 59, 0
1, 1442529, Note_on_c, 0, 52, 0
1, 1442554, Control_c, 0, 64, 0
1, 1442554, Control_c, 0, 64, 0
1, 1442585, Note_on_c, 0, 67, 0
1, 1442585, Note_on_c, 0, 68, 89
1, 1442585, Note_on_c, 0, 52, 66
1, 1442588, Note_on_c, 0, 59, 78
1, 1442632, Note_on_c, 0, 59, 0
1, 1442632, Note_on_c, 0, 52, 0
1, 1442772, Note_on_c, 0, 52, 66
1, 1442772, Note_on_c, 0, 59, 78
1, 1442823, Note_on_c, 0, 59, 0
1, 1442823, Note_on_c, 0, 52, 0
1, 1442925, Note_on_c, 0, 51, 66
1, 1442925, Note_on_c, 0, 60, 78
1, 1442976, Note_on_c, 0, 68, 0
1, 1442976, Note_on_c, 0, 62, 0
1, 1442976, Note_on_c, 0, 63, 77
1, 1442979, Note_on_c, 0, 68, 85
1, 1443046, Control_c, 0, 64, 127
1, 1443046, Control_c, 0, 64, 127
1, 1443236, Note_on_c, 0, 51, 0
1, 1443236, Note_on_c, 0, 60, 0
1, 1443236, Note_on_c, 0, 51, 66
1, 1443239, Note_on_c, 0, 60, 78
1, 1443266, Note_on_c, 0, 60, 0
1, 1443266, Note_on_c, 0, 51, 0
1, 1443284, Control_c, 0, 64, 0
1, 1443284, Control_c, 0, 64, 0
1, 1443322, Control_c, 0, 64, 0
1, 1443322, Control_c, 0, 64, 0
1, 1443322, Note_on_c, 0, 51, 66
1, 1443325, Note_on_c, 0, 60, 78
1, 1443369, Note_on_c, 0, 60, 0
1, 1443369, Note_on_c, 0, 51, 0
1, 1443509, Note_on_c, 0, 51, 66
1, 1443509, Note_on_c, 0, 60, 78
1, 1443560, Note_on_c, 0, 60, 0
1, 1443560, Note_on_c, 0, 51, 0
1, 1443662, Note_on_c, 0, 51, 66
1, 1443662, Note_on_c, 0, 58, 78
1, 1443713, Note_on_c, 0, 63, 0
1, 1443713, Note_on_c, 0, 68, 0
1, 1443713, Note_on_c, 0, 63, 93
1, 1443716, Note_on_c, 0, 67, 79
1, 1443760, Control_c, 0, 64, 127
1, 1443760, Control_c, 0, 64, 127
1, 1443973, Note_on_c, 0, 51, 0
1, 1443973, Note_on_c, 0, 58, 0
1, 1443973, Note_on_c, 0, 51, 66
1, 1443976, Note_on_c, 0, 58, 78
1, 1444003, Note_on_c, 0, 58, 0
1, 1444003, Note_on_c, 0, 51, 0
1, 1444028, Control_c, 0, 64, 0
1, 1444028, Control_c, 0, 64, 0
1, 1444059, Note_on_c, 0, 61, 93
1, 1444059, Note_on_c, 0, 51, 66
1, 1444059, Note_on_c, 0, 58, 78
1, 1444070, Note_on_c, 0, 63, 0
1, 1444106, Note_on_c, 0, 51, 0
1, 1444106, Note_on_c, 0, 58, 0
1, 1444246, Note_on_c, 0, 51, 66
1, 1444246, Note_on_c, 0, 58, 78
1, 1444297, Note_on_c, 0, 58, 0
1, 1444297, Note_on_c, 0, 51, 0
1, 1444399, Note_on_c, 0, 51, 67
1, 1444399, Note_on_c, 0, 58, 78
1, 1444450, Note_on_c, 0, 61, 0
1, 1444450, Note_on_c, 0, 67, 0
1, 1444450, Note_on_c, 0, 61, 88
1, 1444453, Note_on_c, 0, 66, 95
1, 1444520, Control_c, 0, 64, 127
1, 1444520, Control_c, 0, 64, 127
1, 1444710, Note_on_c, 0, 51, 0
1, 1444710, Note_on_c, 0, 58, 0
1, 1444710, Note_on_c, 0, 51, 67
1, 1444713, Note_on_c, 0, 58, 78
1, 1444740, Note_on_c, 0, 58, 0
1, 1444740, Note_on_c, 0, 51, 0
1, 1444758, Control_c, 0, 64, 0
1, 1444758, Control_c, 0, 64, 0
1, 1444796, Control_c, 0, 64, 0
1, 1444796, Control_c, 0, 64, 0
1, 1444796, Note_on_c, 0, 51, 67
1, 1444799, Note_on_c, 0, 58, 78
1, 1444843, Note_on_c, 0, 58, 0
1, 1444843, Note_on_c, 0, 51, 0
1, 1444983, Note_on_c, 0, 51, 66
1, 1444983, Note_on_c, 0, 58, 77
1, 1445034, Note_on_c, 0, 58, 0
1, 1445034, Note_on_c, 0, 51, 0
1, 1445108, Note_on_c, 0, 61, 0
1, 1445136, Note_on_c, 0, 53, 66
1, 1445136, Note_on_c, 0, 57, 77
1, 1445187, Note_on_c, 0, 60, 74
1, 1445187, Note_on_c, 0, 65, 95
1, 1445194, Note_on_c, 0, 66, 0
1, 1445234, Control_c, 0, 64, 127
1, 1445234, Control_c, 0, 64, 127
1, 1445447, Note_on_c, 0, 53, 0
1, 1445447, Note_on_c, 0, 57, 0
1, 1445447, Note_on_c, 0, 53, 66
1, 1445450, Note_on_c, 0, 57, 77
1, 1445477, Note_on_c, 0, 57, 0
1, 1445477, Note_on_c, 0, 53, 0
1, 1445502, Control_c, 0, 64, 0
1, 1445502, Control_c, 0, 64, 0
1, 1445533, Note_on_c, 0, 63, 87
1, 1445533, Note_on_c, 0, 53, 66
1, 1445533, Note_on_c, 0, 57, 77
1, 1445540, Note_on_c, 0, 65, 0
1, 1445580, Note_on_c, 0, 53, 0
1, 1445580, Note_on_c, 0, 57, 0
1, 1445720, Note_on_c, 0, 53, 66
1, 1445720, Note_on_c, 0, 57, 76
1, 1445771, Note_on_c, 0, 57, 0
1, 1445771, Note_on_c, 0, 53, 0
1, 1445873, Note_on_c, 0, 46, 66
1, 1445873, Note_on_c, 0, 56, 76
1, 1445924, Note_on_c, 0, 60, 0
1, 1445924, Note_on_c, 0, 58, 74
1, 1445924, Note_on_c, 0, 62, 87
1, 1445931, Note_on_c, 0, 63, 0
1, 1445994, Control_c, 0, 64, 127
1, 1445994, Control_c, 0, 64, 127
1, 1446184, Note_on_c, 0, 56, 0
1, 1446184, Note_on_c, 0, 46, 0
1, 1446184, Note_on_c, 0, 46, 65
1, 1446187, Note_on_c, 0, 56, 76
1, 1446214, Note_on_c, 0, 56, 0
1, 1446214, Note_on_c, 0, 46, 0
1, 1446232, Control_c, 0, 64, 0
1, 1446232, Control_c, 0, 64, 0
1, 1446270, Control_c, 0, 64, 0
1, 1446270, Control_c, 0, 64, 0
1, 1446270, Note_on_c, 0, 46, 65
1, 1446273, Note_on_c, 0, 56, 75
1, 1446317, Note_on_c, 0, 56, 0
1, 1446317, Note_on_c, 0, 46, 0
1, 1446457, Note_on_c, 0, 46, 65
1, 1446457, Note_on_c, 0, 56, 75
1, 1446508, Note_on_c, 0, 56, 0
1, 1446508, Note_on_c, 0, 46, 0
1, 1446610, Note_on_c, 0, 51, 65
1, 1446610, Note_on_c, 0, 55, 75
1, 1446661, Note_on_c, 0, 58, 0
1, 1446661, Note_on_c, 0, 58, 66
1, 1446661, Note_on_c, 0, 61, 86
1, 1446668, Note_on_c, 0, 62, 0
1, 1446708, Control_c, 0, 64, 127
1, 1446708, Control_c, 0, 64, 127
1, 1446921, Note_on_c, 0, 55, 0
1, 1446921, Note_on_c, 0, 51, 0
1, 1446921, Note_on_c, 0, 51, 64
1, 1446924, Note_on_c, 0, 55, 74
1, 1446951, Note_on_c, 0, 55, 0
1, 1446951, Note_on_c, 0, 51, 0
1, 1446976, Control_c, 0, 64, 0
1, 1446976, Control_c, 0, 64, 0
1, 1447007, Note_on_c, 0, 51, 64
1, 1447007, Note_on_c, 0, 55, 74
1, 1447054, Note_on_c, 0, 55, 0
1, 1447054, Note_on_c, 0, 51, 0
1, 1447194, Note_on_c, 0, 51, 64
1, 1447194, Note_on_c, 0, 55, 74
1, 1447245, Note_on_c, 0, 55, 0
1, 1447245, Note_on_c, 0, 51, 0
1, 1447347, Note_on_c, 0, 44, 64
1, 1447347, Note_on_c, 0, 54, 74
1, 1447398, Note_on_c, 0, 58, 0
1, 1447398, Note_on_c, 0, 56, 73
1, 1447398, Note_on_c, 0, 60, 86
1, 1447405, Note_on_c, 0, 61, 0
1, 1447468, Control_c, 0, 64, 127
1, 1447468, Control_c, 0, 64, 127
1, 1447658, Note_on_c, 0, 54, 0
1, 1447658, Note_on_c, 0, 44, 0
1, 1447658, Note_on_c, 0, 44, 63
1, 1447661, Note_on_c, 0, 54, 73
1, 1447688, Note_on_c, 0, 54, 0
1, 1447688, Note_on_c, 0, 44, 0
1, 1447706, Control_c, 0, 64, 0
1, 1447706, Control_c, 0, 64, 0
1, 1447744, Control_c, 0, 64, 0
1, 1447744, Control_c, 0, 64, 0
1, 1447744, Note_on_c, 0, 44, 63
1, 1447747, Note_on_c, 0, 54, 73
1, 1447791, Note_on_c, 0, 54, 0
1, 1447791, Note_on_c, 0, 44, 0
1, 1447931, Note_on_c, 0, 44, 63
1, 1447931, Note_on_c, 0, 54, 73
1, 1447982, Note_on_c, 0, 54, 0
1, 1447982, Note_on_c, 0, 44, 0
1, 1448084, Note_on_c, 0, 49, 63
1, 1448084, Note_on_c, 0, 53, 73
1, 1448136, Note_on_c, 0, 56, 0
1, 1448136, Note_on_c, 0, 56, 73
1, 1448136, Note_on_c, 0, 65, 94
1, 1448143, Note_on_c, 0, 60, 0
1, 1448190, Control_c, 0, 64, 127
1, 1448190, Control_c, 0, 64, 127
1, 1448442, Note_on_c, 0, 53, 0
1, 1448442, Note_on_c, 0, 49, 0
1, 1448442, Note_on_c, 0, 49, 63
1, 1448445, Note_on_c, 0, 53, 72
1, 1448472, Note_on_c, 0, 53, 0
1, 1448472, Note_on_c, 0, 49, 0
1, 1448498, Control_c, 0, 64, 0
1, 1448498, Control_c, 0, 64, 0
1, 1448528, Note_on_c, 0, 61, 89
1, 1448528, Note_on_c, 0, 49, 63
1, 1448528, Note_on_c, 0, 53, 72
1, 1448536, Note_on_c, 0, 65, 0
1, 1448575, Note_on_c, 0, 49, 0
1, 1448575, Note_on_c, 0, 53, 0
1, 1448715, Note_on_c, 0, 49, 62
1, 1448715, Note_on_c, 0, 53, 72
1, 1448766, Note_on_c, 0, 53, 0
1, 1448766, Note_on_c, 0, 49, 0
1, 1448869, Note_on_c, 0, 51, 62
1, 1448869, Note_on_c, 0, 53, 72
1, 1448920, Note_on_c, 0, 56, 0
1, 1448920, Note_on_c, 0, 56, 72
1, 1448920, Note_on_c, 0, 58, 89
1, 1448926, Note_on_c, 0, 61, 0
1, 1448989, Control_c, 0, 64, 127
1, 1448989, Control_c, 0, 64, 127
1, 1449179, Note_on_c, 0, 53, 0
1, 1449179, Note_on_c, 0, 51, 0
1, 1449179, Note_on_c, 0, 51, 62
1, 1449182, Note_on_c, 0, 53, 71
1, 1449209, Note_on_c, 0, 53, 0
1, 1449209, Note_on_c, 0, 51, 0
1, 1449227, Control_c, 0, 64, 0
1, 1449227, Control_c, 0, 64, 0
1, 1449265, Control_c, 0, 64, 0
1, 1449265, Control_c, 0, 64, 0
1, 1449265, Note_on_c, 0, 51, 62
1, 1449268, Note_on_c, 0, 53, 71
1, 1449312, Note_on_c, 0, 53, 0
1, 1449312, Note_on_c, 0, 51, 0
1, 1449452, Note_on_c, 0, 51, 62
1, 1449452, Note_on_c, 0, 53, 71
1, 1449504, Note_on_c, 0, 53, 0
1, 1449504, Note_on_c, 0, 51, 0
1, 1449657, Note_on_c, 0, 58, 0
1, 1449657, Note_on_c, 0, 55, 68
1, 1449657, Note_on_c, 0, 58, 80
1, 1449660, Note_on_c, 0, 51, 77
1, 1449663, Note_on_c, 0, 56, 0
1, 1449703, Control_c, 0, 64, 127
1, 1449703, Control_c, 0, 64, 127
1, 1449916, Note_on_c, 0, 49, 74
1, 1449923, Note_on_c, 0, 51, 0
1, 1449972, Control_c, 0, 64, 0
1, 1449972, Control_c, 0, 64, 0
1, 1450002, Note_on_c, 0, 48, 72
1, 1450010, Note_on_c, 0, 49, 0
1, 1450283, Note_on_c, 0, 46, 69
1, 1450290, Note_on_c, 0, 48, 0
1, 1450377, Note_on_c, 0, 60, 73
1, 1450377, Note_on_c, 0, 63, 73
1, 1450377, Note_on_c, 0, 68, 73
1, 1450380, Note_on_c, 0, 72, 88
1, 1450380, Note_on_c, 0, 44, 70
1, 1450383, Note_on_c, 0, 46, 0
1, 1450387, Note_on_c, 0, 55, 0
1, 1450387, Note_on_c, 0, 58, 0
1, 1450453, Control_c, 0, 64, 127
1, 1450453, Control_c, 0, 64, 127
1, 1450591, Control_c, 0, 64, 0
1, 1450591, Control_c, 0, 64, 0
1, 1450636, Note_on_c, 0, 43, 68
1, 1450643, Note_on_c, 0, 44, 0
1, 1450722, Note_on_c, 0, 41, 67
1, 1450729, Note_on_c, 0, 43, 0
1, 1450981, Note_on_c, 0, 39, 65
1, 1450988, Note_on_c, 0, 41, 0
1, 1451068, Note_on_c, 0, 63, 0
1, 1451068, Note_on_c, 0, 68, 0
1, 1451068, Note_on_c, 0, 65, 80
1, 1451071, Note_on_c, 0, 68, 80
1, 1451071, Note_on_c, 0, 63, 80
1, 1451071, Note_on_c, 0, 75, 95
1, 1451074, Note_on_c, 0, 60, 0
1, 1451074, Note_on_c, 0, 39, 0
1, 1451074, Note_on_c, 0, 72, 0
1, 1451074, Note_on_c, 0, 37, 64
1, 1451144, Control_c, 0, 64, 127
1, 1451144, Control_c, 0, 64, 127
1, 1451374, Note_on_c, 0, 36, 62
1, 1451382, Note_on_c, 0, 37, 0
1, 1451476, Note_on_c, 0, 63, 0
1, 1451476, Note_on_c, 0, 61, 73
1, 1451476, Note_on_c, 0, 73, 88
1, 1451479, Note_on_c, 0, 34, 61
1, 1451483, Note_on_c, 0, 75, 0
1, 1451483, Note_on_c, 0, 36, 0
1, 1451501, Control_c, 0, 64, 0
1, 1451501, Control_c, 0, 64, 0
1, 1451578, Control_c, 0, 64, 127
1, 1451578, Control_c, 0, 64, 127
1, 1451736, Note_on_c, 0, 32, 59
1, 1451744, Note_on_c, 0, 34, 0
1, 1451848, Note_on_c, 0, 61, 0
1, 1451848, Note_on_c, 0, 68, 0
1, 1451848, Control_c, 0, 64, 127
1, 1451851, Note_on_c, 0, 58, 66
1, 1451851, Note_on_c, 0, 61, 66
1, 1451851, Note_on_c, 0, 66, 66
1, 1451854, Note_on_c, 0, 65, 0
1, 1451854, Note_on_c, 0, 73, 0
1, 1451854, Note_on_c, 0, 32, 0
1, 1451854, Note_on_c, 0, 70, 81
1, 1451854, Control_c, 0, 64, 127
1, 1451854, Note_on_c, 0, 30, 55
1, 1451886, Control_c, 0, 64, 0
1, 1451886, Control_c, 0, 64, 0
1, 1452107, Note_on_c, 0, 32, 58
1, 1452114, Note_on_c, 0, 30, 0
1, 1452193, Note_on_c, 0, 33, 59
1, 1452200, Note_on_c, 0, 32, 0
1, 1452453, Note_on_c, 0, 34, 62
1, 1452461, Note_on_c, 0, 33, 0
1, 1452565, Note_on_c, 0, 66, 0
1, 1452565, Note_on_c, 0, 61, 0
1, 1452565, Note_on_c, 0, 64, 73
1, 1452568, Note_on_c, 0, 67, 73
1, 1452568, Note_on_c, 0, 61, 73
1, 1452568, Note_on_c, 0, 73, 88
1, 1452571, Note_on_c, 0, 58, 0
1, 1452571, Note_on_c, 0, 34, 0
1, 1452571, Note_on_c, 0, 70, 0
1, 1452571, Note_on_c, 0, 36, 63
1, 1452619, Control_c, 0, 64, 127
1, 1452619, Control_c, 0, 64, 127
1, 1452846, Note_on_c, 0, 38, 66
1, 1452853, Note_on_c, 0, 36, 0
1, 1452939, Note_on_c, 0, 60, 67
1, 1452939, Note_on_c, 0, 72, 82
1, 1452939, Note_on_c, 0, 39, 67
1, 1452946, Note_on_c, 0, 61, 0
1, 1452946, Note_on_c, 0, 73, 0
1, 1452946, Note_on_c, 0, 38, 0
1, 1452949, Control_c, 0, 64, 0
1, 1452949, Control_c, 0, 64, 0
1, 1453018, Control_c, 0, 64, 127
1, 1453018, Control_c, 0, 64, 127
1, 1453199, Note_on_c, 0, 40, 70
1, 1453205, Note_on_c, 0, 39, 0
1, 1453285, Note_on_c, 0, 64, 0
1, 1453285, Note_on_c, 0, 67, 0
1, 1453285, Control_c, 0, 64, 127
1, 1453288, Note_on_c, 0, 56, 66
1, 1453288, Note_on_c, 0, 65, 66
1, 1453288, Note_on_c, 0, 68, 81
1, 1453291, Note_on_c, 0, 60, 0
1, 1453291, Note_on_c, 0, 72, 0
1, 1453291, Note_on_c, 0, 40, 0
1, 1453291, Control_c, 0, 64, 127
1, 1453291, Note_on_c, 0, 41, 72
1, 1453323, Control_c, 0, 64, 0
1, 1453323, Control_c, 0, 64, 0
1, 1453544, Note_on_c, 0, 43, 75
1, 1453551, Note_on_c, 0, 41, 0
1, 1453631, Note_on_c, 0, 44, 76
1, 1453637, Note_on_c, 0, 43, 0
1, 1453890, Note_on_c, 0, 45, 79
1, 1453896, Note_on_c, 0, 44, 0
1, 1453976, Note_on_c, 0, 65, 0
1, 1453976, Note_on_c, 0, 65, 77
1, 1453976, Note_on_c, 0, 60, 77
1, 1453979, Note_on_c, 0, 62, 77
1, 1453979, Note_on_c, 0, 72, 94
1, 1453979, Note_on_c, 0, 46, 80
1, 1453983, Note_on_c, 0, 56, 0
1, 1453983, Note_on_c, 0, 45, 0
1, 1453983, Note_on_c, 0, 68, 0
1, 1454030, Control_c, 0, 64, 127
1, 1454030, Control_c, 0, 64, 127
1, 1454257, Note_on_c, 0, 48, 83
1, 1454264, Note_on_c, 0, 46, 0
1, 1454351, Note_on_c, 0, 62, 0
1, 1454351, Note_on_c, 0, 58, 73
1, 1454351, Note_on_c, 0, 70, 88
1, 1454354, Note_on_c, 0, 49, 84
1, 1454357, Note_on_c, 0, 60, 0
1, 1454357, Note_on_c, 0, 72, 0
1, 1454357, Note_on_c, 0, 48, 0
1, 1454360, Control_c, 0, 64, 0
1, 1454360, Control_c, 0, 64, 0
1, 1454429, Control_c, 0, 64, 127
1, 1454429, Control_c, 0, 64, 127
1, 1454610, Note_on_c, 0, 50, 87
1, 1454616, Note_on_c, 0, 49, 0
1, 1454696, Note_on_c, 0, 58, 0
1, 1454696, Note_on_c, 0, 65, 0
1, 1454696, Control_c, 0, 64, 127
1, 1454699, Note_on_c, 0, 58, 75
1, 1454699, Note_on_c, 0, 63, 75
1, 1454699, Note_on_c, 0, 67, 89
1, 1454702, Note_on_c, 0, 70, 0
1, 1454702, Note_on_c, 0, 50, 0
1, 1454702, Control_c, 0, 64, 127
1, 1454702, Note_on_c, 0, 51, 88
1, 1454734, Control_c, 0, 64, 0
1, 1454734, Control_c, 0, 64, 0
1, 1454955, Note_on_c, 0, 55, 88
1, 1454962, Note_on_c, 0, 51, 0
1, 1455042, Note_on_c, 0, 60, 73
1, 1455042, Note_on_c, 0, 65, 86
1, 1455042, Note_on_c, 0, 56, 88
1, 1455049, Note_on_c, 0, 63, 0
1, 1455049, Note_on_c, 0, 67, 0
1, 1455049, Note_on_c, 0, 58, 0
1, 1455052, Note_on_c, 0, 55, 0
1, 1455323, Note_on_c, 0, 62, 84
1, 1455323, Note_on_c, 0, 58, 88
1, 1455330, Note_on_c, 0, 56, 0
1, 1455330, Note_on_c, 0, 60, 0
1, 1455330, Note_on_c, 0, 65, 0
1, 1455416, Note_on_c, 0, 58, 71
1, 1455416, Note_on_c, 0, 63, 83
1, 1455416, Note_on_c, 0, 56, 88
1, 1455423, Note_on_c, 0, 62, 0
1, 1455423, Note_on_c, 0, 58, 0
1, 1455428, Control_c, 0, 64, 0
1, 1455428, Control_c, 0, 64, 0
1, 1455675, Note_on_c, 0, 55, 83
1, 1455682, Note_on_c, 0, 56, 0
1, 1455762, Note_on_c, 0, 53, 82
1, 1455768, Note_on_c, 0, 55, 0
1, 1456021, Note_on_c, 0, 51, 77
1, 1456028, Note_on_c, 0, 53, 0
1, 1456107, Note_on_c, 0, 63, 0
1, 1456107, Note_on_c, 0, 58, 0
1, 1456107, Note_on_c, 0, 54, 77
1, 1456110, Note_on_c, 0, 58, 77
1, 1456110, Note_on_c, 0, 66, 90
1, 1456110, Note_on_c, 0, 51, 70
1, 1456114, Note_on_c, 0, 51, 0
1, 1456184, Control_c, 0, 64, 127
1, 1456184, Control_c, 0, 64, 127
1, 1456321, Control_c, 0, 64, 0
1, 1456321, Control_c, 0, 64, 0
1, 1456367, Note_on_c, 0, 51, 0
1, 1456367, Note_on_c, 0, 49, 68
1, 1456453, Note_on_c, 0, 49, 0
1, 1456453, Note_on_c, 0, 48, 67
1, 1456712, Note_on_c, 0, 48, 0
1, 1456712, Note_on_c, 0, 46, 65
1, 1456799, Note_on_c, 0, 58, 0
1, 1456799, Note_on_c, 0, 60, 74
1, 1456799, Note_on_c, 0, 53, 74
1, 1456802, Note_on_c, 0, 46, 0
1, 1456802, Note_on_c, 0, 65, 91
1, 1456802, Note_on_c, 0, 45, 63
1, 1456805, Note_on_c, 0, 66, 0
1, 1456805, Note_on_c, 0, 54, 0
1, 1456863, Control_c, 0, 64, 127
1, 1456863, Control_c, 0, 64, 127
1, 1457058, Note_on_c, 0, 45, 0
1, 1457058, Note_on_c, 0, 46, 66
1, 1457144, Note_on_c, 0, 46, 0
1, 1457144, Note_on_c, 0, 51, 66
1, 1457144, Note_on_c, 0, 63, 83
1, 1457147, Note_on_c, 0, 47, 67
1, 1457151, Note_on_c, 0, 65, 0
1, 1457151, Note_on_c, 0, 53, 0
1, 1457169, Control_c, 0, 64, 0
1, 1457169, Control_c, 0, 64, 0
1, 1457245, Control_c, 0, 64, 127
1, 1457245, Control_c, 0, 64, 127
1, 1457403, Note_on_c, 0, 47, 0
1, 1457403, Note_on_c, 0, 48, 70
1, 1457516, Note_on_c, 0, 60, 0
1, 1457516, Control_c, 0, 64, 127
1, 1457516, Note_on_c, 0, 50, 75
1, 1457519, Note_on_c, 0, 56, 75
1, 1457519, Note_on_c, 0, 62, 88
1, 1457519, Control_c, 0, 64, 127
1, 1457522, Note_on_c, 0, 51, 0
1, 1457522, Note_on_c, 0, 48, 0
1, 1457522, Note_on_c, 0, 46, 71
1, 1457525, Note_on_c, 0, 63, 0
1, 1457554, Control_c, 0, 64, 0
1, 1457554, Control_c, 0, 64, 0
1, 1457775, Note_on_c, 0, 46, 0
1, 1457775, Note_on_c, 0, 44, 68
1, 1457861, Note_on_c, 0, 44, 0
1, 1457861, Note_on_c, 0, 43, 67
1, 1458120, Note_on_c, 0, 43, 0
1, 1458120, Note_on_c, 0, 41, 64
1, 1458233, Note_on_c, 0, 56, 0
1, 1458233, Note_on_c, 0, 49, 71
1, 1458233, Note_on_c, 0, 55, 71
1, 1458236, Note_on_c, 0, 41, 0
1, 1458236, Note_on_c, 0, 61, 81
1, 1458236, Note_on_c, 0, 39, 63
1, 1458240, Note_on_c, 0, 50, 0
1, 1458240, Note_on_c, 0, 62, 0
1, 1458282, Control_c, 0, 64, 127
1, 1458282, Control_c, 0, 64, 127
1, 1458492, Note_on_c, 0, 39, 0
1, 1458492, Note_on_c, 0, 41, 66
1, 1458578, Note_on_c, 0, 41, 0
1, 1458578, Note_on_c, 0, 42, 67
1, 1458588, Control_c, 0, 64, 0
1, 1458588, Control_c, 0, 64, 0
1, 1458657, Control_c, 0, 64, 127
1, 1458657, Control_c, 0, 64, 127
1, 1458838, Note_on_c, 0, 42, 0
1, 1458838, Note_on_c, 0, 43, 69
1, 1458924, Note_on_c, 0, 55, 0
1, 1458924, Control_c, 0, 64, 127
1, 1458924, Note_on_c, 0, 48, 62
1, 1458927, Note_on_c, 0, 54, 62
1, 1458927, Note_on_c, 0, 60, 78
1, 1458927, Control_c, 0, 64, 127
1, 1458930, Note_on_c, 0, 49, 0
1, 1458930, Note_on_c, 0, 43, 0
1, 1458930, Note_on_c, 0, 61, 0
1, 1458930, Note_on_c, 0, 44, 70
1, 1458962, Control_c, 0, 64, 0
1, 1458962, Control_c, 0, 64, 0
1, 1459183, Note_on_c, 0, 44, 0
1, 1459183, Note_on_c, 0, 42, 67
1, 1459270, Note_on_c, 0, 42, 0
1, 1459270, Note_on_c, 0, 41, 66
1, 1459529, Note_on_c, 0, 41, 0
1, 1459529, Note_on_c, 0, 39, 64
1, 1459615, Note_on_c, 0, 54, 0
1, 1459615, Note_on_c, 0, 56, 67
1, 1459615, Note_on_c, 0, 51, 67
1, 1459618, Note_on_c, 0, 39, 0
1, 1459618, Note_on_c, 0, 53, 67
1, 1459618, Note_on_c, 0, 63, 86
1, 1459621, Note_on_c, 0, 48, 0
1, 1459621, Note_on_c, 0, 60, 0
1, 1459621, Note_on_c, 0, 37, 63
1, 1459674, Control_c, 0, 64, 127
1, 1459674, Control_c, 0, 64, 127
1, 1459922, Note_on_c, 0, 37, 0
1, 1459922, Note_on_c, 0, 39, 61
1, 1460008, Note_on_c, 0, 53, 0
1, 1460008, Note_on_c, 0, 49, 67
1, 1460008, Note_on_c, 0, 61, 80
1, 1460011, Note_on_c, 0, 39, 0
1, 1460011, Note_on_c, 0, 40, 61
1, 1460015, Note_on_c, 0, 51, 0
1, 1460015, Note_on_c, 0, 63, 0
1, 1460015, Control_c, 0, 64, 0
1, 1460015, Control_c, 0, 64, 0
1, 1460086, Control_c, 0, 64, 127
1, 1460086, Control_c, 0, 64, 127
1, 1460267, Note_on_c, 0, 40, 0
1, 1460267, Note_on_c, 0, 41, 59
1, 1460353, Note_on_c, 0, 56, 0
1, 1460353, Control_c, 0, 64, 127
1, 1460353, Note_on_c, 0, 48, 65
1, 1460356, Note_on_c, 0, 56, 65
1, 1460356, Note_on_c, 0, 60, 84
1, 1460356, Control_c, 0, 64, 127
1, 1460359, Note_on_c, 0, 61, 0
1, 1460359, Note_on_c, 0, 41, 0
1, 1460359, Note_on_c, 0, 49, 0
1, 1460359, Note_on_c, 0, 39, 58
1, 1460392, Control_c, 0, 64, 0
1, 1460392, Control_c, 0, 64, 0
1, 1460613, Note_on_c, 0, 39, 0
1, 1460613, Note_on_c, 0, 38, 56
1, 1460699, Note_on_c, 0, 38, 0
1, 1460699, Note_on_c, 0, 39, 56
1, 1460958, Note_on_c, 0, 39, 0
1, 1460958, Note_on_c, 0, 38, 54
1, 1461045, Note_on_c, 0, 46, 53
1, 1461045, Note_on_c, 0, 55, 53
1, 1461045, Note_on_c, 0, 58, 65
1, 1461048, Note_on_c, 0, 38, 0
1, 1461048, Note_on_c, 0, 39, 53
1, 1461051, Note_on_c, 0, 60, 0
1, 1461051, Note_on_c, 0, 48, 0
1, 1461051, Note_on_c, 0, 56, 0
1, 1461056, Control_c, 0, 64, 0
1, 1461056, Control_c, 0, 64, 0
1, 1461304, Note_on_c, 0, 39, 0
1, 1461304, Note_on_c, 0, 38, 51
1, 1461390, Note_on_c, 0, 38, 0
1, 1461390, Note_on_c, 0, 39, 51
1, 1461397, Note_on_c, 0, 46, 0
1, 1461397, Note_on_c, 0, 58, 0
1, 1461397, Note_on_c, 0, 55, 0
1, 1461649, Note_on_c, 0, 39, 0
1, 1461649, Note_on_c, 0, 38, 49
1, 1461736, Note_on_c, 0, 58, 52
1, 1461736, Note_on_c, 0, 63, 52
1, 1461736, Note_on_c, 0, 66, 52
1, 1461739, Note_on_c, 0, 38, 0
1, 1461739, Note_on_c, 0, 70, 74
1, 1461739, Note_on_c, 0, 39, 60
1, 1461742, Note_on_c, 0, 46, 75
1, 1461780, Control_c, 0, 64, 127
1, 1461780, Control_c, 0, 64, 127
1, 1461995, Note_on_c, 0, 39, 0
1, 1461995, Note_on_c, 0, 39, 60
1, 1462025, Note_on_c, 0, 39, 0
1, 1462081, Note_on_c, 0, 39, 60
1, 1462091, Control_c, 0, 64, 0
1, 1462091, Control_c, 0, 64, 0
1, 1462128, Note_on_c, 0, 39, 0
1, 1462269, Note_on_c, 0, 39, 60
1, 1462320, Note_on_c, 0, 39, 0
1, 1462473, Note_on_c, 0, 63, 0
1, 1462473, Note_on_c, 0, 66, 0
1, 1462473, Note_on_c, 0, 58, 0
1, 1462476, Note_on_c, 0, 70, 0
1, 1462476, Note_on_c, 0, 58, 56
1, 1462476, Note_on_c, 0, 63, 56
1, 1462479, Note_on_c, 0, 46, 0
1, 1462479, Note_on_c, 0, 66, 56
1, 1462479, Note_on_c, 0, 70, 79
1, 1462482, Note_on_c, 0, 46, 80
1, 1462482, Note_on_c, 0, 39, 60
1, 1462528, Control_c, 0, 64, 127
1, 1462528, Control_c, 0, 64, 127
1, 1462732, Note_on_c, 0, 39, 0
1, 1462732, Note_on_c, 0, 39, 60
1, 1462762, Note_on_c, 0, 39, 0
1, 1462819, Note_on_c, 0, 66, 0
1, 1462819, Note_on_c, 0, 63, 0
1, 1462819, Note_on_c, 0, 60, 58
1, 1462822, Note_on_c, 0, 63, 58
1, 1462822, Note_on_c, 0, 66, 58
1, 1462822, Note_on_c, 0, 69, 58
1, 1462825, Note_on_c, 0, 72, 82
1, 1462825, Note_on_c, 0, 48, 82
1, 1462825, Note_on_c, 0, 39, 60
1, 1462828, Note_on_c, 0, 58, 0
1, 1462828, Control_c, 0, 64, 0
1, 1462828, Control_c, 0, 64, 0
1, 1462831, Note_on_c, 0, 70, 0
1, 1462831, Note_on_c, 0, 46, 0
1, 1462870, Note_on_c, 0, 39, 0
1, 1462886, Control_c, 0, 64, 127
1, 1462886, Control_c, 0, 64, 127
1, 1463023, Note_on_c, 0, 39, 60
1, 1463079, Note_on_c, 0, 39, 0
1, 1463218, Control_c, 0, 64, 0
1, 1463218, Control_c, 0, 64, 0
1, 1463247, Note_on_c, 0, 66, 0
1, 1463247, Note_on_c, 0, 63, 0
1, 1463247, Control_c, 0, 64, 0
1, 1463250, Note_on_c, 0, 69, 0
1, 1463250, Note_on_c, 0, 65, 52
1, 1463250, Note_on_c, 0, 70, 52
1, 1463253, Note_on_c, 0, 61, 52
1, 1463253, Note_on_c, 0, 73, 77
1, 1463253, Control_c, 0, 64, 0
1, 1463256, Note_on_c, 0, 60, 0
1, 1463256, Note_on_c, 0, 34, 60
1, 1463256, Note_on_c, 0, 49, 76
1, 1463259, Note_on_c, 0, 72, 0
1, 1463259, Note_on_c, 0, 48, 0
1, 1463344, Control_c, 0, 64, 127
1, 1463344, Control_c, 0, 64, 127
1, 1463554, Note_on_c, 0, 34, 0
1, 1463554, Note_on_c, 0, 34, 60
1, 1463584, Note_on_c, 0, 34, 0
1, 1463640, Control_c, 0, 64, 0
1, 1463640, Note_on_c, 0, 34, 60
1, 1463640, Control_c, 0, 64, 0
1, 1463687, Note_on_c, 0, 34, 0
1, 1463827, Note_on_c, 0, 60, 49
1, 1463827, Note_on_c, 0, 72, 72
1, 1463827, Note_on_c, 0, 48, 66
1, 1463830, Note_on_c, 0, 34, 60
1, 1463837, Note_on_c, 0, 49, 0
1, 1463837, Note_on_c, 0, 73, 0
1, 1463837, Note_on_c, 0, 61, 0
1, 1463847, Control_c, 0, 64, 127
1, 1463847, Control_c, 0, 64, 127
1, 1463890, Note_on_c, 0, 34, 0
1, 1464077, Note_on_c, 0, 65, 0
1, 1464077, Note_on_c, 0, 70, 0
1, 1464077, Note_on_c, 0, 58, 43
1, 1464080, Note_on_c, 0, 70, 66
1, 1464080, Note_on_c, 0, 46, 62
1, 1464080, Note_on_c, 0, 34, 60
1, 1464084, Note_on_c, 0, 72, 0
1, 1464084, Note_on_c, 0, 60, 0
1, 1464084, Note_on_c, 0, 48, 0
1, 1464088, Control_c, 0, 64, 0
1, 1464088, Control_c, 0, 64, 0
1, 1464140, Control_c, 0, 64, 127
1, 1464140, Control_c, 0, 64, 127
1, 1464336, Note_on_c, 0, 34, 0
1, 1464336, Note_on_c, 0, 34, 60
1, 1464366, Note_on_c, 0, 34, 0
1, 1464423, Note_on_c, 0, 34, 60
1, 1464428, Control_c, 0, 64, 0
1, 1464428, Control_c, 0, 64, 0
1, 1464469, Note_on_c, 0, 34, 0
1, 1464610, Note_on_c, 0, 34, 60
1, 1464672, Note_on_c, 0, 34, 0
1, 1464859, Note_on_c, 0, 70, 0
1, 1464859, Note_on_c, 0, 58, 0
1, 1464859, Note_on_c, 0, 56, 48
1, 1464862, Note_on_c, 0, 61, 48
1, 1464862, Note_on_c, 0, 64, 48
1, 1464862, Note_on_c, 0, 68, 66
1, 1464865, Note_on_c, 0, 46, 0
1, 1464865, Note_on_c, 0, 37, 60
1, 1464865, Note_on_c, 0, 44, 71
1, 1464904, Control_c, 0, 64, 127
1, 1464904, Control_c, 0, 64, 127
1, 1465118, Note_on_c, 0, 37, 0
1, 1465118, Note_on_c, 0, 37, 60
1, 1465149, Note_on_c, 0, 37, 0
1, 1465205, Note_on_c, 0, 37, 60
1, 1465215, Control_c, 0, 64, 0
1, 1465215, Control_c, 0, 64, 0
1, 1465252, Note_on_c, 0, 37, 0
1, 1465392, Note_on_c, 0, 37, 60
1, 1465443, Note_on_c, 0, 37, 0
1, 1465596, Note_on_c, 0, 61, 0
1, 1465596, Note_on_c, 0, 56, 0
1, 1465596, Note_on_c, 0, 64, 0
1, 1465599, Note_on_c, 0, 68, 0
1, 1465599, Note_on_c, 0, 56, 48
1, 1465599, Note_on_c, 0, 61, 48
1, 1465602, Note_on_c, 0, 44, 0
1, 1465602, Note_on_c, 0, 64, 48
1, 1465602, Note_on_c, 0, 68, 70
1, 1465605, Note_on_c, 0, 44, 75
1, 1465605, Note_on_c, 0, 37, 60
1, 1465662, Control_c, 0, 64, 127
1, 1465662, Control_c, 0, 64, 127
1, 1465903, Note_on_c, 0, 37, 0
1, 1465903, Note_on_c, 0, 37, 60
1, 1465933, Note_on_c, 0, 37, 0
1, 1465989, Note_on_c, 0, 64, 0
1, 1465989, Note_on_c, 0, 61, 0
1, 1465989, Note_on_c, 0, 58, 58
1, 1465992, Note_on_c, 0, 61, 58
1, 1465992, Note_on_c, 0, 64, 58
1, 1465992, Note_on_c, 0, 67, 58
1, 1465995, Note_on_c, 0, 70, 82
1, 1465995, Note_on_c, 0, 46, 86
1, 1465995, Note_on_c, 0, 37, 60
1, 1465998, Note_on_c, 0, 56, 0
1, 1465998, Control_c, 0, 64, 0
1, 1465998, Control_c, 0, 64, 0
1, 1466001, Note_on_c, 0, 68, 0
1, 1466001, Note_on_c, 0, 44, 0
1, 1466040, Note_on_c, 0, 37, 0
1, 1466057, Control_c, 0, 64, 127
1, 1466057, Control_c, 0, 64, 127
1, 1466193, Note_on_c, 0, 37, 60
1, 1466256, Note_on_c, 0, 37, 0
1, 1466388, Control_c, 0, 64, 0
1, 1466388, Control_c, 0, 64, 0
1, 1466443, Note_on_c, 0, 64, 0
1, 1466443, Note_on_c, 0, 61, 0
1, 1466443, Control_c, 0, 64, 0
1, 1466446, Note_on_c, 0, 67, 0
1, 1466446, Note_on_c, 0, 59, 62
1, 1466446, Note_on_c, 0, 64, 62
1, 1466449, Note_on_c, 0, 68, 62
1, 1466449, Note_on_c, 0, 71, 87
1, 1466449, Control_c, 0, 64, 0
1, 1466452, Note_on_c, 0, 58, 0
1, 1466452, Note_on_c, 0, 32, 60
1, 1466452, Note_on_c, 0, 47, 83
1, 1466455, Note_on_c, 0, 70, 0
1, 1466455, Note_on_c, 0, 46, 0
1, 1466549, Control_c, 0, 64, 127
1, 1466549, Control_c, 0, 64, 127
1, 1466780, Note_on_c, 0, 32, 0
1, 1466780, Note_on_c, 0, 32, 60
1, 1466813, Note_on_c, 0, 32, 0
1, 1466873, Control_c, 0, 64, 0
1, 1466873, Note_on_c, 0, 32, 60
1, 1466873, Control_c, 0, 64, 0
1, 1466920, Note_on_c, 0, 32, 0
1, 1467061, Note_on_c, 0, 64, 0
1, 1467061, Note_on_c, 0, 68, 0
1, 1467061, Note_on_c, 0, 56, 56
1, 1467064, Note_on_c, 0, 68, 79
1, 1467064, Note_on_c, 0, 44, 77
1, 1467064, Note_on_c, 0, 32, 60
1, 1467072, Note_on_c, 0, 47, 0
1, 1467072, Note_on_c, 0, 59, 0
1, 1467072, Note_on_c, 0, 71, 0
1, 1467083, Control_c, 0, 64, 127
1, 1467083, Control_c, 0, 64, 127
1, 1467131, Note_on_c, 0, 32, 0
1, 1467341, Note_on_c, 0, 52, 59
1, 1467341, Note_on_c, 0, 64, 74
1, 1467341, Note_on_c, 0, 40, 73
1, 1467344, Note_on_c, 0, 32, 60
1, 1467349, Note_on_c, 0, 56, 0
1, 1467349, Note_on_c, 0, 68, 0
1, 1467349, Note_on_c, 0, 44, 0
1, 1467355, Control_c, 0, 64, 0
1, 1467355, Control_c, 0, 64, 0
1, 1467416, Control_c, 0, 64, 127
1, 1467416, Control_c, 0, 64, 127
1, 1467648, Note_on_c, 0, 32, 0
1, 1467648, Note_on_c, 0, 32, 60
1, 1467684, Note_on_c, 0, 32, 0
1, 1467750, Note_on_c, 0, 51, 55
1, 1467750, Note_on_c, 0, 63, 68
1, 1467750, Note_on_c, 0, 39, 65
1, 1467753, Note_on_c, 0, 32, 60
1, 1467757, Note_on_c, 0, 64, 0
1, 1467757, Note_on_c, 0, 52, 0
1, 1467757, Note_on_c, 0, 40, 0
1, 1467757, Control_c, 0, 64, 0
1, 1467757, Control_c, 0, 64, 0
1, 1467806, Note_on_c, 0, 32, 0
1, 1467842, Control_c, 0, 64, 127
1, 1467842, Control_c, 0, 64, 127
1, 1467974, Note_on_c, 0, 32, 60
1, 1468045, Note_on_c, 0, 32, 0
1, 1468205, Control_c, 0, 64, 0
1, 1468205, Control_c, 0, 64, 0
1, 1468255, Note_on_c, 0, 63, 0
1, 1468255, Note_on_c, 0, 51, 0
1, 1468255, Note_on_c, 0, 50, 61
1, 1468258, Note_on_c, 0, 39, 0
1, 1468258, Note_on_c, 0, 62, 68
1, 1468258, Note_on_c, 0, 34, 55
1, 1468261, Note_on_c, 0, 38, 55
1, 1468504, Control_c, 0, 64, 0
1, 1468504, Control_c, 0, 64, 0
1, 1468536, Note_on_c, 0, 62, 0
1, 1468536, Note_on_c, 0, 50, 0
1, 1468536, Note_on_c, 0, 58, 67
1, 1468539, Note_on_c, 0, 34, 0
1, 1468539, Note_on_c, 0, 38, 0
1, 1468548, Control_c, 0, 64, 0
1, 1468548, Control_c, 0, 64, 0
1, 1468740, Note_on_c, 0, 58, 0
1, 1468740, Note_on_c, 0, 58, 74
1, 1468740, Note_on_c, 0, 56, 63
1, 1468928, Note_on_c, 0, 58, 0
1, 1468928, Note_on_c, 0, 58, 80
1, 1469115, Note_on_c, 0, 58, 0
1, 1469115, Note_on_c, 0, 63, 87
1, 1469115, Note_on_c, 0, 55, 54
1, 1469122, Note_on_c, 0, 56, 0
1, 1469210, Control_c, 0, 64, 127
1, 1469210, Control_c, 0, 64, 127
1, 1469396, Note_on_c, 0, 58, 83
1, 1469482, Note_on_c, 0, 58, 0
1, 1469482, Note_on_c, 0, 58, 82
1, 1469530, Control_c, 0, 64, 0
1, 1469530, Control_c, 0, 64, 0
1, 1469655, Note_on_c, 0, 58, 0
1, 1469655, Note_on_c, 0, 58, 79
1, 1469797, Control_c, 0, 64, 0
1, 1469797, Control_c, 0, 64, 0
1, 1469828, Note_on_c, 0, 58, 0
1, 1469828, Note_on_c, 0, 63, 0
1, 1469828, Note_on_c, 0, 58, 78
1, 1469831, Note_on_c, 0, 53, 54
1, 1469831, Note_on_c, 0, 63, 81
1, 1469835, Note_on_c, 0, 55, 0
1, 1469894, Control_c, 0, 64, 0
1, 1469894, Control_c, 0, 64, 0
1, 1470015, Note_on_c, 0, 58, 0
1, 1470015, Note_on_c, 0, 56, 78
1, 1470188, Note_on_c, 0, 56, 0
1, 1470188, Note_on_c, 0, 56, 78
1, 1470360, Note_on_c, 0, 56, 0
1, 1470360, Note_on_c, 0, 56, 78
1, 1470533, Note_on_c, 0, 56, 0
1, 1470533, Note_on_c, 0, 53, 0
1, 1470533, Note_on_c, 0, 56, 78
1, 1470536, Note_on_c, 0, 53, 54
1, 1470536, Note_on_c, 0, 62, 72
1, 1470540, Note_on_c, 0, 63, 0
1, 1470574, Control_c, 0, 64, 127
1, 1470574, Control_c, 0, 64, 127
1, 1470706, Note_on_c, 0, 56, 0
1, 1470706, Note_on_c, 0, 56, 81
1, 1470789, Control_c, 0, 64, 0
1, 1470789, Control_c, 0, 64, 0
1, 1470802, Note_on_c, 0, 56, 0
1, 1470836, Note_on_c, 0, 56, 84
1, 1470877, Note_on_c, 0, 56, 0
1, 1470877, Control_c, 0, 64, 0
1, 1470877, Note_on_c, 0, 58, 84
1, 1470877, Control_c, 0, 64, 0
1, 1470962, Control_c, 0, 64, 0
1, 1470962, Control_c, 0, 64, 0
1, 1471083, Note_on_c, 0, 56, 87
1, 1471090, Note_on_c, 0, 58, 0
1, 1471270, Note_on_c, 0, 62, 0
1, 1471270, Note_on_c, 0, 53, 0
1, 1471270, Note_on_c, 0, 53, 54
1, 1471273, Note_on_c, 0, 62, 63
1, 1471273, Note_on_c, 0, 55, 63
1, 1471277, Note_on_c, 0, 56, 0
1, 1471443, Note_on_c, 0, 67, 67
1, 1471616, Note_on_c, 0, 67, 0
1, 1471616, Note_on_c, 0, 67, 74
1, 1471616, Note_on_c, 0, 59, 63
1, 1471622, Note_on_c, 0, 55, 0
1, 1471776, Note_on_c, 0, 67, 0
1, 1471776, Note_on_c, 0, 67, 80
1, 1471865, Note_on_c, 0, 67, 0
1, 1471897, Note_on_c, 0, 67, 77
1, 1471954, Control_c, 0, 64, 0
1, 1471954, Control_c, 0, 64, 0
1, 1471959, Note_on_c, 0, 59, 0
1, 1471959, Note_on_c, 0, 72, 87
1, 1471959, Note_on_c, 0, 51, 54
1, 1471962, Note_on_c, 0, 60, 63
1, 1471967, Note_on_c, 0, 53, 0
1, 1471967, Note_on_c, 0, 62, 0
1, 1472054, Control_c, 0, 64, 127
1, 1472054, Control_c, 0, 64, 127
1, 1472265, Note_on_c, 0, 72, 0
1, 1472265, Note_on_c, 0, 67, 0
1, 1472265, Note_on_c, 0, 67, 83
1, 1472340, Control_c, 0, 64, 0
1, 1472340, Control_c, 0, 64, 0
1, 1472345, Note_on_c, 0, 67, 0
1, 1472345, Note_on_c, 0, 67, 82
1, 1472345, Note_on_c, 0, 55, 63
1, 1472506, Note_on_c, 0, 67, 0
1, 1472506, Note_on_c, 0, 67, 79
1, 1472666, Note_on_c, 0, 67, 0
1, 1472666, Note_on_c, 0, 60, 0
1, 1472666, Note_on_c, 0, 67, 78
1, 1472669, Note_on_c, 0, 50, 54
1, 1472669, Note_on_c, 0, 60, 56
1, 1472669, Note_on_c, 0, 53, 63
1, 1472673, Note_on_c, 0, 51, 0
1, 1472673, Note_on_c, 0, 55, 0
1, 1472827, Note_on_c, 0, 67, 0
1, 1472827, Note_on_c, 0, 65, 78
1, 1472984, Note_on_c, 0, 65, 0
1, 1472984, Note_on_c, 0, 65, 78
1, 1472984, Note_on_c, 0, 56, 63
1, 1472990, Note_on_c, 0, 53, 0
1, 1473138, Note_on_c, 0, 65, 0
1, 1473138, Note_on_c, 0, 65, 78
1, 1473289, Note_on_c, 0, 65, 0
1, 1473289, Note_on_c, 0, 50, 0
1, 1473289, Note_on_c, 0, 65, 78
1, 1473292, Note_on_c, 0, 60, 0
1, 1473292, Note_on_c, 0, 56, 0
1, 1473292, Note_on_c, 0, 55, 63
1, 1473292, Note_on_c, 0, 50, 54
1, 1473292, Note_on_c, 0, 59, 56
1, 1473435, Note_on_c, 0, 65, 0
1, 1473435, Note_on_c, 0, 65, 81
1, 1473543, Note_on_c, 0, 65, 0
1, 1473543, Note_on_c, 0, 65, 84
1, 1473606, Note_on_c, 0, 65, 0
1, 1473606, Note_on_c, 0, 67, 84
1, 1473606, Note_on_c, 0, 53, 63
1, 1473613, Note_on_c, 0, 55, 0
1, 1473788, Note_on_c, 0, 65, 87
1, 1473795, Note_on_c, 0, 67, 0
1, 1473967, Note_on_c, 0, 63, 81
1, 1473967, Note_on_c, 0, 48, 60
1, 1473967, Note_on_c, 0, 51, 60
1, 1473970, Note_on_c, 0, 60, 68
1, 1473973, Note_on_c, 0, 53, 0
1, 1473973, Note_on_c, 0, 65, 0
1, 1473973, Note_on_c, 0, 50, 0
1, 1473976, Note_on_c, 0, 59, 0
1, 1474140, Note_on_c, 0, 75, 89
1, 1474312, Note_on_c, 0, 75, 0
1, 1474312, Note_on_c, 0, 75, 90
1, 1474312, Note_on_c, 0, 70, 81
1, 1474315, Note_on_c, 0, 60, 0
1, 1474315, Note_on_c, 0, 48, 0
1, 1474315, Note_on_c, 0, 51, 0
1, 1474318, Note_on_c, 0, 51, 61
1, 1474318, Note_on_c, 0, 55, 61
1, 1474318, Note_on_c, 0, 63, 69
1, 1474321, Note_on_c, 0, 63, 0
1, 1474321, Note_on_c, 0, 49, 61
1, 1474388, Control_c, 0, 64, 127
1, 1474388, Control_c, 0, 64, 127
1, 1474473, Note_on_c, 0, 75, 0
1, 1474473, Note_on_c, 0, 75, 90
1, 1474530, Note_on_c, 0, 75, 0
1, 1474593, Note_on_c, 0, 75, 91
1, 1474657, Control_c, 0, 64, 0
1, 1474657, Control_c, 0, 64, 0
1, 1474663, Note_on_c, 0, 75, 0
1, 1474663, Note_on_c, 0, 49, 0
1, 1474663, Note_on_c, 0, 80, 91
1, 1474666, Note_on_c, 0, 48, 63
1, 1474758, Control_c, 0, 64, 127
1, 1474758, Control_c, 0, 64, 127
1, 1474944, Note_on_c, 0, 80, 0
1, 1474944, Note_on_c, 0, 75, 91
1, 1475024, Note_on_c, 0, 75, 0
1, 1475024, Note_on_c, 0, 75, 91
1, 1475024, Note_on_c, 0, 68, 81
1, 1475027, Note_on_c, 0, 63, 0
1, 1475027, Note_on_c, 0, 55, 0
1, 1475027, Note_on_c, 0, 51, 0
1, 1475030, Note_on_c, 0, 70, 0
1, 1475030, Note_on_c, 0, 51, 64
1, 1475030, Note_on_c, 0, 56, 64
1, 1475030, Note_on_c, 0, 63, 72
1, 1475033, Control_c, 0, 64, 0
1, 1475033, Control_c, 0, 64, 0
1, 1475161, Control_c, 0, 64, 127
1, 1475161, Control_c, 0, 64, 127
1, 1475185, Note_on_c, 0, 75, 0
1, 1475185, Note_on_c, 0, 75, 92
1, 1475345, Note_on_c, 0, 75, 0
1, 1475345, Control_c, 0, 64, 127
1, 1475345, Note_on_c, 0, 75, 92
1, 1475348, Note_on_c, 0, 48, 0
1, 1475348, Control_c, 0, 64, 127
1, 1475348, Note_on_c, 0, 46, 65
1, 1475406, Control_c, 0, 64, 0
1, 1475406, Control_c, 0, 64, 0
1, 1475518, Note_on_c, 0, 75, 0
1, 1475518, Note_on_c, 0, 73, 93
1, 1475542, Control_c, 0, 64, 127
1, 1475542, Control_c, 0, 64, 127
1, 1475679, Note_on_c, 0, 73, 0
1, 1475679, Note_on_c, 0, 68, 0
1, 1475679, Note_on_c, 0, 73, 93
1, 1475682, Note_on_c, 0, 56, 0
1, 1475682, Note_on_c, 0, 51, 0
1, 1475682, Note_on_c, 0, 68, 81
1, 1475685, Note_on_c, 0, 63, 0
1, 1475685, Note_on_c, 0, 61, 77
1, 1475685, Note_on_c, 0, 53, 67
1, 1475691, Control_c, 0, 64, 0
1, 1475691, Control_c, 0, 64, 0
1, 1475774, Control_c, 0, 64, 127
1, 1475774, Control_c, 0, 64, 127
1, 1475836, Note_on_c, 0, 73, 0
1, 1475836, Note_on_c, 0, 73, 93
1, 1475989, Note_on_c, 0, 73, 0
1, 1475989, Note_on_c, 0, 46, 0
1, 1475989, Note_on_c, 0, 73, 94
1, 1475992, Note_on_c, 0, 53, 0
1, 1475992, Note_on_c, 0, 51, 68
1, 1476140, Note_on_c, 0, 73, 0
1, 1476140, Note_on_c, 0, 73, 94
1, 1476193, Note_on_c, 0, 73, 0
1, 1476250, Note_on_c, 0, 73, 95
1, 1476293, Control_c, 0, 64, 0
1, 1476293, Control_c, 0, 64, 0
1, 1476313, Note_on_c, 0, 73, 0
1, 1476313, Note_on_c, 0, 68, 0
1, 1476313, Note_on_c, 0, 75, 95
1, 1476316, Note_on_c, 0, 61, 0
1, 1476316, Note_on_c, 0, 58, 69
1, 1476316, Note_on_c, 0, 61, 69
1, 1476319, Note_on_c, 0, 67, 79
1, 1476495, Note_on_c, 0, 73, 95
1, 1476502, Note_on_c, 0, 75, 0
1, 1476674, Note_on_c, 0, 51, 0
1, 1476674, Note_on_c, 0, 58, 0
1, 1476674, Note_on_c, 0, 72, 88
1, 1476677, Note_on_c, 0, 61, 0
1, 1476677, Note_on_c, 0, 52, 70
1, 1476677, Note_on_c, 0, 58, 70
1, 1476680, Note_on_c, 0, 73, 0
1, 1476680, Note_on_c, 0, 60, 70
1, 1476843, Note_on_c, 0, 72, 88
1, 1476843, Note_on_c, 0, 84, 100
1, 1476999, Note_on_c, 0, 84, 0
1, 1476999, Note_on_c, 0, 72, 0
1, 1476999, Note_on_c, 0, 72, 0
1, 1477002, Note_on_c, 0, 67, 0
1, 1477002, Note_on_c, 0, 72, 91
1, 1477002, Note_on_c, 0, 84, 103
1, 1477005, Note_on_c, 0, 67, 83
1, 1477073, Control_c, 0, 64, 127
1, 1477073, Control_c, 0, 64, 127
1, 1477155, Note_on_c, 0, 84, 0
1, 1477155, Note_on_c, 0, 72, 0
1, 1477155, Note_on_c, 0, 72, 94
1, 1477158, Note_on_c, 0, 84, 107
1, 1477354, Control_c, 0, 64, 0
1, 1477354, Control_c, 0, 64, 0
1, 1477359, Note_on_c, 0, 84, 0
1, 1477359, Note_on_c, 0, 72, 0
1, 1477359, Note_on_c, 0, 80, 96
1, 1477362, Note_on_c, 0, 58, 0
1, 1477362, Note_on_c, 0, 52, 0
1, 1477362, Note_on_c, 0, 92, 110
1, 1477365, Note_on_c, 0, 60, 0
1, 1477365, Note_on_c, 0, 53, 73
1, 1477365, Note_on_c, 0, 56, 73
1, 1477368, Note_on_c, 0, 60, 73
1, 1477454, Control_c, 0, 64, 127
1, 1477454, Control_c, 0, 64, 127
1, 1477640, Note_on_c, 0, 80, 0
1, 1477640, Note_on_c, 0, 92, 0
1, 1477640, Note_on_c, 0, 72, 91
1, 1477643, Note_on_c, 0, 84, 104
1, 1477726, Note_on_c, 0, 84, 0
1, 1477726, Note_on_c, 0, 72, 0
1, 1477726, Note_on_c, 0, 72, 92
1, 1477729, Note_on_c, 0, 67, 0
1, 1477729, Note_on_c, 0, 84, 105
1, 1477729, Note_on_c, 0, 68, 86
1, 1477735, Control_c, 0, 64, 0
1, 1477735, Control_c, 0, 64, 0
1, 1477873, Control_c, 0, 64, 127
1, 1477873, Control_c, 0, 64, 127
1, 1477899, Note_on_c, 0, 84, 0
1, 1477899, Note_on_c, 0, 72, 0
1, 1477899, Note_on_c, 0, 72, 93
1, 1477902, Note_on_c, 0, 84, 106
1, 1478068, Note_on_c, 0, 84, 0
1, 1478068, Note_on_c, 0, 72, 0
1, 1478068, Control_c, 0, 64, 127
1, 1478071, Note_on_c, 0, 72, 94
1, 1478071, Note_on_c, 0, 84, 107
1, 1478071, Control_c, 0, 64, 127
1, 1478074, Note_on_c, 0, 53, 0
1, 1478074, Note_on_c, 0, 60, 0
1, 1478074, Note_on_c, 0, 56, 0
1, 1478077, Note_on_c, 0, 49, 76
1, 1478077, Note_on_c, 0, 56, 76
1, 1478077, Note_on_c, 0, 58, 76
1, 1478126, Control_c, 0, 64, 0
1, 1478126, Control_c, 0, 64, 0
1, 1478233, Note_on_c, 0, 84, 0
1, 1478233, Note_on_c, 0, 72, 0
1, 1478233, Note_on_c, 0, 70, 89
1, 1478236, Note_on_c, 0, 82, 100
1, 1478257, Control_c, 0, 64, 127
1, 1478257, Control_c, 0, 64, 127
1, 1478394, Note_on_c, 0, 82, 0
1, 1478394, Note_on_c, 0, 70, 0
1, 1478394, Note_on_c, 0, 70, 91
1, 1478397, Note_on_c, 0, 68, 0
1, 1478397, Note_on_c, 0, 82, 103
1, 1478397, Note_on_c, 0, 65, 89
1, 1478407, Control_c, 0, 64, 0
1, 1478407, Control_c, 0, 64, 0
1, 1478490, Control_c, 0, 64, 127
1, 1478490, Control_c, 0, 64, 127
1, 1478552, Note_on_c, 0, 82, 0
1, 1478552, Note_on_c, 0, 70, 0
1, 1478552, Note_on_c, 0, 70, 92
1, 1478555, Note_on_c, 0, 82, 105
1, 1478705, Note_on_c, 0, 82, 0
1, 1478705, Note_on_c, 0, 70, 0
1, 1478705, Note_on_c, 0, 70, 94
1, 1478708, Note_on_c, 0, 49, 0
1, 1478708, Note_on_c, 0, 56, 0
1, 1478708, Note_on_c, 0, 82, 107
1, 1478711, Note_on_c, 0, 58, 0
1, 1478711, Note_on_c, 0, 52, 79
1, 1478711, Note_on_c, 0, 55, 79
1, 1478856, Note_on_c, 0, 70, 0
1, 1478856, Note_on_c, 0, 82, 0
1, 1478856, Note_on_c, 0, 70, 92
1, 1478859, Note_on_c, 0, 82, 105
1, 1478967, Note_on_c, 0, 82, 0
1, 1478967, Note_on_c, 0, 70, 0
1, 1478967, Note_on_c, 0, 70, 90
1, 1478970, Note_on_c, 0, 82, 103
1, 1479019, Control_c, 0, 64, 0
1, 1479019, Control_c, 0, 64, 0
1, 1479042, Note_on_c, 0, 82, 0
1, 1479042, Note_on_c, 0, 70, 0
1, 1479042, Note_on_c, 0, 72, 90
1, 1479045, Note_on_c, 0, 65, 0
1, 1479045, Note_on_c, 0, 84, 103
1, 1479045, Note_on_c, 0, 60, 94
1, 1479198, Note_on_c, 0, 70, 86
1, 1479198, Note_on_c, 0, 82, 97
1, 1479204, Note_on_c, 0, 84, 0
1, 1479204, Note_on_c, 0, 72, 0
1, 1479354, Note_on_c, 0, 52, 0
1, 1479354, Note_on_c, 0, 68, 88
1, 1479354, Note_on_c, 0, 80, 100
1, 1479357, Note_on_c, 0, 55, 0
1, 1479357, Note_on_c, 0, 53, 79
1, 1479357, Note_on_c, 0, 56, 79
1, 1479360, Note_on_c, 0, 70, 0
1, 1479360, Note_on_c, 0, 82, 0
1, 1479402, Control_c, 0, 64, 127
1, 1479402, Control_c, 0, 64, 127
1, 1479510, Note_on_c, 0, 68, 0
1, 1479510, Note_on_c, 0, 80, 0
1, 1479510, Note_on_c, 0, 72, 89
1, 1479513, Note_on_c, 0, 84, 101
1, 1479660, Note_on_c, 0, 84, 0
1, 1479660, Note_on_c, 0, 72, 0
1, 1479660, Note_on_c, 0, 72, 90
1, 1479663, Note_on_c, 0, 53, 0
1, 1479663, Note_on_c, 0, 56, 0
1, 1479663, Note_on_c, 0, 84, 102
1, 1479666, Note_on_c, 0, 60, 0
1, 1479666, Note_on_c, 0, 51, 86
1, 1479666, Note_on_c, 0, 57, 86
1, 1479669, Note_on_c, 0, 65, 96
1, 1479678, Control_c, 0, 64, 0
1, 1479678, Control_c, 0, 64, 0
1, 1479771, Control_c, 0, 64, 127
1, 1479771, Control_c, 0, 64, 127
1, 1479809, Note_on_c, 0, 84, 0
1, 1479809, Note_on_c, 0, 72, 0
1, 1479809, Note_on_c, 0, 72, 90
1, 1479812, Note_on_c, 0, 84, 103
1, 1479982, Note_on_c, 0, 84, 0
1, 1479982, Note_on_c, 0, 72, 0
1, 1479982, Note_on_c, 0, 77, 99
1, 1479985, Note_on_c, 0, 57, 0
1, 1479985, Note_on_c, 0, 51, 0
1, 1479985, Note_on_c, 0, 89, 117
1, 1479988, Note_on_c, 0, 65, 0
1, 1479988, Note_on_c, 0, 50, 87
1, 1479988, Note_on_c, 0, 58, 87
1, 1479991, Control_c, 0, 64, 0
1, 1479991, Note_on_c, 0, 65, 97
1, 1479991, Control_c, 0, 64, 0
1, 1480093, Control_c, 0, 64, 127
1, 1480093, Control_c, 0, 64, 127
1, 1480241, Note_on_c, 0, 89, 0
1, 1480241, Note_on_c, 0, 77, 0
1, 1480241, Note_on_c, 0, 70, 92
1, 1480244, Note_on_c, 0, 82, 105
1, 1480328, Note_on_c, 0, 82, 0
1, 1480328, Note_on_c, 0, 70, 0
1, 1480328, Note_on_c, 0, 70, 91
1, 1480331, Note_on_c, 0, 58, 0
1, 1480331, Note_on_c, 0, 50, 0
1, 1480331, Note_on_c, 0, 82, 103
1, 1480334, Note_on_c, 0, 65, 0
1, 1480334, Note_on_c, 0, 48, 89
1, 1480334, Note_on_c, 0, 53, 89
1, 1480337, Control_c, 0, 64, 0
1, 1480337, Note_on_c, 0, 63, 98
1, 1480337, Control_c, 0, 64, 0
1, 1480408, Control_c, 0, 64, 127
1, 1480408, Control_c, 0, 64, 127
1, 1480488, Note_on_c, 0, 82, 0
1, 1480488, Note_on_c, 0, 70, 0
1, 1480488, Note_on_c, 0, 69, 89
1, 1480491, Note_on_c, 0, 81, 101
1, 1480635, Control_c, 0, 64, 0
1, 1480635, Control_c, 0, 64, 0
1, 1480649, Note_on_c, 0, 81, 0
1, 1480649, Note_on_c, 0, 69, 0
1, 1480649, Note_on_c, 0, 68, 87
1, 1480652, Note_on_c, 0, 53, 0
1, 1480652, Note_on_c, 0, 48, 0
1, 1480652, Note_on_c, 0, 80, 98
1, 1480655, Note_on_c, 0, 63, 0
1, 1480655, Note_on_c, 0, 46, 90
1, 1480655, Note_on_c, 0, 53, 90
1, 1480658, Note_on_c, 0, 62, 100
1, 1480698, Control_c, 0, 64, 127
1, 1480698, Control_c, 0, 64, 127
1, 1480809, Note_on_c, 0, 80, 0
1, 1480809, Note_on_c, 0, 68, 0
1, 1480809, Note_on_c, 0, 77, 95
1, 1480812, Note_on_c, 0, 89, 108
1, 1480959, Note_on_c, 0, 89, 0
1, 1480959, Note_on_c, 0, 77, 0
1, 1480959, Note_on_c, 0, 77, 95
1, 1480962, Note_on_c, 0, 53, 0
1, 1480962, Note_on_c, 0, 46, 0
1, 1480962, Note_on_c, 0, 89, 109
1, 1480965, Note_on_c, 0, 62, 0
1, 1480965, Note_on_c, 0, 44, 91
1, 1480965, Note_on_c, 0, 50, 91
1, 1480968, Note_on_c, 0, 58, 102
1, 1480978, Control_c, 0, 64, 0
1, 1480978, Control_c, 0, 64, 0
1, 1481078, Control_c, 0, 64, 127
1, 1481078, Control_c, 0, 64, 127
1, 1481119, Note_on_c, 0, 89, 0
1, 1481119, Note_on_c, 0, 77, 0
1, 1481119, Note_on_c, 0, 77, 96
1, 1481122, Note_on_c, 0, 89, 109
1, 1481280, Note_on_c, 0, 89, 0
1, 1481280, Note_on_c, 0, 77, 0
1, 1481280, Note_on_c, 0, 82, 105
1, 1481283, Note_on_c, 0, 50, 0
1, 1481283, Note_on_c, 0, 44, 0
1, 1481283, Note_on_c, 0, 94, 117
1, 1481286, Note_on_c, 0, 58, 0
1, 1481286, Note_on_c, 0, 43, 92
1, 1481286, Note_on_c, 0, 51, 92
1, 1481289, Control_c, 0, 64, 0
1, 1481289, Note_on_c, 0, 58, 103
1, 1481289, Control_c, 0, 64, 0
1, 1481383, Control_c, 0, 64, 127
1, 1481383, Control_c, 0, 64, 127
1, 1481521, Note_on_c, 0, 94, 0
1, 1481521, Note_on_c, 0, 82, 0
1, 1481521, Note_on_c, 0, 75, 98
1, 1481524, Note_on_c, 0, 87, 112
1, 1481601, Note_on_c, 0, 87, 0
1, 1481601, Note_on_c, 0, 75, 0
1, 1481601, Note_on_c, 0, 75, 97
1, 1481604, Note_on_c, 0, 51, 0
1, 1481604, Note_on_c, 0, 43, 0
1, 1481604, Note_on_c, 0, 87, 110
1, 1481607, Note_on_c, 0, 58, 0
1, 1481607, Note_on_c, 0, 41, 94
1, 1481607, Note_on_c, 0, 46, 94
1, 1481610, Control_c, 0, 64, 0
1, 1481610, Note_on_c, 0, 56, 104
1, 1481610, Control_c, 0, 64, 0
1, 1481681, Control_c, 0, 64, 127
1, 1481681, Control_c, 0, 64, 127
1, 1481761, Note_on_c, 0, 87, 0
1, 1481761, Note_on_c, 0, 75, 0
1, 1481761, Note_on_c, 0, 74, 95
1, 1481764, Note_on_c, 0, 86, 108
1, 1481908, Control_c, 0, 64, 0
1, 1481908, Control_c, 0, 64, 0
1, 1481922, Note_on_c, 0, 86, 0
1, 1481922, Note_on_c, 0, 74, 0
1, 1481922, Note_on_c, 0, 73, 93
1, 1481925, Note_on_c, 0, 46, 0
1, 1481925, Note_on_c, 0, 41, 0
1, 1481925, Note_on_c, 0, 85, 104
1, 1481928, Note_on_c, 0, 56, 0
1, 1481928, Note_on_c, 0, 39, 95
1, 1481928, Note_on_c, 0, 46, 95
1, 1481931, Note_on_c, 0, 55, 106
1, 1481971, Control_c, 0, 64, 127
1, 1481971, Control_c, 0, 64, 127
1, 1482082, Note_on_c, 0, 85, 0
1, 1482082, Note_on_c, 0, 73, 0
1, 1482082, Note_on_c, 0, 82, 100
1, 1482085, Note_on_c, 0, 94, 115
1, 1482232, Note_on_c, 0, 94, 0
1, 1482232, Note_on_c, 0, 82, 0
1, 1482232, Note_on_c, 0, 82, 101
1, 1482235, Note_on_c, 0, 46, 0
1, 1482235, Note_on_c, 0, 39, 0
1, 1482235, Note_on_c, 0, 94, 115
1, 1482238, Note_on_c, 0, 55, 0
1, 1482238, Note_on_c, 0, 37, 97
1, 1482238, Note_on_c, 0, 43, 97
1, 1482241, Note_on_c, 0, 51, 108
1, 1482253, Control_c, 0, 64, 0
1, 1482253, Control_c, 0, 64, 0
1, 1482360, Control_c, 0, 64, 127
1, 1482360, Control_c, 0, 64, 127
1, 1482405, Note_on_c, 0, 94, 0
1, 1482405, Note_on_c, 0, 82, 0
1, 1482405, Note_on_c, 0, 82, 102
1, 1482408, Note_on_c, 0, 94, 117
1, 1482609, Note_on_c, 0, 94, 0
1, 1482609, Note_on_c, 0, 82, 0
1, 1482609, Note_on_c, 0, 87, 110
1, 1482612, Note_on_c, 0, 43, 0
1, 1482612, Note_on_c, 0, 37, 0
1, 1482612, Note_on_c, 0, 99, 117
1, 1482615, Note_on_c, 0, 51, 0
1, 1482615, Note_on_c, 0, 36, 97
1, 1482615, Note_on_c, 0, 44, 97
1, 1482618, Control_c, 0, 64, 0
1, 1482618, Note_on_c, 0, 51, 109
1, 1482618, Control_c, 0, 64, 0
1, 1482729, Control_c, 0, 64, 127
1, 1482729, Control_c, 0, 64, 127
1, 1482890, Note_on_c, 0, 99, 0
1, 1482890, Note_on_c, 0, 87, 0
1, 1482890, Note_on_c, 0, 80, 103
1, 1482893, Note_on_c, 0, 92, 117
1, 1482983, Note_on_c, 0, 92, 0
1, 1482983, Note_on_c, 0, 80, 0
1, 1482983, Note_on_c, 0, 80, 104
1, 1482986, Note_on_c, 0, 44, 0
1, 1482986, Note_on_c, 0, 36, 0
1, 1482986, Note_on_c, 0, 92, 117
1, 1482989, Note_on_c, 0, 51, 0
1, 1482989, Note_on_c, 0, 34, 99
1, 1482989, Note_on_c, 0, 39, 99
1, 1482992, Control_c, 0, 64, 0
1, 1482992, Note_on_c, 0, 49, 111
1, 1482992, Control_c, 0, 64, 0
1, 1483085, Control_c, 0, 64, 127
1, 1483085, Control_c, 0, 64, 127
1, 1483188, Note_on_c, 0, 92, 0
1, 1483188, Note_on_c, 0, 80, 0
1, 1483188, Note_on_c, 0, 79, 105
1, 1483191, Note_on_c, 0, 91, 117
1, 1483392, Control_c, 0, 64, 0
1, 1483392, Control_c, 0, 64, 0
1, 1483412, Note_on_c, 0, 91, 0
1, 1483412, Note_on_c, 0, 79, 0
1, 1483412, Note_on_c, 0, 78, 109
1, 1483415, Note_on_c, 0, 39, 0
1, 1483415, Note_on_c, 0, 34, 0
1, 1483415, Note_on_c, 0, 90, 117
1, 1483418, Note_on_c, 0, 49, 0
1, 1483418, Note_on_c, 0, 33, 109
1, 1483418, Note_on_c, 0, 39, 97
1, 1483421, Note_on_c, 0, 48, 97
1, 1483532, Control_c, 0, 64, 0
1, 1483532, Control_c, 0, 64, 0
1, 1483637, Note_on_c, 0, 48, 0
1, 1483637, Note_on_c, 0, 33, 0
1, 1483637, Note_on_c, 0, 39, 0
1, 1483740, Control_c, 0, 64, 127
1, 1483740, Control_c, 0, 64, 127
1, 1483749, Note_on_c, 0, 90, 0
1, 1483749, Note_on_c, 0, 78, 0
1, 1483749, Note_on_c, 0, 78, 101
1, 1483752, Note_on_c, 0, 87, 101
1, 1483752, Note_on_c, 0, 90, 113
1, 1483752, Note_on_c, 0, 33, 102
1, 1483755, Note_on_c, 0, 45, 90
1, 1483829, Note_on_c, 0, 90, 0
1, 1483829, Note_on_c, 0, 78, 0
1, 1483829, Note_on_c, 0, 87, 0
1, 1483832, Note_on_c, 0, 78, 116
1, 1483832, Note_on_c, 0, 87, 117
1, 1483832, Note_on_c, 0, 90, 117
1, 1483835, Note_on_c, 0, 33, 0
1, 1483835, Note_on_c, 0, 45, 0
1, 1483835, Note_on_c, 0, 33, 117
1, 1483838, Note_on_c, 0, 45, 113
1, 1484260, Control_c, 0, 64, 0
1, 1484260, Control_c, 0, 64, 0
1, 1484311, Note_on_c, 0, 87, 0
1, 1484311, Note_on_c, 0, 90, 0
1, 1484311, Note_on_c, 0, 78, 0
1, 1484314, Note_on_c, 0, 77, 95
1, 1484314, Note_on_c, 0, 85, 95
1, 1484314, Note_on_c, 0, 89, 108
1, 1484317, Note_on_c, 0, 33, 0
1, 1484317, Note_on_c, 0, 45, 0
1, 1484317, Note_on_c, 0, 34, 89
1, 1484320, Note_on_c, 0, 46, 98
1, 1484359, Note_on_c, 0, 85, 0
1, 1484359, Note_on_c, 0, 89, 0
1, 1484359, Note_on_c, 0, 77, 0
1, 1484362, Note_on_c, 0, 34, 0
1, 1484362, Note_on_c, 0, 46, 0
1, 1484471, Note_on_c, 0, 75, 96
1, 1484471, Note_on_c, 0, 84, 96
1, 1484471, Note_on_c, 0, 87, 109
1, 1484474, Note_on_c, 0, 36, 90
1, 1484474, Note_on_c, 0, 48, 100
1, 1484519, Note_on_c, 0, 87, 0
1, 1484519, Note_on_c, 0, 75, 0
1, 1484519, Note_on_c, 0, 84, 0
1, 1484522, Note_on_c, 0, 36, 0
1, 1484522, Note_on_c, 0, 48, 0
1, 1484632, Note_on_c, 0, 73, 96
1, 1484632, Note_on_c, 0, 82, 96
1, 1484632, Note_on_c, 0, 85, 110
1, 1484635, Note_on_c, 0, 37, 91
1, 1484635, Note_on_c, 0, 49, 100
1, 1484680, Note_on_c, 0, 85, 0
1, 1484680, Note_on_c, 0, 73, 0
1, 1484680, Note_on_c, 0, 82, 0
1, 1484683, Note_on_c, 0, 37, 0
1, 1484683, Note_on_c, 0, 49, 0
1, 1484792, Note_on_c, 0, 72, 97
1, 1484792, Note_on_c, 0, 80, 97
1, 1484792, Note_on_c, 0, 84, 111
1, 1484795, Note_on_c, 0, 39, 92
1, 1484795, Note_on_c, 0, 51, 101
1, 1484840, Note_on_c, 0, 84, 0
1, 1484840, Note_on_c, 0, 72, 0
1, 1484840, Note_on_c, 0, 80, 0
1, 1484843, Note_on_c, 0, 39, 0
1, 1484843, Note_on_c, 0, 51, 0
1, 1484953, Note_on_c, 0, 70, 98
1, 1484953, Note_on_c, 0, 79, 98
1, 1484953, Note_on_c, 0, 82, 113
1, 1484956, Note_on_c, 0, 40, 93
1, 1484956, Note_on_c, 0, 52, 103
1, 1485001, Note_on_c, 0, 82, 0
1, 1485001, Note_on_c, 0, 70, 0
1, 1485001, Note_on_c, 0, 79, 0
1, 1485004, Note_on_c, 0, 40, 0
1, 1485004, Note_on_c, 0, 52, 0
1, 1485113, Note_on_c, 0, 68, 100
1, 1485113, Note_on_c, 0, 77, 100
1, 1485113, Note_on_c, 0, 80, 114
1, 1485116, Note_on_c, 0, 41, 94
1, 1485116, Note_on_c, 0, 53, 104
1, 1485161, Note_on_c, 0, 80, 0
1, 1485161, Note_on_c, 0, 68, 0
1, 1485161, Note_on_c, 0, 77, 0
1, 1485164, Note_on_c, 0, 41, 0
1, 1485164, Note_on_c, 0, 53, 0
1, 1485274, Note_on_c, 0, 65, 101
1, 1485274, Note_on_c, 0, 73, 101
1, 1485274, Note_on_c, 0, 77, 115
1, 1485277, Note_on_c, 0, 43, 95
1, 1485277, Note_on_c, 0, 55, 105
1, 1485325, Note_on_c, 0, 77, 0
1, 1485325, Note_on_c, 0, 65, 0
1, 1485325, Note_on_c, 0, 73, 0
1, 1485328, Note_on_c, 0, 43, 0
1, 1485328, Note_on_c, 0, 55, 0
1, 1485446, Note_on_c, 0, 63, 102
1, 1485446, Note_on_c, 0, 72, 102
1, 1485446, Note_on_c, 0, 75, 117
1, 1485449, Note_on_c, 0, 44, 96
1, 1485449, Note_on_c, 0, 56, 107
1, 1485498, Note_on_c, 0, 75, 0
1, 1485498, Note_on_c, 0, 63, 0
1, 1485498, Note_on_c, 0, 72, 0
1, 1485501, Note_on_c, 0, 44, 0
1, 1485501, Note_on_c, 0, 56, 0
1, 1485619, Note_on_c, 0, 65, 102
1, 1485619, Note_on_c, 0, 70, 102
1, 1485619, Note_on_c, 0, 73, 117
1, 1485622, Note_on_c, 0, 49, 97
1, 1485622, Note_on_c, 0, 61, 107
1, 1485675, Note_on_c, 0, 73, 0
1, 1485675, Note_on_c, 0, 65, 0
1, 1485675, Note_on_c, 0, 70, 0
1, 1485678, Note_on_c, 0, 49, 0
1, 1485678, Note_on_c, 0, 61, 0
1, 1485806, Note_on_c, 0, 68, 103
1, 1485806, Note_on_c, 0, 72, 117
1, 1485806, Note_on_c, 0, 51, 98
1, 1485809, Note_on_c, 0, 63, 109
1, 1485863, Note_on_c, 0, 51, 0
1, 1485863, Note_on_c, 0, 68, 0
1, 1485863, Note_on_c, 0, 72, 0
1, 1485866, Note_on_c, 0, 63, 0
1, 1485994, Note_on_c, 0, 61, 105
1, 1485994, Note_on_c, 0, 63, 105
1, 1485994, Note_on_c, 0, 67, 105
1, 1485997, Note_on_c, 0, 70, 117
1, 1485997, Note_on_c, 0, 39, 99
1, 1485997, Note_on_c, 0, 51, 110
1, 1486061, Note_on_c, 0, 67, 0
1, 1486061, Note_on_c, 0, 61, 0
1, 1486061, Note_on_c, 0, 63, 0
1, 1486064, Note_on_c, 0, 70, 0
1, 1486064, Note_on_c, 0, 39, 0
1, 1486064, Note_on_c, 0, 51, 0
1, 1486218, Note_on_c, 0, 60, 108
1, 1486218, Note_on_c, 0, 63, 108
1, 1486218, Note_on_c, 0, 68, 117
1, 1486221, Note_on_c, 0, 32, 99
1, 1486221, Note_on_c, 0, 44, 108
1, 1486356, Control_c, 0, 64, 127
1, 1486356, Control_c, 0, 64, 127
1, 1486391, Note_on_c, 0, 68, 0
1, 1486391, Note_on_c, 0, 60, 0
1, 1486391, Note_on_c, 0, 63, 0
1, 1486477, Note_on_c, 0, 75, 110
1, 1486564, Note_on_c, 0, 75, 0
1, 1486564, Note_on_c, 0, 75, 110
1, 1486724, Note_on_c, 0, 75, 0
1, 1486804, Note_on_c, 0, 75, 110
1, 1486858, Note_on_c, 0, 75, 0
1, 1486858, Note_on_c, 0, 75, 110
1, 1486911, Note_on_c, 0, 75, 0
1, 1486911, Note_on_c, 0, 80, 117
1, 1486911, Note_on_c, 0, 68, 113
1, 1487084, Note_on_c, 0, 80, 0
1, 1487170, Note_on_c, 0, 72, 110
1, 1487257, Note_on_c, 0, 72, 0
1, 1487257, Note_on_c, 0, 68, 0
1, 1487257, Note_on_c, 0, 72, 110
1, 1487260, Note_on_c, 0, 63, 113
1, 1487417, Note_on_c, 0, 72, 0
1, 1487498, Note_on_c, 0, 72, 110
1, 1487551, Note_on_c, 0, 72, 0
1, 1487551, Note_on_c, 0, 72, 110
1, 1487604, Note_on_c, 0, 72, 0
1, 1487604, Control_c, 0, 64, 127
1, 1487604, Note_on_c, 0, 75, 114
1, 1487607, Note_on_c, 0, 63, 0
1, 1487607, Control_c, 0, 64, 127
1, 1487607, Note_on_c, 0, 60, 113
1, 1487777, Note_on_c, 0, 75, 0
1, 1487864, Note_on_c, 0, 68, 110
1, 1487950, Note_on_c, 0, 68, 0
1, 1487950, Note_on_c, 0, 60, 0
1, 1487950, Note_on_c, 0, 68, 110
1, 1487953, Note_on_c, 0, 56, 113
1, 1488111, Note_on_c, 0, 68, 0
1, 1488191, Note_on_c, 0, 68, 110
1, 1488244, Note_on_c, 0, 68, 0
1, 1488244, Note_on_c, 0, 68, 110
1, 1488298, Note_on_c, 0, 44, 0
1, 1488298, Note_on_c, 0, 32, 0
1, 1488298, Note_on_c, 0, 72, 110
1, 1488301, Note_on_c, 0, 56, 0
1, 1488301, Note_on_c, 0, 64, 113
1, 1488347, Control_c, 0, 64, 0
1, 1488347, Control_c, 0, 64, 0
1, 1488446, Control_c, 0, 64, 127
1, 1488446, Control_c, 0, 64, 127
1, 1488557, Note_on_c, 0, 64, 110
1, 1488557, Note_on_c, 0, 44, 110
1, 1488643, Note_on_c, 0, 64, 0
1, 1488643, Note_on_c, 0, 64, 0
1, 1488643, Note_on_c, 0, 64, 110
1, 1488646, Note_on_c, 0, 44, 0
1, 1488646, Note_on_c, 0, 44, 110
1, 1488816, Note_on_c, 0, 44, 0
1, 1488816, Note_on_c, 0, 64, 0
1, 1488902, Note_on_c, 0, 64, 110
1, 1488902, Note_on_c, 0, 44, 110
1, 1488951, Control_c, 0, 64, 0
1, 1488951, Control_c, 0, 64, 0
1, 1488989, Note_on_c, 0, 64, 0
1, 1488989, Note_on_c, 0, 68, 0
1, 1488989, Note_on_c, 0, 72, 0
1, 1488992, Note_on_c, 0, 65, 99
1, 1488992, Note_on_c, 0, 68, 99
1, 1488992, Note_on_c, 0, 73, 115
1, 1488995, Note_on_c, 0, 44, 0
1, 1488995, Note_on_c, 0, 32, 117
1, 1489126, Control_c, 0, 64, 127
1, 1489126, Control_c, 0, 64, 127
1, 1489248, Note_on_c, 0, 56, 103
1, 1489334, Note_on_c, 0, 65, 0
1, 1489334, Note_on_c, 0, 73, 0
1, 1489334, Note_on_c, 0, 68, 0
1, 1489337, Note_on_c, 0, 56, 0
1, 1489337, Note_on_c, 0, 56, 103
1, 1489495, Note_on_c, 0, 56, 0
1, 1489575, Note_on_c, 0, 56, 103
1, 1489629, Note_on_c, 0, 56, 0
1, 1489629, Note_on_c, 0, 56, 103
1, 1489682, Note_on_c, 0, 73, 106
1, 1489682, Note_on_c, 0, 77, 106
1, 1489682, Note_on_c, 0, 80, 106
1, 1489685, Note_on_c, 0, 56, 0
1, 1489685, Note_on_c, 0, 85, 117
1, 1489685, Note_on_c, 0, 61, 117
1, 1489855, Note_on_c, 0, 61, 0
1, 1489941, Note_on_c, 0, 53, 103
1, 1490028, Note_on_c, 0, 73, 0
1, 1490028, Note_on_c, 0, 80, 0
1, 1490028, Note_on_c, 0, 77, 0
1, 1490031, Note_on_c, 0, 85, 0
1, 1490031, Note_on_c, 0, 68, 106
1, 1490031, Note_on_c, 0, 80, 117
1, 1490034, Note_on_c, 0, 53, 0
1, 1490034, Note_on_c, 0, 53, 103
1, 1490188, Note_on_c, 0, 53, 0
1, 1490268, Note_on_c, 0, 53, 103
1, 1490322, Note_on_c, 0, 53, 0
1, 1490322, Note_on_c, 0, 53, 103
1, 1490375, Note_on_c, 0, 80, 0
1, 1490375, Note_on_c, 0, 68, 0
1, 1490375, Control_c, 0, 64, 127
1, 1490378, Note_on_c, 0, 65, 106
1, 1490378, Note_on_c, 0, 68, 106
1, 1490378, Note_on_c, 0, 73, 106
1, 1490381, Note_on_c, 0, 53, 0
1, 1490381, Note_on_c, 0, 77, 117
1, 1490381, Control_c, 0, 64, 127
1, 1490384, Note_on_c, 0, 56, 103
1, 1490548, Note_on_c, 0, 56, 0
1, 1490634, Note_on_c, 0, 49, 103
1, 1490721, Note_on_c, 0, 65, 0
1, 1490721, Note_on_c, 0, 73, 0
1, 1490721, Note_on_c, 0, 68, 0
1, 1490724, Note_on_c, 0, 77, 0
1, 1490724, Note_on_c, 0, 61, 106
1, 1490724, Note_on_c, 0, 73, 117
1, 1490727, Note_on_c, 0, 49, 0
1, 1490727, Note_on_c, 0, 49, 103
1, 1490894, Note_on_c, 0, 49, 0
1, 1490980, Note_on_c, 0, 49, 103
1, 1491038, Note_on_c, 0, 49, 0
1, 1491038, Note_on_c, 0, 49, 103
1, 1491091, Note_on_c, 0, 73, 0
1, 1491091, Note_on_c, 0, 61, 0
1, 1491091, Note_on_c, 0, 69, 106
1, 1491094, Note_on_c, 0, 73, 106
1, 1491094, Note_on_c, 0, 77, 106
1, 1491094, Note_on_c, 0, 81, 117
1, 1491097, Note_on_c, 0, 32, 0
1, 1491097, Note_on_c, 0, 49, 0
1, 1491097, Note_on_c, 0, 53, 117
1, 1491141, Control_c, 0, 64, 0
1, 1491141, Control_c, 0, 64, 0
1, 1491240, Control_c, 0, 64, 127
1, 1491240, Control_c, 0, 64, 127
1, 1491350, Note_on_c, 0, 44, 113
1, 1491436, Note_on_c, 0, 44, 0
1, 1491436, Note_on_c, 0, 53, 0
1, 1491436, Note_on_c, 0, 44, 113
1, 1491609, Note_on_c, 0, 44, 0
1, 1491696, Note_on_c, 0, 44, 113
1, 1491744, Control_c, 0, 64, 0
1, 1491744, Control_c, 0, 64, 0
1, 1491782, Note_on_c, 0, 77, 0
1, 1491782, Note_on_c, 0, 73, 0
1, 1491782, Note_on_c, 0, 69, 0
1, 1491785, Note_on_c, 0, 81, 0
1, 1491785, Note_on_c, 0, 70, 110
1, 1491785, Note_on_c, 0, 74, 110
1, 1491788, Note_on_c, 0, 44, 0
1, 1491788, Note_on_c, 0, 77, 110
1, 1491788, Note_on_c, 0, 82, 117
1, 1491791, Note_on_c, 0, 32, 99
1, 1491919, Control_c, 0, 64, 127
1, 1491919, Control_c, 0, 64, 127
1, 1491955, Note_on_c, 0, 77, 0
1, 1491955, Note_on_c, 0, 70, 0
1, 1491955, Note_on_c, 0, 74, 0
1, 1491958, Note_on_c, 0, 82, 0
1, 1492041, Note_on_c, 0, 77, 110
1, 1492128, Note_on_c, 0, 77, 0
1, 1492128, Note_on_c, 0, 77, 110
1, 1492288, Note_on_c, 0, 77, 0
1, 1492368, Note_on_c, 0, 77, 110
1, 1492422, Note_on_c, 0, 77, 0
1, 1492422, Note_on_c, 0, 77, 110
1, 1492475, Note_on_c, 0, 77, 0
1, 1492475, Note_on_c, 0, 82, 117
1, 1492475, Note_on_c, 0, 70, 113
1, 1492648, Note_on_c, 0, 82, 0
1, 1492734, Note_on_c, 0, 74, 110
1, 1492821, Note_on_c, 0, 74, 0
1, 1492821, Note_on_c, 0, 70, 0
1, 1492821, Note_on_c, 0, 74, 110
1, 1492824, Note_on_c, 0, 65, 113
1, 1492981, Note_on_c, 0, 74, 0
1, 1493062, Note_on_c, 0, 74, 110
1, 1493115, Note_on_c, 0, 74, 0
1, 1493115, Note_on_c, 0, 74, 110
1, 1493168, Note_on_c, 0, 74, 0
1, 1493168, Control_c, 0, 64, 127
1, 1493168, Note_on_c, 0, 77, 114
1, 1493171, Note_on_c, 0, 65, 0
1, 1493171, Control_c, 0, 64, 127
1, 1493171, Note_on_c, 0, 62, 113
1, 1493341, Note_on_c, 0, 77, 0
1, 1493428, Note_on_c, 0, 70, 110
1, 1493514, Note_on_c, 0, 70, 0
1, 1493514, Note_on_c, 0, 62, 0
1, 1493514, Note_on_c, 0, 70, 110
1, 1493517, Note_on_c, 0, 58, 113
1, 1493674, Note_on_c, 0, 70, 0
1, 1493755, Note_on_c, 0, 70, 110
1, 1493808, Note_on_c, 0, 70, 0
1, 1493808, Note_on_c, 0, 70, 110
1, 1493862, Note_on_c, 0, 58, 0
1, 1493862, Note_on_c, 0, 32, 0
1, 1493862, Note_on_c, 0, 74, 110
1, 1493865, Note_on_c, 0, 66, 113
1, 1493911, Control_c, 0, 64, 0
1, 1493911, Control_c, 0, 64, 0
1, 1494010, Control_c, 0, 64, 127
1, 1494010, Control_c, 0, 64, 127
1, 1494121, Note_on_c, 0, 66, 110
1, 1494121, Note_on_c, 0, 44, 110
1, 1494207, Note_on_c, 0, 66, 0
1, 1494207, Note_on_c, 0, 66, 0
1, 1494207, Note_on_c, 0, 66, 110
1, 1494210, Note_on_c, 0, 44, 0
1, 1494210, Note_on_c, 0, 44, 110
1, 1494380, Note_on_c, 0, 44, 0
1, 1494380, Note_on_c, 0, 66, 0
1, 1494466, Note_on_c, 0, 66, 110
1, 1494466, Note_on_c, 0, 44, 110
1, 1494515, Control_c, 0, 64, 0
1, 1494515, Control_c, 0, 64, 0
1, 1494553, Note_on_c, 0, 66, 0
1, 1494553, Note_on_c, 0, 70, 0
1, 1494553, Note_on_c, 0, 74, 0
1, 1494556, Note_on_c, 0, 67, 99
1, 1494556, Note_on_c, 0, 70, 99
1, 1494556, Note_on_c, 0, 73, 115
1, 1494559, Note_on_c, 0, 44, 0
1, 1494559, Note_on_c, 0, 75, 99
1, 1494559, Note_on_c, 0, 32, 117
1, 1494690, Control_c, 0, 64, 127
1, 1494690, Control_c, 0, 64, 127
1, 1494812, Note_on_c, 0, 58, 103
1, 1494898, Note_on_c, 0, 67, 0
1, 1494898, Note_on_c, 0, 73, 0
1, 1494898, Note_on_c, 0, 70, 0
1, 1494901, Note_on_c, 0, 75, 0
1, 1494901, Note_on_c, 0, 58, 0
1, 1494901, Note_on_c, 0, 58, 103
1, 1495059, Note_on_c, 0, 58, 0
1, 1495139, Note_on_c, 0, 58, 103
1, 1495193, Note_on_c, 0, 58, 0
1, 1495193, Note_on_c, 0, 58, 103
1, 1495246, Note_on_c, 0, 75, 106
1, 1495246, Note_on_c, 0, 79, 106
1, 1495246, Note_on_c, 0, 82, 106
1, 1495249, Note_on_c, 0, 58, 0
1, 1495249, Note_on_c, 0, 87, 117
1, 1495249, Note_on_c, 0, 63, 117
1, 1495419, Note_on_c, 0, 63, 0
1, 1495505, Note_on_c, 0, 55, 103
1, 1495592, Note_on_c, 0, 75, 0
1, 1495592, Note_on_c, 0, 82, 0
1, 1495592, Note_on_c, 0, 79, 0
1, 1495595, Note_on_c, 0, 87, 0
1, 1495595, Note_on_c, 0, 70, 106
1, 1495595, Note_on_c, 0, 82, 117
1, 1495598, Note_on_c, 0, 55, 0
1, 1495598, Note_on_c, 0, 55, 103
1, 1495752, Note_on_c, 0, 55, 0
1, 1495832, Note_on_c, 0, 55, 103
1, 1495886, Note_on_c, 0, 55, 0
1, 1495886, Note_on_c, 0, 55, 103
1, 1495939, Note_on_c, 0, 82, 0
1, 1495939, Note_on_c, 0, 70, 0
1, 1495939, Control_c, 0, 64, 127
1, 1495942, Note_on_c, 0, 67, 106
1, 1495942, Note_on_c, 0, 70, 106
1, 1495942, Note_on_c, 0, 75, 106
1, 1495945, Note_on_c, 0, 55, 0
1, 1495945, Note_on_c, 0, 79, 117
1, 1495945, Control_c, 0, 64, 127
1, 1495948, Note_on_c, 0, 58, 103
1, 1496112, Note_on_c, 0, 58, 0
1, 1496198, Note_on_c, 0, 51, 103
1, 1496285, Note_on_c, 0, 67, 0
1, 1496285, Note_on_c, 0, 75, 0
1, 1496285, Note_on_c, 0, 70, 0
1, 1496288, Note_on_c, 0, 79, 0
1, 1496288, Note_on_c, 0, 63, 106
1, 1496288, Note_on_c, 0, 75, 117
1, 1496291, Note_on_c, 0, 51, 0
1, 1496291, Note_on_c, 0, 51, 103
1, 1496457, Note_on_c, 0, 51, 0
1, 1496544, Note_on_c, 0, 51, 103
1, 1496602, Note_on_c, 0, 51, 0
1, 1496602, Note_on_c, 0, 51, 103
1, 1496655, Note_on_c, 0, 75, 0
1, 1496655, Note_on_c, 0, 63, 0
1, 1496655, Note_on_c, 0, 71, 106
1, 1496658, Note_on_c, 0, 75, 106
1, 1496658, Note_on_c, 0, 79, 106
1, 1496658, Note_on_c, 0, 83, 117
1, 1496661, Note_on_c, 0, 32, 0
1, 1496661, Note_on_c, 0, 51, 0
1, 1496661, Note_on_c, 0, 55, 117
1, 1496704, Control_c, 0, 64, 0
1, 1496704, Control_c, 0, 64, 0
1, 1496804, Control_c, 0, 64, 127
1, 1496804, Control_c, 0, 64, 127
1, 1496914, Note_on_c, 0, 44, 113
1, 1497000, Note_on_c, 0, 44, 0
1, 1497000, Note_on_c, 0, 55, 0
1, 1497000, Note_on_c, 0, 44, 113
1, 1497173, Note_on_c, 0, 44, 0
1, 1497260, Note_on_c, 0, 44, 113
1, 1497308, Control_c, 0, 64, 0
1, 1497308, Control_c, 0, 64, 0
1, 1497346, Note_on_c, 0, 79, 0
1, 1497346, Note_on_c, 0, 75, 0
1, 1497346, Note_on_c, 0, 71, 0
1, 1497349, Note_on_c, 0, 83, 0
1, 1497349, Note_on_c, 0, 72, 108
1, 1497349, Note_on_c, 0, 75, 108
1, 1497352, Note_on_c, 0, 44, 0
1, 1497352, Note_on_c, 0, 80, 117
1, 1497352, Note_on_c, 0, 84, 108
1, 1497355, Note_on_c, 0, 32, 99
1, 1497355, Note_on_c, 0, 44, 108
1, 1497483, Control_c, 0, 64, 127
1, 1497483, Control_c, 0, 64, 127
1, 1497519, Note_on_c, 0, 80, 0
1, 1497519, Note_on_c, 0, 72, 0
1, 1497519, Note_on_c, 0, 75, 0
1, 1497522, Note_on_c, 0, 84, 0
1, 1497605, Note_on_c, 0, 75, 110
1, 1497692, Note_on_c, 0, 75, 0
1, 1497692, Note_on_c, 0, 75, 110
1, 1497852, Note_on_c, 0, 75, 0
1, 1497932, Note_on_c, 0, 75, 110
1, 1497986, Note_on_c, 0, 75, 0
1, 1497986, Note_on_c, 0, 75, 110
1, 1498039, Note_on_c, 0, 75, 0
1, 1498039, Note_on_c, 0, 80, 117
1, 1498039, Note_on_c, 0, 68, 113
1, 1498212, Note_on_c, 0, 80, 0
1, 1498298, Note_on_c, 0, 72, 110
1, 1498385, Note_on_c, 0, 72, 0
1, 1498385, Note_on_c, 0, 68, 0
1, 1498385, Note_on_c, 0, 72, 110
1, 1498388, Note_on_c, 0, 63, 113
1, 1498545, Note_on_c, 0, 72, 0
1, 1498625, Note_on_c, 0, 72, 110
1, 1498679, Note_on_c, 0, 72, 0
1, 1498679, Note_on_c, 0, 72, 110
1, 1498732, Note_on_c, 0, 72, 0
1, 1498732, Control_c, 0, 64, 127
1, 1498732, Note_on_c, 0, 75, 114
1, 1498735, Note_on_c, 0, 63, 0
1, 1498735, Control_c, 0, 64, 127
1, 1498735, Note_on_c, 0, 60, 113
1, 1498905, Note_on_c, 0, 75, 0
1, 1498992, Note_on_c, 0, 68, 110
1, 1499078, Note_on_c, 0, 68, 0
1, 1499078, Note_on_c, 0, 60, 0
1, 1499078, Note_on_c, 0, 68, 110
1, 1499081, Note_on_c, 0, 56, 113
1, 1499238, Note_on_c, 0, 68, 0
1, 1499319, Note_on_c, 0, 68, 110
1, 1499372, Note_on_c, 0, 68, 0
1, 1499372, Note_on_c, 0, 68, 110
1, 1499425, Note_on_c, 0, 56, 0
1, 1499425, Note_on_c, 0, 44, 0
1, 1499425, Note_on_c, 0, 32, 0
1, 1499428, Note_on_c, 0, 65, 113
1, 1499440, Note_on_c, 0, 72, 117
1, 1499475, Control_c, 0, 64, 0
1, 1499475, Control_c, 0, 64, 0
1, 1499574, Control_c, 0, 64, 127
1, 1499574, Control_c, 0, 64, 127
1, 1499685, Note_on_c, 0, 65, 110
1, 1499685, Note_on_c, 0, 44, 110
1, 1499771, Note_on_c, 0, 65, 0
1, 1499771, Note_on_c, 0, 65, 0
1, 1499771, Note_on_c, 0, 65, 110
1, 1499774, Note_on_c, 0, 44, 0
1, 1499774, Note_on_c, 0, 44, 110
1, 1499958, Note_on_c, 0, 44, 0
1, 1499958, Note_on_c, 0, 65, 0
1, 1499974, Note_on_c, 0, 72, 0
1, 1499974, Note_on_c, 0, 71, 111
1, 1500059, Note_on_c, 0, 63, 110
1, 1500059, Note_on_c, 0, 44, 110
1, 1500116, Control_c, 0, 64, 0
1, 1500116, Control_c, 0, 64, 0
1, 1500161, Note_on_c, 0, 63, 0
1, 1500161, Note_on_c, 0, 68, 0
1, 1500161, Note_on_c, 0, 62, 110
1, 1500164, Note_on_c, 0, 65, 110
1, 1500164, Note_on_c, 0, 68, 110
1, 1500164, Note_on_c, 0, 70, 117
1, 1500167, Note_on_c, 0, 44, 0
1, 1500167, Note_on_c, 0, 32, 117
1, 1500176, Note_on_c, 0, 71, 0
1, 1500298, Control_c, 0, 64, 127
1, 1500298, Control_c, 0, 64, 127
1, 1500420, Note_on_c, 0, 65, 103
1, 1500507, Note_on_c, 0, 65, 0
1, 1500507, Note_on_c, 0, 68, 0
1, 1500507, Note_on_c, 0, 62, 0
1, 1500510, Note_on_c, 0, 70, 0
1, 1500510, Note_on_c, 0, 65, 0
1, 1500510, Note_on_c, 0, 65, 103
1, 1500667, Note_on_c, 0, 65, 0
1, 1500747, Note_on_c, 0, 65, 103
1, 1500801, Note_on_c, 0, 65, 0
1, 1500801, Note_on_c, 0, 65, 103
1, 1500854, Note_on_c, 0, 82, 106
1, 1500854, Note_on_c, 0, 86, 106
1, 1500854, Note_on_c, 0, 89, 106
1, 1500857, Note_on_c, 0, 65, 0
1, 1500857, Note_on_c, 0, 94, 117
1, 1500857, Note_on_c, 0, 70, 117
1, 1501027, Note_on_c, 0, 70, 0
1, 1501113, Note_on_c, 0, 62, 103
1, 1501200, Note_on_c, 0, 82, 0
1, 1501200, Note_on_c, 0, 89, 0
1, 1501200, Note_on_c, 0, 86, 0
1, 1501203, Note_on_c, 0, 94, 0
1, 1501203, Note_on_c, 0, 77, 106
1, 1501203, Note_on_c, 0, 89, 117
1, 1501206, Note_on_c, 0, 62, 0
1, 1501206, Note_on_c, 0, 62, 103
1, 1501360, Note_on_c, 0, 62, 0
1, 1501441, Note_on_c, 0, 62, 103
1, 1501494, Note_on_c, 0, 62, 0
1, 1501494, Note_on_c, 0, 62, 103
1, 1501547, Note_on_c, 0, 89, 0
1, 1501547, Note_on_c, 0, 77, 0
1, 1501547, Control_c, 0, 64, 127
1, 1501550, Note_on_c, 0, 74, 106
1, 1501550, Note_on_c, 0, 77, 106
1, 1501550, Note_on_c, 0, 82, 106
1, 1501553, Note_on_c, 0, 62, 0
1, 1501553, Note_on_c, 0, 86, 117
1, 1501553, Control_c, 0, 64, 127
1, 1501556, Note_on_c, 0, 65, 103
1, 1501720, Note_on_c, 0, 65, 0
1, 1501807, Note_on_c, 0, 58, 103
1, 1501893, Note_on_c, 0, 74, 0
1, 1501893, Note_on_c, 0, 82, 0
1, 1501893, Note_on_c, 0, 77, 0
1, 1501896, Note_on_c, 0, 86, 0
1, 1501896, Note_on_c, 0, 70, 99
1, 1501896, Note_on_c, 0, 82, 115
1, 1501899, Note_on_c, 0, 58, 0
1, 1501899, Note_on_c, 0, 58, 103
1, 1502066, Note_on_c, 0, 58, 0
1, 1502152, Note_on_c, 0, 58, 103
1, 1502210, Note_on_c, 0, 58, 0
1, 1502210, Note_on_c, 0, 58, 103
1, 1502263, Note_on_c, 0, 82, 0
1, 1502263, Note_on_c, 0, 70, 0
1, 1502263, Note_on_c, 0, 78, 106
1, 1502266, Note_on_c, 0, 32, 0
1, 1502266, Note_on_c, 0, 82, 106
1, 1502266, Note_on_c, 0, 90, 117
1, 1502269, Note_on_c, 0, 58, 0
1, 1502269, Note_on_c, 0, 62, 117
1, 1502313, Control_c, 0, 64, 0
1, 1502313, Control_c, 0, 64, 0
1, 1502412, Control_c, 0, 64, 127
1, 1502412, Control_c, 0, 64, 127
1, 1502522, Note_on_c, 0, 44, 113
1, 1502609, Note_on_c, 0, 44, 0
1, 1502609, Note_on_c, 0, 62, 0
1, 1502609, Note_on_c, 0, 44, 113
1, 1502782, Note_on_c, 0, 90, 0
1, 1502782, Note_on_c, 0, 78, 0
1, 1502782, Note_on_c, 0, 82, 0
1, 1502785, Note_on_c, 0, 44, 0
1, 1502785, Note_on_c, 0, 77, 99
1, 1502785, Note_on_c, 0, 89, 115
1, 1502868, Note_on_c, 0, 44, 113
1, 1502916, Control_c, 0, 64, 0
1, 1502916, Control_c, 0, 64, 0
1, 1502954, Note_on_c, 0, 89, 0
1, 1502954, Note_on_c, 0, 77, 0
1, 1502954, Note_on_c, 0, 75, 108
1, 1502957, Note_on_c, 0, 44, 0
1, 1502957, Note_on_c, 0, 82, 108
1, 1502957, Note_on_c, 0, 87, 117
1, 1502960, Note_on_c, 0, 30, 99
1, 1502960, Note_on_c, 0, 42, 108
1, 1503092, Control_c, 0, 64, 127
1, 1503092, Control_c, 0, 64, 127
1, 1503127, Note_on_c, 0, 87, 0
1, 1503127, Note_on_c, 0, 75, 0
1, 1503127, Note_on_c, 0, 82, 0
1, 1503214, Note_on_c, 0, 82, 110
1, 1503300, Note_on_c, 0, 82, 0
1, 1503300, Note_on_c, 0, 82, 110
1, 1503460, Note_on_c, 0, 82, 0
1, 1503541, Note_on_c, 0, 82, 110
1, 1503594, Note_on_c, 0, 82, 0
1, 1503594, Note_on_c, 0, 82, 110
1, 1503648, Note_on_c, 0, 82, 0
1, 1503648, Note_on_c, 0, 87, 117
1, 1503648, Note_on_c, 0, 75, 113
1, 1503820, Note_on_c, 0, 87, 0
1, 1503907, Note_on_c, 0, 78, 110
1, 1503993, Note_on_c, 0, 78, 0
1, 1503993, Note_on_c, 0, 75, 0
1, 1503993, Note_on_c, 0, 78, 110
1, 1503996, Note_on_c, 0, 70, 113
1, 1504154, Note_on_c, 0, 78, 0
1, 1504234, Note_on_c, 0, 78, 110
1, 1504287, Note_on_c, 0, 78, 0
1, 1504287, Note_on_c, 0, 78, 110
1, 1504341, Note_on_c, 0, 78, 0
1, 1504341, Control_c, 0, 64, 127
1, 1504341, Note_on_c, 0, 82, 114
1, 1504344, Note_on_c, 0, 70, 0
1, 1504344, Control_c, 0, 64, 127
1, 1504344, Note_on_c, 0, 66, 113
1, 1504513, Note_on_c, 0, 82, 0
1, 1504600, Note_on_c, 0, 75, 110
1, 1504686, Note_on_c, 0, 75, 0
1, 1504686, Note_on_c, 0, 66, 0
1, 1504686, Note_on_c, 0, 75, 110
1, 1504689, Note_on_c, 0, 63, 113
1, 1504847, Note_on_c, 0, 75, 0
1, 1504927, Note_on_c, 0, 75, 110
1, 1504981, Note_on_c, 0, 75, 0
1, 1504981, Note_on_c, 0, 75, 110
1, 1505034, Note_on_c, 0, 75, 0
1, 1505034, Note_on_c, 0, 30, 0
1, 1505034, Note_on_c, 0, 78, 110
1, 1505037, Note_on_c, 0, 42, 0
1, 1505037, Note_on_c, 0, 63, 0
1, 1505037, Note_on_c, 0, 71, 113
1, 1505083, Control_c, 0, 64, 0
1, 1505083, Control_c, 0, 64, 0
1, 1505183, Control_c, 0, 64, 127
1, 1505183, Control_c, 0, 64, 127
1, 1505207, Note_on_c, 0, 71, 0
1, 1505207, Note_on_c, 0, 78, 0
1, 1505293, Note_on_c, 0, 71, 99
1, 1505293, Note_on_c, 0, 42, 110
1, 1505379, Note_on_c, 0, 42, 0
1, 1505379, Note_on_c, 0, 71, 0
1, 1505379, Note_on_c, 0, 71, 99
1, 1505382, Note_on_c, 0, 42, 110
1, 1505552, Note_on_c, 0, 42, 0
1, 1505552, Note_on_c, 0, 71, 0
1, 1505639, Note_on_c, 0, 70, 99
1, 1505639, Note_on_c, 0, 75, 99
1, 1505639, Note_on_c, 0, 42, 110
1, 1505687, Control_c, 0, 64, 0
1, 1505687, Control_c, 0, 64, 0
1, 1505725, Note_on_c, 0, 75, 0
1, 1505725, Note_on_c, 0, 70, 0
1, 1505725, Note_on_c, 0, 69, 110
1, 1505728, Note_on_c, 0, 42, 0
1, 1505728, Note_on_c, 0, 72, 110
1, 1505728, Note_on_c, 0, 29, 117
1, 1505731, Note_on_c, 0, 41, 117
1, 1505862, Control_c, 0, 64, 127
1, 1505862, Control_c, 0, 64, 127
1, 1505984, Note_on_c, 0, 60, 103
1, 1506071, Note_on_c, 0, 60, 0
1, 1506071, Note_on_c, 0, 69, 0
1, 1506071, Note_on_c, 0, 72, 0
1, 1506074, Note_on_c, 0, 60, 103
1, 1506231, Note_on_c, 0, 60, 0
1, 1506311, Note_on_c, 0, 60, 103
1, 1506365, Note_on_c, 0, 60, 0
1, 1506365, Note_on_c, 0, 60, 103
1, 1506418, Note_on_c, 0, 77, 106
1, 1506418, Note_on_c, 0, 81, 106
1, 1506418, Note_on_c, 0, 84, 106
1, 1506421, Note_on_c, 0, 60, 0
1, 1506421, Note_on_c, 0, 89, 117
1, 1506421, Note_on_c, 0, 65, 117
1, 1506591, Note_on_c, 0, 65, 0
1, 1506677, Note_on_c, 0, 57, 103
1, 1506764, Note_on_c, 0, 84, 0
1, 1506764, Note_on_c, 0, 77, 0
1, 1506764, Note_on_c, 0, 81, 0
1, 1506767, Note_on_c, 0, 89, 0
1, 1506767, Note_on_c, 0, 72, 106
1, 1506767, Note_on_c, 0, 84, 117
1, 1506770, Note_on_c, 0, 57, 0
1, 1506770, Note_on_c, 0, 57, 103
1, 1506924, Note_on_c, 0, 57, 0
1, 1507004, Note_on_c, 0, 57, 103
1, 1507058, Note_on_c, 0, 57, 0
1, 1507058, Note_on_c, 0, 57, 103
1, 1507111, Note_on_c, 0, 72, 0
1, 1507111, Note_on_c, 0, 84, 0
1, 1507111, Control_c, 0, 64, 127
1, 1507114, Note_on_c, 0, 69, 106
1, 1507114, Note_on_c, 0, 72, 106
1, 1507114, Note_on_c, 0, 77, 106
1, 1507117, Note_on_c, 0, 57, 0
1, 1507117, Note_on_c, 0, 81, 117
1, 1507117, Control_c, 0, 64, 127
1, 1507120, Note_on_c, 0, 60, 103
1, 1507284, Note_on_c, 0, 60, 0
1, 1507371, Note_on_c, 0, 53, 103
1, 1507457, Note_on_c, 0, 77, 0
1, 1507457, Note_on_c, 0, 69, 0
1, 1507457, Note_on_c, 0, 72, 0
1, 1507460, Note_on_c, 0, 81, 0
1, 1507460, Note_on_c, 0, 65, 99
1, 1507460, Note_on_c, 0, 77, 115
1, 1507463, Note_on_c, 0, 53, 0
1, 1507463, Note_on_c, 0, 53, 103
1, 1507630, Note_on_c, 0, 53, 0
1, 1507716, Note_on_c, 0, 53, 103
1, 1507774, Note_on_c, 0, 53, 0
1, 1507774, Note_on_c, 0, 53, 103
1, 1507827, Note_on_c, 0, 65, 0
1, 1507827, Note_on_c, 0, 77, 0
1, 1507827, Note_on_c, 0, 73, 106
1, 1507830, Note_on_c, 0, 29, 0
1, 1507830, Note_on_c, 0, 77, 106
1, 1507830, Note_on_c, 0, 85, 117
1, 1507833, Note_on_c, 0, 53, 0
1, 1507833, Note_on_c, 0, 41, 0
1, 1507833, Note_on_c, 0, 57, 117
1, 1507877, Control_c, 0, 64, 0
1, 1507877, Control_c, 0, 64, 0
1, 1507976, Control_c, 0, 64, 127
1, 1507976, Control_c, 0, 64, 127
1, 1508086, Note_on_c, 0, 41, 113
1, 1508173, Note_on_c, 0, 41, 0
1, 1508173, Note_on_c, 0, 57, 0
1, 1508173, Note_on_c, 0, 41, 113
1, 1508346, Note_on_c, 0, 85, 0
1, 1508346, Note_on_c, 0, 73, 0
1, 1508346, Note_on_c, 0, 77, 0
1, 1508349, Note_on_c, 0, 72, 99
1, 1508349, Note_on_c, 0, 77, 115
1, 1508349, Note_on_c, 0, 84, 99
1, 1508352, Note_on_c, 0, 41, 0
1, 1508448, Note_on_c, 0, 41, 113
1, 1508448, Note_on_c, 0, 53, 113
1, 1508505, Control_c, 0, 64, 0
1, 1508505, Control_c, 0, 64, 0
1, 1508550, Note_on_c, 0, 72, 0
1, 1508550, Note_on_c, 0, 84, 0
1, 1508550, Note_on_c, 0, 77, 0
1, 1508553, Note_on_c, 0, 70, 99
1, 1508553, Note_on_c, 0, 77, 99
1, 1508553, Note_on_c, 0, 82, 111
1, 1508556, Note_on_c, 0, 41, 0
1, 1508556, Note_on_c, 0, 53, 0
1, 1508556, Note_on_c, 0, 41, 99
1, 1508559, Note_on_c, 0, 49, 99
1, 1508624, Control_c, 0, 64, 127
1, 1508624, Control_c, 0, 64, 127
1, 1508723, Note_on_c, 0, 77, 0
1, 1508723, Note_on_c, 0, 82, 0
1, 1508723, Note_on_c, 0, 70, 0
1, 1508809, Note_on_c, 0, 41, 0
1, 1508809, Note_on_c, 0, 49, 0
1, 1508809, Note_on_c, 0, 65, 99
1, 1508812, Note_on_c, 0, 53, 104
1, 1508889, Note_on_c, 0, 53, 0
1, 1508889, Note_on_c, 0, 65, 0
1, 1508889, Note_on_c, 0, 65, 99
1, 1508892, Note_on_c, 0, 58, 106
1, 1508898, Control_c, 0, 64, 0
1, 1508898, Control_c, 0, 64, 0
1, 1508946, Control_c, 0, 64, 127
1, 1508946, Control_c, 0, 64, 127
1, 1509130, Note_on_c, 0, 58, 0
1, 1509130, Note_on_c, 0, 65, 0
1, 1509130, Note_on_c, 0, 65, 99
1, 1509133, Note_on_c, 0, 60, 111
1, 1509207, Control_c, 0, 64, 0
1, 1509207, Control_c, 0, 64, 0
1, 1509210, Note_on_c, 0, 65, 0
1, 1509210, Note_on_c, 0, 65, 99
1, 1509210, Note_on_c, 0, 77, 111
1, 1509213, Note_on_c, 0, 60, 0
1, 1509213, Note_on_c, 0, 61, 113
1, 1509273, Control_c, 0, 64, 127
1, 1509273, Control_c, 0, 64, 127
1, 1509469, Note_on_c, 0, 65, 0
1, 1509469, Note_on_c, 0, 65, 99
1, 1509469, Note_on_c, 0, 41, 99
1, 1509554, Note_on_c, 0, 41, 0
1, 1509554, Note_on_c, 0, 65, 0
1, 1509554, Note_on_c, 0, 61, 0
1, 1509554, Control_c, 0, 64, 0
1, 1509554, Note_on_c, 0, 73, 111
1, 1509554, Note_on_c, 0, 65, 99
1, 1509554, Control_c, 0, 64, 0
1, 1509554, Note_on_c, 0, 41, 99
1, 1509562, Note_on_c, 0, 77, 0
1, 1509602, Control_c, 0, 64, 127
1, 1509602, Control_c, 0, 64, 127
1, 1509716, Note_on_c, 0, 41, 0
1, 1509796, Note_on_c, 0, 65, 0
1, 1509796, Note_on_c, 0, 65, 99
1, 1509796, Note_on_c, 0, 41, 99
1, 1509856, Control_c, 0, 64, 0
1, 1509856, Control_c, 0, 64, 0
1, 1509877, Note_on_c, 0, 65, 0
1, 1509877, Note_on_c, 0, 65, 99
1, 1509877, Note_on_c, 0, 70, 111
1, 1509880, Note_on_c, 0, 41, 0
1, 1509880, Note_on_c, 0, 41, 99
1, 1509883, Note_on_c, 0, 73, 0
1, 1509945, Control_c, 0, 64, 127
1, 1509945, Control_c, 0, 64, 127
1, 1510117, Note_on_c, 0, 41, 0
1, 1510117, Note_on_c, 0, 65, 0
1, 1510117, Note_on_c, 0, 65, 99
1, 1510120, Note_on_c, 0, 41, 99
1, 1510198, Note_on_c, 0, 65, 0
1, 1510198, Note_on_c, 0, 68, 111
1, 1510198, Note_on_c, 0, 65, 99
1, 1510201, Note_on_c, 0, 41, 0
1, 1510201, Note_on_c, 0, 41, 99
1, 1510204, Note_on_c, 0, 70, 0
1, 1510204, Control_c, 0, 64, 0
1, 1510204, Control_c, 0, 64, 0
1, 1510254, Control_c, 0, 64, 127
1, 1510254, Control_c, 0, 64, 127
1, 1510438, Note_on_c, 0, 65, 0
1, 1510438, Note_on_c, 0, 41, 0
1, 1510438, Note_on_c, 0, 65, 99
1, 1510441, Note_on_c, 0, 41, 99
1, 1510515, Control_c, 0, 64, 0
1, 1510515, Control_c, 0, 64, 0
1, 1510518, Note_on_c, 0, 65, 0
1, 1510518, Note_on_c, 0, 66, 111
1, 1510518, Note_on_c, 0, 65, 99
1, 1510521, Note_on_c, 0, 41, 0
1, 1510521, Note_on_c, 0, 41, 99
1, 1510525, Note_on_c, 0, 68, 0
1, 1510577, Control_c, 0, 64, 127
1, 1510577, Control_c, 0, 64, 127
1, 1510759, Note_on_c, 0, 65, 0
1, 1510759, Note_on_c, 0, 41, 0
1, 1510759, Note_on_c, 0, 65, 99
1, 1510762, Note_on_c, 0, 41, 99
1, 1510838, Note_on_c, 0, 41, 0
1, 1510838, Note_on_c, 0, 65, 0
1, 1510838, Control_c, 0, 64, 0
1, 1510838, Note_on_c, 0, 65, 99
1, 1510838, Control_c, 0, 64, 0
1, 1510838, Note_on_c, 0, 41, 99
1, 1510886, Control_c, 0, 64, 127
1, 1510886, Control_c, 0, 64, 127
1, 1511080, Note_on_c, 0, 41, 0
1, 1511080, Note_on_c, 0, 65, 0
1, 1511080, Note_on_c, 0, 65, 99
1, 1511083, Note_on_c, 0, 41, 99
1, 1511083, Note_on_c, 0, 49, 99
1, 1511140, Control_c, 0, 64, 0
1, 1511140, Control_c, 0, 64, 0
1, 1511160, Note_on_c, 0, 65, 0
1, 1511160, Note_on_c, 0, 66, 0
1, 1511160, Note_on_c, 0, 63, 99
1, 1511163, Note_on_c, 0, 41, 0
1, 1511163, Note_on_c, 0, 49, 0
1, 1511163, Note_on_c, 0, 66, 111
1, 1511166, Note_on_c, 0, 41, 99
1, 1511166, Note_on_c, 0, 48, 99
1, 1511229, Control_c, 0, 64, 127
1, 1511229, Control_c, 0, 64, 127
1, 1511401, Note_on_c, 0, 41, 0
1, 1511401, Note_on_c, 0, 63, 0
1, 1511401, Note_on_c, 0, 63, 99
1, 1511404, Note_on_c, 0, 48, 0
1, 1511404, Note_on_c, 0, 51, 104
1, 1511481, Note_on_c, 0, 63, 0
1, 1511481, Note_on_c, 0, 66, 0
1, 1511481, Note_on_c, 0, 63, 99
1, 1511484, Note_on_c, 0, 51, 0
1, 1511484, Note_on_c, 0, 57, 106
1, 1511490, Control_c, 0, 64, 0
1, 1511490, Control_c, 0, 64, 0
1, 1511538, Control_c, 0, 64, 127
1, 1511538, Control_c, 0, 64, 127
1, 1511722, Note_on_c, 0, 57, 0
1, 1511722, Note_on_c, 0, 63, 0
1, 1511722, Note_on_c, 0, 63, 99
1, 1511725, Note_on_c, 0, 58, 111
1, 1511799, Control_c, 0, 64, 0
1, 1511799, Control_c, 0, 64, 0
1, 1511802, Note_on_c, 0, 63, 0
1, 1511802, Note_on_c, 0, 75, 111
1, 1511802, Note_on_c, 0, 63, 99
1, 1511805, Note_on_c, 0, 58, 0
1, 1511805, Note_on_c, 0, 60, 113
1, 1511865, Control_c, 0, 64, 127
1, 1511865, Control_c, 0, 64, 127
1, 1512061, Note_on_c, 0, 63, 0
1, 1512061, Note_on_c, 0, 63, 99
1, 1512061, Note_on_c, 0, 41, 99
1, 1512146, Note_on_c, 0, 41, 0
1, 1512146, Note_on_c, 0, 63, 0
1, 1512146, Note_on_c, 0, 60, 0
1, 1512146, Control_c, 0, 64, 0
1, 1512146, Note_on_c, 0, 72, 111
1, 1512146, Note_on_c, 0, 63, 99
1, 1512146, Control_c, 0, 64, 0
1, 1512146, Note_on_c, 0, 41, 99
1, 1512154, Note_on_c, 0, 75, 0
1, 1512194, Control_c, 0, 64, 127
1, 1512194, Control_c, 0, 64, 127
1, 1512388, Note_on_c, 0, 41, 0
1, 1512388, Note_on_c, 0, 63, 0
1, 1512388, Note_on_c, 0, 63, 99
1, 1512391, Note_on_c, 0, 41, 99
1, 1512448, Control_c, 0, 64, 0
1, 1512448, Control_c, 0, 64, 0
1, 1512469, Note_on_c, 0, 63, 0
1, 1512469, Note_on_c, 0, 63, 99
1, 1512469, Note_on_c, 0, 69, 111
1, 1512472, Note_on_c, 0, 41, 0
1, 1512472, Note_on_c, 0, 41, 99
1, 1512475, Note_on_c, 0, 72, 0
1, 1512537, Control_c, 0, 64, 127
1, 1512537, Control_c, 0, 64, 127
1, 1512709, Note_on_c, 0, 41, 0
1, 1512709, Note_on_c, 0, 63, 0
1, 1512709, Note_on_c, 0, 63, 99
1, 1512712, Note_on_c, 0, 41, 99
1, 1512790, Note_on_c, 0, 63, 0
1, 1512790, Note_on_c, 0, 66, 111
1, 1512790, Note_on_c, 0, 63, 99
1, 1512793, Note_on_c, 0, 41, 0
1, 1512793, Note_on_c, 0, 41, 99
1, 1512796, Note_on_c, 0, 69, 0
1, 1512796, Control_c, 0, 64, 0
1, 1512796, Control_c, 0, 64, 0
1, 1512846, Control_c, 0, 64, 127
1, 1512846, Control_c, 0, 64, 127
1, 1513030, Note_on_c, 0, 63, 0
1, 1513030, Note_on_c, 0, 41, 0
1, 1513030, Note_on_c, 0, 63, 99
1, 1513033, Note_on_c, 0, 41, 99
1, 1513107, Control_c, 0, 64, 0
1, 1513107, Control_c, 0, 64, 0
1, 1513110, Note_on_c, 0, 63, 0
1, 1513110, Note_on_c, 0, 65, 111
1, 1513110, Note_on_c, 0, 63, 99
1, 1513113, Note_on_c, 0, 41, 0
1, 1513113, Note_on_c, 0, 41, 99
1, 1513117, Note_on_c, 0, 66, 0
1, 1513169, Control_c, 0, 64, 127
1, 1513169, Control_c, 0, 64, 127
1, 1513351, Note_on_c, 0, 63, 0
1, 1513351, Note_on_c, 0, 41, 0
1, 1513351, Note_on_c, 0, 63, 99
1, 1513354, Note_on_c, 0, 41, 99
1, 1513430, Note_on_c, 0, 41, 0
1, 1513430, Note_on_c, 0, 63, 0
1, 1513430, Control_c, 0, 64, 0
1, 1513430, Note_on_c, 0, 63, 99
1, 1513430, Control_c, 0, 64, 0
1, 1513430, Note_on_c, 0, 41, 99
1, 1513478, Control_c, 0, 64, 127
1, 1513478, Control_c, 0, 64, 127
1, 1513672, Note_on_c, 0, 41, 0
1, 1513672, Note_on_c, 0, 63, 0
1, 1513672, Note_on_c, 0, 63, 99
1, 1513675, Note_on_c, 0, 41, 99
1, 1513675, Note_on_c, 0, 48, 99
1, 1513732, Control_c, 0, 64, 0
1, 1513732, Control_c, 0, 64, 0
1, 1513752, Note_on_c, 0, 63, 0
1, 1513752, Note_on_c, 0, 65, 0
1, 1513752, Note_on_c, 0, 61, 99
1, 1513755, Note_on_c, 0, 41, 0
1, 1513755, Note_on_c, 0, 48, 0
1, 1513755, Note_on_c, 0, 65, 111
1, 1513758, Note_on_c, 0, 41, 99
1, 1513758, Note_on_c, 0, 46, 99
1, 1513993, Note_on_c, 0, 41, 0
1, 1513993, Note_on_c, 0, 61, 0
1, 1513993, Note_on_c, 0, 61, 99
1, 1513996, Note_on_c, 0, 46, 0
1, 1513996, Note_on_c, 0, 49, 104
1, 1514073, Note_on_c, 0, 61, 0
1, 1514073, Note_on_c, 0, 65, 0
1, 1514073, Note_on_c, 0, 61, 99
1, 1514076, Note_on_c, 0, 49, 0
1, 1514076, Note_on_c, 0, 53, 106
1, 1514314, Note_on_c, 0, 53, 0
1, 1514314, Note_on_c, 0, 61, 0
1, 1514314, Note_on_c, 0, 61, 99
1, 1514317, Note_on_c, 0, 57, 111
1, 1514394, Note_on_c, 0, 61, 0
1, 1514394, Note_on_c, 0, 73, 108
1, 1514394, Note_on_c, 0, 61, 99
1, 1514397, Note_on_c, 0, 57, 0
1, 1514397, Note_on_c, 0, 58, 113
1, 1514653, Note_on_c, 0, 61, 0
1, 1514653, Note_on_c, 0, 61, 99
1, 1514653, Note_on_c, 0, 41, 99
1, 1514740, Note_on_c, 0, 61, 0
1, 1514740, Note_on_c, 0, 72, 108
1, 1514740, Note_on_c, 0, 61, 99
1, 1514743, Note_on_c, 0, 41, 0
1, 1514743, Note_on_c, 0, 58, 0
1, 1514743, Note_on_c, 0, 41, 99
1, 1514746, Note_on_c, 0, 73, 0
1, 1514980, Note_on_c, 0, 41, 0
1, 1514980, Note_on_c, 0, 61, 0
1, 1514980, Note_on_c, 0, 61, 99
1, 1514983, Note_on_c, 0, 41, 99
1, 1515061, Note_on_c, 0, 61, 0
1, 1515061, Note_on_c, 0, 61, 99
1, 1515061, Note_on_c, 0, 70, 108
1, 1515064, Note_on_c, 0, 41, 0
1, 1515064, Note_on_c, 0, 41, 99
1, 1515067, Note_on_c, 0, 72, 0
1, 1515301, Note_on_c, 0, 41, 0
1, 1515301, Note_on_c, 0, 61, 0
1, 1515301, Note_on_c, 0, 61, 99
1, 1515304, Note_on_c, 0, 41, 99
1, 1515382, Note_on_c, 0, 61, 0
1, 1515382, Note_on_c, 0, 66, 108
1, 1515382, Note_on_c, 0, 61, 99
1, 1515385, Note_on_c, 0, 41, 0
1, 1515385, Note_on_c, 0, 41, 99
1, 1515388, Note_on_c, 0, 70, 0
1, 1515622, Note_on_c, 0, 61, 0
1, 1515622, Note_on_c, 0, 41, 0
1, 1515622, Note_on_c, 0, 61, 99
1, 1515625, Note_on_c, 0, 41, 99
1, 1515702, Note_on_c, 0, 61, 0
1, 1515702, Note_on_c, 0, 66, 0
1, 1515702, Note_on_c, 0, 65, 108
1, 1515705, Note_on_c, 0, 41, 0
1, 1515705, Note_on_c, 0, 61, 99
1, 1515705, Note_on_c, 0, 41, 99
1, 1515943, Note_on_c, 0, 41, 0
1, 1515943, Note_on_c, 0, 61, 0
1, 1515943, Note_on_c, 0, 61, 99
1, 1515946, Note_on_c, 0, 41, 99
1, 1516023, Note_on_c, 0, 41, 0
1, 1516023, Note_on_c, 0, 61, 0
1, 1516023, Note_on_c, 0, 61, 99
1, 1516026, Note_on_c, 0, 41, 99
1, 1516184, Note_on_c, 0, 65, 0
1, 1516184, Note_on_c, 0, 65, 108
1, 1516240, Note_on_c, 0, 65, 0
1, 1516264, Note_on_c, 0, 41, 0
1, 1516264, Note_on_c, 0, 61, 0
1, 1516264, Note_on_c, 0, 61, 99
1, 1516267, Note_on_c, 0, 41, 99
1, 1516299, Note_on_c, 0, 41, 0
1, 1516299, Note_on_c, 0, 61, 0
1, 1516404, Note_on_c, 0, 61, 76
1, 1516404, Note_on_c, 0, 63, 76
1, 1516404, Note_on_c, 0, 70, 88
1, 1516407, Note_on_c, 0, 42, 77
1, 1516645, Note_on_c, 0, 70, 0
1, 1516645, Note_on_c, 0, 61, 0
1, 1516645, Note_on_c, 0, 63, 0
1, 1516648, Note_on_c, 0, 61, 76
1, 1516648, Note_on_c, 0, 63, 76
1, 1516648, Note_on_c, 0, 70, 88
1, 1516651, Note_on_c, 0, 42, 0
1, 1516651, Note_on_c, 0, 44, 79
1, 1516665, Note_on_c, 0, 61, 0
1, 1516665, Note_on_c, 0, 70, 0
1, 1516665, Note_on_c, 0, 63, 0
1, 1516668, Note_on_c, 0, 44, 0
1, 1516725, Note_on_c, 0, 61, 76
1, 1516725, Note_on_c, 0, 63, 76
1, 1516725, Note_on_c, 0, 70, 88
1, 1516728, Note_on_c, 0, 46, 80
1, 1516765, Note_on_c, 0, 70, 0
1, 1516765, Note_on_c, 0, 61, 0
1, 1516765, Note_on_c, 0, 63, 0
1, 1516768, Note_on_c, 0, 46, 0
1, 1516886, Note_on_c, 0, 61, 76
1, 1516886, Note_on_c, 0, 63, 76
1, 1516886, Note_on_c, 0, 70, 88
1, 1516889, Note_on_c, 0, 48, 82
1, 1516926, Note_on_c, 0, 70, 0
1, 1516926, Note_on_c, 0, 61, 0
1, 1516926, Note_on_c, 0, 63, 0
1, 1516929, Note_on_c, 0, 48, 0
1, 1517046, Note_on_c, 0, 61, 76
1, 1517046, Note_on_c, 0, 63, 76
1, 1517046, Note_on_c, 0, 70, 88
1, 1517049, Note_on_c, 0, 49, 83
1, 1517287, Note_on_c, 0, 70, 0
1, 1517287, Note_on_c, 0, 61, 0
1, 1517287, Note_on_c, 0, 63, 0
1, 1517290, Note_on_c, 0, 61, 76
1, 1517290, Note_on_c, 0, 63, 76
1, 1517290, Note_on_c, 0, 70, 88
1, 1517293, Note_on_c, 0, 49, 0
1, 1517293, Note_on_c, 0, 48, 86
1, 1517307, Note_on_c, 0, 61, 0
1, 1517307, Note_on_c, 0, 70, 0
1, 1517307, Note_on_c, 0, 63, 0
1, 1517310, Note_on_c, 0, 48, 0
1, 1517367, Note_on_c, 0, 61, 76
1, 1517367, Note_on_c, 0, 63, 76
1, 1517367, Note_on_c, 0, 70, 88
1, 1517370, Note_on_c, 0, 49, 86
1, 1517407, Note_on_c, 0, 70, 0
1, 1517407, Note_on_c, 0, 61, 0
1, 1517407, Note_on_c, 0, 63, 0
1, 1517410, Note_on_c, 0, 49, 0
1, 1517528, Note_on_c, 0, 61, 76
1, 1517528, Note_on_c, 0, 63, 76
1, 1517528, Note_on_c, 0, 70, 88
1, 1517531, Note_on_c, 0, 50, 88
1, 1517568, Note_on_c, 0, 70, 0
1, 1517568, Note_on_c, 0, 61, 0
1, 1517568, Note_on_c, 0, 63, 0
1, 1517571, Note_on_c, 0, 50, 0
1, 1517688, Note_on_c, 0, 61, 76
1, 1517688, Note_on_c, 0, 63, 76
1, 1517688, Note_on_c, 0, 70, 88
1, 1517691, Note_on_c, 0, 51, 88
1, 1517929, Note_on_c, 0, 70, 0
1, 1517929, Note_on_c, 0, 61, 0
1, 1517929, Note_on_c, 0, 63, 0
1, 1517932, Note_on_c, 0, 61, 76
1, 1517932, Note_on_c, 0, 63, 76
1, 1517932, Note_on_c, 0, 70, 88
1, 1517935, Note_on_c, 0, 51, 0
1, 1517935, Note_on_c, 0, 50, 90
1, 1517949, Note_on_c, 0, 61, 0
1, 1517949, Note_on_c, 0, 70, 0
1, 1517949, Note_on_c, 0, 63, 0
1, 1517952, Note_on_c, 0, 50, 0
1, 1518009, Note_on_c, 0, 61, 76
1, 1518009, Note_on_c, 0, 63, 76
1, 1518009, Note_on_c, 0, 70, 88
1, 1518012, Note_on_c, 0, 51, 91
1, 1518049, Note_on_c, 0, 70, 0
1, 1518049, Note_on_c, 0, 61, 0
1, 1518049, Note_on_c, 0, 63, 0
1, 1518052, Note_on_c, 0, 51, 0
1, 1518169, Note_on_c, 0, 61, 76
1, 1518169, Note_on_c, 0, 63, 76
1, 1518169, Note_on_c, 0, 70, 88
1, 1518172, Note_on_c, 0, 53, 92
1, 1518210, Note_on_c, 0, 70, 0
1, 1518210, Note_on_c, 0, 61, 0
1, 1518210, Note_on_c, 0, 63, 0
1, 1518213, Note_on_c, 0, 53, 0
1, 1518330, Note_on_c, 0, 61, 76
1, 1518330, Note_on_c, 0, 63, 76
1, 1518330, Note_on_c, 0, 70, 88
1, 1518333, Note_on_c, 0, 54, 94
1, 1518571, Note_on_c, 0, 70, 0
1, 1518571, Note_on_c, 0, 61, 0
1, 1518571, Note_on_c, 0, 63, 0
1, 1518574, Note_on_c, 0, 61, 76
1, 1518574, Note_on_c, 0, 63, 76
1, 1518574, Note_on_c, 0, 70, 88
1, 1518591, Note_on_c, 0, 70, 0
1, 1518591, Note_on_c, 0, 63, 0
1, 1518591, Note_on_c, 0, 61, 0
1, 1518651, Note_on_c, 0, 61, 76
1, 1518651, Note_on_c, 0, 63, 76
1, 1518651, Note_on_c, 0, 70, 88
1, 1518691, Note_on_c, 0, 70, 0
1, 1518691, Note_on_c, 0, 63, 0
1, 1518691, Note_on_c, 0, 61, 0
1, 1518811, Note_on_c, 0, 61, 76
1, 1518811, Note_on_c, 0, 63, 76
1, 1518811, Note_on_c, 0, 70, 88
1, 1518814, Note_on_c, 0, 54, 0
1, 1518814, Note_on_c, 0, 30, 80
1, 1518814, Note_on_c, 0, 42, 90
1, 1518867, Note_on_c, 0, 61, 0
1, 1518867, Note_on_c, 0, 70, 0
1, 1518867, Note_on_c, 0, 63, 0
1, 1518870, Note_on_c, 0, 30, 0
1, 1518870, Note_on_c, 0, 42, 0
1, 1519036, Note_on_c, 0, 58, 83
1, 1519036, Note_on_c, 0, 70, 83
1, 1519036, Note_on_c, 0, 73, 93
1, 1519039, Note_on_c, 0, 31, 76
1, 1519039, Note_on_c, 0, 43, 86
1, 1519128, Control_c, 0, 64, 127
1, 1519128, Control_c, 0, 64, 127
1, 1519128, Control_c, 0, 64, 127
1, 1519277, Note_on_c, 0, 73, 0
1, 1519277, Note_on_c, 0, 58, 0
1, 1519277, Note_on_c, 0, 70, 0
1, 1519280, Note_on_c, 0, 58, 84
1, 1519280, Note_on_c, 0, 70, 84
1, 1519280, Note_on_c, 0, 73, 95
1, 1519283, Note_on_c, 0, 31, 0
1, 1519283, Note_on_c, 0, 43, 0
1, 1519283, Note_on_c, 0, 32, 80
1, 1519286, Note_on_c, 0, 44, 90
1, 1519297, Note_on_c, 0, 70, 0
1, 1519297, Note_on_c, 0, 73, 0
1, 1519297, Note_on_c, 0, 58, 0
1, 1519300, Note_on_c, 0, 32, 0
1, 1519300, Note_on_c, 0, 44, 0
1, 1519355, Control_c, 0, 64, 0
1, 1519355, Note_on_c, 0, 58, 84
1, 1519355, Note_on_c, 0, 70, 84
1, 1519355, Note_on_c, 0, 73, 95
1, 1519355, Control_c, 0, 64, 0
1, 1519355, Control_c, 0, 64, 0
1, 1519355, Note_on_c, 0, 34, 80
1, 1519355, Note_on_c, 0, 46, 91
1, 1519397, Note_on_c, 0, 73, 0
1, 1519397, Note_on_c, 0, 58, 0
1, 1519397, Note_on_c, 0, 70, 0
1, 1519400, Note_on_c, 0, 34, 0
1, 1519400, Note_on_c, 0, 46, 0
1, 1519517, Note_on_c, 0, 58, 85
1, 1519517, Note_on_c, 0, 70, 85
1, 1519517, Note_on_c, 0, 73, 97
1, 1519520, Note_on_c, 0, 36, 83
1, 1519520, Note_on_c, 0, 48, 94
1, 1519557, Note_on_c, 0, 73, 0
1, 1519557, Note_on_c, 0, 58, 0
1, 1519557, Note_on_c, 0, 70, 0
1, 1519560, Note_on_c, 0, 36, 0
1, 1519560, Note_on_c, 0, 48, 0
1, 1519678, Note_on_c, 0, 58, 86
1, 1519678, Note_on_c, 0, 70, 86
1, 1519678, Note_on_c, 0, 73, 97
1, 1519681, Note_on_c, 0, 37, 85
1, 1519681, Note_on_c, 0, 49, 96
1, 1519788, Control_c, 0, 64, 127
1, 1519788, Control_c, 0, 64, 127
1, 1519788, Control_c, 0, 64, 127
1, 1519918, Note_on_c, 0, 73, 0
1, 1519918, Note_on_c, 0, 58, 0
1, 1519918, Note_on_c, 0, 70, 0
1, 1519921, Note_on_c, 0, 58, 87
1, 1519921, Note_on_c, 0, 70, 87
1, 1519921, Note_on_c, 0, 73, 99
1, 1519924, Note_on_c, 0, 37, 0
1, 1519924, Note_on_c, 0, 49, 0
1, 1519924, Note_on_c, 0, 36, 89
1, 1519927, Note_on_c, 0, 48, 101
1, 1519938, Note_on_c, 0, 70, 0
1, 1519938, Note_on_c, 0, 73, 0
1, 1519938, Note_on_c, 0, 58, 0
1, 1519941, Note_on_c, 0, 36, 0
1, 1519941, Note_on_c, 0, 48, 0
1, 1519986, Control_c, 0, 64, 0
1, 1519986, Control_c, 0, 64, 0
1, 1519986, Control_c, 0, 64, 0
1, 1519999, Note_on_c, 0, 58, 87
1, 1519999, Note_on_c, 0, 70, 87
1, 1519999, Note_on_c, 0, 73, 99
1, 1520002, Note_on_c, 0, 37, 89
1, 1520002, Note_on_c, 0, 49, 102
1, 1520039, Note_on_c, 0, 73, 0
1, 1520039, Note_on_c, 0, 58, 0
1, 1520039, Note_on_c, 0, 70, 0
1, 1520042, Note_on_c, 0, 37, 0
1, 1520042, Note_on_c, 0, 49, 0
1, 1520159, Note_on_c, 0, 58, 89
1, 1520159, Note_on_c, 0, 70, 89
1, 1520159, Note_on_c, 0, 73, 101
1, 1520162, Note_on_c, 0, 39, 93
1, 1520162, Note_on_c, 0, 51, 106
1, 1520199, Note_on_c, 0, 73, 0
1, 1520199, Note_on_c, 0, 58, 0
1, 1520199, Note_on_c, 0, 70, 0
1, 1520202, Note_on_c, 0, 39, 0
1, 1520202, Note_on_c, 0, 51, 0
1, 1520320, Note_on_c, 0, 58, 90
1, 1520320, Note_on_c, 0, 70, 90
1, 1520320, Note_on_c, 0, 73, 102
1, 1520323, Note_on_c, 0, 40, 95
1, 1520323, Note_on_c, 0, 52, 108
1, 1520412, Control_c, 0, 64, 127
1, 1520412, Control_c, 0, 64, 127
1, 1520412, Control_c, 0, 64, 127
1, 1520560, Note_on_c, 0, 73, 0
1, 1520560, Note_on_c, 0, 58, 0
1, 1520560, Note_on_c, 0, 70, 0
1, 1520563, Note_on_c, 0, 58, 91
1, 1520563, Note_on_c, 0, 70, 91
1, 1520563, Note_on_c, 0, 73, 103
1, 1520566, Note_on_c, 0, 40, 0
1, 1520566, Note_on_c, 0, 52, 0
1, 1520566, Note_on_c, 0, 39, 98
1, 1520569, Note_on_c, 0, 51, 113
1, 1520580, Note_on_c, 0, 70, 0
1, 1520580, Note_on_c, 0, 73, 0
1, 1520580, Note_on_c, 0, 58, 0
1, 1520583, Note_on_c, 0, 39, 0
1, 1520583, Note_on_c, 0, 51, 0
1, 1520639, Control_c, 0, 64, 0
1, 1520639, Note_on_c, 0, 58, 91
1, 1520639, Note_on_c, 0, 70, 91
1, 1520639, Note_on_c, 0, 73, 104
1, 1520639, Control_c, 0, 64, 0
1, 1520639, Control_c, 0, 64, 0
1, 1520639, Note_on_c, 0, 40, 100
1, 1520639, Note_on_c, 0, 52, 115
1, 1520681, Note_on_c, 0, 73, 0
1, 1520681, Note_on_c, 0, 58, 0
1, 1520681, Note_on_c, 0, 70, 0
1, 1520684, Note_on_c, 0, 40, 0
1, 1520684, Note_on_c, 0, 52, 0
1, 1520801, Note_on_c, 0, 58, 92
1, 1520801, Note_on_c, 0, 70, 92
1, 1520801, Note_on_c, 0, 73, 105
1, 1520804, Note_on_c, 0, 42, 101
1, 1520804, Note_on_c, 0, 54, 116
1, 1520841, Note_on_c, 0, 73, 0
1, 1520841, Note_on_c, 0, 58, 0
1, 1520841, Note_on_c, 0, 70, 0
1, 1520844, Note_on_c, 0, 42, 0
1, 1520844, Note_on_c, 0, 54, 0
1, 1520961, Note_on_c, 0, 58, 93
1, 1520961, Note_on_c, 0, 70, 93
1, 1520961, Note_on_c, 0, 73, 106
1, 1520964, Note_on_c, 0, 43, 105
1, 1520964, Note_on_c, 0, 55, 117
1, 1521202, Note_on_c, 0, 73, 0
1, 1521202, Note_on_c, 0, 58, 0
1, 1521202, Note_on_c, 0, 70, 0
1, 1521205, Note_on_c, 0, 58, 94
1, 1521205, Note_on_c, 0, 70, 94
1, 1521205, Note_on_c, 0, 73, 107
1, 1521222, Note_on_c, 0, 73, 0
1, 1521222, Note_on_c, 0, 58, 0
1, 1521222, Note_on_c, 0, 70, 0
1, 1521282, Note_on_c, 0, 58, 95
1, 1521282, Note_on_c, 0, 70, 95
1, 1521282, Note_on_c, 0, 73, 108
1, 1521322, Note_on_c, 0, 73, 0
1, 1521322, Note_on_c, 0, 58, 0
1, 1521322, Note_on_c, 0, 70, 0
1, 1521443, Note_on_c, 0, 43, 0
1, 1521443, Note_on_c, 0, 65, 95
1, 1521443, Note_on_c, 0, 68, 107
1, 1521446, Note_on_c, 0, 55, 0
1, 1521446, Note_on_c, 0, 53, 95
1, 1521446, Note_on_c, 0, 56, 95
1, 1521490, Note_on_c, 0, 53, 0
1, 1521490, Note_on_c, 0, 65, 0
1, 1521490, Note_on_c, 0, 68, 0
1, 1521493, Note_on_c, 0, 56, 0
1, 1521630, Note_on_c, 0, 61, 92
1, 1521630, Note_on_c, 0, 65, 103
1, 1521630, Note_on_c, 0, 44, 99
1, 1521633, Note_on_c, 0, 53, 99
1, 1521712, Control_c, 0, 64, 127
1, 1521712, Control_c, 0, 64, 127
1, 1521871, Note_on_c, 0, 65, 0
1, 1521871, Note_on_c, 0, 61, 0
1, 1521871, Note_on_c, 0, 65, 95
1, 1521874, Note_on_c, 0, 44, 0
1, 1521874, Note_on_c, 0, 53, 0
1, 1521874, Note_on_c, 0, 68, 106
1, 1521877, Control_c, 0, 64, 127
1, 1521877, Note_on_c, 0, 49, 99
1, 1521877, Note_on_c, 0, 56, 99
1, 1521880, Control_c, 0, 64, 127
1, 1521951, Note_on_c, 0, 68, 0
1, 1521951, Note_on_c, 0, 65, 0
1, 1521951, Note_on_c, 0, 68, 96
1, 1521954, Note_on_c, 0, 49, 0
1, 1521954, Note_on_c, 0, 56, 0
1, 1521954, Note_on_c, 0, 73, 107
1, 1521957, Note_on_c, 0, 53, 99
1, 1521957, Note_on_c, 0, 61, 99
1, 1522003, Note_on_c, 0, 53, 0
1, 1522003, Note_on_c, 0, 68, 0
1, 1522003, Note_on_c, 0, 73, 0
1, 1522006, Note_on_c, 0, 61, 0
1, 1522124, Note_on_c, 0, 73, 98
1, 1522124, Note_on_c, 0, 77, 109
1, 1522124, Note_on_c, 0, 56, 99
1, 1522127, Note_on_c, 0, 65, 99
1, 1522180, Note_on_c, 0, 56, 0
1, 1522180, Note_on_c, 0, 73, 0
1, 1522180, Note_on_c, 0, 77, 0
1, 1522183, Note_on_c, 0, 65, 0
1, 1522311, Note_on_c, 0, 77, 99
1, 1522311, Note_on_c, 0, 80, 111
1, 1522311, Note_on_c, 0, 61, 99
1, 1522314, Note_on_c, 0, 68, 99
1, 1522369, Control_c, 0, 64, 127
1, 1522369, Control_c, 0, 64, 127
1, 1522552, Note_on_c, 0, 80, 0
1, 1522552, Note_on_c, 0, 77, 0
1, 1522552, Note_on_c, 0, 77, 96
1, 1522555, Note_on_c, 0, 61, 0
1, 1522555, Note_on_c, 0, 68, 0
1, 1522555, Note_on_c, 0, 80, 107
1, 1522558, Note_on_c, 0, 61, 99
1, 1522558, Note_on_c, 0, 68, 99
1, 1522632, Note_on_c, 0, 80, 0
1, 1522632, Note_on_c, 0, 77, 0
1, 1522632, Note_on_c, 0, 77, 94
1, 1522635, Note_on_c, 0, 61, 0
1, 1522635, Note_on_c, 0, 68, 0
1, 1522635, Note_on_c, 0, 80, 106
1, 1522638, Control_c, 0, 64, 0
1, 1522638, Note_on_c, 0, 61, 99
1, 1522638, Note_on_c, 0, 68, 99
1, 1522641, Control_c, 0, 64, 0
1, 1522684, Note_on_c, 0, 61, 0
1, 1522684, Note_on_c, 0, 77, 0
1, 1522684, Note_on_c, 0, 80, 0
1, 1522687, Note_on_c, 0, 68, 0
1, 1522805, Note_on_c, 0, 77, 92
1, 1522805, Note_on_c, 0, 80, 103
1, 1522805, Note_on_c, 0, 61, 99
1, 1522808, Note_on_c, 0, 68, 99
1, 1522861, Note_on_c, 0, 61, 0
1, 1522861, Note_on_c, 0, 77, 0
1, 1522861, Note_on_c, 0, 80, 0
1, 1522864, Note_on_c, 0, 68, 0
1, 1522992, Note_on_c, 0, 73, 99
1, 1522992, Note_on_c, 0, 77, 111
1, 1522992, Note_on_c, 0, 56, 90
1, 1522995, Note_on_c, 0, 65, 102
1, 1523054, Control_c, 0, 64, 127
1, 1523054, Control_c, 0, 64, 127
1, 1523232, Note_on_c, 0, 77, 0
1, 1523232, Note_on_c, 0, 73, 0
1, 1523232, Note_on_c, 0, 77, 102
1, 1523235, Note_on_c, 0, 56, 0
1, 1523235, Note_on_c, 0, 65, 0
1, 1523235, Note_on_c, 0, 80, 114
1, 1523238, Note_on_c, 0, 61, 93
1, 1523238, Note_on_c, 0, 68, 105
1, 1523275, Control_c, 0, 64, 127
1, 1523275, Control_c, 0, 64, 127
1, 1523313, Note_on_c, 0, 80, 0
1, 1523313, Note_on_c, 0, 77, 0
1, 1523313, Note_on_c, 0, 80, 102
1, 1523316, Note_on_c, 0, 61, 0
1, 1523316, Note_on_c, 0, 68, 0
1, 1523316, Note_on_c, 0, 85, 115
1, 1523319, Note_on_c, 0, 65, 93
1, 1523319, Note_on_c, 0, 73, 106
1, 1523365, Note_on_c, 0, 65, 0
1, 1523365, Note_on_c, 0, 80, 0
1, 1523365, Note_on_c, 0, 85, 0
1, 1523368, Note_on_c, 0, 73, 0
1, 1523486, Note_on_c, 0, 85, 104
1, 1523486, Note_on_c, 0, 89, 117
1, 1523486, Note_on_c, 0, 68, 95
1, 1523489, Note_on_c, 0, 77, 108
1, 1523542, Note_on_c, 0, 68, 0
1, 1523542, Note_on_c, 0, 85, 0
1, 1523542, Note_on_c, 0, 89, 0
1, 1523545, Note_on_c, 0, 77, 0
1, 1523673, Note_on_c, 0, 89, 106
1, 1523673, Note_on_c, 0, 92, 117
1, 1523673, Note_on_c, 0, 73, 97
1, 1523676, Note_on_c, 0, 80, 110
1, 1523913, Note_on_c, 0, 92, 0
1, 1523913, Note_on_c, 0, 89, 0
1, 1523913, Note_on_c, 0, 89, 102
1, 1523916, Note_on_c, 0, 73, 0
1, 1523916, Note_on_c, 0, 80, 0
1, 1523916, Note_on_c, 0, 92, 114
1, 1523919, Note_on_c, 0, 73, 93
1, 1523919, Note_on_c, 0, 80, 105
1, 1523994, Note_on_c, 0, 92, 0
1, 1523994, Note_on_c, 0, 89, 0
1, 1523994, Note_on_c, 0, 89, 101
1, 1523997, Note_on_c, 0, 73, 0
1, 1523997, Note_on_c, 0, 80, 0
1, 1523997, Note_on_c, 0, 92, 112
1, 1524000, Note_on_c, 0, 73, 92
1, 1524000, Note_on_c, 0, 80, 103
1, 1524014, Control_c, 0, 64, 0
1, 1524014, Control_c, 0, 64, 0
1, 1524046, Note_on_c, 0, 73, 0
1, 1524046, Note_on_c, 0, 89, 0
1, 1524046, Note_on_c, 0, 92, 0
1, 1524049, Note_on_c, 0, 80, 0
1, 1524166, Note_on_c, 0, 82, 99
1, 1524166, Note_on_c, 0, 85, 99
1, 1524166, Note_on_c, 0, 90, 110
1, 1524169, Note_on_c, 0, 70, 90
1, 1524169, Note_on_c, 0, 73, 90
1, 1524169, Note_on_c, 0, 78, 101
1, 1524223, Note_on_c, 0, 90, 0
1, 1524223, Note_on_c, 0, 82, 0
1, 1524223, Note_on_c, 0, 85, 0
1, 1524226, Note_on_c, 0, 70, 0
1, 1524226, Note_on_c, 0, 73, 0
1, 1524226, Note_on_c, 0, 78, 0
1, 1524354, Note_on_c, 0, 80, 99
1, 1524354, Note_on_c, 0, 85, 99
1, 1524354, Note_on_c, 0, 89, 111
1, 1524357, Note_on_c, 0, 68, 90
1, 1524357, Note_on_c, 0, 73, 90
1, 1524357, Note_on_c, 0, 77, 102
1, 1524422, Control_c, 0, 64, 127
1, 1524422, Control_c, 0, 64, 127
1, 1524594, Note_on_c, 0, 89, 0
1, 1524594, Note_on_c, 0, 80, 0
1, 1524594, Note_on_c, 0, 85, 0
1, 1524597, Note_on_c, 0, 80, 97
1, 1524597, Note_on_c, 0, 85, 97
1, 1524597, Note_on_c, 0, 89, 108
1, 1524600, Note_on_c, 0, 68, 0
1, 1524600, Note_on_c, 0, 77, 0
1, 1524600, Note_on_c, 0, 73, 0
1, 1524603, Note_on_c, 0, 68, 87
1, 1524603, Note_on_c, 0, 73, 87
1, 1524603, Note_on_c, 0, 77, 98
1, 1524675, Note_on_c, 0, 80, 0
1, 1524675, Note_on_c, 0, 89, 0
1, 1524675, Note_on_c, 0, 85, 0
1, 1524678, Note_on_c, 0, 80, 95
1, 1524678, Note_on_c, 0, 85, 95
1, 1524678, Note_on_c, 0, 89, 107
1, 1524681, Note_on_c, 0, 68, 0
1, 1524681, Note_on_c, 0, 77, 0
1, 1524681, Note_on_c, 0, 73, 0
1, 1524684, Note_on_c, 0, 68, 85
1, 1524684, Note_on_c, 0, 73, 85
1, 1524684, Note_on_c, 0, 77, 97
1, 1524687, Control_c, 0, 64, 0
1, 1524687, Control_c, 0, 64, 0
1, 1524727, Note_on_c, 0, 80, 0
1, 1524727, Note_on_c, 0, 89, 0
1, 1524727, Note_on_c, 0, 85, 0
1, 1524730, Note_on_c, 0, 68, 0
1, 1524730, Note_on_c, 0, 73, 0
1, 1524730, Note_on_c, 0, 77, 0
1, 1524847, Note_on_c, 0, 78, 93
1, 1524847, Note_on_c, 0, 82, 93
1, 1524847, Note_on_c, 0, 85, 104
1, 1524850, Note_on_c, 0, 66, 83
1, 1524850, Note_on_c, 0, 70, 83
1, 1524850, Note_on_c, 0, 73, 94
1, 1524904, Note_on_c, 0, 85, 0
1, 1524904, Note_on_c, 0, 78, 0
1, 1524904, Note_on_c, 0, 82, 0
1, 1524907, Note_on_c, 0, 66, 0
1, 1524907, Note_on_c, 0, 70, 0
1, 1524907, Note_on_c, 0, 73, 0
1, 1525035, Note_on_c, 0, 77, 101
1, 1525035, Note_on_c, 0, 80, 101
1, 1525035, Note_on_c, 0, 85, 113
1, 1525038, Note_on_c, 0, 65, 90
1, 1525038, Note_on_c, 0, 68, 90
1, 1525038, Note_on_c, 0, 73, 102
1, 1525100, Control_c, 0, 64, 127
1, 1525100, Control_c, 0, 64, 127
1, 1525275, Note_on_c, 0, 85, 0
1, 1525275, Note_on_c, 0, 77, 0
1, 1525275, Note_on_c, 0, 80, 0
1, 1525278, Note_on_c, 0, 77, 98
1, 1525278, Note_on_c, 0, 80, 98
1, 1525278, Note_on_c, 0, 85, 109
1, 1525281, Note_on_c, 0, 65, 0
1, 1525281, Note_on_c, 0, 73, 0
1, 1525281, Note_on_c, 0, 68, 0
1, 1525284, Note_on_c, 0, 65, 87
1, 1525284, Note_on_c, 0, 68, 87
1, 1525284, Note_on_c, 0, 73, 98
1, 1525354, Note_on_c, 0, 73, 0
1, 1525354, Note_on_c, 0, 80, 0
1, 1525354, Note_on_c, 0, 77, 0
1, 1525354, Note_on_c, 0, 85, 0
1, 1525354, Note_on_c, 0, 68, 0
1, 1525354, Note_on_c, 0, 65, 0
1, 1525354, Control_c, 0, 64, 0
1, 1525354, Note_on_c, 0, 77, 96
1, 1525354, Note_on_c, 0, 80, 109
1, 1525354, Control_c, 0, 64, 0
1, 1525354, Note_on_c, 0, 65, 85
1, 1525354, Note_on_c, 0, 68, 97
1, 1525354, Note_on_c, 0, 73, 85
1, 1525407, Note_on_c, 0, 65, 0
1, 1525407, Note_on_c, 0, 77, 0
1, 1525407, Note_on_c, 0, 80, 0
1, 1525410, Note_on_c, 0, 68, 0
1, 1525410, Note_on_c, 0, 73, 0
1, 1525528, Note_on_c, 0, 73, 94
1, 1525528, Note_on_c, 0, 78, 94
1, 1525528, Note_on_c, 0, 82, 106
1, 1525531, Note_on_c, 0, 61, 83
1, 1525531, Note_on_c, 0, 66, 83
1, 1525531, Note_on_c, 0, 70, 94
1, 1525585, Note_on_c, 0, 82, 0
1, 1525585, Note_on_c, 0, 73, 0
1, 1525585, Note_on_c, 0, 78, 0
1, 1525588, Note_on_c, 0, 61, 0
1, 1525588, Note_on_c, 0, 66, 0
1, 1525588, Note_on_c, 0, 70, 0
1, 1525715, Note_on_c, 0, 73, 102
1, 1525715, Note_on_c, 0, 77, 102
1, 1525715, Note_on_c, 0, 80, 115
1, 1525718, Note_on_c, 0, 61, 90
1, 1525718, Note_on_c, 0, 65, 90
1, 1525718, Note_on_c, 0, 68, 102
1, 1525767, Note_on_c, 0, 80, 0
1, 1525767, Note_on_c, 0, 73, 0
1, 1525767, Note_on_c, 0, 77, 0
1, 1525770, Note_on_c, 0, 61, 0
1, 1525770, Note_on_c, 0, 65, 0
1, 1525770, Note_on_c, 0, 68, 0
1, 1525888, Note_on_c, 0, 70, 101
1, 1525888, Note_on_c, 0, 73, 101
1, 1525888, Note_on_c, 0, 78, 114
1, 1525891, Note_on_c, 0, 58, 88
1, 1525891, Note_on_c, 0, 61, 88
1, 1525891, Note_on_c, 0, 66, 100
1, 1525940, Note_on_c, 0, 78, 0
1, 1525940, Note_on_c, 0, 70, 0
1, 1525940, Note_on_c, 0, 73, 0
1, 1525943, Note_on_c, 0, 58, 0
1, 1525943, Note_on_c, 0, 61, 0
1, 1525943, Note_on_c, 0, 66, 0
1, 1526061, Note_on_c, 0, 68, 100
1, 1526061, Note_on_c, 0, 73, 100
1, 1526061, Note_on_c, 0, 77, 111
1, 1526064, Note_on_c, 0, 56, 87
1, 1526064, Note_on_c, 0, 61, 87
1, 1526064, Note_on_c, 0, 65, 98
1, 1526113, Note_on_c, 0, 77, 0
1, 1526113, Note_on_c, 0, 68, 0
1, 1526113, Note_on_c, 0, 73, 0
1, 1526116, Note_on_c, 0, 56, 0
1, 1526116, Note_on_c, 0, 61, 0
1, 1526116, Note_on_c, 0, 65, 0
1, 1526234, Note_on_c, 0, 66, 98
1, 1526234, Note_on_c, 0, 70, 98
1, 1526234, Note_on_c, 0, 73, 110
1, 1526237, Note_on_c, 0, 54, 85
1, 1526237, Note_on_c, 0, 58, 85
1, 1526237, Note_on_c, 0, 61, 96
1, 1526286, Note_on_c, 0, 73, 0
1, 1526286, Note_on_c, 0, 66, 0
1, 1526286, Note_on_c, 0, 70, 0
1, 1526289, Note_on_c, 0, 54, 0
1, 1526289, Note_on_c, 0, 58, 0
1, 1526289, Note_on_c, 0, 61, 0
1, 1526407, Note_on_c, 0, 65, 97
1, 1526407, Note_on_c, 0, 68, 97
1, 1526407, Note_on_c, 0, 73, 109
1, 1526410, Note_on_c, 0, 53, 83
1, 1526410, Note_on_c, 0, 56, 83
1, 1526410, Note_on_c, 0, 61, 94
1, 1526459, Note_on_c, 0, 73, 0
1, 1526459, Note_on_c, 0, 65, 0
1, 1526459, Note_on_c, 0, 68, 0
1, 1526462, Note_on_c, 0, 53, 0
1, 1526462, Note_on_c, 0, 56, 0
1, 1526462, Note_on_c, 0, 61, 0
1, 1526579, Note_on_c, 0, 61, 97
1, 1526579, Note_on_c, 0, 66, 97
1, 1526579, Note_on_c, 0, 70, 109
1, 1526582, Note_on_c, 0, 49, 83
1, 1526582, Note_on_c, 0, 54, 83
1, 1526582, Note_on_c, 0, 58, 94
1, 1526631, Note_on_c, 0, 70, 0
1, 1526631, Note_on_c, 0, 61, 0
1, 1526631, Note_on_c, 0, 66, 0
1, 1526634, Note_on_c, 0, 49, 0
1, 1526634, Note_on_c, 0, 54, 0
1, 1526634, Note_on_c, 0, 58, 0
1, 1526752, Note_on_c, 0, 61, 102
1, 1526752, Note_on_c, 0, 65, 102
1, 1526752, Note_on_c, 0, 68, 114
1, 1526755, Note_on_c, 0, 49, 87
1, 1526755, Note_on_c, 0, 53, 87
1, 1526755, Note_on_c, 0, 56, 98
1, 1526809, Note_on_c, 0, 68, 0
1, 1526809, Note_on_c, 0, 61, 0
1, 1526809, Note_on_c, 0, 65, 0
1, 1526812, Note_on_c, 0, 49, 0
1, 1526812, Note_on_c, 0, 53, 0
1, 1526812, Note_on_c, 0, 56, 0
1, 1526939, Note_on_c, 0, 61, 105
1, 1526939, Note_on_c, 0, 64, 105
1, 1526939, Note_on_c, 0, 68, 117
1, 1526942, Note_on_c, 0, 49, 90
1, 1526942, Note_on_c, 0, 52, 90
1, 1526942, Note_on_c, 0, 56, 102
1, 1527001, Note_on_c, 0, 68, 0
1, 1527001, Note_on_c, 0, 61, 0
1, 1527001, Note_on_c, 0, 64, 0
1, 1527004, Note_on_c, 0, 49, 0
1, 1527004, Note_on_c, 0, 52, 0
1, 1527004, Note_on_c, 0, 56, 0
1, 1527144, Note_on_c, 0, 61, 99
1, 1527144, Note_on_c, 0, 63, 99
1, 1527144, Note_on_c, 0, 68, 115
1, 1527147, Note_on_c, 0, 49, 92
1, 1527147, Note_on_c, 0, 51, 92
1, 1527147, Note_on_c, 0, 56, 101
1, 1527218, Control_c, 0, 64, 127
1, 1527218, Control_c, 0, 64, 127
1, 1527403, Note_on_c, 0, 68, 0
1, 1527403, Note_on_c, 0, 61, 0
1, 1527403, Note_on_c, 0, 63, 0
1, 1527406, Note_on_c, 0, 68, 96
1, 1527406, Note_on_c, 0, 73, 96
1, 1527406, Note_on_c, 0, 80, 113
1, 1527409, Note_on_c, 0, 49, 0
1, 1527409, Note_on_c, 0, 56, 0
1, 1527409, Note_on_c, 0, 51, 0
1, 1527412, Note_on_c, 0, 32, 94
1, 1527412, Note_on_c, 0, 44, 102
1, 1527489, Note_on_c, 0, 68, 0
1, 1527489, Note_on_c, 0, 80, 0
1, 1527489, Note_on_c, 0, 73, 0
1, 1527492, Note_on_c, 0, 68, 102
1, 1527492, Note_on_c, 0, 73, 102
1, 1527492, Note_on_c, 0, 80, 117
1, 1527495, Note_on_c, 0, 32, 0
1, 1527495, Note_on_c, 0, 44, 0
1, 1527495, Note_on_c, 0, 32, 94
1, 1527498, Note_on_c, 0, 44, 103
1, 1527653, Control_c, 0, 64, 127
1, 1527653, Control_c, 0, 64, 127
1, 1527676, Note_on_c, 0, 73, 0
1, 1527676, Note_on_c, 0, 80, 0
1, 1527676, Note_on_c, 0, 68, 0
1, 1527679, Note_on_c, 0, 68, 106
1, 1527679, Note_on_c, 0, 73, 106
1, 1527679, Note_on_c, 0, 80, 117
1, 1527682, Note_on_c, 0, 32, 0
1, 1527682, Note_on_c, 0, 44, 0
1, 1527682, Note_on_c, 0, 32, 95
1, 1527685, Note_on_c, 0, 44, 104
1, 1527738, Note_on_c, 0, 73, 0
1, 1527738, Note_on_c, 0, 80, 0
1, 1527738, Note_on_c, 0, 68, 0
1, 1527741, Note_on_c, 0, 32, 0
1, 1527741, Note_on_c, 0, 44, 0
1, 1527881, Note_on_c, 0, 68, 109
1, 1527881, Note_on_c, 0, 73, 109
1, 1527881, Note_on_c, 0, 80, 117
1, 1527884, Note_on_c, 0, 32, 96
1, 1527884, Note_on_c, 0, 44, 104
1, 1527892, Control_c, 0, 64, 0
1, 1527892, Control_c, 0, 64, 0
1, 1528032, Control_c, 0, 64, 127
1, 1528032, Control_c, 0, 64, 127
1, 1528140, Note_on_c, 0, 80, 0
1, 1528140, Note_on_c, 0, 68, 0
1, 1528140, Note_on_c, 0, 73, 0
1, 1528143, Note_on_c, 0, 61, 83
1, 1528143, Note_on_c, 0, 63, 90
1, 1528143, Note_on_c, 0, 68, 103
1, 1528146, Note_on_c, 0, 32, 0
1, 1528146, Note_on_c, 0, 44, 0
1, 1528146, Note_on_c, 0, 44, 84
1, 1528149, Note_on_c, 0, 51, 84
1, 1528149, Note_on_c, 0, 56, 103
1, 1528226, Note_on_c, 0, 63, 0
1, 1528226, Note_on_c, 0, 68, 0
1, 1528226, Note_on_c, 0, 61, 0
1, 1528229, Note_on_c, 0, 61, 91
1, 1528229, Note_on_c, 0, 63, 91
1, 1528229, Note_on_c, 0, 68, 103
1, 1528232, Note_on_c, 0, 44, 0
1, 1528232, Note_on_c, 0, 56, 0
1, 1528232, Note_on_c, 0, 51, 0
1, 1528235, Note_on_c, 0, 44, 86
1, 1528235, Note_on_c, 0, 51, 86
1, 1528235, Note_on_c, 0, 56, 103
1, 1528413, Note_on_c, 0, 61, 0
1, 1528413, Note_on_c, 0, 68, 0
1, 1528413, Note_on_c, 0, 63, 0
1, 1528416, Note_on_c, 0, 61, 95
1, 1528416, Note_on_c, 0, 63, 95
1, 1528416, Note_on_c, 0, 68, 103
1, 1528419, Note_on_c, 0, 44, 0
1, 1528419, Note_on_c, 0, 56, 0
1, 1528419, Note_on_c, 0, 51, 0
1, 1528422, Note_on_c, 0, 44, 89
1, 1528422, Note_on_c, 0, 51, 89
1, 1528422, Note_on_c, 0, 56, 103
1, 1528478, Control_c, 0, 64, 0
1, 1528478, Control_c, 0, 64, 0
1, 1528618, Note_on_c, 0, 61, 0
1, 1528618, Note_on_c, 0, 68, 0
1, 1528618, Note_on_c, 0, 63, 0
1, 1528621, Note_on_c, 0, 60, 99
1, 1528621, Note_on_c, 0, 63, 99
1, 1528621, Note_on_c, 0, 68, 115
1, 1528624, Note_on_c, 0, 44, 0
1, 1528624, Note_on_c, 0, 56, 0
1, 1528624, Note_on_c, 0, 51, 0
1, 1528627, Note_on_c, 0, 44, 93
1, 1528627, Note_on_c, 0, 51, 93
1, 1528627, Note_on_c, 0, 56, 103
1, 1528687, Control_c, 0, 64, 127
1, 1528687, Control_c, 0, 64, 127
1, 1528877, Note_on_c, 0, 60, 0
1, 1528877, Note_on_c, 0, 68, 0
1, 1528877, Note_on_c, 0, 63, 0
1, 1528880, Note_on_c, 0, 66, 99
1, 1528880, Note_on_c, 0, 68, 99
1, 1528880, Note_on_c, 0, 75, 99
1, 1528883, Note_on_c, 0, 44, 0
1, 1528883, Note_on_c, 0, 51, 0
1, 1528883, Note_on_c, 0, 80, 117
1, 1528886, Note_on_c, 0, 56, 0
1, 1528886, Note_on_c, 0, 32, 101
1, 1528886, Note_on_c, 0, 44, 110
1, 1528963, Note_on_c, 0, 68, 0
1, 1528963, Note_on_c, 0, 66, 0
1, 1528963, Note_on_c, 0, 75, 0
1, 1528966, Note_on_c, 0, 80, 0
1, 1528966, Note_on_c, 0, 66, 99
1, 1528966, Note_on_c, 0, 68, 108
1, 1528969, Note_on_c, 0, 32, 0
1, 1528969, Note_on_c, 0, 75, 108
1, 1528969, Note_on_c, 0, 80, 117
1, 1528972, Note_on_c, 0, 44, 0
1, 1528972, Note_on_c, 0, 32, 101
1, 1528972, Note_on_c, 0, 44, 110
1, 1529168, Note_on_c, 0, 75, 0
1, 1529168, Note_on_c, 0, 68, 0
1, 1529168, Note_on_c, 0, 66, 0
1, 1529171, Note_on_c, 0, 80, 0
1, 1529171, Note_on_c, 0, 66, 109
1, 1529171, Note_on_c, 0, 68, 109
1, 1529174, Note_on_c, 0, 32, 0
1, 1529174, Note_on_c, 0, 75, 109
1, 1529174, Note_on_c, 0, 80, 117
1, 1529177, Note_on_c, 0, 44, 0
1, 1529177, Note_on_c, 0, 32, 102
1, 1529177, Note_on_c, 0, 44, 112
1, 1529235, Note_on_c, 0, 75, 0
1, 1529235, Note_on_c, 0, 68, 0
1, 1529235, Note_on_c, 0, 66, 0
1, 1529238, Note_on_c, 0, 80, 0
1, 1529238, Note_on_c, 0, 32, 0
1, 1529238, Note_on_c, 0, 44, 0
1, 1529392, Note_on_c, 0, 66, 110
1, 1529392, Note_on_c, 0, 68, 110
1, 1529392, Note_on_c, 0, 75, 110
1, 1529395, Note_on_c, 0, 80, 117
1, 1529395, Note_on_c, 0, 32, 103
1, 1529395, Note_on_c, 0, 44, 113
1, 1529673, Note_on_c, 0, 75, 0
1, 1529673, Note_on_c, 0, 66, 0
1, 1529673, Note_on_c, 0, 68, 0
1, 1529676, Note_on_c, 0, 80, 0
1, 1529676, Note_on_c, 0, 66, 111
1, 1529676, Note_on_c, 0, 68, 117
1, 1529679, Note_on_c, 0, 32, 0
1, 1529679, Note_on_c, 0, 44, 0
1, 1529679, Note_on_c, 0, 44, 104
1, 1529682, Note_on_c, 0, 48, 104
1, 1529682, Note_on_c, 0, 56, 114
1, 1529767, Note_on_c, 0, 66, 0
1, 1529767, Note_on_c, 0, 68, 0
1, 1529767, Note_on_c, 0, 66, 103
1, 1529770, Note_on_c, 0, 48, 0
1, 1529770, Note_on_c, 0, 44, 0
1, 1529770, Note_on_c, 0, 68, 117
1, 1529773, Note_on_c, 0, 56, 0
1, 1529773, Note_on_c, 0, 44, 105
1, 1529773, Note_on_c, 0, 48, 105
1, 1529776, Note_on_c, 0, 56, 115
1, 1529842, Note_on_c, 0, 44, 0
1, 1529842, Note_on_c, 0, 66, 0
1, 1529842, Note_on_c, 0, 68, 0
1, 1529845, Note_on_c, 0, 48, 0
1, 1529845, Note_on_c, 0, 56, 0
1, 1530016, Note_on_c, 0, 68, 112
1, 1530016, Note_on_c, 0, 72, 112
1, 1530016, Note_on_c, 0, 75, 112
1, 1530019, Note_on_c, 0, 80, 117
1, 1530019, Note_on_c, 0, 44, 106
1, 1530019, Note_on_c, 0, 56, 116
1, 1530101, Note_on_c, 0, 75, 0
1, 1530101, Note_on_c, 0, 68, 0
1, 1530101, Note_on_c, 0, 72, 0
1, 1530104, Note_on_c, 0, 80, 0
1, 1530104, Note_on_c, 0, 44, 0
1, 1530104, Note_on_c, 0, 56, 0
1, 1530199, Control_c, 0, 64, 0
1, 1530199, Control_c, 0, 64, 0
1, 1530297, Note_on_c, 0, 65, 109
1, 1530297, Note_on_c, 0, 68, 109
1, 1530297, Note_on_c, 0, 73, 109
1, 1530300, Note_on_c, 0, 77, 117
1, 1530300, Note_on_c, 0, 49, 117
1, 1530300, Note_on_c, 0, 61, 108
1, 1530376, Control_c, 0, 64, 127
1, 1530376, Control_c, 0, 64, 127
1, 1530556, Note_on_c, 0, 73, 0
1, 1530556, Note_on_c, 0, 65, 0
1, 1530556, Note_on_c, 0, 68, 0
1, 1530559, Note_on_c, 0, 77, 0
1, 1530559, Note_on_c, 0, 68, 105
1, 1530559, Note_on_c, 0, 72, 105
1, 1530562, Note_on_c, 0, 49, 0
1, 1530562, Note_on_c, 0, 75, 105
1, 1530562, Note_on_c, 0, 80, 117
1, 1530565, Note_on_c, 0, 61, 0
1, 1530565, Note_on_c, 0, 44, 117
1, 1530565, Note_on_c, 0, 56, 113
1, 1530643, Note_on_c, 0, 75, 0
1, 1530643, Note_on_c, 0, 72, 0
1, 1530643, Note_on_c, 0, 68, 0
1, 1530646, Note_on_c, 0, 80, 0
1, 1530646, Note_on_c, 0, 73, 107
1, 1530646, Note_on_c, 0, 77, 107
1, 1530649, Note_on_c, 0, 44, 0
1, 1530649, Note_on_c, 0, 80, 107
1, 1530649, Note_on_c, 0, 85, 117
1, 1530652, Note_on_c, 0, 56, 0
1, 1530652, Note_on_c, 0, 37, 117
1, 1530652, Note_on_c, 0, 49, 115
1, 1530655, Control_c, 0, 64, 0
1, 1530655, Control_c, 0, 64, 0
1, 1530704, Note_on_c, 0, 80, 0
1, 1530704, Note_on_c, 0, 77, 0
1, 1530704, Note_on_c, 0, 73, 0
1, 1530707, Note_on_c, 0, 85, 0
1, 1530707, Note_on_c, 0, 37, 0
1, 1530707, Note_on_c, 0, 49, 0
1, 1530847, Note_on_c, 0, 75, 110
1, 1530847, Note_on_c, 0, 80, 110
1, 1530847, Note_on_c, 0, 84, 110
1, 1530850, Note_on_c, 0, 87, 117
1, 1530850, Note_on_c, 0, 32, 117
1, 1530850, Note_on_c, 0, 44, 117
1, 1530914, Note_on_c, 0, 84, 0
1, 1530914, Note_on_c, 0, 75, 0
1, 1530914, Note_on_c, 0, 80, 0
1, 1530917, Note_on_c, 0, 87, 0
1, 1530917, Note_on_c, 0, 32, 0
1, 1530917, Note_on_c, 0, 44, 0
1, 1531071, Note_on_c, 0, 77, 113
1, 1531071, Note_on_c, 0, 80, 113
1, 1531071, Note_on_c, 0, 85, 113
1, 1531074, Note_on_c, 0, 89, 117
1, 1531074, Note_on_c, 0, 25, 117
1, 1531074, Note_on_c, 0, 37, 117
1, 1531118, Control_c, 0, 64, 127
1, 1531118, Control_c, 0, 64, 127
1, 1531352, Note_on_c, 0, 85, 0
1, 1531352, Note_on_c, 0, 77, 0
1, 1531352, Note_on_c, 0, 80, 0
1, 1531355, Note_on_c, 0, 89, 0
1, 1531355, Note_on_c, 0, 75, 103
1, 1531355, Note_on_c, 0, 87, 117
1, 1531439, Note_on_c, 0, 87, 0
1, 1531439, Note_on_c, 0, 75, 0
1, 1531439, Note_on_c, 0, 73, 103
1, 1531442, Note_on_c, 0, 25, 0
1, 1531442, Note_on_c, 0, 37, 0
1, 1531442, Note_on_c, 0, 85, 117
1, 1531453, Control_c, 0, 64, 0
1, 1531453, Control_c, 0, 64, 0
1, 1531491, Note_on_c, 0, 85, 0
1, 1531491, Note_on_c, 0, 73, 0
1, 1531611, Note_on_c, 0, 72, 103
1, 1531611, Note_on_c, 0, 77, 103
1, 1531611, Note_on_c, 0, 81, 103
1, 1531614, Note_on_c, 0, 84, 117
1, 1531614, Note_on_c, 0, 53, 98
1, 1531614, Note_on_c, 0, 65, 87
1, 1531668, Note_on_c, 0, 81, 0
1, 1531668, Note_on_c, 0, 72, 0
1, 1531668, Note_on_c, 0, 77, 0
1, 1531671, Note_on_c, 0, 84, 0
1, 1531696, Note_on_c, 0, 53, 0
1, 1531696, Note_on_c, 0, 65, 0
1, 1531799, Note_on_c, 0, 73, 114
1, 1531799, Note_on_c, 0, 77, 114
1, 1531799, Note_on_c, 0, 82, 114
1, 1531802, Note_on_c, 0, 85, 117
1, 1531802, Note_on_c, 0, 58, 100
1, 1531802, Note_on_c, 0, 65, 89
1, 1531858, Control_c, 0, 64, 127
1, 1531858, Control_c, 0, 64, 127
1, 1532058, Note_on_c, 0, 82, 0
1, 1532058, Note_on_c, 0, 73, 0
1, 1532058, Note_on_c, 0, 77, 0
1, 1532061, Note_on_c, 0, 85, 0
1, 1532061, Note_on_c, 0, 72, 103
1, 1532061, Note_on_c, 0, 77, 103
1, 1532064, Note_on_c, 0, 58, 0
1, 1532064, Note_on_c, 0, 81, 103
1, 1532064, Note_on_c, 0, 84, 117
1, 1532067, Note_on_c, 0, 65, 0
1, 1532067, Note_on_c, 0, 53, 102
1, 1532067, Note_on_c, 0, 65, 91
1, 1532144, Note_on_c, 0, 81, 0
1, 1532144, Note_on_c, 0, 77, 0
1, 1532144, Note_on_c, 0, 72, 0
1, 1532147, Note_on_c, 0, 84, 0
1, 1532147, Note_on_c, 0, 73, 103
1, 1532147, Note_on_c, 0, 77, 103
1, 1532150, Note_on_c, 0, 53, 0
1, 1532150, Note_on_c, 0, 82, 103
1, 1532150, Note_on_c, 0, 85, 117
1, 1532153, Note_on_c, 0, 65, 0
1, 1532153, Control_c, 0, 64, 0
1, 1532153, Note_on_c, 0, 58, 103
1, 1532153, Note_on_c, 0, 65, 91
1, 1532153, Control_c, 0, 64, 0
1, 1532201, Note_on_c, 0, 82, 0
1, 1532201, Note_on_c, 0, 77, 0
1, 1532201, Note_on_c, 0, 73, 0
1, 1532204, Note_on_c, 0, 85, 0
1, 1532204, Note_on_c, 0, 58, 0
1, 1532204, Note_on_c, 0, 65, 0
1, 1532331, Note_on_c, 0, 72, 97
1, 1532331, Note_on_c, 0, 77, 97
1, 1532331, Note_on_c, 0, 81, 97
1, 1532334, Note_on_c, 0, 84, 117
1, 1532334, Note_on_c, 0, 53, 104
1, 1532334, Note_on_c, 0, 65, 93
1, 1532393, Note_on_c, 0, 81, 0
1, 1532393, Note_on_c, 0, 72, 0
1, 1532393, Note_on_c, 0, 77, 0
1, 1532396, Note_on_c, 0, 84, 0
1, 1532396, Note_on_c, 0, 53, 0
1, 1532396, Note_on_c, 0, 65, 0
1, 1532536, Note_on_c, 0, 73, 107
1, 1532536, Note_on_c, 0, 77, 107
1, 1532536, Note_on_c, 0, 82, 107
1, 1532539, Note_on_c, 0, 85, 117
1, 1532539, Note_on_c, 0, 58, 106
1, 1532539, Note_on_c, 0, 65, 94
1, 1532601, Control_c, 0, 64, 127
1, 1532601, Control_c, 0, 64, 127
1, 1532916, Control_c, 0, 64, 0
1, 1532916, Control_c, 0, 64, 0
1, 1532944, Note_on_c, 0, 82, 0
1, 1532944, Note_on_c, 0, 73, 0
1, 1532944, Note_on_c, 0, 77, 0
1, 1532947, Note_on_c, 0, 85, 0
1, 1532947, Note_on_c, 0, 58, 0
1, 1532947, Note_on_c, 0, 65, 0
1, 1533148, Note_on_c, 0, 58, 75
1, 1533148, Note_on_c, 0, 62, 75
1, 1533148, Note_on_c, 0, 65, 96
1, 1533151, Note_on_c, 0, 34, 63
1, 1533373, Note_on_c, 0, 62, 0
1, 1533373, Note_on_c, 0, 58, 0
1, 1533373, Note_on_c, 0, 58, 78
1, 1533376, Note_on_c, 0, 63, 78
1, 1533376, Note_on_c, 0, 66, 92
1, 1533376, Note_on_c, 0, 39, 66
1, 1533380, Note_on_c, 0, 65, 0
1, 1533380, Note_on_c, 0, 34, 0
1, 1533448, Control_c, 0, 64, 127
1, 1533448, Control_c, 0, 64, 127
1, 1533654, Note_on_c, 0, 66, 0
1, 1533654, Note_on_c, 0, 63, 0
1, 1533654, Note_on_c, 0, 58, 0
1, 1533657, Note_on_c, 0, 58, 76
1, 1533657, Note_on_c, 0, 63, 76
1, 1533657, Note_on_c, 0, 66, 89
1, 1533660, Note_on_c, 0, 39, 0
1, 1533660, Note_on_c, 0, 41, 70
1, 1533747, Note_on_c, 0, 58, 0
1, 1533747, Note_on_c, 0, 66, 0
1, 1533747, Note_on_c, 0, 63, 0
1, 1533750, Note_on_c, 0, 58, 75
1, 1533750, Note_on_c, 0, 63, 75
1, 1533750, Note_on_c, 0, 66, 88
1, 1533753, Note_on_c, 0, 41, 0
1, 1533753, Note_on_c, 0, 42, 71
1, 1533762, Control_c, 0, 64, 0
1, 1533762, Control_c, 0, 64, 0
1, 1533853, Control_c, 0, 64, 127
1, 1533853, Control_c, 0, 64, 127
1, 1533935, Note_on_c, 0, 58, 0
1, 1533935, Note_on_c, 0, 66, 0
1, 1533935, Note_on_c, 0, 63, 0
1, 1533938, Note_on_c, 0, 58, 74
1, 1533938, Note_on_c, 0, 63, 74
1, 1533938, Note_on_c, 0, 66, 92
1, 1533941, Note_on_c, 0, 44, 74
1, 1533944, Note_on_c, 0, 42, 0
1, 1533991, Control_c, 0, 64, 0
1, 1533991, Control_c, 0, 64, 0
1, 1534101, Control_c, 0, 64, 127
1, 1534101, Control_c, 0, 64, 127
1, 1534184, Note_on_c, 0, 58, 0
1, 1534184, Note_on_c, 0, 63, 0
1, 1534184, Note_on_c, 0, 58, 80
1, 1534187, Note_on_c, 0, 66, 80
1, 1534187, Note_on_c, 0, 70, 95
1, 1534187, Note_on_c, 0, 46, 77
1, 1534192, Note_on_c, 0, 66, 0
1, 1534192, Note_on_c, 0, 44, 0
1, 1534207, Control_c, 0, 64, 0
1, 1534207, Control_c, 0, 64, 0
1, 1534315, Control_c, 0, 64, 127
1, 1534315, Control_c, 0, 64, 127
1, 1534490, Note_on_c, 0, 66, 0
1, 1534490, Note_on_c, 0, 58, 0
1, 1534490, Note_on_c, 0, 58, 78
1, 1534493, Note_on_c, 0, 65, 78
1, 1534493, Note_on_c, 0, 68, 92
1, 1534498, Note_on_c, 0, 70, 0
1, 1534541, Control_c, 0, 64, 0
1, 1534541, Control_c, 0, 64, 0
1, 1534593, Note_on_c, 0, 65, 0
1, 1534593, Note_on_c, 0, 58, 0
1, 1534593, Note_on_c, 0, 58, 77
1, 1534596, Note_on_c, 0, 63, 77
1, 1534596, Note_on_c, 0, 66, 91
1, 1534601, Note_on_c, 0, 68, 0
1, 1534667, Control_c, 0, 64, 127
1, 1534667, Control_c, 0, 64, 127
1, 1534797, Note_on_c, 0, 63, 0
1, 1534797, Note_on_c, 0, 58, 0
1, 1534797, Note_on_c, 0, 59, 76
1, 1534800, Note_on_c, 0, 63, 76
1, 1534800, Note_on_c, 0, 65, 92
1, 1534800, Note_on_c, 0, 44, 73
1, 1534806, Note_on_c, 0, 46, 0
1, 1534806, Note_on_c, 0, 66, 0
1, 1534833, Control_c, 0, 64, 0
1, 1534833, Control_c, 0, 64, 0
1, 1534942, Control_c, 0, 64, 127
1, 1534942, Control_c, 0, 64, 127
1, 1535021, Note_on_c, 0, 63, 0
1, 1535021, Note_on_c, 0, 59, 0
1, 1535021, Control_c, 0, 64, 127
1, 1535024, Note_on_c, 0, 58, 78
1, 1535024, Note_on_c, 0, 63, 78
1, 1535024, Note_on_c, 0, 66, 92
1, 1535027, Control_c, 0, 64, 127
1, 1535027, Note_on_c, 0, 46, 70
1, 1535031, Note_on_c, 0, 44, 0
1, 1535031, Note_on_c, 0, 65, 0
1, 1535088, Control_c, 0, 64, 0
1, 1535088, Control_c, 0, 64, 0
1, 1535253, Control_c, 0, 64, 127
1, 1535253, Control_c, 0, 64, 127
1, 1535396, Note_on_c, 0, 66, 0
1, 1535396, Note_on_c, 0, 63, 0
1, 1535396, Note_on_c, 0, 58, 0
1, 1535399, Note_on_c, 0, 58, 74
1, 1535399, Note_on_c, 0, 63, 74
1, 1535399, Note_on_c, 0, 66, 87
1, 1535402, Note_on_c, 0, 46, 0
1, 1535402, Note_on_c, 0, 46, 65
1, 1535518, Control_c, 0, 64, 0
1, 1535518, Control_c, 0, 64, 0
1, 1535521, Note_on_c, 0, 58, 0
1, 1535521, Note_on_c, 0, 63, 0
1, 1535521, Note_on_c, 0, 56, 74
1, 1535524, Note_on_c, 0, 46, 0
1, 1535524, Note_on_c, 0, 63, 74
1, 1535524, Note_on_c, 0, 65, 86
1, 1535527, Note_on_c, 0, 46, 64
1, 1535532, Note_on_c, 0, 66, 0
1, 1535591, Note_on_c, 0, 65, 0
1, 1535591, Note_on_c, 0, 56, 0
1, 1535591, Note_on_c, 0, 63, 0
1, 1535594, Note_on_c, 0, 46, 0
1, 1535801, Note_on_c, 0, 56, 71
1, 1535801, Note_on_c, 0, 62, 71
1, 1535801, Note_on_c, 0, 65, 83
1, 1535804, Note_on_c, 0, 34, 61
1, 1535872, Note_on_c, 0, 65, 0
1, 1535872, Note_on_c, 0, 56, 0
1, 1535872, Note_on_c, 0, 62, 0
1, 1535875, Note_on_c, 0, 34, 0
1, 1536082, Note_on_c, 0, 54, 64
1, 1536082, Note_on_c, 0, 63, 75
1, 1536082, Note_on_c, 0, 39, 53
1, 1536532, Note_on_c, 0, 39, 0
1, 1536532, Note_on_c, 0, 63, 0
1, 1536532, Note_on_c, 0, 54, 0
1, 1536756, Note_on_c, 0, 68, 99
1, 1536756, Note_on_c, 0, 72, 99
1, 1536756, Note_on_c, 0, 75, 99
1, 1536759, Note_on_c, 0, 80, 115
1, 1536759, Note_on_c, 0, 44, 99
1, 1536759, Note_on_c, 0, 56, 107
1, 1536824, Note_on_c, 0, 75, 0
1, 1536824, Note_on_c, 0, 68, 0
1, 1536824, Note_on_c, 0, 72, 0
1, 1536827, Note_on_c, 0, 80, 0
1, 1536827, Note_on_c, 0, 44, 0
1, 1536827, Note_on_c, 0, 56, 0
1, 1536981, Note_on_c, 0, 65, 102
1, 1536981, Note_on_c, 0, 68, 102
1, 1536981, Note_on_c, 0, 73, 102
1, 1536984, Note_on_c, 0, 77, 116
1, 1536984, Note_on_c, 0, 49, 111
1, 1536984, Note_on_c, 0, 61, 99
1, 1537060, Control_c, 0, 64, 127
1, 1537060, Control_c, 0, 64, 127
1, 1537240, Note_on_c, 0, 73, 0
1, 1537240, Note_on_c, 0, 65, 0
1, 1537240, Note_on_c, 0, 68, 0
1, 1537243, Note_on_c, 0, 77, 0
1, 1537243, Note_on_c, 0, 68, 98
1, 1537243, Note_on_c, 0, 72, 98
1, 1537246, Note_on_c, 0, 49, 0
1, 1537246, Note_on_c, 0, 75, 98
1, 1537246, Note_on_c, 0, 80, 114
1, 1537249, Note_on_c, 0, 61, 0
1, 1537249, Note_on_c, 0, 44, 117
1, 1537249, Note_on_c, 0, 56, 104
1, 1537326, Note_on_c, 0, 75, 0
1, 1537326, Note_on_c, 0, 72, 0
1, 1537326, Note_on_c, 0, 68, 0
1, 1537329, Note_on_c, 0, 80, 0
1, 1537329, Note_on_c, 0, 73, 100
1, 1537329, Note_on_c, 0, 77, 100
1, 1537332, Note_on_c, 0, 44, 0
1, 1537332, Note_on_c, 0, 80, 100
1, 1537332, Note_on_c, 0, 85, 116
1, 1537335, Note_on_c, 0, 56, 0
1, 1537335, Note_on_c, 0, 37, 117
1, 1537335, Note_on_c, 0, 49, 106
1, 1537338, Control_c, 0, 64, 0
1, 1537338, Control_c, 0, 64, 0
1, 1537383, Note_on_c, 0, 80, 0
1, 1537383, Note_on_c, 0, 77, 0
1, 1537383, Note_on_c, 0, 73, 0
1, 1537386, Note_on_c, 0, 85, 0
1, 1537386, Note_on_c, 0, 37, 0
1, 1537386, Note_on_c, 0, 49, 0
1, 1537514, Note_on_c, 0, 75, 103
1, 1537514, Note_on_c, 0, 80, 103
1, 1537514, Note_on_c, 0, 84, 103
1, 1537517, Note_on_c, 0, 87, 117
1, 1537517, Note_on_c, 0, 32, 117
1, 1537517, Note_on_c, 0, 44, 109
1, 1537570, Note_on_c, 0, 84, 0
1, 1537570, Note_on_c, 0, 75, 0
1, 1537570, Note_on_c, 0, 80, 0
1, 1537573, Note_on_c, 0, 87, 0
1, 1537573, Note_on_c, 0, 32, 0
1, 1537573, Note_on_c, 0, 44, 0
1, 1537701, Note_on_c, 0, 77, 106
1, 1537701, Note_on_c, 0, 80, 106
1, 1537701, Note_on_c, 0, 85, 106
1, 1537704, Note_on_c, 0, 89, 117
1, 1537704, Note_on_c, 0, 25, 117
1, 1537704, Note_on_c, 0, 37, 112
1, 1537748, Control_c, 0, 64, 127
1, 1537748, Control_c, 0, 64, 127
1, 1537982, Note_on_c, 0, 85, 0
1, 1537982, Note_on_c, 0, 77, 0
1, 1537982, Note_on_c, 0, 80, 0
1, 1537985, Note_on_c, 0, 89, 0
1, 1537985, Note_on_c, 0, 75, 96
1, 1537985, Note_on_c, 0, 87, 111
1, 1538068, Note_on_c, 0, 87, 0
1, 1538068, Note_on_c, 0, 75, 0
1, 1538068, Note_on_c, 0, 73, 96
1, 1538071, Note_on_c, 0, 25, 0
1, 1538071, Note_on_c, 0, 37, 0
1, 1538071, Note_on_c, 0, 85, 111
1, 1538082, Control_c, 0, 64, 0
1, 1538082, Control_c, 0, 64, 0
1, 1538120, Note_on_c, 0, 85, 0
1, 1538120, Note_on_c, 0, 73, 0
1, 1538241, Note_on_c, 0, 72, 96
1, 1538241, Note_on_c, 0, 77, 96
1, 1538241, Note_on_c, 0, 81, 96
1, 1538244, Note_on_c, 0, 84, 111
1, 1538244, Note_on_c, 0, 53, 98
1, 1538244, Note_on_c, 0, 65, 87
1, 1538297, Note_on_c, 0, 81, 0
1, 1538297, Note_on_c, 0, 72, 0
1, 1538297, Note_on_c, 0, 77, 0
1, 1538300, Note_on_c, 0, 84, 0
1, 1538325, Note_on_c, 0, 53, 0
1, 1538325, Note_on_c, 0, 65, 0
1, 1538428, Note_on_c, 0, 73, 107
1, 1538428, Note_on_c, 0, 77, 107
1, 1538428, Note_on_c, 0, 82, 107
1, 1538431, Note_on_c, 0, 85, 117
1, 1538431, Note_on_c, 0, 58, 100
1, 1538431, Note_on_c, 0, 65, 89
1, 1538487, Control_c, 0, 64, 127
1, 1538487, Control_c, 0, 64, 127
1, 1538687, Note_on_c, 0, 82, 0
1, 1538687, Note_on_c, 0, 73, 0
1, 1538687, Note_on_c, 0, 77, 0
1, 1538690, Note_on_c, 0, 85, 0
1, 1538690, Note_on_c, 0, 72, 96
1, 1538690, Note_on_c, 0, 77, 96
1, 1538693, Note_on_c, 0, 58, 0
1, 1538693, Note_on_c, 0, 81, 96
1, 1538693, Note_on_c, 0, 84, 111
1, 1538696, Note_on_c, 0, 65, 0
1, 1538696, Note_on_c, 0, 53, 102
1, 1538696, Note_on_c, 0, 65, 91
1, 1538774, Note_on_c, 0, 81, 0
1, 1538774, Note_on_c, 0, 77, 0
1, 1538774, Note_on_c, 0, 72, 0
1, 1538777, Note_on_c, 0, 84, 0
1, 1538777, Note_on_c, 0, 73, 96
1, 1538777, Note_on_c, 0, 77, 96
1, 1538780, Note_on_c, 0, 53, 0
1, 1538780, Note_on_c, 0, 82, 96
1, 1538780, Note_on_c, 0, 85, 111
1, 1538783, Note_on_c, 0, 65, 0
1, 1538783, Note_on_c, 0, 58, 103
1, 1538783, Note_on_c, 0, 65, 91
1, 1538786, Control_c, 0, 64, 0
1, 1538786, Control_c, 0, 64, 0
1, 1538830, Note_on_c, 0, 82, 0
1, 1538830, Note_on_c, 0, 77, 0
1, 1538830, Note_on_c, 0, 73, 0
1, 1538833, Note_on_c, 0, 85, 0
1, 1538833, Note_on_c, 0, 58, 0
1, 1538833, Note_on_c, 0, 65, 0
1, 1538961, Note_on_c, 0, 72, 90
1, 1538961, Note_on_c, 0, 77, 90
1, 1538961, Note_on_c, 0, 81, 90
1, 1538964, Note_on_c, 0, 84, 112
1, 1538964, Note_on_c, 0, 53, 104
1, 1538964, Note_on_c, 0, 65, 93
1, 1539022, Note_on_c, 0, 81, 0
1, 1539022, Note_on_c, 0, 72, 0
1, 1539022, Note_on_c, 0, 77, 0
1, 1539025, Note_on_c, 0, 84, 0
1, 1539025, Note_on_c, 0, 53, 0
1, 1539025, Note_on_c, 0, 65, 0
1, 1539165, Note_on_c, 0, 73, 100
1, 1539165, Note_on_c, 0, 77, 100
1, 1539165, Note_on_c, 0, 82, 100
1, 1539168, Note_on_c, 0, 85, 115
1, 1539168, Note_on_c, 0, 58, 106
1, 1539168, Note_on_c, 0, 65, 94
1, 1539230, Control_c, 0, 64, 127
1, 1539230, Control_c, 0, 64, 127
1, 1539545, Control_c, 0, 64, 0
1, 1539545, Control_c, 0, 64, 0
1, 1539573, Note_on_c, 0, 82, 0
1, 1539573, Note_on_c, 0, 73, 0
1, 1539573, Note_on_c, 0, 77, 0
1, 1539576, Note_on_c, 0, 85, 0
1, 1539576, Note_on_c, 0, 58, 0
1, 1539576, Note_on_c, 0, 65, 0
1, 1539778, Note_on_c, 0, 80, 103
1, 1539778, Note_on_c, 0, 82, 103
1, 1539778, Note_on_c, 0, 89, 103
1, 1539781, Note_on_c, 0, 92, 117
1, 1539781, Note_on_c, 0, 34, 99
1, 1539781, Note_on_c, 0, 41, 108
1, 1539784, Note_on_c, 0, 46, 99
1, 1539834, Note_on_c, 0, 46, 0
1, 1539834, Note_on_c, 0, 34, 0
1, 1539834, Note_on_c, 0, 41, 0
1, 1539879, Note_on_c, 0, 80, 0
1, 1539879, Note_on_c, 0, 89, 0
1, 1539879, Note_on_c, 0, 82, 0
1, 1539882, Note_on_c, 0, 92, 0
1, 1540002, Note_on_c, 0, 78, 103
1, 1540002, Note_on_c, 0, 82, 103
1, 1540002, Note_on_c, 0, 87, 103
1, 1540005, Note_on_c, 0, 90, 117
1, 1540005, Note_on_c, 0, 39, 99
1, 1540005, Note_on_c, 0, 46, 99
1, 1540008, Note_on_c, 0, 51, 108
1, 1540086, Control_c, 0, 64, 127
1, 1540086, Control_c, 0, 64, 127
1, 1540261, Note_on_c, 0, 87, 0
1, 1540261, Note_on_c, 0, 78, 0
1, 1540261, Note_on_c, 0, 82, 0
1, 1540264, Note_on_c, 0, 90, 0
1, 1540264, Note_on_c, 0, 77, 103
1, 1540264, Note_on_c, 0, 82, 103
1, 1540267, Note_on_c, 0, 39, 0
1, 1540267, Note_on_c, 0, 46, 0
1, 1540267, Note_on_c, 0, 89, 115
1, 1540270, Note_on_c, 0, 51, 0
1, 1540270, Note_on_c, 0, 41, 89
1, 1540270, Note_on_c, 0, 46, 89
1, 1540273, Note_on_c, 0, 53, 97
1, 1540331, Control_c, 0, 64, 0
1, 1540331, Control_c, 0, 64, 0
1, 1540348, Note_on_c, 0, 77, 0
1, 1540348, Note_on_c, 0, 89, 0
1, 1540348, Note_on_c, 0, 82, 0
1, 1540351, Note_on_c, 0, 75, 103
1, 1540351, Note_on_c, 0, 82, 103
1, 1540351, Note_on_c, 0, 87, 115
1, 1540354, Note_on_c, 0, 41, 0
1, 1540354, Note_on_c, 0, 53, 0
1, 1540354, Note_on_c, 0, 46, 0
1, 1540357, Note_on_c, 0, 42, 90
1, 1540357, Note_on_c, 0, 46, 90
1, 1540357, Note_on_c, 0, 54, 98
1, 1540413, Note_on_c, 0, 75, 0
1, 1540413, Note_on_c, 0, 87, 0
1, 1540413, Note_on_c, 0, 82, 0
1, 1540416, Note_on_c, 0, 42, 0
1, 1540416, Note_on_c, 0, 46, 0
1, 1540416, Note_on_c, 0, 54, 0
1, 1540535, Note_on_c, 0, 73, 103
1, 1540535, Note_on_c, 0, 75, 103
1, 1540535, Note_on_c, 0, 82, 103
1, 1540538, Note_on_c, 0, 85, 115
1, 1540538, Note_on_c, 0, 43, 92
1, 1540538, Note_on_c, 0, 46, 92
1, 1540541, Note_on_c, 0, 55, 100
1, 1540601, Note_on_c, 0, 82, 0
1, 1540601, Note_on_c, 0, 73, 0
1, 1540601, Note_on_c, 0, 75, 0
1, 1540604, Note_on_c, 0, 43, 0
1, 1540604, Note_on_c, 0, 85, 0
1, 1540604, Note_on_c, 0, 46, 0
1, 1540607, Note_on_c, 0, 55, 0
1, 1540722, Note_on_c, 0, 72, 103
1, 1540722, Note_on_c, 0, 75, 103
1, 1540722, Note_on_c, 0, 80, 103
1, 1540725, Note_on_c, 0, 84, 117
1, 1540725, Note_on_c, 0, 44, 94
1, 1540725, Note_on_c, 0, 51, 94
1, 1540728, Note_on_c, 0, 56, 102
1, 1540764, Control_c, 0, 64, 127
1, 1540764, Control_c, 0, 64, 127
1, 1540981, Note_on_c, 0, 80, 0
1, 1540981, Note_on_c, 0, 72, 0
1, 1540981, Note_on_c, 0, 75, 0
1, 1540984, Note_on_c, 0, 84, 0
1, 1540984, Note_on_c, 0, 70, 103
1, 1540984, Note_on_c, 0, 75, 103
1, 1540987, Note_on_c, 0, 44, 0
1, 1540987, Note_on_c, 0, 51, 0
1, 1540987, Note_on_c, 0, 82, 115
1, 1540990, Note_on_c, 0, 56, 0
1, 1540990, Note_on_c, 0, 46, 96
1, 1540990, Note_on_c, 0, 51, 96
1, 1540993, Control_c, 0, 64, 0
1, 1540993, Note_on_c, 0, 58, 105
1, 1540993, Control_c, 0, 64, 0
1, 1541068, Note_on_c, 0, 70, 0
1, 1541068, Note_on_c, 0, 82, 0
1, 1541068, Note_on_c, 0, 75, 0
1, 1541071, Note_on_c, 0, 68, 103
1, 1541071, Note_on_c, 0, 75, 103
1, 1541071, Note_on_c, 0, 80, 115
1, 1541074, Note_on_c, 0, 46, 0
1, 1541074, Note_on_c, 0, 58, 0
1, 1541074, Note_on_c, 0, 51, 0
1, 1541077, Note_on_c, 0, 48, 97
1, 1541077, Note_on_c, 0, 51, 97
1, 1541077, Note_on_c, 0, 60, 106
1, 1541133, Note_on_c, 0, 68, 0
1, 1541133, Note_on_c, 0, 80, 0
1, 1541133, Note_on_c, 0, 75, 0
1, 1541136, Note_on_c, 0, 48, 0
1, 1541136, Note_on_c, 0, 51, 0
1, 1541136, Note_on_c, 0, 60, 0
1, 1541255, Note_on_c, 0, 65, 97
1, 1541255, Note_on_c, 0, 68, 97
1, 1541255, Note_on_c, 0, 77, 109
1, 1541258, Note_on_c, 0, 49, 99
1, 1541258, Note_on_c, 0, 56, 99
1, 1541258, Note_on_c, 0, 61, 108
1, 1541326, Note_on_c, 0, 77, 0
1, 1541326, Note_on_c, 0, 65, 0
1, 1541326, Note_on_c, 0, 68, 0
1, 1541329, Note_on_c, 0, 49, 0
1, 1541329, Note_on_c, 0, 56, 0
1, 1541329, Note_on_c, 0, 61, 0
1, 1541459, Note_on_c, 0, 63, 103
1, 1541459, Note_on_c, 0, 68, 103
1, 1541459, Note_on_c, 0, 75, 115
1, 1541462, Note_on_c, 0, 51, 99
1, 1541462, Note_on_c, 0, 56, 99
1, 1541462, Note_on_c, 0, 60, 108
1, 1541492, Control_c, 0, 64, 127
1, 1541492, Control_c, 0, 64, 127
1, 1541719, Note_on_c, 0, 75, 0
1, 1541719, Note_on_c, 0, 63, 0
1, 1541719, Note_on_c, 0, 68, 0
1, 1541722, Note_on_c, 0, 63, 100
1, 1541722, Note_on_c, 0, 68, 100
1, 1541722, Note_on_c, 0, 75, 112
1, 1541725, Note_on_c, 0, 51, 0
1, 1541725, Note_on_c, 0, 60, 0
1, 1541725, Note_on_c, 0, 56, 0
1, 1541728, Note_on_c, 0, 51, 94
1, 1541728, Note_on_c, 0, 56, 94
1, 1541728, Note_on_c, 0, 60, 102
1, 1541798, Control_c, 0, 64, 0
1, 1541798, Control_c, 0, 64, 0
1, 1541805, Note_on_c, 0, 63, 0
1, 1541805, Note_on_c, 0, 75, 0
1, 1541805, Note_on_c, 0, 68, 0
1, 1541808, Note_on_c, 0, 63, 100
1, 1541808, Note_on_c, 0, 68, 100
1, 1541808, Note_on_c, 0, 75, 111
1, 1541811, Note_on_c, 0, 51, 0
1, 1541811, Note_on_c, 0, 60, 0
1, 1541811, Note_on_c, 0, 56, 0
1, 1541814, Note_on_c, 0, 51, 92
1, 1541814, Note_on_c, 0, 56, 92
1, 1541814, Note_on_c, 0, 60, 101
1, 1541866, Note_on_c, 0, 63, 0
1, 1541866, Note_on_c, 0, 75, 0
1, 1541866, Note_on_c, 0, 68, 0
1, 1541869, Note_on_c, 0, 51, 0
1, 1541869, Note_on_c, 0, 56, 0
1, 1541869, Note_on_c, 0, 60, 0
1, 1542009, Note_on_c, 0, 61, 90
1, 1542009, Note_on_c, 0, 67, 101
1, 1542009, Note_on_c, 0, 51, 89
1, 1542012, Note_on_c, 0, 58, 97
1, 1542077, Note_on_c, 0, 51, 0
1, 1542077, Note_on_c, 0, 61, 0
1, 1542077, Note_on_c, 0, 67, 0
1, 1542080, Note_on_c, 0, 58, 0
1, 1542234, Note_on_c, 0, 60, 89
1, 1542234, Note_on_c, 0, 68, 100
1, 1542234, Note_on_c, 0, 44, 86
1, 1542237, Note_on_c, 0, 51, 86
1, 1542237, Note_on_c, 0, 56, 93
1, 1542683, Note_on_c, 0, 44, 0
1, 1542683, Note_on_c, 0, 60, 0
1, 1542683, Note_on_c, 0, 68, 0
1, 1542686, Note_on_c, 0, 51, 0
1, 1542686, Note_on_c, 0, 56, 0
1, 1542908, Note_on_c, 0, 56, 81
1, 1543132, Note_on_c, 0, 56, 0
1, 1543132, Note_on_c, 0, 53, 88
1, 1543132, Note_on_c, 0, 49, 68
1, 1543281, Control_c, 0, 64, 127
1, 1543281, Control_c, 0, 64, 127
1, 1543357, Note_on_c, 0, 56, 89
1, 1543365, Note_on_c, 0, 53, 0
1, 1543561, Note_on_c, 0, 61, 91
1, 1543569, Note_on_c, 0, 56, 0
1, 1543748, Note_on_c, 0, 63, 92
1, 1543756, Note_on_c, 0, 61, 0
1, 1543766, Control_c, 0, 64, 0
1, 1543766, Control_c, 0, 64, 0
1, 1543936, Note_on_c, 0, 49, 0
1, 1543936, Note_on_c, 0, 65, 93
1, 1543936, Note_on_c, 0, 49, 59
1, 1543939, Note_on_c, 0, 53, 59
1, 1543939, Note_on_c, 0, 56, 68
1, 1543942, Note_on_c, 0, 63, 0
1, 1544016, Control_c, 0, 64, 127
1, 1544016, Control_c, 0, 64, 127
1, 1544195, Note_on_c, 0, 63, 89
1, 1544202, Note_on_c, 0, 65, 0
1, 1544275, Control_c, 0, 64, 0
1, 1544275, Control_c, 0, 64, 0
1, 1544281, Note_on_c, 0, 61, 88
1, 1544289, Note_on_c, 0, 63, 0
1, 1544485, Note_on_c, 0, 61, 0
1, 1544485, Note_on_c, 0, 61, 94
1, 1544673, Note_on_c, 0, 53, 0
1, 1544673, Note_on_c, 0, 49, 0
1, 1544673, Note_on_c, 0, 63, 93
1, 1544676, Note_on_c, 0, 56, 0
1, 1544676, Note_on_c, 0, 54, 70
1, 1544676, Note_on_c, 0, 58, 77
1, 1544682, Note_on_c, 0, 61, 0
1, 1544922, Note_on_c, 0, 61, 89
1, 1544930, Note_on_c, 0, 63, 0
1, 1545126, Note_on_c, 0, 58, 0
1, 1545126, Note_on_c, 0, 60, 85
1, 1545126, Note_on_c, 0, 64, 85
1, 1545134, Note_on_c, 0, 61, 0
1, 1545331, Note_on_c, 0, 58, 81
1, 1545339, Note_on_c, 0, 60, 0
1, 1545555, Note_on_c, 0, 64, 0
1, 1545555, Note_on_c, 0, 54, 0
1, 1545555, Note_on_c, 0, 57, 71
1, 1545558, Note_on_c, 0, 65, 81
1, 1545558, Note_on_c, 0, 53, 63
1, 1545564, Note_on_c, 0, 58, 0
1, 1546005, Note_on_c, 0, 57, 0
1, 1546005, Note_on_c, 0, 65, 0
1, 1546005, Note_on_c, 0, 53, 0
1, 1546008, Note_on_c, 0, 56, 93
1, 1546254, Note_on_c, 0, 68, 88
1, 1546458, Note_on_c, 0, 65, 88
1, 1546458, Note_on_c, 0, 49, 77
1, 1546468, Note_on_c, 0, 68, 0
1, 1546708, Note_on_c, 0, 56, 0
1, 1546708, Note_on_c, 0, 68, 90
1, 1546708, Note_on_c, 0, 56, 84
1, 1546912, Note_on_c, 0, 56, 0
1, 1546912, Note_on_c, 0, 73, 92
1, 1546912, Note_on_c, 0, 53, 86
1, 1546920, Note_on_c, 0, 68, 0
1, 1547099, Note_on_c, 0, 53, 0
1, 1547099, Note_on_c, 0, 75, 93
1, 1547099, Note_on_c, 0, 56, 87
1, 1547107, Note_on_c, 0, 73, 0
1, 1547287, Note_on_c, 0, 65, 0
1, 1547287, Note_on_c, 0, 65, 84
1, 1547287, Note_on_c, 0, 77, 94
1, 1547290, Note_on_c, 0, 56, 0
1, 1547290, Note_on_c, 0, 49, 0
1, 1547290, Note_on_c, 0, 49, 77
1, 1547293, Note_on_c, 0, 75, 0
1, 1547293, Note_on_c, 0, 61, 89
1, 1547474, Note_on_c, 0, 61, 0
1, 1547474, Note_on_c, 0, 63, 90
1, 1547567, Note_on_c, 0, 66, 84
1, 1547567, Note_on_c, 0, 78, 96
1, 1547575, Note_on_c, 0, 65, 0
1, 1547575, Note_on_c, 0, 77, 0
1, 1547661, Note_on_c, 0, 63, 0
1, 1547661, Note_on_c, 0, 67, 84
1, 1547661, Note_on_c, 0, 79, 97
1, 1547664, Note_on_c, 0, 64, 92
1, 1547668, Note_on_c, 0, 66, 0
1, 1547668, Note_on_c, 0, 78, 0
1, 1547848, Note_on_c, 0, 64, 0
1, 1547848, Note_on_c, 0, 68, 84
1, 1547848, Note_on_c, 0, 80, 98
1, 1547851, Note_on_c, 0, 65, 93
1, 1547857, Note_on_c, 0, 79, 0
1, 1547857, Note_on_c, 0, 67, 0
1, 1548073, Note_on_c, 0, 68, 0
1, 1548073, Note_on_c, 0, 80, 0
1, 1548073, Note_on_c, 0, 68, 84
1, 1548076, Note_on_c, 0, 65, 0
1, 1548076, Note_on_c, 0, 49, 0
1, 1548076, Note_on_c, 0, 80, 99
1, 1548079, Note_on_c, 0, 51, 84
1, 1548079, Note_on_c, 0, 63, 92
1, 1548354, Note_on_c, 0, 68, 0
1, 1548354, Note_on_c, 0, 68, 85
1, 1548354, Note_on_c, 0, 75, 94
1, 1548357, Note_on_c, 0, 63, 0
1, 1548357, Note_on_c, 0, 51, 0
1, 1548357, Note_on_c, 0, 51, 80
1, 1548360, Note_on_c, 0, 80, 0
1, 1548360, Note_on_c, 0, 60, 87
1, 1548447, Note_on_c, 0, 68, 0
1, 1548447, Note_on_c, 0, 75, 0
1, 1548447, Note_on_c, 0, 68, 84
1, 1548450, Note_on_c, 0, 51, 0
1, 1548450, Note_on_c, 0, 60, 0
1, 1548450, Note_on_c, 0, 75, 92
1, 1548453, Note_on_c, 0, 51, 79
1, 1548453, Note_on_c, 0, 61, 86
1, 1548509, Note_on_c, 0, 51, 0
1, 1548509, Note_on_c, 0, 68, 0
1, 1548509, Note_on_c, 0, 75, 0
1, 1548512, Note_on_c, 0, 61, 0
1, 1548651, Note_on_c, 0, 67, 81
1, 1548651, Note_on_c, 0, 75, 89
1, 1548651, Note_on_c, 0, 51, 76
1, 1548654, Note_on_c, 0, 61, 83
1, 1548736, Note_on_c, 0, 51, 0
1, 1548736, Note_on_c, 0, 67, 0
1, 1548736, Note_on_c, 0, 75, 0
1, 1548739, Note_on_c, 0, 61, 0
1, 1548932, Note_on_c, 0, 68, 73
1, 1548932, Note_on_c, 0, 75, 80
1, 1548932, Note_on_c, 0, 56, 65
1, 1548935, Note_on_c, 0, 60, 71
1, 1549341, Note_on_c, 0, 56, 0
1, 1549341, Note_on_c, 0, 68, 0
1, 1549341, Note_on_c, 0, 75, 0
1, 1549344, Note_on_c, 0, 60, 0
1, 1549545, Note_on_c, 0, 63, 86
1, 1549545, Note_on_c, 0, 51, 77
1, 1549770, Note_on_c, 0, 59, 89
1, 1549770, Note_on_c, 0, 44, 77
1, 1549770, Note_on_c, 0, 47, 73
1, 1549778, Note_on_c, 0, 51, 0
1, 1549778, Note_on_c, 0, 63, 0
1, 1549906, Control_c, 0, 64, 127
1, 1549906, Control_c, 0, 64, 127
1, 1549974, Note_on_c, 0, 63, 92
1, 1549974, Note_on_c, 0, 51, 73
1, 1549981, Note_on_c, 0, 47, 0
1, 1549981, Note_on_c, 0, 59, 0
1, 1550161, Note_on_c, 0, 68, 90
1, 1550161, Note_on_c, 0, 56, 73
1, 1550168, Note_on_c, 0, 51, 0
1, 1550168, Note_on_c, 0, 63, 0
1, 1550334, Note_on_c, 0, 70, 93
1, 1550334, Note_on_c, 0, 58, 73
1, 1550342, Note_on_c, 0, 56, 0
1, 1550342, Note_on_c, 0, 68, 0
1, 1550347, Control_c, 0, 64, 0
1, 1550347, Control_c, 0, 64, 0
1, 1550538, Note_on_c, 0, 71, 95
1, 1550538, Note_on_c, 0, 59, 67
1, 1550538, Note_on_c, 0, 39, 81
1, 1550545, Note_on_c, 0, 44, 0
1, 1550545, Note_on_c, 0, 58, 0
1, 1550545, Note_on_c, 0, 70, 0
1, 1550638, Control_c, 0, 64, 127
1, 1550638, Control_c, 0, 64, 127
1, 1550819, Note_on_c, 0, 66, 92
1, 1550819, Note_on_c, 0, 54, 74
1, 1550826, Note_on_c, 0, 71, 0
1, 1550826, Note_on_c, 0, 59, 0
1, 1550905, Note_on_c, 0, 63, 87
1, 1550905, Note_on_c, 0, 51, 74
1, 1550912, Note_on_c, 0, 54, 0
1, 1550912, Note_on_c, 0, 66, 0
1, 1551078, Note_on_c, 0, 67, 90
1, 1551078, Note_on_c, 0, 55, 67
1, 1551086, Note_on_c, 0, 51, 0
1, 1551086, Note_on_c, 0, 63, 0
1, 1551105, Control_c, 0, 64, 0
1, 1551105, Control_c, 0, 64, 0
1, 1551282, Note_on_c, 0, 68, 89
1, 1551282, Note_on_c, 0, 56, 80
1, 1551282, Note_on_c, 0, 40, 85
1, 1551290, Note_on_c, 0, 39, 0
1, 1551290, Note_on_c, 0, 55, 0
1, 1551290, Note_on_c, 0, 67, 0
1, 1551391, Control_c, 0, 64, 127
1, 1551391, Control_c, 0, 64, 127
1, 1551486, Note_on_c, 0, 64, 94
1, 1551486, Note_on_c, 0, 52, 85
1, 1551493, Note_on_c, 0, 68, 0
1, 1551493, Note_on_c, 0, 56, 0
1, 1551659, Note_on_c, 0, 61, 91
1, 1551659, Note_on_c, 0, 49, 82
1, 1551666, Note_on_c, 0, 52, 0
1, 1551666, Note_on_c, 0, 64, 0
1, 1551832, Note_on_c, 0, 59, 91
1, 1551832, Note_on_c, 0, 47, 77
1, 1551839, Note_on_c, 0, 49, 0
1, 1551839, Note_on_c, 0, 61, 0
1, 1551856, Control_c, 0, 64, 0
1, 1551856, Control_c, 0, 64, 0
1, 1552005, Note_on_c, 0, 58, 91
1, 1552005, Note_on_c, 0, 42, 76
1, 1552005, Note_on_c, 0, 46, 77
1, 1552012, Note_on_c, 0, 40, 0
1, 1552012, Note_on_c, 0, 47, 0
1, 1552012, Note_on_c, 0, 59, 0
1, 1552108, Control_c, 0, 64, 127
1, 1552108, Control_c, 0, 64, 127
1, 1552286, Note_on_c, 0, 61, 91
1, 1552286, Note_on_c, 0, 49, 82
1, 1552293, Note_on_c, 0, 58, 0
1, 1552293, Note_on_c, 0, 46, 0
1, 1552379, Note_on_c, 0, 66, 93
1, 1552379, Note_on_c, 0, 54, 84
1, 1552387, Note_on_c, 0, 61, 0
1, 1552387, Note_on_c, 0, 49, 0
1, 1552490, Control_c, 0, 64, 0
1, 1552490, Control_c, 0, 64, 0
1, 1552583, Note_on_c, 0, 64, 93
1, 1552583, Note_on_c, 0, 52, 84
1, 1552591, Note_on_c, 0, 66, 0
1, 1552591, Note_on_c, 0, 54, 0
1, 1552788, Note_on_c, 0, 63, 91
1, 1552788, Note_on_c, 0, 51, 82
1, 1552788, Note_on_c, 0, 43, 94
1, 1552796, Note_on_c, 0, 64, 0
1, 1552796, Note_on_c, 0, 52, 0
1, 1552796, Note_on_c, 0, 42, 0
1, 1552878, Control_c, 0, 64, 127
1, 1552878, Control_c, 0, 64, 127
1, 1552992, Note_on_c, 0, 67, 96
1, 1552992, Note_on_c, 0, 55, 87
1, 1552999, Note_on_c, 0, 63, 0
1, 1552999, Note_on_c, 0, 51, 0
1, 1553165, Note_on_c, 0, 70, 101
1, 1553165, Note_on_c, 0, 58, 92
1, 1553171, Note_on_c, 0, 55, 0
1, 1553171, Note_on_c, 0, 67, 0
1, 1553337, Note_on_c, 0, 75, 106
1, 1553337, Note_on_c, 0, 63, 97
1, 1553344, Note_on_c, 0, 58, 0
1, 1553344, Note_on_c, 0, 70, 0
1, 1553507, Control_c, 0, 64, 0
1, 1553507, Control_c, 0, 64, 0
1, 1553510, Note_on_c, 0, 72, 102
1, 1553510, Note_on_c, 0, 44, 89
1, 1553510, Note_on_c, 0, 51, 80
1, 1553513, Note_on_c, 0, 56, 80
1, 1553513, Note_on_c, 0, 60, 93
1, 1553517, Note_on_c, 0, 43, 0
1, 1553517, Note_on_c, 0, 63, 0
1, 1553517, Note_on_c, 0, 75, 0
1, 1553606, Control_c, 0, 64, 127
1, 1553606, Control_c, 0, 64, 127
1, 1553769, Note_on_c, 0, 70, 104
1, 1553769, Note_on_c, 0, 58, 95
1, 1553776, Note_on_c, 0, 72, 0
1, 1553776, Note_on_c, 0, 60, 0
1, 1553856, Note_on_c, 0, 44, 0
1, 1553856, Note_on_c, 0, 51, 0
1, 1553856, Note_on_c, 0, 68, 98
1, 1553859, Note_on_c, 0, 56, 0
1, 1553859, Note_on_c, 0, 56, 89
1, 1553863, Note_on_c, 0, 70, 0
1, 1553863, Note_on_c, 0, 58, 0
1, 1554029, Note_on_c, 0, 70, 106
1, 1554029, Note_on_c, 0, 58, 97
1, 1554035, Note_on_c, 0, 68, 0
1, 1554035, Note_on_c, 0, 56, 0
1, 1554041, Control_c, 0, 64, 0
1, 1554041, Control_c, 0, 64, 0
1, 1554201, Note_on_c, 0, 68, 105
1, 1554201, Note_on_c, 0, 56, 96
1, 1554201, Note_on_c, 0, 53, 102
1, 1554208, Note_on_c, 0, 70, 0
1, 1554208, Note_on_c, 0, 58, 0
1, 1554301, Control_c, 0, 64, 127
1, 1554301, Control_c, 0, 64, 127
1, 1554374, Note_on_c, 0, 73, 109
1, 1554374, Note_on_c, 0, 61, 100
1, 1554381, Note_on_c, 0, 56, 0
1, 1554381, Note_on_c, 0, 68, 0
1, 1554547, Note_on_c, 0, 77, 112
1, 1554547, Note_on_c, 0, 65, 103
1, 1554554, Note_on_c, 0, 61, 0
1, 1554554, Note_on_c, 0, 73, 0
1, 1554720, Note_on_c, 0, 80, 116
1, 1554720, Note_on_c, 0, 68, 107
1, 1554727, Note_on_c, 0, 65, 0
1, 1554727, Note_on_c, 0, 77, 0
1, 1554893, Note_on_c, 0, 82, 117
1, 1554893, Note_on_c, 0, 70, 110
1, 1554899, Note_on_c, 0, 68, 0
1, 1554899, Note_on_c, 0, 80, 0
1, 1555152, Note_on_c, 0, 80, 114
1, 1555152, Note_on_c, 0, 68, 105
1, 1555159, Note_on_c, 0, 70, 0
1, 1555159, Note_on_c, 0, 82, 0
1, 1555238, Note_on_c, 0, 53, 0
1, 1555238, Note_on_c, 0, 77, 107
1, 1555238, Note_on_c, 0, 65, 98
1, 1555241, Control_c, 0, 64, 0
1, 1555241, Control_c, 0, 64, 0
1, 1555246, Note_on_c, 0, 68, 0
1, 1555246, Note_on_c, 0, 80, 0
1, 1555442, Note_on_c, 0, 77, 0
1, 1555442, Note_on_c, 0, 68, 108
1, 1555442, Note_on_c, 0, 73, 108
1, 1555445, Note_on_c, 0, 65, 0
1, 1555445, Note_on_c, 0, 77, 108
1, 1555445, Note_on_c, 0, 80, 117
1, 1555448, Note_on_c, 0, 56, 99
1, 1555448, Note_on_c, 0, 61, 99
1, 1555448, Note_on_c, 0, 65, 99
1, 1555451, Note_on_c, 0, 68, 111
1, 1555510, Note_on_c, 0, 77, 0
1, 1555510, Note_on_c, 0, 68, 0
1, 1555510, Note_on_c, 0, 73, 0
1, 1555513, Note_on_c, 0, 80, 0
1, 1555513, Note_on_c, 0, 56, 0
1, 1555513, Note_on_c, 0, 61, 0
1, 1555516, Note_on_c, 0, 68, 0
1, 1555516, Note_on_c, 0, 65, 0
1, 1555667, Note_on_c, 0, 65, 102
1, 1555667, Note_on_c, 0, 68, 90
1, 1555667, Note_on_c, 0, 73, 102
1, 1555670, Note_on_c, 0, 77, 116
1, 1555670, Note_on_c, 0, 49, 111
1, 1555670, Note_on_c, 0, 61, 99
1, 1555746, Control_c, 0, 64, 127
1, 1555746, Control_c, 0, 64, 127
1, 1555926, Note_on_c, 0, 73, 0
1, 1555926, Note_on_c, 0, 65, 0
1, 1555926, Note_on_c, 0, 68, 0
1, 1555929, Note_on_c, 0, 77, 0
1, 1555929, Note_on_c, 0, 68, 98
1, 1555929, Note_on_c, 0, 72, 95
1, 1555932, Note_on_c, 0, 49, 0
1, 1555932, Note_on_c, 0, 75, 98
1, 1555932, Note_on_c, 0, 80, 114
1, 1555935, Note_on_c, 0, 61, 0
1, 1555935, Note_on_c, 0, 44, 117
1, 1555935, Note_on_c, 0, 56, 104
1, 1556013, Note_on_c, 0, 75, 0
1, 1556013, Note_on_c, 0, 72, 0
1, 1556013, Note_on_c, 0, 68, 0
1, 1556016, Note_on_c, 0, 80, 0
1, 1556016, Note_on_c, 0, 73, 100
1, 1556016, Note_on_c, 0, 77, 100
1, 1556019, Note_on_c, 0, 44, 0
1, 1556019, Note_on_c, 0, 80, 96
1, 1556019, Note_on_c, 0, 85, 116
1, 1556022, Note_on_c, 0, 56, 0
1, 1556022, Note_on_c, 0, 37, 117
1, 1556022, Note_on_c, 0, 49, 106
1, 1556025, Control_c, 0, 64, 0
1, 1556025, Control_c, 0, 64, 0
1, 1556069, Note_on_c, 0, 80, 0
1, 1556069, Note_on_c, 0, 77, 0
1, 1556069, Note_on_c, 0, 73, 0
1, 1556072, Note_on_c, 0, 85, 0
1, 1556078, Note_on_c, 0, 37, 0
1, 1556078, Note_on_c, 0, 49, 0
1, 1556200, Note_on_c, 0, 75, 103
1, 1556200, Note_on_c, 0, 80, 103
1, 1556200, Note_on_c, 0, 84, 103
1, 1556203, Note_on_c, 0, 87, 117
1, 1556203, Note_on_c, 0, 32, 117
1, 1556203, Note_on_c, 0, 44, 109
1, 1556256, Note_on_c, 0, 84, 0
1, 1556256, Note_on_c, 0, 75, 0
1, 1556256, Note_on_c, 0, 80, 0
1, 1556259, Note_on_c, 0, 87, 0
1, 1556265, Note_on_c, 0, 32, 0
1, 1556265, Note_on_c, 0, 44, 0
1, 1556387, Note_on_c, 0, 77, 106
1, 1556387, Note_on_c, 0, 80, 106
1, 1556387, Note_on_c, 0, 85, 106
1, 1556390, Note_on_c, 0, 89, 117
1, 1556390, Note_on_c, 0, 25, 117
1, 1556390, Note_on_c, 0, 37, 112
1, 1556434, Control_c, 0, 64, 127
1, 1556434, Control_c, 0, 64, 127
1, 1556668, Note_on_c, 0, 85, 0
1, 1556668, Note_on_c, 0, 77, 0
1, 1556668, Note_on_c, 0, 80, 0
1, 1556671, Note_on_c, 0, 89, 0
1, 1556671, Note_on_c, 0, 75, 96
1, 1556671, Note_on_c, 0, 87, 111
1, 1556754, Note_on_c, 0, 87, 0
1, 1556754, Note_on_c, 0, 75, 0
1, 1556754, Note_on_c, 0, 73, 96
1, 1556757, Note_on_c, 0, 25, 0
1, 1556757, Note_on_c, 0, 37, 0
1, 1556757, Note_on_c, 0, 85, 111
1, 1556769, Control_c, 0, 64, 0
1, 1556769, Control_c, 0, 64, 0
1, 1556806, Note_on_c, 0, 85, 0
1, 1556806, Note_on_c, 0, 73, 0
1, 1556927, Note_on_c, 0, 72, 96
1, 1556927, Note_on_c, 0, 77, 96
1, 1556927, Note_on_c, 0, 81, 96
1, 1556930, Note_on_c, 0, 84, 111
1, 1556930, Note_on_c, 0, 53, 98
1, 1556930, Note_on_c, 0, 65, 87
1, 1556983, Note_on_c, 0, 81, 0
1, 1556983, Note_on_c, 0, 72, 0
1, 1556983, Note_on_c, 0, 77, 0
1, 1556986, Note_on_c, 0, 84, 0
1, 1556986, Note_on_c, 0, 53, 0
1, 1556986, Note_on_c, 0, 65, 0
1, 1557114, Note_on_c, 0, 73, 107
1, 1557114, Note_on_c, 0, 77, 107
1, 1557114, Note_on_c, 0, 82, 107
1, 1557117, Note_on_c, 0, 85, 117
1, 1557117, Note_on_c, 0, 58, 100
1, 1557117, Note_on_c, 0, 65, 89
1, 1557173, Control_c, 0, 64, 127
1, 1557173, Control_c, 0, 64, 127
1, 1557374, Note_on_c, 0, 82, 0
1, 1557374, Note_on_c, 0, 73, 0
1, 1557374, Note_on_c, 0, 77, 0
1, 1557377, Note_on_c, 0, 85, 0
1, 1557377, Note_on_c, 0, 72, 96
1, 1557377, Note_on_c, 0, 77, 96
1, 1557380, Note_on_c, 0, 58, 0
1, 1557380, Note_on_c, 0, 81, 96
1, 1557380, Note_on_c, 0, 84, 111
1, 1557383, Note_on_c, 0, 65, 0
1, 1557383, Note_on_c, 0, 53, 102
1, 1557383, Note_on_c, 0, 65, 91
1, 1557460, Note_on_c, 0, 81, 0
1, 1557460, Note_on_c, 0, 77, 0
1, 1557460, Note_on_c, 0, 72, 0
1, 1557463, Note_on_c, 0, 84, 0
1, 1557463, Note_on_c, 0, 73, 96
1, 1557463, Note_on_c, 0, 77, 96
1, 1557466, Note_on_c, 0, 53, 0
1, 1557466, Note_on_c, 0, 82, 96
1, 1557466, Note_on_c, 0, 85, 111
1, 1557469, Note_on_c, 0, 65, 0
1, 1557469, Control_c, 0, 64, 0
1, 1557469, Note_on_c, 0, 58, 103
1, 1557469, Note_on_c, 0, 65, 91
1, 1557469, Control_c, 0, 64, 0
1, 1557516, Note_on_c, 0, 82, 0
1, 1557516, Note_on_c, 0, 77, 0
1, 1557516, Note_on_c, 0, 73, 0
1, 1557519, Note_on_c, 0, 85, 0
1, 1557519, Note_on_c, 0, 58, 0
1, 1557519, Note_on_c, 0, 65, 0
1, 1557647, Note_on_c, 0, 72, 90
1, 1557647, Note_on_c, 0, 77, 90
1, 1557647, Note_on_c, 0, 81, 90
1, 1557650, Note_on_c, 0, 84, 112
1, 1557650, Note_on_c, 0, 53, 104
1, 1557650, Note_on_c, 0, 65, 93
1, 1557709, Note_on_c, 0, 81, 0
1, 1557709, Note_on_c, 0, 72, 0
1, 1557709, Note_on_c, 0, 77, 0
1, 1557712, Note_on_c, 0, 84, 0
1, 1557712, Note_on_c, 0, 53, 0
1, 1557712, Note_on_c, 0, 65, 0
1, 1557851, Note_on_c, 0, 73, 100
1, 1557851, Note_on_c, 0, 77, 100
1, 1557851, Note_on_c, 0, 82, 100
1, 1557854, Note_on_c, 0, 85, 115
1, 1557854, Note_on_c, 0, 58, 106
1, 1557854, Note_on_c, 0, 65, 94
1, 1557917, Control_c, 0, 64, 127
1, 1557917, Control_c, 0, 64, 127
1, 1558231, Control_c, 0, 64, 0
1, 1558231, Control_c, 0, 64, 0
1, 1558260, Note_on_c, 0, 82, 0
1, 1558260, Note_on_c, 0, 73, 0
1, 1558260, Note_on_c, 0, 77, 0
1, 1558263, Note_on_c, 0, 85, 0
1, 1558263, Note_on_c, 0, 58, 0
1, 1558263, Note_on_c, 0, 65, 0
1, 1558374, Note_on_c, 0, 34, 92
1, 1558464, Note_on_c, 0, 80, 89
1, 1558464, Note_on_c, 0, 82, 89
1, 1558464, Note_on_c, 0, 89, 89
1, 1558467, Note_on_c, 0, 92, 104
1, 1558467, Note_on_c, 0, 53, 101
1, 1558543, Note_on_c, 0, 89, 0
1, 1558543, Note_on_c, 0, 82, 0
1, 1558543, Note_on_c, 0, 80, 0
1, 1558546, Note_on_c, 0, 34, 0
1, 1558546, Note_on_c, 0, 92, 0
1, 1558546, Note_on_c, 0, 53, 0
1, 1558689, Note_on_c, 0, 78, 89
1, 1558689, Note_on_c, 0, 82, 89
1, 1558689, Note_on_c, 0, 87, 89
1, 1558692, Note_on_c, 0, 90, 101
1, 1558692, Note_on_c, 0, 39, 78
1, 1558692, Note_on_c, 0, 54, 85
1, 1558760, Note_on_c, 0, 87, 0
1, 1558760, Note_on_c, 0, 78, 0
1, 1558760, Note_on_c, 0, 82, 0
1, 1558763, Note_on_c, 0, 90, 0
1, 1558763, Note_on_c, 0, 39, 0
1, 1558763, Note_on_c, 0, 54, 0
1, 1558893, Note_on_c, 0, 77, 90
1, 1558893, Note_on_c, 0, 85, 90
1, 1558893, Note_on_c, 0, 89, 103
1, 1558896, Note_on_c, 0, 41, 79
1, 1558896, Note_on_c, 0, 56, 86
1, 1558958, Note_on_c, 0, 89, 0
1, 1558958, Note_on_c, 0, 77, 0
1, 1558958, Note_on_c, 0, 85, 0
1, 1558961, Note_on_c, 0, 41, 0
1, 1558961, Note_on_c, 0, 56, 0
1, 1559080, Note_on_c, 0, 75, 92
1, 1559080, Note_on_c, 0, 84, 92
1, 1559080, Note_on_c, 0, 87, 105
1, 1559083, Note_on_c, 0, 42, 82
1, 1559083, Note_on_c, 0, 57, 89
1, 1559140, Note_on_c, 0, 87, 0
1, 1559140, Note_on_c, 0, 75, 0
1, 1559140, Note_on_c, 0, 84, 0
1, 1559143, Note_on_c, 0, 42, 0
1, 1559143, Note_on_c, 0, 57, 0
1, 1559253, Note_on_c, 0, 73, 94
1, 1559253, Note_on_c, 0, 82, 94
1, 1559253, Note_on_c, 0, 85, 107
1, 1559256, Note_on_c, 0, 43, 84
1, 1559256, Note_on_c, 0, 58, 91
1, 1559313, Note_on_c, 0, 85, 0
1, 1559313, Note_on_c, 0, 73, 0
1, 1559313, Note_on_c, 0, 82, 0
1, 1559316, Note_on_c, 0, 43, 0
1, 1559316, Note_on_c, 0, 58, 0
1, 1559350, Note_on_c, 0, 44, 86
1, 1559426, Note_on_c, 0, 72, 95
1, 1559426, Note_on_c, 0, 80, 95
1, 1559426, Note_on_c, 0, 84, 109
1, 1559429, Note_on_c, 0, 60, 93
1, 1559486, Note_on_c, 0, 84, 0
1, 1559486, Note_on_c, 0, 80, 0
1, 1559486, Note_on_c, 0, 72, 0
1, 1559489, Note_on_c, 0, 44, 0
1, 1559489, Note_on_c, 0, 60, 0
1, 1559598, Note_on_c, 0, 70, 96
1, 1559598, Note_on_c, 0, 78, 96
1, 1559598, Note_on_c, 0, 82, 110
1, 1559601, Note_on_c, 0, 46, 89
1, 1559601, Note_on_c, 0, 61, 96
1, 1559659, Note_on_c, 0, 82, 0
1, 1559659, Note_on_c, 0, 70, 0
1, 1559659, Note_on_c, 0, 78, 0
1, 1559662, Note_on_c, 0, 46, 0
1, 1559662, Note_on_c, 0, 61, 0
1, 1559771, Note_on_c, 0, 68, 98
1, 1559771, Note_on_c, 0, 77, 98
1, 1559771, Note_on_c, 0, 80, 113
1, 1559774, Note_on_c, 0, 47, 92
1, 1559774, Note_on_c, 0, 62, 99
1, 1559832, Note_on_c, 0, 80, 0
1, 1559832, Note_on_c, 0, 68, 0
1, 1559832, Note_on_c, 0, 77, 0
1, 1559835, Note_on_c, 0, 47, 0
1, 1559835, Note_on_c, 0, 62, 0
1, 1559944, Note_on_c, 0, 66, 100
1, 1559944, Note_on_c, 0, 75, 100
1, 1559944, Note_on_c, 0, 78, 114
1, 1559947, Note_on_c, 0, 48, 94
1, 1559947, Note_on_c, 0, 63, 101
1, 1560010, Note_on_c, 0, 78, 0
1, 1560010, Note_on_c, 0, 66, 0
1, 1560010, Note_on_c, 0, 75, 0
1, 1560013, Note_on_c, 0, 48, 0
1, 1560013, Note_on_c, 0, 63, 0
1, 1560131, Note_on_c, 0, 65, 101
1, 1560131, Note_on_c, 0, 73, 101
1, 1560131, Note_on_c, 0, 77, 116
1, 1560134, Note_on_c, 0, 49, 94
1, 1560134, Note_on_c, 0, 61, 103
1, 1560188, Note_on_c, 0, 77, 0
1, 1560188, Note_on_c, 0, 65, 0
1, 1560188, Note_on_c, 0, 73, 0
1, 1560197, Note_on_c, 0, 49, 0
1, 1560197, Note_on_c, 0, 61, 0
1, 1560318, Note_on_c, 0, 70, 101
1, 1560318, Note_on_c, 0, 73, 101
1, 1560318, Note_on_c, 0, 82, 116
1, 1560321, Note_on_c, 0, 54, 96
1, 1560321, Note_on_c, 0, 66, 105
1, 1560375, Note_on_c, 0, 82, 0
1, 1560375, Note_on_c, 0, 70, 0
1, 1560375, Note_on_c, 0, 73, 0
1, 1560384, Note_on_c, 0, 54, 0
1, 1560384, Note_on_c, 0, 66, 0
1, 1560506, Note_on_c, 0, 68, 101
1, 1560506, Note_on_c, 0, 73, 101
1, 1560506, Note_on_c, 0, 80, 116
1, 1560509, Note_on_c, 0, 56, 98
1, 1560509, Note_on_c, 0, 65, 107
1, 1560567, Note_on_c, 0, 80, 0
1, 1560567, Note_on_c, 0, 68, 0
1, 1560567, Note_on_c, 0, 73, 0
1, 1560577, Note_on_c, 0, 56, 0
1, 1560577, Note_on_c, 0, 65, 0
1, 1560710, Note_on_c, 0, 66, 94
1, 1560710, Note_on_c, 0, 68, 94
1, 1560710, Note_on_c, 0, 72, 108
1, 1560713, Note_on_c, 0, 56, 99
1, 1560713, Note_on_c, 0, 63, 108
1, 1560785, Note_on_c, 0, 72, 0
1, 1560785, Note_on_c, 0, 66, 0
1, 1560785, Note_on_c, 0, 68, 0
1, 1560797, Note_on_c, 0, 56, 0
1, 1560797, Note_on_c, 0, 63, 0
1, 1560959, Note_on_c, 0, 65, 87
1, 1560959, Note_on_c, 0, 68, 87
1, 1560959, Note_on_c, 0, 73, 99
1, 1560962, Note_on_c, 0, 49, 85
1, 1560962, Note_on_c, 0, 56, 85
1, 1560962, Note_on_c, 0, 61, 94
1, 1561459, Note_on_c, 0, 73, 0
1, 1561459, Note_on_c, 0, 65, 0
1, 1561459, Note_on_c, 0, 68, 0
1, 1561462, Note_on_c, 0, 49, 0
1, 1561462, Note_on_c, 0, 56, 0
1, 1561462, Note_on_c, 0, 61, 0
1, 1561708, Note_on_c, 0, 63, 86
1, 1561708, Note_on_c, 0, 51, 77
1, 1561933, Note_on_c, 0, 59, 89
1, 1561933, Note_on_c, 0, 44, 77
1, 1561933, Note_on_c, 0, 47, 73
1, 1561941, Note_on_c, 0, 51, 0
1, 1561941, Note_on_c, 0, 63, 0
1, 1562069, Control_c, 0, 64, 127
1, 1562069, Control_c, 0, 64, 127
1, 1562137, Note_on_c, 0, 63, 92
1, 1562137, Note_on_c, 0, 51, 73
1, 1562144, Note_on_c, 0, 47, 0
1, 1562144, Note_on_c, 0, 59, 0
1, 1562324, Note_on_c, 0, 68, 90
1, 1562324, Note_on_c, 0, 56, 73
1, 1562331, Note_on_c, 0, 51, 0
1, 1562331, Note_on_c, 0, 63, 0
1, 1562497, Note_on_c, 0, 70, 93
1, 1562497, Note_on_c, 0, 58, 73
1, 1562505, Note_on_c, 0, 56, 0
1, 1562505, Note_on_c, 0, 68, 0
1, 1562511, Control_c, 0, 64, 0
1, 1562511, Control_c, 0, 64, 0
1, 1562701, Note_on_c, 0, 71, 95
1, 1562701, Note_on_c, 0, 59, 67
1, 1562701, Note_on_c, 0, 39, 81
1, 1562709, Note_on_c, 0, 44, 0
1, 1562709, Note_on_c, 0, 58, 0
1, 1562709, Note_on_c, 0, 70, 0
1, 1562801, Control_c, 0, 64, 127
1, 1562801, Control_c, 0, 64, 127
1, 1562982, Note_on_c, 0, 66, 92
1, 1562982, Note_on_c, 0, 54, 74
1, 1562989, Note_on_c, 0, 71, 0
1, 1562989, Note_on_c, 0, 59, 0
1, 1563069, Note_on_c, 0, 63, 87
1, 1563069, Note_on_c, 0, 51, 74
1, 1563075, Note_on_c, 0, 54, 0
1, 1563075, Note_on_c, 0, 66, 0
1, 1563241, Note_on_c, 0, 67, 90
1, 1563241, Note_on_c, 0, 55, 67
1, 1563249, Note_on_c, 0, 51, 0
1, 1563249, Note_on_c, 0, 63, 0
1, 1563268, Control_c, 0, 64, 0
1, 1563268, Control_c, 0, 64, 0
1, 1563446, Note_on_c, 0, 68, 89
1, 1563446, Note_on_c, 0, 56, 80
1, 1563446, Note_on_c, 0, 40, 85
1, 1563454, Note_on_c, 0, 39, 0
1, 1563454, Note_on_c, 0, 55, 0
1, 1563454, Note_on_c, 0, 67, 0
1, 1563554, Control_c, 0, 64, 127
1, 1563554, Control_c, 0, 64, 127
1, 1563650, Note_on_c, 0, 64, 94
1, 1563650, Note_on_c, 0, 52, 85
1, 1563657, Note_on_c, 0, 68, 0
1, 1563657, Note_on_c, 0, 56, 0
1, 1563823, Note_on_c, 0, 61, 91
1, 1563823, Note_on_c, 0, 49, 82
1, 1563829, Note_on_c, 0, 52, 0
1, 1563829, Note_on_c, 0, 64, 0
1, 1563995, Note_on_c, 0, 59, 91
1, 1563995, Note_on_c, 0, 47, 77
1, 1564002, Note_on_c, 0, 49, 0
1, 1564002, Note_on_c, 0, 61, 0
1, 1564019, Control_c, 0, 64, 0
1, 1564019, Control_c, 0, 64, 0
1, 1564168, Note_on_c, 0, 58, 91
1, 1564168, Note_on_c, 0, 42, 76
1, 1564168, Note_on_c, 0, 46, 77
1, 1564175, Note_on_c, 0, 40, 0
1, 1564175, Note_on_c, 0, 47, 0
1, 1564175, Note_on_c, 0, 59, 0
1, 1564272, Control_c, 0, 64, 127
1, 1564272, Control_c, 0, 64, 127
1, 1564449, Note_on_c, 0, 61, 91
1, 1564449, Note_on_c, 0, 49, 82
1, 1564456, Note_on_c, 0, 58, 0
1, 1564456, Note_on_c, 0, 46, 0
1, 1564543, Note_on_c, 0, 66, 93
1, 1564543, Note_on_c, 0, 54, 84
1, 1564551, Note_on_c, 0, 61, 0
1, 1564551, Note_on_c, 0, 49, 0
1, 1564653, Control_c, 0, 64, 0
1, 1564653, Control_c, 0, 64, 0
1, 1564747, Note_on_c, 0, 64, 93
1, 1564747, Note_on_c, 0, 52, 84
1, 1564755, Note_on_c, 0, 66, 0
1, 1564755, Note_on_c, 0, 54, 0
1, 1564951, Note_on_c, 0, 63, 91
1, 1564951, Note_on_c, 0, 51, 82
1, 1564951, Note_on_c, 0, 43, 94
1, 1564959, Note_on_c, 0, 64, 0
1, 1564959, Note_on_c, 0, 52, 0
1, 1564959, Note_on_c, 0, 42, 0
1, 1565041, Control_c, 0, 64, 127
1, 1565041, Control_c, 0, 64, 127
1, 1565155, Note_on_c, 0, 67, 96
1, 1565155, Note_on_c, 0, 55, 87
1, 1565162, Note_on_c, 0, 63, 0
1, 1565162, Note_on_c, 0, 51, 0
1, 1565328, Note_on_c, 0, 70, 101
1, 1565328, Note_on_c, 0, 58, 92
1, 1565335, Note_on_c, 0, 55, 0
1, 1565335, Note_on_c, 0, 67, 0
1, 1565501, Note_on_c, 0, 75, 106
1, 1565501, Note_on_c, 0, 63, 97
1, 1565508, Note_on_c, 0, 58, 0
1, 1565508, Note_on_c, 0, 70, 0
1, 1565670, Control_c, 0, 64, 0
1, 1565670, Control_c, 0, 64, 0
1, 1565674, Note_on_c, 0, 72, 102
1, 1565674, Note_on_c, 0, 44, 89
1, 1565674, Note_on_c, 0, 51, 80
1, 1565677, Note_on_c, 0, 56, 80
1, 1565677, Note_on_c, 0, 60, 93
1, 1565680, Note_on_c, 0, 43, 0
1, 1565680, Note_on_c, 0, 63, 0
1, 1565680, Note_on_c, 0, 75, 0
1, 1565769, Control_c, 0, 64, 127
1, 1565769, Control_c, 0, 64, 127
1, 1565933, Note_on_c, 0, 70, 104
1, 1565933, Note_on_c, 0, 58, 95
1, 1565940, Note_on_c, 0, 72, 0
1, 1565940, Note_on_c, 0, 60, 0
1, 1566019, Note_on_c, 0, 44, 0
1, 1566019, Note_on_c, 0, 51, 0
1, 1566019, Note_on_c, 0, 68, 98
1, 1566022, Note_on_c, 0, 56, 0
1, 1566022, Note_on_c, 0, 56, 89
1, 1566026, Note_on_c, 0, 70, 0
1, 1566026, Note_on_c, 0, 58, 0
1, 1566192, Note_on_c, 0, 70, 106
1, 1566192, Note_on_c, 0, 58, 97
1, 1566199, Note_on_c, 0, 68, 0
1, 1566199, Note_on_c, 0, 56, 0
1, 1566205, Control_c, 0, 64, 0
1, 1566205, Control_c, 0, 64, 0
1, 1566365, Note_on_c, 0, 68, 105
1, 1566365, Note_on_c, 0, 56, 96
1, 1566365, Note_on_c, 0, 53, 102
1, 1566372, Note_on_c, 0, 70, 0
1, 1566372, Note_on_c, 0, 58, 0
1, 1566464, Control_c, 0, 64, 127
1, 1566464, Control_c, 0, 64, 127
1, 1566538, Note_on_c, 0, 73, 109
1, 1566538, Note_on_c, 0, 61, 100
1, 1566544, Note_on_c, 0, 56, 0
1, 1566544, Note_on_c, 0, 68, 0
1, 1566710, Note_on_c, 0, 77, 112
1, 1566710, Note_on_c, 0, 65, 103
1, 1566717, Note_on_c, 0, 61, 0
1, 1566717, Note_on_c, 0, 73, 0
1, 1566883, Note_on_c, 0, 80, 116
1, 1566883, Note_on_c, 0, 68, 107
1, 1566890, Note_on_c, 0, 65, 0
1, 1566890, Note_on_c, 0, 77, 0
1, 1567056, Note_on_c, 0, 82, 117
1, 1567056, Note_on_c, 0, 70, 110
1, 1567063, Note_on_c, 0, 68, 0
1, 1567063, Note_on_c, 0, 80, 0
1, 1567315, Note_on_c, 0, 80, 114
1, 1567315, Note_on_c, 0, 68, 105
1, 1567322, Note_on_c, 0, 70, 0
1, 1567322, Note_on_c, 0, 82, 0
1, 1567402, Note_on_c, 0, 53, 0
1, 1567402, Note_on_c, 0, 77, 107
1, 1567402, Control_c, 0, 64, 0
1, 1567402, Note_on_c, 0, 65, 98
1, 1567402, Control_c, 0, 64, 0
1, 1567410, Note_on_c, 0, 68, 0
1, 1567410, Note_on_c, 0, 80, 0
1, 1567606, Note_on_c, 0, 77, 0
1, 1567606, Note_on_c, 0, 68, 108
1, 1567606, Note_on_c, 0, 73, 108
1, 1567609, Note_on_c, 0, 65, 0
1, 1567609, Note_on_c, 0, 77, 108
1, 1567609, Note_on_c, 0, 80, 117
1, 1567612, Note_on_c, 0, 56, 99
1, 1567612, Note_on_c, 0, 61, 99
1, 1567612, Note_on_c, 0, 65, 99
1, 1567615, Note_on_c, 0, 68, 111
1, 1567673, Note_on_c, 0, 77, 0
1, 1567673, Note_on_c, 0, 68, 0
1, 1567673, Note_on_c, 0, 73, 0
1, 1567676, Note_on_c, 0, 80, 0
1, 1567676, Note_on_c, 0, 56, 0
1, 1567676, Note_on_c, 0, 61, 0
1, 1567679, Note_on_c, 0, 68, 0
1, 1567679, Note_on_c, 0, 65, 0
1, 1567830, Note_on_c, 0, 65, 102
1, 1567830, Note_on_c, 0, 68, 90
1, 1567830, Note_on_c, 0, 73, 102
1, 1567833, Note_on_c, 0, 77, 116
1, 1567833, Note_on_c, 0, 49, 111
1, 1567833, Note_on_c, 0, 61, 99
1, 1567910, Control_c, 0, 64, 127
1, 1567910, Control_c, 0, 64, 127
1, 1568090, Note_on_c, 0, 73, 0
1, 1568090, Note_on_c, 0, 65, 0
1, 1568090, Note_on_c, 0, 68, 0
1, 1568093, Note_on_c, 0, 77, 0
1, 1568093, Note_on_c, 0, 68, 98
1, 1568093, Note_on_c, 0, 72, 95
1, 1568096, Note_on_c, 0, 49, 0
1, 1568096, Note_on_c, 0, 75, 98
1, 1568096, Note_on_c, 0, 80, 114
1, 1568099, Note_on_c, 0, 61, 0
1, 1568099, Note_on_c, 0, 44, 117
1, 1568099, Note_on_c, 0, 56, 104
1, 1568176, Note_on_c, 0, 75, 0
1, 1568176, Note_on_c, 0, 72, 0
1, 1568176, Note_on_c, 0, 68, 0
1, 1568179, Note_on_c, 0, 80, 0
1, 1568179, Note_on_c, 0, 73, 100
1, 1568179, Note_on_c, 0, 77, 100
1, 1568182, Note_on_c, 0, 44, 0
1, 1568182, Note_on_c, 0, 80, 96
1, 1568182, Note_on_c, 0, 85, 116
1, 1568185, Note_on_c, 0, 56, 0
1, 1568185, Note_on_c, 0, 37, 117
1, 1568185, Note_on_c, 0, 49, 106
1, 1568188, Control_c, 0, 64, 0
1, 1568188, Control_c, 0, 64, 0
1, 1568232, Note_on_c, 0, 80, 0
1, 1568232, Note_on_c, 0, 77, 0
1, 1568232, Note_on_c, 0, 73, 0
1, 1568235, Note_on_c, 0, 85, 0
1, 1568242, Note_on_c, 0, 37, 0
1, 1568242, Note_on_c, 0, 49, 0
1, 1568363, Note_on_c, 0, 75, 103
1, 1568363, Note_on_c, 0, 80, 103
1, 1568363, Note_on_c, 0, 84, 103
1, 1568366, Note_on_c, 0, 87, 117
1, 1568366, Note_on_c, 0, 32, 117
1, 1568366, Note_on_c, 0, 44, 109
1, 1568420, Note_on_c, 0, 84, 0
1, 1568420, Note_on_c, 0, 75, 0
1, 1568420, Note_on_c, 0, 80, 0
1, 1568423, Note_on_c, 0, 87, 0
1, 1568429, Note_on_c, 0, 32, 0
1, 1568429, Note_on_c, 0, 44, 0
1, 1568550, Note_on_c, 0, 77, 106
1, 1568550, Note_on_c, 0, 80, 106
1, 1568550, Note_on_c, 0, 85, 106
1, 1568553, Note_on_c, 0, 89, 117
1, 1568553, Note_on_c, 0, 25, 117
1, 1568553, Note_on_c, 0, 37, 112
1, 1568597, Control_c, 0, 64, 127
1, 1568597, Control_c, 0, 64, 127
1, 1568831, Note_on_c, 0, 85, 0
1, 1568831, Note_on_c, 0, 77, 0
1, 1568831, Note_on_c, 0, 80, 0
1, 1568834, Note_on_c, 0, 89, 0
1, 1568834, Note_on_c, 0, 75, 96
1, 1568834, Note_on_c, 0, 87, 111
1, 1568918, Note_on_c, 0, 87, 0
1, 1568918, Note_on_c, 0, 75, 0
1, 1568918, Note_on_c, 0, 73, 96
1, 1568921, Note_on_c, 0, 25, 0
1, 1568921, Note_on_c, 0, 37, 0
1, 1568921, Note_on_c, 0, 85, 111
1, 1568932, Control_c, 0, 64, 0
1, 1568932, Control_c, 0, 64, 0
1, 1568970, Note_on_c, 0, 85, 0
1, 1568970, Note_on_c, 0, 73, 0
1, 1569090, Note_on_c, 0, 72, 96
1, 1569090, Note_on_c, 0, 77, 96
1, 1569090, Note_on_c, 0, 81, 96
1, 1569093, Note_on_c, 0, 84, 111
1, 1569093, Note_on_c, 0, 53, 98
1, 1569093, Note_on_c, 0, 65, 87
1, 1569147, Note_on_c, 0, 81, 0
1, 1569147, Note_on_c, 0, 72, 0
1, 1569147, Note_on_c, 0, 77, 0
1, 1569150, Note_on_c, 0, 84, 0
1, 1569150, Note_on_c, 0, 53, 0
1, 1569150, Note_on_c, 0, 65, 0
1, 1569278, Note_on_c, 0, 73, 107
1, 1569278, Note_on_c, 0, 77, 107
1, 1569278, Note_on_c, 0, 82, 107
1, 1569281, Note_on_c, 0, 85, 117
1, 1569281, Note_on_c, 0, 58, 100
1, 1569281, Note_on_c, 0, 65, 89
1, 1569337, Control_c, 0, 64, 127
1, 1569337, Control_c, 0, 64, 127
1, 1569537, Note_on_c, 0, 82, 0
1, 1569537, Note_on_c, 0, 73, 0
1, 1569537, Note_on_c, 0, 77, 0
1, 1569540, Note_on_c, 0, 85, 0
1, 1569540, Note_on_c, 0, 72, 96
1, 1569540, Note_on_c, 0, 77, 96
1, 1569543, Note_on_c, 0, 58, 0
1, 1569543, Note_on_c, 0, 81, 96
1, 1569543, Note_on_c, 0, 84, 111
1, 1569546, Note_on_c, 0, 65, 0
1, 1569546, Note_on_c, 0, 53, 102
1, 1569546, Note_on_c, 0, 65, 91
1, 1569623, Note_on_c, 0, 81, 0
1, 1569623, Note_on_c, 0, 77, 0
1, 1569623, Note_on_c, 0, 72, 0
1, 1569626, Note_on_c, 0, 84, 0
1, 1569626, Note_on_c, 0, 73, 96
1, 1569626, Note_on_c, 0, 77, 96
1, 1569629, Note_on_c, 0, 53, 0
1, 1569629, Note_on_c, 0, 82, 96
1, 1569629, Note_on_c, 0, 85, 111
1, 1569632, Note_on_c, 0, 65, 0
1, 1569632, Control_c, 0, 64, 0
1, 1569632, Note_on_c, 0, 58, 103
1, 1569632, Note_on_c, 0, 65, 91
1, 1569632, Control_c, 0, 64, 0
1, 1569680, Note_on_c, 0, 82, 0
1, 1569680, Note_on_c, 0, 77, 0
1, 1569680, Note_on_c, 0, 73, 0
1, 1569683, Note_on_c, 0, 85, 0
1, 1569683, Note_on_c, 0, 58, 0
1, 1569683, Note_on_c, 0, 65, 0
1, 1569810, Note_on_c, 0, 72, 90
1, 1569810, Note_on_c, 0, 77, 90
1, 1569810, Note_on_c, 0, 81, 90
1, 1569813, Note_on_c, 0, 84, 112
1, 1569813, Note_on_c, 0, 53, 104
1, 1569813, Note_on_c, 0, 65, 93
1, 1569872, Note_on_c, 0, 81, 0
1, 1569872, Note_on_c, 0, 72, 0
1, 1569872, Note_on_c, 0, 77, 0
1, 1569875, Note_on_c, 0, 84, 0
1, 1569875, Note_on_c, 0, 53, 0
1, 1569875, Note_on_c, 0, 65, 0
1, 1570015, Note_on_c, 0, 73, 100
1, 1570015, Note_on_c, 0, 77, 100
1, 1570015, Note_on_c, 0, 82, 100
1, 1570018, Note_on_c, 0, 85, 115
1, 1570018, Note_on_c, 0, 58, 106
1, 1570018, Note_on_c, 0, 65, 94
1, 1570080, Control_c, 0, 64, 127
1, 1570080, Control_c, 0, 64, 127
1, 1570395, Control_c, 0, 64, 0
1, 1570395, Control_c, 0, 64, 0
1, 1570423, Note_on_c, 0, 82, 0
1, 1570423, Note_on_c, 0, 73, 0
1, 1570423, Note_on_c, 0, 77, 0
1, 1570426, Note_on_c, 0, 85, 0
1, 1570426, Note_on_c, 0, 58, 0
1, 1570426, Note_on_c, 0, 65, 0
1, 1570538, Note_on_c, 0, 34, 92
1, 1570627, Note_on_c, 0, 80, 89
1, 1570627, Note_on_c, 0, 82, 89
1, 1570627, Note_on_c, 0, 89, 89
1, 1570630, Note_on_c, 0, 92, 104
1, 1570630, Note_on_c, 0, 53, 101
1, 1570706, Note_on_c, 0, 89, 0
1, 1570706, Note_on_c, 0, 82, 0
1, 1570706, Note_on_c, 0, 80, 0
1, 1570709, Note_on_c, 0, 34, 0
1, 1570709, Note_on_c, 0, 92, 0
1, 1570709, Note_on_c, 0, 53, 0
1, 1570852, Note_on_c, 0, 78, 89
1, 1570852, Note_on_c, 0, 82, 89
1, 1570852, Note_on_c, 0, 87, 89
1, 1570855, Note_on_c, 0, 90, 101
1, 1570855, Note_on_c, 0, 39, 78
1, 1570855, Note_on_c, 0, 54, 85
1, 1570923, Note_on_c, 0, 87, 0
1, 1570923, Note_on_c, 0, 78, 0
1, 1570923, Note_on_c, 0, 82, 0
1, 1570926, Note_on_c, 0, 90, 0
1, 1570926, Note_on_c, 0, 39, 0
1, 1570926, Note_on_c, 0, 54, 0
1, 1571056, Note_on_c, 0, 77, 90
1, 1571056, Note_on_c, 0, 85, 90
1, 1571056, Note_on_c, 0, 89, 103
1, 1571059, Note_on_c, 0, 41, 79
1, 1571059, Note_on_c, 0, 56, 86
1, 1571122, Note_on_c, 0, 89, 0
1, 1571122, Note_on_c, 0, 77, 0
1, 1571122, Note_on_c, 0, 85, 0
1, 1571125, Note_on_c, 0, 41, 0
1, 1571125, Note_on_c, 0, 56, 0
1, 1571243, Note_on_c, 0, 75, 92
1, 1571243, Note_on_c, 0, 84, 92
1, 1571243, Note_on_c, 0, 87, 105
1, 1571246, Note_on_c, 0, 42, 82
1, 1571246, Note_on_c, 0, 57, 89
1, 1571304, Note_on_c, 0, 87, 0
1, 1571304, Note_on_c, 0, 75, 0
1, 1571304, Note_on_c, 0, 84, 0
1, 1571307, Note_on_c, 0, 42, 0
1, 1571307, Note_on_c, 0, 57, 0
1, 1571416, Note_on_c, 0, 73, 94
1, 1571416, Note_on_c, 0, 82, 94
1, 1571416, Note_on_c, 0, 85, 107
1, 1571419, Note_on_c, 0, 43, 84
1, 1571419, Note_on_c, 0, 58, 91
1, 1571477, Note_on_c, 0, 85, 0
1, 1571477, Note_on_c, 0, 73, 0
1, 1571477, Note_on_c, 0, 82, 0
1, 1571480, Note_on_c, 0, 43, 0
1, 1571480, Note_on_c, 0, 58, 0
1, 1571513, Note_on_c, 0, 44, 86
1, 1571589, Note_on_c, 0, 72, 95
1, 1571589, Note_on_c, 0, 80, 95
1, 1571589, Note_on_c, 0, 84, 109
1, 1571592, Note_on_c, 0, 60, 93
1, 1571649, Note_on_c, 0, 84, 0
1, 1571649, Note_on_c, 0, 80, 0
1, 1571649, Note_on_c, 0, 72, 0
1, 1571652, Note_on_c, 0, 44, 0
1, 1571652, Note_on_c, 0, 60, 0
1, 1571762, Note_on_c, 0, 70, 96
1, 1571762, Note_on_c, 0, 78, 96
1, 1571762, Note_on_c, 0, 82, 110
1, 1571765, Note_on_c, 0, 46, 89
1, 1571765, Note_on_c, 0, 61, 96
1, 1571822, Note_on_c, 0, 82, 0
1, 1571822, Note_on_c, 0, 70, 0
1, 1571822, Note_on_c, 0, 78, 0
1, 1571825, Note_on_c, 0, 46, 0
1, 1571825, Note_on_c, 0, 61, 0
1, 1571935, Note_on_c, 0, 68, 98
1, 1571935, Note_on_c, 0, 77, 98
1, 1571935, Note_on_c, 0, 80, 113
1, 1571938, Note_on_c, 0, 47, 92
1, 1571938, Note_on_c, 0, 62, 99
1, 1571995, Note_on_c, 0, 80, 0
1, 1571995, Note_on_c, 0, 68, 0
1, 1571995, Note_on_c, 0, 77, 0
1, 1571998, Note_on_c, 0, 47, 0
1, 1571998, Note_on_c, 0, 62, 0
1, 1572107, Note_on_c, 0, 66, 100
1, 1572107, Note_on_c, 0, 75, 100
1, 1572107, Note_on_c, 0, 78, 114
1, 1572110, Note_on_c, 0, 48, 94
1, 1572110, Note_on_c, 0, 63, 101
1, 1572173, Note_on_c, 0, 78, 0
1, 1572173, Note_on_c, 0, 66, 0
1, 1572173, Note_on_c, 0, 75, 0
1, 1572176, Note_on_c, 0, 48, 0
1, 1572176, Note_on_c, 0, 63, 0
1, 1572295, Note_on_c, 0, 65, 101
1, 1572295, Note_on_c, 0, 73, 101
1, 1572295, Note_on_c, 0, 77, 116
1, 1572298, Note_on_c, 0, 49, 94
1, 1572298, Note_on_c, 0, 61, 103
1, 1572351, Note_on_c, 0, 77, 0
1, 1572351, Note_on_c, 0, 65, 0
1, 1572351, Note_on_c, 0, 73, 0
1, 1572360, Note_on_c, 0, 49, 0
1, 1572360, Note_on_c, 0, 61, 0
1, 1572482, Note_on_c, 0, 70, 101
1, 1572482, Note_on_c, 0, 73, 101
1, 1572482, Note_on_c, 0, 82, 116
1, 1572485, Note_on_c, 0, 54, 96
1, 1572485, Note_on_c, 0, 66, 105
1, 1572538, Note_on_c, 0, 82, 0
1, 1572538, Note_on_c, 0, 70, 0
1, 1572538, Note_on_c, 0, 73, 0
1, 1572547, Note_on_c, 0, 54, 0
1, 1572547, Note_on_c, 0, 66, 0
1, 1572669, Note_on_c, 0, 68, 101
1, 1572669, Note_on_c, 0, 73, 101
1, 1572669, Note_on_c, 0, 80, 116
1, 1572672, Note_on_c, 0, 56, 98
1, 1572672, Note_on_c, 0, 65, 107
1, 1572730, Note_on_c, 0, 80, 0
1, 1572730, Note_on_c, 0, 68, 0
1, 1572730, Note_on_c, 0, 73, 0
1, 1572740, Note_on_c, 0, 56, 0
1, 1572740, Note_on_c, 0, 65, 0
1, 1572873, Note_on_c, 0, 66, 94
1, 1572873, Note_on_c, 0, 68, 94
1, 1572873, Note_on_c, 0, 72, 108
1, 1572876, Note_on_c, 0, 56, 99
1, 1572876, Note_on_c, 0, 63, 108
1, 1572948, Note_on_c, 0, 72, 0
1, 1572948, Note_on_c, 0, 66, 0
1, 1572948, Note_on_c, 0, 68, 0
1, 1572961, Note_on_c, 0, 56, 0
1, 1572961, Note_on_c, 0, 63, 0
1, 1573123, Note_on_c, 0, 65, 87
1, 1573123, Note_on_c, 0, 68, 87
1, 1573123, Note_on_c, 0, 73, 99
1, 1573126, Note_on_c, 0, 49, 85
1, 1573126, Note_on_c, 0, 56, 85
1, 1573126, Note_on_c, 0, 61, 94
1, 1573622, Note_on_c, 0, 73, 0
1, 1573622, Note_on_c, 0, 65, 0
1, 1573622, Note_on_c, 0, 68, 0
1, 1573625, Note_on_c, 0, 49, 0
1, 1573625, Note_on_c, 0, 56, 0
1, 1573625, Note_on_c, 0, 61, 0
1, 1574059, Note_on_c, 0, 66, 66
1, 1574059, Note_on_c, 0, 70, 78
1, 1574121, Note_on_c, 0, 73, 77
1, 1574121, Note_on_c, 0, 78, 77
1, 1574121, Note_on_c, 0, 82, 89
1, 1574190, Control_c, 0, 64, 127
1, 1574190, Control_c, 0, 64, 127
1, 1574380, Note_on_c, 0, 70, 0
1, 1574380, Note_on_c, 0, 66, 0
1, 1574380, Note_on_c, 0, 66, 66
1, 1574383, Note_on_c, 0, 70, 78
1, 1574411, Note_on_c, 0, 70, 0
1, 1574411, Note_on_c, 0, 66, 0
1, 1574428, Control_c, 0, 64, 0
1, 1574428, Control_c, 0, 64, 0
1, 1574467, Control_c, 0, 64, 0
1, 1574467, Control_c, 0, 64, 0
1, 1574467, Note_on_c, 0, 66, 66
1, 1574470, Note_on_c, 0, 70, 78
1, 1574514, Note_on_c, 0, 70, 0
1, 1574514, Note_on_c, 0, 66, 0
1, 1574654, Note_on_c, 0, 66, 66
1, 1574654, Note_on_c, 0, 70, 78
1, 1574705, Note_on_c, 0, 70, 0
1, 1574705, Note_on_c, 0, 66, 0
1, 1574778, Note_on_c, 0, 73, 0
1, 1574807, Note_on_c, 0, 63, 66
1, 1574807, Note_on_c, 0, 73, 78
1, 1574858, Note_on_c, 0, 78, 0
1, 1574858, Note_on_c, 0, 82, 0
1, 1574858, Note_on_c, 0, 75, 77
1, 1574861, Note_on_c, 0, 78, 77
1, 1574861, Note_on_c, 0, 85, 96
1, 1574904, Control_c, 0, 64, 127
1, 1574904, Control_c, 0, 64, 127
1, 1575117, Note_on_c, 0, 63, 0
1, 1575117, Note_on_c, 0, 73, 0
1, 1575117, Note_on_c, 0, 63, 66
1, 1575120, Note_on_c, 0, 73, 78
1, 1575148, Note_on_c, 0, 73, 0
1, 1575148, Note_on_c, 0, 63, 0
1, 1575173, Control_c, 0, 64, 0
1, 1575173, Control_c, 0, 64, 0
1, 1575204, Note_on_c, 0, 85, 0
1, 1575204, Note_on_c, 0, 83, 89
1, 1575204, Note_on_c, 0, 63, 66
1, 1575207, Note_on_c, 0, 71, 78
1, 1575251, Note_on_c, 0, 71, 0
1, 1575251, Note_on_c, 0, 63, 0
1, 1575391, Note_on_c, 0, 63, 66
1, 1575391, Note_on_c, 0, 71, 78
1, 1575442, Note_on_c, 0, 71, 0
1, 1575442, Note_on_c, 0, 63, 0
1, 1575544, Note_on_c, 0, 65, 66
1, 1575544, Note_on_c, 0, 71, 78
1, 1575595, Note_on_c, 0, 83, 0
1, 1575595, Note_on_c, 0, 78, 0
1, 1575595, Note_on_c, 0, 75, 0
1, 1575598, Note_on_c, 0, 77, 77
1, 1575598, Note_on_c, 0, 80, 89
1, 1575664, Control_c, 0, 64, 127
1, 1575664, Control_c, 0, 64, 127
1, 1575854, Note_on_c, 0, 65, 0
1, 1575854, Note_on_c, 0, 71, 0
1, 1575854, Note_on_c, 0, 65, 66
1, 1575857, Note_on_c, 0, 71, 78
1, 1575885, Note_on_c, 0, 71, 0
1, 1575885, Note_on_c, 0, 65, 0
1, 1575902, Control_c, 0, 64, 0
1, 1575902, Control_c, 0, 64, 0
1, 1575941, Control_c, 0, 64, 0
1, 1575941, Control_c, 0, 64, 0
1, 1575941, Note_on_c, 0, 65, 66
1, 1575944, Note_on_c, 0, 71, 78
1, 1575988, Note_on_c, 0, 71, 0
1, 1575988, Note_on_c, 0, 65, 0
1, 1576128, Note_on_c, 0, 65, 66
1, 1576128, Note_on_c, 0, 71, 78
1, 1576179, Note_on_c, 0, 71, 0
1, 1576179, Note_on_c, 0, 65, 0
1, 1576281, Note_on_c, 0, 66, 66
1, 1576281, Note_on_c, 0, 71, 78
1, 1576332, Note_on_c, 0, 77, 0
1, 1576332, Note_on_c, 0, 80, 0
1, 1576332, Note_on_c, 0, 77, 77
1, 1576335, Note_on_c, 0, 83, 96
1, 1576379, Control_c, 0, 64, 127
1, 1576379, Control_c, 0, 64, 127
1, 1576591, Note_on_c, 0, 66, 0
1, 1576591, Note_on_c, 0, 71, 0
1, 1576591, Note_on_c, 0, 66, 66
1, 1576594, Note_on_c, 0, 71, 78
1, 1576622, Note_on_c, 0, 71, 0
1, 1576622, Note_on_c, 0, 66, 0
1, 1576647, Control_c, 0, 64, 0
1, 1576647, Control_c, 0, 64, 0
1, 1576678, Note_on_c, 0, 77, 0
1, 1576678, Note_on_c, 0, 83, 0
1, 1576678, Note_on_c, 0, 78, 77
1, 1576681, Note_on_c, 0, 82, 89
1, 1576681, Note_on_c, 0, 66, 66
1, 1576681, Note_on_c, 0, 70, 78
1, 1576725, Note_on_c, 0, 70, 0
1, 1576725, Note_on_c, 0, 66, 0
1, 1576865, Note_on_c, 0, 66, 66
1, 1576865, Note_on_c, 0, 70, 78
1, 1576916, Note_on_c, 0, 70, 0
1, 1576916, Note_on_c, 0, 66, 0
1, 1577018, Note_on_c, 0, 63, 66
1, 1577018, Note_on_c, 0, 68, 78
1, 1577069, Note_on_c, 0, 82, 0
1, 1577069, Note_on_c, 0, 78, 0
1, 1577069, Note_on_c, 0, 72, 77
1, 1577072, Note_on_c, 0, 78, 89
1, 1577138, Control_c, 0, 64, 127
1, 1577138, Control_c, 0, 64, 127
1, 1577329, Note_on_c, 0, 63, 0
1, 1577329, Note_on_c, 0, 68, 0
1, 1577329, Note_on_c, 0, 63, 66
1, 1577332, Note_on_c, 0, 68, 78
1, 1577359, Note_on_c, 0, 68, 0
1, 1577359, Note_on_c, 0, 63, 0
1, 1577376, Control_c, 0, 64, 0
1, 1577376, Control_c, 0, 64, 0
1, 1577415, Control_c, 0, 64, 0
1, 1577415, Control_c, 0, 64, 0
1, 1577415, Note_on_c, 0, 63, 66
1, 1577418, Note_on_c, 0, 68, 78
1, 1577462, Note_on_c, 0, 68, 0
1, 1577462, Note_on_c, 0, 63, 0
1, 1577602, Note_on_c, 0, 63, 66
1, 1577602, Note_on_c, 0, 68, 78
1, 1577653, Note_on_c, 0, 68, 0
1, 1577653, Note_on_c, 0, 63, 0
1, 1577755, Note_on_c, 0, 62, 66
1, 1577755, Note_on_c, 0, 69, 78
1, 1577806, Note_on_c, 0, 72, 0
1, 1577806, Note_on_c, 0, 78, 0
1, 1577806, Note_on_c, 0, 72, 77
1, 1577809, Note_on_c, 0, 77, 89
1, 1577853, Control_c, 0, 64, 127
1, 1577853, Control_c, 0, 64, 127
1, 1578066, Note_on_c, 0, 62, 0
1, 1578066, Note_on_c, 0, 69, 0
1, 1578066, Note_on_c, 0, 62, 66
1, 1578069, Note_on_c, 0, 69, 78
1, 1578096, Note_on_c, 0, 69, 0
1, 1578096, Note_on_c, 0, 62, 0
1, 1578121, Control_c, 0, 64, 0
1, 1578121, Control_c, 0, 64, 0
1, 1578152, Note_on_c, 0, 77, 0
1, 1578152, Note_on_c, 0, 78, 89
1, 1578152, Note_on_c, 0, 62, 66
1, 1578155, Note_on_c, 0, 69, 78
1, 1578199, Note_on_c, 0, 69, 0
1, 1578199, Note_on_c, 0, 62, 0
1, 1578339, Note_on_c, 0, 62, 66
1, 1578339, Note_on_c, 0, 69, 78
1, 1578390, Note_on_c, 0, 69, 0
1, 1578390, Note_on_c, 0, 62, 0
1, 1578492, Note_on_c, 0, 61, 66
1, 1578492, Note_on_c, 0, 70, 78
1, 1578543, Note_on_c, 0, 78, 0
1, 1578543, Note_on_c, 0, 72, 0
1, 1578543, Note_on_c, 0, 73, 77
1, 1578546, Note_on_c, 0, 78, 85
1, 1578613, Control_c, 0, 64, 127
1, 1578613, Control_c, 0, 64, 127
1, 1578803, Note_on_c, 0, 61, 0
1, 1578803, Note_on_c, 0, 70, 0
1, 1578803, Note_on_c, 0, 61, 66
1, 1578806, Note_on_c, 0, 70, 78
1, 1578833, Note_on_c, 0, 70, 0
1, 1578833, Note_on_c, 0, 61, 0
1, 1578850, Control_c, 0, 64, 0
1, 1578850, Control_c, 0, 64, 0
1, 1578889, Control_c, 0, 64, 0
1, 1578889, Control_c, 0, 64, 0
1, 1578889, Note_on_c, 0, 61, 66
1, 1578892, Note_on_c, 0, 70, 78
1, 1578936, Note_on_c, 0, 70, 0
1, 1578936, Note_on_c, 0, 61, 0
1, 1579076, Note_on_c, 0, 61, 66
1, 1579076, Note_on_c, 0, 70, 78
1, 1579127, Note_on_c, 0, 70, 0
1, 1579127, Note_on_c, 0, 61, 0
1, 1579229, Note_on_c, 0, 61, 66
1, 1579229, Note_on_c, 0, 68, 78
1, 1579280, Note_on_c, 0, 73, 0
1, 1579280, Note_on_c, 0, 78, 0
1, 1579280, Note_on_c, 0, 73, 86
1, 1579283, Note_on_c, 0, 77, 79
1, 1579327, Control_c, 0, 64, 127
1, 1579327, Control_c, 0, 64, 127
1, 1579540, Note_on_c, 0, 61, 0
1, 1579540, Note_on_c, 0, 68, 0
1, 1579540, Note_on_c, 0, 61, 66
1, 1579543, Note_on_c, 0, 68, 78
1, 1579570, Note_on_c, 0, 68, 0
1, 1579570, Note_on_c, 0, 61, 0
1, 1579595, Control_c, 0, 64, 0
1, 1579595, Control_c, 0, 64, 0
1, 1579626, Note_on_c, 0, 71, 86
1, 1579626, Note_on_c, 0, 61, 66
1, 1579626, Note_on_c, 0, 68, 78
1, 1579637, Note_on_c, 0, 73, 0
1, 1579673, Note_on_c, 0, 61, 0
1, 1579673, Note_on_c, 0, 68, 0
1, 1579813, Note_on_c, 0, 61, 66
1, 1579813, Note_on_c, 0, 68, 78
1, 1579864, Note_on_c, 0, 68, 0
1, 1579864, Note_on_c, 0, 61, 0
1, 1579966, Note_on_c, 0, 61, 67
1, 1579966, Note_on_c, 0, 68, 78
1, 1580017, Note_on_c, 0, 71, 0
1, 1580017, Note_on_c, 0, 77, 0
1, 1580017, Note_on_c, 0, 71, 81
1, 1580020, Note_on_c, 0, 76, 95
1, 1580087, Control_c, 0, 64, 127
1, 1580087, Control_c, 0, 64, 127
1, 1580277, Note_on_c, 0, 61, 0
1, 1580277, Note_on_c, 0, 68, 0
1, 1580277, Note_on_c, 0, 61, 67
1, 1580280, Note_on_c, 0, 68, 78
1, 1580307, Note_on_c, 0, 68, 0
1, 1580307, Note_on_c, 0, 61, 0
1, 1580325, Control_c, 0, 64, 0
1, 1580325, Control_c, 0, 64, 0
1, 1580363, Control_c, 0, 64, 0
1, 1580363, Control_c, 0, 64, 0
1, 1580363, Note_on_c, 0, 61, 67
1, 1580366, Note_on_c, 0, 68, 78
1, 1580410, Note_on_c, 0, 68, 0
1, 1580410, Note_on_c, 0, 61, 0
1, 1580550, Note_on_c, 0, 61, 66
1, 1580550, Note_on_c, 0, 68, 77
1, 1580601, Note_on_c, 0, 68, 0
1, 1580601, Note_on_c, 0, 61, 0
1, 1580675, Note_on_c, 0, 71, 0
1, 1580703, Note_on_c, 0, 63, 66
1, 1580703, Note_on_c, 0, 67, 77
1, 1580754, Note_on_c, 0, 70, 74
1, 1580754, Note_on_c, 0, 75, 95
1, 1580761, Note_on_c, 0, 76, 0
1, 1580801, Control_c, 0, 64, 127
1, 1580801, Control_c, 0, 64, 127
1, 1581014, Note_on_c, 0, 63, 0
1, 1581014, Note_on_c, 0, 67, 0
1, 1581014, Note_on_c, 0, 63, 66
1, 1581017, Note_on_c, 0, 67, 77
1, 1581044, Note_on_c, 0, 67, 0
1, 1581044, Note_on_c, 0, 63, 0
1, 1581069, Control_c, 0, 64, 0
1, 1581069, Control_c, 0, 64, 0
1, 1581100, Note_on_c, 0, 73, 87
1, 1581100, Note_on_c, 0, 63, 66
1, 1581100, Note_on_c, 0, 67, 77
1, 1581107, Note_on_c, 0, 75, 0
1, 1581147, Note_on_c, 0, 63, 0
1, 1581147, Note_on_c, 0, 67, 0
1, 1581287, Note_on_c, 0, 63, 66
1, 1581287, Note_on_c, 0, 67, 76
1, 1581338, Note_on_c, 0, 67, 0
1, 1581338, Note_on_c, 0, 63, 0
1, 1581440, Note_on_c, 0, 56, 66
1, 1581440, Note_on_c, 0, 66, 76
1, 1581491, Note_on_c, 0, 70, 0
1, 1581491, Note_on_c, 0, 68, 74
1, 1581491, Note_on_c, 0, 72, 87
1, 1581498, Note_on_c, 0, 73, 0
1, 1581561, Control_c, 0, 64, 127
1, 1581561, Control_c, 0, 64, 127
1, 1581751, Note_on_c, 0, 66, 0
1, 1581751, Note_on_c, 0, 56, 0
1, 1581751, Note_on_c, 0, 56, 65
1, 1581754, Note_on_c, 0, 66, 76
1, 1581781, Note_on_c, 0, 66, 0
1, 1581781, Note_on_c, 0, 56, 0
1, 1581799, Control_c, 0, 64, 0
1, 1581799, Control_c, 0, 64, 0
1, 1581837, Control_c, 0, 64, 0
1, 1581837, Control_c, 0, 64, 0
1, 1581837, Note_on_c, 0, 56, 65
1, 1581840, Note_on_c, 0, 66, 75
1, 1581884, Note_on_c, 0, 66, 0
1, 1581884, Note_on_c, 0, 56, 0
1, 1582024, Note_on_c, 0, 56, 65
1, 1582024, Note_on_c, 0, 66, 75
1, 1582075, Note_on_c, 0, 66, 0
1, 1582075, Note_on_c, 0, 56, 0
1, 1582177, Note_on_c, 0, 61, 65
1, 1582177, Note_on_c, 0, 65, 75
1, 1582228, Note_on_c, 0, 68, 0
1, 1582228, Note_on_c, 0, 68, 66
1, 1582228, Note_on_c, 0, 71, 86
1, 1582235, Note_on_c, 0, 72, 0
1, 1582275, Control_c, 0, 64, 127
1, 1582275, Control_c, 0, 64, 127
1, 1582488, Note_on_c, 0, 65, 0
1, 1582488, Note_on_c, 0, 61, 0
1, 1582488, Note_on_c, 0, 61, 64
1, 1582491, Note_on_c, 0, 65, 74
1, 1582518, Note_on_c, 0, 65, 0
1, 1582518, Note_on_c, 0, 61, 0
1, 1582543, Control_c, 0, 64, 0
1, 1582543, Control_c, 0, 64, 0
1, 1582574, Note_on_c, 0, 61, 64
1, 1582574, Note_on_c, 0, 65, 74
1, 1582621, Note_on_c, 0, 65, 0
1, 1582621, Note_on_c, 0, 61, 0
1, 1582761, Note_on_c, 0, 61, 64
1, 1582761, Note_on_c, 0, 65, 74
1, 1582812, Note_on_c, 0, 65, 0
1, 1582812, Note_on_c, 0, 61, 0
1, 1582914, Note_on_c, 0, 54, 64
1, 1582914, Note_on_c, 0, 64, 74
1, 1582965, Note_on_c, 0, 68, 0
1, 1582965, Note_on_c, 0, 66, 73
1, 1582965, Note_on_c, 0, 70, 86
1, 1582972, Note_on_c, 0, 71, 0
1, 1583035, Control_c, 0, 64, 127
1, 1583035, Control_c, 0, 64, 127
1, 1583225, Note_on_c, 0, 64, 0
1, 1583225, Note_on_c, 0, 54, 0
1, 1583225, Note_on_c, 0, 54, 63
1, 1583228, Note_on_c, 0, 64, 73
1, 1583255, Note_on_c, 0, 64, 0
1, 1583255, Note_on_c, 0, 54, 0
1, 1583273, Control_c, 0, 64, 0
1, 1583273, Control_c, 0, 64, 0
1, 1583311, Control_c, 0, 64, 0
1, 1583311, Control_c, 0, 64, 0
1, 1583311, Note_on_c, 0, 54, 63
1, 1583314, Note_on_c, 0, 64, 73
1, 1583358, Note_on_c, 0, 64, 0
1, 1583358, Note_on_c, 0, 54, 0
1, 1583498, Note_on_c, 0, 54, 63
1, 1583498, Note_on_c, 0, 64, 73
1, 1583549, Note_on_c, 0, 64, 0
1, 1583549, Note_on_c, 0, 54, 0
1, 1583651, Note_on_c, 0, 59, 63
1, 1583651, Note_on_c, 0, 63, 73
1, 1583702, Note_on_c, 0, 66, 0
1, 1583702, Note_on_c, 0, 66, 73
1, 1583702, Note_on_c, 0, 75, 94
1, 1583710, Note_on_c, 0, 70, 0
1, 1583757, Control_c, 0, 64, 127
1, 1583757, Control_c, 0, 64, 127
1, 1584009, Note_on_c, 0, 63, 0
1, 1584009, Note_on_c, 0, 59, 0
1, 1584009, Note_on_c, 0, 59, 63
1, 1584012, Note_on_c, 0, 63, 72
1, 1584039, Note_on_c, 0, 63, 0
1, 1584039, Note_on_c, 0, 59, 0
1, 1584064, Control_c, 0, 64, 0
1, 1584064, Control_c, 0, 64, 0
1, 1584095, Note_on_c, 0, 71, 89
1, 1584095, Note_on_c, 0, 59, 63
1, 1584095, Note_on_c, 0, 63, 72
1, 1584103, Note_on_c, 0, 75, 0
1, 1584142, Note_on_c, 0, 59, 0
1, 1584142, Note_on_c, 0, 63, 0
1, 1584282, Note_on_c, 0, 59, 62
1, 1584282, Note_on_c, 0, 63, 72
1, 1584333, Note_on_c, 0, 63, 0
1, 1584333, Note_on_c, 0, 59, 0
1, 1584436, Note_on_c, 0, 61, 62
1, 1584436, Note_on_c, 0, 63, 72
1, 1584487, Note_on_c, 0, 66, 0
1, 1584487, Note_on_c, 0, 66, 72
1, 1584487, Note_on_c, 0, 68, 84
1, 1584493, Note_on_c, 0, 71, 0
1, 1584556, Control_c, 0, 64, 127
1, 1584556, Control_c, 0, 64, 127
1, 1584746, Note_on_c, 0, 63, 0
1, 1584746, Note_on_c, 0, 61, 0
1, 1584746, Note_on_c, 0, 61, 62
1, 1584749, Note_on_c, 0, 63, 71
1, 1584776, Note_on_c, 0, 63, 0
1, 1584776, Note_on_c, 0, 61, 0
1, 1584794, Control_c, 0, 64, 0
1, 1584794, Control_c, 0, 64, 0
1, 1584832, Control_c, 0, 64, 0
1, 1584832, Control_c, 0, 64, 0
1, 1584832, Note_on_c, 0, 61, 62
1, 1584835, Note_on_c, 0, 63, 71
1, 1584879, Note_on_c, 0, 63, 0
1, 1584879, Note_on_c, 0, 61, 0
1, 1585019, Note_on_c, 0, 61, 62
1, 1585019, Note_on_c, 0, 63, 71
1, 1585070, Note_on_c, 0, 63, 0
1, 1585070, Note_on_c, 0, 61, 0
1, 1585224, Note_on_c, 0, 68, 0
1, 1585224, Note_on_c, 0, 65, 58
1, 1585224, Note_on_c, 0, 68, 70
1, 1585227, Note_on_c, 0, 61, 77
1, 1585230, Note_on_c, 0, 66, 0
1, 1585270, Control_c, 0, 64, 127
1, 1585270, Control_c, 0, 64, 127
1, 1585483, Note_on_c, 0, 59, 74
1, 1585490, Note_on_c, 0, 61, 0
1, 1585539, Control_c, 0, 64, 0
1, 1585539, Control_c, 0, 64, 0
1, 1585569, Note_on_c, 0, 58, 72
1, 1585577, Note_on_c, 0, 59, 0
1, 1585850, Note_on_c, 0, 56, 69
1, 1585857, Note_on_c, 0, 58, 0
1, 1585944, Note_on_c, 0, 70, 73
1, 1585944, Note_on_c, 0, 73, 73
1, 1585944, Note_on_c, 0, 78, 73
1, 1585947, Note_on_c, 0, 82, 88
1, 1585947, Note_on_c, 0, 54, 70
1, 1585950, Note_on_c, 0, 56, 0
1, 1585954, Note_on_c, 0, 65, 0
1, 1585954, Note_on_c, 0, 68, 0
1, 1586020, Control_c, 0, 64, 127
1, 1586158, Control_c, 0, 64, 0
1, 1586203, Note_on_c, 0, 53, 68
1, 1586210, Note_on_c, 0, 54, 0
1, 1586289, Note_on_c, 0, 51, 67
1, 1586296, Note_on_c, 0, 53, 0
1, 1586548, Note_on_c, 0, 49, 65
1, 1586555, Note_on_c, 0, 51, 0
1, 1586635, Note_on_c, 0, 73, 0
1, 1586635, Note_on_c, 0, 78, 0
1, 1586635, Note_on_c, 0, 75, 80
1, 1586638, Note_on_c, 0, 78, 80
1, 1586638, Note_on_c, 0, 73, 80
1, 1586638, Note_on_c, 0, 85, 95
1, 1586641, Note_on_c, 0, 70, 0
1, 1586641, Note_on_c, 0, 49, 0
1, 1586641, Note_on_c, 0, 82, 0
1, 1586641, Note_on_c, 0, 47, 64
1, 1586711, Control_c, 0, 64, 127
1, 1586941, Note_on_c, 0, 46, 62
1, 1586949, Note_on_c, 0, 47, 0
1, 1587043, Note_on_c, 0, 73, 0
1, 1587043, Note_on_c, 0, 71, 73
1, 1587043, Note_on_c, 0, 83, 88
1, 1587046, Note_on_c, 0, 44, 61
1, 1587050, Note_on_c, 0, 85, 0
1, 1587050, Note_on_c, 0, 46, 0
1, 1587068, Control_c, 0, 64, 0
1, 1587145, Control_c, 0, 64, 127
1, 1587302, Note_on_c, 0, 42, 59
1, 1587311, Note_on_c, 0, 44, 0
1, 1587415, Note_on_c, 0, 71, 0
1, 1587415, Note_on_c, 0, 78, 0
1, 1587415, Control_c, 0, 64, 127
1, 1587418, Note_on_c, 0, 68, 66
1, 1587418, Note_on_c, 0, 71, 66
1, 1587418, Note_on_c, 0, 76, 66
1, 1587421, Note_on_c, 0, 75, 0
1, 1587421, Note_on_c, 0, 83, 0
1, 1587421, Note_on_c, 0, 42, 0
1, 1587421, Note_on_c, 0, 80, 81
1, 1587421, Note_on_c, 0, 40, 55
1, 1587453, Control_c, 0, 64, 0
1, 1587674, Note_on_c, 0, 42, 58
1, 1587681, Note_on_c, 0, 40, 0
1, 1587760, Note_on_c, 0, 43, 59
1, 1587767, Note_on_c, 0, 42, 0
1, 1588020, Note_on_c, 0, 44, 62
1, 1588028, Note_on_c, 0, 43, 0
1, 1588132, Note_on_c, 0, 76, 0
1, 1588132, Note_on_c, 0, 71, 0
1, 1588132, Note_on_c, 0, 74, 73
1, 1588135, Note_on_c, 0, 77, 73
1, 1588135, Note_on_c, 0, 71, 73
1, 1588135, Note_on_c, 0, 83, 88
1, 1588138, Note_on_c, 0, 68, 0
1, 1588138, Note_on_c, 0, 44, 0
1, 1588138, Note_on_c, 0, 80, 0
1, 1588138, Note_on_c, 0, 46, 63
1, 1588186, Control_c, 0, 64, 127
1, 1588413, Note_on_c, 0, 48, 66
1, 1588420, Note_on_c, 0, 46, 0
1, 1588506, Note_on_c, 0, 70, 67
1, 1588506, Note_on_c, 0, 82, 82
1, 1588506, Note_on_c, 0, 49, 67
1, 1588513, Note_on_c, 0, 71, 0
1, 1588513, Note_on_c, 0, 83, 0
1, 1588513, Note_on_c, 0, 48, 0
1, 1588516, Control_c, 0, 64, 0
1, 1588585, Control_c, 0, 64, 127
1, 1588766, Note_on_c, 0, 50, 70
1, 1588772, Note_on_c, 0, 49, 0
1, 1588852, Note_on_c, 0, 74, 0
1, 1588852, Note_on_c, 0, 77, 0
1, 1588852, Control_c, 0, 64, 127
1, 1588855, Note_on_c, 0, 66, 66
1, 1588855, Note_on_c, 0, 75, 66
1, 1588855, Note_on_c, 0, 78, 81
1, 1588858, Note_on_c, 0, 70, 0
1, 1588858, Note_on_c, 0, 82, 0
1, 1588858, Note_on_c, 0, 50, 0
1, 1588858, Note_on_c, 0, 51, 72
1, 1588890, Control_c, 0, 64, 0
1, 1589111, Note_on_c, 0, 53, 75
1, 1589118, Note_on_c, 0, 51, 0
1, 1589198, Note_on_c, 0, 54, 76
1, 1589204, Note_on_c, 0, 53, 0
1, 1589457, Note_on_c, 0, 55, 79
1, 1589463, Note_on_c, 0, 54, 0
1, 1589543, Note_on_c, 0, 75, 0
1, 1589543, Note_on_c, 0, 75, 77
1, 1589543, Note_on_c, 0, 70, 77
1, 1589546, Note_on_c, 0, 72, 77
1, 1589546, Note_on_c, 0, 82, 94
1, 1589546, Note_on_c, 0, 56, 80
1, 1589550, Note_on_c, 0, 66, 0
1, 1589550, Note_on_c, 0, 55, 0
1, 1589550, Note_on_c, 0, 78, 0
1, 1589597, Control_c, 0, 64, 127
1, 1589824, Note_on_c, 0, 58, 83
1, 1589831, Note_on_c, 0, 56, 0
1, 1589918, Note_on_c, 0, 72, 0
1, 1589918, Note_on_c, 0, 68, 73
1, 1589918, Note_on_c, 0, 80, 88
1, 1589921, Note_on_c, 0, 59, 84
1, 1589924, Note_on_c, 0, 70, 0
1, 1589924, Note_on_c, 0, 82, 0
1, 1589924, Note_on_c, 0, 58, 0
1, 1589927, Control_c, 0, 64, 0
1, 1589996, Control_c, 0, 64, 127
1, 1590177, Note_on_c, 0, 60, 87
1, 1590183, Note_on_c, 0, 59, 0
1, 1590263, Note_on_c, 0, 68, 0
1, 1590263, Note_on_c, 0, 75, 0
1, 1590263, Control_c, 0, 64, 127
1, 1590266, Note_on_c, 0, 68, 75
1, 1590266, Note_on_c, 0, 73, 75
1, 1590266, Note_on_c, 0, 77, 89
1, 1590269, Note_on_c, 0, 80, 0
1, 1590269, Note_on_c, 0, 60, 0
1, 1590269, Note_on_c, 0, 61, 88
1, 1590301, Control_c, 0, 64, 0
1, 1590522, Note_on_c, 0, 65, 88
1, 1590529, Note_on_c, 0, 61, 0
1, 1590609, Note_on_c, 0, 70, 73
1, 1590609, Note_on_c, 0, 75, 86
1, 1590609, Note_on_c, 0, 66, 88
1, 1590616, Note_on_c, 0, 73, 0
1, 1590616, Note_on_c, 0, 77, 0
1, 1590616, Note_on_c, 0, 68, 0
1, 1590619, Note_on_c, 0, 65, 0
1, 1590890, Note_on_c, 0, 72, 84
1, 1590890, Note_on_c, 0, 68, 88
1, 1590897, Note_on_c, 0, 66, 0
1, 1590897, Note_on_c, 0, 70, 0
1, 1590897, Note_on_c, 0, 75, 0
1, 1590983, Note_on_c, 0, 68, 71
1, 1590983, Note_on_c, 0, 73, 83
1, 1590983, Note_on_c, 0, 66, 88
1, 1590990, Note_on_c, 0, 72, 0
1, 1590990, Note_on_c, 0, 68, 0
1, 1590995, Control_c, 0, 64, 0
1, 1591242, Note_on_c, 0, 65, 83
1, 1591249, Note_on_c, 0, 66, 0
1, 1591329, Note_on_c, 0, 63, 82
1, 1591335, Note_on_c, 0, 65, 0
1, 1591588, Note_on_c, 0, 61, 77
1, 1591595, Note_on_c, 0, 63, 0
1, 1591674, Note_on_c, 0, 73, 0
1, 1591674, Note_on_c, 0, 68, 0
1, 1591674, Note_on_c, 0, 64, 77
1, 1591677, Note_on_c, 0, 68, 77
1, 1591677, Note_on_c, 0, 76, 90
1, 1591677, Note_on_c, 0, 61, 70
1, 1591681, Note_on_c, 0, 61, 0
1, 1591751, Control_c, 0, 64, 127
1, 1591888, Control_c, 0, 64, 0
1, 1591934, Note_on_c, 0, 61, 0
1, 1591934, Note_on_c, 0, 59, 68
1, 1592020, Note_on_c, 0, 59, 0
1, 1592020, Note_on_c, 0, 58, 67
1, 1592279, Note_on_c, 0, 58, 0
1, 1592279, Note_on_c, 0, 56, 65
1, 1592366, Note_on_c, 0, 68, 0
1, 1592366, Note_on_c, 0, 70, 74
1, 1592366, Note_on_c, 0, 63, 74
1, 1592369, Note_on_c, 0, 56, 0
1, 1592369, Note_on_c, 0, 75, 91
1, 1592369, Note_on_c, 0, 55, 63
1, 1592372, Note_on_c, 0, 76, 0
1, 1592372, Note_on_c, 0, 64, 0
1, 1592430, Control_c, 0, 64, 127
1, 1592625, Note_on_c, 0, 55, 0
1, 1592625, Note_on_c, 0, 56, 66
1, 1592711, Note_on_c, 0, 56, 0
1, 1592711, Note_on_c, 0, 61, 66
1, 1592711, Note_on_c, 0, 73, 83
1, 1592714, Note_on_c, 0, 57, 67
1, 1592718, Note_on_c, 0, 75, 0
1, 1592718, Note_on_c, 0, 63, 0
1, 1592736, Control_c, 0, 64, 0
1, 1592812, Control_c, 0, 64, 127
1, 1592970, Note_on_c, 0, 57, 0
1, 1592970, Note_on_c, 0, 58, 70
1, 1593083, Note_on_c, 0, 70, 0
1, 1593083, Control_c, 0, 64, 127
1, 1593083, Note_on_c, 0, 60, 75
1, 1593086, Note_on_c, 0, 58, 0
1, 1593086, Note_on_c, 0, 66, 75
1, 1593086, Note_on_c, 0, 72, 88
1, 1593089, Note_on_c, 0, 61, 0
1, 1593089, Note_on_c, 0, 73, 0
1, 1593089, Note_on_c, 0, 56, 71
1, 1593121, Control_c, 0, 64, 0
1, 1593342, Note_on_c, 0, 56, 0
1, 1593342, Note_on_c, 0, 54, 68
1, 1593428, Note_on_c, 0, 54, 0
1, 1593428, Note_on_c, 0, 53, 67
1, 1593687, Note_on_c, 0, 53, 0
1, 1593687, Note_on_c, 0, 51, 64
1, 1593800, Note_on_c, 0, 66, 0
1, 1593800, Note_on_c, 0, 59, 71
1, 1593800, Note_on_c, 0, 65, 71
1, 1593803, Note_on_c, 0, 51, 0
1, 1593803, Note_on_c, 0, 71, 81
1, 1593803, Note_on_c, 0, 49, 63
1, 1593806, Note_on_c, 0, 60, 0
1, 1593806, Note_on_c, 0, 72, 0
1, 1593849, Control_c, 0, 64, 127
1, 1594059, Note_on_c, 0, 49, 0
1, 1594059, Note_on_c, 0, 51, 66
1, 1594145, Note_on_c, 0, 51, 0
1, 1594145, Note_on_c, 0, 52, 67
1, 1594155, Control_c, 0, 64, 0
1, 1594224, Control_c, 0, 64, 127
1, 1594405, Note_on_c, 0, 52, 0
1, 1594405, Note_on_c, 0, 53, 69
1, 1594491, Note_on_c, 0, 65, 0
1, 1594491, Control_c, 0, 64, 127
1, 1594491, Note_on_c, 0, 58, 62
1, 1594494, Note_on_c, 0, 53, 0
1, 1594494, Note_on_c, 0, 64, 62
1, 1594494, Note_on_c, 0, 70, 78
1, 1594497, Note_on_c, 0, 59, 0
1, 1594497, Note_on_c, 0, 71, 0
1, 1594497, Note_on_c, 0, 54, 70
1, 1594529, Control_c, 0, 64, 0
1, 1594750, Note_on_c, 0, 54, 0
1, 1594750, Note_on_c, 0, 52, 67
1, 1594837, Note_on_c, 0, 52, 0
1, 1594837, Note_on_c, 0, 51, 66
1, 1595096, Note_on_c, 0, 51, 0
1, 1595096, Note_on_c, 0, 49, 64
1, 1595182, Note_on_c, 0, 64, 0
1, 1595182, Note_on_c, 0, 66, 67
1, 1595182, Note_on_c, 0, 61, 67
1, 1595185, Note_on_c, 0, 49, 0
1, 1595185, Note_on_c, 0, 63, 67
1, 1595185, Note_on_c, 0, 73, 86
1, 1595188, Note_on_c, 0, 58, 0
1, 1595188, Note_on_c, 0, 70, 0
1, 1595188, Note_on_c, 0, 47, 63
1, 1595241, Control_c, 0, 64, 127
1, 1595488, Note_on_c, 0, 47, 0
1, 1595488, Note_on_c, 0, 49, 61
1, 1595575, Note_on_c, 0, 63, 0
1, 1595575, Note_on_c, 0, 59, 67
1, 1595575, Note_on_c, 0, 71, 80
1, 1595578, Note_on_c, 0, 49, 0
1, 1595578, Note_on_c, 0, 50, 61
1, 1595582, Note_on_c, 0, 61, 0
1, 1595582, Note_on_c, 0, 73, 0
1, 1595582, Control_c, 0, 64, 0
1, 1595653, Control_c, 0, 64, 127
1, 1595834, Note_on_c, 0, 50, 0
1, 1595834, Note_on_c, 0, 51, 59
1, 1595920, Note_on_c, 0, 66, 0
1, 1595920, Control_c, 0, 64, 127
1, 1595920, Note_on_c, 0, 58, 55
1, 1595923, Note_on_c, 0, 51, 0
1, 1595923, Note_on_c, 0, 66, 55
1, 1595923, Note_on_c, 0, 70, 74
1, 1595926, Note_on_c, 0, 71, 0
1, 1595926, Note_on_c, 0, 59, 0
1, 1595926, Note_on_c, 0, 49, 58
1, 1595959, Control_c, 0, 64, 0
1, 1596180, Note_on_c, 0, 49, 0
1, 1596180, Note_on_c, 0, 48, 56
1, 1596266, Note_on_c, 0, 48, 0
1, 1596266, Note_on_c, 0, 49, 56
1, 1596525, Note_on_c, 0, 49, 0
1, 1596525, Note_on_c, 0, 48, 54
1, 1596612, Note_on_c, 0, 56, 51
1, 1596612, Note_on_c, 0, 65, 62
1, 1596612, Note_on_c, 0, 68, 51
1, 1596615, Note_on_c, 0, 48, 0
1, 1596615, Note_on_c, 0, 49, 53
1, 1596619, Note_on_c, 0, 70, 0
1, 1596619, Note_on_c, 0, 58, 0
1, 1596619, Note_on_c, 0, 66, 0
1, 1596624, Control_c, 0, 64, 0
1, 1596892, Note_on_c, 0, 49, 0
1, 1596892, Note_on_c, 0, 48, 51
1, 1596986, Note_on_c, 0, 48, 0
1, 1596986, Note_on_c, 0, 49, 51
1, 1596993, Note_on_c, 0, 56, 0
1, 1596993, Note_on_c, 0, 68, 0
1, 1596993, Note_on_c, 0, 65, 0
1, 1597267, Note_on_c, 0, 49, 0
1, 1597267, Note_on_c, 0, 48, 49
1, 1597379, Note_on_c, 0, 61, 48
1, 1597379, Note_on_c, 0, 64, 48
1, 1597379, Note_on_c, 0, 68, 66
1, 1597382, Note_on_c, 0, 48, 0
1, 1597382, Note_on_c, 0, 49, 50
1, 1597382, Note_on_c, 0, 56, 62
1, 1597423, Control_c, 0, 64, 127
1, 1597638, Note_on_c, 0, 49, 0
1, 1597638, Note_on_c, 0, 49, 56
1, 1597669, Note_on_c, 0, 49, 0
1, 1597725, Note_on_c, 0, 49, 56
1, 1597735, Control_c, 0, 64, 0
1, 1597772, Note_on_c, 0, 49, 0
1, 1597912, Note_on_c, 0, 49, 57
1, 1597963, Note_on_c, 0, 49, 0
1, 1598116, Note_on_c, 0, 68, 0
1, 1598116, Note_on_c, 0, 61, 0
1, 1598116, Note_on_c, 0, 64, 0
1, 1598119, Note_on_c, 0, 68, 73
1, 1598119, Note_on_c, 0, 61, 56
1, 1598119, Note_on_c, 0, 64, 56
1, 1598122, Note_on_c, 0, 56, 0
1, 1598122, Note_on_c, 0, 56, 72
1, 1598122, Note_on_c, 0, 49, 57
1, 1598176, Control_c, 0, 64, 127
1, 1598397, Note_on_c, 0, 49, 0
1, 1598397, Note_on_c, 0, 49, 58
1, 1598430, Note_on_c, 0, 49, 0
1, 1598491, Note_on_c, 0, 70, 78
1, 1598491, Note_on_c, 0, 58, 80
1, 1598491, Note_on_c, 0, 49, 59
1, 1598497, Note_on_c, 0, 56, 0
1, 1598497, Note_on_c, 0, 68, 0
1, 1598497, Control_c, 0, 64, 0
1, 1598542, Note_on_c, 0, 49, 0
1, 1598558, Control_c, 0, 64, 127
1, 1598695, Note_on_c, 0, 49, 59
1, 1598757, Note_on_c, 0, 49, 0
1, 1598911, Control_c, 0, 64, 0
1, 1598944, Note_on_c, 0, 64, 0
1, 1598944, Note_on_c, 0, 61, 0
1, 1598944, Control_c, 0, 64, 0
1, 1598947, Note_on_c, 0, 63, 69
1, 1598947, Note_on_c, 0, 71, 83
1, 1598947, Note_on_c, 0, 44, 60
1, 1598950, Note_on_c, 0, 58, 0
1, 1598950, Note_on_c, 0, 70, 0
1, 1598950, Note_on_c, 0, 59, 76
1, 1599041, Control_c, 0, 64, 127
1, 1599251, Note_on_c, 0, 44, 0
1, 1599251, Note_on_c, 0, 44, 60
1, 1599281, Note_on_c, 0, 44, 0
1, 1599337, Control_c, 0, 64, 0
1, 1599337, Note_on_c, 0, 44, 60
1, 1599384, Note_on_c, 0, 44, 0
1, 1599524, Note_on_c, 0, 61, 69
1, 1599524, Note_on_c, 0, 70, 79
1, 1599524, Note_on_c, 0, 58, 66
1, 1599527, Note_on_c, 0, 44, 60
1, 1599534, Note_on_c, 0, 71, 0
1, 1599534, Note_on_c, 0, 59, 0
1, 1599534, Note_on_c, 0, 63, 0
1, 1599544, Control_c, 0, 64, 127
1, 1599587, Note_on_c, 0, 44, 0
1, 1599774, Note_on_c, 0, 59, 69
1, 1599774, Note_on_c, 0, 68, 78
1, 1599774, Note_on_c, 0, 56, 62
1, 1599777, Note_on_c, 0, 44, 60
1, 1599781, Note_on_c, 0, 61, 0
1, 1599781, Note_on_c, 0, 70, 0
1, 1599781, Note_on_c, 0, 58, 0
1, 1599785, Control_c, 0, 64, 0
1, 1599837, Control_c, 0, 64, 127
1, 1600033, Note_on_c, 0, 44, 0
1, 1600033, Note_on_c, 0, 44, 60
1, 1600064, Note_on_c, 0, 44, 0
1, 1600120, Note_on_c, 0, 44, 60
1, 1600125, Control_c, 0, 64, 0
1, 1600166, Note_on_c, 0, 44, 0
1, 1600307, Note_on_c, 0, 44, 60
1, 1600369, Note_on_c, 0, 44, 0
1, 1600556, Note_on_c, 0, 68, 0
1, 1600556, Note_on_c, 0, 59, 0
1, 1600556, Note_on_c, 0, 59, 55
1, 1600559, Note_on_c, 0, 56, 0
1, 1600559, Note_on_c, 0, 62, 55
1, 1600559, Note_on_c, 0, 66, 71
1, 1600562, Note_on_c, 0, 47, 60
1, 1600562, Note_on_c, 0, 54, 71
1, 1600601, Control_c, 0, 64, 127
1, 1600816, Note_on_c, 0, 47, 0
1, 1600816, Note_on_c, 0, 47, 60
1, 1600846, Note_on_c, 0, 47, 0
1, 1600902, Note_on_c, 0, 47, 60
1, 1600912, Control_c, 0, 64, 0
1, 1600949, Note_on_c, 0, 47, 0
1, 1601089, Note_on_c, 0, 47, 60
1, 1601140, Note_on_c, 0, 47, 0
1, 1601293, Note_on_c, 0, 59, 0
1, 1601293, Note_on_c, 0, 66, 0
1, 1601293, Note_on_c, 0, 62, 0
1, 1601296, Note_on_c, 0, 66, 73
1, 1601296, Note_on_c, 0, 59, 61
1, 1601296, Note_on_c, 0, 62, 61
1, 1601299, Note_on_c, 0, 54, 0
1, 1601299, Note_on_c, 0, 54, 75
1, 1601299, Note_on_c, 0, 47, 60
1, 1601359, Control_c, 0, 64, 127
1, 1601600, Note_on_c, 0, 47, 0
1, 1601600, Note_on_c, 0, 47, 60
1, 1601630, Note_on_c, 0, 47, 0
1, 1601686, Note_on_c, 0, 68, 77
1, 1601686, Note_on_c, 0, 56, 79
1, 1601686, Note_on_c, 0, 47, 60
1, 1601692, Note_on_c, 0, 54, 0
1, 1601692, Note_on_c, 0, 66, 0
1, 1601692, Control_c, 0, 64, 0
1, 1601737, Note_on_c, 0, 47, 0
1, 1601754, Control_c, 0, 64, 127
1, 1601890, Note_on_c, 0, 47, 60
1, 1601953, Note_on_c, 0, 47, 0
1, 1602085, Control_c, 0, 64, 0
1, 1602140, Note_on_c, 0, 62, 0
1, 1602140, Note_on_c, 0, 59, 0
1, 1602140, Control_c, 0, 64, 0
1, 1602143, Note_on_c, 0, 69, 81
1, 1602143, Note_on_c, 0, 62, 73
1, 1602143, Note_on_c, 0, 42, 60
1, 1602146, Note_on_c, 0, 57, 83
1, 1602149, Note_on_c, 0, 56, 0
1, 1602149, Note_on_c, 0, 68, 0
1, 1602246, Control_c, 0, 64, 127
1, 1602477, Note_on_c, 0, 42, 0
1, 1602477, Note_on_c, 0, 42, 60
1, 1602510, Note_on_c, 0, 42, 0
1, 1602570, Control_c, 0, 64, 0
1, 1602570, Note_on_c, 0, 42, 60
1, 1602617, Note_on_c, 0, 42, 0
1, 1602758, Note_on_c, 0, 66, 73
1, 1602758, Note_on_c, 0, 54, 77
1, 1602758, Note_on_c, 0, 42, 60
1, 1602769, Note_on_c, 0, 69, 0
1, 1602769, Note_on_c, 0, 57, 0
1, 1602780, Control_c, 0, 64, 127
1, 1602828, Note_on_c, 0, 42, 0
1, 1603038, Note_on_c, 0, 62, 0
1, 1603038, Note_on_c, 0, 57, 73
1, 1603038, Note_on_c, 0, 62, 73
1, 1603041, Note_on_c, 0, 50, 73
1, 1603041, Note_on_c, 0, 42, 60
1, 1603046, Note_on_c, 0, 54, 0
1, 1603046, Note_on_c, 0, 66, 0
1, 1603052, Control_c, 0, 64, 0
1, 1603113, Control_c, 0, 64, 127
1, 1603345, Note_on_c, 0, 42, 0
1, 1603345, Note_on_c, 0, 42, 60
1, 1603381, Note_on_c, 0, 42, 0
1, 1603447, Note_on_c, 0, 61, 64
1, 1603447, Note_on_c, 0, 49, 65
1, 1603447, Note_on_c, 0, 42, 60
1, 1603454, Note_on_c, 0, 62, 0
1, 1603454, Note_on_c, 0, 50, 0
1, 1603454, Control_c, 0, 64, 0
1, 1603503, Note_on_c, 0, 42, 0
1, 1603539, Control_c, 0, 64, 127
1, 1603672, Note_on_c, 0, 42, 60
1, 1603742, Note_on_c, 0, 42, 0
1, 1603902, Control_c, 0, 64, 0
1, 1603952, Note_on_c, 0, 57, 0
1, 1603952, Note_on_c, 0, 56, 56
1, 1603952, Note_on_c, 0, 60, 63
1, 1603955, Note_on_c, 0, 49, 0
1, 1603955, Note_on_c, 0, 44, 55
1, 1603955, Note_on_c, 0, 48, 55
1, 1603963, Note_on_c, 0, 61, 0
1, 1604201, Control_c, 0, 64, 0
1, 1604233, Note_on_c, 0, 60, 0
1, 1604233, Note_on_c, 0, 56, 0
1, 1604233, Note_on_c, 0, 56, 69
1, 1604236, Note_on_c, 0, 44, 0
1, 1604236, Note_on_c, 0, 48, 0
1, 1604246, Control_c, 0, 64, 0
1, 1604437, Note_on_c, 0, 56, 0
1, 1604437, Note_on_c, 0, 56, 76
1, 1604437, Note_on_c, 0, 54, 63
1, 1604625, Note_on_c, 0, 56, 0
1, 1604625, Note_on_c, 0, 56, 82
1, 1604812, Note_on_c, 0, 56, 0
1, 1604812, Note_on_c, 0, 61, 89
1, 1604812, Note_on_c, 0, 53, 54
1, 1604819, Note_on_c, 0, 54, 0
1, 1604907, Control_c, 0, 64, 127
1, 1605093, Note_on_c, 0, 56, 85
1, 1605179, Note_on_c, 0, 56, 0
1, 1605179, Note_on_c, 0, 56, 84
1, 1605227, Control_c, 0, 64, 0
1, 1605352, Note_on_c, 0, 56, 0
1, 1605352, Note_on_c, 0, 56, 81
1, 1605494, Control_c, 0, 64, 0
1, 1605525, Note_on_c, 0, 56, 0
1, 1605525, Note_on_c, 0, 61, 0
1, 1605525, Note_on_c, 0, 56, 80
1, 1605528, Note_on_c, 0, 51, 54
1, 1605528, Note_on_c, 0, 61, 90
1, 1605532, Note_on_c, 0, 53, 0
1, 1605591, Control_c, 0, 64, 0
1, 1605712, Note_on_c, 0, 56, 0
1, 1605712, Note_on_c, 0, 54, 80
1, 1605885, Note_on_c, 0, 54, 0
1, 1605885, Note_on_c, 0, 54, 80
1, 1606057, Note_on_c, 0, 54, 0
1, 1606057, Note_on_c, 0, 54, 80
1, 1606230, Note_on_c, 0, 54, 0
1, 1606230, Note_on_c, 0, 51, 0
1, 1606230, Note_on_c, 0, 54, 80
1, 1606233, Note_on_c, 0, 51, 54
1, 1606233, Note_on_c, 0, 60, 81
1, 1606237, Note_on_c, 0, 61, 0
1, 1606271, Control_c, 0, 64, 127
1, 1606403, Note_on_c, 0, 54, 0
1, 1606403, Note_on_c, 0, 54, 83
1, 1606486, Control_c, 0, 64, 0
1, 1606499, Note_on_c, 0, 54, 0
1, 1606533, Note_on_c, 0, 54, 86
1, 1606593, Note_on_c, 0, 54, 0
1, 1606593, Control_c, 0, 64, 0
1, 1606593, Note_on_c, 0, 56, 86
1, 1606678, Control_c, 0, 64, 0
1, 1606799, Note_on_c, 0, 54, 82
1, 1606806, Note_on_c, 0, 56, 0
1, 1606986, Note_on_c, 0, 60, 0
1, 1606986, Note_on_c, 0, 51, 0
1, 1606986, Note_on_c, 0, 51, 54
1, 1606989, Note_on_c, 0, 60, 63
1, 1606989, Note_on_c, 0, 53, 63
1, 1606993, Note_on_c, 0, 54, 0
1, 1607159, Note_on_c, 0, 65, 77
1, 1607332, Note_on_c, 0, 65, 0
1, 1607332, Note_on_c, 0, 53, 0
1, 1607332, Note_on_c, 0, 65, 82
1, 1607335, Note_on_c, 0, 57, 63
1, 1607492, Note_on_c, 0, 65, 0
1, 1607492, Note_on_c, 0, 65, 86
1, 1607613, Note_on_c, 0, 65, 0
1, 1607613, Note_on_c, 0, 65, 83
1, 1607670, Control_c, 0, 64, 0
1, 1607675, Note_on_c, 0, 65, 0
1, 1607675, Note_on_c, 0, 51, 0
1, 1607675, Note_on_c, 0, 70, 89
1, 1607678, Note_on_c, 0, 60, 0
1, 1607678, Note_on_c, 0, 57, 0
1, 1607678, Note_on_c, 0, 49, 54
1, 1607681, Note_on_c, 0, 58, 63
1, 1607770, Control_c, 0, 64, 127
1, 1607982, Note_on_c, 0, 70, 0
1, 1607982, Note_on_c, 0, 65, 85
1, 1608056, Control_c, 0, 64, 0
1, 1608062, Note_on_c, 0, 65, 0
1, 1608062, Note_on_c, 0, 65, 84
1, 1608062, Note_on_c, 0, 53, 63
1, 1608222, Note_on_c, 0, 65, 0
1, 1608222, Note_on_c, 0, 65, 81
1, 1608383, Note_on_c, 0, 65, 0
1, 1608383, Note_on_c, 0, 53, 0
1, 1608383, Note_on_c, 0, 65, 80
1, 1608386, Note_on_c, 0, 58, 0
1, 1608386, Note_on_c, 0, 49, 0
1, 1608386, Note_on_c, 0, 48, 54
1, 1608389, Note_on_c, 0, 58, 56
1, 1608389, Note_on_c, 0, 51, 63
1, 1608555, Note_on_c, 0, 65, 0
1, 1608555, Note_on_c, 0, 63, 80
1, 1608716, Note_on_c, 0, 63, 0
1, 1608716, Note_on_c, 0, 51, 0
1, 1608716, Note_on_c, 0, 63, 80
1, 1608719, Note_on_c, 0, 54, 63
1, 1608876, Note_on_c, 0, 63, 0
1, 1608876, Note_on_c, 0, 63, 80
1, 1609037, Note_on_c, 0, 63, 0
1, 1609037, Note_on_c, 0, 48, 0
1, 1609037, Note_on_c, 0, 63, 80
1, 1609040, Note_on_c, 0, 58, 0
1, 1609040, Note_on_c, 0, 54, 0
1, 1609040, Note_on_c, 0, 53, 63
1, 1609043, Note_on_c, 0, 48, 54
1, 1609043, Note_on_c, 0, 57, 56
1, 1609197, Note_on_c, 0, 63, 0
1, 1609197, Note_on_c, 0, 63, 83
1, 1609318, Note_on_c, 0, 63, 0
1, 1609318, Note_on_c, 0, 63, 82
1, 1609380, Note_on_c, 0, 63, 0
1, 1609380, Note_on_c, 0, 53, 0
1, 1609380, Note_on_c, 0, 65, 86
1, 1609383, Note_on_c, 0, 51, 63
1, 1609567, Note_on_c, 0, 65, 0
1, 1609567, Note_on_c, 0, 63, 82
1, 1609754, Note_on_c, 0, 63, 0
1, 1609754, Note_on_c, 0, 51, 0
1, 1609754, Note_on_c, 0, 61, 81
1, 1609757, Note_on_c, 0, 48, 0
1, 1609757, Note_on_c, 0, 57, 0
1, 1609757, Note_on_c, 0, 46, 60
1, 1609760, Note_on_c, 0, 49, 60
1, 1609760, Note_on_c, 0, 58, 68
1, 1609942, Note_on_c, 0, 73, 89
1, 1610114, Note_on_c, 0, 73, 0
1, 1610114, Note_on_c, 0, 61, 0
1, 1610114, Note_on_c, 0, 73, 90
1, 1610117, Note_on_c, 0, 46, 0
1, 1610117, Note_on_c, 0, 49, 0
1, 1610117, Note_on_c, 0, 68, 81
1, 1610120, Note_on_c, 0, 58, 0
1, 1610120, Note_on_c, 0, 49, 61
1, 1610120, Note_on_c, 0, 53, 61
1, 1610123, Note_on_c, 0, 61, 69
1, 1610123, Note_on_c, 0, 47, 61
1, 1610191, Control_c, 0, 64, 127
1, 1610275, Note_on_c, 0, 73, 0
1, 1610275, Note_on_c, 0, 73, 90
1, 1610395, Note_on_c, 0, 73, 0
1, 1610395, Note_on_c, 0, 73, 87
1, 1610459, Control_c, 0, 64, 0
1, 1610465, Note_on_c, 0, 73, 0
1, 1610465, Note_on_c, 0, 47, 0
1, 1610465, Note_on_c, 0, 78, 91
1, 1610468, Note_on_c, 0, 46, 63
1, 1610560, Control_c, 0, 64, 127
1, 1610746, Note_on_c, 0, 78, 0
1, 1610746, Note_on_c, 0, 73, 91
1, 1610826, Note_on_c, 0, 73, 0
1, 1610826, Note_on_c, 0, 68, 0
1, 1610826, Note_on_c, 0, 73, 91
1, 1610829, Note_on_c, 0, 53, 0
1, 1610829, Note_on_c, 0, 49, 0
1, 1610829, Note_on_c, 0, 66, 81
1, 1610832, Note_on_c, 0, 61, 0
1, 1610832, Note_on_c, 0, 49, 64
1, 1610832, Note_on_c, 0, 54, 64
1, 1610835, Control_c, 0, 64, 0
1, 1610835, Note_on_c, 0, 61, 72
1, 1610963, Control_c, 0, 64, 127
1, 1610987, Note_on_c, 0, 73, 0
1, 1610987, Note_on_c, 0, 73, 92
1, 1611147, Note_on_c, 0, 73, 0
1, 1611147, Control_c, 0, 64, 127
1, 1611147, Note_on_c, 0, 73, 92
1, 1611150, Note_on_c, 0, 46, 0
1, 1611150, Note_on_c, 0, 44, 65
1, 1611208, Control_c, 0, 64, 0
1, 1611320, Note_on_c, 0, 73, 0
1, 1611320, Note_on_c, 0, 71, 93
1, 1611344, Control_c, 0, 64, 127
1, 1611481, Note_on_c, 0, 71, 0
1, 1611481, Note_on_c, 0, 66, 0
1, 1611481, Note_on_c, 0, 71, 93
1, 1611484, Note_on_c, 0, 54, 0
1, 1611484, Note_on_c, 0, 49, 0
1, 1611484, Note_on_c, 0, 66, 81
1, 1611487, Note_on_c, 0, 61, 0
1, 1611487, Note_on_c, 0, 59, 77
1, 1611487, Note_on_c, 0, 51, 67
1, 1611493, Control_c, 0, 64, 0
1, 1611576, Control_c, 0, 64, 127
1, 1611638, Note_on_c, 0, 71, 0
1, 1611638, Note_on_c, 0, 71, 93
1, 1611792, Note_on_c, 0, 71, 0
1, 1611792, Note_on_c, 0, 44, 0
1, 1611792, Note_on_c, 0, 71, 94
1, 1611795, Note_on_c, 0, 51, 0
1, 1611795, Note_on_c, 0, 49, 68
1, 1611942, Note_on_c, 0, 71, 0
1, 1611942, Note_on_c, 0, 71, 94
1, 1612052, Note_on_c, 0, 71, 0
1, 1612052, Note_on_c, 0, 71, 90
1, 1612095, Control_c, 0, 64, 0
1, 1612115, Note_on_c, 0, 71, 0
1, 1612115, Note_on_c, 0, 66, 0
1, 1612115, Note_on_c, 0, 73, 95
1, 1612118, Note_on_c, 0, 59, 0
1, 1612118, Note_on_c, 0, 56, 69
1, 1612118, Note_on_c, 0, 59, 69
1, 1612121, Note_on_c, 0, 65, 79
1, 1612284, Note_on_c, 0, 73, 0
1, 1612284, Note_on_c, 0, 71, 95
1, 1612441, Note_on_c, 0, 71, 0
1, 1612441, Note_on_c, 0, 49, 0
1, 1612441, Note_on_c, 0, 70, 88
1, 1612444, Note_on_c, 0, 59, 0
1, 1612444, Note_on_c, 0, 56, 0
1, 1612444, Note_on_c, 0, 50, 70
1, 1612447, Note_on_c, 0, 56, 70
1, 1612447, Note_on_c, 0, 58, 70
1, 1612610, Note_on_c, 0, 70, 88
1, 1612610, Note_on_c, 0, 82, 100
1, 1612766, Note_on_c, 0, 82, 0
1, 1612766, Note_on_c, 0, 70, 0
1, 1612766, Note_on_c, 0, 70, 0
1, 1612769, Note_on_c, 0, 65, 0
1, 1612769, Note_on_c, 0, 70, 91
1, 1612769, Note_on_c, 0, 82, 103
1, 1612772, Note_on_c, 0, 65, 83
1, 1612840, Control_c, 0, 64, 127
1, 1612922, Note_on_c, 0, 82, 0
1, 1612922, Note_on_c, 0, 70, 0
1, 1612922, Note_on_c, 0, 70, 94
1, 1612925, Note_on_c, 0, 82, 107
1, 1613122, Control_c, 0, 64, 0
1, 1613126, Note_on_c, 0, 82, 0
1, 1613126, Note_on_c, 0, 70, 0
1, 1613126, Note_on_c, 0, 78, 96
1, 1613129, Note_on_c, 0, 56, 0
1, 1613129, Note_on_c, 0, 50, 0
1, 1613129, Note_on_c, 0, 90, 110
1, 1613132, Note_on_c, 0, 58, 0
1, 1613132, Note_on_c, 0, 51, 73
1, 1613132, Note_on_c, 0, 54, 73
1, 1613135, Note_on_c, 0, 58, 73
1, 1613221, Control_c, 0, 64, 127
1, 1613407, Note_on_c, 0, 90, 0
1, 1613407, Note_on_c, 0, 78, 0
1, 1613407, Note_on_c, 0, 70, 91
1, 1613410, Note_on_c, 0, 82, 104
1, 1613493, Note_on_c, 0, 82, 0
1, 1613493, Note_on_c, 0, 70, 0
1, 1613493, Note_on_c, 0, 70, 92
1, 1613496, Note_on_c, 0, 65, 0
1, 1613496, Note_on_c, 0, 82, 105
1, 1613496, Note_on_c, 0, 66, 86
1, 1613503, Control_c, 0, 64, 0
1, 1613640, Control_c, 0, 64, 127
1, 1613666, Note_on_c, 0, 82, 0
1, 1613666, Note_on_c, 0, 70, 0
1, 1613666, Note_on_c, 0, 70, 93
1, 1613669, Note_on_c, 0, 82, 106
1, 1613835, Note_on_c, 0, 82, 0
1, 1613835, Note_on_c, 0, 70, 0
1, 1613835, Control_c, 0, 64, 127
1, 1613838, Note_on_c, 0, 51, 0
1, 1613838, Note_on_c, 0, 70, 94
1, 1613838, Note_on_c, 0, 82, 107
1, 1613841, Note_on_c, 0, 54, 0
1, 1613841, Note_on_c, 0, 58, 0
1, 1613841, Note_on_c, 0, 47, 76
1, 1613844, Note_on_c, 0, 54, 76
1, 1613844, Note_on_c, 0, 56, 76
1, 1613905, Control_c, 0, 64, 0
1, 1614034, Note_on_c, 0, 82, 0
1, 1614034, Note_on_c, 0, 70, 0
1, 1614034, Note_on_c, 0, 68, 89
1, 1614037, Note_on_c, 0, 80, 100
1, 1614057, Control_c, 0, 64, 127
1, 1614191, Note_on_c, 0, 80, 0
1, 1614191, Note_on_c, 0, 68, 0
1, 1614191, Note_on_c, 0, 68, 91
1, 1614194, Note_on_c, 0, 66, 0
1, 1614194, Note_on_c, 0, 80, 103
1, 1614194, Note_on_c, 0, 63, 89
1, 1614203, Control_c, 0, 64, 0
1, 1614284, Control_c, 0, 64, 127
1, 1614344, Note_on_c, 0, 80, 0
1, 1614344, Note_on_c, 0, 68, 0
1, 1614344, Note_on_c, 0, 68, 92
1, 1614347, Note_on_c, 0, 80, 105
1, 1614493, Note_on_c, 0, 80, 0
1, 1614493, Note_on_c, 0, 68, 0
1, 1614493, Note_on_c, 0, 68, 94
1, 1614496, Note_on_c, 0, 47, 0
1, 1614496, Note_on_c, 0, 54, 0
1, 1614496, Note_on_c, 0, 80, 107
1, 1614499, Note_on_c, 0, 56, 0
1, 1614499, Note_on_c, 0, 50, 79
1, 1614499, Note_on_c, 0, 53, 79
1, 1614640, Note_on_c, 0, 68, 0
1, 1614640, Note_on_c, 0, 80, 0
1, 1614640, Note_on_c, 0, 68, 92
1, 1614643, Note_on_c, 0, 80, 105
1, 1614748, Note_on_c, 0, 80, 0
1, 1614748, Note_on_c, 0, 68, 0
1, 1614748, Note_on_c, 0, 68, 86
1, 1614751, Note_on_c, 0, 80, 99
1, 1614800, Control_c, 0, 64, 0
1, 1614823, Note_on_c, 0, 80, 0
1, 1614823, Note_on_c, 0, 68, 0
1, 1614823, Note_on_c, 0, 70, 90
1, 1614826, Note_on_c, 0, 63, 0
1, 1614826, Note_on_c, 0, 82, 103
1, 1614826, Note_on_c, 0, 58, 94
1, 1614979, Note_on_c, 0, 82, 0
1, 1614979, Note_on_c, 0, 70, 0
1, 1614979, Note_on_c, 0, 68, 86
1, 1614982, Note_on_c, 0, 80, 97
1, 1615135, Note_on_c, 0, 80, 0
1, 1615135, Note_on_c, 0, 68, 0
1, 1615135, Note_on_c, 0, 66, 88
1, 1615138, Note_on_c, 0, 53, 0
1, 1615138, Note_on_c, 0, 50, 0
1, 1615138, Note_on_c, 0, 78, 100
1, 1615141, Note_on_c, 0, 51, 79
1, 1615141, Note_on_c, 0, 54, 79
1, 1615183, Control_c, 0, 64, 127
1, 1615291, Note_on_c, 0, 78, 0
1, 1615291, Note_on_c, 0, 66, 0
1, 1615291, Note_on_c, 0, 70, 89
1, 1615294, Note_on_c, 0, 82, 101
1, 1615441, Note_on_c, 0, 82, 0
1, 1615441, Note_on_c, 0, 70, 0
1, 1615441, Note_on_c, 0, 70, 90
1, 1615444, Note_on_c, 0, 54, 0
1, 1615444, Note_on_c, 0, 51, 0
1, 1615444, Note_on_c, 0, 82, 102
1, 1615447, Note_on_c, 0, 58, 0
1, 1615447, Note_on_c, 0, 49, 80
1, 1615447, Note_on_c, 0, 55, 80
1, 1615450, Note_on_c, 0, 63, 90
1, 1615459, Control_c, 0, 64, 0
1, 1615552, Control_c, 0, 64, 127
1, 1615591, Note_on_c, 0, 82, 0
1, 1615591, Note_on_c, 0, 70, 0
1, 1615591, Note_on_c, 0, 70, 90
1, 1615594, Note_on_c, 0, 82, 103
1, 1615763, Note_on_c, 0, 82, 0
1, 1615763, Note_on_c, 0, 70, 0
1, 1615763, Note_on_c, 0, 75, 99
1, 1615766, Note_on_c, 0, 55, 0
1, 1615766, Note_on_c, 0, 49, 0
1, 1615766, Note_on_c, 0, 87, 117
1, 1615769, Note_on_c, 0, 63, 0
1, 1615769, Note_on_c, 0, 48, 81
1, 1615769, Note_on_c, 0, 56, 81
1, 1615772, Control_c, 0, 64, 0
1, 1615772, Note_on_c, 0, 63, 91
1, 1615874, Control_c, 0, 64, 127
1, 1616023, Note_on_c, 0, 87, 0
1, 1616023, Note_on_c, 0, 75, 0
1, 1616023, Note_on_c, 0, 68, 92
1, 1616026, Note_on_c, 0, 80, 105
1, 1616109, Note_on_c, 0, 80, 0
1, 1616109, Note_on_c, 0, 68, 0
1, 1616109, Note_on_c, 0, 68, 91
1, 1616112, Note_on_c, 0, 56, 0
1, 1616112, Note_on_c, 0, 48, 0
1, 1616112, Note_on_c, 0, 80, 103
1, 1616115, Note_on_c, 0, 63, 0
1, 1616115, Note_on_c, 0, 46, 83
1, 1616115, Note_on_c, 0, 51, 83
1, 1616118, Control_c, 0, 64, 0
1, 1616118, Note_on_c, 0, 61, 92
1, 1616189, Control_c, 0, 64, 127
1, 1616269, Note_on_c, 0, 80, 0
1, 1616269, Note_on_c, 0, 68, 0
1, 1616269, Note_on_c, 0, 67, 89
1, 1616272, Note_on_c, 0, 79, 101
1, 1616416, Control_c, 0, 64, 0
1, 1616430, Note_on_c, 0, 79, 0
1, 1616430, Note_on_c, 0, 67, 0
1, 1616430, Note_on_c, 0, 66, 87
1, 1616433, Note_on_c, 0, 51, 0
1, 1616433, Note_on_c, 0, 46, 0
1, 1616433, Note_on_c, 0, 78, 98
1, 1616436, Note_on_c, 0, 61, 0
1, 1616436, Note_on_c, 0, 44, 84
1, 1616436, Note_on_c, 0, 51, 84
1, 1616439, Note_on_c, 0, 60, 94
1, 1616479, Control_c, 0, 64, 127
1, 1616590, Note_on_c, 0, 78, 0
1, 1616590, Note_on_c, 0, 66, 0
1, 1616590, Note_on_c, 0, 75, 95
1, 1616593, Note_on_c, 0, 87, 108
1, 1616740, Note_on_c, 0, 87, 0
1, 1616740, Note_on_c, 0, 75, 0
1, 1616740, Note_on_c, 0, 75, 95
1, 1616743, Note_on_c, 0, 51, 0
1, 1616743, Note_on_c, 0, 44, 0
1, 1616743, Note_on_c, 0, 87, 109
1, 1616746, Note_on_c, 0, 60, 0
1, 1616746, Note_on_c, 0, 42, 85
1, 1616746, Note_on_c, 0, 48, 85
1, 1616749, Note_on_c, 0, 56, 96
1, 1616758, Control_c, 0, 64, 0
1, 1616851, Control_c, 0, 64, 127
1, 1616890, Note_on_c, 0, 87, 0
1, 1616890, Note_on_c, 0, 75, 0
1, 1616890, Note_on_c, 0, 75, 96
1, 1616893, Note_on_c, 0, 87, 109
1, 1617063, Note_on_c, 0, 87, 0
1, 1617063, Note_on_c, 0, 75, 0
1, 1617063, Note_on_c, 0, 80, 105
1, 1617066, Note_on_c, 0, 48, 0
1, 1617066, Note_on_c, 0, 42, 0
1, 1617066, Note_on_c, 0, 92, 117
1, 1617069, Note_on_c, 0, 56, 0
1, 1617069, Note_on_c, 0, 41, 86
1, 1617069, Note_on_c, 0, 49, 86
1, 1617072, Control_c, 0, 64, 0
1, 1617072, Note_on_c, 0, 56, 97
1, 1617173, Control_c, 0, 64, 127
1, 1617322, Note_on_c, 0, 92, 0
1, 1617322, Note_on_c, 0, 80, 0
1, 1617322, Note_on_c, 0, 73, 98
1, 1617325, Note_on_c, 0, 85, 112
1, 1617402, Note_on_c, 0, 85, 0
1, 1617402, Note_on_c, 0, 73, 0
1, 1617402, Note_on_c, 0, 73, 97
1, 1617405, Note_on_c, 0, 49, 0
1, 1617405, Note_on_c, 0, 41, 0
1, 1617405, Note_on_c, 0, 85, 110
1, 1617408, Note_on_c, 0, 56, 0
1, 1617408, Note_on_c, 0, 39, 88
1, 1617408, Note_on_c, 0, 44, 88
1, 1617411, Control_c, 0, 64, 0
1, 1617411, Note_on_c, 0, 54, 98
1, 1617482, Control_c, 0, 64, 127
1, 1617563, Note_on_c, 0, 85, 0
1, 1617563, Note_on_c, 0, 73, 0
1, 1617563, Note_on_c, 0, 72, 95
1, 1617566, Note_on_c, 0, 84, 108
1, 1617709, Control_c, 0, 64, 0
1, 1617723, Note_on_c, 0, 84, 0
1, 1617723, Note_on_c, 0, 72, 0
1, 1617723, Note_on_c, 0, 71, 93
1, 1617726, Note_on_c, 0, 44, 0
1, 1617726, Note_on_c, 0, 39, 0
1, 1617726, Note_on_c, 0, 83, 104
1, 1617729, Note_on_c, 0, 54, 0
1, 1617729, Note_on_c, 0, 37, 89
1, 1617729, Note_on_c, 0, 44, 89
1, 1617732, Note_on_c, 0, 53, 100
1, 1617773, Control_c, 0, 64, 127
1, 1617883, Note_on_c, 0, 83, 0
1, 1617883, Note_on_c, 0, 71, 0
1, 1617883, Note_on_c, 0, 80, 100
1, 1617886, Note_on_c, 0, 92, 115
1, 1618033, Note_on_c, 0, 92, 0
1, 1618033, Note_on_c, 0, 80, 0
1, 1618033, Note_on_c, 0, 80, 101
1, 1618036, Note_on_c, 0, 44, 0
1, 1618036, Note_on_c, 0, 37, 0
1, 1618036, Note_on_c, 0, 92, 115
1, 1618039, Note_on_c, 0, 53, 0
1, 1618039, Note_on_c, 0, 35, 91
1, 1618039, Note_on_c, 0, 41, 91
1, 1618042, Note_on_c, 0, 49, 102
1, 1618051, Control_c, 0, 64, 0
1, 1618144, Control_c, 0, 64, 127
1, 1618183, Note_on_c, 0, 92, 0
1, 1618183, Note_on_c, 0, 80, 0
1, 1618183, Note_on_c, 0, 80, 102
1, 1618186, Note_on_c, 0, 92, 117
1, 1618387, Note_on_c, 0, 92, 0
1, 1618387, Note_on_c, 0, 80, 0
1, 1618387, Note_on_c, 0, 85, 110
1, 1618390, Note_on_c, 0, 41, 0
1, 1618390, Note_on_c, 0, 35, 0
1, 1618390, Note_on_c, 0, 97, 117
1, 1618393, Note_on_c, 0, 49, 0
1, 1618393, Note_on_c, 0, 34, 91
1, 1618393, Note_on_c, 0, 42, 91
1, 1618396, Control_c, 0, 64, 0
1, 1618396, Note_on_c, 0, 49, 103
1, 1618507, Control_c, 0, 64, 127
1, 1618668, Note_on_c, 0, 97, 0
1, 1618668, Note_on_c, 0, 85, 0
1, 1618668, Note_on_c, 0, 78, 103
1, 1618671, Note_on_c, 0, 90, 117
1, 1618762, Note_on_c, 0, 90, 0
1, 1618762, Note_on_c, 0, 78, 0
1, 1618762, Note_on_c, 0, 78, 104
1, 1618765, Note_on_c, 0, 42, 0
1, 1618765, Note_on_c, 0, 34, 0
1, 1618765, Note_on_c, 0, 90, 117
1, 1618768, Note_on_c, 0, 49, 0
1, 1618768, Note_on_c, 0, 32, 93
1, 1618768, Note_on_c, 0, 37, 93
1, 1618771, Control_c, 0, 64, 0
1, 1618771, Note_on_c, 0, 47, 105
1, 1618863, Control_c, 0, 64, 127
1, 1618966, Note_on_c, 0, 90, 0
1, 1618966, Note_on_c, 0, 78, 0
1, 1618966, Note_on_c, 0, 77, 105
1, 1618969, Note_on_c, 0, 89, 117
1, 1619171, Control_c, 0, 64, 0
1, 1619190, Note_on_c, 0, 89, 0
1, 1619190, Note_on_c, 0, 77, 0
1, 1619190, Note_on_c, 0, 76, 109
1, 1619193, Note_on_c, 0, 37, 0
1, 1619193, Note_on_c, 0, 32, 0
1, 1619193, Note_on_c, 0, 88, 117
1, 1619196, Note_on_c, 0, 47, 0
1, 1619196, Note_on_c, 0, 31, 109
1, 1619196, Note_on_c, 0, 37, 97
1, 1619199, Note_on_c, 0, 46, 97
1, 1619310, Control_c, 0, 64, 0
1, 1619518, Control_c, 0, 64, 127
1, 1619527, Note_on_c, 0, 88, 0
1, 1619527, Note_on_c, 0, 76, 0
1, 1619527, Note_on_c, 0, 76, 101
1, 1619530, Note_on_c, 0, 31, 0
1, 1619530, Note_on_c, 0, 85, 101
1, 1619530, Note_on_c, 0, 88, 113
1, 1619533, Note_on_c, 0, 46, 0
1, 1619533, Note_on_c, 0, 37, 0
1, 1619533, Note_on_c, 0, 31, 102
1, 1619536, Note_on_c, 0, 43, 90
1, 1619608, Note_on_c, 0, 76, 0
1, 1619608, Note_on_c, 0, 88, 0
1, 1619608, Note_on_c, 0, 85, 0
1, 1619611, Note_on_c, 0, 76, 116
1, 1619611, Note_on_c, 0, 85, 117
1, 1619611, Note_on_c, 0, 88, 117
1, 1619614, Note_on_c, 0, 31, 0
1, 1619614, Note_on_c, 0, 43, 0
1, 1619614, Note_on_c, 0, 31, 117
1, 1619617, Note_on_c, 0, 43, 113
1, 1620039, Control_c, 0, 64, 0
1, 1620089, Note_on_c, 0, 85, 0
1, 1620089, Note_on_c, 0, 88, 0
1, 1620089, Note_on_c, 0, 76, 0
1, 1620092, Note_on_c, 0, 75, 95
1, 1620092, Note_on_c, 0, 83, 95
1, 1620092, Note_on_c, 0, 87, 108
1, 1620095, Note_on_c, 0, 31, 0
1, 1620095, Note_on_c, 0, 43, 0
1, 1620095, Note_on_c, 0, 32, 89
1, 1620098, Note_on_c, 0, 44, 98
1, 1620137, Note_on_c, 0, 83, 0
1, 1620137, Note_on_c, 0, 87, 0
1, 1620137, Note_on_c, 0, 75, 0
1, 1620140, Note_on_c, 0, 32, 0
1, 1620140, Note_on_c, 0, 44, 0
1, 1620249, Note_on_c, 0, 73, 96
1, 1620249, Note_on_c, 0, 82, 96
1, 1620249, Note_on_c, 0, 85, 109
1, 1620252, Note_on_c, 0, 34, 90
1, 1620252, Note_on_c, 0, 46, 100
1, 1620298, Note_on_c, 0, 85, 0
1, 1620298, Note_on_c, 0, 73, 0
1, 1620298, Note_on_c, 0, 82, 0
1, 1620301, Note_on_c, 0, 34, 0
1, 1620301, Note_on_c, 0, 46, 0
1, 1620410, Note_on_c, 0, 71, 96
1, 1620410, Note_on_c, 0, 80, 96
1, 1620410, Note_on_c, 0, 83, 110
1, 1620413, Note_on_c, 0, 35, 91
1, 1620413, Note_on_c, 0, 47, 100
1, 1620458, Note_on_c, 0, 83, 0
1, 1620458, Note_on_c, 0, 71, 0
1, 1620458, Note_on_c, 0, 80, 0
1, 1620461, Note_on_c, 0, 35, 0
1, 1620461, Note_on_c, 0, 47, 0
1, 1620570, Note_on_c, 0, 70, 97
1, 1620570, Note_on_c, 0, 78, 97
1, 1620570, Note_on_c, 0, 82, 111
1, 1620573, Note_on_c, 0, 37, 92
1, 1620573, Note_on_c, 0, 49, 101
1, 1620619, Note_on_c, 0, 82, 0
1, 1620619, Note_on_c, 0, 70, 0
1, 1620619, Note_on_c, 0, 78, 0
1, 1620622, Note_on_c, 0, 37, 0
1, 1620622, Note_on_c, 0, 49, 0
1, 1620731, Note_on_c, 0, 68, 98
1, 1620731, Note_on_c, 0, 77, 98
1, 1620731, Note_on_c, 0, 80, 113
1, 1620734, Note_on_c, 0, 38, 93
1, 1620734, Note_on_c, 0, 50, 103
1, 1620779, Note_on_c, 0, 80, 0
1, 1620779, Note_on_c, 0, 68, 0
1, 1620779, Note_on_c, 0, 77, 0
1, 1620782, Note_on_c, 0, 38, 0
1, 1620782, Note_on_c, 0, 50, 0
1, 1620891, Note_on_c, 0, 66, 100
1, 1620891, Note_on_c, 0, 75, 100
1, 1620891, Note_on_c, 0, 78, 114
1, 1620894, Note_on_c, 0, 39, 94
1, 1620894, Note_on_c, 0, 51, 104
1, 1620940, Note_on_c, 0, 78, 0
1, 1620940, Note_on_c, 0, 66, 0
1, 1620940, Note_on_c, 0, 75, 0
1, 1620943, Note_on_c, 0, 39, 0
1, 1620943, Note_on_c, 0, 51, 0
1, 1621052, Note_on_c, 0, 63, 101
1, 1621052, Note_on_c, 0, 71, 101
1, 1621052, Note_on_c, 0, 75, 115
1, 1621055, Note_on_c, 0, 41, 95
1, 1621055, Note_on_c, 0, 53, 105
1, 1621104, Note_on_c, 0, 75, 0
1, 1621104, Note_on_c, 0, 63, 0
1, 1621104, Note_on_c, 0, 71, 0
1, 1621107, Note_on_c, 0, 41, 0
1, 1621107, Note_on_c, 0, 53, 0
1, 1621225, Note_on_c, 0, 61, 102
1, 1621225, Note_on_c, 0, 70, 102
1, 1621225, Note_on_c, 0, 73, 117
1, 1621228, Note_on_c, 0, 42, 96
1, 1621228, Note_on_c, 0, 54, 107
1, 1621277, Note_on_c, 0, 73, 0
1, 1621277, Note_on_c, 0, 61, 0
1, 1621277, Note_on_c, 0, 70, 0
1, 1621280, Note_on_c, 0, 42, 0
1, 1621280, Note_on_c, 0, 54, 0
1, 1621397, Note_on_c, 0, 63, 102
1, 1621397, Note_on_c, 0, 68, 102
1, 1621397, Note_on_c, 0, 71, 117
1, 1621400, Note_on_c, 0, 47, 97
1, 1621400, Note_on_c, 0, 59, 107
1, 1621454, Note_on_c, 0, 71, 0
1, 1621454, Note_on_c, 0, 63, 0
1, 1621454, Note_on_c, 0, 68, 0
1, 1621457, Note_on_c, 0, 47, 0
1, 1621457, Note_on_c, 0, 59, 0
1, 1621585, Note_on_c, 0, 66, 103
1, 1621585, Note_on_c, 0, 70, 117
1, 1621585, Note_on_c, 0, 49, 98
1, 1621588, Note_on_c, 0, 61, 109
1, 1621641, Note_on_c, 0, 49, 0
1, 1621641, Note_on_c, 0, 66, 0
1, 1621641, Note_on_c, 0, 70, 0
1, 1621644, Note_on_c, 0, 61, 0
1, 1621772, Note_on_c, 0, 59, 105
1, 1621772, Note_on_c, 0, 61, 105
1, 1621772, Note_on_c, 0, 65, 105
1, 1621775, Note_on_c, 0, 68, 117
1, 1621775, Note_on_c, 0, 37, 99
1, 1621775, Note_on_c, 0, 49, 110
1, 1621839, Note_on_c, 0, 65, 0
1, 1621839, Note_on_c, 0, 59, 0
1, 1621839, Note_on_c, 0, 61, 0
1, 1621842, Note_on_c, 0, 68, 0
1, 1621842, Note_on_c, 0, 37, 0
1, 1621842, Note_on_c, 0, 49, 0
1, 1621996, Note_on_c, 0, 58, 108
1, 1621996, Note_on_c, 0, 61, 108
1, 1621996, Note_on_c, 0, 66, 117
1, 1621999, Note_on_c, 0, 30, 99
1, 1621999, Note_on_c, 0, 42, 108
1, 1622134, Control_c, 0, 64, 127
1, 1622169, Note_on_c, 0, 66, 0
1, 1622169, Note_on_c, 0, 58, 0
1, 1622169, Note_on_c, 0, 61, 0
1, 1622256, Note_on_c, 0, 73, 110
1, 1622342, Note_on_c, 0, 73, 0
1, 1622342, Note_on_c, 0, 73, 110
1, 1622502, Note_on_c, 0, 73, 0
1, 1622583, Note_on_c, 0, 73, 110
1, 1622636, Note_on_c, 0, 73, 0
1, 1622636, Note_on_c, 0, 73, 110
1, 1622690, Note_on_c, 0, 73, 0
1, 1622690, Note_on_c, 0, 78, 117
1, 1622690, Note_on_c, 0, 66, 113
1, 1622862, Note_on_c, 0, 78, 0
1, 1622949, Note_on_c, 0, 70, 110
1, 1623035, Note_on_c, 0, 70, 0
1, 1623035, Note_on_c, 0, 66, 0
1, 1623035, Note_on_c, 0, 70, 110
1, 1623038, Note_on_c, 0, 61, 113
1, 1623196, Note_on_c, 0, 70, 0
1, 1623276, Note_on_c, 0, 70, 110
1, 1623329, Note_on_c, 0, 70, 0
1, 1623329, Note_on_c, 0, 70, 110
1, 1623383, Note_on_c, 0, 70, 0
1, 1623383, Control_c, 0, 64, 127
1, 1623383, Note_on_c, 0, 73, 114
1, 1623386, Note_on_c, 0, 61, 0
1, 1623386, Note_on_c, 0, 58, 113
1, 1623555, Note_on_c, 0, 73, 0
1, 1623642, Note_on_c, 0, 66, 110
1, 1623728, Note_on_c, 0, 66, 0
1, 1623728, Note_on_c, 0, 58, 0
1, 1623728, Note_on_c, 0, 66, 110
1, 1623731, Note_on_c, 0, 54, 113
1, 1623889, Note_on_c, 0, 66, 0
1, 1623969, Note_on_c, 0, 66, 110
1, 1624023, Note_on_c, 0, 66, 0
1, 1624023, Note_on_c, 0, 66, 110
1, 1624076, Note_on_c, 0, 42, 0
1, 1624076, Note_on_c, 0, 30, 0
1, 1624076, Note_on_c, 0, 70, 110
1, 1624079, Note_on_c, 0, 54, 0
1, 1624079, Note_on_c, 0, 62, 113
1, 1624125, Control_c, 0, 64, 0
1, 1624225, Control_c, 0, 64, 127
1, 1624335, Note_on_c, 0, 62, 110
1, 1624335, Note_on_c, 0, 42, 110
1, 1624421, Note_on_c, 0, 62, 0
1, 1624421, Note_on_c, 0, 62, 0
1, 1624421, Note_on_c, 0, 62, 110
1, 1624424, Note_on_c, 0, 42, 0
1, 1624424, Note_on_c, 0, 42, 110
1, 1624594, Note_on_c, 0, 42, 0
1, 1624594, Note_on_c, 0, 62, 0
1, 1624681, Note_on_c, 0, 62, 110
1, 1624681, Note_on_c, 0, 42, 110
1, 1624729, Control_c, 0, 64, 0
1, 1624767, Note_on_c, 0, 62, 0
1, 1624767, Note_on_c, 0, 66, 0
1, 1624767, Note_on_c, 0, 70, 0
1, 1624770, Note_on_c, 0, 63, 99
1, 1624770, Note_on_c, 0, 66, 99
1, 1624770, Note_on_c, 0, 71, 115
1, 1624773, Note_on_c, 0, 42, 0
1, 1624773, Note_on_c, 0, 30, 117
1, 1624904, Control_c, 0, 64, 127
1, 1625026, Note_on_c, 0, 54, 103
1, 1625113, Note_on_c, 0, 63, 0
1, 1625113, Note_on_c, 0, 71, 0
1, 1625113, Note_on_c, 0, 66, 0
1, 1625116, Note_on_c, 0, 54, 0
1, 1625116, Note_on_c, 0, 54, 103
1, 1625273, Note_on_c, 0, 54, 0
1, 1625353, Note_on_c, 0, 54, 103
1, 1625407, Note_on_c, 0, 54, 0
1, 1625407, Note_on_c, 0, 54, 103
1, 1625460, Note_on_c, 0, 71, 106
1, 1625460, Note_on_c, 0, 75, 106
1, 1625460, Note_on_c, 0, 78, 106
1, 1625463, Note_on_c, 0, 54, 0
1, 1625463, Note_on_c, 0, 83, 117
1, 1625463, Note_on_c, 0, 59, 117
1, 1625633, Note_on_c, 0, 59, 0
1, 1625719, Note_on_c, 0, 51, 103
1, 1625806, Note_on_c, 0, 71, 0
1, 1625806, Note_on_c, 0, 78, 0
1, 1625806, Note_on_c, 0, 75, 0
1, 1625809, Note_on_c, 0, 83, 0
1, 1625809, Note_on_c, 0, 66, 106
1, 1625809, Note_on_c, 0, 78, 117
1, 1625812, Note_on_c, 0, 51, 0
1, 1625812, Note_on_c, 0, 51, 103
1, 1625966, Note_on_c, 0, 51, 0
1, 1626046, Note_on_c, 0, 51, 103
1, 1626100, Note_on_c, 0, 51, 0
1, 1626100, Note_on_c, 0, 51, 103
1, 1626153, Note_on_c, 0, 78, 0
1, 1626153, Note_on_c, 0, 66, 0
1, 1626153, Control_c, 0, 64, 127
1, 1626156, Note_on_c, 0, 63, 106
1, 1626156, Note_on_c, 0, 66, 106
1, 1626156, Note_on_c, 0, 71, 106
1, 1626159, Note_on_c, 0, 51, 0
1, 1626159, Note_on_c, 0, 75, 117
1, 1626159, Note_on_c, 0, 54, 103
1, 1626326, Note_on_c, 0, 54, 0
1, 1626413, Note_on_c, 0, 47, 103
1, 1626499, Note_on_c, 0, 63, 0
1, 1626499, Note_on_c, 0, 71, 0
1, 1626499, Note_on_c, 0, 66, 0
1, 1626502, Note_on_c, 0, 75, 0
1, 1626502, Note_on_c, 0, 59, 106
1, 1626502, Note_on_c, 0, 71, 117
1, 1626505, Note_on_c, 0, 47, 0
1, 1626505, Note_on_c, 0, 47, 103
1, 1626672, Note_on_c, 0, 47, 0
1, 1626758, Note_on_c, 0, 47, 103
1, 1626816, Note_on_c, 0, 47, 0
1, 1626816, Note_on_c, 0, 47, 103
1, 1626869, Note_on_c, 0, 71, 0
1, 1626869, Note_on_c, 0, 59, 0
1, 1626869, Note_on_c, 0, 67, 106
1, 1626872, Note_on_c, 0, 71, 106
1, 1626872, Note_on_c, 0, 75, 106
1, 1626872, Note_on_c, 0, 79, 117
1, 1626875, Note_on_c, 0, 30, 0
1, 1626875, Note_on_c, 0, 47, 0
1, 1626875, Note_on_c, 0, 51, 117
1, 1626919, Control_c, 0, 64, 0
1, 1627018, Control_c, 0, 64, 127
1, 1627128, Note_on_c, 0, 42, 113
1, 1627215, Note_on_c, 0, 42, 0
1, 1627215, Note_on_c, 0, 51, 0
1, 1627215, Note_on_c, 0, 42, 113
1, 1627388, Note_on_c, 0, 42, 0
1, 1627474, Note_on_c, 0, 42, 113
1, 1627522, Control_c, 0, 64, 0
1, 1627560, Note_on_c, 0, 75, 0
1, 1627560, Note_on_c, 0, 71, 0
1, 1627560, Note_on_c, 0, 67, 0
1, 1627563, Note_on_c, 0, 79, 0
1, 1627563, Note_on_c, 0, 68, 108
1, 1627563, Note_on_c, 0, 72, 108
1, 1627566, Note_on_c, 0, 42, 0
1, 1627566, Note_on_c, 0, 75, 117
1, 1627566, Note_on_c, 0, 80, 108
1, 1627569, Note_on_c, 0, 30, 99
1, 1627698, Control_c, 0, 64, 127
1, 1627733, Note_on_c, 0, 75, 0
1, 1627733, Note_on_c, 0, 68, 0
1, 1627733, Note_on_c, 0, 72, 0
1, 1627736, Note_on_c, 0, 80, 0
1, 1627820, Note_on_c, 0, 75, 110
1, 1627906, Note_on_c, 0, 75, 0
1, 1627906, Note_on_c, 0, 75, 110
1, 1628066, Note_on_c, 0, 75, 0
1, 1628147, Note_on_c, 0, 75, 110
1, 1628200, Note_on_c, 0, 75, 0
1, 1628200, Note_on_c, 0, 75, 110
1, 1628253, Note_on_c, 0, 75, 0
1, 1628253, Note_on_c, 0, 80, 117
1, 1628253, Note_on_c, 0, 68, 113
1, 1628426, Note_on_c, 0, 80, 0
1, 1628513, Note_on_c, 0, 72, 110
1, 1628599, Note_on_c, 0, 72, 0
1, 1628599, Note_on_c, 0, 68, 0
1, 1628599, Note_on_c, 0, 72, 110
1, 1628602, Note_on_c, 0, 63, 113
1, 1628760, Note_on_c, 0, 72, 0
1, 1628840, Note_on_c, 0, 72, 110
1, 1628893, Note_on_c, 0, 72, 0
1, 1628893, Note_on_c, 0, 72, 110
1, 1628947, Note_on_c, 0, 72, 0
1, 1628947, Control_c, 0, 64, 127
1, 1628947, Note_on_c, 0, 75, 114
1, 1628950, Note_on_c, 0, 63, 0
1, 1628950, Note_on_c, 0, 60, 113
1, 1629119, Note_on_c, 0, 75, 0
1, 1629206, Note_on_c, 0, 68, 110
1, 1629292, Note_on_c, 0, 68, 0
1, 1629292, Note_on_c, 0, 60, 0
1, 1629292, Note_on_c, 0, 68, 110
1, 1629295, Note_on_c, 0, 56, 113
1, 1629453, Note_on_c, 0, 68, 0
1, 1629533, Note_on_c, 0, 68, 110
1, 1629587, Note_on_c, 0, 68, 0
1, 1629587, Note_on_c, 0, 68, 110
1, 1629640, Note_on_c, 0, 56, 0
1, 1629640, Note_on_c, 0, 30, 0
1, 1629640, Note_on_c, 0, 72, 110
1, 1629643, Note_on_c, 0, 64, 113
1, 1629689, Control_c, 0, 64, 0
1, 1629789, Control_c, 0, 64, 127
1, 1629899, Note_on_c, 0, 64, 110
1, 1629899, Note_on_c, 0, 42, 110
1, 1629985, Note_on_c, 0, 64, 0
1, 1629985, Note_on_c, 0, 64, 0
1, 1629985, Note_on_c, 0, 64, 110
1, 1629988, Note_on_c, 0, 42, 0
1, 1629988, Note_on_c, 0, 42, 110
1, 1630158, Note_on_c, 0, 42, 0
1, 1630158, Note_on_c, 0, 64, 0
1, 1630245, Note_on_c, 0, 64, 110
1, 1630245, Note_on_c, 0, 42, 110
1, 1630293, Control_c, 0, 64, 0
1, 1630331, Note_on_c, 0, 64, 0
1, 1630331, Note_on_c, 0, 68, 0
1, 1630331, Note_on_c, 0, 72, 0
1, 1630334, Note_on_c, 0, 65, 99
1, 1630334, Note_on_c, 0, 68, 99
1, 1630334, Note_on_c, 0, 71, 99
1, 1630337, Note_on_c, 0, 42, 0
1, 1630337, Note_on_c, 0, 73, 114
1, 1630337, Note_on_c, 0, 30, 117
1, 1630468, Control_c, 0, 64, 127
1, 1630590, Note_on_c, 0, 56, 103
1, 1630677, Note_on_c, 0, 65, 0
1, 1630677, Note_on_c, 0, 71, 0
1, 1630677, Note_on_c, 0, 68, 0
1, 1630680, Note_on_c, 0, 73, 0
1, 1630680, Note_on_c, 0, 56, 0
1, 1630680, Note_on_c, 0, 56, 103
1, 1630837, Note_on_c, 0, 56, 0
1, 1630917, Note_on_c, 0, 56, 103
1, 1630971, Note_on_c, 0, 56, 0
1, 1630971, Note_on_c, 0, 56, 103
1, 1631024, Note_on_c, 0, 73, 99
1, 1631024, Note_on_c, 0, 77, 99
1, 1631024, Note_on_c, 0, 80, 99
1, 1631027, Note_on_c, 0, 56, 0
1, 1631027, Note_on_c, 0, 83, 99
1, 1631027, Note_on_c, 0, 85, 117
1, 1631030, Note_on_c, 0, 61, 117
1, 1631197, Note_on_c, 0, 61, 0
1, 1631283, Note_on_c, 0, 53, 103
1, 1631370, Note_on_c, 0, 73, 0
1, 1631370, Note_on_c, 0, 80, 0
1, 1631370, Note_on_c, 0, 77, 0
1, 1631373, Note_on_c, 0, 83, 0
1, 1631373, Note_on_c, 0, 85, 0
1, 1631373, Note_on_c, 0, 68, 106
1, 1631376, Note_on_c, 0, 53, 0
1, 1631376, Note_on_c, 0, 80, 117
1, 1631376, Note_on_c, 0, 53, 103
1, 1631530, Note_on_c, 0, 53, 0
1, 1631610, Note_on_c, 0, 53, 103
1, 1631664, Note_on_c, 0, 53, 0
1, 1631664, Note_on_c, 0, 53, 103
1, 1631717, Note_on_c, 0, 80, 0
1, 1631717, Note_on_c, 0, 68, 0
1, 1631717, Control_c, 0, 64, 127
1, 1631720, Note_on_c, 0, 65, 106
1, 1631720, Note_on_c, 0, 68, 106
1, 1631720, Note_on_c, 0, 73, 106
1, 1631723, Note_on_c, 0, 53, 0
1, 1631723, Note_on_c, 0, 77, 117
1, 1631723, Note_on_c, 0, 56, 103
1, 1631890, Note_on_c, 0, 56, 0
1, 1631976, Note_on_c, 0, 49, 103
1, 1632063, Note_on_c, 0, 65, 0
1, 1632063, Note_on_c, 0, 73, 0
1, 1632063, Note_on_c, 0, 68, 0
1, 1632066, Note_on_c, 0, 77, 0
1, 1632066, Note_on_c, 0, 61, 106
1, 1632066, Note_on_c, 0, 73, 117
1, 1632069, Note_on_c, 0, 49, 0
1, 1632069, Note_on_c, 0, 49, 103
1, 1632236, Note_on_c, 0, 49, 0
1, 1632322, Note_on_c, 0, 49, 103
1, 1632380, Note_on_c, 0, 49, 0
1, 1632380, Note_on_c, 0, 49, 103
1, 1632433, Note_on_c, 0, 73, 0
1, 1632433, Note_on_c, 0, 61, 0
1, 1632433, Note_on_c, 0, 69, 106
1, 1632436, Note_on_c, 0, 73, 106
1, 1632436, Note_on_c, 0, 77, 106
1, 1632436, Note_on_c, 0, 81, 117
1, 1632439, Note_on_c, 0, 30, 0
1, 1632439, Note_on_c, 0, 49, 0
1, 1632439, Note_on_c, 0, 53, 117
1, 1632483, Control_c, 0, 64, 0
1, 1632582, Control_c, 0, 64, 127
1, 1632692, Note_on_c, 0, 42, 113
1, 1632779, Note_on_c, 0, 42, 0
1, 1632779, Note_on_c, 0, 53, 0
1, 1632779, Note_on_c, 0, 42, 113
1, 1632951, Note_on_c, 0, 42, 0
1, 1633038, Note_on_c, 0, 42, 113
1, 1633086, Control_c, 0, 64, 0
1, 1633124, Note_on_c, 0, 77, 0
1, 1633124, Note_on_c, 0, 73, 0
1, 1633124, Note_on_c, 0, 69, 0
1, 1633127, Note_on_c, 0, 81, 0
1, 1633127, Note_on_c, 0, 70, 108
1, 1633127, Note_on_c, 0, 73, 108
1, 1633130, Note_on_c, 0, 42, 0
1, 1633130, Note_on_c, 0, 78, 117
1, 1633130, Note_on_c, 0, 82, 108
1, 1633133, Note_on_c, 0, 30, 99
1, 1633133, Note_on_c, 0, 42, 99
1, 1633262, Control_c, 0, 64, 127
1, 1633297, Note_on_c, 0, 78, 0
1, 1633297, Note_on_c, 0, 70, 0
1, 1633297, Note_on_c, 0, 73, 0
1, 1633300, Note_on_c, 0, 82, 0
1, 1633383, Note_on_c, 0, 73, 110
1, 1633470, Note_on_c, 0, 73, 0
1, 1633470, Note_on_c, 0, 73, 110
1, 1633630, Note_on_c, 0, 73, 0
1, 1633711, Note_on_c, 0, 73, 110
1, 1633764, Note_on_c, 0, 73, 0
1, 1633764, Note_on_c, 0, 73, 110
1, 1633817, Note_on_c, 0, 73, 0
1, 1633817, Note_on_c, 0, 78, 117
1, 1633817, Note_on_c, 0, 66, 113
1, 1633990, Note_on_c, 0, 78, 0
1, 1634077, Note_on_c, 0, 70, 110
1, 1634163, Note_on_c, 0, 70, 0
1, 1634163, Note_on_c, 0, 66, 0
1, 1634163, Note_on_c, 0, 70, 110
1, 1634166, Note_on_c, 0, 61, 113
1, 1634323, Note_on_c, 0, 70, 0
1, 1634404, Note_on_c, 0, 70, 110
1, 1634457, Note_on_c, 0, 70, 0
1, 1634457, Note_on_c, 0, 70, 110
1, 1634511, Note_on_c, 0, 70, 0
1, 1634511, Control_c, 0, 64, 127
1, 1634511, Note_on_c, 0, 73, 114
1, 1634514, Note_on_c, 0, 61, 0
1, 1634514, Note_on_c, 0, 58, 113
1, 1634683, Note_on_c, 0, 73, 0
1, 1634770, Note_on_c, 0, 66, 110
1, 1634856, Note_on_c, 0, 66, 0
1, 1634856, Note_on_c, 0, 58, 0
1, 1634856, Note_on_c, 0, 66, 110
1, 1634859, Note_on_c, 0, 54, 113
1, 1635017, Note_on_c, 0, 66, 0
1, 1635097, Note_on_c, 0, 66, 110
1, 1635150, Note_on_c, 0, 66, 0
1, 1635150, Note_on_c, 0, 66, 110
1, 1635204, Note_on_c, 0, 42, 0
1, 1635204, Note_on_c, 0, 30, 0
1, 1635204, Note_on_c, 0, 70, 110
1, 1635207, Note_on_c, 0, 54, 0
1, 1635207, Note_on_c, 0, 62, 113
1, 1635253, Control_c, 0, 64, 0
1, 1635353, Control_c, 0, 64, 127
1, 1635463, Note_on_c, 0, 62, 110
1, 1635463, Note_on_c, 0, 42, 110
1, 1635549, Note_on_c, 0, 62, 0
1, 1635549, Note_on_c, 0, 62, 0
1, 1635549, Note_on_c, 0, 62, 110
1, 1635552, Note_on_c, 0, 42, 0
1, 1635552, Note_on_c, 0, 42, 110
1, 1635722, Note_on_c, 0, 42, 0
1, 1635722, Note_on_c, 0, 62, 0
1, 1635809, Note_on_c, 0, 62, 110
1, 1635809, Note_on_c, 0, 42, 110
1, 1635857, Control_c, 0, 64, 0
1, 1635895, Note_on_c, 0, 62, 0
1, 1635895, Note_on_c, 0, 66, 0
1, 1635895, Note_on_c, 0, 70, 0
1, 1635898, Note_on_c, 0, 63, 99
1, 1635898, Note_on_c, 0, 66, 99
1, 1635898, Note_on_c, 0, 71, 115
1, 1635901, Note_on_c, 0, 42, 0
1, 1635901, Note_on_c, 0, 30, 117
1, 1636032, Control_c, 0, 64, 127
1, 1636154, Note_on_c, 0, 54, 103
1, 1636241, Note_on_c, 0, 63, 0
1, 1636241, Note_on_c, 0, 71, 0
1, 1636241, Note_on_c, 0, 66, 0
1, 1636244, Note_on_c, 0, 54, 0
1, 1636244, Note_on_c, 0, 54, 103
1, 1636401, Note_on_c, 0, 54, 0
1, 1636481, Note_on_c, 0, 54, 103
1, 1636535, Note_on_c, 0, 54, 0
1, 1636535, Note_on_c, 0, 54, 103
1, 1636588, Note_on_c, 0, 71, 106
1, 1636588, Note_on_c, 0, 75, 106
1, 1636588, Note_on_c, 0, 78, 106
1, 1636591, Note_on_c, 0, 54, 0
1, 1636591, Note_on_c, 0, 83, 117
1, 1636591, Note_on_c, 0, 59, 117
1, 1636761, Note_on_c, 0, 59, 0
1, 1636847, Note_on_c, 0, 51, 103
1, 1636934, Note_on_c, 0, 71, 0
1, 1636934, Note_on_c, 0, 78, 0
1, 1636934, Note_on_c, 0, 75, 0
1, 1636937, Note_on_c, 0, 83, 0
1, 1636937, Note_on_c, 0, 66, 106
1, 1636937, Note_on_c, 0, 78, 117
1, 1636940, Note_on_c, 0, 51, 0
1, 1636940, Note_on_c, 0, 51, 103
1, 1637094, Note_on_c, 0, 51, 0
1, 1637174, Note_on_c, 0, 51, 103
1, 1637228, Note_on_c, 0, 51, 0
1, 1637228, Note_on_c, 0, 51, 103
1, 1637281, Note_on_c, 0, 78, 0
1, 1637281, Note_on_c, 0, 66, 0
1, 1637281, Control_c, 0, 64, 127
1, 1637284, Note_on_c, 0, 63, 106
1, 1637284, Note_on_c, 0, 66, 106
1, 1637284, Note_on_c, 0, 71, 106
1, 1637287, Note_on_c, 0, 51, 0
1, 1637287, Note_on_c, 0, 75, 117
1, 1637287, Note_on_c, 0, 54, 103
1, 1637454, Note_on_c, 0, 54, 0
1, 1637540, Note_on_c, 0, 47, 103
1, 1637627, Note_on_c, 0, 63, 0
1, 1637627, Note_on_c, 0, 71, 0
1, 1637627, Note_on_c, 0, 66, 0
1, 1637630, Note_on_c, 0, 75, 0
1, 1637630, Note_on_c, 0, 59, 106
1, 1637630, Note_on_c, 0, 71, 117
1, 1637633, Note_on_c, 0, 47, 0
1, 1637633, Note_on_c, 0, 47, 103
1, 1637800, Note_on_c, 0, 47, 0
1, 1637886, Note_on_c, 0, 47, 103
1, 1637944, Note_on_c, 0, 47, 0
1, 1637944, Note_on_c, 0, 47, 103
1, 1637997, Note_on_c, 0, 71, 0
1, 1637997, Note_on_c, 0, 59, 0
1, 1637997, Note_on_c, 0, 67, 106
1, 1638000, Note_on_c, 0, 71, 106
1, 1638000, Note_on_c, 0, 75, 106
1, 1638000, Note_on_c, 0, 79, 117
1, 1638003, Note_on_c, 0, 30, 0
1, 1638003, Note_on_c, 0, 47, 0
1, 1638003, Note_on_c, 0, 51, 117
1, 1638047, Control_c, 0, 64, 0
1, 1638146, Control_c, 0, 64, 127
1, 1638256, Note_on_c, 0, 42, 113
1, 1638343, Note_on_c, 0, 42, 0
1, 1638343, Note_on_c, 0, 51, 0
1, 1638343, Note_on_c, 0, 42, 113
1, 1638515, Note_on_c, 0, 42, 0
1, 1638602, Note_on_c, 0, 42, 113
1, 1638650, Control_c, 0, 64, 0
1, 1638688, Note_on_c, 0, 75, 0
1, 1638688, Note_on_c, 0, 71, 0
1, 1638688, Note_on_c, 0, 67, 0
1, 1638691, Note_on_c, 0, 79, 0
1, 1638691, Note_on_c, 0, 68, 108
1, 1638691, Note_on_c, 0, 72, 108
1, 1638694, Note_on_c, 0, 42, 0
1, 1638694, Note_on_c, 0, 75, 117
1, 1638694, Note_on_c, 0, 80, 108
1, 1638697, Note_on_c, 0, 30, 99
1, 1638826, Control_c, 0, 64, 127
1, 1638861, Note_on_c, 0, 75, 0
1, 1638861, Note_on_c, 0, 68, 0
1, 1638861, Note_on_c, 0, 72, 0
1, 1638864, Note_on_c, 0, 80, 0
1, 1638947, Note_on_c, 0, 75, 110
1, 1639034, Note_on_c, 0, 75, 0
1, 1639034, Note_on_c, 0, 75, 110
1, 1639194, Note_on_c, 0, 75, 0
1, 1639275, Note_on_c, 0, 75, 110
1, 1639328, Note_on_c, 0, 75, 0
1, 1639328, Note_on_c, 0, 75, 110
1, 1639381, Note_on_c, 0, 75, 0
1, 1639381, Note_on_c, 0, 80, 117
1, 1639381, Note_on_c, 0, 68, 113
1, 1639554, Note_on_c, 0, 80, 0
1, 1639641, Note_on_c, 0, 72, 110
1, 1639727, Note_on_c, 0, 72, 0
1, 1639727, Note_on_c, 0, 68, 0
1, 1639727, Note_on_c, 0, 72, 110
1, 1639730, Note_on_c, 0, 63, 113
1, 1639887, Note_on_c, 0, 72, 0
1, 1639968, Note_on_c, 0, 72, 110
1, 1640021, Note_on_c, 0, 72, 0
1, 1640021, Note_on_c, 0, 72, 110
1, 1640075, Note_on_c, 0, 72, 0
1, 1640075, Control_c, 0, 64, 127
1, 1640075, Note_on_c, 0, 75, 114
1, 1640078, Note_on_c, 0, 63, 0
1, 1640078, Note_on_c, 0, 60, 113
1, 1640247, Note_on_c, 0, 75, 0
1, 1640334, Note_on_c, 0, 68, 110
1, 1640420, Note_on_c, 0, 68, 0
1, 1640420, Note_on_c, 0, 60, 0
1, 1640420, Note_on_c, 0, 68, 110
1, 1640423, Note_on_c, 0, 56, 113
1, 1640581, Note_on_c, 0, 68, 0
1, 1640661, Note_on_c, 0, 68, 110
1, 1640714, Note_on_c, 0, 68, 0
1, 1640714, Note_on_c, 0, 68, 110
1, 1640768, Note_on_c, 0, 56, 0
1, 1640768, Note_on_c, 0, 30, 0
1, 1640768, Note_on_c, 0, 63, 113
1, 1640782, Note_on_c, 0, 72, 113
1, 1640817, Control_c, 0, 64, 0
1, 1640917, Control_c, 0, 64, 127
1, 1641027, Note_on_c, 0, 63, 110
1, 1641027, Note_on_c, 0, 42, 110
1, 1641129, Note_on_c, 0, 63, 0
1, 1641129, Note_on_c, 0, 63, 0
1, 1641129, Note_on_c, 0, 63, 110
1, 1641132, Note_on_c, 0, 42, 0
1, 1641132, Note_on_c, 0, 42, 110
1, 1641333, Note_on_c, 0, 42, 0
1, 1641333, Note_on_c, 0, 63, 0
1, 1641350, Note_on_c, 0, 72, 0
1, 1641350, Note_on_c, 0, 70, 114
1, 1641444, Note_on_c, 0, 63, 110
1, 1641444, Note_on_c, 0, 42, 110
1, 1641514, Control_c, 0, 64, 0
1, 1641569, Note_on_c, 0, 63, 0
1, 1641569, Note_on_c, 0, 68, 0
1, 1641569, Note_on_c, 0, 65, 99
1, 1641572, Note_on_c, 0, 42, 0
1, 1641572, Note_on_c, 0, 69, 115
1, 1641572, Note_on_c, 0, 29, 117
1, 1641575, Note_on_c, 0, 41, 117
1, 1641583, Note_on_c, 0, 70, 0
1, 1641706, Control_c, 0, 64, 127
1, 1641828, Note_on_c, 0, 60, 116
1, 1641914, Note_on_c, 0, 60, 0
1, 1641914, Note_on_c, 0, 65, 0
1, 1641914, Note_on_c, 0, 69, 0
1, 1641917, Note_on_c, 0, 60, 116
1, 1642075, Note_on_c, 0, 60, 0
1, 1642155, Note_on_c, 0, 60, 116
1, 1642208, Note_on_c, 0, 60, 0
1, 1642208, Note_on_c, 0, 60, 116
1, 1642262, Note_on_c, 0, 77, 106
1, 1642262, Note_on_c, 0, 81, 106
1, 1642262, Note_on_c, 0, 84, 106
1, 1642265, Note_on_c, 0, 60, 0
1, 1642265, Note_on_c, 0, 89, 117
1, 1642265, Note_on_c, 0, 65, 117
1, 1642435, Note_on_c, 0, 65, 0
1, 1642521, Note_on_c, 0, 57, 109
1, 1642607, Note_on_c, 0, 84, 0
1, 1642607, Note_on_c, 0, 77, 0
1, 1642607, Note_on_c, 0, 81, 0
1, 1642610, Note_on_c, 0, 89, 0
1, 1642610, Note_on_c, 0, 72, 106
1, 1642610, Note_on_c, 0, 84, 117
1, 1642613, Note_on_c, 0, 57, 0
1, 1642613, Note_on_c, 0, 57, 109
1, 1642768, Note_on_c, 0, 57, 0
1, 1642848, Note_on_c, 0, 57, 109
1, 1642902, Note_on_c, 0, 57, 0
1, 1642902, Note_on_c, 0, 57, 109
1, 1642955, Note_on_c, 0, 72, 0
1, 1642955, Note_on_c, 0, 84, 0
1, 1642955, Control_c, 0, 64, 127
1, 1642958, Note_on_c, 0, 69, 106
1, 1642958, Note_on_c, 0, 72, 106
1, 1642958, Note_on_c, 0, 77, 106
1, 1642961, Note_on_c, 0, 57, 0
1, 1642961, Note_on_c, 0, 81, 117
1, 1642961, Note_on_c, 0, 60, 109
1, 1643128, Note_on_c, 0, 60, 0
1, 1643214, Note_on_c, 0, 53, 109
1, 1643301, Note_on_c, 0, 77, 0
1, 1643301, Note_on_c, 0, 69, 0
1, 1643301, Note_on_c, 0, 72, 0
1, 1643304, Note_on_c, 0, 81, 0
1, 1643304, Note_on_c, 0, 65, 106
1, 1643304, Note_on_c, 0, 77, 117
1, 1643307, Note_on_c, 0, 53, 0
1, 1643307, Note_on_c, 0, 53, 109
1, 1643473, Note_on_c, 0, 53, 0
1, 1643560, Note_on_c, 0, 53, 109
1, 1643617, Note_on_c, 0, 53, 0
1, 1643617, Note_on_c, 0, 53, 109
1, 1643671, Note_on_c, 0, 65, 0
1, 1643671, Note_on_c, 0, 77, 0
1, 1643671, Note_on_c, 0, 73, 106
1, 1643674, Note_on_c, 0, 29, 0
1, 1643674, Note_on_c, 0, 77, 106
1, 1643674, Note_on_c, 0, 85, 117
1, 1643677, Note_on_c, 0, 53, 0
1, 1643677, Note_on_c, 0, 41, 0
1, 1643677, Note_on_c, 0, 57, 117
1, 1643720, Control_c, 0, 64, 0
1, 1643820, Control_c, 0, 64, 127
1, 1643930, Note_on_c, 0, 41, 113
1, 1644016, Note_on_c, 0, 41, 0
1, 1644016, Note_on_c, 0, 57, 0
1, 1644016, Note_on_c, 0, 41, 113
1, 1644189, Note_on_c, 0, 85, 0
1, 1644189, Note_on_c, 0, 73, 0
1, 1644189, Note_on_c, 0, 77, 0
1, 1644192, Note_on_c, 0, 72, 99
1, 1644192, Note_on_c, 0, 77, 99
1, 1644192, Note_on_c, 0, 84, 112
1, 1644195, Note_on_c, 0, 41, 0
1, 1644283, Note_on_c, 0, 41, 113
1, 1644283, Note_on_c, 0, 53, 113
1, 1644335, Control_c, 0, 64, 0
1, 1644376, Note_on_c, 0, 72, 0
1, 1644376, Note_on_c, 0, 84, 0
1, 1644376, Note_on_c, 0, 77, 0
1, 1644379, Note_on_c, 0, 70, 99
1, 1644379, Note_on_c, 0, 77, 99
1, 1644379, Note_on_c, 0, 82, 111
1, 1644382, Note_on_c, 0, 41, 0
1, 1644382, Note_on_c, 0, 53, 0
1, 1644382, Note_on_c, 0, 41, 99
1, 1644385, Note_on_c, 0, 49, 99
1, 1644450, Control_c, 0, 64, 127
1, 1644549, Note_on_c, 0, 77, 0
1, 1644549, Note_on_c, 0, 82, 0
1, 1644549, Note_on_c, 0, 70, 0
1, 1644636, Note_on_c, 0, 41, 0
1, 1644636, Note_on_c, 0, 49, 0
1, 1644636, Note_on_c, 0, 65, 99
1, 1644639, Note_on_c, 0, 53, 104
1, 1644716, Note_on_c, 0, 53, 0
1, 1644716, Note_on_c, 0, 65, 0
1, 1644716, Note_on_c, 0, 65, 99
1, 1644719, Note_on_c, 0, 58, 106
1, 1644724, Control_c, 0, 64, 0
1, 1644772, Control_c, 0, 64, 127
1, 1644956, Note_on_c, 0, 58, 0
1, 1644956, Note_on_c, 0, 65, 0
1, 1644956, Note_on_c, 0, 65, 99
1, 1644959, Note_on_c, 0, 60, 111
1, 1645033, Control_c, 0, 64, 0
1, 1645037, Note_on_c, 0, 65, 0
1, 1645037, Note_on_c, 0, 65, 99
1, 1645037, Note_on_c, 0, 77, 111
1, 1645040, Note_on_c, 0, 60, 0
1, 1645040, Note_on_c, 0, 61, 113
1, 1645099, Control_c, 0, 64, 127
1, 1645296, Note_on_c, 0, 65, 0
1, 1645296, Note_on_c, 0, 65, 99
1, 1645296, Note_on_c, 0, 41, 99
1, 1645381, Note_on_c, 0, 41, 0
1, 1645381, Note_on_c, 0, 65, 0
1, 1645381, Note_on_c, 0, 61, 0
1, 1645381, Control_c, 0, 64, 0
1, 1645381, Note_on_c, 0, 73, 111
1, 1645381, Note_on_c, 0, 65, 99
1, 1645381, Note_on_c, 0, 41, 99
1, 1645389, Note_on_c, 0, 77, 0
1, 1645429, Control_c, 0, 64, 127
1, 1645543, Note_on_c, 0, 41, 0
1, 1645623, Note_on_c, 0, 65, 0
1, 1645623, Note_on_c, 0, 65, 99
1, 1645623, Note_on_c, 0, 41, 99
1, 1645682, Control_c, 0, 64, 0
1, 1645703, Note_on_c, 0, 65, 0
1, 1645703, Note_on_c, 0, 65, 99
1, 1645703, Note_on_c, 0, 70, 111
1, 1645706, Note_on_c, 0, 41, 0
1, 1645706, Note_on_c, 0, 41, 99
1, 1645709, Note_on_c, 0, 73, 0
1, 1645772, Control_c, 0, 64, 127
1, 1645944, Note_on_c, 0, 41, 0
1, 1645944, Note_on_c, 0, 65, 0
1, 1645944, Note_on_c, 0, 65, 99
1, 1645947, Note_on_c, 0, 41, 99
1, 1646024, Note_on_c, 0, 65, 0
1, 1646024, Note_on_c, 0, 68, 111
1, 1646024, Note_on_c, 0, 65, 99
1, 1646027, Note_on_c, 0, 41, 0
1, 1646027, Note_on_c, 0, 41, 99
1, 1646030, Note_on_c, 0, 70, 0
1, 1646033, Control_c, 0, 64, 0
1, 1646081, Control_c, 0, 64, 127
1, 1646265, Note_on_c, 0, 65, 0
1, 1646265, Note_on_c, 0, 41, 0
1, 1646265, Note_on_c, 0, 65, 99
1, 1646268, Note_on_c, 0, 41, 99
1, 1646342, Control_c, 0, 64, 0
1, 1646345, Note_on_c, 0, 65, 0
1, 1646345, Note_on_c, 0, 66, 111
1, 1646345, Note_on_c, 0, 65, 99
1, 1646348, Note_on_c, 0, 41, 0
1, 1646348, Note_on_c, 0, 41, 99
1, 1646351, Note_on_c, 0, 68, 0
1, 1646403, Control_c, 0, 64, 127
1, 1646586, Note_on_c, 0, 65, 0
1, 1646586, Note_on_c, 0, 41, 0
1, 1646586, Note_on_c, 0, 65, 99
1, 1646589, Note_on_c, 0, 41, 99
1, 1646664, Note_on_c, 0, 41, 0
1, 1646664, Note_on_c, 0, 65, 0
1, 1646664, Control_c, 0, 64, 0
1, 1646664, Note_on_c, 0, 65, 99
1, 1646664, Note_on_c, 0, 41, 99
1, 1646712, Control_c, 0, 64, 127
1, 1646907, Note_on_c, 0, 41, 0
1, 1646907, Note_on_c, 0, 65, 0
1, 1646907, Note_on_c, 0, 65, 99
1, 1646910, Note_on_c, 0, 41, 99
1, 1646910, Note_on_c, 0, 49, 99
1, 1646966, Control_c, 0, 64, 0
1, 1646987, Note_on_c, 0, 65, 0
1, 1646987, Note_on_c, 0, 66, 0
1, 1646987, Note_on_c, 0, 63, 99
1, 1646990, Note_on_c, 0, 41, 0
1, 1646990, Note_on_c, 0, 49, 0
1, 1646990, Note_on_c, 0, 66, 111
1, 1646993, Note_on_c, 0, 41, 99
1, 1646993, Note_on_c, 0, 48, 99
1, 1647055, Control_c, 0, 64, 127
1, 1647227, Note_on_c, 0, 41, 0
1, 1647227, Note_on_c, 0, 63, 0
1, 1647227, Note_on_c, 0, 63, 99
1, 1647230, Note_on_c, 0, 48, 0
1, 1647230, Note_on_c, 0, 51, 104
1, 1647308, Note_on_c, 0, 63, 0
1, 1647308, Note_on_c, 0, 66, 0
1, 1647308, Note_on_c, 0, 63, 99
1, 1647311, Note_on_c, 0, 51, 0
1, 1647311, Note_on_c, 0, 57, 106
1, 1647316, Control_c, 0, 64, 0
1, 1647364, Control_c, 0, 64, 127
1, 1647548, Note_on_c, 0, 57, 0
1, 1647548, Note_on_c, 0, 63, 0
1, 1647548, Note_on_c, 0, 63, 99
1, 1647551, Note_on_c, 0, 58, 111
1, 1647625, Control_c, 0, 64, 0
1, 1647629, Note_on_c, 0, 63, 0
1, 1647629, Note_on_c, 0, 75, 111
1, 1647629, Note_on_c, 0, 63, 99
1, 1647632, Note_on_c, 0, 58, 0
1, 1647632, Note_on_c, 0, 60, 113
1, 1647691, Control_c, 0, 64, 127
1, 1647888, Note_on_c, 0, 63, 0
1, 1647888, Note_on_c, 0, 63, 99
1, 1647888, Note_on_c, 0, 41, 99
1, 1647973, Note_on_c, 0, 41, 0
1, 1647973, Note_on_c, 0, 63, 0
1, 1647973, Note_on_c, 0, 60, 0
1, 1647973, Control_c, 0, 64, 0
1, 1647973, Note_on_c, 0, 72, 111
1, 1647973, Note_on_c, 0, 63, 99
1, 1647973, Note_on_c, 0, 41, 99
1, 1647981, Note_on_c, 0, 75, 0
1, 1648021, Control_c, 0, 64, 127
1, 1648215, Note_on_c, 0, 41, 0
1, 1648215, Note_on_c, 0, 63, 0
1, 1648215, Note_on_c, 0, 63, 99
1, 1648218, Note_on_c, 0, 41, 99
1, 1648274, Control_c, 0, 64, 0
1, 1648295, Note_on_c, 0, 63, 0
1, 1648295, Note_on_c, 0, 63, 99
1, 1648295, Note_on_c, 0, 69, 111
1, 1648298, Note_on_c, 0, 41, 0
1, 1648298, Note_on_c, 0, 41, 99
1, 1648301, Note_on_c, 0, 72, 0
1, 1648364, Control_c, 0, 64, 127
1, 1648536, Note_on_c, 0, 41, 0
1, 1648536, Note_on_c, 0, 63, 0
1, 1648536, Note_on_c, 0, 63, 99
1, 1648539, Note_on_c, 0, 41, 99
1, 1648616, Note_on_c, 0, 63, 0
1, 1648616, Note_on_c, 0, 66, 111
1, 1648616, Note_on_c, 0, 63, 99
1, 1648619, Note_on_c, 0, 41, 0
1, 1648619, Note_on_c, 0, 41, 99
1, 1648622, Note_on_c, 0, 69, 0
1, 1648625, Control_c, 0, 64, 0
1, 1648673, Control_c, 0, 64, 127
1, 1648857, Note_on_c, 0, 63, 0
1, 1648857, Note_on_c, 0, 41, 0
1, 1648857, Note_on_c, 0, 63, 99
1, 1648860, Note_on_c, 0, 41, 99
1, 1648934, Control_c, 0, 64, 0
1, 1648937, Note_on_c, 0, 63, 0
1, 1648937, Note_on_c, 0, 65, 111
1, 1648937, Note_on_c, 0, 63, 99
1, 1648940, Note_on_c, 0, 41, 0
1, 1648940, Note_on_c, 0, 41, 99
1, 1648943, Note_on_c, 0, 66, 0
1, 1648995, Control_c, 0, 64, 127
1, 1649178, Note_on_c, 0, 63, 0
1, 1649178, Note_on_c, 0, 41, 0
1, 1649178, Note_on_c, 0, 63, 99
1, 1649181, Note_on_c, 0, 41, 99
1, 1649256, Note_on_c, 0, 41, 0
1, 1649256, Note_on_c, 0, 63, 0
1, 1649256, Control_c, 0, 64, 0
1, 1649256, Note_on_c, 0, 63, 99
1, 1649256, Note_on_c, 0, 41, 99
1, 1649304, Control_c, 0, 64, 127
1, 1649499, Note_on_c, 0, 41, 0
1, 1649499, Note_on_c, 0, 63, 0
1, 1649499, Note_on_c, 0, 63, 99
1, 1649502, Note_on_c, 0, 41, 99
1, 1649502, Note_on_c, 0, 48, 99
1, 1649558, Control_c, 0, 64, 0
1, 1649579, Note_on_c, 0, 63, 0
1, 1649579, Note_on_c, 0, 65, 0
1, 1649579, Note_on_c, 0, 61, 99
1, 1649582, Note_on_c, 0, 41, 0
1, 1649582, Note_on_c, 0, 48, 0
1, 1649582, Note_on_c, 0, 65, 111
1, 1649585, Note_on_c, 0, 41, 99
1, 1649585, Note_on_c, 0, 46, 99
1, 1649819, Note_on_c, 0, 41, 0
1, 1649819, Note_on_c, 0, 61, 0
1, 1649819, Note_on_c, 0, 61, 99
1, 1649822, Note_on_c, 0, 46, 0
1, 1649822, Note_on_c, 0, 49, 104
1, 1649900, Note_on_c, 0, 61, 0
1, 1649900, Note_on_c, 0, 65, 0
1, 1649900, Note_on_c, 0, 61, 99
1, 1649903, Note_on_c, 0, 49, 0
1, 1649903, Note_on_c, 0, 53, 106
1, 1650140, Note_on_c, 0, 53, 0
1, 1650140, Note_on_c, 0, 61, 0
1, 1650140, Note_on_c, 0, 61, 99
1, 1650143, Note_on_c, 0, 57, 111
1, 1650221, Note_on_c, 0, 61, 0
1, 1650221, Note_on_c, 0, 73, 108
1, 1650221, Note_on_c, 0, 61, 99
1, 1650224, Note_on_c, 0, 57, 0
1, 1650224, Note_on_c, 0, 58, 113
1, 1650480, Note_on_c, 0, 61, 0
1, 1650480, Note_on_c, 0, 61, 99
1, 1650480, Note_on_c, 0, 41, 99
1, 1650566, Note_on_c, 0, 61, 0
1, 1650566, Note_on_c, 0, 72, 108
1, 1650566, Note_on_c, 0, 61, 99
1, 1650569, Note_on_c, 0, 41, 0
1, 1650569, Note_on_c, 0, 58, 0
1, 1650569, Note_on_c, 0, 41, 99
1, 1650573, Note_on_c, 0, 73, 0
1, 1650807, Note_on_c, 0, 41, 0
1, 1650807, Note_on_c, 0, 61, 0
1, 1650807, Note_on_c, 0, 61, 99
1, 1650810, Note_on_c, 0, 41, 99
1, 1650887, Note_on_c, 0, 61, 0
1, 1650887, Note_on_c, 0, 61, 99
1, 1650887, Note_on_c, 0, 70, 108
1, 1650890, Note_on_c, 0, 41, 0
1, 1650890, Note_on_c, 0, 41, 99
1, 1650893, Note_on_c, 0, 72, 0
1, 1651128, Note_on_c, 0, 41, 0
1, 1651128, Note_on_c, 0, 61, 0
1, 1651128, Note_on_c, 0, 61, 99
1, 1651131, Note_on_c, 0, 41, 99
1, 1651208, Note_on_c, 0, 61, 0
1, 1651208, Note_on_c, 0, 66, 108
1, 1651208, Note_on_c, 0, 61, 99
1, 1651211, Note_on_c, 0, 41, 0
1, 1651211, Note_on_c, 0, 41, 99
1, 1651214, Note_on_c, 0, 70, 0
1, 1651449, Note_on_c, 0, 61, 0
1, 1651449, Note_on_c, 0, 41, 0
1, 1651449, Note_on_c, 0, 61, 99
1, 1651452, Note_on_c, 0, 41, 99
1, 1651529, Note_on_c, 0, 61, 0
1, 1651529, Note_on_c, 0, 66, 0
1, 1651529, Note_on_c, 0, 65, 108
1, 1651532, Note_on_c, 0, 41, 0
1, 1651532, Note_on_c, 0, 61, 99
1, 1651532, Note_on_c, 0, 41, 99
1, 1651770, Note_on_c, 0, 41, 0
1, 1651770, Note_on_c, 0, 61, 0
1, 1651770, Note_on_c, 0, 61, 99
1, 1651773, Note_on_c, 0, 41, 99
1, 1651850, Note_on_c, 0, 41, 0
1, 1651850, Note_on_c, 0, 61, 0
1, 1651850, Note_on_c, 0, 61, 99
1, 1651853, Note_on_c, 0, 41, 99
1, 1652010, Note_on_c, 0, 65, 0
1, 1652010, Note_on_c, 0, 65, 108
1, 1652066, Note_on_c, 0, 65, 0
1, 1652091, Note_on_c, 0, 41, 0
1, 1652091, Note_on_c, 0, 61, 0
1, 1652091, Note_on_c, 0, 61, 99
1, 1652094, Note_on_c, 0, 41, 99
1, 1652126, Note_on_c, 0, 41, 0
1, 1652126, Note_on_c, 0, 61, 0
1, 1652231, Note_on_c, 0, 61, 76
1, 1652231, Note_on_c, 0, 63, 76
1, 1652231, Note_on_c, 0, 70, 88
1, 1652234, Note_on_c, 0, 42, 77
1, 1652472, Note_on_c, 0, 70, 0
1, 1652472, Note_on_c, 0, 61, 0
1, 1652472, Note_on_c, 0, 63, 0
1, 1652475, Note_on_c, 0, 61, 76
1, 1652475, Note_on_c, 0, 63, 76
1, 1652475, Note_on_c, 0, 70, 88
1, 1652478, Note_on_c, 0, 42, 0
1, 1652478, Note_on_c, 0, 44, 79
1, 1652492, Note_on_c, 0, 61, 0
1, 1652492, Note_on_c, 0, 70, 0
1, 1652492, Note_on_c, 0, 63, 0
1, 1652495, Note_on_c, 0, 44, 0
1, 1652552, Note_on_c, 0, 61, 76
1, 1652552, Note_on_c, 0, 63, 76
1, 1652552, Note_on_c, 0, 70, 88
1, 1652555, Note_on_c, 0, 46, 80
1, 1652592, Note_on_c, 0, 70, 0
1, 1652592, Note_on_c, 0, 61, 0
1, 1652592, Note_on_c, 0, 63, 0
1, 1652595, Note_on_c, 0, 46, 0
1, 1652712, Note_on_c, 0, 61, 76
1, 1652712, Note_on_c, 0, 63, 76
1, 1652712, Note_on_c, 0, 70, 88
1, 1652715, Note_on_c, 0, 48, 82
1, 1652752, Note_on_c, 0, 70, 0
1, 1652752, Note_on_c, 0, 61, 0
1, 1652752, Note_on_c, 0, 63, 0
1, 1652755, Note_on_c, 0, 48, 0
1, 1652873, Note_on_c, 0, 61, 76
1, 1652873, Note_on_c, 0, 63, 76
1, 1652873, Note_on_c, 0, 70, 88
1, 1652876, Note_on_c, 0, 49, 83
1, 1653113, Note_on_c, 0, 70, 0
1, 1653113, Note_on_c, 0, 61, 0
1, 1653113, Note_on_c, 0, 63, 0
1, 1653116, Note_on_c, 0, 61, 76
1, 1653116, Note_on_c, 0, 63, 76
1, 1653116, Note_on_c, 0, 70, 88
1, 1653119, Note_on_c, 0, 49, 0
1, 1653119, Note_on_c, 0, 48, 86
1, 1653134, Note_on_c, 0, 61, 0
1, 1653134, Note_on_c, 0, 70, 0
1, 1653134, Note_on_c, 0, 63, 0
1, 1653137, Note_on_c, 0, 48, 0
1, 1653194, Note_on_c, 0, 61, 76
1, 1653194, Note_on_c, 0, 63, 76
1, 1653194, Note_on_c, 0, 70, 88
1, 1653197, Note_on_c, 0, 49, 86
1, 1653234, Note_on_c, 0, 70, 0
1, 1653234, Note_on_c, 0, 61, 0
1, 1653234, Note_on_c, 0, 63, 0
1, 1653237, Note_on_c, 0, 49, 0
1, 1653354, Note_on_c, 0, 61, 76
1, 1653354, Note_on_c, 0, 63, 76
1, 1653354, Note_on_c, 0, 70, 88
1, 1653357, Note_on_c, 0, 50, 88
1, 1653394, Note_on_c, 0, 70, 0
1, 1653394, Note_on_c, 0, 61, 0
1, 1653394, Note_on_c, 0, 63, 0
1, 1653397, Note_on_c, 0, 50, 0
1, 1653515, Note_on_c, 0, 61, 76
1, 1653515, Note_on_c, 0, 63, 76
1, 1653515, Note_on_c, 0, 70, 88
1, 1653518, Note_on_c, 0, 51, 88
1, 1653755, Note_on_c, 0, 70, 0
1, 1653755, Note_on_c, 0, 61, 0
1, 1653755, Note_on_c, 0, 63, 0
1, 1653758, Note_on_c, 0, 61, 76
1, 1653758, Note_on_c, 0, 63, 76
1, 1653758, Note_on_c, 0, 70, 88
1, 1653761, Note_on_c, 0, 51, 0
1, 1653761, Note_on_c, 0, 50, 90
1, 1653775, Note_on_c, 0, 61, 0
1, 1653775, Note_on_c, 0, 70, 0
1, 1653775, Note_on_c, 0, 63, 0
1, 1653778, Note_on_c, 0, 50, 0
1, 1653836, Note_on_c, 0, 61, 76
1, 1653836, Note_on_c, 0, 63, 76
1, 1653836, Note_on_c, 0, 70, 88
1, 1653839, Note_on_c, 0, 51, 91
1, 1653876, Note_on_c, 0, 70, 0
1, 1653876, Note_on_c, 0, 61, 0
1, 1653876, Note_on_c, 0, 63, 0
1, 1653879, Note_on_c, 0, 51, 0
1, 1653996, Note_on_c, 0, 61, 76
1, 1653996, Note_on_c, 0, 63, 76
1, 1653996, Note_on_c, 0, 70, 88
1, 1653999, Note_on_c, 0, 53, 92
1, 1654036, Note_on_c, 0, 70, 0
1, 1654036, Note_on_c, 0, 61, 0
1, 1654036, Note_on_c, 0, 63, 0
1, 1654039, Note_on_c, 0, 53, 0
1, 1654156, Note_on_c, 0, 61, 76
1, 1654156, Note_on_c, 0, 63, 76
1, 1654156, Note_on_c, 0, 70, 88
1, 1654159, Note_on_c, 0, 54, 94
1, 1654397, Note_on_c, 0, 70, 0
1, 1654397, Note_on_c, 0, 61, 0
1, 1654397, Note_on_c, 0, 63, 0
1, 1654400, Note_on_c, 0, 61, 76
1, 1654400, Note_on_c, 0, 63, 76
1, 1654400, Note_on_c, 0, 70, 88
1, 1654417, Note_on_c, 0, 70, 0
1, 1654417, Note_on_c, 0, 63, 0
1, 1654417, Note_on_c, 0, 61, 0
1, 1654477, Note_on_c, 0, 61, 76
1, 1654477, Note_on_c, 0, 63, 76
1, 1654477, Note_on_c, 0, 70, 88
1, 1654517, Note_on_c, 0, 70, 0
1, 1654517, Note_on_c, 0, 63, 0
1, 1654517, Note_on_c, 0, 61, 0
1, 1654638, Note_on_c, 0, 61, 76
1, 1654638, Note_on_c, 0, 63, 76
1, 1654638, Note_on_c, 0, 70, 88
1, 1654641, Note_on_c, 0, 54, 0
1, 1654641, Note_on_c, 0, 30, 80
1, 1654641, Note_on_c, 0, 42, 90
1, 1654694, Note_on_c, 0, 61, 0
1, 1654694, Note_on_c, 0, 70, 0
1, 1654694, Note_on_c, 0, 63, 0
1, 1654697, Note_on_c, 0, 30, 0
1, 1654697, Note_on_c, 0, 42, 0
1, 1654862, Note_on_c, 0, 58, 83
1, 1654862, Note_on_c, 0, 70, 83
1, 1654862, Note_on_c, 0, 73, 93
1, 1654865, Note_on_c, 0, 31, 76
1, 1654865, Note_on_c, 0, 43, 86
1, 1654955, Control_c, 0, 64, 127
1, 1654955, Control_c, 0, 64, 127
1, 1655103, Note_on_c, 0, 73, 0
1, 1655103, Note_on_c, 0, 58, 0
1, 1655103, Note_on_c, 0, 70, 0
1, 1655106, Note_on_c, 0, 58, 84
1, 1655106, Note_on_c, 0, 70, 84
1, 1655106, Note_on_c, 0, 73, 95
1, 1655109, Note_on_c, 0, 31, 0
1, 1655109, Note_on_c, 0, 43, 0
1, 1655109, Note_on_c, 0, 32, 80
1, 1655112, Note_on_c, 0, 44, 90
1, 1655123, Note_on_c, 0, 70, 0
1, 1655123, Note_on_c, 0, 73, 0
1, 1655123, Note_on_c, 0, 58, 0
1, 1655126, Note_on_c, 0, 32, 0
1, 1655126, Note_on_c, 0, 44, 0
1, 1655182, Control_c, 0, 64, 0
1, 1655182, Note_on_c, 0, 58, 84
1, 1655182, Note_on_c, 0, 70, 84
1, 1655182, Note_on_c, 0, 73, 95
1, 1655182, Control_c, 0, 64, 0
1, 1655182, Note_on_c, 0, 34, 80
1, 1655182, Note_on_c, 0, 46, 91
1, 1655224, Note_on_c, 0, 73, 0
1, 1655224, Note_on_c, 0, 58, 0
1, 1655224, Note_on_c, 0, 70, 0
1, 1655227, Note_on_c, 0, 34, 0
1, 1655227, Note_on_c, 0, 46, 0
1, 1655344, Note_on_c, 0, 58, 85
1, 1655344, Note_on_c, 0, 70, 85
1, 1655344, Note_on_c, 0, 73, 97
1, 1655347, Note_on_c, 0, 36, 83
1, 1655347, Note_on_c, 0, 48, 94
1, 1655384, Note_on_c, 0, 73, 0
1, 1655384, Note_on_c, 0, 58, 0
1, 1655384, Note_on_c, 0, 70, 0
1, 1655387, Note_on_c, 0, 36, 0
1, 1655387, Note_on_c, 0, 48, 0
1, 1655504, Note_on_c, 0, 58, 86
1, 1655504, Note_on_c, 0, 70, 86
1, 1655504, Note_on_c, 0, 73, 97
1, 1655507, Note_on_c, 0, 37, 85
1, 1655507, Note_on_c, 0, 49, 96
1, 1655614, Control_c, 0, 64, 127
1, 1655614, Control_c, 0, 64, 127
1, 1655745, Note_on_c, 0, 73, 0
1, 1655745, Note_on_c, 0, 58, 0
1, 1655745, Note_on_c, 0, 70, 0
1, 1655748, Note_on_c, 0, 58, 87
1, 1655748, Note_on_c, 0, 70, 87
1, 1655748, Note_on_c, 0, 73, 99
1, 1655751, Note_on_c, 0, 37, 0
1, 1655751, Note_on_c, 0, 49, 0
1, 1655751, Note_on_c, 0, 36, 89
1, 1655754, Note_on_c, 0, 48, 101
1, 1655765, Note_on_c, 0, 70, 0
1, 1655765, Note_on_c, 0, 73, 0
1, 1655765, Note_on_c, 0, 58, 0
1, 1655768, Note_on_c, 0, 36, 0
1, 1655768, Note_on_c, 0, 48, 0
1, 1655813, Control_c, 0, 64, 0
1, 1655813, Control_c, 0, 64, 0
1, 1655825, Note_on_c, 0, 58, 87
1, 1655825, Note_on_c, 0, 70, 87
1, 1655825, Note_on_c, 0, 73, 99
1, 1655828, Note_on_c, 0, 37, 89
1, 1655828, Note_on_c, 0, 49, 102
1, 1655865, Note_on_c, 0, 73, 0
1, 1655865, Note_on_c, 0, 58, 0
1, 1655865, Note_on_c, 0, 70, 0
1, 1655868, Note_on_c, 0, 37, 0
1, 1655868, Note_on_c, 0, 49, 0
1, 1655986, Note_on_c, 0, 58, 89
1, 1655986, Note_on_c, 0, 70, 89
1, 1655986, Note_on_c, 0, 73, 101
1, 1655989, Note_on_c, 0, 39, 93
1, 1655989, Note_on_c, 0, 51, 106
1, 1656026, Note_on_c, 0, 73, 0
1, 1656026, Note_on_c, 0, 58, 0
1, 1656026, Note_on_c, 0, 70, 0
1, 1656029, Note_on_c, 0, 39, 0
1, 1656029, Note_on_c, 0, 51, 0
1, 1656146, Note_on_c, 0, 58, 90
1, 1656146, Note_on_c, 0, 70, 90
1, 1656146, Note_on_c, 0, 73, 102
1, 1656149, Note_on_c, 0, 40, 95
1, 1656149, Note_on_c, 0, 52, 108
1, 1656238, Control_c, 0, 64, 127
1, 1656238, Control_c, 0, 64, 127
1, 1656387, Note_on_c, 0, 73, 0
1, 1656387, Note_on_c, 0, 58, 0
1, 1656387, Note_on_c, 0, 70, 0
1, 1656390, Note_on_c, 0, 58, 91
1, 1656390, Note_on_c, 0, 70, 91
1, 1656390, Note_on_c, 0, 73, 103
1, 1656393, Note_on_c, 0, 40, 0
1, 1656393, Note_on_c, 0, 52, 0
1, 1656393, Note_on_c, 0, 39, 98
1, 1656396, Note_on_c, 0, 51, 113
1, 1656407, Note_on_c, 0, 70, 0
1, 1656407, Note_on_c, 0, 73, 0
1, 1656407, Note_on_c, 0, 58, 0
1, 1656410, Note_on_c, 0, 39, 0
1, 1656410, Note_on_c, 0, 51, 0
1, 1656465, Control_c, 0, 64, 0
1, 1656465, Note_on_c, 0, 58, 91
1, 1656465, Note_on_c, 0, 70, 91
1, 1656465, Note_on_c, 0, 73, 104
1, 1656465, Control_c, 0, 64, 0
1, 1656465, Note_on_c, 0, 40, 100
1, 1656465, Note_on_c, 0, 52, 115
1, 1656507, Note_on_c, 0, 73, 0
1, 1656507, Note_on_c, 0, 58, 0
1, 1656507, Note_on_c, 0, 70, 0
1, 1656510, Note_on_c, 0, 40, 0
1, 1656510, Note_on_c, 0, 52, 0
1, 1656628, Note_on_c, 0, 58, 92
1, 1656628, Note_on_c, 0, 70, 92
1, 1656628, Note_on_c, 0, 73, 105
1, 1656631, Note_on_c, 0, 42, 101
1, 1656631, Note_on_c, 0, 54, 116
1, 1656668, Note_on_c, 0, 73, 0
1, 1656668, Note_on_c, 0, 58, 0
1, 1656668, Note_on_c, 0, 70, 0
1, 1656671, Note_on_c, 0, 42, 0
1, 1656671, Note_on_c, 0, 54, 0
1, 1656788, Note_on_c, 0, 58, 93
1, 1656788, Note_on_c, 0, 70, 93
1, 1656788, Note_on_c, 0, 73, 106
1, 1656791, Note_on_c, 0, 43, 105
1, 1656791, Note_on_c, 0, 55, 117
1, 1657029, Note_on_c, 0, 73, 0
1, 1657029, Note_on_c, 0, 58, 0
1, 1657029, Note_on_c, 0, 70, 0
1, 1657032, Note_on_c, 0, 58, 94
1, 1657032, Note_on_c, 0, 70, 94
1, 1657032, Note_on_c, 0, 73, 107
1, 1657049, Note_on_c, 0, 73, 0
1, 1657049, Note_on_c, 0, 58, 0
1, 1657049, Note_on_c, 0, 70, 0
1, 1657109, Note_on_c, 0, 58, 95
1, 1657109, Note_on_c, 0, 70, 95
1, 1657109, Note_on_c, 0, 73, 108
1, 1657149, Note_on_c, 0, 73, 0
1, 1657149, Note_on_c, 0, 58, 0
1, 1657149, Note_on_c, 0, 70, 0
1, 1657269, Note_on_c, 0, 43, 0
1, 1657269, Note_on_c, 0, 65, 95
1, 1657269, Note_on_c, 0, 68, 107
1, 1657272, Note_on_c, 0, 55, 0
1, 1657272, Note_on_c, 0, 53, 95
1, 1657272, Note_on_c, 0, 56, 95
1, 1657316, Note_on_c, 0, 53, 0
1, 1657316, Note_on_c, 0, 65, 0
1, 1657316, Note_on_c, 0, 68, 0
1, 1657319, Note_on_c, 0, 56, 0
1, 1657457, Note_on_c, 0, 61, 92
1, 1657457, Note_on_c, 0, 65, 103
1, 1657457, Note_on_c, 0, 44, 99
1, 1657460, Note_on_c, 0, 53, 99
1, 1657539, Control_c, 0, 64, 127
1, 1657539, Control_c, 0, 64, 127
1, 1657697, Note_on_c, 0, 65, 0
1, 1657697, Note_on_c, 0, 61, 0
1, 1657697, Note_on_c, 0, 65, 95
1, 1657700, Note_on_c, 0, 44, 0
1, 1657700, Note_on_c, 0, 53, 0
1, 1657700, Note_on_c, 0, 68, 106
1, 1657703, Note_on_c, 0, 49, 99
1, 1657703, Note_on_c, 0, 56, 99
1, 1657747, Control_c, 0, 64, 127
1, 1657747, Control_c, 0, 64, 127
1, 1657777, Note_on_c, 0, 68, 0
1, 1657777, Note_on_c, 0, 65, 0
1, 1657777, Note_on_c, 0, 68, 96
1, 1657780, Note_on_c, 0, 49, 0
1, 1657780, Note_on_c, 0, 56, 0
1, 1657780, Note_on_c, 0, 73, 107
1, 1657783, Note_on_c, 0, 53, 99
1, 1657783, Note_on_c, 0, 61, 99
1, 1657829, Note_on_c, 0, 53, 0
1, 1657829, Note_on_c, 0, 68, 0
1, 1657829, Note_on_c, 0, 73, 0
1, 1657832, Note_on_c, 0, 61, 0
1, 1657950, Note_on_c, 0, 73, 98
1, 1657950, Note_on_c, 0, 77, 109
1, 1657950, Note_on_c, 0, 56, 99
1, 1657953, Note_on_c, 0, 65, 99
1, 1658007, Note_on_c, 0, 56, 0
1, 1658007, Note_on_c, 0, 73, 0
1, 1658007, Note_on_c, 0, 77, 0
1, 1658010, Note_on_c, 0, 65, 0
1, 1658137, Note_on_c, 0, 77, 99
1, 1658137, Note_on_c, 0, 80, 111
1, 1658137, Note_on_c, 0, 61, 99
1, 1658140, Note_on_c, 0, 68, 99
1, 1658378, Note_on_c, 0, 80, 0
1, 1658378, Note_on_c, 0, 77, 0
1, 1658378, Note_on_c, 0, 77, 96
1, 1658381, Note_on_c, 0, 61, 0
1, 1658381, Note_on_c, 0, 68, 0
1, 1658381, Note_on_c, 0, 80, 107
1, 1658384, Note_on_c, 0, 61, 99
1, 1658384, Note_on_c, 0, 68, 99
1, 1658458, Note_on_c, 0, 80, 0
1, 1658458, Note_on_c, 0, 77, 0
1, 1658458, Note_on_c, 0, 77, 94
1, 1658461, Note_on_c, 0, 61, 0
1, 1658461, Note_on_c, 0, 68, 0
1, 1658461, Note_on_c, 0, 80, 106
1, 1658464, Control_c, 0, 64, 0
1, 1658464, Note_on_c, 0, 61, 99
1, 1658464, Note_on_c, 0, 68, 99
1, 1658467, Control_c, 0, 64, 0
1, 1658510, Note_on_c, 0, 61, 0
1, 1658510, Note_on_c, 0, 77, 0
1, 1658510, Note_on_c, 0, 80, 0
1, 1658513, Note_on_c, 0, 68, 0
1, 1658631, Note_on_c, 0, 77, 92
1, 1658631, Note_on_c, 0, 80, 103
1, 1658631, Note_on_c, 0, 61, 99
1, 1658634, Note_on_c, 0, 68, 99
1, 1658687, Note_on_c, 0, 61, 0
1, 1658687, Note_on_c, 0, 77, 0
1, 1658687, Note_on_c, 0, 80, 0
1, 1658690, Note_on_c, 0, 68, 0
1, 1658818, Note_on_c, 0, 73, 99
1, 1658818, Note_on_c, 0, 77, 111
1, 1658818, Note_on_c, 0, 56, 90
1, 1658821, Note_on_c, 0, 65, 102
1, 1658880, Control_c, 0, 64, 127
1, 1658880, Control_c, 0, 64, 127
1, 1659059, Note_on_c, 0, 77, 0
1, 1659059, Note_on_c, 0, 73, 0
1, 1659059, Note_on_c, 0, 77, 102
1, 1659062, Note_on_c, 0, 56, 0
1, 1659062, Note_on_c, 0, 65, 0
1, 1659062, Note_on_c, 0, 80, 114
1, 1659065, Control_c, 0, 64, 127
1, 1659065, Note_on_c, 0, 61, 93
1, 1659065, Note_on_c, 0, 68, 105
1, 1659065, Control_c, 0, 64, 127
1, 1659139, Note_on_c, 0, 80, 0
1, 1659139, Note_on_c, 0, 77, 0
1, 1659139, Note_on_c, 0, 80, 102
1, 1659142, Note_on_c, 0, 61, 0
1, 1659142, Note_on_c, 0, 68, 0
1, 1659142, Note_on_c, 0, 85, 115
1, 1659145, Note_on_c, 0, 65, 93
1, 1659145, Note_on_c, 0, 73, 106
1, 1659191, Note_on_c, 0, 65, 0
1, 1659191, Note_on_c, 0, 80, 0
1, 1659191, Note_on_c, 0, 85, 0
1, 1659194, Note_on_c, 0, 73, 0
1, 1659312, Note_on_c, 0, 85, 104
1, 1659312, Note_on_c, 0, 89, 117
1, 1659312, Note_on_c, 0, 68, 95
1, 1659315, Note_on_c, 0, 77, 108
1, 1659368, Note_on_c, 0, 68, 0
1, 1659368, Note_on_c, 0, 85, 0
1, 1659368, Note_on_c, 0, 89, 0
1, 1659371, Note_on_c, 0, 77, 0
1, 1659499, Note_on_c, 0, 89, 106
1, 1659499, Note_on_c, 0, 92, 117
1, 1659499, Note_on_c, 0, 73, 97
1, 1659502, Note_on_c, 0, 80, 110
1, 1659740, Note_on_c, 0, 92, 0
1, 1659740, Note_on_c, 0, 89, 0
1, 1659740, Note_on_c, 0, 89, 102
1, 1659743, Note_on_c, 0, 73, 0
1, 1659743, Note_on_c, 0, 80, 0
1, 1659743, Note_on_c, 0, 92, 114
1, 1659746, Note_on_c, 0, 73, 93
1, 1659746, Note_on_c, 0, 80, 105
1, 1659820, Note_on_c, 0, 92, 0
1, 1659820, Note_on_c, 0, 89, 0
1, 1659820, Note_on_c, 0, 89, 101
1, 1659823, Note_on_c, 0, 73, 0
1, 1659823, Note_on_c, 0, 80, 0
1, 1659823, Note_on_c, 0, 92, 112
1, 1659826, Note_on_c, 0, 73, 92
1, 1659826, Note_on_c, 0, 80, 103
1, 1659840, Control_c, 0, 64, 0
1, 1659840, Control_c, 0, 64, 0
1, 1659872, Note_on_c, 0, 73, 0
1, 1659872, Note_on_c, 0, 89, 0
1, 1659872, Note_on_c, 0, 92, 0
1, 1659875, Note_on_c, 0, 80, 0
1, 1659993, Note_on_c, 0, 82, 99
1, 1659993, Note_on_c, 0, 85, 99
1, 1659993, Note_on_c, 0, 90, 110
1, 1659996, Note_on_c, 0, 70, 90
1, 1659996, Note_on_c, 0, 73, 90
1, 1659996, Note_on_c, 0, 78, 101
1, 1660049, Note_on_c, 0, 90, 0
1, 1660049, Note_on_c, 0, 82, 0
1, 1660049, Note_on_c, 0, 85, 0
1, 1660052, Note_on_c, 0, 70, 0
1, 1660052, Note_on_c, 0, 73, 0
1, 1660052, Note_on_c, 0, 78, 0
1, 1660180, Note_on_c, 0, 80, 99
1, 1660180, Note_on_c, 0, 85, 99
1, 1660180, Note_on_c, 0, 89, 111
1, 1660183, Note_on_c, 0, 68, 90
1, 1660183, Note_on_c, 0, 73, 90
1, 1660183, Note_on_c, 0, 77, 102
1, 1660249, Control_c, 0, 64, 127
1, 1660249, Control_c, 0, 64, 127
1, 1660421, Note_on_c, 0, 89, 0
1, 1660421, Note_on_c, 0, 80, 0
1, 1660421, Note_on_c, 0, 85, 0
1, 1660424, Note_on_c, 0, 80, 97
1, 1660424, Note_on_c, 0, 85, 97
1, 1660424, Note_on_c, 0, 89, 108
1, 1660427, Note_on_c, 0, 68, 0
1, 1660427, Note_on_c, 0, 77, 0
1, 1660427, Note_on_c, 0, 73, 0
1, 1660430, Note_on_c, 0, 68, 87
1, 1660430, Note_on_c, 0, 73, 87
1, 1660430, Note_on_c, 0, 77, 98
1, 1660501, Note_on_c, 0, 80, 0
1, 1660501, Note_on_c, 0, 89, 0
1, 1660501, Note_on_c, 0, 85, 0
1, 1660504, Note_on_c, 0, 80, 95
1, 1660504, Note_on_c, 0, 85, 95
1, 1660504, Note_on_c, 0, 89, 107
1, 1660507, Note_on_c, 0, 68, 0
1, 1660507, Note_on_c, 0, 77, 0
1, 1660507, Note_on_c, 0, 73, 0
1, 1660510, Note_on_c, 0, 68, 85
1, 1660510, Note_on_c, 0, 73, 85
1, 1660510, Note_on_c, 0, 77, 97
1, 1660513, Control_c, 0, 64, 0
1, 1660513, Control_c, 0, 64, 0
1, 1660553, Note_on_c, 0, 80, 0
1, 1660553, Note_on_c, 0, 89, 0
1, 1660553, Note_on_c, 0, 85, 0
1, 1660556, Note_on_c, 0, 68, 0
1, 1660556, Note_on_c, 0, 73, 0
1, 1660556, Note_on_c, 0, 77, 0
1, 1660674, Note_on_c, 0, 78, 93
1, 1660674, Note_on_c, 0, 82, 93
1, 1660674, Note_on_c, 0, 85, 104
1, 1660677, Note_on_c, 0, 66, 83
1, 1660677, Note_on_c, 0, 70, 83
1, 1660677, Note_on_c, 0, 73, 94
1, 1660730, Note_on_c, 0, 85, 0
1, 1660730, Note_on_c, 0, 78, 0
1, 1660730, Note_on_c, 0, 82, 0
1, 1660733, Note_on_c, 0, 66, 0
1, 1660733, Note_on_c, 0, 70, 0
1, 1660733, Note_on_c, 0, 73, 0
1, 1660861, Note_on_c, 0, 77, 101
1, 1660861, Note_on_c, 0, 80, 101
1, 1660861, Note_on_c, 0, 85, 113
1, 1660864, Note_on_c, 0, 65, 90
1, 1660864, Note_on_c, 0, 68, 90
1, 1660864, Note_on_c, 0, 73, 102
1, 1660926, Control_c, 0, 64, 127
1, 1660926, Control_c, 0, 64, 127
1, 1661102, Note_on_c, 0, 85, 0
1, 1661102, Note_on_c, 0, 77, 0
1, 1661102, Note_on_c, 0, 80, 0
1, 1661105, Note_on_c, 0, 77, 98
1, 1661105, Note_on_c, 0, 80, 98
1, 1661105, Note_on_c, 0, 85, 109
1, 1661108, Note_on_c, 0, 65, 0
1, 1661108, Note_on_c, 0, 73, 0
1, 1661108, Note_on_c, 0, 68, 0
1, 1661111, Note_on_c, 0, 65, 87
1, 1661111, Note_on_c, 0, 68, 87
1, 1661111, Note_on_c, 0, 73, 98
1, 1661180, Note_on_c, 0, 73, 0
1, 1661180, Note_on_c, 0, 80, 0
1, 1661180, Note_on_c, 0, 77, 0
1, 1661180, Note_on_c, 0, 85, 0
1, 1661180, Note_on_c, 0, 68, 0
1, 1661180, Note_on_c, 0, 65, 0
1, 1661180, Control_c, 0, 64, 0
1, 1661180, Note_on_c, 0, 77, 96
1, 1661180, Note_on_c, 0, 80, 109
1, 1661180, Control_c, 0, 64, 0
1, 1661180, Note_on_c, 0, 65, 85
1, 1661180, Note_on_c, 0, 68, 97
1, 1661180, Note_on_c, 0, 73, 85
1, 1661234, Note_on_c, 0, 65, 0
1, 1661234, Note_on_c, 0, 77, 0
1, 1661234, Note_on_c, 0, 80, 0
1, 1661237, Note_on_c, 0, 68, 0
1, 1661237, Note_on_c, 0, 73, 0
1, 1661355, Note_on_c, 0, 73, 94
1, 1661355, Note_on_c, 0, 78, 94
1, 1661355, Note_on_c, 0, 82, 106
1, 1661358, Note_on_c, 0, 61, 83
1, 1661358, Note_on_c, 0, 66, 83
1, 1661358, Note_on_c, 0, 70, 94
1, 1661411, Note_on_c, 0, 82, 0
1, 1661411, Note_on_c, 0, 73, 0
1, 1661411, Note_on_c, 0, 78, 0
1, 1661414, Note_on_c, 0, 61, 0
1, 1661414, Note_on_c, 0, 66, 0
1, 1661414, Note_on_c, 0, 70, 0
1, 1661542, Note_on_c, 0, 73, 102
1, 1661542, Note_on_c, 0, 77, 102
1, 1661542, Note_on_c, 0, 80, 115
1, 1661545, Note_on_c, 0, 61, 90
1, 1661545, Note_on_c, 0, 65, 90
1, 1661545, Note_on_c, 0, 68, 102
1, 1661594, Note_on_c, 0, 80, 0
1, 1661594, Note_on_c, 0, 73, 0
1, 1661594, Note_on_c, 0, 77, 0
1, 1661597, Note_on_c, 0, 61, 0
1, 1661597, Note_on_c, 0, 65, 0
1, 1661597, Note_on_c, 0, 68, 0
1, 1661715, Note_on_c, 0, 70, 101
1, 1661715, Note_on_c, 0, 73, 101
1, 1661715, Note_on_c, 0, 78, 114
1, 1661718, Note_on_c, 0, 58, 88
1, 1661718, Note_on_c, 0, 61, 88
1, 1661718, Note_on_c, 0, 66, 100
1, 1661767, Note_on_c, 0, 78, 0
1, 1661767, Note_on_c, 0, 70, 0
1, 1661767, Note_on_c, 0, 73, 0
1, 1661770, Note_on_c, 0, 58, 0
1, 1661770, Note_on_c, 0, 61, 0
1, 1661770, Note_on_c, 0, 66, 0
1, 1661888, Note_on_c, 0, 68, 100
1, 1661888, Note_on_c, 0, 73, 100
1, 1661888, Note_on_c, 0, 77, 111
1, 1661891, Note_on_c, 0, 56, 87
1, 1661891, Note_on_c, 0, 61, 87
1, 1661891, Note_on_c, 0, 65, 98
1, 1661940, Note_on_c, 0, 77, 0
1, 1661940, Note_on_c, 0, 68, 0
1, 1661940, Note_on_c, 0, 73, 0
1, 1661943, Note_on_c, 0, 56, 0
1, 1661943, Note_on_c, 0, 61, 0
1, 1661943, Note_on_c, 0, 65, 0
1, 1662060, Note_on_c, 0, 66, 98
1, 1662060, Note_on_c, 0, 70, 98
1, 1662060, Note_on_c, 0, 73, 110
1, 1662063, Note_on_c, 0, 54, 85
1, 1662063, Note_on_c, 0, 58, 85
1, 1662063, Note_on_c, 0, 61, 96
1, 1662112, Note_on_c, 0, 73, 0
1, 1662112, Note_on_c, 0, 66, 0
1, 1662112, Note_on_c, 0, 70, 0
1, 1662115, Note_on_c, 0, 54, 0
1, 1662115, Note_on_c, 0, 58, 0
1, 1662115, Note_on_c, 0, 61, 0
1, 1662233, Note_on_c, 0, 65, 97
1, 1662233, Note_on_c, 0, 68, 97
1, 1662233, Note_on_c, 0, 73, 109
1, 1662236, Note_on_c, 0, 53, 83
1, 1662236, Note_on_c, 0, 56, 83
1, 1662236, Note_on_c, 0, 61, 94
1, 1662285, Note_on_c, 0, 73, 0
1, 1662285, Note_on_c, 0, 65, 0
1, 1662285, Note_on_c, 0, 68, 0
1, 1662288, Note_on_c, 0, 53, 0
1, 1662288, Note_on_c, 0, 56, 0
1, 1662288, Note_on_c, 0, 61, 0
1, 1662406, Note_on_c, 0, 61, 97
1, 1662406, Note_on_c, 0, 66, 97
1, 1662406, Note_on_c, 0, 70, 109
1, 1662409, Note_on_c, 0, 49, 83
1, 1662409, Note_on_c, 0, 54, 83
1, 1662409, Note_on_c, 0, 58, 94
1, 1662458, Note_on_c, 0, 70, 0
1, 1662458, Note_on_c, 0, 61, 0
1, 1662458, Note_on_c, 0, 66, 0
1, 1662461, Note_on_c, 0, 49, 0
1, 1662461, Note_on_c, 0, 54, 0
1, 1662461, Note_on_c, 0, 58, 0
1, 1662579, Note_on_c, 0, 61, 102
1, 1662579, Note_on_c, 0, 65, 102
1, 1662579, Note_on_c, 0, 68, 114
1, 1662582, Note_on_c, 0, 49, 87
1, 1662582, Note_on_c, 0, 53, 87
1, 1662582, Note_on_c, 0, 56, 98
1, 1662635, Note_on_c, 0, 68, 0
1, 1662635, Note_on_c, 0, 61, 0
1, 1662635, Note_on_c, 0, 65, 0
1, 1662638, Note_on_c, 0, 49, 0
1, 1662638, Note_on_c, 0, 53, 0
1, 1662638, Note_on_c, 0, 56, 0
1, 1662766, Note_on_c, 0, 61, 105
1, 1662766, Note_on_c, 0, 64, 105
1, 1662766, Note_on_c, 0, 68, 117
1, 1662769, Note_on_c, 0, 49, 90
1, 1662769, Note_on_c, 0, 52, 90
1, 1662769, Note_on_c, 0, 56, 102
1, 1662827, Note_on_c, 0, 68, 0
1, 1662827, Note_on_c, 0, 61, 0
1, 1662827, Note_on_c, 0, 64, 0
1, 1662830, Note_on_c, 0, 49, 0
1, 1662830, Note_on_c, 0, 52, 0
1, 1662830, Note_on_c, 0, 56, 0
1, 1662970, Note_on_c, 0, 61, 99
1, 1662970, Note_on_c, 0, 63, 99
1, 1662970, Note_on_c, 0, 68, 115
1, 1662973, Note_on_c, 0, 49, 92
1, 1662973, Note_on_c, 0, 51, 92
1, 1662973, Note_on_c, 0, 56, 101
1, 1663044, Control_c, 0, 64, 127
1, 1663044, Control_c, 0, 64, 127
1, 1663229, Note_on_c, 0, 68, 0
1, 1663229, Note_on_c, 0, 61, 0
1, 1663229, Note_on_c, 0, 63, 0
1, 1663232, Note_on_c, 0, 68, 97
1, 1663232, Note_on_c, 0, 73, 97
1, 1663232, Note_on_c, 0, 80, 114
1, 1663235, Note_on_c, 0, 49, 0
1, 1663235, Note_on_c, 0, 56, 0
1, 1663235, Note_on_c, 0, 51, 0
1, 1663238, Note_on_c, 0, 32, 95
1, 1663238, Note_on_c, 0, 44, 103
1, 1663316, Note_on_c, 0, 68, 0
1, 1663316, Note_on_c, 0, 80, 0
1, 1663316, Note_on_c, 0, 73, 0
1, 1663319, Note_on_c, 0, 68, 103
1, 1663319, Note_on_c, 0, 73, 103
1, 1663319, Note_on_c, 0, 80, 117
1, 1663322, Note_on_c, 0, 32, 0
1, 1663322, Note_on_c, 0, 44, 0
1, 1663322, Note_on_c, 0, 32, 95
1, 1663325, Note_on_c, 0, 44, 104
1, 1663479, Control_c, 0, 64, 127
1, 1663479, Control_c, 0, 64, 127
1, 1663503, Note_on_c, 0, 73, 0
1, 1663503, Note_on_c, 0, 80, 0
1, 1663503, Note_on_c, 0, 68, 0
1, 1663506, Note_on_c, 0, 68, 108
1, 1663506, Note_on_c, 0, 73, 108
1, 1663506, Note_on_c, 0, 80, 108
1, 1663509, Note_on_c, 0, 32, 0
1, 1663509, Note_on_c, 0, 44, 0
1, 1663509, Note_on_c, 0, 32, 97
1, 1663512, Note_on_c, 0, 44, 106
1, 1663564, Note_on_c, 0, 73, 0
1, 1663564, Note_on_c, 0, 80, 0
1, 1663564, Note_on_c, 0, 68, 0
1, 1663567, Note_on_c, 0, 32, 0
1, 1663567, Note_on_c, 0, 44, 0
1, 1663707, Note_on_c, 0, 68, 112
1, 1663707, Note_on_c, 0, 73, 112
1, 1663707, Note_on_c, 0, 80, 117
1, 1663710, Note_on_c, 0, 32, 99
1, 1663710, Note_on_c, 0, 44, 107
1, 1663718, Control_c, 0, 64, 0
1, 1663718, Control_c, 0, 64, 0
1, 1663859, Control_c, 0, 64, 127
1, 1663859, Control_c, 0, 64, 127
1, 1663966, Note_on_c, 0, 80, 0
1, 1663966, Note_on_c, 0, 68, 0
1, 1663966, Note_on_c, 0, 73, 0
1, 1663969, Note_on_c, 0, 61, 86
1, 1663969, Note_on_c, 0, 63, 93
1, 1663969, Note_on_c, 0, 68, 107
1, 1663972, Note_on_c, 0, 32, 0
1, 1663972, Note_on_c, 0, 44, 0
1, 1663972, Note_on_c, 0, 44, 87
1, 1663975, Note_on_c, 0, 51, 87
1, 1663975, Note_on_c, 0, 56, 107
1, 1664053, Note_on_c, 0, 63, 0
1, 1664053, Note_on_c, 0, 68, 0
1, 1664053, Note_on_c, 0, 61, 0
1, 1664056, Note_on_c, 0, 61, 94
1, 1664056, Note_on_c, 0, 63, 94
1, 1664056, Note_on_c, 0, 68, 107
1, 1664059, Note_on_c, 0, 44, 0
1, 1664059, Note_on_c, 0, 56, 0
1, 1664059, Note_on_c, 0, 51, 0
1, 1664062, Note_on_c, 0, 44, 89
1, 1664062, Note_on_c, 0, 51, 89
1, 1664062, Note_on_c, 0, 56, 107
1, 1664240, Note_on_c, 0, 61, 0
1, 1664240, Note_on_c, 0, 68, 0
1, 1664240, Note_on_c, 0, 63, 0
1, 1664243, Note_on_c, 0, 61, 99
1, 1664243, Note_on_c, 0, 63, 99
1, 1664243, Note_on_c, 0, 68, 108
1, 1664246, Note_on_c, 0, 44, 0
1, 1664246, Note_on_c, 0, 56, 0
1, 1664246, Note_on_c, 0, 51, 0
1, 1664249, Note_on_c, 0, 44, 93
1, 1664249, Note_on_c, 0, 51, 93
1, 1664249, Note_on_c, 0, 56, 108
1, 1664305, Control_c, 0, 64, 0
1, 1664305, Control_c, 0, 64, 0
1, 1664444, Note_on_c, 0, 61, 0
1, 1664444, Note_on_c, 0, 68, 0
1, 1664444, Note_on_c, 0, 63, 0
1, 1664447, Note_on_c, 0, 60, 104
1, 1664447, Note_on_c, 0, 63, 104
1, 1664447, Note_on_c, 0, 68, 117
1, 1664450, Note_on_c, 0, 44, 0
1, 1664450, Note_on_c, 0, 56, 0
1, 1664450, Note_on_c, 0, 51, 0
1, 1664453, Note_on_c, 0, 44, 98
1, 1664453, Note_on_c, 0, 51, 98
1, 1664453, Note_on_c, 0, 56, 109
1, 1664513, Control_c, 0, 64, 127
1, 1664513, Control_c, 0, 64, 127
1, 1664703, Note_on_c, 0, 60, 0
1, 1664703, Note_on_c, 0, 68, 0
1, 1664703, Note_on_c, 0, 63, 0
1, 1664706, Note_on_c, 0, 66, 105
1, 1664706, Note_on_c, 0, 68, 105
1, 1664706, Note_on_c, 0, 75, 105
1, 1664709, Note_on_c, 0, 44, 0
1, 1664709, Note_on_c, 0, 51, 0
1, 1664709, Note_on_c, 0, 80, 117
1, 1664712, Note_on_c, 0, 56, 0
1, 1664712, Note_on_c, 0, 32, 107
1, 1664712, Note_on_c, 0, 44, 117
1, 1664790, Note_on_c, 0, 68, 0
1, 1664790, Note_on_c, 0, 66, 0
1, 1664790, Note_on_c, 0, 75, 0
1, 1664793, Note_on_c, 0, 80, 0
1, 1664793, Note_on_c, 0, 66, 105
1, 1664793, Note_on_c, 0, 68, 115
1, 1664796, Note_on_c, 0, 32, 0
1, 1664796, Note_on_c, 0, 75, 115
1, 1664796, Note_on_c, 0, 80, 117
1, 1664799, Note_on_c, 0, 44, 0
1, 1664799, Note_on_c, 0, 32, 107
1, 1664799, Note_on_c, 0, 44, 117
1, 1664994, Note_on_c, 0, 75, 0
1, 1664994, Note_on_c, 0, 68, 0
1, 1664994, Note_on_c, 0, 66, 0
1, 1664997, Note_on_c, 0, 80, 0
1, 1664997, Note_on_c, 0, 66, 117
1, 1664997, Note_on_c, 0, 68, 117
1, 1665000, Note_on_c, 0, 32, 0
1, 1665000, Note_on_c, 0, 75, 117
1, 1665000, Note_on_c, 0, 80, 117
1, 1665003, Note_on_c, 0, 44, 0
1, 1665003, Note_on_c, 0, 32, 109
1, 1665003, Note_on_c, 0, 44, 117
1, 1665062, Note_on_c, 0, 75, 0
1, 1665062, Note_on_c, 0, 68, 0
1, 1665062, Note_on_c, 0, 66, 0
1, 1665065, Note_on_c, 0, 80, 0
1, 1665065, Note_on_c, 0, 32, 0
1, 1665065, Note_on_c, 0, 44, 0
1, 1665219, Note_on_c, 0, 66, 117
1, 1665219, Note_on_c, 0, 68, 117
1, 1665219, Note_on_c, 0, 75, 117
1, 1665222, Note_on_c, 0, 80, 117
1, 1665222, Note_on_c, 0, 32, 111
1, 1665222, Note_on_c, 0, 44, 117
1, 1665556, Note_on_c, 0, 75, 0
1, 1665556, Note_on_c, 0, 66, 0
1, 1665556, Note_on_c, 0, 68, 0
1, 1665559, Note_on_c, 0, 80, 0
1, 1665559, Note_on_c, 0, 66, 117
1, 1665559, Note_on_c, 0, 68, 117
1, 1665562, Note_on_c, 0, 32, 0
1, 1665562, Note_on_c, 0, 44, 0
1, 1665562, Note_on_c, 0, 44, 106
1, 1665565, Note_on_c, 0, 48, 106
1, 1665565, Note_on_c, 0, 56, 117
1, 1665668, Note_on_c, 0, 66, 0
1, 1665668, Note_on_c, 0, 68, 0
1, 1665668, Note_on_c, 0, 66, 112
1, 1665671, Note_on_c, 0, 48, 0
1, 1665671, Note_on_c, 0, 44, 0
1, 1665671, Note_on_c, 0, 68, 117
1, 1665674, Note_on_c, 0, 56, 0
1, 1665674, Note_on_c, 0, 44, 107
1, 1665674, Note_on_c, 0, 48, 107
1, 1665677, Note_on_c, 0, 56, 117
1, 1665743, Note_on_c, 0, 44, 0
1, 1665743, Note_on_c, 0, 66, 0
1, 1665743, Note_on_c, 0, 68, 0
1, 1665746, Note_on_c, 0, 48, 0
1, 1665746, Note_on_c, 0, 56, 0
1, 1665918, Note_on_c, 0, 68, 114
1, 1665918, Note_on_c, 0, 72, 114
1, 1665918, Note_on_c, 0, 75, 114
1, 1665921, Note_on_c, 0, 80, 117
1, 1665921, Note_on_c, 0, 44, 109
1, 1665921, Note_on_c, 0, 56, 117
1, 1666002, Note_on_c, 0, 75, 0
1, 1666002, Note_on_c, 0, 68, 0
1, 1666002, Note_on_c, 0, 72, 0
1, 1666005, Note_on_c, 0, 80, 0
1, 1666005, Note_on_c, 0, 44, 0
1, 1666005, Note_on_c, 0, 56, 0
1, 1666101, Control_c, 0, 64, 0
1, 1666101, Control_c, 0, 64, 0
1, 1666198, Note_on_c, 0, 65, 109
1, 1666198, Note_on_c, 0, 68, 109
1, 1666198, Note_on_c, 0, 73, 109
1, 1666201, Note_on_c, 0, 77, 117
1, 1666201, Note_on_c, 0, 49, 117
1, 1666201, Note_on_c, 0, 61, 108
1, 1666284, Control_c, 0, 64, 127
1, 1666284, Control_c, 0, 64, 127
1, 1666479, Note_on_c, 0, 73, 0
1, 1666479, Note_on_c, 0, 65, 0
1, 1666479, Note_on_c, 0, 68, 0
1, 1666482, Note_on_c, 0, 77, 0
1, 1666482, Note_on_c, 0, 68, 112
1, 1666482, Note_on_c, 0, 72, 112
1, 1666485, Note_on_c, 0, 49, 0
1, 1666485, Note_on_c, 0, 75, 112
1, 1666485, Note_on_c, 0, 80, 117
1, 1666488, Note_on_c, 0, 61, 0
1, 1666488, Note_on_c, 0, 44, 117
1, 1666488, Note_on_c, 0, 56, 113
1, 1666566, Note_on_c, 0, 75, 0
1, 1666566, Note_on_c, 0, 72, 0
1, 1666566, Note_on_c, 0, 68, 0
1, 1666569, Note_on_c, 0, 80, 0
1, 1666569, Note_on_c, 0, 73, 117
1, 1666569, Note_on_c, 0, 77, 117
1, 1666572, Note_on_c, 0, 44, 0
1, 1666572, Note_on_c, 0, 80, 117
1, 1666572, Note_on_c, 0, 85, 117
1, 1666575, Note_on_c, 0, 56, 0
1, 1666575, Note_on_c, 0, 37, 117
1, 1666575, Note_on_c, 0, 49, 117
1, 1666578, Control_c, 0, 64, 0
1, 1666578, Control_c, 0, 64, 0
1, 1666619, Control_c, 0, 64, 127
1, 1666619, Control_c, 0, 64, 127
1, 1666627, Note_on_c, 0, 80, 0
1, 1666627, Note_on_c, 0, 77, 0
1, 1666627, Note_on_c, 0, 73, 0
1, 1666630, Note_on_c, 0, 85, 0
1, 1666630, Note_on_c, 0, 37, 0
1, 1666630, Note_on_c, 0, 49, 0
1, 1666770, Note_on_c, 0, 75, 116
1, 1666770, Note_on_c, 0, 80, 116
1, 1666770, Note_on_c, 0, 84, 116
1, 1666773, Note_on_c, 0, 87, 117
1, 1666773, Note_on_c, 0, 32, 117
1, 1666773, Note_on_c, 0, 44, 117
1, 1666837, Note_on_c, 0, 84, 0
1, 1666837, Note_on_c, 0, 75, 0
1, 1666837, Note_on_c, 0, 80, 0
1, 1666840, Note_on_c, 0, 87, 0
1, 1666840, Note_on_c, 0, 32, 0
1, 1666840, Note_on_c, 0, 44, 0
1, 1666994, Control_c, 0, 64, 0
1, 1666994, Note_on_c, 0, 77, 117
1, 1666994, Note_on_c, 0, 80, 117
1, 1666997, Note_on_c, 0, 85, 117
1, 1666997, Note_on_c, 0, 89, 117
1, 1666997, Control_c, 0, 64, 0
1, 1667000, Note_on_c, 0, 25, 117
1, 1667000, Note_on_c, 0, 37, 117
1, 1667046, Control_c, 0, 64, 127
1, 1667046, Control_c, 0, 64, 127
1, 1667301, Note_on_c, 0, 85, 0
1, 1667301, Note_on_c, 0, 77, 0
1, 1667301, Note_on_c, 0, 80, 0
1, 1667304, Note_on_c, 0, 89, 0
1, 1667304, Note_on_c, 0, 75, 109
1, 1667304, Note_on_c, 0, 87, 117
1, 1667387, Note_on_c, 0, 87, 0
1, 1667387, Note_on_c, 0, 75, 0
1, 1667387, Note_on_c, 0, 73, 103
1, 1667390, Note_on_c, 0, 25, 0
1, 1667390, Note_on_c, 0, 37, 0
1, 1667390, Note_on_c, 0, 85, 117
1, 1667401, Control_c, 0, 64, 0
1, 1667401, Control_c, 0, 64, 0
1, 1667439, Note_on_c, 0, 85, 0
1, 1667439, Note_on_c, 0, 73, 0
1, 1667560, Note_on_c, 0, 72, 103
1, 1667560, Note_on_c, 0, 77, 103
1, 1667560, Note_on_c, 0, 81, 103
1, 1667563, Note_on_c, 0, 84, 117
1, 1667563, Note_on_c, 0, 53, 98
1, 1667563, Note_on_c, 0, 65, 87
1, 1667616, Note_on_c, 0, 81, 0
1, 1667616, Note_on_c, 0, 72, 0
1, 1667616, Note_on_c, 0, 77, 0
1, 1667619, Note_on_c, 0, 84, 0
1, 1667644, Note_on_c, 0, 53, 0
1, 1667644, Note_on_c, 0, 65, 0
1, 1667747, Note_on_c, 0, 73, 114
1, 1667747, Note_on_c, 0, 77, 114
1, 1667747, Note_on_c, 0, 82, 114
1, 1667750, Note_on_c, 0, 85, 117
1, 1667750, Note_on_c, 0, 58, 100
1, 1667750, Note_on_c, 0, 65, 89
1, 1667806, Control_c, 0, 64, 127
1, 1667806, Control_c, 0, 64, 127
1, 1667806, Control_c, 0, 64, 127
1, 1667809, Control_c, 0, 64, 127
1, 1668006, Note_on_c, 0, 82, 0
1, 1668006, Note_on_c, 0, 73, 0
1, 1668006, Note_on_c, 0, 77, 0
1, 1668009, Note_on_c, 0, 85, 0
1, 1668009, Note_on_c, 0, 72, 103
1, 1668009, Note_on_c, 0, 77, 103
1, 1668012, Note_on_c, 0, 58, 0
1, 1668012, Note_on_c, 0, 81, 103
1, 1668012, Note_on_c, 0, 84, 117
1, 1668015, Note_on_c, 0, 65, 0
1, 1668015, Note_on_c, 0, 53, 102
1, 1668015, Note_on_c, 0, 65, 91
1, 1668093, Note_on_c, 0, 81, 0
1, 1668093, Note_on_c, 0, 77, 0
1, 1668093, Note_on_c, 0, 72, 0
1, 1668096, Note_on_c, 0, 84, 0
1, 1668096, Note_on_c, 0, 73, 103
1, 1668096, Note_on_c, 0, 77, 103
1, 1668099, Note_on_c, 0, 53, 0
1, 1668099, Note_on_c, 0, 82, 103
1, 1668099, Note_on_c, 0, 85, 117
1, 1668102, Note_on_c, 0, 65, 0
1, 1668102, Control_c, 0, 64, 0
1, 1668102, Control_c, 0, 64, 0
1, 1668102, Note_on_c, 0, 58, 103
1, 1668102, Note_on_c, 0, 65, 91
1, 1668102, Control_c, 0, 64, 0
1, 1668102, Control_c, 0, 64, 0
1, 1668149, Note_on_c, 0, 82, 0
1, 1668149, Note_on_c, 0, 77, 0
1, 1668149, Note_on_c, 0, 73, 0
1, 1668152, Note_on_c, 0, 85, 0
1, 1668152, Note_on_c, 0, 58, 0
1, 1668152, Note_on_c, 0, 65, 0
1, 1668280, Note_on_c, 0, 72, 97
1, 1668280, Note_on_c, 0, 77, 97
1, 1668280, Note_on_c, 0, 81, 97
1, 1668283, Note_on_c, 0, 84, 117
1, 1668283, Note_on_c, 0, 53, 104
1, 1668283, Note_on_c, 0, 65, 93
1, 1668341, Note_on_c, 0, 81, 0
1, 1668341, Note_on_c, 0, 72, 0
1, 1668341, Note_on_c, 0, 77, 0
1, 1668344, Note_on_c, 0, 84, 0
1, 1668344, Note_on_c, 0, 53, 0
1, 1668344, Note_on_c, 0, 65, 0
1, 1668484, Note_on_c, 0, 73, 107
1, 1668484, Note_on_c, 0, 77, 107
1, 1668484, Note_on_c, 0, 82, 107
1, 1668487, Note_on_c, 0, 85, 117
1, 1668487, Note_on_c, 0, 58, 106
1, 1668487, Note_on_c, 0, 65, 94
1, 1668550, Control_c, 0, 64, 127
1, 1668550, Control_c, 0, 64, 127
1, 1668550, Control_c, 0, 64, 127
1, 1668553, Control_c, 0, 64, 127
1, 1668864, Control_c, 0, 64, 0
1, 1668864, Control_c, 0, 64, 0
1, 1668864, Control_c, 0, 64, 0
1, 1668867, Control_c, 0, 64, 0
1, 1668893, Note_on_c, 0, 82, 0
1, 1668893, Note_on_c, 0, 73, 0
1, 1668893, Note_on_c, 0, 77, 0
1, 1668896, Note_on_c, 0, 85, 0
1, 1668896, Note_on_c, 0, 58, 0
1, 1668896, Note_on_c, 0, 65, 0
1, 1669097, Note_on_c, 0, 55, 68
1, 1669097, Note_on_c, 0, 58, 68
1, 1669097, Note_on_c, 0, 63, 89
1, 1669100, Note_on_c, 0, 39, 72
1, 1669164, Note_on_c, 0, 58, 0
1, 1669164, Note_on_c, 0, 55, 0
1, 1669173, Note_on_c, 0, 63, 0
1, 1669173, Note_on_c, 0, 39, 0
1, 1669321, Note_on_c, 0, 56, 74
1, 1669321, Note_on_c, 0, 60, 74
1, 1669321, Note_on_c, 0, 63, 90
1, 1669324, Note_on_c, 0, 44, 79
1, 1669344, Control_c, 0, 64, 0
1, 1669344, Control_c, 0, 64, 0
1, 1669581, Note_on_c, 0, 63, 0
1, 1669581, Note_on_c, 0, 56, 0
1, 1669581, Note_on_c, 0, 60, 0
1, 1669584, Note_on_c, 0, 56, 75
1, 1669584, Note_on_c, 0, 60, 75
1, 1669584, Note_on_c, 0, 63, 89
1, 1669587, Note_on_c, 0, 44, 0
1, 1669587, Note_on_c, 0, 46, 85
1, 1669602, Note_on_c, 0, 56, 0
1, 1669602, Note_on_c, 0, 63, 0
1, 1669602, Note_on_c, 0, 60, 0
1, 1669605, Note_on_c, 0, 46, 0
1, 1669667, Note_on_c, 0, 56, 75
1, 1669667, Note_on_c, 0, 60, 75
1, 1669667, Note_on_c, 0, 63, 90
1, 1669670, Note_on_c, 0, 48, 86
1, 1669714, Note_on_c, 0, 63, 0
1, 1669714, Note_on_c, 0, 56, 0
1, 1669714, Note_on_c, 0, 60, 0
1, 1669717, Note_on_c, 0, 48, 0
1, 1669854, Note_on_c, 0, 56, 75
1, 1669854, Note_on_c, 0, 60, 75
1, 1669854, Note_on_c, 0, 63, 89
1, 1669857, Note_on_c, 0, 49, 90
1, 1669905, Note_on_c, 0, 63, 0
1, 1669905, Note_on_c, 0, 56, 0
1, 1669905, Note_on_c, 0, 60, 0
1, 1669908, Note_on_c, 0, 49, 0
1, 1670059, Note_on_c, 0, 56, 79
1, 1670059, Note_on_c, 0, 60, 79
1, 1670059, Note_on_c, 0, 63, 91
1, 1670062, Note_on_c, 0, 51, 94
1, 1670114, Control_c, 0, 64, 127
1, 1670114, Control_c, 0, 64, 127
1, 1670314, Control_c, 0, 64, 0
1, 1670314, Control_c, 0, 64, 0
1, 1670318, Note_on_c, 0, 63, 0
1, 1670318, Note_on_c, 0, 56, 0
1, 1670318, Note_on_c, 0, 60, 0
1, 1670321, Note_on_c, 0, 56, 84
1, 1670321, Note_on_c, 0, 60, 84
1, 1670321, Note_on_c, 0, 65, 95
1, 1670404, Note_on_c, 0, 65, 0
1, 1670404, Note_on_c, 0, 60, 0
1, 1670404, Note_on_c, 0, 56, 0
1, 1670407, Note_on_c, 0, 56, 84
1, 1670407, Note_on_c, 0, 60, 84
1, 1670407, Note_on_c, 0, 67, 98
1, 1670418, Control_c, 0, 64, 0
1, 1670418, Control_c, 0, 64, 0
1, 1670451, Note_on_c, 0, 67, 0
1, 1670451, Note_on_c, 0, 60, 0
1, 1670451, Note_on_c, 0, 56, 0
1, 1670591, Note_on_c, 0, 56, 82
1, 1670591, Note_on_c, 0, 60, 82
1, 1670591, Note_on_c, 0, 68, 101
1, 1670594, Note_on_c, 0, 51, 0
1, 1670594, Note_on_c, 0, 50, 86
1, 1670638, Note_on_c, 0, 56, 0
1, 1670638, Note_on_c, 0, 68, 0
1, 1670638, Note_on_c, 0, 60, 0
1, 1670641, Note_on_c, 0, 50, 0
1, 1670779, Note_on_c, 0, 56, 92
1, 1670779, Note_on_c, 0, 60, 92
1, 1670779, Note_on_c, 0, 68, 102
1, 1670782, Note_on_c, 0, 51, 83
1, 1670838, Control_c, 0, 64, 127
1, 1670838, Control_c, 0, 64, 127
1, 1671038, Note_on_c, 0, 68, 0
1, 1671038, Note_on_c, 0, 56, 0
1, 1671038, Note_on_c, 0, 60, 0
1, 1671041, Note_on_c, 0, 51, 0
1, 1671041, Note_on_c, 0, 56, 88
1, 1671041, Note_on_c, 0, 60, 99
1, 1671044, Control_c, 0, 64, 0
1, 1671044, Note_on_c, 0, 51, 79
1, 1671044, Control_c, 0, 64, 0
1, 1671061, Note_on_c, 0, 60, 0
1, 1671061, Note_on_c, 0, 56, 0
1, 1671131, Note_on_c, 0, 55, 88
1, 1671131, Note_on_c, 0, 58, 96
1, 1671131, Note_on_c, 0, 63, 86
1, 1671134, Note_on_c, 0, 51, 0
1, 1671134, Note_on_c, 0, 39, 77
1, 1671182, Note_on_c, 0, 55, 0
1, 1671182, Note_on_c, 0, 63, 0
1, 1671182, Note_on_c, 0, 58, 0
1, 1671185, Note_on_c, 0, 39, 0
1, 1671336, Note_on_c, 0, 55, 88
1, 1671336, Note_on_c, 0, 59, 96
1, 1671336, Note_on_c, 0, 63, 85
1, 1671339, Note_on_c, 0, 39, 74
1, 1671392, Note_on_c, 0, 63, 0
1, 1671392, Note_on_c, 0, 55, 0
1, 1671392, Note_on_c, 0, 59, 0
1, 1671395, Note_on_c, 0, 39, 0
1, 1671560, Note_on_c, 0, 56, 88
1, 1671560, Note_on_c, 0, 60, 96
1, 1671560, Note_on_c, 0, 63, 85
1, 1671563, Note_on_c, 0, 44, 71
1, 1671604, Control_c, 0, 64, 127
1, 1671604, Control_c, 0, 64, 127
1, 1671868, Control_c, 0, 64, 0
1, 1671868, Control_c, 0, 64, 0
1, 1671935, Note_on_c, 0, 63, 0
1, 1671935, Note_on_c, 0, 56, 0
1, 1671935, Note_on_c, 0, 60, 0
1, 1671938, Note_on_c, 0, 44, 0
1, 1672122, Note_on_c, 0, 68, 104
1, 1672122, Note_on_c, 0, 72, 104
1, 1672122, Note_on_c, 0, 75, 104
1, 1672125, Note_on_c, 0, 80, 117
1, 1672125, Note_on_c, 0, 44, 117
1, 1672125, Note_on_c, 0, 56, 117
1, 1672223, Note_on_c, 0, 75, 0
1, 1672223, Note_on_c, 0, 68, 0
1, 1672223, Note_on_c, 0, 72, 0
1, 1672226, Note_on_c, 0, 80, 0
1, 1672226, Note_on_c, 0, 44, 0
1, 1672226, Note_on_c, 0, 56, 0
1, 1672346, Note_on_c, 0, 65, 107
1, 1672346, Note_on_c, 0, 68, 107
1, 1672346, Note_on_c, 0, 73, 107
1, 1672349, Note_on_c, 0, 77, 117
1, 1672349, Note_on_c, 0, 49, 111
1, 1672349, Note_on_c, 0, 61, 99
1, 1672426, Control_c, 0, 64, 127
1, 1672426, Control_c, 0, 64, 127
1, 1672606, Note_on_c, 0, 73, 0
1, 1672606, Note_on_c, 0, 65, 0
1, 1672606, Note_on_c, 0, 68, 0
1, 1672609, Note_on_c, 0, 77, 0
1, 1672609, Note_on_c, 0, 68, 103
1, 1672609, Note_on_c, 0, 72, 103
1, 1672612, Note_on_c, 0, 49, 0
1, 1672612, Note_on_c, 0, 75, 103
1, 1672612, Note_on_c, 0, 80, 117
1, 1672615, Note_on_c, 0, 61, 0
1, 1672615, Note_on_c, 0, 44, 117
1, 1672615, Note_on_c, 0, 56, 104
1, 1672692, Note_on_c, 0, 75, 0
1, 1672692, Note_on_c, 0, 72, 0
1, 1672692, Note_on_c, 0, 68, 0
1, 1672695, Note_on_c, 0, 80, 0
1, 1672695, Note_on_c, 0, 73, 105
1, 1672695, Note_on_c, 0, 77, 105
1, 1672698, Note_on_c, 0, 44, 0
1, 1672698, Note_on_c, 0, 80, 105
1, 1672698, Note_on_c, 0, 85, 117
1, 1672701, Note_on_c, 0, 56, 0
1, 1672701, Note_on_c, 0, 37, 117
1, 1672701, Note_on_c, 0, 49, 106
1, 1672704, Control_c, 0, 64, 0
1, 1672704, Control_c, 0, 64, 0
1, 1672748, Note_on_c, 0, 80, 0
1, 1672748, Note_on_c, 0, 77, 0
1, 1672748, Note_on_c, 0, 73, 0
1, 1672751, Note_on_c, 0, 85, 0
1, 1672751, Note_on_c, 0, 37, 0
1, 1672751, Note_on_c, 0, 49, 0
1, 1672879, Note_on_c, 0, 75, 103
1, 1672879, Note_on_c, 0, 80, 103
1, 1672879, Note_on_c, 0, 84, 103
1, 1672882, Note_on_c, 0, 87, 117
1, 1672882, Note_on_c, 0, 32, 117
1, 1672882, Note_on_c, 0, 44, 109
1, 1672936, Note_on_c, 0, 84, 0
1, 1672936, Note_on_c, 0, 75, 0
1, 1672936, Note_on_c, 0, 80, 0
1, 1672939, Note_on_c, 0, 87, 0
1, 1672939, Note_on_c, 0, 32, 0
1, 1672939, Note_on_c, 0, 44, 0
1, 1673066, Note_on_c, 0, 77, 106
1, 1673066, Note_on_c, 0, 80, 106
1, 1673066, Note_on_c, 0, 85, 106
1, 1673069, Note_on_c, 0, 89, 117
1, 1673069, Note_on_c, 0, 25, 117
1, 1673069, Note_on_c, 0, 37, 112
1, 1673113, Control_c, 0, 64, 127
1, 1673113, Control_c, 0, 64, 127
1, 1673347, Note_on_c, 0, 85, 0
1, 1673347, Note_on_c, 0, 77, 0
1, 1673347, Note_on_c, 0, 80, 0
1, 1673350, Note_on_c, 0, 89, 0
1, 1673350, Note_on_c, 0, 75, 96
1, 1673350, Note_on_c, 0, 87, 111
1, 1673434, Note_on_c, 0, 87, 0
1, 1673434, Note_on_c, 0, 75, 0
1, 1673434, Note_on_c, 0, 73, 96
1, 1673437, Note_on_c, 0, 25, 0
1, 1673437, Note_on_c, 0, 37, 0
1, 1673437, Note_on_c, 0, 85, 111
1, 1673448, Control_c, 0, 64, 0
1, 1673448, Control_c, 0, 64, 0
1, 1673486, Note_on_c, 0, 85, 0
1, 1673486, Note_on_c, 0, 73, 0
1, 1673606, Note_on_c, 0, 72, 96
1, 1673606, Note_on_c, 0, 77, 96
1, 1673606, Note_on_c, 0, 81, 96
1, 1673609, Note_on_c, 0, 84, 111
1, 1673609, Note_on_c, 0, 53, 98
1, 1673609, Note_on_c, 0, 65, 87
1, 1673663, Note_on_c, 0, 81, 0
1, 1673663, Note_on_c, 0, 72, 0
1, 1673663, Note_on_c, 0, 77, 0
1, 1673666, Note_on_c, 0, 84, 0
1, 1673691, Note_on_c, 0, 53, 0
1, 1673691, Note_on_c, 0, 65, 0
1, 1673794, Note_on_c, 0, 73, 107
1, 1673794, Note_on_c, 0, 77, 107
1, 1673794, Note_on_c, 0, 82, 107
1, 1673797, Note_on_c, 0, 85, 117
1, 1673797, Note_on_c, 0, 58, 100
1, 1673797, Note_on_c, 0, 65, 89
1, 1673853, Control_c, 0, 64, 127
1, 1673853, Control_c, 0, 64, 127
1, 1674053, Note_on_c, 0, 82, 0
1, 1674053, Note_on_c, 0, 73, 0
1, 1674053, Note_on_c, 0, 77, 0
1, 1674056, Note_on_c, 0, 85, 0
1, 1674056, Note_on_c, 0, 72, 96
1, 1674056, Note_on_c, 0, 77, 96
1, 1674059, Note_on_c, 0, 58, 0
1, 1674059, Note_on_c, 0, 81, 96
1, 1674059, Note_on_c, 0, 84, 111
1, 1674062, Note_on_c, 0, 65, 0
1, 1674062, Note_on_c, 0, 53, 102
1, 1674062, Note_on_c, 0, 65, 91
1, 1674139, Note_on_c, 0, 81, 0
1, 1674139, Note_on_c, 0, 77, 0
1, 1674139, Note_on_c, 0, 72, 0
1, 1674142, Note_on_c, 0, 84, 0
1, 1674142, Note_on_c, 0, 73, 96
1, 1674142, Note_on_c, 0, 77, 96
1, 1674145, Note_on_c, 0, 53, 0
1, 1674145, Note_on_c, 0, 82, 96
1, 1674145, Note_on_c, 0, 85, 111
1, 1674148, Note_on_c, 0, 65, 0
1, 1674148, Control_c, 0, 64, 0
1, 1674148, Note_on_c, 0, 58, 103
1, 1674148, Note_on_c, 0, 65, 91
1, 1674148, Control_c, 0, 64, 0
1, 1674196, Note_on_c, 0, 82, 0
1, 1674196, Note_on_c, 0, 77, 0
1, 1674196, Note_on_c, 0, 73, 0
1, 1674199, Note_on_c, 0, 85, 0
1, 1674199, Note_on_c, 0, 58, 0
1, 1674199, Note_on_c, 0, 65, 0
1, 1674326, Note_on_c, 0, 72, 90
1, 1674326, Note_on_c, 0, 77, 90
1, 1674326, Note_on_c, 0, 81, 90
1, 1674329, Note_on_c, 0, 84, 112
1, 1674329, Note_on_c, 0, 53, 104
1, 1674329, Note_on_c, 0, 65, 93
1, 1674388, Note_on_c, 0, 81, 0
1, 1674388, Note_on_c, 0, 72, 0
1, 1674388, Note_on_c, 0, 77, 0
1, 1674391, Note_on_c, 0, 84, 0
1, 1674391, Note_on_c, 0, 53, 0
1, 1674391, Note_on_c, 0, 65, 0
1, 1674531, Note_on_c, 0, 73, 100
1, 1674531, Note_on_c, 0, 77, 100
1, 1674531, Note_on_c, 0, 82, 100
1, 1674534, Note_on_c, 0, 85, 115
1, 1674534, Note_on_c, 0, 58, 106
1, 1674534, Note_on_c, 0, 65, 94
1, 1674596, Control_c, 0, 64, 127
1, 1674596, Control_c, 0, 64, 127
1, 1674911, Control_c, 0, 64, 0
1, 1674911, Control_c, 0, 64, 0
1, 1674939, Note_on_c, 0, 82, 0
1, 1674939, Note_on_c, 0, 73, 0
1, 1674939, Note_on_c, 0, 77, 0
1, 1674942, Note_on_c, 0, 85, 0
1, 1674942, Note_on_c, 0, 58, 0
1, 1674942, Note_on_c, 0, 65, 0
1, 1675143, Note_on_c, 0, 80, 103
1, 1675143, Note_on_c, 0, 82, 103
1, 1675143, Note_on_c, 0, 89, 103
1, 1675146, Note_on_c, 0, 92, 117
1, 1675146, Note_on_c, 0, 34, 99
1, 1675146, Note_on_c, 0, 41, 108
1, 1675149, Note_on_c, 0, 46, 99
1, 1675199, Note_on_c, 0, 46, 0
1, 1675199, Note_on_c, 0, 34, 0
1, 1675199, Note_on_c, 0, 41, 0
1, 1675244, Note_on_c, 0, 80, 0
1, 1675244, Note_on_c, 0, 89, 0
1, 1675244, Note_on_c, 0, 82, 0
1, 1675247, Note_on_c, 0, 92, 0
1, 1675368, Note_on_c, 0, 78, 103
1, 1675368, Note_on_c, 0, 82, 103
1, 1675368, Note_on_c, 0, 87, 103
1, 1675371, Note_on_c, 0, 90, 117
1, 1675371, Note_on_c, 0, 39, 99
1, 1675371, Note_on_c, 0, 46, 99
1, 1675374, Note_on_c, 0, 51, 108
1, 1675452, Control_c, 0, 64, 127
1, 1675452, Control_c, 0, 64, 127
1, 1675627, Note_on_c, 0, 87, 0
1, 1675627, Note_on_c, 0, 78, 0
1, 1675627, Note_on_c, 0, 82, 0
1, 1675630, Note_on_c, 0, 90, 0
1, 1675630, Note_on_c, 0, 77, 103
1, 1675630, Note_on_c, 0, 82, 103
1, 1675633, Note_on_c, 0, 39, 0
1, 1675633, Note_on_c, 0, 46, 0
1, 1675633, Note_on_c, 0, 89, 115
1, 1675636, Note_on_c, 0, 51, 0
1, 1675636, Note_on_c, 0, 41, 89
1, 1675636, Note_on_c, 0, 46, 89
1, 1675639, Note_on_c, 0, 53, 97
1, 1675696, Control_c, 0, 64, 0
1, 1675696, Control_c, 0, 64, 0
1, 1675714, Note_on_c, 0, 77, 0
1, 1675714, Note_on_c, 0, 89, 0
1, 1675714, Note_on_c, 0, 82, 0
1, 1675717, Note_on_c, 0, 75, 103
1, 1675717, Note_on_c, 0, 82, 103
1, 1675717, Note_on_c, 0, 87, 115
1, 1675720, Note_on_c, 0, 41, 0
1, 1675720, Note_on_c, 0, 53, 0
1, 1675720, Note_on_c, 0, 46, 0
1, 1675723, Note_on_c, 0, 42, 90
1, 1675723, Note_on_c, 0, 46, 90
1, 1675723, Note_on_c, 0, 54, 98
1, 1675779, Note_on_c, 0, 75, 0
1, 1675779, Note_on_c, 0, 87, 0
1, 1675779, Note_on_c, 0, 82, 0
1, 1675782, Note_on_c, 0, 42, 0
1, 1675782, Note_on_c, 0, 46, 0
1, 1675782, Note_on_c, 0, 54, 0
1, 1675901, Note_on_c, 0, 73, 103
1, 1675901, Note_on_c, 0, 75, 103
1, 1675901, Note_on_c, 0, 82, 103
1, 1675904, Note_on_c, 0, 85, 115
1, 1675904, Note_on_c, 0, 43, 92
1, 1675904, Note_on_c, 0, 46, 92
1, 1675907, Note_on_c, 0, 55, 100
1, 1675966, Note_on_c, 0, 82, 0
1, 1675966, Note_on_c, 0, 73, 0
1, 1675966, Note_on_c, 0, 75, 0
1, 1675969, Note_on_c, 0, 43, 0
1, 1675969, Note_on_c, 0, 85, 0
1, 1675969, Note_on_c, 0, 46, 0
1, 1675972, Note_on_c, 0, 55, 0
1, 1676088, Note_on_c, 0, 72, 103
1, 1676088, Note_on_c, 0, 75, 103
1, 1676088, Note_on_c, 0, 80, 103
1, 1676091, Note_on_c, 0, 84, 117
1, 1676091, Note_on_c, 0, 44, 94
1, 1676091, Note_on_c, 0, 51, 94
1, 1676094, Note_on_c, 0, 56, 102
1, 1676130, Control_c, 0, 64, 127
1, 1676130, Control_c, 0, 64, 127
1, 1676347, Note_on_c, 0, 80, 0
1, 1676347, Note_on_c, 0, 72, 0
1, 1676347, Note_on_c, 0, 75, 0
1, 1676350, Note_on_c, 0, 84, 0
1, 1676350, Note_on_c, 0, 70, 103
1, 1676350, Note_on_c, 0, 75, 103
1, 1676353, Note_on_c, 0, 44, 0
1, 1676353, Note_on_c, 0, 51, 0
1, 1676353, Note_on_c, 0, 82, 115
1, 1676356, Note_on_c, 0, 56, 0
1, 1676356, Note_on_c, 0, 46, 96
1, 1676356, Note_on_c, 0, 51, 96
1, 1676359, Control_c, 0, 64, 0
1, 1676359, Note_on_c, 0, 58, 105
1, 1676359, Control_c, 0, 64, 0
1, 1676434, Note_on_c, 0, 70, 0
1, 1676434, Note_on_c, 0, 82, 0
1, 1676434, Note_on_c, 0, 75, 0
1, 1676437, Note_on_c, 0, 68, 103
1, 1676437, Note_on_c, 0, 75, 103
1, 1676437, Note_on_c, 0, 80, 115
1, 1676440, Note_on_c, 0, 46, 0
1, 1676440, Note_on_c, 0, 58, 0
1, 1676440, Note_on_c, 0, 51, 0
1, 1676443, Note_on_c, 0, 48, 97
1, 1676443, Note_on_c, 0, 51, 97
1, 1676443, Note_on_c, 0, 60, 106
1, 1676499, Note_on_c, 0, 68, 0
1, 1676499, Note_on_c, 0, 80, 0
1, 1676499, Note_on_c, 0, 75, 0
1, 1676502, Note_on_c, 0, 48, 0
1, 1676502, Note_on_c, 0, 51, 0
1, 1676502, Note_on_c, 0, 60, 0
1, 1676621, Note_on_c, 0, 65, 97
1, 1676621, Note_on_c, 0, 68, 97
1, 1676621, Note_on_c, 0, 77, 109
1, 1676624, Note_on_c, 0, 49, 99
1, 1676624, Note_on_c, 0, 56, 99
1, 1676624, Note_on_c, 0, 61, 108
1, 1676692, Note_on_c, 0, 77, 0
1, 1676692, Note_on_c, 0, 65, 0
1, 1676692, Note_on_c, 0, 68, 0
1, 1676695, Note_on_c, 0, 49, 0
1, 1676695, Note_on_c, 0, 56, 0
1, 1676695, Note_on_c, 0, 61, 0
1, 1676825, Note_on_c, 0, 63, 103
1, 1676825, Note_on_c, 0, 68, 103
1, 1676825, Note_on_c, 0, 75, 115
1, 1676828, Note_on_c, 0, 51, 99
1, 1676828, Note_on_c, 0, 56, 99
1, 1676828, Note_on_c, 0, 60, 108
1, 1676858, Control_c, 0, 64, 127
1, 1676858, Control_c, 0, 64, 127
1, 1677084, Note_on_c, 0, 75, 0
1, 1677084, Note_on_c, 0, 63, 0
1, 1677084, Note_on_c, 0, 68, 0
1, 1677087, Note_on_c, 0, 63, 100
1, 1677087, Note_on_c, 0, 68, 100
1, 1677087, Note_on_c, 0, 75, 112
1, 1677090, Note_on_c, 0, 51, 0
1, 1677090, Note_on_c, 0, 60, 0
1, 1677090, Note_on_c, 0, 56, 0
1, 1677093, Note_on_c, 0, 51, 94
1, 1677093, Note_on_c, 0, 56, 94
1, 1677093, Note_on_c, 0, 60, 102
1, 1677164, Control_c, 0, 64, 0
1, 1677164, Control_c, 0, 64, 0
1, 1677171, Note_on_c, 0, 63, 0
1, 1677171, Note_on_c, 0, 75, 0
1, 1677171, Note_on_c, 0, 68, 0
1, 1677174, Note_on_c, 0, 63, 100
1, 1677174, Note_on_c, 0, 68, 100
1, 1677174, Note_on_c, 0, 75, 111
1, 1677177, Note_on_c, 0, 51, 0
1, 1677177, Note_on_c, 0, 60, 0
1, 1677177, Note_on_c, 0, 56, 0
1, 1677180, Note_on_c, 0, 51, 92
1, 1677180, Note_on_c, 0, 56, 92
1, 1677180, Note_on_c, 0, 60, 101
1, 1677232, Note_on_c, 0, 63, 0
1, 1677232, Note_on_c, 0, 75, 0
1, 1677232, Note_on_c, 0, 68, 0
1, 1677235, Note_on_c, 0, 51, 0
1, 1677235, Note_on_c, 0, 56, 0
1, 1677235, Note_on_c, 0, 60, 0
1, 1677375, Note_on_c, 0, 61, 90
1, 1677375, Note_on_c, 0, 63, 90
1, 1677375, Note_on_c, 0, 67, 101
1, 1677378, Note_on_c, 0, 51, 89
1, 1677378, Note_on_c, 0, 58, 97
1, 1677442, Note_on_c, 0, 67, 0
1, 1677442, Note_on_c, 0, 61, 0
1, 1677442, Note_on_c, 0, 63, 0
1, 1677445, Note_on_c, 0, 51, 0
1, 1677445, Note_on_c, 0, 58, 0
1, 1677599, Note_on_c, 0, 60, 89
1, 1677599, Note_on_c, 0, 68, 100
1, 1677599, Note_on_c, 0, 44, 86
1, 1677602, Note_on_c, 0, 51, 86
1, 1677602, Note_on_c, 0, 56, 93
1, 1678049, Note_on_c, 0, 44, 0
1, 1678049, Note_on_c, 0, 60, 0
1, 1678049, Note_on_c, 0, 68, 0
1, 1678052, Note_on_c, 0, 51, 0
1, 1678052, Note_on_c, 0, 56, 0
1, 1678273, Note_on_c, 0, 63, 91
1, 1678273, Note_on_c, 0, 51, 78
1, 1678345, Note_on_c, 0, 51, 0
1, 1678345, Note_on_c, 0, 63, 0
1, 1678478, Note_on_c, 0, 60, 84
1, 1678478, Note_on_c, 0, 63, 84
1, 1678478, Note_on_c, 0, 68, 96
1, 1678481, Note_on_c, 0, 44, 71
1, 1678481, Note_on_c, 0, 56, 81
1, 1678559, Control_c, 0, 64, 127
1, 1678559, Control_c, 0, 64, 127
1, 1678737, Note_on_c, 0, 68, 0
1, 1678737, Note_on_c, 0, 60, 0
1, 1678737, Note_on_c, 0, 63, 0
1, 1678740, Note_on_c, 0, 64, 86
1, 1678740, Note_on_c, 0, 67, 86
1, 1678740, Note_on_c, 0, 70, 98
1, 1678743, Note_on_c, 0, 44, 0
1, 1678743, Note_on_c, 0, 56, 0
1, 1678743, Note_on_c, 0, 52, 73
1, 1678746, Note_on_c, 0, 55, 73
1, 1678746, Note_on_c, 0, 58, 83
1, 1678794, Control_c, 0, 64, 0
1, 1678794, Control_c, 0, 64, 0
1, 1678823, Note_on_c, 0, 67, 0
1, 1678823, Note_on_c, 0, 70, 0
1, 1678823, Note_on_c, 0, 64, 0
1, 1678826, Note_on_c, 0, 63, 86
1, 1678826, Note_on_c, 0, 68, 86
1, 1678826, Note_on_c, 0, 72, 99
1, 1678829, Note_on_c, 0, 52, 0
1, 1678829, Note_on_c, 0, 58, 0
1, 1678829, Note_on_c, 0, 55, 0
1, 1678832, Note_on_c, 0, 51, 73
1, 1678832, Note_on_c, 0, 56, 73
1, 1678832, Note_on_c, 0, 60, 84
1, 1678879, Note_on_c, 0, 63, 0
1, 1678879, Note_on_c, 0, 72, 0
1, 1678879, Note_on_c, 0, 68, 0
1, 1678882, Note_on_c, 0, 51, 0
1, 1678882, Note_on_c, 0, 56, 0
1, 1678882, Note_on_c, 0, 60, 0
1, 1679010, Note_on_c, 0, 67, 87
1, 1679010, Note_on_c, 0, 70, 87
1, 1679010, Note_on_c, 0, 73, 100
1, 1679013, Note_on_c, 0, 55, 75
1, 1679013, Note_on_c, 0, 58, 75
1, 1679013, Note_on_c, 0, 61, 86
1, 1679067, Note_on_c, 0, 73, 0
1, 1679067, Note_on_c, 0, 67, 0
1, 1679067, Note_on_c, 0, 70, 0
1, 1679070, Note_on_c, 0, 55, 0
1, 1679070, Note_on_c, 0, 58, 0
1, 1679070, Note_on_c, 0, 61, 0
1, 1679198, Note_on_c, 0, 69, 88
1, 1679198, Note_on_c, 0, 72, 88
1, 1679198, Note_on_c, 0, 75, 102
1, 1679201, Note_on_c, 0, 54, 76
1, 1679201, Note_on_c, 0, 60, 76
1, 1679201, Note_on_c, 0, 63, 87
1, 1679265, Note_on_c, 0, 75, 0
1, 1679265, Note_on_c, 0, 69, 0
1, 1679265, Note_on_c, 0, 72, 0
1, 1679268, Note_on_c, 0, 54, 0
1, 1679268, Note_on_c, 0, 60, 0
1, 1679268, Note_on_c, 0, 63, 0
1, 1679422, Note_on_c, 0, 69, 90
1, 1679422, Note_on_c, 0, 72, 90
1, 1679422, Note_on_c, 0, 77, 104
1, 1679425, Note_on_c, 0, 53, 77
1, 1679425, Note_on_c, 0, 60, 77
1, 1679425, Note_on_c, 0, 65, 89
1, 1679502, Note_on_c, 0, 77, 0
1, 1679502, Note_on_c, 0, 69, 0
1, 1679502, Note_on_c, 0, 72, 0
1, 1679505, Note_on_c, 0, 53, 0
1, 1679505, Note_on_c, 0, 60, 0
1, 1679505, Note_on_c, 0, 65, 0
1, 1679686, Note_on_c, 0, 69, 98
1, 1679686, Note_on_c, 0, 72, 98
1, 1679686, Note_on_c, 0, 78, 112
1, 1679689, Note_on_c, 0, 51, 83
1, 1679689, Note_on_c, 0, 60, 83
1, 1679689, Note_on_c, 0, 66, 95
1, 1679756, Control_c, 0, 64, 127
1, 1679756, Control_c, 0, 64, 127
1, 1680095, Note_on_c, 0, 51, 0
1, 1680095, Note_on_c, 0, 72, 0
1, 1680095, Note_on_c, 0, 69, 0
1, 1680098, Note_on_c, 0, 60, 0
1, 1680112, Control_c, 0, 64, 127
1, 1680112, Control_c, 0, 64, 127
1, 1680299, Note_on_c, 0, 78, 0
1, 1680299, Note_on_c, 0, 68, 92
1, 1680299, Note_on_c, 0, 73, 92
1, 1680302, Note_on_c, 0, 66, 0
1, 1680302, Note_on_c, 0, 77, 106
1, 1680302, Note_on_c, 0, 53, 89
1, 1680305, Note_on_c, 0, 61, 77
1, 1680305, Note_on_c, 0, 65, 76
1, 1680329, Control_c, 0, 64, 0
1, 1680329, Control_c, 0, 64, 0
1, 1680503, Note_on_c, 0, 77, 0
1, 1680503, Note_on_c, 0, 68, 0
1, 1680503, Note_on_c, 0, 73, 0
1, 1680506, Note_on_c, 0, 69, 89
1, 1680506, Note_on_c, 0, 72, 89
1, 1680506, Note_on_c, 0, 75, 103
1, 1680509, Note_on_c, 0, 53, 0
1, 1680509, Note_on_c, 0, 65, 0
1, 1680509, Note_on_c, 0, 61, 0
1, 1680512, Note_on_c, 0, 54, 87
1, 1680512, Note_on_c, 0, 60, 75
1, 1680512, Note_on_c, 0, 63, 74
1, 1680708, Note_on_c, 0, 69, 0
1, 1680708, Note_on_c, 0, 75, 0
1, 1680708, Note_on_c, 0, 72, 0
1, 1680711, Note_on_c, 0, 70, 87
1, 1680711, Note_on_c, 0, 73, 87
1, 1680711, Note_on_c, 0, 75, 100
1, 1680714, Note_on_c, 0, 54, 0
1, 1680714, Note_on_c, 0, 63, 0
1, 1680714, Note_on_c, 0, 60, 0
1, 1680717, Note_on_c, 0, 55, 85
1, 1680717, Note_on_c, 0, 61, 73
1, 1680717, Note_on_c, 0, 63, 72
1, 1680932, Note_on_c, 0, 70, 0
1, 1680932, Note_on_c, 0, 75, 0
1, 1680932, Note_on_c, 0, 73, 0
1, 1680935, Note_on_c, 0, 68, 85
1, 1680935, Note_on_c, 0, 72, 85
1, 1680935, Note_on_c, 0, 75, 97
1, 1680938, Note_on_c, 0, 55, 0
1, 1680938, Note_on_c, 0, 63, 0
1, 1680938, Note_on_c, 0, 61, 0
1, 1680941, Note_on_c, 0, 56, 84
1, 1680941, Note_on_c, 0, 60, 72
1, 1680941, Note_on_c, 0, 63, 70
1, 1680961, Control_c, 0, 64, 127
1, 1680961, Control_c, 0, 64, 127
1, 1681157, Note_on_c, 0, 68, 0
1, 1681157, Note_on_c, 0, 75, 0
1, 1681157, Note_on_c, 0, 72, 0
1, 1681160, Note_on_c, 0, 68, 84
1, 1681160, Note_on_c, 0, 73, 84
1, 1681160, Note_on_c, 0, 76, 95
1, 1681163, Note_on_c, 0, 56, 0
1, 1681163, Note_on_c, 0, 63, 0
1, 1681163, Note_on_c, 0, 60, 0
1, 1681166, Note_on_c, 0, 56, 65
1, 1681166, Note_on_c, 0, 61, 65
1, 1681166, Note_on_c, 0, 64, 75
1, 1681181, Control_c, 0, 64, 0
1, 1681181, Control_c, 0, 64, 0
1, 1681238, Control_c, 0, 64, 127
1, 1681238, Control_c, 0, 64, 127
1, 1681381, Note_on_c, 0, 68, 0
1, 1681381, Note_on_c, 0, 76, 0
1, 1681381, Note_on_c, 0, 73, 0
1, 1681384, Note_on_c, 0, 68, 76
1, 1681384, Note_on_c, 0, 72, 76
1, 1681384, Note_on_c, 0, 75, 87
1, 1681387, Note_on_c, 0, 56, 0
1, 1681387, Note_on_c, 0, 64, 0
1, 1681387, Note_on_c, 0, 61, 0
1, 1681390, Note_on_c, 0, 56, 59
1, 1681390, Note_on_c, 0, 60, 59
1, 1681390, Note_on_c, 0, 63, 69
1, 1681449, Control_c, 0, 64, 0
1, 1681449, Control_c, 0, 64, 0
1, 1681606, Note_on_c, 0, 68, 0
1, 1681606, Note_on_c, 0, 75, 0
1, 1681606, Note_on_c, 0, 72, 0
1, 1681609, Note_on_c, 0, 56, 0
1, 1681609, Note_on_c, 0, 60, 0
1, 1681609, Note_on_c, 0, 68, 86
1, 1681612, Note_on_c, 0, 63, 0
1, 1681810, Note_on_c, 0, 68, 0
1, 1681810, Note_on_c, 0, 64, 83
1, 1681810, Note_on_c, 0, 61, 77
1, 1681813, Note_on_c, 0, 49, 77
1, 1681969, Control_c, 0, 64, 127
1, 1681969, Control_c, 0, 64, 127
1, 1682035, Note_on_c, 0, 68, 87
1, 1682222, Note_on_c, 0, 68, 0
1, 1682222, Note_on_c, 0, 61, 0
1, 1682222, Note_on_c, 0, 73, 91
1, 1682225, Note_on_c, 0, 59, 80
1, 1682409, Note_on_c, 0, 73, 0
1, 1682409, Note_on_c, 0, 75, 95
1, 1682597, Note_on_c, 0, 75, 0
1, 1682597, Note_on_c, 0, 64, 0
1, 1682597, Note_on_c, 0, 64, 77
1, 1682600, Note_on_c, 0, 49, 0
1, 1682600, Note_on_c, 0, 76, 95
1, 1682600, Note_on_c, 0, 42, 80
1, 1682603, Note_on_c, 0, 59, 0
1, 1682603, Control_c, 0, 64, 0
1, 1682603, Note_on_c, 0, 58, 85
1, 1682606, Control_c, 0, 64, 0
1, 1682903, Note_on_c, 0, 76, 0
1, 1682903, Note_on_c, 0, 75, 93
1, 1683005, Note_on_c, 0, 75, 0
1, 1683005, Note_on_c, 0, 42, 0
1, 1683005, Note_on_c, 0, 73, 89
1, 1683008, Note_on_c, 0, 43, 82
1, 1683080, Control_c, 0, 64, 127
1, 1683080, Control_c, 0, 64, 127
1, 1683209, Note_on_c, 0, 58, 0
1, 1683209, Note_on_c, 0, 57, 78
1, 1683374, Control_c, 0, 64, 0
1, 1683374, Control_c, 0, 64, 0
1, 1683434, Note_on_c, 0, 64, 0
1, 1683434, Note_on_c, 0, 73, 0
1, 1683434, Note_on_c, 0, 56, 88
1, 1683437, Note_on_c, 0, 43, 0
1, 1683437, Note_on_c, 0, 64, 71
1, 1683437, Note_on_c, 0, 68, 71
1, 1683440, Note_on_c, 0, 57, 0
1, 1683440, Note_on_c, 0, 44, 74
1, 1683523, Control_c, 0, 64, 127
1, 1683523, Control_c, 0, 64, 127
1, 1683658, Note_on_c, 0, 56, 0
1, 1683658, Note_on_c, 0, 61, 94
1, 1683863, Note_on_c, 0, 61, 0
1, 1683863, Note_on_c, 0, 68, 0
1, 1683863, Note_on_c, 0, 64, 0
1, 1683866, Note_on_c, 0, 64, 99
1, 1684050, Note_on_c, 0, 64, 0
1, 1684050, Note_on_c, 0, 66, 104
1, 1684050, Note_on_c, 0, 52, 88
1, 1684192, Control_c, 0, 64, 0
1, 1684192, Control_c, 0, 64, 0
1, 1684237, Note_on_c, 0, 66, 0
1, 1684237, Note_on_c, 0, 64, 90
1, 1684237, Note_on_c, 0, 68, 104
1, 1684240, Note_on_c, 0, 52, 0
1, 1684240, Note_on_c, 0, 44, 0
1, 1684240, Note_on_c, 0, 49, 86
1, 1684243, Note_on_c, 0, 44, 78
1, 1684302, Control_c, 0, 64, 127
1, 1684302, Control_c, 0, 64, 127
1, 1684462, Note_on_c, 0, 49, 0
1, 1684462, Note_on_c, 0, 52, 93
1, 1684574, Note_on_c, 0, 68, 0
1, 1684574, Note_on_c, 0, 64, 0
1, 1684574, Note_on_c, 0, 61, 85
1, 1684577, Note_on_c, 0, 64, 95
1, 1684686, Note_on_c, 0, 64, 0
1, 1684686, Note_on_c, 0, 61, 0
1, 1684686, Note_on_c, 0, 60, 78
1, 1684689, Note_on_c, 0, 52, 0
1, 1684689, Note_on_c, 0, 63, 89
1, 1684689, Note_on_c, 0, 56, 99
1, 1684699, Control_c, 0, 64, 0
1, 1684699, Control_c, 0, 64, 0
1, 1684911, Note_on_c, 0, 63, 0
1, 1684911, Note_on_c, 0, 60, 0
1, 1684911, Note_on_c, 0, 68, 106
1, 1684914, Note_on_c, 0, 56, 0
1, 1684914, Note_on_c, 0, 75, 106
1, 1684914, Note_on_c, 0, 80, 117
1, 1684917, Note_on_c, 0, 44, 0
1, 1684917, Note_on_c, 0, 60, 103
1, 1684917, Note_on_c, 0, 48, 83
1, 1684979, Note_on_c, 0, 68, 0
1, 1684979, Note_on_c, 0, 80, 0
1, 1684979, Note_on_c, 0, 75, 0
1, 1684982, Note_on_c, 0, 60, 0
1, 1684982, Note_on_c, 0, 48, 0
1, 1685136, Note_on_c, 0, 65, 102
1, 1685136, Note_on_c, 0, 73, 102
1, 1685136, Note_on_c, 0, 77, 116
1, 1685139, Note_on_c, 0, 49, 111
1, 1685139, Note_on_c, 0, 61, 99
1, 1685215, Control_c, 0, 64, 127
1, 1685215, Control_c, 0, 64, 127
1, 1685395, Note_on_c, 0, 77, 0
1, 1685395, Note_on_c, 0, 65, 0
1, 1685395, Note_on_c, 0, 73, 0
1, 1685398, Note_on_c, 0, 68, 100
1, 1685398, Note_on_c, 0, 75, 100
1, 1685398, Note_on_c, 0, 80, 116
1, 1685401, Note_on_c, 0, 49, 0
1, 1685401, Note_on_c, 0, 61, 0
1, 1685401, Note_on_c, 0, 48, 117
1, 1685404, Note_on_c, 0, 60, 106
1, 1685481, Note_on_c, 0, 75, 0
1, 1685481, Note_on_c, 0, 80, 0
1, 1685481, Note_on_c, 0, 68, 0
1, 1685484, Note_on_c, 0, 73, 103
1, 1685484, Note_on_c, 0, 77, 103
1, 1685484, Note_on_c, 0, 85, 117
1, 1685487, Note_on_c, 0, 48, 0
1, 1685487, Note_on_c, 0, 60, 0
1, 1685487, Note_on_c, 0, 46, 117
1, 1685490, Control_c, 0, 64, 0
1, 1685490, Note_on_c, 0, 58, 109
1, 1685490, Control_c, 0, 64, 0
1, 1685538, Note_on_c, 0, 77, 0
1, 1685538, Note_on_c, 0, 85, 0
1, 1685538, Note_on_c, 0, 73, 0
1, 1685547, Note_on_c, 0, 46, 0
1, 1685547, Note_on_c, 0, 58, 0
1, 1685668, Note_on_c, 0, 75, 107
1, 1685668, Note_on_c, 0, 80, 107
1, 1685668, Note_on_c, 0, 84, 107
1, 1685671, Note_on_c, 0, 87, 117
1, 1685671, Note_on_c, 0, 44, 117
1, 1685671, Note_on_c, 0, 56, 114
1, 1685725, Note_on_c, 0, 84, 0
1, 1685725, Note_on_c, 0, 75, 0
1, 1685725, Note_on_c, 0, 80, 0
1, 1685728, Note_on_c, 0, 87, 0
1, 1685734, Note_on_c, 0, 44, 0
1, 1685734, Note_on_c, 0, 56, 0
1, 1685856, Note_on_c, 0, 77, 112
1, 1685856, Note_on_c, 0, 80, 112
1, 1685856, Note_on_c, 0, 85, 112
1, 1685859, Note_on_c, 0, 89, 117
1, 1685859, Note_on_c, 0, 37, 117
1, 1685859, Note_on_c, 0, 49, 117
1, 1685902, Control_c, 0, 64, 127
1, 1685902, Control_c, 0, 64, 127
1, 1686136, Note_on_c, 0, 85, 0
1, 1686136, Note_on_c, 0, 77, 0
1, 1686136, Note_on_c, 0, 80, 0
1, 1686139, Note_on_c, 0, 89, 0
1, 1686139, Note_on_c, 0, 75, 102
1, 1686139, Note_on_c, 0, 87, 117
1, 1686223, Note_on_c, 0, 87, 0
1, 1686223, Note_on_c, 0, 75, 0
1, 1686223, Note_on_c, 0, 73, 103
1, 1686226, Note_on_c, 0, 37, 0
1, 1686226, Note_on_c, 0, 49, 0
1, 1686226, Note_on_c, 0, 85, 117
1, 1686243, Control_c, 0, 64, 0
1, 1686243, Control_c, 0, 64, 0
1, 1686298, Note_on_c, 0, 85, 0
1, 1686298, Note_on_c, 0, 73, 0
1, 1686472, Note_on_c, 0, 72, 104
1, 1686472, Note_on_c, 0, 77, 104
1, 1686472, Note_on_c, 0, 81, 104
1, 1686475, Note_on_c, 0, 84, 117
1, 1686475, Note_on_c, 0, 53, 117
1, 1686475, Note_on_c, 0, 65, 116
1, 1686538, Control_c, 0, 64, 127
1, 1686538, Control_c, 0, 64, 127
1, 1686693, Control_c, 0, 64, 0
1, 1686693, Control_c, 0, 64, 0
1, 1686753, Note_on_c, 0, 81, 0
1, 1686753, Note_on_c, 0, 72, 0
1, 1686753, Note_on_c, 0, 77, 0
1, 1686756, Note_on_c, 0, 84, 0
1, 1686756, Note_on_c, 0, 74, 114
1, 1686756, Note_on_c, 0, 77, 114
1, 1686759, Note_on_c, 0, 53, 0
1, 1686759, Note_on_c, 0, 82, 114
1, 1686759, Note_on_c, 0, 86, 117
1, 1686762, Note_on_c, 0, 65, 0
1, 1686762, Note_on_c, 0, 58, 117
1, 1686762, Note_on_c, 0, 65, 111
1, 1686830, Control_c, 0, 64, 127
1, 1686830, Control_c, 0, 64, 127
1, 1687051, Control_c, 0, 64, 127
1, 1687051, Control_c, 0, 64, 127
1, 1687090, Note_on_c, 0, 82, 0
1, 1687090, Note_on_c, 0, 77, 0
1, 1687090, Note_on_c, 0, 74, 0
1, 1687093, Note_on_c, 0, 86, 0
1, 1687093, Note_on_c, 0, 72, 108
1, 1687093, Note_on_c, 0, 77, 108
1, 1687096, Note_on_c, 0, 81, 108
1, 1687096, Note_on_c, 0, 84, 117
1, 1687192, Note_on_c, 0, 81, 0
1, 1687192, Note_on_c, 0, 77, 0
1, 1687192, Note_on_c, 0, 72, 0
1, 1687195, Note_on_c, 0, 84, 0
1, 1687195, Note_on_c, 0, 74, 108
1, 1687195, Note_on_c, 0, 77, 108
1, 1687198, Note_on_c, 0, 82, 108
1, 1687198, Note_on_c, 0, 86, 117
1, 1687397, Note_on_c, 0, 82, 0
1, 1687397, Note_on_c, 0, 77, 0
1, 1687397, Note_on_c, 0, 74, 0
1, 1687400, Note_on_c, 0, 86, 0
1, 1687400, Note_on_c, 0, 72, 102
1, 1687400, Note_on_c, 0, 77, 102
1, 1687403, Note_on_c, 0, 58, 0
1, 1687403, Note_on_c, 0, 81, 102
1, 1687403, Note_on_c, 0, 84, 117
1, 1687406, Note_on_c, 0, 65, 0
1, 1687406, Note_on_c, 0, 41, 116
1, 1687406, Note_on_c, 0, 53, 105
1, 1687453, Control_c, 0, 64, 127
1, 1687453, Control_c, 0, 64, 127
1, 1687621, Note_on_c, 0, 81, 0
1, 1687621, Note_on_c, 0, 77, 0
1, 1687621, Note_on_c, 0, 72, 0
1, 1687624, Note_on_c, 0, 84, 0
1, 1687624, Note_on_c, 0, 74, 112
1, 1687624, Note_on_c, 0, 77, 112
1, 1687627, Note_on_c, 0, 41, 0
1, 1687627, Note_on_c, 0, 82, 112
1, 1687627, Note_on_c, 0, 86, 117
1, 1687630, Note_on_c, 0, 53, 0
1, 1687630, Note_on_c, 0, 46, 117
1, 1687630, Note_on_c, 0, 53, 106
1, 1687641, Control_c, 0, 64, 0
1, 1687641, Control_c, 0, 64, 0
1, 1687681, Control_c, 0, 64, 127
1, 1687681, Control_c, 0, 64, 127
1, 1687858, Control_c, 0, 64, 127
1, 1687858, Control_c, 0, 64, 127
1, 1687902, Note_on_c, 0, 53, 0
1, 1687902, Note_on_c, 0, 46, 0
1, 1687902, Note_on_c, 0, 41, 117
1, 1687905, Note_on_c, 0, 53, 111
1, 1687986, Control_c, 0, 64, 127
1, 1687986, Control_c, 0, 64, 127
1, 1687996, Note_on_c, 0, 53, 0
1, 1687996, Note_on_c, 0, 41, 0
1, 1687996, Note_on_c, 0, 46, 117
1, 1687999, Note_on_c, 0, 53, 111
1, 1688175, Control_c, 0, 64, 0
1, 1688175, Control_c, 0, 64, 0
1, 1688245, Note_on_c, 0, 82, 0
1, 1688245, Note_on_c, 0, 77, 0
1, 1688245, Note_on_c, 0, 74, 0
1, 1688248, Note_on_c, 0, 86, 0
1, 1688248, Note_on_c, 0, 72, 105
1, 1688248, Note_on_c, 0, 77, 105
1, 1688251, Note_on_c, 0, 46, 0
1, 1688251, Note_on_c, 0, 81, 105
1, 1688251, Note_on_c, 0, 84, 117
1, 1688254, Note_on_c, 0, 53, 0
1, 1688254, Note_on_c, 0, 53, 117
1, 1688254, Note_on_c, 0, 65, 117
1, 1688334, Control_c, 0, 64, 127
1, 1688334, Control_c, 0, 64, 127
1, 1688452, Control_c, 0, 64, 0
1, 1688452, Control_c, 0, 64, 0
1, 1688495, Note_on_c, 0, 81, 0
1, 1688495, Note_on_c, 0, 77, 0
1, 1688495, Note_on_c, 0, 72, 0
1, 1688498, Note_on_c, 0, 84, 0
1, 1688498, Note_on_c, 0, 74, 114
1, 1688498, Note_on_c, 0, 77, 114
1, 1688501, Note_on_c, 0, 53, 0
1, 1688501, Note_on_c, 0, 82, 114
1, 1688501, Note_on_c, 0, 86, 117
1, 1688504, Note_on_c, 0, 65, 0
1, 1688504, Note_on_c, 0, 58, 117
1, 1688504, Note_on_c, 0, 65, 117
1, 1688554, Control_c, 0, 64, 127
1, 1688554, Control_c, 0, 64, 127
1, 1688724, Control_c, 0, 64, 127
1, 1688724, Control_c, 0, 64, 127
1, 1688754, Note_on_c, 0, 82, 0
1, 1688754, Note_on_c, 0, 77, 0
1, 1688754, Note_on_c, 0, 74, 0
1, 1688757, Note_on_c, 0, 86, 0
1, 1688757, Note_on_c, 0, 72, 108
1, 1688757, Note_on_c, 0, 77, 108
1, 1688760, Note_on_c, 0, 81, 108
1, 1688760, Note_on_c, 0, 84, 108
1, 1688840, Note_on_c, 0, 81, 0
1, 1688840, Note_on_c, 0, 77, 0
1, 1688840, Note_on_c, 0, 72, 0
1, 1688843, Note_on_c, 0, 84, 0
1, 1688843, Note_on_c, 0, 74, 108
1, 1688843, Note_on_c, 0, 77, 108
1, 1688846, Note_on_c, 0, 82, 108
1, 1688846, Note_on_c, 0, 86, 108
1, 1689028, Note_on_c, 0, 82, 0
1, 1689028, Note_on_c, 0, 77, 0
1, 1689028, Note_on_c, 0, 74, 0
1, 1689031, Note_on_c, 0, 86, 0
1, 1689031, Note_on_c, 0, 72, 102
1, 1689031, Note_on_c, 0, 77, 102
1, 1689034, Note_on_c, 0, 58, 0
1, 1689034, Note_on_c, 0, 81, 102
1, 1689034, Note_on_c, 0, 84, 117
1, 1689037, Note_on_c, 0, 65, 0
1, 1689037, Note_on_c, 0, 41, 116
1, 1689037, Note_on_c, 0, 53, 105
1, 1689079, Control_c, 0, 64, 127
1, 1689079, Control_c, 0, 64, 127
1, 1689232, Note_on_c, 0, 81, 0
1, 1689232, Note_on_c, 0, 77, 0
1, 1689232, Note_on_c, 0, 72, 0
1, 1689235, Note_on_c, 0, 84, 0
1, 1689235, Note_on_c, 0, 74, 112
1, 1689235, Note_on_c, 0, 77, 112
1, 1689238, Note_on_c, 0, 41, 0
1, 1689238, Note_on_c, 0, 82, 112
1, 1689238, Note_on_c, 0, 86, 117
1, 1689241, Note_on_c, 0, 53, 0
1, 1689241, Note_on_c, 0, 46, 117
1, 1689241, Note_on_c, 0, 53, 106
1, 1689254, Control_c, 0, 64, 0
1, 1689254, Control_c, 0, 64, 0
1, 1689297, Control_c, 0, 64, 127
1, 1689297, Control_c, 0, 64, 127
1, 1689490, Control_c, 0, 64, 127
1, 1689490, Control_c, 0, 64, 127
1, 1689538, Note_on_c, 0, 53, 0
1, 1689538, Note_on_c, 0, 46, 0
1, 1689538, Note_on_c, 0, 41, 117
1, 1689541, Note_on_c, 0, 53, 111
1, 1689629, Control_c, 0, 64, 127
1, 1689629, Control_c, 0, 64, 127
1, 1689640, Note_on_c, 0, 53, 0
1, 1689640, Note_on_c, 0, 41, 0
1, 1689640, Note_on_c, 0, 46, 117
1, 1689643, Note_on_c, 0, 53, 111
1, 1689819, Control_c, 0, 64, 0
1, 1689819, Control_c, 0, 64, 0
1, 1689890, Note_on_c, 0, 82, 0
1, 1689890, Note_on_c, 0, 77, 0
1, 1689890, Note_on_c, 0, 74, 0
1, 1689893, Note_on_c, 0, 86, 0
1, 1689893, Note_on_c, 0, 46, 0
1, 1689893, Note_on_c, 0, 57, 101
1, 1689896, Note_on_c, 0, 53, 0
1, 1689896, Note_on_c, 0, 33, 116
1, 1689896, Note_on_c, 0, 45, 117
1, 1689970, Control_c, 0, 64, 127
1, 1689970, Control_c, 0, 64, 127
1, 1690076, Control_c, 0, 64, 0
1, 1690076, Control_c, 0, 64, 0
1, 1690114, Note_on_c, 0, 33, 0
1, 1690114, Note_on_c, 0, 57, 0
1, 1690114, Note_on_c, 0, 56, 117
1, 1690117, Note_on_c, 0, 45, 0
1, 1690117, Note_on_c, 0, 32, 108
1, 1690117, Note_on_c, 0, 44, 96
1, 1690246, Control_c, 0, 64, 127
1, 1690246, Control_c, 0, 64, 127
1, 1690421, Note_on_c, 0, 56, 0
1, 1690421, Note_on_c, 0, 68, 108
1, 1690421, Note_on_c, 0, 72, 108
1, 1690424, Note_on_c, 0, 44, 0
1, 1690424, Note_on_c, 0, 32, 0
1, 1690424, Note_on_c, 0, 75, 117
1, 1690427, Note_on_c, 0, 56, 96
1, 1690427, Note_on_c, 0, 63, 111
1, 1690501, Note_on_c, 0, 75, 0
1, 1690501, Note_on_c, 0, 72, 0
1, 1690501, Note_on_c, 0, 68, 0
1, 1690504, Note_on_c, 0, 68, 108
1, 1690504, Note_on_c, 0, 73, 108
1, 1690504, Note_on_c, 0, 77, 117
1, 1690507, Note_on_c, 0, 56, 0
1, 1690507, Note_on_c, 0, 63, 0
1, 1690507, Note_on_c, 0, 61, 96
1, 1690510, Note_on_c, 0, 65, 111
1, 1690688, Note_on_c, 0, 73, 0
1, 1690688, Note_on_c, 0, 77, 0
1, 1690688, Note_on_c, 0, 68, 0
1, 1690691, Note_on_c, 0, 68, 108
1, 1690691, Note_on_c, 0, 72, 108
1, 1690691, Note_on_c, 0, 75, 117
1, 1690694, Note_on_c, 0, 61, 0
1, 1690694, Note_on_c, 0, 65, 0
1, 1690694, Note_on_c, 0, 56, 96
1, 1690697, Note_on_c, 0, 63, 111
1, 1690892, Note_on_c, 0, 72, 0
1, 1690892, Note_on_c, 0, 75, 0
1, 1690892, Note_on_c, 0, 68, 0
1, 1690895, Note_on_c, 0, 68, 108
1, 1690895, Note_on_c, 0, 73, 108
1, 1690895, Note_on_c, 0, 77, 117
1, 1690898, Note_on_c, 0, 56, 0
1, 1690898, Note_on_c, 0, 63, 0
1, 1690898, Note_on_c, 0, 61, 96
1, 1690901, Note_on_c, 0, 65, 111
1, 1690933, Control_c, 0, 64, 0
1, 1690933, Control_c, 0, 64, 0
1, 1691014, Control_c, 0, 64, 127
1, 1691014, Control_c, 0, 64, 127
1, 1691152, Note_on_c, 0, 73, 0
1, 1691152, Note_on_c, 0, 77, 0
1, 1691152, Note_on_c, 0, 68, 0
1, 1691155, Note_on_c, 0, 61, 0
1, 1691155, Note_on_c, 0, 65, 0
1, 1691155, Note_on_c, 0, 56, 117
1, 1691158, Note_on_c, 0, 32, 108
1, 1691158, Note_on_c, 0, 44, 96
1, 1691232, Note_on_c, 0, 32, 0
1, 1691232, Note_on_c, 0, 56, 0
1, 1691232, Note_on_c, 0, 61, 117
1, 1691235, Note_on_c, 0, 44, 0
1, 1691235, Note_on_c, 0, 37, 108
1, 1691235, Note_on_c, 0, 49, 96
1, 1691436, Note_on_c, 0, 37, 0
1, 1691436, Note_on_c, 0, 61, 0
1, 1691436, Note_on_c, 0, 56, 117
1, 1691439, Note_on_c, 0, 49, 0
1, 1691439, Note_on_c, 0, 32, 108
1, 1691439, Note_on_c, 0, 44, 96
1, 1691623, Note_on_c, 0, 56, 0
1, 1691623, Control_c, 0, 64, 127
1, 1691623, Note_on_c, 0, 61, 117
1, 1691626, Note_on_c, 0, 44, 0
1, 1691626, Note_on_c, 0, 32, 0
1, 1691626, Control_c, 0, 64, 127
1, 1691629, Note_on_c, 0, 37, 108
1, 1691629, Note_on_c, 0, 49, 96
1, 1691667, Control_c, 0, 64, 0
1, 1691667, Control_c, 0, 64, 0
1, 1691798, Control_c, 0, 64, 127
1, 1691798, Control_c, 0, 64, 127
1, 1691930, Note_on_c, 0, 61, 0
1, 1691930, Note_on_c, 0, 68, 108
1, 1691930, Note_on_c, 0, 72, 108
1, 1691933, Note_on_c, 0, 49, 0
1, 1691933, Note_on_c, 0, 37, 0
1, 1691933, Note_on_c, 0, 75, 117
1, 1691936, Note_on_c, 0, 56, 96
1, 1691936, Note_on_c, 0, 63, 111
1, 1692010, Note_on_c, 0, 75, 0
1, 1692010, Note_on_c, 0, 72, 0
1, 1692010, Note_on_c, 0, 68, 0
1, 1692013, Note_on_c, 0, 68, 108
1, 1692013, Note_on_c, 0, 73, 108
1, 1692013, Note_on_c, 0, 77, 117
1, 1692016, Note_on_c, 0, 56, 0
1, 1692016, Note_on_c, 0, 63, 0
1, 1692016, Note_on_c, 0, 61, 96
1, 1692019, Note_on_c, 0, 65, 111
1, 1692197, Note_on_c, 0, 73, 0
1, 1692197, Note_on_c, 0, 77, 0
1, 1692197, Note_on_c, 0, 68, 0
1, 1692200, Note_on_c, 0, 68, 108
1, 1692200, Note_on_c, 0, 72, 108
1, 1692200, Note_on_c, 0, 75, 117
1, 1692203, Note_on_c, 0, 61, 0
1, 1692203, Note_on_c, 0, 65, 0
1, 1692203, Note_on_c, 0, 56, 96
1, 1692206, Note_on_c, 0, 63, 111
1, 1692401, Note_on_c, 0, 72, 0
1, 1692401, Note_on_c, 0, 75, 0
1, 1692401, Note_on_c, 0, 68, 0
1, 1692404, Note_on_c, 0, 68, 108
1, 1692404, Note_on_c, 0, 73, 108
1, 1692404, Note_on_c, 0, 77, 117
1, 1692407, Note_on_c, 0, 56, 0
1, 1692407, Note_on_c, 0, 63, 0
1, 1692407, Note_on_c, 0, 61, 96
1, 1692410, Note_on_c, 0, 65, 111
1, 1692427, Control_c, 0, 64, 0
1, 1692427, Control_c, 0, 64, 0
1, 1692634, Control_c, 0, 64, 127
1, 1692634, Control_c, 0, 64, 127
1, 1692660, Note_on_c, 0, 73, 0
1, 1692660, Note_on_c, 0, 77, 0
1, 1692660, Note_on_c, 0, 68, 0
1, 1692663, Note_on_c, 0, 61, 0
1, 1692663, Note_on_c, 0, 65, 0
1, 1692663, Note_on_c, 0, 56, 117
1, 1692666, Note_on_c, 0, 32, 108
1, 1692666, Note_on_c, 0, 44, 96
1, 1692741, Note_on_c, 0, 32, 0
1, 1692741, Note_on_c, 0, 56, 0
1, 1692741, Note_on_c, 0, 61, 117
1, 1692744, Note_on_c, 0, 44, 0
1, 1692744, Note_on_c, 0, 37, 108
1, 1692744, Note_on_c, 0, 49, 96
1, 1692945, Note_on_c, 0, 37, 0
1, 1692945, Note_on_c, 0, 61, 0
1, 1692945, Note_on_c, 0, 60, 117
1, 1692948, Note_on_c, 0, 49, 0
1, 1692948, Note_on_c, 0, 36, 108
1, 1692948, Note_on_c, 0, 48, 96
1, 1692988, Control_c, 0, 64, 0
1, 1692988, Control_c, 0, 64, 0
1, 1693068, Control_c, 0, 64, 127
1, 1693068, Control_c, 0, 64, 127
1, 1693132, Note_on_c, 0, 36, 0
1, 1693132, Note_on_c, 0, 60, 0
1, 1693132, Note_on_c, 0, 61, 117
1, 1693135, Note_on_c, 0, 48, 0
1, 1693135, Note_on_c, 0, 37, 99
1, 1693135, Note_on_c, 0, 49, 111
1, 1693184, Control_c, 0, 64, 127
1, 1693184, Control_c, 0, 64, 127
1, 1693391, Note_on_c, 0, 61, 0
1, 1693391, Note_on_c, 0, 65, 97
1, 1693391, Note_on_c, 0, 68, 97
1, 1693394, Note_on_c, 0, 49, 0
1, 1693394, Note_on_c, 0, 37, 0
1, 1693394, Note_on_c, 0, 73, 117
1, 1693397, Note_on_c, 0, 49, 85
1, 1693397, Note_on_c, 0, 56, 85
1, 1693397, Note_on_c, 0, 59, 109
1, 1693472, Note_on_c, 0, 73, 0
1, 1693472, Note_on_c, 0, 68, 0
1, 1693472, Note_on_c, 0, 65, 0
1, 1693475, Note_on_c, 0, 65, 102
1, 1693475, Note_on_c, 0, 68, 102
1, 1693475, Note_on_c, 0, 73, 117
1, 1693478, Note_on_c, 0, 49, 0
1, 1693478, Note_on_c, 0, 59, 0
1, 1693478, Note_on_c, 0, 56, 0
1, 1693481, Note_on_c, 0, 49, 90
1, 1693481, Note_on_c, 0, 56, 90
1, 1693481, Note_on_c, 0, 59, 114
1, 1693644, Note_on_c, 0, 65, 0
1, 1693644, Note_on_c, 0, 73, 0
1, 1693644, Note_on_c, 0, 68, 0
1, 1693647, Note_on_c, 0, 49, 0
1, 1693647, Note_on_c, 0, 56, 0
1, 1693647, Note_on_c, 0, 65, 117
1, 1693650, Note_on_c, 0, 59, 0
1, 1693650, Note_on_c, 0, 41, 99
1, 1693650, Note_on_c, 0, 53, 111
1, 1693817, Note_on_c, 0, 41, 0
1, 1693817, Note_on_c, 0, 65, 0
1, 1693817, Note_on_c, 0, 66, 117
1, 1693820, Note_on_c, 0, 53, 0
1, 1693820, Control_c, 0, 64, 0
1, 1693820, Note_on_c, 0, 42, 99
1, 1693820, Note_on_c, 0, 54, 111
1, 1693820, Control_c, 0, 64, 0
1, 1693946, Control_c, 0, 64, 127
1, 1693946, Control_c, 0, 64, 127
1, 1694076, Note_on_c, 0, 66, 0
1, 1694076, Note_on_c, 0, 70, 97
1, 1694076, Note_on_c, 0, 73, 97
1, 1694079, Note_on_c, 0, 54, 0
1, 1694079, Note_on_c, 0, 42, 0
1, 1694079, Note_on_c, 0, 82, 117
1, 1694082, Note_on_c, 0, 54, 85
1, 1694082, Note_on_c, 0, 61, 85
1, 1694082, Note_on_c, 0, 64, 109
1, 1694157, Note_on_c, 0, 82, 0
1, 1694157, Note_on_c, 0, 73, 0
1, 1694157, Note_on_c, 0, 70, 0
1, 1694160, Note_on_c, 0, 70, 102
1, 1694160, Note_on_c, 0, 73, 102
1, 1694160, Note_on_c, 0, 82, 117
1, 1694163, Note_on_c, 0, 54, 0
1, 1694163, Note_on_c, 0, 64, 0
1, 1694163, Note_on_c, 0, 61, 0
1, 1694166, Note_on_c, 0, 54, 90
1, 1694166, Note_on_c, 0, 61, 90
1, 1694166, Note_on_c, 0, 64, 114
1, 1694329, Note_on_c, 0, 70, 0
1, 1694329, Note_on_c, 0, 82, 0
1, 1694329, Note_on_c, 0, 73, 0
1, 1694332, Note_on_c, 0, 54, 0
1, 1694332, Note_on_c, 0, 61, 0
1, 1694332, Note_on_c, 0, 70, 117
1, 1694335, Note_on_c, 0, 64, 0
1, 1694335, Note_on_c, 0, 46, 99
1, 1694335, Note_on_c, 0, 58, 111
1, 1694458, Control_c, 0, 64, 0
1, 1694458, Control_c, 0, 64, 0
1, 1694502, Note_on_c, 0, 46, 0
1, 1694502, Note_on_c, 0, 70, 0
1, 1694502, Note_on_c, 0, 71, 117
1, 1694505, Note_on_c, 0, 58, 0
1, 1694505, Note_on_c, 0, 47, 99
1, 1694505, Note_on_c, 0, 59, 111
1, 1694554, Control_c, 0, 64, 127
1, 1694554, Control_c, 0, 64, 127
1, 1694761, Note_on_c, 0, 71, 0
1, 1694761, Note_on_c, 0, 75, 97
1, 1694761, Note_on_c, 0, 78, 97
1, 1694764, Note_on_c, 0, 59, 0
1, 1694764, Note_on_c, 0, 47, 0
1, 1694764, Note_on_c, 0, 87, 117
1, 1694767, Note_on_c, 0, 59, 85
1, 1694767, Note_on_c, 0, 66, 85
1, 1694767, Note_on_c, 0, 69, 109
1, 1694842, Note_on_c, 0, 87, 0
1, 1694842, Note_on_c, 0, 78, 0
1, 1694842, Note_on_c, 0, 75, 0
1, 1694845, Note_on_c, 0, 75, 102
1, 1694845, Note_on_c, 0, 78, 102
1, 1694845, Note_on_c, 0, 87, 117
1, 1694848, Note_on_c, 0, 59, 0
1, 1694848, Note_on_c, 0, 69, 0
1, 1694848, Note_on_c, 0, 66, 0
1, 1694851, Note_on_c, 0, 59, 90
1, 1694851, Note_on_c, 0, 66, 90
1, 1694851, Note_on_c, 0, 69, 114
1, 1695014, Note_on_c, 0, 75, 0
1, 1695014, Note_on_c, 0, 87, 0
1, 1695014, Note_on_c, 0, 78, 0
1, 1695017, Note_on_c, 0, 59, 0
1, 1695017, Note_on_c, 0, 66, 0
1, 1695017, Note_on_c, 0, 69, 117
1, 1695020, Note_on_c, 0, 69, 0
1, 1695020, Note_on_c, 0, 45, 99
1, 1695020, Note_on_c, 0, 57, 111
1, 1695187, Note_on_c, 0, 45, 0
1, 1695187, Note_on_c, 0, 69, 0
1, 1695187, Note_on_c, 0, 70, 117
1, 1695190, Note_on_c, 0, 57, 0
1, 1695190, Control_c, 0, 64, 0
1, 1695190, Note_on_c, 0, 46, 99
1, 1695190, Note_on_c, 0, 58, 111
1, 1695190, Control_c, 0, 64, 0
1, 1695316, Control_c, 0, 64, 127
1, 1695316, Control_c, 0, 64, 127
1, 1695446, Note_on_c, 0, 70, 0
1, 1695446, Note_on_c, 0, 75, 97
1, 1695446, Note_on_c, 0, 79, 97
1, 1695449, Note_on_c, 0, 58, 0
1, 1695449, Note_on_c, 0, 46, 0
1, 1695449, Note_on_c, 0, 87, 117
1, 1695452, Note_on_c, 0, 58, 85
1, 1695452, Note_on_c, 0, 63, 85
1, 1695452, Note_on_c, 0, 67, 109
1, 1695527, Note_on_c, 0, 87, 0
1, 1695527, Note_on_c, 0, 79, 0
1, 1695527, Note_on_c, 0, 75, 0
1, 1695530, Note_on_c, 0, 75, 102
1, 1695530, Note_on_c, 0, 79, 102
1, 1695530, Note_on_c, 0, 87, 117
1, 1695533, Note_on_c, 0, 58, 0
1, 1695533, Note_on_c, 0, 67, 0
1, 1695533, Note_on_c, 0, 63, 0
1, 1695536, Note_on_c, 0, 58, 90
1, 1695536, Note_on_c, 0, 63, 90
1, 1695536, Note_on_c, 0, 67, 114
1, 1695699, Note_on_c, 0, 75, 0
1, 1695699, Note_on_c, 0, 87, 0
1, 1695699, Note_on_c, 0, 79, 0
1, 1695702, Note_on_c, 0, 58, 0
1, 1695702, Note_on_c, 0, 63, 0
1, 1695702, Note_on_c, 0, 68, 117
1, 1695705, Note_on_c, 0, 67, 0
1, 1695705, Note_on_c, 0, 44, 99
1, 1695705, Note_on_c, 0, 56, 111
1, 1695780, Note_on_c, 0, 68, 0
1, 1695819, Control_c, 0, 64, 0
1, 1695819, Control_c, 0, 64, 0
1, 1695860, Note_on_c, 0, 56, 0
1, 1695860, Note_on_c, 0, 44, 0
1, 1695860, Note_on_c, 0, 69, 117
1, 1695863, Note_on_c, 0, 45, 99
1, 1695863, Note_on_c, 0, 57, 111
1, 1695908, Control_c, 0, 64, 127
1, 1695908, Control_c, 0, 64, 127
1, 1696101, Note_on_c, 0, 69, 0
1, 1696101, Note_on_c, 0, 73, 97
1, 1696101, Note_on_c, 0, 76, 97
1, 1696104, Note_on_c, 0, 57, 0
1, 1696104, Note_on_c, 0, 45, 0
1, 1696104, Note_on_c, 0, 85, 117
1, 1696107, Note_on_c, 0, 57, 85
1, 1696107, Note_on_c, 0, 64, 85
1, 1696107, Note_on_c, 0, 67, 109
1, 1696181, Note_on_c, 0, 85, 0
1, 1696181, Note_on_c, 0, 76, 0
1, 1696181, Note_on_c, 0, 73, 0
1, 1696184, Note_on_c, 0, 73, 102
1, 1696184, Note_on_c, 0, 76, 102
1, 1696184, Note_on_c, 0, 85, 117
1, 1696187, Note_on_c, 0, 57, 0
1, 1696187, Note_on_c, 0, 67, 0
1, 1696187, Note_on_c, 0, 64, 0
1, 1696190, Note_on_c, 0, 57, 90
1, 1696190, Note_on_c, 0, 64, 90
1, 1696190, Note_on_c, 0, 67, 114
1, 1696341, Note_on_c, 0, 73, 0
1, 1696341, Note_on_c, 0, 85, 0
1, 1696341, Note_on_c, 0, 76, 0
1, 1696344, Note_on_c, 0, 57, 0
1, 1696344, Note_on_c, 0, 64, 0
1, 1696344, Note_on_c, 0, 67, 117
1, 1696347, Note_on_c, 0, 67, 0
1, 1696347, Note_on_c, 0, 43, 99
1, 1696347, Note_on_c, 0, 55, 111
1, 1696502, Note_on_c, 0, 43, 0
1, 1696502, Note_on_c, 0, 67, 0
1, 1696502, Note_on_c, 0, 68, 117
1, 1696505, Note_on_c, 0, 55, 0
1, 1696505, Note_on_c, 0, 44, 99
1, 1696505, Note_on_c, 0, 56, 111
1, 1696508, Control_c, 0, 64, 0
1, 1696508, Control_c, 0, 64, 0
1, 1696622, Control_c, 0, 64, 127
1, 1696622, Control_c, 0, 64, 127
1, 1696742, Note_on_c, 0, 68, 0
1, 1696742, Note_on_c, 0, 73, 97
1, 1696742, Note_on_c, 0, 77, 97
1, 1696745, Note_on_c, 0, 56, 0
1, 1696745, Note_on_c, 0, 44, 0
1, 1696745, Note_on_c, 0, 85, 117
1, 1696748, Note_on_c, 0, 56, 85
1, 1696748, Note_on_c, 0, 61, 85
1, 1696748, Note_on_c, 0, 65, 109
1, 1696817, Note_on_c, 0, 85, 0
1, 1696817, Note_on_c, 0, 77, 0
1, 1696817, Note_on_c, 0, 73, 0
1, 1696820, Note_on_c, 0, 73, 102
1, 1696820, Note_on_c, 0, 77, 102
1, 1696820, Note_on_c, 0, 85, 117
1, 1696823, Note_on_c, 0, 56, 0
1, 1696823, Note_on_c, 0, 65, 0
1, 1696823, Note_on_c, 0, 61, 0
1, 1696826, Note_on_c, 0, 56, 90
1, 1696826, Note_on_c, 0, 61, 90
1, 1696826, Note_on_c, 0, 65, 114
1, 1696967, Note_on_c, 0, 73, 0
1, 1696967, Note_on_c, 0, 85, 0
1, 1696967, Note_on_c, 0, 77, 0
1, 1696970, Note_on_c, 0, 56, 0
1, 1696970, Note_on_c, 0, 61, 0
1, 1696970, Note_on_c, 0, 66, 117
1, 1696973, Note_on_c, 0, 65, 0
1, 1696973, Note_on_c, 0, 42, 99
1, 1696973, Note_on_c, 0, 54, 111
1, 1697086, Control_c, 0, 64, 0
1, 1697086, Control_c, 0, 64, 0
1, 1697128, Note_on_c, 0, 42, 0
1, 1697128, Note_on_c, 0, 66, 0
1, 1697128, Note_on_c, 0, 67, 117
1, 1697131, Note_on_c, 0, 54, 0
1, 1697131, Note_on_c, 0, 43, 99
1, 1697131, Note_on_c, 0, 55, 111
1, 1697175, Control_c, 0, 64, 127
1, 1697175, Control_c, 0, 64, 127
1, 1697368, Note_on_c, 0, 67, 0
1, 1697368, Note_on_c, 0, 71, 97
1, 1697368, Note_on_c, 0, 74, 97
1, 1697371, Note_on_c, 0, 55, 0
1, 1697371, Note_on_c, 0, 43, 0
1, 1697371, Note_on_c, 0, 83, 117
1, 1697374, Note_on_c, 0, 55, 85
1, 1697374, Note_on_c, 0, 62, 85
1, 1697374, Note_on_c, 0, 65, 109
1, 1697443, Note_on_c, 0, 83, 0
1, 1697443, Note_on_c, 0, 74, 0
1, 1697443, Note_on_c, 0, 71, 0
1, 1697446, Note_on_c, 0, 71, 102
1, 1697446, Note_on_c, 0, 74, 102
1, 1697446, Note_on_c, 0, 83, 117
1, 1697449, Note_on_c, 0, 55, 0
1, 1697449, Note_on_c, 0, 65, 0
1, 1697449, Note_on_c, 0, 62, 0
1, 1697452, Note_on_c, 0, 55, 90
1, 1697452, Note_on_c, 0, 62, 90
1, 1697452, Note_on_c, 0, 65, 114
1, 1697604, Note_on_c, 0, 71, 0
1, 1697604, Note_on_c, 0, 83, 0
1, 1697604, Note_on_c, 0, 74, 0
1, 1697607, Note_on_c, 0, 55, 0
1, 1697607, Note_on_c, 0, 62, 0
1, 1697607, Note_on_c, 0, 67, 117
1, 1697610, Note_on_c, 0, 65, 0
1, 1697610, Note_on_c, 0, 43, 99
1, 1697610, Note_on_c, 0, 55, 111
1, 1697764, Note_on_c, 0, 43, 0
1, 1697764, Note_on_c, 0, 67, 0
1, 1697764, Note_on_c, 0, 68, 117
1, 1697767, Note_on_c, 0, 55, 0
1, 1697767, Note_on_c, 0, 44, 99
1, 1697767, Note_on_c, 0, 56, 111
1, 1697770, Control_c, 0, 64, 0
1, 1697770, Control_c, 0, 64, 0
1, 1697884, Control_c, 0, 64, 127
1, 1697884, Control_c, 0, 64, 127
1, 1698005, Note_on_c, 0, 68, 0
1, 1698005, Note_on_c, 0, 71, 97
1, 1698005, Note_on_c, 0, 73, 97
1, 1698008, Note_on_c, 0, 44, 0
1, 1698008, Note_on_c, 0, 80, 117
1, 1698008, Note_on_c, 0, 83, 97
1, 1698011, Note_on_c, 0, 56, 0
1, 1698011, Note_on_c, 0, 56, 85
1, 1698011, Note_on_c, 0, 61, 85
1, 1698014, Note_on_c, 0, 65, 109
1, 1698080, Note_on_c, 0, 80, 0
1, 1698080, Note_on_c, 0, 73, 0
1, 1698080, Note_on_c, 0, 71, 0
1, 1698083, Note_on_c, 0, 83, 0
1, 1698083, Note_on_c, 0, 71, 102
1, 1698083, Note_on_c, 0, 73, 102
1, 1698086, Note_on_c, 0, 56, 0
1, 1698086, Note_on_c, 0, 80, 117
1, 1698086, Note_on_c, 0, 83, 102
1, 1698089, Note_on_c, 0, 65, 0
1, 1698089, Note_on_c, 0, 61, 0
1, 1698089, Note_on_c, 0, 56, 90
1, 1698092, Note_on_c, 0, 61, 90
1, 1698092, Note_on_c, 0, 65, 114
1, 1698267, Note_on_c, 0, 73, 0
1, 1698267, Note_on_c, 0, 80, 0
1, 1698267, Note_on_c, 0, 71, 0
1, 1698270, Note_on_c, 0, 56, 0
1, 1698270, Note_on_c, 0, 83, 0
1, 1698270, Note_on_c, 0, 61, 117
1, 1698273, Note_on_c, 0, 65, 0
1, 1698273, Note_on_c, 0, 61, 0
1, 1698273, Note_on_c, 0, 37, 99
1, 1698276, Note_on_c, 0, 49, 111
1, 1698434, Control_c, 0, 64, 0
1, 1698434, Control_c, 0, 64, 0
1, 1698491, Note_on_c, 0, 37, 0
1, 1698491, Note_on_c, 0, 61, 0
1, 1698491, Note_on_c, 0, 66, 117
1, 1698494, Note_on_c, 0, 49, 0
1, 1698494, Note_on_c, 0, 42, 103
1, 1698494, Note_on_c, 0, 54, 112
1, 1698543, Control_c, 0, 64, 127
1, 1698543, Control_c, 0, 64, 127
1, 1698751, Note_on_c, 0, 66, 0
1, 1698751, Note_on_c, 0, 70, 99
1, 1698751, Note_on_c, 0, 73, 99
1, 1698754, Note_on_c, 0, 42, 0
1, 1698754, Note_on_c, 0, 78, 99
1, 1698754, Note_on_c, 0, 82, 116
1, 1698757, Note_on_c, 0, 54, 0
1, 1698757, Note_on_c, 0, 54, 99
1, 1698757, Note_on_c, 0, 58, 99
1, 1698760, Note_on_c, 0, 61, 99
1, 1698760, Note_on_c, 0, 66, 111
1, 1698831, Note_on_c, 0, 78, 0
1, 1698831, Note_on_c, 0, 73, 0
1, 1698831, Note_on_c, 0, 70, 0
1, 1698834, Note_on_c, 0, 82, 0
1, 1698834, Note_on_c, 0, 70, 99
1, 1698834, Note_on_c, 0, 73, 99
1, 1698837, Note_on_c, 0, 54, 0
1, 1698837, Note_on_c, 0, 78, 99
1, 1698837, Note_on_c, 0, 82, 116
1, 1698840, Note_on_c, 0, 58, 0
1, 1698840, Note_on_c, 0, 66, 0
1, 1698840, Note_on_c, 0, 61, 0
1, 1698843, Note_on_c, 0, 54, 99
1, 1698843, Note_on_c, 0, 58, 99
1, 1698843, Note_on_c, 0, 61, 99
1, 1698846, Note_on_c, 0, 66, 111
1, 1699035, Note_on_c, 0, 70, 0
1, 1699035, Note_on_c, 0, 73, 0
1, 1699035, Note_on_c, 0, 78, 0
1, 1699038, Note_on_c, 0, 82, 0
1, 1699038, Note_on_c, 0, 70, 99
1, 1699038, Note_on_c, 0, 73, 99
1, 1699041, Note_on_c, 0, 54, 0
1, 1699041, Note_on_c, 0, 78, 99
1, 1699041, Note_on_c, 0, 82, 116
1, 1699044, Note_on_c, 0, 58, 0
1, 1699044, Note_on_c, 0, 66, 0
1, 1699044, Note_on_c, 0, 61, 0
1, 1699047, Note_on_c, 0, 54, 99
1, 1699047, Note_on_c, 0, 58, 99
1, 1699047, Note_on_c, 0, 61, 99
1, 1699050, Note_on_c, 0, 66, 111
1, 1699082, Control_c, 0, 64, 127
1, 1699082, Control_c, 0, 64, 127
1, 1699222, Note_on_c, 0, 70, 0
1, 1699222, Note_on_c, 0, 73, 0
1, 1699222, Note_on_c, 0, 78, 0
1, 1699225, Note_on_c, 0, 82, 0
1, 1699225, Note_on_c, 0, 70, 105
1, 1699225, Note_on_c, 0, 73, 105
1, 1699228, Note_on_c, 0, 54, 0
1, 1699228, Note_on_c, 0, 78, 105
1, 1699228, Note_on_c, 0, 82, 117
1, 1699231, Note_on_c, 0, 58, 0
1, 1699231, Note_on_c, 0, 66, 0
1, 1699231, Note_on_c, 0, 61, 0
1, 1699234, Note_on_c, 0, 54, 105
1, 1699234, Note_on_c, 0, 58, 105
1, 1699234, Note_on_c, 0, 61, 105
1, 1699237, Note_on_c, 0, 66, 117
1, 1699481, Note_on_c, 0, 70, 0
1, 1699481, Note_on_c, 0, 73, 0
1, 1699481, Note_on_c, 0, 78, 0
1, 1699484, Note_on_c, 0, 82, 0
1, 1699484, Note_on_c, 0, 54, 0
1, 1699484, Note_on_c, 0, 66, 117
1, 1699487, Note_on_c, 0, 66, 0
1, 1699487, Note_on_c, 0, 58, 0
1, 1699487, Note_on_c, 0, 61, 0
1, 1699490, Note_on_c, 0, 42, 103
1, 1699490, Note_on_c, 0, 54, 112
1, 1699562, Note_on_c, 0, 42, 0
1, 1699562, Note_on_c, 0, 66, 0
1, 1699562, Note_on_c, 0, 66, 117
1, 1699565, Note_on_c, 0, 54, 0
1, 1699565, Note_on_c, 0, 42, 103
1, 1699565, Note_on_c, 0, 54, 112
1, 1699766, Note_on_c, 0, 42, 0
1, 1699766, Note_on_c, 0, 66, 0
1, 1699766, Note_on_c, 0, 66, 117
1, 1699769, Note_on_c, 0, 54, 0
1, 1699769, Note_on_c, 0, 42, 103
1, 1699769, Note_on_c, 0, 54, 112
1, 1699952, Control_c, 0, 64, 0
1, 1699952, Control_c, 0, 64, 0
1, 1700015, Note_on_c, 0, 42, 0
1, 1700015, Note_on_c, 0, 66, 0
1, 1700015, Note_on_c, 0, 67, 117
1, 1700018, Note_on_c, 0, 54, 0
1, 1700018, Note_on_c, 0, 43, 103
1, 1700018, Note_on_c, 0, 55, 112
1, 1700071, Control_c, 0, 64, 127
1, 1700071, Control_c, 0, 64, 127
1, 1700296, Note_on_c, 0, 67, 0
1, 1700296, Note_on_c, 0, 73, 110
1, 1700296, Note_on_c, 0, 82, 110
1, 1700299, Note_on_c, 0, 55, 0
1, 1700299, Note_on_c, 0, 43, 0
1, 1700299, Note_on_c, 0, 85, 117
1, 1700302, Note_on_c, 0, 51, 104
1, 1700302, Note_on_c, 0, 58, 104
1, 1700302, Note_on_c, 0, 61, 104
1, 1700305, Note_on_c, 0, 63, 116
1, 1700377, Note_on_c, 0, 85, 0
1, 1700377, Note_on_c, 0, 82, 0
1, 1700377, Note_on_c, 0, 73, 0
1, 1700380, Note_on_c, 0, 73, 110
1, 1700380, Note_on_c, 0, 82, 110
1, 1700380, Note_on_c, 0, 85, 117
1, 1700383, Note_on_c, 0, 58, 0
1, 1700383, Note_on_c, 0, 51, 0
1, 1700383, Note_on_c, 0, 61, 0
1, 1700386, Note_on_c, 0, 63, 0
1, 1700386, Note_on_c, 0, 51, 104
1, 1700386, Note_on_c, 0, 58, 104
1, 1700389, Note_on_c, 0, 61, 104
1, 1700389, Note_on_c, 0, 63, 116
1, 1700549, Note_on_c, 0, 85, 0
1, 1700549, Note_on_c, 0, 73, 0
1, 1700549, Note_on_c, 0, 82, 0
1, 1700552, Note_on_c, 0, 73, 110
1, 1700552, Note_on_c, 0, 82, 110
1, 1700552, Note_on_c, 0, 85, 117
1, 1700555, Note_on_c, 0, 58, 0
1, 1700555, Note_on_c, 0, 51, 0
1, 1700555, Note_on_c, 0, 61, 0
1, 1700558, Note_on_c, 0, 63, 0
1, 1700558, Note_on_c, 0, 51, 104
1, 1700558, Note_on_c, 0, 58, 104
1, 1700561, Note_on_c, 0, 61, 104
1, 1700561, Note_on_c, 0, 63, 116
1, 1700596, Control_c, 0, 64, 127
1, 1700596, Control_c, 0, 64, 127
1, 1700737, Note_on_c, 0, 85, 0
1, 1700737, Note_on_c, 0, 73, 0
1, 1700737, Note_on_c, 0, 82, 0
1, 1700740, Note_on_c, 0, 73, 116
1, 1700740, Note_on_c, 0, 82, 116
1, 1700740, Note_on_c, 0, 85, 117
1, 1700743, Note_on_c, 0, 58, 0
1, 1700743, Note_on_c, 0, 51, 0
1, 1700743, Note_on_c, 0, 61, 0
1, 1700746, Note_on_c, 0, 63, 0
1, 1700746, Note_on_c, 0, 51, 110
1, 1700746, Note_on_c, 0, 58, 110
1, 1700749, Note_on_c, 0, 61, 110
1, 1700749, Note_on_c, 0, 63, 117
1, 1701073, Note_on_c, 0, 85, 0
1, 1701073, Note_on_c, 0, 73, 0
1, 1701073, Note_on_c, 0, 82, 0
1, 1701076, Note_on_c, 0, 58, 0
1, 1701076, Note_on_c, 0, 51, 0
1, 1701076, Note_on_c, 0, 67, 117
1, 1701079, Note_on_c, 0, 61, 0
1, 1701079, Note_on_c, 0, 63, 0
1, 1701079, Note_on_c, 0, 43, 107
1, 1701082, Note_on_c, 0, 55, 107
1, 1701160, Note_on_c, 0, 43, 0
1, 1701160, Note_on_c, 0, 67, 0
1, 1701160, Note_on_c, 0, 67, 117
1, 1701163, Note_on_c, 0, 55, 0
1, 1701163, Note_on_c, 0, 43, 109
1, 1701163, Note_on_c, 0, 55, 109
1, 1701409, Note_on_c, 0, 43, 0
1, 1701409, Note_on_c, 0, 67, 0
1, 1701409, Note_on_c, 0, 67, 117
1, 1701412, Note_on_c, 0, 55, 0
1, 1701412, Note_on_c, 0, 43, 114
1, 1701412, Note_on_c, 0, 55, 114
1, 1701618, Control_c, 0, 64, 0
1, 1701618, Control_c, 0, 64, 0
1, 1701690, Note_on_c, 0, 43, 0
1, 1701690, Note_on_c, 0, 67, 0
1, 1701690, Note_on_c, 0, 68, 117
1, 1701693, Note_on_c, 0, 55, 0
1, 1701693, Note_on_c, 0, 44, 113
1, 1701693, Note_on_c, 0, 56, 117
1, 1701818, Control_c, 0, 64, 127
1, 1701818, Control_c, 0, 64, 127
1, 1701940, Note_on_c, 0, 68, 0
1, 1701940, Note_on_c, 0, 65, 115
1, 1701940, Note_on_c, 0, 68, 103
1, 1701943, Note_on_c, 0, 56, 0
1, 1701943, Note_on_c, 0, 44, 0
1, 1701943, Note_on_c, 0, 56, 113
1, 1701946, Note_on_c, 0, 61, 113
1, 1702165, Note_on_c, 0, 65, 0
1, 1702165, Note_on_c, 0, 68, 0
1, 1702165, Note_on_c, 0, 65, 115
1, 1702168, Note_on_c, 0, 56, 0
1, 1702168, Note_on_c, 0, 61, 0
1, 1702168, Note_on_c, 0, 68, 103
1, 1702171, Note_on_c, 0, 56, 113
1, 1702171, Note_on_c, 0, 61, 113
1, 1702389, Note_on_c, 0, 68, 0
1, 1702389, Note_on_c, 0, 65, 0
1, 1702389, Note_on_c, 0, 77, 112
1, 1702392, Note_on_c, 0, 56, 0
1, 1702392, Note_on_c, 0, 61, 0
1, 1702392, Note_on_c, 0, 89, 117
1, 1702395, Note_on_c, 0, 53, 111
1, 1702395, Note_on_c, 0, 65, 117
1, 1702710, Note_on_c, 0, 89, 0
1, 1702710, Note_on_c, 0, 77, 0
1, 1702710, Note_on_c, 0, 77, 112
1, 1702713, Note_on_c, 0, 53, 0
1, 1702713, Note_on_c, 0, 65, 0
1, 1702713, Note_on_c, 0, 89, 117
1, 1702716, Note_on_c, 0, 53, 111
1, 1702716, Note_on_c, 0, 65, 117
1, 1702960, Note_on_c, 0, 89, 0
1, 1702960, Note_on_c, 0, 77, 0
1, 1702960, Note_on_c, 0, 65, 90
1, 1702963, Note_on_c, 0, 53, 0
1, 1702963, Note_on_c, 0, 65, 0
1, 1702963, Note_on_c, 0, 68, 102
1, 1702966, Note_on_c, 0, 56, 111
1, 1702966, Note_on_c, 0, 61, 111
1, 1703184, Note_on_c, 0, 68, 0
1, 1703184, Note_on_c, 0, 65, 0
1, 1703184, Note_on_c, 0, 65, 90
1, 1703187, Note_on_c, 0, 56, 0
1, 1703187, Note_on_c, 0, 61, 0
1, 1703187, Note_on_c, 0, 68, 102
1, 1703190, Note_on_c, 0, 56, 111
1, 1703190, Note_on_c, 0, 61, 111
1, 1703409, Note_on_c, 0, 68, 0
1, 1703409, Note_on_c, 0, 65, 0
1, 1703409, Note_on_c, 0, 73, 111
1, 1703412, Note_on_c, 0, 56, 0
1, 1703412, Note_on_c, 0, 61, 0
1, 1703412, Note_on_c, 0, 85, 117
1, 1703415, Note_on_c, 0, 49, 111
1, 1703415, Note_on_c, 0, 61, 117
1, 1703613, Note_on_c, 0, 85, 0
1, 1703613, Note_on_c, 0, 73, 0
1, 1703613, Control_c, 0, 64, 127
1, 1703616, Note_on_c, 0, 73, 112
1, 1703616, Note_on_c, 0, 85, 117
1, 1703616, Control_c, 0, 64, 127
1, 1703619, Note_on_c, 0, 49, 0
1, 1703619, Note_on_c, 0, 61, 0
1, 1703619, Note_on_c, 0, 49, 113
1, 1703622, Note_on_c, 0, 61, 113
1, 1703800, Note_on_c, 0, 73, 0
1, 1703800, Note_on_c, 0, 85, 0
1, 1703800, Note_on_c, 0, 65, 78
1, 1703803, Note_on_c, 0, 49, 0
1, 1703803, Note_on_c, 0, 61, 0
1, 1703803, Note_on_c, 0, 68, 90
1, 1703806, Note_on_c, 0, 56, 111
1, 1703806, Note_on_c, 0, 61, 111
1, 1703973, Note_on_c, 0, 68, 0
1, 1703973, Note_on_c, 0, 65, 0
1, 1703973, Note_on_c, 0, 65, 90
1, 1703976, Note_on_c, 0, 56, 0
1, 1703976, Note_on_c, 0, 61, 0
1, 1703976, Note_on_c, 0, 68, 90
1, 1703979, Note_on_c, 0, 56, 111
1, 1703979, Note_on_c, 0, 61, 111
1, 1704146, Note_on_c, 0, 68, 0
1, 1704146, Note_on_c, 0, 65, 0
1, 1704146, Note_on_c, 0, 70, 112
1, 1704149, Note_on_c, 0, 56, 0
1, 1704149, Note_on_c, 0, 61, 0
1, 1704149, Note_on_c, 0, 82, 117
1, 1704152, Note_on_c, 0, 46, 111
1, 1704152, Note_on_c, 0, 58, 117
1, 1704306, Note_on_c, 0, 82, 0
1, 1704306, Note_on_c, 0, 70, 0
1, 1704306, Note_on_c, 0, 70, 112
1, 1704309, Note_on_c, 0, 46, 0
1, 1704309, Note_on_c, 0, 58, 0
1, 1704309, Note_on_c, 0, 82, 117
1, 1704312, Note_on_c, 0, 46, 111
1, 1704312, Note_on_c, 0, 58, 117
1, 1704467, Note_on_c, 0, 82, 0
1, 1704467, Note_on_c, 0, 70, 0
1, 1704467, Note_on_c, 0, 65, 78
1, 1704470, Note_on_c, 0, 46, 0
1, 1704470, Note_on_c, 0, 58, 0
1, 1704470, Note_on_c, 0, 68, 90
1, 1704473, Note_on_c, 0, 56, 111
1, 1704473, Note_on_c, 0, 61, 111
1, 1704617, Note_on_c, 0, 68, 0
1, 1704617, Note_on_c, 0, 65, 0
1, 1704617, Note_on_c, 0, 65, 78
1, 1704620, Note_on_c, 0, 56, 0
1, 1704620, Note_on_c, 0, 61, 0
1, 1704620, Note_on_c, 0, 68, 90
1, 1704623, Note_on_c, 0, 56, 111
1, 1704623, Note_on_c, 0, 61, 111
1, 1704766, Note_on_c, 0, 68, 0
1, 1704766, Note_on_c, 0, 65, 0
1, 1704766, Note_on_c, 0, 68, 111
1, 1704769, Note_on_c, 0, 56, 0
1, 1704769, Note_on_c, 0, 61, 0
1, 1704769, Note_on_c, 0, 80, 117
1, 1704772, Note_on_c, 0, 44, 111
1, 1704772, Note_on_c, 0, 56, 117
1, 1704907, Note_on_c, 0, 80, 0
1, 1704907, Note_on_c, 0, 68, 0
1, 1704907, Control_c, 0, 64, 127
1, 1704910, Note_on_c, 0, 68, 112
1, 1704910, Note_on_c, 0, 80, 117
1, 1704910, Control_c, 0, 64, 127
1, 1704913, Note_on_c, 0, 44, 0
1, 1704913, Note_on_c, 0, 56, 0
1, 1704913, Note_on_c, 0, 44, 113
1, 1704916, Note_on_c, 0, 56, 113
1, 1705047, Note_on_c, 0, 68, 0
1, 1705047, Note_on_c, 0, 80, 0
1, 1705047, Note_on_c, 0, 65, 78
1, 1705050, Note_on_c, 0, 44, 0
1, 1705050, Note_on_c, 0, 56, 0
1, 1705050, Note_on_c, 0, 68, 90
1, 1705053, Note_on_c, 0, 56, 111
1, 1705053, Note_on_c, 0, 61, 111
1, 1705188, Note_on_c, 0, 68, 0
1, 1705188, Note_on_c, 0, 65, 0
1, 1705188, Note_on_c, 0, 65, 90
1, 1705191, Note_on_c, 0, 56, 0
1, 1705191, Note_on_c, 0, 61, 0
1, 1705191, Note_on_c, 0, 68, 90
1, 1705194, Note_on_c, 0, 56, 111
1, 1705194, Note_on_c, 0, 61, 111
1, 1705328, Note_on_c, 0, 68, 0
1, 1705328, Note_on_c, 0, 65, 0
1, 1705328, Note_on_c, 0, 65, 112
1, 1705331, Note_on_c, 0, 56, 0
1, 1705331, Note_on_c, 0, 61, 0
1, 1705331, Note_on_c, 0, 77, 117
1, 1705334, Note_on_c, 0, 41, 111
1, 1705334, Note_on_c, 0, 53, 111
1, 1705460, Note_on_c, 0, 77, 0
1, 1705460, Note_on_c, 0, 65, 0
1, 1705460, Note_on_c, 0, 65, 112
1, 1705463, Note_on_c, 0, 41, 0
1, 1705463, Note_on_c, 0, 53, 0
1, 1705463, Note_on_c, 0, 77, 117
1, 1705466, Note_on_c, 0, 41, 111
1, 1705466, Note_on_c, 0, 53, 111
1, 1705592, Note_on_c, 0, 77, 0
1, 1705592, Note_on_c, 0, 65, 0
1, 1705592, Note_on_c, 0, 65, 78
1, 1705595, Note_on_c, 0, 41, 0
1, 1705595, Note_on_c, 0, 53, 0
1, 1705595, Note_on_c, 0, 68, 90
1, 1705598, Note_on_c, 0, 56, 111
1, 1705598, Note_on_c, 0, 61, 111
1, 1705724, Note_on_c, 0, 68, 0
1, 1705724, Note_on_c, 0, 65, 0
1, 1705724, Note_on_c, 0, 65, 78
1, 1705727, Note_on_c, 0, 56, 0
1, 1705727, Note_on_c, 0, 61, 0
1, 1705727, Note_on_c, 0, 68, 90
1, 1705730, Note_on_c, 0, 56, 111
1, 1705730, Note_on_c, 0, 61, 111
1, 1705857, Note_on_c, 0, 68, 0
1, 1705857, Note_on_c, 0, 65, 0
1, 1705857, Note_on_c, 0, 61, 111
1, 1705860, Note_on_c, 0, 56, 0
1, 1705860, Note_on_c, 0, 61, 0
1, 1705860, Note_on_c, 0, 73, 117
1, 1705863, Note_on_c, 0, 37, 111
1, 1705863, Note_on_c, 0, 49, 111
1, 1705989, Note_on_c, 0, 73, 0
1, 1705989, Note_on_c, 0, 61, 0
1, 1705989, Control_c, 0, 64, 127
1, 1705992, Note_on_c, 0, 61, 112
1, 1705992, Note_on_c, 0, 73, 117
1, 1705992, Control_c, 0, 64, 127
1, 1705995, Note_on_c, 0, 37, 0
1, 1705995, Note_on_c, 0, 49, 0
1, 1705995, Note_on_c, 0, 37, 113
1, 1705998, Note_on_c, 0, 49, 113
1, 1706114, Note_on_c, 0, 61, 0
1, 1706114, Note_on_c, 0, 73, 0
1, 1706114, Note_on_c, 0, 65, 78
1, 1706117, Note_on_c, 0, 37, 0
1, 1706117, Note_on_c, 0, 49, 0
1, 1706117, Note_on_c, 0, 68, 90
1, 1706120, Note_on_c, 0, 56, 111
1, 1706120, Note_on_c, 0, 61, 111
1, 1706238, Note_on_c, 0, 68, 0
1, 1706238, Note_on_c, 0, 65, 0
1, 1706238, Note_on_c, 0, 65, 90
1, 1706241, Note_on_c, 0, 56, 0
1, 1706241, Note_on_c, 0, 61, 0
1, 1706241, Note_on_c, 0, 68, 90
1, 1706244, Note_on_c, 0, 56, 111
1, 1706244, Note_on_c, 0, 61, 111
1, 1706363, Note_on_c, 0, 68, 0
1, 1706363, Note_on_c, 0, 65, 0
1, 1706363, Note_on_c, 0, 58, 112
1, 1706366, Note_on_c, 0, 56, 0
1, 1706366, Note_on_c, 0, 61, 0
1, 1706366, Note_on_c, 0, 70, 117
1, 1706369, Note_on_c, 0, 34, 111
1, 1706369, Note_on_c, 0, 46, 111
1, 1706481, Note_on_c, 0, 70, 0
1, 1706481, Note_on_c, 0, 58, 0
1, 1706481, Note_on_c, 0, 58, 112
1, 1706484, Note_on_c, 0, 34, 0
1, 1706484, Note_on_c, 0, 46, 0
1, 1706484, Note_on_c, 0, 70, 117
1, 1706487, Note_on_c, 0, 34, 111
1, 1706487, Note_on_c, 0, 46, 111
1, 1706600, Note_on_c, 0, 70, 0
1, 1706600, Note_on_c, 0, 58, 0
1, 1706600, Note_on_c, 0, 65, 78
1, 1706603, Note_on_c, 0, 34, 0
1, 1706603, Note_on_c, 0, 46, 0
1, 1706603, Note_on_c, 0, 68, 90
1, 1706606, Note_on_c, 0, 56, 111
1, 1706606, Note_on_c, 0, 61, 111
1, 1706718, Note_on_c, 0, 68, 0
1, 1706718, Note_on_c, 0, 65, 0
1, 1706718, Note_on_c, 0, 65, 78
1, 1706721, Note_on_c, 0, 56, 0
1, 1706721, Note_on_c, 0, 61, 0
1, 1706721, Note_on_c, 0, 68, 90
1, 1706724, Note_on_c, 0, 56, 111
1, 1706724, Note_on_c, 0, 61, 111
1, 1706878, Note_on_c, 0, 68, 0
1, 1706878, Note_on_c, 0, 65, 0
1, 1706878, Note_on_c, 0, 56, 111
1, 1706881, Note_on_c, 0, 56, 0
1, 1706881, Note_on_c, 0, 61, 0
1, 1706881, Note_on_c, 0, 68, 117
1, 1706884, Note_on_c, 0, 32, 111
1, 1706884, Note_on_c, 0, 44, 111
1, 1707016, Control_c, 0, 64, 0
1, 1707016, Control_c, 0, 64, 0
1, 1707103, Note_on_c, 0, 68, 0
1, 1707103, Note_on_c, 0, 56, 0
1, 1707103, Control_c, 0, 64, 0
1, 1707106, Note_on_c, 0, 56, 112
1, 1707106, Note_on_c, 0, 68, 117
1, 1707106, Control_c, 0, 64, 0
1, 1707109, Note_on_c, 0, 32, 0
1, 1707109, Note_on_c, 0, 44, 0
1, 1707109, Note_on_c, 0, 32, 99
1, 1707112, Note_on_c, 0, 44, 111
1, 1707223, Control_c, 0, 64, 127
1, 1707223, Control_c, 0, 64, 127
1, 1707384, Note_on_c, 0, 32, 0
1, 1707384, Note_on_c, 0, 68, 0
1, 1707384, Note_on_c, 0, 56, 0
1, 1707387, Note_on_c, 0, 44, 0
1, 1707665, Note_on_c, 0, 68, 108
1, 1707665, Note_on_c, 0, 73, 108
1, 1707665, Note_on_c, 0, 77, 108
1, 1707668, Note_on_c, 0, 80, 117
1, 1707668, Note_on_c, 0, 56, 108
1, 1707668, Note_on_c, 0, 61, 108
1, 1707671, Note_on_c, 0, 65, 117
1, 1707889, Note_on_c, 0, 77, 0
1, 1707889, Note_on_c, 0, 68, 0
1, 1707889, Note_on_c, 0, 73, 0
1, 1707892, Note_on_c, 0, 56, 0
1, 1707892, Note_on_c, 0, 80, 0
1, 1707892, Note_on_c, 0, 61, 0
1, 1707895, Note_on_c, 0, 65, 0
1, 1708080, Control_c, 0, 64, 127
1, 1708080, Control_c, 0, 64, 127
1, 1708670, Control_c, 0, 64, 0
1, 1708670, Control_c, 0, 64, 0
1, 1708769, Note_on_c, 0, 51, 106
1, 1708769, Note_on_c, 0, 54, 106
1, 1708769, Note_on_c, 0, 60, 117
1, 1708772, Note_on_c, 0, 32, 102
1, 1708772, Note_on_c, 0, 44, 114
1, 1708844, Control_c, 0, 64, 127
1, 1708844, Control_c, 0, 64, 127
1, 1709218, Note_on_c, 0, 54, 0
1, 1709218, Note_on_c, 0, 51, 0
1, 1709218, Control_c, 0, 64, 127
1, 1709221, Note_on_c, 0, 60, 0
1, 1709221, Note_on_c, 0, 53, 106
1, 1709221, Note_on_c, 0, 56, 106
1, 1709224, Note_on_c, 0, 32, 0
1, 1709224, Note_on_c, 0, 61, 117
1, 1709224, Control_c, 0, 64, 127
1, 1709227, Note_on_c, 0, 44, 0
1, 1709227, Note_on_c, 0, 37, 99
1, 1709227, Note_on_c, 0, 49, 99
1, 1709257, Control_c, 0, 64, 0
1, 1709257, Control_c, 0, 64, 0
1, 1709305, Control_c, 0, 64, 0
1, 1709305, Control_c, 0, 64, 0
1, 1709593, Control_c, 0, 64, 127
1, 1709593, Control_c, 0, 64, 127
1, 1709668, Note_on_c, 0, 56, 0
1, 1709668, Note_on_c, 0, 61, 0
1, 1709668, Note_on_c, 0, 53, 0
1, 1709671, Note_on_c, 0, 63, 112
1, 1709671, Note_on_c, 0, 72, 97
1, 1709671, Note_on_c, 0, 75, 97
1, 1709674, Note_on_c, 0, 37, 0
1, 1709674, Note_on_c, 0, 49, 0
1, 1709674, Note_on_c, 0, 78, 113
1, 1709677, Note_on_c, 0, 44, 99
1, 1709677, Note_on_c, 0, 51, 99
1, 1709677, Note_on_c, 0, 56, 99
1, 1710076, Note_on_c, 0, 72, 0
1, 1710076, Note_on_c, 0, 75, 0
1, 1710076, Note_on_c, 0, 63, 0
1, 1710079, Note_on_c, 0, 78, 0
1, 1710079, Note_on_c, 0, 65, 112
1, 1710079, Note_on_c, 0, 73, 97
1, 1710082, Note_on_c, 0, 44, 0
1, 1710082, Note_on_c, 0, 51, 0
1, 1710082, Note_on_c, 0, 77, 113
1, 1710085, Note_on_c, 0, 56, 0
1, 1710085, Note_on_c, 0, 49, 99
1, 1710085, Note_on_c, 0, 56, 99
1, 1710088, Note_on_c, 0, 61, 99
1, 1710450, Note_on_c, 0, 65, 0
1, 1710450, Note_on_c, 0, 77, 0
1, 1710450, Note_on_c, 0, 73, 0
1, 1710453, Note_on_c, 0, 63, 112
1, 1710453, Note_on_c, 0, 72, 97
1, 1710453, Note_on_c, 0, 75, 97
1, 1710456, Note_on_c, 0, 49, 0
1, 1710456, Note_on_c, 0, 56, 0
1, 1710456, Note_on_c, 0, 78, 113
1, 1710459, Note_on_c, 0, 61, 0
1, 1710459, Note_on_c, 0, 44, 99
1, 1710459, Note_on_c, 0, 51, 99
1, 1710462, Note_on_c, 0, 56, 99
1, 1710796, Note_on_c, 0, 72, 0
1, 1710796, Note_on_c, 0, 63, 0
1, 1710796, Control_c, 0, 64, 127
1, 1710799, Note_on_c, 0, 78, 0
1, 1710799, Note_on_c, 0, 75, 0
1, 1710799, Note_on_c, 0, 65, 112
1, 1710802, Note_on_c, 0, 73, 97
1, 1710802, Note_on_c, 0, 77, 113
1, 1710802, Control_c, 0, 64, 127
1, 1710805, Note_on_c, 0, 56, 0
1, 1710805, Note_on_c, 0, 51, 0
1, 1710805, Note_on_c, 0, 44, 0
1, 1710808, Note_on_c, 0, 49, 99
1, 1710808, Note_on_c, 0, 56, 99
1, 1710808, Note_on_c, 0, 61, 99
1, 1711142, Note_on_c, 0, 65, 0
1, 1711142, Note_on_c, 0, 77, 0
1, 1711142, Note_on_c, 0, 73, 0
1, 1711145, Note_on_c, 0, 63, 112
1, 1711145, Note_on_c, 0, 72, 97
1, 1711145, Note_on_c, 0, 75, 97
1, 1711148, Note_on_c, 0, 49, 0
1, 1711148, Note_on_c, 0, 56, 0
1, 1711148, Note_on_c, 0, 78, 113
1, 1711151, Note_on_c, 0, 61, 0
1, 1711151, Note_on_c, 0, 44, 99
1, 1711151, Note_on_c, 0, 51, 99
1, 1711154, Note_on_c, 0, 56, 99
1, 1711462, Note_on_c, 0, 72, 0
1, 1711462, Note_on_c, 0, 63, 0
1, 1711462, Note_on_c, 0, 75, 0
1, 1711465, Note_on_c, 0, 78, 0
1, 1711465, Note_on_c, 0, 65, 116
1, 1711465, Note_on_c, 0, 73, 100
1, 1711468, Note_on_c, 0, 44, 0
1, 1711468, Note_on_c, 0, 51, 0
1, 1711468, Note_on_c, 0, 77, 117
1, 1711471, Note_on_c, 0, 56, 0
1, 1711471, Note_on_c, 0, 49, 102
1, 1711471, Note_on_c, 0, 56, 102
1, 1711474, Note_on_c, 0, 61, 102
1, 1711783, Note_on_c, 0, 65, 0
1, 1711783, Note_on_c, 0, 77, 0
1, 1711783, Note_on_c, 0, 73, 0
1, 1711786, Note_on_c, 0, 63, 117
1, 1711786, Note_on_c, 0, 72, 103
1, 1711786, Note_on_c, 0, 75, 103
1, 1711789, Note_on_c, 0, 49, 0
1, 1711789, Note_on_c, 0, 56, 0
1, 1711789, Note_on_c, 0, 78, 117
1, 1711792, Note_on_c, 0, 61, 0
1, 1711792, Note_on_c, 0, 44, 106
1, 1711792, Note_on_c, 0, 51, 106
1, 1711795, Note_on_c, 0, 56, 106
1, 1712104, Note_on_c, 0, 72, 0
1, 1712104, Note_on_c, 0, 63, 0
1, 1712104, Control_c, 0, 64, 127
1, 1712107, Note_on_c, 0, 78, 0
1, 1712107, Note_on_c, 0, 75, 0
1, 1712107, Note_on_c, 0, 65, 117
1, 1712110, Note_on_c, 0, 73, 106
1, 1712110, Note_on_c, 0, 77, 117
1, 1712110, Control_c, 0, 64, 127
1, 1712113, Note_on_c, 0, 56, 0
1, 1712113, Note_on_c, 0, 51, 0
1, 1712113, Note_on_c, 0, 44, 0
1, 1712116, Note_on_c, 0, 49, 117
1, 1712116, Note_on_c, 0, 56, 108
1, 1712116, Note_on_c, 0, 61, 108
1, 1712157, Control_c, 0, 64, 0
1, 1712157, Control_c, 0, 64, 0
1, 1712244, Control_c, 0, 64, 127
1, 1712244, Control_c, 0, 64, 127
1, 1712513, Note_on_c, 0, 65, 0
1, 1712513, Note_on_c, 0, 77, 0
1, 1712513, Note_on_c, 0, 73, 0
1, 1712516, Note_on_c, 0, 49, 0
1, 1712516, Note_on_c, 0, 56, 0
1, 1712516, Note_on_c, 0, 61, 0
1, 1712921, Note_on_c, 0, 53, 111
1, 1712921, Note_on_c, 0, 56, 111
1, 1712921, Note_on_c, 0, 61, 117
1, 1712924, Note_on_c, 0, 37, 117
1, 1712924, Note_on_c, 0, 44, 108
1, 1712924, Note_on_c, 0, 49, 108
1, 1713370, Note_on_c, 0, 61, 0
1, 1713370, Note_on_c, 0, 53, 0
1, 1713370, Note_on_c, 0, 56, 0
1, 1713373, Note_on_c, 0, 37, 0
1, 1713373, Note_on_c, 0, 44, 0
1, 1713373, Note_on_c, 0, 49, 0
1, 1713688, Note_on_c, 0, 49, 102
1, 1713754, Note_on_c, 0, 56, 102
1, 1713820, Control_c, 0, 64, 127
1, 1713820, Note_on_c, 0, 68, 109
1, 1713820, Note_on_c, 0, 73, 109
1, 1713823, Note_on_c, 0, 77, 109
1, 1713823, Note_on_c, 0, 80, 117
1, 1713823, Control_c, 0, 64, 127
1, 1713826, Note_on_c, 0, 65, 114
1, 1714319, Note_on_c, 0, 77, 0
1, 1714319, Note_on_c, 0, 73, 0
1, 1714319, Note_on_c, 0, 68, 0
1, 1714322, Note_on_c, 0, 56, 0
1, 1714322, Note_on_c, 0, 49, 0
1, 1714322, Note_on_c, 0, 80, 0
1, 1714325, Note_on_c, 0, 65, 0
1, 1714818, Note_on_c, 0, 53, 114
1, 1714818, Note_on_c, 0, 56, 114
1, 1714818, Note_on_c, 0, 61, 117
1, 1714821, Note_on_c, 0, 25, 116
1, 1714821, Note_on_c, 0, 32, 104
1, 1714821, Note_on_c, 0, 37, 104
1, 1715227, Note_on_c, 0, 61, 0
1, 1715227, Note_on_c, 0, 53, 0
1, 1715227, Note_on_c, 0, 56, 0
1, 1715230, Note_on_c, 0, 25, 0
1, 1715230, Note_on_c, 0, 32, 0
1, 1715230, Note_on_c, 0, 37, 0
1, 1715887, Note_on_c, 0, 53, 111
1, 1715960, Note_on_c, 0, 56, 99
1, 1716033, Note_on_c, 0, 61, 99
1, 1716106, Note_on_c, 0, 65, 99
1, 1716180, Control_c, 0, 64, 127
1, 1716180, Note_on_c, 0, 77, 117
1, 1716180, Note_on_c, 0, 80, 117
1, 1716183, Note_on_c, 0, 85, 117
1, 1716183, Note_on_c, 0, 89, 117
1, 1716183, Control_c, 0, 64, 127
1, 1716186, Note_on_c, 0, 73, 99
1, 1720173, Note_on_c, 0, 80, 0
1, 1720173, Note_on_c, 0, 77, 0
1, 1720173, Control_c, 0, 64, 0
1, 1720176, Note_on_c, 0, 89, 0
1, 1720176, Note_on_c, 0, 85, 0
1, 1720176, Control_c, 0, 64, 0
1, 1720179, Note_on_c, 0, 61, 0
1, 1720179, Note_on_c, 0, 53, 0
1, 1720179, Note_on_c, 0, 56, 0
1, 1720182, Note_on_c, 0, 65, 0
1, 1720182, Note_on_c, 0, 73, 0
1, 1720473, Control_c, 0, 64, 0
1, 1720473, Control_c, 0, 64, 0
1, 1720473, End_track
0, 0, End_of_file
