0, 0, Header, 1, 2, 480
1, 0, Start_track
1, 0, Title_t, "Training data for RNN"
1, 0, Text_t, "All the music!"
1, 0, Copyright_t, "This file is in the public domain (ish)"
1, 0, Time_signature, 4, 2, 24, 8
1, 0, Tempo, 500000
1, 0, End_track
2, 0, Start_track
2, 0, Instrument_name_t, "Piano"
2, 0, Program_c, 1, 0
2, 10785, Note_on_c, 1, 72, 0
2, 11297, Note_on_c, 1, 68, 0
2, 11809, Note_on_c, 1, 29, 0
2, 19356, Note_on_c, 1, 29, 12
2, 30734, Note_on_c, 1, 68, 15
2, 42112, Note_on_c, 1, 72, 18
2, 53490, Note_on_c, 1, 29, 0
2, 64868, Note_on_c, 1, 68, 0
2, 89527, Note_on_c, 1, 68, 17
2, 103196, Note_on_c, 1, 72, 0
2, 107148, Note_on_c, 1, 72, 20
2, 130445, Note_on_c, 1, 68, 0
2, 133805, Note_on_c, 1, 68, 17
2, 143825, Note_on_c, 1, 72, 0
2, 154415, Note_on_c, 1, 72, 21
2, 166568, Note_on_c, 1, 68, 0
2, 196647, Note_on_c, 1, 68, 18
2, 197274, Note_on_c, 1, 72, 0
2, 217557, Note_on_c, 1, 72, 21
2, 219192, Note_on_c, 1, 68, 0
2, 243553, Note_on_c, 1, 68, 18
2, 244367, Note_on_c, 1, 72, 0
2, 263322, Note_on_c, 1, 72, 22
2, 294325, Note_on_c, 1, 68, 0
2, 295471, Note_on_c, 1, 68, 19
2, 295569, Note_on_c, 1, 72, 0
2, 297460, Note_on_c, 1, 72, 23
2, 324407, Note_on_c, 1, 68, 0
2, 353634, Note_on_c, 1, 68, 20
2, 376006, Note_on_c, 1, 72, 0
2, 384760, Note_on_c, 1, 29, 19
2, 398585, Note_on_c, 1, 72, 23
2, 412410, Note_on_c, 1, 29, 0
2, 426235, Note_on_c, 1, 68, 0
2, 455794, Note_on_c, 1, 68, 20
2, 479958, Note_on_c, 1, 72, 0
2, 494889, Note_on_c, 1, 72, 24
2, 524347, Note_on_c, 1, 68, 0
2, 526253, Note_on_c, 1, 68, 21
2, 530474, Note_on_c, 1, 72, 0
2, 562788, Note_on_c, 1, 72, 25
2, 574609, Note_on_c, 1, 68, 0
2, 604059, Note_on_c, 1, 68, 22
2, 623296, Note_on_c, 1, 72, 0
2, 649422, Note_on_c, 1, 72, 26
2, 675888, Note_on_c, 1, 68, 0
2, 697179, Note_on_c, 1, 68, 22
2, 728501, Note_on_c, 1, 72, 0
2, 737066, Note_on_c, 1, 72, 26
2, 742756, Note_on_c, 1, 68, 0
2, 746871, Note_on_c, 1, 68, 23
2, 759518, Note_on_c, 1, 72, 0
2, 791368, Note_on_c, 1, 72, 27
2, 810919, Note_on_c, 1, 68, 0
2, 837400, Note_on_c, 1, 68, 23
2, 863803, Note_on_c, 1, 72, 0
2, 884572, Note_on_c, 1, 29, 27
2, 884882, Note_on_c, 1, 72, 28
2, 885192, Note_on_c, 1, 29, 0
2, 885502, Note_on_c, 1, 68, 0
2, 914709, Note_on_c, 1, 68, 24
2, 943653, Note_on_c, 1, 72, 0
2, 972597, Note_on_c, 1, 72, 29
2, 1001612, Note_on_c, 1, 68, 0
2, 1030627, Note_on_c, 1, 68, 24
2, 1059841, Note_on_c, 1, 72, 0
2, 1089055, Note_on_c, 1, 72, 29
2, 1118340, Note_on_c, 1, 68, 0
2, 1147625, Note_on_c, 1, 68, 25
2, 1177109, Note_on_c, 1, 72, 0
2, 1206593, Note_on_c, 1, 29, 27
2, 1236148, Note_on_c, 1, 72, 29
2, 1265703, Note_on_c, 1, 29, 0
2, 1295258, Note_on_c, 1, 68, 0
2, 1324813, Note_on_c, 1, 68, 25
2, 1354566, Note_on_c, 1, 72, 0
2, 1384319, Note_on_c, 1, 72, 30
2, 1414271, Note_on_c, 1, 68, 0
2, 1444223, Note_on_c, 1, 68, 25
2, 1474246, Note_on_c, 1, 72, 0
2, 1504269, Note_on_c, 1, 72, 31
2, 1534491, Note_on_c, 1, 68, 0
2, 1564713, Note_on_c, 1, 68, 26
2, 1595006, Note_on_c, 1, 72, 0
2, 1625299, Note_on_c, 1, 29, 28
2, 1655791, Note_on_c, 1, 72, 31
2, 1686283, Note_on_c, 1, 68, 0
2, 1716775, Note_on_c, 1, 32, 0
2, 1726299, Note_on_c, 1, 32, 27
2, 1727602, Note_on_c, 1, 68, 26
2, 1728905, Note_on_c, 1, 36, 0
2, 1730208, Note_on_c, 1, 72, 0
2, 1731511, Note_on_c, 1, 72, 31
2, 1732887, Note_on_c, 1, 68, 0
2, 1734263, Note_on_c, 1, 68, 27
2, 1735841, Note_on_c, 1, 72, 0
2, 1737419, Note_on_c, 1, 72, 32
2, 1739070, Note_on_c, 1, 68, 0
2, 1764510, Note_on_c, 1, 68, 27
2, 1788368, Note_on_c, 1, 72, 0
2, 1812226, Note_on_c, 1, 36, 38
2, 1836153, Note_on_c, 1, 72, 33
2, 1860080, Note_on_c, 1, 41, 0
2, 1884007, Note_on_c, 1, 68, 0
2, 1907934, Note_on_c, 1, 68, 27
2, 1932057, Note_on_c, 1, 72, 0
2, 1956180, Note_on_c, 1, 72, 33
2, 1980500, Note_on_c, 1, 68, 0
2, 2004820, Note_on_c, 1, 68, 28
2, 2029209, Note_on_c, 1, 72, 0
2, 2053598, Note_on_c, 1, 72, 34
2, 2078184, Note_on_c, 1, 68, 0
2, 2102770, Note_on_c, 1, 68, 29
2, 2127425, Note_on_c, 1, 72, 0
2, 2152080, Note_on_c, 1, 41, 42
2, 2176932, Note_on_c, 1, 72, 34
2, 2201784, Note_on_c, 1, 68, 0
2, 2226636, Note_on_c, 1, 44, 0
2, 2243625, Note_on_c, 1, 44, 39
2, 2255919, Note_on_c, 1, 68, 29
2, 2268213, Note_on_c, 1, 48, 0
2, 2280507, Note_on_c, 1, 72, 0
2, 2292801, Note_on_c, 1, 72, 34
2, 2305168, Note_on_c, 1, 68, 0
2, 2317535, Note_on_c, 1, 68, 30
2, 2330102, Note_on_c, 1, 72, 0
2, 2342669, Note_on_c, 1, 72, 35
2, 2355309, Note_on_c, 1, 68, 0
2, 2363327, Note_on_c, 1, 68, 30
2, 2391539, Note_on_c, 1, 72, 0
2, 2419751, Note_on_c, 1, 48, 45
2, 2448029, Note_on_c, 1, 72, 35
2, 2476307, Note_on_c, 1, 53, 0
2, 2504585, Note_on_c, 1, 68, 0
2, 2532863, Note_on_c, 1, 68, 30
2, 2561335, Note_on_c, 1, 72, 0
2, 2589807, Note_on_c, 1, 72, 35
2, 2618345, Note_on_c, 1, 68, 0
2, 2646883, Note_on_c, 1, 68, 30
2, 2675615, Note_on_c, 1, 72, 0
2, 2704347, Note_on_c, 1, 72, 36
2, 2733145, Note_on_c, 1, 68, 0
2, 2761943, Note_on_c, 1, 68, 30
2, 2790935, Note_on_c, 1, 72, 0
2, 2819927, Note_on_c, 1, 53, 44
2, 2849113, Note_on_c, 1, 72, 36
2, 2878299, Note_on_c, 1, 68, 0
2, 2907485, Note_on_c, 1, 56, 0
2, 2910932, Note_on_c, 1, 56, 41
2, 2935876, Note_on_c, 1, 68, 31
2, 2960820, Note_on_c, 1, 60, 0
2, 2985764, Note_on_c, 1, 72, 0
2, 3010708, Note_on_c, 1, 72, 36
2, 3035851, Note_on_c, 1, 68, 0
2, 3060994, Note_on_c, 1, 68, 31
2, 3086209, Note_on_c, 1, 72, 0
2, 3092221, Note_on_c, 1, 72, 37
2, 3105794, Note_on_c, 1, 68, 0
2, 3119367, Note_on_c, 1, 68, 31
2, 3133004, Note_on_c, 1, 72, 0
2, 3146641, Note_on_c, 1, 60, 47
2, 3160471, Note_on_c, 1, 72, 37
2, 3174301, Note_on_c, 1, 65, 0
2, 3188131, Note_on_c, 1, 56, 0
2, 3201961, Note_on_c, 1, 56, 31
2, 3215856, Note_on_c, 1, 60, 0
2, 3229751, Note_on_c, 1, 60, 37
2, 3243839, Note_on_c, 1, 56, 0
2, 3257927, Note_on_c, 1, 56, 31
2, 3272079, Note_on_c, 1, 60, 0
2, 3286231, Note_on_c, 1, 60, 37
2, 3300576, Note_on_c, 1, 56, 0
2, 3314921, Note_on_c, 1, 56, 32
2, 3329331, Note_on_c, 1, 60, 0
2, 3343741, Note_on_c, 1, 65, 52
2, 3358343, Note_on_c, 1, 60, 38
2, 3372945, Note_on_c, 1, 56, 0
2, 3387547, Note_on_c, 1, 68, 0
2, 3413176, Note_on_c, 1, 68, 48
2, 3439876, Note_on_c, 1, 56, 32
2, 3466576, Note_on_c, 1, 72, 0
2, 3493276, Note_on_c, 1, 60, 0
2, 3519976, Note_on_c, 1, 60, 38
2, 3546875, Note_on_c, 1, 56, 0
2, 3573774, Note_on_c, 1, 56, 32
2, 3600745, Note_on_c, 1, 60, 0
2, 3622626, Note_on_c, 1, 60, 38
2, 3650311, Note_on_c, 1, 56, 0
2, 3677996, Note_on_c, 1, 56, 32
2, 3705745, Note_on_c, 1, 60, 0
2, 3733494, Note_on_c, 1, 72, 56
2, 3761435, Note_on_c, 1, 60, 39
2, 3789376, Note_on_c, 1, 77, 0
2, 3817317, Note_on_c, 1, 56, 0
2, 3845258, Note_on_c, 1, 56, 33
2, 3873262, Note_on_c, 1, 60, 0
2, 3901266, Note_on_c, 1, 60, 39
2, 3929462, Note_on_c, 1, 56, 0
2, 3957658, Note_on_c, 1, 56, 33
2, 3985918, Note_on_c, 1, 60, 0
2, 4014178, Note_on_c, 1, 60, 39
2, 4042630, Note_on_c, 1, 56, 0
2, 4071082, Note_on_c, 1, 56, 33
2, 4099597, Note_on_c, 1, 60, 0
2, 4114552, Note_on_c, 1, 77, 54
2, 4133771, Note_on_c, 1, 60, 40
2, 4152990, Note_on_c, 1, 56, 0
2, 4172209, Note_on_c, 1, 80, 0
2, 4187107, Note_on_c, 1, 80, 50
2, 4215563, Note_on_c, 1, 56, 33
2, 4244019, Note_on_c, 1, 84, 0
2, 4272475, Note_on_c, 1, 60, 0
2, 4300931, Note_on_c, 1, 60, 40
2, 4329458, Note_on_c, 1, 56, 0
2, 4357985, Note_on_c, 1, 56, 33
2, 4386712, Note_on_c, 1, 60, 0
2, 4411881, Note_on_c, 1, 60, 40
2, 4441099, Note_on_c, 1, 56, 0
2, 4470317, Note_on_c, 1, 56, 34
2, 4499598, Note_on_c, 1, 60, 0
2, 4528879, Note_on_c, 1, 84, 58
2, 4558352, Note_on_c, 1, 60, 40
2, 4587825, Note_on_c, 1, 89, 0
2, 4617298, Note_on_c, 1, 56, 0
2, 4646771, Note_on_c, 1, 56, 34
2, 4676308, Note_on_c, 1, 60, 0
2, 4705845, Note_on_c, 1, 60, 40
2, 4735574, Note_on_c, 1, 56, 0
2, 4765303, Note_on_c, 1, 56, 34
2, 4795095, Note_on_c, 1, 60, 0
2, 4824887, Note_on_c, 1, 60, 41
2, 4854871, Note_on_c, 1, 56, 0
2, 4884855, Note_on_c, 1, 56, 35
2, 4914903, Note_on_c, 1, 60, 0
2, 4933634, Note_on_c, 1, 89, 56
2, 4954968, Note_on_c, 1, 60, 41
2, 4976302, Note_on_c, 1, 56, 0
2, 4997636, Note_on_c, 1, 84, 0
2, 5016405, Note_on_c, 1, 84, 52
2, 5046616, Note_on_c, 1, 56, 35
2, 5076827, Note_on_c, 1, 80, 0
2, 5107038, Note_on_c, 1, 60, 0
2, 5137249, Note_on_c, 1, 60, 41
2, 5167532, Note_on_c, 1, 56, 0
2, 5197815, Note_on_c, 1, 56, 35
2, 5228298, Note_on_c, 1, 60, 0
2, 5256756, Note_on_c, 1, 60, 41
2, 5287506, Note_on_c, 1, 56, 0
2, 5318256, Note_on_c, 1, 56, 35
2, 5349070, Note_on_c, 1, 60, 0
2, 5379884, Note_on_c, 1, 80, 60
2, 5410890, Note_on_c, 1, 60, 42
2, 5441896, Note_on_c, 1, 77, 0
2, 5472902, Note_on_c, 1, 56, 0
2, 5503908, Note_on_c, 1, 56, 35
2, 5534977, Note_on_c, 1, 60, 0
2, 5566046, Note_on_c, 1, 60, 42
2, 5597307, Note_on_c, 1, 56, 0
2, 5628568, Note_on_c, 1, 56, 36
2, 5659893, Note_on_c, 1, 60, 0
2, 5691218, Note_on_c, 1, 60, 42
2, 5722734, Note_on_c, 1, 56, 0
2, 5754250, Note_on_c, 1, 56, 36
2, 5785830, Note_on_c, 1, 60, 0
2, 5792753, Note_on_c, 1, 77, 59
2, 5800743, Note_on_c, 1, 60, 43
2, 5808733, Note_on_c, 1, 56, 0
2, 5816723, Note_on_c, 1, 72, 0
2, 5847480, Note_on_c, 1, 72, 54
2, 5879319, Note_on_c, 1, 56, 36
2, 5911158, Note_on_c, 1, 68, 0
2, 5942997, Note_on_c, 1, 60, 0
2, 5974836, Note_on_c, 1, 60, 43
2, 6006875, Note_on_c, 1, 56, 0
2, 6038914, Note_on_c, 1, 56, 37
2, 6071025, Note_on_c, 1, 60, 0
2, 6091591, Note_on_c, 1, 60, 43
2, 6112695, Note_on_c, 1, 56, 0
2, 6133799, Note_on_c, 1, 56, 37
2, 6155103, Note_on_c, 1, 60, 0
2, 6176407, Note_on_c, 1, 68, 62
2, 6197912, Note_on_c, 1, 60, 43
2, 6219417, Note_on_c, 1, 56, 0
2, 6240922, Note_on_c, 1, 56, 48
2, 6262499, Note_on_c, 1, 60, 0
2, 6284076, Note_on_c, 1, 60, 55
2, 6305854, Note_on_c, 1, 29, 0
2, 6327632, Note_on_c, 1, 41, 0
2, 6349410, Note_on_c, 1, 56, 0
2, 6371188, Note_on_c, 1, 56, 50
2, 6393038, Note_on_c, 1, 60, 0
2, 6414888, Note_on_c, 1, 60, 59
2, 6436939, Note_on_c, 1, 56, 0
2, 6458990, Note_on_c, 1, 56, 55
2, 6481114, Note_on_c, 1, 60, 0
2, 6503238, Note_on_c, 1, 41, 110
2, 6525562, Note_on_c, 1, 29, 82
2, 6547886, Note_on_c, 1, 60, 64
2, 6560797, Note_on_c, 1, 72, 0
2, 6584166, Note_on_c, 1, 76, 0
2, 6607535, Note_on_c, 1, 84, 0
2, 6630904, Note_on_c, 1, 79, 0
2, 6654273, Note_on_c, 1, 79, 72
2, 6677917, Note_on_c, 1, 72, 72
2, 6701561, Note_on_c, 1, 76, 72
2, 6725205, Note_on_c, 1, 84, 93
2, 6730411, Note_on_c, 1, 43, 0
2, 6744752, Note_on_c, 1, 48, 0
2, 6759093, Note_on_c, 1, 36, 0
2, 6773434, Note_on_c, 1, 40, 0
2, 6787775, Note_on_c, 1, 40, 62
2, 6802369, Note_on_c, 1, 43, 69
2, 6816963, Note_on_c, 1, 48, 74
2, 6831557, Note_on_c, 1, 36, 62
2, 6846151, Note_on_c, 1, 76, 0
2, 6860756, Note_on_c, 1, 72, 0
2, 6875361, Note_on_c, 1, 84, 0
2, 6889966, Note_on_c, 1, 79, 0
2, 6904571, Note_on_c, 1, 79, 75
2, 6919428, Note_on_c, 1, 76, 75
2, 6934285, Note_on_c, 1, 72, 75
2, 6949142, Note_on_c, 1, 84, 99
2, 6978352, Note_on_c, 1, 36, 0
2, 6992718, Note_on_c, 1, 41, 0
2, 7007084, Note_on_c, 1, 44, 0
2, 7021450, Note_on_c, 1, 48, 0
2, 7035816, Note_on_c, 1, 48, 74
2, 7050444, Note_on_c, 1, 36, 62
2, 7065072, Note_on_c, 1, 41, 62
2, 7079700, Note_on_c, 1, 44, 69
2, 7086422, Note_on_c, 1, 77, 0
2, 7111296, Note_on_c, 1, 80, 0
2, 7136170, Note_on_c, 1, 84, 0
2, 7161044, Note_on_c, 1, 72, 0
2, 7185918, Note_on_c, 1, 72, 76
2, 7211043, Note_on_c, 1, 77, 76
2, 7236168, Note_on_c, 1, 80, 76
2, 7261293, Note_on_c, 1, 84, 99
2, 7286418, Note_on_c, 1, 36, 0
2, 7311554, Note_on_c, 1, 41, 0
2, 7336690, Note_on_c, 1, 48, 0
2, 7361826, Note_on_c, 1, 44, 0
2, 7386962, Note_on_c, 1, 44, 72
2, 7412349, Note_on_c, 1, 36, 65
2, 7437736, Note_on_c, 1, 41, 65
2, 7463123, Note_on_c, 1, 48, 77
2, 7467490, Note_on_c, 1, 77, 0
2, 7479121, Note_on_c, 1, 73, 0
2, 7490752, Note_on_c, 1, 85, 0
2, 7502383, Note_on_c, 1, 79, 0
2, 7514014, Note_on_c, 1, 79, 72
2, 7525898, Note_on_c, 1, 77, 72
2, 7537782, Note_on_c, 1, 73, 72
2, 7549666, Note_on_c, 1, 85, 93
2, 7578870, Note_on_c, 1, 43, 0
2, 7596073, Note_on_c, 1, 41, 0
2, 7613276, Note_on_c, 1, 46, 0
2, 7630479, Note_on_c, 1, 34, 0
2, 7647682, Note_on_c, 1, 34, 57
2, 7665133, Note_on_c, 1, 43, 63
2, 7682584, Note_on_c, 1, 41, 57
2, 7700035, Note_on_c, 1, 46, 69
2, 7717486, Note_on_c, 1, 77, 0
2, 7734947, Note_on_c, 1, 73, 0
2, 7752408, Note_on_c, 1, 79, 0
2, 7769869, Note_on_c, 1, 85, 0
2, 7787330, Note_on_c, 1, 85, 101
2, 7805039, Note_on_c, 1, 77, 79
2, 7822748, Note_on_c, 1, 73, 79
2, 7840457, Note_on_c, 1, 79, 79
2, 7841838, Note_on_c, 1, 36, 0
2, 7858290, Note_on_c, 1, 41, 0
2, 7874742, Note_on_c, 1, 32, 0
2, 7891194, Note_on_c, 1, 44, 0
2, 7907646, Note_on_c, 1, 44, 74
2, 7924350, Note_on_c, 1, 36, 62
2, 7941054, Note_on_c, 1, 41, 62
2, 7957758, Note_on_c, 1, 32, 62
2, 7975720, Note_on_c, 1, 77, 0
2, 7976860, Note_on_c, 1, 84, 0
2, 7978000, Note_on_c, 1, 80, 0
2, 7979140, Note_on_c, 1, 72, 0
2, 7980280, Note_on_c, 1, 72, 72
2, 7981665, Note_on_c, 1, 77, 72
2, 7983050, Note_on_c, 1, 84, 93
2, 7984435, Note_on_c, 1, 80, 72
2, 7985820, Note_on_c, 1, 44, 0
2, 7987216, Note_on_c, 1, 41, 0
2, 7988612, Note_on_c, 1, 36, 0
2, 7990008, Note_on_c, 1, 32, 0
2, 7991404, Note_on_c, 1, 32, 65
2, 7993045, Note_on_c, 1, 44, 77
2, 7994686, Note_on_c, 1, 41, 65
2, 7996327, Note_on_c, 1, 36, 65
2, 8015346, Note_on_c, 1, 60, 0
2, 8032608, Note_on_c, 1, 67, 0
2, 8049870, Note_on_c, 1, 64, 0
2, 8067132, Note_on_c, 1, 72, 0
2, 8084394, Note_on_c, 1, 72, 81
2, 8101913, Note_on_c, 1, 60, 63
2, 8119432, Note_on_c, 1, 67, 63
2, 8136951, Note_on_c, 1, 64, 63
2, 8147197, Note_on_c, 1, 43, 0
2, 8172574, Note_on_c, 1, 40, 0
2, 8197951, Note_on_c, 1, 46, 0
2, 8223328, Note_on_c, 1, 34, 0
2, 8248705, Note_on_c, 1, 34, 59
2, 8274323, Note_on_c, 1, 43, 66
2, 8299941, Note_on_c, 1, 40, 59
2, 8325559, Note_on_c, 1, 46, 71
2, 8351177, Note_on_c, 1, 72, 0
2, 8376806, Note_on_c, 1, 64, 0
2, 8402435, Note_on_c, 1, 60, 0
2, 8428064, Note_on_c, 1, 67, 0
2, 8453693, Note_on_c, 1, 67, 66
2, 8479563, Note_on_c, 1, 72, 87
2, 8505433, Note_on_c, 1, 64, 66
2, 8531303, Note_on_c, 1, 60, 66
2, 8534686, Note_on_c, 1, 44, 0
2, 8544978, Note_on_c, 1, 41, 0
2, 8555270, Note_on_c, 1, 48, 0
2, 8565562, Note_on_c, 1, 36, 0
2, 8575854, Note_on_c, 1, 36, 59
2, 8586390, Note_on_c, 1, 44, 66
2, 8596926, Note_on_c, 1, 41, 59
2, 8607462, Note_on_c, 1, 48, 71
2, 8619766, Note_on_c, 1, 60, 0
2, 8621416, Note_on_c, 1, 65, 0
2, 8623066, Note_on_c, 1, 72, 0
2, 8624716, Note_on_c, 1, 68, 0
2, 8626366, Note_on_c, 1, 68, 66
2, 8628256, Note_on_c, 1, 60, 66
2, 8630146, Note_on_c, 1, 65, 66
2, 8632036, Note_on_c, 1, 72, 87
2, 8633926, Note_on_c, 1, 41, 0
2, 8635827, Note_on_c, 1, 44, 0
2, 8637728, Note_on_c, 1, 48, 0
2, 8639629, Note_on_c, 1, 36, 0
2, 8641530, Note_on_c, 1, 36, 62
2, 8643671, Note_on_c, 1, 41, 62
2, 8645812, Note_on_c, 1, 44, 69
2, 8647953, Note_on_c, 1, 48, 75
2, 8675943, Note_on_c, 1, 67, 0
2, 8701803, Note_on_c, 1, 61, 0
2, 8727663, Note_on_c, 1, 65, 0
2, 8753523, Note_on_c, 1, 73, 0
2, 8779383, Note_on_c, 1, 73, 81
2, 8805361, Note_on_c, 1, 67, 63
2, 8831339, Note_on_c, 1, 61, 63
2, 8857317, Note_on_c, 1, 65, 63
2, 8879148, Note_on_c, 1, 43, 0
2, 8907652, Note_on_c, 1, 41, 0
2, 8936156, Note_on_c, 1, 46, 0
2, 8964660, Note_on_c, 1, 34, 0
2, 8993164, Note_on_c, 1, 34, 55
2, 9021909, Note_on_c, 1, 43, 60
2, 9050654, Note_on_c, 1, 41, 55
2, 9079399, Note_on_c, 1, 46, 66
2, 9108144, Note_on_c, 1, 73, 0
2, 9136899, Note_on_c, 1, 61, 0
2, 9165654, Note_on_c, 1, 65, 0
2, 9194409, Note_on_c, 1, 67, 0
2, 9223164, Note_on_c, 1, 67, 69
2, 9252161, Note_on_c, 1, 73, 89
2, 9281158, Note_on_c, 1, 61, 69
2, 9310155, Note_on_c, 1, 65, 69
2, 9334807, Note_on_c, 1, 36, 0
2, 9363240, Note_on_c, 1, 41, 0
2, 9391673, Note_on_c, 1, 32, 0
2, 9420106, Note_on_c, 1, 44, 0
2, 9448539, Note_on_c, 1, 44, 71
2, 9477219, Note_on_c, 1, 36, 59
2, 9505899, Note_on_c, 1, 41, 59
2, 9534579, Note_on_c, 1, 32, 59
2, 9557997, Note_on_c, 1, 65, 0
2, 9585513, Note_on_c, 1, 72, 0
2, 9613029, Note_on_c, 1, 68, 0
2, 9640545, Note_on_c, 1, 60, 0
2, 9668061, Note_on_c, 1, 60, 63
2, 9695819, Note_on_c, 1, 65, 63
2, 9723577, Note_on_c, 1, 72, 81
2, 9751335, Note_on_c, 1, 68, 63
2, 9779093, Note_on_c, 1, 44, 0
2, 9806861, Note_on_c, 1, 41, 0
2, 9834629, Note_on_c, 1, 36, 0
2, 9862397, Note_on_c, 1, 32, 0
2, 9890165, Note_on_c, 1, 32, 62
2, 9918175, Note_on_c, 1, 44, 75
2, 9946185, Note_on_c, 1, 41, 62
2, 9974195, Note_on_c, 1, 36, 62
2, 10000882, Note_on_c, 1, 48, 0
2, 10032211, Note_on_c, 1, 55, 0
2, 10063540, Note_on_c, 1, 52, 0
2, 10094869, Note_on_c, 1, 60, 0
2, 10113632, Note_on_c, 1, 60, 81
2, 10133856, Note_on_c, 1, 48, 63
2, 10154080, Note_on_c, 1, 55, 63
2, 10174304, Note_on_c, 1, 52, 63
2, 10190021, Note_on_c, 1, 40, 0
2, 10218293, Note_on_c, 1, 43, 0
2, 10246565, Note_on_c, 1, 36, 0
2, 10274837, Note_on_c, 1, 36, 59
2, 10303350, Note_on_c, 1, 43, 71
2, 10331863, Note_on_c, 1, 40, 59
2, 10360376, Note_on_c, 1, 60, 0
2, 10388900, Note_on_c, 1, 52, 0
2, 10417424, Note_on_c, 1, 55, 0
2, 10445948, Note_on_c, 1, 48, 0
2, 10474472, Note_on_c, 1, 48, 66
2, 10503237, Note_on_c, 1, 60, 87
2, 10532002, Note_on_c, 1, 52, 66
2, 10560767, Note_on_c, 1, 55, 66
2, 10570099, Note_on_c, 1, 44, 0
2, 10583444, Note_on_c, 1, 36, 0
2, 10596789, Note_on_c, 1, 41, 0
2, 10610134, Note_on_c, 1, 41, 59
2, 10623723, Note_on_c, 1, 36, 59
2, 10637312, Note_on_c, 1, 44, 71
2, 10655547, Note_on_c, 1, 48, 0
2, 10660204, Note_on_c, 1, 60, 0
2, 10664861, Note_on_c, 1, 56, 0
2, 10669518, Note_on_c, 1, 53, 0
2, 10674175, Note_on_c, 1, 53, 66
2, 10679072, Note_on_c, 1, 48, 66
2, 10683969, Note_on_c, 1, 60, 87
2, 10688866, Note_on_c, 1, 56, 66
2, 10693763, Note_on_c, 1, 44, 0
2, 10698670, Note_on_c, 1, 36, 0
2, 10703577, Note_on_c, 1, 41, 0
2, 10708484, Note_on_c, 1, 41, 62
2, 10713632, Note_on_c, 1, 36, 62
2, 10718780, Note_on_c, 1, 44, 75
2, 10720097, Note_on_c, 1, 55, 0
2, 10749045, Note_on_c, 1, 53, 0
2, 10777993, Note_on_c, 1, 49, 0
2, 10806941, Note_on_c, 1, 61, 0
2, 10835889, Note_on_c, 1, 61, 81
2, 10865084, Note_on_c, 1, 55, 63
2, 10894279, Note_on_c, 1, 53, 63
2, 10923474, Note_on_c, 1, 49, 63
2, 10951414, Note_on_c, 1, 34, 0
2, 10982937, Note_on_c, 1, 43, 0
2, 11014460, Note_on_c, 1, 41, 0
2, 11045983, Note_on_c, 1, 41, 55
2, 11077748, Note_on_c, 1, 43, 66
2, 11109513, Note_on_c, 1, 34, 55
2, 11141278, Note_on_c, 1, 55, 0
2, 11173053, Note_on_c, 1, 61, 0
2, 11204828, Note_on_c, 1, 49, 0
2, 11236603, Note_on_c, 1, 53, 0
2, 11268378, Note_on_c, 1, 53, 69
2, 11300394, Note_on_c, 1, 55, 69
2, 11332410, Note_on_c, 1, 61, 89
2, 11364426, Note_on_c, 1, 49, 69
2, 11395182, Note_on_c, 1, 44, 0
2, 11426701, Note_on_c, 1, 41, 0
2, 11458220, Note_on_c, 1, 41, 59
2, 11489985, Note_on_c, 1, 44, 71
2, 11519511, Note_on_c, 1, 60, 0
2, 11550050, Note_on_c, 1, 56, 0
2, 11580589, Note_on_c, 1, 53, 0
2, 11611128, Note_on_c, 1, 48, 0
2, 11641667, Note_on_c, 1, 48, 63
2, 11672448, Note_on_c, 1, 60, 81
2, 11703229, Note_on_c, 1, 56, 63
2, 11734010, Note_on_c, 1, 53, 63
2, 11764791, Note_on_c, 1, 41, 0
2, 11795582, Note_on_c, 1, 44, 0
2, 11826373, Note_on_c, 1, 44, 79
2, 11857405, Note_on_c, 1, 41, 66
2, 11888437, Note_on_c, 1, 55, 0
2, 11919469, Note_on_c, 1, 48, 0
2, 11950501, Note_on_c, 1, 58, 0
2, 11981533, Note_on_c, 1, 60, 0
2, 11991539, Note_on_c, 1, 46, 0
2, 12003164, Note_on_c, 1, 43, 0
2, 12014789, Note_on_c, 1, 43, 72
2, 12026664, Note_on_c, 1, 46, 72
2, 12044594, Note_on_c, 1, 46, 0
2, 12050531, Note_on_c, 1, 43, 0
2, 12056468, Note_on_c, 1, 43, 75
2, 12062646, Note_on_c, 1, 46, 75
2, 12093391, Note_on_c, 1, 60, 84
2, 12118088, Note_on_c, 1, 55, 62
2, 12142785, Note_on_c, 1, 48, 62
2, 12167482, Note_on_c, 1, 58, 69
2, 12198736, Note_on_c, 1, 52, 0
2, 12205175, Note_on_c, 1, 60, 0
2, 12211614, Note_on_c, 1, 55, 0
2, 12218053, Note_on_c, 1, 48, 0
2, 12224492, Note_on_c, 1, 48, 59
2, 12231171, Note_on_c, 1, 52, 66
2, 12237850, Note_on_c, 1, 60, 79
2, 12244529, Note_on_c, 1, 55, 66
2, 12251208, Note_on_c, 1, 40, 0
2, 12257887, Note_on_c, 1, 43, 0
2, 12271245, Note_on_c, 1, 48, 0
2, 12277934, Note_on_c, 1, 52, 0
2, 12284623, Note_on_c, 1, 55, 0
2, 12291312, Note_on_c, 1, 60, 0
2, 12298001, Note_on_c, 1, 60, 79
2, 12304931, Note_on_c, 1, 48, 59
2, 12311861, Note_on_c, 1, 55, 66
2, 12318791, Note_on_c, 1, 52, 66
2, 12327271, Note_on_c, 1, 40, 76
2, 12329083, Note_on_c, 1, 43, 76
2, 12330895, Note_on_c, 1, 56, 0
2, 12332707, Note_on_c, 1, 48, 0
2, 12334519, Note_on_c, 1, 53, 0
2, 12336331, Note_on_c, 1, 60, 0
2, 12345324, Note_on_c, 1, 44, 0
2, 12352515, Note_on_c, 1, 41, 0
2, 12359706, Note_on_c, 1, 41, 72
2, 12367137, Note_on_c, 1, 44, 72
2, 12378483, Note_on_c, 1, 44, 0
2, 12382409, Note_on_c, 1, 41, 0
2, 12386335, Note_on_c, 1, 41, 75
2, 12390502, Note_on_c, 1, 44, 75
2, 12397527, Note_on_c, 1, 60, 84
2, 12400642, Note_on_c, 1, 56, 69
2, 12403757, Note_on_c, 1, 48, 62
2, 12406872, Note_on_c, 1, 53, 62
2, 12417920, Note_on_c, 1, 60, 0
2, 12425863, Note_on_c, 1, 56, 0
2, 12433806, Note_on_c, 1, 48, 0
2, 12441749, Note_on_c, 1, 53, 0
2, 12449692, Note_on_c, 1, 53, 59
2, 12457747, Note_on_c, 1, 60, 79
2, 12465802, Note_on_c, 1, 56, 66
2, 12473857, Note_on_c, 1, 48, 59
2, 12481912, Note_on_c, 1, 41, 0
2, 12489967, Note_on_c, 1, 44, 0
2, 12498022, Note_on_c, 1, 56, 0
2, 12506216, Note_on_c, 1, 48, 0
2, 12514410, Note_on_c, 1, 53, 0
2, 12522604, Note_on_c, 1, 60, 0
2, 12530798, Note_on_c, 1, 60, 79
2, 12539104, Note_on_c, 1, 56, 66
2, 12547410, Note_on_c, 1, 53, 59
2, 12555716, Note_on_c, 1, 48, 59
2, 12582429, Note_on_c, 1, 41, 76
2, 12600963, Note_on_c, 1, 44, 76
2, 12619497, Note_on_c, 1, 60, 0
2, 12638031, Note_on_c, 1, 58, 0
2, 12656565, Note_on_c, 1, 55, 0
2, 12675099, Note_on_c, 1, 48, 0
2, 12702318, Note_on_c, 1, 46, 0
2, 12710885, Note_on_c, 1, 43, 0
2, 12719452, Note_on_c, 1, 43, 72
2, 12728259, Note_on_c, 1, 46, 72
2, 12746001, Note_on_c, 1, 46, 0
2, 12754819, Note_on_c, 1, 43, 0
2, 12763637, Note_on_c, 1, 43, 75
2, 12772695, Note_on_c, 1, 46, 75
2, 12791895, Note_on_c, 1, 48, 62
2, 12801204, Note_on_c, 1, 60, 84
2, 12810513, Note_on_c, 1, 58, 69
2, 12819822, Note_on_c, 1, 55, 62
2, 12829131, Note_on_c, 1, 48, 0
2, 12838450, Note_on_c, 1, 52, 0
2, 12847769, Note_on_c, 1, 55, 0
2, 12857088, Note_on_c, 1, 60, 0
2, 12866407, Note_on_c, 1, 60, 79
2, 12875967, Note_on_c, 1, 48, 59
2, 12885527, Note_on_c, 1, 52, 66
2, 12895087, Note_on_c, 1, 55, 66
2, 12904647, Note_on_c, 1, 40, 0
2, 12914207, Note_on_c, 1, 43, 0
2, 12931701, Note_on_c, 1, 60, 0
2, 12939646, Note_on_c, 1, 48, 0
2, 12947591, Note_on_c, 1, 55, 0
2, 12955536, Note_on_c, 1, 52, 0
2, 12963481, Note_on_c, 1, 52, 66
2, 12971538, Note_on_c, 1, 60, 79
2, 12979595, Note_on_c, 1, 55, 66
2, 12987652, Note_on_c, 1, 48, 59
2, 13002544, Note_on_c, 1, 40, 76
2, 13009513, Note_on_c, 1, 43, 76
2, 13016482, Note_on_c, 1, 60, 0
2, 13023451, Note_on_c, 1, 53, 0
2, 13030420, Note_on_c, 1, 48, 0
2, 13037389, Note_on_c, 1, 56, 0
2, 13054547, Note_on_c, 1, 44, 0
2, 13064618, Note_on_c, 1, 41, 0
2, 13074689, Note_on_c, 1, 41, 72
2, 13085001, Note_on_c, 1, 44, 72
2, 13105753, Note_on_c, 1, 44, 0
2, 13116075, Note_on_c, 1, 41, 0
2, 13126650, Note_on_c, 1, 41, 75
2, 13126925, Note_on_c, 1, 44, 75
2, 13127475, Note_on_c, 1, 56, 69
2, 13128008, Note_on_c, 1, 60, 84
2, 13128541, Note_on_c, 1, 53, 62
2, 13129074, Note_on_c, 1, 48, 62
2, 13140420, Note_on_c, 1, 56, 0
2, 13151243, Note_on_c, 1, 60, 0
2, 13162066, Note_on_c, 1, 48, 0
2, 13172889, Note_on_c, 1, 53, 0
2, 13183712, Note_on_c, 1, 53, 59
2, 13194776, Note_on_c, 1, 56, 66
2, 13205840, Note_on_c, 1, 60, 79
2, 13216904, Note_on_c, 1, 48, 59
2, 13227968, Note_on_c, 1, 41, 0
2, 13239032, Note_on_c, 1, 48, 0
2, 13250096, Note_on_c, 1, 44, 0
2, 13261160, Note_on_c, 1, 53, 0
2, 13272224, Note_on_c, 1, 48, 0
2, 13283298, Note_on_c, 1, 53, 0
2, 13294372, Note_on_c, 1, 56, 0
2, 13305446, Note_on_c, 1, 60, 0
2, 13316520, Note_on_c, 1, 60, 79
2, 13327834, Note_on_c, 1, 56, 66
2, 13339148, Note_on_c, 1, 48, 59
2, 13350462, Note_on_c, 1, 53, 59
2, 13361776, Note_on_c, 1, 68, 0
2, 13373090, Note_on_c, 1, 65, 0
2, 13384404, Note_on_c, 1, 60, 0
2, 13395718, Note_on_c, 1, 72, 0
2, 13407032, Note_on_c, 1, 41, 61
2, 13418597, Note_on_c, 1, 53, 73
2, 13430162, Note_on_c, 1, 48, 61
2, 13441727, Note_on_c, 1, 44, 61
2, 13453292, Note_on_c, 1, 72, 92
2, 13464857, Note_on_c, 1, 60, 76
2, 13476422, Note_on_c, 1, 68, 76
2, 13487987, Note_on_c, 1, 65, 76
2, 13508016, Note_on_c, 1, 60, 0
2, 13516492, Note_on_c, 1, 67, 0
2, 13524968, Note_on_c, 1, 64, 0
2, 13533444, Note_on_c, 1, 72, 0
2, 13541920, Note_on_c, 1, 72, 71
2, 13550657, Note_on_c, 1, 60, 59
2, 13559394, Note_on_c, 1, 67, 59
2, 13568131, Note_on_c, 1, 64, 59
2, 13581302, Note_on_c, 1, 48, 0
2, 13585746, Note_on_c, 1, 55, 0
2, 13590190, Note_on_c, 1, 52, 0
2, 13594634, Note_on_c, 1, 52, 63
2, 13599320, Note_on_c, 1, 55, 76
2, 13604006, Note_on_c, 1, 48, 63
2, 13608692, Note_on_c, 1, 72, 0
2, 13613388, Note_on_c, 1, 64, 0
2, 13618084, Note_on_c, 1, 60, 0
2, 13622780, Note_on_c, 1, 67, 0
2, 13627476, Note_on_c, 1, 67, 70
2, 13632414, Note_on_c, 1, 72, 82
2, 13637352, Note_on_c, 1, 64, 70
2, 13642290, Note_on_c, 1, 60, 70
2, 13669723, Note_on_c, 1, 53, 0
2, 13692100, Note_on_c, 1, 56, 0
2, 13714477, Note_on_c, 1, 48, 0
2, 13736854, Note_on_c, 1, 48, 63
2, 13759475, Note_on_c, 1, 56, 76
2, 13782096, Note_on_c, 1, 53, 63
2, 13785487, Note_on_c, 1, 68, 0
2, 13798907, Note_on_c, 1, 72, 0
2, 13812327, Note_on_c, 1, 60, 0
2, 13825747, Note_on_c, 1, 65, 0
2, 13839167, Note_on_c, 1, 65, 69
2, 13852828, Note_on_c, 1, 68, 69
2, 13866489, Note_on_c, 1, 72, 83
2, 13880150, Note_on_c, 1, 60, 69
2, 13893811, Note_on_c, 1, 53, 0
2, 13907482, Note_on_c, 1, 56, 0
2, 13921153, Note_on_c, 1, 48, 0
2, 13934824, Note_on_c, 1, 48, 66
2, 13948735, Note_on_c, 1, 56, 80
2, 13962646, Note_on_c, 1, 53, 66
2, 13982120, Note_on_c, 1, 67, 0
2, 13987566, Note_on_c, 1, 65, 0
2, 13993012, Note_on_c, 1, 61, 0
2, 13998458, Note_on_c, 1, 73, 0
2, 14003904, Note_on_c, 1, 73, 77
2, 14009597, Note_on_c, 1, 67, 65
2, 14015290, Note_on_c, 1, 65, 65
2, 14020983, Note_on_c, 1, 61, 65
2, 14034352, Note_on_c, 1, 53, 0
2, 14042038, Note_on_c, 1, 46, 0
2, 14049724, Note_on_c, 1, 55, 0
2, 14057410, Note_on_c, 1, 55, 73
2, 14065209, Note_on_c, 1, 46, 59
2, 14073008, Note_on_c, 1, 53, 59
2, 14080807, Note_on_c, 1, 73, 0
2, 14088745, Note_on_c, 1, 61, 0
2, 14096683, Note_on_c, 1, 65, 0
2, 14104621, Note_on_c, 1, 67, 0
2, 14112559, Note_on_c, 1, 67, 73
2, 14120610, Note_on_c, 1, 73, 85
2, 14128661, Note_on_c, 1, 61, 73
2, 14136712, Note_on_c, 1, 65, 73
2, 14152886, Note_on_c, 1, 56, 0
2, 14160892, Note_on_c, 1, 53, 0
2, 14168898, Note_on_c, 1, 53, 63
2, 14177150, Note_on_c, 1, 56, 76
2, 14192103, Note_on_c, 1, 72, 0
2, 14198815, Note_on_c, 1, 60, 0
2, 14205527, Note_on_c, 1, 65, 0
2, 14212239, Note_on_c, 1, 68, 0
2, 14218951, Note_on_c, 1, 68, 65
2, 14225904, Note_on_c, 1, 72, 77
2, 14232857, Note_on_c, 1, 60, 65
2, 14239810, Note_on_c, 1, 65, 65
2, 14246763, Note_on_c, 1, 56, 0
2, 14253727, Note_on_c, 1, 53, 0
2, 14260691, Note_on_c, 1, 53, 66
2, 14267896, Note_on_c, 1, 56, 80
2, 14275101, Note_on_c, 1, 70, 0
2, 14282306, Note_on_c, 1, 67, 0
2, 14289511, Note_on_c, 1, 72, 0
2, 14296716, Note_on_c, 1, 60, 0
2, 14325168, Note_on_c, 1, 55, 0
2, 14346426, Note_on_c, 1, 58, 0
2, 14367684, Note_on_c, 1, 58, 76
2, 14389191, Note_on_c, 1, 55, 76
2, 14392626, Note_on_c, 1, 58, 0
2, 14407332, Note_on_c, 1, 55, 0
2, 14422038, Note_on_c, 1, 55, 79
2, 14436985, Note_on_c, 1, 58, 79
2, 14453163, Note_on_c, 1, 60, 62
2, 14454524, Note_on_c, 1, 70, 69
2, 14455885, Note_on_c, 1, 67, 62
2, 14457246, Note_on_c, 1, 72, 84
2, 14473933, Note_on_c, 1, 60, 0
2, 14489141, Note_on_c, 1, 67, 0
2, 14504349, Note_on_c, 1, 64, 0
2, 14519557, Note_on_c, 1, 72, 0
2, 14534765, Note_on_c, 1, 72, 79
2, 14550213, Note_on_c, 1, 60, 59
2, 14565661, Note_on_c, 1, 67, 66
2, 14581109, Note_on_c, 1, 64, 66
2, 14596557, Note_on_c, 1, 52, 0
2, 14612005, Note_on_c, 1, 55, 0
2, 14643029, Note_on_c, 1, 72, 0
2, 14658487, Note_on_c, 1, 64, 0
2, 14673945, Note_on_c, 1, 60, 0
2, 14689403, Note_on_c, 1, 67, 0
2, 14704861, Note_on_c, 1, 67, 66
2, 14720560, Note_on_c, 1, 72, 79
2, 14736259, Note_on_c, 1, 60, 59
2, 14751958, Note_on_c, 1, 64, 66
2, 14778907, Note_on_c, 1, 52, 80
2, 14790292, Note_on_c, 1, 55, 80
2, 14801677, Note_on_c, 1, 65, 0
2, 14813062, Note_on_c, 1, 68, 0
2, 14824447, Note_on_c, 1, 60, 0
2, 14835832, Note_on_c, 1, 72, 0
2, 14863295, Note_on_c, 1, 56, 0
2, 14879255, Note_on_c, 1, 53, 0
2, 14895215, Note_on_c, 1, 53, 76
2, 14911415, Note_on_c, 1, 56, 76
2, 14940448, Note_on_c, 1, 56, 0
2, 14953291, Note_on_c, 1, 53, 0
2, 14966134, Note_on_c, 1, 53, 79
2, 14979218, Note_on_c, 1, 56, 79
2, 15004408, Note_on_c, 1, 72, 84
2, 15016771, Note_on_c, 1, 65, 62
2, 15029134, Note_on_c, 1, 68, 69
2, 15041497, Note_on_c, 1, 60, 62
2, 15070690, Note_on_c, 1, 60, 0
2, 15087402, Note_on_c, 1, 72, 0
2, 15104114, Note_on_c, 1, 68, 0
2, 15120826, Note_on_c, 1, 65, 0
2, 15137538, Note_on_c, 1, 65, 59
2, 15154490, Note_on_c, 1, 60, 59
2, 15171442, Note_on_c, 1, 72, 79
2, 15188394, Note_on_c, 1, 68, 66
2, 15205346, Note_on_c, 1, 56, 0
2, 15222298, Note_on_c, 1, 53, 0
2, 15239250, Note_on_c, 1, 65, 0
2, 15256213, Note_on_c, 1, 68, 0
2, 15273176, Note_on_c, 1, 60, 0
2, 15290139, Note_on_c, 1, 72, 0
2, 15307102, Note_on_c, 1, 72, 79
2, 15324305, Note_on_c, 1, 65, 59
2, 15341508, Note_on_c, 1, 60, 59
2, 15358711, Note_on_c, 1, 68, 66
2, 15370586, Note_on_c, 1, 56, 80
2, 15398280, Note_on_c, 1, 53, 80
2, 15425974, Note_on_c, 1, 67, 0
2, 15453668, Note_on_c, 1, 70, 0
2, 15481362, Note_on_c, 1, 72, 0
2, 15509056, Note_on_c, 1, 60, 0
2, 15521436, Note_on_c, 1, 55, 0
2, 15538900, Note_on_c, 1, 58, 0
2, 15556364, Note_on_c, 1, 58, 76
2, 15574068, Note_on_c, 1, 55, 76
2, 15576708, Note_on_c, 1, 55, 0
2, 15594423, Note_on_c, 1, 58, 0
2, 15612138, Note_on_c, 1, 58, 79
2, 15630093, Note_on_c, 1, 55, 79
2, 15643461, Note_on_c, 1, 60, 62
2, 15661667, Note_on_c, 1, 67, 62
2, 15679873, Note_on_c, 1, 70, 69
2, 15698079, Note_on_c, 1, 72, 84
2, 15716285, Note_on_c, 1, 64, 0
2, 15734501, Note_on_c, 1, 60, 0
2, 15752717, Note_on_c, 1, 72, 0
2, 15770933, Note_on_c, 1, 67, 0
2, 15789149, Note_on_c, 1, 67, 66
2, 15807606, Note_on_c, 1, 64, 66
2, 15826063, Note_on_c, 1, 60, 59
2, 15844520, Note_on_c, 1, 72, 79
2, 15862977, Note_on_c, 1, 55, 0
2, 15881434, Note_on_c, 1, 52, 0
2, 15883837, Note_on_c, 1, 64, 0
2, 15900561, Note_on_c, 1, 60, 0
2, 15917285, Note_on_c, 1, 72, 0
2, 15934009, Note_on_c, 1, 67, 0
2, 15950733, Note_on_c, 1, 67, 66
2, 15967698, Note_on_c, 1, 64, 66
2, 15984663, Note_on_c, 1, 72, 79
2, 16001628, Note_on_c, 1, 60, 59
2, 16002221, Note_on_c, 1, 55, 80
2, 16018879, Note_on_c, 1, 52, 80
2, 16035537, Note_on_c, 1, 72, 0
2, 16052195, Note_on_c, 1, 65, 0
2, 16068853, Note_on_c, 1, 68, 0
2, 16085511, Note_on_c, 1, 60, 0
2, 16088359, Note_on_c, 1, 53, 0
2, 16107327, Note_on_c, 1, 56, 0
2, 16126295, Note_on_c, 1, 56, 76
2, 16145504, Note_on_c, 1, 53, 76
2, 16151154, Note_on_c, 1, 53, 0
2, 16170373, Note_on_c, 1, 56, 0
2, 16199126, Note_on_c, 1, 56, 79
2, 16208682, Note_on_c, 1, 53, 79
2, 16227922, Note_on_c, 1, 60, 62
2, 16237736, Note_on_c, 1, 72, 84
2, 16247550, Note_on_c, 1, 65, 62
2, 16257364, Note_on_c, 1, 68, 69
2, 16286888, Note_on_c, 1, 60, 0
2, 16306608, Note_on_c, 1, 72, 0
2, 16326328, Note_on_c, 1, 68, 0
2, 16346048, Note_on_c, 1, 65, 0
2, 16365768, Note_on_c, 1, 65, 59
2, 16385601, Note_on_c, 1, 60, 59
2, 16405434, Note_on_c, 1, 72, 79
2, 16425267, Note_on_c, 1, 68, 66
2, 16445100, Note_on_c, 1, 48, 0
2, 16464933, Note_on_c, 1, 44, 0
2, 16484766, Note_on_c, 1, 53, 0
2, 16504599, Note_on_c, 1, 41, 0
2, 16524432, Note_on_c, 1, 60, 0
2, 16544403, Note_on_c, 1, 65, 0
2, 16564374, Note_on_c, 1, 72, 0
2, 16584345, Note_on_c, 1, 68, 0
2, 16604316, Note_on_c, 1, 68, 66
2, 16624399, Note_on_c, 1, 72, 79
2, 16644482, Note_on_c, 1, 60, 59
2, 16664565, Note_on_c, 1, 65, 59
2, 16684648, Note_on_c, 1, 84, 0
2, 16704731, Note_on_c, 1, 72, 0
2, 16724814, Note_on_c, 1, 44, 63
2, 16745148, Note_on_c, 1, 53, 75
2, 16765482, Note_on_c, 1, 48, 63
2, 16785816, Note_on_c, 1, 41, 63
2, 16806150, Note_on_c, 1, 72, 87
2, 16826484, Note_on_c, 1, 84, 105
2, 16846818, Note_on_c, 1, 55, 0
2, 16867152, Note_on_c, 1, 72, 0
2, 16887486, Note_on_c, 1, 84, 0
2, 16907820, Note_on_c, 1, 60, 0
2, 16928154, Note_on_c, 1, 52, 0
2, 16944394, Note_on_c, 1, 52, 36
2, 16959037, Note_on_c, 1, 55, 36
2, 16973680, Note_on_c, 1, 60, 48
2, 16988323, Note_on_c, 1, 72, 80
2, 17002966, Note_on_c, 1, 84, 95
2, 17017609, Note_on_c, 1, 84, 0
2, 17032252, Note_on_c, 1, 72, 0
2, 17046895, Note_on_c, 1, 48, 0
2, 17061538, Note_on_c, 1, 48, 44
2, 17076438, Note_on_c, 1, 55, 0
2, 17091338, Note_on_c, 1, 60, 0
2, 17106238, Note_on_c, 1, 52, 0
2, 17129136, Note_on_c, 1, 52, 37
2, 17137376, Note_on_c, 1, 55, 37
2, 17145616, Note_on_c, 1, 60, 49
2, 17153856, Note_on_c, 1, 72, 84
2, 17162096, Note_on_c, 1, 84, 101
2, 17170336, Note_on_c, 1, 79, 0
2, 17178576, Note_on_c, 1, 67, 0
2, 17186816, Note_on_c, 1, 48, 0
2, 17198935, Note_on_c, 1, 48, 49
2, 17203052, Note_on_c, 1, 52, 0
2, 17207169, Note_on_c, 1, 60, 0
2, 17211286, Note_on_c, 1, 55, 0
2, 17215403, Note_on_c, 1, 55, 39
2, 17219768, Note_on_c, 1, 52, 49
2, 17224133, Note_on_c, 1, 60, 49
2, 17228498, Note_on_c, 1, 48, 0
2, 17232863, Note_on_c, 1, 48, 57
2, 17237476, Note_on_c, 1, 67, 82
2, 17242089, Note_on_c, 1, 79, 99
2, 17246702, Note_on_c, 1, 80, 0
2, 17251315, Note_on_c, 1, 53, 0
2, 17255928, Note_on_c, 1, 56, 0
2, 17260541, Note_on_c, 1, 60, 0
2, 17265154, Note_on_c, 1, 68, 0
2, 17282683, Note_on_c, 1, 68, 72
2, 17295817, Note_on_c, 1, 80, 85
2, 17308951, Note_on_c, 1, 84, 0
2, 17322085, Note_on_c, 1, 72, 0
2, 17351341, Note_on_c, 1, 56, 39
2, 17367527, Note_on_c, 1, 60, 55
2, 17383713, Note_on_c, 1, 53, 39
2, 17399899, Note_on_c, 1, 48, 0
2, 17416085, Note_on_c, 1, 48, 49
2, 17432529, Note_on_c, 1, 60, 0
2, 17448973, Note_on_c, 1, 53, 0
2, 17465417, Note_on_c, 1, 56, 0
2, 17491365, Note_on_c, 1, 56, 40
2, 17501122, Note_on_c, 1, 60, 56
2, 17510879, Note_on_c, 1, 53, 40
2, 17520636, Note_on_c, 1, 72, 77
2, 17530393, Note_on_c, 1, 84, 92
2, 17540150, Note_on_c, 1, 68, 0
2, 17549907, Note_on_c, 1, 80, 0
2, 17559664, Note_on_c, 1, 48, 0
2, 17574779, Note_on_c, 1, 48, 49
2, 17580257, Note_on_c, 1, 56, 0
2, 17585735, Note_on_c, 1, 60, 0
2, 17591213, Note_on_c, 1, 53, 0
2, 17596691, Note_on_c, 1, 53, 39
2, 17602417, Note_on_c, 1, 56, 49
2, 17608143, Note_on_c, 1, 60, 49
2, 17613869, Note_on_c, 1, 48, 0
2, 17619595, Note_on_c, 1, 48, 57
2, 17625569, Note_on_c, 1, 80, 99
2, 17631543, Note_on_c, 1, 68, 82
2, 17637517, Note_on_c, 1, 70, 0
2, 17643491, Note_on_c, 1, 52, 0
2, 17649465, Note_on_c, 1, 55, 0
2, 17655439, Note_on_c, 1, 58, 0
2, 17661413, Note_on_c, 1, 82, 0
2, 17682530, Note_on_c, 1, 82, 85
2, 17697890, Note_on_c, 1, 70, 72
2, 17713250, Note_on_c, 1, 73, 0
2, 17728610, Note_on_c, 1, 85, 0
2, 17728867, Note_on_c, 1, 55, 55
2, 17746596, Note_on_c, 1, 58, 55
2, 17764325, Note_on_c, 1, 52, 39
2, 17782054, Note_on_c, 1, 46, 0
2, 17799783, Note_on_c, 1, 46, 49
2, 17817770, Note_on_c, 1, 58, 0
2, 17835757, Note_on_c, 1, 55, 0
2, 17853744, Note_on_c, 1, 52, 0
2, 17882752, Note_on_c, 1, 52, 40
2, 17894026, Note_on_c, 1, 58, 56
2, 17905300, Note_on_c, 1, 55, 56
2, 17916574, Note_on_c, 1, 85, 92
2, 17927848, Note_on_c, 1, 73, 77
2, 17939122, Note_on_c, 1, 82, 0
2, 17950396, Note_on_c, 1, 70, 0
2, 17961670, Note_on_c, 1, 46, 0
2, 17992467, Note_on_c, 1, 46, 57
2, 18012241, Note_on_c, 1, 53, 0
2, 18032015, Note_on_c, 1, 49, 0
2, 18051789, Note_on_c, 1, 58, 0
2, 18071563, Note_on_c, 1, 58, 49
2, 18091589, Note_on_c, 1, 53, 49
2, 18111615, Note_on_c, 1, 49, 49
2, 18131641, Note_on_c, 1, 46, 0
2, 18151667, Note_on_c, 1, 46, 57
2, 18171944, Note_on_c, 1, 53, 0
2, 18192221, Note_on_c, 1, 49, 0
2, 18212498, Note_on_c, 1, 58, 0
2, 18232775, Note_on_c, 1, 58, 49
2, 18253304, Note_on_c, 1, 53, 49
2, 18273833, Note_on_c, 1, 49, 49
2, 18294362, Note_on_c, 1, 46, 0
2, 18314891, Note_on_c, 1, 46, 49
2, 18335671, Note_on_c, 1, 53, 0
2, 18356451, Note_on_c, 1, 49, 0
2, 18377231, Note_on_c, 1, 58, 0
2, 18398011, Note_on_c, 1, 58, 57
2, 18419043, Note_on_c, 1, 53, 57
2, 18440075, Note_on_c, 1, 49, 57
2, 18461107, Note_on_c, 1, 70, 69
2, 18482139, Note_on_c, 1, 82, 86
2, 18503171, Note_on_c, 1, 89, 0
2, 18524203, Note_on_c, 1, 77, 0
2, 18545235, Note_on_c, 1, 45, 0
2, 18574474, Note_on_c, 1, 45, 49
2, 18582929, Note_on_c, 1, 53, 0
2, 18591384, Note_on_c, 1, 57, 0
2, 18599839, Note_on_c, 1, 51, 0
2, 18608294, Note_on_c, 1, 51, 39
2, 18616869, Note_on_c, 1, 53, 49
2, 18625444, Note_on_c, 1, 57, 49
2, 18634019, Note_on_c, 1, 45, 0
2, 18642594, Note_on_c, 1, 45, 57
2, 18651417, Note_on_c, 1, 77, 84
2, 18660240, Note_on_c, 1, 89, 103
2, 18669063, Note_on_c, 1, 72, 0
2, 18677886, Note_on_c, 1, 54, 0
2, 18686709, Note_on_c, 1, 51, 0
2, 18695532, Note_on_c, 1, 57, 0
2, 18704355, Note_on_c, 1, 84, 0
2, 18721844, Note_on_c, 1, 84, 85
2, 18730606, Note_on_c, 1, 72, 72
2, 18739368, Note_on_c, 1, 87, 0
2, 18748130, Note_on_c, 1, 75, 0
2, 18777643, Note_on_c, 1, 51, 39
2, 18798459, Note_on_c, 1, 57, 55
2, 18819275, Note_on_c, 1, 54, 39
2, 18840091, Note_on_c, 1, 45, 0
2, 18860907, Note_on_c, 1, 45, 49
2, 18881980, Note_on_c, 1, 57, 0
2, 18903053, Note_on_c, 1, 54, 0
2, 18924126, Note_on_c, 1, 51, 0
2, 18926487, Note_on_c, 1, 51, 45
2, 18940668, Note_on_c, 1, 57, 59
2, 18954849, Note_on_c, 1, 54, 45
2, 18969030, Note_on_c, 1, 75, 77
2, 18983211, Note_on_c, 1, 87, 92
2, 18997392, Note_on_c, 1, 72, 0
2, 19011573, Note_on_c, 1, 84, 0
2, 19025754, Note_on_c, 1, 45, 0
2, 19029707, Note_on_c, 1, 45, 53
2, 19052499, Note_on_c, 1, 57, 0
2, 19075291, Note_on_c, 1, 51, 0
2, 19098083, Note_on_c, 1, 54, 0
2, 19120875, Note_on_c, 1, 54, 48
2, 19143918, Note_on_c, 1, 57, 48
2, 19166961, Note_on_c, 1, 51, 48
2, 19190004, Note_on_c, 1, 45, 0
2, 19213047, Note_on_c, 1, 45, 53
2, 19236214, Note_on_c, 1, 57, 0
2, 19259381, Note_on_c, 1, 51, 0
2, 19282548, Note_on_c, 1, 54, 0
2, 19305715, Note_on_c, 1, 54, 48
2, 19329133, Note_on_c, 1, 57, 48
2, 19352551, Note_on_c, 1, 51, 48
2, 19375969, Note_on_c, 1, 45, 0
2, 19399387, Note_on_c, 1, 45, 48
2, 19423057, Note_on_c, 1, 57, 0
2, 19446727, Note_on_c, 1, 51, 0
2, 19470397, Note_on_c, 1, 54, 0
2, 19494067, Note_on_c, 1, 54, 53
2, 19517988, Note_on_c, 1, 57, 53
2, 19541909, Note_on_c, 1, 51, 53
2, 19565830, Note_on_c, 1, 84, 86
2, 19589751, Note_on_c, 1, 72, 69
2, 19613672, Note_on_c, 1, 90, 0
2, 19637603, Note_on_c, 1, 45, 0
2, 19661534, Note_on_c, 1, 78, 0
2, 19663891, Note_on_c, 1, 51, 0
2, 19675195, Note_on_c, 1, 57, 0
2, 19686499, Note_on_c, 1, 54, 0
2, 19697803, Note_on_c, 1, 45, 48
2, 19709117, Note_on_c, 1, 54, 47
2, 19720669, Note_on_c, 1, 57, 47
2, 19732221, Note_on_c, 1, 51, 38
2, 19743773, Note_on_c, 1, 45, 0
2, 19755325, Note_on_c, 1, 45, 53
2, 19767125, Note_on_c, 1, 55, 0
2, 19778925, Note_on_c, 1, 48, 0
2, 19790725, Note_on_c, 1, 52, 0
2, 19802525, Note_on_c, 1, 76, 0
2, 19814325, Note_on_c, 1, 88, 0
2, 19826125, Note_on_c, 1, 90, 103
2, 19837935, Note_on_c, 1, 78, 84
2, 19847507, Note_on_c, 1, 88, 85
2, 19878250, Note_on_c, 1, 76, 72
2, 19908993, Note_on_c, 1, 79, 0
2, 19939736, Note_on_c, 1, 91, 0
2, 19952803, Note_on_c, 1, 52, 38
2, 19976705, Note_on_c, 1, 48, 38
2, 20000607, Note_on_c, 1, 55, 50
2, 20024509, Note_on_c, 1, 46, 0
2, 20048411, Note_on_c, 1, 46, 47
2, 20072570, Note_on_c, 1, 48, 0
2, 20096729, Note_on_c, 1, 52, 0
2, 20120888, Note_on_c, 1, 55, 0
2, 20129379, Note_on_c, 1, 55, 51
2, 20146594, Note_on_c, 1, 48, 39
2, 20163809, Note_on_c, 1, 52, 39
2, 20181024, Note_on_c, 1, 91, 92
2, 20198239, Note_on_c, 1, 79, 77
2, 20215454, Note_on_c, 1, 79, 0
2, 20232669, Note_on_c, 1, 67, 0
2, 20249884, Note_on_c, 1, 46, 0
2, 20279654, Note_on_c, 1, 46, 49
2, 20292319, Note_on_c, 1, 52, 0
2, 20304984, Note_on_c, 1, 48, 0
2, 20317649, Note_on_c, 1, 55, 0
2, 20330314, Note_on_c, 1, 55, 48
2, 20343227, Note_on_c, 1, 52, 48
2, 20356140, Note_on_c, 1, 48, 39
2, 20369053, Note_on_c, 1, 46, 0
2, 20381966, Note_on_c, 1, 46, 55
2, 20395127, Note_on_c, 1, 67, 75
2, 20408288, Note_on_c, 1, 79, 90
2, 20421449, Note_on_c, 1, 80, 0
2, 20434610, Note_on_c, 1, 56, 0
2, 20447771, Note_on_c, 1, 60, 0
2, 20460932, Note_on_c, 1, 53, 0
2, 20474093, Note_on_c, 1, 68, 0
2, 20480507, Note_on_c, 1, 68, 66
2, 20506489, Note_on_c, 1, 80, 78
2, 20532471, Note_on_c, 1, 84, 0
2, 20558453, Note_on_c, 1, 72, 0
2, 20577175, Note_on_c, 1, 60, 52
2, 20602620, Note_on_c, 1, 53, 39
2, 20628065, Note_on_c, 1, 56, 39
2, 20653510, Note_on_c, 1, 48, 0
2, 20678955, Note_on_c, 1, 48, 48
2, 20704657, Note_on_c, 1, 60, 0
2, 20730359, Note_on_c, 1, 56, 0
2, 20756061, Note_on_c, 1, 53, 0
2, 20767602, Note_on_c, 1, 53, 40
2, 20786334, Note_on_c, 1, 60, 53
2, 20805066, Note_on_c, 1, 56, 40
2, 20823798, Note_on_c, 1, 72, 70
2, 20842530, Note_on_c, 1, 84, 84
2, 20861262, Note_on_c, 1, 68, 0
2, 20879994, Note_on_c, 1, 80, 0
2, 20898726, Note_on_c, 1, 48, 0
2, 20931363, Note_on_c, 1, 48, 49
2, 20945516, Note_on_c, 1, 56, 0
2, 20959669, Note_on_c, 1, 53, 0
2, 20973822, Note_on_c, 1, 60, 0
2, 20987975, Note_on_c, 1, 60, 48
2, 21002376, Note_on_c, 1, 56, 48
2, 21016777, Note_on_c, 1, 53, 39
2, 21031178, Note_on_c, 1, 48, 0
2, 21045579, Note_on_c, 1, 48, 55
2, 21060229, Note_on_c, 1, 80, 90
2, 21074879, Note_on_c, 1, 68, 75
2, 21089529, Note_on_c, 1, 82, 0
2, 21104179, Note_on_c, 1, 64, 0
2, 21118829, Note_on_c, 1, 67, 0
2, 21133479, Note_on_c, 1, 70, 0
2, 21143480, Note_on_c, 1, 70, 66
2, 21171689, Note_on_c, 1, 82, 78
2, 21199898, Note_on_c, 1, 73, 0
2, 21228107, Note_on_c, 1, 85, 0
2, 21250471, Note_on_c, 1, 67, 52
2, 21277459, Note_on_c, 1, 64, 39
2, 21304447, Note_on_c, 1, 58, 0
2, 21331435, Note_on_c, 1, 58, 48
2, 21358680, Note_on_c, 1, 67, 0
2, 21385925, Note_on_c, 1, 64, 0
2, 21400526, Note_on_c, 1, 64, 40
2, 21420775, Note_on_c, 1, 67, 53
2, 21441024, Note_on_c, 1, 85, 84
2, 21461273, Note_on_c, 1, 73, 70
2, 21481522, Note_on_c, 1, 70, 0
2, 21501771, Note_on_c, 1, 82, 0
2, 21522020, Note_on_c, 1, 58, 0
2, 21537948, Note_on_c, 1, 58, 55
2, 21566647, Note_on_c, 1, 65, 0
2, 21595346, Note_on_c, 1, 61, 0
2, 21624045, Note_on_c, 1, 61, 49
2, 21652995, Note_on_c, 1, 65, 49
2, 21681945, Note_on_c, 1, 58, 0
2, 21710895, Note_on_c, 1, 58, 55
2, 21740097, Note_on_c, 1, 61, 0
2, 21769299, Note_on_c, 1, 65, 0
2, 21798501, Note_on_c, 1, 65, 49
2, 21827954, Note_on_c, 1, 61, 49
2, 21857407, Note_on_c, 1, 58, 0
2, 21886860, Note_on_c, 1, 58, 49
2, 21916565, Note_on_c, 1, 65, 0
2, 21946270, Note_on_c, 1, 61, 0
2, 21975975, Note_on_c, 1, 61, 55
2, 22005931, Note_on_c, 1, 65, 55
2, 22035887, Note_on_c, 1, 82, 79
2, 22065843, Note_on_c, 1, 70, 63
2, 22095799, Note_on_c, 1, 89, 0
2, 22125755, Note_on_c, 1, 77, 0
2, 22155711, Note_on_c, 1, 57, 0
2, 22169653, Note_on_c, 1, 57, 49
2, 22186656, Note_on_c, 1, 63, 0
2, 22203659, Note_on_c, 1, 65, 0
2, 22220662, Note_on_c, 1, 60, 0
2, 22237665, Note_on_c, 1, 60, 39
2, 22254916, Note_on_c, 1, 63, 48
2, 22272167, Note_on_c, 1, 65, 48
2, 22289418, Note_on_c, 1, 57, 0
2, 22306669, Note_on_c, 1, 57, 55
2, 22324168, Note_on_c, 1, 77, 82
2, 22341667, Note_on_c, 1, 89, 99
2, 22359166, Note_on_c, 1, 72, 0
2, 22376665, Note_on_c, 1, 63, 0
2, 22394164, Note_on_c, 1, 60, 0
2, 22411663, Note_on_c, 1, 66, 0
2, 22429162, Note_on_c, 1, 84, 0
2, 22446338, Note_on_c, 1, 84, 78
2, 22478873, Note_on_c, 1, 72, 66
2, 22511408, Note_on_c, 1, 75, 0
2, 22543943, Note_on_c, 1, 87, 0
2, 22573720, Note_on_c, 1, 60, 39
2, 22603794, Note_on_c, 1, 66, 52
2, 22633868, Note_on_c, 1, 63, 39
2, 22663942, Note_on_c, 1, 57, 0
2, 22694016, Note_on_c, 1, 57, 48
2, 22724347, Note_on_c, 1, 66, 0
2, 22754678, Note_on_c, 1, 63, 0
2, 22785009, Note_on_c, 1, 60, 0
2, 22805602, Note_on_c, 1, 60, 40
2, 22828757, Note_on_c, 1, 66, 53
2, 22851912, Note_on_c, 1, 63, 40
2, 22875067, Note_on_c, 1, 87, 84
2, 22898222, Note_on_c, 1, 75, 70
2, 22921377, Note_on_c, 1, 72, 0
2, 22944532, Note_on_c, 1, 84, 0
2, 22967687, Note_on_c, 1, 57, 0
2, 22989539, Note_on_c, 1, 57, 55
2, 23021127, Note_on_c, 1, 60, 0
2, 23052715, Note_on_c, 1, 66, 0
2, 23084303, Note_on_c, 1, 63, 0
2, 23115891, Note_on_c, 1, 63, 49
2, 23147731, Note_on_c, 1, 60, 39
2, 23179571, Note_on_c, 1, 66, 49
2, 23211411, Note_on_c, 1, 57, 0
2, 23243251, Note_on_c, 1, 57, 55
2, 23275342, Note_on_c, 1, 63, 0
2, 23307433, Note_on_c, 1, 60, 0
2, 23339524, Note_on_c, 1, 66, 0
2, 23371615, Note_on_c, 1, 66, 49
2, 23403958, Note_on_c, 1, 63, 49
2, 23436301, Note_on_c, 1, 60, 39
2, 23468644, Note_on_c, 1, 57, 0
2, 23500987, Note_on_c, 1, 57, 49
2, 23533581, Note_on_c, 1, 60, 0
2, 23566175, Note_on_c, 1, 66, 0
2, 23598769, Note_on_c, 1, 63, 0
2, 23631363, Note_on_c, 1, 63, 55
2, 23631441, Note_on_c, 1, 60, 41
2, 23631519, Note_on_c, 1, 66, 55
2, 23631597, Note_on_c, 1, 84, 79
2, 23631675, Note_on_c, 1, 72, 63
2, 23631753, Note_on_c, 1, 90, 0
2, 23631831, Note_on_c, 1, 78, 0
2, 23631909, Note_on_c, 1, 57, 0
2, 23651719, Note_on_c, 1, 57, 49
2, 23671699, Note_on_c, 1, 63, 0
2, 23691679, Note_on_c, 1, 66, 0
2, 23711659, Note_on_c, 1, 60, 0
2, 23731639, Note_on_c, 1, 60, 39
2, 23751867, Note_on_c, 1, 63, 48
2, 23772095, Note_on_c, 1, 66, 48
2, 23792323, Note_on_c, 1, 57, 0
2, 23812551, Note_on_c, 1, 57, 55
2, 23832899, Note_on_c, 1, 78, 82
2, 23853247, Note_on_c, 1, 90, 99
2, 23873595, Note_on_c, 1, 88, 0
2, 23893943, Note_on_c, 1, 64, 0
2, 23914291, Note_on_c, 1, 60, 0
2, 23934639, Note_on_c, 1, 67, 0
2, 23954987, Note_on_c, 1, 76, 0
2, 23979338, Note_on_c, 1, 76, 65
2, 23983302, Note_on_c, 1, 88, 77
2, 23987266, Note_on_c, 1, 91, 0
2, 23991230, Note_on_c, 1, 79, 0
2, 23995650, Note_on_c, 1, 60, 38
2, 23996170, Note_on_c, 1, 67, 51
2, 23996690, Note_on_c, 1, 64, 38
2, 23997210, Note_on_c, 1, 58, 0
2, 23997730, Note_on_c, 1, 58, 47
2, 23998508, Note_on_c, 1, 67, 0
2, 23999286, Note_on_c, 1, 64, 0
2, 24000064, Note_on_c, 1, 60, 0
2, 24026779, Note_on_c, 1, 60, 39
2, 24052968, Note_on_c, 1, 67, 51
2, 24079157, Note_on_c, 1, 64, 39
2, 24105346, Note_on_c, 1, 79, 68
2, 24131535, Note_on_c, 1, 91, 82
2, 24157724, Note_on_c, 1, 88, 0
2, 24183913, Note_on_c, 1, 76, 0
2, 24210102, Note_on_c, 1, 58, 0
2, 24211178, Note_on_c, 1, 58, 46
2, 24218955, Note_on_c, 1, 60, 0
2, 24226732, Note_on_c, 1, 64, 0
2, 24234509, Note_on_c, 1, 67, 0
2, 24242286, Note_on_c, 1, 67, 45
2, 24250314, Note_on_c, 1, 60, 36
2, 24258342, Note_on_c, 1, 64, 36
2, 24266370, Note_on_c, 1, 58, 0
2, 24267498, Note_on_c, 1, 58, 49
2, 24293391, Note_on_c, 1, 76, 64
2, 24319284, Note_on_c, 1, 88, 76
2, 24345177, Note_on_c, 1, 89, 0
2, 24371070, Note_on_c, 1, 68, 0
2, 24396963, Note_on_c, 1, 60, 0
2, 24422856, Note_on_c, 1, 65, 0
2, 24448749, Note_on_c, 1, 77, 0
2, 24474642, Note_on_c, 1, 77, 59
2, 24500612, Note_on_c, 1, 89, 71
2, 24526582, Note_on_c, 1, 92, 0
2, 24552552, Note_on_c, 1, 80, 0
2, 24584598, Note_on_c, 1, 60, 36
2, 24590610, Note_on_c, 1, 65, 44
2, 24596622, Note_on_c, 1, 68, 44
2, 24602634, Note_on_c, 1, 56, 0
2, 24608646, Note_on_c, 1, 56, 43
2, 24614915, Note_on_c, 1, 60, 0
2, 24621184, Note_on_c, 1, 68, 0
2, 24627453, Note_on_c, 1, 65, 0
2, 24655153, Note_on_c, 1, 65, 47
2, 24676709, Note_on_c, 1, 60, 36
2, 24698265, Note_on_c, 1, 68, 47
2, 24719821, Note_on_c, 1, 80, 65
2, 24741377, Note_on_c, 1, 92, 78
2, 24762933, Note_on_c, 1, 77, 0
2, 24784489, Note_on_c, 1, 89, 0
2, 24806045, Note_on_c, 1, 56, 0
2, 24817414, Note_on_c, 1, 56, 42
2, 24840243, Note_on_c, 1, 60, 0
2, 24863072, Note_on_c, 1, 68, 0
2, 24885901, Note_on_c, 1, 65, 0
2, 24908730, Note_on_c, 1, 65, 40
2, 24931807, Note_on_c, 1, 60, 34
2, 24954884, Note_on_c, 1, 68, 40
2, 24977961, Note_on_c, 1, 56, 0
2, 24999584, Note_on_c, 1, 56, 46
2, 25030918, Note_on_c, 1, 89, 73
2, 25062252, Note_on_c, 1, 77, 61
2, 25093586, Note_on_c, 1, 84, 0
2, 25124920, Note_on_c, 1, 60, 0
2, 25156254, Note_on_c, 1, 65, 0
2, 25187588, Note_on_c, 1, 72, 0
2, 25218388, Note_on_c, 1, 72, 52
2, 25250707, Note_on_c, 1, 84, 62
2, 25283026, Note_on_c, 1, 80, 0
2, 25315345, Note_on_c, 1, 68, 0
2, 25329027, Note_on_c, 1, 65, 44
2, 25343221, Note_on_c, 1, 60, 33
2, 25357415, Note_on_c, 1, 56, 0
2, 25371609, Note_on_c, 1, 56, 40
2, 25386059, Note_on_c, 1, 60, 0
2, 25400509, Note_on_c, 1, 65, 0
2, 25419311, Note_on_c, 1, 65, 44
2, 25423787, Note_on_c, 1, 60, 34
2, 25428263, Note_on_c, 1, 68, 60
2, 25432739, Note_on_c, 1, 80, 71
2, 25437215, Note_on_c, 1, 72, 0
2, 25441691, Note_on_c, 1, 56, 0
2, 25446167, Note_on_c, 1, 56, 42
2, 25450894, Note_on_c, 1, 60, 0
2, 25455621, Note_on_c, 1, 65, 0
2, 25460348, Note_on_c, 1, 65, 37
2, 25465327, Note_on_c, 1, 60, 30
2, 25470306, Note_on_c, 1, 56, 0
2, 25475285, Note_on_c, 1, 56, 42
2, 25480515, Note_on_c, 1, 60, 0
2, 25485745, Note_on_c, 1, 65, 0
2, 25490975, Note_on_c, 1, 65, 37
2, 25496457, Note_on_c, 1, 60, 30
2, 25501939, Note_on_c, 1, 56, 0
2, 25507421, Note_on_c, 1, 56, 37
2, 25513154, Note_on_c, 1, 60, 0
2, 25518887, Note_on_c, 1, 65, 0
2, 25524620, Note_on_c, 1, 65, 42
2, 25530605, Note_on_c, 1, 60, 32
2, 25536590, Note_on_c, 1, 72, 62
2, 25542575, Note_on_c, 1, 77, 0
2, 25548560, Note_on_c, 1, 56, 0
2, 25580103, Note_on_c, 1, 56, 37
2, 25605781, Note_on_c, 1, 60, 0
2, 25631459, Note_on_c, 1, 65, 0
2, 25657137, Note_on_c, 1, 65, 36
2, 25683063, Note_on_c, 1, 60, 30
2, 25708989, Note_on_c, 1, 56, 0
2, 25734915, Note_on_c, 1, 56, 42
2, 25761089, Note_on_c, 1, 77, 63
2, 25787263, Note_on_c, 1, 67, 0
2, 25813437, Note_on_c, 1, 60, 0
2, 25839611, Note_on_c, 1, 76, 0
2, 25870335, Note_on_c, 1, 76, 60
2, 25874964, Note_on_c, 1, 79, 0
2, 25907334, Note_on_c, 1, 60, 31
2, 25935269, Note_on_c, 1, 67, 41
2, 25963204, Note_on_c, 1, 58, 0
2, 25991139, Note_on_c, 1, 58, 37
2, 26019333, Note_on_c, 1, 67, 0
2, 26047527, Note_on_c, 1, 60, 0
2, 26074958, Note_on_c, 1, 60, 32
2, 26107216, Note_on_c, 1, 67, 42
2, 26139474, Note_on_c, 1, 79, 68
2, 26171732, Note_on_c, 1, 76, 0
2, 26203990, Note_on_c, 1, 58, 0
2, 26216889, Note_on_c, 1, 58, 37
2, 26230549, Note_on_c, 1, 67, 0
2, 26244209, Note_on_c, 1, 60, 0
2, 26257869, Note_on_c, 1, 60, 30
2, 26271779, Note_on_c, 1, 67, 37
2, 26285689, Note_on_c, 1, 58, 0
2, 26303929, Note_on_c, 1, 58, 42
2, 26308284, Note_on_c, 1, 76, 63
2, 26312639, Note_on_c, 1, 65, 0
2, 26316994, Note_on_c, 1, 60, 0
2, 26321349, Note_on_c, 1, 77, 0
2, 26325704, Note_on_c, 1, 77, 60
2, 26330132, Note_on_c, 1, 80, 0
2, 26346792, Note_on_c, 1, 60, 30
2, 26359088, Note_on_c, 1, 65, 37
2, 26371384, Note_on_c, 1, 56, 0
2, 26383680, Note_on_c, 1, 56, 37
2, 26396232, Note_on_c, 1, 65, 0
2, 26408784, Note_on_c, 1, 60, 0
2, 26415964, Note_on_c, 1, 60, 32
2, 26443614, Note_on_c, 1, 65, 42
2, 26471264, Note_on_c, 1, 80, 68
2, 26498914, Note_on_c, 1, 77, 0
2, 26526564, Note_on_c, 1, 56, 0
2, 26549725, Note_on_c, 1, 56, 37
2, 26578252, Note_on_c, 1, 60, 0
2, 26606779, Note_on_c, 1, 65, 0
2, 26635306, Note_on_c, 1, 65, 36
2, 26664081, Note_on_c, 1, 60, 30
2, 26692856, Note_on_c, 1, 56, 0
2, 26693202, Note_on_c, 1, 56, 42
2, 26697561, Note_on_c, 1, 77, 63
2, 26701920, Note_on_c, 1, 65, 0
2, 26706279, Note_on_c, 1, 60, 0
2, 26710638, Note_on_c, 1, 72, 0
2, 26722495, Note_on_c, 1, 72, 58
2, 26730206, Note_on_c, 1, 68, 0
2, 26755334, Note_on_c, 1, 60, 31
2, 26772818, Note_on_c, 1, 65, 41
2, 26790302, Note_on_c, 1, 56, 0
2, 26807786, Note_on_c, 1, 56, 37
2, 26825532, Note_on_c, 1, 65, 0
2, 26843278, Note_on_c, 1, 60, 0
2, 26850811, Note_on_c, 1, 60, 32
2, 26873621, Note_on_c, 1, 65, 42
2, 26896431, Note_on_c, 1, 68, 66
2, 26919241, Note_on_c, 1, 56, 0
2, 26942051, Note_on_c, 1, 56, 37
2, 26965116, Note_on_c, 1, 65, 0
2, 26988181, Note_on_c, 1, 60, 0
2, 27011246, Note_on_c, 1, 60, 30
2, 27034566, Note_on_c, 1, 65, 37
2, 27057886, Note_on_c, 1, 56, 0
2, 27081206, Note_on_c, 1, 56, 42
2, 27104781, Note_on_c, 1, 60, 0
2, 27128356, Note_on_c, 1, 65, 0
2, 27151931, Note_on_c, 1, 65, 37
2, 27175761, Note_on_c, 1, 60, 30
2, 27199591, Note_on_c, 1, 56, 0
2, 27223421, Note_on_c, 1, 56, 37
2, 27247506, Note_on_c, 1, 65, 0
2, 27271591, Note_on_c, 1, 60, 0
2, 27295676, Note_on_c, 1, 60, 32
2, 27320016, Note_on_c, 1, 65, 42
2, 27344356, Note_on_c, 1, 56, 0
2, 27368696, Note_on_c, 1, 56, 37
2, 27393291, Note_on_c, 1, 89, 0
2, 27417886, Note_on_c, 1, 65, 0
2, 27442481, Note_on_c, 1, 84, 0
2, 27467076, Note_on_c, 1, 77, 0
2, 27491671, Note_on_c, 1, 80, 0
2, 27516266, Note_on_c, 1, 60, 0
2, 27540861, Note_on_c, 1, 60, 30
2, 27565711, Note_on_c, 1, 65, 30
2, 27590561, Note_on_c, 1, 29, 0
2, 27615411, Note_on_c, 1, 41, 0
2, 27621874, Note_on_c, 1, 41, 85
2, 27636540, Note_on_c, 1, 29, 71
2, 27651206, Note_on_c, 1, 77, 87
2, 27665872, Note_on_c, 1, 89, 102
2, 27680538, Note_on_c, 1, 80, 87
2, 27695204, Note_on_c, 1, 84, 87
2, 27709870, Note_on_c, 1, 84, 0
2, 27724536, Note_on_c, 1, 48, 0
2, 27739202, Note_on_c, 1, 79, 0
2, 27753868, Note_on_c, 1, 82, 0
2, 27768534, Note_on_c, 1, 76, 0
2, 27783200, Note_on_c, 1, 88, 0
2, 27797866, Note_on_c, 1, 36, 0
2, 27812532, Note_on_c, 1, 36, 65
2, 27827484, Note_on_c, 1, 48, 78
2, 27842436, Note_on_c, 1, 88, 93
2, 27857388, Note_on_c, 1, 84, 78
2, 27872340, Note_on_c, 1, 82, 78
2, 27887292, Note_on_c, 1, 76, 78
2, 27902244, Note_on_c, 1, 79, 78
2, 27917196, Note_on_c, 1, 88, 0
2, 27932148, Note_on_c, 1, 48, 0
2, 27947100, Note_on_c, 1, 76, 0
2, 27962052, Note_on_c, 1, 79, 0
2, 27977004, Note_on_c, 1, 84, 0
2, 27991956, Note_on_c, 1, 82, 0
2, 28006908, Note_on_c, 1, 36, 0
2, 28021860, Note_on_c, 1, 36, 65
2, 28037225, Note_on_c, 1, 48, 78
2, 28052590, Note_on_c, 1, 82, 78
2, 28067955, Note_on_c, 1, 88, 93
2, 28083320, Note_on_c, 1, 79, 78
2, 28098685, Note_on_c, 1, 84, 78
2, 28114050, Note_on_c, 1, 76, 78
2, 28129415, Note_on_c, 1, 76, 0
2, 28144780, Note_on_c, 1, 36, 0
2, 28160145, Note_on_c, 1, 84, 0
2, 28175510, Note_on_c, 1, 79, 0
2, 28190875, Note_on_c, 1, 82, 0
2, 28206240, Note_on_c, 1, 88, 0
2, 28221605, Note_on_c, 1, 48, 0
2, 28236970, Note_on_c, 1, 48, 83
2, 28252620, Note_on_c, 1, 36, 70
2, 28268270, Note_on_c, 1, 88, 102
2, 28283920, Note_on_c, 1, 76, 87
2, 28299570, Note_on_c, 1, 79, 87
2, 28315220, Note_on_c, 1, 82, 87
2, 28330870, Note_on_c, 1, 84, 87
2, 28346520, Note_on_c, 1, 67, 0
2, 28362170, Note_on_c, 1, 70, 0
2, 28377820, Note_on_c, 1, 76, 0
2, 28393470, Note_on_c, 1, 36, 0
2, 28397573, Note_on_c, 1, 36, 28
2, 28421718, Note_on_c, 1, 67, 43
2, 28445863, Note_on_c, 1, 70, 43
2, 28470008, Note_on_c, 1, 76, 43
2, 28494153, Note_on_c, 1, 70, 0
2, 28518298, Note_on_c, 1, 67, 0
2, 28542443, Note_on_c, 1, 76, 0
2, 28566588, Note_on_c, 1, 37, 0
2, 28596312, Note_on_c, 1, 37, 26
2, 28603003, Note_on_c, 1, 70, 39
2, 28609694, Note_on_c, 1, 67, 39
2, 28616385, Note_on_c, 1, 76, 39
2, 28623076, Note_on_c, 1, 67, 0
2, 28629767, Note_on_c, 1, 70, 0
2, 28636458, Note_on_c, 1, 76, 0
2, 28643149, Note_on_c, 1, 37, 0
2, 28670066, Note_on_c, 1, 37, 24
2, 28691119, Note_on_c, 1, 67, 36
2, 28712172, Note_on_c, 1, 70, 36
2, 28733225, Note_on_c, 1, 76, 36
2, 28754278, Note_on_c, 1, 76, 0
2, 28775331, Note_on_c, 1, 67, 0
2, 28796384, Note_on_c, 1, 70, 0
2, 28817437, Note_on_c, 1, 37, 0
2, 28828000, Note_on_c, 1, 37, 21
2, 28851070, Note_on_c, 1, 76, 32
2, 28874140, Note_on_c, 1, 67, 32
2, 28897210, Note_on_c, 1, 70, 32
2, 28920280, Note_on_c, 1, 36, 0
2, 28931056, Note_on_c, 1, 36, 29
2, 28953626, Note_on_c, 1, 37, 0
2, 28976196, Note_on_c, 1, 37, 29
2, 28999508, Note_on_c, 1, 37, 0
2, 29022820, Note_on_c, 1, 37, 29
2, 29046745, Note_on_c, 1, 37, 0
2, 29070670, Note_on_c, 1, 37, 31
2, 29095337, Note_on_c, 1, 36, 0
2, 29101289, Note_on_c, 1, 36, 31
2, 29117427, Note_on_c, 1, 37, 0
2, 29138458, Note_on_c, 1, 37, 30
2, 29150328, Note_on_c, 1, 37, 0
2, 29160141, Note_on_c, 1, 37, 30
2, 29169410, Note_on_c, 1, 37, 0
2, 29198940, Note_on_c, 1, 37, 32
2, 29204845, Note_on_c, 1, 67, 0
2, 29205648, Note_on_c, 1, 70, 0
2, 29206451, Note_on_c, 1, 70, 41
2, 29208330, Note_on_c, 1, 67, 41
2, 29210209, Note_on_c, 1, 67, 0
2, 29212088, Note_on_c, 1, 64, 0
2, 29219011, Note_on_c, 1, 64, 37
2, 29224482, Note_on_c, 1, 67, 37
2, 29229953, Note_on_c, 1, 64, 0
2, 29235424, Note_on_c, 1, 67, 0
2, 29240820, Note_on_c, 1, 67, 37
2, 29241161, Note_on_c, 1, 64, 37
2, 29241502, Note_on_c, 1, 64, 0
2, 29241843, Note_on_c, 1, 67, 0
2, 29242184, Note_on_c, 1, 67, 39
2, 29243070, Note_on_c, 1, 64, 39
2, 29264154, Note_on_c, 1, 48, 0
2, 29284707, Note_on_c, 1, 48, 34
2, 29306227, Note_on_c, 1, 49, 0
2, 29308566, Note_on_c, 1, 49, 33
2, 29322701, Note_on_c, 1, 49, 0
2, 29349624, Note_on_c, 1, 49, 33
2, 29362949, Note_on_c, 1, 49, 0
2, 29364004, Note_on_c, 1, 49, 35
2, 29377404, Note_on_c, 1, 82, 0
2, 29403015, Note_on_c, 1, 79, 0
2, 29428626, Note_on_c, 1, 79, 46
2, 29455052, Note_on_c, 1, 82, 46
2, 29481478, Note_on_c, 1, 76, 0
2, 29507904, Note_on_c, 1, 79, 0
2, 29531290, Note_on_c, 1, 79, 46
2, 29561564, Note_on_c, 1, 76, 46
2, 29591838, Note_on_c, 1, 76, 0
2, 29622112, Note_on_c, 1, 79, 0
2, 29649320, Note_on_c, 1, 79, 42
2, 29679550, Note_on_c, 1, 76, 42
2, 29709780, Note_on_c, 1, 79, 0
2, 29740010, Note_on_c, 1, 76, 0
2, 29770240, Note_on_c, 1, 76, 46
2, 29800999, Note_on_c, 1, 79, 46
2, 29825638, Note_on_c, 1, 48, 0
2, 29852618, Note_on_c, 1, 48, 36
2, 29880389, Note_on_c, 1, 49, 0
2, 29910663, Note_on_c, 1, 49, 35
2, 29913583, Note_on_c, 1, 49, 0
2, 29942830, Note_on_c, 1, 49, 35
2, 29969565, Note_on_c, 1, 49, 0
2, 29997061, Note_on_c, 1, 49, 37
2, 30012951, Note_on_c, 1, 82, 0
2, 30027885, Note_on_c, 1, 82, 57
2, 30043616, Note_on_c, 1, 79, 0
2, 30055154, Note_on_c, 1, 79, 56
2, 30083839, Note_on_c, 1, 76, 0
2, 30091625, Note_on_c, 1, 76, 63
2, 30093484, Note_on_c, 1, 79, 0
2, 30099977, Note_on_c, 1, 79, 58
2, 30113668, Note_on_c, 1, 82, 0
2, 30146197, Note_on_c, 1, 82, 65
2, 30171579, Note_on_c, 1, 76, 0
2, 30195923, Note_on_c, 1, 76, 60
2, 30199837, Note_on_c, 1, 79, 0
2, 30214686, Note_on_c, 1, 79, 70
2, 30229641, Note_on_c, 1, 76, 0
2, 30233587, Note_on_c, 1, 76, 66
2, 30259457, Note_on_c, 1, 72, 0
2, 30284137, Note_on_c, 1, 72, 70
2, 30287776, Note_on_c, 1, 76, 0
2, 30301450, Note_on_c, 1, 76, 66
2, 30307860, Note_on_c, 1, 79, 0
2, 30314270, Note_on_c, 1, 79, 70
2, 30320761, Note_on_c, 1, 76, 0
2, 30336455, Note_on_c, 1, 76, 66
2, 30345712, Note_on_c, 1, 72, 0
2, 30354969, Note_on_c, 1, 72, 73
2, 30364307, Note_on_c, 1, 70, 0
2, 30385658, Note_on_c, 1, 70, 69
2, 30397751, Note_on_c, 1, 67, 0
2, 30409844, Note_on_c, 1, 67, 73
2, 30422145, Note_on_c, 1, 64, 0
2, 30454221, Note_on_c, 1, 64, 71
2, 30474204, Note_on_c, 1, 60, 0
2, 30478929, Note_on_c, 1, 60, 71
2, 30496594, Note_on_c, 1, 58, 0
2, 30514259, Note_on_c, 1, 58, 71
2, 30532004, Note_on_c, 1, 55, 0
2, 30532320, Note_on_c, 1, 55, 76
2, 30547739, Note_on_c, 1, 52, 0
2, 30576192, Note_on_c, 1, 52, 68
2, 30589280, Note_on_c, 1, 48, 0
2, 30613092, Note_on_c, 1, 48, 70
2, 30623715, Note_on_c, 1, 46, 0
2, 30634338, Note_on_c, 1, 46, 67
2, 30645170, Note_on_c, 1, 43, 0
2, 30664407, Note_on_c, 1, 43, 70
2, 30672893, Note_on_c, 1, 40, 0
2, 30687333, Note_on_c, 1, 40, 67
2, 30693341, Note_on_c, 1, 36, 0
2, 30699349, Note_on_c, 1, 36, 75
2, 30705566, Note_on_c, 1, 40, 0
2, 30720687, Note_on_c, 1, 40, 70
2, 30729672, Note_on_c, 1, 43, 0
2, 30738657, Note_on_c, 1, 43, 70
2, 30747723, Note_on_c, 1, 46, 0
2, 30768536, Note_on_c, 1, 46, 70
2, 30780364, Note_on_c, 1, 48, 0
2, 30792192, Note_on_c, 1, 48, 71
2, 30804228, Note_on_c, 1, 52, 0
2, 30830716, Note_on_c, 1, 52, 69
2, 30845376, Note_on_c, 1, 55, 0
2, 30860036, Note_on_c, 1, 55, 74
2, 30874905, Note_on_c, 1, 58, 0
2, 30907180, Note_on_c, 1, 58, 69
2, 30924666, Note_on_c, 1, 60, 0
2, 30942152, Note_on_c, 1, 60, 73
2, 30959847, Note_on_c, 1, 64, 0
2, 30962469, Note_on_c, 1, 64, 70
2, 30980244, Note_on_c, 1, 67, 0
2, 30998019, Note_on_c, 1, 67, 71
2, 31016002, Note_on_c, 1, 70, 0
2, 31033985, Note_on_c, 1, 70, 75
2, 31052176, Note_on_c, 1, 72, 0
2, 31070367, Note_on_c, 1, 72, 78
2, 31088638, Note_on_c, 1, 76, 0
2, 31106909, Note_on_c, 1, 76, 73
2, 31125389, Note_on_c, 1, 79, 0
2, 31132163, Note_on_c, 1, 79, 77
2, 31153252, Note_on_c, 1, 82, 0
2, 31176595, Note_on_c, 1, 82, 72
2, 31192828, Note_on_c, 1, 84, 0
2, 31223036, Note_on_c, 1, 84, 74
2, 31236936, Note_on_c, 1, 88, 0
2, 31238523, Note_on_c, 1, 88, 77
2, 31247527, Note_on_c, 1, 91, 0
2, 31262999, Note_on_c, 1, 91, 78
2, 31269521, Note_on_c, 1, 58, 0
2, 31276043, Note_on_c, 1, 94, 0
2, 31286645, Note_on_c, 1, 94, 73
2, 31290807, Note_on_c, 1, 88, 0
2, 31295736, Note_on_c, 1, 58, 74
2, 31327586, Note_on_c, 1, 88, 77
2, 31359436, Note_on_c, 1, 91, 0
2, 31391286, Note_on_c, 1, 55, 0
2, 31419781, Note_on_c, 1, 55, 74
2, 31449249, Note_on_c, 1, 91, 72
2, 31478717, Note_on_c, 1, 52, 0
2, 31493834, Note_on_c, 1, 52, 73
2, 31518178, Note_on_c, 1, 48, 0
2, 31531513, Note_on_c, 1, 48, 72
2, 31553327, Note_on_c, 1, 36, 0
2, 31561565, Note_on_c, 1, 36, 82
2, 31580840, Note_on_c, 1, 84, 0
2, 31594672, Note_on_c, 1, 84, 75
2, 31622082, Note_on_c, 1, 89, 0
2, 31647012, Note_on_c, 1, 89, 80
2, 31677328, Note_on_c, 1, 92, 0
2, 31693745, Note_on_c, 1, 92, 78
2, 31702709, Note_on_c, 1, 96, 0
2, 31732168, Note_on_c, 1, 96, 83
2, 31754781, Note_on_c, 1, 92, 0
2, 31764012, Note_on_c, 1, 92, 78
2, 31764600, Note_on_c, 1, 89, 0
2, 31794093, Note_on_c, 1, 89, 83
2, 31805176, Note_on_c, 1, 84, 0
2, 31836188, Note_on_c, 1, 84, 75
2, 31847480, Note_on_c, 1, 80, 0
2, 31858772, Note_on_c, 1, 80, 78
2, 31870145, Note_on_c, 1, 77, 0
2, 31895753, Note_on_c, 1, 77, 74
2, 31909887, Note_on_c, 1, 72, 0
2, 31924021, Note_on_c, 1, 72, 79
2, 31938364, Note_on_c, 1, 68, 0
2, 31969622, Note_on_c, 1, 68, 74
2, 31986591, Note_on_c, 1, 65, 0
2, 32003560, Note_on_c, 1, 65, 80
2, 32020738, Note_on_c, 1, 60, 0
2, 32024862, Note_on_c, 1, 60, 73
2, 32044656, Note_on_c, 1, 56, 0
2, 32064450, Note_on_c, 1, 56, 79
2, 32084453, Note_on_c, 1, 53, 0
2, 32099133, Note_on_c, 1, 53, 75
2, 32126785, Note_on_c, 1, 48, 0
2, 32146859, Note_on_c, 1, 48, 75
2, 32172204, Note_on_c, 1, 44, 0
2, 32197549, Note_on_c, 1, 44, 75
2, 32222974, Note_on_c, 1, 41, 0
2, 32238661, Note_on_c, 1, 41, 80
2, 32261771, Note_on_c, 1, 36, 0
2, 32272849, Note_on_c, 1, 36, 72
2, 32293638, Note_on_c, 1, 41, 0
2, 32300095, Note_on_c, 1, 41, 74
2, 32318558, Note_on_c, 1, 44, 0
2, 32337021, Note_on_c, 1, 44, 71
2, 32355565, Note_on_c, 1, 48, 0
2, 32357469, Note_on_c, 1, 48, 74
2, 32373678, Note_on_c, 1, 53, 0
2, 32403703, Note_on_c, 1, 53, 71
2, 32417573, Note_on_c, 1, 56, 0
2, 32431443, Note_on_c, 1, 56, 79
2, 32445394, Note_on_c, 1, 60, 0
2, 32475972, Note_on_c, 1, 60, 74
2, 32492680, Note_on_c, 1, 53, 0
2, 32509388, Note_on_c, 1, 53, 74
2, 32526305, Note_on_c, 1, 56, 0
2, 32537367, Note_on_c, 1, 56, 74
2, 32564360, Note_on_c, 1, 60, 0
2, 32583367, Note_on_c, 1, 60, 74
2, 32608047, Note_on_c, 1, 65, 0
2, 32622395, Note_on_c, 1, 65, 78
2, 32644757, Note_on_c, 1, 68, 0
2, 32671906, Note_on_c, 1, 68, 81
2, 32689402, Note_on_c, 1, 72, 0
2, 32722003, Note_on_c, 1, 72, 73
2, 32737162, Note_on_c, 1, 65, 0
2, 32742382, Note_on_c, 1, 65, 78
2, 32752635, Note_on_c, 1, 68, 0
2, 32770599, Note_on_c, 1, 68, 74
2, 32778364, Note_on_c, 1, 72, 0
2, 32794236, Note_on_c, 1, 72, 80
2, 32797053, Note_on_c, 1, 77, 0
2, 32800150, Note_on_c, 1, 77, 82
2, 32800458, Note_on_c, 1, 80, 0
2, 32831272, Note_on_c, 1, 80, 86
2, 32861833, Note_on_c, 1, 84, 0
2, 32880342, Note_on_c, 1, 84, 79
2, 32905769, Note_on_c, 1, 77, 0
2, 32921391, Note_on_c, 1, 77, 82
2, 32944281, Note_on_c, 1, 80, 0
2, 32972477, Note_on_c, 1, 80, 78
2, 32990188, Note_on_c, 1, 84, 0
2, 32990227, Note_on_c, 1, 84, 82
2, 33005379, Note_on_c, 1, 89, 0
2, 33018215, Note_on_c, 1, 89, 83
2, 33036194, Note_on_c, 1, 92, 0
2, 33037027, Note_on_c, 1, 92, 92
2, 33041125, Note_on_c, 1, 96, 0
2, 33044026, Note_on_c, 1, 96, 79
2, 33054602, Note_on_c, 1, 89, 0
2, 33065178, Note_on_c, 1, 89, 82
2, 33076020, Note_on_c, 1, 92, 0
2, 33086530, Note_on_c, 1, 92, 78
2, 33119082, Note_on_c, 1, 36, 0
2, 33137111, Note_on_c, 1, 36, 125
2, 33155573, Note_on_c, 1, 95, 0
2, 33155697, Note_on_c, 1, 95, 75
2, 33170606, Note_on_c, 1, 92, 0
2, 33198879, Note_on_c, 1, 92, 80
2, 33208648, Note_on_c, 1, 89, 0
2, 33211793, Note_on_c, 1, 89, 78
2, 33236380, Note_on_c, 1, 86, 0
2, 33262239, Note_on_c, 1, 86, 83
2, 33268400, Note_on_c, 1, 83, 0
2, 33282564, Note_on_c, 1, 83, 78
2, 33299835, Note_on_c, 1, 80, 0
2, 33330906, Note_on_c, 1, 80, 83
2, 33361893, Note_on_c, 1, 77, 0
2, 33381136, Note_on_c, 1, 77, 75
2, 33392493, Note_on_c, 1, 74, 0
2, 33393293, Note_on_c, 1, 74, 82
2, 33415069, Note_on_c, 1, 71, 0
2, 33422511, Note_on_c, 1, 71, 74
2, 33449429, Note_on_c, 1, 68, 0
2, 33473045, Note_on_c, 1, 68, 79
2, 33502564, Note_on_c, 1, 65, 0
2, 33531348, Note_on_c, 1, 65, 74
2, 33563461, Note_on_c, 1, 62, 0
2, 33569188, Note_on_c, 1, 62, 80
2, 33573617, Note_on_c, 1, 59, 0
2, 33584994, Note_on_c, 1, 59, 73
2, 33591995, Note_on_c, 1, 56, 0
2, 33608638, Note_on_c, 1, 56, 79
2, 33618204, Note_on_c, 1, 53, 0
2, 33639815, Note_on_c, 1, 53, 75
2, 33651939, Note_on_c, 1, 50, 0
2, 33676315, Note_on_c, 1, 50, 75
2, 33688646, Note_on_c, 1, 47, 0
2, 33710958, Note_on_c, 1, 47, 75
2, 33721018, Note_on_c, 1, 50, 0
2, 33738780, Note_on_c, 1, 50, 80
2, 33746561, Note_on_c, 1, 53, 0
2, 33759889, Note_on_c, 1, 53, 72
2, 33765387, Note_on_c, 1, 56, 0
2, 33774142, Note_on_c, 1, 56, 74
2, 33777479, Note_on_c, 1, 59, 0
2, 33781649, Note_on_c, 1, 59, 71
2, 33782690, Note_on_c, 1, 62, 0
2, 33815029, Note_on_c, 1, 62, 74
2, 33846535, Note_on_c, 1, 65, 0
2, 33874261, Note_on_c, 1, 65, 71
2, 33903457, Note_on_c, 1, 68, 0
2, 33926559, Note_on_c, 1, 68, 79
2, 33953441, Note_on_c, 1, 59, 0
2, 33981887, Note_on_c, 1, 59, 74
2, 33983504, Note_on_c, 1, 62, 0
2, 33989422, Note_on_c, 1, 62, 74
2, 33993621, Note_on_c, 1, 65, 0
2, 33997820, Note_on_c, 1, 65, 74
2, 34002227, Note_on_c, 1, 68, 0
2, 34013563, Note_on_c, 1, 68, 74
2, 34020545, Note_on_c, 1, 71, 0
2, 34027527, Note_on_c, 1, 71, 78
2, 34034717, Note_on_c, 1, 74, 0
2, 34051457, Note_on_c, 1, 74, 81
2, 34061214, Note_on_c, 1, 68, 0
2, 34083264, Note_on_c, 1, 68, 73
2, 34095584, Note_on_c, 1, 71, 0
2, 34107904, Note_on_c, 1, 71, 75
2, 34120303, Note_on_c, 1, 74, 0
2, 34142901, Note_on_c, 1, 74, 74
2, 34153152, Note_on_c, 1, 77, 0
2, 34163403, Note_on_c, 1, 77, 78
2, 34173734, Note_on_c, 1, 80, 0
2, 34184065, Note_on_c, 1, 80, 82
2, 34194603, Note_on_c, 1, 83, 0
2, 34205141, Note_on_c, 1, 83, 85
2, 34215759, Note_on_c, 1, 77, 0
2, 34226377, Note_on_c, 1, 77, 79
2, 34237202, Note_on_c, 1, 80, 0
2, 34256674, Note_on_c, 1, 80, 81
2, 34265220, Note_on_c, 1, 83, 0
2, 34280101, Note_on_c, 1, 83, 77
2, 34286361, Note_on_c, 1, 86, 0
2, 34298201, Note_on_c, 1, 86, 81
2, 34299791, Note_on_c, 1, 89, 0
2, 34300612, Note_on_c, 1, 89, 80
2, 34332664, Note_on_c, 1, 92, 0
2, 34356029, Note_on_c, 1, 92, 92
2, 34383243, Note_on_c, 1, 95, 0
2, 34402525, Note_on_c, 1, 95, 81
2, 34427415, Note_on_c, 1, 89, 0
2, 34429232, Note_on_c, 1, 89, 85
2, 34449244, Note_on_c, 1, 92, 0
2, 34453972, Note_on_c, 1, 92, 78
2, 34471638, Note_on_c, 1, 77, 0
2, 34484231, Note_on_c, 1, 77, 92
2, 34496849, Note_on_c, 1, 74, 0
2, 34519663, Note_on_c, 1, 74, 100
2, 34529914, Note_on_c, 1, 62, 0
2, 34550239, Note_on_c, 1, 62, 105
2, 34552801, Note_on_c, 1, 82, 0
2, 34582864, Note_on_c, 1, 82, 75
2, 34610604, Note_on_c, 1, 85, 0
2, 34611716, Note_on_c, 1, 85, 80
2, 34625636, Note_on_c, 1, 89, 0
2, 34657753, Note_on_c, 1, 89, 78
2, 34682865, Note_on_c, 1, 94, 0
2, 34710304, Note_on_c, 1, 94, 83
2, 34716053, Note_on_c, 1, 85, 0
2, 34738910, Note_on_c, 1, 85, 78
2, 34755311, Note_on_c, 1, 89, 0
2, 34764830, Note_on_c, 1, 89, 83
2, 34791509, Note_on_c, 1, 82, 0
2, 34803667, Note_on_c, 1, 82, 75
2, 34830555, Note_on_c, 1, 85, 0
2, 34857443, Note_on_c, 1, 85, 82
2, 34884412, Note_on_c, 1, 82, 0
2, 34908294, Note_on_c, 1, 82, 74
2, 34938002, Note_on_c, 1, 77, 0
2, 34967710, Note_on_c, 1, 77, 79
2, 34997499, Note_on_c, 1, 73, 0
2, 35026988, Note_on_c, 1, 73, 74
2, 35059510, Note_on_c, 1, 70, 0
2, 35092032, Note_on_c, 1, 70, 80
2, 35124634, Note_on_c, 1, 73, 0
2, 35126945, Note_on_c, 1, 73, 73
2, 35129374, Note_on_c, 1, 77, 0
2, 35131803, Note_on_c, 1, 77, 79
2, 35134441, Note_on_c, 1, 73, 0
2, 35147094, Note_on_c, 1, 73, 75
2, 35157189, Note_on_c, 1, 70, 0
2, 35175194, Note_on_c, 1, 70, 75
2, 35183131, Note_on_c, 1, 65, 0
2, 35191068, Note_on_c, 1, 65, 75
2, 35199085, Note_on_c, 1, 61, 0
2, 35212745, Note_on_c, 1, 61, 80
2, 35218469, Note_on_c, 1, 58, 0
2, 35227691, Note_on_c, 1, 58, 72
2, 35231115, Note_on_c, 1, 53, 0
2, 35235760, Note_on_c, 1, 53, 74
2, 35236880, Note_on_c, 1, 49, 0
2, 35238000, Note_on_c, 1, 49, 71
2, 35239328, Note_on_c, 1, 46, 0
2, 35239591, Note_on_c, 1, 46, 74
2, 35271375, Note_on_c, 1, 49, 0
2, 35299803, Note_on_c, 1, 49, 71
2, 35329269, Note_on_c, 1, 53, 0
2, 35358735, Note_on_c, 1, 53, 79
2, 35388282, Note_on_c, 1, 58, 0
2, 35417262, Note_on_c, 1, 58, 74
2, 35449544, Note_on_c, 1, 49, 0
2, 35481826, Note_on_c, 1, 49, 74
2, 35514189, Note_on_c, 1, 53, 0
2, 35516028, Note_on_c, 1, 53, 74
2, 35518352, Note_on_c, 1, 58, 0
2, 35520676, Note_on_c, 1, 58, 74
2, 35523081, Note_on_c, 1, 61, 0
2, 35530530, Note_on_c, 1, 61, 78
2, 35535655, Note_on_c, 1, 65, 0
2, 35540780, Note_on_c, 1, 65, 81
2, 35545985, Note_on_c, 1, 70, 0
2, 35566246, Note_on_c, 1, 70, 73
2, 35581382, Note_on_c, 1, 61, 0
2, 35596518, Note_on_c, 1, 61, 78
2, 35611733, Note_on_c, 1, 65, 0
2, 35626948, Note_on_c, 1, 65, 74
2, 35642371, Note_on_c, 1, 70, 0
2, 35657794, Note_on_c, 1, 70, 80
2, 35673424, Note_on_c, 1, 73, 0
2, 35689054, Note_on_c, 1, 73, 82
2, 35704764, Note_on_c, 1, 77, 0
2, 35720474, Note_on_c, 1, 77, 86
2, 35736391, Note_on_c, 1, 82, 0
2, 35752308, Note_on_c, 1, 82, 79
2, 35768305, Note_on_c, 1, 73, 0
2, 35784302, Note_on_c, 1, 73, 82
2, 35800506, Note_on_c, 1, 77, 0
2, 35830741, Note_on_c, 1, 77, 78
2, 35844671, Note_on_c, 1, 82, 0
2, 35870325, Note_on_c, 1, 82, 78
2, 35882102, Note_on_c, 1, 85, 0
2, 35910118, Note_on_c, 1, 85, 83
2, 35917104, Note_on_c, 1, 89, 0
2, 35930967, Note_on_c, 1, 89, 89
2, 35933137, Note_on_c, 1, 94, 0
2, 35935237, Note_on_c, 1, 94, 79
2, 35967861, Note_on_c, 1, 85, 0
2, 35993013, Note_on_c, 1, 85, 82
2, 36020781, Note_on_c, 1, 89, 0
2, 36031349, Note_on_c, 1, 89, 78
2, 36054232, Note_on_c, 1, 56, 0
2, 36082770, Note_on_c, 1, 56, 92
2, 36100740, Note_on_c, 1, 53, 0
2, 36101367, Note_on_c, 1, 53, 100
2, 36116847, Note_on_c, 1, 41, 0
2, 36123086, Note_on_c, 1, 41, 108
2, 36133611, Note_on_c, 1, 77, 0
2, 36144965, Note_on_c, 1, 77, 80
2, 36145997, Note_on_c, 1, 73, 0
2, 36162921, Note_on_c, 1, 73, 84
2, 36164787, Note_on_c, 1, 94, 0
2, 36177118, Note_on_c, 1, 94, 80
2, 36197662, Note_on_c, 1, 85, 0
2, 36220282, Note_on_c, 1, 85, 83
2, 36228803, Note_on_c, 1, 61, 0
2, 36237324, Note_on_c, 1, 89, 0
2, 36240495, Note_on_c, 1, 89, 81
2, 36245661, Note_on_c, 1, 61, 92
2, 36255193, Note_on_c, 1, 77, 0
2, 36286753, Note_on_c, 1, 77, 80
2, 36308869, Note_on_c, 1, 73, 0
2, 36319654, Note_on_c, 1, 73, 83
2, 36341171, Note_on_c, 1, 94, 0
2, 36362688, Note_on_c, 1, 94, 79
2, 36384284, Note_on_c, 1, 85, 0
2, 36405880, Note_on_c, 1, 85, 80
2, 36427683, Note_on_c, 1, 61, 0
2, 36449486, Note_on_c, 1, 89, 0
2, 36471289, Note_on_c, 1, 89, 79
2, 36493172, Note_on_c, 1, 61, 89
2, 36515262, Note_on_c, 1, 75, 0
2, 36540171, Note_on_c, 1, 75, 78
2, 36543077, Note_on_c, 1, 72, 0
2, 36568280, Note_on_c, 1, 72, 80
2, 36590657, Note_on_c, 1, 93, 0
2, 36613034, Note_on_c, 1, 93, 74
2, 36635618, Note_on_c, 1, 84, 0
2, 36658202, Note_on_c, 1, 84, 79
2, 36680993, Note_on_c, 1, 60, 0
2, 36703784, Note_on_c, 1, 87, 0
2, 36726575, Note_on_c, 1, 87, 74
2, 36749446, Note_on_c, 1, 60, 89
2, 36772524, Note_on_c, 1, 73, 0
2, 36790192, Note_on_c, 1, 73, 77
2, 36817638, Note_on_c, 1, 70, 0
2, 36835601, Note_on_c, 1, 70, 81
2, 36858966, Note_on_c, 1, 91, 0
2, 36882331, Note_on_c, 1, 91, 74
2, 36905903, Note_on_c, 1, 82, 0
2, 36929475, Note_on_c, 1, 82, 79
2, 36953126, Note_on_c, 1, 58, 0
2, 36976777, Note_on_c, 1, 85, 0
2, 37000428, Note_on_c, 1, 85, 78
2, 37024287, Note_on_c, 1, 58, 86
2, 37048353, Note_on_c, 1, 72, 0
2, 37054514, Note_on_c, 1, 72, 73
2, 37069463, Note_on_c, 1, 68, 0
2, 37075917, Note_on_c, 1, 68, 77
2, 37100270, Note_on_c, 1, 89, 0
2, 37124623, Note_on_c, 1, 89, 75
2, 37149055, Note_on_c, 1, 80, 0
2, 37173487, Note_on_c, 1, 80, 77
2, 37198126, Note_on_c, 1, 56, 0
2, 37222765, Note_on_c, 1, 84, 0
2, 37247404, Note_on_c, 1, 84, 75
2, 37272251, Note_on_c, 1, 56, 85
2, 37297177, Note_on_c, 1, 70, 0
2, 37315658, Note_on_c, 1, 70, 74
2, 37342070, Note_on_c, 1, 67, 0
2, 37363181, Note_on_c, 1, 67, 78
2, 37390855, Note_on_c, 1, 88, 0
2, 37418529, Note_on_c, 1, 88, 74
2, 37446282, Note_on_c, 1, 79, 0
2, 37474035, Note_on_c, 1, 79, 78
2, 37501995, Note_on_c, 1, 55, 0
2, 37529955, Note_on_c, 1, 82, 0
2, 37557915, Note_on_c, 1, 82, 74
2, 37586083, Note_on_c, 1, 55, 84
2, 37614330, Note_on_c, 1, 68, 0
2, 37616896, Note_on_c, 1, 68, 72
2, 37624070, Note_on_c, 1, 65, 0
2, 37626930, Note_on_c, 1, 65, 77
2, 37655463, Note_on_c, 1, 85, 0
2, 37683996, Note_on_c, 1, 85, 72
2, 37712736, Note_on_c, 1, 77, 0
2, 37741476, Note_on_c, 1, 77, 73
2, 37770423, Note_on_c, 1, 53, 0
2, 37799370, Note_on_c, 1, 80, 0
2, 37828317, Note_on_c, 1, 80, 69
2, 37857343, Note_on_c, 1, 53, 83
2, 37886576, Note_on_c, 1, 67, 0
2, 37914559, Note_on_c, 1, 67, 73
2, 37946165, Note_on_c, 1, 64, 0
2, 37974444, Note_on_c, 1, 64, 77
2, 38003964, Note_on_c, 1, 84, 0
2, 38033484, Note_on_c, 1, 84, 70
2, 38063211, Note_on_c, 1, 76, 0
2, 38092938, Note_on_c, 1, 76, 73
2, 38122744, Note_on_c, 1, 52, 0
2, 38152550, Note_on_c, 1, 79, 0
2, 38182356, Note_on_c, 1, 79, 71
2, 38203720, Note_on_c, 1, 52, 80
2, 38227865, Note_on_c, 1, 65, 0
2, 38243809, Note_on_c, 1, 65, 71
2, 38268462, Note_on_c, 1, 61, 0
2, 38285981, Note_on_c, 1, 61, 77
2, 38311695, Note_on_c, 1, 82, 0
2, 38337409, Note_on_c, 1, 82, 70
2, 38363331, Note_on_c, 1, 73, 0
2, 38389253, Note_on_c, 1, 73, 68
2, 38415382, Note_on_c, 1, 49, 0
2, 38441511, Note_on_c, 1, 77, 0
2, 38467640, Note_on_c, 1, 77, 71
2, 38493849, Note_on_c, 1, 49, 81
2, 38520265, Note_on_c, 1, 63, 0
2, 38544403, Note_on_c, 1, 63, 67
2, 38574982, Note_on_c, 1, 60, 0
2, 38599417, Note_on_c, 1, 60, 71
2, 38626120, Note_on_c, 1, 81, 0
2, 38652823, Note_on_c, 1, 81, 69
2, 38679734, Note_on_c, 1, 72, 0
2, 38706645, Note_on_c, 1, 72, 73
2, 38733635, Note_on_c, 1, 48, 0
2, 38760625, Note_on_c, 1, 75, 0
2, 38787615, Note_on_c, 1, 75, 69
2, 38814813, Note_on_c, 1, 48, 78
2, 38842219, Note_on_c, 1, 61, 0
2, 38847955, Note_on_c, 1, 61, 64
2, 38859268, Note_on_c, 1, 58, 0
2, 38870086, Note_on_c, 1, 58, 69
2, 38902438, Note_on_c, 1, 79, 0
2, 38934790, Note_on_c, 1, 79, 67
2, 38967349, Note_on_c, 1, 70, 0
2, 38999908, Note_on_c, 1, 70, 69
2, 39032546, Note_on_c, 1, 46, 0
2, 39065184, Note_on_c, 1, 73, 0
2, 39097822, Note_on_c, 1, 73, 64
2, 39097899, Note_on_c, 1, 46, 77
2, 39098183, Note_on_c, 1, 60, 0
2, 39101377, Note_on_c, 1, 60, 61
2, 39104503, Note_on_c, 1, 56, 0
2, 39105795, Note_on_c, 1, 56, 69
2, 39136808, Note_on_c, 1, 77, 0
2, 39167821, Note_on_c, 1, 77, 64
2, 39198913, Note_on_c, 1, 68, 0
2, 39230005, Note_on_c, 1, 68, 69
2, 39261305, Note_on_c, 1, 44, 0
2, 39292605, Note_on_c, 1, 72, 0
2, 39323905, Note_on_c, 1, 72, 64
2, 39355412, Note_on_c, 1, 44, 75
2, 39386998, Note_on_c, 1, 79, 0
2, 39406712, Note_on_c, 1, 79, 73
2, 39429795, Note_on_c, 1, 70, 0
2, 39452878, Note_on_c, 1, 70, 73
2, 39476041, Note_on_c, 1, 76, 0
2, 39499204, Note_on_c, 1, 76, 75
2, 39522575, Note_on_c, 1, 67, 0
2, 39545946, Note_on_c, 1, 67, 86
2, 39569606, Note_on_c, 1, 64, 0
2, 39571758, Note_on_c, 1, 64, 73
2, 39583105, Note_on_c, 1, 58, 0
2, 39615742, Note_on_c, 1, 58, 80
2, 39637113, Note_on_c, 1, 76, 0
2, 39654103, Note_on_c, 1, 76, 72
2, 39665466, Note_on_c, 1, 67, 0
2, 39695489, Note_on_c, 1, 67, 77
2, 39699086, Note_on_c, 1, 43, 0
2, 39702683, Note_on_c, 1, 55, 0
2, 39706280, Note_on_c, 1, 70, 0
2, 39709119, Note_on_c, 1, 70, 80
2, 39736089, Note_on_c, 1, 55, 101
2, 39738978, Note_on_c, 1, 43, 101
2, 39741867, Note_on_c, 1, 77, 0
2, 39769597, Note_on_c, 1, 77, 73
2, 39794538, Note_on_c, 1, 68, 0
2, 39819479, Note_on_c, 1, 68, 71
2, 39844628, Note_on_c, 1, 73, 0
2, 39869777, Note_on_c, 1, 73, 75
2, 39895134, Note_on_c, 1, 65, 0
2, 39920491, Note_on_c, 1, 65, 86
2, 39946137, Note_on_c, 1, 61, 0
2, 39952348, Note_on_c, 1, 61, 73
2, 39965769, Note_on_c, 1, 56, 0
2, 39969701, Note_on_c, 1, 56, 80
2, 39993060, Note_on_c, 1, 73, 0
2, 40019765, Note_on_c, 1, 73, 72
2, 40033129, Note_on_c, 1, 65, 0
2, 40038275, Note_on_c, 1, 65, 77
2, 40043753, Note_on_c, 1, 53, 0
2, 40049231, Note_on_c, 1, 41, 0
2, 40054709, Note_on_c, 1, 68, 0
2, 40063457, Note_on_c, 1, 68, 73
2, 40064089, Note_on_c, 1, 41, 101
2, 40069501, Note_on_c, 1, 53, 101
2, 40074913, Note_on_c, 1, 76, 0
2, 40076471, Note_on_c, 1, 76, 73
2, 40103398, Note_on_c, 1, 67, 0
2, 40130325, Note_on_c, 1, 67, 72
2, 40157332, Note_on_c, 1, 72, 0
2, 40184339, Note_on_c, 1, 72, 75
2, 40211554, Note_on_c, 1, 64, 0
2, 40238769, Note_on_c, 1, 64, 82
2, 40266272, Note_on_c, 1, 60, 0
2, 40276541, Note_on_c, 1, 60, 73
2, 40292163, Note_on_c, 1, 55, 0
2, 40300157, Note_on_c, 1, 55, 80
2, 40325505, Note_on_c, 1, 72, 0
2, 40329159, Note_on_c, 1, 72, 72
2, 40344523, Note_on_c, 1, 64, 0
2, 40357434, Note_on_c, 1, 64, 77
2, 40364921, Note_on_c, 1, 52, 0
2, 40372408, Note_on_c, 1, 40, 0
2, 40379895, Note_on_c, 1, 67, 0
2, 40394551, Note_on_c, 1, 67, 75
2, 40401742, Note_on_c, 1, 40, 101
2, 40409549, Note_on_c, 1, 52, 101
2, 40417356, Note_on_c, 1, 73, 0
2, 40425382, Note_on_c, 1, 73, 73
2, 40454167, Note_on_c, 1, 65, 0
2, 40482952, Note_on_c, 1, 65, 72
2, 40511945, Note_on_c, 1, 70, 0
2, 40540938, Note_on_c, 1, 70, 75
2, 40570139, Note_on_c, 1, 61, 0
2, 40599340, Note_on_c, 1, 61, 84
2, 40628829, Note_on_c, 1, 58, 0
2, 40643029, Note_on_c, 1, 58, 73
2, 40660724, Note_on_c, 1, 53, 0
2, 40672780, Note_on_c, 1, 53, 78
2, 40699989, Note_on_c, 1, 70, 0
2, 40713359, Note_on_c, 1, 70, 72
2, 40730595, Note_on_c, 1, 61, 0
2, 40751396, Note_on_c, 1, 61, 77
2, 40760893, Note_on_c, 1, 37, 0
2, 40770390, Note_on_c, 1, 49, 0
2, 40779887, Note_on_c, 1, 65, 0
2, 40800452, Note_on_c, 1, 65, 74
2, 40803635, Note_on_c, 1, 49, 101
2, 40835439, Note_on_c, 1, 37, 101
2, 40867243, Note_on_c, 1, 96, 0
2, 40893909, Note_on_c, 1, 96, 83
2, 40916719, Note_on_c, 1, 87, 0
2, 40946240, Note_on_c, 1, 87, 77
2, 40954500, Note_on_c, 1, 93, 0
2, 40959946, Note_on_c, 1, 93, 83
2, 40988468, Note_on_c, 1, 84, 0
2, 41010343, Note_on_c, 1, 84, 85
2, 41039124, Note_on_c, 1, 81, 0
2, 41045617, Note_on_c, 1, 81, 74
2, 41056185, Note_on_c, 1, 75, 0
2, 41065669, Note_on_c, 1, 75, 80
2, 41097433, Note_on_c, 1, 93, 0
2, 41129197, Note_on_c, 1, 93, 74
2, 41161041, Note_on_c, 1, 84, 0
2, 41192885, Note_on_c, 1, 84, 80
2, 41224937, Note_on_c, 1, 81, 0
2, 41256989, Note_on_c, 1, 87, 0
2, 41289041, Note_on_c, 1, 87, 74
2, 41321301, Note_on_c, 1, 81, 84
2, 41353641, Note_on_c, 1, 75, 0
2, 41376986, Note_on_c, 1, 75, 73
2, 41400846, Note_on_c, 1, 72, 0
2, 41429640, Note_on_c, 1, 72, 75
2, 41434782, Note_on_c, 1, 87, 0
2, 41439924, Note_on_c, 1, 87, 73
2, 41445145, Note_on_c, 1, 81, 0
2, 41450366, Note_on_c, 1, 81, 75
2, 41455795, Note_on_c, 1, 75, 0
2, 41461224, Note_on_c, 1, 84, 0
2, 41466653, Note_on_c, 1, 84, 71
2, 41472290, Note_on_c, 1, 75, 85
2, 41478006, Note_on_c, 1, 72, 0
2, 41499368, Note_on_c, 1, 72, 73
2, 41515102, Note_on_c, 1, 69, 0
2, 41536888, Note_on_c, 1, 69, 75
2, 41542892, Note_on_c, 1, 84, 0
2, 41548896, Note_on_c, 1, 84, 72
2, 41555107, Note_on_c, 1, 75, 0
2, 41561318, Note_on_c, 1, 75, 77
2, 41567737, Note_on_c, 1, 72, 0
2, 41574156, Note_on_c, 1, 81, 0
2, 41580575, Note_on_c, 1, 81, 75
2, 41587074, Note_on_c, 1, 72, 82
2, 41593780, Note_on_c, 1, 69, 0
2, 41617172, Note_on_c, 1, 69, 71
2, 41634074, Note_on_c, 1, 63, 0
2, 41657890, Note_on_c, 1, 63, 77
2, 41664884, Note_on_c, 1, 81, 0
2, 41671878, Note_on_c, 1, 81, 72
2, 41679079, Note_on_c, 1, 72, 0
2, 41686280, Note_on_c, 1, 72, 80
2, 41693561, Note_on_c, 1, 69, 0
2, 41700842, Note_on_c, 1, 75, 0
2, 41708123, Note_on_c, 1, 75, 75
2, 41715612, Note_on_c, 1, 69, 84
2, 41723308, Note_on_c, 1, 63, 0
2, 41751800, Note_on_c, 1, 63, 73
2, 41772811, Note_on_c, 1, 60, 0
2, 41796454, Note_on_c, 1, 60, 78
2, 41799294, Note_on_c, 1, 75, 0
2, 41802134, Note_on_c, 1, 75, 74
2, 41805054, Note_on_c, 1, 69, 0
2, 41807974, Note_on_c, 1, 69, 80
2, 41811102, Note_on_c, 1, 63, 0
2, 41814230, Note_on_c, 1, 72, 0
2, 41817358, Note_on_c, 1, 72, 74
2, 41820694, Note_on_c, 1, 63, 86
2, 41824110, Note_on_c, 1, 60, 0
2, 41840284, Note_on_c, 1, 60, 73
2, 41853130, Note_on_c, 1, 57, 0
2, 41869601, Note_on_c, 1, 57, 78
2, 41873306, Note_on_c, 1, 72, 0
2, 41877011, Note_on_c, 1, 72, 73
2, 41880924, Note_on_c, 1, 63, 0
2, 41884837, Note_on_c, 1, 63, 78
2, 41888958, Note_on_c, 1, 60, 0
2, 41893079, Note_on_c, 1, 69, 0
2, 41897200, Note_on_c, 1, 69, 75
2, 41901401, Note_on_c, 1, 60, 89
2, 41905810, Note_on_c, 1, 57, 0
2, 41936119, Note_on_c, 1, 57, 73
2, 41962235, Note_on_c, 1, 51, 0
2, 41990411, Note_on_c, 1, 51, 80
2, 41992552, Note_on_c, 1, 69, 0
2, 42012021, Note_on_c, 1, 69, 72
2, 42037130, Note_on_c, 1, 60, 0
2, 42056599, Note_on_c, 1, 60, 77
2, 42073877, Note_on_c, 1, 48, 0
2, 42091155, Note_on_c, 1, 36, 0
2, 42108433, Note_on_c, 1, 63, 0
2, 42119994, Note_on_c, 1, 63, 80
2, 42151797, Note_on_c, 1, 36, 101
2, 42171572, Note_on_c, 1, 48, 101
2, 42191347, Note_on_c, 1, 94, 0
2, 42195991, Note_on_c, 1, 94, 84
2, 42227076, Note_on_c, 1, 85, 0
2, 42256893, Note_on_c, 1, 85, 79
2, 42273347, Note_on_c, 1, 90, 0
2, 42278501, Note_on_c, 1, 90, 82
2, 42282358, Note_on_c, 1, 82, 0
2, 42293745, Note_on_c, 1, 82, 83
2, 42297586, Note_on_c, 1, 78, 0
2, 42320241, Note_on_c, 1, 78, 74
2, 42339271, Note_on_c, 1, 73, 0
2, 42364905, Note_on_c, 1, 73, 75
2, 42371589, Note_on_c, 1, 90, 0
2, 42378273, Note_on_c, 1, 90, 74
2, 42385037, Note_on_c, 1, 82, 0
2, 42391801, Note_on_c, 1, 82, 80
2, 42398773, Note_on_c, 1, 78, 0
2, 42405745, Note_on_c, 1, 85, 0
2, 42412717, Note_on_c, 1, 85, 74
2, 42419897, Note_on_c, 1, 78, 84
2, 42427157, Note_on_c, 1, 73, 0
2, 42433829, Note_on_c, 1, 73, 73
2, 42466096, Note_on_c, 1, 70, 0
2, 42478193, Note_on_c, 1, 70, 75
2, 42490999, Note_on_c, 1, 85, 0
2, 42503805, Note_on_c, 1, 85, 73
2, 42516691, Note_on_c, 1, 78, 0
2, 42529577, Note_on_c, 1, 78, 75
2, 42542670, Note_on_c, 1, 73, 0
2, 42555763, Note_on_c, 1, 82, 0
2, 42568856, Note_on_c, 1, 82, 71
2, 42582029, Note_on_c, 1, 73, 81
2, 42595410, Note_on_c, 1, 70, 0
2, 42600117, Note_on_c, 1, 70, 74
2, 42624299, Note_on_c, 1, 66, 0
2, 42629429, Note_on_c, 1, 66, 75
2, 42643097, Note_on_c, 1, 82, 0
2, 42656765, Note_on_c, 1, 82, 72
2, 42670641, Note_on_c, 1, 73, 0
2, 42684517, Note_on_c, 1, 73, 77
2, 42698600, Note_on_c, 1, 70, 0
2, 42712683, Note_on_c, 1, 78, 0
2, 42726766, Note_on_c, 1, 78, 74
2, 42740929, Note_on_c, 1, 70, 81
2, 42755300, Note_on_c, 1, 66, 0
2, 42762037, Note_on_c, 1, 66, 71
2, 42787387, Note_on_c, 1, 61, 0
2, 42794419, Note_on_c, 1, 61, 77
2, 42809077, Note_on_c, 1, 78, 0
2, 42823735, Note_on_c, 1, 78, 72
2, 42838601, Note_on_c, 1, 70, 0
2, 42853467, Note_on_c, 1, 70, 80
2, 42868413, Note_on_c, 1, 66, 0
2, 42883359, Note_on_c, 1, 73, 0
2, 42898305, Note_on_c, 1, 73, 75
2, 42913458, Note_on_c, 1, 66, 84
2, 42928819, Note_on_c, 1, 61, 0
2, 42940642, Note_on_c, 1, 61, 73
2, 42970088, Note_on_c, 1, 58, 0
2, 42977085, Note_on_c, 1, 58, 78
2, 42987613, Note_on_c, 1, 73, 0
2, 42998141, Note_on_c, 1, 73, 74
2, 43008749, Note_on_c, 1, 66, 0
2, 43019357, Note_on_c, 1, 66, 80
2, 43030173, Note_on_c, 1, 61, 0
2, 43040989, Note_on_c, 1, 70, 0
2, 43051805, Note_on_c, 1, 70, 74
2, 43062829, Note_on_c, 1, 61, 86
2, 43073933, Note_on_c, 1, 58, 0
2, 43106271, Note_on_c, 1, 58, 73
2, 43127593, Note_on_c, 1, 54, 0
2, 43160227, Note_on_c, 1, 54, 75
2, 43171748, Note_on_c, 1, 70, 0
2, 43183269, Note_on_c, 1, 70, 73
2, 43194870, Note_on_c, 1, 61, 0
2, 43206471, Note_on_c, 1, 61, 78
2, 43218280, Note_on_c, 1, 58, 0
2, 43230089, Note_on_c, 1, 66, 0
2, 43241898, Note_on_c, 1, 66, 75
2, 43253787, Note_on_c, 1, 58, 86
2, 43265884, Note_on_c, 1, 54, 0
2, 43279534, Note_on_c, 1, 54, 69
2, 43281174, Note_on_c, 1, 49, 0
2, 43292702, Note_on_c, 1, 49, 75
2, 43302542, Note_on_c, 1, 66, 0
2, 43327979, Note_on_c, 1, 66, 72
2, 43328065, Note_on_c, 1, 58, 0
2, 43346073, Note_on_c, 1, 58, 77
2, 43371259, Note_on_c, 1, 34, 0
2, 43396445, Note_on_c, 1, 46, 0
2, 43421631, Note_on_c, 1, 61, 0
2, 43424058, Note_on_c, 1, 61, 80
2, 43449410, Note_on_c, 1, 46, 101
2, 43454647, Note_on_c, 1, 34, 101
2, 43459884, Note_on_c, 1, 89, 0
2, 43465121, Note_on_c, 1, 60, 0
2, 43470358, Note_on_c, 1, 68, 0
2, 43475595, Note_on_c, 1, 65, 0
2, 43480832, Note_on_c, 1, 77, 0
2, 43510379, Note_on_c, 1, 77, 70
2, 43534806, Note_on_c, 1, 89, 82
2, 43559233, Note_on_c, 1, 92, 0
2, 43583660, Note_on_c, 1, 80, 0
2, 43583743, Note_on_c, 1, 68, 54
2, 43592257, Note_on_c, 1, 65, 43
2, 43600771, Note_on_c, 1, 60, 43
2, 43609285, Note_on_c, 1, 56, 0
2, 43617799, Note_on_c, 1, 56, 52
2, 43626621, Note_on_c, 1, 68, 0
2, 43635443, Note_on_c, 1, 60, 0
2, 43644265, Note_on_c, 1, 65, 0
2, 43669477, Note_on_c, 1, 65, 43
2, 43686167, Note_on_c, 1, 68, 57
2, 43702857, Note_on_c, 1, 60, 43
2, 43719547, Note_on_c, 1, 80, 74
2, 43736237, Note_on_c, 1, 92, 88
2, 43752927, Note_on_c, 1, 92, 0
2, 43769617, Note_on_c, 1, 80, 0
2, 43786307, Note_on_c, 1, 56, 0
2, 43802997, Note_on_c, 1, 56, 50
2, 43819987, Note_on_c, 1, 68, 0
2, 43836977, Note_on_c, 1, 65, 0
2, 43853967, Note_on_c, 1, 60, 0
2, 43870957, Note_on_c, 1, 60, 45
2, 43888376, Note_on_c, 1, 68, 56
2, 43905795, Note_on_c, 1, 65, 45
2, 43923214, Note_on_c, 1, 56, 0
2, 43940633, Note_on_c, 1, 56, 51
2, 43958352, Note_on_c, 1, 68, 0
2, 43976071, Note_on_c, 1, 65, 0
2, 43993790, Note_on_c, 1, 60, 0
2, 44011509, Note_on_c, 1, 60, 43
2, 44029528, Note_on_c, 1, 68, 54
2, 44047547, Note_on_c, 1, 65, 43
2, 44065566, Note_on_c, 1, 56, 0
2, 44083585, Note_on_c, 1, 56, 49
2, 44102033, Note_on_c, 1, 68, 0
2, 44120481, Note_on_c, 1, 65, 0
2, 44138929, Note_on_c, 1, 60, 0
2, 44157377, Note_on_c, 1, 60, 44
2, 44176125, Note_on_c, 1, 68, 55
2, 44194873, Note_on_c, 1, 65, 44
2, 44213621, Note_on_c, 1, 80, 81
2, 44232369, Note_on_c, 1, 92, 96
2, 44251117, Note_on_c, 1, 89, 0
2, 44269865, Note_on_c, 1, 77, 0
2, 44288613, Note_on_c, 1, 56, 0
2, 44319097, Note_on_c, 1, 56, 53
2, 44331000, Note_on_c, 1, 65, 0
2, 44342903, Note_on_c, 1, 60, 0
2, 44354806, Note_on_c, 1, 68, 0
2, 44366709, Note_on_c, 1, 68, 49
2, 44379036, Note_on_c, 1, 65, 38
2, 44391363, Note_on_c, 1, 60, 38
2, 44403690, Note_on_c, 1, 56, 0
2, 44416017, Note_on_c, 1, 56, 56
2, 44428639, Note_on_c, 1, 77, 75
2, 44441261, Note_on_c, 1, 89, 89
2, 44453883, Note_on_c, 1, 76, 0
2, 44466505, Note_on_c, 1, 61, 0
2, 44479127, Note_on_c, 1, 67, 0
2, 44491749, Note_on_c, 1, 64, 0
2, 44504371, Note_on_c, 1, 88, 0
2, 44514151, Note_on_c, 1, 88, 82
2, 44544194, Note_on_c, 1, 76, 70
2, 44574237, Note_on_c, 1, 79, 0
2, 44604280, Note_on_c, 1, 91, 0
2, 44610231, Note_on_c, 1, 67, 54
2, 44618994, Note_on_c, 1, 64, 43
2, 44627757, Note_on_c, 1, 61, 43
2, 44636520, Note_on_c, 1, 58, 0
2, 44645283, Note_on_c, 1, 58, 52
2, 44654349, Note_on_c, 1, 67, 0
2, 44663415, Note_on_c, 1, 61, 0
2, 44672481, Note_on_c, 1, 64, 0
2, 44702181, Note_on_c, 1, 64, 43
2, 44722987, Note_on_c, 1, 67, 57
2, 44743793, Note_on_c, 1, 61, 43
2, 44764599, Note_on_c, 1, 91, 88
2, 44785405, Note_on_c, 1, 79, 74
2, 44806211, Note_on_c, 1, 79, 0
2, 44827017, Note_on_c, 1, 91, 0
2, 44847823, Note_on_c, 1, 58, 0
2, 44868629, Note_on_c, 1, 58, 48
2, 44889736, Note_on_c, 1, 67, 0
2, 44910843, Note_on_c, 1, 64, 0
2, 44931950, Note_on_c, 1, 61, 0
2, 44953057, Note_on_c, 1, 61, 43
2, 44974592, Note_on_c, 1, 67, 54
2, 44996127, Note_on_c, 1, 64, 43
2, 45017662, Note_on_c, 1, 58, 0
2, 45039197, Note_on_c, 1, 58, 49
2, 45061032, Note_on_c, 1, 67, 0
2, 45082867, Note_on_c, 1, 61, 0
2, 45104702, Note_on_c, 1, 64, 0
2, 45126537, Note_on_c, 1, 64, 41
2, 45148673, Note_on_c, 1, 67, 52
2, 45170809, Note_on_c, 1, 61, 41
2, 45192945, Note_on_c, 1, 58, 0
2, 45215081, Note_on_c, 1, 58, 47
2, 45237645, Note_on_c, 1, 67, 0
2, 45260209, Note_on_c, 1, 61, 0
2, 45282773, Note_on_c, 1, 64, 0
2, 45305337, Note_on_c, 1, 64, 42
2, 45328201, Note_on_c, 1, 67, 53
2, 45351065, Note_on_c, 1, 61, 42
2, 45373929, Note_on_c, 1, 91, 93
2, 45396793, Note_on_c, 1, 79, 79
2, 45419657, Note_on_c, 1, 88, 0
2, 45442521, Note_on_c, 1, 76, 0
2, 45465385, Note_on_c, 1, 58, 0
2, 45471274, Note_on_c, 1, 58, 51
2, 45487235, Note_on_c, 1, 64, 0
2, 45503196, Note_on_c, 1, 67, 0
2, 45519157, Note_on_c, 1, 61, 0
2, 45535118, Note_on_c, 1, 61, 37
2, 45551502, Note_on_c, 1, 64, 37
2, 45567886, Note_on_c, 1, 67, 47
2, 45584270, Note_on_c, 1, 58, 0
2, 45600654, Note_on_c, 1, 58, 54
2, 45617333, Note_on_c, 1, 76, 72
2, 45634012, Note_on_c, 1, 88, 85
2, 45650691, Note_on_c, 1, 77, 0
2, 45667370, Note_on_c, 1, 76, 0
2, 45684049, Note_on_c, 1, 72, 0
2, 45700728, Note_on_c, 1, 67, 0
2, 45717407, Note_on_c, 1, 89, 0
2, 45736732, Note_on_c, 1, 89, 79
2, 45739623, Note_on_c, 1, 77, 67
2, 45742514, Note_on_c, 1, 91, 0
2, 45745405, Note_on_c, 1, 79, 0
2, 45761114, Note_on_c, 1, 72, 41
2, 45774020, Note_on_c, 1, 67, 41
2, 45786926, Note_on_c, 1, 76, 52
2, 45799832, Note_on_c, 1, 64, 0
2, 45812738, Note_on_c, 1, 64, 50
2, 45826074, Note_on_c, 1, 67, 0
2, 45839410, Note_on_c, 1, 72, 0
2, 45852746, Note_on_c, 1, 76, 0
2, 45857936, Note_on_c, 1, 76, 55
2, 45882859, Note_on_c, 1, 67, 41
2, 45907782, Note_on_c, 1, 72, 41
2, 45932705, Note_on_c, 1, 79, 71
2, 45957628, Note_on_c, 1, 91, 84
2, 45982551, Note_on_c, 1, 88, 0
2, 46007474, Note_on_c, 1, 64, 0
2, 46032397, Note_on_c, 1, 64, 48
2, 46057748, Note_on_c, 1, 67, 0
2, 46083099, Note_on_c, 1, 72, 0
2, 46108450, Note_on_c, 1, 76, 0
2, 46133801, Note_on_c, 1, 76, 54
2, 46159452, Note_on_c, 1, 72, 43
2, 46185103, Note_on_c, 1, 67, 43
2, 46210754, Note_on_c, 1, 64, 0
2, 46236405, Note_on_c, 1, 64, 49
2, 46262357, Note_on_c, 1, 67, 0
2, 46288309, Note_on_c, 1, 76, 0
2, 46314261, Note_on_c, 1, 72, 0
2, 46340213, Note_on_c, 1, 72, 41
2, 46366593, Note_on_c, 1, 76, 52
2, 46392973, Note_on_c, 1, 67, 41
2, 46419353, Note_on_c, 1, 64, 0
2, 46445733, Note_on_c, 1, 64, 47
2, 46472413, Note_on_c, 1, 67, 0
2, 46499093, Note_on_c, 1, 76, 0
2, 46525773, Note_on_c, 1, 72, 0
2, 46552453, Note_on_c, 1, 72, 42
2, 46579434, Note_on_c, 1, 76, 53
2, 46606415, Note_on_c, 1, 67, 42
2, 46633396, Note_on_c, 1, 88, 97
2, 46660377, Note_on_c, 1, 84, 0
2, 46687358, Note_on_c, 1, 64, 0
2, 46701293, Note_on_c, 1, 64, 51
2, 46721311, Note_on_c, 1, 76, 0
2, 46741329, Note_on_c, 1, 72, 0
2, 46761347, Note_on_c, 1, 67, 0
2, 46781365, Note_on_c, 1, 67, 37
2, 46801678, Note_on_c, 1, 72, 37
2, 46821991, Note_on_c, 1, 76, 47
2, 46842304, Note_on_c, 1, 64, 0
2, 46862617, Note_on_c, 1, 64, 54
2, 46883354, Note_on_c, 1, 84, 85
2, 46904091, Note_on_c, 1, 74, 0
2, 46924828, Note_on_c, 1, 68, 0
2, 46945565, Note_on_c, 1, 71, 0
2, 46966302, Note_on_c, 1, 83, 0
2, 46995302, Note_on_c, 1, 83, 79
2, 47003809, Note_on_c, 1, 86, 0
2, 47023843, Note_on_c, 1, 71, 41
2, 47035458, Note_on_c, 1, 68, 41
2, 47047073, Note_on_c, 1, 74, 52
2, 47058688, Note_on_c, 1, 65, 0
2, 47070303, Note_on_c, 1, 65, 50
2, 47082349, Note_on_c, 1, 71, 0
2, 47094395, Note_on_c, 1, 68, 0
2, 47106441, Note_on_c, 1, 74, 0
2, 47114458, Note_on_c, 1, 74, 55
2, 47143497, Note_on_c, 1, 68, 41
2, 47172536, Note_on_c, 1, 71, 41
2, 47201575, Note_on_c, 1, 86, 84
2, 47230614, Note_on_c, 1, 86, 0
2, 47259653, Note_on_c, 1, 65, 0
2, 47288692, Note_on_c, 1, 65, 48
2, 47318159, Note_on_c, 1, 68, 0
2, 47347626, Note_on_c, 1, 71, 0
2, 47377093, Note_on_c, 1, 74, 0
2, 47406560, Note_on_c, 1, 74, 48
2, 47436328, Note_on_c, 1, 71, 36
2, 47466096, Note_on_c, 1, 68, 36
2, 47495864, Note_on_c, 1, 65, 0
2, 47525632, Note_on_c, 1, 65, 49
2, 47555700, Note_on_c, 1, 68, 0
2, 47585768, Note_on_c, 1, 74, 0
2, 47615836, Note_on_c, 1, 71, 0
2, 47645904, Note_on_c, 1, 71, 34
2, 47676400, Note_on_c, 1, 74, 44
2, 47706896, Note_on_c, 1, 68, 34
2, 47737392, Note_on_c, 1, 65, 0
2, 47767888, Note_on_c, 1, 65, 42
2, 47798685, Note_on_c, 1, 68, 0
2, 47829482, Note_on_c, 1, 74, 0
2, 47860279, Note_on_c, 1, 71, 0
2, 47891076, Note_on_c, 1, 71, 35
2, 47922173, Note_on_c, 1, 74, 44
2, 47953270, Note_on_c, 1, 68, 35
2, 47984367, Note_on_c, 1, 86, 95
2, 48015464, Note_on_c, 1, 83, 0
2, 48046561, Note_on_c, 1, 65, 0
2, 48071197, Note_on_c, 1, 65, 41
2, 48097671, Note_on_c, 1, 74, 0
2, 48124145, Note_on_c, 1, 71, 0
2, 48150619, Note_on_c, 1, 68, 0
2, 48177093, Note_on_c, 1, 68, 30
2, 48203990, Note_on_c, 1, 71, 30
2, 48230887, Note_on_c, 1, 74, 39
2, 48257784, Note_on_c, 1, 65, 0
2, 48284681, Note_on_c, 1, 65, 49
2, 48311873, Note_on_c, 1, 83, 85
2, 48339065, Note_on_c, 1, 75, 0
2, 48366257, Note_on_c, 1, 69, 0
2, 48393449, Note_on_c, 1, 72, 0
2, 48420641, Note_on_c, 1, 84, 0
2, 48431995, Note_on_c, 1, 84, 71
2, 48449166, Note_on_c, 1, 87, 0
2, 48469653, Note_on_c, 1, 72, 40
2, 48473061, Note_on_c, 1, 69, 40
2, 48476469, Note_on_c, 1, 75, 40
2, 48479877, Note_on_c, 1, 66, 0
2, 48483285, Note_on_c, 1, 66, 38
2, 48487134, Note_on_c, 1, 75, 0
2, 48490983, Note_on_c, 1, 69, 0
2, 48494832, Note_on_c, 1, 72, 0
2, 48503828, Note_on_c, 1, 72, 40
2, 48509275, Note_on_c, 1, 69, 40
2, 48514722, Note_on_c, 1, 75, 40
2, 48520169, Note_on_c, 1, 87, 80
2, 48525616, Note_on_c, 1, 84, 0
2, 48531063, Note_on_c, 1, 66, 0
2, 48559075, Note_on_c, 1, 66, 38
2, 48581936, Note_on_c, 1, 69, 0
2, 48604797, Note_on_c, 1, 75, 0
2, 48627658, Note_on_c, 1, 72, 0
2, 48650519, Note_on_c, 1, 72, 28
2, 48673676, Note_on_c, 1, 75, 37
2, 48696833, Note_on_c, 1, 69, 28
2, 48719990, Note_on_c, 1, 66, 0
2, 48726153, Note_on_c, 1, 66, 39
2, 48741833, Note_on_c, 1, 84, 75
2, 48757513, Note_on_c, 1, 77, 0
2, 48773193, Note_on_c, 1, 73, 0
2, 48788873, Note_on_c, 1, 68, 0
2, 48804553, Note_on_c, 1, 85, 0
2, 48820233, Note_on_c, 1, 85, 64
2, 48836141, Note_on_c, 1, 89, 0
2, 48863349, Note_on_c, 1, 68, 27
2, 48874738, Note_on_c, 1, 73, 27
2, 48886127, Note_on_c, 1, 77, 36
2, 48897516, Note_on_c, 1, 65, 0
2, 48908905, Note_on_c, 1, 65, 35
2, 48920727, Note_on_c, 1, 73, 0
2, 48932549, Note_on_c, 1, 68, 0
2, 48944371, Note_on_c, 1, 77, 0
2, 48953383, Note_on_c, 1, 77, 37
2, 48983643, Note_on_c, 1, 68, 29
2, 49013903, Note_on_c, 1, 73, 29
2, 49044163, Note_on_c, 1, 89, 74
2, 49074423, Note_on_c, 1, 85, 0
2, 49104683, Note_on_c, 1, 65, 0
2, 49112654, Note_on_c, 1, 65, 34
2, 49123425, Note_on_c, 1, 68, 0
2, 49134196, Note_on_c, 1, 73, 0
2, 49144967, Note_on_c, 1, 77, 0
2, 49155738, Note_on_c, 1, 77, 33
2, 49166802, Note_on_c, 1, 73, 26
2, 49177866, Note_on_c, 1, 68, 26
2, 49188930, Note_on_c, 1, 65, 0
2, 49199994, Note_on_c, 1, 65, 36
2, 49211350, Note_on_c, 1, 85, 71
2, 49222706, Note_on_c, 1, 68, 0
2, 49234062, Note_on_c, 1, 73, 0
2, 49245418, Note_on_c, 1, 80, 0
2, 49267217, Note_on_c, 1, 80, 62
2, 49277768, Note_on_c, 1, 77, 0
2, 49285530, Note_on_c, 1, 73, 35
2, 49315599, Note_on_c, 1, 68, 35
2, 49345668, Note_on_c, 1, 68, 0
2, 49375737, Note_on_c, 1, 68, 34
2, 49406242, Note_on_c, 1, 73, 0
2, 49436747, Note_on_c, 1, 68, 0
2, 49453494, Note_on_c, 1, 68, 36
2, 49472801, Note_on_c, 1, 73, 36
2, 49492108, Note_on_c, 1, 77, 68
2, 49511415, Note_on_c, 1, 80, 0
2, 49530722, Note_on_c, 1, 65, 0
2, 49550029, Note_on_c, 1, 65, 31
2, 49569762, Note_on_c, 1, 77, 0
2, 49589495, Note_on_c, 1, 68, 0
2, 49609228, Note_on_c, 1, 73, 0
2, 49628961, Note_on_c, 1, 73, 24
2, 49648991, Note_on_c, 1, 68, 24
2, 49669021, Note_on_c, 1, 77, 31
2, 49689051, Note_on_c, 1, 65, 0
2, 49709081, Note_on_c, 1, 65, 33
2, 49729409, Note_on_c, 1, 68, 0
2, 49749737, Note_on_c, 1, 77, 0
2, 49770065, Note_on_c, 1, 73, 0
2, 49790393, Note_on_c, 1, 73, 24
2, 49811146, Note_on_c, 1, 77, 31
2, 49831899, Note_on_c, 1, 68, 24
2, 49852652, Note_on_c, 1, 65, 0
2, 49873405, Note_on_c, 1, 65, 31
2, 49894456, Note_on_c, 1, 77, 0
2, 49915507, Note_on_c, 1, 73, 0
2, 49936558, Note_on_c, 1, 68, 0
2, 49957609, Note_on_c, 1, 68, 26
2, 49978957, Note_on_c, 1, 73, 26
2, 50000305, Note_on_c, 1, 77, 33
2, 50021653, Note_on_c, 1, 80, 59
2, 50043001, Note_on_c, 1, 85, 0
2, 50064349, Note_on_c, 1, 65, 0
2, 50065150, Note_on_c, 1, 65, 31
2, 50077536, Note_on_c, 1, 68, 0
2, 50089922, Note_on_c, 1, 77, 0
2, 50102308, Note_on_c, 1, 73, 0
2, 50114694, Note_on_c, 1, 73, 24
2, 50127500, Note_on_c, 1, 77, 30
2, 50140306, Note_on_c, 1, 68, 24
2, 50153112, Note_on_c, 1, 65, 0
2, 50165918, Note_on_c, 1, 65, 33
2, 50179017, Note_on_c, 1, 85, 66
2, 50192116, Note_on_c, 1, 66, 0
2, 50205215, Note_on_c, 1, 68, 0
2, 50218314, Note_on_c, 1, 75, 0
2, 50231413, Note_on_c, 1, 84, 0
2, 50256075, Note_on_c, 1, 84, 55
2, 50267874, Note_on_c, 1, 87, 0
2, 50281221, Note_on_c, 1, 75, 32
2, 50282859, Note_on_c, 1, 68, 25
2, 50284497, Note_on_c, 1, 66, 25
2, 50286135, Note_on_c, 1, 63, 0
2, 50287773, Note_on_c, 1, 63, 31
2, 50289847, Note_on_c, 1, 68, 0
2, 50291921, Note_on_c, 1, 66, 0
2, 50293995, Note_on_c, 1, 75, 0
2, 50309426, Note_on_c, 1, 75, 33
2, 50323082, Note_on_c, 1, 66, 26
2, 50336738, Note_on_c, 1, 68, 26
2, 50350394, Note_on_c, 1, 87, 66
2, 50364050, Note_on_c, 1, 84, 0
2, 50377706, Note_on_c, 1, 63, 0
2, 50389288, Note_on_c, 1, 63, 31
2, 50420278, Note_on_c, 1, 66, 0
2, 50451268, Note_on_c, 1, 68, 0
2, 50482258, Note_on_c, 1, 75, 0
2, 50513248, Note_on_c, 1, 75, 31
2, 50544534, Note_on_c, 1, 68, 24
2, 50575820, Note_on_c, 1, 66, 24
2, 50607106, Note_on_c, 1, 63, 0
2, 50630972, Note_on_c, 1, 63, 33
2, 50656353, Note_on_c, 1, 84, 63
2, 50681734, Note_on_c, 1, 68, 0
2, 50707115, Note_on_c, 1, 73, 0
2, 50732496, Note_on_c, 1, 65, 0
2, 50757877, Note_on_c, 1, 85, 0
2, 50783258, Note_on_c, 1, 85, 55
2, 50808868, Note_on_c, 1, 89, 0
2, 50824052, Note_on_c, 1, 65, 24
2, 50846610, Note_on_c, 1, 73, 31
2, 50869168, Note_on_c, 1, 68, 24
2, 50891726, Note_on_c, 1, 61, 0
2, 50914284, Note_on_c, 1, 61, 31
2, 50937146, Note_on_c, 1, 65, 0
2, 50960008, Note_on_c, 1, 68, 0
2, 50982870, Note_on_c, 1, 73, 0
2, 51013853, Note_on_c, 1, 73, 33
2, 51022147, Note_on_c, 1, 68, 26
2, 51030441, Note_on_c, 1, 65, 26
2, 51038735, Note_on_c, 1, 89, 62
2, 51047029, Note_on_c, 1, 85, 0
2, 51055323, Note_on_c, 1, 61, 0
2, 51079736, Note_on_c, 1, 61, 31
2, 51096148, Note_on_c, 1, 65, 0
2, 51112560, Note_on_c, 1, 68, 0
2, 51128972, Note_on_c, 1, 73, 0
2, 51145384, Note_on_c, 1, 73, 30
2, 51162089, Note_on_c, 1, 68, 24
2, 51178794, Note_on_c, 1, 65, 24
2, 51195499, Note_on_c, 1, 61, 0
2, 51206089, Note_on_c, 1, 61, 33
2, 51232770, Note_on_c, 1, 85, 66
2, 51259451, Note_on_c, 1, 65, 0
2, 51286132, Note_on_c, 1, 68, 0
2, 51312813, Note_on_c, 1, 73, 0
2, 51339494, Note_on_c, 1, 80, 0
2, 51368679, Note_on_c, 1, 80, 57
2, 51371300, Note_on_c, 1, 77, 0
2, 51396171, Note_on_c, 1, 73, 32
2, 51418512, Note_on_c, 1, 68, 25
2, 51440853, Note_on_c, 1, 65, 25
2, 51463194, Note_on_c, 1, 61, 0
2, 51485535, Note_on_c, 1, 61, 31
2, 51508188, Note_on_c, 1, 65, 0
2, 51530841, Note_on_c, 1, 73, 0
2, 51553494, Note_on_c, 1, 68, 0
2, 51578704, Note_on_c, 1, 68, 26
2, 51581563, Note_on_c, 1, 73, 33
2, 51584422, Note_on_c, 1, 65, 26
2, 51587281, Note_on_c, 1, 77, 62
2, 51590140, Note_on_c, 1, 61, 0
2, 51592999, Note_on_c, 1, 61, 31
2, 51596160, Note_on_c, 1, 65, 0
2, 51599321, Note_on_c, 1, 68, 0
2, 51602482, Note_on_c, 1, 73, 0
2, 51605643, Note_on_c, 1, 73, 31
2, 51609235, Note_on_c, 1, 68, 24
2, 51612827, Note_on_c, 1, 65, 24
2, 51616419, Note_on_c, 1, 61, 0
2, 51620011, Note_on_c, 1, 61, 33
2, 51623905, Note_on_c, 1, 65, 0
2, 51627799, Note_on_c, 1, 68, 0
2, 51631693, Note_on_c, 1, 73, 0
2, 51635587, Note_on_c, 1, 73, 31
2, 51639783, Note_on_c, 1, 68, 24
2, 51643979, Note_on_c, 1, 65, 24
2, 51648175, Note_on_c, 1, 61, 0
2, 51652371, Note_on_c, 1, 61, 31
2, 51656998, Note_on_c, 1, 65, 0
2, 51661625, Note_on_c, 1, 68, 0
2, 51666252, Note_on_c, 1, 73, 0
2, 51670879, Note_on_c, 1, 73, 33
2, 51675808, Note_on_c, 1, 68, 26
2, 51680737, Note_on_c, 1, 65, 26
2, 51685666, Note_on_c, 1, 61, 0
2, 51690595, Note_on_c, 1, 61, 31
2, 51695826, Note_on_c, 1, 68, 0
2, 51701057, Note_on_c, 1, 65, 0
2, 51706288, Note_on_c, 1, 89, 0
2, 51711519, Note_on_c, 1, 73, 0
2, 51716750, Note_on_c, 1, 73, 30
2, 51722412, Note_on_c, 1, 68, 24
2, 51728074, Note_on_c, 1, 65, 24
2, 51733736, Note_on_c, 1, 61, 0
2, 51765492, Note_on_c, 1, 61, 33
2, 51791898, Note_on_c, 1, 89, 55
2, 51818304, Note_on_c, 1, 87, 0
2, 51844710, Note_on_c, 1, 72, 0
2, 51853762, Note_on_c, 1, 72, 42
2, 51869406, Note_on_c, 1, 87, 39
2, 51885050, Note_on_c, 1, 68, 0
2, 51900694, Note_on_c, 1, 90, 0
2, 51928445, Note_on_c, 1, 90, 39
2, 51940770, Note_on_c, 1, 87, 0
2, 51953095, Note_on_c, 1, 87, 39
2, 51965510, Note_on_c, 1, 80, 0
2, 51977925, Note_on_c, 1, 80, 44
2, 51990558, Note_on_c, 1, 87, 0
2, 51997226, Note_on_c, 1, 87, 38
2, 52024117, Note_on_c, 1, 90, 0
2, 52051008, Note_on_c, 1, 68, 47
2, 52077987, Note_on_c, 1, 90, 45
2, 52104966, Note_on_c, 1, 84, 0
2, 52131945, Note_on_c, 1, 66, 0
2, 52134284, Note_on_c, 1, 66, 39
2, 52142508, Note_on_c, 1, 84, 38
2, 52150732, Note_on_c, 1, 63, 0
2, 52158956, Note_on_c, 1, 90, 0
2, 52180466, Note_on_c, 1, 90, 39
2, 52193842, Note_on_c, 1, 84, 0
2, 52207218, Note_on_c, 1, 84, 38
2, 52220812, Note_on_c, 1, 80, 0
2, 52234406, Note_on_c, 1, 80, 44
2, 52248090, Note_on_c, 1, 84, 0
2, 52256851, Note_on_c, 1, 84, 36
2, 52284785, Note_on_c, 1, 90, 0
2, 52312719, Note_on_c, 1, 63, 44
2, 52340741, Note_on_c, 1, 90, 44
2, 52368763, Note_on_c, 1, 84, 0
2, 52396785, Note_on_c, 1, 60, 0
2, 52401260, Note_on_c, 1, 60, 38
2, 52410577, Note_on_c, 1, 84, 37
2, 52419894, Note_on_c, 1, 56, 0
2, 52429211, Note_on_c, 1, 90, 0
2, 52452865, Note_on_c, 1, 90, 38
2, 52467292, Note_on_c, 1, 84, 0
2, 52481719, Note_on_c, 1, 84, 37
2, 52496364, Note_on_c, 1, 80, 0
2, 52511009, Note_on_c, 1, 80, 41
2, 52525872, Note_on_c, 1, 84, 0
2, 52536727, Note_on_c, 1, 84, 35
2, 52565703, Note_on_c, 1, 90, 0
2, 52594679, Note_on_c, 1, 56, 42
2, 52623872, Note_on_c, 1, 90, 42
2, 52653065, Note_on_c, 1, 84, 0
2, 52682258, Note_on_c, 1, 54, 0
2, 52688997, Note_on_c, 1, 54, 36
2, 52699535, Note_on_c, 1, 84, 36
2, 52710073, Note_on_c, 1, 51, 0
2, 52720611, Note_on_c, 1, 90, 0
2, 52746537, Note_on_c, 1, 90, 37
2, 52762015, Note_on_c, 1, 84, 0
2, 52777493, Note_on_c, 1, 84, 35
2, 52793189, Note_on_c, 1, 80, 0
2, 52808885, Note_on_c, 1, 80, 40
2, 52824799, Note_on_c, 1, 84, 0
2, 52837876, Note_on_c, 1, 84, 35
2, 52867895, Note_on_c, 1, 90, 0
2, 52897914, Note_on_c, 1, 51, 40
2, 52928149, Note_on_c, 1, 90, 40
2, 52958384, Note_on_c, 1, 53, 0
2, 52988619, Note_on_c, 1, 85, 0
2, 52997870, Note_on_c, 1, 85, 33
2, 53004563, Note_on_c, 1, 89, 0
2, 53020732, Note_on_c, 1, 89, 36
2, 53030251, Note_on_c, 1, 85, 0
2, 53052033, Note_on_c, 1, 85, 33
2, 53064369, Note_on_c, 1, 80, 0
2, 53093608, Note_on_c, 1, 80, 37
2, 53100820, Note_on_c, 1, 85, 0
2, 53114654, Note_on_c, 1, 85, 36
2, 53116711, Note_on_c, 1, 89, 0
2, 53149341, Note_on_c, 1, 53, 35
2, 53180619, Note_on_c, 1, 89, 40
2, 53211897, Note_on_c, 1, 65, 0
2, 53243175, Note_on_c, 1, 85, 0
2, 53255789, Note_on_c, 1, 85, 30
2, 53269986, Note_on_c, 1, 89, 0
2, 53284183, Note_on_c, 1, 89, 35
2, 53298602, Note_on_c, 1, 85, 0
2, 53311964, Note_on_c, 1, 85, 31
2, 53343763, Note_on_c, 1, 80, 0
2, 53375562, Note_on_c, 1, 80, 35
2, 53407578, Note_on_c, 1, 85, 0
2, 53439594, Note_on_c, 1, 85, 33
2, 53471698, Note_on_c, 1, 89, 0
2, 53503802, Note_on_c, 1, 65, 36
2, 53536123, Note_on_c, 1, 89, 40
2, 53568444, Note_on_c, 1, 85, 0
2, 53600765, Note_on_c, 1, 61, 0
2, 53614167, Note_on_c, 1, 61, 30
2, 53628113, Note_on_c, 1, 85, 33
2, 53642059, Note_on_c, 1, 56, 0
2, 53656005, Note_on_c, 1, 89, 0
2, 53688620, Note_on_c, 1, 89, 34
2, 53707379, Note_on_c, 1, 85, 0
2, 53726138, Note_on_c, 1, 85, 31
2, 53745115, Note_on_c, 1, 80, 0
2, 53764092, Note_on_c, 1, 80, 36
2, 53783159, Note_on_c, 1, 85, 0
2, 53802644, Note_on_c, 1, 85, 30
2, 53803023, Note_on_c, 1, 89, 0
2, 53803402, Note_on_c, 1, 56, 34
2, 53803997, Note_on_c, 1, 89, 37
2, 53804592, Note_on_c, 1, 53, 0
2, 53805187, Note_on_c, 1, 85, 0
2, 53823374, Note_on_c, 1, 85, 31
2, 53841050, Note_on_c, 1, 89, 0
2, 53858726, Note_on_c, 1, 89, 33
2, 53876485, Note_on_c, 1, 85, 0
2, 53894244, Note_on_c, 1, 85, 30
2, 53912215, Note_on_c, 1, 80, 0
2, 53937074, Note_on_c, 1, 80, 37
2, 53947887, Note_on_c, 1, 85, 0
2, 53976671, Note_on_c, 1, 85, 30
2, 53980264, Note_on_c, 1, 89, 0
2, 53983642, Note_on_c, 1, 53, 33
2, 54015139, Note_on_c, 1, 89, 38
2, 54046636, Note_on_c, 1, 54, 0
2, 54078133, Note_on_c, 1, 84, 0
2, 54078515, Note_on_c, 1, 84, 29
2, 54080369, Note_on_c, 1, 87, 0
2, 54082223, Note_on_c, 1, 87, 33
2, 54084294, Note_on_c, 1, 84, 0
2, 54086365, Note_on_c, 1, 84, 29
2, 54088524, Note_on_c, 1, 80, 0
2, 54090683, Note_on_c, 1, 80, 34
2, 54093059, Note_on_c, 1, 84, 0
2, 54095435, Note_on_c, 1, 84, 33
2, 54098027, Note_on_c, 1, 87, 0
2, 54100619, Note_on_c, 1, 54, 30
2, 54103300, Note_on_c, 1, 87, 37
2, 54105981, Note_on_c, 1, 66, 0
2, 54108662, Note_on_c, 1, 84, 0
2, 54129993, Note_on_c, 1, 84, 28
2, 54148737, Note_on_c, 1, 87, 0
2, 54167481, Note_on_c, 1, 87, 33
2, 54186446, Note_on_c, 1, 84, 0
2, 54208525, Note_on_c, 1, 84, 29
2, 54211855, Note_on_c, 1, 80, 0
2, 54215185, Note_on_c, 1, 80, 33
2, 54218603, Note_on_c, 1, 84, 0
2, 54222021, Note_on_c, 1, 84, 30
2, 54225656, Note_on_c, 1, 87, 0
2, 54229291, Note_on_c, 1, 66, 33
2, 54233142, Note_on_c, 1, 87, 38
2, 54236993, Note_on_c, 1, 84, 0
2, 54240844, Note_on_c, 1, 63, 0
2, 54263172, Note_on_c, 1, 63, 28
2, 54281874, Note_on_c, 1, 84, 30
2, 54300576, Note_on_c, 1, 60, 0
2, 54319278, Note_on_c, 1, 87, 0
2, 54328085, Note_on_c, 1, 87, 31
2, 54351176, Note_on_c, 1, 84, 0
2, 54374267, Note_on_c, 1, 84, 30
2, 54397576, Note_on_c, 1, 80, 0
2, 54420885, Note_on_c, 1, 80, 35
2, 54444284, Note_on_c, 1, 84, 0
2, 54472272, Note_on_c, 1, 84, 30
2, 54476950, Note_on_c, 1, 87, 0
2, 54481628, Note_on_c, 1, 60, 33
2, 54486522, Note_on_c, 1, 87, 36
2, 54491416, Note_on_c, 1, 54, 0
2, 54496310, Note_on_c, 1, 84, 0
2, 54504312, Note_on_c, 1, 84, 30
2, 54521059, Note_on_c, 1, 87, 0
2, 54531604, Note_on_c, 1, 87, 33
2, 54543682, Note_on_c, 1, 84, 0
2, 54572690, Note_on_c, 1, 84, 30
2, 54579944, Note_on_c, 1, 80, 0
2, 54594564, Note_on_c, 1, 80, 37
2, 54596965, Note_on_c, 1, 84, 0
2, 54596983, Note_on_c, 1, 84, 30
2, 54627270, Note_on_c, 1, 87, 0
2, 54645239, Note_on_c, 1, 54, 33
2, 54670615, Note_on_c, 1, 87, 38
2, 54695991, Note_on_c, 1, 84, 0
2, 54721367, Note_on_c, 1, 51, 0
2, 54744718, Note_on_c, 1, 51, 28
2, 54775546, Note_on_c, 1, 84, 29
2, 54806374, Note_on_c, 1, 48, 0
2, 54837202, Note_on_c, 1, 87, 0
2, 54863938, Note_on_c, 1, 87, 33
2, 54892707, Note_on_c, 1, 84, 0
2, 54921476, Note_on_c, 1, 84, 29
2, 54950466, Note_on_c, 1, 80, 0
2, 54979456, Note_on_c, 1, 80, 34
2, 55008667, Note_on_c, 1, 84, 0
2, 55039157, Note_on_c, 1, 84, 33
2, 55057647, Note_on_c, 1, 87, 0
2, 55064878, Note_on_c, 1, 48, 33
2, 55086402, Note_on_c, 1, 87, 37
2, 55107926, Note_on_c, 1, 42, 0
2, 55129450, Note_on_c, 1, 84, 0
2, 55142613, Note_on_c, 1, 84, 28
2, 55167035, Note_on_c, 1, 87, 0
2, 55186241, Note_on_c, 1, 87, 33
2, 55213680, Note_on_c, 1, 84, 0
2, 55241119, Note_on_c, 1, 84, 29
2, 55268776, Note_on_c, 1, 80, 0
2, 55293983, Note_on_c, 1, 80, 33
2, 55324519, Note_on_c, 1, 84, 0
2, 55355604, Note_on_c, 1, 84, 30
2, 55356242, Note_on_c, 1, 87, 0
2, 55360419, Note_on_c, 1, 87, 38
2, 55364047, Note_on_c, 1, 84, 0
2, 55377737, Note_on_c, 1, 84, 30
2, 55384216, Note_on_c, 1, 80, 0
2, 55411984, Note_on_c, 1, 80, 31
2, 55424053, Note_on_c, 1, 84, 0
2, 55450973, Note_on_c, 1, 84, 30
2, 55465868, Note_on_c, 1, 87, 0
2, 55498417, Note_on_c, 1, 87, 35
2, 55516129, Note_on_c, 1, 84, 0
2, 55544614, Note_on_c, 1, 84, 30
2, 55567720, Note_on_c, 1, 80, 0
2, 55583928, Note_on_c, 1, 80, 36
2, 55609827, Note_on_c, 1, 84, 0
2, 55626323, Note_on_c, 1, 84, 30
2, 55649731, Note_on_c, 1, 87, 0
2, 55661367, Note_on_c, 1, 87, 33
2, 55682406, Note_on_c, 1, 84, 0
2, 55689181, Note_on_c, 1, 84, 30
2, 55707715, Note_on_c, 1, 80, 0
2, 55709601, Note_on_c, 1, 80, 37
2, 55725750, Note_on_c, 1, 84, 0
2, 55755514, Note_on_c, 1, 84, 30
2, 55769144, Note_on_c, 1, 87, 0
2, 55782774, Note_on_c, 1, 42, 34
2, 55796620, Note_on_c, 1, 87, 38
2, 55810466, Note_on_c, 1, 41, 0
2, 55824312, Note_on_c, 1, 84, 0
2, 55848393, Note_on_c, 1, 84, 29
2, 55858717, Note_on_c, 1, 89, 0
2, 55869041, Note_on_c, 1, 89, 33
2, 55879581, Note_on_c, 1, 84, 0
2, 55890121, Note_on_c, 1, 84, 29
2, 55900878, Note_on_c, 1, 80, 0
2, 55911635, Note_on_c, 1, 80, 34
2, 55922480, Note_on_c, 1, 84, 0
2, 55933325, Note_on_c, 1, 84, 33
2, 55944386, Note_on_c, 1, 89, 0
2, 55955447, Note_on_c, 1, 41, 28
2, 55966725, Note_on_c, 1, 89, 37
2, 55978003, Note_on_c, 1, 53, 0
2, 55989281, Note_on_c, 1, 84, 0
2, 55995278, Note_on_c, 1, 84, 28
2, 56022986, Note_on_c, 1, 89, 0
2, 56050694, Note_on_c, 1, 89, 33
2, 56078623, Note_on_c, 1, 84, 0
2, 56085367, Note_on_c, 1, 84, 29
2, 56097166, Note_on_c, 1, 80, 0
2, 56108965, Note_on_c, 1, 80, 33
2, 56120853, Note_on_c, 1, 84, 0
2, 56132741, Note_on_c, 1, 84, 30
2, 56144845, Note_on_c, 1, 89, 0
2, 56156949, Note_on_c, 1, 53, 29
2, 56169270, Note_on_c, 1, 89, 38
2, 56181591, Note_on_c, 1, 84, 0
2, 56193912, Note_on_c, 1, 48, 0
2, 56201198, Note_on_c, 1, 48, 26
2, 56229156, Note_on_c, 1, 84, 30
2, 56257114, Note_on_c, 1, 44, 0
2, 56285072, Note_on_c, 1, 89, 0
2, 56311799, Note_on_c, 1, 89, 31
2, 56343554, Note_on_c, 1, 84, 0
2, 56375309, Note_on_c, 1, 84, 30
2, 56407154, Note_on_c, 1, 80, 0
2, 56438999, Note_on_c, 1, 80, 35
2, 56471062, Note_on_c, 1, 84, 0
2, 56483415, Note_on_c, 1, 84, 30
2, 56496562, Note_on_c, 1, 89, 0
2, 56509709, Note_on_c, 1, 44, 29
2, 56523072, Note_on_c, 1, 89, 36
2, 56536435, Note_on_c, 1, 41, 0
2, 56549798, Note_on_c, 1, 84, 0
2, 56559884, Note_on_c, 1, 84, 30
2, 56589586, Note_on_c, 1, 89, 0
2, 56606092, Note_on_c, 1, 89, 33
2, 56631049, Note_on_c, 1, 84, 0
2, 56633478, Note_on_c, 1, 84, 30
2, 56653791, Note_on_c, 1, 80, 0
2, 56655184, Note_on_c, 1, 80, 37
2, 56668307, Note_on_c, 1, 84, 0
2, 56673481, Note_on_c, 1, 84, 30
2, 56679222, Note_on_c, 1, 89, 0
2, 56689241, Note_on_c, 1, 41, 29
2, 56690096, Note_on_c, 1, 89, 38
2, 56690951, Note_on_c, 1, 84, 0
2, 56691806, Note_on_c, 1, 36, 0
2, 56700528, Note_on_c, 1, 36, 26
2, 56708497, Note_on_c, 1, 84, 29
2, 56716466, Note_on_c, 1, 32, 0
2, 56724435, Note_on_c, 1, 89, 0
2, 56737245, Note_on_c, 1, 89, 33
2, 56742179, Note_on_c, 1, 84, 0
2, 56747113, Note_on_c, 1, 84, 29
2, 56752268, Note_on_c, 1, 80, 0
2, 56757423, Note_on_c, 1, 80, 34
2, 56762799, Note_on_c, 1, 84, 0
2, 56786110, Note_on_c, 1, 84, 33
2, 56804137, Note_on_c, 1, 89, 0
2, 56822164, Note_on_c, 1, 32, 29
2, 56840410, Note_on_c, 1, 89, 37
2, 56858656, Note_on_c, 1, 29, 0
2, 56876902, Note_on_c, 1, 84, 0
2, 56895148, Note_on_c, 1, 84, 28
2, 56913614, Note_on_c, 1, 89, 0
2, 56932080, Note_on_c, 1, 89, 33
2, 56950637, Note_on_c, 1, 84, 0
2, 56969194, Note_on_c, 1, 84, 29
2, 56987971, Note_on_c, 1, 80, 0
2, 57006748, Note_on_c, 1, 80, 33
2, 57025744, Note_on_c, 1, 84, 0
2, 57044740, Note_on_c, 1, 84, 30
2, 57063956, Note_on_c, 1, 89, 0
2, 57083172, Note_on_c, 1, 89, 38
2, 57102479, Note_on_c, 1, 84, 0
2, 57133253, Note_on_c, 1, 84, 30
2, 57144812, Note_on_c, 1, 80, 0
2, 57156371, Note_on_c, 1, 80, 31
2, 57168150, Note_on_c, 1, 84, 0
2, 57179929, Note_on_c, 1, 84, 30
2, 57191801, Note_on_c, 1, 89, 0
2, 57203673, Note_on_c, 1, 89, 35
2, 57215765, Note_on_c, 1, 84, 0
2, 57227857, Note_on_c, 1, 84, 30
2, 57240169, Note_on_c, 1, 80, 0
2, 57252481, Note_on_c, 1, 80, 36
2, 57264886, Note_on_c, 1, 84, 0
2, 57297509, Note_on_c, 1, 84, 30
2, 57301389, Note_on_c, 1, 89, 0
2, 57332163, Note_on_c, 1, 89, 33
2, 57360075, Note_on_c, 1, 84, 0
2, 57369327, Note_on_c, 1, 84, 30
2, 57391356, Note_on_c, 1, 80, 0
2, 57395728, Note_on_c, 1, 80, 37
2, 57408619, Note_on_c, 1, 84, 0
2, 57438178, Note_on_c, 1, 84, 30
2, 57444958, Note_on_c, 1, 89, 0
2, 57453677, Note_on_c, 1, 29, 24
2, 57483934, Note_on_c, 1, 89, 38
2, 57514191, Note_on_c, 1, 32, 0
2, 57544448, Note_on_c, 1, 84, 0
2, 57575520, Note_on_c, 1, 84, 30
2, 57579724, Note_on_c, 1, 89, 0
2, 57587447, Note_on_c, 1, 89, 33
2, 57603382, Note_on_c, 1, 84, 0
2, 57630032, Note_on_c, 1, 84, 30
2, 57653666, Note_on_c, 1, 89, 0
2, 57672624, Note_on_c, 1, 89, 34
2, 57674755, Note_on_c, 1, 84, 0
2, 57692286, Note_on_c, 1, 84, 34
2, 57701853, Note_on_c, 1, 89, 0
2, 57729280, Note_on_c, 1, 32, 30
2, 57749785, Note_on_c, 1, 89, 36
2, 57770290, Note_on_c, 1, 36, 0
2, 57790795, Note_on_c, 1, 84, 0
2, 57795750, Note_on_c, 1, 84, 31
2, 57826824, Note_on_c, 1, 89, 0
2, 57832480, Note_on_c, 1, 89, 35
2, 57837888, Note_on_c, 1, 84, 0
2, 57847227, Note_on_c, 1, 84, 32
2, 57862894, Note_on_c, 1, 80, 0
2, 57887286, Note_on_c, 1, 80, 36
2, 57909681, Note_on_c, 1, 84, 0
2, 57921066, Note_on_c, 1, 84, 36
2, 57953418, Note_on_c, 1, 89, 0
2, 57962143, Note_on_c, 1, 36, 36
2, 57968340, Note_on_c, 1, 89, 39
2, 57974537, Note_on_c, 1, 41, 0
2, 57980734, Note_on_c, 1, 84, 0
2, 57985647, Note_on_c, 1, 84, 33
2, 58007664, Note_on_c, 1, 80, 0
2, 58029681, Note_on_c, 1, 80, 37
2, 58051793, Note_on_c, 1, 84, 0
2, 58081503, Note_on_c, 1, 84, 34
2, 58089187, Note_on_c, 1, 89, 0
2, 58096871, Note_on_c, 1, 89, 38
2, 58104642, Note_on_c, 1, 84, 0
2, 58135891, Note_on_c, 1, 84, 38
2, 58148955, Note_on_c, 1, 80, 0
2, 58177668, Note_on_c, 1, 80, 42
2, 58193346, Note_on_c, 1, 84, 0
2, 58194640, Note_on_c, 1, 84, 36
2, 58212924, Note_on_c, 1, 89, 0
2, 58219422, Note_on_c, 1, 89, 39
2, 58240432, Note_on_c, 1, 84, 0
2, 58252247, Note_on_c, 1, 84, 36
2, 58275849, Note_on_c, 1, 80, 0
2, 58292839, Note_on_c, 1, 80, 40
2, 58319023, Note_on_c, 1, 84, 0
2, 58341298, Note_on_c, 1, 84, 41
2, 58370057, Note_on_c, 1, 89, 0
2, 58371859, Note_on_c, 1, 41, 44
2, 58377570, Note_on_c, 1, 89, 44
2, 58383281, Note_on_c, 1, 48, 0
2, 58388992, Note_on_c, 1, 46, 0
2, 58394703, Note_on_c, 1, 43, 0
2, 58400414, Note_on_c, 1, 88, 0
2, 58416627, Note_on_c, 1, 88, 45
2, 58427219, Note_on_c, 1, 76, 0
2, 58437811, Note_on_c, 1, 76, 41
2, 58448621, Note_on_c, 1, 88, 0
2, 58465564, Note_on_c, 1, 88, 44
2, 58481500, Note_on_c, 1, 48, 55
2, 58491507, Note_on_c, 1, 46, 55
2, 58501514, Note_on_c, 1, 43, 55
2, 58511521, Note_on_c, 1, 44, 0
2, 58521528, Note_on_c, 1, 48, 0
2, 58531535, Note_on_c, 1, 89, 0
2, 58548265, Note_on_c, 1, 89, 44
2, 58555200, Note_on_c, 1, 77, 0
2, 58562135, Note_on_c, 1, 77, 41
2, 58569153, Note_on_c, 1, 89, 0
2, 58576171, Note_on_c, 1, 89, 44
2, 58604375, Note_on_c, 1, 48, 41
2, 58625648, Note_on_c, 1, 44, 41
2, 58646921, Note_on_c, 1, 46, 0
2, 58668194, Note_on_c, 1, 49, 0
2, 58689467, Note_on_c, 1, 89, 0
2, 58716145, Note_on_c, 1, 89, 45
2, 58721634, Note_on_c, 1, 77, 0
2, 58727123, Note_on_c, 1, 77, 41
2, 58732823, Note_on_c, 1, 89, 0
2, 58738523, Note_on_c, 1, 89, 45
2, 58766434, Note_on_c, 1, 49, 40
2, 58788732, Note_on_c, 1, 46, 40
2, 58811030, Note_on_c, 1, 53, 0
2, 58833328, Note_on_c, 1, 56, 0
2, 58855626, Note_on_c, 1, 77, 0
2, 58884343, Note_on_c, 1, 77, 41
2, 58890846, Note_on_c, 1, 89, 0
2, 58897349, Note_on_c, 1, 89, 45
2, 58904064, Note_on_c, 1, 84, 0
2, 58910779, Note_on_c, 1, 84, 43
2, 58917706, Note_on_c, 1, 80, 0
2, 58924633, Note_on_c, 1, 80, 41
2, 58931643, Note_on_c, 1, 77, 0
2, 58961175, Note_on_c, 1, 77, 39
2, 58971172, Note_on_c, 1, 56, 41
2, 58991257, Note_on_c, 1, 53, 41
2, 59011342, Note_on_c, 1, 55, 0
2, 59031427, Note_on_c, 1, 58, 0
2, 59051512, Note_on_c, 1, 60, 0
2, 59071597, Note_on_c, 1, 76, 0
2, 59101572, Note_on_c, 1, 76, 45
2, 59111417, Note_on_c, 1, 64, 0
2, 59121262, Note_on_c, 1, 64, 41
2, 59131319, Note_on_c, 1, 76, 0
2, 59141376, Note_on_c, 1, 76, 44
2, 59165198, Note_on_c, 1, 55, 55
2, 59179039, Note_on_c, 1, 58, 55
2, 59192880, Note_on_c, 1, 60, 55
2, 59206721, Note_on_c, 1, 56, 0
2, 59220562, Note_on_c, 1, 60, 0
2, 59234403, Note_on_c, 1, 77, 0
2, 59259019, Note_on_c, 1, 77, 44
2, 59269877, Note_on_c, 1, 65, 0
2, 59280735, Note_on_c, 1, 65, 41
2, 59291805, Note_on_c, 1, 77, 0
2, 59302875, Note_on_c, 1, 77, 44
2, 59306461, Note_on_c, 1, 60, 41
2, 59331833, Note_on_c, 1, 56, 41
2, 59357205, Note_on_c, 1, 58, 0
2, 59382577, Note_on_c, 1, 61, 0
2, 59407949, Note_on_c, 1, 77, 0
2, 59410015, Note_on_c, 1, 77, 45
2, 59419561, Note_on_c, 1, 65, 0
2, 59429107, Note_on_c, 1, 65, 41
2, 59438865, Note_on_c, 1, 77, 0
2, 59448623, Note_on_c, 1, 77, 45
2, 59451794, Note_on_c, 1, 61, 40
2, 59478191, Note_on_c, 1, 58, 40
2, 59504588, Note_on_c, 1, 65, 0
2, 59530985, Note_on_c, 1, 68, 0
2, 59557382, Note_on_c, 1, 77, 0
2, 59561488, Note_on_c, 1, 77, 41
2, 59572048, Note_on_c, 1, 89, 0
2, 59582608, Note_on_c, 1, 89, 45
2, 59593380, Note_on_c, 1, 84, 0
2, 59604152, Note_on_c, 1, 84, 43
2, 59615008, Note_on_c, 1, 80, 0
2, 59625864, Note_on_c, 1, 80, 41
2, 59636932, Note_on_c, 1, 77, 0
2, 59642063, Note_on_c, 1, 77, 39
2, 59660557, Note_on_c, 1, 68, 41
2, 59684958, Note_on_c, 1, 65, 41
2, 59709359, Note_on_c, 1, 67, 0
2, 59733760, Note_on_c, 1, 70, 0
2, 59758161, Note_on_c, 1, 72, 0
2, 59782562, Note_on_c, 1, 88, 0
2, 59788008, Note_on_c, 1, 88, 45
2, 59801905, Note_on_c, 1, 76, 0
2, 59815802, Note_on_c, 1, 76, 41
2, 59829910, Note_on_c, 1, 88, 0
2, 59844018, Note_on_c, 1, 88, 44
2, 59875599, Note_on_c, 1, 67, 55
2, 59893275, Note_on_c, 1, 70, 55
2, 59910951, Note_on_c, 1, 72, 55
2, 59928627, Note_on_c, 1, 72, 0
2, 59946303, Note_on_c, 1, 68, 0
2, 59963979, Note_on_c, 1, 89, 0
2, 59996353, Note_on_c, 1, 89, 44
2, 60011263, Note_on_c, 1, 77, 0
2, 60026173, Note_on_c, 1, 77, 41
2, 60041294, Note_on_c, 1, 89, 0
2, 60056415, Note_on_c, 1, 89, 44
2, 60068024, Note_on_c, 1, 68, 41
2, 60097495, Note_on_c, 1, 72, 41
2, 60126966, Note_on_c, 1, 73, 0
2, 60156437, Note_on_c, 1, 70, 0
2, 60185908, Note_on_c, 1, 89, 0
2, 60196003, Note_on_c, 1, 89, 45
2, 60209606, Note_on_c, 1, 77, 0
2, 60223209, Note_on_c, 1, 77, 41
2, 60236896, Note_on_c, 1, 89, 0
2, 60250583, Note_on_c, 1, 89, 45
2, 60261911, Note_on_c, 1, 70, 40
2, 60292407, Note_on_c, 1, 73, 40
2, 60322903, Note_on_c, 1, 68, 0
2, 60353399, Note_on_c, 1, 65, 0
2, 60383895, Note_on_c, 1, 77, 0
2, 60396029, Note_on_c, 1, 77, 41
2, 60410647, Note_on_c, 1, 89, 0
2, 60425265, Note_on_c, 1, 89, 45
2, 60439966, Note_on_c, 1, 84, 0
2, 60454667, Note_on_c, 1, 84, 43
2, 60469580, Note_on_c, 1, 80, 0
2, 60484493, Note_on_c, 1, 80, 41
2, 60499618, Note_on_c, 1, 77, 0
2, 60512987, Note_on_c, 1, 77, 39
2, 60539977, Note_on_c, 1, 65, 41
2, 60568694, Note_on_c, 1, 68, 41
2, 60597411, Note_on_c, 1, 72, 0
2, 60626128, Note_on_c, 1, 76, 0
2, 60654845, Note_on_c, 1, 79, 0
2, 60683562, Note_on_c, 1, 79, 0
2, 60707934, Note_on_c, 1, 79, 70
2, 60736463, Note_on_c, 1, 80, 0
2, 60747732, Note_on_c, 1, 80, 71
2, 60756752, Note_on_c, 1, 82, 0
2, 60765772, Note_on_c, 1, 82, 72
2, 60775004, Note_on_c, 1, 84, 0
2, 60796035, Note_on_c, 1, 84, 75
2, 60807862, Note_on_c, 1, 85, 0
2, 60819689, Note_on_c, 1, 85, 73
2, 60831728, Note_on_c, 1, 82, 0
2, 60858388, Note_on_c, 1, 82, 78
2, 60873037, Note_on_c, 1, 84, 0
2, 60887686, Note_on_c, 1, 84, 72
2, 60902547, Note_on_c, 1, 85, 0
2, 60917408, Note_on_c, 1, 85, 73
2, 60932353, Note_on_c, 1, 88, 0
2, 60964866, Note_on_c, 1, 88, 72
2, 60982389, Note_on_c, 1, 89, 0
2, 60999912, Note_on_c, 1, 79, 77
2, 61017647, Note_on_c, 1, 89, 79
2, 61035382, Note_on_c, 1, 91, 0
2, 61053117, Note_on_c, 1, 76, 77
2, 61071063, Note_on_c, 1, 91, 74
2, 61089009, Note_on_c, 1, 88, 0
2, 61106955, Note_on_c, 1, 72, 85
2, 61124985, Note_on_c, 1, 88, 79
2, 61143015, Note_on_c, 1, 77, 0
2, 61161045, Note_on_c, 1, 74, 0
2, 61179075, Note_on_c, 1, 71, 0
2, 61197105, Note_on_c, 1, 80, 0
2, 61215135, Note_on_c, 1, 89, 0
2, 61216246, Note_on_c, 1, 89, 79
2, 61232123, Note_on_c, 1, 91, 0
2, 61261408, Note_on_c, 1, 91, 84
2, 61274844, Note_on_c, 1, 92, 0
2, 61299521, Note_on_c, 1, 92, 83
2, 61310790, Note_on_c, 1, 83, 0
2, 61322059, Note_on_c, 1, 83, 86
2, 61333412, Note_on_c, 1, 86, 0
2, 61353732, Note_on_c, 1, 86, 79
2, 61362784, Note_on_c, 1, 89, 0
2, 61378469, Note_on_c, 1, 89, 87
2, 61385186, Note_on_c, 1, 86, 0
2, 61396247, Note_on_c, 1, 86, 79
2, 61400648, Note_on_c, 1, 83, 0
2, 61407070, Note_on_c, 1, 83, 83
2, 61408685, Note_on_c, 1, 80, 87
2, 61438401, Note_on_c, 1, 77, 95
2, 61463305, Note_on_c, 1, 74, 91
2, 61490983, Note_on_c, 1, 71, 97
2, 61518747, Note_on_c, 1, 72, 0
2, 61546511, Note_on_c, 1, 82, 0
2, 61566276, Note_on_c, 1, 82, 62
2, 61591132, Note_on_c, 1, 76, 0
2, 61615988, Note_on_c, 1, 76, 72
2, 61640931, Note_on_c, 1, 79, 0
2, 61665874, Note_on_c, 1, 79, 64
2, 61691031, Note_on_c, 1, 82, 0
2, 61716188, Note_on_c, 1, 82, 75
2, 61741560, Note_on_c, 1, 76, 0
2, 61766932, Note_on_c, 1, 76, 67
2, 61792391, Note_on_c, 1, 72, 86
2, 61818064, Note_on_c, 1, 73, 0
2, 61843737, Note_on_c, 1, 82, 0
2, 61869410, Note_on_c, 1, 82, 69
2, 61895298, Note_on_c, 1, 77, 0
2, 61921186, Note_on_c, 1, 77, 77
2, 61947160, Note_on_c, 1, 79, 0
2, 61973134, Note_on_c, 1, 79, 70
2, 61999323, Note_on_c, 1, 82, 0
2, 62025512, Note_on_c, 1, 82, 82
2, 62051916, Note_on_c, 1, 77, 0
2, 62078320, Note_on_c, 1, 77, 72
2, 62104810, Note_on_c, 1, 73, 102
2, 62131515, Note_on_c, 1, 64, 0
2, 62158220, Note_on_c, 1, 82, 0
2, 62188269, Note_on_c, 1, 82, 62
2, 62191702, Note_on_c, 1, 72, 0
2, 62195135, Note_on_c, 1, 72, 72
2, 62198785, Note_on_c, 1, 79, 0
2, 62229569, Note_on_c, 1, 79, 64
2, 62256790, Note_on_c, 1, 82, 0
2, 62284011, Note_on_c, 1, 82, 75
2, 62311446, Note_on_c, 1, 72, 0
2, 62338881, Note_on_c, 1, 72, 67
2, 62366531, Note_on_c, 1, 64, 86
2, 62394267, Note_on_c, 1, 65, 0
2, 62422003, Note_on_c, 1, 82, 0
2, 62449739, Note_on_c, 1, 82, 69
2, 62477690, Note_on_c, 1, 73, 0
2, 62505641, Note_on_c, 1, 73, 77
2, 62533807, Note_on_c, 1, 79, 0
2, 62561973, Note_on_c, 1, 79, 70
2, 62590225, Note_on_c, 1, 82, 0
2, 62618477, Note_on_c, 1, 82, 82
2, 62646944, Note_on_c, 1, 73, 0
2, 62675411, Note_on_c, 1, 73, 72
2, 62704092, Note_on_c, 1, 65, 102
2, 62732860, Note_on_c, 1, 60, 0
2, 62761628, Note_on_c, 1, 72, 0
2, 62790396, Note_on_c, 1, 82, 0
2, 62821928, Note_on_c, 1, 82, 62
2, 62824782, Note_on_c, 1, 76, 0
2, 62827636, Note_on_c, 1, 76, 72
2, 62830579, Note_on_c, 1, 79, 0
2, 62862847, Note_on_c, 1, 79, 64
2, 62892131, Note_on_c, 1, 82, 0
2, 62921415, Note_on_c, 1, 82, 75
2, 62950913, Note_on_c, 1, 76, 0
2, 62980411, Note_on_c, 1, 76, 67
2, 63010124, Note_on_c, 1, 72, 86
2, 63039924, Note_on_c, 1, 60, 69
2, 63069724, Note_on_c, 1, 73, 0
2, 63099524, Note_on_c, 1, 61, 0
2, 63129324, Note_on_c, 1, 82, 0
2, 63159124, Note_on_c, 1, 82, 69
2, 63189138, Note_on_c, 1, 77, 0
2, 63219152, Note_on_c, 1, 77, 77
2, 63249381, Note_on_c, 1, 79, 0
2, 63279610, Note_on_c, 1, 79, 70
2, 63309925, Note_on_c, 1, 82, 0
2, 63340240, Note_on_c, 1, 82, 82
2, 63370770, Note_on_c, 1, 77, 0
2, 63401300, Note_on_c, 1, 77, 72
2, 63432045, Note_on_c, 1, 61, 80
2, 63462876, Note_on_c, 1, 73, 102
2, 63493707, Note_on_c, 1, 79, 0
2, 63526331, Note_on_c, 1, 61, 0
2, 63528131, Note_on_c, 1, 73, 0
2, 63529931, Note_on_c, 1, 79, 69
2, 63531817, Note_on_c, 1, 77, 0
2, 63533703, Note_on_c, 1, 73, 83
2, 63535810, Note_on_c, 1, 61, 64
2, 63537917, Note_on_c, 1, 77, 80
2, 63540024, Note_on_c, 1, 79, 0
2, 63540624, Note_on_c, 1, 61, 0
2, 63571892, Note_on_c, 1, 73, 0
2, 63603160, Note_on_c, 1, 79, 70
2, 63634507, Note_on_c, 1, 82, 0
2, 63665854, Note_on_c, 1, 73, 83
2, 63697416, Note_on_c, 1, 61, 64
2, 63728978, Note_on_c, 1, 82, 80
2, 63760540, Note_on_c, 1, 79, 0
2, 63792102, Note_on_c, 1, 73, 0
2, 63823671, Note_on_c, 1, 61, 0
2, 63855240, Note_on_c, 1, 79, 70
2, 63887016, Note_on_c, 1, 77, 0
2, 63918792, Note_on_c, 1, 61, 68
2, 63950655, Note_on_c, 1, 73, 85
2, 63982518, Note_on_c, 1, 77, 81
2, 64014381, Note_on_c, 1, 58, 0
2, 64046244, Note_on_c, 1, 70, 0
2, 64078107, Note_on_c, 1, 79, 0
2, 64109970, Note_on_c, 1, 79, 68
2, 64142048, Note_on_c, 1, 77, 0
2, 64174126, Note_on_c, 1, 70, 82
2, 64206418, Note_on_c, 1, 58, 63
2, 64238710, Note_on_c, 1, 77, 82
2, 64271002, Note_on_c, 1, 55, 0
2, 64303294, Note_on_c, 1, 67, 0
2, 64335586, Note_on_c, 1, 82, 0
2, 64367878, Note_on_c, 1, 82, 71
2, 64400257, Note_on_c, 1, 79, 0
2, 64432636, Note_on_c, 1, 67, 82
2, 64465229, Note_on_c, 1, 55, 63
2, 64497822, Note_on_c, 1, 79, 81
2, 64530415, Note_on_c, 1, 64, 0
2, 64563008, Note_on_c, 1, 52, 0
2, 64595601, Note_on_c, 1, 85, 0
2, 64628194, Note_on_c, 1, 85, 70
2, 64628234, Note_on_c, 1, 82, 0
2, 64628274, Note_on_c, 1, 52, 75
2, 64628401, Note_on_c, 1, 64, 95
2, 64628528, Note_on_c, 1, 82, 82
2, 64628655, Note_on_c, 1, 49, 0
2, 64628782, Note_on_c, 1, 61, 0
2, 64628909, Note_on_c, 1, 85, 0
2, 64633631, Note_on_c, 1, 85, 69
2, 64638316, Note_on_c, 1, 82, 0
2, 64643001, Note_on_c, 1, 61, 82
2, 64647904, Note_on_c, 1, 49, 63
2, 64652807, Note_on_c, 1, 82, 77
2, 64657710, Note_on_c, 1, 46, 0
2, 64662613, Note_on_c, 1, 58, 0
2, 64667516, Note_on_c, 1, 85, 0
2, 64695692, Note_on_c, 1, 85, 69
2, 64719053, Note_on_c, 1, 82, 0
2, 64742414, Note_on_c, 1, 58, 72
2, 64765990, Note_on_c, 1, 46, 58
2, 64789566, Note_on_c, 1, 82, 77
2, 64813142, Note_on_c, 1, 55, 0
2, 64836718, Note_on_c, 1, 43, 0
2, 64860294, Note_on_c, 1, 85, 0
2, 64883870, Note_on_c, 1, 85, 69
2, 64907534, Note_on_c, 1, 82, 0
2, 64931198, Note_on_c, 1, 43, 59
2, 64955078, Note_on_c, 1, 55, 88
2, 64978958, Note_on_c, 1, 82, 75
2, 65002838, Note_on_c, 1, 42, 0
2, 65026718, Note_on_c, 1, 54, 0
2, 65050598, Note_on_c, 1, 85, 0
2, 65058143, Note_on_c, 1, 85, 69
2, 65066932, Note_on_c, 1, 82, 0
2, 65073886, Note_on_c, 1, 82, 74
2, 65078004, Note_on_c, 1, 85, 0
2, 65083950, Note_on_c, 1, 85, 69
2, 65088154, Note_on_c, 1, 82, 0
2, 65102049, Note_on_c, 1, 82, 74
2, 65113859, Note_on_c, 1, 85, 0
2, 65138769, Note_on_c, 1, 85, 69
2, 65171129, Note_on_c, 1, 82, 0
2, 65192385, Note_on_c, 1, 82, 74
2, 65202115, Note_on_c, 1, 85, 0
2, 65219046, Note_on_c, 1, 85, 69
2, 65219067, Note_on_c, 1, 82, 0
2, 65249366, Note_on_c, 1, 82, 74
2, 65279674, Note_on_c, 1, 85, 0
2, 65300227, Note_on_c, 1, 85, 69
2, 65312848, Note_on_c, 1, 82, 0
2, 65344603, Note_on_c, 1, 82, 74
2, 65345141, Note_on_c, 1, 85, 0
2, 65364890, Note_on_c, 1, 85, 69
2, 65375433, Note_on_c, 1, 82, 0
2, 65403190, Note_on_c, 1, 82, 78
2, 65406539, Note_on_c, 1, 85, 0
2, 65420440, Note_on_c, 1, 85, 69
2, 65436133, Note_on_c, 1, 82, 0
2, 65453318, Note_on_c, 1, 82, 77
2, 65456969, Note_on_c, 1, 85, 0
2, 65477039, Note_on_c, 1, 85, 69
2, 65508597, Note_on_c, 1, 82, 0
2, 65521463, Note_on_c, 1, 82, 80
2, 65527942, Note_on_c, 1, 85, 0
2, 65542042, Note_on_c, 1, 85, 75
2, 65558460, Note_on_c, 1, 82, 0
2, 65581264, Note_on_c, 1, 54, 106
2, 65585218, Note_on_c, 1, 42, 90
2, 65589172, Note_on_c, 1, 82, 93
2, 65593126, Note_on_c, 1, 68, 0
2, 65597080, Note_on_c, 1, 49, 0
2, 65629406, Note_on_c, 1, 49, 52
2, 65657869, Note_on_c, 1, 68, 64
2, 65686332, Note_on_c, 1, 73, 0
2, 65714795, Note_on_c, 1, 41, 0
2, 65743258, Note_on_c, 1, 41, 62
2, 65771940, Note_on_c, 1, 73, 80
2, 65800622, Note_on_c, 1, 68, 0
2, 65829304, Note_on_c, 1, 49, 0
2, 65853934, Note_on_c, 1, 49, 52
2, 65882866, Note_on_c, 1, 68, 66
2, 65911798, Note_on_c, 1, 75, 0
2, 65940730, Note_on_c, 1, 41, 0
2, 65969662, Note_on_c, 1, 41, 64
2, 65998682, Note_on_c, 1, 75, 80
2, 66027702, Note_on_c, 1, 68, 0
2, 66056722, Note_on_c, 1, 49, 0
2, 66085742, Note_on_c, 1, 49, 52
2, 66114977, Note_on_c, 1, 68, 63
2, 66144212, Note_on_c, 1, 77, 0
2, 66173447, Note_on_c, 1, 41, 0
2, 66202682, Note_on_c, 1, 41, 68
2, 66232133, Note_on_c, 1, 77, 83
2, 66261584, Note_on_c, 1, 68, 0
2, 66291035, Note_on_c, 1, 49, 0
2, 66308299, Note_on_c, 1, 49, 51
2, 66329100, Note_on_c, 1, 68, 62
2, 66349901, Note_on_c, 1, 73, 0
2, 66370702, Note_on_c, 1, 41, 0
2, 66391503, Note_on_c, 1, 41, 58
2, 66412524, Note_on_c, 1, 73, 80
2, 66433545, Note_on_c, 1, 68, 0
2, 66454566, Note_on_c, 1, 49, 0
2, 66481002, Note_on_c, 1, 49, 52
2, 66486503, Note_on_c, 1, 68, 63
2, 66492004, Note_on_c, 1, 65, 0
2, 66497505, Note_on_c, 1, 53, 0
2, 66503006, Note_on_c, 1, 53, 52
2, 66508722, Note_on_c, 1, 65, 63
2, 66514438, Note_on_c, 1, 68, 0
2, 66520154, Note_on_c, 1, 49, 0
2, 66525870, Note_on_c, 1, 49, 52
2, 66531801, Note_on_c, 1, 68, 63
2, 66537732, Note_on_c, 1, 73, 0
2, 66543663, Note_on_c, 1, 41, 0
2, 66549594, Note_on_c, 1, 41, 64
2, 66555739, Note_on_c, 1, 73, 83
2, 66561884, Note_on_c, 1, 68, 0
2, 66568029, Note_on_c, 1, 49, 0
2, 66583228, Note_on_c, 1, 49, 52
2, 66592500, Note_on_c, 1, 68, 66
2, 66601772, Note_on_c, 1, 73, 0
2, 66611044, Note_on_c, 1, 41, 0
2, 66620316, Note_on_c, 1, 41, 62
2, 66629805, Note_on_c, 1, 73, 81
2, 66639294, Note_on_c, 1, 68, 0
2, 66648783, Note_on_c, 1, 49, 0
2, 66653763, Note_on_c, 1, 49, 52
2, 66682238, Note_on_c, 1, 68, 66
2, 66710713, Note_on_c, 1, 75, 0
2, 66739188, Note_on_c, 1, 41, 0
2, 66767663, Note_on_c, 1, 41, 64
2, 66796354, Note_on_c, 1, 75, 83
2, 66825045, Note_on_c, 1, 68, 0
2, 66853736, Note_on_c, 1, 49, 0
2, 66882427, Note_on_c, 1, 49, 52
2, 66911206, Note_on_c, 1, 68, 66
2, 66939985, Note_on_c, 1, 77, 0
2, 66968764, Note_on_c, 1, 41, 0
2, 66997543, Note_on_c, 1, 41, 68
2, 67026537, Note_on_c, 1, 77, 84
2, 67055531, Note_on_c, 1, 68, 0
2, 67084525, Note_on_c, 1, 49, 0
2, 67091701, Note_on_c, 1, 49, 51
2, 67102744, Note_on_c, 1, 68, 64
2, 67113787, Note_on_c, 1, 73, 0
2, 67124830, Note_on_c, 1, 41, 0
2, 67135873, Note_on_c, 1, 41, 58
2, 67147137, Note_on_c, 1, 73, 80
2, 67158401, Note_on_c, 1, 68, 0
2, 67169665, Note_on_c, 1, 49, 0
2, 67188407, Note_on_c, 1, 49, 52
2, 67196100, Note_on_c, 1, 68, 66
2, 67203793, Note_on_c, 1, 65, 0
2, 67211486, Note_on_c, 1, 53, 0
2, 67219179, Note_on_c, 1, 53, 52
2, 67226959, Note_on_c, 1, 65, 66
2, 67234739, Note_on_c, 1, 68, 0
2, 67242519, Note_on_c, 1, 49, 0
2, 67250299, Note_on_c, 1, 49, 52
2, 67258293, Note_on_c, 1, 68, 66
2, 67266287, Note_on_c, 1, 73, 0
2, 67274281, Note_on_c, 1, 41, 0
2, 67282275, Note_on_c, 1, 41, 64
2, 67290484, Note_on_c, 1, 73, 83
2, 67298693, Note_on_c, 1, 60, 0
2, 67306902, Note_on_c, 1, 48, 0
2, 67324093, Note_on_c, 1, 48, 52
2, 67333169, Note_on_c, 1, 60, 64
2, 67342245, Note_on_c, 1, 65, 0
2, 67351321, Note_on_c, 1, 41, 0
2, 67360397, Note_on_c, 1, 41, 62
2, 67369695, Note_on_c, 1, 65, 80
2, 67378993, Note_on_c, 1, 60, 0
2, 67388291, Note_on_c, 1, 48, 0
2, 67395286, Note_on_c, 1, 48, 52
2, 67425839, Note_on_c, 1, 60, 66
2, 67456392, Note_on_c, 1, 67, 0
2, 67486945, Note_on_c, 1, 41, 0
2, 67517498, Note_on_c, 1, 41, 64
2, 67548267, Note_on_c, 1, 67, 80
2, 67579036, Note_on_c, 1, 60, 0
2, 67609805, Note_on_c, 1, 48, 0
2, 67640574, Note_on_c, 1, 48, 52
2, 67671558, Note_on_c, 1, 60, 63
2, 67702542, Note_on_c, 1, 68, 0
2, 67733526, Note_on_c, 1, 41, 0
2, 67764510, Note_on_c, 1, 41, 68
2, 67795582, Note_on_c, 1, 68, 83
2, 67826654, Note_on_c, 1, 60, 0
2, 67857726, Note_on_c, 1, 48, 0
2, 67881122, Note_on_c, 1, 48, 51
2, 67906306, Note_on_c, 1, 60, 62
2, 67931490, Note_on_c, 1, 65, 0
2, 67956674, Note_on_c, 1, 41, 0
2, 67981858, Note_on_c, 1, 41, 58
2, 68007262, Note_on_c, 1, 65, 80
2, 68032666, Note_on_c, 1, 60, 0
2, 68058070, Note_on_c, 1, 48, 0
2, 68060376, Note_on_c, 1, 48, 52
2, 68070133, Note_on_c, 1, 60, 63
2, 68079890, Note_on_c, 1, 56, 0
2, 68089647, Note_on_c, 1, 53, 0
2, 68099404, Note_on_c, 1, 53, 52
2, 68109247, Note_on_c, 1, 56, 63
2, 68119090, Note_on_c, 1, 60, 0
2, 68128933, Note_on_c, 1, 48, 0
2, 68138776, Note_on_c, 1, 48, 52
2, 68148834, Note_on_c, 1, 60, 63
2, 68158892, Note_on_c, 1, 65, 0
2, 68168950, Note_on_c, 1, 41, 0
2, 68179008, Note_on_c, 1, 41, 64
2, 68189281, Note_on_c, 1, 65, 83
2, 68199554, Note_on_c, 1, 60, 0
2, 68209827, Note_on_c, 1, 48, 0
2, 68233485, Note_on_c, 1, 48, 52
2, 68247088, Note_on_c, 1, 60, 66
2, 68260691, Note_on_c, 1, 65, 0
2, 68274294, Note_on_c, 1, 41, 0
2, 68287897, Note_on_c, 1, 41, 62
2, 68301590, Note_on_c, 1, 65, 81
2, 68315283, Note_on_c, 1, 60, 0
2, 68328976, Note_on_c, 1, 48, 0
2, 68344969, Note_on_c, 1, 48, 52
2, 68347356, Note_on_c, 1, 60, 66
2, 68349743, Note_on_c, 1, 67, 0
2, 68352130, Note_on_c, 1, 41, 0
2, 68354517, Note_on_c, 1, 41, 64
2, 68357120, Note_on_c, 1, 67, 83
2, 68359723, Note_on_c, 1, 60, 0
2, 68362326, Note_on_c, 1, 48, 0
2, 68364929, Note_on_c, 1, 48, 52
2, 68367747, Note_on_c, 1, 60, 66
2, 68370565, Note_on_c, 1, 68, 0
2, 68373383, Note_on_c, 1, 41, 0
2, 68376201, Note_on_c, 1, 41, 68
2, 68379107, Note_on_c, 1, 68, 84
2, 68382013, Note_on_c, 1, 60, 0
2, 68384919, Note_on_c, 1, 48, 0
2, 68403189, Note_on_c, 1, 48, 51
2, 68418646, Note_on_c, 1, 60, 64
2, 68434103, Note_on_c, 1, 65, 0
2, 68449560, Note_on_c, 1, 41, 0
2, 68465017, Note_on_c, 1, 41, 58
2, 68480695, Note_on_c, 1, 65, 80
2, 68496373, Note_on_c, 1, 60, 0
2, 68512051, Note_on_c, 1, 48, 0
2, 68529781, Note_on_c, 1, 48, 52
2, 68531920, Note_on_c, 1, 60, 66
2, 68534059, Note_on_c, 1, 56, 0
2, 68536198, Note_on_c, 1, 53, 0
2, 68538337, Note_on_c, 1, 53, 52
2, 68540692, Note_on_c, 1, 56, 66
2, 68543047, Note_on_c, 1, 60, 0
2, 68545402, Note_on_c, 1, 48, 0
2, 68547757, Note_on_c, 1, 48, 52
2, 68550328, Note_on_c, 1, 60, 66
2, 68552899, Note_on_c, 1, 65, 0
2, 68555470, Note_on_c, 1, 41, 0
2, 68558041, Note_on_c, 1, 41, 64
2, 68560699, Note_on_c, 1, 65, 83
2, 68563357, Note_on_c, 1, 48, 0
2, 68566015, Note_on_c, 1, 58, 0
2, 68581435, Note_on_c, 1, 58, 69
2, 68594284, Note_on_c, 1, 52, 0
2, 68607133, Note_on_c, 1, 52, 78
2, 68620196, Note_on_c, 1, 55, 0
2, 68633259, Note_on_c, 1, 55, 69
2, 68646409, Note_on_c, 1, 58, 0
2, 68659559, Note_on_c, 1, 58, 80
2, 68672924, Note_on_c, 1, 52, 0
2, 68686289, Note_on_c, 1, 52, 69
2, 68699868, Note_on_c, 1, 48, 89
2, 68713534, Note_on_c, 1, 49, 0
2, 68727200, Note_on_c, 1, 58, 0
2, 68740866, Note_on_c, 1, 58, 70
2, 68754746, Note_on_c, 1, 53, 0
2, 68768626, Note_on_c, 1, 53, 77
2, 68782721, Note_on_c, 1, 55, 0
2, 68796816, Note_on_c, 1, 55, 69
2, 68810998, Note_on_c, 1, 58, 0
2, 68825180, Note_on_c, 1, 58, 80
2, 68839576, Note_on_c, 1, 53, 0
2, 68853972, Note_on_c, 1, 53, 70
2, 68868583, Note_on_c, 1, 49, 97
2, 68883280, Note_on_c, 1, 55, 0
2, 68884903, Note_on_c, 1, 49, 0
2, 68904477, Note_on_c, 1, 55, 69
2, 68924264, Note_on_c, 1, 53, 0
2, 68944051, Note_on_c, 1, 49, 83
2, 68964059, Note_on_c, 1, 53, 80
2, 68984067, Note_on_c, 1, 55, 0
2, 68986434, Note_on_c, 1, 49, 0
2, 69001568, Note_on_c, 1, 55, 70
2, 69016781, Note_on_c, 1, 58, 0
2, 69031994, Note_on_c, 1, 49, 83
2, 69047422, Note_on_c, 1, 58, 80
2, 69062850, Note_on_c, 1, 55, 0
2, 69078278, Note_on_c, 1, 49, 0
2, 69093713, Note_on_c, 1, 55, 70
2, 69109356, Note_on_c, 1, 53, 0
2, 69124999, Note_on_c, 1, 49, 85
2, 69140728, Note_on_c, 1, 53, 81
2, 69156457, Note_on_c, 1, 46, 0
2, 69172186, Note_on_c, 1, 58, 0
2, 69187915, Note_on_c, 1, 58, 68
2, 69203859, Note_on_c, 1, 55, 0
2, 69219803, Note_on_c, 1, 46, 82
2, 69235961, Note_on_c, 1, 55, 82
2, 69252119, Note_on_c, 1, 43, 0
2, 69268277, Note_on_c, 1, 61, 0
2, 69284435, Note_on_c, 1, 61, 71
2, 69300680, Note_on_c, 1, 58, 0
2, 69316925, Note_on_c, 1, 43, 82
2, 69333385, Note_on_c, 1, 58, 81
2, 69349845, Note_on_c, 1, 40, 0
2, 69366305, Note_on_c, 1, 64, 0
2, 69382765, Note_on_c, 1, 64, 70
2, 69399439, Note_on_c, 1, 61, 0
2, 69416113, Note_on_c, 1, 40, 95
2, 69432874, Note_on_c, 1, 61, 82
2, 69449635, Note_on_c, 1, 37, 0
2, 69466396, Note_on_c, 1, 67, 0
2, 69472291, Note_on_c, 1, 67, 77
2, 69494155, Note_on_c, 1, 64, 0
2, 69516019, Note_on_c, 1, 37, 82
2, 69538101, Note_on_c, 1, 64, 84
2, 69560183, Note_on_c, 1, 34, 0
2, 69582265, Note_on_c, 1, 70, 0
2, 69611717, Note_on_c, 1, 70, 78
2, 69619175, Note_on_c, 1, 67, 0
2, 69626633, Note_on_c, 1, 34, 72
2, 69634178, Note_on_c, 1, 67, 89
2, 69641723, Note_on_c, 1, 31, 0
2, 69649268, Note_on_c, 1, 43, 0
2, 69656813, Note_on_c, 1, 73, 0
2, 69664358, Note_on_c, 1, 73, 78
2, 69672119, Note_on_c, 1, 70, 0
2, 69679880, Note_on_c, 1, 43, 88
2, 69687857, Note_on_c, 1, 31, 74
2, 69695834, Note_on_c, 1, 70, 95
2, 69703811, Note_on_c, 1, 42, 0
2, 69711788, Note_on_c, 1, 30, 0
2, 69719765, Note_on_c, 1, 73, 0
2, 69728288, Note_on_c, 1, 73, 67
2, 69753636, Note_on_c, 1, 70, 0
2, 69777514, Note_on_c, 1, 70, 76
2, 69798113, Note_on_c, 1, 73, 0
2, 69821719, Note_on_c, 1, 73, 67
2, 69842532, Note_on_c, 1, 70, 0
2, 69856645, Note_on_c, 1, 70, 76
2, 69884861, Note_on_c, 1, 73, 0
2, 69894359, Note_on_c, 1, 73, 67
2, 69910610, Note_on_c, 1, 70, 0
2, 69932485, Note_on_c, 1, 70, 76
2, 69958646, Note_on_c, 1, 73, 0
2, 69976375, Note_on_c, 1, 73, 67
2, 69993056, Note_on_c, 1, 70, 0
2, 70024061, Note_on_c, 1, 70, 72
2, 70038414, Note_on_c, 1, 73, 0
2, 70059741, Note_on_c, 1, 73, 67
2, 70088768, Note_on_c, 1, 70, 0
2, 70104958, Note_on_c, 1, 70, 72
2, 70122155, Note_on_c, 1, 73, 0
2, 70142701, Note_on_c, 1, 73, 67
2, 70169675, Note_on_c, 1, 70, 0
2, 70198154, Note_on_c, 1, 70, 72
2, 70218138, Note_on_c, 1, 73, 0
2, 70249118, Note_on_c, 1, 73, 67
2, 70281193, Note_on_c, 1, 70, 0
2, 70282536, Note_on_c, 1, 70, 72
2, 70302821, Note_on_c, 1, 73, 0
2, 70325136, Note_on_c, 1, 73, 67
2, 70340611, Note_on_c, 1, 70, 0
2, 70354496, Note_on_c, 1, 70, 76
2, 70377584, Note_on_c, 1, 73, 0
2, 70392704, Note_on_c, 1, 73, 74
2, 70392736, Note_on_c, 1, 70, 0
2, 70399677, Note_on_c, 1, 30, 91
2, 70420268, Note_on_c, 1, 42, 107
2, 70440859, Note_on_c, 1, 70, 93
2, 70461450, Note_on_c, 1, 56, 0
2, 70482041, Note_on_c, 1, 37, 0
2, 70482911, Note_on_c, 1, 37, 52
2, 70496049, Note_on_c, 1, 56, 64
2, 70509187, Note_on_c, 1, 61, 0
2, 70522325, Note_on_c, 1, 29, 0
2, 70535463, Note_on_c, 1, 29, 62
2, 70548820, Note_on_c, 1, 61, 80
2, 70562177, Note_on_c, 1, 56, 0
2, 70575534, Note_on_c, 1, 37, 0
2, 70599182, Note_on_c, 1, 37, 52
2, 70609689, Note_on_c, 1, 56, 66
2, 70620196, Note_on_c, 1, 63, 0
2, 70630703, Note_on_c, 1, 29, 0
2, 70641210, Note_on_c, 1, 29, 64
2, 70651804, Note_on_c, 1, 63, 80
2, 70662398, Note_on_c, 1, 56, 0
2, 70672992, Note_on_c, 1, 37, 0
2, 70683586, Note_on_c, 1, 37, 52
2, 70694396, Note_on_c, 1, 56, 63
2, 70705206, Note_on_c, 1, 65, 0
2, 70716016, Note_on_c, 1, 29, 0
2, 70726826, Note_on_c, 1, 29, 68
2, 70737852, Note_on_c, 1, 65, 83
2, 70748878, Note_on_c, 1, 56, 0
2, 70759904, Note_on_c, 1, 37, 0
2, 70776403, Note_on_c, 1, 37, 51
2, 70782096, Note_on_c, 1, 56, 62
2, 70787789, Note_on_c, 1, 61, 0
2, 70793482, Note_on_c, 1, 29, 0
2, 70799175, Note_on_c, 1, 29, 58
2, 70805088, Note_on_c, 1, 61, 75
2, 70811001, Note_on_c, 1, 56, 0
2, 70816914, Note_on_c, 1, 37, 0
2, 70844879, Note_on_c, 1, 37, 52
2, 70867018, Note_on_c, 1, 56, 63
2, 70889157, Note_on_c, 1, 53, 0
2, 70911296, Note_on_c, 1, 41, 0
2, 70933435, Note_on_c, 1, 41, 52
2, 70955789, Note_on_c, 1, 53, 63
2, 70978143, Note_on_c, 1, 56, 0
2, 71000497, Note_on_c, 1, 37, 0
2, 71022851, Note_on_c, 1, 37, 52
2, 71045419, Note_on_c, 1, 56, 63
2, 71067987, Note_on_c, 1, 61, 0
2, 71090555, Note_on_c, 1, 29, 0
2, 71113123, Note_on_c, 1, 29, 64
2, 71135778, Note_on_c, 1, 61, 83
2, 71158433, Note_on_c, 1, 56, 0
2, 71181088, Note_on_c, 1, 37, 0
2, 71197483, Note_on_c, 1, 37, 52
2, 71223953, Note_on_c, 1, 56, 66
2, 71250423, Note_on_c, 1, 61, 0
2, 71276893, Note_on_c, 1, 29, 0
2, 71303363, Note_on_c, 1, 29, 62
2, 71330051, Note_on_c, 1, 61, 81
2, 71356739, Note_on_c, 1, 56, 0
2, 71383427, Note_on_c, 1, 37, 0
2, 71392222, Note_on_c, 1, 37, 52
2, 71407184, Note_on_c, 1, 56, 66
2, 71422146, Note_on_c, 1, 63, 0
2, 71437108, Note_on_c, 1, 29, 0
2, 71452070, Note_on_c, 1, 29, 64
2, 71467248, Note_on_c, 1, 63, 83
2, 71482426, Note_on_c, 1, 56, 0
2, 71497604, Note_on_c, 1, 37, 0
2, 71512782, Note_on_c, 1, 37, 52
2, 71528175, Note_on_c, 1, 56, 66
2, 71543568, Note_on_c, 1, 65, 0
2, 71558961, Note_on_c, 1, 29, 0
2, 71574354, Note_on_c, 1, 29, 68
2, 71589835, Note_on_c, 1, 65, 84
2, 71605316, Note_on_c, 1, 56, 0
2, 71620797, Note_on_c, 1, 37, 0
2, 71632371, Note_on_c, 1, 37, 51
2, 71661325, Note_on_c, 1, 56, 64
2, 71690279, Note_on_c, 1, 61, 0
2, 71719233, Note_on_c, 1, 29, 0
2, 71748187, Note_on_c, 1, 29, 58
2, 71777234, Note_on_c, 1, 61, 77
2, 71806281, Note_on_c, 1, 56, 0
2, 71835328, Note_on_c, 1, 37, 0
2, 71855851, Note_on_c, 1, 37, 52
2, 71880182, Note_on_c, 1, 56, 66
2, 71904513, Note_on_c, 1, 53, 0
2, 71928844, Note_on_c, 1, 41, 0
2, 71953175, Note_on_c, 1, 41, 52
2, 71977592, Note_on_c, 1, 53, 66
2, 72002009, Note_on_c, 1, 56, 0
2, 72026426, Note_on_c, 1, 37, 0
2, 72050843, Note_on_c, 1, 37, 52
2, 72075475, Note_on_c, 1, 56, 66
2, 72100107, Note_on_c, 1, 61, 0
2, 72124739, Note_on_c, 1, 29, 0
2, 72149371, Note_on_c, 1, 29, 64
2, 72174218, Note_on_c, 1, 61, 83
2, 72199065, Note_on_c, 1, 48, 0
2, 72223912, Note_on_c, 1, 36, 0
2, 72242915, Note_on_c, 1, 36, 52
2, 72270061, Note_on_c, 1, 48, 64
2, 72297207, Note_on_c, 1, 53, 0
2, 72324353, Note_on_c, 1, 29, 0
2, 72351499, Note_on_c, 1, 29, 62
2, 72378738, Note_on_c, 1, 53, 80
2, 72405977, Note_on_c, 1, 48, 0
2, 72433216, Note_on_c, 1, 36, 0
2, 72442261, Note_on_c, 1, 36, 52
2, 72456923, Note_on_c, 1, 48, 66
2, 72471585, Note_on_c, 1, 55, 0
2, 72486247, Note_on_c, 1, 29, 0
2, 72500909, Note_on_c, 1, 29, 64
2, 72515787, Note_on_c, 1, 55, 80
2, 72530665, Note_on_c, 1, 48, 0
2, 72545543, Note_on_c, 1, 36, 0
2, 72560421, Note_on_c, 1, 36, 52
2, 72575387, Note_on_c, 1, 48, 63
2, 72590353, Note_on_c, 1, 56, 0
2, 72605319, Note_on_c, 1, 29, 0
2, 72620285, Note_on_c, 1, 29, 68
2, 72635466, Note_on_c, 1, 56, 83
2, 72650647, Note_on_c, 1, 48, 0
2, 72665828, Note_on_c, 1, 36, 0
2, 72690993, Note_on_c, 1, 36, 51
2, 72701069, Note_on_c, 1, 48, 62
2, 72711145, Note_on_c, 1, 53, 0
2, 72721221, Note_on_c, 1, 29, 0
2, 72731297, Note_on_c, 1, 29, 58
2, 72741593, Note_on_c, 1, 53, 66
2, 72751889, Note_on_c, 1, 48, 0
2, 72762185, Note_on_c, 1, 36, 0
2, 72765893, Note_on_c, 1, 36, 52
2, 72792287, Note_on_c, 1, 48, 63
2, 72818681, Note_on_c, 1, 44, 0
2, 72845075, Note_on_c, 1, 41, 0
2, 72871469, Note_on_c, 1, 41, 52
2, 72897950, Note_on_c, 1, 44, 63
2, 72924431, Note_on_c, 1, 48, 0
2, 72950912, Note_on_c, 1, 36, 0
2, 72977393, Note_on_c, 1, 36, 52
2, 73004089, Note_on_c, 1, 48, 63
2, 73030785, Note_on_c, 1, 53, 0
2, 73057481, Note_on_c, 1, 29, 0
2, 73084177, Note_on_c, 1, 29, 64
2, 73111087, Note_on_c, 1, 53, 83
2, 73137997, Note_on_c, 1, 48, 0
2, 73164907, Note_on_c, 1, 36, 0
2, 73189761, Note_on_c, 1, 36, 52
2, 73220562, Note_on_c, 1, 48, 66
2, 73251363, Note_on_c, 1, 53, 0
2, 73282164, Note_on_c, 1, 29, 0
2, 73312965, Note_on_c, 1, 29, 62
2, 73343984, Note_on_c, 1, 53, 81
2, 73375003, Note_on_c, 1, 48, 0
2, 73406022, Note_on_c, 1, 36, 0
2, 73420925, Note_on_c, 1, 36, 52
2, 73437665, Note_on_c, 1, 48, 66
2, 73454405, Note_on_c, 1, 55, 0
2, 73471145, Note_on_c, 1, 29, 0
2, 73487885, Note_on_c, 1, 29, 64
2, 73504840, Note_on_c, 1, 55, 83
2, 73521795, Note_on_c, 1, 48, 0
2, 73538750, Note_on_c, 1, 36, 0
2, 73555705, Note_on_c, 1, 36, 52
2, 73572876, Note_on_c, 1, 48, 66
2, 73590047, Note_on_c, 1, 56, 0
2, 73607218, Note_on_c, 1, 29, 0
2, 73624389, Note_on_c, 1, 29, 68
2, 73641648, Note_on_c, 1, 56, 84
2, 73658907, Note_on_c, 1, 48, 0
2, 73676166, Note_on_c, 1, 36, 0
2, 73693932, Note_on_c, 1, 36, 51
2, 73694532, Note_on_c, 1, 48, 64
2, 73695132, Note_on_c, 1, 53, 0
2, 73695732, Note_on_c, 1, 29, 0
2, 73696332, Note_on_c, 1, 29, 58
2, 73697153, Note_on_c, 1, 53, 72
2, 73697974, Note_on_c, 1, 48, 0
2, 73698795, Note_on_c, 1, 36, 0
2, 73718533, Note_on_c, 1, 36, 52
2, 73737537, Note_on_c, 1, 48, 66
2, 73756541, Note_on_c, 1, 44, 0
2, 73775545, Note_on_c, 1, 41, 0
2, 73794549, Note_on_c, 1, 41, 52
2, 73813769, Note_on_c, 1, 44, 66
2, 73832989, Note_on_c, 1, 48, 0
2, 73852209, Note_on_c, 1, 36, 0
2, 73871429, Note_on_c, 1, 36, 52
2, 73890737, Note_on_c, 1, 48, 66
2, 73910045, Note_on_c, 1, 53, 0
2, 73929353, Note_on_c, 1, 29, 0
2, 73948661, Note_on_c, 1, 29, 64
2, 73968184, Note_on_c, 1, 53, 83
2, 73987707, Note_on_c, 1, 36, 0
2, 74006410, Note_on_c, 1, 36, 33
2, 74038688, Note_on_c, 1, 35, 0
2, 74071252, Note_on_c, 1, 35, 34
2, 74084098, Note_on_c, 1, 36, 0
2, 74087940, Note_on_c, 1, 36, 36
2, 74109757, Note_on_c, 1, 35, 0
2, 74118543, Note_on_c, 1, 35, 33
2, 74146312, Note_on_c, 1, 36, 0
2, 74176568, Note_on_c, 1, 36, 33
2, 74180266, Note_on_c, 1, 34, 0
2, 74182385, Note_on_c, 1, 34, 34
2, 74188031, Note_on_c, 1, 32, 0
2, 74193677, Note_on_c, 1, 32, 31
2, 74199644, Note_on_c, 1, 31, 0
2, 74215608, Note_on_c, 1, 31, 33
2, 74225918, Note_on_c, 1, 32, 0
2, 74236228, Note_on_c, 1, 32, 34
2, 74246851, Note_on_c, 1, 34, 0
2, 74257474, Note_on_c, 1, 34, 34
2, 74268538, Note_on_c, 1, 36, 0
2, 74279602, Note_on_c, 1, 36, 34
2, 74290979, Note_on_c, 1, 37, 0
2, 74302356, Note_on_c, 1, 37, 34
2, 74314175, Note_on_c, 1, 39, 0
2, 74336826, Note_on_c, 1, 39, 33
2, 74348107, Note_on_c, 1, 40, 0
2, 74354763, Note_on_c, 1, 40, 33
2, 74383215, Note_on_c, 1, 41, 0
2, 74411667, Note_on_c, 1, 41, 33
2, 74440429, Note_on_c, 1, 42, 0
2, 74469191, Note_on_c, 1, 42, 33
2, 74498391, Note_on_c, 1, 43, 0
2, 74527591, Note_on_c, 1, 43, 33
2, 74557100, Note_on_c, 1, 44, 0
2, 74586609, Note_on_c, 1, 44, 34
2, 74616428, Note_on_c, 1, 46, 0
2, 74646142, Note_on_c, 1, 46, 32
2, 74646203, Note_on_c, 1, 48, 0
2, 74648888, Note_on_c, 1, 48, 32
2, 74651821, Note_on_c, 1, 49, 0
2, 74660370, Note_on_c, 1, 49, 33
2, 74666294, Note_on_c, 1, 51, 0
2, 74680689, Note_on_c, 1, 51, 33
2, 74689467, Note_on_c, 1, 52, 0
2, 74709562, Note_on_c, 1, 52, 33
2, 74721186, Note_on_c, 1, 53, 0
2, 74747092, Note_on_c, 1, 53, 34
2, 74761552, Note_on_c, 1, 54, 0
2, 74788199, Note_on_c, 1, 54, 33
2, 74800564, Note_on_c, 1, 55, 0
2, 74812929, Note_on_c, 1, 55, 35
2, 74825729, Note_on_c, 1, 56, 0
2, 74838529, Note_on_c, 1, 56, 34
2, 74851636, Note_on_c, 1, 58, 0
2, 74864743, Note_on_c, 1, 58, 35
2, 74878157, Note_on_c, 1, 60, 0
2, 74891571, Note_on_c, 1, 60, 36
2, 74905420, Note_on_c, 1, 61, 0
2, 74919269, Note_on_c, 1, 61, 36
2, 74933425, Note_on_c, 1, 63, 0
2, 74947581, Note_on_c, 1, 63, 36
2, 74962044, Note_on_c, 1, 64, 0
2, 74976507, Note_on_c, 1, 64, 37
2, 74991405, Note_on_c, 1, 65, 0
2, 75000886, Note_on_c, 1, 65, 38
2, 75023513, Note_on_c, 1, 66, 0
2, 75031059, Note_on_c, 1, 66, 39
2, 75061344, Note_on_c, 1, 67, 0
2, 75066547, Note_on_c, 1, 67, 39
2, 75071525, Note_on_c, 1, 68, 0
2, 75098661, Note_on_c, 1, 68, 41
2, 75113123, Note_on_c, 1, 70, 0
2, 75145649, Note_on_c, 1, 70, 41
2, 75153686, Note_on_c, 1, 72, 0
2, 75161723, Note_on_c, 1, 72, 41
2, 75170190, Note_on_c, 1, 73, 0
2, 75178657, Note_on_c, 1, 73, 42
2, 75187425, Note_on_c, 1, 75, 0
2, 75196193, Note_on_c, 1, 75, 42
2, 75205263, Note_on_c, 1, 76, 0
2, 75214333, Note_on_c, 1, 76, 42
2, 75223832, Note_on_c, 1, 77, 0
2, 75233331, Note_on_c, 1, 77, 42
2, 75243132, Note_on_c, 1, 78, 0
2, 75252933, Note_on_c, 1, 78, 42
2, 75263035, Note_on_c, 1, 79, 0
2, 75273137, Note_on_c, 1, 79, 43
2, 75283669, Note_on_c, 1, 80, 0
2, 75294201, Note_on_c, 1, 80, 42
2, 75305034, Note_on_c, 1, 82, 0
2, 75315867, Note_on_c, 1, 82, 45
2, 75327002, Note_on_c, 1, 84, 0
2, 75338137, Note_on_c, 1, 84, 47
2, 75349701, Note_on_c, 1, 85, 0
2, 75361265, Note_on_c, 1, 85, 47
2, 75373131, Note_on_c, 1, 84, 0
2, 75393131, Note_on_c, 1, 84, 40
2, 75401356, Note_on_c, 1, 83, 0
2, 75414788, Note_on_c, 1, 83, 50
2, 75443012, Note_on_c, 1, 84, 0
2, 75444617, Note_on_c, 1, 84, 44
2, 75455633, Note_on_c, 1, 85, 0
2, 75464104, Note_on_c, 1, 85, 52
2, 75489990, Note_on_c, 1, 84, 0
2, 75517398, Note_on_c, 1, 84, 45
2, 75547462, Note_on_c, 1, 85, 0
2, 75572551, Note_on_c, 1, 85, 54
2, 75600779, Note_on_c, 1, 84, 0
2, 75629742, Note_on_c, 1, 84, 45
2, 75662264, Note_on_c, 1, 85, 0
2, 75688689, Note_on_c, 1, 85, 55
2, 75706373, Note_on_c, 1, 84, 0
2, 75706399, Note_on_c, 1, 84, 48
2, 75731812, Note_on_c, 1, 85, 0
2, 75755458, Note_on_c, 1, 85, 58
2, 75775284, Note_on_c, 1, 84, 0
2, 75787884, Note_on_c, 1, 84, 49
2, 75813582, Note_on_c, 1, 85, 0
2, 75833093, Note_on_c, 1, 85, 60
2, 75860832, Note_on_c, 1, 84, 0
2, 75870145, Note_on_c, 1, 84, 49
2, 75892442, Note_on_c, 1, 85, 0
2, 75920126, Note_on_c, 1, 85, 56
2, 75946314, Note_on_c, 1, 84, 0
2, 75954316, Note_on_c, 1, 84, 46
2, 75978742, Note_on_c, 1, 85, 0
2, 75995682, Note_on_c, 1, 85, 55
2, 76025945, Note_on_c, 1, 84, 0
2, 76027817, Note_on_c, 1, 84, 45
2, 76052655, Note_on_c, 1, 85, 0
2, 76062981, Note_on_c, 1, 85, 54
2, 76082222, Note_on_c, 1, 84, 0
2, 76088117, Note_on_c, 1, 84, 45
2, 76115079, Note_on_c, 1, 85, 0
2, 76138676, Note_on_c, 1, 85, 51
2, 76171237, Note_on_c, 1, 84, 0
2, 76181827, Note_on_c, 1, 84, 43
2, 76189813, Note_on_c, 1, 85, 0
2, 76218764, Note_on_c, 1, 85, 49
2, 76218848, Note_on_c, 1, 84, 0
2, 76231733, Note_on_c, 1, 84, 41
2, 76250250, Note_on_c, 1, 85, 0
2, 76265628, Note_on_c, 1, 85, 49
2, 76297628, Note_on_c, 1, 72, 0
2, 76304856, Note_on_c, 1, 72, 48
2, 76313064, Note_on_c, 1, 71, 0
2, 76325187, Note_on_c, 1, 71, 56
2, 76344208, Note_on_c, 1, 72, 0
2, 76356355, Note_on_c, 1, 72, 49
2, 76364859, Note_on_c, 1, 73, 0
2, 76396658, Note_on_c, 1, 73, 56
2, 76422311, Note_on_c, 1, 72, 0
2, 76435385, Note_on_c, 1, 72, 49
2, 76461248, Note_on_c, 1, 73, 0
2, 76478181, Note_on_c, 1, 73, 56
2, 76502063, Note_on_c, 1, 72, 0
2, 76516712, Note_on_c, 1, 72, 48
2, 76546976, Note_on_c, 1, 73, 0
2, 76561573, Note_on_c, 1, 73, 56
2, 76594092, Note_on_c, 1, 72, 0
2, 76620075, Note_on_c, 1, 72, 47
2, 76648579, Note_on_c, 1, 73, 0
2, 76677060, Note_on_c, 1, 73, 56
2, 76677102, Note_on_c, 1, 72, 0
2, 76707920, Note_on_c, 1, 72, 48
2, 76738767, Note_on_c, 1, 73, 0
2, 76748021, Note_on_c, 1, 73, 56
2, 76752425, Note_on_c, 1, 72, 0
2, 76759881, Note_on_c, 1, 72, 47
2, 76760423, Note_on_c, 1, 73, 0
2, 76774882, Note_on_c, 1, 73, 53
2, 76781604, Note_on_c, 1, 72, 0
2, 76804909, Note_on_c, 1, 72, 45
2, 76813731, Note_on_c, 1, 73, 0
2, 76837643, Note_on_c, 1, 73, 51
2, 76840723, Note_on_c, 1, 72, 0
2, 76841009, Note_on_c, 1, 72, 44
2, 76842132, Note_on_c, 1, 73, 0
2, 76843693, Note_on_c, 1, 73, 50
2, 76847063, Note_on_c, 1, 72, 0
2, 76856846, Note_on_c, 1, 72, 41
2, 76882822, Note_on_c, 1, 73, 0
2, 76898201, Note_on_c, 1, 73, 48
2, 76926447, Note_on_c, 1, 72, 0
2, 76953386, Note_on_c, 1, 72, 40
2, 76981842, Note_on_c, 1, 73, 0
2, 76982144, Note_on_c, 1, 73, 46
2, 76996010, Note_on_c, 1, 72, 0
2, 77025802, Note_on_c, 1, 72, 39
2, 77046149, Note_on_c, 1, 73, 0
2, 77054121, Note_on_c, 1, 73, 46
2, 77060265, Note_on_c, 1, 48, 0
2, 77066409, Note_on_c, 1, 52, 0
2, 77072553, Note_on_c, 1, 58, 0
2, 77078697, Note_on_c, 1, 68, 0
2, 77087676, Note_on_c, 1, 68, 48
2, 77099819, Note_on_c, 1, 67, 0
2, 77124204, Note_on_c, 1, 67, 56
2, 77132209, Note_on_c, 1, 68, 0
2, 77159110, Note_on_c, 1, 68, 48
2, 77178089, Note_on_c, 1, 67, 0
2, 77180417, Note_on_c, 1, 67, 55
2, 77201691, Note_on_c, 1, 68, 0
2, 77231155, Note_on_c, 1, 68, 48
2, 77258849, Note_on_c, 1, 67, 0
2, 77260924, Note_on_c, 1, 67, 53
2, 77284567, Note_on_c, 1, 68, 0
2, 77297971, Note_on_c, 1, 68, 46
2, 77325958, Note_on_c, 1, 67, 0
2, 77347239, Note_on_c, 1, 67, 52
2, 77373372, Note_on_c, 1, 68, 0
2, 77385428, Note_on_c, 1, 68, 45
2, 77413708, Note_on_c, 1, 67, 0
2, 77437119, Note_on_c, 1, 67, 51
2, 77441033, Note_on_c, 1, 68, 0
2, 77467424, Note_on_c, 1, 68, 44
2, 77494061, Note_on_c, 1, 67, 0
2, 77498776, Note_on_c, 1, 67, 51
2, 77498897, Note_on_c, 1, 68, 0
2, 77520975, Note_on_c, 1, 68, 42
2, 77527423, Note_on_c, 1, 67, 0
2, 77541359, Note_on_c, 1, 67, 50
2, 77543945, Note_on_c, 1, 68, 0
2, 77557350, Note_on_c, 1, 68, 42
2, 77566114, Note_on_c, 1, 67, 0
2, 77576404, Note_on_c, 1, 67, 49
2, 77607955, Note_on_c, 1, 68, 0
2, 77633670, Note_on_c, 1, 68, 41
2, 77663376, Note_on_c, 1, 67, 0
2, 77689043, Note_on_c, 1, 67, 48
2, 77710551, Note_on_c, 1, 68, 0
2, 77723641, Note_on_c, 1, 68, 40
2, 77745232, Note_on_c, 1, 67, 0
2, 77756271, Note_on_c, 1, 67, 47
2, 77760709, Note_on_c, 1, 68, 0
2, 77777175, Note_on_c, 1, 68, 40
2, 77792662, Note_on_c, 1, 67, 0
2, 77809676, Note_on_c, 1, 67, 46
2, 77823272, Note_on_c, 1, 68, 0
2, 77852042, Note_on_c, 1, 68, 39
2, 77852587, Note_on_c, 1, 67, 0
2, 77874368, Note_on_c, 1, 58, 31
2, 77901048, Note_on_c, 1, 52, 31
2, 77927728, Note_on_c, 1, 48, 25
2, 77954408, Note_on_c, 1, 67, 46
2, 77981088, Note_on_c, 1, 53, 0
2, 78007768, Note_on_c, 1, 56, 0
2, 78034448, Note_on_c, 1, 48, 0
2, 78061128, Note_on_c, 1, 65, 0
2, 78072158, Note_on_c, 1, 65, 49
2, 78089579, Note_on_c, 1, 67, 0
2, 78099123, Note_on_c, 1, 67, 51
2, 78124730, Note_on_c, 1, 68, 0
2, 78134736, Note_on_c, 1, 53, 36
2, 78154755, Note_on_c, 1, 56, 36
2, 78174774, Note_on_c, 1, 48, 28
2, 78194793, Note_on_c, 1, 68, 58
2, 78214812, Note_on_c, 1, 70, 0
2, 78234831, Note_on_c, 1, 49, 0
2, 78254850, Note_on_c, 1, 46, 0
2, 78274869, Note_on_c, 1, 58, 0
2, 78294888, Note_on_c, 1, 54, 0
2, 78313678, Note_on_c, 1, 54, 57
2, 78315278, Note_on_c, 1, 70, 81
2, 78316878, Note_on_c, 1, 58, 69
2, 78318478, Note_on_c, 1, 61, 0
2, 78320078, Note_on_c, 1, 73, 0
2, 78321678, Note_on_c, 1, 53, 0
2, 78352725, Note_on_c, 1, 46, 50
2, 78383206, Note_on_c, 1, 53, 59
2, 78413687, Note_on_c, 1, 49, 50
2, 78444168, Note_on_c, 1, 73, 85
2, 78474649, Note_on_c, 1, 61, 72
2, 78505130, Note_on_c, 1, 45, 0
2, 78535611, Note_on_c, 1, 60, 0
2, 78566092, Note_on_c, 1, 48, 0
2, 78596573, Note_on_c, 1, 57, 0
2, 78627054, Note_on_c, 1, 53, 0
2, 78657535, Note_on_c, 1, 72, 0
2, 78684780, Note_on_c, 1, 72, 52
2, 78717348, Note_on_c, 1, 60, 48
2, 78749916, Note_on_c, 1, 77, 0
2, 78782484, Note_on_c, 1, 65, 0
2, 78790265, Note_on_c, 1, 53, 36
2, 78799275, Note_on_c, 1, 45, 28
2, 78808285, Note_on_c, 1, 48, 28
2, 78817295, Note_on_c, 1, 57, 36
2, 78826305, Note_on_c, 1, 65, 51
2, 78835315, Note_on_c, 1, 77, 57
2, 78844325, Note_on_c, 1, 76, 0
2, 78853335, Note_on_c, 1, 48, 0
2, 78862345, Note_on_c, 1, 46, 0
2, 78871355, Note_on_c, 1, 55, 0
2, 78880365, Note_on_c, 1, 64, 0
2, 78910344, Note_on_c, 1, 64, 58
2, 78931443, Note_on_c, 1, 76, 63
2, 78952542, Note_on_c, 1, 79, 0
2, 78973641, Note_on_c, 1, 67, 0
2, 79003605, Note_on_c, 1, 46, 33
2, 79012432, Note_on_c, 1, 55, 42
2, 79021259, Note_on_c, 1, 48, 33
2, 79030086, Note_on_c, 1, 43, 0
2, 79038913, Note_on_c, 1, 43, 40
2, 79048176, Note_on_c, 1, 55, 0
2, 79057439, Note_on_c, 1, 46, 0
2, 79066702, Note_on_c, 1, 48, 0
2, 79070612, Note_on_c, 1, 48, 34
2, 79098331, Note_on_c, 1, 55, 42
2, 79126050, Note_on_c, 1, 46, 34
2, 79153769, Note_on_c, 1, 67, 62
2, 79181488, Note_on_c, 1, 79, 68
2, 79209207, Note_on_c, 1, 76, 0
2, 79236926, Note_on_c, 1, 64, 0
2, 79264645, Note_on_c, 1, 43, 0
2, 79288264, Note_on_c, 1, 43, 39
2, 79317228, Note_on_c, 1, 48, 0
2, 79346192, Note_on_c, 1, 46, 0
2, 79375156, Note_on_c, 1, 55, 0
2, 79404120, Note_on_c, 1, 55, 38
2, 79433380, Note_on_c, 1, 48, 29
2, 79462640, Note_on_c, 1, 46, 29
2, 79491900, Note_on_c, 1, 43, 0
2, 79504742, Note_on_c, 1, 43, 40
2, 79520997, Note_on_c, 1, 64, 57
2, 79537252, Note_on_c, 1, 76, 61
2, 79553507, Note_on_c, 1, 77, 0
2, 79569762, Note_on_c, 1, 48, 0
2, 79586017, Note_on_c, 1, 45, 0
2, 79602272, Note_on_c, 1, 53, 0
2, 79618527, Note_on_c, 1, 65, 0
2, 79634782, Note_on_c, 1, 65, 53
2, 79651266, Note_on_c, 1, 77, 58
2, 79667750, Note_on_c, 1, 81, 0
2, 79684234, Note_on_c, 1, 69, 0
2, 79703507, Note_on_c, 1, 45, 29
2, 79706383, Note_on_c, 1, 53, 38
2, 79709259, Note_on_c, 1, 48, 29
2, 79712135, Note_on_c, 1, 41, 0
2, 79715011, Note_on_c, 1, 41, 37
2, 79718190, Note_on_c, 1, 48, 0
2, 79721369, Note_on_c, 1, 45, 0
2, 79724548, Note_on_c, 1, 53, 0
2, 79742735, Note_on_c, 1, 53, 39
2, 79757915, Note_on_c, 1, 48, 30
2, 79773095, Note_on_c, 1, 45, 30
2, 79788275, Note_on_c, 1, 69, 57
2, 79803455, Note_on_c, 1, 81, 62
2, 79818635, Note_on_c, 1, 65, 0
2, 79833815, Note_on_c, 1, 77, 0
2, 79848995, Note_on_c, 1, 41, 0
2, 79853959, Note_on_c, 1, 41, 36
2, 79876809, Note_on_c, 1, 48, 0
2, 79899659, Note_on_c, 1, 45, 0
2, 79922509, Note_on_c, 1, 53, 0
2, 79945359, Note_on_c, 1, 53, 34
2, 79968507, Note_on_c, 1, 48, 27
2, 79991655, Note_on_c, 1, 45, 27
2, 80014803, Note_on_c, 1, 41, 0
2, 80037951, Note_on_c, 1, 41, 37
2, 80061525, Note_on_c, 1, 77, 56
2, 80085099, Note_on_c, 1, 65, 51
2, 80108673, Note_on_c, 1, 72, 0
2, 80132247, Note_on_c, 1, 53, 0
2, 80155821, Note_on_c, 1, 48, 0
2, 80179395, Note_on_c, 1, 45, 0
2, 80202969, Note_on_c, 1, 60, 0
2, 80207101, Note_on_c, 1, 60, 49
2, 80220671, Note_on_c, 1, 72, 53
2, 80234241, Note_on_c, 1, 69, 0
2, 80247811, Note_on_c, 1, 57, 0
2, 80274455, Note_on_c, 1, 48, 27
2, 80287619, Note_on_c, 1, 45, 27
2, 80300783, Note_on_c, 1, 53, 34
2, 80313947, Note_on_c, 1, 41, 0
2, 80327111, Note_on_c, 1, 41, 33
2, 80340711, Note_on_c, 1, 45, 0
2, 80354311, Note_on_c, 1, 48, 0
2, 80367911, Note_on_c, 1, 53, 0
2, 80395366, Note_on_c, 1, 53, 35
2, 80409521, Note_on_c, 1, 45, 27
2, 80423676, Note_on_c, 1, 48, 27
2, 80437831, Note_on_c, 1, 57, 51
2, 80451986, Note_on_c, 1, 69, 55
2, 80466141, Note_on_c, 1, 60, 0
2, 80480296, Note_on_c, 1, 41, 0
2, 80494451, Note_on_c, 1, 41, 31
2, 80508907, Note_on_c, 1, 45, 0
2, 80523363, Note_on_c, 1, 48, 0
2, 80537819, Note_on_c, 1, 53, 0
2, 80552275, Note_on_c, 1, 53, 31
2, 80567159, Note_on_c, 1, 48, 24
2, 80582043, Note_on_c, 1, 45, 24
2, 80596927, Note_on_c, 1, 41, 0
2, 80611811, Note_on_c, 1, 41, 32
2, 80626996, Note_on_c, 1, 45, 0
2, 80642181, Note_on_c, 1, 48, 0
2, 80657366, Note_on_c, 1, 53, 0
2, 80672551, Note_on_c, 1, 53, 29
2, 80688036, Note_on_c, 1, 48, 22
2, 80703521, Note_on_c, 1, 45, 22
2, 80719006, Note_on_c, 1, 41, 0
2, 80734491, Note_on_c, 1, 41, 28
2, 80750404, Note_on_c, 1, 45, 0
2, 80766317, Note_on_c, 1, 48, 0
2, 80782230, Note_on_c, 1, 53, 0
2, 80798143, Note_on_c, 1, 53, 29
2, 80814357, Note_on_c, 1, 48, 23
2, 80830571, Note_on_c, 1, 45, 23
2, 80846785, Note_on_c, 1, 60, 42
2, 80862999, Note_on_c, 1, 57, 0
2, 80879213, Note_on_c, 1, 41, 0
2, 80894613, Note_on_c, 1, 41, 27
2, 80926872, Note_on_c, 1, 45, 0
2, 80959131, Note_on_c, 1, 48, 0
2, 80991390, Note_on_c, 1, 53, 0
2, 81023649, Note_on_c, 1, 53, 25
2, 81056212, Note_on_c, 1, 48, 20
2, 81088775, Note_on_c, 1, 45, 20
2, 81121338, Note_on_c, 1, 41, 0
2, 81153901, Note_on_c, 1, 41, 28
2, 81154001, Note_on_c, 1, 57, 42
2, 81154101, Note_on_c, 1, 40, 0
2, 81154201, Note_on_c, 1, 58, 0
2, 81154301, Note_on_c, 1, 46, 0
2, 81170439, Note_on_c, 1, 46, 36
2, 81186590, Note_on_c, 1, 58, 39
2, 81202741, Note_on_c, 1, 60, 0
2, 81218892, Note_on_c, 1, 48, 0
2, 81233802, Note_on_c, 1, 40, 25
2, 81265549, Note_on_c, 1, 36, 0
2, 81297296, Note_on_c, 1, 36, 25
2, 81329356, Note_on_c, 1, 40, 0
2, 81350875, Note_on_c, 1, 40, 28
2, 81373273, Note_on_c, 1, 48, 40
2, 81395671, Note_on_c, 1, 60, 44
2, 81418069, Note_on_c, 1, 55, 0
2, 81440467, Note_on_c, 1, 43, 0
2, 81462865, Note_on_c, 1, 36, 0
2, 81489293, Note_on_c, 1, 36, 25
2, 81493491, Note_on_c, 1, 40, 0
2, 81497689, Note_on_c, 1, 40, 25
2, 81502311, Note_on_c, 1, 36, 0
2, 81532856, Note_on_c, 1, 36, 28
2, 81558813, Note_on_c, 1, 43, 40
2, 81584770, Note_on_c, 1, 55, 44
2, 81610727, Note_on_c, 1, 41, 0
2, 81636684, Note_on_c, 1, 57, 0
2, 81662641, Note_on_c, 1, 45, 0
2, 81688598, Note_on_c, 1, 45, 36
2, 81714784, Note_on_c, 1, 57, 39
2, 81740970, Note_on_c, 1, 60, 0
2, 81767156, Note_on_c, 1, 48, 0
2, 81793631, Note_on_c, 1, 41, 25
2, 81794009, Note_on_c, 1, 36, 0
2, 81794387, Note_on_c, 1, 36, 25
2, 81795198, Note_on_c, 1, 41, 0
2, 81811894, Note_on_c, 1, 48, 40
2, 81828080, Note_on_c, 1, 41, 28
2, 81844266, Note_on_c, 1, 60, 44
2, 81860452, Note_on_c, 1, 57, 0
2, 81876638, Note_on_c, 1, 45, 0
2, 81892824, Note_on_c, 1, 36, 0
2, 81897719, Note_on_c, 1, 36, 26
2, 81919488, Note_on_c, 1, 41, 0
2, 81941257, Note_on_c, 1, 41, 25
2, 81963319, Note_on_c, 1, 36, 0
2, 81985381, Note_on_c, 1, 36, 28
2, 82007735, Note_on_c, 1, 45, 40
2, 82030089, Note_on_c, 1, 57, 44
2, 82052443, Note_on_c, 1, 41, 0
2, 82074797, Note_on_c, 1, 58, 0
2, 82097151, Note_on_c, 1, 46, 0
2, 82119796, Note_on_c, 1, 46, 37
2, 82120323, Note_on_c, 1, 58, 40
2, 82120850, Note_on_c, 1, 62, 0
2, 82121377, Note_on_c, 1, 50, 0
2, 82143651, Note_on_c, 1, 41, 27
2, 82165488, Note_on_c, 1, 34, 0
2, 82187325, Note_on_c, 1, 34, 26
2, 82209598, Note_on_c, 1, 41, 0
2, 82233469, Note_on_c, 1, 50, 40
2, 82235364, Note_on_c, 1, 41, 28
2, 82237259, Note_on_c, 1, 62, 44
2, 82239154, Note_on_c, 1, 60, 0
2, 82241049, Note_on_c, 1, 48, 0
2, 82242944, Note_on_c, 1, 33, 0
2, 82244839, Note_on_c, 1, 33, 26
2, 82247160, Note_on_c, 1, 36, 0
2, 82249481, Note_on_c, 1, 45, 0
2, 82251802, Note_on_c, 1, 41, 0
2, 82254123, Note_on_c, 1, 41, 20
2, 82256741, Note_on_c, 1, 36, 20
2, 82259359, Note_on_c, 1, 45, 26
2, 82261977, Note_on_c, 1, 33, 0
2, 82264595, Note_on_c, 1, 33, 28
2, 82267510, Note_on_c, 1, 45, 0
2, 82270425, Note_on_c, 1, 36, 0
2, 82273340, Note_on_c, 1, 41, 0
2, 82276255, Note_on_c, 1, 41, 20
2, 82279596, Note_on_c, 1, 45, 26
2, 82282937, Note_on_c, 1, 36, 20
2, 82286278, Note_on_c, 1, 33, 0
2, 82289619, Note_on_c, 1, 33, 26
2, 82293257, Note_on_c, 1, 41, 0
2, 82296895, Note_on_c, 1, 45, 0
2, 82300533, Note_on_c, 1, 36, 0
2, 82304171, Note_on_c, 1, 36, 22
2, 82308107, Note_on_c, 1, 41, 22
2, 82312043, Note_on_c, 1, 45, 28
2, 82315979, Note_on_c, 1, 48, 40
2, 82319915, Note_on_c, 1, 60, 40
2, 82323851, Note_on_c, 1, 53, 0
2, 82327787, Note_on_c, 1, 65, 0
2, 82331723, Note_on_c, 1, 33, 0
2, 82359197, Note_on_c, 1, 33, 26
2, 82383028, Note_on_c, 1, 45, 0
2, 82406859, Note_on_c, 1, 41, 0
2, 82430690, Note_on_c, 1, 36, 0
2, 82454521, Note_on_c, 1, 36, 20
2, 82478645, Note_on_c, 1, 45, 25
2, 82502769, Note_on_c, 1, 41, 20
2, 82526893, Note_on_c, 1, 33, 0
2, 82551017, Note_on_c, 1, 33, 28
2, 82575433, Note_on_c, 1, 65, 41
2, 82599849, Note_on_c, 1, 53, 38
2, 82624265, Note_on_c, 1, 64, 0
2, 82648681, Note_on_c, 1, 40, 0
2, 82673097, Note_on_c, 1, 34, 0
2, 82697513, Note_on_c, 1, 43, 0
2, 82721929, Note_on_c, 1, 52, 0
2, 82748605, Note_on_c, 1, 52, 36
2, 82750973, Note_on_c, 1, 64, 39
2, 82753341, Note_on_c, 1, 67, 0
2, 82755709, Note_on_c, 1, 55, 0
2, 82784161, Note_on_c, 1, 34, 21
2, 82810335, Note_on_c, 1, 43, 27
2, 82836509, Note_on_c, 1, 40, 21
2, 82862683, Note_on_c, 1, 31, 0
2, 82888857, Note_on_c, 1, 31, 26
2, 82915339, Note_on_c, 1, 43, 0
2, 82941821, Note_on_c, 1, 34, 0
2, 82968303, Note_on_c, 1, 40, 0
2, 82992453, Note_on_c, 1, 40, 22
2, 83023189, Note_on_c, 1, 43, 28
2, 83053925, Note_on_c, 1, 34, 22
2, 83084661, Note_on_c, 1, 55, 40
2, 83115397, Note_on_c, 1, 67, 44
2, 83146133, Note_on_c, 1, 64, 0
2, 83176869, Note_on_c, 1, 52, 0
2, 83207605, Note_on_c, 1, 31, 0
2, 83217604, Note_on_c, 1, 31, 26
2, 83229931, Note_on_c, 1, 40, 0
2, 83242258, Note_on_c, 1, 34, 0
2, 83254585, Note_on_c, 1, 43, 0
2, 83266912, Note_on_c, 1, 43, 26
2, 83279535, Note_on_c, 1, 40, 20
2, 83292158, Note_on_c, 1, 34, 20
2, 83304781, Note_on_c, 1, 31, 0
2, 83320261, Note_on_c, 1, 31, 28
2, 83323152, Note_on_c, 1, 52, 38
2, 83326043, Note_on_c, 1, 64, 41
2, 83328934, Note_on_c, 1, 65, 0
2, 83331825, Note_on_c, 1, 36, 0
2, 83334716, Note_on_c, 1, 33, 0
2, 83337607, Note_on_c, 1, 41, 0
2, 83340498, Note_on_c, 1, 53, 0
2, 83343389, Note_on_c, 1, 53, 36
2, 83346508, Note_on_c, 1, 65, 39
2, 83349627, Note_on_c, 1, 57, 0
2, 83352746, Note_on_c, 1, 69, 0
2, 83366848, Note_on_c, 1, 33, 20
2, 83377919, Note_on_c, 1, 41, 26
2, 83388990, Note_on_c, 1, 36, 20
2, 83400061, Note_on_c, 1, 29, 0
2, 83411132, Note_on_c, 1, 29, 26
2, 83422507, Note_on_c, 1, 36, 0
2, 83433882, Note_on_c, 1, 41, 0
2, 83445257, Note_on_c, 1, 33, 0
2, 83450207, Note_on_c, 1, 33, 22
2, 83476851, Note_on_c, 1, 36, 22
2, 83503495, Note_on_c, 1, 41, 28
2, 83530139, Note_on_c, 1, 69, 44
2, 83556783, Note_on_c, 1, 57, 40
2, 83583427, Note_on_c, 1, 53, 0
2, 83610071, Note_on_c, 1, 65, 0
2, 83636715, Note_on_c, 1, 29, 0
2, 83658027, Note_on_c, 1, 29, 26
2, 83685756, Note_on_c, 1, 36, 0
2, 83713485, Note_on_c, 1, 33, 0
2, 83741214, Note_on_c, 1, 41, 0
2, 83768943, Note_on_c, 1, 41, 25
2, 83796965, Note_on_c, 1, 36, 20
2, 83824987, Note_on_c, 1, 33, 20
2, 83853009, Note_on_c, 1, 29, 0
2, 83884771, Note_on_c, 1, 29, 28
2, 83888410, Note_on_c, 1, 65, 41
2, 83892049, Note_on_c, 1, 53, 38
2, 83895688, Note_on_c, 1, 60, 0
2, 83899327, Note_on_c, 1, 41, 0
2, 83902966, Note_on_c, 1, 36, 0
2, 83906605, Note_on_c, 1, 33, 0
2, 83910244, Note_on_c, 1, 48, 0
2, 83920556, Note_on_c, 1, 48, 37
2, 83927473, Note_on_c, 1, 60, 40
2, 83934390, Note_on_c, 1, 57, 0
2, 83941307, Note_on_c, 1, 45, 0
2, 83964923, Note_on_c, 1, 36, 21
2, 83981842, Note_on_c, 1, 33, 21
2, 83998761, Note_on_c, 1, 41, 27
2, 84015680, Note_on_c, 1, 29, 0
2, 84032599, Note_on_c, 1, 29, 26
2, 84049829, Note_on_c, 1, 33, 0
2, 84067059, Note_on_c, 1, 36, 0
2, 84084289, Note_on_c, 1, 41, 0
2, 84090816, Note_on_c, 1, 41, 28
2, 84113184, Note_on_c, 1, 33, 22
2, 84135552, Note_on_c, 1, 36, 22
2, 84157920, Note_on_c, 1, 45, 40
2, 84180288, Note_on_c, 1, 57, 44
2, 84202656, Note_on_c, 1, 29, 0
2, 84225024, Note_on_c, 1, 29, 26
2, 84247822, Note_on_c, 1, 33, 0
2, 84270620, Note_on_c, 1, 36, 0
2, 84293418, Note_on_c, 1, 41, 0
2, 84316216, Note_on_c, 1, 41, 26
2, 84339316, Note_on_c, 1, 36, 20
2, 84362416, Note_on_c, 1, 33, 20
2, 84385516, Note_on_c, 1, 29, 0
2, 84408616, Note_on_c, 1, 29, 28
2, 84432019, Note_on_c, 1, 33, 0
2, 84455422, Note_on_c, 1, 36, 0
2, 84478825, Note_on_c, 1, 41, 0
2, 84502228, Note_on_c, 1, 41, 26
2, 84526061, Note_on_c, 1, 36, 20
2, 84549894, Note_on_c, 1, 33, 20
2, 84573727, Note_on_c, 1, 29, 0
2, 84597560, Note_on_c, 1, 29, 26
2, 84621696, Note_on_c, 1, 33, 0
2, 84645832, Note_on_c, 1, 36, 0
2, 84669968, Note_on_c, 1, 41, 0
2, 84694104, Note_on_c, 1, 41, 28
2, 84718542, Note_on_c, 1, 36, 22
2, 84742980, Note_on_c, 1, 33, 22
2, 84767418, Note_on_c, 1, 29, 0
2, 84791856, Note_on_c, 1, 29, 26
2, 84816724, Note_on_c, 1, 33, 0
2, 84841592, Note_on_c, 1, 36, 0
2, 84866460, Note_on_c, 1, 41, 0
2, 84891328, Note_on_c, 1, 41, 25
2, 84916499, Note_on_c, 1, 36, 20
2, 84941670, Note_on_c, 1, 33, 20
2, 84966841, Note_on_c, 1, 29, 0
2, 84979916, Note_on_c, 1, 29, 28
2, 85000771, Note_on_c, 1, 36, 0
2, 85003183, Note_on_c, 1, 36, 27
2, 85034765, Note_on_c, 1, 36, 0
2, 85051228, Note_on_c, 1, 36, 26
2, 85058978, Note_on_c, 1, 36, 0
2, 85086892, Note_on_c, 1, 36, 28
2, 85103345, Note_on_c, 1, 36, 0
2, 85116528, Note_on_c, 1, 36, 26
2, 85139420, Note_on_c, 1, 36, 0
2, 85143891, Note_on_c, 1, 36, 26
2, 85175183, Note_on_c, 1, 36, 0
2, 85207038, Note_on_c, 1, 36, 28
2, 85207867, Note_on_c, 1, 36, 0
2, 85211769, Note_on_c, 1, 36, 26
2, 85214896, Note_on_c, 1, 36, 0
2, 85218023, Note_on_c, 1, 36, 26
2, 85221443, Note_on_c, 1, 36, 0
2, 85230438, Note_on_c, 1, 36, 28
2, 85236150, Note_on_c, 1, 52, 0
2, 85241862, Note_on_c, 1, 46, 0
2, 85247574, Note_on_c, 1, 55, 0
2, 85253286, Note_on_c, 1, 48, 0
2, 85258998, Note_on_c, 1, 36, 0
2, 85272652, Note_on_c, 1, 36, 26
2, 85280648, Note_on_c, 1, 36, 0
2, 85288644, Note_on_c, 1, 36, 25
2, 85297190, Note_on_c, 1, 48, 41
2, 85297721, Note_on_c, 1, 52, 41
2, 85298252, Note_on_c, 1, 46, 41
2, 85298783, Note_on_c, 1, 55, 41
2, 85309880, Note_on_c, 1, 48, 0
2, 85320460, Note_on_c, 1, 48, 27
2, 85331317, Note_on_c, 1, 48, 0
2, 85342188, Note_on_c, 1, 48, 26
2, 85366592, Note_on_c, 1, 48, 0
2, 85379734, Note_on_c, 1, 48, 28
2, 85393153, Note_on_c, 1, 48, 0
2, 85406585, Note_on_c, 1, 48, 26
2, 85436106, Note_on_c, 1, 48, 0
2, 85451803, Note_on_c, 1, 48, 26
2, 85467777, Note_on_c, 1, 48, 0
2, 85483764, Note_on_c, 1, 48, 28
2, 85485619, Note_on_c, 1, 48, 0
2, 85503863, Note_on_c, 1, 48, 26
2, 85522384, Note_on_c, 1, 48, 0
2, 85540918, Note_on_c, 1, 48, 26
2, 85547860, Note_on_c, 1, 48, 0
2, 85568646, Note_on_c, 1, 48, 28
2, 85589708, Note_on_c, 1, 60, 0
2, 85610770, Note_on_c, 1, 68, 0
2, 85631832, Note_on_c, 1, 65, 0
2, 85652894, Note_on_c, 1, 48, 0
2, 85673969, Note_on_c, 1, 48, 26
2, 85685857, Note_on_c, 1, 48, 0
2, 85709176, Note_on_c, 1, 48, 25
2, 85732770, Note_on_c, 1, 65, 41
2, 85756653, Note_on_c, 1, 68, 41
2, 85780536, Note_on_c, 1, 60, 41
2, 85807280, Note_on_c, 1, 60, 0
2, 85810155, Note_on_c, 1, 60, 30
2, 85815818, Note_on_c, 1, 60, 0
2, 85818211, Note_on_c, 1, 60, 31
2, 85820877, Note_on_c, 1, 53, 0
2, 85823543, Note_on_c, 1, 49, 0
2, 85826209, Note_on_c, 1, 49, 30
2, 85829290, Note_on_c, 1, 53, 30
2, 85832371, Note_on_c, 1, 60, 0
2, 85835465, Note_on_c, 1, 60, 32
2, 85838832, Note_on_c, 1, 65, 0
2, 85842199, Note_on_c, 1, 70, 0
2, 85845566, Note_on_c, 1, 61, 0
2, 85848933, Note_on_c, 1, 60, 0
2, 85852313, Note_on_c, 1, 60, 32
2, 85881550, Note_on_c, 1, 65, 46
2, 85907422, Note_on_c, 1, 70, 46
2, 85933294, Note_on_c, 1, 61, 46
2, 85955903, Note_on_c, 1, 60, 0
2, 85985421, Note_on_c, 1, 60, 34
2, 86015214, Note_on_c, 1, 60, 0
2, 86045020, Note_on_c, 1, 60, 34
2, 86075229, Note_on_c, 1, 50, 0
2, 86105438, Note_on_c, 1, 53, 0
2, 86135647, Note_on_c, 1, 53, 38
2, 86166144, Note_on_c, 1, 50, 38
2, 86170586, Note_on_c, 1, 60, 0
2, 86177312, Note_on_c, 1, 60, 36
2, 86184311, Note_on_c, 1, 62, 0
2, 86191310, Note_on_c, 1, 71, 0
2, 86198309, Note_on_c, 1, 65, 0
2, 86205308, Note_on_c, 1, 60, 0
2, 86212320, Note_on_c, 1, 60, 37
2, 86219842, Note_on_c, 1, 62, 52
2, 86220368, Note_on_c, 1, 71, 52
2, 86220894, Note_on_c, 1, 65, 52
2, 86221420, Note_on_c, 1, 72, 0
2, 86221946, Note_on_c, 1, 63, 0
2, 86222472, Note_on_c, 1, 66, 0
2, 86232477, Note_on_c, 1, 60, 0
2, 86241969, Note_on_c, 1, 60, 37
2, 86251733, Note_on_c, 1, 60, 0
2, 86261510, Note_on_c, 1, 60, 37
2, 86271559, Note_on_c, 1, 54, 0
2, 86281608, Note_on_c, 1, 51, 0
2, 86291657, Note_on_c, 1, 51, 36
2, 86301992, Note_on_c, 1, 54, 36
2, 86327972, Note_on_c, 1, 60, 0
2, 86343630, Note_on_c, 1, 60, 37
2, 86359559, Note_on_c, 1, 60, 0
2, 86375501, Note_on_c, 1, 60, 37
2, 86402748, Note_on_c, 1, 72, 52
2, 86414067, Note_on_c, 1, 63, 52
2, 86425386, Note_on_c, 1, 66, 52
2, 86448024, Note_on_c, 1, 60, 0
2, 86459356, Note_on_c, 1, 60, 37
2, 86470960, Note_on_c, 1, 60, 0
2, 86482577, Note_on_c, 1, 60, 37
2, 86494467, Note_on_c, 1, 52, 0
2, 86506357, Note_on_c, 1, 55, 0
2, 86518247, Note_on_c, 1, 55, 40
2, 86530550, Note_on_c, 1, 52, 40
2, 86560330, Note_on_c, 1, 60, 0
2, 86577820, Note_on_c, 1, 60, 38
2, 86595582, Note_on_c, 1, 84, 0
2, 86613344, Note_on_c, 1, 76, 0
2, 86631106, Note_on_c, 1, 79, 0
2, 86648868, Note_on_c, 1, 60, 0
2, 86666643, Note_on_c, 1, 60, 38
2, 86697691, Note_on_c, 1, 84, 61
2, 86710850, Note_on_c, 1, 76, 61
2, 86724009, Note_on_c, 1, 79, 61
2, 86737168, Note_on_c, 1, 85, 0
2, 86750327, Note_on_c, 1, 77, 0
2, 86763486, Note_on_c, 1, 80, 0
2, 86776645, Note_on_c, 1, 60, 0
2, 86789817, Note_on_c, 1, 60, 37
2, 86803390, Note_on_c, 1, 60, 0
2, 86816976, Note_on_c, 1, 60, 37
2, 86830834, Note_on_c, 1, 56, 0
2, 86844692, Note_on_c, 1, 53, 0
2, 86858550, Note_on_c, 1, 53, 36
2, 86872693, Note_on_c, 1, 56, 36
2, 86900979, Note_on_c, 1, 60, 0
2, 86915135, Note_on_c, 1, 60, 37
2, 86929564, Note_on_c, 1, 60, 0
2, 86944006, Note_on_c, 1, 60, 37
2, 86958720, Note_on_c, 1, 56, 0
2, 86973434, Note_on_c, 1, 53, 0
2, 86988148, Note_on_c, 1, 53, 37
2, 87003275, Note_on_c, 1, 56, 37
2, 87033529, Note_on_c, 1, 60, 0
2, 87048670, Note_on_c, 1, 60, 37
2, 87064083, Note_on_c, 1, 60, 0
2, 87079509, Note_on_c, 1, 60, 37
2, 87095207, Note_on_c, 1, 53, 0
2, 87110905, Note_on_c, 1, 56, 0
2, 87126603, Note_on_c, 1, 56, 40
2, 87142587, Note_on_c, 1, 53, 40
2, 87147202, Note_on_c, 1, 60, 0
2, 87168486, Note_on_c, 1, 60, 38
2, 87190041, Note_on_c, 1, 60, 0
2, 87211609, Note_on_c, 1, 60, 38
2, 87217362, Note_on_c, 1, 85, 75
2, 87234330, Note_on_c, 1, 77, 75
2, 87251298, Note_on_c, 1, 80, 75
2, 87268266, Note_on_c, 1, 77, 0
2, 87285234, Note_on_c, 1, 80, 0
2, 87296755, Note_on_c, 1, 60, 0
2, 87323964, Note_on_c, 1, 80, 52
2, 87351382, Note_on_c, 1, 77, 52
2, 87361436, Note_on_c, 1, 60, 37
2, 87376919, Note_on_c, 1, 60, 0
2, 87392544, Note_on_c, 1, 60, 37
2, 87408441, Note_on_c, 1, 56, 0
2, 87424338, Note_on_c, 1, 53, 0
2, 87432037, Note_on_c, 1, 53, 44
2, 87456891, Note_on_c, 1, 56, 48
2, 87481745, Note_on_c, 1, 53, 0
2, 87506602, Note_on_c, 1, 56, 0
2, 87531459, Note_on_c, 1, 60, 0
2, 87556326, Note_on_c, 1, 60, 37
2, 87581463, Note_on_c, 1, 56, 47
2, 87606600, Note_on_c, 1, 53, 47
2, 87631737, Note_on_c, 1, 60, 0
2, 87656887, Note_on_c, 1, 60, 37
2, 87668191, Note_on_c, 1, 60, 0
2, 87686727, Note_on_c, 1, 60, 38
2, 87705535, Note_on_c, 1, 65, 0
2, 87724343, Note_on_c, 1, 68, 0
2, 87743151, Note_on_c, 1, 60, 0
2, 87762100, Note_on_c, 1, 60, 37
2, 87781321, Note_on_c, 1, 68, 49
2, 87800542, Note_on_c, 1, 65, 49
2, 87816466, Note_on_c, 1, 60, 0
2, 87845950, Note_on_c, 1, 60, 37
2, 87875704, Note_on_c, 1, 60, 0
2, 87905471, Note_on_c, 1, 60, 37
2, 87935508, Note_on_c, 1, 77, 0
2, 87965545, Note_on_c, 1, 80, 0
2, 87995582, Note_on_c, 1, 60, 0
2, 88025632, Note_on_c, 1, 60, 37
2, 88055952, Note_on_c, 1, 80, 52
2, 88086272, Note_on_c, 1, 77, 52
2, 88116592, Note_on_c, 1, 82, 0
2, 88146912, Note_on_c, 1, 79, 0
2, 88164669, Note_on_c, 1, 60, 0
2, 88184760, Note_on_c, 1, 60, 37
2, 88205251, Note_on_c, 1, 60, 0
2, 88225755, Note_on_c, 1, 60, 39
2, 88246531, Note_on_c, 1, 79, 61
2, 88267307, Note_on_c, 1, 82, 61
2, 88288083, Note_on_c, 1, 79, 0
2, 88308859, Note_on_c, 1, 76, 0
2, 88324297, Note_on_c, 1, 60, 0
2, 88353501, Note_on_c, 1, 76, 58
2, 88355157, Note_on_c, 1, 79, 58
2, 88356813, Note_on_c, 1, 60, 37
2, 88378099, Note_on_c, 1, 60, 0
2, 88397409, Note_on_c, 1, 60, 37
2, 88416992, Note_on_c, 1, 55, 0
2, 88436575, Note_on_c, 1, 58, 0
2, 88450002, Note_on_c, 1, 58, 44
2, 88476898, Note_on_c, 1, 55, 44
2, 88503794, Note_on_c, 1, 55, 0
2, 88530690, Note_on_c, 1, 52, 0
2, 88557586, Note_on_c, 1, 60, 0
2, 88584495, Note_on_c, 1, 60, 37
2, 88611675, Note_on_c, 1, 52, 49
2, 88638855, Note_on_c, 1, 55, 49
2, 88666035, Note_on_c, 1, 60, 0
2, 88693228, Note_on_c, 1, 60, 39
2, 88720693, Note_on_c, 1, 60, 0
2, 88748171, Note_on_c, 1, 60, 38
2, 88775920, Note_on_c, 1, 67, 0
2, 88803669, Note_on_c, 1, 64, 0
2, 88821394, Note_on_c, 1, 60, 0
2, 88844024, Note_on_c, 1, 60, 37
2, 88866926, Note_on_c, 1, 64, 50
2, 88889828, Note_on_c, 1, 67, 50
2, 88914941, Note_on_c, 1, 60, 0
2, 88917037, Note_on_c, 1, 60, 37
2, 88919403, Note_on_c, 1, 60, 0
2, 88921782, Note_on_c, 1, 60, 38
2, 88924430, Note_on_c, 1, 79, 0
2, 88927078, Note_on_c, 1, 76, 0
2, 88929726, Note_on_c, 1, 60, 0
2, 88932387, Note_on_c, 1, 60, 37
2, 88935318, Note_on_c, 1, 76, 52
2, 88938249, Note_on_c, 1, 79, 52
2, 88941180, Note_on_c, 1, 80, 0
2, 88944111, Note_on_c, 1, 77, 0
2, 88971056, Note_on_c, 1, 60, 0
2, 88994955, Note_on_c, 1, 60, 37
2, 89019126, Note_on_c, 1, 60, 0
2, 89043310, Note_on_c, 1, 60, 39
2, 89067895, Note_on_c, 1, 77, 58
2, 89092480, Note_on_c, 1, 80, 58
2, 89117065, Note_on_c, 1, 79, 0
2, 89141650, Note_on_c, 1, 76, 0
2, 89157885, Note_on_c, 1, 60, 0
2, 89182319, Note_on_c, 1, 76, 52
2, 89206960, Note_on_c, 1, 79, 52
2, 89231601, Note_on_c, 1, 76, 0
2, 89256242, Note_on_c, 1, 79, 0
2, 89256844, Note_on_c, 1, 60, 37
2, 89265650, Note_on_c, 1, 60, 0
2, 89274469, Note_on_c, 1, 60, 37
2, 89276072, Note_on_c, 1, 60, 0
2, 89301241, Note_on_c, 1, 60, 38
2, 89326682, Note_on_c, 1, 79, 56
2, 89352123, Note_on_c, 1, 76, 56
2, 89375486, Note_on_c, 1, 60, 0
2, 89406061, Note_on_c, 1, 60, 37
2, 89436907, Note_on_c, 1, 60, 0
2, 89467894, Note_on_c, 1, 60, 37
2, 89492524, Note_on_c, 1, 60, 0
2, 89518677, Note_on_c, 1, 60, 37
2, 89538759, Note_on_c, 1, 60, 0
2, 89565197, Note_on_c, 1, 60, 37
2, 89591907, Note_on_c, 1, 60, 0
2, 89618631, Note_on_c, 1, 60, 37
2, 89645627, Note_on_c, 1, 60, 0
2, 89672764, Note_on_c, 1, 60, 38
2, 89698185, Note_on_c, 1, 60, 0
2, 89728978, Note_on_c, 1, 60, 37
2, 89760042, Note_on_c, 1, 79, 0
2, 89791106, Note_on_c, 1, 76, 0
2, 89822170, Note_on_c, 1, 84, 0
2, 89853234, Note_on_c, 1, 60, 0
2, 89884311, Note_on_c, 1, 60, 37
2, 89915660, Note_on_c, 1, 64, 0
2, 89947009, Note_on_c, 1, 67, 0
2, 89973698, Note_on_c, 1, 67, 39
2, 90001963, Note_on_c, 1, 64, 39
2, 90030228, Note_on_c, 1, 84, 52
2, 90058493, Note_on_c, 1, 76, 52
2, 90086758, Note_on_c, 1, 79, 52
2, 90115023, Note_on_c, 1, 85, 0
2, 90143288, Note_on_c, 1, 77, 0
2, 90171553, Note_on_c, 1, 80, 0
2, 90195443, Note_on_c, 1, 72, 0
2, 90223721, Note_on_c, 1, 72, 37
2, 90252400, Note_on_c, 1, 72, 0
2, 90281092, Note_on_c, 1, 72, 37
2, 90310056, Note_on_c, 1, 65, 0
2, 90339020, Note_on_c, 1, 68, 0
2, 90367984, Note_on_c, 1, 68, 37
2, 90397233, Note_on_c, 1, 65, 37
2, 90423091, Note_on_c, 1, 72, 0
2, 90452354, Note_on_c, 1, 72, 37
2, 90481889, Note_on_c, 1, 72, 0
2, 90511437, Note_on_c, 1, 72, 37
2, 90541257, Note_on_c, 1, 65, 0
2, 90571077, Note_on_c, 1, 68, 0
2, 90600897, Note_on_c, 1, 68, 37
2, 90631131, Note_on_c, 1, 65, 37
2, 90631164, Note_on_c, 1, 72, 0
2, 90633744, Note_on_c, 1, 72, 37
2, 90636595, Note_on_c, 1, 72, 0
2, 90639459, Note_on_c, 1, 72, 37
2, 90642594, Note_on_c, 1, 68, 0
2, 90645729, Note_on_c, 1, 65, 0
2, 90648864, Note_on_c, 1, 65, 40
2, 90652283, Note_on_c, 1, 68, 40
2, 90659249, Note_on_c, 1, 72, 0
2, 90662681, Note_on_c, 1, 72, 38
2, 90666384, Note_on_c, 1, 72, 0
2, 90670228, Note_on_c, 1, 72, 38
2, 90673363, Note_on_c, 1, 85, 75
2, 90705437, Note_on_c, 1, 77, 75
2, 90737511, Note_on_c, 1, 80, 75
2, 90769019, Note_on_c, 1, 72, 0
2, 90801106, Note_on_c, 1, 72, 40
2, 90833465, Note_on_c, 1, 72, 0
2, 90865837, Note_on_c, 1, 72, 40
2, 90865842, Note_on_c, 1, 72, 0
2, 90865860, Note_on_c, 1, 72, 46
2, 90871530, Note_on_c, 1, 72, 0
2, 90876923, Note_on_c, 1, 72, 38
2, 90882587, Note_on_c, 1, 72, 0
2, 90888264, Note_on_c, 1, 72, 37
2, 90895201, Note_on_c, 1, 72, 0
2, 90896075, Note_on_c, 1, 72, 41
2, 90898495, Note_on_c, 1, 72, 0
2, 90899782, Note_on_c, 1, 72, 37
2, 90901341, Note_on_c, 1, 72, 0
2, 90902914, Note_on_c, 1, 72, 37
2, 90904759, Note_on_c, 1, 68, 0
2, 90906604, Note_on_c, 1, 65, 0
2, 90908449, Note_on_c, 1, 65, 39
2, 90910579, Note_on_c, 1, 68, 39
2, 90912709, Note_on_c, 1, 77, 0
2, 90914839, Note_on_c, 1, 80, 0
2, 90927504, Note_on_c, 1, 72, 0
2, 90938052, Note_on_c, 1, 72, 38
2, 90948870, Note_on_c, 1, 72, 0
2, 90959701, Note_on_c, 1, 72, 38
2, 90973631, Note_on_c, 1, 80, 56
2, 90976745, Note_on_c, 1, 77, 56
2, 90982973, Note_on_c, 1, 72, 0
2, 90986100, Note_on_c, 1, 72, 36
2, 90989500, Note_on_c, 1, 72, 0
2, 90992913, Note_on_c, 1, 72, 36
2, 90996598, Note_on_c, 1, 72, 0
2, 91000296, Note_on_c, 1, 72, 39
2, 91013439, Note_on_c, 1, 72, 0
2, 91022497, Note_on_c, 1, 72, 35
2, 91031826, Note_on_c, 1, 72, 0
2, 91041168, Note_on_c, 1, 72, 35
2, 91055578, Note_on_c, 1, 72, 0
2, 91060260, Note_on_c, 1, 72, 39
2, 91070298, Note_on_c, 1, 72, 0
2, 91075266, Note_on_c, 1, 72, 36
2, 91080506, Note_on_c, 1, 72, 0
2, 91085887, Note_on_c, 1, 72, 37
2, 91091540, Note_on_c, 1, 72, 0
2, 91097206, Note_on_c, 1, 72, 39
2, 91103145, Note_on_c, 1, 76, 0
2, 91109084, Note_on_c, 1, 79, 0
2, 91126029, Note_on_c, 1, 72, 0
2, 91137048, Note_on_c, 1, 72, 36
2, 91148338, Note_on_c, 1, 72, 0
2, 91159641, Note_on_c, 1, 72, 36
2, 91171215, Note_on_c, 1, 60, 0
2, 91189426, Note_on_c, 1, 60, 39
2, 91196349, Note_on_c, 1, 79, 58
2, 91203272, Note_on_c, 1, 76, 58
2, 91210195, Note_on_c, 1, 77, 0
2, 91217118, Note_on_c, 1, 71, 0
2, 91224041, Note_on_c, 1, 74, 0
2, 91230964, Note_on_c, 1, 80, 0
2, 91263494, Note_on_c, 1, 80, 73
2, 91289203, Note_on_c, 1, 82, 0
2, 91311567, Note_on_c, 1, 82, 79
2, 91341083, Note_on_c, 1, 79, 0
2, 91370599, Note_on_c, 1, 79, 70
2, 91400335, Note_on_c, 1, 80, 0
2, 91428758, Note_on_c, 1, 80, 67
2, 91460297, Note_on_c, 1, 82, 0
2, 91486921, Note_on_c, 1, 82, 67
2, 91496942, Note_on_c, 1, 80, 0
2, 91503448, Note_on_c, 1, 80, 76
2, 91522211, Note_on_c, 1, 82, 0
2, 91535842, Note_on_c, 1, 82, 68
2, 91565140, Note_on_c, 1, 80, 0
2, 91594117, Note_on_c, 1, 80, 76
2, 91623071, Note_on_c, 1, 82, 0
2, 91624935, Note_on_c, 1, 82, 68
2, 91646986, Note_on_c, 1, 80, 0
2, 91659100, Note_on_c, 1, 80, 76
2, 91675846, Note_on_c, 1, 82, 0
2, 91678452, Note_on_c, 1, 82, 68
2, 91680543, Note_on_c, 1, 80, 0
2, 91712909, Note_on_c, 1, 74, 59
2, 91716050, Note_on_c, 1, 71, 59
2, 91719191, Note_on_c, 1, 80, 76
2, 91722332, Note_on_c, 1, 77, 64
2, 91725473, Note_on_c, 1, 76, 0
2, 91728614, Note_on_c, 1, 70, 0
2, 91731755, Note_on_c, 1, 73, 0
2, 91734896, Note_on_c, 1, 80, 0
2, 91761299, Note_on_c, 1, 80, 87
2, 91784861, Note_on_c, 1, 79, 0
2, 91796706, Note_on_c, 1, 73, 59
2, 91819339, Note_on_c, 1, 70, 59
2, 91841972, Note_on_c, 1, 76, 59
2, 91864605, Note_on_c, 1, 79, 79
2, 91875977, Note_on_c, 1, 88, 0
2, 91897487, Note_on_c, 1, 91, 0
2, 91918997, Note_on_c, 1, 64, 0
2, 91940510, Note_on_c, 1, 58, 0
2, 91962023, Note_on_c, 1, 61, 0
2, 91983536, Note_on_c, 1, 67, 0
2, 92005049, Note_on_c, 1, 91, 94
2, 92027102, Note_on_c, 1, 88, 78
2, 92029006, Note_on_c, 1, 85, 0
2, 92041628, Note_on_c, 1, 88, 0
2, 92054250, Note_on_c, 1, 64, 63
2, 92067153, Note_on_c, 1, 67, 73
2, 92080056, Note_on_c, 1, 58, 55
2, 92092959, Note_on_c, 1, 61, 55
2, 92105862, Note_on_c, 1, 58, 0
2, 92118769, Note_on_c, 1, 64, 0
2, 92131676, Note_on_c, 1, 61, 0
2, 92144583, Note_on_c, 1, 67, 0
2, 92157490, Note_on_c, 1, 88, 103
2, 92170806, Note_on_c, 1, 85, 86
2, 92184122, Note_on_c, 1, 82, 0
2, 92197442, Note_on_c, 1, 85, 0
2, 92210762, Note_on_c, 1, 58, 61
2, 92224363, Note_on_c, 1, 67, 81
2, 92237964, Note_on_c, 1, 64, 69
2, 92251565, Note_on_c, 1, 61, 61
2, 92265166, Note_on_c, 1, 61, 0
2, 92278771, Note_on_c, 1, 64, 0
2, 92292376, Note_on_c, 1, 58, 0
2, 92305981, Note_on_c, 1, 67, 0
2, 92319586, Note_on_c, 1, 85, 95
2, 92333472, Note_on_c, 1, 82, 80
2, 92347358, Note_on_c, 1, 82, 0
2, 92361248, Note_on_c, 1, 79, 0
2, 92375138, Note_on_c, 1, 61, 55
2, 92389309, Note_on_c, 1, 67, 73
2, 92403480, Note_on_c, 1, 64, 63
2, 92417651, Note_on_c, 1, 58, 55
2, 92431822, Note_on_c, 1, 67, 0
2, 92445997, Note_on_c, 1, 64, 0
2, 92460172, Note_on_c, 1, 58, 0
2, 92474347, Note_on_c, 1, 61, 0
2, 92488522, Note_on_c, 1, 79, 85
2, 92502978, Note_on_c, 1, 82, 101
2, 92517434, Note_on_c, 1, 76, 0
2, 92531893, Note_on_c, 1, 79, 0
2, 92546352, Note_on_c, 1, 67, 76
2, 92561221, Note_on_c, 1, 61, 57
2, 92576090, Note_on_c, 1, 64, 64
2, 92590959, Note_on_c, 1, 58, 57
2, 92605828, Note_on_c, 1, 49, 0
2, 92620700, Note_on_c, 1, 52, 0
2, 92635572, Note_on_c, 1, 46, 0
2, 92650444, Note_on_c, 1, 55, 0
2, 92665316, Note_on_c, 1, 79, 96
2, 92680470, Note_on_c, 1, 76, 81
2, 92695624, Note_on_c, 1, 76, 0
2, 92710781, Note_on_c, 1, 73, 0
2, 92725938, Note_on_c, 1, 49, 61
2, 92741377, Note_on_c, 1, 55, 81
2, 92756816, Note_on_c, 1, 52, 69
2, 92772255, Note_on_c, 1, 46, 61
2, 92787694, Note_on_c, 1, 73, 85
2, 92803418, Note_on_c, 1, 76, 101
2, 92807532, Note_on_c, 1, 67, 0
2, 92828564, Note_on_c, 1, 64, 0
2, 92849596, Note_on_c, 1, 64, 81
2, 92870969, Note_on_c, 1, 67, 103
2, 92892342, Note_on_c, 1, 68, 0
2, 92913715, Note_on_c, 1, 72, 0
2, 92935088, Note_on_c, 1, 77, 0
2, 92959161, Note_on_c, 1, 77, 44
2, 92961834, Note_on_c, 1, 76, 0
2, 92970087, Note_on_c, 1, 76, 48
2, 92975759, Note_on_c, 1, 77, 0
2, 92981431, Note_on_c, 1, 77, 42
2, 92987324, Note_on_c, 1, 79, 0
2, 92999904, Note_on_c, 1, 79, 46
2, 93006675, Note_on_c, 1, 77, 0
2, 93015687, Note_on_c, 1, 77, 40
2, 93033640, Note_on_c, 1, 79, 0
2, 93046777, Note_on_c, 1, 79, 43
2, 93073419, Note_on_c, 1, 77, 0
2, 93094226, Note_on_c, 1, 77, 46
2, 93094343, Note_on_c, 1, 79, 0
2, 93115431, Note_on_c, 1, 79, 42
2, 93129789, Note_on_c, 1, 77, 0
2, 93150880, Note_on_c, 1, 77, 46
2, 93153281, Note_on_c, 1, 79, 0
2, 93156163, Note_on_c, 1, 79, 41
2, 93156697, Note_on_c, 1, 77, 0
2, 93188460, Note_on_c, 1, 77, 46
2, 93219743, Note_on_c, 1, 79, 0
2, 93247497, Note_on_c, 1, 79, 41
2, 93276790, Note_on_c, 1, 77, 0
2, 93300667, Note_on_c, 1, 77, 46
2, 93328073, Note_on_c, 1, 79, 0
2, 93348041, Note_on_c, 1, 79, 41
2, 93373426, Note_on_c, 1, 77, 0
2, 93389345, Note_on_c, 1, 72, 36
2, 93412702, Note_on_c, 1, 68, 36
2, 93436059, Note_on_c, 1, 77, 46
2, 93459416, Note_on_c, 1, 67, 0
2, 93482773, Note_on_c, 1, 70, 0
2, 93506130, Note_on_c, 1, 77, 0
2, 93512294, Note_on_c, 1, 77, 52
2, 93528172, Note_on_c, 1, 76, 0
2, 93540206, Note_on_c, 1, 70, 36
2, 93570712, Note_on_c, 1, 67, 36
2, 93601218, Note_on_c, 1, 76, 48
2, 93601554, Note_on_c, 1, 82, 0
2, 93604154, Note_on_c, 1, 88, 0
2, 93606754, Note_on_c, 1, 79, 0
2, 93609354, Note_on_c, 1, 52, 0
2, 93611958, Note_on_c, 1, 46, 0
2, 93614562, Note_on_c, 1, 43, 0
2, 93617166, Note_on_c, 1, 82, 78
2, 93620309, Note_on_c, 1, 88, 94
2, 93623452, Note_on_c, 1, 79, 78
2, 93646820, Note_on_c, 1, 82, 0
2, 93667049, Note_on_c, 1, 79, 0
2, 93687278, Note_on_c, 1, 76, 0
2, 93707507, Note_on_c, 1, 46, 63
2, 93728017, Note_on_c, 1, 52, 73
2, 93748527, Note_on_c, 1, 43, 55
2, 93769037, Note_on_c, 1, 52, 0
2, 93789551, Note_on_c, 1, 43, 0
2, 93810065, Note_on_c, 1, 46, 0
2, 93830579, Note_on_c, 1, 79, 86
2, 93851374, Note_on_c, 1, 82, 103
2, 93872169, Note_on_c, 1, 76, 76
2, 93892964, Note_on_c, 1, 79, 0
2, 93913762, Note_on_c, 1, 76, 0
2, 93934560, Note_on_c, 1, 70, 0
2, 93955358, Note_on_c, 1, 43, 61
2, 93976438, Note_on_c, 1, 52, 81
2, 93997518, Note_on_c, 1, 46, 69
2, 94018598, Note_on_c, 1, 52, 0
2, 94039681, Note_on_c, 1, 46, 0
2, 94060764, Note_on_c, 1, 43, 0
2, 94081847, Note_on_c, 1, 76, 80
2, 94103212, Note_on_c, 1, 79, 95
2, 94124577, Note_on_c, 1, 70, 72
2, 94145942, Note_on_c, 1, 76, 0
2, 94167310, Note_on_c, 1, 67, 0
2, 94188678, Note_on_c, 1, 70, 0
2, 94210046, Note_on_c, 1, 46, 63
2, 94231824, Note_on_c, 1, 52, 73
2, 94253602, Note_on_c, 1, 43, 55
2, 94275380, Note_on_c, 1, 43, 0
2, 94297161, Note_on_c, 1, 52, 0
2, 94318942, Note_on_c, 1, 46, 0
2, 94340723, Note_on_c, 1, 67, 75
2, 94362786, Note_on_c, 1, 76, 101
2, 94384849, Note_on_c, 1, 70, 85
2, 94406912, Note_on_c, 1, 70, 0
2, 94428978, Note_on_c, 1, 64, 0
2, 94451044, Note_on_c, 1, 67, 0
2, 94473110, Note_on_c, 1, 52, 76
2, 94495458, Note_on_c, 1, 43, 57
2, 94517806, Note_on_c, 1, 46, 64
2, 94540154, Note_on_c, 1, 52, 0
2, 94562505, Note_on_c, 1, 46, 0
2, 94584856, Note_on_c, 1, 43, 0
2, 94607207, Note_on_c, 1, 64, 72
2, 94629840, Note_on_c, 1, 70, 96
2, 94652473, Note_on_c, 1, 67, 81
2, 94675106, Note_on_c, 1, 58, 0
2, 94697742, Note_on_c, 1, 64, 0
2, 94720378, Note_on_c, 1, 67, 0
2, 94743014, Note_on_c, 1, 46, 69
2, 94766060, Note_on_c, 1, 52, 81
2, 94789106, Note_on_c, 1, 43, 61
2, 94812152, Note_on_c, 1, 67, 101
2, 94835483, Note_on_c, 1, 58, 85
2, 94858814, Note_on_c, 1, 64, 85
2, 94880685, Note_on_c, 1, 55, 0
2, 94911995, Note_on_c, 1, 64, 0
2, 94943305, Note_on_c, 1, 58, 0
2, 94974615, Note_on_c, 1, 58, 81
2, 95006394, Note_on_c, 1, 64, 103
2, 95038173, Note_on_c, 1, 55, 81
2, 95069952, Note_on_c, 1, 68, 0
2, 95101731, Note_on_c, 1, 65, 0
2, 95133510, Note_on_c, 1, 74, 0
2, 95144826, Note_on_c, 1, 74, 44
2, 95157232, Note_on_c, 1, 72, 0
2, 95184142, Note_on_c, 1, 72, 48
2, 95198739, Note_on_c, 1, 74, 0
2, 95213336, Note_on_c, 1, 74, 41
2, 95228025, Note_on_c, 1, 76, 0
2, 95257529, Note_on_c, 1, 76, 42
2, 95272428, Note_on_c, 1, 74, 0
2, 95296594, Note_on_c, 1, 74, 37
2, 95322479, Note_on_c, 1, 76, 0
2, 95342247, Note_on_c, 1, 76, 38
2, 95343872, Note_on_c, 1, 74, 0
2, 95363093, Note_on_c, 1, 74, 41
2, 95371050, Note_on_c, 1, 76, 0
2, 95390092, Note_on_c, 1, 76, 37
2, 95411947, Note_on_c, 1, 74, 0
2, 95423281, Note_on_c, 1, 74, 40
2, 95433382, Note_on_c, 1, 76, 0
2, 95451676, Note_on_c, 1, 76, 36
2, 95459923, Note_on_c, 1, 74, 0
2, 95474356, Note_on_c, 1, 74, 41
2, 95480596, Note_on_c, 1, 76, 0
2, 95491173, Note_on_c, 1, 76, 37
2, 95495564, Note_on_c, 1, 74, 0
2, 95502290, Note_on_c, 1, 74, 42
2, 95504679, Note_on_c, 1, 76, 0
2, 95507523, Note_on_c, 1, 76, 39
2, 95507904, Note_on_c, 1, 74, 0
2, 95539493, Note_on_c, 1, 65, 30
2, 95570755, Note_on_c, 1, 68, 29
2, 95602017, Note_on_c, 1, 74, 44
2, 95633279, Note_on_c, 1, 67, 0
2, 95664541, Note_on_c, 1, 64, 0
2, 95695803, Note_on_c, 1, 74, 0
2, 95718159, Note_on_c, 1, 74, 45
2, 95742324, Note_on_c, 1, 72, 0
2, 95770518, Note_on_c, 1, 64, 30
2, 95776001, Note_on_c, 1, 67, 30
2, 95781484, Note_on_c, 1, 72, 41
2, 95803552, Note_on_c, 1, 79, 0
2, 95820011, Note_on_c, 1, 84, 0
2, 95836470, Note_on_c, 1, 76, 0
2, 95852929, Note_on_c, 1, 48, 0
2, 95869392, Note_on_c, 1, 40, 0
2, 95885855, Note_on_c, 1, 43, 0
2, 95902318, Note_on_c, 1, 79, 78
2, 95919320, Note_on_c, 1, 84, 94
2, 95936322, Note_on_c, 1, 76, 78
2, 95948388, Note_on_c, 1, 72, 0
2, 95976095, Note_on_c, 1, 76, 0
2, 96003802, Note_on_c, 1, 79, 0
2, 96031509, Note_on_c, 1, 40, 55
2, 96059498, Note_on_c, 1, 48, 73
2, 96087487, Note_on_c, 1, 43, 63
2, 96115476, Note_on_c, 1, 48, 0
2, 96143468, Note_on_c, 1, 43, 0
2, 96171460, Note_on_c, 1, 40, 0
2, 96199452, Note_on_c, 1, 76, 86
2, 96227726, Note_on_c, 1, 72, 76
2, 96256000, Note_on_c, 1, 79, 103
2, 96284274, Note_on_c, 1, 67, 0
2, 96312551, Note_on_c, 1, 72, 0
2, 96340828, Note_on_c, 1, 76, 0
2, 96369105, Note_on_c, 1, 43, 69
2, 96397792, Note_on_c, 1, 48, 81
2, 96426479, Note_on_c, 1, 40, 61
2, 96455166, Note_on_c, 1, 48, 0
2, 96483856, Note_on_c, 1, 40, 0
2, 96512546, Note_on_c, 1, 43, 0
2, 96541236, Note_on_c, 1, 72, 80
2, 96570208, Note_on_c, 1, 67, 72
2, 96599180, Note_on_c, 1, 76, 95
2, 96628152, Note_on_c, 1, 64, 0
2, 96657127, Note_on_c, 1, 67, 0
2, 96686102, Note_on_c, 1, 72, 0
2, 96715077, Note_on_c, 1, 40, 55
2, 96744334, Note_on_c, 1, 48, 73
2, 96773591, Note_on_c, 1, 43, 63
2, 96802848, Note_on_c, 1, 48, 0
2, 96832108, Note_on_c, 1, 43, 0
2, 96861368, Note_on_c, 1, 40, 0
2, 96890628, Note_on_c, 1, 67, 81
2, 96920170, Note_on_c, 1, 64, 72
2, 96949712, Note_on_c, 1, 72, 98
2, 96979254, Note_on_c, 1, 67, 0
2, 97008799, Note_on_c, 1, 60, 0
2, 97038344, Note_on_c, 1, 64, 0
2, 97067889, Note_on_c, 1, 43, 64
2, 97097844, Note_on_c, 1, 48, 76
2, 97127799, Note_on_c, 1, 40, 57
2, 97157754, Note_on_c, 1, 40, 0
2, 97187712, Note_on_c, 1, 48, 0
2, 97217670, Note_on_c, 1, 43, 0
2, 97247628, Note_on_c, 1, 60, 72
2, 97277868, Note_on_c, 1, 67, 96
2, 97308108, Note_on_c, 1, 64, 81
2, 97338348, Note_on_c, 1, 60, 0
2, 97368591, Note_on_c, 1, 64, 0
2, 97398834, Note_on_c, 1, 55, 0
2, 97429077, Note_on_c, 1, 48, 81
2, 97459602, Note_on_c, 1, 40, 61
2, 97490127, Note_on_c, 1, 43, 69
2, 97520652, Note_on_c, 1, 55, 75
2, 97551462, Note_on_c, 1, 60, 85
2, 97582272, Note_on_c, 1, 64, 101
2, 97589260, Note_on_c, 1, 60, 0
2, 97598080, Note_on_c, 1, 55, 0
2, 97606900, Note_on_c, 1, 52, 0
2, 97615720, Note_on_c, 1, 52, 81
2, 97625009, Note_on_c, 1, 55, 81
2, 97634298, Note_on_c, 1, 60, 103
2, 97643587, Note_on_c, 1, 68, 0
2, 97652876, Note_on_c, 1, 71, 0
2, 97662165, Note_on_c, 1, 65, 0
2, 97671454, Note_on_c, 1, 74, 0
2, 97702780, Note_on_c, 1, 74, 38
2, 97724919, Note_on_c, 1, 76, 0
2, 97737719, Note_on_c, 1, 76, 41
2, 97761112, Note_on_c, 1, 72, 0
2, 97784505, Note_on_c, 1, 72, 36
2, 97808119, Note_on_c, 1, 74, 0
2, 97821780, Note_on_c, 1, 74, 35
2, 97844679, Note_on_c, 1, 76, 0
2, 97851365, Note_on_c, 1, 76, 39
2, 97880879, Note_on_c, 1, 74, 0
2, 97913508, Note_on_c, 1, 74, 35
2, 97916656, Note_on_c, 1, 76, 0
2, 97942034, Note_on_c, 1, 76, 37
2, 97951538, Note_on_c, 1, 74, 0
2, 97969046, Note_on_c, 1, 74, 39
2, 97984716, Note_on_c, 1, 76, 0
2, 98001715, Note_on_c, 1, 76, 36
2, 98031195, Note_on_c, 1, 74, 0
2, 98032773, Note_on_c, 1, 74, 38
2, 98050701, Note_on_c, 1, 76, 0
2, 98051766, Note_on_c, 1, 76, 36
2, 98067725, Note_on_c, 1, 74, 0
2, 98097724, Note_on_c, 1, 74, 39
2, 98111818, Note_on_c, 1, 76, 0
2, 98137987, Note_on_c, 1, 76, 36
2, 98150116, Note_on_c, 1, 74, 0
2, 98172459, Note_on_c, 1, 76, 0
2, 98182700, Note_on_c, 1, 74, 38
2, 98201187, Note_on_c, 1, 76, 35
2, 98209460, Note_on_c, 1, 74, 0
2, 98224078, Note_on_c, 1, 68, 30
2, 98230478, Note_on_c, 1, 71, 30
2, 98236878, Note_on_c, 1, 65, 30
2, 98243278, Note_on_c, 1, 74, 38
2, 98249678, Note_on_c, 1, 64, 0
2, 98256078, Note_on_c, 1, 67, 0
2, 98262478, Note_on_c, 1, 74, 0
2, 98268387, Note_on_c, 1, 74, 45
2, 98300966, Note_on_c, 1, 72, 0
2, 98312551, Note_on_c, 1, 67, 30
2, 98325907, Note_on_c, 1, 64, 30
2, 98339263, Note_on_c, 1, 72, 41
2, 98344741, Note_on_c, 1, 79, 0
2, 98369634, Note_on_c, 1, 76, 0
2, 98394527, Note_on_c, 1, 84, 0
2, 98419420, Note_on_c, 1, 48, 0
2, 98444316, Note_on_c, 1, 43, 0
2, 98469212, Note_on_c, 1, 40, 0
2, 98494108, Note_on_c, 1, 79, 78
2, 98519545, Note_on_c, 1, 76, 78
2, 98544982, Note_on_c, 1, 84, 94
2, 98572962, Note_on_c, 1, 72, 0
2, 98575380, Note_on_c, 1, 76, 0
2, 98577798, Note_on_c, 1, 79, 0
2, 98580216, Note_on_c, 1, 43, 63
2, 98583044, Note_on_c, 1, 48, 73
2, 98585872, Note_on_c, 1, 40, 55
2, 98588700, Note_on_c, 1, 48, 0
2, 98591531, Note_on_c, 1, 40, 0
2, 98594362, Note_on_c, 1, 43, 0
2, 98597193, Note_on_c, 1, 76, 86
2, 98600306, Note_on_c, 1, 72, 76
2, 98603419, Note_on_c, 1, 79, 103
2, 98606532, Note_on_c, 1, 67, 0
2, 98609648, Note_on_c, 1, 72, 0
2, 98612764, Note_on_c, 1, 76, 0
2, 98615880, Note_on_c, 1, 40, 61
2, 98619278, Note_on_c, 1, 48, 81
2, 98622676, Note_on_c, 1, 43, 69
2, 98626074, Note_on_c, 1, 48, 0
2, 98629475, Note_on_c, 1, 43, 0
2, 98632876, Note_on_c, 1, 40, 0
2, 98636277, Note_on_c, 1, 72, 80
2, 98639960, Note_on_c, 1, 67, 72
2, 98643643, Note_on_c, 1, 76, 95
2, 98647326, Note_on_c, 1, 72, 0
2, 98651012, Note_on_c, 1, 64, 0
2, 98654698, Note_on_c, 1, 67, 0
2, 98658384, Note_on_c, 1, 43, 63
2, 98662480, Note_on_c, 1, 48, 73
2, 98666576, Note_on_c, 1, 40, 55
2, 98670672, Note_on_c, 1, 40, 0
2, 98674771, Note_on_c, 1, 48, 0
2, 98678870, Note_on_c, 1, 43, 0
2, 98682969, Note_on_c, 1, 64, 72
2, 98687349, Note_on_c, 1, 72, 98
2, 98691729, Note_on_c, 1, 67, 81
2, 98696109, Note_on_c, 1, 67, 0
2, 98700493, Note_on_c, 1, 64, 0
2, 98704877, Note_on_c, 1, 60, 0
2, 98709261, Note_on_c, 1, 48, 76
2, 98713926, Note_on_c, 1, 40, 57
2, 98718591, Note_on_c, 1, 43, 64
2, 98723256, Note_on_c, 1, 48, 0
2, 98727925, Note_on_c, 1, 43, 0
2, 98732594, Note_on_c, 1, 40, 0
2, 98737263, Note_on_c, 1, 64, 81
2, 98742213, Note_on_c, 1, 67, 96
2, 98747163, Note_on_c, 1, 60, 72
2, 98752113, Note_on_c, 1, 64, 0
2, 98757067, Note_on_c, 1, 60, 0
2, 98762021, Note_on_c, 1, 55, 0
2, 98766975, Note_on_c, 1, 43, 69
2, 98772210, Note_on_c, 1, 48, 81
2, 98777445, Note_on_c, 1, 40, 61
2, 98782680, Note_on_c, 1, 55, 75
2, 98788328, Note_on_c, 1, 64, 101
2, 98793976, Note_on_c, 1, 60, 85
2, 98818849, Note_on_c, 1, 60, 0
2, 98838075, Note_on_c, 1, 52, 0
2, 98857301, Note_on_c, 1, 55, 0
2, 98876527, Note_on_c, 1, 55, 81
2, 98896094, Note_on_c, 1, 52, 81
2, 98915661, Note_on_c, 1, 60, 103
2, 98935228, Note_on_c, 1, 65, 0
2, 98954795, Note_on_c, 1, 41, 0
2, 98981003, Note_on_c, 1, 41, 31
2, 98998258, Note_on_c, 1, 65, 40
2, 98998815, Note_on_c, 1, 77, 0
2, 99014760, Note_on_c, 1, 53, 0
2, 99015611, Note_on_c, 1, 53, 34
2, 99033867, Note_on_c, 1, 77, 40
2, 99052123, Note_on_c, 1, 72, 0
2, 99070379, Note_on_c, 1, 48, 0
2, 99082439, Note_on_c, 1, 48, 29
2, 99109100, Note_on_c, 1, 72, 37
2, 99135761, Note_on_c, 1, 69, 0
2, 99162422, Note_on_c, 1, 45, 0
2, 99184271, Note_on_c, 1, 45, 34
2, 99203528, Note_on_c, 1, 69, 43
2, 99222785, Note_on_c, 1, 65, 0
2, 99242042, Note_on_c, 1, 41, 0
2, 99245644, Note_on_c, 1, 41, 34
2, 99263605, Note_on_c, 1, 65, 40
2, 99281566, Note_on_c, 1, 60, 0
2, 99299527, Note_on_c, 1, 36, 0
2, 99308000, Note_on_c, 1, 36, 28
2, 99331375, Note_on_c, 1, 60, 35
2, 99354750, Note_on_c, 1, 57, 0
2, 99378125, Note_on_c, 1, 33, 0
2, 99387713, Note_on_c, 1, 33, 33
2, 99415987, Note_on_c, 1, 57, 41
2, 99444261, Note_on_c, 1, 36, 0
2, 99472535, Note_on_c, 1, 33, 0
2, 99500809, Note_on_c, 1, 77, 0
2, 99529083, Note_on_c, 1, 89, 0
2, 99557357, Note_on_c, 1, 84, 0
2, 99585631, Note_on_c, 1, 29, 0
2, 99613905, Note_on_c, 1, 81, 0
2, 99642179, Note_on_c, 1, 41, 0
2, 99660472, Note_on_c, 1, 41, 81
2, 99686338, Note_on_c, 1, 36, 69
2, 99712204, Note_on_c, 1, 33, 61
2, 99738070, Note_on_c, 1, 29, 61
2, 99763936, Note_on_c, 1, 77, 76
2, 99789802, Note_on_c, 1, 89, 103
2, 99815668, Note_on_c, 1, 84, 86
2, 99841534, Note_on_c, 1, 81, 86
2, 99867400, Note_on_c, 1, 72, 0
2, 99893267, Note_on_c, 1, 84, 0
2, 99919134, Note_on_c, 1, 81, 0
2, 99945001, Note_on_c, 1, 77, 0
2, 99970868, Note_on_c, 1, 29, 0
2, 99996737, Note_on_c, 1, 36, 0
2, 100022606, Note_on_c, 1, 41, 0
2, 100048475, Note_on_c, 1, 33, 0
2, 100074344, Note_on_c, 1, 81, 78
2, 100100509, Note_on_c, 1, 72, 71
2, 100126674, Note_on_c, 1, 84, 94
2, 100152839, Note_on_c, 1, 77, 78
2, 100160061, Note_on_c, 1, 69, 0
2, 100173889, Note_on_c, 1, 81, 0
2, 100187717, Note_on_c, 1, 72, 0
2, 100201545, Note_on_c, 1, 77, 0
2, 100215373, Note_on_c, 1, 36, 63
2, 100229483, Note_on_c, 1, 41, 73
2, 100243593, Note_on_c, 1, 29, 55
2, 100257703, Note_on_c, 1, 33, 55
2, 100271813, Note_on_c, 1, 36, 0
2, 100285926, Note_on_c, 1, 29, 0
2, 100300039, Note_on_c, 1, 41, 0
2, 100314152, Note_on_c, 1, 33, 0
2, 100328265, Note_on_c, 1, 81, 103
2, 100342660, Note_on_c, 1, 72, 76
2, 100357055, Note_on_c, 1, 69, 76
2, 100371450, Note_on_c, 1, 77, 86
2, 100385845, Note_on_c, 1, 77, 0
2, 100400243, Note_on_c, 1, 65, 0
2, 100414641, Note_on_c, 1, 72, 0
2, 100429039, Note_on_c, 1, 69, 0
2, 100443437, Note_on_c, 1, 29, 61
2, 100458117, Note_on_c, 1, 41, 81
2, 100472797, Note_on_c, 1, 36, 69
2, 100487477, Note_on_c, 1, 33, 61
2, 100502157, Note_on_c, 1, 29, 0
2, 100516840, Note_on_c, 1, 36, 0
2, 100531523, Note_on_c, 1, 41, 0
2, 100546206, Note_on_c, 1, 33, 0
2, 100560889, Note_on_c, 1, 65, 72
2, 100575854, Note_on_c, 1, 72, 80
2, 100590819, Note_on_c, 1, 77, 95
2, 100605784, Note_on_c, 1, 69, 72
2, 100620749, Note_on_c, 1, 65, 0
2, 100635717, Note_on_c, 1, 69, 0
2, 100650685, Note_on_c, 1, 72, 0
2, 100665653, Note_on_c, 1, 60, 0
2, 100680621, Note_on_c, 1, 36, 63
2, 100695999, Note_on_c, 1, 41, 73
2, 100711377, Note_on_c, 1, 29, 55
2, 100726755, Note_on_c, 1, 33, 55
2, 100742133, Note_on_c, 1, 36, 0
2, 100757514, Note_on_c, 1, 29, 0
2, 100772895, Note_on_c, 1, 41, 0
2, 100788276, Note_on_c, 1, 33, 0
2, 100803657, Note_on_c, 1, 69, 79
2, 100819320, Note_on_c, 1, 72, 96
2, 100834983, Note_on_c, 1, 65, 71
2, 100850646, Note_on_c, 1, 60, 71
2, 100866309, Note_on_c, 1, 65, 0
2, 100881975, Note_on_c, 1, 57, 0
2, 100897641, Note_on_c, 1, 69, 0
2, 100913307, Note_on_c, 1, 60, 0
2, 100928973, Note_on_c, 1, 29, 57
2, 100944921, Note_on_c, 1, 41, 76
2, 100960869, Note_on_c, 1, 36, 64
2, 100976817, Note_on_c, 1, 33, 57
2, 100992765, Note_on_c, 1, 29, 0
2, 101008716, Note_on_c, 1, 36, 0
2, 101024667, Note_on_c, 1, 41, 0
2, 101040618, Note_on_c, 1, 33, 0
2, 101056569, Note_on_c, 1, 57, 72
2, 101072802, Note_on_c, 1, 69, 96
2, 101089035, Note_on_c, 1, 65, 81
2, 101105268, Note_on_c, 1, 60, 72
2, 101121501, Note_on_c, 1, 53, 0
2, 101137737, Note_on_c, 1, 57, 0
2, 101153973, Note_on_c, 1, 60, 0
2, 101170209, Note_on_c, 1, 65, 0
2, 101186445, Note_on_c, 1, 36, 69
2, 101203090, Note_on_c, 1, 41, 81
2, 101219735, Note_on_c, 1, 29, 61
2, 101236380, Note_on_c, 1, 33, 61
2, 101253025, Note_on_c, 1, 65, 101
2, 101269955, Note_on_c, 1, 60, 85
2, 101286885, Note_on_c, 1, 53, 75
2, 101303815, Note_on_c, 1, 57, 75
2, 101320745, Note_on_c, 1, 29, 0
2, 101339549, Note_on_c, 1, 53, 0
2, 101341425, Note_on_c, 1, 29, 81
2, 101343770, Note_on_c, 1, 53, 103
2, 101346115, Note_on_c, 1, 57, 0
2, 101348460, Note_on_c, 1, 33, 0
2, 101369748, Note_on_c, 1, 33, 25
2, 101388782, Note_on_c, 1, 57, 31
2, 101407816, Note_on_c, 1, 60, 0
2, 101426850, Note_on_c, 1, 36, 0
2, 101453035, Note_on_c, 1, 36, 27
2, 101485387, Note_on_c, 1, 60, 35
2, 101514440, Note_on_c, 1, 40, 0
2, 101543975, Note_on_c, 1, 36, 0
2, 101573510, Note_on_c, 1, 52, 0
2, 101603045, Note_on_c, 1, 60, 0
2, 101632580, Note_on_c, 1, 55, 0
2, 101662115, Note_on_c, 1, 55, 48
2, 101663477, Note_on_c, 1, 40, 40
2, 101664839, Note_on_c, 1, 60, 48
2, 101666201, Note_on_c, 1, 36, 40
2, 101667563, Note_on_c, 1, 52, 48
2, 101668925, Note_on_c, 1, 36, 0
2, 101675940, Note_on_c, 1, 36, 66
2, 101682182, Note_on_c, 1, 36, 0
2, 101686886, Note_on_c, 1, 36, 78
2, 101718680, Note_on_c, 1, 41, 0
2, 101750474, Note_on_c, 1, 61, 0
2, 101782268, Note_on_c, 1, 49, 0
2, 101814062, Note_on_c, 1, 56, 0
2, 101845856, Note_on_c, 1, 29, 0
2, 101868393, Note_on_c, 1, 29, 62
2, 101892288, Note_on_c, 1, 41, 68
2, 101916183, Note_on_c, 1, 56, 93
2, 101940078, Note_on_c, 1, 61, 93
2, 101963973, Note_on_c, 1, 49, 93
2, 101987868, Note_on_c, 1, 36, 0
2, 102013216, Note_on_c, 1, 36, 57
2, 102015032, Note_on_c, 1, 36, 0
2, 102016848, Note_on_c, 1, 36, 58
2, 102019155, Note_on_c, 1, 58, 0
2, 102021462, Note_on_c, 1, 43, 0
2, 102023769, Note_on_c, 1, 31, 0
2, 102042479, Note_on_c, 1, 31, 61
2, 102044558, Note_on_c, 1, 43, 66
2, 102046637, Note_on_c, 1, 58, 94
2, 102048716, Note_on_c, 1, 52, 0
2, 102054470, Note_on_c, 1, 36, 0
2, 102063733, Note_on_c, 1, 52, 78
2, 102069207, Note_on_c, 1, 55, 0
2, 102082052, Note_on_c, 1, 55, 86
2, 102089322, Note_on_c, 1, 36, 54
2, 102096592, Note_on_c, 1, 49, 0
2, 102103862, Note_on_c, 1, 36, 0
2, 102120279, Note_on_c, 1, 49, 71
2, 102129338, Note_on_c, 1, 52, 0
2, 102161679, Note_on_c, 1, 36, 51
2, 102174224, Note_on_c, 1, 52, 81
2, 102186769, Note_on_c, 1, 46, 0
2, 102199314, Note_on_c, 1, 36, 0
2, 102226037, Note_on_c, 1, 46, 70
2, 102240229, Note_on_c, 1, 49, 0
2, 102270458, Note_on_c, 1, 49, 80
2, 102286420, Note_on_c, 1, 36, 57
2, 102302382, Note_on_c, 1, 46, 0
2, 102303224, Note_on_c, 1, 36, 0
2, 102320757, Note_on_c, 1, 46, 69
2, 102338485, Note_on_c, 1, 43, 0
2, 102362318, Note_on_c, 1, 36, 52
2, 102381807, Note_on_c, 1, 43, 76
2, 102401296, Note_on_c, 1, 52, 0
2, 102428249, Note_on_c, 1, 36, 0
2, 102435729, Note_on_c, 1, 52, 62
2, 102443415, Note_on_c, 1, 46, 0
2, 102451351, Note_on_c, 1, 46, 77
2, 102451682, Note_on_c, 1, 36, 49
2, 102452013, Note_on_c, 1, 55, 0
2, 102478417, Note_on_c, 1, 36, 0
2, 102499264, Note_on_c, 1, 55, 65
2, 102526947, Note_on_c, 1, 52, 0
2, 102551099, Note_on_c, 1, 52, 76
2, 102580388, Note_on_c, 1, 36, 61
2, 102609677, Note_on_c, 1, 58, 0
2, 102638966, Note_on_c, 1, 36, 0
2, 102664943, Note_on_c, 1, 58, 63
2, 102694437, Note_on_c, 1, 55, 0
2, 102723931, Note_on_c, 1, 36, 50
2, 102753631, Note_on_c, 1, 55, 75
2, 102783331, Note_on_c, 1, 64, 0
2, 102813031, Note_on_c, 1, 36, 0
2, 102842744, Note_on_c, 1, 64, 71
2, 102872522, Note_on_c, 1, 58, 0
2, 102902300, Note_on_c, 1, 36, 47
2, 102932284, Note_on_c, 1, 58, 78
2, 102962268, Note_on_c, 1, 67, 0
2, 102992252, Note_on_c, 1, 36, 0
2, 103022249, Note_on_c, 1, 67, 68
2, 103052311, Note_on_c, 1, 64, 0
2, 103082373, Note_on_c, 1, 36, 52
2, 103112641, Note_on_c, 1, 64, 77
2, 103142909, Note_on_c, 1, 70, 0
2, 103173177, Note_on_c, 1, 36, 0
2, 103203458, Note_on_c, 1, 70, 70
2, 103233931, Note_on_c, 1, 67, 0
2, 103264404, Note_on_c, 1, 36, 48
2, 103294955, Note_on_c, 1, 67, 76
2, 103325506, Note_on_c, 1, 76, 0
2, 103356057, Note_on_c, 1, 36, 0
2, 103386621, Note_on_c, 1, 76, 67
2, 103417378, Note_on_c, 1, 70, 0
2, 103448135, Note_on_c, 1, 36, 45
2, 103478970, Note_on_c, 1, 70, 76
2, 103509805, Note_on_c, 1, 79, 0
2, 103540640, Note_on_c, 1, 36, 0
2, 103571616, Note_on_c, 1, 79, 69
2, 103602657, Note_on_c, 1, 76, 0
2, 103633698, Note_on_c, 1, 36, 55
2, 103664945, Note_on_c, 1, 76, 75
2, 103696192, Note_on_c, 1, 82, 0
2, 103724393, Note_on_c, 1, 36, 0
2, 103754128, Note_on_c, 1, 82, 68
2, 103783928, Note_on_c, 1, 79, 0
2, 103809385, Note_on_c, 1, 36, 45
2, 103837862, Note_on_c, 1, 79, 75
2, 103866339, Note_on_c, 1, 88, 0
2, 103894816, Note_on_c, 1, 36, 0
2, 103923306, Note_on_c, 1, 88, 68
2, 103951989, Note_on_c, 1, 82, 0
2, 103975055, Note_on_c, 1, 36, 43
2, 104002285, Note_on_c, 1, 82, 74
2, 104029515, Note_on_c, 1, 91, 0
2, 104056745, Note_on_c, 1, 36, 0
2, 104077067, Note_on_c, 1, 91, 67
2, 104102966, Note_on_c, 1, 88, 0
2, 104128865, Note_on_c, 1, 36, 47
2, 104154843, Note_on_c, 1, 88, 74
2, 104180821, Note_on_c, 1, 91, 0
2, 104198597, Note_on_c, 1, 36, 0
2, 104223176, Note_on_c, 1, 91, 66
2, 104247821, Note_on_c, 1, 94, 0
2, 104262953, Note_on_c, 1, 36, 43
2, 104286261, Note_on_c, 1, 94, 73
2, 104309569, Note_on_c, 1, 88, 0
2, 104332877, Note_on_c, 1, 36, 0
2, 104356198, Note_on_c, 1, 88, 64
2, 104379585, Note_on_c, 1, 91, 0
2, 104392170, Note_on_c, 1, 36, 40
2, 104414216, Note_on_c, 1, 91, 72
2, 104436262, Note_on_c, 1, 82, 0
2, 104458308, Note_on_c, 1, 36, 0
2, 104468119, Note_on_c, 1, 82, 64
2, 104488692, Note_on_c, 1, 88, 0
2, 104509265, Note_on_c, 1, 36, 50
2, 104530046, Note_on_c, 1, 88, 71
2, 104550827, Note_on_c, 1, 82, 0
2, 104571608, Note_on_c, 1, 79, 0
2, 104575048, Note_on_c, 1, 36, 0
2, 104590491, Note_on_c, 1, 36, 41
2, 104606371, Note_on_c, 1, 79, 68
2, 104622251, Note_on_c, 1, 82, 68
2, 104638131, Note_on_c, 1, 79, 0
2, 104654011, Note_on_c, 1, 82, 0
2, 104669448, Note_on_c, 1, 36, 0
2, 104701789, Note_on_c, 1, 36, 38
2, 104701794, Note_on_c, 1, 82, 62
2, 104701799, Note_on_c, 1, 79, 62
2, 104701804, Note_on_c, 1, 79, 0
2, 104701809, Note_on_c, 1, 82, 0
2, 104719746, Note_on_c, 1, 36, 0
2, 104737693, Note_on_c, 1, 36, 43
2, 104755940, Note_on_c, 1, 82, 66
2, 104774187, Note_on_c, 1, 79, 66
2, 104778375, Note_on_c, 1, 36, 0
2, 104797099, Note_on_c, 1, 36, 22
2, 104816114, Note_on_c, 1, 48, 0
2, 104835129, Note_on_c, 1, 36, 0
2, 104854159, Note_on_c, 1, 36, 20
2, 104856260, Note_on_c, 1, 36, 0
2, 104871695, Note_on_c, 1, 36, 26
2, 104887423, Note_on_c, 1, 48, 26
2, 104913809, Note_on_c, 1, 36, 0
2, 104924355, Note_on_c, 1, 49, 0
2, 104934901, Note_on_c, 1, 49, 26
2, 104945758, Note_on_c, 1, 36, 22
2, 104963192, Note_on_c, 1, 36, 0
2, 104969657, Note_on_c, 1, 49, 0
2, 104976122, Note_on_c, 1, 49, 26
2, 104982890, Note_on_c, 1, 36, 20
2, 105014204, Note_on_c, 1, 49, 0
2, 105038638, Note_on_c, 1, 36, 0
2, 105063072, Note_on_c, 1, 36, 23
2, 105087933, Note_on_c, 1, 49, 27
2, 105102832, Note_on_c, 1, 36, 0
2, 105125653, Note_on_c, 1, 36, 22
2, 105148765, Note_on_c, 1, 82, 0
2, 105171877, Note_on_c, 1, 79, 0
2, 105194989, Note_on_c, 1, 36, 0
2, 105218116, Note_on_c, 1, 36, 20
2, 105241534, Note_on_c, 1, 36, 0
2, 105265095, Note_on_c, 1, 36, 26
2, 105288946, Note_on_c, 1, 79, 35
2, 105312797, Note_on_c, 1, 82, 35
2, 105336648, Note_on_c, 1, 79, 0
2, 105360499, Note_on_c, 1, 76, 0
2, 105369324, Note_on_c, 1, 36, 0
2, 105387083, Note_on_c, 1, 36, 22
2, 105405279, Note_on_c, 1, 76, 35
2, 105423475, Note_on_c, 1, 79, 35
2, 105441671, Note_on_c, 1, 76, 0
2, 105459867, Note_on_c, 1, 79, 0
2, 105486812, Note_on_c, 1, 36, 0
2, 105495577, Note_on_c, 1, 36, 20
2, 105504645, Note_on_c, 1, 79, 31
2, 105513713, Note_on_c, 1, 76, 31
2, 105522781, Note_on_c, 1, 76, 0
2, 105531849, Note_on_c, 1, 79, 0
2, 105543416, Note_on_c, 1, 36, 0
2, 105545802, Note_on_c, 1, 36, 23
2, 105548485, Note_on_c, 1, 79, 35
2, 105551168, Note_on_c, 1, 76, 35
2, 105581210, Note_on_c, 1, 36, 0
2, 105608456, Note_on_c, 1, 36, 22
2, 105636120, Note_on_c, 1, 48, 0
2, 105663784, Note_on_c, 1, 36, 0
2, 105691463, Note_on_c, 1, 36, 20
2, 105719432, Note_on_c, 1, 36, 0
2, 105747416, Note_on_c, 1, 36, 26
2, 105775690, Note_on_c, 1, 48, 26
2, 105800892, Note_on_c, 1, 49, 0
2, 105830604, Note_on_c, 1, 36, 0
2, 105860316, Note_on_c, 1, 36, 22
2, 105890335, Note_on_c, 1, 49, 26
2, 105905303, Note_on_c, 1, 49, 0
2, 105923036, Note_on_c, 1, 36, 0
2, 105940769, Note_on_c, 1, 36, 20
2, 105958804, Note_on_c, 1, 49, 26
2, 105979400, Note_on_c, 1, 36, 0
2, 105981976, Note_on_c, 1, 49, 0
2, 105984552, Note_on_c, 1, 49, 27
2, 105987425, Note_on_c, 1, 36, 23
2, 105988493, Note_on_c, 1, 36, 0
2, 106019470, Note_on_c, 1, 36, 22
2, 106050737, Note_on_c, 1, 76, 0
2, 106082004, Note_on_c, 1, 36, 0
2, 106113286, Note_on_c, 1, 36, 20
2, 106144858, Note_on_c, 1, 43, 0
2, 106176445, Note_on_c, 1, 43, 26
2, 106208450, Note_on_c, 1, 76, 35
2, 106240455, Note_on_c, 1, 44, 0
2, 106272460, Note_on_c, 1, 77, 0
2, 106281216, Note_on_c, 1, 36, 0
2, 106290753, Note_on_c, 1, 77, 35
2, 106300510, Note_on_c, 1, 79, 0
2, 106322132, Note_on_c, 1, 36, 22
2, 106334225, Note_on_c, 1, 79, 40
2, 106346318, Note_on_c, 1, 76, 0
2, 106358411, Note_on_c, 1, 36, 0
2, 106370521, Note_on_c, 1, 76, 34
2, 106382843, Note_on_c, 1, 77, 0
2, 106413066, Note_on_c, 1, 36, 20
2, 106431048, Note_on_c, 1, 77, 31
2, 106449030, Note_on_c, 1, 79, 0
2, 106453925, Note_on_c, 1, 36, 0
2, 106462126, Note_on_c, 1, 79, 37
2, 106483428, Note_on_c, 1, 77, 0
2, 106494980, Note_on_c, 1, 77, 31
2, 106518024, Note_on_c, 1, 79, 0
2, 106532929, Note_on_c, 1, 36, 23
2, 106557585, Note_on_c, 1, 79, 34
2, 106582241, Note_on_c, 1, 77, 0
2, 106606897, Note_on_c, 1, 36, 0
2, 106625161, Note_on_c, 1, 77, 37
2, 106651551, Note_on_c, 1, 79, 0
2, 106673138, Note_on_c, 1, 79, 33
2, 106701129, Note_on_c, 1, 77, 0
2, 106726042, Note_on_c, 1, 36, 22
2, 106755758, Note_on_c, 1, 77, 37
2, 106785474, Note_on_c, 1, 79, 0
2, 106815190, Note_on_c, 1, 36, 0
2, 106840350, Note_on_c, 1, 79, 33
2, 106868576, Note_on_c, 1, 77, 0
2, 106890712, Note_on_c, 1, 77, 37
2, 106917443, Note_on_c, 1, 79, 0
2, 106936713, Note_on_c, 1, 36, 20
2, 106962073, Note_on_c, 1, 79, 33
2, 106987433, Note_on_c, 1, 77, 0
2, 107003829, Note_on_c, 1, 77, 37
2, 107027686, Note_on_c, 1, 79, 0
2, 107041073, Note_on_c, 1, 79, 32
2, 107063424, Note_on_c, 1, 77, 0
2, 107073921, Note_on_c, 1, 44, 26
2, 107094761, Note_on_c, 1, 77, 37
2, 107115601, Note_on_c, 1, 43, 0
2, 107136441, Note_on_c, 1, 76, 0
2, 107146275, Note_on_c, 1, 36, 0
2, 107168053, Note_on_c, 1, 76, 38
2, 107189862, Note_on_c, 1, 77, 0
2, 107211671, Note_on_c, 1, 36, 22
2, 107233750, Note_on_c, 1, 77, 38
2, 107255829, Note_on_c, 1, 76, 0
2, 107279923, Note_on_c, 1, 36, 0
2, 107281824, Note_on_c, 1, 36, 20
2, 107284143, Note_on_c, 1, 36, 0
2, 107286477, Note_on_c, 1, 36, 23
2, 107289101, Note_on_c, 1, 36, 0
2, 107291740, Note_on_c, 1, 36, 22
2, 107294668, Note_on_c, 1, 36, 0
2, 107297611, Note_on_c, 1, 36, 20
2, 107300972, Note_on_c, 1, 43, 26
2, 107304638, Note_on_c, 1, 76, 40
2, 107308550, Note_on_c, 1, 36, 0
2, 107308811, Note_on_c, 1, 36, 22
2, 107309362, Note_on_c, 1, 36, 0
2, 107309928, Note_on_c, 1, 36, 20
2, 107310785, Note_on_c, 1, 36, 0
2, 107311657, Note_on_c, 1, 36, 23
2, 107312948, Note_on_c, 1, 36, 0
2, 107314253, Note_on_c, 1, 36, 22
2, 107315849, Note_on_c, 1, 48, 0
2, 107317445, Note_on_c, 1, 36, 0
2, 107319056, Note_on_c, 1, 36, 20
2, 107320958, Note_on_c, 1, 36, 0
2, 107322875, Note_on_c, 1, 36, 26
2, 107325210, Note_on_c, 1, 48, 26
2, 107333767, Note_on_c, 1, 49, 0
2, 107340006, Note_on_c, 1, 36, 0
2, 107346245, Note_on_c, 1, 36, 22
2, 107352919, Note_on_c, 1, 49, 26
2, 107357907, Note_on_c, 1, 36, 0
2, 107389004, Note_on_c, 1, 49, 0
2, 107420101, Note_on_c, 1, 49, 26
2, 107451627, Note_on_c, 1, 36, 20
2, 107463781, Note_on_c, 1, 49, 0
2, 107477192, Note_on_c, 1, 36, 0
2, 107490603, Note_on_c, 1, 36, 23
2, 107504439, Note_on_c, 1, 49, 27
2, 107507358, Note_on_c, 1, 36, 0
2, 107529224, Note_on_c, 1, 36, 22
2, 107551513, Note_on_c, 1, 72, 0
2, 107573802, Note_on_c, 1, 36, 0
2, 107596106, Note_on_c, 1, 36, 20
2, 107618705, Note_on_c, 1, 40, 0
2, 107641319, Note_on_c, 1, 40, 26
2, 107664227, Note_on_c, 1, 72, 35
2, 107687135, Note_on_c, 1, 41, 0
2, 107710043, Note_on_c, 1, 74, 0
2, 107720363, Note_on_c, 1, 36, 0
2, 107740433, Note_on_c, 1, 74, 35
2, 107760723, Note_on_c, 1, 76, 0
2, 107769798, Note_on_c, 1, 36, 22
2, 107791579, Note_on_c, 1, 76, 40
2, 107813360, Note_on_c, 1, 72, 0
2, 107835141, Note_on_c, 1, 36, 0
2, 107856939, Note_on_c, 1, 72, 34
2, 107878821, Note_on_c, 1, 74, 0
2, 107891423, Note_on_c, 1, 36, 20
2, 107920383, Note_on_c, 1, 74, 31
2, 107949343, Note_on_c, 1, 76, 0
2, 107976046, Note_on_c, 1, 36, 0
2, 108006570, Note_on_c, 1, 76, 37
2, 108037134, Note_on_c, 1, 74, 0
2, 108067169, Note_on_c, 1, 74, 31
2, 108099462, Note_on_c, 1, 76, 0
2, 108100054, Note_on_c, 1, 36, 23
2, 108101175, Note_on_c, 1, 76, 34
2, 108102296, Note_on_c, 1, 74, 0
2, 108106203, Note_on_c, 1, 36, 0
2, 108108875, Note_on_c, 1, 74, 37
2, 108111715, Note_on_c, 1, 76, 0
2, 108118928, Note_on_c, 1, 76, 33
2, 108123354, Note_on_c, 1, 74, 0
2, 108133863, Note_on_c, 1, 36, 22
2, 108139871, Note_on_c, 1, 74, 37
2, 108145879, Note_on_c, 1, 76, 0
2, 108156494, Note_on_c, 1, 36, 0
2, 108164214, Note_on_c, 1, 76, 33
2, 108167341, Note_on_c, 1, 74, 0
2, 108172213, Note_on_c, 1, 74, 37
2, 108173856, Note_on_c, 1, 76, 0
2, 108175755, Note_on_c, 1, 36, 20
2, 108176038, Note_on_c, 1, 76, 33
2, 108176321, Note_on_c, 1, 74, 0
2, 108208109, Note_on_c, 1, 74, 37
2, 108239668, Note_on_c, 1, 76, 0
2, 108268597, Note_on_c, 1, 76, 32
2, 108298661, Note_on_c, 1, 74, 0
2, 108324594, Note_on_c, 1, 41, 26
2, 108353285, Note_on_c, 1, 74, 37
2, 108381976, Note_on_c, 1, 40, 0
2, 108410667, Note_on_c, 1, 72, 0
2, 108437380, Note_on_c, 1, 36, 0
2, 108468186, Note_on_c, 1, 72, 38
2, 108499024, Note_on_c, 1, 74, 0
2, 108529862, Note_on_c, 1, 36, 22
2, 108561098, Note_on_c, 1, 74, 38
2, 108592334, Note_on_c, 1, 72, 0
2, 108601151, Note_on_c, 1, 36, 0
2, 108611515, Note_on_c, 1, 36, 20
2, 108622297, Note_on_c, 1, 36, 0
2, 108633094, Note_on_c, 1, 36, 23
2, 108644181, Note_on_c, 1, 36, 0
2, 108655282, Note_on_c, 1, 36, 22
2, 108666673, Note_on_c, 1, 36, 0
2, 108678207, Note_on_c, 1, 36, 20
2, 108690031, Note_on_c, 1, 40, 26
2, 108702159, Note_on_c, 1, 72, 35
2, 108723019, Note_on_c, 1, 35, 0
2, 108731766, Note_on_c, 1, 41, 0
2, 108740513, Note_on_c, 1, 41, 22
2, 108749551, Note_on_c, 1, 35, 16
2, 108758589, Note_on_c, 1, 35, 0
2, 108767642, Note_on_c, 1, 41, 0
2, 108776695, Note_on_c, 1, 41, 20
2, 108786167, Note_on_c, 1, 35, 15
2, 108795639, Note_on_c, 1, 35, 0
2, 108805126, Note_on_c, 1, 41, 0
2, 108814613, Note_on_c, 1, 41, 23
2, 108824390, Note_on_c, 1, 35, 17
2, 108834167, Note_on_c, 1, 35, 0
2, 108843959, Note_on_c, 1, 41, 0
2, 108853751, Note_on_c, 1, 41, 22
2, 108863834, Note_on_c, 1, 35, 16
2, 108873917, Note_on_c, 1, 35, 0
2, 108884015, Note_on_c, 1, 41, 0
2, 108894113, Note_on_c, 1, 41, 20
2, 108904630, Note_on_c, 1, 35, 15
2, 108915147, Note_on_c, 1, 41, 0
2, 108925678, Note_on_c, 1, 35, 0
2, 108936209, Note_on_c, 1, 35, 17
2, 108947031, Note_on_c, 1, 41, 23
2, 108957853, Note_on_c, 1, 41, 0
2, 108968690, Note_on_c, 1, 35, 0
2, 108979527, Note_on_c, 1, 35, 16
2, 108990655, Note_on_c, 1, 41, 22
2, 109001783, Note_on_c, 1, 41, 0
2, 109013054, Note_on_c, 1, 35, 0
2, 109024325, Note_on_c, 1, 35, 15
2, 109035886, Note_on_c, 1, 41, 20
2, 109047447, Note_on_c, 1, 41, 0
2, 109059023, Note_on_c, 1, 35, 0
2, 109070599, Note_on_c, 1, 35, 17
2, 109082466, Note_on_c, 1, 41, 23
2, 109094333, Note_on_c, 1, 41, 0
2, 109106215, Note_on_c, 1, 35, 0
2, 109118097, Note_on_c, 1, 35, 16
2, 109130398, Note_on_c, 1, 41, 22
2, 109142699, Note_on_c, 1, 73, 0
2, 109155000, Note_on_c, 1, 65, 0
2, 109167301, Note_on_c, 1, 68, 0
2, 109179602, Note_on_c, 1, 41, 0
2, 109191917, Note_on_c, 1, 35, 0
2, 109204232, Note_on_c, 1, 35, 15
2, 109216838, Note_on_c, 1, 41, 20
2, 109229444, Note_on_c, 1, 37, 0
2, 109242065, Note_on_c, 1, 37, 23
2, 109254977, Note_on_c, 1, 68, 22
2, 109267889, Note_on_c, 1, 65, 19
2, 109280801, Note_on_c, 1, 73, 35
2, 109293713, Note_on_c, 1, 75, 0
2, 109306625, Note_on_c, 1, 72, 0
2, 109319537, Note_on_c, 1, 66, 0
2, 109330393, Note_on_c, 1, 37, 0
2, 109361124, Note_on_c, 1, 75, 31
2, 109391947, Note_on_c, 1, 77, 0
2, 109421243, Note_on_c, 1, 37, 22
2, 109452584, Note_on_c, 1, 77, 35
2, 109483925, Note_on_c, 1, 73, 0
2, 109515266, Note_on_c, 1, 37, 0
2, 109546624, Note_on_c, 1, 73, 30
2, 109578194, Note_on_c, 1, 75, 0
2, 109607145, Note_on_c, 1, 37, 20
2, 109637386, Note_on_c, 1, 75, 24
2, 109667627, Note_on_c, 1, 77, 0
2, 109697409, Note_on_c, 1, 37, 0
2, 109700304, Note_on_c, 1, 77, 27
2, 109702717, Note_on_c, 1, 75, 0
2, 109714868, Note_on_c, 1, 75, 29
2, 109720547, Note_on_c, 1, 77, 0
2, 109742343, Note_on_c, 1, 37, 23
2, 109751144, Note_on_c, 1, 77, 26
2, 109759945, Note_on_c, 1, 75, 0
2, 109779202, Note_on_c, 1, 37, 0
2, 109801548, Note_on_c, 1, 75, 29
2, 109813580, Note_on_c, 1, 77, 0
2, 109821358, Note_on_c, 1, 77, 25
2, 109836476, Note_on_c, 1, 75, 0
2, 109865223, Note_on_c, 1, 37, 22
2, 109878879, Note_on_c, 1, 75, 29
2, 109892535, Note_on_c, 1, 77, 0
2, 109918457, Note_on_c, 1, 37, 0
2, 109930608, Note_on_c, 1, 77, 25
2, 109942927, Note_on_c, 1, 75, 0
2, 109975467, Note_on_c, 1, 75, 28
2, 109984790, Note_on_c, 1, 77, 0
2, 110002060, Note_on_c, 1, 37, 20
2, 110010034, Note_on_c, 1, 77, 25
2, 110018008, Note_on_c, 1, 75, 0
2, 110025982, Note_on_c, 1, 37, 0
2, 110040435, Note_on_c, 1, 75, 28
2, 110046927, Note_on_c, 1, 77, 0
2, 110058501, Note_on_c, 1, 77, 25
2, 110063637, Note_on_c, 1, 75, 0
2, 110072365, Note_on_c, 1, 37, 23
2, 110076011, Note_on_c, 1, 72, 26
2, 110079657, Note_on_c, 1, 66, 26
2, 110083303, Note_on_c, 1, 75, 28
2, 110086949, Note_on_c, 1, 75, 0
2, 110090595, Note_on_c, 1, 68, 0
2, 110094241, Note_on_c, 1, 65, 0
2, 110105066, Note_on_c, 1, 37, 0
2, 110112261, Note_on_c, 1, 37, 22
2, 110119758, Note_on_c, 1, 75, 33
2, 110127255, Note_on_c, 1, 73, 0
2, 110152716, Note_on_c, 1, 37, 0
2, 110170695, Note_on_c, 1, 37, 20
2, 110188964, Note_on_c, 1, 37, 0
2, 110207248, Note_on_c, 1, 37, 23
2, 110225950, Note_on_c, 1, 37, 0
2, 110244667, Note_on_c, 1, 37, 22
2, 110263674, Note_on_c, 1, 37, 0
2, 110282696, Note_on_c, 1, 37, 20
2, 110302008, Note_on_c, 1, 37, 0
2, 110321335, Note_on_c, 1, 37, 23
2, 110341080, Note_on_c, 1, 73, 35
2, 110360825, Note_on_c, 1, 68, 26
2, 110380570, Note_on_c, 1, 65, 26
2, 110400315, Note_on_c, 1, 54, 0
2, 110420060, Note_on_c, 1, 66, 0
2, 110439805, Note_on_c, 1, 37, 0
2, 110459565, Note_on_c, 1, 37, 22
2, 110479615, Note_on_c, 1, 37, 0
2, 110499680, Note_on_c, 1, 37, 20
2, 110520163, Note_on_c, 1, 37, 0
2, 110540660, Note_on_c, 1, 37, 23
2, 110561448, Note_on_c, 1, 66, 33
2, 110582236, Note_on_c, 1, 54, 26
2, 110603024, Note_on_c, 1, 78, 0
2, 110623812, Note_on_c, 1, 66, 0
2, 110631528, Note_on_c, 1, 37, 0
2, 110651111, Note_on_c, 1, 37, 22
2, 110659573, Note_on_c, 1, 37, 0
2, 110680680, Note_on_c, 1, 37, 20
2, 110702205, Note_on_c, 1, 37, 0
2, 110723745, Note_on_c, 1, 37, 23
2, 110745575, Note_on_c, 1, 66, 31
2, 110767405, Note_on_c, 1, 78, 40
2, 110789235, Note_on_c, 1, 61, 0
2, 110811065, Note_on_c, 1, 73, 0
2, 110830557, Note_on_c, 1, 37, 0
2, 110860875, Note_on_c, 1, 73, 31
2, 110891402, Note_on_c, 1, 61, 25
2, 110921929, Note_on_c, 1, 70, 0
2, 110952456, Note_on_c, 1, 58, 0
2, 110968116, Note_on_c, 1, 37, 22
2, 110986106, Note_on_c, 1, 37, 0
2, 111004110, Note_on_c, 1, 37, 20
2, 111012334, Note_on_c, 1, 37, 0
2, 111034917, Note_on_c, 1, 37, 23
2, 111057790, Note_on_c, 1, 58, 28
2, 111080663, Note_on_c, 1, 70, 36
2, 111103536, Note_on_c, 1, 54, 0
2, 111126409, Note_on_c, 1, 66, 0
2, 111137025, Note_on_c, 1, 37, 0
2, 111157550, Note_on_c, 1, 37, 22
2, 111178357, Note_on_c, 1, 37, 0
2, 111199178, Note_on_c, 1, 37, 20
2, 111220281, Note_on_c, 1, 37, 0
2, 111241398, Note_on_c, 1, 37, 23
2, 111262925, Note_on_c, 1, 66, 35
2, 111284452, Note_on_c, 1, 54, 27
2, 111305979, Note_on_c, 1, 61, 0
2, 111327506, Note_on_c, 1, 49, 0
2, 111343752, Note_on_c, 1, 37, 0
2, 111371256, Note_on_c, 1, 49, 24
2, 111398973, Note_on_c, 1, 61, 30
2, 111426690, Note_on_c, 1, 46, 0
2, 111454407, Note_on_c, 1, 58, 0
2, 111465722, Note_on_c, 1, 37, 22
2, 111482182, Note_on_c, 1, 37, 0
2, 111498658, Note_on_c, 1, 37, 20
2, 111519663, Note_on_c, 1, 37, 0
2, 111523778, Note_on_c, 1, 37, 23
2, 111528189, Note_on_c, 1, 58, 35
2, 111532600, Note_on_c, 1, 46, 27
2, 111537011, Note_on_c, 1, 54, 0
2, 111541422, Note_on_c, 1, 42, 0
2, 111545833, Note_on_c, 1, 37, 0
2, 111550259, Note_on_c, 1, 37, 22
2, 111554981, Note_on_c, 1, 37, 0
2, 111559846, Note_on_c, 1, 37, 20
2, 111565007, Note_on_c, 1, 37, 0
2, 111570183, Note_on_c, 1, 37, 23
2, 111601784, Note_on_c, 1, 37, 0
2, 111627928, Note_on_c, 1, 37, 22
2, 111654362, Note_on_c, 1, 37, 0
2, 111680810, Note_on_c, 1, 37, 20
2, 111707549, Note_on_c, 1, 37, 0
2, 111734430, Note_on_c, 1, 37, 23
2, 111761601, Note_on_c, 1, 37, 0
2, 111788787, Note_on_c, 1, 37, 22
2, 111816263, Note_on_c, 1, 37, 0
2, 111843754, Note_on_c, 1, 37, 20
2, 111871663, Note_on_c, 1, 37, 0
2, 111899587, Note_on_c, 1, 37, 23
2, 111927801, Note_on_c, 1, 42, 22
2, 111956015, Note_on_c, 1, 54, 28
2, 111984229, Note_on_c, 1, 58, 0
2, 112012443, Note_on_c, 1, 46, 0
2, 112020933, Note_on_c, 1, 37, 0
2, 112033998, Note_on_c, 1, 46, 25
2, 112047171, Note_on_c, 1, 58, 31
2, 112060344, Note_on_c, 1, 61, 0
2, 112073517, Note_on_c, 1, 49, 0
2, 112087901, Note_on_c, 1, 37, 22
2, 112089210, Note_on_c, 1, 37, 0
2, 112090535, Note_on_c, 1, 37, 20
2, 112100638, Note_on_c, 1, 37, 0
2, 112109125, Note_on_c, 1, 37, 23
2, 112117907, Note_on_c, 1, 49, 27
2, 112126689, Note_on_c, 1, 61, 35
2, 112132154, Note_on_c, 1, 37, 0
2, 112161620, Note_on_c, 1, 37, 22
2, 112191385, Note_on_c, 1, 37, 0
2, 112221166, Note_on_c, 1, 37, 20
2, 112226385, Note_on_c, 1, 36, 0
2, 112234181, Note_on_c, 1, 36, 23
2, 112264214, Note_on_c, 1, 36, 0
2, 112286024, Note_on_c, 1, 36, 22
2, 112308126, Note_on_c, 1, 36, 0
2, 112330243, Note_on_c, 1, 36, 20
2, 112352781, Note_on_c, 1, 36, 0
2, 112375334, Note_on_c, 1, 36, 23
2, 112398179, Note_on_c, 1, 36, 0
2, 112421039, Note_on_c, 1, 36, 22
2, 112444192, Note_on_c, 1, 72, 0
2, 112467345, Note_on_c, 1, 64, 0
2, 112490498, Note_on_c, 1, 67, 0
2, 112513651, Note_on_c, 1, 36, 0
2, 112536947, Note_on_c, 1, 36, 20
2, 112560535, Note_on_c, 1, 36, 0
2, 112584138, Note_on_c, 1, 36, 23
2, 112608034, Note_on_c, 1, 67, 22
2, 112631930, Note_on_c, 1, 64, 19
2, 112655826, Note_on_c, 1, 72, 35
2, 112679722, Note_on_c, 1, 74, 0
2, 112703618, Note_on_c, 1, 71, 0
2, 112727514, Note_on_c, 1, 65, 0
2, 112737780, Note_on_c, 1, 36, 0
2, 112756808, Note_on_c, 1, 74, 31
2, 112776056, Note_on_c, 1, 76, 0
2, 112780257, Note_on_c, 1, 36, 22
2, 112798206, Note_on_c, 1, 76, 35
2, 112816155, Note_on_c, 1, 72, 0
2, 112834104, Note_on_c, 1, 36, 0
2, 112852070, Note_on_c, 1, 72, 30
2, 112870248, Note_on_c, 1, 74, 0
2, 112870368, Note_on_c, 1, 36, 20
2, 112885297, Note_on_c, 1, 74, 28
2, 112900226, Note_on_c, 1, 76, 0
2, 112932252, Note_on_c, 1, 36, 0
2, 112956940, Note_on_c, 1, 76, 33
2, 112977969, Note_on_c, 1, 74, 0
2, 112980086, Note_on_c, 1, 74, 28
2, 113004193, Note_on_c, 1, 76, 0
2, 113021172, Note_on_c, 1, 36, 23
2, 113046838, Note_on_c, 1, 76, 30
2, 113072504, Note_on_c, 1, 74, 0
2, 113092570, Note_on_c, 1, 36, 0
2, 113115675, Note_on_c, 1, 74, 33
2, 113144394, Note_on_c, 1, 76, 0
2, 113170584, Note_on_c, 1, 76, 29
2, 113200850, Note_on_c, 1, 74, 0
2, 113230103, Note_on_c, 1, 36, 22
2, 113261911, Note_on_c, 1, 74, 33
2, 113293719, Note_on_c, 1, 76, 0
2, 113323205, Note_on_c, 1, 36, 0
2, 113349876, Note_on_c, 1, 76, 30
2, 113378881, Note_on_c, 1, 74, 0
2, 113402781, Note_on_c, 1, 74, 33
2, 113430470, Note_on_c, 1, 76, 0
2, 113451734, Note_on_c, 1, 36, 20
2, 113478104, Note_on_c, 1, 76, 29
2, 113504474, Note_on_c, 1, 74, 0
2, 113522941, Note_on_c, 1, 36, 0
2, 113547819, Note_on_c, 1, 74, 33
2, 113572737, Note_on_c, 1, 76, 0
2, 113588424, Note_on_c, 1, 76, 29
2, 113612014, Note_on_c, 1, 74, 0
2, 113624913, Note_on_c, 1, 36, 23
2, 113647044, Note_on_c, 1, 74, 33
2, 113669175, Note_on_c, 1, 71, 26
2, 113691306, Note_on_c, 1, 65, 26
2, 113713437, Note_on_c, 1, 74, 0
2, 113735568, Note_on_c, 1, 64, 0
2, 113757699, Note_on_c, 1, 67, 0
2, 113772554, Note_on_c, 1, 36, 0
2, 113797934, Note_on_c, 1, 36, 22
2, 113823616, Note_on_c, 1, 74, 33
2, 113849298, Note_on_c, 1, 72, 0
2, 113877243, Note_on_c, 1, 36, 0
2, 113879393, Note_on_c, 1, 36, 20
2, 113881961, Note_on_c, 1, 36, 0
2, 113884543, Note_on_c, 1, 36, 23
2, 113887416, Note_on_c, 1, 36, 0
2, 113890303, Note_on_c, 1, 36, 22
2, 113893480, Note_on_c, 1, 36, 0
2, 113896672, Note_on_c, 1, 36, 20
2, 113900282, Note_on_c, 1, 36, 0
2, 113903907, Note_on_c, 1, 36, 23
2, 113907822, Note_on_c, 1, 72, 35
2, 113911737, Note_on_c, 1, 64, 26
2, 113915652, Note_on_c, 1, 67, 26
2, 113919567, Note_on_c, 1, 65, 0
2, 113923482, Note_on_c, 1, 53, 0
2, 113927397, Note_on_c, 1, 36, 0
2, 113931327, Note_on_c, 1, 36, 22
2, 113935547, Note_on_c, 1, 36, 0
2, 113939910, Note_on_c, 1, 36, 20
2, 113944563, Note_on_c, 1, 36, 0
2, 113949231, Note_on_c, 1, 36, 23
2, 113954189, Note_on_c, 1, 53, 26
2, 113959147, Note_on_c, 1, 65, 33
2, 113968962, Note_on_c, 1, 77, 0
2, 113973694, Note_on_c, 1, 65, 0
2, 113978426, Note_on_c, 1, 36, 0
2, 113983298, Note_on_c, 1, 36, 22
2, 113993860, Note_on_c, 1, 36, 0
2, 113999266, Note_on_c, 1, 36, 20
2, 114004962, Note_on_c, 1, 36, 0
2, 114010672, Note_on_c, 1, 36, 23
2, 114016673, Note_on_c, 1, 65, 31
2, 114022674, Note_on_c, 1, 77, 40
2, 114028675, Note_on_c, 1, 72, 0
2, 114034676, Note_on_c, 1, 60, 0
2, 114056980, Note_on_c, 1, 36, 0
2, 114073171, Note_on_c, 1, 60, 25
2, 114089571, Note_on_c, 1, 72, 31
2, 114105971, Note_on_c, 1, 68, 0
2, 114122371, Note_on_c, 1, 56, 0
2, 114135793, Note_on_c, 1, 36, 22
2, 114165801, Note_on_c, 1, 36, 0
2, 114195824, Note_on_c, 1, 36, 20
2, 114200238, Note_on_c, 1, 36, 0
2, 114206991, Note_on_c, 1, 36, 23
2, 114214162, Note_on_c, 1, 56, 28
2, 114221333, Note_on_c, 1, 68, 36
2, 114228504, Note_on_c, 1, 65, 0
2, 114235675, Note_on_c, 1, 53, 0
2, 114246714, Note_on_c, 1, 36, 0
2, 114250596, Note_on_c, 1, 36, 22
2, 114254760, Note_on_c, 1, 36, 0
2, 114258938, Note_on_c, 1, 36, 20
2, 114263398, Note_on_c, 1, 36, 0
2, 114267872, Note_on_c, 1, 36, 23
2, 114272756, Note_on_c, 1, 53, 27
2, 114277640, Note_on_c, 1, 65, 35
2, 114282524, Note_on_c, 1, 48, 0
2, 114287408, Note_on_c, 1, 60, 0
2, 114306701, Note_on_c, 1, 36, 0
2, 114321127, Note_on_c, 1, 60, 30
2, 114335767, Note_on_c, 1, 48, 24
2, 114350407, Note_on_c, 1, 56, 0
2, 114365047, Note_on_c, 1, 44, 0
2, 114392444, Note_on_c, 1, 36, 22
2, 114405293, Note_on_c, 1, 36, 0
2, 114418158, Note_on_c, 1, 36, 20
2, 114420268, Note_on_c, 1, 36, 0
2, 114441870, Note_on_c, 1, 36, 23
2, 114463896, Note_on_c, 1, 44, 27
2, 114485922, Note_on_c, 1, 56, 35
2, 114507948, Note_on_c, 1, 41, 0
2, 114529974, Note_on_c, 1, 53, 0
2, 114552000, Note_on_c, 1, 36, 0
2, 114574041, Note_on_c, 1, 36, 22
2, 114596378, Note_on_c, 1, 36, 0
2, 114618730, Note_on_c, 1, 36, 20
2, 114641378, Note_on_c, 1, 36, 0
2, 114664169, Note_on_c, 1, 36, 23
2, 114667272, Note_on_c, 1, 36, 0
2, 114679943, Note_on_c, 1, 36, 22
2, 114693032, Note_on_c, 1, 36, 0
2, 114706135, Note_on_c, 1, 36, 20
2, 114719528, Note_on_c, 1, 36, 0
2, 114732935, Note_on_c, 1, 36, 23
2, 114746760, Note_on_c, 1, 36, 0
2, 114760600, Note_on_c, 1, 36, 22
2, 114774729, Note_on_c, 1, 36, 0
2, 114788873, Note_on_c, 1, 36, 20
2, 114803306, Note_on_c, 1, 36, 0
2, 114817754, Note_on_c, 1, 36, 23
2, 114832619, Note_on_c, 1, 53, 28
2, 114847484, Note_on_c, 1, 41, 22
2, 114862349, Note_on_c, 1, 56, 0
2, 114877214, Note_on_c, 1, 44, 0
2, 114892079, Note_on_c, 1, 36, 0
2, 114906959, Note_on_c, 1, 44, 25
2, 114921912, Note_on_c, 1, 56, 31
2, 114936865, Note_on_c, 1, 48, 0
2, 114951818, Note_on_c, 1, 60, 0
2, 114966771, Note_on_c, 1, 36, 22
2, 114981940, Note_on_c, 1, 36, 0
2, 114997124, Note_on_c, 1, 36, 20
2, 115012598, Note_on_c, 1, 36, 0
2, 115028214, Note_on_c, 1, 36, 23
2, 115044120, Note_on_c, 1, 60, 35
2, 115060026, Note_on_c, 1, 48, 27
2, 115075932, Note_on_c, 1, 36, 0
2, 115091852, Note_on_c, 1, 36, 23
2, 115108062, Note_on_c, 1, 36, 0
2, 115124287, Note_on_c, 1, 36, 18
2, 115140929, Note_on_c, 1, 36, 0
2, 115157586, Note_on_c, 1, 36, 23
2, 115174532, Note_on_c, 1, 36, 0
2, 115191493, Note_on_c, 1, 36, 20
2, 115208743, Note_on_c, 1, 36, 0
2, 115226008, Note_on_c, 1, 36, 20
2, 115243690, Note_on_c, 1, 36, 0
2, 115261387, Note_on_c, 1, 36, 24
2, 115279374, Note_on_c, 1, 36, 0
2, 115297375, Note_on_c, 1, 36, 22
2, 115315666, Note_on_c, 1, 36, 0
2, 115334099, Note_on_c, 1, 36, 22
2, 115352822, Note_on_c, 1, 36, 0
2, 115371560, Note_on_c, 1, 36, 24
2, 115376974, Note_on_c, 1, 36, 0
2, 115396016, Note_on_c, 1, 36, 22
2, 115415475, Note_on_c, 1, 36, 0
2, 115434949, Note_on_c, 1, 36, 22
2, 115454712, Note_on_c, 1, 36, 0
2, 115474490, Note_on_c, 1, 36, 28
2, 115494558, Note_on_c, 1, 36, 0
2, 115514640, Note_on_c, 1, 36, 24
2, 115535140, Note_on_c, 1, 36, 0
2, 115555654, Note_on_c, 1, 36, 24
2, 115576458, Note_on_c, 1, 36, 0
2, 115597276, Note_on_c, 1, 36, 30
2, 115618384, Note_on_c, 1, 36, 0
2, 115639635, Note_on_c, 1, 36, 27
2, 115661175, Note_on_c, 1, 36, 0
2, 115682730, Note_on_c, 1, 36, 27
2, 115704574, Note_on_c, 1, 36, 0
2, 115726433, Note_on_c, 1, 36, 32
2, 115748709, Note_on_c, 1, 36, 0
2, 115771000, Note_on_c, 1, 36, 30
2, 115793581, Note_on_c, 1, 43, 0
2, 115816162, Note_on_c, 1, 52, 0
2, 115838743, Note_on_c, 1, 46, 0
2, 115861324, Note_on_c, 1, 36, 0
2, 115883919, Note_on_c, 1, 36, 30
2, 115906804, Note_on_c, 1, 36, 0
2, 115929703, Note_on_c, 1, 36, 59
2, 115953020, Note_on_c, 1, 46, 65
2, 115976337, Note_on_c, 1, 52, 65
2, 115999654, Note_on_c, 1, 43, 65
2, 116022971, Note_on_c, 1, 37, 0
2, 116046288, Note_on_c, 1, 52, 0
2, 116063498, Note_on_c, 1, 52, 63
2, 116090385, Note_on_c, 1, 43, 0
2, 116117272, Note_on_c, 1, 46, 0
2, 116144159, Note_on_c, 1, 37, 105
2, 116171144, Note_on_c, 1, 46, 71
2, 116198129, Note_on_c, 1, 43, 71
2, 116225114, Note_on_c, 1, 37, 0
2, 116252099, Note_on_c, 1, 52, 0
2, 116273096, Note_on_c, 1, 52, 63
2, 116299841, Note_on_c, 1, 46, 0
2, 116326586, Note_on_c, 1, 43, 0
2, 116353331, Note_on_c, 1, 37, 105
2, 116380297, Note_on_c, 1, 43, 71
2, 116407263, Note_on_c, 1, 46, 71
2, 116434229, Note_on_c, 1, 37, 0
2, 116461195, Note_on_c, 1, 52, 0
2, 116488161, Note_on_c, 1, 52, 63
2, 116515347, Note_on_c, 1, 43, 0
2, 116542533, Note_on_c, 1, 46, 0
2, 116569719, Note_on_c, 1, 37, 110
2, 116597126, Note_on_c, 1, 46, 71
2, 116624533, Note_on_c, 1, 43, 71
2, 116651940, Note_on_c, 1, 52, 0
2, 116680482, Note_on_c, 1, 52, 63
2, 116681831, Note_on_c, 1, 43, 0
2, 116683180, Note_on_c, 1, 46, 0
2, 116684529, Note_on_c, 1, 46, 71
2, 116686093, Note_on_c, 1, 43, 71
2, 116687657, Note_on_c, 1, 72, 0
2, 116689221, Note_on_c, 1, 52, 0
2, 116705926, Note_on_c, 1, 52, 63
2, 116721151, Note_on_c, 1, 43, 0
2, 116736376, Note_on_c, 1, 46, 0
2, 116751601, Note_on_c, 1, 46, 71
2, 116767039, Note_on_c, 1, 43, 71
2, 116782477, Note_on_c, 1, 52, 0
2, 116797915, Note_on_c, 1, 52, 63
2, 116813565, Note_on_c, 1, 46, 0
2, 116829215, Note_on_c, 1, 43, 0
2, 116844865, Note_on_c, 1, 72, 105
2, 116860600, Note_on_c, 1, 43, 71
2, 116876335, Note_on_c, 1, 46, 71
2, 116892070, Note_on_c, 1, 73, 0
2, 116907805, Note_on_c, 1, 52, 0
2, 116923540, Note_on_c, 1, 52, 63
2, 116939487, Note_on_c, 1, 46, 0
2, 116955434, Note_on_c, 1, 43, 0
2, 116971381, Note_on_c, 1, 73, 100
2, 116987541, Note_on_c, 1, 43, 71
2, 117003701, Note_on_c, 1, 46, 71
2, 117019861, Note_on_c, 1, 73, 0
2, 117036021, Note_on_c, 1, 52, 0
2, 117052181, Note_on_c, 1, 52, 63
2, 117068425, Note_on_c, 1, 43, 0
2, 117084669, Note_on_c, 1, 46, 0
2, 117100913, Note_on_c, 1, 73, 100
2, 117117370, Note_on_c, 1, 46, 71
2, 117133827, Note_on_c, 1, 43, 71
2, 117150284, Note_on_c, 1, 73, 0
2, 117166741, Note_on_c, 1, 52, 0
2, 117183198, Note_on_c, 1, 52, 63
2, 117199867, Note_on_c, 1, 46, 0
2, 117216536, Note_on_c, 1, 43, 0
2, 117233205, Note_on_c, 1, 73, 106
2, 117249959, Note_on_c, 1, 43, 71
2, 117266713, Note_on_c, 1, 46, 71
2, 117283467, Note_on_c, 1, 52, 0
2, 117305306, Note_on_c, 1, 52, 63
2, 117310478, Note_on_c, 1, 43, 0
2, 117315650, Note_on_c, 1, 46, 0
2, 117320822, Note_on_c, 1, 46, 71
2, 117326208, Note_on_c, 1, 43, 71
2, 117331594, Note_on_c, 1, 36, 0
2, 117336980, Note_on_c, 1, 52, 0
2, 117342366, Note_on_c, 1, 52, 63
2, 117347838, Note_on_c, 1, 43, 0
2, 117353310, Note_on_c, 1, 46, 0
2, 117358782, Note_on_c, 1, 46, 71
2, 117364468, Note_on_c, 1, 43, 71
2, 117370154, Note_on_c, 1, 52, 0
2, 117375840, Note_on_c, 1, 52, 63
2, 117381741, Note_on_c, 1, 43, 0
2, 117387642, Note_on_c, 1, 46, 0
2, 117393543, Note_on_c, 1, 36, 100
2, 117399530, Note_on_c, 1, 46, 71
2, 117405517, Note_on_c, 1, 43, 71
2, 117411504, Note_on_c, 1, 37, 0
2, 117417491, Note_on_c, 1, 52, 0
2, 117441378, Note_on_c, 1, 52, 63
2, 117459363, Note_on_c, 1, 43, 0
2, 117477348, Note_on_c, 1, 46, 0
2, 117495333, Note_on_c, 1, 37, 93
2, 117513530, Note_on_c, 1, 46, 71
2, 117531727, Note_on_c, 1, 43, 71
2, 117549924, Note_on_c, 1, 37, 0
2, 117568121, Note_on_c, 1, 52, 0
2, 117586318, Note_on_c, 1, 52, 63
2, 117604600, Note_on_c, 1, 43, 0
2, 117622882, Note_on_c, 1, 46, 0
2, 117641164, Note_on_c, 1, 37, 93
2, 117659658, Note_on_c, 1, 46, 71
2, 117678152, Note_on_c, 1, 43, 71
2, 117696646, Note_on_c, 1, 37, 0
2, 117715140, Note_on_c, 1, 52, 0
2, 117733634, Note_on_c, 1, 52, 63
2, 117752341, Note_on_c, 1, 46, 0
2, 117771048, Note_on_c, 1, 43, 0
2, 117789755, Note_on_c, 1, 37, 98
2, 117808546, Note_on_c, 1, 43, 71
2, 117827337, Note_on_c, 1, 46, 71
2, 117846128, Note_on_c, 1, 52, 0
2, 117870308, Note_on_c, 1, 52, 63
2, 117875783, Note_on_c, 1, 43, 0
2, 117881258, Note_on_c, 1, 46, 0
2, 117886733, Note_on_c, 1, 46, 71
2, 117892423, Note_on_c, 1, 43, 71
2, 117898113, Note_on_c, 1, 72, 0
2, 117903803, Note_on_c, 1, 52, 0
2, 117928709, Note_on_c, 1, 52, 63
2, 117948009, Note_on_c, 1, 43, 0
2, 117967309, Note_on_c, 1, 46, 0
2, 117986609, Note_on_c, 1, 46, 71
2, 118006122, Note_on_c, 1, 43, 71
2, 118025635, Note_on_c, 1, 52, 0
2, 118045148, Note_on_c, 1, 52, 63
2, 118064873, Note_on_c, 1, 46, 0
2, 118084598, Note_on_c, 1, 43, 0
2, 118104323, Note_on_c, 1, 72, 105
2, 118124133, Note_on_c, 1, 43, 71
2, 118143943, Note_on_c, 1, 46, 71
2, 118163753, Note_on_c, 1, 73, 0
2, 118183563, Note_on_c, 1, 52, 0
2, 118203373, Note_on_c, 1, 52, 63
2, 118223395, Note_on_c, 1, 46, 0
2, 118243417, Note_on_c, 1, 43, 0
2, 118263439, Note_on_c, 1, 73, 100
2, 118283674, Note_on_c, 1, 43, 71
2, 118303909, Note_on_c, 1, 46, 71
2, 118324144, Note_on_c, 1, 73, 0
2, 118344379, Note_on_c, 1, 52, 0
2, 118364614, Note_on_c, 1, 52, 63
2, 118384933, Note_on_c, 1, 43, 0
2, 118405252, Note_on_c, 1, 46, 0
2, 118425571, Note_on_c, 1, 73, 100
2, 118446103, Note_on_c, 1, 46, 71
2, 118466635, Note_on_c, 1, 43, 71
2, 118487167, Note_on_c, 1, 73, 0
2, 118507699, Note_on_c, 1, 52, 0
2, 118528231, Note_on_c, 1, 52, 63
2, 118548975, Note_on_c, 1, 46, 0
2, 118569719, Note_on_c, 1, 43, 0
2, 118590463, Note_on_c, 1, 73, 106
2, 118611292, Note_on_c, 1, 43, 71
2, 118632121, Note_on_c, 1, 46, 71
2, 118652950, Note_on_c, 1, 52, 0
2, 118682984, Note_on_c, 1, 52, 63
2, 118692275, Note_on_c, 1, 43, 0
2, 118701566, Note_on_c, 1, 46, 0
2, 118710857, Note_on_c, 1, 46, 71
2, 118720362, Note_on_c, 1, 43, 71
2, 118729867, Note_on_c, 1, 36, 0
2, 118739372, Note_on_c, 1, 52, 0
2, 118748877, Note_on_c, 1, 52, 63
2, 118758468, Note_on_c, 1, 43, 0
2, 118768059, Note_on_c, 1, 46, 0
2, 118777650, Note_on_c, 1, 46, 71
2, 118787456, Note_on_c, 1, 43, 71
2, 118797262, Note_on_c, 1, 52, 0
2, 118807068, Note_on_c, 1, 52, 63
2, 118817088, Note_on_c, 1, 46, 0
2, 118827108, Note_on_c, 1, 43, 0
2, 118837128, Note_on_c, 1, 36, 100
2, 118847234, Note_on_c, 1, 43, 71
2, 118857340, Note_on_c, 1, 46, 71
2, 118867446, Note_on_c, 1, 37, 0
2, 118877552, Note_on_c, 1, 52, 0
2, 118909633, Note_on_c, 1, 52, 63
2, 118931693, Note_on_c, 1, 46, 0
2, 118953753, Note_on_c, 1, 43, 0
2, 118975813, Note_on_c, 1, 37, 93
2, 118998085, Note_on_c, 1, 43, 71
2, 119020357, Note_on_c, 1, 46, 71
2, 119042629, Note_on_c, 1, 37, 0
2, 119064901, Note_on_c, 1, 52, 0
2, 119087173, Note_on_c, 1, 52, 63
2, 119109530, Note_on_c, 1, 43, 0
2, 119131887, Note_on_c, 1, 46, 0
2, 119154244, Note_on_c, 1, 37, 93
2, 119176813, Note_on_c, 1, 46, 71
2, 119199382, Note_on_c, 1, 43, 71
2, 119221951, Note_on_c, 1, 37, 0
2, 119244520, Note_on_c, 1, 52, 0
2, 119267089, Note_on_c, 1, 52, 63
2, 119289743, Note_on_c, 1, 46, 0
2, 119312397, Note_on_c, 1, 43, 0
2, 119335051, Note_on_c, 1, 37, 98
2, 119357917, Note_on_c, 1, 43, 71
2, 119380783, Note_on_c, 1, 46, 71
2, 119403649, Note_on_c, 1, 52, 0
2, 119436029, Note_on_c, 1, 52, 63
2, 119445758, Note_on_c, 1, 43, 0
2, 119455487, Note_on_c, 1, 46, 0
2, 119465216, Note_on_c, 1, 46, 71
2, 119475032, Note_on_c, 1, 43, 71
2, 119484848, Note_on_c, 1, 73, 0
2, 119494664, Note_on_c, 1, 52, 0
2, 119495003, Note_on_c, 1, 52, 63
2, 119518378, Note_on_c, 1, 43, 0
2, 119541753, Note_on_c, 1, 46, 0
2, 119565128, Note_on_c, 1, 46, 71
2, 119588716, Note_on_c, 1, 43, 71
2, 119612304, Note_on_c, 1, 52, 0
2, 119635892, Note_on_c, 1, 52, 63
2, 119659564, Note_on_c, 1, 43, 0
2, 119683236, Note_on_c, 1, 46, 0
2, 119706908, Note_on_c, 1, 73, 105
2, 119730793, Note_on_c, 1, 46, 71
2, 119754678, Note_on_c, 1, 43, 71
2, 119778563, Note_on_c, 1, 73, 0
2, 119802448, Note_on_c, 1, 52, 0
2, 119826333, Note_on_c, 1, 52, 63
2, 119850430, Note_on_c, 1, 43, 0
2, 119874527, Note_on_c, 1, 46, 0
2, 119898624, Note_on_c, 1, 73, 100
2, 119922806, Note_on_c, 1, 46, 71
2, 119946988, Note_on_c, 1, 43, 71
2, 119971170, Note_on_c, 1, 73, 0
2, 119995352, Note_on_c, 1, 52, 0
2, 120019534, Note_on_c, 1, 52, 63
2, 120043928, Note_on_c, 1, 46, 0
2, 120068322, Note_on_c, 1, 43, 0
2, 120092716, Note_on_c, 1, 73, 100
2, 120117323, Note_on_c, 1, 43, 71
2, 120141930, Note_on_c, 1, 46, 71
2, 120166537, Note_on_c, 1, 73, 0
2, 120191144, Note_on_c, 1, 52, 0
2, 120215751, Note_on_c, 1, 52, 63
2, 120240442, Note_on_c, 1, 43, 0
2, 120265133, Note_on_c, 1, 46, 0
2, 120289824, Note_on_c, 1, 73, 106
2, 120314728, Note_on_c, 1, 46, 71
2, 120339632, Note_on_c, 1, 43, 71
2, 120364536, Note_on_c, 1, 52, 0
2, 120369996, Note_on_c, 1, 52, 63
2, 120383406, Note_on_c, 1, 43, 0
2, 120396816, Note_on_c, 1, 46, 0
2, 120410226, Note_on_c, 1, 46, 71
2, 120423850, Note_on_c, 1, 43, 71
2, 120437474, Note_on_c, 1, 37, 0
2, 120451098, Note_on_c, 1, 52, 0
2, 120464722, Note_on_c, 1, 52, 63
2, 120478561, Note_on_c, 1, 46, 0
2, 120492400, Note_on_c, 1, 43, 0
2, 120506239, Note_on_c, 1, 43, 71
2, 120520164, Note_on_c, 1, 46, 71
2, 120534089, Note_on_c, 1, 52, 0
2, 120548014, Note_on_c, 1, 52, 63
2, 120562153, Note_on_c, 1, 43, 0
2, 120576292, Note_on_c, 1, 46, 0
2, 120590431, Note_on_c, 1, 37, 100
2, 120604785, Note_on_c, 1, 46, 71
2, 120619139, Note_on_c, 1, 43, 71
2, 120633493, Note_on_c, 1, 37, 0
2, 120647847, Note_on_c, 1, 52, 0
2, 120655355, Note_on_c, 1, 52, 63
2, 120681490, Note_on_c, 1, 43, 0
2, 120707625, Note_on_c, 1, 46, 0
2, 120733760, Note_on_c, 1, 37, 93
2, 120759979, Note_on_c, 1, 46, 71
2, 120786198, Note_on_c, 1, 43, 71
2, 120812417, Note_on_c, 1, 37, 0
2, 120838636, Note_on_c, 1, 52, 0
2, 120864855, Note_on_c, 1, 52, 63
2, 120891287, Note_on_c, 1, 46, 0
2, 120917719, Note_on_c, 1, 43, 0
2, 120944151, Note_on_c, 1, 37, 93
2, 120970795, Note_on_c, 1, 43, 71
2, 120997439, Note_on_c, 1, 46, 71
2, 121024083, Note_on_c, 1, 37, 0
2, 121050727, Note_on_c, 1, 52, 0
2, 121077371, Note_on_c, 1, 52, 63
2, 121104100, Note_on_c, 1, 46, 0
2, 121130829, Note_on_c, 1, 43, 0
2, 121157558, Note_on_c, 1, 37, 98
2, 121184499, Note_on_c, 1, 43, 71
2, 121211440, Note_on_c, 1, 46, 71
2, 121238381, Note_on_c, 1, 52, 0
2, 121246322, Note_on_c, 1, 52, 63
2, 121260177, Note_on_c, 1, 46, 0
2, 121274032, Note_on_c, 1, 43, 0
2, 121287887, Note_on_c, 1, 43, 71
2, 121301828, Note_on_c, 1, 46, 71
2, 121315769, Note_on_c, 1, 73, 0
2, 121329710, Note_on_c, 1, 52, 0
2, 121338249, Note_on_c, 1, 52, 63
2, 121365699, Note_on_c, 1, 43, 0
2, 121393149, Note_on_c, 1, 46, 0
2, 121420599, Note_on_c, 1, 46, 71
2, 121448262, Note_on_c, 1, 43, 71
2, 121475925, Note_on_c, 1, 52, 0
2, 121503588, Note_on_c, 1, 52, 63
2, 121531335, Note_on_c, 1, 46, 0
2, 121559082, Note_on_c, 1, 43, 0
2, 121586829, Note_on_c, 1, 73, 105
2, 121614789, Note_on_c, 1, 43, 71
2, 121642749, Note_on_c, 1, 46, 71
2, 121670709, Note_on_c, 1, 73, 0
2, 121698669, Note_on_c, 1, 52, 0
2, 121726629, Note_on_c, 1, 52, 63
2, 121754801, Note_on_c, 1, 43, 0
2, 121782973, Note_on_c, 1, 46, 0
2, 121811145, Note_on_c, 1, 73, 100
2, 121839402, Note_on_c, 1, 46, 71
2, 121867659, Note_on_c, 1, 43, 71
2, 121895916, Note_on_c, 1, 73, 0
2, 121924173, Note_on_c, 1, 52, 0
2, 121952430, Note_on_c, 1, 52, 63
2, 121980899, Note_on_c, 1, 46, 0
2, 122009368, Note_on_c, 1, 43, 0
2, 122037837, Note_on_c, 1, 73, 100
2, 122066519, Note_on_c, 1, 43, 71
2, 122095201, Note_on_c, 1, 46, 71
2, 122123883, Note_on_c, 1, 73, 0
2, 122152565, Note_on_c, 1, 52, 0
2, 122181247, Note_on_c, 1, 52, 63
2, 122210013, Note_on_c, 1, 46, 0
2, 122238779, Note_on_c, 1, 43, 0
2, 122267545, Note_on_c, 1, 73, 106
2, 122296524, Note_on_c, 1, 43, 71
2, 122325503, Note_on_c, 1, 46, 71
2, 122354482, Note_on_c, 1, 52, 0
2, 122368136, Note_on_c, 1, 52, 63
2, 122385665, Note_on_c, 1, 46, 0
2, 122403194, Note_on_c, 1, 43, 0
2, 122420723, Note_on_c, 1, 43, 71
2, 122438467, Note_on_c, 1, 46, 71
2, 122456211, Note_on_c, 1, 37, 0
2, 122473955, Note_on_c, 1, 52, 0
2, 122491699, Note_on_c, 1, 52, 63
2, 122509657, Note_on_c, 1, 46, 0
2, 122527615, Note_on_c, 1, 43, 0
2, 122545573, Note_on_c, 1, 43, 71
2, 122563617, Note_on_c, 1, 46, 71
2, 122581661, Note_on_c, 1, 52, 0
2, 122599705, Note_on_c, 1, 52, 63
2, 122617964, Note_on_c, 1, 46, 0
2, 122636223, Note_on_c, 1, 43, 0
2, 122654482, Note_on_c, 1, 37, 104
2, 122672955, Note_on_c, 1, 43, 71
2, 122691428, Note_on_c, 1, 46, 71
2, 122709901, Note_on_c, 1, 49, 0
2, 122722703, Note_on_c, 1, 49, 70
2, 122736650, Note_on_c, 1, 46, 0
2, 122750502, Note_on_c, 1, 46, 71
2, 122767508, Note_on_c, 1, 43, 0
2, 122770390, Note_on_c, 1, 43, 72
2, 122776367, Note_on_c, 1, 43, 0
2, 122785354, Note_on_c, 1, 43, 80
2, 122806957, Note_on_c, 1, 40, 0
2, 122819019, Note_on_c, 1, 40, 91
2, 122842171, Note_on_c, 1, 52, 0
2, 122845544, Note_on_c, 1, 52, 70
2, 122873242, Note_on_c, 1, 49, 0
2, 122895083, Note_on_c, 1, 49, 71
2, 122925636, Note_on_c, 1, 46, 0
2, 122955601, Note_on_c, 1, 46, 72
2, 122987680, Note_on_c, 1, 46, 0
2, 122987774, Note_on_c, 1, 46, 80
2, 122988606, Note_on_c, 1, 43, 0
2, 122995337, Note_on_c, 1, 43, 91
2, 122998992, Note_on_c, 1, 55, 0
2, 123022288, Note_on_c, 1, 55, 70
2, 123030252, Note_on_c, 1, 52, 0
2, 123047498, Note_on_c, 1, 52, 71
2, 123056832, Note_on_c, 1, 49, 0
2, 123089128, Note_on_c, 1, 49, 72
2, 123101239, Note_on_c, 1, 49, 0
2, 123126899, Note_on_c, 1, 49, 80
2, 123140496, Note_on_c, 1, 46, 0
2, 123168993, Note_on_c, 1, 46, 91
2, 123183944, Note_on_c, 1, 58, 0
2, 123186504, Note_on_c, 1, 58, 70
2, 123205546, Note_on_c, 1, 55, 0
2, 123233997, Note_on_c, 1, 55, 71
2, 123255766, Note_on_c, 1, 52, 0
2, 123267817, Note_on_c, 1, 52, 72
2, 123282504, Note_on_c, 1, 52, 0
2, 123299748, Note_on_c, 1, 52, 80
2, 123325427, Note_on_c, 1, 49, 0
2, 123345416, Note_on_c, 1, 49, 91
2, 123372416, Note_on_c, 1, 61, 0
2, 123391938, Note_on_c, 1, 61, 70
2, 123421699, Note_on_c, 1, 58, 0
2, 123451460, Note_on_c, 1, 58, 71
2, 123481423, Note_on_c, 1, 55, 0
2, 123511386, Note_on_c, 1, 55, 72
2, 123541424, Note_on_c, 1, 55, 0
2, 123571466, Note_on_c, 1, 55, 80
2, 123601707, Note_on_c, 1, 52, 0
2, 123631948, Note_on_c, 1, 52, 91
2, 123662263, Note_on_c, 1, 64, 0
2, 123692578, Note_on_c, 1, 64, 70
2, 123723298, Note_on_c, 1, 61, 0
2, 123754018, Note_on_c, 1, 61, 71
2, 123784813, Note_on_c, 1, 58, 0
2, 123815608, Note_on_c, 1, 58, 72
2, 123846606, Note_on_c, 1, 58, 0
2, 123877607, Note_on_c, 1, 58, 80
2, 123908679, Note_on_c, 1, 55, 0
2, 123939751, Note_on_c, 1, 55, 91
2, 123971026, Note_on_c, 1, 67, 0
2, 124002301, Note_on_c, 1, 67, 70
2, 124033853, Note_on_c, 1, 64, 0
2, 124065405, Note_on_c, 1, 64, 71
2, 124097160, Note_on_c, 1, 61, 0
2, 124128915, Note_on_c, 1, 61, 72
2, 124160744, Note_on_c, 1, 61, 0
2, 124192577, Note_on_c, 1, 61, 80
2, 124224609, Note_on_c, 1, 58, 0
2, 124256641, Note_on_c, 1, 58, 91
2, 124288747, Note_on_c, 1, 70, 0
2, 124320853, Note_on_c, 1, 70, 70
2, 124353365, Note_on_c, 1, 67, 0
2, 124385877, Note_on_c, 1, 67, 71
2, 124418463, Note_on_c, 1, 64, 0
2, 124451049, Note_on_c, 1, 64, 72
2, 124451070, Note_on_c, 1, 64, 0
2, 124451095, Note_on_c, 1, 64, 80
2, 124451191, Note_on_c, 1, 61, 0
2, 124451287, Note_on_c, 1, 61, 91
2, 124451585, Note_on_c, 1, 73, 0
2, 124451883, Note_on_c, 1, 73, 74
2, 124452458, Note_on_c, 1, 70, 0
2, 124453033, Note_on_c, 1, 70, 75
2, 124453811, Note_on_c, 1, 67, 0
2, 124454589, Note_on_c, 1, 67, 77
2, 124455442, Note_on_c, 1, 67, 0
2, 124456298, Note_on_c, 1, 67, 84
2, 124457353, Note_on_c, 1, 64, 0
2, 124458408, Note_on_c, 1, 64, 96
2, 124459538, Note_on_c, 1, 76, 0
2, 124460668, Note_on_c, 1, 76, 74
2, 124462075, Note_on_c, 1, 73, 0
2, 124463482, Note_on_c, 1, 73, 75
2, 124465092, Note_on_c, 1, 70, 0
2, 124466702, Note_on_c, 1, 70, 77
2, 124468514, Note_on_c, 1, 70, 0
2, 124470330, Note_on_c, 1, 70, 84
2, 124472217, Note_on_c, 1, 67, 0
2, 124474104, Note_on_c, 1, 67, 96
2, 124476193, Note_on_c, 1, 79, 0
2, 124478282, Note_on_c, 1, 79, 74
2, 124480649, Note_on_c, 1, 76, 0
2, 124483016, Note_on_c, 1, 76, 75
2, 124485585, Note_on_c, 1, 73, 0
2, 124488154, Note_on_c, 1, 73, 77
2, 124495898, Note_on_c, 1, 73, 0
2, 124504899, Note_on_c, 1, 73, 84
2, 124508846, Note_on_c, 1, 70, 0
2, 124512793, Note_on_c, 1, 70, 96
2, 124516943, Note_on_c, 1, 82, 0
2, 124524192, Note_on_c, 1, 82, 74
2, 124527390, Note_on_c, 1, 79, 0
2, 124530588, Note_on_c, 1, 79, 72
2, 124533989, Note_on_c, 1, 76, 0
2, 124539688, Note_on_c, 1, 76, 77
2, 124542061, Note_on_c, 1, 76, 0
2, 124544438, Note_on_c, 1, 76, 84
2, 124547014, Note_on_c, 1, 73, 0
2, 124550956, Note_on_c, 1, 73, 96
2, 124552500, Note_on_c, 1, 85, 0
2, 124554605, Note_on_c, 1, 85, 74
2, 124555191, Note_on_c, 1, 82, 0
2, 124555777, Note_on_c, 1, 82, 75
2, 124556566, Note_on_c, 1, 79, 0
2, 124557355, Note_on_c, 1, 79, 77
2, 124557972, Note_on_c, 1, 79, 0
2, 124590497, Note_on_c, 1, 79, 84
2, 124623094, Note_on_c, 1, 76, 0
2, 124655691, Note_on_c, 1, 76, 96
2, 124655723, Note_on_c, 1, 88, 0
2, 124687338, Note_on_c, 1, 88, 74
2, 124719175, Note_on_c, 1, 85, 0
2, 124749143, Note_on_c, 1, 85, 75
2, 124779940, Note_on_c, 1, 82, 0
2, 124810737, Note_on_c, 1, 82, 77
2, 124841737, Note_on_c, 1, 82, 0
2, 124872741, Note_on_c, 1, 82, 84
2, 124903817, Note_on_c, 1, 79, 0
2, 124932081, Note_on_c, 1, 79, 96
2, 124962113, Note_on_c, 1, 91, 0
2, 124988517, Note_on_c, 1, 91, 74
2, 125017708, Note_on_c, 1, 88, 0
2, 125046899, Note_on_c, 1, 88, 75
2, 125076166, Note_on_c, 1, 85, 0
2, 125100858, Note_on_c, 1, 85, 77
2, 125129077, Note_on_c, 1, 85, 0
2, 125157299, Note_on_c, 1, 85, 84
2, 125185722, Note_on_c, 1, 82, 0
2, 125214145, Note_on_c, 1, 82, 97
2, 125242644, Note_on_c, 1, 94, 0
2, 125260691, Note_on_c, 1, 94, 74
2, 125283289, Note_on_c, 1, 91, 0
2, 125305887, Note_on_c, 1, 91, 75
2, 125328691, Note_on_c, 1, 88, 0
2, 125351495, Note_on_c, 1, 88, 77
2, 125374376, Note_on_c, 1, 88, 0
2, 125397261, Note_on_c, 1, 88, 84
2, 125420348, Note_on_c, 1, 85, 0
2, 125443435, Note_on_c, 1, 85, 102
2, 125466599, Note_on_c, 1, 94, 0
2, 125483620, Note_on_c, 1, 94, 73
2, 125510327, Note_on_c, 1, 91, 0
2, 125522660, Note_on_c, 1, 91, 74
2, 125541132, Note_on_c, 1, 88, 0
2, 125559604, Note_on_c, 1, 88, 73
2, 125578154, Note_on_c, 1, 88, 0
2, 125596704, Note_on_c, 1, 88, 84
2, 125615461, Note_on_c, 1, 85, 0
2, 125634218, Note_on_c, 1, 85, 84
2, 125653181, Note_on_c, 1, 82, 0
2, 125672144, Note_on_c, 1, 82, 100
2, 125691185, Note_on_c, 1, 94, 0
2, 125717586, Note_on_c, 1, 94, 73
2, 125725026, Note_on_c, 1, 91, 0
2, 125751713, Note_on_c, 1, 91, 74
2, 125771039, Note_on_c, 1, 88, 0
2, 125790365, Note_on_c, 1, 88, 73
2, 125809897, Note_on_c, 1, 85, 0
2, 125829429, Note_on_c, 1, 85, 84
2, 125849167, Note_on_c, 1, 82, 0
2, 125868905, Note_on_c, 1, 82, 84
2, 125888721, Note_on_c, 1, 79, 0
2, 125908537, Note_on_c, 1, 79, 100
2, 125928560, Note_on_c, 1, 82, 0
2, 125948583, Note_on_c, 1, 79, 0
2, 125968606, Note_on_c, 1, 76, 0
2, 125988629, Note_on_c, 1, 85, 0
2, 126008652, Note_on_c, 1, 88, 0
2, 126028675, Note_on_c, 1, 94, 0
2, 126058235, Note_on_c, 1, 94, 70
2, 126067980, Note_on_c, 1, 91, 0
2, 126099233, Note_on_c, 1, 91, 74
2, 126120819, Note_on_c, 1, 88, 72
2, 126142611, Note_on_c, 1, 82, 84
2, 126164481, Note_on_c, 1, 85, 77
2, 126186351, Note_on_c, 1, 79, 84
2, 126208427, Note_on_c, 1, 76, 98
2, 126230709, Note_on_c, 1, 79, 0
2, 126252991, Note_on_c, 1, 76, 0
2, 126275273, Note_on_c, 1, 73, 0
2, 126297555, Note_on_c, 1, 82, 0
2, 126319837, Note_on_c, 1, 85, 0
2, 126342119, Note_on_c, 1, 91, 0
2, 126373620, Note_on_c, 1, 91, 70
2, 126382919, Note_on_c, 1, 88, 0
2, 126414706, Note_on_c, 1, 88, 74
2, 126437272, Note_on_c, 1, 85, 71
2, 126459916, Note_on_c, 1, 79, 84
2, 126482766, Note_on_c, 1, 82, 77
2, 126505616, Note_on_c, 1, 76, 84
2, 126513886, Note_on_c, 1, 73, 96
2, 126531894, Note_on_c, 1, 70, 0
2, 126549902, Note_on_c, 1, 76, 0
2, 126567910, Note_on_c, 1, 73, 0
2, 126585918, Note_on_c, 1, 79, 0
2, 126589871, Note_on_c, 1, 79, 71
2, 126608674, Note_on_c, 1, 79, 0
2, 126627477, Note_on_c, 1, 88, 0
2, 126646280, Note_on_c, 1, 91, 0
2, 126672748, Note_on_c, 1, 91, 76
2, 126680493, Note_on_c, 1, 82, 0
2, 126688238, Note_on_c, 1, 88, 70
2, 126696192, Note_on_c, 1, 85, 0
2, 126704146, Note_on_c, 1, 85, 73
2, 126712181, Note_on_c, 1, 82, 71
2, 126720424, Note_on_c, 1, 79, 77
2, 126730466, Note_on_c, 1, 76, 86
2, 126760211, Note_on_c, 1, 73, 84
2, 126790033, Note_on_c, 1, 70, 100
2, 126820061, Note_on_c, 1, 73, 0
2, 126850089, Note_on_c, 1, 70, 0
2, 126880117, Note_on_c, 1, 67, 0
2, 126910145, Note_on_c, 1, 76, 0
2, 126940173, Note_on_c, 1, 79, 0
2, 126950938, Note_on_c, 1, 79, 71
2, 126964523, Note_on_c, 1, 79, 0
2, 126978108, Note_on_c, 1, 88, 0
2, 126991693, Note_on_c, 1, 91, 0
2, 127005278, Note_on_c, 1, 91, 76
2, 127018943, Note_on_c, 1, 82, 0
2, 127018946, Note_on_c, 1, 88, 70
2, 127038003, Note_on_c, 1, 85, 0
2, 127057060, Note_on_c, 1, 85, 71
2, 127076324, Note_on_c, 1, 82, 71
2, 127095795, Note_on_c, 1, 79, 77
2, 127095854, Note_on_c, 1, 76, 84
2, 127114608, Note_on_c, 1, 73, 84
2, 127133569, Note_on_c, 1, 70, 84
2, 127152609, Note_on_c, 1, 67, 101
2, 127171857, Note_on_c, 1, 64, 0
2, 127191105, Note_on_c, 1, 67, 0
2, 127210353, Note_on_c, 1, 73, 0
2, 127229601, Note_on_c, 1, 70, 0
2, 127248849, Note_on_c, 1, 76, 0
2, 127268097, Note_on_c, 1, 79, 0
2, 127277620, Note_on_c, 1, 79, 72
2, 127300752, Note_on_c, 1, 79, 0
2, 127323884, Note_on_c, 1, 88, 0
2, 127347016, Note_on_c, 1, 91, 0
2, 127358124, Note_on_c, 1, 91, 74
2, 127378947, Note_on_c, 1, 82, 0
2, 127399770, Note_on_c, 1, 88, 70
2, 127420800, Note_on_c, 1, 85, 0
2, 127441830, Note_on_c, 1, 85, 72
2, 127462939, Note_on_c, 1, 82, 72
2, 127484256, Note_on_c, 1, 79, 77
2, 127498701, Note_on_c, 1, 76, 79
2, 127512578, Note_on_c, 1, 73, 78
2, 127533180, Note_on_c, 1, 70, 78
2, 127553989, Note_on_c, 1, 67, 78
2, 127575005, Note_on_c, 1, 64, 101
2, 127596101, Note_on_c, 1, 61, 0
2, 127617197, Note_on_c, 1, 64, 0
2, 127638293, Note_on_c, 1, 70, 0
2, 127659389, Note_on_c, 1, 67, 0
2, 127680485, Note_on_c, 1, 73, 0
2, 127701581, Note_on_c, 1, 79, 0
2, 127715180, Note_on_c, 1, 79, 71
2, 127740541, Note_on_c, 1, 79, 0
2, 127765902, Note_on_c, 1, 88, 0
2, 127791263, Note_on_c, 1, 91, 0
2, 127806446, Note_on_c, 1, 91, 73
2, 127829243, Note_on_c, 1, 82, 0
2, 127852040, Note_on_c, 1, 88, 70
2, 127874916, Note_on_c, 1, 85, 0
2, 127897792, Note_on_c, 1, 85, 70
2, 127920875, Note_on_c, 1, 82, 71
2, 127944037, Note_on_c, 1, 79, 75
2, 127960960, Note_on_c, 1, 73, 78
2, 127981034, Note_on_c, 1, 70, 78
2, 128007454, Note_on_c, 1, 67, 78
2, 128034080, Note_on_c, 1, 64, 78
2, 128060785, Note_on_c, 1, 61, 102
2, 128087697, Note_on_c, 1, 72, 0
2, 128114609, Note_on_c, 1, 76, 0
2, 128141521, Note_on_c, 1, 88, 0
2, 128168433, Note_on_c, 1, 64, 0
2, 128195345, Note_on_c, 1, 67, 0
2, 128196959, Note_on_c, 1, 67, 47
2, 128201591, Note_on_c, 1, 72, 61
2, 128206223, Note_on_c, 1, 64, 47
2, 128210855, Note_on_c, 1, 60, 0
2, 128215487, Note_on_c, 1, 60, 55
2, 128220423, Note_on_c, 1, 72, 0
2, 128225359, Note_on_c, 1, 64, 0
2, 128230295, Note_on_c, 1, 67, 0
2, 128240118, Note_on_c, 1, 67, 44
2, 128264050, Note_on_c, 1, 72, 58
2, 128287982, Note_on_c, 1, 64, 44
2, 128311914, Note_on_c, 1, 60, 0
2, 128339144, Note_on_c, 1, 60, 59
2, 128356900, Note_on_c, 1, 67, 0
2, 128374656, Note_on_c, 1, 64, 0
2, 128392412, Note_on_c, 1, 72, 0
2, 128414709, Note_on_c, 1, 72, 55
2, 128426075, Note_on_c, 1, 67, 41
2, 128437441, Note_on_c, 1, 64, 41
2, 128448807, Note_on_c, 1, 60, 0
2, 128460139, Note_on_c, 1, 60, 57
2, 128466358, Note_on_c, 1, 72, 0
2, 128472577, Note_on_c, 1, 67, 0
2, 128478796, Note_on_c, 1, 64, 0
2, 128496761, Note_on_c, 1, 64, 37
2, 128508809, Note_on_c, 1, 72, 50
2, 128520857, Note_on_c, 1, 67, 37
2, 128532905, Note_on_c, 1, 60, 0
2, 128544953, Note_on_c, 1, 60, 47
2, 128557304, Note_on_c, 1, 67, 0
2, 128569655, Note_on_c, 1, 64, 0
2, 128582006, Note_on_c, 1, 72, 0
2, 128614641, Note_on_c, 1, 72, 48
2, 128635225, Note_on_c, 1, 67, 37
2, 128655809, Note_on_c, 1, 64, 37
2, 128676393, Note_on_c, 1, 76, 80
2, 128696977, Note_on_c, 1, 88, 94
2, 128717561, Note_on_c, 1, 79, 0
2, 128738145, Note_on_c, 1, 91, 0
2, 128758729, Note_on_c, 1, 60, 0
2, 128779564, Note_on_c, 1, 60, 51
2, 128780111, Note_on_c, 1, 67, 0
2, 128780658, Note_on_c, 1, 64, 0
2, 128781205, Note_on_c, 1, 72, 0
2, 128781752, Note_on_c, 1, 72, 48
2, 128782594, Note_on_c, 1, 67, 38
2, 128783436, Note_on_c, 1, 64, 38
2, 128784278, Note_on_c, 1, 60, 0
2, 128785120, Note_on_c, 1, 60, 64
2, 128786258, Note_on_c, 1, 91, 102
2, 128787396, Note_on_c, 1, 79, 102
2, 128788534, Note_on_c, 1, 71, 0
2, 128789672, Note_on_c, 1, 86, 0
2, 128790810, Note_on_c, 1, 74, 0
2, 128791948, Note_on_c, 1, 62, 0
2, 128793086, Note_on_c, 1, 67, 0
2, 128802358, Note_on_c, 1, 67, 44
2, 128832568, Note_on_c, 1, 71, 59
2, 128862778, Note_on_c, 1, 62, 44
2, 128892988, Note_on_c, 1, 59, 0
2, 128923198, Note_on_c, 1, 59, 51
2, 128953716, Note_on_c, 1, 71, 0
2, 128984234, Note_on_c, 1, 62, 0
2, 129014752, Note_on_c, 1, 67, 0
2, 129019692, Note_on_c, 1, 67, 40
2, 129044884, Note_on_c, 1, 71, 55
2, 129070076, Note_on_c, 1, 62, 40
2, 129095268, Note_on_c, 1, 59, 0
2, 129097081, Note_on_c, 1, 59, 56
2, 129116089, Note_on_c, 1, 67, 0
2, 129135097, Note_on_c, 1, 62, 0
2, 129154105, Note_on_c, 1, 71, 0
2, 129171072, Note_on_c, 1, 71, 51
2, 129184999, Note_on_c, 1, 67, 39
2, 129198926, Note_on_c, 1, 62, 39
2, 129212853, Note_on_c, 1, 59, 0
2, 129236955, Note_on_c, 1, 59, 53
2, 129245743, Note_on_c, 1, 71, 0
2, 129254531, Note_on_c, 1, 67, 0
2, 129263319, Note_on_c, 1, 62, 0
2, 129287993, Note_on_c, 1, 62, 35
2, 129304181, Note_on_c, 1, 71, 47
2, 129320369, Note_on_c, 1, 67, 35
2, 129336557, Note_on_c, 1, 59, 0
2, 129352745, Note_on_c, 1, 59, 42
2, 129369236, Note_on_c, 1, 67, 0
2, 129385727, Note_on_c, 1, 62, 0
2, 129402218, Note_on_c, 1, 71, 0
2, 129410461, Note_on_c, 1, 71, 45
2, 129435153, Note_on_c, 1, 67, 34
2, 129459845, Note_on_c, 1, 62, 34
2, 129484537, Note_on_c, 1, 86, 89
2, 129509229, Note_on_c, 1, 74, 74
2, 129533921, Note_on_c, 1, 79, 0
2, 129558613, Note_on_c, 1, 91, 0
2, 129583305, Note_on_c, 1, 59, 0
2, 129610955, Note_on_c, 1, 59, 49
2, 129614081, Note_on_c, 1, 67, 0
2, 129617207, Note_on_c, 1, 62, 0
2, 129620333, Note_on_c, 1, 71, 0
2, 129623459, Note_on_c, 1, 71, 46
2, 129626881, Note_on_c, 1, 67, 36
2, 129630303, Note_on_c, 1, 62, 36
2, 129633725, Note_on_c, 1, 59, 0
2, 129637147, Note_on_c, 1, 59, 60
2, 129640993, Note_on_c, 1, 91, 96
2, 129644839, Note_on_c, 1, 79, 96
2, 129648685, Note_on_c, 1, 71, 0
2, 129652531, Note_on_c, 1, 74, 0
2, 129656377, Note_on_c, 1, 86, 0
2, 129660223, Note_on_c, 1, 66, 0
2, 129664069, Note_on_c, 1, 62, 0
2, 129685588, Note_on_c, 1, 62, 42
2, 129687239, Note_on_c, 1, 71, 56
2, 129688890, Note_on_c, 1, 66, 42
2, 129690541, Note_on_c, 1, 59, 0
2, 129692192, Note_on_c, 1, 59, 49
2, 129694279, Note_on_c, 1, 71, 0
2, 129696366, Note_on_c, 1, 66, 0
2, 129698453, Note_on_c, 1, 62, 0
2, 129708795, Note_on_c, 1, 62, 38
2, 129732672, Note_on_c, 1, 71, 52
2, 129756549, Note_on_c, 1, 66, 38
2, 129780426, Note_on_c, 1, 59, 0
2, 129806646, Note_on_c, 1, 59, 53
2, 129824165, Note_on_c, 1, 66, 0
2, 129841684, Note_on_c, 1, 71, 0
2, 129859203, Note_on_c, 1, 62, 0
2, 129879775, Note_on_c, 1, 62, 37
2, 129890846, Note_on_c, 1, 66, 37
2, 129901917, Note_on_c, 1, 71, 49
2, 129912988, Note_on_c, 1, 59, 0
2, 129922471, Note_on_c, 1, 59, 50
2, 129928221, Note_on_c, 1, 66, 0
2, 129933971, Note_on_c, 1, 62, 0
2, 129939721, Note_on_c, 1, 71, 0
2, 129965625, Note_on_c, 1, 71, 44
2, 129985953, Note_on_c, 1, 66, 33
2, 130006281, Note_on_c, 1, 62, 33
2, 130026609, Note_on_c, 1, 59, 0
2, 130046937, Note_on_c, 1, 59, 40
2, 130067696, Note_on_c, 1, 62, 0
2, 130088455, Note_on_c, 1, 71, 0
2, 130109214, Note_on_c, 1, 66, 0
2, 130125705, Note_on_c, 1, 66, 33
2, 130154504, Note_on_c, 1, 62, 33
2, 130183303, Note_on_c, 1, 71, 42
2, 130212102, Note_on_c, 1, 74, 70
2, 130240901, Note_on_c, 1, 86, 83
2, 130269700, Note_on_c, 1, 90, 0
2, 130298499, Note_on_c, 1, 78, 0
2, 130327298, Note_on_c, 1, 59, 0
2, 130357272, Note_on_c, 1, 59, 47
2, 130358617, Note_on_c, 1, 62, 0
2, 130359962, Note_on_c, 1, 71, 0
2, 130361307, Note_on_c, 1, 66, 0
2, 130362652, Note_on_c, 1, 66, 35
2, 130364295, Note_on_c, 1, 62, 35
2, 130365938, Note_on_c, 1, 71, 44
2, 130367581, Note_on_c, 1, 59, 0
2, 130369224, Note_on_c, 1, 59, 57
2, 130371293, Note_on_c, 1, 78, 80
2, 130373362, Note_on_c, 1, 90, 89
2, 130375431, Note_on_c, 1, 70, 0
2, 130377500, Note_on_c, 1, 85, 0
2, 130379569, Note_on_c, 1, 73, 0
2, 130381638, Note_on_c, 1, 66, 0
2, 130383707, Note_on_c, 1, 61, 0
2, 130400667, Note_on_c, 1, 61, 41
2, 130406655, Note_on_c, 1, 70, 55
2, 130412643, Note_on_c, 1, 66, 41
2, 130418631, Note_on_c, 1, 58, 0
2, 130424619, Note_on_c, 1, 58, 48
2, 130431043, Note_on_c, 1, 70, 0
2, 130437467, Note_on_c, 1, 66, 0
2, 130443891, Note_on_c, 1, 61, 0
2, 130472576, Note_on_c, 1, 61, 38
2, 130489745, Note_on_c, 1, 70, 51
2, 130506914, Note_on_c, 1, 66, 38
2, 130524083, Note_on_c, 1, 58, 0
2, 130524415, Note_on_c, 1, 58, 52
2, 130540556, Note_on_c, 1, 66, 0
2, 130556697, Note_on_c, 1, 70, 0
2, 130572838, Note_on_c, 1, 61, 0
2, 130584655, Note_on_c, 1, 61, 37
2, 130598309, Note_on_c, 1, 66, 37
2, 130611963, Note_on_c, 1, 70, 49
2, 130625617, Note_on_c, 1, 58, 0
2, 130651777, Note_on_c, 1, 58, 50
2, 130664394, Note_on_c, 1, 66, 0
2, 130677011, Note_on_c, 1, 61, 0
2, 130689628, Note_on_c, 1, 70, 0
2, 130693771, Note_on_c, 1, 70, 44
2, 130718368, Note_on_c, 1, 66, 33
2, 130742965, Note_on_c, 1, 61, 33
2, 130767562, Note_on_c, 1, 58, 0
2, 130792159, Note_on_c, 1, 58, 40
2, 130817058, Note_on_c, 1, 61, 0
2, 130841957, Note_on_c, 1, 70, 0
2, 130866856, Note_on_c, 1, 66, 0
2, 130891722, Note_on_c, 1, 66, 33
2, 130891989, Note_on_c, 1, 61, 33
2, 130892256, Note_on_c, 1, 70, 42
2, 130892523, Note_on_c, 1, 85, 81
2, 130892790, Note_on_c, 1, 73, 68
2, 130893057, Note_on_c, 1, 78, 0
2, 130893324, Note_on_c, 1, 90, 0
2, 130893591, Note_on_c, 1, 58, 0
2, 130898992, Note_on_c, 1, 58, 47
2, 130904424, Note_on_c, 1, 61, 0
2, 130909856, Note_on_c, 1, 70, 0
2, 130915288, Note_on_c, 1, 66, 0
2, 130920720, Note_on_c, 1, 66, 35
2, 130926450, Note_on_c, 1, 61, 35
2, 130932180, Note_on_c, 1, 70, 44
2, 130937910, Note_on_c, 1, 58, 0
2, 130943640, Note_on_c, 1, 58, 48
2, 130949796, Note_on_c, 1, 90, 89
2, 130955952, Note_on_c, 1, 78, 80
2, 130962108, Note_on_c, 1, 77, 0
2, 130968264, Note_on_c, 1, 59, 0
2, 130974420, Note_on_c, 1, 61, 0
2, 130980576, Note_on_c, 1, 68, 0
2, 130986732, Note_on_c, 1, 89, 0
2, 131015000, Note_on_c, 1, 89, 82
2, 131037345, Note_on_c, 1, 77, 75
2, 131059690, Note_on_c, 1, 80, 0
2, 131082035, Note_on_c, 1, 92, 0
2, 131088299, Note_on_c, 1, 61, 42
2, 131105203, Note_on_c, 1, 68, 55
2, 131122107, Note_on_c, 1, 59, 42
2, 131139011, Note_on_c, 1, 56, 0
2, 131155915, Note_on_c, 1, 56, 52
2, 131173125, Note_on_c, 1, 68, 0
2, 131190335, Note_on_c, 1, 61, 0
2, 131207545, Note_on_c, 1, 59, 0
2, 131222960, Note_on_c, 1, 59, 44
2, 131254234, Note_on_c, 1, 68, 55
2, 131285508, Note_on_c, 1, 61, 44
2, 131316782, Note_on_c, 1, 92, 85
2, 131348056, Note_on_c, 1, 80, 77
2, 131379330, Note_on_c, 1, 77, 0
2, 131410604, Note_on_c, 1, 89, 0
2, 131441878, Note_on_c, 1, 56, 0
2, 131452934, Note_on_c, 1, 56, 50
2, 131465780, Note_on_c, 1, 59, 0
2, 131478626, Note_on_c, 1, 68, 0
2, 131491472, Note_on_c, 1, 61, 0
2, 131504318, Note_on_c, 1, 61, 37
2, 131517461, Note_on_c, 1, 59, 37
2, 131530604, Note_on_c, 1, 68, 49
2, 131543747, Note_on_c, 1, 56, 0
2, 131573459, Note_on_c, 1, 56, 52
2, 131589934, Note_on_c, 1, 89, 80
2, 131606409, Note_on_c, 1, 77, 74
2, 131622884, Note_on_c, 1, 90, 0
2, 131639359, Note_on_c, 1, 58, 0
2, 131655834, Note_on_c, 1, 61, 0
2, 131672309, Note_on_c, 1, 66, 0
2, 131688784, Note_on_c, 1, 78, 0
2, 131705259, Note_on_c, 1, 78, 69
2, 131721963, Note_on_c, 1, 90, 75
2, 131738667, Note_on_c, 1, 82, 0
2, 131755371, Note_on_c, 1, 94, 0
2, 131767957, Note_on_c, 1, 61, 37
2, 131796694, Note_on_c, 1, 66, 49
2, 131825431, Note_on_c, 1, 58, 37
2, 131854168, Note_on_c, 1, 54, 0
2, 131882905, Note_on_c, 1, 54, 48
2, 131911944, Note_on_c, 1, 61, 0
2, 131940983, Note_on_c, 1, 66, 0
2, 131970022, Note_on_c, 1, 58, 0
2, 131970368, Note_on_c, 1, 58, 39
2, 131974743, Note_on_c, 1, 61, 39
2, 131979118, Note_on_c, 1, 66, 50
2, 131983493, Note_on_c, 1, 94, 81
2, 131987868, Note_on_c, 1, 82, 74
2, 131992243, Note_on_c, 1, 78, 0
2, 131996618, Note_on_c, 1, 90, 0
2, 132000993, Note_on_c, 1, 54, 0
2, 132014589, Note_on_c, 1, 54, 47
2, 132024108, Note_on_c, 1, 61, 0
2, 132033627, Note_on_c, 1, 66, 0
2, 132043146, Note_on_c, 1, 58, 0
2, 132052665, Note_on_c, 1, 58, 35
2, 132062482, Note_on_c, 1, 61, 35
2, 132072299, Note_on_c, 1, 66, 44
2, 132082116, Note_on_c, 1, 54, 0
2, 132091933, Note_on_c, 1, 54, 48
2, 132102176, Note_on_c, 1, 90, 80
2, 132112419, Note_on_c, 1, 78, 71
2, 132122662, Note_on_c, 1, 85, 0
2, 132132905, Note_on_c, 1, 66, 0
2, 132143148, Note_on_c, 1, 61, 0
2, 132153391, Note_on_c, 1, 58, 0
2, 132163634, Note_on_c, 1, 73, 0
2, 132166473, Note_on_c, 1, 73, 69
2, 132191937, Note_on_c, 1, 85, 75
2, 132217401, Note_on_c, 1, 70, 0
2, 132242865, Note_on_c, 1, 82, 0
2, 132265741, Note_on_c, 1, 61, 35
2, 132296008, Note_on_c, 1, 58, 35
2, 132326275, Note_on_c, 1, 66, 44
2, 132356542, Note_on_c, 1, 54, 0
2, 132369108, Note_on_c, 1, 54, 42
2, 132384077, Note_on_c, 1, 61, 0
2, 132399046, Note_on_c, 1, 58, 0
2, 132414015, Note_on_c, 1, 66, 0
2, 132433072, Note_on_c, 1, 66, 46
2, 132437461, Note_on_c, 1, 61, 35
2, 132441850, Note_on_c, 1, 58, 35
2, 132446239, Note_on_c, 1, 82, 79
2, 132450628, Note_on_c, 1, 70, 73
2, 132455017, Note_on_c, 1, 73, 0
2, 132459406, Note_on_c, 1, 54, 0
2, 132463795, Note_on_c, 1, 54, 47
2, 132468484, Note_on_c, 1, 66, 0
2, 132473173, Note_on_c, 1, 61, 0
2, 132477862, Note_on_c, 1, 58, 0
2, 132482551, Note_on_c, 1, 58, 34
2, 132487540, Note_on_c, 1, 61, 34
2, 132492529, Note_on_c, 1, 66, 44
2, 132497518, Note_on_c, 1, 54, 0
2, 132502507, Note_on_c, 1, 54, 47
2, 132507925, Note_on_c, 1, 66, 0
2, 132513343, Note_on_c, 1, 61, 0
2, 132518761, Note_on_c, 1, 58, 0
2, 132524179, Note_on_c, 1, 58, 34
2, 132529897, Note_on_c, 1, 61, 34
2, 132535615, Note_on_c, 1, 66, 46
2, 132541333, Note_on_c, 1, 54, 0
2, 132547051, Note_on_c, 1, 54, 43
2, 132553197, Note_on_c, 1, 66, 0
2, 132559343, Note_on_c, 1, 61, 0
2, 132565489, Note_on_c, 1, 58, 0
2, 132571635, Note_on_c, 1, 58, 35
2, 132578082, Note_on_c, 1, 61, 35
2, 132584529, Note_on_c, 1, 66, 46
2, 132590976, Note_on_c, 1, 73, 73
2, 132597423, Note_on_c, 1, 70, 0
2, 132603870, Note_on_c, 1, 54, 0
2, 132605489, Note_on_c, 1, 54, 47
2, 132633733, Note_on_c, 1, 66, 0
2, 132661977, Note_on_c, 1, 61, 0
2, 132690221, Note_on_c, 1, 58, 0
2, 132718465, Note_on_c, 1, 58, 34
2, 132747141, Note_on_c, 1, 61, 34
2, 132775817, Note_on_c, 1, 66, 43
2, 132804493, Note_on_c, 1, 54, 0
2, 132833169, Note_on_c, 1, 54, 53
2, 132862150, Note_on_c, 1, 70, 78
2, 132891131, Note_on_c, 1, 60, 0
2, 132920112, Note_on_c, 1, 57, 0
2, 132949093, Note_on_c, 1, 63, 0
2, 132978074, Note_on_c, 1, 72, 0
2, 132993987, Note_on_c, 1, 72, 67
2, 133013800, Note_on_c, 1, 75, 0
2, 133040260, Note_on_c, 1, 63, 38
2, 133046999, Note_on_c, 1, 57, 31
2, 133053738, Note_on_c, 1, 60, 31
2, 133060477, Note_on_c, 1, 53, 0
2, 133067216, Note_on_c, 1, 53, 38
2, 133074395, Note_on_c, 1, 60, 0
2, 133081574, Note_on_c, 1, 57, 0
2, 133088753, Note_on_c, 1, 63, 0
2, 133106783, Note_on_c, 1, 63, 42
2, 133118061, Note_on_c, 1, 57, 33
2, 133129339, Note_on_c, 1, 60, 33
2, 133140617, Note_on_c, 1, 75, 71
2, 133151895, Note_on_c, 1, 72, 0
2, 133163173, Note_on_c, 1, 53, 0
2, 133195003, Note_on_c, 1, 53, 37
2, 133215851, Note_on_c, 1, 60, 0
2, 133236699, Note_on_c, 1, 57, 0
2, 133257547, Note_on_c, 1, 63, 0
2, 133278395, Note_on_c, 1, 63, 37
2, 133299667, Note_on_c, 1, 57, 29
2, 133320939, Note_on_c, 1, 60, 29
2, 133342211, Note_on_c, 1, 53, 0
2, 133356858, Note_on_c, 1, 53, 40
2, 133383035, Note_on_c, 1, 72, 70
2, 133409212, Note_on_c, 1, 61, 0
2, 133435389, Note_on_c, 1, 65, 0
2, 133461566, Note_on_c, 1, 58, 0
2, 133487743, Note_on_c, 1, 73, 0
2, 133513920, Note_on_c, 1, 73, 61
2, 133540325, Note_on_c, 1, 77, 0
2, 133563889, Note_on_c, 1, 58, 28
2, 133593905, Note_on_c, 1, 65, 35
2, 133623921, Note_on_c, 1, 61, 28
2, 133653937, Note_on_c, 1, 53, 0
2, 133683953, Note_on_c, 1, 53, 34
2, 133714274, Note_on_c, 1, 58, 0
2, 133744595, Note_on_c, 1, 65, 0
2, 133774916, Note_on_c, 1, 61, 0
2, 133780076, Note_on_c, 1, 61, 30
2, 133787856, Note_on_c, 1, 65, 38
2, 133795636, Note_on_c, 1, 58, 30
2, 133803416, Note_on_c, 1, 77, 67
2, 133811196, Note_on_c, 1, 73, 0
2, 133818976, Note_on_c, 1, 53, 0
2, 133826765, Note_on_c, 1, 53, 34
2, 133827066, Note_on_c, 1, 58, 0
2, 133827367, Note_on_c, 1, 65, 0
2, 133827668, Note_on_c, 1, 61, 0
2, 133827969, Note_on_c, 1, 61, 27
2, 133828563, Note_on_c, 1, 65, 33
2, 133829157, Note_on_c, 1, 58, 27
2, 133829751, Note_on_c, 1, 53, 0
2, 133830345, Note_on_c, 1, 53, 37
2, 133831231, Note_on_c, 1, 73, 70
2, 133832117, Note_on_c, 1, 63, 0
2, 133833003, Note_on_c, 1, 54, 0
2, 133833889, Note_on_c, 1, 66, 0
2, 133834775, Note_on_c, 1, 58, 0
2, 133835661, Note_on_c, 1, 75, 0
2, 133858051, Note_on_c, 1, 75, 63
2, 133879663, Note_on_c, 1, 78, 0
2, 133891751, Note_on_c, 1, 58, 27
2, 133915085, Note_on_c, 1, 63, 35
2, 133938419, Note_on_c, 1, 54, 27
2, 133961753, Note_on_c, 1, 51, 0
2, 133985087, Note_on_c, 1, 51, 33
2, 134008729, Note_on_c, 1, 63, 0
2, 134032371, Note_on_c, 1, 54, 0
2, 134056013, Note_on_c, 1, 58, 0
2, 134071207, Note_on_c, 1, 58, 28
2, 134095823, Note_on_c, 1, 63, 36
2, 134120439, Note_on_c, 1, 54, 28
2, 134145055, Note_on_c, 1, 66, 62
2, 134169671, Note_on_c, 1, 78, 68
2, 134194287, Note_on_c, 1, 77, 0
2, 134218903, Note_on_c, 1, 65, 0
2, 134243519, Note_on_c, 1, 49, 0
2, 134268135, Note_on_c, 1, 49, 39
2, 134293048, Note_on_c, 1, 58, 0
2, 134317961, Note_on_c, 1, 53, 0
2, 134342874, Note_on_c, 1, 61, 0
2, 134367787, Note_on_c, 1, 61, 38
2, 134392996, Note_on_c, 1, 58, 29
2, 134418205, Note_on_c, 1, 53, 29
2, 134443414, Note_on_c, 1, 49, 0
2, 134466977, Note_on_c, 1, 49, 40
2, 134498004, Note_on_c, 1, 61, 0
2, 134529031, Note_on_c, 1, 58, 0
2, 134560058, Note_on_c, 1, 53, 0
2, 134566747, Note_on_c, 1, 53, 29
2, 134575264, Note_on_c, 1, 61, 38
2, 134583781, Note_on_c, 1, 58, 29
2, 134592298, Note_on_c, 1, 49, 0
2, 134600815, Note_on_c, 1, 49, 37
2, 134609635, Note_on_c, 1, 58, 0
2, 134618455, Note_on_c, 1, 53, 0
2, 134627275, Note_on_c, 1, 61, 0
2, 134652621, Note_on_c, 1, 61, 39
2, 134669319, Note_on_c, 1, 58, 30
2, 134686017, Note_on_c, 1, 53, 30
2, 134702715, Note_on_c, 1, 65, 52
2, 134719413, Note_on_c, 1, 77, 52
2, 134736111, Note_on_c, 1, 70, 0
2, 134752809, Note_on_c, 1, 82, 0
2, 134769507, Note_on_c, 1, 49, 0
2, 134774920, Note_on_c, 1, 49, 36
2, 134796701, Note_on_c, 1, 58, 0
2, 134818482, Note_on_c, 1, 53, 0
2, 134840263, Note_on_c, 1, 61, 0
2, 134862044, Note_on_c, 1, 61, 34
2, 134884123, Note_on_c, 1, 58, 27
2, 134906202, Note_on_c, 1, 53, 27
2, 134928281, Note_on_c, 1, 49, 0
2, 134950360, Note_on_c, 1, 49, 37
2, 134972737, Note_on_c, 1, 82, 57
2, 134995114, Note_on_c, 1, 70, 51
2, 135017491, Note_on_c, 1, 69, 0
2, 135039868, Note_on_c, 1, 53, 0
2, 135062245, Note_on_c, 1, 51, 0
2, 135084622, Note_on_c, 1, 60, 0
2, 135106999, Note_on_c, 1, 81, 0
2, 135130919, Note_on_c, 1, 81, 63
2, 135132720, Note_on_c, 1, 69, 58
2, 135134521, Note_on_c, 1, 72, 0
2, 135136322, Note_on_c, 1, 84, 0
2, 135165576, Note_on_c, 1, 51, 33
2, 135193247, Note_on_c, 1, 60, 42
2, 135220918, Note_on_c, 1, 53, 33
2, 135248589, Note_on_c, 1, 48, 0
2, 135276260, Note_on_c, 1, 48, 40
2, 135304239, Note_on_c, 1, 60, 0
2, 135332218, Note_on_c, 1, 51, 0
2, 135360197, Note_on_c, 1, 53, 0
2, 135362295, Note_on_c, 1, 53, 34
2, 135369486, Note_on_c, 1, 60, 42
2, 135376677, Note_on_c, 1, 51, 34
2, 135383868, Note_on_c, 1, 84, 65
2, 135391059, Note_on_c, 1, 72, 59
2, 135398250, Note_on_c, 1, 81, 0
2, 135405441, Note_on_c, 1, 69, 0
2, 135412632, Note_on_c, 1, 48, 0
2, 135415736, Note_on_c, 1, 48, 39
2, 135444713, Note_on_c, 1, 53, 0
2, 135473690, Note_on_c, 1, 51, 0
2, 135502667, Note_on_c, 1, 60, 0
2, 135531644, Note_on_c, 1, 60, 38
2, 135560917, Note_on_c, 1, 53, 29
2, 135590190, Note_on_c, 1, 51, 29
2, 135619463, Note_on_c, 1, 48, 0
2, 135651813, Note_on_c, 1, 48, 40
2, 135654923, Note_on_c, 1, 69, 57
2, 135658033, Note_on_c, 1, 81, 61
2, 135661143, Note_on_c, 1, 70, 0
2, 135664253, Note_on_c, 1, 53, 0
2, 135667363, Note_on_c, 1, 49, 0
2, 135670473, Note_on_c, 1, 58, 0
2, 135673583, Note_on_c, 1, 82, 0
2, 135676693, Note_on_c, 1, 82, 58
2, 135680032, Note_on_c, 1, 70, 53
2, 135683371, Note_on_c, 1, 85, 0
2, 135686710, Note_on_c, 1, 73, 0
2, 135702619, Note_on_c, 1, 49, 29
2, 135715276, Note_on_c, 1, 58, 38
2, 135727933, Note_on_c, 1, 53, 29
2, 135740590, Note_on_c, 1, 46, 0
2, 135753247, Note_on_c, 1, 46, 37
2, 135766335, Note_on_c, 1, 53, 0
2, 135779423, Note_on_c, 1, 49, 0
2, 135792511, Note_on_c, 1, 58, 0
2, 135793337, Note_on_c, 1, 58, 39
2, 135814143, Note_on_c, 1, 53, 30
2, 135834949, Note_on_c, 1, 49, 30
2, 135855755, Note_on_c, 1, 73, 57
2, 135876561, Note_on_c, 1, 85, 62
2, 135897367, Note_on_c, 1, 82, 0
2, 135918173, Note_on_c, 1, 70, 0
2, 135938979, Note_on_c, 1, 46, 0
2, 135952588, Note_on_c, 1, 46, 36
2, 135978457, Note_on_c, 1, 53, 0
2, 136004326, Note_on_c, 1, 49, 0
2, 136030195, Note_on_c, 1, 58, 0
2, 136056064, Note_on_c, 1, 58, 34
2, 136082230, Note_on_c, 1, 53, 27
2, 136108396, Note_on_c, 1, 49, 27
2, 136134562, Note_on_c, 1, 46, 0
2, 136160728, Note_on_c, 1, 46, 37
2, 136187192, Note_on_c, 1, 70, 51
2, 136213656, Note_on_c, 1, 82, 60
2, 136240120, Note_on_c, 1, 77, 0
2, 136266584, Note_on_c, 1, 49, 0
2, 136293048, Note_on_c, 1, 58, 0
2, 136319512, Note_on_c, 1, 53, 0
2, 136345976, Note_on_c, 1, 65, 0
2, 136356578, Note_on_c, 1, 65, 53
2, 136373601, Note_on_c, 1, 77, 58
2, 136390624, Note_on_c, 1, 73, 0
2, 136407647, Note_on_c, 1, 61, 0
2, 136423820, Note_on_c, 1, 58, 34
2, 136455828, Note_on_c, 1, 53, 27
2, 136487836, Note_on_c, 1, 49, 27
2, 136519844, Note_on_c, 1, 46, 0
2, 136551852, Note_on_c, 1, 46, 33
2, 136584168, Note_on_c, 1, 58, 0
2, 136616484, Note_on_c, 1, 53, 0
2, 136648800, Note_on_c, 1, 49, 0
2, 136669030, Note_on_c, 1, 49, 27
2, 136689884, Note_on_c, 1, 58, 35
2, 136710738, Note_on_c, 1, 53, 27
2, 136731592, Note_on_c, 1, 61, 56
2, 136752446, Note_on_c, 1, 73, 60
2, 136773300, Note_on_c, 1, 65, 0
2, 136794154, Note_on_c, 1, 45, 0
2, 136815008, Note_on_c, 1, 45, 39
2, 136836290, Note_on_c, 1, 48, 0
2, 136857572, Note_on_c, 1, 53, 0
2, 136878854, Note_on_c, 1, 57, 0
2, 136900136, Note_on_c, 1, 57, 36
2, 136921719, Note_on_c, 1, 53, 28
2, 136943302, Note_on_c, 1, 48, 28
2, 136964885, Note_on_c, 1, 45, 0
2, 136986468, Note_on_c, 1, 45, 39
2, 137008351, Note_on_c, 1, 48, 0
2, 137030234, Note_on_c, 1, 53, 0
2, 137052117, Note_on_c, 1, 57, 0
2, 137074000, Note_on_c, 1, 57, 38
2, 137096311, Note_on_c, 1, 53, 28
2, 137118622, Note_on_c, 1, 48, 28
2, 137140933, Note_on_c, 1, 45, 0
2, 137163244, Note_on_c, 1, 45, 36
2, 137185856, Note_on_c, 1, 48, 0
2, 137208468, Note_on_c, 1, 53, 0
2, 137231080, Note_on_c, 1, 57, 0
2, 137253692, Note_on_c, 1, 57, 38
2, 137276732, Note_on_c, 1, 53, 29
2, 137299772, Note_on_c, 1, 48, 29
2, 137322812, Note_on_c, 1, 65, 63
2, 137345852, Note_on_c, 1, 60, 0
2, 137368892, Note_on_c, 1, 45, 0
2, 137371249, Note_on_c, 1, 45, 45
2, 137383639, Note_on_c, 1, 48, 0
2, 137396029, Note_on_c, 1, 53, 0
2, 137408419, Note_on_c, 1, 57, 0
2, 137420809, Note_on_c, 1, 57, 41
2, 137433631, Note_on_c, 1, 53, 33
2, 137446453, Note_on_c, 1, 48, 33
2, 137459275, Note_on_c, 1, 45, 0
2, 137472097, Note_on_c, 1, 45, 51
2, 137485224, Note_on_c, 1, 60, 72
2, 137498351, Note_on_c, 1, 48, 0
2, 137511478, Note_on_c, 1, 56, 0
2, 137524605, Note_on_c, 1, 51, 0
2, 137537732, Note_on_c, 1, 63, 0
2, 137559537, Note_on_c, 1, 63, 59
2, 137568328, Note_on_c, 1, 66, 0
2, 137568682, Note_on_c, 1, 51, 30
2, 137593105, Note_on_c, 1, 56, 37
2, 137617528, Note_on_c, 1, 48, 30
2, 137641951, Note_on_c, 1, 44, 0
2, 137666374, Note_on_c, 1, 44, 37
2, 137691237, Note_on_c, 1, 48, 0
2, 137716100, Note_on_c, 1, 56, 0
2, 137740963, Note_on_c, 1, 51, 0
2, 137760455, Note_on_c, 1, 51, 32
2, 137788152, Note_on_c, 1, 56, 41
2, 137815849, Note_on_c, 1, 48, 32
2, 137843546, Note_on_c, 1, 66, 66
2, 137871243, Note_on_c, 1, 63, 0
2, 137898940, Note_on_c, 1, 44, 0
2, 137930552, Note_on_c, 1, 44, 36
2, 137934763, Note_on_c, 1, 48, 0
2, 137938974, Note_on_c, 1, 56, 0
2, 137943185, Note_on_c, 1, 51, 0
2, 137947396, Note_on_c, 1, 51, 29
2, 137952031, Note_on_c, 1, 56, 36
2, 137956666, Note_on_c, 1, 48, 29
2, 137961301, Note_on_c, 1, 44, 0
2, 137978714, Note_on_c, 1, 44, 40
2, 137991526, Note_on_c, 1, 63, 63
2, 138004338, Note_on_c, 1, 49, 0
2, 138017150, Note_on_c, 1, 56, 0
2, 138029962, Note_on_c, 1, 53, 0
2, 138042774, Note_on_c, 1, 65, 0
2, 138055586, Note_on_c, 1, 65, 55
2, 138068499, Note_on_c, 1, 68, 0
2, 138095638, Note_on_c, 1, 53, 28
2, 138109824, Note_on_c, 1, 56, 35
2, 138124010, Note_on_c, 1, 49, 28
2, 138138196, Note_on_c, 1, 44, 0
2, 138152382, Note_on_c, 1, 44, 34
2, 138167001, Note_on_c, 1, 49, 0
2, 138181620, Note_on_c, 1, 56, 0
2, 138196239, Note_on_c, 1, 53, 0
2, 138202210, Note_on_c, 1, 53, 30
2, 138226631, Note_on_c, 1, 56, 38
2, 138251052, Note_on_c, 1, 49, 30
2, 138275473, Note_on_c, 1, 68, 61
2, 138299894, Note_on_c, 1, 65, 0
2, 138324315, Note_on_c, 1, 44, 0
2, 138331805, Note_on_c, 1, 44, 34
2, 138347935, Note_on_c, 1, 49, 0
2, 138364065, Note_on_c, 1, 56, 0
2, 138380195, Note_on_c, 1, 53, 0
2, 138396325, Note_on_c, 1, 53, 27
2, 138412747, Note_on_c, 1, 56, 33
2, 138429169, Note_on_c, 1, 49, 27
2, 138445591, Note_on_c, 1, 44, 0
2, 138462013, Note_on_c, 1, 44, 37
2, 138478728, Note_on_c, 1, 65, 59
2, 138495443, Note_on_c, 1, 54, 0
2, 138512158, Note_on_c, 1, 49, 0
2, 138528873, Note_on_c, 1, 51, 0
2, 138545588, Note_on_c, 1, 66, 0
2, 138571771, Note_on_c, 1, 66, 53
2, 138581347, Note_on_c, 1, 58, 0
2, 138590923, Note_on_c, 1, 70, 0
2, 138608194, Note_on_c, 1, 51, 27
2, 138615979, Note_on_c, 1, 54, 35
2, 138623764, Note_on_c, 1, 49, 27
2, 138631549, Note_on_c, 1, 42, 0
2, 138639334, Note_on_c, 1, 42, 33
2, 138647555, Note_on_c, 1, 54, 0
2, 138655776, Note_on_c, 1, 49, 0
2, 138663997, Note_on_c, 1, 51, 0
2, 138676084, Note_on_c, 1, 51, 28
2, 138680247, Note_on_c, 1, 54, 36
2, 138684410, Note_on_c, 1, 49, 28
2, 138688573, Note_on_c, 1, 70, 57
2, 138692736, Note_on_c, 1, 58, 52
2, 138696899, Note_on_c, 1, 56, 0
2, 138701062, Note_on_c, 1, 68, 0
2, 138705225, Note_on_c, 1, 41, 0
2, 138709388, Note_on_c, 1, 41, 33
2, 138713848, Note_on_c, 1, 44, 0
2, 138718308, Note_on_c, 1, 53, 0
2, 138722768, Note_on_c, 1, 49, 0
2, 138727228, Note_on_c, 1, 49, 26
2, 138732114, Note_on_c, 1, 44, 26
2, 138737000, Note_on_c, 1, 53, 33
2, 138741886, Note_on_c, 1, 41, 0
2, 138746772, Note_on_c, 1, 41, 36
2, 138751955, Note_on_c, 1, 53, 0
2, 138757138, Note_on_c, 1, 44, 0
2, 138762321, Note_on_c, 1, 49, 0
2, 138767504, Note_on_c, 1, 49, 26
2, 138772985, Note_on_c, 1, 53, 33
2, 138778466, Note_on_c, 1, 44, 26
2, 138783947, Note_on_c, 1, 41, 0
2, 138789428, Note_on_c, 1, 41, 33
2, 138795334, Note_on_c, 1, 49, 0
2, 138801240, Note_on_c, 1, 53, 0
2, 138807146, Note_on_c, 1, 44, 0
2, 138813052, Note_on_c, 1, 44, 28
2, 138819256, Note_on_c, 1, 49, 28
2, 138825460, Note_on_c, 1, 53, 36
2, 138831664, Note_on_c, 1, 68, 52
2, 138837868, Note_on_c, 1, 56, 52
2, 138844072, Note_on_c, 1, 73, 0
2, 138850276, Note_on_c, 1, 61, 0
2, 138856480, Note_on_c, 1, 41, 0
2, 138881183, Note_on_c, 1, 41, 33
2, 138899975, Note_on_c, 1, 53, 0
2, 138918767, Note_on_c, 1, 44, 0
2, 138937559, Note_on_c, 1, 49, 0
2, 138956351, Note_on_c, 1, 49, 26
2, 138975564, Note_on_c, 1, 53, 32
2, 138994777, Note_on_c, 1, 44, 26
2, 139013990, Note_on_c, 1, 41, 0
2, 139033203, Note_on_c, 1, 41, 36
2, 139052709, Note_on_c, 1, 61, 49
2, 139072215, Note_on_c, 1, 73, 53
2, 139091721, Note_on_c, 1, 60, 0
2, 139111227, Note_on_c, 1, 42, 0
2, 139130733, Note_on_c, 1, 51, 0
2, 139150239, Note_on_c, 1, 44, 0
2, 139169745, Note_on_c, 1, 72, 0
2, 139201807, Note_on_c, 1, 72, 50
2, 139214472, Note_on_c, 1, 60, 46
2, 139227137, Note_on_c, 1, 63, 0
2, 139239802, Note_on_c, 1, 75, 0
2, 139264499, Note_on_c, 1, 51, 35
2, 139276621, Note_on_c, 1, 44, 27
2, 139288743, Note_on_c, 1, 42, 27
2, 139300865, Note_on_c, 1, 39, 0
2, 139312987, Note_on_c, 1, 39, 33
2, 139325545, Note_on_c, 1, 42, 0
2, 139338103, Note_on_c, 1, 44, 0
2, 139350661, Note_on_c, 1, 51, 0
2, 139366058, Note_on_c, 1, 51, 36
2, 139369196, Note_on_c, 1, 42, 28
2, 139372334, Note_on_c, 1, 44, 28
2, 139375472, Note_on_c, 1, 75, 57
2, 139378610, Note_on_c, 1, 63, 52
2, 139381748, Note_on_c, 1, 72, 0
2, 139384886, Note_on_c, 1, 60, 0
2, 139388024, Note_on_c, 1, 39, 0
2, 139403206, Note_on_c, 1, 39, 33
2, 139415546, Note_on_c, 1, 42, 0
2, 139427886, Note_on_c, 1, 51, 0
2, 139440226, Note_on_c, 1, 44, 0
2, 139452566, Note_on_c, 1, 44, 26
2, 139465202, Note_on_c, 1, 42, 26
2, 139477838, Note_on_c, 1, 51, 33
2, 139490474, Note_on_c, 1, 39, 0
2, 139492822, Note_on_c, 1, 39, 36
2, 139515208, Note_on_c, 1, 60, 49
2, 139537594, Note_on_c, 1, 72, 53
2, 139559980, Note_on_c, 1, 73, 0
2, 139582366, Note_on_c, 1, 41, 0
2, 139604752, Note_on_c, 1, 44, 0
2, 139627138, Note_on_c, 1, 49, 0
2, 139649524, Note_on_c, 1, 61, 0
2, 139671910, Note_on_c, 1, 61, 46
2, 139694524, Note_on_c, 1, 73, 50
2, 139717138, Note_on_c, 1, 77, 0
2, 139739752, Note_on_c, 1, 65, 0
2, 139753608, Note_on_c, 1, 44, 26
2, 139777706, Note_on_c, 1, 49, 33
2, 139801804, Note_on_c, 1, 41, 26
2, 139825902, Note_on_c, 1, 37, 0
2, 139850000, Note_on_c, 1, 37, 33
2, 139874402, Note_on_c, 1, 44, 0
2, 139898804, Note_on_c, 1, 49, 0
2, 139923206, Note_on_c, 1, 41, 0
2, 139948645, Note_on_c, 1, 41, 28
2, 139949983, Note_on_c, 1, 44, 28
2, 139951321, Note_on_c, 1, 49, 36
2, 139952659, Note_on_c, 1, 65, 52
2, 139953997, Note_on_c, 1, 77, 57
2, 139955335, Note_on_c, 1, 73, 0
2, 139956673, Note_on_c, 1, 61, 0
2, 139958011, Note_on_c, 1, 37, 0
2, 139981875, Note_on_c, 1, 37, 33
2, 140004694, Note_on_c, 1, 44, 0
2, 140027513, Note_on_c, 1, 49, 0
2, 140050332, Note_on_c, 1, 41, 0
2, 140073151, Note_on_c, 1, 41, 26
2, 140096263, Note_on_c, 1, 44, 26
2, 140119375, Note_on_c, 1, 49, 32
2, 140142487, Note_on_c, 1, 37, 0
2, 140161281, Note_on_c, 1, 37, 36
2, 140189758, Note_on_c, 1, 61, 49
2, 140218235, Note_on_c, 1, 73, 53
2, 140246712, Note_on_c, 1, 68, 0
2, 140275189, Note_on_c, 1, 49, 0
2, 140303666, Note_on_c, 1, 44, 0
2, 140332143, Note_on_c, 1, 41, 0
2, 140360620, Note_on_c, 1, 56, 0
2, 140365252, Note_on_c, 1, 56, 39
2, 140374292, Note_on_c, 1, 68, 49
2, 140383332, Note_on_c, 1, 65, 0
2, 140392372, Note_on_c, 1, 53, 0
2, 140409277, Note_on_c, 1, 44, 27
2, 140417233, Note_on_c, 1, 41, 27
2, 140425189, Note_on_c, 1, 49, 35
2, 140433145, Note_on_c, 1, 37, 0
2, 140441101, Note_on_c, 1, 37, 33
2, 140449369, Note_on_c, 1, 41, 0
2, 140457637, Note_on_c, 1, 44, 0
2, 140465905, Note_on_c, 1, 49, 0
2, 140473379, Note_on_c, 1, 49, 36
2, 140505656, Note_on_c, 1, 41, 28
2, 140537933, Note_on_c, 1, 44, 28
2, 140570210, Note_on_c, 1, 53, 44
2, 140602487, Note_on_c, 1, 65, 55
2, 140634764, Note_on_c, 1, 37, 0
2, 140667041, Note_on_c, 1, 37, 33
2, 140699620, Note_on_c, 1, 49, 0
2, 140732199, Note_on_c, 1, 41, 0
2, 140764778, Note_on_c, 1, 44, 0
2, 140797357, Note_on_c, 1, 44, 26
2, 140797470, Note_on_c, 1, 41, 26
2, 140797583, Note_on_c, 1, 49, 33
2, 140797696, Note_on_c, 1, 37, 0
2, 140797809, Note_on_c, 1, 37, 36
2, 140798353, Note_on_c, 1, 49, 0
2, 140798897, Note_on_c, 1, 44, 0
2, 140799441, Note_on_c, 1, 41, 0
2, 140799985, Note_on_c, 1, 41, 26
2, 140800831, Note_on_c, 1, 44, 26
2, 140801677, Note_on_c, 1, 49, 33
2, 140802523, Note_on_c, 1, 37, 0
2, 140803369, Note_on_c, 1, 37, 33
2, 140804517, Note_on_c, 1, 49, 0
2, 140805665, Note_on_c, 1, 41, 0
2, 140806813, Note_on_c, 1, 44, 0
2, 140807961, Note_on_c, 1, 44, 28
2, 140809540, Note_on_c, 1, 41, 28
2, 140811119, Note_on_c, 1, 49, 36
2, 140812698, Note_on_c, 1, 37, 0
2, 140814277, Note_on_c, 1, 37, 33
2, 140816158, Note_on_c, 1, 41, 0
2, 140818039, Note_on_c, 1, 49, 0
2, 140819920, Note_on_c, 1, 77, 0
2, 140821801, Note_on_c, 1, 44, 0
2, 140823682, Note_on_c, 1, 44, 26
2, 140825993, Note_on_c, 1, 41, 26
2, 140828304, Note_on_c, 1, 49, 32
2, 140830615, Note_on_c, 1, 37, 0
2, 140844507, Note_on_c, 1, 37, 36
2, 140856400, Note_on_c, 1, 77, 73
2, 140868293, Note_on_c, 1, 78, 0
2, 140880186, Note_on_c, 1, 36, 0
2, 140896663, Note_on_c, 1, 36, 40
2, 140921501, Note_on_c, 1, 78, 63
2, 140946339, Note_on_c, 1, 80, 0
2, 140971177, Note_on_c, 1, 35, 0
2, 140984079, Note_on_c, 1, 35, 40
2, 141011733, Note_on_c, 1, 80, 66
2, 141039387, Note_on_c, 1, 78, 0
2, 141067041, Note_on_c, 1, 36, 0
2, 141088369, Note_on_c, 1, 36, 47
2, 141118696, Note_on_c, 1, 78, 72
2, 141149023, Note_on_c, 1, 80, 0
2, 141179350, Note_on_c, 1, 35, 0
2, 141209056, Note_on_c, 1, 35, 42
2, 141209399, Note_on_c, 1, 80, 67
2, 141209742, Note_on_c, 1, 82, 0
2, 141210085, Note_on_c, 1, 34, 0
2, 141215225, Note_on_c, 1, 34, 44
2, 141218337, Note_on_c, 1, 82, 70
2, 141221449, Note_on_c, 1, 80, 0
2, 141224561, Note_on_c, 1, 35, 0
2, 141237730, Note_on_c, 1, 35, 50
2, 141243468, Note_on_c, 1, 80, 74
2, 141249206, Note_on_c, 1, 82, 0
2, 141254944, Note_on_c, 1, 34, 0
2, 141273502, Note_on_c, 1, 34, 45
2, 141286583, Note_on_c, 1, 82, 69
2, 141299664, Note_on_c, 1, 84, 0
2, 141312745, Note_on_c, 1, 32, 0
2, 141331982, Note_on_c, 1, 32, 46
2, 141338427, Note_on_c, 1, 84, 73
2, 141344872, Note_on_c, 1, 82, 0
2, 141351317, Note_on_c, 1, 34, 0
2, 141357762, Note_on_c, 1, 34, 53
2, 141364496, Note_on_c, 1, 82, 76
2, 141371230, Note_on_c, 1, 84, 0
2, 141377964, Note_on_c, 1, 32, 0
2, 141384698, Note_on_c, 1, 32, 49
2, 141391722, Note_on_c, 1, 84, 72
2, 141398746, Note_on_c, 1, 85, 0
2, 141405770, Note_on_c, 1, 31, 0
2, 141412794, Note_on_c, 1, 31, 49
2, 141420235, Note_on_c, 1, 85, 75
2, 141427676, Note_on_c, 1, 84, 0
2, 141435117, Note_on_c, 1, 32, 0
2, 141445196, Note_on_c, 1, 32, 55
2, 141448125, Note_on_c, 1, 84, 76
2, 141451054, Note_on_c, 1, 44, 0
2, 141453983, Note_on_c, 1, 85, 0
2, 141456912, Note_on_c, 1, 34, 0
2, 141459293, Note_on_c, 1, 34, 51
2, 141491806, Note_on_c, 1, 85, 73
2, 141524319, Note_on_c, 1, 87, 0
2, 141556832, Note_on_c, 1, 36, 0
2, 141566912, Note_on_c, 1, 36, 51
2, 141577664, Note_on_c, 1, 87, 75
2, 141588416, Note_on_c, 1, 85, 0
2, 141599168, Note_on_c, 1, 34, 0
2, 141609920, Note_on_c, 1, 34, 50
2, 141620960, Note_on_c, 1, 85, 77
2, 141632000, Note_on_c, 1, 87, 0
2, 141643040, Note_on_c, 1, 36, 0
2, 141654080, Note_on_c, 1, 36, 54
2, 141665409, Note_on_c, 1, 87, 73
2, 141676738, Note_on_c, 1, 89, 0
2, 141688067, Note_on_c, 1, 37, 0
2, 141699396, Note_on_c, 1, 37, 50
2, 141711013, Note_on_c, 1, 89, 77
2, 141722630, Note_on_c, 1, 87, 0
2, 141734247, Note_on_c, 1, 36, 0
2, 141745864, Note_on_c, 1, 36, 50
2, 141757897, Note_on_c, 1, 87, 83
2, 141777200, Note_on_c, 1, 44, 53
2, 141784888, Note_on_c, 1, 44, 0
2, 141792576, Note_on_c, 1, 46, 0
2, 141800264, Note_on_c, 1, 46, 49
2, 141808242, Note_on_c, 1, 44, 52
2, 141816510, Note_on_c, 1, 44, 0
2, 141824778, Note_on_c, 1, 43, 0
2, 141833046, Note_on_c, 1, 43, 47
2, 141841605, Note_on_c, 1, 87, 0
2, 141850164, Note_on_c, 1, 44, 52
2, 141859141, Note_on_c, 1, 87, 72
2, 141868118, Note_on_c, 1, 75, 0
2, 141877095, Note_on_c, 1, 36, 0
2, 141886631, Note_on_c, 1, 36, 57
2, 141887483, Note_on_c, 1, 75, 81
2, 141888335, Note_on_c, 1, 44, 0
2, 141889187, Note_on_c, 1, 77, 0
2, 141890039, Note_on_c, 1, 37, 0
2, 141910557, Note_on_c, 1, 37, 51
2, 141930382, Note_on_c, 1, 77, 68
2, 141950207, Note_on_c, 1, 78, 0
2, 141970032, Note_on_c, 1, 39, 0
2, 141989857, Note_on_c, 1, 39, 47
2, 142010096, Note_on_c, 1, 78, 71
2, 142030335, Note_on_c, 1, 77, 0
2, 142050574, Note_on_c, 1, 37, 0
2, 142052642, Note_on_c, 1, 37, 47
2, 142067527, Note_on_c, 1, 77, 74
2, 142082412, Note_on_c, 1, 78, 0
2, 142097297, Note_on_c, 1, 39, 0
2, 142099939, Note_on_c, 1, 39, 50
2, 142120750, Note_on_c, 1, 78, 70
2, 142141561, Note_on_c, 1, 80, 0
2, 142162372, Note_on_c, 1, 41, 0
2, 142183183, Note_on_c, 1, 41, 46
2, 142204280, Note_on_c, 1, 80, 70
2, 142225377, Note_on_c, 1, 78, 0
2, 142246474, Note_on_c, 1, 39, 0
2, 142250393, Note_on_c, 1, 39, 46
2, 142266272, Note_on_c, 1, 78, 73
2, 142290961, Note_on_c, 1, 44, 49
2, 142300190, Note_on_c, 1, 44, 0
2, 142309419, Note_on_c, 1, 46, 0
2, 142318648, Note_on_c, 1, 46, 45
2, 142328168, Note_on_c, 1, 44, 48
2, 142337979, Note_on_c, 1, 44, 0
2, 142347790, Note_on_c, 1, 43, 0
2, 142357601, Note_on_c, 1, 43, 42
2, 142367704, Note_on_c, 1, 78, 0
2, 142377807, Note_on_c, 1, 44, 48
2, 142388329, Note_on_c, 1, 78, 66
2, 142398851, Note_on_c, 1, 72, 0
2, 142409373, Note_on_c, 1, 39, 0
2, 142419478, Note_on_c, 1, 39, 55
2, 142419485, Note_on_c, 1, 72, 70
2, 142419492, Note_on_c, 1, 44, 0
2, 142419499, Note_on_c, 1, 73, 0
2, 142419506, Note_on_c, 1, 41, 0
2, 142441803, Note_on_c, 1, 41, 47
2, 142464380, Note_on_c, 1, 73, 64
2, 142486957, Note_on_c, 1, 75, 0
2, 142509534, Note_on_c, 1, 42, 0
2, 142532111, Note_on_c, 1, 42, 42
2, 142554975, Note_on_c, 1, 75, 66
2, 142577839, Note_on_c, 1, 73, 0
2, 142600703, Note_on_c, 1, 41, 0
2, 142605860, Note_on_c, 1, 41, 42
2, 142621083, Note_on_c, 1, 73, 69
2, 142636306, Note_on_c, 1, 75, 0
2, 142651529, Note_on_c, 1, 42, 0
2, 142657262, Note_on_c, 1, 42, 48
2, 142680827, Note_on_c, 1, 75, 59
2, 142704392, Note_on_c, 1, 77, 0
2, 142727957, Note_on_c, 1, 44, 41
2, 142751809, Note_on_c, 1, 77, 61
2, 142775661, Note_on_c, 1, 44, 0
2, 142799513, Note_on_c, 1, 75, 0
2, 142823365, Note_on_c, 1, 42, 0
2, 142830380, Note_on_c, 1, 42, 41
2, 142846600, Note_on_c, 1, 75, 67
2, 142854612, Note_on_c, 1, 44, 45
2, 142866493, Note_on_c, 1, 44, 0
2, 142878374, Note_on_c, 1, 46, 0
2, 142901271, Note_on_c, 1, 46, 41
2, 142912342, Note_on_c, 1, 44, 44
2, 142923705, Note_on_c, 1, 44, 0
2, 142935068, Note_on_c, 1, 43, 0
2, 142956845, Note_on_c, 1, 43, 39
2, 142967396, Note_on_c, 1, 60, 0
2, 142977947, Note_on_c, 1, 66, 0
2, 142988498, Note_on_c, 1, 56, 0
2, 143008759, Note_on_c, 1, 44, 44
2, 143019622, Note_on_c, 1, 56, 47
2, 143021172, Note_on_c, 1, 60, 47
2, 143022722, Note_on_c, 1, 66, 47
2, 143031952, Note_on_c, 1, 56, 0
2, 143039646, Note_on_c, 1, 56, 25
2, 143062730, Note_on_c, 1, 56, 0
2, 143078971, Note_on_c, 1, 56, 26
2, 143096681, Note_on_c, 1, 48, 0
2, 143114391, Note_on_c, 1, 45, 0
2, 143138524, Note_on_c, 1, 45, 25
2, 143158819, Note_on_c, 1, 48, 25
2, 143179114, Note_on_c, 1, 56, 0
2, 143211120, Note_on_c, 1, 56, 27
2, 143233985, Note_on_c, 1, 66, 0
2, 143256850, Note_on_c, 1, 60, 0
2, 143279715, Note_on_c, 1, 57, 0
2, 143302580, Note_on_c, 1, 56, 0
2, 143306193, Note_on_c, 1, 56, 27
2, 143314211, Note_on_c, 1, 66, 39
2, 143333210, Note_on_c, 1, 60, 39
2, 143352209, Note_on_c, 1, 57, 39
2, 143384484, Note_on_c, 1, 56, 0
2, 143397646, Note_on_c, 1, 56, 28
2, 143403376, Note_on_c, 1, 56, 0
2, 143428318, Note_on_c, 1, 56, 28
2, 143453663, Note_on_c, 1, 49, 0
2, 143479008, Note_on_c, 1, 46, 0
2, 143504353, Note_on_c, 1, 46, 32
2, 143529986, Note_on_c, 1, 49, 32
2, 143547414, Note_on_c, 1, 56, 0
2, 143571990, Note_on_c, 1, 56, 30
2, 143596841, Note_on_c, 1, 67, 0
2, 143621692, Note_on_c, 1, 58, 0
2, 143646543, Note_on_c, 1, 61, 0
2, 143671394, Note_on_c, 1, 56, 0
2, 143696259, Note_on_c, 1, 56, 31
2, 143718283, Note_on_c, 1, 67, 44
2, 143748093, Note_on_c, 1, 58, 44
2, 143777903, Note_on_c, 1, 61, 44
2, 143786665, Note_on_c, 1, 56, 0
2, 143798271, Note_on_c, 1, 56, 30
2, 143808798, Note_on_c, 1, 56, 0
2, 143840092, Note_on_c, 1, 56, 31
2, 143871659, Note_on_c, 1, 47, 0
2, 143903226, Note_on_c, 1, 50, 0
2, 143934793, Note_on_c, 1, 50, 30
2, 143966647, Note_on_c, 1, 47, 30
2, 143998501, Note_on_c, 1, 56, 0
2, 144030368, Note_on_c, 1, 56, 32
2, 144062636, Note_on_c, 1, 68, 0
2, 144094904, Note_on_c, 1, 59, 0
2, 144127172, Note_on_c, 1, 62, 0
2, 144159440, Note_on_c, 1, 56, 0
2, 144191721, Note_on_c, 1, 56, 32
2, 144217436, Note_on_c, 1, 68, 46
2, 144243654, Note_on_c, 1, 59, 46
2, 144269872, Note_on_c, 1, 62, 46
2, 144291931, Note_on_c, 1, 56, 0
2, 144320425, Note_on_c, 1, 56, 34
2, 144349194, Note_on_c, 1, 56, 0
2, 144377976, Note_on_c, 1, 56, 34
2, 144407161, Note_on_c, 1, 51, 0
2, 144436346, Note_on_c, 1, 48, 0
2, 144465531, Note_on_c, 1, 48, 38
2, 144495004, Note_on_c, 1, 51, 38
2, 144526585, Note_on_c, 1, 56, 0
2, 144528706, Note_on_c, 1, 56, 36
2, 144531100, Note_on_c, 1, 72, 0
2, 144533494, Note_on_c, 1, 80, 0
2, 144535888, Note_on_c, 1, 75, 0
2, 144538282, Note_on_c, 1, 56, 0
2, 144540689, Note_on_c, 1, 56, 37
2, 144547350, Note_on_c, 1, 72, 56
2, 144551488, Note_on_c, 1, 80, 56
2, 144555626, Note_on_c, 1, 75, 56
2, 144559764, Note_on_c, 1, 76, 0
2, 144563902, Note_on_c, 1, 81, 0
2, 144568040, Note_on_c, 1, 73, 0
2, 144572178, Note_on_c, 1, 56, 0
2, 144576329, Note_on_c, 1, 56, 37
2, 144580753, Note_on_c, 1, 56, 0
2, 144585190, Note_on_c, 1, 56, 37
2, 144589899, Note_on_c, 1, 49, 0
2, 144594608, Note_on_c, 1, 52, 0
2, 144599317, Note_on_c, 1, 52, 36
2, 144604440, Note_on_c, 1, 49, 36
2, 144617799, Note_on_c, 1, 56, 0
2, 144626048, Note_on_c, 1, 56, 37
2, 144634568, Note_on_c, 1, 56, 0
2, 144643101, Note_on_c, 1, 56, 37
2, 144657727, Note_on_c, 1, 76, 58
2, 144663706, Note_on_c, 1, 81, 58
2, 144669685, Note_on_c, 1, 73, 58
2, 144681771, Note_on_c, 1, 56, 0
2, 144687763, Note_on_c, 1, 56, 37
2, 144694027, Note_on_c, 1, 56, 0
2, 144700432, Note_on_c, 1, 56, 37
2, 144707109, Note_on_c, 1, 51, 0
2, 144713786, Note_on_c, 1, 48, 0
2, 144720463, Note_on_c, 1, 48, 40
2, 144727426, Note_on_c, 1, 51, 40
2, 144744586, Note_on_c, 1, 56, 0
2, 144754668, Note_on_c, 1, 56, 38
2, 144765021, Note_on_c, 1, 63, 0
2, 144775374, Note_on_c, 1, 68, 0
2, 144785727, Note_on_c, 1, 60, 0
2, 144796080, Note_on_c, 1, 56, 0
2, 144806446, Note_on_c, 1, 56, 38
2, 144824745, Note_on_c, 1, 63, 57
2, 144832692, Note_on_c, 1, 68, 57
2, 144840639, Note_on_c, 1, 60, 57
2, 144848586, Note_on_c, 1, 69, 0
2, 144856533, Note_on_c, 1, 64, 0
2, 144864480, Note_on_c, 1, 61, 0
2, 144880374, Note_on_c, 1, 56, 0
2, 144888334, Note_on_c, 1, 56, 37
2, 144896566, Note_on_c, 1, 56, 0
2, 144904811, Note_on_c, 1, 56, 37
2, 144913329, Note_on_c, 1, 49, 0
2, 144921847, Note_on_c, 1, 52, 0
2, 144930365, Note_on_c, 1, 52, 36
2, 144939168, Note_on_c, 1, 49, 36
2, 144960001, Note_on_c, 1, 56, 0
2, 144972044, Note_on_c, 1, 56, 37
2, 144984358, Note_on_c, 1, 56, 0
2, 144996685, Note_on_c, 1, 56, 37
2, 145018785, Note_on_c, 1, 69, 52
2, 145028572, Note_on_c, 1, 64, 52
2, 145038359, Note_on_c, 1, 61, 52
2, 145057933, Note_on_c, 1, 56, 0
2, 145067733, Note_on_c, 1, 56, 37
2, 145077806, Note_on_c, 1, 56, 0
2, 145087892, Note_on_c, 1, 56, 37
2, 145098250, Note_on_c, 1, 51, 0
2, 145108608, Note_on_c, 1, 48, 0
2, 145118966, Note_on_c, 1, 48, 40
2, 145129737, Note_on_c, 1, 51, 40
2, 145154370, Note_on_c, 1, 56, 0
2, 145168245, Note_on_c, 1, 56, 38
2, 145182391, Note_on_c, 1, 68, 0
2, 145196537, Note_on_c, 1, 63, 0
2, 145210683, Note_on_c, 1, 60, 0
2, 145224829, Note_on_c, 1, 56, 0
2, 145238988, Note_on_c, 1, 56, 38
2, 145264888, Note_on_c, 1, 68, 56
2, 145276515, Note_on_c, 1, 63, 56
2, 145288142, Note_on_c, 1, 60, 56
2, 145299769, Note_on_c, 1, 70, 0
2, 145311396, Note_on_c, 1, 65, 0
2, 145323023, Note_on_c, 1, 61, 0
2, 145334650, Note_on_c, 1, 56, 0
2, 145346291, Note_on_c, 1, 56, 37
2, 145358332, Note_on_c, 1, 56, 0
2, 145370386, Note_on_c, 1, 56, 37
2, 145382712, Note_on_c, 1, 49, 0
2, 145395038, Note_on_c, 1, 53, 0
2, 145407364, Note_on_c, 1, 53, 36
2, 145419976, Note_on_c, 1, 49, 36
2, 145445328, Note_on_c, 1, 56, 0
2, 145457953, Note_on_c, 1, 56, 37
2, 145470850, Note_on_c, 1, 56, 0
2, 145483760, Note_on_c, 1, 56, 37
2, 145496942, Note_on_c, 1, 49, 0
2, 145510124, Note_on_c, 1, 53, 0
2, 145523306, Note_on_c, 1, 53, 37
2, 145536902, Note_on_c, 1, 49, 37
2, 145564094, Note_on_c, 1, 56, 0
2, 145577703, Note_on_c, 1, 56, 37
2, 145591584, Note_on_c, 1, 56, 0
2, 145605478, Note_on_c, 1, 56, 37
2, 145619644, Note_on_c, 1, 53, 0
2, 145633810, Note_on_c, 1, 49, 0
2, 145647976, Note_on_c, 1, 49, 40
2, 145662428, Note_on_c, 1, 53, 40
2, 145694535, Note_on_c, 1, 56, 0
2, 145712203, Note_on_c, 1, 56, 38
2, 145730142, Note_on_c, 1, 56, 0
2, 145748094, Note_on_c, 1, 56, 38
2, 145748700, Note_on_c, 1, 70, 61
2, 145764136, Note_on_c, 1, 65, 61
2, 145779572, Note_on_c, 1, 61, 61
2, 145795008, Note_on_c, 1, 65, 0
2, 145810444, Note_on_c, 1, 61, 0
2, 145816087, Note_on_c, 1, 56, 0
2, 145838950, Note_on_c, 1, 61, 52
2, 145862023, Note_on_c, 1, 65, 52
2, 145866942, Note_on_c, 1, 56, 37
2, 145881635, Note_on_c, 1, 56, 0
2, 145896341, Note_on_c, 1, 56, 37
2, 145911447, Note_on_c, 1, 49, 0
2, 145926553, Note_on_c, 1, 53, 0
2, 145928984, Note_on_c, 1, 53, 48
2, 145949489, Note_on_c, 1, 49, 44
2, 145969994, Note_on_c, 1, 89, 0
2, 145990502, Note_on_c, 1, 85, 0
2, 146011010, Note_on_c, 1, 56, 0
2, 146031528, Note_on_c, 1, 56, 37
2, 146052317, Note_on_c, 1, 85, 56
2, 146073106, Note_on_c, 1, 89, 56
2, 146093895, Note_on_c, 1, 56, 0
2, 146114697, Note_on_c, 1, 56, 37
2, 146120120, Note_on_c, 1, 56, 0
2, 146137124, Note_on_c, 1, 56, 38
2, 146154400, Note_on_c, 1, 73, 0
2, 146171676, Note_on_c, 1, 77, 0
2, 146188952, Note_on_c, 1, 56, 0
2, 146206369, Note_on_c, 1, 56, 37
2, 146224059, Note_on_c, 1, 77, 60
2, 146241749, Note_on_c, 1, 73, 60
2, 146250461, Note_on_c, 1, 56, 0
2, 146274136, Note_on_c, 1, 56, 37
2, 146298209, Note_on_c, 1, 56, 0
2, 146322294, Note_on_c, 1, 56, 37
2, 146346649, Note_on_c, 1, 65, 0
2, 146371004, Note_on_c, 1, 61, 0
2, 146395359, Note_on_c, 1, 56, 0
2, 146419727, Note_on_c, 1, 56, 37
2, 146444365, Note_on_c, 1, 61, 52
2, 146469003, Note_on_c, 1, 65, 52
2, 146493641, Note_on_c, 1, 63, 0
2, 146518279, Note_on_c, 1, 66, 0
2, 146528823, Note_on_c, 1, 56, 0
2, 146547382, Note_on_c, 1, 56, 37
2, 146566341, Note_on_c, 1, 56, 0
2, 146585313, Note_on_c, 1, 56, 39
2, 146604557, Note_on_c, 1, 66, 57
2, 146623801, Note_on_c, 1, 63, 57
2, 146643045, Note_on_c, 1, 60, 0
2, 146662289, Note_on_c, 1, 63, 0
2, 146693046, Note_on_c, 1, 56, 0
2, 146699198, Note_on_c, 1, 63, 53
2, 146726615, Note_on_c, 1, 60, 53
2, 146754032, Note_on_c, 1, 56, 37
2, 146767392, Note_on_c, 1, 56, 0
2, 146785911, Note_on_c, 1, 56, 37
2, 146804703, Note_on_c, 1, 54, 0
2, 146823495, Note_on_c, 1, 51, 0
2, 146832516, Note_on_c, 1, 51, 44
2, 146855669, Note_on_c, 1, 54, 44
2, 146878822, Note_on_c, 1, 87, 0
2, 146901975, Note_on_c, 1, 84, 0
2, 146925128, Note_on_c, 1, 84, 56
2, 146948693, Note_on_c, 1, 87, 56
2, 146972258, Note_on_c, 1, 56, 0
2, 146995836, Note_on_c, 1, 56, 39
2, 147019685, Note_on_c, 1, 56, 0
2, 147043547, Note_on_c, 1, 56, 38
2, 147067680, Note_on_c, 1, 72, 0
2, 147091813, Note_on_c, 1, 75, 0
2, 147104391, Note_on_c, 1, 56, 0
2, 147125489, Note_on_c, 1, 56, 37
2, 147146859, Note_on_c, 1, 75, 58
2, 147168229, Note_on_c, 1, 72, 58
2, 147185401, Note_on_c, 1, 56, 0
2, 147213856, Note_on_c, 1, 56, 37
2, 147242581, Note_on_c, 1, 56, 0
2, 147271318, Note_on_c, 1, 56, 38
2, 147300325, Note_on_c, 1, 60, 0
2, 147329332, Note_on_c, 1, 63, 0
2, 147358339, Note_on_c, 1, 56, 0
2, 147387359, Note_on_c, 1, 56, 37
2, 147416648, Note_on_c, 1, 63, 50
2, 147445937, Note_on_c, 1, 60, 50
2, 147475226, Note_on_c, 1, 61, 0
2, 147504515, Note_on_c, 1, 65, 0
2, 147523518, Note_on_c, 1, 56, 0
2, 147545885, Note_on_c, 1, 56, 37
2, 147568525, Note_on_c, 1, 56, 0
2, 147591178, Note_on_c, 1, 56, 39
2, 147614231, Note_on_c, 1, 65, 55
2, 147637284, Note_on_c, 1, 61, 55
2, 147660337, Note_on_c, 1, 60, 0
2, 147683390, Note_on_c, 1, 63, 0
2, 147685255, Note_on_c, 1, 56, 0
2, 147696851, Note_on_c, 1, 63, 50
2, 147708654, Note_on_c, 1, 60, 50
2, 147720457, Note_on_c, 1, 60, 0
2, 147732260, Note_on_c, 1, 63, 0
2, 147744339, Note_on_c, 1, 56, 37
2, 147744691, Note_on_c, 1, 56, 0
2, 147745056, Note_on_c, 1, 56, 37
2, 147769442, Note_on_c, 1, 56, 0
2, 147793079, Note_on_c, 1, 56, 38
2, 147816988, Note_on_c, 1, 63, 55
2, 147840897, Note_on_c, 1, 60, 55
2, 147859112, Note_on_c, 1, 56, 0
2, 147886071, Note_on_c, 1, 56, 37
2, 147913301, Note_on_c, 1, 56, 0
2, 147940544, Note_on_c, 1, 56, 37
2, 147960026, Note_on_c, 1, 56, 0
2, 147984647, Note_on_c, 1, 56, 37
2, 148001665, Note_on_c, 1, 56, 0
2, 148026571, Note_on_c, 1, 56, 37
2, 148051750, Note_on_c, 1, 56, 0
2, 148076942, Note_on_c, 1, 56, 37
2, 148102406, Note_on_c, 1, 56, 0
2, 148128011, Note_on_c, 1, 56, 38
2, 148149020, Note_on_c, 1, 56, 0
2, 148176933, Note_on_c, 1, 56, 37
2, 148205117, Note_on_c, 1, 60, 0
2, 148233301, Note_on_c, 1, 63, 0
2, 148261485, Note_on_c, 1, 68, 0
2, 148289669, Note_on_c, 1, 56, 0
2, 148317866, Note_on_c, 1, 56, 37
2, 148346335, Note_on_c, 1, 48, 0
2, 148374804, Note_on_c, 1, 51, 0
2, 148397081, Note_on_c, 1, 51, 39
2, 148423815, Note_on_c, 1, 48, 39
2, 148450549, Note_on_c, 1, 68, 52
2, 148477283, Note_on_c, 1, 63, 52
2, 148504017, Note_on_c, 1, 60, 52
2, 148530751, Note_on_c, 1, 65, 0
2, 148557485, Note_on_c, 1, 70, 0
2, 148584219, Note_on_c, 1, 61, 0
2, 148605047, Note_on_c, 1, 56, 0
2, 148631794, Note_on_c, 1, 56, 37
2, 148658941, Note_on_c, 1, 56, 0
2, 148686101, Note_on_c, 1, 56, 37
2, 148713533, Note_on_c, 1, 49, 0
2, 148740965, Note_on_c, 1, 53, 0
2, 148768397, Note_on_c, 1, 53, 37
2, 148796115, Note_on_c, 1, 49, 37
2, 148818911, Note_on_c, 1, 56, 0
2, 148846642, Note_on_c, 1, 56, 37
2, 148874645, Note_on_c, 1, 56, 0
2, 148902661, Note_on_c, 1, 56, 37
2, 148931077, Note_on_c, 1, 49, 0
2, 148959493, Note_on_c, 1, 53, 0
2, 148987909, Note_on_c, 1, 53, 37
2, 149016611, Note_on_c, 1, 49, 37
2, 149044265, Note_on_c, 1, 56, 0
2, 149075870, Note_on_c, 1, 56, 37
2, 149107874, Note_on_c, 1, 56, 0
2, 149139891, Note_on_c, 1, 56, 37
2, 149172179, Note_on_c, 1, 53, 0
2, 149204467, Note_on_c, 1, 49, 0
2, 149236755, Note_on_c, 1, 49, 40
2, 149269327, Note_on_c, 1, 53, 40
2, 149301703, Note_on_c, 1, 56, 0
2, 149334288, Note_on_c, 1, 56, 38
2, 149334376, Note_on_c, 1, 56, 0
2, 149334477, Note_on_c, 1, 56, 38
2, 149365234, Note_on_c, 1, 65, 61
2, 149395776, Note_on_c, 1, 70, 61
2, 149426318, Note_on_c, 1, 61, 61
2, 149454762, Note_on_c, 1, 56, 0
2, 149485317, Note_on_c, 1, 56, 36
2, 149516144, Note_on_c, 1, 56, 0
2, 149546985, Note_on_c, 1, 56, 36
2, 149578226, Note_on_c, 1, 56, 0
2, 149609480, Note_on_c, 1, 56, 39
2, 149641006, Note_on_c, 1, 73, 0
2, 149672532, Note_on_c, 1, 77, 0
2, 149673055, Note_on_c, 1, 56, 0
2, 149674705, Note_on_c, 1, 56, 35
2, 149676754, Note_on_c, 1, 56, 0
2, 149678816, Note_on_c, 1, 56, 35
2, 149681149, Note_on_c, 1, 53, 0
2, 149682811, Note_on_c, 1, 53, 39
2, 149715193, Note_on_c, 1, 77, 58
2, 149747575, Note_on_c, 1, 73, 58
2, 149779699, Note_on_c, 1, 56, 0
2, 149812222, Note_on_c, 1, 56, 36
2, 149812250, Note_on_c, 1, 56, 0
2, 149812291, Note_on_c, 1, 56, 37
2, 149812604, Note_on_c, 1, 56, 0
2, 149812930, Note_on_c, 1, 56, 39
2, 149813528, Note_on_c, 1, 65, 0
2, 149814126, Note_on_c, 1, 61, 0
2, 149818321, Note_on_c, 1, 56, 0
2, 149821931, Note_on_c, 1, 56, 36
2, 149825812, Note_on_c, 1, 56, 0
2, 149829706, Note_on_c, 1, 56, 36
2, 149857900, Note_on_c, 1, 61, 55
2, 149882091, Note_on_c, 1, 65, 55
2, 149907993, Note_on_c, 1, 56, 0
2, 149909589, Note_on_c, 1, 56, 36
2, 149911457, Note_on_c, 1, 56, 0
2, 149913338, Note_on_c, 1, 56, 36
2, 149915491, Note_on_c, 1, 56, 0
2, 149917657, Note_on_c, 1, 56, 39
2, 149920224, Note_on_c, 1, 72, 0
2, 149922791, Note_on_c, 1, 75, 0
2, 149930788, Note_on_c, 1, 56, 0
2, 149936231, Note_on_c, 1, 56, 35
2, 149941945, Note_on_c, 1, 56, 0
2, 149947672, Note_on_c, 1, 56, 35
2, 149953670, Note_on_c, 1, 54, 0
2, 149962933, Note_on_c, 1, 54, 39
2, 149966356, Note_on_c, 1, 75, 59
2, 149969779, Note_on_c, 1, 72, 59
2, 149976753, Note_on_c, 1, 56, 0
2, 149980189, Note_on_c, 1, 56, 36
2, 149983897, Note_on_c, 1, 56, 0
2, 149987746, Note_on_c, 1, 56, 37
2, 149991868, Note_on_c, 1, 56, 0
2, 149996003, Note_on_c, 1, 56, 39
2, 150000410, Note_on_c, 1, 63, 0
2, 150004817, Note_on_c, 1, 60, 0
2, 150016614, Note_on_c, 1, 56, 0
2, 150023889, Note_on_c, 1, 56, 36
2, 150031435, Note_on_c, 1, 56, 0
2, 150039122, Note_on_c, 1, 56, 36
2, 150042203, Note_on_c, 1, 60, 58
2, 150070383, Note_on_c, 1, 63, 58
2, 150071186, Note_on_c, 1, 56, 0
2, 150076590, Note_on_c, 1, 56, 36
2, 150082266, Note_on_c, 1, 56, 0
2, 150087956, Note_on_c, 1, 56, 36
2, 150093918, Note_on_c, 1, 56, 0
2, 150099893, Note_on_c, 1, 56, 39
2, 150115363, Note_on_c, 1, 56, 0
2, 150124599, Note_on_c, 1, 56, 35
2, 150134106, Note_on_c, 1, 56, 0
2, 150143626, Note_on_c, 1, 56, 35
2, 150160363, Note_on_c, 1, 56, 0
2, 150167322, Note_on_c, 1, 56, 39
2, 150181784, Note_on_c, 1, 56, 0
2, 150189028, Note_on_c, 1, 56, 36
2, 150196545, Note_on_c, 1, 56, 0
2, 150204075, Note_on_c, 1, 56, 37
2, 150211877, Note_on_c, 1, 56, 0
2, 150219820, Note_on_c, 1, 56, 39
2, 150228036, Note_on_c, 1, 66, 0
2, 150247307, Note_on_c, 1, 56, 0
2, 150258375, Note_on_c, 1, 56, 36
2, 150269715, Note_on_c, 1, 56, 0
2, 150281068, Note_on_c, 1, 56, 36
2, 150292692, Note_on_c, 1, 32, 0
2, 150304316, Note_on_c, 1, 44, 0
2, 150314924, Note_on_c, 1, 44, 60
2, 150346966, Note_on_c, 1, 32, 60
2, 150379008, Note_on_c, 1, 66, 84
2, 150411050, Note_on_c, 1, 54, 0
2, 150443092, Note_on_c, 1, 36, 0
2, 150465117, Note_on_c, 1, 36, 60
2, 150487951, Note_on_c, 1, 54, 71
2, 150510785, Note_on_c, 1, 60, 0
2, 150533619, Note_on_c, 1, 39, 0
2, 150556453, Note_on_c, 1, 39, 66
2, 150579498, Note_on_c, 1, 60, 72
2, 150602543, Note_on_c, 1, 63, 0
2, 150625588, Note_on_c, 1, 42, 0
2, 150648633, Note_on_c, 1, 42, 60
2, 150671761, Note_on_c, 1, 63, 72
2, 150694889, Note_on_c, 1, 66, 0
2, 150718017, Note_on_c, 1, 39, 0
2, 150741145, Note_on_c, 1, 39, 60
2, 150764484, Note_on_c, 1, 66, 74
2, 150787823, Note_on_c, 1, 66, 0
2, 150811162, Note_on_c, 1, 36, 0
2, 150835500, Note_on_c, 1, 36, 60
2, 150836580, Note_on_c, 1, 33, 0
2, 150837660, Note_on_c, 1, 33, 70
2, 150838948, Note_on_c, 1, 66, 89
2, 150840236, Note_on_c, 1, 54, 0
2, 150841524, Note_on_c, 1, 36, 0
2, 150867488, Note_on_c, 1, 36, 60
2, 150892374, Note_on_c, 1, 54, 69
2, 150917260, Note_on_c, 1, 60, 0
2, 150942146, Note_on_c, 1, 39, 0
2, 150967032, Note_on_c, 1, 39, 66
2, 150992129, Note_on_c, 1, 60, 70
2, 151017226, Note_on_c, 1, 63, 0
2, 151042323, Note_on_c, 1, 42, 0
2, 151067420, Note_on_c, 1, 42, 61
2, 151092600, Note_on_c, 1, 63, 70
2, 151117780, Note_on_c, 1, 66, 0
2, 151142960, Note_on_c, 1, 39, 0
2, 151168140, Note_on_c, 1, 39, 60
2, 151193531, Note_on_c, 1, 66, 74
2, 151218922, Note_on_c, 1, 66, 0
2, 151244313, Note_on_c, 1, 36, 0
2, 151273593, Note_on_c, 1, 36, 60
2, 151277690, Note_on_c, 1, 32, 0
2, 151281787, Note_on_c, 1, 32, 70
2, 151285965, Note_on_c, 1, 66, 91
2, 151290143, Note_on_c, 1, 54, 0
2, 151294321, Note_on_c, 1, 36, 0
2, 151324311, Note_on_c, 1, 36, 60
2, 151350206, Note_on_c, 1, 54, 69
2, 151376101, Note_on_c, 1, 60, 0
2, 151401996, Note_on_c, 1, 39, 0
2, 151427891, Note_on_c, 1, 39, 66
2, 151453869, Note_on_c, 1, 60, 69
2, 151479847, Note_on_c, 1, 63, 0
2, 151505825, Note_on_c, 1, 42, 0
2, 151531803, Note_on_c, 1, 42, 61
2, 151557991, Note_on_c, 1, 63, 71
2, 151584179, Note_on_c, 1, 66, 0
2, 151610367, Note_on_c, 1, 39, 0
2, 151636555, Note_on_c, 1, 39, 60
2, 151662954, Note_on_c, 1, 66, 72
2, 151689353, Note_on_c, 1, 78, 0
2, 151715752, Note_on_c, 1, 36, 0
2, 151746025, Note_on_c, 1, 36, 60
2, 151749979, Note_on_c, 1, 33, 0
2, 151753933, Note_on_c, 1, 33, 70
2, 151758096, Note_on_c, 1, 36, 0
2, 151762259, Note_on_c, 1, 36, 60
2, 151766630, Note_on_c, 1, 39, 0
2, 151771001, Note_on_c, 1, 39, 66
2, 151775453, Note_on_c, 1, 42, 0
2, 151779905, Note_on_c, 1, 42, 60
2, 151784565, Note_on_c, 1, 39, 0
2, 151789225, Note_on_c, 1, 39, 60
2, 151794094, Note_on_c, 1, 36, 0
2, 151798963, Note_on_c, 1, 36, 60
2, 151803912, Note_on_c, 1, 32, 0
2, 151808861, Note_on_c, 1, 32, 70
2, 151814018, Note_on_c, 1, 78, 94
2, 151819175, Note_on_c, 1, 66, 0
2, 151824332, Note_on_c, 1, 36, 0
2, 151827520, Note_on_c, 1, 36, 60
2, 151858530, Note_on_c, 1, 66, 75
2, 151889540, Note_on_c, 1, 72, 0
2, 151920550, Note_on_c, 1, 39, 0
2, 151951560, Note_on_c, 1, 39, 66
2, 151982652, Note_on_c, 1, 72, 75
2, 152013744, Note_on_c, 1, 75, 0
2, 152044836, Note_on_c, 1, 42, 0
2, 152075928, Note_on_c, 1, 42, 66
2, 152107230, Note_on_c, 1, 75, 76
2, 152138532, Note_on_c, 1, 78, 0
2, 152169834, Note_on_c, 1, 39, 0
2, 152201136, Note_on_c, 1, 39, 60
2, 152232648, Note_on_c, 1, 78, 77
2, 152264160, Note_on_c, 1, 90, 0
2, 152295672, Note_on_c, 1, 36, 0
2, 152301157, Note_on_c, 1, 36, 60
2, 152308106, Note_on_c, 1, 33, 0
2, 152315055, Note_on_c, 1, 33, 70
2, 152322085, Note_on_c, 1, 36, 0
2, 152329115, Note_on_c, 1, 36, 60
2, 152336353, Note_on_c, 1, 39, 0
2, 152343591, Note_on_c, 1, 39, 66
2, 152351037, Note_on_c, 1, 42, 0
2, 152358483, Note_on_c, 1, 42, 66
2, 152366009, Note_on_c, 1, 39, 0
2, 152373535, Note_on_c, 1, 39, 60
2, 152381270, Note_on_c, 1, 36, 0
2, 152389005, Note_on_c, 1, 36, 60
2, 152396948, Note_on_c, 1, 32, 0
2, 152404891, Note_on_c, 1, 32, 70
2, 152412914, Note_on_c, 1, 90, 103
2, 152420937, Note_on_c, 1, 78, 0
2, 152428960, Note_on_c, 1, 36, 0
2, 152433933, Note_on_c, 1, 36, 60
2, 152463734, Note_on_c, 1, 78, 75
2, 152493535, Note_on_c, 1, 84, 0
2, 152523336, Note_on_c, 1, 39, 0
2, 152553137, Note_on_c, 1, 39, 66
2, 152583149, Note_on_c, 1, 84, 75
2, 152613161, Note_on_c, 1, 87, 0
2, 152643173, Note_on_c, 1, 42, 0
2, 152673185, Note_on_c, 1, 42, 66
2, 152703408, Note_on_c, 1, 87, 76
2, 152733631, Note_on_c, 1, 90, 0
2, 152763854, Note_on_c, 1, 39, 0
2, 152794077, Note_on_c, 1, 39, 60
2, 152824382, Note_on_c, 1, 90, 77
2, 152854687, Note_on_c, 1, 90, 0
2, 152884992, Note_on_c, 1, 36, 0
2, 152890382, Note_on_c, 1, 36, 60
2, 152898187, Note_on_c, 1, 33, 0
2, 152905992, Note_on_c, 1, 33, 70
2, 152914005, Note_on_c, 1, 36, 0
2, 152922018, Note_on_c, 1, 36, 60
2, 152930240, Note_on_c, 1, 39, 0
2, 152938462, Note_on_c, 1, 39, 66
2, 152946764, Note_on_c, 1, 42, 0
2, 152955066, Note_on_c, 1, 42, 66
2, 152963577, Note_on_c, 1, 39, 0
2, 152972088, Note_on_c, 1, 39, 60
2, 152980807, Note_on_c, 1, 36, 0
2, 152989526, Note_on_c, 1, 36, 60
2, 152998326, Note_on_c, 1, 32, 0
2, 153007126, Note_on_c, 1, 32, 70
2, 153016134, Note_on_c, 1, 90, 105
2, 153025142, Note_on_c, 1, 90, 0
2, 153034150, Note_on_c, 1, 36, 0
2, 153041904, Note_on_c, 1, 36, 60
2, 153073501, Note_on_c, 1, 39, 0
2, 153105098, Note_on_c, 1, 39, 66
2, 153136906, Note_on_c, 1, 42, 0
2, 153168714, Note_on_c, 1, 42, 66
2, 153200733, Note_on_c, 1, 39, 0
2, 153232752, Note_on_c, 1, 39, 60
2, 153264853, Note_on_c, 1, 36, 0
2, 153296954, Note_on_c, 1, 36, 60
2, 153329266, Note_on_c, 1, 33, 0
2, 153361578, Note_on_c, 1, 33, 70
2, 153394101, Note_on_c, 1, 90, 93
2, 153426624, Note_on_c, 1, 90, 0
2, 153459147, Note_on_c, 1, 36, 0
2, 153471019, Note_on_c, 1, 36, 60
2, 153483352, Note_on_c, 1, 39, 0
2, 153495685, Note_on_c, 1, 39, 59
2, 153508233, Note_on_c, 1, 42, 0
2, 153520830, Note_on_c, 1, 42, 66
2, 153521089, Note_on_c, 1, 45, 0
2, 153521348, Note_on_c, 1, 45, 60
2, 153521690, Note_on_c, 1, 42, 0
2, 153522032, Note_on_c, 1, 42, 59
2, 153522585, Note_on_c, 1, 39, 0
2, 153523138, Note_on_c, 1, 39, 70
2, 153523774, Note_on_c, 1, 90, 96
2, 153524410, Note_on_c, 1, 42, 0
2, 153525046, Note_on_c, 1, 87, 0
2, 153536103, Note_on_c, 1, 87, 84
2, 153546620, Note_on_c, 1, 84, 0
2, 153557375, Note_on_c, 1, 42, 60
2, 153557502, Note_on_c, 1, 45, 0
2, 153570851, Note_on_c, 1, 45, 60
2, 153572393, Note_on_c, 1, 48, 0
2, 153586021, Note_on_c, 1, 48, 62
2, 153586603, Note_on_c, 1, 45, 0
2, 153594056, Note_on_c, 1, 45, 59
2, 153601321, Note_on_c, 1, 42, 0
2, 153608586, Note_on_c, 1, 42, 70
2, 153616076, Note_on_c, 1, 84, 95
2, 153623566, Note_on_c, 1, 78, 0
2, 153631056, Note_on_c, 1, 45, 0
2, 153659271, Note_on_c, 1, 45, 60
2, 153677288, Note_on_c, 1, 48, 0
2, 153678672, Note_on_c, 1, 48, 60
2, 153703801, Note_on_c, 1, 51, 0
2, 153730285, Note_on_c, 1, 51, 62
2, 153751644, Note_on_c, 1, 48, 0
2, 153777048, Note_on_c, 1, 48, 59
2, 153796613, Note_on_c, 1, 45, 0
2, 153810449, Note_on_c, 1, 45, 70
2, 153831241, Note_on_c, 1, 78, 92
2, 153852033, Note_on_c, 1, 48, 0
2, 153872825, Note_on_c, 1, 75, 0
2, 153873619, Note_on_c, 1, 75, 85
2, 153886477, Note_on_c, 1, 72, 0
2, 153913398, Note_on_c, 1, 48, 60
2, 153927349, Note_on_c, 1, 51, 0
2, 153941300, Note_on_c, 1, 51, 60
2, 153955476, Note_on_c, 1, 54, 0
2, 153969652, Note_on_c, 1, 54, 62
2, 153984052, Note_on_c, 1, 51, 0
2, 153998452, Note_on_c, 1, 51, 59
2, 154013076, Note_on_c, 1, 48, 0
2, 154027700, Note_on_c, 1, 48, 70
2, 154042548, Note_on_c, 1, 72, 89
2, 154057396, Note_on_c, 1, 66, 0
2, 154072244, Note_on_c, 1, 51, 0
2, 154077623, Note_on_c, 1, 51, 63
2, 154101015, Note_on_c, 1, 54, 0
2, 154108775, Note_on_c, 1, 54, 63
2, 154125943, Note_on_c, 1, 57, 0
2, 154143111, Note_on_c, 1, 57, 67
2, 154160375, Note_on_c, 1, 54, 0
2, 154177639, Note_on_c, 1, 54, 62
2, 154195127, Note_on_c, 1, 51, 0
2, 154212615, Note_on_c, 1, 51, 77
2, 154230327, Note_on_c, 1, 54, 0
2, 154261637, Note_on_c, 1, 54, 68
2, 154275332, Note_on_c, 1, 57, 0
2, 154306129, Note_on_c, 1, 57, 68
2, 154323135, Note_on_c, 1, 60, 0
2, 154340141, Note_on_c, 1, 60, 70
2, 154357371, Note_on_c, 1, 57, 0
2, 154374601, Note_on_c, 1, 57, 67
2, 154392055, Note_on_c, 1, 54, 0
2, 154409509, Note_on_c, 1, 54, 81
2, 154427187, Note_on_c, 1, 57, 0
2, 154456230, Note_on_c, 1, 57, 68
2, 154467821, Note_on_c, 1, 60, 0
2, 154472545, Note_on_c, 1, 60, 68
2, 154498477, Note_on_c, 1, 63, 0
2, 154524409, Note_on_c, 1, 63, 70
2, 154550563, Note_on_c, 1, 60, 0
2, 154576717, Note_on_c, 1, 60, 67
2, 154603093, Note_on_c, 1, 57, 0
2, 154629469, Note_on_c, 1, 57, 83
2, 154655939, Note_on_c, 1, 66, 83
2, 154682409, Note_on_c, 1, 56, 0
2, 154708879, Note_on_c, 1, 60, 0
2, 154721251, Note_on_c, 1, 60, 74
2, 154740017, Note_on_c, 1, 63, 0
2, 154758783, Note_on_c, 1, 63, 74
2, 154777773, Note_on_c, 1, 68, 0
2, 154796763, Note_on_c, 1, 68, 77
2, 154815977, Note_on_c, 1, 63, 0
2, 154835191, Note_on_c, 1, 63, 73
2, 154854501, Note_on_c, 1, 60, 0
2, 154873811, Note_on_c, 1, 56, 79
2, 154893345, Note_on_c, 1, 60, 91
2, 154912879, Note_on_c, 1, 56, 0
2, 154932413, Note_on_c, 1, 63, 0
2, 154945310, Note_on_c, 1, 63, 74
2, 154971535, Note_on_c, 1, 68, 0
2, 154997760, Note_on_c, 1, 68, 74
2, 155024207, Note_on_c, 1, 72, 0
2, 155050654, Note_on_c, 1, 72, 77
2, 155077323, Note_on_c, 1, 68, 0
2, 155103992, Note_on_c, 1, 68, 73
2, 155130884, Note_on_c, 1, 63, 0
2, 155157776, Note_on_c, 1, 56, 82
2, 155184762, Note_on_c, 1, 63, 91
2, 155211748, Note_on_c, 1, 68, 0
2, 155238734, Note_on_c, 1, 51, 0
2, 155254359, Note_on_c, 1, 51, 73
2, 155275726, Note_on_c, 1, 48, 0
2, 155305282, Note_on_c, 1, 68, 74
2, 155313487, Note_on_c, 1, 72, 0
2, 155316829, Note_on_c, 1, 72, 74
2, 155326309, Note_on_c, 1, 75, 0
2, 155329945, Note_on_c, 1, 75, 77
2, 155338477, Note_on_c, 1, 72, 0
2, 155369721, Note_on_c, 1, 72, 73
2, 155384864, Note_on_c, 1, 68, 0
2, 155400007, Note_on_c, 1, 48, 83
2, 155415375, Note_on_c, 1, 68, 91
2, 155430743, Note_on_c, 1, 44, 0
2, 155446111, Note_on_c, 1, 72, 0
2, 155461847, Note_on_c, 1, 72, 74
2, 155487499, Note_on_c, 1, 75, 0
2, 155506228, Note_on_c, 1, 75, 74
2, 155538788, Note_on_c, 1, 80, 0
2, 155562453, Note_on_c, 1, 80, 77
2, 155591414, Note_on_c, 1, 75, 0
2, 155603793, Note_on_c, 1, 75, 73
2, 155630982, Note_on_c, 1, 72, 0
2, 155639292, Note_on_c, 1, 44, 81
2, 155667569, Note_on_c, 1, 72, 91
2, 155695846, Note_on_c, 1, 75, 0
2, 155724123, Note_on_c, 1, 39, 0
2, 155746687, Note_on_c, 1, 39, 73
2, 155773829, Note_on_c, 1, 36, 0
2, 155796396, Note_on_c, 1, 75, 74
2, 155824605, Note_on_c, 1, 80, 0
2, 155852814, Note_on_c, 1, 80, 74
2, 155881245, Note_on_c, 1, 84, 0
2, 155909676, Note_on_c, 1, 84, 78
2, 155938202, Note_on_c, 1, 80, 0
2, 155966728, Note_on_c, 1, 80, 74
2, 155995476, Note_on_c, 1, 75, 0
2, 156024224, Note_on_c, 1, 36, 81
2, 156053194, Note_on_c, 1, 75, 93
2, 156082164, Note_on_c, 1, 32, 0
2, 156111134, Note_on_c, 1, 80, 0
2, 156140104, Note_on_c, 1, 80, 77
2, 156169297, Note_on_c, 1, 84, 0
2, 156198490, Note_on_c, 1, 84, 77
2, 156227777, Note_on_c, 1, 87, 0
2, 156257064, Note_on_c, 1, 87, 79
2, 156286574, Note_on_c, 1, 84, 0
2, 156316084, Note_on_c, 1, 84, 77
2, 156345816, Note_on_c, 1, 80, 0
2, 156375548, Note_on_c, 1, 80, 95
2, 156405503, Note_on_c, 1, 84, 0
2, 156434439, Note_on_c, 1, 84, 75
2, 156466282, Note_on_c, 1, 87, 0
2, 156498125, Note_on_c, 1, 87, 79
2, 156530189, Note_on_c, 1, 92, 0
2, 156562253, Note_on_c, 1, 92, 81
2, 156594539, Note_on_c, 1, 87, 0
2, 156626825, Note_on_c, 1, 87, 78
2, 156659205, Note_on_c, 1, 84, 0
2, 156691585, Note_on_c, 1, 84, 97
2, 156724187, Note_on_c, 1, 87, 0
2, 156726588, Note_on_c, 1, 87, 80
2, 156729249, Note_on_c, 1, 92, 0
2, 156731910, Note_on_c, 1, 92, 81
2, 156734792, Note_on_c, 1, 96, 0
2, 156737674, Note_on_c, 1, 96, 83
2, 156740777, Note_on_c, 1, 92, 0
2, 156772622, Note_on_c, 1, 92, 80
2, 156801556, Note_on_c, 1, 87, 0
2, 156830490, Note_on_c, 1, 32, 80
2, 156859519, Note_on_c, 1, 87, 100
2, 156888548, Note_on_c, 1, 75, 0
2, 156917577, Note_on_c, 1, 87, 0
2, 156946606, Note_on_c, 1, 34, 0
2, 156952765, Note_on_c, 1, 34, 60
2, 156962619, Note_on_c, 1, 37, 0
2, 156966282, Note_on_c, 1, 37, 66
2, 156992939, Note_on_c, 1, 39, 0
2, 157019596, Note_on_c, 1, 39, 66
2, 157046333, Note_on_c, 1, 43, 0
2, 157073070, Note_on_c, 1, 43, 60
2, 157100015, Note_on_c, 1, 39, 0
2, 157126960, Note_on_c, 1, 39, 60
2, 157154113, Note_on_c, 1, 37, 0
2, 157181266, Note_on_c, 1, 37, 70
2, 157208499, Note_on_c, 1, 87, 86
2, 157235732, Note_on_c, 1, 75, 79
2, 157262965, Note_on_c, 1, 75, 0
2, 157290198, Note_on_c, 1, 87, 0
2, 157317431, Note_on_c, 1, 39, 0
2, 157322809, Note_on_c, 1, 39, 60
2, 157333678, Note_on_c, 1, 43, 0
2, 157344547, Note_on_c, 1, 43, 59
2, 157355628, Note_on_c, 1, 46, 0
2, 157357800, Note_on_c, 1, 46, 66
2, 157381868, Note_on_c, 1, 49, 0
2, 157405936, Note_on_c, 1, 49, 60
2, 157430084, Note_on_c, 1, 46, 0
2, 157454232, Note_on_c, 1, 46, 59
2, 157478589, Note_on_c, 1, 43, 0
2, 157502946, Note_on_c, 1, 43, 70
2, 157527384, Note_on_c, 1, 87, 90
2, 157551822, Note_on_c, 1, 75, 82
2, 157576260, Note_on_c, 1, 46, 0
2, 157600698, Note_on_c, 1, 82, 0
2, 157622202, Note_on_c, 1, 82, 80
2, 157651995, Note_on_c, 1, 79, 0
2, 157665159, Note_on_c, 1, 46, 60
2, 157681314, Note_on_c, 1, 49, 0
2, 157707291, Note_on_c, 1, 49, 60
2, 157724710, Note_on_c, 1, 51, 0
2, 157751122, Note_on_c, 1, 51, 62
2, 157767605, Note_on_c, 1, 49, 0
2, 157789745, Note_on_c, 1, 49, 59
2, 157812638, Note_on_c, 1, 46, 0
2, 157835531, Note_on_c, 1, 46, 70
2, 157858650, Note_on_c, 1, 79, 91
2, 157881769, Note_on_c, 1, 75, 0
2, 157904888, Note_on_c, 1, 49, 0
2, 157908273, Note_on_c, 1, 49, 60
2, 157908792, Note_on_c, 1, 51, 0
2, 157911968, Note_on_c, 1, 51, 60
2, 157919191, Note_on_c, 1, 55, 0
2, 157940038, Note_on_c, 1, 55, 62
2, 157943706, Note_on_c, 1, 51, 0
2, 157975828, Note_on_c, 1, 51, 59
2, 157977746, Note_on_c, 1, 49, 0
2, 157980655, Note_on_c, 1, 49, 70
2, 157983778, Note_on_c, 1, 75, 89
2, 157986901, Note_on_c, 1, 51, 0
2, 157990024, Note_on_c, 1, 70, 0
2, 158011026, Note_on_c, 1, 70, 80
2, 158028988, Note_on_c, 1, 67, 0
2, 158049992, Note_on_c, 1, 51, 60
2, 158052922, Note_on_c, 1, 55, 0
2, 158055852, Note_on_c, 1, 55, 60
2, 158059004, Note_on_c, 1, 58, 0
2, 158062156, Note_on_c, 1, 58, 62
2, 158065531, Note_on_c, 1, 55, 0
2, 158068906, Note_on_c, 1, 55, 59
2, 158072503, Note_on_c, 1, 51, 0
2, 158076100, Note_on_c, 1, 51, 70
2, 158079791, Note_on_c, 1, 67, 89
2, 158083482, Note_on_c, 1, 55, 0
2, 158086592, Note_on_c, 1, 55, 63
2, 158118875, Note_on_c, 1, 58, 0
2, 158151158, Note_on_c, 1, 58, 63
2, 158183536, Note_on_c, 1, 61, 0
2, 158215914, Note_on_c, 1, 61, 67
2, 158248516, Note_on_c, 1, 58, 0
2, 158281118, Note_on_c, 1, 58, 62
2, 158281176, Note_on_c, 1, 55, 0
2, 158281234, Note_on_c, 1, 55, 77
2, 158281515, Note_on_c, 1, 58, 0
2, 158310825, Note_on_c, 1, 58, 68
2, 158340078, Note_on_c, 1, 61, 0
2, 158369025, Note_on_c, 1, 61, 68
2, 158401391, Note_on_c, 1, 63, 0
2, 158433757, Note_on_c, 1, 63, 70
2, 158466347, Note_on_c, 1, 61, 0
2, 158498937, Note_on_c, 1, 61, 67
2, 158498983, Note_on_c, 1, 58, 0
2, 158499029, Note_on_c, 1, 58, 81
2, 158499299, Note_on_c, 1, 61, 0
2, 158526691, Note_on_c, 1, 61, 68
2, 158553910, Note_on_c, 1, 63, 0
2, 158556549, Note_on_c, 1, 63, 68
2, 158564768, Note_on_c, 1, 67, 0
2, 158572987, Note_on_c, 1, 67, 70
2, 158581300, Note_on_c, 1, 63, 0
2, 158589613, Note_on_c, 1, 63, 67
2, 158598148, Note_on_c, 1, 61, 0
2, 158606683, Note_on_c, 1, 61, 83
2, 158615440, Note_on_c, 1, 60, 0
2, 158624197, Note_on_c, 1, 63, 0
2, 158629632, Note_on_c, 1, 63, 74
2, 158659175, Note_on_c, 1, 67, 0
2, 158690269, Note_on_c, 1, 67, 74
2, 158691852, Note_on_c, 1, 72, 0
2, 158693435, Note_on_c, 1, 72, 77
2, 158695242, Note_on_c, 1, 67, 0
2, 158697049, Note_on_c, 1, 67, 73
2, 158698952, Note_on_c, 1, 63, 0
2, 158700855, Note_on_c, 1, 60, 79
2, 158702982, Note_on_c, 1, 63, 91
2, 158705109, Note_on_c, 1, 60, 0
2, 158707236, Note_on_c, 1, 63, 0
2, 158712470, Note_on_c, 1, 63, 74
2, 158715801, Note_on_c, 1, 67, 0
2, 158719132, Note_on_c, 1, 67, 74
2, 158722559, Note_on_c, 1, 72, 0
2, 158725986, Note_on_c, 1, 72, 77
2, 158729636, Note_on_c, 1, 67, 0
2, 158733286, Note_on_c, 1, 67, 73
2, 158737160, Note_on_c, 1, 63, 0
2, 158741034, Note_on_c, 1, 60, 82
2, 158745132, Note_on_c, 1, 63, 91
2, 158749230, Note_on_c, 1, 63, 0
2, 158753328, Note_on_c, 1, 55, 0
2, 158762662, Note_on_c, 1, 55, 73
2, 158768113, Note_on_c, 1, 51, 0
2, 158797653, Note_on_c, 1, 63, 74
2, 158821759, Note_on_c, 1, 67, 0
2, 158837732, Note_on_c, 1, 67, 74
2, 158863089, Note_on_c, 1, 72, 0
2, 158879506, Note_on_c, 1, 72, 77
2, 158903939, Note_on_c, 1, 67, 0
2, 158917101, Note_on_c, 1, 67, 73
2, 158947872, Note_on_c, 1, 63, 0
2, 158978643, Note_on_c, 1, 51, 83
2, 159009640, Note_on_c, 1, 63, 91
2, 159040637, Note_on_c, 1, 48, 0
2, 159071634, Note_on_c, 1, 67, 0
2, 159095308, Note_on_c, 1, 67, 74
2, 159103334, Note_on_c, 1, 72, 0
2, 159123856, Note_on_c, 1, 72, 74
2, 159138510, Note_on_c, 1, 75, 0
2, 159156538, Note_on_c, 1, 75, 77
2, 159167808, Note_on_c, 1, 72, 0
2, 159187035, Note_on_c, 1, 72, 73
2, 159196577, Note_on_c, 1, 67, 0
2, 159226852, Note_on_c, 1, 48, 81
2, 159237460, Note_on_c, 1, 67, 91
2, 159248068, Note_on_c, 1, 72, 0
2, 159258676, Note_on_c, 1, 43, 0
2, 159280215, Note_on_c, 1, 43, 73
2, 159291232, Note_on_c, 1, 39, 0
2, 159311246, Note_on_c, 1, 72, 74
2, 159320259, Note_on_c, 1, 75, 0
2, 159329272, Note_on_c, 1, 75, 74
2, 159338508, Note_on_c, 1, 79, 0
2, 159347744, Note_on_c, 1, 79, 77
2, 159357075, Note_on_c, 1, 75, 0
2, 159366406, Note_on_c, 1, 75, 73
2, 159375959, Note_on_c, 1, 72, 0
2, 159385512, Note_on_c, 1, 39, 81
2, 159395288, Note_on_c, 1, 72, 91
2, 159405064, Note_on_c, 1, 36, 0
2, 159414840, Note_on_c, 1, 75, 0
2, 159424616, Note_on_c, 1, 75, 74
2, 159434615, Note_on_c, 1, 79, 0
2, 159444614, Note_on_c, 1, 79, 74
2, 159454708, Note_on_c, 1, 84, 0
2, 159464802, Note_on_c, 1, 84, 77
2, 159475119, Note_on_c, 1, 79, 0
2, 159485436, Note_on_c, 1, 79, 73
2, 159495976, Note_on_c, 1, 75, 0
2, 159506516, Note_on_c, 1, 75, 91
2, 159517279, Note_on_c, 1, 79, 0
2, 159528042, Note_on_c, 1, 79, 74
2, 159538900, Note_on_c, 1, 84, 0
2, 159549758, Note_on_c, 1, 84, 74
2, 159560839, Note_on_c, 1, 87, 0
2, 159571920, Note_on_c, 1, 87, 77
2, 159583223, Note_on_c, 1, 84, 0
2, 159594526, Note_on_c, 1, 84, 73
2, 159606052, Note_on_c, 1, 79, 0
2, 159617578, Note_on_c, 1, 79, 91
2, 159629199, Note_on_c, 1, 84, 0
2, 159660722, Note_on_c, 1, 84, 74
2, 159680716, Note_on_c, 1, 87, 0
2, 159700710, Note_on_c, 1, 87, 74
2, 159720797, Note_on_c, 1, 91, 0
2, 159740884, Note_on_c, 1, 91, 77
2, 159761191, Note_on_c, 1, 87, 0
2, 159781498, Note_on_c, 1, 87, 73
2, 159802026, Note_on_c, 1, 79, 0
2, 159822554, Note_on_c, 1, 91, 0
2, 159848446, Note_on_c, 1, 36, 80
2, 159853824, Note_on_c, 1, 91, 91
2, 159859202, Note_on_c, 1, 79, 91
2, 159864580, Note_on_c, 1, 91, 0
2, 159869958, Note_on_c, 1, 79, 0
2, 159875336, Note_on_c, 1, 38, 0
2, 159880714, Note_on_c, 1, 38, 60
2, 159886173, Note_on_c, 1, 41, 0
2, 159891632, Note_on_c, 1, 41, 66
2, 159897300, Note_on_c, 1, 43, 0
2, 159914812, Note_on_c, 1, 43, 66
2, 159926863, Note_on_c, 1, 47, 0
2, 159938914, Note_on_c, 1, 47, 60
2, 159951045, Note_on_c, 1, 43, 0
2, 159963176, Note_on_c, 1, 43, 60
2, 159975514, Note_on_c, 1, 41, 0
2, 159987852, Note_on_c, 1, 41, 70
2, 160000397, Note_on_c, 1, 79, 79
2, 160012942, Note_on_c, 1, 91, 86
2, 160025487, Note_on_c, 1, 79, 0
2, 160038032, Note_on_c, 1, 91, 0
2, 160050577, Note_on_c, 1, 43, 0
2, 160059127, Note_on_c, 1, 43, 60
2, 160088111, Note_on_c, 1, 47, 0
2, 160117095, Note_on_c, 1, 47, 59
2, 160146291, Note_on_c, 1, 50, 0
2, 160152005, Note_on_c, 1, 50, 66
2, 160161500, Note_on_c, 1, 53, 0
2, 160170995, Note_on_c, 1, 53, 60
2, 160180570, Note_on_c, 1, 50, 0
2, 160190145, Note_on_c, 1, 50, 59
2, 160199928, Note_on_c, 1, 47, 0
2, 160209711, Note_on_c, 1, 47, 70
2, 160219702, Note_on_c, 1, 91, 90
2, 160229693, Note_on_c, 1, 79, 82
2, 160239684, Note_on_c, 1, 50, 0
2, 160249675, Note_on_c, 1, 86, 0
2, 160273328, Note_on_c, 1, 86, 80
2, 160287206, Note_on_c, 1, 83, 0
2, 160300355, Note_on_c, 1, 50, 60
2, 160332411, Note_on_c, 1, 53, 0
2, 160338378, Note_on_c, 1, 53, 60
2, 160338905, Note_on_c, 1, 55, 0
2, 160345327, Note_on_c, 1, 55, 62
2, 160377710, Note_on_c, 1, 53, 0
2, 160381895, Note_on_c, 1, 53, 59
2, 160387648, Note_on_c, 1, 50, 0
2, 160393401, Note_on_c, 1, 50, 70
2, 160399380, Note_on_c, 1, 83, 91
2, 160405359, Note_on_c, 1, 79, 0
2, 160411338, Note_on_c, 1, 53, 0
2, 160422662, Note_on_c, 1, 53, 60
2, 160438324, Note_on_c, 1, 55, 0
2, 160443296, Note_on_c, 1, 55, 60
2, 160465381, Note_on_c, 1, 59, 0
2, 160480591, Note_on_c, 1, 59, 62
2, 160499335, Note_on_c, 1, 55, 0
2, 160505538, Note_on_c, 1, 55, 59
2, 160522704, Note_on_c, 1, 53, 0
2, 160547581, Note_on_c, 1, 53, 70
2, 160565803, Note_on_c, 1, 79, 89
2, 160584025, Note_on_c, 1, 55, 0
2, 160602247, Note_on_c, 1, 74, 0
2, 160623573, Note_on_c, 1, 74, 80
2, 160626760, Note_on_c, 1, 71, 0
2, 160643921, Note_on_c, 1, 55, 60
2, 160657783, Note_on_c, 1, 59, 0
2, 160671645, Note_on_c, 1, 59, 60
2, 160685731, Note_on_c, 1, 62, 0
2, 160699817, Note_on_c, 1, 62, 62
2, 160713998, Note_on_c, 1, 59, 0
2, 160728179, Note_on_c, 1, 59, 59
2, 160742584, Note_on_c, 1, 55, 0
2, 160756989, Note_on_c, 1, 55, 70
2, 160771618, Note_on_c, 1, 71, 89
2, 160786247, Note_on_c, 1, 59, 0
2, 160800876, Note_on_c, 1, 59, 63
2, 160815728, Note_on_c, 1, 62, 0
2, 160830580, Note_on_c, 1, 62, 63
2, 160845528, Note_on_c, 1, 65, 0
2, 160860476, Note_on_c, 1, 65, 67
2, 160875648, Note_on_c, 1, 62, 0
2, 160890820, Note_on_c, 1, 62, 62
2, 160906216, Note_on_c, 1, 59, 0
2, 160921612, Note_on_c, 1, 59, 77
2, 160937231, Note_on_c, 1, 62, 0
2, 160964669, Note_on_c, 1, 62, 68
2, 160976713, Note_on_c, 1, 65, 0
2, 161002882, Note_on_c, 1, 65, 68
2, 161017039, Note_on_c, 1, 67, 0
2, 161031196, Note_on_c, 1, 67, 70
2, 161045577, Note_on_c, 1, 65, 0
2, 161059958, Note_on_c, 1, 65, 67
2, 161074564, Note_on_c, 1, 62, 0
2, 161089170, Note_on_c, 1, 62, 81
2, 161103872, Note_on_c, 1, 65, 0
2, 161129849, Note_on_c, 1, 65, 68
2, 161141222, Note_on_c, 1, 67, 0
2, 161143379, Note_on_c, 1, 67, 68
2, 161166988, Note_on_c, 1, 71, 0
2, 161190597, Note_on_c, 1, 71, 70
2, 161214427, Note_on_c, 1, 67, 0
2, 161238257, Note_on_c, 1, 67, 67
2, 161262181, Note_on_c, 1, 65, 0
2, 161286105, Note_on_c, 1, 65, 83
2, 161310251, Note_on_c, 1, 64, 0
2, 161334397, Note_on_c, 1, 67, 0
2, 161338049, Note_on_c, 1, 67, 59
2, 161350404, Note_on_c, 1, 71, 0
2, 161362759, Note_on_c, 1, 71, 70
2, 161375323, Note_on_c, 1, 67, 0
2, 161403999, Note_on_c, 1, 67, 60
2, 161420191, Note_on_c, 1, 71, 0
2, 161436383, Note_on_c, 1, 71, 70
2, 161452783, Note_on_c, 1, 67, 0
2, 161469183, Note_on_c, 1, 67, 60
2, 161485663, Note_on_c, 1, 71, 0
2, 161502143, Note_on_c, 1, 64, 79
2, 161518832, Note_on_c, 1, 71, 70
2, 161535521, Note_on_c, 1, 64, 0
2, 161552210, Note_on_c, 1, 67, 0
2, 161581748, Note_on_c, 1, 67, 61
2, 161594806, Note_on_c, 1, 71, 0
2, 161607864, Note_on_c, 1, 71, 70
2, 161621003, Note_on_c, 1, 67, 0
2, 161634142, Note_on_c, 1, 67, 60
2, 161647490, Note_on_c, 1, 71, 0
2, 161660838, Note_on_c, 1, 71, 70
2, 161674267, Note_on_c, 1, 67, 0
2, 161687696, Note_on_c, 1, 67, 61
2, 161701335, Note_on_c, 1, 71, 0
2, 161714974, Note_on_c, 1, 64, 82
2, 161728822, Note_on_c, 1, 71, 70
2, 161742670, Note_on_c, 1, 67, 0
2, 161756518, Note_on_c, 1, 59, 0
2, 161759687, Note_on_c, 1, 59, 73
2, 161781991, Note_on_c, 1, 67, 59
2, 161804295, Note_on_c, 1, 55, 0
2, 161826599, Note_on_c, 1, 71, 0
2, 161826933, Note_on_c, 1, 71, 70
2, 161838227, Note_on_c, 1, 67, 0
2, 161862149, Note_on_c, 1, 67, 60
2, 161872663, Note_on_c, 1, 71, 0
2, 161888875, Note_on_c, 1, 71, 70
2, 161901457, Note_on_c, 1, 67, 0
2, 161930422, Note_on_c, 1, 67, 60
2, 161946886, Note_on_c, 1, 71, 0
2, 161963350, Note_on_c, 1, 55, 83
2, 161980023, Note_on_c, 1, 71, 70
2, 161996696, Note_on_c, 1, 52, 0
2, 162013369, Note_on_c, 1, 67, 0
2, 162024645, Note_on_c, 1, 67, 61
2, 162048752, Note_on_c, 1, 71, 0
2, 162059038, Note_on_c, 1, 71, 70
2, 162085003, Note_on_c, 1, 67, 0
2, 162103791, Note_on_c, 1, 67, 60
2, 162130780, Note_on_c, 1, 71, 0
2, 162144458, Note_on_c, 1, 71, 70
2, 162174226, Note_on_c, 1, 67, 0
2, 162199677, Note_on_c, 1, 67, 61
2, 162227893, Note_on_c, 1, 71, 0
2, 162228785, Note_on_c, 1, 52, 81
2, 162254492, Note_on_c, 1, 71, 70
2, 162280199, Note_on_c, 1, 67, 0
2, 162305906, Note_on_c, 1, 47, 0
2, 162309000, Note_on_c, 1, 47, 73
2, 162319110, Note_on_c, 1, 67, 59
2, 162329220, Note_on_c, 1, 43, 0
2, 162339330, Note_on_c, 1, 71, 0
2, 162366472, Note_on_c, 1, 71, 70
2, 162383457, Note_on_c, 1, 67, 0
2, 162400442, Note_on_c, 1, 67, 60
2, 162417636, Note_on_c, 1, 71, 0
2, 162434830, Note_on_c, 1, 71, 70
2, 162452105, Note_on_c, 1, 67, 0
2, 162479797, Note_on_c, 1, 67, 60
2, 162485732, Note_on_c, 1, 71, 0
2, 162512642, Note_on_c, 1, 43, 81
2, 162526527, Note_on_c, 1, 71, 70
2, 162540412, Note_on_c, 1, 40, 0
2, 162554297, Note_on_c, 1, 67, 0
2, 162569730, Note_on_c, 1, 67, 61
2, 162579981, Note_on_c, 1, 71, 0
2, 162594178, Note_on_c, 1, 71, 70
2, 162605507, Note_on_c, 1, 67, 0
2, 162626321, Note_on_c, 1, 67, 60
2, 162628899, Note_on_c, 1, 71, 0
2, 162634360, Note_on_c, 1, 71, 70
2, 162647971, Note_on_c, 1, 67, 0
2, 162662368, Note_on_c, 1, 67, 61
2, 162671329, Note_on_c, 1, 71, 0
2, 162671615, Note_on_c, 1, 71, 70
2, 162675732, Note_on_c, 1, 67, 0
2, 162688135, Note_on_c, 1, 67, 59
2, 162703106, Note_on_c, 1, 71, 0
2, 162724989, Note_on_c, 1, 71, 70
2, 162737326, Note_on_c, 1, 67, 0
2, 162768173, Note_on_c, 1, 67, 60
2, 162784426, Note_on_c, 1, 71, 0
2, 162810039, Note_on_c, 1, 71, 70
2, 162819801, Note_on_c, 1, 67, 0
2, 162824688, Note_on_c, 1, 67, 60
2, 162843195, Note_on_c, 1, 71, 0
2, 162868611, Note_on_c, 1, 71, 70
2, 162880671, Note_on_c, 1, 67, 0
2, 162888916, Note_on_c, 1, 67, 61
2, 162904035, Note_on_c, 1, 71, 0
2, 162926170, Note_on_c, 1, 71, 70
2, 162941372, Note_on_c, 1, 67, 0
2, 162956339, Note_on_c, 1, 67, 60
2, 162970765, Note_on_c, 1, 71, 0
2, 162979792, Note_on_c, 1, 71, 70
2, 162996269, Note_on_c, 1, 67, 0
2, 163025766, Note_on_c, 1, 67, 61
2, 163043441, Note_on_c, 1, 71, 0
2, 163060130, Note_on_c, 1, 40, 80
2, 163075059, Note_on_c, 1, 71, 70
2, 163089988, Note_on_c, 1, 43, 0
2, 163098960, Note_on_c, 1, 43, 75
2, 163125867, Note_on_c, 1, 47, 0
2, 163148403, Note_on_c, 1, 47, 83
2, 163176403, Note_on_c, 1, 66, 0
2, 163200727, Note_on_c, 1, 69, 0
2, 163225051, Note_on_c, 1, 75, 0
2, 163249375, Note_on_c, 1, 47, 0
2, 163273699, Note_on_c, 1, 47, 30
2, 163298635, Note_on_c, 1, 66, 30
2, 163323571, Note_on_c, 1, 69, 30
2, 163348507, Note_on_c, 1, 75, 36
2, 163373443, Note_on_c, 1, 71, 0
2, 163398379, Note_on_c, 1, 76, 0
2, 163423315, Note_on_c, 1, 68, 0
2, 163448251, Note_on_c, 1, 59, 0
2, 163473187, Note_on_c, 1, 59, 35
2, 163500343, Note_on_c, 1, 71, 35
2, 163527499, Note_on_c, 1, 76, 42
2, 163554655, Note_on_c, 1, 68, 35
2, 163581811, Note_on_c, 1, 69, 0
2, 163608967, Note_on_c, 1, 73, 0
2, 163636123, Note_on_c, 1, 57, 0
2, 163663279, Note_on_c, 1, 80, 0
2, 163670829, Note_on_c, 1, 80, 39
2, 163684212, Note_on_c, 1, 78, 0
2, 163696370, Note_on_c, 1, 57, 40
2, 163728649, Note_on_c, 1, 78, 44
2, 163760928, Note_on_c, 1, 73, 36
2, 163793207, Note_on_c, 1, 69, 36
2, 163825486, Note_on_c, 1, 66, 0
2, 163857765, Note_on_c, 1, 73, 0
2, 163890044, Note_on_c, 1, 69, 0
2, 163922323, Note_on_c, 1, 81, 0
2, 163954602, Note_on_c, 1, 54, 0
2, 163986881, Note_on_c, 1, 54, 38
2, 163988471, Note_on_c, 1, 66, 44
2, 163990061, Note_on_c, 1, 81, 53
2, 163991651, Note_on_c, 1, 73, 45
2, 163993241, Note_on_c, 1, 69, 45
2, 163994831, Note_on_c, 1, 76, 0
2, 163996421, Note_on_c, 1, 68, 0
2, 163998011, Note_on_c, 1, 71, 0
2, 164006074, Note_on_c, 1, 71, 26
2, 164013578, Note_on_c, 1, 68, 22
2, 164021082, Note_on_c, 1, 76, 35
2, 164028586, Note_on_c, 1, 75, 0
2, 164036090, Note_on_c, 1, 69, 0
2, 164043594, Note_on_c, 1, 72, 0
2, 164051098, Note_on_c, 1, 78, 0
2, 164077065, Note_on_c, 1, 78, 33
2, 164095766, Note_on_c, 1, 80, 0
2, 164103044, Note_on_c, 1, 80, 37
2, 164124617, Note_on_c, 1, 76, 0
2, 164146190, Note_on_c, 1, 76, 33
2, 164167992, Note_on_c, 1, 78, 0
2, 164187002, Note_on_c, 1, 78, 31
2, 164217059, Note_on_c, 1, 80, 0
2, 164244500, Note_on_c, 1, 80, 34
2, 164276335, Note_on_c, 1, 78, 0
2, 164308187, Note_on_c, 1, 78, 30
2, 164308230, Note_on_c, 1, 80, 0
2, 164309109, Note_on_c, 1, 80, 33
2, 164309998, Note_on_c, 1, 78, 0
2, 164312822, Note_on_c, 1, 78, 36
2, 164314682, Note_on_c, 1, 80, 0
2, 164322904, Note_on_c, 1, 80, 32
2, 164326517, Note_on_c, 1, 78, 0
2, 164334553, Note_on_c, 1, 78, 36
2, 164339002, Note_on_c, 1, 80, 0
2, 164347272, Note_on_c, 1, 80, 34
2, 164351119, Note_on_c, 1, 78, 0
2, 164360201, Note_on_c, 1, 78, 36
2, 164362529, Note_on_c, 1, 80, 0
2, 164367170, Note_on_c, 1, 80, 34
2, 164367971, Note_on_c, 1, 78, 0
2, 164368806, Note_on_c, 1, 78, 36
2, 164368866, Note_on_c, 1, 80, 0
2, 164399452, Note_on_c, 1, 80, 33
2, 164430741, Note_on_c, 1, 78, 0
2, 164459750, Note_on_c, 1, 72, 28
2, 164490292, Note_on_c, 1, 69, 28
2, 164520834, Note_on_c, 1, 75, 29
2, 164551376, Note_on_c, 1, 78, 36
2, 164581918, Note_on_c, 1, 71, 0
2, 164612460, Note_on_c, 1, 68, 0
2, 164643002, Note_on_c, 1, 78, 0
2, 164652793, Note_on_c, 1, 78, 35
2, 164665128, Note_on_c, 1, 76, 0
2, 164680598, Note_on_c, 1, 68, 26
2, 164685514, Note_on_c, 1, 71, 26
2, 164690430, Note_on_c, 1, 76, 35
2, 164695346, Note_on_c, 1, 54, 0
2, 164700262, Note_on_c, 1, 57, 0
2, 164705178, Note_on_c, 1, 63, 0
2, 164710094, Note_on_c, 1, 35, 0
2, 164717895, Note_on_c, 1, 35, 30
2, 164722872, Note_on_c, 1, 54, 30
2, 164727849, Note_on_c, 1, 57, 30
2, 164732826, Note_on_c, 1, 63, 36
2, 164737803, Note_on_c, 1, 59, 0
2, 164742780, Note_on_c, 1, 56, 0
2, 164747757, Note_on_c, 1, 64, 0
2, 164752734, Note_on_c, 1, 47, 0
2, 164757711, Note_on_c, 1, 47, 35
2, 164764908, Note_on_c, 1, 59, 35
2, 164772105, Note_on_c, 1, 56, 35
2, 164779302, Note_on_c, 1, 64, 42
2, 164786499, Note_on_c, 1, 57, 0
2, 164793696, Note_on_c, 1, 61, 0
2, 164800893, Note_on_c, 1, 45, 0
2, 164808090, Note_on_c, 1, 68, 0
2, 164809142, Note_on_c, 1, 68, 39
2, 164835858, Note_on_c, 1, 66, 0
2, 164841789, Note_on_c, 1, 45, 40
2, 164854379, Note_on_c, 1, 66, 44
2, 164866969, Note_on_c, 1, 61, 36
2, 164879559, Note_on_c, 1, 57, 36
2, 164892149, Note_on_c, 1, 69, 0
2, 164904739, Note_on_c, 1, 61, 0
2, 164917329, Note_on_c, 1, 57, 0
2, 164929919, Note_on_c, 1, 42, 0
2, 164942509, Note_on_c, 1, 42, 44
2, 164957177, Note_on_c, 1, 69, 53
2, 164971845, Note_on_c, 1, 61, 45
2, 164986513, Note_on_c, 1, 57, 45
2, 165001181, Note_on_c, 1, 64, 0
2, 165015849, Note_on_c, 1, 56, 0
2, 165030517, Note_on_c, 1, 59, 0
2, 165030890, Note_on_c, 1, 59, 26
2, 165050396, Note_on_c, 1, 56, 22
2, 165069902, Note_on_c, 1, 64, 35
2, 165089408, Note_on_c, 1, 63, 0
2, 165108914, Note_on_c, 1, 57, 0
2, 165128420, Note_on_c, 1, 60, 0
2, 165147926, Note_on_c, 1, 66, 0
2, 165166922, Note_on_c, 1, 66, 33
2, 165199291, Note_on_c, 1, 68, 0
2, 165200174, Note_on_c, 1, 68, 37
2, 165201557, Note_on_c, 1, 64, 0
2, 165202940, Note_on_c, 1, 64, 33
2, 165204552, Note_on_c, 1, 66, 0
2, 165208413, Note_on_c, 1, 66, 33
2, 165210754, Note_on_c, 1, 68, 0
2, 165240236, Note_on_c, 1, 68, 36
2, 165252394, Note_on_c, 1, 66, 0
2, 165277767, Note_on_c, 1, 66, 31
2, 165290881, Note_on_c, 1, 68, 0
2, 165318035, Note_on_c, 1, 68, 35
2, 165331974, Note_on_c, 1, 66, 0
2, 165360904, Note_on_c, 1, 66, 39
2, 165375793, Note_on_c, 1, 68, 0
2, 165406365, Note_on_c, 1, 68, 35
2, 165422074, Note_on_c, 1, 66, 0
2, 165452880, Note_on_c, 1, 66, 39
2, 165468003, Note_on_c, 1, 68, 0
2, 165497479, Note_on_c, 1, 68, 36
2, 165511885, Note_on_c, 1, 66, 0
2, 165540054, Note_on_c, 1, 66, 39
2, 165553742, Note_on_c, 1, 68, 0
2, 165580473, Note_on_c, 1, 68, 36
2, 165593569, Note_on_c, 1, 66, 0
2, 165618986, Note_on_c, 1, 66, 40
2, 165631360, Note_on_c, 1, 68, 0
2, 165655458, Note_on_c, 1, 68, 35
2, 165667236, Note_on_c, 1, 66, 0
2, 165689884, Note_on_c, 1, 60, 28
2, 165700936, Note_on_c, 1, 57, 28
2, 165711988, Note_on_c, 1, 66, 44
2, 165723040, Note_on_c, 1, 63, 35
2, 165734092, Note_on_c, 1, 59, 0
2, 165745144, Note_on_c, 1, 56, 0
2, 165756196, Note_on_c, 1, 66, 0
2, 165760113, Note_on_c, 1, 66, 35
2, 165786064, Note_on_c, 1, 64, 0
2, 165817575, Note_on_c, 1, 56, 26
2, 165824817, Note_on_c, 1, 59, 26
2, 165832059, Note_on_c, 1, 64, 35
2, 165853609, Note_on_c, 1, 78, 0
2, 165871370, Note_on_c, 1, 69, 0
2, 165889131, Note_on_c, 1, 73, 0
2, 165906892, Note_on_c, 1, 73, 26
2, 165925394, Note_on_c, 1, 69, 22
2, 165943896, Note_on_c, 1, 78, 35
2, 165962398, Note_on_c, 1, 77, 0
2, 165980900, Note_on_c, 1, 71, 0
2, 165999402, Note_on_c, 1, 74, 0
2, 166017904, Note_on_c, 1, 80, 0
2, 166046593, Note_on_c, 1, 80, 33
2, 166056891, Note_on_c, 1, 81, 0
2, 166078191, Note_on_c, 1, 81, 37
2, 166089294, Note_on_c, 1, 78, 0
2, 166100397, Note_on_c, 1, 78, 33
2, 166111729, Note_on_c, 1, 80, 0
2, 166138126, Note_on_c, 1, 80, 33
2, 166153272, Note_on_c, 1, 81, 0
2, 166168426, Note_on_c, 1, 81, 36
2, 166185177, Note_on_c, 1, 80, 0
2, 166205259, Note_on_c, 1, 80, 31
2, 166223734, Note_on_c, 1, 81, 0
2, 166228684, Note_on_c, 1, 81, 35
2, 166247981, Note_on_c, 1, 80, 0
2, 166275680, Note_on_c, 1, 80, 37
2, 166296687, Note_on_c, 1, 81, 0
2, 166329248, Note_on_c, 1, 81, 34
2, 166351828, Note_on_c, 1, 80, 0
2, 166364977, Note_on_c, 1, 80, 38
2, 166388366, Note_on_c, 1, 81, 0
2, 166391008, Note_on_c, 1, 81, 36
2, 166413062, Note_on_c, 1, 80, 0
2, 166444327, Note_on_c, 1, 80, 39
2, 166464911, Note_on_c, 1, 81, 0
2, 166472674, Note_on_c, 1, 81, 36
2, 166492675, Note_on_c, 1, 80, 0
2, 166517633, Note_on_c, 1, 80, 40
2, 166536151, Note_on_c, 1, 81, 0
2, 166556906, Note_on_c, 1, 81, 35
2, 166574062, Note_on_c, 1, 80, 0
2, 166574831, Note_on_c, 1, 74, 28
2, 166591266, Note_on_c, 1, 71, 28
2, 166607701, Note_on_c, 1, 80, 44
2, 166624136, Note_on_c, 1, 77, 35
2, 166640571, Note_on_c, 1, 73, 0
2, 166657006, Note_on_c, 1, 69, 0
2, 166673441, Note_on_c, 1, 80, 0
2, 166691904, Note_on_c, 1, 80, 35
2, 166694250, Note_on_c, 1, 78, 0
2, 166720971, Note_on_c, 1, 69, 26
2, 166747126, Note_on_c, 1, 73, 26
2, 166773281, Note_on_c, 1, 78, 35
2, 166789493, Note_on_c, 1, 51, 0
2, 166815899, Note_on_c, 1, 54, 0
2, 166842305, Note_on_c, 1, 71, 0
2, 166868711, Note_on_c, 1, 59, 0
2, 166895117, Note_on_c, 1, 59, 26
2, 166922265, Note_on_c, 1, 51, 19
2, 166949413, Note_on_c, 1, 54, 22
2, 166976561, Note_on_c, 1, 71, 35
2, 167003709, Note_on_c, 1, 52, 0
2, 167030857, Note_on_c, 1, 58, 0
2, 167058005, Note_on_c, 1, 55, 0
2, 167085153, Note_on_c, 1, 73, 0
2, 167100288, Note_on_c, 1, 73, 31
2, 167121282, Note_on_c, 1, 75, 0
2, 167130102, Note_on_c, 1, 75, 35
2, 167150925, Note_on_c, 1, 71, 0
2, 167171748, Note_on_c, 1, 71, 30
2, 167192801, Note_on_c, 1, 73, 0
2, 167200021, Note_on_c, 1, 73, 26
2, 167219039, Note_on_c, 1, 75, 0
2, 167247483, Note_on_c, 1, 75, 31
2, 167269007, Note_on_c, 1, 73, 0
2, 167271144, Note_on_c, 1, 73, 26
2, 167295026, Note_on_c, 1, 75, 0
2, 167303579, Note_on_c, 1, 75, 28
2, 167329039, Note_on_c, 1, 73, 0
2, 167343196, Note_on_c, 1, 73, 31
2, 167371109, Note_on_c, 1, 75, 0
2, 167391593, Note_on_c, 1, 75, 27
2, 167421062, Note_on_c, 1, 73, 0
2, 167446204, Note_on_c, 1, 73, 31
2, 167477221, Note_on_c, 1, 75, 0
2, 167494440, Note_on_c, 1, 75, 28
2, 167521886, Note_on_c, 1, 73, 0
2, 167536598, Note_on_c, 1, 73, 31
2, 167562710, Note_on_c, 1, 75, 0
2, 167573282, Note_on_c, 1, 75, 27
2, 167597925, Note_on_c, 1, 73, 0
2, 167604333, Note_on_c, 1, 73, 31
2, 167627499, Note_on_c, 1, 75, 0
2, 167629592, Note_on_c, 1, 75, 27
2, 167651401, Note_on_c, 1, 73, 0
2, 167681922, Note_on_c, 1, 55, 26
2, 167702238, Note_on_c, 1, 58, 26
2, 167722554, Note_on_c, 1, 52, 26
2, 167742870, Note_on_c, 1, 73, 31
2, 167763186, Note_on_c, 1, 59, 0
2, 167783502, Note_on_c, 1, 51, 0
2, 167803818, Note_on_c, 1, 54, 0
2, 167824134, Note_on_c, 1, 71, 0
2, 167855657, Note_on_c, 1, 71, 34
2, 167866768, Note_on_c, 1, 73, 0
2, 167877879, Note_on_c, 1, 73, 33
2, 167889260, Note_on_c, 1, 71, 0
2, 167900555, Note_on_c, 1, 59, 26
2, 167902123, Note_on_c, 1, 51, 26
2, 167903691, Note_on_c, 1, 54, 26
2, 167905259, Note_on_c, 1, 71, 35
2, 167906827, Note_on_c, 1, 64, 0
2, 167908395, Note_on_c, 1, 52, 0
2, 167909963, Note_on_c, 1, 52, 27
2, 167912574, Note_on_c, 1, 64, 34
2, 167934122, Note_on_c, 1, 76, 0
2, 167952935, Note_on_c, 1, 64, 0
2, 167974792, Note_on_c, 1, 64, 28
2, 167978446, Note_on_c, 1, 76, 36
2, 167982100, Note_on_c, 1, 71, 0
2, 167985754, Note_on_c, 1, 59, 0
2, 167998299, Note_on_c, 1, 59, 25
2, 168007287, Note_on_c, 1, 71, 31
2, 168016275, Note_on_c, 1, 68, 0
2, 168025263, Note_on_c, 1, 56, 0
2, 168037920, Note_on_c, 1, 56, 28
2, 168042618, Note_on_c, 1, 68, 36
2, 168047316, Note_on_c, 1, 64, 0
2, 168052014, Note_on_c, 1, 52, 0
2, 168076177, Note_on_c, 1, 52, 27
2, 168096659, Note_on_c, 1, 64, 35
2, 168117141, Note_on_c, 1, 59, 0
2, 168137623, Note_on_c, 1, 47, 0
2, 168150941, Note_on_c, 1, 47, 24
2, 168176648, Note_on_c, 1, 59, 30
2, 168202355, Note_on_c, 1, 56, 0
2, 168228062, Note_on_c, 1, 44, 0
2, 168242248, Note_on_c, 1, 44, 27
2, 168271962, Note_on_c, 1, 56, 35
2, 168301676, Note_on_c, 1, 52, 0
2, 168331390, Note_on_c, 1, 40, 0
2, 168336292, Note_on_c, 1, 40, 22
2, 168346334, Note_on_c, 1, 52, 28
2, 168356376, Note_on_c, 1, 56, 0
2, 168366418, Note_on_c, 1, 44, 0
2, 168382913, Note_on_c, 1, 44, 25
2, 168389625, Note_on_c, 1, 56, 31
2, 168396337, Note_on_c, 1, 59, 0
2, 168403049, Note_on_c, 1, 47, 0
2, 168413925, Note_on_c, 1, 47, 27
2, 168425011, Note_on_c, 1, 59, 35
2, 168436097, Note_on_c, 1, 51, 0
2, 168447183, Note_on_c, 1, 39, 0
2, 168458269, Note_on_c, 1, 39, 22
2, 168472613, Note_on_c, 1, 51, 28
2, 168486957, Note_on_c, 1, 56, 0
2, 168501301, Note_on_c, 1, 44, 0
2, 168528301, Note_on_c, 1, 44, 25
2, 168541215, Note_on_c, 1, 56, 31
2, 168554129, Note_on_c, 1, 59, 0
2, 168567043, Note_on_c, 1, 47, 0
2, 168583780, Note_on_c, 1, 47, 27
2, 168589475, Note_on_c, 1, 59, 35
2, 168595170, Note_on_c, 1, 92, 0
2, 168600865, Note_on_c, 1, 32, 0
2, 168619151, Note_on_c, 1, 32, 27
2, 168634887, Note_on_c, 1, 92, 33
2, 168650623, Note_on_c, 1, 35, 0
2, 168666359, Note_on_c, 1, 87, 0
2, 168690236, Note_on_c, 1, 87, 30
2, 168718407, Note_on_c, 1, 92, 0
2, 168719752, Note_on_c, 1, 92, 36
2, 168733644, Note_on_c, 1, 87, 0
2, 168748060, Note_on_c, 1, 87, 31
2, 168764798, Note_on_c, 1, 92, 0
2, 168774644, Note_on_c, 1, 92, 37
2, 168795491, Note_on_c, 1, 87, 0
2, 168821681, Note_on_c, 1, 87, 35
2, 168846591, Note_on_c, 1, 92, 0
2, 168855921, Note_on_c, 1, 35, 30
2, 168884850, Note_on_c, 1, 92, 39
2, 168913779, Note_on_c, 1, 39, 0
2, 168942708, Note_on_c, 1, 87, 0
2, 168967641, Note_on_c, 1, 87, 34
2, 168967649, Note_on_c, 1, 92, 0
2, 168978677, Note_on_c, 1, 92, 38
2, 168983586, Note_on_c, 1, 87, 0
2, 169010555, Note_on_c, 1, 87, 35
2, 169019088, Note_on_c, 1, 83, 0
2, 169027836, Note_on_c, 1, 83, 39
2, 169039954, Note_on_c, 1, 87, 0
2, 169062838, Note_on_c, 1, 87, 39
2, 169078503, Note_on_c, 1, 92, 0
2, 169082607, Note_on_c, 1, 39, 38
2, 169101655, Note_on_c, 1, 92, 42
2, 169120703, Note_on_c, 1, 44, 0
2, 169139751, Note_on_c, 1, 87, 0
2, 169159519, Note_on_c, 1, 87, 36
2, 169160318, Note_on_c, 1, 83, 0
2, 169161117, Note_on_c, 1, 83, 40
2, 169162011, Note_on_c, 1, 87, 0
2, 169190478, Note_on_c, 1, 87, 37
2, 169218137, Note_on_c, 1, 92, 0
2, 169245796, Note_on_c, 1, 92, 41
2, 169273541, Note_on_c, 1, 87, 0
2, 169294031, Note_on_c, 1, 87, 41
2, 169323556, Note_on_c, 1, 83, 0
2, 169350801, Note_on_c, 1, 83, 46
2, 169381318, Note_on_c, 1, 87, 0
2, 169410545, Note_on_c, 1, 87, 39
2, 169442052, Note_on_c, 1, 92, 0
2, 169473128, Note_on_c, 1, 92, 42
2, 169505493, Note_on_c, 1, 87, 0
2, 169505771, Note_on_c, 1, 87, 39
2, 169506353, Note_on_c, 1, 83, 0
2, 169508470, Note_on_c, 1, 83, 44
2, 169510033, Note_on_c, 1, 87, 0
2, 169513981, Note_on_c, 1, 87, 45
2, 169516394, Note_on_c, 1, 92, 0
2, 169524445, Note_on_c, 1, 44, 48
2, 169530111, Note_on_c, 1, 92, 48
2, 169535777, Note_on_c, 1, 46, 0
2, 169541443, Note_on_c, 1, 49, 0
2, 169547109, Note_on_c, 1, 51, 0
2, 169552775, Note_on_c, 1, 91, 0
2, 169577688, Note_on_c, 1, 91, 49
2, 169597153, Note_on_c, 1, 79, 0
2, 169616618, Note_on_c, 1, 79, 45
2, 169636173, Note_on_c, 1, 91, 0
2, 169661817, Note_on_c, 1, 91, 48
2, 169685673, Note_on_c, 1, 46, 60
2, 169703645, Note_on_c, 1, 49, 60
2, 169721617, Note_on_c, 1, 51, 60
2, 169739589, Note_on_c, 1, 51, 0
2, 169757561, Note_on_c, 1, 47, 0
2, 169775533, Note_on_c, 1, 92, 0
2, 169800184, Note_on_c, 1, 92, 48
2, 169806946, Note_on_c, 1, 80, 0
2, 169813708, Note_on_c, 1, 80, 45
2, 169820682, Note_on_c, 1, 92, 0
2, 169827656, Note_on_c, 1, 92, 48
2, 169836142, Note_on_c, 1, 47, 45
2, 169837742, Note_on_c, 1, 51, 45
2, 169839342, Note_on_c, 1, 52, 0
2, 169840942, Note_on_c, 1, 49, 0
2, 169842542, Note_on_c, 1, 92, 0
2, 169851080, Note_on_c, 1, 92, 49
2, 169858102, Note_on_c, 1, 80, 0
2, 169865124, Note_on_c, 1, 80, 45
2, 169872357, Note_on_c, 1, 92, 0
2, 169879590, Note_on_c, 1, 92, 49
2, 169889360, Note_on_c, 1, 49, 44
2, 169891984, Note_on_c, 1, 52, 44
2, 169894608, Note_on_c, 1, 59, 0
2, 169897232, Note_on_c, 1, 56, 0
2, 169899856, Note_on_c, 1, 80, 0
2, 169910432, Note_on_c, 1, 80, 45
2, 169918468, Note_on_c, 1, 92, 0
2, 169926504, Note_on_c, 1, 92, 49
2, 169934752, Note_on_c, 1, 87, 0
2, 169943000, Note_on_c, 1, 87, 47
2, 169951459, Note_on_c, 1, 83, 0
2, 169959918, Note_on_c, 1, 83, 45
2, 169968461, Note_on_c, 1, 80, 0
2, 169970043, Note_on_c, 1, 80, 42
2, 169988296, Note_on_c, 1, 56, 45
2, 170013480, Note_on_c, 1, 59, 45
2, 170038664, Note_on_c, 1, 63, 0
2, 170063848, Note_on_c, 1, 61, 0
2, 170089032, Note_on_c, 1, 58, 0
2, 170114216, Note_on_c, 1, 79, 0
2, 170116349, Note_on_c, 1, 79, 49
2, 170126150, Note_on_c, 1, 67, 0
2, 170135951, Note_on_c, 1, 67, 45
2, 170145963, Note_on_c, 1, 79, 0
2, 170155975, Note_on_c, 1, 79, 48
2, 170187590, Note_on_c, 1, 63, 60
2, 170209396, Note_on_c, 1, 61, 60
2, 170231202, Note_on_c, 1, 58, 60
2, 170253008, Note_on_c, 1, 59, 0
2, 170274814, Note_on_c, 1, 63, 0
2, 170296620, Note_on_c, 1, 80, 0
2, 170329156, Note_on_c, 1, 80, 48
2, 170339970, Note_on_c, 1, 68, 0
2, 170350784, Note_on_c, 1, 68, 45
2, 170361809, Note_on_c, 1, 80, 0
2, 170372834, Note_on_c, 1, 80, 48
2, 170389343, Note_on_c, 1, 63, 45
2, 170395042, Note_on_c, 1, 59, 45
2, 170400741, Note_on_c, 1, 61, 0
2, 170406440, Note_on_c, 1, 64, 0
2, 170412139, Note_on_c, 1, 80, 0
2, 170428833, Note_on_c, 1, 80, 49
2, 170439912, Note_on_c, 1, 68, 0
2, 170450991, Note_on_c, 1, 68, 45
2, 170462282, Note_on_c, 1, 80, 0
2, 170473573, Note_on_c, 1, 80, 49
2, 170491499, Note_on_c, 1, 64, 44
2, 170498222, Note_on_c, 1, 61, 44
2, 170504945, Note_on_c, 1, 68, 0
2, 170511668, Note_on_c, 1, 71, 0
2, 170518391, Note_on_c, 1, 80, 0
2, 170537124, Note_on_c, 1, 80, 45
2, 170549217, Note_on_c, 1, 92, 0
2, 170561310, Note_on_c, 1, 92, 49
2, 170573615, Note_on_c, 1, 87, 0
2, 170585920, Note_on_c, 1, 87, 47
2, 170598309, Note_on_c, 1, 83, 0
2, 170610698, Note_on_c, 1, 83, 45
2, 170623298, Note_on_c, 1, 80, 0
2, 170633118, Note_on_c, 1, 80, 42
2, 170659868, Note_on_c, 1, 71, 45
2, 170689368, Note_on_c, 1, 68, 45
2, 170718868, Note_on_c, 1, 73, 0
2, 170748368, Note_on_c, 1, 70, 0
2, 170777868, Note_on_c, 1, 75, 0
2, 170807368, Note_on_c, 1, 91, 0
2, 170817869, Note_on_c, 1, 91, 49
2, 170831721, Note_on_c, 1, 79, 0
2, 170845573, Note_on_c, 1, 79, 45
2, 170859509, Note_on_c, 1, 91, 0
2, 170873445, Note_on_c, 1, 91, 48
2, 170880177, Note_on_c, 1, 73, 60
2, 170905818, Note_on_c, 1, 70, 60
2, 170931459, Note_on_c, 1, 75, 60
2, 170957100, Note_on_c, 1, 71, 0
2, 170982741, Note_on_c, 1, 75, 0
2, 171008382, Note_on_c, 1, 92, 0
2, 171015909, Note_on_c, 1, 92, 48
2, 171030774, Note_on_c, 1, 80, 0
2, 171045639, Note_on_c, 1, 80, 45
2, 171060588, Note_on_c, 1, 92, 0
2, 171075537, Note_on_c, 1, 92, 48
2, 171100196, Note_on_c, 1, 75, 45
2, 171109994, Note_on_c, 1, 71, 45
2, 171119792, Note_on_c, 1, 73, 0
2, 171129590, Note_on_c, 1, 76, 0
2, 171139388, Note_on_c, 1, 92, 0
2, 171164238, Note_on_c, 1, 92, 49
2, 171179374, Note_on_c, 1, 80, 0
2, 171194510, Note_on_c, 1, 80, 45
2, 171209730, Note_on_c, 1, 92, 0
2, 171224950, Note_on_c, 1, 92, 49
2, 171250905, Note_on_c, 1, 76, 44
2, 171261727, Note_on_c, 1, 73, 44
2, 171272549, Note_on_c, 1, 68, 0
2, 171283371, Note_on_c, 1, 71, 0
2, 171294193, Note_on_c, 1, 80, 0
2, 171321082, Note_on_c, 1, 80, 45
2, 171337233, Note_on_c, 1, 92, 0
2, 171353384, Note_on_c, 1, 92, 49
2, 171369618, Note_on_c, 1, 87, 0
2, 171385852, Note_on_c, 1, 87, 47
2, 171402298, Note_on_c, 1, 83, 0
2, 171418744, Note_on_c, 1, 83, 45
2, 171435402, Note_on_c, 1, 80, 0
2, 171453590, Note_on_c, 1, 80, 42
2, 171456197, Note_on_c, 1, 71, 45
2, 171457245, Note_on_c, 1, 68, 45
2, 171458293, Note_on_c, 1, 75, 0
2, 171459341, Note_on_c, 1, 79, 0
2, 171460389, Note_on_c, 1, 82, 0
2, 171477574, Note_on_c, 1, 82, 66
2, 171493817, Note_on_c, 1, 83, 0
2, 171506211, Note_on_c, 1, 83, 71
2, 171521122, Note_on_c, 1, 85, 0
2, 171536033, Note_on_c, 1, 85, 72
2, 171551156, Note_on_c, 1, 87, 0
2, 171582226, Note_on_c, 1, 87, 74
2, 171598201, Note_on_c, 1, 88, 0
2, 171614176, Note_on_c, 1, 88, 75
2, 171630363, Note_on_c, 1, 85, 0
2, 171630910, Note_on_c, 1, 85, 78
2, 171648066, Note_on_c, 1, 87, 0
2, 171665222, Note_on_c, 1, 87, 74
2, 171682462, Note_on_c, 1, 88, 0
2, 171699702, Note_on_c, 1, 88, 81
2, 171717154, Note_on_c, 1, 91, 0
2, 171720044, Note_on_c, 1, 91, 82
2, 171738334, Note_on_c, 1, 92, 0
2, 171756624, Note_on_c, 1, 92, 84
2, 171775125, Note_on_c, 1, 94, 0
2, 171793626, Note_on_c, 1, 79, 77
2, 171812339, Note_on_c, 1, 94, 81
2, 171831052, Note_on_c, 1, 91, 0
2, 171849765, Note_on_c, 1, 75, 85
2, 171868562, Note_on_c, 1, 91, 83
2, 171887359, Note_on_c, 1, 80, 0
2, 171906156, Note_on_c, 1, 77, 0
2, 171924953, Note_on_c, 1, 74, 0
2, 171943750, Note_on_c, 1, 92, 0
2, 171948135, Note_on_c, 1, 92, 78
2, 171966391, Note_on_c, 1, 94, 0
2, 171969564, Note_on_c, 1, 94, 86
2, 171987277, Note_on_c, 1, 95, 0
2, 171989356, Note_on_c, 1, 95, 83
2, 172006518, Note_on_c, 1, 86, 0
2, 172023680, Note_on_c, 1, 86, 86
2, 172040926, Note_on_c, 1, 89, 0
2, 172042020, Note_on_c, 1, 89, 81
2, 172058721, Note_on_c, 1, 92, 0
2, 172058721, Note_on_c, 1, 92, 85
2, 172074873, Note_on_c, 1, 89, 0
2, 172106443, Note_on_c, 1, 89, 74
2, 172121918, Note_on_c, 1, 86, 0
2, 172152252, Note_on_c, 1, 86, 83
2, 172167168, Note_on_c, 1, 83, 0
2, 172196390, Note_on_c, 1, 83, 79
2, 172224404, Note_on_c, 1, 80, 97
2, 172251306, Note_on_c, 1, 77, 91
2, 172264429, Note_on_c, 1, 74, 97
2, 172277766, Note_on_c, 1, 75, 0
2, 172291103, Note_on_c, 1, 85, 0
2, 172316786, Note_on_c, 1, 85, 62
2, 172329347, Note_on_c, 1, 79, 0
2, 172341908, Note_on_c, 1, 79, 70
2, 172354555, Note_on_c, 1, 82, 0
2, 172367202, Note_on_c, 1, 82, 64
2, 172380064, Note_on_c, 1, 85, 0
2, 172392926, Note_on_c, 1, 85, 73
2, 172406003, Note_on_c, 1, 79, 0
2, 172419080, Note_on_c, 1, 79, 67
2, 172432244, Note_on_c, 1, 75, 86
2, 172445622, Note_on_c, 1, 76, 0
2, 172459000, Note_on_c, 1, 85, 0
2, 172472378, Note_on_c, 1, 85, 69
2, 172485971, Note_on_c, 1, 80, 0
2, 172499564, Note_on_c, 1, 80, 76
2, 172513244, Note_on_c, 1, 82, 0
2, 172526924, Note_on_c, 1, 82, 70
2, 172540818, Note_on_c, 1, 85, 0
2, 172554712, Note_on_c, 1, 85, 78
2, 172568821, Note_on_c, 1, 80, 0
2, 172582930, Note_on_c, 1, 80, 72
2, 172597126, Note_on_c, 1, 76, 102
2, 172611537, Note_on_c, 1, 67, 0
2, 172625948, Note_on_c, 1, 85, 0
2, 172647794, Note_on_c, 1, 85, 62
2, 172655318, Note_on_c, 1, 75, 0
2, 172662842, Note_on_c, 1, 75, 70
2, 172670583, Note_on_c, 1, 82, 0
2, 172693164, Note_on_c, 1, 82, 64
2, 172708091, Note_on_c, 1, 85, 0
2, 172723018, Note_on_c, 1, 85, 74
2, 172738159, Note_on_c, 1, 75, 0
2, 172753300, Note_on_c, 1, 75, 67
2, 172768528, Note_on_c, 1, 67, 86
2, 172783971, Note_on_c, 1, 68, 0
2, 172799414, Note_on_c, 1, 85, 0
2, 172814857, Note_on_c, 1, 85, 69
2, 172830515, Note_on_c, 1, 76, 0
2, 172846173, Note_on_c, 1, 76, 77
2, 172862045, Note_on_c, 1, 82, 0
2, 172877917, Note_on_c, 1, 82, 70
2, 172893876, Note_on_c, 1, 85, 0
2, 172909835, Note_on_c, 1, 85, 78
2, 172926009, Note_on_c, 1, 76, 0
2, 172942183, Note_on_c, 1, 76, 72
2, 172958571, Note_on_c, 1, 68, 102
2, 172975046, Note_on_c, 1, 75, 0
2, 172991521, Note_on_c, 1, 63, 0
2, 173007996, Note_on_c, 1, 85, 0
2, 173033208, Note_on_c, 1, 85, 62
2, 173042034, Note_on_c, 1, 79, 0
2, 173050860, Note_on_c, 1, 79, 68
2, 173059904, Note_on_c, 1, 82, 0
2, 173085853, Note_on_c, 1, 82, 64
2, 173102844, Note_on_c, 1, 85, 0
2, 173119835, Note_on_c, 1, 85, 71
2, 173137041, Note_on_c, 1, 79, 0
2, 173154247, Note_on_c, 1, 79, 67
2, 173171668, Note_on_c, 1, 63, 69
2, 173189176, Note_on_c, 1, 75, 86
2, 173206684, Note_on_c, 1, 64, 0
2, 173224192, Note_on_c, 1, 76, 0
2, 173241700, Note_on_c, 1, 85, 0
2, 173259208, Note_on_c, 1, 85, 69
2, 173276930, Note_on_c, 1, 80, 0
2, 173294652, Note_on_c, 1, 80, 74
2, 173312589, Note_on_c, 1, 82, 0
2, 173330526, Note_on_c, 1, 82, 70
2, 173348550, Note_on_c, 1, 85, 0
2, 173366574, Note_on_c, 1, 85, 77
2, 173384812, Note_on_c, 1, 80, 0
2, 173403050, Note_on_c, 1, 80, 72
2, 173421503, Note_on_c, 1, 76, 102
2, 173440043, Note_on_c, 1, 64, 80
2, 173458583, Note_on_c, 1, 82, 0
2, 173477389, Note_on_c, 1, 76, 0
2, 173477663, Note_on_c, 1, 64, 0
2, 173477937, Note_on_c, 1, 82, 69
2, 173478296, Note_on_c, 1, 80, 0
2, 173478655, Note_on_c, 1, 64, 64
2, 173479235, Note_on_c, 1, 76, 83
2, 173479815, Note_on_c, 1, 80, 80
2, 173480395, Note_on_c, 1, 82, 0
2, 173499944, Note_on_c, 1, 76, 0
2, 173518920, Note_on_c, 1, 64, 0
2, 173537896, Note_on_c, 1, 82, 70
2, 173556952, Note_on_c, 1, 85, 0
2, 173576008, Note_on_c, 1, 64, 64
2, 173595279, Note_on_c, 1, 76, 83
2, 173614550, Note_on_c, 1, 85, 80
2, 173633821, Note_on_c, 1, 82, 0
2, 173653092, Note_on_c, 1, 64, 0
2, 173672370, Note_on_c, 1, 76, 0
2, 173691648, Note_on_c, 1, 82, 70
2, 173711133, Note_on_c, 1, 80, 0
2, 173730618, Note_on_c, 1, 76, 85
2, 173750190, Note_on_c, 1, 64, 68
2, 173769762, Note_on_c, 1, 80, 81
2, 173789334, Note_on_c, 1, 73, 0
2, 173808906, Note_on_c, 1, 61, 0
2, 173828478, Note_on_c, 1, 82, 0
2, 173848050, Note_on_c, 1, 82, 68
2, 173867837, Note_on_c, 1, 80, 0
2, 173887624, Note_on_c, 1, 61, 63
2, 173907626, Note_on_c, 1, 73, 82
2, 173927628, Note_on_c, 1, 80, 82
2, 173947630, Note_on_c, 1, 70, 0
2, 173967632, Note_on_c, 1, 58, 0
2, 173987634, Note_on_c, 1, 85, 0
2, 174007636, Note_on_c, 1, 85, 71
2, 174027724, Note_on_c, 1, 82, 0
2, 174047812, Note_on_c, 1, 58, 63
2, 174068115, Note_on_c, 1, 70, 82
2, 174088418, Note_on_c, 1, 82, 81
2, 174108721, Note_on_c, 1, 67, 0
2, 174129024, Note_on_c, 1, 55, 0
2, 174149327, Note_on_c, 1, 88, 0
2, 174169630, Note_on_c, 1, 88, 70
2, 174190148, Note_on_c, 1, 85, 0
2, 174210666, Note_on_c, 1, 55, 75
2, 174231270, Note_on_c, 1, 67, 95
2, 174251874, Note_on_c, 1, 85, 82
2, 174272478, Note_on_c, 1, 64, 0
2, 174293082, Note_on_c, 1, 52, 0
2, 174313686, Note_on_c, 1, 88, 0
2, 174313969, Note_on_c, 1, 88, 69
2, 174326378, Note_on_c, 1, 85, 0
2, 174338787, Note_on_c, 1, 52, 63
2, 174351413, Note_on_c, 1, 64, 82
2, 174364039, Note_on_c, 1, 85, 77
2, 174376665, Note_on_c, 1, 61, 0
2, 174389291, Note_on_c, 1, 49, 0
2, 174401917, Note_on_c, 1, 88, 0
2, 174432677, Note_on_c, 1, 88, 69
2, 174450899, Note_on_c, 1, 85, 0
2, 174469121, Note_on_c, 1, 49, 58
2, 174487559, Note_on_c, 1, 61, 72
2, 174505997, Note_on_c, 1, 85, 77
2, 174524435, Note_on_c, 1, 46, 0
2, 174542873, Note_on_c, 1, 58, 0
2, 174561311, Note_on_c, 1, 88, 0
2, 174579749, Note_on_c, 1, 88, 69
2, 174598274, Note_on_c, 1, 85, 0
2, 174616799, Note_on_c, 1, 58, 88
2, 174635540, Note_on_c, 1, 46, 59
2, 174654281, Note_on_c, 1, 85, 76
2, 174673022, Note_on_c, 1, 57, 0
2, 174691763, Note_on_c, 1, 45, 0
2, 174710504, Note_on_c, 1, 88, 0
2, 174732862, Note_on_c, 1, 88, 69
2, 174756948, Note_on_c, 1, 85, 0
2, 174778016, Note_on_c, 1, 85, 73
2, 174800833, Note_on_c, 1, 88, 0
2, 174812641, Note_on_c, 1, 88, 69
2, 174835545, Note_on_c, 1, 85, 0
2, 174838123, Note_on_c, 1, 85, 71
2, 174863474, Note_on_c, 1, 88, 0
2, 174881981, Note_on_c, 1, 88, 69
2, 174903810, Note_on_c, 1, 85, 0
2, 174932581, Note_on_c, 1, 85, 71
2, 174957480, Note_on_c, 1, 88, 0
2, 174985461, Note_on_c, 1, 88, 69
2, 175007592, Note_on_c, 1, 85, 0
2, 175018646, Note_on_c, 1, 85, 71
2, 175040238, Note_on_c, 1, 88, 0
2, 175070272, Note_on_c, 1, 88, 69
2, 175096435, Note_on_c, 1, 85, 0
2, 175120015, Note_on_c, 1, 85, 74
2, 175142663, Note_on_c, 1, 88, 0
2, 175173464, Note_on_c, 1, 88, 69
2, 175199177, Note_on_c, 1, 85, 0
2, 175200053, Note_on_c, 1, 85, 75
2, 175223882, Note_on_c, 1, 88, 0
2, 175253844, Note_on_c, 1, 88, 69
2, 175281339, Note_on_c, 1, 85, 0
2, 175312684, Note_on_c, 1, 85, 75
2, 175336815, Note_on_c, 1, 88, 0
2, 175340938, Note_on_c, 1, 88, 69
2, 175363781, Note_on_c, 1, 85, 0
2, 175385589, Note_on_c, 1, 85, 78
2, 175410769, Note_on_c, 1, 88, 0
2, 175433659, Note_on_c, 1, 88, 77
2, 175461879, Note_on_c, 1, 85, 0
2, 175464699, Note_on_c, 1, 45, 90
2, 175489382, Note_on_c, 1, 57, 106
2, 175514065, Note_on_c, 1, 85, 94
2, 175538748, Note_on_c, 1, 71, 0
2, 175563431, Note_on_c, 1, 52, 0
2, 175568132, Note_on_c, 1, 52, 52
2, 175581009, Note_on_c, 1, 71, 64
2, 175593886, Note_on_c, 1, 76, 0
2, 175606763, Note_on_c, 1, 44, 0
2, 175619640, Note_on_c, 1, 44, 62
2, 175632736, Note_on_c, 1, 76, 80
2, 175645832, Note_on_c, 1, 71, 0
2, 175658928, Note_on_c, 1, 52, 0
2, 175661523, Note_on_c, 1, 52, 52
2, 175683878, Note_on_c, 1, 71, 66
2, 175706233, Note_on_c, 1, 78, 0
2, 175728588, Note_on_c, 1, 44, 0
2, 175750943, Note_on_c, 1, 44, 64
2, 175773514, Note_on_c, 1, 78, 80
2, 175796085, Note_on_c, 1, 71, 0
2, 175818656, Note_on_c, 1, 52, 0
2, 175841227, Note_on_c, 1, 52, 52
2, 175864013, Note_on_c, 1, 71, 63
2, 175886799, Note_on_c, 1, 80, 0
2, 175909585, Note_on_c, 1, 44, 0
2, 175932371, Note_on_c, 1, 44, 68
2, 175955245, Note_on_c, 1, 80, 83
2, 175978119, Note_on_c, 1, 71, 0
2, 176000993, Note_on_c, 1, 52, 0
2, 176002394, Note_on_c, 1, 52, 51
2, 176013781, Note_on_c, 1, 71, 62
2, 176025168, Note_on_c, 1, 76, 0
2, 176036555, Note_on_c, 1, 44, 0
2, 176047942, Note_on_c, 1, 44, 58
2, 176059549, Note_on_c, 1, 76, 80
2, 176071156, Note_on_c, 1, 71, 0
2, 176082763, Note_on_c, 1, 52, 0
2, 176087747, Note_on_c, 1, 52, 52
2, 176113979, Note_on_c, 1, 71, 63
2, 176140211, Note_on_c, 1, 68, 0
2, 176166443, Note_on_c, 1, 56, 0
2, 176192675, Note_on_c, 1, 56, 52
2, 176219122, Note_on_c, 1, 68, 63
2, 176245569, Note_on_c, 1, 71, 0
2, 176272016, Note_on_c, 1, 52, 0
2, 176298463, Note_on_c, 1, 52, 52
2, 176325125, Note_on_c, 1, 71, 63
2, 176351787, Note_on_c, 1, 76, 0
2, 176378449, Note_on_c, 1, 44, 0
2, 176405111, Note_on_c, 1, 44, 64
2, 176431859, Note_on_c, 1, 76, 83
2, 176458607, Note_on_c, 1, 71, 0
2, 176485355, Note_on_c, 1, 52, 0
2, 176497675, Note_on_c, 1, 52, 52
2, 176515977, Note_on_c, 1, 71, 66
2, 176534279, Note_on_c, 1, 76, 0
2, 176552581, Note_on_c, 1, 44, 0
2, 176570883, Note_on_c, 1, 44, 62
2, 176589403, Note_on_c, 1, 76, 81
2, 176607923, Note_on_c, 1, 71, 0
2, 176626443, Note_on_c, 1, 52, 0
2, 176636540, Note_on_c, 1, 52, 52
2, 176660972, Note_on_c, 1, 71, 66
2, 176685404, Note_on_c, 1, 78, 0
2, 176709836, Note_on_c, 1, 44, 0
2, 176734268, Note_on_c, 1, 44, 64
2, 176758916, Note_on_c, 1, 78, 83
2, 176783564, Note_on_c, 1, 71, 0
2, 176808212, Note_on_c, 1, 52, 0
2, 176832860, Note_on_c, 1, 52, 52
2, 176857724, Note_on_c, 1, 71, 66
2, 176882588, Note_on_c, 1, 80, 0
2, 176907452, Note_on_c, 1, 44, 0
2, 176932316, Note_on_c, 1, 44, 68
2, 176957268, Note_on_c, 1, 80, 84
2, 176982220, Note_on_c, 1, 71, 0
2, 177007172, Note_on_c, 1, 52, 0
2, 177009519, Note_on_c, 1, 52, 51
2, 177019776, Note_on_c, 1, 71, 64
2, 177030033, Note_on_c, 1, 76, 0
2, 177040290, Note_on_c, 1, 44, 0
2, 177050547, Note_on_c, 1, 44, 58
2, 177060897, Note_on_c, 1, 76, 80
2, 177071247, Note_on_c, 1, 71, 0
2, 177081597, Note_on_c, 1, 52, 0
2, 177087517, Note_on_c, 1, 52, 52
2, 177115942, Note_on_c, 1, 71, 66
2, 177144367, Note_on_c, 1, 68, 0
2, 177172792, Note_on_c, 1, 56, 0
2, 177201217, Note_on_c, 1, 56, 52
2, 177229729, Note_on_c, 1, 68, 66
2, 177258241, Note_on_c, 1, 71, 0
2, 177286753, Note_on_c, 1, 52, 0
2, 177315265, Note_on_c, 1, 52, 52
2, 177343992, Note_on_c, 1, 71, 66
2, 177372719, Note_on_c, 1, 76, 0
2, 177401446, Note_on_c, 1, 44, 0
2, 177430173, Note_on_c, 1, 44, 64
2, 177459114, Note_on_c, 1, 76, 83
2, 177488055, Note_on_c, 1, 63, 0
2, 177516996, Note_on_c, 1, 51, 0
2, 177523452, Note_on_c, 1, 51, 52
2, 177533956, Note_on_c, 1, 63, 64
2, 177544460, Note_on_c, 1, 68, 0
2, 177554964, Note_on_c, 1, 44, 0
2, 177565468, Note_on_c, 1, 44, 62
2, 177576066, Note_on_c, 1, 68, 80
2, 177586664, Note_on_c, 1, 63, 0
2, 177597262, Note_on_c, 1, 51, 0
2, 177601642, Note_on_c, 1, 51, 52
2, 177628280, Note_on_c, 1, 63, 66
2, 177654918, Note_on_c, 1, 70, 0
2, 177681556, Note_on_c, 1, 44, 0
2, 177708194, Note_on_c, 1, 44, 64
2, 177734920, Note_on_c, 1, 70, 80
2, 177761646, Note_on_c, 1, 63, 0
2, 177788372, Note_on_c, 1, 51, 0
2, 177815098, Note_on_c, 1, 51, 52
2, 177842040, Note_on_c, 1, 63, 63
2, 177868982, Note_on_c, 1, 71, 0
2, 177895924, Note_on_c, 1, 44, 0
2, 177922866, Note_on_c, 1, 44, 68
2, 177950023, Note_on_c, 1, 71, 83
2, 177977180, Note_on_c, 1, 63, 0
2, 178004337, Note_on_c, 1, 51, 0
2, 178014407, Note_on_c, 1, 51, 51
2, 178030308, Note_on_c, 1, 63, 62
2, 178046209, Note_on_c, 1, 68, 0
2, 178062110, Note_on_c, 1, 44, 0
2, 178078011, Note_on_c, 1, 44, 58
2, 178094004, Note_on_c, 1, 68, 80
2, 178109997, Note_on_c, 1, 63, 0
2, 178125990, Note_on_c, 1, 51, 0
2, 178139618, Note_on_c, 1, 51, 52
2, 178170108, Note_on_c, 1, 63, 63
2, 178200598, Note_on_c, 1, 59, 0
2, 178231088, Note_on_c, 1, 56, 0
2, 178261578, Note_on_c, 1, 56, 52
2, 178292155, Note_on_c, 1, 59, 63
2, 178322732, Note_on_c, 1, 63, 0
2, 178353309, Note_on_c, 1, 51, 0
2, 178383886, Note_on_c, 1, 51, 52
2, 178414678, Note_on_c, 1, 63, 63
2, 178445470, Note_on_c, 1, 68, 0
2, 178476262, Note_on_c, 1, 44, 0
2, 178507054, Note_on_c, 1, 44, 64
2, 178538060, Note_on_c, 1, 68, 83
2, 178569066, Note_on_c, 1, 63, 0
2, 178600072, Note_on_c, 1, 51, 0
2, 178620856, Note_on_c, 1, 51, 52
2, 178643492, Note_on_c, 1, 63, 66
2, 178666128, Note_on_c, 1, 68, 0
2, 178688764, Note_on_c, 1, 44, 0
2, 178711400, Note_on_c, 1, 44, 62
2, 178734254, Note_on_c, 1, 68, 81
2, 178757108, Note_on_c, 1, 63, 0
2, 178779962, Note_on_c, 1, 51, 0
2, 178798676, Note_on_c, 1, 51, 52
2, 178827392, Note_on_c, 1, 63, 66
2, 178856108, Note_on_c, 1, 70, 0
2, 178884824, Note_on_c, 1, 44, 0
2, 178913540, Note_on_c, 1, 44, 64
2, 178942472, Note_on_c, 1, 70, 83
2, 178971404, Note_on_c, 1, 63, 0
2, 179000336, Note_on_c, 1, 51, 0
2, 179029268, Note_on_c, 1, 51, 52
2, 179058287, Note_on_c, 1, 63, 66
2, 179087306, Note_on_c, 1, 71, 0
2, 179116325, Note_on_c, 1, 44, 0
2, 179144586, Note_on_c, 1, 44, 68
2, 179176625, Note_on_c, 1, 71, 84
2, 179208664, Note_on_c, 1, 63, 0
2, 179240703, Note_on_c, 1, 51, 0
2, 179254554, Note_on_c, 1, 51, 51
2, 179269227, Note_on_c, 1, 63, 64
2, 179283900, Note_on_c, 1, 68, 0
2, 179298573, Note_on_c, 1, 44, 0
2, 179313246, Note_on_c, 1, 44, 58
2, 179328141, Note_on_c, 1, 68, 80
2, 179343036, Note_on_c, 1, 63, 0
2, 179357931, Note_on_c, 1, 51, 0
2, 179369746, Note_on_c, 1, 51, 52
2, 179399522, Note_on_c, 1, 63, 66
2, 179429298, Note_on_c, 1, 59, 0
2, 179459074, Note_on_c, 1, 56, 0
2, 179488850, Note_on_c, 1, 56, 52
2, 179518842, Note_on_c, 1, 59, 66
2, 179548834, Note_on_c, 1, 63, 0
2, 179578826, Note_on_c, 1, 51, 0
2, 179608818, Note_on_c, 1, 51, 52
2, 179638897, Note_on_c, 1, 63, 66
2, 179668976, Note_on_c, 1, 68, 0
2, 179699055, Note_on_c, 1, 44, 0
2, 179729134, Note_on_c, 1, 44, 64
2, 179759429, Note_on_c, 1, 68, 83
2, 179789724, Note_on_c, 1, 51, 0
2, 179820019, Note_on_c, 1, 61, 0
2, 179850794, Note_on_c, 1, 61, 69
2, 179851361, Note_on_c, 1, 55, 0
2, 179851928, Note_on_c, 1, 55, 78
2, 179852709, Note_on_c, 1, 58, 0
2, 179853490, Note_on_c, 1, 58, 69
2, 179854358, Note_on_c, 1, 61, 0
2, 179855226, Note_on_c, 1, 61, 80
2, 179856309, Note_on_c, 1, 55, 0
2, 179857392, Note_on_c, 1, 55, 69
2, 179858689, Note_on_c, 1, 51, 89
2, 179860073, Note_on_c, 1, 52, 0
2, 179861457, Note_on_c, 1, 61, 0
2, 179862841, Note_on_c, 1, 61, 70
2, 179864440, Note_on_c, 1, 56, 0
2, 179866039, Note_on_c, 1, 56, 77
2, 179867853, Note_on_c, 1, 58, 0
2, 179869667, Note_on_c, 1, 58, 69
2, 179871567, Note_on_c, 1, 61, 0
2, 179873467, Note_on_c, 1, 61, 80
2, 179875582, Note_on_c, 1, 56, 0
2, 179877697, Note_on_c, 1, 56, 70
2, 179880027, Note_on_c, 1, 52, 97
2, 179882443, Note_on_c, 1, 58, 0
2, 179903038, Note_on_c, 1, 52, 0
2, 179921224, Note_on_c, 1, 58, 69
2, 179939496, Note_on_c, 1, 56, 0
2, 179957768, Note_on_c, 1, 52, 83
2, 179976261, Note_on_c, 1, 56, 80
2, 179994754, Note_on_c, 1, 58, 0
2, 180016093, Note_on_c, 1, 52, 0
2, 180018946, Note_on_c, 1, 58, 70
2, 180021879, Note_on_c, 1, 61, 0
2, 180024812, Note_on_c, 1, 52, 83
2, 180027959, Note_on_c, 1, 61, 80
2, 180031106, Note_on_c, 1, 58, 0
2, 180034253, Note_on_c, 1, 52, 0
2, 180037408, Note_on_c, 1, 58, 70
2, 180040770, Note_on_c, 1, 56, 0
2, 180044132, Note_on_c, 1, 52, 85
2, 180047581, Note_on_c, 1, 56, 81
2, 180051030, Note_on_c, 1, 49, 0
2, 180054479, Note_on_c, 1, 61, 0
2, 180057928, Note_on_c, 1, 61, 68
2, 180061592, Note_on_c, 1, 58, 0
2, 180065256, Note_on_c, 1, 49, 82
2, 180069134, Note_on_c, 1, 58, 82
2, 180073012, Note_on_c, 1, 46, 0
2, 180076890, Note_on_c, 1, 64, 0
2, 180080768, Note_on_c, 1, 64, 71
2, 180084733, Note_on_c, 1, 61, 0
2, 180088698, Note_on_c, 1, 46, 82
2, 180092878, Note_on_c, 1, 61, 81
2, 180097058, Note_on_c, 1, 43, 0
2, 180101238, Note_on_c, 1, 67, 0
2, 180105418, Note_on_c, 1, 67, 70
2, 180109812, Note_on_c, 1, 64, 0
2, 180114206, Note_on_c, 1, 43, 95
2, 180118815, Note_on_c, 1, 64, 82
2, 180123424, Note_on_c, 1, 40, 0
2, 180128033, Note_on_c, 1, 70, 0
2, 180129383, Note_on_c, 1, 70, 77
2, 180159109, Note_on_c, 1, 67, 0
2, 180188835, Note_on_c, 1, 40, 82
2, 180218651, Note_on_c, 1, 67, 84
2, 180248467, Note_on_c, 1, 37, 0
2, 180278283, Note_on_c, 1, 73, 0
2, 180310341, Note_on_c, 1, 73, 78
2, 180312670, Note_on_c, 1, 70, 0
2, 180314999, Note_on_c, 1, 37, 72
2, 180317416, Note_on_c, 1, 70, 89
2, 180319833, Note_on_c, 1, 46, 0
2, 180322250, Note_on_c, 1, 34, 0
2, 180324667, Note_on_c, 1, 76, 0
2, 180327084, Note_on_c, 1, 76, 78
2, 180329717, Note_on_c, 1, 73, 0
2, 180332350, Note_on_c, 1, 34, 74
2, 180335199, Note_on_c, 1, 46, 88
2, 180338048, Note_on_c, 1, 73, 95
2, 180340897, Note_on_c, 1, 33, 0
2, 180343746, Note_on_c, 1, 45, 0
2, 180346595, Note_on_c, 1, 76, 0
2, 180369973, Note_on_c, 1, 76, 67
2, 180377732, Note_on_c, 1, 73, 0
2, 180383136, Note_on_c, 1, 73, 72
2, 180389805, Note_on_c, 1, 76, 0
2, 180419329, Note_on_c, 1, 76, 67
2, 180426084, Note_on_c, 1, 73, 0
2, 180428920, Note_on_c, 1, 73, 73
2, 180437919, Note_on_c, 1, 76, 0
2, 180441067, Note_on_c, 1, 76, 67
2, 180446799, Note_on_c, 1, 73, 0
2, 180476360, Note_on_c, 1, 73, 73
2, 180484933, Note_on_c, 1, 76, 0
2, 180513883, Note_on_c, 1, 76, 67
2, 180520045, Note_on_c, 1, 73, 0
2, 180531826, Note_on_c, 1, 73, 73
2, 180537474, Note_on_c, 1, 76, 0
2, 180568452, Note_on_c, 1, 76, 67
2, 180578263, Note_on_c, 1, 73, 0
2, 180586460, Note_on_c, 1, 73, 73
2, 180593139, Note_on_c, 1, 76, 0
2, 180624909, Note_on_c, 1, 76, 67
2, 180634424, Note_on_c, 1, 73, 0
2, 180636064, Note_on_c, 1, 73, 73
2, 180643770, Note_on_c, 1, 76, 0
2, 180657966, Note_on_c, 1, 76, 67
2, 180669084, Note_on_c, 1, 73, 0
2, 180684765, Note_on_c, 1, 73, 74
2, 180692772, Note_on_c, 1, 76, 0
2, 180699202, Note_on_c, 1, 76, 67
2, 180705973, Note_on_c, 1, 73, 0
2, 180728864, Note_on_c, 1, 73, 77
2, 180737895, Note_on_c, 1, 76, 0
2, 180761996, Note_on_c, 1, 76, 67
2, 180773840, Note_on_c, 1, 73, 0
2, 180793615, Note_on_c, 1, 45, 106
2, 180802179, Note_on_c, 1, 33, 90
2, 180810743, Note_on_c, 1, 73, 92
2, 180819307, Note_on_c, 1, 59, 0
2, 180827871, Note_on_c, 1, 40, 0
2, 180834035, Note_on_c, 1, 40, 52
2, 180864366, Note_on_c, 1, 59, 64
2, 180894697, Note_on_c, 1, 64, 0
2, 180925028, Note_on_c, 1, 32, 0
2, 180955359, Note_on_c, 1, 32, 62
2, 180985909, Note_on_c, 1, 64, 80
2, 181016459, Note_on_c, 1, 59, 0
2, 181047009, Note_on_c, 1, 40, 0
2, 181050442, Note_on_c, 1, 40, 52
2, 181056182, Note_on_c, 1, 59, 66
2, 181061922, Note_on_c, 1, 66, 0
2, 181067662, Note_on_c, 1, 32, 0
2, 181073402, Note_on_c, 1, 32, 64
2, 181079358, Note_on_c, 1, 66, 80
2, 181085314, Note_on_c, 1, 59, 0
2, 181091270, Note_on_c, 1, 40, 0
2, 181097226, Note_on_c, 1, 40, 52
2, 181103398, Note_on_c, 1, 59, 63
2, 181109570, Note_on_c, 1, 68, 0
2, 181115742, Note_on_c, 1, 32, 0
2, 181121914, Note_on_c, 1, 32, 68
2, 181128174, Note_on_c, 1, 68, 83
2, 181134434, Note_on_c, 1, 59, 0
2, 181140694, Note_on_c, 1, 40, 0
2, 181143280, Note_on_c, 1, 40, 51
2, 181172467, Note_on_c, 1, 59, 62
2, 181201654, Note_on_c, 1, 64, 0
2, 181230841, Note_on_c, 1, 32, 0
2, 181260028, Note_on_c, 1, 32, 58
2, 181289307, Note_on_c, 1, 64, 80
2, 181318586, Note_on_c, 1, 59, 0
2, 181347865, Note_on_c, 1, 40, 0
2, 181354530, Note_on_c, 1, 40, 52
2, 181364770, Note_on_c, 1, 59, 63
2, 181375010, Note_on_c, 1, 56, 0
2, 181385250, Note_on_c, 1, 44, 0
2, 181395490, Note_on_c, 1, 44, 52
2, 181405817, Note_on_c, 1, 56, 63
2, 181416144, Note_on_c, 1, 59, 0
2, 181426471, Note_on_c, 1, 40, 0
2, 181436798, Note_on_c, 1, 40, 52
2, 181447340, Note_on_c, 1, 59, 63
2, 181457882, Note_on_c, 1, 64, 0
2, 181468424, Note_on_c, 1, 32, 0
2, 181478966, Note_on_c, 1, 32, 64
2, 181489723, Note_on_c, 1, 64, 83
2, 181500480, Note_on_c, 1, 59, 0
2, 181511237, Note_on_c, 1, 40, 0
2, 181524647, Note_on_c, 1, 40, 52
2, 181527518, Note_on_c, 1, 59, 66
2, 181530389, Note_on_c, 1, 64, 0
2, 181533260, Note_on_c, 1, 32, 0
2, 181536131, Note_on_c, 1, 32, 62
2, 181539220, Note_on_c, 1, 64, 81
2, 181542309, Note_on_c, 1, 59, 0
2, 181545398, Note_on_c, 1, 40, 0
2, 181556219, Note_on_c, 1, 40, 52
2, 181564167, Note_on_c, 1, 59, 66
2, 181572115, Note_on_c, 1, 66, 0
2, 181580063, Note_on_c, 1, 32, 0
2, 181588011, Note_on_c, 1, 32, 64
2, 181596047, Note_on_c, 1, 66, 83
2, 181604083, Note_on_c, 1, 59, 0
2, 181612119, Note_on_c, 1, 40, 0
2, 181620155, Note_on_c, 1, 40, 52
2, 181628408, Note_on_c, 1, 59, 66
2, 181636661, Note_on_c, 1, 68, 0
2, 181644914, Note_on_c, 1, 32, 0
2, 181653167, Note_on_c, 1, 32, 68
2, 181661636, Note_on_c, 1, 68, 84
2, 181670105, Note_on_c, 1, 59, 0
2, 181678574, Note_on_c, 1, 40, 0
2, 181682232, Note_on_c, 1, 40, 51
2, 181710411, Note_on_c, 1, 59, 64
2, 181738590, Note_on_c, 1, 64, 0
2, 181766769, Note_on_c, 1, 32, 0
2, 181794948, Note_on_c, 1, 32, 58
2, 181823220, Note_on_c, 1, 64, 80
2, 181851492, Note_on_c, 1, 59, 0
2, 181879764, Note_on_c, 1, 40, 0
2, 181887487, Note_on_c, 1, 40, 52
2, 181899792, Note_on_c, 1, 59, 66
2, 181912097, Note_on_c, 1, 56, 0
2, 181924402, Note_on_c, 1, 44, 0
2, 181936707, Note_on_c, 1, 44, 52
2, 181949099, Note_on_c, 1, 56, 66
2, 181961491, Note_on_c, 1, 59, 0
2, 181973883, Note_on_c, 1, 40, 0
2, 181986275, Note_on_c, 1, 40, 52
2, 181998882, Note_on_c, 1, 59, 66
2, 182011489, Note_on_c, 1, 64, 0
2, 182024096, Note_on_c, 1, 32, 0
2, 182036703, Note_on_c, 1, 32, 64
2, 182049525, Note_on_c, 1, 64, 83
2, 182062347, Note_on_c, 1, 51, 0
2, 182075169, Note_on_c, 1, 39, 0
2, 182083459, Note_on_c, 1, 39, 52
2, 182111917, Note_on_c, 1, 51, 64
2, 182140375, Note_on_c, 1, 56, 0
2, 182168833, Note_on_c, 1, 32, 0
2, 182197291, Note_on_c, 1, 32, 62
2, 182225971, Note_on_c, 1, 56, 80
2, 182254651, Note_on_c, 1, 51, 0
2, 182283331, Note_on_c, 1, 39, 0
2, 182290363, Note_on_c, 1, 39, 52
2, 182301699, Note_on_c, 1, 51, 66
2, 182313035, Note_on_c, 1, 58, 0
2, 182324371, Note_on_c, 1, 32, 0
2, 182335707, Note_on_c, 1, 32, 64
2, 182347258, Note_on_c, 1, 58, 80
2, 182358809, Note_on_c, 1, 51, 0
2, 182370360, Note_on_c, 1, 39, 0
2, 182381911, Note_on_c, 1, 39, 52
2, 182393550, Note_on_c, 1, 51, 63
2, 182405189, Note_on_c, 1, 59, 0
2, 182416828, Note_on_c, 1, 32, 0
2, 182428467, Note_on_c, 1, 32, 68
2, 182440321, Note_on_c, 1, 59, 83
2, 182452175, Note_on_c, 1, 51, 0
2, 182464029, Note_on_c, 1, 39, 0
2, 182476595, Note_on_c, 1, 39, 51
2, 182477399, Note_on_c, 1, 51, 62
2, 182478203, Note_on_c, 1, 56, 0
2, 182479007, Note_on_c, 1, 32, 0
2, 182479811, Note_on_c, 1, 32, 58
2, 182480835, Note_on_c, 1, 56, 79
2, 182481859, Note_on_c, 1, 51, 0
2, 182482883, Note_on_c, 1, 39, 0
2, 182498063, Note_on_c, 1, 39, 52
2, 182512433, Note_on_c, 1, 51, 63
2, 182526803, Note_on_c, 1, 47, 0
2, 182541173, Note_on_c, 1, 44, 0
2, 182555543, Note_on_c, 1, 44, 52
2, 182570000, Note_on_c, 1, 47, 63
2, 182584457, Note_on_c, 1, 51, 0
2, 182598914, Note_on_c, 1, 39, 0
2, 182613371, Note_on_c, 1, 39, 52
2, 182628043, Note_on_c, 1, 51, 63
2, 182642715, Note_on_c, 1, 56, 0
2, 182657387, Note_on_c, 1, 32, 0
2, 182672059, Note_on_c, 1, 32, 64
2, 182686946, Note_on_c, 1, 56, 83
2, 182701833, Note_on_c, 1, 51, 0
2, 182716720, Note_on_c, 1, 39, 0
2, 182738595, Note_on_c, 1, 39, 52
2, 182745801, Note_on_c, 1, 51, 66
2, 182753007, Note_on_c, 1, 56, 0
2, 182760213, Note_on_c, 1, 32, 0
2, 182767419, Note_on_c, 1, 32, 62
2, 182774843, Note_on_c, 1, 56, 81
2, 182782267, Note_on_c, 1, 51, 0
2, 182789691, Note_on_c, 1, 39, 0
2, 182809009, Note_on_c, 1, 39, 52
2, 182821119, Note_on_c, 1, 51, 66
2, 182833229, Note_on_c, 1, 58, 0
2, 182845339, Note_on_c, 1, 32, 0
2, 182857449, Note_on_c, 1, 32, 64
2, 182869775, Note_on_c, 1, 58, 83
2, 182882101, Note_on_c, 1, 51, 0
2, 182894427, Note_on_c, 1, 39, 0
2, 182906753, Note_on_c, 1, 39, 52
2, 182919167, Note_on_c, 1, 51, 66
2, 182931581, Note_on_c, 1, 59, 0
2, 182943995, Note_on_c, 1, 32, 0
2, 182956409, Note_on_c, 1, 32, 68
2, 182969039, Note_on_c, 1, 59, 84
2, 182981669, Note_on_c, 1, 51, 0
2, 182994299, Note_on_c, 1, 39, 0
2, 183006663, Note_on_c, 1, 39, 51
2, 183039258, Note_on_c, 1, 51, 64
2, 183071853, Note_on_c, 1, 56, 0
2, 183104448, Note_on_c, 1, 32, 0
2, 183137043, Note_on_c, 1, 32, 58
2, 183137092, Note_on_c, 1, 56, 80
2, 183137141, Note_on_c, 1, 51, 0
2, 183137190, Note_on_c, 1, 39, 0
2, 183151035, Note_on_c, 1, 39, 52
2, 183164919, Note_on_c, 1, 51, 66
2, 183178803, Note_on_c, 1, 47, 0
2, 183192687, Note_on_c, 1, 44, 0
2, 183206571, Note_on_c, 1, 44, 52
2, 183220670, Note_on_c, 1, 47, 66
2, 183234769, Note_on_c, 1, 51, 0
2, 183248868, Note_on_c, 1, 39, 0
2, 183262967, Note_on_c, 1, 39, 52
2, 183277154, Note_on_c, 1, 51, 66
2, 183291341, Note_on_c, 1, 56, 0
2, 183305528, Note_on_c, 1, 32, 0
2, 183319715, Note_on_c, 1, 32, 64
2, 183334118, Note_on_c, 1, 56, 83
2, 183348521, Note_on_c, 1, 39, 0
2, 183378549, Note_on_c, 1, 39, 40
2, 183394503, Note_on_c, 1, 37, 0
2, 183421220, Note_on_c, 1, 37, 42
2, 183449898, Note_on_c, 1, 39, 0
2, 183471458, Note_on_c, 1, 39, 45
2, 183502757, Note_on_c, 1, 34, 0
2, 183533816, Note_on_c, 1, 34, 40
2, 183534185, Note_on_c, 1, 35, 0
2, 183540892, Note_on_c, 1, 35, 40
2, 183543967, Note_on_c, 1, 37, 0
2, 183555330, Note_on_c, 1, 37, 42
2, 183583093, Note_on_c, 1, 39, 0
2, 183610856, Note_on_c, 1, 39, 39
2, 183639069, Note_on_c, 1, 40, 0
2, 183639839, Note_on_c, 1, 40, 41
2, 183645477, Note_on_c, 1, 39, 0
2, 183651115, Note_on_c, 1, 39, 42
2, 183657066, Note_on_c, 1, 37, 0
2, 183663017, Note_on_c, 1, 37, 42
2, 183669282, Note_on_c, 1, 35, 0
2, 183675547, Note_on_c, 1, 35, 42
2, 183682253, Note_on_c, 1, 34, 0
2, 183688959, Note_on_c, 1, 34, 42
2, 183695978, Note_on_c, 1, 35, 0
2, 183701204, Note_on_c, 1, 35, 41
2, 183732500, Note_on_c, 1, 37, 0
2, 183742764, Note_on_c, 1, 37, 41
2, 183754810, Note_on_c, 1, 39, 0
2, 183766856, Note_on_c, 1, 39, 41
2, 183779211, Note_on_c, 1, 41, 0
2, 183791566, Note_on_c, 1, 41, 41
2, 183804231, Note_on_c, 1, 42, 0
2, 183816896, Note_on_c, 1, 42, 41
2, 183829999, Note_on_c, 1, 43, 0
2, 183843102, Note_on_c, 1, 43, 42
2, 183856515, Note_on_c, 1, 44, 0
2, 183884207, Note_on_c, 1, 44, 39
2, 183898652, Note_on_c, 1, 46, 0
2, 183928391, Note_on_c, 1, 46, 39
2, 183943865, Note_on_c, 1, 47, 0
2, 183975659, Note_on_c, 1, 47, 40
2, 183992159, Note_on_c, 1, 49, 0
2, 183993235, Note_on_c, 1, 49, 41
2, 184010758, Note_on_c, 1, 51, 0
2, 184013877, Note_on_c, 1, 51, 41
2, 184032420, Note_on_c, 1, 52, 0
2, 184037576, Note_on_c, 1, 52, 42
2, 184057136, Note_on_c, 1, 54, 0
2, 184063034, Note_on_c, 1, 54, 39
2, 184082319, Note_on_c, 1, 55, 0
2, 184101604, Note_on_c, 1, 55, 41
2, 184121324, Note_on_c, 1, 56, 0
2, 184141044, Note_on_c, 1, 56, 42
2, 184161070, Note_on_c, 1, 58, 0
2, 184181096, Note_on_c, 1, 58, 42
2, 184201429, Note_on_c, 1, 59, 0
2, 184221762, Note_on_c, 1, 59, 44
2, 184242530, Note_on_c, 1, 61, 0
2, 184263298, Note_on_c, 1, 61, 45
2, 184284373, Note_on_c, 1, 63, 0
2, 184305448, Note_on_c, 1, 63, 45
2, 184326958, Note_on_c, 1, 64, 0
2, 184348468, Note_on_c, 1, 64, 45
2, 184370285, Note_on_c, 1, 66, 0
2, 184396418, Note_on_c, 1, 66, 45
2, 184420522, Note_on_c, 1, 67, 0
2, 184422925, Note_on_c, 1, 67, 44
2, 184449295, Note_on_c, 1, 68, 0
2, 184460653, Note_on_c, 1, 68, 44
2, 184489141, Note_on_c, 1, 70, 0
2, 184511428, Note_on_c, 1, 70, 48
2, 184541460, Note_on_c, 1, 71, 0
2, 184568342, Note_on_c, 1, 71, 45
2, 184598119, Note_on_c, 1, 73, 0
2, 184627896, Note_on_c, 1, 73, 48
2, 184657975, Note_on_c, 1, 75, 0
2, 184688054, Note_on_c, 1, 75, 48
2, 184718562, Note_on_c, 1, 76, 0
2, 184749070, Note_on_c, 1, 76, 47
2, 184779880, Note_on_c, 1, 78, 0
2, 184810690, Note_on_c, 1, 78, 47
2, 184841929, Note_on_c, 1, 79, 0
2, 184873168, Note_on_c, 1, 79, 49
2, 184904709, Note_on_c, 1, 80, 0
2, 184936250, Note_on_c, 1, 80, 48
2, 184968092, Note_on_c, 1, 82, 0
2, 184999934, Note_on_c, 1, 82, 48
2, 185032206, Note_on_c, 1, 83, 0
2, 185064478, Note_on_c, 1, 83, 49
2, 185097051, Note_on_c, 1, 85, 0
2, 185129624, Note_on_c, 1, 85, 48
2, 185129731, Note_on_c, 1, 87, 0
2, 185129838, Note_on_c, 1, 87, 55
2, 185130374, Note_on_c, 1, 88, 0
2, 185130910, Note_on_c, 1, 88, 64
2, 185131748, Note_on_c, 1, 87, 0
2, 185139762, Note_on_c, 1, 87, 56
2, 185147022, Note_on_c, 1, 86, 0
2, 185150151, Note_on_c, 1, 86, 67
2, 185156556, Note_on_c, 1, 87, 0
2, 185180637, Note_on_c, 1, 87, 58
2, 185189908, Note_on_c, 1, 88, 0
2, 185190796, Note_on_c, 1, 88, 67
2, 185203925, Note_on_c, 1, 87, 0
2, 185236445, Note_on_c, 1, 87, 58
2, 185250812, Note_on_c, 1, 88, 0
2, 185261326, Note_on_c, 1, 88, 67
2, 185275261, Note_on_c, 1, 87, 0
2, 185284795, Note_on_c, 1, 87, 56
2, 185299964, Note_on_c, 1, 88, 0
2, 185317640, Note_on_c, 1, 88, 67
2, 185337428, Note_on_c, 1, 87, 0
2, 185341096, Note_on_c, 1, 87, 57
2, 185362944, Note_on_c, 1, 88, 0
2, 185373217, Note_on_c, 1, 88, 68
2, 185393788, Note_on_c, 1, 87, 0
2, 185408131, Note_on_c, 1, 87, 56
2, 185430263, Note_on_c, 1, 88, 0
2, 185440566, Note_on_c, 1, 88, 67
2, 185463396, Note_on_c, 1, 87, 0
2, 185488551, Note_on_c, 1, 87, 55
2, 185510109, Note_on_c, 1, 88, 0
2, 185515076, Note_on_c, 1, 88, 63
2, 185537698, Note_on_c, 1, 87, 0
2, 185555152, Note_on_c, 1, 87, 52
2, 185577488, Note_on_c, 1, 88, 0
2, 185605980, Note_on_c, 1, 88, 62
2, 185629866, Note_on_c, 1, 87, 0
2, 185646827, Note_on_c, 1, 87, 51
2, 185669448, Note_on_c, 1, 88, 0
2, 185697711, Note_on_c, 1, 88, 60
2, 185719056, Note_on_c, 1, 87, 0
2, 185730085, Note_on_c, 1, 87, 50
2, 185753481, Note_on_c, 1, 88, 0
2, 185771205, Note_on_c, 1, 88, 57
2, 185787941, Note_on_c, 1, 87, 0
2, 185803093, Note_on_c, 1, 87, 48
2, 185822063, Note_on_c, 1, 88, 0
2, 185826242, Note_on_c, 1, 88, 55
2, 185843396, Note_on_c, 1, 87, 0
2, 185867555, Note_on_c, 1, 87, 46
2, 185881195, Note_on_c, 1, 88, 0
2, 185892226, Note_on_c, 1, 88, 55
2, 185901954, Note_on_c, 1, 75, 0
2, 185922793, Note_on_c, 1, 75, 48
2, 185934116, Note_on_c, 1, 74, 0
2, 185944184, Note_on_c, 1, 74, 56
2, 185958328, Note_on_c, 1, 75, 0
2, 185986770, Note_on_c, 1, 75, 49
2, 185998389, Note_on_c, 1, 76, 0
2, 186022973, Note_on_c, 1, 76, 56
2, 186038957, Note_on_c, 1, 75, 0
2, 186062615, Note_on_c, 1, 75, 49
2, 186078809, Note_on_c, 1, 76, 0
2, 186110850, Note_on_c, 1, 76, 56
2, 186126741, Note_on_c, 1, 75, 0
2, 186143741, Note_on_c, 1, 75, 48
2, 186161249, Note_on_c, 1, 76, 0
2, 186182363, Note_on_c, 1, 76, 56
2, 186200589, Note_on_c, 1, 75, 0
2, 186221332, Note_on_c, 1, 75, 47
2, 186238750, Note_on_c, 1, 76, 0
2, 186246039, Note_on_c, 1, 76, 56
2, 186264556, Note_on_c, 1, 75, 0
2, 186268453, Note_on_c, 1, 75, 48
2, 186286672, Note_on_c, 1, 76, 0
2, 186298310, Note_on_c, 1, 76, 56
2, 186318129, Note_on_c, 1, 75, 0
2, 186343778, Note_on_c, 1, 75, 47
2, 186362795, Note_on_c, 1, 76, 0
2, 186376698, Note_on_c, 1, 76, 53
2, 186397438, Note_on_c, 1, 75, 0
2, 186414082, Note_on_c, 1, 75, 45
2, 186435404, Note_on_c, 1, 76, 0
2, 186452654, Note_on_c, 1, 76, 51
2, 186472677, Note_on_c, 1, 75, 0
2, 186498796, Note_on_c, 1, 75, 44
2, 186518523, Note_on_c, 1, 76, 0
2, 186537508, Note_on_c, 1, 76, 50
2, 186557821, Note_on_c, 1, 75, 0
2, 186566330, Note_on_c, 1, 75, 41
2, 186584315, Note_on_c, 1, 76, 0
2, 186587137, Note_on_c, 1, 76, 48
2, 186605842, Note_on_c, 1, 75, 0
2, 186630025, Note_on_c, 1, 75, 40
2, 186648812, Note_on_c, 1, 76, 0
2, 186674272, Note_on_c, 1, 76, 46
2, 186689671, Note_on_c, 1, 75, 0
2, 186707874, Note_on_c, 1, 75, 39
2, 186725035, Note_on_c, 1, 76, 0
2, 186745084, Note_on_c, 1, 76, 46
2, 186761724, Note_on_c, 1, 55, 0
2, 186778364, Note_on_c, 1, 61, 0
2, 186795004, Note_on_c, 1, 51, 0
2, 186811644, Note_on_c, 1, 71, 0
2, 186820864, Note_on_c, 1, 71, 48
2, 186836250, Note_on_c, 1, 70, 0
2, 186847011, Note_on_c, 1, 70, 56
2, 186861438, Note_on_c, 1, 71, 0
2, 186893016, Note_on_c, 1, 71, 48
2, 186910250, Note_on_c, 1, 70, 0
2, 186920784, Note_on_c, 1, 70, 55
2, 186938744, Note_on_c, 1, 71, 0
2, 186968561, Note_on_c, 1, 71, 48
2, 186988136, Note_on_c, 1, 70, 0
2, 187000003, Note_on_c, 1, 70, 53
2, 187018769, Note_on_c, 1, 71, 0
2, 187030590, Note_on_c, 1, 71, 46
2, 187050586, Note_on_c, 1, 70, 0
2, 187057312, Note_on_c, 1, 70, 52
2, 187076881, Note_on_c, 1, 71, 0
2, 187101503, Note_on_c, 1, 71, 45
2, 187121792, Note_on_c, 1, 70, 0
2, 187128504, Note_on_c, 1, 70, 51
2, 187150894, Note_on_c, 1, 71, 0
2, 187180590, Note_on_c, 1, 71, 44
2, 187200663, Note_on_c, 1, 70, 0
2, 187200977, Note_on_c, 1, 70, 51
2, 187222780, Note_on_c, 1, 71, 0
2, 187228008, Note_on_c, 1, 71, 42
2, 187251398, Note_on_c, 1, 70, 0
2, 187277038, Note_on_c, 1, 70, 50
2, 187299635, Note_on_c, 1, 71, 0
2, 187312210, Note_on_c, 1, 71, 42
2, 187336389, Note_on_c, 1, 70, 0
2, 187339797, Note_on_c, 1, 70, 49
2, 187361679, Note_on_c, 1, 71, 0
2, 187382688, Note_on_c, 1, 71, 41
2, 187404275, Note_on_c, 1, 70, 0
2, 187420740, Note_on_c, 1, 70, 48
2, 187440503, Note_on_c, 1, 71, 0
2, 187464930, Note_on_c, 1, 71, 40
2, 187484904, Note_on_c, 1, 70, 0
2, 187498517, Note_on_c, 1, 70, 47
2, 187514438, Note_on_c, 1, 71, 0
2, 187535460, Note_on_c, 1, 71, 40
2, 187554190, Note_on_c, 1, 70, 0
2, 187583753, Note_on_c, 1, 70, 46
2, 187602051, Note_on_c, 1, 71, 0
2, 187619280, Note_on_c, 1, 71, 38
2, 187634664, Note_on_c, 1, 70, 0
2, 187660525, Note_on_c, 1, 51, 25
2, 187674412, Note_on_c, 1, 61, 31
2, 187688299, Note_on_c, 1, 55, 31
2, 187702186, Note_on_c, 1, 70, 44
2, 187716073, Note_on_c, 1, 56, 0
2, 187729960, Note_on_c, 1, 51, 0
2, 187743847, Note_on_c, 1, 59, 0
2, 187757734, Note_on_c, 1, 69, 0
2, 187767521, Note_on_c, 1, 69, 38
2, 187796221, Note_on_c, 1, 68, 0
2, 187824921, Note_on_c, 1, 68, 49
2, 187853891, Note_on_c, 1, 70, 0
2, 187871671, Note_on_c, 1, 70, 51
2, 187893965, Note_on_c, 1, 71, 0
2, 187911641, Note_on_c, 1, 59, 36
2, 187942643, Note_on_c, 1, 51, 28
2, 187973645, Note_on_c, 1, 56, 36
2, 188004647, Note_on_c, 1, 71, 58
2, 188035649, Note_on_c, 1, 73, 0
2, 188066651, Note_on_c, 1, 49, 0
2, 188097653, Note_on_c, 1, 52, 0
2, 188128655, Note_on_c, 1, 61, 0
2, 188159657, Note_on_c, 1, 57, 0
2, 188191662, Note_on_c, 1, 57, 57
2, 188195366, Note_on_c, 1, 73, 81
2, 188199070, Note_on_c, 1, 61, 69
2, 188202774, Note_on_c, 1, 64, 0
2, 188206478, Note_on_c, 1, 76, 0
2, 188210182, Note_on_c, 1, 56, 0
2, 188234075, Note_on_c, 1, 52, 50
2, 188255170, Note_on_c, 1, 49, 50
2, 188276265, Note_on_c, 1, 56, 59
2, 188297360, Note_on_c, 1, 64, 72
2, 188318455, Note_on_c, 1, 76, 85
2, 188339550, Note_on_c, 1, 48, 0
2, 188360645, Note_on_c, 1, 63, 0
2, 188381740, Note_on_c, 1, 51, 0
2, 188402835, Note_on_c, 1, 60, 0
2, 188423930, Note_on_c, 1, 56, 0
2, 188445025, Note_on_c, 1, 75, 0
2, 188461988, Note_on_c, 1, 75, 52
2, 188493532, Note_on_c, 1, 63, 45
2, 188525076, Note_on_c, 1, 68, 0
2, 188556620, Note_on_c, 1, 80, 0
2, 188581309, Note_on_c, 1, 56, 36
2, 188608251, Note_on_c, 1, 48, 28
2, 188635193, Note_on_c, 1, 51, 28
2, 188662135, Note_on_c, 1, 60, 36
2, 188689077, Note_on_c, 1, 80, 57
2, 188716019, Note_on_c, 1, 68, 51
2, 188742961, Note_on_c, 1, 79, 0
2, 188769903, Note_on_c, 1, 49, 0
2, 188796845, Note_on_c, 1, 51, 0
2, 188823787, Note_on_c, 1, 58, 0
2, 188850729, Note_on_c, 1, 67, 0
2, 188883328, Note_on_c, 1, 67, 58
2, 188889243, Note_on_c, 1, 79, 63
2, 188895158, Note_on_c, 1, 70, 0
2, 188901073, Note_on_c, 1, 82, 0
2, 188926523, Note_on_c, 1, 51, 33
2, 188946276, Note_on_c, 1, 58, 42
2, 188966029, Note_on_c, 1, 49, 33
2, 188985782, Note_on_c, 1, 46, 0
2, 189005535, Note_on_c, 1, 46, 40
2, 189025596, Note_on_c, 1, 58, 0
2, 189045657, Note_on_c, 1, 51, 0
2, 189065718, Note_on_c, 1, 49, 0
2, 189077306, Note_on_c, 1, 49, 34
2, 189101905, Note_on_c, 1, 58, 42
2, 189126504, Note_on_c, 1, 51, 34
2, 189151103, Note_on_c, 1, 82, 68
2, 189175702, Note_on_c, 1, 70, 62
2, 189200301, Note_on_c, 1, 67, 0
2, 189224900, Note_on_c, 1, 79, 0
2, 189249499, Note_on_c, 1, 46, 0
2, 189273582, Note_on_c, 1, 46, 39
2, 189306130, Note_on_c, 1, 51, 0
2, 189338678, Note_on_c, 1, 58, 0
2, 189371226, Note_on_c, 1, 49, 0
2, 189403774, Note_on_c, 1, 49, 29
2, 189403850, Note_on_c, 1, 51, 29
2, 189403926, Note_on_c, 1, 58, 38
2, 189404002, Note_on_c, 1, 46, 0
2, 189404771, Note_on_c, 1, 46, 40
2, 189405370, Note_on_c, 1, 79, 61
2, 189405969, Note_on_c, 1, 67, 57
2, 189406568, Note_on_c, 1, 80, 0
2, 189407167, Note_on_c, 1, 48, 0
2, 189407766, Note_on_c, 1, 51, 0
2, 189408365, Note_on_c, 1, 56, 0
2, 189408964, Note_on_c, 1, 68, 0
2, 189409563, Note_on_c, 1, 68, 53
2, 189410390, Note_on_c, 1, 80, 58
2, 189411217, Note_on_c, 1, 72, 0
2, 189412044, Note_on_c, 1, 84, 0
2, 189440227, Note_on_c, 1, 51, 29
2, 189467670, Note_on_c, 1, 56, 38
2, 189495113, Note_on_c, 1, 48, 29
2, 189522556, Note_on_c, 1, 44, 0
2, 189549999, Note_on_c, 1, 44, 37
2, 189577745, Note_on_c, 1, 51, 0
2, 189605491, Note_on_c, 1, 56, 0
2, 189633237, Note_on_c, 1, 48, 0
2, 189658676, Note_on_c, 1, 48, 30
2, 189689437, Note_on_c, 1, 51, 30
2, 189720198, Note_on_c, 1, 56, 39
2, 189750959, Note_on_c, 1, 84, 62
2, 189781720, Note_on_c, 1, 72, 57
2, 189812481, Note_on_c, 1, 80, 0
2, 189843242, Note_on_c, 1, 68, 0
2, 189874003, Note_on_c, 1, 44, 0
2, 189904475, Note_on_c, 1, 44, 36
2, 189904484, Note_on_c, 1, 51, 0
2, 189904493, Note_on_c, 1, 56, 0
2, 189904502, Note_on_c, 1, 48, 0
2, 189904511, Note_on_c, 1, 48, 27
2, 189904818, Note_on_c, 1, 51, 27
2, 189905125, Note_on_c, 1, 56, 34
2, 189905432, Note_on_c, 1, 44, 0
2, 189905739, Note_on_c, 1, 44, 37
2, 189906344, Note_on_c, 1, 68, 51
2, 189906949, Note_on_c, 1, 80, 56
2, 189907554, Note_on_c, 1, 75, 0
2, 189908159, Note_on_c, 1, 48, 0
2, 189908764, Note_on_c, 1, 56, 0
2, 189909369, Note_on_c, 1, 51, 0
2, 189909974, Note_on_c, 1, 63, 0
2, 189915948, Note_on_c, 1, 63, 49
2, 189921433, Note_on_c, 1, 75, 53
2, 189926918, Note_on_c, 1, 60, 0
2, 189932403, Note_on_c, 1, 72, 0
2, 189961888, Note_on_c, 1, 56, 34
2, 189985978, Note_on_c, 1, 51, 27
2, 190010068, Note_on_c, 1, 48, 27
2, 190034158, Note_on_c, 1, 44, 0
2, 190058248, Note_on_c, 1, 44, 33
2, 190082646, Note_on_c, 1, 48, 0
2, 190107044, Note_on_c, 1, 51, 0
2, 190131442, Note_on_c, 1, 56, 0
2, 190154859, Note_on_c, 1, 60, 51
2, 190186947, Note_on_c, 1, 56, 35
2, 190219035, Note_on_c, 1, 51, 27
2, 190251123, Note_on_c, 1, 48, 27
2, 190283211, Note_on_c, 1, 72, 55
2, 190315299, Note_on_c, 1, 63, 0
2, 190347387, Note_on_c, 1, 44, 0
2, 190379475, Note_on_c, 1, 44, 31
2, 190411991, Note_on_c, 1, 56, 0
2, 190444507, Note_on_c, 1, 51, 0
2, 190477023, Note_on_c, 1, 48, 0
2, 190509539, Note_on_c, 1, 48, 24
2, 190509587, Note_on_c, 1, 51, 24
2, 190509635, Note_on_c, 1, 56, 31
2, 190509683, Note_on_c, 1, 44, 0
2, 190509731, Note_on_c, 1, 44, 32
2, 190510080, Note_on_c, 1, 56, 0
2, 190510429, Note_on_c, 1, 48, 0
2, 190510778, Note_on_c, 1, 51, 0
2, 190511127, Note_on_c, 1, 51, 22
2, 190511904, Note_on_c, 1, 48, 22
2, 190512681, Note_on_c, 1, 56, 29
2, 190513458, Note_on_c, 1, 44, 0
2, 190514235, Note_on_c, 1, 44, 28
2, 190515313, Note_on_c, 1, 56, 0
2, 190516391, Note_on_c, 1, 48, 0
2, 190517469, Note_on_c, 1, 51, 0
2, 190518547, Note_on_c, 1, 51, 23
2, 190519925, Note_on_c, 1, 48, 23
2, 190521303, Note_on_c, 1, 56, 29
2, 190522681, Note_on_c, 1, 63, 42
2, 190524059, Note_on_c, 1, 60, 0
2, 190525437, Note_on_c, 1, 44, 0
2, 190557280, Note_on_c, 1, 44, 27
2, 190588049, Note_on_c, 1, 56, 0
2, 190618818, Note_on_c, 1, 48, 0
2, 190649587, Note_on_c, 1, 51, 0
2, 190680356, Note_on_c, 1, 51, 20
2, 190711430, Note_on_c, 1, 48, 20
2, 190742504, Note_on_c, 1, 56, 25
2, 190773578, Note_on_c, 1, 44, 0
2, 190804652, Note_on_c, 1, 44, 28
2, 190836158, Note_on_c, 1, 60, 42
2, 190867664, Note_on_c, 1, 43, 0
2, 190899170, Note_on_c, 1, 61, 0
2, 190930676, Note_on_c, 1, 49, 0
2, 190946861, Note_on_c, 1, 49, 36
2, 190964549, Note_on_c, 1, 61, 39
2, 190982237, Note_on_c, 1, 63, 0
2, 190999925, Note_on_c, 1, 51, 0
2, 191008968, Note_on_c, 1, 43, 25
2, 191033311, Note_on_c, 1, 39, 0
2, 191057654, Note_on_c, 1, 39, 25
2, 191082309, Note_on_c, 1, 43, 0
2, 191111066, Note_on_c, 1, 43, 28
2, 191115467, Note_on_c, 1, 51, 40
2, 191119868, Note_on_c, 1, 63, 44
2, 191124269, Note_on_c, 1, 58, 0
2, 191128670, Note_on_c, 1, 46, 0
2, 191133071, Note_on_c, 1, 39, 0
2, 191144958, Note_on_c, 1, 39, 25
2, 191152740, Note_on_c, 1, 43, 0
2, 191160522, Note_on_c, 1, 43, 25
2, 191168728, Note_on_c, 1, 39, 0
2, 191187201, Note_on_c, 1, 39, 28
2, 191197501, Note_on_c, 1, 46, 40
2, 191207801, Note_on_c, 1, 58, 44
2, 191218101, Note_on_c, 1, 44, 0
2, 191228401, Note_on_c, 1, 60, 0
2, 191238701, Note_on_c, 1, 48, 0
2, 191249001, Note_on_c, 1, 48, 36
2, 191259530, Note_on_c, 1, 60, 39
2, 191270059, Note_on_c, 1, 63, 0
2, 191280588, Note_on_c, 1, 51, 0
2, 191291662, Note_on_c, 1, 44, 25
2, 191292296, Note_on_c, 1, 39, 0
2, 191292930, Note_on_c, 1, 39, 25
2, 191293997, Note_on_c, 1, 44, 0
2, 191299421, Note_on_c, 1, 51, 40
2, 191304079, Note_on_c, 1, 44, 28
2, 191308737, Note_on_c, 1, 63, 44
2, 191313395, Note_on_c, 1, 60, 0
2, 191318053, Note_on_c, 1, 48, 0
2, 191322711, Note_on_c, 1, 39, 0
2, 191340220, Note_on_c, 1, 39, 26
2, 191353364, Note_on_c, 1, 44, 0
2, 191366508, Note_on_c, 1, 44, 25
2, 191379944, Note_on_c, 1, 39, 0
2, 191393380, Note_on_c, 1, 39, 28
2, 191407236, Note_on_c, 1, 48, 40
2, 191421092, Note_on_c, 1, 60, 44
2, 191434948, Note_on_c, 1, 44, 0
2, 191448804, Note_on_c, 1, 61, 0
2, 191462660, Note_on_c, 1, 49, 0
2, 191476238, Note_on_c, 1, 49, 37
2, 191508836, Note_on_c, 1, 61, 40
2, 191541434, Note_on_c, 1, 65, 0
2, 191574032, Note_on_c, 1, 53, 0
2, 191606407, Note_on_c, 1, 44, 27
2, 191639042, Note_on_c, 1, 37, 0
2, 191671677, Note_on_c, 1, 37, 26
2, 191671980, Note_on_c, 1, 44, 0
2, 191682255, Note_on_c, 1, 44, 28
2, 191692525, Note_on_c, 1, 53, 40
2, 191702795, Note_on_c, 1, 65, 44
2, 191713065, Note_on_c, 1, 63, 0
2, 191723335, Note_on_c, 1, 51, 0
2, 191733605, Note_on_c, 1, 36, 0
2, 191743875, Note_on_c, 1, 36, 26
2, 191754442, Note_on_c, 1, 44, 0
2, 191765009, Note_on_c, 1, 39, 0
2, 191775576, Note_on_c, 1, 48, 0
2, 191786143, Note_on_c, 1, 48, 26
2, 191797008, Note_on_c, 1, 44, 20
2, 191807873, Note_on_c, 1, 39, 20
2, 191818738, Note_on_c, 1, 36, 0
2, 191829603, Note_on_c, 1, 36, 28
2, 191840893, Note_on_c, 1, 48, 0
2, 191852183, Note_on_c, 1, 44, 0
2, 191863473, Note_on_c, 1, 39, 0
2, 191874763, Note_on_c, 1, 39, 20
2, 191886351, Note_on_c, 1, 48, 26
2, 191897939, Note_on_c, 1, 44, 20
2, 191909527, Note_on_c, 1, 36, 0
2, 191921115, Note_on_c, 1, 36, 26
2, 191933000, Note_on_c, 1, 44, 0
2, 191944885, Note_on_c, 1, 39, 0
2, 191956770, Note_on_c, 1, 48, 0
2, 191968655, Note_on_c, 1, 48, 28
2, 191980966, Note_on_c, 1, 44, 22
2, 191993277, Note_on_c, 1, 51, 40
2, 192005588, Note_on_c, 1, 39, 22
2, 192017899, Note_on_c, 1, 63, 40
2, 192030210, Note_on_c, 1, 68, 0
2, 192042521, Note_on_c, 1, 56, 0
2, 192054832, Note_on_c, 1, 36, 0
2, 192083561, Note_on_c, 1, 36, 26
2, 192100272, Note_on_c, 1, 44, 0
2, 192116983, Note_on_c, 1, 39, 0
2, 192133694, Note_on_c, 1, 48, 0
2, 192150405, Note_on_c, 1, 48, 25
2, 192167409, Note_on_c, 1, 44, 20
2, 192184413, Note_on_c, 1, 39, 20
2, 192201417, Note_on_c, 1, 36, 0
2, 192218421, Note_on_c, 1, 36, 28
2, 192235846, Note_on_c, 1, 56, 38
2, 192253271, Note_on_c, 1, 68, 41
2, 192270696, Note_on_c, 1, 55, 0
2, 192288121, Note_on_c, 1, 37, 0
2, 192305546, Note_on_c, 1, 39, 0
2, 192322971, Note_on_c, 1, 46, 0
2, 192340396, Note_on_c, 1, 67, 0
2, 192361964, Note_on_c, 1, 67, 39
2, 192366343, Note_on_c, 1, 55, 36
2, 192370722, Note_on_c, 1, 58, 0
2, 192375101, Note_on_c, 1, 70, 0
2, 192383594, Note_on_c, 1, 39, 21
2, 192387798, Note_on_c, 1, 46, 27
2, 192392002, Note_on_c, 1, 37, 21
2, 192396206, Note_on_c, 1, 34, 0
2, 192400410, Note_on_c, 1, 34, 26
2, 192405050, Note_on_c, 1, 46, 0
2, 192409690, Note_on_c, 1, 39, 0
2, 192414330, Note_on_c, 1, 37, 0
2, 192431281, Note_on_c, 1, 37, 22
2, 192443891, Note_on_c, 1, 46, 28
2, 192456501, Note_on_c, 1, 39, 22
2, 192469111, Note_on_c, 1, 70, 44
2, 192481721, Note_on_c, 1, 58, 40
2, 192494331, Note_on_c, 1, 67, 0
2, 192506941, Note_on_c, 1, 55, 0
2, 192519551, Note_on_c, 1, 34, 0
2, 192547776, Note_on_c, 1, 34, 26
2, 192563687, Note_on_c, 1, 39, 0
2, 192579598, Note_on_c, 1, 46, 0
2, 192595509, Note_on_c, 1, 37, 0
2, 192611420, Note_on_c, 1, 37, 20
2, 192627627, Note_on_c, 1, 39, 20
2, 192643834, Note_on_c, 1, 46, 26
2, 192660041, Note_on_c, 1, 34, 0
2, 192663448, Note_on_c, 1, 34, 28
2, 192683450, Note_on_c, 1, 55, 38
2, 192703452, Note_on_c, 1, 67, 41
2, 192723454, Note_on_c, 1, 56, 0
2, 192743456, Note_on_c, 1, 36, 0
2, 192763458, Note_on_c, 1, 44, 0
2, 192783460, Note_on_c, 1, 39, 0
2, 192803462, Note_on_c, 1, 68, 0
2, 192823464, Note_on_c, 1, 68, 39
2, 192843695, Note_on_c, 1, 56, 36
2, 192863926, Note_on_c, 1, 72, 0
2, 192884157, Note_on_c, 1, 60, 0
2, 192913881, Note_on_c, 1, 44, 26
2, 192923462, Note_on_c, 1, 39, 20
2, 192933043, Note_on_c, 1, 36, 20
2, 192942624, Note_on_c, 1, 32, 0
2, 192952205, Note_on_c, 1, 32, 26
2, 192962219, Note_on_c, 1, 36, 0
2, 192972233, Note_on_c, 1, 44, 0
2, 192982247, Note_on_c, 1, 39, 0
2, 193005348, Note_on_c, 1, 39, 22
2, 193018735, Note_on_c, 1, 36, 22
2, 193032122, Note_on_c, 1, 44, 28
2, 193045509, Note_on_c, 1, 60, 40
2, 193058896, Note_on_c, 1, 72, 44
2, 193072283, Note_on_c, 1, 56, 0
2, 193085670, Note_on_c, 1, 68, 0
2, 193099057, Note_on_c, 1, 32, 0
2, 193100121, Note_on_c, 1, 32, 26
2, 193120859, Note_on_c, 1, 36, 0
2, 193141597, Note_on_c, 1, 44, 0
2, 193162335, Note_on_c, 1, 39, 0
2, 193183073, Note_on_c, 1, 39, 20
2, 193204104, Note_on_c, 1, 36, 20
2, 193225135, Note_on_c, 1, 44, 25
2, 193246166, Note_on_c, 1, 32, 0
2, 193257443, Note_on_c, 1, 32, 28
2, 193280485, Note_on_c, 1, 68, 41
2, 193303527, Note_on_c, 1, 56, 38
2, 193326569, Note_on_c, 1, 63, 0
2, 193349611, Note_on_c, 1, 36, 0
2, 193372653, Note_on_c, 1, 44, 0
2, 193395695, Note_on_c, 1, 39, 0
2, 193418737, Note_on_c, 1, 51, 0
2, 193437483, Note_on_c, 1, 51, 37
2, 193466199, Note_on_c, 1, 63, 40
2, 193494915, Note_on_c, 1, 60, 0
2, 193523631, Note_on_c, 1, 48, 0
2, 193525222, Note_on_c, 1, 44, 27
2, 193530956, Note_on_c, 1, 39, 21
2, 193536690, Note_on_c, 1, 36, 21
2, 193542424, Note_on_c, 1, 32, 0
2, 193548158, Note_on_c, 1, 32, 26
2, 193554332, Note_on_c, 1, 44, 0
2, 193560506, Note_on_c, 1, 36, 0
2, 193566680, Note_on_c, 1, 39, 0
2, 193586718, Note_on_c, 1, 39, 22
2, 193600885, Note_on_c, 1, 44, 28
2, 193615052, Note_on_c, 1, 48, 40
2, 193629219, Note_on_c, 1, 36, 22
2, 193643386, Note_on_c, 1, 60, 44
2, 193657553, Note_on_c, 1, 32, 0
2, 193671720, Note_on_c, 1, 32, 26
2, 193686317, Note_on_c, 1, 44, 0
2, 193700914, Note_on_c, 1, 39, 0
2, 193715511, Note_on_c, 1, 36, 0
2, 193730108, Note_on_c, 1, 36, 20
2, 193745007, Note_on_c, 1, 39, 20
2, 193759906, Note_on_c, 1, 44, 26
2, 193774805, Note_on_c, 1, 32, 0
2, 193789704, Note_on_c, 1, 32, 28
2, 193804906, Note_on_c, 1, 44, 0
2, 193820108, Note_on_c, 1, 36, 0
2, 193835310, Note_on_c, 1, 39, 0
2, 193850512, Note_on_c, 1, 39, 20
2, 193866144, Note_on_c, 1, 36, 20
2, 193881776, Note_on_c, 1, 44, 26
2, 193897408, Note_on_c, 1, 32, 0
2, 193913040, Note_on_c, 1, 32, 26
2, 193928974, Note_on_c, 1, 44, 0
2, 193944908, Note_on_c, 1, 36, 0
2, 193960842, Note_on_c, 1, 39, 0
2, 193976776, Note_on_c, 1, 39, 22
2, 193993013, Note_on_c, 1, 36, 22
2, 194009250, Note_on_c, 1, 44, 28
2, 194025487, Note_on_c, 1, 32, 0
2, 194041724, Note_on_c, 1, 32, 26
2, 194058391, Note_on_c, 1, 44, 0
2, 194075058, Note_on_c, 1, 36, 0
2, 194091725, Note_on_c, 1, 39, 0
2, 194108392, Note_on_c, 1, 39, 20
2, 194125361, Note_on_c, 1, 36, 20
2, 194142330, Note_on_c, 1, 44, 25
2, 194159299, Note_on_c, 1, 32, 0
2, 194185755, Note_on_c, 1, 32, 28
2, 194212741, Note_on_c, 1, 39, 0
2, 194219159, Note_on_c, 1, 39, 27
2, 194224570, Note_on_c, 1, 39, 0
2, 194239434, Note_on_c, 1, 39, 26
2, 194248949, Note_on_c, 1, 39, 0
2, 194272030, Note_on_c, 1, 39, 28
2, 194294905, Note_on_c, 1, 39, 0
2, 194324130, Note_on_c, 1, 39, 26
2, 194340798, Note_on_c, 1, 39, 0
2, 194345179, Note_on_c, 1, 39, 26
2, 194371594, Note_on_c, 1, 39, 0
2, 194392150, Note_on_c, 1, 39, 28
2, 194419311, Note_on_c, 1, 39, 0
2, 194441439, Note_on_c, 1, 39, 26
2, 194469344, Note_on_c, 1, 39, 0
2, 194497262, Note_on_c, 1, 39, 26
2, 194525459, Note_on_c, 1, 39, 0
2, 194549576, Note_on_c, 1, 39, 28
2, 194578514, Note_on_c, 1, 58, 0
2, 194607452, Note_on_c, 1, 61, 0
2, 194636390, Note_on_c, 1, 55, 0
2, 194665328, Note_on_c, 1, 39, 0
2, 194691007, Note_on_c, 1, 39, 26
2, 194720557, Note_on_c, 1, 39, 0
2, 194750120, Note_on_c, 1, 39, 25
2, 194769191, Note_on_c, 1, 55, 41
2, 194791334, Note_on_c, 1, 61, 41
2, 194813477, Note_on_c, 1, 58, 41
2, 194833558, Note_on_c, 1, 51, 0
2, 194864278, Note_on_c, 1, 51, 27
2, 194895275, Note_on_c, 1, 51, 0
2, 194926286, Note_on_c, 1, 51, 26
2, 194956537, Note_on_c, 1, 51, 0
2, 194988282, Note_on_c, 1, 51, 28
2, 195020304, Note_on_c, 1, 51, 0
2, 195052340, Note_on_c, 1, 51, 26
2, 195084639, Note_on_c, 1, 51, 0
2, 195084639, Note_on_c, 1, 51, 26
2, 195084915, Note_on_c, 1, 51, 0
2, 195085205, Note_on_c, 1, 51, 28
2, 195086778, Note_on_c, 1, 51, 0
2, 195087669, Note_on_c, 1, 51, 26
2, 195088965, Note_on_c, 1, 51, 0
2, 195090274, Note_on_c, 1, 51, 26
2, 195093882, Note_on_c, 1, 51, 0
2, 195095790, Note_on_c, 1, 51, 28
2, 195098102, Note_on_c, 1, 73, 0
2, 195100414, Note_on_c, 1, 63, 0
2, 195102726, Note_on_c, 1, 67, 0
2, 195105038, Note_on_c, 1, 51, 0
2, 195107364, Note_on_c, 1, 51, 26
2, 195113002, Note_on_c, 1, 51, 0
2, 195115924, Note_on_c, 1, 51, 25
2, 195119122, Note_on_c, 1, 67, 41
2, 195122736, Note_on_c, 1, 63, 41
2, 195126350, Note_on_c, 1, 73, 41
2, 195129511, Note_on_c, 1, 63, 0
2, 195161840, Note_on_c, 1, 63, 30
2, 195167784, Note_on_c, 1, 63, 0
2, 195173772, Note_on_c, 1, 63, 31
2, 195180033, Note_on_c, 1, 52, 0
2, 195186294, Note_on_c, 1, 55, 0
2, 195192555, Note_on_c, 1, 55, 30
2, 195199231, Note_on_c, 1, 52, 30
2, 195205907, Note_on_c, 1, 63, 0
2, 195212596, Note_on_c, 1, 63, 32
2, 195219558, Note_on_c, 1, 67, 0
2, 195226520, Note_on_c, 1, 64, 0
2, 195233482, Note_on_c, 1, 73, 0
2, 195240444, Note_on_c, 1, 63, 0
2, 195247419, Note_on_c, 1, 63, 32
2, 195259982, Note_on_c, 1, 67, 46
2, 195265458, Note_on_c, 1, 64, 46
2, 195270934, Note_on_c, 1, 73, 46
2, 195282747, Note_on_c, 1, 63, 0
2, 195288969, Note_on_c, 1, 63, 34
2, 195295466, Note_on_c, 1, 63, 0
2, 195301976, Note_on_c, 1, 63, 34
2, 195308889, Note_on_c, 1, 56, 0
2, 195315802, Note_on_c, 1, 53, 0
2, 195322715, Note_on_c, 1, 53, 38
2, 195329916, Note_on_c, 1, 56, 38
2, 195346062, Note_on_c, 1, 63, 0
2, 195354892, Note_on_c, 1, 63, 36
2, 195364123, Note_on_c, 1, 68, 0
2, 195373354, Note_on_c, 1, 65, 0
2, 195382585, Note_on_c, 1, 74, 0
2, 195391816, Note_on_c, 1, 63, 0
2, 195401060, Note_on_c, 1, 63, 37
2, 195418779, Note_on_c, 1, 68, 52
2, 195427270, Note_on_c, 1, 65, 52
2, 195435761, Note_on_c, 1, 74, 52
2, 195444252, Note_on_c, 1, 69, 0
2, 195452743, Note_on_c, 1, 66, 0
2, 195461234, Note_on_c, 1, 75, 0
2, 195479949, Note_on_c, 1, 63, 0
2, 195490058, Note_on_c, 1, 63, 37
2, 195500567, Note_on_c, 1, 63, 0
2, 195511089, Note_on_c, 1, 63, 37
2, 195521883, Note_on_c, 1, 54, 0
2, 195532677, Note_on_c, 1, 57, 0
2, 195543471, Note_on_c, 1, 57, 36
2, 195554551, Note_on_c, 1, 54, 36
2, 195577710, Note_on_c, 1, 63, 0
2, 195589802, Note_on_c, 1, 63, 37
2, 195602165, Note_on_c, 1, 63, 0
2, 195614541, Note_on_c, 1, 63, 37
2, 195638968, Note_on_c, 1, 69, 52
2, 195651032, Note_on_c, 1, 66, 52
2, 195663096, Note_on_c, 1, 75, 52
2, 195687224, Note_on_c, 1, 63, 0
2, 195699301, Note_on_c, 1, 63, 37
2, 195711650, Note_on_c, 1, 63, 0
2, 195724012, Note_on_c, 1, 63, 37
2, 195736647, Note_on_c, 1, 58, 0
2, 195749282, Note_on_c, 1, 55, 0
2, 195761917, Note_on_c, 1, 55, 40
2, 195774837, Note_on_c, 1, 58, 40
2, 195801797, Note_on_c, 1, 63, 0
2, 195815722, Note_on_c, 1, 63, 38
2, 195829918, Note_on_c, 1, 82, 0
2, 195844114, Note_on_c, 1, 87, 0
2, 195858310, Note_on_c, 1, 79, 0
2, 195872506, Note_on_c, 1, 63, 0
2, 195886843, Note_on_c, 1, 63, 38
2, 195915070, Note_on_c, 1, 82, 61
2, 195928974, Note_on_c, 1, 87, 61
2, 195942878, Note_on_c, 1, 79, 61
2, 195956782, Note_on_c, 1, 83, 0
2, 195970686, Note_on_c, 1, 88, 0
2, 195984590, Note_on_c, 1, 80, 0
2, 195998494, Note_on_c, 1, 63, 0
2, 196012411, Note_on_c, 1, 63, 37
2, 196026601, Note_on_c, 1, 63, 0
2, 196040804, Note_on_c, 1, 63, 37
2, 196055407, Note_on_c, 1, 59, 0
2, 196070010, Note_on_c, 1, 56, 0
2, 196084613, Note_on_c, 1, 56, 36
2, 196099501, Note_on_c, 1, 59, 36
2, 196129277, Note_on_c, 1, 63, 0
2, 196144178, Note_on_c, 1, 63, 37
2, 196159352, Note_on_c, 1, 63, 0
2, 196174539, Note_on_c, 1, 63, 37
2, 196189998, Note_on_c, 1, 59, 0
2, 196205457, Note_on_c, 1, 56, 0
2, 196220916, Note_on_c, 1, 56, 37
2, 196236788, Note_on_c, 1, 59, 37
2, 196268532, Note_on_c, 1, 63, 0
2, 196284418, Note_on_c, 1, 63, 37
2, 196300576, Note_on_c, 1, 63, 0
2, 196316747, Note_on_c, 1, 63, 37
2, 196333190, Note_on_c, 1, 56, 0
2, 196349633, Note_on_c, 1, 59, 0
2, 196366076, Note_on_c, 1, 59, 40
2, 196382805, Note_on_c, 1, 56, 40
2, 196384599, Note_on_c, 1, 63, 0
2, 196402317, Note_on_c, 1, 63, 38
2, 196420306, Note_on_c, 1, 63, 0
2, 196438308, Note_on_c, 1, 63, 38
2, 196441240, Note_on_c, 1, 83, 75
2, 196458953, Note_on_c, 1, 88, 75
2, 196476666, Note_on_c, 1, 80, 75
2, 196494379, Note_on_c, 1, 80, 0
2, 196512092, Note_on_c, 1, 83, 0
2, 196520314, Note_on_c, 1, 63, 0
2, 196543479, Note_on_c, 1, 83, 52
2, 196566854, Note_on_c, 1, 80, 52
2, 196575097, Note_on_c, 1, 63, 37
2, 196592812, Note_on_c, 1, 63, 0
2, 196610541, Note_on_c, 1, 63, 37
2, 196628542, Note_on_c, 1, 59, 0
2, 196646543, Note_on_c, 1, 56, 0
2, 196651437, Note_on_c, 1, 56, 44
2, 196671253, Note_on_c, 1, 59, 48
2, 196691069, Note_on_c, 1, 59, 0
2, 196710889, Note_on_c, 1, 56, 0
2, 196730709, Note_on_c, 1, 63, 0
2, 196750538, Note_on_c, 1, 63, 37
2, 196770766, Note_on_c, 1, 56, 47
2, 196790994, Note_on_c, 1, 59, 47
2, 196811222, Note_on_c, 1, 63, 0
2, 196831463, Note_on_c, 1, 63, 37
2, 196838475, Note_on_c, 1, 63, 0
2, 196857756, Note_on_c, 1, 63, 38
2, 196877309, Note_on_c, 1, 71, 0
2, 196896862, Note_on_c, 1, 68, 0
2, 196916415, Note_on_c, 1, 63, 0
2, 196935981, Note_on_c, 1, 63, 37
2, 196955819, Note_on_c, 1, 68, 49
2, 196975657, Note_on_c, 1, 71, 49
2, 196984485, Note_on_c, 1, 63, 0
2, 197006256, Note_on_c, 1, 63, 37
2, 197028297, Note_on_c, 1, 63, 0
2, 197050351, Note_on_c, 1, 63, 37
2, 197072675, Note_on_c, 1, 83, 0
2, 197094999, Note_on_c, 1, 80, 0
2, 197117323, Note_on_c, 1, 63, 0
2, 197139660, Note_on_c, 1, 63, 37
2, 197162267, Note_on_c, 1, 80, 52
2, 197184874, Note_on_c, 1, 83, 52
2, 197207481, Note_on_c, 1, 85, 0
2, 197230088, Note_on_c, 1, 82, 0
2, 197240878, Note_on_c, 1, 63, 0
2, 197261714, Note_on_c, 1, 63, 37
2, 197282822, Note_on_c, 1, 63, 0
2, 197304071, Note_on_c, 1, 63, 39
2, 197325592, Note_on_c, 1, 82, 61
2, 197347113, Note_on_c, 1, 85, 61
2, 197368634, Note_on_c, 1, 79, 0
2, 197390155, Note_on_c, 1, 82, 0
2, 197411707, Note_on_c, 1, 63, 0
2, 197435777, Note_on_c, 1, 82, 58
2, 197459699, Note_on_c, 1, 79, 58
2, 197483621, Note_on_c, 1, 63, 37
2, 197496509, Note_on_c, 1, 63, 0
2, 197518051, Note_on_c, 1, 63, 37
2, 197539866, Note_on_c, 1, 58, 0
2, 197561681, Note_on_c, 1, 61, 0
2, 197573775, Note_on_c, 1, 61, 44
2, 197597106, Note_on_c, 1, 58, 44
2, 197620437, Note_on_c, 1, 58, 0
2, 197643768, Note_on_c, 1, 55, 0
2, 197667099, Note_on_c, 1, 63, 0
2, 197690443, Note_on_c, 1, 63, 37
2, 197714058, Note_on_c, 1, 55, 49
2, 197737673, Note_on_c, 1, 58, 49
2, 197761288, Note_on_c, 1, 63, 0
2, 197784916, Note_on_c, 1, 63, 39
2, 197808815, Note_on_c, 1, 63, 0
2, 197832727, Note_on_c, 1, 63, 38
2, 197856910, Note_on_c, 1, 70, 0
2, 197881093, Note_on_c, 1, 67, 0
2, 197895998, Note_on_c, 1, 63, 0
2, 197919373, Note_on_c, 1, 63, 37
2, 197943020, Note_on_c, 1, 67, 50
2, 197966667, Note_on_c, 1, 70, 50
2, 197983352, Note_on_c, 1, 63, 0
2, 198009043, Note_on_c, 1, 63, 37
2, 198035003, Note_on_c, 1, 63, 0
2, 198060976, Note_on_c, 1, 63, 38
2, 198087347, Note_on_c, 1, 79, 0
2, 198113718, Note_on_c, 1, 82, 0
2, 198140089, Note_on_c, 1, 63, 0
2, 198166473, Note_on_c, 1, 63, 37
2, 198193126, Note_on_c, 1, 82, 52
2, 198219779, Note_on_c, 1, 79, 52
2, 198246432, Note_on_c, 1, 83, 0
2, 198273085, Note_on_c, 1, 80, 0
2, 198291601, Note_on_c, 1, 63, 0
2, 198316245, Note_on_c, 1, 63, 37
2, 198341161, Note_on_c, 1, 63, 0
2, 198366091, Note_on_c, 1, 63, 39
2, 198391293, Note_on_c, 1, 80, 58
2, 198416495, Note_on_c, 1, 83, 58
2, 198441697, Note_on_c, 1, 82, 0
2, 198466899, Note_on_c, 1, 79, 0
2, 198495428, Note_on_c, 1, 63, 0
2, 198498771, Note_on_c, 1, 79, 52
2, 198502193, Note_on_c, 1, 82, 52
2, 198505615, Note_on_c, 1, 79, 0
2, 198509037, Note_on_c, 1, 82, 0
2, 198540808, Note_on_c, 1, 63, 37
2, 198569233, Note_on_c, 1, 63, 0
2, 198597671, Note_on_c, 1, 63, 37
2, 198619511, Note_on_c, 1, 63, 0
2, 198645425, Note_on_c, 1, 63, 38
2, 198671611, Note_on_c, 1, 82, 56
2, 198697797, Note_on_c, 1, 79, 56
2, 198718339, Note_on_c, 1, 63, 0
2, 198745476, Note_on_c, 1, 63, 37
2, 198772884, Note_on_c, 1, 63, 0
2, 198800305, Note_on_c, 1, 63, 37
2, 198822114, Note_on_c, 1, 63, 0
2, 198849012, Note_on_c, 1, 63, 37
2, 198870584, Note_on_c, 1, 63, 0
2, 198897767, Note_on_c, 1, 63, 37
2, 198925222, Note_on_c, 1, 63, 0
2, 198952691, Note_on_c, 1, 63, 37
2, 198980432, Note_on_c, 1, 63, 0
2, 199008186, Note_on_c, 1, 63, 38
2, 199032262, Note_on_c, 1, 63, 0
2, 199060965, Note_on_c, 1, 63, 37
2, 199089939, Note_on_c, 1, 82, 0
2, 199118913, Note_on_c, 1, 87, 0
2, 199147887, Note_on_c, 1, 79, 0
2, 199176861, Note_on_c, 1, 63, 0
2, 199205848, Note_on_c, 1, 63, 37
2, 199235107, Note_on_c, 1, 67, 0
2, 199264366, Note_on_c, 1, 70, 0
2, 199289710, Note_on_c, 1, 70, 39
2, 199318720, Note_on_c, 1, 67, 39
2, 199347730, Note_on_c, 1, 79, 52
2, 199376740, Note_on_c, 1, 87, 52
2, 199405750, Note_on_c, 1, 82, 52
2, 199434760, Note_on_c, 1, 83, 0
2, 199463770, Note_on_c, 1, 80, 0
2, 199492780, Note_on_c, 1, 88, 0
2, 199518160, Note_on_c, 1, 75, 0
2, 199547183, Note_on_c, 1, 75, 37
2, 199576479, Note_on_c, 1, 75, 0
2, 199605788, Note_on_c, 1, 75, 37
2, 199635497, Note_on_c, 1, 68, 0
2, 199665206, Note_on_c, 1, 71, 0
2, 199694915, Note_on_c, 1, 71, 37
2, 199724909, Note_on_c, 1, 68, 37
2, 199752129, Note_on_c, 1, 75, 0
2, 199782137, Note_on_c, 1, 75, 37
2, 199812417, Note_on_c, 1, 75, 0
2, 199842710, Note_on_c, 1, 75, 37
2, 199873275, Note_on_c, 1, 68, 0
2, 199903840, Note_on_c, 1, 71, 0
2, 199934405, Note_on_c, 1, 71, 37
2, 199965384, Note_on_c, 1, 68, 37
2, 199995365, Note_on_c, 1, 75, 0
2, 200027148, Note_on_c, 1, 75, 37
2, 200059202, Note_on_c, 1, 75, 0
2, 200091269, Note_on_c, 1, 75, 37
2, 200123607, Note_on_c, 1, 68, 0
2, 200155945, Note_on_c, 1, 71, 0
2, 200188283, Note_on_c, 1, 71, 40
2, 200220905, Note_on_c, 1, 68, 40
2, 200253509, Note_on_c, 1, 75, 0
2, 200286144, Note_on_c, 1, 75, 38
2, 200286410, Note_on_c, 1, 75, 0
2, 200286689, Note_on_c, 1, 75, 38
2, 200287004, Note_on_c, 1, 83, 75
2, 200287055, Note_on_c, 1, 80, 75
2, 200287106, Note_on_c, 1, 88, 75
2, 200287208, Note_on_c, 1, 75, 0
2, 200287272, Note_on_c, 1, 75, 40
2, 200287608, Note_on_c, 1, 75, 0
2, 200287957, Note_on_c, 1, 75, 40
2, 200288579, Note_on_c, 1, 75, 0
2, 200289214, Note_on_c, 1, 75, 46
2, 200292063, Note_on_c, 1, 75, 0
2, 200293890, Note_on_c, 1, 75, 38
2, 200295988, Note_on_c, 1, 75, 0
2, 200298099, Note_on_c, 1, 75, 37
2, 200302216, Note_on_c, 1, 75, 0
2, 200303835, Note_on_c, 1, 75, 41
2, 200307745, Note_on_c, 1, 75, 0
2, 200309649, Note_on_c, 1, 75, 37
2, 200311953, Note_on_c, 1, 75, 0
2, 200314271, Note_on_c, 1, 75, 37
2, 200316861, Note_on_c, 1, 71, 0
2, 200319451, Note_on_c, 1, 68, 0
2, 200322041, Note_on_c, 1, 68, 39
2, 200324916, Note_on_c, 1, 71, 39
2, 200327791, Note_on_c, 1, 83, 0
2, 200330666, Note_on_c, 1, 80, 0
2, 200337699, Note_on_c, 1, 75, 0
2, 200341870, Note_on_c, 1, 75, 38
2, 200346311, Note_on_c, 1, 75, 0
2, 200350765, Note_on_c, 1, 75, 38
2, 200359063, Note_on_c, 1, 80, 56
2, 200362922, Note_on_c, 1, 83, 56
2, 200370640, Note_on_c, 1, 75, 0
2, 200374512, Note_on_c, 1, 75, 36
2, 200378657, Note_on_c, 1, 75, 0
2, 200382815, Note_on_c, 1, 75, 36
2, 200387245, Note_on_c, 1, 75, 0
2, 200391688, Note_on_c, 1, 75, 39
2, 200402011, Note_on_c, 1, 75, 0
2, 200407504, Note_on_c, 1, 75, 35
2, 200413396, Note_on_c, 1, 75, 0
2, 200419301, Note_on_c, 1, 75, 35
2, 200430891, Note_on_c, 1, 75, 0
2, 200436318, Note_on_c, 1, 75, 39
2, 200447846, Note_on_c, 1, 75, 0
2, 200453559, Note_on_c, 1, 75, 36
2, 200459544, Note_on_c, 1, 75, 0
2, 200465542, Note_on_c, 1, 75, 37
2, 200471812, Note_on_c, 1, 75, 0
2, 200478223, Note_on_c, 1, 75, 39
2, 200484907, Note_on_c, 1, 82, 0
2, 200491591, Note_on_c, 1, 79, 0
2, 200505715, Note_on_c, 1, 75, 0
2, 200513168, Note_on_c, 1, 75, 36
2, 200520892, Note_on_c, 1, 75, 0
2, 200528629, Note_on_c, 1, 75, 36
2, 200536637, Note_on_c, 1, 67, 0
2, 200544645, Note_on_c, 1, 63, 0
2, 200560036, Note_on_c, 1, 82, 58
2, 200567576, Note_on_c, 1, 79, 58
2, 200575116, Note_on_c, 1, 73, 0
2, 200596937, Note_on_c, 1, 73, 44
2, 200611319, Note_on_c, 1, 72, 0
2, 200617517, Note_on_c, 1, 72, 48
2, 200642193, Note_on_c, 1, 73, 0
2, 200666869, Note_on_c, 1, 73, 42
2, 200691766, Note_on_c, 1, 75, 0
2, 200718708, Note_on_c, 1, 75, 46
2, 200720837, Note_on_c, 1, 73, 0
2, 200739290, Note_on_c, 1, 73, 40
2, 200743208, Note_on_c, 1, 75, 0
2, 200766547, Note_on_c, 1, 75, 43
2, 200771944, Note_on_c, 1, 73, 0
2, 200795516, Note_on_c, 1, 73, 46
2, 200801939, Note_on_c, 1, 75, 0
2, 200830706, Note_on_c, 1, 75, 42
2, 200839242, Note_on_c, 1, 73, 0
2, 200861835, Note_on_c, 1, 73, 46
2, 200868773, Note_on_c, 1, 75, 0
2, 200882370, Note_on_c, 1, 75, 41
2, 200889082, Note_on_c, 1, 73, 0
2, 200902224, Note_on_c, 1, 73, 44
2, 200908708, Note_on_c, 1, 75, 0
2, 200921526, Note_on_c, 1, 75, 41
2, 200927786, Note_on_c, 1, 73, 0
2, 200940153, Note_on_c, 1, 73, 46
2, 200946314, Note_on_c, 1, 75, 0
2, 200958354, Note_on_c, 1, 75, 41
2, 200964287, Note_on_c, 1, 73, 0
2, 200975870, Note_on_c, 1, 63, 36
2, 200981575, Note_on_c, 1, 67, 36
2, 200987280, Note_on_c, 1, 73, 46
2, 200992985, Note_on_c, 1, 67, 0
2, 200998690, Note_on_c, 1, 64, 0
2, 201004395, Note_on_c, 1, 72, 0
2, 201009885, Note_on_c, 1, 72, 48
2, 201042481, Note_on_c, 1, 73, 0
2, 201075077, Note_on_c, 1, 73, 52
2, 201075164, Note_on_c, 1, 72, 0
2, 201082137, Note_on_c, 1, 64, 36
2, 201090605, Note_on_c, 1, 67, 36
2, 201099073, Note_on_c, 1, 72, 48
2, 201111622, Note_on_c, 1, 79, 0
2, 201115577, Note_on_c, 1, 84, 0
2, 201119532, Note_on_c, 1, 76, 0
2, 201123487, Note_on_c, 1, 48, 0
2, 201127446, Note_on_c, 1, 40, 0
2, 201131405, Note_on_c, 1, 43, 0
2, 201135364, Note_on_c, 1, 79, 78
2, 201139991, Note_on_c, 1, 84, 94
2, 201144618, Note_on_c, 1, 76, 78
2, 201161125, Note_on_c, 1, 76, 0
2, 201173008, Note_on_c, 1, 79, 0
2, 201184891, Note_on_c, 1, 72, 0
2, 201196774, Note_on_c, 1, 40, 55
2, 201209067, Note_on_c, 1, 48, 73
2, 201221360, Note_on_c, 1, 43, 63
2, 201233653, Note_on_c, 1, 48, 0
2, 201245949, Note_on_c, 1, 43, 0
2, 201258245, Note_on_c, 1, 40, 0
2, 201270541, Note_on_c, 1, 79, 103
2, 201283119, Note_on_c, 1, 76, 86
2, 201295697, Note_on_c, 1, 72, 76
2, 201308275, Note_on_c, 1, 72, 0
2, 201320856, Note_on_c, 1, 76, 0
2, 201333437, Note_on_c, 1, 67, 0
2, 201346018, Note_on_c, 1, 43, 69
2, 201358881, Note_on_c, 1, 48, 81
2, 201371744, Note_on_c, 1, 40, 61
2, 201384607, Note_on_c, 1, 40, 0
2, 201397473, Note_on_c, 1, 48, 0
2, 201410339, Note_on_c, 1, 43, 0
2, 201423205, Note_on_c, 1, 76, 95
2, 201436353, Note_on_c, 1, 72, 80
2, 201449501, Note_on_c, 1, 67, 72
2, 201462649, Note_on_c, 1, 67, 0
2, 201475800, Note_on_c, 1, 72, 0
2, 201488951, Note_on_c, 1, 64, 0
2, 201502102, Note_on_c, 1, 48, 73
2, 201515535, Note_on_c, 1, 40, 55
2, 201528968, Note_on_c, 1, 43, 63
2, 201542401, Note_on_c, 1, 48, 0
2, 201555837, Note_on_c, 1, 43, 0
2, 201569273, Note_on_c, 1, 40, 0
2, 201582709, Note_on_c, 1, 72, 96
2, 201596554, Note_on_c, 1, 67, 79
2, 201610399, Note_on_c, 1, 64, 71
2, 201624244, Note_on_c, 1, 64, 0
2, 201638093, Note_on_c, 1, 67, 0
2, 201651942, Note_on_c, 1, 60, 0
2, 201665791, Note_on_c, 1, 43, 64
2, 201679921, Note_on_c, 1, 48, 76
2, 201694051, Note_on_c, 1, 40, 57
2, 201708181, Note_on_c, 1, 48, 0
2, 201722315, Note_on_c, 1, 40, 0
2, 201736449, Note_on_c, 1, 43, 0
2, 201750583, Note_on_c, 1, 67, 96
2, 201764998, Note_on_c, 1, 64, 81
2, 201779413, Note_on_c, 1, 60, 72
2, 201793828, Note_on_c, 1, 64, 0
2, 201808247, Note_on_c, 1, 60, 0
2, 201822666, Note_on_c, 1, 55, 0
2, 201837085, Note_on_c, 1, 40, 61
2, 201851785, Note_on_c, 1, 48, 81
2, 201866485, Note_on_c, 1, 43, 69
2, 201881185, Note_on_c, 1, 55, 75
2, 201896298, Note_on_c, 1, 64, 101
2, 201911411, Note_on_c, 1, 60, 85
2, 201943681, Note_on_c, 1, 60, 0
2, 201960840, Note_on_c, 1, 55, 0
2, 201977999, Note_on_c, 1, 52, 0
2, 201995158, Note_on_c, 1, 52, 81
2, 202012658, Note_on_c, 1, 55, 81
2, 202030158, Note_on_c, 1, 60, 103
2, 202047658, Note_on_c, 1, 65, 0
2, 202065158, Note_on_c, 1, 71, 0
2, 202082658, Note_on_c, 1, 68, 0
2, 202100158, Note_on_c, 1, 74, 0
2, 202108904, Note_on_c, 1, 74, 38
2, 202133019, Note_on_c, 1, 76, 0
2, 202157874, Note_on_c, 1, 76, 41
2, 202158707, Note_on_c, 1, 72, 0
2, 202159540, Note_on_c, 1, 72, 36
2, 202160593, Note_on_c, 1, 74, 0
2, 202171691, Note_on_c, 1, 74, 35
2, 202181948, Note_on_c, 1, 76, 0
2, 202192041, Note_on_c, 1, 76, 39
2, 202203315, Note_on_c, 1, 74, 0
2, 202217458, Note_on_c, 1, 74, 35
2, 202229609, Note_on_c, 1, 76, 0
2, 202247628, Note_on_c, 1, 76, 37
2, 202260776, Note_on_c, 1, 74, 0
2, 202282635, Note_on_c, 1, 74, 39
2, 202296770, Note_on_c, 1, 76, 0
2, 202323494, Note_on_c, 1, 76, 36
2, 202339655, Note_on_c, 1, 74, 0
2, 202352492, Note_on_c, 1, 74, 38
2, 202367129, Note_on_c, 1, 76, 0
2, 202396137, Note_on_c, 1, 76, 36
2, 202410562, Note_on_c, 1, 74, 0
2, 202439270, Note_on_c, 1, 74, 38
2, 202453607, Note_on_c, 1, 76, 0
2, 202481888, Note_on_c, 1, 76, 36
2, 202496014, Note_on_c, 1, 74, 0
2, 202523998, Note_on_c, 1, 76, 0
2, 202537883, Note_on_c, 1, 74, 39
2, 202565566, Note_on_c, 1, 76, 35
2, 202579391, Note_on_c, 1, 74, 0
2, 202606643, Note_on_c, 1, 65, 30
2, 202620253, Note_on_c, 1, 71, 30
2, 202633863, Note_on_c, 1, 68, 30
2, 202647473, Note_on_c, 1, 74, 39
2, 202661083, Note_on_c, 1, 67, 0
2, 202674693, Note_on_c, 1, 64, 0
2, 202688303, Note_on_c, 1, 74, 0
2, 202710112, Note_on_c, 1, 74, 45
2, 202718614, Note_on_c, 1, 72, 0
2, 202741748, Note_on_c, 1, 64, 30
2, 202757961, Note_on_c, 1, 67, 30
2, 202774174, Note_on_c, 1, 72, 41
2, 202774806, Note_on_c, 1, 79, 0
2, 202791996, Note_on_c, 1, 76, 0
2, 202809186, Note_on_c, 1, 84, 0
2, 202826376, Note_on_c, 1, 48, 0
2, 202843569, Note_on_c, 1, 40, 0
2, 202860762, Note_on_c, 1, 43, 0
2, 202877955, Note_on_c, 1, 79, 78
2, 202895689, Note_on_c, 1, 76, 78
2, 202913423, Note_on_c, 1, 84, 94
2, 202917876, Note_on_c, 1, 72, 0
2, 202937366, Note_on_c, 1, 76, 0
2, 202956856, Note_on_c, 1, 79, 0
2, 202976346, Note_on_c, 1, 40, 55
2, 202996117, Note_on_c, 1, 48, 73
2, 203015888, Note_on_c, 1, 43, 63
2, 203035659, Note_on_c, 1, 48, 0
2, 203055434, Note_on_c, 1, 43, 0
2, 203075209, Note_on_c, 1, 40, 0
2, 203094984, Note_on_c, 1, 76, 86
2, 203115040, Note_on_c, 1, 72, 76
2, 203135096, Note_on_c, 1, 79, 103
2, 203155152, Note_on_c, 1, 67, 0
2, 203175212, Note_on_c, 1, 72, 0
2, 203195272, Note_on_c, 1, 76, 0
2, 203215332, Note_on_c, 1, 43, 69
2, 203235673, Note_on_c, 1, 48, 81
2, 203256014, Note_on_c, 1, 40, 61
2, 203276355, Note_on_c, 1, 40, 0
2, 203296700, Note_on_c, 1, 48, 0
2, 203317045, Note_on_c, 1, 43, 0
2, 203337390, Note_on_c, 1, 72, 80
2, 203358144, Note_on_c, 1, 67, 72
2, 203378898, Note_on_c, 1, 76, 95
2, 203399652, Note_on_c, 1, 64, 0
2, 203420410, Note_on_c, 1, 67, 0
2, 203441168, Note_on_c, 1, 72, 0
2, 203461926, Note_on_c, 1, 48, 73
2, 203482965, Note_on_c, 1, 40, 55
2, 203504004, Note_on_c, 1, 43, 63
2, 203525043, Note_on_c, 1, 48, 0
2, 203546086, Note_on_c, 1, 43, 0
2, 203567129, Note_on_c, 1, 40, 0
2, 203588172, Note_on_c, 1, 67, 79
2, 203609496, Note_on_c, 1, 64, 71
2, 203630820, Note_on_c, 1, 72, 96
2, 203652144, Note_on_c, 1, 67, 0
2, 203673472, Note_on_c, 1, 60, 0
2, 203694800, Note_on_c, 1, 64, 0
2, 203716128, Note_on_c, 1, 43, 64
2, 203737737, Note_on_c, 1, 48, 76
2, 203759346, Note_on_c, 1, 40, 57
2, 203780955, Note_on_c, 1, 48, 0
2, 203802567, Note_on_c, 1, 40, 0
2, 203824179, Note_on_c, 1, 43, 0
2, 203845791, Note_on_c, 1, 60, 72
2, 203867813, Note_on_c, 1, 67, 96
2, 203889835, Note_on_c, 1, 64, 81
2, 203911857, Note_on_c, 1, 64, 0
2, 203933882, Note_on_c, 1, 60, 0
2, 203955907, Note_on_c, 1, 55, 0
2, 203977932, Note_on_c, 1, 40, 61
2, 204000239, Note_on_c, 1, 48, 81
2, 204022546, Note_on_c, 1, 43, 69
2, 204044853, Note_on_c, 1, 55, 75
2, 204067445, Note_on_c, 1, 64, 101
2, 204090037, Note_on_c, 1, 60, 85
2, 204112629, Note_on_c, 1, 60, 0
2, 204135221, Note_on_c, 1, 55, 0
2, 204157813, Note_on_c, 1, 52, 0
2, 204175073, Note_on_c, 1, 52, 81
2, 204202979, Note_on_c, 1, 55, 81
2, 204230885, Note_on_c, 1, 60, 103
2, 204258791, Note_on_c, 1, 65, 0
2, 204286697, Note_on_c, 1, 41, 0
2, 204314645, Note_on_c, 1, 41, 30
2, 204335672, Note_on_c, 1, 65, 39
2, 204340605, Note_on_c, 1, 77, 0
2, 204357283, Note_on_c, 1, 53, 0
2, 204362511, Note_on_c, 1, 53, 33
2, 204384539, Note_on_c, 1, 77, 39
2, 204406567, Note_on_c, 1, 72, 0
2, 204428595, Note_on_c, 1, 48, 0
2, 204432551, Note_on_c, 1, 48, 28
2, 204447465, Note_on_c, 1, 72, 36
2, 204462379, Note_on_c, 1, 68, 0
2, 204477293, Note_on_c, 1, 44, 0
2, 204503177, Note_on_c, 1, 44, 33
2, 204526078, Note_on_c, 1, 68, 41
2, 204548979, Note_on_c, 1, 65, 0
2, 204571880, Note_on_c, 1, 41, 0
2, 204588867, Note_on_c, 1, 41, 33
2, 204616569, Note_on_c, 1, 65, 39
2, 204644271, Note_on_c, 1, 60, 0
2, 204671973, Note_on_c, 1, 36, 0
2, 204679168, Note_on_c, 1, 36, 28
2, 204691523, Note_on_c, 1, 60, 35
2, 204703878, Note_on_c, 1, 56, 0
2, 204716233, Note_on_c, 1, 32, 0
2, 204737829, Note_on_c, 1, 32, 33
2, 204759631, Note_on_c, 1, 56, 41
2, 204781433, Note_on_c, 1, 41, 0
2, 204803235, Note_on_c, 1, 36, 0
2, 204825037, Note_on_c, 1, 80, 0
2, 204846839, Note_on_c, 1, 84, 0
2, 204868641, Note_on_c, 1, 77, 0
2, 204890443, Note_on_c, 1, 29, 0
2, 204912245, Note_on_c, 1, 89, 0
2, 204934047, Note_on_c, 1, 32, 0
2, 204944158, Note_on_c, 1, 32, 61
2, 204968314, Note_on_c, 1, 41, 81
2, 204992470, Note_on_c, 1, 36, 69
2, 205016626, Note_on_c, 1, 29, 61
2, 205040782, Note_on_c, 1, 80, 86
2, 205064938, Note_on_c, 1, 84, 86
2, 205089094, Note_on_c, 1, 77, 76
2, 205113250, Note_on_c, 1, 89, 103
2, 205137406, Note_on_c, 1, 80, 0
2, 205161563, Note_on_c, 1, 84, 0
2, 205185720, Note_on_c, 1, 72, 0
2, 205209877, Note_on_c, 1, 77, 0
2, 205234034, Note_on_c, 1, 36, 0
2, 205258193, Note_on_c, 1, 29, 0
2, 205282352, Note_on_c, 1, 41, 0
2, 205306511, Note_on_c, 1, 32, 0
2, 205330670, Note_on_c, 1, 72, 71
2, 205355253, Note_on_c, 1, 80, 78
2, 205379836, Note_on_c, 1, 84, 94
2, 205404419, Note_on_c, 1, 77, 78
2, 205427003, Note_on_c, 1, 68, 0
2, 205457775, Note_on_c, 1, 80, 0
2, 205488547, Note_on_c, 1, 72, 0
2, 205519319, Note_on_c, 1, 77, 0
2, 205550091, Note_on_c, 1, 29, 55
2, 205581145, Note_on_c, 1, 41, 73
2, 205612199, Note_on_c, 1, 36, 63
2, 205643253, Note_on_c, 1, 32, 55
2, 205674307, Note_on_c, 1, 29, 0
2, 205705364, Note_on_c, 1, 36, 0
2, 205736421, Note_on_c, 1, 41, 0
2, 205767478, Note_on_c, 1, 32, 0
2, 205798535, Note_on_c, 1, 80, 103
2, 205829874, Note_on_c, 1, 72, 76
2, 205861213, Note_on_c, 1, 68, 76
2, 205892552, Note_on_c, 1, 77, 86
2, 205923891, Note_on_c, 1, 77, 0
2, 205955233, Note_on_c, 1, 68, 0
2, 205986575, Note_on_c, 1, 65, 0
2, 206017917, Note_on_c, 1, 72, 0
2, 206049259, Note_on_c, 1, 36, 69
2, 206081011, Note_on_c, 1, 41, 81
2, 206112763, Note_on_c, 1, 29, 61
2, 206144515, Note_on_c, 1, 32, 61
2, 206176267, Note_on_c, 1, 36, 0
2, 206208022, Note_on_c, 1, 29, 0
2, 206239777, Note_on_c, 1, 41, 0
2, 206271532, Note_on_c, 1, 32, 0
2, 206303287, Note_on_c, 1, 68, 72
2, 206335323, Note_on_c, 1, 65, 72
2, 206367359, Note_on_c, 1, 77, 95
2, 206399395, Note_on_c, 1, 72, 80
2, 206431431, Note_on_c, 1, 72, 0
2, 206463471, Note_on_c, 1, 68, 0
2, 206495511, Note_on_c, 1, 65, 0
2, 206527551, Note_on_c, 1, 60, 0
2, 206559591, Note_on_c, 1, 29, 55
2, 206591912, Note_on_c, 1, 41, 73
2, 206624233, Note_on_c, 1, 36, 63
2, 206656554, Note_on_c, 1, 32, 55
2, 206688875, Note_on_c, 1, 36, 0
2, 206721200, Note_on_c, 1, 29, 0
2, 206753525, Note_on_c, 1, 41, 0
2, 206785850, Note_on_c, 1, 32, 0
2, 206818175, Note_on_c, 1, 68, 79
2, 206850781, Note_on_c, 1, 65, 71
2, 206883387, Note_on_c, 1, 72, 96
2, 206915993, Note_on_c, 1, 60, 71
2, 206948599, Note_on_c, 1, 56, 0
2, 206981209, Note_on_c, 1, 68, 0
2, 207013819, Note_on_c, 1, 65, 0
2, 207046429, Note_on_c, 1, 60, 0
2, 207079039, Note_on_c, 1, 29, 57
2, 207079162, Note_on_c, 1, 41, 76
2, 207079285, Note_on_c, 1, 36, 64
2, 207079408, Note_on_c, 1, 32, 57
2, 207079531, Note_on_c, 1, 29, 0
2, 207079658, Note_on_c, 1, 36, 0
2, 207079785, Note_on_c, 1, 41, 0
2, 207079912, Note_on_c, 1, 32, 0
2, 207080039, Note_on_c, 1, 68, 96
2, 207080575, Note_on_c, 1, 65, 81
2, 207081111, Note_on_c, 1, 56, 72
2, 207081647, Note_on_c, 1, 60, 72
2, 207082183, Note_on_c, 1, 65, 0
2, 207082723, Note_on_c, 1, 60, 0
2, 207083263, Note_on_c, 1, 56, 0
2, 207083803, Note_on_c, 1, 53, 0
2, 207084343, Note_on_c, 1, 36, 69
2, 207085164, Note_on_c, 1, 41, 81
2, 207085985, Note_on_c, 1, 29, 61
2, 207086806, Note_on_c, 1, 32, 61
2, 207087627, Note_on_c, 1, 53, 75
2, 207088733, Note_on_c, 1, 56, 75
2, 207089839, Note_on_c, 1, 65, 101
2, 207090945, Note_on_c, 1, 60, 85
2, 207092051, Note_on_c, 1, 53, 0
2, 207093157, Note_on_c, 1, 29, 0
2, 207104476, Note_on_c, 1, 29, 81
2, 207115032, Note_on_c, 1, 53, 103
2, 207125588, Note_on_c, 1, 56, 0
2, 207136144, Note_on_c, 1, 32, 0
2, 207137439, Note_on_c, 1, 32, 25
2, 207161038, Note_on_c, 1, 56, 31
2, 207184637, Note_on_c, 1, 60, 0
2, 207208236, Note_on_c, 1, 36, 0
2, 207221563, Note_on_c, 1, 36, 27
2, 207247274, Note_on_c, 1, 60, 35
2, 207272985, Note_on_c, 1, 60, 0
2, 207298889, Note_on_c, 1, 52, 0
2, 207324793, Note_on_c, 1, 40, 0
2, 207350697, Note_on_c, 1, 48, 0
2, 207376601, Note_on_c, 1, 55, 0
2, 207402505, Note_on_c, 1, 55, 48
2, 207433004, Note_on_c, 1, 60, 48
2, 207463503, Note_on_c, 1, 48, 40
2, 207494002, Note_on_c, 1, 52, 48
2, 207524501, Note_on_c, 1, 40, 40
2, 207535028, Note_on_c, 1, 61, 0
2, 207548952, Note_on_c, 1, 29, 0
2, 207562876, Note_on_c, 1, 41, 0
2, 207576800, Note_on_c, 1, 56, 0
2, 207590724, Note_on_c, 1, 49, 0
2, 207613611, Note_on_c, 1, 49, 86
2, 207622937, Note_on_c, 1, 61, 86
2, 207632263, Note_on_c, 1, 56, 86
2, 207641589, Note_on_c, 1, 29, 72
2, 207650915, Note_on_c, 1, 41, 72
2, 207660241, Note_on_c, 1, 58, 0
2, 207687191, Note_on_c, 1, 58, 89
2, 207692127, Note_on_c, 1, 55, 0
2, 207707756, Note_on_c, 1, 55, 73
2, 207713199, Note_on_c, 1, 52, 0
2, 207724479, Note_on_c, 1, 52, 82
2, 207730215, Note_on_c, 1, 49, 0
2, 207742053, Note_on_c, 1, 49, 67
2, 207748209, Note_on_c, 1, 46, 0
2, 207767233, Note_on_c, 1, 46, 77
2, 207773890, Note_on_c, 1, 43, 0
2, 207787466, Note_on_c, 1, 43, 67
2, 207794412, Note_on_c, 1, 40, 0
2, 207808539, Note_on_c, 1, 40, 77
2, 207815773, Note_on_c, 1, 34, 0
2, 207830449, Note_on_c, 1, 34, 67
2, 207837971, Note_on_c, 1, 31, 0
2, 207861132, Note_on_c, 1, 31, 73
2, 207869069, Note_on_c, 1, 52, 0
2, 207873739, Note_on_c, 1, 52, 60
2, 207903463, Note_on_c, 1, 46, 0
2, 207906560, Note_on_c, 1, 46, 75
2, 207912782, Note_on_c, 1, 55, 0
2, 207936969, Note_on_c, 1, 55, 64
2, 207946042, Note_on_c, 1, 52, 0
2, 207964546, Note_on_c, 1, 52, 75
2, 207974029, Note_on_c, 1, 58, 0
2, 207993021, Note_on_c, 1, 58, 63
2, 208002582, Note_on_c, 1, 55, 0
2, 208012143, Note_on_c, 1, 55, 75
2, 208021910, Note_on_c, 1, 64, 0
2, 208031677, Note_on_c, 1, 64, 71
2, 208041521, Note_on_c, 1, 58, 0
2, 208051365, Note_on_c, 1, 58, 79
2, 208061415, Note_on_c, 1, 67, 0
2, 208071465, Note_on_c, 1, 67, 70
2, 208081721, Note_on_c, 1, 64, 0
2, 208091977, Note_on_c, 1, 64, 80
2, 208102311, Note_on_c, 1, 70, 0
2, 208112645, Note_on_c, 1, 70, 73
2, 208123185, Note_on_c, 1, 67, 0
2, 208133725, Note_on_c, 1, 67, 80
2, 208144343, Note_on_c, 1, 76, 0
2, 208154961, Note_on_c, 1, 76, 71
2, 208165784, Note_on_c, 1, 70, 0
2, 208176607, Note_on_c, 1, 70, 81
2, 208187636, Note_on_c, 1, 79, 0
2, 208198665, Note_on_c, 1, 79, 74
2, 208209772, Note_on_c, 1, 76, 0
2, 208220879, Note_on_c, 1, 76, 81
2, 208232192, Note_on_c, 1, 82, 0
2, 208254745, Note_on_c, 1, 82, 74
2, 208266063, Note_on_c, 1, 79, 0
2, 208288651, Note_on_c, 1, 79, 83
2, 208299973, Note_on_c, 1, 88, 0
2, 208311295, Note_on_c, 1, 88, 75
2, 208322823, Note_on_c, 1, 82, 0
2, 208345678, Note_on_c, 1, 82, 83
2, 208357211, Note_on_c, 1, 91, 0
2, 208380102, Note_on_c, 1, 91, 76
2, 208391640, Note_on_c, 1, 88, 0
2, 208403178, Note_on_c, 1, 88, 85
2, 208414795, Note_on_c, 1, 91, 0
2, 208437955, Note_on_c, 1, 91, 76
2, 208449577, Note_on_c, 1, 94, 0
2, 208472902, Note_on_c, 1, 94, 85
2, 208484529, Note_on_c, 1, 88, 0
2, 208496156, Note_on_c, 1, 88, 75
2, 208507991, Note_on_c, 1, 91, 0
2, 208531587, Note_on_c, 1, 91, 85
2, 208543427, Note_on_c, 1, 82, 0
2, 208567059, Note_on_c, 1, 82, 76
2, 208578904, Note_on_c, 1, 88, 0
2, 208590749, Note_on_c, 1, 88, 85
2, 208602802, Note_on_c, 1, 79, 0
2, 208614855, Note_on_c, 1, 82, 0
2, 208640716, Note_on_c, 1, 82, 83
2, 208654903, Note_on_c, 1, 79, 83
2, 208669090, Note_on_c, 1, 82, 0
2, 208683277, Note_on_c, 1, 79, 0
2, 208683279, Note_on_c, 1, 79, 77
2, 208702229, Note_on_c, 1, 82, 77
2, 208721179, Note_on_c, 1, 82, 0
2, 208740129, Note_on_c, 1, 79, 0
2, 208748657, Note_on_c, 1, 79, 83
2, 208771487, Note_on_c, 1, 82, 83
2, 208799441, Note_on_c, 1, 36, 0
2, 208808769, Note_on_c, 1, 36, 26
2, 208812980, Note_on_c, 1, 37, 0
2, 208817191, Note_on_c, 1, 37, 26
2, 208822076, Note_on_c, 1, 37, 0
2, 208839004, Note_on_c, 1, 37, 26
2, 208851571, Note_on_c, 1, 37, 0
2, 208880839, Note_on_c, 1, 37, 27
2, 208895493, Note_on_c, 1, 79, 0
2, 208926046, Note_on_c, 1, 82, 0
2, 208956599, Note_on_c, 1, 82, 35
2, 208988092, Note_on_c, 1, 79, 35
2, 209019585, Note_on_c, 1, 76, 0
2, 209051078, Note_on_c, 1, 79, 0
2, 209067841, Note_on_c, 1, 79, 35
2, 209086391, Note_on_c, 1, 76, 35
2, 209104941, Note_on_c, 1, 79, 0
2, 209123491, Note_on_c, 1, 76, 0
2, 209134292, Note_on_c, 1, 76, 31
2, 209159676, Note_on_c, 1, 79, 31
2, 209185060, Note_on_c, 1, 76, 0
2, 209210444, Note_on_c, 1, 79, 0
2, 209235828, Note_on_c, 1, 79, 35
2, 209261704, Note_on_c, 1, 76, 35
2, 209265804, Note_on_c, 1, 36, 0
2, 209277408, Note_on_c, 1, 36, 26
2, 209298990, Note_on_c, 1, 37, 0
2, 209308755, Note_on_c, 1, 37, 26
2, 209329553, Note_on_c, 1, 37, 0
2, 209340585, Note_on_c, 1, 37, 26
2, 209363472, Note_on_c, 1, 37, 0
2, 209375327, Note_on_c, 1, 37, 27
2, 209404076, Note_on_c, 1, 70, 0
2, 209421045, Note_on_c, 1, 67, 0
2, 209438014, Note_on_c, 1, 76, 0
2, 209454983, Note_on_c, 1, 73, 0
2, 209471952, Note_on_c, 1, 73, 26
2, 209489637, Note_on_c, 1, 70, 22
2, 209507322, Note_on_c, 1, 67, 22
2, 209525007, Note_on_c, 1, 76, 35
2, 209542692, Note_on_c, 1, 70, 0
2, 209560377, Note_on_c, 1, 73, 0
2, 209578062, Note_on_c, 1, 68, 0
2, 209595747, Note_on_c, 1, 77, 0
2, 209615045, Note_on_c, 1, 77, 35
2, 209616897, Note_on_c, 1, 79, 0
2, 209626193, Note_on_c, 1, 79, 40
2, 209633738, Note_on_c, 1, 76, 0
2, 209641283, Note_on_c, 1, 76, 34
2, 209649057, Note_on_c, 1, 77, 0
2, 209663447, Note_on_c, 1, 77, 33
2, 209683225, Note_on_c, 1, 79, 0
2, 209690204, Note_on_c, 1, 79, 39
2, 209710227, Note_on_c, 1, 77, 0
2, 209737999, Note_on_c, 1, 77, 33
2, 209758329, Note_on_c, 1, 79, 0
2, 209766566, Note_on_c, 1, 79, 36
2, 209787139, Note_on_c, 1, 77, 0
2, 209795861, Note_on_c, 1, 77, 39
2, 209816677, Note_on_c, 1, 79, 0
2, 209825730, Note_on_c, 1, 79, 35
2, 209846788, Note_on_c, 1, 77, 0
2, 209856325, Note_on_c, 1, 77, 39
2, 209877624, Note_on_c, 1, 79, 0
2, 209887394, Note_on_c, 1, 79, 35
2, 209908685, Note_on_c, 1, 77, 0
2, 209918438, Note_on_c, 1, 77, 39
2, 209939721, Note_on_c, 1, 79, 0
2, 209949458, Note_on_c, 1, 79, 35
2, 209970733, Note_on_c, 1, 77, 0
2, 209980326, Note_on_c, 1, 77, 39
2, 210001593, Note_on_c, 1, 79, 0
2, 210011170, Note_on_c, 1, 79, 34
2, 210032429, Note_on_c, 1, 77, 0
2, 210041990, Note_on_c, 1, 68, 26
2, 210063241, Note_on_c, 1, 73, 26
2, 210084492, Note_on_c, 1, 70, 26
2, 210105743, Note_on_c, 1, 77, 39
2, 210126994, Note_on_c, 1, 67, 0
2, 210148245, Note_on_c, 1, 73, 0
2, 210169496, Note_on_c, 1, 70, 0
2, 210190747, Note_on_c, 1, 77, 0
2, 210207458, Note_on_c, 1, 77, 38
2, 210220616, Note_on_c, 1, 76, 0
2, 210250632, Note_on_c, 1, 70, 26
2, 210269147, Note_on_c, 1, 73, 26
2, 210287662, Note_on_c, 1, 67, 26
2, 210306177, Note_on_c, 1, 76, 35
2, 210310305, Note_on_c, 1, 36, 0
2, 210330348, Note_on_c, 1, 36, 26
2, 210336834, Note_on_c, 1, 37, 0
2, 210355831, Note_on_c, 1, 37, 26
2, 210362047, Note_on_c, 1, 37, 0
2, 210382034, Note_on_c, 1, 37, 26
2, 210390091, Note_on_c, 1, 37, 0
2, 210396781, Note_on_c, 1, 37, 27
2, 210407349, Note_on_c, 1, 72, 0
2, 210432453, Note_on_c, 1, 64, 0
2, 210457557, Note_on_c, 1, 67, 0
2, 210482661, Note_on_c, 1, 67, 26
2, 210508353, Note_on_c, 1, 64, 22
2, 210534045, Note_on_c, 1, 72, 35
2, 210559737, Note_on_c, 1, 68, 0
2, 210585429, Note_on_c, 1, 71, 0
2, 210611121, Note_on_c, 1, 65, 0
2, 210636813, Note_on_c, 1, 74, 0
2, 210642046, Note_on_c, 1, 74, 33
2, 210654594, Note_on_c, 1, 76, 0
2, 210684306, Note_on_c, 1, 76, 37
2, 210701571, Note_on_c, 1, 72, 0
2, 210718836, Note_on_c, 1, 72, 33
2, 210736330, Note_on_c, 1, 74, 0
2, 210765060, Note_on_c, 1, 74, 33
2, 210790204, Note_on_c, 1, 76, 0
2, 210822575, Note_on_c, 1, 76, 37
2, 210849712, Note_on_c, 1, 74, 0
2, 210865904, Note_on_c, 1, 74, 31
2, 210893331, Note_on_c, 1, 76, 0
2, 210910351, Note_on_c, 1, 76, 35
2, 210938013, Note_on_c, 1, 74, 0
2, 210955777, Note_on_c, 1, 74, 40
2, 210983727, Note_on_c, 1, 76, 0
2, 211007039, Note_on_c, 1, 76, 37
2, 211035222, Note_on_c, 1, 74, 0
2, 211054545, Note_on_c, 1, 74, 41
2, 211083013, Note_on_c, 1, 76, 0
2, 211107156, Note_on_c, 1, 76, 36
2, 211135626, Note_on_c, 1, 74, 0
2, 211159746, Note_on_c, 1, 74, 39
2, 211188218, Note_on_c, 1, 76, 0
2, 211207969, Note_on_c, 1, 76, 36
2, 211236391, Note_on_c, 1, 74, 0
2, 211260314, Note_on_c, 1, 74, 40
2, 211288738, Note_on_c, 1, 76, 0
2, 211312637, Note_on_c, 1, 76, 35
2, 211341063, Note_on_c, 1, 74, 0
2, 211364966, Note_on_c, 1, 65, 26
2, 211393393, Note_on_c, 1, 71, 26
2, 211421820, Note_on_c, 1, 68, 26
2, 211450247, Note_on_c, 1, 74, 43
2, 211478674, Note_on_c, 1, 67, 0
2, 211507101, Note_on_c, 1, 64, 0
2, 211535528, Note_on_c, 1, 72, 0
2, 211553213, Note_on_c, 1, 72, 38
2, 211575287, Note_on_c, 1, 74, 0
2, 211597361, Note_on_c, 1, 74, 42
2, 211619706, Note_on_c, 1, 72, 0
2, 211634632, Note_on_c, 1, 64, 26
2, 211661638, Note_on_c, 1, 67, 26
2, 211688644, Note_on_c, 1, 72, 35
2, 211709906, Note_on_c, 1, 56, 0
2, 211740383, Note_on_c, 1, 53, 0
2, 211770860, Note_on_c, 1, 73, 0
2, 211801337, Note_on_c, 1, 61, 0
2, 211831814, Note_on_c, 1, 61, 26
2, 211862904, Note_on_c, 1, 56, 22
2, 211893994, Note_on_c, 1, 53, 19
2, 211925084, Note_on_c, 1, 73, 35
2, 211956174, Note_on_c, 1, 57, 0
2, 211987264, Note_on_c, 1, 60, 0
2, 212018354, Note_on_c, 1, 54, 0
2, 212049444, Note_on_c, 1, 75, 0
2, 212070772, Note_on_c, 1, 75, 29
2, 212093889, Note_on_c, 1, 77, 0
2, 212111122, Note_on_c, 1, 77, 31
2, 212138108, Note_on_c, 1, 73, 0
2, 212165094, Note_on_c, 1, 73, 28
2, 212192309, Note_on_c, 1, 75, 0
2, 212216139, Note_on_c, 1, 75, 26
2, 212216761, Note_on_c, 1, 77, 0
2, 212224260, Note_on_c, 1, 77, 28
2, 212226385, Note_on_c, 1, 75, 0
2, 212233300, Note_on_c, 1, 75, 30
2, 212235693, Note_on_c, 1, 77, 0
2, 212240649, Note_on_c, 1, 77, 28
2, 212243266, Note_on_c, 1, 75, 0
2, 212251526, Note_on_c, 1, 75, 29
2, 212254409, Note_on_c, 1, 77, 0
2, 212263466, Note_on_c, 1, 77, 27
2, 212266613, Note_on_c, 1, 75, 0
2, 212276208, Note_on_c, 1, 75, 29
2, 212279537, Note_on_c, 1, 77, 0
2, 212295465, Note_on_c, 1, 77, 27
2, 212298554, Note_on_c, 1, 75, 0
2, 212310443, Note_on_c, 1, 75, 30
2, 212313332, Note_on_c, 1, 77, 0
2, 212327435, Note_on_c, 1, 77, 27
2, 212330081, Note_on_c, 1, 75, 0
2, 212340445, Note_on_c, 1, 75, 30
2, 212343016, Note_on_c, 1, 77, 0
2, 212355130, Note_on_c, 1, 77, 27
2, 212357452, Note_on_c, 1, 75, 0
2, 212366259, Note_on_c, 1, 54, 26
2, 212368375, Note_on_c, 1, 60, 26
2, 212370491, Note_on_c, 1, 57, 26
2, 212372607, Note_on_c, 1, 75, 30
2, 212374723, Note_on_c, 1, 56, 0
2, 212376839, Note_on_c, 1, 61, 0
2, 212378955, Note_on_c, 1, 53, 0
2, 212381071, Note_on_c, 1, 73, 0
2, 212384414, Note_on_c, 1, 73, 31
2, 212415675, Note_on_c, 1, 75, 0
2, 212446936, Note_on_c, 1, 75, 32
2, 212478468, Note_on_c, 1, 73, 0
2, 212511049, Note_on_c, 1, 56, 26
2, 212513884, Note_on_c, 1, 61, 26
2, 212516719, Note_on_c, 1, 53, 26
2, 212519554, Note_on_c, 1, 73, 35
2, 212522389, Note_on_c, 1, 66, 0
2, 212525224, Note_on_c, 1, 58, 0
2, 212528059, Note_on_c, 1, 58, 26
2, 212531940, Note_on_c, 1, 66, 33
2, 212535821, Note_on_c, 1, 78, 0
2, 212539702, Note_on_c, 1, 54, 0
2, 212550069, Note_on_c, 1, 54, 29
2, 212554997, Note_on_c, 1, 78, 34
2, 212559925, Note_on_c, 1, 73, 0
2, 212564853, Note_on_c, 1, 49, 0
2, 212572109, Note_on_c, 1, 49, 24
2, 212574535, Note_on_c, 1, 73, 30
2, 212576961, Note_on_c, 1, 70, 0
2, 212579387, Note_on_c, 1, 46, 0
2, 212592528, Note_on_c, 1, 46, 27
2, 212598502, Note_on_c, 1, 70, 35
2, 212604476, Note_on_c, 1, 66, 0
2, 212610450, Note_on_c, 1, 42, 0
2, 212623841, Note_on_c, 1, 42, 27
2, 212632150, Note_on_c, 1, 66, 35
2, 212640459, Note_on_c, 1, 61, 0
2, 212648768, Note_on_c, 1, 37, 0
2, 212660147, Note_on_c, 1, 37, 24
2, 212663320, Note_on_c, 1, 61, 30
2, 212666493, Note_on_c, 1, 58, 0
2, 212669666, Note_on_c, 1, 34, 0
2, 212685389, Note_on_c, 1, 34, 27
2, 212692647, Note_on_c, 1, 58, 35
2, 212699905, Note_on_c, 1, 54, 0
2, 212707163, Note_on_c, 1, 30, 0
2, 212723661, Note_on_c, 1, 30, 22
2, 212734994, Note_on_c, 1, 54, 28
2, 212746327, Note_on_c, 1, 58, 0
2, 212757660, Note_on_c, 1, 34, 0
2, 212770475, Note_on_c, 1, 34, 25
2, 212772087, Note_on_c, 1, 58, 31
2, 212773699, Note_on_c, 1, 61, 0
2, 212775311, Note_on_c, 1, 37, 0
2, 212797709, Note_on_c, 1, 37, 27
2, 212809353, Note_on_c, 1, 61, 35
2, 212828585, Note_on_c, 1, 52, 0
2, 212839133, Note_on_c, 1, 55, 0
2, 212849681, Note_on_c, 1, 72, 0
2, 212860229, Note_on_c, 1, 60, 0
2, 212870777, Note_on_c, 1, 60, 26
2, 212882152, Note_on_c, 1, 52, 19
2, 212893527, Note_on_c, 1, 55, 22
2, 212904902, Note_on_c, 1, 72, 35
2, 212916277, Note_on_c, 1, 53, 0
2, 212927652, Note_on_c, 1, 59, 0
2, 212939027, Note_on_c, 1, 56, 0
2, 212950402, Note_on_c, 1, 74, 0
2, 212961777, Note_on_c, 1, 74, 28
2, 212973391, Note_on_c, 1, 76, 0
2, 212998562, Note_on_c, 1, 76, 31
2, 213012220, Note_on_c, 1, 72, 0
2, 213025878, Note_on_c, 1, 72, 28
2, 213039765, Note_on_c, 1, 74, 0
2, 213054890, Note_on_c, 1, 74, 27
2, 213072299, Note_on_c, 1, 76, 0
2, 213077238, Note_on_c, 1, 76, 32
2, 213094982, Note_on_c, 1, 74, 0
2, 213097878, Note_on_c, 1, 74, 27
2, 213115825, Note_on_c, 1, 76, 0
2, 213137116, Note_on_c, 1, 76, 29
2, 213155159, Note_on_c, 1, 74, 0
2, 213158781, Note_on_c, 1, 74, 31
2, 213177027, Note_on_c, 1, 76, 0
2, 213199340, Note_on_c, 1, 76, 28
2, 213217808, Note_on_c, 1, 74, 0
2, 213222022, Note_on_c, 1, 74, 32
2, 213240563, Note_on_c, 1, 76, 0
2, 213249615, Note_on_c, 1, 76, 29
2, 213268318, Note_on_c, 1, 74, 0
2, 213277401, Note_on_c, 1, 74, 32
2, 213296099, Note_on_c, 1, 76, 0
2, 213319405, Note_on_c, 1, 76, 28
2, 213338117, Note_on_c, 1, 74, 0
2, 213347377, Note_on_c, 1, 74, 32
2, 213366084, Note_on_c, 1, 76, 0
2, 213389431, Note_on_c, 1, 76, 28
2, 213408153, Note_on_c, 1, 74, 0
2, 213431517, Note_on_c, 1, 56, 26
2, 213450254, Note_on_c, 1, 59, 26
2, 213468991, Note_on_c, 1, 53, 26
2, 213487728, Note_on_c, 1, 74, 32
2, 213506465, Note_on_c, 1, 52, 0
2, 213525202, Note_on_c, 1, 60, 0
2, 213543939, Note_on_c, 1, 55, 0
2, 213562676, Note_on_c, 1, 72, 0
2, 213565336, Note_on_c, 1, 72, 31
2, 213582075, Note_on_c, 1, 74, 0
2, 213598814, Note_on_c, 1, 74, 33
2, 213615824, Note_on_c, 1, 72, 0
2, 213618238, Note_on_c, 1, 52, 26
2, 213638068, Note_on_c, 1, 60, 26
2, 213657898, Note_on_c, 1, 55, 26
2, 213677728, Note_on_c, 1, 72, 35
2, 213697558, Note_on_c, 1, 65, 0
2, 213717388, Note_on_c, 1, 56, 0
2, 213737218, Note_on_c, 1, 56, 26
2, 213758222, Note_on_c, 1, 65, 33
2, 213766747, Note_on_c, 1, 77, 0
2, 213787044, Note_on_c, 1, 53, 0
2, 213796011, Note_on_c, 1, 53, 27
2, 213818062, Note_on_c, 1, 77, 35
2, 213840113, Note_on_c, 1, 72, 0
2, 213862164, Note_on_c, 1, 48, 0
2, 213872478, Note_on_c, 1, 48, 24
2, 213893735, Note_on_c, 1, 72, 30
2, 213914992, Note_on_c, 1, 68, 0
2, 213936249, Note_on_c, 1, 44, 0
2, 213936818, Note_on_c, 1, 44, 27
2, 213959915, Note_on_c, 1, 68, 35
2, 213983012, Note_on_c, 1, 65, 0
2, 214006109, Note_on_c, 1, 41, 0
2, 214020034, Note_on_c, 1, 41, 27
2, 214044649, Note_on_c, 1, 65, 35
2, 214069264, Note_on_c, 1, 60, 0
2, 214093879, Note_on_c, 1, 36, 0
2, 214108552, Note_on_c, 1, 36, 24
2, 214131609, Note_on_c, 1, 60, 30
2, 214154666, Note_on_c, 1, 56, 0
2, 214177723, Note_on_c, 1, 32, 0
2, 214184154, Note_on_c, 1, 32, 27
2, 214209343, Note_on_c, 1, 56, 35
2, 214234532, Note_on_c, 1, 53, 0
2, 214259721, Note_on_c, 1, 29, 0
2, 214284910, Note_on_c, 1, 29, 22
2, 214313366, Note_on_c, 1, 53, 28
2, 214341822, Note_on_c, 1, 56, 0
2, 214370278, Note_on_c, 1, 32, 0
2, 214392387, Note_on_c, 1, 32, 25
2, 214419067, Note_on_c, 1, 56, 31
2, 214445747, Note_on_c, 1, 60, 0
2, 214472427, Note_on_c, 1, 36, 0
2, 214490637, Note_on_c, 1, 36, 27
2, 214520084, Note_on_c, 1, 60, 35
2, 214520084, End_track
0, 0, End_of_file
